<?xml version="1.0" encoding="UTF-8"?>
<svg width="224px" height="66px" viewBox="0 0 224 66" version="1.1" xmlns="http://www.w3.org/2000/svg" xmlns:xlink="http://www.w3.org/1999/xlink">
    <!-- Generator: Sketch 43.2 (39069) - http://www.bohemiancoding.com/sketch -->
    <title>Page 1</title>
    <desc>Created with Sketch.</desc>
    <defs>
        <polygon id="path-1" points="54.11165 0.127 0 0.127 0 65.49975 54.11165 65.49975 54.11165 0.127"/>
    </defs>
    <g id="-" stroke="none" stroke-width="1" fill="none" fill-rule="evenodd">
        <g id="logo" transform="translate(-24.000000, -7.000000)">
            <g id="Page-1" transform="translate(24.000000, 7.000000)">
                <g id="Group-3" transform="translate(0.000000, 0.373000)">
                    <mask id="mask-2" fill="white">
                        <use xlink:href="#path-1"/>
                    </mask>
                    <g id="Clip-2"/>
                    <path d="M39.49115,38.48725 L39.43615,47.86075 C39.43265,48.49775 38.91765,49.01375 38.28065,49.01725 C37.64715,49.02075 37.12715,48.51725 37.11165,47.88375 C37.06715,46.08125 36.97815,43.51525 36.92565,43.17975 C35.71215,35.47375 30.50315,31.25775 27.39615,29.14225 C27.78165,26.45125 28.25165,23.32075 28.40765,22.18325 L33.24565,19.56375 L29.75665,8.98975 C28.78865,6.05575 27.38615,3.79925 25.58815,2.28275 C23.21415,0.28125 20.17515,-0.34275 16.80065,0.47825 C10.66415,1.97175 7.90765,6.96325 9.03915,14.53325 C9.09215,14.88675 9.15065,15.27775 9.21515,15.70325 C9.21515,15.72025 9.21415,15.73725 9.21415,15.75425 C9.21415,15.93875 9.24615,16.11525 9.30315,16.28025 C9.74765,19.20625 10.41865,23.54125 11.22965,28.77675 C9.22015,30.04275 6.06765,32.11325 3.81815,35.03175 C0.69965,39.07825 -0.23635,43.87275 0.04815,49.74525 C0.59015,60.94325 0.76665,63.79275 0.77415,63.87425 L0.91865,65.49975 L2.54365,65.34625 C2.86965,65.31525 10.58065,63.71775 14.84765,58.24425 C17.17715,55.25525 18.01515,51.50275 17.33915,47.08975 C16.32565,40.47925 15.32915,34.04275 14.45015,28.36425 C13.60915,22.93125 12.91715,18.46175 12.47115,15.52625 C12.58865,13.96575 13.89315,12.73075 15.48315,12.73075 C17.14165,12.73075 18.49215,14.07275 18.50665,15.72725 C18.51265,16.45225 18.95865,17.11275 19.65615,17.31025 C20.75515,17.62175 21.75265,16.80425 21.75265,15.75425 C21.75265,12.29725 18.94015,9.48525 15.48315,9.48525 C14.21515,9.48525 13.03415,9.86475 12.04665,10.51475 C12.25815,6.74375 14.08265,4.48025 17.56815,3.63225 C21.87065,2.58575 24.93315,4.73075 26.67415,10.00675 L29.31215,18.00225 L25.41265,20.11325 L25.30215,20.93075 C25.27665,21.11875 22.74315,39.82775 21.24115,47.00325 C20.44615,50.80575 21.09415,55.79475 23.81115,59.13925 C26.80615,62.82575 31.54065,65.48475 38.00615,65.48475 C44.47165,65.48475 49.20615,62.11825 51.48365,58.61925 C53.17365,56.02275 54.11165,52.39375 54.11165,47.64475 L54.11165,38.62375 L39.49115,38.48725 Z" id="Fill-1" fill="#3A3C43" mask="url(#mask-2)"/>
                </g>
                <path d="M22.2536,27.47625 C22.1241,26.97675 21.6526,26.75325 21.2866,27.02325 L19.2981,28.48925 L17.3091,27.02325 C16.9431,26.75325 16.4721,26.97675 16.3421,27.47625 C16.2146,27.96725 16.0981,28.63975 16.0981,29.45925 C16.0981,30.31775 16.2256,31.03875 16.3606,31.56075 C16.4876,32.05325 16.9546,32.27175 17.3181,32.01225 L19.2981,30.59675 L21.2781,32.01225 C21.6411,32.27175 22.1081,32.05325 22.2356,31.56075 C22.3701,31.03875 22.4981,30.31775 22.4981,29.45925 C22.4981,28.63975 22.3816,27.96725 22.2536,27.47625" id="Fill-4" fill="#3A3C43"/>
                <path d="M42.7128,33.48745 L42.7128,33.49495 L42.7128,33.48745 Z M41.0918,42.49445 C40.1958,42.49445 39.4693,41.76845 39.4688,40.87245 L39.4668,33.49245 C39.4643,32.65345 40.0793,31.73195 41.4273,31.59245 C42.0518,31.48345 42.6203,31.79945 42.8833,31.94545 C43.5018,32.28895 44.7858,33.00495 46.5108,32.90595 C48.8673,32.77295 50.7258,31.54545 50.7438,31.53345 C51.0138,31.34945 51.3328,31.25095 51.6588,31.25095 L58.2088,31.25095 C58.6398,31.25095 59.0528,31.42195 59.3573,31.72695 C59.6613,32.03145 59.8323,32.44445 59.8318,32.87495 C59.8318,33.11845 59.7908,35.31845 58.4438,37.56795 C57.1733,39.68895 54.4983,42.21695 48.9678,42.21695 C48.0718,42.21695 47.3448,41.49045 47.3448,40.59395 C47.3448,39.69795 48.0718,38.97145 48.9678,38.97145 C52.1873,38.97145 54.4383,37.93795 55.6588,35.89995 C55.9488,35.41595 56.1483,34.93195 56.2853,34.49695 L52.1143,34.49695 C51.2373,34.99945 49.1963,36.00545 46.6938,36.14695 C45.0728,36.23845 43.7038,35.86595 42.7133,35.46695 L42.7148,40.87145 C42.7148,41.76745 41.9888,42.49445 41.0923,42.49445 L41.0918,42.49445 Z" id="Fill-6" fill="#3A3C43"/>
                <path d="M54.99675,29.61955 L54.99675,29.61955 C54.10075,29.61955 53.37375,28.89255 53.37375,27.99655 L53.37375,11.30355 C53.37375,10.40705 54.10075,9.68055 54.99675,9.68055 C55.89275,9.68055 56.61975,10.40705 56.61975,11.30355 L56.61975,27.99655 C56.61975,28.89255 55.89275,29.61955 54.99675,29.61955" id="Fill-8" fill="#087FFD"/>
                <path d="M49.6015,29.61955 L49.6015,29.61955 C48.7055,29.61955 47.9785,28.89255 47.9785,27.99655 L47.9785,22.12705 C47.9785,21.23105 48.7055,20.50405 49.6015,20.50405 C50.498,20.50405 51.2245,21.23105 51.2245,22.12705 L51.2245,27.99655 C51.2245,28.89255 50.498,29.61955 49.6015,29.61955" id="Fill-10" fill="#087FFD"/>
                <path d="M44.23305,29.61955 L44.23305,29.61955 C43.33705,29.61955 42.61005,28.89255 42.61005,27.99655 L42.61005,17.37405 C42.61005,16.47755 43.33705,15.75105 44.23305,15.75105 C45.12955,15.75105 45.85605,16.47755 45.85605,17.37405 L45.85605,27.99655 C45.85605,28.89255 45.12955,29.61955 44.23305,29.61955" id="Fill-12" fill="#087FFD"/>
                <path d="M126.64105,37.5866 L126.64105,46.7951 L134.38205,46.7951 C138.47505,46.7951 139.18755,44.2151 139.18755,42.2131 C139.18755,40.3891 138.38605,37.5866 134.42655,37.5866 L126.64105,37.5866 Z M126.64105,25.2636 L126.64105,33.9386 L133.93755,33.9386 C136.87355,33.9386 137.80755,31.4471 137.80755,29.3121 C137.80755,27.7101 136.96255,25.2636 133.62605,25.2636 L126.64105,25.2636 Z M138.60905,35.4511 C140.96605,36.2966 143.41355,39.0101 143.41355,42.2131 L143.41355,42.4806 C143.41355,47.8636 139.58755,50.4881 134.47105,50.4881 L122.45955,50.4881 L122.45955,21.5711 L133.13655,21.5711 C138.16355,21.5711 142.03455,23.8396 142.03455,29.1341 L142.03455,29.4006 C142.03455,32.3371 140.61005,34.3391 138.60905,35.3621 L138.60905,35.4511 Z" id="Fill-14" fill="#3A3C43"/>
                <path d="M149.0546,28.24405 L149.0546,41.90155 C149.0546,46.30655 151.6791,47.64105 154.3041,47.64105 C156.9291,47.64105 159.5541,46.30655 159.5541,41.90155 L159.5541,28.24405 L163.5581,28.24405 L163.5581,42.08005 C163.5581,48.48655 159.0646,51.20005 154.3041,51.20005 C149.5441,51.20005 145.0506,48.48655 145.0506,42.08005 L145.0506,28.24405 L149.0546,28.24405 Z" id="Fill-16" fill="#3A3C43"/>
                <path d="M178.54485,28.24405 L178.54485,31.53605 L172.36135,31.53605 L172.36135,44.03705 C172.36135,46.66205 173.82935,47.41855 175.47535,47.41855 C176.63235,47.41855 177.78885,47.06255 178.67835,46.39555 L179.39035,46.39555 L179.39035,49.82055 C178.32285,50.39955 176.45385,50.88855 175.11935,50.88855 C170.31485,50.88855 168.26835,48.26405 168.26835,44.17105 L168.26835,31.53605 L165.06535,31.53605 L165.06535,29.57855 C168.44685,28.42205 169.73685,25.61905 170.31485,23.21655 L172.36135,23.21655 L172.36135,28.24405 L178.54485,28.24405 Z" id="Fill-18" fill="#3A3C43"/>
                <path d="M185.27825,44.1303 C185.27825,46.8888 186.79075,47.6003 189.10375,47.2003 L189.77125,47.2003 L189.77125,50.6703 C189.19275,50.8043 187.90275,50.8928 187.05825,50.8928 C183.23125,50.8928 181.22975,48.6243 181.22975,44.6643 L181.22975,19.3468 L185.27825,19.3468 L185.27825,44.1303 Z" id="Fill-20" fill="#3A3C43"/>
                <path d="M200.2177,31.00235 C196.3027,31.00235 194.3452,33.53835 193.7667,37.27535 L206.0897,37.27535 C205.8232,34.24985 204.1767,31.00235 200.2177,31.00235 L200.2177,31.00235 Z M209.8717,44.25985 C208.8037,48.70835 205.1107,51.20035 200.2177,51.20035 C194.0337,51.20035 189.5402,46.61685 189.5402,39.67735 L189.5402,39.05435 C189.5402,32.20335 193.8552,27.57685 200.0837,27.57685 C206.7122,27.57685 210.2277,32.69285 210.2277,38.96585 C210.2277,39.58835 210.2277,39.94435 210.1832,40.61185 L193.6772,40.61185 C194.0337,44.70435 196.2137,47.72985 200.3067,47.72985 C203.1982,47.72985 204.9782,46.52885 205.8677,44.25985 L209.8717,44.25985 Z" id="Fill-22" fill="#3A3C43"/>
                <path d="M216.3036,50.4882 L212.2551,50.4882 L212.2551,28.2442 L214.9691,28.2442 L215.9921,32.1592 L216.0816,32.1592 C216.9711,29.4897 219.7736,28.0662 222.6211,28.0662 C222.8881,28.0662 223.6891,28.1107 224.0001,28.1547 L224.0001,32.1592 L222.7541,32.1592 C216.7931,32.1592 216.3036,35.8957 216.3036,39.9002 L216.3036,50.4882 Z" id="Fill-24" fill="#3A3C43"/>
                <path d="M82.78045,26.71405 C82.55795,27.47055 81.89045,29.33905 81.71295,29.78355 L77.66445,39.83805 L87.98545,39.83805 L83.89245,29.69455 C83.71445,29.25005 83.04745,27.47055 82.86945,26.71405 L82.78045,26.71405 Z M89.49795,43.57455 L76.19645,43.57455 L73.43795,50.42555 L69.16745,50.42555 L69.16745,49.75805 L81.08995,21.50905 L84.73795,21.50905 L96.70495,49.75805 L96.70495,50.42555 L92.25595,50.42555 L89.49795,43.57455 Z" id="Fill-27" fill="#087FFD"/>
                <path d="M100.08635,39.34855 C100.08635,43.93055 102.35535,47.66755 107.24835,47.66755 C112.00885,47.66755 114.18835,43.84155 114.18835,39.34855 C114.18835,34.85505 112.09735,30.94055 107.24835,30.94055 C102.26585,30.94055 100.08635,34.63255 100.08635,39.34855 M107.07085,27.51505 C110.18485,27.51505 112.54235,28.67155 113.96635,30.49555 L114.05485,30.49555 L114.05485,19.28505 L118.10335,19.28505 L118.10335,50.42555 L115.07835,50.42555 L114.23335,47.75605 L114.14385,47.75605 C112.54235,50.02555 109.56185,51.13755 106.53685,51.13755 C101.28735,51.13755 95.99335,47.22255 95.99335,39.83805 L95.99335,39.17055 C95.99335,32.49755 100.04185,27.51505 107.07085,27.51505" id="Fill-29" fill="#087FFD"/>
            </g>
        </g>
    </g>
</svg>