<?xml version="1.0" encoding="utf-8"?>
<!-- Generator: Adobe Illustrator 23.0.4, SVG Export Plug-In . SVG Version: 6.00 Build 0)  -->
<svg version="1.1" id="Layer_1" xmlns="http://www.w3.org/2000/svg" xmlns:xlink="http://www.w3.org/1999/xlink" x="0px" y="0px"
	 viewBox="0 0 128 128" style="enable-background:new 0 0 128 128;" xml:space="preserve">
<style type="text/css">
	.st0{fill:#415AFF;}
	.st1{fill:#FFFFFF;}
</style>
<circle class="st0" cx="64.2" cy="63.3" r="52.7"/>
<path class="st1" d="M111.4,50.2l2.6-4.1c-0.4-1.3-0.9-2.5-1.4-3.7l-2.4,3.9c-2.8,4.1-6.3,9.9-9,14.4l-4.3,6.8L87.3,46
	c-2.5-5.6-8-9.2-14.1-9.2H58.6c-0.4,0-0.8,0.4-0.6,0.9l6.4,14l-0.9,1.4c-4.6,7-9.4,14.7-9.4,14.7L42.9,45.5c-2.7-5.3-8-8.5-13.8-8.5
	H18.6c-0.9,1.6-1.8,3.3-2.6,5.1L35,81c1.5,3.3,4.8,4.9,8,4.5l-5.1,8c-0.2,0.3-0.1,0.9,0.2,1.1l1.1,0.7c0.3,0.2,0.9,0.1,1.1-0.2
	l25.6-40l11.8,25.8c1.5,3.4,4.9,4.9,8.1,4.5l-5.1,8.2c-0.4,0.7-0.2,1.7,0.4,2.1c0.8,0.4,1.7,0.2,2.2-0.4L111.4,50.2L111.4,50.2z"/>
</svg>
