<?xml version="1.0" encoding="utf-8"?>
<!-- Generator: Adobe Illustrator 21.1.0, SVG Export Plug-In . SVG Version: 6.00 Build 0)  -->
<svg version="1.1" id="Layer_1" xmlns="http://www.w3.org/2000/svg" xmlns:xlink="http://www.w3.org/1999/xlink" x="0px" y="0px"
	 viewBox="0 0 197 52" style="enable-background:new 0 0 197 52;" xml:space="preserve">
<style type="text/css">
	.st0{fill:#415AFF;}
	.st1{fill:#FFFFFF;}
</style>
<path d="M50.9,37.4l4-3.8c2,2,4.7,2.9,7,2.9c3,0,4.6-1.5,4.6-2.9c0-1-0.9-1.2-3.8-2c-4.7-1.2-8-2.2-8-6.4c0-5,4.3-8.7,10.8-8.7
	c3.5,0,6.9,1.2,9.2,3.5L71,24c-1.9-1.7-4.4-2.5-6.1-2.5c-2.6,0-4.1,1.5-4.1,2.9c0,1,1,1.4,3.9,2.1c5.5,1.3,7.9,2.7,7.9,6.4
	c0,5.3-4.9,8.8-11.2,8.8C57.2,41.6,53.3,40,50.9,37.4L50.9,37.4z M93.9,28.1c0,1.4-0.3,2.2-2.5,13.1h-5.7
	c2.2-10.4,2.3-10.9,2.3-11.5c0-1.4-0.8-2.2-2.1-2.2c-2,0-3.7,1.4-4.2,3.1l-2.2,10.6h-6l5.1-24.7h6l-1.7,8.1c1.4-1.4,3.3-2.1,5.3-2.1
	C91.7,22.4,93.9,24.8,93.9,28.1z M94.7,33.4c0-6,5.4-11,11.9-11c5.1,0,8.7,3.4,8.7,8.1c0,6-5.4,11-12,11
	C98.3,41.6,94.7,38.2,94.7,33.4z M109.6,30.7c0-1.9-1.4-3.3-3.3-3.3c-3.3,0-5.9,2.6-5.9,5.8c0,1.9,1.4,3.3,3.3,3.3
	C106.9,36.6,109.6,34,109.6,30.7z M137,29.9c0,6.1-4.4,11.7-10.3,11.7c-2.5,0-4.5-1.2-5.7-3.2l-1.8,8.8h-6l5.1-24.4h6l-0.5,2.1
	c1.7-1.6,3.8-2.6,6.2-2.6C134.3,22.4,137,25.5,137,29.9z M131.3,30.5c0-1.8-1.3-3.1-3.3-3.1c-3.2,0-5.8,3-5.8,6.1c0,1.8,1.3,3,3.2,3
	C128.5,36.6,131.3,33.6,131.3,30.5z M139.2,16.9h6.4l0.5,15.2l8.3-15.2h6.5l1.8,15.2l6.9-15.2h6.6l-12.1,24.3h-6.1L156,25.8
	l-8.7,15.4h-6.1L139.2,16.9z M176.7,16.9h11.1c4.7,0,7.8,2.8,7.8,7c0,5.6-4.8,9.7-10.9,9.7h-5.4l-1.6,7.6h-6L176.7,16.9z
	 M185.1,28.1c2.2,0,4.4-1.9,4.4-3.7c0-1.2-1.1-1.9-2.9-1.9h-5l-1.2,5.7H185.1z"/>
<path class="st0" d="M36.3,14.2H4.8c-3.4,0.3-3.9,2.7-4,3.7V50h39.5V17.5C40.1,16.3,39.3,14.4,36.3,14.2z"/>
<g>
	<path class="st1" d="M26.6,34.5H12.3c-0.2,0-0.3,0-0.5,0c-0.2,0-0.4,0.1-0.6,0.1c0,0-0.1,0-0.1,0c-1.4,0.4-2.6,1.4-3.3,2.8L6,41.6
		C5.9,41.9,6.1,42,6.1,42h14.3c1.6,0,3-0.7,4-1.9c0.2-0.3,0.8-1.5,0.8-1.5l1.6-3.7C26.9,34.6,26.6,34.5,26.6,34.5z"/>
</g>
<g>
	<path class="st1" d="M34.7,22.2H20.3c-0.2,0-0.3,0-0.5,0c-0.2,0-0.4,0.1-0.6,0.1c0,0-0.1,0-0.1,0c-1.4,0.4-2.6,1.4-3.3,2.8L14,29.3
		c-0.1,0.3,0.1,0.4,0.1,0.4h14.3c1.6,0,3-0.7,4-1.9c0.2-0.3,0.8-1.5,0.8-1.5l1.6-3.7C34.9,22.3,34.7,22.2,34.7,22.2z"/>
</g>
<path class="st0" d="M31.2,9.7L30.9,9c-0.8-2.5-2.3-4.6-4.2-6c-1.8-1.3-4-2-6.2-2s-4.4,0.7-6.2,2c-2,1.4-3.4,3.5-4.2,6L9.9,9.7h1.7
	v0h2.2l0.1-0.3c1.1-3,3.7-4.8,6.7-4.8s5.5,1.9,6.7,4.8l0.1,0.3h2.2v0H31.2z"/>
</svg>
