<svg xmlns="http://www.w3.org/2000/svg" xmlns:xlink="http://www.w3.org/1999/xlink" viewBox="0 0 92.82 95.21">
    <defs>
        <style>
            .cls-1{isolation:isolate;}.cls-2{fill:url(#linear-gradient);}.cls-3{fill:url(#linear-gradient-2);}.cls-4,.cls-5{fill:#231f20;}.cls-4{opacity:0.3;}.cls-4,.cls-5,.cls-7{mix-blend-mode:overlay;}.cls-5{opacity:0.6;}.cls-6{fill:#fff;}.cls-7{opacity:0.4;}
        </style>
        <linearGradient id="linear-gradient" x1="5.04" y1="88.52" x2="93.76" y2="-6.96" gradientUnits="userSpaceOnUse">
            <stop offset="0" stop-color="#b1b7c2"/>
            <stop offset="1" stop-color="#fff"/>
        </linearGradient>
        <linearGradient id="linear-gradient-2" x1="-13.91" y1="100.53" x2="70.43" y2="17.08"
                        gradientUnits="userSpaceOnUse">
            <stop offset="0" stop-color="#124b97"/>
            <stop offset="0.43" stop-color="#7d4196"/>
            <stop offset="0.82" stop-color="#da3894"/>
            <stop offset="1" stop-color="#ff3494"/>
        </linearGradient>
    </defs>
    <g class="cls-1">
        <g id="Layer_2" data-name="Layer 2">
            <g id="Layer_1-2" data-name="Layer 1">
                <path class="cls-2"
                      d="M25.82,2C35.36-8.48,90.2,25,92.74,47.88s-54.67,59-71.09,43.62C7.41,78.13-.08,30.35,25.82,2Z"/>
                <path class="cls-3"
                      d="M46.32,92.69C32.58,95.09-5.56,48.45.69,29.27S50.17,2,77.42,18.38C106.67,36,69.61,88.64,46.32,92.69Z"/>
                <path class="cls-4"
                      d="M68.67,26.94C84.06,33.58,75.27,69,64,77.83,52.22,87.08,13.15,83,11.54,48.44,10.8,32.76,35.27,12.53,68.67,26.94Z"/>
                <path class="cls-5"
                      d="M68.67,25.36C84.06,32,75.27,67.46,64,76.25c-11.82,9.25-50.89,5.14-52.5-29.39C10.8,31.18,35.27,11,68.67,25.36Z"/>
                <path class="cls-6"
                      d="M68.67,23.44c15.39,6.64,6.6,42.11-4.63,50.89-11.82,9.25-50.89,5.14-52.5-29.39C10.8,29.26,35.27,9,68.67,23.44Z"/>
                <path class="cls-6"
                      d="M68.67,22.44c15.39,6.64,6.6,42.1-4.63,50.89-11.82,9.25-50.89,5.14-52.5-29.39C10.8,28.26,35.27,8,68.67,22.44Z"/>
                <g class="cls-7">
                    <path class="cls-6"
                          d="M48.34,77.72a40.41,40.41,0,0,1-24-7.68c-8-6-12.46-15.05-13-26.09-.24-5.1,2.2-10.71,6.68-15.41,6.77-7.09,17.06-11.16,28.23-11.16a56.74,56.74,0,0,1,22.4,4.94c4.43,1.92,7.22,6.39,8.07,13,1.67,12.95-4.61,31.85-12.67,38.16C60.64,76.15,54.88,77.72,48.34,77.72Zm-2-60.09c-11.1,0-21.33,4-28,11.09-4.43,4.64-6.84,10.19-6.61,15.22,1.09,23.16,19.2,33.53,36.68,33.53,6.49,0,12.19-1.55,15.63-4.24C72,67,78.2,48.18,76.54,35.31,75.7,28.84,73,24.43,68.62,22.55A56.41,56.41,0,0,0,46.32,17.63Z"/>
                </g>
            </g>
        </g>
    </g>
</svg>