<svg xmlns="http://www.w3.org/2000/svg" viewBox="0 0 209.89 145.95">
    <defs>
        <style>
            .bl-cls-1{isolation:isolate;}
            .bl-cls-2{fill:#ff8aa9;}
            .bl-cls-2,
            .bl-cls-3{mix-blend-mode:multiply;}
            .bl-cls-3{fill:#ff355a;}
            .bl-cls-4{fill:#fff;}
        </style>
    </defs>
    <g class="bl-cls-1">
        <g id="Layer_2" >
            <g id="Layer_1-2" >
                <path class="bl-cls-2"
                      d="M68,89.91c-8.53-4.35-19.29-4.61-28.85-6.13C30.22,82.37,14,76.16,7.52,69.43-3.69,57.8-3,32.4,13.92,24.29c19.42-9.31,43.82-.77,64.86,2,32.48,4.27,39.47-20.81,71.05-25.13,12.09-1.65,29.33,2,35.24,14.28C192.58,31,182.62,49,193.88,63.8c4.21,5.53,31.47,28.84,3.65,38-10,3.29-20.18,5.42-30.36,7.86-9.79,2.34-19.32,5.14-28.11,10.11-11.74,6.65-24.66,16.55-38.17,9.86C83.5,121,83.83,98,68,89.91Z"/>
                <path class="bl-cls-3"
                      d="M25.1,70.85C-8.47,122.29,55.67,146,96.24,146c39.9,0,85-15,85-61.3C181.22-34.4,82.73-17.42,25.1,70.85Z"/>
                <path class="bl-cls-4"
                      d="M15.71,133.2a.75.75,0,0,1-.54-.22.77.77,0,0,1,0-1.09l30.45-30.45a.76.76,0,0,1,1.08,0,.77.77,0,0,1,0,1.09L16.25,133A.76.76,0,0,1,15.71,133.2Z"/>
                <path class="bl-cls-4"
                      d="M155.21,40.72a.75.75,0,0,1-.54-.22.76.76,0,0,1,0-1.08C156,38.09,186.28,6.93,188.93,5.16a.77.77,0,0,1,.85,1.28c-2.08,1.39-25.27,25-34,34.05A.78.78,0,0,1,155.21,40.72Z"/>
            </g>
        </g>
    </g>
</svg>