<svg xmlns="http://www.w3.org/2000/svg" viewBox="0 0 211.06 181.37">
    <defs>
        <style>
            .cls-1{isolation:isolate;}.cls-2{fill:#5dceff;}.cls-2,.cls-3{mix-blend-mode:multiply;}.cls-3{fill:#5d8eff;}.cls-4{fill:#fff;}
        </style>
    </defs>
    <g class="cls-1">
        <g id="Layer_2" data-name="Layer 2">
            <g id="Layer_1-2" data-name="Layer 1">
                <path class="cls-2"
                      d="M144.05,33.63C107.78,37.74,89.4,9.38,64.94,8.58,41,7.8,27.08,28.69,35.6,62.38c9.67,38.27-8.5,57.73-6.81,88.9.71,13.12,13.78,31.75,30,30,21.3-2.34,29.92-26.84,48.74-43.72,16.89-15.15,46.3-25.66,64-36.71,17.35-10.82,37.84-18.7,39.46-42C212.07,43.41,198.42,27.47,144.05,33.63Z"/>
                <path class="cls-3"
                      d="M184.34,114.26c-11.27,18.49-33.42,10.94-52.13,9.28C95.52,120.3,70.65,169,32.13,143.85c-42.65-27.89-42.88-78.56-.47-98C150.34-8.67,194.58,97.46,184.34,114.26Z"/>
                <path class="cls-4"
                      d="M15.11,174.65a.76.76,0,0,1-.54-.22.77.77,0,0,1,0-1.09l41.76-41.76a.77.77,0,1,1,1.09,1.09L15.66,174.43A.77.77,0,0,1,15.11,174.65Z"/>
                <path class="cls-4"
                      d="M76.79,46.34a.75.75,0,0,1-.54-.22.77.77,0,0,1,0-1.09L121.05.22a.79.79,0,0,1,1.09,0,.77.77,0,0,1,0,1.09L77.33,46.12A.76.76,0,0,1,76.79,46.34Z"/>
            </g>
        </g>
    </g>
</svg>