<svg width="35" height="35" viewBox="0 0 35 35" fill="none" xmlns="http://www.w3.org/2000/svg">
<circle cx="17.5" cy="17.5" r="17.5" fill="#5A9CF8"/>
<path d="M23.2441 21.2441L17.7582 26.73L12.2723 21.2441C11.1873 20.1591 10.4484 18.7767 10.1491 17.2717C9.84972 15.7668 10.0034 14.2069 10.5906 12.7893C11.1778 11.3716 12.1722 10.16 13.448 9.30749C14.7238 8.45501 16.2238 8 17.7582 8C19.2927 8 20.7926 8.45501 22.0685 9.30749C23.3443 10.16 24.3387 11.3716 24.9259 12.7893C25.5131 14.2069 25.6667 15.7668 25.3674 17.2717C25.068 18.7767 24.3291 20.1591 23.2441 21.2441V21.2441ZM17.7582 17.4822C18.2155 17.4822 18.654 17.3006 18.9773 16.9772C19.3006 16.6539 19.4823 16.2154 19.4823 15.7582C19.4823 15.3009 19.3006 14.8624 18.9773 14.5391C18.654 14.2157 18.2155 14.0341 17.7582 14.0341C17.301 14.0341 16.8625 14.2157 16.5391 14.5391C16.2158 14.8624 16.0342 15.3009 16.0342 15.7582C16.0342 16.2154 16.2158 16.6539 16.5391 16.9772C16.8625 17.3006 17.301 17.4822 17.7582 17.4822Z" fill="white"/>
</svg>
