<svg width="35" height="35" viewBox="0 0 35 35" fill="none" xmlns="http://www.w3.org/2000/svg">
<circle cx="17.5" cy="17.5" r="17.5" fill="#5A9CF8"/>
<path d="M10.8889 10H25.1111C25.3469 10 25.573 10.0937 25.7397 10.2603C25.9064 10.427 26 10.6531 26 10.8889V25.1111C26 25.3469 25.9064 25.573 25.7397 25.7397C25.573 25.9064 25.3469 26 25.1111 26H10.8889C10.6531 26 10.427 25.9064 10.2603 25.7397C10.0937 25.573 10 25.3469 10 25.1111V10.8889C10 10.6531 10.0937 10.427 10.2603 10.2603C10.427 10.0937 10.6531 10 10.8889 10V10ZM17.1138 21.5556L23.3982 15.2702L22.1413 14.0133L17.1138 19.0418L14.5991 16.5271L13.3422 17.784L17.1138 21.5556Z" fill="white"/>
</svg>
