<svg width="35" height="35" viewBox="0 0 35 35" fill="none" xmlns="http://www.w3.org/2000/svg">
<circle cx="17.5" cy="17.5" r="17.5" fill="#5A9CF8"/>
<path d="M25.6779 15.2102C25.8074 15.1072 26 15.2035 26 15.3662V22.1563C26 23.0361 25.2861 23.75 24.4063 23.75H10.5938C9.71387 23.75 9 23.0361 9 22.1563V15.3695C9 15.2035 9.18926 15.1105 9.32207 15.2135C10.0658 15.7912 11.052 16.525 14.4387 18.9854C15.1393 19.4967 16.3213 20.5725 17.5 20.5658C18.6854 20.5758 19.8906 19.4768 20.5646 18.9854C23.9514 16.525 24.9342 15.7879 25.6779 15.2102ZM17.5 19.5C18.2703 19.5133 19.3793 18.5305 19.9371 18.1254C24.3432 14.9279 24.6785 14.649 25.6945 13.8521C25.8871 13.7027 26 13.4703 26 13.2246V12.5938C26 11.7139 25.2861 11 24.4063 11H10.5938C9.71387 11 9 11.7139 9 12.5938V13.2246C9 13.4703 9.11289 13.6994 9.30547 13.8521C10.3215 14.6457 10.6568 14.9279 15.0629 18.1254C15.6207 18.5305 16.7297 19.5133 17.5 19.5Z" fill="white"/>
</svg>
