<svg width="35" height="35" viewBox="0 0 35 35" fill="none" xmlns="http://www.w3.org/2000/svg">
<circle cx="17.5" cy="17.5" r="17.5" fill="#5A9CF8"/>
<path d="M17.5 9C22.192 9 26 12.808 26 17.5C26 22.192 22.192 26 17.5 26C12.808 26 9 22.192 9 17.5C9 12.808 12.808 9 17.5 9ZM12.4195 20.4036C13.6673 22.2651 15.5408 23.45 17.636 23.45C19.7304 23.45 21.6046 22.266 22.8516 20.4036C21.437 19.0815 19.5723 18.3473 17.636 18.35C15.6995 18.3471 13.8344 19.0813 12.4195 20.4036V20.4036ZM17.5 16.65C18.1763 16.65 18.8249 16.3813 19.3031 15.9031C19.7813 15.4249 20.05 14.7763 20.05 14.1C20.05 13.4237 19.7813 12.7751 19.3031 12.2969C18.8249 11.8187 18.1763 11.55 17.5 11.55C16.8237 11.55 16.1751 11.8187 15.6969 12.2969C15.2187 12.7751 14.95 13.4237 14.95 14.1C14.95 14.7763 15.2187 15.4249 15.6969 15.9031C16.1751 16.3813 16.8237 16.65 17.5 16.65V16.65Z" fill="white"/>
</svg>
