<svg width="35" height="35" viewBox="0 0 35 35" fill="none" xmlns="http://www.w3.org/2000/svg">
<circle cx="17.5" cy="17.5" r="17.5" fill="#5A9CF8"/>
<path d="M15.6 9V10.6H20.4V9H22V10.6H25.2C25.4122 10.6 25.6157 10.6843 25.7657 10.8343C25.9157 10.9843 26 11.1878 26 11.4V24.2C26 24.4122 25.9157 24.6157 25.7657 24.7657C25.6157 24.9157 25.4122 25 25.2 25H10.8C10.5878 25 10.3843 24.9157 10.2343 24.7657C10.0843 24.6157 10 24.4122 10 24.2V11.4C10 11.1878 10.0843 10.9843 10.2343 10.8343C10.3843 10.6843 10.5878 10.6 10.8 10.6H14V9H15.6ZM24.4 16.2H11.6V23.4H24.4V16.2ZM20.4288 17.1088L21.56 18.24L17.6 22.2L14.7712 19.3712L15.904 18.24L17.6008 19.9376L20.4296 17.1088H20.4288ZM14 12.2H11.6V14.6H24.4V12.2H22V13H20.4V12.2H15.6V13H14V12.2Z" fill="white"/>
</svg>
