<svg width="35" height="35" viewBox="0 0 35 35" fill="none" xmlns="http://www.w3.org/2000/svg">
<circle cx="17.5" cy="17.5" r="17.5" fill="#5A9CF8"/>
<path d="M17.255 17.9395L20.4373 21.121L19.376 22.1823L18.005 20.8113V25H16.505V20.8098L15.134 22.1823L14.0728 21.121L17.255 17.9395ZM17.255 10C18.5428 10.0001 19.7856 10.4733 20.7472 11.3298C21.7088 12.1863 22.3221 13.3663 22.4705 14.6455C23.4037 14.9 24.2178 15.4743 24.7705 16.2681C25.3232 17.062 25.5794 18.0248 25.4943 18.9883C25.4091 19.9518 24.9881 20.8548 24.3047 21.5394C23.6214 22.2239 22.7192 22.6466 21.7558 22.7335L21.755 21.25C21.7562 20.0704 21.2942 18.9374 20.4683 18.0951C19.6425 17.2528 18.5189 16.7684 17.3394 16.7463C16.16 16.7241 15.019 17.166 14.1622 17.9768C13.3053 18.7876 12.8011 19.9024 12.758 21.0812L12.755 21.25V22.7335C11.7916 22.6467 10.8894 22.2242 10.2059 21.5396C9.52244 20.8551 9.10129 19.9522 9.01605 18.9886C8.93081 18.0251 9.18691 17.0622 9.73957 16.2683C10.2922 15.4744 11.1063 14.9 12.0395 14.6455C12.1878 13.3663 12.8011 12.1862 13.7627 11.3296C14.7244 10.4731 15.9673 9.9999 17.255 10V10Z" fill="white"/>
</svg>
