<svg width="35" height="35" viewBox="0 0 35 35" fill="none" xmlns="http://www.w3.org/2000/svg">
<circle cx="17.5" cy="17.5" r="17.5" fill="#5A9CF8"/>
<path d="M22.8571 14H24.5714C24.7988 14 25.0168 14.0903 25.1775 14.2511C25.3383 14.4118 25.4286 14.6298 25.4286 14.8571V25.1429C25.4286 25.3702 25.3383 25.5882 25.1775 25.7489C25.0168 25.9097 24.7988 26 24.5714 26H10.8571C10.6298 26 10.4118 25.9097 10.2511 25.7489C10.0903 25.5882 10 25.3702 10 25.1429V14.8571C10 14.6298 10.0903 14.4118 10.2511 14.2511C10.4118 14.0903 10.6298 14 10.8571 14H12.5714V13.1429C12.5714 11.7789 13.1133 10.4708 14.0777 9.50631C15.0422 8.54184 16.3503 8 17.7143 8C19.0783 8 20.3864 8.54184 21.3508 9.50631C22.3153 10.4708 22.8571 11.7789 22.8571 13.1429V14ZM21.1429 14V13.1429C21.1429 12.2335 20.7816 11.3615 20.1387 10.7185C19.4957 10.0755 18.6236 9.71429 17.7143 9.71429C16.805 9.71429 15.9329 10.0755 15.2899 10.7185C14.6469 11.3615 14.2857 12.2335 14.2857 13.1429V14H21.1429ZM16.8571 19.1429V20.8571H18.5714V19.1429H16.8571ZM13.4286 19.1429V20.8571H15.1429V19.1429H13.4286ZM20.2857 19.1429V20.8571H22V19.1429H20.2857Z" fill="white"/>
</svg>
