<svg width="35" height="35" viewBox="0 0 35 35" fill="none" xmlns="http://www.w3.org/2000/svg">
<circle cx="17.5" cy="17.5" r="17.5" fill="#5A9CF8"/>
<path d="M24.9992 21.1833V24.13C24.9993 24.341 24.9193 24.5441 24.7755 24.6985C24.6317 24.8528 24.4347 24.9469 24.2242 24.9617C23.8601 24.9867 23.5626 25 23.3326 25C15.9688 25 10 19.0308 10 11.6667C10 11.4367 10.0125 11.1392 10.0383 10.775C10.0531 10.5645 10.1471 10.3675 10.3015 10.2237C10.4558 10.0798 10.659 9.9999 10.87 10H13.8165C13.9198 9.9999 14.0195 10.0382 14.0962 10.1075C14.1729 10.1768 14.2211 10.2722 14.2314 10.375C14.2506 10.5667 14.2681 10.7192 14.2848 10.835C14.4504 11.9908 14.7897 13.1149 15.2914 14.1692C15.3705 14.3358 15.3189 14.535 15.1689 14.6417L13.3706 15.9267C14.4701 18.4887 16.5118 20.5305 19.0737 21.63L20.3569 19.835C20.4094 19.7617 20.4859 19.7091 20.5732 19.6864C20.6604 19.6637 20.7529 19.6723 20.8344 19.7108C21.8885 20.2116 23.0123 20.5501 24.1675 20.715C24.2834 20.7317 24.4359 20.75 24.6259 20.7683C24.7285 20.7789 24.8237 20.8271 24.8928 20.9038C24.9619 20.9805 25.0001 21.0801 25 21.1833H24.9992Z" fill="white"/>
</svg>
