<svg width="35" height="35" viewBox="0 0 35 35" fill="none" xmlns="http://www.w3.org/2000/svg">
<circle cx="17.5" cy="17.5" r="17.5" fill="#5A9CF8"/>
<path d="M16 11V21H14V17C12.9391 17 11.9217 16.5786 11.1716 15.8284C10.4214 15.0783 10 14.0609 10 13C10 11.9391 10.4214 10.9217 11.1716 10.1716C11.9217 9.42143 12.9391 9 14 9H22V11H20V21H18V11H16ZM14 11C13.4696 11 12.9609 11.2107 12.5858 11.5858C12.2107 11.9609 12 12.4696 12 13C12 13.5304 12.2107 14.0391 12.5858 14.4142C12.9609 14.7893 13.4696 15 14 15V11ZM22 23V20.5L26 24L22 27.5V25H10V23H22Z" fill="white"/>
</svg>
