<svg xmlns="http://www.w3.org/2000/svg" width="100" height="100" overflow="visible"><path fill="#fff" d="M19.878 99C9.469 99 1 90.532 1 80.123V2a1 1 0 0 1 1-1h78.122C90.531 1 99 9.469 99 19.878V98a1 1 0 0 1-1 1H19.878z"/><path d="M80.122 2C89.98 2 98 10.02 98 19.878V98H19.878C10.02 98 2 89.981 2 80.123V2h78.122m0-2H2a2 2 0 0 0-2 2v78.123C0 91.083 8.917 100 19.878 100H98a2 2 0 0 0 2-2V19.878C100 8.917 91.083 0 80.122 0h0zm5.326 17.555H14.635a2.961 2.961 0 1 1 0-5.921h70.813a2.961 2.961 0 1 1 0 5.921zm0 70.812H14.635a2.961 2.961 0 1 1 0-5.921h70.813a2.961 2.961 0 1 1 0 5.921z" fill="#0074a2"/><path fill="#39f" d="M73.604 76.524H26.478a2.96 2.96 0 0 1-2.961-2.961V26.438a2.96 2.96 0 0 1 2.961-2.961h47.126a2.96 2.96 0 0 1 2.961 2.961v47.126c-.001 1.634-1.326 2.96-2.961 2.96z"/><path fill="#add6ff" d="M55.313 42.02c1.806-3.091.733-7.041-2.396-8.825s-7.131-.727-8.937 2.364l-.225.423-6.105 10.445c-.136.208-.261.42-.375.642l-6.341 10.94 11.331 6.352 6.309-10.848a6.75 6.75 0 0 0 .374-.642l6.106-10.447.259-.404"/><path fill="#fff" d="M42.319 64.327c-1.797 3.141-5.848 4.297-8.957 2.485s-4.217-5.747-2.418-8.888 5.811-4.3 8.921-2.488 4.249 5.751 2.454 8.891"/><path fill="#d6ebff" d="M66.769 44.089a6.48 6.48 0 0 0-8.837 2.361l-6.468 11.175c-1.782 3.083-.73 7.023 2.35 8.806.007.003.012.007.018.011a6.48 6.48 0 0 0 8.839-2.362l6.468-11.175a6.45 6.45 0 0 0-2.355-8.807"/></svg>