<svg xmlns="http://www.w3.org/2000/svg" width="100" height="100" overflow="visible"><path fill="#fff" d="M19.878 99C9.469 99 1 90.531 1 80.121V2a1 1 0 0 1 1-1h78.122C90.531 1 99 9.468 99 19.877V98a1 1 0 0 1-1 1H19.878z"/><path d="M80.122 2C89.98 2 98 10.02 98 19.877V98H19.878C10.02 98 2 89.979 2 80.121V2h78.122m0-2H2a2 2 0 0 0-2 2v78.121C0 91.082 8.917 100 19.878 100H98a2 2 0 0 0 2-2V19.877C100 8.917 91.083 0 80.122 0h0zm5.324 17.554H14.633a2.961 2.961 0 1 1 0-5.921h70.813a2.961 2.961 0 1 1 0 5.921zm0 70.813H14.633a2.962 2.962 0 0 1 0-5.923h70.813a2.96 2.96 0 0 1 2.961 2.962c0 1.634-1.326 2.961-2.961 2.961z" fill="#0074a2"/><path fill="#ffbf00" d="M85.444 76.522H14.633a2.96 2.96 0 0 1-2.96-2.961V26.436a2.96 2.96 0 0 1 2.96-2.96h70.812a2.96 2.96 0 0 1 2.961 2.96v47.125c-.001 1.636-1.327 2.961-2.962 2.961z"/><path fill="#ffe599" d="M54.384 37.389c1.49-2.549.606-5.804-1.973-7.276s-5.878-.599-7.367 1.949l-.184.35-5.034 8.611c-.113.17-.213.345-.309.526l-5.228 9.019 9.339 5.236 5.202-8.942c.112-.17.218-.348.31-.53l5.031-8.609.213-.334"/><path fill="#fff" d="M43.673 55.777c-1.48 2.59-4.819 3.54-7.384 2.047s-3.475-4.735-1.994-7.325 4.792-3.545 7.356-2.051 3.501 4.739 2.021 7.327"/><path fill="#fff2cc" d="M63.829 39.093a5.34 5.34 0 0 0-7.285 1.947l-5.333 9.212c-1.469 2.542-.601 5.79 1.94 7.259 2.562 1.477 5.822.607 7.3-1.939l5.329-9.212c1.469-2.539.602-5.791-1.94-7.259"/><path fill="#fff" d="M79.523 70.602h-58.97a2.96 2.96 0 1 1 0-5.922h58.97a2.96 2.96 0 1 1 0 5.922z"/></svg>