<svg xmlns="http://www.w3.org/2000/svg" xmlns:xlink="http://www.w3.org/1999/xlink" width="100" height="100" overflow="visible"><path fill="#fff" d="M19.878 99C9.469 99 1 90.531 1 80.122V2a1 1 0 0 1 1-1h78.122C90.531 1 99 9.468 99 19.877V98a1 1 0 0 1-1 1H19.878z"/><g fill="#0074a2"><path d="M80.122 2C89.98 2 98 10.02 98 19.877V98H19.878C10.02 98 2 89.98 2 80.122V2h78.122m0-2H2a2 2 0 0 0-2 2v78.122C0 91.083 8.917 100 19.878 100H98a2 2 0 0 0 2-2V19.877C100 8.917 91.083 0 80.122 0h0z"/><use xlink:href="#B"/><use xlink:href="#B" y="11.843"/></g><path fill="#52cc52" d="M85.408 64.809H14.596c-1.57 0-2.845-1.273-2.845-2.844V38.278c0-1.571 1.274-2.845 2.845-2.845h70.812c1.57 0 2.844 1.274 2.844 2.845v23.687c0 1.57-1.273 2.844-2.844 2.844z"/><path d="M79.484 47.161h-35.28a2.961 2.961 0 1 1 0-5.921h35.28a2.961 2.961 0 1 1 0 5.921zm0 11.843h-35.28a2.961 2.961 0 1 1 0-5.922h35.28a2.961 2.961 0 1 1 0 5.922z" fill="#fff"/><g fill="#0074a2"><path d="M79.484 76.769H44.206a2.96 2.96 0 1 1 0-5.922h35.278a2.96 2.96 0 1 1 0 5.922z"/><use xlink:href="#B" y="71.057"/><path d="M32.858 20.581a5.99 5.99 0 0 1-5.99 5.987 5.99 5.99 0 0 1-5.987-5.987 5.99 5.99 0 0 1 5.987-5.988 5.99 5.99 0 0 1 5.99 5.988zm0 59.213a5.99 5.99 0 0 1-5.99 5.989 5.99 5.99 0 0 1-5.987-5.989 5.99 5.99 0 0 1 5.987-5.986 5.99 5.99 0 0 1 5.99 5.986z"/></g><path fill="#baebba" d="M28.688 46.717a2.74 2.74 0 0 0-1.023-3.767 2.81 2.81 0 0 0-3.812 1.01l-.096.18-2.604 4.457c-.058.088-.112.179-.16.273l-2.705 4.669 4.833 2.709 2.691-4.629c.061-.088.113-.18.161-.274l2.604-4.456.111-.172"/><path fill="#fff" d="M23.145 56.233c-.767 1.341-2.496 1.833-3.823 1.061s-1.798-2.451-1.032-3.792 2.481-1.836 3.81-1.062 1.81 2.454 1.045 3.793"/><path fill="#dcf5dc" d="M33.575 47.598c-1.317-.76-3.005-.309-3.771 1.008l-2.759 4.768a2.75 2.75 0 0 0 1.003 3.758c1.327.766 3.014.315 3.779-1.005l2.758-4.768a2.75 2.75 0 0 0-1.004-3.757"/><defs ><path id="B" d="M79.484 17.553H44.206a2.96 2.96 0 1 1 0-5.921h35.278a2.96 2.96 0 1 1 0 5.921z"/></defs></svg>