<svg xmlns="http://www.w3.org/2000/svg" width="13.164" height="13.164" viewBox="0 0 13.164 13.164"><defs><style>.a{fill:#5e5e5e;}</style></defs><path class="a" d="M6.582,0a6.582,6.582,0,1,0,6.582,6.582A6.59,6.59,0,0,0,6.582,0Zm0,11.967a5.385,5.385,0,1,1,5.385-5.385A5.391,5.391,0,0,1,6.582,11.967Z"/><path class="a" d="M145.8,70a.8.8,0,1,0,.8.8A.8.8,0,0,0,145.8,70Z" transform="translate(-139.218 -67.208)"/><path class="a" d="M150.6,140a.6.6,0,0,0-.6.6v3.59a.6.6,0,1,0,1.2,0V140.6A.6.6,0,0,0,150.6,140Z" transform="translate(-144.016 -134.415)"/></svg>