<svg xmlns="http://www.w3.org/2000/svg" width="25" height="25" viewBox="0 0 25 25"><defs><style>.a{fill:#25283d;}</style></defs><circle class="a" cx="1.221" cy="1.221" r="1.221" transform="translate(11.279 17.261)"/><path class="a" d="M12.5,0A12.5,12.5,0,1,0,25,12.5,12.493,12.493,0,0,0,12.5,0Zm0,23.047A10.547,10.547,0,1,1,23.047,12.5,10.541,10.541,0,0,1,12.5,23.047Z"/><path class="a" d="M179.906,128.5A3.911,3.911,0,0,0,176,132.406a.977.977,0,0,0,1.953,0,1.953,1.953,0,1,1,1.953,1.953.977.977,0,0,0-.977.977v2.441a.977.977,0,0,0,1.953,0v-1.588a3.907,3.907,0,0,0-.977-7.689Z" transform="translate(-167.406 -122.226)"/></svg>