<svg xmlns="http://www.w3.org/2000/svg" width="31.266" height="31.266" viewBox="0 0 31.266 31.266"><defs><style>.a{fill:#25283d;stroke:#25283d;stroke-width:0.5px;}</style></defs><g transform="translate(0.25 0.25)"><g transform="translate(6.41 6.41)"><path class="a" d="M15.9,29.357H12.051a2.081,2.081,0,0,1-1.923-2.307V24.357a4.452,4.452,0,0,0-1.666-3.333A8.861,8.861,0,0,1,5,13.845,9.123,9.123,0,0,1,13.845,5a9.009,9.009,0,0,1,6.41,2.564,9.126,9.126,0,0,1,2.692,6.41A8.621,8.621,0,0,1,19.614,20.9a4.681,4.681,0,0,0-1.795,3.589v2.948A1.972,1.972,0,0,1,15.9,29.357ZM13.973,6.282a7.862,7.862,0,0,0-7.692,7.563A7.535,7.535,0,0,0,9.23,20a5.586,5.586,0,0,1,2.179,4.359v2.692c0,.256,0,1.026.641,1.026H15.9a.606.606,0,0,0,.641-.641V24.485a6.23,6.23,0,0,1,2.307-4.615,7.475,7.475,0,0,0,2.82-5.9,7.663,7.663,0,0,0-2.307-5.512,7.556,7.556,0,0,0-5.384-2.179Z" transform="translate(-5 -5)"/></g><g transform="translate(11.537 25.638)"><path class="a" d="M16.051,21.282H9.641a.641.641,0,1,1,0-1.282h6.41a.641.641,0,1,1,0,1.282Z" transform="translate(-9 -20)"/></g><g transform="translate(14.742)"><path class="a" d="M12.141,3.846A.606.606,0,0,1,11.5,3.2V.641a.641.641,0,0,1,1.282,0V3.2A.606.606,0,0,1,12.141,3.846Z" transform="translate(-11.5)"/></g><g transform="translate(23.267 4.423)"><path class="a" d="M18.855,6.463a.771.771,0,0,1-.513-.128.62.62,0,0,1,0-.9l1.795-1.795a.635.635,0,0,1,.9.9L19.24,6.334A1.291,1.291,0,0,1,18.855,6.463Z" transform="translate(-18.15 -3.45)"/></g><g transform="translate(26.92 14.742)"><path class="a" d="M24.2,12.782H21.641a.641.641,0,0,1,0-1.282H24.2a.641.641,0,1,1,0,1.282Z" transform="translate(-21 -11.5)"/></g><g transform="translate(23.267 23.395)"><path class="a" d="M20.65,21.263a.771.771,0,0,1-.513-.128L18.342,19.34a.635.635,0,0,1,.9-.9l1.795,1.795a.62.62,0,0,1,0,.9c0,.128-.128.128-.385.128Z" transform="translate(-18.15 -18.25)"/></g><g transform="translate(4.294 23.395)"><path class="a" d="M4.055,21.263a.771.771,0,0,1-.513-.128.62.62,0,0,1,0-.9l1.795-1.795a.635.635,0,1,1,.9.9L4.44,21.134a.471.471,0,0,1-.385.128Z" transform="translate(-3.35 -18.25)"/></g><g transform="translate(0 14.742)"><path class="a" d="M3.2,12.782H.641a.641.641,0,0,1,0-1.282H3.2a.641.641,0,0,1,0,1.282Z" transform="translate(0 -11.5)"/></g><g transform="translate(4.294 4.294)"><path class="a" d="M5.85,6.491a.771.771,0,0,1-.513-.128L3.542,4.44a.635.635,0,0,1,.9-.9L6.234,5.337a.62.62,0,0,1,0,.9c-.128.128-.256.256-.385.256Z" transform="translate(-3.35 -3.35)"/></g><g transform="translate(14.742 9.614)"><path class="a" d="M17.269,13.91a.606.606,0,0,1-.641-.641,4.542,4.542,0,0,0-4.487-4.487.641.641,0,0,1,0-1.282,5.745,5.745,0,0,1,5.769,5.769A.606.606,0,0,1,17.269,13.91Z" transform="translate(-11.5 -7.5)"/></g></g></svg>