<svg xmlns="http://www.w3.org/2000/svg" width="20" height="20" viewBox="0 0 28.857 28.857"><defs><style>.a,.b{fill:none;}.b{opacity:0.87;}.c{fill:#0872fc;}</style></defs><path class="a" d="M0,0H28.857V28.857H0Z"/><path class="b" d="M0,0H28.857V28.857H0Z"/><path class="c" d="M20.833,9.417h-1.2v-2.4a6.012,6.012,0,0,0-12.024,0v2.4H6.4a2.412,2.412,0,0,0-2.4,2.4V23.845a2.412,2.412,0,0,0,2.4,2.4H20.833a2.412,2.412,0,0,0,2.4-2.4V11.821A2.412,2.412,0,0,0,20.833,9.417Zm-10.821-2.4a3.607,3.607,0,1,1,7.214,0v2.4H10.012ZM20.833,23.845H6.4V11.821H20.833Zm-7.214-3.607a2.4,2.4,0,1,0-2.4-2.4A2.412,2.412,0,0,0,13.619,20.238Z" transform="translate(0.81 0.202)"/></svg>