<svg xmlns="http://www.w3.org/2000/svg" width="21.717" height="18.067" viewBox="0 0 21.717 18.067"><defs><style>.a{fill:#fff;}</style></defs><g transform="translate(1.507 -40.092)"><g transform="translate(-1.507 40.092)"><path class="a" d="M21.37,49.536l-7.843-7.843a1.192,1.192,0,0,0-1.681,0l-.712.712a1.18,1.18,0,0,0-.347.84,1.2,1.2,0,0,0,.347.85l4.575,4.585H1.173A1.16,1.16,0,0,0,0,49.85v1.007a1.2,1.2,0,0,0,1.173,1.22H15.761l-4.627,4.611a1.177,1.177,0,0,0,0,1.669l.712.71a1.192,1.192,0,0,0,1.681,0l7.843-7.843a1.2,1.2,0,0,0,0-1.687Z" transform="translate(0 -41.346)"/></g></g></svg>