<svg xmlns="http://www.w3.org/2000/svg" xmlns:xlink="http://www.w3.org/1999/xlink" width="248.265" height="151.87" viewBox="0 0 248.265 151.87"><defs><style>.a,.j{fill:#0872fc;}.a,.b,.f,.g{opacity:0.1;}.b,.e{fill:#03d7fd;}.c{fill:url(#a);}.d{fill:#fbbebe;}.h{fill:#3f3d56;}.i{fill:#ff007c;}.k{fill:#434175;}</style><linearGradient id="a" x1="27.757" y1="1" x2="27.757" y2="0.003" gradientUnits="objectBoundingBox"><stop offset="0" stop-color="gray" stop-opacity="0.251"/><stop offset="0.54" stop-color="gray" stop-opacity="0.122"/><stop offset="1" stop-color="gray" stop-opacity="0.102"/></linearGradient></defs><path class="a" d="M642.879,316.847a6.872,6.872,0,0,0-3.988.435,5.876,5.876,0,0,1-4.811-.021,6.72,6.72,0,0,0-5.631.109,3.481,3.481,0,0,1-1.622.407c-2.283,0-4.183-2.3-4.578-5.334a4.42,4.42,0,0,0,1.141-1.232,6.412,6.412,0,0,1,11.448-.038,4.406,4.406,0,0,0,3.8,2.083h.06C640.527,313.265,642.1,314.723,642.879,316.847Z" transform="translate(-492.827 -265.582)"/><path class="b" d="M649.869,280.2l-3.691,2.342,2.24-4.076a3.662,3.662,0,0,0-2.233-.8h-.059a4.317,4.317,0,0,1-.766-.055l-1.246.792.537-.975a4.442,4.442,0,0,1-2.188-1.665l-2.24,1.427,1.427-2.571a6.556,6.556,0,0,0-5.015-2.537,6.877,6.877,0,0,0-5.74,3.543,4.28,4.28,0,0,1-3.8,2.045h-.126c-2.571,0-4.654,2.915-4.654,6.509s2.083,6.509,4.654,6.509a3.5,3.5,0,0,0,1.622-.4,6.711,6.711,0,0,1,5.631-.112,5.876,5.876,0,0,0,4.789.012,6.727,6.727,0,0,1,5.584.107,3.484,3.484,0,0,0,1.6.4c2.571,0,4.654-2.913,4.654-6.509a8.266,8.266,0,0,0-.977-3.983Z" transform="translate(-492.872 -238.462)"/><path class="c" d="M568.4,302.824c.145-.021.29-.05.433-.086a1.362,1.362,0,0,1-.121.414,1.781,1.781,0,0,1-.675.594.207.207,0,0,0-.262-.017c-.307.181-.552.447-.877.6-.114.057-.238.1-.345.164a1.887,1.887,0,0,0-.642.668.476.476,0,0,0-.076.476.385.385,0,0,0,.131.117.759.759,0,0,0,.452.136,1.693,1.693,0,0,0,.285-.059c.1-.017.257,0,.385-.024a2.167,2.167,0,0,0,.542-.14l.635-.221a3.492,3.492,0,0,0,.526-.216c.1-.052.195-.117.3-.166a2.352,2.352,0,0,1,.357-.126l.361-.107a.388.388,0,0,1,.164-.021c.05,0,.093.04.143.055a.426.426,0,0,0,.238-.021l.421-.121a.792.792,0,0,0,.25-.1.766.766,0,0,0,.224-.644,4.888,4.888,0,0,0-.124-1.068.338.338,0,0,0-.135.1c-.043-.062-.093-.119-.138-.174a2.065,2.065,0,0,1-.419-.77,1.378,1.378,0,0,0,.376-.419,9.2,9.2,0,0,0-.9-2.449c-.147-.238-.316-.476-.476-.713-.438-.694-.528-1.572-1.027-2.221a.385.385,0,0,1,0-.454c.057-.074.15-.147.131-.238s-.081-.131-.055-.193.043-.048.069-.071c.083-.078.074-.214.081-.331a1.632,1.632,0,0,1,.364-.792.459.459,0,0,1,.133-.145c.045-.029.1-.04.143-.069.162-.1.15-.335.226-.509.1-.238.352-.347.518-.533.209-.238.262-.568.476-.775a.593.593,0,0,1,.071-.059,3.784,3.784,0,0,0-.128,1.084c-.021,1.253.288,2.552.143,3.8a2.623,2.623,0,0,0,1.344,2.466,6.42,6.42,0,0,0,1.046.445c.537.193,1.07.39,1.6.609q.556.238,1.1.5a14.107,14.107,0,0,1,1.3.725,5,5,0,0,1,1.4,1.16,1.119,1.119,0,0,0,.618-.238c.14.112.312.2.445.319a1.356,1.356,0,0,1,.35.692h-.055l.019.371a.157.157,0,0,1-.014.093.183.183,0,0,1-.05.045l-.285.193c-.207.14-.435.316-.447.568a.283.283,0,0,0,.062.2.44.44,0,0,0,.254.114,4.44,4.44,0,0,0,1.508.138.989.989,0,0,0,.642-.295,1.265,1.265,0,0,0,.238-.616c.062-.373.114-.749.155-1.127a2.473,2.473,0,0,1,.152-.747.088.088,0,0,1,.04-.05h.069a.1.1,0,0,0,.045-.071,4.565,4.565,0,0,0,.133-1.12.784.784,0,0,0-.045-.288.575.575,0,0,0-.4-.307,3.062,3.062,0,0,0-.511-.059,2.322,2.322,0,0,1-.426-.081.409.409,0,0,0-.176-.021.126.126,0,0,0-.109.124.143.143,0,0,0,.024.059l-.145-.029c-.117-.021-.283-.074-.454-.114v-.09a.178.178,0,0,0-.1-.159l-2.447-1.308-.459-.238c-1-.537-2.04-1.032-3.044-1.569-.069.021-.124-.057-.143-.124s-.033-.152-.1-.181-.074-.017-.1-.043a.1.1,0,0,1-.017-.081c.033-.49.383-.939.312-1.427a1.723,1.723,0,0,1-.088-.614,2.517,2.517,0,0,1,.186-.388c.119-.3,0-.656.131-.951a2.234,2.234,0,0,0,.178-.6,4.136,4.136,0,0,1,.373-1.189,2.117,2.117,0,0,1,.345-.526c.074-.081.157-.152.226-.238a1.929,1.929,0,0,0,.352-.92,4.421,4.421,0,0,0,.05-1.8,2.551,2.551,0,0,1-.114-.606c0-.238.1-.528-.021-.725a.635.635,0,0,0,.238-.4.457.457,0,0,1,.033-.162.419.419,0,0,1,.155-.14.644.644,0,0,0,.238-.637c.126.057.259-.071.319-.2s.107-.283.238-.335a1.824,1.824,0,0,1,.278-.04c.147-.038.238-.181.342-.292a2.615,2.615,0,0,1,.787-.487,8.736,8.736,0,0,0,2.14-1.729,7.267,7.267,0,0,0,.923-1.044,3.372,3.372,0,0,0,.2-.335h.017v.019a.461.461,0,0,0,.033.121c.029.1.064.193.1.288a2.1,2.1,0,0,0,.411.785,1.047,1.047,0,0,0,.093.083.957.957,0,0,0,.119.081,1.465,1.465,0,0,0,.545.164c.071,0,.145.014.219.017h.219l1.5.04a4.324,4.324,0,0,1-.521-2.63c.086-2.335.54-4.692.119-6.989a1.82,1.82,0,0,0-.288-.78,1.612,1.612,0,0,0-.951-.516,5.736,5.736,0,0,1-1.061-.271,4.39,4.39,0,0,0-.835-.4,1.845,1.845,0,0,0-.666,0c-.271.04-.54.088-.809.143l-.064.014h-.321l-.026.012-.024.012-.024.012-.024.012-.024.014-.021.014-.021.014-.021.017-.019.014-.021.019-.017.014-.021.021-.014.017a.112.112,0,0,0-.021.026v.014l-.026.038h0a.681.681,0,0,0-.052.112.516.516,0,0,0-.017.057,1.088,1.088,0,0,0-.021.121v.185a.753.753,0,0,0,.021.207,2.259,2.259,0,0,0-.107,3.822,1.034,1.034,0,0,1,0,.112v.024a3.04,3.04,0,0,1-.041.39,5.318,5.318,0,0,0-1.115-.1c-.224,0-.447.019-.673.038-.238-.285-.457-.6-.671-.908l-.495-.725a7.313,7.313,0,0,1-.476-.744c-.121-.238-.216-.476-.35-.713-.278-.476-.735-.87-.79-1.415l-.131.029c-.071-.119-.162-.238-.2-.309a6.034,6.034,0,0,1-.411-1.208,1.868,1.868,0,0,0-.2-.625,1.4,1.4,0,0,0-.288-.3,1.9,1.9,0,0,0-.618-.39.794.794,0,0,0-.63.036c-.033-.012-.064-.026-.1-.036a.766.766,0,0,0-.7.081.951.951,0,0,0-.309.649,1.61,1.61,0,0,0,.167.984,3.918,3.918,0,0,0,.792.82,3.2,3.2,0,0,1,.5.618,6.753,6.753,0,0,1-.038,1.5c-.036.214-.09.423-.109.637-.069.778.335,1.555.193,2.321a.561.561,0,0,0,.261.6,2.981,2.981,0,0,0,.678.185c.447.114.837.4,1.286.509.209.05.426.059.633.114h.033a1.505,1.505,0,0,0-.333.633c-.09.39,0,.806-.1,1.189a2.708,2.708,0,0,1-.454.873L573,282.461a10.15,10.15,0,0,1-.8,1.053c-.5.545-1.363.977-1.615,1.634l-.021-.048c-.359.264-.492.756-.78,1.1-.138.167-.311.3-.464.454a5.1,5.1,0,0,0-.5.749,11.421,11.421,0,0,0-1.161,1.848c-.159.345-.283.713-.409,1.061a40.155,40.155,0,0,0-1.65,4.195,7.866,7.866,0,0,0-.333,1.039,2.021,2.021,0,0,0,.326,1.1c.281.523.587,1.032.837,1.569.147.314.273.637.435.951s.395.642.578.973A11.2,11.2,0,0,1,568.4,302.824Zm6.131-26.56-.043-.021a1.521,1.521,0,0,1-.452-.3,3.5,3.5,0,0,1-.694-1.643c-.014-.067-.029-.136-.04-.2A9.719,9.719,0,0,1,574.532,276.264Z" transform="translate(-449.389 -236.199)"/><path class="d" d="M589.722,271.382a1.843,1.843,0,0,0-.2-.621,1.408,1.408,0,0,0-.29-.3,1.9,1.9,0,0,0-.618-.385.771.771,0,0,0-.713.081.937.937,0,0,0-.309.644,1.592,1.592,0,0,0,.167.977,4.079,4.079,0,0,0,.792.816,3.094,3.094,0,0,1,.518.644,1.8,1.8,0,0,0,.238.345.445.445,0,0,0,.373.147.644.644,0,0,0,.3-.178c.112-.1.416-.276.426-.433s-.238-.414-.288-.533A6.013,6.013,0,0,1,589.722,271.382Z" transform="translate(-466.399 -236.884)"/><path class="e" d="M600.4,287.294a5.43,5.43,0,0,0-1.5-.185,7.832,7.832,0,0,1-2.518-.043,4.365,4.365,0,0,1-.6-.262,1.55,1.55,0,0,1-.449-.295,3.444,3.444,0,0,1-.7-1.631,10.651,10.651,0,0,1-.19-1.736,1.365,1.365,0,0,1-.659.174.476.476,0,0,1-.459-.426,7.08,7.08,0,0,1-.031,1.617c-.036.212-.09.419-.109.633-.069.77.338,1.543.193,2.3a.556.556,0,0,0,.262.595,2.965,2.965,0,0,0,.68.185c.447.114.839.4,1.289.5.209.05.426.059.633.114.3.078.566.238.868.3.226.04.459.012.69.031s.395.069.592.076a1.722,1.722,0,0,0,1.277-.633,5.491,5.491,0,0,0,.735-1.325Z" transform="translate(-470.667 -246.694)"/><path class="f" d="M600.4,287.294a5.43,5.43,0,0,0-1.5-.185,7.832,7.832,0,0,1-2.518-.043,4.365,4.365,0,0,1-.6-.262,1.55,1.55,0,0,1-.449-.295,3.444,3.444,0,0,1-.7-1.631,10.651,10.651,0,0,1-.19-1.736,1.365,1.365,0,0,1-.659.174.476.476,0,0,1-.459-.426,7.08,7.08,0,0,1-.031,1.617c-.036.212-.09.419-.109.633-.069.77.338,1.543.193,2.3a.556.556,0,0,0,.262.595,2.965,2.965,0,0,0,.68.185c.447.114.839.4,1.289.5.209.05.426.059.633.114.3.078.566.238.868.3.226.04.459.012.69.031s.395.069.592.076a1.722,1.722,0,0,0,1.277-.633,5.491,5.491,0,0,0,.735-1.325Z" transform="translate(-470.667 -246.694)"/><g class="g" transform="translate(72.29 32.622)"><path class="h" d="M454.239,652.08V653.3a4.59,4.59,0,0,1-9.179,0V652.08a4.59,4.59,0,1,1,9.179,0Z" transform="translate(-430.062 -557.213)"/><path class="h" d="M445.06,565.8V564.58a4.59,4.59,0,1,1,9.179,0V565.8a4.537,4.537,0,0,1-.2,1.327,4.587,4.587,0,0,1-8.982-1.327Z" transform="translate(-430.062 -490.521)"/><path class="h" d="M454.239,608.29v1.225a4.59,4.59,0,0,1-9.179,0V608.29a4.59,4.59,0,1,1,9.179,0Z" transform="translate(-430.062 -523.837)"/><path class="h" d="M449.65,691.24a4.6,4.6,0,0,1,4.59,4.592v1.222a4.59,4.59,0,0,1-9.179,0v-1.222A4.6,4.6,0,0,1,449.65,691.24Z" transform="translate(-430.062 -590.56)"/><path class="f" d="M445.06,579.78v1.106a4.587,4.587,0,0,0,8.982,1.325Z" transform="translate(-430.062 -505.605)"/><path class="f" d="M445.06,623.53v1.108a4.59,4.59,0,0,0,8.982,1.327Z" transform="translate(-430.062 -538.951)"/><path class="f" d="M445.06,667.29V668.4a4.59,4.59,0,0,0,8.982,1.327Z" transform="translate(-430.062 -572.305)"/><path class="f" d="M445.06,711v1.106a4.587,4.587,0,0,0,8.982,1.327Z" transform="translate(-430.062 -605.621)"/><path class="h" d="M402.6,618.582l.366.281a1.734,1.734,0,0,0,2.468-2.378,1.693,1.693,0,0,0-.35-.366l-.366-.276a1.734,1.734,0,0,0-2.119,2.747Z" transform="translate(-397.182 -532.816)"/><path class="h" d="M417.8,625.9l.366.283a1.734,1.734,0,0,1-2.119,2.747l-.366-.283A1.734,1.734,0,0,1,417.8,625.9Z" transform="translate(-407.159 -540.484)"/><path class="h" d="M430.885,636l.366.283a1.734,1.734,0,0,1-2.119,2.747l-.366-.283A1.734,1.734,0,0,1,430.885,636Z" transform="translate(-417.129 -548.182)"/><path class="h" d="M443.96,646.1l.366.283a1.734,1.734,0,1,1-2.119,2.747l-.371-.283a1.734,1.734,0,0,1,2.119-2.747Z" transform="translate(-427.091 -555.88)"/><path class="f" d="M404.9,621.824l.333.254A1.734,1.734,0,0,0,407.7,619.7Z" transform="translate(-399.453 -536.032)"/><path class="f" d="M418,631.924l.333.254A1.734,1.734,0,0,0,420.8,629.8Z" transform="translate(-409.437 -543.73)"/><path class="f" d="M431.08,642.024l.331.255a1.734,1.734,0,0,0,2.471-2.378Z" transform="translate(-419.407 -551.428)"/><path class="e" d="M394.487,296.627a5.2,5.2,0,1,0,0,10.4,5.2,5.2,0,1,0,0,10.4,5.2,5.2,0,1,0,0,10.406,5.2,5.2,0,1,0,0,10.4H419.58a5.2,5.2,0,1,0,0-10.405,5.2,5.2,0,1,0,0-10.406,5.2,5.2,0,1,0,0-10.4,5.2,5.2,0,1,0,0-10.4,5.2,5.2,0,1,0,0-10.406,5.2,5.2,0,1,0,0-10.4h-1.146c-.659-4.475-5.707-7.957-11.859-7.957s-11.2,3.481-11.859,7.957h-.238a5.2,5.2,0,1,0,0,10.4,5.2,5.2,0,1,0,0,10.406Z" transform="translate(-387.446 -267.86)"/><path class="f" d="M389.72,306.521a5.217,5.217,0,0,0,5.2,5.2h25.093l-24.941-10.4h-.152A5.217,5.217,0,0,0,389.72,306.521Z" transform="translate(-387.882 -293.363)"/><path class="f" d="M441.286,350.323a5.232,5.232,0,0,1-5.2,5.2H411l24.943-10.406h.152a5.232,5.232,0,0,1,5.191,5.2Z" transform="translate(-404.102 -326.747)"/><path class="f" d="M441.286,437.783a5.217,5.217,0,0,1-5.2,5.2H411l24.943-10.4h.152A5.217,5.217,0,0,1,441.286,437.783Z" transform="translate(-404.102 -393.409)"/><path class="f" d="M441.286,525.323a5.217,5.217,0,0,1-5.2,5.2H411l24.943-10.4h.152A5.217,5.217,0,0,1,441.286,525.323Z" transform="translate(-404.102 -460.132)"/><path class="f" d="M389.72,394.031a5.217,5.217,0,0,0,5.2,5.2h25.093l-24.941-10.4h-.152A5.217,5.217,0,0,0,389.72,394.031Z" transform="translate(-387.882 -360.063)"/><path class="f" d="M389.72,481.533a5.232,5.232,0,0,0,5.2,5.2h25.093L395.075,476.33h-.152A5.232,5.232,0,0,0,389.72,481.533Z" transform="translate(-387.882 -426.756)"/><path class="e" d="M386.705,611.7l8.264-4.449a4.342,4.342,0,0,1-1.053-6.057,1.945,1.945,0,0,0-2.635-.792l-.378.2c-1.011-1.358-3.294-1.608-5.317-.518s-3.07,3.132-2.495,4.723l-.074.04a4.353,4.353,0,0,1,1.052,6.063,1.946,1.946,0,0,0,2.636.791Z" transform="translate(-381.992 -520.564)"/><path class="f" d="M382.264,621.653a1.952,1.952,0,0,0,2.635.792L393.155,618,383.1,619l-.05.026A1.952,1.952,0,0,0,382.264,621.653Z" transform="translate(-382.024 -534.736)"/><path class="f" d="M410.653,618.145a1.95,1.95,0,0,1-.79,2.635l-8.264,4.449,6.368-7.847.05-.029A1.952,1.952,0,0,1,410.653,618.145Z" transform="translate(-396.937 -534.068)"/></g><g class="g" transform="translate(44.938 111.481)"><path class="h" d="M287.7,709.428v.35a1.317,1.317,0,0,1-2.632,0v-.35a1.317,1.317,0,1,1,2.632,0Z" transform="translate(-280.763 -682.235)"/><path class="h" d="M285.07,685.049V684.7a1.317,1.317,0,0,1,2.632,0v.352a1.273,1.273,0,0,1-.057.38,1.315,1.315,0,0,1-2.575-.38Z" transform="translate(-280.767 -663.471)"/><path class="h" d="M287.7,696.888v.35a1.317,1.317,0,0,1-2.632,0v-.35a1.317,1.317,0,1,1,2.632,0Z" transform="translate(-280.763 -672.677)"/><path class="h" d="M286.384,720.83a1.32,1.32,0,0,1,1.315,1.317v.35a1.317,1.317,0,1,1-2.632,0v-.35A1.32,1.32,0,0,1,286.384,720.83Z" transform="translate(-280.763 -691.973)"/><path class="f" d="M285.07,688.89v.316a1.315,1.315,0,0,0,2.575.381Z" transform="translate(-280.767 -667.628)"/><path class="f" d="M285.07,701.43v.316a1.315,1.315,0,0,0,2.575.38Z" transform="translate(-280.767 -677.186)"/><path class="f" d="M285.07,714v.316a1.315,1.315,0,0,0,2.575.38Z" transform="translate(-280.767 -686.767)"/><path class="f" d="M285.07,726.51v.316a1.315,1.315,0,0,0,2.575.38Z" transform="translate(-280.767 -696.302)"/><path class="h" d="M272.916,699.994l.1.083a.5.5,0,0,0,.713-.683.477.477,0,0,0-.1-.107l-.1-.081a.5.5,0,1,0-.609.787Z" transform="translate(-271.359 -675.412)"/><path class="h" d="M277.26,702.107l.1.081a.5.5,0,1,1-.606.787l-.107-.081a.5.5,0,0,1,.609-.787Z" transform="translate(-274.202 -677.622)"/><path class="h" d="M281.051,705.026l.1.081a.5.5,0,1,1-.606.787l-.1-.081a.5.5,0,0,1,.606-.787Z" transform="translate(-277.102 -679.855)"/><path class="h" d="M284.8,707.926l.1.081a.5.5,0,1,1-.606.787l-.1-.081a.5.5,0,0,1,.606-.787Z" transform="translate(-279.96 -682.065)"/><path class="f" d="M273.56,700.939l.1.074a.5.5,0,0,0,.713-.682Z" transform="translate(-271.994 -676.348)"/><path class="f" d="M277.32,703.829l.1.074a.5.5,0,0,0,.713-.682Z" transform="translate(-274.86 -678.551)"/><path class="f" d="M281.07,706.721l.1.071a.5.5,0,0,0,.7-.088.5.5,0,0,0,0-.594Z" transform="translate(-277.718 -680.753)"/><path class="e" d="M270.7,607.725a3.391,3.391,0,0,1-1.434,4.474,1.492,1.492,0,0,1-.057,2.983,1.491,1.491,0,1,1,0,2.982,1.491,1.491,0,0,0,1.491,1.491h7.193a3.334,3.334,0,0,1,1.491-4.473,1.492,1.492,0,0,1-.057-2.983,1.492,1.492,0,0,1,.057-2.983,1.491,1.491,0,0,1,0-2.982,1.491,1.491,0,1,1,0-2.982,1.491,1.491,0,0,0-1.491-1.491h-.328c-.19-1.282-1.638-2.28-3.4-2.28s-3.21,1-3.4,2.28H270.7a3.334,3.334,0,0,1-1.491,4.473A1.491,1.491,0,0,0,270.7,607.725Z" transform="translate(-268.678 -599.48)"/><path class="f" d="M269.21,610.561a1.5,1.5,0,0,0,1.491,1.491h7.193l-7.148-2.982H270.7a1.5,1.5,0,0,0-1.491,1.491Z" transform="translate(-268.678 -606.79)"/><path class="f" d="M283.984,623.1a1.5,1.5,0,0,1-1.491,1.491H275.3l7.148-2.982h.045A1.5,1.5,0,0,1,283.984,623.1Z" transform="translate(-273.32 -616.347)"/><path class="f" d="M283.984,648.213a1.5,1.5,0,0,1-1.491,1.491H275.3l7.148-2.984h.045a1.5,1.5,0,0,1,1.491,1.493Z" transform="translate(-273.32 -635.486)"/><path class="f" d="M283.984,673.271a1.5,1.5,0,0,1-1.491,1.491H275.3l7.148-2.982h.045a1.5,1.5,0,0,1,1.491,1.491Z" transform="translate(-273.32 -654.587)"/><path class="f" d="M269.21,635.641a1.5,1.5,0,0,0,1.491,1.491h7.193l-7.148-2.982H270.7a1.5,1.5,0,0,0-1.491,1.491Z" transform="translate(-268.678 -625.905)"/><path class="f" d="M269.21,660.731a1.5,1.5,0,0,0,1.491,1.491h7.193l-7.148-2.982H270.7A1.5,1.5,0,0,0,269.21,660.731Z" transform="translate(-268.678 -645.029)"/><path class="i" d="M269.25,698.031l2.378-1.277a1.241,1.241,0,0,1-.3-1.736.556.556,0,0,0-.756-.226l-.107.057a1.373,1.373,0,0,0-2.238,1.206l-.021.012a1.241,1.241,0,0,1,.3,1.736A.559.559,0,0,0,269.25,698.031Z" transform="translate(-267.893 -671.909)"/><path class="f" d="M267.047,700.917a.559.559,0,0,0,.756.238l2.378-1.275-2.894.266h-.014a.559.559,0,0,0-.226.77Z" transform="translate(-266.974 -676.005)"/><path class="f" d="M275.184,699.889a.561.561,0,0,1-.226.756l-2.378,1.275,1.824-2.25h.014a.561.561,0,0,1,.766.219Z" transform="translate(-271.247 -675.791)"/></g><g class="g" transform="translate(163.649 9.046)"><path class="h" d="M834.26,637.065v1.491a5.6,5.6,0,0,0,11.191,0v-1.491a5.6,5.6,0,0,0-11.191,0Z" transform="translate(-818.07 -521.427)"/><path class="h" d="M845.451,531.886V530.4a5.6,5.6,0,0,0-11.191,0v1.491a5.5,5.5,0,0,0,.238,1.617,5.593,5.593,0,0,0,10.939-1.617Z" transform="translate(-818.07 -440.124)"/><path class="h" d="M834.26,583.725v1.493a5.6,5.6,0,1,0,11.191,0v-1.493a5.6,5.6,0,1,0-11.191,0Z" transform="translate(-818.07 -480.772)"/><path class="h" d="M839.855,684.8a5.612,5.612,0,0,0-5.6,5.6v1.491a5.6,5.6,0,0,0,11.191,0V690.4A5.61,5.61,0,0,0,839.855,684.8Z" transform="translate(-818.07 -562.075)"/><path class="f" d="M846.259,548.93v1.348A5.593,5.593,0,0,1,835.32,551.9Z" transform="translate(-818.878 -458.516)"/><path class="f" d="M846.259,602.27v1.348a5.593,5.593,0,0,1-10.939,1.617Z" transform="translate(-818.878 -499.171)"/><path class="f" d="M846.259,655.6v1.348a5.593,5.593,0,0,1-10.939,1.617Z" transform="translate(-818.878 -539.819)"/><path class="f" d="M846.259,708.93v1.348A5.593,5.593,0,0,1,835.32,711.9Z" transform="translate(-818.878 -580.467)"/><path class="h" d="M918.1,596.2l-.447.345a2.114,2.114,0,0,1-3.011-2.9,2.044,2.044,0,0,1,.428-.445l.447-.345A2.114,2.114,0,0,1,918.1,596.2Z" transform="translate(-879.04 -491.655)"/><path class="h" d="M899.425,605.144l-.445.34a2.114,2.114,0,1,0,2.583,3.346l.445-.342a2.114,2.114,0,0,0-2.583-3.348Z" transform="translate(-866.738 -501.022)"/><path class="h" d="M883.467,617.469l-.447.345a2.114,2.114,0,1,0,2.583,3.346l.447-.342a2.114,2.114,0,1,0-2.583-3.348Z" transform="translate(-854.573 -510.42)"/><path class="h" d="M867.656,629.666l-.445.342a2.114,2.114,0,1,0,2.583,3.348l.445-.345a2.114,2.114,0,1,0-2.583-3.346Z" transform="translate(-842.558 -519.69)"/><path class="f" d="M918.062,600.172l-.4.312a2.114,2.114,0,0,1-3.011-2.9Z" transform="translate(-879.04 -495.596)"/><path class="f" d="M902.187,612.482l-.4.309a2.114,2.114,0,0,1-3-2.9Z" transform="translate(-866.96 -504.979)"/><path class="f" d="M886.164,624.79l-.4.312a2.114,2.114,0,0,1-3.011-2.9Z" transform="translate(-854.73 -514.362)"/><path class="e" d="M803.258,203.784a6.342,6.342,0,0,1,0,12.684,6.342,6.342,0,1,1,0,12.683,6.342,6.342,0,0,1,0,12.681,6.342,6.342,0,1,1,0,12.684H772.669a6.342,6.342,0,0,1,0-12.684,6.342,6.342,0,1,1,0-12.683,6.342,6.342,0,1,1,0-12.681,6.342,6.342,0,0,1,0-12.684,6.342,6.342,0,1,1,0-12.683,6.342,6.342,0,1,1,0-12.681h1.4c.8-5.455,6.968-9.7,14.456-9.7s13.652,4.245,14.456,9.7h.278a6.342,6.342,0,1,1,0,12.683,6.342,6.342,0,0,1,0,12.681Z" transform="translate(-766.176 -168.72)"/><path class="f" d="M830.408,215.852a6.359,6.359,0,0,1-6.34,6.34H793.48l30.4-12.682h.188A6.359,6.359,0,0,1,830.408,215.852Z" transform="translate(-786.987 -199.81)"/><path class="f" d="M767.6,269.182a6.359,6.359,0,0,0,6.342,6.34h30.586l-30.4-12.682h-.185a6.361,6.361,0,0,0-6.342,6.342Z" transform="translate(-767.261 -240.458)"/><path class="f" d="M767.6,375.85a6.361,6.361,0,0,0,6.342,6.342h30.586l-30.4-12.682h-.185a6.359,6.359,0,0,0-6.342,6.34Z" transform="translate(-767.261 -321.762)"/><path class="f" d="M767.6,482.512a6.361,6.361,0,0,0,6.342,6.342h30.586l-30.4-12.684h-.185a6.361,6.361,0,0,0-6.342,6.342Z" transform="translate(-767.261 -403.058)"/><path class="f" d="M830.408,322.512a6.359,6.359,0,0,1-6.34,6.342H793.48l30.4-12.684h.188A6.359,6.359,0,0,1,830.408,322.512Z" transform="translate(-786.987 -281.106)"/><path class="f" d="M830.408,429.182a6.359,6.359,0,0,1-6.34,6.34H793.48l30.4-12.682h.188A6.359,6.359,0,0,1,830.408,429.182Z" transform="translate(-786.987 -362.41)"/><path class="e" d="M898.188,587.78l-10.073-5.422a3.522,3.522,0,0,0,.839-6.218,2.378,2.378,0,0,1,3.658-2.133l.461.238c1.232-1.665,4.012-1.959,6.478-.633s3.745,3.819,3.042,5.757l.093.05a3.556,3.556,0,0,0-.9,6.211,2.378,2.378,0,0,1-3.6,2.15Z" transform="translate(-858.279 -476.694)"/><path class="f" d="M914.424,599.921a2.378,2.378,0,0,1-3.213.951L901.14,595.45l12.259,1.213.062.033a2.378,2.378,0,0,1,.963,3.225Z" transform="translate(-869.045 -493.973)"/><path class="f" d="M886.986,595.7a2.378,2.378,0,0,0,.963,3.213l10.073,5.422-7.764-9.564-.059-.033A2.378,2.378,0,0,0,886.986,595.7Z" transform="translate(-858.043 -493.214)"/></g><ellipse class="h" cx="124.132" cy="5.469" rx="124.132" ry="5.469" transform="translate(0 140.931)"/><ellipse class="f" cx="26.872" cy="3.584" rx="26.872" ry="3.584" transform="translate(92.505 142.579)"/><path class="h" d="M547.408,369.494a5.469,5.469,0,0,1-6.482-5.964c.623-5.507,2.561-14.38,7.862-27.7,6.145-15.443,3.928-19.174-2.656-30.248C544,302,541.594,297.949,539,292.741c-6.7-13.379-4.152-23.69-.847-29.965a30.448,30.448,0,0,1,9.1-10.556l5.189,8.585-.476.476c-.012,0,.238,0,.6.659a20.739,20.739,0,0,0-4.915,6.295c-2.877,5.762-2.5,12.366,1.13,19.612,2.428,4.856,4.73,8.73,6.761,12.147,3.648,6.135,6.528,10.982,7.481,17.1.987,6.333-.238,13.146-4.064,22.781-5.044,12.672-6.658,20.6-7.151,24.86a5.481,5.481,0,0,1-4.392,4.756Z" transform="translate(-426.17 -223.318)"/><path class="j" d="M409,22.009,431.009,0l22.222,22.009h-15.1V38.838H424.1V22.116Z" transform="translate(-311.739)"/><ellipse class="f" cx="14.03" cy="1.871" rx="14.03" ry="1.871" transform="translate(153.382 142.327)"/><path class="h" d="M764.98,540.839a2.854,2.854,0,0,1-3.384-3.113c.323-2.875,1.336-7.507,4.1-14.461,3.208-8.064,2.05-10.011-1.386-15.795-1.11-1.867-2.378-3.986-3.731-6.706-3.491-6.984-2.164-12.366-.438-15.643a15.9,15.9,0,0,1,4.756-5.512l2.709,4.483-.252.238s.128,0,.314.345a10.815,10.815,0,0,0-2.568,3.286c-1.5,3.008-1.3,6.454.592,10.24,1.268,2.535,2.468,4.559,3.529,6.342,1.9,3.2,3.408,5.733,3.907,8.929.514,3.305-.121,6.863-2.124,11.89-2.632,6.616-3.477,10.756-3.734,12.979a2.854,2.854,0,0,1-2.292,2.485Z" transform="translate(-596.595 -396.634)"/><path class="j" d="M655.44,296.951l11.491-11.491,11.6,11.491H670.65v8.787h-7.324v-8.73Z" transform="translate(-499.575 -217.577)"/><ellipse class="f" cx="14.03" cy="1.871" rx="14.03" ry="1.871" transform="translate(57.31 142.327)"/><path class="h" d="M347.237,540.839a2.854,2.854,0,0,0,3.384-3.113c-.323-2.875-1.336-7.507-4.1-14.461-3.208-8.064-2.05-10.011,1.386-15.795,1.111-1.867,2.378-3.986,3.731-6.706,3.491-6.984,2.164-12.366.438-15.643a15.9,15.9,0,0,0-4.756-5.512l-2.709,4.483.252.238s-.128,0-.314.345a10.815,10.815,0,0,1,2.568,3.286c1.5,3.008,1.3,6.454-.592,10.24-1.267,2.535-2.468,4.559-3.529,6.342-1.9,3.2-3.408,5.733-3.907,8.929-.514,3.305.121,6.863,2.124,11.89,2.632,6.616,3.477,10.756,3.733,12.979a2.854,2.854,0,0,0,2.292,2.485Z" transform="translate(-276.869 -396.634)"/><path class="j" d="M274.535,296.951,263.045,285.46l-11.6,11.491h7.885v8.787h7.324v-8.73Z" transform="translate(-191.647 -217.577)"/><ellipse class="f" cx="4.994" cy="0.595" rx="4.994" ry="0.595" transform="translate(114.253 69.861) rotate(-16.49)"/><ellipse class="f" cx="4.994" cy="0.595" rx="4.994" ry="0.595" transform="translate(116.393 74.618) rotate(-16.49)"/><ellipse class="f" cx="4.994" cy="0.595" rx="4.994" ry="0.595" transform="translate(118.77 78.184) rotate(-16.49)"/><ellipse class="f" cx="4.994" cy="0.595" rx="4.994" ry="0.595" transform="translate(120.674 81.751) rotate(-16.49)"/><path class="j" d="M919.88,701.586h-10.1a3.16,3.16,0,0,0-1.873-5.216,2.1,2.1,0,0,1,1.873-3.162h.461c.264-1.8,2.3-3.206,4.77-3.208s4.518,1.4,4.777,3.2h.093a4.683,4.683,0,0,0,2.1,6.283,2.1,2.1,0,0,1-2.095,2.1Z" transform="translate(-710.33 -556.993)"/><path class="f" d="M928.922,705.552a2.1,2.1,0,0,1-2.093,2.095h-10.1l10.035-4.2h.062A2.1,2.1,0,0,1,928.922,705.552Z" transform="translate(-717.279 -567.244)"/><path class="f" d="M908.17,723.315a2.1,2.1,0,0,0,2.1,2.093h10.1l-10.042-4.178h-.055A2.1,2.1,0,0,0,908.17,723.315Z" transform="translate(-710.754 -580.796)"/><path class="j" d="M678.812,707.125h-5.733a2.659,2.659,0,0,0-1.189-3.567,1.189,1.189,0,0,1,1.189-1.189h.264a2.927,2.927,0,0,1,5.417,0h.052A2.659,2.659,0,0,0,680,705.931a1.189,1.189,0,0,1-1.189,1.189Z" transform="translate(-530.662 -565.034)"/><path class="f" d="M683.812,709.389a1.189,1.189,0,0,1-1.189,1.189H676.89L682.6,708.2h.026A1.189,1.189,0,0,1,683.812,709.389Z" transform="translate(-534.473 -570.865)"/><path class="f" d="M672.05,719.419a1.189,1.189,0,0,0,1.189,1.189h5.731l-5.707-2.378h-.036A1.189,1.189,0,0,0,672.05,719.419Z" transform="translate(-530.784 -578.51)"/><path class="j" d="M202.274,712.027H190.146a3.794,3.794,0,0,0-2.241-6.258,2.514,2.514,0,0,1,2.241-3.791h.552c.316-2.162,2.758-3.845,5.724-3.848s5.41,1.677,5.731,3.836h.109A5.689,5.689,0,0,0,204.7,709.5a2.514,2.514,0,0,1-2.436,2.512Z" transform="translate(-161.503 -563.19)"/><path class="f" d="M213.087,716.783a2.518,2.518,0,0,1-2.509,2.514H198.45l12.038-5.037h.074A2.523,2.523,0,0,1,213.087,716.783Z" transform="translate(-169.807 -575.484)"/><path class="f" d="M188.22,738.044a2.521,2.521,0,0,0,2.516,2.509h12.128l-12.049-5.013h-.074A2.523,2.523,0,0,0,188.22,738.044Z" transform="translate(-162.01 -591.703)"/><path class="a" d="M307.727,263.184a4.832,4.832,0,0,0-2.8.3,4.107,4.107,0,0,1-3.353,0,4.709,4.709,0,0,0-3.943.076,2.447,2.447,0,0,1-1.134.285c-1.6,0-2.927-1.61-3.2-3.736a3.078,3.078,0,0,0,.8-.861,4.493,4.493,0,0,1,8.019-.026,3.091,3.091,0,0,0,2.654,1.458h.043A3.367,3.367,0,0,1,307.727,263.184Z" transform="translate(-242.094 -226.786)"/><path class="b" d="M312.59,237.5l-2.583,1.638,1.567-2.854a2.542,2.542,0,0,0-1.562-.559h-.04a2.853,2.853,0,0,1-.535-.038l-.878.554.376-.682A3.122,3.122,0,0,1,307.4,234.4l-1.572,1,.989-1.8a4.589,4.589,0,0,0-3.51-1.774,4.8,4.8,0,0,0-4.019,2.478,3.008,3.008,0,0,1-2.656,1.427h-.078c-1.8,0-3.258,2.04-3.258,4.556s1.46,4.556,3.258,4.556a2.418,2.418,0,0,0,1.134-.285,4.708,4.708,0,0,1,3.943-.076,4.162,4.162,0,0,0,1.686.361,4.112,4.112,0,0,0,1.665-.354,4.706,4.706,0,0,1,3.907.076,2.435,2.435,0,0,0,1.122.278c1.8,0,3.258-2.04,3.258-4.556A5.791,5.791,0,0,0,312.59,237.5Z" transform="translate(-242.101 -207.769)"/><path class="a" d="M210.62,373.184a4.832,4.832,0,0,1,2.792.3,4.1,4.1,0,0,0,3.351,0,4.708,4.708,0,0,1,3.943.076,2.454,2.454,0,0,0,1.134.285c1.6,0,2.93-1.61,3.206-3.736a3.041,3.041,0,0,1-.8-.861,4.493,4.493,0,0,0-8.019-.026,3.091,3.091,0,0,1-2.663,1.455h-.04A3.345,3.345,0,0,0,210.62,373.184Z" transform="translate(-179.083 -310.627)"/><path class="b" d="M187.959,347.493l2.583,1.638-1.569-2.854a2.547,2.547,0,0,1,1.562-.559h.043a2.856,2.856,0,0,0,.535-.038l.875.554-.376-.682a3.127,3.127,0,0,0,1.534-1.163l1.567.994-.992-1.8a4.594,4.594,0,0,1,3.512-1.774,4.815,4.815,0,0,1,4.019,2.478,3.006,3.006,0,0,0,2.656,1.427h.086c1.8,0,3.258,2.04,3.258,4.556s-1.458,4.556-3.258,4.556a2.433,2.433,0,0,1-1.134-.285,4.708,4.708,0,0,0-3.943-.076,4.15,4.15,0,0,1-1.684.361,4.1,4.1,0,0,1-1.665-.354,4.711,4.711,0,0,0-3.909.076,2.428,2.428,0,0,1-1.122.278c-1.8,0-3.258-2.04-3.258-4.556A5.79,5.79,0,0,1,187.959,347.493Z" transform="translate(-161.292 -291.603)"/><path class="d" d="M623.625,401.146a1.242,1.242,0,0,1,.433.136,1.024,1.024,0,0,1,.378.507,4.471,4.471,0,0,1,.252,1.586,3.4,3.4,0,0,1-.164,1.286.8.8,0,0,1-.214.335.742.742,0,0,1-.295.143.787.787,0,0,1-.692-.086,1.1,1.1,0,0,1-.307-.713,1.681,1.681,0,0,0-.411-.994c-.2-.183-.476-.276-.621-.5a1.068,1.068,0,0,1,.029-.923c.093-.262.238-.789.5-.923S623.342,401.093,623.625,401.146Z" transform="translate(-492.551 -336.685)"/><path class="d" d="M577.4,405.468a2.031,2.031,0,0,0,.426.787c.121.14.271.309.207.476a.4.4,0,0,1-.114.155,5.8,5.8,0,0,1-3.389,1.455.127.127,0,0,1-.06,0c-.036-.017-.045-.062-.05-.1a1.262,1.262,0,0,1,0-.39,1.16,1.16,0,0,1,.587-.685,1.864,1.864,0,0,0,.69-.6c.181-.34.1-.782.319-1.1a1.153,1.153,0,0,1,.808-.416c.1-.017.333-.136.423-.081S577.365,405.361,577.4,405.468Z" transform="translate(-456.36 -339.728)"/><path class="e" d="M624.454,401.217a.126.126,0,0,1,.109-.124.373.373,0,0,1,.176.024,2.619,2.619,0,0,0,.426.078,3.093,3.093,0,0,1,.514.059.58.58,0,0,1,.4.3.765.765,0,0,1,.045.285,4.517,4.517,0,0,1-.133,1.113.079.079,0,0,1-.045.069.168.168,0,0,1-.069,0,.09.09,0,0,0-.04.048,2.456,2.456,0,0,0-.152.744c-.043.373-.093.747-.155,1.118a1.246,1.246,0,0,1-.238.611,1.011,1.011,0,0,1-.642.295,4.519,4.519,0,0,1-1.512-.138.44.44,0,0,1-.254-.114.292.292,0,0,1-.062-.2c0-.238.238-.426.447-.564l.309-.188a.152.152,0,0,0,.05-.045.172.172,0,0,0,.014-.093l-.019-.366a1.046,1.046,0,0,1,.906.576c.04.078.078.171.159.2a.212.212,0,0,0,.25-.152.64.64,0,0,0,0-.321c-.167-.9-.126-1.819-.238-2.725a.6.6,0,0,0-.093-.285C624.556,401.36,624.465,401.307,624.454,401.217Z" transform="translate(-493.258 -336.787)"/><path class="e" d="M569.811,412.046c-.043.069-.109.121-.147.195a.164.164,0,0,0,.031.216.211.211,0,0,0,.133.014,4.478,4.478,0,0,0,2.414-1.092,1.663,1.663,0,0,0,.295-.326c.078-.119.145-.264.278-.314a4.826,4.826,0,0,1,.126,1.061.754.754,0,0,1-.238.64.769.769,0,0,1-.238.1l-.421.119a.425.425,0,0,1-.238.021,1.058,1.058,0,0,0-.145-.052.343.343,0,0,0-.162.019l-.361.107a2.066,2.066,0,0,0-.359.124c-.1.05-.2.114-.3.169a3.733,3.733,0,0,1-.526.212l-.637.221a2.245,2.245,0,0,1-.542.14,2.324,2.324,0,0,0-.385.021c-.128.021-.188.05-.288.059a.773.773,0,0,1-.452-.133.446.446,0,0,1-.131-.119c-.09-.14,0-.328.078-.476a1.84,1.84,0,0,1,.644-.666c.112-.062.238-.107.345-.162.326-.157.571-.421.877-.6S569.947,411.822,569.811,412.046Z" transform="translate(-451.082 -344.141)"/><path class="d" d="M614.92,298.583a2.659,2.659,0,0,0,1.127.44,4.771,4.771,0,0,0,.637.033,16.515,16.515,0,0,0,2.654-.221,3.285,3.285,0,0,1-.835-1.3,2.175,2.175,0,0,1-.04-.813,6.379,6.379,0,0,1,.238-1.025,6.812,6.812,0,0,1-1.122-.029c-.212-.021-.732-.214-.918-.067s-.043.616-.038.839a.086.086,0,0,1,0,.024,2.674,2.674,0,0,1-.214.98,1.843,1.843,0,0,1-1.489,1.137Z" transform="translate(-487.24 -256.342)"/><path class="f" d="M621.922,296.443a2.24,2.24,0,0,0,1.829.281,6.378,6.378,0,0,1,.238-1.025,6.812,6.812,0,0,1-1.122-.029c-.212-.021-.732-.214-.918-.067S621.917,296.219,621.922,296.443Z" transform="translate(-492.527 -256.342)"/><circle class="d" cx="2.235" cy="2.235" r="2.235" transform="translate(128.382 35.891)"/><path class="e" d="M587.4,312.445a1.044,1.044,0,0,0,.5.9,1.922,1.922,0,0,0,.547.193,10.753,10.753,0,0,0,3.12.385,1.74,1.74,0,0,0,.661-.138.713.713,0,0,0,.409-.511.29.29,0,0,1,.185-.3.632.632,0,0,0,.238-.633c.128.057.262-.071.321-.2s.107-.281.238-.333a1.783,1.783,0,0,1,.278-.04c.147-.038.238-.181.342-.29a2.574,2.574,0,0,1,.79-.476,8.76,8.76,0,0,0,2.14-1.719,7.2,7.2,0,0,0,.923-1.034c.074-.109.143-.221.2-.335a9.441,9.441,0,0,0,.516-1.177,1.37,1.37,0,0,0,.131-.675.55.55,0,0,0,0-.062,1.287,1.287,0,0,0-.2-.409,1.712,1.712,0,0,0-.916-.754,2.633,2.633,0,0,0-1.189.1,2.906,2.906,0,0,1-.4.062,3.716,3.716,0,0,1-1.244-.2l-.445-.121c-.221-.062-.333-.331-.556-.378a.81.81,0,0,0-.3.017,4.1,4.1,0,0,0-1.317.43,2,2,0,0,0-.255.174,1.627,1.627,0,0,0-.595.877c-.093.388,0,.8-.1,1.189a2.631,2.631,0,0,1-.454.866l-1.089,1.565a9.508,9.508,0,0,1-.8,1.044C588.494,311.1,587.417,311.579,587.4,312.445Z" transform="translate(-466.264 -263.013)"/><path class="d" d="M592.782,271.382a1.842,1.842,0,0,0-.2-.621,1.407,1.407,0,0,0-.29-.3,1.9,1.9,0,0,0-.618-.385.771.771,0,0,0-.713.081.937.937,0,0,0-.309.644,1.591,1.591,0,0,0,.167.977,4.079,4.079,0,0,0,.792.816,3.094,3.094,0,0,1,.518.644,1.8,1.8,0,0,0,.238.345.445.445,0,0,0,.373.147.645.645,0,0,0,.3-.178c.112-.1.416-.276.426-.433s-.238-.414-.288-.533A6.017,6.017,0,0,1,592.782,271.382Z" transform="translate(-468.731 -236.884)"/><path class="k" d="M565.51,348.149c.281.518.59,1.023.839,1.558.145.312.273.633.435.935s.395.64.58.965a11.22,11.22,0,0,1,.966,2.673,5.379,5.379,0,0,0,1.9-.668c.038-.024.076-.048.112-.074a1.369,1.369,0,0,0,.385-.423,8.97,8.97,0,0,0-.9-2.43c-.145-.238-.314-.476-.476-.713-.44-.69-.53-1.56-1.03-2.207a.378.378,0,0,1,0-.449c.057-.074.15-.145.131-.238s-.083-.131-.055-.193.043-.048.069-.069c.083-.078.074-.214.081-.328a1.624,1.624,0,0,1,.364-.79.509.509,0,0,1,.133-.143c.045-.029.1-.04.145-.069.159-.1.147-.333.224-.507.1-.238.354-.342.518-.528.212-.238.264-.564.476-.768a.616.616,0,0,1,.074-.059,3.639,3.639,0,0,0-.131,1.077c-.021,1.244.29,2.533.143,3.769a2.6,2.6,0,0,0,1.346,2.452,6.434,6.434,0,0,0,1.049.44c.537.19,1.073.388,1.6.606q.557.238,1.1.5a13.558,13.558,0,0,1,1.3.713,5,5,0,0,1,1.4,1.151,1.251,1.251,0,0,0,.9-.5,3.47,3.47,0,0,0,.5-.937,2.582,2.582,0,0,0,.238-.882.169.169,0,0,0-.1-.159l-2.452-1.3-.459-.238c-1-.533-2.045-1.025-3.049-1.558-.067.019-.124-.057-.143-.124s-.033-.15-.1-.181-.074-.014-.1-.04a.1.1,0,0,1-.017-.081c.033-.476.383-.932.312-1.415a1.7,1.7,0,0,1-.088-.609,2.851,2.851,0,0,1,.185-.385c.121-.295,0-.652.133-.951a2.14,2.14,0,0,0,.176-.6,4.1,4.1,0,0,1,.376-1.189,2.14,2.14,0,0,1,.345-.523c.074-.078.157-.15.238-.238a1.9,1.9,0,0,0,.352-.913,4.365,4.365,0,0,0,.05-1.788,2.636,2.636,0,0,1-.114-.6c0-.271.121-.587-.067-.782a.6.6,0,0,0-.273-.14,8.667,8.667,0,0,0-1.329-.238l-2.05-.266a1.9,1.9,0,0,1-.682-.176,1.363,1.363,0,0,1-.573-.735c-.361.262-.495.751-.782,1.089a5.35,5.35,0,0,1-.476.452,5.474,5.474,0,0,0-.514.633,11.206,11.206,0,0,0-1.161,1.836c-.159.342-.283.7-.411,1.053a42.763,42.763,0,0,0-1.665,4.164,8,8,0,0,0-.333,1.032A2,2,0,0,0,565.51,348.149Z" transform="translate(-449.313 -287.769)"/><path class="f" d="M610.772,334.693a.611.611,0,0,1,.074.3c-.045-.238-.357-.352-.376-.575,0-.1,0-.1.074-.043S610.682,334.605,610.772,334.693Z" transform="translate(-483.848 -285.908)"/><path class="f" d="M607.1,338.527a.475.475,0,0,1,.14.209.528.528,0,0,1,.029.366c-.045-.021-.06-.078-.074-.126a.886.886,0,0,0-.1-.216c-.036-.059-.207-.2-.2-.262S607.052,338.494,607.1,338.527Z" transform="translate(-481.119 -289.057)"/><path class="f" d="M607.3,304.9a2.379,2.379,0,0,0,.476.314c.442.224.932.342,1.379.559a6.408,6.408,0,0,1,.64.373l1.325.839a1.579,1.579,0,0,1,.292.221c.157.171.157.476.3.652a.882.882,0,0,0,.644.3,2.118,2.118,0,0,0,.713-.121,3.663,3.663,0,0,0,.409-.15,1.942,1.942,0,0,0,.392-.224,1.127,1.127,0,0,0,.476-.732,1.469,1.469,0,0,0-.078-.6,2.24,2.24,0,0,0-.143-.361,1.173,1.173,0,0,0-.112-.19,2.108,2.108,0,0,0-1.358-.735c-.273-.052-.552-.086-.825-.133a2.9,2.9,0,0,1-.4.062,3.717,3.717,0,0,1-1.244-.2l-.445-.121c-.221-.062-.333-.331-.556-.378a.811.811,0,0,0-.3.017,4.1,4.1,0,0,0-1.317.43A2,2,0,0,0,607.3,304.9Z" transform="translate(-481.432 -262.99)"/><path class="e" d="M597.63,282c.057.54.511.937.789,1.4.136.238.238.476.352.713a7.225,7.225,0,0,0,.476.737l.5.713a7.458,7.458,0,0,0,.951,1.206,10.855,10.855,0,0,1,1.812.828,9.183,9.183,0,0,0,1.55.314,2.108,2.108,0,0,1,1.358.735,2.021,2.021,0,0,1,.254.554,1.459,1.459,0,0,1,.078.6,1.127,1.127,0,0,1-.476.73,2.472,2.472,0,0,1-.8.373,2.06,2.06,0,0,1-.713.121.873.873,0,0,1-.644-.3c-.145-.181-.143-.476-.3-.649a1.456,1.456,0,0,0-.293-.221l-1.325-.839a6.4,6.4,0,0,0-.64-.373c-.447-.219-.937-.335-1.379-.561a1.671,1.671,0,0,1-.951-1.082,10.531,10.531,0,0,0-2.195-4c.029,0,.019-.071.031-.1a1.284,1.284,0,0,1,.649-.656,3.8,3.8,0,0,1,.92-.24Z" transform="translate(-472.842 -246.016)"/><path class="k" d="M622.433,278.659a.8.8,0,0,1,.093-.476,1.049,1.049,0,0,1,.735-.388c.269-.057.537-.1.809-.143a1.857,1.857,0,0,1,.668-.012,4.52,4.52,0,0,1,.835.395,5.785,5.785,0,0,0,1.061.271,1.605,1.605,0,0,1,.951.511,1.782,1.782,0,0,1,.283.792c.423,2.283-.033,4.623-.119,6.944a4.229,4.229,0,0,0,.523,2.616l-1.5-.038a1.843,1.843,0,0,1-1.1-.269,1.8,1.8,0,0,1-.5-.863,2.672,2.672,0,0,1-.193-.773c-.024-.547.285-1.082.186-1.617a1.8,1.8,0,0,0-.69-1.006,6.308,6.308,0,0,1-.911-.811,2.943,2.943,0,0,1-.476-2.074,7.827,7.827,0,0,0,.074-1.289,1.627,1.627,0,0,0-.34-.906A1.256,1.256,0,0,1,622.433,278.659Z" transform="translate(-492.962 -242.675)"/><path class="f" d="M622.513,278.765a1.03,1.03,0,0,1,.713-.385.7.7,0,0,0-.357.281.8.8,0,0,0-.093.476,1.246,1.246,0,0,0,.385.866,1.627,1.627,0,0,1,.34.9,7.849,7.849,0,0,1-.074,1.291,3,3,0,0,0,.476,2.071,6.3,6.3,0,0,0,.911.811,1.809,1.809,0,0,1,.68.987c.1.537-.209,1.072-.185,1.617a2.65,2.65,0,0,0,.193.773,1.365,1.365,0,0,0,1.605,1.132l1.065.029c.024.038.048.076.074.114l-1.5-.038a1.843,1.843,0,0,1-1.1-.269,1.8,1.8,0,0,1-.5-.863,2.672,2.672,0,0,1-.193-.773c-.024-.547.285-1.082.185-1.617a1.8,1.8,0,0,0-.678-.985,6.3,6.3,0,0,1-.911-.811,2.943,2.943,0,0,1-.476-2.074,7.834,7.834,0,0,0,.074-1.289,1.627,1.627,0,0,0-.34-.906,1.256,1.256,0,0,1-.385-.866.8.8,0,0,1,.1-.476Z" transform="translate(-492.949 -243.257)"/><path class="f" d="M575.37,364.632l2.766,6.718a1.369,1.369,0,0,0,.385-.423,8.972,8.972,0,0,0-.9-2.43c-.145-.238-.314-.476-.476-.713-.44-.69-.53-1.56-1.03-2.207a.378.378,0,0,1,0-.449c.057-.074.15-.145.131-.238s-.083-.131-.055-.193.043-.048.069-.069c.083-.078.074-.214.081-.328a1.624,1.624,0,0,1,.364-.789.509.509,0,0,1,.133-.143c.045-.029.1-.04.145-.069.159-.1.147-.333.224-.507.1-.238.354-.342.518-.528.212-.238.264-.564.476-.768l.019-.048-.209-1.3Z" transform="translate(-457.095 -305.582)"/></svg>