<svg xmlns="http://www.w3.org/2000/svg" xmlns:xlink="http://www.w3.org/1999/xlink" viewBox="0 0 61.67 51.31"><defs><linearGradient id="a" y1="25.65" x2="56.49" y2="25.65" gradientUnits="userSpaceOnUse"><stop offset="0" stop-color="#4fc3f7"/><stop offset="1" stop-color="#0091ea"/></linearGradient><linearGradient id="b" x1="40.64" y1="44.17" x2="64.75" y2="30.26" gradientUnits="userSpaceOnUse"><stop offset="0" stop-color="#eee"/><stop offset="1" stop-color="#bdbdbd"/></linearGradient><linearGradient id="c" x1="23.66" y1="9.31" x2="11.4" y2="16.39" xlink:href="#a"/><linearGradient id="d" x1="28.88" y1="16.02" x2="12.17" y2="25.67" xlink:href="#a"/><linearGradient id="e" x1="18.43" y1="26.6" x2="10.65" y2="31.08" xlink:href="#a"/><linearGradient id="f" x1="53.3" y1="33.08" x2="48.37" y2="30.24" xlink:href="#b"/><linearGradient id="g" x1="55.4" y1="36.81" x2="48.68" y2="32.93" xlink:href="#b"/><linearGradient id="h" x1="51.2" y1="38.99" x2="48.07" y2="37.18" xlink:href="#b"/></defs><title>create-contest</title><path d="M51.43,0A5,5,0,0,1,55,1.44a4.84,4.84,0,0,1,1.51,3.62V17.94H51.43V5.06H5.18V35.89H38.54v5.18H33.36v5.18h5.18v5.06H18V46.25h5.17V41.07H5.18A4.86,4.86,0,0,1,1.51,39.5,5,5,0,0,1,0,35.89V5.06A4.8,4.8,0,0,1,1.51,1.44,5.09,5.09,0,0,1,5.18,0Z" fill="url(#a)"/><path d="M60.94,23.84a2.44,2.44,0,0,0-1.8-.72H46.25a2.46,2.46,0,0,0-2.53,2.53V48.78a2.48,2.48,0,0,0,2.53,2.53H59.14a2.49,2.49,0,0,0,2.53-2.53V25.65A2.45,2.45,0,0,0,60.94,23.84Zm-1.8,22.41H46.25V28.18H59.14Z" fill="url(#b)"/><rect x="10.52" y="10.84" width="14.03" height="4.02" fill="url(#c)"/><rect x="10.52" y="18.88" width="20.01" height="3.93" fill="url(#d)"/><rect x="10.52" y="26.83" width="8.04" height="4.02" fill="url(#e)"/><rect x="48.02" y="30.85" width="5.64" height="1.62" fill="url(#f)"/><rect x="48.02" y="34.08" width="8.04" height="1.58" fill="url(#g)"/><rect x="48.02" y="37.28" width="3.23" height="1.62" fill="url(#h)"/></svg>
