<?xml version="1.0" encoding="utf-8"?>
<!-- Generator: Adobe Illustrator 21.1.0, SVG Export Plug-In . SVG Version: 6.00 Build 0)  -->
<svg version="1.1" id="Layer_1" xmlns="http://www.w3.org/2000/svg" xmlns:xlink="http://www.w3.org/1999/xlink" x="0px" y="0px"
	 viewBox="0 0 512 512" enable-background="new 0 0 512 512" xml:space="preserve">
<path fill="#FFFFFF" d="M235.2,512.4c-14.5,0-26.3-11.8-26.3-26.3c0-14.5,11.8-26.3,26.3-26.3h194c16.6,0,30.2-13.5,30.2-30.2V82.8
	c0-16.6-13.5-30.2-30.2-30.2H82.4c-16.6,0-30.2,13.5-30.2,30.2v346.8c0,16.6,13.5,30.2,30.2,30.2h32.7c14.5,0,26.3,11.8,26.3,26.3
	c0,14.5-11.8,26.3-26.3,26.3H82.4c-45.6,0-82.8-37.1-82.8-82.8V82.8C-0.4,37.1,36.7,0,82.4,0h346.8C474.9,0,512,37.1,512,82.8v346.8
	c0,45.6-37.1,82.8-82.8,82.8H235.2z"/>
<path fill="#FFFFFF" d="M230.8,381.1c-14.1,0-25.5-11.4-25.5-25.5s11.4-25.5,25.5-25.5h37.9c6.9,0,13.3,2.7,18.1,7.5
	c4.8,4.8,7.4,11.2,7.4,17.9c0,14.1-11.4,25.6-25.5,25.6H230.8z"/>
<path fill="#FFFFFF" d="M146.3,179.9c-12.8,0-23.2-10.4-23.2-23.2s10.4-23.2,23.2-23.2s23.2,10.4,23.2,23.2S159.1,179.9,146.3,179.9
	z"/>
<path fill="#FFFFFF" d="M146.3,279.4c-12.8,0-23.2-10.4-23.2-23.2c0-12.8,10.4-23.2,23.2-23.2s23.2,10.4,23.2,23.2
	C169.5,269,159.1,279.4,146.3,279.4z"/>
<path fill="#FFFFFF" d="M146.3,378.9c-12.8,0-23.2-10.4-23.2-23.2s10.4-23.2,23.2-23.2s23.2,10.4,23.2,23.2S159.1,378.9,146.3,378.9
	z"/>
<path fill="#FFFFFF" d="M230.8,281.7c-14.1,0-25.5-11.4-25.5-25.5s11.4-25.5,25.5-25.5h90c14.1,0,25.5,11.4,25.5,25.5
	s-11.4,25.5-25.5,25.5H230.8z"/>
<path fill="#FFFFFF" d="M230.8,182.2c-14.1,0-25.5-11.4-25.5-25.5s11.4-25.5,25.5-25.5h142.1c14.1,0,25.5,11.4,25.5,25.5
	s-11.4,25.5-25.5,25.5H230.8z"/>
</svg>
