<?xml version="1.0" encoding="utf-8"?>
<!-- Generator: Adobe Illustrator 22.0.1, SVG Export Plug-In . SVG Version: 6.00 Build 0)  -->
<svg version="1.1" id="Layer_1" xmlns="http://www.w3.org/2000/svg" xmlns:xlink="http://www.w3.org/1999/xlink" x="0px" y="0px"
	 viewBox="0 0 630 630" style="enable-background:new 0 0 630 630;" xml:space="preserve">
<style type="text/css">
	.st0{fill:#777BB3;}
	.st1{fill:#FFFFFF;}
</style>
<rect class="st0" width="630" height="630"/>
<g>
	<path class="st1" d="M199.7,243c-31,0.6-78.1,0-78.1,0l-33.2,170h36.8l9.7-45.2l34.4,0.3c0,0,60.5,4.9,77.6-54.3
		C261.1,264.3,230.7,242.5,199.7,243z M211.3,294.9c-1.8,47.6-40.4,46.6-40.4,46.6h-31.7l14-71.9h34
		C187.1,269.6,213.2,267.6,211.3,294.9z"/>
	<path class="st1" d="M489.9,243c-31,0.6-78.1,0-78.1,0l-33.2,170h36.8l9.7-45.2l34.4,0.3c0,0,60.5,4.9,77.5-54.2
		C551.2,264.3,520.8,242.5,489.9,243z M501.5,294.9c-1.8,47.6-40.4,46.6-40.4,46.6h-31.7l14-71.9h34
		C477.2,269.6,503.4,267.6,501.5,294.9z"/>
	<path class="st1" d="M343.7,243h-38.5l9.4-45.6h-37.3l-34,170.8h36.4l19.4-97.6c0,0,23.1,0.1,38.5,0.1c18.4,0,11.5,19.2,9.9,30.4
		c-3.9,27.4-12.7,66.9-12.7,66.9h36.4c0,0,11.3-44.9,17.4-87C394.7,239,343.7,243,343.7,243z"/>
</g>
</svg>
