<svg xmlns="http://www.w3.org/2000/svg" xmlns:xlink="http://www.w3.org/1999/xlink" viewBox="0 0 640 480"><defs><clipPath id="a"><rect x="-35.33" y="240.2" width="710.67" height="239.8" fill="none"/></clipPath><linearGradient id="b" x1="143.89" y1="395.21" x2="45.58" y2="493.52" gradientUnits="userSpaceOnUse"><stop offset="0" stop-color="#00897b"/><stop offset="1" stop-color="#aed581"/></linearGradient><linearGradient id="c" x1="594.43" y1="395.21" x2="496.12" y2="493.52" gradientUnits="userSpaceOnUse"><stop offset="0" stop-color="#dd2c00"/><stop offset="1" stop-color="#ffb74d"/></linearGradient><linearGradient id="d" x1="2340.03" y1="364.15" x2="2340.03" y2="505.88" gradientTransform="matrix(-1, 0, 0, 1, 2475.71, 0)" gradientUnits="userSpaceOnUse"><stop offset="0" stop-color="#fff" stop-opacity="0"/><stop offset="1"/></linearGradient><linearGradient id="e" x1="251.86" y1="373.91" x2="132.72" y2="493.05" gradientUnits="userSpaceOnUse"><stop offset="0" stop-color="#1e88e5"/><stop offset="1" stop-color="#4dd0e1"/></linearGradient><linearGradient id="f" x1="852.67" y1="364.36" x2="852.67" y2="506.08" gradientTransform="translate(-352.49)" xlink:href="#d"/><linearGradient id="g" x1="502.14" y1="374.94" x2="385.05" y2="492.02" gradientUnits="userSpaceOnUse"><stop offset="0" stop-color="#d81b60"/><stop offset="1" stop-color="#ff8a65"/></linearGradient><linearGradient id="h" x1="403.05" y1="336.54" x2="403.05" y2="505.88" gradientTransform="matrix(1, 0, 0, 1, 0, 0)" xlink:href="#d"/><linearGradient id="i" x1="2243.42" y1="336.54" x2="2243.42" y2="505.88" xlink:href="#d"/><linearGradient id="j" x1="402.24" y1="319.32" x2="233.64" y2="487.91" gradientUnits="userSpaceOnUse"><stop offset="0" stop-color="#424242"/><stop offset="1" stop-color="#616161"/></linearGradient></defs><title>TotalContest illustrations</title><g style="isolation:isolate"><path d="M196.47,132.16a1.56,1.56,0,0,1,.48,1.14v4.27a1.64,1.64,0,0,1-1.62,1.62H184.51v32.94a1.64,1.64,0,0,1-1.62,1.62H178a1.64,1.64,0,0,1-1.62-1.62V139.19H165.58a1.58,1.58,0,0,1-1.15-.48,1.56,1.56,0,0,1-.48-1.14V133.3a1.56,1.56,0,0,1,.48-1.14,1.58,1.58,0,0,1,1.15-.48h29.75A1.56,1.56,0,0,1,196.47,132.16Z" fill="#424242"/><path d="M226,158.19q0,1.56-.12,3a14.37,14.37,0,0,1-2.22,6.67,13.51,13.51,0,0,1-5.26,4.75,17.49,17.49,0,0,1-15.21,0,13.58,13.58,0,0,1-5.26-4.75,14.37,14.37,0,0,1-2.22-6.67q-.06-.72-.06-3c0-1.57,0-2.59.06-3.07a14.45,14.45,0,0,1,2.22-6.73,13.58,13.58,0,0,1,5.26-4.75,17.49,17.49,0,0,1,15.21,0,13.51,13.51,0,0,1,5.26,4.75,14.45,14.45,0,0,1,2.22,6.73C226,156.08,226,157.1,226,158.19Zm-20.1-7.64a6.49,6.49,0,0,0-2.38,4.87c0,.4-.06,1.3-.06,2.71s0,2.3.06,2.7a6.49,6.49,0,0,0,2.38,4.87,9.06,9.06,0,0,0,9.8,0c1.34-1,2.13-2.59,2.37-4.87q.12-1.2.12-2.7c0-1,0-1.91-.12-2.71-.24-2.28-1-3.91-2.37-4.87a9.06,9.06,0,0,0-9.8,0Z" fill="#424242"/><path d="M244.05,165.49a5,5,0,0,0,3.63,1h3.67a1.64,1.64,0,0,1,1.62,1.62v4a1.64,1.64,0,0,1-1.62,1.62H246.9q-5.72,0-8.71-2.79c-2-1.87-3-4.64-3-8.33V149.71h-4a1.64,1.64,0,0,1-1.62-1.62v-4a1.64,1.64,0,0,1,1.62-1.62h4v-9.8a1.64,1.64,0,0,1,1.62-1.62h4.57A1.64,1.64,0,0,1,243,132.7v9.8h7.76a1.64,1.64,0,0,1,1.62,1.62v4a1.64,1.64,0,0,1-1.62,1.62H243v12.74A4.07,4.07,0,0,0,244.05,165.49Z" fill="#424242"/><path d="M281.55,145.14q3.65,3.26,3.64,9.32v17.67a1.64,1.64,0,0,1-1.62,1.62H279a1.56,1.56,0,0,1-1.14-.48,1.53,1.53,0,0,1-.49-1.14v-2a9.58,9.58,0,0,1-3.81,3.06,13.73,13.73,0,0,1-5.86,1.14,11.64,11.64,0,0,1-8-2.61,8.63,8.63,0,0,1-2.94-6.76,7.89,7.89,0,0,1,2.85-6.4,16.81,16.81,0,0,1,8-3.28l9.79-1.68a3.92,3.92,0,0,0-1.53-3.4,6.87,6.87,0,0,0-4.12-1.11,5.54,5.54,0,0,0-2.25.39,6.36,6.36,0,0,0-1.71,1.17,2.85,2.85,0,0,1-2,.84h-5.59a1.34,1.34,0,0,1-1-.39,1.09,1.09,0,0,1-.33-.93,8.93,8.93,0,0,1,1.89-3.79,11.76,11.76,0,0,1,4.33-3.21,15.76,15.76,0,0,1,6.64-1.29Q277.92,141.9,281.55,145.14Zm-4.18,14.67-8.17,1.44a8.68,8.68,0,0,0-3.52,1.23,2.59,2.59,0,0,0-1.11,2.2,2,2,0,0,0,1.23,1.83,6.82,6.82,0,0,0,3.1.63,10.13,10.13,0,0,0,4.57-1,7.13,7.13,0,0,0,2.91-2.5,5.91,5.91,0,0,0,1-3.27Z" fill="#424242"/><path d="M300.52,173.27a1.6,1.6,0,0,1-1.15.48h-4.56a1.64,1.64,0,0,1-1.63-1.62V132.7a1.64,1.64,0,0,1,1.63-1.62h4.56a1.6,1.6,0,0,1,1.15.48,1.56,1.56,0,0,1,.48,1.14v39.43A1.56,1.56,0,0,1,300.52,173.27Z" fill="#424242"/><path d="M340.31,143.31a1.73,1.73,0,0,1-1.21.45h-4.2a2.7,2.7,0,0,1-1.51-.36,3.2,3.2,0,0,1-1-1.08,7.43,7.43,0,0,0-2.94-2.71,11.28,11.28,0,0,0-5.23-1,10.53,10.53,0,0,0-5.47,1.32,4,4,0,0,0-2.23,3.55,3.62,3.62,0,0,0,1.06,2.79,8,8,0,0,0,3.27,1.66c1.48.44,3.91,1,7.27,1.74q7.27,1.56,10.52,4.39a9.72,9.72,0,0,1,3.25,7.75,10.61,10.61,0,0,1-2.1,6.46,13.82,13.82,0,0,1-6,4.48,26.23,26.23,0,0,1-17.65.18,15.46,15.46,0,0,1-6.31-4.12,9.65,9.65,0,0,1-2.58-6.1,1.36,1.36,0,0,1,.42-1.17,1.69,1.69,0,0,1,1.2-.45h4.21a2.84,2.84,0,0,1,1.53.36,2.62,2.62,0,0,1,.93,1.08,7.74,7.74,0,0,0,3,3.16,12.08,12.08,0,0,0,6,1.17,15.34,15.34,0,0,0,6.61-1.26,4,4,0,0,0,2.64-3.79,2.88,2.88,0,0,0-1-2.31,8.06,8.06,0,0,0-2.88-1.44c-1.24-.39-3.13-.88-5.65-1.48-1-.2-2.31-.5-3.91-.9q-6.32-1.56-9.11-4.27t-2.79-7.93a10.49,10.49,0,0,1,2.07-6.37,13.85,13.85,0,0,1,5.68-4.42,19.79,19.79,0,0,1,8.06-1.59,20.65,20.65,0,0,1,8.74,1.71,14.27,14.27,0,0,1,5.62,4.3,9.64,9.64,0,0,1,2.11,5A1.36,1.36,0,0,1,340.31,143.31Z" fill="#424242"/><path d="M348.42,143a1.56,1.56,0,0,1,1.14-.48h4.57a1.64,1.64,0,0,1,1.62,1.62v15.27a9.39,9.39,0,0,0,1.6,5.86,6.75,6.75,0,0,0,9.79-.06,9,9,0,0,0,1.72-5.8V144.12a1.64,1.64,0,0,1,1.62-1.62h4.57a1.64,1.64,0,0,1,1.62,1.62v28a1.64,1.64,0,0,1-1.62,1.62h-4.57a1.64,1.64,0,0,1-1.62-1.62v-1.38a11.23,11.23,0,0,1-8.36,3.6q-6.79,0-9.68-3.87t-2.88-10.19V144.12A1.56,1.56,0,0,1,348.42,143Z" fill="#424242"/><path d="M392.6,131.56a1.56,1.56,0,0,1,.48,1.14v4.69a1.64,1.64,0,0,1-1.62,1.62h-5.17a1.58,1.58,0,0,1-1.15-.48,1.56,1.56,0,0,1-.48-1.14V132.7a1.56,1.56,0,0,1,.48-1.14,1.58,1.58,0,0,1,1.15-.48h5.17A1.56,1.56,0,0,1,392.6,131.56Zm-.3,41.71a1.56,1.56,0,0,1-1.14.48h-4.57a1.66,1.66,0,0,1-1.63-1.62v-28a1.66,1.66,0,0,1,1.63-1.62h4.57a1.64,1.64,0,0,1,1.62,1.62v28A1.56,1.56,0,0,1,392.3,173.27Z" fill="#424242"/><path d="M412.64,165.49a5.07,5.07,0,0,0,3.64,1H420a1.64,1.64,0,0,1,1.62,1.62v4a1.64,1.64,0,0,1-1.62,1.62H415.5c-3.81,0-6.71-.93-8.72-2.79s-3-4.64-3-8.33V149.71h-4a1.64,1.64,0,0,1-1.62-1.62v-4a1.64,1.64,0,0,1,1.62-1.62h4v-9.8a1.64,1.64,0,0,1,1.62-1.62H410a1.64,1.64,0,0,1,1.62,1.62v9.8h7.76a1.64,1.64,0,0,1,1.62,1.62v4a1.64,1.64,0,0,1-1.62,1.62h-7.76v12.74A4.11,4.11,0,0,0,412.64,165.49Z" fill="#424242"/><path d="M448.38,144a14.26,14.26,0,0,1,5.2,5.56,16.16,16.16,0,0,1,1.83,7.63v2.71a1.64,1.64,0,0,1-1.62,1.62H433.71a4.89,4.89,0,0,0,2,4.12,7.92,7.92,0,0,0,4.87,1.53,8.24,8.24,0,0,0,5.11-1.38,6,6,0,0,1,1.08-.66,3,3,0,0,1,1.15-.18h4.8a1.62,1.62,0,0,1,1.15.45,1.4,1.4,0,0,1,.48,1,5.5,5.5,0,0,1-1.66,3.19,13.51,13.51,0,0,1-4.77,3.33,17.73,17.73,0,0,1-7.34,1.41,14.61,14.61,0,0,1-7.78-2,13.56,13.56,0,0,1-5.14-5.71,19,19,0,0,1-1.8-8.47,18.49,18.49,0,0,1,1.8-8.21,14.27,14.27,0,0,1,5.17-5.86,14,14,0,0,1,7.75-2.16A14.52,14.52,0,0,1,448.38,144Zm-1.09,10.67q-.66-5.53-6.67-5.53a6.86,6.86,0,0,0-4.9,1.68,6.17,6.17,0,0,0-2,3.85Z" fill="#424242"/><path d="M198.23,194.82a.69.69,0,0,1,.21.51v1a.69.69,0,0,1-.21.51.7.7,0,0,1-.52.22h-8.88v6.24h8.34a.72.72,0,0,1,.73.73v1a.69.69,0,0,1-.21.51.74.74,0,0,1-.52.22h-8.34v7.07a.69.69,0,0,1-.21.51.7.7,0,0,1-.52.22H187a.7.7,0,0,1-.52-.22.69.69,0,0,1-.21-.51V195.33a.69.69,0,0,1,.21-.51.7.7,0,0,1,.52-.22h10.71A.7.7,0,0,1,198.23,194.82Z" fill="#757575"/><path d="M215.08,195.3a6.64,6.64,0,0,1,2.55,2.63,8.46,8.46,0,0,1,.93,3.72c0,1.08.05,1.88.05,2.4s0,1.32-.05,2.4a8.67,8.67,0,0,1-1,3.71,6.58,6.58,0,0,1-2.54,2.64,8.55,8.55,0,0,1-7.91,0,6.58,6.58,0,0,1-2.54-2.64,8.67,8.67,0,0,1-1-3.71c0-.54,0-1.34,0-2.4s0-1.86,0-2.4a8.33,8.33,0,0,1,.94-3.72,6.51,6.51,0,0,1,2.55-2.63,8.61,8.61,0,0,1,7.94,0ZM207.62,198a5.2,5.2,0,0,0-1.4,3.75c0,.54,0,1.3,0,2.27s0,1.73,0,2.27a5.21,5.21,0,0,0,1.4,3.75,5.42,5.42,0,0,0,7,0,5.21,5.21,0,0,0,1.4-3.75c0-1.08.06-1.84.06-2.27s0-1.19-.06-2.27a5.2,5.2,0,0,0-1.4-3.75,5.42,5.42,0,0,0-7,0Z" fill="#757575"/><path d="M237.13,196a4.93,4.93,0,0,1,1.84,4.2,5.36,5.36,0,0,1-1.05,3.43,5.81,5.81,0,0,1-2.84,1.89l4.08,7.1a.75.75,0,0,1,.08.3.62.62,0,0,1-.59.59h-1.16a1.27,1.27,0,0,1-1.17-.73l-3.91-6.89h-4.64v6.89a.7.7,0,0,1-.22.51.68.68,0,0,1-.51.22h-1.11a.75.75,0,0,1-.73-.73V195.33a.75.75,0,0,1,.73-.73h6.53A7.49,7.49,0,0,1,237.13,196Zm-4.8,7.47q4.08,0,4.08-3.27a2.8,2.8,0,0,0-1-2.42,5.22,5.22,0,0,0-3-.74h-4.56v6.43Z" fill="#757575"/><path d="M267.48,210.26l2.76-14.93a.88.88,0,0,1,.31-.56.85.85,0,0,1,.52-.17h1.08a.61.61,0,0,1,.42.17.58.58,0,0,1,.18.42l0,.22-3.32,16.68a2.65,2.65,0,0,1-.43,1.07,1.06,1.06,0,0,1-.89.34H267a1.08,1.08,0,0,1-.9-.37,2.88,2.88,0,0,1-.48-1l-2.49-9-2.48,9a3.06,3.06,0,0,1-.48,1,1.08,1.08,0,0,1-.9.37h-1.08a1.06,1.06,0,0,1-.89-.34,2.65,2.65,0,0,1-.43-1.07l-3.32-16.68,0-.22a.58.58,0,0,1,.18-.42.61.61,0,0,1,.42-.17h1.08a.87.87,0,0,1,.52.17.88.88,0,0,1,.31.56l2.76,14.93,3-10.69A1.08,1.08,0,0,1,262,199a.8.8,0,0,1,.65-.26h.91a.8.8,0,0,1,.65.26,1.08,1.08,0,0,1,.27.53Z" fill="#757575"/><path d="M289.43,195.3a6.51,6.51,0,0,1,2.55,2.63,8.33,8.33,0,0,1,.94,3.72c0,1.08.05,1.88.05,2.4s0,1.32-.05,2.4a8.67,8.67,0,0,1-1,3.71,6.58,6.58,0,0,1-2.54,2.64,8.55,8.55,0,0,1-7.91,0,6.51,6.51,0,0,1-2.54-2.64,8.53,8.53,0,0,1-1-3.71q0-.81,0-2.4t0-2.4a8.46,8.46,0,0,1,.93-3.72,6.64,6.64,0,0,1,2.55-2.63,8.61,8.61,0,0,1,7.94,0ZM282,198a5.2,5.2,0,0,0-1.4,3.75c0,.54,0,1.3,0,2.27s0,1.73,0,2.27a5.21,5.21,0,0,0,1.4,3.75,5.42,5.42,0,0,0,7,0,5.21,5.21,0,0,0,1.4-3.75c0-1.08,0-1.84,0-2.27s0-1.19,0-2.27A5.2,5.2,0,0,0,289,198a5.42,5.42,0,0,0-7,0Z" fill="#757575"/><path d="M311.49,196a4.93,4.93,0,0,1,1.84,4.2,5.3,5.3,0,0,1-1.06,3.43,5.74,5.74,0,0,1-2.83,1.89l4.08,7.1a.75.75,0,0,1,.08.3.54.54,0,0,1-.18.41.56.56,0,0,1-.42.18h-1.16a1.27,1.27,0,0,1-1.16-.73l-3.91-6.89h-4.65v6.89a.69.69,0,0,1-.21.51.7.7,0,0,1-.52.22h-1.1a.7.7,0,0,1-.52-.22.69.69,0,0,1-.21-.51V195.33a.69.69,0,0,1,.21-.51.7.7,0,0,1,.52-.22h6.53A7.49,7.49,0,0,1,311.49,196Zm-4.8,7.47q4.06,0,4.07-3.27a2.79,2.79,0,0,0-1-2.42,5.24,5.24,0,0,0-3.05-.74h-4.57v6.43Z" fill="#757575"/><path d="M333.5,210.08a6.43,6.43,0,0,1-2.68,2.54,8.34,8.34,0,0,1-3.91.88h-6.35a.67.67,0,0,1-.51-.22.7.7,0,0,1-.22-.51V195.33a.7.7,0,0,1,.22-.51.67.67,0,0,1,.51-.22h6.19a8.67,8.67,0,0,1,4,.88,6.62,6.62,0,0,1,2.74,2.53,7.71,7.71,0,0,1,1,3.91c0,.54,0,1.25,0,2.13s0,1.59,0,2.13A7.84,7.84,0,0,1,333.5,210.08ZM322.4,197v14h4.37a4.89,4.89,0,0,0,3.9-1.4,5.59,5.59,0,0,0,1.26-3.62c0-.54,0-1.21,0-2s0-1.46,0-2a5.43,5.43,0,0,0-1.32-3.6,5.06,5.06,0,0,0-4-1.42Z" fill="#757575"/><path d="M353.3,196.06a5.1,5.1,0,0,1,1.85,4.26,5.69,5.69,0,0,1-.88,3.22,5.32,5.32,0,0,1-2.35,2,8.07,8.07,0,0,1-3.28.65h-5v6.61a.73.73,0,0,1-.72.73h-1.11a.75.75,0,0,1-.73-.73V195.33a.75.75,0,0,1,.73-.73h6.8A7.25,7.25,0,0,1,353.3,196.06Zm-4.79,7.66a4.74,4.74,0,0,0,3-.84,3.1,3.1,0,0,0,1.05-2.56c0-2.19-1.35-3.29-4.07-3.29h-4.84v6.69Z" fill="#757575"/><path d="M373,196a4.93,4.93,0,0,1,1.84,4.2,5.36,5.36,0,0,1-1.05,3.43,5.81,5.81,0,0,1-2.84,1.89l4.08,7.1a.75.75,0,0,1,.08.3.62.62,0,0,1-.59.59h-1.16a1.27,1.27,0,0,1-1.17-.73l-3.91-6.89h-4.64v6.89a.75.75,0,0,1-.73.73h-1.11a.75.75,0,0,1-.73-.73V195.33a.75.75,0,0,1,.73-.73h6.53A7.49,7.49,0,0,1,373,196Zm-4.8,7.47c2.72,0,4.07-1.09,4.07-3.27a2.79,2.79,0,0,0-1-2.42,5.24,5.24,0,0,0-3-.74h-4.56v6.43Z" fill="#757575"/><path d="M383.93,211.07H393a.7.7,0,0,1,.52.22.69.69,0,0,1,.21.51v1a.69.69,0,0,1-.21.51.7.7,0,0,1-.52.22H382.09a.73.73,0,0,1-.72-.73V195.33a.73.73,0,0,1,.72-.73h10.7a.67.67,0,0,1,.51.22.7.7,0,0,1,.22.51v1a.7.7,0,0,1-.22.51.67.67,0,0,1-.51.22h-8.86v5.7h8.26a.72.72,0,0,1,.73.73v1a.69.69,0,0,1-.21.51.74.74,0,0,1-.52.22h-8.26Z" fill="#757575"/><path d="M412.55,199.63a.61.61,0,0,1-.43.18H411a.79.79,0,0,1-.48-.12,1.52,1.52,0,0,1-.36-.47,5,5,0,0,0-1.49-1.65,4.54,4.54,0,0,0-2.82-.81,4.87,4.87,0,0,0-2.74.73,2.33,2.33,0,0,0-1.13,2.08,2.09,2.09,0,0,0,.56,1.5,4.36,4.36,0,0,0,1.67,1q1.13.42,3.39,1a10.58,10.58,0,0,1,4.36,2,4.1,4.1,0,0,1,1.28,3.2,4.75,4.75,0,0,1-.9,2.86,6,6,0,0,1-2.55,1.95,9.63,9.63,0,0,1-3.81.7,8.5,8.5,0,0,1-3.64-.76,6.89,6.89,0,0,1-2.6-1.93,4.06,4.06,0,0,1-1-2.33.56.56,0,0,1,.18-.42.58.58,0,0,1,.42-.18h1.11a.88.88,0,0,1,.48.12,1.12,1.12,0,0,1,.35.48,4.51,4.51,0,0,0,1.58,1.78,5.34,5.34,0,0,0,3.12.81,6.19,6.19,0,0,0,3.34-.85,2.57,2.57,0,0,0,1.36-2.23,1.9,1.9,0,0,0-.72-1.5,6,6,0,0,0-2-1c-.83-.28-2-.63-3.65-1a7.54,7.54,0,0,1-3.78-2,4.57,4.57,0,0,1-1.16-3.17,4.87,4.87,0,0,1,.73-2.6,5.1,5.1,0,0,1,2.19-1.91,7.71,7.71,0,0,1,3.51-.73,7.63,7.63,0,0,1,3.59.8,6.65,6.65,0,0,1,2.37,2,4.11,4.11,0,0,1,.89,2.14A.44.44,0,0,1,412.55,199.63Z" fill="#757575"/><path d="M431.94,199.63a.62.62,0,0,1-.44.18h-1.1a.82.82,0,0,1-.49-.12,1.53,1.53,0,0,1-.35-.47,5.13,5.13,0,0,0-1.5-1.65,4.54,4.54,0,0,0-2.82-.81,4.89,4.89,0,0,0-2.74.73,2.33,2.33,0,0,0-1.12,2.08,2.09,2.09,0,0,0,.55,1.5,4.41,4.41,0,0,0,1.68,1q1.11.42,3.39,1a10.64,10.64,0,0,1,4.36,2,4.14,4.14,0,0,1,1.28,3.2,4.69,4.69,0,0,1-.91,2.86,5.93,5.93,0,0,1-2.55,1.95,9.58,9.58,0,0,1-3.8.7,8.55,8.55,0,0,1-3.65-.76,6.86,6.86,0,0,1-2.59-1.93,4.06,4.06,0,0,1-1-2.33.56.56,0,0,1,.18-.42.54.54,0,0,1,.41-.18h1.11a.91.91,0,0,1,.49.12,1.21,1.21,0,0,1,.35.48,4.43,4.43,0,0,0,1.58,1.78,5.3,5.3,0,0,0,3.12.81,6.15,6.15,0,0,0,3.33-.85,2.55,2.55,0,0,0,1.36-2.23,1.92,1.92,0,0,0-.71-1.5,6.08,6.08,0,0,0-2-1c-.83-.28-2-.63-3.64-1a7.54,7.54,0,0,1-3.78-2,4.53,4.53,0,0,1-1.16-3.17,5,5,0,0,1,.72-2.6,5.22,5.22,0,0,1,2.19-1.91,7.71,7.71,0,0,1,3.51-.73,7.57,7.57,0,0,1,3.59.8,6.6,6.6,0,0,1,2.38,2,4.2,4.2,0,0,1,.89,2.14A.46.46,0,0,1,431.94,199.63Z" fill="#757575"/><g clip-path="url(#a)"><path d="M149.47,443.87v2.21c0,3.06-.05,6.14-.13,9.2q-.08,3.5-.21,7c-.09,2.5-.21,5-.35,7.51,0,.85-.09,1.7-.14,2.55-.06,1.1-.13,2.2-.2,3.3q-.34,5.12-.79,10.25a13.21,13.21,0,0,1-11.41,11.4q-14.63,1.29-29.26,1.66H82.48q-14.62-.36-29.26-1.66a13.2,13.2,0,0,1-11.4-11.4q-.49-5.52-.85-11.05-.59-9.12-.82-18.25c0-.47,0-.95,0-1.42q-.12-5.51-.12-11,0-8.32.3-16.65c0-.28,0-.56,0-.84q.44-11.91,1.49-23.82a13.21,13.21,0,0,1,11.4-11.41q15.25-1.33,30.52-1.7,14.16-.33,28.33.2,12.09.44,24.17,1.5a13.22,13.22,0,0,1,11.41,11.41q1,11.5,1.46,23,.25,6.45.33,12.88C149.46,440.45,149.47,442.16,149.47,443.87Z" fill="url(#b)"/><path d="M99.46,419.5h0a3.71,3.71,0,0,1,.47,0l14.63,2.08a3.35,3.35,0,0,1,2.85,2.84l2.07,14.64a3.34,3.34,0,0,1-.94,2.83L92.37,468.09a3.36,3.36,0,0,1-4.74,0l-16.7-16.71a3.34,3.34,0,0,1,0-4.73l26.16-26.17a3.41,3.41,0,0,1,2.37-1m0-4.5a7.89,7.89,0,0,0-5.55,2.3L67.75,443.47a7.83,7.83,0,0,0,0,11.09l16.7,16.71a7.85,7.85,0,0,0,11.1,0l26.17-26.17a7.87,7.87,0,0,0,2.22-6.65l-2.08-14.63a7.85,7.85,0,0,0-6.66-6.67l-14.64-2.07a8.14,8.14,0,0,0-1.1-.08Z" fill="#fff"/><path d="M95.62,446.13l-2.74-2.74a2.48,2.48,0,1,1,3.51-3.51l4.83,4.83a1.76,1.76,0,1,0,2.49-2.49L101.5,440l1.62-1.62a1.77,1.77,0,0,0,0-2.49,1.76,1.76,0,0,0-2.49,0L99,437.52l-.13-.13a6,6,0,1,0-8.49,8.49l2.74,2.74a2.48,2.48,0,0,1-3.5,3.51l-4.92-4.92a1.77,1.77,0,0,0-2.49,0,1.76,1.76,0,0,0,0,2.49l2.3,2.3-1.65,1.65a1.76,1.76,0,0,0,2.49,2.5L87,454.5l.15.14,0,0a6,6,0,0,0,8.43-8.54Z" fill="#fff"/><path d="M112.17,431.17a3.06,3.06,0,1,0-4.32,0A3.05,3.05,0,0,0,112.17,431.17Z" fill="#fff"/><path d="M151.86,438.72c-.05-4.25-.16-8.61-.33-12.94-.3-7.68-.8-15.46-1.47-23.13A15.63,15.63,0,0,0,136.46,389c-8.07-.71-16.24-1.22-24.3-1.51-5.8-.22-11.68-.33-17.47-.33-3.65,0-7.36.05-11,.13-10.22.24-20.54.81-30.68,1.71a15.63,15.63,0,0,0-13.6,13.6c-.7,8-1.21,16-1.5,23.94l0,.84c-.2,5.53-.31,11.16-.31,16.75,0,3.66,0,7.38.12,11,0,.24,0,.48,0,.72s0,.47,0,.7c.16,6.13.43,12.3.83,18.36.23,3.58.51,7.31.85,11.1A15.63,15.63,0,0,0,53,499.69c9.81.86,19.7,1.43,29.42,1.68H107c9.72-.25,19.62-.82,29.41-1.68a15.63,15.63,0,0,0,13.61-13.59c.31-3.53.57-7,.8-10.31.07-1.23.14-2.31.2-3.32s.1-1.79.14-2.57c.14-2.42.25-5,.35-7.54.08-2.21.16-4.5.22-7,.07-3.07.11-6.18.12-9.26v-2.21C151.89,442.33,151.88,440.64,151.86,438.72Zm-2.39,7.36c0,3.06-.05,6.14-.13,9.2q-.08,3.5-.21,7c-.09,2.5-.21,5-.35,7.51,0,.85-.09,1.7-.14,2.55-.06,1.1-.13,2.2-.2,3.3q-.34,5.12-.79,10.25a13.21,13.21,0,0,1-11.41,11.4q-14.63,1.29-29.26,1.66H82.48q-14.62-.36-29.26-1.66a13.2,13.2,0,0,1-11.4-11.4c-.33-3.68-.61-7.37-.85-11.05q-.59-9.12-.82-18.25c0-.47,0-.95,0-1.42q-.12-5.51-.12-11,0-8.32.3-16.65c0-.28,0-.56,0-.84q.44-11.91,1.49-23.82a13.21,13.21,0,0,1,11.4-11.41q15.25-1.33,30.52-1.7,5.48-.12,11-.12h0q8.7,0,17.38.32,12.09.44,24.17,1.5a13.22,13.22,0,0,1,11.41,11.41q1,11.5,1.46,23,.25,6.45.33,12.88c0,1.7,0,3.41,0,5.12Z" fill="#17937c"/><path d="M94.69,392.05c5.73,0,11.55.1,17.3.32,8,.29,16.06.79,24,1.49a10.72,10.72,0,0,1,9.21,9.21c.67,7.6,1.16,15.3,1.46,22.9.17,4.29.28,8.6.33,12.8,0,1.91,0,3.58,0,5.1v2.2c0,3-.05,6.12-.13,9.16-.06,2.49-.13,4.76-.21,6.95-.1,2.55-.21,5.06-.34,7.49,0,.75-.09,1.58-.15,2.52s-.12,2.07-.2,3.28c-.21,3.28-.48,6.71-.79,10.19a10.72,10.72,0,0,1-9.2,9.21c-9.69.85-19.47,1.41-29.08,1.65H82.51c-9.61-.24-19.39-.8-29.07-1.65a10.74,10.74,0,0,1-9.21-9.2c-.33-3.75-.61-7.45-.84-11-.39-6-.67-12.11-.82-18.15,0-.24,0-.48,0-.72s0-.47,0-.71c-.09-3.63-.13-7.31-.13-10.93,0-5.53.11-11.1.3-16.57,0-.26,0-.53,0-.8h0v0c.29-7.82.79-15.79,1.48-23.69a10.74,10.74,0,0,1,9.2-9.22c10-.88,20.26-1.45,30.37-1.69,3.61-.08,7.27-.12,10.89-.12h0m0-2.42q-5.47,0-11,.12-15.26.36-30.52,1.7a13.21,13.21,0,0,0-11.4,11.41q-1.05,11.91-1.49,23.82c0,.28,0,.56,0,.84q-.3,8.33-.3,16.65,0,5.49.12,11c0,.47,0,.95,0,1.42q.23,9.14.82,18.25c.24,3.68.52,7.37.85,11.05a13.2,13.2,0,0,0,11.4,11.4q14.64,1.29,29.26,1.66H107q14.63-.36,29.26-1.66a13.21,13.21,0,0,0,11.41-11.4q.45-5.13.79-10.25c.07-1.1.14-2.2.2-3.3.05-.85.1-1.7.14-2.55.14-2.5.26-5,.35-7.51q.13-3.5.21-7c.08-3.06.12-6.14.13-9.2v-2.21c0-1.71,0-3.42,0-5.12q-.08-6.44-.33-12.88-.45-11.5-1.46-23a13.22,13.22,0,0,0-11.41-11.41q-12.09-1.06-24.16-1.5-8.7-.33-17.39-.32Z" fill="#fff"/><path d="M600,443.87v2.21c0,3.06-.06,6.14-.13,9.2q-.07,3.5-.21,7c-.1,2.5-.21,5-.35,7.51,0,.85-.09,1.7-.14,2.55-.06,1.1-.13,2.2-.2,3.3q-.35,5.12-.8,10.25a13.19,13.19,0,0,1-11.4,11.4q-14.64,1.29-29.26,1.66H533q-14.62-.36-29.26-1.66a13.22,13.22,0,0,1-11.41-11.4q-.48-5.52-.84-11.05-.58-9.12-.82-18.25c0-.47,0-.95,0-1.42q-.12-5.51-.12-11,0-8.32.3-16.65c0-.28,0-.56,0-.84q.44-11.91,1.48-23.82a13.23,13.23,0,0,1,11.41-11.41q15.25-1.33,30.52-1.7,14.16-.33,28.33.2,12.09.44,24.17,1.5a13.2,13.2,0,0,1,11.4,11.41q1,11.5,1.47,23,.26,6.45.33,12.88C600,440.45,600,442.16,600,443.87Z" fill="url(#c)"/><path d="M602.4,438.72c0-4.25-.16-8.61-.33-12.94-.3-7.68-.8-15.46-1.48-23.13A15.61,15.61,0,0,0,587,389c-8.07-.71-16.24-1.22-24.3-1.51-5.8-.22-11.68-.33-17.47-.33-3.66,0-7.36.05-11,.13-10.21.24-20.53.81-30.67,1.71a15.65,15.65,0,0,0-13.61,13.6c-.69,8-1.2,16-1.49,23.94,0,.28,0,.56,0,.84-.2,5.53-.3,11.16-.3,16.75,0,3.66,0,7.38.12,11,0,.24,0,.48,0,.72s0,.47,0,.7c.16,6.13.43,12.3.83,18.36.23,3.58.51,7.31.84,11.1a15.65,15.65,0,0,0,13.6,13.6c9.8.86,19.7,1.43,29.42,1.68h24.62c9.72-.25,19.61-.82,29.41-1.68a15.61,15.61,0,0,0,13.6-13.59c.32-3.53.58-7,.8-10.31.08-1.23.15-2.31.21-3.32s.1-1.79.14-2.57c.13-2.42.25-5,.35-7.54.08-2.21.15-4.5.21-7,.08-3.07.12-6.18.13-9.26v-2.21C602.43,442.33,602.42,440.64,602.4,438.72ZM600,446.08c0,3.06-.06,6.14-.13,9.2q-.07,3.5-.21,7c-.1,2.5-.21,5-.35,7.51,0,.85-.09,1.7-.14,2.55-.06,1.1-.13,2.2-.2,3.3q-.35,5.12-.8,10.25a13.19,13.19,0,0,1-11.4,11.4q-14.64,1.29-29.26,1.66H533q-14.62-.36-29.26-1.66a13.22,13.22,0,0,1-11.41-11.4c-.32-3.68-.6-7.37-.84-11.05q-.58-9.12-.82-18.25c0-.47,0-.95,0-1.42q-.12-5.51-.12-11,0-8.32.3-16.65c0-.28,0-.56,0-.84q.44-11.91,1.48-23.82a13.23,13.23,0,0,1,11.41-11.41q15.25-1.33,30.52-1.7,5.47-.12,11-.12h0q8.7,0,17.38.32,12.09.44,24.17,1.5a13.2,13.2,0,0,1,11.4,11.41q1,11.5,1.47,23,.26,6.45.33,12.88c0,1.7,0,3.41,0,5.12Z" fill="#e23f0a"/><path d="M545.23,392.05c5.73,0,11.55.1,17.3.32,8,.29,16.06.79,24,1.49a10.74,10.74,0,0,1,9.21,9.21c.67,7.6,1.16,15.3,1.46,22.9.17,4.29.28,8.6.32,12.8,0,1.91,0,3.58,0,5.1v2.2c0,3-.06,6.12-.13,9.16-.06,2.49-.13,4.76-.21,6.95-.1,2.55-.21,5.06-.35,7.49,0,.75-.08,1.58-.14,2.52s-.12,2.07-.2,3.28c-.22,3.28-.48,6.71-.79,10.19a10.74,10.74,0,0,1-9.2,9.21c-9.69.85-19.47,1.41-29.08,1.65H533.05c-9.61-.24-19.39-.8-29.07-1.65a10.74,10.74,0,0,1-9.21-9.2c-.33-3.75-.61-7.45-.84-11-.39-6-.67-12.11-.82-18.15,0-.24,0-.48,0-.72s0-.47,0-.71c-.08-3.63-.12-7.31-.12-10.93,0-5.53.11-11.1.3-16.57,0-.26,0-.53,0-.8h0v0c.29-7.82.78-15.79,1.48-23.69a10.74,10.74,0,0,1,9.2-9.22c10-.88,20.26-1.45,30.37-1.69,3.61-.08,7.27-.12,10.89-.12h0m0-2.42q-5.47,0-11,.12-15.25.36-30.52,1.7a13.21,13.21,0,0,0-11.4,11.41q-1,11.91-1.49,23.82c0,.28,0,.56,0,.84q-.3,8.33-.3,16.65,0,5.49.12,11c0,.47,0,.95,0,1.42q.22,9.14.82,18.25c.24,3.68.52,7.37.85,11.05a13.2,13.2,0,0,0,11.4,11.4q14.63,1.29,29.26,1.66h24.5q14.63-.36,29.26-1.66a13.19,13.19,0,0,0,11.4-11.4c.31-3.42.57-6.84.8-10.25.07-1.1.14-2.2.2-3.3.05-.85.1-1.7.14-2.55.14-2.5.25-5,.35-7.51q.14-3.5.21-7c.08-3.06.12-6.14.13-9.2v-2.21c0-1.71,0-3.42,0-5.12q-.08-6.44-.33-12.88-.45-11.5-1.47-23a13.2,13.2,0,0,0-11.4-11.41q-12.09-1.06-24.17-1.5-8.68-.33-17.38-.32Z" fill="#fff"/><path d="M536.22,434.89c0-.22-.17-.35-.5-.41l-4.41-.64-2-4c-.11-.24-.25-.36-.43-.36s-.31.12-.43.36l-2,4-4.42.64c-.32.06-.49.19-.49.41a.71.71,0,0,0,.22.42l3.2,3.11-.75,4.4a.66.66,0,0,0,0,.17.5.5,0,0,0,.09.31.31.31,0,0,0,.28.13.75.75,0,0,0,.35-.1l3.94-2.08,4,2.08a.69.69,0,0,0,.35.1.3.3,0,0,0,.27-.13.5.5,0,0,0,.09-.31.81.81,0,0,0,0-.17l-.75-4.4,3.19-3.11A.64.64,0,0,0,536.22,434.89Z" fill="#fff"/><path d="M576,433.52a25.44,25.44,0,0,0-15.5-4.95,27.28,27.28,0,0,0-10,1.85,18.85,18.85,0,0,0-7.33-7.37A26.33,26.33,0,0,0,530,419.67a25.51,25.51,0,0,0-15.5,4.95c-4.28,3.28-6.64,7.69-6.64,12.4a15.31,15.31,0,0,0,5.49,11.45l.06,10.36a1.42,1.42,0,0,0,.71,1.26,1.61,1.61,0,0,0,1.56,0l7-3.93a14.76,14.76,0,0,1,7.24-1.83h0a27.44,27.44,0,0,0,10-1.85,17.8,17.8,0,0,0,5,5.8,25.51,25.51,0,0,0,15.51,4.95h0a16.29,16.29,0,0,1,7.58,1.87l6.75,3.56a1.38,1.38,0,0,0,1.2.11,1.72,1.72,0,0,0,1-1.62l0-3.87a15.81,15.81,0,0,1,2.78-9,14.46,14.46,0,0,0,2.74-8.38C582.66,441.21,580.3,436.8,576,433.52Zm-31.48.18c-4.15,3.18-6.44,7.45-6.44,12a13.51,13.51,0,0,0,.5,3.65A23.38,23.38,0,0,1,530,451h0a24.13,24.13,0,0,1-3.6-.26,1.48,1.48,0,0,0-1.14.31l-8.41,4.69-.05-8.16v-.17a1.54,1.54,0,0,0-.56-1,12.13,12.13,0,0,1-4.75-9.25c0-7.65,8.3-13.87,18.51-13.87,7.57,0,14.4,3.53,17.19,8.73A21.61,21.61,0,0,0,544.54,433.7Zm21.12,17.07h-14a1.56,1.56,0,0,1-1.55-1.21,1.52,1.52,0,0,1,1.49-1.85H565.6a1.57,1.57,0,0,1,1.55,1.21A1.53,1.53,0,0,1,565.66,450.77Zm3.82-6.91H551.61a1.55,1.55,0,0,1-1.55-1.21,1.53,1.53,0,0,1,1.49-1.85h17.87A1.56,1.56,0,0,1,571,442,1.52,1.52,0,0,1,569.48,443.86Z" fill="#fff"/><polygon points="135.42 505.88 107.4 388.44 134.1 389.46 163.96 364.15 135.42 505.88" fill="url(#d)" style="mix-blend-mode:multiply"/><path d="M177.7,499.92c-11.59-.29-23.34-1-35-2a17.12,17.12,0,0,1-14.89-14.89c-.39-4.5-.73-8.93-1-13.19-.46-7.2-.79-14.53-1-21.8l0-1.7c-.1-4.35-.15-8.77-.15-13.11,0-6.64.13-13.33.36-19.88v-.05c0-.32,0-.65,0-1,.34-9.37.94-18.94,1.77-28.43A17.13,17.13,0,0,1,142.72,369c12.05-1.06,24.31-1.74,36.45-2,4.33-.11,8.73-.16,13.07-.16,6.88,0,13.86.13,20.76.39,9.56.35,19.27.95,28.85,1.79a17.11,17.11,0,0,1,14.89,14.89c.81,9.13,1.39,18.37,1.75,27.49.21,5.14.34,10.31.39,15.37,0,2.33.05,4.27.05,6.12,0,.88,0,1.76,0,2.63,0,3.65-.06,7.35-.15,11-.07,3-.15,5.71-.25,8.34-.12,3.05-.26,6.07-.42,9-.05,1-.1,2-.17,3-.07,1.31-.15,2.63-.24,3.94-.26,3.93-.58,8.05-.95,12.23a17.1,17.1,0,0,1-14.88,14.9c-11.64,1-23.4,1.69-35,2H177.7Z" fill="url(#e)"/><path d="M183.9,422.11a7.86,7.86,0,0,1,0-15.71h37a7.86,7.86,0,0,1,0,15.71Zm0-11a3.17,3.17,0,0,0,0,6.33h37a3.17,3.17,0,1,0,0-6.33Z" fill="#fff"/><path d="M183.9,445.25a7.86,7.86,0,0,1,0-15.71h24.85a7.86,7.86,0,0,1,0,15.71Zm0-11a3.17,3.17,0,0,0,0,6.34h24.85a3.17,3.17,0,0,0,0-6.34Z" fill="#fff"/><path d="M183.9,468.4a7.86,7.86,0,0,1,0-15.71h12.72a7.86,7.86,0,1,1,0,15.71Zm0-11a3.17,3.17,0,0,0,0,6.34h12.72a3.17,3.17,0,0,0,0-6.34Z" fill="#fff"/><path d="M161.92,421.56a7.31,7.31,0,1,1,7.3-7.31A7.31,7.31,0,0,1,161.92,421.56Z" fill="#fff"/><path d="M161.92,444.7a7.3,7.3,0,1,1,7.3-7.3A7.31,7.31,0,0,1,161.92,444.7Z" fill="#fff"/><path d="M161.92,467.84a7.3,7.3,0,1,1,7.3-7.3A7.3,7.3,0,0,1,161.92,467.84Z" fill="#fff"/><path d="M260.33,426.75c-.06-5.06-.19-10.24-.39-15.41-.36-9.14-1-18.41-1.76-27.55A18.61,18.61,0,0,0,242,367.59c-9.61-.85-19.35-1.46-28.94-1.81-6.91-.25-13.91-.38-20.81-.38-4.35,0-8.76.05-13.11.15-12.16.29-24.45,1-36.53,2a18.61,18.61,0,0,0-16.2,16.19c-.84,9.52-1.44,19.11-1.78,28.52,0,.33,0,.67,0,1-.24,6.59-.37,13.29-.37,19.95,0,4.36.05,8.78.15,13.15,0,.28,0,.56,0,.85s0,.56,0,.84c.19,7.3.52,14.65,1,21.86.27,4.27.61,8.71,1,13.22a18.6,18.6,0,0,0,16.19,16.2c11.68,1,23.46,1.7,35,2H207c11.58-.3,23.36-1,35-2a18.6,18.6,0,0,0,16.2-16.19c.37-4.2.69-8.32.95-12.28.1-1.46.17-2.75.25-3.95s.12-2.13.16-3.06c.16-2.88.3-5.91.42-9,.1-2.63.19-5.36.26-8.36.08-3.66.13-7.36.14-11,0-.87,0-1.75,0-2.63C260.37,431.05,260.36,429,260.33,426.75Zm-2.85,8.77c0,3.65-.06,7.31-.15,11-.06,2.77-.15,5.55-.25,8.32-.12,3-.25,6-.42,8.95-.05,1-.1,2-.16,3-.08,1.31-.16,2.62-.25,3.93q-.41,6.1-.94,12.21a15.74,15.74,0,0,1-13.58,13.58q-17.43,1.53-34.85,2H177.7q-17.43-.44-34.85-2a15.74,15.74,0,0,1-13.58-13.58q-.59-6.59-1-13.15-.7-10.87-1-21.74c0-.57,0-1.14,0-1.7q-.15-6.54-.15-13.08,0-9.92.37-19.83c0-.33,0-.67,0-1q.52-14.19,1.77-28.38a15.74,15.74,0,0,1,13.58-13.58q18.18-1.6,36.35-2,6.53-.17,13-.16h0q10.37,0,20.7.39,14.4.52,28.79,1.79A15.74,15.74,0,0,1,255.31,384q1.2,13.71,1.74,27.42c.2,5.11.34,10.22.39,15.33,0,2,0,4.07,0,6.1Z" fill="#2694e4"/><path d="M192.24,371.17c6.83,0,13.75.13,20.6.38,9.5.35,19.13.95,28.62,1.78a12.79,12.79,0,0,1,11,11c.79,9,1.38,18.22,1.73,27.27.2,5.11.33,10.24.39,15.25,0,2.27,0,4.26,0,6.07v2.62c0,3.62-.07,7.29-.15,10.9-.07,3-.15,5.68-.26,8.28-.11,3-.25,6-.41,8.92,0,.9-.09,1.88-.16,3s-.15,2.46-.25,3.9c-.25,3.91-.57,8-.93,12.13a12.79,12.79,0,0,1-11,11c-11.53,1-23.19,1.68-34.63,2h-29.1c-11.45-.29-23.1-1-34.62-2a12.79,12.79,0,0,1-11-11c-.39-4.47-.73-8.87-1-13.09-.46-7.14-.79-14.42-1-21.62l0-.85c0-.28,0-.56,0-.85-.09-4.32-.14-8.7-.14-13,0-6.58.12-13.22.36-19.73,0-.32,0-.64,0-1v0h0c.34-9.32.94-18.81,1.76-28.22a12.79,12.79,0,0,1,11-11c12-1.05,24.13-1.73,36.17-2,4.3-.1,8.66-.15,13-.15h0m0-2.89q-6.53,0-13,.16-18.18.42-36.35,2A15.74,15.74,0,0,0,129.27,384q-1.25,14.19-1.77,28.38c0,.33,0,.67,0,1q-.36,9.91-.37,19.83,0,6.54.15,13.08c0,.56,0,1.13,0,1.7q.28,10.86,1,21.74.44,6.57,1,13.15a15.74,15.74,0,0,0,13.58,13.58q17.43,1.53,34.85,2h29.18q17.42-.44,34.85-2a15.74,15.74,0,0,0,13.58-13.58q.54-6.1.94-12.21c.09-1.31.17-2.62.25-3.93.06-1,.12-2,.16-3,.17-3,.31-6,.42-8.95.1-2.77.19-5.55.25-8.32.09-3.65.14-7.31.15-11v-2.63c0-2,0-4.07,0-6.1-.05-5.11-.19-10.22-.39-15.33q-.54-13.71-1.74-27.42a15.74,15.74,0,0,0-13.58-13.58q-14.4-1.26-28.78-1.79-10.37-.39-20.71-.39Z" fill="#fff"/><polygon points="502.09 506.08 528.05 388.64 502.17 389.66 472.31 364.36 502.09 506.08" fill="url(#f)" style="mix-blend-mode:multiply"/><path d="M508.79,432.89c0,.88,0,1.75,0,2.63,0,3.65-.06,7.31-.15,11q-.09,4.17-.25,8.32c-.11,3-.25,6-.41,8.95-.05,1-.11,2-.17,3l-.24,3.93q-.4,6.1-.95,12.21A15.73,15.73,0,0,1,493,496.5q-17.43,1.53-34.85,2H429q-17.42-.44-34.85-2a15.75,15.75,0,0,1-13.58-13.58q-.57-6.59-1-13.15-.7-10.87-1-21.74c0-.57,0-1.14,0-1.7q-.14-6.54-.14-13.08,0-9.92.36-19.83c0-.33,0-.67,0-1q.52-14.19,1.77-28.38a15.75,15.75,0,0,1,13.58-13.58q18.18-1.6,36.35-2,16.88-.4,33.75.23,14.38.52,28.78,1.79A15.73,15.73,0,0,1,506.61,384q1.22,13.71,1.74,27.42.31,7.67.4,15.33C508.77,428.82,508.79,430.86,508.79,432.89Z" fill="url(#g)"/><path d="M433.44,474.58a10.09,10.09,0,0,1,0-20.18h7.4v-9.35l-.68-.12a19.82,19.82,0,0,1-16.37-18.24l0-.43-.38-.23c-5-2.95-8.6-6.24-10.82-9.78-2.85-4.54-2.71-8.37-2.1-10.79a10.24,10.24,0,0,1,9.72-7.94H467a10.23,10.23,0,0,1,9.72,8c.61,2.41.75,6.24-2.1,10.78-2.21,3.53-5.84,6.82-10.78,9.76l-.38.23,0,.43A19.77,19.77,0,0,1,447,444.93l-.68.12v9.35h7.39a10.09,10.09,0,0,1,0,20.18Zm0-14.68a4.59,4.59,0,0,0,0,9.17h20.3a4.59,4.59,0,1,0,0-9.17Zm-4.18-34.53a14.37,14.37,0,0,0,14.35,14.35c.33,0,.66,0,1,0A14.64,14.64,0,0,0,458,424.89V403H429.23ZM420.19,403a4.79,4.79,0,0,0-4.38,3.8c-.44,1.72-.67,6.32,6.6,11.92l1.33,1,0-16.74Zm43.28,16.72,1.32-1c7.26-5.59,7-10.19,6.58-11.9A4.77,4.77,0,0,0,467,403h-3.52Z" fill="#fff"/><path d="M511.63,426.75c-.06-5.06-.19-10.24-.39-15.41-.36-9.14-.95-18.41-1.76-27.55a18.61,18.61,0,0,0-16.19-16.2c-9.61-.85-19.34-1.46-28.93-1.81-6.92-.25-13.92-.38-20.81-.38-4.36,0-8.77.05-13.11.15-12.17.29-24.46,1-36.54,2a18.62,18.62,0,0,0-16.2,16.19c-.83,9.52-1.43,19.11-1.78,28.52,0,.33,0,.67,0,1-.24,6.59-.36,13.29-.37,19.95,0,4.36.05,8.78.15,13.15,0,.28,0,.56,0,.85s0,.56,0,.84c.19,7.3.52,14.65,1,21.86.28,4.27.61,8.71,1,13.22a18.61,18.61,0,0,0,16.19,16.2c11.68,1,23.47,1.7,35,2h29.32c11.58-.3,23.36-1,35-2a18.6,18.6,0,0,0,16.2-16.19c.37-4.2.69-8.32.95-12.28.1-1.46.18-2.75.25-3.95s.12-2.13.17-3.06c.16-2.88.3-5.91.41-9,.1-2.63.19-5.36.26-8.36.09-3.66.13-7.36.15-11v-2.63C511.67,431.05,511.66,429,511.63,426.75Zm-2.85,8.77c0,3.65-.06,7.31-.15,11-.06,2.77-.14,5.55-.25,8.32-.11,3-.25,6-.41,8.95-.05,1-.11,2-.17,3l-.24,3.93q-.4,6.1-.95,12.21A15.73,15.73,0,0,1,493,496.5q-17.43,1.53-34.85,2H429q-17.42-.44-34.85-2a15.75,15.75,0,0,1-13.58-13.58q-.57-6.59-1-13.15-.7-10.87-1-21.74c0-.57,0-1.14,0-1.7q-.14-6.54-.14-13.08,0-9.92.36-19.83c0-.33,0-.67,0-1q.52-14.19,1.77-28.38a15.75,15.75,0,0,1,13.58-13.58q18.18-1.6,36.35-2,6.53-.17,13-.16h0q10.35,0,20.7.39,14.38.52,28.78,1.79A15.73,15.73,0,0,1,506.61,384q1.22,13.71,1.74,27.42.31,7.67.4,15.33c0,2,0,4.07,0,6.1C508.79,433.77,508.79,434.64,508.78,435.52Z" fill="#dd2961"/><path d="M443.55,371.17c6.82,0,13.75.13,20.59.38,9.5.35,19.13.95,28.62,1.78a12.78,12.78,0,0,1,11,11c.79,9,1.38,18.22,1.73,27.27.2,5.11.34,10.24.39,15.25,0,2.27,0,4.26,0,6.07v2.62c0,3.62-.06,7.29-.15,10.9-.07,3-.15,5.68-.25,8.28-.12,3-.25,6-.41,8.92,0,.9-.1,1.88-.17,3s-.15,2.46-.24,3.9c-.26,3.91-.58,8-.94,12.13a12.78,12.78,0,0,1-11,11c-11.54,1-23.19,1.68-34.64,2H429c-11.44-.29-23.1-1-34.62-2a12.8,12.8,0,0,1-11-11c-.39-4.47-.72-8.87-1-13.09-.46-7.14-.79-14.42-1-21.62,0-.28,0-.57,0-.85s0-.56,0-.85c-.1-4.32-.15-8.7-.15-13,0-6.58.13-13.22.36-19.73,0-.32,0-.64,0-1v0h0c.35-9.32.94-18.81,1.76-28.22a12.8,12.8,0,0,1,11-11c11.95-1.05,24.12-1.73,36.16-2,4.3-.1,8.67-.15,13-.15h0m0-2.89q-6.51,0-13,.16-18.17.42-36.35,2A15.75,15.75,0,0,0,380.57,384q-1.24,14.19-1.77,28.38c0,.33,0,.67,0,1q-.36,9.91-.36,19.83,0,6.54.14,13.08c0,.56,0,1.13,0,1.7q.27,10.86,1,21.74.42,6.57,1,13.15a15.75,15.75,0,0,0,13.58,13.58q17.43,1.53,34.85,2h29.18q17.43-.44,34.85-2a15.73,15.73,0,0,0,13.58-13.58q.54-6.1.95-12.21l.24-3.93c.06-1,.12-2,.17-3,.16-3,.3-6,.41-8.95.11-2.77.19-5.55.26-8.32.08-3.65.13-7.31.14-11,0-.88,0-1.75,0-2.63,0-2,0-4.07,0-6.1q-.09-7.67-.4-15.33-.53-13.71-1.74-27.42A15.73,15.73,0,0,0,493,370.46q-14.4-1.26-28.78-1.79-10.37-.39-20.71-.39Z" fill="#fff"/><polygon points="406.62 505.88 431.75 365.55 404.22 366.77 374.36 336.54 406.62 505.88" fill="url(#h)" style="mix-blend-mode:multiply"/><polygon points="229.76 505.88 202.57 365.55 232.16 366.77 262.01 336.54 229.76 505.88" fill="url(#i)" style="mix-blend-mode:multiply"/><path d="M411.82,402.77c0,1.26,0,2.52,0,3.78q0,7.89-.21,15.79-.15,6-.37,12-.24,6.45-.59,12.9c-.07,1.45-.16,2.91-.25,4.36q-.15,2.83-.35,5.65-.57,8.8-1.35,17.58c-.9,9.78-9.78,18.66-19.56,19.56q-25.1,2.2-50.18,2.85h-42q-25.08-.63-50.18-2.85c-9.78-.9-18.65-9.78-19.56-19.56q-.83-9.46-1.44-18.93-1-15.66-1.41-31.31c0-.81-.05-1.63-.06-2.44q-.22-9.42-.22-18.84,0-14.28.52-28.55l.06-1.44q.77-20.43,2.55-40.86c.91-9.78,9.78-18.66,19.56-19.56q26.17-2.31,52.34-2.91,24.3-.57,48.59.33,20.73.75,41.45,2.58c9.78.9,18.66,9.78,19.56,19.56q1.72,19.74,2.5,39.47.45,11,.57,22.08C411.79,396.91,411.82,399.84,411.82,402.77Z" fill="url(#j)"/><path d="M361.08,376.53h-17.9v-6.24a12.59,12.59,0,0,0-12.59-12.59h-25.3a12.59,12.59,0,0,0-12.59,12.59v6.24H274.8a11.86,11.86,0,0,0-11.86,11.86v49a11.86,11.86,0,0,0,11.86,11.86h86.28a11.86,11.86,0,0,0,11.86-11.86v-49A11.86,11.86,0,0,0,361.08,376.53Zm-58.79-6.24a3,3,0,0,1,3-3h25.3a3,3,0,0,1,3,3v6h-31.3Zm61,64.89a4.47,4.47,0,0,1-4.48,4.48H277a4.48,4.48,0,0,1-4.49-4.48V390.61a4.49,4.49,0,0,1,4.49-4.49h81.84a4.48,4.48,0,0,1,4.48,4.49Z" fill="#fff"/><path d="M415.91,393.93c-.08-7.29-.27-14.76-.56-22.19-.52-13.16-1.37-26.51-2.53-39.67-1.08-11.79-11.53-22.25-23.31-23.34-13.84-1.21-27.86-2.09-41.67-2.59-10-.37-20-.56-30-.56-6.27,0-12.62.08-18.87.22-17.52.41-35.22,1.4-52.61,2.93-11.79,1.09-22.24,11.55-23.33,23.32-1.2,13.71-2.06,27.52-2.56,41.06,0,.48,0,1-.06,1.45-.35,9.48-.52,19.14-.53,28.72,0,6.28.07,12.65.21,18.93,0,.41,0,.82,0,1.24s0,.8,0,1.2c.28,10.51.75,21.1,1.43,31.48.39,6.14.88,12.54,1.45,19,1.09,11.79,11.54,22.25,23.31,23.33,16.82,1.48,33.79,2.45,50.46,2.88h42.22c16.67-.43,33.64-1.4,50.44-2.88,11.8-1.08,22.25-11.54,23.33-23.31.53-6,1-12,1.37-17.68.14-2.1.25-4,.35-5.69s.18-3.07.24-4.4c.23-4.15.44-8.52.6-12.94.15-3.78.27-7.72.37-12,.13-5.27.2-10.61.21-15.88,0-1.26,0-2.52,0-3.79C416,400.12,416,397.23,415.91,393.93Zm-4.1,12.62q0,7.89-.21,15.79-.15,6-.37,12-.24,6.45-.59,12.89c-.07,1.46-.16,2.92-.25,4.37q-.15,2.83-.35,5.65-.57,8.8-1.35,17.58c-.9,9.78-9.78,18.66-19.56,19.56q-25.1,2.2-50.18,2.85h-42q-25.08-.63-50.18-2.85c-9.78-.9-18.65-9.78-19.56-19.56q-.83-9.46-1.44-18.93-1-15.66-1.41-31.31c0-.81-.05-1.63-.06-2.44q-.22-9.42-.22-18.84,0-14.28.52-28.55l.06-1.44q.77-20.43,2.55-40.86c.91-9.78,9.78-18.66,19.56-19.56q26.17-2.31,52.34-2.91,9.39-.22,18.78-.22h0q14.92,0,29.81.55,20.73.75,41.45,2.58c9.78.9,18.66,9.78,19.56,19.56q1.72,19.74,2.5,39.47.45,11,.57,22.08c0,2.93.06,5.86.06,8.79C411.82,404,411.82,405.29,411.81,406.55Z" fill="#212121"/><path d="M317.87,313.89c9.83,0,19.81.18,29.66.55,13.68.5,27.55,1.36,41.22,2.56,7.84.73,15.08,8,15.8,15.79,1.14,13,2,26.24,2.5,39.28.29,7.35.47,14.74.56,22,0,3.27.06,6.12.06,8.74,0,1.25,0,2.5,0,3.76,0,5.22-.09,10.5-.21,15.71-.1,4.27-.22,8.17-.37,11.92-.16,4.38-.36,8.69-.59,12.84-.06,1.3-.14,2.71-.24,4.34s-.21,3.54-.35,5.61c-.37,5.64-.82,11.52-1.35,17.47-.72,7.85-8,15.08-15.79,15.8-16.61,1.46-33.39,2.42-49.87,2.84H297c-16.48-.42-33.26-1.38-49.86-2.83-7.84-.73-15.08-8-15.8-15.79-.56-6.43-1-12.77-1.44-18.84-.66-10.28-1.14-20.76-1.4-31.13l0-1.24,0-1.21c-.14-6.22-.21-12.53-.21-18.74,0-9.48.18-19,.52-28.41,0-.46,0-.92,0-1.38v-.05c.5-13.41,1.35-27.08,2.54-40.63.72-7.84,8-15.08,15.79-15.8,17.21-1.52,34.73-2.49,52.07-2.9,6.19-.15,12.48-.22,18.68-.22h0m0-4.15q-9.39,0-18.78.22-26.16.62-52.34,2.91c-9.78.9-18.65,9.78-19.55,19.56q-1.8,20.43-2.56,40.86l-.06,1.44q-.51,14.28-.52,28.55,0,9.42.22,18.84c0,.81,0,1.63.06,2.44q.39,15.66,1.41,31.31.62,9.47,1.45,18.93c.9,9.78,9.77,18.66,19.55,19.56q25.1,2.2,50.18,2.85h42q25.1-.63,50.18-2.85c9.79-.9,18.66-9.78,19.56-19.56q.76-8.78,1.35-17.58.19-2.82.35-5.65c.09-1.45.18-2.91.25-4.37q.35-6.43.59-12.89.22-6,.37-12,.18-7.89.21-15.79c0-1.26,0-2.52,0-3.78,0-2.93,0-5.86-.06-8.79q-.12-11-.57-22.08-.76-19.74-2.5-39.47c-.9-9.78-9.77-18.66-19.56-19.56q-20.73-1.83-41.45-2.58-14.91-.56-29.81-.55Z" fill="#fff"/></g></g></svg>