<svg xmlns="http://www.w3.org/2000/svg" viewBox="0 0 316.88064 237.61938">
    <path d="M314.51971,221.89728c-7.87042-17.84351-33.209-22.07019-48.97882-34.81128-22.83508-18.44861-27.14428-41.4364-41.24377-66.13342-17.37183-30.4289-51.19751-45.10291-83.16882-45.65479-34.14386-.58948-67.7052,10.15057-96.33838,27.16321A139.94527,139.94527,0,0,0,0,144.35211v93.26727H14.93823a44.792,44.792,0,0,1,62.39594-11.58209,20.85192,20.85192,0,0,1,34.33728-10.77392,35.3779,35.3779,0,0,1,4.05957-1.25415c-.04218-.4704-.073-.94416-.073-1.42536a16.01255,16.01255,0,0,1,10.41443-14.93219,7.49558,7.49558,0,0,1-1.15637-3.99518,7.64968,7.64968,0,0,1,6.33313-7.49072v-53.4339h19.92736v65.576a11.337,11.337,0,0,1,21.63141,4.56372,10.961,10.961,0,0,1-1.11908,4.8125,23.22834,23.22834,0,0,1,14.95685,8.3526A31.64926,31.64926,0,0,1,234.479,228.91376a42.29889,42.29889,0,0,1,53.09467,8.70562h29.07605A31.30615,31.30615,0,0,0,314.51971,221.89728ZM37.79657,132.016a6.49906,6.49906,0,0,1,5.772-3.57837,6.37406,6.37406,0,0,1,1.01239.08856A7.96636,7.96636,0,0,1,60.19611,127.111a10.24747,10.24747,0,0,1,17.54071.6153,6.36386,6.36386,0,0,1,3.19531-.86084A6.5538,6.5538,0,0,1,87.2738,132.016Zm141.74109-12.74982c0-.156.863-4.10955,5.33069-2.75708,0,0,.50781-6.24249,6.85388-6.24249a6.10361,6.10361,0,0,1,5.98938,4.24439,4.081,4.081,0,0,1,4.16443.9057,5.03649,5.03649,0,0,1,1.67541,3.84948Z"
          fill="#f0f7fa"/>
    <circle cx="112.55709" cy="3.4176" r="3.4176" fill="#f0f7fa"/>
    <path d="M187.70441,74.8306a2.28655,2.28655,0,1,0,2.2866-2.2865h-.0001A2.28652,2.28652,0,0,0,187.70441,74.8306Z" fill="#91c3da"/>
    <path d="M96.27668,62.8091l1.37042-.7348a.4939.4939,0,0,0,.2015-.2015l.7348-1.3704a.493.493,0,0,1,.8689,0l.7348,1.3704a.49378.49378,0,0,0,.2015.2015l1.3704.7348a.493.493,0,0,1,0,.8689l-1.3704.7348a.49306.49306,0,0,0-.2015.2014l-.7348,1.3705a.493.493,0,0,1-.8689,0l-.7348-1.3705a.49318.49318,0,0,0-.2015-.2014L96.27668,63.678a.493.493,0,0,1,0-.86891Z"
          fill="#f0f7fa"/>
    <path d="M177.02229,16.9615l1.727-.926a.62212.62212,0,0,0,.254-.254l.926-1.727a.62131.62131,0,0,1,1.09509,0l.926,1.727a.62271.62271,0,0,0,.254.254l1.72709.926a.6213.6213,0,0,1,0,1.095l-1.72709.9261a.62182.62182,0,0,0-.254.2539l-.926,1.7271a.62132.62132,0,0,1-1.09509,0l-.926-1.7271a.62128.62128,0,0,0-.254-.2539l-1.727-.9261a.62124.62124,0,0,1,0-1.095Z"
          fill="#c9e2ed"/>
    <path d="M57.2175,51.6472l2.0884-1.1199a.75167.75167,0,0,0,.3072-.3071l1.1198-2.08839a.7513.7513,0,0,1,1.3242,0l1.1197,2.0884a.75244.75244,0,0,0,.3072.3071l2.0884,1.1199a.75123.75123,0,0,1,0,1.3241L63.484,54.0911a.75226.75226,0,0,0-.3072.3071l-1.1197,2.0884a.75131.75131,0,0,1-1.3242,0l-1.1198-2.08841a.75178.75178,0,0,0-.3072-.3071l-2.0884-1.1198a.75122.75122,0,0,1,0-1.32409Z"
          fill="#c9e2ed"/>
    <path d="M219.996,43.6056l1.9122-1.0253a.68815.68815,0,0,0,.28121-.2812l1.02528-1.9121a.68787.68787,0,0,1,1.2124,0l1.0253,1.9121a.68815.68815,0,0,0,.28121.2812l1.9122,1.0253a.68787.68787,0,0,1,0,1.2124l-1.9122,1.0253a.68851.68851,0,0,0-.28121.2811l-1.0253,1.9123a.68788.68788,0,0,1-1.2124,0l-1.02528-1.9123a.68851.68851,0,0,0-.28121-.2811L219.996,44.818a.68787.68787,0,0,1,0-1.2124Z"
          fill="#91c3da"/>
    <path d="M92.3116,31.685l1.3994-.7504a.50348.50348,0,0,0,.2058-.2057l.7503-1.3994a.50342.50342,0,0,1,.8873,0l.75028,1.3994a.50365.50365,0,0,0,.20582.2057l1.3994.7504a.50341.50341,0,0,1,0,.8872l-1.3994.7504a.50365.50365,0,0,0-.20582.2057l-.75028,1.3994a.50349.50349,0,0,1-.8873,0l-.7503-1.3994a.50354.50354,0,0,0-.2058-.2057l-1.3994-.7504a.50339.50339,0,0,1,0-.8872Z"
          fill="#91c3da"/>
    <path d="M133.5994,138.077a7.287,7.287,0,0,1,14.57389,0s.9415,17.2305-7.287,26.40269C132.6582,155.3075,133.5994,138.077,133.5994,138.077Z" fill="#f0f7fa"/>
    <path d="M166.3351,98.6166s27.2884,13.2148,16.4754,52.18641c0,0-5.7735-19.59081-24.28731-24.6632Z" fill="#91c3da"/>
    <path d="M115.1913,98.6166S87.9029,111.8314,98.7159,150.803c0,0,5.7735-19.5908,24.2873-24.6632Z" fill="#91c3da"/>
    <path d="M131.908,134.2673h18.54769a1.56665,1.56665,0,0,0,1.52792-1.2203l1.0183-4.49111a1.56683,1.56683,0,0,0-1.528-1.9132H130.88968a1.56669,1.56669,0,0,0-1.52788,1.9132L130.38,133.047A1.56677,1.56677,0,0,0,131.908,134.2673Z"
          fill="#0073aa"/>
    <path d="M160.75983,30.55859H119.712c-5.877,17.45581-7.30182,37.71589-6.10871,55.461,2.07007,30.7959,12.16309,44.77057,12.16309,44.77057a40.29756,40.29756,0,0,1,30.53741,0C165.10229,114.22772,167.949,88.0899,167.949,88.0899,170.11328,63.874,166.22333,44.7785,160.75983,30.55859Zm-17.928,40.42469a10.99511,10.99511,0,1,1,8.18945-13.21808A10.99506,10.99506,0,0,1,142.83179,70.98328Z"
          fill="#c9e2ed"/>
    <path d="M144.06219,2.2373A93.75357,93.75357,0,0,1,160.7598,30.5586H119.712c3.761-11.1701,9.3416-21.1939,17.24068-28.6668a4.95113,4.95113,0,0,1,6.9984.223Q144.00766,2.17514,144.06219,2.2373Z"
          fill="#0073aa"/>
    <path d="M141.4931,86.8265s12.5905,28.6092,0,62.6249C141.4931,149.4514,127.5018,121.0674,141.4931,86.8265Z" fill="#91c3da"/>
    <path d="M140.3175,44.44183a15.83765,15.83765,0,1,0,15.83765,15.83765A15.83766,15.83766,0,0,0,140.3175,44.44183Zm2.51429,26.54145a10.99511,10.99511,0,1,1,8.18945-13.21808A10.99506,10.99506,0,0,1,142.83179,70.98328Z"
          fill="#0073aa"/>
</svg>
