<?xml version="1.0" encoding="utf-8"?>
<!-- Generator: Adobe Illustrator 15.0.2, SVG Export Plug-In . SVG Version: 6.00 Build 0)  -->
<!DOCTYPE svg PUBLIC "-//W3C//DTD SVG 1.1//EN" "http://www.w3.org/Graphics/SVG/1.1/DTD/svg11.dtd">
<svg version="1.1" id="Layer_1" xmlns="http://www.w3.org/2000/svg" xmlns:xlink="http://www.w3.org/1999/xlink" x="0px" y="0px"
	 width="300px" height="300px" viewBox="0 0 300 300" enable-background="new 0 0 300 300" xml:space="preserve">
<linearGradient id="SVGID_1_" gradientUnits="userSpaceOnUse" x1="545.178" y1="1816.3652" x2="582.5276" y2="1816.3652" gradientTransform="matrix(1 0 0 1 -385.5996 -1722.0391)">
	<stop  offset="0" style="stop-color:#119BFA"/>
	<stop  offset="0.1652" style="stop-color:#2E8DF9"/>
	<stop  offset="0.3435" style="stop-color:#4682F9"/>
	<stop  offset="0.5336" style="stop-color:#577AF8"/>
	<stop  offset="0.7414" style="stop-color:#6175F8"/>
	<stop  offset="1" style="stop-color:#6474F8"/>
</linearGradient>
<path display="none" fill="url(#SVGID_1_)" d="M159.578,75.649v19.868c8.146,2.889,14.604,9.335,17.48,17.487h19.868
	C193.126,94.238,178.345,79.457,159.578,75.649z"/>
<linearGradient id="SVGID_2_" gradientUnits="userSpaceOnUse" x1="487.7014" y1="1845.1113" x2="582.5198" y2="1845.1113" gradientTransform="matrix(1 0 0 1 -385.5996 -1722.0391)">
	<stop  offset="0" style="stop-color:#119BFA"/>
	<stop  offset="0.1652" style="stop-color:#2E8DF9"/>
	<stop  offset="0.3435" style="stop-color:#4682F9"/>
	<stop  offset="0.5336" style="stop-color:#577AF8"/>
	<stop  offset="0.7414" style="stop-color:#6175F8"/>
	<stop  offset="1" style="stop-color:#6474F8"/>
</linearGradient>
<path display="none" fill="url(#SVGID_2_)" d="M177.056,132.162c-3.938,11.154-14.546,19.158-27.057,19.158
	c-15.873,0-28.738-12.865-28.738-28.737c0-12.506,8.004-23.11,19.158-27.058V75.664c-21.86,4.44-38.317,23.748-38.317,46.92
	c0,26.453,21.443,47.896,47.897,47.896c23.167,0,42.479-16.457,46.92-38.316h-19.862L177.056,132.162L177.056,132.162z"/>
<linearGradient id="SVGID_3_" gradientUnits="userSpaceOnUse" x1="385.5999" y1="1844.624" x2="685.5999" y2="1844.624" gradientTransform="matrix(1 0 0 1 -385.5996 -1722.0391)">
	<stop  offset="0" style="stop-color:#119BFA"/>
	<stop  offset="0.1652" style="stop-color:#2E8DF9"/>
	<stop  offset="0.3435" style="stop-color:#4682F9"/>
	<stop  offset="0.5336" style="stop-color:#577AF8"/>
	<stop  offset="0.7414" style="stop-color:#6175F8"/>
	<stop  offset="1" style="stop-color:#6474F8"/>
</linearGradient>
<path display="none" fill="url(#SVGID_3_)" d="M297.326,119.473c-2.404-2.808-59.915-68.733-147.327-68.733
	c-87.413,0-144.922,65.925-147.326,68.733L0,122.583l2.673,3.112C5.077,128.504,62.587,194.43,150,194.43
	c87.412,0,144.923-65.926,147.327-68.729l2.673-3.113L297.326,119.473z M212.266,122.583c0,34.333-27.934,62.267-62.267,62.267
	c-34.334,0-62.271-27.934-62.271-62.267s27.938-62.267,62.271-62.267C184.33,60.316,212.266,88.251,212.266,122.583z
	 M12.836,122.579c9.752-10.13,43.521-42.188,92.158-55.916C88.646,79.845,78.15,100,78.15,122.584
	c0,22.568,10.479,42.715,26.81,55.896C56.396,164.732,22.593,132.699,12.836,122.579z M195.003,178.504
	c16.347-13.182,26.842-33.337,26.842-55.921c0-22.57-10.479-42.714-26.803-55.896c48.563,13.747,82.356,45.78,92.121,55.901
	C277.411,132.719,243.638,164.775,195.003,178.504z"/>
<linearGradient id="SVGID_4_" gradientUnits="userSpaceOnUse" x1="265.6038" y1="-1048.6543" x2="510.3889" y2="-1048.6543" gradientTransform="matrix(1 0 0 -1 -238.0005 -1003.1992)">
	<stop  offset="0" style="stop-color:#119BFA"/>
	<stop  offset="0.1652" style="stop-color:#2E8DF9"/>
	<stop  offset="0.3435" style="stop-color:#4682F9"/>
	<stop  offset="0.5336" style="stop-color:#577AF8"/>
	<stop  offset="0.7414" style="stop-color:#6175F8"/>
	<stop  offset="1" style="stop-color:#6474F8"/>
</linearGradient>
<path display="none" fill="url(#SVGID_4_)" d="M149.998,22C116.69,22,73.969,35.607,42.249,51.917
	c-5.134,2.936-10.063,5.973-14.646,9.014L32.9,68.91c4.409-2.922,9.15-5.843,14.104-8.679c30.35-15.61,71.23-28.652,102.993-28.652
	c40.41,0,79.806,12.559,117.094,37.331l5.297-7.979C234.053,35.465,191.727,22,149.998,22z"/>
<linearGradient id="SVGID_5_" gradientUnits="userSpaceOnUse" x1="265.6018" y1="-1202.9121" x2="510.3928" y2="-1202.9121" gradientTransform="matrix(1 0 0 -1 -238.0005 -1003.1992)">
	<stop  offset="0" style="stop-color:#119BFA"/>
	<stop  offset="0.1652" style="stop-color:#2E8DF9"/>
	<stop  offset="0.3435" style="stop-color:#4682F9"/>
	<stop  offset="0.5336" style="stop-color:#577AF8"/>
	<stop  offset="0.7414" style="stop-color:#6175F8"/>
	<stop  offset="1" style="stop-color:#6474F8"/>
</linearGradient>
<path display="none" fill="url(#SVGID_5_)" d="M267.095,176.256c-4.408,2.924-9.15,5.846-14.103,8.68
	c-30.347,15.613-71.229,28.652-102.993,28.652c-40.41,0-79.813-12.559-117.101-37.33l-5.297,7.979
	C65.942,209.705,108.27,223.17,150,223.17c33.308,0,76.032-13.609,107.749-29.92c5.135-2.936,10.063-5.973,14.643-9.014
	L267.095,176.256z"/>
<linearGradient id="SVGID_6_" gradientUnits="userSpaceOnUse" x1="222.8723" y1="1172.709" x2="273.4973" y2="1172.709" gradientTransform="matrix(1 0 0 1 -190.4004 -1081.3594)">
	<stop  offset="0" style="stop-color:#119BFA"/>
	<stop  offset="0.1652" style="stop-color:#2E8DF9"/>
	<stop  offset="0.3435" style="stop-color:#4682F9"/>
	<stop  offset="0.5336" style="stop-color:#577AF8"/>
	<stop  offset="0.7414" style="stop-color:#6175F8"/>
	<stop  offset="1" style="stop-color:#6474F8"/>
</linearGradient>
<path fill="url(#SVGID_6_)" d="M32.472,91.351c0,13.957,11.355,25.31,25.313,25.31s25.312-11.353,25.312-25.31
	c0-13.958-11.354-25.312-25.312-25.312S32.472,77.393,32.472,91.351z M70.866,91.351c0,7.214-5.868,13.082-13.083,13.082
	c-7.218,0-13.082-5.868-13.082-13.082c0-7.215,5.864-13.083,13.082-13.083C64.998,78.268,70.866,84.135,70.866,91.351z"/>
<linearGradient id="SVGID_7_" gradientUnits="userSpaceOnUse" x1="190.4006" y1="1233.3604" x2="491.4006" y2="1233.3604" gradientTransform="matrix(1 0 0 1 -190.4004 -1081.3594)">
	<stop  offset="0" style="stop-color:#119BFA"/>
	<stop  offset="0.1652" style="stop-color:#2E8DF9"/>
	<stop  offset="0.3435" style="stop-color:#4682F9"/>
	<stop  offset="0.5336" style="stop-color:#577AF8"/>
	<stop  offset="0.7414" style="stop-color:#6175F8"/>
	<stop  offset="1" style="stop-color:#6474F8"/>
</linearGradient>
<path fill="url(#SVGID_7_)" d="M28.94,27.012C12.981,27.012,0,39.995,0,55.953v192.094c0,7.789,3.1,14.865,8.124,20.074
	c0.107,0.133,0.224,0.26,0.348,0.385c0.12,0.119,0.247,0.229,0.374,0.338c5.209,5.033,12.296,8.146,20.096,8.146h243.117
	c15.958,0,28.941-12.984,28.941-28.941V55.953c0-15.958-12.983-28.941-28.941-28.941 M289.423,248.043
	c0,9.574-7.79,17.367-17.364,17.367H28.94c-2.679,0-5.221-0.613-7.485-1.701l83.504-81.447l14.607,14.609v0.004h0.002l36.723,36.717
	c2.26,2.264,5.926,2.264,8.183,0c2.262-2.26,2.262-5.926,0-8.188l-32.624-32.625l57.993-56.99l99.384,97.801
	c0.063,0.066,0.134,0.121,0.199,0.18L289.423,248.043L289.423,248.043z M272.059,38.588c9.574,0,17.364,7.79,17.364,17.365v161.465
	l0,0l-95.489-93.909c-2.262-2.259-5.926-2.259-8.187,0l-62.085,61.084l-14.611-14.608c-1.085-1.086-2.557-1.692-4.092-1.692
	s-3.007,0.606-4.099,1.692L13.27,255.52c-1.084-2.264-1.689-4.799-1.689-7.473V55.953c0-9.575,7.789-17.365,17.361-17.365"/>
<linearGradient id="SVGID_8_" gradientUnits="userSpaceOnUse" x1="150.4036" y1="50.1377" x2="227.6868" y2="50.1377">
	<stop  offset="0" style="stop-color:#119BFA"/>
	<stop  offset="0.1652" style="stop-color:#2E8DF9"/>
	<stop  offset="0.3435" style="stop-color:#4682F9"/>
	<stop  offset="0.5336" style="stop-color:#577AF8"/>
	<stop  offset="0.7414" style="stop-color:#6175F8"/>
	<stop  offset="1" style="stop-color:#6474F8"/>
</linearGradient>
<path fill="url(#SVGID_8_)" d="M189.15,96.775l-2.903-2.183c-1.457-1.093-33.494-24.723-35.635-50.414
	C148.403,17.658,163.938,3.5,189.15,3.5c25.211,0,38.537,14.066,38.537,40.679c0,25.466-34.181,49.321-35.636,50.414L189.15,96.775z
	 M189.15,13.162c-19.972,0-28.878,9.567-28.878,31.017c0,15.489,18.747,32.027,28.878,40.391
	c10.133-8.363,28.875-24.902,28.875-40.391C218.025,22.729,209.12,13.162,189.15,13.162z"/>
<path fill="#FFFFFF" d="M189.15,13.162c-19.972,0-28.878,9.567-28.878,31.017c0,15.489,18.747,32.027,28.878,40.391
	c10.133-8.363,28.875-24.902,28.875-40.391C218.025,22.729,209.12,13.162,189.15,13.162z"/>
<linearGradient id="SVGID_9_" gradientUnits="userSpaceOnUse" x1="172.7346" y1="42.7515" x2="205.5627" y2="42.7515">
	<stop  offset="0" style="stop-color:#119BFA"/>
	<stop  offset="0.1652" style="stop-color:#2E8DF9"/>
	<stop  offset="0.3435" style="stop-color:#4682F9"/>
	<stop  offset="0.5336" style="stop-color:#577AF8"/>
	<stop  offset="0.7414" style="stop-color:#6175F8"/>
	<stop  offset="1" style="stop-color:#6474F8"/>
</linearGradient>
<path fill="url(#SVGID_9_)" d="M189.15,26.338c-9.053,0-16.415,7.359-16.415,16.415c0,9.054,7.361,16.413,16.415,16.413
	c9.052,0,16.413-7.358,16.413-16.413C205.563,33.697,198.201,26.338,189.15,26.338L189.15,26.338z M189.15,50.958
	c-4.513,0-8.209-3.693-8.209-8.206c0-4.515,3.696-8.208,8.209-8.208s8.208,3.693,8.208,8.208
	C197.358,47.265,193.662,50.958,189.15,50.958z"/>
<path fill="#FFFFFF" d="M70.866,91.351c0,7.214-5.868,13.082-13.083,13.082c-7.218,0-13.082-5.868-13.082-13.082
	c0-7.215,5.864-13.083,13.082-13.083C64.998,78.268,70.866,84.135,70.866,91.351z"/>
</svg>
