<?xml version="1.0" encoding="utf-8"?>
<!-- Generator: Adobe Illustrator 21.0.0, SVG Export Plug-In . SVG Version: 6.00 Build 0)  -->
<svg version="1.1" id="Lightning" xmlns="http://www.w3.org/2000/svg" xmlns:xlink="http://www.w3.org/1999/xlink" x="0px" y="0px"
	 viewBox="0 0 1305 467" style="enable-background:new 0 0 1305 467;" xml:space="preserve">
<style type="text/css">
	.st0{fill:url(#SVGID_1_);}
	.st1{clip-path:url(#SVGID_3_);fill:url(#SVGID_4_);}
	.st2{clip-path:url(#SVGID_6_);fill:url(#SVGID_7_);}
	.st3{fill:#666666;}
</style>
<g>
	
		<linearGradient id="SVGID_1_" gradientUnits="userSpaceOnUse" x1="118.0746" y1="257.7065" x2="266.5254" y2="137.4935" gradientTransform="matrix(1 0 0 -1 0 436)">
		<stop  offset="0" style="stop-color:#F4AD21"/>
		<stop  offset="1" style="stop-color:#FFD600"/>
	</linearGradient>
	<polygon class="st0" points="207.7,207.6 258,5.5 105.5,269.1 176.9,269.1 126.6,471.3 279.1,207.6 	"/>
	<g>
		<g>
			<defs>
				<path id="SVGID_2_" d="M42.6,238.4c0-81.7,63.4-148.7,142.7-152.5L207.2,48c-4.9-0.4-9.9-0.6-14.9-0.6c-50,0-97.1,19.9-132.5,56
					C24.5,139.4,5,187.3,5,238.4c0,51,19.5,99,54.9,135.1c16.9,17.2,36.5,30.8,57.9,40.3l9.4-37.8C77.1,351,42.6,298.7,42.6,238.4z"
					/>
			</defs>
			<clipPath id="SVGID_3_">
				<use xlink:href="#SVGID_2_"  style="overflow:visible;"/>
			</clipPath>
			
				<linearGradient id="SVGID_4_" gradientUnits="userSpaceOnUse" x1="0" y1="230" x2="979" y2="230" gradientTransform="matrix(1 0 0 -1 0 468)">
				<stop  offset="0" style="stop-color:#0C36D6"/>
				<stop  offset="1" style="stop-color:#00CCF8"/>
			</linearGradient>
			<rect class="st1" width="979" height="476"/>
		</g>
	</g>
	<g>
		<g>
			<defs>
				<path id="SVGID_5_" d="M324.8,103.4c-16.9-17.2-36.5-30.8-57.9-40.3l-9.4,37.8c50,24.8,84.5,77.1,84.5,137.4
					c0,81.7-63.4,148.7-142.7,152.5l-21.9,37.9c4.9,0.4,9.9,0.6,14.9,0.6c50,0,97.1-19.9,132.5-56s54.9-84,54.9-135.1
					C379.6,187.3,360.1,139.4,324.8,103.4z"/>
			</defs>
			<clipPath id="SVGID_6_">
				<use xlink:href="#SVGID_5_"  style="overflow:visible;"/>
			</clipPath>
			
				<linearGradient id="SVGID_7_" gradientUnits="userSpaceOnUse" x1="0" y1="230" x2="979" y2="230" gradientTransform="matrix(1 0 0 -1 0 468)">
				<stop  offset="0" style="stop-color:#0C36D6"/>
				<stop  offset="1" style="stop-color:#00CCF8"/>
			</linearGradient>
			<rect class="st2" width="979" height="476"/>
		</g>
	</g>
</g>
<g>
	<g>
		<path d="M476.7,118.6H500l56.9,139.7h-30.3l-11.2-27.5h-53.6l-11,27.5h-30.1L476.7,118.6z M488.3,164.3l-16.4,41.2h33.2
			L488.3,164.3z"/>
		<path d="M576.6,118.6h30.1v139.7h-30.1V118.6z"/>
		<path d="M630.1,188.4c0-20.6,6.8-37.7,20.5-51.1c13.7-13.4,29.8-20.2,48.6-20.2c20.7,0,37.8,6.8,51.4,20.3
			c13.5,13.5,20.3,30.6,20.3,51.2c0,20.5-6.7,37.5-20.1,51.1c-13.4,13.6-30.3,20.3-50.6,20.3c-20.4,0-37.1-6.7-50.3-20.2
			C636.7,226.3,630.1,209.2,630.1,188.4z M700.6,145c-11.7-0.2-21.1,3.8-28.3,12.1c-7.2,8.3-10.7,19-10.7,32.1
			c0,12.4,3.7,22.7,11,30.9c7.3,8.2,16.5,12.2,27.7,12.2c11.7,0,21.2-4,28.4-12.1c7.2-8,10.8-18.7,10.8-31.9
			c0-13-3.5-23.4-10.6-31.3C721.6,149.2,712.3,145.2,700.6,145z"/>
		<path d="M844.4,118.6h94v29.7h-32v110h-30.1v-110h-31.8V118.6z"/>
		<path d="M939.4,212.7c0-14.1,4.5-25.6,13.5-34.6c9-8.9,20.6-13.4,34.7-13.4c13.1,0,24.1,4.6,33,13.7c8.9,9.1,13.4,20.4,13.4,33.9
			c0,13.8-4.5,25.2-13.4,34.3c-8.9,9.1-20.1,13.6-33.5,13.6c-15.1,0-26.9-4.8-35.2-14.4C943.6,236.2,939.4,225.2,939.4,212.7z
			 M1007.2,212.7c0-6.2-2-11.6-6.1-16.2c-4-4.6-8.8-6.9-14.2-6.9c-5.6,0-10.4,2.2-14.5,6.5c-4,4.3-6.1,9.5-6.1,15.5
			c0,6.6,2,12.2,6,16.8c4,4.6,8.8,6.9,14.5,6.9c5.4,0,10.1-2.3,14.2-6.8C1005.2,224.1,1007.2,218.8,1007.2,212.7z"/>
		<path d="M1055.1,212.7c0-14.1,4.5-25.6,13.5-34.6c9-8.9,20.6-13.4,34.7-13.4c13.1,0,24.1,4.6,33,13.7c8.9,9.1,13.4,20.4,13.4,33.9
			c0,13.8-4.5,25.2-13.4,34.3c-8.9,9.1-20.1,13.6-33.5,13.6c-15.1,0-26.9-4.8-35.2-14.4C1059.3,236.2,1055.1,225.2,1055.1,212.7z
			 M1122.9,212.7c0-6.2-2-11.6-6.1-16.2c-4-4.6-8.8-6.9-14.2-6.9c-5.6,0-10.4,2.2-14.5,6.5c-4,4.3-6.1,9.5-6.1,15.5
			c0,6.6,2,12.2,6,16.8c4,4.6,8.8,6.9,14.5,6.9c5.4,0,10.1-2.3,14.2-6.8C1120.8,224.1,1122.9,218.8,1122.9,212.7z"/>
		<path d="M1174.5,116.2h27.2v142h-27.2V116.2z"/>
		<path d="M1297.1,179.6l-18.5,11.3c-5.3-5.4-10.3-8.1-15-8.1c-2.3,0-4.2,0.6-5.9,1.9c-1.6,1.3-2.5,2.8-2.5,4.7c0,3,0.9,5.1,2.8,6.5
			c1.9,1.3,6.9,3.4,15.1,6.2c8.2,2.8,14.6,6.4,19.3,10.8c4.7,4.4,7.1,10.5,7.1,18.3c0,7.9-3.5,14.6-10.6,20.3
			c-7.1,5.6-15.6,8.5-25.5,8.5c-6.7,0-13.5-1.9-20.2-5.6c-6.7-3.8-12.4-9.5-17.1-17.2l22-10c5,8.6,10.1,12.9,15.4,12.9
			c2.4,0,4.6-0.8,6.5-2.3c1.9-1.6,2.9-3.3,2.9-5.3c0-2.5-1.1-4.5-3.3-5.8c-2.2-1.3-3.8-2-4.9-2c-0.4-0.5-3-1.5-7.7-3
			c-18.3-6-27.5-15.7-27.5-29.1c0-8.1,3.3-14.7,9.8-19.8c6.6-5.1,15.1-7.7,25.7-7.7C1277,165,1287.6,169.9,1297.1,179.6z"/>
	</g>
	<g>
		<path class="st3" d="M461.1,294.2l13.8,52.7h-6.8l-8.4-32.2l-14.4,34.2l-14.5-34.4l-8.5,32.5h-6.7l13.8-52.7l15.8,37.7
			L461.1,294.2z"/>
		<path class="st3" d="M479.5,330.4c0-4.5,1.8-8.5,5.3-11.9c3.5-3.5,7.6-5.2,12.2-5.2c4.7,0,8.8,1.7,12.4,5.1
			c3.5,3.4,5.3,7.4,5.3,12c0,4.6-1.7,8.7-5.2,12.2s-7.4,5.3-12,5.3c-4.8,0-9.1-1.7-12.6-5.2C481.3,339.1,479.5,335.1,479.5,330.4z
			 M508,330.4c0-2.8-1.1-5.2-3.2-7.3c-2.1-2.1-4.6-3.1-7.5-3.1c-3,0-5.6,1-7.7,3.1c-2.2,2.1-3.2,4.6-3.2,7.5c0,2.8,1.1,5.2,3.3,7.2
			c2.2,2.1,4.7,3.1,7.7,3.1c2.9,0,5.4-1.1,7.5-3.2C506.9,335.7,508,333.2,508,330.4z"/>
		<path class="st3" d="M529.7,314.1v6.8c1.5-2.7,3-4.7,4.5-5.9s3.4-1.8,5.7-1.8c0.7,0,1.6,0.2,2.9,0.5l-2.1,6.9
			c-1.3-0.3-2.2-0.4-2.6-0.4c-2.3,0-4.3,0.8-5.9,2.4c-1.6,1.6-2.4,3.7-2.4,6.1v18.2H523v-32.8H529.7z"/>
		<path class="st3" d="M581.9,331.8h-28c0.6,3.4,2,5.8,4.2,7.4c2.2,1.5,4.5,2.3,7.1,2.3c3.9,0,7.2-1.6,9.9-4.9l5,3.8
			c-3.8,4.9-8.9,7.4-15.2,7.4c-4.9,0-9-1.7-12.2-5c-3.3-3.3-4.9-7.5-4.9-12.4c0-4.6,1.7-8.7,5-12.1s7.4-5.1,12.2-5.1
			c4.7,0,8.8,1.7,12.1,5.2C580.3,321.9,581.9,326.3,581.9,331.8z M554.6,326.3h20c-2.2-4.5-5.5-6.8-9.9-6.8
			C560,319.6,556.7,321.8,554.6,326.3z"/>
		<path class="st3" d="M632,295.8v7c-2-1.4-3.7-2-5.2-2c-1.2,0-2.2,0.4-2.9,1.3c-0.7,0.9-1,2.2-1,3.8v8.2h9.1v6.3h-9.1v26.5H616
			v-26.5h-6v-6.3h6v-7.7c0-3.7,1-6.7,2.9-8.9c1.9-2.2,4.5-3.3,7.7-3.3C628.2,294.1,630,294.7,632,295.8z"/>
		<path class="st3" d="M672.1,331.8h-28c0.6,3.4,2,5.8,4.2,7.4c2.2,1.5,4.5,2.3,7.1,2.3c3.9,0,7.2-1.6,9.9-4.9l5,3.8
			c-3.8,4.9-8.9,7.4-15.2,7.4c-4.9,0-9-1.7-12.2-5c-3.3-3.3-4.9-7.5-4.9-12.4c0-4.6,1.7-8.7,5-12.1s7.4-5.1,12.2-5.1
			c4.7,0,8.8,1.7,12.1,5.2C670.5,321.9,672.1,326.3,672.1,331.8z M644.8,326.3h20c-2.2-4.5-5.5-6.8-9.9-6.8
			C650.3,319.6,646.9,321.8,644.8,326.3z"/>
		<path class="st3" d="M707.6,314.1h6.9v32.8h-6.9v-6.5c-3.4,5-7.5,7.4-12.5,7.4c-4.3,0-8-1.7-11.1-5.1c-3.1-3.4-4.6-7.5-4.6-12.4
			c0-4.6,1.5-8.6,4.6-12c3.1-3.4,6.7-5.1,10.9-5.1c2.6,0,5,0.7,7.3,2.1c2.3,1.4,4.1,3.2,5.4,5.5V314.1z M708.6,330.6
			c0-3-1.1-5.6-3.2-7.7c-2.1-2.1-4.7-3.2-7.7-3.2c-2.9,0-5.5,1.1-7.6,3.2c-2.2,2.1-3.3,4.6-3.3,7.5c0,3.1,1.1,5.7,3.2,7.9
			c2.1,2.2,4.7,3.3,7.7,3.3c3,0,5.6-1.1,7.7-3.2C707.5,336.1,708.6,333.6,708.6,330.6z"/>
		<path class="st3" d="M727.2,304.6h6.9v9.5h6.8v6.3h-6.8v26.5h-6.9v-26.5h-5.4V314h5.4V304.6z"/>
		<path class="st3" d="M745.8,314.1h6.9v18.5c0,5.7,2.5,8.5,7.5,8.5c2.2,0,4-0.8,5.3-2.3c1.3-1.5,1.9-3.6,1.9-6.3v-18.5h6.8v19.6
			c0,4.1-1.3,7.5-4,10.1c-2.7,2.6-6.1,4-10.3,4c-4.2,0-7.7-1.3-10.3-4c-2.6-2.6-3.9-6.1-3.9-10.4V314.1z"/>
		<path class="st3" d="M790.3,314.1v6.8c1.5-2.7,3-4.7,4.5-5.9c1.5-1.2,3.4-1.8,5.7-1.8c0.7,0,1.6,0.2,2.9,0.5l-2.1,6.9
			c-1.3-0.3-2.2-0.4-2.6-0.4c-2.3,0-4.3,0.8-5.9,2.4c-1.6,1.6-2.4,3.7-2.4,6.1v18.2h-6.9v-32.8H790.3z"/>
		<path class="st3" d="M842.5,331.8h-28c0.6,3.4,2,5.8,4.2,7.4c2.2,1.5,4.5,2.3,7.1,2.3c3.9,0,7.2-1.6,9.9-4.9l5,3.8
			c-3.8,4.9-8.9,7.4-15.2,7.4c-4.9,0-9-1.7-12.2-5c-3.3-3.3-4.9-7.5-4.9-12.4c0-4.6,1.7-8.7,5-12.1c3.3-3.4,7.4-5.1,12.2-5.1
			c4.7,0,8.8,1.7,12.1,5.2C840.8,321.9,842.5,326.3,842.5,331.8z M815.2,326.3h20c-2.2-4.5-5.5-6.8-9.9-6.8
			C820.6,319.6,817.2,321.8,815.2,326.3z"/>
		<path class="st3" d="M870.2,318l-4.6,4.1c-1.2-0.8-2.2-1.5-3.1-1.9c-0.9-0.4-1.9-0.7-3.1-0.7c-2.8,0-4.2,1-4.2,3.1
			c0,1.5,1.8,2.9,5.3,4.3c3.6,1.4,6.1,2.9,7.7,4.6c1.6,1.7,2.3,3.7,2.3,6c0,2.8-1.1,5.2-3.4,7.2c-2.3,2.1-4.9,3.1-7.9,3.1
			c-4.6,0-8.4-2.1-11.4-6.4l5.4-2.6c1.9,1.9,3.9,2.8,6,2.8c1.4,0,2.7-0.4,3.8-1.2c1.1-0.8,1.6-1.7,1.6-2.7c0-1.8-1.9-3.5-5.6-4.9
			c-3.8-1.5-6.4-2.9-7.8-4.4c-1.4-1.5-2.2-3.3-2.2-5.5c0-2.7,1-5,3.1-6.8c2.1-1.8,4.6-2.7,7.7-2.7
			C862.9,313.2,866.3,314.8,870.2,318z"/>
		<path class="st3" d="M879.3,336.9l8.5,3.3l-9.4,20.3l-6.2-2.4L879.3,336.9z"/>
		<path class="st3" d="M958.6,294.2l13.8,52.7h-6.8l-8.4-32.2l-14.4,34.2l-14.5-34.4l-8.5,32.5h-6.7l13.8-52.7l15.8,37.7
			L958.6,294.2z"/>
		<path class="st3" d="M977.1,330.4c0-4.5,1.8-8.5,5.3-11.9c3.5-3.5,7.6-5.2,12.2-5.2c4.7,0,8.8,1.7,12.4,5.1
			c3.5,3.4,5.3,7.4,5.3,12c0,4.6-1.7,8.7-5.2,12.2c-3.5,3.5-7.4,5.3-12,5.3c-4.8,0-9.1-1.7-12.6-5.2
			C978.8,339.1,977.1,335.1,977.1,330.4z M1005.5,330.4c0-2.8-1.1-5.2-3.2-7.3c-2.1-2.1-4.6-3.1-7.5-3.1c-3,0-5.6,1-7.7,3.1
			c-2.2,2.1-3.2,4.6-3.2,7.5c0,2.8,1.1,5.2,3.3,7.2c2.2,2.1,4.7,3.1,7.7,3.1c2.9,0,5.4-1.1,7.5-3.2
			C1004.4,335.7,1005.5,333.2,1005.5,330.4z"/>
		<path class="st3" d="M1027.3,314.1v6.8c1.5-2.7,3-4.7,4.5-5.9c1.5-1.2,3.4-1.8,5.7-1.8c0.7,0,1.6,0.2,2.9,0.5l-2.1,6.9
			c-1.3-0.3-2.2-0.4-2.6-0.4c-2.3,0-4.3,0.8-5.9,2.4c-1.6,1.6-2.4,3.7-2.4,6.1v18.2h-6.9v-32.8H1027.3z"/>
		<path class="st3" d="M1079.4,331.8h-28c0.6,3.4,2,5.8,4.2,7.4c2.2,1.5,4.5,2.3,7.1,2.3c3.9,0,7.2-1.6,9.9-4.9l5,3.8
			c-3.8,4.9-8.9,7.4-15.2,7.4c-4.9,0-9-1.7-12.2-5c-3.3-3.3-4.9-7.5-4.9-12.4c0-4.6,1.7-8.7,5-12.1s7.4-5.1,12.2-5.1
			c4.7,0,8.8,1.7,12.1,5.2C1077.8,321.9,1079.4,326.3,1079.4,331.8z M1052.1,326.3h20c-2.2-4.5-5.5-6.8-9.9-6.8
			C1057.6,319.6,1054.2,321.8,1052.1,326.3z"/>
		<path class="st3" d="M1112.1,296.3h10.2c5.7,0,10.4,1.4,13.9,4.1c3.5,2.7,5.3,6.2,5.3,10.5c0,4.3-1.9,8-5.6,10.9
			c-3.7,2.9-9.4,4.4-16.9,4.3v20.8h-6.8V296.3z M1118.9,302.3V320c5.2-0.1,9-0.8,11.5-2.2c2.5-1.4,3.8-3.7,3.8-6.8
			c0-2.4-0.9-4.4-2.8-6.1C1129.5,303.2,1125.3,302.3,1118.9,302.3z"/>
		<path class="st3" d="M1144.6,330.4c0-4.5,1.8-8.5,5.3-11.9c3.5-3.5,7.6-5.2,12.2-5.2c4.7,0,8.8,1.7,12.4,5.1
			c3.5,3.4,5.3,7.4,5.3,12c0,4.6-1.7,8.7-5.2,12.2c-3.5,3.5-7.4,5.3-12,5.3c-4.8,0-9.1-1.7-12.6-5.2
			C1146.4,339.1,1144.6,335.1,1144.6,330.4z M1173,330.4c0-2.8-1.1-5.2-3.2-7.3c-2.1-2.1-4.6-3.1-7.5-3.1c-3,0-5.6,1-7.7,3.1
			c-2.2,2.1-3.2,4.6-3.2,7.5c0,2.8,1.1,5.2,3.3,7.2c2.2,2.1,4.7,3.1,7.7,3.1c2.9,0,5.4-1.1,7.5-3.2
			C1172,335.7,1173,333.2,1173,330.4z"/>
		<path class="st3" d="M1207.1,312.7l9.2,21.7l9.7-20.3h6l-16.1,33.7l-8.8-20.9l-8.8,20.6l-16.1-33.4h6l9.7,20.2L1207.1,312.7z"/>
		<path class="st3" d="M1270.1,331.8h-28c0.6,3.4,2,5.8,4.2,7.4c2.2,1.5,4.5,2.3,7.1,2.3c3.9,0,7.2-1.6,9.9-4.9l5,3.8
			c-3.8,4.9-8.9,7.4-15.2,7.4c-4.9,0-9-1.7-12.2-5c-3.3-3.3-4.9-7.5-4.9-12.4c0-4.6,1.7-8.7,5-12.1s7.4-5.1,12.2-5.1
			c4.7,0,8.8,1.7,12.1,5.2C1268.5,321.9,1270.1,326.3,1270.1,331.8z M1242.8,326.3h20c-2.2-4.5-5.5-6.8-9.9-6.8
			C1248.2,319.6,1244.8,321.8,1242.8,326.3z"/>
		<path class="st3" d="M1285.7,314.1v6.8c1.5-2.7,3-4.7,4.5-5.9c1.5-1.2,3.4-1.8,5.7-1.8c0.7,0,1.6,0.2,2.9,0.5l-2.1,6.9
			c-1.3-0.3-2.2-0.4-2.6-0.4c-2.3,0-4.3,0.8-5.9,2.4c-1.6,1.6-2.4,3.7-2.4,6.1v18.2h-6.9v-32.8H1285.7z"/>
	</g>
</g>
</svg>
