<svg id="Layer_1" data-name="Layer 1" xmlns="http://www.w3.org/2000/svg" xmlns:xlink="http://www.w3.org/1999/xlink" viewBox="0 0 374.7 457"><defs><style>.cls-1{fill:url(#linear-gradient);}.cls-2{fill:#fff;}</style><linearGradient id="linear-gradient" x1="100.5" y1="613.61" x2="274.1" y2="613.61" gradientTransform="matrix(1, 0, 0, -1, 0, 842.11)" gradientUnits="userSpaceOnUse"><stop offset="0" stop-color="#fed600"/><stop offset="1" stop-color="#f3ad21"/></linearGradient></defs><title>favicon</title><polygon class="cls-1" points="202.7 198.3 253 0 100.5 258.6 171.9 258.6 121.6 457 274.1 198.3 202.7 198.3"/><path class="cls-2" d="M37.6,228.5c0-80.2,63.4-145.9,142.7-149.6l21.9-37.2c-4.9-.4-9.9-.6-14.9-.6a187.49,187.49,0,0,0-74.5,359.4l9.4-37.1A150.11,150.11,0,0,1,37.6,228.5Z"/><path class="cls-2" d="M319.8,96a187.43,187.43,0,0,0-57.9-39.5l-9.4,37.1A149.93,149.93,0,0,1,337,228.4c0,80.2-63.4,145.9-142.7,149.6l-21.9,37.2c4.9.4,9.9.6,14.9.6A187.31,187.31,0,0,0,319.8,96Z"/></svg>