<svg width="48" height="48" viewBox="0 0 48 48" fill="none" xmlns="http://www.w3.org/2000/svg">
<g clip-path="url(#clip0_1244_1463)">
<path d="M26.1498 44.6575L18.8594 37.0407L34.5163 19.9102L42.0644 27.8363L26.1498 44.6575Z" fill="#8AB4F8"/>
<path d="M26.1832 10.9817L18.9195 3.03516L3.03563 19.8922C0.988125 22.086 0.988125 25.6426 3.03563 27.8388L18.6806 44.7113L26.0782 37.2965L14.1584 23.8656L26.1834 10.9817H26.1832Z" fill="#4285F4"/>
<path d="M41.9613 20.0222L26.2113 3.14716C24.1615 0.950947 20.8373 0.950947 18.7875 3.14716C16.7375 5.34355 16.7375 8.90522 18.7875 11.1016L34.5375 27.9766C36.5873 30.1728 39.9115 30.1728 41.9613 27.9766C44.0113 25.7802 44.0113 22.2184 41.9613 20.0222Z" fill="#8AB4F8"/>
<path d="M22.3807 46.5003C25.2144 46.5003 27.5115 44.0391 27.5115 41.0031C27.5115 37.967 25.2144 35.5059 22.3807 35.5059C19.5471 35.5059 17.25 37.967 17.25 41.0031C17.25 44.0391 19.5471 46.5003 22.3807 46.5003Z" fill="#246FDB"/>
<rect x="27" y="9" width="13" height="12" fill="white"/>
<path d="M42.5878 11.352C41.7963 6.97075 38.269 3.68164 34.0317 3.68164C30.6675 3.68164 27.7456 5.76432 26.2904 8.81215C22.7865 9.21853 20.0625 12.4568 20.0625 16.3809C20.0625 20.5844 23.1939 24.0005 27.0471 24.0005H42.1804C45.3933 24.0005 48.0009 21.1558 48.0009 17.6508C48.0009 14.2982 45.6145 11.5806 42.5878 11.352ZM31.7035 20.1907L27.6292 15.746L29.2705 13.9554L31.7035 16.5968L37.7335 10.0313L39.3749 11.8219L31.7035 20.1907Z" fill="#246FDB"/>
</g>
<defs>
<clipPath id="clip0_1244_1463">
<rect width="48" height="48" fill="white"/>
</clipPath>
</defs>
</svg>
