<svg width="48" height="48" viewBox="0 0 48 48" fill="none" xmlns="http://www.w3.org/2000/svg">
<path d="M21.8 37.65H26.2V28.65H29.15V19.5C29.15 18.7 28.7167 18.1083 27.85 17.725C26.9833 17.3417 25.7 17.15 24 17.15C22.3 17.15 21.0167 17.3417 20.15 17.725C19.2833 18.1083 18.85 18.7 18.85 19.5V28.6748H21.8V37.65ZM24 44C21.2 44 18.5833 43.4833 16.15 42.45C13.7167 41.4167 11.6 40 9.8 38.2C8 36.4 6.58333 34.2833 5.55 31.85C4.51667 29.4167 4 26.8 4 24C4 21.2091 4.51667 18.5947 5.55 16.1568C6.58333 13.7189 8 11.6 9.8 9.8C11.6 8 13.7167 6.58333 16.15 5.55C18.5833 4.51667 21.2 4 24 4C26.7909 4 29.4053 4.51667 31.8432 5.55C34.2811 6.58333 36.4 8 38.2 9.8C40 11.6 41.4167 13.7189 42.45 16.1568C43.4833 18.5947 44 21.2091 44 24C44 26.8 43.4833 29.4167 42.45 31.85C41.4167 34.2833 40 36.4 38.2 38.2C36.4 40 34.2811 41.4167 31.8432 42.45C29.4053 43.4833 26.7909 44 24 44ZM24 41C28.8333 41 32.875 39.375 36.125 36.125C39.375 32.875 41 28.8333 41 24C41 19.1667 39.375 15.125 36.125 11.875C32.875 8.625 28.8333 7 24 7C19.1667 7 15.125 8.625 11.875 11.875C8.625 15.125 7 19.1667 7 24C7 28.8333 8.625 32.875 11.875 36.125C15.125 39.375 19.1667 41 24 41ZM24 15.7C24.78 15.7 25.425 15.445 25.935 14.935C26.445 14.425 26.7 13.78 26.7 13C26.7 12.22 26.445 11.575 25.935 11.065C25.425 10.555 24.78 10.3 24 10.3C23.22 10.3 22.575 10.555 22.065 11.065C21.555 11.575 21.3 12.22 21.3 13C21.3 13.78 21.555 14.425 22.065 14.935C22.575 15.445 23.22 15.7 24 15.7Z" fill="#CACACA"/>
</svg>
