<svg width="28" height="28" viewBox="0 0 28 28" fill="none" xmlns="http://www.w3.org/2000/svg">
<path d="M12.5334 23.0998H15.4667V17.0998H17.4334V10.9998C17.4334 10.4665 17.1445 10.0721 16.5667 9.8165C15.989 9.56095 15.1334 9.43317 14.0001 9.43317C12.8667 9.43317 12.0112 9.56095 11.4334 9.8165C10.8556 10.0721 10.5667 10.4665 10.5667 10.9998V17.1163H12.5334V23.0998ZM14.0001 27.3332C12.1334 27.3332 10.389 26.9887 8.76675 26.2998C7.14453 25.6109 5.73341 24.6665 4.53341 23.4665C3.33341 22.2665 2.38897 20.8554 1.70008 19.2332C1.01119 17.6109 0.666748 15.8665 0.666748 13.9998C0.666748 12.1392 1.01119 10.3963 1.70008 8.77104C2.38897 7.14579 3.33341 5.73317 4.53341 4.53317C5.73341 3.33317 7.14453 2.38873 8.76675 1.69984C10.389 1.01095 12.1334 0.666504 14.0001 0.666504C15.8607 0.666504 17.6036 1.01095 19.2289 1.69984C20.8541 2.38873 22.2667 3.33317 23.4667 4.53317C24.6667 5.73317 25.6112 7.14579 26.3001 8.77104C26.989 10.3963 27.3334 12.1392 27.3334 13.9998C27.3334 15.8665 26.989 17.6109 26.3001 19.2332C25.6112 20.8554 24.6667 22.2665 23.4667 23.4665C22.2667 24.6665 20.8541 25.6109 19.2289 26.2998C17.6036 26.9887 15.8607 27.3332 14.0001 27.3332ZM14.0001 25.3332C17.2223 25.3332 19.9167 24.2498 22.0834 22.0832C24.2501 19.9165 25.3334 17.2221 25.3334 13.9998C25.3334 10.7776 24.2501 8.08317 22.0834 5.9165C19.9167 3.74984 17.2223 2.6665 14.0001 2.6665C10.7779 2.6665 8.08341 3.74984 5.91675 5.9165C3.75008 8.08317 2.66675 10.7776 2.66675 13.9998C2.66675 17.2221 3.75008 19.9165 5.91675 22.0832C8.08341 24.2498 10.7779 25.3332 14.0001 25.3332ZM14.0001 8.4665C14.5201 8.4665 14.9501 8.2965 15.2901 7.9565C15.6301 7.6165 15.8001 7.1865 15.8001 6.6665C15.8001 6.1465 15.6301 5.7165 15.2901 5.3765C14.9501 5.0365 14.5201 4.8665 14.0001 4.8665C13.4801 4.8665 13.0501 5.0365 12.7101 5.3765C12.3701 5.7165 12.2001 6.1465 12.2001 6.6665C12.2001 7.1865 12.3701 7.6165 12.7101 7.9565C13.0501 8.2965 13.4801 8.4665 14.0001 8.4665Z" fill="#1085F1"/>
</svg>
