<?xml version="1.0" encoding="utf-8"?>
<!-- Generator: Adobe Illustrator 23.0.0, SVG Export Plug-In . SVG Version: 6.00 Build 0)  -->
<svg version="1.1" id="Capa_1" xmlns="http://www.w3.org/2000/svg" xmlns:xlink="http://www.w3.org/1999/xlink" x="0px" y="0px"
	 viewBox="0 0 24 24" style="enable-background:new 0 0 24 24;" xml:space="preserve">
<style type="text/css">
	.st0{fill:#FFFFFF;}
</style>
<path class="st0" d="M17.7,14.5c0,1.2,1.1,2.2,2.3,2.2c0.6,0,1-0.3,1.4-0.6c0.2-0.2,0.5-0.3,0.6-0.3h0.5v6.1c0,0.4-0.3,0.7-0.7,0.7
	h-6.1v-0.5c0-0.3,0.1-0.6,0.3-0.7c0.4-0.4,0.6-0.9,0.6-1.5c0-0.1,0-0.2,0-0.3c0,0,0,0,0-0.1c0-0.1,0-0.1,0-0.2v-0.1
	c0-0.1,0-0.1,0-0.2v-0.1c0-0.1,0-0.1-0.1-0.2v-0.1c0,0,0-0.1-0.1-0.1v-0.1l-0.1-0.1c0,0,0-0.1-0.1-0.1L16,18.3c0,0,0,0-0.1-0.1
	l-0.1-0.1c0,0-0.1,0-0.1-0.1L15.6,18c0,0-0.1,0-0.1-0.1l-0.1-0.1c0,0-0.1,0-0.1-0.1l-0.1-0.1h-0.1c0,0-0.1,0-0.1-0.1H15
	c0,0-0.1,0-0.1-0.1h-0.1h-0.1h-0.1c0,0-0.1,0-0.2,0h-0.1h-0.1l0,0h-0.1h-0.1c-0.1,0-0.1,0-0.2,0h-0.1c-0.1,0-0.1,0-0.2,0.1l0,0
	c-0.1,0-0.2,0.1-0.2,0.1l0,0c-0.5,0.2-0.8,0.6-1.1,1l0,0c0,0.1-0.1,0.1-0.1,0.2c0,0,0,0,0,0.1c0,0.1,0,0.1-0.1,0.2v0.1v0.1v0.1v0.1
	v0.1v0.1v0.1l0,0v0.1v0.1V20v0.1v0.1v0.1v0.1v0.1v0.1v0.1c0,0,0,0.1,0.1,0.1c0,0,0,0.1,0.1,0.1c0,0,0,0.1,0.1,0.1c0,0,0,0.1,0.1,0.1
	c0,0,0,0.1,0.1,0.1c0,0,0,0,0.1,0.1c0.2,0.2,0.3,0.5,0.3,0.7v0.5H6.8c-0.4,0-0.7-0.3-0.7-0.7v-6.2H5.6c-0.3,0-0.5,0.1-0.6,0.3
	c-0.4,0.4-0.9,0.6-1.4,0.6c-1.2,0.1-2.3-0.9-2.3-2.2s1-2.3,2.2-2.3C4,11.8,4.6,12,5,12.4c0.2,0.2,0.5,0.3,0.7,0.3h0.5V6.9
	c0-0.4,0.3-0.7,0.7-0.7H13V5.7c0-0.3-0.1-0.5-0.3-0.6c-0.4-0.4-0.6-0.9-0.6-1.4c-0.1-1.2,0.9-2.3,2.2-2.3c1.3,0,2.3,1,2.3,2.2
	c0,0.6-0.2,1.1-0.6,1.5c-0.2,0.2-0.3,0.5-0.3,0.7v0.5H22c0.4,0,0.7,0.3,0.7,0.7V13h-0.5c-0.3,0-0.6-0.1-0.7-0.3
	c-0.4-0.4-0.9-0.6-1.5-0.6C18.6,12.2,17.6,13.2,17.7,14.5z"/>
</svg>
