<svg width="30" height="30" viewBox="0 0 30 30" fill="none" xmlns="http://www.w3.org/2000/svg">
<path d="M14.3221 23.0279C13.7015 23.0279 13.1953 22.5217 13.1953 21.9012C13.1953 21.2806 13.7015 20.7744 14.3221 20.7744C14.9426 20.7744 15.4488 21.2806 15.4488 21.9012C15.4488 22.5217 14.9426 23.0279 14.3221 23.0279ZM14.3221 21.3949C14.0445 21.3949 13.8158 21.6236 13.8158 21.9012C13.8158 22.1788 14.0445 22.4074 14.3221 22.4074C14.5997 22.4074 14.8283 22.1788 14.8283 21.9012C14.8283 21.6236 14.5997 21.3949 14.3221 21.3949Z" fill="white"/>
<path d="M21.6463 7.25349C21.0258 7.25349 20.5195 6.74727 20.5195 6.12675C20.5195 5.50622 21.0258 5 21.6463 5C22.2668 5 22.773 5.50622 22.773 6.12675C22.773 6.74727 22.275 7.25349 21.6463 7.25349ZM21.6463 5.62053C21.3687 5.62053 21.1401 5.84914 21.1401 6.12675C21.1401 6.40435 21.3687 6.63296 21.6463 6.63296C21.9239 6.63296 22.1525 6.40435 22.1525 6.12675C22.1525 5.84914 21.9239 5.62053 21.6463 5.62053Z" fill="white"/>
<path d="M19.5143 25.2812H8.57005C7.70037 25.2812 7 24.5604 7 23.6828V9.41502C7 8.52965 7.70806 7.81665 8.57005 7.81665H19.5143C20.3839 7.81665 21.0843 8.53748 21.0843 9.41502V23.6828C21.0843 24.5682 20.3762 25.2812 19.5143 25.2812ZM8.57005 8.41996C8.03131 8.41996 7.59262 8.86656 7.59262 9.41502V23.6828C7.59262 24.2313 8.03131 24.6779 8.57005 24.6779H19.5143C20.053 24.6779 20.4917 24.2313 20.4917 23.6828V9.41502C20.4917 8.86656 20.053 8.41996 19.5143 8.41996H8.57005Z" fill="white"/>
<path d="M12.0703 10.0703H19.3942V10.6337H12.0703V10.0703Z" fill="white"/>
<path d="M12.3008 11.4509H17.3986V11.8521H12.3008V11.4509Z" fill="white"/>
<path d="M12.3008 12.8667H19.4126V13.2679H12.3008V12.8667Z" fill="white"/>
<path d="M9.24871 13.7246V11.5218H8.87109V10.8689H9.24871V10.7587C9.24871 10.4126 9.35098 10.035 9.61059 9.79896C9.83087 9.58655 10.1456 9.51575 10.3973 9.51575C10.594 9.51575 10.7513 9.53935 10.8693 9.57082L10.8379 10.2552C10.7592 10.2316 10.6648 10.2159 10.5546 10.2159C10.2636 10.2159 10.1377 10.4441 10.1377 10.7273V10.8767H10.712V11.5218H10.1456V13.7246H9.24871Z" fill="white"/>
<path d="M19.9589 19.6477H8.69141V15.1407H19.9589V19.6477ZM9.29149 19.0335H19.3509V15.747H9.29149V19.0335Z" fill="white"/>
</svg>
