<svg xmlns="http://www.w3.org/2000/svg" width="46" height="46" viewBox="0 0 46 46"><defs><style>.a{fill:#4a90e2;}.b{fill:none;stroke:#4a90e2;stroke-miterlimit:10;}</style></defs><path class="a" d="M24.35,10.38a6,6,0,0,1,3.89-2,5.94,5.94,0,0,1-1.35,4.23A5,5,0,0,1,23,14.46,5.68,5.68,0,0,1,24.35,10.38Zm7.54,21.1c-1.08,1.62-2.22,3.2-4,3.23s-2.34-1-4.35-1-2.66,1-4.34,1.07S16.15,33,15,31.42c-2.24-3.28-4-9.24-1.65-13.3a6.43,6.43,0,0,1,5.42-3.3c1.72,0,3.31,1.16,4.37,1.16s3-1.43,5-1.22a6.14,6.14,0,0,1,4.84,2.61,6,6,0,0,0-2.85,5,5.78,5.78,0,0,0,3.53,5.33A13.09,13.09,0,0,1,31.89,31.48Z"/><rect class="b" x="2.46" y="2.46" width="41.09" height="41.09" rx="7.01"/></svg>