<svg xmlns="http://www.w3.org/2000/svg" width="46" height="46" viewBox="0 0 46 46"><defs><style>.a{fill:#4a90e2;}.b{fill:none;stroke:#4a90e2;stroke-miterlimit:10;}</style></defs><path class="a" d="M11.61,28.19H10.5V25.94H8v2.25H6.84V22.66H8v2.23H10.5V22.66h1.11Zm6.32-2.41a2.22,2.22,0,0,1-2.39,2.49,2.19,2.19,0,0,1-2.37-2.45V22.66h1.12v3.12c0,.93.45,1.42,1.26,1.42s1.26-.48,1.26-1.38V22.66h1.12ZM16.22,8.59h1a6,6,0,1,0,12.08,0h1a7,7,0,1,1-14.07,0Zm7,19.59L22.67,27H20.15l-.51,1.15H18.5l2.43-5.52h1l2.42,5.52ZM20.56,26h1.7l-.85-2Zm9.67,2.15h-.94L28,24.56l-1.26,3.63h-.93l-1.92-5.53h1.19l1.22,3.8,1.25-3.8h.92l1.25,3.8L31,22.66h1.16Zm7,0H33.05V22.67h4.07v1h-3V24.8h2v1h-2v1.37h3.06Zm2.45,0H38.56V22.66h1.11Z"/><rect class="b" x="2.46" y="2.46" width="41.09" height="41.09" rx="7.01"/></svg>