<svg xmlns="http://www.w3.org/2000/svg" width="32" height="32" viewBox="0 0 32 32"><g transform="translate(-200.932 -220.963)"><path d="M16,32.1a16,16,0,1,1,16-16,16,16,0,0,1-16,16M16,1.674a14.4,14.4,0,1,0,14.4,14.4A14.4,14.4,0,0,0,16,1.674" transform="translate(200.932 220.863)" fill="#fff"/><path d="M43.391,44.326H39.635A1.035,1.035,0,0,1,38.6,43.291V39.535A1.035,1.035,0,0,1,39.635,38.5h3.756a1.035,1.035,0,0,1,1.035,1.035v3.756a1.035,1.035,0,0,1-1.035,1.035" transform="translate(171.517 191.6)" fill="#fff"/><path d="M43.391,77.226H39.635A1.035,1.035,0,0,1,38.6,76.191V72.435A1.035,1.035,0,0,1,39.635,71.4h3.756a1.035,1.035,0,0,1,1.035,1.035v3.756a1.035,1.035,0,0,1-1.035,1.035" transform="translate(171.517 166.528)" fill="#fff"/><path d="M76.291,44.326H72.535A1.035,1.035,0,0,1,71.5,43.291V39.535A1.035,1.035,0,0,1,72.535,38.5h3.756a1.035,1.035,0,0,1,1.035,1.035v3.756a1.035,1.035,0,0,1-1.035,1.035" transform="translate(146.445 191.6)" fill="#fff"/></g></svg>