<svg xmlns="http://www.w3.org/2000/svg" xmlns:xlink="http://www.w3.org/1999/xlink" width="133.244" height="32" viewBox="0 0 133.244 32"><defs><clipPath id="a"><rect width="133.244" height="32" fill="none"/></clipPath></defs><g transform="translate(66.622 16)"><g transform="translate(-66.622 -16)" clip-path="url(#a)"><path d="M156.024,47.915l1.478-2.026a6.388,6.388,0,0,0,4.7,2.05c2.145,0,2.956-1.049,2.956-2.05,0-1.382-1.716-1.788-3.623-2.264-2.36-.6-5.006-1.359-5.006-4.362,0-2.479,2.145-4.362,5.411-4.362a7.629,7.629,0,0,1,5.53,2.1l-1.478,1.931a6.054,6.054,0,0,0-4.314-1.716c-1.5,0-2.5.763-2.5,1.859s1.907,1.621,3.933,2.169,4.7,1.5,4.7,4.434c0,2.479-1.764,4.6-5.745,4.6A8.1,8.1,0,0,1,156,47.915" transform="translate(-118.816 -26.581)" fill="#fff"/><path d="M222.494,63.012V56.29c0-1.692-.858-2.217-2.193-2.217a3.442,3.442,0,0,0-2.765,1.43v7.508H215.2V52.262h2.336v1.454A5.125,5.125,0,0,1,221.35,52c2.312,0,3.48,1.239,3.48,3.456v7.556Z" transform="translate(-163.905 -39.605)" fill="#fff"/><path d="M271.722,63V61.836a4.575,4.575,0,0,1-3.5,1.454,3.758,3.758,0,0,1-3.718-3.552,3.536,3.536,0,0,1,3.718-3.528,4.147,4.147,0,0,1,3.5,1.382V55.972c0-1.239-1.049-2-2.527-2A4.314,4.314,0,0,0,266,55.352l-.977-1.621a6.293,6.293,0,0,1,4.529-1.74c2.407,0,4.505,1,4.505,3.861V63Zm0-2.455V58.928a3.171,3.171,0,0,0-2.55-1.12c-1,0-2.312.787-2.312,1.931a2.077,2.077,0,0,0,2.312,1.931,2.788,2.788,0,0,0,2.55-1.12" transform="translate(-201.453 -39.597)" fill="#fff"/><path d="M317.136,61.534v5.578H314.8V52.262h2.336V53.74A4.291,4.291,0,0,1,320.592,52c2.789,0,4.767,2.1,4.767,5.625s-1.978,5.649-4.767,5.649a4.314,4.314,0,0,1-3.456-1.74m5.816-3.909c0-2.1-1.192-3.552-3.051-3.552a3.5,3.5,0,0,0-2.765,1.43v4.243a3.5,3.5,0,0,0,2.765,1.478c1.859,0,3.051-1.5,3.051-3.575" transform="translate(-239.764 -39.605)" fill="#fff"/><path d="M365.2,47.991l1.478-2.026a6.388,6.388,0,0,0,4.7,2.074c2.145,0,2.956-1.049,2.956-2.05,0-1.359-1.668-1.764-3.528-2.241-2.384-.6-5.1-1.335-5.1-4.386,0-2.479,2.145-4.362,5.411-4.362a7.629,7.629,0,0,1,5.53,2.1l-1.478,1.931a6.054,6.054,0,0,0-4.291-1.74c-1.5,0-2.5.763-2.5,1.859s1.788,1.6,3.718,2.1c2.336.62,4.91,1.478,4.91,4.481,0,2.479-1.764,4.6-5.745,4.6a8.1,8.1,0,0,1-6.054-2.36" transform="translate(-278.15 -26.657)" fill="#fff"/><path d="M421.7,57.625A5.39,5.39,0,0,1,427.254,52a4.8,4.8,0,0,1,4.124,1.907l-1.526,1.406a2.86,2.86,0,0,0-2.479-1.239,3.256,3.256,0,0,0-3.242,3.552,3.277,3.277,0,0,0,3.242,3.575,2.884,2.884,0,0,0,2.479-1.287l1.526,1.454a4.855,4.855,0,0,1-4.124,1.907,5.4,5.4,0,0,1-5.53-5.649" transform="translate(-321.183 -39.605)" fill="#fff"/><path d="M475.522,63V61.836a4.575,4.575,0,0,1-3.5,1.454,3.758,3.758,0,0,1-3.718-3.552,3.536,3.536,0,0,1,3.718-3.528,4.147,4.147,0,0,1,3.5,1.382V55.972c0-1.239-1.049-2-2.527-2a4.314,4.314,0,0,0-3.194,1.382l-.977-1.621a6.293,6.293,0,0,1,4.529-1.74c2.407,0,4.505,1,4.505,3.861V63Zm0-2.455V58.928a3.171,3.171,0,0,0-2.551-1.12c-1,0-2.312.787-2.312,1.931a2.077,2.077,0,0,0,2.312,1.931,2.788,2.788,0,0,0,2.551-1.12" transform="translate(-356.675 -39.597)" fill="#fff"/><path d="M525.894,63.012V56.29c0-1.692-.858-2.217-2.193-2.217a3.442,3.442,0,0,0-2.765,1.43v7.508H518.6V52.262h2.336v1.454A5.125,5.125,0,0,1,524.75,52c2.312,0,3.48,1.239,3.48,3.456v7.556Z" transform="translate(-394.986 -39.605)" fill="#fff"/><path d="M15.994,32.088A15.994,15.994,0,1,1,31.988,16.094,15.994,15.994,0,0,1,15.994,32.088m0-30.415a14.4,14.4,0,1,0,14.4,14.4,14.4,14.4,0,0,0-14.4-14.4" transform="translate(0 -0.076)" fill="#fff"/><path d="M43.343,44.268H39.625A1.025,1.025,0,0,1,38.6,43.243V39.525A1.025,1.025,0,0,1,39.625,38.5h3.718a1.025,1.025,0,0,1,1.025,1.025v3.718a1.025,1.025,0,0,1-1.025,1.025" transform="translate(-29.399 -29.323)" fill="#fff"/><path d="M43.343,77.168H39.625A1.025,1.025,0,0,1,38.6,76.143V72.425A1.025,1.025,0,0,1,39.625,71.4h3.718a1.025,1.025,0,0,1,1.025,1.025v3.718a1.025,1.025,0,0,1-1.025,1.025" transform="translate(-29.399 -54.381)" fill="#fff"/><path d="M76.243,44.268H72.525A1.025,1.025,0,0,1,71.5,43.243V39.525A1.025,1.025,0,0,1,72.525,38.5h3.718a1.025,1.025,0,0,1,1.025,1.025v3.718a1.025,1.025,0,0,1-1.025,1.025" transform="translate(-54.457 -29.323)" fill="#fff"/></g></g></svg>