<svg xmlns:svg="http://www.w3.org/2000/svg" xmlns="http://www.w3.org/2000/svg" viewBox="-250 -250 500 500" height="500" width="500" overflow="visible"><path fill="none" d="M-250-250h500v500h-500z"/><svg y="-250" x="-250" viewBox="-250 -250 500 500" height="500" width="500" overflow="visible"><g stroke-linejoin="round" fill="#fff"><path stroke-linecap="round" stroke-width="40" stroke="#444" fill="none" d="M-171-171l342 342M171-171l-342 342"/><path fill="#444" d="M43.2-156.8A43.2 43.2 0 010-113.5a43.2 43.2 0 01-43.2-43.3A43.2 43.2 0 010-200a43.2 43.2 0 0143.2 43.2zM43.2 156.8A43.2 43.2 0 010 200a43.2 43.2 0 01-43.2-43.2A43.2 43.2 0 010 113.5a43.2 43.2 0 0143.2 43.3zM156.8 43.2A43.2 43.2 0 01113.5 0a43.2 43.2 0 0143.3-43.2A43.2 43.2 0 01200 0a43.2 43.2 0 01-43.2 43.2zM-156.8 43.2A43.2 43.2 0 01-200 0a43.2 43.2 0 0143.2-43.2A43.2 43.2 0 01-113.5 0a43.2 43.2 0 01-43.3 43.2z"/></g></svg></svg>