<svg width="240" height="160" viewBox="0 0 240 160" fill="none" xmlns="http://www.w3.org/2000/svg">
<path d="M231.634 0H7.61905C3.41116 0 0 3.41116 0 7.61905V152.381C0 156.589 3.41116 160 7.61905 160H231.634C235.843 160 239.253 156.589 239.253 152.381V7.61905C239.253 3.41116 235.843 0 231.634 0Z" fill="#EEEEEE"/>
<path d="M0 7.61905C0 3.41116 3.41116 0 7.61905 0H231.634C235.841 0 239.253 3.41116 239.253 7.61905V20.3175C239.253 23.1227 236.979 25.3968 234.174 25.3968H5.07935C2.27411 25.3968 0 23.1227 0 20.3175V7.61905Z" fill="#BDBDBD"/>
<path fill-rule="evenodd" clip-rule="evenodd" d="M13.3334 17.7778C15.788 17.7778 17.7778 15.788 17.7778 13.3334C17.7778 10.8788 15.788 8.88892 13.3334 8.88892C10.8788 8.88892 8.88892 10.8788 8.88892 13.3334C8.88892 15.788 10.8788 17.7778 13.3334 17.7778ZM26.0318 17.7778C28.4864 17.7778 30.4762 15.788 30.4762 13.3334C30.4762 10.8788 28.4864 8.88892 26.0318 8.88892C23.5772 8.88892 21.5873 10.8788 21.5873 13.3334C21.5873 15.788 23.5772 17.7778 26.0318 17.7778ZM43.1746 13.3334C43.1746 15.788 41.1848 17.7778 38.7302 17.7778C36.2756 17.7778 34.2857 15.788 34.2857 13.3334C34.2857 10.8788 36.2756 8.88892 38.7302 8.88892C41.1848 8.88892 43.1746 10.8788 43.1746 13.3334Z" fill="#EEEEEE"/>
<path d="M90.1587 40.6349H20.3174C17.5122 40.6349 15.238 42.9091 15.238 45.7143V139.683C15.238 142.488 17.5122 144.762 20.3174 144.762H90.1587C92.9639 144.762 95.238 142.488 95.238 139.683V45.7143C95.238 42.9091 92.9639 40.6349 90.1587 40.6349Z" fill="#9E9E9E" fill-opacity="0.32"/>
<path fill-rule="evenodd" clip-rule="evenodd" d="M68.238 83.8066C68.238 82.3336 66.988 81.1285 65.4603 81.1285H46.0158C44.4881 81.1285 43.238 82.3336 43.238 83.8066V102.554C43.238 104.027 44.4881 105.232 46.0158 105.232H65.4603C66.988 105.232 68.238 104.027 68.238 102.554V83.8066ZM49.2077 97.258C50.0766 96.1809 51.709 96.1545 52.6121 97.203C53.5159 98.252 55.1498 98.2249 56.018 97.1461L56.7724 96.2089C58.0171 94.6626 60.3787 94.6821 61.5975 96.249C63.1696 98.2698 61.7295 101.215 59.1691 101.215H50.9363C48.9592 101.215 47.8639 98.9238 49.1052 97.385L49.2077 97.258Z" fill="#EEEEEE"/>
<path fill-rule="evenodd" clip-rule="evenodd" d="M110.476 43.1746C110.476 41.772 111.613 40.6349 113.016 40.6349H170.32C171.723 40.6349 172.86 41.772 172.86 43.1746V50.7937C172.86 52.1963 171.723 53.3334 170.32 53.3334H113.016C111.613 53.3334 110.476 52.1963 110.476 50.7937V43.1746Z" fill="#BDBDBD"/>
<path d="M223.644 62.2222C223.644 60.8196 222.507 59.6826 221.105 59.6826H167.06H113.016C111.613 59.6826 110.476 60.8196 110.476 62.2222V69.8413C110.476 71.244 111.613 72.381 113.016 72.381H221.105C222.507 72.381 223.644 71.244 223.644 69.8413V62.2222Z" fill="#E0E0E0"/>
<path d="M221.475 78.7302H113.016C111.613 78.7302 110.476 79.8672 110.476 81.2698V88.8889C110.476 90.2916 111.613 91.4286 113.016 91.4286H221.475C222.877 91.4286 224.015 90.2916 224.015 88.8889V81.2698C224.015 79.8672 222.877 78.7302 221.475 78.7302Z" fill="#E0E0E0"/>
<path fill-rule="evenodd" clip-rule="evenodd" d="M117.572 110.476C121.491 110.476 124.668 107.634 124.668 104.127C124.668 100.62 121.491 97.7778 117.572 97.7778C113.653 97.7778 110.476 100.62 110.476 104.127C110.476 107.634 113.653 110.476 117.572 110.476Z" fill="#E0E0E0"/>
<path fill-rule="evenodd" clip-rule="evenodd" d="M138.861 110.476C142.78 110.476 145.957 107.634 145.957 104.127C145.957 100.62 142.78 97.7778 138.861 97.7778C134.942 97.7778 131.765 100.62 131.765 104.127C131.765 107.634 134.942 110.476 138.861 110.476Z" fill="#E0E0E0"/>
<path fill-rule="evenodd" clip-rule="evenodd" d="M160.15 110.476C164.069 110.476 167.246 107.634 167.246 104.127C167.246 100.62 164.069 97.7778 160.15 97.7778C156.23 97.7778 153.053 100.62 153.053 104.127C153.053 107.634 156.23 110.476 160.15 110.476Z" fill="#E0E0E0"/>
<path d="M168.889 126.667H115.555C113.276 126.667 111.428 128.514 111.428 130.794V139.683C111.428 141.962 113.276 143.81 115.555 143.81H168.889C171.168 143.81 173.016 141.962 173.016 139.683V130.794C173.016 128.514 171.168 126.667 168.889 126.667Z" fill="#e1d3f8" stroke="#21105d" stroke-width="1.5"/>
<path d="M233.651 0H5.07937C2.27411 0 0 2.27411 0 5.07937V154.921C0 157.726 2.27411 160 5.07937 160H233.651C236.456 160 238.73 157.726 238.73 154.921V5.07937C238.73 2.27411 236.456 0 233.651 0Z" fill="black" fill-opacity="0.24"/>
<path d="M204.444 30.4762H33.0159C30.2106 30.4762 27.9365 32.7503 27.9365 35.5556V124.444C27.9365 127.25 30.2106 129.524 33.0159 129.524H204.444C207.25 129.524 209.524 127.25 209.524 124.444V35.5556C209.524 32.7503 207.25 30.4762 204.444 30.4762Z" fill="white"/>
<path d="M60.5291 42.562H34.2857C33.5844 42.562 33.0159 43.1305 33.0159 43.8319C33.0159 44.5332 33.5844 45.1017 34.2857 45.1017H60.5291C61.2305 45.1017 61.799 44.5332 61.799 43.8319C61.799 43.1305 61.2305 42.562 60.5291 42.562Z" fill="#BDBDBD"/>
<path d="M94.3917 42.562H68.1483C67.4469 42.562 66.8784 43.1305 66.8784 43.8319C66.8784 44.5332 67.4469 45.1017 68.1483 45.1017H94.3917C95.093 45.1017 95.6615 44.5332 95.6615 43.8319C95.6615 43.1305 95.093 42.562 94.3917 42.562Z" fill="#21105d"/>
<path d="M128.254 42.562H102.011C101.309 42.562 100.741 43.1305 100.741 43.8319C100.741 44.5332 101.309 45.1017 102.011 45.1017H128.254C128.955 45.1017 129.524 44.5332 129.524 43.8319C129.524 43.1305 128.955 42.562 128.254 42.562Z" fill="#BDBDBD"/>
<path d="M136.508 30.4686L137.793 138.405" stroke="#9E9E9E" stroke-opacity="0.24"/>
<path d="M159.98 42.5223H142.243C141.53 42.5223 140.952 42.9223 140.952 43.4155V59.9399C140.952 60.4333 141.53 60.8331 142.243 60.8331H159.98C160.692 60.8331 161.27 60.4333 161.27 59.9399V43.4155C161.27 42.9223 160.692 42.5223 159.98 42.5223Z" fill="#9E9E9E" fill-opacity="0.32"/>
<path fill-rule="evenodd" clip-rule="evenodd" d="M154.921 48.9392C154.921 48.5087 154.54 48.1566 154.074 48.1566H148.148C147.682 48.1566 147.302 48.5087 147.302 48.9392V54.4167C147.302 54.8471 147.682 55.1992 148.148 55.1992H154.074C154.54 55.1992 154.921 54.8471 154.921 54.4167V48.9392ZM149.629 52.2647L150.688 53.4424L152.169 51.6779L154.074 54.0255H148.148L149.629 52.2647Z" fill="#EEEEEE"/>
<path fill-rule="evenodd" clip-rule="evenodd" d="M165.079 44.1321C165.079 43.243 165.585 42.5223 166.21 42.5223H188.076C188.701 42.5223 189.206 43.243 189.206 44.1321V46.5467C189.206 47.4357 188.701 48.1564 188.076 48.1564H166.21C165.585 48.1564 165.079 47.4357 165.079 46.5467V44.1321Z" fill="#9E9E9E" fill-opacity="0.32"/>
<path fill-rule="evenodd" clip-rule="evenodd" d="M165.079 52.1808C165.079 51.514 165.585 50.9734 166.208 50.9734H199.506C200.129 50.9734 200.635 51.514 200.635 52.1808V53.9917C200.635 54.6585 200.129 55.199 199.506 55.199H166.208C165.585 55.199 165.079 54.6585 165.079 53.9917V52.1808Z" fill="#E0E0E0"/>
<path fill-rule="evenodd" clip-rule="evenodd" d="M165.079 57.8151C165.079 57.1483 165.577 56.6077 166.192 56.6077H195.713C196.328 56.6077 196.825 57.1483 196.825 57.8151V59.626C196.825 60.2928 196.328 60.8334 195.713 60.8334H166.192C165.577 60.8334 165.079 60.2928 165.079 59.626V57.8151Z" fill="#E0E0E0"/>
<path d="M159.98 65.0583H142.243C141.53 65.0583 140.952 65.4582 140.952 65.9515V82.4759C140.952 82.9691 141.53 83.3691 142.243 83.3691H159.98C160.692 83.3691 161.27 82.9691 161.27 82.4759V65.9515C161.27 65.4582 160.692 65.0583 159.98 65.0583Z" fill="#9E9E9E" fill-opacity="0.32"/>
<path fill-rule="evenodd" clip-rule="evenodd" d="M154.921 71.475C154.921 71.0447 154.54 70.6926 154.074 70.6926H148.148C147.682 70.6926 147.302 71.0447 147.302 71.475V76.9526C147.302 77.3831 147.682 77.7352 148.148 77.7352H154.074C154.54 77.7352 154.921 77.3831 154.921 76.9526V71.475ZM149.629 74.8008L150.688 75.9784L152.169 74.2138L154.074 76.5614H148.148L149.629 74.8008Z" fill="#EEEEEE"/>
<path fill-rule="evenodd" clip-rule="evenodd" d="M165.079 66.6681C165.079 65.7789 165.585 65.0583 166.21 65.0583H188.076C188.701 65.0583 189.206 65.7789 189.206 66.6681V69.0827C189.206 69.9717 188.701 70.6923 188.076 70.6923H166.21C165.585 70.6923 165.079 69.9717 165.079 69.0827V66.6681Z" fill="#9E9E9E" fill-opacity="0.32"/>
<path fill-rule="evenodd" clip-rule="evenodd" d="M140.952 107.733C140.952 106.844 141.458 106.124 142.083 106.124H163.949C164.574 106.124 165.079 106.844 165.079 107.733V110.148C165.079 111.037 164.574 111.758 163.949 111.758H142.083C141.458 111.758 140.952 111.037 140.952 110.148V107.733Z" fill="#9E9E9E" fill-opacity="0.32"/>
<path fill-rule="evenodd" clip-rule="evenodd" d="M189.206 107.653C189.206 106.808 189.446 106.124 189.742 106.124H200.099C200.395 106.124 200.635 106.808 200.635 107.653V109.948C200.635 110.793 200.395 111.477 200.099 111.477H189.742C189.446 111.477 189.206 110.793 189.206 109.948V107.653Z" fill="#9E9E9E" fill-opacity="0.32"/>
<path fill-rule="evenodd" clip-rule="evenodd" d="M165.079 74.7167C165.079 74.0499 165.585 73.5095 166.208 73.5095H199.506C200.129 73.5095 200.635 74.0499 200.635 74.7167V76.5277C200.635 77.1945 200.129 77.735 199.506 77.735H166.208C165.585 77.735 165.079 77.1945 165.079 76.5277V74.7167Z" fill="#E0E0E0"/>
<path fill-rule="evenodd" clip-rule="evenodd" d="M140.952 93.886C140.952 93.2523 141.187 92.7386 141.477 92.7386H156.936C157.225 92.7386 157.46 93.2523 157.46 93.886V95.6068C157.46 96.2405 157.225 96.7541 156.936 96.7541H141.477C141.187 96.7541 140.952 96.2405 140.952 95.6068V93.886Z" fill="#E0E0E0"/>
<path fill-rule="evenodd" clip-rule="evenodd" d="M194.286 93.886C194.286 93.2523 194.376 92.7386 194.488 92.7386H200.433C200.545 92.7386 200.635 93.2523 200.635 93.886V95.6068C200.635 96.2405 200.545 96.7541 200.433 96.7541H194.488C194.376 96.7541 194.286 96.2405 194.286 95.6068V93.886Z" fill="#E0E0E0"/>
<path fill-rule="evenodd" clip-rule="evenodd" d="M194.286 100.579C194.286 99.945 194.376 99.4313 194.488 99.4313H200.433C200.545 99.4313 200.635 99.945 200.635 100.579V102.3C200.635 102.933 200.545 103.447 200.433 103.447H194.488C194.376 103.447 194.286 102.933 194.286 102.3V100.579Z" fill="#E0E0E0"/>
<path fill-rule="evenodd" clip-rule="evenodd" d="M140.952 100.579C140.952 99.945 141.277 99.4313 141.677 99.4313H163.084C163.484 99.4313 163.81 99.945 163.81 100.579V102.3C163.81 102.933 163.484 103.447 163.084 103.447H141.677C141.277 103.447 140.952 102.933 140.952 102.3V100.579Z" fill="#E0E0E0"/>
<path fill-rule="evenodd" clip-rule="evenodd" d="M165.079 80.351C165.079 79.6842 165.577 79.1437 166.192 79.1437H195.713C196.328 79.1437 196.825 79.6842 196.825 80.351V82.162C196.825 82.8288 196.328 83.3693 195.713 83.3693H166.192C165.577 83.3693 165.079 82.8288 165.079 82.162V80.351Z" fill="#E0E0E0"/>
<path d="M67.619 112.759H95.5555C97.453 112.759 99.0476 114.39 99.0476 116.474V119.151C99.0476 121.234 97.453 122.866 95.5555 122.866H67.619C65.7215 122.866 64.127 121.234 64.127 119.151V116.474C64.127 114.39 65.7215 112.759 67.619 112.759Z" fill="#e1d3f8" stroke="#21105d"/>
<path d="M34.2858 60.3174H129.524" stroke="#E0E0E0"/>
<path d="M34.2858 70.4762H129.524" stroke="#E0E0E0"/>
<path d="M41.9048 57.7778C43.3074 57.7778 44.4445 56.6407 44.4445 55.2381C44.4445 53.8355 43.3074 52.6984 41.9048 52.6984C40.5022 52.6984 39.3651 53.8355 39.3651 55.2381C39.3651 56.6407 40.5022 57.7778 41.9048 57.7778Z" fill="#21105d"/>
<path d="M41.8796 57.1174C42.9316 57.1174 43.7844 56.2647 43.7844 55.2127C43.7844 54.1607 42.9316 53.3079 41.8796 53.3079C40.8276 53.3079 39.9749 54.1607 39.9749 55.2127C39.9749 56.2647 40.8276 57.1174 41.8796 57.1174Z" fill="white"/>
<path d="M41.9048 56.7623C42.7464 56.7623 43.4286 56.08 43.4286 55.2385C43.4286 54.3969 42.7464 53.7147 41.9048 53.7147C41.0632 53.7147 40.381 54.3969 40.381 55.2385C40.381 56.08 41.0632 56.7623 41.9048 56.7623Z" fill="#21105d"/>
<path d="M41.9048 67.9365C43.3074 67.9365 44.4445 66.7994 44.4445 65.3968C44.4445 63.9942 43.3074 62.8571 41.9048 62.8571C40.5022 62.8571 39.3651 63.9942 39.3651 65.3968C39.3651 66.7994 40.5022 67.9365 41.9048 67.9365Z" fill="#9E9E9E"/>
<path d="M41.8796 67.2762C42.9316 67.2762 43.7844 66.4234 43.7844 65.3714C43.7844 64.3195 42.9316 63.4667 41.8796 63.4667C40.8276 63.4667 39.9749 64.3195 39.9749 65.3714C39.9749 66.4234 40.8276 67.2762 41.8796 67.2762Z" fill="white"/>
<path d="M41.9048 78.0952C43.3074 78.0952 44.4445 76.9582 44.4445 75.5556C44.4445 74.1529 43.3074 73.0159 41.9048 73.0159C40.5022 73.0159 39.3651 74.1529 39.3651 75.5556C39.3651 76.9582 40.5022 78.0952 41.9048 78.0952Z" fill="#9E9E9E"/>
<path d="M41.8796 77.4349C42.9316 77.4349 43.7844 76.5821 43.7844 75.5301C43.7844 74.4782 42.9316 73.6254 41.8796 73.6254C40.8276 73.6254 39.9749 74.4782 39.9749 75.5301C39.9749 76.5821 40.8276 77.4349 41.8796 77.4349Z" fill="white"/>
<path fill-rule="evenodd" clip-rule="evenodd" d="M46.9841 54.1497C46.9841 53.3482 47.49 52.6984 48.1142 52.6984H69.9811C70.6052 52.6984 71.1111 53.3482 71.1111 54.1497V56.3265C71.1111 57.128 70.6052 57.7778 69.9811 57.7778H48.1142C47.49 57.7778 46.9841 57.128 46.9841 56.3265V54.1497Z" fill="#9E9E9E" fill-opacity="0.32"/>
<path fill-rule="evenodd" clip-rule="evenodd" d="M115.556 53.5148C115.556 52.7133 115.715 52.0635 115.912 52.0635H122.818C123.015 52.0635 123.175 52.7133 123.175 53.5148V55.6915C123.175 56.4931 123.015 57.1428 122.818 57.1428H115.912C115.715 57.1428 115.556 56.4931 115.556 55.6915V53.5148Z" fill="#9E9E9E" fill-opacity="0.32"/>
<path fill-rule="evenodd" clip-rule="evenodd" d="M115.556 63.6735C115.556 62.872 115.715 62.2222 115.912 62.2222H122.818C123.015 62.2222 123.175 62.872 123.175 63.6735V65.8503C123.175 66.6518 123.015 67.3016 122.818 67.3016H115.912C115.715 67.3016 115.556 66.6518 115.556 65.8503V63.6735Z" fill="#9E9E9E" fill-opacity="0.32"/>
<path fill-rule="evenodd" clip-rule="evenodd" d="M115.556 73.8322C115.556 73.0307 115.715 72.3809 115.912 72.3809H122.818C123.015 72.3809 123.175 73.0307 123.175 73.8322V76.009C123.175 76.8105 123.015 77.4603 122.818 77.4603H115.912C115.715 77.4603 115.556 76.8105 115.556 76.009V73.8322Z" fill="#9E9E9E" fill-opacity="0.32"/>
<path fill-rule="evenodd" clip-rule="evenodd" d="M46.9841 63.6735C46.9841 62.872 47.6498 62.2222 48.4711 62.2222H77.2432C78.0645 62.2222 78.7302 62.872 78.7302 63.6735V65.8503C78.7302 66.6518 78.0645 67.3016 77.2432 67.3016H48.4711C47.6498 67.3016 46.9841 66.6518 46.9841 65.8503V63.6735Z" fill="#9E9E9E" fill-opacity="0.32"/>
<path fill-rule="evenodd" clip-rule="evenodd" d="M46.9841 73.8322C46.9841 73.0307 47.3835 72.3809 47.8763 72.3809H65.1396C65.6324 72.3809 66.0317 73.0307 66.0317 73.8322V76.009C66.0317 76.8105 65.6324 77.4603 65.1396 77.4603H47.8763C47.3835 77.4603 46.9841 76.8105 46.9841 76.009V73.8322Z" fill="#9E9E9E" fill-opacity="0.32"/>
<path d="M126.984 50.1588H35.5555C34.5035 50.1588 33.6508 51.0115 33.6508 52.0635V78.7302C33.6508 79.7822 34.5035 80.6349 35.5555 80.6349H126.984C128.036 80.6349 128.889 79.7822 128.889 78.7302V52.0635C128.889 51.0115 128.036 50.1588 126.984 50.1588Z" stroke="#E0E0E0"/>
<path d="M51.0154 91.4286H36.6037C36.0247 91.4286 35.5555 91.7614 35.5555 92.172V105.923C35.5555 106.334 36.0247 106.667 36.6037 106.667H51.0154C51.5943 106.667 52.0635 106.334 52.0635 105.923V92.172C52.0635 91.7614 51.5943 91.4286 51.0154 91.4286Z" fill="#9E9E9E" fill-opacity="0.32"/>
<path fill-rule="evenodd" clip-rule="evenodd" d="M46.9048 96.7685C46.9048 96.4103 46.5952 96.1174 46.217 96.1174H41.4022C41.0239 96.1174 40.7144 96.4103 40.7144 96.7685V101.327C40.7144 101.685 41.0239 101.978 41.4022 101.978H46.217C46.5952 101.978 46.9048 101.685 46.9048 101.327V96.7685ZM42.6059 99.5362L43.4657 100.516L44.6694 99.0478L46.217 101.001H41.4022L42.6059 99.5362Z" fill="#EEEEEE"/>
<path fill-rule="evenodd" clip-rule="evenodd" d="M54.6033 92.6565C54.6033 91.9783 55.0016 91.4286 55.4929 91.4286H72.7073C73.1986 91.4286 73.5968 91.9783 73.5968 92.6565V94.4984C73.5968 95.1767 73.1986 95.7265 72.7073 95.7265H55.4929C55.0016 95.7265 54.6033 95.1767 54.6033 94.4984V92.6565Z" fill="#9E9E9E" fill-opacity="0.32"/>
<path fill-rule="evenodd" clip-rule="evenodd" d="M54.6033 97.9175C54.6033 97.4089 55.0011 96.9966 55.4919 96.9966H81.7052C82.1962 96.9966 82.5939 97.4089 82.5939 97.9175V99.2989C82.5939 99.8076 82.1962 100.22 81.7052 100.22H55.4919C55.0011 100.22 54.6033 99.8076 54.6033 99.2989V97.9175Z" fill="#E0E0E0"/>
<path d="M56.508 101.807H80.6349C81.4711 101.807 81.8216 102.013 81.9906 102.245C82.1786 102.503 82.2222 102.887 82.2222 103.432V104.627C82.2222 105.171 82.1786 105.555 81.9906 105.813C81.8216 106.045 81.4711 106.251 80.6349 106.251H56.508C55.6718 106.251 55.3213 106.045 55.1523 105.813C54.9643 105.555 54.9207 105.171 54.9207 104.627V103.432C54.9207 102.887 54.9643 102.503 55.1523 102.245C55.3213 102.013 55.6718 101.807 56.508 101.807Z" fill="#e1d3f8" stroke="#21105d" stroke-width="0.5"/>
<path d="M69.8411 104.241H68.7829V105.299C68.7829 105.416 68.6877 105.511 68.5712 105.511C68.4549 105.511 68.3597 105.416 68.3597 105.299V104.241H67.3014C67.1851 104.241 67.0898 104.146 67.0898 104.029C67.0898 103.913 67.1851 103.818 67.3014 103.818H68.3597V102.759C68.3597 102.643 68.4549 102.548 68.5712 102.548C68.6877 102.548 68.7829 102.643 68.7829 102.759V103.818H69.8411C69.9575 103.818 70.0528 103.913 70.0528 104.029C70.0528 104.146 69.9575 104.241 69.8411 104.241Z" fill="white"/>
<path d="M82.5938 89.2064H35.5556C34.3283 89.2064 33.3334 90.2013 33.3334 91.4286V106.667C33.3334 107.894 34.3283 108.889 35.5556 108.889H82.5938C83.8211 108.889 84.816 107.894 84.816 106.667V91.4286C84.816 90.2013 83.8211 89.2064 82.5938 89.2064Z" stroke="#E0E0E0" stroke-width="0.5"/>
<path d="M106.889 91.4286H92.4768C91.8979 91.4286 91.4287 91.7614 91.4287 92.172V105.923C91.4287 106.334 91.8979 106.667 92.4768 106.667H106.889C107.467 106.667 107.937 106.334 107.937 105.923V92.172C107.937 91.7614 107.467 91.4286 106.889 91.4286Z" fill="#9E9E9E" fill-opacity="0.32"/>
<path fill-rule="evenodd" clip-rule="evenodd" d="M102.778 96.7685C102.778 96.4103 102.468 96.1174 102.09 96.1174H97.2753C96.897 96.1174 96.5874 96.4103 96.5874 96.7685V101.327C96.5874 101.685 96.897 101.978 97.2753 101.978H102.09C102.468 101.978 102.778 101.685 102.778 101.327V96.7685ZM98.479 99.5362L99.3388 100.516L100.542 99.0478L102.09 101.001H97.2753L98.479 99.5362Z" fill="#EEEEEE"/>
<path fill-rule="evenodd" clip-rule="evenodd" d="M110.476 92.6565C110.476 91.9783 110.875 91.4286 111.366 91.4286H128.58C129.072 91.4286 129.469 91.9783 129.469 92.6565V94.4984C129.469 95.1767 129.072 95.7265 128.58 95.7265H111.366C110.875 95.7265 110.476 95.1767 110.476 94.4984V92.6565Z" fill="#9E9E9E" fill-opacity="0.32"/>
<path fill-rule="evenodd" clip-rule="evenodd" d="M110.5 97.8571C110.5 97.3837 110.77 97 111.103 97H128.897C129.229 97 129.5 97.3837 129.5 97.8571V99.1428C129.5 99.6162 129.229 100 128.897 100H111.103C110.77 100 110.5 99.6162 110.5 99.1428V97.8571Z" fill="#E0E0E0"/>
<path d="M112.047 102H127.953C128.505 102 128.735 102.209 128.848 102.444C128.972 102.705 129 103.094 129 103.645V104.855C129 105.406 128.972 105.795 128.848 106.056C128.735 106.291 128.505 106.5 127.953 106.5H112.047C111.495 106.5 111.264 106.291 111.153 106.056C111.029 105.795 111 105.406 111 104.855V103.645C111 103.094 111.029 102.705 111.153 102.444C111.264 102.209 111.495 102 112.047 102Z" fill="#e1d3f8" stroke="#21105d" stroke-width="0.5"/>
<path d="M125.714 104.241H124.656V105.299C124.656 105.416 124.561 105.511 124.444 105.511C124.328 105.511 124.233 105.416 124.233 105.299V104.241H123.174C123.058 104.241 122.963 104.146 122.963 104.029C122.963 103.913 123.058 103.818 123.174 103.818H124.233V102.759C124.233 102.643 124.328 102.548 124.444 102.548C124.561 102.548 124.656 102.643 124.656 102.759V103.818H125.714C125.831 103.818 125.926 103.913 125.926 104.029C125.926 104.146 125.831 104.241 125.714 104.241Z" fill="white"/>
<path d="M89.2063 106.667C89.2063 107.894 90.2012 108.889 91.4285 108.889H129.25V89.2064H91.4285C90.2012 89.2064 89.2063 90.2013 89.2063 91.4286V106.667Z" stroke="#E0E0E0" stroke-width="0.5"/>
<path d="M129.524 88.8889H116.825V109.206H129.524V88.8889Z" fill="url(#paint0_linear_1033_9352)"/>
<path d="M33.1945 87.6191V84.8485H34.3904C34.596 84.8485 34.7759 84.886 34.9302 84.9608C35.0844 85.0357 35.2044 85.1434 35.2899 85.2841C35.3757 85.4248 35.4185 85.5934 35.4185 85.7901C35.4185 85.9884 35.3743 86.1558 35.2859 86.2919C35.1985 86.4281 35.0753 86.5309 34.9166 86.6004C34.7588 86.6698 34.5744 86.7045 34.3633 86.7045H33.6491V86.1201H34.2119C34.3002 86.1201 34.3755 86.1093 34.4378 86.0876C34.5009 86.0651 34.5491 86.0295 34.5825 85.9808C34.6168 85.9321 34.6338 85.8684 34.6338 85.7901C34.6338 85.7107 34.6168 85.6462 34.5825 85.5966C34.5491 85.546 34.5009 85.5091 34.4378 85.4857C34.3755 85.4613 34.3002 85.4491 34.2119 85.4491H33.9467V87.6191H33.1945ZM34.8178 86.3474L35.5105 87.6191H34.6934L34.0171 86.3474H34.8178ZM35.9931 87.6191V84.8485H37.9899V85.4546H36.7453V85.9308H37.887V86.5368H36.7453V87.013H37.9844V87.6191H35.9931ZM41.2035 85.8875H40.4404C40.4351 85.8243 40.4206 85.767 40.3971 85.7157C40.3746 85.6643 40.343 85.6201 40.3025 85.5831C40.2628 85.5451 40.2145 85.5163 40.1578 85.4965C40.1009 85.4757 40.0364 85.4654 39.9642 85.4654C39.838 85.4654 39.7311 85.496 39.6436 85.5573C39.5571 85.6187 39.4912 85.7067 39.4461 85.8212C39.402 85.9357 39.3799 86.0733 39.3799 86.2338C39.3799 86.4033 39.4025 86.5454 39.4475 86.6599C39.4935 86.7736 39.5598 86.8592 39.6464 86.917C39.7329 86.9737 39.8371 87.0022 39.9589 87.0022C40.0282 87.0022 40.0906 86.9937 40.1456 86.9765C40.2006 86.9585 40.2483 86.9327 40.2889 86.8993C40.3296 86.866 40.3625 86.8259 40.3877 86.7789C40.4139 86.7312 40.4314 86.6775 40.4404 86.6179L41.2035 86.6234C41.1945 86.7406 41.1614 86.8601 41.1047 86.9818C41.0479 87.1027 40.9672 87.2146 40.8625 87.3173C40.7588 87.4193 40.6303 87.5013 40.477 87.5636C40.3236 87.6258 40.1456 87.6569 39.9426 87.6569C39.6883 87.6569 39.4601 87.6024 39.2581 87.4932C39.0569 87.3841 38.8978 87.2236 38.7805 87.0117C38.6642 86.7997 38.606 86.5405 38.606 86.2338C38.606 85.9253 38.6656 85.6655 38.7846 85.4546C38.9037 85.2427 39.0642 85.0825 39.2662 84.9743C39.4682 84.8651 39.6938 84.8107 39.9426 84.8107C40.1176 84.8107 40.2785 84.8345 40.4256 84.8823C40.5726 84.9302 40.7015 85 40.8125 85.0919C40.9233 85.1831 41.0127 85.2954 41.0803 85.4288C41.148 85.5623 41.189 85.7152 41.2035 85.8875ZM44.4826 86.2338C44.4826 86.5422 44.4227 86.8024 44.3028 87.0144C44.1828 87.2254 44.0209 87.3855 43.8171 87.4946C43.6133 87.6028 43.386 87.6569 43.1353 87.6569C42.8827 87.6569 42.6545 87.6024 42.4507 87.4932C42.2478 87.3832 42.0864 87.2227 41.9664 87.0117C41.8474 86.7997 41.7879 86.5405 41.7879 86.2338C41.7879 85.9253 41.8474 85.6655 41.9664 85.4546C42.0864 85.2427 42.2478 85.0825 42.4507 84.9743C42.6545 84.8651 42.8827 84.8107 43.1353 84.8107C43.386 84.8107 43.6133 84.8651 43.8171 84.9743C44.0209 85.0825 44.1828 85.2427 44.3028 85.4546C44.4227 85.6655 44.4826 85.9253 44.4826 86.2338ZM43.7089 86.2338C43.7089 86.0678 43.6868 85.928 43.6426 85.8143C43.5993 85.6998 43.5348 85.6133 43.4491 85.5547C43.3644 85.4951 43.2597 85.4654 43.1353 85.4654C43.0108 85.4654 42.9057 85.4951 42.82 85.5547C42.7353 85.6133 42.6708 85.6998 42.6266 85.8143C42.5833 85.928 42.5617 86.0678 42.5617 86.2338C42.5617 86.3998 42.5833 86.5399 42.6266 86.6545C42.6708 86.7681 42.7353 86.8547 42.82 86.9143C42.9057 86.9728 43.0108 87.0022 43.1353 87.0022C43.2597 87.0022 43.3644 86.9728 43.4491 86.9143C43.5348 86.8547 43.5993 86.7681 43.6426 86.6545C43.6868 86.5399 43.7089 86.3998 43.7089 86.2338ZM45.0846 84.8485H46.0207L46.6647 86.4178H46.6972L47.3411 84.8485H48.2773V87.6191H47.5414V86.0173H47.5197L46.9028 87.5975H46.4591L45.8422 86.0065H45.8205V87.6191H45.0846V84.8485ZM48.8877 84.8485H49.8238L50.4677 86.4178H50.5002L51.1442 84.8485H52.0803V87.6191H51.3444V86.0173H51.3227L50.7058 87.5975H50.2621L49.6453 86.0065H49.6237V87.6191H48.8877V84.8485ZM52.6907 87.6191V84.8485H54.6875V85.4546H53.443V85.9308H54.5847V86.5368H53.443V87.013H54.6821V87.6191H52.6907ZM57.7117 84.8485V87.6191H57.084L56.083 86.1634H56.0667V87.6191H55.3146V84.8485H55.9531L56.938 86.2987H56.9595V84.8485H57.7117ZM59.3875 87.6191H58.3214V84.8485H59.3767C59.6616 84.8485 59.9079 84.904 60.1153 85.0149C60.3236 85.125 60.4842 85.2837 60.5969 85.4911C60.7105 85.6977 60.7674 85.9452 60.7674 86.2338C60.7674 86.5224 60.711 86.7704 60.5983 86.9778C60.4855 87.1844 60.3259 87.3431 60.1194 87.454C59.9128 87.5641 59.6689 87.6191 59.3875 87.6191ZM59.0737 86.9806H59.3604C59.4976 86.9806 59.6143 86.9585 59.7108 86.9143C59.8082 86.8701 59.8822 86.7938 59.9326 86.6856C59.984 86.5774 60.0098 86.4268 60.0098 86.2338C60.0098 86.0408 59.9837 85.8902 59.9313 85.782C59.8799 85.6737 59.8041 85.5975 59.704 85.5533C59.6049 85.5091 59.4831 85.487 59.3388 85.487H59.0737V86.9806ZM61.3693 87.6191V84.8485H63.3661V85.4546H62.1214V85.9308H63.2633V86.5368H62.1214V87.013H63.3607V87.6191H61.3693ZM65.0591 87.6191H63.9931V84.8485H65.0483C65.3333 84.8485 65.5795 84.904 65.787 85.0149C65.9952 85.125 66.1559 85.2837 66.2685 85.4911C66.3821 85.6977 66.439 85.9452 66.439 86.2338C66.439 86.5224 66.3826 86.7704 66.2699 86.9778C66.1571 87.1844 65.9975 87.3431 65.791 87.454C65.5844 87.5641 65.3405 87.6191 65.0591 87.6191ZM64.7453 86.9806H65.032C65.1692 86.9806 65.2859 86.9585 65.3824 86.9143C65.4798 86.8701 65.5538 86.7938 65.6044 86.6856C65.6557 86.5774 65.6814 86.4268 65.6814 86.2338C65.6814 86.0408 65.6553 85.8902 65.603 85.782C65.5515 85.6737 65.4757 85.5975 65.3757 85.5533C65.2765 85.5091 65.1547 85.487 65.0105 85.487H64.7453V86.9806ZM68.0539 87.6191V84.8485H69.2497C69.4554 84.8485 69.6353 84.889 69.7895 84.9703C69.9438 85.0514 70.0637 85.1655 70.1494 85.3125C70.2351 85.4596 70.2779 85.6314 70.2779 85.8279C70.2779 86.0263 70.2337 86.1981 70.1453 86.3434C70.0578 86.4885 69.9348 86.6004 69.776 86.6789C69.6182 86.7573 69.4337 86.7966 69.2226 86.7966H68.5084V86.2121H69.0712C69.1595 86.2121 69.2348 86.1968 69.2971 86.1661C69.3602 86.1346 69.4084 86.0899 69.4418 86.0323C69.4761 85.9745 69.4933 85.9064 69.4933 85.8279C69.4933 85.7486 69.4761 85.6809 69.4418 85.625C69.4084 85.5681 69.3602 85.525 69.2971 85.4951C69.2348 85.4645 69.1595 85.4491 69.0712 85.4491H68.806V87.6191H68.0539ZM70.8078 87.6191V84.8485H72.0037C72.2093 84.8485 72.3893 84.886 72.5435 84.9608C72.6977 85.0357 72.8177 85.1434 72.9033 85.2841C72.989 85.4248 73.0319 85.5934 73.0319 85.7901C73.0319 85.9884 72.9877 86.1558 72.8993 86.2919C72.8119 86.4281 72.6887 86.5309 72.5299 86.6004C72.3721 86.6698 72.1877 86.7045 71.9767 86.7045H71.2624V86.1201H71.8252C71.9136 86.1201 71.9889 86.1093 72.0511 86.0876C72.1142 86.0651 72.1625 86.0295 72.1959 85.9808C72.2301 85.9321 72.2473 85.8684 72.2473 85.7901C72.2473 85.7107 72.2301 85.6462 72.1959 85.5966C72.1625 85.546 72.1142 85.5091 72.0511 85.4857C71.9889 85.4613 71.9136 85.4491 71.8252 85.4491H71.56V87.6191H70.8078ZM72.4312 86.3474L73.1239 87.6191H72.3067L71.6304 86.3474H72.4312ZM76.2905 86.2338C76.2905 86.5422 76.2304 86.8024 76.1105 87.0144C75.9905 87.2254 75.8286 87.3855 75.6248 87.4946C75.421 87.6028 75.1937 87.6569 74.943 87.6569C74.6905 87.6569 74.4623 87.6024 74.2585 87.4932C74.0555 87.3832 73.8941 87.2227 73.7741 87.0117C73.6552 86.7997 73.5956 86.5405 73.5956 86.2338C73.5956 85.9253 73.6552 85.6655 73.7741 85.4546C73.8941 85.2427 74.0555 85.0825 74.2585 84.9743C74.4623 84.8651 74.6905 84.8107 74.943 84.8107C75.1937 84.8107 75.421 84.8651 75.6248 84.9743C75.8286 85.0825 75.9905 85.2427 76.1105 85.4546C76.2304 85.6655 76.2905 85.9253 76.2905 86.2338ZM75.5166 86.2338C75.5166 86.0678 75.4945 85.928 75.4503 85.8143C75.407 85.6998 75.3425 85.6133 75.2569 85.5547C75.1721 85.4951 75.0675 85.4654 74.943 85.4654C74.8186 85.4654 74.7134 85.4951 74.6279 85.5547C74.543 85.6133 74.4785 85.6998 74.4343 85.8143C74.391 85.928 74.3694 86.0678 74.3694 86.2338C74.3694 86.3998 74.391 86.5399 74.4343 86.6545C74.4785 86.7681 74.543 86.8547 74.6279 86.9143C74.7134 86.9728 74.8186 87.0022 74.943 87.0022C75.0675 87.0022 75.1721 86.9728 75.2569 86.9143C75.3425 86.8547 75.407 86.7681 75.4503 86.6545C75.4945 86.5399 75.5166 86.3998 75.5166 86.2338ZM78.532 84.8485H79.2842V86.6234C79.2842 86.8344 79.2337 87.017 79.1326 87.1713C79.0326 87.3246 78.8927 87.4432 78.7133 87.5271C78.5338 87.61 78.3255 87.6516 78.0883 87.6516C77.8493 87.6516 77.64 87.61 77.4606 87.5271C77.2811 87.4432 77.1414 87.3246 77.0412 87.1713C76.942 87.017 76.8924 86.8344 76.8924 86.6234V84.8485H77.6446V86.5585C77.6446 86.6441 77.6635 86.7208 77.7014 86.7885C77.7392 86.8551 77.7915 86.9074 77.8583 86.9454C77.926 86.9832 78.0026 87.0022 78.0883 87.0022C78.1749 87.0022 78.2515 86.9832 78.3183 86.9454C78.3851 86.9074 78.4374 86.8551 78.4752 86.7885C78.5131 86.7208 78.532 86.6441 78.532 86.5585V84.8485ZM80.9617 87.6191H79.8957V84.8485H80.9508C81.2359 84.8485 81.4821 84.904 81.6894 85.0149C81.8978 85.125 82.0583 85.2837 82.1711 85.4911C82.2847 85.6977 82.3415 85.9452 82.3415 86.2338C82.3415 86.5224 82.2851 86.7704 82.1724 86.9778C82.0597 87.1844 81.9001 87.3431 81.6935 87.454C81.487 87.5641 81.2431 87.6191 80.9617 87.6191ZM80.6478 86.9806H80.9346C81.0717 86.9806 81.1885 86.9585 81.285 86.9143C81.3824 86.8701 81.4563 86.7938 81.5068 86.6856C81.5583 86.5774 81.5839 86.4268 81.5839 86.2338C81.5839 86.0408 81.5578 85.8902 81.5054 85.782C81.454 85.6737 81.3783 85.5975 81.2783 85.5533C81.179 85.5091 81.0572 85.487 80.9129 85.487H80.6478V86.9806ZM85.5301 85.8875H84.767C84.7617 85.8243 84.7472 85.767 84.7239 85.7157C84.7013 85.6643 84.6696 85.6201 84.6291 85.5831C84.5894 85.5451 84.5411 85.5163 84.4844 85.4965C84.4275 85.4757 84.3631 85.4654 84.2908 85.4654C84.1646 85.4654 84.0578 85.496 83.9703 85.5573C83.8837 85.6187 83.8178 85.7067 83.7727 85.8212C83.7286 85.9357 83.7065 86.0733 83.7065 86.2338C83.7065 86.4033 83.7291 86.5454 83.7741 86.6599C83.8201 86.7736 83.8864 86.8592 83.973 86.917C84.0596 86.9737 84.1637 87.0022 84.2855 87.0022C84.355 87.0022 84.4172 86.9937 84.4722 86.9765C84.5272 86.9585 84.575 86.9327 84.6155 86.8993C84.6562 86.866 84.6891 86.8259 84.7143 86.7789C84.7405 86.7312 84.758 86.6775 84.767 86.6179L85.5301 86.6234C85.5211 86.7406 85.4882 86.8601 85.4313 86.9818C85.3745 87.1027 85.2938 87.2146 85.1891 87.3173C85.0855 87.4193 84.957 87.5013 84.8036 87.5636C84.6503 87.6258 84.4722 87.6569 84.2692 87.6569C84.0149 87.6569 83.7867 87.6024 83.5847 87.4932C83.3837 87.3841 83.2244 87.2236 83.1072 87.0117C82.9909 86.7997 82.9326 86.5405 82.9326 86.2338C82.9326 85.9253 82.9922 85.6655 83.1113 85.4546C83.2303 85.2427 83.3908 85.0825 83.5928 84.9743C83.7948 84.8651 84.0204 84.8107 84.2692 84.8107C84.4442 84.8107 84.6053 84.8345 84.7522 84.8823C84.8992 84.9302 85.0282 85 85.1391 85.0919C85.2501 85.1831 85.3394 85.2954 85.407 85.4288C85.4746 85.5623 85.5156 85.7152 85.5301 85.8875ZM86.0496 85.4546V84.8485H88.4576V85.4546H87.6242V87.6191H86.8828V85.4546H86.0496ZM90.488 85.7143C90.4809 85.6241 90.447 85.5538 90.3866 85.5032C90.3272 85.4527 90.2365 85.4274 90.1147 85.4274C90.0371 85.4274 89.9736 85.437 89.924 85.4559C89.8752 85.4739 89.8391 85.4988 89.8158 85.5303C89.7923 85.5619 89.7801 85.598 89.7792 85.6385C89.7774 85.6719 89.7833 85.7021 89.7967 85.7292C89.8112 85.7553 89.8338 85.7792 89.8644 85.8009C89.8952 85.8216 89.9344 85.8405 89.9821 85.8577C90.0299 85.8748 90.0868 85.8902 90.1526 85.9036L90.3799 85.9524C90.5333 85.9849 90.6644 86.0277 90.7735 86.0809C90.8827 86.1341 90.972 86.1968 91.0414 86.269C91.1109 86.3402 91.1618 86.4205 91.1942 86.5097C91.2276 86.599 91.2447 86.6964 91.2456 86.8019C91.2447 86.9841 91.1993 87.1383 91.109 87.2646C91.0188 87.3909 90.8898 87.487 90.7221 87.5528C90.5554 87.6185 90.3546 87.6516 90.1202 87.6516C89.8793 87.6516 89.6693 87.6159 89.4897 87.5446C89.3112 87.4734 89.1722 87.3638 89.0731 87.2159C88.9748 87.0671 88.9251 86.8768 88.9242 86.6451H89.6385C89.6431 86.7298 89.6642 86.801 89.7021 86.8588C89.74 86.9164 89.7932 86.9603 89.8618 86.99C89.9312 87.0198 90.0138 87.0347 90.1092 87.0347C90.1896 87.0347 90.2568 87.0248 90.3109 87.0048C90.365 86.985 90.406 86.9575 90.4339 86.9223C90.4619 86.8872 90.4764 86.847 90.4773 86.8019C90.4764 86.7596 90.4624 86.7225 90.4353 86.6911C90.4092 86.6585 90.3659 86.6297 90.3054 86.6044C90.245 86.5783 90.1635 86.5539 90.0606 86.5314L89.7847 86.4719C89.5393 86.4187 89.3458 86.3298 89.2042 86.2053C89.0635 86.08 88.9937 85.9091 88.9946 85.6927C88.9937 85.5168 89.0406 85.363 89.1353 85.2314C89.2309 85.0988 89.363 84.9954 89.5316 84.9215C89.7013 84.8476 89.8955 84.8107 90.1147 84.8107C90.3383 84.8107 90.5319 84.848 90.695 84.9229C90.8583 84.9977 90.9842 85.1032 91.0725 85.2395C91.1618 85.3747 91.2069 85.533 91.2078 85.7143H90.488Z" fill="#21105d"/>
<path d="M209.524 29.2064C209.524 27.1024 211.229 25.3969 213.333 25.3969C215.438 25.3969 217.143 27.1024 217.143 29.2064C217.143 31.3104 215.438 33.0159 213.333 33.0159C211.229 33.0159 209.524 31.3104 209.524 29.2064Z" fill="#757575"/>
<path d="M215.333 27.2098C215.209 27.086 215.01 27.086 214.885 27.2098L213.333 28.759L211.78 27.2066C211.657 27.0828 211.456 27.0828 211.333 27.2066C211.209 27.3304 211.209 27.5304 211.333 27.6542L212.885 29.2066L211.333 30.759C211.209 30.8828 211.209 31.0828 211.333 31.2066C211.456 31.3304 211.657 31.3304 211.78 31.2066L213.333 29.6542L214.885 31.2066C215.01 31.3304 215.209 31.3304 215.333 31.2066C215.456 31.0828 215.456 30.8828 215.333 30.759L213.78 29.2066L215.333 27.6542C215.454 27.5336 215.454 27.3304 215.333 27.2098Z" fill="#E0E0E0"/>
<path d="M213.333 32.6349C211.44 32.6349 209.905 31.0999 209.905 29.2063H209.143C209.143 31.5206 211.018 33.3968 213.333 33.3968V32.6349ZM216.762 29.2063C216.762 31.0999 215.227 32.6349 213.333 32.6349V33.3968C215.648 33.3968 217.524 31.5206 217.524 29.2063H216.762ZM213.333 25.7778C215.227 25.7778 216.762 27.3128 216.762 29.2063H217.524C217.524 26.8921 215.648 25.0159 213.333 25.0159V25.7778ZM213.333 25.0159C211.018 25.0159 209.143 26.8921 209.143 29.2063H209.905C209.905 27.3128 211.44 25.7778 213.333 25.7778V25.0159Z" fill="#E0E0E0"/>
<path d="M17.4274 93.3333C16.9697 93.7776 16.9697 94.4954 17.4274 94.9398L21.9822 99.3606H4.17391C3.52826 99.3606 3 99.8733 3 100.5C3 101.127 3.52826 101.639 4.17391 101.639H21.994L17.4392 106.06C16.9814 106.505 16.9814 107.222 17.4392 107.667C17.897 108.111 18.6366 108.111 19.0945 107.667L25.6566 101.298C26.1145 100.853 26.1145 100.135 25.6566 99.691L19.0827 93.3333C18.6366 92.8889 17.8853 92.8889 17.4274 93.3333Z" fill="white"/>
<defs>
<linearGradient id="paint0_linear_1033_9352" x1="129.524" y1="97.7453" x2="116.846" y2="98.3294" gradientUnits="userSpaceOnUse">
<stop stop-color="white"/>
<stop offset="1" stop-color="white" stop-opacity="0"/>
</linearGradient>
</defs>
</svg>
