<svg width="106" height="20" viewBox="0 0 106 20" fill="none" xmlns="http://www.w3.org/2000/svg">
<g clip-path="url(#clip0_343_837)">
<path d="M85.3203 0H105.32V10.7966L104.33 12.3434L105.32 13.72V20H85.3203V9.82212L85.939 9.11059L85.3203 8.43001V0Z" fill="#016FD0"/>
<path d="M89.2031 13.9369V10.7969H92.5278L92.8845 11.2619L93.253 10.7969H105.321V13.7203C105.321 13.7203 105.005 13.9337 104.64 13.9369H97.958L97.5558 13.4419V13.9369H96.2379V13.0919C96.2379 13.0919 96.0579 13.2099 95.6687 13.2099H95.2201V13.9369H93.2248L92.8686 13.4619L92.5069 13.9369H89.2031Z" fill="white"/>
<path d="M85.3203 8.42951L86.07 6.68164H87.3666L87.7921 7.66073V6.68164H89.4038L89.6571 7.38929L89.9027 6.68164H97.1378V7.0374C97.1378 7.0374 97.5181 6.68164 98.1432 6.68164L100.491 6.68984L100.909 7.65612V6.68164H102.258L102.629 7.23669V6.68164H103.99V9.82162H102.629L102.273 9.26478V9.82162H100.291L100.092 9.32665H99.5594L99.3634 9.82162H98.0195C97.4816 9.82162 97.1378 9.47312 97.1378 9.47312V9.82162H95.1115L94.7093 9.32665V9.82162H87.1745L86.9754 9.32665H86.4443L86.2466 9.82162H85.3203V8.42951Z" fill="white"/>
<path d="M86.3354 7.06836L85.3242 9.41948H85.9826L86.1692 8.94868H87.2538L87.4395 9.41948H88.1123L87.1021 7.06836H86.3354ZM86.7096 7.61554L87.0402 8.43824H86.378L86.7096 7.61554Z" fill="#016FD0"/>
<path d="M88.1836 9.41948V7.06836L89.1191 7.07183L89.6633 8.58769L90.1944 7.06836H91.1225V9.41948H90.5347V7.68708L89.9117 9.41948H89.3962L88.7714 7.68708V9.41948H88.1836Z" fill="#016FD0"/>
<path d="M91.5234 9.41948V7.06836H93.4415V7.59427H92.1174V7.99643H93.4105V8.49141H92.1174V8.90904H93.4415V9.41948H91.5234Z" fill="#016FD0"/>
<path d="M93.7812 7.06836V9.41948H94.369V8.58421H94.6165L95.3213 9.41948H96.0396L95.2662 8.55328C95.5836 8.52649 95.911 8.25407 95.911 7.83112C95.911 7.33636 95.5227 7.06836 95.0893 7.06836H93.7812ZM94.369 7.59427H95.0409C95.2021 7.59427 95.3193 7.72034 95.3193 7.84175C95.3193 7.99795 95.1674 8.08924 95.0496 8.08924H94.369V7.59427Z" fill="#016FD0"/>
<path d="M96.7525 9.41948H96.1523V7.06836H96.7525V9.41948Z" fill="#016FD0"/>
<path d="M98.176 9.41948H98.0464C97.4196 9.41948 97.0391 8.92567 97.0391 8.25359C97.0391 7.5649 97.4154 7.06836 98.2069 7.06836H98.8565V7.6252H98.1831C97.8618 7.6252 97.6346 7.87596 97.6346 8.25939C97.6346 8.71471 97.8944 8.90595 98.2688 8.90595H98.4234L98.176 9.41948Z" fill="#016FD0"/>
<path d="M99.4526 7.06836L98.4414 9.41948H99.0998L99.2863 8.94868H100.371L100.557 9.41948H101.229L100.219 7.06836H99.4526ZM99.8268 7.61554L100.157 8.43824H99.4952L99.8268 7.61554Z" fill="#016FD0"/>
<path d="M101.297 9.41948V7.06836H102.044L102.998 8.54555V7.06836H103.586V9.41948H102.863L101.885 7.90363V9.41948H101.297Z" fill="#016FD0"/>
<path d="M89.6055 13.5347V11.1836H91.5235V11.7095H90.1994V12.1117H91.4926V12.6066H90.1994V13.0243H91.5235V13.5347H89.6055Z" fill="#016FD0"/>
<path d="M99.0039 13.5347V11.1836H100.922V11.7095H99.5979V12.1117H100.885V12.6066H99.5979V13.0243H100.922V13.5347H99.0039Z" fill="#016FD0"/>
<path d="M91.5965 13.5347L92.5303 12.3737L91.5742 11.1836H92.3147L92.8842 11.9193L93.4555 11.1836H94.167L93.2235 12.3592L94.1591 13.5347H93.4187L92.8658 12.8106L92.3263 13.5347H91.5965Z" fill="#016FD0"/>
<path d="M94.2305 11.1836V13.5347H94.8337V12.7923H95.4524C95.976 12.7923 96.3728 12.5145 96.3728 11.9744C96.3728 11.527 96.0615 11.1836 95.5288 11.1836H94.2305ZM94.8337 11.7153H95.4853C95.6544 11.7153 95.7753 11.819 95.7753 11.986C95.7753 12.1429 95.655 12.2567 95.4834 12.2567H94.8337V11.7153Z" fill="#016FD0"/>
<path d="M96.6289 11.1836V13.5347H97.2167V12.6994H97.4642L98.1689 13.5347H98.8872L98.1138 12.6685C98.4312 12.6417 98.7586 12.3693 98.7586 11.9464C98.7586 11.4516 98.3703 11.1836 97.9369 11.1836H96.6289ZM97.2167 11.7095H97.8886C98.0497 11.7095 98.167 11.8356 98.167 11.957C98.167 12.1132 98.0151 12.2045 97.8973 12.2045H97.2167V11.7095Z" fill="#016FD0"/>
<path d="M101.192 13.5347V13.0243H102.368C102.542 13.0243 102.618 12.9302 102.618 12.8271C102.618 12.7282 102.542 12.6283 102.368 12.6283H101.837C101.375 12.6283 101.117 12.3468 101.117 11.9241C101.117 11.5471 101.353 11.1836 102.039 11.1836H103.184L102.937 11.7126H101.947C101.757 11.7126 101.699 11.8119 101.699 11.9067C101.699 12.0042 101.771 12.1117 101.916 12.1117H102.473C102.988 12.1117 103.211 12.4038 103.211 12.7865C103.211 13.1978 102.962 13.5347 102.445 13.5347H101.192Z" fill="#016FD0"/>
<path d="M103.352 13.5347V13.0243H104.528C104.702 13.0243 104.778 12.9302 104.778 12.8271C104.778 12.7282 104.703 12.6283 104.528 12.6283H103.997C103.535 12.6283 103.277 12.3468 103.277 11.9241C103.277 11.5471 103.513 11.1836 104.2 11.1836H105.344L105.097 11.7126H104.107C103.918 11.7126 103.859 11.8119 103.859 11.9067C103.859 12.0042 103.931 12.1117 104.076 12.1117H104.633C105.148 12.1117 105.371 12.4038 105.371 12.7865C105.371 13.1978 105.122 13.5347 104.605 13.5347H103.352Z" fill="#016FD0"/>
</g>
<g clip-path="url(#clip1_343_837)">
<path d="M11.8047 2.13867H20.5547V17.8609H11.8047V2.13867Z" fill="#FF5F00"/>
<path d="M12.3611 10C12.3611 6.80555 13.8611 3.97222 16.1667 2.13889C14.4722 0.805559 12.3333 0 10 0C4.47222 0 0 4.47222 0 10C0 15.5278 4.47222 20 10 20C12.3333 20 14.4722 19.1944 16.1667 17.8611C13.8611 16.0556 12.3611 13.1944 12.3611 10Z" fill="#EB001B"/>
<path d="M32.362 10C32.362 15.5278 27.8898 20 22.362 20C20.0286 20 17.8898 19.1944 16.1953 17.8611C18.5286 16.0278 20.0009 13.1944 20.0009 10C20.0009 6.80555 18.5009 3.97222 16.1953 2.13889C17.8898 0.805559 20.0286 0 22.362 0C27.8898 0 32.362 4.5 32.362 10Z" fill="#F79E1B"/>
</g>
<g clip-path="url(#clip2_343_837)">
<path d="M64.4276 4.01758C61.806 4.01758 59.4632 5.37641 59.4632 7.88696C59.4632 10.7661 63.6182 10.9649 63.6182 12.4113C63.6182 13.0203 62.9203 13.5655 61.7283 13.5655C60.0366 13.5655 58.7722 12.8037 58.7722 12.8037L58.2311 15.3372C58.2311 15.3372 59.6877 15.9806 61.6215 15.9806C64.4878 15.9806 66.7432 14.5551 66.7432 12.0016C66.7432 8.95928 62.5708 8.76633 62.5708 7.42384C62.5708 6.94677 63.1438 6.42404 64.3324 6.42404C65.6735 6.42404 66.7677 6.97804 66.7677 6.97804L67.2972 4.53119C67.2972 4.53119 66.1066 4.01758 64.4276 4.01758ZM40.4424 4.20225L40.3789 4.57158C40.3789 4.57158 41.4818 4.77343 42.4752 5.17608C43.7542 5.6378 43.8453 5.90659 44.0607 6.74144L46.408 15.7902H49.5546L54.4022 4.20225H51.2628L48.148 12.0809L46.8769 5.40259C46.7604 4.63826 46.1699 4.20225 45.4472 4.20225H40.4424ZM55.6645 4.20225L53.2018 15.7902H56.1955L58.6495 4.20225H55.6645ZM72.3611 4.20225C71.6393 4.20225 71.2568 4.58873 70.9761 5.26409L66.5903 15.7902H69.7296L70.337 14.0358H74.1617L74.531 15.7902H77.301L74.8845 4.20225H72.3611ZM72.7694 7.33295L73.7 11.6813H71.207L72.7694 7.33295Z" fill="#1434CB"/>
</g>
<defs>
<clipPath id="clip0_343_837">
<rect width="20.0498" height="20" fill="white" transform="translate(85.3203)"/>
</clipPath>
<clipPath id="clip1_343_837">
<rect width="32.3611" height="20" fill="white"/>
</clipPath>
<clipPath id="clip2_343_837">
<rect width="36.9591" height="12" fill="white" transform="translate(40.3594 4)"/>
</clipPath>
</defs>
</svg>
