<svg width="76" height="20" viewBox="0 0 76 20" fill="none" xmlns="http://www.w3.org/2000/svg">
<path d="M28.0079 4.08984H23.8631C23.5795 4.08984 23.3382 4.2959 23.294 4.5759L21.6176 15.2044C21.5843 15.4141 21.7467 15.6032 21.9595 15.6032H23.9382C24.2219 15.6032 24.4631 15.3971 24.5073 15.1165L24.9595 12.2498C25.0031 11.9692 25.2449 11.7632 25.5279 11.7632H26.8401C29.5704 11.7632 31.1461 10.442 31.5576 7.82378C31.7431 6.67833 31.5655 5.77833 31.0291 5.14803C30.4401 4.4559 29.3952 4.08984 28.0079 4.08984ZM28.4861 7.97166C28.2595 9.45893 27.1231 9.45893 26.0243 9.45893H25.3988L25.8376 6.68136C25.8637 6.51348 26.0091 6.38984 26.1788 6.38984H26.4655C27.214 6.38984 27.9201 6.38984 28.2849 6.81651C28.5025 7.07106 28.5691 7.44924 28.4861 7.97166Z" fill="#253B80"/>
<path d="M40.3957 7.92495H38.4108C38.2417 7.92495 38.0957 8.04858 38.0696 8.21646L37.9817 8.77161L37.8429 8.5704C37.4133 7.94677 36.4551 7.73828 35.4987 7.73828C33.3054 7.73828 31.432 9.39949 31.0672 11.7298C30.8775 12.8922 31.1472 14.0037 31.8066 14.7789C32.4114 15.4916 33.2769 15.7886 34.3066 15.7886C36.0739 15.7886 37.0539 14.6522 37.0539 14.6522L36.9654 15.2037C36.932 15.4146 37.0945 15.6037 37.306 15.6037H39.0939C39.3781 15.6037 39.6181 15.3977 39.6629 15.1171L40.7357 8.32374C40.7696 8.11464 40.6078 7.92495 40.3957 7.92495ZM37.629 11.788C37.4375 12.9219 36.5375 13.6831 35.3896 13.6831C34.8133 13.6831 34.3526 13.4983 34.0569 13.148C33.7636 12.8001 33.652 12.3049 33.7454 11.7534C33.9242 10.6292 34.8393 9.84313 35.9696 9.84313C36.5333 9.84313 36.9914 10.0304 37.2932 10.3837C37.5957 10.7407 37.7157 11.2389 37.629 11.788Z" fill="#253B80"/>
<path d="M50.9664 7.92383H48.9719C48.7816 7.92383 48.6028 8.01837 48.4949 8.17656L45.744 12.2287L44.5779 8.33474C44.5046 8.0911 44.2797 7.92383 44.0252 7.92383H42.0652C41.827 7.92383 41.6616 8.15656 41.7373 8.3808L43.9343 14.8281L41.8688 17.7438C41.7064 17.9735 41.87 18.2893 42.1506 18.2893H44.1428C44.3319 18.2893 44.5088 18.1972 44.6161 18.042L51.25 8.46625C51.4088 8.23716 51.2458 7.92383 50.9664 7.92383Z" fill="#253B80"/>
<path d="M57.5704 4.08984H53.425C53.142 4.08984 52.9007 4.2959 52.8565 4.5759L51.1801 15.2044C51.1468 15.4141 51.3092 15.6032 51.5207 15.6032H53.648C53.8456 15.6032 54.0147 15.4589 54.0456 15.2626L54.5213 12.2498C54.565 11.9692 54.8068 11.7632 55.0898 11.7632H56.4013C59.1323 11.7632 60.7074 10.442 61.1195 7.82378C61.3056 6.67833 61.1268 5.77833 60.5904 5.14803C60.002 4.4559 58.9577 4.08984 57.5704 4.08984ZM58.0486 7.97166C57.8226 9.45893 56.6862 9.45893 55.5868 9.45893H54.962L55.4013 6.68136C55.4274 6.51348 55.5716 6.38984 55.742 6.38984H56.0286C56.7765 6.38984 57.4832 6.38984 57.848 6.81651C58.0656 7.07106 58.1316 7.44924 58.0486 7.97166Z" fill="#179BD7"/>
<path d="M69.9595 7.92495H67.9759C67.8056 7.92495 67.6607 8.04858 67.6352 8.21646L67.5474 8.77161L67.408 8.5704C66.9783 7.94677 66.0207 7.73828 65.0643 7.73828C62.871 7.73828 60.9983 9.39949 60.6334 11.7298C60.4443 12.8922 60.7128 14.0037 61.3722 14.7789C61.9783 15.4916 62.8425 15.7886 63.8722 15.7886C65.6395 15.7886 66.6195 14.6522 66.6195 14.6522L66.531 15.2037C66.4977 15.4146 66.6601 15.6037 66.8728 15.6037H68.6601C68.9431 15.6037 69.1843 15.3977 69.2286 15.1171L70.3019 8.32374C70.3346 8.11464 70.1722 7.92495 69.9595 7.92495ZM67.1928 11.788C67.0025 12.9219 66.1013 13.6831 64.9534 13.6831C64.3783 13.6831 63.9165 13.4983 63.6207 13.148C63.3274 12.8001 63.2171 12.3049 63.3092 11.7534C63.4892 10.6292 64.4031 9.84313 65.5334 9.84313C66.0971 9.84313 66.5552 10.0304 66.8571 10.3837C67.1607 10.7407 67.2807 11.2389 67.1928 11.788Z" fill="#179BD7"/>
<path d="M72.2993 4.38196L70.5981 15.205C70.5648 15.4147 70.7272 15.6038 70.9387 15.6038H72.649C72.9333 15.6038 73.1745 15.3977 73.2181 15.1171L74.8957 4.48924C74.929 4.27954 74.7666 4.08984 74.5551 4.08984H72.6399C72.4708 4.09045 72.3254 4.21409 72.2993 4.38196Z" fill="#179BD7"/>
<path d="M4.40514 17.6696L4.72211 15.6562L4.01605 15.6399H0.644531L2.98756 0.783518C2.99483 0.73867 3.01847 0.696851 3.05302 0.667154C3.08756 0.637457 3.1318 0.621094 3.17786 0.621094H8.86271C10.75 0.621094 12.0524 1.01382 12.7324 1.78897C13.0512 2.15261 13.2542 2.53261 13.3524 2.95079C13.4554 3.38958 13.4573 3.91382 13.3567 4.55322L13.3494 4.59988V5.00958L13.6682 5.19018C13.9367 5.33261 14.15 5.49564 14.3136 5.68231C14.5863 5.99322 14.7627 6.38837 14.8373 6.85685C14.9142 7.33867 14.8888 7.912 14.7627 8.56109C14.6173 9.30776 14.3821 9.95806 14.0645 10.4902C13.7724 10.9805 13.4003 11.3872 12.9585 11.7023C12.5367 12.0017 12.0354 12.229 11.4688 12.3744C10.9197 12.5175 10.2936 12.5896 9.60695 12.5896H9.16453C8.84817 12.5896 8.54089 12.7035 8.29968 12.9078C8.05786 13.1162 7.89786 13.4011 7.84877 13.7126L7.81544 13.8938L7.25544 17.4423L7.22999 17.5726C7.22332 17.6138 7.2118 17.6344 7.19483 17.6484C7.17968 17.6611 7.15786 17.6696 7.13665 17.6696H4.40514Z" fill="#253B80"/>
<path d="M13.968 4.64648C13.951 4.75497 13.9316 4.86588 13.9098 4.97982C13.1601 8.82891 10.5953 10.1586 7.31949 10.1586H5.65162C5.25101 10.1586 4.91343 10.4495 4.85101 10.8447L3.99707 16.2604L3.75525 17.7956C3.71465 18.055 3.91465 18.2889 4.17646 18.2889H7.13465C7.48495 18.2889 7.78252 18.0344 7.83768 17.6889L7.86677 17.5386L8.42374 14.0041L8.45949 13.8101C8.51404 13.4635 8.81222 13.2089 9.16253 13.2089H9.60495C12.471 13.2089 14.7146 12.0453 15.3704 8.678C15.6443 7.27133 15.5025 6.09679 14.7777 5.27073C14.5583 5.02164 14.2862 4.81497 13.968 4.64648Z" fill="#179BD7"/>
<path d="M13.1843 4.33354C13.0697 4.30021 12.9516 4.26991 12.8303 4.24264C12.7085 4.21597 12.5837 4.19233 12.4552 4.17173C12.0055 4.099 11.5128 4.06445 10.9849 4.06445H6.52914C6.41944 4.06445 6.3152 4.0893 6.22187 4.13415C6.01641 4.23294 5.86368 4.42748 5.82671 4.66567L4.87884 10.6693L4.85156 10.8445C4.91399 10.4493 5.25156 10.1584 5.65217 10.1584H7.32005C10.5958 10.1584 13.1607 8.82809 13.9103 4.9796C13.9328 4.86567 13.9516 4.75476 13.9685 4.64627C13.7788 4.54567 13.5734 4.4596 13.3522 4.38627C13.2976 4.36809 13.2413 4.35051 13.1843 4.33354Z" fill="#222D65"/>
<path d="M5.82666 4.66606C5.86363 4.42788 6.01636 4.23333 6.22181 4.13515C6.31575 4.0903 6.41939 4.06545 6.52908 4.06545H10.9848C11.5127 4.06545 12.0054 4.1 12.4551 4.17273C12.5836 4.19333 12.7085 4.21697 12.8303 4.24364C12.9515 4.27091 13.0697 4.30121 13.1842 4.33455C13.2412 4.35152 13.2976 4.36909 13.3527 4.38667C13.5739 4.46 13.7794 4.54667 13.9691 4.64667C14.1921 3.22424 13.9673 2.25576 13.1982 1.37879C12.3503 0.413333 10.82 0 8.86181 0H3.17696C2.77696 0 2.43575 0.290909 2.37393 0.686667L0.00605383 15.6958C-0.0406128 15.9927 0.188478 16.2606 0.487872 16.2606H3.99757L4.87878 10.6697L5.82666 4.66606Z" fill="#253B80"/>
</svg>
