<svg xmlns="http://www.w3.org/2000/svg" width="89" height="13"><path fill="#ffb73a" d="M81.569.827L80.013 3.98l-3.48.508a.763.763 0 00-.421 1.3l2.517 2.453-.595 3.466a.762.762 0 001.105.802l3.113-1.636 3.113 1.636a.762.762 0 001.105-.802l-.595-3.466 2.518-2.453a.763.763 0 00-.422-1.3l-3.48-.508L82.936.827a.763.763 0 00-1.367 0zm-19.602 0L60.412 3.98l-3.48.508a.763.763 0 00-.422 1.3l2.518 2.453-.596 3.466a.762.762 0 001.106.802l3.113-1.636 3.113 1.636a.762.762 0 001.105-.802l-.596-3.466 2.518-2.453a.763.763 0 00-.422-1.3l-3.48-.508L63.335.827a.763.763 0 00-1.367 0zm-19.603 0L40.808 3.98l-3.48.508a.763.763 0 00-.421 1.3l2.517 2.453-.595 3.466a.762.762 0 001.105.802l3.113-1.636 3.113 1.636a.762.762 0 001.105-.802L46.67 8.24l2.517-2.453a.763.763 0 00-.421-1.3l-3.48-.508L43.731.827a.763.763 0 00-1.367 0zm-19.602 0L21.207 3.98l-3.48.508a.763.763 0 00-.422 1.3l2.518 2.453-.596 3.466a.762.762 0 001.106.802l3.113-1.636 3.113 1.636a.762.762 0 001.105-.802l-.596-3.466 2.518-2.453a.763.763 0 00-.422-1.3l-3.48-.508L24.13.827a.763.763 0 00-1.367 0zm-16.678 0L4.53 3.98l-3.48.508a.763.763 0 00-.421 1.3l2.517 2.453-.595 3.466a.762.762 0 001.105.802l3.113-1.636L9.88 12.51a.762.762 0 001.105-.802l-.595-3.466 2.517-2.453a.763.763 0 00-.421-1.3l-3.48-.508L7.45.827a.763.763 0 00-1.367 0z"/></svg>