<svg width="1600" height="1600" viewBox="0 0 1200 1200" xmlns="http://www.w3.org/2000/svg"><path d="M1190.2 464.73c-2.758-8.43-10.637-14.199-19.543-14.199h-421.06l-130.11-400.46c-5.52-16.859-33.57-16.859-39.09 0l-130.09 400.46-421.06.004c-8.906 0-16.785 5.77-19.543 14.199-2.758 8.48.25 17.762 7.477 22.98l340.62 247.47-130.11 400.41c-2.758 8.48.25 17.762 7.449 22.98a20.329 20.329 0 0024.184 0l340.6-247.47 340.66 247.47c3.59 2.66 7.828 3.965 12.066 3.965s8.48-1.305 12.094-3.965c7.199-5.219 10.21-14.5 7.449-22.98l-130.11-400.41 340.65-247.47c7.203-5.215 10.215-14.5 7.453-22.98z" fill="#FABB0A"/></svg>