<svg width="143" height="47" viewBox="0 0 143 47" fill="none" xmlns="http://www.w3.org/2000/svg">
<rect x="1" y="1" width="141" height="45" rx="4" fill="#007FFF" stroke="#007FFF" stroke-width="2"/>
<path d="M119.526 16H108.789C107.801 16 107 16.7323 107 17.6364V29.0909H108.789V17.6364H119.526V16ZM122.211 19.2727H112.368C111.38 19.2727 110.579 20.005 110.579 20.9091V32.3636C110.579 33.2677 111.38 34 112.368 34H122.211C123.199 34 124 33.2677 124 32.3636V20.9091C124 20.005 123.199 19.2727 122.211 19.2727ZM122.211 32.3636H112.368V20.9091H122.211V32.3636Z" fill="white"/>
<path d="M21.126 26.4385H17.8652V24.3818H21.126C21.6299 24.3818 22.04 24.2998 22.3564 24.1357C22.6729 23.9658 22.9043 23.7314 23.0508 23.4326C23.1973 23.1338 23.2705 22.7969 23.2705 22.4219C23.2705 22.041 23.1973 21.6865 23.0508 21.3584C22.9043 21.0303 22.6729 20.7666 22.3564 20.5674C22.04 20.3682 21.6299 20.2686 21.126 20.2686H18.7793V31H16.1426V18.2031H21.126C22.1279 18.2031 22.9863 18.3848 23.7012 18.748C24.4219 19.1055 24.9727 19.6006 25.3535 20.2334C25.7344 20.8662 25.9248 21.5898 25.9248 22.4043C25.9248 23.2305 25.7344 23.9453 25.3535 24.5488C24.9727 25.1523 24.4219 25.6182 23.7012 25.9463C22.9863 26.2744 22.1279 26.4385 21.126 26.4385ZM27.5641 18.2031H32.3366C33.3151 18.2031 34.1559 18.3496 34.8591 18.6426C35.568 18.9355 36.113 19.3691 36.4938 19.9434C36.8747 20.5176 37.0651 21.2236 37.0651 22.0615C37.0651 22.7471 36.9479 23.3359 36.7136 23.8281C36.485 24.3145 36.1598 24.7217 35.738 25.0498C35.322 25.3721 34.8327 25.6299 34.2702 25.8232L33.4352 26.2627H29.2868L29.2692 24.2061H32.3542C32.8171 24.2061 33.2009 24.124 33.5055 23.96C33.8102 23.7959 34.0387 23.5674 34.1911 23.2744C34.3493 22.9814 34.4284 22.6416 34.4284 22.2549C34.4284 21.8447 34.3522 21.4902 34.1999 21.1914C34.0475 20.8926 33.8161 20.6641 33.5055 20.5059C33.195 20.3477 32.8054 20.2686 32.3366 20.2686H30.2009V31H27.5641V18.2031ZM34.7184 31L31.8005 25.2959L34.5866 25.2783L37.5397 30.877V31H34.7184ZM49.4271 24.3027V24.9092C49.4271 25.8818 49.2953 26.7549 49.0316 27.5283C48.7679 28.3018 48.3959 28.9609 47.9154 29.5059C47.4349 30.0449 46.8607 30.458 46.1927 30.7451C45.5306 31.0322 44.7953 31.1758 43.9867 31.1758C43.1839 31.1758 42.4486 31.0322 41.7806 30.7451C41.1185 30.458 40.5443 30.0449 40.058 29.5059C39.5716 28.9609 39.1937 28.3018 38.9242 27.5283C38.6605 26.7549 38.5287 25.8818 38.5287 24.9092V24.3027C38.5287 23.3242 38.6605 22.4512 38.9242 21.6836C39.1879 20.9102 39.5599 20.251 40.0404 19.7061C40.5267 19.1611 41.1009 18.7451 41.763 18.458C42.431 18.1709 43.1664 18.0273 43.9691 18.0273C44.7777 18.0273 45.513 18.1709 46.1752 18.458C46.8431 18.7451 47.4173 19.1611 47.8978 19.7061C48.3841 20.251 48.7591 20.9102 49.0228 21.6836C49.2923 22.4512 49.4271 23.3242 49.4271 24.3027ZM46.764 24.9092V24.2852C46.764 23.6055 46.7025 23.0078 46.5795 22.4922C46.4564 21.9766 46.2748 21.543 46.0345 21.1914C45.7943 20.8398 45.5013 20.5762 45.1556 20.4004C44.8099 20.2188 44.4144 20.1279 43.9691 20.1279C43.5238 20.1279 43.1283 20.2188 42.7826 20.4004C42.4427 20.5762 42.1527 20.8398 41.9125 21.1914C41.6781 21.543 41.4994 21.9766 41.3763 22.4922C41.2533 23.0078 41.1918 23.6055 41.1918 24.2852V24.9092C41.1918 25.583 41.2533 26.1807 41.3763 26.7021C41.4994 27.2178 41.681 27.6543 41.9212 28.0117C42.1615 28.3633 42.4545 28.6299 42.8002 28.8115C43.1459 28.9932 43.5414 29.084 43.9867 29.084C44.432 29.084 44.8275 28.9932 45.1732 28.8115C45.5189 28.6299 45.8089 28.3633 46.0433 28.0117C46.2777 27.6543 46.4564 27.2178 46.5795 26.7021C46.7025 26.1807 46.764 25.583 46.764 24.9092ZM52.3496 18.2031H54.5821L57.8692 27.5986L61.1563 18.2031H63.3887L58.7657 31H56.9727L52.3496 18.2031ZM51.1455 18.2031H53.3692L53.7735 27.3613V31H51.1455V18.2031ZM62.3692 18.2031H64.6016V31H61.9649V27.3613L62.3692 18.2031ZM77.2448 24.3027V24.9092C77.2448 25.8818 77.113 26.7549 76.8493 27.5283C76.5857 28.3018 76.2136 28.9609 75.7331 29.5059C75.2527 30.0449 74.6784 30.458 74.0105 30.7451C73.3484 31.0322 72.613 31.1758 71.8044 31.1758C71.0017 31.1758 70.2663 31.0322 69.5984 30.7451C68.9362 30.458 68.362 30.0449 67.8757 29.5059C67.3894 28.9609 67.0114 28.3018 66.7419 27.5283C66.4782 26.7549 66.3464 25.8818 66.3464 24.9092V24.3027C66.3464 23.3242 66.4782 22.4512 66.7419 21.6836C67.0056 20.9102 67.3777 20.251 67.8581 19.7061C68.3445 19.1611 68.9187 18.7451 69.5808 18.458C70.2487 18.1709 70.9841 18.0273 71.7868 18.0273C72.5954 18.0273 73.3308 18.1709 73.9929 18.458C74.6609 18.7451 75.2351 19.1611 75.7155 19.7061C76.2019 20.251 76.5769 20.9102 76.8405 21.6836C77.1101 22.4512 77.2448 23.3242 77.2448 24.3027ZM74.5818 24.9092V24.2852C74.5818 23.6055 74.5202 23.0078 74.3972 22.4922C74.2741 21.9766 74.0925 21.543 73.8523 21.1914C73.612 20.8398 73.3191 20.5762 72.9734 20.4004C72.6277 20.2188 72.2321 20.1279 71.7868 20.1279C71.3415 20.1279 70.946 20.2188 70.6003 20.4004C70.2605 20.5762 69.9704 20.8398 69.7302 21.1914C69.4958 21.543 69.3171 21.9766 69.1941 22.4922C69.071 23.0078 69.0095 23.6055 69.0095 24.2852V24.9092C69.0095 25.583 69.071 26.1807 69.1941 26.7021C69.3171 27.2178 69.4987 27.6543 69.739 28.0117C69.9792 28.3633 70.2722 28.6299 70.6179 28.8115C70.9636 28.9932 71.3591 29.084 71.8044 29.084C72.2497 29.084 72.6452 28.9932 72.9909 28.8115C73.3366 28.6299 73.6267 28.3633 73.8611 28.0117C74.0954 27.6543 74.2741 27.2178 74.3972 26.7021C74.5202 26.1807 74.5818 25.583 74.5818 24.9092ZM81.2924 23.5029H82.6459C83.0795 23.5029 83.4369 23.4297 83.7182 23.2832C83.9994 23.1309 84.2074 22.9199 84.3422 22.6504C84.4828 22.375 84.5531 22.0557 84.5531 21.6924C84.5531 21.3643 84.4887 21.0742 84.3598 20.8223C84.2367 20.5645 84.0463 20.3652 83.7885 20.2246C83.5307 20.0781 83.2055 20.0049 82.8129 20.0049C82.5023 20.0049 82.2152 20.0664 81.9516 20.1895C81.6879 20.3125 81.477 20.4854 81.3187 20.708C81.1605 20.9307 81.0814 21.2002 81.0814 21.5166H78.5414C78.5414 20.8135 78.7289 20.2012 79.1039 19.6797C79.4848 19.1582 79.9945 18.751 80.6332 18.458C81.2719 18.165 81.975 18.0186 82.7426 18.0186C83.6098 18.0186 84.3686 18.1592 85.0189 18.4404C85.6693 18.7158 86.1762 19.123 86.5395 19.6621C86.9027 20.2012 87.0844 20.8691 87.0844 21.666C87.0844 22.0703 86.9906 22.4629 86.8031 22.8438C86.6156 23.2188 86.3461 23.5586 85.9945 23.8633C85.6488 24.1621 85.227 24.4023 84.7289 24.584C84.2309 24.7598 83.6713 24.8477 83.0502 24.8477H81.2924V23.5029ZM81.2924 25.4277V24.1182H83.0502C83.7475 24.1182 84.3598 24.1973 84.8871 24.3555C85.4145 24.5137 85.8568 24.7422 86.2143 25.041C86.5717 25.334 86.8412 25.6826 87.0229 26.0869C87.2045 26.4854 87.2953 26.9277 87.2953 27.4141C87.2953 28.0117 87.1811 28.5449 86.9525 29.0137C86.724 29.4766 86.4018 29.8691 85.9857 30.1914C85.5756 30.5137 85.0951 30.7598 84.5443 30.9297C83.9936 31.0938 83.393 31.1758 82.7426 31.1758C82.2035 31.1758 81.6732 31.1025 81.1518 30.9561C80.6361 30.8037 80.1674 30.5781 79.7455 30.2793C79.3295 29.9746 78.9955 29.5938 78.7436 29.1367C78.4975 28.6738 78.3744 28.126 78.3744 27.4932H80.9145C80.9145 27.8213 80.9965 28.1143 81.1605 28.3721C81.3246 28.6299 81.5502 28.832 81.8373 28.9785C82.1303 29.125 82.4555 29.1982 82.8129 29.1982C83.2172 29.1982 83.5629 29.125 83.85 28.9785C84.143 28.8262 84.3656 28.6152 84.518 28.3457C84.6762 28.0703 84.7553 27.751 84.7553 27.3877C84.7553 26.9189 84.6703 26.5439 84.5004 26.2627C84.3305 25.9756 84.0873 25.7646 83.7709 25.6299C83.4545 25.4951 83.0795 25.4277 82.6459 25.4277H81.2924ZM97.4688 23.4766V25.6914C97.4688 26.6523 97.3663 27.4814 97.1612 28.1787C96.9561 28.8701 96.6602 29.4385 96.2735 29.8838C95.8927 30.3232 95.4386 30.6484 94.9112 30.8594C94.3839 31.0703 93.7979 31.1758 93.1534 31.1758C92.6378 31.1758 92.1573 31.1113 91.712 30.9824C91.2667 30.8477 90.8653 30.6396 90.5079 30.3584C90.1563 30.0771 89.8516 29.7227 89.5938 29.2949C89.3419 28.8613 89.1485 28.3457 89.0137 27.748C88.879 27.1504 88.8116 26.4648 88.8116 25.6914V23.4766C88.8116 22.5156 88.9141 21.6924 89.1192 21.0068C89.3302 20.3154 89.6261 19.75 90.0069 19.3105C90.3936 18.8711 90.8507 18.5488 91.378 18.3438C91.9053 18.1328 92.4913 18.0273 93.1358 18.0273C93.6514 18.0273 94.129 18.0947 94.5684 18.2295C95.0137 18.3584 95.4151 18.5605 95.7725 18.8359C96.13 19.1113 96.4346 19.4658 96.6866 19.8994C96.9386 20.3271 97.1319 20.8398 97.2667 21.4375C97.4014 22.0293 97.4688 22.709 97.4688 23.4766ZM94.9288 26.0254V23.1338C94.9288 22.6709 94.9024 22.2666 94.8497 21.9209C94.8028 21.5752 94.7296 21.2822 94.63 21.042C94.5303 20.7959 94.4073 20.5967 94.2608 20.4443C94.1143 20.292 93.9473 20.1807 93.7598 20.1104C93.5723 20.04 93.3643 20.0049 93.1358 20.0049C92.8487 20.0049 92.5938 20.0605 92.3712 20.1719C92.1544 20.2832 91.9698 20.4619 91.8175 20.708C91.6651 20.9482 91.5479 21.2705 91.4659 21.6748C91.3897 22.0732 91.3516 22.5596 91.3516 23.1338V26.0254C91.3516 26.4883 91.3751 26.8955 91.422 27.2471C91.4747 27.5986 91.5509 27.9004 91.6505 28.1523C91.7559 28.3984 91.879 28.6006 92.0196 28.7588C92.1661 28.9111 92.3331 29.0225 92.5206 29.0928C92.7139 29.1631 92.9249 29.1982 93.1534 29.1982C93.4346 29.1982 93.6837 29.1426 93.9005 29.0312C94.1231 28.9141 94.3106 28.7324 94.463 28.4863C94.6212 28.2344 94.7384 27.9062 94.8145 27.502C94.8907 27.0977 94.9288 26.6055 94.9288 26.0254Z" fill="white"/>
</svg>
