<svg width="58" height="58" viewBox="0 0 58 58" fill="none" xmlns="http://www.w3.org/2000/svg">
<path fill-rule="evenodd" clip-rule="evenodd" d="M31.2508 0.306784C31.6333 0.180496 32.2471 0.0449965 32.5658 0.0165535C33.5692 -0.0730295 34.5241 0.20036 35.4839 0.851981C36.1362 1.29483 36.4512 1.57782 38.0681 3.17411C38.7739 3.87091 39.5017 4.56106 39.6854 4.70778C40.9891 5.74906 41.8649 6.06555 44.5373 6.46111C46.8481 6.80317 47.5569 6.97456 48.4669 7.41112C49.0154 7.67428 49.3627 7.91357 49.742 8.28951C50.3905 8.93242 50.8391 9.84354 51.1441 11.1373C51.2757 11.6957 51.3542 12.1445 51.5345 13.3699C51.9133 15.9439 52.2101 16.8565 53.0244 17.9506C53.4443 18.5148 53.6692 18.7599 55.0322 20.1378C55.7494 20.8629 56.4846 21.6382 56.6659 21.8606C57.4371 22.8066 57.8366 23.6061 57.9731 24.4771C58.0326 24.8568 57.9894 25.633 57.8834 26.0892C57.6796 26.9671 57.4438 27.5245 56.4377 29.5075C56.0256 30.3196 55.618 31.1502 55.532 31.3533C55.0348 32.5269 54.8751 33.4132 54.9464 34.6037C54.9849 35.2455 55.0296 35.5802 55.2777 37.084C55.571 38.8621 55.5904 39.0387 55.5923 39.9494C55.5936 40.572 55.5801 40.832 55.5336 41.0793C55.3524 42.0416 54.975 42.7512 54.2963 43.4054C53.629 44.0487 53.0166 44.4325 51.1142 45.3998C49.6403 46.1491 49.2053 46.3913 48.6158 46.7912C47.8404 47.3171 47.317 47.8406 46.791 48.6159C46.3911 49.2055 46.1489 49.6405 45.3995 51.1143C44.4323 53.0167 44.0485 53.6291 43.4052 54.2964C42.7571 54.9687 42.0731 55.3357 41.1049 55.5307C40.8567 55.5807 40.624 55.5933 39.9667 55.5923C39.0366 55.591 38.8761 55.5734 37.0837 55.2776C35.6209 55.0362 35.2515 54.987 34.601 54.9467C33.4208 54.8738 32.5262 55.035 31.3528 55.5321C31.1497 55.6181 30.3191 56.0256 29.5069 56.4377C27.524 57.4438 26.9665 57.6796 26.0887 57.8834C25.6324 57.9894 24.8562 58.0326 24.4765 57.9731C23.6055 57.8366 22.8059 57.4371 21.8599 56.6659C21.6375 56.4846 20.8623 55.7495 20.1371 55.0322C18.7592 53.6693 18.5141 53.4444 17.9499 53.0245C16.8724 52.2226 15.9253 51.9099 13.4921 51.5528C13.0184 51.4833 12.3934 51.3865 12.1033 51.3377C10.2478 51.0255 9.07438 50.5347 8.28862 49.7421C7.91267 49.3629 7.67338 49.0155 7.41021 48.467C6.97364 47.5571 6.80225 46.8483 6.46019 44.5376C6.06504 41.8681 5.74288 40.9762 4.70773 39.6857C4.56038 39.502 3.86958 38.7743 3.17259 38.0685C2.47564 37.3627 1.78646 36.6507 1.64111 36.4864C0.0179369 34.6506 -0.345711 33.2241 0.306274 31.2497C0.515785 30.6153 0.714959 30.1795 1.52027 28.5933C2.30463 27.0484 2.50936 26.6029 2.73096 25.9587C3.19868 24.5991 3.1997 23.6967 2.73655 20.9464C2.6405 20.376 2.53731 19.7206 2.50721 19.4899C2.15246 16.7696 2.63498 15.3255 4.31698 14.0738C4.91004 13.6324 5.69429 13.1918 7.46183 12.3067C10.1589 10.9563 10.9554 10.1598 12.3059 7.46274C13.1909 5.69523 13.6316 4.91099 14.073 4.31794C15.3248 2.63598 16.7688 2.15347 19.4892 2.50821C19.7199 2.53831 20.3753 2.6415 20.9458 2.73755C23.6961 3.20069 24.5985 3.19967 25.9581 2.73196C26.6023 2.51036 27.0479 2.30563 28.5928 1.52129C30.1799 0.715498 30.6147 0.516819 31.2508 0.306784Z" fill="#3171FB"/>
<g clip-path="url(#clip0_5089_2715)">
<path d="M11.2839 27.6642C11.2951 27.4982 11.2883 27.3614 11.2592 27.2537C11.2032 27.0518 11.08 26.9419 10.8896 26.9285C10.7775 26.9195 10.6879 26.9621 10.6207 27.0563C10.5535 27.1505 10.4908 27.2986 10.428 27.5049L10.3205 27.8571C10.2152 28.2026 10.1099 28.4403 10.0069 28.5682C9.83436 28.7835 9.5812 28.88 9.24962 28.8553C8.94718 28.8329 8.70522 28.705 8.52151 28.4695C8.3378 28.234 8.26163 27.9042 8.29299 27.478C8.31988 27.1214 8.43638 26.8253 8.64249 26.5875C8.8486 26.3497 9.13313 26.2376 9.49158 26.2533L9.44229 26.9329C9.23842 26.9307 9.08832 27.007 8.98974 27.1662C8.92477 27.2717 8.88669 27.4062 8.87549 27.57C8.86204 27.7517 8.88669 27.8997 8.9539 28.0141C9.01887 28.1285 9.11744 28.1891 9.24962 28.2003C9.3706 28.2093 9.4647 28.1622 9.53191 28.059C9.57671 27.994 9.63496 27.8504 9.70441 27.6283L9.88812 27.0563C9.96878 26.8051 10.0629 26.6189 10.1749 26.4955C10.3474 26.3049 10.5849 26.2219 10.8873 26.2443C11.1965 26.2667 11.4429 26.4036 11.6289 26.6548C11.8148 26.906 11.8932 27.247 11.8619 27.6777C11.8305 28.1173 11.7028 28.4583 11.4833 28.6938C11.2637 28.9316 10.9792 29.037 10.6274 29.0101L10.6767 28.3349C10.8336 28.3259 10.95 28.2923 11.0329 28.234C11.1808 28.1285 11.2637 27.9379 11.2839 27.6597V27.6642Z" fill="white"/>
<path d="M11.8278 23.6265L11.5008 24.8311L12.1101 25.2416L11.9152 25.9572L8.96692 23.8979L9.17751 23.1263L12.7598 22.8594L12.5582 23.5996L11.8301 23.6265H11.8278ZM11.214 23.6647L9.81825 23.723L10.99 24.4946L11.2162 23.6647H11.214Z" fill="white"/>
<path d="M10.8272 19.0416L11.3716 19.2928L10.9459 20.2125L13.4753 21.3834L13.1773 22.0294L10.648 20.8585L10.2201 21.7827L9.67566 21.5314L10.8272 19.0393V19.0416Z" fill="white"/>
<path d="M11.3219 18.2675L11.696 17.6731L14.5614 19.4811L14.1873 20.0777L11.3219 18.2698V18.2675Z" fill="white"/>
<path d="M15.3893 17.5566C15.4969 17.4288 15.5686 17.3121 15.6089 17.2089C15.6828 17.0116 15.6447 16.8523 15.4991 16.7289C15.414 16.6571 15.3154 16.6392 15.2056 16.6751C15.0981 16.711 14.957 16.7962 14.7867 16.9263L14.4954 17.1484C14.2087 17.3682 13.9846 17.4983 13.8278 17.5409C13.5612 17.615 13.3013 17.5454 13.0459 17.3323C12.8129 17.1372 12.692 16.8904 12.6785 16.5921C12.6673 16.2937 12.7973 15.9797 13.0728 15.6522C13.3013 15.3785 13.5702 15.2058 13.8771 15.134C14.184 15.0623 14.4798 15.1385 14.762 15.3606L14.3252 15.8833C14.1616 15.7621 13.9936 15.7374 13.8211 15.8092C13.7068 15.8563 13.5971 15.9438 13.4918 16.0694C13.3753 16.2085 13.3103 16.3453 13.2969 16.4754C13.2834 16.6055 13.326 16.7132 13.4268 16.7985C13.5187 16.877 13.624 16.8927 13.7382 16.85C13.8121 16.8231 13.9443 16.7401 14.128 16.6011L14.6097 16.2444C14.8203 16.0874 15.0085 15.9932 15.1698 15.9573C15.4207 15.9057 15.6627 15.9752 15.8934 16.1704C16.1309 16.37 16.2519 16.6257 16.2564 16.9375C16.2608 17.2493 16.1242 17.5723 15.8464 17.9043C15.5641 18.243 15.2639 18.4449 14.9458 18.5077C14.6299 18.5728 14.3364 18.492 14.0653 18.2655L14.4999 17.7473C14.6321 17.8303 14.7486 17.8729 14.8472 17.8729C15.0287 17.8729 15.2079 17.7675 15.3871 17.5544L15.3893 17.5566Z" fill="white"/>
<path d="M17.1625 12.7135L15.8609 13.8037L16.3605 14.4026L17.5008 13.447L17.8772 13.8979L16.7369 14.8535L17.6487 15.9436L17.1088 16.3945L14.9379 13.7969L16.7794 12.2537L17.1603 12.7113L17.1625 12.7135Z" fill="white"/>
<path d="M20.5688 13.0746L19.489 13.7004L19.6346 14.4204L18.9939 14.7906L18.3419 11.2509L19.0342 10.8494L21.7697 13.1822L21.1065 13.5681L20.5688 13.0746ZM20.1051 12.6686L19.0723 11.7264L19.3613 13.0992L20.1051 12.6686Z" fill="white"/>
<path d="M24.4253 12.0049C24.2595 12.3055 23.9906 12.5186 23.6165 12.6419C23.155 12.7967 22.7428 12.7698 22.3776 12.5634C22.0147 12.3548 21.7436 11.9892 21.5711 11.471C21.3829 10.9102 21.3874 10.428 21.5868 10.0219C21.7593 9.66977 22.0483 9.42527 22.4515 9.29068C22.9915 9.10899 23.4462 9.15385 23.8137 9.42527C24.0175 9.5778 24.1587 9.75277 24.2371 9.95017L23.565 10.1745C23.4709 10.0354 23.3746 9.93671 23.2805 9.88287C23.1124 9.78417 22.9086 9.7752 22.6688 9.85595C22.4246 9.93895 22.2656 10.1005 22.1916 10.345C22.1177 10.5895 22.1401 10.8923 22.2611 11.2512C22.3821 11.6101 22.5479 11.8568 22.7562 11.9869C22.9646 12.117 23.1841 12.1417 23.4149 12.0654C23.6501 11.9869 23.8047 11.8501 23.8764 11.6527C23.9167 11.5473 23.9324 11.4037 23.9212 11.222L24.5866 11C24.6448 11.3701 24.5933 11.7043 24.4275 12.0049H24.4253Z" fill="white"/>
<path d="M27.5382 8.29468L27.6211 8.88911L26.6174 9.02818L27.0005 11.7917L26.2948 11.8904L25.9117 9.12688L24.9036 9.26596L24.8207 8.67153L27.5382 8.29468Z" fill="white"/>
<path d="M28.4535 8.29237L29.157 8.28564L29.1928 11.675L28.4893 11.6818L28.4535 8.29237Z" fill="white"/>
<path d="M31.4334 11.9419C30.954 11.8746 30.6067 11.6929 30.3894 11.3968C30.0937 11.0289 29.9884 10.5444 30.0713 9.941C30.1564 9.32638 30.3917 8.88672 30.7725 8.62652C31.0615 8.39996 31.4469 8.32145 31.9263 8.38875C32.4058 8.45604 32.753 8.63773 32.9703 8.93383C33.266 9.29049 33.3713 9.77501 33.284 10.3896C33.2011 10.993 32.9681 11.4304 32.585 11.7041C32.296 11.9307 31.9106 12.0092 31.4312 11.9419H31.4334ZM32.2198 11.1321C32.4102 10.9504 32.5335 10.67 32.585 10.2909C32.6365 9.91408 32.5962 9.61126 32.4618 9.38246C32.3273 9.15366 32.1212 9.02131 31.8434 8.98093C31.5656 8.9428 31.3304 9.01458 31.1355 9.19628C30.9406 9.37797 30.8173 9.65836 30.7658 10.0375C30.7143 10.4165 30.7546 10.7194 30.8913 10.9459C31.0279 11.1747 31.2363 11.3071 31.5141 11.3452C31.7919 11.3833 32.0271 11.3116 32.2198 11.1299V11.1321Z" fill="white"/>
<path d="M36.2142 13.1778L35.5488 12.9378L35.0627 10.2034L34.2472 12.469L33.6266 12.2447L34.7736 9.05493L35.4726 9.30616L35.9409 11.9912L36.7429 9.76376L37.3635 9.98808L36.2164 13.1778H36.2142Z" fill="white"/>
<path d="M40.089 13.9946L39.4998 13.5616L38.7157 14.6339L38.1578 14.2256L40.1585 11.4912L41.4982 12.4737C41.6864 12.6173 41.8163 12.7496 41.888 12.8685C41.9597 12.9874 42 13.1152 42.0112 13.2521C42.0202 13.3642 42.0112 13.4764 41.9844 13.5863C41.9575 13.6962 41.9037 13.8039 41.8253 13.9116C41.7312 14.0417 41.6035 14.1448 41.4467 14.2234C41.2898 14.3019 41.1173 14.3108 40.9269 14.2525C41.0165 14.3961 41.0524 14.5329 41.0367 14.6653C41.021 14.7976 40.9426 14.9591 40.8037 15.1498L40.6693 15.3337C40.5774 15.4593 40.5214 15.5468 40.499 15.5984C40.4632 15.6792 40.4587 15.7577 40.49 15.8294L40.4408 15.899L39.8135 15.4391C39.8403 15.3651 39.8627 15.3068 39.8829 15.2664C39.9255 15.1789 39.9748 15.0937 40.0308 15.0129L40.2122 14.755C40.3377 14.5778 40.3915 14.4387 40.3713 14.3355C40.3534 14.2323 40.2593 14.1202 40.0913 13.9968L40.089 13.9946ZM40.7992 13.7523C40.9516 13.7837 41.0837 13.7231 41.1958 13.5684C41.3167 13.4024 41.3436 13.2498 41.2742 13.113C41.2361 13.0345 41.1554 12.9515 41.0322 12.8618L40.3691 12.375L39.8314 13.1108L40.4788 13.5841C40.6065 13.6783 40.7141 13.7344 40.8015 13.7523H40.7992Z" fill="white"/>
<path d="M42.75 17.3277L41.9077 16.4057L41.2356 16.7018L40.736 16.1545L44.0494 14.7593L44.5894 15.3492L42.9001 18.5233L42.3826 17.9558L42.75 17.3254V17.3277ZM43.048 16.7871L43.747 15.5758L42.4678 16.1523L43.048 16.7871Z" fill="white"/>
<path d="M47.1516 18.9202L46.6475 19.2455L46.0964 18.3931L43.7575 19.9094L43.3699 19.3105L45.7088 17.7941L45.1554 16.9395L45.6595 16.6143L47.1493 18.9202H47.1516Z" fill="white"/>
<path d="M47.5473 19.7593L47.8497 20.3941L44.7939 21.8544L44.4915 21.2196L47.5473 19.7593Z" fill="white"/>
<path d="M45.9531 25.1652L45.7426 24.4878L47.6267 22.4488L45.3303 23.1666L45.1332 22.5363L48.366 21.5269L48.5878 22.2357L46.7328 24.2298L48.9888 23.5255L49.186 24.1558L45.9531 25.1652Z" fill="white"/>
<path d="M46.3836 27.9402C46.2514 27.7652 46.173 27.5409 46.1461 27.2695C46.1035 26.8231 46.2223 26.4417 46.5046 26.1254C46.7869 25.798 47.1991 25.6095 47.739 25.5579C48.2857 25.5063 48.736 25.614 49.0944 25.8832C49.4529 26.1524 49.6545 26.5337 49.7016 27.0294C49.7419 27.4579 49.6657 27.8123 49.4753 28.0949C49.2826 28.3753 49.0272 28.5503 48.7046 28.6198L48.6396 27.9267C48.8637 27.8504 49.0138 27.7046 49.0855 27.4893C49.1235 27.3682 49.137 27.238 49.1235 27.0945C49.0967 26.8231 48.9734 26.61 48.7516 26.4552C48.5298 26.3004 48.214 26.2421 47.8017 26.2825C47.3873 26.3228 47.1027 26.444 46.9482 26.6503C46.7936 26.8567 46.7286 27.0788 46.751 27.321C46.7734 27.5588 46.8608 27.745 47.0109 27.8841C47.161 28.0231 47.3492 28.0972 47.5732 28.1129L47.4993 27.3323L48.0616 27.2784L48.196 28.6849L46.3881 28.8576L46.3433 28.391L46.7577 28.2789C46.5852 28.1577 46.4598 28.0478 46.3836 27.9446V27.9402Z" fill="white"/>
<path d="M45.9807 33.54C45.8881 33.343 45.5936 33.355 45.5241 33.5697L45.5241 33.5697L45.1052 34.864L45.1051 34.8644C45.0447 35.0486 44.8745 35.1733 44.6807 35.1733H43.3208C43.0817 35.1733 42.9829 35.4777 43.1758 35.6182C43.1758 35.6182 43.1758 35.6182 43.1758 35.6182L44.2758 36.419L44.2765 36.4196C44.4311 36.5342 44.4982 36.7334 44.4375 36.9189C44.4375 36.919 44.4375 36.919 44.4375 36.9191L44.0186 38.213L44.0185 38.2134C43.9434 38.4421 44.2031 38.6297 44.3956 38.4895L44.3956 38.4895L45.4956 37.6887L45.4959 37.6885C45.6518 37.5757 45.8626 37.5757 46.0186 37.6885L46.0188 37.6887L47.1187 38.4894C47.3087 38.6273 47.5693 38.4401 47.4958 38.213L47.077 36.9191C47.0769 36.919 47.0769 36.919 47.0769 36.9189L47.0769 36.9187L47.172 36.888C47.1249 36.7444 47.1765 36.5874 47.2975 36.4999L45.9807 33.54ZM45.9807 33.54L45.9903 33.5697L46.4092 34.864L46.4093 34.8644C46.4697 35.0486 46.6399 35.1733 46.8337 35.1733H48.1936C48.4313 35.1733 48.5309 35.4782 48.3386 35.6182L47.2389 36.4189C47.2388 36.4189 47.2387 36.4189 47.2387 36.419L45.9807 33.54Z" fill="white" stroke="#3171FB" stroke-width="0.2"/>
<path d="M39.1838 41.8352C39.0912 41.6382 38.7968 41.6501 38.7273 41.8649L38.7273 41.8649L38.3083 43.1592L38.3082 43.1595C38.2478 43.3437 38.0777 43.4684 37.8838 43.4684H36.524C36.2849 43.4684 36.186 43.7729 36.3789 43.9134C36.3789 43.9134 36.3789 43.9134 36.3789 43.9134L37.4789 44.7142L37.4797 44.7147C37.6342 44.8294 37.7014 45.0285 37.6406 45.2141C37.6406 45.2141 37.6406 45.2142 37.6406 45.2143L37.2217 46.5082L37.2216 46.5086C37.1466 46.7372 37.4062 46.9248 37.5987 46.7846L37.5987 46.7846L38.6987 45.9838L38.699 45.9836C38.8549 45.8709 39.0657 45.8709 39.2217 45.9836L39.2219 45.9838L40.3218 46.7846L39.1838 41.8352ZM39.1838 41.8352L39.1934 41.8649L39.6124 43.1592L39.6125 43.1595C39.6728 43.3437 39.843 43.4684 40.0368 43.4684H41.3967C41.6344 43.4684 41.734 43.7734 41.5417 43.9134C41.5417 43.9134 41.5417 43.9134 41.5417 43.9134L40.442 44.714M39.1838 41.8352L40.442 44.714M40.442 44.714C40.4419 44.7141 40.4419 44.7141 40.4418 44.7141C40.2858 44.8271 40.2196 45.0293 40.28 45.214L40.442 44.714ZM40.6989 46.5082L40.2801 45.2143L40.6989 46.5082ZM40.6989 46.5082C40.7724 46.7353 40.5119 46.9224 40.322 46.7846L40.6989 46.5082Z" fill="white" stroke="#3171FB" stroke-width="0.2"/>
<path d="M29.2507 44.8142C29.1581 44.6172 28.8636 44.6291 28.7942 44.8439L28.7942 44.8439L28.3752 46.1382L28.3751 46.1385C28.3147 46.3227 28.1446 46.4474 27.9507 46.4474H26.5908C26.3518 46.4474 26.2529 46.7519 26.4458 46.8924C26.4458 46.8924 26.4458 46.8924 26.4458 46.8924L27.5458 47.6932L27.5466 47.6937C27.7011 47.8084 27.7683 48.0076 27.7075 48.1931C27.7075 48.1932 27.7075 48.1932 27.7075 48.1933L27.2886 49.4872L27.2885 49.4876C27.2135 49.7162 27.4731 49.9038 27.6656 49.7636L27.6656 49.7636L28.7656 48.9628L28.7659 48.9626C28.9218 48.8499 29.1326 48.8499 29.2886 48.9626L29.2888 48.9628L30.3887 49.7636L29.2507 44.8142ZM29.2507 44.8142L29.2603 44.8439L29.6792 46.1382L29.6794 46.1385C29.7397 46.3227 29.9099 46.4474 30.1037 46.4474H31.4636C31.7013 46.4474 31.8009 46.7524 31.6086 46.8924M29.2507 44.8142L31.6086 46.8924M31.6086 46.8924L30.5089 47.693C30.5088 47.693 30.5088 47.6931 30.5088 47.6931C30.3527 47.806 30.2865 48.0082 30.3469 48.193C30.3469 48.1931 30.347 48.1932 30.347 48.1933L30.7658 49.4872C30.8393 49.7143 30.5788 49.9014 30.3888 49.7636L31.6086 46.8924Z" fill="white" stroke="#3171FB" stroke-width="0.2"/>
<path d="M19.3121 41.8352C19.2195 41.6382 18.9251 41.6501 18.8556 41.8649L18.8556 41.8649L18.4366 43.1592L18.4365 43.1595C18.3761 43.3437 18.206 43.4684 18.0121 43.4684H16.6522C16.4132 43.4684 16.3143 43.7729 16.5072 43.9134C16.5072 43.9134 16.5072 43.9134 16.5072 43.9134L17.6072 44.7142L17.608 44.7147C17.7625 44.8294 17.8297 45.0285 17.7689 45.2141C17.7689 45.2141 17.7689 45.2142 17.7689 45.2143L17.35 46.5082L17.3499 46.5086C17.2749 46.7372 17.5345 46.9248 17.727 46.7846L17.727 46.7846L18.827 45.9838L18.8273 45.9836C18.9832 45.8709 19.194 45.8709 19.35 45.9836L19.3502 45.9838L20.4501 46.7846C20.6401 46.9224 20.9007 46.7353 20.8272 46.5082L20.4084 45.2143C20.4084 45.2142 20.4083 45.2141 20.4083 45.214L20.4083 45.2139L20.5034 45.1831C20.4564 45.0396 20.5079 44.8825 20.6289 44.7951L19.3121 41.8352ZM19.3121 41.8352L19.3217 41.8649L19.7406 43.1592L19.7408 43.1595C19.8011 43.3437 19.9713 43.4684 20.1651 43.4684H21.525C21.7627 43.4684 21.8623 43.7734 21.67 43.9134C21.67 43.9134 21.67 43.9134 21.67 43.9134L20.5703 44.714C20.5702 44.7141 20.5702 44.7141 20.5701 44.7141L19.3121 41.8352Z" fill="white" stroke="#3171FB" stroke-width="0.2"/>
<path d="M12.5152 33.54C12.4226 33.343 12.1282 33.355 12.0587 33.5697L12.0587 33.5697L11.6397 34.864L11.6396 34.8644C11.5793 35.0486 11.4091 35.1733 11.2153 35.1733H9.85537C9.61629 35.1733 9.51743 35.4777 9.71036 35.6182C9.71036 35.6182 9.71036 35.6182 9.71037 35.6182L10.8104 36.419L10.8111 36.4196C10.9656 36.5342 11.0328 36.7334 10.9721 36.9189C10.972 36.919 10.972 36.919 10.972 36.9191L10.5532 38.213L10.553 38.2134C10.478 38.4421 10.7376 38.6297 10.9301 38.4895L10.9301 38.4895L12.0301 37.6887L12.0304 37.6885C12.1864 37.5757 12.3972 37.5757 12.5531 37.6885L12.5534 37.6887L13.6533 38.4894C13.8432 38.6273 14.1038 38.4401 14.0303 38.213L13.6115 36.9191C13.6115 36.919 13.6115 36.919 13.6114 36.9189L13.6114 36.9187L13.7065 36.888C13.6595 36.7444 13.711 36.5874 13.832 36.4999L12.5152 33.54ZM12.5152 33.54L12.5248 33.5697L12.9438 34.864L12.9439 34.8644C13.0042 35.0486 13.1744 35.1733 13.3682 35.1733H14.7281C14.9658 35.1733 15.0654 35.4782 14.8731 35.6182L13.7734 36.4189C13.7734 36.4189 13.7733 36.4189 13.7733 36.4189L12.5152 33.54Z" fill="white" stroke="#3171FB" stroke-width="0.2"/>
</g>
<path d="M16.1767 31.6862C16.4638 32.3747 16.6516 32.6795 17.027 33.0293C17.6786 33.6163 18.529 33.9097 19.5781 33.9097C20.0751 33.9097 20.6162 33.8194 21.0579 33.6727C21.842 33.4131 22.5488 32.7698 22.9353 31.9571C23.3439 31.0993 23.5648 29.9932 23.5648 28.7968C23.5648 27.5553 23.3218 26.4831 22.8691 25.7494C22.2065 24.6659 21.0911 24.079 19.6885 24.079C17.5019 24.079 16 25.4447 16 27.4424C16 29.3386 17.2921 30.5688 19.2799 30.5688C20.2518 30.5688 20.8812 30.3318 21.4776 29.7562C21.4113 30.5237 21.3119 30.93 21.1021 31.2912C20.8039 31.7991 20.307 32.0813 19.6885 32.0813C19.2468 32.0813 18.8934 31.9345 18.6504 31.6637C18.54 31.5395 18.4737 31.4266 18.3854 31.1783L16.1767 31.6862ZM19.6554 28.7856C18.7498 28.7856 18.1535 28.2099 18.1535 27.3409C18.1535 26.4831 18.783 25.8962 19.6996 25.8962C20.6162 25.8962 21.2567 26.4831 21.2567 27.3296C21.2567 28.1986 20.6051 28.7856 19.6554 28.7856Z" fill="white"/>
<path d="M24.6077 31.6862C24.8949 32.3747 25.0826 32.6795 25.4581 33.0293C26.1096 33.6163 26.96 33.9097 28.0091 33.9097C28.5061 33.9097 29.0472 33.8194 29.489 33.6727C30.273 33.4131 30.9798 32.7698 31.3664 31.9571C31.775 31.0993 31.9958 29.9932 31.9958 28.7968C31.9958 27.5553 31.7529 26.4831 31.3001 25.7494C30.6375 24.6659 29.5221 24.079 28.1196 24.079C25.9329 24.079 24.431 25.4447 24.431 27.4424C24.431 29.3386 25.7231 30.5688 27.711 30.5688C28.6828 30.5688 29.3123 30.3318 29.9086 29.7562C29.8423 30.5237 29.743 30.93 29.5331 31.2912C29.235 31.7991 28.738 32.0813 28.1196 32.0813C27.6778 32.0813 27.3244 31.9345 27.0815 31.6637C26.971 31.5395 26.9048 31.4266 26.8164 31.1783L24.6077 31.6862ZM28.0864 28.7856C27.1809 28.7856 26.5845 28.2099 26.5845 27.3409C26.5845 26.4831 27.214 25.8962 28.1306 25.8962C29.0472 25.8962 29.6877 26.4831 29.6877 27.3296C29.6877 28.1986 29.0362 28.7856 28.0864 28.7856Z" fill="white"/>
<path d="M35.1481 29.395C35.8328 29.395 36.4402 29.1693 36.8488 28.7517C37.2905 28.3115 37.5224 27.623 37.5224 26.7427C37.5224 25.8849 37.3015 25.2077 36.8598 24.7562C36.4512 24.3386 35.8548 24.1129 35.1481 24.1129C34.4523 24.1129 33.856 24.3386 33.4363 24.7562C32.9946 25.2077 32.7627 25.8962 32.7627 26.754C32.7627 27.6117 32.9946 28.3115 33.4253 28.7404C33.856 29.1693 34.4413 29.395 35.1481 29.395ZM35.1481 25.3318C35.7002 25.3318 35.9874 25.8059 35.9874 26.7427C35.9874 27.702 35.7002 28.1874 35.1481 28.1874C34.5848 28.1874 34.2977 27.6907 34.2977 26.7427C34.2977 25.8172 34.5959 25.3318 35.1481 25.3318ZM40.6146 33.8758C41.3103 33.8758 41.9177 33.6501 42.3263 33.2325C42.7681 32.7923 43 32.0926 43 31.2235C43 29.5643 42.1276 28.5937 40.6256 28.5937C39.9189 28.5937 39.3225 28.8194 38.9029 29.237C38.4611 29.6885 38.2292 30.377 38.2292 31.2235C38.2292 32.0926 38.4611 32.7923 38.8918 33.2212C39.3225 33.6501 39.9189 33.8758 40.6146 33.8758ZM40.6256 29.8126C41.1778 29.8126 41.465 30.2867 41.465 31.2009C41.465 32.1828 41.1889 32.6682 40.6146 32.6682C40.0514 32.6682 39.7643 32.1716 39.7643 31.2009C39.7643 30.2867 40.0624 29.8126 40.6256 29.8126ZM33.9885 33.5485L34.5628 34L41.7631 24.4515L41.1778 24L33.9885 33.5485Z" fill="white"/>
<defs>
<clipPath id="clip0_5089_2715">
<rect width="41.4286" height="41.4286" fill="white" transform="translate(8.28613 8.28564)"/>
</clipPath>
</defs>
</svg>
