<svg width="28" height="28" viewBox="0 0 28 28" fill="none" xmlns="http://www.w3.org/2000/svg">
<path d="M14.0002 4.19995C12.7132 4.19995 11.4389 4.45344 10.2499 4.94593C9.06091 5.43843 7.98056 6.16029 7.07055 7.0703C6.16053 7.98032 5.43867 9.06066 4.94618 10.2497C4.45368 11.4386 4.2002 12.713 4.2002 14C4.2002 15.2869 4.45368 16.5613 4.94618 17.7502C5.43867 18.9392 6.16053 20.0196 7.07055 20.9296C7.98056 21.8396 9.06091 22.5615 10.2499 23.054C11.4389 23.5465 12.7132 23.7999 14.0002 23.7999C15.2871 23.7999 16.5615 23.5465 17.7505 23.054C18.9395 22.5615 20.0198 21.8396 20.9298 20.9296C21.8399 20.0196 22.5617 18.9392 23.0542 17.7502C23.5467 16.5613 23.8002 15.2869 23.8002 14C23.8002 12.713 23.5467 11.4386 23.0542 10.2497C22.5617 9.06066 21.8399 7.98032 20.9298 7.0703C20.0198 6.16029 18.9395 5.43843 17.7505 4.94593C16.5615 4.45344 15.2871 4.19995 14.0002 4.19995Z" fill="#2797E8"/>
<path d="M13.3 17.2199C13.1653 17.2199 13.03 17.1715 12.9231 17.0741L9.56308 13.7141C9.33432 13.5063 9.31752 13.1518 9.52556 12.9231C9.7336 12.6949 10.0875 12.6772 10.3166 12.8855L13.2924 15.8964L18.2352 10.9325C18.4598 10.7203 18.814 10.7298 19.0268 10.9552C19.2393 11.1801 19.2292 11.5343 19.0041 11.7468L13.6841 17.0668C13.5766 17.1687 13.4383 17.2199 13.3 17.2199Z" fill="white"/>
<path d="M13.3002 17.3599C13.1255 17.3599 12.958 17.2952 12.8289 17.1776L9.46445 13.8131C9.33089 13.6922 9.24969 13.52 9.24101 13.3332C9.23233 13.1465 9.29645 12.9673 9.42217 12.8289C9.68257 12.5436 10.1261 12.5232 10.4109 12.7822L13.2929 15.6978L18.1363 10.8339C18.2758 10.7026 18.4578 10.6391 18.6398 10.6399C18.8268 10.6452 19.0004 10.7231 19.1289 10.8591C19.2575 10.9949 19.3252 11.1727 19.3199 11.3598C19.3146 11.5465 19.2367 11.7204 19.1007 11.8489L13.7837 17.1661C13.6502 17.2921 13.4797 17.3599 13.3002 17.3599ZM9.94269 12.8796C9.82817 12.8796 9.71309 12.9258 9.62937 13.0177C9.55405 13.1005 9.51541 13.2081 9.52073 13.3201C9.52605 13.4321 9.57449 13.5354 9.65737 13.6107L13.0224 16.9755C13.1697 17.109 13.4337 17.111 13.5886 16.9654L18.9055 11.6482C18.9901 11.5684 19.0368 11.4642 19.0399 11.3519C19.043 11.2399 19.0024 11.1333 18.9254 11.0518C18.8484 10.97 18.7439 10.9235 18.6317 10.9202C18.5219 10.9149 18.4133 10.9574 18.3318 11.0347L13.392 15.9952C13.3657 16.0215 13.3299 16.0363 13.2929 16.0363H13.2926C13.2554 16.0363 13.2195 16.0212 13.1935 15.9949L10.2174 12.9841C10.1404 12.9143 10.0418 12.8796 9.94269 12.8796Z" fill="white"/>
<path d="M18.3398 6.78344C18.3154 6.78344 18.2908 6.77728 18.2684 6.76384C18.0898 6.65828 17.9047 6.55804 17.7176 6.46564C17.6485 6.4312 17.6199 6.34749 17.6541 6.27805C17.6882 6.20833 17.7728 6.18089 17.8417 6.21449C18.0346 6.30997 18.2264 6.41357 18.4109 6.52305C18.4773 6.56253 18.4994 6.64821 18.4602 6.71485C18.4342 6.75881 18.3877 6.78344 18.3398 6.78344ZM19.1798 7.34988C19.1501 7.34988 19.1202 7.34036 19.0947 7.32104C19.0045 7.25188 18.9127 7.18496 18.8194 7.11945C18.7562 7.07493 18.7408 6.98785 18.7853 6.92457C18.8295 6.86073 18.9166 6.84617 18.9802 6.89012C19.0768 6.9576 19.1714 7.02733 19.2649 7.09873C19.3265 7.14549 19.338 7.23341 19.2912 7.29501C19.2635 7.33085 19.2218 7.34988 19.1798 7.34988Z" fill="white"/>
<path d="M13.9998 22.6801C9.2135 22.6801 5.31982 18.7861 5.31982 14.0001C5.31982 9.21403 9.2135 5.32007 13.9998 5.32007C15.0269 5.32007 16.0323 5.49787 16.988 5.84815C17.0608 5.87475 17.098 5.95511 17.0714 6.02791C17.0448 6.10071 16.9639 6.13795 16.8917 6.11107C15.9668 5.77199 14.9941 5.60007 13.9998 5.60007C9.36806 5.60007 5.59982 9.36831 5.59982 14.0001C5.59982 18.6318 9.36806 22.4001 13.9998 22.4001C18.6316 22.4001 22.3998 18.6318 22.3998 14.0001C22.3998 11.6371 21.396 9.37027 19.6457 7.78043C19.5883 7.72835 19.5841 7.63987 19.6362 7.58247C19.6886 7.52535 19.7768 7.52115 19.8339 7.57295C21.6427 9.21599 22.6798 11.5585 22.6798 14.0001C22.6798 18.7861 18.7861 22.6801 13.9998 22.6801Z" fill="white"/>
</svg>
