<svg width="59" height="59" viewBox="0 0 59 59" fill="none" xmlns="http://www.w3.org/2000/svg">
<path d="M29.4996 8.84998C26.7878 8.84998 24.1026 9.3841 21.5972 10.4219C19.0918 11.4596 16.8154 12.9807 14.8979 14.8982C12.9803 16.8158 11.4593 19.0922 10.4215 21.5976C9.38374 24.1029 8.84961 26.7882 8.84961 29.5C8.84961 32.2118 9.38374 34.897 10.4215 37.4024C11.4593 39.9078 12.9803 42.1842 14.8979 44.1017C16.8154 46.0193 19.0918 47.5403 21.5972 48.5781C24.1026 49.6158 26.7878 50.15 29.4996 50.15C32.2114 50.15 34.8966 49.6158 37.402 48.5781C39.9074 47.5403 42.1838 46.0193 44.1014 44.1017C46.0189 42.1842 47.54 39.9078 48.5777 37.4024C49.6155 34.897 50.1496 32.2118 50.1496 29.5C50.1496 26.7882 49.6155 24.1029 48.5777 21.5976C47.54 19.0922 46.0189 16.8158 44.1014 14.8982C42.1838 12.9807 39.9074 11.4596 37.402 10.4219C34.8966 9.3841 32.2114 8.84998 29.4996 8.84998Z" fill="#FF525F"/>
<path d="M30.7518 29.5L37.2059 23.046C37.5516 22.7009 37.5516 22.1398 37.2059 21.7946C37.0336 21.6212 36.807 21.535 36.5805 21.535C36.3539 21.535 36.1273 21.6212 35.9545 21.794L29.5005 28.2486L23.0464 21.794C22.8736 21.6212 22.647 21.535 22.4205 21.535C22.1939 21.535 21.9673 21.6212 21.7945 21.794C21.4487 22.1392 21.4487 22.7003 21.7945 23.0454L28.2491 29.5L21.7945 35.954C21.4487 36.2992 21.4487 36.8603 21.7945 37.2054C21.9673 37.3789 22.1939 37.465 22.4205 37.465C22.647 37.465 22.8736 37.3789 23.0464 37.206L29.5005 30.7514L35.9545 37.2054C36.1273 37.3789 36.3539 37.465 36.5805 37.465C36.807 37.465 37.0336 37.3789 37.2064 37.206C37.5522 36.8609 37.5522 36.2998 37.2064 35.9546L30.7518 29.5Z" fill="#FDFCEF"/>
<path d="M29.4998 50.74C17.7877 50.74 8.25977 41.2121 8.25977 29.5C8.25977 17.7879 17.7877 8.26001 29.4998 8.26001C41.2119 8.26001 50.7398 17.7879 50.7398 29.5C50.7398 41.2121 41.2119 50.74 29.4998 50.74ZM29.4998 9.44001C18.4384 9.44001 9.43977 18.4387 9.43977 29.5C9.43977 40.5613 18.4384 49.56 29.4998 49.56C40.5611 49.56 49.5598 40.5613 49.5598 29.5C49.5598 18.4387 40.5611 9.44001 29.4998 9.44001Z" fill="white"/>
<path d="M38.6452 14.2939C38.5939 14.2939 38.542 14.281 38.4948 14.2526C38.1184 14.0302 37.7284 13.819 37.3343 13.6243C37.1885 13.5517 37.1284 13.3753 37.2003 13.229C37.2729 13.0821 37.4511 13.0243 37.5956 13.0951C38.0022 13.2962 38.4063 13.5145 38.7951 13.7452C38.9349 13.8284 38.9815 14.009 38.8989 14.1494C38.8441 14.242 38.7461 14.2939 38.6452 14.2939ZM40.4152 15.4875C40.3527 15.4875 40.2896 15.4674 40.2359 15.4267C40.0459 15.281 39.8524 15.14 39.6559 15.0019C39.5226 14.9081 39.4901 14.7246 39.5839 14.5913C39.6772 14.4568 39.8612 14.4261 39.9946 14.5187C40.1981 14.6609 40.3975 14.8078 40.5946 14.9583C40.7244 15.0568 40.7486 15.2421 40.6501 15.3719C40.5917 15.4474 40.5037 15.4875 40.4152 15.4875Z" fill="white"/>
<path d="M29.5 47.79C19.4145 47.79 11.21 39.5848 11.21 29.5C11.21 19.4151 19.4145 11.21 29.5 11.21C31.6641 11.21 33.7828 11.5846 35.7964 12.3227C35.9498 12.3788 36.0283 12.5481 35.9723 12.7015C35.9162 12.8549 35.7463 12.9334 35.5935 12.8767C33.6447 12.1622 31.5951 11.8 29.5 11.8C19.7402 11.8 11.8 19.7402 11.8 29.5C11.8 39.2597 19.7402 47.2 29.5 47.2C39.2597 47.2 47.2 39.2597 47.2 29.5C47.2 24.521 45.0848 19.7443 41.3967 16.3943C41.2758 16.2846 41.2669 16.0981 41.3767 15.9772C41.487 15.8568 41.6734 15.848 41.7932 15.9571C45.6046 19.4192 47.79 24.3552 47.79 29.5C47.79 39.5848 39.5854 47.79 29.5 47.79Z" fill="white"/>
<path d="M31.1688 29.5L37.4145 23.2543C37.6375 23.0318 37.7602 22.735 37.7602 22.42C37.7602 22.1049 37.6375 21.8082 37.4145 21.5857C37.1915 21.3627 36.8953 21.24 36.5802 21.24C36.2652 21.24 35.969 21.3627 35.746 21.5857L29.5002 27.8315L23.2545 21.5857C23.0315 21.3627 22.7353 21.24 22.4202 21.24C22.1052 21.24 21.809 21.3627 21.586 21.5857C21.363 21.8082 21.2402 22.1049 21.2402 22.42C21.2402 22.735 21.363 23.0318 21.586 23.2543L27.8317 29.5L21.586 35.7457C21.363 35.9682 21.2402 36.2649 21.2402 36.58C21.2402 36.895 21.363 37.1918 21.586 37.4142C21.809 37.6373 22.1052 37.76 22.4202 37.76C22.7353 37.76 23.0315 37.6373 23.2545 37.4142L29.5002 31.1685L35.746 37.4142C35.969 37.6373 36.2652 37.76 36.5802 37.76C36.8953 37.76 37.1915 37.6373 37.4145 37.4142C37.6375 37.1918 37.7602 36.895 37.7602 36.58C37.7602 36.2649 37.6375 35.9682 37.4145 35.7457L31.1688 29.5ZM36.9974 36.9971C36.7743 37.2201 36.3861 37.2201 36.1631 36.9971L29.5002 30.3342L22.8374 36.9971C22.6143 37.2201 22.2261 37.2201 22.0031 36.9971C21.8916 36.8856 21.8302 36.7375 21.8302 36.58C21.8302 36.4225 21.8916 36.2744 22.0031 36.1629L28.666 29.5L22.0031 22.8371C21.8916 22.7256 21.8302 22.5775 21.8302 22.42C21.8302 22.2625 21.8916 22.1144 22.0031 22.0029C22.2261 21.7798 22.6143 21.7798 22.8374 22.0029L29.5002 28.6657L36.1631 22.0029C36.3861 21.7798 36.7743 21.7798 36.9974 22.0029C37.1089 22.1144 37.1702 22.2625 37.1702 22.42C37.1702 22.5775 37.1089 22.7256 36.9974 22.8371L30.3345 29.5L36.9974 36.1629C37.1089 36.2744 37.1702 36.4225 37.1702 36.58C37.1702 36.7375 37.1089 36.8856 36.9974 36.9971Z" fill="white"/>
</svg>
