<svg width="24" height="25" viewBox="0 0 24 25" fill="none" xmlns="http://www.w3.org/2000/svg">
<path fill-rule="evenodd" clip-rule="evenodd" d="M12.377 12.6815L22.1371 2.42072C22.2894 2.26064 22.2894 2.0008 22.1371 1.84073C21.9849 1.68065 21.7377 1.68065 21.5854 1.84073L11.8253 12.1015L2.0652 1.84073C1.91294 1.68065 1.66578 1.68065 1.51351 1.84073C1.36125 2.0008 1.36125 2.26064 1.51351 2.42072L11.2736 12.6815L1.51314 22.9426C1.36088 23.1027 1.36088 23.3625 1.51314 23.5226C1.66541 23.6826 1.91257 23.6826 2.06483 23.5226L11.8253 13.2614L21.5858 23.5226C21.7381 23.6826 21.9852 23.6826 22.1375 23.5226C22.2898 23.3625 22.2898 23.1027 22.1375 22.9426L12.377 12.6815Z" fill="white" stroke="white" stroke-width="2"/>
</svg>
