<svg width="20" height="20" viewBox="0 0 20 20" fill="none" xmlns="http://www.w3.org/2000/svg">
<path d="M9.99141 0.00173804C15.3583 -0.101458 19.9931 4.40406 20 9.96562C20.0069 15.4329 15.5158 19.9742 10.0004 19.9783C4.48489 19.9832 0.00826867 15.3971 1.30204e-05 9.98419C-0.0089306 4.51551 4.59084 -0.100082 9.99141 0.00173804ZM1.9566 9.97112C1.88849 14.3707 5.45631 18.0259 9.99279 18.039C14.3937 18.052 18.0551 14.4285 18.0627 9.98557C18.0703 5.54197 14.3731 1.92324 10.0072 1.91636C5.6283 1.90948 1.87405 5.57293 1.9566 9.97112Z" fill="#2797E8"/>
<path d="M9.99999 12.2399C9.71379 12.2399 9.42759 12.2426 9.1414 12.2392C8.78297 12.235 8.59653 12.0431 8.59171 11.6819C8.58621 11.2512 8.59515 10.8226 8.79466 10.425C9.08361 9.84778 9.57964 9.48384 10.1073 9.1543C10.4946 8.91214 10.8895 8.68167 11.2789 8.44156C11.7791 8.13335 11.7385 7.40342 11.3133 7.04361C10.613 6.45058 9.25491 6.40448 8.55043 7.25C8.38188 7.45226 8.20782 7.64902 8.03101 7.84441C7.8604 8.03291 7.7056 8.06731 7.50265 7.9249C7.08712 7.63182 6.67571 7.33118 6.27806 7.01334C6.03039 6.81589 6.01526 6.58886 6.19551 6.33225C6.79198 5.48467 7.53086 4.80289 8.53048 4.47197C10.0282 3.97594 11.4578 4.07914 12.7725 5.02992C13.4144 5.4943 13.9228 6.06394 14.1615 6.83171C14.4924 7.89325 14.2902 9.11509 13.3504 9.91176C13.1647 10.0693 12.9486 10.1925 12.7429 10.3252C12.4031 10.5454 12.0536 10.7525 11.7199 10.9822C11.5011 11.1336 11.3986 11.3537 11.4048 11.6317C11.4145 12.0665 11.2301 12.2399 10.7891 12.2405C10.5263 12.2399 10.2628 12.2399 9.99999 12.2399Z" fill="#2797E8"/>
<path d="M9.99705 16.1738C9.08618 16.1717 8.31221 15.3977 8.31152 14.4875C8.31084 13.5767 9.10613 12.7903 10.0115 12.7944C10.8976 12.7986 11.7046 13.6723 11.6888 14.491C11.6716 15.4039 10.9059 16.1765 9.99705 16.1738Z" fill="#2797E8"/>
</svg>
