<svg width="32" height="32" viewBox="0 0 32 32" fill="none" xmlns="http://www.w3.org/2000/svg">
<g clip-path="url(#clip0)">
<path d="M17.5 1.5C10.7793 1.5 5.11914 6.09766 3.48242 12.3105L0.146484 15.6465C-0.0488282 15.8418 -0.0488282 16.1582 0.146484 16.3535L3.48242 19.6895C5.11914 25.9023 10.7793 30.5 17.5 30.5C25.4941 30.5 32 23.9961 32 16C32 8.00391 25.4941 1.5 17.5 1.5ZM17.5 2.5C24.9434 2.5 31 8.55664 31 16C31 23.4434 24.9434 29.5 17.5 29.5C11.9375 29.5 7.1582 26.1152 5.09375 21.2988L5.64648 21.8535C5.8418 22.0488 6.1582 22.0488 6.35352 21.8535L7.17969 21.0273C7.72266 22.1465 8.43945 23.2031 9.36719 24.1328C9.46484 24.2285 9.59375 24.2793 9.7207 24.2793C9.84961 24.2793 9.97852 24.2285 10.0762 24.1328C10.2715 23.9355 10.2715 23.6211 10.0762 23.4238C9.14062 22.4902 8.4375 21.418 7.93164 20.2754L8.35352 19.8535C8.54883 19.6582 8.54883 19.3438 8.35352 19.1484L7.21094 18.0039C7.21094 18.002 7.21094 18.002 7.21094 18H20.5C20.7754 18 21 17.7773 21 17.5V14.5C21 14.2246 20.7754 14 20.5 14H7.21094V13.998L8.35352 12.8535C8.54883 12.6582 8.54883 12.3438 8.35352 12.1484L7.93164 11.7246C8.4375 10.584 9.14062 9.50977 10.0762 8.57617C12.4492 6.20312 15.8496 5.10156 19.1699 5.63281C19.4414 5.67773 19.6992 5.49219 19.7422 5.21875C19.7871 4.94531 19.5996 4.68945 19.3281 4.64453C15.6934 4.0625 11.9688 5.26758 9.36719 7.86719C8.43945 8.79688 7.72266 9.85156 7.17969 10.9727L6.35352 10.1484C6.25586 10.0488 6.12891 10 6 10C5.87109 10 5.74414 10.0488 5.64648 10.1465L5.09375 10.7012C7.1582 5.88477 11.9375 2.5 17.5 2.5ZM21.3281 5.19336C21.1348 5.20117 20.9551 5.32422 20.8828 5.51758C20.7852 5.77734 20.916 6.06445 21.1758 6.16211C21.5332 6.29492 21.8848 6.44922 22.2266 6.61914C22.2969 6.65625 22.373 6.67383 22.4492 6.67383C22.6309 6.67383 22.8086 6.57422 22.8965 6.39844C23.0215 6.15234 22.9219 5.85156 22.6758 5.72656C22.3047 5.53906 21.916 5.37109 21.5254 5.22461C21.4609 5.20117 21.3945 5.19141 21.3281 5.19336ZM24.2168 6.83789C24.0898 6.85352 23.9688 6.91602 23.8828 7.02539C23.7129 7.24219 23.75 7.55664 23.9688 7.72656C24.3027 7.98828 24.623 8.27344 24.9238 8.57617C29.0195 12.6699 29.0195 19.3301 24.9238 23.4238C24.7285 23.6211 24.7285 23.9355 24.9238 24.1328C25.0215 24.2285 25.1504 24.2793 25.2793 24.2793C25.4062 24.2793 25.5352 24.2285 25.6328 24.1328C30.1152 19.6484 30.1152 12.3516 25.6328 7.86719C25.3027 7.53906 24.9512 7.22656 24.5859 6.93945C24.4766 6.85547 24.3418 6.82227 24.2168 6.83789ZM6 11.207L7.29297 12.5L5.64648 14.1465C5.50391 14.2891 5.46094 14.5039 5.53906 14.6914C5.61523 14.877 5.79883 15 6 15H20V17H6C5.79883 17 5.61523 17.123 5.53906 17.3086C5.46094 17.4961 5.50391 17.7109 5.64648 17.8535L7.29297 19.5L6 20.793L1.20703 16L6 11.207ZM12.6875 24.1973C12.4922 24.1738 12.2949 24.2637 12.1934 24.4434L11.6934 25.3105C11.5547 25.5488 11.6367 25.8535 11.875 25.9922C11.9531 26.0371 12.0391 26.0605 12.125 26.0605C12.2969 26.0605 12.4648 25.9707 12.5566 25.8105L13.0566 24.9434C13.1953 24.7051 13.1152 24.3984 12.875 24.2598C12.8145 24.2266 12.75 24.2051 12.6875 24.1973ZM22.3125 24.1973C22.248 24.2051 22.1836 24.2266 22.125 24.2598C21.8848 24.3984 21.8047 24.7051 21.9434 24.9453L22.4434 25.8105C22.5352 25.9707 22.7031 26.0605 22.875 26.0605C22.9609 26.0605 23.0469 26.0391 23.125 25.9922C23.3652 25.8555 23.4453 25.5488 23.3066 25.3105L22.8066 24.4453C22.7031 24.2656 22.5059 24.1738 22.3125 24.1973ZM14.9082 25.1719C14.7148 25.1992 14.5469 25.3379 14.4922 25.5391L14.2344 26.5059C14.1621 26.7715 14.3223 27.0449 14.5879 27.1172C14.6309 27.1289 14.6738 27.1348 14.7188 27.1348C14.9375 27.1348 15.1406 26.9863 15.2012 26.7637L15.4609 25.7969C15.5312 25.5312 15.373 25.2559 15.1074 25.1855C15.0391 25.166 14.9727 25.1621 14.9082 25.1719ZM20.0938 25.1719C20.0293 25.1621 19.9609 25.166 19.8926 25.1855C19.627 25.2559 19.4688 25.5312 19.5391 25.7969L19.7988 26.7637C19.8594 26.9863 20.0605 27.1348 20.2812 27.1348C20.3262 27.1348 20.3691 27.1289 20.4121 27.1172C20.6777 27.0449 20.8379 26.7715 20.7656 26.5059L20.5078 25.5391C20.4531 25.3379 20.2852 25.1992 20.0938 25.1719ZM17.5 25.5C17.2227 25.5 17 25.7246 17 26V27C17 27.2754 17.2227 27.5 17.5 27.5C17.7773 27.5 18 27.2754 18 27V26C18 25.7246 17.7773 25.5 17.5 25.5Z" fill="#747373"/>
</g>
<defs>
<clipPath id="clip0">
<rect width="32" height="32" fill="white"/>
</clipPath>
</defs>
</svg>
