<svg width="159" height="56" viewBox="0 0 159 56" fill="none" xmlns="http://www.w3.org/2000/svg">
<path d="M16.0715 21.189H0V37.3331H16.0715V21.189Z" fill="#A568BC"/>
<path d="M48.2141 21.189H32.1426V37.3331H48.2141V21.189Z" fill="#A1E663"/>
<path d="M32.1428 5.04492H16.0713V21.1891H32.1428V5.04492Z" fill="#FF8552"/>
<path d="M32.1428 37.3333H16.0713V53.4774H32.1428V37.3333Z" fill="#1DB9CA"/>
<path d="M36.1611 17.1529V1.00879C45.0388 1.00879 52.2327 8.23808 52.2327 17.1529H36.1611Z" fill="#FFD026"/>
<path d="M32.1426 53.4774V37.3333H48.2141C48.2141 46.2481 41.0202 53.4774 32.1426 53.4774Z" fill="#47D2A5"/>
<path d="M0 21.1891C0 12.2713 7.19677 5.04492 16.0715 5.04492V21.1891H0Z" fill="#FF525F"/>
<path d="M0 37.3333H16.0715V53.4774C7.19677 53.4803 0 46.251 0 37.3333Z" fill="#2797E8"/>
<path d="M70.2734 39.793C68.4015 38.7421 66.9349 37.2944 65.8765 35.447C64.8181 33.6023 64.2861 31.5257 64.2861 29.2227C64.2861 26.9198 64.8153 24.8432 65.8765 22.9985C66.9349 21.1539 68.4015 19.7062 70.2734 18.6525C72.1452 17.6016 74.2479 17.0762 76.5815 17.0762C78.915 17.0762 81.0121 17.6016 82.8727 18.6525C84.7333 19.7034 86.1999 21.1511 87.2695 22.9985C88.3392 24.8432 88.874 26.9198 88.874 29.2227C88.874 31.5257 88.3392 33.6023 87.2695 35.447C86.1999 37.2916 84.7333 38.7421 82.8727 39.793C81.0121 40.8439 78.9122 41.3693 76.5815 41.3693C74.2508 41.3693 72.1481 40.8439 70.2734 39.793ZM80.2886 35.9836C81.3921 35.3268 82.2562 34.4101 82.8868 33.2334C83.5145 32.0568 83.8297 30.7208 83.8297 29.2227C83.8297 27.7247 83.5145 26.3859 82.8868 25.2121C82.2591 24.0354 81.3921 23.1187 80.2886 22.4619C79.1852 21.8051 77.9495 21.4753 76.5815 21.4753C75.2134 21.4753 73.9777 21.8051 72.8771 22.4619C71.7737 23.1187 70.9095 24.0354 70.279 25.2121C69.6484 26.3887 69.336 27.7247 69.336 29.2227C69.336 30.7208 69.6513 32.0596 70.279 33.2334C70.9067 34.4101 71.7737 35.3268 72.8771 35.9836C73.9805 36.6404 75.2163 36.9702 76.5815 36.9702C77.9495 36.9674 79.1852 36.6404 80.2886 35.9836Z" fill="#3D4C66"/>
<path d="M91.6973 15.9834H96.5219V40.9809H91.6973V15.9834Z" fill="#3D4C66"/>
<path d="M101.009 23.5855H105.833V40.9809H101.009V23.5855ZM106.337 18.4625C106.306 20.4916 103.382 22.4648 103.382 22.4648C103.382 22.4648 100.403 20.4385 100.426 18.4625C100.443 16.9449 101.749 15.6396 103.382 15.6396C105.014 15.6396 106.36 16.9449 106.337 18.4625Z" fill="#3D4C66"/>
<path d="M126.838 23.5854L119.815 40.9808H114.836L107.844 23.5854H112.823L117.431 35.419L122.194 23.5854H126.838Z" fill="#3D4C66"/>
<path d="M144.564 33.7058H131.976C132.204 34.7846 132.738 35.6343 133.583 36.2603C134.427 36.8864 135.48 37.1994 136.738 37.1994C137.605 37.1994 138.374 37.0652 139.044 36.7941C139.714 36.5258 140.339 36.0982 140.916 35.5169L143.483 38.4263C141.915 40.3017 139.626 41.238 136.615 41.238C134.737 41.238 133.076 40.8551 131.635 40.0893C130.191 39.3235 129.076 38.2614 128.294 36.9059C127.508 35.5476 127.117 34.0076 127.117 32.2832C127.117 30.5811 127.503 29.0439 128.277 27.6772C129.051 26.3077 130.112 25.2429 131.463 24.4771C132.814 23.7113 134.326 23.3284 135.995 23.3284C137.625 23.3284 139.1 23.6945 140.42 24.4268C141.74 25.159 142.776 26.2099 143.528 27.5794C144.279 28.9489 144.657 30.5364 144.657 32.3475C144.657 32.4118 144.626 32.8645 144.564 33.7058ZM133.273 28.1132C132.53 28.7588 132.077 29.6448 131.911 30.7656H140.108C139.942 29.6672 139.489 28.7868 138.745 28.13C138.002 27.4732 137.096 27.1434 136.023 27.1434C134.934 27.1434 134.016 27.4676 133.273 28.1132Z" fill="#3D4C66"/>
<path d="M154.818 23.974C155.798 23.5436 156.927 23.3284 158.204 23.3284V27.9847C157.667 27.9427 157.307 27.9204 157.121 27.9204C155.739 27.9204 154.655 28.3256 153.872 29.1333C153.087 29.9411 152.696 31.1541 152.696 32.7695V40.9809H147.871V23.5855H152.479V25.8801C153.062 25.0416 153.839 24.4072 154.818 23.974Z" fill="#3D4C66"/>
</svg>
