<svg width="53" height="53" viewBox="0 0 53 53" fill="none" xmlns="http://www.w3.org/2000/svg">
<path d="M16.1524 20.6958H0V36.8482H16.1524V20.6958Z" fill="#A568BC"/>
<path d="M48.4571 20.6958H32.3047V36.8482H48.4571V20.6958Z" fill="#A1E663"/>
<path d="M32.3047 4.54346H16.1523V20.6958H32.3047V4.54346Z" fill="#FF8552"/>
<path d="M32.3047 36.8481H16.1523V53.0005H32.3047V36.8481Z" fill="#1DB9CA"/>
<path d="M36.8477 16.1529V0.000488281C45.77 0.000488281 53 7.23346 53 16.1529H36.8477Z" fill="#FFD026"/>
<path d="M32.3047 53.0005V36.8481H48.4571C48.4571 45.7675 41.227 53.0005 32.3047 53.0005Z" fill="#47D2A5"/>
<path d="M0 20.6958C0 11.7735 7.23298 4.54346 16.1524 4.54346V20.6958H0Z" fill="#FF525F"/>
<path d="M0 36.8481H16.1524V53.0005C7.23298 53.0034 0 45.7705 0 36.8481Z" fill="#2797E8"/>
</svg>
