<svg width="28" height="25" viewBox="0 0 28 25" fill="none" xmlns="http://www.w3.org/2000/svg">
<path d="M13.4983 1.84717H7.05469V8.09125H13.4983V1.84717Z" fill="#2797E8"/>
<path d="M6.63805 2.14697C3.30167 2.38451 0.639603 5.04966 0.402344 8.39105H6.63805V2.14697Z" fill="#2797E8"/>
<path d="M6.63805 8.79321H0.402344V15.0373H6.63805V8.79321Z" fill="#2797E8"/>
<path d="M20.3576 8.79321H13.9141V15.0373H20.3576V8.79321Z" fill="#2797E8"/>
<path d="M13.9141 21.4836C17.3628 21.2548 20.1125 18.6751 20.3576 15.4409H13.9141V21.4836Z" fill="#2797E8"/>
<path d="M13.4983 15.4409H7.05469V21.4836H13.4983V15.4409Z" fill="#2797E8"/>
<path d="M6.63805 15.4409H0.402344C0.638467 18.6762 3.2994 21.2548 6.63805 21.4836V15.4409Z" fill="#2797E8"/>
<path d="M19.0482 19.6478C20.9286 22.3289 24.6415 23.2304 27.7463 21.7588L24.6285 16.5257L19.0482 19.6478Z" fill="#2797E8"/>
</svg>
