<svg width="131" height="95" viewBox="0 0 131 95" fill="none" xmlns="http://www.w3.org/2000/svg">
<g opacity="0.5">
<path d="M76.8025 6.24805H52.5918V30.4587H76.8025V6.24805Z" fill="#B0BEC9"/>
<path d="M51.0303 6.24805C38.4943 7.16906 28.492 17.5029 27.6006 30.4587H51.0303V6.24805Z" fill="#B0BEC9"/>
<path d="M51.0303 32.0195H27.6006V56.2302H51.0303V32.0195Z" fill="#B0BEC9"/>
<path d="M102.575 32.0195H78.3647V56.2302H102.575V32.0195Z" fill="#B0BEC9"/>
<path d="M78.3647 81.2227C91.3229 80.3355 101.654 70.3332 102.575 57.793H78.3647V81.2227Z" fill="#B0BEC9"/>
<path d="M76.8025 57.793H52.5918V81.2227H76.8025V57.793Z" fill="#B0BEC9"/>
<path d="M51.0303 57.793H27.6006C28.4878 70.3374 38.4858 80.3355 51.0303 81.2227V57.793Z" fill="#B0BEC9"/>
</g>
<path d="M97.6592 74.1058C104.725 84.5017 118.675 87.997 130.341 82.2911L118.626 62.0004L97.6592 74.1058Z" fill="#D8DFE4"/>
</svg>
