<svg width="100" height="35" viewBox="0 0 100 35" fill="none" xmlns="http://www.w3.org/2000/svg">
<path d="M20.2158 2.83789H10.4238V12.6127H20.2158V2.83789Z" fill="#3D4C66"/>
<path d="M9.79206 2.83789C4.7219 3.20974 0.67647 7.3819 0.315918 12.6127H9.79206V2.83789Z" fill="#3D4C66"/>
<path d="M9.79206 13.2434H0.315918V23.0182H9.79206V13.2434Z" fill="#3D4C66"/>
<path d="M30.6394 13.2434H20.8474V23.0182H30.6394V13.2434Z" fill="#3D4C66"/>
<path d="M20.8474 33.1081C26.0884 32.7499 30.2669 28.7116 30.6394 23.6487H20.8474V33.1081V33.1081Z" fill="#3D4C66"/>
<path d="M20.2158 23.6487H10.4238V33.1081H20.2158V23.6487Z" fill="#3D4C66"/>
<path d="M9.79206 23.6487H0.315918C0.674745 28.7134 4.71845 32.7499 9.79206 33.1081V23.6487Z" fill="#3D4C66"/>
<path d="M22.4268 0.630859V10.721H32.5346C32.5329 5.14838 28.0075 0.630859 22.4268 0.630859Z" fill="#3D4C66"/>
<path d="M44.1972 24.8706C43.0199 24.2138 42.0975 23.309 41.4319 22.1543C40.7662 21.0015 40.4316 19.7036 40.4316 18.2642C40.4316 16.8249 40.7645 15.527 41.4319 14.3741C42.0975 13.2212 43.0199 12.3163 44.1972 11.6578C45.3745 11.001 46.6969 10.6726 48.1646 10.6726C49.6322 10.6726 50.9511 11.001 52.1213 11.6578C53.2915 12.3146 54.2139 13.2194 54.8866 14.3741C55.5593 15.527 55.8957 16.8249 55.8957 18.2642C55.8957 19.7036 55.5593 21.0015 54.8866 22.1543C54.2139 23.3072 53.2915 24.2138 52.1213 24.8706C50.9511 25.5274 49.6304 25.8558 48.1646 25.8558C46.6987 25.8558 45.3762 25.5274 44.1972 24.8706ZM50.4961 22.4897C51.1901 22.0792 51.7336 21.5063 52.1302 20.7709C52.5249 20.0355 52.7232 19.2005 52.7232 18.2642C52.7232 17.3279 52.5249 16.4912 52.1302 15.7576C51.7354 15.0221 51.1901 14.4492 50.4961 14.0387C49.8021 13.6282 49.0249 13.4221 48.1646 13.4221C47.3042 13.4221 46.527 13.6282 45.8348 14.0387C45.1408 14.4492 44.5973 15.0221 44.2007 15.7576C43.8042 16.493 43.6077 17.3279 43.6077 18.2642C43.6077 19.2005 43.8059 20.0372 44.2007 20.7709C44.5955 21.5063 45.1408 22.0792 45.8348 22.4897C46.5287 22.9002 47.3059 23.1064 48.1646 23.1064C49.0249 23.1046 49.8021 22.9002 50.4961 22.4897Z" fill="#3D4C66"/>
<path d="M57.6714 9.9895H60.7058V25.6129H57.6714V9.9895Z" fill="#3D4C66"/>
<path d="M63.5277 14.7408H66.5621V25.6129H63.5277V14.7408ZM66.879 11.5389C66.8595 12.8071 65.0201 14.0404 65.0201 14.0404C65.0201 14.0404 63.147 12.7739 63.1612 11.5389C63.1718 10.5904 63.9933 9.77466 65.0201 9.77466C66.0469 9.77466 66.8931 10.5904 66.879 11.5389Z" fill="#3D4C66"/>
<path d="M79.7725 14.7407L75.3555 25.6128H72.2237L67.8262 14.7407H70.9579L73.856 22.1367L76.8514 14.7407H79.7725V14.7407Z" fill="#3D4C66"/>
<path d="M90.9204 21.066H83.0034C83.1468 21.7402 83.4832 22.2713 84.0143 22.6625C84.5454 23.0538 85.2075 23.2495 85.9988 23.2495C86.5441 23.2495 87.0274 23.1656 87.4488 22.9962C87.8701 22.8285 88.2631 22.5612 88.626 22.1979L90.2406 24.0163C89.2545 25.1884 87.8152 25.7736 85.9209 25.7736C84.7401 25.7736 83.6956 25.5343 82.7892 25.0557C81.881 24.577 81.1799 23.9133 80.6878 23.0661C80.1938 22.2171 79.9478 21.2546 79.9478 20.1768C79.9478 19.113 80.1903 18.1523 80.6771 17.2981C81.164 16.4422 81.8314 15.7766 82.6812 15.298C83.531 14.8194 84.4816 14.5801 85.5315 14.5801C86.5565 14.5801 87.4842 14.8089 88.3145 15.2666C89.1447 15.7242 89.7962 16.381 90.2689 17.237C90.7416 18.0929 90.9788 19.0851 90.9788 20.217C90.9788 20.2572 90.9594 20.5402 90.9204 21.066ZM83.8195 17.5706C83.3521 17.9741 83.0671 18.5279 82.9627 19.2283H88.1179C88.0135 18.5418 87.7285 17.9916 87.2611 17.5811C86.7937 17.1706 86.2237 16.9645 85.5492 16.9645C84.864 16.9645 84.2869 17.1671 83.8195 17.5706Z" fill="#3D4C66"/>
<path d="M97.3697 14.9836C97.9858 14.7146 98.6957 14.5801 99.4995 14.5801V17.4903C99.1613 17.4641 98.9347 17.4501 98.8179 17.4501C97.9486 17.4501 97.267 17.7034 96.7749 18.2082C96.281 18.713 96.0349 19.4711 96.0349 20.4808V25.6129H93.0005V14.7408H95.8986V16.1749C96.265 15.6509 96.7536 15.2543 97.3697 14.9836Z" fill="#3D4C66"/>
</svg>
