<svg width="33" height="29" viewBox="0 0 33 29" fill="none" xmlns="http://www.w3.org/2000/svg">
<path fill-rule="evenodd" clip-rule="evenodd" d="M17.0493 14.4196V2.29293C17.0493 2.10374 16.87 1.9502 16.6491 1.9502C16.4282 1.9502 16.2489 2.10374 16.2489 2.29293V14.4196H2.08868C1.86777 14.4196 1.68848 14.5732 1.68848 14.7624C1.68848 14.9516 1.86777 15.1051 2.08868 15.1051H16.2489V27.2323C16.2489 27.4215 16.4282 27.575 16.6491 27.575C16.87 27.575 17.0493 27.4215 17.0493 27.2323V15.1051H31.2101C31.431 15.1051 31.6103 14.9516 31.6103 14.7624C31.6103 14.5732 31.431 14.4196 31.2101 14.4196H17.0493Z" fill="#4B4B4B" stroke="#4B4B4B" stroke-width="2"/>
</svg>
