<svg width="16" height="16" viewBox="0 0 16 16" fill="none" xmlns="http://www.w3.org/2000/svg">
<path d="M0.395023 8.00135C0.395437 8.41556 0.731558 8.75102 1.14577 8.7506C1.55998 8.75019 1.89544 8.41407 1.89502 7.99985L0.395023 8.00135ZM2.28902 4.1116L2.91916 4.51834L2.91952 4.51777L2.28902 4.1116ZM5.33502 1.5336L5.0396 0.844238L5.03866 0.844641L5.33502 1.5336ZM9.25602 1.1336L9.40853 0.399269L9.40616 0.398784L9.25602 1.1336ZM12.73 3.0506L12.1901 3.57114L12.1907 3.57175L12.73 3.0506ZM13.7142 6.20779C13.8286 6.60588 14.2441 6.83584 14.6422 6.72142C15.0403 6.60699 15.2703 6.19151 15.1558 5.79342L13.7142 6.20779ZM13.7091 5.81196C13.6049 6.21285 13.8455 6.6223 14.2464 6.72649C14.6473 6.83068 15.0567 6.59015 15.1609 6.18925L13.7091 5.81196ZM15.8709 3.45725C15.9751 3.05635 15.7346 2.6469 15.3337 2.54272C14.9328 2.43853 14.5233 2.67906 14.4191 3.07996L15.8709 3.45725ZM14.2353 6.72351C14.6345 6.83384 15.0476 6.59962 15.1579 6.20036C15.2683 5.80111 15.034 5.38802 14.6348 5.2777L14.2353 6.72351ZM11.9858 4.5457C11.5865 4.43537 11.1734 4.66959 11.0631 5.06884C10.9528 5.46809 11.187 5.88119 11.5863 5.99151L11.9858 4.5457ZM15.895 7.99985C15.8946 7.58564 15.5585 7.25019 15.1443 7.2506C14.7301 7.25102 14.3946 7.58714 14.395 8.00135L15.895 7.99985ZM14.001 11.8896L13.3709 11.4829L13.3705 11.4834L14.001 11.8896ZM10.955 14.4676L11.2505 15.157L11.2514 15.1566L10.955 14.4676ZM7.03402 14.8676L6.88151 15.6019L6.88388 15.6024L7.03402 14.8676ZM3.56002 12.9506L4.09997 12.4301L4.09938 12.4295L3.56002 12.9506ZM2.57584 9.79342C2.46141 9.39532 2.04593 9.16536 1.64784 9.27979C1.24974 9.39421 1.01978 9.80969 1.13421 10.2078L2.57584 9.79342ZM2.58091 10.1892C2.6851 9.78835 2.44457 9.3789 2.04367 9.27472C1.64277 9.17053 1.23332 9.41106 1.12914 9.81196L2.58091 10.1892ZM0.419136 12.544C0.314949 12.9449 0.555481 13.3543 0.956377 13.4585C1.35727 13.5627 1.76672 13.3221 1.87091 12.9212L0.419136 12.544ZM2.05478 9.2777C1.65553 9.16737 1.24244 9.40159 1.13212 9.80084C1.02179 10.2001 1.25601 10.6132 1.65526 10.7235L2.05478 9.2777ZM4.30426 11.4555C4.70351 11.5658 5.11661 11.3316 5.22693 10.9324C5.33726 10.5331 5.10304 10.12 4.70378 10.0097L4.30426 11.4555ZM1.89502 7.99985C1.89379 6.76491 2.24943 5.55591 2.91916 4.51834L1.65889 3.70487C0.832394 4.98532 0.393503 6.47733 0.395023 8.00135L1.89502 7.99985ZM2.91952 4.51777C3.57513 3.50005 4.51931 2.70094 5.63139 2.22256L5.03866 0.844641C3.65253 1.4409 2.47568 2.43693 1.65852 3.70544L2.91952 4.51777ZM5.63045 2.22297C6.72578 1.75356 7.93834 1.62986 9.10588 1.86842L9.40616 0.398784C7.93924 0.099059 6.41577 0.254476 5.0396 0.844239L5.63045 2.22297ZM9.10351 1.86793C10.2803 2.11232 11.3559 2.7059 12.1901 3.57114L13.27 2.53006C12.2264 1.44761 10.8807 0.705016 9.40853 0.399273L9.10351 1.86793ZM12.1907 3.57175C12.9065 4.31258 13.4296 5.21772 13.7142 6.20779L15.1558 5.79342C14.8035 4.5675 14.1557 3.44675 13.2694 2.52945L12.1907 3.57175ZM15.1609 6.18925L15.8709 3.45725L14.4191 3.07996L13.7091 5.81196L15.1609 6.18925ZM14.6348 5.2777L11.9858 4.5457L11.5863 5.99151L14.2353 6.72351L14.6348 5.2777ZM14.395 8.00135C14.3963 9.2363 14.0406 10.4453 13.3709 11.4829L14.6312 12.2963C15.4577 11.0159 15.8965 9.52388 15.895 7.99985L14.395 8.00135ZM13.3705 11.4834C12.7149 12.5012 11.7707 13.3003 10.6587 13.7786L11.2514 15.1566C12.6375 14.5603 13.8144 13.5643 14.6315 12.2958L13.3705 11.4834ZM10.6596 13.7782C9.56427 14.2476 8.35171 14.3713 7.18416 14.1328L6.88388 15.6024C8.3508 15.9021 9.87427 15.7467 11.2505 15.157L10.6596 13.7782ZM7.18653 14.1333C6.0098 13.8889 4.93411 13.2953 4.09997 12.4301L3.02008 13.4711C4.06363 14.5536 5.40936 15.2962 6.88151 15.6019L7.18653 14.1333ZM4.09938 12.4295C3.38355 11.6886 2.86042 10.7835 2.57584 9.79342L1.13421 10.2078C1.48658 11.4337 2.13433 12.5545 3.02067 13.4718L4.09938 12.4295ZM1.12914 9.81196L0.419136 12.544L1.87091 12.9212L2.58091 10.1892L1.12914 9.81196ZM1.65526 10.7235L4.30426 11.4555L4.70378 10.0097L2.05478 9.2777L1.65526 10.7235Z" fill="#2797E8"/>
</svg>
