<svg width="16" height="16" viewBox="0 0 16 16" fill="none" xmlns="http://www.w3.org/2000/svg">
<path fill-rule="evenodd" clip-rule="evenodd" d="M10.6921 1H5.30807C4.15914 1.00635 3.0598 1.46885 2.25189 2.28576C1.44398 3.10268 0.993684 4.20708 1.00007 5.356V10.644C0.993684 11.7929 1.44398 12.8973 2.25189 13.7142C3.0598 14.5311 4.15914 14.9937 5.30807 15H10.6921C11.841 14.9937 12.9403 14.5311 13.7482 13.7142C14.5562 12.8973 15.0064 11.7929 15.0001 10.644V5.356C15.0064 4.20708 14.5562 3.10268 13.7482 2.28576C12.9403 1.46885 11.841 1.00635 10.6921 1Z" stroke="#2797E8" stroke-linecap="round" stroke-linejoin="round"/>
<path fill-rule="evenodd" clip-rule="evenodd" d="M5.5 9L8 4V7H10.5L8 12V9H5.5Z" stroke="#2797E8" stroke-linecap="round" stroke-linejoin="round"/>
</svg>
