<svg width="20" height="20" viewBox="0 0 20 20" fill="none" xmlns="http://www.w3.org/2000/svg">
<path fill-rule="evenodd" clip-rule="evenodd" d="M10 20C15.5228 20 20 15.5228 20 10C20 4.47715 15.5228 0 10 0C4.47715 0 0 4.47715 0 10C0 15.5228 4.47715 20 10 20ZM12.4732 13.5902C12.7064 13.0874 12.8231 12.5301 12.8231 11.918C12.8231 11.3388 12.7488 10.8634 12.6004 10.4918C12.4626 10.1093 12.2876 9.79235 12.0755 9.54098C11.8635 9.28962 11.6302 9.08743 11.3757 8.93443C11.1319 8.77049 10.9039 8.61202 10.6918 8.45902C10.4798 8.30601 10.2995 8.14208 10.1511 7.96721C10.0133 7.79235 9.94433 7.57377 9.94433 7.31148C9.94433 7.14754 9.98675 6.99454 10.0716 6.85246C10.1564 6.71038 10.2571 6.59016 10.3738 6.4918C10.501 6.38251 10.6229 6.29508 10.7396 6.22951C10.8668 6.16393 10.9728 6.13115 11.0577 6.13115C11.2379 6.13115 11.381 6.20765 11.4871 6.36066C11.6037 6.50273 11.662 6.7377 11.662 7.06557C11.662 7.15301 11.6514 7.24044 11.6302 7.32787C11.6196 7.4153 11.6037 7.50273 11.5825 7.59016L13.8887 6.90164C13.9099 6.72678 13.9311 6.56284 13.9523 6.40984C13.9841 6.25683 14 6.10383 14 5.95082C14 5.59016 13.9417 5.28962 13.8251 5.04918C13.719 4.80874 13.5706 4.61202 13.3797 4.45902C13.1995 4.29508 12.9821 4.18033 12.7276 4.11475C12.4732 4.03825 12.2028 4 11.9165 4C11.397 4 10.8456 4.10383 10.2624 4.31148C9.67926 4.51913 9.1385 4.80328 8.64016 5.16393C8.15242 5.51366 7.7442 5.93443 7.41551 6.42623C7.08681 6.91803 6.92247 7.44809 6.92247 8.01639C6.92247 8.36612 7.00729 8.68306 7.17694 8.96721C7.34659 9.25137 7.54805 9.5082 7.78131 9.73771C8.02518 9.96721 8.29026 10.1858 8.57654 10.3934C8.86282 10.6011 9.1279 10.8087 9.37177 11.0164C9.61564 11.2131 9.8171 11.4262 9.97614 11.6557C10.1458 11.8743 10.2306 12.1148 10.2306 12.377C10.2306 12.5301 10.1935 12.6667 10.1193 12.7869C10.0557 12.8962 9.96554 12.9945 9.84891 13.082C9.73227 13.1694 9.60504 13.235 9.4672 13.2787C9.32936 13.3224 9.19682 13.3443 9.06958 13.3443C8.92114 13.3443 8.75149 13.3115 8.56064 13.2459C8.38038 13.1694 8.19483 13.0765 8.00398 12.9672C7.82372 12.8579 7.65938 12.7322 7.51093 12.5902C7.36249 12.4372 7.25116 12.2896 7.17694 12.1475L6 14.5246C6.39231 15.0383 6.80053 15.4153 7.22465 15.6557C7.64877 15.8852 8.0729 16 8.49702 16C9.10139 16 9.66335 15.9016 10.1829 15.7049C10.7131 15.5082 11.169 15.2295 11.5507 14.8689C11.943 14.5082 12.2505 14.082 12.4732 13.5902Z" fill="#A7AAAD"/>
</svg>
