<svg width="40" height="40" viewBox="0 0 40 40" fill="none" xmlns="http://www.w3.org/2000/svg">
<path d="M40 19.999C40 31.0447 31.0457 39.999 20 39.999C8.95431 39.999 0 31.0447 0 19.999C0 8.95333 8.95431 -0.000976562 20 -0.000976562C31.0457 -0.000976562 40 8.95333 40 19.999Z" fill="#3D1472"/>
<path d="M34.0628 5.77767C35.92 7.63485 37.3931 9.83963 38.3982 12.2661C39.4033 14.6927 39.9206 17.2934 39.9206 19.9198C39.9206 22.5462 39.4033 25.147 38.3982 27.5735C37.3931 30 35.92 32.2048 34.0628 34.0619C32.2056 35.9191 30.0008 37.3923 27.5743 38.3974C25.1478 39.4025 22.5471 39.9198 19.9206 39.9198C17.2942 39.9198 14.6935 39.4025 12.267 38.3974C9.84047 37.3923 7.63568 35.9191 5.77851 34.0619L34.0628 5.77767Z" fill="#280A50"/>
<path d="M25.1329 23.3084C25.1329 24.3934 24.9208 25.3814 24.4967 26.2726C24.0918 27.1445 23.5328 27.9001 22.8195 28.5394C22.1254 29.1788 21.2965 29.6728 20.3326 30.0215C19.3879 30.3703 18.3662 30.5446 17.2673 30.5446C16.4962 30.5446 15.7251 30.3412 14.9539 29.9343C14.1828 29.5081 13.4406 28.8397 12.7273 27.9291L14.8672 23.7153C15.0021 23.9671 15.2045 24.2287 15.4744 24.4999C15.7443 24.7518 16.0432 24.9746 16.3709 25.1683C16.7179 25.3621 17.0553 25.5267 17.383 25.6624C17.73 25.7786 18.0385 25.8367 18.3083 25.8367C18.5397 25.8367 18.7807 25.798 19.0313 25.7205C19.2819 25.643 19.5132 25.5267 19.7253 25.3718C19.9374 25.2168 20.1012 25.0424 20.2169 24.8487C20.3518 24.6355 20.4193 24.3934 20.4193 24.1221C20.4193 23.6571 20.2651 23.2309 19.9566 22.8434C19.6675 22.4366 19.3012 22.0588 18.8578 21.7101C18.4144 21.3419 17.9324 20.9738 17.4119 20.6057C16.8914 20.2376 16.4094 19.8501 15.966 19.4433C15.5419 19.0364 15.1756 18.5811 14.8672 18.0774C14.5587 17.5737 14.4045 17.0118 14.4045 16.3919C14.4045 15.3844 14.7033 14.4448 15.3009 13.5729C15.8986 12.7011 16.6408 11.9552 17.5276 11.3352C18.4337 10.6959 19.4168 10.1922 20.4772 9.82406C21.5375 9.45596 22.5399 9.2719 23.4846 9.2719C24.0051 9.2719 24.4967 9.33971 24.9594 9.47533C25.422 9.59157 25.8172 9.795 26.145 10.0856C26.492 10.3568 26.7619 10.7056 26.9547 11.1318C27.1667 11.558 27.2727 12.0908 27.2727 12.7302C27.2727 13.0014 27.2438 13.2726 27.186 13.5439C27.1474 13.8151 27.1089 14.1057 27.0703 14.4157L22.8773 15.6363C22.9159 15.4813 22.9448 15.3263 22.9641 15.1713C23.0026 15.0163 23.0219 14.8613 23.0219 14.7063C23.0219 14.1251 22.9159 13.7086 22.7038 13.4567C22.511 13.1855 22.2508 13.0498 21.923 13.0498C21.7688 13.0498 21.576 13.108 21.3447 13.2242C21.1326 13.3405 20.9109 13.4954 20.6796 13.6892C20.4675 13.8636 20.2844 14.0767 20.1301 14.3285C19.9759 14.5804 19.8988 14.8516 19.8988 15.1422C19.8988 15.6072 20.0241 15.9947 20.2747 16.3047C20.5446 16.6147 20.8724 16.9053 21.2579 17.1765C21.6435 17.4478 22.058 17.7287 22.5014 18.0193C22.964 18.2905 23.3882 18.649 23.7737 19.0946C24.1593 19.5402 24.4774 20.102 24.728 20.7801C24.9979 21.4388 25.1329 22.2816 25.1329 23.3084Z" fill="white"/>
</svg>
