<?xml version="1.0" encoding="UTF-8"?>
<svg width="18px" height="12px" viewBox="0 0 18 12" version="1.1" xmlns="http://www.w3.org/2000/svg" xmlns:xlink="http://www.w3.org/1999/xlink">
    <!-- Generator: Sketch 51.2 (57519) - http://www.bohemiancoding.com/sketch -->
    <title>twotone-local_shipping-24px</title>
    <desc>Created with Sketch.</desc>
    <defs></defs>
    <g id="Page-1" stroke="none" stroke-width="1" fill="none" fill-rule="evenodd">
        <g id="twotone-local_shipping-24px" transform="translate(0.000000, -3.000000)">
            <polygon id="Shape" points="0 0 18 0 18 18 0 18"></polygon>
            <path d="M2.25,11.25 L2.835,11.25 C3.2475,10.7925 3.84,10.5 4.5,10.5 C5.16,10.5 5.7525,10.7925 6.165,11.25 L11.25,11.25 L11.25,4.5 L2.25,4.5 L2.25,11.25 Z" id="Shape" fill="#FFFFFF" fill-rule="nonzero"></path>
            <path d="M12.75,6 L12.75,3 L2.25,3 C1.425,3 0.75,3.675 0.75,4.5 L0.75,12.75 L2.25,12.75 C2.25,13.995 3.255,15 4.5,15 C5.745,15 6.75,13.995 6.75,12.75 L11.25,12.75 C11.25,13.995 12.255,15 13.5,15 C14.745,15 15.75,13.995 15.75,12.75 L17.25,12.75 L17.25,9 L15,6 L12.75,6 Z M4.5,13.5 C4.0875,13.5 3.75,13.1625 3.75,12.75 C3.75,12.3375 4.0875,12 4.5,12 C4.9125,12 5.25,12.3375 5.25,12.75 C5.25,13.1625 4.9125,13.5 4.5,13.5 Z M11.25,11.25 L6.165,11.25 C5.7525,10.7925 5.1675,10.5 4.5,10.5 C3.8325,10.5 3.2475,10.7925 2.835,11.25 L2.25,11.25 L2.25,4.5 L11.25,4.5 L11.25,11.25 Z M13.5,13.5 C13.0875,13.5 12.75,13.1625 12.75,12.75 C12.75,12.3375 13.0875,12 13.5,12 C13.9125,12 14.25,12.3375 14.25,12.75 C14.25,13.1625 13.9125,13.5 13.5,13.5 Z M12.75,9 L12.75,7.125 L14.625,7.125 L16.095,9 L12.75,9 Z" id="Shape" fill="#FF6630" fill-rule="nonzero"></path>
        </g>
    </g>
</svg>