<?xml version="1.0" encoding="UTF-8"?>
<svg width="320px" height="44.5176882px" viewBox="0 0 320 44.5176882" version="1.1" xmlns="http://www.w3.org/2000/svg" xmlns:xlink="http://www.w3.org/1999/xlink">
    <title>szamlazzhu_logo-responsive-H_02</title>
    <g id="Page-1" stroke="none" stroke-width="1" fill="none" fill-rule="evenodd">
        <g id="szamlazzhu_logo-responsive-H_02" fill="#FF6630" fill-rule="nonzero">
            <path d="M69.2901027,23.8165193 C68.6467857,23.1415084 67.7873438,22.5470808 66.7107655,22.032562 C65.6335128,21.5187175 64.3246256,21.0524138 62.7814064,20.6343252 C61.5922139,20.313341 60.6521888,20.0240506 59.961331,19.766454 C59.2704732,19.5095318 58.7478624,19.2843034 58.3948472,19.0914431 C58.0731887,18.8668891 57.8236842,18.5934456 57.6476823,18.2717871 C57.4703318,17.9508029 57.3823309,17.6132974 57.3823309,17.2592708 C57.3823309,16.9052441 57.4551593,16.5842599 57.5994673,16.2953067 C57.7444496,16.0060163 57.9605745,15.7575233 58.250202,15.5481418 C58.5398296,15.3394346 58.9009368,15.1863602 59.3348724,15.0902673 C59.7688079,14.9938371 60.2587134,14.9456221 60.8052632,14.9456221 C61.4158749,14.9456221 62.1067327,15.0744204 62.8781737,15.3310054 C63.6499519,15.588602 64.397454,15.9419543 65.1200056,16.3917368 C65.6075509,16.6951882 66.0617165,17.0202185 66.4828397,17.3668274 C66.8243912,17.6476886 67.3257604,17.6068912 67.6224685,17.2788265 L70.1819128,14.4493104 C70.4964908,14.1016899 70.4658085,13.5615463 70.1107703,13.2553975 C69.4563267,12.691315 68.7246716,12.1858998 67.916142,11.7391518 C66.8388894,11.1447242 65.6743102,10.6865125 64.4210557,10.3651911 C63.1667898,10.0442069 61.8811672,9.88304049 60.5638507,9.88304049 C59.2465343,9.88304049 57.9922683,10.068483 56.803413,10.4373451 C55.6135462,10.8072187 54.5615812,11.3291552 53.645495,12.0041661 C52.7297459,12.679177 52.0142749,13.4910782 51.5000932,14.4388582 C50.9855745,15.3873125 50.7286522,16.4396147 50.7286522,17.5967762 C50.7286522,18.5610775 50.8810523,19.4373778 51.1868639,20.2243285 C51.4920012,21.0122908 51.9340288,21.7429344 52.5129467,22.4179453 C53.1879576,23.1253243 54.0956146,23.7602122 55.236592,24.3222717 C56.3772323,24.8850056 57.7677142,25.3755854 59.4070264,25.7926625 C60.4677578,26.0819529 61.3356289,26.3473043 62.0103026,26.5880425 C62.6853135,26.8291178 63.1829738,27.045917 63.5049695,27.2391144 C64.0832131,27.6248349 64.3725035,28.1717219 64.3725035,28.8784266 C64.3725035,29.2324532 64.3006867,29.5615295 64.1557043,29.8666668 C64.0113963,30.1724784 63.7942599,30.4294006 63.5049695,30.6381078 C63.2156792,30.8474893 62.8697445,31.0079814 62.4685143,31.1202584 C62.0662725,31.2332098 61.6245821,31.2891797 61.1424315,31.2891797 C59.9205337,31.2891797 58.6999845,31.0565336 57.4784239,30.5898927 C56.4716394,30.2061952 55.5528559,29.6201968 54.7210617,28.8325717 C54.4125528,28.5402468 53.9334367,28.5274344 53.6104295,28.803238 L50.5580451,31.4098859 C50.1942405,31.7207551 50.1608609,32.2780942 50.493646,32.6220059 C51.5327986,33.6952125 52.8244902,34.5603863 54.3687209,35.2182016 C56.2167402,36.0054895 58.3297737,36.399302 60.7084959,36.399302 C62.6370984,36.399302 64.3725035,36.0452753 65.9153855,35.3385706 C67.4586047,34.6322031 68.6710618,33.6675647 69.555117,32.446004 C70.4391722,31.2247806 70.8811998,29.8265437 70.8811998,28.2516307 C70.8811998,27.352403 70.7524015,26.5324097 70.4954793,25.7926625 C70.2378828,25.0539269 69.8363153,24.3944257 69.2901027,23.8161821 L69.2901027,23.8165193 Z" id="Path"></path>
            <path d="M93.9000149,30.2766634 L82.3381777,30.2766634 L93.9175476,14.9682124 C93.9762149,14.8910008 94.0075715,14.7965937 94.0075715,14.6998264 L94.0075715,10.8584683 C94.0075715,10.6126726 93.8086423,10.4137434 93.5628466,10.4137434 L74.1068887,10.4137434 C73.8614302,10.4137434 73.6625009,10.6130098 73.6625009,10.8584683 L73.6625009,15.6095064 C73.6625009,15.8553021 73.8614302,16.0542314 74.1068887,16.0542314 L85.626917,16.0542314 L73.7545478,31.4584382 C73.6945319,31.536324 73.6621637,31.6317427 73.6621637,31.7298586 L73.6621637,35.4727636 C73.6621637,35.7185593 73.861093,35.9174886 74.1065515,35.9174886 L93.8996777,35.9174886 C94.1451362,35.9174886 94.3444026,35.7182221 94.3444026,35.4727636 L94.3444026,30.7213883 C94.3444026,30.4755927 94.1451362,30.2766634 93.8996777,30.2766634 L93.9000149,30.2766634 Z" id="Path"></path>
            <path d="M122.201582,10.4134062 L117.071904,10.4134062 C116.611332,10.4134062 116.237413,10.7869886 116.237413,11.2475605 L116.237413,13.767219 C115.748519,13.0982771 115.181402,12.4920486 114.525947,11.9562882 C113.737647,11.3136455 112.821561,10.8075559 111.777688,10.4376823 C110.732804,10.0688202 109.584071,9.88337766 108.33048,9.88337766 C106.113261,9.88337766 104.136444,10.4461115 102.400364,11.5709049 C100.664959,12.6963725 99.2909983,14.2551015 98.2781449,16.2474288 C97.2659657,18.2407676 96.7598761,20.5223853 96.7598761,23.0936305 C96.7598761,25.6648758 97.2571993,27.9471678 98.2545431,29.9394951 C99.250201,31.9328339 100.599886,33.5074098 102.303934,34.6642341 C104.007645,35.8213956 105.920064,36.3999763 108.041189,36.3999763 C109.230045,36.3999763 110.355512,36.2145338 111.415907,35.8456717 C112.476638,35.4768096 113.43251,34.9778006 114.284197,34.3513419 C115.001691,33.8229993 115.617023,33.2285716 116.140308,32.5748023 L116.140308,35.0840086 C116.140308,35.5445804 116.514228,35.9181629 116.9748,35.9181629 L122.200908,35.9181629 C122.66148,35.9181629 123.034725,35.5445804 123.034725,35.0840086 L123.034725,11.248572 C123.034725,10.7880001 122.66148,10.4144177 122.200908,10.4144177 L122.201582,10.4134062 Z M115.538463,26.9741002 C115.008097,28.0830466 114.26127,28.9431629 113.296631,29.5534374 C112.331993,30.1643863 111.206862,30.4691865 109.921914,30.4691865 C108.668659,30.4691865 107.566794,30.1640492 106.619351,29.5534374 C105.670896,28.9431629 104.923731,28.0830466 104.377519,26.9741002 C103.830295,25.8651537 103.5582,24.5717762 103.5582,23.0929562 C103.5582,21.6465043 103.830295,20.3774029 104.377519,19.2843034 C104.923731,18.1918782 105.670896,17.3314248 106.619351,16.7049661 C107.566794,16.0781703 108.668659,15.764941 109.921914,15.764941 C111.206862,15.764941 112.33233,16.0785075 113.296631,16.7049661 C114.26127,17.3317619 115.008097,18.1918782 115.538463,19.2843034 C116.068492,20.3774029 116.33418,21.6465043 116.33418,23.0929562 C116.33418,24.5717762 116.068829,25.8651537 115.538463,26.9741002 Z" id="Shape"></path>
            <path d="M163.026928,11.112356 C161.708937,10.3250681 160.053778,9.93125556 158.061114,9.93125556 C157.225274,9.93125556 156.373924,10.0600538 155.50639,10.3166389 C154.637844,10.5742354 153.801667,10.9275878 152.999207,11.3773703 C152.195735,11.8278271 151.471834,12.3740397 150.829866,13.0166824 C150.313661,13.532887 149.87332,14.091912 149.502772,14.6907229 C149.149756,13.8370128 148.725599,13.108055 148.226253,12.5105928 C147.486505,11.627212 146.58694,10.97614 145.526209,10.5580514 C144.465478,10.1406371 143.276285,9.93125556 141.958632,9.93125556 C141.09076,9.93125556 140.222552,10.068483 139.355355,10.340915 C138.487484,10.6143585 137.667828,10.9916498 136.896387,11.4738004 C136.125283,11.955951 135.44218,12.5345318 134.847753,13.2095427 C134.686923,13.3919507 134.536209,13.5817764 134.393587,13.7759854 L134.317387,11.22261 C134.304237,10.7718161 133.934364,10.413069 133.48357,10.413069 L128.522476,10.413069 C128.061904,10.413069 127.688659,10.7866515 127.688659,11.2472233 L127.688659,35.0826599 C127.688659,35.5432318 128.061904,35.9168142 128.522476,35.9168142 L133.748584,35.9168142 C134.209156,35.9168142 134.583076,35.5432318 134.583076,35.0826599 L134.583076,20.633988 C134.583076,19.9589771 134.710862,19.3321813 134.968796,18.7539377 C135.225381,18.175357 135.578734,17.6692674 136.029528,17.2353318 C136.478973,16.8013962 137.017768,16.4638908 137.644226,16.2228155 C138.271359,15.9817402 138.953788,15.8610339 139.693535,15.8610339 C140.592763,15.8610339 141.34802,16.0538942 141.959643,16.4396147 C142.56958,16.8253352 143.035884,17.3964982 143.357543,18.1510808 C143.678527,18.9066749 143.839356,19.8143319 143.839356,20.8750633 L143.839356,35.0826599 C143.839356,35.5432318 144.213276,35.9168142 144.673848,35.9168142 L149.899956,35.9168142 C150.360528,35.9168142 150.733773,35.5432318 150.733773,35.0826599 L150.733773,20.6822031 C150.733773,20.0071922 150.86156,19.3729787 151.119493,18.7778767 C151.376416,18.183449 151.738197,17.6692674 152.204164,17.2349946 C152.669793,16.8010591 153.217017,16.4635536 153.843139,16.2224783 C154.470272,15.981403 155.153038,15.8606968 155.892785,15.8606968 C156.856749,15.8606968 157.6437,16.0461393 158.254986,16.4153386 C158.864923,16.7852122 159.331227,17.3395168 159.652885,18.0785897 C159.973869,18.8183368 160.134699,19.7657797 160.134699,20.9229412 L160.134699,35.0826599 C160.134699,35.5432318 160.508618,35.9168142 160.96919,35.9168142 L166.147083,35.9168142 C166.607992,35.9168142 166.981575,35.5432318 166.981575,35.0826599 L166.981575,20.4407906 C166.981575,18.1588357 166.651824,16.2305704 165.992997,14.6553202 C165.333833,13.0810815 164.345593,11.8996439 163.02794,11.1116817 L163.026928,11.112356 Z" id="Path"></path>
            <path d="M172.32232,0.240365104 L177.499876,0.240365104 C177.960111,0.240365104 178.333693,0.614284717 178.333693,1.07451941 L178.333693,35.0829971 C178.333693,35.5432318 177.959774,35.9171514 177.499539,35.9171514 L172.32232,35.9171514 C171.861748,35.9171514 171.487829,35.5432318 171.487829,35.0826599 L171.487829,1.07451941 C171.487829,0.614284717 171.861748,0.240365104 172.321983,0.240365104 L172.32232,0.240365104 Z" id="Path"></path>
            <path d="M233.114771,30.2766634 L221.942363,30.2766634 L233.442499,15.0723974 C233.552415,14.927415 233.61142,14.7507388 233.61142,14.5690051 L233.61142,11.2478977 C233.61142,10.7873258 233.238175,10.4137434 232.776928,10.4137434 L214.100166,10.4137434 C213.639257,10.4137434 213.265675,10.7873258 213.265675,11.2478977 L213.265675,15.2200771 C213.265675,15.6806489 213.63892,16.0542314 214.100166,16.0542314 L225.230765,16.0542314 L213.439317,31.3532417 C213.326702,31.4992355 213.265675,31.6782719 213.265675,31.8623658 L213.265675,35.0829971 C213.265675,35.5435689 213.63892,35.9171514 214.100166,35.9171514 L233.114434,35.9171514 C233.575343,35.9171514 233.948925,35.5435689 233.948925,35.0829971 L233.948925,31.1104805 C233.948925,30.6499087 233.57568,30.2763262 233.114434,30.2763262 L233.114771,30.2766634 Z" id="Path"></path>
            <path d="M256.882774,10.4134062 L238.206012,10.4134062 C237.745103,10.4134062 237.37152,10.7869886 237.37152,11.2475605 L237.37152,15.2197399 C237.37152,15.6803117 237.744766,16.0538942 238.206012,16.0538942 L249.336274,16.0538942 L237.544825,31.3529045 C237.432548,31.4988984 237.37152,31.6779347 237.37152,31.8620286 L237.37152,35.0826599 C237.37152,35.5432318 237.744766,35.9168142 238.206012,35.9168142 L254.626781,35.9168142 C255.088364,35.9168142 255.46161,35.5425574 255.461273,35.0813112 L255.454529,31.1087947 C255.453518,30.64856 255.08061,30.275989 254.620038,30.275989 L246.047872,30.275989 L257.548007,15.071723 C257.657249,14.9267407 257.716928,14.7500645 257.716928,14.5683308 L257.716928,11.2472233 C257.716928,10.7866515 257.343683,10.413069 256.882437,10.413069 L256.882774,10.4134062 Z" id="Path"></path>
            <path d="M262.110231,28.2998458 C260.953069,28.2998458 260.012707,28.6781486 259.289481,29.4327312 C258.566255,30.1883253 258.204811,31.1607186 258.204811,32.3495739 C258.204811,33.6675647 258.542316,34.6804182 259.21699,35.3867857 C259.892001,36.0934904 260.856302,36.4475171 262.109894,36.4475171 C263.266381,36.4475171 264.198314,36.0692143 264.90603,35.3146317 C265.612735,34.5597119 265.966762,33.5714717 265.966762,32.3495739 C265.966762,31.0642885 265.629256,30.067619 264.954582,29.3605772 C264.279572,28.6538725 263.331454,28.2998458 262.110231,28.2998458 Z" id="Path"></path>
            <path d="M288.244144,11.040202 C286.942337,10.2690982 285.326964,9.88304049 283.398361,9.88304049 C281.98394,9.88304049 280.633918,10.1723309 279.348633,10.7509116 C278.062673,11.3291552 276.962493,12.0931785 276.04607,13.0409585 C275.847141,13.2469683 275.664058,13.45871 275.491765,13.6744977 L275.491765,1.07485658 C275.491765,0.614284717 275.117846,0.240702273 274.657274,0.240702273 L269.576485,0.240702273 C269.115576,0.240702273 268.741994,0.614284717 268.741994,1.07485658 L268.741994,35.0829971 C268.741994,35.5435689 269.115239,35.9174886 269.576485,35.9174886 L274.754041,35.9174886 C275.214613,35.9174886 275.588532,35.5435689 275.588532,35.0829971 L275.588532,20.5857729 C275.588532,19.910762 275.724748,19.2843034 275.997855,18.7057226 C276.270961,18.1271419 276.641172,17.6136346 277.106801,17.1628406 C277.572431,16.7130582 278.135164,16.3674607 278.794328,16.1263854 C279.452481,15.8853101 280.168289,15.764941 280.93973,15.764941 C281.903694,15.7332472 282.715258,15.8937393 283.374085,16.2470916 C284.032912,16.6011183 284.523155,17.1631778 284.844476,17.9342816 C285.165797,18.7057226 285.326626,19.6700239 285.326626,20.8271854 L285.326626,35.0833343 C285.326626,35.5439061 285.700546,35.9174886 286.161118,35.9174886 L291.338674,35.9174886 C291.799583,35.9174886 292.173165,35.5439061 292.173165,35.0833343 L292.173165,20.2971569 C292.173165,18.015202 291.843415,16.0950287 291.184925,14.5359626 C290.525761,12.9772337 289.545613,11.8119802 288.244144,11.0405392 L288.244144,11.040202 Z" id="Path"></path>
            <path d="M319.536731,10.4134062 L313.618416,10.4134062 C313.361831,10.4134062 313.154135,10.6211018 313.154135,10.8773497 L313.154135,25.6965696 C313.154135,26.4039486 313.025337,27.0627754 312.768415,27.67305 C312.510818,28.2839989 312.149374,28.8143646 311.683745,29.2641471 C311.218115,29.7146039 310.671903,30.059527 310.04477,30.3009395 C309.417637,30.5420148 308.734871,30.6623839 307.996135,30.6623839 C306.96676,30.6623839 306.099227,30.4378298 305.392185,29.987373 C304.685143,29.5375905 304.13893,28.8868558 303.75321,28.0348315 C303.367489,27.1834817 303.174966,26.1787202 303.174966,25.0215587 L303.174966,10.8773497 C303.174966,10.6211018 302.96727,10.4134062 302.711023,10.4134062 L296.792371,10.4134062 C296.53646,10.4134062 296.328427,10.6211018 296.328427,10.8773497 L296.328427,26.130168 C296.328427,28.2839989 296.689872,30.1242633 297.413098,31.6502869 C298.136323,33.177322 299.164687,34.3503304 300.498187,35.1696493 C301.831688,35.9893054 303.430877,36.3989648 305.29508,36.3989648 C306.741869,36.3989648 308.091554,36.1255214 309.345145,35.5793088 C310.5984,35.0330962 311.674978,34.2775021 312.575217,33.3132008 C312.852033,33.0168299 313.101537,32.7079838 313.329463,32.3903713 L313.471074,35.4741123 C313.482537,35.721931 313.686524,35.9168142 313.934343,35.9168142 L319.535719,35.9168142 C319.792304,35.9168142 320,35.7091186 320,35.4528707 L320,10.8770126 C320,10.6207647 319.792304,10.413069 319.535719,10.413069 L319.536731,10.4134062 Z" id="Path"></path>
            <path d="M191.105965,7.26223152 L202.950686,5.71294331 C203.151975,5.68091233 203.300329,5.50828217 203.302352,5.30463254 L203.34485,0.421087298 C203.347196,0.130785416 203.060266,-0.0732013878 202.786822,0.0249145791 L190.898943,3.51460619 C190.741823,3.57091329 190.633592,3.71589564 190.623477,3.88279394 L190.623477,6.82593578 C190.607967,7.09196154 190.842636,7.30404039 191.105627,7.26223152 L191.105965,7.26223152 Z" id="Path"></path>
            <path d="M105.448365,7.26223152 L117.293761,5.71294331 C117.49505,5.68091233 117.643067,5.50828217 117.64509,5.30463254 L117.688262,0.421087298 C117.690608,0.130785416 117.403341,-0.0732013878 117.130234,0.0249145791 L105.242355,3.51460619 C105.084898,3.57091329 104.97633,3.71589564 104.966552,3.88279394 L104.966552,6.82593578 C104.951042,7.09196154 105.185711,7.30404039 105.448702,7.26223152 L105.448365,7.26223152 Z" id="Path"></path>
            <path d="M207.907397,10.4619584 L202.777719,10.4619584 C202.317147,10.4619584 201.943227,10.8355409 201.943227,11.2961127 L201.943227,13.8157712 C201.454333,13.1468294 200.887216,12.5406008 200.231761,12.0048404 C199.443462,11.3621977 198.527375,10.8561081 197.483502,10.4862345 C196.438618,10.1173724 195.289886,9.93192989 194.036294,9.93192989 C191.819076,9.93192989 189.842258,10.4946637 188.106179,11.6194571 C186.370773,12.7449248 184.996813,14.3036537 183.983959,16.295981 C182.97178,18.2893198 182.46569,20.5709375 182.46569,23.1421828 C182.46569,25.713428 182.963014,27.99572 183.960357,29.9880473 C184.956015,31.9813862 186.3057,33.555962 188.009748,34.7127863 C189.71346,35.8699478 191.625878,36.4485286 193.747004,36.4485286 C194.935859,36.4485286 196.061327,36.263086 197.121721,35.8942239 C198.182452,35.5253619 199.138324,35.0263528 199.990011,34.3998942 C200.707505,33.8715515 201.322838,33.2771238 201.846123,32.6233545 L201.846123,35.1325608 C201.846123,35.5931327 202.220042,35.9667151 202.680614,35.9667151 L207.906722,35.9667151 C208.367294,35.9667151 208.74054,35.5931327 208.74054,35.1325608 L208.74054,11.2971242 C208.74054,10.8365524 208.367294,10.4629699 207.906722,10.4629699 L207.907397,10.4619584 Z M201.244277,27.0226524 C200.713912,28.1315988 199.967084,28.9917151 199.002446,29.6019897 C198.037807,30.2129386 196.912677,30.5177387 195.627728,30.5177387 C194.374474,30.5177387 193.272608,30.2126014 192.325165,29.6019897 C191.376711,28.9917151 190.629546,28.1315988 190.083333,27.0226524 C189.536109,25.9137059 189.264014,24.6203285 189.264014,23.1415084 C189.264014,21.6950565 189.536109,20.4259552 190.083333,19.3328556 C190.629546,18.2404304 191.376711,17.379977 192.325165,16.7535184 C193.272608,16.1267225 194.374474,15.8134932 195.627728,15.8134932 C196.912677,15.8134932 198.038144,16.1270597 199.002446,16.7535184 C199.967084,17.3803142 200.713912,18.2404304 201.244277,19.3328556 C201.774306,20.4259552 202.039994,21.6950565 202.039994,23.1415084 C202.039994,24.6203285 201.774643,25.9137059 201.244277,27.0226524 Z" id="Shape"></path>
            <path d="M33.3904482,8.51885767 L33.3904482,37.4741945 C33.3904482,38.2028151 32.7997294,38.7935339 32.0711088,38.7935339 L7.7127242,38.7935339 L7.56942769,40.4314974 C7.50637722,41.1506773 8.03303406,41.7869138 8.75120248,41.859405 L35.0041356,44.5108963 C35.7344421,44.5847361 36.3848397,44.0479642 36.4509246,43.3166463 L39.4274461,10.3746318 C39.4931939,9.64735987 38.9557477,9.00505431 38.2281386,8.94132951 L33.3904482,8.51818333 L33.3904482,8.51885767 Z" id="Path"></path>
            <path d="M1.91657973e-14,1.48721337 L1.91657973e-14,34.6365863 C1.91657973e-14,35.3652069 0.590718811,35.9559257 1.31933945,35.9559257 L29.2331634,35.9559257 C29.9617841,35.9559257 30.5525029,35.3652069 30.5525029,34.6365863 L30.5525029,1.48721337 C30.5525029,0.758592737 29.9617841,0.167873926 29.2331634,0.167873926 L1.31933945,0.167873926 C0.590718811,0.167873926 1.91657973e-14,0.758592737 1.91657973e-14,1.48721337 Z M18.4808673,14.3545661 C18.4808673,14.9388787 18.0071459,15.4126001 17.4228332,15.4126001 L5.54844107,15.4126001 C4.96412846,15.4126001 4.49040704,14.9388787 4.49040704,14.3545661 L4.49040704,13.5982977 C4.49040704,13.0139851 4.96412846,12.5402636 5.54844107,12.5402636 L17.4228332,12.5402636 C18.0071459,12.5402636 18.4808673,13.0139851 18.4808673,13.5982977 L18.4808673,14.3545661 Z M26.0974985,7.51207321 C26.0974985,8.09638582 25.6237771,8.57010724 25.0394645,8.57010724 L5.43312952,8.57010724 C4.84881691,8.57010724 4.37509549,8.09638582 4.37509549,7.51207321 L4.37509549,6.75580478 C4.37509549,6.17149216 4.84881691,5.69777074 5.43312952,5.69777074 L25.0394645,5.69777074 C25.6237771,5.69777074 26.0974985,6.17149216 26.0974985,6.75580478 L26.0974985,7.51207321 Z" id="Shape"></path>
        </g>
    </g>
</svg>