<?xml version="1.0" encoding="UTF-8"?>
<svg width="500px" height="22px" viewBox="0 0 500 22" version="1.1" xmlns="http://www.w3.org/2000/svg" xmlns:xlink="http://www.w3.org/1999/xlink">
    <!-- Generator: Sketch 61.1 (89650) - https://sketch.com -->
    <title>Group</title>
    <desc>Created with Sketch.</desc>
    <g id="Page-1" stroke="none" stroke-width="1" fill="none" fill-rule="evenodd">
        <g id="Group" transform="translate(170.000000, -1.000000)" fill="#F7B500">
            <polygon id="Star" points="12 18 4.94657697 21.7082039 6.2936609 13.854102 0.587321804 8.29179607 8.47328849 7.14589803 12 0 15.5267115 7.14589803 23.4126782 8.29179607 17.7063391 13.854102 19.053423 21.7082039"></polygon>
            <polygon id="Star" points="46 18 38.946577 21.7082039 40.2936609 13.854102 34.5873218 8.29179607 42.4732885 7.14589803 46 0 49.5267115 7.14589803 57.4126782 8.29179607 51.7063391 13.854102 53.053423 21.7082039"></polygon>
            <polygon id="Star" points="80 18 72.946577 21.7082039 74.2936609 13.854102 68.5873218 8.29179607 76.4732885 7.14589803 80 0 83.5267115 7.14589803 91.4126782 8.29179607 85.7063391 13.854102 87.053423 21.7082039"></polygon>
            <polygon id="Star" points="114 18 106.946577 21.7082039 108.293661 13.854102 102.587322 8.29179607 110.473288 7.14589803 114 0 117.526712 7.14589803 125.412678 8.29179607 119.706339 13.854102 121.053423 21.7082039"></polygon>
            <polygon id="Star" points="148 18 140.946577 21.7082039 142.293661 13.854102 136.587322 8.29179607 144.473288 7.14589803 148 0 151.526712 7.14589803 159.412678 8.29179607 153.706339 13.854102 155.053423 21.7082039"></polygon>
        </g>
    </g>
</svg>