<!-- Generated by IcoMoon.io -->
<svg version="1.1" xmlns="http://www.w3.org/2000/svg" width="885" height="1024" viewBox="0 0 885 1024">
<title></title>
<g id="icomoon-ignore">
</g>
<path fill="#ffffff" d="M884.828 445.152c0 145.894-69.96 275.108-177.762 356.271h0.747l-265.398 222.576-265.398-222.576h0.747c-107.803-81.163-177.762-210.377-177.762-356.022 0-245.979 197.929-445.401 442.414-445.401s442.414 199.173 442.414 445.152zM443.659 48.3c-215.356 0-389.882 174.526-389.882 389.882s174.526 389.882 389.882 389.882 389.882-174.526 389.882-389.882-174.526-389.882-389.882-389.882z"></path>
<path fill="#ffffff" d="M488.224 615.197h77.927v-139.172h82.657l-206.393-205.398-206.393 205.398h87.387v139.172h82.657v-120.251h82.657v120.251h-0.498z"></path>
</svg>
