<svg width="32" height="32" viewBox="0 0 32 32" fill="none" xmlns="http://www.w3.org/2000/svg">
<rect x="0.5" y="0.5" width="31" height="31" rx="3.5" fill="#FAFAFA" stroke="#E0E0E0"/>
<path d="M8.82234 23.3597C7.97467 22.0657 7.49265 20.5666 7.4273 19.0211C7.36195 17.4755 7.71571 15.9411 8.45112 14.5802C9.18653 13.2193 10.2762 12.0825 11.6049 11.2903C12.9335 10.498 14.4516 10.0798 15.9985 10.0798C17.5454 10.0798 19.0636 10.498 20.3922 11.2903C21.7208 12.0825 22.8105 13.2193 23.546 14.5802C24.2814 15.9411 24.6351 17.4755 24.5698 19.0211C24.5044 20.5666 24.0224 22.0657 23.1747 23.3597H25.5766C26.3743 21.7335 26.7448 19.9309 26.6532 18.1218C26.5615 16.3128 26.0106 14.5569 25.0525 13.0197C24.0944 11.4825 22.7606 10.2145 21.1768 9.33547C19.5931 8.4564 17.8115 7.99512 16.0002 7.99512C14.1888 7.99512 12.4073 8.4564 10.8235 9.33547C9.23977 10.2145 7.90597 11.4825 6.94785 13.0197C5.98973 14.5569 5.43887 16.3128 5.34717 18.1218C5.25548 19.9309 5.62598 21.7335 6.42376 23.3597H8.82234Z" fill="#4A4AF4"/>
<path d="M16.143 13.5977C14.5809 13.5977 12.7827 14.3348 11.8064 15.1126L12.6965 16.9889C13.4792 16.2729 14.7452 15.661 15.8859 15.661C16.9713 15.661 17.5685 16.0223 17.5685 16.7545C17.5685 17.2427 17.1715 17.5226 16.4213 17.5909C13.6078 17.8497 11.4207 18.73 11.4207 20.8894C11.4207 22.6029 12.6558 23.6378 14.6883 23.6378C15.2992 23.6386 15.8994 23.4767 16.4271 23.1687C16.9547 22.8607 17.3908 22.4177 17.6906 21.8853V23.3579H20.2258V17.1841C20.2258 14.6342 18.4521 13.6042 16.143 13.6042V13.5977ZM15.4026 21.6575C14.589 21.6575 14.1317 21.306 14.1317 20.7299C14.1317 19.5258 15.5963 19.2361 17.5164 19.2361C17.5164 20.4956 16.6735 21.6575 15.401 21.6575H15.4026Z" fill="#060809"/>
</svg>
