<svg width="48" height="32" viewBox="0 0 48 32" fill="none" xmlns="http://www.w3.org/2000/svg">
<rect width="48" height="32" rx="4" fill="#B2FCE4"/>
<path d="M6.48547 15.9163C6.48547 15.2095 5.95618 14.713 5.30585 14.713C4.65551 14.713 4.12623 15.2181 4.12623 15.9163C4.12623 16.6062 4.65551 17.1192 5.30585 17.1192C5.95697 17.1192 6.48547 16.6231 6.48547 15.9163ZM6.49496 18.0194V17.4726C6.17415 17.8511 5.69629 18.0862 5.12467 18.0862C3.93635 18.0862 3.03442 17.1609 3.03442 15.9163C3.03442 14.6796 3.97076 13.7377 5.15118 13.7377C5.70657 13.7377 6.17454 13.9735 6.49536 14.3431V13.8131H7.56224V18.0194H6.49496ZM12.7436 17.0854C12.3701 17.0854 12.2665 16.9509 12.2665 16.5979V14.7303H12.952V13.8128H12.2665V12.7867H11.1731V13.8128H9.76483V13.5572C9.76483 13.2034 9.90408 13.0686 10.2858 13.0686H10.5255V12.2529H9.99941C9.09749 12.2529 8.67263 12.5391 8.67263 13.4138V13.8124H8.06542V14.7303H8.67263V18.019H9.76602V14.7303H11.1743V16.7913C11.1743 17.6495 11.5121 18.0198 12.3966 18.0198H12.9607V17.0858H12.7432L12.7436 17.0854ZM16.6642 15.5373C16.5862 14.9909 16.1262 14.6627 15.5886 14.6627C15.0506 14.6627 14.6083 14.9822 14.496 15.5373H16.6638H16.6642ZM14.4869 16.1938C14.5652 16.8161 15.0249 17.1699 15.606 17.1699C16.0656 17.1699 16.4217 16.9592 16.6293 16.6227H17.7488C17.4881 17.5143 16.6642 18.0862 15.5799 18.0862C14.2705 18.0862 13.3512 17.1951 13.3512 15.9245C13.3512 14.6544 14.3227 13.7373 15.6068 13.7373C16.8991 13.7373 17.8355 14.6627 17.8355 15.9245C17.8355 16.0173 17.8272 16.1093 17.8098 16.1938H14.4869ZM24.7862 15.9163C24.7862 15.2346 24.2569 14.713 23.6066 14.713C22.9563 14.713 22.427 15.2181 22.427 15.9163C22.427 16.6062 22.9563 17.1192 23.6066 17.1192C24.2569 17.1192 24.7862 16.5979 24.7862 15.9163ZM21.351 13.8131H22.4179V14.36C22.7383 13.9727 23.2154 13.7377 23.7882 13.7377C24.9591 13.7377 25.878 14.6717 25.878 15.9076C25.878 17.1447 24.9417 18.087 23.7621 18.087C23.2154 18.087 22.7644 17.8763 22.4527 17.5233V19.7502H21.351V13.8131ZM29.7231 15.9163C29.7231 15.2095 29.1946 14.713 28.5434 14.713C27.8931 14.713 27.3638 15.2181 27.3638 15.9163C27.3638 16.6062 27.8931 17.1192 28.5434 17.1192C29.1946 17.1192 29.7231 16.6231 29.7231 15.9163ZM29.7326 18.0194V17.4726C29.4117 17.8511 28.9339 18.0862 28.3623 18.0862C27.1739 18.0862 26.272 17.1609 26.272 15.9163C26.272 14.6796 27.2084 13.7377 28.3884 13.7377C28.9434 13.7377 29.4117 13.9735 29.7326 14.3431V13.8131H30.799V18.0194H29.7326ZM19.4285 14.2255C19.4285 14.2255 19.6998 13.7381 20.3648 13.7381C20.6492 13.7381 20.8332 13.8324 20.8332 13.8324V14.9056C20.8332 14.9056 20.4321 14.6654 20.0634 14.7138C19.6947 14.7621 19.4617 15.0904 19.4629 15.5298V18.0202H18.3616V13.8139H19.4285V14.2255ZM35.781 13.8131L33.0879 19.7369H31.9522L33.0095 17.4466L31.2215 13.8131H32.5087L33.5547 16.241L34.6279 13.8131H35.781ZM44.3781 13.7176L41.708 12.2234C40.9247 11.7847 39.9449 12.3327 39.9449 13.2109V13.3642C39.9449 13.5026 40.0212 13.6307 40.1446 13.6995L40.649 13.9818C40.7969 14.0651 40.9813 13.9613 40.9813 13.7959V13.4145C40.9813 13.2239 41.1941 13.1044 41.3642 13.1999L43.6768 14.4948C43.8469 14.5899 43.8469 14.8282 43.6768 14.9233L41.3642 16.2178C41.1941 16.3129 40.9817 16.1942 40.9817 16.0031V15.8003C40.9817 14.9225 40.0018 14.3733 39.2174 14.8128L36.5472 16.3074C36.3692 16.4046 36.2207 16.5475 36.1173 16.7212C36.0139 16.8949 35.9593 17.0931 35.9593 17.2949C35.9593 17.4967 36.0139 17.6949 36.1173 17.8686C36.2207 18.0423 36.3692 18.1852 36.5472 18.2824L39.2174 19.7766C40.001 20.2153 40.9817 19.6673 40.9817 18.7891V18.6358C40.9812 18.5673 40.9624 18.5001 40.9273 18.4412C40.8921 18.3823 40.8418 18.3337 40.7815 18.3005L40.2775 18.0174C40.1296 17.9345 39.9449 18.0383 39.9449 18.2038V18.5851C39.9449 18.7757 39.732 18.8948 39.5623 18.7993L37.2494 17.5048C37.2108 17.4837 37.1786 17.4526 37.1562 17.4149C37.1338 17.3772 37.122 17.3342 37.122 17.2904C37.122 17.2466 37.1338 17.2036 37.1562 17.1659C37.1786 17.1282 37.2108 17.0971 37.2494 17.0759L39.5623 15.781C39.7324 15.6855 39.9449 15.8046 39.9449 15.9957V16.1985C39.9449 17.0763 40.9243 17.6255 41.708 17.186L44.3781 15.6914C44.556 15.5943 44.7043 15.4515 44.8076 15.2779C44.911 15.1043 44.9655 14.9064 44.9655 14.7047C44.9655 14.5031 44.911 14.3051 44.8076 14.1315C44.7043 13.9579 44.556 13.8151 44.3781 13.718V13.7176Z" fill="black"/>
</svg>
