<svg width="48" height="32" viewBox="0 0 48 32" fill="none" xmlns="http://www.w3.org/2000/svg">
<rect x="0.5" y="0.5" width="47" height="31" rx="3.5" fill="white"/>
<path fill-rule="evenodd" clip-rule="evenodd" d="M14.0644 11.6899C14.9635 11.7656 15.8625 11.2358 16.4244 10.564C16.977 9.87332 17.3422 8.94612 17.2485 7.99999C16.4525 8.03783 15.4692 8.52982 14.9073 9.22049C14.3922 9.81656 13.952 10.7816 14.0644 11.6899ZM15.1408 12.3419C15.7246 12.1103 16.4473 11.8236 17.2393 11.8696C17.745 11.9075 19.206 12.0589 20.1425 13.4591C20.1382 13.4624 20.1287 13.4686 20.1146 13.4779C19.8829 13.6301 18.411 14.5971 18.4287 16.5057C18.4463 18.7795 20.2797 19.6275 20.5195 19.7384C20.5352 19.7456 20.544 19.7497 20.5452 19.7509C20.5442 19.754 20.5423 19.76 20.5396 19.769C20.4917 19.9254 20.1764 20.9561 19.4588 22.0121C18.7939 22.9961 18.1103 23.9612 17.0239 23.9801C16.5127 23.9893 16.1683 23.839 15.8097 23.6824C15.4326 23.5177 15.0397 23.3462 14.4204 23.3462C13.7789 23.3462 13.3681 23.5223 12.9726 23.6919C12.629 23.8391 12.2971 23.9814 11.8356 23.999C10.7868 24.0369 9.99072 22.9583 9.3258 21.9743C7.96786 19.9874 6.92834 16.3732 8.3331 13.9322C9.01675 12.7117 10.2623 11.9453 11.6015 11.9264C12.1858 11.9157 12.7429 12.1393 13.2303 12.3349C13.6022 12.4841 13.9334 12.6171 14.205 12.6171C14.447 12.6171 14.7651 12.4909 15.1408 12.3419Z" fill="black"/>
<path d="M40.3357 16.1825C40.3364 15.6373 40.29 15.0931 40.197 14.5558H32.6002V17.6368H36.9513C36.8622 18.1289 36.6738 18.598 36.3973 19.0158C36.1208 19.4336 35.762 19.7915 35.3424 20.0679V22.0678H37.9392C39.4597 20.6756 40.3357 18.6168 40.3357 16.1825Z" fill="#4285F4"/>
<path d="M32.6003 24C34.7741 24 36.6045 23.2911 37.9393 22.069L35.3425 20.069C34.6197 20.5557 33.6889 20.8334 32.6003 20.8334C30.4992 20.8334 28.7158 19.4268 28.078 17.5313H25.403V19.5924C26.0734 20.9173 27.1015 22.0311 28.3724 22.8094C29.6434 23.5877 31.1071 23.9999 32.6003 24V24Z" fill="#34A853"/>
<path d="M28.078 17.5313C27.7409 16.5381 27.7409 15.4625 28.078 14.4692V12.4082H25.4029C24.8389 13.5227 24.5452 14.7529 24.5452 16.0003C24.5452 17.2477 24.8389 18.4778 25.4029 19.5924L28.078 17.5313Z" fill="#FBBC04"/>
<path d="M32.6003 11.1671C33.7491 11.1484 34.8591 11.5795 35.6904 12.367L37.9896 10.0838C36.5317 8.72392 34.6003 7.97733 32.6003 8.00052C31.1071 8.00059 29.6434 8.41279 28.3724 9.19111C27.1015 9.96942 26.0734 11.0832 25.403 12.4081L28.078 14.4692C28.7158 12.5737 30.4992 11.1671 32.6003 11.1671Z" fill="#EA4335"/>
<rect x="0.5" y="0.5" width="47" height="31" rx="3.5" stroke="#E0E0E0"/>
</svg>
