<svg width="32" height="32" viewBox="0 0 32 32" fill="none" xmlns="http://www.w3.org/2000/svg">
<rect x="0.5" y="0.5" width="31" height="31" rx="3.5" fill="#FAFAFA" stroke="#E0E0E0"/>
<path d="M25.3876 13.5946H17.9578L13.9916 18.0578H6.66005L8.49888 15.9244H5.12175C4.50583 15.9244 4 16.4421 4 17.0759V19.5039C4 20.1376 4.50583 20.6554 5.12175 20.6554H18.056C18.672 20.6554 19.517 20.2715 19.9306 19.8014L25.3876 13.5946Z" fill="#005697"/>
<path d="M26.8783 11C27.4942 11 28.0001 11.5177 28.0001 12.1515V14.5795C28.0001 15.2132 27.4942 15.731 26.8783 15.731H23.5101L24.2599 14.877L24.6318 14.4545L25.3817 13.6005H17.9549L13.9916 18.0607H6.61548L11.9058 12.0771L12.1052 11.851C12.5188 11.3809 13.3638 11 13.9827 11H26.8783Z" fill="#FBD500"/>
</svg>
