<svg width="48" height="32" viewBox="0 0 48 32" fill="none" xmlns="http://www.w3.org/2000/svg">
<rect width="48" height="32" rx="4" fill="#B2FCE4"/>
<path d="M35.9989 13.7411L33.2445 19.423H32.1034L33.1325 17.3003L31.5159 13.7411H32.6876L33.7268 16.1252L34.8611 13.7411H35.9989Z" fill="black"/>
<path d="M25.5179 15.7584C25.5179 15.1064 25.0254 14.6037 24.4209 14.6037C23.8164 14.6037 23.3239 15.0894 23.3239 15.7584C23.3239 16.4207 23.8164 16.9132 24.4209 16.9132C25.0254 16.9132 25.5179 16.4105 25.5179 15.7584ZM22.322 19.423V13.7411H23.3137V14.2641C23.6126 13.8939 24.0575 13.6664 24.5873 13.6664C25.6775 13.6664 26.5333 14.563 26.5333 15.7483C26.5333 16.9335 25.6605 17.8369 24.5635 17.8369C24.0541 17.8369 23.6364 17.6366 23.3443 17.2969V19.4196H22.322V19.423Z" fill="black"/>
<path d="M30.113 15.7585C30.113 15.0792 29.6205 14.6038 29.016 14.6038C28.4115 14.6038 27.919 15.0894 27.919 15.7585C27.919 16.4207 28.4115 16.9132 29.016 16.9132C29.6205 16.9132 30.113 16.4343 30.113 15.7585ZM30.1198 17.7758V17.2528C29.8209 17.6162 29.376 17.8403 28.8462 17.8403C27.739 17.8403 26.9001 16.9539 26.9001 15.7585C26.9001 14.5732 27.773 13.6698 28.87 13.6698C29.3862 13.6698 29.8209 13.8973 30.1198 14.2506V13.7411H31.1115V17.7758H30.1198Z" fill="black"/>
<path d="M20.5324 14.1351C20.5324 14.1351 20.7838 13.6664 21.4053 13.6664C21.6702 13.6664 21.84 13.7581 21.84 13.7581V14.7871C21.84 14.7871 21.4664 14.5562 21.1234 14.6037C20.7804 14.6513 20.563 14.9637 20.563 15.3849V17.7758H19.5374V13.7411H20.529V14.1351H20.5324Z" fill="black"/>
<path d="M43.7015 13.5136L42.5264 12.8411L41.3343 12.1585C40.5464 11.7068 39.5615 12.274 39.5615 13.1842V13.337C39.5615 13.4219 39.6057 13.5 39.6804 13.5408L40.234 13.8566C40.3868 13.9449 40.577 13.8328 40.577 13.6562V13.2928C40.577 13.1128 40.7706 13.0008 40.9268 13.0891L42.0136 13.714L43.097 14.3355C43.2532 14.4238 43.2532 14.6513 43.097 14.7396L42.0136 15.3611L40.9268 15.986C40.7706 16.0743 40.577 15.9623 40.577 15.7823V15.6023C40.577 14.6921 39.5921 14.1215 38.8042 14.5766L37.6121 15.2592L36.437 15.9317C35.6457 16.3868 35.6457 17.5313 36.437 17.9864L37.6121 18.6589L38.8042 19.3415C39.5921 19.7932 40.577 19.226 40.577 18.3158V18.163C40.577 18.0781 40.5328 18 40.4581 17.9592L39.9045 17.6434C39.7517 17.5551 39.5615 17.6672 39.5615 17.8438V18.2072C39.5615 18.3872 39.3679 18.4992 39.2117 18.4109L38.1249 17.786L37.0415 17.1645C36.8853 17.0762 36.8853 16.8487 37.0415 16.7604L38.1249 16.1389L39.2117 15.514C39.3679 15.4257 39.5615 15.5377 39.5615 15.7177V15.8977C39.5615 16.8079 40.5464 17.3785 41.3343 16.9234L42.5264 16.2408L43.7015 15.5683C44.4928 15.1098 44.4928 13.9687 43.7015 13.5136Z" fill="black"/>
<path d="M8.13659 16.2713C7.91923 17.1984 7.12112 17.8369 6.08867 17.8369C4.8966 17.8369 4 16.9403 4 15.7551C4 14.5698 4.91018 13.6664 6.10565 13.6664C7.11433 13.6664 7.90225 14.3049 8.12979 15.2151H7.08036C6.89357 14.8517 6.52339 14.6105 6.11244 14.6105C5.51471 14.6105 5.01547 15.103 5.01547 15.7551C5.01547 16.4071 5.51471 16.8996 6.11244 16.8996C6.54037 16.8996 6.91055 16.6584 7.08716 16.2713H8.13659Z" fill="black"/>
<path d="M8.60889 17.7724V12.0803H9.62435V17.7724H8.60889Z" fill="black"/>
<path d="M11.1524 16.0234C11.2237 16.6211 11.6516 16.9573 12.1916 16.9573C12.6196 16.9573 12.949 16.757 13.1426 16.4343H14.1818C13.9407 17.2902 13.1731 17.837 12.1645 17.837C10.9452 17.837 10.0928 16.9811 10.0928 15.7653C10.0928 14.5494 10.9962 13.6698 12.1882 13.6698C13.3905 13.6698 14.2599 14.5562 14.2599 15.7653C14.2599 15.8536 14.2531 15.9419 14.2362 16.0234H11.1524ZM13.1765 15.3917C13.1052 14.8687 12.6773 14.5528 12.178 14.5528C11.6788 14.5528 11.2679 14.8585 11.1626 15.3917H13.1765Z" fill="black"/>
<path d="M17.8871 17.7724V17.2494C17.5882 17.6128 17.1467 17.8369 16.6135 17.8369C15.5098 17.8369 14.6709 16.9505 14.6709 15.7551C14.6709 14.5698 15.5403 13.6664 16.6373 13.6664C17.1535 13.6664 17.5882 13.8905 17.8871 14.2471V13.7377H18.8788V17.769H17.8871V17.7724ZM17.8769 15.7551C17.8769 15.0792 17.3845 14.6003 16.7799 14.6003C16.1754 14.6003 15.683 15.0826 15.683 15.7551C15.683 16.4173 16.1754 16.9098 16.7799 16.9098C17.3845 16.9098 17.8769 16.4343 17.8769 15.7551Z" fill="black"/>
</svg>
