<svg width="32" height="32" viewBox="0 0 32 32" fill="none" xmlns="http://www.w3.org/2000/svg">
<rect x="0.5" y="0.5" width="31" height="31" rx="3.5" fill="#FAFAFA" stroke="#E0E0E0"/>
<path d="M13.0555 19.1458H8.56617C8.32548 19.155 8.08541 19.1157 7.86021 19.0303C7.63501 18.9448 7.42926 18.815 7.2552 18.6486C7.14905 18.5335 7.04922 18.4128 6.95614 18.2869L6.97701 18.2556H11.974C11.9749 18.2429 11.9749 18.2301 11.974 18.2174C11.974 17.8418 11.974 17.4628 11.9531 17.0872C11.9133 16.6045 11.7681 16.1364 11.5277 15.7158C11.2874 15.2952 10.9578 14.9325 10.5622 14.653C9.91158 14.1675 9.10822 13.9318 8.29841 13.9889C7.56606 14.0357 6.86773 14.3148 6.3049 14.7857C5.74207 15.2566 5.34408 15.8947 5.16877 16.6073C5.06075 17.0559 5.04309 17.5216 5.11683 17.9771C5.19056 18.4326 5.35421 18.8688 5.59825 19.2604C5.84228 19.6521 6.16181 19.9912 6.53823 20.2581C6.91464 20.525 7.34041 20.7143 7.79071 20.815C8.06269 20.8734 8.34014 20.9026 8.61833 20.9019C10.0475 20.9019 11.4767 20.9019 12.9059 20.9019H13.0555C13.0242 21.0209 12.9835 21.1371 12.9338 21.2496C12.8256 21.4801 12.6516 21.6734 12.4338 21.8052C12.216 21.937 11.9641 22.0014 11.7097 21.9903C9.59084 21.9903 7.47195 21.9903 5.35307 21.9903C5.17342 21.9922 4.99523 21.958 4.82911 21.8896C4.66298 21.8212 4.51232 21.7201 4.3861 21.5922C4.25988 21.4644 4.16068 21.3124 4.09441 21.1454C4.02814 20.9785 3.99616 20.7998 4.00037 20.6202V14.2532C3.99758 14.0779 4.02987 13.9039 4.09533 13.7413C4.16079 13.5787 4.25811 13.4309 4.38156 13.3064C4.505 13.182 4.65208 13.0835 4.81415 13.0168C4.97621 12.9501 5.14999 12.9164 5.32525 12.9178H11.741C11.9156 12.9174 12.0885 12.9514 12.2499 13.018C12.4113 13.0846 12.5579 13.1824 12.6813 13.3059C12.8048 13.4293 12.9026 13.5759 12.9692 13.7373C13.0358 13.8987 13.0698 14.0716 13.0694 14.2462C13.0694 15.8458 13.0694 17.4419 13.0694 19.038C13.0624 19.0763 13.0589 19.1006 13.0555 19.1458Z" fill="#C80370"/>
<path d="M13.9596 20.8148C13.9596 19.7195 13.9596 18.6241 13.9596 17.5287C13.9443 16.9451 14.0809 16.3675 14.356 15.8526C14.5933 15.3858 14.9374 14.9816 15.3604 14.6728C15.7834 14.364 16.2732 14.1595 16.7902 14.0757C17.6576 13.9218 18.5508 14.1127 19.2795 14.6076C20.0083 15.1025 20.515 15.8624 20.6918 16.7254C20.8856 17.6134 20.7201 18.5419 20.2314 19.3082C19.7427 20.0745 18.9706 20.6161 18.0838 20.8148C17.8177 20.8647 17.5477 20.8904 17.277 20.8913C16.7902 20.8913 16.2999 20.8913 15.813 20.8913C15.6392 20.8913 15.6392 20.8913 15.6392 21.0687V24.4557C15.6392 24.5948 15.6392 24.5948 15.5035 24.5948C15.0341 24.5948 14.5612 24.5948 14.0917 24.5948C13.9874 24.5948 13.9596 24.5635 13.9631 24.4626L13.9596 20.8148ZM16.5746 19.177H17.3431C17.4397 19.1771 17.5361 19.1701 17.6317 19.1561C17.9618 19.1095 18.2715 18.9689 18.5239 18.7512C18.7763 18.5334 18.9608 18.2477 19.0554 17.9281C19.1501 17.6085 19.1508 17.2684 19.0576 16.9483C18.9644 16.6283 18.7811 16.3418 18.5296 16.1229C18.2781 15.9041 17.9691 15.7622 17.6392 15.7141C17.3093 15.666 16.9726 15.7137 16.6691 15.8516C16.3656 15.9895 16.1081 16.2117 15.9274 16.4918C15.7466 16.7719 15.6502 17.098 15.6496 17.4314C15.6496 17.9738 15.6496 18.5198 15.6496 19.0622C15.6496 19.1492 15.6809 19.1735 15.7643 19.1735L16.5746 19.177Z" fill="#71706F"/>
<path d="M19.6868 20.8844C19.8399 20.7801 19.9894 20.6932 20.125 20.5889C20.4701 20.3013 20.753 19.9463 20.9561 19.5456C21.0048 19.4683 21.049 19.3882 21.0882 19.3057C21.13 19.1909 21.2065 19.1631 21.3247 19.1666H25.7757C25.8347 19.1718 25.8941 19.1718 25.9531 19.1666C26.0092 19.1589 26.0632 19.1402 26.112 19.1115C26.1608 19.0828 26.2034 19.0447 26.2373 18.9995C26.2713 18.9542 26.2959 18.9026 26.3098 18.8477C26.3237 18.7928 26.3266 18.7358 26.3182 18.6798C26.3038 18.5738 26.2528 18.4762 26.1741 18.4038C26.0953 18.3315 25.9938 18.2889 25.887 18.2834H23.6789C23.1309 18.3087 22.5943 18.1215 22.181 17.7607C21.7677 17.4 21.5097 16.8936 21.4608 16.3472C21.4119 15.8008 21.5759 15.2566 21.9186 14.8282C22.2612 14.3998 22.7561 14.1202 23.2998 14.0479C23.4447 14.0241 23.5912 14.0125 23.738 14.0131C24.7812 14.0131 25.8522 14.0131 26.9059 14.0131C27.0102 14.0131 27.0346 14.0479 27.0346 14.1453C27.0346 14.6112 27.0346 15.0737 27.0346 15.5362C27.0346 15.6336 27.0067 15.6649 26.9094 15.6649C25.8662 15.6649 24.8056 15.6649 23.7519 15.6649C23.6719 15.6628 23.5921 15.6734 23.5154 15.6962C23.4079 15.7335 23.3177 15.809 23.2619 15.9083C23.2062 16.0076 23.1888 16.1239 23.2129 16.2352C23.2377 16.3371 23.2969 16.4274 23.3805 16.4908C23.4641 16.5541 23.5671 16.5867 23.6719 16.5829H25.8279C26.3713 16.5762 26.897 16.7759 27.2989 17.1418C27.7007 17.5076 27.9488 18.0124 27.9929 18.554C28.037 19.0957 27.874 19.6339 27.5367 20.06C27.1994 20.4861 26.713 20.7683 26.1756 20.8497C26.0523 20.8665 25.928 20.8747 25.8036 20.874H19.6868V20.8844Z" fill="#71706F"/>
<path d="M5.84343 11.819C5.81792 11.8214 5.7922 11.8185 5.76784 11.8106C5.74348 11.8027 5.721 11.7898 5.70178 11.7729C5.68256 11.756 5.66701 11.7353 5.65609 11.7121C5.64517 11.6889 5.6391 11.6638 5.63826 11.6382C5.60048 11.1619 5.62385 10.6828 5.70781 10.2124C5.82691 9.66311 6.10961 9.16276 6.51868 8.77728C6.92775 8.3918 7.44399 8.13928 7.9994 8.05298C8.56994 7.94234 9.16056 8.00588 9.69451 8.23533C10.2285 8.46479 10.681 8.84955 10.9934 9.33961C11.2687 9.76512 11.4204 10.2587 11.4316 10.7653C11.4316 11.0435 11.4316 11.3217 11.4316 11.6034C11.4355 11.6345 11.4323 11.666 11.4222 11.6957C11.4121 11.7254 11.3953 11.7523 11.3731 11.7745C11.351 11.7966 11.324 11.8134 11.2944 11.8235C11.2647 11.8337 11.2332 11.8369 11.2021 11.8329H10.218C10.1875 11.8362 10.1566 11.8326 10.1277 11.8224C10.0988 11.8122 10.0725 11.7957 10.0508 11.774C10.0292 11.7523 10.0126 11.726 10.0024 11.6971C9.99223 11.6682 9.98865 11.6373 9.99194 11.6069V10.8349C9.98261 10.481 9.84507 10.1426 9.60491 9.88253C9.36474 9.62248 9.03831 9.4585 8.6863 9.42109C8.3343 9.38368 7.98069 9.47538 7.69123 9.67915C7.40178 9.88292 7.19618 10.1849 7.11267 10.5289C7.08818 10.6771 7.0777 10.8273 7.08138 10.9775C7.08138 11.1757 7.08138 11.3739 7.08138 11.5721C7.08138 11.7703 7.00487 11.819 6.83448 11.819H5.84343Z" fill="#C80370"/>
<path d="M10.0857 16.5656H6.95601C7.05685 16.1517 7.82883 15.6475 8.39564 15.6197C9.10851 15.5988 9.90135 16.03 10.0857 16.5656Z" fill="#C80370"/>
</svg>
