<svg width="48" height="32" viewBox="0 0 48 32" fill="none" xmlns="http://www.w3.org/2000/svg">
<rect x="0.5" y="0.5" width="47" height="31" rx="3.5" fill="#FAFAFA" stroke="#E0E0E0"/>
<path fill-rule="evenodd" clip-rule="evenodd" d="M6 10.7776C6 9.24369 7.24996 8 8.79107 8H39.2089C40.7507 8 42 9.24369 42 10.7776V20.7038C42 22.2368 40.7507 23.4807 39.2089 23.4807H8.79107C7.24996 23.4807 6 22.2368 6 20.7038V10.7776Z" fill="#000268"/>
<path fill-rule="evenodd" clip-rule="evenodd" d="M7.14551 10.8726V20.6096C7.14551 21.5679 7.92681 22.3452 8.89056 22.3452H24.8268V9.13695H8.89056C7.92681 9.13695 7.14551 9.91422 7.14551 10.8726ZM28.9444 15.6925C28.9444 16.3124 28.6378 16.7385 28.1301 16.7385C27.6817 16.7385 27.3078 16.3124 27.3078 15.7447C27.3078 15.1619 27.6366 14.7287 28.1301 14.7287C28.6535 14.7287 28.9444 15.177 28.9444 15.6925ZM25.9637 19.248H27.3078V17.1338H27.3228C27.5774 17.5971 28.0858 17.7688 28.5562 17.7688C29.7138 17.7688 30.3338 16.8129 30.3338 15.6624C30.3338 14.7215 29.7439 13.6975 28.6678 13.6975C28.0557 13.6975 27.488 13.9443 27.2184 14.4898H27.2034V13.7878H25.9637V19.248ZM32.1696 16.4466C32.1696 16.0735 32.5277 15.932 32.984 15.932C33.1855 15.932 33.3801 15.9462 33.5518 15.9542C33.5518 16.4097 33.2306 16.8729 32.7223 16.8729C32.4085 16.8729 32.1696 16.7163 32.1696 16.4466ZM34.8808 17.6793C34.8214 17.3734 34.8064 17.0666 34.8064 16.7606V15.3114C34.8064 14.1238 33.9478 13.6975 32.954 13.6975C32.3791 13.6975 31.8787 13.7797 31.4004 13.9743L31.4232 14.886C31.7955 14.6765 32.2296 14.5942 32.6629 14.5942C33.1477 14.5942 33.5437 14.7366 33.5518 15.2671C33.3801 15.237 33.1405 15.2142 32.924 15.2142C32.2075 15.2142 30.9149 15.3565 30.9149 16.5439C30.9149 17.3884 31.6019 17.7688 32.3713 17.7688C32.924 17.7688 33.2978 17.5529 33.604 17.0666H33.619C33.619 17.269 33.641 17.4698 33.649 17.6793H34.8808ZM35.4858 19.248C35.7623 19.3081 36.0385 19.3383 36.3222 19.3383C37.5549 19.3383 37.8458 18.3894 38.2268 17.4106L39.6541 13.7878H38.3091L37.5098 16.3274H37.4948L36.6582 13.7878H35.2096L36.7855 17.7688C36.6882 18.1126 36.4345 18.3071 36.1055 18.3071C35.9181 18.3071 35.7545 18.2843 35.575 18.2249L35.4858 19.248Z" fill="white"/>
<path fill-rule="evenodd" clip-rule="evenodd" d="M10.4292 15.7004C10.4292 15.1698 10.691 14.7288 11.1914 14.7288C11.7964 14.7288 12.0501 15.2142 12.0501 15.6474C12.0501 16.2452 11.6691 16.6484 11.1914 16.6484C10.7882 16.6484 10.4292 16.3053 10.4292 15.7004ZM13.35 13.7879H12.1323V14.4898H12.1182C11.8336 14.0115 11.3701 13.6975 10.7954 13.6975C9.58555 13.6975 9.04004 14.5649 9.04004 15.7225C9.04004 16.873 9.70502 17.6794 10.7723 17.6794C11.3109 17.6794 11.7592 17.4698 12.0801 17.0144H12.0951V17.224C12.0951 17.9855 11.6769 18.3516 10.9005 18.3516C10.34 18.3516 9.99594 18.2321 9.58555 18.0306L9.51832 19.0916C9.83144 19.2039 10.3619 19.3384 11.005 19.3384C12.5736 19.3384 13.35 18.8227 13.35 17.224V13.7879ZM15.6224 12.167H14.2777V13.1529H15.6224V12.167ZM14.2783 17.6794H15.6224V13.7879H14.2783V17.6794ZM19.3663 13.7426C19.2318 13.7206 19.0673 13.6975 18.9108 13.6975C18.3281 13.6975 17.9921 14.0115 17.7604 14.5048H17.7454V13.7879H16.5205V17.6794H17.8648V16.0365C17.8648 15.2743 18.2165 14.8189 18.8436 14.8189C19.0009 14.8189 19.1495 14.8189 19.299 14.863L19.3663 13.7426ZM21.6813 16.8279C21.0614 16.8279 20.8076 16.3124 20.8076 15.7375C20.8076 15.1548 21.0614 14.6393 21.6813 14.6393C22.3019 14.6393 22.5558 15.1548 22.5558 15.7375C22.5558 16.3124 22.3019 16.8279 21.6813 16.8279ZM21.6813 17.7688C22.9662 17.7688 23.945 17.0225 23.945 15.7375C23.945 14.4448 22.9662 13.6975 21.6813 13.6975C20.3966 13.6975 19.4185 14.4448 19.4185 15.7375C19.4185 17.0225 20.3966 17.7688 21.6813 17.7688Z" fill="#FF0007"/>
</svg>
