<svg width="48" height="32" viewBox="0 0 48 32" fill="none" xmlns="http://www.w3.org/2000/svg">
<rect x="0.5" y="0.5" width="47" height="31" rx="3.5" fill="#FAFAFA" stroke="#E0E0E0"/>
<path d="M10 5.7791V26.2209C10 27.1994 10.8006 28 11.7791 28H23.9926C33.2261 28 37.2291 22.8317 37.2291 15.9733C37.2291 9.15048 33.2261 4 23.9926 4H11.7791C10.8006 4 10 4.80059 10 5.7791Z" fill="white"/>
<path d="M18.1749 9.01698V24.1215H24.7487C30.7176 24.1215 33.3061 20.7501 33.3061 15.9821C33.3061 11.4188 30.7176 7.87836 24.7487 7.87836H19.3135C18.682 7.87836 18.1749 8.3943 18.1749 9.01698Z" fill="#CC0066"/>
<path d="M23.9926 26.3721H13.3714C12.4284 26.3721 11.6634 25.6071 11.6634 24.6642V7.34471C11.6634 6.40179 12.4284 5.63678 13.3714 5.63678H23.9926C34.0711 5.63678 35.5745 12.1216 35.5745 15.9822C35.5745 22.6805 31.4559 26.3721 23.9926 26.3721ZM13.3714 6.20609C12.7398 6.20609 12.2327 6.71313 12.2327 7.34471V24.6642C12.2327 25.2958 12.7398 25.8028 13.3714 25.8028H23.9926C31.0911 25.8028 35.0052 22.3158 35.0052 15.9822C35.0052 7.47814 28.1023 6.20609 23.9926 6.20609H13.3714Z" fill="black"/>
<path d="M20.4877 13.9451C20.719 13.9451 20.9325 13.9807 21.1371 14.0519C21.3417 14.123 21.5107 14.2387 21.6619 14.381C21.8043 14.5322 21.9199 14.719 22.0089 14.9325C22.0889 15.1549 22.1334 15.4129 22.1334 15.7153C22.1334 15.9822 22.0978 16.2224 22.0356 16.4447C21.9644 16.6671 21.8665 16.8628 21.7331 17.0229C21.5997 17.1831 21.4307 17.3076 21.2261 17.4055C21.0215 17.4944 20.7813 17.5478 20.5055 17.5478H18.9488V13.9362H20.4877V13.9451ZM20.4344 16.8895C20.55 16.8895 20.6568 16.8717 20.7724 16.8361C20.8791 16.8006 20.977 16.7383 21.0571 16.6493C21.1371 16.5604 21.2083 16.4536 21.2616 16.3113C21.315 16.169 21.3417 16.0089 21.3417 15.8043C21.3417 15.6264 21.3239 15.4573 21.2883 15.315C21.2528 15.1727 21.1905 15.0393 21.1104 14.9414C21.0304 14.8436 20.9236 14.7546 20.7902 14.7012C20.6568 14.6479 20.4966 14.6212 20.3009 14.6212H19.7316V16.8984H20.4344V16.8895Z" fill="white"/>
<path d="M25.3447 14.6123H23.4411V15.3862H25.1935V16H23.4411V16.8806H25.3892V17.5478H22.6494V13.9362H25.3447V14.6123Z" fill="white"/>
<path d="M28.0666 13.9452L29.4188 17.5568H28.5915L28.3157 16.7562H26.9636L26.6789 17.5568H25.8784L27.2394 13.9452H28.0666ZM28.1111 16.1602L27.6575 14.8347H27.6486L27.1771 16.1602H28.1111Z" fill="white"/>
<path d="M30.7086 13.9452V16.8896H32.4699V17.5568H29.9169V13.9452H30.7086Z" fill="white"/>
<path d="M15.2039 17.4144C16.1226 17.4144 16.8673 16.6696 16.8673 15.7509C16.8673 14.8322 16.1226 14.0875 15.2039 14.0875C14.2852 14.0875 13.5404 14.8322 13.5404 15.7509C13.5404 16.6696 14.2852 17.4144 15.2039 17.4144Z" fill="black"/>
<path d="M16.4581 24.1216C15.0615 24.1216 13.9407 22.9918 13.9407 21.6042V19.6383C13.9407 18.9444 14.5011 18.3751 15.2039 18.3751C15.8977 18.3751 16.467 18.9355 16.467 19.6383V24.1216H16.4581Z" fill="black"/>
</svg>
