<svg width="32" height="32" viewBox="0 0 32 32" fill="none" xmlns="http://www.w3.org/2000/svg">
<rect x="0.5" y="0.5" width="31" height="31" rx="3.5" fill="#FAFAFA" stroke="#E0E0E0"/>
<path d="M4 6.56811V24.5858C4 25.4482 4.70565 26.1539 5.56811 26.1539H16.3332C24.4717 26.1539 28 21.5985 28 15.5534C28 9.53969 24.4717 5 16.3332 5H5.56811C4.70565 5 4 5.70565 4 6.56811Z" fill="white"/>
<path d="M11.2055 9.42202V22.7353H16.9997C22.2607 22.7353 24.5423 19.7637 24.5423 15.5612C24.5423 11.539 22.2607 8.41843 16.9997 8.41843H12.2091C11.6524 8.41843 11.2055 8.87318 11.2055 9.42202Z" fill="#CC0066"/>
<path d="M16.3332 24.7191H6.97155C6.14045 24.7191 5.46616 24.0448 5.46616 23.2137V7.94807C5.46616 7.11697 6.14045 6.44268 6.97155 6.44268H16.3332C25.2166 6.44268 26.5416 12.1585 26.5416 15.5613C26.5416 21.4652 22.9114 24.7191 16.3332 24.7191ZM6.97155 6.94447C6.41487 6.94447 5.96796 7.39139 5.96796 7.94807V23.2137C5.96796 23.7703 6.41487 24.2173 6.97155 24.2173H16.3332C22.59 24.2173 26.0398 21.1438 26.0398 15.5613C26.0398 8.06568 19.9555 6.94447 16.3332 6.94447H6.97155Z" fill="black"/>
<path d="M13.244 13.7657C13.4479 13.7657 13.636 13.7971 13.8164 13.8598C13.9967 13.9225 14.1457 14.0245 14.279 14.1499C14.4044 14.2832 14.5063 14.4479 14.5848 14.636C14.6553 14.8321 14.6945 15.0594 14.6945 15.326C14.6945 15.5612 14.6632 15.7729 14.6083 15.9689C14.5455 16.165 14.4593 16.3374 14.3417 16.4786C14.2241 16.6197 14.0751 16.7295 13.8948 16.8157C13.7144 16.8941 13.5028 16.9412 13.2597 16.9412H11.8876V13.7579H13.244V13.7657ZM13.197 16.361C13.2989 16.361 13.393 16.3453 13.4949 16.3139C13.589 16.2826 13.6752 16.2277 13.7458 16.1493C13.8164 16.0709 13.8791 15.9768 13.9261 15.8513C13.9732 15.7259 13.9967 15.5847 13.9967 15.4044C13.9967 15.2476 13.981 15.0986 13.9497 14.9732C13.9183 14.8477 13.8634 14.7301 13.7929 14.6439C13.7223 14.5576 13.6282 14.4792 13.5106 14.4322C13.393 14.3851 13.2519 14.3616 13.0794 14.3616H12.5776V16.3688H13.197V16.361Z" fill="white"/>
<path d="M17.525 14.3538H15.8471V15.0359H17.3917V15.5769H15.8471V16.3531H17.5642V16.9412H15.1493V13.7579H17.525V14.3538Z" fill="white"/>
<path d="M19.9241 13.7658L21.1159 16.9491H20.3867L20.1437 16.2434H18.9519L18.701 16.9491H17.9954L19.195 13.7658H19.9241ZM19.9633 15.7181L19.5635 14.5499H19.5556L19.1401 15.7181H19.9633Z" fill="white"/>
<path d="M22.2528 13.7658V16.361H23.8053V16.9491H21.555V13.7658H22.2528Z" fill="white"/>
<path d="M8.58677 16.8236C9.39652 16.8236 10.053 16.1671 10.053 15.3574C10.053 14.5476 9.39652 13.8912 8.58677 13.8912C7.77701 13.8912 7.12058 14.5476 7.12058 15.3574C7.12058 16.1671 7.77701 16.8236 8.58677 16.8236Z" fill="black"/>
<path d="M9.69226 22.7354C8.46129 22.7354 7.47337 21.7396 7.47337 20.5165V18.7837C7.47337 18.1722 7.96733 17.6704 8.58674 17.6704C9.1983 17.6704 9.7001 18.1643 9.7001 18.7837V22.7354H9.69226Z" fill="black"/>
</svg>
