<svg width="48" height="32" viewBox="0 0 48 32" fill="none" xmlns="http://www.w3.org/2000/svg">
<rect width="48" height="32" rx="4" fill="#F4B6C7"/>
<path fill-rule="evenodd" clip-rule="evenodd" d="M6.75098 20.237H4.82288V11.6H6.75098V20.237ZM11.5667 11.6H9.67983C9.67983 13.1894 8.9688 14.6483 7.72911 15.6027L6.98157 16.1781L9.87804 20.2374H12.2595L9.59436 16.5022C10.8577 15.2093 11.5667 13.4699 11.5667 11.6ZM14.6424 20.2342H12.8215V11.6011H14.6424V20.2342ZM20.146 14.2629V14.6449C19.6545 14.3003 19.0613 14.0978 18.4215 14.0978C16.7282 14.0978 15.3556 15.5086 15.3556 17.2489C15.3556 18.9892 16.7282 20.4 18.4215 20.4C19.0613 20.4 19.6545 20.1975 20.146 19.853V20.2347H21.8857V14.2629H20.146ZM20.1402 17.2489C20.1402 18.0975 19.4345 18.7854 18.5639 18.7854C17.6933 18.7854 16.9875 18.0975 16.9875 17.2489C16.9875 16.4003 17.6933 15.7126 18.5639 15.7126C19.4345 15.7126 20.1402 16.4003 20.1402 17.2489ZM38.4992 14.6449V14.2629H40.2388V20.2347H38.4992V19.853C38.0077 20.1975 37.4145 20.4 36.7746 20.4C35.0814 20.4 33.7087 18.9892 33.7087 17.2489C33.7087 15.5086 35.0814 14.0978 36.7746 14.0978C37.4145 14.0978 38.0077 14.3003 38.4992 14.6449ZM36.917 18.7854C37.7877 18.7854 38.4933 18.0975 38.4933 17.2489C38.4933 16.4003 37.7877 15.7126 36.917 15.7126C36.0464 15.7126 35.3407 16.4003 35.3407 17.2489C35.3407 18.0975 36.0464 18.7854 36.917 18.7854ZM40.9939 19.2386C40.9939 18.6188 41.4826 18.1165 42.0855 18.1165C42.6884 18.1165 43.1772 18.6188 43.1772 19.2386C43.1772 19.8581 42.6884 20.3605 42.0855 20.3605C41.4826 20.3605 40.9939 19.8581 40.9939 19.2386ZM30.6173 14.1023C29.9224 14.1023 29.2647 14.324 28.825 14.9358V14.2632H27.0928V20.2347H28.8463V17.0965C28.8463 16.1884 29.4388 15.7437 30.1522 15.7437C30.9168 15.7437 31.3563 16.2131 31.3563 17.0841V20.2347H33.0939V16.4371C33.0939 15.0474 32.0188 14.1023 30.6173 14.1023ZM24.5768 14.263V15.0407C24.9256 14.5742 25.5754 14.2633 26.2818 14.2633V16.001L26.2721 16.0006L26.267 16.0004L26.2612 16.0002C25.5728 16.0002 24.5808 16.5059 24.5808 17.4465V20.2347H22.7957V14.263H24.5768Z" fill="#17120F"/>
</svg>
