<svg width="48" height="32" viewBox="0 0 48 32" fill="none" xmlns="http://www.w3.org/2000/svg">
<rect x="0.5" y="0.5" width="47" height="31" rx="3.5" fill="#FAFAFA" stroke="#E0E0E0"/>
<path d="M9 26.038L11.0812 14.3115H16.4522C17.7774 14.3115 18.6313 14.5635 19.0233 15.0768C19.4153 15.5901 19.4899 16.5373 19.238 17.9372C18.986 19.3372 18.5847 20.1911 17.9967 20.6764C17.4088 21.1617 16.4288 21.409 15.0476 21.409H11.1419L10.3206 26.0287L9 26.038ZM11.3332 20.2984H14.469C15.7802 20.2984 16.6435 20.1678 17.0634 19.8971C17.4834 19.6265 17.7727 19.0105 17.9454 18.0306C18.1507 16.8967 18.1507 16.164 17.9454 15.8794C17.7401 15.5947 17.1848 15.4128 16.2515 15.4128H12.2058L11.3332 20.2984Z" fill="#E72242"/>
<path d="M27.8335 24.9414L27.6375 26.052H19.3874L19.7747 23.8589C19.9894 22.6332 20.3658 21.8305 20.904 21.451C21.4406 21.0684 22.6119 20.7744 24.4084 20.5737C25.8456 20.412 26.7354 20.1958 27.0776 19.9251C27.4182 19.6498 27.6888 18.9452 27.8895 17.8019C28.0668 16.8033 28.0201 16.1547 27.7448 15.8561C27.4695 15.5574 26.7789 15.3894 25.6776 15.3894C24.3011 15.3894 23.4145 15.5108 23.0085 15.7534C22.6025 15.9961 22.3225 16.5934 22.1406 17.5126L22.0052 18.3806H20.7407L20.8526 17.7786C21.1 16.3787 21.5526 15.4454 22.2152 14.9788C22.8778 14.5122 24.0818 14.2882 25.813 14.2882C27.3684 14.2882 28.3624 14.5371 28.7948 15.0348C29.2272 15.5325 29.3205 16.5078 29.0747 17.9606C28.8321 19.3605 28.4168 20.2938 27.8428 20.7604C27.2689 21.227 26.1303 21.5443 24.4457 21.6937C22.9681 21.843 22.0659 22.0483 21.7393 22.3096C21.4126 22.5709 21.142 23.3113 20.9273 24.5308L20.8573 24.9228L27.8335 24.9414Z" fill="#A9ABAA"/>
<path d="M38.6874 14.4188L37.2875 22.2583H39L38.804 23.3689H37.1101L36.6435 26.052H35.3416L35.8082 23.3689H29.406L29.6766 21.8243L36.6762 14.4188H38.6874ZM36.0135 22.2583L37.2455 15.2588H37.2175L30.6846 22.2583H36.0135Z" fill="#A9ABAA"/>
<path d="M14.7582 9.99978C15.8613 9.35713 17.0279 8.83015 18.2393 8.42722L18.02 7.15331C16.4659 7.64004 14.9638 8.27933 13.5356 9.06184L14.7582 9.99978Z" fill="#A9ABAA"/>
<path d="M28.5847 9.31383L32.887 6.98066C30.6497 6.31264 28.3251 5.98236 25.9902 6.00073H25.9622L24.9729 7.97459C26.2406 8.22527 27.46 8.67741 28.5847 9.31383Z" fill="#A9ABAA"/>
<path d="M12.4393 9.715C11.3992 10.3371 10.4278 11.0676 9.5415 11.8942H11.9353C12.5186 11.4276 13.0973 11.0309 13.6572 10.6669L12.4393 9.715Z" fill="#A9ABAA"/>
<path d="M24.5669 6.0194C22.674 6.10343 20.7961 6.39607 18.9673 6.89201L19.1306 8.16592C20.7186 7.73814 22.3731 7.61464 24.007 7.80195L24.5669 6.0194Z" fill="#A9ABAA"/>
<path d="M35.2064 7.88118L29.6068 9.95303C29.8837 10.1499 30.1472 10.365 30.3954 10.597H38.6875C38.6875 10.597 37.7496 9.15509 35.2064 7.88118Z" fill="#A9ABAA"/>
</svg>
