<svg width="32" height="32" viewBox="0 0 32 32" fill="none" xmlns="http://www.w3.org/2000/svg">
<rect width="32" height="32" rx="4" fill="#6772E5"/>
<path d="M15.0588 12.4433C15.0588 11.6641 15.7138 11.3592 16.7639 11.3479C18.2883 11.3479 20.2306 11.8109 21.755 12.6352V7.91516C20.1684 7.29615 18.4782 6.98571 16.7752 7.0005C12.7101 7.0005 10 9.12341 10 12.6691C10 18.2248 17.6221 17.3214 17.6221 19.7153C17.6221 20.6413 16.8204 20.9462 15.7025 20.9462C14.0425 20.9462 11.8971 20.2573 10.2145 19.3427V23.8595C12.0777 24.6612 13.9635 25 15.6912 25C19.8579 25 22.7261 23.2159 22.7261 19.6024C22.7261 13.6289 15.0588 14.7017 15.0588 12.4433Z" fill="white"/>
</svg>
