<svg xmlns="http://www.w3.org/2000/svg" viewBox="2.82 0 169.18 30"><defs><radialGradient id="a" gradientUnits="userSpaceOnUse" cx="74.975" cy="74.975" fx="74.975" fy="74.975" r="60.917" gradientTransform="scale(.19977 .2)"><stop offset="0"/><stop offset=".5"/><stop offset="1" stop-opacity="0"/></radialGradient></defs><path d="M48.063 18.602a4.141 4.141 0 001.48 2.937c.898.742 2.059 1.102 3.496 1.102 1.258 0 2.277-.262 3.035-.82a2.58 2.58 0 001.16-2.262 2.1 2.1 0 00-.64-1.637A4.093 4.093 0 0054.875 17c-.996-.281-2.035-.5-3.055-.68-1.18-.199-2.316-.5-3.437-.922a5.271 5.271 0 01-2.317-1.757c-.597-.782-.898-1.82-.898-3.102a5.59 5.59 0 01.918-3.16 6.107 6.107 0 012.598-2.16 9.837 9.837 0 017.75.062 6.844 6.844 0 012.738 2.258 6.112 6.112 0 011.078 3.3h-3.336a3.682 3.682 0 00-1.379-2.558c-.797-.64-1.816-.98-3.055-.98-1.199 0-2.16.258-2.878.777-.7.5-1.118 1.32-1.079 2.203-.02.598.2 1.18.641 1.598a4.036 4.036 0 001.695.883c.7.199 1.72.418 3.04.636 1.175.204 2.335.5 3.433.942.922.36 1.738.96 2.36 1.738.597.762.917 1.781.917 3.043.02 1.16-.32 2.3-.98 3.258a6.702 6.702 0 01-2.695 2.262 8.934 8.934 0 01-3.934.8 9.903 9.903 0 01-4.297-.882 6.908 6.908 0 01-2.894-2.457 6.62 6.62 0 01-1.082-3.602zm15.484-4.864a6.388 6.388 0 012.598-2.699 7.462 7.462 0 013.812-.96c1.34-.02 2.66.28 3.836.882 1.102.578 2 1.437 2.617 2.5.66 1.16 1 2.46.98 3.8 0 .4-.038.798-.081 1.2H65.965v.18c.078 1.32.496 2.359 1.238 3.12.738.759 1.738 1.137 2.977 1.137.879.043 1.738-.218 2.476-.699a3.189 3.189 0 001.317-1.96h3.175a6.104 6.104 0 01-2.214 3.78c-1.2.981-2.72 1.481-4.516 1.481a8.351 8.351 0 01-4.094-.96 6.724 6.724 0 01-2.699-2.7 8.356 8.356 0 01-.957-4.04c-.082-1.402.238-2.8.879-4.062m10.605 2.403a3.887 3.887 0 00-1.297-2.582 4.142 4.142 0 00-2.777-.918 4.056 4.056 0 00-2.695.96 3.705 3.705 0 00-1.301 2.54zm14.067-5.903v2.98H86.8c-1.32 0-2.258.423-2.86 1.282-.578.86-.879 1.941-.879 3.262v7.558h-3.175V10.238h2.816l.36 2.262c.421-.68.98-1.262 1.68-1.66.679-.399 1.597-.602 2.757-.602zm.996 0h3.418l4.156 11.66 4.094-11.66h3.355L98.684 25.32h-3.875zm16.422 3.5a6.41 6.41 0 012.597-2.699 7.476 7.476 0 013.817-.96 8.186 8.186 0 013.836.882 6.554 6.554 0 012.617 2.5c.656 1.16.996 2.46.976 3.8 0 .4-.039.798-.078 1.2h-11.347v.18c.078 1.32.5 2.359 1.238 3.12.738.759 1.738 1.137 2.977 1.137.878.043 1.738-.218 2.476-.699.68-.46 1.14-1.16 1.32-1.96h3.176a6.127 6.127 0 01-2.219 3.78c-1.199.981-2.714 1.481-4.515 1.481a8.351 8.351 0 01-4.094-.96 6.69 6.69 0 01-2.695-2.7 8.36 8.36 0 01-.961-4.04 8.209 8.209 0 01.879-4.062m10.61 2.403a3.909 3.909 0 00-1.302-2.582 4.142 4.142 0 00-2.777-.918 4.056 4.056 0 00-2.695.96 3.7 3.7 0 00-1.297 2.54zM133.723 11a6.484 6.484 0 012.539 2.66 8.93 8.93 0 01.918 4.121c.02 1.399-.278 2.778-.918 4.02-.578 1.12-1.438 2.078-2.54 2.719-1.117.66-2.374 1-3.675.98-.996.02-1.996-.2-2.914-.64-.801-.4-1.48-1-2-1.72l-.38 2.18H122V4.7h3.176v7.78c1.199-1.601 2.816-2.421 4.87-2.421 1.282-.02 2.56.3 3.677.941m-1.016 10.422c.816-.942 1.219-2.14 1.219-3.64 0-1.481-.403-2.68-1.219-3.602-1.621-1.758-4.375-1.88-6.133-.239-.082.079-.16.16-.242.239-.797.922-1.2 2.12-1.2 3.601 0 1.5.403 2.7 1.2 3.66a3.969 3.969 0 003.176 1.418c1.238 0 2.398-.52 3.199-1.437m10.125 3.118a6.62 6.62 0 01-2.695-2.7 8.335 8.335 0 01-.957-4.059 8.227 8.227 0 01.957-4.02 6.7 6.7 0 012.695-2.722 8.752 8.752 0 018.031 0 6.806 6.806 0 012.7 2.723 8.314 8.314 0 01.957 4.02 8.54 8.54 0 01-.958 4.058 6.724 6.724 0 01-2.699 2.7 8.87 8.87 0 01-8.031 0m7.234-3.142c.817-.937 1.22-2.136 1.22-3.597 0-1.48-.403-2.68-1.22-3.602a4.393 4.393 0 00-6.214-.219c-.079.079-.137.141-.22.22-.8.94-1.198 2.14-1.198 3.6 0 1.481.398 2.68 1.199 3.598a4.39 4.39 0 006.215.223c.078-.082.136-.16.218-.223m6.95-16.698h3.18v20.62h-3.18zm7.793 8.34h-2.618v-2.802h2.618V6.04h3.214v4.223h3.618v2.797h-3.618v7.863c0 .578.122 1 .36 1.258.242.242.64.36 1.199.36H172v2.8h-3.055c-1.441 0-2.48-.34-3.136-1-.66-.66-.98-1.7-.98-3.102zm0 0"/><path d="M27.148 15c0 6.727-5.445 12.18-12.164 12.18-6.722 0-12.168-5.453-12.168-12.18 0-6.727 5.446-12.18 12.168-12.18 6.72 0 12.164 5.453 12.164 12.18zm0 0" fill="url(#a)"/><path d="M14.984 0c8.27 0 14.98 6.719 14.98 15 0 8.281-6.71 15-14.98 15zm0 0"/></svg>