<svg class="servebolt-icon" xmlns="http://www.w3.org/2000/svg" viewBox="45.5 37.5 141.8 150.2"><switch><g><g fill="#fff"><path d="M105.7 46.6c.1 0 .1-.1.1-.1 0-.1-.1-.1-.1-.1-.1 0-.1.1-.1.1-.1.1 0 .1.1.1m-18 6.2c.2 0 .3-.1.3-.3s-.1-.3-.3-.3-.3.1-.3.3.1.3.3.3m6 .2c.3 0 .5-.2.5-.5s-.2-.5-.5-.5-.5.2-.5.5.2.5.5.5m6 .2c.4 0 .7-.3.7-.7s-.3-.7-.7-.7-.7.3-.7.7.3.7.7.7m6 .1c.4 0 .8-.3.8-.8 0-.4-.3-.8-.8-.8-.4 0-.8.3-.8.8 0 .4.3.8.8.8m-30 5.5c.1 0 .3-.1.3-.3 0-.1-.1-.3-.3-.3s-.3.1-.3.3c0 .1.1.3.3.3m6 .3c.3 0 .6-.3.6-.6s-.3-.6-.6-.6-.6.3-.6.6.2.6.6.6m6 .3c.5 0 .9-.4.9-.9s-.4-.9-.9-.9-.9.4-.9.9.4.9.9.9m6 .3c.6 0 1.2-.5 1.2-1.2 0-.6-.5-1.2-1.2-1.2-.6 0-1.2.5-1.2 1.2 0 .6.5 1.2 1.2 1.2m6 .2c.7 0 1.3-.6 1.3-1.4 0-.7-.6-1.3-1.4-1.3-.7 0-1.3.6-1.3 1.4 0 .6.6 1.3 1.4 1.3m6 .1c.8 0 1.5-.7 1.5-1.5s-.7-1.5-1.5-1.5-1.5.7-1.5 1.5.7 1.5 1.5 1.5m-36.1 4.9c.2 0 .4-.2.4-.4s-.2-.4-.4-.4-.4.2-.4.4c.1.2.2.4.4.4m6.1.4c.4 0 .8-.4.8-.8s-.4-.8-.8-.8-.8.4-.8.8.3.8.8.8m6 .4c.7 0 1.2-.5 1.2-1.2s-.5-1.2-1.2-1.2-1.2.5-1.2 1.2.5 1.2 1.2 1.2m6 .3c.8 0 1.5-.7 1.5-1.5s-.7-1.5-1.5-1.5-1.5.7-1.5 1.5c-.1.8.6 1.5 1.5 1.5m6 .3c1 0 1.8-.8 1.8-1.8s-.8-1.8-1.8-1.8-1.8.8-1.8 1.8.8 1.8 1.8 1.8m6 .2c1.1 0 2-.9 2-2s-.9-2-2-2-2 .9-2 2 .9 2 2 2m6 .1c1.2 0 2.1-1 2.1-2.1 0-1.2-1-2.1-2.1-2.1-1.2 0-2.1 1-2.1 2.1-.1 1.2.9 2.1 2.1 2.1m-42 4.3c.2 0 .4-.2.4-.4s-.2-.4-.4-.4-.4.2-.4.4.2.4.4.4m6 .5c.5 0 .9-.4.9-.9s-.4-.9-.9-.9-.9.4-.9.9.4.9.9.9m6 .4c.7 0 1.3-.6 1.3-1.3s-.6-1.3-1.3-1.3-1.3.6-1.3 1.3c-.1.7.5 1.3 1.3 1.3m6 .5c1 0 1.8-.8 1.8-1.8s-.8-1.8-1.8-1.8-1.8.8-1.8 1.8.8 1.8 1.8 1.8m6 .3c1.2 0 2.1-1 2.1-2.1 0-1.2-1-2.1-2.1-2.1-1.2 0-2.1 1-2.1 2.1-.1 1.2.9 2.1 2.1 2.1m6 .3c1.3 0 2.4-1.1 2.4-2.4s-1.1-2.4-2.4-2.4-2.4 1.1-2.4 2.4c-.1 1.3 1 2.4 2.4 2.4m6 .3c1.5 0 2.7-1.2 2.7-2.7s-1.2-2.7-2.7-2.7S97 69 97 70.5s1.2 2.7 2.7 2.7m-42 3.6c.1 0 .3-.1.3-.3 0-.1-.1-.3-.3-.3-.1 0-.3.1-.3.3 0 .1.1.3.3.3m6 .5c.4 0 .8-.4.8-.8s-.4-.8-.8-.8-.8.4-.8.8.3.8.8.8m6 .5c.7 0 1.3-.6 1.3-1.3s-.6-1.3-1.3-1.3-1.3.6-1.3 1.3c-.1.7.5 1.3 1.3 1.3m6 .5c1 0 1.8-.8 1.8-1.8s-.8-1.8-1.8-1.8-1.8.8-1.8 1.8c-.1 1 .8 1.8 1.8 1.8m6 .5c1.3 0 2.3-1 2.3-2.3s-1-2.3-2.3-2.3-2.3 1-2.3 2.3 1 2.3 2.3 2.3m6 .4c1.5 0 2.7-1.2 2.7-2.7s-1.2-2.7-2.7-2.7S85 75 85 76.5s1.2 2.7 2.7 2.7m-30 3.9c.3 0 .6-.3.6-.6s-.3-.6-.6-.6-.6.3-.6.6.2.6.6.6m6 .6c.7 0 1.2-.5 1.2-1.2s-.5-1.2-1.2-1.2-1.2.5-1.2 1.2.5 1.2 1.2 1.2m6 .6c.9 0 1.6-.7 1.6-1.6s-.7-1.6-1.6-1.6-1.6.7-1.6 1.6c0 .8.7 1.6 1.6 1.6m6 .5c1.3 0 2.3-1 2.3-2.3s-1-2.3-2.3-2.3-2.3 1-2.3 2.3 1 2.3 2.3 2.3m-24 4c.2 0 .3-.1.3-.3s-.1-.3-.3-.3-.3.1-.3.3.1.3.3.3m6 .6c.5 0 .9-.4.9-.9s-.4-.9-.9-.9-.9.4-.9.9.4.9.9.9m6 .6c.8 0 1.5-.7 1.5-1.5s-.7-1.5-1.5-1.5-1.5.7-1.5 1.5c-.1.8.6 1.5 1.5 1.5m6 .6c1.2 0 2.1-1 2.1-2.1 0-1.2-1-2.1-2.1-2.1-1.2 0-2.1 1-2.1 2.1s.9 2.1 2.1 2.1m6 .6c1.5 0 2.7-1.2 2.7-2.7s-1.2-2.7-2.7-2.7S73 87 73 88.5s1.2 2.7 2.7 2.7m-24 3.8c.3 0 .5-.2.5-.5s-.2-.5-.5-.5-.5.2-.5.5.2.5.5.5m6 .7c.6 0 1.2-.5 1.2-1.2 0-.6-.5-1.2-1.2-1.2-.6 0-1.2.5-1.2 1.2 0 .6.5 1.2 1.2 1.2m6 .6c1 0 1.8-.8 1.8-1.8s-.8-1.8-1.8-1.8-1.8.8-1.8 1.8.8 1.8 1.8 1.8m0 32.4c-1 0-1.8.8-1.8 1.8s.8 1.8 1.8 1.8 1.8-.8 1.8-1.8-.8-1.8-1.8-1.8m6-31.8c1.4 0 2.4-1.1 2.4-2.4s-1.1-2.4-2.4-2.4-2.4 1.1-2.4 2.4c-.1 1.3 1 2.4 2.4 2.4m-12 4.9c.7 0 1.3-.6 1.3-1.4s-.6-1.3-1.4-1.3c-.7 0-1.3.6-1.3 1.4 0 .7.6 1.3 1.4 1.3m6 .7c1.1 0 2-.9 2-2s-.9-2-2-2-2 .9-2 2 .9 2 2 2m6 .7c1.5 0 2.7-1.2 2.7-2.7s-1.2-2.7-2.7-2.7S67 99 67 100.5s1.2 2.7 2.7 2.7m-24 3.4c.1 0 .1-.1.1-.1 0-.1-.1-.1-.1-.1-.1 0-.1.1-.1.1-.1.1 0 .1.1.1m6 .7c.4 0 .8-.3.8-.8 0-.4-.3-.8-.8-.8s-.8.3-.8.8c0 .4.3.8.8.8m6 .7c.8 0 1.5-.7 1.5-1.5s-.7-1.5-1.5-1.5-1.5.7-1.5 1.5.7 1.5 1.5 1.5m6 .6c1.2 0 2.1-1 2.1-2.1 0-1.2-1-2.1-2.1-2.1-1.2 0-2.1 1-2.1 2.1-.1 1.2.9 2.1 2.1 2.1m-18 3.7c-.1 0-.2.1-.2.2s.1.2.2.2.2-.1.2-.2c-.1-.1-.1-.2-.2-.2m6-.6c-.5 0-.8.4-.8.8s.4.8.8.8.8-.4.8-.8-.4-.8-.8-.8m6-.7c-.8 0-1.5.7-1.5 1.5s.7 1.5 1.5 1.5 1.5-.7 1.5-1.5-.7-1.5-1.5-1.5m6-.7c-1.2 0-2.2 1-2.2 2.2s1 2.2 2.2 2.2 2.2-1 2.2-2.2-1-2.2-2.2-2.2m-18 8c-.1 0-.1.1-.1.1 0 .1.1.1.1.1.1 0 .1-.1.1-.1s0-.1-.1-.1m6-.6c-.4 0-.8.3-.8.8 0 .4.3.8.8.8.4 0 .8-.3.8-.8 0-.4-.4-.8-.8-.8m6-.7c-.8 0-1.5.7-1.5 1.5s.7 1.5 1.5 1.5 1.5-.7 1.5-1.5c-.1-.8-.7-1.5-1.5-1.5m6-.6c-1.2 0-2.1 1-2.1 2.1s1 2.1 2.1 2.1c1.2 0 2.1-1 2.1-2.1 0-1.2-1-2.1-2.1-2.1m-12 7.4c-.4 0-.7.3-.7.7s.3.7.7.7.7-.3.7-.7-.3-.7-.7-.7m0-22.6c.4 0 .7-.3.7-.7s-.3-.7-.7-.7-.7.3-.7.7.3.7.7.7m12 21.3c-1.1 0-2 .9-2 2s.9 2 2 2 2-.9 2-2-.9-2-2-2m-12 7.5c-.3 0-.5.2-.5.5s.2.5.5.5.5-.2.5-.5-.2-.5-.5-.5m6-.7c-.7 0-1.2.5-1.2 1.2s.5 1.2 1.2 1.2c.6 0 1.2-.5 1.2-1.2 0-.6-.6-1.2-1.2-1.2m12-1.2c-1.4 0-2.5 1.1-2.5 2.4 0 1.4 1.1 2.5 2.4 2.5 1.4 0 2.5-1.1 2.5-2.4 0-1.4-1.1-2.5-2.4-2.5m-18 8.1c-.2 0-.3.1-.3.3s.1.3.3.3.3-.1.3-.3-.2-.3-.3-.3m6-.6c-.5 0-.9.4-.9.9s.4.9.9.9.9-.4.9-.9-.4-.9-.9-.9m6-.6c-.9 0-1.5.7-1.5 1.5 0 .9.7 1.5 1.5 1.5.9 0 1.5-.7 1.5-1.5 0-.9-.7-1.5-1.5-1.5m6-.6c-1.2 0-2.2 1-2.2 2.1 0 1.2 1 2.2 2.1 2.2 1.2 0 2.2-1 2.2-2.1 0-1.3-.9-2.2-2.1-2.2m-12 7.5c-.3 0-.6.3-.6.6s.3.6.6.6.6-.3.6-.6-.3-.6-.6-.6m6-.6c-.7 0-1.2.5-1.2 1.2s.5 1.2 1.2 1.2 1.2-.5 1.2-1.2-.5-1.2-1.2-1.2m6-.6c-1 0-1.8.8-1.8 1.8s.8 1.8 1.8 1.8 1.8-.8 1.8-1.8-.8-1.8-1.8-1.8m6-.5c-1.3 0-2.3 1-2.3 2.3s1 2.3 2.3 2.3 2.3-1 2.3-2.3-1-2.3-2.3-2.3m-18 8c-.2 0-.3.1-.3.3s.1.3.3.3.3-.1.3-.3-.2-.3-.3-.3m6-.5c-.5 0-.8.4-.8.8s.4.8.8.8c.5 0 .8-.4.8-.8 0-.5-.4-.8-.8-.8m6-.6c-.8 0-1.4.6-1.4 1.4s.6 1.4 1.4 1.4 1.4-.6 1.4-1.4c-.1-.7-.7-1.4-1.4-1.4m6-.5c-1 0-1.9.8-1.9 1.9 0 1 .8 1.9 1.9 1.9 1 0 1.9-.8 1.9-1.9 0-1-.9-1.9-1.9-1.9m6-.4c-1.3 0-2.3 1-2.3 2.3s1 2.3 2.3 2.3 2.3-1 2.3-2.3-1-2.3-2.3-2.3m-18 7.9c-.2 0-.4.2-.4.4s.2.4.4.4.4-.2.4-.4-.2-.4-.4-.4m6-.5c-.5 0-.9.4-.9.9s.4.9.9.9.9-.4.9-.9-.4-.9-.9-.9m6-.5c-.8 0-1.4.6-1.4 1.4s.6 1.4 1.4 1.4 1.4-.6 1.4-1.4-.7-1.4-1.4-1.4m6-.4c-1 0-1.8.8-1.8 1.8s.8 1.8 1.8 1.8 1.8-.8 1.8-1.8-.8-1.8-1.8-1.8m6-.4c-1.2 0-2.2 1-2.2 2.2s1 2.2 2.2 2.2 2.2-1 2.2-2.2-1-2.2-2.2-2.2m6-.3c-1.4 0-2.5 1.1-2.5 2.5s1.1 2.5 2.5 2.5 2.5-1.1 2.5-2.5-1.2-2.5-2.5-2.5m-24 8.1c-.2 0-.4.2-.4.4s.2.4.4.4.4-.2.4-.4-.2-.4-.4-.4m6-.4c-.5 0-.9.4-.9.8 0 .5.4.9.8.9.5 0 .9-.4.9-.8 0-.6-.3-.9-.8-.9m6-.4c-.7 0-1.2.6-1.2 1.2 0 .7.6 1.2 1.2 1.2.7 0 1.2-.6 1.2-1.2 0-.7-.5-1.2-1.2-1.2m6-.4c-.9 0-1.6.7-1.6 1.6s.7 1.6 1.6 1.6 1.6-.7 1.6-1.6-.7-1.6-1.6-1.6m6-.2c-1 0-1.8.8-1.8 1.8s.8 1.8 1.8 1.8 1.8-.8 1.8-1.8-.8-1.9-1.8-1.8m6-.2c-1.1 0-2 .9-2.1 2s.9 2 2 2.1c1.1 0 2-.9 2.1-2 0-1.2-.9-2.1-2-2.1m6-.2c-1.2 0-2.2 1-2.2 2.2s1 2.2 2.2 2.2 2.2-1 2.2-2.2-1-2.2-2.2-2.2m-30 7.9c-.2 0-.3.1-.3.3s.1.3.3.3.3-.1.3-.3-.2-.3-.3-.3m6-.4c-.4 0-.6.3-.6.6 0 .4.3.6.6.6.4 0 .6-.3.6-.6s-.3-.6-.6-.6m6-.3c-.5 0-1 .4-1 1 0 .5.4 1 1 1 .5 0 1-.4 1-1-.1-.5-.5-1-1-1m6-.2c-.7 0-1.2.5-1.2 1.2s.5 1.2 1.2 1.2 1.2-.5 1.2-1.2-.5-1.2-1.2-1.2m6-.2c-.8 0-1.4.6-1.4 1.4s.6 1.4 1.4 1.4 1.4-.6 1.4-1.4-.6-1.4-1.4-1.4m6-.1c-.8 0-1.5.7-1.5 1.5s.7 1.5 1.5 1.5 1.5-.7 1.5-1.5-.7-1.5-1.5-1.5m-18 7.2c-.2 0-.3.1-.3.3s.1.3.3.3.3-.1.3-.3-.1-.3-.3-.3m6-.3c-.3 0-.6.3-.6.6s.3.6.6.6.6-.3.6-.6c-.1-.3-.3-.6-.6-.6m6-.1c-.4 0-.7.3-.7.7s.3.7.7.7.7-.3.7-.7-.3-.7-.7-.7m6-.1c-.5 0-.9.4-.9.8 0 .5.4.9.8.9.5 0 .9-.4.9-.8 0-.6-.3-.9-.8-.9m0 6.6c-.1 0-.2.1-.2.2s.1.2.2.2.2-.1.2-.2-.1-.2-.2-.2"/><path d="M111.9 37.5v8.8c-.1 0-.2.1-.2.2s.1.2.1.2v5c-.4 0-.8.3-.8.8 0 .4.3.8.8.8h.1V57c-.8 0-1.5.7-1.5 1.5s.7 1.4 1.5 1.5v2.3c-1.2 0-2.1 1-2.1 2.3 0 1.1 1 2.1 2.1 2.1v1c-1.6 0-2.8 1.3-2.8 2.8 0 1.2.7 2.2 1.8 2.6-.8.3-1.5.8-2 1.6-.5-.8-1.2-1.3-2.1-1.6 1.5-.5 2.2-2.1 1.7-3.5-.5-1.5-2.1-2.2-3.5-1.7-1.5.5-2.2 2.1-1.7 3.5.3.8.9 1.5 1.7 1.7-1 .3-1.8.9-2.2 1.8-.9-1.6-2.9-2.2-4.5-1.3-.7.4-1.3 1.1-1.6 1.9-.6-1.6-2.3-2.4-3.9-1.9s-2.4 2.3-1.9 3.9c.2.7.7 1.3 1.4 1.7-.8.3-1.4.9-1.8 1.7-.9-1.5-2.9-2-4.5-1.1-.9.5-1.4 1.4-1.5 2.4-.2-1.5-1.6-2.6-3.1-2.4s-2.6 1.6-2.4 3.1c.2 1.3 1.2 2.3 2.4 2.4-1.8.2-3.1 1.8-2.9 3.5.1 1 .7 1.9 1.6 2.4-.7.4-1.3 1-1.7 1.8-.8-1.5-2.7-2-4.1-1.2-1.5.8-2 2.7-1.2 4.1.4.7.9 1.2 1.6 1.4-1.7.6-2.7 2.4-2.1 4.2.3.8.8 1.5 1.6 1.9-.9.4-1.5 1.2-1.8 2.2-.5-1.5-2.1-2.2-3.5-1.7-1.5.5-2.2 2.1-1.7 3.5.5 1.5 2.1 2.2 3.5 1.7.8-.3 1.5-.9 1.7-1.7.2.9.8 1.6 1.6 2.1-.7.4-1.3 1.1-1.6 2-.6-1.5-2.2-2.2-3.7-1.6s-2.2 2.2-1.6 3.7 2.2 2.2 3.7 1.6c.7-.3 1.3-.9 1.6-1.6.3.8.8 1.5 1.6 2-.8.5-1.3 1.2-1.5 2-.5-1.5-2.1-2.2-3.6-1.7s-2.2 2.1-1.7 3.6 2.1 2.2 3.6 1.7c.8-.3 1.4-.9 1.7-1.7.3.9.9 1.7 1.7 2.2-1 .6-1.7 1.7-1.7 2.9 0-1.5-1.3-2.7-2.7-2.6-1.5 0-2.7 1.3-2.6 2.7s1.3 2.7 2.7 2.6c1.4 0 2.6-1.2 2.6-2.6 0 1.4.9 2.6 2.2 3.1-1.6.6-2.4 2.4-1.8 3.9.6 1.6 2.4 2.4 3.9 1.8.7-.3 1.2-.7 1.6-1.4.3.7.9 1.3 1.6 1.7-.9.6-1.5 1.6-1.5 2.7 0-1.5-1.3-2.7-2.8-2.7s-2.7 1.3-2.7 2.8 1.3 2.7 2.8 2.7 2.6-1.2 2.7-2.7c0 1.6 1.2 2.9 2.7 3.2-1.5.3-2.5 1.8-2.2 3.3s1.8 2.5 3.3 2.2c1.1-.2 2-1.1 2.2-2.2.3 1.4 1.4 2.5 2.9 2.7-1.5.2-2.6 1.6-2.4 3.1s1.6 2.6 3.1 2.4 2.6-1.6 2.4-3.1c-.2-1.2-1.1-2.2-2.4-2.4 1-.1 1.9-.7 2.4-1.5.4.7 1 1.2 1.7 1.6-1.5.9-2 2.8-1.1 4.2.9 1.5 2.8 2 4.2 1.1.6-.3 1-.9 1.3-1.5.4 1.2 1.5 2 2.7 2.1-1.5.2-2.5 1.6-2.2 3.1.2 1.5 1.6 2.5 3.1 2.2 1.5-.2 2.5-1.6 2.2-3.1-.2-1.1-1.1-2-2.2-2.2 1-.1 1.9-.7 2.5-1.6.4.8 1.2 1.4 2 1.7-1.5.6-2.2 2.3-1.6 3.7.6 1.5 2.3 2.2 3.7 1.6 1.5-.6 2.2-2.3 1.6-3.7-.3-.7-.9-1.3-1.6-1.6.8-.2 1.4-.8 1.9-1.4.4.7 1.1 1.2 1.8 1.5-1.5.7-2.1 2.4-1.4 3.9.5 1 1.5 1.7 2.6 1.7v.9c-1.2 0-2.3.9-2.3 2.2 0 1.2.9 2.3 2.2 2.3h.1v2.2c-.9 0-1.6.7-1.6 1.5 0 .9.7 1.6 1.5 1.6h.1v3.6c-.5 0-.8.4-.8.9 0 .4.4.8.8.8v4.9c-.1 0-.2.1-.2.2s.1.2.2.2v8.8c41.4.3 75.3-33 75.6-74.4s-33-75.3-74.4-75.6c-.2-.2-.6-.2-1-.2M84.6 82.8c.1.9.5 1.7 1.2 2.2l-1.5 1.5c-.5-.7-1.3-1.1-2.2-1.2 1.4-.2 2.4-1.2 2.5-2.5m0 59.1c-.2-1.1-1.1-1.9-2.2-2.2.8-.1 1.5-.6 2-1.2l1.4 1.4c-.6.5-1 1.2-1.2 2m-26.9-18.8c-.7 0-1.4.6-1.4 1.4 0 .7.6 1.4 1.4 1.4.7 0 1.4-.6 1.4-1.4-.1-.7-.7-1.4-1.4-1.4"/></g></g></switch></svg>