<?xml version="1.0" encoding="UTF-8"?>
<svg width="566px" height="122px" viewBox="0 0 566 122" version="1.1" xmlns="http://www.w3.org/2000/svg" xmlns:xlink="http://www.w3.org/1999/xlink">
    <title>wincher_logo-dark</title>
    <g id="Page-1" stroke="none" stroke-width="1" fill="none" fill-rule="evenodd">
        <g id="Logo/Multiple" transform="translate(-118.000000, -533.000000)">
            <g id="Group" transform="translate(0.000000, 396.000000)">
                <g transform="translate(118.000000, 137.000000)" id="Logo">
                    <g id="Word" transform="translate(184.000000, 37.000000)" fill-rule="nonzero">
                        <circle id="Oval" fill="#FF8F3B" cx="375.599965" cy="58.1999936" r="5.59999967"></circle>
                        <path d="M31.6045394,62.111984 C31.2824674,63.0995793 30.3615936,63.7678718 29.3228083,63.7678718 L21.9855245,63.7678718 C20.9524687,63.7678718 20.0353205,63.1068108 19.708665,62.1267595 L0.123140392,3.365105 C0.0415801736,3.12040318 0,2.86415359 0,2.60621746 C0,1.28073414 1.07451654,0.206217604 2.39999986,0.206217604 L11.2952915,0.206217604 C12.354008,0.206217604 13.2876587,0.899948823 13.5931844,1.91362269 L25.9627388,42.9533653 L39.9366845,1.83398013 C40.2674189,0.860769375 41.1811772,0.206217604 42.2090509,0.206217604 L46.9087819,0.206217604 C47.9318654,0.206217604 48.8424732,0.854778862 49.1769214,1.82165228 L63.4046662,42.9533653 L75.6056479,1.9221593 C75.9083474,0.904198304 76.8440835,0.206217604 77.9060965,0.206217604 L86.7987588,0.206217604 C87.0557086,0.206217604 87.3109913,0.247480433 87.5548568,0.32843014 C88.812844,0.746011552 89.4941275,2.10432829 89.0765461,3.36231549 L69.5709624,62.12397 C69.2451666,63.1054477 68.327313,63.7678718 67.293175,63.7678718 L59.9581258,63.7678718 C58.9193405,63.7678718 57.9984666,63.0995793 57.6763947,62.111984 L44.640467,22.1388588 L31.6045394,62.111984 Z M106.14251,16.892227 C107.467993,16.892227 108.542509,17.9667435 108.542509,19.2922268 L108.542509,61.367872 C108.542509,62.6933553 107.467993,63.7678718 106.14251,63.7678718 L98.7501034,63.7678718 C97.4246201,63.7678718 96.3501035,62.6933553 96.3501035,61.367872 L96.3501035,19.2922268 C96.3501035,17.9667435 97.4246201,16.892227 98.7501034,16.892227 L106.14251,16.892227 Z M102.355032,2.07478479e-12 C105.450366,2.07478479e-12 107.959631,2.49589853 107.959631,5.5747454 C107.959631,8.65359227 105.450366,11.1494908 102.355032,11.1494908 C99.2596967,11.1494908 96.7504321,8.65359227 96.7504321,5.5747454 C96.7504321,2.49589853 99.2596967,2.07478479e-12 102.355032,2.07478479e-12 Z M131.430914,61.367872 C131.430914,62.6933553 130.356397,63.7678718 129.030914,63.7678718 L121.638508,63.7678718 C120.313025,63.7678718 119.238508,62.6933553 119.238508,61.367872 L119.238508,19.2922268 C119.238508,17.9667435 120.313025,16.892227 121.638508,16.892227 L128.771501,16.892227 C130.096984,16.892227 131.171501,17.9667435 131.171501,19.2922268 L131.171501,24.2290141 C132.439742,21.8780643 134.39975,19.9858365 137.051527,18.5523305 C139.703303,17.1188245 142.672139,16.4020716 145.958036,16.4020716 C151.088646,16.4020716 155.441018,18.0936086 159.015151,21.4766827 C162.589285,24.8597567 164.376351,29.6763367 164.376351,35.9264227 L164.376351,61.367872 C164.376351,62.6933553 163.301835,63.7678718 161.976351,63.7678718 L154.583945,63.7678718 C153.258462,63.7678718 152.183945,62.6933553 152.183945,61.367872 L152.183945,39.1948163 C152.183945,35.5250411 151.290412,32.6723642 149.503345,30.6367857 C147.716279,28.6012073 145.295092,27.583418 142.239784,27.583418 C139.011535,27.583418 136.402994,27.8872177 134.414162,30.0948169 C132.42533,32.302416 131.430914,35.9550928 131.430914,39.4528474 L131.430914,61.367872 Z M198.536218,64 C191.404583,64 185.518155,61.7583187 180.876933,57.2749562 C176.292311,52.8476357 174,47.1033275 174,40.0420315 C174,32.9807356 176.320611,27.2364273 180.961833,22.8091068 C185.659656,18.2697023 191.630985,16 198.875819,16 C203.630242,16 207.946013,17.1208406 211.823131,19.3625219 C215.202585,21.3164618 217.818744,23.9516549 219.67161,27.2681011 C220.314774,28.4193001 219.944467,29.0470708 219.15494,29.4759903 C216.132237,31.1181074 213.816646,32.3760777 212.208168,33.2499012 C211.205404,33.7946638 210.577722,33.4964315 209.915084,32.5961229 C207.175222,28.8735471 203.552068,27.0122592 199.04562,27.0122592 C195.196802,27.0122592 192.055487,28.2732049 189.621675,30.7950963 C187.131263,33.2609457 185.886057,36.3432574 185.886057,40.0420315 C185.886057,43.8528897 187.102963,46.9912434 189.536775,49.4570928 C192.027186,51.9229422 195.111901,53.1558669 198.790919,53.1558669 C201.224731,53.1558669 203.545342,52.5113835 205.752752,51.2224168 C207.482423,50.2124154 208.847198,48.9787543 209.847078,47.5214335 C210.316722,46.836929 210.986274,46.49209 211.924222,47.0379033 C213.5818,48.0024858 215.980051,49.3980826 219.118975,51.2246936 C219.856899,51.6541081 220.086829,52.2633728 219.656888,52.96728 C217.702698,56.1667195 214.978245,58.7514732 211.48353,60.7215412 C207.606411,62.9071804 203.29064,64 198.536218,64 Z M243.057826,61.367872 C243.057826,62.6933553 241.983309,63.7678718 240.657826,63.7678718 L233.26542,63.7678718 C231.939937,63.7678718 230.86542,62.6933553 230.86542,61.367872 L230.86542,2.39999986 C230.86542,1.07451654 231.939937,0 233.26542,0 L240.311942,0 C241.637426,0 242.711942,1.07451654 242.711942,2.39999986 L242.711942,23.7989623 C243.980183,21.6200333 245.969015,19.8424859 248.678439,18.4663201 C251.387862,17.0901544 254.356699,16.4020716 257.584948,16.4020716 C262.657911,16.4020716 266.981459,18.0936086 270.555593,21.4766827 C274.129726,24.8597567 275.916792,29.6763367 275.916792,35.9264227 L275.916792,61.367872 C275.916792,62.6933553 274.842276,63.7678718 273.516792,63.7678718 L266.124386,63.7678718 C264.798903,63.7678718 263.724386,62.6933553 263.724386,61.367872 L263.724386,39.1948163 C263.724386,35.5250411 262.845265,32.6723642 261.087022,30.6367857 C259.328779,28.6012073 256.922004,27.583418 253.866697,27.583418 C250.638447,27.583418 248.029906,28.6872176 246.041074,30.8948168 C244.052242,33.102416 243.057826,35.9550928 243.057826,39.4528474 L243.057826,61.367872 Z M310.976661,64 C302.932376,64 296.744464,61.6742557 292.412926,57.0227671 C288.137642,52.4273205 286,46.7670753 286,40.0420315 C286,33.0367776 288.222023,27.2924694 292.666068,22.8091068 C297.110114,18.2697023 302.876122,16 309.964093,16 C316.658288,16 322.171155,18.0735552 326.502693,22.2206655 C330.834231,26.3677758 333,31.971979 333,39.033275 C333,40.1197418 332.91543,41.4084129 332.74629,42.8992882 C332.641921,43.8192427 332.262807,44.2451839 331.26327,44.2451839 C323.886194,44.2451839 312.820579,44.2451839 298.066427,44.2451839 C299.754039,50.7460595 304.226212,53.9964974 311.482944,53.9964974 C316.289525,53.9964974 320.777559,52.7497773 324.947048,50.2563371 C325.733544,49.7859962 326.568411,49.7859962 327.005627,50.5560221 C327.780419,51.9205891 328.888415,53.871996 330.329615,56.4102428 C330.895424,57.4067475 330.76085,57.923926 329.950859,58.4597608 C324.367615,62.1532536 318.042882,64 310.976661,64 Z M321,36 C320.44645,32.9005848 319.173285,30.4590643 317.180505,28.6754386 C315.187726,26.8918129 312.696751,26 309.707581,26 C306.773767,26 304.268953,26.8918129 302.193141,28.6754386 C300.117329,30.4590643 298.719615,32.9005848 298,36 L321,36 Z M355.953759,61.367872 C355.953759,62.6933553 354.879242,63.7678718 353.553759,63.7678718 L346.161353,63.7678718 C344.835869,63.7678718 343.761353,62.6933553 343.761353,61.367872 L343.761353,19.2922268 C343.761353,17.9667435 344.835869,16.892227 346.161353,16.892227 L353.034933,16.892227 C354.360417,16.892227 355.434933,17.9667435 355.434933,19.2922268 L355.434933,24.7637675 C358.259651,19.7178265 362.583199,17.194856 368.405578,17.194856 C369.896175,17.194856 371.386773,17.4060812 372.877371,17.8285315 C373.737745,18.0723703 374.070363,18.700298 373.987759,19.6246445 C373.807936,21.6368838 373.5484,24.5411076 373.209152,28.3373156 C373.111653,29.428333 372.641861,29.685326 371.57253,29.428333 C370.085498,29.0709541 368.712788,28.8922646 367.454397,28.8922646 C363.880264,28.8922646 361.069958,30.0820746 359.023478,32.4616945 C356.976999,34.8413144 355.953759,38.3820741 355.953759,43.0839736 L355.953759,61.367872 Z" id="Wincher" fill="#37343B"></path>
                    </g>
                    <g id="W" transform="translate(0.595533, 0.000000)">
                        <path d="M83.652885,14.3932584 C84.0079744,14.3932584 84.3609332,14.447766 84.6992787,14.5548535 C86.5139074,15.1291894 87.5164683,17.0567371 86.938561,18.8601519 L54.6521565,119.612961 C54.1965768,121.034641 52.8677936,122 51.3664805,122 L28.9491528,122 C28.5940635,122 28.2411046,121.945492 27.9027592,121.838405 C26.0881304,121.264069 25.0855696,119.336521 25.6634768,117.533107 L57.9498814,16.7802976 C58.4054611,15.3586176 59.7342443,14.3932584 61.2355574,14.3932584 L83.652885,14.3932584 Z M154.353088,0.162446016 C156.167244,0.738255601 157.168219,2.66661701 156.588829,4.46956177 L119.481048,119.615629 C119.024615,121.035955 117.696502,122 116.196228,122 L93.7807872,122 C93.4247529,122 93.0708661,121.945202 92.7317086,121.837554 C90.9175528,121.261744 89.9165774,119.333383 90.4959675,117.530438 L127.603749,2.38437081 C128.060181,0.964045463 129.388295,0 130.888568,0 L155.372975,0 C155.729009,0 154.01393,0.0547980837 154.353088,0.162446016 Z" id="Combined-Shape" fill="#FF8F3B"></path>
                        <path d="M107.253446,65.5308584 L122.189446,111.209858 L119.481048,119.615629 C119.024615,121.035955 117.696502,122 116.196228,122 L104.408446,74.3608584 L107.253446,65.5308584 Z" id="Shade2" fill="#FF7F3B"></path>
                        <path d="M42.3767781,65.3787011 L57.3527781,111.183701 L54.6521565,119.612961 C54.6079344,119.75096 54.5554848,119.88466 54.4954487,120.013595 L39.3647781,74.7767011 L42.3767781,65.3787011 Z" id="Shade1" fill="#FF7F3B"></path>
                        <path d="M83.7802736,14.3932584 C85.2815867,14.3932584 86.6103699,15.3586176 87.0659496,16.7802976 L87.0659496,16.7802976 L119.352354,117.533107 C119.930261,119.336521 118.927701,121.264069 117.113072,121.838405 C116.774726,121.945492 116.421767,122 116.066678,122 L116.066678,122 L93.6493505,122 C92.1480374,122 90.8192542,121.034641 90.3636745,119.612961 L90.3636745,119.612961 L58.0772699,18.8601519 C57.4993627,17.0567371 58.5019235,15.1291894 60.3165523,14.5548535 C60.6548977,14.447766 61.0078566,14.3932584 61.3629459,14.3932584 L61.3629459,14.3932584 Z M25.8584468,37.011236 C27.3553284,37.011236 28.6812535,37.9710001 29.1404562,39.3869017 L29.1404562,39.3869017 L54.5038076,117.521733 C55.0880353,119.323135 54.0922397,121.254144 52.279636,121.834761 C51.9378325,121.944248 51.5809174,122 51.2217982,122 L51.2217982,122 L28.8125565,122 C27.315675,122 25.9897499,121.040236 25.5305471,119.624334 L25.5305471,119.624334 L0.167195763,41.4895028 C-0.41703189,39.6881005 0.578763682,37.7570922 2.39136743,37.1764749 C2.73317087,37.0669877 3.09008598,37.011236 3.44920517,37.011236 L3.44920517,37.011236 Z" id="Combined-Shape" fill="#FFA23A"></path>
                    </g>
                </g>
            </g>
        </g>
    </g>
</svg>