<?xml version="1.0" encoding="UTF-8"?>
<svg width="229px" height="178px" viewBox="0 0 229 178" version="1.1" xmlns="http://www.w3.org/2000/svg" xmlns:xlink="http://www.w3.org/1999/xlink">
    <title>wincher_glyph-w</title>
    <g id="Symbols" stroke="none" stroke-width="1" fill="none" fill-rule="evenodd">
        <g id="wincher_glyph-w" transform="translate(0.863523, 0.000000)">
            <path d="M121.296683,21 C121.811563,21 122.323353,21.0795275 122.813954,21.2357698 C125.445166,22.0737353 126.898879,24.8860591 126.060914,27.5172708 L79.2456269,174.517271 C78.5850363,176.591525 76.6583007,178 74.4813967,178 L41.9762716,178 C41.4613921,178 40.9496017,177.920473 40.4590008,177.76423 C37.8277891,176.926265 36.3740759,174.113941 37.2120414,171.482729 L84.027328,24.4827292 C84.6879186,22.4084749 86.6146542,21 88.7915582,21 L121.296683,21 Z M223.811977,0.237011401 C226.442503,1.07712702 227.893918,3.89063793 227.053802,6.5211639 L173.247519,174.521164 C172.585692,176.593442 170.659927,178 168.484531,178 L135.982141,178 C135.465892,178 134.952756,177.920049 134.460978,177.762989 C131.830452,176.922873 130.379037,174.109362 131.219153,171.478836 L185.025436,3.4788361 C185.687263,1.40655813 187.613027,0 189.788424,0 L225.290813,0 C225.807063,0 223.320199,0.0799513025 223.811977,0.237011401 Z" id="Combined-Shape" fill="#FF8F3B"></path>
            <path d="M155.517797,95.61 L177.173797,162.259 L173.247519,174.521164 C172.585692,176.593442 170.659927,178 168.484531,178 L151.390797,108.495 L155.517797,95.61 Z M61.4459282,95.388 L83.1619282,162.219 L79.2456269,174.517271 C79.1814623,174.718748 79.1053521,174.913943 79.0182273,175.102176 L57.0789282,109.102 L61.4459282,95.388 Z" id="Combined-Shape" fill="#FF7F3B"></path>
            <path d="M121.481397,21 C123.658301,21 125.585036,22.4084749 126.245627,24.4827292 L126.245627,24.4827292 L173.060914,171.482729 C173.898879,174.113941 172.445166,176.926265 169.813954,177.76423 C169.323353,177.920473 168.811563,178 168.296683,178 L168.296683,178 L135.791558,178 C133.614654,178 131.687919,176.591525 131.027328,174.517271 L131.027328,174.517271 L84.2120414,27.5172708 C83.3740759,24.8860591 84.8277891,22.0737353 87.4590008,21.2357698 C87.9496017,21.0795275 88.4613921,21 88.9762716,21 L88.9762716,21 Z M37.4947479,54 C39.6652261,54 41.5878176,55.4003116 42.2536616,57.4661353 L42.2536616,57.4661353 L79.0305211,171.466135 C79.8776512,174.094411 78.4337476,176.911784 75.8054721,177.758914 C75.3098572,177.918657 74.7923302,178 74.2716074,178 L74.2716074,178 L41.778207,178 C39.6077288,178 37.6851374,176.599688 37.0192934,174.533865 L37.0192934,174.533865 L0.242433856,60.5338647 C-0.604696241,57.9055893 0.839207339,55.0882165 3.46748277,54.2410864 C3.96309776,54.0813427 4.48062467,54 5.00134749,54 L5.00134749,54 Z" id="Combined-Shape" fill="#FFA23A"></path>
        </g>
    </g>
</svg>