<svg width="164" height="180" viewBox="0 0 164 180" fill="none" xmlns="http://www.w3.org/2000/svg">
<g clip-path="url(#clip0_1130_41)">
<path d="M75.5187 160.54L22.4896 130.623C20.5928 129.547 19.0118 127.992 17.9049 126.113C16.798 124.235 16.2041 122.098 16.1826 119.917V60.0835C16.2041 57.903 16.798 55.7664 17.9049 53.8876C19.0118 52.0088 20.5928 50.4537 22.4896 49.3781L75.5187 19.4611C77.4505 18.3741 79.6298 17.8031 81.8465 17.8031C84.0631 17.8031 86.2424 18.3741 88.1743 19.4611L141.079 49.3781C142.983 50.4484 144.573 52.0012 145.687 53.8804C146.801 55.7595 147.402 57.8989 147.427 60.0835V119.917C147.402 122.102 146.801 124.241 145.687 126.121C144.573 128 142.983 129.553 141.079 130.623L88.1743 160.54C86.2424 161.627 84.0631 162.198 81.8465 162.198C79.6298 162.198 77.4505 161.627 75.5187 160.54ZM73.9834 2.07517L7.88382 39.3366C5.50168 40.663 3.51575 42.5998 2.13016 44.948C0.744575 47.2962 0.00932767 49.9711 0 52.6976L0 127.386C0.0080442 130.108 0.743154 132.777 2.12925 135.119C3.51535 137.461 5.50208 139.39 7.88382 140.706L73.9834 178.05C76.3808 179.411 79.0901 180.126 81.8465 180.126C84.6029 180.126 87.3121 179.411 89.7095 178.05L155.809 140.706C158.191 139.39 160.178 137.461 161.564 135.119C162.95 132.777 163.685 130.108 163.693 127.386V52.6976C163.684 49.9711 162.948 47.2962 161.563 44.948C160.177 42.5998 158.191 40.663 155.809 39.3366L89.7095 2.07517C87.3121 0.714913 84.6029 -0.000152588 81.8465 -0.000152588C79.0901 -0.000152588 76.3808 0.714913 73.9834 2.07517Z" fill="white"/>
<path d="M78.8382 125.27L52.3237 110.332C51.3725 109.797 50.5797 109.021 50.0258 108.08C49.4719 107.14 49.1767 106.07 49.1702 104.979V75.0208C49.1767 73.9297 49.4719 72.8597 50.0258 71.9196C50.5797 70.9794 51.3725 70.2027 52.3237 69.6681L78.8382 54.6888C79.8073 54.1435 80.9005 53.8571 82.0125 53.8571C83.1245 53.8571 84.2177 54.1435 85.1868 54.6888L111.701 69.6681C112.653 70.2027 113.445 70.9794 113.999 71.9196C114.553 72.8597 114.848 73.9297 114.855 75.0208V104.979C114.848 106.07 114.553 107.14 113.999 108.08C113.445 109.021 112.653 109.797 111.701 110.332L85.1868 125.27C84.2177 125.815 83.1245 126.101 82.0125 126.101C80.9005 126.101 79.8073 125.815 78.8382 125.27ZM77.054 36.6805L37.0125 59.2946C35.573 60.1013 34.3731 61.2751 33.5349 62.6964C32.6967 64.1178 32.2501 65.7359 32.2407 67.3859V112.614C32.2501 114.264 32.6967 115.882 33.5349 117.304C34.3731 118.725 35.573 119.899 37.0125 120.705L77.054 143.32C78.519 144.137 80.1688 144.566 81.8465 144.566C83.5243 144.566 85.1741 144.137 86.6391 143.32L126.681 120.705C128.12 119.899 129.32 118.725 130.158 117.304C130.996 115.882 131.443 114.264 131.452 112.614V67.3859C131.443 65.7359 130.996 64.1178 130.158 62.6964C129.32 61.2751 128.12 60.1013 126.681 59.2946L86.6391 36.6805C85.1741 35.8629 83.5243 35.4337 81.8465 35.4337C80.1688 35.4337 78.519 35.8629 77.054 36.6805Z" fill="white"/>
<path d="M80.2072 71.8672L66.5973 79.5435C66.1058 79.8224 65.697 80.2267 65.4127 80.7151C65.1285 81.2035 64.9788 81.7585 64.979 82.3236V97.6763C64.9788 98.2414 65.1285 98.7965 65.4127 99.2849C65.697 99.7733 66.1058 100.178 66.5973 100.456L80.2072 108.133C80.701 108.41 81.259 108.553 81.8255 108.548C82.4057 108.559 82.9785 108.416 83.4852 108.133L97.0952 100.456C97.5867 100.178 97.9954 99.7733 98.2797 99.2849C98.564 98.7965 98.7137 98.2414 98.7135 97.6763V82.3236C98.7137 81.7585 98.564 81.2035 98.2797 80.7151C97.9954 80.2267 97.5867 79.8224 97.0952 79.5435L83.4852 71.8672C82.9785 71.5844 82.4057 71.4412 81.8255 71.4523C81.259 71.4466 80.701 71.5896 80.2072 71.8672Z" fill="white"/>
</g>
<defs>
<clipPath id="clip0_1130_41">
<rect width="163.693" height="180" fill="white"/>
</clipPath>
</defs>
</svg>
