<?xml version="1.0" encoding="UTF-8"?>
<svg xmlns="http://www.w3.org/2000/svg" xmlns:xlink="http://www.w3.org/1999/xlink" width="300px" height="58px" viewBox="0 0 299 58" version="1.1">
<g id="surface1">
<path style=" stroke:none;fill-rule:nonzero;fill:rgb(9.411765%,46.666667%,94.901961%);fill-opacity:1;" d="M 264.179688 57.101562 L 264.179688 1.132812 L 275.445312 0.152344 L 275.445312 37.664062 L 286.625 19.789062 L 298.523438 19.789062 L 286.863281 38.300781 L 298.972656 57.101562 L 287.039062 57.101562 L 275.445312 38.847656 L 275.445312 57.101562 Z M 241.351562 27.902344 C 246.703125 27.902344 248.824219 31.917969 248.824219 36.484375 L 248.824219 40.414062 C 248.824219 45.945312 245.855469 49.148438 241.332031 49.148438 C 237.101562 49.148438 234.128906 46.152344 234.128906 40.414062 L 234.128906 36.484375 C 234.128906 30.363281 237.667969 27.902344 241.351562 27.902344 M 241.503906 19.046875 C 229.339844 19.046875 222.933594 25.917969 222.933594 38.234375 C 222.933594 55.128906 233.976562 57.851562 241.527344 57.851562 C 252.582031 57.851562 259.9375 51.886719 259.9375 38.386719 C 259.9375 24.339844 251.667969 19.046875 241.503906 19.046875 M 200.542969 27.902344 C 205.894531 27.902344 208.015625 31.917969 208.015625 36.484375 L 208.015625 40.414062 C 208.015625 45.945312 205.046875 49.148438 200.523438 49.148438 C 196.292969 49.148438 193.320312 46.152344 193.320312 40.414062 L 193.320312 36.484375 C 193.320312 30.363281 196.855469 27.902344 200.542969 27.902344 M 200.695312 19.046875 C 188.53125 19.046875 182.125 25.917969 182.125 38.234375 C 182.125 55.128906 193.164062 57.851562 200.71875 57.851562 C 211.773438 57.851562 219.125 51.886719 219.125 38.386719 C 219.125 24.339844 210.855469 19.046875 200.695312 19.046875 M 119.945312 26.707031 C 124.046875 26.707031 126.707031 29.226562 126.558594 35.074219 L 112.730469 35.074219 C 112.972656 28.921875 115.839844 26.707031 119.945312 26.707031 Z M 119.660156 19.097656 C 107.8125 19.097656 101.558594 25.574219 101.558594 37.078125 L 101.558594 39.214844 C 101.558594 54.148438 110.34375 57.992188 120.8125 57.992188 C 130.992188 57.992188 135.601562 55.140625 135.601562 55.140625 L 133.5 47.542969 C 133.5 47.542969 128.078125 49.851562 122.160156 49.851562 C 116.027344 49.851562 113.386719 48.285156 112.710938 42.375 L 136.5 42.375 L 136.5 36.28125 C 136.5 23.800781 129.480469 19.097656 119.660156 19.097656 Z M 159.847656 27.875 C 155.460938 27.875 152.5 30.941406 152.5 36.15625 L 152.488281 41.484375 C 152.484375 45.003906 154.539062 49.117188 159.847656 49.117188 C 167.3125 49.117188 167.113281 41.039062 167.113281 38.347656 C 167.113281 29.296875 163.136719 27.875 159.847656 27.875 M 162.996094 19.066406 C 173.441406 19.066406 178.296875 26.941406 178.296875 38.121094 C 178.296875 52.203125 172.097656 57.839844 162.988281 57.839844 C 157.78125 57.839844 153.925781 55.640625 151.847656 51.539062 L 151.847656 57.105469 L 141.265625 57.097656 L 141.265625 1.132812 L 152.5 0.152344 L 152.5 25.027344 C 154.121094 20.675781 159.449219 19.066406 162.996094 19.066406 Z M 70.128906 38.449219 C 70.128906 33.917969 69.910156 19.082031 89.195312 19.082031 C 96.9375 19.082031 100.171875 21.546875 100.171875 21.546875 L 97.574219 29.625 C 97.574219 29.625 94.34375 27.84375 90.136719 27.84375 C 84.75 27.84375 81.3125 30.972656 81.3125 36.480469 L 81.316406 40.429688 C 81.316406 45.722656 84.632812 49.253906 90.148438 49.253906 C 93.980469 49.253906 97.511719 47.457031 97.511719 47.457031 L 100.105469 55.363281 C 100.105469 55.363281 97.148438 57.847656 89.25 57.847656 C 70.886719 57.847656 70.128906 44.535156 70.128906 38.449219 Z M 47.511719 27.875 C 51.902344 27.875 54.535156 30.941406 54.535156 36.15625 L 54.542969 41.484375 C 54.542969 45.003906 52.371094 49.117188 47.511719 49.117188 C 40.046875 49.117188 40.246094 41.039062 40.246094 38.347656 C 40.246094 29.296875 44.226562 27.875 47.511719 27.875 M 44.789062 19.058594 C 44.625 19.058594 44.457031 19.0625 44.289062 19.066406 C 33.84375 19.066406 29.0625 26.941406 29.0625 38.121094 C 29.0625 52.203125 35.261719 57.839844 44.371094 57.839844 C 49.582031 57.839844 53.003906 55.640625 55.085938 51.539062 L 55.085938 57.105469 L 65.800781 57.105469 L 65.800781 19.792969 L 55.085938 19.792969 L 55.085938 25.53125 C 53.386719 21.839844 49.867188 19.101562 44.789062 19.058594 M 18.941406 57.101562 L 7.675781 57.101562 L 7.675781 28.953125 L 0 28.953125 L 0 19.789062 L 7.675781 19.789062 L 7.675781 13.269531 C 7.675781 5.542969 11.066406 0 22.304688 0 C 24.679688 0 28.410156 0.480469 28.410156 0.480469 L 28.410156 8.988281 L 24.492188 8.988281 C 20.5 8.988281 18.941406 10.207031 18.941406 13.570312 L 18.941406 19.789062 L 28.261719 19.789062 L 27.429688 28.953125 L 18.941406 28.953125 Z M 18.941406 57.101562 "/>
</g>
</svg>
