<svg width="83" height="72" viewBox="0 0 83 72" fill="none" xmlns="http://www.w3.org/2000/svg">
<g clip-path="url(#clip0)">
<path opacity="0.8" fill-rule="evenodd" clip-rule="evenodd" d="M80.1223 28.8927C81.9656 30.7684 82.9985 33.2931 82.9985 35.9229C82.9985 38.5527 81.9656 41.0773 80.1223 42.953L54.4631 68.9334C53.5575 69.856 52.477 70.5889 51.2849 71.0892C50.0928 71.5895 48.813 71.8472 47.5202 71.8472C46.2274 71.8472 44.9476 71.5895 43.7555 71.0892C42.5634 70.5889 41.483 69.856 40.5774 68.9334C38.734 67.0577 37.7012 64.5331 37.7012 61.9033C37.7012 59.2734 38.734 56.7488 40.5774 54.8731L66.2367 28.8927C67.1423 27.9701 68.2227 27.2372 69.4147 26.7369C70.6068 26.2367 71.8866 25.979 73.1795 25.979C74.4723 25.979 75.7521 26.2367 76.9442 26.7369C78.1362 27.2372 79.2167 27.9701 80.1223 28.8927Z" fill="#F1F7FB"/>
<path opacity="0.8" fill-rule="evenodd" clip-rule="evenodd" d="M42.9919 2.91323C44.8352 4.78874 45.868 7.3132 45.868 9.94287C45.868 12.5725 44.8352 15.097 42.9919 16.9725L16.729 43.5638C15.8234 44.4864 14.7431 45.2193 13.551 45.7196C12.3589 46.2199 11.079 46.4775 9.7862 46.4775C8.4934 46.4775 7.21358 46.2199 6.0215 45.7196C4.82942 45.2193 3.74903 44.4864 2.84342 43.5638C1.00016 41.6883 -0.0327148 39.1638 -0.0327148 36.5342C-0.0327148 33.9045 1.00016 31.38 2.84342 29.5045L29.1063 2.91323C30.0119 1.99061 31.0923 1.25773 32.2843 0.757447C33.4764 0.257161 34.7562 -0.000518799 36.0491 -0.000518799C37.3419 -0.000518799 38.6217 0.257161 39.8138 0.757447C41.0058 1.25773 42.0863 1.99061 42.9919 2.91323Z" fill="#F3F7FB"/>
<path opacity="0.8" fill-rule="evenodd" clip-rule="evenodd" d="M66.538 10.8595C68.3814 12.7352 69.4143 15.2598 69.4143 17.8897C69.4143 20.5195 68.3814 23.0441 66.538 24.9198L25.786 66.1844C24.88 67.1064 23.7993 67.8388 22.6072 68.3386C21.415 68.8385 20.1353 69.096 18.8427 69.096C17.55 69.096 16.2702 68.8385 15.0781 68.3386C13.886 67.8388 12.8054 67.1064 11.8993 66.1844C10.0565 64.3085 9.02393 61.784 9.02393 59.1543C9.02393 56.5246 10.0565 54.0001 11.8993 52.1241L52.6503 10.8595C53.5559 9.93653 54.6365 9.2034 55.8288 8.70292C57.021 8.20245 58.3011 7.9447 59.5942 7.9447C60.8872 7.9447 62.1673 8.20245 63.3596 8.70292C64.5518 9.2034 65.6324 9.93653 66.538 10.8595Z" fill="#F1F6FC"/>
<g clip-path="url(#clip1)">
<path d="M13.6038 27.5639C13.9392 28.7139 14.4047 29.8228 14.9934 30.8633L13.3163 32.9785C12.7687 33.6699 12.8303 34.6557 13.4464 35.2786L16.3351 38.1673C16.958 38.7902 17.9438 38.8449 18.6351 38.2973L20.7367 36.6339C21.8182 37.2569 22.9682 37.7428 24.1662 38.0851L24.4811 40.789C24.5837 41.6652 25.323 42.3224 26.1992 42.3224H30.2859C31.1621 42.3224 31.9014 41.6651 32.0041 40.789L32.3053 38.1809C33.5922 37.8455 34.8244 37.3458 35.9812 36.6955L38.0143 38.3041C38.7057 38.8518 39.6914 38.7902 40.3143 38.1741L43.203 35.2854C43.826 34.6624 43.8807 33.6767 43.3331 32.9853L41.7518 30.9796C42.409 29.8432 42.9224 28.6317 43.2646 27.3653L45.7016 27.0846C46.5779 26.982 47.2349 26.2427 47.2349 25.3665V21.2798C47.2349 20.4036 46.5778 19.6643 45.7016 19.5616L43.2989 19.281C42.9702 18.0283 42.4774 16.8303 41.8477 15.7077L43.3263 13.8389C43.8739 13.1476 43.8123 12.1618 43.1963 11.5389L40.3144 8.65701C39.6915 8.03409 38.7057 7.97933 38.0143 8.52695L36.2003 9.96447C35.0229 9.27309 33.7633 8.746 32.4422 8.39005L32.1684 6.0421C32.0658 5.1659 31.3265 4.50874 30.4503 4.50874H26.3636C25.4874 4.50874 24.7481 5.1659 24.6454 6.0421L24.3716 8.39005C23.0162 8.75285 21.7225 9.30048 20.5177 10.0192L18.6352 8.52695C17.9438 7.97933 16.9581 8.04093 16.3352 8.65701L13.4465 11.5457C12.8235 12.1687 12.7688 13.1544 13.3164 13.8458L14.8908 15.8378C14.261 16.9741 13.7819 18.1857 13.467 19.4453L10.9479 19.7328C10.0717 19.8354 9.41455 20.5747 9.41455 21.4509V25.5376C9.41455 26.4138 10.0717 27.1531 10.9479 27.2558L13.6038 27.5639ZM28.4103 16.5087C32.1341 16.5087 35.1666 19.5412 35.1666 23.265C35.1666 26.9889 32.1341 30.0214 28.4103 30.0214C24.6865 30.0214 21.6539 26.9889 21.6539 23.265C21.6539 19.5412 24.6864 16.5087 28.4103 16.5087Z" fill="#257671"/>
<path d="M68.8115 28.5699L66.6552 26.7491C65.9913 26.1877 65.0123 26.2151 64.3826 26.8107L63.1915 27.9265C62.1853 27.4404 61.1175 27.0982 60.0153 26.8997L59.68 25.2568C59.5089 24.408 58.7217 23.8193 57.859 23.8877L55.0456 24.1273C54.1831 24.2026 53.5054 24.9077 53.478 25.777L53.4233 27.4473C52.3417 27.8375 51.3217 28.3714 50.3908 29.0422L48.967 28.0976C48.2413 27.6184 47.2761 27.7553 46.7149 28.4193L44.894 30.5893C44.3326 31.2533 44.36 32.2322 44.9555 32.8619L46.2014 34.1899C45.7701 35.1619 45.4621 36.1819 45.2841 37.2292L43.5044 37.592C42.6555 37.7631 42.0668 38.5503 42.1353 39.4129L42.3749 42.2264C42.4502 43.0889 43.1552 43.7666 44.0246 43.7939L45.9481 43.8555C46.2974 44.7728 46.756 45.6422 47.3104 46.4567L46.2357 48.079C45.7565 48.8047 45.8934 49.7698 46.5574 50.3312L48.7137 52.152C49.3777 52.7133 50.3565 52.686 50.9864 52.0904L52.3965 50.7693C53.3206 51.2005 54.2926 51.5222 55.292 51.7139L55.6823 53.6443C55.8534 54.4931 56.6406 55.0818 57.5031 55.0134L60.3166 54.7738C61.1791 54.6985 61.8568 53.9935 61.8841 53.1241L61.9457 51.2347C62.9725 50.8719 63.9445 50.379 64.8413 49.7698L66.3952 50.7966C67.1208 51.2758 68.0859 51.1389 68.6473 50.4749L70.4682 48.3186C71.0294 47.6546 71.0021 46.6758 70.4066 46.046L69.1538 44.7181C69.6125 43.746 69.948 42.7192 70.1395 41.665L71.8509 41.3159C72.6997 41.1447 73.2884 40.3575 73.2199 39.4949L72.9804 36.6815C72.9051 35.819 72.2 35.1413 71.3306 35.1139L69.6125 35.0592C69.2564 34.0597 68.7773 33.1152 68.1818 32.2389L69.1195 30.8287C69.6124 30.1033 69.4755 29.1312 68.8115 28.5699ZM58.2082 44.8344C55.1689 45.0946 52.4854 42.8287 52.2322 39.7894C51.972 36.7501 54.2379 34.0667 57.2771 33.8134C60.3164 33.5533 62.9999 35.8191 63.2531 38.8584C63.5133 41.8978 61.2474 44.5812 58.2082 44.8344Z" fill="#155753"/>
<path d="M23.4477 52.4054C22.5851 52.4944 21.9212 53.2199 21.9143 54.0894L21.8938 55.8212C21.8801 56.6906 22.5235 57.4299 23.3861 57.5395L24.6593 57.7037C24.8715 58.4773 25.1727 59.2166 25.5629 59.9148L24.7414 60.9279C24.1938 61.6055 24.2349 62.5776 24.8441 63.2006L26.0557 64.4396C26.665 65.0625 27.637 65.1309 28.3284 64.597L29.3483 63.8098C30.067 64.2342 30.8269 64.5697 31.6209 64.8024L31.7578 66.1167C31.8468 66.9792 32.5724 67.6432 33.4418 67.65L35.1737 67.6706C36.043 67.6843 36.7824 67.0408 36.8919 66.1783L37.0493 64.9324C37.9119 64.7202 38.7334 64.3985 39.5137 63.9741L40.472 64.7476C41.1497 65.2952 42.1218 65.2542 42.7447 64.6449L43.9837 63.4333C44.6066 62.8241 44.6751 61.852 44.1412 61.1606L43.4086 60.2091C43.8604 59.4561 44.2096 58.6552 44.4492 57.8132L45.5855 57.6968C46.448 57.6078 47.112 56.8822 47.1189 56.0129L47.1393 54.2809C47.1531 53.4117 46.5096 52.6723 45.6471 52.5628L44.5381 52.419C44.3259 51.5839 44.0111 50.7761 43.6004 50.0232L44.2918 49.1743C44.8394 48.4966 44.7983 47.5246 44.1891 46.9017L42.9775 45.6627C42.3683 45.0397 41.3961 44.9712 40.7048 45.5052L39.8765 46.1419C39.0962 45.6695 38.261 45.3067 37.3848 45.0603L37.2752 43.9856C37.1862 43.123 36.4607 42.4591 35.5913 42.4522L33.8594 42.4317C32.9901 42.418 32.2508 43.0614 32.1412 43.924L32.0043 44.9919C31.1007 45.2246 30.2314 45.5806 29.4236 46.046L28.568 45.3478C27.8903 44.8002 26.9182 44.8413 26.2952 45.4505L25.0494 46.669C24.4265 47.2782 24.358 48.2503 24.892 48.9416L25.6244 49.8863C25.2 50.6393 24.8646 51.4401 24.6455 52.2822L23.4477 52.4054ZM34.6261 50.4476C37.1109 50.4749 39.1029 52.5218 39.0755 55.0066C39.0482 57.4915 37.0013 59.4834 34.5165 59.4561C32.0316 59.4287 30.0397 57.382 30.067 54.897C30.0945 52.4122 32.1412 50.4202 34.6261 50.4476Z" fill="#8E8E8E"/>
</g>
</g>
<defs>
<clipPath id="clip0">
<rect width="83" height="71.853" fill="white"/>
</clipPath>
<clipPath id="clip1">
<rect width="63.8107" height="63.8107" fill="white" transform="translate(9.41455 4.18436)"/>
</clipPath>
</defs>
</svg>
