<svg width="80" height="69" viewBox="0 0 80 69" fill="none" xmlns="http://www.w3.org/2000/svg">
<g clip-path="url(#clip0)">
<path opacity="0.8" fill-rule="evenodd" clip-rule="evenodd" d="M76.5931 27.62C78.3552 29.4131 79.3426 31.8265 79.3426 34.3405C79.3426 36.8545 78.3552 39.2679 76.5931 41.061L52.0641 65.897C51.1984 66.7789 50.1655 67.4796 49.0259 67.9578C47.8864 68.4361 46.6629 68.6824 45.4271 68.6824C44.1912 68.6824 42.9678 68.4361 41.8282 67.9578C40.6886 67.4796 39.6558 66.7789 38.79 65.897C37.0279 64.1039 36.0405 61.6905 36.0405 59.1765C36.0405 56.6625 37.0279 54.2491 38.79 52.456L63.3191 27.62C64.1848 26.738 65.2176 26.0374 66.3572 25.5592C67.4967 25.0809 68.7202 24.8346 69.9561 24.8346C71.1919 24.8346 72.4154 25.0809 73.5549 25.5592C74.6945 26.0374 75.7274 26.738 76.5931 27.62Z" fill="#F1F7FB"/>
<path opacity="0.8" fill-rule="evenodd" clip-rule="evenodd" d="M41.098 2.785C42.86 4.5779 43.8474 6.99117 43.8474 9.505C43.8474 12.0188 42.86 14.4321 41.098 16.225L15.9919 41.645C15.1262 42.527 14.0934 43.2276 12.9539 43.7058C11.8143 44.1841 10.5908 44.4304 9.35492 44.4304C8.11906 44.4304 6.89561 44.1841 5.75604 43.7058C4.61647 43.2276 3.58367 42.527 2.71796 41.645C0.955884 39.8521 -0.0314941 37.4388 -0.0314941 34.925C-0.0314941 32.4111 0.955884 29.9979 2.71796 28.205L27.824 2.785C28.6897 1.90303 29.7225 1.20243 30.8621 0.724182C32.0016 0.245932 33.2251 -0.000396729 34.4609 -0.000396729C35.6968 -0.000396729 36.9202 0.245932 38.0598 0.724182C39.1994 1.20243 40.2322 1.90303 41.098 2.785Z" fill="#F3F7FB"/>
<path opacity="0.8" fill-rule="evenodd" clip-rule="evenodd" d="M63.6069 10.381C65.3691 12.174 66.3565 14.5875 66.3565 17.1015C66.3565 19.6155 65.3691 22.0289 63.6069 23.822L24.65 63.269C23.7838 64.1504 22.7508 64.8504 21.6111 65.3283C20.4715 65.8062 19.2482 66.0523 18.0125 66.0523C16.7767 66.0523 15.5533 65.8062 14.4137 65.3283C13.2741 64.8504 12.2411 64.1504 11.3749 63.269C9.61328 61.4757 8.62622 59.0624 8.62622 56.5485C8.62622 54.0347 9.61328 51.6213 11.3749 49.828L50.3309 10.381C51.1967 9.4987 52.2296 8.79786 53.3694 8.31943C54.5091 7.841 55.7328 7.5946 56.9689 7.5946C58.205 7.5946 59.4287 7.841 60.5685 8.31943C61.7082 8.79786 62.7412 9.4987 63.6069 10.381Z" fill="#F1F6FC"/>
<path fill-rule="evenodd" clip-rule="evenodd" d="M56.2856 57.7297H27.9146C27.7469 57.6101 27.5863 57.4809 27.4336 57.3427C27.3153 57.2404 27.2268 57.1081 27.1776 56.9597C27.1206 56.6592 27.0812 56.3557 27.0596 56.0507C26.9516 55.0547 26.8446 54.059 26.7386 53.0637C26.6093 51.8637 26.4812 50.6637 26.3546 49.4637C26.2456 48.4177 26.1416 47.3727 26.0336 46.3267C25.9066 45.0917 25.7756 43.8577 25.6496 42.6268C25.5236 41.3958 25.4056 40.1557 25.2796 38.9207C25.1536 37.6857 25.0206 36.4347 24.8946 35.1907C24.7686 33.9467 24.6496 32.7037 24.5236 31.4597C24.3816 30.0597 24.2336 28.6597 24.0896 27.2597C23.9563 25.9837 23.8249 24.7077 23.6956 23.4317C23.6586 23.0657 23.6226 22.6987 23.5856 22.3247H62.5926C62.5726 22.4817 62.5506 22.6187 62.5366 22.7557C62.3819 24.2891 62.2269 25.8207 62.0716 27.3507C61.8596 29.4247 61.6426 31.4997 61.4326 33.5747C61.2396 35.4937 61.0566 37.4127 60.8626 39.3317C60.6706 41.2317 60.4676 43.1317 60.2726 45.0317C60.0816 46.9007 59.9026 48.7707 59.7016 50.6387C59.4806 52.6867 59.2396 54.7337 59.0076 56.7807C58.987 57.002 58.889 57.2088 58.7307 57.3647C58.5724 57.5206 58.3641 57.6155 58.1426 57.6327C57.6736 57.6637 57.2036 57.6707 56.7346 57.6917C56.5846 57.6977 56.4356 57.7217 56.2856 57.7297ZM36.3946 50.9057C36.3146 49.8657 36.2366 48.8247 36.1536 47.7847C36.0646 46.6787 35.9706 45.5737 35.8776 44.4677C35.7876 43.401 35.6969 42.3371 35.6056 41.2757C35.5136 40.2197 35.4176 39.1647 35.3246 38.1087C35.2336 37.0777 35.1476 36.0467 35.0536 35.0157C34.9446 33.8207 34.8416 32.6247 34.7136 31.4307C34.6136 30.5017 34.4756 29.5777 34.3646 28.6497C34.336 28.3793 34.2234 28.1247 34.0426 27.9216C33.8618 27.7185 33.6219 27.5773 33.3566 27.5177C33.1073 27.4445 32.8446 27.4299 32.5888 27.475C32.3329 27.52 32.091 27.6236 31.8818 27.7777C31.6726 27.9317 31.5018 28.1319 31.3828 28.3628C31.2637 28.5937 31.1997 28.849 31.1956 29.1087C31.2336 29.5287 31.2713 29.9494 31.3086 30.3707C31.4033 31.418 31.4976 32.465 31.5916 33.5117C31.6836 34.5507 31.7696 35.5907 31.8616 36.6297C31.9716 37.8587 32.0866 39.0867 32.1946 40.3157C32.3026 41.5447 32.4046 42.7908 32.5146 44.0278C32.6226 45.2278 32.7286 46.4357 32.8536 47.6377C32.9786 48.8397 33.1116 50.0228 33.2656 51.2127C33.2605 51.3879 33.2916 51.5623 33.3569 51.7249C33.4223 51.8875 33.5206 52.0348 33.6456 52.1577C33.8978 52.3763 34.208 52.5173 34.5385 52.5636C34.8691 52.6099 35.206 52.5596 35.5086 52.4187C35.7995 52.2956 36.0428 52.0817 36.2025 51.8091C36.3621 51.5365 36.4295 51.2197 36.3946 50.9057ZM49.7736 50.8677H49.7796C49.7796 50.9337 49.7796 51.0007 49.7796 51.0677C49.7823 51.4374 49.9202 51.7933 50.1672 52.0683C50.4142 52.3434 50.7534 52.5185 51.1206 52.5607C51.3116 52.6043 51.5095 52.6084 51.7022 52.5727C51.8948 52.537 52.0782 52.4623 52.2409 52.3532C52.4037 52.2441 52.5424 52.1029 52.6486 51.9382C52.7548 51.7736 52.8263 51.589 52.8586 51.3957C52.9686 50.7777 53.0586 50.1537 53.1206 49.5287C53.2476 48.3527 53.3556 47.1737 53.4656 45.9947C53.5586 44.9947 53.6456 43.9948 53.7346 43.0018C53.8286 41.9538 53.9256 40.9017 54.0176 39.8597C54.1096 38.8177 54.1956 37.7597 54.2876 36.7167C54.3966 35.4707 54.5126 34.2257 54.6206 32.9807C54.7286 31.7357 54.8156 30.4867 54.9476 29.2437C54.9844 28.9507 54.9358 28.6533 54.8078 28.3872C54.6797 28.1212 54.4776 27.8977 54.2256 27.7437C54.0138 27.5859 53.7652 27.4846 53.5034 27.4494C53.2416 27.4143 52.9752 27.4464 52.7292 27.5428C52.4832 27.6391 52.2659 27.7965 52.0977 28.0002C51.9294 28.2038 51.8158 28.447 51.7676 28.7067C51.6086 29.8067 51.5106 30.9067 51.3986 32.0127C51.2986 33.0127 51.2166 34.0127 51.1276 35.0057C51.0322 36.0617 50.9373 37.1174 50.8426 38.1727C50.7506 39.2034 50.6599 40.2344 50.5706 41.2657C50.4766 42.3377 50.3806 43.4097 50.2886 44.4827C50.1939 45.588 50.1012 46.6937 50.0106 47.7997C49.9286 48.8217 49.8526 49.8437 49.7736 50.8677ZM41.4736 39.9947H41.4286C41.4286 41.2377 41.4176 42.4807 41.4286 43.7237C41.4533 46.1677 41.4866 48.6117 41.5286 51.0557C41.5054 51.4212 41.6113 51.7834 41.8277 52.0788C42.0441 52.3743 42.3574 52.5845 42.7129 52.6726C43.0684 52.7608 43.4435 52.7215 43.773 52.5614C44.1024 52.4013 44.3652 52.1307 44.5156 51.7967C44.5643 51.711 44.5927 51.6152 44.5986 51.5167C44.6326 50.7557 44.6776 49.9937 44.6846 49.2327C44.7106 46.2077 44.7456 43.1837 44.7366 40.1597C44.7266 36.4727 44.6776 32.7857 44.6366 29.0987C44.6597 28.828 44.6256 28.5554 44.5366 28.2987C44.4101 28.017 44.2027 27.7792 43.9408 27.6156C43.6789 27.452 43.3742 27.3699 43.0656 27.3797C42.7658 27.3829 42.4726 27.4685 42.2183 27.6273C41.9639 27.7861 41.7582 28.0118 41.6236 28.2797C41.5864 28.3534 41.5655 28.4342 41.5626 28.5167C41.5306 29.2607 41.4816 30.0057 41.4796 30.7507C41.4706 33.8297 41.4756 36.9127 41.4756 39.9947H41.4736ZM59.7576 11.9277C59.6576 11.9627 59.5576 12.0067 59.4516 12.0277L19.3216 22.2277L18.9906 22.3127L18.9136 22.0127C18.6476 20.9937 18.4136 19.9667 18.1046 18.9587C17.9571 18.4584 17.9658 17.925 18.1296 17.4297C18.2801 16.9264 18.538 16.4617 18.8856 16.0677C19.2041 15.6995 19.6284 15.4383 20.1006 15.3197C23.1346 14.5197 26.1679 13.7167 29.2006 12.9107L29.4336 12.8517C29.4388 12.8109 29.4418 12.7698 29.4426 12.7287C29.438 12.1501 29.5532 11.5767 29.7807 11.0446C30.0081 10.5125 30.3431 10.0332 30.7646 9.63673C31.7074 8.6519 32.8352 7.8628 34.0836 7.31471C36.007 6.44694 38.0934 5.99933 40.2036 6.00172C41.3706 5.97893 42.5311 6.1827 43.6206 6.60173C44.5821 6.92056 45.3852 7.59495 45.8656 8.48674C45.9021 8.54825 45.9425 8.60735 45.9866 8.66371C46.7456 8.47171 47.5156 8.27172 48.2866 8.07972C50.2819 7.58372 52.2773 7.09007 54.2726 6.59874C54.6886 6.49874 55.1076 6.40873 55.5276 6.32573C55.9052 6.26395 56.2916 6.28413 56.6607 6.3849C57.0297 6.48566 57.3728 6.66464 57.6666 6.90971C57.9608 7.15295 58.2372 7.41697 58.4936 7.69972C58.5686 7.77272 58.6416 7.84773 58.7156 7.92173C59.0643 9.2604 59.4123 10.5957 59.7596 11.9277H59.7576Z" fill="#DA2B2B"/>
</g>
<defs>
<clipPath id="clip0">
<rect width="79.344" height="68.688" fill="white"/>
</clipPath>
</defs>
</svg>
