<svg width="20" height="21" viewBox="0 0 20 21" fill="none" xmlns="http://www.w3.org/2000/svg">
<g clip-path="url(#clip0)">
<path opacity="0.34" fill-rule="evenodd" clip-rule="evenodd" d="M20.0002 10.71C19.9824 8.83147 19.409 7.0002 18.3521 5.44702C17.1597 3.62074 15.4133 2.2248 13.3691 1.46405C12.7553 1.23055 12.1184 1.06294 11.4691 0.96405C11.1349 0.909761 10.7976 0.876326 10.4592 0.864014C10.4256 0.861434 10.3922 0.856781 10.3592 0.850037H9.64215C9.61845 0.856143 9.59442 0.860795 9.57016 0.864014C7.36057 0.968213 5.2512 1.81691 3.58514 3.27203C2.33549 4.32599 1.35912 5.66636 0.739166 7.17902C0.441123 7.89401 0.23221 8.64302 0.117157 9.40906C0.075157 9.69406 0.0561465 9.98204 0.0251465 10.269C0.0171465 10.346 0.00514062 10.422 -0.00585938 10.498V11.2141C0.00414062 11.2801 0.0201394 11.345 0.0241394 11.414C0.107988 12.8038 0.490334 14.1592 1.14514 15.388C2.38181 17.7273 4.46725 19.5043 6.97314 20.354C7.51728 20.5386 8.07734 20.6726 8.64615 20.754C9.18178 20.8353 9.7236 20.8687 10.2652 20.854C12.3543 20.7893 14.3679 20.0584 16.0121 18.768C17.563 17.5885 18.7429 15.989 19.4121 14.1591C19.648 13.5209 19.8156 12.8595 19.9121 12.186C19.9797 11.6971 20.0092 11.2036 20.0002 10.71ZM18.1782 11.35C18.1022 13.0407 17.4986 14.665 16.4521 15.9951C15.4605 17.2582 14.1041 18.1854 12.5671 18.651C12.0717 18.8055 11.5628 18.9127 11.0471 18.971C10.5203 19.0345 9.98876 19.0496 9.45917 19.0161C7.84898 18.9324 6.30029 18.3704 5.01114 17.402C3.61606 16.3574 2.60927 14.8773 2.15015 13.196C2.0175 12.7287 1.92681 12.2505 1.87915 11.767C1.84685 11.4634 1.83048 11.1583 1.83014 10.853C1.81619 9.50044 2.13525 8.1652 2.75916 6.96503C3.24771 6.01305 3.92653 5.17155 4.75357 4.49261C5.58061 3.81368 6.53823 3.31176 7.56714 3.01801C8.0531 2.87071 8.55206 2.77026 9.05716 2.71802C9.55522 2.66318 10.0571 2.65149 10.5572 2.68304C12.1599 2.76619 13.702 3.323 14.9882 4.28302C16.3876 5.32173 17.4004 6.79769 17.8661 8.47705C18.011 8.98106 18.1074 9.4977 18.1541 10.02C18.1963 10.4631 18.204 10.9088 18.1772 11.353L18.1782 11.35ZM11.9601 8.32904C11.937 8.32499 11.9136 8.32294 11.8902 8.323H11.8082C11.5626 8.3157 11.3168 8.33149 11.0742 8.37006C10.8082 8.42006 10.5342 8.46303 10.2692 8.50403L9.89816 8.56201L8.49814 8.79004L8.28915 8.82501L8.18915 8.84204L8.03915 8.867L7.77115 9.703H8.20816H8.34015C8.42631 9.70173 8.51247 9.70576 8.59814 9.71503C8.67324 9.72336 8.74216 9.76056 8.79031 9.81879C8.83846 9.87701 8.86205 9.95172 8.85614 10.027C8.83234 10.2682 8.78582 10.5066 8.71716 10.739C8.51716 11.439 8.31015 12.139 8.11215 12.827L7.83615 13.775C7.79715 13.912 7.75716 14.049 7.71716 14.187C7.59216 14.618 7.46216 15.0631 7.33716 15.5031C7.25422 15.7724 7.21438 16.0532 7.21915 16.335C7.22544 16.6935 7.37192 17.0353 7.62717 17.287C7.8762 17.5305 8.20216 17.6797 8.54916 17.709C8.62986 17.7178 8.71097 17.7222 8.79214 17.722C9.10962 17.7211 9.42361 17.6557 9.71515 17.53C10.0864 17.3666 10.4251 17.1376 10.7151 16.854C11.073 16.5084 11.3892 16.1221 11.6572 15.703C11.7382 15.579 11.8162 15.451 11.8922 15.328L11.9991 15.156L12.1352 14.939L11.3911 14.501L11.2602 14.701C11.2522 14.712 11.2461 14.7221 11.2401 14.7321L11.2101 14.775L11.0712 14.975C10.9632 15.128 10.8512 15.286 10.7372 15.437C10.6102 15.6108 10.4617 15.7678 10.2952 15.9041C10.2549 15.9362 10.2101 15.9621 10.1621 15.981H10.1572C10.1505 15.976 10.1448 15.9699 10.1402 15.963C10.1349 15.9569 10.1315 15.9495 10.1302 15.9415C10.129 15.9336 10.13 15.9254 10.1331 15.918L10.1661 15.769C10.2031 15.595 10.2392 15.431 10.2852 15.269C10.7582 13.621 11.2412 11.946 11.7082 10.326L12.1642 8.74603C12.1712 8.72203 12.1762 8.699 12.1822 8.677C12.1882 8.655 12.1821 8.65803 12.1891 8.64703L12.2592 8.37103L11.9762 8.33801L11.9601 8.32904ZM12.0002 4.16101C11.8014 4.07711 11.5879 4.03397 11.3722 4.03406C11.1588 4.03501 10.9479 4.07884 10.7518 4.16302C10.5558 4.24721 10.3787 4.37 10.2311 4.52405C10.0809 4.67523 9.96228 4.85477 9.88211 5.05225C9.80194 5.24972 9.76186 5.46114 9.76419 5.67426C9.76652 5.88737 9.8112 6.0979 9.89566 6.29358C9.98012 6.48925 10.1027 6.66616 10.2562 6.81403C10.4015 6.96029 10.5743 7.0765 10.7646 7.15594C10.9548 7.23539 11.1589 7.27653 11.3651 7.27704H11.3802C11.754 7.27553 12.1159 7.14481 12.4044 6.90704C12.693 6.66928 12.8905 6.33905 12.9634 5.97235C13.0364 5.60565 12.9804 5.22501 12.8048 4.8949C12.6293 4.56479 12.345 4.30553 12.0002 4.16101Z" fill="black"/>
</g>
<defs>
<clipPath id="clip0">
<rect width="20" height="20" fill="white" transform="translate(0 0.853027)"/>
</clipPath>
</defs>
</svg>
