<svg width="80" height="69" viewBox="0 0 80 69" fill="none" xmlns="http://www.w3.org/2000/svg">
<g clip-path="url(#clip0_3_549)">
<path opacity="0.8" fill-rule="evenodd" clip-rule="evenodd" d="M76.5931 27.62C78.3552 29.4131 79.3426 31.8265 79.3426 34.3405C79.3426 36.8545 78.3552 39.2679 76.5931 41.061L52.0641 65.897C51.1984 66.7789 50.1655 67.4796 49.0259 67.9578C47.8864 68.4361 46.6629 68.6824 45.4271 68.6824C44.1912 68.6824 42.9678 68.4361 41.8282 67.9578C40.6886 67.4796 39.6558 66.7789 38.79 65.897C37.0279 64.1039 36.0405 61.6905 36.0405 59.1765C36.0405 56.6625 37.0279 54.2491 38.79 52.456L63.3191 27.62C64.1848 26.738 65.2176 26.0374 66.3572 25.5592C67.4967 25.0809 68.7202 24.8346 69.9561 24.8346C71.1919 24.8346 72.4154 25.0809 73.5549 25.5592C74.6945 26.0374 75.7274 26.738 76.5931 27.62Z" fill="#F1F7FB"/>
<path opacity="0.8" fill-rule="evenodd" clip-rule="evenodd" d="M41.0982 2.785C42.8603 4.5779 43.8477 6.99117 43.8477 9.505C43.8477 12.0188 42.8603 14.4321 41.0982 16.225L15.9922 41.645C15.1265 42.527 14.0937 43.2276 12.9541 43.7058C11.8145 44.1841 10.591 44.4304 9.35516 44.4304C8.11931 44.4304 6.89586 44.1841 5.75629 43.7058C4.61672 43.2276 3.58391 42.527 2.7182 41.645C0.956128 39.8521 -0.03125 37.4388 -0.03125 34.925C-0.03125 32.4111 0.956128 29.9979 2.7182 28.205L27.8242 2.785C28.6899 1.90303 29.7227 1.20243 30.8623 0.724182C32.0019 0.245932 33.2253 -0.000396729 34.4612 -0.000396729C35.697 -0.000396729 36.9205 0.245932 38.0601 0.724182C39.1996 1.20243 40.2325 1.90303 41.0982 2.785Z" fill="#F3F7FB"/>
<path opacity="0.8" fill-rule="evenodd" clip-rule="evenodd" d="M63.6072 10.381C65.3693 12.174 66.3568 14.5875 66.3568 17.1015C66.3568 19.6155 65.3693 22.0289 63.6072 23.822L24.6502 63.269C23.7841 64.1504 22.751 64.8504 21.6114 65.3283C20.4718 65.8062 19.2484 66.0523 18.0127 66.0523C16.7769 66.0523 15.5535 65.8062 14.4139 65.3283C13.2743 64.8504 12.2413 64.1504 11.3752 63.269C9.61352 61.4757 8.62646 59.0624 8.62646 56.5485C8.62646 54.0347 9.61352 51.6213 11.3752 49.828L50.3312 10.381C51.1969 9.4987 52.2299 8.79786 53.3696 8.31943C54.5094 7.841 55.7331 7.5946 56.9692 7.5946C58.2053 7.5946 59.429 7.841 60.5687 8.31943C61.7085 8.79786 62.7414 9.4987 63.6072 10.381Z" fill="#F1F6FC"/>
<path d="M26.9305 29.8548C26.9305 28.195 27.2965 26.834 28.0285 25.7718C28.7605 24.6763 29.8253 23.4813 31.2228 22.1867C32.1878 21.2905 32.9032 20.5436 33.369 19.9461C33.8348 19.3154 34.0677 18.6515 34.0677 17.9544C34.0677 16.9917 33.6518 16.2282 32.82 15.6639C32.0214 15.0664 30.9733 14.7676 29.6756 14.7676C28.3446 14.7676 27.1301 15.083 26.0321 15.7137C24.9673 16.3444 24.1022 17.2241 23.4367 18.3527L16 14.3693C17.3642 12.0456 19.2941 10.2365 21.7897 8.94191C24.2852 7.6473 27.2965 7 30.8235 7C34.7831 7 37.9608 7.82988 40.3565 9.48963C42.7855 11.1162 44 13.4066 44 16.361C44 17.722 43.7671 18.9336 43.3012 19.9959C42.8354 21.0249 42.2698 21.9046 41.6043 22.6349C40.9721 23.332 40.1402 24.1286 39.1087 25.0249C37.9774 25.9876 37.1456 26.8174 36.6132 27.5145C36.0808 28.1784 35.8146 28.9585 35.8146 29.8548H26.9305ZM31.3726 43C29.7421 43 28.3945 42.5021 27.3298 41.5062C26.265 40.4772 25.7326 39.2324 25.7326 37.7718C25.7326 36.278 26.2484 35.0498 27.2799 34.0871C28.3446 33.1245 29.7089 32.6432 31.3726 32.6432C33.0362 32.6432 34.4005 33.1245 35.4652 34.0871C36.53 35.0498 37.0624 36.278 37.0624 37.7718C37.0624 39.2324 36.53 40.4772 35.4652 41.5062C34.4005 42.5021 33.0362 43 31.3726 43Z" fill="#257671"/>
<path d="M52.6364 38.332C52.6364 37.3638 52.8586 36.5698 53.303 35.9502C53.7475 35.3112 54.3939 34.6141 55.2424 33.8589C55.8283 33.3361 56.2626 32.9004 56.5455 32.5519C56.8283 32.184 56.9697 31.7967 56.9697 31.39C56.9697 30.8285 56.7172 30.3831 56.2121 30.0539C55.7273 29.7054 55.0909 29.5311 54.303 29.5311C53.4949 29.5311 52.7576 29.7151 52.0909 30.083C51.4444 30.4509 50.9192 30.964 50.5152 31.6224L46 29.2988C46.8283 27.9433 48 26.888 49.5152 26.1328C51.0303 25.3776 52.8586 25 55 25C57.404 25 59.3333 25.4841 60.7879 26.4523C62.2626 27.4011 63 28.7372 63 30.4606C63 31.2545 62.8586 31.9613 62.5758 32.5809C62.2929 33.1812 61.9495 33.6943 61.5455 34.1203C61.1616 34.527 60.6566 34.9917 60.0303 35.5145C59.3434 36.0761 58.8384 36.5602 58.5152 36.9668C58.1919 37.3541 58.0303 37.8091 58.0303 38.332H52.6364ZM55.3333 46C54.3434 46 53.5253 45.7095 52.8788 45.1286C52.2323 44.5284 51.9091 43.8022 51.9091 42.9502C51.9091 42.0788 52.2222 41.3624 52.8485 40.8008C53.4949 40.2393 54.3232 39.9585 55.3333 39.9585C56.3434 39.9585 57.1717 40.2393 57.8182 40.8008C58.4646 41.3624 58.7879 42.0788 58.7879 42.9502C58.7879 43.8022 58.4646 44.5284 57.8182 45.1286C57.1717 45.7095 56.3434 46 55.3333 46Z" fill="#155753"/>
<path d="M41.2941 54.888C41.2941 54.2425 41.4379 53.7132 41.7255 53.3001C42.0131 52.8741 42.4314 52.4094 42.9804 51.9059C43.3595 51.5574 43.6405 51.2669 43.8235 51.0346C44.0065 50.7893 44.098 50.5311 44.098 50.26C44.098 49.8857 43.9346 49.5888 43.6078 49.3693C43.2941 49.1369 42.8824 49.0207 42.3725 49.0207C41.8497 49.0207 41.3725 49.1434 40.9412 49.3887C40.5229 49.6339 40.183 49.976 39.9216 50.4149L37 48.8658C37.5359 47.9622 38.2941 47.2586 39.2745 46.7552C40.2549 46.2517 41.4379 46 42.8235 46C44.3791 46 45.6275 46.3227 46.5686 46.9682C47.5229 47.6007 48 48.4915 48 49.6404C48 50.1697 47.9085 50.6408 47.7255 51.0539C47.5425 51.4541 47.3203 51.7962 47.0588 52.0802C46.8105 52.3513 46.4837 52.6611 46.0784 53.0097C45.634 53.384 45.3072 53.7068 45.098 53.9779C44.8889 54.2361 44.7843 54.5394 44.7843 54.888H41.2941ZM43.0392 60C42.3987 60 41.8693 59.8064 41.451 59.4191C41.0327 59.0189 40.8235 58.5348 40.8235 57.9668C40.8235 57.3859 41.0261 56.9083 41.4314 56.5339C41.8497 56.1595 42.3856 55.9723 43.0392 55.9723C43.6928 55.9723 44.2288 56.1595 44.6471 56.5339C45.0654 56.9083 45.2745 57.3859 45.2745 57.9668C45.2745 58.5348 45.0654 59.0189 44.6471 59.4191C44.2288 59.8064 43.6928 60 43.0392 60Z" fill="#8E8E8E"/>
</g>
<defs>
<clipPath id="clip0_3_549">
<rect width="79.344" height="68.688" fill="white"/>
</clipPath>
</defs>
</svg>
