<?xml version="1.0" encoding="UTF-8"?>
<svg width="16px" height="16px" viewBox="0 0 20 20" version="1.1" xmlns="http://www.w3.org/2000/svg" xmlns:xlink="http://www.w3.org/1999/xlink">
    <!-- Generator: Sketch 56.3 (81716) - https://sketch.com -->
    <title>Artboard</title>
    <desc>Created with Sketch.</desc>
    <g id="Artboard" stroke="none" stroke-width="1" fill="none" fill-rule="evenodd">
        <g id="icon" transform="translate(1.000000, 1.000000)" fill="#FFFFFF">
            <path d="M1.26450195,11.0050116 C0.957766331,11.0050116 0.644770798,10.8870786 0.413154103,10.6574196 C-0.0563391959,10.1918945 -0.0563391959,9.4346405 0.413154103,8.96911548 L8.93915242,0.508974027 C9.40864572,0.0434490023 10.1723548,0.0434490023 10.6418481,0.508974027 C11.1113414,0.974499052 11.1113414,1.73175309 10.6418481,2.19727812 L2.1158498,10.6512126 C1.8779732,10.8870786 1.57123757,11.0050116 1.26450195,11.0050116 Z" id="Shape"></path>
            <path d="M7.95634645,17.6899509 C7.64961082,17.6899509 7.33661529,17.5720179 7.1049986,17.3423589 C6.6355053,16.8768339 6.6355053,16.1195799 7.1049986,15.6540548 L15.6309969,7.20012038 C16.1004902,6.73459536 16.8641993,6.73459536 17.3336926,7.20012038 C17.8031859,7.66564541 17.8031859,8.42289945 17.3336926,8.88842447 L8.80769429,17.3361519 C8.56981769,17.5720179 8.26308207,17.6899509 7.95634645,17.6899509 Z" id="Shape"></path>
            <path d="M14.6356711,17.7209859 C14.3289355,17.7209859 14.01594,17.6030529 13.7843233,17.3733939 C13.31483,16.9078689 13.31483,16.1506149 13.7843233,15.6850898 L15.6622965,13.8229897 C16.1317898,13.3574647 16.8954989,13.3574647 17.3649922,13.8229897 C17.8344855,14.2885148 17.8344855,15.0457688 17.3649922,15.5112938 L15.487019,17.3733939 C15.2554023,17.6030529 14.9486666,17.7209859 14.6356711,17.7209859 Z" id="Shape"></path>
            <path d="M1.20816276,4.40076323 C0.901427135,4.40076323 0.588431602,4.28283023 0.356814907,4.05317122 C-0.112678392,3.58764619 -0.112678392,2.83039215 0.356814907,2.36486713 L2.2347881,0.502767027 C2.7042814,0.037242002 3.4679905,0.037242002 3.9374838,0.502767027 C4.4069771,0.968292051 4.4069771,1.72554609 3.9374838,2.19107112 L2.05951061,4.05317122 C1.821634,4.28283023 1.51489838,4.40076323 1.20816276,4.40076323 Z" id="Shape"></path>
            <path d="M1.22694249,17.6961579 C0.920206867,17.6961579 0.607211334,17.5782249 0.375594639,17.3485659 C-0.0938986599,16.8830409 -0.0938986599,16.1257869 0.375594639,15.6602618 L12.2882046,3.8483402 C12.7576979,3.38281518 13.521407,3.38281518 13.9909003,3.8483402 C14.4603936,4.31386523 14.4603936,5.07111927 13.9909003,5.53664429 L2.07829034,17.3485659 C1.84667364,17.5844319 1.53367811,17.6961579 1.22694249,17.6961579 Z" id="Shape"></path>
            <path d="M15.7061158,3.32695218 C15.3993802,3.32695218 15.0863847,3.20901917 14.854768,2.97936016 C14.3852747,2.51383513 14.3852747,1.75658109 14.854768,1.29105607 L15.7812348,0.391041021 C16.2507281,-0.074484004 17.0144372,-0.074484004 17.4839305,0.391041021 C17.9534238,0.856566045 17.9534238,1.61382009 17.4839305,2.07934511 L16.5574637,2.97936016 C16.325847,3.20901917 16.0128515,3.32695218 15.7061158,3.32695218 Z" id="Shape"></path>
        </g>
    </g>
</svg>