<?xml version="1.0" encoding="UTF-8"?>
<svg xmlns="http://www.w3.org/2000/svg" xmlns:xlink="http://www.w3.org/1999/xlink" width="16pt" height="17pt" padding="0px" viewBox="0 0 18 17" version="1.1">
<g id="surface1">
<path style=" stroke:none;fill-rule:nonzero;fill:rgb(100%,100%,100%);fill-opacity:1;" d="M 15.789062 12.152344 C 15.492188 12.140625 15.195312 12.183594 14.914062 12.292969 C 14.363281 12.523438 13.050781 12.800781 11.84375 12.75 C 10.6875 12.699219 9.46875 12.355469 8.894531 12.066406 C 8.871094 12.054688 8.851562 12.042969 8.828125 12.03125 L 8.820312 12.027344 C 7.664062 11.464844 6.292969 11.996094 5.761719 13.210938 C 5.230469 14.425781 5.734375 15.871094 6.886719 16.429688 C 7.4375 16.699219 8.066406 16.726562 8.632812 16.507812 L 8.644531 16.503906 C 8.660156 16.496094 8.675781 16.488281 8.699219 16.480469 C 9.285156 16.234375 10.542969 16 11.703125 16.054688 C 12.910156 16.109375 14.191406 16.503906 14.722656 16.785156 C 15.878906 17.34375 17.242188 16.804688 17.773438 15.589844 C 18.304688 14.375 17.796875 12.9375 16.640625 12.378906 C 16.382812 12.238281 16.089844 12.164062 15.789062 12.152344 Z M 15.789062 12.152344 "/>
<path style=" stroke:none;fill-rule:nonzero;fill:rgb(100%,100%,100%);fill-opacity:1;" d="M 4.253906 15.4375 C 4.414062 15.167969 4.523438 14.878906 4.574219 14.5625 C 4.660156 13.949219 5.082031 12.613281 5.726562 11.539062 C 6.351562 10.515625 7.242188 9.574219 7.765625 9.195312 C 7.789062 9.183594 7.808594 9.167969 7.828125 9.15625 L 7.835938 9.148438 C 8.878906 8.375 9.121094 6.863281 8.382812 5.773438 C 7.648438 4.679688 6.210938 4.421875 5.175781 5.195312 C 4.679688 5.5625 4.34375 6.121094 4.238281 6.75 C 4.238281 6.753906 4.238281 6.761719 4.238281 6.765625 C 4.230469 6.78125 4.230469 6.804688 4.230469 6.824219 C 4.140625 7.484375 3.707031 8.738281 3.082031 9.777344 C 2.429688 10.851562 1.464844 11.820312 0.972656 12.167969 C -0.0664062 12.9375 -0.3125 14.457031 0.425781 15.546875 C 1.164062 16.636719 2.601562 16.898438 3.636719 16.121094 C 3.882812 15.9375 4.089844 15.703125 4.253906 15.4375 Z M 4.253906 15.4375 "/>
<path style=" stroke:none;fill-rule:nonzero;fill:rgb(100%,100%,100%);fill-opacity:1;" d="M 7.425781 3.632812 C 7.570312 3.90625 7.773438 4.148438 8.011719 4.335938 C 8.488281 4.699219 9.414062 5.714844 10.023438 6.816406 C 10.597656 7.871094 10.980469 9.140625 11.046875 9.804688 C 11.046875 9.835938 11.050781 9.859375 11.050781 9.878906 C 11.050781 9.886719 11.050781 9.886719 11.050781 9.890625 C 11.21875 11.222656 12.378906 12.152344 13.644531 11.96875 C 14.90625 11.792969 15.789062 10.570312 15.617188 9.242188 C 15.535156 8.609375 15.222656 8.039062 14.746094 7.648438 L 14.734375 7.636719 C 14.71875 7.628906 14.699219 7.617188 14.691406 7.605469 C 14.175781 7.214844 13.320312 6.222656 12.738281 5.164062 C 12.136719 4.0625 11.769531 2.710938 11.707031 2.089844 C 11.535156 0.765625 10.375 -0.164062 9.117188 0.0117188 C 7.859375 0.195312 6.976562 1.414062 7.144531 2.738281 C 7.179688 3.058594 7.277344 3.359375 7.425781 3.632812 Z M 7.425781 3.632812 "/>
</g>
</svg>
