<svg width="64" height="64" viewBox="0 0 64 64" fill="none" xmlns="http://www.w3.org/2000/svg">
<path d="M64 31.6206V55.249H23.6372C19.2268 55.2567 14.9031 54.0239 11.16 51.6912C10.5433 51.3058 9.95162 50.8991 9.37536 50.4578C8.51404 49.8054 7.69641 49.0972 6.92773 48.3378C3.62068 45.034 1.36809 40.8234 0.455041 36.2389C-0.458006 31.6544 0.00954008 26.902 1.79851 22.5833C3.58747 18.2646 6.61743 14.5737 10.5049 11.9778C14.3924 9.38183 18.9626 7.9975 23.6372 8H40.3697C43.4724 7.99899 46.5448 8.6092 49.4116 9.79577C52.2784 10.9823 54.8834 12.722 57.0777 14.9155C59.2721 17.1089 61.0128 19.7132 62.2006 22.5795C63.3883 25.4458 63.9997 28.518 64 31.6206V31.6206Z" fill="url(#paint0_linear)"/>
<path d="M44.2994 22.6607V40.5844C44.2994 42.7352 42.3721 44.4794 40.0189 44.4794H15.7103C13.3513 44.4794 11.4395 42.7448 11.4395 40.5844V22.6607C11.4395 20.5157 13.3513 18.7734 15.7103 18.7734H40.0189C42.3799 18.7734 44.2994 20.5253 44.2994 22.6607Z" fill="url(#paint1_linear)"/>
<path d="M53.2414 24.8785V38.3308C53.2414 39.4313 52.0734 40.1926 50.9787 39.8052L44.2988 37.4443V25.765L50.971 23.4022C52.0734 23.0167 53.2414 23.778 53.2414 24.8785Z" fill="url(#paint2_linear)"/>
<path d="M19.3061 28.4627L20.2081 30.2898C20.2247 30.3237 20.2494 30.353 20.28 30.3752C20.3105 30.3973 20.3461 30.4117 20.3835 30.417L22.3994 30.7099C22.4423 30.7163 22.4826 30.7345 22.5157 30.7625C22.5488 30.7905 22.5734 30.8272 22.5869 30.8684C22.6003 30.9097 22.6019 30.9539 22.5916 30.996C22.5813 31.0381 22.5595 31.0765 22.5285 31.1069L21.0696 32.5293C21.0422 32.555 21.0217 32.5872 21.0099 32.6228C20.9981 32.6585 20.9954 32.6966 21.0021 32.7335L21.3471 34.7437C21.3541 34.7864 21.3491 34.8301 21.3326 34.8701C21.3161 34.9101 21.2889 34.9447 21.2539 34.9701C21.2189 34.9954 21.1776 35.0106 21.1345 35.0139C21.0914 35.0171 21.0482 35.0083 21.0098 34.9885L19.2059 34.0402C19.1728 34.0222 19.1357 34.0127 19.098 34.0127C19.0603 34.0127 19.0232 34.0222 18.99 34.0402L17.1861 34.9807C17.1477 35.0006 17.1046 35.0094 17.0615 35.0061C17.0184 35.0029 16.977 34.9877 16.942 34.9623C16.907 34.937 16.8798 34.9023 16.8633 34.8624C16.8469 34.8224 16.8419 34.7786 16.8488 34.736L17.1938 32.7258C17.2001 32.6889 17.1973 32.6509 17.1855 32.6153C17.1738 32.5797 17.1535 32.5475 17.1264 32.5215L15.6674 31.0992C15.6365 31.0688 15.6146 31.0304 15.6043 30.9883C15.594 30.9461 15.5957 30.902 15.6091 30.8607C15.6225 30.8195 15.6472 30.7828 15.6803 30.7548C15.7134 30.7268 15.7537 30.7086 15.7966 30.7022L17.8202 30.417C17.8575 30.4114 17.8929 30.3969 17.9234 30.3748C17.9539 30.3526 17.9787 30.3235 17.9956 30.2898L18.8975 28.4627C18.9172 28.4256 18.9466 28.3946 18.9826 28.3729C19.0186 28.3513 19.0598 28.3398 19.1018 28.3398C19.1438 28.3398 19.185 28.3513 19.221 28.3729C19.257 28.3946 19.2864 28.4256 19.3061 28.4627V28.4627Z" fill="url(#paint3_linear)"/>
<path d="M36.5298 28.3572L35.6279 30.1843C35.6112 30.2182 35.5866 30.2475 35.556 30.2697C35.5254 30.2919 35.4899 30.3062 35.4525 30.3115L33.4365 30.6044C33.3936 30.6108 33.3534 30.629 33.3203 30.657C33.2871 30.685 33.2625 30.7217 33.2491 30.763C33.2357 30.8042 33.234 30.8484 33.2443 30.8905C33.2546 30.9326 33.2765 30.9711 33.3074 31.0015L34.7664 32.4238C34.7937 32.4495 34.8142 32.4817 34.826 32.5174C34.8378 32.553 34.8405 32.5911 34.8338 32.6281L34.4888 34.6382C34.4819 34.6809 34.4869 34.7246 34.5033 34.7646C34.5198 34.8046 34.547 34.8392 34.582 34.8646C34.617 34.89 34.6583 34.9051 34.7015 34.9084C34.7446 34.9116 34.7877 34.9028 34.8261 34.883L36.63 33.9348C36.6631 33.9167 36.7003 33.9073 36.738 33.9073C36.7757 33.9073 36.8128 33.9167 36.8459 33.9348L38.6498 34.8753C38.6882 34.8951 38.7314 34.9039 38.7745 34.9007C38.8176 34.8974 38.8589 34.8823 38.8939 34.8569C38.9289 34.8315 38.9561 34.7969 38.9726 34.7569C38.989 34.7169 38.9941 34.6732 38.9871 34.6305L38.6421 32.6204C38.6358 32.5834 38.6386 32.5454 38.6504 32.5098C38.6622 32.4742 38.6825 32.442 38.7096 32.4161L40.1685 30.9937C40.1994 30.9634 40.2213 30.9249 40.2316 30.8828C40.2419 30.8407 40.2403 30.7965 40.2268 30.7553C40.2134 30.714 40.1888 30.6773 40.1557 30.6493C40.1225 30.6213 40.0823 30.6031 40.0394 30.5967L38.0157 30.3115C37.9785 30.3059 37.9431 30.2914 37.9125 30.2693C37.882 30.2472 37.8573 30.218 37.8404 30.1843L36.9384 28.3572C36.9187 28.3201 36.8893 28.2891 36.8533 28.2675C36.8173 28.2458 36.7761 28.2344 36.7341 28.2344C36.6921 28.2344 36.6509 28.2458 36.6149 28.2675C36.5789 28.2891 36.5495 28.3201 36.5298 28.3572V28.3572Z" fill="url(#paint4_linear)"/>
<path d="M28.0737 28.3688L28.9757 30.1958C28.9925 30.2296 29.0173 30.2587 29.0478 30.2808C29.0783 30.303 29.1137 30.3175 29.151 30.323L31.1689 30.616C31.2116 30.6227 31.2517 30.6411 31.2845 30.6692C31.3174 30.6973 31.3418 30.734 31.355 30.7752C31.3682 30.8164 31.3697 30.8605 31.3593 30.9025C31.3489 30.9445 31.327 30.9827 31.2961 31.013L29.8371 32.4353C29.8104 32.4615 29.7904 32.4937 29.779 32.5293C29.7676 32.5649 29.7651 32.6028 29.7716 32.6396L30.1147 34.6498C30.121 34.6929 30.1151 34.7369 30.0976 34.7768C30.0802 34.8168 30.0519 34.851 30.016 34.8757C29.9801 34.9004 29.938 34.9145 29.8944 34.9165C29.8509 34.9184 29.8077 34.9082 29.7697 34.8868L27.9677 33.9386C27.9342 33.9206 27.8968 33.9111 27.8588 33.9111C27.8208 33.9111 27.7834 33.9206 27.7499 33.9386L25.9537 34.8868C25.9154 34.9069 25.8723 34.9159 25.8292 34.9127C25.7861 34.9096 25.7447 34.8944 25.7098 34.8689C25.6749 34.8434 25.6478 34.8086 25.6316 34.7685C25.6155 34.7285 25.6109 34.6846 25.6184 34.6421L25.9614 32.6319C25.968 32.5951 25.9654 32.5572 25.954 32.5216C25.9426 32.486 25.9226 32.4537 25.8959 32.4276L24.435 31.0053C24.4041 30.9749 24.3822 30.9365 24.3719 30.8944C24.3616 30.8522 24.3633 30.8081 24.3767 30.7668C24.3901 30.7256 24.4147 30.6889 24.4479 30.6609C24.481 30.6329 24.5212 30.6147 24.5641 30.6083L26.582 30.3153C26.6191 30.3099 26.6543 30.2955 26.6846 30.2733C26.7148 30.2511 26.7391 30.2219 26.7554 30.1881L27.6574 28.3611C27.6771 28.3223 27.7072 28.2899 27.7445 28.2675C27.7817 28.2451 27.8245 28.2336 27.868 28.2344C27.9114 28.2352 27.9538 28.2483 27.9902 28.272C28.0265 28.2958 28.0555 28.3293 28.0737 28.3688V28.3688Z" fill="#0363FD"/>
<defs>
<linearGradient id="paint0_linear" x1="7.42496" y1="50.8066" x2="60.9087" y2="19.9279" gradientUnits="userSpaceOnUse">
<stop stop-color="#0360FD"/>
<stop offset="1" stop-color="#01D2FD"/>
</linearGradient>
<linearGradient id="paint1_linear" x1="12.1005" y1="42.662" x2="43.6345" y2="20.5812" gradientUnits="userSpaceOnUse">
<stop stop-color="#E0E0E0"/>
<stop offset="1" stop-color="white"/>
</linearGradient>
<linearGradient id="paint2_linear" x1="44.2254" y1="31.5121" x2="53.2836" y2="31.5121" gradientUnits="userSpaceOnUse">
<stop stop-color="#E0E0E0"/>
<stop offset="1" stop-color="white"/>
</linearGradient>
<linearGradient id="paint3_linear" x1="15.5961" y1="31.6735" x2="22.5979" y2="31.6735" gradientUnits="userSpaceOnUse">
<stop stop-color="#01D2FD"/>
<stop offset="1" stop-color="#0360FD"/>
</linearGradient>
<linearGradient id="paint4_linear" x1="40.2398" y1="31.5681" x2="33.238" y2="31.5681" gradientUnits="userSpaceOnUse">
<stop stop-color="#01D2FD"/>
<stop offset="1" stop-color="#0360FD"/>
</linearGradient>
</defs>
</svg>
