<svg xmlns="http://www.w3.org/2000/svg" viewBox="0 0 97 50.9"><title>button</title><g id="Layer_2" data-name="Layer 2"><g id="Layer_1-2" data-name="Layer 1"><path d="M0,33.42a5,5,0,0,0,5.05,5H44.68V49.4a1.5,1.5,0,0,0,3,0V35.07a1.91,1.91,0,1,1,3.82,0v7.51a1.51,1.51,0,0,0,1.5,1.5h5.46a4,4,0,0,1,4,4V49.4a1.5,1.5,0,0,0,3,0V48a7,7,0,0,0-7-7h-4V38.47H92a5,5,0,0,0,5-5V5.05a5,5,0,0,0-5-5H5.05A5,5,0,0,0,0,5.05ZM5.05,3H92a2.05,2.05,0,0,1,2,2.05V33.42a2.05,2.05,0,0,1-2,2H61.22a14.46,14.46,0,1,0-23.26,0H5.05a2.05,2.05,0,0,1-2-2V5.05A2.05,2.05,0,0,1,5.05,3ZM49.59,30.16a4.91,4.91,0,0,0-4.91,4.91v.4H41.79a1.37,1.37,0,0,0-.31-.48,11.46,11.46,0,0,1,8.11-19.57h0a11.36,11.36,0,0,1,8.11,3.36A11.47,11.47,0,0,1,57.7,35a1.52,1.52,0,0,0-.31.48H54.5v-.4A4.91,4.91,0,0,0,49.59,30.16Z"/></g></g></svg>