<?xml version="1.0" encoding="utf-8"?>
<!-- Generator: Adobe Illustrator 25.4.1, SVG Export Plug-In . SVG Version: 6.00 Build 0)  -->
<svg version="1.1" id="Layer_1" xmlns="http://www.w3.org/2000/svg" xmlns:xlink="http://www.w3.org/1999/xlink" x="0px" y="0px"
	 width="739.4px" height="234.2px" viewBox="0 0 739.4 234.2" style="enable-background:new 0 0 739.4 234.2;" xml:space="preserve"
	>
<style type="text/css">
	.st0{fill:#635CFF;}
	.st1{fill:#222222;}
	.st2{fill:#FFFFFF;}
</style>
<path class="st0" d="M462.5,233.6h217.9c32.6,0,59-26.4,59-59V59c0-32.6-26.4-59-59-59H462.5c-32.6,0-59,26.4-59,59v115.5
	C403.5,207.1,429.9,233.6,462.5,233.6z"/>
<path class="st1" d="M67.6,102.7c-25-6.4-31.2-9.5-31.2-19v-0.4c0-7,6.4-12.6,18.6-12.6c9.9,0,19.9,3.5,30.4,9.7
	c2.5,1.4,5,2.3,8.1,2.3c8.3,0,14.9-6.4,14.9-14.7c0-6.2-3.5-10.6-7-12.6C88.3,47,73,42.5,55.4,42.5c-29.6,0-50.7,17.4-50.7,43.6v0.4
	c0,28.8,18.8,36.8,48,44.3c24.2,6.2,29.2,10.3,29.2,18.4v0.4c0,8.5-7.9,13.7-20.9,13.7c-14.1,0-26.1-5-37-13c-2.1-1.4-5-2.9-9.1-2.9
	C6.6,147.3,0,153.8,0,162c0,5,2.5,9.5,6,12c16.1,11.6,35.4,17.4,54.4,17.4c31.2,0,53.2-16.1,53.2-44.9v-0.4
	C113.6,120.9,97,110.3,67.6,102.7z M187.4,76.4c-32.3,0-54.8,26.1-54.8,57.7v0.4c0,33.9,24.6,57.3,57.9,57.3
	c16.1,0,28.8-5.2,38.5-13.4c2.3-2.1,4.1-5.2,4.1-9.3c0-7-5.2-12.4-12.2-12.4c-3.3,0-5.4,0.8-7.7,2.5c-6.4,4.8-13.7,7.4-22.3,7.4
	c-14.1,0-24-7.4-27.1-21.7h62.3c8.3,0,14.7-6,14.7-15.1C240.8,106.8,224.5,76.4,187.4,76.4z M163.4,125.2c2.5-14.3,11-23.6,24-23.6
	c13.2,0,21.5,9.5,23.4,23.6H163.4z M282,37.1c-8.7,0-15.7,7.1-15.7,15.8v122.9c0,8.8,7,15.8,15.7,15.8c8.7,0,15.7-7.1,15.7-15.8
	V52.9C297.7,44.2,290.7,37.1,282,37.1z M344.4,37.1c-8.7,0-15.7,7.1-15.7,15.8v122.9c0,8.8,7,15.8,15.7,15.8
	c8.7,0,15.7-7.1,15.7-15.8V52.9C360.2,44.2,353.1,37.1,344.4,37.1z"/>
<path class="st2" d="M587.3,78.3c-8.7,0-15.7,7-15.7,15.7V176c0,8.7,7,15.7,15.7,15.7s15.7-7,15.7-15.7V94.1
	C603,85.4,596,78.3,587.3,78.3z M683.1,164.4c-0.6,0-2.7,0.2-3.7,0.2c-7,0-10.1-3.5-10.1-10.8v-47.4h13.9c7.4,0,13.4-6,13.4-13.4
	c0-7.4-6-13.4-13.4-13.4h-13.9V65.7c0-8.7-7-15.7-15.7-15.7s-15.7,7-15.7,15.7v13.9h-1c-7.4,0-13.4,6-13.4,13.4
	c0,7.4,6,13.4,13.4,13.4h1V159c0,25.7,13,33.3,32.3,33.3c6.8,0,12.2-0.8,18-3.1c4.3-1.7,8.1-6.2,8.1-11.8
	C696.1,170.2,690.1,164.4,683.1,164.4z M514.9,127.4l24.8-21.3c4.3-4.1,7.2-8.3,7.2-13.7c0-7.2-5.4-14.1-13.9-14.1
	c-5.6,0-9.3,2.7-13.9,7l-39.3,37.2V52.8c0-8.7-7-15.7-15.7-15.7c-8.7,0-15.7,7-15.7,15.7V176c0,8.7,7,15.7,15.7,15.7
	c8.7,0,15.7-7,15.7-15.7v-18l12.6-11.4l27.5,37.9c3.7,5.2,7.4,7.2,13.7,7.2c7.9,0,14.7-5.8,14.7-14.3c0-3.5-1.2-6.4-3.9-10.1
	L514.9,127.4z M587.2,37.1c-8.7,0-15.8,7.1-15.8,15.8s7.1,15.8,15.8,15.8c8.7,0,15.8-7.1,15.8-15.8S596,37.1,587.2,37.1z"/>
</svg>
