<?xml version="1.0" encoding="utf-8"?>
<!-- Generator: Adobe Illustrator 25.4.1, SVG Export Plug-In . SVG Version: 6.00 Build 0)  -->
<svg version="1.1" id="Layer_1" xmlns="http://www.w3.org/2000/svg" xmlns:xlink="http://www.w3.org/1999/xlink" x="0px" y="0px"
	 width="20px" height="20px" viewBox="0 0 20 20" style="enable-background:new 0 0 20 20;" xml:space="preserve">
<style type="text/css">
	.st0{fill:#9CA2A8;}
</style>
<g>
	<g>
		<path class="st0" d="M16.5,3h-13C1.6,3,0,4.6,0,6.6v6.9C0,15.4,1.6,17,3.5,17h13c1.9,0,3.5-1.6,3.5-3.5V6.6C20,4.6,18.4,3,16.5,3z
			 M7.7,14.5c-0.4,0-0.6-0.1-0.8-0.4l-1.6-2.3l-0.8,0.7v1.1c0,0.5-0.4,0.9-0.9,0.9S2.7,14,2.7,13.5V6.2c0-0.5,0.4-0.9,0.9-0.9
			s0.9,0.4,0.9,0.9v4.2l2.3-2.2c0.3-0.3,0.5-0.4,0.8-0.4c0.5,0,0.8,0.4,0.8,0.8c0,0.3-0.2,0.6-0.4,0.8l-1.5,1.3L8.4,13
			c0.2,0.2,0.2,0.4,0.2,0.6C8.6,14.1,8.2,14.5,7.7,14.5z M11.9,13.5c0,0.5-0.4,0.9-0.9,0.9S10,14,10,13.5V8.6c0-0.5,0.4-0.9,0.9-0.9
			s0.9,0.4,0.9,0.9V13.5z M10.9,7.1c-0.5,0-0.9-0.4-0.9-0.9s0.4-0.9,0.9-0.9c0.5,0,0.9,0.4,0.9,0.9S11.5,7.1,10.9,7.1z M16.4,12.8
			c0.1,0,0.2,0,0.2,0c0.4,0,0.8,0.3,0.8,0.8c0,0.3-0.2,0.6-0.5,0.7c-0.3,0.1-0.7,0.2-1.1,0.2c-1.1,0-1.9-0.5-1.9-2V9.4h-0.1
			c-0.4,0-0.8-0.4-0.8-0.8c0-0.4,0.4-0.8,0.8-0.8H14V7C14,6.4,14.4,6,14.9,6s0.9,0.4,0.9,0.9v0.8h0.8c0.4,0,0.8,0.4,0.8,0.8
			s-0.4,0.8-0.8,0.8h-0.8v2.8C15.8,12.6,16,12.8,16.4,12.8z"/>
	</g>
</g>
</svg>
