<?xml version="1.0" encoding="utf-8"?>
<!-- Generator: Adobe Illustrator 23.0.3, SVG Export Plug-In . SVG Version: 6.00 Build 0)  -->
<svg version="1.1" id="Layer_1" xmlns="http://www.w3.org/2000/svg" xmlns:xlink="http://www.w3.org/1999/xlink" x="0px" y="0px"
	 viewBox="0 0 244.7 244.6" style="enable-background:new 0 0 244.7 244.6;" xml:space="preserve">
<style type="text/css">
	.st0{fill:#635CFF;}
	.st1{fill:#FFFFFF;}
</style>
<path class="st0" d="M188.1,244.6H56.5C25.3,244.6,0,219.3,0,188.1V56.5C0,25.3,25.3,0,56.5,0h131.7c31.2,0,56.5,25.3,56.5,56.5
	v131.7C244.6,219.3,219.3,244.6,188.1,244.6z"/>
<path class="st1" d="M172.6,87.6l-18.1,60.5H99.3L81.2,87.6H44.4v26.3h17.2l18.1,60.5H174l26-86.8H172.6z M127.1,92.1l17.6,15.4
	L162,87.7l-34.9-30.5L92.2,87.7l17.3,19.8L127.1,92.1z"/>
</svg>
