<?xml version="1.0" encoding="UTF-8"?>
<svg width="120px" height="43px" viewBox="0 0 120 43" version="1.1" xmlns="http://www.w3.org/2000/svg" xmlns:xlink="http://www.w3.org/1999/xlink">
    <title>Group 34</title>
    <defs>
        <polygon id="path-1" points="1.33746598e-14 0 9.96204063 0 9.96204063 9.9621464 1.33746598e-14 9.9621464"></polygon>
        <polygon id="path-3" points="0 42.9568048 120 42.9568048 120 0 0 0"></polygon>
    </defs>
    <g id="Symbols" stroke="none" stroke-width="1" fill="none" fill-rule="evenodd">
        <g id="Footer-IURNY" transform="translate(-121.000000, -22.000000)">
            <g id="Group-34" transform="translate(121.000000, 22.000000)">
                <g id="Group-33" transform="translate(0.000000, 0.000000)">
                    <path d="M63.3481696,18.2008078 C63.333464,17.7302288 63.2835827,17.2615321 63.1987608,16.7984824 C62.3517186,11.5127037 57.2494657,8.54687947 52.2354464,10.4103723 C50.9335895,10.900951 49.7466716,11.6542303 48.7484559,12.6232701 C48.5814004,12.0291641 48.4614027,11.539762 48.3061116,11.0609478 C48.1167036,10.4727241 47.7402404,10.0539087 47.1296641,9.8845003 C46.235564,9.62803474 45.5238133,10.0303798 45.5214604,10.8715398 C45.5026372,15.7969726 45.5049901,20.7227584 45.528519,25.6488971 C45.528519,26.6747593 46.324974,27.4347444 47.3367189,27.5878002 C48.3265818,27.7450913 49.2871512,27.1714555 49.6178506,26.2253564 C49.7289073,25.8631282 49.7810239,25.4852532 49.7719653,25.1065548 C49.7931413,22.8430697 49.7049077,20.5748789 49.8237289,18.3172761 C49.9966667,15.0232231 54.0236466,12.8656183 56.8141801,14.5291151 C58.3800318,15.4632144 59.0776651,16.9220094 59.0906061,18.7160918 C59.0906061,19.2987863 59.092606,19.8815984 59.0964883,20.4642929 L59.0964883,21.2254544 L59.0964883,25.126672 C59.089312,25.5054881 59.1461344,25.8830101 59.2647203,26.2430031 C59.6991824,27.3287465 60.9317464,27.8567361 62.0174899,27.4221564 C62.8130037,27.1036921 63.3382875,26.3374718 63.3481696,25.4806651 C63.3567577,24.1842199 63.3587577,22.8873042 63.3540519,21.5901531 C63.3716986,20.304296 63.362287,20.1748868 63.3481696,18.2008078" id="Fill-1" fill="#89DA3E"></path>
                    <path d="M25.0971432,9.99393345 C24.0419874,9.51111939 22.7951883,9.97522794 22.3123743,11.0305014 C22.1889649,11.3000255 22.1241427,11.5927256 22.1219074,11.8891904 C22.0936727,14.1350287 22.1360248,16.3820435 22.1054371,18.6278818 C22.0572028,22.1572244 18.1631615,24.5970589 15.1867493,22.9594439 C13.5397228,22.0548734 12.8056195,20.5713731 12.7797377,18.7396443 C12.7479736,16.5114527 12.7797377,14.2832611 12.7679732,12.056246 C12.7679732,11.0597949 12.2538656,10.2821631 11.416235,9.95981647 C9.97743966,9.40570969 8.53158566,10.4303955 8.51746828,12.0421286 C8.49864512,14.3232603 8.50570381,16.606745 8.52452697,18.8878767 C8.53452677,19.4670418 8.58758456,20.0447952 8.68334739,20.6160781 C9.21627811,23.9630713 11.6927001,26.7112527 14.8585204,27.38771 C17.7996392,28.0171095 20.359589,27.0947746 22.6324856,25.2301053 C22.7830709,25.1124605 22.9265975,24.9771691 23.1418874,24.7901139 C23.2312974,25.1605772 23.2971785,25.4546891 23.3771769,25.7440952 C23.5524676,26.3994941 23.7548166,27.0381875 24.4065685,27.3982981 C25.3900786,27.9406404 26.3571185,27.4853552 26.3606478,26.4324347 C26.3755887,21.5972353 26.3755887,16.7612125 26.3606478,11.9244838 C26.355942,11.0327366 25.9241858,10.3586322 25.0971432,9.99393345" id="Fill-3" fill="#89DA3E"></path>
                    <path d="M81.2501716,10.2762691 C80.0819592,9.23511304 78.3690516,9.65039901 77.7831807,11.1386051 C76.8173173,13.5973804 75.8738064,16.0655673 74.9173546,18.527872 C74.4867748,19.637262 74.0479598,20.7442991 73.5797337,21.9395698 C73.4750299,21.6960452 73.4092665,21.5513421 73.3515029,21.4031097 C72.6353993,19.5858513 71.9201192,17.767534 71.2056626,15.9479226 C70.5633223,14.313837 69.9350993,12.6738691 69.2704065,11.0503716 C68.866885,10.065685 67.9492559,9.57157703 66.9598635,9.73275034 C65.930472,9.90098233 65.2198976,10.6068508 65.1951404,11.6268308 C65.1924864,12.1137625 65.2956609,12.5954001 65.4976569,13.0385679 C67.2222113,16.8855513 68.9340601,20.7407698 70.752848,24.5442246 C71.2328386,25.5465579 71.2633086,26.3265426 70.752848,27.305347 C70.4430894,27.92757 69.9690986,28.4532068 69.382169,28.8253172 C68.8211212,29.2053097 68.4998333,29.1711927 67.6492618,29.321778 C66.7986902,29.4723633 65.7740044,29.5817729 65.7740044,30.7195153 C65.7740044,31.8570224 66.892806,32.8581793 68.644654,32.8581793 C71.3421305,32.8581793 73.2797396,31.6440854 74.3914825,29.1664869 C75.5546362,26.5783024 76.7137899,23.9842356 77.8690614,21.3842866 C79.1372718,18.5411659 80.4043058,15.6976922 81.6701633,12.8538656 C82.1242721,11.8350621 81.9701574,10.9197859 81.2501716,10.2762691" id="Fill-5" fill="#89DA3E"></path>
                    <path d="M41.0039489,10.1809651 C38.3098841,9.39980393 36.0628694,10.2986098 34.0711437,12.0879865 C33.9276171,12.2162193 33.7923256,12.3515108 33.6123292,12.5232721 C33.548801,12.3303347 33.5099782,12.2138664 33.4735084,12.0962216 C33.325276,11.6327013 33.2288073,11.1444756 33.0193996,10.7103665 C32.6795239,10.0153213 31.8951864,9.65791651 31.1476716,9.85744201 C30.5947413,10.0009686 30.4018039,10.3703731 30.4018039,11.3044725 L30.4018039,23.9065783 C30.4018039,24.4677438 30.3853336,25.0300857 30.4112155,25.5900747 C30.4348621,26.5307621 31.0953197,27.334864 32.013537,27.5406247 C33.380569,27.8559126 34.6346621,26.8935786 34.6464265,25.4818415 C34.6640733,23.2371797 34.6358385,20.9913413 34.6640733,18.7466795 C34.6711319,18.1870434 34.7546597,17.6309366 34.9123037,17.0937707 C35.5252328,15.0161644 37.1769652,13.8973628 39.3263348,14.0350072 C39.9399698,14.0852415 40.5563107,14.093006 41.1710045,14.0585361 C42.4545087,13.9620674 43.2709633,12.7867963 42.8592067,11.63976 C42.5462716,10.7821298 41.8039333,10.4127252 41.0039489,10.1809651" id="Fill-7" fill="#89DA3E"></path>
                    <path d="M4.68696692,5.28107292 C4.70990765,4.01627419 3.70322151,2.97229466 2.43842278,2.94935393 C2.40995275,2.94876571 2.38136507,2.94876571 2.35289504,2.94935393 C1.07174369,2.931119 0.0184702261,3.95498127 0.000235289504,5.23613262 C0,5.24954413 0,5.26295563 0,5.27636713 C0.0141173702,6.55516558 1.03645027,7.54102861 2.3470128,7.54102861 C3.67051626,7.54102861 4.674026,6.5704594 4.68696692,5.28107292 Z" id="Fill-9" fill="#89DA3E"></path>
                    <path d="M4.45755966,22.5290171 L4.45755966,20.7912864 C4.46461834,20.051301 4.45755966,20.2678849 4.45755966,19.7455422 L4.45755966,16.8832454 C4.45755966,15.2208074 4.46461834,13.5597812 4.44814808,11.8973432 C4.4363836,10.683367 3.52346032,9.81279583 2.33054254,9.81044293 C1.16703594,9.81044293 0.227054371,10.6597204 0.221172134,11.8408737 C0.221172134,12.3256877 0.221172134,12.7633262 0.214113449,13.1703771 C0.208231211,13.2502578 0.204701869,13.3327268 0.204701869,13.4186075 L0.204701869,23.5360562 C0.204701869,26.2418855 1.827023,27.6652693 4.06580263,27.6652693 C5.80223917,27.6652693 6.59634125,26.4995275 6.53634242,25.9288328 C6.39046293,24.4970961 4.45755966,25.0936727 4.45755966,22.5290171" id="Fill-11" fill="#89DA3E"></path>
                    <g id="Group-15" transform="translate(110.037901, 0.000000)">
                        <mask id="mask-2" fill="white">
                            <use xlink:href="#path-1"></use>
                        </mask>
                        <g id="Clip-14"></g>
                        <path d="M4.98331472,-1.23276406e-05 C2.23242749,-0.00130585675 0.00117711774,2.22782691 1.33746598e-14,4.97871414 C-0.00141106681,7.72971903 2.22760405,9.96085175 4.97872658,9.9621464 C7.72961382,9.96343993 9.96086418,7.73442482 9.96204063,4.98341993 L9.96204063,4.98341993 C9.95957009,2.23406208 7.73267258,0.00516460462 4.98331472,-1.23276406e-05" id="Fill-13" fill="#89DA3E" mask="url(#mask-2)"></path>
                    </g>
                    <path d="M107.596726,29.8711319 L100.648509,29.8711319 C94.8190937,29.8659556 90.0941276,25.1421658 90.0876571,19.3125154 L90.0876571,12.3633576 C90.0915394,6.53182487 94.8172114,1.80521166 100.648509,1.80003529 L106.268516,1.80003529 C107.185675,1.82438776 107.90919,2.58766691 107.884838,3.50470775 C107.861309,4.38751397 107.151323,5.09761769 106.268516,5.12114664 L100.648509,5.12114664 C96.6529401,5.12491128 93.4144154,8.36284779 93.4099449,12.3586518 L93.4099449,19.3078097 C93.4144154,23.3036137 96.6529401,26.5414325 100.648509,26.5453148 L107.596726,26.5453148 C111.59253,26.5414325 114.830819,23.3036137 114.835407,19.3078097 L114.835407,13.6914492 C114.834113,12.7747613 115.576216,12.0305406 116.493022,12.0291288 C117.409827,12.0279524 118.154048,12.7700555 118.155342,13.686861 L118.155342,13.6914492 L118.155342,19.3125154 C118.148872,25.1412247 113.425435,29.8646615 107.596726,29.8711319" id="Fill-16" fill="#FFFFFF"></path>
                    <path d="M2.87876708,36.9557813 C1.93172683,36.9557813 1.36350268,37.674473 1.36350268,38.6203369 C1.36350268,39.5662007 1.93172683,40.2957158 2.87876708,40.2957158 C3.82580734,40.2957158 4.38344346,39.5639654 4.38344346,38.6228074 C4.38344346,37.6816494 3.82580734,36.9557813 2.87876708,36.9557813 M3.05876355,41.1133468 C2.39242368,41.1366405 1.76184781,40.8118233 1.39409031,40.2557166 L1.3740907,40.2557166 L1.3740907,41.0039372 L0.456461638,41.0039372 L0.456461638,34.1251309 L1.39761965,34.1251309 L1.39761965,37.0063685 L1.41761926,37.0063685 C1.79302367,36.4682614 2.41618792,36.1581498 3.07170448,36.1828552 C4.45755966,36.1828552 5.35518911,37.241658 5.35518911,38.6345719 C5.35518911,40.0273681 4.46344189,41.1133468 3.05876355,41.1133468" id="Fill-18" fill="#FFFFFF"></path>
                    <path d="M10.7351189,36.2699006 L8.45163428,41.8321445 C8.12340542,42.6556577 7.73400129,42.9285936 7.20577636,42.9285936 C6.89872355,42.931417 6.59414129,42.8738887 6.30932335,42.7591851 L6.4987314,41.9815533 C6.65708123,42.0461403 6.82543087,42.0830807 6.9963687,42.0908453 C7.19636478,42.0908453 7.40577244,42.1108449 7.61518009,41.5333268 L7.84341091,40.9049862 L5.95050685,36.2580185 L6.9469579,36.2687241 L8.35869493,39.9462991 L9.74807945,36.2580185 L10.7351189,36.2699006 Z" id="Fill-20" fill="#FFFFFF"></path>
                    <mask id="mask-4" fill="white">
                        <use xlink:href="#path-3"></use>
                    </mask>
                    <g id="Clip-23"></g>
                    <path d="M13.8778005,41.0039019 L14.8534072,41.0039019 L14.8534072,36.2698771 L13.8778005,36.2698771 L13.8778005,41.0039019 Z M14.3650038,35.3016608 C14.0340415,35.2847199 13.7797598,35.0081371 13.7970399,34.6836729 C13.8142,34.3592086 14.096442,34.1099194 14.4274043,34.1267426 C14.7458865,34.1430952 14.9957282,34.4007372 14.9962088,34.713437 C14.9966882,35.0382542 14.7283663,35.3020137 14.3970441,35.3024843 C14.386364,35.3024843 14.3756839,35.302249 14.3650038,35.3016608 L14.3650038,35.3016608 Z" id="Fill-22" fill="#FFFFFF" mask="url(#mask-4)"></path>
                    <path d="M20.5443266,41.0039489 L19.5878747,41.0039489 L19.5878747,38.3616478 C19.5878747,37.5640164 19.4478775,36.9663811 18.6008353,36.9663811 C17.7137938,36.9663811 17.3843885,37.7133076 17.3843885,38.6203486 L17.3843885,41.0039489 L16.4279367,41.0039489 L16.4279367,36.2699241 L17.3832121,36.2699241 L17.3738005,37.0168506 L17.4032117,37.0168506 C17.6897943,36.4886257 18.248254,36.1655732 18.8490657,36.1805141 C20.1949217,36.1805141 20.5431501,37.0675555 20.5431501,38.2038862 L20.5443266,41.0039489 Z" id="Fill-24" fill="#FFFFFF" mask="url(#mask-4)"></path>
                    <path d="M24.2242309,36.9557813 C23.2830729,36.9557813 22.7183781,37.674473 22.7183781,38.6203369 C22.7183781,39.5662007 23.2771906,40.2957158 24.2242309,40.2957158 C25.1712712,40.2957158 25.7289073,39.5639654 25.7289073,38.6228074 C25.7289073,37.6816494 25.1712712,36.9557813 24.2242309,36.9557813 L24.2242309,36.9557813 Z M26.6465363,41.0039372 L25.7289073,41.0039372 L25.7289073,40.246305 L25.7089077,40.246305 C25.3419737,40.8044117 24.711986,41.1325229 24.0442344,41.1133468 C22.6383796,41.1133468 21.7419266,40.0367797 21.7419266,38.6309249 C21.7419266,37.2251877 22.6383796,36.1792083 24.0242348,36.1792083 C24.792455,36.1792083 25.3500912,36.5180251 25.6794965,37.0027215 L25.6994961,37.0027215 L25.6994961,34.1251309 L26.6465363,34.1251309 L26.6465363,41.0039372 Z" id="Fill-25" fill="#FFFFFF" mask="url(#mask-4)"></path>
                    <path d="M28.2939884,41.0039019 L29.2695951,41.0039019 L29.2695951,36.2698771 L28.2939884,36.2698771 L28.2939884,41.0039019 Z M28.7811917,35.3016608 C28.4502295,35.2847199 28.1959477,35.0081371 28.2132278,34.6836729 C28.2303879,34.3592086 28.5126299,34.1099194 28.8435922,34.1267426 C29.1620744,34.1430952 29.4119161,34.4007372 29.4123968,34.713437 C29.4128761,35.0382542 29.1445543,35.3020137 28.813232,35.3024843 C28.8025519,35.3024843 28.7918718,35.302249 28.7811917,35.3016608 L28.7811917,35.3016608 Z" id="Fill-26" fill="#FFFFFF" mask="url(#mask-4)"></path>
                    <path d="M33.0076116,36.9475108 C32.0405718,36.9475108 31.5017588,37.6651438 31.5017588,38.5627733 C31.5017588,39.4604027 32.0405718,40.1674477 33.0076116,40.1674477 C33.9746515,40.1674477 34.512288,39.4615792 34.512288,38.5627733 C34.512288,37.6639674 33.9840631,36.9463344 33.0076116,36.9463344 L33.0076116,36.9475108 Z M35.4299171,40.0062744 C35.4299171,41.0533127 35.2605086,41.6310661 34.9111037,42.0497637 C34.5616988,42.468579 33.9699457,42.9568048 32.7934982,42.9568048 C32.0310425,42.9496284 31.2902335,42.7026921 30.6758926,42.2509363 L31.1241191,41.5827141 C31.6145801,41.9501186 32.205745,42.1587028 32.8182036,42.1803494 C33.5240721,42.1803494 33.9252407,41.9015313 34.1122958,41.6627125 C34.299351,41.4238936 34.4711123,40.9850787 34.4711123,40.3369738 L34.4711123,40.1016843 L34.4511127,40.1016843 C34.1322954,40.5803808 33.5934825,40.9499029 32.7958511,40.9499029 C31.5805808,40.9499029 30.5135429,40.0722731 30.5135429,38.5675967 C30.5135429,37.0628027 31.5805808,36.1852905 32.7958511,36.1852905 C33.6193643,36.1852905 34.1722947,36.5839885 34.4511127,37.021627 L34.4805239,37.021627 L34.4711123,36.2745829 L35.4122703,36.2745829 L35.4299171,40.0062744 Z" id="Fill-27" fill="#FFFFFF" mask="url(#mask-4)"></path>
                    <path d="M37.0373491,41.0039019 L38.0130021,41.0039019 L38.0130021,36.2698771 L37.0373491,36.2698771 L37.0373491,41.0039019 Z M37.5257756,35.3016608 C37.1947977,35.2854258 36.9399038,35.0091959 36.9565847,34.6848493 C36.9730256,34.3603851 37.2548009,34.1105076 37.5857789,34.126625 C37.9047562,34.1422717 38.1554499,34.4003843 38.1558105,34.713437 C38.1562899,35.0382542 37.8879553,35.3020137 37.5566173,35.3024843 C37.5462968,35.3024843 37.5360962,35.302249 37.5257756,35.3016608 L37.5257756,35.3016608 Z" id="Fill-28" fill="#FFFFFF" mask="url(#mask-4)"></path>
                    <path d="M41.8909316,40.9532911 C41.6139958,41.0598773 41.319531,41.1141115 41.0227133,41.1132972 C40.525076,41.1132972 40.2156703,40.9238799 40.0168506,40.6250623 C39.818031,40.3262446 39.7815611,39.9568401 39.7815611,39.2133252 L39.7815611,37.0463089 L39.0839278,37.0463089 L39.0839278,36.2782063 L39.7815611,36.2782063 L39.7815611,34.8581165 L40.7391894,34.8581165 L40.7391894,36.2698535 L41.8756377,36.2698535 L41.8756377,37.0381914 L40.7391894,37.0381914 L40.7391894,39.1815611 C40.7391894,39.5792004 40.748601,39.8486069 40.8568342,40.0487206 C40.9474206,40.1980118 41.0768299,40.2840101 41.3462363,40.2840101 C41.5150566,40.2835395 41.6816415,40.2461285 41.8344621,40.1744829 L41.8909316,40.9532911 Z" id="Fill-29" fill="#FFFFFF" mask="url(#mask-4)"></path>
                    <path d="M45.664987,38.731017 L44.5579498,38.8004274 C43.7909061,38.8404267 43.4815004,39.1697143 43.4815004,39.6180585 C43.4815004,40.066285 43.8344346,40.4415717 44.4591283,40.4415717 C45.0838219,40.4415717 45.4849905,40.0226388 45.664987,39.7532323 L45.664987,38.731017 Z M46.606145,41.0039136 L45.6791043,41.0039136 L45.6685163,40.4049842 C45.2973471,40.8529754 44.7455932,41.1117939 44.1638399,41.1108553 C43.2862101,41.1108553 42.5285779,40.5627458 42.5285779,39.6451168 C42.5285779,38.7274877 43.2862101,38.24985 44.3826592,38.2004392 L45.6485167,38.149852 L45.6485167,37.9604439 C45.6485167,37.2428109 45.160291,36.8839944 44.4720692,36.8839944 C43.9699614,36.8951707 43.4791475,37.0357562 43.0473912,37.2922217 L42.7579851,36.6545872 C43.2990334,36.3468285 43.9097273,36.1824788 44.532068,36.1769495 C45.3202878,36.1769495 45.7779259,36.3957687 46.0979196,36.714586 C46.4179134,37.0334033 46.606145,37.442807 46.606145,38.24985 L46.606145,41.0039136 Z" id="Fill-30" fill="#FFFFFF" mask="url(#mask-4)"></path>
                    <polygon id="Fill-31" fill="#FFFFFF" mask="url(#mask-4)" points="48.1214094 41.0039019 49.0684496 41.0039019 49.0684496 34.1250956 48.1214094 34.1250956"></polygon>
                    <polygon id="Fill-32" fill="#FFFFFF" mask="url(#mask-4)" points="50.7237113 41.0039019 51.6707516 41.0039019 51.6707516 34.1250956 50.7237113 34.1250956"></polygon>
                </g>
            </g>
        </g>
    </g>
</svg>