<svg width="32" height="32" viewBox="0 0 32 32" fill="none" xmlns="http://www.w3.org/2000/svg">
<path d="M14.8559 26.8561C14.8559 28.1208 13.835 29.1417 12.5703 29.1417C11.3056 29.1417 10.2847 28.1208 10.2847 26.8561C10.2847 25.5914 11.3056 24.5705 12.5703 24.5705C13.835 24.5705 14.8559 25.5914 14.8559 26.8561ZM24.7602 26.8561C24.7602 28.1208 23.7393 29.1417 22.4746 29.1417C21.2099 29.1417 20.189 28.1208 20.189 26.8561C20.189 25.5914 21.2099 24.5705 22.4746 24.5705C23.7393 24.5705 24.7602 25.5914 24.7602 26.8561ZM29.3009 9.98829L26.2535 22.1782C26.1921 22.4266 26.0491 22.6472 25.8474 22.8047C25.6457 22.9621 25.397 23.0474 25.1411 23.0467H9.90377C9.35522 23.0467 8.88286 22.6505 8.7762 22.102L5.89634 6.28561H3.80882C3.18409 6.28561 2.66602 5.76754 2.66602 5.1428C2.66602 4.51807 3.18409 4 3.80882 4H6.85629C7.40484 4 7.8772 4.39617 7.98386 4.94472L8.63907 8.57121H28.1886C28.3619 8.57194 28.5328 8.61185 28.6884 8.68796C28.8441 8.76407 28.9805 8.87441 29.0875 9.01071C29.1945 9.14702 29.2693 9.30576 29.3062 9.47505C29.3432 9.64434 29.3414 9.8198 29.3009 9.98829ZM26.7258 10.8568H9.05048L10.8485 20.7611H24.2421L26.7106 10.8568H26.7258Z" fill="#212121"/>
<path d="M16.4718 13.5288C16.4099 13.4668 16.3363 13.4177 16.2553 13.3841C16.1744 13.3506 16.0876 13.3333 16 13.3333C15.9124 13.3333 15.8256 13.3506 15.7446 13.3841C15.6637 13.4177 15.5901 13.4668 15.5281 13.5288C15.4662 13.5907 15.417 13.6643 15.3835 13.7453C15.3499 13.8262 15.3327 13.913 15.3327 14.0006C15.3327 14.0883 15.3499 14.175 15.3835 14.256C15.417 14.337 15.4662 14.4105 15.5281 14.4725L17.057 16L15.5281 17.5275C15.4662 17.5895 15.417 17.663 15.3835 17.744C15.3499 17.825 15.3327 17.9117 15.3327 17.9994C15.3327 18.087 15.3499 18.1738 15.3835 18.2547C15.417 18.3357 15.4662 18.4093 15.5281 18.4712C15.5901 18.5332 15.6637 18.5823 15.7446 18.6159C15.8256 18.6494 15.9124 18.6667 16 18.6667C16.0876 18.6667 16.1744 18.6494 16.2553 18.6159C16.3363 18.5823 16.4099 18.5332 16.4718 18.4712L17.9994 16.9424L19.5269 18.4712C19.652 18.5964 19.8217 18.6667 19.9987 18.6667C20.1757 18.6667 20.3454 18.5964 20.4706 18.4712C20.5957 18.3461 20.666 18.1763 20.666 17.9994C20.666 17.8224 20.5957 17.6527 20.4706 17.5275L18.9417 16L20.4706 14.4725C20.5957 14.3473 20.666 14.1776 20.666 14.0006C20.666 13.8237 20.5957 13.6539 20.4706 13.5288C20.3454 13.4036 20.1757 13.3333 19.9987 13.3333C19.8217 13.3333 19.652 13.4036 19.5269 13.5288L17.9994 15.0576L16.4718 13.5288Z" fill="#212121"/>
</svg>
