<svg width="32" height="32" viewBox="0 0 98 98" fill="none" xmlns="http://www.w3.org/2000/svg">
<path fill-rule="evenodd" clip-rule="evenodd" d="M26.1516 34.3148C23.1944 32.5723 20.9803 30.4383 19.6931 28.7776C19.5853 28.6384 19.4839 28.5027 19.3892 28.3707C19.7811 28.0714 20.1691 27.7867 20.5533 27.5161C23.2839 25.5936 25.824 24.3863 28.1934 23.7297C33.2517 22.3279 37.5319 23.4364 41.2263 25.4559C42.432 26.1151 43.5752 26.8712 44.6628 27.6689C45.8468 28.5372 46.9647 29.4546 48.0252 30.3495C48.1093 30.4205 48.193 30.4912 48.2763 30.5619C48.5434 30.7882 48.8069 31.0127 49.0669 31.2342C49.2086 31.355 49.3494 31.475 49.4891 31.5938C49.5225 31.471 49.5562 31.3474 49.5905 31.223L49.6187 31.1211C49.9312 29.9941 50.2884 28.8066 50.728 27.6118C51.4061 25.7692 52.2803 23.9091 53.4893 22.2263C55.913 18.8528 59.6822 16.1918 65.9136 15.8131C68.5362 15.6537 71.595 15.8986 75.1732 16.6648C75.4187 16.7174 75.6669 16.7725 75.9173 16.8299L75.8749 16.9405C75.0059 19.2029 74.0965 21.5702 72.7767 23.8386C72.3715 24.5351 71.9277 25.2221 71.4344 25.8939C71.0515 26.4155 70.6387 26.928 70.1911 27.4287C68.5931 29.2157 66.5517 30.8506 63.8387 32.2077C64.5966 32.2105 65.3481 32.2547 66.0896 32.3392C68.9395 32.6637 71.6428 33.5823 74.0025 35.0179L74.9159 35.7877C75.0054 35.8619 75.095 35.9368 75.1846 36.0123L75.1848 36.0124C79.5929 39.7276 81.6453 44.5712 81.6453 50.1965C81.6456 53.6891 80.8547 57.4832 79.3452 61.4958C77.4083 66.6441 74.4344 71.5358 71.1603 75.4244C68.7156 78.3279 66.4133 80.3095 64.6107 81.4811C45.5925 78.9088 35.6085 72.2143 30.9725 66.0301C28.29 62.4519 27.0979 58.6856 27.0283 55.1258C27.0257 54.9962 27.0247 54.8671 27.0252 54.7381C27.0334 52.1316 27.6414 49.6445 28.703 47.4338C28.7409 47.3551 28.7789 47.2766 28.8172 47.1983L29.6793 45.403C31.6535 42.1228 34.5454 39.3645 37.7488 37.5071C33.6541 37.5456 30.0535 36.4134 27.1038 34.8477C26.7785 34.675 26.4609 34.4971 26.1516 34.3148ZM20.4593 42.2538C20.4322 42.2368 20.4052 42.2197 20.3782 42.2026C16.2922 39.6126 13.2917 36.5114 11.5691 34.1112L6 26.3513L13.5655 20.5723C22.6884 13.6036 31.6286 11.9515 39.9078 14.3797C41.9121 14.9676 43.7888 15.7813 45.5181 16.7046C46.6679 15.0687 48.053 13.4786 49.7309 12.0422C56.6328 6.13359 66.1738 4.57055 78.0573 7.29992L88.9808 9.8088L84.9244 20.3688L84.882 20.4794L84.7535 20.8144L84.7531 20.8155C83.9448 22.9233 82.9391 25.5463 81.3966 28.2907C81.3667 28.344 81.3366 28.3972 81.3062 28.4505C81.3278 28.4686 81.3492 28.4867 81.3708 28.5048L81.3715 28.5053L81.3708 28.5067C88.2556 34.3092 91.0952 41.6621 91.28 49.2997C91.2897 49.7017 91.2921 50.1044 91.2874 50.5078C91.0761 68.2556 77.0221 87.1719 66.3933 91.5389C30.8756 87.6765 17.3957 70.3801 17.3628 54.8544L17.3627 54.7662C17.3678 50.6824 18.3027 46.7233 20.0112 43.1659L20.0107 43.1654L20.0112 43.164C20.1581 42.8583 20.3074 42.5549 20.4593 42.2538Z" fill="#21105d"/>
<path d="M61.357 65.027C61.5359 58.3764 60.0134 48.3728 53.5521 42.3502C52.2398 41.1268 51.7413 39.2218 52.5443 37.7377C53.3836 36.1863 55.2432 35.6696 56.5124 36.6871C63.3447 42.1647 68.1712 53.3871 67.2594 66.005C67.1448 67.5905 65.682 68.7114 64.0746 68.4828C62.4668 68.2543 61.3111 66.7322 61.357 65.027Z" fill="#21105d" stroke="#21105d"/>
</svg>
