<svg xmlns="http://www.w3.org/2000/svg" xmlns:xlink="http://www.w3.org/1999/xlink" viewBox="0 0 644.02 589.98"><defs><style>.cls-1{fill:none;clip-rule:evenodd;}.cls-2{clip-path:url(#clip-path);}.cls-3{fill:#9EA3A8;}.cls-4{clip-path:url(#clip-path-2);}.cls-5{clip-path:url(#clip-path-3);}</style><clipPath id="clip-path" transform="translate(10.13 1.49)"><path class="cls-1" d="M612.87,271.94c15.85-29.32,11-35.24-16.19-81.57-14.29-24.33-25.15-42.75-39.4-67.05q-18.94-32.1-37.75-64.2C484-1.49,489.7,1.83,419.42,1.32Q382.22,1,345,.73C316.78.54,295.39.35,267.17.13c-53.72-.4-61.26-1.62-78.73,26.77a14.31,14.31,0,0,0-1.32,4.7c-.06,6.47,20.62,39.95,24.15,46q15.6,26.49,31.17,53c9.13.12,18.28.19,27.39.23q37.28.34,74.47.59c70.26.55,64.5-2.77,100.11,57.8q18.85,32.06,37.75,64.2c4.59,7.86,9.23,15.76,13.89,23.6l61.46.51c7,0,46.37,1.18,52-2.1a14.72,14.72,0,0,0,3.41-3.5"/></clipPath><clipPath id="clip-path-2" transform="translate(10.13 1.49)"><path class="cls-1" d="M633.88,285.18l-25,43.31L586.65,367c-37.28,64.57-30.64,62.51-105.51,61.94-31.08-.21-54.61-.42-85.66-.67q-41-.3-82-.64c-77.33-.59-71,3.06-110.19-63.62q-20.79-35.29-41.55-70.69c-15.74-26.76-27.69-47-43.41-73.84C80.46,155,82,161.71,119.23,97.13l22.23-38.5,25-43.31c-19.21,34.69-14.41,40.1,16.35,92.47,15.75,26.77,27.67,47.09,43.41,73.85Q247,217,267.78,252.33C307,319,300.64,315.36,378,315.94q41,.38,82,.64c31.05.26,54.61.42,85.66.67,60.73.46,67.82,1.91,88.26-32.07"/></clipPath><clipPath id="clip-path-3" transform="translate(10.13 1.49)"><path class="cls-1" d="M543.29,442.1l-25,43.3-22.23,38.51c-37.28,64.57-30.64,62.51-105.5,61.94-31.08-.21-54.61-.42-85.66-.67q-41-.3-82-.64c-77.33-.59-71,3.06-110.18-63.62q-20.8-35.29-41.55-70.68c-15.75-26.77-27.69-47-43.41-73.85-37.88-64.52-36.39-57.77.89-122.34l22.23-38.51,25-43.31c-19.2,34.69-14.4,40.1,16.36,92.47,15.75,26.77,27.66,47.09,43.41,73.85q20.76,35.37,41.55,70.69c39.18,66.68,32.85,63,110.19,63.62q41,.36,82,.64c31.05.25,54.61.41,85.66.66,60.73.46,67.82,1.91,88.26-32.06"/></clipPath></defs><title>Asset 4</title><g id="Layer_2" data-name="Layer 2"><g id="Layer_1-2" data-name="Layer 1"><g class="cls-2"><rect class="cls-3" x="197.2" width="441.66" height="280.22"/></g><g class="cls-4"><rect class="cls-3" x="90.59" y="16.81" width="553.42" height="416.25"/></g><g class="cls-5"><rect class="cls-3" y="173.73" width="553.42" height="416.25"/></g></g></g></svg>