<svg width="12" height="7" viewBox="0 0 12 7" fill="none" xmlns="http://www.w3.org/2000/svg">
<path fill-rule="evenodd" clip-rule="evenodd" d="M6.40833 3.87524H1.1875C0.946 3.87524 0.75 3.67924 0.75 3.43774C0.75 3.19624 0.946 3.00024 1.1875 3.00024H6.40833C6.64983 3.00024 6.84583 3.19624 6.84583 3.43774C6.84583 3.67924 6.64983 3.87524 6.40833 3.87524" fill="#6F39FD"/>
<mask id="mask0_33625_127" style="mask-type:alpha" maskUnits="userSpaceOnUse" x="5" y="0" width="7" height="7">
<path fill-rule="evenodd" clip-rule="evenodd" d="M5.9707 0.0834961H11.4756V6.79241H5.9707V0.0834961Z" fill="white"/>
</mask>
<g mask="url(#mask0_33625_127)">
<path fill-rule="evenodd" clip-rule="evenodd" d="M6.8457 1.31339V5.56181L10.2174 3.43789L6.8457 1.31339ZM6.4082 6.79264C6.33529 6.79264 6.26295 6.77397 6.19704 6.73781C6.05704 6.66081 5.9707 6.51439 5.9707 6.35514V0.520639C5.9707 0.360805 6.05704 0.214389 6.19704 0.137389C6.33645 0.0609719 6.50737 0.0656386 6.64095 0.150222L11.2715 3.06747C11.3992 3.14797 11.4756 3.28739 11.4756 3.43789C11.4756 3.58781 11.3992 3.72781 11.2715 3.80772L6.64095 6.72497C6.57037 6.76989 6.48929 6.79264 6.4082 6.79264V6.79264Z" fill="#6F39FD"/>
</g>
</svg>
