<svg width="20" height="20" viewBox="0 0 20 20" fill="none" xmlns="http://www.w3.org/2000/svg">
<path d="M9.99984 1.66663C12.264 1.66663 12.5465 1.67496 13.4348 1.71663C14.3223 1.75829 14.9265 1.89746 15.4582 2.10413C16.0082 2.31579 16.4715 2.60246 16.9348 3.06496C17.3586 3.48154 17.6865 3.98545 17.8957 4.54163C18.1015 5.07246 18.2415 5.67746 18.2832 6.56496C18.3223 7.45329 18.3332 7.73579 18.3332 9.99996C18.3332 12.2641 18.3248 12.5466 18.2832 13.435C18.2415 14.3225 18.1015 14.9266 17.8957 15.4583C17.6871 16.0148 17.3591 16.5188 16.9348 16.935C16.5181 17.3586 16.0143 17.6864 15.4582 17.8958C14.9273 18.1016 14.3223 18.2416 13.4348 18.2833C12.5465 18.3225 12.264 18.3333 9.99984 18.3333C7.73567 18.3333 7.45317 18.325 6.56484 18.2833C5.67734 18.2416 5.07317 18.1016 4.5415 17.8958C3.98511 17.687 3.48111 17.3591 3.06484 16.935C2.64101 16.5184 2.31311 16.0145 2.104 15.4583C1.89734 14.9275 1.75817 14.3225 1.7165 13.435C1.67734 12.5466 1.6665 12.2641 1.6665 9.99996C1.6665 7.73579 1.67484 7.45329 1.7165 6.56496C1.75817 5.67663 1.89734 5.07329 2.104 4.54163C2.31253 3.98511 2.64051 3.48106 3.06484 3.06496C3.48123 2.64099 3.98519 2.31307 4.5415 2.10413C5.07317 1.89746 5.6765 1.75829 6.56484 1.71663C7.45317 1.67746 7.73567 1.66663 9.99984 1.66663ZM9.99984 5.83329C8.89477 5.83329 7.83496 6.27228 7.05356 7.05368C6.27216 7.83508 5.83317 8.89489 5.83317 9.99996C5.83317 11.105 6.27216 12.1648 7.05356 12.9462C7.83496 13.7276 8.89477 14.1666 9.99984 14.1666C11.1049 14.1666 12.1647 13.7276 12.9461 12.9462C13.7275 12.1648 14.1665 11.105 14.1665 9.99996C14.1665 8.89489 13.7275 7.83508 12.9461 7.05368C12.1647 6.27228 11.1049 5.83329 9.99984 5.83329ZM15.4165 5.62496C15.4165 5.34869 15.3068 5.08374 15.1114 4.88839C14.9161 4.69304 14.6511 4.58329 14.3748 4.58329C14.0986 4.58329 13.8336 4.69304 13.6383 4.88839C13.4429 5.08374 13.3332 5.34869 13.3332 5.62496C13.3332 5.90123 13.4429 6.16618 13.6383 6.36153C13.8336 6.55688 14.0986 6.66663 14.3748 6.66663C14.6511 6.66663 14.9161 6.55688 15.1114 6.36153C15.3068 6.16618 15.4165 5.90123 15.4165 5.62496ZM9.99984 7.49996C10.6629 7.49996 11.2988 7.76335 11.7676 8.23219C12.2364 8.70103 12.4998 9.33692 12.4998 9.99996C12.4998 10.663 12.2364 11.2989 11.7676 11.7677C11.2988 12.2366 10.6629 12.5 9.99984 12.5C9.3368 12.5 8.70091 12.2366 8.23207 11.7677C7.76323 11.2989 7.49984 10.663 7.49984 9.99996C7.49984 9.33692 7.76323 8.70103 8.23207 8.23219C8.70091 7.76335 9.3368 7.49996 9.99984 7.49996Z" fill="#6F39FD"/>
</svg>
