<svg width="20" height="20" viewBox="0 0 20 20" fill="none" xmlns="http://www.w3.org/2000/svg">
<path d="M5.78353 4.16665C5.78331 4.60867 5.6075 5.03251 5.29478 5.34491C4.98207 5.65732 4.55806 5.8327 4.11603 5.83248C3.674 5.83226 3.25017 5.65645 2.93776 5.34373C2.62536 5.03102 2.44997 4.60701 2.4502 4.16498C2.45042 3.72295 2.62622 3.29912 2.93894 2.98671C3.25166 2.67431 3.67567 2.49892 4.1177 2.49915C4.55972 2.49937 4.98356 2.67517 5.29596 2.98789C5.60837 3.30061 5.78375 3.72462 5.78353 4.16665ZM5.83353 7.06665H2.5002V17.5H5.83353V7.06665ZM11.1002 7.06665H7.78353V17.5H11.0669V12.025C11.0669 8.97498 15.0419 8.69165 15.0419 12.025V17.5H18.3335V10.8916C18.3335 5.74998 12.4502 5.94165 11.0669 8.46665L11.1002 7.06665Z" fill="#6F39FD"/>
</svg>
