<svg width="20" height="20" viewBox="0 0 20 20" fill="none" xmlns="http://www.w3.org/2000/svg">
<path d="M15.4785 11.4258C15.6762 11.4232 15.865 11.3436 16.0048 11.2038C16.1446 11.064 16.2242 10.8752 16.2268 10.6775C16.2268 10.2625 15.8943 9.92917 15.4785 9.92917C15.0627 9.92917 14.7302 10.2625 14.7302 10.6775C14.7302 11.0942 15.0635 11.4258 15.4785 11.4258ZM11.791 11.4258C11.9887 11.4232 12.1775 11.3436 12.3173 11.2038C12.4571 11.064 12.5367 10.8752 12.5393 10.6775C12.5393 10.2625 12.206 9.92917 11.791 9.92917C11.3743 9.92917 11.0427 10.2625 11.0427 10.6775C11.0427 11.0942 11.3752 11.4258 11.791 11.4258ZM17.2635 15.6258C17.2101 15.6555 17.1675 15.7013 17.1417 15.7567C17.116 15.8121 17.1084 15.8742 17.1202 15.9342C17.1202 15.9742 17.1202 16.015 17.141 16.0567C17.2227 16.4042 17.386 16.9575 17.386 16.9783C17.386 17.0392 17.4068 17.08 17.4068 17.1217C17.4068 17.1458 17.4021 17.1697 17.3928 17.192C17.3835 17.2143 17.3699 17.2346 17.3528 17.2516C17.3357 17.2686 17.3154 17.2821 17.2931 17.2913C17.2707 17.3004 17.2468 17.3051 17.2227 17.305C17.181 17.305 17.161 17.285 17.1202 17.265L15.9127 16.5683C15.8245 16.5198 15.7265 16.4919 15.626 16.4867C15.5652 16.4867 15.5035 16.4867 15.4627 16.5067C14.8893 16.6708 14.296 16.7525 13.6618 16.7525C10.6118 16.7525 8.156 14.705 8.156 12.165C8.156 9.62583 10.6118 7.5775 13.6618 7.5775C16.711 7.5775 19.1668 9.62583 19.1668 12.165C19.1668 13.5375 18.4302 14.7867 17.2635 15.6267V15.6258ZM13.8943 6.74917C13.8166 6.74658 13.7388 6.74519 13.661 6.745C10.1827 6.745 7.32266 9.12833 7.32266 12.1658C7.32266 12.6275 7.38933 13.0742 7.51266 13.4992H7.4385C6.71038 13.4918 5.98639 13.3887 5.28516 13.1925C5.2235 13.1717 5.16183 13.1717 5.10016 13.1717C4.97701 13.1743 4.85677 13.2097 4.75183 13.2742L3.29516 14.1117C3.2535 14.1325 3.21266 14.1533 3.17183 14.1533C3.11236 14.1527 3.0555 14.1288 3.01345 14.0867C2.97139 14.0447 2.94748 13.9878 2.94683 13.9283C2.94683 13.8667 2.96683 13.8258 2.98766 13.7642C3.00766 13.7442 3.19266 13.0692 3.29516 12.6608C3.29516 12.6192 3.31516 12.5583 3.31516 12.5175C3.31494 12.4461 3.2982 12.3756 3.26625 12.3117C3.2343 12.2479 3.18801 12.1922 3.131 12.1492C1.71516 11.1467 0.833496 9.655 0.833496 7.99833C0.833496 4.95417 3.8085 2.5 7.4585 2.5C10.596 2.5 13.2335 4.3075 13.8943 6.74833V6.74917ZM9.59933 7.0975C10.0768 7.0975 10.4543 6.7 10.4543 6.2425C10.4543 5.765 10.0768 5.3875 9.59933 5.3875C9.12183 5.3875 8.74433 5.765 8.74433 6.2425C8.74433 6.72 9.12183 7.0975 9.59933 7.0975ZM5.216 7.0975C5.6935 7.0975 6.07183 6.7 6.07183 6.2425C6.07183 5.765 5.6935 5.3875 5.216 5.3875C4.73933 5.3875 4.361 5.765 4.361 6.2425C4.361 6.72 4.73933 7.0975 5.216 7.0975Z" fill="#6F39FD"/>
</svg>
