<svg xmlns="http://www.w3.org/2000/svg" viewBox="0 0 413 413" fill="red ">
  <path d="m360.4 195-37-5.7a7 7 0 0 0-8.2 6.4l-5 33.5-33.4-5c-4-.2-8 2.4-8.3 6l-5 33.6-33.5-5a7 7 0 0 0-8.2 6.5l-5.7 33.2-33.5-5c-4-.2-8 2.4-8.3 6-2 12.9-3.7 25.7-5.6 38.5a7 7 0 0 0 6.4 8.3l146.1 21.7c11.2 1.5 22.2-8.7 23.6-17.1l22-147.7c.4-4.6-2-7.6-6.4-8.2zm-125.5 79.3 32.8 5c4.6.8 8.4-2.6 9-7.2l3.7-26 23.3 25.2-6.3 42.2-67-10.2zm95.2 74.2a5.8 5.8 0 0 1-6.6 5l-139-20.5 3.3-20.7L303 329.5c5 .7 7.3-1 8-6l7.8-53c.1-2.3-.4-4.5-1.7-6.2l-20.3-21.8 18 2.7a7 7 0 0 0 8.3-6.4l5-33.5 22.5 3.4z"/>
  <path d="M195.5 284.1c4 0 7.4-3.4 7.4-7.4v-34h33.6c4 0 7.4-3.3 7.4-7.4v-33.6h33.6c4 0 7.4-3.3 7.4-7.4v-34h30.2c4 0 7.4-3.3 7.4-7.4V87.5c0-11.4-9.3-20.7-20.7-20.7H66.6a20.7 20.7 0 0 0-20.7 20.7v215c0 11.5 9.2 20.7 20.7 20.7h87.5c4 0 7.4-3.3 7.4-7.4v-31.4zm33.6-56.2h-33.6c-4 0-7.4 3.3-7.4 7.4v34H96.9v-22.6l28.8-21.8 25 14.5c3 1.4 6.4 1 9-1.2l55-53.2 14.4 11.5zm-82.4 80.3H66.6c-3.4 0-6-2.6-6-6V87.6c0-3.3 2.6-5.9 6-5.9h235.3c3.3 0 5.9 2.6 5.9 6V146h-30c-4 0-7.3 3.3-7.3 7.4v34h-29.6l-21.8-17.5c-3-2.2-7-2.2-9.6.4l-56.1 53.5-24.4-14c-2.6-1.5-6-1.5-8.1.4l-35.9 27a7.7 7.7 0 0 0-3 5.9v34c.3 4 3.6 7.3 7.5 7.3h57.2z"/>
  <path d="M120.9 178.8a33.3 33.3 0 0 0 33.2-33.3 33.3 33.3 0 0 0-33.2-33.2 33.3 33.3 0 0 0-33.3 33.2 33.1 33.1 0 0 0 33.3 33.3zm0-52.1a18.5 18.5 0 0 1 0 37 18.5 18.5 0 0 1-18.5-18.5 18 18 0 0 1 18.5-18.5z"/>
</svg>
