<?xml version="1.0" encoding="UTF-8" standalone="no"?>
<svg
   xmlns:dc="http://purl.org/dc/elements/1.1/"
   xmlns:cc="http://creativecommons.org/ns#"
   xmlns:rdf="http://www.w3.org/1999/02/22-rdf-syntax-ns#"
   xmlns:svg="http://www.w3.org/2000/svg"
   xmlns="http://www.w3.org/2000/svg"
   id="sinimagen"
   viewBox="0 0 6199.9998 6199.9998"
   style="clip-rule:evenodd;fill-rule:evenodd;image-rendering:optimizeQuality;shape-rendering:geometricPrecision;text-rendering:geometricPrecision"
   version="1.1"
   height="6.1999998in"
   width="6.1999998in"
   xml:space="preserve"><defs /><path
     style="fill:#999999"
     id="path9"
     d="m 1427,2192 h 254 l 574,574 c -51,114 -79,242 -79,375 0,511 413,925 924,925 134,0 261,-29 376,-80 l 243,244 H 1427 Z m 889,-387 h 1575 l 155,387 h 727 v 2038 h -32 l -772,-772 c 36,-99 55,-205 55,-317 0,-510 -413,-924 -924,-924 -111,0 -218,20 -317,56 z m 784,627 c 392,0 709,317 709,709 0,49 -5,97 -14,143 l -838,-838 c 46,-9 94,-14 143,-14 z m 209,1387 c -66,21 -136,32 -209,32 -392,0 -709,-318 -709,-710 0,-72 10,-143 31,-209 z M 4407,2398 c 88,0 159,72 159,159 0,88 -71,159 -159,159 -88,0 -159,-71 -159,-159 0,-87 71,-159 159,-159 z"
     class="fil1" /><path
     style="fill:#cccccc"
     id="path11"
     d="M 3100,0 C 4812,0 6200,1388 6200,3100 6200,4812 4812,6200 3100,6200 1388,6200 0,4812 0,3100 0,1388 1388,0 3100,0 Z M 1260,1038 5162,4940 C 5598,4451 5864,3807 5864,3100 5864,1574 4626,336 3100,336 2393,336 1749,602 1260,1038 Z M 4940,5162 1038,1260 c -436,488 -702,1133 -702,1840 0,1526 1238,2764 2764,2764 707,0 1352,-266 1840,-702 z"
     class="fil2" /><metadata
     id="metadata861"><rdf:RDF><cc:Work
         rdf:about=""><dc:title></dc:title></cc:Work></rdf:RDF></metadata></svg>