<svg clip-rule="evenodd" fill-rule="evenodd" stroke-linejoin="round" stroke-miterlimit="2" viewBox="0 0 256 256" xmlns="http://www.w3.org/2000/svg"><path d="m256 64c0-35.323-28.677-64-64-64h-128c-35.323 0-64 28.677-64 64v128c0 35.323 28.677 64 64 64h128c35.323 0 64-28.677 64-64z" fill="#f9423a"/><g fill="#fff"><path d="m.332.015c.182 0 .289-.09.289-.227v-.286c0-.137-.108-.227-.29-.227s-.29.09-.29.227v.286c0 .137.109.227.291.227zm-.001-.14c-.093 0-.135-.037-.135-.094v-.272c0-.057.042-.094.136-.094.093 0 .134.037.134.094v.272c0 .057-.041.094-.135.094z" fill-rule="nonzero" transform="matrix(32 0 0 32 47.84746 229.3432)"/><path d="m.438-.71v.428l-.244-.428h-.144v.71h.144v-.426l.244.426h.144v-.71z" fill-rule="nonzero" transform="matrix(32 0 0 32 69.03156 229.3432)"/><path d="m.543-.71h-.535v.14h.191v.57h.155v-.57h.189z" fill-rule="nonzero" transform="matrix(32 0 0 32 96.83956 229.3432)"/><path d="m.455-.71v.295h-.25v-.295h-.155v.71h.155v-.275h.25v.275h.155v-.71z" fill-rule="nonzero" transform="matrix(32 0 0 32 114.47156 229.3432)"/><path d="m137.19156 206.6232h4.96v22.72h-4.96z" fill-rule="nonzero" stroke-width="32"/><path d="m.318.015c.177 0 .273-.098.273-.225 0-.257-.387-.201-.387-.306 0-.046.047-.069.105-.069.064 0 .115.029.115.072v.037h.155v-.033c0-.126-.087-.216-.268-.216-.185 0-.263.098-.263.213 0 .255.387.176.387.309 0 .057-.061.08-.113.08-.071 0-.134-.033-.134-.087v-.035h-.155v.025c0 .138.107.235.285.235z" fill-rule="nonzero" transform="matrix(32 0 0 32 143.75156 229.3432)"/><path d="m.329-.71h-.279v.71h.28c.17 0 .278-.09.278-.227v-.256c0-.137-.108-.227-.279-.227zm.124.476c0 .057-.042.094-.114.094h-.134v-.43h.135c.071 0 .113.037.113.094z" fill-rule="nonzero" transform="matrix(32 0 0 32 171.33556 229.3432)"/><path d="m.478 0h.153l-.198-.71h-.221l-.198.71h.152l.037-.125h.238zm-.077-.265h-.158l.079-.283z" fill-rule="nonzero" transform="matrix(32 0 0 32 191.78356 229.3432)"/><path d="m.615-.71h-.167l-.132.291-.133-.291h-.169l.223.474v.236h.155v-.238z" fill-rule="nonzero" transform="matrix(32 0 0 32 209.54356 229.3432)"/><circle cx="33.23436" cy="217.9838" r="6.457"/><path d="m152.187 38.156c6.117-4.996 13.927-7.993 22.432-7.993 19.591 0 35.497 15.906 35.497 35.498 0 4.952-1.016 9.67-2.852 13.953 14.141 4.316 24.439 17.474 24.439 33.019 0 19.05-15.466 34.517-34.516 34.517-4.837 0-9.443-.998-13.625-2.798.581 2.006.893 4.124.893 6.315 0 12.51-10.157 22.667-22.667 22.667-4.711 0-9.089-1.441-12.716-3.905-1.837 10.524-11.026 18.534-22.072 18.534-12.367 0-22.407-10.04-22.407-22.407 0-1.838.222-3.624.641-5.335-6.519 7.999-16.45 13.113-27.566 13.113-19.618 0-35.545-15.928-35.545-35.546 0-6.36 1.674-12.332 4.605-17.499-7.722-3.424-13.113-11.16-13.113-20.145 0-10.645 7.567-19.536 17.61-21.583-.002-.148-.003-.296-.003-.444 0-18.748 15.221-33.969 33.969-33.969 6.328 0 12.254 1.733 17.329 4.752 4.874-11.03 15.916-18.737 28.743-18.737 8.034 0 15.368 3.023 20.924 7.993z" transform="translate(0 -20.1631)"/><path d="m94.642018593 67.265461959h67.875685587v52.866249986h-67.875685587z" stroke-width=".344419"/></g><path d="m537.916 171.008h-156.475v-20c0-16.557-13.443-30-30-30-16.558 0-30 13.443-30 30v20.933c-61.764 7.564-109.668 60.266-109.668 124.067v250c0 68.989 56.011 125 125 125h250c68.99 0 125-56.011 125-125v-250c0-65.236-50.082-118.868-113.857-124.509v-20.491c0-16.557-13.443-30-30-30-16.558 0-30 13.443-30 30zm-278.238 370.849c0 43.684 35.467 79.151 79.152 79.151h241.697c43.685 0 79.151-35.467 79.151-79.151v-220.844h-400z" fill="#f9423a" transform="matrix(.16031154565 0 0 .16031154565 53.9724375607 20.4297131278)"/><circle cx="39.69158512" cy="165.72722784" fill="#fff" r="18.87108192" stroke-width="1.12368"/><circle cx="19.39012934" cy="195.37088832" fill="#fff" r="10.77242733" stroke-width="1.28289"/></svg>