<svg id="Ken_Icon" data-name="Ken Icon" xmlns="http://www.w3.org/2000/svg" xmlns:xlink="http://www.w3.org/1999/xlink" viewBox="0 0 800 800"><defs><style>.cls-1{fill:url(#linear-gradient);}.cls-2{opacity:0.07;}.cls-3{fill:#01767b;}.cls-4{fill:#f5f5f5;}</style><linearGradient id="linear-gradient" x1="398.05" y1="5.6" x2="402.01" y2="807.6" gradientTransform="matrix(1, 0, 0, -1, 0, 800)" gradientUnits="userSpaceOnUse"><stop offset="0" stop-color="#01949a"/><stop offset="0.52" stop-color="#01b0a3"/><stop offset="1" stop-color="#00cdac"/></linearGradient></defs><title>Icon</title><g id="Icon"><rect id="bg" class="cls-1" width="800" height="800"/><g id="shadow" class="cls-2"><path id="Gear" d="M561.33,352.39l-23.79-43.75a11.11,11.11,0,0,0-13.93-5l-32.73,13.29a11.15,11.15,0,0,1-11.36-1.82c-.66-.54-1.31-1.08-2-1.61a11.17,11.17,0,0,1-4-10.76l6.5-35a11.12,11.12,0,0,0-7.77-12.69L424.47,241a11.11,11.11,0,0,0-13.38,6.33l-13.58,32.13a11.15,11.15,0,0,1-9.4,6.75c-1.67.14-3.33.31-5,.52a11.17,11.17,0,0,1-10.6-4.73l-19.38-28.24a11.1,11.1,0,0,0-14.46-3.47l-43.76,23.79a11.1,11.1,0,0,0-5,13.93L303,320.26a11.15,11.15,0,0,1-1.78,11.3c-.64.78-1.27,1.56-1.89,2.35a11.15,11.15,0,0,1-10.8,4.12l-34.5-6.42a11.11,11.11,0,0,0-12.68,7.77l-14.11,47.76a11.1,11.1,0,0,0,6.32,13.38l32.47,13.72a11.12,11.12,0,0,1,6.73,9.27c.13,1.36.27,2.72.44,4.08a11.11,11.11,0,0,1-4.65,10.5l-27.14,19a11.11,11.11,0,0,0-3.39,14.41l23.79,43.75a11.1,11.1,0,0,0,14,4.94l30.58-12.72a11.16,11.16,0,0,1,11.43,1.76c1.2,1,2.43,2,3.66,2.93a11.17,11.17,0,0,1,4.25,10.8l-5.72,32.38a11.1,11.1,0,0,0,7.78,12.59L375.6,582A11.11,11.11,0,0,0,389,575.61l12.81-31.09a11.11,11.11,0,0,1,9.21-6.78c.74-.07,1.49-.15,2.23-.24a11.18,11.18,0,0,1,10.49,4.66l19.6,28a11.1,11.1,0,0,0,14.4,3.39l43.75-23.78a11.11,11.11,0,0,0,4.95-14l-12.89-31a11.18,11.18,0,0,1,1.7-11.49q1.43-1.69,2.78-3.43a11,11,0,0,1,10.62-4.13l32.94,5.83a11.11,11.11,0,0,0,12.58-7.79L568.31,436a11.11,11.11,0,0,0-6.42-13.42l-30.72-12.66a11.13,11.13,0,0,1-6.83-9.34c-.1-1.08-.21-2.16-.34-3.24a11.15,11.15,0,0,1,4.74-10.51l29.12-20A11.1,11.1,0,0,0,561.33,352.39ZM436.7,480.76a78.9,78.9,0,1,1,31.35-106.07A78.9,78.9,0,0,1,436.7,480.76Z" transform="translate(0 0)"/><circle cx="397.95" cy="412.03" r="52.59"/></g><circle class="cls-3" cx="406.31" cy="403.87" r="88.76"/><path id="Gear-2" data-name="Gear" class="cls-4" d="M569.23,344.49l-23.78-43.75a11.1,11.1,0,0,0-13.94-5L498.78,309a11.17,11.17,0,0,1-11.36-1.82c-.65-.55-1.31-1.09-2-1.62a11.18,11.18,0,0,1-4.05-10.75l6.5-35a11.1,11.1,0,0,0-7.77-12.68l-47.76-14.11A11.1,11.1,0,0,0,419,239.41l-13.57,32.14A11.17,11.17,0,0,1,396,278.3c-1.66.14-3.33.31-5,.52a11.16,11.16,0,0,1-10.59-4.73L361,245.85a11.1,11.1,0,0,0-14.46-3.47l-43.75,23.79a11.1,11.1,0,0,0-5,13.93l13.1,32.26a11.17,11.17,0,0,1-1.77,11.3c-.64.77-1.27,1.56-1.89,2.34a11.16,11.16,0,0,1-10.81,4.12L262,323.71a11.12,11.12,0,0,0-12.68,7.77l-14.11,47.76a11.11,11.11,0,0,0,6.33,13.38L274,406.33a11.16,11.16,0,0,1,6.74,9.28c.12,1.36.27,2.72.43,4.08a11.13,11.13,0,0,1-4.64,10.5l-27.15,19a11.1,11.1,0,0,0-3.39,14.4l23.79,43.75a11.11,11.11,0,0,0,14,4.95l30.57-12.73a11.16,11.16,0,0,1,11.43,1.77c1.21,1,2.43,2,3.67,2.93A11.15,11.15,0,0,1,333.68,515L328,547.43A11.11,11.11,0,0,0,335.75,560l47.76,14.12a11.11,11.11,0,0,0,13.41-6.42l12.81-31.09a11.1,11.1,0,0,1,9.21-6.78c.75-.07,1.49-.15,2.24-.24a11.17,11.17,0,0,1,10.48,4.65l19.6,28a11.11,11.11,0,0,0,14.41,3.39l43.75-23.79a11.1,11.1,0,0,0,4.94-14l-12.89-31a11.18,11.18,0,0,1,1.71-11.48c.94-1.13,1.87-2.27,2.77-3.43a11,11,0,0,1,10.62-4.13l32.94,5.82a11.11,11.11,0,0,0,12.59-7.79l14.11-47.75a11.11,11.11,0,0,0-6.42-13.42L539.07,402a11.14,11.14,0,0,1-6.83-9.34c-.1-1.08-.21-2.16-.34-3.25a11.17,11.17,0,0,1,4.74-10.5l29.12-20A11.1,11.1,0,0,0,569.23,344.49ZM444.6,472.85A78.89,78.89,0,1,1,476,366.79,78.88,78.88,0,0,1,444.6,472.85Z" transform="translate(0 0)"/><circle class="cls-4" cx="405.85" cy="404.12" r="52.59"/></g></svg>