<svg width="17" height="18" viewBox="0 0 17 18" fill="none" xmlns="http://www.w3.org/2000/svg">
<path d="M0.859375 17.6043V0H7.59366C10.2497 0 12.3153 0.760613 13.7903 2.28184C15.2653 3.80306 16.0027 5.95437 16.0025 8.73575C16.0025 11.5249 15.2631 13.7005 13.7841 15.2624C12.3052 16.8243 10.2416 17.6048 7.59336 17.604L0.859375 17.6043Z" fill="white"/>
<path d="M8.25916 13.9997C10.2898 14.0193 12.1446 12.9172 13 11.1825C12.4615 11.4038 11.8784 11.5122 11.291 11.5002C8.989 11.4971 7.12387 9.73993 7.12136 7.57185C7.14447 6.10506 8.00371 4.76341 9.37052 4.05995C9.002 4.0157 8.63063 3.9959 8.25916 4.0007C5.32755 4.02631 2.97305 6.28532 3.00023 9.04636C3.02706 11.7713 5.36592 13.974 8.25916 13.9993V13.9997V13.9997Z" fill="#121212"/>
</svg>
