<svg xmlns="http://www.w3.org/2000/svg" width="147" height="136" viewBox="0 0 147 136">
  <g id="Group_1810" data-name="Group 1810" transform="translate(-336 -1051)">
    <g id="Rectangle_563" data-name="Rectangle 563" transform="translate(336 1160)" fill="#32373c" stroke="#343434" stroke-width="1">
      <rect width="147" height="27" stroke="none"/>
      <rect x="0.5" y="0.5" width="146" height="26" fill="none"/>
    </g>
    <g id="Rectangle_568" data-name="Rectangle 568" transform="translate(336 1051)" fill="#161b22" stroke="#343434" stroke-width="1">
      <path d="M8,0H139a8,8,0,0,1,8,8V110a0,0,0,0,1,0,0H0a0,0,0,0,1,0,0V8A8,8,0,0,1,8,0Z" stroke="none"/>
      <path d="M8,.5H139A7.5,7.5,0,0,1,146.5,8V109a.5.5,0,0,1-.5.5H1a.5.5,0,0,1-.5-.5V8A7.5,7.5,0,0,1,8,.5Z" fill="none"/>
    </g>
    <rect id="Rectangle_564" data-name="Rectangle 564" width="147" height="26" transform="translate(336 1051)" fill="#343a43"/>
    <rect id="Rectangle_565" data-name="Rectangle 565" width="27" height="5" rx="2.5" transform="translate(350 1062)" fill="#30ceff"/>
    <rect id="Rectangle_566" data-name="Rectangle 566" width="27" height="5" rx="2.5" transform="translate(381 1062)" fill="#30ceff"/>
    <rect id="Rectangle_567" data-name="Rectangle 567" width="27" height="5" rx="2.5" transform="translate(412 1062)" fill="#30ceff"/>
    <rect id="Rectangle_569" data-name="Rectangle 569" width="119" height="64" transform="translate(350 1087)" fill="#30363d"/>
    <rect id="Rectangle_570" data-name="Rectangle 570" width="18" height="2" transform="translate(364 1095)" fill="#8b949e"/>
    <rect id="Rectangle_574" data-name="Rectangle 574" width="18" height="2" transform="translate(408 1103)" fill="#8b949e"/>
    <rect id="Rectangle_579" data-name="Rectangle 579" width="18" height="2" transform="translate(408 1119)" fill="#8b949e"/>
    <rect id="Rectangle_576" data-name="Rectangle 576" width="58" height="2" transform="translate(364 1111)" fill="#8b949e"/>
    <rect id="Rectangle_575" data-name="Rectangle 575" width="25" height="2" transform="translate(430 1103)" fill="#8b949e"/>
    <rect id="Rectangle_580" data-name="Rectangle 580" width="25" height="2" transform="translate(430 1119)" fill="#8b949e"/>
    <rect id="Rectangle_572" data-name="Rectangle 572" width="19" height="2" transform="translate(436 1095)" fill="#8b949e"/>
    <rect id="Rectangle_577" data-name="Rectangle 577" width="28" height="2" transform="translate(427 1111)" fill="#8b949e"/>
    <rect id="Rectangle_571" data-name="Rectangle 571" width="38" height="2" transform="translate(390 1095)" fill="#8b949e"/>
    <rect id="Rectangle_573" data-name="Rectangle 573" width="38" height="2" transform="translate(364 1103)" fill="#8b949e"/>
    <rect id="Rectangle_578" data-name="Rectangle 578" width="38" height="2" transform="translate(364 1119)" fill="#8b949e"/>
    <rect id="Rectangle_581" data-name="Rectangle 581" width="119" height="11" transform="translate(350 1132)" fill="#30ceff" opacity="0.15"/>
    <rect id="Rectangle_582" data-name="Rectangle 582" width="40" height="5" rx="2.5" transform="translate(364 1135)" fill="#30ceff"/>
  </g>
</svg>
