<svg xmlns="http://www.w3.org/2000/svg" width="205.55" height="45.411" viewBox="0 0 205.55 45.411">
  <g id="Group_2059" data-name="Group 2059" transform="translate(-381.021 -72)">
    <g id="Group_2052" data-name="Group 2052" transform="translate(441.245 83.58)">
      <path id="Path_2045" data-name="Path 2045" d="M95.654,130.955V108.1h8.095q12.174,0,12.174,11.139a11.262,11.262,0,0,1-3.323,8.525,12.249,12.249,0,0,1-8.852,3.187H95.654ZM100.8,112.3V126.78h2.55a6.89,6.89,0,0,0,5.251-2.008,7.619,7.619,0,0,0,1.9-5.465,6.908,6.908,0,0,0-1.889-5.139,7.2,7.2,0,0,0-5.3-1.872H100.8Z" transform="translate(-95.654 -108.104)" fill="#fff"/>
      <path id="Path_2046" data-name="Path 2046" d="M138.257,130.955h-5.609l-1.625-5.083H122.9l-1.609,5.083H115.71l8.318-22.851h6.1Zm-8.413-9.035-2.454-7.682a9.957,9.957,0,0,1-.382-2.055h-.127a8.731,8.731,0,0,1-.4,1.991L124,121.92h5.848Z" transform="translate(-94.596 -108.104)" fill="#fff"/>
      <path id="Path_2047" data-name="Path 2047" d="M159.006,130.955h-5.911l-3.553-5.881q-.4-.669-.765-1.195a6.744,6.744,0,0,0-.74-.9,3,3,0,0,0-.781-.574,1.985,1.985,0,0,0-.884-.2h-1.388v8.749h-5.146V108.1H148q8.318,0,8.319,6.215a6.428,6.428,0,0,1-.368,2.207,6.106,6.106,0,0,1-1.034,1.825,6.622,6.622,0,0,1-1.618,1.4,8.309,8.309,0,0,1-2.112.923v.064a3.292,3.292,0,0,1,.989.518,7.019,7.019,0,0,1,.923.837,11.578,11.578,0,0,1,.853,1.028q.407.549.74,1.075ZM144.984,111.96v6.357h2.231a3.7,3.7,0,0,0,2.663-.956,3.194,3.194,0,0,0,1.02-2.406q0-3-3.586-3Z" transform="translate(-93.324 -108.104)" fill="#fff"/>
      <path id="Path_2048" data-name="Path 2048" d="M179.07,130.955h-6.5l-6.661-9.927a9.6,9.6,0,0,1-.606-1.259h-.08v11.186h-5.146V108.1h5.146v10.8h.08q.191-.446.637-1.275l6.31-9.529h6.135L170.418,119Z" transform="translate(-92.257 -108.104)" fill="#fff"/>
      <path id="Path_2049" data-name="Path 2049" d="M193.8,130.955H180.192V108.1h5.146V126.78H193.8v4.175Z" transform="translate(-91.196 -108.104)" fill="#fff"/>
      <path id="Path_2050" data-name="Path 2050" d="M214.062,121.059q0,10.295-9.594,10.295-9.3,0-9.306-10.055V108.1h5.163v13.258q0,5.545,4.334,5.545,4.256,0,4.255-5.354V108.1h5.147Z" transform="translate(-90.407 -108.104)" fill="#fff"/>
      <path id="Path_2051" data-name="Path 2051" d="M222.984,123.083v7.872h-5.146V108.1H225.9q8.637,0,8.637,7.282a6.992,6.992,0,0,1-2.478,5.57,9.82,9.82,0,0,1-6.621,2.127h-2.455Zm0-11.027v7.123h2.024q4.111,0,4.111-3.6,0-3.521-4.111-3.521h-2.024Z" transform="translate(-89.211 -108.104)" fill="#fff"/>
    </g>
    <g id="Group_1402" transform="translate(381.021 72)">
      <path id="Union_1" d="M29.425,150.405V104.994H46.8q10.277,0,15.985,5.886t5.707,16.648q0,10.792-5.722,16.836T46.8,150.4Z" transform="translate(-29.425 -104.994)" fill="#0071e3"/>
      <g id="moon" transform="translate(9.623 13.511)">
        <path id="moon_2_" d="M-79.3,75.505a9.012,9.012,0,0,0,8.266-5.215,7.067,7.067,0,0,1-2.98.588,7.28,7.28,0,0,1-7.27-7.272,7.536,7.536,0,0,1,3.921-6.5,13.82,13.82,0,0,0-1.938-.11,9.255,9.255,0,0,0-9.169,9.341A9.255,9.255,0,0,0-79.3,75.5h0Z" transform="translate(88.467 -56.994)" fill="#fff"/>
        <path id="Ellipse_117" d="M-64.711,61.386v0Z" transform="translate(83.592 -57.895)" fill="#fff"/>
        <rect id="Ellipse_118" transform="translate(15.281 10.829)" fill="#fff"/>
        <rect id="Ellipse_119" transform="translate(10.989 4.46)" fill="#fff"/>
        <rect id="Ellipse_120" transform="translate(15.281 0.031)" fill="#fff"/>
      </g>
    </g>
  </g>
</svg>
