<svg xmlns="http://www.w3.org/2000/svg" width="147" height="136" viewBox="0 0 147 136">
  <g id="Group_1819" data-name="Group 1819" transform="translate(-950 537)">
    <g id="Rectangle_563" data-name="Rectangle 563" transform="translate(950 -428)" stroke="#343434" stroke-width="1">
      <rect width="147" height="27" stroke="none"/>
      <rect x="0.5" y="0.5" width="146" height="26" fill="none"/>
    </g>
    <g id="Rectangle_568" data-name="Rectangle 568" transform="translate(950 -537)" fill="#161b22" stroke="#343434" stroke-width="1">
      <path d="M8,0H139a8,8,0,0,1,8,8V110a0,0,0,0,1,0,0H0a0,0,0,0,1,0,0V8A8,8,0,0,1,8,0Z" stroke="none"/>
      <path d="M8,.5H139A7.5,7.5,0,0,1,146.5,8V109a.5.5,0,0,1-.5.5H1a.5.5,0,0,1-.5-.5V8A7.5,7.5,0,0,1,8,.5Z" fill="none"/>
    </g>
    <rect id="Rectangle_564" data-name="Rectangle 564" width="147" height="26" transform="translate(950 -537)" fill="#343a43"/>
    <rect id="Rectangle_565" data-name="Rectangle 565" width="27" height="5" rx="2.5" transform="translate(964 -526)" fill="#1da1f2"/>
    <rect id="Rectangle_566" data-name="Rectangle 566" width="27" height="5" rx="2.5" transform="translate(995 -526)" fill="#1da1f2"/>
    <rect id="Rectangle_567" data-name="Rectangle 567" width="27" height="5" rx="2.5" transform="translate(1026 -526)" fill="#1da1f2"/>
    <rect id="Rectangle_569" data-name="Rectangle 569" width="119" height="64" transform="translate(964 -501)" fill="#30363d"/>
    <rect id="Rectangle_570" data-name="Rectangle 570" width="18" height="2" transform="translate(978 -493)" fill="#8b949e"/>
    <rect id="Rectangle_574" data-name="Rectangle 574" width="18" height="2" transform="translate(1022 -485)" fill="#8b949e"/>
    <rect id="Rectangle_579" data-name="Rectangle 579" width="18" height="2" transform="translate(1022 -469)" fill="#8b949e"/>
    <rect id="Rectangle_576" data-name="Rectangle 576" width="58" height="2" transform="translate(978 -477)" fill="#8b949e"/>
    <rect id="Rectangle_575" data-name="Rectangle 575" width="25" height="2" transform="translate(1044 -485)" fill="#8b949e"/>
    <rect id="Rectangle_580" data-name="Rectangle 580" width="25" height="2" transform="translate(1044 -469)" fill="#8b949e"/>
    <rect id="Rectangle_572" data-name="Rectangle 572" width="19" height="2" transform="translate(1050 -493)" fill="#8b949e"/>
    <rect id="Rectangle_577" data-name="Rectangle 577" width="28" height="2" transform="translate(1041 -477)" fill="#8b949e"/>
    <rect id="Rectangle_571" data-name="Rectangle 571" width="38" height="2" transform="translate(1004 -493)" fill="#8b949e"/>
    <rect id="Rectangle_573" data-name="Rectangle 573" width="38" height="2" transform="translate(978 -485)" fill="#8b949e"/>
    <rect id="Rectangle_578" data-name="Rectangle 578" width="38" height="2" transform="translate(978 -469)" fill="#8b949e"/>
    <rect id="Rectangle_581" data-name="Rectangle 581" width="119" height="11" transform="translate(964 -456)" fill="#1da1f2" opacity="0.15"/>
    <rect id="Rectangle_582" data-name="Rectangle 582" width="40" height="5" rx="2.5" transform="translate(978 -453)" fill="#1da1f2"/>
  </g>
</svg>
