<?xml version="1.0" ?>
<svg xmlns="http://www.w3.org/2000/svg" viewBox="0 0 20 20">
    <g>
        <g id="Page-1" fill-rule="evenodd" fill="#fff">
            <g stroke="null" id="Icons-Communication" fill="#fff">
                <g stroke="null" id="gmail">
                    <path stroke="null" id="Shape" d="m17.343889,3.068752l-14.638252,0c-1.00638,0 -1.829782,0.784091 -1.829782,1.742424l0,10.454546c0,0.958333 0.823402,1.742424 1.829782,1.742424l14.638252,0c1.00638,0 1.829782,-0.784091 1.829782,-1.742424l0,-10.454546c0,-0.958333 -0.823402,-1.742424 -1.829782,-1.742424l0,0zm0,12.19697l-1.829782,0l0,-7.666667l-5.489345,3.310606l-5.489345,-3.310606l0,7.666667l-1.829782,0l0,-10.454546l1.097869,0l6.221257,3.659091l6.221257,-3.659091l1.097869,0l0,10.454546l0,0z"/>
                </g>
            </g>
        </g>
    </g>
</svg>