<?xml version="1.0" encoding="utf-8"?>
<!-- Generator: Adobe Illustrator 23.0.3, SVG Export Plug-In . SVG Version: 6.00 Build 0)  -->
<svg version="1.1" id="Layer_1" xmlns="http://www.w3.org/2000/svg" xmlns:xlink="http://www.w3.org/1999/xlink" x="0px" y="0px"
	 viewBox="0 0 200 200" style="enable-background:new 0 0 200 200;" xml:space="preserve">
<style type="text/css">
	.st0{fill-rule:evenodd;clip-rule:evenodd;fill:#fff;}
</style>
<g id="Isolation_Mode">
	<g id="Group_2">
		<rect id="Group_2_1_" x="19.79" y="70.15" class="st0" width="34.49" height="111.42"/>
		<path id="Group_1" class="st0" d="M36.87,55.56c11.27,0,20.4-9.22,20.4-20.57c0-11.35-9.13-20.56-20.4-20.56
			c-11.26,0-20.39,9.21-20.39,20.56C16.47,46.34,25.6,55.56,36.87,55.56z"/>
	</g>
	<path id="Group_1_1_" class="st0" d="M109.41,123.08c0-15.67,7.21-25,21.02-25c12.68,0,18.78,8.96,18.78,25
		c0,16.05,0,58.49,0,58.49h34.33c0,0,0-40.7,0-70.55c0-29.84-16.92-44.27-40.54-44.27c-23.64,0-33.58,18.41-33.58,18.41V70.15H76.33
		v111.42h33.08C109.41,181.57,109.41,140.24,109.41,123.08z"/>
</g>
</svg>
