<?xml version="1.0" encoding="utf-8"?>
<!-- Generator: Adobe Illustrator 23.0.3, SVG Export Plug-In . SVG Version: 6.00 Build 0)  -->
<svg version="1.1" id="Layer_1" xmlns="http://www.w3.org/2000/svg" xmlns:xlink="http://www.w3.org/1999/xlink" x="0px" y="0px"
	 viewBox="0 0 200 200" style="enable-background:new 0 0 200 200;" xml:space="preserve">
<style type="text/css">
	.st0{fill:#fff;}
</style>
<path id="Group_1" class="st0" d="M51.7,118.02c2.36,0.96,4.47,0.04,5.15-2.57c0.48-1.81,1.6-6.37,2.1-8.27
	c0.69-2.59,0.42-3.49-1.48-5.73c-4.14-4.9-6.79-11.23-6.79-20.2c0-26.02,19.47-49.31,50.7-49.31c27.65,0,42.84,16.9,42.84,39.47
	c0,29.68-13.14,54.74-32.64,54.74c-10.78,0-18.84-8.91-16.26-19.83c3.1-13.04,9.09-27.13,9.09-36.54c0-8.43-4.52-15.46-13.89-15.46
	c-11.01,0-19.86,11.4-19.86,26.66c0,9.72,3.29,16.3,3.29,16.3s-11.27,47.75-13.25,56.11c-3.93,16.65-0.59,37.06-0.31,39.12
	c0.17,1.23,1.74,1.51,2.45,0.6c1.02-1.33,14.13-17.53,18.59-33.7c1.26-4.58,7.25-28.3,7.25-28.3c3.57,6.82,14.03,12.83,25.15,12.83
	c33.1,0,55.56-30.17,55.56-70.57c0-30.54-25.87-58.99-65.19-58.99c-48.93,0-73.59,35.07-73.59,64.32
	C30.61,96.4,37.31,112.16,51.7,118.02z"/>
</svg>
