<svg viewBox="0 0 570 570" xmlns="http://www.w3.org/2000/svg">
  <g id="svg_1" fill-rule="evenodd">
   <path id="svg_2" d="m51.328,253.722l291.59,-125.6c138.856,-57.755 167.708,-67.787 186.514,-68.118c4.137,-0.073 13.385,0.952 19.375,5.813c5.06,4.104 6.45,9.65 7.117,13.54s1.495,12.757 0.836,19.684c-7.525,79.06 -40.084,270.924 -56.648,359.474c-7.01,37.47 -20.8,50.033 -34.17,51.262c-29.036,2.672 -51.085,-19.19 -79.208,-37.624l-111.584,-74.953c-49.366,-32.53 -17.364,-50.41 10.77,-79.63c7.362,-7.65 135.295,-124.014 137.77,-134.57c0.3,-1.32 0.597,-6.24 -2.326,-8.84s-7.24,-1.7 -10.353,-1.003c-4.413,1.002 -74.714,47.468 -210.902,139.4c-19.955,13.703 -38.03,20.38 -54.223,20.03c-17.853,-0.386 -52.194,-10.094 -77.723,-18.393c-31.313,-10.178 -56.2,-15.56 -54.032,-32.846c1.128,-9.003 13.527,-18.21 37.196,-27.624l0.001,-0.002z" fill="#fff"/>
  </g>
</svg>