<svg width="140" height="140" xmlns="http://www.w3.org/2000/svg">
  <g id="svg_1" fill-rule="evenodd" fill="#fff">
   <path id="svg_2" d="m131.04866,37.14622c0.88956,-2.96645 0,-5.14622 -4.23376,-5.14622l-14,0c-3.55973,0 -5.20082,1.883 -6.09088,3.9594c0,0 -7.11948,17.35354 -17.20516,28.6258c-3.26297,3.26297 -4.74632,4.30116 -6.5262,4.30116c-0.8898,0 -2.178,-1.0382 -2.178,-4.0044l0,-27.73573c0,-3.55975 -1.03306,-5.14623 -3.99976,-5.14623l-22,0c-2.22452,0 -3.56237,1.65216 -3.56237,3.21797c0,3.37456 5.04259,4.15278 5.56237,13.64542l0,20.61651c0,4.5201 -0.8163,5.3396 -2.59617,5.3396c-4.74607,0 -16.2909,-17.43106 -23.13806,-37.37676c-1.34187,-3.87674 -2.68776,-5.44274 -6.26577,-5.44274l-14,0c-4,0 -4.80004,1.883 -4.80004,3.9594c0,3.70812 4.74631,22.09986 22.09961,46.42425c11.56878,16.61162 27.86843,25.61635 42.70043,25.61635c8.8991,0 10,-2 10,-5.445l0,-12.555c0,-4 0.84305,-4.79829 3.66112,-4.79829c2.07639,0 5.63613,1.0382 13.94218,9.04749c9.4924,9.49239 11.05734,13.7508 16.3967,13.7508l14,0c4,0 6,-2 4.84624,-5.94689c-1.26257,-3.9337 -5.79468,-9.64097 -11.80836,-16.4065c-3.26321,-3.85625 -8.15767,-8.00904 -9.64102,-10.08592c-2.07639,-2.66943 -1.4831,-3.85626 0,-6.22917c0,0 17.05702,-24.02787 18.8369,-32.1853z" fill="#FFF"/>
  </g>
</svg>