<?xml version="1.0" encoding="utf-8"?>
<!-- Generator: Adobe Illustrator 23.0.3, SVG Export Plug-In . SVG Version: 6.00 Build 0)  -->
<svg version="1.1" id="Layer_1" xmlns="http://www.w3.org/2000/svg" xmlns:xlink="http://www.w3.org/1999/xlink" x="0px" y="0px"
	 viewBox="0 0 200 200" style="enable-background:new 0 0 200 200;" xml:space="preserve">
<style type="text/css">
	.st0{fill-rule:evenodd;clip-rule:evenodd;fill:#fff;}
</style>
<g>
	<g>
		<path class="st0" d="M185.97,95.03c-1.15-45.46-38.6-81.96-84.7-81.96c-45.54,0-82.67,35.66-84.65,80.42
			c-0.04,1.23-0.08,2.46-0.08,3.69c0,15.91,4.44,30.75,12.14,43.44L13.4,185.72l46.93-14.92c12.14,6.66,26.1,10.48,40.94,10.48
			c46.81,0,84.74-37.65,84.74-84.11C186.01,96.46,186.01,95.74,185.97,95.03z M101.27,167.86c-14.48,0-27.92-4.28-39.19-11.7
			l-27.37,8.73l8.89-26.26c-8.53-11.66-13.57-25.98-13.57-41.46c0-2.3,0.12-4.6,0.36-6.86c3.49-35.78,33.96-63.83,70.89-63.83
			c37.41,0,68.16,28.76,71.01,65.18c0.16,1.83,0.24,3.64,0.24,5.51C172.52,136.17,140.54,167.86,101.27,167.86z"/>
		<path class="st0" d="M140.1,114.15c-2.1-1.03-12.3-6.03-14.2-6.7c-1.9-0.71-3.29-1.03-4.68,1.03c-1.39,2.06-5.4,6.7-6.59,8.05
			c-1.23,1.39-2.42,1.55-4.52,0.52c-2.06-1.03-8.77-3.18-16.7-10.24c-6.15-5.43-10.35-12.18-11.54-14.24
			c-1.19-2.06-0.12-3.18,0.91-4.21c0.95-0.95,2.06-2.42,3.13-3.61c0.28-0.36,0.52-0.68,0.76-0.99c0.47-0.75,0.83-1.47,1.31-2.46
			c0.72-1.39,0.36-2.58-0.16-3.61c-0.51-1.03-4.68-11.19-6.43-15.31c-1.7-4.13-3.45-3.41-4.68-3.41c-1.19,0-2.58-0.2-3.97-0.2
			c-1.39,0-3.65,0.52-5.55,2.58c-1.9,2.06-7.26,7.06-7.26,17.22c0,2.38,0.44,4.76,1.08,7.02c2.1,7.26,6.62,13.25,7.42,14.28
			c1.03,1.35,14.36,22.85,35.46,31.14c21.15,8.21,21.15,5.47,24.95,5.11c3.81-0.31,12.3-4.96,14-9.8c1.75-4.8,1.75-8.93,1.23-9.8
			C143.56,115.7,142.17,115.18,140.1,114.15z"/>
	</g>
</g>
</svg>
