<svg height="15px" viewBox="0 0 512 512" width="15px" xmlns="http://www.w3.org/2000/svg"><path d="m181.332031 405.332031h-122.664062c-32.363281 0-58.667969-26.300781-58.667969-58.664062v-245.335938c0-32.363281 26.304688-58.664062 58.667969-58.664062h309.332031c32.363281 0 58.667969 26.300781 58.667969 58.664062v85.335938c0 8.832031-7.167969 16-16 16s-16-7.148438-16-16v-85.335938c0-14.699219-11.96875-26.664062-26.667969-26.664062h-309.332031c-14.699219 0-26.667969 11.964843-26.667969 26.664062v245.335938c0 14.699219 11.96875 26.664062 26.667969 26.664062h122.664062c8.832031 0 16 7.167969 16 16s-7.167969 16-16 16zm0 0"/><path d="m410.667969 160h-394.667969c-8.832031 0-16-7.167969-16-16s7.167969-16 16-16h394.667969c8.832031 0 16 7.167969 16 16s-7.167969 16-16 16zm0 0"/><path d="m101.332031 117.332031c-8.832031 0-16-7.167969-16-16v-85.332031c0-8.832031 7.167969-16 16-16s16 7.167969 16 16v85.332031c0 8.832031-7.167969 16-16 16zm0 0"/><path d="m325.332031 117.332031c-8.832031 0-16-7.167969-16-16v-85.332031c0-8.832031 7.167969-16 16-16s16 7.167969 16 16v85.332031c0 8.832031-7.167969 16-16 16zm0 0"/><path d="m373.332031 512c-76.457031 0-138.664062-62.207031-138.664062-138.667969 0-76.457031 62.207031-138.664062 138.664062-138.664062 76.460938 0 138.667969 62.207031 138.667969 138.664062 0 76.460938-62.207031 138.667969-138.667969 138.667969zm0-245.332031c-58.816406 0-106.664062 47.847656-106.664062 106.664062 0 58.816407 47.847656 106.667969 106.664062 106.667969 58.816407 0 106.667969-47.851562 106.667969-106.667969 0-58.816406-47.851562-106.664062-106.667969-106.664062zm0 0"/><path d="m414.804688 430.804688c-4.09375 0-8.191407-1.558594-11.304688-4.691407l-82.964844-82.964843c-6.253906-6.253907-6.253906-16.386719 0-22.636719 6.25-6.25 16.382813-6.25 22.632813 0l82.964843 82.964843c6.25 6.25 6.25 16.386719 0 22.636719-3.136718 3.132813-7.210937 4.691407-11.328124 4.691407zm0 0"/><path d="m331.863281 430.804688c-4.097656 0-8.195312-1.558594-11.308593-4.691407-6.25-6.25-6.25-16.386719 0-22.636719l82.964843-82.964843c6.25-6.25 16.382813-6.25 22.636719 0 6.25 6.25 6.25 16.382812 0 22.636719l-82.96875 82.964843c-3.15625 3.132813-7.230469 4.691407-11.324219 4.691407zm0 0"/></svg>