<svg xmlns="http://www.w3.org/2000/svg" viewBox="173 -216.957 428.882 127.737">
  <defs>
    <style>
      .cls-1 {
        fill: #fff;
        fill-rule: evenodd;
      }
    </style>
  </defs>
  <g id="ke-logo-small" transform="translate(172.874 -216.957)">
    <path id="Path_1" data-name="Path 1" class="cls-1" d="M27.972,96.024c1.576,1.477,3.053,2.856,4.53,4.235a48.2,48.2,0,0,0,3.939,3.349q3.1,2.364,5.023,3.841a13.514,13.514,0,0,0,4.038,2.167,24.064,24.064,0,0,0,3.644,1.083,14.706,14.706,0,0,0,1.674.2q2.216,0,5.023-3.546a13.273,13.273,0,0,0,1.477-1.674c.3-.3.492-.591.591-.689a1.434,1.434,0,0,0,.591-.886,4.335,4.335,0,0,0,.2-.985,4.206,4.206,0,0,0-1.871-2.659,5.667,5.667,0,0,0-3.152-.591c-1.083-.1-1.871-.1-2.462-.2a5.912,5.912,0,0,1-1.97-.689,20.154,20.154,0,0,1-4.333-2.758,48.236,48.236,0,0,1-4.235-3.841c-1.477-1.477-3.25-3.152-5.121-5.023s-4.136-4.038-6.8-6.3c-1.871-1.576-3.25-2.758-4.333-3.644s-1.97-1.576-2.561-2.167c-.689-.591-1.182-.985-1.576-1.379s-.788-.788-1.28-1.379c.591-.492,1.576-1.28,3.152-2.462,1.576-1.083,4.038-2.856,7.485-5.121a101.342,101.342,0,0,0,9.258-6.8c3.053-2.462,5.811-4.727,8.47-6.894,2.167-1.773,3.742-3.053,4.727-4.038.985-.886,1.773-1.576,2.265-2.068a13.056,13.056,0,0,0,1.083-.985,11.313,11.313,0,0,0,.788-.985A72.507,72.507,0,0,0,68.253,27.97a1.647,1.647,0,0,0,.1-1.182,6.735,6.735,0,0,0-.591-2.856,20.7,20.7,0,0,0-1.28-2.561A11,11,0,0,0,65.1,19.6a3.576,3.576,0,0,0-2.758-1.182c-.985,0-1.576.394-1.773,1.083-.788,1.773-1.576,3.349-2.265,4.727a37.713,37.713,0,0,1-2.856,4.727,51.171,51.171,0,0,1-4.727,5.614c-1.97,2.068-4.432,4.432-7.485,7.189-1.477,1.379-3.152,2.758-5.023,4.235s-4.235,3.25-7.091,5.417A50.207,50.207,0,0,1,26.2,54.955q-2.955,1.92-6.8,4.432c.1-3.841.3-8.371.788-13.394q.591-7.682,1.773-17.137c.591-4.038.985-7.288,1.379-9.947s.689-4.727.886-6.3.394-2.659.492-3.447c.1-.689.2-1.182.2-1.379a1.46,1.46,0,0,0,.1-.689,8.655,8.655,0,0,0-1.576-5.22c-.788-.492-1.379-.886-2.068-1.28A6.029,6.029,0,0,0,18.419,0,2.805,2.805,0,0,0,15.76,1.379c-.591.886-1.083,1.773-1.674,2.758A16.71,16.71,0,0,0,12.411,6.4a5.37,5.37,0,0,0-.985,2.659c-.2,2.462-.3,4.826-.3,7.189.1,2.364.1,4.727.2,7.189a58.7,58.7,0,0,1-.492,8.568c-.394,3.546-.788,7.879-1.083,13-.394,4.924-.591,9.159-.788,12.606s-.3,6.106-.2,8.076a33.633,33.633,0,0,1-3.546,1.97,21.288,21.288,0,0,1-2.758,1.28,1.627,1.627,0,0,0-1.083,1.28L.3,74.062a1.37,1.37,0,0,0,.2,1.576c1.477,2.265,3.939,4.333,7.583,6.3.1,3.939.2,7.879.394,11.621.1,3.742.3,7.583.394,11.523v.1c.2,3.742.985,6.7,2.364,8.568a7.072,7.072,0,0,0,6.2,3.447,5.067,5.067,0,0,0,3.152-.788,3.01,3.01,0,0,0,1.773-2.856,1.653,1.653,0,0,0-.591-1.379,9.038,9.038,0,0,1-1.083-2.364,25.449,25.449,0,0,1-1.083-6.106c0-.788-.1-2.462-.2-5.121s-.2-6.3-.3-10.932c1.477,1.182,2.955,2.561,4.53,4.038A59.854,59.854,0,0,0,27.972,96.024Z" transform="translate(0 0)"/>
    <path id="Path_2" data-name="Path 2" class="cls-1" d="M64.1,43.089A8.825,8.825,0,0,0,66.464,48.6a6.773,6.773,0,0,0,5.909,2.659,6.04,6.04,0,0,0,1.576-.3,4.925,4.925,0,0,0,1.97-1.083,5.259,5.259,0,0,0,1.576-2.364,10.365,10.365,0,0,0,.492-4.136c-.1-2.462-.689-4.333-1.97-5.614A7.163,7.163,0,0,0,70.7,35.9c-1.28,0-2.856.788-4.53,2.364A7.252,7.252,0,0,0,64.1,43.089Z" transform="translate(-0.968 -0.543)"/>
    <path id="Path_3" data-name="Path 3" class="cls-1" d="M128.771,49.864a6.041,6.041,0,0,0,1.576-.3,4.926,4.926,0,0,0,1.97-1.083,4.764,4.764,0,0,0,1.576-2.364,10.365,10.365,0,0,0,.492-4.136c-.1-2.462-.689-4.333-1.97-5.614A7.164,7.164,0,0,0,127.1,34.5c-1.28,0-2.856.788-4.53,2.364a6.915,6.915,0,0,0-2.167,4.727,8.825,8.825,0,0,0,2.364,5.515A6.9,6.9,0,0,0,128.771,49.864Z" transform="translate(-1.821 -0.522)"/>
    <path id="Path_4" data-name="Path 4" class="cls-1" d="M204.422,84.625c.985-3.25,1.871-6.6,2.856-10.144.591-2.364,1.083-4.333,1.379-6.008.3-1.576.591-2.955.788-4.038a14.642,14.642,0,0,0,.3-2.462v-1.28a3.719,3.719,0,0,0-1.083-2.955,3.115,3.115,0,0,0-2.167-.788,3.443,3.443,0,0,0-3.447,2.659v.1l-.3,1.28c-.2.591-.3,1.182-.492,1.674a7.385,7.385,0,0,1-.492,1.576c-.985,4.235-1.871,7.583-2.561,10.243s-1.182,4.727-1.576,6.3q-.591,2.216-.886,3.25a5.257,5.257,0,0,1-.394,1.083v.1a71.738,71.738,0,0,1-2.659,7.386,21.084,21.084,0,0,1-2.068,3.841,6.912,6.912,0,0,1-1.379,1.477,1.523,1.523,0,0,1-.591.3,4.417,4.417,0,0,1-.886-1.576,23.178,23.178,0,0,1-.591-2.856,35.455,35.455,0,0,1-.3-5.22c-.2-7.682.788-17.432,2.955-29.349a1.591,1.591,0,0,0-.886-2.068c-2.955-1.773-5.318-2.758-6.993-2.659-1.97,0-3.348.492-3.939,1.28a4.59,4.59,0,0,0-1.182,2.265v1.773a17.053,17.053,0,0,1-.394,2.955c-.3,1.477-.591,3.349-1.182,5.811-.492,2.462-1.28,5.614-2.167,9.455-1.182,5.023-2.265,8.765-3.053,11.129a31.054,31.054,0,0,1-2.068,4.727,10.74,10.74,0,0,0-.1-1.674,17.488,17.488,0,0,1-.1-2.462c-.1-2.561,0-5.515.2-9.061.2-3.447.492-7.386.886-11.72v-.1c-.1-3.742-.591-6.6-1.674-8.47a6.417,6.417,0,0,0-2.659-3.053,5.925,5.925,0,0,0-2.659-.689,4.887,4.887,0,0,0-3.152,1.083,9.833,9.833,0,0,0-2.167,2.364,12.024,12.024,0,0,0-1.379,2.758c-.394.886-.591,1.576-.788,2.068a61.211,61.211,0,0,0-2.561,9.75c-.886,4.136-1.773,9.356-2.758,15.659a14.4,14.4,0,0,0-.492,1.97,11.518,11.518,0,0,0-.492,1.97,27.883,27.883,0,0,1-.2-2.955c0-.985,0-1.97-.1-3.053a51.338,51.338,0,0,1,.689-10.932,51.913,51.913,0,0,0,.886-11.227,9.983,9.983,0,0,0-.788-4.136,8.965,8.965,0,0,0-1.576-2.364,3.91,3.91,0,0,0-1.97-1.083,4.639,4.639,0,0,0-1.97-.2,4.411,4.411,0,0,0-3.349,1.477c-1.674,1.97-2.265,5.712-1.674,11.227a.832.832,0,0,0,.2.591l.492,1.182c-.1.2-.1.3-.2.492-.689,2.167-1.28,4.038-1.674,5.614A97.376,97.376,0,0,1,134.3,89.648c-1.083,2.561-1.674,4.136-1.871,4.727a22.7,22.7,0,0,1-2.167,4.924,7.856,7.856,0,0,1-1.083,1.379,2.1,2.1,0,0,1-1.379-1.083,7.4,7.4,0,0,1-.788-2.364,24.718,24.718,0,0,1-.394-2.659,16.114,16.114,0,0,1-.1-1.97,71.9,71.9,0,0,1,.2-8.076c.2-2.561.492-5.318.985-8.371.394-2.167.788-4.235,1.083-6.3.3-1.97.492-3.349.689-4.136,0-.2.1-.591.2-1.182a17.75,17.75,0,0,1,.492-1.871c.2-.689.3-1.28.492-1.871a10.336,10.336,0,0,0,.2-1.28,3.316,3.316,0,0,0-1.083-1.97c-.689-.788-2.462-1.28-5.121-1.674-1.379-.3-2.462-.394-3.25-.492a2.148,2.148,0,0,0-1.477.2,1.037,1.037,0,0,0-.394.985,20.04,20.04,0,0,0,.1,2.167c0,.886,0,2.659-.1,5.22a3.035,3.035,0,0,0-.1.985c-.591,5.023-2.462,12.212-5.417,21.568-.985,2.955-1.773,5.417-2.462,7.189q-1.034,2.807-1.773,4.432a14.465,14.465,0,0,1-1.182,2.265c-.3.394-.492.689-.591.788a2.21,2.21,0,0,1-1.477-.788c-.492-.591-.788-1.97-.788-4.235V94.473c0-.591.1-1.28.2-2.167s.2-1.97.3-3.25.2-2.955.394-5.023c.2-2.856.394-5.121.492-6.993.1-1.773.2-3.25.3-4.235a14.668,14.668,0,0,1,.1-2.364V69.36c-.1-3.841-2.758-6.993-7.879-9.356A27.438,27.438,0,0,1,95.5,57.837a4.739,4.739,0,0,1-1.182-.985V55.276c0-.689.1-1.674.2-2.955a33.46,33.46,0,0,0,.2-5.023,8.418,8.418,0,0,0-.886-3.447,9.367,9.367,0,0,0-1.477-2.068A3.1,3.1,0,0,0,90.67,40.9a11.3,11.3,0,0,0-1.379-.2,5.293,5.293,0,0,0-2.068.492,4.592,4.592,0,0,0-1.871,1.576,8.265,8.265,0,0,0-1.379,2.955,16.9,16.9,0,0,0-.492,4.826,16,16,0,0,0,1.576,6.106,15.416,15.416,0,0,1,.886,3.053c.1.689.2,1.182.2,1.379a45.8,45.8,0,0,1-1.576,11.227l-1.182,4.727c-.1.3-.1.591-.2.886-.2.689-.394,1.379-.591,1.97a97.371,97.371,0,0,1-3.546,10.735c-1.083,2.561-1.674,4.136-1.871,4.727a22.7,22.7,0,0,1-2.167,4.924,7.848,7.848,0,0,1-1.083,1.379,2.1,2.1,0,0,1-1.379-1.083,7.4,7.4,0,0,1-.788-2.364c-.2-.985-.3-1.773-.394-2.659a16.118,16.118,0,0,1-.1-1.97,71.9,71.9,0,0,1,.2-8.076c.2-2.561.492-5.318.985-8.371.394-2.167.788-4.235,1.083-6.3.3-1.97.492-3.349.689-4.136,0-.2.1-.591.2-1.182a17.748,17.748,0,0,1,.492-1.871c.2-.689.3-1.28.492-1.871a10.346,10.346,0,0,0,.2-1.28,3.315,3.315,0,0,0-1.083-1.97c-.689-.788-2.462-1.28-5.121-1.773-1.379-.3-2.462-.394-3.25-.492a2.148,2.148,0,0,0-1.477.2,1.037,1.037,0,0,0-.394.985,20.035,20.035,0,0,0,.1,2.167c0,.985,0,2.856-.1,5.614s-.394,6.5-.689,11.03C63,85.511,62.7,91.223,62.7,93.292a32.412,32.412,0,0,0,.886,6.6,22.966,22.966,0,0,0,2.068,5.318c1.379,2.167,2.758,3.546,4.333,4.136a11.122,11.122,0,0,0,4.038.886c3.644-.1,6.6-2.856,8.864-8.174a31.669,31.669,0,0,0,1.773-5.121q1.182-3.693,2.955-10.046c.394-1.477.788-2.758,1.083-4.038a1.4,1.4,0,0,0,.2-.591,1.358,1.358,0,0,0,.3-.394c.1-.2.2-.492.394-.886a9.945,9.945,0,0,0,.788-2.167c1.576-5.909,2.561-10.341,3.053-13.394a9.216,9.216,0,0,1,3.152,2.659,4.087,4.087,0,0,1,.591,1.379l.3,12.212V93.489a47.883,47.883,0,0,0,.985,7.386,9.1,9.1,0,0,0,1.182,2.856c2.561,4.333,5.811,6.4,9.652,6.3a4.181,4.181,0,0,0,2.167-.788,9.52,9.52,0,0,0,2.659-3.053,46.965,46.965,0,0,0,3.152-6.6c.3-.788.591-1.576.886-2.462a15.3,15.3,0,0,0,.492,2.265,22.966,22.966,0,0,0,2.068,5.318c1.379,2.167,2.758,3.546,4.333,4.136a11.122,11.122,0,0,0,4.038.886c3.644-.1,6.6-2.856,8.864-8.174a31.655,31.655,0,0,0,1.773-5.121c.2-.689.492-1.576.689-2.462l.3,5.318a21.989,21.989,0,0,0,1.083,5.417,11.146,11.146,0,0,0,2.068,4.038,4.309,4.309,0,0,0,3.546,1.576c3.939-.1,7.189-4.235,9.455-12.311.788-2.856,2.068-9.553,3.939-19.993a20.165,20.165,0,0,1,.788-3.742c-.1,1.477-.1,3.152-.1,4.826s-.1,3.546-.2,5.417q-.591,10.193-.591,12.114a17.635,17.635,0,0,0,.886,5.614,9.522,9.522,0,0,0,1.871,3.447,5.266,5.266,0,0,0,2.364,1.674,7.715,7.715,0,0,0,2.561.394c3.546-.1,6.4-3.546,8.864-10.341a28.36,28.36,0,0,0,.985-3.053c.394-1.379.886-3.152,1.477-5.22l.1,3.447a.1.1,0,0,0,.1.1c1.379,9.849,4.727,14.674,10.046,14.576,4.53-.1,8.273-4.53,11.326-13.3C202.452,90.928,203.437,87.875,204.422,84.625Z" transform="translate(-0.947 -0.616)"/>
    <path id="Path_5" data-name="Path 5" class="cls-1" d="M239.137,70.456c2.167-.1,4.333-.2,6.6-.1s4.432.2,6.7.394q3.25.3,6.2.3a19.083,19.083,0,0,0,.788-4.924c.1-1.773.2-3.447.2-5.023q-3.989.148-8.568.3c-3.053.1-6.106.1-9.258.1s-6.3,0-9.553-.1c-3.151-.1-6.3-.1-9.356-.2L222,109.358c3.053-.1,6.106-.2,9.258-.2s6.2,0,9.356.1,6.2.1,9.258.1,6.008,0,8.864-.2a10.339,10.339,0,0,1,.3-2.364,18.435,18.435,0,0,0,.394-2.462,19,19,0,0,0,.1-2.364,3.328,3.328,0,0,0-.591-1.97c-2.364,0-4.629,0-6.894.1s-4.53.1-6.7.1-4.333-.1-6.4-.3a29.512,29.512,0,0,1-6.008-1.182,9.593,9.593,0,0,0-.2-2.364,19.12,19.12,0,0,1-.2-2.364,6.546,6.546,0,0,1,.3-2.068,3.219,3.219,0,0,1,1.083-1.477,15.539,15.539,0,0,1,4.727-.886,53.855,53.855,0,0,1,5.614.1c1.97.1,3.94.3,5.811.394a22.648,22.648,0,0,0,5.22-.1,9.716,9.716,0,0,1,.3-2.364c.2-.788.3-1.674.492-2.462a9.543,9.543,0,0,0,.3-2.265,4.8,4.8,0,0,0-.2-2.068,47.816,47.816,0,0,0-5.515-.3h-5.811c-1.97,0-3.841,0-5.712-.1a19.177,19.177,0,0,1-5.023-.788c-.2-.591-.394-1.182-.591-1.97a18.15,18.15,0,0,1-.394-2.265,16.689,16.689,0,0,1-.1-2.167,5.736,5.736,0,0,1,.3-1.871A31.411,31.411,0,0,1,239.137,70.456Zm16.447-1.773H254.8v-.689h.788Zm.689-1.477h-.689v-.788h.689Zm-.591-3.053v.689a4.04,4.04,0,0,1,1.083.1c.3.1.493.3.493.788h-1.576v-.886c-.394,0-.591,0-.69-.1-.1,0-.1-.3-.1-.591ZM254.2,65.63c.394,0,.591,0,.591.1a2.148,2.148,0,0,1,.1.591H254.2Zm-.394,1.083a.493.493,0,0,1,0,.788c-.1.1-.3-.1-.493-.394C253.516,66.714,253.614,66.615,253.811,66.714Zm-1.97-.394h.689V64.744a.656.656,0,0,1,.689.492,3.692,3.692,0,0,1,.1,1.083h-.788c.2.2.2.3.1.394a.738.738,0,0,1-.492.1.753.753,0,0,1-.492-.2C251.546,66.615,251.644,66.517,251.841,66.32Zm-.492-1.871v.591c-.1.3-.1.394-.2.492-.1,0-.1-.2-.1-.788Q251.349,64.153,251.349,64.449Zm-.3,1.871v.788h-.886V66.32Zm-1.576-2.265h.689v.689h-.689Zm-.788,1.477h1.477c0,.394-.2.591-.492.591s-.689.1-.985.1Zm-2.265.689h-.689v-.689h.689Zm-2.954.394a.656.656,0,0,1,.689-.492V64.547h.689a2.186,2.186,0,0,1,.1-.886c.1-.2.3-.2.689.2v.689h-.886v1.576h-.689V67.7h-.788C243.372,67.3,243.372,67.009,243.47,66.615Zm-.394-2.068a.747.747,0,0,1,.2.394.212.212,0,0,1-.2.2c-.1,0-.3-.2-.493-.591A.448.448,0,0,1,243.076,64.547Zm13.788,40.478a.738.738,0,0,1,.1.492.752.752,0,0,1-.2.492c-.1.1-.2-.1-.394-.492C256.667,105.025,256.766,104.926,256.864,105.025Zm-1.576,1.28c.1,0,.2-.1.394-.1,0,.394-.1.689-.394.788a.592.592,0,0,1-.394.1C254.894,106.7,254.993,106.4,255.288,106.305Zm-4.432-3.349a.748.748,0,0,1,.2.394.212.212,0,0,1-.2.2c-.1,0-.3-.2-.492-.492C250.561,102.858,250.659,102.858,250.856,102.957Zm-3.349,2.955a3.694,3.694,0,0,1-1.083.1v-.788H248C248,105.616,247.9,105.813,247.508,105.911Zm1.97-.591h-.689v-.689c.394,0,.591,0,.591.1C249.478,104.729,249.478,104.926,249.478,105.32Zm-1.28-2.561h.3a.362.362,0,0,0,.3-.1v-.1a.769.769,0,0,1-.394.394c-.1,0-.3.1-.394.1C248.1,102.858,248.1,102.76,248.2,102.76Zm-.886.985H248v.886h-.689Zm-1.576-.788h.788v.689h-.788Zm-.394,3.152c.1,0,.2-.1.394-.1,0,.394-.1.689-.394.788a.593.593,0,0,1-.394.1A1.023,1.023,0,0,1,245.341,106.108Zm-.985-3.447h.3a.362.362,0,0,0,.3-.1c.1,0,.1-.2.1-.394,0,.394,0,.591-.1.689s-.3.1-.689.1C244.258,102.76,244.258,102.661,244.356,102.661Zm-.2,1.871h.886v.689h-.886Zm-4.235-2.265c.1-.1.2-.2.394-.1a.942.942,0,0,1,.2.689c.394,0,.591,0,.689-.1s.1-.3.1-.689c.394.2.492.394.492.689a.6.6,0,0,1-.3.591.651.651,0,0,1-.591.1.478.478,0,0,1-.3-.591c-.394,0-.591-.1-.591-.2C239.728,102.563,239.826,102.366,239.924,102.267Zm1.083,2.167a.512.512,0,0,1-.2.394c-.1.1-.2-.1-.394-.394.2-.394.3-.492.394-.394A.512.512,0,0,1,241.008,104.434Zm-2.167-.886h.886v.886h-.886Zm.886,1.576v.788H241.2c0,.394-.2.689-.492.689a3.35,3.35,0,0,1-.985.1v-.886c-.394,0-.689,0-.689-.1-.1-.1-.1-.3-.1-.689Zm-3.447-.985a1.07,1.07,0,0,1,.492.1,1.249,1.249,0,0,0,.591.1V102.76h.591c0-.394.1-.689.3-.689s.3,0,.394.1a.591.591,0,0,1,.1.394c0,.1-.3.2-.689.2a4.035,4.035,0,0,1-.1,1.083c-.1.3-.2.492-.591.492.1.2.2.3.1.394a.512.512,0,0,1-.394.2c-.2,0-.394.1-.591.1h-.591v.788a.851.851,0,0,0,.591.3.752.752,0,0,0,.492-.2.747.747,0,0,1,.394-.2c.1,0,.1,0,.1.2a.942.942,0,0,1-.2.689.44.44,0,0,1-.492,0,1.92,1.92,0,0,0-.788-.1,1.776,1.776,0,0,0-.985.2v-.689a1.458,1.458,0,0,1,.1-.689,1.356,1.356,0,0,1,.3-.394c.1-.1.3,0,.492.2,0-.394,0-.591.1-.689Q236.133,104.139,236.281,104.138Zm-2.068.2v-.886c.394,0,.591,0,.689.1s.1.3.1.689Zm.1-2.364a.97.97,0,0,1,.788.3q.148.3.886-.3c0,.2-.1.3-.394.394a1.675,1.675,0,0,1-.689.1.833.833,0,0,1-.591-.2C234.114,102.366,234.114,102.169,234.311,101.972Zm-.394,2.659a1.281,1.281,0,0,1,0,.985c-.1.1-.2-.1-.394-.492C233.72,104.631,233.917,104.532,233.917,104.631Zm-1.182-1.871h.886v.689h-.886Zm.394,3.349a.512.512,0,0,1,.2.394c0,.2-.1.3-.2.492-.1.1-.3,0-.493-.394C232.833,106.207,233.03,106.01,233.129,106.108Zm20.288-20.19c-.1.1-.3,0-.493-.394.2-.394.394-.591.493-.492a.512.512,0,0,1,.2.394A.579.579,0,0,1,253.417,85.919Zm-1.182-2.659a3.325,3.325,0,0,0,1.083.689c.394.1.493.394.493.788h-1.576Zm-2.462,2.955a4.794,4.794,0,0,1,1.182.1c.394.1.493.3.493.689h-1.674Zm-1.379-2.462h.788v.886h-.788Zm-.788,3.152h.689v.689h-.689Zm-1.576-2.265h.788v.886h-.788Zm-1.477.788a1.581,1.581,0,0,1,1.083.492,1.084,1.084,0,0,1,.394.985h-1.576Zm-.394.985c.1.1.1.2.1.394s0,.3-.1.394-.2,0-.394-.394C243.962,86.509,244.159,86.312,244.159,86.411Zm-2.265-1.97a.592.592,0,0,1,.1.394c0,.1,0,.2-.1.2s-.2-.2-.394-.492C241.7,84.343,241.894,84.343,241.894,84.441Zm-4.333,1.379a.868.868,0,0,1,.788.2V86.8a2.142,2.142,0,0,1,.985-.2c.2.1.3.1.3.3a.528.528,0,0,1-.3.394,2.119,2.119,0,0,1-.985.2V86.8a1.273,1.273,0,0,1-.788-.2.528.528,0,0,1-.3-.394C237.265,86.017,237.364,85.919,237.561,85.82Zm-2.265.886h.886V87.4H235.3Zm-2.167-3.841a3.693,3.693,0,0,1,1.083.1c.3.1.492.2.492.591h-1.576Zm9.159-16.841a.591.591,0,0,1,.1.394c0,.1,0,.2-.1.2s-.2-.2-.394-.591C242.091,65.926,242.19,65.926,242.288,66.024Zm-.492-2.068c.1,0,.1.3.1.591-.394,0-.591-.1-.689-.394,0-.1-.1-.2-.1-.394C241.5,63.858,241.7,63.956,241.8,63.956Zm-1.379,1.477c.394,0,.591,0,.591.1a2.147,2.147,0,0,1,.1.591h-.689Zm0,1.477h.689V67.8h-.689Zm-.886-2.364v1.576a3.426,3.426,0,0,0-1.477-.689c-.591-.2-.788-.394-.788-.886Zm-2.265,1.477h.886v.788h-.886Zm-1.477-2.265h.886v.689h-.886Zm-2.068,2.167a2.006,2.006,0,0,1,1.28.1v.788c.1,0,.2.1.394.1l.3.3c.1.1.1.2.1.492H235v-.886c-.591.2-.985.3-1.28.1a.5.5,0,0,1-.394-.492C233.227,66.221,233.424,66.024,233.72,65.926Zm-1.773,0c.2,0,.3.1.394.394a1.676,1.676,0,0,1,.1.689.832.832,0,0,1-.2.591c-.1.1-.2.1-.394-.1ZM229.19,96.457a1.924,1.924,0,0,1,.1.689.512.512,0,0,1-.2.394,1.693,1.693,0,0,1-.788-.2,2.444,2.444,0,0,0,.1.788,3.7,3.7,0,0,1,.1.985.832.832,0,0,1-.2.591c-.1.1-.394.1-.689-.1a7.046,7.046,0,0,0-.1-1.674c-.1-.3-.591-.3-1.28.1a2.78,2.78,0,0,1,1.083-.689,4.042,4.042,0,0,1,1.083-.1V95.669h.886c.2-.394.2-.591,0-.689a1.676,1.676,0,0,0-.689-.1,1.459,1.459,0,0,1-.689-.1c-.2-.1-.2-.3,0-.689h2.265a4.044,4.044,0,0,1-.1,1.083.656.656,0,0,1-.689.492A.665.665,0,0,0,229.19,96.457Zm-1.773,6.894v-.689h-1.477c-.2-.394-.3-.689-.2-.788a.511.511,0,0,1,.394-.2,1.923,1.923,0,0,1,.689.1,1.923,1.923,0,0,0,.689.1v.788a.994.994,0,0,1,.886-.1.558.558,0,0,1,0,.985A.972.972,0,0,1,227.417,103.351Zm.689.886v.689h-.689v-.689Zm-1.379-4.629h-.69v-.886h.69Zm.788.788c.2.2.2.3.2.394a.512.512,0,0,1-.394.2c-.2,0-.394.1-.591.1h-.591V100.4Zm-1.97-3.349c-.1,0-.1-.1-.1-.3,0-.1.1-.3.1-.394.1-.1.3,0,.492.2C225.841,96.949,225.644,97.047,225.546,97.047Zm.689-8.962c.394,0,.591,0,.591-.1a3.5,3.5,0,0,0,.1-.689c.591.2.886.492.886.788a1.588,1.588,0,0,1-.3.886,10.74,10.74,0,0,0-.591,1.083,1.427,1.427,0,0,0-.1,1.083c-.394,0-.591-.1-.689-.3a.832.832,0,0,1,0-.689c.1-.3.1-.591.2-.985A1.427,1.427,0,0,0,226.235,88.085Zm2.955-5.22c.1,0,.1.2.1.591H228.4v-.591h-1.477c0-.394.2-.689.493-.689a3.35,3.35,0,0,1,.985-.1v.886A4.461,4.461,0,0,1,229.19,82.865Zm0,6.8c.2-.2.3-.2.394-.1a.738.738,0,0,1,.1.492.752.752,0,0,1-.2.492c-.1.1-.2.1-.394-.1ZM228.8,91.04a.714.714,0,0,1,0,.985c-.1.1-.3.1-.492-.1v-.788C228.5,90.941,228.7,90.941,228.8,91.04Zm-.394-2.167V87.3c.2,0,.3.1.492.3a.985.985,0,0,1,0,1.182A.888.888,0,0,1,228.4,88.873Zm.788,3.841V93.4H228.3v-.689Zm-2.068-13.1V78.04c.788,0,1.083.3,1.083.788C228.2,79.418,227.811,79.615,227.121,79.615Zm0-2.265h-.689v-.689h.689Zm-.1,7.78v.689h-.689v-.689Zm.591,6.8v.886h-.788v-.886Zm-.886,1.576a3.494,3.494,0,0,1,.1.689h-.689V93.4C226.53,93.4,226.727,93.4,226.727,93.5Zm3.545,3.447c.1.1.1.2.1.394s0,.3-.1.394-.2,0-.394-.394C230.076,96.949,230.174,96.85,230.273,96.949Zm-.394-4.136c.2-.2.3-.2.394-.1s.1.2.1.394a.362.362,0,0,1-.1.3A5.839,5.839,0,0,1,229.879,92.813Zm-.1,9.159h.689v.788h-.689Zm.2-13v-.788h.689v.788Zm0-1.674v-.689h.689V87.3Zm.3-1.477c-.3,0-.689.1-.985.1v-.689h1.477A.624.624,0,0,1,230.273,85.82Zm-.2-1.477v-.886h.689v.886Zm.2-1.379a.512.512,0,0,1-.394-.2,1.692,1.692,0,0,1,.2-.788c-.2.2-.3.3-.394.1a.738.738,0,0,1-.1-.492c0-.2.1-.3.2-.492.1-.1.2-.1.394.1v.689c.2.2.3.3.394.3a.512.512,0,0,0,.2-.394c0-.2.1-.394.1-.689V80.4h-1.477a.656.656,0,0,1,.492-.689,3.35,3.35,0,0,1,.985-.1V80.4a1.878,1.878,0,0,1,.689,1.182,4.8,4.8,0,0,1,.1,1.182,1.675,1.675,0,0,0-.689.1A2.219,2.219,0,0,1,230.273,82.964Zm-.394-10.243a.738.738,0,0,1,.1.492.752.752,0,0,1-.2.492c-.1.1-.2.1-.394-.1v-.689C229.682,72.623,229.879,72.623,229.879,72.721Zm-.394-.689a.54.54,0,0,1,.394-.591c.1,0,.3-.1.394-.1,0,.394,0,.591-.1.591C230.076,72.032,229.879,72.032,229.485,72.032Zm.689,6.992a.659.659,0,0,1,.394-.689c.1,0,.2-.1.394-.1,0,.394-.1.689-.394.788Zm1.477,4.432c.2-.1.3-.1.3.2v.788c-.1.3-.1.394-.2.3C231.652,84.737,231.652,84.343,231.652,83.456Zm-.591-15.167h.886v.886h-.886Zm-.2,6.6c0,.3.1.689.1.985-.394,0-.591,0-.689-.1s-.2-.2-.2-.3a1.072,1.072,0,0,1,.1-.492,1.247,1.247,0,0,0,.1-.591A.551.551,0,0,1,230.864,74.888ZM228.8,64.35h1.576c0,.394-.2.689-.492.689a3.692,3.692,0,0,1-1.083.1Zm0,1.576h.886v.788H228.8Zm-.2,8.47h.886v.788H228.6Zm-1.97-7.78h.689V67.5h-.689Zm-.1,3.841h1.477c0,.2,0,.394-.1.394h-.3a.362.362,0,0,0-.3.1c-.1,0-.1.2-.1.394,0,.394,0,.591.1.591a3.5,3.5,0,0,0,.689.1c0,.394-.2.492-.492.394a.9.9,0,0,0-.985.394Zm-.394,2.561c.1,0,.2.1.2.3a.746.746,0,0,1-.2.394c-.1.1-.3.1-.493-.2C225.841,73.115,226.038,72.918,226.136,73.017Zm.3,1.28v.788a1.249,1.249,0,0,0,.591-.1,1.465,1.465,0,0,1,.591-.1.511.511,0,0,1,.394.2c.1.1,0,.394-.2.689.394,0,.591,0,.591.1a3.5,3.5,0,0,1,.1.689h-.689v-.886h-1.477v-.689c-.394,0-.689,0-.689-.1-.1-.1-.1-.3-.1-.689Zm-.985,12.212h.886v.69h-.886Zm-.985,6.2h.886V93.4h-.886Zm1.477,12.9h-.886v-.788h.886Zm-.886-1.477v-.886h1.576c.394.394.3.689-.2.689A3.352,3.352,0,0,1,225.053,104.138Zm3.447,2.068a3.035,3.035,0,0,1-.985.1,1.855,1.855,0,0,1-.788-.2c-.2-.1-.3-.3-.1-.492a1.985,1.985,0,0,1,1.083.3.965.965,0,0,0,1.182-.3A.54.54,0,0,1,228.5,106.207Zm.492-4.333h-.886v-.886h.886Zm.492-1.97c-.1.3-.2.492-.394.492V98.131c.2-.2.3-.2.394,0a2.186,2.186,0,0,1,.1.886A2.726,2.726,0,0,1,229.485,99.9Zm.591,5.909c-.1.1-.2.1-.394-.1v-.788c.2-.2.3-.2.394-.1a1.281,1.281,0,0,1,0,.985Zm.394-2.364h.886v.886h-.886Zm1.379,3.053c-.1.1-.3.1-.689.1a.659.659,0,0,1,.394-.689l.394-.1C231.947,106.207,231.947,106.4,231.849,106.5Zm.3-18.417a.395.395,0,0,1-.492-.492c0-.1.3-.2.689-.2A.942.942,0,0,1,232.144,88.085Zm.591-5.121c-.1.1-.2.1-.394,0,.2-.394.3-.591.394-.591s.1.1.1.2C232.932,82.668,232.833,82.767,232.735,82.964Zm-.1-14.674V67.6a4.041,4.041,0,0,1,1.083.1.624.624,0,0,1,.492.591Z" transform="translate(-3.359 -0.925)"/>
    <path id="Path_6" data-name="Path 6" class="cls-1" d="M313.881,110.164c.493-7.977.788-15.856.788-23.637s.3-15.462.788-23.046A10.085,10.085,0,0,0,312.7,62.6a18.13,18.13,0,0,0-3.25-.3c-1.083,0-2.265.1-3.349.2a9.2,9.2,0,0,0-2.758.788,29.289,29.289,0,0,0-3.25,4.333q-1.477,2.364-2.955,5.023l-2.954,5.023A29.285,29.285,0,0,1,290.934,82a104.959,104.959,0,0,1-6.106-9.553c-1.871-3.25-3.743-6.5-5.712-9.553-.886,0-1.871-.1-2.954-.2-.985-.1-2.069-.2-2.955-.2-.985-.1-1.97-.1-2.856-.1a9.375,9.375,0,0,0-2.462.3c-.3,3.546-.394,7.288-.493,11.129s-.2,7.682-.2,11.621v11.72c0,3.939,0,7.78-.1,11.523a3.37,3.37,0,0,0,1.674.886,10.711,10.711,0,0,0,2.561.394,13.838,13.838,0,0,0,2.856,0,15.651,15.651,0,0,0,2.56-.394l.493-30.137a29.33,29.33,0,0,1,3.447,4.924c.985,1.773,1.97,3.447,2.955,5.22s1.97,3.447,3.053,5.121a21.289,21.289,0,0,0,3.841,4.53,28.2,28.2,0,0,0,3.644-4.53c1.084-1.674,2.167-3.349,3.25-5.121.985-1.773,2.068-3.447,3.053-5.023a19.434,19.434,0,0,1,3.25-4.038l-.493,29.447ZM278.82,67.52c.1.1.1.2.1.394a.512.512,0,0,1-.2.394c-.1.1-.2-.1-.394-.394C278.524,67.618,278.721,67.52,278.82,67.52Zm-1.871-1.773h1.478a.656.656,0,0,1-.493.689,3.35,3.35,0,0,1-.985.1Zm.3,1.477c.1,0,.3-.1.394-.1a.709.709,0,0,1-.394.689c-.1,0-.3.1-.394.1C276.948,67.618,277.047,67.323,277.244,67.224ZM276.161,68.7h.788v.788h-.788Zm-1.083-4.136c.1.1.2,0,.3-.1-.1.2-.1.3-.3.394-.1,0-.3.1-.394.1C274.683,64.565,274.88,64.368,275.077,64.565Zm-.394,3.348h.689V68.7h-.689Zm.3,1.576c.1,0,.2-.1.394-.1a.54.54,0,0,1-.394.591c-.1,0-.3.1-.394.1A.9.9,0,0,1,274.979,69.49Zm-.394,2.955h.689v.689h-.689Zm0,2.955a.558.558,0,0,1,0,.985.79.79,0,0,1-.788-.1V75.5C274.191,75.3,274.388,75.3,274.585,75.4Zm.591,2.364c0,.394-.1.591-.394.689-.1,0-.3.1-.394.1,0-.394.1-.591.394-.689A.745.745,0,0,1,275.176,77.762Zm-5.023,16.349a.528.528,0,0,1,.3.394c0,.1,0,.2-.1.2a1.762,1.762,0,0,1-.689-.492C269.857,94.111,270.054,94.013,270.153,94.111Zm-.394-4.432c.2-.394.3-.492.394-.492s.1.1.1.3a.746.746,0,0,1-.2.394C270.054,89.975,269.956,89.876,269.759,89.679Zm.1-8.174v-.788h.788V81.5Zm.788,1.477h.788v.788h-.788Zm1.083,1.083c.1.1.1.2.1.394s0,.3-.1.394-.2,0-.394-.394C271.532,84.164,271.729,83.967,271.729,84.065Zm-.492,5.712h.689v.788h-.689Zm.2-7.485V81.5h.69v.788Zm.1-9.159c.2-.2.3-.2.394-.1a.592.592,0,0,1,.1.394c0,.1,0,.2-.1.2C271.827,73.724,271.729,73.527,271.532,73.133Zm.1-.689v-.788c.394,0,.591,0,.591.1a3.494,3.494,0,0,1,.1.689Zm1.084,1.083c.1.1.1.2.1.394a.511.511,0,0,1-.2.394c-.1.1-.2-.1-.394-.394C272.418,73.626,272.615,73.429,272.714,73.527Zm-.1,1.576c.1.1.1.2.1.394a.512.512,0,0,1-.2.394c-.1.1-.2-.1-.394-.394C272.418,75.1,272.517,75,272.615,75.1Zm0,23.834h.788v.689h-.788Zm1.477,3.053v.689H273.3v-.689Zm-.886,3.644a.994.994,0,0,1,.886-.1.542.542,0,0,1,.3.492c0,.2-.1.3-.3.492a.791.791,0,0,1-.788-.1Zm.2-7.485v-.886a.993.993,0,0,1,.886-.1.558.558,0,0,1,0,.985A.739.739,0,0,1,273.4,98.149Zm-.689-6.894v-.788h.788v.788Zm.1-5.22v-.788h.788v.788Zm.1-8.273c0-.394.1-.591.394-.689.1,0,.3-.1.394-.1,0,.394,0,.591-.1.689C273.6,77.762,273.3,77.762,272.911,77.762ZM273.5,68.7c.1,0,.3-.1.394-.1a.709.709,0,0,1-.394.689c-.1,0-.3.1-.394.1A.659.659,0,0,1,273.5,68.7Zm-.394-.788c0-.394.1-.591.394-.689.1,0,.3-.1.394-.1,0,.394,0,.591-.1.689A3.5,3.5,0,0,1,273.108,67.914Zm.689,4.53v.689h-.788v-.689Zm-.1,8.273h.788V81.5H273.7ZM273.3,64.565h.3a.362.362,0,0,0,.3-.1c.1,0,.1-.2.1-.394,0,.394,0,.591-.1.689s-.3.1-.69.1C273.206,64.664,273.206,64.565,273.3,64.565Zm-2.363.3c.394,0,.591,0,.689.1s.1.3.1.689h-.788Zm0,1.477h1.477V65.55h.788v.788h-.788c0,.394-.2.591-.493.591s-.689.1-.985.1ZM272.32,68.6c0,.394-.1.394-.394.2a1.664,1.664,0,0,1-.3-.985.666.666,0,0,1,.591.394A.745.745,0,0,1,272.32,68.6Zm-1.478.788a.851.851,0,0,0,.591.3h1.182a.852.852,0,0,1,.591.3.942.942,0,0,1-.2.689c-.1.1-.2.1-.394,0a2.51,2.51,0,0,1-.689-.2,1.278,1.278,0,0,0-.985.2Zm-.1,5.318c.394,0,.591,0,.689.1s.1.3.1.689h-.788Zm.3,2.856a2.421,2.421,0,0,1,.493,1.674,3.094,3.094,0,0,0-.985-.788.78.78,0,0,1-.493-.788A.658.658,0,0,1,271.039,77.565Zm-.689-9.258q.3.3-.3.3Q270.2,68.012,270.35,68.308Zm-1.083,5.614h.788v.788h-.788Zm-.2,8.273h.788v.689h-.788Zm.394,25.7q0-.591.3-.3Q269.907,107.9,269.464,107.9Zm1.28-6.4c-.1.1-.2-.1-.394-.394.2-.394.3-.492.394-.394s.1.2.1.394S270.842,101.5,270.744,101.5Zm.591,5.712c-.1.1-.2.1-.394-.1.2-.394.3-.591.394-.492.1,0,.1.1.1.3A.362.362,0,0,1,271.335,107.21Zm.1-4.235c-.1.1-.2,0-.394-.394.2-.394.3-.492.394-.394s.1.2.1.394S271.532,102.975,271.433,102.975Zm-1.28-3.053a.983.983,0,0,1-.492-.985,1.581,1.581,0,0,1,1.083.492c.394.3.689.689,1.084.985A3.062,3.062,0,0,1,270.153,99.922Zm.985-1.773c.2-.394.3-.591.3-.394v.591c-.1.3-.1.394-.2.492S271.138,98.641,271.138,98.149Zm.689-5.909a1.922,1.922,0,0,1-.689-.1,1.924,1.924,0,0,0-.689-.1v-.788h1.477a1.411,1.411,0,0,1,.2.689A.261.261,0,0,1,271.827,92.24Zm.2-3.152q0-.591.3-.3Q272.468,89.088,272.024,89.088Zm2.364,18.417c-.2,0-.394.1-.591.1h-.689a.894.894,0,0,0-.69.3,1.527,1.527,0,0,1,.2-.788.512.512,0,0,1,.394-.2,1.923,1.923,0,0,1,.689.1,3.035,3.035,0,0,0,.985.1C274.683,107.407,274.585,107.505,274.388,107.505Zm.394-7.879h-.689v-.689h.689Zm-.2-4.629c-.1,0-.3.1-.394.1,0-.394.1-.591.394-.689.1,0,.2-.1.394-.1C274.88,94.7,274.782,95,274.585,95Zm.394-2.856h-.69a.594.594,0,0,1-.1.394c-.1.2-.3.3-.69.3v-.689h.788c0-.394,0-.591.1-.689,0-.1.3-.1.591-.1Zm.2-5.22a.79.79,0,0,1-.788-.1v-.689a.994.994,0,0,1,.886-.1.542.542,0,0,1,.3.492C275.471,86.626,275.373,86.823,275.176,86.922Zm.985-15.758a1.248,1.248,0,0,0-.1.591.656.656,0,0,1-.689-.492,3.692,3.692,0,0,1-.1-1.083,1.525,1.525,0,0,1,.788.2.512.512,0,0,1,.2.394A.982.982,0,0,1,276.161,71.164Zm.69,1.379v-.788h.788v.788Zm.689,1.477c.394,0,.591,0,.591.1a3.491,3.491,0,0,1,.1.689h-.689Zm1.477,2.364h-.788V75.6a.261.261,0,0,1,.3-.3.888.888,0,0,1,.493.1,1.347,1.347,0,0,1,.3.394C279.214,75.99,279.214,76.187,279.017,76.384Zm2.462-4.53c.2-.2.3-.1.3.1v.788c-.1.3-.1.394-.2.394C281.479,73.035,281.479,72.641,281.479,71.853Zm-.1,2.265h1.478c.394.394.3.591-.2.689a6.064,6.064,0,0,1-1.281.1ZM280.3,71.656a.594.594,0,0,1,.1.394.344.344,0,0,1-.1.2c-.1,0-.2-.2-.394-.492C280.1,71.558,280.2,71.558,280.3,71.656Zm-.1,5.417c-.1,0-.3.1-.394.1,0-.394,0-.591.1-.591a3.493,3.493,0,0,1,.689-.1A.54.54,0,0,1,280.2,77.073Zm.394,2.364q0-.591.3-.3Q281.036,79.437,280.593,79.437Zm1.477-1.576h-.689v-.788h.689Zm0-2.167h.788v.788h-.788Zm1.379,7.485h-.788V82.49h.788Zm.985-1.773a.512.512,0,0,1-.394.2c-.2,0-.394.1-.689.1h-.689v-.788h1.576C284.434,81.111,284.532,81.308,284.434,81.406Zm12.212-3.053q.3,0-.3.591Q296.35,78.353,296.646,78.353Zm-.689,1.182c.1-.1.2-.1.394.1-.2.394-.3.591-.394.492-.1,0-.1-.1-.1-.3C295.76,79.831,295.858,79.732,295.957,79.535Zm-5.121,11.326h.788v.788h-.788ZM286.5,81.012h.788V81.8H286.5Zm-.689,0h-.788v-.788h.788Zm.788,5.121a.737.737,0,0,1-.492-.1c-.1-.1-.1-.2.1-.394a2.3,2.3,0,0,1,1.083-.2C286.994,85.937,286.8,86.134,286.6,86.134Zm.591,2.462q0-.591.3-.3Q287.634,88.6,287.191,88.6Zm.492-5.515c-.1,0-.2-.2-.394-.492.2-.2.3-.2.394-.1a.592.592,0,0,1,.1.394A.344.344,0,0,1,287.684,83.081Zm1.674,7.78v-.788h.788v.788Zm2.364,2.265a.512.512,0,0,1-.394.2,1.25,1.25,0,0,1-.591-.1,1.249,1.249,0,0,0-.591-.1v-.689h1.478C291.722,92.732,291.82,93.028,291.722,93.126Zm1.084-6.106c-.1,0-.3.1-.394.1a.54.54,0,0,1,.394-.591c.1,0,.3-.1.394-.1A.54.54,0,0,1,292.805,87.02Zm1.181-1.379H293.2v-.788h.788Zm.1-2.265V81.9h.689v1.477Zm.985,3.053c-.1,0-.3.1-.394.1,0-.394.1-.591.394-.689.1,0,.3-.1.394-.1A.66.66,0,0,1,295.07,86.429Zm.492-3.742h.788v.689h-.788Zm1.084,2.659c-.1.1-.2,0-.394-.394.2-.394.3-.492.394-.394s.1.2.1.394C296.843,85.149,296.744,85.247,296.646,85.346Zm.1-3.644c-.1,0-.2-.2-.394-.492.2-.2.3-.2.394-.1a.592.592,0,0,1,.1.394C296.843,81.6,296.843,81.7,296.744,81.7Zm.689,2.167c-.1.1-.2,0-.394-.394.2-.394.3-.492.394-.394s.1.2.1.394A.592.592,0,0,1,297.434,83.868Zm3.349-7.189c-.2,0-.394.1-.689.1h-.69V75.99h1.478c.2.2.3.3.2.492C301.078,76.58,300.881,76.679,300.782,76.679Zm4.137-2.462a4.3,4.3,0,0,1-.887,1.083V73.724C304.82,73.724,305.116,73.823,304.919,74.217Zm1.674,26q.591,0,.591.3v.591c-.1.3-.1.492-.2.788a.609.609,0,0,0,.2.689,1.7,1.7,0,0,1-.591-1.182Zm.69-17.038c.1.1.1.2.1.394s0,.3-.1.394-.2,0-.394-.394C307.085,83.179,307.184,83.081,307.282,83.179Zm-.2-12.409c.2-.394.3-.492.394-.394s.1.2.1.394,0,.3-.1.394C307.48,71.262,307.282,71.065,307.085,70.77Zm.591,33.682c-.1.1-.2.1-.394.1s-.3-.1-.394-.1c-.1-.1.1-.2.394-.394C307.578,104.157,307.775,104.354,307.676,104.452ZM311.517,75.4c.394.394.3.591-.2.689a6.057,6.057,0,0,1-1.281.1V75.4Zm-.788-.788v-.886h.788v.886Zm.689,8.371h-.788v-.788h.788Zm.3,5.909a.738.738,0,0,1,.1.492.752.752,0,0,1-.2.492c-.1.1-.2.1-.394-.1V88.99C311.517,88.793,311.616,88.793,311.714,88.891Zm-.788,1.182c0,.2-.1.3-.3.492a.79.79,0,0,1-.788-.1v-.689a.994.994,0,0,1,.886-.1A.511.511,0,0,1,310.927,90.073Zm-.788-1.773c.1,0,.2-.1.394-.1,0,.394,0,.591-.1.689,0,.1-.3.1-.591.1C309.843,88.6,309.942,88.3,310.139,88.3Zm-.2-6.894v.788h-.788v-.788Zm-.69-2.265c0-.394.1-.591.394-.689.1,0,.3-.1.394-.1,0,.394,0,.591-.1.689S309.547,79.141,309.252,79.141Zm.69,3.841v.689h-.788v-.689Zm-.3,8.273c.1.1.1.3.1.689h-.788v-.788A2.408,2.408,0,0,1,309.646,91.255Zm-.492-6.106h-.788v-.788h.788Zm-1.477-3.742v-.788c.394,0,.591,0,.69.1s.1.3.1.689Zm.69,16.841c-.1.2-.1.394-.2.492s-.1-.2-.1-.689q.3-.591.3-.3C308.464,97.755,308.464,97.952,308.366,98.247Zm-.1-10.046c.2-.394.3-.492.394-.394s.1.2.1.394-.1.3-.1.394C308.563,88.694,308.464,88.5,308.267,88.2Zm.591,11.326c.394,0,.591,0,.689.1.1,0,.1.3.1.591h-.788Zm1.281,8.273h-.69v-.788h.69Zm.2-9.455h0c-.1,0-.2.1-.3.1s-.2.2-.394.3a.66.66,0,0,1,.394-.689c.1,0,.2-.1.394-.1A1.551,1.551,0,0,0,310.335,98.346Zm.1-4.136h-.689v-.788h.689Zm0-2.265h.788v.788h-.788Zm.689,6.894c.2-.2.3-.2.394-.1a.739.739,0,0,1,.1.492.752.752,0,0,1-.2.492c-.1.1-.2.1-.394-.1Zm.492,8.568c-.1,0-.2.1-.3.1h-.3l-.1.1c.1-.2.1-.394.3-.492.1,0,.3-.1.394-.1C311.714,107.308,311.714,107.407,311.616,107.407Zm.3-9.356h-.788v-.788h.788Zm.3-16.644h-.788v-.788h.788Zm.1-8.273h-.788v-.788h.788Zm-1.773-4.53c.1,0,.2-.1.394-.1,0,.394,0,.591-.1.689,0,.1-.3.1-.591.1A.548.548,0,0,1,310.532,68.6Zm-.689,1.773a3.037,3.037,0,0,1,.985-.1,1.92,1.92,0,0,1,.788.1c.2.1.2.2,0,.394-.394,0-.689-.1-.788-.3-.2-.2-.689-.1-1.379.2C309.35,70.573,309.547,70.474,309.843,70.376Zm-.394,6.2a.513.513,0,0,1-.394.2c-.2,0-.394.1-.689.1h-.69v-.788h1.576C309.449,76.384,309.547,76.482,309.449,76.58Zm-1.182-7.091c.3,0,.394.2.394.591h-.788C307.873,69.686,307.972,69.49,308.267,69.49Zm-1.773-4.038h1.477a.656.656,0,0,1-.492.689,3.351,3.351,0,0,1-.985.1Zm.2,3.546q.3.3-.3.3Q306.4,68.7,306.691,69Zm-1.477-1.28c.1,0,.3-.1.394-.1a.709.709,0,0,1-.394.689c-.1,0-.3.1-.394.1C304.919,68.111,305.017,67.815,305.214,67.717Zm-.394,3.742H306.4a.656.656,0,0,1-.493.689,3.692,3.692,0,0,1-1.083.1Zm-1.083-3.742c.1,0,.3-.1.394-.1a.709.709,0,0,1-.394.689c-.1,0-.3.1-.394.1C303.343,68.012,303.441,67.815,303.737,67.717Zm.394,2.955c0,.2-.1.3-.1.394-.1,0-.2.1-.3.1h-.3a.1.1,0,0,0-.1.1.984.984,0,0,1,.394-.492A.592.592,0,0,1,304.131,70.671Zm-.887,2.265v-.788h.887v.788Z" transform="translate(-4.041 -0.943)"/>
    <path id="Path_7" data-name="Path 7" class="cls-1" d="M361.969,86.632c-1.576-4.038-3.25-8.076-4.826-12.114-1.674-3.94-3.348-7.879-5.22-11.621l-9.061-.2c-1.97,3.742-3.841,7.583-5.614,11.621q-2.659,5.909-5.318,12.114c-1.773,4.136-3.546,8.174-5.417,12.311-1.773,4.136-3.742,8.076-5.614,12.015a17.476,17.476,0,0,1,3.152-.2,24.2,24.2,0,0,1,2.757.2,10.292,10.292,0,0,0,2.462,0,8.522,8.522,0,0,0,2.265-.591,9.587,9.587,0,0,0,1.477-2.364c.394-.788.887-1.674,1.28-2.462s.788-1.674,1.28-2.462c.394-.788.985-1.576,1.477-2.364,1.28-.2,2.757-.3,4.333-.394s3.25-.1,4.924-.2h5.22c1.773,0,3.447.1,5.22.1a12.847,12.847,0,0,1,1.379,2.561,24.363,24.363,0,0,1,.985,2.856c.3.985.591,1.97.886,3.053.3.985.591,1.97.985,2.955l10.538.2c-1.674-4.235-3.25-8.47-4.826-12.606Zm4.038,16.447c.1.1.1.2.1.394a.362.362,0,0,1-.1.3c-.1,0-.2-.1-.394-.492C365.81,103.079,365.908,102.981,366.007,103.079Zm-1.182-.689v.886h-.69v-.886Zm-.69-.788h-.788v-1.576h.788Zm-.985-4.629a.591.591,0,0,1,.1.394c0,.1,0,.2-.1.2s-.2-.2-.394-.591C362.954,96.875,363.052,96.776,363.15,96.973Zm-.492,1.674h.69v.689h-.69Zm-.394,1.28c.3-.3.394-.2.394.2v.788h-.886A1.087,1.087,0,0,1,362.264,99.928Zm-1.083-1.477a3.486,3.486,0,0,1-.1-.689h.689v.788C361.476,98.549,361.279,98.549,361.181,98.45Zm.689-2.856c-.788,0-1.182-.2-1.379-.591a7.5,7.5,0,0,0-.788-1.083,2.421,2.421,0,0,1,1.674.492A1.561,1.561,0,0,1,361.87,95.594Zm-.689,3.742v.788h-.788v-.788Zm-1.871-6.993a3.351,3.351,0,0,1-.985.1.656.656,0,0,1,.493-.689,3.349,3.349,0,0,1,.985-.1C359.7,92.049,359.605,92.344,359.31,92.344Zm.1,3.447c0,.1-.1.2-.1.3-.1,0-.2-.1-.394-.492.2-.2.3-.2.394-.1C359.408,95.5,359.507,95.594,359.408,95.791Zm-2.364-4.038c.1,0,.3-.1.394-.1a.709.709,0,0,1-.394.689c-.1,0-.3.1-.394.1C356.749,92.049,356.848,91.852,357.044,91.753Zm-1.083-1.576v-.886h.788v.886Zm-.689-1.576V87.125a.893.893,0,0,0,.689.3c.3,0,.492.1.689.1.2.1.394.1.591.3.2.1.2.394.2.788Zm-14.379,1.97a73.975,73.975,0,0,1,2.856-7.485c1.083-2.364,2.265-4.826,3.447-7.485a57.145,57.145,0,0,0,2.561,7.583c.985,2.364,2.068,4.924,3.152,7.583Zm6.008,3.152v.788h-.886v-.788Zm-1.477-.689v.689h-.788v-.689Zm-5.909-12.015c.1-.3.3-.492.493-.492s.3.2.492.492a2.007,2.007,0,0,1-.1,1.28h-.689v.689a.9.9,0,0,0,.492.3c.2,0,.3-.1.493-.2a.747.747,0,0,1,.394-.2c.1-.1.1,0,.1.2,0,.394-.1.591-.3.689a.628.628,0,0,1-.591,0,1.676,1.676,0,0,0-.689-.1,1.423,1.423,0,0,0-.689.2c0,.1-.1.3-.1.394a.767.767,0,0,1-.689.3v-.689h.886c0-.394.1-.886.1-1.379.1-.492.3-.492.689-.2C339.416,81.806,339.317,81.314,339.514,81.018Zm.689,3.546c0,.394,0,.591-.1.689,0,.1-.3.1-.591.1,0-.394.1-.591.394-.689A.362.362,0,0,1,340.2,84.564Zm-.788,8.371h1.477a1.411,1.411,0,0,1,.2.689.512.512,0,0,1-.394.2,1.249,1.249,0,0,1-.591-.1,1.25,1.25,0,0,0-.591-.1ZM341.287,82.1q.3.3-.3.3Q340.991,81.806,341.287,82.1Zm-.2-5.023c.2-.2.3-.2.394-.1a.592.592,0,0,1,.1.394.344.344,0,0,1-.1.2C341.385,77.571,341.287,77.473,341.09,77.079Zm.788-.689a1.4,1.4,0,0,1-.2-.591,6.408,6.408,0,0,1,.2-1.083.657.657,0,0,1,.689.492,3.692,3.692,0,0,1,.1,1.083C342.271,76.488,342.075,76.587,341.878,76.39Zm1.182.591a.593.593,0,0,1,.1.394c0,.1,0,.2-.1.2s-.2-.2-.394-.492C342.863,76.882,342.961,76.882,343.059,76.98Zm-.689,1.674a.512.512,0,0,1-.2.394c-.1.1-.2,0-.394-.394.2-.394.3-.492.394-.394C342.37,78.261,342.468,78.458,342.37,78.655Zm1.477-3.152a.744.744,0,0,1,.2.394.212.212,0,0,1-.2.2c-.1,0-.3-.2-.492-.492C343.552,75.4,343.749,75.306,343.847,75.5Zm-.492-.689c0-.2,0-.3.1-.3h.2c.1,0,.1.1,0,.2A.431.431,0,0,1,343.355,74.814Zm1.674-4.53h-.69v-.689c.394,0,.591,0,.591.1C345.029,69.693,345.029,69.889,345.029,70.283Zm.591,1.674c.1.1.1.3.1.689-.394,0-.591-.1-.689-.394,0-.1-.1-.3-.1-.394C345.325,71.859,345.62,71.859,345.62,71.958Zm.2-1.674c.2-.394.3-.492.394-.394s.1.2.1.394,0,.3-.1.394S345.916,70.677,345.817,70.283Zm3.348,1.083a5.805,5.805,0,0,1,.788.394,2.912,2.912,0,0,0,.985.2q-.591.591-.886.591a1.4,1.4,0,0,1-.591-.2c-.2-.1-.394-.3-.591-.394a.994.994,0,0,0-.886.1q.3-.591.591-.591C348.772,71.17,348.969,71.268,349.165,71.367Zm-.394-.985v-.689h.689v.689Zm1.576,0c.2-.394.3-.492.394-.394s.1.2.1.394,0,.3-.1.394S350.544,70.776,350.347,70.382Zm.985,5.023a11.8,11.8,0,0,1,1.181,1.083h1.478a.542.542,0,0,1,.2.492.511.511,0,0,1-.394.2c-.2,0-.394.1-.591.1h-.591v-.788a7.336,7.336,0,0,1-1.773-.2c-.394-.1-.591-.591-.492-1.379A1.839,1.839,0,0,1,351.332,75.4Zm-.3-5.712V68.9c.394,0,.591,0,.689.1s.1.3.1.689Zm1.97,8.273c0,.2,0,.3-.1.394s-.2,0-.394-.394c.2-.394.3-.492.394-.394S353.006,77.768,353.006,77.965Zm-1.379,0h-.788v-.689c.394,0,.591,0,.689.1C351.628,77.374,351.628,77.571,351.628,77.965Zm-1.871-3.841a3.7,3.7,0,0,1-1.083.1,3.721,3.721,0,0,1,.788-.689c.1-.1.394-.1.788-.1A.656.656,0,0,1,349.756,74.124Zm-1.477-.985q.3.3-.3.3Q347.984,72.844,348.279,73.139Zm4.629,19.993h.788v.689h-.788Zm.2-8.273h.788c0,.394,0,.492-.1.3A.766.766,0,0,0,353.1,84.859Zm.689-1.083a1.472,1.472,0,0,0-.689.3c.394-.394.591-.689.788-.689.1-.1.394-.1.689-.1.2.2.3.394.2.394h-.394C354.188,83.678,353.991,83.776,353.794,83.776Zm1.674-1.97a.939.939,0,0,1-.689.591.738.738,0,0,1-.493-.1c-.1-.1-.1-.2.1-.394A7.853,7.853,0,0,1,355.469,81.806Zm-.886-.788v-.689a.993.993,0,0,1,.886-.1.558.558,0,0,1,0,.985C355.272,81.314,354.976,81.215,354.583,81.018Zm0,3.841h.886v1.477h-.886Zm2.954,5.318h.788v.689h-.788Zm1.477-.788h-.69V88.7h.69Zm.394.985c.3,0,.394.2.394.591h-.788C359.014,90.572,359.113,90.375,359.408,90.375Zm.788,7.386c0,.2-.1.3-.1.394-.1.1-.2-.1-.394-.394.2-.394.3-.492.394-.394A.593.593,0,0,1,360.2,97.761Zm.591-6.3q.3.3-.3.3Q360.491,91.163,360.787,91.458Zm-.3,1.773H359.7v-.788h.788Zm-1.379-5.417c-.492,0-.689-.2-.689-.591H359.9A.689.689,0,0,1,359.113,87.814Zm-.689-2.167h-.788v-.788h.788Zm-.788-2.265v.886h-.788c0,.394,0,.591-.1.591a3.5,3.5,0,0,1-.69.1v-.689h.788a2.747,2.747,0,0,1,.1-.985C357.044,82.89,357.241,82.988,357.635,83.382Zm-.689-1.477h-.788v-.886h.788Zm-.394-1.97c.1.1.1.2.1.394s-.1.3-.1.394c-.1.1-.2-.1-.394-.394C356.355,79.935,356.453,79.837,356.552,79.935Zm-.394-1.083q0,.591-.886.591a6.377,6.377,0,0,1-1.379,0,1.925,1.925,0,0,0,.1.689c0,.3.1.492.1.689a.512.512,0,0,1-.2.394c-.1.1-.394,0-.689-.3-.2.394-.394.689-.69.689a.737.737,0,0,1-.492-.1c-.1-.1-.1-.2.1-.394a2.007,2.007,0,0,1,1.084-.2c0-.591-.1-.886-.2-.886a.89.89,0,0,0-.493.1,1.069,1.069,0,0,1-.492.1c-.2,0-.2-.3-.2-.886h2.265c0-.394.1-.591.394-.689a1.854,1.854,0,0,1,.788-.2C355.37,78.655,355.764,78.753,356.158,78.852Zm-2.167-4.038a4.533,4.533,0,0,0,.689.985,2.747,2.747,0,0,1-.985-.1,1.4,1.4,0,0,1-.591-.2c-.1-.1-.1-.3.1-.492C353.6,74.617,353.893,74.518,353.991,74.814Zm-.689-1.28h-.689v-.788h.689Zm-.689-2.265c-.2.591-.492.788-.591.689a.455.455,0,0,1-.3-.492,1.249,1.249,0,0,1,.1-.591C351.923,70.776,352.219,70.874,352.613,71.268Zm-3.546-6.106a6.977,6.977,0,0,1,1.379-.1c0,.394-.2.689-.492.689a3.694,3.694,0,0,1-1.083.1C348.476,65.458,348.575,65.162,349.067,65.162Zm-.985,1.477a1.923,1.923,0,0,1,.689.1c.3.1.492.1.788.2s.493.1.591,0a.261.261,0,0,0,.3-.3.261.261,0,0,1,.3.3c0,.2.1.3.1.492q0,.148.3.3a1.249,1.249,0,0,0,.788-.3,7.175,7.175,0,0,1-.985.886,1.643,1.643,0,0,0-.492,1.379c-.394,0-.689-.1-.788-.394a.591.591,0,0,1-.1-.394.709.709,0,0,1,.394-.689c.3-.1.394-.394.394-.788h-1.576c-.2,0-.3.1-.3.394s.1.492.1.689V69.1c0,.1-.3.1-.591-.1v2.265a1.7,1.7,0,0,1-.591-1.182c0-.394-.1-.788-.1-1.083h.689Zm-1.576.689h.887v.886h-.887Zm0,2.265h-.689v-.788H344.34c-.2-.394-.3-.591-.2-.689a.511.511,0,0,1,.394-.2,1.924,1.924,0,0,1,.69.1,1.923,1.923,0,0,0,.689.1v.689c.394,0,.591,0,.591.1Zm-.689-2.364h-.788v-.689h.788Zm-2.364-.788c.1-.2.2-.492.3-.689a4.305,4.305,0,0,1,.591-.689h.69a.96.96,0,0,1-.394.886,2.076,2.076,0,0,0-.394,1.379.969.969,0,0,1-.788-.3Zm0,2.364a1.8,1.8,0,0,1,.2.886.542.542,0,0,1-.3.492l-.394.394a.753.753,0,0,0-.2.492.942.942,0,0,1-.689-.2.439.439,0,0,1,0-.492,1.825,1.825,0,0,1,.2-.689,1.279,1.279,0,0,0-.2-.985Zm-1.576,4.629c.1.1.1.3.1.689a.637.637,0,0,1-.492.2c-.1-.1-.2-.2-.2-.3,0-.2-.1-.394-.1-.591C341.582,73.238,341.779,73.337,341.878,73.435Zm-1.478,1.28h.788V75.5H340.4Zm-.689,1.576h.689v.788h-.689Zm-1.674,2.265h.886V77.67c-.2,0-.394,0-.394-.1s0-.1.1-.2c.1,0,.1-.1.2,0,.1,0,.1.1.1.3.394,0,.591,0,.689.1s.1.3.1.689h-.788c-.2.394-.3.591,0,.689a1.676,1.676,0,0,0,.689.1,1.459,1.459,0,0,1,.689.1q.3.148,0,.591c-.394-.394-.689-.492-1.083-.3a2.623,2.623,0,0,1-1.182.3.888.888,0,0,0-.1-.492c-.1-.1-.1-.2-.2-.3,0-.1-.1-.2,0-.3Zm-.3,2.758a1.361,1.361,0,0,1,1.083-.591,3.682,3.682,0,0,1-.492,1.477,1.2,1.2,0,0,1-1.083.788A2.817,2.817,0,0,1,337.741,81.314Zm.3,3.939a.558.558,0,0,1,0,.985.833.833,0,0,1-.887-.2v-.689c-.394,0-.591,0-.591-.1a3.486,3.486,0,0,1-.1-.689h.689v.788C337.544,85.155,337.839,85.056,338.037,85.253Zm-2.167-1.871c.1-.1.2-.1.3-.2l.394-.1v.394h-.1a.361.361,0,0,0-.3.1c-.1,0-.3.2-.492.3C335.673,83.579,335.771,83.382,335.87,83.382Zm-.985,1.083h.788c.2-.2.3-.2.3-.1a1.068,1.068,0,0,1-.1.492,1.727,1.727,0,0,1-.394.492.464.464,0,0,1-.591-.1Zm-1.576,5.318a3.688,3.688,0,0,1,.1-1.083.52.52,0,0,1,.689-.394c0-.394,0-.591.1-.689,0-.1.3-.1.591-.1,0,.394,0,.591-.1.689,0,.1-.3.1-.591.1,0,.394,0,.591.1.689s.2.2.3.2a1.071,1.071,0,0,0,.493-.1,1.248,1.248,0,0,1,.591-.1c0,.394.3.689.788.788a2.438,2.438,0,0,1,1.379.788.362.362,0,0,0-.3.1c-.1.1-.1.394.3.689a2.232,2.232,0,0,0-1.083-.689,4.412,4.412,0,0,0-1.182-.1c-.2,0-.3.1-.492.492a10.156,10.156,0,0,0-.394.985,2.151,2.151,0,0,1-.492.788.711.711,0,0,1-.887.1,2.479,2.479,0,0,0,.69-1.182,9.064,9.064,0,0,0,.1-1.773Zm3.349,1.871a.541.541,0,0,1-.3.492.791.791,0,0,1-.788-.1v-.788a.994.994,0,0,1,.886-.1C336.559,91.359,336.658,91.458,336.658,91.655Zm-4.924,1.083c.1-.1.2-.2.2-.3a.637.637,0,0,0-.2-.492.656.656,0,0,1,.689.492,3.349,3.349,0,0,1,.1.985c.394,0,.591,0,.69.1s.1.3.1.689h-.788v-.788h-.788c-.2-.2-.3-.3-.2-.394C331.537,92.935,331.635,92.837,331.734,92.738Zm-1.576,2.955c.394-.2.591-.2.493-.1a.528.528,0,0,1-.3.394.747.747,0,0,1-.394.2C329.961,96.284,329.961,96.087,330.158,95.693Zm-.2,1.674a7.509,7.509,0,0,1,1.674-.1.993.993,0,0,1-.1-.886.541.541,0,0,1,.492-.3c.2,0,.3.1.492.3a.993.993,0,0,1-.1.886h-.788v.788c0,.2-.1.3-.1.2-.1,0-.2-.1-.394-.2a1.424,1.424,0,0,0-.689-.2,1.279,1.279,0,0,0-.985.2C329.468,97.663,329.567,97.466,329.961,97.367Zm.985,2.955c0-.394.1-.591.394-.689.1,0,.2-.1.394-.1,0,.394,0,.591-.1.689A5.541,5.541,0,0,1,330.946,100.322Zm.591,2.955h-.69v-.689c.394,0,.591,0,.591.1C331.537,102.685,331.537,102.981,331.537,103.276Zm.492-2.068c.3,0,.394.2.394.591h-.788C331.635,101.4,331.734,101.208,332.029,101.208Zm-2.659-2.462h.689c0,.394-.1.492-.394.394-.2-.1-.394,0-.394.394Zm.689,1.674c.591.1.886.3.886.689a3.336,3.336,0,0,0-.886,1.379c-.2.591-.394.788-.689.788,0,.394,0,.591-.1.689s-.3.1-.689.1v-.788h.788a1.279,1.279,0,0,0,.2-.985,6.762,6.762,0,0,0-.3-.788,3.077,3.077,0,0,0-.394-.591,1.055,1.055,0,0,1-.2-.591A3.564,3.564,0,0,1,330.059,100.42Zm-2.167,1.28h.689v.886h-.689Zm-.591,6.8c-.1,0-.3.1-.394.1a.709.709,0,0,1,.394-.689c.1,0,.3-.1.394-.1A.521.521,0,0,1,327.3,108.5Zm.886-1.379c-.1.1-.2.1-.394-.1v-.788c.2-.2.3-.2.394-.1a1.279,1.279,0,0,1,0,.985Zm1.773-.1c-.2.591-.394.788-.69.788v-2.265c-.394,0-.591,0-.689-.1s-.1-.3-.1-.689h.788v.886h1.576A1.914,1.914,0,0,0,329.961,107.019Zm1.477-2.068a1.921,1.921,0,0,1-.689-.1,1.923,1.923,0,0,0-.689-.1v-.689h1.576a1.41,1.41,0,0,1,.2.689A.393.393,0,0,1,331.438,104.951Zm.886-2.364c0-.2,0-.3.1-.394h.2c0,.1.1.1,0,.2C332.62,102.587,332.521,102.587,332.324,102.587Zm.394-3.447c-.1.3-.1.394-.2.492-.1,0-.1-.2-.1-.788q.3-.591.3-.3Zm-.3-3.349V95.1c.394,0,.591,0,.689.1.1,0,.1.3.1.591ZM334,98.155h-.788v-.788H334Zm3.644-.788h-2.265v.788h-.788v-.788h.788c.2-.394.3-.591.2-.788,0-.1-.2-.2-.394-.2a1.923,1.923,0,0,0-.689.1c-.3,0-.492.1-.689.1-.2-.3-.3-.591-.2-.689,0-.1.2-.2.394-.2a1.923,1.923,0,0,1,.689.1,1.922,1.922,0,0,0,.689.1c.2-.394.2-.591,0-.689a1.46,1.46,0,0,0-.689-.1A1.461,1.461,0,0,1,334,95c-.2-.1-.2-.3,0-.689h2.265q.3-.591,0-.591c-.2,0-.394-.1-.591,0-.2,0-.493.1-.69.1s-.394-.1-.3-.3c0-.394.1-.591.3-.689a1.4,1.4,0,0,1,.591-.2,2.17,2.17,0,0,1,.788.1,1.922,1.922,0,0,0,.689.1,4.108,4.108,0,0,0,.3,1.773,3.407,3.407,0,0,1,.3,1.182h-1.379c-.2.394-.3.591,0,.689a1.677,1.677,0,0,0,.689.1,1.459,1.459,0,0,1,.689.1C337.839,96.776,337.839,97.072,337.643,97.367Zm.3-7.977a3.683,3.683,0,0,1-.1-1.083,1.552,1.552,0,0,0-.788-.492c-.3-.1-.689-.3-.985-.394a2.326,2.326,0,0,1-.887-.591,1.069,1.069,0,0,1-.394-.886,2.14,2.14,0,0,1,.985-.2l.591.3a2.606,2.606,0,0,1,.591.492,1.119,1.119,0,0,0,.788.3v1.477h.886c0-.394,0-.591.1-.591s.1,0,.2.1c0,.1.1.2,0,.394,0,.1-.1.2-.3.2,0,.2,0,.3-.1.394s-.1.2-.2.3-.1.2-.1.394c0,.1.1.3.394.492A.864.864,0,0,1,337.938,89.39Zm1.379,7.189h-.788V95.89h.788Zm0-2.265h.69V95.2h-.69Zm.69,3.152c.2-.2.3-.394.2-.591a.753.753,0,0,0-.2-.492.747.747,0,0,1-.2-.394c0-.1,0-.1.2-.1h.788c0-.394,0-.591.1-.591a3.5,3.5,0,0,1,.69-.1v.689h-.788a.941.941,0,0,0,.2.689.888.888,0,0,0,.492.1.737.737,0,0,1,.492.1c.2.1.2.3.2.689Zm2.561-3.152a3.354,3.354,0,0,1-.985.1v-.788h1.477A.656.656,0,0,1,342.567,94.314Zm1.97,2.364h-.69v-.689c.394,0,.591,0,.591.1C344.537,96.087,344.537,96.284,344.537,96.678Zm1.477.886h-.689v-.886h.689Zm1.576-.788a1.587,1.587,0,0,0-.689-.394,4.8,4.8,0,0,1-.689-.3l-.591-.3c-.2-.1-.2-.2-.2-.394h-1.477c-.2-.394-.3-.689-.2-.886a.512.512,0,0,1,.394-.2,1.924,1.924,0,0,1,.689.1,1.922,1.922,0,0,0,.689.1V95.4h2.265c0-.394,0-.689.1-.689.1-.1.3-.1.689-.1V95.5h-.788Zm1.379.788c-.394,0-.591-.2-.591-.492s-.1-.689-.1-1.083h.69Zm-.591-3.841c-.2-.394-.2-.591-.1-.689a1.056,1.056,0,0,1,.591-.2,2.729,2.729,0,0,1,.886.1,2.447,2.447,0,0,0,.788.1c-.2.394-.3.591-.2.689a.362.362,0,0,0,.3.1.593.593,0,0,1,.394.1.834.834,0,0,1,.2.591,1.968,1.968,0,0,1-.886-.2c-.2-.1-.394-.3-.591-.394s-.394-.3-.591-.3C349.067,93.526,348.772,93.526,348.378,93.723Zm2.167,3.939h-.69v-.886h.69Zm0-2.265c.394,0,.591,0,.689.1.1,0,.1.3.1.591h-.788Zm1.182,1.871c-.1.1-.3-.1-.492-.492.2-.3.394-.394.492-.3a.512.512,0,0,1,.2.394C351.923,97.072,351.923,97.17,351.726,97.269Zm.788-.689c-.1.1-.2,0-.394-.394.2-.394.3-.492.394-.394s.1.2.1.394C352.711,96.284,352.613,96.481,352.514,96.579Zm3.152-.492a6.436,6.436,0,0,1-1.379,0,1.252,1.252,0,0,0,.1.591,1.069,1.069,0,0,1,.1.492.748.748,0,0,1-.2.394c-.1.1-.394.1-.689.1V95.4a.993.993,0,0,1-.886.1.558.558,0,0,1,0-.985.79.79,0,0,1,.788.1V95.5h2.265a.994.994,0,0,1-.1-.886.542.542,0,0,1,.493-.3c.2,0,.3.1.492.3a1,1,0,0,1-.1.886h-.788C356.256,95.89,356.158,96.087,355.666,96.087Zm1.773.788h-.788v-.689h.788Zm0-1.379v-.886c.394,0,.591,0,.689.1s.1.3.1.689Zm.689,1.477c.394,0,.591,0,.591.1a3.5,3.5,0,0,1,.1.689h-.689Zm1.083,2.167c-.1,0-.3.1-.394.1,0-.394,0-.591.1-.591a3.493,3.493,0,0,1,.69-.1C359.605,98.844,359.507,99.14,359.211,99.14Zm1.083,2.462h-.788c0-.394.3-.591.788-.591s.788.2.788.591Zm.788,1.576h.689v.689h-.689Zm1.477,2.955c-.394,0-.689-.2-.689-.492a3.683,3.683,0,0,1-.1-1.083h.886Zm.1-3.841h.69v.886h-.69Zm.591,1.576h.788v.788h-.788Zm2.265,3.053h-.886a.993.993,0,0,1,.1.886.541.541,0,0,1-.492.3c-.2,0-.3-.1-.493-.3a.994.994,0,0,1,.1-.886h.689c0-.394,0-.591.1-.591a3.489,3.489,0,0,1,.689-.1Zm.3-1.576c-.3,0-.689.1-1.083.1v-.689H366.3A.624.624,0,0,1,365.81,105.345Z" transform="translate(-4.856 -0.949)"/>
    <path id="Path_8" data-name="Path 8" class="cls-1" d="M380.059,111.743c.886.1,1.773.1,2.561.2a11.129,11.129,0,0,0,2.561,0,8.569,8.569,0,0,0,2.856-.689c-.1-4.038-.2-8.076-.1-12.311s.1-8.371.3-12.508c.1-4.136.3-8.174.394-12.114s.2-7.78.3-11.424c-.985-.2-1.97-.3-2.955-.394-.985,0-1.97,0-2.955.1a19.045,19.045,0,0,0-2.659.394c-.886.2-1.576.394-2.068.492l-.886,48.357A23.126,23.126,0,0,1,380.059,111.743Zm2.167-2.364a1.92,1.92,0,0,1-.788.1,2.947,2.947,0,0,1-.788-.394,1.2,1.2,0,0,1-.3-.886,1.525,1.525,0,0,1-.591.2.305.305,0,0,1,.1-.2.512.512,0,0,1,.394-.2c.1,0,.2,0,.2.2a3.034,3.034,0,0,1,.985.1,2.151,2.151,0,0,1,.493.3c.1.1.3.2.394.3s.2.1.394.1A.983.983,0,0,1,382.226,109.379Zm.3-6.008a.542.542,0,0,1-.492.2,3.032,3.032,0,0,1-.1.985c-.1.3-.3.2-.689-.2a4.044,4.044,0,0,1-.1,1.083c-.1.3-.3.492-.788.492v-1.576h.886a1.458,1.458,0,0,1,.1-.689c.1-.394.3-.394.689-.1a2.568,2.568,0,0,1,.3-1.083.985.985,0,0,1,.394-.492v-1.576a1.488,1.488,0,0,1,.788-.2c.1.1.2.1.3.3a4.26,4.26,0,0,1,.1.492c0,.2.2.3.394.3,0,.394-.2.689-.492.689a3.7,3.7,0,0,1-1.083.1.261.261,0,0,1,.3.3.888.888,0,0,1-.1.492A.982.982,0,0,1,382.521,103.372Zm-2.462-5.22c-.2-.1-.3-.394-.3-.788a.887.887,0,0,1,.492.1c.1.1.3.1.394.2a.628.628,0,0,0,.591,0,3.209,3.209,0,0,0,.985-.3c0-.394.2-.591.689-.591s.689.2.689.591-.2.591-.492.591a1.191,1.191,0,0,1-.886-.591.709.709,0,0,1-.394.689c-.1,0-.3.1-.394.1.394,0,.591.1.689.394s.3.394.69.394c-.1,0-.2.1-.3.2-.1.2-.1.3-.2.492s-.1.394-.3.492c-.1.2-.394.2-.689.2V98.053c-.2,0-.394.1-.394.2,0,.2-.1.3-.1.492-.1.1-.1.2-.3.3a1.692,1.692,0,0,1-.788-.2C380.157,98.546,380.256,98.25,380.059,98.152Zm.689-11.523V88.2h-.788V86.629Zm-.689-3.053v-.788c.394-.394.591-.394.689-.2a3.032,3.032,0,0,1,.1.985Zm.886,11.03a.833.833,0,0,1,.591.2c.1.1.1.2-.1.394h-1.674c0-.2.1-.3.394-.394A1.185,1.185,0,0,1,380.945,94.607Zm4.334-2.462c-.1-.1-.2-.2-.2-.3a.9.9,0,0,1,.3-.492c.394,0,.591.3.591.788s-.2.788-.591.788a3.945,3.945,0,0,0-1.379.886,3.9,3.9,0,0,0-.2,1.477c-.394,0-.591-.1-.689-.394s-.3-.394-.689-.394a2.185,2.185,0,0,0,.1.886,1.249,1.249,0,0,1,.1.591v.394a.9.9,0,0,1-.3.492.593.593,0,0,1-.1.394c-.1.2-.3.3-.689.3v-.689h.788c-.2-.2-.3-.3-.3-.492v-.394a3.868,3.868,0,0,1,.2-.591,2.188,2.188,0,0,0,.1-.886c-.394,0-.689-.1-.689-.3a.736.736,0,0,1,.1-.492c.1-.1.3-.2.394-.1a1.578,1.578,0,0,1,.2.985h.591a2.183,2.183,0,0,0-.1-.886,1.25,1.25,0,0,1-.1-.591v-.394a.9.9,0,0,1,.3-.492,1.892,1.892,0,0,1,1.182.394,1.893,1.893,0,0,0,1.182.394c.2-.2.3-.3.2-.492A3.871,3.871,0,0,1,385.279,92.144Zm-.1,6.106v.788c-.394,0-.689,0-.689-.1-.1-.1-.1-.3-.1-.689ZM383.6,96.379c-.1-.3-.394-.394-.788-.394.3-.1.493-.2.788-.3.2,0,.394-.1.492,0,.2,0,.2.1.2.3v.788A.829.829,0,0,1,383.6,96.379Zm.788-1.182V94.41c.2-.2.3-.2.492-.1a.713.713,0,0,1,0,.985C384.688,95.394,384.59,95.394,384.392,95.2ZM381.536,88.2c.2-.394.3-.492.394-.394s.1.2.1.394-.1.3-.1.394C381.832,88.7,381.733,88.5,381.536,88.2Zm.689,3.152V89.781a.528.528,0,0,1,.394.3,1.249,1.249,0,0,1,.1.591,1.4,1.4,0,0,1-.2.591A.431.431,0,0,1,382.226,91.356Zm1.477.788v-.788c.394,0,.591,0,.689.1s.1.3.1.689Zm.1-5.515V85.94h.788v.689Zm0-2.955v-.788h.788v.788Zm1.182.985c.1,0,.2.1.2.3a.745.745,0,0,1-.2.394c-.1.1-.3.1-.492-.1C384.786,84.856,384.885,84.659,384.983,84.659Zm-.788-5.22a1.985,1.985,0,0,1-1.083.3.656.656,0,0,1,.492-.689,3.694,3.694,0,0,1,1.083-.1Zm-.591,9.652c.1.1.1.3.1.689h-.788v-.788C383.309,88.993,383.506,88.993,383.6,89.091Zm-.591-6.2h-.591V82.1h.591Zm-.591-2.364c-.394,0-.591,0-.689-.1s-.1-.3-.1-.689h.788Zm0,3.152v.788h-.788v-.788ZM381.241,82c-.1,0-.3.1-.394.1,0-.394,0-.591.1-.689s.3-.1.689-.1C381.635,81.7,381.536,81.9,381.241,82Zm.1,19.2v1.576h-.886v-1.576Zm3.053,1.576a.558.558,0,0,1,0,.985.994.994,0,0,1-.886-.1v-.788A.994.994,0,0,1,384.392,102.781Zm-1.674,1.674h.788c0,.394,0,.492-.1.3A.766.766,0,0,0,382.718,104.455Zm1.083,4.53a.78.78,0,0,1-.492-.788,4.19,4.19,0,0,1,1.083.2c.394.1.492.591.492,1.379A2.524,2.524,0,0,0,383.8,108.986Zm1.97-.788c-.394,0-.689-.1-.788-.3s-.3-.3-.3-.492c-.1-.2-.2-.3-.3-.492s-.394-.3-.788-.3a.261.261,0,0,1,.3-.3h.591c.2.1.492.1.788.2a1.922,1.922,0,0,0,.689.1Zm-1.576-2.265v-1.576a1.694,1.694,0,0,1,1.576,1.576Zm.591-4.629a4.591,4.591,0,0,1-.493-1.576,1.711,1.711,0,0,1,1.182.3.831.831,0,0,1,.2.689,3.7,3.7,0,0,1-.1.985,2.5,2.5,0,0,0,.2,1.182A5.457,5.457,0,0,1,384.786,101.3Zm1.182-3.841h-.788v-.689h.788Zm-.591-7.78c.1.1.3.1.689.1a2.781,2.781,0,0,1-1.083.689,4.279,4.279,0,0,0-.492.1,2.623,2.623,0,0,1,.3-1.182.966.966,0,0,0-.3-1.182h1.576a.708.708,0,0,1-.394.689c-.1,0-.3.1-.394.1A3.5,3.5,0,0,0,385.377,89.682Zm0-2.955c.2-.2.3-.2.394-.1a.591.591,0,0,1,.1.394.344.344,0,0,1-.1.2C385.673,87.22,385.574,87.023,385.377,86.728Zm.394-20.781a.656.656,0,0,1,.689.492,3.687,3.687,0,0,1,.1,1.083,1.273,1.273,0,0,1-.788-.2.832.832,0,0,1-.2-.591A.869.869,0,0,1,385.771,65.947Zm-.985,6.992h1.576a.656.656,0,0,1-.492.689,3.7,3.7,0,0,1-1.083.1Zm-.394,4.629a3.7,3.7,0,0,1,1.083-.1,3.577,3.577,0,0,1-.886.689c-.1.1-.394.1-.788.1C383.9,77.864,384.1,77.568,384.392,77.568Zm-.1-2.758V75.2c-.1.2-.1.3-.2.394s-.1,0-.1-.394C384.2,74.811,384.294,74.712,384.294,74.811Zm-.788-.492a3.038,3.038,0,0,1-.985.1c0-.394.1-.591.3-.689.1,0,.2-.1.394-.1H384A.656.656,0,0,1,383.506,74.318Zm-.3,1.576h-1.379V75.2c.394-.394.689-.394.985-.2A1.247,1.247,0,0,1,383.211,75.894Zm-.591-5.318v-.788c0-.394.1-.591.2-.492a2.14,2.14,0,0,1,.3.492.84.84,0,0,1,0,.689C383.112,70.773,382.915,70.773,382.62,70.576Zm.2-5.023h.1v.2c0,.1-.1.1-.3.1C382.718,65.652,382.718,65.553,382.817,65.553Zm-.394.788a.842.842,0,0,1,.886.3,1.355,1.355,0,0,1-.394.3,4.271,4.271,0,0,1-.492.1c-.2,0-.3-.1-.493-.394C382.127,66.538,382.226,66.439,382.423,66.341Zm-.394,5.121a1.322,1.322,0,0,1-.2,1.477.888.888,0,0,0-.1-.492c-.1-.1-.2-.3-.3-.394a1.6,1.6,0,0,1-.3-.591,2.185,2.185,0,0,1-.1-.886A1.116,1.116,0,0,1,382.029,71.462Zm-.394,6.2a3.5,3.5,0,0,0,.886-.394,1.532,1.532,0,0,0,.788-.591A2.145,2.145,0,0,0,384,75.8a9.572,9.572,0,0,0-.492,1.083,1.906,1.906,0,0,1-.492.886,1.025,1.025,0,0,1-.788.394,2.228,2.228,0,0,1-1.28-.2A1.713,1.713,0,0,0,381.635,77.667ZM380.552,75.8a.592.592,0,0,1,.1.394.344.344,0,0,1-.1.2c-.1,0-.2-.2-.394-.591C380.354,75.7,380.453,75.6,380.552,75.8Zm-.492,4.235c.1-.2.2-.3.2-.492.1-.2,0-.394-.2-.591h.788a4.034,4.034,0,0,1-.1,1.083c-.1.394-.3.492-.689.492-.2,0-.3-.1-.2-.1C379.961,80.326,379.961,80.129,380.059,80.031Zm-.3,12.7a1.926,1.926,0,0,0,.1-.689.656.656,0,0,1,.689.492,3.692,3.692,0,0,1,.1,1.083,1.489,1.489,0,0,1-.788.2.512.512,0,0,1-.2-.394A1.672,1.672,0,0,1,379.764,92.735Zm-.3,9.356.3-.886c.394-.2.689-.2.689-.1a2.213,2.213,0,0,1-.1.689,10.22,10.22,0,0,0-.394.985,4.414,4.414,0,0,0-.2.788.893.893,0,0,1-.3-.689A1.087,1.087,0,0,1,379.468,102.091Z" transform="translate(-5.711 -0.946)"/>
    <path id="Path_9" data-name="Path 9" class="cls-1" d="M409.027,74.64q.148-4.875.3-9.455a7.742,7.742,0,0,0-2.561-.788A25.957,25.957,0,0,0,404,64.2a14.065,14.065,0,0,0-2.856.3,16.906,16.906,0,0,0-2.561.492c-.3,3.841-.394,7.682-.492,11.72-.1,3.939-.2,7.977-.2,12.015v12.015c0,3.939,0,7.879-.1,11.72l34.569.591a10.633,10.633,0,0,0,.492-2.068,20.718,20.718,0,0,0,.2-2.561,21.494,21.494,0,0,0-.1-2.561,11.088,11.088,0,0,0-.394-2.068,48.574,48.574,0,0,0-5.614-.394c-2.069-.1-4.137-.1-6.2-.1s-4.136-.1-6.2-.1c-2.068-.1-3.939-.2-5.614-.394-.1-2.856-.2-5.811-.2-8.962s.1-6.3.2-9.553A79.085,79.085,0,0,1,409.027,74.64Zm20.19,32.4c.2-.2.3-.2.394-.1a1.281,1.281,0,0,1,0,.985c-.1.1-.2.1-.394-.1Zm0,1.477h.689v.689h-.689Zm-1.969.788c.1,0,.3-.1.394-.1a.709.709,0,0,1-.394.689c-.1,0-.3.1-.394.1C426.853,109.6,426.952,109.405,427.247,109.307Zm-1.674-.492a.888.888,0,0,1,.492-.1.362.362,0,0,1,.3.1c0,.1,0,.2-.2.394h-.788C425.376,109.011,425.376,108.814,425.573,108.814Zm-.886-2.758c.2-.2.3-.2.394-.2a.513.513,0,0,1,.2.394c0,.2.1.394.1.689v.591c-.394-.394-.591-.591-.591-.788C424.687,106.746,424.687,106.451,424.687,106.057Zm-2.265,1.97h.2c.1.1.1.1,0,.2,0,.1-.2.1-.394.1C422.323,108.223,422.323,108.125,422.421,108.026Zm.69,1.083c.394,0,.591.2.591.492s.1.689.1,1.083a3.093,3.093,0,0,0-.985-.788.78.78,0,0,1-.492-.788Zm-16.25-36.932v.788a10.247,10.247,0,0,1-1.477-.2c-.591-.2-.788-.591-.788-1.379a.665.665,0,0,1,.591.394c0,.1.1.3.1.394Zm-5.712,20.485v-.788h.689v.788Zm.591,4.629v.788h-.689v-.788Zm-.2-7.682a.594.594,0,0,1-.394.1.659.659,0,0,1,.394-.689c.1,0,.2-.1.394-.1A.66.66,0,0,1,401.543,89.609Zm-.2-5.318V83.5h.689v.788Zm0-3.053V80.45c.2-.2.3-.2.394-.1a.739.739,0,0,1,.1.492.889.889,0,0,1-.1.492C401.641,81.435,401.543,81.337,401.345,81.238Zm3.841-6.008a3.5,3.5,0,0,1,.1.689H404.6v-.886a.593.593,0,0,1-.394-.1.54.54,0,0,1-.394-.591h.886v.689C404.891,75.132,405.088,75.132,405.186,75.23Zm.788,2.955v.788h-.788v-.788Zm-.689-4.629q.3-.591.3-.3v.591c-.1.2-.1.394-.2.492S405.285,74.147,405.285,73.556Zm.2,9.159a.938.938,0,0,1-.689-.2c-.2-.1-.394-.394-.591-.591-.1-.3-.1-.492.2-.689.394,0,.591.1.689.394a.66.66,0,0,0,.69.394C405.876,82.42,405.777,82.617,405.482,82.715Zm.3,7.682c.2-.2.3-.2.493-.1a.715.715,0,0,1,0,.985c-.1.1-.3.1-.493-.1Zm-.1-6.5a.344.344,0,0,1-.1.2c-.1,0-.2-.2-.394-.492.2-.2.3-.2.394-.1C405.58,83.6,405.679,83.7,405.679,83.9ZM404.3,87.443v-.886h.69v.886Zm.69,2.955h-.69c0-.394.1-.591.394-.591C404.891,89.9,404.99,90,404.99,90.4Zm-.591-5.417c.2-.2.3-.2.394-.1a.592.592,0,0,1,.1.394c0,.1,0,.2-.1.2C404.694,85.572,404.6,85.374,404.4,84.981Zm.3-4.727a3.038,3.038,0,0,1-.985.1,1.527,1.527,0,0,1-.788-.2c-.2-.1-.2-.2,0-.394.394-.394.788-.492,1.083-.3a2.568,2.568,0,0,0,1.083.3C405.186,79.958,404.99,80.155,404.694,80.253Zm-.493,3.053a.747.747,0,0,1-.2.394c-.1.1-.3.1-.492-.1.2-.394.394-.492.492-.492C404.1,83.011,404.2,83.109,404.2,83.306Zm-.689,1.674h-.689v-.689c.394,0,.591,0,.591.1C403.512,84.39,403.512,84.685,403.512,84.981Zm.1,4.235a1.118,1.118,0,0,1,.3.788.6.6,0,0,1-.3.591.666.666,0,0,1-.788-.2V88.822A1.215,1.215,0,0,1,403.61,89.215Zm.591,2.167c.1,0,.2.1.1.3,0,.1-.2.3-.394.394a.464.464,0,0,1-.591-.1C403.807,91.579,404,91.382,404.2,91.382Zm0,3.644c.394,0,.591,0,.591.1a3.489,3.489,0,0,1,.1.689h-.69Zm.69,1.576h.788v.689h-.788Zm0-3.939c-.3-.1-.3-.3.1-.689a.812.812,0,0,1,1.083-.2,1.368,1.368,0,0,1,.493.985C405.777,92.761,405.186,92.663,404.891,92.663Zm1.379-6.3c-.1.1-.3-.1-.493-.394.2-.394.394-.492.493-.394a.513.513,0,0,1,.2.394A.748.748,0,0,1,406.27,86.359ZM404.2,77.2l.394-.394.3-.3c.1-.1.2,0,.394.2a1.893,1.893,0,0,1-.394,1.182,2.8,2.8,0,0,0-.394,1.182c0-.394-.1-.591-.394-.689a2.17,2.17,0,0,0-.788-.1,1.919,1.919,0,0,1-.788-.1c-.3-.1-.394-.3-.394-.689h1.576A2.151,2.151,0,0,1,404.2,77.2Zm-1.28,4.826v.788h-.886v-.788Zm.591,3.841c0,.394-.2.591-.492.591s-.689.1-1.083.1v-.689Zm-1.576,1.477h.886v.788h-.886Zm.689,6.894h.689v.788h-.689Zm.689,2.364h.886v.689h-.886Zm.788,5.22a3.035,3.035,0,0,1,.985.1c.3.1.493.3.394.788H404Zm.788-.985c0-.1-.1-.3-.1-.394h.788v.788A.709.709,0,0,1,404.891,100.837Zm.591-1.576c-.1-.1-.1-.2.1-.394.394.2.492.3.492.394s-.1.1-.3.1C405.679,99.458,405.58,99.36,405.482,99.261Zm.3-4.727a3.7,3.7,0,0,1-.1-1.083.542.542,0,0,1,.492-.2,1.355,1.355,0,0,1,.3.394,1.458,1.458,0,0,1,.1.689v.689C406.073,95.026,405.876,94.928,405.777,94.534Zm.886,10.834c.1.1.1.2.1.394s0,.3-.1.394-.2-.1-.394-.394C406.467,105.367,406.663,105.269,406.663,105.367ZM404.3,66.958a2.007,2.007,0,0,1,1.083-.2q-.3.591-.591.591a.738.738,0,0,1-.492-.1A.185.185,0,0,1,404.3,66.958Zm-.3,1.871c.1-.394.591-.591,1.379-.492a.642.642,0,0,1-.689.689,1.25,1.25,0,0,0,.1.591,4.262,4.262,0,0,0,.1.492.748.748,0,0,1-.2.394c-.1.1-.394.1-.788.1a4.034,4.034,0,0,1-.1,1.083.624.624,0,0,1-.591.492V70.6h.69A4.354,4.354,0,0,1,404,68.829Zm-3.152-.689h.788c0-.394,0-.591-.1-.689s-.3-.1-.69-.1a1.119,1.119,0,0,1,.788-.3,3.038,3.038,0,0,1,.985.1,1.981,1.981,0,0,1,.788.394.851.851,0,0,1,.3.591h-2.265a.593.593,0,0,1-.1.394c-.1.2-.3.3-.689.3Zm2.068,1.182a.752.752,0,0,1-.2.492c-.1.1-.3.1-.492-.1v-.689c.2-.2.3-.2.492-.1A.511.511,0,0,1,402.921,69.321Zm-1.773,2.758c.1,0,.3-.1.394-.1a.709.709,0,0,1-.394.689c-.1,0-.3.1-.394.1C400.754,72.374,400.853,72.177,401.148,72.079Zm-.394,1.379h2.265a2.444,2.444,0,0,1,.1.788c0,.492-.3.788-.985.788a.994.994,0,0,1,.1.886.542.542,0,0,1-.492.3c-.2,0-.3-.1-.492-.3a.993.993,0,0,1,.1-.886h.689c.2-.394.2-.591,0-.689a1.46,1.46,0,0,0-.689-.1,1.461,1.461,0,0,1-.689-.1C400.557,74.049,400.557,73.852,400.754,73.458Zm-.3,16.841c.2-.2.3-.2.394-.1a.736.736,0,0,1,.1.492.753.753,0,0,1-.2.492c-.1.1-.2.1-.394-.1Zm-.1,4.629h.788V96.5h-.788Zm.689,5.417c0,.2,0,.3-.1.394-.1,0-.2.1-.3.1h-.3l-.1.1c.1-.2.1-.394.3-.492A.887.887,0,0,1,401.05,100.344Zm-.591,9.061c-.1,0-.3.1-.394.1,0-.394.1-.591.394-.689.1,0,.3-.1.394-.1C400.853,109.11,400.754,109.307,400.459,109.405Zm.788-1.477a.593.593,0,0,1-.394.1.66.66,0,0,1,.394-.689c.1,0,.2-.1.394-.1C401.641,107.632,401.444,107.928,401.247,107.928Zm.394-4.53h-.689v-1.576h.689Zm.2-4.038c.1-.3.3-.492.788-.492V97.291c.394,0,.689.1.788.394a1.064,1.064,0,0,1,.3.689.851.851,0,0,1-.3.591.79.79,0,0,1-.788-.1c0,.394,0,.591.1.689,0,.1.3.1.591.1a.656.656,0,0,1-.492.689,3.692,3.692,0,0,1-1.083.1A3.372,3.372,0,0,1,401.838,99.36Zm.689,4.038v-.689h.689v.689Zm.394,3.152a1.462,1.462,0,0,1-.1.689c-.1.2-.2.2-.394,0v-1.576c.2-.2.3-.2.394.1A1.922,1.922,0,0,1,402.921,106.549Zm.2,2.265h-.689v-.689h.689Zm.492-3.348c-.1.1-.3-.1-.492-.394.2-.394.394-.591.492-.492a.593.593,0,0,1,0,.886ZM404,103.4c.394,0,.591,0,.591.1a3.49,3.49,0,0,1,.1.689H404Zm1.083,2.758c-.1.1-.2-.1-.394-.394.2-.394.3-.492.394-.394s.1.2.1.394C405.285,105.958,405.186,106.057,405.088,106.155Zm.788,2.068c-.1.1-.3.1-.492-.1.2-.394.394-.492.492-.492s.2.1.2.3C406.073,108.026,405.974,108.125,405.876,108.223Zm.1-3.546c-.1.1-.3-.1-.492-.394.2-.394.394-.492.492-.394a.493.493,0,0,1,0,.788ZM407.944,110c-.1,0-.2.1-.394.1h-.689a.7.7,0,0,0-.591.3,1.367,1.367,0,0,1,.492-.985c.3-.3.689-.2,1.083.2C407.944,109.8,408.042,109.9,407.944,110Zm2.167.689c-.2-.1-.394-.1-.492-.2s-.1-.2.1-.2a3.03,3.03,0,0,1,1.083.2A1.423,1.423,0,0,1,410.11,110.685Zm7.583-1.674h-.788v-.689h.788Zm-1.083-2.167c.1,0,.3-.1.394-.1,0,.394,0,.591-.1.591a3.484,3.484,0,0,1-.689.1A.54.54,0,0,1,416.611,106.844Zm-.394,1.576a.455.455,0,0,1-.3.492.851.851,0,0,1-.591-.3q-.3-.3,0-1.182C416.02,107.829,416.217,108.125,416.217,108.42Zm-1.477-2.561h.788v.886h-.788Zm.689,3.546c.1.3.394.394.788.394,0,.2,0,.3-.1.394-.1,0-.2.1-.3.1h-.3c-.1,0-.1.1-.1.3a.656.656,0,0,1-.689-.492,3.687,3.687,0,0,1-.1-1.083A.8.8,0,0,1,415.429,109.405Zm-.985-2.068a.527.527,0,0,1-.3.394.746.746,0,0,1-.394.2c-.1,0-.1-.2.2-.591C414.247,107.238,414.444,107.238,414.444,107.337Zm-1.576-.394a2.3,2.3,0,0,1,1.083-.2.938.938,0,0,1-.689.591.739.739,0,0,1-.492-.1C412.671,107.14,412.671,107.041,412.868,106.943Zm-1.28-1.083h.788v.886h-.788Zm0,3.841c.3-.3.591-.394.689-.3a.431.431,0,0,1,.1.3v.788h-.788Zm-.788,0h-.788v-.788h.788Zm-1.182-3.742.394-.1a.881.881,0,0,1-.394.788.593.593,0,0,1-.394.1C409.323,106.352,409.421,106.057,409.618,105.958Zm-.394,2.955v.788h-.788v-.788Zm-.689-2.265c0,.394,0,.591-.1.591a2.147,2.147,0,0,1-.591.1.54.54,0,0,1,.394-.591C408.239,106.648,408.436,106.648,408.535,106.648Z" transform="translate(-6.02 -0.972)"/>
    <path id="Path_10" data-name="Path 10" class="cls-1" d="M408.031,45.214c1.182-.788,2.265-.492,3.348-.689.2,0,.3-.394.493-.394.1,0,.2.3.3.3s.1-.394.2-.394.2.3.3.3c.591,0,.985-.591,1.379-.3.1-.2-.1-.591,0-.689s.1.3.3.394c0-.3-.1-.492,0-.591.2.394.591-.3.493.394.2.2,0-.492.1-.394.2.3.394.591.689.394.1-.1,0-.788.2-.492.2.591.492.689.886.1.2-.1-.1.591.1.394.1,0,0-.492.2-.394.1,0,.1.591.2.492.591-.492,1.182.591,1.674-.3.1,0,.1.492.2.591,0-.2,0-.492.1-.394.394.788.886.394,1.379.394.591,0,1.281.591,1.674-.3.492.492,1.773,1.182,2.265,0,2.265.689,4.432-.886,6.106-.394.886-.788,1.871-.492,2.856-.689a6.177,6.177,0,0,0,.591-2.659c-.591-.689-1.576,0-2.462.1a46.23,46.23,0,0,1-12.212.3c-.985-.1-2.068-.3-3.053-.394-1.576-.3-3.25.591-4.924.689-.3,0-.591.1-.886.1-3.053.394-5.712-.394-8.273,0-1.773.2-3.644-.492-5.121.886,0,1.28-.1,2.856,0,3.939A36.83,36.83,0,0,1,408.031,45.214Z" transform="translate(-6.009 -0.599)"/>
    <path id="Path_11" data-name="Path 11" class="cls-1" d="M170.581,45.83c24.326-.492,46.19-.492,70.024,0,5.909.1,11.72.3,17.629.492,9.356.3,18.909-.492,28.462-.492,1.674,0,3.447-.1,5.023-.1,17.432-.3,32.6.591,47.273.3,10.144-.2,20.978.591,29.25-.788-.1-1.28.788-2.856,0-3.939-20.485.886-41.561.591-63.524.2-6.894.689-12.9.394-19.106.591-.886,0-1.97.394-2.856.394-.591,0-1.182-.3-1.674-.3-.3,0-.788.394-1.182.394s-.985-.3-1.477-.3c-3.152,0-5.909.591-7.977.2-.689.2.394.591-.2.689-.492.1-.689-.3-1.477-.394-.2.3.69.492,0,.492-1.083-.394-3.152.3-2.659-.394-.886-.2-.2.492-.689.394a10.118,10.118,0,0,0-4.137-.394c-.591,0,.1.788-.985.492a7.264,7.264,0,0,0-4.826-.2c-1.182.1.394-.591-.689-.394-.69,0-.2.492-.985.394-.788,0-.394-.591-1.182-.591-3.25.394-6.7-.689-9.455.2-.591,0-.3-.492-.985-.591,0,.2,0,.492-.492.394-2.068-.788-5.22-.394-8.174-.492-3.644-.1-7.288-.591-9.652.2-2.758-.492-10.44-1.182-13-.1-12.8-.788-25.409.689-35.258.2-5.121.788-10.735.394-16.152.591-1.674.492-3.053,1.28-3.151,2.659C159.944,46.618,165.164,45.929,170.581,45.83Z" transform="translate(-2.364 -0.625)"/>
    <path id="Path_12" data-name="Path 12" class="cls-1" d="M378.3,44.8c-.1,0,0-.1,0,0Z" transform="translate(-5.724 -0.677)"/>
    <path id="Path_13" data-name="Path 13" class="cls-1" d="M378.5,44.9Z" transform="translate(-5.728 -0.679)"/>
    <path id="Path_14" data-name="Path 14" class="cls-1" d="M388.759,46.3h0a8.508,8.508,0,0,1-1.379,1.28c-.394.3-.788.394-1.281.689a5.985,5.985,0,0,0,1.773-.886.1.1,0,0,0-.1.1.1.1,0,0,0,.1-.1v-.1a2.653,2.653,0,0,0,.689-.788C388.661,46.4,388.858,46.4,388.759,46.3Z" transform="translate(-5.843 -0.701)"/>
    <path id="Path_15" data-name="Path 15" class="cls-1" d="M382,48.2Z" transform="translate(-5.781 -0.73)"/>
    <path id="Path_16" data-name="Path 16" class="cls-1" d="M381.6,48.3h0c0-.1,0-.1-.1-.1l.1.1Z" transform="translate(-5.773 -0.73)"/>
    <path id="Path_17" data-name="Path 17" class="cls-1" d="M381.7,48.3h.1S381.8,48.2,381.7,48.3Z" transform="translate(-5.776 -0.731)"/>
    <path id="Path_18" data-name="Path 18" class="cls-1" d="M381.2,48.3Z" transform="translate(-5.769 -0.73)"/>
    <path id="Path_19" data-name="Path 19" class="cls-1" d="M381.1,48.3h0c0,.1-.1,0-.1.1h0C381.1,48.4,381.1,48.4,381.1,48.3Z" transform="translate(-5.766 -0.731)"/>
    <path id="Path_20" data-name="Path 20" class="cls-1" d="M380.6,48.4c0,.1.1.1.2.1v-.1C380.8,48.3,380.6,48.3,380.6,48.4Z" transform="translate(-5.759 -0.732)"/>
    <path id="Path_21" data-name="Path 21" class="cls-1" d="M381.2,48.4Z" transform="translate(-5.769 -0.733)"/>
    <path id="Path_22" data-name="Path 22" class="cls-1" d="M381.3,48.5Z" transform="translate(-5.77 -0.734)"/>
    <path id="Path_23" data-name="Path 23" class="cls-1" d="M384.6,49v.2h0c.1-.2.1-.2,0-.2Z" transform="translate(-5.82 -0.742)"/>
    <path id="Path_24" data-name="Path 24" class="cls-1" d="M385.3,49.2h0c.1-.1,0-.1,0,0Z" transform="translate(-5.831 -0.744)"/>
    <path id="Path_25" data-name="Path 25" class="cls-1" d="M385,49.2Z" transform="translate(-5.826 -0.745)"/>
    <path id="Path_26" data-name="Path 26" class="cls-1" d="M381.9,48.9c-.1-.1-.1,0,0,0Z" transform="translate(-5.778 -0.74)"/>
    <path id="Path_27" data-name="Path 27" class="cls-1" d="M384.9,49.3Z" transform="translate(-5.825 -0.745)"/>
    <path id="Path_28" data-name="Path 28" class="cls-1" d="M381.9,49c0-.1-.1-.1,0,0-.1,0-.1-.1,0,0h0C381.8,49,381.8,48.9,381.9,49Z" transform="translate(-5.778 -0.741)"/>
    <path id="Path_29" data-name="Path 29" class="cls-1" d="M382.1,49h0C382.2,49,382.1,48.9,382.1,49Z" transform="translate(-5.782 -0.741)"/>
    <path id="Path_30" data-name="Path 30" class="cls-1" d="M382.4,49Z" transform="translate(-5.787 -0.742)"/>
    <path id="Path_31" data-name="Path 31" class="cls-1" d="M384.4,49.4l-.1-.1v0h.1v.1Z" transform="translate(-5.816 -0.745)"/>
    <path id="Path_32" data-name="Path 32" class="cls-1" d="M382.2,49.1Z" transform="translate(-5.784 -0.743)"/>
    <path id="Path_33" data-name="Path 33" class="cls-1" d="M382.4,49.2h0C382.3,49.2,382.4,49.3,382.4,49.2Z" transform="translate(-5.786 -0.745)"/>
    <path id="Path_34" data-name="Path 34" class="cls-1" d="M378.2,43.4h0v.1h0v.1h0v.1h-.1a.485.485,0,0,1,.1.3h.1v.1h-.1c.1,0,0,0,0,.1h.2v.2h0a.1.1,0,0,1-.1.1h0v.1a.1.1,0,0,0,.1.1v.2h0c0,.1,0,.2.1.2-.1,0,0,.1,0,0l.1.1h0c0,.1,0,.1.1.2v.1c-.1.1.1.1.1.2h-.1c0,.1-.1,0,0,.1h.1v.1c-.1,0,0,.1,0,.1h-.1a.1.1,0,0,1,.1.1h0v.1h-.1c.1.1.3.1.3.2a.212.212,0,0,1,.2.2h.1s-.1.1,0,.1c0-.1.1,0,.2,0,0,.1,0,0,.1.1h.1v.1h.1s-.1.1,0,.1v-.1c.1.1.2.2.1.2h.1v-.1c0,.1.1.1.1.2h.1a.1.1,0,0,1,.1.1v.1h0c.1,0,.3,0,.3.1.1,0,.2.2.3.2h.2c.1,0,0,.1.1.1,0-.1.1,0,.1,0l-.1-.1h0c0,.1.2,0,.2.1h-.1v0l.1.1c.1-.1.3.2.493.2a.3.3,0,0,0-.2-.1c.2,0,.3.2.492.1a1.055,1.055,0,0,0-.591-.2c-.1-.1-.2-.2-.3-.2v-.1a5.474,5.474,0,0,0-.788-.591c-.1-.2-.394-.3-.492-.492,0,0,0-.1-.1,0-.1-.1-.2-.2-.2-.3l.493.492h.1a6.644,6.644,0,0,0,3.546,1.674h.689a.136.136,0,0,1,0-.2c.1,0,.2,0,.2.1h0a5.779,5.779,0,0,0,1.97-.591v-.1h.1c.591-.3,1.182-.788,1.773-1.083a3.476,3.476,0,0,1,.788-1.28.512.512,0,0,1-.2.394c0,.3-.2.394-.394.591.1,0,.2-.1.3-.2v-.1c.1-.1.1-.3.3-.2h0c.1,0,0,.1,0,.1v-.1c.1,0,.2-.394.2-.492v-.2a.1.1,0,0,1,.1-.1,2.875,2.875,0,0,0,.2-.886.1.1,0,0,0-.1-.1c.1,0,0,0,.1-.1v0c.1,0,0-.1.1-.2a5.82,5.82,0,0,0-.1-1.871c0-.2-.1-.394-.1-.591a.752.752,0,0,1-.2-.492,6.424,6.424,0,0,0-1.576-2.068,6.122,6.122,0,0,0-3.742-1.379,2.727,2.727,0,0,0-.886.1h.1c0,.2-.2.1-.1,0a.592.592,0,0,0-.394.1.361.361,0,0,0-.3.1c-.2.1-.493.1-.689.2a8.929,8.929,0,0,0-1.871,1.28c-.1.1-.2.3-.3.394-.1,0-.1.1-.2.1a3.275,3.275,0,0,0-.591.985c-.1,0-.1.1-.2.2.1.2-.2.492-.2.886h0v.1c-.1,0,0,.1-.1.1,0,0,.1.1,0,.1,0-.1,0,0-.1.1h0v.1c-.1,0-.1,0,0,.1a.1.1,0,0,0-.1.1c0,.492-.394,1.083-.1,1.477C378.1,43.3,378.2,43.3,378.2,43.4Zm11.227-2.265c0,.1-.1.1-.1.2h0v-.2Zm-2.659,6.106h0c-.1-.1,0-.1,0-.1v.1Zm1.773-1.674h0c-.1-.1,0-.1,0-.1v.1Zm-.1-.689h0l.1-.1v.1Zm0,.2c0-.1.1-.1.2,0C388.638,45.176,388.539,45.176,388.441,45.077Zm.689-3.152h0v.3C389.032,42.123,389.13,42.024,389.13,41.926Zm-.492.1h.2l-.1.1-.1-.1Zm-.3,3.152c.1,0,.1.1.1.2h-.1Zm-.2,1.182a.1.1,0,0,1,.1-.1C388.441,46.259,388.244,46.456,388.145,46.358Zm.1-.492c0,.1-.1.1-.2,0A.137.137,0,0,1,388.244,45.865Zm-.3.492Zm-.394-.3h.2c-.1.1-.1,0-.2.1.1.1,0,0,0-.1Zm-.591-7.583h.1v.1h-.1Zm0,2.167h0c0,.1-.1.1-.1.2-.1-.1-.1-.2-.2-.2Zm-.2-2.068h0C386.569,38.676,386.668,38.38,386.766,38.577Zm-7.78,6.3a.591.591,0,0,0-.1-.394.748.748,0,0,0-.2-.394v-.2c.1.1.1.2.2.3.1.3.1.689.2.985A.763.763,0,0,1,378.986,44.88Zm0-3.053.1-.1c0,.1,0,.2.1.2C379.085,42.024,378.986,41.827,378.986,41.827Zm.492,3.152c-.1,0-.2,0-.2-.1h.2Zm.2-1.477h0a.1.1,0,0,1,.1-.1h.1v.1h-.2Zm.2-1.773h0C379.577,41.827,379.774,41.532,379.873,41.729Zm-.2,3.349c.1,0,.2,0,.2.1C379.774,45.274,379.676,45.176,379.676,45.077Zm.2-.788c-.1,0-.1-.1,0,0-.1-.1,0-.1,0-.1v.1Zm.2-2.758h0c-.1-.1,0-.1,0-.1v.1Zm.492,2.167h0c-.1-.1,0-.1,0-.1v.1Zm0-2.265h0c-.1-.1,0-.1,0-.1v.1Zm.2,2.659Zm.1-4.235h0c-.1-.1,0-.2-.1-.2v-.1h.1v.3Zm.3.492c-.1,0,0-.2-.1-.2h0a.1.1,0,0,1,.1.1S381.251,40.252,381.153,40.35Zm-.1.886c0-.1.2-.1.2.1C381.153,41.335,381.153,41.236,381.055,41.236Zm.3,3.939c-.1,0-.1-.1,0,0,0-.1.1-.2.1-.3.1,0,.1.1.1.2C381.448,44.88,381.35,45.077,381.35,45.176Zm.1-1.477c.1-.2.1.1,0,0Zm0,.1c.1.1-.2.1,0,0Zm0-.591h0c-.1-.1,0-.1,0-.1v.1Zm.1.1h0c-.1-.1,0-.1,0-.1v.1C381.645,43.206,381.547,43.206,381.547,43.3Zm-.1-.3c0-.1.1-.1,0,0,.1-.1.1,0,.1,0Zm.3,2.955c-.1.1-.1-.2,0,0Zm.1,1.674c0-.1.1-.1.1-.2a.1.1,0,0,1,.1.1C382.039,47.638,381.941,47.638,381.842,47.638Zm.3-7.78c0,.2-.2.1-.2,0C382.039,39.759,381.941,39.858,382.138,39.858Zm-.1-.689c.1-.1.1,0,.3,0v.1h-.1C382.138,39.267,382.138,39.267,382.039,39.168Zm0,5.023c0-.1.1-.1.2,0C382.236,44.29,382.138,44.29,382.039,44.191Zm.1-.492c0-.1,0-.1.1-.2C382.335,43.6,382.236,43.8,382.138,43.7Zm0-5.023v-.3h.2C382.236,38.577,382.433,38.676,382.138,38.676Zm.886,4.136a.189.189,0,0,1-.1-.3C383.024,42.615,383.123,42.812,383.024,42.812Zm.394,1.379h0c-.1.1-.2.1-.2,0Zm0-4.924s.1-.1.1,0C383.615,39.365,383.32,39.464,383.418,39.267Zm.1.3a.1.1,0,0,1-.1-.1h.2C383.615,39.562,383.517,39.464,383.517,39.562Zm.3,8.47a.1.1,0,0,1-.1-.1.1.1,0,0,1,.1.1v-.3C384.009,47.737,383.812,47.933,383.812,48.032Zm.591-9.061c0-.1.1-.1,0,0,.1-.1.1,0,.1,0Zm.1-.394h0c.1-.1.1,0,.1,0h-.1C384.6,38.676,384.6,38.577,384.5,38.577Zm.1,9.356v-.1c0-.1.2.1.2.1Zm.1-3.841a.1.1,0,0,1-.1-.1l.1-.1v.2C384.8,43.994,384.7,43.994,384.7,44.093Zm.3,1.28c.1,0,.1,0,.2.1C385.092,45.57,384.9,45.57,384.994,45.373Zm-.1-6.894c.1,0,.1.1.1.2C384.9,38.676,384.9,38.577,384.9,38.479Zm.394-.1h.1C385.388,38.577,385.191,38.577,385.289,38.38Zm.1.2h0c.1-.1.1,0,.1,0Zm.1.1h0c-.1-.1,0-.1,0-.1.1,0,.1,0,0,.1Zm.2,6.106c0-.1,0-.1.1-.2a.1.1,0,0,1,.1.1A.306.306,0,0,1,385.683,44.782Zm.1-6.2c0-.1.1-.1.2,0C385.979,38.676,385.88,38.577,385.782,38.577Zm.2,5.614h0c.1.1,0,.1,0,.1v-.1Zm-.3-1.182h0a.1.1,0,0,1,.1-.1C385.88,42.911,385.88,43.206,385.683,43.009Zm.2.1v.1h-.1v-.1Zm0,3.546c-.1,0-.1,0-.1-.1l.1.1c0-.1,0-.1.1-.1h0a.1.1,0,0,1,.1.1C386.077,46.555,385.979,46.653,385.88,46.653Zm.2-3.25v-.1h.1c0,.1,0,.1-.1.1Zm.2,4.136c0-.1-.1-.1,0,0-.1-.1,0-.1,0-.1v.1Zm-.1-6.7c0-.1,0-.1.1-.2h.2v.1c-.1,0-.1,0-.1.1v.1a.1.1,0,0,0,.1-.1v.1C386.274,40.842,386.274,40.842,386.175,40.842Zm.3-2.167c.1,0,.1.2,0,.2a.212.212,0,0,1-.2-.2C386.373,38.676,386.471,38.774,386.471,38.676Zm-.394-.886c.1,0,.1,0,.2.1v-.1a.1.1,0,0,1,.1.1h.1c-.3.2-.2.689-.394.886-.1-.394.1-.689,0-.985Zm-1.083-.689h.1v.1h-.1Zm-.2.1h0C384.6,37.3,384.7,37.1,384.8,37.2Zm-.3.1a.1.1,0,0,1,.1.1c.1,0,.1,0,.2-.1.1,0,0,.1.1.1,0-.1.394-.1.492,0h0c.1,0,.2.1.3.1v-.1a2.156,2.156,0,0,1,.492.3,7.605,7.605,0,0,0-1.477-.2s.1,0,0-.1v.1a.212.212,0,0,1-.2-.2C384.4,37.4,384.5,37.4,384.5,37.3Zm-.2.2s.2,0,.2.1h-.3Zm.2,6.894h0l-.1.1-.1-.1C384.206,44.29,384.4,44.29,384.5,44.388Zm-.394,3.349h0c-.1-.1,0-.1,0-.1v.1Zm0-8.47h0c.1.1,0,.1,0,.1v-.1Zm-.1-2.068c0,.1-.1.1-.2,0Zm-.2,4.235h.3v.1a.361.361,0,0,0-.3-.1Zm0,5.023c.1.1,0,.1.1.1l-.1.1h-.2a.1.1,0,0,1,.1-.1c0-.2-.1-.1-.2-.1C383.714,46.358,383.714,46.555,383.812,46.456Zm-.1-7.879c-.1,0-.1,0-.1.1v-.2a.1.1,0,0,0,.1-.1Zm-.1-.985h0c-.1-.1,0-.1,0-.1v.1Zm0-.3h0c-.1.1-.1,0-.1,0Zm-.2-.1h0c.1.1,0,.1,0,.1v-.1Zm-.492,0c.1,0,.1.1.1.2C382.926,37.4,382.926,37.3,382.926,37.2Zm-.2.492c-.1-.1.2-.1.3-.1.2,0,.3-.1.394,0a1.677,1.677,0,0,0-.689.1Zm0,6.894c-.1,0-.2-.2-.1-.2S382.827,44.486,382.729,44.585Zm-.2-6.2h0c-.1-.1,0-.1,0-.1.1,0,.1,0,0,.1Zm-.2-.886c.1,0,.1,0,.1.1h-.1Zm-1.576.591h.1v.1h-.1Zm-.591.788h0c.1.1,0,.1,0,.1v-.1Zm-1.576,2.856h0a1.463,1.463,0,0,1,.1-.591h0v-.1c.1,0,0-.1,0,0v.1a.1.1,0,0,0,.1-.1s.2-.1.1-.2h.1v-.1a.1.1,0,0,0,.1-.1h0l.2-.2a.216.216,0,0,1,.1-.3h.2c0-.1.1-.1,0-.1a.1.1,0,0,0,.1-.1c.1,0,0-.1.2-.1a.1.1,0,0,1,.1-.1h-.2a.362.362,0,0,1,.3-.1h0c.1,0,0-.1.1-.1h0c.2-.1,0-.1.1-.1h0v-.1h.1a10.309,10.309,0,0,1,1.083-.788c0-.1,0-.1.1-.1,0-.1,0-.1.1-.2-.1,0,0-.1.1-.1a.969.969,0,0,1,.788-.3h.3l-.3.3c0-.1.2-.2,0-.3-.2,0-.394,0-.394.2-.2.1.1.2.1.394-.492.394-1.28.788-1.576,1.28-.2,0-.1-.2-.3-.1-.1.2.2.1.2.2-.1.2-.2.1-.493.1a3.709,3.709,0,0,0-.886,1.477h.1v.1h-.1c0,.2-.1.3-.1.492h0v0A2.2,2.2,0,0,1,378.592,41.729Zm0,.492v-.2h0v.2Zm0,.1v.2h0Z" transform="translate(-5.721 -0.562)"/>
    <path id="Path_35" data-name="Path 35" class="cls-1" d="M378.1,44.6Z" transform="translate(-5.722 -0.675)"/>
    <path id="Path_36" data-name="Path 36" class="cls-1" d="M378.4,45.4Z" transform="translate(-5.726 -0.687)"/>
    <path id="Path_37" data-name="Path 37" class="cls-1" d="M378.4,45.3Z" transform="translate(-5.726 -0.686)"/>
    <path id="Path_38" data-name="Path 38" class="cls-1" d="M385.527,48.4h0c0-.1-.1-.1-.1,0h.1a4.038,4.038,0,0,1-1.083.1.1.1,0,0,1-.1.1c.1,0,0-.1.1,0v.1h-.2c.1,0,0-.1.1-.1h-.1c0-.1-.2-.1-.2,0,0,0,0-.1-.1,0a1.424,1.424,0,0,1-.69.2c-.394,0-.788-.2-1.182-.2-.492.1-.788.2-1.28.3v.1c.492.1.886-.2,1.477-.2a.1.1,0,0,1,.1.1.362.362,0,0,1,.3.1h.1v.1c.2,0,.3.1.394.1,0,.1,0,.2.1.1v-.1c.3,0,.394-.1.69-.1v.1a.3.3,0,0,1,.394,0v-.1c.1,0,.3-.2.394-.1,0-.1.3-.1.394-.1,0,0-.1.1,0,.1,0-.1.2-.1.3-.1v.1c.2,0,.2-.2.2-.3,0,.1-.2.1-.2.1s.1,0,0-.1a.362.362,0,0,0,.3-.1C385.823,48.3,385.626,48.4,385.527,48.4Zm-.394.2c0-.1.2-.1.3-.1h0A.43.43,0,0,1,385.134,48.6Z" transform="translate(-5.762 -0.732)"/>
    <path id="Path_39" data-name="Path 39" class="cls-1" d="M386.1,48.3Z" transform="translate(-5.843 -0.731)"/>
    <path id="Path_40" data-name="Path 40" class="cls-1" d="M386.1,48.3h0Z" transform="translate(-5.841 -0.731)"/>
    <path id="Path_41" data-name="Path 41" class="cls-1" d="M381.7,48.3h0c0,.1.1,0,0,0Z" transform="translate(-5.776 -0.731)"/>
    <path id="Path_42" data-name="Path 42" class="cls-1" d="M381.7,48.4h0c.1,0,.1.1,0,0Z" transform="translate(-5.776 -0.733)"/>
    <path id="Path_43" data-name="Path 43" class="cls-1" d="M381.2,48.6c0,.1.1.1,0,0-.1,0,.1-.1.1-.1h0c-.1,0-.1,0-.1.1Z" transform="translate(-5.768 -0.734)"/>
    <path id="Path_44" data-name="Path 44" class="cls-1" d="M385.3,49h0C385.3,49.1,385.2,49,385.3,49Z" transform="translate(-5.829 -0.742)"/>
    <path id="Path_45" data-name="Path 45" class="cls-1" d="M385.1,49.1h0C385.2,49.2,385.2,49.1,385.1,49.1Z" transform="translate(-5.828 -0.743)"/>
    <path id="Path_46" data-name="Path 46" class="cls-1" d="M384.8,49.3c0-.1,0-.1-.1-.1h0C384.7,49.3,384.7,49.4,384.8,49.3Z" transform="translate(-5.822 -0.745)"/>
    <path id="Path_47" data-name="Path 47" class="cls-1" d="M378.7,41.5h0a.1.1,0,0,1,.1-.1h0Z" transform="translate(-5.731 -0.627)"/>
    <path id="Path_48" data-name="Path 48" class="cls-1" d="M380.1,46.6Z" transform="translate(-5.752 -0.705)"/>
    <path id="Path_49" data-name="Path 49" class="cls-1" d="M381.5,38.6h-.1c.1,0,.1.1.1,0Z" transform="translate(-5.772 -0.584)"/>
    <path id="Path_50" data-name="Path 50" class="cls-1" d="M383.4,37.1Z" transform="translate(-5.802 -0.562)"/>
    <path id="Path_51" data-name="Path 51" class="cls-1" d="M386.7,47.8v-.2a.1.1,0,0,0-.1.1C386.6,47.8,386.6,47.8,386.7,47.8Z" transform="translate(-5.851 -0.721)"/>
    <path id="Path_52" data-name="Path 52" class="cls-1" d="M387.5,47.3c0,.1,0,.1.1.1C387.6,47.3,387.6,47.3,387.5,47.3Z" transform="translate(-5.864 -0.716)"/>
    <path id="Path_53" data-name="Path 53" class="cls-1" d="M418.377,121.391c-24.129.492-45.895.492-69.531,0-5.811-.1-11.72-.3-17.53-.492-9.258-.3-18.811.492-28.266.492-1.674,0-3.348.1-5.023.1-17.235.394-32.3-.591-46.978-.3-10.046.2-20.879-.591-29.053.788.1,1.28-.788,2.856,0,3.939,20.387-.886,41.266-.591,63.031-.2,6.894-.689,12.9-.394,18.909-.591.886,0,1.97-.394,2.856-.394.591,0,1.083.3,1.674.3.3,0,.788-.394,1.182-.394s.985.3,1.477.3c3.152,0,5.811-.591,7.879-.2.69-.2-.394-.591.2-.689.492-.1.689.3,1.477.394.2-.3-.689-.492,0-.492,1.083.394,3.152-.3,2.659.394.887.2.2-.492.69-.394a9.612,9.612,0,0,0,4.038.394c.591,0-.1-.788.985-.492a7.265,7.265,0,0,0,4.826.2c1.182-.1-.394.591.689.394.591,0,.2-.492.985-.394.788,0,.394.591,1.182.492,3.25-.394,6.6.689,9.356-.2.591,0,.3.492.985.591,0-.2,0-.492.493-.394,1.97.788,5.22.394,8.174.492,3.644.1,7.288.591,9.553-.2,2.659.492,10.341,1.182,12.9.1,12.7.788,25.213-.689,34.963-.2,5.121-.788,10.636-.394,16.053-.591,1.674-.492,3.053-1.28,3.152-2.659C429.013,120.6,423.793,121.293,418.377,121.391Z" transform="translate(-3.354 -1.829)"/>
    <path id="Path_54" data-name="Path 54" class="cls-1" d="M188.143,123.4c-15.462.886-31.417.689-47.963.3-5.22.788-9.75.394-14.379.591-.689,0-1.477.394-2.167.394-.492,0-.886-.3-1.28-.3-.3,0-.591.394-.886.394s-.788-.3-1.083-.3c-2.364,0-4.432.591-6.008.2-.492.2.3.591-.2.689-.394.1-.492-.3-1.083-.394-.2.3.591.492,0,.492-.788-.394-2.364.3-1.97-.394-.689-.2-.1.492-.591.394a5.773,5.773,0,0,0-3.053-.394c-.394,0,.1.788-.689.492a4.266,4.266,0,0,0-3.644-.2c-.886.1.3-.591-.591-.394-.492,0-.1.492-.689.394-.591,0-.3-.591-.886-.492-2.462.394-5.023-.689-7.091.2-.492,0-.3-.492-.689-.591,0,.2,0,.492-.394.394-1.576-.788-3.939-.394-6.2-.394-2.758-.1-5.515-.591-7.288.2-2.068-.492-7.879-1.182-9.849-.1-9.652-.788-19.2.788-26.591.2-3.841.788-8.076.394-12.212.591a3.141,3.141,0,0,0-2.364,2.659c2.659.689,6.6,0,10.735-.1,18.417-.492,34.864-.591,52.887-.1,4.432.1,8.864.3,13.3.492,7.091.3,14.28-.492,21.47-.492,1.28,0,2.561-.1,3.841-.1,13.1-.394,24.621.492,35.75.2,7.682-.2,15.856.591,22.061-.788C188.045,126.059,188.734,124.483,188.143,123.4Z" transform="translate(-0.426 -1.868)"/>
    <path id="Path_55" data-name="Path 55" class="cls-1" d="M199.2,123.9h0Z" transform="translate(-3.014 -1.876)"/>
    <path id="Path_56" data-name="Path 56" class="cls-1" d="M199.5,124.1h0c.1-.1.1,0,0,0Z" transform="translate(-3.018 -1.878)"/>
    <path id="Path_57" data-name="Path 57" class="cls-1" d="M212.05,126.1a7.847,7.847,0,0,1-1.674,1.477c-.492.3-.985.492-1.576.788a9.584,9.584,0,0,0,2.265-1.083c0,.1-.1.1-.2.1.1,0,.1-.1.2-.1v-.1l.886-.886c0-.1.2-.2.1-.2Z" transform="translate(-3.159 -1.909)"/>
    <path id="Path_58" data-name="Path 58" class="cls-1" d="M203.8,128.2Z" transform="translate(-3.083 -1.941)"/>
    <path id="Path_59" data-name="Path 59" class="cls-1" d="M203.2,128.3s-.1-.1,0-.1h-.1a.1.1,0,0,1,.1.1Z" transform="translate(-3.073 -1.941)"/>
    <path id="Path_60" data-name="Path 60" class="cls-1" d="M203.6,128.3h0Z" transform="translate(-3.079 -1.942)"/>
    <path id="Path_61" data-name="Path 61" class="cls-1" d="M202.7,128.3h0c.1,0,.1-.1,0,0C202.8,128.2,202.8,128.3,202.7,128.3Z" transform="translate(-3.067 -1.942)"/>
    <path id="Path_62" data-name="Path 62" class="cls-1" d="M202.6,128.5c0-.1.1-.1.1-.2h0c0,.1-.1.1-.1.2Z" transform="translate(-3.065 -1.942)"/>
    <path id="Path_63" data-name="Path 63" class="cls-1" d="M202,128.4c0,.1.2.1.2.1-.1-.1,0-.1.1-.2A.486.486,0,0,0,202,128.4Z" transform="translate(-3.056 -1.942)"/>
    <path id="Path_64" data-name="Path 64" class="cls-1" d="M202.8,128.5Z" transform="translate(-3.068 -1.944)"/>
    <path id="Path_65" data-name="Path 65" class="cls-1" d="M202.9,128.5Z" transform="translate(-3.069 -1.945)"/>
    <path id="Path_66" data-name="Path 66" class="cls-1" d="M207.1,129.3c-.1,0-.1-.1,0,0a.1.1,0,0,0-.1.1h0C207,129.3,207,129.3,207.1,129.3Z" transform="translate(-3.132 -1.957)"/>
    <path id="Path_67" data-name="Path 67" class="cls-1" d="M207.8,129.4v.1c.1,0,.1,0,0-.1Z" transform="translate(-3.144 -1.959)"/>
    <path id="Path_68" data-name="Path 68" class="cls-1" d="M207.4,129.5Z" transform="translate(-3.138 -1.96)"/>
    <path id="Path_69" data-name="Path 69" class="cls-1" d="M203.6,129h-.1C203.5,129.1,203.6,129,203.6,129Z" transform="translate(-3.079 -1.953)"/>
    <path id="Path_70" data-name="Path 70" class="cls-1" d="M207.3,129.6Z" transform="translate(-3.136 -1.961)"/>
    <path id="Path_71" data-name="Path 71" class="cls-1" d="M203.6,129.2h0c0-.1-.1,0,0,0Z" transform="translate(-3.079 -1.955)"/>
    <path id="Path_72" data-name="Path 72" class="cls-1" d="M203.9,129.2h0C204,129.2,203.9,129.1,203.9,129.2Z" transform="translate(-3.085 -1.955)"/>
    <path id="Path_73" data-name="Path 73" class="cls-1" d="M204.3,129.2h-.1C204.2,129.3,204.3,129.3,204.3,129.2Z" transform="translate(-3.089 -1.956)"/>
    <path id="Path_74" data-name="Path 74" class="cls-1" d="M206.5,129.6h0c-.1.1-.1,0,0,0h0c.1.1.1.1.2.1A.344.344,0,0,1,206.5,129.6Z" transform="translate(-3.123 -1.961)"/>
    <path id="Path_75" data-name="Path 75" class="cls-1" d="M203.5,129.3Z" transform="translate(-3.079 -1.956)"/>
    <path id="Path_76" data-name="Path 76" class="cls-1" d="M204,129.3h0Z" transform="translate(-3.085 -1.957)"/>
    <path id="Path_77" data-name="Path 77" class="cls-1" d="M204.1,129.4h0C204.2,129.5,204.2,129.4,204.1,129.4Z" transform="translate(-3.088 -1.959)"/>
    <path id="Path_78" data-name="Path 78" class="cls-1" d="M213.38,119.524l-.3-.591a6.9,6.9,0,0,0-1.871-2.561,7.617,7.617,0,0,0-4.531-1.773,3.688,3.688,0,0,0-1.083.1h.1c0,.2-.2.2-.2,0a.888.888,0,0,0-.492.1.592.592,0,0,0-.394.1c-.3.1-.591.1-.788.2a7.639,7.639,0,0,0-2.364,1.576c-.1.2-.3.3-.394.394-.1,0-.1.1-.2.1a3.4,3.4,0,0,0-.689,1.182.212.212,0,0,0-.2.2c.1.3-.3.591-.2,1.083h0v.1c-.1,0,0,0,0-.1v.1c-.1,0,0,.1-.1.1,0,0,.1.1,0,.1,0-.1,0,.1-.1.1h.1c0-.1,0,0-.1,0h-.1v.1c-.1,0-.1,0,0,.1a.1.1,0,0,0-.1.1c0,.689-.591,1.28-.1,1.773-.1,0,0,.1,0,.2h0v.1h0s-.1.1,0,.1h0v.2h-.1s.1,0,0,.1h-.1c.2.1.1.3.1.394h.2v.1h-.1c.1,0,0,.1,0,.1h.1c.1,0,0,.1.1,0v.2h0c.1.1-.1.1-.1.1s.1-.1.1,0v.1a.1.1,0,0,0,.1.1c-.1.1,0,.1,0,.1v.1c.1,0,0-.1,0,0a.362.362,0,0,0,.1.3c-.1,0,0,.1,0,0a.1.1,0,0,1,.1.1h0c0,.1,0,.1.1.2v.1c-.1.1.1.2.1.3h-.1c.1.1-.1.1,0,.1h.1v.1c-.1,0,0,.1,0,.1a.1.1,0,0,0-.1.1l.1.1h0v.1c.1,0,.1,0,.1.1h-.2c.1.1.394.1.394.2.1,0,.3.1.3.2,0,0,.1-.1.1,0-.1,0-.1.2-.1.1s.1,0,.3,0a.1.1,0,0,0,.1.1h0c0,.1-.1.1,0,.1h.1s-.1.1,0,.1v-.1c.1.1.2.2.2.3h.1v-.1c0,.1.1.1.1.2h.1a.1.1,0,0,0,.1.1v.1h0a.393.393,0,0,1,.394.2c.2,0,.3.2.394.2h.2c.1,0,0,.1.1.1,0-.1.1.1.1-.1-.1-.1-.2-.1-.2-.2h.1c0,.1.2,0,.2.2h-.1a.1.1,0,0,0,.1.1v-.1a.1.1,0,0,1,.1.1c.2-.1.394.2.591.2-.1-.1-.2-.1-.3-.2.2,0,.394.3.591.1a1.425,1.425,0,0,0-.689-.2,1.035,1.035,0,0,0-.394-.3v-.1a3.539,3.539,0,0,0-.985-.689c-.2-.3-.394-.394-.591-.689-.1,0,0-.1-.1-.1-.1-.1-.2-.3-.3-.394l.591.591h0a.1.1,0,0,0,.1.1v.1a7.49,7.49,0,0,0,4.333,2.068h.788a.136.136,0,0,1,0-.2c.1,0,.2,0,.2.2h0a7.066,7.066,0,0,0,2.462-.689v-.1h.2c.788-.394,1.477-.886,2.167-1.28a5.294,5.294,0,0,1,.985-1.576c-.1.2-.1.394-.2.492,0,.3-.3.492-.394.788.2,0,.3-.2.394-.3v-.2c.1-.1.2-.394.3-.3,0,0,0-.1.1,0,.1,0,0,.1,0,.1v-.2c.1.1.3-.492.3-.591v-.2c0-.1.1-.1.1-.2a4.435,4.435,0,0,0,.3-1.083.1.1,0,0,0-.1-.1c.1,0,0-.1.1-.1v0c.1,0,.1-.1.1-.2a6.373,6.373,0,0,0-.1-2.364C213.479,120.017,213.38,119.721,213.38,119.524Zm-4.432-3.939c.1,0,.1,0,.2.1v-.1a.1.1,0,0,1,.1.1c0-.1.1,0,.1,0h0c-.3.2-.2.886-.492,1.083,0-.394.3-.788.1-1.182Zm-1.28-.886h.2v.2h-.2Zm-.3.2v.1C207.176,114.994,207.373,114.7,207.373,114.9Zm-.3.1c.1,0,.1.1.1.2.1.1.1,0,.2-.1.1,0,0,.2.1.1a.628.628,0,0,1,.591,0h0c.1,0,.2.1.3.1v-.1a6.049,6.049,0,0,0,.591.394c-.591-.1-1.182-.2-1.871-.3l.1-.1a.1.1,0,0,1-.1.1.212.212,0,0,1-.2-.2C206.979,115.092,207.077,115.092,207.077,114.994Zm1.379,7.091h.2v.2h-.2Zm-.1-.2h0l.1-.1C208.555,121.888,208.555,122.183,208.358,121.888Zm-1.477-6.7c.1.1.2,0,.2.1h-.394C206.782,115.191,206.782,115.092,206.88,115.191Zm.2,1.674h0c-.1.1-.1,0-.2,0Zm-.591-2.068c0,.1-.2.1-.2,0Zm-.394,1.674c-.1,0-.1.1-.2.1v-.2c.1,0,.1,0,.2-.1C205.994,116.373,206.093,116.373,206.093,116.471Zm-.2-1.28h0c-.1-.1,0-.1,0-.2,0,.1.1.1,0,.2Zm.1-.3c0,.1-.1.1,0,0-.1.1-.1,0-.2,0Zm-.3-.1h0c.1.1,0,.1,0,.2v-.2Zm-.591,0c.2,0,.2.1.1.2C205.108,114.994,205.108,114.9,205.108,114.8Zm-.689.3c.1,0,.2.1.1.2h-.2Zm-1.871.788h.2v.2h-.2Zm-.788.886h0c.1.1,0,.1,0,.2v-.2Zm-2.068,4.432h0v0Zm0-.394v0h0c0-.1.1-.2,0-.3h0A.185.185,0,0,1,199.691,120.8Zm.394,3.25a.888.888,0,0,0-.1-.492c0-.2-.1-.3-.2-.492v-.2c.1.1.2.2.2.3.1.394.1.788.2,1.182A.362.362,0,0,0,200.085,124.055Zm.1-3.644.1-.1a.362.362,0,0,0,.1.3C200.282,120.608,200.282,120.411,200.183,120.411Zm.591,3.742c-.1,0-.2,0-.2-.2h.2Zm.2-1.773v-.1h.2v.2h-.1l-.1-.1Zm.3-2.167v.1C200.971,120.312,201.168,120.017,201.267,120.214Zm-.2,4.137c.1,0,.2,0,.2.2C201.168,124.547,200.971,124.547,201.07,124.35Zm.2-.985h0c-.1-.1,0-.1,0-.2v.2Zm.3-3.349h0c-.1-.1,0-.1,0-.2v.2Zm.492,2.758h0c-.1-.1,0-.1,0-.2v.2C202.153,122.676,202.055,122.676,202.055,122.774Zm.1-2.856h0c-.1-.1,0-.1,0-.2v.2Zm.2,3.152h-.1v-.1h.1Zm.2-5.023a.1.1,0,0,1-.1-.1c0-.1.2-.1,0-.2v-.1a.1.1,0,0,0,.1-.1h0v.492Zm.394.591c-.1,0,0-.2-.1-.3h.1c.1,0,.2.1.1.1S203.04,118.539,202.941,118.638Zm-.1.985c0-.1.3-.1.2.1C202.843,119.82,202.941,119.721,202.843,119.623Zm.2,4.826a.1.1,0,0,1-.1-.1l.3-.3c.1,0,.2.1.1.3C203.138,124.153,203.04,124.35,203.04,124.449Zm.1-2.364h0c-.1-.1,0-.1,0-.2v.2C203.236,121.987,203.138,121.987,203.138,122.085Zm0,.689c.2.2-.1.1,0,0Zm.1-.1c.1-.2.1.2,0,0Zm.1-.492h0c-.1-.1,0-.1,0-.2v.2C203.433,122.085,203.335,122.085,203.335,122.183Zm-.1-.394h0c.1-.1.1,0,.2,0h-.2C203.335,121.888,203.335,121.789,203.236,121.789Zm.3,3.644c-.2.2-.1-.2,0,0Zm0,2.068c0-.1.1-.1.1-.2a.1.1,0,0,1,.1.1C203.828,127.5,203.729,127.5,203.532,127.5Zm-1.576-9.75c-.2,0-.1-.3-.394-.1-.2.3.2.1.2.3-.2.3-.3.1-.591.1a5.084,5.084,0,0,0-1.182,1.871l.1.1a.1.1,0,0,0-.1.1h-.1c-.1.2-.1.394-.2.591h-.1v0c0-.1-.1-.2,0-.3,0-.1-.1,0,0,0a1.4,1.4,0,0,1,.2-.591h0v-.1c.1,0,0-.1.1-.1v.1a.1.1,0,0,0,.1-.1c.1-.1.2-.1.1-.2.1,0,.1,0,.1-.1a.1.1,0,0,0-.1-.1c.1,0,.1-.1.1-.2h0c.1-.1.2-.1.2-.3-.1-.2.1-.3.1-.394h.2c0,.1.1,0,0-.1h.1c0-.1.1-.1.1-.2a.1.1,0,0,0,.1-.1c.1,0,0-.1.2-.1,0-.1.1-.1.1-.2h-.394a.592.592,0,0,1,.394-.1h0c.1,0,0-.1.1-.1h0c.2-.1,0-.1.1-.1h0v-.1h.1c.394-.3.886-.591,1.28-.886,0-.1,0-.1.1-.1,0-.1,0-.1.1-.2-.1,0,0-.1.1-.1a1.75,1.75,0,0,1,.985-.394l.1-.1a.362.362,0,0,1,.3.1,1.358,1.358,0,0,0-.394.3c0-.1.3-.3,0-.3-.2,0-.394,0-.492.2-.2.1.1.3.1.492C203.236,116.668,202.252,117.161,201.956,117.752Zm1.871.2c.1-.1.1,0,.2,0C204.123,118.244,203.828,118.146,203.828,117.949Zm.1,5.417c0-.1.2-.1.2,0S204.024,123.464,203.926,123.365Zm.1-.591c0-.1.1-.1.1-.2C204.221,122.577,204.221,122.873,204.024,122.774Zm.2-5.417h0c-.2,0-.2-.1-.3-.1.1-.2.1,0,.3,0C204.32,117.259,204.221,117.259,204.221,117.358Zm0-.788a.592.592,0,0,0,.1-.394h.2C204.32,116.373,204.418,116.57,204.221,116.57Zm.394-.492c.1,0,.1.1,0,0,.1.1,0,.1,0,.2v-.2Zm.2,7.682c-.2,0-.2-.2-.1-.3C204.714,123.562,204.911,123.661,204.812,123.759Zm0-8.371h0c0-.1.3-.1.492-.1a.439.439,0,0,1,.492,0,1.7,1.7,0,0,0-.985.1Zm.985,1.871c.1.1-.3.2-.2,0A.136.136,0,0,0,205.8,117.259Zm-.591,4.432c-.2,0-.2-.3-.2-.3C205.206,121.4,205.3,121.593,205.206,121.691Zm.394,1.674v.1c-.1,0-.2,0-.2-.2a.361.361,0,0,0,.3-.1C205.7,123.365,205.7,123.365,205.6,123.365Zm.1-5.811c.1-.1.2,0,.3,0,0,.1-.2,0-.2.1C205.7,117.653,205.7,117.653,205.7,117.555Zm.1,8.864c0-.1.1-.2.2-.1,0-.2-.1-.1-.2-.2.1-.2.2.1.2,0,.1.1,0,.1.1.2l-.1.1Zm.2,1.576-.1-.1a.1.1,0,0,1,.1.1c0-.2,0-.3.1-.394C206.29,127.7,205.994,127.9,205.994,127.994Zm.394-.2h0c-.1-.1,0-.1,0-.2v.2Zm.1-7.879a.3.3,0,0,1-.394,0h.394Zm-.1-2.561h0c.1-.1.1,0,.2,0h-.2C206.487,117.456,206.487,117.358,206.388,117.358Zm.394,6.3h0c-.1,0-.2-.1-.3-.1.1-.1.3-.1.3.1.1-.1.1,0,0,0Zm.1,4.235v-.2c0-.1.2.1.2.1C207.077,127.9,206.979,127.994,206.88,127.9Zm.3-4.727a.1.1,0,0,1-.1-.1.1.1,0,0,0,.1-.1v.2Zm0-6.6h0c-.1-.1,0-.1,0-.2v.2Zm.3,8.273c.1,0,.1.1.2.1C207.57,125.039,207.373,125.039,207.471,124.843Zm.1-8.174c-.1,0-.1-.1-.1-.2C207.668,116.471,207.668,116.57,207.57,116.668Zm.394-.394h.2C208.161,116.471,207.964,116.471,207.964,116.274Zm.1.2h0c.1-.1.1,0,.2,0Zm.2.1h0c.1.1,0,.1,0,.2v-.2Zm.1,7.386a.1.1,0,0,1,.1.1c0,.1-.1.1-.2.1C208.259,123.956,208.358,123.956,208.358,123.956Zm.2,2.462c-.1,0-.1,0-.2-.1h0c.1,0,.1,0,.2-.1h0l.1.1C208.752,126.32,208.653,126.418,208.555,126.418Zm.1-2.856c0-.1.1-.1,0,0,.1-.1.1,0,.2,0Zm0-6.992c0-.1.2-.1.2,0Zm.2,5.811h.2a.1.1,0,0,1-.1.1h-.1Zm.1,5.023h0c-.1-.1,0-.1,0-.2.1.1.1.1,0,.2Zm0-8.076a.305.305,0,0,0,.1-.2h.3v.1c-.1,0-.2,0-.2.1v.1a.1.1,0,0,0,.1-.1v.1C209.244,119.327,209.047,119.327,208.949,119.327Zm.394-2.659c.1.1.1.1.2,0,.1,0,.1.2,0,.3C209.343,116.865,209.343,116.767,209.343,116.668Zm.3,10.44h0c-.1-.1,0-.1,0-.2v.2Zm.2-10.636v.1C209.54,116.668,209.737,116.373,209.835,116.471Zm.2,2.659c0,.1-.1.1-.1.2-.1-.1-.1-.2-.2-.2h.2c0-.1.1-.1.1,0Zm.1-2.561h-.2v-.2h.2Zm.591,9.356h0l-.1-.1v-.1c.1,0,.2-.1.2,0C210.82,125.926,210.721,125.729,210.721,125.926Zm.394.3h0l.2-.1A.305.305,0,0,1,211.115,126.221Zm.394-.689c0,.1-.1.1-.2,0C211.312,125.434,211.411,125.434,211.509,125.532Zm-.2.492a.1.1,0,0,1,.1-.1C211.706,125.926,211.411,126.221,211.312,126.024Zm.394-1.182h-.2c0-.1.1-.1.1-.2C211.706,124.646,211.706,124.744,211.706,124.843Zm0-.591h.2v.1h-.2Zm.1.985h0c-.1-.1,0-.1,0-.2v.2C211.9,125.138,211.8,125.138,211.8,125.237Zm-.1-.689c0-.1.2-.1.2,0S211.8,124.646,211.706,124.547Zm.394-3.644c0-.1-.1-.1-.2-.1h-.2c.1.1.2,0,.3,0h.3C212.2,120.9,212.2,120.9,212.1,120.9Zm.492.1c-.1-.1,0-.2,0-.3v.3Zm.394-.985h0a.185.185,0,0,1,0-.3.1.1,0,0,1,.1.1C212.987,119.82,212.987,119.918,212.987,120.017Z" transform="translate(-3.012 -1.735)"/>
    <path id="Path_79" data-name="Path 79" class="cls-1" d="M199.2,123.7h0c-.1,0,0,.1,0,0Z" transform="translate(-3.013 -1.873)"/>
    <path id="Path_80" data-name="Path 80" class="cls-1" d="M199.4,124.6Z" transform="translate(-3.017 -1.886)"/>
    <path id="Path_81" data-name="Path 81" class="cls-1" d="M199.5,124.7Z" transform="translate(-3.017 -1.888)"/>
    <path id="Path_82" data-name="Path 82" class="cls-1" d="M199.4,124.7Z" transform="translate(-3.017 -1.888)"/>
    <path id="Path_83" data-name="Path 83" class="cls-1" d="M208.8,128.4h-.1C208.7,128.5,208.8,128.4,208.8,128.4Z" transform="translate(-3.157 -1.944)"/>
    <path id="Path_84" data-name="Path 84" class="cls-1" d="M208.7,128.4Z" transform="translate(-3.157 -1.944)"/>
    <path id="Path_85" data-name="Path 85" class="cls-1" d="M203.4,128.4Z" transform="translate(-3.077 -1.944)"/>
    <path id="Path_86" data-name="Path 86" class="cls-1" d="M203.5,128.5Z" transform="translate(-3.079 -1.945)"/>
    <path id="Path_87" data-name="Path 87" class="cls-1" d="M202.8,128.7c0,.1.1.1,0,0-.1,0,.1-.1.1-.1h0c-.1,0-.2.1-.1.1Z" transform="translate(-3.067 -1.947)"/>
    <path id="Path_88" data-name="Path 88" class="cls-1" d="M207.6,129.3c.1,0,0-.1.1-.1h-.1C207.7,129.3,207.7,129.3,207.6,129.3Z" transform="translate(-3.141 -1.956)"/>
    <path id="Path_89" data-name="Path 89" class="cls-1" d="M207.6,129.5h0c.1,0,0-.1,0,0C207.6,129.4,207.5,129.5,207.6,129.5Z" transform="translate(-3.14 -1.96)"/>
    <path id="Path_90" data-name="Path 90" class="cls-1" d="M207,129.5c0,.1,0,.1.1.1s0,0-.1-.1Z" transform="translate(-3.132 -1.96)"/>
    <path id="Path_91" data-name="Path 91" class="cls-1" d="M199.9,120h0l.1-.1h-.1Z" transform="translate(-3.024 -1.815)"/>
    <path id="Path_92" data-name="Path 92" class="cls-1" d="M201.5,126.3Z" transform="translate(-3.048 -1.911)"/>
    <path id="Path_93" data-name="Path 93" class="cls-1" d="M203.3,116.5h.2c-.1,0-.1-.1-.2,0Z" transform="translate(-3.076 -1.763)"/>
    <path id="Path_94" data-name="Path 94" class="cls-1" d="M205.7,114.6Z" transform="translate(-3.112 -1.735)"/>
    <path id="Path_95" data-name="Path 95" class="cls-1" d="M208.114,128.5c-.1-.1-.2-.1-.2,0a.1.1,0,0,1,.1.1,4.8,4.8,0,0,1-1.182.1c-.1,0,0,.1-.1.1.1,0,0-.1.1,0v.1c-.1,0-.1.1-.2,0,.1,0,0-.1.1-.2,0-.1,0,0-.1,0,0-.1-.2-.1-.2,0a.1.1,0,0,0-.1-.1,2.354,2.354,0,0,1-.886.2,5.67,5.67,0,0,1-1.379-.3,8.855,8.855,0,0,1-1.576.3v.1c.69.1,1.083-.2,1.773-.2,0,.1.1,0,.1.1a.592.592,0,0,1,.394.1h.1s.1,0,0,.1c.2,0,.3.1.493.2,0,.1,0,.2.1.2v-.1a1.855,1.855,0,0,0,.788-.2v.1c.1-.2.394-.1.493,0v-.1c.2,0,.3-.2.492-.2,0-.1.394-.1.492-.2,0,0-.1.1,0,.1a.512.512,0,0,1,.394-.2v.1c.2,0,.3-.2.2-.3,0,.1-.2.1-.3.1,0,0,.1,0,0-.1.1-.1.3,0,.394-.1,0,.1-.2.2-.3.2Zm-.1.2c-.1,0-.2.1-.394.1,0-.2.3-.2.394-.1Z" transform="translate(-3.064 -1.942)"/>
    <path id="Path_96" data-name="Path 96" class="cls-1" d="M209.5,127.8v-.2c-.1,0-.1.1-.2.1C209.4,127.8,209.4,127.9,209.5,127.8Z" transform="translate(-3.167 -1.932)"/>
    <path id="Path_97" data-name="Path 97" class="cls-1" d="M210.5,127.2c0,.1,0,.2.1.2C210.6,127.2,210.6,127.2,210.5,127.2Z" transform="translate(-3.185 -1.926)"/>
  </g>
</svg>
