<svg width="20" height="14" viewBox="0 0 20 14" fill="none" xmlns="http://www.w3.org/2000/svg">
<g clip-path="url(#clip0_12:1494)">
<path d="M11.3412 5.57391C11.0075 5.4321 10.659 5.32585 10.3018 5.25702C10.0569 5.20206 9.81612 5.13148 9.58089 5.04576C9.44366 4.9951 9.32032 4.91447 9.22045 4.81012C9.14241 4.7221 9.10063 4.60927 9.1031 4.49323C9.09895 4.40858 9.11764 4.32433 9.15733 4.24881C9.19702 4.17329 9.25633 4.10911 9.32942 4.06259C9.52226 3.95406 9.74389 3.90318 9.96647 3.91633C10.1815 3.90947 10.394 3.96309 10.5784 4.07072C10.6525 4.11047 10.717 4.1651 10.7676 4.23095C10.8182 4.29681 10.8537 4.37238 10.8717 4.45261C10.8878 4.49314 10.9168 4.52762 10.9545 4.55102C10.9922 4.57441 11.0366 4.58549 11.0813 4.58261H11.777C11.7971 4.5832 11.817 4.57991 11.8357 4.57293C11.8544 4.56596 11.8715 4.55544 11.886 4.54199C11.8999 4.52796 11.9107 4.5114 11.9179 4.49326C11.9251 4.47512 11.9285 4.45578 11.9279 4.43636C11.9157 4.23627 11.8492 4.04286 11.7351 3.87571C11.6005 3.67848 11.4232 3.5121 11.2154 3.38819C10.9604 3.23739 10.6742 3.14306 10.3772 3.11192V2.60815C10.3796 2.56634 10.3652 2.52527 10.3371 2.49348C10.309 2.46169 10.2693 2.44164 10.2263 2.43752H9.77368C9.75044 2.43719 9.72736 2.44134 9.70578 2.4497C9.6842 2.45807 9.66454 2.4705 9.64794 2.48627C9.63128 2.50208 9.6182 2.52108 9.60954 2.54207C9.60088 2.56305 9.59683 2.58556 9.59765 2.60815V3.09567C9.17744 3.1286 8.77995 3.29414 8.46605 3.56694C8.33142 3.6864 8.22446 3.83217 8.15221 3.99464C8.07997 4.15711 8.04409 4.33259 8.04694 4.50949C8.03499 4.68598 8.06506 4.86277 8.13482 5.0262C8.20459 5.18963 8.31218 5.33532 8.44928 5.45203C8.82789 5.71824 9.26328 5.89872 9.72338 5.98018C10.0698 6.07226 10.3325 6.1481 10.5113 6.20769C10.6607 6.25476 10.7979 6.33234 10.9137 6.4352C10.9572 6.47632 10.9915 6.52565 11.0146 6.58016C11.0377 6.63467 11.049 6.69318 11.0478 6.75209C11.0495 6.84337 11.0264 6.93347 10.9807 7.01335C10.9351 7.09322 10.8686 7.16005 10.7879 7.20711C10.5533 7.3351 10.2854 7.39438 10.0168 7.37774C9.76815 7.39042 9.52097 7.33404 9.30427 7.21523C9.14376 7.12347 9.02199 6.97952 8.9606 6.80896C8.93804 6.76775 8.9066 6.73172 8.8684 6.70333C8.82464 6.69069 8.77803 6.69069 8.73428 6.70333H8.0637C8.04173 6.70317 8.01996 6.70742 7.99977 6.71581C7.97957 6.7242 7.96138 6.73655 7.94635 6.75209C7.93096 6.76542 7.91855 6.78168 7.9099 6.79984C7.90125 6.81801 7.89654 6.83771 7.89606 6.85772C7.9061 7.0783 7.9786 7.29195 8.10561 7.47524C8.25094 7.68107 8.44682 7.84861 8.6756 7.96277C8.95679 8.10495 9.26471 8.19062 9.58089 8.21465V8.7103C9.58006 8.73289 9.58411 8.75539 9.59277 8.77638C9.60143 8.79737 9.61451 8.81637 9.63118 8.83218C9.64778 8.84795 9.66744 8.86038 9.68902 8.86874C9.7106 8.87711 9.73367 8.88125 9.75691 8.88093H10.2096C10.233 8.8821 10.2564 8.87848 10.2783 8.87032C10.3002 8.86216 10.3201 8.84963 10.3367 8.83355C10.3533 8.81746 10.3662 8.79818 10.3746 8.77695C10.3831 8.75572 10.3868 8.73301 10.3856 8.7103V8.21465C10.8387 8.18874 11.2722 8.02689 11.6261 7.75151C11.7752 7.62891 11.8939 7.47549 11.9737 7.30253C12.0535 7.12957 12.0923 6.94148 12.0872 6.75209C12.0971 6.5093 12.033 6.26905 11.9028 6.06143C11.7671 5.85051 11.5723 5.6814 11.3412 5.57391Z" fill="#8D5C87"/>
<path d="M19.2794 11.4487V1.21883C19.2794 1.05809 19.2466 0.898935 19.1829 0.750531C19.1192 0.602127 19.0258 0.467404 18.9082 0.354121C18.7906 0.240838 18.651 0.151231 18.4974 0.0904605C18.3439 0.0296898 18.1795 -0.00104452 18.0137 2.70871e-05H1.98689C1.65342 2.70871e-05 1.33361 0.128436 1.09782 0.357007C0.862021 0.585577 0.729553 0.895585 0.729553 1.21883V11.4487C0.454079 11.5926 0.236295 11.8218 0.110979 12.0998C-0.0143365 12.3777 -0.039957 12.6884 0.0382089 12.9821C0.116375 13.2758 0.293819 13.5357 0.542206 13.7202C0.790593 13.9047 1.0956 14.0032 1.40851 14H18.5921C18.9057 14.0051 19.2121 13.9079 19.4619 13.7241C19.7118 13.5402 19.8907 13.2804 19.9699 12.9861C20.0492 12.6919 20.0242 12.3804 19.899 12.1016C19.7738 11.8228 19.5556 11.5929 19.2794 11.4487ZM1.56778 1.21883C1.56778 1.11108 1.61193 1.00775 1.69053 0.931557C1.76913 0.855367 1.87573 0.812563 1.98689 0.812563H18.0137C18.1249 0.812563 18.2315 0.855367 18.3101 0.931557C18.3887 1.00775 18.4328 1.11108 18.4328 1.21883V11.278H1.56778V1.21883ZM18.5921 13.1875H11.8863C11.9404 13.151 11.9846 13.1024 12.0153 13.0458C12.0459 12.9893 12.062 12.9264 12.0623 12.8625C12.0623 12.7547 12.0182 12.6514 11.9396 12.5752C11.861 12.499 11.7544 12.4562 11.6432 12.4562H8.29032C8.17917 12.4562 8.07257 12.499 7.99397 12.5752C7.91537 12.6514 7.87121 12.7547 7.87121 12.8625C7.8715 12.9264 7.88764 12.9893 7.91828 13.0458C7.94892 13.1024 7.99315 13.151 8.04724 13.1875H1.34146C1.26137 13.197 1.18013 13.1898 1.1031 13.1666C1.02606 13.1434 0.954996 13.1045 0.894596 13.0527C0.834195 13.0008 0.785836 12.9372 0.752716 12.8659C0.719595 12.7945 0.702469 12.7172 0.702469 12.639C0.702469 12.5608 0.719595 12.4835 0.752716 12.4122C0.785836 12.3409 0.834195 12.2772 0.894596 12.2254C0.954996 12.1735 1.02606 12.1347 1.1031 12.1115C1.18013 12.0882 1.26137 12.0811 1.34146 12.0906H18.5921C18.6722 12.0811 18.7534 12.0882 18.8304 12.1115C18.9075 12.1347 18.9785 12.1735 19.0389 12.2254C19.0993 12.2772 19.1477 12.3409 19.1808 12.4122C19.2139 12.4835 19.2311 12.5608 19.2311 12.639C19.2311 12.7172 19.2139 12.7945 19.1808 12.8659C19.1477 12.9372 19.0993 13.0008 19.0389 13.0527C18.9785 13.1045 18.9075 13.1434 18.8304 13.1666C18.7534 13.1898 18.6722 13.197 18.5921 13.1875Z" fill="#8D5C87"/>
</g>
<defs>
<clipPath id="clip0_12:1494">
<rect width="20" height="14" fill="white"/>
</clipPath>
</defs>
</svg>
