<?xml version="1.0" encoding="UTF-8"?>
<svg id="Layer_3" data-name="Layer 3" xmlns="http://www.w3.org/2000/svg" viewBox="0 0 383.52 124.09">
  <defs>
    <style>
      .cls-1, .cls-2 {
        fill: #0b87e8;
      }

      .cls-3 {
        fill: #385661;
      }

      .cls-3, .cls-4, .cls-5, .cls-6, .cls-7, .cls-8, .cls-2, .cls-9, .cls-10, .cls-11, .cls-12, .cls-13, .cls-14, .cls-15 {
        fill-rule: evenodd;
      }

      .cls-4 {
        fill: #57b6ff;
      }

      .cls-5 {
        fill: #2d3956;
      }

      .cls-6 {
        fill: #82e371;
      }

      .cls-7 {
        fill: #598291;
      }

      .cls-8 {
        fill: #3c942c;
      }

      .cls-9 {
        fill: #1e2432;
      }

      .cls-10 {
        fill: #d3e8ef;
      }

      .cls-11 {
        fill: #bdd6de;
      }

      .cls-12 {
        fill: #7eaaba;
      }

      .cls-13 {
        fill: #fff;
      }

      .cls-14 {
        fill: #006cbf;
      }

      .cls-15 {
        fill: #008bf6;
      }
    </style>
  </defs>
  <g>
    <path class="cls-15" d="M51.41,28.28c26.46,0,47.91,21.45,47.9,47.91,0,26.46-21.45,47.91-47.91,47.9-26.42,0-47.85-21.38-47.9-47.8-.06-26.46,21.34-47.95,47.8-48.01,.04,0,.07,0,.11,0Z"/>
    <path class="cls-4" d="M29.48,117.1c1.14-.16,2.31-.02,3.39,.39,5.57,2.25,11.52,3.42,17.53,3.42,12.78,0,24.98-5.31,33.71-14.64,.96-.9,2.23-1.4,3.55-1.38-8.74,11.14-22.09,17.66-36.25,17.71-7.65,.03-15.19-1.86-21.93-5.5Z"/>
    <path class="cls-14" d="M51.41,28.28c1.49,0,2.93,0,4.38,.21-1.14,.23-2.32,.23-3.46,0-.31-.05-.62-.12-.92-.21ZM23.37,115.22c-8.01-5.73-14.07-13.78-17.35-23.07,.33-.02,.66-.02,.99,0h1.49c.1-1.84,.84-3.58,2.09-4.93,.65-.48,1.38-.82,2.16-1.01-1.56-1.49-2.55-3.48-2.8-5.62,0-.75-.11-1.53-.11-2.34l-4.99-2.5c-.52-.28-.98-.65-1.37-1.1,.22-7.24,2.08-14.33,5.45-20.74l4.28-.39c.92-3.58,2.11-7.1,3.55-10.5,3.02-3.14,6.45-5.86,10.2-8.09,1.17-.21,2.34-.35,3.37-.46,4.79-.38,9.6-.33,14.37,.18,1.77,.14,3.55,.32,5.2,.53,.22-.57,.47-1.14,.75-1.69,1.21-2.27,7.56-1.45,10.65-.96-.13-1.17-.4-2.32-.82-3.42,1.1,.2,2.15,.44,3.18,.69,.29,1.09,.46,2.21,.5,3.34,3.18,.76,8.2,2.32,8.45,4.6,.03,.59,.03,1.18,0,1.77,1.67,.46,3.35,.92,5.02,1.45,3.34,1,6.62,2.18,9.83,3.55,12.01,13.7,15.22,33.02,8.3,49.87l-2.24,.18c-.3,.75-.66,1.44-.98,2.11-1.77,3.64-6.3,5.06-9.97,5.73-5.09,.76-10.25,.94-15.38,.53-6.12-.42-12.21-1.24-18.22-2.45-6.01-1.14-11.94-2.69-17.74-4.63-3.46-1.12-6.84-2.47-10.11-4.06v8.37c1.52,.98,2.74,2.36,3.55,3.97,2.83-.25,5.52-1.4,7.66-3.26,1.21-.98,4.56,.46,3.16,4.49-1.55,5.49-6.38,9.42-12.06,9.83l-.05,.04Z"/>
    <path class="cls-13" d="M51.41,38.37c20.91,0,37.86,16.95,37.86,37.86,0,20.91-16.95,37.86-37.86,37.86-20.89,0-37.83-16.92-37.86-37.81-.03-20.91,16.9-37.89,37.81-37.92,.02,0,.04,0,.05,0Z"/>
    <path class="cls-3" d="M33.93,94.41c-4.38,4.25-10.98,5.26-16.43,2.5l-5.41,10.75c7.7,4.24,21.56,4.81,25.48-8.69,1.24-4.35-2.4-5.66-3.64-4.56Z"/>
    <path class="cls-3" d="M35,95.81c-4.44,4.26-10.96,5.56-16.7,3.34l-3.92,7.77c2.76,1.22,5.75,1.82,8.76,1.77,6.12,.07,11.45-4.14,12.79-10.11,.32-.8,.25-1.7-.18-2.45-.2-.2-.48-.32-.76-.32Z"/>
    <path class="cls-7" d="M29.87,99.04c-3.72,1.45-7.85,1.45-11.57,0l-1.61,3.25c4.35,1.82,9.34,1.3,13.22-1.38,.99-.85,.78-1.86-.04-1.86Z"/>
    <path class="cls-3" d="M62.87,100.86c3.45,2.8,5.84,6.69,6.76,11.04l9.16-2.52c-2.34-6.85-9.23-13.57-15.97-14.19l.05,5.68Z"/>
    <path class="cls-3" d="M64.57,100.05c2.98,2.59,5.18,5.96,6.35,9.72l5.59-1.54c-2.22-4.74-6.32-9.72-11.66-11.57l-.28,3.39Z"/>
    <path class="cls-7" d="M73.87,108.97l2.64-.71c-1.68-3.7-4.27-6.92-7.52-9.37-.35,.32-.21,1.06,.18,1.47,2.29,2.41,3.92,5.37,4.7,8.61Z"/>
    <path class="cls-7" d="M37.68,111.51c0-.78-.14-1.6-.18-2.38-.2-1.29,.38-2.58,1.49-3.28,2.39-1.19,4.93-2.02,7.56-2.47l2.02-.48h.62l2.02,.43c2.62,.46,5.17,1.29,7.56,2.47,1.13,.7,1.73,2.02,1.51,3.34,0,.92-.11,1.77-.21,2.73,0,.43,0,.85-.14,1.28-2.79,.63-5.65,.95-8.52,.94-4.7,.01-9.36-.86-13.73-2.57Z"/>
    <path class="cls-10" d="M39.24,112.08c-.11-.99-.18-1.95-.25-3.05-.17-.73,.14-1.5,.78-1.9,2.89-1.31,5.95-2.21,9.08-2.68,3.13,.47,6.18,1.37,9.07,2.68,.62,.41,.92,1.17,.75,1.9-.11,1.6-.18,2.95-.39,4.42-6.36,1.19-12.91,.72-19.04-1.37Z"/>
    <path class="cls-13" d="M41.38,106.35c2.44-.82,4.94-1.45,7.47-1.9v9.53c-2.34-.16-4.66-.54-6.94-1.12-.21-2.16-.39-4.31-.53-6.51Z"/>
    <path class="cls-7" d="M32.9,109.27c-.39-2-.67-4.06-.89-6.1-.14-1.38-.21-2.77-.32-4.13-.36-1.97,.53-3.96,2.24-5,2.89-1.77,8.02-2.93,11.37-3.67,1.03-.25,2.06-.46,3.09-.67l.5-.11,.44,.11c1.03,.21,2.06,.43,3.09,.67,3.35,.75,8.48,1.77,11.37,3.67,1.66,1.06,2.54,3,2.24,4.95-.11,1.37-.18,2.75-.32,4.13-.29,2.92-.77,5.83-1.42,8.69-4.13,1.52-8.49,2.3-12.88,2.31-6.48-.02-12.85-1.69-18.51-4.84Z"/>
    <path class="cls-7" d="M35.53,110.59c-.85-3.86-1.36-7.78-1.53-11.73-.24-1.11,.22-2.25,1.17-2.87,2.64-1.65,8.52-2.96,13.72-4.06,5.15,1.1,11.05,2.41,13.7,4.06,1.1,.67,1.21,1.63,1.17,2.87-.19,4.53-.83,9.03-1.9,13.43,0,0,0,.21-.14,.35-3.34,.92-6.79,1.4-10.26,1.4-5.5,.05-10.95-1.13-15.93-3.46Z"/>
    <path class="cls-12" d="M38.74,111.9c-.8-4.31-1.27-8.66-1.42-13.04-.22-1.05,.11-2.13,.89-2.87,2.04-1.65,6.6-2.96,10.65-4.06,3.99,1.1,8.55,2.41,10.65,4.06,.78,.74,1.12,1.83,.89,2.87-.15,4.51-.65,9-1.49,13.43-.09,.4-.26,.78-.5,1.12-2.29,.43-4.62,.64-6.96,.64-4.33,.05-8.63-.68-12.7-2.15Z"/>
    <path class="cls-10" d="M34.61,105.64c-.32-2.29-.46-4.35-.64-6.78-.24-1.11,.22-2.25,1.17-2.87,2.64-1.65,8.52-2.96,13.72-4.06,5.15,1.1,11.05,2.41,13.7,4.06,1.1,.67,1.21,1.63,1.17,2.87-.18,2.43-.32,4.45-.64,6.78-2.38,.52-4.78,.9-7.2,1.14-.25,.03-.45,.21-.5,.46-.14,1.27-.78,2.44-1.77,3.25-1.36,1.01-3.03,1.51-4.72,1.42-1.71,.09-3.39-.41-4.77-1.42-.98-.82-1.62-1.98-1.77-3.25-.03-.25-.24-.45-.5-.46-2.43-.23-4.85-.61-7.24-1.14Z"/>
    <path class="cls-13" d="M48.85,91.92c3.99,1.1,8.55,2.41,10.65,4.06,.78,.74,1.12,1.83,.89,2.87-.14,2.64-.25,4.84-.53,7.38-1.24,.21-2.54,.35-3.96,.5-.25,.03-.45,.21-.5,.46-.55,3.35-3.41,4.58-6.55,4.58s-6.05-1.31-6.58-4.63c-.03-.25-.24-.45-.5-.46-1.38-.14-2.68-.28-3.96-.5-.28-2.54-.43-4.74-.53-7.38-.22-1.05,.11-2.13,.89-2.87,2.11-1.56,6.64-2.87,10.68-4.01Z"/>
    <path class="cls-2" d="M44.31,100.79h2.32c.29,0,.52,.24,.53,.53v4.6c-.15,.77,.35,1.52,1.12,1.67,.18,.04,.37,.04,.55,0,.44,.04,.87-.09,1.22-.35,.29-.37,.42-.85,.35-1.31v-4.6c0-.29,.24-.52,.53-.53h2.34c.28,0,.51,.23,.51,.51,0,0,0,.01,0,.02v4.84c.09,1.16-.39,2.3-1.3,3.03-1.07,.78-2.39,1.15-3.71,1.06-1.34,.1-2.67-.28-3.76-1.06-.88-.75-1.36-1.88-1.3-3.03v-4.84c.03-.29,.27-.52,.57-.53Z"/>
    <path class="cls-4" d="M44.31,101.13c-.15-.01-.27,.1-.28,.25,0,0,0,0,0,0v4.84c-.07,1.08,.37,2.13,1.19,2.84,1.04,.71,2.29,1.05,3.55,.98v-2.24c-.52,.03-1.04-.14-1.45-.46-.33-.43-.49-.95-.46-1.49v-4.6c0-.15-.14-.26-.28-.25h0s-2.25,0-2.25,0v.12Z"/>
    <path class="cls-8" d="M50.08,91.57l-1.15,4.7c.98,1.67,5,3.92,6.96,4.67,.85,.35,1.56,.43,2.15-.21,1.42-1.47,2.63-5.61,2.87-9.19h-10.82v.04Z"/>
    <path class="cls-8" d="M59.66,91.57c0,.75-.18,1.45-.28,2.13-.28,2.2-1.03,4.32-2.22,6.19l-.14,.11c-.24,0-.47-.07-.67-.18-2.22-.92-4.28-2.21-6.09-3.8l1.15-4.45h8.25Z"/>
    <path class="cls-6" d="M58.88,95.81c-.29,1.45-.89,2.82-1.77,4.01l-.14,.11c-.24,0-.47-.07-.67-.18-2.09-.9-4.05-2.1-5.8-3.55h.92c.96,.63,2.02,1.08,3.14,1.35-.48-.42-.93-.89-1.33-1.38,1.88,0,3.8-.11,5.66-.35Z"/>
    <path class="cls-8" d="M47.43,91.57l1.17,4.7c-.99,1.67-5.02,3.92-6.97,4.67-.85,.35-1.54,.43-2.15-.21-1.42-1.47-2.63-5.61-2.87-9.19h10.82v.04Z"/>
    <path class="cls-8" d="M37.89,91.57c0,.75,.18,1.45,.28,2.13,.28,2.2,1.03,4.32,2.22,6.19l.14,.11c.24,0,.47-.07,.67-.18,2.22-.92,4.28-2.21,6.09-3.8l-1.21-4.45h-8.2Z"/>
    <path class="cls-6" d="M38.63,95.81c.29,1.45,.89,2.82,1.77,4.01l.14,.11c.24,0,.47-.07,.67-.18,2.09-.9,4.05-2.1,5.8-3.55h-.94c-.96,.62-2.02,1.08-3.14,1.35,.48-.43,.93-.89,1.35-1.38-1.88,0-3.8-.11-5.66-.35Z"/>
    <path class="cls-8" d="M52.77,91.57c-.07,2.06-.37,4.1-.89,6.09-1.88,1.32-4.38,1.32-6.26,0-.52-1.99-.82-4.03-.89-6.09h8.04Z"/>
    <path class="cls-8" d="M45.8,91.99c.09,1.72,.34,3.42,.75,5.09,1.38,.78,3.07,.78,4.45,0,.41-1.67,.66-3.38,.75-5.09h-5.94Z"/>
    <path class="cls-6" d="M46.26,95.81c0,.43,.18,.82,.28,1.24,1.38,.78,3.07,.78,4.45,0,.11-.43,.18-.85,.28-1.28h-3.21c-.64,.04-1.21,.04-1.81,.04Z"/>
    <path class="cls-7" d="M6.75,47.1l11.37-1.19-3.85,29.26-10.77-5.2c-1.17-.49-2.03-1.51-2.31-2.75-1.08-6.24-.18-12.65,2.59-18.35,.53-.98,1.12-1.56,2.96-1.77Z"/>
    <path class="cls-10" d="M12.37,71.61l2.96-22.94c-.99,.11-8.87,.85-9.26,1.1-.07,.09-.13,.18-.18,.28-2.52,5.19-3.35,11.03-2.4,16.71,.12,.46,.47,.84,.92,.99l7.95,3.85Z"/>
    <path class="cls-13" d="M12.37,71.61l.21-1.63-8.16-3.32c-.6-.25-1.03-2.47-1.31-4.91-.07,1.68,.06,3.37,.39,5.02,.12,.46,.47,.84,.92,.99l7.95,3.85Zm1.26-9.69l1.77-13.25c-.99,.11-8.87,.85-9.26,1.1-.07,.09-.13,.18-.18,.28-1.2,2.52-2.04,5.19-2.47,7.95l10.13,3.92Z"/>
    <path class="cls-10" d="M4.32,54.22l3.14,2.71c.44,.38,.66,.95,.6,1.53-.32,3.25-.71,6.32-.82,10.65-.46-3.59-.63-7.22-.5-10.84,0-.14,0-.25-.11-.32l-2.15-1.97-.28-1.12c0-.22,.04-.43,.11-.64Z"/>
    <path class="cls-12" d="M4.14,54.86l2.68,2.36c.44,.38,.66,.95,.6,1.53-.35,3-.47,6.03-.37,9.05v1.33l-1.38-.66c.02-.22,.02-.45,0-.67-.09-3.09,.05-6.18,.41-9.24,0-.14,0-.25-.11-.32l-2.18-1.95c.11-.48,.25-.96,.35-1.42Z"/>
    <path class="cls-7" d="M56.45,9.58c7.74,6.96,8.27,15.97,4.74,25.23l-2.68-1.1c3.09-8.16,2.87-15.83-3.96-21.98l1.9-2.15Z"/>
    <path class="cls-8" d="M53.96,.14c4.93,.86,8.23,5.56,7.37,10.49-.86,4.93-5.56,8.23-10.49,7.37-4.93-.86-8.23-5.56-7.37-10.49,0,0,0-.02,0-.03,.86-4.92,5.56-8.21,10.48-7.35,0,0,0,0,0,0Z"/>
    <path class="cls-8" d="M53.64,1.95c3.92,.71,6.52,4.45,5.81,8.37-.71,3.92-4.45,6.52-8.37,5.81-3.9-.7-6.5-4.42-5.82-8.32,.7-3.93,4.45-6.54,8.37-5.86Z"/>
    <path class="cls-6" d="M58.74,5.62c1.9,3.51,.6,7.89-2.91,9.79-3.51,1.9-7.89,.6-9.79-2.91-.23-.42-.42-.87-.56-1.33,1.03,1.95,2.92,3.31,5.09,3.67,3.93,.67,7.66-1.95,8.37-5.87,.18-1.12,.11-2.27-.21-3.35Zm-6.85-3.07c2.5-.11,4.24,1.44,3.89,3.55-.68,2.3-2.77,3.89-5.16,3.92-2.5,.14-4.24-1.45-3.89-3.46,.65-2.33,2.75-3.95,5.16-4.01Z"/>
    <path class="cls-14" d="M57.99,40.04c-2.47-.46-10.65-2.16-10.98-5.32-.19-3.91,.54-7.82,2.11-11.41,1.35-2.7,9.62-1.42,12.03-.99s10.65,2.09,10.91,5.06c.27,3.91-.38,7.83-1.9,11.44-1.35,2.86-9.69,1.65-12.17,1.22Z"/>
    <path class="cls-14" d="M69.98,27.6c-.85-1.49-7.51-2.98-9.23-3.25-1.8-.32-3.62-.53-5.45-.64-1.47-.11-2.95,.07-4.35,.53-1.39,3.21-2.04,6.7-1.88,10.2,.18,.75,3.23,1.95,3.94,2.16,3.55,1.21,10.31,2.43,13.95,1.69,.44-.06,.86-.21,1.24-.44,1.36-3.24,1.97-6.75,1.77-10.26Z"/>
    <path class="cls-4" d="M60.76,24.32c-1.8-.32-3.62-.53-5.45-.64-1.47-.11-2.95,.07-4.35,.53-1.39,3.21-2.04,6.7-1.88,10.2,.11,.28,.78,.75,.99,.89,2.58,1.31,5.36,2.19,8.23,2.61l2.45-13.59Z"/>
    <path class="cls-7" d="M103.7,64.23l-10.26-5.02-6.39,28.8,11.91-1.21c1.27-.04,2.44-.71,3.12-1.77,3.17-5.48,4.52-11.83,3.85-18.13-.14-1.15-.53-1.83-2.24-2.66Z"/>
    <path class="cls-10" d="M90.09,85.32l5.02-22.59c.89,.43,8.09,3.85,8.3,4.21v.32c.55,5.75-.69,11.52-3.55,16.54-.26,.41-.72,.65-1.21,.64l-8.57,.89Z"/>
    <path class="cls-13" d="M90.09,85.32l.35-1.6,8.76-.34c.67,0,1.77-1.97,2.95-4.17-.52,1.6-1.24,3.13-2.13,4.56-.26,.41-.72,.65-1.21,.64l-8.73,.9Zm2.13-9.51l2.89-13.08c.89,.43,8.09,3.85,8.3,4.21v.32c.27,2.77,.13,5.57-.43,8.3l-10.77,.25Z"/>
    <path class="cls-10" d="M103.59,71.75l-3.85,1.49c-.53,.21-.93,.67-1.06,1.22-.82,3.16-1.51,6.19-2.89,10.29,1.67-3.23,3.08-6.59,4.21-10.04,0-.14,0-.21,.21-.28l2.66-1.12,.64-.96c.05-.18,.09-.43,.09-.6Z"/>
    <path class="cls-12" d="M103.52,72.39l-3.32,1.3c-.54,.22-.93,.68-1.06,1.24-.72,2.93-1.66,5.8-2.82,8.59l-.53,1.24,1.53-.18c.11-.21,.18-.43,.28-.64,1.17-2.88,2.12-5.85,2.86-8.87,0-.11,0-.21,.21-.25l2.71-1.06c.07-.41,.11-.87,.14-1.37Z"/>
    <path class="cls-7" d="M48.36,94.8c-6.06-1.03-12.05-2.47-17.92-4.31-4.97-1.47-9.74-3.55-14.19-6.19-3.18-1.97-6.9-5.06-7.22-9.26-.94-12.26,2.52-31.71,7.93-42.76,2-4.21,7.95-5.45,11.98-5.94,4.79-.51,9.62-.59,14.42-.21,5.59,.37,11.16,1.05,16.68,2.06,5.54,.94,11.02,2.2,16.41,3.76,4.65,1.3,9.17,3.01,13.5,5.13,3.64,1.77,8.76,5.06,9.26,9.72,1.28,12.26-2.11,31.65-7.2,42.9-1.77,3.81-6.26,5.45-9.94,6.21-5.07,.95-10.25,1.28-15.4,.96-6.14-.28-12.26-.97-18.31-2.06Z"/>
    <path class="cls-11" d="M48.85,91.92c-12.28-2.15-24.25-5.82-31.16-10.13-3.55-2.24-5.73-4.63-5.91-7.1-.83-11.36,2.36-30.34,7.68-41.18,1.14-2.34,4.77-3.73,9.86-4.36,7.84-.98,19.2-.16,30.32,1.77,11.12,1.93,21.91,5.13,29.01,8.69,4.56,2.34,7.49,4.88,7.77,7.45,1.28,12.03-2.27,30.96-6.97,41.36-.92,2.24-3.83,3.83-7.9,4.63-7.95,1.7-20.46,.98-32.72-1.14Z"/>
    <path class="cls-13" d="M12.52,58.99c1.04-8.79,3.38-17.38,6.96-25.48,1.14-2.34,4.77-3.73,9.86-4.36,7.84-.98,19.2-.16,30.32,1.77,11.12,1.93,22.05,5.09,29.13,8.66,4.56,2.34,7.49,4.88,7.77,7.45,.57,8.83-.19,17.7-2.24,26.31-1.73,.51-3.52,.82-5.32,.94-.69,0-1.44,.14-2.22,.18,2.08-6.14,3.31-12.53,3.65-19,0-1.21-.78-1.6-1.9-1.99-5.95-2.23-12.04-4.05-18.24-5.45-.46-.11-.93,.11-1.14,.53-1.25,2.81-2.76,5.5-4.52,8.02-1.99,2.16-17.35-.57-18.45-3.25-.77-2.98-1.27-6.02-1.49-9.08-.05-.46-.41-.81-.87-.85-6.29-.82-12.64-1.2-18.98-1.12-1.21,0-2.16,0-2.5,1.19-1.91,6.21-2.96,12.66-3.12,19.16l-2.04-.92c-1.65-.74-3.21-1.65-4.67-2.71Zm36.34,32.93c-12.28-2.15-24.25-5.82-31.16-10.13-3.55-2.24-5.73-4.63-5.91-7.1v-1.33c.21,.64,.52,1.24,.92,1.77,1.3,2.11,3.14,3.84,5.32,5.02,6.9,4.24,18.88,7.84,31.14,10.01,12.26,2.16,24.84,2.86,32.7,1.22,2.47-.37,4.81-1.37,6.8-2.89,.54-.37,1.02-.81,1.44-1.31-.17,.42-.36,.84-.57,1.24-1.03,2.24-3.94,3.83-7.97,4.63-7.95,1.7-20.46,.98-32.72-1.14Z"/>
    <path class="cls-11" d="M41.7,28.88c.8,1.96,1.77,3.85,2.91,5.64,4.34,1.97,8.94,3.32,13.66,3.99,4.66,.98,9.44,1.29,14.19,.92,1.45-1.17,3.25-2.93,4.63-4.31-.95,2.28-2.41,4.32-4.28,5.94-4.98,.43-9.99,.13-14.89-.89-4.91-.72-9.69-2.15-14.19-4.24-1.04-2.24-1.73-4.62-2.04-7.06Z"/>
    <path class="cls-12" d="M41.7,28.88c.45,2.24,1.24,4.39,2.34,6.39,4.49,2.01,9.23,3.38,14.09,4.1,4.82,.99,9.76,1.31,14.67,.96,1.71-1.5,3.18-3.25,4.35-5.2l1.6,.5c-1.17,1.77-3.81,5.62-5.55,6.33-5.13,.42-10.29,.1-15.33-.96-5.09-.75-10.06-2.21-14.74-4.35-1.42-1.28-2.59-5.7-3.07-7.84,.51,.04,1.08,.07,1.65,.07Z"/>
    <path class="cls-9" d="M54.57,59.49c3.78,.66,9.08,.87,10.08-.64,1.75-3.42,3.21-6.98,4.38-10.65,.13-.5,.64-.8,1.14-.67,6.77,1.53,13.4,3.68,19.78,6.41,1.17,.5,2.06,.92,1.99,2.47-.68,10.35-2.97,20.52-6.8,30.16-.53,1.26-4.1,2.25-5.18,2.5-4.43,.88-8.96,1.21-13.47,.96-5.72-.18-11.42-.78-17.05-1.77-5.62-.98-11.17-2.35-16.61-4.1-4.35-1.31-8.52-3.15-12.42-5.48-.94-.6-3.87-2.75-3.94-4.15-.24-10.38,1.1-20.74,3.99-30.71,.43-1.47,1.42-1.58,2.68-1.65,6.94-.36,13.9-.1,20.79,.76,.51,.06,.88,.52,.83,1.03-.16,3.84,0,7.69,.5,11.5,.46,1.74,5.52,3.37,9.3,4.05Z"/>
    <path class="cls-5" d="M90.44,55.35c-.32,5.58-1.17,11.12-2.54,16.54-.85,3.14-2.45,2.93-5.84,3.35-14.19,1.77-45.99-3.85-58.67-10.36-3.03-1.54-4.67-2.82-4.35-5.11,.72-5.54,1.81-11.02,3.26-16.41,.09-.39,.59-.53,.94-.57,6.91-.34,13.83-.08,20.69,.78,.18,.02,.3,.18,.28,.35,0,0,0,0,0,0,0,1.17-.11,2.34,0,3.55,.05,2.73,.25,5.47,.59,8.18,.57,2.57,7.43,4.13,9.76,4.51,2.32,.37,9.3,1.31,10.75-.9,.18-.28,.35-.64,.5-.92,1.57-3.18,2.89-6.48,3.96-9.86,.03-.17,.2-.29,.37-.25,0,0,.01,0,.02,0,6.73,1.54,13.32,3.67,19.68,6.37,.31,.14,.54,.43,.6,.76ZM17.11,73.1v1.33c0,1.03,2.86,3.12,3.71,3.64,12.42,8.11,44.53,13.75,58.96,10.4,.98-.21,4.35-1.21,4.76-2.15,.18-.39,.35-.82,.53-1.24-1.33,.69-2.74,1.21-4.21,1.53-14.8,3.35-47.6-2.41-60.32-10.65-1.27-.77-2.43-1.72-3.42-2.82v-.04Z"/>
    <path class="cls-6" d="M30.61,57.64c-1.04,2.95-1.59,6.06-1.63,9.19,0,4.6,8.27,6.12,9.58,1.77,.9-2.99,1.44-6.07,1.61-9.19,.28-4.67-8.02-6.19-9.56-1.77Zm47.07,8.3c-.03,3.13-.58,6.24-1.63,9.19-1.58,4.35-9.85,2.93-9.56-1.69,.16-3.12,.7-6.2,1.61-9.19,1.35-4.42,9.65-2.91,9.58,1.69Z"/>
    <path class="cls-6" d="M58.2,77.73c-1.77,7.66-13.54,5.61-12.54-2.2,3.93,1.79,8.24,2.55,12.54,2.2Z"/>
    <path class="cls-7" d="M15.92,92.45c5.78-.03,10.49,4.63,10.52,10.41,.03,5.78-4.63,10.49-10.41,10.52-5.78,.03-10.49-4.63-10.52-10.41,0-.02,0-.05,0-.07,0-5.75,4.66-10.42,10.41-10.45Z"/>
    <path class="cls-10" d="M15.92,94.23c4.82-.03,8.75,3.86,8.78,8.68s-3.86,8.75-8.68,8.78c-4.82,.03-8.75-3.86-8.78-8.68,0-.04,0-.07,0-.11,.03-4.78,3.9-8.65,8.68-8.68Z"/>
    <path class="cls-13" d="M15.92,94.23c4.82-.08,8.79,3.77,8.87,8.59,0,.03,0,.06,0,.09,0,1-.17,1.99-.5,2.93-1.7,.63-3.51,.94-5.32,.92-5.32,0-9.88-2.64-11.34-6.3,1.1-3.67,4.46-6.19,8.29-6.23Z"/>
    <path class="cls-7" d="M8.42,85.39c.12-1.9,.89-3.7,2.18-5.09,1.37-.95,3-1.44,4.67-1.42,2.55,0,6.3,.99,6.37,4.13,.14,6.76,0,13.5,0,20.23,.06,1.25-.28,2.49-.96,3.55-2.98,4.72-12.62,4.99-17.17,2.55-.82-.34-1.49-.97-1.88-1.77-.71-2.44-1.17-4.94-1.37-7.47-.3-2.76-.34-5.54-.11-8.3,.16-2,.66-5.11,2.93-5.78,1.23-.34,2.5-.55,3.78-.6,.52-.06,1.04-.06,1.56-.02Z"/>
    <path class="cls-7" d="M9.61,95.81c-1.37-3.55-1.44-13.01,1.28-15.12,3-2.34,10.08-1.6,10.18,2.25,.14,6.76,0,13.5,0,20.26,.18,7.45-11.96,8.57-17.39,5.7-.71-.28-1.29-.81-1.63-1.49l7.56-11.6Z"/>
    <path class="cls-10" d="M11.49,96.06c-1.77-3-1.45-12.62,.43-14.05,2.18-1.77,7.52-1.1,7.56,1.05,.14,5.66,0,13.15,.11,20.23,.14,6-11.91,6.78-15.97,3.67l7.88-10.89Z"/>
    <path class="cls-13" d="M10.21,88.5c.11-2.86,.67-5.52,1.56-6.26,1.89-1.11,4.18-1.28,6.21-.48,.11,2.11,.08,4.21-.09,6.32-.2,1.81-5.34,1.53-7.68,.43Z"/>
    <path class="cls-7" d="M3.18,86.49c1.18-.35,2.41-.54,3.64-.57,2.5-.11,9.19,.39,9.76,3.67,.78,4.7,.78,9.49,0,14.19-.66,3.97-9.83,3.87-11.3,2.16l-1.69,.99-1.53,.5c-.69-2.42-1.16-4.89-1.38-7.4-.28-2.72-.32-5.47-.11-8.2,.2-1.72,.59-4.77,2.61-5.36Z"/>
    <path class="cls-10" d="M3.61,88.04c4.6-1.33,11.09,.11,11.41,1.77,.76,4.53,.76,9.15,0,13.68-.32,2.08-8.2,4.24-11.41,3.42-2.02-6.48-2.13-18.2,0-18.88Z"/>
    <path class="cls-13" d="M3.61,88.04c3.11-.8,6.39-.69,9.44,.32,.61,4.39,.56,8.84-.14,13.22-.25,1.88-6.05,3.74-9.72,3.74-1.6-6.67-1.45-16.71,.43-17.28Z"/>
    <path class="cls-7" d="M1.3,96.77c5.04-1.35,10.34-1.35,15.38,0l-.35,1.45c-4.78-1.31-9.82-1.31-14.6,0l-.43-1.45Z"/>
    <path class="cls-7" d="M73.27,104.68c4.58,0,8.29,3.69,8.3,8.27s-3.69,8.29-8.27,8.3c-4.58,0-8.29-3.69-8.3-8.27,0,0,0-.01,0-.02,0-4.57,3.68-8.28,8.25-8.29,0,0,.01,0,.02,0Z"/>
    <path class="cls-10" d="M73.27,105.99c3.81,0,6.91,3.07,6.92,6.88s-3.07,6.91-6.88,6.92c-3.81,0-6.91-3.07-6.92-6.88,0,0,0-.01,0-.02-.03-3.78,3.01-6.87,6.8-6.9,.03,0,.06,0,.09,0Z"/>
    <path class="cls-13" d="M73.27,105.99c3.78,0,6.86,3.05,6.87,6.83,0,.02,0,.05,0,.07,0,.47-.04,.94-.14,1.4-1.07,.65-2.3,1-3.55,.99-3.79,0-6.87-3.06-6.88-6.85,0-.01,0-.02,0-.04,0-.48,.04-.95,.14-1.42,1.08-.63,2.31-.97,3.57-.99Z"/>
    <path class="cls-7" d="M61.33,116.25c-1.28-.21-2.55-.71-2.8-2.02-.4-2.43-.52-4.89-.35-7.35,.11-1.67,1.99-2.34,3.55-2.64,1.26-1.45,2.94-2.48,4.81-2.95,2.97-.1,5.93,.42,8.69,1.53,2.75,.96,2.64,6.14,2.57,8.52-.11,2.04-.43,6.46-2.06,7.84-2.93,2.48-13.25,2.7-13.98-.89-.18-.67-.32-1.35-.43-2.04Z"/>
    <path class="cls-7" d="M67,105.81c.5,2.76,.5,5.58,0,8.34-.37,1.49-2.64,1.67-3.92,1.67s-3.71-.11-3.99-1.77c-.4-2.38-.52-4.8-.35-7.2,.11-1.6,2.63-2.09,3.85-2.31s3.97-.41,4.42,1.28Z"/>
    <path class="cls-10" d="M65.78,106.17c-.25-.99-5.73,0-5.8,.82-.17,2.31-.07,4.63,.3,6.92,.18,.85,5.2,.92,5.45,0,.49-2.55,.51-5.18,.05-7.74Z"/>
    <path class="cls-7" d="M75.01,103.35c2.43,.82,2.32,6,2.22,8.02s-.39,6.23-1.77,7.45c-1.77,1.1-3.82,1.68-5.91,1.67-1.77,0-6.76,0-7.24-2.27-.82-4.06-1.06-8.21-.71-12.33,.14-1.77,3.55-3.74,5.09-3.99,2.85-.11,5.68,.39,8.32,1.45Z"/>
    <path class="cls-10" d="M74.47,104.5c-2.46-.98-5.1-1.46-7.75-1.4-1.66,.4-3.1,1.42-4.03,2.86-.35,4-.12,8.04,.67,11.98,.32,1.49,8.66,1.95,11.11-.11,1.58-1.3,2.36-12.69,0-13.32Z"/>
    <path class="cls-13" d="M74.47,104.5c-2.4-.94-4.96-1.43-7.54-1.44v13.89c2.81,.39,5.68,.1,8.36-.85,.96-3.57,1.08-11.11-.82-11.6Zm-11.25,.6c-.25,.22-.45,.5-.57,.82-.35,4-.12,8.04,.67,11.98,.32,1.49,8.66,1.95,11.11-.11,.17-.14,.3-.32,.39-.51-2.59,1.93-10.65,1.47-11,0-.79-3.95-1.02-7.98-.67-11.99,0,0,.11-.11,.14-.18h-.07Z"/>
    <path class="cls-7" d="M61.93,111.08c1.8-.72,3.71-1.13,5.64-1.21,.43,0,.35,1.35,0,1.35-1.83,.07-3.63,.45-5.32,1.14l-.32-1.28Z"/>
    <path class="cls-12" d="M75.33,116.07c-.67-.28-1.35-.57-2.09-.92-.17-.07-.26-.25-.21-.43,.3-2.58,.3-5.19,0-7.77-.03-.18,.08-.36,.25-.43,.7-.35,1.43-.65,2.16-.92,.18,.23,.26,.52,.23,.82-.66,.21-1.26,.5-1.86,.75,.27,2.44,.27,4.9,0,7.35,.57,.28,1.14,.53,1.77,.78,.03,.28-.06,.57-.25,.78Z"/>
  </g>
  <path d="M146.35,54.58c.02,2.05-.31,4.09-.98,6.03-1.3,3.68-4.16,6.59-7.81,7.96-4.37,1.53-9.12,1.53-13.49,0-1.84-.69-3.51-1.77-4.9-3.17-1.29-1.38-2.28-3.01-2.91-4.79-.68-1.94-1.01-3.98-1-6.03V31.94h8.13v22.32c-.01,1.08,.16,2.16,.52,3.18,.35,.93,.87,1.79,1.53,2.54,.66,.71,1.46,1.27,2.34,1.67,.97,.4,2.01,.59,3.06,.58,1.02,0,2.03-.19,2.97-.58,1.82-.8,3.22-2.33,3.84-4.21,.39-1.02,.59-2.1,.58-3.18V31.94h8.11l-.02,22.64Zm6.52-11.08h7.5v3.43h.09c.28-.53,.63-1.02,1.04-1.45,.48-.51,1.03-.94,1.62-1.3,.67-.4,1.38-.71,2.13-.93,.84-.25,1.72-.38,2.6-.37,1.65-.07,3.29,.25,4.79,.93,1.15,.55,2.13,1.41,2.8,2.5,.73,1.15,1.21,2.45,1.41,3.8,.25,1.57,.38,3.16,.37,4.75v13.95h-7.81v-12.38c0-.75-.03-1.49-.11-2.24-.02-.75-.18-1.49-.46-2.19-.49-1.47-1.94-2.39-3.48-2.24-.85-.04-1.7,.15-2.45,.57-.65,.35-1.19,.88-1.53,1.53-.31,.62-.52,1.28-.61,1.96-.11,.79-.16,1.59-.15,2.39v12.6h-7.81l.05-25.29Zm47.01,8.16c-.42-.58-.97-1.04-1.61-1.35-.69-.38-1.46-.57-2.25-.57-1.71-.09-3.38,.55-4.59,1.76-1.11,1.27-1.69,2.91-1.62,4.59-.07,1.68,.51,3.33,1.62,4.59,1.2,1.23,2.88,1.87,4.59,1.78,.79,.02,1.57-.17,2.25-.57,.6-.37,1.14-.83,1.61-1.36l5.14,5.42c-1.19,1.23-2.68,2.14-4.32,2.65-1.52,.47-3.1,.72-4.68,.73-1.88,0-3.74-.31-5.51-.93-1.65-.59-3.16-1.5-4.47-2.66-1.26-1.19-2.27-2.62-2.97-4.21-1.47-3.5-1.47-7.44,0-10.93,.69-1.58,1.7-3,2.97-4.16,1.3-1.19,2.81-2.11,4.47-2.71,1.77-.63,3.63-.95,5.51-.93,1.59,.01,3.17,.28,4.68,.78,1.64,.47,3.13,1.37,4.32,2.6l-5.14,5.48Zm23.85,13.96h-.09c-.83,1.31-2.05,2.33-3.49,2.91-1.45,.6-3.02,.91-4.59,.89-1.16,0-2.32-.17-3.43-.52-1.05-.32-2.02-.84-2.86-1.53-.84-.66-1.51-1.49-1.97-2.45-.51-1.05-.76-2.21-.73-3.38-.04-1.28,.23-2.55,.78-3.7,.54-.98,1.29-1.83,2.19-2.5,.96-.69,2.03-1.2,3.17-1.53,1.19-.38,2.41-.66,3.64-.84,1.26-.17,2.53-.27,3.8-.31h3.54c.05-1.28-.52-2.5-1.53-3.28-.97-.82-2.21-1.27-3.49-1.24-1.23-.01-2.44,.27-3.54,.83-1.07,.55-2.02,1.29-2.82,2.19l-4.06-4.23c1.46-1.37,3.2-2.41,5.1-3.06,1.97-.7,4.04-1.05,6.12-1.04,1.91-.07,3.82,.24,5.62,.89,1.39,.47,2.62,1.34,3.54,2.5,.93,1.24,1.54,2.68,1.79,4.21,.36,1.83,.54,3.7,.52,5.57v12.8h-7.19v-3.17Zm-1.91-7.91c-.6,0-1.35,0-2.25,.11-.86,.03-1.71,.17-2.54,.41-.76,.22-1.46,.59-2.08,1.09-.57,.52-.87,1.27-.83,2.04-.04,.87,.43,1.68,1.19,2.08,.76,.44,1.62,.67,2.5,.67,.74,0,1.48-.1,2.19-.31,.68-.19,1.33-.49,1.91-.89,1.17-.79,1.85-2.12,1.82-3.54v-1.67h-1.91Zm13.98-14.21h7.49v3.43h.17c.28-.53,.63-1.02,1.04-1.45,.48-.5,1.02-.94,1.61-1.3,.67-.4,1.39-.71,2.14-.93,.84-.25,1.72-.38,2.6-.37,1.65-.07,3.29,.25,4.79,.93,1.15,.55,2.13,1.41,2.8,2.5,.73,1.15,1.21,2.45,1.41,3.8,.25,1.57,.38,3.16,.37,4.75v13.95h-7.81v-12.38c0-.75-.03-1.49-.11-2.24-.02-.75-.18-1.49-.46-2.19-.24-.65-.66-1.21-1.21-1.62-.67-.45-1.47-.67-2.28-.61-.85-.04-1.7,.15-2.45,.57-.66,.34-1.19,.88-1.53,1.53-.33,.64-.54,1.33-.63,2.04-.11,.79-.16,1.59-.15,2.39v12.52h-7.79v-25.29Zm29.88,0h7.5v3.43h.09c.28-.53,.63-1.02,1.04-1.45,.48-.51,1.03-.94,1.62-1.3,.67-.4,1.38-.71,2.13-.93,.84-.25,1.72-.38,2.6-.37,1.65-.07,3.29,.25,4.79,.93,1.16,.55,2.14,1.41,2.82,2.5,.72,1.16,1.19,2.45,1.39,3.8,.25,1.57,.38,3.16,.37,4.75v13.95h-7.81v-12.38c0-.75-.03-1.49-.11-2.24,0-.76-.13-1.51-.4-2.22-.49-1.47-1.95-2.4-3.49-2.24-.85-.04-1.7,.15-2.45,.57-.62,.36-1.13,.89-1.45,1.53-.32,.64-.53,1.33-.63,2.04-.11,.79-.16,1.59-.15,2.39v12.55h-7.81l-.06-25.29Zm44.39,29.41c-.52,1.35-1.03,2.54-1.53,3.58-.45,.98-1.09,1.87-1.88,2.6-.78,.77-1.75,1.33-2.8,1.62-1.49,.43-3.04,.62-4.59,.57-1.98,0-3.95-.31-5.83-.93l1.04-6.4c1.15,.51,2.39,.78,3.64,.78,.73,.02,1.45-.09,2.14-.32,.52-.15,.98-.43,1.35-.83,.39-.37,.71-.81,.93-1.3,.24-.52,.51-1.13,.78-1.82l.57-1.53-11.08-25.5h8.43l6.51,16.7h.11l5.57-16.7h8.01l-11.36,29.48Z"/>
  <path class="cls-1" d="M131.22,77.23h6.72l16.03,36.85h-9.19l-3.18-7.81h-14.31l-3.06,7.81h-8.96l15.95-36.85Zm3.06,10.72l-4.47,11.45h9l-4.53-11.45Zm46.77,26.13h-7.5v-3.43h-.11c-.3,.55-.67,1.07-1.09,1.53-.44,.51-.95,.95-1.53,1.3-.67,.4-1.38,.71-2.13,.93-.84,.25-1.72,.38-2.6,.37-1.66,.06-3.32-.24-4.85-.89-1.16-.58-2.15-1.47-2.86-2.56-.68-1.17-1.14-2.46-1.35-3.8-.22-1.57-.32-3.15-.31-4.73v-14.02h7.81v14.67c.07,.73,.23,1.45,.47,2.14,.27,.6,.68,1.13,1.19,1.53,.69,.46,1.51,.68,2.34,.63,.85,.04,1.69-.14,2.45-.52,.59-.36,1.07-.86,1.41-1.45,.35-.65,.58-1.35,.67-2.08,.11-.8,.16-1.6,.15-2.4v-12.51h7.81l.02,25.29Zm22.76-19.04h-6.87v8.42c0,.64,.03,1.29,.11,1.93,.03,.54,.19,1.06,.46,1.53,.26,.44,.64,.78,1.1,1,.65,.23,1.33,.33,2.02,.31,.42,0,.95-.03,1.61-.09,.56-.06,1.09-.28,1.53-.63v6.43c-.88,.31-1.79,.52-2.71,.63-.95,.09-1.87,.15-2.77,.15-1.22,.01-2.44-.13-3.63-.41-1.05-.25-2.04-.69-2.92-1.3-.84-.64-1.51-1.46-1.97-2.4-.48-1.11-.71-2.32-.67-3.54v-12.02h-5.01v-6.25h5.01v-7.5h7.81v7.5h6.87l.05,6.25Zm3.06,6.4c-.03-1.88,.35-3.74,1.1-5.47,.69-1.58,1.7-3,2.97-4.16,1.3-1.19,2.82-2.11,4.47-2.71,1.77-.63,3.63-.95,5.51-.93,1.86-.02,3.71,.3,5.47,.93,1.67,.58,3.19,1.51,4.49,2.71,1.31,1.15,2.35,2.57,3.06,4.16,1.45,3.5,1.45,7.43,0,10.93-.72,1.6-1.76,3.03-3.06,4.21-1.3,1.18-2.82,2.08-4.47,2.66-1.75,.63-3.6,.94-5.47,.93-1.88,0-3.74-.31-5.51-.93-1.65-.59-3.16-1.5-4.47-2.66-1.26-1.19-2.27-2.62-2.97-4.21-.77-1.72-1.17-3.58-1.16-5.47h.05Zm7.81,0c-.06,1.68,.52,3.32,1.62,4.59,1.2,1.23,2.88,1.87,4.59,1.78,1.72,.11,3.4-.54,4.59-1.78,1.13-1.26,1.72-2.9,1.65-4.59,.06-1.69-.53-3.33-1.65-4.59-1.2-1.23-2.88-1.87-4.59-1.76-1.71-.09-3.38,.55-4.59,1.76-1.12,1.26-1.72,2.91-1.67,4.59h.05Zm24.91-12.64h7.49v3.43h.11c.28-.53,.63-1.02,1.04-1.45,.48-.51,1.03-.94,1.62-1.3,.67-.4,1.38-.72,2.13-.93,.84-.25,1.72-.38,2.6-.37,1.63-.03,3.24,.34,4.68,1.09,1.39,.76,2.47,1.98,3.06,3.44,.73-1.46,1.87-2.67,3.28-3.49,1.47-.73,3.1-1.09,4.75-1.04,1.47-.05,2.93,.25,4.26,.89,1.13,.5,2.09,1.31,2.77,2.34,.72,1.04,1.22,2.23,1.45,3.48,.31,1.4,.47,2.83,.46,4.27v14.94h-7.81v-14.73c.04-1.07-.23-2.14-.78-3.06-.55-.91-1.59-1.42-2.65-1.3-.79-.02-1.58,.13-2.3,.46-.58,.27-1.08,.68-1.45,1.19-.35,.56-.62,1.18-.78,1.82-.14,.72-.2,1.45-.2,2.19v13.43h-7.82v-15.05c-.03-.64-.15-1.27-.37-1.87-.2-.59-.56-1.12-1.04-1.53-.57-.45-1.29-.67-2.02-.61-.85-.04-1.7,.15-2.45,.57-.62,.36-1.13,.89-1.45,1.53-.33,.64-.54,1.33-.63,2.04-.11,.79-.16,1.59-.15,2.39v12.54h-7.81l.02-25.29Zm61.16,22.12h-.11c-.82,1.32-2.04,2.34-3.48,2.91-1.45,.6-3.02,.91-4.59,.89-1.17,0-2.33-.17-3.44-.52-1.04-.32-2.01-.84-2.86-1.53-.83-.66-1.5-1.5-1.97-2.45-.49-1.06-.74-2.22-.72-3.38-.04-1.28,.23-2.55,.78-3.7,.54-.98,1.28-1.83,2.17-2.5,.97-.68,2.05-1.2,3.18-1.53,1.19-.38,2.41-.66,3.64-.84,1.26-.17,2.53-.27,3.8-.31h3.54c.04-1.27-.53-2.49-1.53-3.28-.97-.82-2.21-1.27-3.49-1.24-1.23-.01-2.44,.27-3.54,.83-1.07,.54-2.03,1.29-2.82,2.19l-4.16-4.27c1.46-1.37,3.2-2.42,5.1-3.06,1.94-.69,3.99-1.04,6.05-1.04,1.91-.07,3.82,.24,5.62,.89,1.39,.48,2.62,1.35,3.54,2.5,.99,1.23,1.64,2.7,1.91,4.26,.37,1.83,.55,3.7,.52,5.57v12.8h-7.18l.05-3.17Zm-1.93-7.91c-.58,0-1.33,0-2.24,.11-.86,.03-1.71,.17-2.54,.41-.76,.22-1.47,.59-2.08,1.09-.58,.52-.89,1.26-.84,2.04-.05,.85,.38,1.66,1.12,2.08,.77,.44,1.63,.67,2.51,.67,.74,0,1.47-.1,2.17-.31,.69-.19,1.34-.49,1.93-.89,.54-.37,.99-.87,1.3-1.45,.36-.63,.54-1.35,.52-2.08v-1.67h-1.85Zm31.24-7.96h-6.87v8.42c0,.64,.03,1.29,.11,1.93,.03,.54,.19,1.06,.46,1.53,.26,.44,.64,.78,1.1,1,.65,.23,1.33,.33,2.02,.31,.43,0,.96,0,1.62-.09,.56-.06,1.09-.28,1.53-.63v6.43c-.88,.31-1.79,.52-2.71,.63-.93,.09-1.85,.15-2.76,.15-1.23,.01-2.45-.13-3.64-.41-1.05-.25-2.04-.69-2.92-1.3-.84-.64-1.51-1.46-1.97-2.4-.48-1.12-.71-2.32-.67-3.54v-12.02h-4.99v-6.25h4.99v-7.5h7.81v7.5h6.87l.03,6.25Zm3.06,6.4c-.03-1.88,.34-3.74,1.09-5.47,.69-1.58,1.7-3,2.97-4.16,1.3-1.19,2.82-2.11,4.47-2.71,1.77-.63,3.64-.95,5.53-.93,1.86-.02,3.71,.3,5.47,.93,1.66,.58,3.18,1.51,4.47,2.71,1.31,1.15,2.36,2.57,3.06,4.16,1.47,3.5,1.47,7.44,0,10.93-.72,1.6-1.76,3.04-3.06,4.21-1.3,1.18-2.82,2.08-4.47,2.66-1.75,.63-3.6,.94-5.47,.93-1.88,0-3.75-.31-5.53-.93-1.65-.6-3.16-1.5-4.47-2.66-1.26-1.19-2.27-2.62-2.97-4.21-.77-1.72-1.16-3.58-1.16-5.47h.08Zm7.81,0c-.07,1.68,.5,3.32,1.61,4.59,1.21,1.22,2.88,1.86,4.59,1.78,1.72,.11,3.4-.54,4.59-1.78,2.18-2.67,2.18-6.51,0-9.19-1.2-1.23-2.88-1.87-4.59-1.76-1.71-.08-3.37,.56-4.59,1.76-1.13,1.26-1.73,2.9-1.68,4.59h.08Zm24.78-12.64h7.81v4.06h.11c.68-1.39,1.7-2.59,2.97-3.49,1.28-.83,2.79-1.25,4.32-1.19h1.35c.42,.04,.84,.11,1.26,.21v7.18c-.54-.18-1.1-.3-1.67-.37-.55-.11-1.11-.16-1.67-.15-1.21-.05-2.42,.16-3.54,.61-.83,.39-1.53,1.01-2.02,1.78-.48,.81-.79,1.71-.89,2.65-.15,1.14-.22,2.29-.21,3.44v10.56h-7.81v-25.29Z"/>
</svg>