<svg xmlns="http://www.w3.org/2000/svg" viewBox="0 0 97 60.22"><title>drop cap</title><g id="Layer_2" data-name="Layer 2"><g id="Layer_1-2" data-name="Layer 1"><path d="M.91,27.76a1.52,1.52,0,0,0,.59.12,1.54,1.54,0,0,0,.56-.1A1.51,1.51,0,0,0,2.88,27l4.18-9.74H19L23.14,27a1.53,1.53,0,0,0,2,.79,1.5,1.5,0,0,0,.8-.82,1.48,1.48,0,0,0,0-1.15L15.58,1.73A2.78,2.78,0,0,0,11.93.22a2.74,2.74,0,0,0-1.48,1.49L.12,25.79a1.48,1.48,0,0,0,0,1.15A1.5,1.5,0,0,0,.91,27.76ZM13,3.34l4.67,10.89H8.34Z"/><path d="M42.32,25.93a1.5,1.5,0,0,0,0,3H80.61a1.5,1.5,0,0,0,0-3Z"/><path d="M95.5,2.13H42.32a1.5,1.5,0,0,0,0,3H95.5a1.5,1.5,0,0,0,0-3Z"/><path d="M97,16.07a1.5,1.5,0,0,0-1.5-1.5H42.32a1.5,1.5,0,0,0,0,3H95.5A1.5,1.5,0,0,0,97,16.07Z"/><path d="M0,46.28a1.5,1.5,0,0,0,1.5,1.5h94a1.5,1.5,0,0,0,0-3H1.5A1.5,1.5,0,0,0,0,46.28Z"/><path d="M95.5,60.22a1.5,1.5,0,0,0,0-3H1.5a1.5,1.5,0,0,0,0,3Z"/></g></g></svg>