<svg xmlns="http://www.w3.org/2000/svg" width="120" height="80" fill="none" ><rect x=".6" y=".6" width="118.8" height="78.8" rx="2.4" fill="#fff"/><rect x=".6" y=".6" width="118.8" height="78.8" rx="2.4" stroke="#8796a1" stroke-width="1.2"/><path d="M42 13H18a1 1 0 0 0-1 1v22.954a1 1 0 0 0 1 1h24a1 1 0 0 0 1-1V14a1 1 0 0 0-1-1zm30 0H48a1 1 0 0 0-1 1v22.954a1 1 0 0 0 1 1h24a1 1 0 0 0 1-1V14a1 1 0 0 0-1-1zM42 41.946H18a1 1 0 0 0-1 1V65.9a1 1 0 0 0 1 1h24a1 1 0 0 0 1-1V42.946a1 1 0 0 0-1-1zm30 0H48a1 1 0 0 0-1 1V65.9a1 1 0 0 0 1 1h24a1 1 0 0 0 1-1V42.946a1 1 0 0 0-1-1z" fill="#bdc5cb"/><path d="M102 13H78a1 1 0 0 0-1 1v52a1 1 0 0 0 1 1h24a1 1 0 0 0 1-1V14a1 1 0 0 0-1-1z" fill="#134e5e"/><g fill="#fff"><path fill-rule="evenodd" d="M90.2 30.967c-.3.2-.7.499-1 .799l1 4.591.9-4.591c-.3-.2-.6-.599-.9-.799zm-.1-1.298c-2 0-3.7-2.096-3.7-4.591-.4-.898-.1-4.092 2-4.092 2.4-1.198 4.1.1 5.2.898.4.898.7 2.196.2 2.994.1 2.695-1.6 4.791-3.7 4.791zm0-.499c-1.8 0-3.2-1.797-3.2-4.092 0-.399.1-.699.1-.898.2-.599.8-.898 1.2-.499 1.5 1.198 3.2 1.198 4.9.898.4-.1.4.399.3.799-.1 2.096-1.5 3.793-3.3 3.793zm-7.6 9.582v-5.19c0-1.497.7-1.797 1.8-2.096l2.8-.998c.2-.2.5-.499.7-.799l2.4.998 2.4-.998c.2.2.4.499.7.799l2.9.998c1.1.399 1.7.699 1.7 2.096v5.19H82.5zm7.8-1.697l2.9-6.388c.2.299.4.699.7.998l-1 1.098c.2.3.5.599.9.898-1.3 1.098-2.4 2.296-3.5 3.394zm-.3 0l-2.8-6.388-.7.998c.3.399.7.699 1 1.098l-.9.898 3.4 3.394z"/><path d="M86.5 55.421h-2.8c-.3 0-.6.299-.6.599v2.795a.65.65 0 0 0 .6.599h1.2v-1.397h-.5v-.699h.5v-.499a.68.68 0 0 1 .7-.699h.7v.699h-.7v.499h.7l-.1.699h-.6v1.397h.9a.65.65 0 0 0 .6-.599V56.02c-.1-.3-.3-.599-.6-.599zm5.399.2c-.1-.1-.3-.2-.5-.2h-2.5c-.2 0-.4.1-.5.2a.76.76 0 0 0-.2.499v2.495a.76.76 0 0 0 .2.499c.1.1.3.2.5.2h2.5c.2 0 .4-.1.5-.2a.76.76 0 0 0 .2-.499V56.12c0-.2-.1-.3-.2-.499zm-.7 1.298c0 .2 0 .399-.1.499 0 .1-.1.299-.2.399s-.2.2-.3.399a.76.76 0 0 1-.4.2c-.2.1-.3.1-.5.1-.3 0-.6-.1-.8-.2h.1c.2 0 .5-.1.7-.2-.1 0-.2 0-.3-.1s-.2-.2-.2-.299h.1.1c-.1 0-.2-.1-.3-.2s-.1-.2-.1-.299c.1 0 .2.1.3.1-.2-.1-.2-.3-.2-.399s0-.2.1-.299c.1.2.3.299.5.399s.4.2.6.2v-.1c0-.1.1-.299.2-.399s.2-.2.4-.2.3.1.4.2c.1 0 .2-.1.3-.1 0 .1-.1.2-.2.299.1 0 .2 0 .3-.1-.3 0-.4.1-.5.1zm5.301-1.498h-2.8c-.3 0-.6.299-.6.599v2.795a.65.65 0 0 0 .6.599h2.8a.65.65 0 0 0 .6-.599V56.02c0-.3-.2-.599-.6-.599zm-1.9 3.094h-.5v-1.597h.5v1.597zm0-1.797h-.5v-.499h.5v.499zm1.6 1.797h-.5v-.898c0-.1-.1-.2-.2-.2s-.2.1-.2.2v.898h-.5v-1.597h.5v.1c.1 0 .2-.1.3-.1a.65.65 0 0 1 .6.599v.998zm-11.5-15.67h-.3-.1v-.1l-.1-.399h-.8l-.1.399v.1h-.1-.3l.7-1.897h.4l.7 1.897zm-1.3-.699h.6l-.2-.599-.4.599zm2.401.699h-.1v-.1-.1l-.1.1s-.1 0-.1.1h-.1-.1-.2s-.1 0-.1-.1l-.1-.1v-.2-.2l.1-.1c.1 0 .1-.1.2-.1h.4v-.1c0-.1 0-.2-.1-.2 0 0-.1-.1-.2-.1h-.1-.1-.1-.1-.1l-.1-.1c.2-.1.3-.2.6-.2h.2c.1 0 .1.1.2.1 0 0 .1.1.1.2v.2.998zm-.5-.2h.2.1l.1-.1v-.2h-.2-.2s-.1 0-.1.1v.1c0 .1 0 .1.1.1-.1 0-.1 0 0 0z"/><path d="M86.201 42.845v-1.298h.2.1v.1.2c0-.1.1-.1.2-.2.1 0 .1-.1.2-.1h.2v.2h-.1-.1c-.1 0-.1 0-.2.1 0 0-.1.1-.1.2v.799h-.4zm1.7-1.398h.3c.1 0 .2.1.2.1.1.1.1.1.1.2v.3.299c0 .1-.1.2-.1.2-.1.1-.1.1-.2.1h-.3-.3c-.1 0-.2-.1-.2-.1-.1-.1-.1-.1-.1-.2v-.299-.3c0-.1.1-.2.1-.2.1-.1.1-.1.2-.1.1.1.2 0 .3 0zm0 1.198c.1 0 .2 0 .2-.1.1-.1.1-.2.1-.299s0-.3-.1-.3c-.1-.1-.1-.1-.2-.1s-.2 0-.3.1-.1.2-.1.3 0 .299.1.299.2.1.3.1zm.9.2v-1.298h.2s.1 0 .1.1v.1l.1-.1s.1 0 .1-.1h.1.1.2c.1 0 .1.1.1.1s.1.1.1.2v.2.898h-.3v-.898c0-.1 0-.1-.1-.2 0 0-.1-.1-.2-.1h-.2l-.1.1v.998h-.2zm2.8-.699v.3c0 .1-.1.2-.1.2-.1.1-.1.1-.2.1h-.3-.1-.1v-.2h.1.1.1.1s.1 0 .1-.1c0 0 0-.1.1-.1s0-.1 0-.2v-1.198h.4v1.198h-.2zm.599-.599v.898c0 .1 0 .1.1.2 0 0 .1.1.2.1h.2l.1-.1v-.998h.3v1.298h-.2s-.1 0-.1-.1v-.1l-.1.1s-.1 0-.1.1h-.1-.1-.2c-.1 0-.1-.1-.1-.1s-.1-.1-.1-.2v-.2-.898h.2zm2.2 1.298c-.1 0-.1 0 0 0l-.1-.2-.1.1s-.1 0-.1.1H94h-.1-.2c-.1 0-.1-.1-.2-.1 0-.1-.1-.1-.1-.2v-.299-.299c0-.1.1-.2.1-.2.1-.1.1-.1.2-.1s.2-.1.2-.1h.2c.1 0 .1.1.1.1v-.699h.3v1.996h-.1v-.1zm-.5-.2h.2l.1-.1v-.599l-.1-.1H94h-.1s-.1 0-.1.1c0 0 0 .1-.1.1v.2.2c0 .1 0 .1.1.1l.1.1z"/><path d="M95.401 41.447h.2c.1 0 .1 0 .1.1h.4v.1h-.1-.1v.1.1.2c0 .1-.1.1-.1.1s-.1.1-.2.1h-.2-.1l-.1.1v.1h.1.1.2.2c.1 0 .1 0 .1.1l.1.1v.2.2c0 .1-.1.1-.1.2-.1 0-.1.1-.2.1h-.3-.3c-.1 0-.1 0-.2-.1l-.1-.1v-.1c0-.1 0-.1.1-.2 0 0 .1-.1.2-.1 0 0-.1 0-.1-.1v-.1-.1-.1l.1-.1.1-.1c-.1 0-.1-.1-.2-.1 0-.1-.1-.1-.1-.2v-.2c0-.1.1-.1.1-.1s.1-.1.2-.1h.2zm.3 1.497c0-.1 0-.1 0 0 0-.1-.1-.1-.1-.1h-.1-.1-.1-.1s-.1 0-.1.1v.1.1l.1.1h.1.2.2.1c-.1-.2-.1-.2-.1-.299zm-.3-.798h.1.1v-.1-.1c0-.1 0-.1-.1-.2 0 0-.1-.1-.2-.1s-.1 0-.2.1c0 0-.1.1-.1.2v.1.1h.1.3zm1.4-.699h.2c.1 0 .1.1.2.1.1.1.1.1.1.2v.3.1h-.8c0 .1 0 .2.1.299s.2.1.3.1h.1.1.1.1l.1.1-.1.1-.1.1h-.1-.1-.3c-.1 0-.2-.1-.2-.1-.1-.1-.1-.1-.1-.2s-.1-.2-.1-.299v-.3c0-.1.1-.2.1-.2.1-.1.1-.1.2-.1.1-.1.1-.2.2-.2zm.1.299c-.1 0-.2 0-.2.1-.1.1-.1.1-.1.2h.6v-.1s0-.1-.1-.1l-.1-.1h-.1zm-7.6 3.395h0l.1.1c-.1.1-.1.1-.2.1s-.2.1-.3.1h-.3c-.1 0-.1-.1-.2-.1-.1-.1-.1-.1-.1-.2v-.3-.2c0-.1 0-.1.1-.2l.1-.1.1-.1s.1 0 .2-.1h.2.1.1s.1 0 .1.1c0 0 .1 0 .1.1l-.1.1h-.1-.1-.1-.1s-.1 0-.1.1l-.1.1v.2.2c0 .1 0 .1.1.1l.1.1h.1.1.1l.1-.1c0 .1 0 .1 0 0z"/><path d="M89.902 44.442v.3h.4v.2h-.4v.299h.5v.2h-.8v-1.198h.8v.2h-.5z"/><path d="M91.802 44.841v.299c0 .1-.1.1-.1.2-.1.1-.1.1-.2.1h-.3-.3c-.1 0-.1-.1-.2-.1-.1-.1-.1-.1-.1-.2v-.299-.299c0-.1.1-.1.1-.2.1-.1.1-.1.2-.1h.3.3c.1 0 .1.1.2.1.1.1.1.1.1.2v.299zm-.2 0v-.2c0-.1 0-.1-.1-.1l-.1-.1h-.2-.2s-.1 0-.1.1l-.1.1v.2.2c0 .1 0 .1.1.1l.1.1h.2.2s.1 0 .1-.1l.1-.1v-.2zM98 47.935H82v.998h16v-.998zm0 1.997H82v.998h16v-.998zm-5 1.996H82v.998h11v-.998zm7.501-36.133l1-.998c.1-.1.1-.3 0-.399l-.1-.1c-.1-.1-.3-.1-.4 0l-1 .998-1-.998c-.1-.1-.3-.1-.4 0l-.1.1c-.1.1-.1.3 0 .399l1 .998-1 .998c-.1.1-.1.299 0 .399l.1.1c.1.1.3.1.4 0l1-.998 1 .998c.1.1.3.1.4 0l.1-.1c.1-.1.1-.299 0-.399l-1-.998z"/></g></svg>