<?xml version="1.0" encoding="UTF-8"?>
<svg width="56px" height="56px" viewBox="0 0 56 56" version="1.1" xmlns="http://www.w3.org/2000/svg" xmlns:xlink="http://www.w3.org/1999/xlink">
    <!-- Generator: Sketch 61.2 (89653) - https://sketch.com -->
    <title>Group 20 Copy</title>
    <desc>Created with Sketch.</desc>
    <defs>
        <polygon id="path-1" points="0 2.6167614e-05 48.9433619 2.6167614e-05 48.9433619 32.8709667 0 32.8709667"></polygon>
        <polygon id="path-3" points="0.0131786517 0.0943341714 52.080112 0.0943341714 52.080112 36.9599962 0.0131786517 36.9599962"></polygon>
        <polygon id="path-5" points="0.0076048 0.0954310171 29.568112 0.0954310171 29.568112 36.9588192 0.0076048 36.9588192"></polygon>
    </defs>
    <g id="Page-1" stroke="none" stroke-width="1" fill="none" fill-rule="evenodd">
        <g id="WPHelper_Kenhlienhe_SDT_1nguoi" transform="translate(-834.000000, -844.000000)">
            <g id="Group-54" transform="translate(575.000000, 772.000000)">
                <g id="Group-20-Copy" transform="translate(259.000000, 72.000000)">
                    <g id="Group-3">
                        <mask id="mask-2" fill="white">
                            <use xlink:href="#path-1"></use>
                        </mask>
                        <g id="Clip-2"></g>
                        <path d="M4.7122096,32.0702928 C3.0952656,33.6899248 0.3209136,32.7054448 0.1149456,30.4336368 C-0.6040944,22.5005648 2.0490736,14.3092208 8.0771376,8.2413968 C17.4705776,-1.2161072 32.0024656,-2.5365872 42.8181936,4.2944048 C43.3140176,4.6077808 43.9636176,4.5265808 44.3792496,4.1101648 L46.7777296,1.7077648 C47.5725936,0.9116688 48.9327216,1.4686448 48.9328336,2.5918928 L48.9433619,12.7327088 C48.9433619,13.4297968 48.3770896,13.9974128 47.6791056,13.9990928 L37.5237296,14.0201488 C36.3999216,14.0225008 35.8371216,12.6667408 36.6328816,11.8697488 L38.5801136,9.9192688 C39.1796496,9.3186128 39.0338256,8.3051248 38.2821936,7.9155888 C29.7446576,3.4896848 18.9371056,4.8978608 11.8293616,12.1265648 C7.0400176,16.9982288 4.9273616,23.5488848 5.4915056,29.8979408 C5.5628496,30.7012048 5.2838576,31.4977488 4.7122096,32.0702928" id="Fill-1" fill="#8BBD57" mask="url(#mask-2)"></path>
                    </g>
                    <path d="M26.2140256,5.4601232 C19.8330496,4.9854672 13.2848576,7.2082192 8.4490336,12.1263632 C3.6598016,16.9982512 1.5470336,23.5487952 2.1111776,29.8978512 C2.1826336,30.7012272 1.9035296,31.4977712 1.3318816,32.0703152 C1.2570656,32.1452432 1.1792256,32.2126672 1.0998176,32.2766192 C2.1051296,33.0747312 3.6556576,33.1286032 4.7121536,32.0703152 C5.2838016,31.4976592 5.5627936,30.7012272 5.4914496,29.8978512 C4.9271936,23.5487952 7.0400736,16.9982512 11.8291936,12.1263632 C15.8124736,8.0754352 20.9576416,5.8527952 26.2140256,5.4601232" id="Fill-4" fill="#7CA747"></path>
                    <path d="M48.932856,2.5918704 C48.932744,1.4687344 47.572504,0.9116464 46.777752,1.7077424 L45.552808,2.9345904 L45.562888,12.7325744 C45.563336,13.4297744 44.996616,13.9972784 44.298632,13.9990704 L37.393272,14.0132944 C37.435944,14.0173264 37.479176,14.0199058 37.52364,14.0199058 L47.679016,13.9989584 C48.377,13.9971664 48.94372,13.4296624 48.9432723,12.7324624 L48.932856,2.5918704 Z" id="Fill-6" fill="#7CA747"></path>
                    <g id="Group-10" transform="translate(3.920000, 19.040000)">
                        <mask id="mask-4" fill="white">
                            <use xlink:href="#path-3"></use>
                        </mask>
                        <g id="Clip-9"></g>
                        <path d="M46.6939424,0.8936032 C48.1720064,-0.5870368 50.7033184,0.0879872 51.2178464,2.1075712 C53.8847904,12.5758752 50.3113184,24.1455872 41.2469344,31.1453632 C30.6949664,39.2917952 16.1237664,38.6959552 6.3069664,30.5008032 C5.8572864,30.1257152 5.2034304,30.1194432 4.7366144,30.4779552 L2.0444704,32.5463712 C1.1517184,33.2312512 -0.1217216,32.5006752 0.0247744,31.3864992 L1.3487264,21.3265472 C1.4402304,20.6342752 2.0761664,20.1459552 2.7689984,20.2361152 L12.8323104,21.5483072 C13.9464864,21.6940192 14.3244864,23.1120512 13.4325184,23.7977152 L11.2461664,25.4771552 C10.5720384,25.9949312 10.5843584,27.0193952 11.2777504,27.5034592 C19.1538144,33.0141952 30.0471584,33.0364832 38.0388064,26.7986432 C45.2740064,21.1518272 48.1210464,11.8688192 45.9854304,3.4672512 C45.7512384,2.5463872 46.0200384,1.5685152 46.6940544,0.8936032 L46.6939424,0.8936032 Z" id="Fill-8" fill="#8BBD57" mask="url(#mask-4)"></path>
                    </g>
                    <path d="M13.3719824,40.5883072 C14.4861584,40.7340192 14.8641584,42.1520512 13.9721904,42.8377152 L11.7858384,44.5171552 C11.1115984,45.0349312 11.1240304,46.0593952 11.8174224,46.5434592 C16.1130704,49.5489792 21.3060624,50.9216512 26.4362224,50.5368192 C22.4477904,50.2391232 18.5495184,48.8886272 15.1976944,46.5434592 C14.5041904,46.0593952 14.4919824,45.0348192 15.1661104,44.5171552 L17.3524624,42.8377152 C18.2444304,42.1520512 17.8664304,40.7340192 16.7522544,40.5883072 L6.6888304,39.2761152 C6.3103824,39.2269472 5.9496304,39.3510432 5.6846384,39.5860192 L13.3719824,40.5883072 Z" id="Fill-11" fill="#7CA747"></path>
                    <g id="Group-15" transform="translate(26.432000, 19.040000)">
                        <mask id="mask-6" fill="white">
                            <use xlink:href="#path-5"></use>
                        </mask>
                        <g id="Clip-14"></g>
                        <path d="M28.7057008,2.10756 C28.2171568,0.189896 25.9110768,-0.513912 24.4140848,0.687176 C24.8417008,1.02844 25.1727728,1.508248 25.3254288,2.10756 C27.9924848,12.575864 24.4190128,24.145688 15.3546288,31.145464 C10.7597168,34.69284 5.4024208,36.581944 0.0076048,36.9082 C6.5105488,37.298744 13.1797008,35.43428 18.7350128,31.145464 C27.7992848,24.145688 31.3728688,12.575864 28.7058128,2.10756 L28.7057008,2.10756 Z" id="Fill-13" fill="#7CA747" mask="url(#mask-6)"></path>
                    </g>
                    <path d="M33.1401952,28.6989248 L36.6974272,28.6989248 L36.7134432,22.4715008 L33.1401952,28.6989248 Z M38.4988352,37.3750048 L38.4940192,37.3750048 C37.4894912,37.3723168 36.6771552,36.5559488 36.6798432,35.5515328 L36.6881312,32.3365728 L29.9996032,32.3365728 C29.3505632,32.3365728 28.7509152,31.9909408 28.4255552,31.4292608 C28.1003072,30.8676928 28.0989632,30.1754208 28.4219712,29.6125088 L35.0344512,18.0886048 C35.3588032,17.5234528 35.9605792,17.1749088 36.6120832,17.1749088 L38.5415072,17.1749088 C39.0246752,17.1749088 39.4880192,17.3672128 39.8292832,17.7093728 C40.1705472,18.0515328 40.3616192,18.5153248 40.3603872,18.9984928 L40.3354112,28.6988128 L40.7197952,28.6988128 C41.7243232,28.6988128 42.5386752,29.5131648 42.5386752,30.5176928 C42.5386752,31.5222208 41.7244352,32.3365728 40.7197952,32.3365728 L40.3260032,32.3365728 L40.3177152,35.5608288 C40.3150272,36.5636768 39.5010112,37.3750048 38.4988352,37.3750048 L38.4988352,37.3750048 Z" id="Fill-16" fill="#F76551"></path>
                    <path d="M24.6588272,37.3749824 L24.6531152,37.3749824 L15.9205872,37.3482144 C15.4380912,37.3466464 14.9758672,37.1534464 14.6358352,36.8111744 C14.2958032,36.4687904 14.1055152,36.0053344 14.1074192,35.5227264 L14.1095472,34.9571264 C14.1112272,34.4922144 14.2909872,34.0455584 14.6116432,33.7091104 C14.6262032,33.6936544 16.4269392,31.7671424 20.5457392,25.8821024 C21.3347792,24.7548224 21.8435952,23.7486144 22.0591952,22.8899104 C22.4340592,21.3972864 21.0803152,20.0093824 19.5669712,20.0093824 C18.3513232,20.0093824 17.2993072,20.8729024 17.0655632,22.0625664 C16.8720272,23.0482784 15.9159952,23.6901504 14.9302832,23.4968384 C13.9445712,23.3031904 13.3024752,22.3471584 13.4960112,21.3614464 C14.0638512,18.4702784 16.6171152,16.3717344 19.5669712,16.3717344 C22.9784912,16.3717344 25.7539632,19.1472064 25.7539632,22.5587264 C25.7539632,24.5041664 24.8466512,26.0811264 23.5259472,27.9681024 C21.7024752,30.5734464 20.3137872,32.4341024 19.3117232,33.7209824 L24.6643152,33.7373344 C25.6688432,33.7404704 26.4807312,34.5572864 26.4776043,35.5619264 C26.4745712,36.5643264 25.6607792,37.3749824 24.6588272,37.3749824" id="Fill-18" fill="#F76551"></path>
                </g>
            </g>
        </g>
    </g>
</svg>