<?xml version="1.0" encoding="UTF-8"?>
<svg width="60px" height="60px" viewBox="0 0 60 60" version="1.1" xmlns="http://www.w3.org/2000/svg" xmlns:xlink="http://www.w3.org/1999/xlink">
    <!-- Generator: Sketch 61.2 (89653) - https://sketch.com -->
    <title>Group 29 Copy</title>
    <desc>Created with Sketch.</desc>
    <defs>
        <polygon id="path-1" points="4.8e-05 2.4e-05 60 2.4e-05 60 60 4.8e-05 60"></polygon>
        <polygon id="path-3" points="0.097524 0.105996 42.923484 0.105996 42.923484 21.24 0.097524 21.24"></polygon>
    </defs>
    <g id="Page-1" stroke="none" stroke-width="1" fill="none" fill-rule="evenodd">
        <g id="WPHelper_Kenhlienhe_SDT_1nguoi" transform="translate(-714.000000, -842.000000)">
            <g id="Group-54" transform="translate(575.000000, 772.000000)">
                <g id="Group-29-Copy" transform="translate(139.000000, 70.000000)">
                    <g id="Group-3">
                        <mask id="mask-2" fill="white">
                            <use xlink:href="#path-1"></use>
                        </mask>
                        <g id="Clip-2"></g>
                        <path d="M60.000048,30.000624 C60.000048,38.166024 56.736408,45.570144 51.443448,50.980104 C48.529848,53.958504 44.999688,56.332824 41.059608,57.896064 C37.636608,59.253744 33.904488,60.000024 29.999328,60.000024 C26.092968,60.000024 22.360968,59.253744 18.939168,57.894744 C15.026448,56.342784 11.518728,53.990904 8.617608,51.041184 C3.287328,45.626304 4.8e-05,38.197104 4.8e-05,30.000624 C4.8e-05,13.431984 13.430808,2.4e-05 29.999328,2.4e-05 C46.567968,2.4e-05 60.000048,13.431984 60.000048,30.000624" id="Fill-1" fill="#EDEDED" mask="url(#mask-2)"></path>
                    </g>
                    <path d="M41.800356,45.648912 L18.199116,45.648912 C12.304356,45.648912 9.078636,38.779152 12.843516,34.243392 L13.052916,33.991152 C14.711556,31.992792 15.619356,29.477712 15.619356,26.880792 L15.619356,22.329432 C15.619356,14.352312 22.086036,7.885512 30.063156,7.885512 C38.040396,7.885512 44.507076,14.352312 44.507076,22.329432 L44.507076,27.034272 C44.507076,29.658432 45.433956,32.198232 47.124396,34.205352 C50.936196,38.732112 47.718276,45.648912 41.800356,45.648912" id="Fill-4" fill="#75433F"></path>
                    <g id="Group-8" transform="translate(8.520000, 38.760000)">
                        <mask id="mask-4" fill="white">
                            <use xlink:href="#path-3"></use>
                        </mask>
                        <g id="Clip-7"></g>
                        <path d="M42.923484,12.220116 C40.009884,15.198516 36.479724,17.572716 32.539644,19.136076 C29.116524,20.493756 25.384524,21.240036 21.479364,21.240036 C17.573004,21.240036 13.841004,20.493756 10.419084,19.134756 C6.506484,17.582676 2.998644,15.230916 0.097524,12.281196 C0.821244,11.616036 1.665804,11.067876 2.605044,10.672956 L8.155764,8.258916 L10.416564,7.276116 L11.307324,6.888636 L13.052484,6.130116 C13.177044,6.076476 13.299084,6.017916 13.418604,5.954436 C13.463484,5.930796 13.507164,5.907156 13.550724,5.882196 C13.591764,5.859756 13.630404,5.837436 13.670244,5.813676 C13.676484,5.809956 13.682724,5.806236 13.688964,5.801196 C13.728804,5.777556 13.768644,5.752596 13.808484,5.727636 C13.893324,5.675436 13.975524,5.619276 14.056404,5.560836 C14.096244,5.532156 14.136204,5.502276 14.176044,5.472396 C14.255724,5.412636 14.333004,5.350236 14.407764,5.286756 C14.508564,5.200836 14.605764,5.112396 14.699244,5.020236 C14.731644,4.990236 14.762724,4.959156 14.792604,4.926756 C14.823804,4.895676 14.853684,4.863156 14.883564,4.830876 C14.923404,4.788396 14.962044,4.744836 15.000684,4.701276 C15.009324,4.691316 15.016884,4.682556 15.024324,4.673796 C15.060444,4.631556 15.096564,4.587876 15.131484,4.544316 C15.167604,4.499436 15.203724,4.454676 15.237324,4.408476 C15.341964,4.270236 15.439164,4.128276 15.530124,3.981276 C15.548724,3.950196 15.567444,3.917676 15.586044,3.886716 C15.608484,3.849276 15.629724,3.810636 15.652164,3.773196 C15.678324,3.723396 15.705684,3.676116 15.730644,3.626316 C15.784164,3.520356 15.836484,3.412116 15.883764,3.302436 C15.890124,3.288636 15.895044,3.274956 15.901284,3.261276 C15.903804,3.255036 15.906204,3.250116 15.908724,3.243876 C15.957324,3.130476 16.001004,3.014676 16.042044,2.897556 C16.045764,2.885076 16.050804,2.872596 16.054524,2.860236 C16.067004,2.822796 16.078164,2.786796 16.089324,2.749356 C16.095684,2.733036 16.100604,2.716956 16.104324,2.700756 C16.106844,2.692116 16.110564,2.684556 16.113084,2.675796 C16.134204,2.603556 16.154124,2.530116 16.172844,2.456676 C16.180284,2.430396 16.186524,2.404236 16.191564,2.379396 C16.193964,2.370636 16.196484,2.361996 16.197804,2.352036 C16.203924,2.330796 16.207764,2.309556 16.212684,2.288436 C16.215204,2.279676 16.216404,2.271036 16.217724,2.262276 C16.228884,2.211276 16.240164,2.157636 16.250124,2.105316 C16.261284,2.044236 16.271244,1.983156 16.280004,1.920996 C16.287444,1.872396 16.294884,1.822596 16.299924,1.772676 C16.301124,1.765236 16.302444,1.758996 16.302444,1.751556 C16.303644,1.741596 16.304844,1.731636 16.306044,1.722876 C16.307364,1.717836 16.307364,1.712916 16.307364,1.707876 C16.308564,1.700436 16.308564,1.694196 16.309884,1.686756 C16.316004,1.632036 16.321044,1.577196 16.324764,1.522356 C16.327284,1.496196 16.328484,1.468716 16.329804,1.442556 C16.331004,1.418916 16.332324,1.396596 16.333524,1.372836 C16.334724,1.354116 16.336044,1.335516 16.336044,1.315596 C16.338444,1.249476 16.339764,1.183476 16.339764,1.116276 L16.339764,0.105996 L26.618964,0.105996 L26.618964,1.075116 C26.618964,1.134996 26.620284,1.194756 26.622684,1.253196 C26.622684,1.270716 26.624004,1.288116 26.625204,1.305636 C26.625204,1.329276 26.626404,1.352916 26.628924,1.375356 C26.627724,1.382796 26.628924,1.390356 26.630244,1.396596 C26.630244,1.421436 26.632644,1.446396 26.633964,1.471356 C26.637684,1.524876 26.642604,1.577196 26.648844,1.629396 C26.651364,1.655676 26.653884,1.681836 26.657604,1.707876 C26.657604,1.716756 26.658804,1.724076 26.660124,1.731636 C26.661324,1.743996 26.662524,1.756596 26.665164,1.768956 C26.667564,1.795116 26.671284,1.820076 26.675124,1.844916 C26.676204,1.848636 26.676204,1.853676 26.677524,1.857516 C26.678844,1.868556 26.680044,1.881156 26.682444,1.893516 C26.690004,1.945836 26.698764,1.996956 26.708724,2.049276 C26.712444,2.071716 26.716044,2.094036 26.721084,2.115276 C26.722404,2.118996 26.723604,2.124036 26.724924,2.127636 C26.723604,2.128956 26.723604,2.128956 26.724924,2.130276 C26.731044,2.166396 26.738604,2.203716 26.747244,2.239836 C26.749764,2.253516 26.752284,2.267316 26.756004,2.280996 C26.767164,2.330796 26.779764,2.379396 26.792124,2.429196 C26.799684,2.457756 26.807004,2.487636 26.815884,2.516436 C26.825844,2.552556 26.835804,2.589876 26.848164,2.627316 C26.851884,2.642196 26.856924,2.657196 26.861844,2.672196 C26.868084,2.693196 26.874324,2.713116 26.881764,2.734356 C26.884284,2.745636 26.888004,2.757996 26.893044,2.769276 C26.899284,2.787876 26.905524,2.807796 26.911644,2.826636 C26.917884,2.845236 26.924244,2.863956 26.931564,2.882556 C26.940444,2.910036 26.950404,2.937516 26.960364,2.964876 C26.966484,2.982276 26.972724,2.999676 26.980284,3.017196 C26.984004,3.027156 26.987724,3.035796 26.991444,3.045876 C27.027564,3.139236 27.066084,3.231396 27.108564,3.322356 C27.127164,3.363396 27.146004,3.404556 27.165924,3.444396 C27.169644,3.454356 27.174564,3.462996 27.178284,3.472956 C27.184524,3.484236 27.189564,3.495516 27.195804,3.506676 C27.197004,3.510396 27.199524,3.512916 27.200724,3.516636 C27.229404,3.572676 27.257964,3.628716 27.289164,3.683556 C27.304164,3.713436 27.320364,3.742116 27.337764,3.772116 C27.345204,3.786996 27.353964,3.801996 27.363924,3.816876 C27.372564,3.832956 27.381324,3.847956 27.391284,3.862956 C27.452364,3.966396 27.517044,4.067316 27.585684,4.165716 C27.589404,4.174356 27.595644,4.181916 27.601764,4.189356 C27.616764,4.211796 27.631644,4.232916 27.646644,4.252836 C27.672804,4.288956 27.698964,4.325076 27.726324,4.361196 C27.748764,4.391196 27.771204,4.419756 27.793644,4.448316 C27.827244,4.492116 27.862164,4.534356 27.896964,4.575516 C27.929484,4.615356 27.963084,4.653876 27.996684,4.692636 C27.997884,4.693836 28.000524,4.696356 28.001604,4.697556 C28.011564,4.708716 28.021524,4.719996 28.031484,4.731156 C28.039044,4.738596 28.045284,4.746156 28.052724,4.753596 C28.066404,4.769796 28.081404,4.785996 28.097604,4.800996 C28.100124,4.804716 28.103844,4.808316 28.107564,4.812156 C28.122444,4.828356 28.137444,4.843236 28.153644,4.859436 C28.156044,4.864476 28.159884,4.868196 28.164924,4.872036 C28.169844,4.878156 28.175964,4.884396 28.182324,4.890636 C28.207164,4.916796 28.233324,4.942836 28.259604,4.967796 C28.301844,5.011476 28.346724,5.052636 28.391484,5.093676 C28.412724,5.113596 28.433964,5.132316 28.455084,5.151036 C28.472484,5.167236 28.490004,5.182116 28.507404,5.197116 C28.541004,5.225676 28.574724,5.254356 28.609644,5.281836 C28.612044,5.285556 28.613244,5.286756 28.615884,5.287956 C28.628244,5.300436 28.641924,5.310396 28.655724,5.320356 C28.719204,5.372676 28.784004,5.422596 28.851204,5.471076 C28.912284,5.515956 28.974564,5.559516 29.036844,5.601996 C29.044284,5.606916 29.051724,5.611956 29.059284,5.616876 C29.100444,5.645556 29.144004,5.672796 29.186244,5.699076 C29.356884,5.806236 29.533884,5.903316 29.718204,5.991876 C29.738124,6.001836 29.758044,6.011796 29.777964,6.020436 C29.829084,6.044076 29.881284,6.067716 29.933724,6.090156 L31.797204,6.888636 L32.539644,7.207596 L32.542044,7.207596 L35.794644,8.601516 L40.504404,10.620756 C41.296644,10.971996 42.019164,11.432796 42.655764,11.980956 C42.701724,12.019596 42.746604,12.059436 42.791484,12.099276 C42.835164,12.139116 42.879924,12.178956 42.923484,12.220116" id="Fill-6" fill="#FFFFFF" mask="url(#mask-4)"></path>
                    </g>
                    <path d="M18.93942,49.755396 C21.60678,50.552436 25.53306,51.402516 30.3189,51.318756 C34.80918,51.240396 38.49546,50.367156 41.06022,49.548036 L44.31402,47.361756 L38.4537,44.849916 C36.4431,43.988196 35.13954,42.011316 35.13954,39.823836 L35.13954,38.866116 L24.8601,38.866116 L24.8601,39.875916 C24.8601,42.052836 23.56866,44.022756 21.5721,44.890716 L16.67634,47.019276 L18.93942,49.755396 Z" id="Fill-9" fill="#FFE7D1"></path>
                    <path d="M18.93912,46.036092 L18.93912,57.894732 C15.02652,56.342772 11.51868,53.990892 8.61756,51.041172 C9.34128,50.376012 10.18584,49.827972 11.12508,49.433052 L16.67568,47.018892 L18.9366,46.036092 L18.93912,46.036092 Z" id="Fill-11" fill="#F270CD"></path>
                    <path d="M51.443484,50.980116 C48.529884,53.958516 44.999724,56.332716 41.059644,57.896076 L41.059644,45.967596 L41.062044,45.967596 L44.314644,47.361516 L49.024404,49.380756 C49.816644,49.731996 50.539164,50.192796 51.175764,50.740956 C51.221724,50.779596 51.266604,50.819436 51.311484,50.859276 C51.355164,50.899116 51.399924,50.938956 51.443484,50.980116" id="Fill-13" fill="#F270CD"></path>
                    <path d="M29.999808,55.798284 C30.523368,55.798284 30.947808,56.222724 30.947808,56.746284 C30.947808,57.269964 30.523368,57.694404 29.999808,57.694404 C29.476248,57.694404 29.051808,57.269964 29.051808,56.746284 C29.051808,56.222724 29.476248,55.798284 29.999808,55.798284" id="Fill-15" fill="#F270CD"></path>
                    <path d="M33.495624,44.373324 C34.658184,44.373324 35.766384,44.143044 36.779424,43.728204 C35.750064,42.718404 35.139384,41.320524 35.139384,39.823884 L35.139384,38.866044 L24.859944,38.866044 L24.859944,39.875844 C24.859944,40.643604 24.698784,41.385324 24.403224,42.062124 C25.950624,43.495884 28.020624,44.373444 30.296424,44.373444 L33.495624,44.373444 L33.495624,44.373324 Z" id="Fill-17" fill="#EFD5BF"></path>
                    <path d="M40.273872,23.402556 L40.273872,31.906476 C40.273872,36.697236 36.390192,40.580916 31.599432,40.580916 L28.400232,40.580916 C23.609592,40.580916 19.725792,36.697356 19.725792,31.906476 L19.725792,23.402556 C19.725792,20.285916 22.252272,17.759436 25.368912,17.759436 L34.630752,17.759436 C37.747152,17.759436 40.273872,20.285916 40.273872,23.402556" id="Fill-19" fill="#FFE7D1"></path>
                    <path d="M40.273872,27.888324 C40.240752,27.946284 40.212912,28.008324 40.192032,28.074564 C39.796392,29.332284 38.946792,31.131204 37.146912,32.558724 C36.251592,33.268644 35.231712,33.797364 34.115232,34.130244 C33.613392,34.280004 33.327792,34.808004 33.477552,35.309844 C33.600312,35.721204 33.977352,35.987244 34.385832,35.987244 C34.475592,35.987244 34.566792,35.974524 34.657032,35.947524 C36.005952,35.545404 37.240032,34.905084 38.325312,34.044564 C39.117072,33.416484 39.754752,32.730684 40.270632,32.039244 C40.271232,31.994964 40.273992,31.950924 40.273992,31.906404 L40.273992,27.888324 L40.273872,27.888324 Z" id="Fill-21" fill="#7A6D79"></path>
                    <path d="M32.920128,36.772188 L30.619248,36.772188 C29.572128,36.772188 28.723008,35.923188 28.723008,34.875828 C28.723008,33.828708 29.572128,32.979708 30.619248,32.979708 L32.920128,32.979708 C33.967488,32.979708 34.816488,33.828708 34.816488,34.875828 C34.816488,35.923188 33.967488,36.772188 32.920128,36.772188" id="Fill-23" fill="#1F4858"></path>
                    <path d="M32.049768,15.508632 C32.270208,12.730032 34.930128,10.886112 37.476048,9.931152 C41.687568,12.454632 44.507088,17.062512 44.507088,22.329432 L44.507088,23.322432 C44.274168,23.371272 44.042568,23.414112 43.813488,23.448312 C42.411048,23.657712 41.216568,23.567112 40.400688,23.448312 C35.142528,22.747752 31.783728,18.864432 32.049768,15.508632" id="Fill-25" fill="#7D504E"></path>
                    <path d="M30.063204,7.885584 C33.325284,7.885584 36.334284,8.967264 38.752164,10.791024 C37.546044,12.889944 34.776324,17.039544 29.582604,20.111784 C25.727004,22.392504 22.091604,23.158824 19.852644,23.448264 L15.619404,23.448264 L15.619404,22.329384 C15.619404,14.352264 22.086084,7.885584 30.063204,7.885584" id="Fill-27" fill="#75433F"></path>
                </g>
            </g>
        </g>
    </g>
</svg>