<svg width="34" height="34" viewBox="0 0 52 52" fill="none" xmlns="http://www.w3.org/2000/svg">
<path d="M25.8336 22.4412C25.9111 22.1624 26.1999 21.9991 26.4787 22.0766C26.7576 22.154 26.9209 22.4429 26.8434 22.7217L25.6788 26.9138C25.6144 27.1457 25.4037 27.2976 25.1742 27.2976C25.1278 27.2976 25.0806 27.2914 25.0336 27.2784C24.7548 27.2009 24.5915 26.9121 24.669 26.6332L25.8336 22.4412Z" fill="white"/>
<path d="M22.9466 22.179C22.724 21.9939 22.3936 22.0243 22.2086 22.2468L20.4617 24.3473C20.3 24.5419 20.3003 24.8241 20.4625 25.0183L22.2093 27.1098C22.3129 27.234 22.4619 27.298 22.6118 27.298C22.7303 27.298 22.8494 27.258 22.9474 27.1762C23.1696 26.9907 23.1993 26.6602 23.0138 26.4381L21.5469 24.6817L23.0145 22.917C23.1995 22.6944 23.1691 22.364 22.9466 22.179Z" fill="white"/>
<path d="M29.3024 22.2457L31.0493 24.3372C31.2114 24.5313 31.2117 24.8136 31.0499 25.0082L29.3031 27.1087C29.1995 27.2333 29.0503 27.2976 28.8999 27.2976C28.7818 27.2976 28.663 27.258 28.5651 27.1765C28.3426 26.9916 28.3122 26.6611 28.4973 26.4386L29.9649 24.6739L28.498 22.9175C28.3124 22.6954 28.3421 22.3649 28.5643 22.1794C28.7864 21.9939 29.1169 22.0236 29.3024 22.2457Z" fill="white"/>
<path fill-rule="evenodd" clip-rule="evenodd" d="M35.6975 21.5157C35.8765 22.0136 36.2922 22.3881 36.8107 22.4909C37.5041 22.6288 38.0041 23.2378 38 23.9456V26.0565C38 26.7642 37.5 27.3732 36.8066 27.5111C36.288 27.614 35.8724 27.9884 35.6934 28.4863C35.5844 28.7929 35.4588 29.0933 35.321 29.3854C35.0946 29.8648 35.1234 30.4265 35.4177 30.8668C35.8107 31.4552 35.7325 32.2391 35.2325 32.7391L33.7387 34.2327C33.2387 34.7347 32.4547 34.8109 31.8662 34.4179C31.4238 34.1216 30.8642 34.0949 30.3847 34.3212C30.0926 34.459 29.7922 34.5825 29.4856 34.6936C28.9877 34.8726 28.6132 35.2882 28.5103 35.8066C28.3724 36.5 27.7634 37 27.0556 37H24.9444C24.2366 37 23.6275 36.5 23.4897 35.8066C23.3868 35.2882 23.0124 34.8726 22.5144 34.6936C22.2078 34.5845 21.9074 34.459 21.6152 34.3212C21.1358 34.0949 20.5741 34.1237 20.1337 34.4179C19.5453 34.8109 18.7613 34.7327 18.2613 34.2327L16.7675 32.7391C16.2654 32.2391 16.1893 31.4552 16.5823 30.8668C16.8786 30.4244 16.9054 29.8648 16.679 29.3854C16.5411 29.0933 16.4177 28.7929 16.3066 28.4863C16.1276 27.9884 15.7119 27.614 15.1934 27.5111C14.5 27.3732 14 26.7642 14 26.0565V23.9456C14 23.2378 14.5 22.6288 15.1955 22.4889C15.714 22.386 16.1296 22.0116 16.3087 21.5137C16.4177 21.2071 16.5432 20.9067 16.6811 20.6146C16.9074 20.1352 16.8786 19.5735 16.5844 19.1332C16.1913 18.5448 16.2696 17.7609 16.7695 17.261L18.2634 15.7673C18.7634 15.2652 19.5473 15.1891 20.1358 15.5821C20.5782 15.8783 21.1379 15.9051 21.6173 15.6788C21.9094 15.5409 22.2099 15.4175 22.5165 15.3064C23.0144 15.1274 23.3889 14.7118 23.4918 14.1933C23.6296 13.5 24.2387 13 24.9465 13H27.0576C27.7654 13 28.3745 13.5 28.5144 14.1954C28.6173 14.7138 28.9917 15.1294 29.4897 15.3085C29.7963 15.4175 30.0967 15.543 30.3889 15.6808C30.8683 15.9071 31.43 15.8783 31.8704 15.5842C32.4588 15.1912 33.2428 15.2694 33.7428 15.7693L35.2366 17.263C35.7387 17.763 35.8148 18.5468 35.4218 19.1353C35.1255 19.5776 35.0987 20.1373 35.3251 20.6166C35.463 20.9088 35.5864 21.2092 35.6975 21.5157ZM18.8375 25.001C18.8375 28.9575 22.0453 32.165 26.002 32.165C29.9588 32.165 33.1666 28.9595 33.1666 25.0031C33.1666 21.0466 29.9588 17.8391 26.002 17.8391C22.0453 17.8391 18.8375 21.0446 18.8375 25.001Z" fill="white"/>
</svg>
