<?xml version="1.0" encoding="UTF-8"?>
<svg width="60px" height="60px" viewBox="0 0 60 60" version="1.1" xmlns="http://www.w3.org/2000/svg" xmlns:xlink="http://www.w3.org/1999/xlink">
    <!-- Generator: Sketch 61.2 (89653) - https://sketch.com -->
    <title>Group 21 Copy 2</title>
    <desc>Created with Sketch.</desc>
    <defs>
        <polygon id="path-1" points="6e-05 1.2e-05 59.99994 1.2e-05 59.99994 60 6e-05 60"></polygon>
        <polygon id="path-3" points="0.089592 0.106104 42.873192 0.106104 42.873192 21.24 0.089592 21.24"></polygon>
    </defs>
    <g id="Page-1" stroke="none" stroke-width="1" fill="none" fill-rule="evenodd">
        <g id="WPHelper_Kenhlienhe_SDT_1nguoi" transform="translate(-593.000000, -842.000000)">
            <g id="Group-54" transform="translate(575.000000, 772.000000)">
                <g id="Group-21-Copy-2" transform="translate(18.000000, 70.000000)">
                    <g id="Group-3">
                        <mask id="mask-2" fill="white">
                            <use xlink:href="#path-1"></use>
                        </mask>
                        <g id="Clip-2"></g>
                        <path d="M59.99994,30.000612 C59.99994,37.943052 56.9121,45.165372 51.87318,50.531772 C46.39986,56.360172 38.62434,60.000012 29.99934,60.000012 C21.86766,60.000012 14.4933,56.766252 9.08958,51.512052 C3.48282,46.062252 6e-05,38.437572 6e-05,30.000612 C6e-05,13.431972 13.43082,1.2e-05 29.99934,1.2e-05 C46.56798,1.2e-05 59.99994,13.431972 59.99994,30.000612" id="Fill-1" fill="#EDEDED" mask="url(#mask-2)"></path>
                    </g>
                    <g id="Group-6" transform="translate(9.000000, 38.760000)">
                        <mask id="mask-4" fill="white">
                            <use xlink:href="#path-3"></use>
                        </mask>
                        <g id="Clip-5"></g>
                        <path d="M20.999352,21.240024 C12.867672,21.240024 5.493312,18.006264 0.089592,12.752064 C0.910512,11.873784 1.919472,11.158824 3.072912,10.672944 L13.520472,6.130104 C13.645032,6.076584 13.766952,6.017904 13.886712,5.954424 C14.242872,5.766384 14.574192,5.542224 14.875752,5.286744 C14.976672,5.200824 15.073752,5.112384 15.167112,5.020224 C15.842232,4.359984 16.335672,3.532824 16.595952,2.621064 C16.597152,2.617344 16.598472,2.612304 16.599672,2.608584 C16.615872,2.552544 16.632072,2.495184 16.644552,2.439144 C16.660752,2.378064 16.675752,2.317104 16.686792,2.254824 C16.699392,2.199984 16.710552,2.145144 16.720512,2.089104 C16.730472,2.031864 16.740432,1.974504 16.747872,1.917264 C16.754112,1.881144 16.759152,1.843704 16.762872,1.806384 C16.769112,1.768944 16.772832,1.730424 16.776672,1.692984 C16.797672,1.502424 16.807632,1.310544 16.807632,1.116264 L16.807632,0.106104 L27.088152,0.106104 L27.088152,1.063944 C27.088152,1.131264 27.089472,1.198464 27.091872,1.265784 L27.091872,1.269504 C27.094392,1.323024 27.096912,1.376664 27.100632,1.430184 C27.101832,1.451424 27.103152,1.472544 27.105672,1.494984 C27.109392,1.547304 27.114312,1.598304 27.119352,1.650624 C27.127992,1.725384 27.136872,1.798824 27.147912,1.872384 C27.157872,1.938384 27.169152,2.004384 27.181632,2.070504 C27.192792,2.135184 27.206592,2.198664 27.220272,2.262384 C27.221472,2.263464 27.221472,2.264784 27.221472,2.265984 C27.236472,2.330784 27.251472,2.394264 27.267552,2.457744 C27.268752,2.459064 27.268752,2.460384 27.268752,2.461584 C27.286272,2.525064 27.303672,2.588664 27.323592,2.650944 C27.338592,2.703144 27.354792,2.754264 27.372192,2.805384 C27.389712,2.855184 27.406992,2.905104 27.425832,2.953584 C27.448152,3.017184 27.473112,3.080664 27.499272,3.142944 C27.502992,3.154104 27.506832,3.164064 27.511752,3.174024 C27.534192,3.228864 27.557712,3.283704 27.583992,3.337344 C27.618792,3.415824 27.656232,3.492984 27.696072,3.568944 C27.714792,3.607584 27.736032,3.645024 27.757032,3.683544 C27.770832,3.709704 27.784512,3.735864 27.799512,3.760824 C27.815712,3.788184 27.831912,3.816864 27.847992,3.844224 C27.869232,3.880344 27.891672,3.916584 27.914112,3.952584 C27.935232,3.987504 27.956472,4.021224 27.978792,4.054824 C27.990072,4.073424 28.002432,4.092264 28.016232,4.109544 C28.041192,4.149504 28.068552,4.188024 28.094712,4.225464 C28.178112,4.343784 28.266672,4.458384 28.358712,4.569264 C28.900632,5.217024 29.593152,5.743944 30.401712,6.090264 L30.416712,6.096504 L40.972392,10.620744 C41.662392,10.925904 42.300312,11.315784 42.873192,11.771784 C37.399872,17.600184 29.624352,21.240024 20.999352,21.240024" id="Fill-4" fill="#3B607F" mask="url(#mask-4)"></path>
                    </g>
                    <path d="M32.400516,50.056548 L39.401796,44.890548 L39.417156,44.856468 L39.401796,44.849748 C37.391196,43.988148 36.087636,42.011148 36.087636,39.823788 L36.087636,38.866068 L25.808076,38.866068 L25.808076,39.875748 C25.808076,42.052788 24.516756,44.022588 22.520196,44.890548 L30.211116,50.100708 C30.876516,50.551428 31.753836,50.533908 32.400516,50.056548" id="Fill-7" fill="#FDE0C7"></path>
                    <path d="M25.808136,38.866188 L25.808136,39.875868 C25.808136,40.393308 25.734456,40.898628 25.596336,41.380548 C27.454296,43.229868 30.015576,44.373348 32.844216,44.373348 C34.464456,44.373348 35.996256,43.997028 37.359336,43.328988 C36.554256,42.364788 36.087576,41.132028 36.087576,39.823668 L36.087576,38.865948 L25.808136,38.865948 L25.808136,38.866188 Z" id="Fill-9" fill="#F9C4B5"></path>
                    <path d="M30.947868,54.597324 C31.471428,54.597324 31.895868,55.021764 31.895868,55.545324 C31.895868,56.069004 31.471428,56.493444 30.947868,56.493444 C30.424308,56.493444 29.999868,56.069004 29.999868,55.545324 C29.999868,55.021764 30.424308,54.597324 30.947868,54.597324" id="Fill-11" fill="#1F4858"></path>
                    <path d="M41.221932,26.767224 L20.673972,26.767224 L20.673972,14.898864 C20.673972,11.025504 23.814012,7.885584 27.687372,7.885584 L34.208532,7.885584 C38.081892,7.885584 41.221932,11.025504 41.221932,14.898864 L41.221932,26.767224 Z" id="Fill-13" fill="#5A3F40"></path>
                    <path d="M41.221932,19.6557 L41.221932,30.3069 C41.221932,35.98098 36.621972,40.58082 30.947892,40.58082 C25.273812,40.58082 20.673972,35.98098 20.673972,30.3069 L20.673972,22.8669 C20.673972,20.4249 23.145012,18.75882 25.408812,19.6743 L30.323052,21.66174 C33.108852,22.7883 36.259452,22.55934 38.853012,21.04182 L41.221932,19.6557 Z" id="Fill-15" fill="#FDE0C7"></path>
                    <path d="M41.221932,27.359196 C40.959372,28.596396 40.206972,30.870756 38.092212,32.560956 C37.181172,33.288996 36.132732,33.818796 34.975692,34.135716 C34.470612,34.273956 34.173492,34.795596 34.311732,35.300556 C34.427052,35.721756 34.809012,35.998476 35.225532,35.998476 C35.308452,35.998476 35.392692,35.987436 35.476452,35.964516 C36.883932,35.579076 38.162172,34.932276 39.276012,34.042116 C39.981372,33.478476 40.560732,32.863236 41.038332,32.236476 C41.157132,31.611156 41.221932,30.966636 41.221932,30.306756 L41.221932,27.359196 Z" id="Fill-17" fill="#7A6D79"></path>
                    <path d="M33.868176,36.772176 L31.567296,36.772176 C30.520176,36.772176 29.671056,35.923176 29.671056,34.875936 C29.671056,33.828696 30.520176,32.979696 31.567296,32.979696 L33.868176,32.979696 C34.915536,32.979696 35.764536,33.828696 35.764536,34.875936 C35.764536,35.923176 34.915536,36.772176 33.868176,36.772176" id="Fill-19" fill="#1F4858"></path>
                </g>
            </g>
        </g>
    </g>
</svg>