<?xml version="1.0" encoding="UTF-8"?>
<svg width="17px" height="19px" viewBox="0 0 17 19" version="1.1" xmlns="http://www.w3.org/2000/svg" xmlns:xlink="http://www.w3.org/1999/xlink">
    <!-- Generator: Sketch 61.2 (89653) - https://sketch.com -->
    <title>Group 6</title>
    <desc>Created with Sketch.</desc>
    <defs>
        <polygon id="path-1" points="0.0008 0.5731 16.7098 0.5731 16.7098 7 0.0008 7"></polygon>
    </defs>
    <g id="Page-1" stroke="none" stroke-width="1" fill="none" fill-rule="evenodd">
        <g id="WPHelper_Tienichmorong_Giaodiendangnhap_Hinh" transform="translate(-483.000000, -814.000000)">
            <g id="Group-4-Copy" transform="translate(460.000000, 803.000000)">
                <g id="Group-4" transform="translate(23.000000, 11.000000)">
                    <g id="Group-6">
                        <g id="Group-3" transform="translate(0.000000, 11.851500)">
                            <mask id="mask-2" fill="white">
                                <use xlink:href="#path-1"></use>
                            </mask>
                            <g id="Clip-2"></g>
                            <path d="M16.0668,0.5731 C15.7128,0.5731 15.4238,0.8611 15.4238,1.2161 L15.4238,5.0721 C15.4238,5.4271 15.1358,5.7151 14.7818,5.7151 L1.9278,5.7151 C1.5728,5.7151 1.2858,5.4271 1.2858,5.0721 L1.2858,1.2161 C1.2858,0.8611 0.9978,0.5731 0.6428,0.5731 C0.2878,0.5731 0.0008,0.8611 0.0008,1.2161 L0.0008,5.0721 C0.0008,6.1361 0.8638,7.0001 1.9278,7.0001 L14.7818,7.0001 C15.8458,7.0001 16.7098,6.1361 16.7098,5.0721 L16.7098,1.2161 C16.7098,0.8611 16.4218,0.5731 16.0668,0.5731" id="Fill-1" fill="#1E74E8" mask="url(#mask-2)"></path>
                        </g>
                        <path d="M4.7026,4.3113 C4.9516,4.5513 5.3476,4.5513 5.5966,4.3113 L7.7136,2.1943 L7.7136,14.7823 C7.7136,15.1363 8.0016,15.4243 8.3556,15.4243 C8.7116,15.4243 8.9986,15.1363 8.9986,14.7823 L8.9986,2.1943 L11.1146,4.3113 C11.3706,4.5573 11.7776,4.5503 12.0236,4.2943 C12.2646,4.0453 12.2646,3.6513 12.0236,3.4023 L8.8106,0.1883 C8.5596,-0.0627 8.1526,-0.0627 7.9016,0.1873 L7.9006,0.1883 L4.6866,3.4023 C4.4406,3.6573 4.4476,4.0643 4.7026,4.3113" id="Fill-4" fill="#1E74E8"></path>
                    </g>
                </g>
            </g>
        </g>
    </g>
</svg>