<svg xmlns="http://www.w3.org/2000/svg" viewBox="0 0 36 36"><defs><style>.cls-1{fill:#64b5f6;}.cls-2{fill:#fff;}.cls-3{fill:#1e88e5;}</style></defs><title>Asset 1</title><g id="Layer_2" data-name="Layer 2"><g id="Layer_1-2" data-name="Layer 1"><g id="surface1"><path class="cls-1" d="M34,7H19V29H34a2,2,0,0,0,2-2V9A2,2,0,0,0,34,7Z"/><path class="cls-2" d="M33,12.24v2.44a.67.67,0,0,1-.14.5L31,17a.26.26,0,0,1-.42,0l-.7-.56a.26.26,0,0,1,0-.42l.84-.84V12.24H28.24C26,13.92,24.18,17,23.62,16.44s3.64-6.3,4.2-6.44h4.76a.37.37,0,0,1,.42.42Z"/><path class="cls-2" d="M30.76,26H28.32a.67.67,0,0,1-.5-.14L26,24a.26.26,0,0,1,0-.42l.56-.7a.26.26,0,0,1,.42,0l.84.84h2.94V21.24C29.08,19,26,17.18,26.56,16.62s6.3,3.64,6.44,4.2v4.76a.37.37,0,0,1-.42.42Z"/><path class="cls-2" d="M17.54,23.76V21.32a.67.67,0,0,1,.14-.5L19.5,19a.27.27,0,0,1,.43,0l.69.56a.25.25,0,0,1,0,.42l-.84.84v2.94H22.3c2.24-1.68,4.06-4.76,4.62-4.2s-3.64,6.3-4.19,6.44H18a.37.37,0,0,1-.43-.42Z"/><path class="cls-2" d="M19.78,10h2.45a.64.64,0,0,1,.49.14L24.54,12a.26.26,0,0,1,0,.42l-.56.71a.26.26,0,0,1-.42,0l-.84-.85H19.78v2.53c1.68,2.23,4.76,4.05,4.2,4.61-.56.71-6.3-3.64-6.44-4.2V10.43A.38.38,0,0,1,18,10Z"/><path class="cls-3" d="M21,36,0,32V4L21,0Z"/><path class="cls-2" d="M14,26.81l-8-.7V10.81L13.72,10v3.09L9,13.34v3.51l4.35-.14v3.08H9v3.66l5.05.28Z"/></g></g></g></svg>