<svg xmlns="http://www.w3.org/2000/svg" viewBox="0 0 28 28.8"><defs><style>.cls-1,.cls-2{fill:#0072c6;}.cls-2{fill-rule:evenodd;}</style></defs><title>Asset 2</title><g id="Layer_2" data-name="Layer 2"><g id="Layer_1-2" data-name="Layer 1"><path class="cls-1" d="M17.6,6.4v5.89l1.92,1.3h.21l8.27-6A1.24,1.24,0,0,0,27,6.4Z"/><path class="cls-1" d="M17.6,13.91l1.75,1.24a.51.51,0,0,0,.55,0C19.6,15.34,28,9.6,28,9.6V20a1.43,1.43,0,0,1-1.5,1.61H17.6V13.91ZM8.44,11.2A1.69,1.69,0,0,0,7,12.08a4.34,4.34,0,0,0-.55,2.33A4.23,4.23,0,0,0,7,16.74a1.65,1.65,0,0,0,1.45.86,1.67,1.67,0,0,0,1.46-.83,4.25,4.25,0,0,0,.54-2.31,4.6,4.6,0,0,0-.52-2.4A1.62,1.62,0,0,0,8.44,11.2Z"/><path class="cls-2" d="M0,25.28v-22L16.8,0V28.8Zm8.46-5.89A3.33,3.33,0,0,0,11.24,18a5.91,5.91,0,0,0,1.07-3.68,5.84,5.84,0,0,0-1-3.59A3.24,3.24,0,0,0,8.59,9.36a3.38,3.38,0,0,0-2.83,1.42A6.06,6.06,0,0,0,4.69,14.5a5.64,5.64,0,0,0,1,3.54A3.29,3.29,0,0,0,8.46,19.39Z"/></g></g></svg>