<?xml version="1.0" encoding="UTF-8"?>
<svg id="Layer_2" data-name="Layer 2" xmlns="http://www.w3.org/2000/svg" viewBox="0 0 1000 1000">
  <defs>
    <style>
      .cls-1 {
        fill: #fff;
      }
    </style>
  </defs>
  <g id="Layer_1-2" data-name="Layer 1">
    <g>
      <circle cx="500" cy="500" r="500"/>
      <g>
        <path class="cls-1" d="m406.69,262.77h0c-15.15,0-27.43,12.29-27.41,27.45l.03,17.68v191.9h-119.54v-191.9c0-32.07,27.95-36.22,33.89-45.13h-152.1c6.51,8.91,33.85,13.06,33.85,45.13v383.79c0,32.1-27.34,35.64-33.85,45.17h152.1c-5.94-9.52-33.89-13.06-33.89-45.17v-183.56h119.54v183.56c0,32.1-27.91,35.64-33.85,45.17h152.1c-5.94-9.52-33.85-13.06-33.85-45.17v-250.81l-2.93-9.18-8.04-25.06-46.04-143.88"/>
        <path class="cls-1" d="m717.61,414.95c86.14,0,108.12,43.98,140.83,98.63l-22.58-106.94h-341.6l8.04,25.06c18.28-10.59,41.62-16.76,73.92-16.76h28.52v336.8l41.28,128.98h76.97c-5.94-9.48-33.89-13.06-33.89-45.17v-420.62h28.52Z"/>
        <path class="cls-1" d="m646.05,880.73c-1.77,0-3.4-1.13-3.97-2.9L401.03,124.71c-.7-2.19.5-4.54,2.7-5.24,2.21-.7,4.54.51,5.24,2.7l241.05,753.12c.7,2.19-.5,4.54-2.7,5.24-.42.13-.85.2-1.27.2Z"/>
      </g>
    </g>
  </g>
</svg>