<svg width="30" height="30" viewBox="0 0 30 30" fill="none" xmlns="http://www.w3.org/2000/svg">
<path d="M24.8614 24.7169H7.96326C6.56844 24.7169 5.4375 23.586 5.4375 22.1912V12.1729C5.4375 10.7781 6.56844 9.64716 7.96326 9.64716H24.852C26.2468 9.64716 27.3777 10.7781 27.3777 12.1729V22.1912C27.3871 23.586 26.2562 24.7169 24.8614 24.7169ZM7.96326 10.3634C6.96427 10.3634 6.15376 11.1739 6.15376 12.1729V22.1912C6.15376 23.1902 6.96427 24.0007 7.96326 24.0007H24.852C25.851 24.0007 26.6615 23.1902 26.6615 22.1912V12.1729C26.6615 11.1739 25.851 10.3634 24.852 10.3634H7.96326Z" fill="white"/>
<path d="M8.88672 12.6913H14.9278V14.1332H8.88672V12.6913Z" fill="white"/>
<path d="M17.9062 12.6912H23.9474V14.1332H17.9062V12.6912Z" fill="white"/>
<path d="M8.88652 18.0914C8.17026 18.0914 7.58594 17.5071 7.58594 16.7908C7.58594 16.0746 8.17026 15.4902 8.88652 15.4902C9.60278 15.4902 10.1871 16.0746 10.1871 16.7908C10.1871 17.5071 9.60278 18.0914 8.88652 18.0914V18.0914ZM8.88652 16.2065C8.56608 16.2065 8.3022 16.4704 8.3022 16.7908C8.3022 17.1112 8.56608 17.3751 8.88652 17.3751C9.20695 17.3751 9.47084 17.1112 9.47084 16.7908C9.46141 16.4704 9.20695 16.2065 8.88652 16.2065V16.2065Z" fill="white"/>
<path d="M8.88652 22.0874C8.17026 22.0874 7.58594 21.503 7.58594 20.7868C7.58594 20.0705 8.17026 19.4862 8.88652 19.4862C9.60278 19.4862 10.1871 20.0705 10.1871 20.7868C10.1871 21.503 9.60278 22.0874 8.88652 22.0874V22.0874ZM8.88652 20.2025C8.56608 20.2025 8.3022 20.4664 8.3022 20.7868C8.3022 21.1072 8.56608 21.3711 8.88652 21.3711C9.20695 21.3711 9.47084 21.1072 9.47084 20.7868C9.46141 20.4664 9.20695 20.2025 8.88652 20.2025V20.2025Z" fill="white"/>
<path d="M21.6873 8.60116C20.971 8.60116 20.3867 8.01684 20.3867 7.30058C20.3867 6.58432 20.971 6 21.6873 6C22.4036 6 22.9879 6.58432 22.9879 7.30058C22.9879 8.01684 22.4036 8.60116 21.6873 8.60116ZM21.6873 6.71626C21.3669 6.71626 21.103 6.98015 21.103 7.30058C21.103 7.62101 21.3669 7.8849 21.6873 7.8849C22.0077 7.8849 22.2716 7.62101 22.2716 7.30058C22.2622 6.98015 22.0077 6.71626 21.6873 6.71626Z" fill="white"/>
<path d="M3.30058 21.145C2.58432 21.145 2 20.5607 2 19.8445C2 19.1282 2.58432 18.5439 3.30058 18.5439C4.01684 18.5439 4.60116 19.1282 4.60116 19.8445C4.60116 20.5607 4.01684 21.145 3.30058 21.145V21.145ZM3.30058 19.2696C2.98015 19.2696 2.71626 19.5335 2.71626 19.8539C2.71626 20.1743 2.98015 20.4382 3.30058 20.4382C3.62101 20.4382 3.8849 20.1743 3.8849 19.8539C3.8849 19.524 3.62101 19.2696 3.30058 19.2696V19.2696Z" fill="white"/>
<path d="M11.4492 16.4233H24.7001V17.149H11.4492V16.4233Z" fill="white"/>
<path d="M11.4492 20.4288H24.7001V21.1545H11.4492V20.4288Z" fill="white"/>
</svg>
