<svg width="30" height="30" viewBox="0 0 30 30" fill="none" xmlns="http://www.w3.org/2000/svg">
<path d="M14.9275 7.25349C14.307 7.25349 13.8008 6.74727 13.8008 6.12675C13.8008 5.50622 14.307 5 14.9275 5C15.5481 5 16.0543 5.50622 16.0543 6.12675C16.0543 6.74727 15.5481 7.25349 14.9275 7.25349ZM14.9275 5.62053C14.6499 5.62053 14.4213 5.84914 14.4213 6.12675C14.4213 6.40435 14.6499 6.63296 14.9275 6.63296C15.2051 6.63296 15.4337 6.40435 15.4337 6.12675C15.4337 5.84914 15.2051 5.62053 14.9275 5.62053Z" fill="white"/>
<path d="M23.2986 19.8087C22.6781 19.8087 22.1719 19.3024 22.1719 18.6819C22.1719 18.0614 22.6781 17.5552 23.2986 17.5552C23.9191 17.5552 24.4254 18.0614 24.4254 18.6819C24.4254 19.3024 23.9191 19.8087 23.2986 19.8087ZM23.2986 18.1757C23.021 18.1757 22.7924 18.4043 22.7924 18.6819C22.7924 18.9595 23.021 19.1881 23.2986 19.1881C23.5762 19.1881 23.8048 18.9595 23.8048 18.6819C23.8048 18.4043 23.5762 18.1757 23.2986 18.1757Z" fill="white"/>
<path d="M7.52128 11.4385C6.90075 11.4385 6.39453 10.9323 6.39453 10.3118C6.39453 9.69128 6.90075 9.18506 7.52128 9.18506C8.1418 9.18506 8.64802 9.69128 8.64802 10.3118C8.64802 10.9323 8.1418 11.4385 7.52128 11.4385ZM7.52128 9.80559C7.24367 9.80559 7.01506 10.0342 7.01506 10.3118C7.01506 10.5894 7.24367 10.818 7.52128 10.818C7.79888 10.818 8.0275 10.5894 8.0275 10.3118C8.0275 10.0342 7.79888 9.80559 7.52128 9.80559Z" fill="white"/>
<path d="M9.07029 13.0482H6.29921C5.64167 13.0482 5.10938 12.4835 5.10938 11.7859V8.83775C5.10938 8.14016 5.64167 7.57544 6.29921 7.57544H9.07029C9.72783 7.57544 10.2601 8.14016 10.2601 8.83775V11.7859C10.268 12.4835 9.72783 13.0482 9.07029 13.0482ZM6.29921 8.2149C5.97044 8.2149 5.70429 8.49726 5.70429 8.84605V11.7859C5.70429 12.1347 5.97044 12.417 6.29921 12.417H9.07029C9.39906 12.417 9.66521 12.1347 9.66521 11.7859V8.83775C9.66521 8.48895 9.39906 8.20659 9.07029 8.20659H6.29921V8.2149Z" fill="white"/>
<path d="M7.52128 17.5552C6.90075 17.5552 6.39453 17.1213 6.39453 16.5894C6.39453 16.0575 6.90075 15.6236 7.52128 15.6236C8.1418 15.6236 8.64802 16.0575 8.64802 16.5894C8.64802 17.1213 8.1418 17.5552 7.52128 17.5552ZM7.52128 16.1625C7.24367 16.1625 7.01506 16.3584 7.01506 16.5964C7.01506 16.8343 7.24367 17.0303 7.52128 17.0303C7.79888 17.0303 8.0275 16.8343 8.0275 16.5964C8.0275 16.3584 7.79888 16.1625 7.52128 16.1625V16.1625Z" fill="white"/>
<path d="M9.07029 19.1648H6.29921C5.64167 19.1648 5.10938 18.6325 5.10938 17.975V15.2038C5.10938 14.5463 5.64167 14.014 6.29921 14.014H9.07029C9.72783 14.014 10.2601 14.5463 10.2601 15.2038V17.975C10.268 18.6247 9.72783 19.1648 9.07029 19.1648ZM6.29921 14.6011C5.97044 14.6011 5.70429 14.8672 5.70429 15.196V17.9671C5.70429 18.2959 5.97044 18.5621 6.29921 18.5621H9.07029C9.39906 18.5621 9.66521 18.2959 9.66521 17.9671V15.196C9.66521 14.8672 9.39906 14.6011 9.07029 14.6011H6.29921Z" fill="white"/>
<path d="M7.52128 23.9937C6.90075 23.9937 6.39453 23.4875 6.39453 22.867C6.39453 22.2465 6.90075 21.7402 7.52128 21.7402C8.1418 21.7402 8.64802 22.2465 8.64802 22.867C8.64802 23.4875 8.1418 23.9937 7.52128 23.9937ZM7.52128 22.3608C7.24367 22.3608 7.01506 22.5894 7.01506 22.867C7.01506 23.1446 7.24367 23.3732 7.52128 23.3732C7.79888 23.3732 8.0275 23.1446 8.0275 22.867C8.0275 22.5894 7.79888 22.3608 7.52128 22.3608Z" fill="white"/>
<path d="M9.09478 25.6035H6.23005C5.55029 25.6035 5 25.0532 5 24.3735V21.5087C5 20.829 5.55029 20.2787 6.23005 20.2787H9.09478C9.77454 20.2787 10.3248 20.829 10.3248 21.5087V24.3735C10.3329 25.0532 9.77454 25.6035 9.09478 25.6035ZM6.23005 20.8937C5.89017 20.8937 5.61503 21.1689 5.61503 21.5087V24.3735C5.61503 24.7133 5.89017 24.9885 6.23005 24.9885H9.09478C9.43466 24.9885 9.7098 24.7133 9.7098 24.3735V21.5087C9.7098 21.1689 9.43466 20.8937 9.09478 20.8937H6.23005Z" fill="white"/>
<path d="M11.4414 9.91217H20.3997V10.5353H11.4414V9.91217Z" fill="white"/>
<path d="M11.4414 16.2729H20.3997V16.8961H11.4414V16.2729Z" fill="white"/>
<path d="M11.4414 22.6254H20.3997V23.2485H11.4414V22.6254Z" fill="white"/>
</svg>
