<svg width="16" height="16" viewBox="0 0 16 16" fill="none" xmlns="http://www.w3.org/2000/svg">
<path d="M15.6 0.400015C14.8 -0.399985 13.5 0.300015 12.9 0.900015L9.4 4.70001L7 3.70001L7.6 3.10001C7.8 2.90001 7.8 2.60001 7.6 2.40001C7.5 2.20001 7.2 2.30001 7 2.40001L6.1 3.30001L4.3 2.50001L4.8 2.00001C5 1.80001 5 1.50001 4.8 1.40001C4.6 1.20001 4.3 1.20001 4.1 1.40001L3.3 2.20001L2.8 2.00001C2 1.60001 1.1 1.70001 0.5 2.40001L6.3 8.20001L4 10.6L0.5 10.4L0 11.1L3.1 12.9L4.9 16L5.6 15.5L5.4 12L7.9 9.70001L13.7 15.5C14.3 14.9 14.5 13.9 14.1 13.2L13.9 12.7L14.7 11.9C14.9 11.7 14.9 11.4 14.7 11.2C14.5 11 14.2 11 14 11.2L13.5 11.7L12.7 9.80001L13.6 8.90001C13.8 8.70001 13.8 8.40001 13.6 8.20001C13.4 8.00001 13.1 8.00001 13 8.20001L12.4 8.80001L11.4 6.40001L15.2 3.00001C15.8 2.50001 16.4 1.10001 15.6 0.400015Z" fill="white"/>
</svg>
