<svg width="13.5pt" height="13.5pt" fill-rule="evenodd" overflow="visible" stroke-linejoin="bevel" stroke-width=".501" version="1.1" viewBox="0 0 13.5 13.5" xmlns="http://www.w3.org/2000/svg"><defs><linearGradient id="d" x2="10.798" gradientTransform="translate(11.088 10.941) rotate(-78.9752) skewX(1.35394)" gradientUnits="userSpaceOnUse"><stop stop-color="#ff9664" offset="0"/><stop stop-color="#c64000" offset="1"/></linearGradient><linearGradient id="c" x2="12.941" gradientTransform="translate(7.306 13.012) rotate(-76.4598) skewX(.607584)" gradientUnits="userSpaceOnUse"><stop stop-color="#74b8fa" offset="0"/><stop stop-color="#0883fa" offset="1"/></linearGradient><linearGradient id="b" x2="10.598" gradientTransform="translate(4.41 10.806) rotate(-79.4916) skewX(.475007)" gradientUnits="userSpaceOnUse"><stop stop-color="#ffdb64" offset="0"/><stop stop-color="#c69700" offset="1"/></linearGradient><linearGradient id="a" x2="13.016" gradientTransform="translate(.314 13.11) rotate(-75.8549) skewX(.628447)" gradientUnits="userSpaceOnUse"><stop stop-color="#90fad5" offset="0"/><stop stop-color="#00db8e" offset="1"/></linearGradient></defs><g transform="scale(1 -1)" fill="none" font-family="Times New Roman" font-size="16" stroke="#000"><g transform="translate(0 -13.5)"><g stroke="none" stroke-linecap="round" stroke-linejoin="miter" stroke-miterlimit="79.84031936" stroke-width=".859"><path d="m11.033 0.349-0.025 2.307 2.41-0.026 0.024-2.309c1e-3 -0.117-0.093-0.211-0.216-0.211l-1.975 0.02c-0.116 4e-3 -0.213 0.098-0.218 0.219zm0.581 0.762 1.22-0.012c0.046-3e-3 0.083 0.037 0.083 0.083l-4e-3 0.426c-2e-3 0.048-0.04 0.086-0.086 0.086l-1.221 0.013c-0.045-2e-3 -0.084-0.038-0.083-0.085l5e-3 -0.426c0-0.047 0.039-0.083 0.086-0.085zm-0.609 1.909-4e-3 0.365 2.41-0.022 1e-3 -0.367-2.407 0.024zm-8e-3 0.733-3e-3 0.365 2.407-0.027 3e-3 -0.363-2.407 0.025zm-8e-3 0.732-0.067 6.507c2e-3 0.121 0.099 0.215 0.217 0.216l1.974-0.023c0.119-2e-3 0.218-0.097 0.218-0.218l0.067-6.508-2.409 0.026zm1.175 1.34c0.378-0.025 0.702 0.258 0.72 0.631 0.02 0.372-0.275 0.698-0.651 0.725-0.379 0.026-0.706-0.257-0.722-0.631-0.017-0.372 0.275-0.697 0.653-0.725zm-0.074 2.856c0.378-0.027 0.702 0.257 0.721 0.629 0.019 0.374-0.275 0.701-0.653 0.727-0.377 0.025-0.701-0.258-0.722-0.63-0.017-0.373 0.277-0.699 0.654-0.726z" fill="url(#d)"/><path d="m7.003 0.43v2.134h3.819v-2.134c0-0.163-0.133-0.292-0.296-0.292h-3.226c-0.163 0-0.297 0.13-0.297 0.292zm2.817 0.646v0.425c0 0.046-0.038 0.084-0.085 0.084h-1.599c-0.048 0-0.085-0.038-0.085-0.084v-0.425c0-0.045 0.037-0.083 0.085-0.083h1.599c0.047 0 0.085 0.038 0.085 0.083zm-2.817 1.852v7.641h3.819v-7.641h-3.819zm1.968 1.241c0.532 0.117 0.931 1.395 0.891 2.851-0.042 1.456-0.512 2.542-1.046 2.428-0.535-0.117-0.934-1.395-0.892-2.851 0.04-1.456 0.512-2.543 1.047-2.428zm-1.968 6.764v2.196c0 0.158 0.134 0.289 0.297 0.289h3.226c0.162 0 0.296-0.131 0.296-0.289v-2.196h-3.819z" fill="url(#c)"/><path d="m4.222 0.35v10.583c0 0.117 0.097 0.211 0.219 0.211h1.985c0.12 0 0.218-0.094 0.218-0.211v-10.583c0-0.118-0.098-0.212-0.218-0.212h-1.985c-0.122 0-0.219 0.094-0.219 0.212zm1.741 0.672v0.274c0 0.045-0.038 0.082-0.085 0.082h-0.908c-0.047 0-0.085-0.037-0.085-0.082v-0.274c0-0.045 0.038-0.083 0.085-0.083h0.908c0.047 0 0.085 0.038 0.085 0.083zm-0.355 1.93v6.889c0 0.106-0.087 0.193-0.19 0.193h-2e-3c-0.102 0-0.188-0.087-0.188-0.193v-6.889c0-0.106 0.086-0.193 0.188-0.193h2e-3c0.103 0 0.19 0.087 0.19 0.193z" fill="url(#b)"/><path d="m0.162 0.415v9.411h3.819v-9.411c0-0.162-0.134-0.292-0.298-0.292h-3.221c-0.168 0-0.3 0.129-0.3 0.292zm2.816 0.993v0.425c0 0.045-0.038 0.083-0.084 0.083h-1.6c-0.047 0-0.085-0.038-0.085-0.083v-0.425c0-0.045 0.038-0.084 0.085-0.084h1.6c0.046 0 0.084 0.039 0.084 0.084zm0.548 6.311v1.073c0 0.202-0.17 0.367-0.376 0.367h-2.307c-0.209 0-0.376-0.165-0.376-0.367v-1.073c0-0.202 0.167-0.368 0.376-0.368h2.307c0.206 0 0.376 0.166 0.376 0.368zm-2.683-0.052-0.054 0.052v1.073l0.054 0.052h2.307l0.053-0.052v-1.073l-0.053-0.052h-2.307zm-0.681 2.523v1.092h3.819v-1.092h-3.819zm0 1.456v1.468c0 0.158 0.134 0.289 0.3 0.289h3.221c0.164 0 0.298-0.132 0.298-0.289v-1.468h-3.819z" fill="url(#a)"/></g></g></g></svg>
