<svg id="Layer_1" data-name="Layer 1" xmlns="http://www.w3.org/2000/svg" xmlns:xlink="http://www.w3.org/1999/xlink" viewBox="0 0 800 800"><defs><style>.cls-1{fill:url(#linear-gradient);}.cls-2{opacity:0.07;}.cls-3{fill:#fff;}.cls-4{fill:#bed3d2;}.cls-5{fill:#01949a;}</style><linearGradient id="linear-gradient" x1="398.35" y1="5.6" x2="402.31" y2="807.6" gradientTransform="matrix(1, 0, 0, -1, -0.3, 800)" gradientUnits="userSpaceOnUse"><stop offset="0" stop-color="#01949a"/><stop offset="0.52" stop-color="#01b0a3"/><stop offset="1" stop-color="#00cdac"/></linearGradient></defs><title>CF7</title><g id="CF7"><rect id="bg" class="cls-1" width="800" height="800"/><g id="shadow" class="cls-2"><path d="M576.85,271.16h-84a3.48,3.48,0,0,1-3.48-3.48v-84a3.48,3.48,0,0,0-3.49-3.48h-217a28.5,28.5,0,0,0-28.5,28.5l.25,82.81-.25,310.85a22.48,22.48,0,0,0,22.47,22.47h285.5a32,32,0,0,0,32-32V274.65A3.49,3.49,0,0,0,576.85,271.16Z" transform="translate(-0.3)"/><path d="M497.18,185.61V261a2.23,2.23,0,0,0,2.23,2.23H575a2.23,2.23,0,0,0,1.57-3.81L501,184A2.23,2.23,0,0,0,497.18,185.61Z" transform="translate(-0.3)"/></g><path class="cls-3" d="M581.82,265.16H522.57a26.85,26.85,0,0,1-26.85-26.85V178.74a4.5,4.5,0,0,0-4.5-4.51h-216a28.52,28.52,0,0,0-28.51,28.51l.26,82.81-.26,310.85a22.5,22.5,0,0,0,22.48,22.47H562.55a24.11,24.11,0,0,0,24.1-24.11V270A4.84,4.84,0,0,0,581.82,265.16Z" transform="translate(-0.3)"/><rect class="cls-4" x="293.3" y="326.91" width="256.96" height="27.85" rx="5.52"/><rect class="cls-4" x="293.3" y="380.45" width="256.96" height="27.85" rx="5.52"/><rect class="cls-4" x="291.15" y="433.99" width="259.11" height="91.89" rx="5.52"/><rect class="cls-5" x="465.34" y="551.56" width="84.92" height="32.44" rx="5.52"/><path class="cls-3" d="M508,184v47.22c0,12.41,9.61,22.47,21.46,22.47H574.7a3.13,3.13,0,0,0,2.1-5.32l-63.71-66.57A3,3,0,0,0,508,184Z" transform="translate(-0.3)"/><path class="cls-5" d="M338.33,294.53c-2.15.88-6.7,1.64-12.32,1.64-22.72,0-31.93-17.23-31.93-36.44,0-27.32,17.34-38.85,34.2-38.85,5.86,0,9.81,1.1,11.36,2l-2.87,14.27a16.31,16.31,0,0,0-6.93-1.43c-9.09,0-16.15,6.8-16.15,23.27,0,15.47,6.58,22.17,15.91,22.17a36.25,36.25,0,0,0,7.17-.88Z" transform="translate(-0.3)"/><path class="cls-5" d="M346.58,221.54h36.95v14.71H365.12v16h17.34v14H365.12v29.2H346.58Z" transform="translate(-0.3)"/><path class="cls-5" d="M438.3,224.17v11.31l-24.15,60H396.21l23.44-56.2v-.22H393.82V224.17Z" transform="translate(-0.3)"/></g></svg>