<?xml version="1.0" encoding="utf-8"?>
<!-- Generator: Adobe Illustrator 24.1.2, SVG Export Plug-In . SVG Version: 6.00 Build 0)  -->
<svg version="1.1" id="Layer_1" xmlns="http://www.w3.org/2000/svg" xmlns:xlink="http://www.w3.org/1999/xlink" x="0px" y="0px"
	 viewBox="0 0 1000 220" style="enable-background:new 0 0 1000 220;" xml:space="preserve">
<style type="text/css">
	.st0{fill:url(#SVGID_1_);}
	.st1{fill:url(#SVGID_2_);}
	.st2{fill:url(#SVGID_3_);}
	.st3{fill:url(#SVGID_4_);}
	.st4{fill:url(#SVGID_5_);}
	.st5{fill:url(#SVGID_6_);}
</style>
<g>
	<linearGradient id="SVGID_1_" gradientUnits="userSpaceOnUse" x1="5.9315" y1="109.863" x2="993.6635" y2="109.863">
		<stop  offset="0" style="stop-color:#4581C2"/>
		<stop  offset="1" style="stop-color:#42B17F"/>
	</linearGradient>
	<path class="st0" d="M8,11.3h36.6l22,117L49,208.4L8,11.3z M153,208.4L124.8,73.3L98.1,208.4H62.3l40-195.6h43.6L170,130.4
		l-16.6,78H153z M210.7,11.3h35.2l-42.2,197h-36.5L210.7,11.3z"/>
	<linearGradient id="SVGID_2_" gradientUnits="userSpaceOnUse" x1="5.9315" y1="109.863" x2="993.6635" y2="109.863">
		<stop  offset="0" style="stop-color:#4581C2"/>
		<stop  offset="1" style="stop-color:#42B17F"/>
	</linearGradient>
	<path class="st1" d="M299.8,11.3v197h-35.2v-197H299.8z M314.2,11.3h27.9c32.8,0,49.3,14.1,49.3,42.2v36.6
		c0,26.3-16.4,40.3-49.3,42.2h-27.9v-31H335c14.1,0,21.1-4.7,21.1-14.1v-31c0-9.4-7-14.1-21.1-14.1h-20.8V11.3z"/>
	<linearGradient id="SVGID_3_" gradientUnits="userSpaceOnUse" x1="5.9315" y1="109.863" x2="993.6635" y2="109.863">
		<stop  offset="0" style="stop-color:#4581C2"/>
		<stop  offset="1" style="stop-color:#42B17F"/>
	</linearGradient>
	<path class="st2" d="M524.3,208.4c-32.8,0-49.3-14.1-49.3-42.2V11.3h35.2v152c0,9.4,7.1,14.1,21.4,14.1l-0.1,31H524.3z
		 M545.3,177.4c14.2-0.3,21.3-5,21.3-14.1v-152h35.2v154.8c0,28.1-16.4,42.2-49.3,42.2h-7.2V177.4z"/>
	<linearGradient id="SVGID_4_" gradientUnits="userSpaceOnUse" x1="5.9315" y1="109.863" x2="993.6635" y2="109.863">
		<stop  offset="0" style="stop-color:#4581C2"/>
		<stop  offset="1" style="stop-color:#42B17F"/>
	</linearGradient>
	<path class="st3" d="M633.8,11.3h36.6l97.1,197h-38L633.8,11.3z M669,207l-35.2,1.4V36.7l35.2,69.1V207z M732.3,12.8l35.2-1.4v171
		l-35.2-68.3V12.8z"/>
	<linearGradient id="SVGID_5_" gradientUnits="userSpaceOnUse" x1="5.9315" y1="109.863" x2="993.6635" y2="109.863">
		<stop  offset="0" style="stop-color:#4581C2"/>
		<stop  offset="1" style="stop-color:#42B17F"/>
	</linearGradient>
	<path class="st4" d="M834.7,11.3v197h-35.2v-197H834.7z"/>
	<linearGradient id="SVGID_6_" gradientUnits="userSpaceOnUse" x1="5.9315" y1="109.863" x2="993.6635" y2="109.863">
		<stop  offset="0" style="stop-color:#4581C2"/>
		<stop  offset="1" style="stop-color:#42B17F"/>
	</linearGradient>
	<path class="st5" d="M866.7,42.3l1.4-31h122.4l1.4,31H866.7z M949.8,55.7v152.7h-35.2V55.7H949.8z"/>
</g>
</svg>
