<svg width="30" height="30" viewBox="0 0 30 30" fill="none" xmlns="http://www.w3.org/2000/svg">
<path d="M19.1577 23.0148H10.7909V22.1289C11.3572 22.1289 11.7732 21.9678 12.0737 21.6572C12.6515 21.0359 12.5706 19.9889 12.559 19.9774V19.9429V11.9581H9.87799C9.01128 11.9581 8.46813 12.3838 8.15611 12.7404C7.98277 12.9475 7.70542 13.0166 7.45118 12.913C7.19694 12.8095 7.03516 12.5794 7.03516 12.3032V7.2063H22.925V12.3032C22.925 12.5679 22.7632 12.8095 22.509 12.9015C22.2547 12.9936 21.9774 12.9245 21.804 12.7289C21.492 12.3723 20.9489 11.9466 20.0822 11.9466H17.4011V19.9659C17.4011 19.9774 17.3202 21.0244 17.8865 21.6457C18.1869 21.9678 18.603 22.1174 19.1692 22.1174V23.0148H19.1577ZM12.8364 22.1289H17.1238C16.4419 21.2775 16.4882 20.1039 16.5113 19.9199V11.0721H20.0822C20.9489 11.0721 21.596 11.3828 22.0467 11.7395V8.09222H7.92499V11.7395C8.37568 11.3828 9.01128 11.0721 9.88955 11.0721H13.4604V19.9199C13.4604 20.1039 13.5182 21.2775 12.8364 22.1289V22.1289Z" fill="white"/>
<path d="M4.59476 6.17552C3.71649 6.17552 3 5.46217 3 4.58776C3 3.71334 3.71649 3 4.59476 3C5.47304 3 6.18953 3.71334 6.18953 4.58776C6.18953 5.46217 5.47304 6.17552 4.59476 6.17552ZM4.59476 3.88592C4.20185 3.88592 3.87828 4.20808 3.87828 4.59926C3.87828 4.99045 4.20185 5.3126 4.59476 5.3126C4.98768 5.3126 5.31125 4.99045 5.31125 4.59926C5.31125 4.20808 4.98768 3.88592 4.59476 3.88592Z" fill="white"/>
<path d="M7.47367 26.2148C6.59539 26.2148 5.87891 25.5015 5.87891 24.6271C5.87891 23.7526 6.59539 23.0393 7.47367 23.0393C8.35195 23.0393 9.06844 23.7526 9.06844 24.6271C9.06844 25.5015 8.35195 26.2148 7.47367 26.2148V26.2148ZM7.47367 23.9137C7.08076 23.9137 6.75718 24.2359 6.75718 24.6271C6.75718 25.0183 7.08076 25.3404 7.47367 25.3404C7.86658 25.3404 8.19016 25.0183 8.19016 24.6271C8.19016 24.2359 7.86658 23.9137 7.47367 23.9137V23.9137Z" fill="white"/>
<path d="M24.5869 26.2148C23.7087 26.2148 22.9922 25.5015 22.9922 24.6271C22.9922 23.7526 23.7087 23.0393 24.5869 23.0393C25.4652 23.0393 26.1817 23.7526 26.1817 24.6271C26.1933 25.5015 25.4768 26.2148 24.5869 26.2148ZM24.5869 23.9137C24.194 23.9137 23.8705 24.2359 23.8705 24.6271C23.8705 25.0183 24.194 25.3404 24.5869 25.3404C24.9799 25.3404 25.3034 25.0183 25.3034 24.6271C25.3034 24.2359 24.9799 23.9137 24.5869 23.9137Z" fill="white"/>
</svg>
