<svg xmlns="http://www.w3.org/2000/svg" viewBox="0 0 97 31.91"><title>breadcrumbs</title><g id="Layer_2" data-name="Layer 2"><g id="Layer_1-2" data-name="Layer 1"><path d="M94.5,0H2.5A2.5,2.5,0,0,0,0,2.5V29.41a2.5,2.5,0,0,0,2.5,2.5h92a2.5,2.5,0,0,0,2.5-2.5V2.5A2.5,2.5,0,0,0,94.5,0ZM74,17.75a2.71,2.71,0,0,0,0-3.63L63.35,3H94V28.91H63.35Zm-36,0a2.71,2.71,0,0,0,0-3.63L27.32,3H59.2L71.57,16l-12.37,13H27.32ZM35.54,16l-12.36,13H3V3H23.18Z"/><circle cx="12.47" cy="15.96" r="2.5"/><circle cx="52.19" cy="15.96" r="2.5"/><circle cx="84.53" cy="15.96" r="2.5"/></g></g></svg>