<svg width="100" height="100" viewBox="0 0 100 100" fill="none" xmlns="http://www.w3.org/2000/svg">
<path d="M42.6553 66.3842V66.9492L35.3107 69.209C33.3333 69.774 30.7909 76.2712 28.8135 85.8757C35.0282 89.548 42.6554 91.8079 50 91.8079C50.8474 91.8079 51.9774 91.8079 52.8248 91.8079C59.322 91.2429 65.8192 89.548 71.1864 86.1582C69.209 76.5537 66.9491 70.0565 64.6892 69.4915L57.0621 66.9492V66.3842C57.0621 66.1017 56.7796 65.8192 56.2147 65.5367L55.3672 64.9718L55.9322 64.4068C56.4972 63.8418 57.0621 62.9944 57.3446 62.7119C58.1921 61.5819 59.0395 60.1695 59.322 58.7571C59.6045 58.1921 59.887 57.6271 59.887 57.0622V56.7797H60.1695C60.7344 56.2147 61.0169 55.6497 61.0169 55.0848V52.8249C61.0169 52.2599 61.0169 51.9774 60.452 51.4124V47.7401C60.452 42.6554 56.2147 38.7006 51.4124 38.7006H48.3051C43.2203 38.7006 39.2655 42.9379 39.2655 47.7401V51.4124C38.983 51.6949 38.7006 52.2599 38.7006 52.8249V55.0848C38.7006 55.6497 38.983 56.4972 39.548 56.7797H39.8305V57.0622C39.8305 57.6271 40.113 58.1921 40.3955 58.7571C40.9604 60.1695 41.5254 61.2994 42.3729 62.7119C42.9378 63.2768 43.2203 63.8418 43.7853 64.4068L44.3503 64.9718L43.5028 65.5367C43.2203 65.8192 42.9378 66.1017 42.6553 66.3842Z" fill="#B5E3D1"/>
<path d="M24.8587 83.3334C25.1412 82.2035 25.4237 80.791 25.7062 79.6611C28.5311 68.0792 31.3559 65.8193 33.8983 65.2543L38.1356 64.1244C37.5706 62.9944 36.7232 61.8645 36.4407 60.452C36.4407 60.1696 36.1582 59.6046 35.8757 59.3221L31.3559 57.9097V57.3447C31.3559 57.0622 31.0735 56.7797 30.5085 56.4972L29.661 55.9323L30.226 55.3673C30.791 54.8023 31.0735 54.2374 31.6384 53.6724C32.4859 52.5424 33.3333 51.13 33.6158 50.0001C33.8983 49.4351 34.1808 48.8701 34.1808 48.3052V48.0227H34.4633C35.0283 47.4577 35.3107 46.8927 35.3107 46.3278V44.0679C35.3107 43.5029 35.3107 43.2204 34.7458 42.6554V38.9831C34.7458 33.8984 30.5085 29.9436 25.7062 29.9436H22.3164C17.2316 29.9436 13.2768 34.1809 13.2768 38.9831V42.6554C12.9943 42.9379 12.7118 43.5029 12.7118 44.0679V46.3278C12.7118 46.8927 12.9943 47.7402 13.5593 48.0227H13.8418V48.3052C13.8418 48.8701 14.1243 49.4351 14.4068 50.0001C14.9717 51.4125 15.5367 52.5424 16.3842 53.9549C16.9491 54.5198 17.2316 55.0848 17.7966 55.6498L18.6441 55.9323L17.7966 56.4972C17.2316 56.7797 17.2316 57.0622 16.9491 57.3447V57.9097L9.6045 60.1696C11.5819 69.2091 17.2316 77.6837 24.8587 83.3334Z" fill="#B5E3D1"/>
<path d="M77.1186 29.3785H74.0113C68.9266 29.3785 64.9718 33.6157 64.9718 38.418V42.0903C64.6893 42.6553 64.6893 42.9378 64.6893 43.5027V45.7626C64.6893 46.3276 64.9718 47.1751 65.5367 47.4575H65.8192V47.74C66.1017 48.305 66.1017 48.87 66.3842 49.4349C66.9492 50.8474 67.5141 51.9773 68.3616 53.3897C68.6441 53.9547 69.209 54.5197 69.774 55.0847L70.339 55.6496L69.4915 56.2146C68.9266 56.4971 68.9266 56.7796 68.6441 57.0621V57.627L64.1243 59.0395C64.1243 59.6044 63.8418 59.8869 63.5593 60.1694C62.9944 61.2993 62.4294 62.4293 61.8644 63.8417L66.1017 64.9717C68.6441 65.5366 71.4689 68.079 74.2938 79.3784C74.5763 80.7909 74.8588 81.9208 75.1412 83.3332C77.4011 81.6383 79.661 79.6609 81.6384 77.401C85.8757 72.3163 89.2655 66.3841 90.678 59.8869L83.3333 57.627V57.0621C83.3333 56.7796 83.0508 56.4971 82.4859 56.2146L81.0734 55.9321L81.6384 55.3671C82.2034 54.8022 82.4859 54.2372 83.0508 53.6722C83.8983 52.5423 84.7458 51.1299 85.0282 49.9999C85.3107 49.4349 85.5932 48.87 85.5932 48.305V48.0225H85.8757C86.4407 47.4575 86.7232 46.8926 86.7232 46.3276V44.0677C86.7232 43.5027 86.7232 43.2203 86.1582 42.6553V38.983C86.1582 33.6157 82.2034 29.3785 77.1186 29.3785Z" fill="#B5E3D1"/>
<path d="M50 100C22.3164 100 0 77.4011 0 50C0 22.3164 22.3164 0 50 0C77.6836 0 100 22.5989 100 50C99.7175 77.6836 77.4011 100 50 100ZM50 5.08475C25.4237 5.08475 5.36723 25.4237 5.36723 50C5.36723 74.5763 25.4237 94.6328 50 94.6328C74.5763 94.6328 94.6328 74.5763 94.6328 50C94.6328 25.4237 74.5763 5.08475 50 5.08475Z" fill="#B5E3D1"/>
</svg>
