<svg width="163" height="42" viewBox="0 0 163 42" fill="none" xmlns="http://www.w3.org/2000/svg">
<g clip-path="url(#clip0_949_1870)">
<path d="M17.6167 27.4167V27.65L14.5833 28.5833C13.7667 28.8167 12.7167 31.5 11.9 35.4667C14.4667 36.9833 17.6167 37.9167 20.65 37.9167C21 37.9167 21.4667 37.9167 21.8167 37.9167C24.5 37.6833 27.1833 36.9833 29.4 35.5833C28.5833 31.6167 27.65 28.9333 26.7167 28.7L23.5667 27.65V27.4167C23.5667 27.3 23.45 27.1833 23.2167 27.0667L22.8667 26.8333L23.1 26.6C23.3333 26.3667 23.5667 26.0167 23.6833 25.9C24.0333 25.4333 24.3833 24.85 24.5 24.2667C24.6167 24.0333 24.7333 23.8 24.7333 23.5667V23.45H24.85C25.0833 23.2167 25.2 22.9833 25.2 22.75V21.8167C25.2 21.5833 25.2 21.4667 24.9667 21.2333V21.1167V19.7167C24.9667 17.6167 23.2167 15.9833 21.2333 15.9833H19.95C17.85 15.9833 16.2167 17.7333 16.2167 19.7167V21.1167V21.2333C16.1 21.35 15.9833 21.5833 15.9833 21.8167V22.75C15.9833 22.9833 16.1 23.3333 16.3333 23.45H16.45V23.5667C16.45 23.8 16.5667 24.0333 16.6833 24.2667C16.9167 24.85 17.15 25.3167 17.5 25.9C17.7333 26.1333 17.85 26.3667 18.0833 26.6L18.3167 26.8333L17.9667 27.0667C17.85 27.1833 17.7333 27.3 17.6167 27.4167Z" fill="#2B5F47"/>
<path d="M10.2667 34.4167C10.3833 33.95 10.5 33.3667 10.6167 32.9C11.7833 28.1167 12.95 27.1833 14 26.95L15.75 26.4833C15.5167 26.0167 15.1667 25.55 15.05 24.9667C15.05 24.85 14.9333 24.6167 14.8167 24.5L12.95 23.9167V23.6833C12.95 23.5667 12.8333 23.45 12.6 23.3333L12.25 23.1L12.4833 22.8667C12.7167 22.6333 12.8333 22.4 13.0667 22.1667C13.4167 21.7 13.7667 21.1167 13.8833 20.65C14 20.4167 14.1167 20.1833 14.1167 19.95V19.8333H14.2333C14.4667 19.6 14.5833 19.3667 14.5833 19.1333V18.2C14.5833 17.9667 14.5833 17.85 14.35 17.6167V17.5V16.1C14.35 14 12.6 12.3667 10.6167 12.3667H9.21666C7.11666 12.3667 5.48332 14.1167 5.48332 16.1V17.5V17.6167C5.36666 17.7333 5.24999 17.9667 5.24999 18.2V19.1333C5.24999 19.3667 5.36666 19.7167 5.59999 19.8333H5.71666V19.95C5.71666 20.1833 5.83332 20.4167 5.94999 20.65C6.18332 21.2333 6.41666 21.7 6.76666 22.2833C6.99999 22.5167 7.11666 22.75 7.34999 22.9833L7.69999 23.1L7.34999 23.3333C7.11666 23.45 7.11666 23.5667 6.99999 23.6833V23.9167L3.96666 24.85C4.78332 28.5833 7.11666 32.0833 10.2667 34.4167Z" fill="#2B5F47"/>
<path d="M31.85 12.1333H30.5667C28.4667 12.1333 26.8333 13.8833 26.8333 15.8667V17.2667V17.3833C26.7167 17.6167 26.7167 17.7333 26.7167 17.9667V18.9C26.7167 19.1333 26.8333 19.4833 27.0667 19.6H27.1833V19.7167C27.3 19.95 27.3 20.1833 27.4167 20.4167C27.65 21 27.8833 21.4667 28.2333 22.05C28.35 22.2833 28.5833 22.5167 28.8167 22.75L29.05 22.9833L28.7 23.2167C28.4667 23.3333 28.4667 23.45 28.35 23.5667V23.8L26.4833 24.3833C26.4833 24.6167 26.3667 24.7333 26.25 24.85C26.0167 25.3167 25.7833 25.7833 25.55 26.3667L27.3 26.8333C28.35 27.0667 29.5167 28.1167 30.6833 32.7833C30.8 33.3667 30.9167 33.8333 31.0333 34.4167C31.9667 33.7167 32.9 32.9 33.7167 31.9667C35.4667 29.8667 36.8667 27.4167 37.45 24.7333L34.4167 23.8V23.5667C34.4167 23.45 34.3 23.3333 34.0667 23.2167L33.4833 23.1L33.7167 22.8667C33.95 22.6333 34.0667 22.4 34.3 22.1667C34.65 21.7 35 21.1167 35.1167 20.65C35.2333 20.4167 35.35 20.1833 35.35 19.95V19.8333H35.4667C35.7 19.6 35.8167 19.3667 35.8167 19.1333V18.2C35.8167 17.9667 35.8167 17.85 35.5833 17.6167V17.5V16.1C35.5833 13.8833 33.95 12.1333 31.85 12.1333Z" fill="#2B5F47"/>
<path d="M20.65 41.3C9.21667 41.3 0 31.9667 0 20.65C0 9.21667 9.21667 0 20.65 0C32.0833 0 41.3 9.33333 41.3 20.65C41.1833 32.0833 31.9667 41.3 20.65 41.3ZM20.65 2.1C10.5 2.1 2.21667 10.5 2.21667 20.65C2.21667 30.8 10.5 39.0833 20.65 39.0833C30.8 39.0833 39.0833 30.8 39.0833 20.65C39.0833 10.5 30.8 2.1 20.65 2.1Z" fill="#2B5F47"/>
<path d="M63.8167 25.6667L66.5 8.63329H70L73.2667 25.6667L76.0667 8.63329H78.1667L74.3167 29.2833H70.2333L67.4333 15.1667L64.6333 29.2833H60.6667L56.7 10.3833C55.65 10.7333 54.95 11.4333 54.4833 12.25C54.0167 13.0667 53.6667 14.1167 53.6667 15.2833C53.6667 15.8667 53.6667 16.3333 53.7833 16.6833C53.9 17.0333 54.0167 17.3833 54.1333 17.6167C54.25 17.85 54.3667 18.0833 54.4833 18.2C54.6 18.3167 54.6 18.4333 54.7167 18.55C53.6667 18.55 52.7333 18.3167 52.0333 17.7333C51.3333 17.2667 51.1 16.45 51.1 15.2833C51.1 14.35 51.3333 13.4167 51.8 12.6C52.2667 11.7833 52.85 11.0833 53.6667 10.5C54.4833 9.91662 55.3 9.44995 56.35 9.09995C57.2833 8.74995 58.3333 8.63329 59.3833 8.63329C59.6167 8.63329 59.7333 8.63329 59.9667 8.63329C60.2 8.63329 60.3167 8.63329 60.55 8.63329L63.8167 25.6667Z" fill="#222222"/>
<path d="M88.4333 11.0833V20.4167C89.0167 20.4167 89.4833 20.1833 89.95 19.7167C90.4167 19.3667 90.7667 18.9 91 18.3167C91.35 17.7333 91.5833 17.15 91.7 16.45C91.8167 15.75 91.9333 15.05 91.9333 14.35C91.9333 13.8833 91.9333 13.4167 91.8167 12.95C91.7 12.3667 91.4667 11.9 91.2333 11.4333C90.8833 10.9667 90.4167 10.6167 89.8333 10.2667C89.25 9.91667 88.4333 9.8 87.3833 9.8C86.5667 9.8 85.75 9.91667 85.1667 10.15C84.4667 10.3833 83.8833 10.7333 83.4167 11.2C82.95 11.6667 82.4833 12.25 82.25 12.95C82.0167 13.65 81.7833 14.4667 81.7833 15.5167C81.7833 15.9833 81.7833 16.45 81.9 16.8C82.0167 17.15 82.0167 17.3833 82.1333 17.6167C82.25 17.85 82.3667 17.9667 82.4833 18.2C82.6 18.3167 82.7167 18.4333 82.8333 18.6667C81.7833 18.6667 80.85 18.4333 80.15 17.85C79.45 17.3833 79.2167 16.5667 79.2167 15.4C79.2167 14.4667 79.45 13.5333 79.9167 12.7167C80.3833 11.9 80.9667 11.2 81.7833 10.6167C82.6 10.0333 83.5333 9.56667 84.4667 9.21667C85.5167 8.86667 86.5667 8.75 87.7333 8.75C88.9 8.75 89.8333 8.86667 90.7667 9.21667C91.7 9.56667 92.5167 9.91667 93.1 10.5C93.8 11.0833 94.2667 11.6667 94.6167 12.4833C94.9667 13.3 95.2 14.1167 95.2 15.05C95.2 15.8667 95.0833 16.5667 94.7333 17.3833C94.5 18.2 94.0333 18.9 93.45 19.4833C92.8667 20.0667 92.1667 20.65 91.35 21C90.5333 21.35 89.6 21.5833 88.4333 21.5833H88.3167V29.5167H84.35V11.6667L88.4333 11.0833Z" fill="#222222"/>
<path d="M117.25 12.1333C116.667 12.1333 115.967 12.0167 115.267 11.9C114.567 11.7833 113.75 11.6667 112.933 11.4333V29.2833H108.967V10.9667H108.733C107.917 10.9667 107.217 11.0833 106.633 11.2C106.05 11.4333 105.583 11.6667 105.35 12.0167C105 12.3667 104.767 12.8333 104.65 13.4167C104.533 14 104.417 14.5833 104.417 15.1667C104.417 15.75 104.417 16.2167 104.533 16.6833C104.65 17.0333 104.767 17.3833 104.767 17.6167C104.883 17.85 105 17.9667 105.117 18.2C105.233 18.3167 105.35 18.4333 105.35 18.55C104.183 18.55 103.25 18.3167 102.667 17.7333C102.083 17.0333 101.733 16.1 101.733 14.7C101.733 13.8833 101.85 13.0667 102.2 12.25C102.55 11.4333 103.017 10.85 103.6 10.2667C104.3 9.68332 105.117 9.33332 106.167 8.98332C107.217 8.63332 108.5 8.51665 110.017 8.51665C110.717 8.51665 111.417 8.51665 112 8.63332C112.583 8.74999 113.167 8.74999 113.633 8.86665C114.217 8.98332 114.683 8.98332 115.15 9.09999C115.617 9.21666 116.2 9.21665 116.783 9.21665C117.6 9.21665 118.183 9.09999 118.767 8.98332C119.35 8.86665 119.7 8.74999 120.05 8.63332C120.05 8.98332 120.167 9.33332 120.167 9.56666C120.167 10.3833 119.933 11.0833 119.467 11.4333C119.117 11.9 118.3 12.1333 117.25 12.1333Z" fill="#222222"/>
<path d="M122.967 27.1833C123.55 27.1833 124.017 27.0667 124.483 26.95C124.95 26.8333 125.3 26.6 125.65 26.3667C126 26.1333 126.233 25.7833 126.583 25.4333C126.817 25.0833 127.167 24.7333 127.4 24.3833H128.333C128.1 25.0833 127.75 25.6667 127.4 26.25C127.05 26.8333 126.583 27.4167 126.117 27.8833C125.533 28.35 124.95 28.7 124.25 29.05C123.55 29.4 122.733 29.5167 121.8 29.5167C120.983 29.5167 120.283 29.4 119.583 29.1667C118.883 28.9333 118.3 28.5833 117.833 28C117.367 27.5333 117.017 26.8333 116.667 26.0167C116.433 25.2 116.317 24.2667 116.317 23.1C116.317 22.2833 116.433 21.4667 116.55 20.5333C116.783 19.6 117.017 18.7833 117.483 17.9667C117.95 17.15 118.533 16.5667 119.233 15.9833C119.933 15.5167 120.983 15.1667 122.15 15.1667C123.083 15.1667 123.667 15.2833 124.25 15.6333C124.717 15.8667 125.067 16.2167 125.3 16.5667C125.533 16.9167 125.65 17.2667 125.767 17.6167C125.767 17.9667 125.883 18.2 125.883 18.3167C125.883 19.1333 125.767 19.8333 125.417 20.5333C125.067 21.1167 124.717 21.7 124.25 22.1667C123.783 22.6333 123.2 22.9833 122.5 23.2167C121.8 23.45 121.217 23.5667 120.517 23.5667C120.517 24.85 120.75 25.6667 121.1 26.25C121.217 26.95 121.917 27.1833 122.967 27.1833ZM123.433 18.55C123.433 17.85 123.317 17.5 123.083 17.15C122.85 16.9167 122.617 16.8 122.383 16.8C122.033 16.8 121.8 16.9167 121.567 17.2667C121.333 17.6167 121.1 17.9667 120.867 18.4333C120.633 18.9 120.517 19.4833 120.4 20.1833C120.283 20.8833 120.167 21.5833 120.167 22.2833C120.633 22.2833 121.1 22.1667 121.45 21.9333C121.8 21.7 122.15 21.4667 122.5 21.1167C122.85 20.7667 123.083 20.4167 123.2 19.95C123.433 19.6 123.433 19.1333 123.433 18.55Z" fill="#222222"/>
<path d="M138.6 15.4V24.85C138.6 25.6667 138.717 26.1333 138.95 26.3667C139.183 26.6 139.533 26.7167 140.117 26.7167C140.7 26.7167 141.05 26.4833 141.517 26.0167C141.867 25.55 142.1 24.9667 142.1 24.2667H143.267C143.15 25.4333 142.917 26.25 142.45 26.95C141.983 27.65 141.633 28.1167 141.167 28.4667C140.7 28.8167 140.233 29.05 139.767 29.1667C139.3 29.2833 138.833 29.2833 138.483 29.2833C137.55 29.2833 136.733 29.05 136.267 28.5833C135.8 28.1167 135.45 27.5333 135.217 26.7167C135.1 27.0667 134.867 27.3 134.633 27.65C134.4 28 134.167 28.2333 133.933 28.4667C133.7 28.7 133.35 28.9333 132.883 29.05C132.533 29.1667 132.067 29.2833 131.6 29.2833C131.017 29.2833 130.433 29.1667 129.85 28.9333C129.267 28.7 128.8 28.35 128.333 27.8833C127.867 27.4167 127.517 26.7167 127.167 25.9C126.933 25.0833 126.7 24.0333 126.7 22.8667C126.7 22.05 126.817 21.1167 126.933 20.1833C127.167 19.25 127.4 18.4333 127.867 17.7333C128.333 16.9167 128.8 16.3333 129.5 15.8667C130.2 15.4 131.017 15.1667 131.95 15.1667C132.183 15.1667 132.417 15.1667 132.65 15.1667C132.883 15.1667 133.117 15.2833 133.35 15.4C133.583 15.5167 133.817 15.6333 134.05 15.8667C134.283 16.1 134.4 16.3333 134.517 16.6833V15.4H138.6ZM134.633 18.0833C134.633 17.9667 134.633 17.9667 134.517 17.7333C134.517 17.6167 134.4 17.5 134.283 17.3833C134.167 17.2667 134.05 17.15 133.817 17.0333C133.7 16.9167 133.467 16.9167 133.233 16.9167C132.767 16.9167 132.417 17.15 132.067 17.5C131.717 17.85 131.483 18.3167 131.25 18.9C131.017 19.4833 130.9 20.0667 130.783 20.7667C130.667 21.4667 130.667 22.05 130.667 22.75C130.667 23.6833 130.783 24.5 130.9 25.0833C131.017 25.6667 131.25 26.0167 131.483 26.25C131.717 26.4833 131.95 26.6 132.183 26.7167C132.417 26.7167 132.65 26.8333 132.767 26.8333C133 26.8333 133.233 26.8333 133.35 26.7167C133.583 26.6 133.7 26.4833 133.933 26.25C134.167 26.0167 134.283 25.7833 134.4 25.4333C134.517 25.0833 134.517 24.7333 134.517 24.3833L134.633 18.0833Z" fill="#222222"/>
<path d="M155.75 20.8833C155.75 19.7167 155.633 19.0167 155.4 18.55C155.167 18.0833 154.817 17.85 154.35 17.85C153.767 17.85 153.417 18.0833 153.183 18.6667C152.95 19.1333 152.833 19.7167 152.717 20.4167V29.2833H148.75V19.7167C148.75 19.4833 148.75 19.25 148.75 19.1333C148.75 19.0167 148.633 18.6667 148.517 18.55C148.4 18.3167 148.283 18.2 148.167 18.0833C148.05 17.9667 147.817 17.85 147.583 17.85C147.117 17.85 146.65 18.0833 146.417 18.55C146.183 19.0167 145.95 19.7167 145.95 20.4167V29.2833H141.983V15.4H145.95V16.8C146.417 16.1 146.883 15.6333 147.467 15.5167C148.05 15.2833 148.517 15.2833 148.867 15.2833C149.567 15.2833 150.267 15.5167 150.85 15.8667C151.433 16.2167 151.9 16.8 152.25 17.6167C152.483 17.15 152.717 16.6833 152.95 16.45C153.183 16.1 153.533 15.8667 153.883 15.75C154.233 15.6333 154.467 15.5167 154.817 15.4C155.167 15.4 155.4 15.2833 155.75 15.2833C156.217 15.2833 156.8 15.4 157.267 15.5167C157.733 15.6333 158.2 15.9833 158.55 16.3333C158.9 16.6833 159.25 17.2667 159.367 17.9667C159.483 18.6667 159.717 19.4833 159.717 20.4167C159.717 20.65 159.717 21 159.717 21.35C159.717 21.7 159.717 22.05 159.717 22.4C159.717 22.75 159.717 23.1 159.717 23.5667C159.717 23.9167 159.717 24.2667 159.717 24.5C159.717 25.3167 159.833 25.9 160.067 26.25C160.3 26.6 160.65 26.8333 161.35 26.8333C161.7 26.8333 161.933 26.8333 162.167 26.7167C162.167 27.7667 161.933 28.4667 161.583 28.9333C161.117 29.4 160.533 29.6333 159.717 29.6333C159.017 29.6333 158.433 29.5167 158.083 29.2833C157.617 29.05 157.267 28.7 157.033 28.1167C156.8 27.5333 156.567 27.0667 156.45 26.4833C156.333 25.9 156.217 25.2 156.217 24.5C156.217 24.2667 156.217 24.0333 156.217 23.8C156.217 23.45 156.217 23.2167 156.217 22.8667C156.217 22.5167 156.217 22.1667 156.217 21.9333C155.633 21.35 155.75 21.1167 155.75 20.8833Z" fill="#222222"/>
</g>
<defs>
<clipPath id="clip0_949_1870">
<rect width="163" height="42" fill="white"/>
</clipPath>
</defs>
</svg>
