<svg version="1.1" id="Layer_1" xmlns="http://www.w3.org/2000/svg" xmlns:xlink="http://www.w3.org/1999/xlink" x="0" y="0" viewBox="0 0 1200 600" xml:space="preserve"><style>.st2{fill:#fff}.st3{fill:#010203}</style><path fill="#191d48" d="M0 0h1200v600H0z"/><defs><path id="SVGID_3_" d="M209.9 213.2h756v149.4h-756z"/></defs><clipPath id="SVGID_1_"><use xlink:href="#SVGID_3_" overflow="visible"/></clipPath><g clip-path="url(#SVGID_1_)"><path class="st2" d="M284.6 362.7c41.3 0 74.7-33.5 74.7-74.7s-33.5-74.7-74.7-74.7-74.7 33.5-74.7 74.7 33.4 74.7 74.7 74.7z"/><path class="st3" d="M291.7 317.5h-37c-.1 0-.2 0-.3-.1-.1 0-.2-.1-.3-.2-.1-.1-.1-.2-.2-.3v-.3l7.2-37.1c0-.1.1-.3.2-.4.1-.1.2-.2.4-.2h.4c.1 0 .2.1.3.2l29.9 37.1c.1.1.1.2.1.4 0 .1 0 .3-.1.4-.1.1-.1.2-.2.3-.1.2-.2.2-.4.2zM254 261.6h37c.1 0 .2 0 .3.1.1 0 .2.1.3.2.1.1.1.2.2.3v.3l-7.2 37.2c0 .1-.1.3-.2.3-.1.1-.2.2-.3.2h-.4c-.1 0-.2-.1-.3-.2l-29.9-37.2c-.1-.1-.2-.2-.2-.4 0-.1 0-.3.1-.4l.3-.3c0-.1.2-.2.3-.1zM295.5 261.6c-.2 0-.3.1-.5.2-.1.1-.2.2-.3.4-.4 3.1-.1 6.2.8 9.2.9 3 2.4 5.7 4.5 8.1 2 2.4 4.6 4.2 7.4 5.5 2.8 1.3 5.9 2 9 2h.8c.2 0 .3 0 .5-.1.1-.1.2-.3.2-.4l5-24.1v-.3c0-.1-.1-.2-.2-.3-.1-.1-.2-.1-.3-.2-.1 0-.2-.1-.3-.1l-26.6.1z"/><path class="st2" d="M421.9 256.4h26.6c1.2 0 2.1.7 1.8 2.1l-1.5 8.6c5.3-7.6 12.9-12.2 20.6-12.2 3.7 0 7.4 1.3 10.3 3.6 1.2 1.2 1.2 1.9.4 3.2l-7.8 10.9c-1 1.5-1.7 1.3-3.2.6-1.7-.8-3.6-1.2-5.5-1.2-9.3 0-17.1 6.1-20.7 24.5l-5.4 27.8c-.1.6-.4 1.2-.8 1.6-.5.4-1 .6-1.6.7h-14.2c-.3 0-.5-.1-.8-.2-.3-.1-.5-.3-.6-.5-.2-.2-.3-.5-.4-.7-.1-.3-.1-.5 0-.8l10.5-53.5-8.9-12.4c-.6-1.1-.1-2.1 1.2-2.1zM472.9 290.9c3.6-21.8 19.6-36 40.3-36 21.1 0 31.1 16.8 28 35.1-.7 4.7-2.4 8.4-6.2 8.4h-44.9c.4 10.3 7.5 15.1 16.9 15.1 5.9-.1 11.6-2 16.5-5.3 1.1-.8 2.4-1.2 3.2 0l5.1 8c.8 1.2.4 2.1-.8 3.2-6.6 6.1-17.5 8.9-27.3 8.9-22.2.1-34.3-16.3-30.8-37.4zm52.3-4.7c.7-11-6.8-15.5-14-15.5-9.4 0-16.8 6.4-19.5 15.5h33.5zM608.3 324.9l16.1-82-7.9-10.6c-.1-.2-.1-.4-.1-.6 0-.2.1-.4.2-.6s.3-.3.5-.4c.2-.1.4-.1.6-.1h24.7c1.4 0 2.1.8 1.8 2.1l-7.2 36.2c5.6-8.3 13.9-14 23.6-14 15.5 0 24.4 13.3 21.1 29.7l-8 39.8c-.1.6-.4 1.2-.9 1.6-.5.4-1 .6-1.7.7h-14.6c-.3 0-.6 0-.8-.1s-.5-.3-.7-.5c-.2-.2-.3-.5-.3-.8 0-.3 0-.6.1-.8l7.2-35.9c1.9-9.7-.7-15.7-6.6-15.7-11.1 0-19.8 12.5-23.6 30.1l-4.7 22c-.1.4-.3.9-.6 1.2-.3.3-.8.5-1.2.5h-15.4c-.2 0-.4-.1-.6-.2-.2-.1-.3-.2-.5-.4-.1-.2-.2-.3-.3-.5-.2-.3-.2-.5-.2-.7zM686.5 291.8c3.6-23.2 20-36.9 39.1-36.9 10.1 0 18 4.6 21.1 12.2l1.7-8.5c.1-.6.4-1.2.9-1.6.5-.4 1.1-.6 1.8-.6h13.4c.3 0 .6 0 .9.1.3.1.5.3.7.5.2.2.3.5.4.8 0 .3 0 .6-.1.9l-12.9 65.9c-.1.6-.4 1.2-.9 1.6-.5.4-1.1.6-1.7.5h-13.6c-1.3 0-1.9-.7-1.7-2.1l1.2-6.8c-2.8 3.4-6.3 6.1-10.2 7.9-4 1.9-8.3 2.8-12.6 2.9-19.7-.1-30.7-16.3-27.5-36.8zm32.9 19.9c11.2 0 19.6-9.4 21.2-20.5 1.7-11.1-4.3-19.4-14.7-19.4-11.1 0-19.1 9-20.9 19.5-1.8 10.6 3.6 20.4 14.4 20.4zM762.1 324.3l13.1-66.1c.3-1.1.8-1.8 1.7-1.8h14.6c1.3 0 2.1.7 1.8 2.1l-1.5 8.6c5.3-7.6 12.9-12.2 20.7-12.2 3.7 0 7.4 1.3 10.3 3.6 1.3 1.2 1.3 1.9.4 3.2l-7.8 11c-1 1.5-1.7 1.3-3.2.6-1.7-.8-3.6-1.2-5.6-1.2-9.3 0-17 6.1-20.6 24.5l-5.4 27.8c-.1.6-.4 1.2-.8 1.6-.5.4-1 .7-1.7.7h-14.2c-.3 0-.5-.1-.8-.2-.2-.1-.5-.3-.6-.5-.2-.2-.3-.5-.4-.7-.1-.4-.1-.7 0-1zM810.5 346.7c-.4-.3-.6-.8-.7-1.3-.1-.5.1-1 .4-1.4l6.5-10.3c.7-1.1 1.8-1.5 2.6-.7 6.4 4 12.6 6.5 20.2 6.5 13.3 0 24.4-5.4 28.3-23.3-7.3 6.9-14.1 10.3-24.4 10.3-20.1 0-30.6-16.9-27.3-35.8 3.7-21.4 19.7-35.8 39.8-35.8 11.1 0 18.7 6.2 21.1 11.4l1.7-7.6c0-.6.3-1.2.7-1.6.4-.4 1-.6 1.6-.6h13.6c.3 0 .6 0 .8.1s.5.3.7.5c.2.2.3.5.3.8s0 .6-.1.8l-11.4 58c-4.9 25.2-22.4 38.4-46.1 38.4-9.9-.1-21.2-2.6-28.3-8.4zm38.2-36.5c11.2 0 19.6-9 21.2-19.7 1.7-10.7-4.3-18.7-14.7-18.7-11.1 0-19.1 8.8-20.9 18.8s3.6 19.6 14.4 19.6zM897 290.9c3.6-21.8 19.5-36 40.3-36 21.1 0 31 16.8 28 35.1-.7 4.7-2.4 8.4-6.2 8.4h-44.9c.4 10.3 7.5 15.1 16.9 15.1 5.9-.1 11.6-2 16.5-5.3 1.1-.8 2.4-1.2 3.2 0l5.1 8c.8 1.2.4 2.1-.8 3.2-6.7 6.1-17.5 8.9-27.3 8.9-22.3.1-34.3-16.3-30.8-37.4zm52.2-4.7c.7-11-6.8-15.5-14-15.5-9.4 0-16.8 6.4-19.5 15.5h33.5zM577.3 328.5c4.9.1 9.8-.8 14.4-2.6s8.8-4.5 12.3-8c.3-.2.5-.4.7-.7.2-.3.3-.6.3-.9.1-.3 0-.7 0-1-.1-.3-.2-.6-.4-.9l-7.6-8.5c-.2-.2-.4-.3-.6-.5-.2-.1-.5-.2-.7-.2-.3 0-.5 0-.8.1-.2.1-.5.2-.7.4-4.2 3.2-9.2 5-14.4 5.1-10.9 0-17-8.6-15.7-19.4 1.4-10.8 9.8-19.3 20.5-19.3 5.9 0 9.6 2.1 13.7 6.2 1.1 1.1 1.8 1.1 3 .1l9.9-8.4c.2-.1.4-.3.6-.6.2-.2.3-.5.3-.8.1-.3 0-.6 0-.8-.1-.3-.2-.5-.3-.8-6-8.5-15.2-12.5-25.5-12.5-20.6 0-37.4 15.4-40.2 35.8-3 22.5 11.7 38.2 31.2 38.2z"/></g></svg>