<?xml version="1.0" encoding="utf-8"?>
<!-- Generator: Adobe Illustrator 25.2.0, SVG Export Plug-In . SVG Version: 6.00 Build 0)  -->
<svg version="1.1" id="Calque_1" xmlns="http://www.w3.org/2000/svg" xmlns:xlink="http://www.w3.org/1999/xlink" x="0px" y="0px"
	 width="15px" height="18px" viewBox="0 0 15 18" style="enable-background:new 0 0 15 18;" xml:space="preserve">
<style type="text/css">
	.st0{fill:#FFFFFF;}
</style>
<g>
	<path class="st0" d="M2.5,18c-0.1,0-0.2-0.1-0.4-0.1C0.9,17.6,0,16.5,0,15.2C0,12,0,9.6,0,6.4c0-1.5,1.2-2.8,2.8-2.8
		c2.2,0,3.7,0,5.9,0c1.5,0,2.8,1.2,2.8,2.8c0,3.2,0,5.7,0,8.9c0,1.4-1,2.5-2.4,2.7c0,0-0.1,0-0.1,0C6.6,18,4.9,18,2.5,18z M1.4,15.1
		c0,0.9,0.6,1.5,1.5,1.5c2.2,0,3.6,0,5.7,0c0.9,0,1.5-0.6,1.5-1.5c0-3.1,0-5.5,0-8.6C10.1,5.6,9.5,5,8.6,5C6.4,5,5,5,2.9,5
		C2,5,1.4,5.6,1.4,6.5C1.4,8,1.4,13.5,1.4,15.1z"/>
	<path class="st0" d="M12.5,0c0.1,0,0.3,0.1,0.4,0.1c1.2,0.3,2,1.4,2,2.7c0,3.5,0,7.1,0,10.6c0,0.4-0.3,0.7-0.7,0.7
		c-0.4,0-0.7-0.3-0.7-0.8c0-3.5,0-7,0-10.5c0-0.8-0.5-1.3-1.2-1.5c-0.1,0-8.1,0-8.2-0.1C4,1.3,3.8,1,3.8,0.7c0-0.3,0.1-0.5,0.4-0.7
		C4.2,0,4.3,0,4.4,0C7.1,0,9.8,0,12.5,0z"/>
</g>
</svg>
