<?xml version="1.0" encoding="utf-8"?>
<!-- Generator: Adobe Illustrator 25.2.0, SVG Export Plug-In . SVG Version: 6.00 Build 0)  -->
<svg version="1.1" id="Layer_1" xmlns="http://www.w3.org/2000/svg" xmlns:xlink="http://www.w3.org/1999/xlink" x="0px" y="0px"
	 width="18px" height="18px" viewBox="0 0 18 18" style="enable-background:new 0 0 18 18;" xml:space="preserve">
<style type="text/css">
	.st0{fill:#FF0000;}
</style>
<path class="st0" d="M15.4,13.9L10.5,9l4.9-4.9c0.4-0.4,0.4-1,0-1.5c-0.4-0.4-1-0.4-1.5,0L9,7.5L4.1,2.6c-0.4-0.4-1-0.4-1.5,0
	c-0.4,0.4-0.4,1,0,1.5L7.5,9l-4.9,4.9c-0.4,0.4-0.4,1,0,1.5c0.2,0.2,0.4,0.3,0.7,0.3s0.5-0.1,0.7-0.3L9,10.5l4.9,4.9
	c0.2,0.2,0.4,0.3,0.7,0.3s0.5-0.1,0.7-0.3C15.8,14.9,15.8,14.4,15.4,13.9z"/>
</svg>
