<?xml version="1.0" encoding="utf-8"?>
<!-- Generator: Adobe Illustrator 24.0.0, SVG Export Plug-In . SVG Version: 6.00 Build 0)  -->
<svg version="1.1" id="Calque_1" xmlns="http://www.w3.org/2000/svg" xmlns:xlink="http://www.w3.org/1999/xlink" x="0px" y="0px"
	 viewBox="0 0 200 200" style="enable-background:new 0 0 200 200;" xml:space="preserve">
<style type="text/css">
	.st0{fill:#2A2C38;}
	.st1{fill:#FF6600;}
	.st2{fill:#FFFFFF;}
	.st3{fill:#FF0000;}
	.st4{display:none;fill:#C60000;}
</style>
<g id="fond">
	<path d="M76.6,123.3c0,0,4.2-1.7,5.8-2.1c-2.5,0.4-3.7,0.8-3.7,0.8l-19.2,7.1l9.2-18.3C71,107,80,95,87.9,90
		c8.7-5,16.2-6.7,26.2-6.7c0.8,0,1.7-0.4,2.9,0l0,0l6.7-10c3.3-4.2,6.2-8.3,10.4-12.1c7.1-7.5,13.3-13.3,22.9-19.6l1.2-1.7
		C142.9,16.3,116.2,0,85.8,0C38.3,0,0,38.3,0,85.8c0,31.7,17.5,59.6,42.9,74.2C49.6,144.2,61.6,131.3,76.6,123.3z"/>
	<path class="st0" d="M84.6,92.1c-10.4-5.4-22.5-8.8-35-8.8c-18.3,0-35,6.7-48.3,17.1c4.6,25.4,20,46.7,41.7,59.2
		c6.2-15.4,18.7-28.8,33.7-36.3c0,0,4.2-1.7,5.8-2.1c-2.5,0.4-3.7,0.8-3.7,0.8l-19.2,7.1l9.2-18.3C69.1,109.2,80,95.4,84.6,92.1z"/>
</g>
<g id="power">
	<g>
		<path class="st1" d="M48.7,42.9c-0.8-2.5-5.4-16.3-7.1-20.8c-0.4-0.8,0-1.7,0.8-2.1c6.2-3.3,12.1-5.4,19.2-7.5
			C70.8,10,80,8.8,89.6,9.2c2.5,0,5.4,0.4,7.9,0.8c-1.2,2.1-11.2,23.8-15.4,32.5c-0.4,0.8-0.8,1.3-1.7,0.8
			c-10-2.9-20.8-3.3-30.8-1.3C49.6,42.5,49.1,42.5,48.7,42.9z"/>
		<path class="st2" d="M36.7,24.2c1.7,4.2,5.8,15.8,7.1,18.3c0.4,0.8,0,1.3-0.8,1.7c-2.9,1.7-5.4,2.9-8.3,4.6
			c-0.4,0.4-0.8,0.8-1.7,0c-3.3-3.8-5.8-7.5-9.6-11.3C27.5,32.1,31.2,28.8,36.7,24.2z"/>
		<path class="st2" d="M20,41.3c1.7,1.7,7.9,8.8,9.2,10c0,0.4,0,1.3,0,1.7c-2.5,2.5-5.8,7.5-7.1,9.2c-0.4,0.4-0.8,0.4-1.2,0.4
			c-2.5-1.7-5.4-2.9-8.3-4.2c-0.4,0-0.4-0.4-0.4-0.8C13.7,51.7,16.7,47.1,20,41.3z"/>
		<path class="st2" d="M10,64.6c2.9,1.3,5.8,2.5,8.3,3.3c0.4,0,0.4,0.8,0.4,0.8c-1.7,4.2-2.9,8.3-3.3,12.9c0,0.8-0.4,1.2-1.2,0.8
			c-1.7,0-3.7,0-5.8-0.4C8.3,76.3,8.7,70.8,10,64.6z"/>
		<path class="st2" d="M9.6,100.4c-0.4-4.6-0.4-7.5-0.8-12.1c0.8,0,3.7,0,5.8,0c0.4,0,0.4,0.4,0.4,0.8c0,3.3,0,5.8,0,9.2
			c0,0.8-0.8,0.8-1.2,1.3C12.5,99.6,11.2,100,9.6,100.4z"/>
	</g>
</g>
<g>
	<path class="st3" d="M124.3,20.4c-5.3-3.1-10.9-5.7-16.8-7.9c-0.8-0.4-1.2,0-1.7,0.8c-1.3,2.7-8.5,17.5-13.4,27.4L124.3,20.4z"/>
	<path class="st3" d="M134.8,27.5l-29.1,37c0.8,1.3,1.6,2.6,2.6,3.9c0.4,0.8,0.8,1.3,2.1,0.8c2.5-0.8,12.9-4.6,23.7-7.9
		c0,0,0,0,0-0.4C139.5,55,144.9,50,151.6,45C146.8,38.2,141.2,32.4,134.8,27.5z"/>
</g>
<path class="st2" d="M137,17.9L72.2,67c-1.5-0.7-3.3-1.1-5.1-1.1c-6.7,0-12.1,5.4-12.1,12.1C55,84.6,60.4,90,67.1,90
	c6.7,0,12.1-5.4,12.1-12.1c0-0.9-0.1-1.7-0.3-2.6L137,17.9z M67.1,84.2c-3.5,0-6.2-2.8-6.2-6.3c0-3.5,2.8-6.3,6.2-6.3
	c3.5,0,6.2,2.8,6.2,6.3C73.3,81.4,70.5,84.2,67.1,84.2z"/>
<g id="trait_3">
	
		<rect x="149.6" y="167.8" transform="matrix(0.707 -0.7072 0.7072 0.707 -69.6196 173.8396)" class="st1" width="50.8" height="6.2"/>
</g>
<g id="trait_2">
	
		<rect x="170.4" y="115" transform="matrix(0.707 -0.7072 0.7072 0.707 -29.6252 164.7343)" class="st1" width="27.1" height="6.2"/>
</g>
<g id="trait_1">
	
		<rect x="10.9" y="175.5" transform="matrix(0.707 -0.7072 0.7072 0.707 -119.1761 69.591)" class="st1" width="27.1" height="6.2"/>
</g>
<g id="feu">
	<path class="st3" d="M119.5,140.8c-2.9,6.7-14.6,16.7-25,21.7c-5,2.5-8.7,3.8-13.7,5.8c-0.8,0.4-1.2,0-0.8-1.3
		c1.7-5,2.5-9.6,4.6-14.2c3.3-8.3,6.2-15,13.3-20.4c1.7-1.2,3.7-2.5,5.8-3.8c-5-1.2-12.1-1.2-23.3,2.5c-12.5,6.2-23.7,17.5-30,32.1
		c2.9-2.5,5.8-4.6,8.7-7.1c2.9-2.1,6.2-4.2,10.8-5c-10.8,15-17.1,31.3-22.5,48.8c17.9-5.4,33.7-11.7,48.7-21.7
		c-2.1,7.5-6.7,12.9-11.7,18.3c13.7-6.7,24.6-15.8,31.2-28.8l0,0c2.1-3.3,3.3-6.7,4.6-10C120.8,156.7,122.9,147.1,119.5,140.8z"/>
</g>
<g id="fusee">
	<g>
		<g>
			<path d="M116.6,91.3c0-0.4-1.7,0-2.5,0c-8.7,0-15,1.7-22.1,5.8c-5.4,2.9-9.6,7.5-13.3,12.5c-0.8,1.7-2.1,2.9-2.9,5
				c0,0,9.2-3.3,23.3-0.8c2.5,0.4,2.5,0.8,5.4,1.2C105.4,115,108.3,103.3,116.6,91.3z"/>
			<path d="M152.9,124.6c0,0,0.4,1.7,0.4,2.5c0.8,8.3-0.4,15-3.7,22.5c-2.5,5.8-6.7,10-11.2,14.2c-1.2,1.3-2.9,2.1-5,2.9
				c0,0,2.5-9.6-1.2-23.3c-0.8-2.5-0.8-2.9-1.7-5.8C130.8,137.1,141.2,134.2,152.9,124.6z"/>
			<path class="st4" d="M120,139.2c-0.4-0.4-15-13.7-15.4-14.2l0,0c-0.4,0.4-7.9,11.2-10,15c2.5-0.8,5.4-1.3,7.9-2.1
				c-5.8,8.3-10.8,15.8-16.2,23.8l0,0c5.4-3.8,10.4-7.9,15.8-11.7l0,0c-0.8,2.9-1.7,5.8-2.9,8.8c0.4,0,0.8-0.4,0.8-0.8
				c3.3-2.9,6.7-5.8,10-8.7c2.9-2.5,9.6-8.8,9.6-8.8C120.4,139.6,120.4,139.6,120,139.2z"/>
			<path class="st0" d="M164.5,75.4c-3.3-3.3-9.2-3.3-12.1,0c-2.9,3.3-2.5,9.2,0.8,12.1c3.3,3.3,9.2,2.9,12.1,0
				C168.3,84.6,167.9,79.2,164.5,75.4z"/>
			<path d="M167.4,45.4l26.7,24.2c0,0,7.9-17.1,5.4-32.5C199.5,37.5,181.6,36.7,167.4,45.4z"/>
			<path class="st0" d="M161.2,47.9c-8.7,5.8-14.6,10.8-21.2,18.3c-3.3,3.3-6.7,7.5-9.6,11.3l-6.2,9.2c-3.3,5.8-7.1,11.3-9.6,17.5
				c-1.2,2.9-5.4,11.3-5.4,11.7c0,0,0,0,2.1,1.7c6.2-9.2,11.2-15.8,13.7-17.9c1.2-0.8,2.9-2.1,4.6-2.5c3.7-0.8,10,3.8,13.3,7.9
				c2.5,3.3,2.1,7.9,1.2,9.6c-0.4,0.8-0.8,1.2-1.2,2.1c-3.3,2.9-17.1,13.7-17.1,13.7c2.1,1.7,2.1,1.7,2.1,2.1
				c0.4-0.4,17.5-9.6,22.9-13.3c1.7-1.2,9.2-7.1,10-7.5c4.6-3.3,8.7-7.5,12.5-11.7c7.9-8.3,13.3-15.8,18.3-26.3L161.2,47.9z
				 M169.1,91.7c-5.4,5.8-14.2,5.8-20,0.4c-6.2-5.8-6.7-14.6-1.2-20c5.4-5.8,14.2-5.8,20,0C173.7,77.5,174.5,86.3,169.1,91.7z"/>
			<path d="M138.7,115c5-5-4.6-12.5-8.3-11.7c-0.8,0-1.7,0.4-2.5,1.3C123.3,108.3,105,140,105,140S138.3,115.4,138.7,115z"/>
		</g>
	</g>
</g>
</svg>
