<?xml version="1.0" encoding="utf-8"?>
<!-- Generator: Adobe Illustrator 25.2.0, SVG Export Plug-In . SVG Version: 6.00 Build 0)  -->
<svg version="1.1" id="Calque_1" xmlns="http://www.w3.org/2000/svg" xmlns:xlink="http://www.w3.org/1999/xlink" x="0px" y="0px"
	 width="24px" height="24px" viewBox="0 0 24 24" style="enable-background:new 0 0 24 24;" xml:space="preserve">
<style type="text/css">
	.st0{fill:#3C434A;}
	.st1{fill:#FF6600;}
	.st2{fill:#FFFFFF;}
</style>
<ellipse class="st0" cx="3.2" cy="18.3" rx="2.1" ry="2.1"/>
<ellipse class="st0" cx="20.9" cy="18.3" rx="2.1" ry="2.1"/>
<ellipse class="st0" cx="12.2" cy="21.9" rx="2.1" ry="2.1"/>
<path class="st0" d="M6.4,14.3l-1.5,1.5c0.4,0.3,0.6,0.5,0.8,0.9l2.4-2.4L6.4,14.3z"/>
<path class="st0" d="M11.6,14.3V19c0.2,0,0.4-0.1,0.6-0.1s0.5,0,0.6,0.1v-4.7H11.6z"/>
<path class="st0" d="M16.8,13.5c-0.4,0.3-0.7,0.5-1.1,0.5l2.6,2.6c0.2-0.4,0.5-0.6,0.8-0.9L16.8,13.5z"/>
<path class="st1" d="M9.1,0C7.2,0,5.6,1.5,5.6,3.5v10.8h9.7c1.9,0,3.5-1.5,3.5-3.5V0H9.1z"/>
<path class="st2" d="M12.9,4.6c0,0,0.1-2.4,2.4-2.4h1.2V1h-1.2c-3.6,0-3.6,3.6-3.6,3.6v1.9c0,0,0,2.2-2.4,2.2H8.1v1h1.2
	c1,0,1.7-0.3,2.3-0.7c-0.2,0.7-0.8,2.2-2.4,2.2H6.7v1.2h2.6c2.9,0,3.5-2.6,3.6-3.5c1,0.9,2.6,1,2.6,1h1.2V8.8h-1.2
	c0,0-2.4,0.1-2.4-2.3L12.9,4.6L12.9,4.6z"/>
</svg>
