<?xml version="1.0" encoding="utf-8"?>
<!-- Generator: Adobe Illustrator 25.2.0, SVG Export Plug-In . SVG Version: 6.00 Build 0)  -->
<svg version="1.1" id="Calque_1" xmlns="http://www.w3.org/2000/svg" xmlns:xlink="http://www.w3.org/1999/xlink" x="0px" y="0px"
	 width="60px" height="60px" viewBox="0 0 60 60" style="enable-background:new 0 0 60 60;" xml:space="preserve">
<style type="text/css">
	.st0{fill:#1D84FF;}
	.st1{fill:#0066E0;}
	.st2{fill:#002570;}
	.st3{fill:#003889;}
	.st4{fill:#003084;}
	.st5{fill:#D2E9FF;}
	.st6{fill:#BFD1DB;}
	.st7{fill:#0057D6;}
	.st8{fill:#3E9FFF;}
	.st9{fill:#FF9248;}
	.st10{fill:#FF6600;}
	.st11{fill:#FFFFFF;}
</style>
<rect y="36.1" class="st0" width="59.1" height="23.9"/>
<rect x="4.1" y="39.8" class="st1" width="50.8" height="16.4"/>
<rect y="16.2" class="st2" width="59.1" height="19.9"/>
<rect x="1.6" y="18.8" class="st3" width="55.9" height="17.3"/>
<rect y="8.2" class="st1" width="59.1" height="8"/>
<polygon class="st0" points="57.9,10.2 0,10.2 0,8.2 59.1,8.2 "/>
<path class="st4" d="M17.9,8.2h-4.2V2.1c0-1.2,1-2.1,2.1-2.1h2.1V8.2z"/>
<path class="st4" d="M41.1,8.2h4.2V2.1c0-1.2-1-2.1-2.1-2.1h-2.1C41.1,0,41.1,8.2,41.1,8.2z"/>
<rect x="17.9" class="st1" width="23.1" height="4.1"/>
<rect x="10.4" y="23.8" class="st5" width="4.9" height="12.3"/>
<path class="st5" d="M15,12.6v5.1c0,1.1-0.9,2.1-2.1,2.1c-1.1,0-2.1-0.9-2.1-2.1v-5.2C4,14.8,5.5,24.9,12.8,25
	C20.1,24.9,21.7,15,15,12.6z"/>
<rect x="27.4" y="15.5" class="st6" width="4" height="11.8"/>
<polygon class="st5" points="29.5,12.2 27.4,15.5 31.5,15.5 "/>
<polygon class="st0" points="25.4,27.3 33.7,27.3 33.7,30.3 32.6,32.6 32.6,36.1 26.3,36.1 26.3,32.4 25.4,30.2 "/>
<polygon class="st7" points="32.7,36.1 26.4,36.1 26.3,34.5 32.6,34.5 "/>
<path class="st8" d="M29.4,31.3h-3.9c-0.6,0-1.1-0.5-1.1-1.1s0.5-1.1,1.1-1.1h3.9C30.8,29.2,30.8,31.3,29.4,31.3z"/>
<rect x="44.2" y="32.1" class="st9" width="6.3" height="4.2"/>
<path class="st10" d="M49.5,27.6v-4.8h-4.2v4.8c0,0-0.5,2.6-1.1,3.5v1h6.3v-1C50,30.2,49.5,27.6,49.5,27.6z"/>
<path class="st6" d="M42.1,13.4c2.2-0.4,4.2-1.5,6.5-1.2l2.9,0.2v4.7c0,0-2.1,1.2-2.1,5.8h-4.2c0,0,0.1-5.5-3.2-5.5L42.1,13.4
	L42.1,13.4z"/>
<polygon class="st5" points="42.1,18.4 37.3,18.7 37.3,12.2 42.1,12.5 "/>
<g>
	<path class="st10" d="M11.3,42.6c-1.5,0-2.6,1.2-2.6,2.6v8.2h7.4c1.5,0,2.6-1.2,2.6-2.6v-8.2H11.3z"/>
	<path class="st11" d="M14.3,46.2c0,0,0.1-1.9,1.9-1.9H17v-0.8h-0.9c-2.7,0-2.7,2.7-2.7,2.7v1.5c0,0-0.1,1.9-1.9,1.9h-0.9v0.8
		c0.9,0,2.1,0,2.7-0.6c-0.1,0.5-0.6,1.3-1.7,1.3h-2V52h1.9c2.2,0,2.6-1.7,2.7-2.4c0.8,0.8,1.9,0.8,1.9,0.8H17v-0.9h-0.9
		c0,0-1.9,0-1.9-1.8L14.3,46.2L14.3,46.2z"/>
	<path class="st11" d="M21.1,42.6v6.2c0.2,5.1,5,4.6,6.2,4.6v-1.5c-1.1-0.1-4.5,0.5-4.6-3.1v-6.2H21.1z"/>
	<path class="st11" d="M45.7,44.2h4.6v-1.5h-4.6c-5.1,0.2-4.6,5-4.6,6.2l0,0l0,0h6.2v-1.5h-4.6l0,0C42.7,47.2,42.7,44.2,45.7,44.2z"
		/>
	<path class="st11" d="M41.1,53.4h4.6c5.1-0.2,4.6-5,4.6-6.2h-1.6c-0.1,1.1,0.5,4.5-3.1,4.6H41L41.1,53.4L41.1,53.4z"/>
	<path class="st11" d="M39.6,42.6H38v7.7c-0.1,2.1-2.2,1.4-3.1,1.5v-4.4h-1.5v4.4c-0.9-0.1-3,0.5-3.1-1.5v-5.4h-1.5v5.4
		c0,3.1,3.1,3.1,3.1,3.1h7.7v-3.1l0,0l0,0L39.6,42.6L39.6,42.6z"/>
</g>
<path class="st5" d="M51.6,12.4c0,0,8.3-0.1,8.4,6.2c0,0-3.1-4.5-8.4-1.6V12.4z"/>
</svg>
