<?xml version="1.0" encoding="utf-8"?>
<!-- Generator: Adobe Illustrator 25.4.1, SVG Export Plug-In . SVG Version: 6.00 Build 0)  -->
<svg version="1.1" id="Layer_1" xmlns="http://www.w3.org/2000/svg" xmlns:xlink="http://www.w3.org/1999/xlink" x="0px" y="0px"
	 viewBox="0 0 64 64" style="enable-background:new 0 0 64 64;" xml:space="preserve">
<style type="text/css">
	.st0{fill:url(#SVGID_1_);}
	.st1{fill:#FFFFFF;}
</style>
<linearGradient id="SVGID_1_" gradientUnits="userSpaceOnUse" x1="6.7439" y1="31.8719" x2="57" y2="31.8719">
	<stop  offset="0" style="stop-color:#FF6CDF"/>
	<stop  offset="1" style="stop-color:#EB0CE2"/>
</linearGradient>
<circle class="st0" cx="31.9" cy="31.9" r="25.1"/>
<g>
	<g>
		<g>
			<path class="st1" d="M31.9,19.1c-4.5,0-8.2,3.6-8.2,8.2c0,1.8,0.5,3.3,1.5,4.8l6.1,9.5c0.3,0.5,1,0.5,1.3,0l6.1-9.5
				c1-1.4,1.5-3,1.5-4.8C40.1,22.8,36.4,19.1,31.9,19.1z M31.9,31.1c-2.1,0-3.7-1.7-3.7-3.7s1.7-3.7,3.7-3.7s3.7,1.7,3.7,3.7
				S33.9,31.1,31.9,31.1z"/>
		</g>
	</g>
	<g>
		<g>
			<path class="st1" d="M37.7,36.3L34,42.2c-1,1.5-3.2,1.5-4.2,0L26,36.3c-3.3,0.8-5.4,2.2-5.4,3.9c0,2.9,5.8,4.5,11.2,4.5
				s11.2-1.6,11.2-4.5C43.1,38.5,41,37.1,37.7,36.3z"/>
		</g>
	</g>
</g>
</svg>
