<svg width="20" height="20" xmlns="http://www.w3.org/2000/svg">

 <g>
  <title>background</title>
  <rect fill="none" id="canvas_background" height="402" width="582" y="-1" x="-1"/>
 </g>
 <g>
  <title>Layer 1</title>
  <path fill="#a0a5aa" id="svg_1" d="m2.34375,2.31641c0,0 -0.78125,0 -0.78125,0.78125l0,5.46875c0,0 0,0.78125 0.78125,0.78125l15.31641,0c0,0 0.78125,0 0.78125,-0.78125l0,-5.46875c0,0 0,-0.78125 -0.78125,-0.78125l-15.31641,0zm0,0"/>
  <path fill="#a0a5aa" id="svg_2" d="m20.00391,17.00391l0,-5.46875c0,0 0,-0.78125 -0.78125,-0.78125l-8.20703,0l0,1.875c0,0.78125 -0.78125,0.78125 -0.78125,0.78125l-0.46875,0c-0.78125,0 -0.78125,-0.78125 -0.78125,-0.78125l0,-1.875l-8.20313,0c0,0 -0.78125,0 -0.78125,0.78125l0,5.46875c0,0 0,0.78515 0.78125,0.78515l18.44141,0c0,0 0.78125,0 0.78125,-0.78515zm0,0"/>
 </g>
</svg>