<svg xmlns="http://www.w3.org/2000/svg" viewBox="0 0 490.573 490.573"><path fill="#B2B2B2" d="M130.791 209.4c-3.2-7.5-6.5-15.1-9.7-22.5l-12.4-28.8c-12.1-27-2.4-57.3 23-72l1.3-.7c8-4.2 17.1-6.4 26.1-6.4 19.4 0 37.3 9.9 47.9 26.6 8 12.3 15.4 24.4 23.2 37.2l5.2 8.5.1.1c6.9-14 10.9-29.7 10.9-46.4 0-58-47-105-105-105s-105 47-105 105c0 54.4 41.4 99.1 94.4 104.4z"/><path fill="#B2B2B2" d="M452.591 405.5c3.7 8.3.7 17.9-6.4 23.1l-85.8 56.1c-14.2 9-33.1 7.7-45.7-4.2-38.3-36.4-88.7-52.3-88.7-52.3-12.8-4-24.1-9.2-34.9-18.9-7.2-6.7-18.3-13.8-25.6-19.9-19.4-15.9-40.3-30-63-40.3-10.1-4.4-12-11.2-7-21.2 2.5-5 9.1-10.9 14.6-13 12.4-4.6 24.7-2.6 36.2.6 7.1 1.4 36.7 20.4 50.5 27.2 11.9 5.9 15-5 15.1-18.2 0-6.6-1.9-12.7-3.9-18.9-22-53.8-45.3-107.1-68.6-161-5.3-11.8-1.5-23.2 9.1-29.4 10.5-5.5 23.3-2.1 30.1 8.5 9.6 14.9 18.6 29.7 28.2 45.2 8.4 14.1 17.5 27.6 25.9 41.7l10.7 17s76-20.3 156.7 8.1c4.4 1.8 8.1 4.8 9.5 9.6 7.3 17.9 26.4 67.4 28.1 113.8 2 12.1 5.5 22.4 7.4 29.2l7.5 17.2z"/></svg>
