<svg xmlns="http://www.w3.org/2000/svg" viewBox="0 0 488.425 488.425"><path fill="#B2B2B2" d="M320.575 199.4l31.9-31.9 34.9-34.9 29-29 20.4 3.7 51.6-51.6-47.2-8.5-8.5-47.2-51.5 51.6 3.7 20.4-29 29c-85.6-69.7-212.2-64.7-292 15-85.1 85.1-85.1 223.5 0 308.6s223.5 85.1 308.6 0c71.2-71.2 82.8-179.7 34.8-263l-36.2 36.2c29.7 62.8 18.7 140.3-33.2 192.2-66 66-173.3 66-239.3 0s-66-173.3 0-239.3c60.6-60.6 156.1-65.5 222.4-14.7l-31.9 31.9c-48.7-33.7-115.9-28.9-159.1 14.3-48.6 48.6-48.6 127.6 0 176.2s127.6 48.6 176.2 0c34.1-34.1 44.2-83.2 30.4-126.3l-43.2 43.2c-1.2 17.7-8.4 35-21.9 48.5-29.5 29.5-77.5 29.5-107 0s-29.5-77.5 0-107c24-24 60.2-28.5 88.8-13.4l-34.3 34.3c-8.7-.3-17.5 2.9-24.1 9.5-12.7 12.7-12.7 33.4 0 46.2 12.7 12.8 33.4 12.7 46.2 0 6.6-6.6 9.8-15.4 9.5-24.1l34.3-34.3 35.7-35.6z"/></svg>
