<?xml version="1.0" encoding="utf-8"?>
<!-- Generator: Adobe Illustrator 16.0.0, SVG Export Plug-In . SVG Version: 6.00 Build 0)  -->
<!DOCTYPE svg PUBLIC "-//W3C//DTD SVG 1.1//EN" "http://www.w3.org/Graphics/SVG/1.1/DTD/svg11.dtd">
<svg version="1.1" id="Layer_1" xmlns="http://www.w3.org/2000/svg" xmlns:xlink="http://www.w3.org/1999/xlink" x="0px" y="0px"
	 width="30px" height="30px" viewBox="0 0 30 30" enable-background="new 0 0 30 30" xml:space="preserve">
<g>
	
		<ellipse transform="matrix(-0.965 0.2622 -0.2622 -0.965 26.1399 19.3266)" fill="#414142" cx="11.781" cy="11.407" rx="1.962" ry="2.748"/>
	<path fill="#414142" d="M14.999,0C6.715,0,0,6.717,0,15c0,8.286,6.716,15,15,15C23.283,30,30,23.286,30,15
		C30,6.717,23.283,0,14.999,0z M15.766,11.437c0,2.33-2.181,2.619-2.181,3.608c0,0.991,2.892,1.785,2.892,4.243
		c0,4.102-5.076,3.872-5.076,3.872s-4.386,0.158-4.386-3.146c0-3.307,4.979-3.172,5.235-3.172c-0.063-0.757-0.57-0.632-0.57-1.005
		v-0.926c0,0-3.766,0.423-3.766-3.224c0-3.649,4.31-3.754,4.31-3.754h4.253c0,0.649-1.941,0.42-1.941,0.767
		C15.636,9.199,15.766,10.041,15.766,11.437z M24.462,11.769h-2.963v2.96h-0.87v-2.96h-2.961v-0.871h2.961V7.934h0.87v2.964h2.963
		V11.769z"/>
	
		<ellipse transform="matrix(0.0676 0.9977 -0.9977 0.0676 30.8839 6.5727)" fill="#414142" cx="11.925" cy="19.811" rx="2.325" ry="3.187"/>
</g>
</svg>
