<?xml version="1.0" encoding="utf-8"?>
<!-- Generator: Adobe Illustrator 16.0.0, SVG Export Plug-In . SVG Version: 6.00 Build 0)  -->
<!DOCTYPE svg PUBLIC "-//W3C//DTD SVG 1.1//EN" "http://www.w3.org/Graphics/SVG/1.1/DTD/svg11.dtd">
<svg version="1.1" id="Layer_1" xmlns="http://www.w3.org/2000/svg" xmlns:xlink="http://www.w3.org/1999/xlink" x="0px" y="0px"
	 width="30px" height="30px" viewBox="0 0 30 30" enable-background="new 0 0 30 30" xml:space="preserve">
<path fill="#414142" d="M15,0C6.716,0,0,6.716,0,15c0,8.283,6.716,15,15,15c7.554,0,13.8-5.584,14.844-12.849
	c0.102-0.494,0.148-1.005,0.14-1.532C29.994,15.415,30,15.208,30,15C30,6.716,23.286,0,15,0z M21.904,12.278
	c0.006,0.14,0.008,0.279,0.008,0.419c0,4.282-3.258,9.222-9.218,9.222c-1.831,0-3.533-0.537-4.967-1.458
	c0.253,0.03,0.511,0.045,0.772,0.045c1.517,0,2.915-0.518,4.025-1.388c-1.418-0.023-2.615-0.962-3.029-2.248
	c0.198,0.038,0.404,0.059,0.611,0.059c0.294,0,0.581-0.041,0.854-0.114c-1.483-0.297-2.601-1.607-2.601-3.176
	c0-0.018,0-0.029,0-0.041c0.437,0.24,0.938,0.388,1.469,0.405c-0.87-0.583-1.442-1.573-1.442-2.697c0-0.595,0.159-1.15,0.439-1.63
	c1.598,1.961,3.986,3.25,6.68,3.387c-0.056-0.237-0.084-0.486-0.084-0.74c0-1.79,1.452-3.241,3.242-3.241
	c0.932,0,1.772,0.395,2.363,1.025c0.74-0.146,1.433-0.415,2.061-0.787c-0.242,0.756-0.757,1.391-1.427,1.792
	c0.657-0.075,1.282-0.251,1.861-0.509C23.085,11.25,22.538,11.821,21.904,12.278z"/>
</svg>
