<?xml version="1.0" encoding="utf-8"?>
<!-- Generator: Adobe Illustrator 16.0.0, SVG Export Plug-In . SVG Version: 6.00 Build 0)  -->
<!DOCTYPE svg PUBLIC "-//W3C//DTD SVG 1.1//EN" "http://www.w3.org/Graphics/SVG/1.1/DTD/svg11.dtd">
<svg version="1.1" id="Layer_1" xmlns="http://www.w3.org/2000/svg" xmlns:xlink="http://www.w3.org/1999/xlink" x="0px" y="0px"
	 width="30px" height="30px" viewBox="0 0 30 30" enable-background="new 0 0 30 30" xml:space="preserve">
<g>
	<path fill="#414142" d="M15,0C6.715,0,0,6.716,0,15s6.715,15,15,15c8.284,0,15-6.716,15-15S23.284,0,15,0z M23.682,18.091
		c0,1.486-1.274,2.698-2.836,2.698H9.165c-1.561,0-2.847-1.212-2.847-2.698V11.91c0-1.475,1.286-2.696,2.847-2.696h11.681
		c1.562,0,2.836,1.222,2.836,2.696V18.091z"/>
	<path fill="#414142" d="M18.493,14.577l-5.768-3.16c-0.209-0.115-0.489-0.133-0.722-0.043c-0.232,0.089-0.382,0.271-0.382,0.466
		v6.32c0,0.194,0.15,0.375,0.382,0.466c0.1,0.037,0.204,0.056,0.315,0.056c0.141,0,0.287-0.034,0.406-0.1l5.768-3.161
		c0.18-0.097,0.284-0.255,0.284-0.423C18.776,14.834,18.669,14.676,18.493,14.577z"/>
</g>
</svg>
