<svg width="16" height="15" viewBox="0 0 16 15" fill="none" xmlns="http://www.w3.org/2000/svg">
<path d="M5.52649 15H13.4049C14.4852 15 15.3606 14.132 15.3606 13.0623V10.9574H5.52649V15Z" fill="#00C558"/>
<path d="M5.52649 9.52026H13.4049C14.4852 9.52026 15.3606 8.65228 15.3606 7.58261V5.47762H5.52649V9.52026Z" fill="#00C558"/>
<path d="M5.52649 4.04272H13.4049C14.4852 4.04272 15.3606 3.17474 15.3606 2.10507V8.54359e-05H5.52649V4.04272Z" fill="#00C558"/>
<path d="M0 4.04272H2.10031C3.17759 4.04272 4.05297 3.17474 4.05297 2.10507V8.54359e-05H0V4.04272Z" fill="#00C558"/>
<path d="M0 9.52026H2.10031C3.17759 9.52026 4.05297 8.65228 4.05297 7.58261V5.47762H0V9.52026Z" fill="#00C558"/>
<path d="M0 15H2.10031C3.17759 15 4.05297 14.132 4.05297 13.0623V10.9574H0V15Z" fill="#00C558"/>
</svg>
