<svg xmlns="http://www.w3.org/2000/svg" xmlns:xlink="http://www.w3.org/1999/xlink" width="76" height="20" viewBox="0 0 76 20">
  <defs>
    <polygon id="paypal-a" points="0 .018 14.016 .018 14.016 16.131 0 16.131"/>
    <polygon id="paypal-c" points=".042 .013 6.08 .013 6.08 16.144 .042 16.144"/>
  </defs>
  <g fill="none" fill-rule="evenodd">
    <g transform="translate(0 .05)">
      <mask id="paypal-b" fill="#fff">
        <use xlink:href="#paypal-a"/>
      </mask>
      <path fill="gray" d="M5.91267789,3.63332211 C5.70109895,4.93248 5.50278316,6.23416421 5.29309895,7.53332211 C5.76930947,7.53584842 6.24615158,7.53648 6.72299368,7.53205895 C7.41709895,7.52005895 8.15920421,7.46448 8.75036211,7.06090105 C9.27330947,6.70595368 9.52973053,6.07942737 9.61941474,5.47437474 C9.69836211,4.95900632 9.71983579,4.37795368 9.41099368,3.92953263 C9.13941474,3.53037474 8.64994105,3.36174316 8.19141474,3.29984842 C7.60278316,3.21774316 7.00783579,3.23669053 6.41541474,3.23542737 C6.17983579,3.21963789 5.94488842,3.39648 5.91267789,3.63332211 M2.94615158,0.0497431579 C3.04404632,0.0232168421 3.14636211,0.0194273684 3.24804632,0.0181642105 C5.16488842,0.0213221053 7.08109895,0.0162694737 8.99794105,0.0206905263 C10.1758358,0.0352168421 11.4042568,0.210164211 12.4192042,0.848690526 C13.1152042,1.27942737 13.6280463,1.98048 13.8434147,2.76869053 C14.1434147,3.82848 14.0082568,4.95205895 13.7650989,6.00869053 C13.4865726,7.19795368 12.9402568,8.35879579 12.0326779,9.19690105 C11.1547832,10.0223747 9.98699368,10.4771116 8.80720421,10.6501642 C7.86867789,10.8017432 6.91499368,10.7436379 5.96888842,10.7556379 C5.71436211,10.76448 5.45036211,10.7234274 5.20530947,10.8067958 C4.92046737,10.9053221 4.70952,11.1756379 4.67415158,11.4737432 C4.46194105,12.8006905 4.25730947,14.1295326 4.04383579,15.4558484 C3.98952,15.8335326 3.63962526,16.14048 3.25562526,16.1297432 C2.32657263,16.1310063 1.39752,16.1329011 0.468467368,16.1291116 C0.187414737,16.1373221 -0.0487957895,15.8505853 0.00867789474,15.5758484 C0.786151579,10.6293221 1.56741474,5.68342737 2.34741474,0.737532632 C2.38404632,0.414795789 2.62720421,0.125532632 2.94615158,0.0497431579" mask="url(#paypal-b)"/>
    </g>
    <path fill="gray" d="M47.3076316,3.69786947 C47.1055263,4.99197474 46.8876316,6.28481684 46.7006842,7.58081684 C47.5034211,7.56755368 48.3137368,7.62186947 49.1107895,7.49555368 C49.6716316,7.40460632 50.2425789,7.15323789 50.5728947,6.67197474 C50.9423684,6.13513263 51.0554211,5.46123789 51.0516316,4.82081684 C51.0459474,4.28902737 50.7598421,3.74713263 50.2507895,3.54186947 C49.4916316,3.22418526 48.6472105,3.31386947 47.8438421,3.29429053 C47.5924737,3.26334316 47.3404737,3.44397474 47.3076316,3.69786947 M44.2615263,0.113658947 C44.3947895,0.0643957895 44.5406842,0.0669221053 44.6827895,0.0637010644 C46.5977368,0.0669221053 48.5120526,0.0599747368 50.427,0.0669221053 C51.6623684,0.0801852632 52.9627895,0.282922105 53.9903684,1.01492211 C54.7646842,1.55492211 55.2402632,2.45113263 55.3583684,3.37702737 C55.491,4.24355368 55.3672105,5.12460632 55.1821579,5.97344842 C54.9131053,7.17155368 54.3794211,8.34439579 53.4806842,9.20208 C52.6040526,10.0483958 51.4274211,10.5239747 50.2343684,10.7008168 C49.1088947,10.8839747 47.9657368,10.7905011 46.8314211,10.8201853 C46.4518421,10.8233432 46.1177368,11.1422905 46.0722632,11.5142905 C45.8474211,12.9170274 45.6320526,14.3210274 45.4053158,15.7225011 C45.3604737,16.0010274 45.0901579,16.2088168 44.811,16.1936589 C43.8844737,16.1942905 42.9585789,16.1917642 42.0320526,16.1949221 C41.8432105,16.2056589 41.6278421,16.1797642 41.5021579,16.0218695 C41.3865789,15.8987116 41.3714211,15.7206063 41.3998421,15.5614484 C42.1779474,10.6357642 42.9528947,5.70881684 43.7322632,0.782501053 C43.7651053,0.483132632 43.9773158,0.215343158 44.2615263,0.113658947"/>
    <g transform="translate(68.526 .05)">
      <mask id="paypal-d" fill="#fff">
        <use xlink:href="#paypal-c"/>
      </mask>
      <path fill="gray" d="M2.70172421,0.0617557895 C2.81161895,0.00617684211 2.94046105,0.0169136842 3.06172421,0.0131242105 C3.90361895,0.0175452632 4.74488211,0.00996631579 5.58677684,0.0169136842 C5.88740842,-0.00203368421 6.13688211,0.310597895 6.06930316,0.599861053 C5.28993474,5.54765053 4.50804,10.49544 3.72614526,15.4432295 C3.67688211,15.8259663 3.32635579,16.1385979 2.93982947,16.1411242 C2.13582947,16.1449137 1.33119789,16.1442821 0.527829474,16.1417558 C0.237934737,16.14744 -0.00838105263,15.8556505 0.0503557895,15.5708084 C0.838566316,10.5415453 1.63119789,5.51354526 2.42067158,0.484282105 C2.43393474,0.306176842 2.53814526,0.13944 2.70172421,0.0617557895" mask="url(#paypal-d)"/>
    </g>
    <path fill="gray" d="M19.575 8.15996842C18.5707895 8.31091579 17.667 8.99049474 17.2501579 9.91702105 16.9343684 10.6224947 16.8162632 11.4593368 17.0954211 12.1957579 17.2937368 12.7326 17.7503684 13.1544947 18.2891053 13.3389158 19.515 13.7557579 20.9998421 13.3584947 21.7905789 12.3157579 22.3356316 11.6008105 22.5964737 10.6427053 22.3912105 9.75786316 22.2693158 9.22670526 21.9364737 8.74102105 21.4634211 8.46375789 20.9006842 8.12523158 20.2135263 8.06902105 19.575 8.15996842M14.919 7.20691579C16.0924737 5.89828421 17.8444737 5.11765263 19.6072105 5.18081053 20.5141579 5.20481053 21.4747895 5.3286 22.2377368 5.85975789 22.527 6.05617895 22.7373158 6.34291579 22.9160526 6.63975789 22.9602632 6.3726 22.9968947 6.10417895 23.0455263 5.83765263 23.0771053 5.61028421 23.2956316 5.43344211 23.5236316 5.43849474 24.4507895 5.43786316 25.3773158 5.43533684 26.3044737 5.43975789 26.5956316 5.4366 26.8318421 5.73849474 26.7636316 6.02081053 26.2672105 9.16354737 25.7714211 12.3056526 25.2756316 15.4483895 25.2421579 15.7218632 25.0779474 15.9833368 24.8227895 16.0995474 24.6573158 16.1886 24.4659474 16.1810211 24.2846842 16.1816526 23.5053158 16.1772316 22.7253158 16.1860737 21.9465789 16.1778632 21.6926842 16.1791263 21.4747895 15.9359684 21.4924737 15.6858632 21.5202632 15.4060737 21.5903684 15.1326 21.6086842 14.8521789 20.775 15.7313368 19.6059474 16.2593368 18.411 16.4058632 17.4048947 16.5006 16.3495263 16.4064947 15.4356316 15.9460737 14.5741579 15.5172316 13.923 14.7340737 13.5579474 13.8530211 13.1215263 12.8134421 13.0621579 11.6424947 13.2775263 10.5429158 13.5067895 9.30944211 14.0714211 8.13470526 14.919 7.20691579M60.9528821 8.17134947C60.2385663 8.28250737 59.5703558 8.65766526 59.1017242 9.20777053 58.4739347 9.95303368 58.1846716 11.0033495 58.4151979 11.9576653 58.5693032 12.6031389 59.0764611 13.1374547 59.7061453 13.3408232 60.7659347 13.6812442 62.0133032 13.4425074 62.8356189 12.6789284 63.5448821 12.0265074 63.9213032 11.0286126 63.8278295 10.0705074 63.7703558 9.46734947 63.4602505 8.87745474 62.9511979 8.53640211 62.3733032 8.14229684 61.6305663 8.06208632 60.9528821 8.17134947M57.0061453 6.53998105C58.11204 5.63303368 59.5463558 5.13092842 60.9781453 5.17387579 61.6419347 5.18524421 62.3139347 5.26040211 62.9404611 5.49219158 63.3074084 5.62734947 63.6573032 5.82629684 63.9307768 6.11050737 64.0747768 6.26208632 64.1815137 6.44461263 64.3135137 6.60692842 64.34004 6.34419158 64.3855137 6.08398105 64.4322505 5.82377053 64.4669874 5.60461263 64.6741453 5.43156 64.8970926 5.43598105 65.8204611 5.42966526 66.7444611 5.43219158 67.6684611 5.43471789 67.97604 5.41071789 68.2368821 5.73156 68.1636189 6.02840211 67.6621453 9.18566526 67.1676189 12.3441916 66.6648821 15.5020863 66.6124611 15.8974547 66.2379347 16.2018758 65.8431979 16.1924021 65.0196189 16.1936653 64.19604 16.1949284 63.3730926 16.1917705 63.10404 16.1980863 62.8634084 15.9593495 62.8728821 15.6909284 62.9095137 15.4161916 62.9594084 15.1433495 63.0029874 14.8692442 62.0631979 15.8330337 60.7375137 16.3850337 59.3991979 16.4450337 58.4095137 16.4778758 57.3794084 16.3187179 56.5286716 15.7856653 55.5749874 15.1907179 54.9465663 14.1662968 54.6933032 13.0856653 54.4021453 11.8799811 54.5499347 10.6022968 54.9617242 9.44271789 55.3684611 8.31661263 56.0714084 7.29156 57.0061453 6.53998105M28.1745853 6.06123158C28.0697432 5.76312632 28.3293221 5.42333684 28.6432168 5.43912632 29.5470063 5.43596842 30.4507958 5.43786316 31.3545853 5.43786316 31.7032168 5.42838947 32.0411116 5.66333684 32.1421642 5.99870526 32.6922695 7.81828421 33.2310063 9.64102105 33.78048 11.4606 35.0493221 9.61575789 36.2992168 7.75702105 37.5585853 5.90523158 37.7107958 5.63933684 37.9861642 5.43217895 38.3032168 5.43849474 39.2512168 5.43912632 40.1992168 5.43154737 41.1472168 5.44228421 41.4907958 5.46565263 41.7030063 5.90902105 41.4914274 6.18754737 38.4017432 10.6521789 35.3082695 15.1142842 32.2160589 19.5770211 32.0701642 19.7999684 31.8118484 19.9458632 31.5446905 19.9433368 30.5973221 19.9420737 29.6493221 19.9490211 28.7025853 19.9401789 28.3539537 19.9206 28.1417432 19.4652316 28.3602695 19.1886 29.3227958 17.8275474 30.2827958 16.4646 31.2535326 15.1092316 30.2329011 12.0915474 29.1958484 9.07891579 28.1745853 6.06123158"/>
  </g>
</svg>
