<svg xmlns="http://www.w3.org/2000/svg" xmlns:xlink="http://www.w3.org/1999/xlink" width="39" height="40" viewBox="0 0 39 40">
  <defs>
    <polygon id="phoenix-suns-a" points="0 .03 38.017 .03 38.017 38.63 0 38.63"/>
  </defs>
  <g fill="none" fill-rule="evenodd">
    <g transform="translate(0 .022)">
      <mask id="phoenix-suns-b" fill="#fff">
        <use xlink:href="#phoenix-suns-a"/>
      </mask>
      <path fill="#BAB7C3" d="M10.5734326,1.23846074 C9.75572889,1.81972 9.24135852,2.74320148 9.00128444,3.70246074 C6.10898815,15.2337941 3.21669185,26.7651274 0.32646963,38.2974978 C9.01009926,38.2985348 17.6937289,38.2980965 26.3773585,38.2974978 C27.4641733,38.24772 28.4685437,37.5570533 29.0000252,36.6221644 C29.2089881,36.2680163 29.2960993,35.8635719 29.385803,35.4669052 C32.1572844,23.7592756 34.9235807,12.0495719 37.6986919,0.342460741 C29.6891363,0.341942222 21.6795807,0.342979259 13.6695067,0.341942222 C12.5889141,0.374608889 11.4637289,0.589275556 10.5734326,1.23846074 M13.0721733,0.0666088889 C13.5637289,0.0199422222 14.0583956,0.0334237037 14.5515067,0.0313496296 C22.2442474,0.0308311111 29.9369881,0.0323866667 37.6297289,0.0303125926 C37.7401733,0.0323866667 37.8682474,0.0365348148 37.9465437,0.127275556 C38.0326178,0.216460741 38.0253585,0.349201481 37.9994326,0.461201481 C35.2072104,12.2543867 32.4144696,24.0475719 29.623803,35.8412756 C29.3033585,37.4341644 27.7446919,38.6915719 26.1149881,38.6272756 C17.5231363,38.6241644 8.93180296,38.6288311 0.34046963,38.624683 C0.102988148,38.6500904 -0.0624192593,38.3923867 0.0226177778,38.1803126 C2.84698815,26.9191274 5.67032148,15.6579422 8.49469185,4.39675704 C8.63676593,3.84557185 8.74980296,3.28246074 8.9831363,2.76031259 C9.30202519,2.01675704 9.82209926,1.35409037 10.4977289,0.904534815 C11.25684,0.39172 12.1673585,0.147497778 13.0721733,0.0666088889" mask="url(#phoenix-suns-b)"/>
    </g>
    <path fill="gray" d="M23.2123215,4.44943852 C21.7412844,3.79195704 20.27284,3.12929037 18.8007659,2.47543852 C18.6000993,3.78780889 18.3999511,5.09966074 18.2003215,6.41203111 C16.885877,6.71069778 15.5672844,6.99069778 14.2512844,7.28417926 C15.0233585,7.75706815 15.8063215,8.21232741 16.5794326,8.68366074 C15.7933585,9.07151259 15.0140252,9.47180889 14.2331363,9.86847556 C14.8926919,9.93640148 15.5543215,9.98047556 16.213877,10.0509941 C14.2206919,11.6055126 12.2197289,13.1506978 10.2239511,14.7021052 C9.4985437,15.27092 8.75965481,15.8236607 8.04358074,16.403883 C8.4371363,16.223957 8.80943259,15.9994385 9.19572889,15.8049941 C11.5041733,14.5797348 13.8095067,13.3487719 16.1210622,12.1307719 C15.8369141,12.3744756 15.527877,12.5865496 15.2333585,12.8178089 C13.3117289,14.2831422 11.3885437,15.7474385 9.46639556,17.2122533 C8.79232148,17.7333644 8.10321037,18.2352904 7.43898815,18.7678089 C10.515877,17.1863274 13.5735807,15.56492 16.6515067,13.9860311 C15.485877,14.8944756 14.2917289,15.7666237 13.1126178,16.6574385 C11.4637289,17.8946237 9.81380296,19.1318089 8.16491407,20.3689941 C7.71328444,20.717957 7.23987704,21.0404756 6.80276593,21.4070681 C6.91165481,21.3593644 7.01535852,21.3007719 7.11958074,21.2442533 C10.6517289,19.3635867 14.1823215,17.4813644 17.7144696,15.6012163 C14.57484,17.8935867 11.4201733,20.1657348 8.27535852,22.4508459 C7.61009926,22.9424015 6.92565481,23.4101052 6.27232148,23.9166978 C6.86395111,23.6206237 7.43432148,23.2830681 8.01869185,22.9724756 C11.6820252,20.9684015 15.3432844,18.9601793 19.0086919,16.9597348 C16.1423215,19.287883 13.2531363,21.5885496 10.3909141,23.9203274 C10.4562474,23.8907719 10.5205437,23.8591422 10.5832844,23.8244015 C14.0552844,21.8317348 17.5262474,19.8380311 20.9987659,17.845883 C20.9463956,18.2570681 20.8795067,18.6661793 20.8276548,19.0773644 C21.4187659,18.7481052 22.007803,18.4152163 22.5999511,18.0869941 C23.9340993,19.3412904 25.2563215,20.6085496 26.5930622,21.8602533 C27.3096548,19.7327719 28.0060252,17.5985496 28.7163956,15.4689941 C29.7409881,15.4021052 30.7655807,15.3378089 31.7901733,15.2745496 C31.2804696,13.981883 30.7546919,12.6954385 30.239803,11.4048459 C31.1643215,10.6773644 32.0935067,9.95558667 33.0159511,9.22603111 C31.8150622,8.75573481 30.6152104,8.28077185 29.4122474,7.81514222 C29.7046919,6.52040148 30.03084,5.23343852 30.3222474,3.93869778 C29.30284,4.40277185 28.2849881,4.86943852 27.2655807,5.33299407 C26.7382474,4.22388296 26.2036548,3.11840148 25.67684,2.00929037 C24.85084,2.81766074 24.0476548,3.65040148 23.2123215,4.44943852 M13.411803,1.61884593 C13.8395807,1.54936444 14.2735807,1.53795704 14.7055067,1.52188296 C21.7360993,1.52292 28.7666919,1.52084593 35.7967659,1.52292 C34.2474326,8.22373481 32.6939511,14.9240311 31.1430622,21.6248459 C31.0269141,22.0801052 30.9703956,22.5597348 30.7370622,22.9755867 C30.3263956,23.7481793 29.5683215,24.3335867 28.7112104,24.5186978 C28.3352844,24.6016607 27.9484696,24.5746978 27.5663215,24.5788459 C20.1437289,24.5783274 12.7206178,24.5804015 5.29802519,24.5778089 C6.94224741,18.02892 8.59735852,11.4826237 10.249877,4.93580889 C10.4474326,4.07351259 10.7492104,3.18373481 11.4004696,2.55373481 C11.927803,2.00617926 12.6739511,1.73136444 13.411803,1.61884593"/>
    <path fill="gray" d="M20.2619563 5.61557111C21.2772156 5.04779333 22.4485489 4.74031185 23.61366 4.79371926 24.606623 5.17327481 25.4824007 5.84631185 26.1492156 6.67127481 25.5969933 6.59401556 25.0489193 6.47994148 24.5112156 6.33112667 23.7744007 6.12268222 23.0500304 5.85823778 22.2919563 5.73379333 21.6225489 5.62127481 20.9401785 5.57046 20.2619563 5.61557111M25.2495807 5.05869778C26.1201733 5.30188296 26.9243956 5.76025333 27.60884 6.34669778 27.3889881 6.52610519 27.1229881 6.64017926 26.8414326 6.67699407 26.4043215 6.0532163 25.8495067 5.52329037 25.2495807 5.05869778M18.7629089 6.7941637C19.6895015 6.4021637 20.6959459 6.17712667 21.7055015 6.21446 23.3606126 6.25905259 24.8617237 7.15401556 26.52202 7.16386741 26.74602 7.52060815 26.9487607 7.89083037 27.1198719 8.27557111 24.8477237 8.18379333 22.5346126 8.45601556 20.4019459 9.27268222 19.1595756 9.75542296 17.9742422 10.4326081 17.0227607 11.3747563 16.9558719 9.70046 17.5983163 8.00023778 18.7629089 6.7941637M27.1416444 7.11720074C27.4506815 7.04668222 27.7426074 6.90771926 27.9806074 6.69668222 28.488237 7.21208963 28.9066815 7.81408963 29.2152 8.46846 28.7174222 8.39949704 28.2175704 8.35179333 27.7172 8.30979333 27.5626815 7.89549704 27.3651259 7.49883037 27.1416444 7.11720074"/>
    <path fill="gray" d="M20.6544644 9.88818444C22.5242422 9.10262889 24.5615015 8.77699926 26.5816496 8.7500363 26.8258719 8.74692519 27.0706126 8.74848074 27.3143163 8.76870296 27.4537978 9.17677704 27.5632052 9.59522148 27.6311311 10.0214437 26.8134274 10.0629252 26.0185385 10.3392956 25.3325385 10.7821104 24.5407607 11.2835178 23.8635756 11.9373696 23.163057 12.5544067 22.3728348 13.2538881 21.5141681 13.8812956 20.5797978 14.3749252 19.9036496 14.7352956 19.187057 15.0173696 18.4559459 15.2439622 17.8160941 14.454777 17.3691311 13.5152215 17.1513533 12.5232956 18.0167607 11.3120363 19.29802 10.4616659 20.6544644 9.88818444M27.8986867 8.79410519C28.4078719 8.82106815 28.9144644 8.88432741 29.418983 8.96106815 29.6139459 9.4806237 29.7347607 10.0261052 29.7917978 10.5778089 29.3194274 10.2475126 28.7552793 10.0520311 28.1781681 10.0380311 28.1185385 9.61647556 28.0241681 9.2006237 27.8986867 8.79410519"/>
    <path fill="gray" d="M26.0273585,10.957883 C26.5370622,10.6830681 27.1063956,10.5192163 27.6855807,10.495883 C27.8639511,12.3086237 27.3521733,14.1877348 26.2560252,15.6463274 C25.6643956,16.4375867 24.9021733,17.105957 24.0300252,17.5710681 C22.2613585,17.7566978 20.4387659,17.1391422 19.1243215,15.9460311 C19.9186919,15.6193644 20.6741733,15.2024756 21.3752104,14.7062533 C22.303877,14.0606978 23.1303956,13.2849941 23.9724696,12.5336607 C24.6164696,11.9596607 25.2615067,11.3675126 26.0273585,10.957883"/>
    <path fill="gray" d="M28.2352156 10.5166133C28.8273637 10.5669096 29.4003267 10.8225393 29.8151415 11.2513541 29.8115119 12.7509096 29.24166 14.2380207 28.2580304 15.3678726 27.5595859 16.2317244 26.5935859 16.8674281 25.5487711 17.2319467 26.1009933 16.722243 26.6122526 16.1627615 27.0151415 15.5249837 27.9697341 14.0549837 28.3871415 12.258317 28.2352156 10.5166133M5.70039556 26.1359415C5.65061778 26.3480156 5.59928444 26.5595711 5.55365481 26.7732007 5.71646963 26.7312007 5.87721037 26.6829785 6.04002519 26.6420156 6.07891407 26.4729785 6.11884 26.3039415 6.15772889 26.1349044 6.00528444 26.1333489 5.85284 26.1338674 5.70039556 26.1359415M5.05484 25.7346081C5.53498815 25.70246 6.01772889 25.7252748 6.49891407 25.7216452 6.56943259 25.8097933 6.63995111 25.897423 6.71150667 25.9850526 6.64306222 26.2868304 6.56943259 26.5880896 6.49476593 26.8888304 6.13958074 26.9940896 5.7885437 27.1112748 5.43595111 27.2232748 5.40017333 27.395423 5.35765481 27.5665341 5.31772889 27.7381637 5.37891407 27.8138674 5.44165481 27.8895711 5.50076593 27.9678674 5.24928444 28.0332007 4.98639556 27.9880896 4.73024741 28.0010526 4.8925437 27.3295711 5.05898815 26.6596452 5.22335852 25.9886822 5.16580296 25.9046822 5.10772889 25.8212007 5.05484 25.7346081M9.02722074 25.7340896C9.27922074 25.7076452 9.5327763 25.7232007 9.78529481 25.7195711 9.70492444 26.0291267 9.63440593 26.3412748 9.55662815 26.6518674 9.71373926 26.6140156 9.86981333 26.5746081 10.0269244 26.5352007 10.0938133 26.2640156 10.1596652 25.9923119 10.2213689 25.7195711 10.3997393 25.7195711 10.5781096 25.7190526 10.75648 25.7206081 10.5889985 26.3905341 10.4267022 27.061497 10.2612948 27.7319415 10.32248 27.8102378 10.3805541 27.8926822 10.4272207 27.9818674 10.1762578 28.0166081 9.92270222 27.9958674 9.67070222 28.0010526 9.74796148 27.6655711 9.84233185 27.3342378 9.91336889 26.9972007 9.75729481 27.0303859 9.60122074 27.0651267 9.44462815 27.0946822 9.37670222 27.39646 9.30048 27.6966822 9.23462815 27.999497 9.05729481 28.0015711 8.87996148 28.0010526 8.70314667 28.0000156 8.86285037 27.3269785 9.03033185 26.6560156 9.19625778 25.9850526 9.13766519 25.9026081 9.07907259 25.8201637 9.02722074 25.7340896M13.3003111 27.6023274C13.4496444 27.5878089 13.6197185 27.6396607 13.7560889 27.5753644 13.8857185 27.0921052 13.996163 26.6031422 14.1149037 26.1172904 13.9640148 26.1162533 13.8126074 26.1172904 13.6617185 26.1167719 13.5403852 26.611957 13.4159407 27.1061052 13.3003111 27.6023274M13.5310519 25.7268459C13.8338667 25.7118089 14.138237 25.7185496 14.4415704 25.7232163 14.5364593 25.7952904 14.5955704 25.9041793 14.6738667 25.9933644 14.5385333 26.5315867 14.4037185 27.0703274 14.2704593 27.6095867 14.2440148 27.7687719 14.0817185 27.841883 13.9754222 27.9435126 13.9116444 28.0155867 13.8110519 27.997957 13.7260148 28.0021052 13.4854222 27.99692 13.2448296 28.0093644 13.0052741 27.9964015 12.8958667 27.9331422 12.8258667 27.8045496 12.7688296 27.6935867 12.8896444 27.1745496 13.0223852 26.6575867 13.1483852 26.1395867 13.1712 25.9321793 13.3806815 25.8362533 13.5310519 25.7268459M17.0118719 25.7299363C17.5195015 25.7081585 18.0281681 25.7221585 18.5357978 25.7221585 18.4896496 25.9238622 18.4481681 26.12764 18.3859459 26.3257141 18.316983 26.2577881 18.2526867 26.1857141 18.1883904 26.1141585 18.0152052 26.1183067 17.8415015 26.1167511 17.6677978 26.1167511 17.6221681 26.294603 17.577057 26.4729733 17.5345385 26.6518622 17.6926867 26.6518622 17.8508348 26.6534178 18.008983 26.6539363 17.9789089 26.786677 17.9457237 26.9194178 17.9135756 27.0521585 17.7549089 27.0490474 17.5967607 27.0511215 17.4386126 27.0495659 17.3914274 27.23364 17.3494274 27.4187511 17.3063904 27.6038622 17.490983 27.5997141 17.6766126 27.612677 17.8612052 27.59764 17.9586867 27.5354178 18.0452793 27.45764 18.1443163 27.3980104 18.1235756 27.6028252 18.06602 27.8008993 18.0209089 28.0010474L16.6769089 28.0010474C16.8423163 27.3321585 17.0040941 26.6617141 17.1705385 25.9928252 17.11402 25.9072696 17.0585385 25.8211956 17.0118719 25.7299363M21.0221148 25.7200896C21.4353741 25.7200896 21.8481148 25.7169785 22.2613741 25.7216452 22.3313741 25.8118674 22.4013741 25.9020896 22.4724111 25.9923119 22.330337 26.5735711 22.1893 27.1553489 22.0493 27.7376452 22.1084111 27.8102378 22.1675222 27.8833489 22.2261148 27.957497 21.9824111 28.0461637 21.7153741 27.9818674 21.4618185 28.0010526 21.6111519 27.3726081 21.7635963 26.7446822 21.9191519 26.1177933 21.7651519 26.1162378 21.6111519 26.1167563 21.4571519 26.1193489 21.3135222 26.7477933 21.1527815 27.3720896 21.0044852 27.999497 20.8276704 28.0015711 20.650337 28.0010526 20.4740407 28.0005341 20.6508556 27.2388304 20.844263 26.4812748 21.0221148 25.7200896M24.8399563 25.7356607C25.096623 25.7066237 25.3553637 25.7226978 25.6135859 25.7211422 25.4507711 26.3905496 25.2884748 27.059957 25.1189193 27.7278089 25.1769933 27.8061052 25.2345489 27.8854385 25.2905489 27.9668459 25.0442526 28.0342533 24.7844748 27.9891422 24.5329933 27.9984756 24.6937341 27.3244015 24.8643267 26.65292 25.0255859 25.9788459 24.9597341 25.9005496 24.8964748 25.8201793 24.8399563 25.7356607M27.9246126 25.7496607C28.172983 25.6905496 28.4312052 25.7294385 28.6837237 25.7206237 28.73402 25.9466978 28.7988348 26.1686237 28.8532793 26.3936607 29.0202422 26.1706978 29.1872052 25.9472163 29.3495015 25.7206237 29.5247607 25.7190681 29.6995015 25.7190681 29.8747607 25.7195867 29.5755756 26.10692 29.2743163 26.4937348 28.9673533 26.8748459 29.0565385 27.1595126 29.1255015 27.4514385 29.2307607 27.7304015 29.3100941 27.8263274 29.4355756 27.8735126 29.5299459 27.95492 29.2914274 28.0503274 29.0228348 27.9803274 28.7718719 28.0005496 28.7143163 27.7827719 28.6598719 27.5644756 28.5971311 27.3482533 28.4358719 27.563957 28.273057 27.7791422 28.1185385 27.9995126 27.9484644 28.0015867 27.7789089 28.0015867 27.6098719 28.0000311 27.8955756 27.631883 28.1776496 27.2606237 28.466983 26.8955867 28.3886867 26.6228459 28.315057 26.3485496 28.2326126 26.0768459 28.1942422 25.9212904 28.0231311 25.8606237 27.9246126 25.7496607M5.06882963 28.9914385C5.13260741 28.9193644 5.23216296 28.9364756 5.31823704 28.9333644 6.55905185 28.9369941 7.79986667 28.9312904 9.04068148 28.9364756 9.25223704 29.2263274 9.46794074 29.5130681 9.6769037 29.8049941 9.52031111 30.4209941 9.3689037 31.0380311 9.21282963 31.6545496 8.6294963 31.3952904 8.04823704 31.1313644 7.4649037 30.8715867 7.53542222 30.5889941 7.60594074 30.305883 7.67697778 30.0232904L5.98557037 30.0232904C5.84194074 30.6081793 5.69571852 31.1920311 5.54742222 31.775883 6.64201481 32.2332163 7.73453333 32.6962533 8.83068148 33.149957 8.63053333 33.9521052 8.4252 34.7532163 8.22245926 35.5543274 8.19653333 35.6429941 8.18616296 35.7503274 8.10112593 35.8058089 7.77238519 36.0676607 7.45297778 36.3424756 7.12060741 36.5986237 5.81445926 36.621957 4.50571852 36.6012163 3.19853333 36.6084756 3.00616296 36.3326237 2.80601481 36.0614385 2.61208889 35.7866237 2.56801481 35.7358089 2.60431111 35.6663274 2.61053333 35.6103274 2.75623704 35.0373644 2.89675556 34.4628459 3.04297778 33.889883 3.62164444 34.1512163 4.19668148 34.421883 4.77275556 34.689957 4.70482963 34.9658089 4.64364444 35.2437348 4.57468148 35.5195867 5.13986667 35.5175126 5.70557037 35.5237348 6.27075556 35.515957 6.41697778 34.92692 6.56008889 34.3373644 6.70734815 33.7483274 5.61431111 33.28892 4.52023704 32.8315867 3.4272 32.3721793 3.62060741 31.5871422 3.8274963 30.8052163 4.02401481 30.0206978 4.05668148 29.9232163 4.05875556 29.8003274 4.15312593 29.7396607 4.45905185 29.4907719 4.76342222 29.2408459 5.06882963 28.9914385M17.2493585 28.9343963C18.8323956 28.9349148 20.4154326 28.9328407 21.9984696 28.9354333 22.19084 29.2143963 22.40084 29.4814333 22.59684 29.7583222 22.6414326 29.8075815 22.6082474 29.8744704 22.5999511 29.9309889 22.1094326 31.8764704 21.6194326 33.8219519 21.1315067 35.7679519 21.2927659 35.9883222 21.4550622 36.2092111 21.6126919 36.4326926 21.5307659 36.4918037 21.4597289 36.5949889 21.3456548 36.5742481 20.5600993 36.5726926 19.7750622 36.5758037 18.9895067 36.5726926 19.5349881 34.3892111 20.0882474 32.2083222 20.6306178 30.0243222 20.0612844 30.0227667 19.4924696 30.0217296 18.9231363 30.0248407 18.3724696 32.2057296 17.8275067 34.3881741 17.2846178 36.571137 16.6302474 36.5763222 15.975877 36.5737296 15.3220252 36.5726926 15.9603215 34.0257296 16.6022474 31.4792852 17.2493585 28.9343963M24.5744696 28.9411319C25.8749141 28.9276504 27.1769141 28.9343911 28.4773585 28.9380207 28.6811363 29.2320207 28.8999511 29.5151319 29.1094326 29.8055022 28.9507659 30.4220207 28.799877 31.0400948 28.6443215 31.6571319 28.0625437 31.396317 27.4823215 31.130317 26.8979511 30.8757244 26.9632844 30.5905393 27.0405437 30.3079467 27.1063956 30.02328 26.5432844 30.0237985 25.9801733 30.0217244 25.4170622 30.0248356 25.2729141 30.6086874 25.1272104 31.1930578 24.9789141 31.7763911 26.0724696 32.23528 27.1660252 32.6936504 28.2595807 33.1520207 28.0386919 34.0163911 27.8343956 34.8869837 27.5943215 35.7446133 27.2567659 36.0370578 26.9052104 36.3139467 26.559877 36.5965393 25.3055807 36.6250578 24.0471363 36.5986133 22.7912844 36.6095022 22.72284 36.602243 22.6295067 36.630243 22.5900993 36.5550578 22.3966919 36.282317 22.2006919 36.0111319 22.009877 35.7368356 22.1690622 35.1218726 22.3152844 34.50328 22.4765437 33.8888356 23.0520993 34.1527615 23.6255807 34.4218726 24.2006178 34.6878726 24.1295807 34.9647615 24.065803 35.2437244 23.9885437 35.5190578 24.5583956 35.5200948 25.1282474 35.5190578 25.6980993 35.5195763 25.8500252 34.9305393 25.9863956 34.3378726 26.1383215 33.7488356 25.0452844 33.2883911 23.9496548 32.8336504 22.8571363 32.3706133 23.0552104 31.5679467 23.2693585 30.7694281 23.465877 29.9667615 23.4897289 29.8817244 23.5083956 29.7837244 23.589803 29.7339467 23.9216548 29.4736504 24.235877 29.1910578 24.5744696 28.9411319M10.0544059 29.0956504C10.1321837 29.0474281 10.1990726 28.960317 10.3001837 28.9696504 11.0981837 28.9686133 11.8967022 28.9675763 12.6947022 28.9706874 12.1450726 31.1541689 11.5866281 33.3355763 11.0385541 35.5195763 11.6089244 35.5180207 12.1792948 35.5226874 12.7496652 35.5169837 13.2941096 33.3324652 13.8567022 31.1520948 14.4042578 28.9680948 15.0581096 28.9696504 15.7119615 28.9686133 16.3663319 28.9686133 15.72648 31.5160948 15.0798874 34.0615022 14.4405541 36.6084652 12.8538874 36.6089837 11.2672207 36.6074281 9.68055407 36.6089837 9.46796148 36.3170578 9.23255407 36.0370578 9.04744296 35.7280207 9.53796148 33.7415763 10.0523319 31.7597985 10.5568504 29.7764652 10.3878133 29.5503911 10.2229244 29.3217244 10.0544059 29.0956504"/>
  </g>
</svg>
