<svg id="Ken_Icon" data-name="Ken Icon" xmlns="http://www.w3.org/2000/svg" xmlns:xlink="http://www.w3.org/1999/xlink" viewBox="0 0 800 800"><defs><style>.cls-1{fill:url(#linear-gradient);}.cls-2{opacity:0.07;}.cls-3{fill:#fff;}.cls-4{fill:#bed3d2;}.cls-5{fill:#01767b;}</style><linearGradient id="linear-gradient" x1="398.35" y1="5.6" x2="402.31" y2="807.6" gradientTransform="matrix(1, 0, 0, -1, -0.3, 800)" gradientUnits="userSpaceOnUse"><stop offset="0" stop-color="#01949a"/><stop offset="0.52" stop-color="#01b0a3"/><stop offset="1" stop-color="#00cdac"/></linearGradient></defs><title>Spacer</title><g id="Spacer"><rect id="bg" class="cls-1" width="800" height="800"/><g id="Shadow" class="cls-2"><path d="M550.1,191H234.4c-4.1,0-7.5,4.22-7.5,9.32v128c0,5.1,3.4,9.32,7.5,9.32H550.1c4.1,0,7.5-4.22,7.5-9.32V200.32C557.6,195.22,554.3,191,550.1,191Z" transform="translate(-0.3)"/><path d="M403.48,433.45a1.72,1.72,0,0,1-1.74-1.74V388.29a1.72,1.72,0,0,1,1.74-1.74h12.18a1.71,1.71,0,0,0,1.21-2.95l-23.75-23.74a1.79,1.79,0,0,0-2.5,0L366.88,383.6a1.71,1.71,0,0,0,1.21,2.95H381a1.72,1.72,0,0,1,1.74,1.74v43.42a1.72,1.72,0,0,1-1.74,1.74H368.84a1.71,1.71,0,0,0-1.21,2.95l23.75,23.74a1.79,1.79,0,0,0,2.5,0l23.74-23.74a1.71,1.71,0,0,0-1.21-2.95Z" transform="translate(-0.3)"/><path d="M550.15,475.76H234.45c-4.1,0-7.5,4.22-7.5,9.31V613c0,5.09,3.4,9.32,7.5,9.32h315.7c4.1,0,7.5-4.23,7.5-9.32v-128C557.65,480,554.35,475.76,550.15,475.76Z" transform="translate(-0.3)"/></g><path class="cls-3" d="M411.48,426.45a1.72,1.72,0,0,1-1.74-1.74V381.29a1.72,1.72,0,0,1,1.74-1.74h12.18a1.71,1.71,0,0,0,1.21-2.95l-23.75-23.74a1.79,1.79,0,0,0-2.5,0L374.88,376.6a1.71,1.71,0,0,0,1.21,2.95H389a1.72,1.72,0,0,1,1.74,1.74v43.42a1.72,1.72,0,0,1-1.74,1.74H376.84a1.71,1.71,0,0,0-1.21,2.95l23.75,23.74a1.79,1.79,0,0,0,2.5,0l23.74-23.74a1.71,1.71,0,0,0-1.21-2.95Z" transform="translate(-0.3)"/><path class="cls-3" d="M558.1,184H242.4c-4.1,0-7.5,4.22-7.5,9.32v128c0,5.1,3.4,9.32,7.5,9.32H558.1c4.1,0,7.5-4.22,7.5-9.32V193.32C565.6,188.22,562.3,184,558.1,184Z" transform="translate(-0.3)"/><rect class="cls-4" x="293.2" y="242.29" width="213" height="15.9" rx="7.19"/><rect class="cls-4" x="293.2" y="267.38" width="213" height="15.9" rx="7.19"/><rect class="cls-4" x="317.95" y="292.48" width="163.49" height="15.9" rx="7.19"/><rect class="cls-5" x="336.78" y="206.22" width="128.88" height="24.8" rx="4.86"/><path class="cls-3" d="M558.15,468.76H242.45c-4.1,0-7.5,4.22-7.5,9.31V606c0,5.09,3.4,9.32,7.5,9.32h315.7c4.1,0,7.5-4.23,7.5-9.32v-128C565.65,473,562.35,468.76,558.15,468.76Z" transform="translate(-0.3)"/><rect class="cls-4" x="293.25" y="527.05" width="213" height="15.9" rx="7.19"/><rect class="cls-4" x="293.25" y="552.14" width="213" height="15.9" rx="7.19"/><rect class="cls-4" x="318" y="577.23" width="163.49" height="15.9" rx="7.19"/><rect class="cls-5" x="336.83" y="490.98" width="128.88" height="24.8" rx="4.86"/></g></svg>