<?xml version="1.0" encoding="UTF-8"?>
<svg width="254px" height="18px" viewBox="0 0 254 18" version="1.1" xmlns="http://www.w3.org/2000/svg" xmlns:xlink="http://www.w3.org/1999/xlink">
    <!-- Generator: sketchtool 62 (101010) - https://sketch.com -->
    <title>2B5D83F6-0FEB-4E2D-899E-2F3D8E9205D3@3x</title>
    <desc>Created with sketchtool.</desc>
    <g id="Page-2" stroke="none" stroke-width="1" fill="none" fill-rule="evenodd">
        <g id="01---with-differential-covenience-fee-[mobile-web]" transform="translate(-106.000000, -537.000000)">
            <g id="02---QR-code-shown" transform="translate(74.000000, 298.000000)">
                <g id="card">
                    <g id="contents" transform="translate(16.000000, 107.000000)">
                        <g id="payment-options" transform="translate(0.000000, 121.000000)">
                            <g id="upi">
                                <g id="upi-logos-colour" transform="translate(16.000000, 11.000000)">
                                    <rect id="Rectangle" fill="#FFFFFF" x="0" y="0" width="254" height="18"></rect>
                                    <g id="Group" transform="translate(108.000000, 0.000000)" fill-rule="nonzero">
                                        <path d="M8.82949807,4.61852778e-14 C3.95302703,4.61852778e-14 3.19744231e-14,3.95302703 3.19744231e-14,8.82905792 C3.19744231e-14,13.705529 3.95302703,17.6581158 8.82905792,17.6581158 C13.7050888,17.6581158 17.658556,13.705529 17.658556,8.82905792 C17.658556,3.95302703 13.705529,4.61852778e-14 8.82949807,4.61852778e-14 Z" id="Path" fill="#673AB7"></path>
                                        <path d="M12.8665946,6.43681853 L12.8665946,6.73876448 C12.8665946,6.82767568 12.8441467,6.894139 12.7996911,6.93859459 C12.7552355,6.98305019 12.6887722,7.00549807 12.599861,7.00549807 L12.1368185,7.00549807 L11.6737761,7.00549807 C11.622278,7.00549807 11.5839846,7.01914286 11.5580154,7.04731274 C11.5324865,7.07548263 11.519722,7.11773745 11.519722,7.17363707 L11.519722,10.7657375 L11.519722,14.3569575 C11.519722,14.4458687 11.4972741,14.5127722 11.4532587,14.5567876 C11.4088031,14.6012432 11.3418996,14.6236911 11.2529884,14.6236911 L10.8810579,14.6236911 L10.5095676,14.6236911 C10.4206564,14.6236911 10.3537529,14.6012432 10.3092973,14.5567876 C10.2652819,14.5127722 10.242834,14.4463089 10.242834,14.3569575 L10.242834,13.0589421 L10.242834,11.7613668 L10.2155444,11.7613668 L10.1873745,11.7613668 C10.074695,11.9576757 9.91095753,12.1046873 9.69572201,12.2032819 C9.48092664,12.3014363 9.2146332,12.3502934 8.89596139,12.3502934 L8.69261004,12.3502934 L8.48925869,12.3502934 C8.16662548,12.3502934 7.87612355,12.3027568 7.6177529,12.2081236 C7.35894208,12.1139305 7.1327027,11.9717606 6.93859459,11.7820541 C6.74448649,11.5932278 6.59923552,11.368749 6.50196139,11.1108185 C6.40512741,10.8520077 6.35627027,10.5588649 6.35627027,10.2322703 L6.35627027,8.70273359 L6.35627027,7.17363707 C6.35627027,7.12257915 6.34570656,7.0825251 6.32457915,7.05435521 C6.30389189,7.02618533 6.27220077,7.00989961 6.22994595,7.00549807 L5.82280309,7.00549807 L5.41610039,7.00549807 C5.32718919,7.00549807 5.26072587,6.98172973 5.21627027,6.93507336 C5.17181467,6.88841699 5.1493668,6.81887259 5.1493668,6.72467954 L5.1493668,6.43021622 L5.1493668,6.13531274 C5.1493668,6.05124324 5.17181467,5.987861 5.21627027,5.94648649 C5.26072587,5.90423166 5.32718919,5.88310425 5.41610039,5.88310425 L7.48262548,5.88310425 L9.54915058,5.88310425 C9.25028571,5.57191506 8.96066409,5.24267954 8.68072587,4.89451737 C8.40078764,4.54591506 8.13097297,4.17926641 7.87128185,3.79281081 L7.47822394,3.21004633 L7.08604633,2.62816216 C7.06755985,2.59603089 7.05391506,2.56169884 7.04423166,2.52692664 C7.03498842,2.49171429 7.02970656,2.45562162 7.02970656,2.41820849 C7.02970656,2.34822394 7.04731274,2.29540541 7.0825251,2.26019305 C7.1172973,2.22542085 7.17011583,2.20781467 7.24010039,2.20781467 L7.6679305,2.20781467 L8.09576062,2.20781467 C8.17983012,2.20781467 8.2524556,2.22542085 8.31363707,2.26019305 C8.37437838,2.29540541 8.42367568,2.34822394 8.4610888,2.41820849 L9.46420077,4.03181467 L10.4673127,5.64498069 C10.519251,5.72464865 10.5751506,5.78450965 10.636332,5.8236834 C10.6970734,5.8632973 10.7626564,5.88310425 10.8326409,5.88310425 L10.8678533,5.88310425 L10.9030656,5.88310425 L11.7516834,5.88310425 L12.6003012,5.88310425 C12.6892124,5.88310425 12.7556757,5.90379151 12.8001313,5.94648649 C12.8445869,5.98830116 12.8670347,6.05124324 12.8670347,6.13531274 L12.8670347,6.43681853 L12.8665946,6.43681853 Z" id="Path" fill="#FFFFFF"></path>
                                        <path d="M10.0887799,7.00505792 L8.93821622,7.00505792 L7.78765251,7.00505792 C7.73571429,7.00505792 7.69698069,7.0187027 7.67145174,7.04687259 C7.64592278,7.07504247 7.6331583,7.1172973 7.6331583,7.17319691 L7.6331583,8.63979151 L7.6331583,10.1055058 C7.6331583,10.4703938 7.7220695,10.7437297 7.89989189,10.9259537 C8.07771429,11.1086178 8.34444788,11.1997297 8.69965251,11.1997297 L8.88891892,11.1997297 L9.07818533,11.1997297 C9.27493436,11.1997297 9.44615444,11.1746409 9.59184556,11.1244633 C9.73797683,11.0742857 9.85901931,10.9985792 9.95453282,10.8982239 C10.0504865,10.7974286 10.1226718,10.679027 10.1706486,10.5425792 C10.2186255,10.405251 10.242834,10.2507568 10.242834,10.0777761 L10.242834,8.62570656 L10.242834,7.17363707 C10.242834,7.11773745 10.2300695,7.07504247 10.2041004,7.04731274 C10.1785714,7.0187027 10.140278,7.00505792 10.0887799,7.00505792 Z" id="Path" fill="#673AB7"></path>
                                    </g>
                                    <g id="Google_Pay_(GPay)_Logo" transform="translate(134.000000, 1.000000)" fill-rule="nonzero">
                                        <path d="M17.3525714,7.82445714 L17.3525714,12.4644571 L15.8805714,12.4644571 L15.8805714,1.00571429 L19.7845714,1.00571429 C20.7258043,0.98605302 21.6358971,1.34317806 22.3125714,1.99771429 C22.9972101,2.61353902 23.3822287,3.49524833 23.3685714,4.416 C23.3881806,5.34189442 23.0024759,6.23018388 22.3125714,6.848 C21.6299048,7.49897143 20.7872381,7.82415238 19.7845714,7.82354286 L17.3525714,7.82354286 L17.3525714,7.82445714 Z M17.3525714,2.41645714 L17.3525714,6.41645714 L19.8211429,6.41645714 C20.3683602,6.43267751 20.8970897,6.21760113 21.2776,5.824 C21.6558016,5.45630339 21.8691789,4.95125345 21.8691789,4.42377143 C21.8691789,3.89628941 21.6558016,3.39123947 21.2776,3.02354286 C20.9017046,2.62148258 20.3713343,2.40007878 19.8211429,2.41554286 L17.3525714,2.41554286 L17.3525714,2.41645714 Z" id="Shape" fill="#5F6368"></path>
                                        <path d="M26.7605714,4.36845714 C27.8485714,4.36845714 28.7073905,4.6592 29.3370286,5.24068571 C29.9666667,5.82217143 30.281181,6.61942857 30.2805723,7.63245714 L30.2805723,12.4644571 L28.8725714,12.4644571 L28.8725714,11.3764571 L28.8085714,11.3764571 C28.1990476,12.2724571 27.388381,12.7204571 26.3765714,12.7204571 C25.5128762,12.7204571 24.7902857,12.4644571 24.2088,11.9524571 C23.6436487,11.4765452 23.3232108,10.7711788 23.3365714,10.0324571 C23.3365714,9.22118095 23.6431619,8.576 24.2563429,8.09691429 C24.8695238,7.61782857 25.6881143,7.37767619 26.7121143,7.37645714 C27.5861714,7.37645714 28.306019,7.53645714 28.8716571,7.85645714 L28.8716571,7.52 C28.8750325,7.01642276 28.6517786,6.53802157 28.2636571,6.21714286 C27.8743966,5.86594564 27.3670952,5.67432022 26.8428571,5.68045714 C26.0206095,5.68045714 25.3699429,6.02727619 24.8908571,6.72091429 L23.5944,5.90445714 C24.3075429,4.88045714 25.3629333,4.36845714 26.7605714,4.36845714 Z M24.8560979,10.0644571 C24.8541118,10.4445635 25.0359898,10.8021887 25.3443429,11.0244571 C25.6698999,11.280544 26.0739793,11.4162061 26.4881143,11.4084571 C27.1092757,11.4074191 27.7046932,11.1601778 28.1438857,10.7209143 C28.6315048,10.2619429 28.8753143,9.72342857 28.8753143,9.10537143 C28.4163429,8.73965714 27.7763429,8.5568 26.9553143,8.5568 C26.3573714,8.5568 25.858781,8.70095238 25.4595429,8.98925714 C25.0563429,9.28182857 24.8560979,9.63748571 24.8560979,10.0644571 L24.8560979,10.0644571 Z" id="Shape" fill="#5F6368"></path>
                                        <polygon id="Path" fill="#5F6368" points="38.3628571 4.62445714 33.4476571 15.9204571 31.9281143 15.9204571 33.7521143 11.968 30.5201143 4.62445714 32.1201143 4.62445714 34.4561143 10.2564571 34.4881143 10.2564571 36.7601143 4.62445714"></polygon>
                                        <path d="M12.9042346,6.82422857 C12.9047836,6.37563609 12.8668541,5.92782285 12.7908571,5.48571429 L6.58285714,5.48571429 L6.58285714,8.02102857 L10.1385143,8.02102857 C9.99148899,8.83927048 9.51654685,9.56192236 8.82377143,10.0214857 L8.82377143,11.6672 L10.9458286,11.6672 C12.1883429,10.5216 12.9042346,8.82742857 12.9042346,6.82422857 Z" id="Path" fill="#4285F4"></path>
                                        <path d="M6.58285714,13.2571429 C8.35931429,13.2571429 9.85508571,12.6738286 10.9458286,11.6681143 L8.82377143,10.0224 C8.23314286,10.4228571 7.47245714,10.6514286 6.58285714,10.6514286 C4.86582857,10.6514286 3.40845714,9.49394286 2.88731429,7.93417143 L0.701257143,7.93417143 L0.701257143,9.63017143 C1.81865498,11.853675 4.09437447,13.2570294 6.58285714,13.2571429 Z" id="Path" fill="#34A853"></path>
                                        <path d="M2.88731429,7.93417143 C2.61180475,7.11684059 2.61180475,6.23173084 2.88731429,5.4144 L2.88731429,3.7184 L0.701257143,3.7184 C-0.233352359,5.57817408 -0.233352359,7.77039735 0.701257143,9.63017143 L2.88731429,7.93417143 Z" id="Path" fill="#FBBC04"></path>
                                        <path d="M6.58285714,2.69714286 C7.5216343,2.68180572 8.42874225,3.03650398 9.10811429,3.68457143 L9.10811429,3.68457143 L10.9869714,1.80571429 C9.79558038,0.686697886 8.21725181,0.0723391447 6.58285714,0.0914285714 C4.09437447,0.0915419865 1.81865498,1.49489644 0.701257143,3.7184 L2.88731429,5.4144 C3.40845714,3.85462857 4.86582857,2.69714286 6.58285714,2.69714286 Z" id="Path" fill="#EA4335"></path>
                                    </g>
                                    <g id="paytm-logo" transform="translate(181.000000, 1.000000)" fill-rule="nonzero">
                                        <path d="M44.3715035,12.0288925 C43.9673702,13.184359 42.8660369,14.0140923 41.572437,14.0140923 L41.5453703,14.0140923 C40.7044371,14.0140923 39.9465705,13.6640923 39.4071038,13.1022257 C38.8667039,13.6640923 38.1088373,14.0140923 37.2688373,14.0140923 L37.2417706,14.0140923 C36.5025707,14.0140923 35.8268374,13.7434257 35.3079041,13.2954257 L35.3079041,13.523159 C35.2901708,13.749959 35.1035041,13.9282257 34.8729708,13.9282257 L32.8887043,13.9282257 C32.6460376,13.9282257 32.4500377,13.7322257 32.4500377,13.4886257 L32.4500377,2.71329314 C32.4500377,2.46969316 32.6460376,2.27369317 32.8887043,2.27369317 L34.8729708,2.27369317 C35.0941708,2.27369317 35.2761708,2.43889316 35.3051041,2.65262648 L35.3041708,10.3880926 C35.3041708,10.4151592 35.3051041,10.4403592 35.3079041,10.4655592 C35.3396375,10.8108926 35.5925708,11.0946259 35.9920374,11.1300925 L36.0657707,11.1300925 L36.2739041,11.1300925 L36.357904,11.1300925 C36.5249707,11.1151592 36.665904,11.0563592 36.7769707,10.9676925 C36.9496373,10.8304926 37.0457707,10.6195592 37.0457707,10.3880926 L37.0532373,2.69089314 C37.0532373,2.44729316 37.2501706,2.25035984 37.491904,2.25035984 L39.4761705,2.25035984 C39.7104371,2.25035984 39.9008371,2.43702649 39.9120371,2.66942647 L39.9111038,10.3983593 C39.9101705,10.6522259 40.0277704,10.8818259 40.2340371,11.0180925 C40.3357704,11.0834259 40.4580371,11.1272925 40.5989704,11.1403592 L40.6727037,11.1403592 L40.8808371,11.1403592 L40.964837,11.1403592 C41.3941703,11.1030259 41.653637,10.7772926 41.6527037,10.3983593 L41.6601703,2.71142647 C41.6601703,2.46782649 41.8571036,2.2718265 42.098837,2.2718265 L44.0831035,2.2718265 C44.3248368,2.2718265 44.5217701,2.46782649 44.5217701,2.71142647 L44.5217701,10.9788925 C44.5217701,11.5426258 44.4583035,11.7824925 44.3715035,12.0288925" id="path462" fill="#05BCF9" transform="translate(38.485904, 8.132226) scale(-1, 1) rotate(180.000000) translate(-38.485904, -8.132226) "></path>
                                        <path d="M30.9384111,11.7095992 L29.8034779,11.7095992 L29.8034779,13.5482657 L29.8034779,13.5482657 C29.8034779,13.5501324 29.8034779,13.551999 29.8034779,13.5538657 C29.8034779,13.7750657 29.6242779,13.9542657 29.4030779,13.9542657 C29.3769445,13.9542657 29.3517446,13.9505323 29.3274779,13.9458657 C28.0693446,13.6005324 28.3213446,11.8579991 26.0244115,11.7095992 L25.9730781,11.7095992 L25.8013448,11.7095992 C25.7677448,11.7095992 25.7360115,11.7049325 25.7052115,11.6983992 L25.7033448,11.6983992 L25.7052115,11.6974658 C25.5092115,11.6535992 25.3617448,11.4799992 25.3617448,11.2709325 L25.3617448,9.286666 C25.3617448,9.04493268 25.5586782,8.84799936 25.8013448,8.84799936 L26.9988114,8.84799936 L26.9969447,0.433999969 C26.9969447,0.194133319 27.191078,1.20792265e-13 27.4309447,1.20792265e-13 L29.3928112,1.20792265e-13 C29.6317445,1.20792265e-13 29.8258778,0.194133319 29.8258778,0.433999969 L29.8268112,8.84799936 L30.9384111,8.84799936 C31.1801444,8.84799936 31.3770777,9.04493268 31.3770777,9.286666 L31.3770777,11.2709325 C31.3770777,11.5126658 31.1801444,11.7095992 30.9384111,11.7095992" id="path466" fill="#05BCF9" transform="translate(28.369411, 6.977133) scale(-1, 1) rotate(180.000000) translate(-28.369411, -6.977133) "></path>
                                        <path d="M23.7992516,13.999999 L21.8149851,13.999999 C21.5732518,13.999999 21.3772518,13.8030657 21.3772518,13.5613324 L21.3772518,9.45839932 C21.3725851,9.20453267 21.1672518,9.00106602 20.9124518,9.00106602 L20.0817852,9.00106602 C19.8241852,9.00106602 19.6160519,9.208266 19.6160519,9.46586598 L19.6085853,13.5613324 C19.6085853,13.8030657 19.4116519,13.999999 19.1699186,13.999999 L17.1856521,13.999999 C16.9429854,13.999999 16.7469855,13.8030657 16.7469855,13.5613324 L16.7469855,9.06453268 C16.7469855,7.3565328 17.9649854,6.13853289 19.6739186,6.13853289 C19.6739186,6.13853289 20.9563185,6.13853289 20.9955185,6.13106622 C21.2269851,6.10493289 21.4071185,5.91079957 21.4071185,5.67186626 C21.4071185,5.43573294 21.2307185,5.24253296 21.0020518,5.21359962 C20.9908518,5.21173296 20.9805852,5.20893296 20.9684518,5.20706629 L18.0667187,5.19679963 C17.824052,5.19679963 17.6280521,4.99986631 17.6280521,4.75813299 L17.6280521,2.7747998 C17.6280521,2.53213315 17.824052,2.33613316 18.0667187,2.33613316 L21.3109851,2.33613316 C23.0208517,2.33613316 24.2379183,3.55319974 24.2379183,5.26213295 L24.2379183,13.5613324 C24.2379183,13.8030657 24.0419183,13.999999 23.7992516,13.999999" id="path470" fill="#002C73" transform="translate(20.492452, 8.168066) scale(-1, 1) rotate(180.000000) translate(-20.492452, -8.168066) "></path>
                                        <path d="M4.592933,10.3763326 L4.592933,9.45046599 L4.592933,9.15179934 C4.592933,8.89513269 4.38479968,8.68606604 4.12813304,8.68606604 L2.86906646,8.68513271 L2.86906646,11.1388659 L4.12813304,11.1388659 C4.38479968,11.1388659 4.592933,10.9316659 4.592933,10.6740659 L4.592933,10.3763326 Z M4.76746632,14.012599 L0.430266636,14.012599 C0.192266653,14.012599 -5.77315973e-15,13.819399 -5.77315973e-15,13.5823324 L-5.77315973e-15,11.6381992 C-5.77315973e-15,11.6344658 0.000933333266,11.6307325 0.000933333266,11.6269992 C0.000933333266,11.6176658 -5.77315973e-15,11.6083325 -5.77315973e-15,11.5999325 L-5.77315973e-15,5.36433295 L-5.77315973e-15,2.80046646 C-5.77315973e-15,2.56153315 0.179199987,2.3664665 0.401333304,2.3608665 L0.438666635,2.3608665 L2.42293316,2.3608665 C2.66466647,2.3608665 2.86159979,2.55686648 2.86159979,2.79953313 L2.86906646,5.81513291 L4.76746632,5.81513291 C6.35599954,5.81513291 7.4629328,6.9173995 7.4629328,8.51246605 L7.4629328,11.3115325 C7.4629328,12.9065991 6.35599954,14.012599 4.76746632,14.012599" id="path474" fill="#002C73" transform="translate(3.731466, 8.186733) scale(-1, 1) rotate(180.000000) translate(-3.731466, -8.186733) "></path>
                                        <path d="M12.8259591,5.77107958 L12.8259591,5.46121294 C12.8259591,5.43601294 12.8222257,5.41174628 12.8184924,5.38841294 C12.8138257,5.36601295 12.8072924,5.34454628 12.7998257,5.32401295 C12.7382257,5.15041296 12.5646258,5.02441297 12.3583591,5.02441297 L11.5323592,5.02441297 C11.2747592,5.02441297 11.0647592,5.22041296 11.0647592,5.46121294 L11.0647592,5.83547958 C11.0647592,5.84014625 11.0638259,5.84481291 11.0638259,5.84947958 L11.0647592,6.84534617 L11.0647592,6.84721284 L11.0647592,6.95734617 L11.0647592,7.15707948 L11.0656925,7.15987948 C11.0666259,7.39974613 11.2747592,7.59387945 11.5323592,7.59387945 L12.3583591,7.59387945 C12.6168924,7.59387945 12.8259591,7.3988128 12.8259591,7.15707948 L12.8259591,5.77107958 Z M12.5104924,14.0544123 L9.7571593,14.0544123 C9.51355931,14.0544123 9.316626,13.8696123 9.316626,13.6428123 L9.316626,12.8709457 C9.316626,12.8662791 9.31755933,12.8606791 9.31755933,12.8560124 C9.31755933,12.8504124 9.316626,12.8448124 9.316626,12.8392124 L9.316626,11.7817458 C9.316626,11.5418792 9.52569265,11.3458792 9.78329263,11.3458792 L12.4050258,11.3458792 C12.6122258,11.3132125 12.7764924,11.1620125 12.7998257,10.9258792 L12.7998257,10.6701459 C12.7764924,10.4452126 12.6140924,10.2809459 12.4162258,10.2622793 L11.1179592,10.2622793 C9.39129266,10.2622793 8.16115941,9.11521268 8.16115941,7.50427946 L8.16115941,5.25587962 L8.16115941,5.19707963 C8.16115941,3.59547974 9.218626,2.45587982 10.9331592,2.45587982 L14.531159,2.45587982 C15.1770256,2.45587982 15.7006255,2.94494645 15.7006255,3.54694641 L15.7006255,11.0761459 C15.7006255,12.9017457 14.7598256,14.0544123 12.5104924,14.0544123" id="path478" fill="#002C73" transform="translate(11.930892, 8.255146) scale(-1, 1) rotate(180.000000) translate(-11.930892, -8.255146) "></path>
                                    </g>
                                    <g id="bhim-logo" transform="translate(28.000000, 2.000000)" fill-rule="nonzero">
                                        <polygon id="Path" fill="#008B44" points="67.4896552 0 71.0137931 7 63.6155172 14"></polygon>
                                        <polygon id="Path" fill="#F37920" points="65.0275862 0 68.5396552 7 61.1413793 14"></polygon>
                                        <path d="M19.1474138,0.0543103448 C19.5517241,0.0543103448 19.8534483,0.187068966 20.0405172,0.452586207 C20.2275862,0.718103448 20.2698276,1.05603448 20.1551724,1.46034483 L20.1551724,1.46034483 L18.9844828,5.64827586 C18.8818966,6.02844828 18.6525862,6.35431034 18.3086207,6.61982759 C17.9646552,6.88534483 17.5965517,7.01810345 17.2043103,7.01810345 C17.5905172,7.01810345 17.8862069,7.14482759 18.0853448,7.40431034 C18.2844828,7.6637931 18.3327586,7.98362069 18.2241379,8.3637931 L18.2241379,8.3637931 L17.0534483,12.5577586 C16.9448276,12.95 16.7155172,13.2758621 16.3715517,13.5413793 C16.0215517,13.8068966 15.6534483,13.9396552 15.2672414,13.9396552 L15.2672414,13.9396552 L0,13.9396552 L3.88017241,0.0543103448 Z M14.3681034,8.35775862 L4.33275862,8.35775862 L3.5362069,11.2181034 L13.475,11.2181034 C14.1267241,11.1396552 14.6698276,10.7232759 14.9413793,10.1560345 L14.9413793,10.1560345 L15.1163793,9.54051724 L15.1163793,9.54051724 L15.1163793,9.4862069 L15.1163793,9.4862069 L15.1224138,9.35948276 C15.1224138,9.26896552 15.1163793,9.19051724 15.1043103,9.10603448 C15.0198276,8.73793103 14.7362069,8.44827586 14.3681034,8.35775862 L14.3681034,8.35775862 Z M15.9491379,2.75775862 L5.89568966,2.75775862 L5.09310345,5.64224138 L15.0137931,5.64224138 C15.6956897,5.55775862 16.262931,5.11724138 16.5224138,4.50775862 L16.5224138,4.50775862 L16.6189655,4.15775862 L16.6431034,4.06724138 C16.6551724,3.97068966 16.6672414,3.87413793 16.6672414,3.77758621 C16.6672414,3.59051724 16.637069,3.41551724 16.5887931,3.24655172 C16.4560345,3.00517241 16.2267241,2.82413793 15.9491379,2.75775862 L15.9491379,2.75775862 Z" id="Combined-Shape" fill="#70706E"></path>
                                        <polygon id="Path" fill="#70706E" points="36.1465517 0.0543103448 34.6077586 5.6362069 23.5948276 5.6362069 25.1336207 0.0543103448 22.3939655 0.0543103448 18.5801724 13.9034483 21.3198276 13.9034483 22.8525862 8.34568966 33.8655172 8.34568966 32.3327586 13.9034483 35.0724138 13.9034483 38.8862069 0.0543103448"></polygon>
                                        <polygon id="Path" fill="#70706E" points="39.6827586 13.9456897 36.925 13.9456897 40.7568966 0.102586207 43.5146552 0.102586207"></polygon>
                                        <polygon id="Path" fill="#70706E" points="62.6862069 0.0905172414 51.2448276 9.78189655 47.2560345 3.15603448 45.4094828 0.0905172414 45.3612069 0.0905172414 44.4922414 3.23448276 41.5534483 13.8974138 44.2931034 13.8974138 46.3568966 6.42068966 50.7258621 13.9155172 57.9551724 7.28362069 56.1387931 13.8974138 58.8784483 13.8974138 61.5517241 4.20603448 62.6922414 0.0905172414"></polygon>
                                    </g>
                                </g>
                            </g>
                        </g>
                    </g>
                </g>
            </g>
        </g>
    </g>
</svg>