<?xml version="1.0" encoding="UTF-8"?>
<svg xmlns="http://www.w3.org/2000/svg" xmlns:xlink="http://www.w3.org/1999/xlink" width="16px" height="16px" viewBox="0 0 16 16" version="1.1">
<g id="surface1">
<path style=" stroke:none;fill-rule:nonzero;fill:rgb(26.27451%,0%,59.607843%);fill-opacity:1;" d="M 16 14.75 C 16 15.441406 15.441406 16 14.75 16 L 1.25 16 C 0.558594 16 0 15.441406 0 14.75 L 0 1.25 C 0 0.558594 0.558594 0 1.25 0 L 14.75 0 C 15.441406 0 16 0.558594 16 1.25 Z M 16 14.75 "/>
<path style=" stroke:none;fill-rule:evenodd;fill:rgb(100%,40.392157%,10.588235%);fill-opacity:1;" d="M 14.316406 8.804688 C 14.492188 8.804688 14.636719 8.945312 14.636719 9.125 C 14.636719 9.304688 14.492188 9.445312 14.316406 9.445312 C 14.136719 9.445312 13.992188 9.304688 13.992188 9.125 C 13.992188 8.945312 14.136719 8.804688 14.316406 8.804688 Z M 14.316406 8.863281 C 14.460938 8.863281 14.578125 8.980469 14.578125 9.125 C 14.578125 9.269531 14.460938 9.386719 14.316406 9.386719 C 14.171875 9.386719 14.054688 9.269531 14.054688 9.125 C 14.054688 8.976562 14.171875 8.863281 14.316406 8.863281 Z M 14.191406 8.929688 C 14.242188 8.929688 14.292969 8.929688 14.347656 8.929688 C 14.484375 8.945312 14.492188 9.078125 14.382812 9.125 C 14.480469 9.148438 14.421875 9.253906 14.460938 9.308594 C 14.4375 9.308594 14.410156 9.308594 14.382812 9.308594 C 14.367188 9.257812 14.390625 9.148438 14.320312 9.148438 C 14.296875 9.148438 14.273438 9.148438 14.253906 9.148438 C 14.253906 9.203125 14.253906 9.257812 14.253906 9.308594 C 14.230469 9.308594 14.210938 9.308594 14.191406 9.308594 C 14.191406 9.179688 14.191406 9.054688 14.191406 8.929688 Z M 14.25 8.992188 L 14.328125 8.992188 C 14.410156 8.992188 14.402344 9.085938 14.328125 9.085938 L 14.25 9.085938 Z M 14.25 8.992188 "/>
<path style=" stroke:none;fill-rule:evenodd;fill:rgb(100%,100%,100%);fill-opacity:1;" d="M 6.765625 6.554688 C 7.445312 6.535156 7.867188 6.8125 7.882812 7.414062 L 7.882812 9.441406 L 6.933594 9.441406 C 6.933594 8.960938 6.933594 8.191406 6.933594 7.621094 C 6.949219 7.371094 6.695312 7.339844 6.609375 7.347656 L 6.308594 7.347656 C 6.308594 7.988281 6.308594 8.804688 6.308594 9.445312 C 5.914062 9.445312 5.761719 9.445312 5.367188 9.445312 C 5.367188 8.808594 5.367188 7.984375 5.367188 7.347656 C 5.21875 7.347656 4.898438 7.347656 4.75 7.347656 C 4.75 7.984375 4.75 8.804688 4.75 9.441406 C 4.355469 9.441406 4.199219 9.441406 3.804688 9.441406 L 3.804688 7.351562 L 2.613281 7.351562 C 2.476562 7.402344 2.511719 7.464844 2.628906 7.550781 C 2.886719 7.773438 3.25 7.984375 3.367188 8.292969 C 3.488281 8.601562 3.398438 8.894531 3.214844 9.117188 C 3.058594 9.304688 2.820312 9.429688 2.527344 9.4375 L 1.367188 9.4375 L 1.367188 8.640625 C 1.648438 8.640625 1.929688 8.640625 2.210938 8.640625 C 2.378906 8.566406 2.242188 8.429688 2.023438 8.269531 C 1.609375 7.96875 1.375 7.65625 1.367188 7.34375 C 1.355469 6.953125 1.617188 6.59375 2.429688 6.554688 L 2.433594 6.554688 C 3.917969 6.554688 5.28125 6.554688 6.765625 6.554688 Z M 6.765625 6.554688 "/>
<path style=" stroke:none;fill-rule:evenodd;fill:rgb(100%,40.392157%,10.588235%);fill-opacity:1;" d="M 9.332031 6.550781 L 9.324219 6.550781 C 8.507812 6.585938 8.246094 6.945312 8.257812 7.335938 C 8.269531 7.652344 8.503906 7.960938 8.914062 8.261719 C 9.136719 8.425781 9.273438 8.5625 9.101562 8.632812 C 8.820312 8.632812 8.160156 8.632812 7.878906 8.632812 L 7.878906 9.429688 L 9.425781 9.429688 C 9.71875 9.421875 9.957031 9.296875 10.113281 9.109375 C 10.296875 8.886719 10.382812 8.59375 10.261719 8.289062 C 10.140625 7.976562 9.78125 7.765625 9.523438 7.539062 C 9.410156 7.457031 9.367188 7.394531 9.507812 7.339844 C 9.992188 7.339844 10.476562 7.339844 10.960938 7.339844 C 10.648438 7.738281 10.542969 8.574219 11.023438 9.054688 C 11.386719 9.449219 12.125 9.625 12.722656 9.121094 L 12.722656 9.4375 C 13.039062 9.4375 13.351562 9.4375 13.667969 9.4375 C 13.667969 8.472656 13.667969 7.515625 13.667969 6.550781 C 12.226562 6.554688 10.777344 6.550781 9.332031 6.550781 Z M 12.726562 8.382812 L 12.429688 8.074219 L 11.863281 8.636719 C 11.710938 8.488281 11.558594 8.335938 11.414062 8.1875 L 11.976562 7.625 L 11.699219 7.347656 L 12.726562 7.347656 Z M 12.726562 8.382812 "/>
</g>
</svg>
