<svg xmlns="http://www.w3.org/2000/svg" preserveAspectRatio="none" viewBox="0 0 1920 128">
    <path class="elementor-shape-fill" fill="red" d="M1729.51 1.148c-11.5.846-33.08 2.66-42.5 3.572-20.73 2.004-82.14 11.027-110 16.164a967 967 0 0 1-17 2.942c-4.68.757-15.25 2.58-23.5 4.053-13.17 2.35-25.71 4.295-49.5 7.683-15.54 2.21-41.38 5.99-45.51 5.989 0 0 67.17 17.346 100.82 23.803 73.77 14.156 149.61 17.291 232.19 9.599 48.21-4.492 85.88-10.554 127.49-21.402L1920.01 49V24.579l-8.25-4.093c-19.23-9.54-53.44-16.155-99.75-19.286-15.95-1.079-68.12-1.111-82.5-.052ZM985.504 5.71c-20.278 1.25-48.742 4.538-66.5 7.682-7.742 1.371-71.656 14.214-84.501 16.98-7.179 1.547-32.167 6.129-47.554 8.72-9.232 1.554-36.313 4.685-51.946 6.005-10.175.86-20.975 1.78-24 2.045-3.025.267-19.9 1.007-37.5 1.645-47.411 1.72-108.01.414-194.001-4.182-147.441-7.88-165.263-8.48-230.834-7.783-54.89.584-74.487 1.681-113.41 6.35C91.538 48.417 59.032 55.64 28.5 66.893c-8.227 3.033-19.368 10.21-24.355 15.693L0 87.142v40.909s12.95-3.375 24.5-6.895c56.626-17.259 119.495-30.41 186.001-38.907 62.035-7.926 104.5-10.633 166.5-10.615 49.061.014 70.59 1.109 137.501 6.992 139.446 12.261 185.836 13.47 248.001 6.464C803.628 80.455 822 76.5 907.004 54.25 987 33.31 1003 30.985 1039.5 25.55c21.5-3.2 52-6.55 68.5-7.55l27-1.45s-52.82-7.846-69.5-9.437c-11.16-1.065-69.022-2.08-79.996-1.402Z"/>
    <path class="elementor-shape-fill elementor-shape-fill2" fill="#fff" d="M1103 18c-56.33 4.739-90.64 10.64-135.813 20.903-10.901 2.477-37.628 9.201-59.394 14.944C832.048 73.83 804.228 79.67 763.027 84.239c-62.28 6.903-108.755 5.712-248.458-6.371-67.035-5.797-88.604-6.876-137.754-6.89-62.115-.018-104.658 2.65-166.808 10.46-66.726 8.387-129.33 21.274-186.707 38.435-11.772 3.52-23.3 8.091-23.3 8.091h1920V49l-17 4c-93.36 23.942-203.94 31.254-303.43 20.229-35.09-3.888-68.1-10.21-125.01-23.94L1441.5 41.5l-19.04 1.544c-24.31 2.117-91.33 2.434-112.93.532-18.35-1.616-51.53-5.63-68-8.228C1224.9 32.725 1134.5 16.5 1134.5 16.5s-21.76.68-31.5 1.5Z"/>
</svg>