<svg xmlns="http://www.w3.org/2000/svg" width="519" height="365" fill="none" viewBox="0 0 519 365"><g opacity=".8"><path fill="#F5F6F9" d="M0 10C0 4.477 4.477 0 10 0h499c5.523 0 10 4.477 10 10v345c0 5.523-4.477 10-10 10H10c-5.523 0-10-4.477-10-10V10z"/><rect width="119" height="32" x="40" y="286" fill="#62699F" rx="5"/><path fill="#fff" d="M59.708 306.096a5.914 5.914 0 0 1-1.836-.288c-.584-.2-1.044-.456-1.38-.768l.444-.936c.32.288.728.524 1.224.708.504.176 1.02.264 1.548.264.696 0 1.216-.116 1.56-.348.344-.24.516-.556.516-.948a.9.9 0 0 0-.288-.696 1.784 1.784 0 0 0-.696-.42c-.272-.096-.66-.204-1.164-.324a12.396 12.396 0 0 1-1.536-.456 2.616 2.616 0 0 1-.996-.696c-.272-.32-.408-.748-.408-1.284 0-.448.116-.852.348-1.212.24-.36.6-.648 1.08-.864.48-.216 1.076-.324 1.788-.324.496 0 .984.064 1.464.192s.892.312 1.236.552l-.396.96a4.199 4.199 0 0 0-1.128-.504 4.08 4.08 0 0 0-1.176-.18c-.68 0-1.192.124-1.536.372-.336.248-.504.568-.504.96 0 .288.096.524.288.708.192.176.428.316.708.42.288.096.676.2 1.164.312.632.152 1.14.304 1.524.456.384.152.712.384.984.696.28.312.42.732.42 1.26 0 .44-.12.844-.36 1.212-.24.36-.604.648-1.092.864-.488.208-1.088.312-1.8.312zm7.153-6.516c.88 0 1.552.216 2.016.648.472.432.708 1.076.708 1.932V306h-1.092v-.84a1.853 1.853 0 0 1-.828.684c-.352.152-.772.228-1.26.228-.712 0-1.284-.172-1.716-.516-.424-.344-.636-.796-.636-1.356s.204-1.008.612-1.344c.408-.344 1.056-.516 1.944-.516h1.824v-.228c0-.496-.144-.876-.432-1.14-.288-.264-.712-.396-1.272-.396-.376 0-.744.064-1.104.192a2.76 2.76 0 0 0-.912.492l-.48-.864c.328-.264.72-.464 1.176-.6.456-.144.94-.216 1.452-.216zm-.264 5.604c.44 0 .82-.096 1.14-.288.32-.2.552-.48.696-.84v-.888h-1.776c-.976 0-1.464.328-1.464.984 0 .32.124.572.372.756.248.184.592.276 1.032.276zm10.63-5.544L74.445 306h-1.176l-2.784-6.36h1.2l2.184 5.1 2.232-5.1h1.128zm6.648 3.216c0 .088-.008.204-.024.348h-5.16c.072.56.316 1.012.732 1.356.424.336.948.504 1.572.504.76 0 1.372-.256 1.836-.768l.636.744a2.777 2.777 0 0 1-1.08.768c-.424.176-.9.264-1.428.264-.672 0-1.268-.136-1.788-.408a3.033 3.033 0 0 1-1.212-1.164 3.357 3.357 0 0 1-.42-1.68c0-.616.136-1.172.408-1.668.28-.496.66-.88 1.14-1.152a3.244 3.244 0 0 1 1.644-.42c.608 0 1.148.14 1.62.42.48.272.852.656 1.116 1.152.272.496.408 1.064.408 1.704zm-3.144-2.304c-.552 0-1.016.168-1.392.504-.368.336-.584.776-.648 1.32h4.08c-.064-.536-.284-.972-.66-1.308-.368-.344-.828-.516-1.38-.516zM96.653 306l-.012-6.12-3.035 5.1h-.552l-3.037-5.064V306h-1.151v-8.4h.984l3.504 5.904 3.456-5.904h.983l.012 8.4h-1.152zm5.821-6.42c.88 0 1.552.216 2.016.648.472.432.708 1.076.708 1.932V306h-1.092v-.84a1.853 1.853 0 0 1-.828.684c-.352.152-.772.228-1.26.228-.712 0-1.284-.172-1.716-.516-.424-.344-.636-.796-.636-1.356s.204-1.008.612-1.344c.408-.344 1.056-.516 1.944-.516h1.824v-.228c0-.496-.144-.876-.432-1.14-.288-.264-.712-.396-1.272-.396-.376 0-.744.064-1.104.192a2.76 2.76 0 0 0-.912.492l-.48-.864c.328-.264.72-.464 1.176-.6.456-.144.94-.216 1.452-.216zm-.264 5.604c.44 0 .82-.096 1.14-.288.32-.2.552-.48.696-.84v-.888h-1.776c-.976 0-1.464.328-1.464.984 0 .32.124.572.372.756.248.184.592.276 1.032.276zm8.492-5.604c.616 0 1.168.136 1.656.408.488.272.868.652 1.14 1.14.28.488.42 1.052.42 1.692 0 .64-.14 1.208-.42 1.704a2.894 2.894 0 0 1-1.14 1.14 3.343 3.343 0 0 1-1.656.408c-.456 0-.876-.088-1.26-.264a2.621 2.621 0 0 1-.96-.768v3.288h-1.152v-8.688h1.104v1.008c.256-.352.58-.616.972-.792a3.012 3.012 0 0 1 1.296-.276zm-.096 5.484a2.15 2.15 0 0 0 1.092-.276 2.03 2.03 0 0 0 .768-.792c.192-.344.288-.736.288-1.176 0-.44-.096-.828-.288-1.164a1.93 1.93 0 0 0-.768-.792 2.15 2.15 0 0 0-1.092-.276c-.4 0-.764.096-1.092.288-.32.184-.576.444-.768.78a2.385 2.385 0 0 0-.276 1.164c0 .44.092.832.276 1.176.184.336.44.6.768.792.328.184.692.276 1.092.276zm8.276-5.484c.616 0 1.168.136 1.656.408.488.272.868.652 1.14 1.14.28.488.42 1.052.42 1.692 0 .64-.14 1.208-.42 1.704a2.894 2.894 0 0 1-1.14 1.14 3.343 3.343 0 0 1-1.656.408c-.456 0-.876-.088-1.26-.264a2.621 2.621 0 0 1-.96-.768v3.288h-1.152v-8.688h1.104v1.008c.256-.352.58-.616.972-.792a3.012 3.012 0 0 1 1.296-.276zm-.096 5.484a2.15 2.15 0 0 0 1.092-.276 2.03 2.03 0 0 0 .768-.792c.192-.344.288-.736.288-1.176 0-.44-.096-.828-.288-1.164a1.93 1.93 0 0 0-.768-.792 2.15 2.15 0 0 0-1.092-.276c-.4 0-.764.096-1.092.288-.32.184-.576.444-.768.78a2.385 2.385 0 0 0-.276 1.164c0 .44.092.832.276 1.176.184.336.44.6.768.792.328.184.692.276 1.092.276zm4.904-5.424h1.152V306h-1.152v-6.36zm.576-1.224a.789.789 0 0 1-.564-.216.718.718 0 0 1-.216-.528c0-.208.072-.384.216-.528a.766.766 0 0 1 .564-.228c.224 0 .408.072.552.216a.662.662 0 0 1 .228.516c0 .216-.076.4-.228.552a.748.748 0 0 1-.552.216zm6.171 1.164c.808 0 1.448.236 1.92.708.48.464.72 1.148.72 2.052V306h-1.152v-3.528c0-.616-.148-1.08-.444-1.392-.296-.312-.72-.468-1.272-.468-.624 0-1.116.184-1.476.552-.36.36-.54.88-.54 1.56V306h-1.152v-6.36h1.104v.96c.232-.328.544-.58.936-.756.4-.176.852-.264 1.356-.264zm10.891.06v5.496c0 1.112-.276 1.932-.828 2.46-.552.536-1.376.804-2.472.804-.6 0-1.172-.084-1.716-.252-.544-.16-.984-.392-1.32-.696l.552-.888c.296.256.66.456 1.092.6.44.152.892.228 1.356.228.744 0 1.292-.176 1.644-.528.36-.352.54-.888.54-1.608v-.504a2.594 2.594 0 0 1-1.008.744c-.392.16-.82.24-1.284.24-.608 0-1.16-.128-1.656-.384a2.968 2.968 0 0 1-1.152-1.092 3.091 3.091 0 0 1-.42-1.608c0-.6.14-1.132.42-1.596.28-.472.664-.836 1.152-1.092a3.557 3.557 0 0 1 1.656-.384c.48 0 .924.088 1.332.264.416.176.756.436 1.02.78v-.984h1.092zm-3.312 5.088c.416 0 .788-.088 1.116-.264.336-.176.596-.42.78-.732.192-.32.288-.68.288-1.08 0-.616-.204-1.112-.612-1.488-.408-.384-.932-.576-1.572-.576-.648 0-1.176.192-1.584.576-.408.376-.612.872-.612 1.488 0 .4.092.76.276 1.08.192.312.452.556.78.732a2.42 2.42 0 0 0 1.14.264z"/><rect width="6" height="1" x="104.24" y="280.24" fill="#62699F" rx=".5" transform="rotate(-45 104.243 280.243)"/><rect width="6" height="1" x="99.24" y="271" fill="#62699F" rx=".5" transform="rotate(90 99.243 271)"/><rect width="6" height="1" x="93.24" y="280.95" fill="#62699F" rx=".5" transform="rotate(-135 93.243 280.95)"/><g clip-path="url(#a)"><path fill="#4B2E21" d="M100.309 328.17l.885-4.55c.208-1.07 1.244-2.105 2.315-2.311l3.875-.749c1.07-.207 1.143-.762.164-1.24l-12.577-6.127c-.98-.478-1.461-.038-1.075.981l5.337 14.087c.386 1.02.867.979 1.076-.091z"/></g><path fill="#6577AA" d="M49.048 108l-.012-6.12-3.036 5.1h-.552l-3.036-5.064V108H41.26v-8.4h.984l3.504 5.904 3.456-5.904h.984l.012 8.4h-1.152zm5.821-6.42c.88 0 1.552.216 2.016.648.472.432.708 1.076.708 1.932V108h-1.092v-.84a1.853 1.853 0 0 1-.828.684c-.352.152-.772.228-1.26.228-.712 0-1.284-.172-1.716-.516-.424-.344-.636-.796-.636-1.356s.204-1.008.612-1.344c.408-.344 1.056-.516 1.944-.516h1.824v-.228c0-.496-.144-.876-.432-1.14-.288-.264-.712-.396-1.272-.396-.376 0-.744.064-1.104.192a2.76 2.76 0 0 0-.912.492l-.48-.864c.328-.264.72-.464 1.176-.6.456-.144.94-.216 1.452-.216zm-.264 5.604c.44 0 .82-.096 1.14-.288.32-.2.552-.48.696-.84v-.888h-1.776c-.976 0-1.464.328-1.464.984 0 .32.124.572.372.756.248.184.592.276 1.032.276zm8.492-5.604c.616 0 1.168.136 1.656.408.488.272.868.652 1.14 1.14.28.488.42 1.052.42 1.692 0 .64-.14 1.208-.42 1.704a2.894 2.894 0 0 1-1.14 1.14 3.343 3.343 0 0 1-1.656.408c-.456 0-.876-.088-1.26-.264a2.621 2.621 0 0 1-.96-.768v3.288h-1.152v-8.688h1.104v1.008c.256-.352.58-.616.972-.792a3.012 3.012 0 0 1 1.296-.276zM63 107.064a2.15 2.15 0 0 0 1.092-.276 2.03 2.03 0 0 0 .768-.792c.192-.344.288-.736.288-1.176 0-.44-.096-.828-.288-1.164a1.93 1.93 0 0 0-.768-.792 2.15 2.15 0 0 0-1.092-.276c-.4 0-.764.096-1.092.288-.32.184-.576.444-.768.78a2.385 2.385 0 0 0-.276 1.164c0 .44.092.832.276 1.176.184.336.44.6.768.792.328.184.692.276 1.092.276zm8.276-5.484c.615 0 1.168.136 1.656.408.487.272.867.652 1.14 1.14.28.488.42 1.052.42 1.692 0 .64-.14 1.208-.42 1.704a2.894 2.894 0 0 1-1.14 1.14 3.343 3.343 0 0 1-1.657.408c-.456 0-.876-.088-1.26-.264a2.621 2.621 0 0 1-.96-.768v3.288h-1.151v-8.688h1.103v1.008c.257-.352.58-.616.973-.792a3.012 3.012 0 0 1 1.296-.276zm-.097 5.484a2.15 2.15 0 0 0 1.092-.276 2.03 2.03 0 0 0 .768-.792c.192-.344.288-.736.288-1.176 0-.44-.096-.828-.288-1.164a1.93 1.93 0 0 0-.768-.792 2.15 2.15 0 0 0-1.092-.276c-.4 0-.764.096-1.092.288-.32.184-.575.444-.767.78a2.385 2.385 0 0 0-.276 1.164c0 .44.091.832.275 1.176.184.336.44.6.769.792.328.184.692.276 1.091.276zm4.904-5.424h1.152V108h-1.152v-6.36zm.576-1.224a.789.789 0 0 1-.564-.216.718.718 0 0 1-.216-.528c0-.208.072-.384.216-.528a.766.766 0 0 1 .564-.228c.224 0 .408.072.552.216a.662.662 0 0 1 .228.516c0 .216-.076.4-.228.552a.748.748 0 0 1-.552.216zm6.172 1.164c.808 0 1.448.236 1.92.708.48.464.72 1.148.72 2.052V108H84.32v-3.528c0-.616-.148-1.08-.444-1.392-.296-.312-.72-.468-1.272-.468-.624 0-1.116.184-1.476.552-.36.36-.54.88-.54 1.56V108h-1.152v-6.36h1.104v.96c.232-.328.544-.58.936-.756.4-.176.852-.264 1.356-.264zm10.89.06v5.496c0 1.112-.275 1.932-.827 2.46-.552.536-1.376.804-2.472.804-.6 0-1.172-.084-1.716-.252-.544-.16-.984-.392-1.32-.696l.552-.888c.296.256.66.456 1.092.6.44.152.892.228 1.356.228.744 0 1.292-.176 1.644-.528.36-.352.54-.888.54-1.608v-.504a2.594 2.594 0 0 1-1.008.744c-.392.16-.82.24-1.284.24-.608 0-1.16-.128-1.656-.384a2.968 2.968 0 0 1-1.152-1.092 3.091 3.091 0 0 1-.42-1.608c0-.6.14-1.132.42-1.596.28-.472.664-.836 1.152-1.092a3.557 3.557 0 0 1 1.656-.384c.48 0 .924.088 1.332.264.416.176.756.436 1.02.78v-.984h1.092zm-3.311 5.088c.416 0 .788-.088 1.116-.264.336-.176.596-.42.78-.732.192-.32.288-.68.288-1.08 0-.616-.204-1.112-.612-1.488-.408-.384-.932-.576-1.572-.576-.648 0-1.176.192-1.584.576-.408.376-.612.872-.612 1.488 0 .4.092.76.276 1.08.192.312.452.556.78.732a2.42 2.42 0 0 0 1.14.264zm16.128-7.128v8.4h-.984l-5.04-6.264V108h-1.2v-8.4h.984l5.04 6.264V99.6h1.2zm4.662 1.98c.88 0 1.552.216 2.016.648.472.432.708 1.076.708 1.932V108h-1.092v-.84a1.853 1.853 0 0 1-.828.684c-.352.152-.772.228-1.26.228-.712 0-1.284-.172-1.716-.516-.424-.344-.636-.796-.636-1.356s.204-1.008.612-1.344c.408-.344 1.056-.516 1.944-.516h1.824v-.228c0-.496-.144-.876-.432-1.14-.288-.264-.712-.396-1.272-.396-.376 0-.744.064-1.104.192a2.76 2.76 0 0 0-.912.492l-.48-.864c.328-.264.72-.464 1.176-.6.456-.144.94-.216 1.452-.216zm-.264 5.604c.44 0 .82-.096 1.14-.288.32-.2.552-.48.696-.84v-.888h-1.776c-.976 0-1.464.328-1.464.984 0 .32.124.572.372.756.248.184.592.276 1.032.276zm13.076-5.604c.8 0 1.432.232 1.896.696.472.464.708 1.152.708 2.064V108h-1.152v-3.528c0-.616-.144-1.08-.432-1.392-.28-.312-.684-.468-1.212-.468-.584 0-1.048.184-1.392.552-.344.36-.516.88-.516 1.56V108h-1.152v-3.528c0-.616-.144-1.08-.432-1.392-.28-.312-.684-.468-1.212-.468-.584 0-1.048.184-1.392.552-.344.36-.516.88-.516 1.56V108h-1.152v-6.36h1.104v.948c.232-.328.536-.576.912-.744a2.995 2.995 0 0 1 1.284-.264c.496 0 .936.1 1.32.3.384.2.68.492.888.876.24-.368.572-.656.996-.864a3.304 3.304 0 0 1 1.452-.312zm10.507 3.276c0 .088-.008.204-.024.348h-5.16c.072.56.316 1.012.732 1.356.424.336.948.504 1.572.504.76 0 1.372-.256 1.836-.768l.636.744a2.777 2.777 0 0 1-1.08.768c-.424.176-.9.264-1.428.264-.672 0-1.268-.136-1.788-.408a3.033 3.033 0 0 1-1.212-1.164 3.357 3.357 0 0 1-.42-1.68c0-.616.136-1.172.408-1.668.28-.496.66-.88 1.14-1.152a3.244 3.244 0 0 1 1.644-.42c.608 0 1.148.14 1.62.42.48.272.852.656 1.116 1.152.272.496.408 1.064.408 1.704zm-3.144-2.304c-.552 0-1.016.168-1.392.504-.368.336-.584.776-.648 1.32h4.08c-.064-.536-.284-.972-.66-1.308-.368-.344-.828-.516-1.38-.516z"/><rect width="235.5" height="31.5" x="243.25" y="88.25" fill="#F0F0F6" stroke="#62699F" stroke-width=".5" rx="4.75"/><path fill="#62699F" d="M266.016 108.096c-.84 0-1.6-.184-2.28-.552a4.175 4.175 0 0 1-1.584-1.536c-.384-.656-.576-1.392-.576-2.208 0-.816.192-1.548.576-2.196a4.04 4.04 0 0 1 1.596-1.536c.68-.376 1.44-.564 2.28-.564.656 0 1.256.112 1.8.336.544.216 1.008.54 1.392.972l-.78.756c-.632-.664-1.42-.996-2.364-.996-.624 0-1.188.14-1.692.42-.504.28-.9.668-1.188 1.164a3.244 3.244 0 0 0-.42 1.644c0 .608.14 1.16.42 1.656.288.488.684.872 1.188 1.152.504.28 1.068.42 1.692.42.936 0 1.724-.336 2.364-1.008l.78.756c-.384.432-.852.76-1.404.984a4.684 4.684 0 0 1-1.8.336zm10.477-6.456V108h-1.092v-.96c-.232.328-.54.584-.924.768a2.879 2.879 0 0 1-1.236.264c-.848 0-1.516-.232-2.004-.696-.488-.472-.732-1.164-.732-2.076v-3.66h1.152v3.528c0 .616.148 1.084.444 1.404.296.312.72.468 1.272.468.608 0 1.088-.184 1.44-.552.352-.368.528-.888.528-1.56v-3.288h1.152zm4.017 6.432c-.52 0-1.02-.068-1.5-.204-.48-.144-.856-.324-1.128-.54l.48-.912c.28.2.62.36 1.02.48s.804.18 1.212.18c1.008 0 1.512-.288 1.512-.864a.56.56 0 0 0-.204-.456 1.235 1.235 0 0 0-.516-.24 9.055 9.055 0 0 0-.864-.18 8.75 8.75 0 0 1-1.26-.276 1.937 1.937 0 0 1-.828-.528c-.232-.248-.348-.596-.348-1.044 0-.576.24-1.036.72-1.38.48-.352 1.124-.528 1.932-.528.424 0 .848.052 1.272.156.424.104.772.244 1.044.42l-.492.912c-.52-.336-1.132-.504-1.836-.504-.488 0-.86.08-1.116.24-.256.16-.384.372-.384.636 0 .208.072.372.216.492.144.12.32.208.528.264.216.056.516.12.9.192.512.088.924.184 1.236.288.32.096.592.264.816.504.224.24.336.576.336 1.008 0 .576-.248 1.036-.744 1.38-.488.336-1.156.504-2.004.504zm7.763-.444a1.79 1.79 0 0 1-.624.336 2.74 2.74 0 0 1-.768.108c-.64 0-1.136-.172-1.488-.516-.352-.344-.528-.836-.528-1.476v-3.492h-1.08v-.948h1.08v-1.392h1.152v1.392h1.824v.948h-1.824v3.444c0 .344.084.608.252.792.176.184.424.276.744.276.352 0 .652-.1.9-.3l.36.828zm3.906.444c-.632 0-1.2-.14-1.704-.42-.504-.28-.9-.664-1.188-1.152a3.357 3.357 0 0 1-.42-1.68c0-.624.14-1.18.42-1.668.288-.496.684-.88 1.188-1.152a3.449 3.449 0 0 1 1.704-.42c.632 0 1.196.14 1.692.42.504.272.896.656 1.176 1.152.288.488.432 1.044.432 1.668 0 .624-.144 1.184-.432 1.68-.28.488-.672.872-1.176 1.152-.496.28-1.06.42-1.692.42zm0-1.008a2.15 2.15 0 0 0 1.092-.276 2.03 2.03 0 0 0 .768-.792c.184-.344.276-.736.276-1.176 0-.44-.092-.828-.276-1.164a1.93 1.93 0 0 0-.768-.792 2.15 2.15 0 0 0-1.092-.276c-.408 0-.776.092-1.104.276-.32.184-.576.448-.768.792a2.385 2.385 0 0 0-.276 1.164c0 .44.092.832.276 1.176.192.336.448.6.768.792.328.184.696.276 1.104.276zm12.849-5.484c.8 0 1.432.232 1.896.696.473.464.709 1.152.709 2.064V108h-1.153v-3.528c0-.616-.144-1.08-.432-1.392-.28-.312-.684-.468-1.212-.468-.584 0-1.048.184-1.392.552-.344.36-.516.88-.516 1.56V108h-1.152v-3.528c0-.616-.144-1.08-.432-1.392-.28-.312-.684-.468-1.212-.468-.584 0-1.048.184-1.392.552-.344.36-.516.88-.516 1.56V108h-1.152v-6.36h1.104v.948c.232-.328.536-.576.912-.744a2.995 2.995 0 0 1 1.284-.264c.496 0 .936.1 1.32.3.384.2.68.492.888.876.24-.368.572-.656.996-.864a3.304 3.304 0 0 1 1.452-.312zm15.903 6.42l-.012-6.12-3.036 5.1h-.552l-3.036-5.064V108h-1.152v-8.4h.984l3.504 5.904 3.456-5.904h.984l.012 8.4h-1.152zm5.821-6.42c.88 0 1.552.216 2.016.648.472.432.708 1.076.708 1.932V108h-1.092v-.84a1.853 1.853 0 0 1-.828.684c-.352.152-.772.228-1.26.228-.712 0-1.284-.172-1.716-.516-.424-.344-.636-.796-.636-1.356s.204-1.008.612-1.344c.408-.344 1.056-.516 1.944-.516h1.824v-.228c0-.496-.144-.876-.432-1.14-.288-.264-.712-.396-1.272-.396-.376 0-.744.064-1.104.192a2.76 2.76 0 0 0-.912.492l-.48-.864c.328-.264.72-.464 1.176-.6.456-.144.94-.216 1.452-.216zm-.264 5.604c.44 0 .82-.096 1.14-.288.32-.2.552-.48.696-.84v-.888h-1.776c-.976 0-1.464.328-1.464.984 0 .32.124.572.372.756.248.184.592.276 1.032.276zm8.492-5.604c.616 0 1.168.136 1.656.408.488.272.868.652 1.14 1.14.28.488.42 1.052.42 1.692 0 .64-.14 1.208-.42 1.704a2.894 2.894 0 0 1-1.14 1.14 3.343 3.343 0 0 1-1.656.408c-.456 0-.876-.088-1.26-.264a2.621 2.621 0 0 1-.96-.768v3.288h-1.152v-8.688h1.104v1.008c.256-.352.58-.616.972-.792a3.012 3.012 0 0 1 1.296-.276zm-.096 5.484a2.15 2.15 0 0 0 1.092-.276 2.03 2.03 0 0 0 .768-.792c.192-.344.288-.736.288-1.176 0-.44-.096-.828-.288-1.164a1.93 1.93 0 0 0-.768-.792 2.15 2.15 0 0 0-1.092-.276c-.4 0-.764.096-1.092.288-.32.184-.576.444-.768.78a2.385 2.385 0 0 0-.276 1.164c0 .44.092.832.276 1.176.184.336.44.6.768.792.328.184.692.276 1.092.276zm8.275-5.484c.616 0 1.168.136 1.656.408.488.272.868.652 1.14 1.14.28.488.42 1.052.42 1.692 0 .64-.14 1.208-.42 1.704a2.894 2.894 0 0 1-1.14 1.14 3.343 3.343 0 0 1-1.656.408c-.456 0-.876-.088-1.26-.264a2.621 2.621 0 0 1-.96-.768v3.288h-1.152v-8.688h1.104v1.008c.256-.352.58-.616.972-.792a3.012 3.012 0 0 1 1.296-.276zm-.096 5.484a2.15 2.15 0 0 0 1.092-.276 2.03 2.03 0 0 0 .768-.792c.192-.344.288-.736.288-1.176 0-.44-.096-.828-.288-1.164a1.93 1.93 0 0 0-.768-.792 2.15 2.15 0 0 0-1.092-.276c-.4 0-.764.096-1.092.288-.32.184-.576.444-.768.78a2.385 2.385 0 0 0-.276 1.164c0 .44.092.832.276 1.176.184.336.44.6.768.792.328.184.692.276 1.092.276zm4.904-5.424h1.152V108h-1.152v-6.36zm.576-1.224a.789.789 0 0 1-.564-.216.718.718 0 0 1-.216-.528c0-.208.072-.384.216-.528a.766.766 0 0 1 .564-.228c.224 0 .408.072.552.216a.662.662 0 0 1 .228.516c0 .216-.076.4-.228.552a.748.748 0 0 1-.552.216zm6.172 1.164c.808 0 1.448.236 1.92.708.48.464.72 1.148.72 2.052V108h-1.152v-3.528c0-.616-.148-1.08-.444-1.392-.296-.312-.72-.468-1.272-.468-.624 0-1.116.184-1.476.552-.36.36-.54.88-.54 1.56V108h-1.152v-6.36h1.104v.96c.232-.328.544-.58.936-.756.4-.176.852-.264 1.356-.264zm10.891.06v5.496c0 1.112-.276 1.932-.828 2.46-.552.536-1.376.804-2.472.804-.6 0-1.172-.084-1.716-.252-.544-.16-.984-.392-1.32-.696l.552-.888c.296.256.66.456 1.092.6.44.152.892.228 1.356.228.744 0 1.292-.176 1.644-.528.36-.352.54-.888.54-1.608v-.504a2.594 2.594 0 0 1-1.008.744c-.392.16-.82.24-1.284.24-.608 0-1.16-.128-1.656-.384a2.968 2.968 0 0 1-1.152-1.092 3.091 3.091 0 0 1-.42-1.608c0-.6.14-1.132.42-1.596.28-.472.664-.836 1.152-1.092a3.557 3.557 0 0 1 1.656-.384c.48 0 .924.088 1.332.264.416.176.756.436 1.02.78v-.984h1.092zm-3.312 5.088c.416 0 .788-.088 1.116-.264.336-.176.596-.42.78-.732.192-.32.288-.68.288-1.08 0-.616-.204-1.112-.612-1.488-.408-.384-.932-.576-1.572-.576-.648 0-1.176.192-1.584.576-.408.376-.612.872-.612 1.488 0 .4.092.76.276 1.08.192.312.452.556.78.732a2.42 2.42 0 0 0 1.14.264z"/><path fill="#6577AA" d="M46.612 152.9h-4.464l-.924 2.1h-1.236l3.804-8.4h1.188l3.816 8.4h-1.26l-.924-2.1zm-.42-.96l-1.812-4.116-1.812 4.116h3.624zm7.206 2.688a1.79 1.79 0 0 1-.623.336 2.74 2.74 0 0 1-.768.108c-.64 0-1.136-.172-1.488-.516-.352-.344-.529-.836-.529-1.476v-3.492h-1.08v-.948h1.08v-1.392h1.152v1.392h1.825v.948h-1.825v3.444c0 .344.084.608.252.792.177.184.425.276.745.276.351 0 .651-.1.9-.3l.36.828zm4.817 0a1.79 1.79 0 0 1-.624.336 2.74 2.74 0 0 1-.768.108c-.64 0-1.136-.172-1.488-.516-.352-.344-.528-.836-.528-1.476v-3.492h-1.08v-.948h1.08v-1.392h1.152v1.392h1.824v.948h-1.824v3.444c0 .344.084.608.252.792.176.184.424.276.744.276.352 0 .652-.1.9-.3l.36.828zm2.497-4.92c.2-.368.496-.648.888-.84.392-.192.868-.288 1.428-.288v1.116a2.249 2.249 0 0 0-.264-.012c-.624 0-1.116.188-1.476.564-.352.368-.528.896-.528 1.584V155h-1.152v-6.36h1.104v1.068zm3.736-1.068H65.6V155h-1.152v-6.36zm.576-1.224a.789.789 0 0 1-.564-.216.718.718 0 0 1-.216-.528c0-.208.072-.384.216-.528a.766.766 0 0 1 .564-.228.75.75 0 0 1 .552.216.662.662 0 0 1 .228.516c0 .216-.076.4-.228.552a.748.748 0 0 1-.552.216zm6.147 1.164c.616 0 1.168.136 1.656.408.488.272.868.652 1.14 1.14.28.488.42 1.052.42 1.692 0 .64-.14 1.208-.42 1.704a2.894 2.894 0 0 1-1.14 1.14 3.343 3.343 0 0 1-1.656.408c-.472 0-.904-.092-1.296-.276a2.495 2.495 0 0 1-.972-.804V155H67.8v-8.904h1.152v3.504c.256-.336.576-.588.96-.756a2.988 2.988 0 0 1 1.26-.264zm-.096 5.484a2.15 2.15 0 0 0 1.092-.276 2.03 2.03 0 0 0 .768-.792c.192-.344.288-.736.288-1.176 0-.44-.096-.828-.288-1.164a1.93 1.93 0 0 0-.768-.792 2.15 2.15 0 0 0-1.092-.276c-.4 0-.764.092-1.092.276a1.93 1.93 0 0 0-.768.792 2.385 2.385 0 0 0-.276 1.164c0 .44.092.832.276 1.176.184.336.44.6.768.792.328.184.692.276 1.092.276zm10.832-5.424V155h-1.092v-.96c-.232.328-.54.584-.924.768a2.879 2.879 0 0 1-1.236.264c-.848 0-1.516-.232-2.004-.696-.488-.472-.732-1.164-.732-2.076v-3.66h1.152v3.528c0 .616.148 1.084.444 1.404.296.312.72.468 1.272.468.608 0 1.088-.184 1.44-.552.352-.368.528-.888.528-1.56v-3.288h1.152zm5.769 5.988a1.79 1.79 0 0 1-.624.336 2.74 2.74 0 0 1-.768.108c-.64 0-1.136-.172-1.488-.516-.352-.344-.528-.836-.528-1.476v-3.492h-1.08v-.948h1.08v-1.392h1.152v1.392h1.824v.948H85.42v3.444c0 .344.084.608.252.792.176.184.424.276.744.276.352 0 .652-.1.9-.3l.36.828zm6.93-2.772c0 .088-.008.204-.024.348h-5.16c.072.56.316 1.012.732 1.356.424.336.948.504 1.572.504.76 0 1.372-.256 1.836-.768l.636.744a2.777 2.777 0 0 1-1.08.768c-.424.176-.9.264-1.428.264-.672 0-1.268-.136-1.788-.408a3.033 3.033 0 0 1-1.212-1.164 3.357 3.357 0 0 1-.42-1.68c0-.616.136-1.172.408-1.668.28-.496.66-.88 1.14-1.152a3.244 3.244 0 0 1 1.644-.42c.608 0 1.148.14 1.62.42.48.272.852.656 1.116 1.152.272.496.408 1.064.408 1.704zm-3.144-2.304c-.552 0-1.016.168-1.392.504-.368.336-.584.776-.648 1.32h4.08c-.064-.536-.284-.972-.66-1.308-.368-.344-.828-.516-1.38-.516zm10.582 5.544a5.914 5.914 0 0 1-1.836-.288c-.584-.2-1.044-.456-1.38-.768l.444-.936c.32.288.728.524 1.224.708.504.176 1.02.264 1.548.264.696 0 1.216-.116 1.56-.348.344-.24.516-.556.516-.948a.9.9 0 0 0-.288-.696 1.784 1.784 0 0 0-.696-.42c-.272-.096-.66-.204-1.164-.324a12.396 12.396 0 0 1-1.536-.456 2.616 2.616 0 0 1-.996-.696c-.272-.32-.408-.748-.408-1.284 0-.448.116-.852.348-1.212.24-.36.6-.648 1.08-.864.48-.216 1.076-.324 1.788-.324.496 0 .984.064 1.464.192s.892.312 1.236.552l-.396.96a4.199 4.199 0 0 0-1.128-.504 4.08 4.08 0 0 0-1.176-.18c-.68 0-1.192.124-1.536.372-.336.248-.504.568-.504.96 0 .288.096.524.288.708.192.176.428.316.708.42.288.096.676.2 1.164.312.632.152 1.14.304 1.524.456.384.152.712.384.984.696.28.312.42.732.42 1.26 0 .44-.12.844-.36 1.212-.24.36-.604.648-1.092.864-.488.208-1.088.312-1.8.312zm10.585-3.24c0 .088-.008.204-.024.348h-5.16c.072.56.316 1.012.732 1.356.424.336.948.504 1.572.504.76 0 1.372-.256 1.836-.768l.636.744a2.777 2.777 0 0 1-1.08.768c-.424.176-.9.264-1.428.264-.672 0-1.268-.136-1.788-.408a3.033 3.033 0 0 1-1.212-1.164 3.357 3.357 0 0 1-.42-1.68c0-.616.136-1.172.408-1.668.28-.496.66-.88 1.14-1.152a3.244 3.244 0 0 1 1.644-.42c.608 0 1.148.14 1.62.42.48.272.852.656 1.116 1.152.272.496.408 1.064.408 1.704zm-3.144-2.304c-.552 0-1.016.168-1.392.504-.368.336-.584.776-.648 1.32h4.08c-.064-.536-.284-.972-.66-1.308-.368-.344-.828-.516-1.38-.516zm8.116-.972c.616 0 1.168.136 1.656.408.488.272.868.652 1.14 1.14.28.488.42 1.052.42 1.692 0 .64-.14 1.208-.42 1.704a2.894 2.894 0 0 1-1.14 1.14 3.343 3.343 0 0 1-1.656.408c-.456 0-.876-.088-1.26-.264a2.621 2.621 0 0 1-.96-.768v3.288h-1.152v-8.688h1.104v1.008c.256-.352.58-.616.972-.792a3.012 3.012 0 0 1 1.296-.276zm-.096 5.484a2.15 2.15 0 0 0 1.092-.276 2.03 2.03 0 0 0 .768-.792c.192-.344.288-.736.288-1.176 0-.44-.096-.828-.288-1.164a1.93 1.93 0 0 0-.768-.792 2.15 2.15 0 0 0-1.092-.276c-.4 0-.764.096-1.092.288-.32.184-.576.444-.768.78a2.385 2.385 0 0 0-.276 1.164c0 .44.092.832.276 1.176.184.336.44.6.768.792.328.184.692.276 1.092.276zm7.161-5.484c.88 0 1.552.216 2.016.648.472.432.708 1.076.708 1.932V155h-1.092v-.84a1.853 1.853 0 0 1-.828.684c-.352.152-.772.228-1.26.228-.712 0-1.284-.172-1.716-.516-.424-.344-.636-.796-.636-1.356s.204-1.008.612-1.344c.408-.344 1.056-.516 1.944-.516h1.824v-.228c0-.496-.144-.876-.432-1.14-.288-.264-.712-.396-1.272-.396-.376 0-.744.064-1.104.192a2.76 2.76 0 0 0-.912.492l-.48-.864c.328-.264.72-.464 1.176-.6.456-.144.94-.216 1.452-.216zm-.264 5.604c.44 0 .82-.096 1.14-.288.32-.2.552-.48.696-.84v-.888h-1.776c-.976 0-1.464.328-1.464.984 0 .32.124.572.372.756.248.184.592.276 1.032.276zm6.224-4.476c.2-.368.496-.648.888-.84.392-.192.868-.288 1.428-.288v1.116a2.249 2.249 0 0 0-.264-.012c-.624 0-1.116.188-1.476.564-.352.368-.528.896-.528 1.584V155h-1.152v-6.36h1.104v1.068zm6.04-1.128c.88 0 1.552.216 2.016.648.472.432.708 1.076.708 1.932V155h-1.092v-.84a1.853 1.853 0 0 1-.828.684c-.352.152-.772.228-1.26.228-.712 0-1.284-.172-1.716-.516-.424-.344-.636-.796-.636-1.356s.204-1.008.612-1.344c.408-.344 1.056-.516 1.944-.516h1.824v-.228c0-.496-.144-.876-.432-1.14-.288-.264-.712-.396-1.272-.396-.376 0-.744.064-1.104.192a2.76 2.76 0 0 0-.912.492l-.48-.864c.328-.264.72-.464 1.176-.6.456-.144.94-.216 1.452-.216zm-.264 5.604c.44 0 .82-.096 1.14-.288.32-.2.552-.48.696-.84v-.888h-1.776c-.976 0-1.464.328-1.464.984 0 .32.124.572.372.756.248.184.592.276 1.032.276zm8.696.444a1.79 1.79 0 0 1-.624.336 2.74 2.74 0 0 1-.768.108c-.64 0-1.136-.172-1.488-.516-.352-.344-.528-.836-.528-1.476v-3.492h-1.08v-.948h1.08v-1.392h1.152v1.392h1.824v.948h-1.824v3.444c0 .344.084.608.252.792.176.184.424.276.744.276.352 0 .652-.1.9-.3l.36.828zm3.906.444c-.632 0-1.2-.14-1.704-.42-.504-.28-.9-.664-1.188-1.152a3.357 3.357 0 0 1-.42-1.68c0-.624.14-1.18.42-1.668.288-.496.684-.88 1.188-1.152a3.449 3.449 0 0 1 1.704-.42c.632 0 1.196.14 1.692.42.504.272.896.656 1.176 1.152.288.488.432 1.044.432 1.668 0 .624-.144 1.184-.432 1.68-.28.488-.672.872-1.176 1.152-.496.28-1.06.42-1.692.42zm0-1.008a2.15 2.15 0 0 0 1.092-.276 2.03 2.03 0 0 0 .768-.792c.184-.344.276-.736.276-1.176 0-.44-.092-.828-.276-1.164a1.93 1.93 0 0 0-.768-.792 2.15 2.15 0 0 0-1.092-.276c-.408 0-.776.092-1.104.276-.32.184-.576.448-.768.792a2.385 2.385 0 0 0-.276 1.164c0 .44.092.832.276 1.176.192.336.448.6.768.792.328.184.696.276 1.104.276zm5.997-4.356c.2-.368.496-.648.888-.84.392-.192.868-.288 1.428-.288v1.116a2.249 2.249 0 0 0-.264-.012c-.624 0-1.116.188-1.476.564-.352.368-.528.896-.528 1.584V155h-1.152v-6.36h1.104v1.068z"/><rect width="235.5" height="31.5" x="243.25" y="135.25" fill="#F0F0F6" stroke="#62699F" stroke-width=".5" rx="4.75"/><path fill="#62699F" d="M262.26 146.096h1.068v11.232h-1.068v-11.232z"/><rect width="203.5" height="31.5" x="243.25" y="182.25" fill="#F3F3F8" stroke="#8187B2" stroke-width=".5" rx="4.75"/><path fill="#62699F" d="M428 203l-3-4h6l-3 4zm0-10l3 4h-6l3-4z"/><rect width="84" height="16" x="259" y="190" fill="#D7D9E6" rx="2"/><path fill="#62699F" d="M267.536 193.6c1.088 0 1.944.26 2.568.78.624.52.936 1.236.936 2.148 0 .912-.312 1.628-.936 2.148-.624.52-1.48.78-2.568.78h-2.076V202h-1.2v-8.4h3.276zm-.036 4.812c.76 0 1.34-.16 1.74-.48.4-.328.6-.796.6-1.404 0-.608-.2-1.072-.6-1.392-.4-.328-.98-.492-1.74-.492h-2.04v3.768h2.04zm6.134-1.704c.2-.368.496-.648.888-.84.392-.192.868-.288 1.428-.288v1.116a2.249 2.249 0 0 0-.264-.012c-.624 0-1.116.188-1.476.564-.352.368-.528.896-.528 1.584V202h-1.152v-6.36h1.104v1.068zm6.401 5.364c-.632 0-1.2-.14-1.704-.42-.504-.28-.9-.664-1.188-1.152a3.357 3.357 0 0 1-.42-1.68c0-.624.14-1.18.42-1.668.288-.496.684-.88 1.188-1.152a3.449 3.449 0 0 1 1.704-.42c.632 0 1.196.14 1.692.42.504.272.896.656 1.176 1.152.288.488.432 1.044.432 1.668 0 .624-.144 1.184-.432 1.68-.28.488-.672.872-1.176 1.152-.496.28-1.06.42-1.692.42zm0-1.008a2.15 2.15 0 0 0 1.092-.276 2.03 2.03 0 0 0 .768-.792c.184-.344.276-.736.276-1.176 0-.44-.092-.828-.276-1.164a1.93 1.93 0 0 0-.768-.792 2.15 2.15 0 0 0-1.092-.276c-.408 0-.776.092-1.104.276-.32.184-.576.448-.768.792a2.385 2.385 0 0 0-.276 1.164c0 .44.092.832.276 1.176.192.336.448.6.768.792.328.184.696.276 1.104.276zm10.893-7.968V202h-1.104v-1.008c-.256.352-.58.62-.972.804a3.012 3.012 0 0 1-1.296.276 3.343 3.343 0 0 1-1.656-.408 2.976 2.976 0 0 1-1.152-1.14c-.272-.496-.408-1.064-.408-1.704 0-.64.136-1.204.408-1.692.28-.488.664-.868 1.152-1.14a3.343 3.343 0 0 1 1.656-.408c.456 0 .876.088 1.26.264.384.168.704.42.96.756v-3.504h1.152zm-3.276 7.968c.4 0 .764-.092 1.092-.276a2.03 2.03 0 0 0 .768-.792c.184-.344.276-.736.276-1.176 0-.44-.092-.828-.276-1.164a1.93 1.93 0 0 0-.768-.792 2.193 2.193 0 0 0-1.092-.276c-.408 0-.776.092-1.104.276-.32.184-.576.448-.768.792a2.385 2.385 0 0 0-.276 1.164c0 .44.092.832.276 1.176.192.336.448.6.768.792.328.184.696.276 1.104.276zm11.384-5.424V202h-1.092v-.96c-.232.328-.54.584-.924.768a2.879 2.879 0 0 1-1.236.264c-.848 0-1.516-.232-2.004-.696-.488-.472-.732-1.164-.732-2.076v-3.66h1.152v3.528c0 .616.148 1.084.444 1.404.296.312.72.468 1.272.468.608 0 1.088-.184 1.44-.552.352-.368.528-.888.528-1.56v-3.288h1.152zm4.965 6.432c-.648 0-1.228-.14-1.74-.42-.504-.28-.9-.664-1.188-1.152a3.284 3.284 0 0 1-.432-1.68c0-.624.144-1.18.432-1.668.288-.496.684-.88 1.188-1.152.512-.28 1.092-.42 1.74-.42.576 0 1.088.116 1.536.348a2.47 2.47 0 0 1 1.056 1.008l-.876.564a1.957 1.957 0 0 0-.744-.684 2.122 2.122 0 0 0-.984-.228 2.31 2.31 0 0 0-1.128.276 2.008 2.008 0 0 0-.78.792 2.385 2.385 0 0 0-.276 1.164c0 .448.092.844.276 1.188.192.336.452.596.78.78a2.31 2.31 0 0 0 1.128.276c.36 0 .688-.076.984-.228.296-.152.544-.38.744-.684l.876.552c-.248.44-.6.78-1.056 1.02-.448.232-.96.348-1.536.348zm7.741-.444a1.79 1.79 0 0 1-.624.336 2.74 2.74 0 0 1-.768.108c-.64 0-1.136-.172-1.488-.516-.352-.344-.528-.836-.528-1.476v-3.492h-1.08v-.948h1.08v-1.392h1.152v1.392h1.824v.948h-1.824v3.444c0 .344.084.608.252.792.176.184.424.276.744.276.352 0 .652-.1.9-.3l.36.828zm4.784-8.028h1.2v8.4h-1.2v-8.4zm3.714 0h3.54c.888 0 1.676.176 2.364.528.688.352 1.22.848 1.596 1.488.384.632.576 1.36.576 2.184 0 .824-.192 1.556-.576 2.196a3.852 3.852 0 0 1-1.596 1.476c-.688.352-1.476.528-2.364.528h-3.54v-8.4zm3.468 7.356c.68 0 1.276-.132 1.788-.396.52-.264.92-.632 1.2-1.104.28-.48.42-1.032.42-1.656 0-.624-.14-1.172-.42-1.644-.28-.48-.68-.852-1.2-1.116-.512-.264-1.108-.396-1.788-.396h-2.268v6.312h2.268z"/><path stroke="#62699F" stroke-width=".5" d="M0-.25h7.41" transform="scale(-.97468 -1.0247) rotate(-45 -403.519 323.43)"/><path stroke="#62699F" stroke-width=".5" d="M0-.25h7.41" transform="scale(-.97468 -1.0247) rotate(45 62.281 -517.247)"/><path fill="#fff" d="M465 205a8 8 0 1 1 0-16 8 8 0 0 1 0 16z"/><path fill="#62699F" fill-rule="evenodd" d="M458 197a7 7 0 1 0 14 0 7 7 0 0 0-14 0zm-1 0a8 8 0 1 0 16 0 8 8 0 0 0-16 0z" clip-rule="evenodd"/><path fill="#62699F" fill-rule="evenodd" d="M467.828 199.829l-5.656-5.657.707-.707 5.657 5.657-.708.707z" clip-rule="evenodd"/><path fill="#62699F" fill-rule="evenodd" d="M462.172 199.829l5.656-5.657.708.707-5.657 5.657-.707-.707z" clip-rule="evenodd"/><path fill="#6577AA" d="M43.708 202.096a5.914 5.914 0 0 1-1.836-.288c-.584-.2-1.044-.456-1.38-.768l.444-.936c.32.288.728.524 1.224.708.504.176 1.02.264 1.548.264.696 0 1.216-.116 1.56-.348.344-.24.516-.556.516-.948a.9.9 0 0 0-.288-.696 1.784 1.784 0 0 0-.696-.42c-.272-.096-.66-.204-1.164-.324a12.396 12.396 0 0 1-1.536-.456 2.616 2.616 0 0 1-.996-.696c-.272-.32-.408-.748-.408-1.284 0-.448.116-.852.348-1.212.24-.36.6-.648 1.08-.864.48-.216 1.076-.324 1.788-.324.496 0 .984.064 1.464.192s.892.312 1.236.552l-.396.96a4.199 4.199 0 0 0-1.128-.504 4.08 4.08 0 0 0-1.176-.18c-.68 0-1.192.124-1.536.372-.336.248-.504.568-.504.96 0 .288.096.524.288.708.192.176.428.316.708.42.288.096.676.2 1.164.312.632.152 1.14.304 1.524.456.384.152.712.384.984.696.28.312.42.732.42 1.26 0 .44-.12.844-.36 1.212-.24.36-.604.648-1.092.864-.488.208-1.088.312-1.8.312zm10.585-3.24c0 .088-.008.204-.024.348h-5.16c.072.56.316 1.012.732 1.356.424.336.948.504 1.572.504.76 0 1.372-.256 1.836-.768l.636.744a2.777 2.777 0 0 1-1.08.768c-.424.176-.9.264-1.428.264-.672 0-1.268-.136-1.788-.408a3.033 3.033 0 0 1-1.212-1.164 3.357 3.357 0 0 1-.42-1.68c0-.616.136-1.172.408-1.668.28-.496.66-.88 1.14-1.152a3.244 3.244 0 0 1 1.644-.42c.608 0 1.148.14 1.62.42.48.272.852.656 1.116 1.152.272.496.408 1.064.408 1.704zm-3.144-2.304c-.552 0-1.016.168-1.392.504-.368.336-.584.776-.648 1.32h4.08c-.064-.536-.284-.972-.66-1.308-.368-.344-.828-.516-1.38-.516zm4.744-3.456h1.152V202h-1.152v-8.904zm9.1 5.76c0 .088-.009.204-.025.348h-5.16c.072.56.316 1.012.732 1.356.424.336.948.504 1.572.504.76 0 1.372-.256 1.836-.768l.636.744a2.777 2.777 0 0 1-1.08.768c-.424.176-.9.264-1.428.264-.672 0-1.268-.136-1.788-.408a3.033 3.033 0 0 1-1.212-1.164 3.357 3.357 0 0 1-.42-1.68c0-.616.136-1.172.408-1.668.28-.496.66-.88 1.14-1.152a3.244 3.244 0 0 1 1.644-.42c.608 0 1.148.14 1.62.42.48.272.852.656 1.116 1.152.272.496.408 1.064.408 1.704zm-3.145-2.304c-.552 0-1.016.168-1.392.504-.368.336-.584.776-.648 1.32h4.08c-.064-.536-.284-.972-.66-1.308-.368-.344-.828-.516-1.38-.516zm7.516 5.52c-.648 0-1.228-.14-1.74-.42-.504-.28-.9-.664-1.188-1.152a3.284 3.284 0 0 1-.432-1.68c0-.624.144-1.18.432-1.668.288-.496.684-.88 1.188-1.152.512-.28 1.092-.42 1.74-.42.576 0 1.088.116 1.536.348a2.47 2.47 0 0 1 1.056 1.008l-.876.564a1.957 1.957 0 0 0-.744-.684 2.122 2.122 0 0 0-.984-.228 2.31 2.31 0 0 0-1.128.276 2.008 2.008 0 0 0-.78.792 2.385 2.385 0 0 0-.276 1.164c0 .448.092.844.276 1.188.192.336.452.596.78.78a2.31 2.31 0 0 0 1.128.276c.36 0 .688-.076.984-.228.296-.152.544-.38.744-.684l.876.552c-.248.44-.6.78-1.056 1.02-.448.232-.96.348-1.536.348zm7.742-.444a1.79 1.79 0 0 1-.624.336 2.74 2.74 0 0 1-.769.108c-.64 0-1.135-.172-1.487-.516-.352-.344-.528-.836-.528-1.476v-3.492h-1.08v-.948h1.08v-1.392h1.152v1.392h1.824v.948h-1.825v3.444c0 .344.084.608.252.792.177.184.424.276.745.276.352 0 .651-.1.9-.3l.36.828zm13.358-1.728H86l-.924 2.1H83.84l3.804-8.4h1.188l3.816 8.4h-1.26l-.924-2.1zm-.42-.96l-1.812-4.116-1.812 4.116h3.624zm7.206 2.688a1.79 1.79 0 0 1-.624.336 2.74 2.74 0 0 1-.768.108c-.64 0-1.136-.172-1.488-.516-.352-.344-.528-.836-.528-1.476v-3.492h-1.08v-.948h1.08v-1.392h1.152v1.392h1.824v.948h-1.824v3.444c0 .344.084.608.252.792.176.184.424.276.744.276.352 0 .652-.1.9-.3l.36.828zm4.816 0a1.79 1.79 0 0 1-.624.336 2.74 2.74 0 0 1-.768.108c-.64 0-1.136-.172-1.488-.516-.352-.344-.528-.836-.528-1.476v-3.492h-1.08v-.948h1.08v-1.392h1.153v1.392h1.823v.948h-1.823v3.444c0 .344.083.608.251.792.176.184.424.276.744.276.352 0 .652-.1.9-.3l.36.828zm2.497-4.92c.2-.368.496-.648.888-.84.392-.192.868-.288 1.428-.288v1.116a2.249 2.249 0 0 0-.264-.012c-.624 0-1.116.188-1.476.564-.352.368-.528.896-.528 1.584V202h-1.152v-6.36h1.104v1.068zm3.736-1.068h1.152V202h-1.152v-6.36zm.576-1.224a.789.789 0 0 1-.564-.216.718.718 0 0 1-.216-.528c0-.208.072-.384.216-.528a.766.766 0 0 1 .564-.228c.224 0 .408.072.552.216a.662.662 0 0 1 .228.516c0 .216-.076.4-.228.552a.748.748 0 0 1-.552.216zm6.148 1.164c.616 0 1.168.136 1.656.408.488.272.868.652 1.14 1.14.28.488.42 1.052.42 1.692 0 .64-.14 1.208-.42 1.704a2.894 2.894 0 0 1-1.14 1.14 3.343 3.343 0 0 1-1.656.408c-.472 0-.904-.092-1.296-.276a2.495 2.495 0 0 1-.972-.804V202h-1.104v-8.904h1.152v3.504c.256-.336.576-.588.96-.756a2.988 2.988 0 0 1 1.26-.264zm-.096 5.484a2.15 2.15 0 0 0 1.092-.276 2.03 2.03 0 0 0 .768-.792c.192-.344.288-.736.288-1.176 0-.44-.096-.828-.288-1.164a1.93 1.93 0 0 0-.768-.792 2.15 2.15 0 0 0-1.092-.276c-.4 0-.764.092-1.092.276a1.93 1.93 0 0 0-.768.792 2.385 2.385 0 0 0-.276 1.164c0 .44.092.832.276 1.176.184.336.44.6.768.792.328.184.692.276 1.092.276zm10.831-5.424V202h-1.092v-.96c-.232.328-.54.584-.924.768a2.879 2.879 0 0 1-1.236.264c-.848 0-1.516-.232-2.004-.696-.488-.472-.732-1.164-.732-2.076v-3.66h1.152v3.528c0 .616.148 1.084.444 1.404.296.312.72.468 1.272.468.608 0 1.088-.184 1.44-.552.352-.368.528-.888.528-1.56v-3.288h1.152zm5.769 5.988a1.79 1.79 0 0 1-.624.336 2.74 2.74 0 0 1-.768.108c-.64 0-1.136-.172-1.488-.516-.352-.344-.528-.836-.528-1.476v-3.492h-1.08v-.948h1.08v-1.392h1.152v1.392h1.824v.948h-1.824v3.444c0 .344.084.608.252.792.176.184.424.276.744.276.352 0 .652-.1.9-.3l.36.828zm6.93-2.772c0 .088-.008.204-.024.348h-5.16c.072.56.316 1.012.732 1.356.424.336.948.504 1.572.504.76 0 1.372-.256 1.836-.768l.636.744a2.777 2.777 0 0 1-1.08.768c-.424.176-.9.264-1.428.264-.672 0-1.268-.136-1.788-.408a3.033 3.033 0 0 1-1.212-1.164 3.357 3.357 0 0 1-.42-1.68c0-.616.136-1.172.408-1.668.28-.496.66-.88 1.14-1.152a3.244 3.244 0 0 1 1.644-.42c.608 0 1.148.14 1.62.42.48.272.852.656 1.116 1.152.272.496.408 1.064.408 1.704zm-3.144-2.304c-.552 0-1.016.168-1.392.504-.368.336-.584.776-.648 1.32h4.08c-.064-.536-.284-.972-.66-1.308-.368-.344-.828-.516-1.38-.516z"/><rect width="203.5" height="31.5" x="243.25" y="229.25" fill="#F3F3F8" stroke="#8187B2" stroke-width=".5" rx="4.75"/><path fill="#62699F" d="M428 250l-3-4h6l-3 4zm0-10l3 4h-6l3-4z"/><rect width="97" height="16" x="259" y="237" fill="#D7D9E6" rx="2"/><path fill="#62699F" d="M267.536 240.6c1.088 0 1.944.26 2.568.78.624.52.936 1.236.936 2.148 0 .912-.312 1.628-.936 2.148-.624.52-1.48.78-2.568.78h-2.076V249h-1.2v-8.4h3.276zm-.036 4.812c.76 0 1.34-.16 1.74-.48.4-.328.6-.796.6-1.404 0-.608-.2-1.072-.6-1.392-.4-.328-.98-.492-1.74-.492h-2.04v3.768h2.04zm6.134-1.704c.2-.368.496-.648.888-.84.392-.192.868-.288 1.428-.288v1.116a2.249 2.249 0 0 0-.264-.012c-.624 0-1.116.188-1.476.564-.352.368-.528.896-.528 1.584V249h-1.152v-6.36h1.104v1.068zm6.401 5.364c-.632 0-1.2-.14-1.704-.42-.504-.28-.9-.664-1.188-1.152a3.357 3.357 0 0 1-.42-1.68c0-.624.14-1.18.42-1.668.288-.496.684-.88 1.188-1.152a3.449 3.449 0 0 1 1.704-.42c.632 0 1.196.14 1.692.42.504.272.896.656 1.176 1.152.288.488.432 1.044.432 1.668 0 .624-.144 1.184-.432 1.68-.28.488-.672.872-1.176 1.152-.496.28-1.06.42-1.692.42zm0-1.008a2.15 2.15 0 0 0 1.092-.276 2.03 2.03 0 0 0 .768-.792c.184-.344.276-.736.276-1.176 0-.44-.092-.828-.276-1.164a1.93 1.93 0 0 0-.768-.792 2.15 2.15 0 0 0-1.092-.276c-.408 0-.776.092-1.104.276-.32.184-.576.448-.768.792a2.385 2.385 0 0 0-.276 1.164c0 .44.092.832.276 1.176.192.336.448.6.768.792.328.184.696.276 1.104.276zm10.893-7.968V249h-1.104v-1.008c-.256.352-.58.62-.972.804a3.012 3.012 0 0 1-1.296.276 3.343 3.343 0 0 1-1.656-.408 2.976 2.976 0 0 1-1.152-1.14c-.272-.496-.408-1.064-.408-1.704 0-.64.136-1.204.408-1.692.28-.488.664-.868 1.152-1.14a3.343 3.343 0 0 1 1.656-.408c.456 0 .876.088 1.26.264.384.168.704.42.96.756v-3.504h1.152zm-3.276 7.968c.4 0 .764-.092 1.092-.276a2.03 2.03 0 0 0 .768-.792c.184-.344.276-.736.276-1.176 0-.44-.092-.828-.276-1.164a1.93 1.93 0 0 0-.768-.792 2.193 2.193 0 0 0-1.092-.276c-.408 0-.776.092-1.104.276-.32.184-.576.448-.768.792a2.385 2.385 0 0 0-.276 1.164c0 .44.092.832.276 1.176.192.336.448.6.768.792.328.184.696.276 1.104.276zm11.384-5.424V249h-1.092v-.96c-.232.328-.54.584-.924.768a2.879 2.879 0 0 1-1.236.264c-.848 0-1.516-.232-2.004-.696-.488-.472-.732-1.164-.732-2.076v-3.66h1.152v3.528c0 .616.148 1.084.444 1.404.296.312.72.468 1.272.468.608 0 1.088-.184 1.44-.552.352-.368.528-.888.528-1.56v-3.288h1.152zm4.965 6.432c-.648 0-1.228-.14-1.74-.42-.504-.28-.9-.664-1.188-1.152a3.284 3.284 0 0 1-.432-1.68c0-.624.144-1.18.432-1.668.288-.496.684-.88 1.188-1.152.512-.28 1.092-.42 1.74-.42.576 0 1.088.116 1.536.348a2.47 2.47 0 0 1 1.056 1.008l-.876.564a1.957 1.957 0 0 0-.744-.684 2.122 2.122 0 0 0-.984-.228 2.31 2.31 0 0 0-1.128.276 2.008 2.008 0 0 0-.78.792 2.385 2.385 0 0 0-.276 1.164c0 .448.092.844.276 1.188.192.336.452.596.78.78a2.31 2.31 0 0 0 1.128.276c.36 0 .688-.076.984-.228.296-.152.544-.38.744-.684l.876.552c-.248.44-.6.78-1.056 1.02-.448.232-.96.348-1.536.348zm7.741-.444a1.79 1.79 0 0 1-.624.336 2.74 2.74 0 0 1-.768.108c-.64 0-1.136-.172-1.488-.516-.352-.344-.528-.836-.528-1.476v-3.492h-1.08v-.948h1.08v-1.392h1.152v1.392h1.824v.948h-1.824v3.444c0 .344.084.608.252.792.176.184.424.276.744.276.352 0 .652-.1.9-.3l.36.828zm6.452-6.984h-2.88V240.6h6.948v1.044h-2.88V249h-1.188v-7.356zm5.054.996h1.152V249h-1.152v-6.36zm.576-1.224a.789.789 0 0 1-.564-.216.718.718 0 0 1-.216-.528c0-.208.072-.384.216-.528a.766.766 0 0 1 .564-.228c.224 0 .408.072.552.216a.662.662 0 0 1 .228.516c0 .216-.076.4-.228.552a.748.748 0 0 1-.552.216zm6.352 7.212a1.79 1.79 0 0 1-.624.336 2.74 2.74 0 0 1-.768.108c-.64 0-1.136-.172-1.488-.516-.352-.344-.528-.836-.528-1.476v-3.492h-1.08v-.948h1.08v-1.392h1.152v1.392h1.824v.948h-1.824v3.444c0 .344.084.608.252.792.176.184.424.276.744.276.352 0 .652-.1.9-.3l.36.828zm1.393-8.532h1.152V249h-1.152v-8.904zm9.099 5.76c0 .088-.008.204-.024.348h-5.16c.072.56.316 1.012.732 1.356.424.336.948.504 1.572.504.76 0 1.372-.256 1.836-.768l.636.744a2.777 2.777 0 0 1-1.08.768c-.424.176-.9.264-1.428.264-.672 0-1.268-.136-1.788-.408a3.033 3.033 0 0 1-1.212-1.164 3.357 3.357 0 0 1-.42-1.68c0-.616.136-1.172.408-1.668.28-.496.66-.88 1.14-1.152a3.244 3.244 0 0 1 1.644-.42c.608 0 1.148.14 1.62.42.48.272.852.656 1.116 1.152.272.496.408 1.064.408 1.704zm-3.144-2.304c-.552 0-1.016.168-1.392.504-.368.336-.584.776-.648 1.32h4.08c-.064-.536-.284-.972-.66-1.308-.368-.344-.828-.516-1.38-.516z"/><path stroke="#62699F" stroke-width=".5" d="M0-.25h7.41" transform="scale(-.97468 -1.0247) rotate(-45 -465.555 316.597)"/><path stroke="#62699F" stroke-width=".5" d="M0-.25h7.41" transform="scale(-.97468 -1.0247) rotate(45 110.98 -556.281)"/><path fill="#fff" d="M465 252a8 8 0 1 1 0-16 8 8 0 0 1 0 16z"/><path fill="#62699F" fill-rule="evenodd" d="M458 244a7 7 0 1 0 14 0 7 7 0 0 0-14 0zm-1 0a8 8 0 1 0 16 0 8 8 0 0 0-16 0z" clip-rule="evenodd"/><path fill="#62699F" fill-rule="evenodd" d="M467.828 246.829l-5.656-5.657.707-.707 5.657 5.657-.708.707z" clip-rule="evenodd"/><path fill="#62699F" fill-rule="evenodd" d="M462.172 246.829l5.656-5.657.708.707-5.657 5.657-.707-.707z" clip-rule="evenodd"/><path fill="#6577AA" d="M43.708 249.096a5.914 5.914 0 0 1-1.836-.288c-.584-.2-1.044-.456-1.38-.768l.444-.936c.32.288.728.524 1.224.708.504.176 1.02.264 1.548.264.696 0 1.216-.116 1.56-.348.344-.24.516-.556.516-.948a.9.9 0 0 0-.288-.696 1.784 1.784 0 0 0-.696-.42c-.272-.096-.66-.204-1.164-.324a12.396 12.396 0 0 1-1.536-.456 2.616 2.616 0 0 1-.996-.696c-.272-.32-.408-.748-.408-1.284 0-.448.116-.852.348-1.212.24-.36.6-.648 1.08-.864.48-.216 1.076-.324 1.788-.324.496 0 .984.064 1.464.192s.892.312 1.236.552l-.396.96a4.199 4.199 0 0 0-1.128-.504 4.08 4.08 0 0 0-1.176-.18c-.68 0-1.192.124-1.536.372-.336.248-.504.568-.504.96 0 .288.096.524.288.708.192.176.428.316.708.42.288.096.676.2 1.164.312.632.152 1.14.304 1.524.456.384.152.712.384.984.696.28.312.42.732.42 1.26 0 .44-.12.844-.36 1.212-.24.36-.604.648-1.092.864-.488.208-1.088.312-1.8.312zm10.585-3.24c0 .088-.008.204-.024.348h-5.16c.072.56.316 1.012.732 1.356.424.336.948.504 1.572.504.76 0 1.372-.256 1.836-.768l.636.744a2.777 2.777 0 0 1-1.08.768c-.424.176-.9.264-1.428.264-.672 0-1.268-.136-1.788-.408a3.033 3.033 0 0 1-1.212-1.164 3.357 3.357 0 0 1-.42-1.68c0-.616.136-1.172.408-1.668.28-.496.66-.88 1.14-1.152a3.244 3.244 0 0 1 1.644-.42c.608 0 1.148.14 1.62.42.48.272.852.656 1.116 1.152.272.496.408 1.064.408 1.704zm-3.144-2.304c-.552 0-1.016.168-1.392.504-.368.336-.584.776-.648 1.32h4.08c-.064-.536-.284-.972-.66-1.308-.368-.344-.828-.516-1.38-.516zm4.744-3.456h1.152V249h-1.152v-8.904zm9.1 5.76c0 .088-.009.204-.025.348h-5.16c.072.56.316 1.012.732 1.356.424.336.948.504 1.572.504.76 0 1.372-.256 1.836-.768l.636.744a2.777 2.777 0 0 1-1.08.768c-.424.176-.9.264-1.428.264-.672 0-1.268-.136-1.788-.408a3.033 3.033 0 0 1-1.212-1.164 3.357 3.357 0 0 1-.42-1.68c0-.616.136-1.172.408-1.668.28-.496.66-.88 1.14-1.152a3.244 3.244 0 0 1 1.644-.42c.608 0 1.148.14 1.62.42.48.272.852.656 1.116 1.152.272.496.408 1.064.408 1.704zm-3.145-2.304c-.552 0-1.016.168-1.392.504-.368.336-.584.776-.648 1.32h4.08c-.064-.536-.284-.972-.66-1.308-.368-.344-.828-.516-1.38-.516zm7.516 5.52c-.648 0-1.228-.14-1.74-.42-.504-.28-.9-.664-1.188-1.152a3.284 3.284 0 0 1-.432-1.68c0-.624.144-1.18.432-1.668.288-.496.684-.88 1.188-1.152.512-.28 1.092-.42 1.74-.42.576 0 1.088.116 1.536.348a2.47 2.47 0 0 1 1.056 1.008l-.876.564a1.957 1.957 0 0 0-.744-.684 2.122 2.122 0 0 0-.984-.228 2.31 2.31 0 0 0-1.128.276 2.008 2.008 0 0 0-.78.792 2.385 2.385 0 0 0-.276 1.164c0 .448.092.844.276 1.188.192.336.452.596.78.78a2.31 2.31 0 0 0 1.128.276c.36 0 .688-.076.984-.228.296-.152.544-.38.744-.684l.876.552c-.248.44-.6.78-1.056 1.02-.448.232-.96.348-1.536.348zm7.742-.444a1.79 1.79 0 0 1-.624.336 2.74 2.74 0 0 1-.769.108c-.64 0-1.135-.172-1.487-.516-.352-.344-.528-.836-.528-1.476v-3.492h-1.08v-.948h1.08v-1.392h1.152v1.392h1.824v.948h-1.825v3.444c0 .344.084.608.252.792.177.184.424.276.745.276.352 0 .651-.1.9-.3l.36.828zm13.358-1.728H86l-.924 2.1H83.84l3.804-8.4h1.188l3.816 8.4h-1.26l-.924-2.1zm-.42-.96l-1.812-4.116-1.812 4.116h3.624zm7.206 2.688a1.79 1.79 0 0 1-.624.336 2.74 2.74 0 0 1-.768.108c-.64 0-1.136-.172-1.488-.516-.352-.344-.528-.836-.528-1.476v-3.492h-1.08v-.948h1.08v-1.392h1.152v1.392h1.824v.948h-1.824v3.444c0 .344.084.608.252.792.176.184.424.276.744.276.352 0 .652-.1.9-.3l.36.828zm4.816 0a1.79 1.79 0 0 1-.624.336 2.74 2.74 0 0 1-.768.108c-.64 0-1.136-.172-1.488-.516-.352-.344-.528-.836-.528-1.476v-3.492h-1.08v-.948h1.08v-1.392h1.153v1.392h1.823v.948h-1.823v3.444c0 .344.083.608.251.792.176.184.424.276.744.276.352 0 .652-.1.9-.3l.36.828zm2.497-4.92c.2-.368.496-.648.888-.84.392-.192.868-.288 1.428-.288v1.116a2.249 2.249 0 0 0-.264-.012c-.624 0-1.116.188-1.476.564-.352.368-.528.896-.528 1.584V249h-1.152v-6.36h1.104v1.068zm3.736-1.068h1.152V249h-1.152v-6.36zm.576-1.224a.789.789 0 0 1-.564-.216.718.718 0 0 1-.216-.528c0-.208.072-.384.216-.528a.766.766 0 0 1 .564-.228c.224 0 .408.072.552.216a.662.662 0 0 1 .228.516c0 .216-.076.4-.228.552a.748.748 0 0 1-.552.216zm6.148 1.164c.616 0 1.168.136 1.656.408.488.272.868.652 1.14 1.14.28.488.42 1.052.42 1.692 0 .64-.14 1.208-.42 1.704a2.894 2.894 0 0 1-1.14 1.14 3.343 3.343 0 0 1-1.656.408c-.472 0-.904-.092-1.296-.276a2.495 2.495 0 0 1-.972-.804V249h-1.104v-8.904h1.152v3.504c.256-.336.576-.588.96-.756a2.988 2.988 0 0 1 1.26-.264zm-.096 5.484a2.15 2.15 0 0 0 1.092-.276 2.03 2.03 0 0 0 .768-.792c.192-.344.288-.736.288-1.176 0-.44-.096-.828-.288-1.164a1.93 1.93 0 0 0-.768-.792 2.15 2.15 0 0 0-1.092-.276c-.4 0-.764.092-1.092.276a1.93 1.93 0 0 0-.768.792 2.385 2.385 0 0 0-.276 1.164c0 .44.092.832.276 1.176.184.336.44.6.768.792.328.184.692.276 1.092.276zm10.831-5.424V249h-1.092v-.96c-.232.328-.54.584-.924.768a2.879 2.879 0 0 1-1.236.264c-.848 0-1.516-.232-2.004-.696-.488-.472-.732-1.164-.732-2.076v-3.66h1.152v3.528c0 .616.148 1.084.444 1.404.296.312.72.468 1.272.468.608 0 1.088-.184 1.44-.552.352-.368.528-.888.528-1.56v-3.288h1.152zm5.769 5.988a1.79 1.79 0 0 1-.624.336 2.74 2.74 0 0 1-.768.108c-.64 0-1.136-.172-1.488-.516-.352-.344-.528-.836-.528-1.476v-3.492h-1.08v-.948h1.08v-1.392h1.152v1.392h1.824v.948h-1.824v3.444c0 .344.084.608.252.792.176.184.424.276.744.276.352 0 .652-.1.9-.3l.36.828zm6.93-2.772c0 .088-.008.204-.024.348h-5.16c.072.56.316 1.012.732 1.356.424.336.948.504 1.572.504.76 0 1.372-.256 1.836-.768l.636.744a2.777 2.777 0 0 1-1.08.768c-.424.176-.9.264-1.428.264-.672 0-1.268-.136-1.788-.408a3.033 3.033 0 0 1-1.212-1.164 3.357 3.357 0 0 1-.42-1.68c0-.616.136-1.172.408-1.668.28-.496.66-.88 1.14-1.152a3.244 3.244 0 0 1 1.644-.42c.608 0 1.148.14 1.62.42.48.272.852.656 1.116 1.152.272.496.408 1.064.408 1.704zm-3.144-2.304c-.552 0-1.016.168-1.392.504-.368.336-.584.776-.648 1.32h4.08c-.064-.536-.284-.972-.66-1.308-.368-.344-.828-.516-1.38-.516z"/><path fill="#E8E9F1" d="M0 10C0 4.477 4.477 0 10 0h499c5.523 0 10 4.477 10 10v28H0V10z"/><path stroke="#EB5757" d="M51.405 19.57c0 3.047-2.418 5.5-5.379 5.5-2.96 0-5.378-2.453-5.378-5.5 0-3.048 2.417-5.5 5.378-5.5 2.961 0 5.38 2.452 5.38 5.5z"/><path stroke="#F2994A" d="M67.254 19.57c0 3.047-2.418 5.5-5.379 5.5-2.96 0-5.379-2.453-5.379-5.5 0-3.048 2.418-5.5 5.38-5.5 2.96 0 5.378 2.452 5.378 5.5z"/><path stroke="#219653" d="M83.102 19.57c0 3.047-2.417 5.5-5.378 5.5-2.961 0-5.379-2.453-5.379-5.5 0-3.048 2.418-5.5 5.379-5.5 2.96 0 5.378 2.452 5.378 5.5z"/><rect width="182" height="18" x="168" y="10" fill="#fff" rx="9"/><path fill="#8492BB" d="M206.01 20.9h-4.464l-.924 2.1h-1.236l3.804-8.4h1.188l3.816 8.4h-1.26l-.924-2.1zm-.42-.96l-1.812-4.116-1.812 4.116h3.624zm7.207 2.688a1.79 1.79 0 0 1-.624.336 2.74 2.74 0 0 1-.768.108c-.64 0-1.136-.172-1.488-.516-.352-.344-.528-.836-.528-1.476v-3.492h-1.08v-.948h1.08v-1.392h1.152v1.392h1.824v.948h-1.824v3.444c0 .344.084.608.252.792.176.184.424.276.744.276.352 0 .652-.1.9-.3l.36.828zm2.497-4.92c.2-.368.496-.648.888-.84.392-.192.868-.288 1.428-.288v1.116a2.249 2.249 0 0 0-.264-.012c-.624 0-1.116.188-1.476.564-.352.368-.528.896-.528 1.584V23h-1.152v-6.36h1.104v1.068zm4.84 0c.2-.368.496-.648.887-.84.393-.192.869-.288 1.429-.288v1.116a2.249 2.249 0 0 0-.264-.012c-.624 0-1.116.188-1.476.564-.352.368-.528.896-.528 1.584V23h-1.152v-6.36h1.104v1.068zm3.735-1.068h1.152V23h-1.152v-6.36zm.576-1.224a.789.789 0 0 1-.564-.216.718.718 0 0 1-.216-.528c0-.208.072-.384.216-.528a.766.766 0 0 1 .564-.228c.224 0 .408.072.552.216a.662.662 0 0 1 .228.516c0 .216-.076.4-.228.552a.748.748 0 0 1-.552.216zm6.148 1.164c.616 0 1.168.136 1.656.408.488.272.868.652 1.14 1.14.28.488.42 1.052.42 1.692 0 .64-.14 1.208-.42 1.704a2.894 2.894 0 0 1-1.14 1.14 3.343 3.343 0 0 1-1.656.408c-.472 0-.904-.092-1.296-.276a2.495 2.495 0 0 1-.972-.804V23h-1.104v-8.904h1.152V17.6c.256-.336.576-.588.96-.756a2.988 2.988 0 0 1 1.26-.264zm-.096 5.484a2.15 2.15 0 0 0 1.092-.276 2.03 2.03 0 0 0 .768-.792c.192-.344.288-.736.288-1.176 0-.44-.096-.828-.288-1.164a1.93 1.93 0 0 0-.768-.792 2.15 2.15 0 0 0-1.092-.276c-.4 0-.764.092-1.092.276a1.93 1.93 0 0 0-.768.792 2.385 2.385 0 0 0-.276 1.164c0 .44.092.832.276 1.176.184.336.44.6.768.792.328.184.692.276 1.092.276zm10.832-5.424V23h-1.092v-.96c-.232.328-.54.584-.924.768a2.879 2.879 0 0 1-1.236.264c-.848 0-1.516-.232-2.004-.696-.488-.472-.732-1.164-.732-2.076v-3.66h1.152v3.528c0 .616.148 1.084.444 1.404.296.312.72.468 1.272.468.608 0 1.088-.184 1.44-.552.352-.368.528-.888.528-1.56V16.64h1.152zm5.769 5.988a1.79 1.79 0 0 1-.624.336 2.74 2.74 0 0 1-.768.108c-.64 0-1.136-.172-1.488-.516-.352-.344-.528-.836-.528-1.476v-3.492h-1.08v-.948h1.08v-1.392h1.152v1.392h1.824v.948h-1.824v3.444c0 .344.084.608.252.792.176.184.424.276.744.276.352 0 .652-.1.9-.3l.36.828zm6.93-2.772c0 .088-.008.204-.024.348h-5.16c.072.56.316 1.012.732 1.356.424.336.948.504 1.572.504.76 0 1.372-.256 1.836-.768l.636.744a2.777 2.777 0 0 1-1.08.768c-.424.176-.9.264-1.428.264-.672 0-1.268-.136-1.788-.408a3.033 3.033 0 0 1-1.212-1.164 3.357 3.357 0 0 1-.42-1.68c0-.616.136-1.172.408-1.668.28-.496.66-.88 1.14-1.152a3.244 3.244 0 0 1 1.644-.42c.608 0 1.148.14 1.62.42.48.272.852.656 1.116 1.152.272.496.408 1.064.408 1.704zm-3.144-2.304c-.552 0-1.016.168-1.392.504-.368.336-.584.776-.648 1.32h4.08c-.064-.536-.284-.972-.66-1.308-.368-.344-.828-.516-1.38-.516zm6.567 5.52c-.52 0-1.02-.068-1.5-.204-.48-.144-.856-.324-1.128-.54l.48-.912c.28.2.62.36 1.02.48s.804.18 1.212.18c1.008 0 1.512-.288 1.512-.864a.56.56 0 0 0-.204-.456 1.235 1.235 0 0 0-.516-.24 9.055 9.055 0 0 0-.864-.18 8.75 8.75 0 0 1-1.26-.276 1.937 1.937 0 0 1-.828-.528c-.232-.248-.348-.596-.348-1.044 0-.576.24-1.036.72-1.38.48-.352 1.124-.528 1.932-.528.424 0 .848.052 1.272.156.424.104.772.244 1.044.42l-.492.912c-.52-.336-1.132-.504-1.836-.504-.488 0-.86.08-1.116.24-.256.16-.384.372-.384.636 0 .208.072.372.216.492.144.12.32.208.528.264.216.056.516.12.9.192.512.088.924.184 1.236.288.32.096.592.264.816.504.224.24.336.576.336 1.008 0 .576-.248 1.036-.744 1.38-.488.336-1.156.504-2.004.504zM272.818 23l-.012-6.12-3.036 5.1h-.552l-3.036-5.064V23h-1.152v-8.4h.984l3.504 5.904 3.456-5.904h.984l.012 8.4h-1.152zm5.82-6.42c.88 0 1.552.216 2.016.648.472.432.708 1.076.708 1.932V23h-1.092v-.84a1.853 1.853 0 0 1-.828.684c-.352.152-.772.228-1.26.228-.712 0-1.284-.172-1.716-.516-.424-.344-.636-.796-.636-1.356s.204-1.008.612-1.344c.408-.344 1.056-.516 1.944-.516h1.824v-.228c0-.496-.144-.876-.432-1.14-.288-.264-.712-.396-1.272-.396-.376 0-.744.064-1.104.192a2.76 2.76 0 0 0-.912.492l-.48-.864c.328-.264.72-.464 1.176-.6.456-.144.94-.216 1.452-.216zm-.264 5.604c.44 0 .82-.096 1.14-.288.32-.2.552-.48.696-.84v-.888h-1.776c-.976 0-1.464.328-1.464.984 0 .32.124.572.372.756.248.184.592.276 1.032.276zm8.492-5.604c.616 0 1.168.136 1.656.408.488.272.868.652 1.14 1.14.28.488.42 1.052.42 1.692 0 .64-.14 1.208-.42 1.704a2.894 2.894 0 0 1-1.14 1.14 3.343 3.343 0 0 1-1.656.408c-.456 0-.876-.088-1.26-.264a2.621 2.621 0 0 1-.96-.768v3.288h-1.152V16.64h1.104v1.008c.256-.352.58-.616.972-.792a3.012 3.012 0 0 1 1.296-.276zm-.096 5.484a2.15 2.15 0 0 0 1.092-.276 2.03 2.03 0 0 0 .768-.792c.192-.344.288-.736.288-1.176 0-.44-.096-.828-.288-1.164a1.93 1.93 0 0 0-.768-.792 2.15 2.15 0 0 0-1.092-.276c-.4 0-.764.096-1.092.288-.32.184-.576.444-.768.78a2.385 2.385 0 0 0-.276 1.164c0 .44.092.832.276 1.176.184.336.44.6.768.792.328.184.692.276 1.092.276zm8.276-5.484c.616 0 1.168.136 1.656.408.488.272.868.652 1.14 1.14.28.488.42 1.052.42 1.692 0 .64-.14 1.208-.42 1.704a2.894 2.894 0 0 1-1.14 1.14 3.343 3.343 0 0 1-1.656.408c-.456 0-.876-.088-1.26-.264a2.621 2.621 0 0 1-.96-.768v3.288h-1.152V16.64h1.104v1.008c.256-.352.58-.616.972-.792a3.012 3.012 0 0 1 1.296-.276zm-.096 5.484a2.15 2.15 0 0 0 1.092-.276 2.03 2.03 0 0 0 .768-.792c.192-.344.288-.736.288-1.176 0-.44-.096-.828-.288-1.164a1.93 1.93 0 0 0-.768-.792 2.15 2.15 0 0 0-1.092-.276c-.4 0-.764.096-1.092.288-.32.184-.576.444-.768.78a2.385 2.385 0 0 0-.276 1.164c0 .44.092.832.276 1.176.184.336.44.6.768.792.328.184.692.276 1.092.276zm4.904-5.424h1.152V23h-1.152v-6.36zm.576-1.224a.789.789 0 0 1-.564-.216.718.718 0 0 1-.216-.528c0-.208.072-.384.216-.528a.766.766 0 0 1 .564-.228c.224 0 .408.072.552.216a.662.662 0 0 1 .228.516c0 .216-.076.4-.228.552a.748.748 0 0 1-.552.216zm6.171 1.164c.808 0 1.448.236 1.92.708.48.464.72 1.148.72 2.052V23h-1.152v-3.528c0-.616-.148-1.08-.444-1.392-.296-.312-.72-.468-1.272-.468-.624 0-1.116.184-1.476.552-.36.36-.54.88-.54 1.56V23h-1.152v-6.36h1.104v.96c.232-.328.544-.58.936-.756.4-.176.852-.264 1.356-.264zm10.891.06v5.496c0 1.112-.276 1.932-.828 2.46-.552.536-1.376.804-2.472.804-.6 0-1.172-.084-1.716-.252-.544-.16-.984-.392-1.32-.696l.552-.888c.296.256.66.456 1.092.6.44.152.892.228 1.356.228.744 0 1.292-.176 1.644-.528.36-.352.54-.888.54-1.608v-.504a2.594 2.594 0 0 1-1.008.744c-.392.16-.82.24-1.284.24-.608 0-1.16-.128-1.656-.384a2.968 2.968 0 0 1-1.152-1.092 3.091 3.091 0 0 1-.42-1.608c0-.6.14-1.132.42-1.596.28-.472.664-.836 1.152-1.092a3.557 3.557 0 0 1 1.656-.384c.48 0 .924.088 1.332.264.416.176.756.436 1.02.78v-.984h1.092zm-3.312 5.088c.416 0 .788-.088 1.116-.264.336-.176.596-.42.78-.732.192-.32.288-.68.288-1.08 0-.616-.204-1.112-.612-1.488-.408-.384-.932-.576-1.572-.576-.648 0-1.176.192-1.584.576-.408.376-.612.872-.612 1.488 0 .4.092.76.276 1.08.192.312.452.556.78.732a2.42 2.42 0 0 0 1.14.264z"/></g><defs><clipPath id="a"><path fill="#fff" d="M0 0h16v16H0z" transform="translate(92 313)"/></clipPath></defs></svg>