<svg xmlns="http://www.w3.org/2000/svg" width="525" height="185" fill="none" viewBox="0 0 525 185"><g opacity=".8"><path fill="#F5F6F9" d="M0 10C0 4.477 4.477 0 10 0h503c5.523 0 10 4.477 10 10v165c0 5.523-4.477 10-10 10H10c-5.523 0-10-4.477-10-10V10z"/><path fill="#6577AA" d="M45.016 88.096c-.84 0-1.6-.184-2.28-.552a4.175 4.175 0 0 1-1.584-1.536c-.384-.656-.576-1.392-.576-2.208 0-.816.192-1.548.576-2.196a4.04 4.04 0 0 1 1.596-1.536c.68-.376 1.44-.564 2.28-.564.656 0 1.256.112 1.8.336.544.216 1.008.54 1.392.972l-.78.756c-.632-.664-1.42-.996-2.364-.996-.624 0-1.188.14-1.692.42-.504.28-.9.668-1.188 1.164a3.244 3.244 0 0 0-.42 1.644c0 .608.14 1.16.42 1.656.288.488.684.872 1.188 1.152.504.28 1.068.42 1.692.42.936 0 1.724-.336 2.364-1.008l.78.756c-.384.432-.852.76-1.404.984a4.684 4.684 0 0 1-1.8.336zm6.982-6.516c.88 0 1.552.216 2.016.648.472.432.708 1.076.708 1.932V88H53.63v-.84a1.853 1.853 0 0 1-.828.684c-.352.152-.772.228-1.26.228-.712 0-1.284-.172-1.716-.516-.424-.344-.636-.796-.636-1.356s.204-1.008.612-1.344c.408-.344 1.056-.516 1.944-.516h1.824v-.228c0-.496-.144-.876-.432-1.14-.288-.264-.712-.396-1.272-.396-.376 0-.744.064-1.104.192a2.76 2.76 0 0 0-.912.492l-.48-.864c.328-.264.72-.464 1.176-.6.456-.144.94-.216 1.452-.216zm-.264 5.604c.44 0 .82-.096 1.14-.288.32-.2.552-.48.696-.84v-.888h-1.776c-.976 0-1.464.328-1.464.984 0 .32.124.572.372.756.248.184.592.276 1.032.276zm8.696.444a1.79 1.79 0 0 1-.624.336 2.74 2.74 0 0 1-.768.108c-.64 0-1.136-.172-1.488-.516-.352-.344-.528-.836-.528-1.476v-3.492h-1.08v-.948h1.08v-1.392h1.152v1.392h1.824v.948h-1.824v3.444c0 .344.084.608.252.792.176.184.424.276.744.276.352 0 .652-.1.9-.3l.36.828zm6.93-2.772c0 .088-.008.204-.025.348h-5.16c.073.56.317 1.012.733 1.356.423.336.947.504 1.572.504.76 0 1.371-.256 1.835-.768l.636.744a2.777 2.777 0 0 1-1.08.768c-.423.176-.9.264-1.427.264-.672 0-1.269-.136-1.788-.408a3.033 3.033 0 0 1-1.212-1.164 3.357 3.357 0 0 1-.42-1.68c0-.616.136-1.172.407-1.668.28-.496.66-.88 1.14-1.152a3.244 3.244 0 0 1 1.645-.42c.608 0 1.148.14 1.62.42.48.272.852.656 1.115 1.152.273.496.409 1.064.409 1.704zm-3.144-2.304c-.552 0-1.016.168-1.392.504-.368.336-.584.776-.648 1.32h4.08c-.064-.536-.284-.972-.66-1.308-.368-.344-.829-.516-1.38-.516zm10.827-.912v5.496c0 1.112-.276 1.932-.828 2.46-.552.536-1.376.804-2.472.804-.6 0-1.172-.084-1.716-.252-.544-.16-.984-.392-1.32-.696l.552-.888c.296.256.66.456 1.092.6.44.152.892.228 1.356.228.744 0 1.292-.176 1.644-.528.36-.352.54-.888.54-1.608v-.504a2.594 2.594 0 0 1-1.008.744c-.392.16-.82.24-1.284.24-.608 0-1.16-.128-1.656-.384a2.968 2.968 0 0 1-1.152-1.092 3.091 3.091 0 0 1-.42-1.608c0-.6.14-1.132.42-1.596.28-.472.664-.836 1.152-1.092a3.557 3.557 0 0 1 1.656-.384c.48 0 .924.088 1.332.264.416.176.756.436 1.02.78v-.984h1.092zm-3.312 5.088c.416 0 .788-.088 1.116-.264.336-.176.596-.42.78-.732.192-.32.288-.68.288-1.08 0-.616-.204-1.112-.612-1.488-.408-.384-.932-.576-1.572-.576-.648 0-1.176.192-1.584.576-.408.376-.612.872-.612 1.488 0 .4.092.76.276 1.08.192.312.452.556.78.732a2.42 2.42 0 0 0 1.14.264zm8.237 1.344c-.632 0-1.2-.14-1.704-.42-.504-.28-.9-.664-1.188-1.152a3.357 3.357 0 0 1-.42-1.68c0-.624.14-1.18.42-1.668.288-.496.684-.88 1.188-1.152a3.449 3.449 0 0 1 1.704-.42c.632 0 1.196.14 1.692.42.504.272.896.656 1.176 1.152.288.488.432 1.044.432 1.668 0 .624-.144 1.184-.432 1.68-.28.488-.672.872-1.176 1.152-.496.28-1.06.42-1.692.42zm0-1.008a2.15 2.15 0 0 0 1.092-.276 2.03 2.03 0 0 0 .768-.792c.184-.344.276-.736.276-1.176 0-.44-.092-.828-.276-1.164a1.93 1.93 0 0 0-.768-.792 2.15 2.15 0 0 0-1.092-.276c-.408 0-.776.092-1.104.276-.32.184-.576.448-.768.792a2.385 2.385 0 0 0-.276 1.164c0 .44.092.832.276 1.176.192.336.448.6.768.792.328.184.696.276 1.104.276zm5.998-4.356c.2-.368.496-.648.888-.84.392-.192.868-.288 1.427-.288v1.116a2.249 2.249 0 0 0-.264-.012c-.623 0-1.115.188-1.475.564-.353.368-.529.896-.529 1.584V88h-1.151v-6.36h1.104v1.068zM89.7 81.64h1.152V88H89.7v-6.36zm.576-1.224a.789.789 0 0 1-.564-.216.718.718 0 0 1-.216-.528c0-.208.072-.384.216-.528a.766.766 0 0 1 .564-.228c.224 0 .408.072.552.216a.662.662 0 0 1 .228.516c0 .216-.076.4-.228.552a.748.748 0 0 1-.552.216zm8.524 4.44c0 .088-.008.204-.024.348h-5.16c.072.56.316 1.012.732 1.356.424.336.948.504 1.572.504.76 0 1.372-.256 1.836-.768l.636.744a2.777 2.777 0 0 1-1.08.768c-.424.176-.9.264-1.428.264-.672 0-1.268-.136-1.788-.408a3.033 3.033 0 0 1-1.212-1.164 3.357 3.357 0 0 1-.42-1.68c0-.616.136-1.172.408-1.668.28-.496.66-.88 1.14-1.152a3.244 3.244 0 0 1 1.644-.42c.608 0 1.148.14 1.62.42.48.272.852.656 1.116 1.152.272.496.408 1.064.408 1.704zm-3.144-2.304c-.552 0-1.016.168-1.392.504-.368.336-.584.776-.648 1.32h4.08c-.064-.536-.284-.972-.66-1.308-.368-.344-.828-.516-1.38-.516zm6.568 5.52c-.52 0-1.02-.068-1.5-.204-.48-.144-.856-.324-1.128-.54l.48-.912c.28.2.62.36 1.02.48s.804.18 1.212.18c1.008 0 1.512-.288 1.512-.864a.56.56 0 0 0-.204-.456 1.235 1.235 0 0 0-.516-.24 9.055 9.055 0 0 0-.864-.18 8.75 8.75 0 0 1-1.26-.276 1.937 1.937 0 0 1-.828-.528c-.232-.248-.348-.596-.348-1.044 0-.576.24-1.036.72-1.38.48-.352 1.124-.528 1.932-.528.424 0 .848.052 1.272.156.424.104.772.244 1.044.42l-.492.912c-.52-.336-1.132-.504-1.836-.504-.488 0-.86.08-1.116.24-.256.16-.384.372-.384.636 0 .208.072.372.216.492.144.12.32.208.528.264.216.056.516.12.9.192.512.088.924.184 1.236.288.32.096.592.264.816.504.224.24.336.576.336 1.008 0 .576-.248 1.036-.744 1.38-.488.336-1.156.504-2.004.504z"/><rect width="237.5" height="31.5" x="147.25" y="68.25" fill="#F0F0F6" stroke="#62699F" stroke-width=".5" rx="4.75"/><rect width="54" height="16" x="157" y="76" fill="#D7D9E6" rx="2"/><path fill="#62699F" d="M168.54 88l-.01-5.1-2.53 4.25h-.46l-2.53-4.22V88h-.96v-7h.82l2.92 4.92 2.88-4.92h.82l.01 7h-.96zm7.861-5.3V88h-.91v-.8c-.194.273-.45.487-.77.64-.314.147-.657.22-1.03.22-.707 0-1.264-.193-1.67-.58-.407-.393-.61-.97-.61-1.73V82.7h.96v2.94c0 .513.123.903.37 1.17.246.26.6.39 1.06.39.506 0 .906-.153 1.2-.46.293-.307.44-.74.44-1.3V82.7h.96zm3.347 5.36c-.433 0-.85-.057-1.25-.17-.4-.12-.713-.27-.94-.45l.4-.76c.234.167.517.3.85.4.334.1.67.15 1.01.15.84 0 1.26-.24 1.26-.72a.464.464 0 0 0-.17-.38 1.024 1.024 0 0 0-.43-.2 7.436 7.436 0 0 0-.72-.15 7.333 7.333 0 0 1-1.05-.23 1.622 1.622 0 0 1-.69-.44c-.193-.207-.29-.497-.29-.87 0-.48.2-.863.6-1.15.4-.293.937-.44 1.61-.44.354 0 .707.043 1.06.13.354.087.644.203.87.35l-.41.76c-.433-.28-.943-.42-1.53-.42-.406 0-.716.067-.93.2-.213.133-.32.31-.32.53 0 .173.06.31.18.41.12.1.267.173.44.22.18.047.43.1.75.16.427.073.77.153 1.03.24.267.08.494.22.68.42.187.2.28.48.28.84 0 .48-.206.863-.62 1.15-.406.28-.963.42-1.67.42zm3.49-5.36h.96V88h-.96v-5.3zm.48-1.02a.657.657 0 0 1-.47-.18.599.599 0 0 1-.18-.44c0-.173.06-.32.18-.44a.638.638 0 0 1 .47-.19c.187 0 .34.06.46.18a.55.55 0 0 1 .19.43c0 .18-.063.333-.19.46a.622.622 0 0 1-.46.18zm4.623 6.38c-.54 0-1.023-.117-1.45-.35a2.585 2.585 0 0 1-.99-.96c-.24-.413-.36-.88-.36-1.4 0-.52.12-.983.36-1.39.24-.413.57-.733.99-.96.427-.233.91-.35 1.45-.35.48 0 .907.097 1.28.29.38.193.673.473.88.84l-.73.47a1.631 1.631 0 0 0-.62-.57 1.769 1.769 0 0 0-.82-.19c-.347 0-.66.077-.94.23-.273.153-.49.373-.65.66a1.99 1.99 0 0 0-.23.97c0 .373.077.703.23.99.16.28.377.497.65.65.28.153.593.23.94.23.3 0 .573-.063.82-.19s.453-.317.62-.57l.73.46c-.207.367-.5.65-.88.85-.373.193-.8.29-1.28.29z"/><path stroke="#62699F" stroke-width=".75" d="M201.26 81.17l5.28 5.28m.43-5.18l-5.27 5.27"/><rect width="68" height="16" x="215" y="76" fill="#D7D9E6" rx="2"/><path fill="#62699F" d="M226.07 81v7h-1v-3.12h-4.02V88h-1v-7h1v3.01h4.02V81h1zm4.225 7.06c-.526 0-1-.117-1.42-.35a2.585 2.585 0 0 1-.99-.96 2.801 2.801 0 0 1-.35-1.4c0-.52.117-.983.35-1.39.24-.413.57-.733.99-.96a2.88 2.88 0 0 1 1.42-.35c.527 0 .997.117 1.41.35.42.227.747.547.98.96.24.407.36.87.36 1.39 0 .52-.12.987-.36 1.4a2.51 2.51 0 0 1-.98.96 2.82 2.82 0 0 1-1.41.35zm0-.84c.34 0 .644-.077.91-.23.274-.16.487-.38.64-.66.154-.287.23-.613.23-.98s-.076-.69-.23-.97a1.601 1.601 0 0 0-.64-.66 1.791 1.791 0 0 0-.91-.23c-.34 0-.646.077-.92.23-.266.153-.48.373-.64.66a1.99 1.99 0 0 0-.23.97c0 .367.077.693.23.98.16.28.374.5.64.66.274.153.58.23.92.23zm6.348.84c-.527 0-1-.117-1.42-.35a2.585 2.585 0 0 1-.99-.96 2.801 2.801 0 0 1-.35-1.4c0-.52.117-.983.35-1.39.24-.413.57-.733.99-.96.42-.233.893-.35 1.42-.35.527 0 .997.117 1.41.35.42.227.747.547.98.96.24.407.36.87.36 1.39 0 .52-.12.987-.36 1.4a2.51 2.51 0 0 1-.98.96 2.82 2.82 0 0 1-1.41.35zm0-.84c.34 0 .643-.077.91-.23.273-.16.487-.38.64-.66a2.05 2.05 0 0 0 .23-.98c0-.367-.077-.69-.23-.97a1.607 1.607 0 0 0-.64-.66 1.794 1.794 0 0 0-.91-.23c-.34 0-.647.077-.92.23-.267.153-.48.373-.64.66a1.99 1.99 0 0 0-.23.97c0 .367.077.693.23.98.16.28.373.5.64.66.273.153.58.23.92.23zm9.078-6.64V88h-.92v-.84a2.088 2.088 0 0 1-.81.67c-.327.153-.687.23-1.08.23-.514 0-.974-.113-1.38-.34a2.476 2.476 0 0 1-.96-.95c-.227-.413-.34-.887-.34-1.42 0-.533.113-1.003.34-1.41.233-.407.553-.723.96-.95.406-.227.866-.34 1.38-.34.38 0 .73.073 1.05.22.32.14.586.35.8.63v-2.92h.96zm-2.73 6.64c.333 0 .636-.077.91-.23a1.7 1.7 0 0 0 .64-.66 2.05 2.05 0 0 0 .23-.98c0-.367-.077-.69-.23-.97a1.613 1.613 0 0 0-.64-.66 1.83 1.83 0 0 0-.91-.23c-.34 0-.647.077-.92.23-.267.153-.48.373-.64.66a1.98 1.98 0 0 0-.23.97c0 .367.076.693.23.98.16.28.373.5.64.66.273.153.58.23.92.23zm4.546-4.52h.96V88h-.96v-5.3zm.48-1.02a.657.657 0 0 1-.47-.18.599.599 0 0 1-.18-.44c0-.173.06-.32.18-.44a.638.638 0 0 1 .47-.19c.187 0 .34.06.46.18a.55.55 0 0 1 .19.43c0 .18-.063.333-.19.46a.622.622 0 0 1-.46.18zm7.103 3.7c0 .073-.007.17-.02.29h-4.3c.06.467.263.843.61 1.13.353.28.79.42 1.31.42.633 0 1.143-.213 1.53-.64l.53.62c-.24.28-.54.493-.9.64a3.07 3.07 0 0 1-1.19.22c-.56 0-1.057-.113-1.49-.34a2.53 2.53 0 0 1-1.01-.97 2.801 2.801 0 0 1-.35-1.4c0-.513.113-.977.34-1.39a2.48 2.48 0 0 1 .95-.96c.407-.233.863-.35 1.37-.35.507 0 .957.117 1.35.35.4.227.71.547.93.96.227.413.34.887.34 1.42zm-2.62-1.92c-.46 0-.847.14-1.16.42-.307.28-.487.647-.54 1.1h3.4a1.674 1.674 0 0 0-.55-1.09c-.307-.287-.69-.43-1.15-.43zm5.473 4.6c-.433 0-.85-.057-1.25-.17-.4-.12-.713-.27-.94-.45l.4-.76c.233.167.517.3.85.4.333.1.67.15 1.01.15.84 0 1.26-.24 1.26-.72a.467.467 0 0 0-.17-.38 1.03 1.03 0 0 0-.43-.2 7.57 7.57 0 0 0-.72-.15 7.271 7.271 0 0 1-1.05-.23 1.61 1.61 0 0 1-.69-.44c-.193-.207-.29-.497-.29-.87 0-.48.2-.863.6-1.15.4-.293.937-.44 1.61-.44.353 0 .707.043 1.06.13.353.087.643.203.87.35l-.41.76c-.433-.28-.943-.42-1.53-.42-.407 0-.717.067-.93.2-.213.133-.32.31-.32.53 0 .173.06.31.18.41.12.1.267.173.44.22.18.047.43.1.75.16.427.073.77.153 1.03.24.267.08.493.22.68.42.187.2.28.48.28.84 0 .48-.207.863-.62 1.15-.407.28-.963.42-1.67.42z"/><path stroke="#62699F" stroke-width=".75" d="M273.26 81.17l5.28 5.28m.44-5.18l-5.28 5.27"/><rect width="88" height="16" x="287" y="76" fill="#D7D9E6" rx="2"/><path fill="#62699F" d="M296.51 86.25h-3.72l-.77 1.75h-1.03l3.17-7h.99l3.18 7h-1.05l-.77-1.75zm-.35-.8l-1.51-3.43-1.51 3.43h3.02zm5.335 2.61c-.54 0-1.023-.117-1.45-.35a2.585 2.585 0 0 1-.99-.96c-.24-.413-.36-.88-.36-1.4 0-.52.12-.983.36-1.39.24-.413.57-.733.99-.96.427-.233.91-.35 1.45-.35.48 0 .907.097 1.28.29.38.193.674.473.88.84l-.73.47a1.624 1.624 0 0 0-.62-.57 1.766 1.766 0 0 0-.82-.19c-.346 0-.66.077-.94.23-.273.153-.49.373-.65.66a1.99 1.99 0 0 0-.23.97c0 .373.077.703.23.99.16.28.377.497.65.65.28.153.594.23.94.23.3 0 .574-.063.82-.19.247-.127.454-.317.62-.57l.73.46c-.206.367-.5.65-.88.85-.373.193-.8.29-1.28.29zm5.635 0c-.54 0-1.023-.117-1.45-.35a2.585 2.585 0 0 1-.99-.96c-.24-.413-.36-.88-.36-1.4 0-.52.12-.983.36-1.39.24-.413.57-.733.99-.96.427-.233.91-.35 1.45-.35.48 0 .907.097 1.28.29.38.193.673.473.88.84l-.73.47a1.631 1.631 0 0 0-.62-.57 1.769 1.769 0 0 0-.82-.19c-.347 0-.66.077-.94.23-.273.153-.49.373-.65.66a1.99 1.99 0 0 0-.23.97c0 .373.077.703.23.99.16.28.377.497.65.65.28.153.593.23.94.23.3 0 .573-.063.82-.19s.453-.317.62-.57l.73.46c-.207.367-.5.65-.88.85-.373.193-.8.29-1.28.29zm8.115-2.68c0 .073-.007.17-.02.29h-4.3c.06.467.263.843.61 1.13.353.28.79.42 1.31.42.633 0 1.143-.213 1.53-.64l.53.62c-.24.28-.54.493-.9.64a3.07 3.07 0 0 1-1.19.22c-.56 0-1.057-.113-1.49-.34a2.53 2.53 0 0 1-1.01-.97 2.801 2.801 0 0 1-.35-1.4c0-.513.113-.977.34-1.39a2.48 2.48 0 0 1 .95-.96c.407-.233.863-.35 1.37-.35.507 0 .957.117 1.35.35.4.227.71.547.93.96.227.413.34.887.34 1.42zm-2.62-1.92c-.46 0-.847.14-1.16.42-.307.28-.487.647-.54 1.1h3.4a1.674 1.674 0 0 0-.55-1.09c-.307-.287-.69-.43-1.15-.43zm5.473 4.6c-.433 0-.85-.057-1.25-.17-.4-.12-.713-.27-.94-.45l.4-.76c.233.167.517.3.85.4.333.1.67.15 1.01.15.84 0 1.26-.24 1.26-.72a.467.467 0 0 0-.17-.38 1.03 1.03 0 0 0-.43-.2 7.57 7.57 0 0 0-.72-.15 7.271 7.271 0 0 1-1.05-.23 1.61 1.61 0 0 1-.69-.44c-.193-.207-.29-.497-.29-.87 0-.48.2-.863.6-1.15.4-.293.937-.44 1.61-.44.353 0 .707.043 1.06.13.353.087.643.203.87.35l-.41.76c-.433-.28-.943-.42-1.53-.42-.407 0-.717.067-.93.2-.213.133-.32.31-.32.53 0 .173.06.31.18.41.12.1.267.173.44.22.18.047.43.1.75.16.427.073.77.153 1.03.24.267.08.493.22.68.42.187.2.28.48.28.84 0 .48-.207.863-.62 1.15-.407.28-.963.42-1.67.42zm5.01 0c-.434 0-.85-.057-1.25-.17-.4-.12-.714-.27-.94-.45l.4-.76c.233.167.516.3.85.4.333.1.67.15 1.01.15.84 0 1.26-.24 1.26-.72a.467.467 0 0 0-.17-.38 1.035 1.035 0 0 0-.43-.2 7.57 7.57 0 0 0-.72-.15 7.271 7.271 0 0 1-1.05-.23 1.61 1.61 0 0 1-.69-.44c-.194-.207-.29-.497-.29-.87 0-.48.2-.863.6-1.15.4-.293.936-.44 1.61-.44.353 0 .706.043 1.06.13.353.087.643.203.87.35l-.41.76c-.434-.28-.944-.42-1.53-.42-.407 0-.717.067-.93.2-.214.133-.32.31-.32.53 0 .173.06.31.18.41.12.1.266.173.44.22.18.047.43.1.75.16.426.073.77.153 1.03.24.266.08.493.22.68.42.186.2.28.48.28.84 0 .48-.207.863-.62 1.15-.407.28-.964.42-1.67.42zm5.76 0c-.527 0-1-.117-1.42-.35a2.585 2.585 0 0 1-.99-.96 2.79 2.79 0 0 1-.35-1.4c0-.52.116-.983.35-1.39.24-.413.57-.733.99-.96.42-.233.893-.35 1.42-.35.526 0 .996.117 1.41.35.42.227.746.547.98.96.24.407.36.87.36 1.39 0 .52-.12.987-.36 1.4-.234.407-.56.727-.98.96-.414.233-.884.35-1.41.35zm0-.84c.34 0 .643-.077.91-.23a1.7 1.7 0 0 0 .64-.66 2.05 2.05 0 0 0 .23-.98c0-.367-.077-.69-.23-.97a1.613 1.613 0 0 0-.64-.66 1.794 1.794 0 0 0-.91-.23c-.34 0-.647.077-.92.23-.267.153-.48.373-.64.66a1.98 1.98 0 0 0-.23.97c0 .367.076.693.23.98.16.28.373.5.64.66.273.153.58.23.92.23zm4.997-3.63c.167-.307.413-.54.74-.7.327-.16.723-.24 1.19-.24v.93a1.867 1.867 0 0 0-.22-.01c-.52 0-.93.157-1.23.47-.293.307-.44.747-.44 1.32V88h-.96v-5.3h.92v.89zm3.113-.89h.96V88h-.96v-5.3zm.48-1.02a.659.659 0 0 1-.47-.18.599.599 0 0 1-.18-.44c0-.173.06-.32.18-.44a.64.64 0 0 1 .47-.19c.187 0 .34.06.46.18a.55.55 0 0 1 .19.43c0 .18-.063.333-.19.46a.622.622 0 0 1-.46.18zm7.103 3.7c0 .073-.006.17-.02.29h-4.3c.06.467.264.843.61 1.13.354.28.79.42 1.31.42.634 0 1.144-.213 1.53-.64l.53.62c-.24.28-.54.493-.9.64a3.07 3.07 0 0 1-1.19.22c-.56 0-1.056-.113-1.49-.34a2.53 2.53 0 0 1-1.01-.97 2.801 2.801 0 0 1-.35-1.4c0-.513.114-.977.34-1.39a2.49 2.49 0 0 1 .95-.96c.407-.233.864-.35 1.37-.35.507 0 .957.117 1.35.35.4.227.71.547.93.96.227.413.34.887.34 1.42zm-2.62-1.92c-.46 0-.846.14-1.16.42-.306.28-.486.647-.54 1.1h3.4a1.67 1.67 0 0 0-.55-1.09c-.306-.287-.69-.43-1.15-.43zm5.473 4.6c-.433 0-.85-.057-1.25-.17-.4-.12-.713-.27-.94-.45l.4-.76c.234.167.517.3.85.4.334.1.67.15 1.01.15.84 0 1.26-.24 1.26-.72a.464.464 0 0 0-.17-.38 1.024 1.024 0 0 0-.43-.2 7.436 7.436 0 0 0-.72-.15 7.333 7.333 0 0 1-1.05-.23 1.622 1.622 0 0 1-.69-.44c-.193-.207-.29-.497-.29-.87 0-.48.2-.863.6-1.15.4-.293.937-.44 1.61-.44.354 0 .707.043 1.06.13.354.087.644.203.87.35l-.41.76c-.433-.28-.943-.42-1.53-.42-.406 0-.716.067-.93.2-.213.133-.32.31-.32.53 0 .173.06.31.18.41.12.1.267.173.44.22.18.047.43.1.75.16.427.073.77.153 1.03.24.267.08.494.22.68.42.187.2.28.48.28.84 0 .48-.206.863-.62 1.15-.406.28-.963.42-1.67.42z"/><path stroke="#62699F" stroke-width=".75" d="M365.26 81.17l5.28 5.28m.44-5.18l-5.28 5.27"/><path fill="#EDEDF4" d="M395 74h88v69a5 5 0 0 1-5 5h-78a5 5 0 0 1-5-5V74z"/><path fill="#CFD1E1" d="M395 124h88v19a5 5 0 0 1-5 5h-78a5 5 0 0 1-5-5v-19z"/><path fill="#62699F" d="M418.356 114.956V116h-6.096v-8.4h5.928v1.044h-4.728v2.58h4.212v1.02h-4.212v2.712h4.896zm5.69 1.044l-1.836-2.436-1.86 2.436h-1.284l2.508-3.252-2.388-3.108h1.284l1.752 2.292 1.74-2.292h1.26l-2.4 3.108 2.532 3.252h-1.308zm5.127.072c-.648 0-1.228-.14-1.74-.42-.504-.28-.9-.664-1.188-1.152a3.284 3.284 0 0 1-.432-1.68c0-.624.144-1.18.432-1.668.288-.496.684-.88 1.188-1.152.512-.28 1.092-.42 1.74-.42.576 0 1.088.116 1.536.348a2.47 2.47 0 0 1 1.056 1.008l-.876.564a1.957 1.957 0 0 0-.744-.684 2.122 2.122 0 0 0-.984-.228 2.31 2.31 0 0 0-1.128.276 2.008 2.008 0 0 0-.78.792 2.385 2.385 0 0 0-.276 1.164c0 .448.092.844.276 1.188.192.336.452.596.78.78a2.31 2.31 0 0 0 1.128.276c.36 0 .688-.076.984-.228.296-.152.544-.38.744-.684l.876.552c-.248.44-.6.78-1.056 1.02-.448.232-.96.348-1.536.348zm4.001-8.976h1.152V116h-1.152v-8.904zm9.28 2.544V116h-1.092v-.96c-.232.328-.54.584-.924.768a2.879 2.879 0 0 1-1.236.264c-.848 0-1.516-.232-2.004-.696-.488-.472-.732-1.164-.732-2.076v-3.66h1.152v3.528c0 .616.148 1.084.444 1.404.296.312.72.468 1.272.468.608 0 1.088-.184 1.44-.552.352-.368.528-.888.528-1.56v-3.288h1.152zm8.193-2.544V116h-1.104v-1.008c-.256.352-.58.62-.972.804a3.012 3.012 0 0 1-1.296.276 3.343 3.343 0 0 1-1.656-.408 2.976 2.976 0 0 1-1.152-1.14c-.272-.496-.408-1.064-.408-1.704 0-.64.136-1.204.408-1.692.28-.488.664-.868 1.152-1.14a3.343 3.343 0 0 1 1.656-.408c.456 0 .876.088 1.26.264.384.168.704.42.96.756v-3.504h1.152zm-3.276 7.968c.4 0 .764-.092 1.092-.276a2.03 2.03 0 0 0 .768-.792c.184-.344.276-.736.276-1.176 0-.44-.092-.828-.276-1.164a1.93 1.93 0 0 0-.768-.792 2.193 2.193 0 0 0-1.092-.276c-.408 0-.776.092-1.104.276-.32.184-.576.448-.768.792a2.385 2.385 0 0 0-.276 1.164c0 .44.092.832.276 1.176.192.336.448.6.768.792.328.184.696.276 1.104.276zm11.203-2.208c0 .088-.008.204-.024.348h-5.16c.072.56.316 1.012.732 1.356.424.336.948.504 1.572.504.76 0 1.372-.256 1.836-.768l.636.744a2.777 2.777 0 0 1-1.08.768c-.424.176-.9.264-1.428.264-.672 0-1.268-.136-1.788-.408a3.033 3.033 0 0 1-1.212-1.164 3.357 3.357 0 0 1-.42-1.68c0-.616.136-1.172.408-1.668.28-.496.66-.88 1.14-1.152a3.244 3.244 0 0 1 1.644-.42c.608 0 1.148.14 1.62.42.48.272.852.656 1.116 1.152.272.496.408 1.064.408 1.704zm-3.144-2.304c-.552 0-1.016.168-1.392.504-.368.336-.584.776-.648 1.32h4.08c-.064-.536-.284-.972-.66-1.308-.368-.344-.828-.516-1.38-.516zM412.26 131.6h1.2v8.4h-1.2v-8.4zm6.943 1.98c.808 0 1.448.236 1.92.708.48.464.72 1.148.72 2.052V140h-1.152v-3.528c0-.616-.148-1.08-.444-1.392-.296-.312-.72-.468-1.272-.468-.624 0-1.116.184-1.476.552-.36.36-.54.88-.54 1.56V140h-1.152v-6.36h1.104v.96c.232-.328.544-.58.936-.756.4-.176.852-.264 1.356-.264zm7.579 6.492c-.648 0-1.228-.14-1.74-.42-.504-.28-.9-.664-1.188-1.152a3.284 3.284 0 0 1-.432-1.68c0-.624.144-1.18.432-1.668.288-.496.684-.88 1.188-1.152.512-.28 1.092-.42 1.74-.42.576 0 1.088.116 1.536.348a2.47 2.47 0 0 1 1.056 1.008l-.876.564a1.957 1.957 0 0 0-.744-.684 2.122 2.122 0 0 0-.984-.228 2.31 2.31 0 0 0-1.128.276 2.008 2.008 0 0 0-.78.792 2.385 2.385 0 0 0-.276 1.164c0 .448.092.844.276 1.188.192.336.452.596.78.78a2.31 2.31 0 0 0 1.128.276c.36 0 .688-.076.984-.228.296-.152.544-.38.744-.684l.876.552c-.248.44-.6.78-1.056 1.02-.448.232-.96.348-1.536.348zm4.001-8.976h1.152V140h-1.152v-8.904zm9.28 2.544V140h-1.092v-.96c-.232.328-.54.584-.924.768a2.879 2.879 0 0 1-1.236.264c-.848 0-1.516-.232-2.004-.696-.488-.472-.732-1.164-.732-2.076v-3.66h1.152v3.528c0 .616.148 1.084.444 1.404.296.312.72.468 1.272.468.608 0 1.088-.184 1.44-.552.352-.368.528-.888.528-1.56v-3.288h1.152zm8.193-2.544V140h-1.104v-1.008c-.256.352-.58.62-.972.804a3.012 3.012 0 0 1-1.296.276 3.343 3.343 0 0 1-1.656-.408 2.976 2.976 0 0 1-1.152-1.14c-.272-.496-.408-1.064-.408-1.704 0-.64.136-1.204.408-1.692.28-.488.664-.868 1.152-1.14a3.343 3.343 0 0 1 1.656-.408c.456 0 .876.088 1.26.264.384.168.704.42.96.756v-3.504h1.152zm-3.276 7.968c.4 0 .764-.092 1.092-.276a2.03 2.03 0 0 0 .768-.792c.184-.344.276-.736.276-1.176 0-.44-.092-.828-.276-1.164a1.93 1.93 0 0 0-.768-.792 2.193 2.193 0 0 0-1.092-.276c-.408 0-.776.092-1.104.276-.32.184-.576.448-.768.792a2.385 2.385 0 0 0-.276 1.164c0 .44.092.832.276 1.176.192.336.448.6.768.792.328.184.696.276 1.104.276zm11.204-2.208c0 .088-.008.204-.024.348H451c.072.56.316 1.012.732 1.356.424.336.948.504 1.572.504.76 0 1.372-.256 1.836-.768l.636.744a2.777 2.777 0 0 1-1.08.768c-.424.176-.9.264-1.428.264-.672 0-1.268-.136-1.788-.408a3.033 3.033 0 0 1-1.212-1.164 3.357 3.357 0 0 1-.42-1.68c0-.616.136-1.172.408-1.668.28-.496.66-.88 1.14-1.152a3.244 3.244 0 0 1 1.644-.42c.608 0 1.148.14 1.62.42.48.272.852.656 1.116 1.152.272.496.408 1.064.408 1.704zm-3.144-2.304c-.552 0-1.016.168-1.392.504-.368.336-.584.776-.648 1.32h4.08c-.064-.536-.284-.972-.66-1.308-.368-.344-.828-.516-1.38-.516z"/><rect width="87.5" height="31.5" x="395.25" y="68.25" fill="#F0F0F6" stroke="#62699F" stroke-width=".5" rx="4.75"/><path fill="#62699F" d="M465 89l-3-4h6l-3 4zm0-10l3 4h-6l3-4zm-53.74.6h1.2V88h-1.2v-8.4zm6.943 1.98c.808 0 1.448.236 1.92.708.48.464.72 1.148.72 2.052V88h-1.152v-3.528c0-.616-.148-1.08-.444-1.392-.296-.312-.72-.468-1.272-.468-.624 0-1.116.184-1.476.552-.36.36-.54.88-.54 1.56V88h-1.152v-6.36h1.104v.96c.232-.328.544-.58.936-.756.4-.176.852-.264 1.356-.264zm7.579 6.492c-.648 0-1.228-.14-1.74-.42-.504-.28-.9-.664-1.188-1.152a3.284 3.284 0 0 1-.432-1.68c0-.624.144-1.18.432-1.668.288-.496.684-.88 1.188-1.152.512-.28 1.092-.42 1.74-.42.576 0 1.088.116 1.536.348a2.47 2.47 0 0 1 1.056 1.008l-.876.564a1.957 1.957 0 0 0-.744-.684 2.122 2.122 0 0 0-.984-.228 2.31 2.31 0 0 0-1.128.276 2.008 2.008 0 0 0-.78.792 2.385 2.385 0 0 0-.276 1.164c0 .448.092.844.276 1.188.192.336.452.596.78.78a2.31 2.31 0 0 0 1.128.276c.36 0 .688-.076.984-.228.296-.152.544-.38.744-.684l.876.552c-.248.44-.6.78-1.056 1.02-.448.232-.96.348-1.536.348zm4.001-8.976h1.152V88h-1.152v-8.904zm9.28 2.544V88h-1.092v-.96c-.232.328-.54.584-.924.768a2.879 2.879 0 0 1-1.236.264c-.848 0-1.516-.232-2.004-.696-.488-.472-.732-1.164-.732-2.076v-3.66h1.152v3.528c0 .616.148 1.084.444 1.404.296.312.72.468 1.272.468.608 0 1.088-.184 1.44-.552.352-.368.528-.888.528-1.56V81.64h1.152zm8.193-2.544V88h-1.104v-1.008c-.256.352-.58.62-.972.804a3.012 3.012 0 0 1-1.296.276 3.343 3.343 0 0 1-1.656-.408 2.976 2.976 0 0 1-1.152-1.14c-.272-.496-.408-1.064-.408-1.704 0-.64.136-1.204.408-1.692.28-.488.664-.868 1.152-1.14a3.343 3.343 0 0 1 1.656-.408c.456 0 .876.088 1.26.264.384.168.704.42.96.756v-3.504h1.152zm-3.276 7.968c.4 0 .764-.092 1.092-.276a2.03 2.03 0 0 0 .768-.792c.184-.344.276-.736.276-1.176 0-.44-.092-.828-.276-1.164a1.93 1.93 0 0 0-.768-.792 2.193 2.193 0 0 0-1.092-.276c-.408 0-.776.092-1.104.276-.32.184-.576.448-.768.792a2.385 2.385 0 0 0-.276 1.164c0 .44.092.832.276 1.176.192.336.448.6.768.792.328.184.696.276 1.104.276zm11.204-2.208c0 .088-.008.204-.024.348H450c.072.56.316 1.012.732 1.356.424.336.948.504 1.572.504.76 0 1.372-.256 1.836-.768l.636.744a2.777 2.777 0 0 1-1.08.768c-.424.176-.9.264-1.428.264-.672 0-1.268-.136-1.788-.408a3.033 3.033 0 0 1-1.212-1.164 3.357 3.357 0 0 1-.42-1.68c0-.616.136-1.172.408-1.668.28-.496.66-.88 1.14-1.152a3.244 3.244 0 0 1 1.644-.42c.608 0 1.148.14 1.62.42.48.272.852.656 1.116 1.152.272.496.408 1.064.408 1.704zm-3.144-2.304c-.552 0-1.016.168-1.392.504-.368.336-.584.776-.648 1.32h4.08c-.064-.536-.284-.972-.66-1.308-.368-.344-.828-.516-1.38-.516z"/><path fill="#E8E9F1" d="M2 10C2 4.477 6.477 0 12 0h503c5.523 0 10 4.477 10 10v28H2V10z"/><path fill="#C3C5DA" d="M43.746 21.05a11 11 0 0 1 10.445-7.55h66.915a11 11 0 0 1 10.445 7.55L137.149 38h-99l5.597-16.95z"/><path fill="#fff" d="M52.694 22.644v2.928h4.212v1.032h-4.212V30h-1.2v-8.4h5.928v1.044h-4.728zm11.798 4.212c0 .088-.008.204-.024.348h-5.16c.072.56.316 1.012.732 1.356.424.336.948.504 1.572.504.76 0 1.372-.256 1.836-.768l.636.744a2.777 2.777 0 0 1-1.08.768c-.424.176-.9.264-1.428.264-.672 0-1.268-.136-1.788-.408a3.033 3.033 0 0 1-1.212-1.164 3.357 3.357 0 0 1-.42-1.68c0-.616.136-1.172.408-1.668.28-.496.66-.88 1.14-1.152a3.244 3.244 0 0 1 1.644-.42c.608 0 1.148.14 1.62.42.48.272.852.656 1.116 1.152.272.496.408 1.064.408 1.704zm-3.144-2.304c-.552 0-1.016.168-1.392.504-.368.336-.584.776-.648 1.32h4.08c-.064-.536-.284-.972-.66-1.308-.368-.344-.828-.516-1.38-.516zm10.492 2.304c0 .088-.008.204-.024.348h-5.16c.072.56.316 1.012.732 1.356.424.336.948.504 1.572.504.76 0 1.372-.256 1.836-.768l.636.744a2.777 2.777 0 0 1-1.08.768c-.424.176-.9.264-1.428.264-.672 0-1.268-.136-1.788-.408a3.033 3.033 0 0 1-1.212-1.164 3.357 3.357 0 0 1-.42-1.68c0-.616.136-1.172.408-1.668.28-.496.66-.88 1.14-1.152a3.244 3.244 0 0 1 1.644-.42c.608 0 1.148.14 1.62.42.48.272.852.656 1.116 1.152.272.496.408 1.064.408 1.704zm-3.144-2.304c-.552 0-1.016.168-1.392.504-.368.336-.584.776-.648 1.32h4.08c-.064-.536-.284-.972-.66-1.308-.368-.344-.828-.516-1.38-.516zm10.744-3.456V30h-1.104v-1.008c-.256.352-.58.62-.972.804a3.012 3.012 0 0 1-1.296.276 3.343 3.343 0 0 1-1.656-.408 2.976 2.976 0 0 1-1.152-1.14c-.272-.496-.408-1.064-.408-1.704 0-.64.136-1.204.408-1.692.28-.488.664-.868 1.152-1.14a3.343 3.343 0 0 1 1.656-.408c.456 0 .876.088 1.26.264.384.168.704.42.96.756v-3.504h1.152zm-3.276 7.968c.4 0 .764-.092 1.092-.276a2.03 2.03 0 0 0 .768-.792c.184-.344.276-.736.276-1.176 0-.44-.092-.828-.276-1.164a1.93 1.93 0 0 0-.768-.792 2.193 2.193 0 0 0-1.092-.276c-.408 0-.776.092-1.104.276-.32.184-.576.448-.768.792a2.385 2.385 0 0 0-.276 1.164c0 .44.092.832.276 1.176.192.336.448.6.768.792.328.184.696.276 1.104.276zm12.602 1.032c-.84 0-1.6-.184-2.28-.552a4.175 4.175 0 0 1-1.584-1.536c-.384-.656-.576-1.392-.576-2.208 0-.816.192-1.548.576-2.196a4.04 4.04 0 0 1 1.596-1.536c.68-.376 1.44-.564 2.28-.564.656 0 1.256.112 1.8.336.544.216 1.008.54 1.392.972l-.78.756c-.632-.664-1.42-.996-2.364-.996-.624 0-1.188.14-1.692.42-.504.28-.9.668-1.188 1.164a3.244 3.244 0 0 0-.42 1.644c0 .608.14 1.16.42 1.656.288.488.684.872 1.188 1.152.504.28 1.068.42 1.692.42.936 0 1.724-.336 2.364-1.008l.78.756c-.384.432-.852.76-1.404.984a4.684 4.684 0 0 1-1.8.336zm7.202-.024c-.632 0-1.2-.14-1.704-.42-.504-.28-.9-.664-1.188-1.152a3.357 3.357 0 0 1-.42-1.68c0-.624.14-1.18.42-1.668.288-.496.684-.88 1.188-1.152a3.449 3.449 0 0 1 1.704-.42c.632 0 1.196.14 1.692.42.504.272.896.656 1.176 1.152.288.488.432 1.044.432 1.668 0 .624-.144 1.184-.432 1.68-.28.488-.672.872-1.176 1.152-.496.28-1.06.42-1.692.42zm0-1.008a2.15 2.15 0 0 0 1.092-.276 2.03 2.03 0 0 0 .768-.792c.184-.344.276-.736.276-1.176 0-.44-.092-.828-.276-1.164a1.93 1.93 0 0 0-.768-.792 2.15 2.15 0 0 0-1.092-.276c-.408 0-.776.092-1.104.276-.32.184-.576.448-.768.792a2.385 2.385 0 0 0-.276 1.164c0 .44.092.832.276 1.176.192.336.448.6.768.792.328.184.696.276 1.104.276zm8.29-5.484c.808 0 1.448.236 1.92.708.48.464.72 1.148.72 2.052V30h-1.152v-3.528c0-.616-.148-1.08-.444-1.392-.296-.312-.72-.468-1.272-.468-.624 0-1.116.184-1.476.552-.36.36-.54.88-.54 1.56V30h-1.152v-6.36h1.104v.96c.232-.328.544-.58.936-.756.4-.176.852-.264 1.356-.264zm7.1-1.608c-.688 0-1.032.372-1.032 1.116v.552h1.848v.948h-1.824V30h-1.152v-5.412h-1.08v-.948h1.08v-.564c0-.632.184-1.132.552-1.5.368-.368.884-.552 1.548-.552.256 0 .496.032.72.096.224.064.416.156.576.276l-.348.876c-.264-.2-.56-.3-.888-.3zm2.868 1.668h1.152V30h-1.152v-6.36zm.576-1.224a.789.789 0 0 1-.564-.216.718.718 0 0 1-.216-.528c0-.208.072-.384.216-.528a.766.766 0 0 1 .564-.228c.224 0 .408.072.552.216a.662.662 0 0 1 .228.516c0 .216-.076.4-.228.552a.748.748 0 0 1-.552.216zm8.854 1.224v5.496c0 1.112-.276 1.932-.828 2.46-.552.536-1.376.804-2.472.804-.6 0-1.172-.084-1.716-.252-.544-.16-.984-.392-1.32-.696l.552-.888c.296.256.66.456 1.092.6.44.152.892.228 1.356.228.744 0 1.292-.176 1.644-.528.36-.352.54-.888.54-1.608v-.504a2.594 2.594 0 0 1-1.008.744c-.392.16-.82.24-1.284.24-.608 0-1.16-.128-1.656-.384a2.968 2.968 0 0 1-1.152-1.092 3.091 3.091 0 0 1-.42-1.608c0-.6.14-1.132.42-1.596.28-.472.664-.836 1.152-1.092a3.557 3.557 0 0 1 1.656-.384c.48 0 .924.088 1.332.264.416.176.756.436 1.02.78v-.984h1.092zm-3.312 5.088c.416 0 .788-.088 1.116-.264.336-.176.596-.42.78-.732.192-.32.288-.68.288-1.08 0-.616-.204-1.112-.612-1.488-.408-.384-.932-.576-1.572-.576-.648 0-1.176.192-1.584.576-.408.376-.612.872-.612 1.488 0 .4.092.76.276 1.08.192.312.452.556.78.732a2.42 2.42 0 0 0 1.14.264z"/><path fill="#8492BB" d="M142.746 21.05a11 11 0 0 1 10.445-7.55h63.915a11 11 0 0 1 10.445 7.55L233.149 38h-96l5.597-16.95z"/><path fill="#fff" d="M143.141 21.521A11.001 11.001 0 0 1 153.577 14h63.143c4.735 0 8.938 3.03 10.436 7.521L232.649 38h-95l5.492-16.479z"/><path fill="#8492BB" d="M171.917 23.144v2.928h4.212v1.032h-4.212V30.5h-1.2v-8.4h5.928v1.044h-4.728zm6.132.996h1.152v6.36h-1.152v-6.36zm.576-1.224a.789.789 0 0 1-.564-.216.718.718 0 0 1-.216-.528c0-.208.072-.384.216-.528a.766.766 0 0 1 .564-.228c.224 0 .408.072.552.216a.662.662 0 0 1 .228.516c0 .216-.076.4-.228.552a.748.748 0 0 1-.552.216zm2.776-1.32h1.152V30.5h-1.152v-8.904zm7.08 8.532a1.79 1.79 0 0 1-.624.336 2.74 2.74 0 0 1-.768.108c-.64 0-1.136-.172-1.488-.516-.352-.344-.528-.836-.528-1.476v-3.492h-1.08v-.948h1.08v-1.392h1.152v1.392h1.824v.948h-1.824v3.444c0 .344.084.608.252.792.176.184.424.276.744.276.352 0 .652-.1.9-.3l.36.828zm6.929-2.772c0 .088-.008.204-.024.348h-5.16c.072.56.316 1.012.732 1.356.424.336.948.504 1.572.504.76 0 1.372-.256 1.836-.768l.636.744a2.777 2.777 0 0 1-1.08.768c-.424.176-.9.264-1.428.264-.672 0-1.268-.136-1.788-.408A3.033 3.033 0 0 1 189.494 29a3.357 3.357 0 0 1-.42-1.68c0-.616.136-1.172.408-1.668.28-.496.66-.88 1.14-1.152a3.244 3.244 0 0 1 1.644-.42c.608 0 1.148.14 1.62.42.48.272.852.656 1.116 1.152.272.496.408 1.064.408 1.704zm-3.144-2.304c-.552 0-1.016.168-1.392.504-.368.336-.584.776-.648 1.32h4.08c-.064-.536-.284-.972-.66-1.308-.368-.344-.828-.516-1.38-.516zm5.848.156c.2-.368.496-.648.888-.84.392-.192.868-.288 1.428-.288v1.116a2.249 2.249 0 0 0-.264-.012c-.624 0-1.116.188-1.476.564-.352.368-.528.896-.528 1.584V30.5h-1.152v-6.36h1.104v1.068z"/><path fill="#C3C5DA" d="M238.597 21.05a11.002 11.002 0 0 1 10.446-7.55h87.914c4.746 0 8.957 3.044 10.446 7.55L353 38H233l5.597-16.95z"/><path fill="#fff" d="M251.622 27.9h-4.464l-.924 2.1h-1.236l3.804-8.4h1.188l3.816 8.4h-1.26l-.924-2.1zm-.42-.96l-1.812-4.116-1.812 4.116h3.624zm9.63-5.844V30h-1.104v-1.008c-.256.352-.58.62-.972.804a3.012 3.012 0 0 1-1.296.276 3.343 3.343 0 0 1-1.656-.408 2.976 2.976 0 0 1-1.152-1.14c-.272-.496-.408-1.064-.408-1.704 0-.64.136-1.204.408-1.692.28-.488.664-.868 1.152-1.14a3.343 3.343 0 0 1 1.656-.408c.456 0 .876.088 1.26.264.384.168.704.42.96.756v-3.504h1.152zm-3.276 7.968c.4 0 .764-.092 1.092-.276a2.03 2.03 0 0 0 .768-.792c.184-.344.276-.736.276-1.176 0-.44-.092-.828-.276-1.164a1.93 1.93 0 0 0-.768-.792 2.193 2.193 0 0 0-1.092-.276c-.408 0-.776.092-1.104.276-.32.184-.576.448-.768.792a2.385 2.385 0 0 0-.276 1.164c0 .44.092.832.276 1.176.192.336.448.6.768.792.328.184.696.276 1.104.276zm11.084-5.424L265.856 30h-1.176l-2.784-6.36h1.2l2.184 5.1 2.232-5.1h1.128zm3.192-.06c.88 0 1.552.216 2.016.648.472.432.708 1.076.708 1.932V30h-1.092v-.84a1.853 1.853 0 0 1-.828.684c-.352.152-.772.228-1.26.228-.712 0-1.284-.172-1.716-.516-.424-.344-.636-.796-.636-1.356s.204-1.008.612-1.344c.408-.344 1.056-.516 1.944-.516h1.824v-.228c0-.496-.144-.876-.432-1.14-.288-.264-.712-.396-1.272-.396-.376 0-.744.064-1.104.192a2.76 2.76 0 0 0-.912.492l-.48-.864c.328-.264.72-.464 1.176-.6.456-.144.94-.216 1.452-.216zm-.264 5.604c.44 0 .82-.096 1.14-.288.32-.2.552-.48.696-.84v-.888h-1.776c-.976 0-1.464.328-1.464.984 0 .32.124.572.372.756.248.184.592.276 1.032.276zm8.516-5.604c.808 0 1.448.236 1.92.708.48.464.72 1.148.72 2.052V30h-1.152v-3.528c0-.616-.148-1.08-.444-1.392-.296-.312-.72-.468-1.272-.468-.624 0-1.116.184-1.476.552-.36.36-.54.88-.54 1.56V30h-1.152v-6.36h1.104v.96c.232-.328.544-.58.936-.756.4-.176.852-.264 1.356-.264zm7.579 6.492c-.648 0-1.228-.14-1.74-.42-.504-.28-.9-.664-1.188-1.152a3.284 3.284 0 0 1-.432-1.68c0-.624.144-1.18.432-1.668.288-.496.684-.88 1.188-1.152.512-.28 1.092-.42 1.74-.42.576 0 1.088.116 1.536.348a2.47 2.47 0 0 1 1.056 1.008l-.876.564a1.957 1.957 0 0 0-.744-.684 2.122 2.122 0 0 0-.984-.228 2.31 2.31 0 0 0-1.128.276 2.008 2.008 0 0 0-.78.792 2.385 2.385 0 0 0-.276 1.164c0 .448.092.844.276 1.188.192.336.452.596.78.78a2.31 2.31 0 0 0 1.128.276c.36 0 .688-.076.984-.228.296-.152.544-.38.744-.684l.876.552c-.248.44-.6.78-1.056 1.02-.448.232-.96.348-1.536.348zm9.737-3.216c0 .088-.008.204-.024.348h-5.16c.072.56.316 1.012.732 1.356.424.336.948.504 1.572.504.76 0 1.372-.256 1.836-.768l.636.744a2.777 2.777 0 0 1-1.08.768c-.424.176-.9.264-1.428.264-.672 0-1.268-.136-1.788-.408a3.033 3.033 0 0 1-1.212-1.164 3.357 3.357 0 0 1-.42-1.68c0-.616.136-1.172.408-1.668.28-.496.66-.88 1.14-1.152a3.244 3.244 0 0 1 1.644-.42c.608 0 1.148.14 1.62.42.48.272.852.656 1.116 1.152.272.496.408 1.064.408 1.704zm-3.144-2.304c-.552 0-1.016.168-1.392.504-.368.336-.584.776-.648 1.32h4.08c-.064-.536-.284-.972-.66-1.308-.368-.344-.828-.516-1.38-.516zM305 21.096V30h-1.104v-1.008c-.256.352-.58.62-.972.804a3.012 3.012 0 0 1-1.296.276 3.343 3.343 0 0 1-1.656-.408 2.976 2.976 0 0 1-1.152-1.14c-.272-.496-.408-1.064-.408-1.704 0-.64.136-1.204.408-1.692.28-.488.664-.868 1.152-1.14a3.343 3.343 0 0 1 1.656-.408c.456 0 .876.088 1.26.264.384.168.704.42.96.756v-3.504H305zm-3.276 7.968c.4 0 .764-.092 1.092-.276a2.03 2.03 0 0 0 .768-.792c.184-.344.276-.736.276-1.176 0-.44-.092-.828-.276-1.164a1.93 1.93 0 0 0-.768-.792 2.193 2.193 0 0 0-1.092-.276c-.408 0-.776.092-1.104.276-.32.184-.576.448-.768.792a2.385 2.385 0 0 0-.276 1.164c0 .44.092.832.276 1.176.192.336.448.6.768.792.328.184.696.276 1.104.276zm10.046-6.42v2.928h4.212v1.032h-4.212V30h-1.2v-8.4h5.928v1.044h-4.728zm6.132.996h1.152V30h-1.152v-6.36zm.576-1.224a.789.789 0 0 1-.564-.216.718.718 0 0 1-.216-.528c0-.208.072-.384.216-.528a.766.766 0 0 1 .564-.228c.224 0 .408.072.552.216a.662.662 0 0 1 .228.516c0 .216-.076.4-.228.552a.748.748 0 0 1-.552.216zm2.776-1.32h1.152V30h-1.152v-8.904zm7.08 8.532a1.79 1.79 0 0 1-.624.336 2.74 2.74 0 0 1-.768.108c-.64 0-1.136-.172-1.488-.516-.352-.344-.528-.836-.528-1.476v-3.492h-1.08v-.948h1.08v-1.392h1.152v1.392h1.824v.948h-1.824v3.444c0 .344.084.608.252.792.176.184.424.276.744.276.352 0 .652-.1.9-.3l.36.828zm6.93-2.772c0 .088-.008.204-.024.348h-5.16c.072.56.316 1.012.732 1.356.424.336.948.504 1.572.504.76 0 1.372-.256 1.836-.768l.636.744a2.777 2.777 0 0 1-1.08.768c-.424.176-.9.264-1.428.264-.672 0-1.268-.136-1.788-.408a3.033 3.033 0 0 1-1.212-1.164 3.357 3.357 0 0 1-.42-1.68c0-.616.136-1.172.408-1.668.28-.496.66-.88 1.14-1.152a3.244 3.244 0 0 1 1.644-.42c.608 0 1.148.14 1.62.42.48.272.852.656 1.116 1.152.272.496.408 1.064.408 1.704zm-3.144-2.304c-.552 0-1.016.168-1.392.504-.368.336-.584.776-.648 1.32h4.08c-.064-.536-.284-.972-.66-1.308-.368-.344-.828-.516-1.38-.516zm5.847.156c.2-.368.496-.648.888-.84.392-.192.868-.288 1.428-.288v1.116a2.249 2.249 0 0 0-.264-.012c-.624 0-1.116.188-1.476.564-.352.368-.528.896-.528 1.584V30h-1.152v-6.36h1.104v1.068z"/><path fill="#C3C5DA" d="M358.597 21.05a11.002 11.002 0 0 1 10.446-7.55h51.914c4.746 0 8.957 3.044 10.446 7.55L437 38h-84l5.597-16.95z"/><path fill="#fff" d="M372.388 23.87v2.44h3.51v.86h-3.51V30h-1v-7h4.94v.87h-3.94zm6.786 0h-2.4V23h5.79v.87h-2.4V30h-.99v-6.13zm7.209-.87c.907 0 1.62.217 2.14.65.52.433.78 1.03.78 1.79s-.26 1.357-.78 1.79c-.52.433-1.233.65-2.14.65h-1.73V30h-1v-7h2.73zm-.03 4.01c.634 0 1.117-.133 1.45-.4.334-.273.5-.663.5-1.17 0-.507-.166-.893-.5-1.16-.333-.273-.816-.41-1.45-.41h-1.7v3.14h1.7zm6.018-5.43h.87l-3.3 9.42h-.87l3.3-9.42zm3.391 8.5c-.527 0-1.037-.08-1.53-.24-.487-.167-.87-.38-1.15-.64l.37-.78c.266.24.606.437 1.02.59.42.147.85.22 1.29.22.58 0 1.013-.097 1.3-.29.286-.2.43-.463.43-.79a.75.75 0 0 0-.24-.58 1.495 1.495 0 0 0-.58-.35c-.227-.08-.55-.17-.97-.27a10.278 10.278 0 0 1-1.28-.38 2.178 2.178 0 0 1-.83-.58c-.227-.267-.34-.623-.34-1.07 0-.373.096-.71.29-1.01.2-.3.5-.54.9-.72.4-.18.896-.27 1.49-.27.413 0 .82.053 1.22.16.4.107.743.26 1.03.46l-.33.8a3.51 3.51 0 0 0-.94-.42c-.334-.1-.66-.15-.98-.15-.567 0-.994.103-1.28.31-.28.207-.42.473-.42.8 0 .24.08.437.24.59.16.147.356.263.59.35.24.08.563.167.97.26.526.127.95.253 1.27.38.32.127.593.32.82.58.233.26.35.61.35 1.05 0 .367-.1.703-.3 1.01-.2.3-.504.54-.91.72-.407.173-.907.26-1.5.26zm5.171-6.21v2.44h3.51v.86h-3.51V30h-1v-7h4.94v.87h-3.94zm6.786 0h-2.4V23h5.79v.87h-2.4V30h-.99v-6.13zm7.209-.87c.907 0 1.62.217 2.14.65.52.433.78 1.03.78 1.79s-.26 1.357-.78 1.79c-.52.433-1.233.65-2.14.65h-1.73V30h-1v-7h2.73zm-.03 4.01c.634 0 1.117-.133 1.45-.4.334-.273.5-.663.5-1.17 0-.507-.166-.893-.5-1.16-.333-.273-.816-.41-1.45-.41h-1.7v3.14h1.7z"/></g></svg>