<svg xmlns="http://www.w3.org/2000/svg" width="486" height="358" fill="none" viewBox="0 0 486 358"><g opacity=".8"><path fill="#F5F6F9" d="M0 10C0 4.477 4.477 0 10 0h466c5.523 0 10 4.477 10 10v338c0 5.523-4.477 10-10 10H10c-5.523 0-10-4.477-10-10V10z"/><rect width="124" height="32" x="40" y="285" fill="#62699F" rx="5"/><path fill="#fff" d="M62.612 302.9h-4.464l-.924 2.1h-1.236l3.804-8.4h1.188l3.816 8.4h-1.26l-.924-2.1zm-.42-.96l-1.812-4.116-1.812 4.116h3.624zm9.63-5.844V305H70.72v-1.008c-.256.352-.58.62-.972.804a3.012 3.012 0 0 1-1.296.276 3.343 3.343 0 0 1-1.656-.408 2.976 2.976 0 0 1-1.153-1.14c-.271-.496-.407-1.064-.407-1.704 0-.64.136-1.204.407-1.692.28-.488.665-.868 1.153-1.14a3.343 3.343 0 0 1 1.656-.408c.456 0 .876.088 1.26.264.383.168.704.42.96.756v-3.504h1.151zm-3.276 7.968c.4 0 .764-.092 1.092-.276a2.03 2.03 0 0 0 .768-.792c.184-.344.276-.736.276-1.176 0-.44-.091-.828-.276-1.164a1.93 1.93 0 0 0-.768-.792 2.193 2.193 0 0 0-1.092-.276c-.408 0-.776.092-1.104.276-.32.184-.575.448-.767.792a2.385 2.385 0 0 0-.276 1.164c0 .44.091.832.275 1.176.192.336.448.6.768.792.329.184.697.276 1.105.276zm11.456-7.968V305h-1.104v-1.008c-.256.352-.58.62-.972.804a3.012 3.012 0 0 1-1.296.276 3.343 3.343 0 0 1-1.656-.408 2.976 2.976 0 0 1-1.152-1.14c-.272-.496-.408-1.064-.408-1.704 0-.64.136-1.204.408-1.692.28-.488.664-.868 1.152-1.14a3.343 3.343 0 0 1 1.656-.408c.456 0 .876.088 1.26.264.384.168.704.42.96.756v-3.504h1.152zm-3.276 7.968c.4 0 .764-.092 1.092-.276a2.03 2.03 0 0 0 .768-.792c.184-.344.276-.736.276-1.176 0-.44-.092-.828-.276-1.164a1.93 1.93 0 0 0-.768-.792 2.193 2.193 0 0 0-1.092-.276c-.408 0-.776.092-1.104.276-.32.184-.576.448-.768.792a2.385 2.385 0 0 0-.276 1.164c0 .44.092.832.276 1.176.192.336.448.6.768.792.328.184.696.276 1.104.276zm15.825 1.032c-.84 0-1.6-.184-2.28-.552a4.175 4.175 0 0 1-1.584-1.536c-.384-.656-.576-1.392-.576-2.208 0-.816.192-1.548.576-2.196a4.04 4.04 0 0 1 1.596-1.536c.68-.376 1.44-.564 2.28-.564.656 0 1.256.112 1.8.336.544.216 1.008.54 1.392.972l-.78.756c-.632-.664-1.42-.996-2.364-.996-.624 0-1.188.14-1.692.42-.504.28-.9.668-1.188 1.164a3.244 3.244 0 0 0-.42 1.644c0 .608.14 1.16.42 1.656.288.488.684.872 1.188 1.152.504.28 1.068.42 1.692.42.936 0 1.724-.336 2.364-1.008l.78.756c-.384.432-.852.76-1.404.984a4.684 4.684 0 0 1-1.8.336zm7.203-.024c-.633 0-1.2-.14-1.705-.42-.504-.28-.9-.664-1.188-1.152a3.357 3.357 0 0 1-.42-1.68c0-.624.14-1.18.42-1.668.288-.496.684-.88 1.188-1.152a3.449 3.449 0 0 1 1.704-.42c.633 0 1.197.14 1.693.42.504.272.896.656 1.176 1.152.288.488.432 1.044.432 1.668 0 .624-.144 1.184-.432 1.68-.28.488-.672.872-1.176 1.152-.496.28-1.06.42-1.692.42zm0-1.008a2.15 2.15 0 0 0 1.092-.276 2.03 2.03 0 0 0 .768-.792c.184-.344.276-.736.276-1.176 0-.44-.092-.828-.276-1.164a1.93 1.93 0 0 0-.768-.792 2.151 2.151 0 0 0-1.093-.276c-.407 0-.775.092-1.103.276-.32.184-.577.448-.769.792a2.385 2.385 0 0 0-.275 1.164c0 .44.092.832.276 1.176.191.336.447.6.767.792.329.184.697.276 1.105.276zm8.289-5.484c.808 0 1.448.236 1.92.708.48.464.72 1.148.72 2.052V305h-1.152v-3.528c0-.616-.148-1.08-.444-1.392-.296-.312-.72-.468-1.272-.468-.624 0-1.116.184-1.476.552-.36.36-.54.88-.54 1.56V305h-1.152v-6.36h1.104v.96c.232-.328.544-.58.936-.756.4-.176.852-.264 1.356-.264zm10.807-2.484V305h-1.104v-1.008c-.256.352-.58.62-.972.804a3.012 3.012 0 0 1-1.296.276 3.343 3.343 0 0 1-1.656-.408 2.976 2.976 0 0 1-1.152-1.14c-.272-.496-.408-1.064-.408-1.704 0-.64.136-1.204.408-1.692.28-.488.664-.868 1.152-1.14a3.343 3.343 0 0 1 1.656-.408c.456 0 .876.088 1.26.264.384.168.704.42.96.756v-3.504h1.152zm-3.276 7.968c.4 0 .764-.092 1.092-.276a2.03 2.03 0 0 0 .768-.792c.184-.344.276-.736.276-1.176 0-.44-.092-.828-.276-1.164a1.93 1.93 0 0 0-.768-.792 2.193 2.193 0 0 0-1.092-.276c-.408 0-.776.092-1.104.276-.32.184-.576.448-.768.792a2.385 2.385 0 0 0-.276 1.164c0 .44.092.832.276 1.176.192.336.448.6.768.792.328.184.696.276 1.104.276zm5.456-5.424h1.152V305h-1.152v-6.36zm.576-1.224a.789.789 0 0 1-.564-.216.718.718 0 0 1-.216-.528c0-.208.072-.384.216-.528a.766.766 0 0 1 .564-.228c.224 0 .408.072.552.216a.662.662 0 0 1 .228.516c0 .216-.076.4-.228.552a.748.748 0 0 1-.552.216zm6.351 7.212a1.79 1.79 0 0 1-.624.336 2.74 2.74 0 0 1-.768.108c-.64 0-1.136-.172-1.488-.516-.352-.344-.528-.836-.528-1.476v-3.492h-1.08v-.948h1.08v-1.392h1.152v1.392h1.824v.948h-1.824v3.444c0 .344.084.608.252.792.176.184.424.276.744.276.352 0 .652-.1.9-.3l.36.828zm1.393-5.988h1.152V305h-1.152v-6.36zm.576-1.224a.789.789 0 0 1-.564-.216.718.718 0 0 1-.216-.528c0-.208.072-.384.216-.528a.766.766 0 0 1 .564-.228c.224 0 .408.072.552.216a.662.662 0 0 1 .228.516c0 .216-.076.4-.228.552a.748.748 0 0 1-.552.216zm5.499 7.656c-.632 0-1.2-.14-1.704-.42-.504-.28-.9-.664-1.188-1.152a3.357 3.357 0 0 1-.42-1.68c0-.624.14-1.18.42-1.668.288-.496.684-.88 1.188-1.152a3.449 3.449 0 0 1 1.704-.42c.632 0 1.196.14 1.692.42.504.272.896.656 1.176 1.152.288.488.432 1.044.432 1.668 0 .624-.144 1.184-.432 1.68-.28.488-.672.872-1.176 1.152-.496.28-1.06.42-1.692.42zm0-1.008a2.15 2.15 0 0 0 1.092-.276 2.03 2.03 0 0 0 .768-.792c.184-.344.276-.736.276-1.176 0-.44-.092-.828-.276-1.164a1.93 1.93 0 0 0-.768-.792 2.15 2.15 0 0 0-1.092-.276c-.408 0-.776.092-1.104.276-.32.184-.576.448-.768.792a2.385 2.385 0 0 0-.276 1.164c0 .44.092.832.276 1.176.192.336.448.6.768.792.328.184.696.276 1.104.276zm8.29-5.484c.808 0 1.448.236 1.92.708.48.464.72 1.148.72 2.052V305h-1.152v-3.528c0-.616-.148-1.08-.444-1.392-.296-.312-.72-.468-1.272-.468-.624 0-1.116.184-1.476.552-.36.36-.54.88-.54 1.56V305h-1.152v-6.36h1.104v.96c.232-.328.544-.58.936-.756.4-.176.852-.264 1.356-.264z"/><rect width="6" height="1" x="107" y="279.24" fill="#62699F" rx=".5" transform="rotate(-45 107 279.243)"/><rect width="6" height="1" x="102" y="270" fill="#62699F" rx=".5" transform="rotate(90 102 270)"/><rect width="6" height="1" x="96" y="279.95" fill="#62699F" rx=".5" transform="rotate(-135 96 279.95)"/><g clip-path="url(#a)"><path fill="#4B2E21" d="M97.309 327.17l.885-4.55c.208-1.07 1.244-2.105 2.315-2.311l3.875-.749c1.07-.207 1.143-.762.164-1.24l-12.577-6.127c-.98-.478-1.461-.038-1.075.981l5.337 14.087c.386 1.02.867.979 1.076-.091z"/></g><rect width="144.5" height="31.5" x="40.25" y="102.25" fill="#F3F3F8" stroke="#8187B2" stroke-width=".5" rx="4.75"/><path fill="#62699F" d="M57.26 113.6h1.2v8.4h-1.2v-8.4zm3.715 0h3.54c.888 0 1.676.176 2.364.528.688.352 1.22.848 1.596 1.488.384.632.576 1.36.576 2.184 0 .824-.192 1.556-.576 2.196a3.852 3.852 0 0 1-1.596 1.476c-.688.352-1.476.528-2.364.528h-3.54v-8.4zm3.468 7.356c.68 0 1.276-.132 1.788-.396.52-.264.92-.632 1.2-1.104.28-.48.42-1.032.42-1.656 0-.624-.14-1.172-.42-1.644-.28-.48-.68-.852-1.2-1.116-.512-.264-1.108-.396-1.788-.396h-2.268v6.312h2.268z"/><rect width="130.5" height="31.5" x="315.25" y="102.25" fill="#F5F5F9" stroke="#8187B2" stroke-width=".5" rx="4.75"/><path fill="#62699F" d="M427 123l-3-4h6l-3 4zm0-10l3 4h-6l3-4zm-91.464.6c1.088 0 1.944.26 2.568.78.624.52.936 1.236.936 2.148 0 .912-.312 1.628-.936 2.148-.624.52-1.48.78-2.568.78h-2.076V122h-1.2v-8.4h3.276zm-.036 4.812c.76 0 1.34-.16 1.74-.48.4-.328.6-.796.6-1.404 0-.608-.2-1.072-.6-1.392-.4-.328-.98-.492-1.74-.492h-2.04v3.768h2.04zm6.134-1.704c.2-.368.496-.648.887-.84.393-.192.869-.288 1.429-.288v1.116a2.249 2.249 0 0 0-.264-.012c-.624 0-1.116.188-1.476.564-.352.368-.528.896-.528 1.584V122h-1.152v-6.36h1.104v1.068zm6.401 5.364c-.632 0-1.2-.14-1.704-.42-.504-.28-.9-.664-1.188-1.152a3.357 3.357 0 0 1-.42-1.68c0-.624.14-1.18.42-1.668.288-.496.684-.88 1.188-1.152a3.449 3.449 0 0 1 1.704-.42c.632 0 1.196.14 1.692.42.504.272.896.656 1.176 1.152.288.488.432 1.044.432 1.668 0 .624-.144 1.184-.432 1.68-.28.488-.672.872-1.176 1.152-.496.28-1.06.42-1.692.42zm0-1.008a2.15 2.15 0 0 0 1.092-.276 2.03 2.03 0 0 0 .768-.792c.184-.344.276-.736.276-1.176 0-.44-.092-.828-.276-1.164a1.93 1.93 0 0 0-.768-.792 2.15 2.15 0 0 0-1.092-.276c-.408 0-.776.092-1.104.276-.32.184-.576.448-.768.792a2.385 2.385 0 0 0-.276 1.164c0 .44.092.832.276 1.176.192.336.448.6.768.792.328.184.696.276 1.104.276zm10.893-7.968V122h-1.104v-1.008c-.256.352-.58.62-.972.804a3.012 3.012 0 0 1-1.296.276 3.343 3.343 0 0 1-1.656-.408 2.976 2.976 0 0 1-1.152-1.14c-.272-.496-.408-1.064-.408-1.704 0-.64.136-1.204.408-1.692.28-.488.664-.868 1.152-1.14a3.343 3.343 0 0 1 1.656-.408c.456 0 .876.088 1.26.264.384.168.704.42.96.756v-3.504h1.152zm-3.276 7.968c.4 0 .764-.092 1.092-.276a2.03 2.03 0 0 0 .768-.792c.184-.344.276-.736.276-1.176 0-.44-.092-.828-.276-1.164a1.93 1.93 0 0 0-.768-.792 2.193 2.193 0 0 0-1.092-.276c-.408 0-.776.092-1.104.276-.32.184-.576.448-.768.792a2.385 2.385 0 0 0-.276 1.164c0 .44.092.832.276 1.176.192.336.448.6.768.792.328.184.696.276 1.104.276zm11.384-5.424V122h-1.092v-.96c-.232.328-.54.584-.924.768a2.879 2.879 0 0 1-1.236.264c-.848 0-1.516-.232-2.004-.696-.488-.472-.732-1.164-.732-2.076v-3.66h1.152v3.528c0 .616.148 1.084.444 1.404.296.312.72.468 1.272.468.608 0 1.088-.184 1.44-.552.352-.368.528-.888.528-1.56v-3.288h1.152zm4.965 6.432c-.648 0-1.228-.14-1.74-.42-.504-.28-.9-.664-1.188-1.152a3.284 3.284 0 0 1-.432-1.68c0-.624.144-1.18.432-1.668.288-.496.684-.88 1.188-1.152.512-.28 1.092-.42 1.74-.42.576 0 1.088.116 1.536.348a2.47 2.47 0 0 1 1.056 1.008l-.876.564a1.957 1.957 0 0 0-.744-.684 2.122 2.122 0 0 0-.984-.228 2.31 2.31 0 0 0-1.128.276 2.008 2.008 0 0 0-.78.792 2.385 2.385 0 0 0-.276 1.164c0 .448.092.844.276 1.188.192.336.452.596.78.78a2.31 2.31 0 0 0 1.128.276c.36 0 .688-.076.984-.228.296-.152.544-.38.744-.684l.876.552c-.248.44-.6.78-1.056 1.02-.448.232-.96.348-1.536.348zm7.741-.444a1.79 1.79 0 0 1-.624.336 2.74 2.74 0 0 1-.768.108c-.64 0-1.136-.172-1.488-.516-.352-.344-.528-.836-.528-1.476v-3.492h-1.08v-.948h1.08v-1.392h1.152v1.392h1.824v.948h-1.824v3.444c0 .344.084.608.252.792.176.184.424.276.744.276.352 0 .652-.1.9-.3l.36.828zm4.784-8.028h1.2v8.4h-1.2v-8.4zm3.714 0h3.54c.888 0 1.676.176 2.364.528.688.352 1.22.848 1.596 1.488.384.632.576 1.36.576 2.184 0 .824-.192 1.556-.576 2.196a3.852 3.852 0 0 1-1.596 1.476c-.688.352-1.476.528-2.364.528h-3.54v-8.4zm3.468 7.356c.68 0 1.276-.132 1.788-.396.52-.264.92-.632 1.2-1.104.28-.48.42-1.032.42-1.656 0-.624-.14-1.172-.42-1.644-.28-.48-.68-.852-1.2-1.116-.512-.264-1.108-.396-1.788-.396h-2.268v6.312h2.268z"/><rect width="109.5" height="31.5" x="195.25" y="102.25" fill="#F3F3F8" stroke="#8187B2" stroke-width=".5" rx="4.75"/><path fill="#62699F" d="M286 123l-3-4h6l-3 4zm0-10l3 4h-6l3-4zm-68.388 6.9h-4.464l-.924 2.1h-1.236l3.804-8.4h1.188l3.816 8.4h-1.26l-.924-2.1zm-.42-.96l-1.812-4.116-1.812 4.116h3.624zm7.206 2.688a1.79 1.79 0 0 1-.624.336 2.74 2.74 0 0 1-.768.108c-.64 0-1.136-.172-1.488-.516-.352-.344-.528-.836-.528-1.476v-3.492h-1.08v-.948h1.08v-1.392h1.152v1.392h1.824v.948h-1.824v3.444c0 .344.084.608.252.792.176.184.424.276.744.276.352 0 .652-.1.9-.3l.36.828zm4.817 0a1.79 1.79 0 0 1-.624.336 2.74 2.74 0 0 1-.768.108c-.64 0-1.136-.172-1.488-.516-.352-.344-.528-.836-.528-1.476v-3.492h-1.08v-.948h1.08v-1.392h1.152v1.392h1.824v.948h-1.824v3.444c0 .344.084.608.252.792.176.184.424.276.744.276.352 0 .652-.1.9-.3l.36.828zm2.497-4.92c.2-.368.496-.648.888-.84.392-.192.868-.288 1.428-.288v1.116a2.249 2.249 0 0 0-.264-.012c-.624 0-1.116.188-1.476.564-.352.368-.528.896-.528 1.584V122h-1.152v-6.36h1.104v1.068zm3.735-1.068h1.152V122h-1.152v-6.36zm.576-1.224a.789.789 0 0 1-.564-.216.718.718 0 0 1-.216-.528c0-.208.072-.384.216-.528a.766.766 0 0 1 .564-.228c.224 0 .408.072.552.216a.662.662 0 0 1 .228.516c0 .216-.076.4-.228.552a.748.748 0 0 1-.552.216zm6.148 1.164c.616 0 1.168.136 1.656.408.488.272.868.652 1.14 1.14.28.488.42 1.052.42 1.692 0 .64-.14 1.208-.42 1.704a2.894 2.894 0 0 1-1.14 1.14 3.343 3.343 0 0 1-1.656.408c-.472 0-.904-.092-1.296-.276a2.495 2.495 0 0 1-.972-.804V122h-1.104v-8.904h1.152v3.504c.256-.336.576-.588.96-.756a2.988 2.988 0 0 1 1.26-.264zm-.096 5.484a2.15 2.15 0 0 0 1.092-.276 2.03 2.03 0 0 0 .768-.792c.192-.344.288-.736.288-1.176 0-.44-.096-.828-.288-1.164a1.93 1.93 0 0 0-.768-.792 2.15 2.15 0 0 0-1.092-.276c-.4 0-.764.092-1.092.276a1.93 1.93 0 0 0-.768.792 2.385 2.385 0 0 0-.276 1.164c0 .44.092.832.276 1.176.184.336.44.6.768.792.328.184.692.276 1.092.276zm10.832-5.424V122h-1.092v-.96c-.232.328-.54.584-.924.768a2.879 2.879 0 0 1-1.236.264c-.848 0-1.516-.232-2.004-.696-.488-.472-.732-1.164-.732-2.076v-3.66h1.152v3.528c0 .616.148 1.084.444 1.404.296.312.72.468 1.272.468.608 0 1.088-.184 1.44-.552.352-.368.528-.888.528-1.56v-3.288h1.152zm5.769 5.988a1.79 1.79 0 0 1-.624.336 2.74 2.74 0 0 1-.768.108c-.64 0-1.136-.172-1.488-.516-.352-.344-.528-.836-.528-1.476v-3.492h-1.08v-.948h1.08v-1.392h1.152v1.392h1.824v.948h-1.824v3.444c0 .344.084.608.252.792.176.184.424.276.744.276.352 0 .652-.1.9-.3l.36.828zm6.93-2.772c0 .088-.008.204-.024.348h-5.16c.072.56.316 1.012.732 1.356.424.336.948.504 1.572.504.76 0 1.372-.256 1.836-.768l.636.744a2.777 2.777 0 0 1-1.08.768c-.424.176-.9.264-1.428.264-.672 0-1.268-.136-1.788-.408a3.033 3.033 0 0 1-1.212-1.164 3.357 3.357 0 0 1-.42-1.68c0-.616.136-1.172.408-1.668.28-.496.66-.88 1.14-1.152a3.244 3.244 0 0 1 1.644-.42c.608 0 1.148.14 1.62.42.48.272.852.656 1.116 1.152.272.496.408 1.064.408 1.704zm-3.144-2.304c-.552 0-1.016.168-1.392.504-.368.336-.584.776-.648 1.32h4.08c-.064-.536-.284-.972-.66-1.308-.368-.344-.828-.516-1.38-.516z"/><rect width="144.5" height="31.5" x="40.25" y="144.25" fill="#F3F3F8" stroke="#8187B2" stroke-width=".5" rx="4.75"/><path fill="#62699F" d="M58.928 156.644h-2.88V155.6h6.948v1.044h-2.88V164h-1.188v-7.356zm5.055.996h1.152V164h-1.152v-6.36zm.576-1.224a.789.789 0 0 1-.564-.216.718.718 0 0 1-.216-.528c0-.208.072-.384.216-.528a.766.766 0 0 1 .564-.228c.224 0 .408.072.552.216a.662.662 0 0 1 .228.516c0 .216-.076.4-.228.552a.748.748 0 0 1-.552.216zm6.351 7.212a1.79 1.79 0 0 1-.624.336 2.74 2.74 0 0 1-.768.108c-.64 0-1.136-.172-1.488-.516-.352-.344-.528-.836-.528-1.476v-3.492h-1.08v-.948h1.08v-1.392h1.152v1.392h1.824v.948h-1.824v3.444c0 .344.084.608.252.792.176.184.424.276.744.276.352 0 .652-.1.9-.3l.36.828zm1.393-8.532h1.152V164h-1.152v-8.904zm9.1 5.76c0 .088-.009.204-.025.348h-5.16c.072.56.316 1.012.733 1.356.424.336.948.504 1.572.504.76 0 1.371-.256 1.836-.768l.636.744a2.777 2.777 0 0 1-1.08.768c-.425.176-.9.264-1.428.264-.672 0-1.268-.136-1.788-.408a3.033 3.033 0 0 1-1.212-1.164 3.357 3.357 0 0 1-.42-1.68c0-.616.136-1.172.408-1.668.28-.496.66-.88 1.14-1.152a3.244 3.244 0 0 1 1.644-.42c.608 0 1.147.14 1.62.42.48.272.852.656 1.115 1.152.272.496.409 1.064.409 1.704zm-3.145-2.304c-.551 0-1.015.168-1.391.504-.368.336-.585.776-.648 1.32h4.08c-.065-.536-.285-.972-.66-1.308-.368-.344-.828-.516-1.38-.516z"/><rect width="130.5" height="31.5" x="315.25" y="144.25" fill="#F5F5F9" stroke="#8187B2" stroke-width=".5" rx="4.75"/><path fill="#62699F" d="M427 165l-3-4h6l-3 4zm0-10l3 4h-6l3-4zm-91.464.6c1.088 0 1.944.26 2.568.78.624.52.936 1.236.936 2.148 0 .912-.312 1.628-.936 2.148-.624.52-1.48.78-2.568.78h-2.076V164h-1.2v-8.4h3.276zm-.036 4.812c.76 0 1.34-.16 1.74-.48.4-.328.6-.796.6-1.404 0-.608-.2-1.072-.6-1.392-.4-.328-.98-.492-1.74-.492h-2.04v3.768h2.04zm6.134-1.704c.2-.368.496-.648.887-.84.393-.192.869-.288 1.429-.288v1.116a2.249 2.249 0 0 0-.264-.012c-.624 0-1.116.188-1.476.564-.352.368-.528.896-.528 1.584V164h-1.152v-6.36h1.104v1.068zm6.401 5.364c-.632 0-1.2-.14-1.704-.42-.504-.28-.9-.664-1.188-1.152a3.357 3.357 0 0 1-.42-1.68c0-.624.14-1.18.42-1.668.288-.496.684-.88 1.188-1.152a3.449 3.449 0 0 1 1.704-.42c.632 0 1.196.14 1.692.42.504.272.896.656 1.176 1.152.288.488.432 1.044.432 1.668 0 .624-.144 1.184-.432 1.68-.28.488-.672.872-1.176 1.152-.496.28-1.06.42-1.692.42zm0-1.008a2.15 2.15 0 0 0 1.092-.276 2.03 2.03 0 0 0 .768-.792c.184-.344.276-.736.276-1.176 0-.44-.092-.828-.276-1.164a1.93 1.93 0 0 0-.768-.792 2.15 2.15 0 0 0-1.092-.276c-.408 0-.776.092-1.104.276-.32.184-.576.448-.768.792a2.385 2.385 0 0 0-.276 1.164c0 .44.092.832.276 1.176.192.336.448.6.768.792.328.184.696.276 1.104.276zm10.893-7.968V164h-1.104v-1.008c-.256.352-.58.62-.972.804a3.012 3.012 0 0 1-1.296.276 3.343 3.343 0 0 1-1.656-.408 2.976 2.976 0 0 1-1.152-1.14c-.272-.496-.408-1.064-.408-1.704 0-.64.136-1.204.408-1.692.28-.488.664-.868 1.152-1.14a3.343 3.343 0 0 1 1.656-.408c.456 0 .876.088 1.26.264.384.168.704.42.96.756v-3.504h1.152zm-3.276 7.968c.4 0 .764-.092 1.092-.276a2.03 2.03 0 0 0 .768-.792c.184-.344.276-.736.276-1.176 0-.44-.092-.828-.276-1.164a1.93 1.93 0 0 0-.768-.792 2.193 2.193 0 0 0-1.092-.276c-.408 0-.776.092-1.104.276-.32.184-.576.448-.768.792a2.385 2.385 0 0 0-.276 1.164c0 .44.092.832.276 1.176.192.336.448.6.768.792.328.184.696.276 1.104.276zm11.384-5.424V164h-1.092v-.96c-.232.328-.54.584-.924.768a2.879 2.879 0 0 1-1.236.264c-.848 0-1.516-.232-2.004-.696-.488-.472-.732-1.164-.732-2.076v-3.66h1.152v3.528c0 .616.148 1.084.444 1.404.296.312.72.468 1.272.468.608 0 1.088-.184 1.44-.552.352-.368.528-.888.528-1.56v-3.288h1.152zm4.965 6.432c-.648 0-1.228-.14-1.74-.42-.504-.28-.9-.664-1.188-1.152a3.284 3.284 0 0 1-.432-1.68c0-.624.144-1.18.432-1.668.288-.496.684-.88 1.188-1.152.512-.28 1.092-.42 1.74-.42.576 0 1.088.116 1.536.348a2.47 2.47 0 0 1 1.056 1.008l-.876.564a1.957 1.957 0 0 0-.744-.684 2.122 2.122 0 0 0-.984-.228 2.31 2.31 0 0 0-1.128.276 2.008 2.008 0 0 0-.78.792 2.385 2.385 0 0 0-.276 1.164c0 .448.092.844.276 1.188.192.336.452.596.78.78a2.31 2.31 0 0 0 1.128.276c.36 0 .688-.076.984-.228.296-.152.544-.38.744-.684l.876.552c-.248.44-.6.78-1.056 1.02-.448.232-.96.348-1.536.348zm7.741-.444a1.79 1.79 0 0 1-.624.336 2.74 2.74 0 0 1-.768.108c-.64 0-1.136-.172-1.488-.516-.352-.344-.528-.836-.528-1.476v-3.492h-1.08v-.948h1.08v-1.392h1.152v1.392h1.824v.948h-1.824v3.444c0 .344.084.608.252.792.176.184.424.276.744.276.352 0 .652-.1.9-.3l.36.828zm6.452-6.984h-2.88V155.6h6.948v1.044h-2.88V164h-1.188v-7.356zm5.054.996h1.152V164h-1.152v-6.36zm.576-1.224a.789.789 0 0 1-.564-.216.718.718 0 0 1-.216-.528c0-.208.072-.384.216-.528a.766.766 0 0 1 .564-.228c.224 0 .408.072.552.216a.662.662 0 0 1 .228.516c0 .216-.076.4-.228.552a.748.748 0 0 1-.552.216zm6.352 7.212a1.79 1.79 0 0 1-.624.336 2.74 2.74 0 0 1-.768.108c-.64 0-1.136-.172-1.488-.516-.352-.344-.528-.836-.528-1.476v-3.492h-1.08v-.948h1.08v-1.392h1.152v1.392h1.824v.948h-1.824v3.444c0 .344.084.608.252.792.176.184.424.276.744.276.352 0 .652-.1.9-.3l.36.828zm1.393-8.532h1.152V164h-1.152v-8.904zm9.099 5.76c0 .088-.008.204-.024.348h-5.16c.072.56.316 1.012.732 1.356.424.336.948.504 1.572.504.76 0 1.372-.256 1.836-.768l.636.744a2.777 2.777 0 0 1-1.08.768c-.424.176-.9.264-1.428.264-.672 0-1.268-.136-1.788-.408a3.033 3.033 0 0 1-1.212-1.164 3.357 3.357 0 0 1-.42-1.68c0-.616.136-1.172.408-1.668.28-.496.66-.88 1.14-1.152a3.244 3.244 0 0 1 1.644-.42c.608 0 1.148.14 1.62.42.48.272.852.656 1.116 1.152.272.496.408 1.064.408 1.704zm-3.144-2.304c-.552 0-1.016.168-1.392.504-.368.336-.584.776-.648 1.32h4.08c-.064-.536-.284-.972-.66-1.308-.368-.344-.828-.516-1.38-.516z"/><rect width="109.5" height="31.5" x="195.25" y="144.25" fill="#F3F3F8" stroke="#8187B2" stroke-width=".5" rx="4.75"/><path fill="#62699F" d="M286 165l-3-4h6l-3 4zm0-10l3 4h-6l3-4zm-68.388 6.9h-4.464l-.924 2.1h-1.236l3.804-8.4h1.188l3.816 8.4h-1.26l-.924-2.1zm-.42-.96l-1.812-4.116-1.812 4.116h3.624zm7.206 2.688a1.79 1.79 0 0 1-.624.336 2.74 2.74 0 0 1-.768.108c-.64 0-1.136-.172-1.488-.516-.352-.344-.528-.836-.528-1.476v-3.492h-1.08v-.948h1.08v-1.392h1.152v1.392h1.824v.948h-1.824v3.444c0 .344.084.608.252.792.176.184.424.276.744.276.352 0 .652-.1.9-.3l.36.828zm4.817 0a1.79 1.79 0 0 1-.624.336 2.74 2.74 0 0 1-.768.108c-.64 0-1.136-.172-1.488-.516-.352-.344-.528-.836-.528-1.476v-3.492h-1.08v-.948h1.08v-1.392h1.152v1.392h1.824v.948h-1.824v3.444c0 .344.084.608.252.792.176.184.424.276.744.276.352 0 .652-.1.9-.3l.36.828zm2.497-4.92c.2-.368.496-.648.888-.84.392-.192.868-.288 1.428-.288v1.116a2.249 2.249 0 0 0-.264-.012c-.624 0-1.116.188-1.476.564-.352.368-.528.896-.528 1.584V164h-1.152v-6.36h1.104v1.068zm3.735-1.068h1.152V164h-1.152v-6.36zm.576-1.224a.789.789 0 0 1-.564-.216.718.718 0 0 1-.216-.528c0-.208.072-.384.216-.528a.766.766 0 0 1 .564-.228c.224 0 .408.072.552.216a.662.662 0 0 1 .228.516c0 .216-.076.4-.228.552a.748.748 0 0 1-.552.216zm6.148 1.164c.616 0 1.168.136 1.656.408.488.272.868.652 1.14 1.14.28.488.42 1.052.42 1.692 0 .64-.14 1.208-.42 1.704a2.894 2.894 0 0 1-1.14 1.14 3.343 3.343 0 0 1-1.656.408c-.472 0-.904-.092-1.296-.276a2.495 2.495 0 0 1-.972-.804V164h-1.104v-8.904h1.152v3.504c.256-.336.576-.588.96-.756a2.988 2.988 0 0 1 1.26-.264zm-.096 5.484a2.15 2.15 0 0 0 1.092-.276 2.03 2.03 0 0 0 .768-.792c.192-.344.288-.736.288-1.176 0-.44-.096-.828-.288-1.164a1.93 1.93 0 0 0-.768-.792 2.15 2.15 0 0 0-1.092-.276c-.4 0-.764.092-1.092.276a1.93 1.93 0 0 0-.768.792 2.385 2.385 0 0 0-.276 1.164c0 .44.092.832.276 1.176.184.336.44.6.768.792.328.184.692.276 1.092.276zm10.832-5.424V164h-1.092v-.96c-.232.328-.54.584-.924.768a2.879 2.879 0 0 1-1.236.264c-.848 0-1.516-.232-2.004-.696-.488-.472-.732-1.164-.732-2.076v-3.66h1.152v3.528c0 .616.148 1.084.444 1.404.296.312.72.468 1.272.468.608 0 1.088-.184 1.44-.552.352-.368.528-.888.528-1.56v-3.288h1.152zm5.769 5.988a1.79 1.79 0 0 1-.624.336 2.74 2.74 0 0 1-.768.108c-.64 0-1.136-.172-1.488-.516-.352-.344-.528-.836-.528-1.476v-3.492h-1.08v-.948h1.08v-1.392h1.152v1.392h1.824v.948h-1.824v3.444c0 .344.084.608.252.792.176.184.424.276.744.276.352 0 .652-.1.9-.3l.36.828zm6.93-2.772c0 .088-.008.204-.024.348h-5.16c.072.56.316 1.012.732 1.356.424.336.948.504 1.572.504.76 0 1.372-.256 1.836-.768l.636.744a2.777 2.777 0 0 1-1.08.768c-.424.176-.9.264-1.428.264-.672 0-1.268-.136-1.788-.408a3.033 3.033 0 0 1-1.212-1.164 3.357 3.357 0 0 1-.42-1.68c0-.616.136-1.172.408-1.668.28-.496.66-.88 1.14-1.152a3.244 3.244 0 0 1 1.644-.42c.608 0 1.148.14 1.62.42.48.272.852.656 1.116 1.152.272.496.408 1.064.408 1.704zm-3.144-2.304c-.552 0-1.016.168-1.392.504-.368.336-.584.776-.648 1.32h4.08c-.064-.536-.284-.972-.66-1.308-.368-.344-.828-.516-1.38-.516z"/><rect width="144.5" height="31.5" x="40.25" y="186.25" fill="#F3F3F8" stroke="#8187B2" stroke-width=".5" rx="4.75"/><path fill="#62699F" d="M60.536 197.6c1.088 0 1.944.26 2.568.78.624.52.936 1.236.936 2.148 0 .912-.312 1.628-.936 2.148-.624.52-1.48.78-2.568.78H58.46V206h-1.2v-8.4h3.276zm-.036 4.812c.76 0 1.34-.16 1.74-.48.4-.328.6-.796.6-1.404 0-.608-.2-1.072-.6-1.392-.4-.328-.98-.492-1.74-.492h-2.04v3.768h2.04zm6.133-1.704c.2-.368.496-.648.889-.84.391-.192.867-.288 1.427-.288v1.116a2.249 2.249 0 0 0-.263-.012c-.625 0-1.117.188-1.477.564-.352.368-.528.896-.528 1.584V206H65.53v-6.36h1.103v1.068zm3.736-1.068h1.152V206H70.37v-6.36zm.576-1.224a.789.789 0 0 1-.564-.216.718.718 0 0 1-.216-.528c0-.208.072-.384.216-.528a.766.766 0 0 1 .564-.228c.224 0 .408.072.552.216a.662.662 0 0 1 .228.516c0 .216-.076.4-.228.552a.748.748 0 0 1-.552.216zm5.548 7.656c-.648 0-1.228-.14-1.74-.42-.504-.28-.9-.664-1.188-1.152a3.284 3.284 0 0 1-.432-1.68c0-.624.144-1.18.432-1.668.288-.496.684-.88 1.188-1.152.512-.28 1.092-.42 1.74-.42.576 0 1.088.116 1.536.348a2.47 2.47 0 0 1 1.056 1.008l-.876.564a1.957 1.957 0 0 0-.744-.684 2.122 2.122 0 0 0-.984-.228 2.31 2.31 0 0 0-1.128.276 2.008 2.008 0 0 0-.78.792 2.385 2.385 0 0 0-.276 1.164c0 .448.092.844.276 1.188.192.336.452.596.78.78a2.31 2.31 0 0 0 1.128.276c.36 0 .688-.076.984-.228.296-.152.544-.38.744-.684l.876.552c-.248.44-.6.78-1.056 1.02-.448.232-.96.348-1.536.348zm9.738-3.216c0 .088-.008.204-.024.348h-5.16c.072.56.316 1.012.732 1.356.424.336.948.504 1.572.504.76 0 1.372-.256 1.836-.768l.636.744a2.777 2.777 0 0 1-1.08.768c-.424.176-.9.264-1.428.264-.672 0-1.268-.136-1.788-.408a3.033 3.033 0 0 1-1.212-1.164 3.357 3.357 0 0 1-.42-1.68c0-.616.136-1.172.408-1.668.28-.496.66-.88 1.14-1.152a3.244 3.244 0 0 1 1.644-.42c.608 0 1.148.14 1.62.42.48.272.852.656 1.116 1.152.272.496.408 1.064.408 1.704zm-3.144-2.304c-.552 0-1.016.168-1.392.504-.368.336-.584.776-.648 1.32h4.08c-.064-.536-.284-.972-.66-1.308-.368-.344-.828-.516-1.38-.516z"/><rect width="130.5" height="31.5" x="315.25" y="186.25" fill="#F5F5F9" stroke="#8187B2" stroke-width=".5" rx="4.75"/><path fill="#62699F" d="M427 207l-3-4h6l-3 4zm0-10l3 4h-6l3-4zm-91.464.6c1.088 0 1.944.26 2.568.78.624.52.936 1.236.936 2.148 0 .912-.312 1.628-.936 2.148-.624.52-1.48.78-2.568.78h-2.076V206h-1.2v-8.4h3.276zm-.036 4.812c.76 0 1.34-.16 1.74-.48.4-.328.6-.796.6-1.404 0-.608-.2-1.072-.6-1.392-.4-.328-.98-.492-1.74-.492h-2.04v3.768h2.04zm6.134-1.704c.2-.368.496-.648.887-.84.393-.192.869-.288 1.429-.288v1.116a2.249 2.249 0 0 0-.264-.012c-.624 0-1.116.188-1.476.564-.352.368-.528.896-.528 1.584V206h-1.152v-6.36h1.104v1.068zm3.735-1.068h1.152V206h-1.152v-6.36zm.576-1.224a.789.789 0 0 1-.564-.216.718.718 0 0 1-.216-.528c0-.208.072-.384.216-.528a.766.766 0 0 1 .564-.228c.224 0 .408.072.552.216a.662.662 0 0 1 .228.516c0 .216-.076.4-.228.552a.748.748 0 0 1-.552.216zm5.548 7.656c-.648 0-1.228-.14-1.74-.42-.504-.28-.9-.664-1.188-1.152a3.284 3.284 0 0 1-.432-1.68c0-.624.144-1.18.432-1.668.288-.496.684-.88 1.188-1.152.512-.28 1.092-.42 1.74-.42.576 0 1.088.116 1.536.348a2.47 2.47 0 0 1 1.056 1.008l-.876.564a1.957 1.957 0 0 0-.744-.684 2.122 2.122 0 0 0-.984-.228 2.31 2.31 0 0 0-1.128.276 2.008 2.008 0 0 0-.78.792 2.385 2.385 0 0 0-.276 1.164c0 .448.092.844.276 1.188.192.336.452.596.78.78a2.31 2.31 0 0 0 1.128.276c.36 0 .688-.076.984-.228.296-.152.544-.38.744-.684l.876.552c-.248.44-.6.78-1.056 1.02-.448.232-.96.348-1.536.348zm9.738-3.216c0 .088-.008.204-.024.348h-5.16c.072.56.316 1.012.732 1.356.424.336.948.504 1.572.504.76 0 1.372-.256 1.836-.768l.636.744a2.777 2.777 0 0 1-1.08.768c-.424.176-.9.264-1.428.264-.672 0-1.268-.136-1.788-.408a3.033 3.033 0 0 1-1.212-1.164 3.357 3.357 0 0 1-.42-1.68c0-.616.136-1.172.408-1.668.28-.496.66-.88 1.14-1.152a3.244 3.244 0 0 1 1.644-.42c.608 0 1.148.14 1.62.42.48.272.852.656 1.116 1.152.272.496.408 1.064.408 1.704zm-3.144-2.304c-.552 0-1.016.168-1.392.504-.368.336-.584.776-.648 1.32h4.08c-.064-.536-.284-.972-.66-1.308-.368-.344-.828-.516-1.38-.516z"/><rect width="109.5" height="31.5" x="195.25" y="186.25" fill="#F3F3F8" stroke="#8187B2" stroke-width=".5" rx="4.75"/><path fill="#62699F" d="M286 207l-3-4h6l-3 4zm0-10l3 4h-6l3-4zm-68.388 6.9h-4.464l-.924 2.1h-1.236l3.804-8.4h1.188l3.816 8.4h-1.26l-.924-2.1zm-.42-.96l-1.812-4.116-1.812 4.116h3.624zm7.206 2.688a1.79 1.79 0 0 1-.624.336 2.74 2.74 0 0 1-.768.108c-.64 0-1.136-.172-1.488-.516-.352-.344-.528-.836-.528-1.476v-3.492h-1.08v-.948h1.08v-1.392h1.152v1.392h1.824v.948h-1.824v3.444c0 .344.084.608.252.792.176.184.424.276.744.276.352 0 .652-.1.9-.3l.36.828zm4.817 0a1.79 1.79 0 0 1-.624.336 2.74 2.74 0 0 1-.768.108c-.64 0-1.136-.172-1.488-.516-.352-.344-.528-.836-.528-1.476v-3.492h-1.08v-.948h1.08v-1.392h1.152v1.392h1.824v.948h-1.824v3.444c0 .344.084.608.252.792.176.184.424.276.744.276.352 0 .652-.1.9-.3l.36.828zm2.497-4.92c.2-.368.496-.648.888-.84.392-.192.868-.288 1.428-.288v1.116a2.249 2.249 0 0 0-.264-.012c-.624 0-1.116.188-1.476.564-.352.368-.528.896-.528 1.584V206h-1.152v-6.36h1.104v1.068zm3.735-1.068h1.152V206h-1.152v-6.36zm.576-1.224a.789.789 0 0 1-.564-.216.718.718 0 0 1-.216-.528c0-.208.072-.384.216-.528a.766.766 0 0 1 .564-.228c.224 0 .408.072.552.216a.662.662 0 0 1 .228.516c0 .216-.076.4-.228.552a.748.748 0 0 1-.552.216zm6.148 1.164c.616 0 1.168.136 1.656.408.488.272.868.652 1.14 1.14.28.488.42 1.052.42 1.692 0 .64-.14 1.208-.42 1.704a2.894 2.894 0 0 1-1.14 1.14 3.343 3.343 0 0 1-1.656.408c-.472 0-.904-.092-1.296-.276a2.495 2.495 0 0 1-.972-.804V206h-1.104v-8.904h1.152v3.504c.256-.336.576-.588.96-.756a2.988 2.988 0 0 1 1.26-.264zm-.096 5.484a2.15 2.15 0 0 0 1.092-.276 2.03 2.03 0 0 0 .768-.792c.192-.344.288-.736.288-1.176 0-.44-.096-.828-.288-1.164a1.93 1.93 0 0 0-.768-.792 2.15 2.15 0 0 0-1.092-.276c-.4 0-.764.092-1.092.276a1.93 1.93 0 0 0-.768.792 2.385 2.385 0 0 0-.276 1.164c0 .44.092.832.276 1.176.184.336.44.6.768.792.328.184.692.276 1.092.276zm10.832-5.424V206h-1.092v-.96c-.232.328-.54.584-.924.768a2.879 2.879 0 0 1-1.236.264c-.848 0-1.516-.232-2.004-.696-.488-.472-.732-1.164-.732-2.076v-3.66h1.152v3.528c0 .616.148 1.084.444 1.404.296.312.72.468 1.272.468.608 0 1.088-.184 1.44-.552.352-.368.528-.888.528-1.56v-3.288h1.152zm5.769 5.988a1.79 1.79 0 0 1-.624.336 2.74 2.74 0 0 1-.768.108c-.64 0-1.136-.172-1.488-.516-.352-.344-.528-.836-.528-1.476v-3.492h-1.08v-.948h1.08v-1.392h1.152v1.392h1.824v.948h-1.824v3.444c0 .344.084.608.252.792.176.184.424.276.744.276.352 0 .652-.1.9-.3l.36.828zm6.93-2.772c0 .088-.008.204-.024.348h-5.16c.072.56.316 1.012.732 1.356.424.336.948.504 1.572.504.76 0 1.372-.256 1.836-.768l.636.744a2.777 2.777 0 0 1-1.08.768c-.424.176-.9.264-1.428.264-.672 0-1.268-.136-1.788-.408a3.033 3.033 0 0 1-1.212-1.164 3.357 3.357 0 0 1-.42-1.68c0-.616.136-1.172.408-1.668.28-.496.66-.88 1.14-1.152a3.244 3.244 0 0 1 1.644-.42c.608 0 1.148.14 1.62.42.48.272.852.656 1.116 1.152.272.496.408 1.064.408 1.704zm-3.144-2.304c-.552 0-1.016.168-1.392.504-.368.336-.584.776-.648 1.32h4.08c-.064-.536-.284-.972-.66-1.308-.368-.344-.828-.516-1.38-.516z"/><rect width="144.5" height="31.5" x="40.25" y="228.25" fill="#F3F3F8" stroke="#8187B2" stroke-width=".5" rx="4.75"/><path fill="#62699F" d="M57.26 239.6h1.2v8.4h-1.2v-8.4zm11.503 1.98c.8 0 1.432.232 1.896.696.472.464.708 1.152.708 2.064V248h-1.152v-3.528c0-.616-.144-1.08-.432-1.392-.28-.312-.684-.468-1.212-.468-.584 0-1.048.184-1.392.552-.344.36-.516.88-.516 1.56V248H65.51v-3.528c0-.616-.144-1.08-.432-1.392-.28-.312-.684-.468-1.212-.468-.584 0-1.048.184-1.392.552-.344.36-.516.88-.516 1.56V248h-1.152v-6.36h1.104v.948c.232-.328.536-.576.912-.744a2.995 2.995 0 0 1 1.284-.264c.496 0 .936.1 1.32.3.384.2.68.492.888.876.24-.368.572-.656.996-.864a3.304 3.304 0 0 1 1.452-.312zm7.04 0c.88 0 1.552.216 2.016.648.471.432.707 1.076.707 1.932V248h-1.091v-.84a1.853 1.853 0 0 1-.829.684c-.352.152-.771.228-1.26.228-.712 0-1.284-.172-1.716-.516-.423-.344-.635-.796-.635-1.356s.203-1.008.611-1.344c.409-.344 1.056-.516 1.945-.516h1.823v-.228c0-.496-.143-.876-.431-1.14-.288-.264-.712-.396-1.272-.396-.377 0-.745.064-1.105.192a2.76 2.76 0 0 0-.912.492l-.48-.864c.328-.264.72-.464 1.176-.6a4.8 4.8 0 0 1 1.453-.216zm-.264 5.604c.44 0 .82-.096 1.14-.288.32-.2.552-.48.695-.84v-.888H75.6c-.977 0-1.465.328-1.465.984 0 .32.124.572.373.756.247.184.591.276 1.031.276zm11.239-5.544v5.496c0 1.112-.276 1.932-.828 2.46-.552.536-1.376.804-2.472.804-.6 0-1.172-.084-1.716-.252-.544-.16-.984-.392-1.32-.696l.552-.888c.296.256.66.456 1.092.6.44.152.892.228 1.356.228.744 0 1.292-.176 1.644-.528.36-.352.54-.888.54-1.608v-.504a2.594 2.594 0 0 1-1.008.744c-.392.16-.82.24-1.284.24-.608 0-1.16-.128-1.656-.384a2.968 2.968 0 0 1-1.152-1.092 3.091 3.091 0 0 1-.42-1.608c0-.6.14-1.132.42-1.596.28-.472.664-.836 1.152-1.092a3.557 3.557 0 0 1 1.656-.384c.48 0 .924.088 1.332.264.416.176.756.436 1.02.78v-.984h1.092zm-3.312 5.088c.416 0 .788-.088 1.116-.264.336-.176.596-.42.78-.732.192-.32.288-.68.288-1.08 0-.616-.204-1.112-.612-1.488-.408-.384-.932-.576-1.572-.576-.648 0-1.176.192-1.584.576-.408.376-.612.872-.612 1.488 0 .4.092.76.276 1.08.192.312.452.556.78.732a2.42 2.42 0 0 0 1.14.264zm11.26-1.872c0 .088-.007.204-.023.348h-5.16c.072.56.316 1.012.732 1.356.424.336.948.504 1.572.504.76 0 1.372-.256 1.836-.768l.636.744a2.777 2.777 0 0 1-1.08.768c-.424.176-.9.264-1.428.264-.672 0-1.268-.136-1.788-.408a3.033 3.033 0 0 1-1.212-1.164 3.357 3.357 0 0 1-.42-1.68c0-.616.136-1.172.408-1.668.28-.496.66-.88 1.14-1.152a3.244 3.244 0 0 1 1.644-.42c.608 0 1.148.14 1.62.42.48.272.852.656 1.116 1.152.272.496.408 1.064.408 1.704zm-3.143-2.304c-.552 0-1.016.168-1.392.504-.368.336-.584.776-.648 1.32h4.08c-.064-.536-.284-.972-.66-1.308-.368-.344-.828-.516-1.38-.516z"/><rect width="130.5" height="31.5" x="315.25" y="228.25" fill="#F5F5F9" stroke="#8187B2" stroke-width=".5" rx="4.75"/><path fill="#62699F" d="M427 249l-3-4h6l-3 4zm0-10l3 4h-6l3-4zm-86.952 9l-.012-6.12-3.036 5.1h-.552l-3.036-5.064V248h-1.152v-8.4h.984l3.504 5.904 3.456-5.904h.984l.012 8.4h-1.152zm5.821-6.42c.88 0 1.552.216 2.016.648.472.432.708 1.076.708 1.932V248h-1.092v-.84a1.853 1.853 0 0 1-.828.684c-.352.152-.772.228-1.26.228-.712 0-1.284-.172-1.716-.516-.424-.344-.636-.796-.636-1.356s.204-1.008.612-1.344c.408-.344 1.056-.516 1.944-.516h1.824v-.228c0-.496-.144-.876-.432-1.14-.288-.264-.712-.396-1.272-.396-.376 0-.744.064-1.104.192a2.76 2.76 0 0 0-.912.492l-.48-.864c.328-.264.72-.464 1.176-.6.456-.144.94-.216 1.452-.216zm-.264 5.604c.44 0 .82-.096 1.14-.288.32-.2.552-.48.696-.84v-.888h-1.776c-.976 0-1.464.328-1.464.984 0 .32.124.572.372.756.248.184.592.276 1.032.276zm5.12-5.544h1.152V248h-1.152v-6.36zm.576-1.224a.789.789 0 0 1-.564-.216.718.718 0 0 1-.216-.528c0-.208.072-.384.216-.528a.766.766 0 0 1 .564-.228c.224 0 .408.072.552.216a.662.662 0 0 1 .228.516c0 .216-.076.4-.228.552a.748.748 0 0 1-.552.216zm6.171 1.164c.808 0 1.448.236 1.92.708.48.464.72 1.148.72 2.052V248h-1.152v-3.528c0-.616-.148-1.08-.444-1.392-.296-.312-.72-.468-1.272-.468-.624 0-1.116.184-1.476.552-.36.36-.54.88-.54 1.56V248h-1.152v-6.36h1.104v.96c.232-.328.544-.58.936-.756.4-.176.852-.264 1.356-.264zm8.163-1.98h1.2v8.4h-1.2v-8.4zm11.503 1.98c.8 0 1.432.232 1.896.696.472.464.708 1.152.708 2.064V248h-1.152v-3.528c0-.616-.144-1.08-.432-1.392-.28-.312-.684-.468-1.212-.468-.584 0-1.048.184-1.392.552-.344.36-.516.88-.516 1.56V248h-1.152v-3.528c0-.616-.144-1.08-.432-1.392-.28-.312-.684-.468-1.212-.468-.584 0-1.048.184-1.392.552-.344.36-.516.88-.516 1.56V248h-1.152v-6.36h1.104v.948c.232-.328.536-.576.912-.744a2.995 2.995 0 0 1 1.284-.264c.496 0 .936.1 1.32.3.384.2.68.492.888.876.24-.368.572-.656.996-.864a3.304 3.304 0 0 1 1.452-.312zm7.04 0c.88 0 1.552.216 2.016.648.472.432.708 1.076.708 1.932V248h-1.092v-.84a1.853 1.853 0 0 1-.828.684c-.352.152-.772.228-1.26.228-.712 0-1.284-.172-1.716-.516-.424-.344-.636-.796-.636-1.356s.204-1.008.612-1.344c.408-.344 1.056-.516 1.944-.516h1.824v-.228c0-.496-.144-.876-.432-1.14-.288-.264-.712-.396-1.272-.396-.376 0-.744.064-1.104.192a2.76 2.76 0 0 0-.912.492l-.48-.864c.328-.264.72-.464 1.176-.6.456-.144.94-.216 1.452-.216zm-.264 5.604c.44 0 .82-.096 1.14-.288.32-.2.552-.48.696-.84v-.888h-1.776c-.976 0-1.464.328-1.464.984 0 .32.124.572.372.756.248.184.592.276 1.032.276zm11.239-5.544v5.496c0 1.112-.276 1.932-.828 2.46-.552.536-1.376.804-2.472.804-.6 0-1.172-.084-1.716-.252-.544-.16-.984-.392-1.32-.696l.552-.888c.296.256.66.456 1.092.6.44.152.892.228 1.356.228.744 0 1.292-.176 1.644-.528.36-.352.54-.888.54-1.608v-.504a2.594 2.594 0 0 1-1.008.744c-.392.16-.82.24-1.284.24-.608 0-1.16-.128-1.656-.384a2.968 2.968 0 0 1-1.152-1.092 3.091 3.091 0 0 1-.42-1.608c0-.6.14-1.132.42-1.596.28-.472.664-.836 1.152-1.092a3.557 3.557 0 0 1 1.656-.384c.48 0 .924.088 1.332.264.416.176.756.436 1.02.78v-.984h1.092zm-3.312 5.088c.416 0 .788-.088 1.116-.264.336-.176.596-.42.78-.732.192-.32.288-.68.288-1.08 0-.616-.204-1.112-.612-1.488-.408-.384-.932-.576-1.572-.576-.648 0-1.176.192-1.584.576-.408.376-.612.872-.612 1.488 0 .4.092.76.276 1.08.192.312.452.556.78.732a2.42 2.42 0 0 0 1.14.264zm11.261-1.872c0 .088-.008.204-.024.348h-5.16c.072.56.316 1.012.732 1.356.424.336.948.504 1.572.504.76 0 1.372-.256 1.836-.768l.636.744a2.777 2.777 0 0 1-1.08.768c-.424.176-.9.264-1.428.264-.672 0-1.268-.136-1.788-.408a3.033 3.033 0 0 1-1.212-1.164 3.357 3.357 0 0 1-.42-1.68c0-.616.136-1.172.408-1.668.28-.496.66-.88 1.14-1.152a3.244 3.244 0 0 1 1.644-.42c.608 0 1.148.14 1.62.42.48.272.852.656 1.116 1.152.272.496.408 1.064.408 1.704zm-3.144-2.304c-.552 0-1.016.168-1.392.504-.368.336-.584.776-.648 1.32h4.08c-.064-.536-.284-.972-.66-1.308-.368-.344-.828-.516-1.38-.516z"/><rect width="109.5" height="31.5" x="195.25" y="228.25" fill="#F3F3F8" stroke="#8187B2" stroke-width=".5" rx="4.75"/><path fill="#62699F" d="M286 249l-3-4h6l-3 4zm0-10l3 4h-6l3-4zm-68.388 6.9h-4.464l-.924 2.1h-1.236l3.804-8.4h1.188l3.816 8.4h-1.26l-.924-2.1zm-.42-.96l-1.812-4.116-1.812 4.116h3.624zm7.206 2.688a1.79 1.79 0 0 1-.624.336 2.74 2.74 0 0 1-.768.108c-.64 0-1.136-.172-1.488-.516-.352-.344-.528-.836-.528-1.476v-3.492h-1.08v-.948h1.08v-1.392h1.152v1.392h1.824v.948h-1.824v3.444c0 .344.084.608.252.792.176.184.424.276.744.276.352 0 .652-.1.9-.3l.36.828zm4.817 0a1.79 1.79 0 0 1-.624.336 2.74 2.74 0 0 1-.768.108c-.64 0-1.136-.172-1.488-.516-.352-.344-.528-.836-.528-1.476v-3.492h-1.08v-.948h1.08v-1.392h1.152v1.392h1.824v.948h-1.824v3.444c0 .344.084.608.252.792.176.184.424.276.744.276.352 0 .652-.1.9-.3l.36.828zm2.497-4.92c.2-.368.496-.648.888-.84.392-.192.868-.288 1.428-.288v1.116a2.249 2.249 0 0 0-.264-.012c-.624 0-1.116.188-1.476.564-.352.368-.528.896-.528 1.584V248h-1.152v-6.36h1.104v1.068zm3.735-1.068h1.152V248h-1.152v-6.36zm.576-1.224a.789.789 0 0 1-.564-.216.718.718 0 0 1-.216-.528c0-.208.072-.384.216-.528a.766.766 0 0 1 .564-.228c.224 0 .408.072.552.216a.662.662 0 0 1 .228.516c0 .216-.076.4-.228.552a.748.748 0 0 1-.552.216zm6.148 1.164c.616 0 1.168.136 1.656.408.488.272.868.652 1.14 1.14.28.488.42 1.052.42 1.692 0 .64-.14 1.208-.42 1.704a2.894 2.894 0 0 1-1.14 1.14 3.343 3.343 0 0 1-1.656.408c-.472 0-.904-.092-1.296-.276a2.495 2.495 0 0 1-.972-.804V248h-1.104v-8.904h1.152v3.504c.256-.336.576-.588.96-.756a2.988 2.988 0 0 1 1.26-.264zm-.096 5.484a2.15 2.15 0 0 0 1.092-.276 2.03 2.03 0 0 0 .768-.792c.192-.344.288-.736.288-1.176 0-.44-.096-.828-.288-1.164a1.93 1.93 0 0 0-.768-.792 2.15 2.15 0 0 0-1.092-.276c-.4 0-.764.092-1.092.276a1.93 1.93 0 0 0-.768.792 2.385 2.385 0 0 0-.276 1.164c0 .44.092.832.276 1.176.184.336.44.6.768.792.328.184.692.276 1.092.276zm10.832-5.424V248h-1.092v-.96c-.232.328-.54.584-.924.768a2.879 2.879 0 0 1-1.236.264c-.848 0-1.516-.232-2.004-.696-.488-.472-.732-1.164-.732-2.076v-3.66h1.152v3.528c0 .616.148 1.084.444 1.404.296.312.72.468 1.272.468.608 0 1.088-.184 1.44-.552.352-.368.528-.888.528-1.56v-3.288h1.152zm5.769 5.988a1.79 1.79 0 0 1-.624.336 2.74 2.74 0 0 1-.768.108c-.64 0-1.136-.172-1.488-.516-.352-.344-.528-.836-.528-1.476v-3.492h-1.08v-.948h1.08v-1.392h1.152v1.392h1.824v.948h-1.824v3.444c0 .344.084.608.252.792.176.184.424.276.744.276.352 0 .652-.1.9-.3l.36.828zm6.93-2.772c0 .088-.008.204-.024.348h-5.16c.072.56.316 1.012.732 1.356.424.336.948.504 1.572.504.76 0 1.372-.256 1.836-.768l.636.744a2.777 2.777 0 0 1-1.08.768c-.424.176-.9.264-1.428.264-.672 0-1.268-.136-1.788-.408a3.033 3.033 0 0 1-1.212-1.164 3.357 3.357 0 0 1-.42-1.68c0-.616.136-1.172.408-1.668.28-.496.66-.88 1.14-1.152a3.244 3.244 0 0 1 1.644-.42c.608 0 1.148.14 1.62.42.48.272.852.656 1.116 1.152.272.496.408 1.064.408 1.704zm-3.144-2.304c-.552 0-1.016.168-1.392.504-.368.336-.584.776-.648 1.32h4.08c-.064-.536-.284-.972-.66-1.308-.368-.344-.828-.516-1.38-.516z"/><path fill="#CFD1DB" d="M40 88h406v2H40zm0 3h406v1H40z"/><path fill="#6577AA" d="M45.016 75.292c-.84 0-1.6-.184-2.28-.552a4.175 4.175 0 0 1-1.584-1.536c-.384-.656-.576-1.392-.576-2.208 0-.816.192-1.548.576-2.196a4.04 4.04 0 0 1 1.596-1.536c.68-.376 1.44-.564 2.28-.564.656 0 1.256.112 1.8.336.544.216 1.008.54 1.392.972l-.78.756c-.632-.664-1.42-.996-2.364-.996-.624 0-1.188.14-1.692.42-.504.28-.9.668-1.188 1.164a3.244 3.244 0 0 0-.42 1.644c0 .608.14 1.16.42 1.656.288.488.684.872 1.188 1.152.504.28 1.068.42 1.692.42.936 0 1.724-.336 2.364-1.008l.78.756c-.384.432-.852.76-1.404.984a4.684 4.684 0 0 1-1.8.336zm10.477-6.456v6.36H54.4v-.96c-.232.328-.54.584-.924.768a2.879 2.879 0 0 1-1.236.264c-.848 0-1.516-.232-2.004-.696-.488-.472-.732-1.164-.732-2.076v-3.66h1.152v3.528c0 .616.148 1.084.444 1.404.296.312.72.468 1.272.468.608 0 1.088-.184 1.44-.552.352-.368.528-.888.528-1.56v-3.288h1.152zm4.017 6.432c-.52 0-1.02-.068-1.5-.204-.48-.144-.856-.324-1.128-.54l.48-.912c.28.2.62.36 1.02.48s.804.18 1.212.18c1.008 0 1.512-.288 1.512-.864a.56.56 0 0 0-.204-.456 1.235 1.235 0 0 0-.516-.24 9.055 9.055 0 0 0-.864-.18 8.75 8.75 0 0 1-1.26-.276 1.937 1.937 0 0 1-.828-.528c-.232-.248-.348-.596-.348-1.044 0-.576.24-1.036.72-1.38.48-.352 1.124-.528 1.932-.528.424 0 .848.052 1.272.156.424.104.772.244 1.044.42l-.492.912c-.52-.336-1.132-.504-1.836-.504-.488 0-.86.08-1.116.24-.256.16-.384.372-.384.636 0 .208.072.372.216.492.144.12.32.208.528.264.216.056.516.12.9.192.512.088.924.184 1.236.288.32.096.592.264.816.504.224.24.336.576.336 1.008 0 .576-.248 1.036-.744 1.38-.488.336-1.156.504-2.004.504zm7.764-.444a1.79 1.79 0 0 1-.624.336 2.74 2.74 0 0 1-.769.108c-.64 0-1.135-.172-1.487-.516-.353-.344-.529-.836-.529-1.476v-3.492h-1.08v-.948h1.08v-1.392h1.152v1.392h1.825v.948h-1.825v3.444c0 .344.085.608.252.792.176.184.424.276.744.276.352 0 .652-.1.9-.3l.36.828zm3.905.444c-.632 0-1.2-.14-1.704-.42-.504-.28-.9-.664-1.188-1.152a3.357 3.357 0 0 1-.42-1.68c0-.624.14-1.18.42-1.668.288-.496.684-.88 1.188-1.152a3.449 3.449 0 0 1 1.704-.42c.632 0 1.196.14 1.692.42.504.272.896.656 1.176 1.152.288.488.432 1.044.432 1.668 0 .624-.144 1.184-.432 1.68-.28.488-.672.872-1.176 1.152-.496.28-1.06.42-1.692.42zm0-1.008a2.15 2.15 0 0 0 1.092-.276 2.03 2.03 0 0 0 .768-.792c.184-.344.276-.736.276-1.176 0-.44-.092-.828-.276-1.164a1.93 1.93 0 0 0-.768-.792 2.15 2.15 0 0 0-1.092-.276c-.408 0-.776.092-1.104.276-.32.184-.576.448-.768.792a2.385 2.385 0 0 0-.276 1.164c0 .44.092.832.276 1.176.192.336.448.6.768.792.328.184.696.276 1.104.276zm12.85-5.484c.8 0 1.431.232 1.895.696.472.464.708 1.152.708 2.064v3.66h-1.151v-3.528c0-.616-.144-1.08-.432-1.392-.28-.312-.684-.468-1.213-.468-.584 0-1.047.184-1.391.552-.344.36-.516.88-.516 1.56v3.276h-1.153v-3.528c0-.616-.144-1.08-.431-1.392-.28-.312-.684-.468-1.213-.468-.584 0-1.047.184-1.392.552-.343.36-.515.88-.515 1.56v3.276h-1.152v-6.36h1.104v.948c.231-.328.535-.576.911-.744a2.995 2.995 0 0 1 1.285-.264c.495 0 .935.1 1.32.3.383.2.68.492.888.876.24-.368.572-.656.995-.864a3.304 3.304 0 0 1 1.453-.312zm16.688 4.32h-4.463l-.925 2.1h-1.235l3.803-8.4h1.188l3.816 8.4h-1.26l-.924-2.1zm-.42-.96l-1.811-4.116-1.813 4.116h3.624zm7.207 2.688a1.79 1.79 0 0 1-.624.336 2.74 2.74 0 0 1-.768.108c-.64 0-1.136-.172-1.488-.516-.352-.344-.528-.836-.528-1.476v-3.492h-1.08v-.948h1.08v-1.392h1.152v1.392h1.824v.948h-1.824v3.444c0 .344.084.608.252.792.176.184.424.276.744.276.352 0 .652-.1.9-.3l.36.828zm4.816 0a1.79 1.79 0 0 1-.624.336 2.74 2.74 0 0 1-.768.108c-.64 0-1.136-.172-1.488-.516-.352-.344-.528-.836-.528-1.476v-3.492h-1.08v-.948h1.08v-1.392h1.152v1.392h1.824v.948h-1.824v3.444c0 .344.084.608.252.792.176.184.424.276.744.276.352 0 .652-.1.9-.3l.36.828zm2.497-4.92c.2-.368.496-.648.888-.84.392-.192.868-.288 1.428-.288v1.116a2.249 2.249 0 0 0-.264-.012c-.624 0-1.116.188-1.476.564-.352.368-.528.896-.528 1.584v3.168h-1.152v-6.36h1.104v1.068zm3.736-1.068h1.152v6.36h-1.152v-6.36zm.576-1.224a.789.789 0 0 1-.564-.216.718.718 0 0 1-.216-.528c0-.208.072-.384.216-.528a.766.766 0 0 1 .564-.228c.224 0 .408.072.552.216a.662.662 0 0 1 .228.516c0 .216-.076.4-.228.552a.748.748 0 0 1-.552.216zm6.148 1.164c.616 0 1.168.136 1.656.408.488.272.868.652 1.14 1.14.28.488.42 1.052.42 1.692 0 .64-.14 1.208-.42 1.704a2.894 2.894 0 0 1-1.14 1.14 3.343 3.343 0 0 1-1.656.408 3.02 3.02 0 0 1-1.297-.276 2.499 2.499 0 0 1-.971-.804v1.008h-1.104v-8.904h1.152v3.504c.256-.336.576-.588.96-.756a2.988 2.988 0 0 1 1.26-.264zm-.096 5.484a2.15 2.15 0 0 0 1.092-.276 2.03 2.03 0 0 0 .768-.792c.192-.344.288-.736.288-1.176 0-.44-.096-.828-.288-1.164a1.93 1.93 0 0 0-.768-.792 2.15 2.15 0 0 0-1.092-.276c-.4 0-.764.092-1.092.276a1.93 1.93 0 0 0-.768.792 2.385 2.385 0 0 0-.276 1.164c0 .44.092.832.276 1.176.184.336.44.6.768.792.328.184.692.276 1.092.276zm10.831-5.424v6.36h-1.092v-.96c-.232.328-.54.584-.924.768a2.879 2.879 0 0 1-1.236.264c-.848 0-1.516-.232-2.004-.696-.488-.472-.732-1.164-.732-2.076v-3.66h1.152v3.528c0 .616.148 1.084.444 1.404.296.312.72.468 1.272.468.608 0 1.088-.184 1.44-.552.352-.368.528-.888.528-1.56v-3.288h1.152zm5.769 5.988a1.79 1.79 0 0 1-.624.336 2.74 2.74 0 0 1-.768.108c-.64 0-1.136-.172-1.488-.516-.352-.344-.528-.836-.528-1.476v-3.492h-1.08v-.948h1.08v-1.392h1.152v1.392h1.824v.948h-1.824v3.444c0 .344.084.608.252.792.176.184.424.276.744.276.352 0 .652-.1.9-.3l.36.828zm6.93-2.772c0 .088-.008.204-.024.348h-5.16c.072.56.316 1.012.732 1.356.424.336.948.504 1.572.504.76 0 1.372-.256 1.836-.768l.636.744a2.777 2.777 0 0 1-1.08.768c-.424.176-.9.264-1.428.264-.672 0-1.268-.136-1.788-.408a3.033 3.033 0 0 1-1.212-1.164 3.357 3.357 0 0 1-.42-1.68c0-.616.136-1.172.408-1.668.28-.496.66-.88 1.14-1.152a3.244 3.244 0 0 1 1.644-.42c.608 0 1.148.14 1.62.42.48.272.852.656 1.116 1.152.272.496.408 1.064.408 1.704zm-3.144-2.304c-.552 0-1.016.168-1.392.504-.368.336-.584.776-.648 1.32h4.08c-.064-.536-.284-.972-.66-1.308-.368-.344-.828-.516-1.38-.516zm52.361-1.908h-2.88v-1.044h6.948v1.044h-2.88v7.356h-1.188V67.84zm10.437.996l-3.084 6.996c-.272.648-.592 1.104-.96 1.368-.36.264-.796.396-1.308.396-.312 0-.616-.052-.912-.156a1.807 1.807 0 0 1-.72-.432l.492-.864c.328.312.708.468 1.14.468.28 0 .512-.076.696-.228.192-.144.364-.396.516-.756l.204-.444-2.808-6.348h1.2l2.22 5.088 2.196-5.088h1.128zm4.447-.06c.616 0 1.168.136 1.656.408.488.272.868.652 1.14 1.14.28.488.42 1.052.42 1.692 0 .64-.14 1.208-.42 1.704a2.894 2.894 0 0 1-1.14 1.14 3.343 3.343 0 0 1-1.656.408c-.456 0-.876-.088-1.26-.264a2.621 2.621 0 0 1-.96-.768v3.288h-1.152v-8.688h1.104v1.008c.256-.352.58-.616.972-.792a3.012 3.012 0 0 1 1.296-.276zm-.096 5.484a2.15 2.15 0 0 0 1.092-.276 2.03 2.03 0 0 0 .768-.792c.192-.344.288-.736.288-1.176 0-.44-.096-.828-.288-1.164a1.93 1.93 0 0 0-.768-.792 2.15 2.15 0 0 0-1.092-.276c-.4 0-.764.096-1.092.288-.32.184-.576.444-.768.78a2.385 2.385 0 0 0-.276 1.164c0 .44.092.832.276 1.176.184.336.44.6.768.792.328.184.692.276 1.092.276zm10.651-2.208c0 .088-.008.204-.024.348h-5.16c.072.56.316 1.012.732 1.356.424.336.948.504 1.572.504.76 0 1.372-.256 1.836-.768l.636.744a2.777 2.777 0 0 1-1.08.768c-.424.176-.9.264-1.428.264-.672 0-1.268-.136-1.788-.408a3.033 3.033 0 0 1-1.212-1.164 3.357 3.357 0 0 1-.42-1.68c0-.616.136-1.172.408-1.668.28-.496.66-.88 1.14-1.152a3.244 3.244 0 0 1 1.644-.42c.608 0 1.148.14 1.62.42.48.272.852.656 1.116 1.152.272.496.408 1.064.408 1.704zm-3.144-2.304c-.552 0-1.016.168-1.392.504-.368.336-.584.776-.648 1.32h4.08c-.064-.536-.284-.972-.66-1.308-.368-.344-.828-.516-1.38-.516zM323.242 66.6l-3.684 8.4h-1.188l-3.696-8.4h1.296l3.024 6.9 3.048-6.9h1.2zm2.739 1.98c.88 0 1.552.216 2.016.648.472.432.708 1.076.708 1.932V75h-1.092v-.84a1.853 1.853 0 0 1-.828.684c-.352.152-.772.228-1.26.228-.712 0-1.284-.172-1.716-.516-.424-.344-.636-.796-.636-1.356s.204-1.008.612-1.344c.408-.344 1.056-.516 1.944-.516h1.824v-.228c0-.496-.144-.876-.432-1.14-.288-.264-.712-.396-1.272-.396-.376 0-.744.064-1.104.192a2.76 2.76 0 0 0-.912.492l-.48-.864c.328-.264.72-.464 1.176-.6.456-.144.94-.216 1.452-.216zm-.264 5.604c.44 0 .82-.096 1.14-.288.32-.2.552-.48.696-.84v-.888h-1.776c-.976 0-1.464.328-1.464.984 0 .32.124.572.372.756.248.184.592.276 1.032.276zm5.12-8.088h1.152V75h-1.152v-8.904zm9.279 2.544V75h-1.092v-.96c-.232.328-.54.584-.924.768a2.879 2.879 0 0 1-1.236.264c-.848 0-1.516-.232-2.004-.696-.488-.472-.732-1.164-.732-2.076v-3.66h1.152v3.528c0 .616.148 1.084.444 1.404.296.312.72.468 1.272.468.608 0 1.088-.184 1.44-.552.352-.368.528-.888.528-1.56V68.64h1.152zm7.942 3.216c0 .088-.008.204-.024.348h-5.16c.072.56.316 1.012.732 1.356.424.336.948.504 1.572.504.76 0 1.372-.256 1.836-.768l.636.744a2.777 2.777 0 0 1-1.08.768c-.424.176-.9.264-1.428.264-.672 0-1.268-.136-1.788-.408a3.033 3.033 0 0 1-1.212-1.164 3.357 3.357 0 0 1-.42-1.68c0-.616.136-1.172.408-1.668.28-.496.66-.88 1.14-1.152a3.244 3.244 0 0 1 1.644-.42c.608 0 1.148.14 1.62.42.48.272.852.656 1.116 1.152.272.496.408 1.064.408 1.704zm-3.144-2.304c-.552 0-1.016.168-1.392.504-.368.336-.584.776-.648 1.32h4.08c-.064-.536-.284-.972-.66-1.308-.368-.344-.828-.516-1.38-.516z"/><path fill="#E8E9F1" d="M0 10C0 4.477 4.477 0 10 0h466c5.523 0 10 4.477 10 10v28H0V10z"/><path stroke="#EB5757" d="M51.405 19.57c0 3.047-2.418 5.5-5.379 5.5-2.96 0-5.378-2.453-5.378-5.5 0-3.048 2.417-5.5 5.378-5.5 2.961 0 5.38 2.452 5.38 5.5z"/><path stroke="#F2994A" d="M67.254 19.57c0 3.047-2.418 5.5-5.379 5.5-2.96 0-5.379-2.453-5.379-5.5 0-3.048 2.418-5.5 5.38-5.5 2.96 0 5.378 2.452 5.378 5.5z"/><path stroke="#219653" d="M83.102 19.57c0 3.047-2.417 5.5-5.378 5.5-2.961 0-5.379-2.453-5.379-5.5 0-3.048 2.418-5.5 5.379-5.5 2.96 0 5.378 2.452 5.378 5.5z"/><rect width="177" height="18" x="154" y="10" fill="#fff" rx="9"/><path fill="#8492BB" d="M189.131 23.096c-.84 0-1.6-.184-2.28-.552a4.175 4.175 0 0 1-1.584-1.536c-.384-.656-.576-1.392-.576-2.208 0-.816.192-1.548.576-2.196a4.04 4.04 0 0 1 1.596-1.536c.68-.376 1.44-.564 2.28-.564.656 0 1.256.112 1.8.336.544.216 1.008.54 1.392.972l-.78.756c-.632-.664-1.42-.996-2.364-.996-.624 0-1.188.14-1.692.42-.504.28-.9.668-1.188 1.164a3.244 3.244 0 0 0-.42 1.644c0 .608.14 1.16.42 1.656.288.488.684.872 1.188 1.152.504.28 1.068.42 1.692.42.936 0 1.724-.336 2.364-1.008l.78.756c-.384.432-.852.76-1.404.984a4.684 4.684 0 0 1-1.8.336zm10.477-6.456V23h-1.092v-.96c-.232.328-.54.584-.924.768a2.879 2.879 0 0 1-1.236.264c-.848 0-1.516-.232-2.004-.696-.488-.472-.732-1.164-.732-2.076v-3.66h1.152v3.528c0 .616.148 1.084.444 1.404.296.312.72.468 1.272.468.608 0 1.088-.184 1.44-.552.352-.368.528-.888.528-1.56V16.64h1.152zm4.017 6.432c-.52 0-1.02-.068-1.5-.204-.48-.144-.856-.324-1.128-.54l.48-.912c.28.2.62.36 1.02.48s.804.18 1.212.18c1.008 0 1.512-.288 1.512-.864a.56.56 0 0 0-.204-.456 1.235 1.235 0 0 0-.516-.24 9.055 9.055 0 0 0-.864-.18 8.75 8.75 0 0 1-1.26-.276 1.937 1.937 0 0 1-.828-.528c-.232-.248-.348-.596-.348-1.044 0-.576.24-1.036.72-1.38.48-.352 1.124-.528 1.932-.528.424 0 .848.052 1.272.156.424.104.772.244 1.044.42l-.492.912c-.52-.336-1.132-.504-1.836-.504-.488 0-.86.08-1.116.24-.256.16-.384.372-.384.636 0 .208.072.372.216.492.144.12.32.208.528.264.216.056.516.12.9.192.512.088.924.184 1.236.288.32.096.592.264.816.504.224.24.336.576.336 1.008 0 .576-.248 1.036-.744 1.38-.488.336-1.156.504-2.004.504zm7.764-.444a1.79 1.79 0 0 1-.624.336 2.74 2.74 0 0 1-.768.108c-.64 0-1.136-.172-1.488-.516-.352-.344-.528-.836-.528-1.476v-3.492h-1.08v-.948h1.08v-1.392h1.152v1.392h1.824v.948h-1.824v3.444c0 .344.084.608.252.792.176.184.424.276.744.276.352 0 .652-.1.9-.3l.36.828zm3.906.444c-.632 0-1.2-.14-1.704-.42-.504-.28-.9-.664-1.188-1.152a3.357 3.357 0 0 1-.42-1.68c0-.624.14-1.18.42-1.668.288-.496.684-.88 1.188-1.152a3.449 3.449 0 0 1 1.704-.42c.632 0 1.196.14 1.692.42.504.272.896.656 1.176 1.152.288.488.432 1.044.432 1.668 0 .624-.144 1.184-.432 1.68-.28.488-.672.872-1.176 1.152-.496.28-1.06.42-1.692.42zm0-1.008a2.15 2.15 0 0 0 1.092-.276 2.03 2.03 0 0 0 .768-.792c.184-.344.276-.736.276-1.176 0-.44-.092-.828-.276-1.164a1.93 1.93 0 0 0-.768-.792 2.15 2.15 0 0 0-1.092-.276c-.408 0-.776.092-1.104.276-.32.184-.576.448-.768.792a2.385 2.385 0 0 0-.276 1.164c0 .44.092.832.276 1.176.192.336.448.6.768.792.328.184.696.276 1.104.276zm12.849-5.484c.8 0 1.432.232 1.896.696.472.464.708 1.152.708 2.064V23h-1.152v-3.528c0-.616-.144-1.08-.432-1.392-.28-.312-.684-.468-1.212-.468-.584 0-1.048.184-1.392.552-.344.36-.516.88-.516 1.56V23h-1.152v-3.528c0-.616-.144-1.08-.432-1.392-.28-.312-.684-.468-1.212-.468-.584 0-1.048.184-1.392.552-.344.36-.516.88-.516 1.56V23h-1.152v-6.36h1.104v.948c.232-.328.536-.576.912-.744a2.995 2.995 0 0 1 1.284-.264c.496 0 .936.1 1.32.3.384.2.68.492.888.876.24-.368.572-.656.996-.864a3.304 3.304 0 0 1 1.452-.312zm9.782-.936h-2.88V14.6h6.948v1.044h-2.88V23h-1.188v-7.356zm10.299 4.212c0 .088-.008.204-.024.348h-5.16c.072.56.316 1.012.732 1.356.424.336.948.504 1.572.504.76 0 1.372-.256 1.836-.768l.636.744a2.777 2.777 0 0 1-1.08.768c-.424.176-.9.264-1.428.264-.672 0-1.268-.136-1.788-.408a3.033 3.033 0 0 1-1.212-1.164 3.357 3.357 0 0 1-.42-1.68c0-.616.136-1.172.408-1.668.28-.496.66-.88 1.14-1.152a3.244 3.244 0 0 1 1.644-.42c.608 0 1.148.14 1.62.42.48.272.852.656 1.116 1.152.272.496.408 1.064.408 1.704zm-3.144-2.304c-.552 0-1.016.168-1.392.504-.368.336-.584.776-.648 1.32h4.08c-.064-.536-.284-.972-.66-1.308-.368-.344-.828-.516-1.38-.516zm12.699-.972c.8 0 1.432.232 1.896.696.472.464.708 1.152.708 2.064V23h-1.152v-3.528c0-.616-.144-1.08-.432-1.392-.28-.312-.684-.468-1.212-.468-.584 0-1.048.184-1.392.552-.344.36-.516.88-.516 1.56V23h-1.152v-3.528c0-.616-.144-1.08-.432-1.392-.28-.312-.684-.468-1.212-.468-.584 0-1.048.184-1.392.552-.344.36-.516.88-.516 1.56V23h-1.152v-6.36h1.104v.948c.232-.328.536-.576.912-.744a2.995 2.995 0 0 1 1.284-.264c.496 0 .936.1 1.32.3.384.2.68.492.888.876.24-.368.572-.656.996-.864a3.304 3.304 0 0 1 1.452-.312zm8.096 0c.616 0 1.168.136 1.656.408.488.272.868.652 1.14 1.14.28.488.42 1.052.42 1.692 0 .64-.14 1.208-.42 1.704a2.894 2.894 0 0 1-1.14 1.14 3.343 3.343 0 0 1-1.656.408c-.456 0-.876-.088-1.26-.264a2.621 2.621 0 0 1-.96-.768v3.288h-1.152V16.64h1.104v1.008c.256-.352.58-.616.972-.792a3.012 3.012 0 0 1 1.296-.276zm-.096 5.484a2.15 2.15 0 0 0 1.092-.276 2.03 2.03 0 0 0 .768-.792c.192-.344.288-.736.288-1.176 0-.44-.096-.828-.288-1.164a1.93 1.93 0 0 0-.768-.792 2.15 2.15 0 0 0-1.092-.276c-.4 0-.764.096-1.092.288-.32.184-.576.444-.768.78a2.385 2.385 0 0 0-.276 1.164c0 .44.092.832.276 1.176.184.336.44.6.768.792.328.184.692.276 1.092.276zm4.904-7.968h1.152V23h-1.152v-8.904zm5.667 2.484c.88 0 1.552.216 2.016.648.472.432.708 1.076.708 1.932V23h-1.092v-.84a1.853 1.853 0 0 1-.828.684c-.352.152-.772.228-1.26.228-.712 0-1.284-.172-1.716-.516-.424-.344-.636-.796-.636-1.356s.204-1.008.612-1.344c.408-.344 1.056-.516 1.944-.516h1.824v-.228c0-.496-.144-.876-.432-1.14-.288-.264-.712-.396-1.272-.396-.376 0-.744.064-1.104.192a2.76 2.76 0 0 0-.912.492l-.48-.864c.328-.264.72-.464 1.176-.6.456-.144.94-.216 1.452-.216zm-.264 5.604c.44 0 .82-.096 1.14-.288.32-.2.552-.48.696-.84v-.888h-1.776c-.976 0-1.464.328-1.464.984 0 .32.124.572.372.756.248.184.592.276 1.032.276zm8.696.444a1.79 1.79 0 0 1-.624.336 2.74 2.74 0 0 1-.768.108c-.64 0-1.136-.172-1.488-.516-.352-.344-.528-.836-.528-1.476v-3.492h-1.08v-.948h1.08v-1.392h1.152v1.392h1.824v.948h-1.824v3.444c0 .344.084.608.252.792.176.184.424.276.744.276.352 0 .652-.1.9-.3l.36.828zm6.93-2.772c0 .088-.008.204-.024.348h-5.16c.072.56.316 1.012.732 1.356.424.336.948.504 1.572.504.76 0 1.372-.256 1.836-.768l.636.744a2.777 2.777 0 0 1-1.08.768c-.424.176-.9.264-1.428.264-.672 0-1.268-.136-1.788-.408a3.033 3.033 0 0 1-1.212-1.164 3.357 3.357 0 0 1-.42-1.68c0-.616.136-1.172.408-1.668.28-.496.66-.88 1.14-1.152a3.244 3.244 0 0 1 1.644-.42c.608 0 1.148.14 1.62.42.48.272.852.656 1.116 1.152.272.496.408 1.064.408 1.704zm-3.144-2.304c-.552 0-1.016.168-1.392.504-.368.336-.584.776-.648 1.32h4.08c-.064-.536-.284-.972-.66-1.308-.368-.344-.828-.516-1.38-.516zm10.054-2.952V23h-1.188v-7.356h-1.896V14.6h3.084z"/></g><defs><clipPath id="a"><path fill="#fff" d="M0 0h16v16H0z" transform="translate(89 312)"/></clipPath></defs></svg>