<svg xmlns="http://www.w3.org/2000/svg" width="486" height="378" fill="none" viewBox="0 0 486 378"><g opacity=".8"><path fill="#F5F6F9" d="M0 10C0 4.477 4.477 0 10 0h466c5.523 0 10 4.477 10 10v358c0 5.523-4.477 10-10 10H10c-5.523 0-10-4.477-10-10V10z"/><rect width="119" height="32" x="30" y="141" fill="#62699F" rx="5"/><path fill="#fff" d="M49.708 161.096a5.914 5.914 0 0 1-1.836-.288c-.584-.2-1.044-.456-1.38-.768l.444-.936c.32.288.728.524 1.224.708.504.176 1.02.264 1.548.264.696 0 1.216-.116 1.56-.348.344-.24.516-.556.516-.948a.9.9 0 0 0-.288-.696 1.784 1.784 0 0 0-.696-.42c-.272-.096-.66-.204-1.164-.324a12.396 12.396 0 0 1-1.536-.456 2.616 2.616 0 0 1-.996-.696c-.272-.32-.408-.748-.408-1.284 0-.448.116-.852.348-1.212.24-.36.6-.648 1.08-.864.48-.216 1.076-.324 1.788-.324.496 0 .984.064 1.464.192s.892.312 1.236.552l-.396.96a4.199 4.199 0 0 0-1.128-.504 4.08 4.08 0 0 0-1.176-.18c-.68 0-1.192.124-1.536.372-.336.248-.504.568-.504.96 0 .288.096.524.288.708.192.176.428.316.708.42.288.096.676.2 1.164.312.632.152 1.14.304 1.524.456.384.152.712.384.984.696.28.312.42.732.42 1.26 0 .44-.12.844-.36 1.212-.24.36-.604.648-1.092.864-.488.208-1.088.312-1.8.312zm7.153-6.516c.88 0 1.552.216 2.016.648.472.432.708 1.076.708 1.932V161h-1.092v-.84a1.853 1.853 0 0 1-.828.684c-.352.152-.772.228-1.26.228-.712 0-1.284-.172-1.716-.516-.424-.344-.636-.796-.636-1.356s.204-1.008.612-1.344c.408-.344 1.056-.516 1.944-.516h1.824v-.228c0-.496-.144-.876-.432-1.14-.288-.264-.712-.396-1.272-.396-.376 0-.744.064-1.104.192a2.76 2.76 0 0 0-.912.492l-.48-.864c.328-.264.72-.464 1.176-.6.456-.144.94-.216 1.452-.216zm-.264 5.604c.44 0 .82-.096 1.14-.288.32-.2.552-.48.696-.84v-.888h-1.776c-.976 0-1.464.328-1.464.984 0 .32.124.572.372.756.248.184.592.276 1.032.276zm10.63-5.544L64.445 161h-1.176l-2.784-6.36h1.2l2.184 5.1 2.232-5.1h1.128zm6.648 3.216c0 .088-.008.204-.024.348h-5.16c.072.56.316 1.012.732 1.356.424.336.948.504 1.572.504.76 0 1.372-.256 1.836-.768l.636.744a2.777 2.777 0 0 1-1.08.768c-.424.176-.9.264-1.428.264-.672 0-1.268-.136-1.788-.408a3.033 3.033 0 0 1-1.212-1.164 3.357 3.357 0 0 1-.42-1.68c0-.616.136-1.172.408-1.668.28-.496.66-.88 1.14-1.152a3.244 3.244 0 0 1 1.644-.42c.608 0 1.148.14 1.62.42.48.272.852.656 1.116 1.152.272.496.408 1.064.408 1.704zm-3.144-2.304c-.552 0-1.016.168-1.392.504-.368.336-.584.776-.648 1.32h4.08c-.064-.536-.284-.972-.66-1.308-.368-.344-.828-.516-1.38-.516zm11.89 5.544c-.84 0-1.6-.184-2.28-.552a4.175 4.175 0 0 1-1.584-1.536c-.383-.656-.576-1.392-.576-2.208 0-.816.193-1.548.576-2.196a4.04 4.04 0 0 1 1.596-1.536c.68-.376 1.44-.564 2.28-.564.657 0 1.257.112 1.8.336.544.216 1.008.54 1.392.972l-.78.756c-.632-.664-1.42-.996-2.364-.996a3.42 3.42 0 0 0-1.691.42c-.504.28-.9.668-1.188 1.164a3.244 3.244 0 0 0-.42 1.644c0 .608.14 1.16.42 1.656.287.488.683.872 1.188 1.152.504.28 1.068.42 1.692.42.936 0 1.724-.336 2.364-1.008l.78.756c-.384.432-.852.76-1.404.984a4.684 4.684 0 0 1-1.8.336zm8.144-6.516c.808 0 1.448.236 1.92.708.48.464.72 1.148.72 2.052V161h-1.152v-3.528c0-.616-.148-1.08-.444-1.392-.296-.312-.72-.468-1.272-.468-.624 0-1.116.184-1.476.552-.36.36-.54.88-.54 1.56V161H87.37v-8.904h1.152v3.444c.24-.304.552-.54.936-.708a3.288 3.288 0 0 1 1.308-.252zm7.088 0c.88 0 1.552.216 2.016.648.472.432.708 1.076.708 1.932V161h-1.092v-.84a1.853 1.853 0 0 1-.828.684c-.352.152-.772.228-1.26.228-.712 0-1.284-.172-1.716-.516-.424-.344-.636-.796-.636-1.356s.204-1.008.612-1.344c.408-.344 1.056-.516 1.944-.516h1.824v-.228c0-.496-.144-.876-.432-1.14-.288-.264-.712-.396-1.272-.396-.376 0-.744.064-1.104.192a2.76 2.76 0 0 0-.912.492l-.48-.864c.328-.264.72-.464 1.176-.6.456-.144.94-.216 1.452-.216zm-.264 5.604c.44 0 .82-.096 1.14-.288.32-.2.552-.48.696-.84v-.888H97.65c-.976 0-1.464.328-1.464.984 0 .32.124.572.372.756.248.184.592.276 1.032.276zm8.516-5.604c.808 0 1.448.236 1.92.708.48.464.72 1.148.72 2.052V161h-1.152v-3.528c0-.616-.148-1.08-.444-1.392-.296-.312-.72-.468-1.272-.468-.624 0-1.116.184-1.476.552-.36.36-.54.88-.54 1.56V161h-1.152v-6.36h1.104v.96c.232-.328.544-.58.936-.756.4-.176.852-.264 1.356-.264zm10.891.06v5.496c0 1.112-.276 1.932-.828 2.46-.552.536-1.376.804-2.472.804-.6 0-1.172-.084-1.716-.252-.544-.16-.984-.392-1.32-.696l.552-.888c.296.256.66.456 1.092.6.44.152.892.228 1.356.228.744 0 1.292-.176 1.644-.528.36-.352.54-.888.54-1.608v-.504a2.594 2.594 0 0 1-1.008.744c-.392.16-.82.24-1.284.24-.608 0-1.16-.128-1.656-.384a2.968 2.968 0 0 1-1.152-1.092 3.091 3.091 0 0 1-.42-1.608c0-.6.14-1.132.42-1.596.28-.472.664-.836 1.152-1.092a3.557 3.557 0 0 1 1.656-.384c.48 0 .924.088 1.332.264.416.176.756.436 1.02.78v-.984h1.092zm-3.312 5.088c.416 0 .788-.088 1.116-.264.336-.176.596-.42.78-.732.192-.32.288-.68.288-1.08 0-.616-.204-1.112-.612-1.488-.408-.384-.932-.576-1.572-.576-.648 0-1.176.192-1.584.576-.408.376-.612.872-.612 1.488 0 .4.092.76.276 1.08.192.312.452.556.78.732a2.42 2.42 0 0 0 1.14.264zm11.261-1.872c0 .088-.008.204-.024.348h-5.16c.072.56.316 1.012.732 1.356.424.336.948.504 1.572.504.76 0 1.372-.256 1.836-.768l.636.744a2.777 2.777 0 0 1-1.08.768c-.424.176-.9.264-1.428.264-.672 0-1.268-.136-1.788-.408a3.033 3.033 0 0 1-1.212-1.164 3.357 3.357 0 0 1-.42-1.68c0-.616.136-1.172.408-1.668.28-.496.66-.88 1.14-1.152a3.244 3.244 0 0 1 1.644-.42c.608 0 1.148.14 1.62.42.48.272.852.656 1.116 1.152.272.496.408 1.064.408 1.704zm-3.144-2.304c-.552 0-1.016.168-1.392.504-.368.336-.584.776-.648 1.32h4.08c-.064-.536-.284-.972-.66-1.308-.368-.344-.828-.516-1.38-.516zm6.568 5.52c-.52 0-1.02-.068-1.5-.204-.48-.144-.856-.324-1.128-.54l.48-.912c.28.2.62.36 1.02.48s.804.18 1.212.18c1.008 0 1.512-.288 1.512-.864a.56.56 0 0 0-.204-.456 1.235 1.235 0 0 0-.516-.24 9.055 9.055 0 0 0-.864-.18 8.75 8.75 0 0 1-1.26-.276 1.937 1.937 0 0 1-.828-.528c-.232-.248-.348-.596-.348-1.044 0-.576.24-1.036.72-1.38.48-.352 1.124-.528 1.932-.528.424 0 .848.052 1.272.156.424.104.772.244 1.044.42l-.492.912c-.52-.336-1.132-.504-1.836-.504-.488 0-.86.08-1.116.24-.256.16-.384.372-.384.636 0 .208.072.372.216.492.144.12.32.208.528.264.216.056.516.12.9.192.512.088.924.184 1.236.288.32.096.592.264.816.504.224.24.336.576.336 1.008 0 .576-.248 1.036-.744 1.38-.488.336-1.156.504-2.004.504z"/><rect width="6" height="1" x="94.24" y="135.24" fill="#62699F" rx=".5" transform="rotate(-45 94.243 135.243)"/><rect width="6" height="1" x="89.24" y="126" fill="#62699F" rx=".5" transform="rotate(90 89.243 126)"/><rect width="6" height="1" x="83.24" y="135.95" fill="#62699F" rx=".5" transform="rotate(-135 83.243 135.95)"/><g clip-path="url(#a)"><path fill="#4B2E21" d="M90.309 183.17l.885-4.55c.208-1.07 1.244-2.105 2.315-2.311l3.875-.749c1.07-.207 1.144-.762.164-1.24l-12.577-6.127c-.98-.478-1.461-.038-1.075.981l5.337 14.087c.386 1.02.867.979 1.076-.091z"/></g><rect width="419" height="144" x="30" y="204" fill="#fff" rx="5"/><path fill="#8187B2" d="M55.241 242a.248.248 0 0 1-.153-.051.247.247 0 0 1-.051-.153v-11.492c0-.057.017-.102.051-.136a.213.213 0 0 1 .153-.068h4.25c.85 0 1.592.153 2.227.459.646.295 1.145.714 1.496 1.258s.527 1.173.527 1.887v4.692c0 .714-.176 1.343-.527 1.887-.351.544-.85.969-1.496 1.275-.635.295-1.377.442-2.227.442h-4.25zm2.193-2.142c0 .057.028.085.085.085h2.057c.521 0 .94-.176 1.258-.527.329-.351.499-.822.51-1.411v-3.91c0-.589-.164-1.06-.493-1.411-.317-.351-.748-.527-1.292-.527h-2.04c-.057 0-.085.028-.085.085v7.616zm15.694-3.128c.068.431.09.912.068 1.445-.011.136-.085.204-.221.204h-5.253c-.068 0-.09.028-.068.085.034.227.096.453.187.68.294.635.895.952 1.802.952.725-.011 1.297-.306 1.717-.884.045-.068.096-.102.153-.102.034 0 .073.023.119.068l1.224 1.207c.056.057.085.108.085.153 0 .023-.023.068-.068.136a3.782 3.782 0 0 1-1.445 1.088 4.93 4.93 0 0 1-1.938.374c-.975 0-1.802-.221-2.482-.663-.669-.442-1.15-1.06-1.445-1.853-.238-.567-.357-1.309-.357-2.227 0-.623.085-1.173.255-1.649.26-.805.714-1.445 1.36-1.921.657-.476 1.433-.714 2.329-.714 1.133 0 2.04.329 2.72.986.691.657 1.11 1.536 1.258 2.635zm-3.961-1.547c-.714 0-1.184.334-1.411 1.003a4.017 4.017 0 0 0-.12.544c0 .057.03.085.086.085h2.94c.069 0 .091-.028.069-.085a14.086 14.086 0 0 0-.085-.476 1.408 1.408 0 0 0-.544-.782c-.25-.193-.561-.289-.935-.289zm15.196-2.057c.884 0 1.575.266 2.074.799.499.533.748 1.281.748 2.244v5.627a.21.21 0 0 1-.068.153.184.184 0 0 1-.136.051h-1.989a.248.248 0 0 1-.153-.051.247.247 0 0 1-.05-.153v-5.1c0-.465-.12-.833-.358-1.105s-.555-.408-.952-.408c-.397 0-.72.136-.969.408-.25.272-.374.635-.374 1.088v5.117a.21.21 0 0 1-.068.153.184.184 0 0 1-.136.051H79.96a.248.248 0 0 1-.153-.051.247.247 0 0 1-.05-.153v-5.1c0-.453-.126-.816-.375-1.088a1.232 1.232 0 0 0-.969-.425c-.363 0-.669.108-.918.323-.238.215-.38.516-.425.901v5.389a.21.21 0 0 1-.068.153.184.184 0 0 1-.136.051h-1.989a.248.248 0 0 1-.153-.051.247.247 0 0 1-.05-.153v-8.33c0-.057.016-.102.05-.136a.213.213 0 0 1 .153-.068h1.99c.056 0 .101.023.135.068a.161.161 0 0 1 .068.136v.663c0 .034.011.057.034.068.023.011.045 0 .068-.034.465-.691 1.184-1.037 2.16-1.037.566 0 1.059.119 1.478.357.43.238.76.578.986 1.02.034.068.074.068.12 0 .248-.465.583-.81 1.002-1.037a3.05 3.05 0 0 1 1.445-.34zm8.314 9.01c-.952 0-1.768-.249-2.448-.748-.68-.499-1.145-1.179-1.394-2.04a6.052 6.052 0 0 1-.238-1.734c0-.669.079-1.269.238-1.802.26-.839.73-1.496 1.41-1.972.68-.476 1.497-.714 2.449-.714.929 0 1.722.238 2.38.714.657.465 1.122 1.116 1.394 1.955.18.567.272 1.162.272 1.785 0 .612-.08 1.184-.238 1.717-.25.884-.714 1.581-1.394 2.091-.67.499-1.48.748-2.431.748zm0-2.057c.374 0 .69-.113.952-.34.26-.227.447-.538.56-.935a4.9 4.9 0 0 0 .137-1.19c0-.476-.046-.878-.136-1.207-.125-.385-.318-.686-.578-.901a1.448 1.448 0 0 0-.952-.323c-.386 0-.709.108-.97.323-.249.215-.43.516-.543.901-.091.272-.136.674-.136 1.207 0 .51.04.907.119 1.19.113.397.3.708.56.935.273.227.601.34.987.34zm13.24 2.057c-.907 0-1.7-.142-2.38-.425-.68-.295-1.207-.708-1.581-1.241-.363-.544-.544-1.173-.544-1.887v-.374c0-.057.017-.102.051-.136a.212.212 0 0 1 .153-.068h1.938c.056 0 .102.023.136.068a.162.162 0 0 1 .068.136v.255c0 .453.209.839.629 1.156.419.306.986.459 1.7.459.6 0 1.048-.125 1.343-.374.294-.261.442-.578.442-.952a.923.923 0 0 0-.272-.68 2.208 2.208 0 0 0-.748-.493 18.234 18.234 0 0 0-1.479-.595 15.025 15.025 0 0 1-1.938-.799 4.008 4.008 0 0 1-1.326-1.105c-.352-.476-.527-1.06-.527-1.751 0-.68.175-1.275.527-1.785.351-.51.838-.901 1.462-1.173.623-.272 1.343-.408 2.159-.408.861 0 1.626.153 2.295.459.68.306 1.207.737 1.581 1.292.385.544.578 1.179.578 1.904v.255a.212.212 0 0 1-.068.153.185.185 0 0 1-.136.051h-1.955a.247.247 0 0 1-.153-.051.247.247 0 0 1-.051-.153v-.136c0-.476-.199-.878-.595-1.207-.386-.34-.918-.51-1.598-.51-.533 0-.952.113-1.258.34-.295.227-.442.538-.442.935 0 .283.085.521.255.714.181.193.442.368.782.527.351.147.889.351 1.615.612.804.295 1.433.555 1.887.782.464.227.878.567 1.241 1.02.374.442.561 1.02.561 1.734 0 1.065-.391 1.91-1.173 2.533-.782.612-1.842.918-3.179.918zm10.433-9.01c.907 0 1.638.278 2.193.833.555.555.833 1.309.833 2.261v5.576a.212.212 0 0 1-.068.153.183.183 0 0 1-.136.051h-1.989a.247.247 0 0 1-.153-.051.247.247 0 0 1-.051-.153v-5.083c0-.453-.13-.822-.391-1.105-.249-.283-.584-.425-1.003-.425-.419 0-.759.142-1.02.425-.249.283-.374.652-.374 1.105v5.083a.212.212 0 0 1-.068.153.183.183 0 0 1-.136.051h-1.989a.247.247 0 0 1-.153-.051.247.247 0 0 1-.051-.153v-11.492c0-.057.017-.102.051-.136a.212.212 0 0 1 .153-.068h1.989c.057 0 .102.023.136.068a.162.162 0 0 1 .068.136v3.757c0 .034.011.057.034.068.023.011.04.006.051-.017.465-.657 1.156-.986 2.074-.986zm8.55 9.01c-.952 0-1.768-.249-2.448-.748-.68-.499-1.144-1.179-1.394-2.04a6.077 6.077 0 0 1-.238-1.734c0-.669.08-1.269.238-1.802.261-.839.731-1.496 1.411-1.972s1.496-.714 2.448-.714c.93 0 1.723.238 2.38.714.658.465 1.122 1.116 1.394 1.955.182.567.272 1.162.272 1.785 0 .612-.079 1.184-.238 1.717-.249.884-.714 1.581-1.394 2.091-.668.499-1.479.748-2.431.748zm0-2.057c.374 0 .692-.113.952-.34.261-.227.448-.538.561-.935.091-.363.136-.759.136-1.19 0-.476-.045-.878-.136-1.207-.124-.385-.317-.686-.578-.901a1.446 1.446 0 0 0-.952-.323c-.385 0-.708.108-.969.323-.249.215-.43.516-.544.901-.09.272-.136.674-.136 1.207 0 .51.04.907.119 1.19.114.397.301.708.561.935.272.227.601.34.986.34zm13.339-3.349c.068.431.091.912.068 1.445-.011.136-.085.204-.221.204h-5.253c-.068 0-.091.028-.068.085.034.227.096.453.187.68.295.635.895.952 1.802.952.725-.011 1.298-.306 1.717-.884.045-.068.096-.102.153-.102.034 0 .074.023.119.068l1.224 1.207c.057.057.085.108.085.153 0 .023-.023.068-.068.136a3.784 3.784 0 0 1-1.445 1.088 4.927 4.927 0 0 1-1.938.374c-.975 0-1.802-.221-2.482-.663-.669-.442-1.15-1.06-1.445-1.853-.238-.567-.357-1.309-.357-2.227 0-.623.085-1.173.255-1.649.261-.805.714-1.445 1.36-1.921.657-.476 1.434-.714 2.329-.714 1.133 0 2.04.329 2.72.986.691.657 1.111 1.536 1.258 2.635zm-3.961-1.547c-.714 0-1.184.334-1.411 1.003a4.064 4.064 0 0 0-.119.544c0 .057.028.085.085.085h2.941c.068 0 .091-.028.068-.085a15.221 15.221 0 0 0-.085-.476 1.407 1.407 0 0 0-.544-.782c-.249-.193-.561-.289-.935-.289zm8.757 8.177a.212.212 0 0 1-.153-.068.183.183 0 0 1-.051-.136v-13.872c0-.057.017-.102.051-.136a.212.212 0 0 1 .153-.068h1.989c.056 0 .102.023.136.068a.162.162 0 0 1 .068.136v13.872a.162.162 0 0 1-.068.136.163.163 0 0 1-.136.068h-1.989zm15.424-11.407a.212.212 0 0 1-.068.153.183.183 0 0 1-.136.051h-5.576c-.057 0-.085.028-.085.085v2.635c0 .057.028.085.085.085h3.655c.057 0 .102.023.136.068a.162.162 0 0 1 .068.136v1.649a.212.212 0 0 1-.068.153.183.183 0 0 1-.136.051h-3.655c-.057 0-.085.028-.085.085v2.754c0 .057.028.085.085.085h5.576c.057 0 .102.023.136.068a.162.162 0 0 1 .068.136v1.649a.212.212 0 0 1-.068.153.183.183 0 0 1-.136.051h-7.854a.247.247 0 0 1-.153-.051.247.247 0 0 1-.051-.153v-11.492c0-.057.017-.102.051-.136a.212.212 0 0 1 .153-.068h7.854c.057 0 .102.023.136.068a.162.162 0 0 1 .068.136v1.649zM159.632 242c-.079 0-.136-.023-.17-.068-.023-.057-.011-.119.034-.187l2.737-4.063a.084.084 0 0 0 0-.102l-2.737-4.063a.268.268 0 0 1-.034-.119c0-.091.057-.136.17-.136h2.125c.102 0 .181.045.238.136l1.53 2.329c.045.068.085.068.119 0l1.53-2.329a.266.266 0 0 1 .238-.136h2.278c.079 0 .13.028.153.085.023.045.011.102-.034.17l-2.72 4.063a.162.162 0 0 0 0 .102l2.72 4.063a.208.208 0 0 1 .034.119c0 .091-.051.136-.153.136h-2.142a.266.266 0 0 1-.238-.136l-1.53-2.329c-.034-.068-.068-.068-.102 0l-1.53 2.329a.266.266 0 0 1-.238.136h-2.278zm12.956-8.874c.736 0 1.394.13 1.972.391.578.249 1.025.595 1.343 1.037.328.442.493.935.493 1.479v5.763a.212.212 0 0 1-.068.153.185.185 0 0 1-.136.051h-1.989a.247.247 0 0 1-.153-.051.247.247 0 0 1-.051-.153v-.561c0-.034-.012-.057-.034-.068-.023-.011-.046 0-.068.034-.476.623-1.241.935-2.295.935-.884 0-1.598-.215-2.142-.646-.544-.431-.816-1.065-.816-1.904 0-.873.306-1.547.918-2.023.612-.487 1.484-.731 2.618-.731h1.734c.056 0 .085-.028.085-.085v-.374c0-.374-.114-.663-.34-.867-.227-.215-.567-.323-1.02-.323-.352 0-.646.062-.884.187a.876.876 0 0 0-.442.527c-.034.125-.108.181-.221.17l-2.057-.272c-.136-.023-.199-.074-.187-.153.045-.476.232-.907.561-1.292.34-.385.782-.686 1.326-.901a5.093 5.093 0 0 1 1.853-.323zm-.34 7.225c.487 0 .901-.13 1.241-.391.34-.261.51-.595.51-1.003v-.612c0-.057-.029-.085-.085-.085h-1.224c-.51 0-.913.096-1.207.289a.93.93 0 0 0-.425.816c0 .306.107.55.323.731.215.17.504.255.867.255zm15.526-7.225c.884 0 1.576.266 2.074.799.499.533.748 1.281.748 2.244v5.627a.208.208 0 0 1-.068.153.183.183 0 0 1-.136.051h-1.989a.251.251 0 0 1-.153-.051.247.247 0 0 1-.051-.153v-5.1c0-.465-.119-.833-.357-1.105s-.555-.408-.952-.408c-.396 0-.719.136-.969.408-.249.272-.374.635-.374 1.088v5.117a.208.208 0 0 1-.068.153.183.183 0 0 1-.136.051h-1.972a.251.251 0 0 1-.153-.051.247.247 0 0 1-.051-.153v-5.1c0-.453-.124-.816-.374-1.088a1.23 1.23 0 0 0-.969-.425 1.36 1.36 0 0 0-.918.323c-.238.215-.379.516-.425.901v5.389a.208.208 0 0 1-.068.153.183.183 0 0 1-.136.051h-1.989a.251.251 0 0 1-.153-.051.247.247 0 0 1-.051-.153v-8.33c0-.057.017-.102.051-.136a.215.215 0 0 1 .153-.068h1.989c.057 0 .102.023.136.068a.16.16 0 0 1 .068.136v.663c0 .034.012.057.034.068.023.011.046 0 .068-.034.465-.691 1.185-1.037 2.159-1.037.567 0 1.06.119 1.479.357.431.238.76.578.986 1.02.034.068.074.068.119 0 .25-.465.584-.81 1.003-1.037.431-.227.913-.34 1.445-.34zm12.308 2.482c.204.578.306 1.258.306 2.04s-.108 1.49-.323 2.125c-.261.725-.675 1.303-1.241 1.734-.556.419-1.247.629-2.074.629-.816 0-1.451-.283-1.904-.85-.023-.034-.046-.045-.068-.034-.023.011-.034.034-.034.068v3.638a.162.162 0 0 1-.068.136.163.163 0 0 1-.136.068h-1.989a.212.212 0 0 1-.153-.068.183.183 0 0 1-.051-.136v-11.492c0-.057.017-.102.051-.136a.212.212 0 0 1 .153-.068h1.989c.056 0 .102.023.136.068a.162.162 0 0 1 .068.136v.561c0 .034.011.057.034.068.022 0 .045-.011.068-.034.476-.623 1.133-.935 1.972-.935.782 0 1.456.221 2.023.663.578.431.991 1.037 1.241 1.819zm-2.601 3.808c.283-.442.425-1.043.425-1.802 0-.714-.119-1.281-.357-1.7-.261-.487-.68-.731-1.258-.731-.522 0-.913.244-1.173.731-.238.408-.357.98-.357 1.717 0 .759.124 1.349.374 1.768.26.453.646.68 1.156.68.51 0 .906-.221 1.19-.663zm4.664 2.584a.247.247 0 0 1-.153-.051.247.247 0 0 1-.051-.153v-11.492c0-.057.017-.102.051-.136a.212.212 0 0 1 .153-.068h1.989c.056 0 .102.023.136.068a.162.162 0 0 1 .068.136v11.492a.212.212 0 0 1-.068.153.185.185 0 0 1-.136.051h-1.989zm11.681-5.27c.068.431.091.912.068 1.445-.011.136-.085.204-.221.204h-5.253c-.068 0-.091.028-.068.085.034.227.096.453.187.68.295.635.895.952 1.802.952.725-.011 1.298-.306 1.717-.884.045-.068.096-.102.153-.102.034 0 .074.023.119.068l1.224 1.207c.057.057.085.108.085.153 0 .023-.023.068-.068.136a3.784 3.784 0 0 1-1.445 1.088 4.927 4.927 0 0 1-1.938.374c-.975 0-1.802-.221-2.482-.663-.669-.442-1.15-1.06-1.445-1.853-.238-.567-.357-1.309-.357-2.227 0-.623.085-1.173.255-1.649.261-.805.714-1.445 1.36-1.921.657-.476 1.434-.714 2.329-.714 1.133 0 2.04.329 2.72.986.691.657 1.111 1.536 1.258 2.635zm-3.961-1.547c-.714 0-1.184.334-1.411 1.003a4.064 4.064 0 0 0-.119.544c0 .057.028.085.085.085h2.941c.068 0 .091-.028.068-.085a15.221 15.221 0 0 0-.085-.476 1.407 1.407 0 0 0-.544-.782c-.249-.193-.561-.289-.935-.289zm9.739 6.953c-.906 0-1.7-.142-2.38-.425-.68-.295-1.207-.708-1.581-1.241-.362-.544-.544-1.173-.544-1.887v-.374c0-.057.017-.102.051-.136a.215.215 0 0 1 .153-.068h1.938c.057 0 .102.023.136.068a.16.16 0 0 1 .068.136v.255c0 .453.21.839.629 1.156.42.306.986.459 1.7.459.601 0 1.049-.125 1.343-.374.295-.261.442-.578.442-.952a.92.92 0 0 0-.272-.68c-.181-.193-.43-.357-.748-.493a18.234 18.234 0 0 0-1.479-.595 15.145 15.145 0 0 1-1.938-.799 4.028 4.028 0 0 1-1.326-1.105c-.351-.476-.527-1.06-.527-1.751 0-.68.176-1.275.527-1.785.352-.51.839-.901 1.462-1.173.624-.272 1.343-.408 2.159-.408.862 0 1.627.153 2.295.459.68.306 1.207.737 1.581 1.292.386.544.578 1.179.578 1.904v.255a.208.208 0 0 1-.068.153.183.183 0 0 1-.136.051h-1.955a.251.251 0 0 1-.153-.051.247.247 0 0 1-.051-.153v-.136c0-.476-.198-.878-.595-1.207-.385-.34-.918-.51-1.598-.51-.532 0-.952.113-1.258.34-.294.227-.442.538-.442.935 0 .283.085.521.255.714.182.193.442.368.782.527.352.147.89.351 1.615.612.805.295 1.434.555 1.887.782.465.227.879.567 1.241 1.02.374.442.561 1.02.561 1.734 0 1.065-.391 1.91-1.173 2.533-.782.612-1.841.918-3.179.918zm7.17-9.86c-.386 0-.709-.125-.969-.374a1.346 1.346 0 0 1-.374-.969c0-.397.124-.72.374-.969.249-.249.572-.374.969-.374.396 0 .719.125.969.374.249.249.374.572.374.969 0 .385-.131.708-.391.969-.25.249-.567.374-.952.374zm-1.02 9.724a.247.247 0 0 1-.153-.051.247.247 0 0 1-.051-.153v-8.347c0-.057.017-.102.051-.136a.212.212 0 0 1 .153-.068h1.989c.056 0 .102.023.136.068a.162.162 0 0 1 .068.136v8.347a.212.212 0 0 1-.068.153.185.185 0 0 1-.136.051h-1.989zm9.076-7.021a.212.212 0 0 1-.068.153.185.185 0 0 1-.136.051h-1.632c-.057 0-.085.028-.085.085v3.604c0 .374.073.652.221.833.158.181.408.272.748.272h.561c.056 0 .102.023.136.068a.162.162 0 0 1 .068.136v1.615c0 .125-.068.198-.204.221-.476.023-.816.034-1.02.034-.941 0-1.644-.153-2.108-.459-.465-.317-.703-.907-.714-1.768v-4.556c0-.057-.029-.085-.085-.085h-.969a.247.247 0 0 1-.153-.051.247.247 0 0 1-.051-.153v-1.513c0-.057.017-.102.051-.136a.212.212 0 0 1 .153-.068h.969c.056 0 .085-.028.085-.085v-2.023c0-.057.017-.102.051-.136a.212.212 0 0 1 .153-.068h1.904c.056 0 .102.023.136.068a.162.162 0 0 1 .068.136v2.023c0 .057.028.085.085.085h1.632c.056 0 .102.023.136.068a.162.162 0 0 1 .068.136v1.513zm9.061 1.751c.068.431.091.912.068 1.445-.011.136-.085.204-.221.204h-5.253c-.068 0-.09.028-.068.085.034.227.097.453.187.68.295.635.896.952 1.802.952.726-.011 1.298-.306 1.717-.884.046-.068.097-.102.153-.102.034 0 .074.023.119.068l1.224 1.207c.057.057.085.108.085.153 0 .023-.022.068-.068.136a3.777 3.777 0 0 1-1.445 1.088 4.927 4.927 0 0 1-1.938.374c-.974 0-1.802-.221-2.482-.663-.668-.442-1.15-1.06-1.445-1.853-.238-.567-.357-1.309-.357-2.227 0-.623.085-1.173.255-1.649.261-.805.714-1.445 1.36-1.921.658-.476 1.434-.714 2.329-.714 1.134 0 2.04.329 2.72.986.692.657 1.111 1.536 1.258 2.635zm-3.961-1.547c-.714 0-1.184.334-1.411 1.003a4.064 4.064 0 0 0-.119.544c0 .057.029.085.085.085h2.941c.068 0 .091-.028.068-.085a11.998 11.998 0 0 0-.085-.476 1.407 1.407 0 0 0-.544-.782c-.249-.193-.561-.289-.935-.289z"/><path fill="#71B987" d="M57.77 258.331c.693 0 1.244.204 1.651.611.416.407.624.953.624 1.638v4.29c0 .087-.043.13-.13.13h-.663c-.087 0-.13-.043-.13-.13v-4.108c0-.477-.147-.867-.442-1.17-.286-.303-.659-.455-1.118-.455-.477 0-.862.147-1.157.442-.295.295-.442.68-.442 1.157v4.134c0 .087-.043.13-.13.13h-.663c-.087 0-.13-.043-.13-.13v-8.84c0-.087.043-.13.13-.13h.663c.087 0 .13.043.13.13v3.081c0 .017.004.03.013.039.017.009.03.004.039-.013.381-.537.966-.806 1.755-.806zm7.229.728c0 .087-.043.13-.13.13h-1.47c-.034 0-.051.017-.051.052v3.835c0 .416.09.711.273.884.19.165.485.247.884.247h.325c.087 0 .13.043.13.13v.533c0 .087-.043.13-.13.13a6.215 6.215 0 0 1-.481.013c-.624 0-1.097-.117-1.417-.351-.32-.234-.481-.667-.481-1.3v-4.121c0-.035-.017-.052-.052-.052h-.793c-.087 0-.13-.043-.13-.13v-.507c0-.087.043-.13.13-.13h.793c.035 0 .052-.017.052-.052v-1.508c0-.087.043-.13.13-.13h.637c.086 0 .13.043.13.13v1.508c0 .035.017.052.052.052h1.469c.087 0 .13.043.13.13v.507zm4.735 0c0 .087-.043.13-.13.13h-1.469c-.035 0-.052.017-.052.052v3.835c0 .416.091.711.273.884.19.165.486.247.884.247h.325c.087 0 .13.043.13.13v.533c0 .087-.043.13-.13.13a6.217 6.217 0 0 1-.48.013c-.625 0-1.097-.117-1.418-.351-.32-.234-.48-.667-.48-1.3v-4.121c0-.035-.018-.052-.053-.052h-.793c-.087 0-.13-.043-.13-.13v-.507c0-.087.043-.13.13-.13h.793c.035 0 .052-.017.052-.052v-1.508c0-.087.043-.13.13-.13h.637c.087 0 .13.043.13.13v1.508c0 .035.017.052.052.052h1.47c.086 0 .13.043.13.13v.507zm6.894 1.001c.13.416.195.966.195 1.651 0 .693-.057 1.231-.17 1.612-.156.555-.442.992-.858 1.313-.407.312-.922.468-1.546.468-.338 0-.65-.065-.936-.195a1.962 1.962 0 0 1-.716-.585c-.017-.017-.034-.022-.051-.013-.01 0-.014.009-.014.026v3.055c0 .087-.043.13-.13.13h-.662c-.087 0-.13-.043-.13-.13v-8.84c0-.087.043-.13.13-.13h.663c.086 0 .13.043.13.13v.546c0 .017.004.03.013.039.017 0 .034-.009.051-.026.191-.251.425-.446.703-.585.285-.139.602-.208.949-.208.606 0 1.113.156 1.52.468.416.312.703.737.858 1.274zm-1.028 3.289c.096-.191.165-.403.209-.637.052-.243.078-.576.078-1.001 0-.407-.018-.724-.052-.949a2.193 2.193 0 0 0-.182-.624 1.408 1.408 0 0 0-.56-.741 1.59 1.59 0 0 0-.936-.273c-.346 0-.636.091-.87.273a1.61 1.61 0 0 0-.52.728 2.314 2.314 0 0 0-.17.611 7.038 7.038 0 0 0-.051.975c0 .416.017.745.051.988.035.234.096.442.183.624.103.295.272.533.507.715.242.173.528.26.857.26.347 0 .646-.087.897-.26.26-.173.447-.403.56-.689zm5.25 1.716c-.486 0-.92-.078-1.3-.234-.373-.156-.664-.364-.872-.624a1.398 1.398 0 0 1-.299-.871v-.156c0-.087.044-.13.13-.13h.624c.087 0 .13.043.13.13v.104c0 .286.148.537.442.754.304.208.68.312 1.131.312.451 0 .815-.1 1.092-.299.278-.208.416-.468.416-.78a.7.7 0 0 0-.22-.533 1.453 1.453 0 0 0-.508-.325 10.39 10.39 0 0 0-.897-.299 9.305 9.305 0 0 1-1.196-.416 2.3 2.3 0 0 1-.793-.572c-.208-.251-.312-.568-.312-.949 0-.555.217-.997.65-1.326.434-.329 1.006-.494 1.716-.494.477 0 .897.078 1.261.234.373.156.659.373.858.65.2.269.3.572.3.91v.039c0 .087-.044.13-.13.13h-.612c-.086 0-.13-.043-.13-.13v-.039c0-.295-.143-.542-.429-.741-.277-.199-.654-.299-1.13-.299-.443 0-.798.091-1.067.273a.82.82 0 0 0-.403.728c0 .295.13.52.39.676.26.156.663.312 1.21.468.502.147.91.286 1.221.416.312.13.581.321.806.572.226.243.338.563.338.962 0 .563-.22 1.014-.663 1.352-.442.338-1.027.507-1.755.507zm5.257-4.615a.72.72 0 0 1-.533-.208.731.731 0 0 1-.195-.52c0-.217.065-.39.195-.52a.72.72 0 0 1 .533-.208c.208 0 .382.069.52.208.139.13.208.303.208.52 0 .208-.07.381-.208.52a.704.704 0 0 1-.52.208zm0 4.381a.72.72 0 0 1-.533-.208.731.731 0 0 1-.195-.52c0-.217.065-.39.195-.52a.72.72 0 0 1 .533-.208c.208 0 .382.069.52.208.139.13.208.303.208.52 0 .208-.07.381-.208.52a.704.704 0 0 1-.52.208zm2.741.169c-.095 0-.13-.048-.104-.143l2.873-8.853c.026-.069.078-.104.156-.104h.65c.096 0 .13.048.104.143l-2.873 8.853c-.026.069-.078.104-.156.104h-.65zm5.206 0c-.096 0-.13-.048-.105-.143l2.874-8.853c.026-.069.078-.104.156-.104h.65c.095 0 .13.048.103.143l-2.873 8.853c-.025.069-.078.104-.155.104h-.65zm8.93-8.97c0-.087.044-.13.13-.13h.663c.087 0 .13.043.13.13v8.84c0 .087-.043.13-.13.13h-.663c-.086 0-.13-.043-.13-.13v-.546c0-.017-.008-.026-.026-.026-.008-.009-.021-.004-.039.013-.19.251-.429.446-.715.585a2.058 2.058 0 0 1-.936.208c-.606 0-1.118-.156-1.534-.468-.407-.312-.689-.737-.845-1.274-.121-.39-.182-.94-.182-1.651 0-.719.052-1.257.156-1.612.156-.555.442-.988.858-1.3.416-.321.932-.481 1.547-.481.338 0 .65.069.936.208.286.13.525.321.715.572.018.017.031.026.039.026.018-.009.026-.022.026-.039v-3.055zm-.234 7.267c.078-.173.135-.377.169-.611a6.99 6.99 0 0 0 .052-.975 6.99 6.99 0 0 0-.052-.975 2.168 2.168 0 0 0-.182-.637 1.415 1.415 0 0 0-.52-.702 1.334 1.334 0 0 0-.845-.273c-.346 0-.645.087-.897.26a1.475 1.475 0 0 0-.546.689 2.4 2.4 0 0 0-.234.65 5.755 5.755 0 0 0-.065.988c0 .407.018.728.052.962.035.225.096.429.182.611.104.312.286.559.546.741.269.182.585.273.949.273.347 0 .637-.091.871-.273.234-.182.408-.425.52-.728zm8.293-2.691c.035.243.052.546.052.91v.416c0 .087-.043.13-.13.13h-4.199c-.035 0-.052.017-.052.052.017.477.043.784.078.923.095.39.299.698.611.923.312.225.711.338 1.196.338.364 0 .685-.082.962-.247.277-.165.494-.399.65-.702.052-.078.113-.095.182-.052l.507.299c.069.043.087.104.052.182a2.384 2.384 0 0 1-.975.988c-.433.234-.932.351-1.495.351-.615-.009-1.131-.156-1.547-.442a2.372 2.372 0 0 1-.897-1.196c-.156-.416-.234-1.014-.234-1.794 0-.364.004-.659.013-.884.017-.234.052-.442.104-.624a2.42 2.42 0 0 1 .884-1.352c.451-.338.992-.507 1.625-.507.789 0 1.395.199 1.82.598.425.399.689.962.793 1.69zm-2.613-1.482c-.425 0-.78.113-1.066.338a1.522 1.522 0 0 0-.546.884c-.052.182-.087.477-.104.884 0 .035.017.052.052.052h3.367c.035 0 .052-.017.052-.052a5.75 5.75 0 0 0-.078-.832 1.595 1.595 0 0 0-.585-.923c-.286-.234-.65-.351-1.092-.351zm11.157-.793c.65 0 1.161.195 1.534.585.381.39.572.923.572 1.599v4.355c0 .087-.044.13-.13.13h-.65c-.087 0-.13-.043-.13-.13v-4.173c0-.477-.139-.854-.416-1.131-.269-.286-.624-.429-1.066-.429-.46 0-.832.139-1.118.416-.278.277-.416.65-.416 1.118v4.199c0 .087-.044.13-.13.13h-.663c-.087 0-.13-.043-.13-.13v-4.173c0-.477-.135-.854-.403-1.131-.269-.286-.629-.429-1.079-.429-.46 0-.828.139-1.105.416-.269.277-.403.65-.403 1.118v4.199c0 .087-.044.13-.13.13h-.663c-.087 0-.13-.043-.13-.13v-6.318c0-.087.043-.13.13-.13h.663c.086 0 .13.043.13.13v.52c0 .017.004.03.013.039.017 0 .034-.009.052-.026.19-.251.433-.438.728-.559.303-.13.637-.195 1.001-.195.45 0 .836.091 1.157.273.32.182.563.446.728.793.017.043.039.043.065 0 .19-.355.459-.62.806-.793a2.505 2.505 0 0 1 1.183-.273zm6.517 6.773c-.624 0-1.162-.16-1.612-.481a2.463 2.463 0 0 1-.936-1.326c-.122-.399-.182-.932-.182-1.599 0-.667.06-1.196.182-1.586.164-.555.472-.992.923-1.313.45-.321.996-.481 1.638-.481.615 0 1.144.16 1.586.481.45.321.758.754.923 1.3.121.373.182.906.182 1.599 0 .702-.061 1.235-.182 1.599a2.407 2.407 0 0 1-.923 1.326c-.442.321-.975.481-1.599.481zm0-.806c.416 0 .771-.113 1.066-.338a1.73 1.73 0 0 0 .598-.936c.078-.312.117-.75.117-1.313 0-.572-.035-1.01-.104-1.313a1.637 1.637 0 0 0-.611-.923c-.295-.234-.655-.351-1.079-.351-.425 0-.785.117-1.079.351a1.659 1.659 0 0 0-.598.923c-.07.303-.104.741-.104 1.313s.034 1.01.104 1.313c.095.39.29.702.585.936.303.225.671.338 1.105.338zm5.214.676a.722.722 0 0 1-.533-.208.731.731 0 0 1-.195-.52c0-.217.065-.39.195-.52a.722.722 0 0 1 .533-.208c.208 0 .382.069.52.208.139.13.208.303.208.52a.705.705 0 0 1-.208.52.703.703 0 0 1-.52.208zm7.629-4.368c.035.243.052.546.052.91v.416c0 .087-.043.13-.13.13h-4.199c-.034 0-.052.017-.052.052.018.477.044.784.078.923.096.39.299.698.611.923.312.225.711.338 1.196.338.364 0 .685-.082.962-.247.278-.165.494-.399.65-.702.052-.078.113-.095.182-.052l.507.299c.07.043.087.104.052.182a2.373 2.373 0 0 1-.975.988c-.433.234-.931.351-1.495.351-.615-.009-1.131-.156-1.547-.442a2.372 2.372 0 0 1-.897-1.196c-.156-.416-.234-1.014-.234-1.794 0-.364.005-.659.013-.884.018-.234.052-.442.104-.624a2.425 2.425 0 0 1 .884-1.352c.451-.338.993-.507 1.625-.507.789 0 1.396.199 1.82.598.425.399.689.962.793 1.69zm-2.613-1.482c-.424 0-.78.113-1.066.338a1.522 1.522 0 0 0-.546.884c-.052.182-.086.477-.104.884 0 .035.018.052.052.052h3.367c.035 0 .052-.017.052-.052a5.75 5.75 0 0 0-.078-.832 1.595 1.595 0 0 0-.585-.923c-.286-.234-.65-.351-1.092-.351zm3.764 5.876c-.052 0-.091-.017-.117-.052-.017-.035-.008-.069.026-.104l2.171-3.094a.063.063 0 0 0 0-.078l-2.171-3.094a.089.089 0 0 1-.026-.065c0-.061.039-.091.117-.091h.702c.07 0 .122.026.156.078l1.703 2.457c.009.009.022.013.039.013.018 0 .031-.004.039-.013l1.69-2.457a.176.176 0 0 1 .156-.078h.767c.052 0 .087.017.104.052.018.026.009.061-.026.104l-2.171 3.094a.13.13 0 0 0 0 .078l2.171 3.094c.018.017.026.043.026.078 0 .017-.008.035-.026.052-.017.017-.043.026-.078.026h-.715a.176.176 0 0 1-.156-.078l-1.69-2.457c-.008-.017-.021-.026-.039-.026-.017 0-.03.009-.039.026l-1.716 2.457c-.034.052-.086.078-.156.078h-.741zm9.03-6.682c.78 0 1.382.199 1.807.598.424.399.637.927.637 1.586v4.368c0 .087-.044.13-.13.13h-.663c-.087 0-.13-.043-.13-.13v-.533c0-.017-.009-.03-.026-.039-.009-.009-.022-.004-.039.013-.217.26-.499.459-.845.598-.347.13-.733.195-1.157.195-.616 0-1.131-.156-1.547-.468-.416-.312-.624-.789-.624-1.43 0-.65.234-1.161.702-1.534.476-.381 1.135-.572 1.976-.572h1.508c.034 0 .052-.017.052-.052v-.494c0-.442-.126-.789-.377-1.04-.243-.26-.624-.39-1.144-.39-.416 0-.754.082-1.014.247a.983.983 0 0 0-.481.663c-.026.087-.078.126-.156.117l-.702-.091c-.096-.017-.135-.052-.117-.104.069-.485.329-.88.78-1.183.45-.303 1.014-.455 1.69-.455zm-.364 5.993c.511 0 .953-.126 1.326-.377.372-.26.559-.607.559-1.04v-1.014c0-.035-.018-.052-.052-.052h-1.365c-.572 0-1.032.117-1.378.351-.347.234-.52.559-.52.975 0 .381.13.672.389.871.269.191.616.286 1.041.286zm11.384-5.98c.65 0 1.161.195 1.534.585.381.39.572.923.572 1.599v4.355c0 .087-.043.13-.13.13h-.65c-.087 0-.13-.043-.13-.13v-4.173c0-.477-.139-.854-.416-1.131-.269-.286-.624-.429-1.066-.429-.459 0-.832.139-1.118.416-.277.277-.416.65-.416 1.118v4.199c0 .087-.043.13-.13.13h-.663c-.087 0-.13-.043-.13-.13v-4.173c0-.477-.134-.854-.403-1.131-.269-.286-.628-.429-1.079-.429-.459 0-.828.139-1.105.416-.269.277-.403.65-.403 1.118v4.199c0 .087-.043.13-.13.13h-.663c-.087 0-.13-.043-.13-.13v-6.318c0-.087.043-.13.13-.13h.663c.087 0 .13.043.13.13v.52c0 .017.004.03.013.039.017 0 .035-.009.052-.026.191-.251.433-.438.728-.559.303-.13.637-.195 1.001-.195.451 0 .836.091 1.157.273.321.182.563.446.728.793.017.043.039.043.065 0 .191-.355.459-.62.806-.793a2.508 2.508 0 0 1 1.183-.273zm9.206 1.729c.13.416.195.966.195 1.651 0 .693-.056 1.231-.169 1.612-.156.555-.442.992-.858 1.313-.407.312-.923.468-1.547.468-.338 0-.65-.065-.936-.195a1.965 1.965 0 0 1-.715-.585c-.017-.017-.035-.022-.052-.013-.009 0-.013.009-.013.026v3.055c0 .087-.043.13-.13.13h-.663c-.087 0-.13-.043-.13-.13v-8.84c0-.087.043-.13.13-.13h.663c.087 0 .13.043.13.13v.546c0 .017.004.03.013.039.017 0 .035-.009.052-.026a2 2 0 0 1 .702-.585 2.14 2.14 0 0 1 .949-.208c.607 0 1.114.156 1.521.468.416.312.702.737.858 1.274zm-1.027 3.289c.095-.191.165-.403.208-.637.052-.243.078-.576.078-1.001 0-.407-.017-.724-.052-.949a2.193 2.193 0 0 0-.182-.624 1.407 1.407 0 0 0-.559-.741 1.59 1.59 0 0 0-.936-.273c-.347 0-.637.091-.871.273a1.611 1.611 0 0 0-.52.728 2.325 2.325 0 0 0-.169.611 6.99 6.99 0 0 0-.052.975c0 .416.017.745.052.988.035.234.095.442.182.624.104.295.273.533.507.715.243.173.529.26.858.26.347 0 .646-.087.897-.26a1.45 1.45 0 0 0 .559-.689zm3.221 1.651c-.087 0-.13-.043-.13-.13v-8.84c0-.087.043-.13.13-.13h.663c.087 0 .13.043.13.13v8.84c0 .087-.043.13-.13.13h-.663zm7.91-4.394c.035.243.052.546.052.91v.416c0 .087-.043.13-.13.13h-4.199c-.035 0-.052.017-.052.052.017.477.043.784.078.923.095.39.299.698.611.923.312.225.711.338 1.196.338.364 0 .685-.082.962-.247.277-.165.494-.399.65-.702.052-.078.113-.095.182-.052l.507.299c.069.043.087.104.052.182a2.384 2.384 0 0 1-.975.988c-.433.234-.932.351-1.495.351-.615-.009-1.131-.156-1.547-.442a2.372 2.372 0 0 1-.897-1.196c-.156-.416-.234-1.014-.234-1.794 0-.364.004-.659.013-.884.017-.234.052-.442.104-.624a2.42 2.42 0 0 1 .884-1.352c.451-.338.992-.507 1.625-.507.789 0 1.395.199 1.82.598.425.399.689.962.793 1.69zm-2.613-1.482c-.425 0-.78.113-1.066.338a1.522 1.522 0 0 0-.546.884c-.052.182-.087.477-.104.884 0 .035.017.052.052.052h3.367c.035 0 .052-.017.052-.052a5.75 5.75 0 0 0-.078-.832 1.595 1.595 0 0 0-.585-.923c-.286-.234-.65-.351-1.092-.351zm5.001 5.85a.719.719 0 0 1-.533-.208.731.731 0 0 1-.195-.52c0-.217.065-.39.195-.52a.719.719 0 0 1 .533-.208c.208 0 .381.069.52.208a.68.68 0 0 1 .208.52.709.709 0 0 1-.728.728zm5.068.13c-.624 0-1.162-.16-1.612-.481a2.48 2.48 0 0 1-.91-1.326c-.113-.381-.169-.919-.169-1.612 0-.624.056-1.153.169-1.586.156-.537.459-.966.91-1.287.45-.329.988-.494 1.612-.494.632 0 1.178.16 1.638.481.468.321.771.719.91 1.196.043.156.069.286.078.39v.026c0 .061-.039.1-.117.117l-.65.091h-.026c-.061 0-.1-.039-.117-.117l-.039-.195c-.078-.329-.269-.607-.572-.832-.304-.234-.672-.351-1.105-.351-.434 0-.798.117-1.092.351a1.555 1.555 0 0 0-.559.91c-.078.329-.117.767-.117 1.313 0 .572.039 1.014.117 1.326.086.39.273.702.559.936.294.225.658.338 1.092.338.424 0 .788-.108 1.092-.325a1.42 1.42 0 0 0 .585-.858v-.052l.013-.052c.008-.087.06-.121.156-.104l.637.104c.086.017.125.065.117.143l-.052.26c-.13.503-.429.91-.897 1.222-.468.312-1.019.468-1.651.468zm6.741 0c-.624 0-1.161-.16-1.612-.481a2.473 2.473 0 0 1-.936-1.326c-.121-.399-.182-.932-.182-1.599 0-.667.061-1.196.182-1.586.165-.555.473-.992.923-1.313.451-.321.997-.481 1.638-.481.616 0 1.144.16 1.586.481.451.321.759.754.923 1.3.122.373.182.906.182 1.599 0 .702-.06 1.235-.182 1.599a2.397 2.397 0 0 1-.923 1.326c-.442.321-.975.481-1.599.481zm0-.806c.416 0 .772-.113 1.066-.338.295-.234.494-.546.598-.936.078-.312.117-.75.117-1.313 0-.572-.034-1.01-.104-1.313a1.632 1.632 0 0 0-.611-.923c-.294-.234-.654-.351-1.079-.351-.424 0-.784.117-1.079.351a1.664 1.664 0 0 0-.598.923c-.069.303-.104.741-.104 1.313s.035 1.01.104 1.313c.096.39.291.702.585.936.304.225.672.338 1.105.338zm11.231-5.967c.65 0 1.162.195 1.534.585.382.39.572.923.572 1.599v4.355c0 .087-.043.13-.13.13h-.65c-.086 0-.13-.043-.13-.13v-4.173c0-.477-.138-.854-.416-1.131-.268-.286-.624-.429-1.066-.429-.459 0-.832.139-1.118.416-.277.277-.416.65-.416 1.118v4.199c0 .087-.043.13-.13.13h-.663c-.086 0-.13-.043-.13-.13v-4.173c0-.477-.134-.854-.403-1.131-.268-.286-.628-.429-1.079-.429-.459 0-.827.139-1.105.416-.268.277-.403.65-.403 1.118v4.199c0 .087-.043.13-.13.13h-.663c-.086 0-.13-.043-.13-.13v-6.318c0-.087.044-.13.13-.13h.663c.087 0 .13.043.13.13v.52c0 .017.005.03.013.039.018 0 .035-.009.052-.026.191-.251.434-.438.728-.559.304-.13.637-.195 1.001-.195.451 0 .837.091 1.157.273.321.182.564.446.728.793.018.043.039.043.065 0 .191-.355.46-.62.806-.793a2.508 2.508 0 0 1 1.183-.273zm3.552 6.669c-.095 0-.13-.048-.104-.143l2.873-8.853c.026-.069.078-.104.156-.104h.65c.096 0 .13.048.104.143l-2.873 8.853c-.026.069-.078.104-.156.104h-.65zm10.669-4.94c.13.416.195.966.195 1.651 0 .693-.056 1.231-.169 1.612-.156.555-.442.992-.858 1.313-.407.312-.923.468-1.547.468-.338 0-.65-.065-.936-.195a1.965 1.965 0 0 1-.715-.585c-.017-.017-.035-.022-.052-.013-.009 0-.013.009-.013.026v3.055c0 .087-.043.13-.13.13h-.663c-.087 0-.13-.043-.13-.13v-8.84c0-.087.043-.13.13-.13h.663c.087 0 .13.043.13.13v.546c0 .017.004.03.013.039.017 0 .035-.009.052-.026a2 2 0 0 1 .702-.585 2.14 2.14 0 0 1 .949-.208c.607 0 1.114.156 1.521.468.416.312.702.737.858 1.274zm-1.027 3.289c.095-.191.165-.403.208-.637.052-.243.078-.576.078-1.001 0-.407-.017-.724-.052-.949a2.193 2.193 0 0 0-.182-.624 1.407 1.407 0 0 0-.559-.741 1.59 1.59 0 0 0-.936-.273c-.347 0-.637.091-.871.273a1.611 1.611 0 0 0-.52.728 2.325 2.325 0 0 0-.169.611 6.99 6.99 0 0 0-.052.975c0 .416.017.745.052.988.035.234.095.442.182.624.104.295.273.533.507.715.243.173.529.26.858.26.347 0 .646-.087.897-.26a1.45 1.45 0 0 0 .559-.689zm5.743-4.992c.286 0 .533.056.741.169.069.035.095.091.078.169l-.143.637c-.026.087-.082.113-.169.078a1.314 1.314 0 0 0-.507-.091l-.169.013a1.536 1.536 0 0 0-1.118.507c-.295.312-.442.711-.442 1.196v3.835c0 .087-.043.13-.13.13h-.663c-.087 0-.13-.043-.13-.13v-6.318c0-.087.043-.13.13-.13h.663c.087 0 .13.043.13.13v.793c0 .026.004.043.013.052.017 0 .03-.009.039-.026.182-.321.412-.568.689-.741a1.8 1.8 0 0 1 .988-.273zm4.529 6.747c-.624 0-1.162-.16-1.612-.481a2.463 2.463 0 0 1-.936-1.326c-.122-.399-.182-.932-.182-1.599 0-.667.06-1.196.182-1.586.164-.555.472-.992.923-1.313.45-.321.996-.481 1.638-.481.615 0 1.144.16 1.586.481.45.321.758.754.923 1.3.121.373.182.906.182 1.599 0 .702-.061 1.235-.182 1.599a2.407 2.407 0 0 1-.923 1.326c-.442.321-.975.481-1.599.481zm0-.806c.416 0 .771-.113 1.066-.338a1.73 1.73 0 0 0 .598-.936c.078-.312.117-.75.117-1.313 0-.572-.035-1.01-.104-1.313a1.637 1.637 0 0 0-.611-.923c-.295-.234-.655-.351-1.079-.351-.425 0-.785.117-1.079.351a1.659 1.659 0 0 0-.598.923c-.07.303-.104.741-.104 1.313s.034 1.01.104 1.313c.095.39.29.702.585.936.303.225.671.338 1.105.338zm8.657-8.268c0-.087.043-.13.13-.13h.663c.086 0 .13.043.13.13v8.84c0 .087-.044.13-.13.13h-.663c-.087 0-.13-.043-.13-.13v-.546c0-.017-.009-.026-.026-.026-.009-.009-.022-.004-.039.013a1.965 1.965 0 0 1-.715.585c-.278.139-.59.208-.936.208-.607 0-1.118-.156-1.534-.468-.408-.312-.689-.737-.845-1.274-.122-.39-.182-.94-.182-1.651 0-.719.052-1.257.156-1.612.156-.555.442-.988.858-1.3.416-.321.931-.481 1.547-.481.338 0 .65.069.936.208.286.13.524.321.715.572.017.017.03.026.039.026.017-.009.026-.022.026-.039v-3.055zm-.234 7.267c.078-.173.134-.377.169-.611a7.15 7.15 0 0 0 .052-.975 7.15 7.15 0 0 0-.052-.975 2.23 2.23 0 0 0-.182-.637 1.42 1.42 0 0 0-.52-.702 1.336 1.336 0 0 0-.845-.273c-.347 0-.646.087-.897.26a1.466 1.466 0 0 0-.546.689 2.4 2.4 0 0 0-.234.65 5.684 5.684 0 0 0-.065.988c0 .407.017.728.052.962.034.225.095.429.182.611.104.312.286.559.546.741.268.182.585.273.949.273.346 0 .637-.091.871-.273.234-.182.407-.425.52-.728zm7.226-4.745c0-.087.044-.13.13-.13h.663c.087 0 .13.043.13.13v6.318c0 .087-.043.13-.13.13h-.663c-.086 0-.13-.043-.13-.13v-.559c0-.017-.008-.03-.026-.039-.017-.009-.03-.004-.039.013-.364.537-.94.806-1.729.806-.416 0-.801-.082-1.157-.247a2.083 2.083 0 0 1-.832-.741c-.199-.321-.299-.706-.299-1.157v-4.394c0-.087.044-.13.13-.13h.663c.087 0 .13.043.13.13v4.121c0 .494.139.888.416 1.183.278.286.655.429 1.131.429.494 0 .884-.147 1.17-.442.295-.295.442-.685.442-1.17v-4.121zm5.475 6.552c-.624 0-1.161-.16-1.612-.481a2.486 2.486 0 0 1-.91-1.326c-.113-.381-.169-.919-.169-1.612 0-.624.056-1.153.169-1.586.156-.537.459-.966.91-1.287.451-.329.988-.494 1.612-.494.633 0 1.179.16 1.638.481.468.321.771.719.91 1.196.043.156.069.286.078.39v.026c0 .061-.039.1-.117.117l-.65.091h-.026c-.061 0-.1-.039-.117-.117l-.039-.195c-.078-.329-.269-.607-.572-.832-.303-.234-.672-.351-1.105-.351-.433 0-.797.117-1.092.351a1.56 1.56 0 0 0-.559.91c-.078.329-.117.767-.117 1.313 0 .572.039 1.014.117 1.326.087.39.273.702.559.936.295.225.659.338 1.092.338.425 0 .789-.108 1.092-.325a1.42 1.42 0 0 0 .585-.858v-.052l.013-.052c.009-.087.061-.121.156-.104l.637.104c.087.017.126.065.117.143l-.052.26c-.13.503-.429.91-.897 1.222-.468.312-1.018.468-1.651.468zm7.222-6.045c0 .087-.043.13-.13.13h-1.469c-.035 0-.052.017-.052.052v3.835c0 .416.091.711.273.884.191.165.485.247.884.247h.325c.087 0 .13.043.13.13v.533c0 .087-.043.13-.13.13a6.21 6.21 0 0 1-.481.013c-.624 0-1.096-.117-1.417-.351-.321-.234-.481-.667-.481-1.3v-4.121c0-.035-.017-.052-.052-.052h-.793c-.087 0-.13-.043-.13-.13v-.507c0-.087.043-.13.13-.13h.793c.035 0 .052-.017.052-.052v-1.508c0-.087.043-.13.13-.13h.637c.087 0 .13.043.13.13v1.508c0 .035.017.052.052.052h1.469c.087 0 .13.043.13.13v.507zm1.277 5.941c-.095 0-.13-.048-.104-.143l2.873-8.853c.026-.069.078-.104.156-.104h.65c.096 0 .13.048.104.143l-2.873 8.853c-.026.069-.078.104-.156.104h-.65zm8.931-8.97c0-.087.044-.13.13-.13h.663c.087 0 .13.043.13.13v8.84c0 .087-.043.13-.13.13h-.663c-.086 0-.13-.043-.13-.13v-.546c0-.017-.008-.026-.026-.026-.008-.009-.021-.004-.039.013-.19.251-.429.446-.715.585a2.058 2.058 0 0 1-.936.208c-.606 0-1.118-.156-1.534-.468-.407-.312-.689-.737-.845-1.274-.121-.39-.182-.94-.182-1.651 0-.719.052-1.257.156-1.612.156-.555.442-.988.858-1.3.416-.321.932-.481 1.547-.481.338 0 .65.069.936.208.286.13.525.321.715.572.018.017.031.026.039.026.018-.009.026-.022.026-.039v-3.055zm-.234 7.267c.078-.173.135-.377.169-.611a6.99 6.99 0 0 0 .052-.975 6.99 6.99 0 0 0-.052-.975 2.168 2.168 0 0 0-.182-.637 1.415 1.415 0 0 0-.52-.702 1.334 1.334 0 0 0-.845-.273c-.346 0-.645.087-.897.26a1.478 1.478 0 0 0-.546.689 2.4 2.4 0 0 0-.234.65 5.785 5.785 0 0 0-.065.988c0 .407.018.728.052.962.035.225.096.429.182.611.104.312.286.559.546.741.269.182.585.273.949.273.347 0 .637-.091.871-.273.234-.182.408-.425.52-.728zm8.293-2.691c.035.243.052.546.052.91v.416c0 .087-.043.13-.13.13h-4.199c-.035 0-.052.017-.052.052.017.477.043.784.078.923.095.39.299.698.611.923.312.225.711.338 1.196.338.364 0 .685-.082.962-.247.277-.165.494-.399.65-.702.052-.078.113-.095.182-.052l.507.299c.069.043.087.104.052.182a2.384 2.384 0 0 1-.975.988c-.433.234-.932.351-1.495.351-.615-.009-1.131-.156-1.547-.442a2.372 2.372 0 0 1-.897-1.196c-.156-.416-.234-1.014-.234-1.794 0-.364.004-.659.013-.884.017-.234.052-.442.104-.624a2.42 2.42 0 0 1 .884-1.352c.451-.338.992-.507 1.625-.507.789 0 1.395.199 1.82.598.425.399.689.962.793 1.69zm-2.613-1.482c-.425 0-.78.113-1.066.338a1.522 1.522 0 0 0-.546.884c-.052.182-.087.477-.104.884 0 .035.017.052.052.052h3.367c.035 0 .052-.017.052-.052a5.75 5.75 0 0 0-.078-.832 1.595 1.595 0 0 0-.585-.923c-.286-.234-.65-.351-1.092-.351zm11.157-.793c.65 0 1.161.195 1.534.585.381.39.572.923.572 1.599v4.355c0 .087-.044.13-.13.13h-.65c-.087 0-.13-.043-.13-.13v-4.173c0-.477-.139-.854-.416-1.131-.269-.286-.624-.429-1.066-.429-.46 0-.832.139-1.118.416-.278.277-.416.65-.416 1.118v4.199c0 .087-.044.13-.13.13h-.663c-.087 0-.13-.043-.13-.13v-4.173c0-.477-.135-.854-.403-1.131-.269-.286-.629-.429-1.079-.429-.46 0-.828.139-1.105.416-.269.277-.403.65-.403 1.118v4.199c0 .087-.044.13-.13.13h-.663c-.087 0-.13-.043-.13-.13v-6.318c0-.087.043-.13.13-.13h.663c.086 0 .13.043.13.13v.52c0 .017.004.03.013.039.017 0 .034-.009.052-.026.19-.251.433-.438.728-.559.303-.13.637-.195 1.001-.195.45 0 .836.091 1.157.273.32.182.563.446.728.793.017.043.039.043.065 0 .19-.355.459-.62.806-.793a2.505 2.505 0 0 1 1.183-.273zm6.517 6.773c-.624 0-1.162-.16-1.612-.481a2.463 2.463 0 0 1-.936-1.326c-.122-.399-.182-.932-.182-1.599 0-.667.06-1.196.182-1.586.164-.555.472-.992.923-1.313.45-.321.996-.481 1.638-.481.615 0 1.144.16 1.586.481.45.321.758.754.923 1.3.121.373.182.906.182 1.599 0 .702-.061 1.235-.182 1.599a2.407 2.407 0 0 1-.923 1.326c-.442.321-.975.481-1.599.481zm0-.806c.416 0 .771-.113 1.066-.338a1.73 1.73 0 0 0 .598-.936c.078-.312.117-.75.117-1.313 0-.572-.035-1.01-.104-1.313a1.637 1.637 0 0 0-.611-.923c-.295-.234-.655-.351-1.079-.351-.425 0-.785.117-1.079.351a1.659 1.659 0 0 0-.598.923c-.07.303-.104.741-.104 1.313s.034 1.01.104 1.313c.095.39.29.702.585.936.303.225.671.338 1.105.338zm4.172-2.938c-.087 0-.13-.043-.13-.13v-.546c0-.087.043-.13.13-.13h3.848c.086 0 .13.043.13.13v.546c0 .087-.044.13-.13.13h-3.848zm7.677 3.705c-.486 0-.919-.078-1.3-.234-.373-.156-.663-.364-.871-.624-.2-.26-.299-.55-.299-.871v-.156c0-.087.043-.13.13-.13h.624c.086 0 .13.043.13.13v.104c0 .286.147.537.442.754.303.208.68.312 1.131.312.45 0 .814-.1 1.092-.299.277-.208.416-.468.416-.78a.7.7 0 0 0-.221-.533 1.459 1.459 0 0 0-.507-.325c-.191-.078-.49-.178-.897-.299a9.273 9.273 0 0 1-1.196-.416 2.294 2.294 0 0 1-.793-.572c-.208-.251-.312-.568-.312-.949 0-.555.216-.997.65-1.326.433-.329 1.005-.494 1.716-.494.476 0 .897.078 1.261.234.372.156.658.373.858.65.199.269.299.572.299.91v.039c0 .087-.044.13-.13.13h-.611c-.087 0-.13-.043-.13-.13v-.039c0-.295-.143-.542-.429-.741-.278-.199-.655-.299-1.131-.299-.442 0-.798.091-1.066.273a.82.82 0 0 0-.403.728c0 .295.13.52.39.676.26.156.663.312 1.209.468.502.147.91.286 1.222.416.312.13.58.321.806.572.225.243.338.563.338.962 0 .563-.221 1.014-.663 1.352-.442.338-1.027.507-1.755.507zm6.831-6.734c.693 0 1.243.204 1.651.611.416.407.624.953.624 1.638v4.29c0 .087-.044.13-.13.13h-.663c-.087 0-.13-.043-.13-.13v-4.108c0-.477-.148-.867-.442-1.17-.286-.303-.659-.455-1.118-.455-.477 0-.863.147-1.157.442-.295.295-.442.68-.442 1.157v4.134c0 .087-.044.13-.13.13h-.663c-.087 0-.13-.043-.13-.13v-8.84c0-.087.043-.13.13-.13h.663c.086 0 .13.043.13.13v3.081c0 .017.004.03.013.039.017.009.03.004.039-.013.381-.537.966-.806 1.755-.806zm6.697 6.773c-.624 0-1.161-.16-1.612-.481a2.473 2.473 0 0 1-.936-1.326c-.121-.399-.182-.932-.182-1.599 0-.667.061-1.196.182-1.586.165-.555.473-.992.923-1.313.451-.321.997-.481 1.638-.481.616 0 1.144.16 1.586.481.451.321.759.754.923 1.3.122.373.182.906.182 1.599 0 .702-.06 1.235-.182 1.599a2.397 2.397 0 0 1-.923 1.326c-.442.321-.975.481-1.599.481zm0-.806c.416 0 .772-.113 1.066-.338.295-.234.494-.546.598-.936.078-.312.117-.75.117-1.313 0-.572-.034-1.01-.104-1.313a1.632 1.632 0 0 0-.611-.923c-.294-.234-.654-.351-1.079-.351-.424 0-.784.117-1.079.351a1.664 1.664 0 0 0-.598.923c-.069.303-.104.741-.104 1.313s.035 1.01.104 1.313c.096.39.291.702.585.936.304.225.672.338 1.105.338zm9.619-3.692c.035.243.052.546.052.91v.416c0 .087-.043.13-.13.13h-4.199c-.034 0-.052.017-.052.052.018.477.044.784.078.923.096.39.299.698.611.923.312.225.711.338 1.196.338.364 0 .685-.082.962-.247.278-.165.494-.399.65-.702.052-.078.113-.095.182-.052l.507.299c.07.043.087.104.052.182a2.373 2.373 0 0 1-.975.988c-.433.234-.931.351-1.495.351-.615-.009-1.131-.156-1.547-.442a2.372 2.372 0 0 1-.897-1.196c-.156-.416-.234-1.014-.234-1.794 0-.364.005-.659.013-.884.018-.234.052-.442.104-.624a2.425 2.425 0 0 1 .884-1.352c.451-.338.993-.507 1.625-.507.789 0 1.396.199 1.82.598.425.399.689.962.793 1.69zm-2.613-1.482c-.424 0-.78.113-1.066.338a1.522 1.522 0 0 0-.546.884c-.052.182-.086.477-.104.884 0 .035.018.052.052.052h3.367c.035 0 .052-.017.052-.052a5.75 5.75 0 0 0-.078-.832 1.595 1.595 0 0 0-.585-.923c-.286-.234-.65-.351-1.092-.351z"/><g clip-path="url(#b)"><path fill="#FFD115" d="M59.064 277.348l-1.275 2.586-2.854.416a.625.625 0 0 0-.346 1.066l2.065 2.012-.489 2.842a.625.625 0 0 0 .907.658l2.552-1.342 2.553 1.342a.625.625 0 0 0 .907-.658l-.489-2.842 2.065-2.012a.625.625 0 0 0-.346-1.066l-2.853-.416-1.276-2.586a.625.625 0 0 0-1.121 0z"/></g><g clip-path="url(#c)"><path fill="#FFD115" d="M76.064 277.348l-1.275 2.586-2.854.416a.625.625 0 0 0-.346 1.066l2.065 2.012-.489 2.842a.625.625 0 0 0 .907.658l2.552-1.342 2.553 1.342a.625.625 0 0 0 .906-.658l-.488-2.842 2.065-2.012a.625.625 0 0 0-.346-1.066l-2.853-.416-1.276-2.586a.625.625 0 0 0-1.121 0z"/></g><g clip-path="url(#d)"><path fill="#FFD115" d="M93.064 277.348l-1.275 2.586-2.854.416a.625.625 0 0 0-.346 1.066l2.065 2.012-.489 2.842a.625.625 0 0 0 .907.658l2.552-1.342 2.553 1.342a.625.625 0 0 0 .906-.658l-.488-2.842 2.065-2.012a.625.625 0 0 0-.346-1.066l-2.853-.416-1.276-2.586a.625.625 0 0 0-1.121 0z"/></g><g clip-path="url(#e)"><path fill="#FFD115" d="M110.064 277.348l-1.275 2.586-2.854.416a.625.625 0 0 0-.346 1.066l2.065 2.012-.488 2.842a.625.625 0 0 0 .906.658l2.553-1.342 2.552 1.342a.626.626 0 0 0 .907-.658l-.489-2.842 2.065-2.012a.625.625 0 0 0-.346-1.066l-2.854-.416-1.275-2.586a.625.625 0 0 0-1.121 0z"/></g><g clip-path="url(#f)"><path fill="#FFD115" d="M131.933 280.35l-2.859-.416-1.277-2.586a.622.622 0 0 0-.563-.348.617.617 0 0 0-.561.348l-1.278 2.585-2.859.416a.625.625 0 0 0-.346 1.066l2.068 2.012-.489 2.842a.626.626 0 0 0 .907.658l2.558-1.342 2.557 1.342a.626.626 0 0 0 .908-.658l-.488-2.841 2.068-2.012a.624.624 0 0 0-.346-1.066zm-2.378 2.406l-.354.344.084.486.381 2.216-1.995-1.047-.437-.229.001-6.195.996 2.017.219.442.488.071 2.231.325-1.614 1.57z"/></g><path fill="#000" d="M146.526 288c-.078 0-.13-.03-.156-.091l-1.911-4.03c-.009-.026-.026-.039-.052-.039h-2.21c-.035 0-.052.017-.052.052v3.978c0 .087-.043.13-.13.13h-.663c-.087 0-.13-.043-.13-.13v-8.84c0-.087.043-.13.13-.13h3.367c.745 0 1.348.234 1.807.702.459.459.689 1.062.689 1.807 0 .607-.165 1.122-.494 1.547-.329.425-.776.698-1.339.819-.035.017-.043.039-.026.065l1.95 4.004a.14.14 0 0 1 .013.065c0 .061-.035.091-.104.091h-.689zm-4.329-8.294c-.035 0-.052.017-.052.052v3.289c0 .035.017.052.052.052h2.418c.503 0 .91-.156 1.222-.468.312-.312.468-.719.468-1.222s-.156-.91-.468-1.222c-.312-.321-.719-.481-1.222-.481h-2.418zm9.078 1.612c.78 0 1.382.199 1.807.598.425.399.637.927.637 1.586v4.368c0 .087-.043.13-.13.13h-.663c-.087 0-.13-.043-.13-.13v-.533c0-.017-.009-.03-.026-.039-.009-.009-.022-.004-.039.013-.217.26-.498.459-.845.598-.347.13-.732.195-1.157.195-.615 0-1.131-.156-1.547-.468-.416-.312-.624-.789-.624-1.43 0-.65.234-1.161.702-1.534.477-.381 1.135-.572 1.976-.572h1.508c.035 0 .052-.017.052-.052v-.494c0-.442-.126-.789-.377-1.04-.243-.26-.624-.39-1.144-.39-.416 0-.754.082-1.014.247a.986.986 0 0 0-.481.663c-.026.087-.078.126-.156.117l-.702-.091c-.095-.017-.134-.052-.117-.104.069-.485.329-.88.78-1.183.451-.303 1.014-.455 1.69-.455zm-.364 5.993c.511 0 .953-.126 1.326-.377.373-.26.559-.607.559-1.04v-1.014c0-.035-.017-.052-.052-.052h-1.365c-.572 0-1.031.117-1.378.351-.347.234-.52.559-.52.975 0 .381.13.672.39.871.269.191.615.286 1.04.286zm7.629-5.252c0 .087-.044.13-.13.13h-1.469c-.035 0-.052.017-.052.052v3.835c0 .416.091.711.273.884.19.165.485.247.884.247h.325c.086 0 .13.043.13.13v.533c0 .087-.044.13-.13.13a6.227 6.227 0 0 1-.481.013c-.624 0-1.097-.117-1.417-.351-.321-.234-.481-.667-.481-1.3v-4.121c0-.035-.018-.052-.052-.052h-.793c-.087 0-.13-.043-.13-.13v-.507c0-.087.043-.13.13-.13h.793c.034 0 .052-.017.052-.052v-1.508c0-.087.043-.13.13-.13h.637c.086 0 .13.043.13.13v1.508c0 .035.017.052.052.052h1.469c.086 0 .13.043.13.13v.507zm2.408-1.833a.709.709 0 0 1-.728-.728c0-.217.07-.39.208-.52a.705.705 0 0 1 .52-.208c.208 0 .382.069.52.208.139.13.208.303.208.52a.705.705 0 0 1-.208.52.703.703 0 0 1-.52.208zm-.364 7.761c-.086 0-.13-.043-.13-.13v-6.318c0-.087.044-.13.13-.13h.663c.087 0 .13.043.13.13v6.318c0 .087-.043.13-.13.13h-.663zm5.784-6.656c.693 0 1.243.204 1.651.611.416.407.624.953.624 1.638v4.29c0 .087-.044.13-.13.13h-.663c-.087 0-.13-.043-.13-.13v-4.108c0-.477-.148-.867-.442-1.17-.286-.303-.659-.455-1.118-.455-.477 0-.863.147-1.157.442-.295.295-.442.68-.442 1.157v4.134c0 .087-.044.13-.13.13h-.663c-.087 0-.13-.043-.13-.13v-6.318c0-.087.043-.13.13-.13h.663c.086 0 .13.043.13.13v.559c0 .017.004.03.013.039.017.009.03.004.039-.013.381-.537.966-.806 1.755-.806zm8.333.221c0-.087.044-.13.13-.13h.663c.087 0 .13.043.13.13v6.227c0 .971-.281 1.681-.845 2.132-.554.451-1.321.676-2.301.676-.199 0-.351-.004-.455-.013-.086-.009-.13-.056-.13-.143l.026-.598c0-.043.013-.078.039-.104a.11.11 0 0 1 .091-.013l.351.013c.806 0 1.391-.16 1.755-.481.364-.312.546-.81.546-1.495v-.481c0-.017-.008-.026-.026-.026-.008-.009-.021-.004-.039.013-.398.52-.966.78-1.703.78a2.605 2.605 0 0 1-1.508-.455c-.433-.303-.723-.732-.871-1.287-.104-.355-.156-.884-.156-1.586 0-.381.009-.702.026-.962.026-.26.074-.494.143-.702.156-.52.438-.936.845-1.248.408-.321.897-.481 1.469-.481.772 0 1.357.256 1.755.767.018.017.031.022.039.013.018-.009.026-.022.026-.039v-.507zm-.065 4.459c.026-.13.044-.29.052-.481.009-.191.013-.468.013-.832 0-.442-.004-.737-.013-.884a2.054 2.054 0 0 0-.065-.429 1.503 1.503 0 0 0-.52-.897c-.268-.243-.611-.364-1.027-.364-.407 0-.754.117-1.04.351a1.87 1.87 0 0 0-.585.91c-.086.277-.13.711-.13 1.3 0 .633.044 1.07.13 1.313.087.364.273.667.559.91.295.234.65.351 1.066.351.425 0 .772-.117 1.04-.351.278-.234.451-.533.52-.897zm4.124-2.561a.719.719 0 0 1-.533-.208.731.731 0 0 1-.195-.52c0-.217.065-.39.195-.52a.719.719 0 0 1 .533-.208c.208 0 .381.069.52.208a.68.68 0 0 1 .208.52.709.709 0 0 1-.728.728zm0 4.381a.719.719 0 0 1-.533-.208.731.731 0 0 1-.195-.52c0-.217.065-.39.195-.52a.719.719 0 0 1 .533-.208c.208 0 .381.069.52.208a.68.68 0 0 1 .208.52.709.709 0 0 1-.728.728zm11.05-3.172c.087 0 .13.043.13.13v.572c0 .087-.043.13-.13.13h-.559c-.034 0-.052.017-.052.052v2.327c0 .087-.043.13-.13.13h-.663c-.086 0-.13-.043-.13-.13v-2.327c0-.035-.017-.052-.052-.052h-3.887c-.086 0-.13-.043-.13-.13v-.481c0-.043.013-.095.039-.156l2.665-5.733c.026-.061.074-.091.143-.091h.689c.044 0 .074.017.091.052.026.026.031.061.013.104l-2.587 5.538a.06.06 0 0 0 0 .052c.009.009.022.013.039.013h2.925c.035 0 .052-.017.052-.052v-2.093c0-.087.044-.13.13-.13h.663c.087 0 .13.043.13.13v2.093c0 .035.018.052.052.052h.559zm2.714 3.315a.722.722 0 0 1-.533-.208.731.731 0 0 1-.195-.52c0-.217.065-.39.195-.52a.722.722 0 0 1 .533-.208c.208 0 .382.069.52.208.139.13.208.303.208.52a.705.705 0 0 1-.208.52.703.703 0 0 1-.52.208zm7.74-3.952c.078.381.117.771.117 1.17 0 .425-.039.789-.117 1.092a2.357 2.357 0 0 1-.884 1.326c-.442.321-.975.481-1.599.481-.616 0-1.14-.156-1.573-.468a2.311 2.311 0 0 1-.884-1.248 2.644 2.644 0 0 1-.117-.572v-.026c0-.069.039-.104.117-.104h.689c.086 0 .134.043.143.13 0 .052.017.139.052.26a1.6 1.6 0 0 0 .533.897c.277.217.619.325 1.027.325.416 0 .762-.117 1.04-.351.286-.234.472-.555.559-.962.052-.199.078-.459.078-.78 0-.295-.022-.576-.065-.845-.061-.399-.234-.702-.52-.91-.286-.208-.642-.312-1.066-.312-.382 0-.724.087-1.027.26-.304.173-.499.403-.585.689-.026.078-.074.117-.143.117h-.702c-.087 0-.13-.043-.13-.13v-5.031c0-.087.043-.13.13-.13h4.55c.086 0 .13.043.13.13v.546c0 .087-.044.13-.13.13h-3.705c-.035 0-.052.017-.052.052l-.013 3.146c0 .017.004.03.013.039.017.009.034.004.052-.013.216-.199.472-.351.767-.455.294-.113.606-.169.936-.169.615 0 1.135.152 1.56.455.424.295.697.715.819 1.261zm4.002.338c-.087 0-.13-.043-.13-.13v-.546c0-.087.043-.13.13-.13h3.848c.087 0 .13.043.13.13v.546c0 .087-.043.13-.13.13h-3.848zm9.422-5.421a.372.372 0 0 1 .169-.039h.702c.086 0 .13.043.13.13v8.84c0 .087-.044.13-.13.13h-.663c-.087 0-.13-.043-.13-.13v-7.917c0-.017-.009-.03-.026-.039-.009-.009-.022-.009-.039 0l-1.378.559-.052.013c-.052 0-.087-.035-.104-.104l-.065-.494v-.026c0-.043.03-.087.091-.13l1.495-.793zm7.795 4.758c.173.425.26.932.26 1.521 0 .477-.065.897-.195 1.261-.174.52-.468.923-.884 1.209-.408.277-.915.416-1.521.416-.607 0-1.127-.156-1.56-.468a2.442 2.442 0 0 1-.897-1.287c-.078-.243-.126-.572-.143-.988 0-.087.043-.13.13-.13h.663c.086 0 .13.043.13.13.017.251.047.485.091.702.095.381.277.685.546.91.277.217.619.325 1.027.325.78 0 1.287-.347 1.521-1.04.104-.286.156-.641.156-1.066 0-.52-.07-.945-.208-1.274-.278-.624-.767-.936-1.469-.936-.13 0-.291.048-.481.143a.209.209 0 0 1-.078.026c-.035 0-.065-.022-.091-.065l-.338-.455c-.044-.069-.039-.13.013-.182l2.288-2.678c.026-.043.017-.065-.026-.065h-3.666c-.087 0-.13-.043-.13-.13v-.546c0-.087.043-.13.13-.13h4.81c.086 0 .13.043.13.13v.637c0 .043-.022.095-.065.156l-2.08 2.496c-.018.017-.022.035-.013.052.008.009.026.013.052.013.927.061 1.56.498 1.898 1.313zm7.015.325c.078.381.117.771.117 1.17 0 .425-.039.789-.117 1.092a2.352 2.352 0 0 1-.884 1.326c-.442.321-.975.481-1.599.481-.615 0-1.14-.156-1.573-.468a2.316 2.316 0 0 1-.884-1.248 2.644 2.644 0 0 1-.117-.572v-.026c0-.069.039-.104.117-.104h.689c.087 0 .134.043.143.13 0 .052.017.139.052.26.087.373.264.672.533.897.277.217.62.325 1.027.325.416 0 .763-.117 1.04-.351.286-.234.472-.555.559-.962.052-.199.078-.459.078-.78 0-.295-.022-.576-.065-.845-.061-.399-.234-.702-.52-.91-.286-.208-.641-.312-1.066-.312-.381 0-.724.087-1.027.26-.303.173-.498.403-.585.689-.026.078-.074.117-.143.117h-.702c-.087 0-.13-.043-.13-.13v-5.031c0-.087.043-.13.13-.13h4.55c.087 0 .13.043.13.13v.546c0 .087-.043.13-.13.13h-3.705c-.035 0-.052.017-.052.052l-.013 3.146c0 .017.004.03.013.039.017.009.035.004.052-.013.217-.199.472-.351.767-.455.295-.113.607-.169.936-.169.615 0 1.135.152 1.56.455.425.295.698.715.819 1.261zm9.891 3.978c-.078 0-.13-.03-.156-.091l-1.911-4.03c-.008-.026-.026-.039-.052-.039h-2.21c-.034 0-.052.017-.052.052v3.978c0 .087-.043.13-.13.13h-.663c-.086 0-.13-.043-.13-.13v-8.84c0-.087.044-.13.13-.13h3.367c.746 0 1.348.234 1.807.702.46.459.689 1.062.689 1.807 0 .607-.164 1.122-.494 1.547-.329.425-.775.698-1.339.819-.034.017-.043.039-.026.065l1.95 4.004a.14.14 0 0 1 .013.065c0 .061-.034.091-.104.091h-.689zm-4.329-8.294c-.034 0-.052.017-.052.052v3.289c0 .035.018.052.052.052h2.418c.503 0 .91-.156 1.222-.468.312-.312.468-.719.468-1.222s-.156-.91-.468-1.222c-.312-.321-.719-.481-1.222-.481h-2.418zm11.809 3.9c.035.243.052.546.052.91v.416c0 .087-.043.13-.13.13h-4.199c-.035 0-.052.017-.052.052.017.477.043.784.078.923.095.39.299.698.611.923.312.225.711.338 1.196.338.364 0 .685-.082.962-.247.277-.165.494-.399.65-.702.052-.078.113-.095.182-.052l.507.299c.069.043.087.104.052.182a2.384 2.384 0 0 1-.975.988c-.433.234-.932.351-1.495.351-.615-.009-1.131-.156-1.547-.442a2.372 2.372 0 0 1-.897-1.196c-.156-.416-.234-1.014-.234-1.794 0-.364.004-.659.013-.884.017-.234.052-.442.104-.624a2.42 2.42 0 0 1 .884-1.352c.451-.338.992-.507 1.625-.507.789 0 1.395.199 1.82.598.425.399.689.962.793 1.69zm-2.613-1.482c-.425 0-.78.113-1.066.338a1.522 1.522 0 0 0-.546.884c-.052.182-.087.477-.104.884 0 .035.017.052.052.052h3.367c.035 0 .052-.017.052-.052a5.75 5.75 0 0 0-.078-.832 1.595 1.595 0 0 0-.585-.923c-.286-.234-.65-.351-1.092-.351zm6.013 5.876c-.078 0-.13-.035-.156-.104l-2.132-6.331-.013-.052c0-.061.039-.091.117-.091h.741c.078 0 .13.035.156.104l1.625 5.096c.008.017.021.026.039.026.017 0 .03-.009.039-.026l1.625-5.096c.026-.069.078-.104.156-.104l.741.013c.095 0 .13.048.104.143l-2.132 6.318c-.026.069-.078.104-.156.104h-.754zm5.117-7.774a.703.703 0 0 1-.52-.208.705.705 0 0 1-.208-.52c0-.217.069-.39.208-.52a.703.703 0 0 1 .52-.208c.208 0 .381.069.52.208a.68.68 0 0 1 .208.52.709.709 0 0 1-.728.728zm-.364 7.761c-.087 0-.13-.043-.13-.13v-6.318c0-.087.043-.13.13-.13h.663c.086 0 .13.043.13.13v6.318c0 .087-.044.13-.13.13h-.663zm8.097-4.381c.035.243.052.546.052.91v.416c0 .087-.043.13-.13.13h-4.199c-.035 0-.052.017-.052.052.017.477.043.784.078.923.095.39.299.698.611.923.312.225.711.338 1.196.338.364 0 .685-.082.962-.247.277-.165.494-.399.65-.702.052-.078.113-.095.182-.052l.507.299c.069.043.087.104.052.182a2.384 2.384 0 0 1-.975.988c-.433.234-.932.351-1.495.351-.615-.009-1.131-.156-1.547-.442a2.372 2.372 0 0 1-.897-1.196c-.156-.416-.234-1.014-.234-1.794 0-.364.004-.659.013-.884.017-.234.052-.442.104-.624a2.42 2.42 0 0 1 .884-1.352c.451-.338.992-.507 1.625-.507.789 0 1.395.199 1.82.598.425.399.689.962.793 1.69zm-2.613-1.482c-.425 0-.78.113-1.066.338a1.522 1.522 0 0 0-.546.884c-.052.182-.087.477-.104.884 0 .035.017.052.052.052h3.367c.035 0 .052-.017.052-.052a5.75 5.75 0 0 0-.078-.832 1.595 1.595 0 0 0-.585-.923c-.286-.234-.65-.351-1.092-.351zm5.701 5.876c-.07 0-.117-.035-.143-.104l-1.846-6.331-.013-.039c0-.069.043-.104.13-.104h.676c.078 0 .125.039.143.117l1.378 5.122c.008.017.017.026.026.026.017 0 .03-.009.039-.026l1.404-5.122c.017-.078.065-.117.143-.117h.624c.078 0 .125.035.143.104l1.417 5.122c.008.017.021.026.039.026.017 0 .03-.009.039-.026l1.417-5.109c.017-.078.065-.117.143-.117l.676.013c.043 0 .073.013.091.039.026.026.034.061.026.104l-1.872 6.318c-.026.069-.074.104-.143.104h-.689c-.07 0-.117-.035-.143-.104l-1.417-4.862c-.009-.017-.022-.026-.039-.026-.009 0-.018.009-.026.026l-1.378 4.862c-.026.069-.074.104-.143.104h-.702zm9.756.065c-.486 0-.919-.078-1.3-.234-.373-.156-.663-.364-.871-.624-.2-.26-.299-.55-.299-.871v-.156c0-.087.043-.13.13-.13h.624c.086 0 .13.043.13.13v.104c0 .286.147.537.442.754.303.208.68.312 1.131.312.45 0 .814-.1 1.092-.299.277-.208.416-.468.416-.78a.7.7 0 0 0-.221-.533 1.459 1.459 0 0 0-.507-.325c-.191-.078-.49-.178-.897-.299a9.273 9.273 0 0 1-1.196-.416 2.294 2.294 0 0 1-.793-.572c-.208-.251-.312-.568-.312-.949 0-.555.216-.997.65-1.326.433-.329 1.005-.494 1.716-.494.476 0 .897.078 1.261.234.372.156.658.373.858.65.199.269.299.572.299.91v.039c0 .087-.044.13-.13.13h-.611c-.087 0-.13-.043-.13-.13v-.039c0-.295-.143-.542-.429-.741-.278-.199-.655-.299-1.131-.299-.442 0-.798.091-1.066.273a.82.82 0 0 0-.403.728c0 .295.13.52.39.676.26.156.663.312 1.209.468.502.147.91.286 1.222.416.312.13.58.321.806.572.225.243.338.563.338.962 0 .563-.221 1.014-.663 1.352-.442.338-1.027.507-1.755.507zm6.3-3.705c-.087 0-.13-.043-.13-.13v-.546c0-.087.043-.13.13-.13h3.848c.087 0 .13.043.13.13v.546c0 .087-.043.13-.13.13h-3.848zm13.634 1.352c0 .659-.217 1.2-.65 1.625-.425.425-1.023.676-1.794.754-.035 0-.052.017-.052.052l.013.936c0 .087-.044.13-.13.13h-.572c-.087 0-.13-.043-.13-.13l.013-.936c0-.035-.018-.052-.052-.052-.789-.087-1.404-.342-1.846-.767-.442-.433-.663-.984-.663-1.651v-.403c0-.087.043-.13.13-.13h.585c.086 0 .13.043.13.13v.351c0 .503.195.91.585 1.222.398.303.944.455 1.638.455.624 0 1.1-.139 1.43-.416.329-.286.494-.663.494-1.131a1.3 1.3 0 0 0-.234-.78c-.148-.217-.377-.42-.689-.611-.312-.191-.759-.412-1.339-.663a14.13 14.13 0 0 1-1.443-.676 2.716 2.716 0 0 1-.819-.754c-.208-.312-.312-.702-.312-1.17 0-.667.203-1.196.611-1.586.407-.399.97-.633 1.69-.702.034 0 .052-.017.052-.052l-.013-1.014c0-.087.043-.13.13-.13h.559c.086 0 .13.043.13.13l-.013 1.027c0 .035.017.052.052.052.762.087 1.36.347 1.794.78.433.433.65.988.65 1.664v.286c0 .087-.044.13-.13.13h-.611c-.087 0-.13-.043-.13-.13v-.234c0-.503-.187-.914-.559-1.235-.373-.321-.889-.481-1.547-.481-.581 0-1.027.126-1.339.377-.312.251-.468.615-.468 1.092 0 .312.073.572.221.78.156.199.372.377.65.533a18.6 18.6 0 0 0 1.313.585c.598.26 1.079.503 1.443.728.372.225.667.503.884.832.225.321.338.715.338 1.183zm6.481-5.213c.104.347.156.754.156 1.222v4.056c0 .711-.234 1.278-.702 1.703-.468.416-1.079.624-1.833.624-.728 0-1.321-.204-1.781-.611-.45-.416-.676-.953-.676-1.612v-.182c0-.087.044-.13.13-.13h.663c.087 0 .13.043.13.13v.104c0 .442.143.802.429 1.079.286.277.655.416 1.105.416.468 0 .854-.143 1.157-.429.304-.295.455-.68.455-1.157v-1.898c0-.017-.008-.026-.026-.026-.017-.009-.03-.004-.039.013-.381.511-.953.767-1.716.767-.546 0-1.005-.121-1.378-.364a2.29 2.29 0 0 1-.832-1.027c-.182-.364-.273-.858-.273-1.482 0-.529.065-.962.195-1.3.182-.503.473-.893.871-1.17.408-.277.906-.416 1.495-.416.624 0 1.149.152 1.573.455.434.295.733.706.897 1.235zm-2.431 3.263c.382 0 .702-.091.962-.273.269-.191.455-.451.559-.78.096-.251.143-.602.143-1.053 0-.373-.039-.689-.117-.949a1.535 1.535 0 0 0-.559-.793c-.268-.199-.598-.299-.988-.299-.372 0-.693.095-.962.286-.268.182-.459.451-.572.806-.095.243-.143.572-.143.988 0 .442.057.789.169 1.04.104.312.286.563.546.754.26.182.581.273.962.273zm9.211-3.263c.104.347.156.754.156 1.222v4.056c0 .711-.234 1.278-.702 1.703-.468.416-1.079.624-1.833.624-.728 0-1.322-.204-1.781-.611-.451-.416-.676-.953-.676-1.612v-.182c0-.087.043-.13.13-.13h.663c.086 0 .13.043.13.13v.104c0 .442.143.802.429 1.079.286.277.654.416 1.105.416.468 0 .853-.143 1.157-.429.303-.295.455-.68.455-1.157v-1.898c0-.017-.009-.026-.026-.026-.018-.009-.031-.004-.039.013-.382.511-.954.767-1.716.767-.546 0-1.006-.121-1.378-.364a2.283 2.283 0 0 1-.832-1.027c-.182-.364-.273-.858-.273-1.482 0-.529.065-.962.195-1.3.182-.503.472-.893.871-1.17.407-.277.905-.416 1.495-.416.624 0 1.148.152 1.573.455.433.295.732.706.897 1.235zm-2.431 3.263c.381 0 .702-.091.962-.273.268-.191.455-.451.559-.78.095-.251.143-.602.143-1.053 0-.373-.039-.689-.117-.949a1.54 1.54 0 0 0-.559-.793c-.269-.199-.598-.299-.988-.299-.373 0-.694.095-.962.286-.269.182-.46.451-.572.806-.096.243-.143.572-.143.988 0 .442.056.789.169 1.04.104.312.286.563.546.754.26.182.58.273.962.273zm5.232 4.212a.72.72 0 0 1-.533-.208.731.731 0 0 1-.195-.52c0-.217.065-.39.195-.52a.72.72 0 0 1 .533-.208c.208 0 .381.069.52.208.139.13.208.303.208.52a.705.705 0 0 1-.208.52.705.705 0 0 1-.52.208zm7.596-7.475c.104.347.156.754.156 1.222v4.056c0 .711-.234 1.278-.702 1.703-.468.416-1.079.624-1.833.624-.728 0-1.321-.204-1.781-.611-.45-.416-.676-.953-.676-1.612v-.182c0-.087.044-.13.13-.13h.663c.087 0 .13.043.13.13v.104c0 .442.143.802.429 1.079.286.277.655.416 1.105.416.468 0 .854-.143 1.157-.429.304-.295.455-.68.455-1.157v-1.898c0-.017-.008-.026-.026-.026-.017-.009-.03-.004-.039.013-.381.511-.953.767-1.716.767-.546 0-1.005-.121-1.378-.364a2.29 2.29 0 0 1-.832-1.027c-.182-.364-.273-.858-.273-1.482 0-.529.065-.962.195-1.3.182-.503.473-.893.871-1.17.408-.277.906-.416 1.495-.416.624 0 1.149.152 1.573.455.434.295.733.706.897 1.235zm-2.431 3.263c.382 0 .702-.091.962-.273.269-.191.455-.451.559-.78.096-.251.143-.602.143-1.053 0-.373-.039-.689-.117-.949a1.535 1.535 0 0 0-.559-.793c-.268-.199-.598-.299-.988-.299-.372 0-.693.095-.962.286-.268.182-.459.451-.572.806-.095.243-.143.572-.143.988 0 .442.057.789.169 1.04.104.312.286.563.546.754.26.182.581.273.962.273zm9.354.26c.078.381.117.771.117 1.17 0 .425-.039.789-.117 1.092a2.357 2.357 0 0 1-.884 1.326c-.442.321-.975.481-1.6.481-.615 0-1.139-.156-1.572-.468a2.311 2.311 0 0 1-.884-1.248 2.707 2.707 0 0 1-.118-.572v-.026c0-.069.04-.104.118-.104h.689c.086 0 .134.043.143.13 0 .052.017.139.052.26a1.6 1.6 0 0 0 .533.897c.277.217.619.325 1.027.325.416 0 .762-.117 1.04-.351.286-.234.472-.555.559-.962.052-.199.078-.459.078-.78 0-.295-.022-.576-.065-.845-.061-.399-.234-.702-.52-.91-.286-.208-.642-.312-1.066-.312-.382 0-.724.087-1.027.26-.304.173-.499.403-.585.689-.026.078-.074.117-.143.117h-.702c-.087 0-.131-.043-.131-.13v-5.031c0-.087.044-.13.131-.13h4.55c.086 0 .13.043.13.13v.546c0 .087-.044.13-.13.13h-3.705c-.035 0-.052.017-.052.052l-.013 3.146c0 .017.004.03.013.039.017.009.034.004.052-.013.216-.199.472-.351.767-.455.294-.113.606-.169.936-.169.615 0 1.135.152 1.56.455.424.295.697.715.819 1.261zm4.002.338c-.087 0-.13-.043-.13-.13v-.546c0-.087.043-.13.13-.13h3.848c.086 0 .13.043.13.13v.546c0 .087-.044.13-.13.13h-3.848zm8.434 3.64c-.087 0-.13-.043-.13-.13v-8.84c0-.087.043-.13.13-.13h.663c.086 0 .13.043.13.13v8.84c0 .087-.044.13-.13.13h-.663zm5.782-6.669c.693 0 1.243.204 1.651.611.416.407.624.953.624 1.638v4.29c0 .087-.044.13-.13.13h-.663c-.087 0-.13-.043-.13-.13v-4.108c0-.477-.148-.867-.442-1.17-.286-.303-.659-.455-1.118-.455-.477 0-.863.147-1.157.442-.295.295-.442.68-.442 1.157v4.134c0 .087-.044.13-.13.13h-.663c-.087 0-.13-.043-.13-.13v-6.318c0-.087.043-.13.13-.13h.663c.086 0 .13.043.13.13v.559c0 .017.004.03.013.039.017.009.03.004.039-.013.381-.537.966-.806 1.755-.806zm9.038 6.734c-.485 0-.919-.078-1.3-.234-.373-.156-.663-.364-.871-.624a1.398 1.398 0 0 1-.299-.871v-.156c0-.087.043-.13.13-.13h.624c.087 0 .13.043.13.13v.104c0 .286.147.537.442.754.303.208.68.312 1.131.312.451 0 .815-.1 1.092-.299.277-.208.416-.468.416-.78a.7.7 0 0 0-.221-.533 1.459 1.459 0 0 0-.507-.325c-.191-.078-.49-.178-.897-.299a9.327 9.327 0 0 1-1.196-.416 2.303 2.303 0 0 1-.793-.572c-.208-.251-.312-.568-.312-.949 0-.555.217-.997.65-1.326.433-.329 1.005-.494 1.716-.494.477 0 .897.078 1.261.234.373.156.659.373.858.65.199.269.299.572.299.91v.039c0 .087-.043.13-.13.13h-.611c-.087 0-.13-.043-.13-.13v-.039c0-.295-.143-.542-.429-.741-.277-.199-.654-.299-1.131-.299-.442 0-.797.091-1.066.273a.82.82 0 0 0-.403.728c0 .295.13.52.39.676.26.156.663.312 1.209.468.503.147.91.286 1.222.416.312.13.581.321.806.572.225.243.338.563.338.962 0 .563-.221 1.014-.663 1.352-.442.338-1.027.507-1.755.507zm7.039-6.006c0 .087-.043.13-.13.13h-1.469c-.034 0-.052.017-.052.052v3.835c0 .416.091.711.273.884.191.165.486.247.884.247h.325c.087 0 .13.043.13.13v.533c0 .087-.043.13-.13.13a6.21 6.21 0 0 1-.481.013c-.624 0-1.096-.117-1.417-.351-.32-.234-.481-.667-.481-1.3v-4.121c0-.035-.017-.052-.052-.052h-.793c-.086 0-.13-.043-.13-.13v-.507c0-.087.044-.13.13-.13h.793c.035 0 .052-.017.052-.052v-1.508c0-.087.044-.13.13-.13h.637c.087 0 .13.043.13.13v1.508c0 .035.018.052.052.052h1.469c.087 0 .13.043.13.13v.507zm4.103 6.045c-.624 0-1.161-.16-1.612-.481a2.463 2.463 0 0 1-.936-1.326c-.121-.399-.182-.932-.182-1.599 0-.667.061-1.196.182-1.586.165-.555.472-.992.923-1.313.451-.321.997-.481 1.638-.481.615 0 1.144.16 1.586.481a2.4 2.4 0 0 1 .923 1.3c.121.373.182.906.182 1.599 0 .702-.061 1.235-.182 1.599-.165.563-.472 1.005-.923 1.326-.442.321-.975.481-1.599.481zm0-.806c.416 0 .771-.113 1.066-.338.295-.234.494-.546.598-.936.078-.312.117-.75.117-1.313 0-.572-.035-1.01-.104-1.313a1.637 1.637 0 0 0-.611-.923c-.295-.234-.654-.351-1.079-.351-.425 0-.784.117-1.079.351a1.659 1.659 0 0 0-.598.923c-.069.303-.104.741-.104 1.313s.035 1.01.104 1.313c.095.39.29.702.585.936.303.225.672.338 1.105.338zm7.058.806c-.624 0-1.161-.16-1.612-.481a2.486 2.486 0 0 1-.91-1.326c-.113-.381-.169-.919-.169-1.612 0-.624.056-1.153.169-1.586.156-.537.459-.966.91-1.287.451-.329.988-.494 1.612-.494.633 0 1.179.16 1.638.481.468.321.771.719.91 1.196.043.156.069.286.078.39v.026c0 .061-.039.1-.117.117l-.65.091h-.026c-.061 0-.1-.039-.117-.117l-.039-.195c-.078-.329-.269-.607-.572-.832-.303-.234-.672-.351-1.105-.351-.433 0-.797.117-1.092.351a1.56 1.56 0 0 0-.559.91c-.078.329-.117.767-.117 1.313 0 .572.039 1.014.117 1.326.087.39.273.702.559.936.295.225.659.338 1.092.338.425 0 .789-.108 1.092-.325a1.42 1.42 0 0 0 .585-.858v-.052l.013-.052c.009-.087.061-.121.156-.104l.637.104c.087.017.126.065.117.143l-.052.26c-.13.503-.429.91-.897 1.222-.468.312-1.018.468-1.651.468zm4.401-.104c-.087 0-.13-.043-.13-.13v-8.84c0-.087.043-.13.13-.13h.663c.087 0 .13.043.13.13v5.317c0 .017.004.03.013.039.017.009.035.004.052-.013l2.756-2.886a.213.213 0 0 1 .156-.065h.78c.052 0 .087.017.104.052.017.035.009.069-.026.104l-1.664 1.846c-.017.017-.022.039-.013.065l1.989 4.355.013.052c0 .069-.039.104-.117.104h-.702c-.069 0-.117-.035-.143-.104l-1.677-3.796c-.017-.035-.039-.039-.065-.013l-1.43 1.508a.089.089 0 0 0-.026.065v2.21c0 .087-.043.13-.13.13h-.663z"/><rect width="278" height="6" x="54" y="303" fill="#E5E5E5" rx="3"/><rect width="255" height="6" x="54" y="319" fill="#E5E5E5" rx="3"/><rect width="158.5" height="31.5" x="297.25" y="79.25" fill="#F3F3F8" stroke="#8187B2" stroke-width=".5" rx="4.75"/><path fill="#62699F" d="M437 100l-3-4h6l-3 4zm0-10l3 4h-6l3-4zm-120.184 9.072c-.632 0-1.2-.14-1.704-.42-.504-.28-.9-.664-1.188-1.152a3.357 3.357 0 0 1-.42-1.68c0-.624.14-1.18.42-1.668.288-.496.684-.88 1.188-1.152a3.449 3.449 0 0 1 1.704-.42c.632 0 1.196.14 1.692.42.504.272.896.656 1.176 1.152.288.488.432 1.044.432 1.668 0 .624-.144 1.184-.432 1.68-.28.488-.672.872-1.176 1.152-.496.28-1.06.42-1.692.42zm0-1.008a2.15 2.15 0 0 0 1.092-.276 2.03 2.03 0 0 0 .768-.792c.184-.344.276-.736.276-1.176 0-.44-.092-.828-.276-1.164a1.93 1.93 0 0 0-.768-.792 2.15 2.15 0 0 0-1.092-.276c-.408 0-.776.092-1.104.276-.32.184-.576.448-.768.792a2.385 2.385 0 0 0-.276 1.164c0 .44.092.832.276 1.176.192.336.448.6.768.792.328.184.696.276 1.104.276zm8.289-5.484c.808 0 1.448.236 1.92.708.48.464.72 1.148.72 2.052V99h-1.152v-3.528c0-.616-.148-1.08-.444-1.392-.296-.312-.72-.468-1.272-.468-.624 0-1.116.184-1.476.552-.36.36-.54.88-.54 1.56V99h-1.152v-6.36h1.104v.96c.232-.328.544-.58.936-.756.4-.176.852-.264 1.356-.264z"/><path fill="#6577AA" d="M43.128 90.6L40.32 99h-1.26l-2.292-6.708L34.476 99h-1.284l-2.808-8.4h1.236l2.268 6.828 2.364-6.828h1.104l2.316 6.864 2.316-6.864h1.14zm3.544 8.472c-.633 0-1.2-.14-1.704-.42-.505-.28-.9-.664-1.189-1.152a3.357 3.357 0 0 1-.42-1.68c0-.624.14-1.18.42-1.668.288-.496.684-.88 1.188-1.152a3.449 3.449 0 0 1 1.705-.42c.632 0 1.196.14 1.692.42.504.272.896.656 1.175 1.152.288.488.432 1.044.432 1.668 0 .624-.143 1.184-.431 1.68-.28.488-.672.872-1.176 1.152-.496.28-1.06.42-1.692.42zm0-1.008a2.15 2.15 0 0 0 1.092-.276 2.03 2.03 0 0 0 .767-.792c.184-.344.276-.736.276-1.176 0-.44-.092-.828-.276-1.164a1.93 1.93 0 0 0-.767-.792 2.15 2.15 0 0 0-1.093-.276c-.407 0-.776.092-1.103.276-.32.184-.576.448-.768.792a2.385 2.385 0 0 0-.276 1.164c0 .44.091.832.276 1.176.192.336.448.6.768.792.328.184.696.276 1.104.276zm7.617 1.008c-.632 0-1.2-.14-1.704-.42-.504-.28-.9-.664-1.188-1.152a3.357 3.357 0 0 1-.42-1.68c0-.624.14-1.18.42-1.668.288-.496.684-.88 1.188-1.152a3.449 3.449 0 0 1 1.704-.42c.632 0 1.196.14 1.692.42.504.272.896.656 1.176 1.152.288.488.432 1.044.432 1.668 0 .624-.144 1.184-.432 1.68-.28.488-.672.872-1.176 1.152-.496.28-1.06.42-1.692.42zm0-1.008a2.15 2.15 0 0 0 1.092-.276 2.03 2.03 0 0 0 .768-.792c.184-.344.276-.736.276-1.176 0-.44-.092-.828-.276-1.164a1.93 1.93 0 0 0-.768-.792 2.15 2.15 0 0 0-1.092-.276c-.408 0-.776.092-1.104.276-.32.184-.576.448-.768.792a2.385 2.385 0 0 0-.276 1.164c0 .44.092.832.276 1.176.192.336.448.6.768.792.328.184.696.276 1.104.276zm8.817 1.032c-.84 0-1.6-.184-2.28-.552a4.175 4.175 0 0 1-1.584-1.536c-.384-.656-.576-1.392-.576-2.208 0-.816.192-1.548.576-2.196a4.04 4.04 0 0 1 1.596-1.536c.68-.376 1.44-.564 2.28-.564.656 0 1.256.112 1.8.336.544.216 1.008.54 1.392.972l-.78.756c-.632-.664-1.42-.996-2.364-.996-.624 0-1.188.14-1.692.42-.504.28-.9.668-1.188 1.164a3.244 3.244 0 0 0-.42 1.644c0 .608.14 1.16.42 1.656.288.488.684.872 1.188 1.152.504.28 1.068.42 1.692.42.936 0 1.724-.336 2.364-1.008l.78.756c-.384.432-.852.76-1.404.984a4.684 4.684 0 0 1-1.8.336zm7.202-.024c-.632 0-1.2-.14-1.704-.42-.504-.28-.9-.664-1.188-1.152a3.357 3.357 0 0 1-.42-1.68c0-.624.14-1.18.42-1.668.288-.496.684-.88 1.188-1.152a3.449 3.449 0 0 1 1.704-.42c.632 0 1.196.14 1.692.42.504.272.896.656 1.176 1.152.288.488.432 1.044.432 1.668 0 .624-.144 1.184-.432 1.68-.28.488-.672.872-1.176 1.152-.496.28-1.06.42-1.692.42zm0-1.008a2.15 2.15 0 0 0 1.092-.276 2.03 2.03 0 0 0 .768-.792c.184-.344.276-.736.276-1.176 0-.44-.092-.828-.276-1.164a1.93 1.93 0 0 0-.768-.792 2.15 2.15 0 0 0-1.092-.276c-.408 0-.776.092-1.104.276-.32.184-.576.448-.768.792a2.385 2.385 0 0 0-.276 1.164c0 .44.092.832.276 1.176.192.336.448.6.768.792.328.184.696.276 1.104.276zm12.85-5.484c.8 0 1.431.232 1.895.696.472.464.708 1.152.708 2.064V99H84.61v-3.528c0-.616-.144-1.08-.432-1.392-.28-.312-.684-.468-1.212-.468-.584 0-1.048.184-1.392.552-.344.36-.516.88-.516 1.56V99h-1.152v-3.528c0-.616-.144-1.08-.432-1.392-.28-.312-.684-.468-1.212-.468-.584 0-1.048.184-1.392.552-.344.36-.516.88-.516 1.56V99h-1.152v-6.36h1.104v.948c.232-.328.536-.576.912-.744a2.995 2.995 0 0 1 1.284-.264c.496 0 .936.1 1.32.3.384.2.68.492.888.876.24-.368.572-.656.996-.864a3.304 3.304 0 0 1 1.452-.312zm12.68 0c.8 0 1.431.232 1.895.696.472.464.708 1.152.708 2.064V99H97.29v-3.528c0-.616-.144-1.08-.432-1.392-.28-.312-.684-.468-1.212-.468-.584 0-1.048.184-1.392.552-.344.36-.516.88-.516 1.56V99h-1.152v-3.528c0-.616-.144-1.08-.432-1.392-.28-.312-.684-.468-1.212-.468-.584 0-1.048.184-1.392.552-.344.36-.516.88-.516 1.56V99h-1.152v-6.36h1.104v.948c.232-.328.536-.576.912-.744a2.995 2.995 0 0 1 1.284-.264c.496 0 .936.1 1.32.3.384.2.68.492.888.876.24-.368.572-.656.996-.864a3.304 3.304 0 0 1 1.452-.312zm10.506 3.276c0 .088-.008.204-.024.348h-5.16c.072.56.316 1.012.732 1.356.424.336.948.504 1.572.504.76 0 1.372-.256 1.836-.768l.636.744a2.777 2.777 0 0 1-1.08.768c-.424.176-.9.264-1.428.264-.672 0-1.268-.136-1.788-.408a3.033 3.033 0 0 1-1.212-1.164 3.357 3.357 0 0 1-.42-1.68c0-.616.136-1.172.408-1.668.28-.496.66-.88 1.14-1.152a3.244 3.244 0 0 1 1.644-.42c.608 0 1.148.14 1.62.42.48.272.852.656 1.116 1.152.272.496.408 1.064.408 1.704zm-3.144-2.304c-.552 0-1.016.168-1.392.504-.368.336-.584.776-.648 1.32h4.08c-.064-.536-.284-.972-.66-1.308-.368-.344-.828-.516-1.38-.516zm5.848.156c.2-.368.496-.648.888-.84.392-.192.868-.288 1.428-.288v1.116a2.249 2.249 0 0 0-.264-.012c-.624 0-1.116.188-1.476.564-.352.368-.528.896-.528 1.584V99h-1.152v-6.36h1.104v1.068zm6.449 5.364c-.648 0-1.228-.14-1.74-.42-.504-.28-.9-.664-1.188-1.152a3.284 3.284 0 0 1-.432-1.68c0-.624.144-1.18.432-1.668.288-.496.684-.88 1.188-1.152.512-.28 1.092-.42 1.74-.42.576 0 1.088.116 1.536.348a2.47 2.47 0 0 1 1.056 1.008l-.876.564a1.957 1.957 0 0 0-.744-.684 2.122 2.122 0 0 0-.984-.228 2.31 2.31 0 0 0-1.128.276 2.008 2.008 0 0 0-.78.792 2.385 2.385 0 0 0-.276 1.164c0 .448.092.844.276 1.188.192.336.452.596.78.78a2.31 2.31 0 0 0 1.128.276c.36 0 .688-.076.984-.228.296-.152.544-.38.744-.684l.876.552c-.248.44-.6.78-1.056 1.02-.448.232-.96.348-1.536.348zm9.738-3.216c0 .088-.008.204-.024.348h-5.16c.072.56.316 1.012.732 1.356.424.336.948.504 1.572.504.76 0 1.372-.256 1.836-.768l.636.744a2.777 2.777 0 0 1-1.08.768c-.424.176-.9.264-1.428.264-.672 0-1.268-.136-1.788-.408a3.033 3.033 0 0 1-1.212-1.164 3.357 3.357 0 0 1-.42-1.68c0-.616.136-1.172.408-1.668.28-.496.66-.88 1.14-1.152a3.244 3.244 0 0 1 1.644-.42c.608 0 1.148.14 1.62.42.48.272.852.656 1.116 1.152.272.496.408 1.064.408 1.704zm-3.144-2.304c-.552 0-1.016.168-1.392.504-.368.336-.584.776-.648 1.32h4.08c-.064-.536-.284-.972-.66-1.308-.368-.344-.828-.516-1.38-.516zm8.134-2.952h3.54c.888 0 1.676.176 2.364.528.688.352 1.22.848 1.596 1.488.384.632.576 1.36.576 2.184 0 .824-.192 1.556-.576 2.196a3.852 3.852 0 0 1-1.596 1.476c-.688.352-1.476.528-2.364.528h-3.54v-8.4zm3.468 7.356c.68 0 1.276-.132 1.788-.396.52-.264.92-.632 1.2-1.104.28-.48.42-1.032.42-1.656 0-.624-.14-1.172-.42-1.644-.28-.48-.68-.852-1.2-1.116-.512-.264-1.108-.396-1.788-.396h-2.268v6.312h2.268zm12.026-2.1c0 .088-.008.204-.024.348h-5.16c.072.56.316 1.012.732 1.356.424.336.948.504 1.572.504.76 0 1.372-.256 1.836-.768l.636.744a2.777 2.777 0 0 1-1.08.768c-.424.176-.9.264-1.428.264-.672 0-1.268-.136-1.788-.408a3.033 3.033 0 0 1-1.212-1.164 3.357 3.357 0 0 1-.42-1.68c0-.616.136-1.172.408-1.668.28-.496.66-.88 1.14-1.152a3.244 3.244 0 0 1 1.644-.42c.608 0 1.148.14 1.62.42.48.272.852.656 1.116 1.152.272.496.408 1.064.408 1.704zm-3.144-2.304c-.552 0-1.016.168-1.392.504-.368.336-.584.776-.648 1.32h4.08c-.064-.536-.284-.972-.66-1.308-.368-.344-.828-.516-1.38-.516zm7.072-2.58c-.688 0-1.032.372-1.032 1.116v.552h1.848v.948h-1.824V99h-1.152v-5.412h-1.08v-.948h1.08v-.564c0-.632.184-1.132.552-1.5.368-.368.884-.552 1.548-.552.256 0 .496.032.72.096.224.064.416.156.576.276l-.348.876c-.264-.2-.56-.3-.888-.3zm4.101 1.608c.88 0 1.552.216 2.016.648.472.432.708 1.076.708 1.932V99h-1.092v-.84a1.853 1.853 0 0 1-.828.684c-.352.152-.772.228-1.26.228-.712 0-1.284-.172-1.716-.516-.424-.344-.636-.796-.636-1.356s.204-1.008.612-1.344c.408-.344 1.056-.516 1.944-.516h1.824v-.228c0-.496-.144-.876-.432-1.14-.288-.264-.712-.396-1.272-.396-.376 0-.744.064-1.104.192a2.76 2.76 0 0 0-.912.492l-.48-.864c.328-.264.72-.464 1.176-.6.456-.144.94-.216 1.452-.216zm-.264 5.604c.44 0 .82-.096 1.14-.288.32-.2.552-.48.696-.84v-.888h-1.776c-.976 0-1.464.328-1.464.984 0 .32.124.572.372.756.248.184.592.276 1.032.276zm11.048-5.544V99h-1.092v-.96c-.232.328-.54.584-.924.768a2.879 2.879 0 0 1-1.236.264c-.848 0-1.516-.232-2.004-.696-.488-.472-.732-1.164-.732-2.076v-3.66h1.152v3.528c0 .616.148 1.084.444 1.404.296.312.72.468 1.272.468.608 0 1.088-.184 1.44-.552.352-.368.528-.888.528-1.56V92.64h1.152zm2.193-2.544h1.152V99h-1.152v-8.904zm7.08 8.532a1.79 1.79 0 0 1-.624.336 2.74 2.74 0 0 1-.768.108c-.64 0-1.136-.172-1.488-.516-.352-.344-.528-.836-.528-1.476v-3.492h-1.08v-.948h1.08v-1.392h1.152v1.392h1.824v.948h-1.824v3.444c0 .344.084.608.252.792.176.184.424.276.744.276.352 0 .652-.1.9-.3l.36.828zm7.231.468a5.914 5.914 0 0 1-1.836-.288c-.584-.2-1.044-.456-1.38-.768l.444-.936c.32.288.728.524 1.224.708.504.176 1.02.264 1.548.264.696 0 1.216-.116 1.56-.348.344-.24.516-.556.516-.948a.9.9 0 0 0-.288-.696 1.784 1.784 0 0 0-.696-.42c-.272-.096-.66-.204-1.164-.324a12.396 12.396 0 0 1-1.536-.456 2.616 2.616 0 0 1-.996-.696c-.272-.32-.408-.748-.408-1.284 0-.448.116-.852.348-1.212.24-.36.6-.648 1.08-.864.48-.216 1.076-.324 1.788-.324.496 0 .984.064 1.464.192s.892.312 1.236.552l-.396.96a4.199 4.199 0 0 0-1.128-.504 4.08 4.08 0 0 0-1.176-.18c-.68 0-1.192.124-1.536.372-.336.248-.504.568-.504.96 0 .288.096.524.288.708.192.176.428.316.708.42.288.096.676.2 1.164.312.632.152 1.14.304 1.524.456.384.152.712.384.984.696.28.312.42.732.42 1.26 0 .44-.12.844-.36 1.212-.24.36-.604.648-1.092.864-.488.208-1.088.312-1.8.312zm7.609-.024c-.648 0-1.228-.14-1.74-.42-.504-.28-.9-.664-1.188-1.152a3.284 3.284 0 0 1-.432-1.68c0-.624.144-1.18.432-1.668.288-.496.684-.88 1.188-1.152.512-.28 1.092-.42 1.74-.42.576 0 1.088.116 1.536.348a2.47 2.47 0 0 1 1.056 1.008l-.876.564a1.957 1.957 0 0 0-.744-.684 2.122 2.122 0 0 0-.984-.228 2.31 2.31 0 0 0-1.128.276 2.008 2.008 0 0 0-.78.792 2.385 2.385 0 0 0-.276 1.164c0 .448.092.844.276 1.188.192.336.452.596.78.78a2.31 2.31 0 0 0 1.128.276c.36 0 .688-.076.984-.228.296-.152.544-.38.744-.684l.876.552c-.248.44-.6.78-1.056 1.02-.448.232-.96.348-1.536.348zm7.398-6.492c.808 0 1.448.236 1.92.708.48.464.72 1.148.72 2.052V99h-1.152v-3.528c0-.616-.148-1.08-.444-1.392-.296-.312-.72-.468-1.272-.468-.624 0-1.116.184-1.476.552-.36.36-.54.88-.54 1.56V99h-1.152v-8.904h1.152v3.444c.24-.304.552-.54.936-.708a3.288 3.288 0 0 1 1.308-.252zm10.555 3.276c0 .088-.008.204-.024.348h-5.16c.072.56.316 1.012.732 1.356.424.336.948.504 1.572.504.76 0 1.372-.256 1.836-.768l.636.744a2.777 2.777 0 0 1-1.08.768c-.424.176-.9.264-1.428.264-.672 0-1.268-.136-1.788-.408a3.033 3.033 0 0 1-1.212-1.164 3.357 3.357 0 0 1-.42-1.68c0-.616.136-1.172.408-1.668.28-.496.66-.88 1.14-1.152a3.244 3.244 0 0 1 1.644-.42c.608 0 1.148.14 1.62.42.48.272.852.656 1.116 1.152.272.496.408 1.064.408 1.704zm-3.144-2.304c-.552 0-1.016.168-1.392.504-.368.336-.584.776-.648 1.32h4.08c-.064-.536-.284-.972-.66-1.308-.368-.344-.828-.516-1.38-.516zm12.699-.972c.8 0 1.432.232 1.896.696.472.464.708 1.152.708 2.064V99h-1.152v-3.528c0-.616-.144-1.08-.432-1.392-.28-.312-.684-.468-1.212-.468-.584 0-1.048.184-1.392.552-.344.36-.516.88-.516 1.56V99h-1.152v-3.528c0-.616-.144-1.08-.432-1.392-.28-.312-.684-.468-1.212-.468-.584 0-1.048.184-1.392.552-.344.36-.516.88-.516 1.56V99h-1.152v-6.36h1.104v.948c.232-.328.536-.576.912-.744a2.995 2.995 0 0 1 1.284-.264c.496 0 .936.1 1.32.3.384.2.68.492.888.876.24-.368.572-.656.996-.864a3.304 3.304 0 0 1 1.452-.312zm7.04 0c.88 0 1.552.216 2.016.648.472.432.708 1.076.708 1.932V99h-1.092v-.84a1.853 1.853 0 0 1-.828.684c-.352.152-.772.228-1.26.228-.712 0-1.284-.172-1.716-.516-.424-.344-.636-.796-.636-1.356s.204-1.008.612-1.344c.408-.344 1.056-.516 1.944-.516h1.824v-.228c0-.496-.144-.876-.432-1.14-.288-.264-.712-.396-1.272-.396-.376 0-.744.064-1.104.192a2.76 2.76 0 0 0-.912.492l-.48-.864c.328-.264.72-.464 1.176-.6.456-.144.94-.216 1.452-.216zm-.264 5.604c.44 0 .82-.096 1.14-.288.32-.2.552-.48.696-.84v-.888h-1.776c-.976 0-1.464.328-1.464.984 0 .32.124.572.372.756.248.184.592.276 1.032.276zm12.303.912c-.848 0-1.612-.184-2.292-.552a4.212 4.212 0 0 1-1.608-1.548 4.266 4.266 0 0 1-.576-2.196c0-.808.192-1.54.576-2.196a4.124 4.124 0 0 1 1.608-1.536c.68-.376 1.444-.564 2.292-.564.84 0 1.6.188 2.28.564a4.04 4.04 0 0 1 1.596 1.536c.384.648.576 1.38.576 2.196 0 .816-.192 1.552-.576 2.208a4.151 4.151 0 0 1-1.596 1.536c-.68.368-1.44.552-2.28.552zm0-1.068c.616 0 1.168-.14 1.656-.42.496-.28.884-.664 1.164-1.152a3.238 3.238 0 0 0 .432-1.656c0-.608-.144-1.156-.432-1.644a3.014 3.014 0 0 0-1.164-1.164 3.267 3.267 0 0 0-1.656-.42 3.4 3.4 0 0 0-1.68.42 3.1 3.1 0 0 0-1.176 1.164 3.244 3.244 0 0 0-.42 1.644c0 .608.14 1.16.42 1.656.288.488.68.872 1.176 1.152a3.4 3.4 0 0 0 1.68.42zm11.746-5.388L244.194 99h-1.176l-2.784-6.36h1.2l2.184 5.1 2.232-5.1h1.128zm6.647 3.216c0 .088-.008.204-.024.348h-5.16c.072.56.316 1.012.732 1.356.424.336.948.504 1.572.504.76 0 1.372-.256 1.836-.768l.636.744a2.777 2.777 0 0 1-1.08.768c-.424.176-.9.264-1.428.264-.672 0-1.268-.136-1.788-.408a3.033 3.033 0 0 1-1.212-1.164 3.357 3.357 0 0 1-.42-1.68c0-.616.136-1.172.408-1.668.28-.496.66-.88 1.14-1.152a3.244 3.244 0 0 1 1.644-.42c.608 0 1.148.14 1.62.42.48.272.852.656 1.116 1.152.272.496.408 1.064.408 1.704zm-3.144-2.304c-.552 0-1.016.168-1.392.504-.368.336-.584.776-.648 1.32h4.08c-.064-.536-.284-.972-.66-1.308-.368-.344-.828-.516-1.38-.516zm5.848.156c.2-.368.496-.648.888-.84.392-.192.868-.288 1.428-.288v1.116a2.249 2.249 0 0 0-.264-.012c-.624 0-1.116.188-1.476.564-.352.368-.528.896-.528 1.584V99h-1.152v-6.36h1.104v1.068zm4.84 0c.2-.368.496-.648.888-.84.392-.192.868-.288 1.428-.288v1.116a2.249 2.249 0 0 0-.264-.012c-.624 0-1.116.188-1.476.564-.352.368-.528.896-.528 1.584V99h-1.152v-6.36h1.104v1.068zm3.736-1.068h1.152V99h-1.152v-6.36zm.576-1.224a.789.789 0 0 1-.564-.216.718.718 0 0 1-.216-.528c0-.208.072-.384.216-.528a.766.766 0 0 1 .564-.228c.224 0 .408.072.552.216a.662.662 0 0 1 .228.516c0 .216-.076.4-.228.552a.748.748 0 0 1-.552.216zm8.775-1.32V99h-1.104v-1.008c-.256.352-.58.62-.972.804a3.012 3.012 0 0 1-1.296.276 3.343 3.343 0 0 1-1.656-.408 2.976 2.976 0 0 1-1.152-1.14c-.272-.496-.408-1.064-.408-1.704 0-.64.136-1.204.408-1.692.28-.488.664-.868 1.152-1.14a3.343 3.343 0 0 1 1.656-.408c.456 0 .876.088 1.26.264.384.168.704.42.96.756v-3.504h1.152zm-3.276 7.968c.4 0 .764-.092 1.092-.276a2.03 2.03 0 0 0 .768-.792c.184-.344.276-.736.276-1.176 0-.44-.092-.828-.276-1.164a1.93 1.93 0 0 0-.768-.792 2.193 2.193 0 0 0-1.092-.276c-.408 0-.776.092-1.104.276-.32.184-.576.448-.768.792a2.385 2.385 0 0 0-.276 1.164c0 .44.092.832.276 1.176.192.336.448.6.768.792.328.184.696.276 1.104.276zm11.204-2.208c0 .088-.008.204-.024.348H277c.072.56.316 1.012.732 1.356.424.336.948.504 1.572.504.76 0 1.372-.256 1.836-.768l.636.744a2.777 2.777 0 0 1-1.08.768c-.424.176-.9.264-1.428.264-.672 0-1.268-.136-1.788-.408a3.033 3.033 0 0 1-1.212-1.164 3.357 3.357 0 0 1-.42-1.68c0-.616.136-1.172.408-1.668.28-.496.66-.88 1.14-1.152a3.244 3.244 0 0 1 1.644-.42c.608 0 1.148.14 1.62.42.48.272.852.656 1.116 1.152.272.496.408 1.064.408 1.704zm-3.144-2.304c-.552 0-1.016.168-1.392.504-.368.336-.584.776-.648 1.32h4.08c-.064-.536-.284-.972-.66-1.308-.368-.344-.828-.516-1.38-.516z"/><path fill="#E8E9F1" d="M0 10C0 4.477 4.477 0 10 0h466c5.523 0 10 4.477 10 10v28H0V10z"/><path stroke="#EB5757" d="M51.405 19.57c0 3.047-2.418 5.5-5.379 5.5-2.96 0-5.378-2.453-5.378-5.5 0-3.048 2.417-5.5 5.378-5.5 2.961 0 5.38 2.452 5.38 5.5z"/><path stroke="#F2994A" d="M67.254 19.57c0 3.047-2.418 5.5-5.379 5.5-2.96 0-5.379-2.453-5.379-5.5 0-3.048 2.418-5.5 5.38-5.5 2.96 0 5.378 2.452 5.378 5.5z"/><path stroke="#219653" d="M83.102 19.57c0 3.047-2.417 5.5-5.378 5.5-2.961 0-5.379-2.453-5.379-5.5 0-3.048 2.418-5.5 5.379-5.5 2.96 0 5.378 2.452 5.378 5.5z"/><rect width="172" height="18" x="157" y="10" fill="#fff" rx="9"/><path fill="#8492BB" d="M201.501 14.6l-2.808 8.4h-1.26l-2.292-6.708L192.849 23h-1.284l-2.808-8.4h1.236l2.268 6.828 2.364-6.828h1.104l2.316 6.864 2.316-6.864h1.14zm3.544 8.472c-.632 0-1.2-.14-1.704-.42-.504-.28-.9-.664-1.188-1.152a3.357 3.357 0 0 1-.42-1.68c0-.624.14-1.18.42-1.668.288-.496.684-.88 1.188-1.152a3.449 3.449 0 0 1 1.704-.42c.632 0 1.196.14 1.692.42.504.272.896.656 1.176 1.152.288.488.432 1.044.432 1.668 0 .624-.144 1.184-.432 1.68-.28.488-.672.872-1.176 1.152-.496.28-1.06.42-1.692.42zm0-1.008a2.15 2.15 0 0 0 1.092-.276 2.03 2.03 0 0 0 .768-.792c.184-.344.276-.736.276-1.176 0-.44-.092-.828-.276-1.164a1.93 1.93 0 0 0-.768-.792 2.15 2.15 0 0 0-1.092-.276c-.408 0-.776.092-1.104.276-.32.184-.576.448-.768.792a2.385 2.385 0 0 0-.276 1.164c0 .44.092.832.276 1.176.192.336.448.6.768.792.328.184.696.276 1.104.276zm7.617 1.008c-.632 0-1.2-.14-1.704-.42-.504-.28-.9-.664-1.188-1.152a3.357 3.357 0 0 1-.42-1.68c0-.624.14-1.18.42-1.668.288-.496.684-.88 1.188-1.152a3.449 3.449 0 0 1 1.704-.42c.632 0 1.196.14 1.692.42.504.272.896.656 1.176 1.152.288.488.432 1.044.432 1.668 0 .624-.144 1.184-.432 1.68-.28.488-.672.872-1.176 1.152-.496.28-1.06.42-1.692.42zm0-1.008a2.15 2.15 0 0 0 1.092-.276 2.03 2.03 0 0 0 .768-.792c.184-.344.276-.736.276-1.176 0-.44-.092-.828-.276-1.164a1.93 1.93 0 0 0-.768-.792 2.15 2.15 0 0 0-1.092-.276c-.408 0-.776.092-1.104.276-.32.184-.576.448-.768.792a2.385 2.385 0 0 0-.276 1.164c0 .44.092.832.276 1.176.192.336.448.6.768.792.328.184.696.276 1.104.276zm9.484-6.42v2.928h4.212v1.032h-4.212V23h-1.2v-8.4h5.928v1.044h-4.728zm11.798 4.212c0 .088-.008.204-.024.348h-5.16c.072.56.316 1.012.732 1.356.424.336.948.504 1.572.504.76 0 1.372-.256 1.836-.768l.636.744a2.777 2.777 0 0 1-1.08.768c-.424.176-.9.264-1.428.264-.672 0-1.268-.136-1.788-.408a3.033 3.033 0 0 1-1.212-1.164 3.357 3.357 0 0 1-.42-1.68c0-.616.136-1.172.408-1.668.28-.496.66-.88 1.14-1.152a3.244 3.244 0 0 1 1.644-.42c.608 0 1.148.14 1.62.42.48.272.852.656 1.116 1.152.272.496.408 1.064.408 1.704zm-3.144-2.304c-.552 0-1.016.168-1.392.504-.368.336-.584.776-.648 1.32h4.08c-.064-.536-.284-.972-.66-1.308-.368-.344-.828-.516-1.38-.516zm10.491 2.304c0 .088-.008.204-.024.348h-5.16c.072.56.316 1.012.732 1.356.424.336.948.504 1.572.504.76 0 1.372-.256 1.836-.768l.636.744a2.777 2.777 0 0 1-1.08.768c-.424.176-.9.264-1.428.264-.672 0-1.268-.136-1.788-.408a3.033 3.033 0 0 1-1.212-1.164 3.357 3.357 0 0 1-.42-1.68c0-.616.136-1.172.408-1.668.28-.496.66-.88 1.14-1.152a3.244 3.244 0 0 1 1.644-.42c.608 0 1.148.14 1.62.42.48.272.852.656 1.116 1.152.272.496.408 1.064.408 1.704zm-3.144-2.304c-.552 0-1.016.168-1.392.504-.368.336-.584.776-.648 1.32h4.08c-.064-.536-.284-.972-.66-1.308-.368-.344-.828-.516-1.38-.516zm10.744-3.456V23h-1.104v-1.008c-.256.352-.58.62-.972.804a3.012 3.012 0 0 1-1.296.276 3.343 3.343 0 0 1-1.656-.408 2.976 2.976 0 0 1-1.152-1.14c-.272-.496-.408-1.064-.408-1.704 0-.64.136-1.204.408-1.692.28-.488.664-.868 1.152-1.14a3.343 3.343 0 0 1 1.656-.408c.456 0 .876.088 1.26.264.384.168.704.42.96.756v-3.504h1.152zm-3.276 7.968c.4 0 .764-.092 1.092-.276a2.03 2.03 0 0 0 .768-.792c.184-.344.276-.736.276-1.176 0-.44-.092-.828-.276-1.164a1.93 1.93 0 0 0-.768-.792 2.193 2.193 0 0 0-1.092-.276c-.408 0-.776.092-1.104.276-.32.184-.576.448-.768.792a2.385 2.385 0 0 0-.276 1.164c0 .44.092.832.276 1.176.192.336.448.6.768.792.328.184.696.276 1.104.276zm11.294 1.032a5.914 5.914 0 0 1-1.836-.288c-.584-.2-1.044-.456-1.38-.768l.444-.936c.32.288.728.524 1.224.708.504.176 1.02.264 1.548.264.696 0 1.216-.116 1.56-.348.344-.24.516-.556.516-.948a.9.9 0 0 0-.288-.696 1.784 1.784 0 0 0-.696-.42c-.272-.096-.66-.204-1.164-.324a12.396 12.396 0 0 1-1.536-.456 2.616 2.616 0 0 1-.996-.696c-.272-.32-.408-.748-.408-1.284 0-.448.116-.852.348-1.212.24-.36.6-.648 1.08-.864.48-.216 1.076-.324 1.788-.324.496 0 .984.064 1.464.192s.892.312 1.236.552l-.396.96a4.199 4.199 0 0 0-1.128-.504 4.08 4.08 0 0 0-1.176-.18c-.68 0-1.192.124-1.536.372-.336.248-.504.568-.504.96 0 .288.096.524.288.708.192.176.428.316.708.42.288.096.676.2 1.164.312.632.152 1.14.304 1.524.456.384.152.712.384.984.696.28.312.42.732.42 1.26 0 .44-.12.844-.36 1.212-.24.36-.604.648-1.092.864-.488.208-1.088.312-1.8.312zm10.585-3.24c0 .088-.008.204-.024.348h-5.16c.072.56.316 1.012.732 1.356.424.336.948.504 1.572.504.76 0 1.372-.256 1.836-.768l.636.744a2.777 2.777 0 0 1-1.08.768c-.424.176-.9.264-1.428.264-.672 0-1.268-.136-1.788-.408a3.033 3.033 0 0 1-1.212-1.164 3.357 3.357 0 0 1-.42-1.68c0-.616.136-1.172.408-1.668.28-.496.66-.88 1.14-1.152a3.244 3.244 0 0 1 1.644-.42c.608 0 1.148.14 1.62.42.48.272.852.656 1.116 1.152.272.496.408 1.064.408 1.704zm-3.144-2.304c-.552 0-1.016.168-1.392.504-.368.336-.584.776-.648 1.32h4.08c-.064-.536-.284-.972-.66-1.308-.368-.344-.828-.516-1.38-.516zm8.32 5.076a1.79 1.79 0 0 1-.624.336 2.74 2.74 0 0 1-.768.108c-.64 0-1.136-.172-1.488-.516-.352-.344-.528-.836-.528-1.476v-3.492h-1.08v-.948h1.08v-1.392h1.152v1.392h1.824v.948h-1.824v3.444c0 .344.084.608.252.792.176.184.424.276.744.276.352 0 .652-.1.9-.3l.36.828zm4.816 0a1.79 1.79 0 0 1-.624.336 2.74 2.74 0 0 1-.768.108c-.64 0-1.136-.172-1.488-.516-.352-.344-.528-.836-.528-1.476v-3.492h-1.08v-.948h1.08v-1.392h1.152v1.392h1.824v.948h-1.824v3.444c0 .344.084.608.252.792.176.184.424.276.744.276.352 0 .652-.1.9-.3l.36.828zm1.393-5.988h1.152V23h-1.152v-6.36zm.576-1.224a.789.789 0 0 1-.564-.216.718.718 0 0 1-.216-.528c0-.208.072-.384.216-.528a.766.766 0 0 1 .564-.228c.224 0 .408.072.552.216a.662.662 0 0 1 .228.516c0 .216-.076.4-.228.552a.748.748 0 0 1-.552.216zm6.172 1.164c.808 0 1.448.236 1.92.708.48.464.72 1.148.72 2.052V23h-1.152v-3.528c0-.616-.148-1.08-.444-1.392-.296-.312-.72-.468-1.272-.468-.624 0-1.116.184-1.476.552-.36.36-.54.88-.54 1.56V23h-1.152v-6.36h1.104v.96c.232-.328.544-.58.936-.756.4-.176.852-.264 1.356-.264zm10.891.06v5.496c0 1.112-.276 1.932-.828 2.46-.552.536-1.376.804-2.472.804-.6 0-1.172-.084-1.716-.252-.544-.16-.984-.392-1.32-.696l.552-.888c.296.256.66.456 1.092.6.44.152.892.228 1.356.228.744 0 1.292-.176 1.644-.528.36-.352.54-.888.54-1.608v-.504a2.594 2.594 0 0 1-1.008.744c-.392.16-.82.24-1.284.24-.608 0-1.16-.128-1.656-.384a2.968 2.968 0 0 1-1.152-1.092 3.091 3.091 0 0 1-.42-1.608c0-.6.14-1.132.42-1.596.28-.472.664-.836 1.152-1.092a3.557 3.557 0 0 1 1.656-.384c.48 0 .924.088 1.332.264.416.176.756.436 1.02.78v-.984h1.092zm-3.312 5.088c.416 0 .788-.088 1.116-.264.336-.176.596-.42.78-.732.192-.32.288-.68.288-1.08 0-.616-.204-1.112-.612-1.488-.408-.384-.932-.576-1.572-.576-.648 0-1.176.192-1.584.576-.408.376-.612.872-.612 1.488 0 .4.092.76.276 1.08.192.312.452.556.78.732a2.42 2.42 0 0 0 1.14.264z"/></g><defs><clipPath id="a"><path fill="#fff" d="M0 0h16v16H0z" transform="translate(82 168)"/></clipPath><clipPath id="b"><path fill="#fff" d="M0 0h11.25v10H0z" transform="translate(54 277)"/></clipPath><clipPath id="c"><path fill="#fff" d="M0 0h11.25v10H0z" transform="translate(71 277)"/></clipPath><clipPath id="d"><path fill="#fff" d="M0 0h11.25v10H0z" transform="translate(88 277)"/></clipPath><clipPath id="e"><path fill="#fff" d="M0 0h11.25v10H0z" transform="translate(105 277)"/></clipPath><clipPath id="f"><path fill="#fff" d="M0 0h10.47v10H0z" transform="translate(122 277)"/></clipPath></defs></svg>