<svg xmlns="http://www.w3.org/2000/svg" width="499" height="380" fill="none" viewBox="0 0 499 380"><g opacity=".8"><path fill="#F5F6F9" d="M0 10C0 4.477 4.477 0 10 0h466c5.523 0 10 4.477 10 10v345c0 5.523-4.477 10-10 10H10c-5.523 0-10-4.477-10-10V10z"/><rect width="119" height="32" x="40" y="202" fill="#62699F" rx="5"/><path fill="#fff" d="M59.708 222.096a5.914 5.914 0 0 1-1.836-.288c-.584-.2-1.044-.456-1.38-.768l.444-.936c.32.288.728.524 1.224.708.504.176 1.02.264 1.548.264.696 0 1.216-.116 1.56-.348.344-.24.516-.556.516-.948a.9.9 0 0 0-.288-.696 1.784 1.784 0 0 0-.696-.42c-.272-.096-.66-.204-1.164-.324a12.396 12.396 0 0 1-1.536-.456 2.616 2.616 0 0 1-.996-.696c-.272-.32-.408-.748-.408-1.284 0-.448.116-.852.348-1.212.24-.36.6-.648 1.08-.864.48-.216 1.076-.324 1.788-.324.496 0 .984.064 1.464.192s.892.312 1.236.552l-.396.96a4.199 4.199 0 0 0-1.128-.504 4.08 4.08 0 0 0-1.176-.18c-.68 0-1.192.124-1.536.372-.336.248-.504.568-.504.96 0 .288.096.524.288.708.192.176.428.316.708.42.288.096.676.2 1.164.312.632.152 1.14.304 1.524.456.384.152.712.384.984.696.28.312.42.732.42 1.26 0 .44-.12.844-.36 1.212-.24.36-.604.648-1.092.864-.488.208-1.088.312-1.8.312zm7.153-6.516c.88 0 1.552.216 2.016.648.472.432.708 1.076.708 1.932V222h-1.092v-.84a1.853 1.853 0 0 1-.828.684c-.352.152-.772.228-1.26.228-.712 0-1.284-.172-1.716-.516-.424-.344-.636-.796-.636-1.356s.204-1.008.612-1.344c.408-.344 1.056-.516 1.944-.516h1.824v-.228c0-.496-.144-.876-.432-1.14-.288-.264-.712-.396-1.272-.396-.376 0-.744.064-1.104.192a2.76 2.76 0 0 0-.912.492l-.48-.864c.328-.264.72-.464 1.176-.6.456-.144.94-.216 1.452-.216zm-.264 5.604c.44 0 .82-.096 1.14-.288.32-.2.552-.48.696-.84v-.888h-1.776c-.976 0-1.464.328-1.464.984 0 .32.124.572.372.756.248.184.592.276 1.032.276zm10.63-5.544L74.445 222h-1.176l-2.784-6.36h1.2l2.184 5.1 2.232-5.1h1.128zm6.648 3.216c0 .088-.008.204-.024.348h-5.16c.072.56.316 1.012.732 1.356.424.336.948.504 1.572.504.76 0 1.372-.256 1.836-.768l.636.744a2.777 2.777 0 0 1-1.08.768c-.424.176-.9.264-1.428.264-.672 0-1.268-.136-1.788-.408a3.033 3.033 0 0 1-1.212-1.164 3.357 3.357 0 0 1-.42-1.68c0-.616.136-1.172.408-1.668.28-.496.66-.88 1.14-1.152a3.244 3.244 0 0 1 1.644-.42c.608 0 1.148.14 1.62.42.48.272.852.656 1.116 1.152.272.496.408 1.064.408 1.704zm-3.144-2.304c-.552 0-1.016.168-1.392.504-.368.336-.584.776-.648 1.32h4.08c-.064-.536-.284-.972-.66-1.308-.368-.344-.828-.516-1.38-.516zm11.89 5.544c-.84 0-1.6-.184-2.28-.552a4.175 4.175 0 0 1-1.584-1.536c-.383-.656-.576-1.392-.576-2.208 0-.816.193-1.548.576-2.196a4.04 4.04 0 0 1 1.596-1.536c.68-.376 1.44-.564 2.28-.564.657 0 1.257.112 1.8.336.544.216 1.008.54 1.392.972l-.78.756c-.632-.664-1.42-.996-2.364-.996a3.42 3.42 0 0 0-1.691.42c-.504.28-.9.668-1.188 1.164a3.244 3.244 0 0 0-.42 1.644c0 .608.14 1.16.42 1.656.287.488.683.872 1.188 1.152.504.28 1.068.42 1.692.42.936 0 1.724-.336 2.364-1.008l.78.756c-.384.432-.852.76-1.404.984a4.684 4.684 0 0 1-1.8.336zm8.144-6.516c.808 0 1.448.236 1.92.708.48.464.72 1.148.72 2.052V222h-1.152v-3.528c0-.616-.148-1.08-.444-1.392-.296-.312-.72-.468-1.272-.468-.624 0-1.116.184-1.476.552-.36.36-.54.88-.54 1.56V222H97.37v-8.904h1.152v3.444c.24-.304.552-.54.936-.708a3.286 3.286 0 0 1 1.308-.252zm7.088 0c.88 0 1.552.216 2.016.648.472.432.708 1.076.708 1.932V222h-1.092v-.84a1.853 1.853 0 0 1-.828.684c-.352.152-.772.228-1.26.228-.712 0-1.284-.172-1.716-.516-.424-.344-.636-.796-.636-1.356s.204-1.008.612-1.344c.408-.344 1.056-.516 1.944-.516h1.824v-.228c0-.496-.144-.876-.432-1.14-.288-.264-.712-.396-1.272-.396-.376 0-.744.064-1.104.192a2.76 2.76 0 0 0-.912.492l-.48-.864c.328-.264.72-.464 1.176-.6.456-.144.94-.216 1.452-.216zm-.264 5.604c.44 0 .82-.096 1.14-.288.32-.2.552-.48.696-.84v-.888h-1.776c-.976 0-1.464.328-1.464.984 0 .32.124.572.372.756.248.184.592.276 1.032.276zm8.516-5.604c.808 0 1.448.236 1.92.708.48.464.72 1.148.72 2.052V222h-1.152v-3.528c0-.616-.148-1.08-.444-1.392-.296-.312-.72-.468-1.272-.468-.624 0-1.116.184-1.476.552-.36.36-.54.88-.54 1.56V222h-1.152v-6.36h1.104v.96c.232-.328.544-.58.936-.756.4-.176.852-.264 1.356-.264zm10.891.06v5.496c0 1.112-.276 1.932-.828 2.46-.552.536-1.376.804-2.472.804-.6 0-1.172-.084-1.716-.252-.544-.16-.984-.392-1.32-.696l.552-.888c.296.256.66.456 1.092.6.44.152.892.228 1.356.228.744 0 1.292-.176 1.644-.528.36-.352.54-.888.54-1.608v-.504a2.594 2.594 0 0 1-1.008.744c-.392.16-.82.24-1.284.24-.608 0-1.16-.128-1.656-.384a2.968 2.968 0 0 1-1.152-1.092 3.091 3.091 0 0 1-.42-1.608c0-.6.14-1.132.42-1.596.28-.472.664-.836 1.152-1.092a3.557 3.557 0 0 1 1.656-.384c.48 0 .924.088 1.332.264.416.176.756.436 1.02.78v-.984h1.092zm-3.312 5.088c.416 0 .788-.088 1.116-.264.336-.176.596-.42.78-.732.192-.32.288-.68.288-1.08 0-.616-.204-1.112-.612-1.488-.408-.384-.932-.576-1.572-.576-.648 0-1.176.192-1.584.576-.408.376-.612.872-.612 1.488 0 .4.092.76.276 1.08.192.312.452.556.78.732a2.42 2.42 0 0 0 1.14.264zm11.261-1.872c0 .088-.008.204-.024.348h-5.16c.072.56.316 1.012.732 1.356.424.336.948.504 1.572.504.76 0 1.372-.256 1.836-.768l.636.744a2.777 2.777 0 0 1-1.08.768c-.424.176-.9.264-1.428.264-.672 0-1.268-.136-1.788-.408a3.033 3.033 0 0 1-1.212-1.164 3.357 3.357 0 0 1-.42-1.68c0-.616.136-1.172.408-1.668.28-.496.66-.88 1.14-1.152a3.244 3.244 0 0 1 1.644-.42c.608 0 1.148.14 1.62.42.48.272.852.656 1.116 1.152.272.496.408 1.064.408 1.704zm-3.144-2.304c-.552 0-1.016.168-1.392.504-.368.336-.584.776-.648 1.32h4.08c-.064-.536-.284-.972-.66-1.308-.368-.344-.828-.516-1.38-.516zm6.568 5.52c-.52 0-1.02-.068-1.5-.204-.48-.144-.856-.324-1.128-.54l.48-.912c.28.2.62.36 1.02.48s.804.18 1.212.18c1.008 0 1.512-.288 1.512-.864a.56.56 0 0 0-.204-.456 1.235 1.235 0 0 0-.516-.24 9.055 9.055 0 0 0-.864-.18 8.75 8.75 0 0 1-1.26-.276 1.937 1.937 0 0 1-.828-.528c-.232-.248-.348-.596-.348-1.044 0-.576.24-1.036.72-1.38.48-.352 1.124-.528 1.932-.528.424 0 .848.052 1.272.156.424.104.772.244 1.044.42l-.492.912c-.52-.336-1.132-.504-1.836-.504-.488 0-.86.08-1.116.24-.256.16-.384.372-.384.636 0 .208.072.372.216.492.144.12.32.208.528.264.216.056.516.12.9.192.512.088.924.184 1.236.288.32.096.592.264.816.504.224.24.336.576.336 1.008 0 .576-.248 1.036-.744 1.38-.488.336-1.156.504-2.004.504z"/><rect width="6" height="1" x="104.24" y="196.24" fill="#62699F" rx=".5" transform="rotate(-45 104.243 196.243)"/><rect width="6" height="1" x="99.24" y="187" fill="#62699F" rx=".5" transform="rotate(90 99.243 187)"/><rect width="6" height="1" x="93.24" y="196.95" fill="#62699F" rx=".5" transform="rotate(-135 93.243 196.95)"/><g clip-path="url(#a)"><path fill="#4B2E21" d="M100.309 244.17l.885-4.55c.208-1.07 1.244-2.105 2.315-2.311l3.875-.749c1.07-.207 1.143-.762.164-1.24l-12.577-6.127c-.98-.478-1.461-.038-1.075.981l5.337 14.087c.386 1.02.867.979 1.076-.091z"/></g><g opacity=".7"><g filter="url(#b)"><ellipse cx="449.53" cy="252.77" fill="#DAE0E5" rx="18.82" ry="19.23"/><path stroke="#495057" d="M467.843 252.774c0 10.356-8.211 18.732-18.316 18.732-10.106 0-18.316-8.376-18.316-18.732s8.21-18.732 18.316-18.732c10.105 0 18.316 8.376 18.316 18.732z"/></g><g fill="#495057" clip-path="url(#c)"><path d="M453.1 260.202a.666.666 0 0 0 .762-.556l.661-4.056a.674.674 0 0 0-.544-.778.662.662 0 0 0-.761.555l-.661 4.057a.674.674 0 0 0 .543.778zm-7.864-.556a.666.666 0 0 0 .762.556.674.674 0 0 0 .543-.778l-.661-4.057a.662.662 0 0 0-.761-.555.674.674 0 0 0-.544.778l.661 4.056z"/><path d="M460.155 249.394h-2.328l-5.093-6.508a.652.652 0 0 0-.93-.105.685.685 0 0 0-.103.95l4.432 5.663h-13.212l4.432-5.663a.685.685 0 0 0-.103-.95.652.652 0 0 0-.93.105l-5.093 6.508h-2.328a.668.668 0 0 0-.662.676v2.704c0 .374.296.676.662.676h.824l2.509 8.976c.081.29.34.49.636.49h13.318c.295 0 .555-.2.636-.49l2.509-8.976h.824a.67.67 0 0 0 .662-.676v-2.704a.67.67 0 0 0-.662-.676zm-4.468 12.17h-12.32l-2.268-8.114h16.856l-2.268 8.114zm3.807-9.466H439.56v-1.352h19.934v1.352z"/><path d="M449.527 260.211a.669.669 0 0 0 .661-.676v-4.057a.669.669 0 0 0-.661-.676.67.67 0 0 0-.662.676v4.057a.67.67 0 0 0 .662.676z"/></g></g><g opacity=".7"><g filter="url(#d)"><ellipse cx="421.92" cy="294.4" fill="#DAE0E5" rx="18.82" ry="19.23"/><path stroke="#495057" d="M440.234 294.399c0 10.356-8.211 18.732-18.316 18.732-10.106 0-18.316-8.376-18.316-18.732 0-10.355 8.21-18.732 18.316-18.732 10.105 0 18.316 8.377 18.316 18.732z"/></g><g fill="#495057" clip-path="url(#e)"><path d="M430.738 286.466h-17.641c-1.361 0-2.469 1.133-2.469 2.524v10.818c0 1.392 1.108 2.525 2.469 2.525h17.641c1.361 0 2.469-1.133 2.469-2.525V288.99c0-1.391-1.108-2.524-2.469-2.524zm-17.641 1.443h17.641c.583 0 1.058.485 1.058 1.081v1.443h-19.757v-1.443c0-.596.475-1.081 1.058-1.081zm17.641 12.981h-17.641a1.071 1.071 0 0 1-1.058-1.082v-7.933h19.757v7.933c0 .597-.475 1.082-1.058 1.082z"/><path d="M415.567 298.727h-.706a.714.714 0 0 1-.705-.722v-.721c0-.398.316-.721.705-.721h.706c.39 0 .706.323.706.721v.721a.714.714 0 0 1-.706.722z"/></g></g><g opacity=".7"><g filter="url(#f)"><ellipse cx="375.76" cy="315.77" fill="#DAE0E5" rx="18.82" ry="19.23"/><path stroke="#495057" d="M394.078 315.768c0 10.356-8.211 18.732-18.317 18.732-10.105 0-18.316-8.376-18.316-18.732s8.211-18.732 18.316-18.732c10.106 0 18.317 8.376 18.317 18.732z"/></g><g fill="#495057" clip-path="url(#g)"><path d="M380.088 322.241l-1.201-1.388-.991.896 2.149 2.484 3.48-3.685-.951-.939-2.486 2.632z"/><path d="M380.765 316.189c-.121 0-.24.004-.359.012l-.384-6.711h-3.13v-1.305c0-2.181-1.736-3.956-3.871-3.956-2.134 0-3.87 1.775-3.87 3.956v1.305h-3.131l-.695 12.165a3.423 3.423 0 0 0 .904 2.539 3.272 3.272 0 0 0 2.427 1.07h7.899c.998 1.246 2.515 2.043 4.21 2.043 2.999 0 5.439-2.494 5.439-5.559s-2.44-5.559-5.439-5.559zm-10.292-8.004c0-1.436 1.143-2.604 2.548-2.604s2.548 1.168 2.548 2.604v1.305h-5.096v-1.305zm-1.817 15.727c-.56 0-1.08-.23-1.465-.646a2.066 2.066 0 0 1-.545-1.532l.622-10.892h1.882v1.695h1.323v-1.695h5.096v1.695h1.323v-1.695h1.882l.321 5.615c-2.185.722-3.769 2.821-3.769 5.291 0 .767.153 1.498.429 2.164h-7.099zm12.109 2.043c-2.27 0-4.116-1.887-4.116-4.207s1.846-4.207 4.116-4.207c2.269 0 4.116 1.887 4.116 4.207s-1.847 4.207-4.116 4.207z"/></g></g><g opacity=".7"><g filter="url(#h)"><ellipse cx="329.61" cy="315.77" fill="#DAE0E5" rx="18.82" ry="19.23"/><path stroke="#495057" d="M347.921 315.768c0 10.356-8.21 18.732-18.316 18.732-10.105 0-18.316-8.376-18.316-18.732s8.211-18.732 18.316-18.732c10.106 0 18.316 8.376 18.316 18.732z"/></g><g fill="#495057" clip-path="url(#i)"><path d="M328.351 314.98c-5.277 0-8.183 2.552-8.183 7.185 0 .362.287.655.641.655h15.084c.354 0 .64-.293.64-.655 0-4.633-2.906-7.185-8.182-7.185zm-6.878 6.53c.252-3.464 2.563-5.219 6.878-5.219 4.315 0 6.625 1.755 6.878 5.219h-13.756zm6.878-16.64c-2.424 0-4.252 1.906-4.252 4.433 0 2.601 1.908 4.716 4.252 4.716s4.252-2.115 4.252-4.716c0-2.527-1.828-4.433-4.252-4.433zm0 7.839c-1.638 0-2.97-1.528-2.97-3.406 0-1.809 1.249-3.123 2.97-3.123 1.693 0 2.97 1.343 2.97 3.123 0 1.878-1.332 3.406-2.97 3.406z"/></g><path fill="#DAE0E5" stroke="#495057" d="M339.768 320.255c0 2.921-2.314 5.27-5.145 5.27-2.831 0-5.145-2.349-5.145-5.27 0-2.92 2.314-5.269 5.145-5.269 2.831 0 5.145 2.349 5.145 5.269z"/><path fill="#495057" d="M333.998 320.644l-1.204-1.388-.994.896 2.155 2.484 3.49-3.685-.954-.939-2.493 2.632z"/></g><g filter="url(#j)" opacity=".7"><ellipse cx="283.45" cy="294.4" fill="#DAE0E5" rx="18.82" ry="19.23"/><path stroke="#495057" d="M301.765 294.399c0 10.356-8.211 18.732-18.316 18.732-10.106 0-18.317-8.376-18.317-18.732 0-10.355 8.211-18.732 18.317-18.732 10.105 0 18.316 8.377 18.316 18.732z"/></g><g fill="#7D8287" clip-path="url(#k)"><path d="M293.465 291.039l-1.135-4.644a1.26 1.26 0 0 0-1.217-.97h-15.328c-.576 0-1.077.4-1.218.97l-1.135 4.644a.62.62 0 0 0-.019.155c0 1.767 1.336 3.206 2.979 3.206.955 0 1.807-.486 2.352-1.24.546.754 1.398 1.24 2.352 1.24.955 0 1.807-.486 2.352-1.24.546.754 1.396 1.24 2.352 1.24s1.807-.486 2.352-1.24c.546.754 1.396 1.24 2.352 1.24 1.644 0 2.98-1.439 2.98-3.206a.671.671 0 0 0-.019-.155zm-2.961 4.643a4.045 4.045 0 0 1-2.352-.754c-1.372.975-3.331.975-4.704 0-1.372.975-3.331.975-4.704 0a4.045 4.045 0 0 1-2.352.754 4.001 4.001 0 0 1-1.725-.399v6.809c0 .708.562 1.282 1.255 1.282h5.017v-5.128h5.018v5.128h5.018c.692 0 1.254-.574 1.254-1.282v-6.809a4.001 4.001 0 0 1-1.725.399z"/></g><g opacity=".7"><g filter="url(#l)"><ellipse cx="255.82" cy="252.77" fill="#DAE0E5" rx="18.82" ry="19.23"/><path stroke="#495057" d="M274.132 252.774c0 10.356-8.21 18.732-18.316 18.732-10.105 0-18.316-8.376-18.316-18.732s8.211-18.732 18.316-18.732c10.106 0 18.316 8.376 18.316 18.732z"/></g><g clip-path="url(#m)"><path fill="#495057" d="M250.834 256.906h12.964a.67.67 0 0 0 .641-.488l2.639-9.055a.698.698 0 0 0-.105-.604.664.664 0 0 0-.536-.275h-17.025l-.9-3.09a.67.67 0 0 0-.641-.488h-2.676a.677.677 0 0 0-.669.683c0 .378.3.684.669.684h2.177l.896 3.075.009.03 2.38 8.168c-1.359.093-2.436 1.252-2.436 2.663 0 1.473 1.172 2.671 2.613 2.671h.664c.29 1.017 1.21 1.762 2.297 1.762 1.088 0 2.008-.745 2.298-1.762h3.549c.29 1.017 1.21 1.762 2.298 1.762 1.087 0 2.007-.745 2.297-1.762h.862a.677.677 0 0 0 .669-.684c0-.377-.3-.683-.669-.683h-.862c-.29-1.018-1.21-1.763-2.297-1.763-1.088 0-2.008.745-2.298 1.763h-3.549c-.29-1.018-1.21-1.763-2.298-1.763-1.087 0-2.007.745-2.297 1.763h-.664c-.703 0-1.275-.585-1.275-1.304 0-.718.572-1.303 1.275-1.303zm9.813-9.055h4.893l-.921 3.16h-3.972v-3.16zm0 4.528h3.573l-.92 3.16h-2.653v-3.16zm-4.95-4.528h3.612v3.16h-3.612v-3.16zm0 4.528h3.612v3.16h-3.612v-3.16zm-1.338 3.16h-2.308l-.921-3.16h3.229v3.16zm-4.548-7.688h4.548v3.16h-3.627l-.921-3.16zm12.129 11.266c.582 0 1.055.484 1.055 1.079s-.473 1.079-1.055 1.079a1.07 1.07 0 0 1-1.056-1.079 1.07 1.07 0 0 1 1.056-1.079zm-8.145 0a1.07 1.07 0 0 1 1.056 1.079 1.07 1.07 0 0 1-1.056 1.079 1.068 1.068 0 0 1-1.055-1.079c0-.595.473-1.079 1.055-1.079z"/></g></g><path fill="#4367B1" d="M381.178 213.168l-24.779-14.306a8.074 8.074 0 0 0-7.263 0l-24.779 14.306a8.091 8.091 0 0 0-3.625 6.293v28.612a8.078 8.078 0 0 0 3.625 6.282l2.76 1.593 25.657 15.438 25.668-15.415 2.725-1.57a8.09 8.09 0 0 0 3.625-6.281v-28.671a8.084 8.084 0 0 0-3.614-6.281zm-43.149 36.025a3.277 3.277 0 0 1-2.31-.97l-12.251-12.262a3.304 3.304 0 0 1 0-4.619l12.251-12.32a3.314 3.314 0 0 1 2.41-1.33 3.297 3.297 0 0 1 2.581.958 3.3 3.3 0 0 1 .958 2.581 3.309 3.309 0 0 1-1.33 2.41l-9.953 9.953 9.918 9.918a3.3 3.3 0 0 1-.433 5.109 3.296 3.296 0 0 1-1.841.572zm9.491 2.899a3.327 3.327 0 0 1-2.991 1.905 3.308 3.308 0 0 1-2.791-1.533 3.293 3.293 0 0 1-.199-3.178l16.835-35.795a3.308 3.308 0 0 1 3.142-1.897 3.3 3.3 0 0 1 2.839 4.703l-16.835 35.795zm34.57-16.166l-12.285 12.286a3.314 3.314 0 0 1-2.41 1.33 3.297 3.297 0 0 1-2.581-.958 3.313 3.313 0 0 1-.958-2.581 3.314 3.314 0 0 1 1.33-2.41l9.953-9.953-9.976-9.999a3.301 3.301 0 0 1 0-4.619 3.385 3.385 0 0 1 4.619 0l12.262 12.251a3.303 3.303 0 0 1 .046 4.665v-.012z"/><rect width="20.51" height="20.51" x="368.58" y="250.85" fill="#99D6A3" rx="5"/><path fill="#fff" d="M384.981 264.889c0 .645-.117 1.231-.351 1.758-.235.521-.56.97-.977 1.348-.41.371-.901.657-1.474.859a5.637 5.637 0 0 1-1.885.303c-1.491 0-2.63-.469-3.418-1.407-.788-.937-1.182-2.369-1.182-4.296 0-.704.043-1.371.127-2.002a8.32 8.32 0 0 1 .42-1.758 5.681 5.681 0 0 1 .801-1.465 4.485 4.485 0 0 1 1.26-1.104c.501-.306 1.093-.54 1.777-.703.684-.169 1.478-.254 2.383-.254h1.455v2.022h-1.699c-.703 0-1.293.072-1.768.215-.475.143-.863.348-1.162.615-.3.267-.524.592-.674.977-.15.384-.247.817-.293 1.298l-.019.235a5.84 5.84 0 0 1 2.519-.557c.69 0 1.296.091 1.817.274.52.175.953.433 1.298.771.352.339.612.749.782 1.231.175.481.263 1.028.263 1.64zm-2.48.108c0-.3-.039-.573-.117-.821a1.585 1.585 0 0 0-.371-.644 1.565 1.565 0 0 0-.635-.42 2.42 2.42 0 0 0-.918-.156 3.39 3.39 0 0 0-.625.058 4.638 4.638 0 0 0-.596.137 6.77 6.77 0 0 0-.547.195 4.47 4.47 0 0 0-.459.225c0 .657.046 1.214.137 1.67.091.449.228.817.41 1.103.189.287.42.495.694.625.279.124.602.186.966.186.313 0 .596-.052.85-.156a1.8 1.8 0 0 0 .644-.44c.183-.195.323-.423.42-.684.098-.266.147-.559.147-.878z"/><path fill="#6577AA" d="M43.46 147.644v2.928h4.212v1.032H43.46V155h-1.2v-8.4h5.928v1.044H43.46zm8.343.936c.88 0 1.552.216 2.016.648.471.432.707 1.076.707 1.932V155h-1.092v-.84a1.853 1.853 0 0 1-.828.684c-.352.152-.772.228-1.26.228-.711 0-1.283-.172-1.715-.516-.425-.344-.636-.796-.636-1.356s.204-1.008.611-1.344c.408-.344 1.056-.516 1.944-.516h1.825v-.228c0-.496-.145-.876-.432-1.14-.288-.264-.712-.396-1.273-.396-.376 0-.744.064-1.104.192a2.76 2.76 0 0 0-.912.492l-.48-.864c.328-.264.72-.464 1.176-.6.456-.144.94-.216 1.453-.216zm-.264 5.604c.44 0 .82-.096 1.14-.288.32-.2.551-.48.695-.84v-.888h-1.776c-.975 0-1.463.328-1.463.984 0 .32.123.572.372.756.248.184.592.276 1.032.276zm7.927.888c-.648 0-1.228-.14-1.74-.42-.504-.28-.9-.664-1.188-1.152a3.284 3.284 0 0 1-.432-1.68c0-.624.144-1.18.432-1.668.288-.496.684-.88 1.188-1.152.512-.28 1.092-.42 1.74-.42.576 0 1.088.116 1.536.348a2.47 2.47 0 0 1 1.056 1.008l-.876.564a1.957 1.957 0 0 0-.744-.684 2.122 2.122 0 0 0-.984-.228 2.31 2.31 0 0 0-1.128.276 2.008 2.008 0 0 0-.78.792 2.385 2.385 0 0 0-.276 1.164c0 .448.092.844.276 1.188.192.336.452.596.78.78a2.31 2.31 0 0 0 1.128.276c.36 0 .688-.076.984-.228.296-.152.544-.38.744-.684l.876.552c-.248.44-.6.78-1.056 1.02-.448.232-.96.348-1.536.348zm9.737-3.216c0 .088-.008.204-.024.348h-5.16c.072.56.316 1.012.732 1.356.424.336.948.504 1.572.504.76 0 1.372-.256 1.836-.768l.636.744a2.777 2.777 0 0 1-1.08.768c-.424.176-.9.264-1.428.264-.672 0-1.268-.136-1.788-.408a3.033 3.033 0 0 1-1.212-1.164 3.357 3.357 0 0 1-.42-1.68c0-.616.136-1.172.408-1.668.28-.496.66-.88 1.14-1.152a3.244 3.244 0 0 1 1.644-.42c.608 0 1.148.14 1.62.42.48.272.852.656 1.116 1.152.272.496.408 1.064.408 1.704zm-3.144-2.304c-.552 0-1.016.168-1.392.504-.368.336-.584.776-.648 1.32h4.08c-.064-.536-.284-.972-.66-1.308-.368-.344-.828-.516-1.38-.516zm8.116-.972c.616 0 1.168.136 1.656.408.488.272.868.652 1.14 1.14.28.488.42 1.052.42 1.692 0 .64-.14 1.208-.42 1.704a2.894 2.894 0 0 1-1.14 1.14 3.343 3.343 0 0 1-1.656.408c-.472 0-.904-.092-1.296-.276a2.495 2.495 0 0 1-.972-.804V155h-1.104v-8.904h1.152v3.504c.256-.336.576-.588.96-.756a2.988 2.988 0 0 1 1.26-.264zm-.096 5.484a2.15 2.15 0 0 0 1.092-.276 2.03 2.03 0 0 0 .768-.792c.192-.344.288-.736.288-1.176 0-.44-.096-.828-.288-1.164a1.93 1.93 0 0 0-.768-.792 2.15 2.15 0 0 0-1.092-.276c-.4 0-.764.092-1.092.276a1.93 1.93 0 0 0-.768.792 2.385 2.385 0 0 0-.276 1.164c0 .44.092.832.276 1.176.184.336.44.6.768.792.328.184.692.276 1.092.276zm7.628 1.008c-.632 0-1.2-.14-1.704-.42-.504-.28-.9-.664-1.188-1.152a3.357 3.357 0 0 1-.42-1.68c0-.624.14-1.18.42-1.668.288-.496.684-.88 1.188-1.152a3.449 3.449 0 0 1 1.704-.42c.632 0 1.196.14 1.692.42.504.272.896.656 1.176 1.152.288.488.432 1.044.432 1.668 0 .624-.144 1.184-.432 1.68-.28.488-.672.872-1.176 1.152-.496.28-1.06.42-1.692.42zm0-1.008a2.15 2.15 0 0 0 1.092-.276 2.03 2.03 0 0 0 .768-.792c.184-.344.276-.736.276-1.176 0-.44-.092-.828-.276-1.164a1.93 1.93 0 0 0-.768-.792 2.15 2.15 0 0 0-1.092-.276c-.408 0-.776.092-1.104.276-.32.184-.576.448-.768.792a2.385 2.385 0 0 0-.276 1.164c0 .44.092.832.276 1.176.192.336.448.6.768.792.328.184.696.276 1.104.276zm7.617 1.008c-.632 0-1.2-.14-1.704-.42-.504-.28-.9-.664-1.188-1.152a3.357 3.357 0 0 1-.42-1.68c0-.624.14-1.18.42-1.668.288-.496.684-.88 1.188-1.152a3.449 3.449 0 0 1 1.704-.42c.632 0 1.196.14 1.692.42.504.272.896.656 1.176 1.152.288.488.432 1.044.432 1.668 0 .624-.144 1.184-.432 1.68-.28.488-.672.872-1.176 1.152-.496.28-1.06.42-1.692.42zm0-1.008a2.15 2.15 0 0 0 1.092-.276 2.03 2.03 0 0 0 .768-.792c.184-.344.276-.736.276-1.176 0-.44-.092-.828-.276-1.164a1.93 1.93 0 0 0-.768-.792 2.15 2.15 0 0 0-1.092-.276c-.408 0-.776.092-1.104.276-.32.184-.576.448-.768.792a2.385 2.385 0 0 0-.276 1.164c0 .44.092.832.276 1.176.192.336.448.6.768.792.328.184.696.276 1.104.276zm7.365-2.028l-1.32 1.224V155h-1.152v-8.904h1.152v5.712l3.468-3.168h1.392l-2.676 2.628 2.94 3.732h-1.416l-2.388-2.964zm11.589-5.436c1.088 0 1.944.26 2.568.78.624.52.936 1.236.936 2.148 0 .912-.312 1.628-.936 2.148-.624.52-1.48.78-2.568.78h-2.076V155h-1.2v-8.4h3.276zm-.036 4.812c.76 0 1.34-.16 1.74-.48.4-.328.6-.796.6-1.404 0-.608-.2-1.072-.6-1.392-.4-.328-.98-.492-1.74-.492h-2.04v3.768h2.04zm5.03-2.772h1.152V155h-1.152v-6.36zm.576-1.224a.789.789 0 0 1-.564-.216.718.718 0 0 1-.216-.528c0-.208.072-.384.216-.528a.766.766 0 0 1 .564-.228c.224 0 .408.072.552.216a.662.662 0 0 1 .228.516c0 .216-.076.4-.228.552a.748.748 0 0 1-.552.216zm6.831 7.584l-1.836-2.436-1.86 2.436h-1.284l2.508-3.252-2.388-3.108h1.284l1.752 2.292 1.74-2.292h1.26l-2.4 3.108 2.532 3.252h-1.308zm8.102-3.144c0 .088-.008.204-.024.348h-5.16c.072.56.316 1.012.732 1.356.424.336.948.504 1.572.504.76 0 1.372-.256 1.836-.768l.636.744a2.777 2.777 0 0 1-1.08.768c-.424.176-.9.264-1.428.264-.672 0-1.268-.136-1.788-.408a3.033 3.033 0 0 1-1.212-1.164 3.357 3.357 0 0 1-.42-1.68c0-.616.136-1.172.408-1.668.28-.496.66-.88 1.14-1.152a3.244 3.244 0 0 1 1.644-.42c.608 0 1.148.14 1.62.42.48.272.852.656 1.116 1.152.272.496.408 1.064.408 1.704zm-3.144-2.304c-.552 0-1.016.168-1.392.504-.368.336-.584.776-.648 1.32h4.08c-.064-.536-.284-.972-.66-1.308-.368-.344-.828-.516-1.38-.516zm4.744-3.456h1.152V155h-1.152v-8.904zm10.498 9c-.84 0-1.6-.184-2.28-.552a4.175 4.175 0 0 1-1.584-1.536c-.384-.656-.576-1.392-.576-2.208 0-.816.192-1.548.576-2.196a4.04 4.04 0 0 1 1.596-1.536c.68-.376 1.44-.564 2.28-.564.656 0 1.256.112 1.8.336.544.216 1.008.54 1.392.972l-.78.756c-.632-.664-1.42-.996-2.364-.996-.624 0-1.188.14-1.692.42-.504.28-.9.668-1.188 1.164a3.244 3.244 0 0 0-.42 1.644c0 .608.14 1.16.42 1.656.288.488.684.872 1.188 1.152.504.28 1.068.42 1.692.42.936 0 1.724-.336 2.364-1.008l.78.756c-.384.432-.852.76-1.404.984a4.684 4.684 0 0 1-1.8.336zm7.203-.024c-.632 0-1.2-.14-1.704-.42-.504-.28-.9-.664-1.188-1.152a3.357 3.357 0 0 1-.42-1.68c0-.624.14-1.18.42-1.668.288-.496.684-.88 1.188-1.152a3.449 3.449 0 0 1 1.704-.42c.632 0 1.196.14 1.692.42.504.272.896.656 1.176 1.152.288.488.432 1.044.432 1.668 0 .624-.144 1.184-.432 1.68-.28.488-.672.872-1.176 1.152-.496.28-1.06.42-1.692.42zm0-1.008a2.15 2.15 0 0 0 1.092-.276 2.03 2.03 0 0 0 .768-.792c.184-.344.276-.736.276-1.176 0-.44-.092-.828-.276-1.164a1.93 1.93 0 0 0-.768-.792 2.15 2.15 0 0 0-1.092-.276c-.408 0-.776.092-1.104.276-.32.184-.576.448-.768.792a2.385 2.385 0 0 0-.276 1.164c0 .44.092.832.276 1.176.192.336.448.6.768.792.328.184.696.276 1.104.276zm8.289-5.484c.808 0 1.448.236 1.92.708.48.464.72 1.148.72 2.052V155h-1.152v-3.528c0-.616-.148-1.08-.444-1.392-.296-.312-.72-.468-1.272-.468-.624 0-1.116.184-1.476.552-.36.36-.54.88-.54 1.56V155h-1.152v-6.36h1.104v.96c.232-.328.544-.58.936-.756.4-.176.852-.264 1.356-.264zm8.348 6.048a1.79 1.79 0 0 1-.624.336 2.74 2.74 0 0 1-.768.108c-.64 0-1.136-.172-1.488-.516-.352-.344-.528-.836-.528-1.476v-3.492h-1.08v-.948h1.08v-1.392h1.152v1.392h1.824v.948h-1.824v3.444c0 .344.084.608.252.792.176.184.424.276.744.276.352 0 .652-.1.9-.3l.36.828zm6.93-2.772c0 .088-.008.204-.024.348h-5.16c.072.56.316 1.012.732 1.356.424.336.948.504 1.572.504.76 0 1.372-.256 1.836-.768l.636.744a2.777 2.777 0 0 1-1.08.768c-.424.176-.9.264-1.428.264-.672 0-1.268-.136-1.788-.408a3.033 3.033 0 0 1-1.212-1.164 3.357 3.357 0 0 1-.42-1.68c0-.616.136-1.172.408-1.668.28-.496.66-.88 1.14-1.152a3.244 3.244 0 0 1 1.644-.42c.608 0 1.148.14 1.62.42.48.272.852.656 1.116 1.152.272.496.408 1.064.408 1.704zm-3.144-2.304c-.552 0-1.016.168-1.392.504-.368.336-.584.776-.648 1.32h4.08c-.064-.536-.284-.972-.66-1.308-.368-.344-.828-.516-1.38-.516zm8.139-.972c.808 0 1.448.236 1.92.708.48.464.72 1.148.72 2.052V155h-1.152v-3.528c0-.616-.148-1.08-.444-1.392-.296-.312-.72-.468-1.272-.468-.624 0-1.116.184-1.476.552-.36.36-.54.88-.54 1.56V155h-1.152v-6.36h1.104v.96c.232-.328.544-.58.936-.756.4-.176.852-.264 1.356-.264zm8.348 6.048a1.79 1.79 0 0 1-.624.336 2.74 2.74 0 0 1-.768.108c-.64 0-1.136-.172-1.488-.516-.352-.344-.528-.836-.528-1.476v-3.492h-1.08v-.948h1.08v-1.392h1.152v1.392h1.824v.948h-1.824v3.444c0 .344.084.608.252.792.176.184.424.276.744.276.352 0 .652-.1.9-.3l.36.828zm4.784-8.028h1.2v8.4h-1.2v-8.4zm3.714 0h3.54c.888 0 1.676.176 2.364.528.688.352 1.22.848 1.596 1.488.384.632.576 1.36.576 2.184 0 .824-.192 1.556-.576 2.196a3.852 3.852 0 0 1-1.596 1.476c-.688.352-1.476.528-2.364.528h-3.54v-8.4zm3.468 7.356c.68 0 1.276-.132 1.788-.396.52-.264.92-.632 1.2-1.104.28-.48.42-1.032.42-1.656 0-.624-.14-1.172-.42-1.644-.28-.48-.68-.852-1.2-1.116-.512-.264-1.108-.396-1.788-.396h-2.268v6.312h2.268zm6.391-7.932a.71.71 0 0 1 .552.24.78.78 0 0 1 .228.576c0 .12-.012.24-.036.36a3.935 3.935 0 0 1-.156.492l-.576 1.68h-.756l.444-1.788a.801.801 0 0 1-.372-.276.842.842 0 0 1-.132-.468c0-.24.076-.436.228-.588a.78.78 0 0 1 .576-.228zm4.055 9.048c-.52 0-1.02-.068-1.5-.204-.48-.144-.856-.324-1.128-.54l.48-.912c.28.2.62.36 1.02.48s.804.18 1.212.18c1.008 0 1.512-.288 1.512-.864a.56.56 0 0 0-.204-.456 1.235 1.235 0 0 0-.516-.24 9.055 9.055 0 0 0-.864-.18 8.75 8.75 0 0 1-1.26-.276 1.937 1.937 0 0 1-.828-.528c-.232-.248-.348-.596-.348-1.044 0-.576.24-1.036.72-1.38.48-.352 1.124-.528 1.932-.528.424 0 .848.052 1.272.156.424.104.772.244 1.044.42l-.492.912c-.52-.336-1.132-.504-1.836-.504-.488 0-.86.08-1.116.24-.256.16-.384.372-.384.636 0 .208.072.372.216.492.144.12.32.208.528.264.216.056.516.12.9.192.512.088.924.184 1.236.288.32.096.592.264.816.504.224.24.336.576.336 1.008 0 .576-.248 1.036-.744 1.38-.488.336-1.156.504-2.004.504zm9.739-8.1c-.688 0-1.032.372-1.032 1.116v.552h1.848v.948h-1.824V155h-1.152v-5.412h-1.08v-.948h1.08v-.564c0-.632.184-1.132.552-1.5.368-.368.884-.552 1.548-.552.256 0 .496.032.72.096.224.064.416.156.576.276l-.348.876c-.264-.2-.56-.3-.888-.3zm4.532 8.1c-.632 0-1.2-.14-1.704-.42-.504-.28-.9-.664-1.188-1.152a3.357 3.357 0 0 1-.42-1.68c0-.624.14-1.18.42-1.668.288-.496.684-.88 1.188-1.152a3.449 3.449 0 0 1 1.704-.42c.632 0 1.196.14 1.692.42.504.272.896.656 1.176 1.152.288.488.432 1.044.432 1.668 0 .624-.144 1.184-.432 1.68-.28.488-.672.872-1.176 1.152-.496.28-1.06.42-1.692.42zm0-1.008a2.15 2.15 0 0 0 1.092-.276 2.03 2.03 0 0 0 .768-.792c.184-.344.276-.736.276-1.176 0-.44-.092-.828-.276-1.164a1.93 1.93 0 0 0-.768-.792 2.15 2.15 0 0 0-1.092-.276c-.408 0-.776.092-1.104.276-.32.184-.576.448-.768.792a2.385 2.385 0 0 0-.276 1.164c0 .44.092.832.276 1.176.192.336.448.6.768.792.328.184.696.276 1.104.276zm5.998-4.356c.2-.368.496-.648.888-.84.392-.192.868-.288 1.428-.288v1.116a2.249 2.249 0 0 0-.264-.012c-.624 0-1.116.188-1.476.564-.352.368-.528.896-.528 1.584V155h-1.152v-6.36h1.104v1.068zm14.504-3.108l-3.684 8.4h-1.188l-3.696-8.4h1.296l3.024 6.9 3.048-6.9h1.2zm2.739 1.98c.88 0 1.552.216 2.016.648.472.432.708 1.076.708 1.932V155h-1.092v-.84a1.853 1.853 0 0 1-.828.684c-.352.152-.772.228-1.26.228-.712 0-1.284-.172-1.716-.516-.424-.344-.636-.796-.636-1.356s.204-1.008.612-1.344c.408-.344 1.056-.516 1.944-.516h1.824v-.228c0-.496-.144-.876-.432-1.14-.288-.264-.712-.396-1.272-.396-.376 0-.744.064-1.104.192a2.76 2.76 0 0 0-.912.492l-.48-.864c.328-.264.72-.464 1.176-.6.456-.144.94-.216 1.452-.216zm-.264 5.604c.44 0 .82-.096 1.14-.288.32-.2.552-.48.696-.84v-.888h-1.776c-.976 0-1.464.328-1.464.984 0 .32.124.572.372.756.248.184.592.276 1.032.276zm6.224-4.476c.2-.368.496-.648.888-.84.392-.192.868-.288 1.428-.288v1.116a2.249 2.249 0 0 0-.264-.012c-.624 0-1.116.188-1.476.564-.352.368-.528.896-.528 1.584V155h-1.152v-6.36h1.104v1.068zm3.736-1.068h1.152V155h-1.152v-6.36zm.576-1.224a.789.789 0 0 1-.564-.216.718.718 0 0 1-.216-.528c0-.208.072-.384.216-.528a.766.766 0 0 1 .564-.228c.224 0 .408.072.552.216a.662.662 0 0 1 .228.516c0 .216-.076.4-.228.552a.748.748 0 0 1-.552.216zm5.091 1.164c.88 0 1.552.216 2.016.648.472.432.708 1.076.708 1.932V155h-1.092v-.84a1.853 1.853 0 0 1-.828.684c-.352.152-.772.228-1.26.228-.712 0-1.284-.172-1.716-.516-.424-.344-.636-.796-.636-1.356s.204-1.008.612-1.344c.408-.344 1.056-.516 1.944-.516h1.824v-.228c0-.496-.144-.876-.432-1.14-.288-.264-.712-.396-1.272-.396-.376 0-.744.064-1.104.192a2.76 2.76 0 0 0-.912.492l-.48-.864c.328-.264.72-.464 1.176-.6.456-.144.94-.216 1.452-.216zm-.264 5.604c.44 0 .82-.096 1.14-.288.32-.2.552-.48.696-.84v-.888h-1.776c-.976 0-1.464.328-1.464.984 0 .32.124.572.372.756.248.184.592.276 1.032.276zm8.696.444a1.79 1.79 0 0 1-.624.336 2.74 2.74 0 0 1-.768.108c-.64 0-1.136-.172-1.488-.516-.352-.344-.528-.836-.528-1.476v-3.492h-1.08v-.948h1.08v-1.392h1.152v1.392h1.824v.948h-1.824v3.444c0 .344.084.608.252.792.176.184.424.276.744.276.352 0 .652-.1.9-.3l.36.828zm1.393-5.988h1.152V155h-1.152v-6.36zm.576-1.224a.789.789 0 0 1-.564-.216.718.718 0 0 1-.216-.528c0-.208.072-.384.216-.528a.766.766 0 0 1 .564-.228c.224 0 .408.072.552.216a.662.662 0 0 1 .228.516c0 .216-.076.4-.228.552a.748.748 0 0 1-.552.216zm5.499 7.656c-.632 0-1.2-.14-1.704-.42-.504-.28-.9-.664-1.188-1.152a3.357 3.357 0 0 1-.42-1.68c0-.624.14-1.18.42-1.668.288-.496.684-.88 1.188-1.152a3.449 3.449 0 0 1 1.704-.42c.632 0 1.196.14 1.692.42.504.272.896.656 1.176 1.152.288.488.432 1.044.432 1.668 0 .624-.144 1.184-.432 1.68-.28.488-.672.872-1.176 1.152-.496.28-1.06.42-1.692.42zm0-1.008a2.15 2.15 0 0 0 1.092-.276 2.03 2.03 0 0 0 .768-.792c.184-.344.276-.736.276-1.176 0-.44-.092-.828-.276-1.164a1.93 1.93 0 0 0-.768-.792 2.15 2.15 0 0 0-1.092-.276c-.408 0-.776.092-1.104.276-.32.184-.576.448-.768.792a2.385 2.385 0 0 0-.276 1.164c0 .44.092.832.276 1.176.192.336.448.6.768.792.328.184.696.276 1.104.276zm8.289-5.484c.808 0 1.448.236 1.92.708.48.464.72 1.148.72 2.052V155h-1.152v-3.528c0-.616-.148-1.08-.444-1.392-.296-.312-.72-.468-1.272-.468-.624 0-1.116.184-1.476.552-.36.36-.54.88-.54 1.56V155h-1.152v-6.36h1.104v.96c.232-.328.544-.58.936-.756.4-.176.852-.264 1.356-.264z"/><rect width="158.5" height="31.5" x="320.25" y="135.25" fill="#F0F0F6" stroke="#62699F" stroke-width=".5" rx="4.75"/><path fill="#62699F" d="M340.536 146.6c1.088 0 1.944.26 2.568.78.624.52.936 1.236.936 2.148 0 .912-.312 1.628-.936 2.148-.624.52-1.48.78-2.568.78h-2.076V155h-1.2v-8.4h3.276zm-.036 4.812c.76 0 1.34-.16 1.74-.48.4-.328.6-.796.6-1.404 0-.608-.2-1.072-.6-1.392-.4-.328-.98-.492-1.74-.492h-2.04v3.768h2.04zm5.03-2.772h1.152V155h-1.152v-6.36zm.576-1.224a.789.789 0 0 1-.564-.216.718.718 0 0 1-.216-.528c0-.208.072-.384.216-.528a.766.766 0 0 1 .564-.228c.224 0 .408.072.552.216a.662.662 0 0 1 .228.516c0 .216-.076.4-.228.552a.748.748 0 0 1-.552.216zm6.831 7.584l-1.836-2.436-1.86 2.436h-1.284l2.508-3.252-2.388-3.108h1.284l1.752 2.292 1.74-2.292h1.26l-2.4 3.108 2.532 3.252h-1.308zm8.102-3.144c0 .088-.008.204-.024.348h-5.16c.072.56.316 1.012.732 1.356.424.336.948.504 1.572.504.76 0 1.372-.256 1.836-.768l.636.744a2.777 2.777 0 0 1-1.08.768c-.424.176-.9.264-1.428.264-.672 0-1.268-.136-1.788-.408a3.033 3.033 0 0 1-1.212-1.164 3.357 3.357 0 0 1-.42-1.68c0-.616.136-1.172.408-1.668.28-.496.66-.88 1.14-1.152a3.244 3.244 0 0 1 1.644-.42c.608 0 1.148.14 1.62.42.48.272.852.656 1.116 1.152.272.496.408 1.064.408 1.704zm-3.144-2.304c-.552 0-1.016.168-1.392.504-.368.336-.584.776-.648 1.32h4.08c-.064-.536-.284-.972-.66-1.308-.368-.344-.828-.516-1.38-.516zm4.744-3.456h1.152V155h-1.152v-8.904zm6.742.504h1.2v8.4h-1.2v-8.4zm3.715 0h3.54c.888 0 1.676.176 2.364.528.688.352 1.22.848 1.596 1.488.384.632.576 1.36.576 2.184 0 .824-.192 1.556-.576 2.196a3.852 3.852 0 0 1-1.596 1.476c-.688.352-1.476.528-2.364.528h-3.54v-8.4zm3.468 7.356c.68 0 1.276-.132 1.788-.396.52-.264.92-.632 1.2-1.104.28-.48.42-1.032.42-1.656 0-.624-.14-1.172-.42-1.644-.28-.48-.68-.852-1.2-1.116-.512-.264-1.108-.396-1.788-.396h-2.268v6.312h2.268z"/><rect width="158.5" height="31.5" x="320.25" y="88.25" fill="#F3F3F8" stroke="#8187B2" stroke-width=".5" rx="4.75"/><path fill="#62699F" d="M460 109l-3-4h6l-3 4zm0-10l3 4h-6l3-4zm-116.644 7.956V108h-6.096v-8.4h5.928v1.044h-4.728v2.58h4.212v1.02h-4.212v2.712h4.896zm5.171-5.376c.808 0 1.448.236 1.92.708.48.464.72 1.148.72 2.052V108h-1.152v-3.528c0-.616-.148-1.08-.444-1.392-.296-.312-.72-.468-1.272-.468-.624 0-1.116.184-1.476.552-.36.36-.54.88-.54 1.56V108h-1.152v-6.36h1.104v.96c.232-.328.544-.58.936-.756.4-.176.852-.264 1.356-.264zm7.088 0c.88 0 1.552.216 2.016.648.472.432.708 1.076.708 1.932V108h-1.092v-.84a1.853 1.853 0 0 1-.828.684c-.352.152-.772.228-1.26.228-.712 0-1.284-.172-1.716-.516-.424-.344-.636-.796-.636-1.356s.204-1.008.612-1.344c.408-.344 1.056-.516 1.944-.516h1.824v-.228c0-.496-.144-.876-.432-1.14-.288-.264-.712-.396-1.272-.396-.376 0-.744.064-1.104.192a2.76 2.76 0 0 0-.912.492l-.48-.864c.328-.264.72-.464 1.176-.6.456-.144.94-.216 1.452-.216zm-.264 5.604c.44 0 .82-.096 1.14-.288.32-.2.552-.48.696-.84v-.888h-1.776c-.976 0-1.464.328-1.464.984 0 .32.124.572.372.756.248.184.592.276 1.032.276zm8.492-5.604c.616 0 1.168.136 1.656.408.488.272.868.652 1.14 1.14.28.488.42 1.052.42 1.692 0 .64-.14 1.208-.42 1.704a2.894 2.894 0 0 1-1.14 1.14 3.343 3.343 0 0 1-1.656.408c-.472 0-.904-.092-1.296-.276a2.495 2.495 0 0 1-.972-.804V108h-1.104v-8.904h1.152v3.504c.256-.336.576-.588.96-.756a2.988 2.988 0 0 1 1.26-.264zm-.096 5.484a2.15 2.15 0 0 0 1.092-.276 2.03 2.03 0 0 0 .768-.792c.192-.344.288-.736.288-1.176 0-.44-.096-.828-.288-1.164a1.93 1.93 0 0 0-.768-.792 2.15 2.15 0 0 0-1.092-.276c-.4 0-.764.092-1.092.276a1.93 1.93 0 0 0-.768.792 2.385 2.385 0 0 0-.276 1.164c0 .44.092.832.276 1.176.184.336.44.6.768.792.328.184.692.276 1.092.276zm4.904-7.968h1.152V108h-1.152v-8.904zm9.099 5.76c0 .088-.008.204-.024.348h-5.16c.072.56.316 1.012.732 1.356.424.336.948.504 1.572.504.76 0 1.372-.256 1.836-.768l.636.744a2.777 2.777 0 0 1-1.08.768c-.424.176-.9.264-1.428.264-.672 0-1.268-.136-1.788-.408a3.033 3.033 0 0 1-1.212-1.164 3.357 3.357 0 0 1-.42-1.68c0-.616.136-1.172.408-1.668.28-.496.66-.88 1.14-1.152a3.244 3.244 0 0 1 1.644-.42c.608 0 1.148.14 1.62.42.48.272.852.656 1.116 1.152.272.496.408 1.064.408 1.704zm-3.144-2.304c-.552 0-1.016.168-1.392.504-.368.336-.584.776-.648 1.32h4.08c-.064-.536-.284-.972-.66-1.308-.368-.344-.828-.516-1.38-.516zm10.744-3.456V108h-1.104v-1.008c-.256.352-.58.62-.972.804a3.012 3.012 0 0 1-1.296.276 3.343 3.343 0 0 1-1.656-.408 2.976 2.976 0 0 1-1.152-1.14c-.272-.496-.408-1.064-.408-1.704 0-.64.136-1.204.408-1.692.28-.488.664-.868 1.152-1.14a3.343 3.343 0 0 1 1.656-.408c.456 0 .876.088 1.26.264.384.168.704.42.96.756v-3.504h1.152zm-3.276 7.968c.4 0 .764-.092 1.092-.276a2.03 2.03 0 0 0 .768-.792c.184-.344.276-.736.276-1.176 0-.44-.092-.828-.276-1.164a1.93 1.93 0 0 0-.768-.792 2.193 2.193 0 0 0-1.092-.276c-.408 0-.776.092-1.104.276-.32.184-.576.448-.768.792a2.385 2.385 0 0 0-.276 1.164c0 .44.092.832.276 1.176.192.336.448.6.768.792.328.184.696.276 1.104.276z"/><path fill="#6577AA" d="M41.26 99.6h3.54c.888 0 1.676.176 2.364.528.688.352 1.22.848 1.596 1.488.384.632.576 1.36.576 2.184 0 .824-.192 1.556-.576 2.196a3.852 3.852 0 0 1-1.596 1.476c-.688.352-1.476.528-2.364.528h-3.54v-8.4zm3.468 7.356c.68 0 1.276-.132 1.788-.396.52-.264.92-.632 1.2-1.104.28-.48.42-1.032.42-1.656 0-.624-.14-1.172-.42-1.644-.28-.48-.68-.852-1.2-1.116-.512-.264-1.108-.396-1.788-.396H42.46v6.312h2.268zm6.278-5.316h1.152V108h-1.152v-6.36zm.576-1.224a.789.789 0 0 1-.564-.216.718.718 0 0 1-.216-.528c0-.208.072-.384.216-.528a.766.766 0 0 1 .564-.228c.224 0 .408.072.552.216a.662.662 0 0 1 .228.516c0 .216-.076.4-.228.552a.748.748 0 0 1-.552.216zm4.6 7.656c-.52 0-1.02-.068-1.5-.204-.48-.144-.856-.324-1.128-.54l.48-.912c.28.2.62.36 1.02.48s.804.18 1.212.18c1.008 0 1.512-.288 1.512-.864a.56.56 0 0 0-.204-.456 1.235 1.235 0 0 0-.516-.24 9.055 9.055 0 0 0-.864-.18 8.75 8.75 0 0 1-1.26-.276 1.937 1.937 0 0 1-.828-.528c-.232-.248-.348-.596-.348-1.044 0-.576.24-1.036.72-1.38.48-.352 1.124-.528 1.932-.528.424 0 .848.052 1.272.156.424.104.772.244 1.044.42l-.492.912c-.52-.336-1.132-.504-1.836-.504-.488 0-.86.08-1.116.24-.256.16-.384.372-.384.636 0 .208.072.372.216.492.144.12.32.208.528.264.216.056.516.12.9.192.512.088.924.184 1.236.288.32.096.592.264.816.504.224.24.336.576.336 1.008 0 .576-.248 1.036-.744 1.38-.488.336-1.156.504-2.004.504zm6.503-6.492c.88 0 1.552.216 2.016.648.472.432.708 1.076.708 1.932V108h-1.092v-.84a1.853 1.853 0 0 1-.828.684c-.352.152-.772.228-1.26.228-.712 0-1.284-.172-1.716-.516-.424-.344-.636-.796-.636-1.356s.204-1.008.612-1.344c.408-.344 1.056-.516 1.944-.516h1.824v-.228c0-.496-.144-.876-.432-1.14-.288-.264-.712-.396-1.272-.396-.376 0-.744.064-1.104.192a2.76 2.76 0 0 0-.912.492l-.48-.864c.328-.264.72-.464 1.176-.6.456-.144.94-.216 1.452-.216zm-.264 5.604c.44 0 .82-.096 1.14-.288.32-.2.552-.48.696-.84v-.888h-1.776c-.976 0-1.464.328-1.464.984 0 .32.124.572.372.756.248.184.592.276 1.032.276zm8.492-5.604c.616 0 1.168.136 1.656.408.488.272.868.652 1.14 1.14.28.488.42 1.052.42 1.692 0 .64-.14 1.208-.42 1.704a2.894 2.894 0 0 1-1.14 1.14 3.343 3.343 0 0 1-1.656.408c-.472 0-.904-.092-1.296-.276a2.495 2.495 0 0 1-.972-.804V108h-1.104v-8.904h1.152v3.504c.256-.336.576-.588.96-.756a2.988 2.988 0 0 1 1.26-.264zm-.096 5.484a2.15 2.15 0 0 0 1.092-.276 2.03 2.03 0 0 0 .768-.792c.192-.344.288-.736.288-1.176 0-.44-.096-.828-.288-1.164a1.93 1.93 0 0 0-.768-.792 2.15 2.15 0 0 0-1.092-.276c-.4 0-.764.092-1.092.276a1.93 1.93 0 0 0-.768.792 2.385 2.385 0 0 0-.276 1.164c0 .44.092.832.276 1.176.184.336.44.6.768.792.328.184.692.276 1.092.276zm4.904-7.968h1.152V108H75.72v-8.904zm9.1 5.76c0 .088-.008.204-.025.348h-5.16c.073.56.317 1.012.733 1.356.424.336.948.504 1.572.504.76 0 1.371-.256 1.835-.768l.636.744a2.777 2.777 0 0 1-1.08.768c-.423.176-.9.264-1.427.264-.672 0-1.269-.136-1.788-.408a3.033 3.033 0 0 1-1.213-1.164 3.357 3.357 0 0 1-.42-1.68c0-.616.137-1.172.409-1.668.28-.496.66-.88 1.14-1.152a3.244 3.244 0 0 1 1.644-.42c.607 0 1.147.14 1.62.42.48.272.852.656 1.115 1.152.272.496.408 1.064.408 1.704zm-3.144-2.304c-.553 0-1.017.168-1.393.504-.368.336-.584.776-.648 1.32h4.08c-.063-.536-.283-.972-.66-1.308-.367-.344-.828-.516-1.38-.516zm7.275-4.656h1.044l-3.96 11.304h-1.044l3.96-11.304zm7.95 9.06V108h-6.095v-8.4h5.928v1.044h-4.728v2.58h4.212v1.02h-4.212v2.712h4.896zm5.172-5.376c.808 0 1.448.236 1.92.708.48.464.72 1.148.72 2.052V108h-1.152v-3.528c0-.616-.148-1.08-.444-1.392-.296-.312-.72-.468-1.272-.468-.624 0-1.116.184-1.476.552-.36.36-.54.88-.54 1.56V108h-1.152v-6.36h1.104v.96c.232-.328.544-.58.936-.756.4-.176.852-.264 1.356-.264zm7.088 0c.88 0 1.552.216 2.016.648.472.432.708 1.076.708 1.932V108h-1.092v-.84a1.853 1.853 0 0 1-.828.684c-.352.152-.772.228-1.26.228-.712 0-1.284-.172-1.716-.516-.424-.344-.636-.796-.636-1.356s.204-1.008.612-1.344c.408-.344 1.056-.516 1.944-.516h1.824v-.228c0-.496-.144-.876-.432-1.14-.288-.264-.712-.396-1.272-.396-.376 0-.744.064-1.104.192a2.76 2.76 0 0 0-.912.492l-.48-.864c.328-.264.72-.464 1.176-.6.456-.144.94-.216 1.452-.216zm-.264 5.604c.44 0 .82-.096 1.14-.288.32-.2.552-.48.696-.84v-.888h-1.776c-.976 0-1.464.328-1.464.984 0 .32.124.572.372.756.248.184.592.276 1.032.276zm8.492-5.604c.616 0 1.168.136 1.656.408.488.272.868.652 1.14 1.14.28.488.42 1.052.42 1.692 0 .64-.14 1.208-.42 1.704a2.894 2.894 0 0 1-1.14 1.14 3.343 3.343 0 0 1-1.656.408c-.472 0-.904-.092-1.296-.276a2.495 2.495 0 0 1-.972-.804V108h-1.104v-8.904h1.152v3.504c.256-.336.576-.588.96-.756a2.988 2.988 0 0 1 1.26-.264zm-.096 5.484a2.15 2.15 0 0 0 1.092-.276 2.03 2.03 0 0 0 .768-.792c.192-.344.288-.736.288-1.176 0-.44-.096-.828-.288-1.164a1.93 1.93 0 0 0-.768-.792 2.15 2.15 0 0 0-1.092-.276c-.4 0-.764.092-1.092.276a1.93 1.93 0 0 0-.768.792 2.385 2.385 0 0 0-.276 1.164c0 .44.092.832.276 1.176.184.336.44.6.768.792.328.184.692.276 1.092.276zm4.903-7.968h1.152V108h-1.152v-8.904zm9.1 5.76c0 .088-.008.204-.024.348h-5.16c.072.56.316 1.012.732 1.356.424.336.948.504 1.572.504.76 0 1.372-.256 1.836-.768l.636.744a2.777 2.777 0 0 1-1.08.768c-.424.176-.9.264-1.428.264-.672 0-1.268-.136-1.788-.408a3.033 3.033 0 0 1-1.212-1.164 3.357 3.357 0 0 1-.42-1.68c0-.616.136-1.172.408-1.668.28-.496.66-.88 1.14-1.152a3.244 3.244 0 0 1 1.644-.42c.608 0 1.148.14 1.62.42.48.272.852.656 1.116 1.152.272.496.408 1.064.408 1.704zm-3.144-2.304c-.552 0-1.016.168-1.392.504-.368.336-.584.776-.648 1.32h4.08c-.064-.536-.284-.972-.66-1.308-.368-.344-.828-.516-1.38-.516zm9.334-1.908v2.928h4.212v1.032h-4.212V108h-1.2v-8.4h5.928v1.044h-4.728zm8.343.936c.88 0 1.552.216 2.016.648.472.432.708 1.076.708 1.932V108h-1.092v-.84a1.853 1.853 0 0 1-.828.684c-.352.152-.772.228-1.26.228-.712 0-1.284-.172-1.716-.516-.424-.344-.636-.796-.636-1.356s.204-1.008.612-1.344c.408-.344 1.056-.516 1.944-.516h1.824v-.228c0-.496-.144-.876-.432-1.14-.288-.264-.712-.396-1.272-.396-.376 0-.744.064-1.104.192a2.76 2.76 0 0 0-.912.492l-.48-.864c.328-.264.72-.464 1.176-.6.456-.144.94-.216 1.452-.216zm-.264 5.604c.44 0 .82-.096 1.14-.288.32-.2.552-.48.696-.84v-.888h-1.776c-.976 0-1.464.328-1.464.984 0 .32.124.572.372.756.248.184.592.276 1.032.276zm7.927.888c-.648 0-1.228-.14-1.74-.42-.504-.28-.9-.664-1.188-1.152a3.284 3.284 0 0 1-.432-1.68c0-.624.144-1.18.432-1.668.288-.496.684-.88 1.188-1.152.512-.28 1.092-.42 1.74-.42.576 0 1.088.116 1.536.348a2.47 2.47 0 0 1 1.056 1.008l-.876.564a1.957 1.957 0 0 0-.744-.684 2.122 2.122 0 0 0-.984-.228 2.31 2.31 0 0 0-1.128.276 2.008 2.008 0 0 0-.78.792 2.385 2.385 0 0 0-.276 1.164c0 .448.092.844.276 1.188.192.336.452.596.78.78a2.31 2.31 0 0 0 1.128.276c.36 0 .688-.076.984-.228.296-.152.544-.38.744-.684l.876.552c-.248.44-.6.78-1.056 1.02-.448.232-.96.348-1.536.348zm9.738-3.216c0 .088-.008.204-.024.348h-5.16c.072.56.316 1.012.732 1.356.424.336.948.504 1.572.504.76 0 1.372-.256 1.836-.768l.636.744a2.777 2.777 0 0 1-1.08.768c-.424.176-.9.264-1.428.264-.672 0-1.268-.136-1.788-.408a3.033 3.033 0 0 1-1.212-1.164 3.357 3.357 0 0 1-.42-1.68c0-.616.136-1.172.408-1.668.28-.496.66-.88 1.14-1.152a3.244 3.244 0 0 1 1.644-.42c.608 0 1.148.14 1.62.42.48.272.852.656 1.116 1.152.272.496.408 1.064.408 1.704zm-3.144-2.304c-.552 0-1.016.168-1.392.504-.368.336-.584.776-.648 1.32h4.08c-.064-.536-.284-.972-.66-1.308-.368-.344-.828-.516-1.38-.516zm8.115-.972c.616 0 1.168.136 1.656.408.488.272.868.652 1.14 1.14.28.488.42 1.052.42 1.692 0 .64-.14 1.208-.42 1.704a2.894 2.894 0 0 1-1.14 1.14 3.343 3.343 0 0 1-1.656.408c-.472 0-.904-.092-1.296-.276a2.495 2.495 0 0 1-.972-.804V108h-1.104v-8.904h1.152v3.504c.256-.336.576-.588.96-.756a2.988 2.988 0 0 1 1.26-.264zm-.096 5.484a2.15 2.15 0 0 0 1.092-.276 2.03 2.03 0 0 0 .768-.792c.192-.344.288-.736.288-1.176 0-.44-.096-.828-.288-1.164a1.93 1.93 0 0 0-.768-.792 2.15 2.15 0 0 0-1.092-.276c-.4 0-.764.092-1.092.276a1.93 1.93 0 0 0-.768.792 2.385 2.385 0 0 0-.276 1.164c0 .44.092.832.276 1.176.184.336.44.6.768.792.328.184.692.276 1.092.276zm7.628 1.008c-.632 0-1.2-.14-1.704-.42-.504-.28-.9-.664-1.188-1.152a3.357 3.357 0 0 1-.42-1.68c0-.624.14-1.18.42-1.668.288-.496.684-.88 1.188-1.152a3.449 3.449 0 0 1 1.704-.42c.632 0 1.196.14 1.692.42.504.272.896.656 1.176 1.152.288.488.432 1.044.432 1.668 0 .624-.144 1.184-.432 1.68-.28.488-.672.872-1.176 1.152-.496.28-1.06.42-1.692.42zm0-1.008a2.15 2.15 0 0 0 1.092-.276 2.03 2.03 0 0 0 .768-.792c.184-.344.276-.736.276-1.176 0-.44-.092-.828-.276-1.164a1.93 1.93 0 0 0-.768-.792 2.15 2.15 0 0 0-1.092-.276c-.408 0-.776.092-1.104.276-.32.184-.576.448-.768.792a2.385 2.385 0 0 0-.276 1.164c0 .44.092.832.276 1.176.192.336.448.6.768.792.328.184.696.276 1.104.276zm7.617 1.008c-.632 0-1.2-.14-1.704-.42-.504-.28-.9-.664-1.188-1.152a3.357 3.357 0 0 1-.42-1.68c0-.624.14-1.18.42-1.668.288-.496.684-.88 1.188-1.152a3.449 3.449 0 0 1 1.704-.42c.632 0 1.196.14 1.692.42.504.272.896.656 1.176 1.152.288.488.432 1.044.432 1.668 0 .624-.144 1.184-.432 1.68-.28.488-.672.872-1.176 1.152-.496.28-1.06.42-1.692.42zm0-1.008a2.15 2.15 0 0 0 1.092-.276 2.03 2.03 0 0 0 .768-.792c.184-.344.276-.736.276-1.176 0-.44-.092-.828-.276-1.164a1.93 1.93 0 0 0-.768-.792 2.15 2.15 0 0 0-1.092-.276c-.408 0-.776.092-1.104.276-.32.184-.576.448-.768.792a2.385 2.385 0 0 0-.276 1.164c0 .44.092.832.276 1.176.192.336.448.6.768.792.328.184.696.276 1.104.276zm7.365-2.028l-1.32 1.224V108h-1.152v-8.904h1.152v5.712l3.468-3.168h1.392l-2.676 2.628 2.94 3.732h-1.416l-2.388-2.964zm11.59-5.436c1.088 0 1.944.26 2.568.78.624.52.936 1.236.936 2.148 0 .912-.312 1.628-.936 2.148-.624.52-1.48.78-2.568.78h-2.076V108h-1.2v-8.4h3.276zm-.036 4.812c.76 0 1.34-.16 1.74-.48.4-.328.6-.796.6-1.404 0-.608-.2-1.072-.6-1.392-.4-.328-.98-.492-1.74-.492h-2.04v3.768h2.04zm5.029-2.772h1.152V108h-1.152v-6.36zm.576-1.224a.789.789 0 0 1-.564-.216.718.718 0 0 1-.216-.528c0-.208.072-.384.216-.528a.766.766 0 0 1 .564-.228c.224 0 .408.072.552.216a.662.662 0 0 1 .228.516c0 .216-.076.4-.228.552a.748.748 0 0 1-.552.216zm6.832 7.584l-1.836-2.436-1.86 2.436h-1.284l2.508-3.252-2.388-3.108h1.284l1.752 2.292 1.74-2.292h1.26l-2.4 3.108 2.532 3.252h-1.308zm8.102-3.144c0 .088-.008.204-.024.348h-5.16c.072.56.316 1.012.732 1.356.424.336.948.504 1.572.504.76 0 1.372-.256 1.836-.768l.636.744a2.777 2.777 0 0 1-1.08.768c-.424.176-.9.264-1.428.264-.672 0-1.268-.136-1.788-.408a3.033 3.033 0 0 1-1.212-1.164 3.357 3.357 0 0 1-.42-1.68c0-.616.136-1.172.408-1.668.28-.496.66-.88 1.14-1.152a3.244 3.244 0 0 1 1.644-.42c.608 0 1.148.14 1.62.42.48.272.852.656 1.116 1.152.272.496.408 1.064.408 1.704zm-3.144-2.304c-.552 0-1.016.168-1.392.504-.368.336-.584.776-.648 1.32h4.08c-.064-.536-.284-.972-.66-1.308-.368-.344-.828-.516-1.38-.516zm4.743-3.456h1.152V108h-1.152v-8.904z"/><path fill="#E8E9F1" d="M0 10C0 4.477 4.477 0 10 0h466c5.523 0 10 4.477 10 10v28H0V10z"/><path stroke="#EB5757" d="M51.405 19.57c0 3.047-2.418 5.5-5.379 5.5-2.96 0-5.378-2.453-5.378-5.5 0-3.048 2.417-5.5 5.378-5.5 2.961 0 5.38 2.452 5.38 5.5z"/><path stroke="#F2994A" d="M67.254 19.57c0 3.047-2.418 5.5-5.379 5.5-2.96 0-5.379-2.453-5.379-5.5 0-3.048 2.418-5.5 5.38-5.5 2.96 0 5.378 2.452 5.378 5.5z"/><path stroke="#219653" d="M83.102 19.57c0 3.047-2.417 5.5-5.378 5.5-2.961 0-5.379-2.453-5.379-5.5 0-3.048 2.418-5.5 5.379-5.5 2.96 0 5.378 2.452 5.378 5.5z"/><rect width="167" height="18" x="160" y="10" fill="#fff" rx="9"/><path fill="#8492BB" d="M204.362 14.6l-2.808 8.4h-1.26l-2.292-6.708L195.71 23h-1.284l-2.808-8.4h1.236l2.268 6.828 2.364-6.828h1.104l2.316 6.864 2.316-6.864h1.14zm3.544 8.472c-.632 0-1.2-.14-1.704-.42-.504-.28-.9-.664-1.188-1.152a3.357 3.357 0 0 1-.42-1.68c0-.624.14-1.18.42-1.668.288-.496.684-.88 1.188-1.152a3.449 3.449 0 0 1 1.704-.42c.632 0 1.196.14 1.692.42.504.272.896.656 1.176 1.152.288.488.432 1.044.432 1.668 0 .624-.144 1.184-.432 1.68-.28.488-.672.872-1.176 1.152-.496.28-1.06.42-1.692.42zm0-1.008a2.15 2.15 0 0 0 1.092-.276 2.03 2.03 0 0 0 .768-.792c.184-.344.276-.736.276-1.176 0-.44-.092-.828-.276-1.164a1.93 1.93 0 0 0-.768-.792 2.15 2.15 0 0 0-1.092-.276c-.408 0-.776.092-1.104.276-.32.184-.576.448-.768.792a2.385 2.385 0 0 0-.276 1.164c0 .44.092.832.276 1.176.192.336.448.6.768.792.328.184.696.276 1.104.276zm7.617 1.008c-.632 0-1.2-.14-1.704-.42-.504-.28-.9-.664-1.188-1.152a3.357 3.357 0 0 1-.42-1.68c0-.624.14-1.18.42-1.668.288-.496.684-.88 1.188-1.152a3.449 3.449 0 0 1 1.704-.42c.632 0 1.196.14 1.692.42.504.272.896.656 1.176 1.152.288.488.432 1.044.432 1.668 0 .624-.144 1.184-.432 1.68-.28.488-.672.872-1.176 1.152-.496.28-1.06.42-1.692.42zm0-1.008a2.15 2.15 0 0 0 1.092-.276 2.03 2.03 0 0 0 .768-.792c.184-.344.276-.736.276-1.176 0-.44-.092-.828-.276-1.164a1.93 1.93 0 0 0-.768-.792 2.15 2.15 0 0 0-1.092-.276c-.408 0-.776.092-1.104.276-.32.184-.576.448-.768.792a2.385 2.385 0 0 0-.276 1.164c0 .44.092.832.276 1.176.192.336.448.6.768.792.328.184.696.276 1.104.276zm10.444-7.092c-.688 0-1.032.372-1.032 1.116v.552h1.848v.948h-1.824V23h-1.152v-5.412h-1.08v-.948h1.08v-.564c0-.632.184-1.132.552-1.5.368-.368.884-.552 1.548-.552.256 0 .496.032.72.096.224.064.416.156.576.276l-.348.876c-.264-.2-.56-.3-.888-.3zm7.557 4.884c0 .088-.008.204-.024.348h-5.16c.072.56.316 1.012.732 1.356.424.336.948.504 1.572.504.76 0 1.372-.256 1.836-.768l.636.744a2.777 2.777 0 0 1-1.08.768c-.424.176-.9.264-1.428.264-.672 0-1.268-.136-1.788-.408a3.033 3.033 0 0 1-1.212-1.164 3.357 3.357 0 0 1-.42-1.68c0-.616.136-1.172.408-1.668.28-.496.66-.88 1.14-1.152a3.244 3.244 0 0 1 1.644-.42c.608 0 1.148.14 1.62.42.48.272.852.656 1.116 1.152.272.496.408 1.064.408 1.704zm-3.144-2.304c-.552 0-1.016.168-1.392.504-.368.336-.584.776-.648 1.32h4.08c-.064-.536-.284-.972-.66-1.308-.368-.344-.828-.516-1.38-.516zm10.491 2.304c0 .088-.008.204-.024.348h-5.16c.072.56.316 1.012.732 1.356.424.336.948.504 1.572.504.76 0 1.372-.256 1.836-.768l.636.744a2.777 2.777 0 0 1-1.08.768c-.424.176-.9.264-1.428.264-.672 0-1.268-.136-1.788-.408a3.033 3.033 0 0 1-1.212-1.164 3.357 3.357 0 0 1-.42-1.68c0-.616.136-1.172.408-1.668.28-.496.66-.88 1.14-1.152a3.244 3.244 0 0 1 1.644-.42c.608 0 1.148.14 1.62.42.48.272.852.656 1.116 1.152.272.496.408 1.064.408 1.704zm-3.144-2.304c-.552 0-1.016.168-1.392.504-.368.336-.584.776-.648 1.32h4.08c-.064-.536-.284-.972-.66-1.308-.368-.344-.828-.516-1.38-.516zm10.744-3.456V23h-1.104v-1.008c-.256.352-.58.62-.972.804a3.012 3.012 0 0 1-1.296.276 3.343 3.343 0 0 1-1.656-.408 2.976 2.976 0 0 1-1.152-1.14c-.272-.496-.408-1.064-.408-1.704 0-.64.136-1.204.408-1.692.28-.488.664-.868 1.152-1.14a3.343 3.343 0 0 1 1.656-.408c.456 0 .876.088 1.26.264.384.168.704.42.96.756v-3.504h1.152zm-3.276 7.968c.4 0 .764-.092 1.092-.276a2.03 2.03 0 0 0 .768-.792c.184-.344.276-.736.276-1.176 0-.44-.092-.828-.276-1.164a1.93 1.93 0 0 0-.768-.792 2.193 2.193 0 0 0-1.092-.276c-.408 0-.776.092-1.104.276-.32.184-.576.448-.768.792a2.385 2.385 0 0 0-.276 1.164c0 .44.092.832.276 1.176.192.336.448.6.768.792.328.184.696.276 1.104.276zm10.502 1.008c-.52 0-1.02-.068-1.5-.204-.48-.144-.856-.324-1.128-.54l.48-.912c.28.2.62.36 1.02.48s.804.18 1.212.18c1.008 0 1.512-.288 1.512-.864a.56.56 0 0 0-.204-.456 1.235 1.235 0 0 0-.516-.24 9.055 9.055 0 0 0-.864-.18 8.75 8.75 0 0 1-1.26-.276 1.937 1.937 0 0 1-.828-.528c-.232-.248-.348-.596-.348-1.044 0-.576.24-1.036.72-1.38.48-.352 1.124-.528 1.932-.528.424 0 .848.052 1.272.156.424.104.772.244 1.044.42l-.492.912c-.52-.336-1.132-.504-1.836-.504-.488 0-.86.08-1.116.24-.256.16-.384.372-.384.636 0 .208.072.372.216.492.144.12.32.208.528.264.216.056.516.12.9.192.512.088.924.184 1.236.288.32.096.592.264.816.504.224.24.336.576.336 1.008 0 .576-.248 1.036-.744 1.38-.488.336-1.156.504-2.004.504zm9.936-3.216c0 .088-.008.204-.024.348h-5.16c.072.56.316 1.012.732 1.356.424.336.948.504 1.572.504.76 0 1.372-.256 1.836-.768l.636.744a2.777 2.777 0 0 1-1.08.768c-.424.176-.9.264-1.428.264-.672 0-1.268-.136-1.788-.408a3.033 3.033 0 0 1-1.212-1.164 3.357 3.357 0 0 1-.42-1.68c0-.616.136-1.172.408-1.668.28-.496.66-.88 1.14-1.152a3.244 3.244 0 0 1 1.644-.42c.608 0 1.148.14 1.62.42.48.272.852.656 1.116 1.152.272.496.408 1.064.408 1.704zm-3.144-2.304c-.552 0-1.016.168-1.392.504-.368.336-.584.776-.648 1.32h4.08c-.064-.536-.284-.972-.66-1.308-.368-.344-.828-.516-1.38-.516zm8.32 5.076a1.79 1.79 0 0 1-.624.336 2.74 2.74 0 0 1-.768.108c-.64 0-1.136-.172-1.488-.516-.352-.344-.528-.836-.528-1.476v-3.492h-1.08v-.948h1.08v-1.392h1.152v1.392h1.824v.948h-1.824v3.444c0 .344.084.608.252.792.176.184.424.276.744.276.352 0 .652-.1.9-.3l.36.828zm4.816 0a1.79 1.79 0 0 1-.624.336 2.74 2.74 0 0 1-.768.108c-.64 0-1.136-.172-1.488-.516-.352-.344-.528-.836-.528-1.476v-3.492h-1.08v-.948h1.08v-1.392h1.152v1.392h1.824v.948h-1.824v3.444c0 .344.084.608.252.792.176.184.424.276.744.276.352 0 .652-.1.9-.3l.36.828zm1.393-5.988h1.152V23h-1.152v-6.36zm.576-1.224a.789.789 0 0 1-.564-.216.718.718 0 0 1-.216-.528c0-.208.072-.384.216-.528a.766.766 0 0 1 .564-.228c.224 0 .408.072.552.216a.662.662 0 0 1 .228.516c0 .216-.076.4-.228.552a.748.748 0 0 1-.552.216zm6.171 1.164c.808 0 1.448.236 1.92.708.48.464.72 1.148.72 2.052V23h-1.152v-3.528c0-.616-.148-1.08-.444-1.392-.296-.312-.72-.468-1.272-.468-.624 0-1.116.184-1.476.552-.36.36-.54.88-.54 1.56V23h-1.152v-6.36h1.104v.96c.232-.328.544-.58.936-.756.4-.176.852-.264 1.356-.264zm10.891.06v5.496c0 1.112-.276 1.932-.828 2.46-.552.536-1.376.804-2.472.804-.6 0-1.172-.084-1.716-.252-.544-.16-.984-.392-1.32-.696l.552-.888c.296.256.66.456 1.092.6.44.152.892.228 1.356.228.744 0 1.292-.176 1.644-.528.36-.352.54-.888.54-1.608v-.504a2.594 2.594 0 0 1-1.008.744c-.392.16-.82.24-1.284.24-.608 0-1.16-.128-1.656-.384a2.968 2.968 0 0 1-1.152-1.092 3.091 3.091 0 0 1-.42-1.608c0-.6.14-1.132.42-1.596.28-.472.664-.836 1.152-1.092a3.557 3.557 0 0 1 1.656-.384c.48 0 .924.088 1.332.264.416.176.756.436 1.02.78v-.984h1.092zm-3.312 5.088c.416 0 .788-.088 1.116-.264.336-.176.596-.42.78-.732.192-.32.288-.68.288-1.08 0-.616-.204-1.112-.612-1.488-.408-.384-.932-.576-1.572-.576-.648 0-1.176.192-1.584.576-.408.376-.612.872-.612 1.488 0 .4.092.76.276 1.08.192.312.452.556.78.732a2.42 2.42 0 0 0 1.14.264z"/></g><defs><filter id="b" width="97.63" height="98.46" x="400.71" y="218.54" color-interpolation-filters="sRGB" filterUnits="userSpaceOnUse"><feFlood flood-opacity="0" result="BackgroundImageFix"/><feColorMatrix in="SourceAlpha" values="0 0 0 0 0 0 0 0 0 0 0 0 0 0 0 0 0 0 127 0"/><feOffset dy="15"/><feGaussianBlur stdDeviation="15"/><feColorMatrix values="0 0 0 0 0.788235 0 0 0 0 0.788235 0 0 0 0 0.788235 0 0 0 0.3 0"/><feBlend in2="BackgroundImageFix" result="effect1_dropShadow"/><feBlend in="SourceGraphic" in2="effect1_dropShadow" result="shape"/></filter><filter id="d" width="97.63" height="98.46" x="373.1" y="260.17" color-interpolation-filters="sRGB" filterUnits="userSpaceOnUse"><feFlood flood-opacity="0" result="BackgroundImageFix"/><feColorMatrix in="SourceAlpha" values="0 0 0 0 0 0 0 0 0 0 0 0 0 0 0 0 0 0 127 0"/><feOffset dy="15"/><feGaussianBlur stdDeviation="15"/><feColorMatrix values="0 0 0 0 0.788235 0 0 0 0 0.788235 0 0 0 0 0.788235 0 0 0 0.3 0"/><feBlend in2="BackgroundImageFix" result="effect1_dropShadow"/><feBlend in="SourceGraphic" in2="effect1_dropShadow" result="shape"/></filter><filter id="f" width="97.63" height="98.46" x="326.94" y="281.54" color-interpolation-filters="sRGB" filterUnits="userSpaceOnUse"><feFlood flood-opacity="0" result="BackgroundImageFix"/><feColorMatrix in="SourceAlpha" values="0 0 0 0 0 0 0 0 0 0 0 0 0 0 0 0 0 0 127 0"/><feOffset dy="15"/><feGaussianBlur stdDeviation="15"/><feColorMatrix values="0 0 0 0 0.788235 0 0 0 0 0.788235 0 0 0 0 0.788235 0 0 0 0.3 0"/><feBlend in2="BackgroundImageFix" result="effect1_dropShadow"/><feBlend in="SourceGraphic" in2="effect1_dropShadow" result="shape"/></filter><filter id="h" width="97.63" height="98.46" x="280.79" y="281.54" color-interpolation-filters="sRGB" filterUnits="userSpaceOnUse"><feFlood flood-opacity="0" result="BackgroundImageFix"/><feColorMatrix in="SourceAlpha" values="0 0 0 0 0 0 0 0 0 0 0 0 0 0 0 0 0 0 127 0"/><feOffset dy="15"/><feGaussianBlur stdDeviation="15"/><feColorMatrix values="0 0 0 0 0.788235 0 0 0 0 0.788235 0 0 0 0 0.788235 0 0 0 0.3 0"/><feBlend in2="BackgroundImageFix" result="effect1_dropShadow"/><feBlend in="SourceGraphic" in2="effect1_dropShadow" result="shape"/></filter><filter id="j" width="97.63" height="98.46" x="234.63" y="260.17" color-interpolation-filters="sRGB" filterUnits="userSpaceOnUse"><feFlood flood-opacity="0" result="BackgroundImageFix"/><feColorMatrix in="SourceAlpha" values="0 0 0 0 0 0 0 0 0 0 0 0 0 0 0 0 0 0 127 0"/><feOffset dy="15"/><feGaussianBlur stdDeviation="15"/><feColorMatrix values="0 0 0 0 0.788235 0 0 0 0 0.788235 0 0 0 0 0.788235 0 0 0 0.3 0"/><feBlend in2="BackgroundImageFix" result="effect1_dropShadow"/><feBlend in="SourceGraphic" in2="effect1_dropShadow" result="shape"/></filter><filter id="l" width="97.63" height="98.46" x="207" y="218.54" color-interpolation-filters="sRGB" filterUnits="userSpaceOnUse"><feFlood flood-opacity="0" result="BackgroundImageFix"/><feColorMatrix in="SourceAlpha" values="0 0 0 0 0 0 0 0 0 0 0 0 0 0 0 0 0 0 127 0"/><feOffset dy="15"/><feGaussianBlur stdDeviation="15"/><feColorMatrix values="0 0 0 0 0.788235 0 0 0 0 0.788235 0 0 0 0 0.788235 0 0 0 0.3 0"/><feBlend in2="BackgroundImageFix" result="effect1_dropShadow"/><feBlend in="SourceGraphic" in2="effect1_dropShadow" result="shape"/></filter><clipPath id="a"><path fill="#fff" d="M0 0h16v16H0z" transform="translate(92 229)"/></clipPath><clipPath id="c"><path fill="#fff" d="M0 0h22.58v23.08H0z" transform="translate(438.237 241.235)"/></clipPath><clipPath id="e"><path fill="#fff" d="M0 0h22.58v23.08H0z" transform="translate(410.628 282.86)"/></clipPath><clipPath id="g"><path fill="#fff" d="M0 0h22.58v23.08H0z" transform="translate(364.472 304.229)"/></clipPath><clipPath id="i"><path fill="#fff" d="M0 0h17.56v17.95H0z" transform="translate(319.57 304.87)"/></clipPath><clipPath id="k"><path fill="#fff" d="M0 0h20.07v20.51H0z" transform="translate(273.413 284.143)"/></clipPath><clipPath id="m"><path fill="#fff" d="M0 0h22.58v23.08H0z" transform="translate(244.526 241.235)"/></clipPath></defs></svg>