<svg xmlns="http://www.w3.org/2000/svg" width="488" height="315" fill="none" viewBox="0 0 488 315"><g opacity=".8"><path fill="#F5F6F9" d="M0 10C0 4.477 4.477 0 10 0h468c5.523 0 10 4.477 10 10v291c0 5.523-4.477 10-10 10H10c-5.523 0-10-4.477-10-10V10z"/><rect width="119" height="32" x="40" y="125" fill="#62699F" rx="5"/><path fill="#fff" d="M59.708 145.096a5.914 5.914 0 0 1-1.836-.288c-.584-.2-1.044-.456-1.38-.768l.444-.936c.32.288.728.524 1.224.708.504.176 1.02.264 1.548.264.696 0 1.216-.116 1.56-.348.344-.24.516-.556.516-.948a.9.9 0 0 0-.288-.696 1.784 1.784 0 0 0-.696-.42c-.272-.096-.66-.204-1.164-.324a12.396 12.396 0 0 1-1.536-.456 2.616 2.616 0 0 1-.996-.696c-.272-.32-.408-.748-.408-1.284 0-.448.116-.852.348-1.212.24-.36.6-.648 1.08-.864.48-.216 1.076-.324 1.788-.324.496 0 .984.064 1.464.192s.892.312 1.236.552l-.396.96a4.199 4.199 0 0 0-1.128-.504 4.08 4.08 0 0 0-1.176-.18c-.68 0-1.192.124-1.536.372-.336.248-.504.568-.504.96 0 .288.096.524.288.708.192.176.428.316.708.42.288.096.676.2 1.164.312.632.152 1.14.304 1.524.456.384.152.712.384.984.696.28.312.42.732.42 1.26 0 .44-.12.844-.36 1.212-.24.36-.604.648-1.092.864-.488.208-1.088.312-1.8.312zm7.153-6.516c.88 0 1.552.216 2.016.648.472.432.708 1.076.708 1.932V145h-1.092v-.84a1.853 1.853 0 0 1-.828.684c-.352.152-.772.228-1.26.228-.712 0-1.284-.172-1.716-.516-.424-.344-.636-.796-.636-1.356s.204-1.008.612-1.344c.408-.344 1.056-.516 1.944-.516h1.824v-.228c0-.496-.144-.876-.432-1.14-.288-.264-.712-.396-1.272-.396-.376 0-.744.064-1.104.192a2.76 2.76 0 0 0-.912.492l-.48-.864c.328-.264.72-.464 1.176-.6.456-.144.94-.216 1.452-.216zm-.264 5.604c.44 0 .82-.096 1.14-.288.32-.2.552-.48.696-.84v-.888h-1.776c-.976 0-1.464.328-1.464.984 0 .32.124.572.372.756.248.184.592.276 1.032.276zm10.63-5.544L74.445 145h-1.176l-2.784-6.36h1.2l2.184 5.1 2.232-5.1h1.128zm6.648 3.216c0 .088-.008.204-.024.348h-5.16c.072.56.316 1.012.732 1.356.424.336.948.504 1.572.504.76 0 1.372-.256 1.836-.768l.636.744a2.777 2.777 0 0 1-1.08.768c-.424.176-.9.264-1.428.264-.672 0-1.268-.136-1.788-.408a3.033 3.033 0 0 1-1.212-1.164 3.357 3.357 0 0 1-.42-1.68c0-.616.136-1.172.408-1.668.28-.496.66-.88 1.14-1.152a3.244 3.244 0 0 1 1.644-.42c.608 0 1.148.14 1.62.42.48.272.852.656 1.116 1.152.272.496.408 1.064.408 1.704zm-3.144-2.304c-.552 0-1.016.168-1.392.504-.368.336-.584.776-.648 1.32h4.08c-.064-.536-.284-.972-.66-1.308-.368-.344-.828-.516-1.38-.516zm11.89 5.544c-.84 0-1.6-.184-2.28-.552a4.175 4.175 0 0 1-1.584-1.536c-.383-.656-.576-1.392-.576-2.208 0-.816.193-1.548.576-2.196a4.04 4.04 0 0 1 1.596-1.536c.68-.376 1.44-.564 2.28-.564.657 0 1.257.112 1.8.336.544.216 1.008.54 1.392.972l-.78.756c-.632-.664-1.42-.996-2.364-.996a3.42 3.42 0 0 0-1.691.42c-.504.28-.9.668-1.188 1.164a3.244 3.244 0 0 0-.42 1.644c0 .608.14 1.16.42 1.656.287.488.683.872 1.188 1.152.504.28 1.068.42 1.692.42.936 0 1.724-.336 2.364-1.008l.78.756c-.384.432-.852.76-1.404.984a4.684 4.684 0 0 1-1.8.336zm8.144-6.516c.808 0 1.448.236 1.92.708.48.464.72 1.148.72 2.052V145h-1.152v-3.528c0-.616-.148-1.08-.444-1.392-.296-.312-.72-.468-1.272-.468-.624 0-1.116.184-1.476.552-.36.36-.54.88-.54 1.56V145H97.37v-8.904h1.152v3.444c.24-.304.552-.54.936-.708a3.286 3.286 0 0 1 1.308-.252zm7.088 0c.88 0 1.552.216 2.016.648.472.432.708 1.076.708 1.932V145h-1.092v-.84a1.853 1.853 0 0 1-.828.684c-.352.152-.772.228-1.26.228-.712 0-1.284-.172-1.716-.516-.424-.344-.636-.796-.636-1.356s.204-1.008.612-1.344c.408-.344 1.056-.516 1.944-.516h1.824v-.228c0-.496-.144-.876-.432-1.14-.288-.264-.712-.396-1.272-.396-.376 0-.744.064-1.104.192a2.76 2.76 0 0 0-.912.492l-.48-.864c.328-.264.72-.464 1.176-.6.456-.144.94-.216 1.452-.216zm-.264 5.604c.44 0 .82-.096 1.14-.288.32-.2.552-.48.696-.84v-.888h-1.776c-.976 0-1.464.328-1.464.984 0 .32.124.572.372.756.248.184.592.276 1.032.276zm8.516-5.604c.808 0 1.448.236 1.92.708.48.464.72 1.148.72 2.052V145h-1.152v-3.528c0-.616-.148-1.08-.444-1.392-.296-.312-.72-.468-1.272-.468-.624 0-1.116.184-1.476.552-.36.36-.54.88-.54 1.56V145h-1.152v-6.36h1.104v.96c.232-.328.544-.58.936-.756.4-.176.852-.264 1.356-.264zm10.891.06v5.496c0 1.112-.276 1.932-.828 2.46-.552.536-1.376.804-2.472.804-.6 0-1.172-.084-1.716-.252-.544-.16-.984-.392-1.32-.696l.552-.888c.296.256.66.456 1.092.6.44.152.892.228 1.356.228.744 0 1.292-.176 1.644-.528.36-.352.54-.888.54-1.608v-.504a2.594 2.594 0 0 1-1.008.744c-.392.16-.82.24-1.284.24-.608 0-1.16-.128-1.656-.384a2.968 2.968 0 0 1-1.152-1.092 3.091 3.091 0 0 1-.42-1.608c0-.6.14-1.132.42-1.596.28-.472.664-.836 1.152-1.092a3.557 3.557 0 0 1 1.656-.384c.48 0 .924.088 1.332.264.416.176.756.436 1.02.78v-.984h1.092zm-3.312 5.088c.416 0 .788-.088 1.116-.264.336-.176.596-.42.78-.732.192-.32.288-.68.288-1.08 0-.616-.204-1.112-.612-1.488-.408-.384-.932-.576-1.572-.576-.648 0-1.176.192-1.584.576-.408.376-.612.872-.612 1.488 0 .4.092.76.276 1.08.192.312.452.556.78.732a2.42 2.42 0 0 0 1.14.264zm11.261-1.872c0 .088-.008.204-.024.348h-5.16c.072.56.316 1.012.732 1.356.424.336.948.504 1.572.504.76 0 1.372-.256 1.836-.768l.636.744a2.777 2.777 0 0 1-1.08.768c-.424.176-.9.264-1.428.264-.672 0-1.268-.136-1.788-.408a3.033 3.033 0 0 1-1.212-1.164 3.357 3.357 0 0 1-.42-1.68c0-.616.136-1.172.408-1.668.28-.496.66-.88 1.14-1.152a3.244 3.244 0 0 1 1.644-.42c.608 0 1.148.14 1.62.42.48.272.852.656 1.116 1.152.272.496.408 1.064.408 1.704zm-3.144-2.304c-.552 0-1.016.168-1.392.504-.368.336-.584.776-.648 1.32h4.08c-.064-.536-.284-.972-.66-1.308-.368-.344-.828-.516-1.38-.516zm6.568 5.52c-.52 0-1.02-.068-1.5-.204-.48-.144-.856-.324-1.128-.54l.48-.912c.28.2.62.36 1.02.48s.804.18 1.212.18c1.008 0 1.512-.288 1.512-.864a.56.56 0 0 0-.204-.456 1.235 1.235 0 0 0-.516-.24 9.055 9.055 0 0 0-.864-.18 8.75 8.75 0 0 1-1.26-.276 1.937 1.937 0 0 1-.828-.528c-.232-.248-.348-.596-.348-1.044 0-.576.24-1.036.72-1.38.48-.352 1.124-.528 1.932-.528.424 0 .848.052 1.272.156.424.104.772.244 1.044.42l-.492.912c-.52-.336-1.132-.504-1.836-.504-.488 0-.86.08-1.116.24-.256.16-.384.372-.384.636 0 .208.072.372.216.492.144.12.32.208.528.264.216.056.516.12.9.192.512.088.924.184 1.236.288.32.096.592.264.816.504.224.24.336.576.336 1.008 0 .576-.248 1.036-.744 1.38-.488.336-1.156.504-2.004.504z"/><rect width="6" height="1" x="104.24" y="119.24" fill="#62699F" rx=".5" transform="rotate(-45 104.243 119.243)"/><rect width="6" height="1" x="99.24" y="110" fill="#62699F" rx=".5" transform="rotate(90 99.243 110)"/><rect width="6" height="1" x="93.24" y="119.95" fill="#62699F" rx=".5" transform="rotate(-135 93.243 119.95)"/><g clip-path="url(#a)"><path fill="#4B2E21" d="M100.309 167.17l.885-4.55c.208-1.07 1.244-2.105 2.315-2.311l3.875-.749c1.07-.207 1.143-.762.164-1.24l-12.577-6.127c-.98-.478-1.461-.038-1.075.981l5.337 14.087c.386 1.02.867.979 1.076-.091z"/></g><path fill="#6577AA" d="M48.08 69.752h1.152v3.276c-.416.344-.9.608-1.452.792a5.428 5.428 0 0 1-1.728.276c-.848 0-1.612-.184-2.292-.552a4.24 4.24 0 0 1-1.608-1.536c-.384-.656-.576-1.392-.576-2.208 0-.816.192-1.552.576-2.208a4.124 4.124 0 0 1 1.608-1.536c.688-.368 1.46-.552 2.316-.552.672 0 1.28.112 1.824.336.552.216 1.02.536 1.404.96l-.744.744c-.672-.648-1.484-.972-2.436-.972-.64 0-1.216.14-1.728.42-.504.272-.9.656-1.188 1.152a3.196 3.196 0 0 0-.432 1.656c0 .608.144 1.16.432 1.656.288.488.684.872 1.188 1.152.512.28 1.084.42 1.716.42.752 0 1.408-.18 1.968-.54v-2.736zm6.006 4.32c-.633 0-1.2-.14-1.704-.42-.505-.28-.9-.664-1.188-1.152a3.357 3.357 0 0 1-.42-1.68c0-.624.14-1.18.42-1.668.287-.496.683-.88 1.188-1.152a3.449 3.449 0 0 1 1.704-.42c.632 0 1.196.14 1.692.42.504.272.895.656 1.175 1.152.288.488.432 1.044.432 1.668 0 .624-.143 1.184-.431 1.68-.28.488-.672.872-1.176 1.152-.496.28-1.06.42-1.692.42zm0-1.008a2.15 2.15 0 0 0 1.092-.276 2.03 2.03 0 0 0 .768-.792c.184-.344.276-.736.276-1.176 0-.44-.093-.828-.276-1.164a1.93 1.93 0 0 0-.768-.792 2.15 2.15 0 0 0-1.092-.276c-.408 0-.776.092-1.105.276-.32.184-.575.448-.767.792a2.385 2.385 0 0 0-.276 1.164c0 .44.091.832.276 1.176.192.336.447.6.767.792.328.184.697.276 1.105.276zm7.617 1.008c-.632 0-1.2-.14-1.704-.42-.504-.28-.9-.664-1.188-1.152a3.357 3.357 0 0 1-.42-1.68c0-.624.14-1.18.42-1.668.288-.496.684-.88 1.188-1.152a3.449 3.449 0 0 1 1.704-.42c.632 0 1.196.14 1.692.42.504.272.896.656 1.176 1.152.288.488.432 1.044.432 1.668 0 .624-.144 1.184-.432 1.68-.28.488-.672.872-1.176 1.152-.496.28-1.06.42-1.692.42zm0-1.008a2.15 2.15 0 0 0 1.092-.276 2.03 2.03 0 0 0 .768-.792c.184-.344.276-.736.276-1.176 0-.44-.092-.828-.276-1.164a1.93 1.93 0 0 0-.768-.792 2.15 2.15 0 0 0-1.092-.276c-.408 0-.776.092-1.104.276-.32.184-.576.448-.768.792a2.385 2.385 0 0 0-.276 1.164c0 .44.092.832.276 1.176.192.336.448.6.768.792.328.184.696.276 1.104.276zM72.68 67.64v5.496c0 1.112-.276 1.932-.828 2.46-.552.536-1.376.804-2.472.804-.6 0-1.172-.084-1.716-.252-.544-.16-.984-.392-1.32-.696l.552-.888c.296.256.66.456 1.092.6.44.152.892.228 1.356.228.744 0 1.292-.176 1.644-.528.36-.352.54-.888.54-1.608v-.504a2.594 2.594 0 0 1-1.008.744c-.392.16-.82.24-1.284.24-.608 0-1.16-.128-1.656-.384a2.968 2.968 0 0 1-1.152-1.092 3.091 3.091 0 0 1-.42-1.608c0-.6.14-1.132.42-1.596.28-.472.664-.836 1.152-1.092a3.557 3.557 0 0 1 1.656-.384c.48 0 .924.088 1.332.264.416.176.756.436 1.02.78v-.984h1.092zm-3.312 5.088c.416 0 .788-.088 1.116-.264.336-.176.596-.42.78-.732.192-.32.288-.68.288-1.08 0-.616-.204-1.112-.612-1.488-.408-.384-.932-.576-1.572-.576-.648 0-1.176.192-1.584.576-.408.376-.612.872-.612 1.488 0 .4.092.76.276 1.08.192.312.452.556.78.732a2.42 2.42 0 0 0 1.14.264zm5.513-7.632h1.152V74h-1.152v-8.904zm9.1 5.76c0 .088-.008.204-.024.348h-5.16c.072.56.316 1.012.732 1.356.424.336.948.504 1.572.504.76 0 1.372-.256 1.836-.768l.636.744a2.777 2.777 0 0 1-1.08.768c-.424.176-.9.264-1.428.264-.672 0-1.268-.136-1.788-.408a3.033 3.033 0 0 1-1.212-1.164 3.357 3.357 0 0 1-.42-1.68c0-.616.136-1.172.408-1.668.28-.496.66-.88 1.14-1.152a3.244 3.244 0 0 1 1.644-.42c.608 0 1.148.14 1.62.42.48.272.852.656 1.116 1.152.272.496.408 1.064.408 1.704zm-3.144-2.304c-.552 0-1.016.168-1.392.504-.368.336-.584.776-.648 1.32h4.08c-.064-.536-.284-.972-.66-1.308-.368-.344-.828-.516-1.38-.516zM94.323 71.9h-4.464l-.924 2.1h-1.236l3.804-8.4h1.188l3.816 8.4h-1.26l-.924-2.1zm-.42-.96l-1.812-4.116-1.812 4.116h3.624zm9.63-5.844V74h-1.104v-1.008c-.256.352-.58.62-.972.804a3.012 3.012 0 0 1-1.296.276 3.343 3.343 0 0 1-1.656-.408 2.976 2.976 0 0 1-1.152-1.14c-.272-.496-.408-1.064-.408-1.704 0-.64.136-1.204.408-1.692.28-.488.664-.868 1.152-1.14a3.343 3.343 0 0 1 1.656-.408c.456 0 .876.088 1.26.264.384.168.704.42.96.756v-3.504h1.152zm-3.276 7.968c.4 0 .764-.092 1.092-.276a2.03 2.03 0 0 0 .768-.792c.184-.344.276-.736.276-1.176 0-.44-.092-.828-.276-1.164a1.93 1.93 0 0 0-.768-.792 2.193 2.193 0 0 0-1.092-.276c-.408 0-.776.092-1.104.276-.32.184-.576.448-.768.792a2.385 2.385 0 0 0-.276 1.164c0 .44.092.832.276 1.176.192.336.448.6.768.792.328.184.696.276 1.104.276zm7.28 1.008c-.52 0-1.02-.068-1.5-.204-.48-.144-.856-.324-1.128-.54l.48-.912c.28.2.62.36 1.02.48s.804.18 1.212.18c1.008 0 1.512-.288 1.512-.864a.56.56 0 0 0-.204-.456 1.235 1.235 0 0 0-.516-.24 9.055 9.055 0 0 0-.864-.18 8.75 8.75 0 0 1-1.26-.276 1.937 1.937 0 0 1-.828-.528c-.232-.248-.348-.596-.348-1.044 0-.576.24-1.036.72-1.38.48-.352 1.124-.528 1.932-.528.424 0 .848.052 1.272.156.424.104.772.244 1.044.42l-.492.912c-.52-.336-1.132-.504-1.836-.504-.488 0-.86.08-1.116.24-.256.16-.384.372-.384.636 0 .208.072.372.216.492.144.12.32.208.528.264.216.056.516.12.9.192.512.088.924.184 1.236.288.32.096.592.264.816.504.224.24.336.576.336 1.008 0 .576-.248 1.036-.744 1.38-.488.336-1.156.504-2.004.504zm11.334.024c-.84 0-1.6-.184-2.28-.552a4.175 4.175 0 0 1-1.584-1.536c-.384-.656-.576-1.392-.576-2.208 0-.816.192-1.548.576-2.196a4.04 4.04 0 0 1 1.596-1.536c.68-.376 1.44-.564 2.28-.564.656 0 1.256.112 1.8.336.544.216 1.008.54 1.392.972l-.78.756c-.632-.664-1.42-.996-2.364-.996-.624 0-1.188.14-1.692.42-.504.28-.9.668-1.188 1.164a3.244 3.244 0 0 0-.42 1.644c0 .608.14 1.16.42 1.656.288.488.684.872 1.188 1.152.504.28 1.068.42 1.692.42.936 0 1.724-.336 2.364-1.008l.78.756c-.384.432-.852.76-1.404.984a4.684 4.684 0 0 1-1.8.336zm7.203-.024c-.632 0-1.2-.14-1.704-.42-.504-.28-.9-.664-1.188-1.152a3.357 3.357 0 0 1-.42-1.68c0-.624.14-1.18.42-1.668.288-.496.684-.88 1.188-1.152a3.449 3.449 0 0 1 1.704-.42c.632 0 1.196.14 1.692.42.504.272.896.656 1.176 1.152.288.488.432 1.044.432 1.668 0 .624-.144 1.184-.432 1.68-.28.488-.672.872-1.176 1.152-.496.28-1.06.42-1.692.42zm0-1.008a2.15 2.15 0 0 0 1.092-.276 2.03 2.03 0 0 0 .768-.792c.184-.344.276-.736.276-1.176 0-.44-.092-.828-.276-1.164a1.93 1.93 0 0 0-.768-.792 2.15 2.15 0 0 0-1.092-.276c-.408 0-.776.092-1.104.276-.32.184-.576.448-.768.792a2.385 2.385 0 0 0-.276 1.164c0 .44.092.832.276 1.176.192.336.448.6.768.792.328.184.696.276 1.104.276zm8.289-5.484c.808 0 1.448.236 1.92.708.48.464.72 1.148.72 2.052V74h-1.152v-3.528c0-.616-.148-1.08-.444-1.392-.296-.312-.72-.468-1.272-.468-.624 0-1.116.184-1.476.552-.36.36-.54.88-.54 1.56V74h-1.152v-6.36h1.104v.96c.232-.328.544-.58.936-.756.4-.176.852-.264 1.356-.264zm10.283.06L141.862 74h-1.176l-2.784-6.36h1.2l2.184 5.1 2.232-5.1h1.128zm6.647 3.216c0 .088-.008.204-.024.348h-5.16c.072.56.316 1.012.732 1.356.424.336.948.504 1.572.504.76 0 1.372-.256 1.836-.768l.636.744a2.777 2.777 0 0 1-1.08.768c-.424.176-.9.264-1.428.264-.672 0-1.268-.136-1.788-.408a3.033 3.033 0 0 1-1.212-1.164 3.357 3.357 0 0 1-.42-1.68c0-.616.136-1.172.408-1.668.28-.496.66-.88 1.14-1.152a3.244 3.244 0 0 1 1.644-.42c.608 0 1.148.14 1.62.42.48.272.852.656 1.116 1.152.272.496.408 1.064.408 1.704zm-3.144-2.304c-.552 0-1.016.168-1.392.504-.368.336-.584.776-.648 1.32h4.08c-.064-.536-.284-.972-.66-1.308-.368-.344-.828-.516-1.38-.516zm5.848.156c.2-.368.496-.648.888-.84.392-.192.868-.288 1.428-.288v1.116a2.249 2.249 0 0 0-.264-.012c-.624 0-1.116.188-1.476.564-.352.368-.528.896-.528 1.584V74h-1.152v-6.36h1.104v1.068zm5.607 5.364c-.52 0-1.02-.068-1.5-.204-.48-.144-.856-.324-1.128-.54l.48-.912c.28.2.62.36 1.02.48s.804.18 1.212.18c1.008 0 1.512-.288 1.512-.864a.56.56 0 0 0-.204-.456 1.235 1.235 0 0 0-.516-.24 9.055 9.055 0 0 0-.864-.18 8.75 8.75 0 0 1-1.26-.276 1.937 1.937 0 0 1-.828-.528c-.232-.248-.348-.596-.348-1.044 0-.576.24-1.036.72-1.38.48-.352 1.124-.528 1.932-.528.424 0 .848.052 1.272.156.424.104.772.244 1.044.42l-.492.912c-.52-.336-1.132-.504-1.836-.504-.488 0-.86.08-1.116.24-.256.16-.384.372-.384.636 0 .208.072.372.216.492.144.12.32.208.528.264.216.056.516.12.9.192.512.088.924.184 1.236.288.32.096.592.264.816.504.224.24.336.576.336 1.008 0 .576-.248 1.036-.744 1.38-.488.336-1.156.504-2.004.504zm4.187-6.432h1.152V74h-1.152v-6.36zm.576-1.224a.789.789 0 0 1-.564-.216.718.718 0 0 1-.216-.528c0-.208.072-.384.216-.528a.766.766 0 0 1 .564-.228c.224 0 .408.072.552.216a.662.662 0 0 1 .228.516c0 .216-.076.4-.228.552a.748.748 0 0 1-.552.216zm5.5 7.656c-.632 0-1.2-.14-1.704-.42-.504-.28-.9-.664-1.188-1.152a3.357 3.357 0 0 1-.42-1.68c0-.624.14-1.18.42-1.668.288-.496.684-.88 1.188-1.152a3.449 3.449 0 0 1 1.704-.42c.632 0 1.196.14 1.692.42.504.272.896.656 1.176 1.152.288.488.432 1.044.432 1.668 0 .624-.144 1.184-.432 1.68-.28.488-.672.872-1.176 1.152-.496.28-1.06.42-1.692.42zm0-1.008a2.15 2.15 0 0 0 1.092-.276 2.03 2.03 0 0 0 .768-.792c.184-.344.276-.736.276-1.176 0-.44-.092-.828-.276-1.164a1.93 1.93 0 0 0-.768-.792 2.15 2.15 0 0 0-1.092-.276c-.408 0-.776.092-1.104.276-.32.184-.576.448-.768.792a2.385 2.385 0 0 0-.276 1.164c0 .44.092.832.276 1.176.192.336.448.6.768.792.328.184.696.276 1.104.276zm8.289-5.484c.808 0 1.448.236 1.92.708.48.464.72 1.148.72 2.052V74h-1.152v-3.528c0-.616-.148-1.08-.444-1.392-.296-.312-.72-.468-1.272-.468-.624 0-1.116.184-1.476.552-.36.36-.54.88-.54 1.56V74h-1.152v-6.36h1.104v.96c.232-.328.544-.58.936-.756.4-.176.852-.264 1.356-.264zm8.163-1.98h1.2V74h-1.2v-8.4zm3.714 0h3.54c.888 0 1.676.176 2.364.528.688.352 1.22.848 1.596 1.488.384.632.576 1.36.576 2.184 0 .824-.192 1.556-.576 2.196a3.852 3.852 0 0 1-1.596 1.476c-.688.352-1.476.528-2.364.528h-3.54v-8.4zm3.468 7.356c.68 0 1.276-.132 1.788-.396.52-.264.92-.632 1.2-1.104.28-.48.42-1.032.42-1.656 0-.624-.14-1.172-.42-1.644-.28-.48-.68-.852-1.2-1.116-.512-.264-1.108-.396-1.788-.396h-2.268v6.312h2.268z"/><rect width="158.5" height="31.5" x="289.25" y="54.25" fill="#F0F0F6" stroke="#62699F" stroke-width=".5" rx="4.75"/><path fill="#62699F" d="M310.016 74.096c-.84 0-1.6-.184-2.28-.552a4.175 4.175 0 0 1-1.584-1.536c-.384-.656-.576-1.392-.576-2.208 0-.816.192-1.548.576-2.196a4.04 4.04 0 0 1 1.596-1.536c.68-.376 1.44-.564 2.28-.564.656 0 1.256.112 1.8.336.544.216 1.008.54 1.392.972l-.78.756c-.632-.664-1.42-.996-2.364-.996-.624 0-1.188.14-1.692.42-.504.28-.9.668-1.188 1.164a3.244 3.244 0 0 0-.42 1.644c0 .608.14 1.16.42 1.656.288.488.684.872 1.188 1.152.504.28 1.068.42 1.692.42.936 0 1.724-.336 2.364-1.008l.78.756c-.384.432-.852.76-1.404.984a4.684 4.684 0 0 1-1.8.336zm7.202-.024c-.632 0-1.2-.14-1.704-.42-.504-.28-.9-.664-1.188-1.152a3.357 3.357 0 0 1-.42-1.68c0-.624.14-1.18.42-1.668.288-.496.684-.88 1.188-1.152a3.449 3.449 0 0 1 1.704-.42c.632 0 1.196.14 1.692.42.504.272.896.656 1.176 1.152.288.488.432 1.044.432 1.668 0 .624-.144 1.184-.432 1.68-.28.488-.672.872-1.176 1.152-.496.28-1.06.42-1.692.42zm0-1.008a2.15 2.15 0 0 0 1.092-.276 2.03 2.03 0 0 0 .768-.792c.184-.344.276-.736.276-1.176 0-.44-.092-.828-.276-1.164a1.93 1.93 0 0 0-.768-.792 2.15 2.15 0 0 0-1.092-.276c-.408 0-.776.092-1.104.276-.32.184-.576.448-.768.792a2.385 2.385 0 0 0-.276 1.164c0 .44.092.832.276 1.176.192.336.448.6.768.792.328.184.696.276 1.104.276zm8.29-5.484c.808 0 1.448.236 1.92.708.48.464.72 1.148.72 2.052V74h-1.152v-3.528c0-.616-.148-1.08-.444-1.392-.296-.312-.72-.468-1.272-.468-.624 0-1.116.184-1.476.552-.36.36-.54.88-.54 1.56V74h-1.152v-6.36h1.104v.96c.232-.328.544-.58.936-.756.4-.176.852-.264 1.356-.264zm10.282.06L333.006 74h-1.176l-2.784-6.36h1.2l2.184 5.1 2.232-5.1h1.128zm6.648 3.216c0 .088-.008.204-.024.348h-5.16c.072.56.316 1.012.732 1.356.424.336.948.504 1.572.504.76 0 1.372-.256 1.836-.768l.636.744a2.777 2.777 0 0 1-1.08.768c-.424.176-.9.264-1.428.264-.672 0-1.268-.136-1.788-.408a3.033 3.033 0 0 1-1.212-1.164 3.357 3.357 0 0 1-.42-1.68c0-.616.136-1.172.408-1.668.28-.496.66-.88 1.14-1.152a3.244 3.244 0 0 1 1.644-.42c.608 0 1.148.14 1.62.42.48.272.852.656 1.116 1.152.272.496.408 1.064.408 1.704zm-3.144-2.304c-.552 0-1.016.168-1.392.504-.368.336-.584.776-.648 1.32h4.08c-.064-.536-.284-.972-.66-1.308-.368-.344-.828-.516-1.38-.516zm5.847.156c.2-.368.496-.648.888-.84.392-.192.868-.288 1.428-.288v1.116a2.249 2.249 0 0 0-.264-.012c-.624 0-1.116.188-1.476.564-.352.368-.528.896-.528 1.584V74h-1.152v-6.36h1.104v1.068zm5.607 5.364c-.52 0-1.02-.068-1.5-.204-.48-.144-.856-.324-1.128-.54l.48-.912c.28.2.62.36 1.02.48s.804.18 1.212.18c1.008 0 1.512-.288 1.512-.864a.56.56 0 0 0-.204-.456 1.235 1.235 0 0 0-.516-.24 9.055 9.055 0 0 0-.864-.18 8.75 8.75 0 0 1-1.26-.276 1.937 1.937 0 0 1-.828-.528c-.232-.248-.348-.596-.348-1.044 0-.576.24-1.036.72-1.38.48-.352 1.124-.528 1.932-.528.424 0 .848.052 1.272.156.424.104.772.244 1.044.42l-.492.912c-.52-.336-1.132-.504-1.836-.504-.488 0-.86.08-1.116.24-.256.16-.384.372-.384.636 0 .208.072.372.216.492.144.12.32.208.528.264.216.056.516.12.9.192.512.088.924.184 1.236.288.32.096.592.264.816.504.224.24.336.576.336 1.008 0 .576-.248 1.036-.744 1.38-.488.336-1.156.504-2.004.504zm4.188-6.432h1.152V74h-1.152v-6.36zm.576-1.224a.789.789 0 0 1-.564-.216.718.718 0 0 1-.216-.528c0-.208.072-.384.216-.528a.766.766 0 0 1 .564-.228c.224 0 .408.072.552.216a.662.662 0 0 1 .228.516c0 .216-.076.4-.228.552a.748.748 0 0 1-.552.216zm5.499 7.656c-.632 0-1.2-.14-1.704-.42-.504-.28-.9-.664-1.188-1.152a3.357 3.357 0 0 1-.42-1.68c0-.624.14-1.18.42-1.668.288-.496.684-.88 1.188-1.152a3.449 3.449 0 0 1 1.704-.42c.632 0 1.196.14 1.692.42.504.272.896.656 1.176 1.152.288.488.432 1.044.432 1.668 0 .624-.144 1.184-.432 1.68-.28.488-.672.872-1.176 1.152-.496.28-1.06.42-1.692.42zm0-1.008a2.15 2.15 0 0 0 1.092-.276 2.03 2.03 0 0 0 .768-.792c.184-.344.276-.736.276-1.176 0-.44-.092-.828-.276-1.164a1.93 1.93 0 0 0-.768-.792 2.15 2.15 0 0 0-1.092-.276c-.408 0-.776.092-1.104.276-.32.184-.576.448-.768.792a2.385 2.385 0 0 0-.276 1.164c0 .44.092.832.276 1.176.192.336.448.6.768.792.328.184.696.276 1.104.276zm8.29-5.484c.808 0 1.448.236 1.92.708.48.464.72 1.148.72 2.052V74h-1.152v-3.528c0-.616-.148-1.08-.444-1.392-.296-.312-.72-.468-1.272-.468-.624 0-1.116.184-1.476.552-.36.36-.54.88-.54 1.56V74h-1.152v-6.36h1.104v.96c.232-.328.544-.58.936-.756.4-.176.852-.264 1.356-.264zm8.162-1.98h1.2V74h-1.2v-8.4zm3.715 0h3.54c.888 0 1.676.176 2.364.528.688.352 1.22.848 1.596 1.488.384.632.576 1.36.576 2.184 0 .824-.192 1.556-.576 2.196a3.852 3.852 0 0 1-1.596 1.476c-.688.352-1.476.528-2.364.528h-3.54v-8.4zm3.468 7.356c.68 0 1.276-.132 1.788-.396.52-.264.92-.632 1.2-1.104.28-.48.42-1.032.42-1.656 0-.624-.14-1.172-.42-1.644-.28-.48-.68-.852-1.2-1.116-.512-.264-1.108-.396-1.788-.396h-2.268v6.312h2.268z"/><g filter="url(#b)"><circle cx="338" cy="250" r="20" fill="#DAE0E5"/><circle cx="338" cy="250" r="19.5" stroke="#495057" stroke-opacity=".6"/></g><path fill="#7D8287" d="M348.052 246.614l-1.135-4.643A1.26 1.26 0 0 0 345.7 241h-15.328c-.576 0-1.077.4-1.218.971l-1.135 4.643a.623.623 0 0 0-.019.156c0 1.766 1.336 3.205 2.979 3.205.955 0 1.807-.486 2.352-1.24.546.754 1.398 1.24 2.352 1.24.955 0 1.807-.486 2.352-1.24.546.754 1.396 1.24 2.352 1.24s1.807-.486 2.352-1.24c.546.754 1.397 1.24 2.352 1.24 1.644 0 2.98-1.439 2.98-3.205a.673.673 0 0 0-.019-.156zm-2.961 4.643a4.045 4.045 0 0 1-2.352-.754c-1.372.976-3.331.976-4.704 0-1.372.976-3.331.976-4.704 0a4.045 4.045 0 0 1-2.352.754 4.005 4.005 0 0 1-1.725-.399v6.809c0 .708.562 1.283 1.255 1.283h5.017v-5.129h5.018v5.129h5.018c.692 0 1.254-.575 1.254-1.283v-6.809a4.001 4.001 0 0 1-1.725.399z"/><g filter="url(#c)"><circle cx="248" cy="145" r="20" fill="#DAE0E5"/><circle cx="248" cy="145" r="19.5" stroke="#495057" stroke-opacity=".6"/></g><path fill="#979B9F" d="M259.203 140.852l-9.567-4.673c-.825-.412-2.227-.412-3.052 0l-9.787 4.673c-.687.33-.797.798-.797 1.045 0 .248.11.687.797 1.045l.798.385v4.398a1.349 1.349 0 0 0-.853 1.237c0 .55.358 1.045.825 1.238l-1.237 3.931h3.464l-1.237-3.931c.495-.193.824-.688.824-1.238a1.32 1.32 0 0 0-.852-1.237v-3.931l1.457.715v5.718c0 .082.028.165.083.247.137.165 2.694 3.657 7.917 3.657 5.224 0 7.78-3.519 7.89-3.657a.443.443 0 0 0 .083-.247v-5.691l3.244-1.594c.687-.33.797-.797.797-1.045-.027-.247-.11-.715-.797-1.045zm-4.124 9.238c-.44.549-2.804 3.189-7.093 3.189-4.288 0-6.653-2.64-7.093-3.189v-5.196l5.691 2.721c.413.193.962.303 1.512.303.578 0 1.127-.11 1.54-.33l5.443-2.667v5.169zm3.739-7.918l-3.299 1.622c-.138 0-.248.055-.303.165l-5.965 2.887c-.577.302-1.705.302-2.309 0l-7.341-3.519 8.44-.99a.427.427 0 0 0 .385-.467.426.426 0 0 0-.467-.385l-9.787 1.154-.99-.467c-.247-.11-.302-.247-.302-.247 0-.028.055-.138.302-.248l9.787-4.701c.302-.137.715-.22 1.127-.22.44 0 .88.083 1.155.22l9.567 4.674c.247.11.302.22.302.275 0 0-.082.137-.302.247z"/><g filter="url(#d)"><circle cx="262" cy="194" r="20" fill="#DAE0E5"/><circle cx="262" cy="194" r="19.5" stroke="#495057" stroke-opacity=".6"/></g><path fill="#979B9F" d="M273.879 190.442a1.989 1.989 0 0 0-1.037-1.131 7.21 7.21 0 0 0-5.549-.242l-1.903.692-5.432-2.688a.709.709 0 0 0-.553-.031l-3.243 1.181a.703.703 0 0 0-.17 1.231l3.442 2.475-4.783 1.741-1.775-1.439a.705.705 0 0 0-.684-.115l-1.729.63a.7.7 0 0 0-.421.901l1.102 3.027a3.901 3.901 0 0 0 2.029 2.215c.95.443 2.016.489 3.001.131l4.214-1.534-.908 3.568a.702.702 0 0 0 .922.835l3.243-1.181a.704.704 0 0 0 .403-.378l2.178-4.969 6.455-2.349a2.007 2.007 0 0 0 1.198-2.57zm-15.986-1.353l1.711-.622 3.959 1.959-2.529.921-3.141-2.258zm14.307 2.601l-6.738 2.453a.7.7 0 0 0-.403.378l-2.178 4.968-1.71.623.908-3.568a.702.702 0 0 0-.921-.835l-5.465 1.989c-.632.23-1.316.2-1.925-.084a2.5 2.5 0 0 1-1.302-1.421l-.862-2.366.695-.253 1.775 1.439a.705.705 0 0 0 .684.115l13.016-4.738a5.817 5.817 0 0 1 4.474.195.599.599 0 0 1-.048 1.105z"/><g filter="url(#e)"><circle cx="415" cy="194" r="20" fill="#DAE0E5"/><circle cx="415" cy="194" r="19.5" stroke="#495057" stroke-opacity=".6"/></g><path fill="#979B9F" d="M426.879 190.442a1.989 1.989 0 0 0-1.037-1.131 7.21 7.21 0 0 0-5.549-.242l-1.903.692-5.432-2.688a.709.709 0 0 0-.553-.031l-3.243 1.181a.703.703 0 0 0-.17 1.231l3.442 2.475-4.783 1.741-1.775-1.439a.705.705 0 0 0-.684-.115l-1.729.63a.7.7 0 0 0-.421.901l1.102 3.027a3.901 3.901 0 0 0 2.029 2.215c.95.443 2.016.489 3.001.131l4.214-1.534-.908 3.568a.702.702 0 0 0 .922.835l3.243-1.181a.704.704 0 0 0 .403-.378l2.178-4.969 6.455-2.349a2.007 2.007 0 0 0 1.198-2.57zm-15.986-1.353l1.711-.622 3.959 1.959-2.529.921-3.141-2.258zm14.307 2.601l-6.738 2.453a.7.7 0 0 0-.403.378l-2.178 4.968-1.71.623.908-3.568a.702.702 0 0 0-.921-.835l-5.465 1.989c-.632.23-1.316.2-1.925-.084a2.5 2.5 0 0 1-1.302-1.421l-.862-2.366.695-.253 1.775 1.439a.705.705 0 0 0 .684.115l13.016-4.738a5.817 5.817 0 0 1 4.474.195.599.599 0 0 1-.048 1.105z"/><g filter="url(#f)"><circle cx="384" cy="233" r="20" fill="#DAE0E5"/><circle cx="384" cy="233" r="19.5" stroke="#495057" stroke-opacity=".6"/></g><path fill="#7D8287" d="M393.527 243h-19c-1.4 0-2.5-1.1-2.5-2.5v-12c0-1.4 1.1-2.5 2.5-2.5h19c1.4 0 2.5 1.1 2.5 2.5v12c0 1.4-1.1 2.5-2.5 2.5zm-19-16c-.8 0-1.5.7-1.5 1.5v12c0 .8.7 1.5 1.5 1.5h19c.8 0 1.5-.7 1.5-1.5v-12c0-.8-.7-1.5-1.5-1.5h-19z"/><path fill="#7D8287" d="M387.527 227c-.3 0-.5-.2-.5-.5v-2c0-.3-.2-.5-.5-.5h-5c-.3 0-.5.2-.5.5v2c0 .3-.2.5-.5.5s-.5-.2-.5-.5v-2c0-.8.7-1.5 1.5-1.5h5c.8 0 1.5.7 1.5 1.5v2c0 .3-.2.5-.5.5zm-3.5 8h-.2l-11.5-4c-.2-.1-.4-.4-.3-.7.1-.2.4-.4.7-.3l11.3 4 11.3-4c.3-.1.5 0 .6.3.1.3 0 .5-.3.6l-11.5 4c0 .1 0 .1-.1.1z"/><g filter="url(#g)"><circle cx="428" cy="145" r="20" fill="#DAE0E5"/><circle cx="428" cy="145" r="19.5" stroke="#495057" stroke-opacity=".6"/></g><path fill="#7D8287" d="M439.78 144.342l-9.327-9.328a3.474 3.474 0 0 0-4.906 0l-9.327 9.328a.75.75 0 0 0 1.06 1.061l.595-.595v9.534c0 1.191.965 2.157 2.156 2.157h3.75c.259 0 .469-.21.469-.469v-6.938a2.343 2.343 0 0 1 2.344-2.343h2.812a2.343 2.343 0 0 1 2.344 2.343v6.938c0 .259.21.469.469.469h3.75a2.157 2.157 0 0 0 2.156-2.157v-9.534l.595.595a.748.748 0 0 0 1.06 0 .75.75 0 0 0 0-1.061z"/><g filter="url(#h)"><circle cx="292" cy="233" r="20" fill="#DAE0E5"/><circle cx="292" cy="233" r="19.5" stroke="#495057" stroke-opacity=".6"/></g><path fill="#7D8287" d="M298.706 245H286v-17.647a6.36 6.36 0 0 1 6.353-6.353 6.36 6.36 0 0 1 6.353 6.353v1.412h-4.941v-1.412a1.413 1.413 0 0 0-2.824 0v1.937c0 .863.754 1.592 1.647 1.592h6.118V245zm-11.294-1.412h9.882v-11.294h-4.706a3.065 3.065 0 0 1-2.143-.872 2.95 2.95 0 0 1-.916-2.132v-1.937a2.827 2.827 0 0 1 2.824-2.824 2.827 2.827 0 0 1 2.823 2.824h2.118a4.946 4.946 0 0 0-4.941-4.941 4.946 4.946 0 0 0-4.941 4.941v16.235z"/><path fill="#7D8287" d="M291.652 240.236l-2.367-2.142.948-1.047 1.398 1.266 2.819-2.667.971 1.026-3.769 3.564z"/><g clip-path="url(#i)"><path fill="#FBBC04" d="M344.542 128.572c-5.834-3.368-13.282-1.373-16.651 4.462l-20.908 36.213c-5.395 9.345 3.251 20.672 13.711 17.868a12.105 12.105 0 0 0 7.401-5.679l20.908-36.213c3.361-5.821 1.359-13.29-4.461-16.651z"/><path fill="#A0ED83" d="M329.313 172.187c-1.743-6.507-8.42-10.363-14.929-8.619-10.463 2.803-12.28 16.936-2.939 22.329 9.319 5.381 20.687-3.19 17.868-13.71z"/><path fill="#4285F4" d="M370.171 169.247l-20.908-36.213a12.112 12.112 0 0 0-7.402-5.68c-10.463-2.804-19.103 8.527-13.71 17.869l20.908 36.213c3.367 5.833 10.814 7.831 16.65 4.462 5.821-3.361 7.822-10.83 4.462-16.651z"/><path fill="#34A853" d="M329.313 172.187c-1.743-6.507-8.42-10.363-14.929-8.619-10.463 2.803-12.28 16.936-2.939 22.329 9.319 5.381 20.687-3.19 17.868-13.71z"/></g><path fill="#8187B2" d="M310.88 201.473l-1.51-2.15c-.186.013-.333.02-.44.02h-1.73v2.13h-1v-7h2.73c.907 0 1.62.216 2.14.65.52.433.78 1.03.78 1.79 0 .54-.133 1-.4 1.38-.266.38-.646.656-1.14.83l1.66 2.35h-1.09zm-1.98-2.98c.634 0 1.117-.137 1.45-.41.334-.274.5-.664.5-1.17 0-.507-.166-.894-.5-1.16-.333-.274-.816-.41-1.45-.41h-1.7v3.15h1.7zm9.216.36c0 .073-.007.17-.02.29h-4.3c.06.466.263.843.61 1.13.353.28.79.42 1.31.42.633 0 1.143-.214 1.53-.64l.53.62c-.24.28-.54.493-.9.64-.353.146-.75.22-1.19.22-.56 0-1.057-.114-1.49-.34a2.537 2.537 0 0 1-1.01-.97 2.803 2.803 0 0 1-.35-1.4c0-.514.113-.977.34-1.39a2.47 2.47 0 0 1 .95-.96c.407-.234.863-.35 1.37-.35.507 0 .957.116 1.35.35.4.226.71.546.93.96.227.413.34.886.34 1.42zm-2.62-1.92c-.46 0-.847.14-1.16.42-.307.28-.487.646-.54 1.1h3.4a1.674 1.674 0 0 0-.55-1.09c-.307-.287-.69-.43-1.15-.43zm10.583-.81c.667 0 1.193.193 1.58.58.393.386.59.96.59 1.72v3.05h-.96v-2.94c0-.514-.12-.9-.36-1.16-.233-.26-.57-.39-1.01-.39-.487 0-.873.153-1.16.46-.287.3-.43.733-.43 1.3v2.73h-.96v-2.94c0-.514-.12-.9-.36-1.16-.233-.26-.57-.39-1.01-.39-.487 0-.873.153-1.16.46-.287.3-.43.733-.43 1.3v2.73h-.96v-5.3h.92v.79c.193-.274.447-.48.76-.62a2.49 2.49 0 0 1 1.07-.22c.413 0 .78.083 1.1.25.32.166.567.41.74.73.2-.307.477-.547.83-.72.36-.174.763-.26 1.21-.26zm5.866 0c.734 0 1.294.18 1.68.54.394.36.59.896.59 1.61v3.2h-.91v-.7c-.16.246-.39.436-.69.57-.293.126-.643.19-1.05.19-.593 0-1.07-.144-1.43-.43a1.387 1.387 0 0 1-.53-1.13c0-.467.17-.84.51-1.12.34-.287.88-.43 1.62-.43h1.52v-.19c0-.414-.12-.73-.36-.95-.24-.22-.593-.33-1.06-.33-.313 0-.62.053-.92.16-.3.1-.553.236-.76.41l-.4-.72c.274-.22.6-.387.98-.5.38-.12.784-.18 1.21-.18zm-.22 4.67c.367 0 .684-.08.95-.24.267-.167.46-.4.58-.7v-.74h-1.48c-.813 0-1.22.273-1.22.82 0 .266.104.476.31.63.207.153.494.23.86.23zm5.187-3.73c.167-.307.413-.54.74-.7.327-.16.723-.24 1.19-.24v.93a1.803 1.803 0 0 0-.22-.01c-.52 0-.93.156-1.23.47-.293.306-.44.746-.44 1.32v2.64h-.96v-5.3h.92v.89zm5.173 1.94l-1.1 1.02v1.45h-.96v-7.42h.96v4.76l2.89-2.64h1.16l-2.23 2.19 2.45 3.11h-1.18l-1.99-2.47zm8.668-.15c0 .073-.007.17-.02.29h-4.3c.06.466.263.843.61 1.13.353.28.79.42 1.31.42.633 0 1.143-.214 1.53-.64l.53.62c-.24.28-.54.493-.9.64-.354.146-.75.22-1.19.22-.56 0-1.057-.114-1.49-.34a2.53 2.53 0 0 1-1.01-.97 2.793 2.793 0 0 1-.35-1.4c0-.514.113-.977.34-1.39a2.47 2.47 0 0 1 .95-.96c.406-.234.863-.35 1.37-.35.506 0 .956.116 1.35.35.4.226.71.546.93.96.226.413.34.886.34 1.42zm-2.62-1.92c-.46 0-.847.14-1.16.42-.307.28-.487.646-.54 1.1h3.4a1.678 1.678 0 0 0-.55-1.09c-.307-.287-.69-.43-1.15-.43zm6.933 4.23c-.14.12-.314.213-.52.28-.207.06-.42.09-.64.09-.534 0-.947-.144-1.24-.43-.294-.287-.44-.697-.44-1.23v-2.91h-.9v-.79h.9v-1.16h.96v1.16h1.52v.79h-1.52v2.87c0 .286.07.506.21.66.146.153.353.23.62.23.293 0 .543-.084.75-.25l.3.69zm1.16-4.99h.96v5.3h-.96v-5.3zm.48-1.02a.659.659 0 0 1-.47-.18.599.599 0 0 1-.18-.44c0-.174.06-.32.18-.44a.639.639 0 0 1 .47-.19c.187 0 .34.06.46.18a.55.55 0 0 1 .19.43c0 .18-.063.333-.19.46a.622.622 0 0 1-.46.18zm5.143.97c.674 0 1.207.196 1.6.59.4.386.6.956.6 1.71v3.05h-.96v-2.94c0-.514-.123-.9-.37-1.16-.246-.26-.6-.39-1.06-.39-.52 0-.93.153-1.23.46-.3.3-.45.733-.45 1.3v2.73h-.96v-5.3h.92v.8a1.87 1.87 0 0 1 .78-.63c.334-.147.71-.22 1.13-.22zm9.076.05v4.58c0 .926-.23 1.61-.69 2.05-.46.446-1.146.67-2.06.67-.5 0-.976-.07-1.43-.21-.453-.134-.82-.327-1.1-.58l.46-.74c.247.213.55.38.91.5.367.126.744.19 1.13.19.62 0 1.077-.147 1.37-.44.3-.294.45-.74.45-1.34v-.42c-.226.273-.506.48-.84.62-.326.133-.683.2-1.07.2-.506 0-.966-.107-1.38-.32a2.487 2.487 0 0 1-.96-.91 2.58 2.58 0 0 1-.35-1.34c0-.5.117-.944.35-1.33.234-.394.554-.697.96-.91a2.96 2.96 0 0 1 1.38-.32c.4 0 .77.073 1.11.22.347.146.63.363.85.65v-.82h.91zm-2.76 4.24c.347 0 .657-.074.93-.22.28-.147.497-.35.65-.61.16-.267.24-.567.24-.9 0-.514-.17-.927-.51-1.24-.34-.32-.776-.48-1.31-.48-.54 0-.98.16-1.32.48-.34.313-.51.726-.51 1.24 0 .333.077.633.23.9.16.26.377.463.65.61.28.146.597.22.95.22z"/><path fill="#E8E9F1" d="M0 10C0 4.477 4.477 0 10 0h468c5.523 0 10 4.477 10 10v28H0V10z"/><path stroke="#EB5757" d="M51.619 19.57c0 3.045-2.427 5.5-5.403 5.5-2.976 0-5.403-2.455-5.403-5.5 0-3.046 2.427-5.5 5.403-5.5 2.976 0 5.403 2.454 5.403 5.5z"/><path stroke="#F2994A" d="M67.533 19.57c0 3.045-2.427 5.5-5.403 5.5-2.977 0-5.403-2.455-5.403-5.5 0-3.046 2.427-5.5 5.403-5.5 2.976 0 5.403 2.454 5.403 5.5z"/><path stroke="#219653" d="M83.447 19.57c0 3.045-2.427 5.5-5.403 5.5-2.977 0-5.403-2.455-5.403-5.5 0-3.046 2.426-5.5 5.403-5.5 2.976 0 5.403 2.454 5.403 5.5z"/><rect width="167.69" height="18" x="159.72" y="10" fill="#fff" rx="9"/><path fill="#8492BB" d="M204.43 14.6l-2.808 8.4h-1.26l-2.292-6.708L195.778 23h-1.284l-2.808-8.4h1.236l2.268 6.828 2.364-6.828h1.104l2.316 6.864 2.316-6.864h1.14zm3.544 8.472c-.632 0-1.2-.14-1.704-.42-.504-.28-.9-.664-1.188-1.152a3.357 3.357 0 0 1-.42-1.68c0-.624.14-1.18.42-1.668.288-.496.684-.88 1.188-1.152a3.449 3.449 0 0 1 1.704-.42c.632 0 1.196.14 1.692.42.504.272.896.656 1.176 1.152.288.488.432 1.044.432 1.668 0 .624-.144 1.184-.432 1.68-.28.488-.672.872-1.176 1.152-.496.28-1.06.42-1.692.42zm0-1.008a2.15 2.15 0 0 0 1.092-.276 2.03 2.03 0 0 0 .768-.792c.184-.344.276-.736.276-1.176 0-.44-.092-.828-.276-1.164a1.93 1.93 0 0 0-.768-.792 2.15 2.15 0 0 0-1.092-.276c-.408 0-.776.092-1.104.276-.32.184-.576.448-.768.792a2.385 2.385 0 0 0-.276 1.164c0 .44.092.832.276 1.176.192.336.448.6.768.792.328.184.696.276 1.104.276zm7.617 1.008c-.632 0-1.2-.14-1.704-.42-.504-.28-.9-.664-1.188-1.152a3.357 3.357 0 0 1-.42-1.68c0-.624.14-1.18.42-1.668.288-.496.684-.88 1.188-1.152a3.449 3.449 0 0 1 1.704-.42c.632 0 1.196.14 1.692.42.504.272.896.656 1.176 1.152.288.488.432 1.044.432 1.668 0 .624-.144 1.184-.432 1.68-.28.488-.672.872-1.176 1.152-.496.28-1.06.42-1.692.42zm0-1.008a2.15 2.15 0 0 0 1.092-.276 2.03 2.03 0 0 0 .768-.792c.184-.344.276-.736.276-1.176 0-.44-.092-.828-.276-1.164a1.93 1.93 0 0 0-.768-.792 2.15 2.15 0 0 0-1.092-.276c-.408 0-.776.092-1.104.276-.32.184-.576.448-.768.792a2.385 2.385 0 0 0-.276 1.164c0 .44.092.832.276 1.176.192.336.448.6.768.792.328.184.696.276 1.104.276zm10.444-7.092c-.688 0-1.032.372-1.032 1.116v.552h1.848v.948h-1.824V23h-1.152v-5.412h-1.08v-.948h1.08v-.564c0-.632.184-1.132.552-1.5.368-.368.884-.552 1.548-.552.256 0 .496.032.72.096.224.064.416.156.576.276l-.348.876c-.264-.2-.56-.3-.888-.3zm7.556 4.884c0 .088-.008.204-.024.348h-5.16c.072.56.316 1.012.732 1.356.424.336.948.504 1.572.504.76 0 1.372-.256 1.836-.768l.636.744a2.777 2.777 0 0 1-1.08.768c-.424.176-.9.264-1.428.264-.672 0-1.268-.136-1.788-.408a3.033 3.033 0 0 1-1.212-1.164 3.357 3.357 0 0 1-.42-1.68c0-.616.136-1.172.408-1.668.28-.496.66-.88 1.14-1.152a3.244 3.244 0 0 1 1.644-.42c.608 0 1.148.14 1.62.42.48.272.852.656 1.116 1.152.272.496.408 1.064.408 1.704zm-3.144-2.304c-.552 0-1.016.168-1.392.504-.368.336-.584.776-.648 1.32h4.08c-.064-.536-.284-.972-.66-1.308-.368-.344-.828-.516-1.38-.516zm10.492 2.304c0 .088-.008.204-.024.348h-5.16c.072.56.316 1.012.732 1.356.424.336.948.504 1.572.504.76 0 1.372-.256 1.836-.768l.636.744a2.777 2.777 0 0 1-1.08.768c-.424.176-.9.264-1.428.264-.672 0-1.268-.136-1.788-.408a3.033 3.033 0 0 1-1.212-1.164 3.357 3.357 0 0 1-.42-1.68c0-.616.136-1.172.408-1.668.28-.496.66-.88 1.14-1.152a3.244 3.244 0 0 1 1.644-.42c.608 0 1.148.14 1.62.42.48.272.852.656 1.116 1.152.272.496.408 1.064.408 1.704zm-3.144-2.304c-.552 0-1.016.168-1.392.504-.368.336-.584.776-.648 1.32h4.08c-.064-.536-.284-.972-.66-1.308-.368-.344-.828-.516-1.38-.516zm10.744-3.456V23h-1.104v-1.008c-.256.352-.58.62-.972.804a3.012 3.012 0 0 1-1.296.276 3.343 3.343 0 0 1-1.656-.408 2.976 2.976 0 0 1-1.152-1.14c-.272-.496-.408-1.064-.408-1.704 0-.64.136-1.204.408-1.692.28-.488.664-.868 1.152-1.14a3.343 3.343 0 0 1 1.656-.408c.456 0 .876.088 1.26.264.384.168.704.42.96.756v-3.504h1.152zm-3.276 7.968c.4 0 .764-.092 1.092-.276a2.03 2.03 0 0 0 .768-.792c.184-.344.276-.736.276-1.176 0-.44-.092-.828-.276-1.164a1.93 1.93 0 0 0-.768-.792 2.193 2.193 0 0 0-1.092-.276c-.408 0-.776.092-1.104.276-.32.184-.576.448-.768.792a2.385 2.385 0 0 0-.276 1.164c0 .44.092.832.276 1.176.192.336.448.6.768.792.328.184.696.276 1.104.276zm10.502 1.008c-.52 0-1.02-.068-1.5-.204-.48-.144-.856-.324-1.128-.54l.48-.912c.28.2.62.36 1.02.48s.804.18 1.212.18c1.008 0 1.512-.288 1.512-.864a.56.56 0 0 0-.204-.456 1.235 1.235 0 0 0-.516-.24 9.055 9.055 0 0 0-.864-.18 8.75 8.75 0 0 1-1.26-.276 1.937 1.937 0 0 1-.828-.528c-.232-.248-.348-.596-.348-1.044 0-.576.24-1.036.72-1.38.48-.352 1.124-.528 1.932-.528.424 0 .848.052 1.272.156.424.104.772.244 1.044.42l-.492.912c-.52-.336-1.132-.504-1.836-.504-.488 0-.86.08-1.116.24-.256.16-.384.372-.384.636 0 .208.072.372.216.492.144.12.32.208.528.264.216.056.516.12.9.192.512.088.924.184 1.236.288.32.096.592.264.816.504.224.24.336.576.336 1.008 0 .576-.248 1.036-.744 1.38-.488.336-1.156.504-2.004.504zm9.936-3.216c0 .088-.008.204-.024.348h-5.16c.072.56.316 1.012.732 1.356.424.336.948.504 1.572.504.76 0 1.372-.256 1.836-.768l.636.744a2.777 2.777 0 0 1-1.08.768c-.424.176-.9.264-1.428.264-.672 0-1.268-.136-1.788-.408a3.033 3.033 0 0 1-1.212-1.164 3.357 3.357 0 0 1-.42-1.68c0-.616.136-1.172.408-1.668.28-.496.66-.88 1.14-1.152a3.244 3.244 0 0 1 1.644-.42c.608 0 1.148.14 1.62.42.48.272.852.656 1.116 1.152.272.496.408 1.064.408 1.704zm-3.144-2.304c-.552 0-1.016.168-1.392.504-.368.336-.584.776-.648 1.32h4.08c-.064-.536-.284-.972-.66-1.308-.368-.344-.828-.516-1.38-.516zm8.319 5.076a1.79 1.79 0 0 1-.624.336 2.74 2.74 0 0 1-.768.108c-.64 0-1.136-.172-1.488-.516-.352-.344-.528-.836-.528-1.476v-3.492h-1.08v-.948h1.08v-1.392h1.152v1.392h1.824v.948h-1.824v3.444c0 .344.084.608.252.792.176.184.424.276.744.276.352 0 .652-.1.9-.3l.36.828zm4.817 0a1.79 1.79 0 0 1-.624.336 2.74 2.74 0 0 1-.768.108c-.64 0-1.136-.172-1.488-.516-.352-.344-.528-.836-.528-1.476v-3.492h-1.08v-.948h1.08v-1.392h1.152v1.392h1.824v.948h-1.824v3.444c0 .344.084.608.252.792.176.184.424.276.744.276.352 0 .652-.1.9-.3l.36.828zm1.393-5.988h1.152V23h-1.152v-6.36zm.576-1.224a.789.789 0 0 1-.564-.216.718.718 0 0 1-.216-.528c0-.208.072-.384.216-.528a.766.766 0 0 1 .564-.228c.224 0 .408.072.552.216a.662.662 0 0 1 .228.516c0 .216-.076.4-.228.552a.748.748 0 0 1-.552.216zm6.171 1.164c.808 0 1.448.236 1.92.708.48.464.72 1.148.72 2.052V23h-1.152v-3.528c0-.616-.148-1.08-.444-1.392-.296-.312-.72-.468-1.272-.468-.624 0-1.116.184-1.476.552-.36.36-.54.88-.54 1.56V23h-1.152v-6.36h1.104v.96c.232-.328.544-.58.936-.756.4-.176.852-.264 1.356-.264zm10.891.06v5.496c0 1.112-.276 1.932-.828 2.46-.552.536-1.376.804-2.472.804-.6 0-1.172-.084-1.716-.252-.544-.16-.984-.392-1.32-.696l.552-.888c.296.256.66.456 1.092.6.44.152.892.228 1.356.228.744 0 1.292-.176 1.644-.528.36-.352.54-.888.54-1.608v-.504a2.594 2.594 0 0 1-1.008.744c-.392.16-.82.24-1.284.24-.608 0-1.16-.128-1.656-.384a2.968 2.968 0 0 1-1.152-1.092 3.091 3.091 0 0 1-.42-1.608c0-.6.14-1.132.42-1.596.28-.472.664-.836 1.152-1.092a3.557 3.557 0 0 1 1.656-.384c.48 0 .924.088 1.332.264.416.176.756.436 1.02.78v-.984h1.092zm-3.312 5.088c.416 0 .788-.088 1.116-.264.336-.176.596-.42.78-.732.192-.32.288-.68.288-1.08 0-.616-.204-1.112-.612-1.488-.408-.384-.932-.576-1.572-.576-.648 0-1.176.192-1.584.576-.408.376-.612.872-.612 1.488 0 .4.092.76.276 1.08.192.312.452.556.78.732a2.42 2.42 0 0 0 1.14.264z"/></g><defs><filter id="b" width="100" height="100" x="288" y="215" color-interpolation-filters="sRGB" filterUnits="userSpaceOnUse"><feFlood flood-opacity="0" result="BackgroundImageFix"/><feColorMatrix in="SourceAlpha" values="0 0 0 0 0 0 0 0 0 0 0 0 0 0 0 0 0 0 127 0"/><feOffset dy="15"/><feGaussianBlur stdDeviation="15"/><feColorMatrix values="0 0 0 0 0.788235 0 0 0 0 0.788235 0 0 0 0 0.788235 0 0 0 0.3 0"/><feBlend in2="BackgroundImageFix" result="effect1_dropShadow"/><feBlend in="SourceGraphic" in2="effect1_dropShadow" result="shape"/></filter><filter id="c" width="100" height="100" x="198" y="110" color-interpolation-filters="sRGB" filterUnits="userSpaceOnUse"><feFlood flood-opacity="0" result="BackgroundImageFix"/><feColorMatrix in="SourceAlpha" values="0 0 0 0 0 0 0 0 0 0 0 0 0 0 0 0 0 0 127 0"/><feOffset dy="15"/><feGaussianBlur stdDeviation="15"/><feColorMatrix values="0 0 0 0 0.788235 0 0 0 0 0.788235 0 0 0 0 0.788235 0 0 0 0.3 0"/><feBlend in2="BackgroundImageFix" result="effect1_dropShadow"/><feBlend in="SourceGraphic" in2="effect1_dropShadow" result="shape"/></filter><filter id="d" width="100" height="100" x="212" y="159" color-interpolation-filters="sRGB" filterUnits="userSpaceOnUse"><feFlood flood-opacity="0" result="BackgroundImageFix"/><feColorMatrix in="SourceAlpha" values="0 0 0 0 0 0 0 0 0 0 0 0 0 0 0 0 0 0 127 0"/><feOffset dy="15"/><feGaussianBlur stdDeviation="15"/><feColorMatrix values="0 0 0 0 0.788235 0 0 0 0 0.788235 0 0 0 0 0.788235 0 0 0 0.3 0"/><feBlend in2="BackgroundImageFix" result="effect1_dropShadow"/><feBlend in="SourceGraphic" in2="effect1_dropShadow" result="shape"/></filter><filter id="e" width="100" height="100" x="365" y="159" color-interpolation-filters="sRGB" filterUnits="userSpaceOnUse"><feFlood flood-opacity="0" result="BackgroundImageFix"/><feColorMatrix in="SourceAlpha" values="0 0 0 0 0 0 0 0 0 0 0 0 0 0 0 0 0 0 127 0"/><feOffset dy="15"/><feGaussianBlur stdDeviation="15"/><feColorMatrix values="0 0 0 0 0.788235 0 0 0 0 0.788235 0 0 0 0 0.788235 0 0 0 0.3 0"/><feBlend in2="BackgroundImageFix" result="effect1_dropShadow"/><feBlend in="SourceGraphic" in2="effect1_dropShadow" result="shape"/></filter><filter id="f" width="100" height="100" x="334" y="198" color-interpolation-filters="sRGB" filterUnits="userSpaceOnUse"><feFlood flood-opacity="0" result="BackgroundImageFix"/><feColorMatrix in="SourceAlpha" values="0 0 0 0 0 0 0 0 0 0 0 0 0 0 0 0 0 0 127 0"/><feOffset dy="15"/><feGaussianBlur stdDeviation="15"/><feColorMatrix values="0 0 0 0 0.788235 0 0 0 0 0.788235 0 0 0 0 0.788235 0 0 0 0.3 0"/><feBlend in2="BackgroundImageFix" result="effect1_dropShadow"/><feBlend in="SourceGraphic" in2="effect1_dropShadow" result="shape"/></filter><filter id="g" width="100" height="100" x="378" y="110" color-interpolation-filters="sRGB" filterUnits="userSpaceOnUse"><feFlood flood-opacity="0" result="BackgroundImageFix"/><feColorMatrix in="SourceAlpha" values="0 0 0 0 0 0 0 0 0 0 0 0 0 0 0 0 0 0 127 0"/><feOffset dy="15"/><feGaussianBlur stdDeviation="15"/><feColorMatrix values="0 0 0 0 0.788235 0 0 0 0 0.788235 0 0 0 0 0.788235 0 0 0 0.3 0"/><feBlend in2="BackgroundImageFix" result="effect1_dropShadow"/><feBlend in="SourceGraphic" in2="effect1_dropShadow" result="shape"/></filter><filter id="h" width="100" height="100" x="242" y="198" color-interpolation-filters="sRGB" filterUnits="userSpaceOnUse"><feFlood flood-opacity="0" result="BackgroundImageFix"/><feColorMatrix in="SourceAlpha" values="0 0 0 0 0 0 0 0 0 0 0 0 0 0 0 0 0 0 127 0"/><feOffset dy="15"/><feGaussianBlur stdDeviation="15"/><feColorMatrix values="0 0 0 0 0.788235 0 0 0 0 0.788235 0 0 0 0 0.788235 0 0 0 0.3 0"/><feBlend in2="BackgroundImageFix" result="effect1_dropShadow"/><feBlend in="SourceGraphic" in2="effect1_dropShadow" result="shape"/></filter><clipPath id="a"><path fill="#fff" d="M0 0h16v16H0z" transform="translate(92 152)"/></clipPath><clipPath id="i"><path fill="#fff" d="M0 0h66.47v66.47H0z" transform="translate(305.328 124)"/></clipPath></defs></svg>