<svg xmlns="http://www.w3.org/2000/svg" width="486" height="224" fill="none" viewBox="0 0 486 224"><g opacity=".8"><path fill="#F5F6F9" d="M0 10C0 4.477 4.477 0 10 0h466c5.523 0 10 4.477 10 10v204c0 5.523-4.477 10-10 10H10c-5.523 0-10-4.477-10-10V10z"/><rect width="119" height="32" x="40" y="141" fill="#62699F" rx="5"/><path fill="#fff" d="M70.612 158.9h-4.464l-.924 2.1h-1.236l3.804-8.4h1.188l3.816 8.4h-1.26l-.924-2.1zm-.42-.96l-1.812-4.116-1.812 4.116h3.624zm9.63-5.844V161H78.72v-1.008c-.256.352-.58.62-.972.804a3.012 3.012 0 0 1-1.296.276 3.343 3.343 0 0 1-1.656-.408 2.976 2.976 0 0 1-1.153-1.14c-.271-.496-.407-1.064-.407-1.704 0-.64.136-1.204.407-1.692.28-.488.665-.868 1.153-1.14a3.343 3.343 0 0 1 1.656-.408c.456 0 .876.088 1.26.264.383.168.704.42.96.756v-3.504h1.151zm-3.276 7.968c.4 0 .764-.092 1.092-.276a2.03 2.03 0 0 0 .768-.792c.184-.344.276-.736.276-1.176 0-.44-.091-.828-.276-1.164a1.93 1.93 0 0 0-.768-.792 2.193 2.193 0 0 0-1.092-.276c-.408 0-.776.092-1.104.276-.32.184-.575.448-.767.792a2.385 2.385 0 0 0-.276 1.164c0 .44.091.832.275 1.176.192.336.448.6.768.792.329.184.697.276 1.105.276zm11.456-7.968V161h-1.104v-1.008c-.256.352-.58.62-.972.804a3.012 3.012 0 0 1-1.296.276 3.343 3.343 0 0 1-1.656-.408 2.976 2.976 0 0 1-1.152-1.14c-.272-.496-.408-1.064-.408-1.704 0-.64.136-1.204.408-1.692.28-.488.664-.868 1.152-1.14a3.343 3.343 0 0 1 1.656-.408c.456 0 .876.088 1.26.264.384.168.704.42.96.756v-3.504h1.152zm-3.276 7.968c.4 0 .764-.092 1.092-.276a2.03 2.03 0 0 0 .768-.792c.184-.344.276-.736.276-1.176 0-.44-.092-.828-.276-1.164a1.93 1.93 0 0 0-.768-.792 2.193 2.193 0 0 0-1.092-.276c-.408 0-.776.092-1.104.276-.32.184-.576.448-.768.792a2.385 2.385 0 0 0-.276 1.164c0 .44.092.832.276 1.176.192.336.448.6.768.792.328.184.696.276 1.104.276zm12.639 1.032c-.849 0-1.612-.184-2.292-.552a4.212 4.212 0 0 1-1.608-1.548 4.266 4.266 0 0 1-.577-2.196c0-.808.192-1.54.576-2.196a4.124 4.124 0 0 1 1.609-1.536c.68-.376 1.444-.564 2.292-.564.84 0 1.6.188 2.28.564a4.04 4.04 0 0 1 1.596 1.536c.384.648.576 1.38.576 2.196 0 .816-.192 1.552-.576 2.208a4.149 4.149 0 0 1-1.597 1.536c-.68.368-1.44.552-2.28.552zm0-1.068c.616 0 1.168-.14 1.656-.42.495-.28.883-.664 1.164-1.152a3.238 3.238 0 0 0 .432-1.656c0-.608-.144-1.156-.432-1.644a3.019 3.019 0 0 0-1.165-1.164 3.267 3.267 0 0 0-1.655-.42 3.4 3.4 0 0 0-1.68.42 3.1 3.1 0 0 0-1.177 1.164 3.244 3.244 0 0 0-.42 1.644c0 .608.14 1.16.42 1.656.288.488.68.872 1.177 1.152a3.4 3.4 0 0 0 1.68.42zm9.49-5.448c.616 0 1.168.136 1.656.408.488.272.868.652 1.14 1.14.28.488.42 1.052.42 1.692 0 .64-.14 1.208-.42 1.704a2.894 2.894 0 0 1-1.14 1.14 3.343 3.343 0 0 1-1.656.408c-.456 0-.876-.088-1.26-.264a2.621 2.621 0 0 1-.96-.768v3.288h-1.152v-8.688h1.104v1.008c.256-.352.58-.616.972-.792a3.012 3.012 0 0 1 1.296-.276zm-.096 5.484a2.15 2.15 0 0 0 1.092-.276 2.03 2.03 0 0 0 .768-.792c.192-.344.288-.736.288-1.176 0-.44-.096-.828-.288-1.164a1.93 1.93 0 0 0-.768-.792 2.15 2.15 0 0 0-1.092-.276c-.4 0-.764.096-1.092.288-.32.184-.576.444-.768.78a2.385 2.385 0 0 0-.276 1.164c0 .44.092.832.276 1.176.184.336.44.6.768.792.328.184.692.276 1.092.276zm8.479.564a1.79 1.79 0 0 1-.624.336 2.74 2.74 0 0 1-.768.108c-.64 0-1.136-.172-1.488-.516-.352-.344-.528-.836-.528-1.476v-3.492h-1.08v-.948h1.08v-1.392h1.152v1.392h1.824v.948h-1.824v3.444c0 .344.084.608.252.792.176.184.424.276.744.276.352 0 .652-.1.9-.3l.36.828zm1.393-5.988h1.152V161h-1.152v-6.36zm.576-1.224a.789.789 0 0 1-.564-.216.718.718 0 0 1-.216-.528c0-.208.072-.384.216-.528a.766.766 0 0 1 .564-.228c.224 0 .408.072.552.216a.662.662 0 0 1 .228.516c0 .216-.076.4-.228.552a.748.748 0 0 1-.552.216zm5.5 7.656c-.632 0-1.2-.14-1.704-.42-.504-.28-.9-.664-1.188-1.152a3.357 3.357 0 0 1-.42-1.68c0-.624.14-1.18.42-1.668.288-.496.684-.88 1.188-1.152a3.449 3.449 0 0 1 1.704-.42c.632 0 1.196.14 1.692.42.504.272.896.656 1.176 1.152.288.488.432 1.044.432 1.668 0 .624-.144 1.184-.432 1.68-.28.488-.672.872-1.176 1.152-.496.28-1.06.42-1.692.42zm0-1.008a2.15 2.15 0 0 0 1.092-.276 2.03 2.03 0 0 0 .768-.792c.184-.344.276-.736.276-1.176 0-.44-.092-.828-.276-1.164a1.93 1.93 0 0 0-.768-.792 2.15 2.15 0 0 0-1.092-.276c-.408 0-.776.092-1.104.276-.32.184-.576.448-.768.792a2.385 2.385 0 0 0-.276 1.164c0 .44.092.832.276 1.176.192.336.448.6.768.792.328.184.696.276 1.104.276zm8.289-5.484c.808 0 1.448.236 1.92.708.48.464.72 1.148.72 2.052V161h-1.152v-3.528c0-.616-.148-1.08-.444-1.392-.296-.312-.72-.468-1.272-.468-.624 0-1.116.184-1.476.552-.36.36-.54.88-.54 1.56V161H127.6v-6.36h1.104v.96c.232-.328.544-.58.936-.756.4-.176.852-.264 1.356-.264z"/><rect width="6" height="1" x="104" y="135.24" fill="#62699F" rx=".5" transform="rotate(-45 104 135.243)"/><rect width="6" height="1" x="99" y="126" fill="#62699F" rx=".5" transform="rotate(90 99 126)"/><rect width="6" height="1" x="93" y="135.95" fill="#62699F" rx=".5" transform="rotate(-135 93 135.95)"/><g clip-path="url(#a)"><path fill="#4B2E21" d="M97.309 183.17l.885-4.55c.208-1.07 1.244-2.105 2.315-2.311l3.875-.749c1.07-.207 1.143-.762.164-1.24l-12.577-6.127c-.98-.478-1.461-.038-1.075.981l5.337 14.087c.386 1.02.867.979 1.076-.091z"/></g><rect width="203.5" height="31.5" x="242.25" y="79.25" fill="#F3F3F8" stroke="#8187B2" stroke-width=".5" rx="4.75"/><path fill="#62699F" d="M427 100l-3-4h6l-3 4zm0-10l3 4h-6l3-4z"/><rect width="75" height="16" x="258" y="87" fill="#D7D9E6" rx="2"/><path fill="#62699F" d="M268.464 92.58c.616 0 1.168.136 1.656.408.488.272.868.652 1.14 1.14.28.488.42 1.052.42 1.692 0 .64-.14 1.208-.42 1.704a2.894 2.894 0 0 1-1.14 1.14 3.343 3.343 0 0 1-1.656.408c-.472 0-.904-.092-1.296-.276a2.495 2.495 0 0 1-.972-.804V99h-1.104v-8.904h1.152V93.6c.256-.336.576-.588.96-.756a2.988 2.988 0 0 1 1.26-.264zm-.096 5.484a2.15 2.15 0 0 0 1.092-.276 2.03 2.03 0 0 0 .768-.792c.192-.344.288-.736.288-1.176 0-.44-.096-.828-.288-1.164a1.93 1.93 0 0 0-.768-.792 2.15 2.15 0 0 0-1.092-.276c-.4 0-.764.092-1.092.276a1.93 1.93 0 0 0-.768.792 2.385 2.385 0 0 0-.276 1.164c0 .44.092.832.276 1.176.184.336.44.6.768.792.328.184.692.276 1.092.276zm4.904-7.968h1.152V99h-1.152v-8.904zm6.075 8.976c-.632 0-1.2-.14-1.704-.42-.504-.28-.9-.664-1.188-1.152a3.357 3.357 0 0 1-.42-1.68c0-.624.14-1.18.42-1.668.288-.496.684-.88 1.188-1.152a3.449 3.449 0 0 1 1.704-.42c.632 0 1.196.14 1.692.42.504.272.896.656 1.176 1.152.288.488.432 1.044.432 1.668 0 .624-.144 1.184-.432 1.68-.28.488-.672.872-1.176 1.152-.496.28-1.06.42-1.692.42zm0-1.008a2.15 2.15 0 0 0 1.092-.276 2.03 2.03 0 0 0 .768-.792c.184-.344.276-.736.276-1.176 0-.44-.092-.828-.276-1.164a1.93 1.93 0 0 0-.768-.792 2.15 2.15 0 0 0-1.092-.276c-.408 0-.776.092-1.104.276-.32.184-.576.448-.768.792a2.385 2.385 0 0 0-.276 1.164c0 .44.092.832.276 1.176.192.336.448.6.768.792.328.184.696.276 1.104.276zm10.977-5.424v5.496c0 1.112-.276 1.932-.828 2.46-.552.536-1.376.804-2.472.804-.6 0-1.172-.084-1.716-.252-.544-.16-.984-.392-1.32-.696l.552-.888c.296.256.66.456 1.092.6.44.152.892.228 1.356.228.744 0 1.292-.176 1.644-.528.36-.352.54-.888.54-1.608v-.504a2.594 2.594 0 0 1-1.008.744c-.392.16-.82.24-1.284.24-.608 0-1.16-.128-1.656-.384a2.968 2.968 0 0 1-1.152-1.092 3.091 3.091 0 0 1-.42-1.608c0-.6.14-1.132.42-1.596.28-.472.664-.836 1.152-1.092a3.557 3.557 0 0 1 1.656-.384c.48 0 .924.088 1.332.264.416.176.756.436 1.02.78v-.984h1.092zm-3.312 5.088c.416 0 .788-.088 1.116-.264.336-.176.596-.42.78-.732.192-.32.288-.68.288-1.08 0-.616-.204-1.112-.612-1.488-.408-.384-.932-.576-1.572-.576-.648 0-1.176.192-1.584.576-.408.376-.612.872-.612 1.488 0 .4.092.76.276 1.08.192.312.452.556.78.732a2.42 2.42 0 0 0 1.14.264zm8.91-5.148c.808 0 1.448.236 1.92.708.48.464.72 1.148.72 2.052V99h-1.152v-3.528c0-.616-.148-1.08-.444-1.392-.296-.312-.72-.468-1.272-.468-.624 0-1.116.184-1.476.552-.36.36-.54.88-.54 1.56V99h-1.152v-6.36h1.104v.96c.232-.328.544-.58.936-.756.4-.176.852-.264 1.356-.264zm7.088 0c.88 0 1.552.216 2.016.648.472.432.708 1.076.708 1.932V99h-1.092v-.84a1.853 1.853 0 0 1-.828.684c-.352.152-.772.228-1.26.228-.712 0-1.284-.172-1.716-.516-.424-.344-.636-.796-.636-1.356s.204-1.008.612-1.344c.408-.344 1.056-.516 1.944-.516h1.824v-.228c0-.496-.144-.876-.432-1.14-.288-.264-.712-.396-1.272-.396-.376 0-.744.064-1.104.192a2.76 2.76 0 0 0-.912.492l-.48-.864c.328-.264.72-.464 1.176-.6.456-.144.94-.216 1.452-.216zm-.264 5.604c.44 0 .82-.096 1.14-.288.32-.2.552-.48.696-.84v-.888h-1.776c-.976 0-1.464.328-1.464.984 0 .32.124.572.372.756.248.184.592.276 1.032.276zm13.075-5.604c.8 0 1.432.232 1.896.696.472.464.708 1.152.708 2.064V99h-1.152v-3.528c0-.616-.144-1.08-.432-1.392-.28-.312-.684-.468-1.212-.468-.584 0-1.048.184-1.392.552-.344.36-.516.88-.516 1.56V99h-1.152v-3.528c0-.616-.144-1.08-.432-1.392-.28-.312-.684-.468-1.212-.468-.584 0-1.048.184-1.392.552-.344.36-.516.88-.516 1.56V99h-1.152v-6.36h1.104v.948c.232-.328.536-.576.912-.744a2.995 2.995 0 0 1 1.284-.264c.496 0 .936.1 1.32.3.384.2.68.492.888.876.24-.368.572-.656.996-.864a3.304 3.304 0 0 1 1.452-.312zm10.507 3.276c0 .088-.008.204-.024.348h-5.16c.072.56.316 1.012.732 1.356.424.336.948.504 1.572.504.76 0 1.372-.256 1.836-.768l.636.744a2.777 2.777 0 0 1-1.08.768c-.424.176-.9.264-1.428.264-.672 0-1.268-.136-1.788-.408a3.033 3.033 0 0 1-1.212-1.164 3.357 3.357 0 0 1-.42-1.68c0-.616.136-1.172.408-1.668.28-.496.66-.88 1.14-1.152a3.244 3.244 0 0 1 1.644-.42c.608 0 1.148.14 1.62.42.48.272.852.656 1.116 1.152.272.496.408 1.064.408 1.704zm-3.144-2.304c-.552 0-1.016.168-1.392.504-.368.336-.584.776-.648 1.32h4.08c-.064-.536-.284-.972-.66-1.308-.368-.344-.828-.516-1.38-.516z"/><path fill="#6577AA" d="M45.052 99.096c-.848 0-1.612-.184-2.292-.552a4.212 4.212 0 0 1-1.608-1.548 4.266 4.266 0 0 1-.576-2.196c0-.808.192-1.54.576-2.196a4.124 4.124 0 0 1 1.608-1.536c.68-.376 1.444-.564 2.292-.564.84 0 1.6.188 2.28.564a4.04 4.04 0 0 1 1.596 1.536c.384.648.576 1.38.576 2.196 0 .816-.192 1.552-.576 2.208a4.151 4.151 0 0 1-1.596 1.536c-.68.368-1.44.552-2.28.552zm0-1.068c.616 0 1.168-.14 1.656-.42.496-.28.884-.664 1.164-1.152a3.238 3.238 0 0 0 .432-1.656c0-.608-.144-1.156-.432-1.644a3.014 3.014 0 0 0-1.164-1.164 3.267 3.267 0 0 0-1.656-.42 3.4 3.4 0 0 0-1.68.42 3.1 3.1 0 0 0-1.176 1.164 3.244 3.244 0 0 0-.42 1.644c0 .608.14 1.16.42 1.656.288.488.68.872 1.176 1.152a3.4 3.4 0 0 0 1.68.42zm9.49-5.448c.616 0 1.168.136 1.656.408.488.272.868.652 1.14 1.14.28.488.42 1.052.42 1.692 0 .64-.14 1.208-.42 1.704a2.894 2.894 0 0 1-1.14 1.14 3.343 3.343 0 0 1-1.656.408c-.456 0-.876-.088-1.26-.264a2.621 2.621 0 0 1-.96-.768v3.288H51.17V92.64h1.104v1.008c.256-.352.58-.616.972-.792a3.012 3.012 0 0 1 1.296-.276zm-.096 5.484a2.15 2.15 0 0 0 1.092-.276 2.03 2.03 0 0 0 .768-.792c.192-.344.288-.736.288-1.176 0-.44-.096-.828-.288-1.164a1.93 1.93 0 0 0-.768-.792 2.15 2.15 0 0 0-1.092-.276c-.4 0-.764.096-1.092.288-.32.184-.576.444-.768.78a2.385 2.385 0 0 0-.276 1.164c0 .44.092.832.276 1.176.184.336.44.6.768.792.328.184.692.276 1.092.276zm8.48.564a1.79 1.79 0 0 1-.624.336 2.74 2.74 0 0 1-.768.108c-.64 0-1.136-.172-1.488-.516-.352-.344-.528-.836-.528-1.476v-3.492h-1.08v-.948h1.08v-1.392h1.152v1.392h1.824v.948H60.67v3.444c0 .344.084.608.252.792.176.184.424.276.744.276.352 0 .652-.1.9-.3l.36.828zm1.393-5.988h1.152V99h-1.152v-6.36zm.576-1.224a.789.789 0 0 1-.564-.216.718.718 0 0 1-.216-.528c0-.208.072-.384.216-.528a.766.766 0 0 1 .564-.228c.224 0 .408.072.552.216a.662.662 0 0 1 .228.516c0 .216-.076.4-.228.552a.748.748 0 0 1-.552.216zm5.5 7.656c-.633 0-1.2-.14-1.705-.42-.504-.28-.9-.664-1.188-1.152a3.357 3.357 0 0 1-.42-1.68c0-.624.14-1.18.42-1.668.288-.496.684-.88 1.188-1.152a3.449 3.449 0 0 1 1.704-.42c.632 0 1.196.14 1.692.42.504.272.896.656 1.176 1.152.288.488.432 1.044.432 1.668 0 .624-.144 1.184-.432 1.68-.28.488-.672.872-1.176 1.152-.496.28-1.06.42-1.692.42zm0-1.008a2.15 2.15 0 0 0 1.091-.276 2.03 2.03 0 0 0 .768-.792c.184-.344.276-.736.276-1.176 0-.44-.092-.828-.276-1.164a1.93 1.93 0 0 0-.768-.792 2.15 2.15 0 0 0-1.092-.276c-.408 0-.776.092-1.104.276-.32.184-.576.448-.768.792a2.385 2.385 0 0 0-.276 1.164c0 .44.092.832.276 1.176.192.336.448.6.768.792.328.184.696.276 1.104.276zm8.288-5.484c.808 0 1.448.236 1.92.708.48.464.72 1.148.72 2.052V99h-1.152v-3.528c0-.616-.148-1.08-.444-1.392-.296-.312-.72-.468-1.272-.468-.624 0-1.116.184-1.476.552-.36.36-.54.88-.54 1.56V99h-1.152v-6.36h1.104v.96c.232-.328.544-.58.936-.756.4-.176.852-.264 1.356-.264zM94.07 90.6V99h-.984l-5.04-6.264V99h-1.2v-8.4h.984l5.04 6.264V90.6h1.2zm4.662 1.98c.88 0 1.552.216 2.016.648.472.432.708 1.076.708 1.932V99h-1.092v-.84a1.852 1.852 0 0 1-.828.684c-.352.152-.772.228-1.26.228-.712 0-1.284-.172-1.716-.516-.424-.344-.636-.796-.636-1.356s.204-1.008.612-1.344c.408-.344 1.056-.516 1.944-.516h1.824v-.228c0-.496-.144-.876-.432-1.14-.288-.264-.712-.396-1.272-.396-.376 0-.744.064-1.104.192a2.76 2.76 0 0 0-.912.492l-.48-.864c.328-.264.72-.464 1.176-.6.456-.144.94-.216 1.452-.216zm-.264 5.604c.44 0 .82-.096 1.14-.288.32-.2.552-.48.696-.84v-.888h-1.776c-.976 0-1.464.328-1.464.984 0 .32.124.572.372.756.248.184.592.276 1.032.276zm13.076-5.604c.8 0 1.432.232 1.896.696.472.464.708 1.152.708 2.064V99h-1.152v-3.528c0-.616-.144-1.08-.432-1.392-.28-.312-.684-.468-1.212-.468-.584 0-1.048.184-1.392.552-.344.36-.516.88-.516 1.56V99h-1.152v-3.528c0-.616-.144-1.08-.432-1.392-.28-.312-.684-.468-1.212-.468-.584 0-1.048.184-1.392.552-.344.36-.516.88-.516 1.56V99h-1.152v-6.36h1.104v.948c.232-.328.536-.576.912-.744a2.995 2.995 0 0 1 1.284-.264c.496 0 .936.1 1.32.3.384.2.68.492.888.876.24-.368.572-.656.996-.864a3.304 3.304 0 0 1 1.452-.312zm10.507 3.276c0 .088-.008.204-.024.348h-5.16c.072.56.316 1.012.732 1.356.424.336.948.504 1.572.504.76 0 1.372-.256 1.836-.768l.636.744a2.777 2.777 0 0 1-1.08.768c-.424.176-.9.264-1.428.264-.672 0-1.268-.136-1.788-.408a3.033 3.033 0 0 1-1.212-1.164 3.357 3.357 0 0 1-.42-1.68c0-.616.136-1.172.408-1.668.28-.496.66-.88 1.14-1.152a3.244 3.244 0 0 1 1.644-.42c.608 0 1.148.14 1.62.42.48.272.852.656 1.116 1.152.272.496.408 1.064.408 1.704zm-3.144-2.304c-.552 0-1.016.168-1.392.504-.368.336-.584.776-.648 1.32h4.08c-.064-.536-.284-.972-.66-1.308-.368-.344-.828-.516-1.38-.516z"/><path fill="#E8E9F1" d="M0 10C0 4.477 4.477 0 10 0h466c5.523 0 10 4.477 10 10v28H0V10z"/><path stroke="#EB5757" d="M51.405 19.57c0 3.047-2.418 5.5-5.379 5.5-2.96 0-5.378-2.453-5.378-5.5 0-3.048 2.417-5.5 5.378-5.5 2.961 0 5.38 2.452 5.38 5.5z"/><path stroke="#F2994A" d="M67.254 19.57c0 3.047-2.418 5.5-5.379 5.5-2.96 0-5.379-2.453-5.379-5.5 0-3.048 2.418-5.5 5.38-5.5 2.96 0 5.378 2.452 5.378 5.5z"/><path stroke="#219653" d="M83.102 19.57c0 3.047-2.417 5.5-5.378 5.5-2.961 0-5.379-2.453-5.379-5.5 0-3.048 2.418-5.5 5.379-5.5 2.96 0 5.378 2.452 5.378 5.5z"/><rect width="136" height="18" x="175" y="10" fill="#fff" rx="9"/><path fill="#8492BB" d="M219.331 14.6l-2.808 8.4h-1.26l-2.292-6.708L210.679 23h-1.284l-2.808-8.4h1.236l2.268 6.828 2.364-6.828h1.104l2.316 6.864 2.316-6.864h1.14zm4.744 0c1.088 0 1.944.26 2.568.78.624.52.936 1.236.936 2.148 0 .912-.312 1.628-.936 2.148-.624.52-1.48.78-2.568.78h-2.076V23h-1.2v-8.4h3.276zm-.036 4.812c.76 0 1.34-.16 1.74-.48.4-.328.6-.796.6-1.404 0-.608-.2-1.072-.6-1.392-.4-.328-.98-.492-1.74-.492h-2.04v3.768h2.04zm12.435 3.684c-.848 0-1.612-.184-2.292-.552a4.212 4.212 0 0 1-1.608-1.548 4.266 4.266 0 0 1-.576-2.196c0-.808.192-1.54.576-2.196a4.124 4.124 0 0 1 1.608-1.536c.68-.376 1.444-.564 2.292-.564.84 0 1.6.188 2.28.564a4.04 4.04 0 0 1 1.596 1.536c.384.648.576 1.38.576 2.196 0 .816-.192 1.552-.576 2.208a4.151 4.151 0 0 1-1.596 1.536c-.68.368-1.44.552-2.28.552zm0-1.068c.616 0 1.168-.14 1.656-.42.496-.28.884-.664 1.164-1.152a3.238 3.238 0 0 0 .432-1.656c0-.608-.144-1.156-.432-1.644a3.014 3.014 0 0 0-1.164-1.164 3.267 3.267 0 0 0-1.656-.42 3.4 3.4 0 0 0-1.68.42 3.1 3.1 0 0 0-1.176 1.164 3.244 3.244 0 0 0-.42 1.644c0 .608.14 1.16.42 1.656.288.488.68.872 1.176 1.152a3.4 3.4 0 0 0 1.68.42zm9.49-5.448c.616 0 1.168.136 1.656.408.488.272.868.652 1.14 1.14.28.488.42 1.052.42 1.692 0 .64-.14 1.208-.42 1.704a2.894 2.894 0 0 1-1.14 1.14 3.343 3.343 0 0 1-1.656.408c-.456 0-.876-.088-1.26-.264a2.621 2.621 0 0 1-.96-.768v3.288h-1.152V16.64h1.104v1.008c.256-.352.58-.616.972-.792a3.012 3.012 0 0 1 1.296-.276zm-.096 5.484a2.15 2.15 0 0 0 1.092-.276 2.03 2.03 0 0 0 .768-.792c.192-.344.288-.736.288-1.176 0-.44-.096-.828-.288-1.164a1.93 1.93 0 0 0-.768-.792 2.15 2.15 0 0 0-1.092-.276c-.4 0-.764.096-1.092.288-.32.184-.576.444-.768.78a2.385 2.385 0 0 0-.276 1.164c0 .44.092.832.276 1.176.184.336.44.6.768.792.328.184.692.276 1.092.276zm8.48.564a1.79 1.79 0 0 1-.624.336 2.74 2.74 0 0 1-.768.108c-.64 0-1.136-.172-1.488-.516-.352-.344-.528-.836-.528-1.476v-3.492h-1.08v-.948h1.08v-1.392h1.152v1.392h1.824v.948h-1.824v3.444c0 .344.084.608.252.792.176.184.424.276.744.276.352 0 .652-.1.9-.3l.36.828zm1.392-5.988h1.152V23h-1.152v-6.36zm.576-1.224a.789.789 0 0 1-.564-.216.718.718 0 0 1-.216-.528c0-.208.072-.384.216-.528a.766.766 0 0 1 .564-.228c.224 0 .408.072.552.216a.662.662 0 0 1 .228.516c0 .216-.076.4-.228.552a.748.748 0 0 1-.552.216zm5.5 7.656c-.632 0-1.2-.14-1.704-.42-.504-.28-.9-.664-1.188-1.152a3.357 3.357 0 0 1-.42-1.68c0-.624.14-1.18.42-1.668.288-.496.684-.88 1.188-1.152a3.449 3.449 0 0 1 1.704-.42c.632 0 1.196.14 1.692.42.504.272.896.656 1.176 1.152.288.488.432 1.044.432 1.668 0 .624-.144 1.184-.432 1.68-.28.488-.672.872-1.176 1.152-.496.28-1.06.42-1.692.42zm0-1.008a2.15 2.15 0 0 0 1.092-.276 2.03 2.03 0 0 0 .768-.792c.184-.344.276-.736.276-1.176 0-.44-.092-.828-.276-1.164a1.93 1.93 0 0 0-.768-.792 2.15 2.15 0 0 0-1.092-.276c-.408 0-.776.092-1.104.276-.32.184-.576.448-.768.792a2.385 2.385 0 0 0-.276 1.164c0 .44.092.832.276 1.176.192.336.448.6.768.792.328.184.696.276 1.104.276zm8.289-5.484c.808 0 1.448.236 1.92.708.48.464.72 1.148.72 2.052V23h-1.152v-3.528c0-.616-.148-1.08-.444-1.392-.296-.312-.72-.468-1.272-.468-.624 0-1.116.184-1.476.552-.36.36-.54.88-.54 1.56V23h-1.152v-6.36h1.104v.96c.232-.328.544-.58.936-.756.4-.176.852-.264 1.356-.264zm6.596 6.492c-.52 0-1.02-.068-1.5-.204-.48-.144-.856-.324-1.128-.54l.48-.912c.28.2.62.36 1.02.48s.804.18 1.212.18c1.008 0 1.512-.288 1.512-.864a.56.56 0 0 0-.204-.456 1.235 1.235 0 0 0-.516-.24 9.055 9.055 0 0 0-.864-.18 8.75 8.75 0 0 1-1.26-.276 1.937 1.937 0 0 1-.828-.528c-.232-.248-.348-.596-.348-1.044 0-.576.24-1.036.72-1.38.48-.352 1.124-.528 1.932-.528.424 0 .848.052 1.272.156.424.104.772.244 1.044.42l-.492.912c-.52-.336-1.132-.504-1.836-.504-.488 0-.86.08-1.116.24-.256.16-.384.372-.384.636 0 .208.072.372.216.492.144.12.32.208.528.264.216.056.516.12.9.192.512.088.924.184 1.236.288.32.096.592.264.816.504.224.24.336.576.336 1.008 0 .576-.248 1.036-.744 1.38-.488.336-1.156.504-2.004.504z"/></g><defs><clipPath id="a"><path fill="#fff" d="M0 0h16v16H0z" transform="translate(89 168)"/></clipPath></defs></svg>