<svg xmlns="http://www.w3.org/2000/svg" width="519" height="412" fill="none" viewBox="0 0 519 412"><path fill="#E5E5E5" d="M0 0h519v412H0z"/><path fill="#fff" d="M-919-3047h3659v5696H-919z"/><g opacity=".8"><path fill="#F5F6F9" d="M0 10C0 4.477 4.477 0 10 0h499c5.523 0 10 4.477 10 10v392c0 5.523-4.477 10-10 10H10c-5.523 0-10-4.477-10-10V10z"/><rect width="197" height="32" x="40" y="333" fill="#62699F" rx="5"/><text fill="#fff" font-family="Montserrat" font-size="12" font-weight="500" letter-spacing="0em" white-space="pre"><tspan x="56" y="353.3">Update and Generate Feed</tspan></text><g fill="#62699F"><rect width="6" height="1" x="143.24" y="327.24" rx=".5" transform="rotate(-45 143.243 327.243)"/><rect width="6" height="1" x="138.24" y="318" rx=".5" transform="rotate(90 138.243 318)"/><rect width="6" height="1" x="132.24" y="327.95" rx=".5" transform="rotate(-135 132.243 327.95)"/></g><g clip-path="url(#a)"><path fill="#4B2E21" d="M139.309 375.17l.885-4.55c.208-1.07 1.244-2.105 2.315-2.311l3.875-.749c1.07-.207 1.143-.762.164-1.24l-12.577-6.127c-.98-.478-1.461-.038-1.075.981l5.336 14.087c.387 1.02.868.979 1.077-.091z"/></g><g fill="#CFD1E1"><rect width="97.33" height="10" x="40" y="225" rx="5"/><rect width="113.23" height="10" x="147.27" y="225" rx="5"/><rect width="101.31" height="10" x="270.43" y="225" rx="5"/><rect width="97.33" height="10" x="381.67" y="225" rx="5"/><rect width="97.33" height="4" x="40" y="252" rx="2"/><rect width="113.23" height="4" x="147.27" y="252" rx="2"/><rect width="101.31" height="4" x="270.43" y="252" rx="2"/><rect width="97.33" height="4" x="381.67" y="252" rx="2"/><rect width="97.33" height="4" x="40" y="273" rx="2"/><rect width="113.23" height="4" x="147.27" y="273" rx="2"/><rect width="101.31" height="4" x="270.43" y="273" rx="2"/><rect width="97.33" height="4" x="381.67" y="273" rx="2"/><rect width="97.33" height="4" x="40" y="294" rx="2"/><rect width="113.23" height="4" x="147.27" y="294" rx="2"/><rect width="101.31" height="4" x="270.43" y="294" rx="2"/><rect width="97.33" height="4" x="381.67" y="294" rx="2"/></g><text fill="#6577AA" font-family="Montserrat" font-size="12" font-weight="500" letter-spacing="0em" white-space="pre"><tspan x="40" y="146.3">File Name</tspan></text><rect width="235.5" height="31.5" x="243.25" y="126.25" fill="#F0F0F6" stroke="#62699F" stroke-width=".5" rx="4.75"/><text fill="#62699F" font-family="Montserrat" font-size="12" font-weight="500" letter-spacing="0em" white-space="pre"><tspan x="261" y="146.3">Pinterest Feed</tspan></text><rect width="235.5" height="31.5" x="243.25" y="79.25" fill="#F3F3F8" stroke="#8187B2" stroke-width=".5" rx="4.75"/><path fill="#62699F" d="M460 100l-3-4h6l-3 4zm0-10l3 4h-6l3-4z"/><text fill="#62699F" font-family="Montserrat" font-size="12" font-weight="500" letter-spacing="0em" white-space="pre"><tspan x="259" y="99.3">Pinterest Catelog</tspan></text><text fill="#6577AA" font-family="Montserrat" font-size="12" font-weight="500" letter-spacing="0em" white-space="pre"><tspan x="40" y="99.3">Template</tspan></text><rect width="235.5" height="31.5" x="243.25" y="173.25" fill="#F3F3F8" stroke="#8187B2" stroke-width=".5" rx="4.75"/><path fill="#62699F" d="M460 194l-3-4h6l-3 4zm0-10l3 4h-6l3-4z"/><text fill="#62699F" font-family="Montserrat" font-size="12" font-weight="500" letter-spacing="0em" white-space="pre"><tspan x="259" y="193.3">XML</tspan></text><text fill="#6577AA" font-family="Montserrat" font-size="12" font-weight="500" letter-spacing="0em" white-space="pre"><tspan x="40" y="193.3">Feed Type</tspan></text><path fill="#E8E9F1" d="M0 10C0 4.477 4.477 0 10 0h499c5.523 0 10 4.477 10 10v28H0V10z"/><path stroke="#EB5757" d="M51.405 19.57c0 3.047-2.418 5.5-5.379 5.5-2.96 0-5.378-2.453-5.378-5.5 0-3.048 2.417-5.5 5.378-5.5 2.961 0 5.38 2.452 5.38 5.5z"/><path stroke="#F2994A" d="M67.254 19.57c0 3.047-2.418 5.5-5.379 5.5-2.96 0-5.379-2.453-5.379-5.5 0-3.048 2.418-5.5 5.38-5.5 2.96 0 5.378 2.452 5.378 5.5z"/><path stroke="#219653" d="M83.102 19.57c0 3.047-2.417 5.5-5.378 5.5-2.961 0-5.379-2.453-5.379-5.5 0-3.048 2.418-5.5 5.379-5.5 2.96 0 5.378 2.452 5.378 5.5z"/><rect width="129" height="18" x="195" y="10" fill="#fff" rx="9"/><text fill="#8492BB" font-family="Montserrat" font-size="12" font-weight="500" letter-spacing="0em" white-space="pre"><tspan x="226.19" y="23.3">Make Feed</tspan></text></g><defs><clipPath id="a"><path fill="#fff" d="M0 0h16v16H0z" transform="translate(131 360)"/></clipPath></defs></svg>