<?xml version="1.0" encoding="utf-8"?>
<!-- Generator: Adobe Illustrator 16.0.0, SVG Export Plug-In . SVG Version: 6.00 Build 0)  -->
<!DOCTYPE svg PUBLIC "-//W3C//DTD SVG 1.1//EN" "http://www.w3.org/Graphics/SVG/1.1/DTD/svg11.dtd">
<svg version="1.1" id="Layer_1" xmlns="http://www.w3.org/2000/svg" xmlns:xlink="http://www.w3.org/1999/xlink" x="0px" y="0px"
	 width="20px" height="20px" viewBox="630 390 20 20" enable-background="new 630 390 20 20" xml:space="preserve">
<path fill="#FFFFFF" d="M647.857,390h-15.714c-1.183,0-2.143,0.96-2.143,2.143v15.714c0,1.183,0.96,2.143,2.143,2.143h15.714
	c1.183,0,2.143-0.96,2.143-2.143v-15.714C650,390.96,649.04,390,647.857,390z M648.571,407.857c0,0.393-0.321,0.714-0.714,0.714
	h-15.714c-0.393,0-0.714-0.321-0.714-0.714v-15.714c0-0.393,0.321-0.714,0.714-0.714h15.714c0.393,0,0.714,0.321,0.714,0.714
	V407.857z M644.232,396.906L641.139,400l3.094,3.094c0.21,0.21,0.21,0.549,0,0.759l-0.38,0.38c-0.21,0.21-0.549,0.21-0.759,0
	L640,401.139l-3.094,3.094c-0.21,0.21-0.549,0.21-0.759,0l-0.379-0.38c-0.21-0.21-0.21-0.549,0-0.759l3.094-3.094l-3.094-3.094
	c-0.21-0.21-0.21-0.549,0-0.759l0.379-0.379c0.21-0.21,0.549-0.21,0.759,0l3.094,3.094l3.094-3.094c0.21-0.21,0.549-0.21,0.759,0
	l0.38,0.379C644.438,396.357,644.438,396.696,644.232,396.906L644.232,396.906z"/>
</svg>
