<?xml version="1.0" encoding="utf-8"?>
<!-- Generator: Adobe Illustrator 16.0.0, SVG Export Plug-In . SVG Version: 6.00 Build 0)  -->
<!DOCTYPE svg PUBLIC "-//W3C//DTD SVG 1.1//EN" "http://www.w3.org/Graphics/SVG/1.1/DTD/svg11.dtd">
<svg version="1.1" id="Layer_1" xmlns="http://www.w3.org/2000/svg" xmlns:xlink="http://www.w3.org/1999/xlink" x="0px" y="0px"
	 width="20px" height="20px" viewBox="630 390 20 20" enable-background="new 630 390 20 20" xml:space="preserve">
<path fill="#FFFFFF" d="M645.179,395.071c-0.643-0.558-1.366-0.786-2.071-0.786c-1.019,0-1.991,0.478-2.616,1.129L640,395.933
	l-0.496-0.518c-0.611-0.638-1.589-1.129-2.621-1.129c-0.701,0-1.419,0.228-2.067,0.786c-1.576,1.366-1.661,3.822-0.25,5.299
	l4.862,5.093c0.312,0.331,0.821,0.331,1.139,0l4.861-5.093C646.839,398.888,646.759,396.438,645.179,395.071z M644.42,399.379
	l-4.42,4.634l-4.419-4.634c-0.746-0.781-0.911-2.304,0.152-3.219c0.366-0.317,0.772-0.442,1.174-0.442
	c0.621,0,1.219,0.308,1.589,0.696l1.504,1.576l1.505-1.576c0.365-0.384,0.969-0.692,1.589-0.692c0.397,0,0.808,0.125,1.17,0.442
	C645.33,397.076,645.165,398.594,644.42,399.379L644.42,399.379z M647.857,390h-15.714c-1.183,0-2.143,0.96-2.143,2.143v15.714
	c0,1.183,0.96,2.143,2.143,2.143h15.714c1.183,0,2.143-0.96,2.143-2.143v-15.714C650,390.96,649.04,390,647.857,390z
	 M648.571,407.857c0,0.393-0.321,0.714-0.714,0.714h-15.714c-0.393,0-0.714-0.321-0.714-0.714v-15.714
	c0-0.393,0.321-0.714,0.714-0.714h15.714c0.393,0,0.714,0.321,0.714,0.714V407.857z"/>
</svg>
