<?xml version="1.0" encoding="utf-8"?>
<!-- Generator: Adobe Illustrator 16.0.0, SVG Export Plug-In . SVG Version: 6.00 Build 0)  -->
<!DOCTYPE svg PUBLIC "-//W3C//DTD SVG 1.1//EN" "http://www.w3.org/Graphics/SVG/1.1/DTD/svg11.dtd">
<svg version="1.1" id="Layer_1" xmlns="http://www.w3.org/2000/svg" xmlns:xlink="http://www.w3.org/1999/xlink" x="0px" y="0px"
	 width="20px" height="20px" viewBox="630 390 20 20" enable-background="new 630 390 20 20" xml:space="preserve">
<path fill="#FFFFFF" d="M647.857,391.429c0.393,0,0.714,0.321,0.714,0.714v15.714c0,0.393-0.321,0.714-0.714,0.714h-15.714
	c-0.393,0-0.714-0.321-0.714-0.714v-15.714c0-0.393,0.321-0.714,0.714-0.714H647.857 M647.857,390h-15.714
	c-1.183,0-2.143,0.96-2.143,2.143v15.714c0,1.183,0.96,2.143,2.143,2.143h15.714c1.183,0,2.143-0.96,2.143-2.143v-15.714
	C650,390.96,649.04,390,647.857,390z M645.179,399.196h-4.375v-4.375c0-0.294-0.241-0.536-0.536-0.536h-0.536
	c-0.295,0-0.536,0.241-0.536,0.536v4.375h-4.375c-0.294,0-0.536,0.241-0.536,0.536v0.536c0,0.294,0.241,0.536,0.536,0.536h4.375
	v4.375c0,0.295,0.241,0.535,0.536,0.535h0.536c0.294,0,0.536-0.24,0.536-0.535v-4.375h4.375c0.295,0,0.535-0.241,0.535-0.536v-0.536
	C645.714,399.438,645.474,399.196,645.179,399.196z"/>
</svg>
