<?xml version="1.0" encoding="utf-8"?>
<!-- Generator: Adobe Illustrator 16.0.0, SVG Export Plug-In . SVG Version: 6.00 Build 0)  -->
<!DOCTYPE svg PUBLIC "-//W3C//DTD SVG 1.1//EN" "http://www.w3.org/Graphics/SVG/1.1/DTD/svg11.dtd">
<svg version="1.1" id="Layer_1" xmlns="http://www.w3.org/2000/svg" xmlns:xlink="http://www.w3.org/1999/xlink" x="0px" y="0px"
	 width="20px" height="20px" viewBox="630 390 20 20" enable-background="new 630 390 20 20" xml:space="preserve">
<path fill="#FFFFFF" d="M647.857,390h-15.714c-1.184,0-2.143,0.959-2.143,2.143v15.714c0,1.184,0.959,2.143,2.143,2.143h15.714
	c1.184,0,2.143-0.959,2.143-2.143v-15.714C650,390.959,649.041,390,647.857,390z M647.857,391.429c0.394,0,0.714,0.32,0.714,0.714
	v15.714c0,0.394-0.32,0.714-0.714,0.714h-15.714c-0.394,0-0.714-0.32-0.714-0.714v-15.714c0-0.394,0.32-0.714,0.714-0.714H647.857
	 M646.326,395.817l-0.378-0.38c-0.208-0.21-0.547-0.211-0.757-0.003l-7.297,7.238l-3.079-3.104c-0.208-0.21-0.548-0.211-0.758-0.003
	l-0.38,0.377c-0.21,0.208-0.211,0.547-0.003,0.758l3.834,3.864c0.208,0.21,0.547,0.212,0.757,0.003l8.058-7.992
	C646.533,396.366,646.534,396.027,646.326,395.817z"/>
</svg>
