<?xml version="1.0" encoding="utf-8"?>
<!-- Generator: Adobe Illustrator 16.0.0, SVG Export Plug-In . SVG Version: 6.00 Build 0)  -->
<!DOCTYPE svg PUBLIC "-//W3C//DTD SVG 1.1//EN" "http://www.w3.org/Graphics/SVG/1.1/DTD/svg11.dtd">
<svg version="1.1" id="Layer_1" xmlns="http://www.w3.org/2000/svg" xmlns:xlink="http://www.w3.org/1999/xlink" x="0px" y="0px"
	 width="20px" height="20px" viewBox="630 390 20 20" enable-background="new 630 390 20 20" xml:space="preserve">
<path fill="#FFFFFF" d="M641.799,399.763l-3.214-0.901c-0.54-0.152-0.92-0.643-0.92-1.192c0-0.683,0.572-1.241,1.272-1.241h2.009
	c0.5,0,0.978,0.161,1.366,0.451c0.143,0.107,0.339,0.089,0.464-0.036l0.505-0.513c0.151-0.152,0.134-0.402-0.036-0.536
	c-0.651-0.518-1.455-0.799-2.303-0.799h-0.229v-1.786c0-0.197-0.16-0.357-0.356-0.357h-0.714c-0.197,0-0.357,0.161-0.357,0.357
	v1.786h-0.348c-1.486,0-2.701,1.196-2.701,2.669c0,1.188,0.808,2.241,1.959,2.567l3.215,0.902c0.54,0.152,0.919,0.643,0.919,1.192
	c0,0.683-0.571,1.241-1.272,1.241h-2.008c-0.5,0-0.978-0.161-1.366-0.451c-0.143-0.107-0.339-0.09-0.464,0.035l-0.504,0.514
	c-0.152,0.152-0.134,0.402,0.036,0.536c0.652,0.518,1.456,0.799,2.304,0.799h0.232v1.786c0,0.196,0.161,0.356,0.357,0.356h0.714
	c0.196,0,0.356-0.16,0.356-0.356V405h0.349c1.486,0,2.701-1.196,2.701-2.67C643.759,401.143,642.955,400.089,641.799,399.763
	L641.799,399.763z M647.857,390h-15.714c-1.183,0-2.143,0.96-2.143,2.143v15.714c0,1.183,0.96,2.143,2.143,2.143h15.714
	c1.183,0,2.143-0.96,2.143-2.143v-15.714C650,390.96,649.04,390,647.857,390z M648.571,407.857c0,0.393-0.321,0.714-0.714,0.714
	h-15.714c-0.393,0-0.714-0.321-0.714-0.714v-15.714c0-0.393,0.321-0.714,0.714-0.714h15.714c0.393,0,0.714,0.321,0.714,0.714
	V407.857z"/>
</svg>
