<?xml version="1.0" encoding="utf-8"?>
<!-- Generator: Adobe Illustrator 16.0.0, SVG Export Plug-In . SVG Version: 6.00 Build 0)  -->
<!DOCTYPE svg PUBLIC "-//W3C//DTD SVG 1.1//EN" "http://www.w3.org/Graphics/SVG/1.1/DTD/svg11.dtd">
<svg version="1.1" id="Layer_1" xmlns="http://www.w3.org/2000/svg" xmlns:xlink="http://www.w3.org/1999/xlink" x="0px" y="0px"
	 width="20px" height="20px" viewBox="630 390 20 20" enable-background="new 630 390 20 20" xml:space="preserve">
<path fill="#FFFFFF" d="M647.857,390h-15.714c-1.184,0-2.143,0.959-2.143,2.143v15.714c0,1.184,0.959,2.143,2.143,2.143h15.714
	c1.184,0,2.143-0.959,2.143-2.143v-15.714C650,390.959,649.041,390,647.857,390z M648.571,407.857c0,0.394-0.32,0.714-0.714,0.714
	h-15.714c-0.394,0-0.714-0.32-0.714-0.714v-15.714c0-0.394,0.32-0.714,0.714-0.714h15.714c0.394,0,0.714,0.32,0.714,0.714V407.857z
	 M640,403.75c-0.69,0-1.25,0.56-1.25,1.25s0.56,1.25,1.25,1.25s1.25-0.56,1.25-1.25S640.69,403.75,640,403.75z M640.342,402.679
	h-0.714c-0.296,0-0.536-0.24-0.536-0.536v-0.017c0-3.141,3.458-2.84,3.458-4.795c0-0.894-0.793-1.795-2.564-1.795
	c-1.301,0-1.976,0.431-2.644,1.281c-0.174,0.223-0.493,0.268-0.725,0.106l-0.586-0.409c-0.251-0.175-0.306-0.525-0.118-0.767
	c0.948-1.216,2.072-1.998,4.073-1.998c2.336,0,4.35,1.328,4.35,3.581c0,3.009-3.457,2.85-3.457,4.795v0.017
	C640.878,402.438,640.639,402.679,640.342,402.679z"/>
</svg>
