<svg xmlns="http://www.w3.org/2000/svg" viewBox="0 0 150 105"><title>customer-support</title><path d="M52.5,59.9a91.40468,91.40468,0,0,1,18,2.1q-18,9.9-18,26.1V105H0V86.3c0-5.4,3.2-10.2,9.7-14.4A69.83842,69.83842,0,0,1,31,62.7,90.0863,90.0863,0,0,1,52.5,59.9Z" fill="#0085ba"/><path d="M68.3,38.4a21.97985,21.97985,0,0,1-31.6,0A21.48372,21.48372,0,0,1,30,22.6,21.32538,21.32538,0,0,1,36.7,6.8,21.05475,21.05475,0,0,1,52.5,0,21.32538,21.32538,0,0,1,68.3,6.7,21.48372,21.48372,0,0,1,75,22.5,21.703,21.703,0,0,1,68.3,38.4Z" fill="#0085ba"/><path d="M81.7,73.2a71.86857,71.86857,0,0,1,27.1-5.6,73.85588,73.85588,0,0,1,27.1,5.6C145.3,77,150,81.9,150,88v16.9H67.6V88C67.6,81.9,72.3,77,81.7,73.2Z" fill="#01b9ff"/><path d="M122,47a18.04519,18.04519,0,0,1-13.2,5.5A17.66637,17.66637,0,0,1,95.6,47a18.04519,18.04519,0,0,1-5.5-13.2,18.42635,18.42635,0,0,1,5.5-13.4,17.39489,17.39489,0,0,1,13.2-5.6A17.75722,17.75722,0,0,1,122,20.4a18.83293,18.83293,0,0,1,5.5,13.4A18.04519,18.04519,0,0,1,122,47Z" fill="#01b9ff"/></svg>