<svg xmlns="http://www.w3.org/2000/svg" viewBox="0 0 150 150"><title>instant-support</title><path d="M141.8,104.3a8.40062,8.40062,0,0,1,5.9,2.3,7.68855,7.68855,0,0,1,2.3,5.9v29.3a8.40061,8.40061,0,0,1-2.3,5.9,7.68855,7.68855,0,0,1-5.9,2.3q-58.65,0-100.2-41.6Q.05,66.85,0,8.2A8.40065,8.40065,0,0,1,2.3,2.3,7.83528,7.83528,0,0,1,8.2,0H37.5a8.40065,8.40065,0,0,1,5.9,2.3,7.68851,7.68851,0,0,1,2.3,5.9,94.24156,94.24156,0,0,0,4.7,29.7c1,3.4.4,6.3-2,8.6L30.1,64.8c12.2,24,30.6,42.3,55.1,55.1l18.4-18.4a8.14785,8.14785,0,0,1,8.6-2A90.487,90.487,0,0,0,141.8,104.3Z" fill="#0085ba"/><path d="M133.2,75a56.23749,56.23749,0,0,0-17-41.2A56.2375,56.2375,0,0,0,75,16.8V0q31.2,0,53.1,21.9T150,75Z" fill="#01b9ff"/><path d="M100,75a24.27691,24.27691,0,0,0-7.4-17.6A23.73148,23.73148,0,0,0,75,50V33.2a40.1834,40.1834,0,0,1,29.5,12.3A40.1834,40.1834,0,0,1,116.8,75Z" fill="#01b9ff"/></svg>