<?xml version="1.0" encoding="utf-8"?>
<!-- Generator: Adobe Illustrator 24.2.0, SVG Export Plug-In . SVG Version: 6.00 Build 0)  -->
<svg version="1.1" id="Layer_1" xmlns="http://www.w3.org/2000/svg" xmlns:xlink="http://www.w3.org/1999/xlink" x="0px" y="0px"
	 viewBox="0 0 80 80" style="enable-background:new 0 0 80 80;" xml:space="preserve">
<style type="text/css">
	.st0{fill:#3784F4;}
</style>
<g id="Layer_2_1_">
	<g id="Layer_1-2">
		<path class="st0" d="M9.6,31h5.9c2.8,0,5.8,0.6,5.8,4c0,1.8-1.1,3-2.7,3.5v0c2.1,0.3,3.5,1.8,3.5,3.9c0,3.3-3.1,4.4-6,4.4H9.6V31z
			 M13.1,37.4h2.5c1.1,0,2.2-0.4,2.2-1.7c0-1.3-1.3-1.7-2.4-1.7h-2.4V37.4z M13.1,44h3.1c1.1,0,2.3-0.5,2.3-1.9
			c0-1.5-1.7-1.7-2.8-1.7h-2.6L13.1,44z"/>
		<path class="st0" d="M25.4,30.6c1.1,0,2,0.9,2,2c0,1.1-0.9,2-2,2s-2-0.9-2-2c0,0,0,0,0,0C23.5,31.5,24.3,30.6,25.4,30.6
			C25.4,30.6,25.4,30.6,25.4,30.6z M23.7,36h3.4v10.9h-3.4V36z"/>
		<path class="st0" d="M29.6,30h3.4v17h-3.4V30z"/>
		<path class="st0" d="M35.4,30h3.4v17h-3.4V30z"/>
		<path class="st0" d="M41.5,36h3.1v1.4h0c0.5-0.8,1.8-1.7,3.3-1.7c3.2,0,5.4,2.3,5.4,5.6c0,3-1.9,5.8-5,5.8c-1.4,0-2.7-0.4-3.4-1.4
			h-0.1V52h-3.4L41.5,36z M47.3,44.2c1.7,0,2.7-1.1,2.7-2.8c0-1.6-1-2.8-2.7-2.8c-1.7,0-2.7,1.1-2.7,2.8
			C44.6,43.1,45.6,44.2,47.3,44.2z"/>
		<path class="st0" d="M55.4,30h3.4v17h-3.4V30z"/>
		<path class="st0" d="M60.7,43.5l5.7-4.8h-5.5V36h9.4v3.2l-5.9,5h6.1v2.7h-9.7V43.5z"/>
	</g>
</g>
</svg>
