<svg width="256" height="256" viewBox="0 0 256 256" fill="none" xmlns="http://www.w3.org/2000/svg">
<g clip-path="url(#clip0_2018_3101)">
<path d="M82.8301 117.368H78.334V140.346H82.8301V117.368Z" fill="#2A3362"/>
<path d="M100.254 132.197C100.254 135.357 98.1878 136.798 95.451 136.798C92.7143 136.798 90.8711 135.385 90.8711 132.363V124.159H86.375V133.389C86.375 137.99 89.2793 140.679 94.1106 140.679C97.1545 140.679 98.8301 139.57 99.9751 138.323H100.226L100.617 140.374H104.75V124.159H100.254V132.197Z" fill="#2A3362"/>
<path d="M144.378 137.159C141.083 137.159 139.239 135.662 138.932 133.5H153.203C153.258 133.057 153.314 132.585 153.286 132.142C153.258 126.321 148.818 123.854 144.071 123.854C138.569 123.854 134.408 127.125 134.408 132.391C134.408 137.408 138.374 140.679 144.35 140.679C149.349 140.679 152.672 138.489 153.342 135.108H148.902C148.399 136.438 146.807 137.159 144.378 137.159ZM144.099 127.375C146.975 127.375 148.623 128.65 148.902 130.423H139.044C139.463 128.705 141.138 127.375 144.099 127.375Z" fill="#2A3362"/>
<path d="M160.967 126.487H160.688L160.269 124.159H156.191V140.346H160.688V133.389C160.688 130.257 162.503 128.511 165.91 128.511C166.524 128.511 167.139 128.566 167.753 128.677V124.159H167.139C164.095 124.159 162.251 124.797 160.967 126.487Z" fill="#2A3362"/>
<path d="M189.814 135.301H189.563L185.709 125.185H181.073L177.303 135.274H176.996L173.421 124.159H168.953L174.455 140.346H179.342L183.251 130.035H183.531L187.384 140.346H192.299L197.801 124.159H193.333L189.814 135.301Z" fill="#2A3362"/>
<path d="M215.703 135.634V130.229C215.703 125.822 211.961 123.854 207.297 123.854C202.355 123.854 199.255 126.183 198.836 129.675H203.332C203.667 128.151 204.952 127.319 207.297 127.319C209.643 127.319 211.207 128.206 211.207 129.98V130.396L203.863 130.95C200.483 131.2 197.998 132.696 197.998 135.884C197.998 139.154 200.847 140.706 205.008 140.706C208.387 140.706 210.425 139.764 211.682 138.378H211.905C212.603 139.958 214.056 140.402 215.592 140.402H217.491V137.103H217.072C216.15 137.048 215.703 136.604 215.703 135.634ZM211.207 133.916C211.207 136.466 208.135 137.325 205.51 137.325C203.723 137.325 202.55 136.882 202.55 135.634C202.55 134.526 203.555 133.999 205.063 133.86L211.235 133.417L211.207 133.916Z" fill="#2A3362"/>
<path d="M232.346 124.159L227.095 135.884H226.816L221.482 124.159H216.623L224.219 140.346H229.609L237.177 124.159H232.346Z" fill="#2A3362"/>
<path d="M251.56 135.108C251.002 136.438 249.41 137.159 247.008 137.159C243.713 137.159 241.87 135.662 241.563 133.5H255.833C255.889 133.057 255.945 132.585 255.917 132.142C255.889 126.321 251.448 123.854 246.701 123.854C241.199 123.854 237.066 127.125 237.066 132.391C237.066 137.408 241.032 140.679 247.008 140.679C252.007 140.679 255.33 138.489 256 135.108H251.56ZM246.701 127.375C249.577 127.375 251.225 128.65 251.504 130.423H241.646C242.065 128.705 243.713 127.375 246.701 127.375Z" fill="#2A3362"/>
<path d="M71.0445 122.967C71.0445 121.553 72.0498 120.944 73.3624 120.944C73.9767 120.944 74.5632 121.027 75.1496 121.193L75.9036 117.95C74.8145 117.562 73.6695 117.368 72.5246 117.368C69.2013 117.368 66.5204 119.114 66.5204 122.745V124.159H62.6387V127.707H66.5204V140.346H71.0445V127.707H76.1271V124.159H71.0445V122.967Z" fill="#2A3362"/>
<path d="M114.721 119.613H110.532L110.308 124.187H106.762V127.734H110.225V135.717C110.225 138.433 111.621 140.706 115.81 140.706C116.899 140.706 117.988 140.595 119.049 140.346V136.936C118.435 137.075 117.821 137.158 117.178 137.158C114.944 137.158 114.721 135.883 114.721 134.913V127.707H119.189V124.159H114.721V119.613Z" fill="#2A3362"/>
<path d="M128.851 119.613H124.69L124.467 124.187H120.92V127.734H124.383V135.717C124.383 138.433 125.779 140.706 129.968 140.706C131.057 140.706 132.118 140.567 133.18 140.346V136.936C132.565 137.075 131.951 137.158 131.308 137.158C129.074 137.158 128.851 135.883 128.851 134.913V127.707H133.319V124.159H128.823V119.613H128.851Z" fill="#2A3362"/>
<path d="M0 116.759C0 114.154 0.754009 111.936 2.37373 110.356L5.16636 113.128C2.06654 116.205 4.77539 125.767 13.628 134.553C22.4806 143.34 32.1152 146.028 35.215 142.952L38.0076 145.723C32.7575 150.934 20.833 147.22 10.8354 137.325C3.90968 130.424 0 122.635 0 116.759Z" fill="#009A46"/>
<path d="M17.6209 148.107C14.9958 148.107 12.7617 147.358 11.1699 145.751L13.9625 142.979C17.0624 146.056 26.6969 143.367 35.5495 134.581C44.4022 125.795 47.111 116.232 44.0112 113.156L46.8038 110.384C52.054 115.595 48.3118 127.43 38.3422 137.353C31.3885 144.226 23.5133 148.107 17.6209 148.107Z" fill="#FF5805"/>
<path d="M39.2373 133.389C37.5338 128.539 34.071 123.356 29.491 118.81C19.4934 108.887 7.56893 105.201 2.3188 110.384C1.95576 110.772 2.29087 111.687 3.04488 112.435C3.79889 113.183 4.74838 113.516 5.11142 113.156C8.21124 110.079 17.8458 112.768 26.6984 121.554C30.8874 125.712 34.0151 130.368 35.5231 134.664C36.8357 138.434 36.7239 141.483 35.188 143.007C34.825 143.367 35.1322 144.282 35.9141 145.058C36.696 145.834 37.6176 146.139 37.9806 145.779C40.6615 143.09 41.1084 138.683 39.2373 133.389Z" fill="#F5AFCB"/>
<path d="M46.7773 110.384C44.0963 107.723 39.6561 107.28 34.3221 109.109C29.435 110.8 24.2128 114.237 19.6329 118.782C9.63534 128.705 5.92114 140.54 11.1713 145.751C11.5343 146.111 12.4838 145.806 13.2378 145.03C13.9918 144.254 14.3269 143.34 13.9639 142.979C10.8641 139.903 13.5729 130.34 22.4256 121.554C26.6145 117.396 31.3061 114.292 35.6068 112.795C39.4047 111.493 42.4766 111.603 44.0126 113.128C44.3756 113.488 45.2972 113.183 46.0791 112.407C46.861 111.631 47.1682 110.772 46.7773 110.384Z" fill="#FF9B00"/>
</g>
<defs>
<clipPath id="clip0_2018_3101">
<rect width="256" height="40.1067" fill="white" transform="translate(0 108)"/>
</clipPath>
</defs>
</svg>
