<?xml version="1.0" encoding="UTF-8"?><svg id="Layer_1" xmlns="http://www.w3.org/2000/svg" viewBox="0 0 80 80"><defs><style>.cls-1{fill:#fcfcfc;}.cls-2{fill:#173851;}.cls-3{fill:#45c9a5;}.cls-4{fill:none;stroke:#45c9a5;stroke-linecap:round;stroke-linejoin:round;stroke-width:1.3px;}</style></defs><g><path class="cls-2" d="M68.34,55.55q-2.2,0-2.22-2.15c0-.12,0-.25,0-.37-.02-.55-.3-.89-.85-.87-.54,.02-.65-.18-.65-.69,.02-4.24,.01-8.48,0-12.72,0-.42,.02-.7,.58-.66,.73,.06,.94-.4,.94-1.05,0-.67-.21-1.53,.12-1.96,.36-.45,1.26-.13,1.92-.15,.75-.02,1.04-.4,1.03-1.1,0-.92-.03-1.84,.02-2.76,.03-.57-.18-.9-.65-1.19-4.89-3.12-9.77-6.25-14.64-9.4-2.69-1.74-2.54-1.73-5.19,0-1.76,1.15-3.54,2.28-5.42,3.48l-2.28,1.49c-2.32,1.43-4.6,2.94-6.91,4.39-.47,.29-.69,.62-.66,1.19,.05,.86,.01,1.72,.02,2.58,0,1.1,.19,1.29,1.27,1.3q1.81,.02,1.67,1.84c0,.09-.01,.18-.03,.28-.14,.93,.07,1.21,.97,1.09,.49-.06,.57,.1,.57,.52,0,4.3-.01,8.6,0,12.9,0,.43-.09,.6-.56,.59-.71-.03-.96,.4-.95,1.07,.02,.55-.03,1.11,.01,1.66,.03,.51-.12,.72-.66,.68-.64-.04-1.29,.02-1.93-.02-.81-.04-1.19,.26-1.16,1.12,.04,.95,0,1.91,.01,2.86,0,1.22,.09,1.3,1.33,1.3,6.08,0,12.16,0,18.25,0h16.04q1.67,0,1.67-1.62v-2.03q0-1.62-1.66-1.62Zm-25.72-16.81c0-.46,.1-.68,.61-.64,.67,.04,.92-.37,.93-.98,0-.06,0-.12,0-.18,.08-.66-.3-1.72,.17-1.89,.84-.31,1.87-.1,2.82-.1,.3,0,.3,.25,.3,.47,0,.55,.01,1.11,0,1.66-.02,.66,.22,1.1,.95,1.04,.55-.05,.57,.25,.57,.66-.01,2.12,0,4.24,0,6.36s0,4.18,0,6.27c0,.48,0,.82-.66,.77-.6-.04-.87,.35-.85,.95,0,.12,0,.25,0,.37-.06,.66,.31,1.67-.15,1.92-.84,.44-1.91,.14-2.89,.14-.36,0-.29-.33-.29-.56,0-.59,0-1.17,0-1.75,0-.65-.24-1.09-.96-1.07-.46,.02-.56-.18-.56-.6,.01-4.27,.01-8.54,0-12.81Zm12.67-3.67c.82-.33,1.86-.12,2.81-.14,.31,0,.32,.21,.32,.44,0,.46,.02,.92,0,1.38-.04,.8,.1,1.44,1.12,1.36,.41-.03,.43,.24,.43,.53,0,4.33,0,8.67,0,13,0,.42-.18,.52-.55,.51-.71-.02-.98,.39-.97,1.05,0,.18,0,.37,0,.55q0,1.8-1.85,1.8-1.5,0-1.5-1.5c0-.34,0-.68,0-1.01,0-.56-.29-.91-.83-.87-.64,.05-.67-.26-.67-.76,.02-2.09,0-4.18,0-6.27s0-4.18,0-6.27c0-.49,.02-.83,.66-.77,.56,.06,.84-.29,.86-.85,0-.06,0-.12,0-.18,.07-.69-.31-1.8,.16-1.99Zm-4.83,3.79c0-.71,.29-.77,.87-.77,.56,0,.81,.09,.8,.74-.04,2.09-.02,4.18-.02,6.26s-.03,4.18,.02,6.26c.02,.72-.29,.77-.86,.77-.55,0-.81-.08-.8-.74,.03-4.18,.03-8.35,0-12.53Zm2.53,14.78c.8-.04,.63,.49,.6,.91-.03,.4,.32,1.07-.58,1.01-.58-.04-1.17,0-1.75,0-.4,0-.81-.05-1.19,0-.9,.14-1.16-.2-1.1-1.09,.04-.61,.13-.87,.81-.83,1.07,.06,2.15,.06,3.22,0Zm.62-17.72c.09,.47-.03,.75-.62,.69-.57-.06-1.16-.01-1.74-.01h0c-.49,0-.99-.07-1.46,0-.76,.12-.81-.23-.84-.86-.03-.72,.22-.87,.88-.84,1.07,.06,2.14,.05,3.2,0,.91-.04,.51,.61,.58,1Zm11,18.63c-.03,.42,.27,1.06-.6,1.01-.58-.03-1.16,0-1.74,0-.4,0-.8-.05-1.19,.01-.89,.13-1.17-.2-1.11-1.09,.04-.6,.14-.87,.81-.83,1.07,.06,2.14,.05,3.2,0,.77-.03,.65,.47,.62,.91Zm-3.11-9.41c0-2.11,.02-4.23-.02-6.34,0-.6,.21-.74,.74-.7,.45,.04,.9-.1,.89,.65-.03,4.26-.03,8.52,0,12.78,0,.73-.44,.57-.85,.59-.46,.02-.81,.04-.79-.64,.05-2.11,.02-4.23,.02-6.34Zm3.12-9.21c.07,.38,.05,.73-.53,.69-.61-.05-1.22-.01-1.83-.01h0c-.43-.01-.85-.01-1.28,0-.95,0-1.29-.49-1.01-1.4,.09-.3,.29-.26,.49-.26,1.22,0,2.44,0,3.66,0,.84,0,.43,.63,.49,1Zm-28.92-2.51c-1.01,.07-.61-.67-.67-1.13-.07-.5-.02-.84,.69-.83,5.25,.03,10.51,.02,15.76,.02s10.2,.02,15.3-.02c.85,0,.9,.31,.92,1,.02,.74-.16,1.02-.96,.98-4.88-.24-9.76,.03-14.64-.06-4.7-.09-9.4-.02-14.1-.02-.77,0-1.53,.02-2.3,.07Zm2.26,1.8c.09-.3,.28-.28,.48-.28,1.22,0,2.44,.02,3.67,0,.76-.02,.5,.53,.51,.9,.02,.36,.16,.84-.52,.8-.61-.04-1.22,0-1.83,0h0c-.43-.01-.85-.02-1.28-.01-.98,0-1.3-.44-1.03-1.38Zm3.13,9.98c0,2.09-.02,4.18,.02,6.27,.01,.61-.24,.71-.76,.69-.48-.02-.87,.04-.86-.69,.03-4.21,.03-8.42,0-12.63,0-.66,.26-.74,.81-.74,.56,0,.81,.09,.8,.74-.04,2.12-.02,4.24-.02,6.36Zm-3.1,9.1c-.13-.56,.18-.64,.69-.58,.54,.06,1.1,.02,1.64,.02h0c.43,0,.87,.09,1.28,0,.96-.23,1.02,.26,1.01,1.01,0,.6-.12,.88-.8,.84-1.07-.06-2.14-.02-3.2-.01-1.09,0-.5-.81-.62-1.27Z"/><path class="cls-3" d="M37,29.87c3.17-2.04,6.18-3.98,9.19-5.92,1.52-.98,3.05-1.95,4.56-2.94,.41-.27,.74-.3,1.17-.03,4.45,2.88,8.92,5.75,13.38,8.62,.08,.05,.16,.1,.44,.27h-28.74Z"/><path class="cls-3" d="M51.28,59.31c-5.4,0-10.81-.01-16.21,.02-.69,0-.88-.18-.86-.86,.05-1.39,0-1.4,1.42-1.39,1.01,0,2.03,.02,3.04,.02,9.64,0,19.28-.01,28.92,0,.3,0,.79-.2,.86,.25,.09,.62,.2,1.3-.08,1.89-.11,.22-.51,.09-.78,.09-5.43,0-10.87,0-16.3,0Z"/></g><g><g><path class="cls-3" d="M19.38,60.35c-4.81-.01-8.73-3.99-8.73-8.86,0-4.87,3.92-8.84,8.74-8.84,4.82,0,8.74,3.98,8.73,8.86,0,4.88-3.91,8.84-8.72,8.84h-.02Z"/><path class="cls-2" d="M19.39,42v1.3c4.46,0,8.08,3.69,8.08,8.21,0,4.52-3.62,8.19-8.09,8.19-4.46-.01-8.08-3.7-8.08-8.21,0-4.52,3.63-8.19,8.09-8.19h0v-1.3m0,0c-5.18,0-9.38,4.25-9.38,9.49,0,5.26,4.17,9.5,9.37,9.51h.03c5.18,0,9.36-4.24,9.37-9.49,0-5.26-4.18-9.5-9.37-9.51h0Z"/></g><path class="cls-1" d="M21.76,54.6c-.4,.41-.91,.68-1.53,.82v.71c0,.2-.07,.37-.2,.5-.13,.13-.3,.2-.5,.2s-.35-.07-.48-.2c-.13-.13-.2-.3-.2-.5v-.65c-.41-.04-.79-.13-1.14-.27-.34-.14-.67-.35-1-.62-.21-.18-.31-.39-.31-.61,0-.18,.07-.33,.2-.47,.13-.13,.29-.2,.47-.2,.15,0,.28,.05,.39,.14,.24,.19,.46,.34,.68,.46,.21,.11,.45,.19,.7,.22v-2.25c-1.54-.28-2.32-1.06-2.32-2.32,0-.64,.21-1.16,.65-1.57,.43-.41,.99-.66,1.67-.75v-.38c0-.2,.07-.37,.2-.5,.13-.13,.3-.2,.5-.2s.35,.07,.48,.2c.13,.13,.2,.3,.2,.5v.43c.65,.12,1.19,.35,1.61,.71,.22,.18,.33,.38,.33,.61,0,.18-.07,.33-.2,.47-.13,.13-.28,.2-.46,.2-.12,0-.22-.03-.31-.1-.23-.19-.56-.36-.98-.5v2.13c.75,.18,1.29,.44,1.62,.78,.34,.34,.51,.84,.51,1.5,0,.59-.2,1.09-.6,1.5Zm-3.63-4.47c.16,.16,.4,.28,.71,.37v-1.91c-.32,.06-.55,.17-.71,.33-.16,.16-.24,.36-.24,.59,0,.25,.08,.46,.24,.62Zm2.64,3.54c.14-.15,.21-.31,.21-.49,0-.21-.06-.4-.18-.56-.12-.16-.31-.29-.56-.4v1.81c.22-.09,.4-.21,.54-.36Z"/></g><g><path class="cls-4" d="M13.28,40.04c-1.64-6.87,3.06-13.03,11.86-12.61"/><path class="cls-3" d="M24.61,27.44c-1.15-1.54-1.41-4.29-1.2-6.14,1.49,2.74,3.57,5.25,6.29,6.88-3.07,.74-5.69,2.7-7.98,4.82,.44-1.95,1.27-4.28,2.88-5.55Z"/></g></svg>