<?xml version="1.0" encoding="UTF-8"?><svg id="Layer_1" xmlns="http://www.w3.org/2000/svg" viewBox="0 0 80 80"><defs><style>.cls-1{fill:#6772e5;}</style></defs><path class="cls-1" d="M14.22,37.3c0-.65,.53-.9,1.42-.9,1.27,0,2.87,.38,4.13,1.07v-3.92c-1.38-.55-2.75-.77-4.13-.77-3.38,0-5.63,1.77-5.63,4.72,0,4.6,6.33,3.87,6.33,5.85,0,.77-.67,1.02-1.6,1.02-1.38,0-3.15-.57-4.55-1.33v3.97c1.55,.67,3.12,.95,4.55,.95,3.47,0,5.85-1.72,5.85-4.7-.02-4.97-6.37-4.08-6.37-5.95Zm11.27-7.85l-4.07,.87-.02,13.35c0,2.47,1.85,4.28,4.32,4.28,1.37,0,2.37-.25,2.92-.55v-3.38c-.53,.22-3.17,.98-3.17-1.48v-5.92h3.17v-3.55h-3.17l.02-3.62Zm8.33,4.85l-.27-1.23h-3.6v14.58h4.17v-9.88c.98-1.28,2.65-1.05,3.17-.87v-3.83c-.53-.2-2.48-.57-3.47,1.23Zm4.48-1.23h4.18v14.58h-4.18v-14.58Zm0-1.27l4.18-.9v-3.38l-4.18,.88v3.4Zm12.88,.98c-1.63,0-2.68,.77-3.27,1.3l-.22-1.03h-3.67v19.43l4.17-.88,.02-4.72c.6,.43,1.48,1.05,2.95,1.05,2.98,0,5.7-2.4,5.7-7.68-.02-4.83-2.77-7.47-5.68-7.47Zm-1,11.48c-.98,0-1.57-.35-1.97-.78l-.02-6.18c.43-.48,1.03-.82,1.98-.82,1.52,0,2.57,1.7,2.57,3.88s-1.03,3.9-2.57,3.9Zm19.82-3.85c0-4.27-2.07-7.63-6.02-7.63s-6.37,3.37-6.37,7.6c0,5.02,2.83,7.55,6.9,7.55,1.98,0,3.48-.45,4.62-1.08v-3.33c-1.13,.57-2.43,.92-4.08,.92s-3.05-.57-3.23-2.53h8.15c0-.22,.03-1.08,.03-1.48Zm-8.23-1.58c0-1.88,1.15-2.67,2.2-2.67s2.1,.78,2.1,2.67h-4.3Z"/></svg>