<svg width="48" height="48" xmlns="http://www.w3.org/2000/svg" viewBox="0 0 512 512" style="enable-background:new 0 0 512 512" xml:space="preserve"><path d="M409.921 0c-56.287 0-102.079 45.792-102.079 102.079 0 16.939 4.285 33.666 12.426 48.628l-20.403 51.009a8.016 8.016 0 0 0 10.42 10.42l51.009-20.403c14.961 8.14 31.688 12.425 48.627 12.425 56.287 0 102.079-45.792 102.079-102.079S466.208 0 409.921 0zm0 188.125c-15.382 0-30.568-4.204-43.915-12.156a8.015 8.015 0 0 0-7.081-.557l-37.226 14.891 14.891-37.226a8.015 8.015 0 0 0-.557-7.081c-7.953-13.347-12.157-28.533-12.157-43.915 0-47.446 38.6-86.046 86.046-86.046s86.046 38.6 86.046 86.046-38.601 86.044-86.047 86.044z" fill="#fff"/><path d="M443.062 78.942c-2.384-13.577-13.529-24.722-27.106-27.105-9.949-1.747-20.039.932-27.679 7.348a33.606 33.606 0 0 0-12.026 25.792 8.017 8.017 0 0 0 16.034 0c0-5.225 2.298-10.15 6.304-13.515 4.063-3.411 9.248-4.773 14.597-3.834 6.942 1.219 12.866 7.142 14.085 14.085 1.625 9.254-3.914 17.995-12.882 20.331-7.467 1.948-12.484 8.226-12.484 15.625v1.513a8.017 8.017 0 0 0 16.034 0v-1.386c.08-.067.24-.169.494-.234 17.121-4.463 27.709-21.067 24.629-38.62zm-33.056 57.876h-.086c-4.427 0-7.974 3.589-7.974 8.017s3.632 8.017 8.06 8.017a8.017 8.017 0 0 0 0-16.034zm-81.732 275.113-74.947-23.06a9.04 9.04 0 0 1-6.413-8.684v-29.22l4.365-3.637a42.216 42.216 0 0 0 14.662-25.765l19.504-121.899a76.312 76.312 0 0 0-17.312-61.662 76.32 76.32 0 0 0-58.154-26.839h-61.88a76.313 76.313 0 0 0-58.154 26.837 76.316 76.316 0 0 0-17.312 61.662l19.504 121.899a42.219 42.219 0 0 0 14.662 25.765l4.365 3.639v29.219a9.04 9.04 0 0 1-6.413 8.684l-74.947 23.06C11.978 417.417 0 433.634 0 452.285v34.596C0 500.732 11.268 512 25.119 512H332.96c13.851 0 25.119-11.268 25.119-25.119v-34.596c0-18.651-11.978-34.868-29.805-40.354zM96.602 247.983l-8.136-50.85a60.31 60.31 0 0 1 13.68-48.728 60.309 60.309 0 0 1 45.954-21.207h61.88a60.305 60.305 0 0 1 45.954 21.207 60.306 60.306 0 0 1 13.68 48.728l-7.357 45.98-6.872-48.103a8.017 8.017 0 0 0-10.471-6.471c-.757.251-76.298 25.241-125.732 25.241a8.015 8.015 0 0 0-7.17 4.432l-14.886 29.773h-.524zm11.367 71.048-8.802-55.014h2.913a8.015 8.015 0 0 0 7.17-4.432l14.923-29.846c41.487-1.188 95.383-16.533 116.679-23.089l7.212 50.483a8.016 8.016 0 0 0 7.937 6.883h2.913l-8.802 55.014a26.187 26.187 0 0 1-9.094 15.981l-34.32 28.6a17.669 17.669 0 0 1-11.291 4.087h-32.732a17.676 17.676 0 0 1-11.291-4.087l-34.32-28.6a26.19 26.19 0 0 1-9.095-15.98zm1.497 85.165c10.606-3.263 17.732-12.911 17.732-24.008v-15.859l13.92 11.601a33.734 33.734 0 0 0 21.555 7.804h32.732a33.736 33.736 0 0 0 21.555-7.804l13.92-11.601v15.858c0 11.097 7.126 20.745 17.732 24.008l5.142 1.582c-14.685 29.059-43.232 47.434-74.73 47.434-31.489 0-60.039-18.374-74.726-47.426l5.168-1.589zm-49.608 91.771H25.119c-5.01 0-9.086-4.076-9.086-9.086v-34.596c0-4.537 1.157-8.833 3.212-12.596l34.267 28.555a17.591 17.591 0 0 1 6.346 13.549v14.174zm222.33-14.173v14.172H75.891v-14.172a33.58 33.58 0 0 0-12.115-25.866l-32.762-27.302a26.524 26.524 0 0 1 3.505-1.371l54.267-16.696c17.001 35.859 51.744 58.685 90.239 58.685 38.506 0 73.244-22.826 90.243-58.693l54.29 16.705c1.216.375 2.38.842 3.505 1.371l-32.76 27.301a33.581 33.581 0 0 0-12.115 25.866zm59.858 5.087c0 5.01-4.076 9.086-9.086 9.086h-34.739v-14.172a17.591 17.591 0 0 1 6.346-13.549l34.267-28.555a26.183 26.183 0 0 1 3.212 12.596v34.594z" fill="#fff"/></svg>