<?xml version="1.0" encoding="UTF-8"?>
<svg width="140px" height="160px" viewBox="0 0 140 160" version="1.1" xmlns="http://www.w3.org/2000/svg" xmlns:xlink="http://www.w3.org/1999/xlink">
    <!-- Generator: Sketch 53.2 (72643) - https://sketchapp.com -->
    <title>Group 40</title>
    <desc>Created with Sketch.</desc>
    <defs>
        <polygon id="path-1" points="0.247971223 0.151985612 94.0729496 0.151985612 94.0729496 51.3668058 0.247971223 51.3668058"></polygon>
    </defs>
    <g id="Page-1" stroke="none" stroke-width="1" fill="none" fill-rule="evenodd">
        <g id="Step-1" transform="translate(-457.000000, -204.000000)">
            <g id="Group-40" transform="translate(457.000000, 204.000000)">
                <g id="Group-3" transform="translate(45.323741, 108.103165)">
                    <mask id="mask-2" fill="white">
                        <use xlink:href="#path-1"></use>
                    </mask>
                    <g id="Clip-2"></g>
                    <polygon id="Fill-1" fill="#F4BB3C" opacity="0.1" mask="url(#mask-2)" points="56.9278273 0.151985612 94.0731511 18.2845036 36.7466763 51.3668058 0.247971223 45.3236403 0.487683453 40.6603309 24.3249496 26.7268058 23.1626475 19.3622014"></polygon>
                </g>
                <g id="Group-7" transform="translate(17.822302, 109.110360)">
                    <path d="M0.228230216,23.2859281 C0.228230216,23.2859281 17.3324029,13.993554 21.7912518,10.8702446 C25.0132662,8.61211511 24.0070791,6.67930935 22.0299568,0.246359712" id="Fill-4"></path>
                    <path d="M0.228230216,23.2859281 C0.228230216,23.2859281 17.3324029,13.993554 21.7912518,10.8702446 C25.0132662,8.61211511 24.0070791,6.67930935 22.0299568,0.246359712" id="Stroke-6" stroke="#F4BB3C" stroke-linecap="round" stroke-linejoin="round"></path>
                </g>
                <path d="M70.9488777,126.856719 C72.5996691,132.290532 73.7146331,136.187367 68.762259,139.309669 C62.0281583,143.557007 45.9634101,152.527079 45.9634101,152.527079 L45.9634101,148.72895 C45.9634101,148.72895 62.6012518,139.332835 66.9553525,136.597295 C70.2881583,134.504345 68.8569353,131.022475 66.8788058,124.590532 L70.9488777,126.856719 Z" id="Fill-8" fill="#FEFEFE"></path>
                <path d="M70.9488777,126.856719 C72.5996691,132.290532 73.7146331,136.187367 68.762259,139.309669 C62.0281583,143.557007 45.9634101,152.527079 45.9634101,152.527079 L45.9634101,148.72895 C45.9634101,148.72895 62.6012518,139.332835 66.9553525,136.597295 C70.2881583,134.504345 68.8569353,131.022475 66.8788058,124.590532 L70.9488777,126.856719 Z" id="Stroke-10" stroke="#F4BB3C" stroke-linecap="round" stroke-linejoin="round"></path>
                <polygon id="Fill-12" fill="#FEFEFE" points="45.9638129 148.728849 45.9638129 152.526978 17.9043885 136.366547 17.9043885 132.566403"></polygon>
                <polygon id="Stroke-14" stroke="#F4BB3C" stroke-linecap="round" stroke-linejoin="round" points="45.9638129 148.728849 45.9638129 152.526978 17.9043885 136.366547 17.9043885 132.566403"></polygon>
                <path d="M100.199813,58.853482 L100.199813,135.249165 C100.199813,139.050317 96.0834101,141.426288 92.7908921,139.526719 L4.03391367,88.284705 C1.84930935,87.0226906 0.503697842,84.691036 0.503697842,82.1690216 L0.503697842,5.00585612 C0.503697842,1.54614388 4.24945324,-0.617309353 7.24686331,1.11305036 L96.6695971,52.7398129 C98.8542014,54.0008201 100.199813,56.3314676 100.199813,58.853482" id="Fill-16" fill="#FEFEFE"></path>
                <path d="M100.199813,58.853482 L100.199813,135.249165 C100.199813,139.050317 96.0834101,141.426288 92.7908921,139.526719 L4.03391367,88.284705 C1.84930935,87.0226906 0.503697842,84.691036 0.503697842,82.1690216 L0.503697842,5.00585612 C0.503697842,1.54614388 4.24945324,-0.617309353 7.24686331,1.11305036 L96.6695971,52.7398129 C98.8542014,54.0008201 100.199813,56.3314676 100.199813,58.853482 Z" id="Stroke-18" stroke="#F4BB3C" stroke-linecap="round" stroke-linejoin="round"></path>
                <polygon id="Fill-20" fill="#FEFEFE" points="5.15663309 4.97543885 84.8025324 51.0072374 95.5462734 57.2175971 95.5462734 135.723353 5.15663309 83.4791799"></polygon>
                <polygon id="Stroke-22" stroke="#F4BB3C" stroke-linecap="round" stroke-linejoin="round" points="5.15663309 4.97543885 84.8025324 51.0072374 95.5462734 57.2175971 95.5462734 135.723353 5.15663309 83.4791799"></polygon>
                <g id="Group-39" transform="translate(34.244604, 52.707482)">
                    <g id="Group-28">
                        <path d="M20.4661871,37.7309065 C18.0871942,37.7309065 15.6477698,37.0198273 13.2143885,35.6137842 C5.82359712,31.3442878 0.267913669,21.7155108 0.294100719,13.2157986 C0.31323741,5.82299281 4.83352518,0.659107914 11.2856115,0.659107914 C13.6646043,0.659107914 16.105036,1.37119424 18.5384173,2.77623022 C25.9292086,7.03968345 31.4838849,16.6674532 31.458705,25.1711942 C31.437554,32.5660144 26.9182734,37.7309065 20.4661871,37.7309065" id="Fill-24" fill="#F4BB3C" opacity="0.2"></path>
                        <path d="M20.4661871,37.7309065 C18.0871942,37.7309065 15.6477698,37.0198273 13.2143885,35.6137842 C5.82359712,31.3442878 0.267913669,21.7155108 0.294100719,13.2157986 C0.31323741,5.82299281 4.83352518,0.659107914 11.2856115,0.659107914 C13.6646043,0.659107914 16.105036,1.37119424 18.5384173,2.77623022 C25.9292086,7.03968345 31.4838849,16.6674532 31.458705,25.1711942 C31.437554,32.5660144 26.9182734,37.7309065 20.4661871,37.7309065 Z" id="Stroke-26" stroke="#F4BB3C" stroke-width="1.592" opacity="0.1" stroke-linecap="round" stroke-linejoin="round"></path>
                    </g>
                    <g id="Group-33" transform="translate(4.028777, 5.035971)" opacity="0.1">
                        <path d="M15.9210216,28.2776835 C14.2238993,28.2776835 12.4512374,27.7499137 10.6523885,26.7104892 C4.85598561,23.3635827 0.330661871,15.5215683 0.35181295,8.86099281 C0.365913669,3.58530935 3.34821583,0.042 7.77282014,0.042 C9.46994245,0.042 11.2436115,0.56876259 13.0444748,1.60818705 C18.8378561,4.95207194 23.3641871,12.7910647 23.343036,19.4546619 C23.3289353,24.7313525 20.3466331,28.2776835 15.9210216,28.2776835" id="Fill-29" fill="#F4BB3C"></path>
                        <path d="M15.9210216,28.2776835 C14.2238993,28.2776835 12.4512374,27.7499137 10.6523885,26.7104892 C4.85598561,23.3635827 0.330661871,15.5215683 0.35181295,8.86099281 C0.365913669,3.58530935 3.34821583,0.042 7.77282014,0.042 C9.46994245,0.042 11.2436115,0.56876259 13.0444748,1.60818705 C18.8378561,4.95207194 23.3641871,12.7910647 23.343036,19.4546619 C23.3289353,24.7313525 20.3466331,28.2776835 15.9210216,28.2776835 Z" id="Stroke-31" stroke="#F4BB3C" stroke-width="1.592" stroke-linecap="round" stroke-linejoin="round"></path>
                    </g>
                    <g id="Group-38" transform="translate(8.057554, 10.071942)">
                        <path d="M7.84191367,0.989971223 C11.7457986,3.24205755 14.9093957,8.72320863 14.8963022,13.2082446 C14.8832086,17.6922734 11.6974532,19.5092518 7.79558273,17.2541439 C3.89270504,15.0010504 0.729107914,9.52292086 0.742201439,5.03788489 C0.75428777,0.552848921 3.94004317,-1.26211511 7.84191367,0.989971223" id="Fill-34" fill="#F4BB3C" opacity="0.3"></path>
                        <path d="M7.84191367,0.989971223 C11.7457986,3.24205755 14.9093957,8.72320863 14.8963022,13.2082446 C14.8832086,17.6922734 11.6974532,19.5092518 7.79558273,17.2541439 C3.89270504,15.0010504 0.729107914,9.52292086 0.742201439,5.03788489 C0.75428777,0.552848921 3.94004317,-1.26211511 7.84191367,0.989971223 Z" id="Stroke-36" stroke="#F4BB3C" stroke-width="1.592" opacity="0.2" stroke-linecap="round" stroke-linejoin="round"></path>
                    </g>
                </g>
            </g>
        </g>
    </g>
</svg>