<?xml version="1.0" encoding="UTF-8"?>
<svg width="160px" height="126px" viewBox="0 0 160 126" version="1.1" xmlns="http://www.w3.org/2000/svg" xmlns:xlink="http://www.w3.org/1999/xlink">
    <!-- Generator: Sketch 53.2 (72643) - https://sketchapp.com -->
    <title>Group 76</title>
    <desc>Created with Sketch.</desc>
    <defs>
        <polygon id="path-1" points="0.557970149 0.734567164 141.239403 0.734567164 141.239403 74.0298507 0.557970149 74.0298507"></polygon>
    </defs>
    <g id="Page-1" stroke="none" stroke-width="1" fill="none" fill-rule="evenodd">
        <g id="Step-1" transform="translate(-751.000000, -237.000000)">
            <g id="Group-76" transform="translate(751.000000, 237.000000)">
                <g id="Group-28" transform="translate(0.000000, 0.026269)">
                    <g id="Group-3" transform="translate(17.910448, 51.343284)">
                        <mask id="mask-2" fill="white">
                            <use xlink:href="#path-1"></use>
                        </mask>
                        <g id="Clip-2"></g>
                        <polygon id="Fill-1" fill="#F4BB3C" opacity="0.1" mask="url(#mask-2)" points="67.750806 0.734567164 141.239761 40.8957612 77.1597612 74.0300896 0.557970149 54.2856119 0.840955224 48.7560597 29.1000597 32.2390448 27.7221493 23.5071045"></polygon>
                    </g>
                    <path d="M83.184597,39.512597 L18.3248955,2.06662687 C15.2837015,0.310208955 12.5159403,0.153791045 10.5159403,1.31677612 L3.94280597,5.13647761 C5.944,3.97349254 8.71056716,4.12991045 11.7517612,5.88632836 L76.6114627,43.3322985 C82.6556418,46.8224478 87.582209,55.3549851 87.5619104,62.2994627 L87.4293731,109.015881 C87.4198209,112.459463 86.1899701,114.892896 84.2114627,116.042746 L90.785791,112.223045 C92.7619104,111.073194 93.9929552,108.639761 94.0025075,105.196179 L94.1350448,58.4797612 C94.1553433,51.5340896 89.2287761,43.0027463 83.184597,39.512597" id="Fill-4" fill="#FEFEFE"></path>
                    <path d="M83.184597,39.512597 L18.3248955,2.06662687 C15.2837015,0.310208955 12.5159403,0.153791045 10.5159403,1.31677612 L3.94280597,5.13647761 C5.944,3.97349254 8.71056716,4.12991045 11.7517612,5.88632836 L76.6114627,43.3322985 C82.6556418,46.8224478 87.582209,55.3549851 87.5619104,62.2994627 L87.4293731,109.015881 C87.4198209,112.459463 86.1899701,114.892896 84.2114627,116.042746 L90.785791,112.223045 C92.7619104,111.073194 93.9929552,108.639761 94.0025075,105.196179 L94.1350448,58.4797612 C94.1553433,51.5340896 89.2287761,43.0027463 83.184597,39.512597 Z" id="Stroke-6" stroke="#F4BB3C" stroke-linecap="round" stroke-linejoin="round"></path>
                    <path d="M76.6115821,43.3325373 C82.6557612,46.8226866 87.5823284,55.3540299 87.5620299,62.2997015 L87.4294925,109.016119 C87.409194,115.943881 82.4515821,118.784478 76.407403,115.296716 L52.1877015,101.313433 C52.0229254,101.441194 51.768597,101.534328 51.4259104,101.574925 L20.5065075,104.815522 C20.0205373,104.864478 19.609791,104.784478 19.289791,104.599403 C18.5769552,104.187463 18.3214328,103.263284 18.726209,102.125373 L24.646209,85.4125373 L11.5477015,77.8495522 C5.50352239,74.359403 0.576955224,65.8101493 0.597253731,58.8823881 L0.729791045,12.1671642 C0.750089552,5.22268657 5.70770149,2.39641791 11.7518806,5.88656716 L76.6115821,43.3325373 Z" id="Fill-8" fill="#FEFEFE"></path>
                    <path d="M76.6115821,43.3325373 C82.6557612,46.8226866 87.5823284,55.3540299 87.5620299,62.2997015 L87.4294925,109.016119 C87.409194,115.943881 82.4515821,118.784478 76.407403,115.296716 L52.1877015,101.313433 C52.0229254,101.441194 51.768597,101.534328 51.4259104,101.574925 L20.5065075,104.815522 C20.0205373,104.864478 19.609791,104.784478 19.289791,104.599403 C18.5769552,104.187463 18.3214328,103.263284 18.726209,102.125373 L24.646209,85.4125373 L11.5477015,77.8495522 C5.50352239,74.359403 0.576955224,65.8101493 0.597253731,58.8823881 L0.729791045,12.1671642 C0.750089552,5.22268657 5.70770149,2.39641791 11.7518806,5.88656716 L76.6115821,43.3325373 Z" id="Stroke-10" stroke="#F4BB3C" stroke-linecap="round" stroke-linejoin="round"></path>
                    <path d="M109.147821,103.506269 L115.720955,99.6865672 C115.915582,100.488955 115.889313,100.958209 115.68394,101.077612 L109.110806,104.897313 C109.314985,104.77791 109.342448,104.308657 109.147821,103.506269" id="Fill-12" fill="#FEFEFE"></path>
                    <path d="M109.147821,103.506269 L115.720955,99.6865672 C115.915582,100.488955 115.889313,100.958209 115.68394,101.077612 L109.110806,104.897313 C109.314985,104.77791 109.342448,104.308657 109.147821,103.506269 Z" id="Stroke-14" stroke="#F4BB3C" stroke-linecap="round" stroke-linejoin="round"></path>
                    <path d="M71.2431045,37.5466269 L77.8162388,33.7269254 C76.8896716,34.2654328 76.3141493,35.4128955 76.3093731,37.0463284 C76.2998209,40.313194 78.6007164,44.2964776 81.4437015,45.9382687 L74.8705672,49.7591642 C72.0263881,48.1173731 69.7266866,44.1340896 69.7362388,40.8660299 C69.7410149,39.232597 70.3165373,38.0851343 71.2431045,37.5466269" id="Fill-16" fill="#FEFEFE"></path>
                    <path d="M71.2431045,37.5466269 L77.8162388,33.7269254 C76.8896716,34.2654328 76.3141493,35.4128955 76.3093731,37.0463284 C76.2998209,40.313194 78.6007164,44.2964776 81.4437015,45.9382687 L74.8705672,49.7591642 C72.0263881,48.1173731 69.7266866,44.1340896 69.7362388,40.8660299 C69.7410149,39.232597 70.3165373,38.0851343 71.2431045,37.5466269 Z" id="Stroke-18" stroke="#F4BB3C" stroke-linecap="round" stroke-linejoin="round"></path>
                    <path d="M71.2431045,37.5466269 L77.8162388,33.7269254 C78.7535522,33.1824478 80.0490746,33.2588657 81.4771343,34.0851343 L74.904,37.9048358 C73.4747463,37.0785672 72.1792239,37.0021493 71.2431045,37.5466269" id="Fill-20" fill="#FEFEFE"></path>
                    <path d="M71.2431045,37.5466269 L77.8162388,33.7269254 C78.7535522,33.1824478 80.0490746,33.2588657 81.4771343,34.0851343 L74.904,37.9048358 C73.4747463,37.0785672 72.1792239,37.0021493 71.2431045,37.5466269 Z" id="Stroke-22" stroke="#F4BB3C" stroke-linecap="round" stroke-linejoin="round"></path>
                    <path d="M74.9044776,37.904597 L81.4776119,34.0848955 C84.321791,35.7254925 86.6346269,39.7183284 86.6250746,43.0031045 C86.6214925,44.6210149 86.0471642,45.7601194 85.1241791,46.2962388 L78.5510448,50.1171343 C79.4740299,49.5786269 80.0495522,48.4407164 80.0531343,46.822806 C80.0614925,43.5380299 77.7474627,39.545194 74.9044776,37.904597" id="Fill-24" fill="#FEFEFE"></path>
                    <path d="M74.9044776,37.904597 L81.4776119,34.0848955 C84.321791,35.7254925 86.6346269,39.7183284 86.6250746,43.0031045 C86.6214925,44.6210149 86.0471642,45.7601194 85.1241791,46.2962388 L78.5510448,50.1171343 C79.4740299,49.5786269 80.0495522,48.4407164 80.0531343,46.822806 C80.0614925,43.5380299 77.7474627,39.545194 74.9044776,37.904597 Z" id="Stroke-26" stroke="#F4BB3C" stroke-linecap="round" stroke-linejoin="round"></path>
                </g>
                <polygon id="Fill-29" fill="#FEFEFE" points="104.871881 86.2435821 111.446209 82.4250746 115.720836 99.7122388 109.147701 103.53194"></polygon>
                <polygon id="Stroke-30" stroke="#F4BB3C" stroke-linecap="round" stroke-linejoin="round" points="104.871881 86.2435821 111.446209 82.4250746 115.720836 99.7122388 109.147701 103.53194"></polygon>
                <g id="Group-75" transform="translate(58.507463, 5.996418)">
                    <path d="M28.5601194,40.7124776 L35.1332537,36.8927761 C34.2066866,37.4312836 33.6311642,38.5787463 33.6263881,40.2121791 C33.6168358,43.4790448 35.9177313,47.4623284 38.7607164,49.1041194 L32.1875821,52.9250149 C29.343403,51.2832239 27.0437015,47.2999403 27.0532537,44.0318806 C27.0580299,42.3984478 27.6335522,41.2509851 28.5601194,40.7124776" id="Fill-31" fill="#FEFEFE"></path>
                    <path d="M28.5601194,40.7124776 L35.1332537,36.8927761 C34.2066866,37.4312836 33.6311642,38.5787463 33.6263881,40.2121791 C33.6168358,43.4790448 35.9177313,47.4623284 38.7607164,49.1041194 L32.1875821,52.9250149 C29.343403,51.2832239 27.0437015,47.2999403 27.0532537,44.0318806 C27.0580299,42.3984478 27.6335522,41.2509851 28.5601194,40.7124776 Z" id="Stroke-33" stroke="#F4BB3C" stroke-linecap="round" stroke-linejoin="round"></path>
                    <path d="M28.5601194,40.7124776 L35.1332537,36.8927761 C36.0693731,36.3482985 37.3648955,36.4247164 38.7941493,37.2509851 L32.2210149,41.0706866 C30.7917612,40.2444179 29.4962388,40.168 28.5601194,40.7124776" id="Fill-35" fill="#FEFEFE"></path>
                    <path d="M28.5601194,40.7124776 L35.1332537,36.8927761 C36.0693731,36.3482985 37.3648955,36.4247164 38.7941493,37.2509851 L32.2210149,41.0706866 C30.7917612,40.2444179 29.4962388,40.168 28.5601194,40.7124776 Z" id="Stroke-37" stroke="#F4BB3C" stroke-linecap="round" stroke-linejoin="round"></path>
                    <path d="M32.2214925,41.0704478 L38.7946269,37.2507463 C41.6376119,38.8925373 43.9373134,42.8758209 43.9277612,46.159403 C43.9241791,47.7820896 43.3498507,48.9247761 42.4256716,49.4620896 L35.8525373,53.2829851 C36.7767164,52.7444776 37.3498507,51.601791 37.3546269,49.9791045 C37.3641791,46.6955224 35.0644776,42.7122388 32.2214925,41.0704478" id="Fill-39" fill="#FEFEFE"></path>
                    <path d="M32.2214925,41.0704478 L38.7946269,37.2507463 C41.6376119,38.8925373 43.9373134,42.8758209 43.9277612,46.159403 C43.9241791,47.7820896 43.3498507,48.9247761 42.4256716,49.4620896 L35.8525373,53.2829851 C36.7767164,52.7444776 37.3498507,51.601791 37.3546269,49.9791045 C37.3641791,46.6955224 35.0644776,42.7122388 32.2214925,41.0704478 Z" id="Stroke-41" stroke="#F4BB3C" stroke-linecap="round" stroke-linejoin="round"></path>
                    <path d="M32.2214925,41.0704478 C35.0644776,42.7122388 37.3641791,46.6955224 37.3546269,49.9791045 C37.3450746,53.2459701 35.0310448,54.5665672 32.1880597,52.9247761 C29.3450746,51.2829851 27.0441791,47.2997015 27.0537313,44.0316418 C27.0632836,40.7468657 29.3773134,39.4286567 32.2214925,41.0704478" id="Fill-43" fill="#FEFEFE"></path>
                    <path d="M32.2214925,41.0704478 C35.0644776,42.7122388 37.3641791,46.6955224 37.3546269,49.9791045 C37.3450746,53.2459701 35.0310448,54.5665672 32.1880597,52.9247761 C29.3450746,51.2829851 27.0441791,47.2997015 27.0537313,44.0316418 C27.0632836,40.7468657 29.3773134,39.4286567 32.2214925,41.0704478 Z" id="Stroke-45" stroke="#F4BB3C" stroke-linecap="round" stroke-linejoin="round"></path>
                    <path d="M44.3844776,49.8483582 L50.9576119,46.0286567 C50.0310448,46.5671642 49.4555224,47.7146269 49.4507463,49.3480597 C49.441194,52.6149254 51.7408955,56.598209 54.5850746,58.24 L48.0119403,62.0608955 C45.1677612,60.4191045 42.8680597,56.4358209 42.8776119,53.1677612 C42.8823881,51.5343284 43.4579104,50.3868657 44.3844776,49.8483582" id="Fill-47" fill="#FEFEFE"></path>
                    <path d="M44.3844776,49.8483582 L50.9576119,46.0286567 C50.0310448,46.5671642 49.4555224,47.7146269 49.4507463,49.3480597 C49.441194,52.6149254 51.7408955,56.598209 54.5850746,58.24 L48.0119403,62.0608955 C45.1677612,60.4191045 42.8680597,56.4358209 42.8776119,53.1677612 C42.8823881,51.5343284 43.4579104,50.3868657 44.3844776,49.8483582 Z" id="Stroke-49" stroke="#F4BB3C" stroke-linecap="round" stroke-linejoin="round"></path>
                    <path d="M44.3844776,49.8483582 L50.9576119,46.0286567 C51.8937313,45.4841791 53.1892537,45.560597 54.6185075,46.3868657 L48.0441791,50.2065672 C46.6161194,49.3802985 45.320597,49.3038806 44.3844776,49.8483582" id="Fill-51" fill="#FEFEFE"></path>
                    <path d="M44.3844776,49.8483582 L50.9576119,46.0286567 C51.8937313,45.4841791 53.1892537,45.560597 54.6185075,46.3868657 L48.0441791,50.2065672 C46.6161194,49.3802985 45.320597,49.3038806 44.3844776,49.8483582 Z" id="Stroke-53" stroke="#F4BB3C" stroke-linecap="round" stroke-linejoin="round"></path>
                    <path d="M48.0446567,50.2064478 L54.6189851,46.3867463 C57.4619701,48.0285373 59.7616716,52.0118209 59.7533134,55.296597 C59.7473433,56.9192836 59.1730149,58.0607761 58.2500299,58.5980896 L51.6757015,62.4189851 C52.5998806,61.8804776 53.174209,60.7389851 53.1789851,59.1162985 C53.1885373,55.8315224 50.8888358,51.8482388 48.0446567,50.2064478" id="Fill-55" fill="#FEFEFE"></path>
                    <path d="M48.0446567,50.2064478 L54.6189851,46.3867463 C57.4619701,48.0285373 59.7616716,52.0118209 59.7533134,55.296597 C59.7473433,56.9192836 59.1730149,58.0607761 58.2500299,58.5980896 L51.6757015,62.4189851 C52.5998806,61.8804776 53.174209,60.7389851 53.1789851,59.1162985 C53.1885373,55.8315224 50.8888358,51.8482388 48.0446567,50.2064478 Z" id="Stroke-57" stroke="#F4BB3C" stroke-linecap="round" stroke-linejoin="round"></path>
                    <path d="M48.0446567,50.2064478 C50.8888358,51.8482388 53.1885373,55.8315224 53.1789851,59.1162985 C53.1694328,62.3831642 50.855403,63.7025672 48.0124179,62.0607761 C45.1682388,60.4189851 42.8685373,56.4357015 42.8780896,53.1676418 C42.8876418,49.8828657 45.2016716,48.5646567 48.0446567,50.2064478" id="Fill-59" fill="#FEFEFE"></path>
                    <path d="M48.0446567,50.2064478 C50.8888358,51.8482388 53.1885373,55.8315224 53.1789851,59.1162985 C53.1694328,62.3831642 50.855403,63.7025672 48.0124179,62.0607761 C45.1682388,60.4189851 42.8685373,56.4357015 42.8780896,53.1676418 C42.8876418,49.8828657 45.2016716,48.5646567 48.0446567,50.2064478 Z" id="Stroke-61" stroke="#F4BB3C" stroke-linecap="round" stroke-linejoin="round"></path>
                    <path d="M48.0120597,62.0604179 C50.8550448,63.702209 53.1690746,62.382806 53.1786269,59.1159403 C53.1881791,55.8311642 50.8884776,51.8478806 48.0442985,50.2060896 C45.2013134,48.5642985 42.8872836,49.8837015 42.8777313,53.1684776 C42.8681791,56.4353433 45.1678806,60.4186269 48.0120597,62.0604179 L48.0120597,62.0604179 Z M32.1875821,52.9248955 C35.0305672,54.5666866 37.344597,53.2460896 37.3541493,49.9792239 C37.3637015,46.6956418 35.064,42.7123582 32.2210149,41.0705672 C29.3780299,39.4287761 27.062806,40.7469851 27.0532537,44.0317612 C27.0437015,47.2998209 29.343403,51.2831045 32.1875821,52.9248955 L32.1875821,52.9248955 Z M16.3631045,43.7881791 C19.2072836,45.4287761 21.5356418,44.1201194 21.545194,40.8520597 C21.5547463,37.5672836 19.2395224,33.5756418 16.3965373,31.9350448 C13.5535522,30.2932537 11.2383284,31.6114627 11.2287761,34.8962388 C11.2204179,38.1631045 13.5189254,42.1463881 16.3631045,43.7881791 L16.3631045,43.7881791 Z M56.145791,32.8317612 C60.5971343,35.4025075 64.2329552,41.6819104 64.2174328,46.7971343 L64.1207164,81.1792239 C64.1063881,86.2932537 60.4466866,88.3780299 55.9965373,85.8084776 L46.3642985,80.2466866 L50.6401194,97.5362388 C50.9242985,98.705194 50.7356418,99.1684776 50.2162388,98.8687761 C49.982209,98.7338507 49.6801194,98.4448955 49.3266866,97.9947463 L26.6389254,69.3726567 C26.3869851,69.0550448 26.223403,68.7899701 26.0896716,68.542806 L8.27116418,58.2538507 C3.81862687,55.6842985 0.184,49.3881791 0.198328358,44.2729552 L0.296238806,9.89086567 C0.310567164,4.77564179 3.96907463,2.70877612 8.42041791,5.27713433 L56.145791,32.8317612 Z" id="Fill-63" fill="#FEFEFE"></path>
                    <path d="M48.0120597,62.0604179 C50.8550448,63.702209 53.1690746,62.382806 53.1786269,59.1159403 C53.1881791,55.8311642 50.8884776,51.8478806 48.0442985,50.2060896 C45.2013134,48.5642985 42.8872836,49.8837015 42.8777313,53.1684776 C42.8681791,56.4353433 45.1678806,60.4186269 48.0120597,62.0604179 Z M32.1875821,52.9248955 C35.0305672,54.5666866 37.344597,53.2460896 37.3541493,49.9792239 C37.3637015,46.6956418 35.064,42.7123582 32.2210149,41.0705672 C29.3780299,39.4287761 27.062806,40.7469851 27.0532537,44.0317612 C27.0437015,47.2998209 29.343403,51.2831045 32.1875821,52.9248955 Z M16.3631045,43.7881791 C19.2072836,45.4287761 21.5356418,44.1201194 21.545194,40.8520597 C21.5547463,37.5672836 19.2395224,33.5756418 16.3965373,31.9350448 C13.5535522,30.2932537 11.2383284,31.6114627 11.2287761,34.8962388 C11.2204179,38.1631045 13.5189254,42.1463881 16.3631045,43.7881791 Z M56.145791,32.8317612 C60.5971343,35.4025075 64.2329552,41.6819104 64.2174328,46.7971343 L64.1207164,81.1792239 C64.1063881,86.2932537 60.4466866,88.3780299 55.9965373,85.8084776 L46.3642985,80.2466866 L50.6401194,97.5362388 C50.9242985,98.705194 50.7356418,99.1684776 50.2162388,98.8687761 C49.982209,98.7338507 49.6801194,98.4448955 49.3266866,97.9947463 L26.6389254,69.3726567 C26.3869851,69.0550448 26.223403,68.7899701 26.0896716,68.542806 L8.27116418,58.2538507 C3.81862687,55.6842985 0.184,49.3881791 0.198328358,44.2729552 L0.296238806,9.89086567 C0.310567164,4.77564179 3.96907463,2.70877612 8.42041791,5.27713433 L56.145791,32.8317612 Z" id="Stroke-65" stroke="#F4BB3C" stroke-linecap="round" stroke-linejoin="round"></path>
                    <path d="M16.3970149,31.9344478 C19.24,33.5750448 21.5540299,37.5678806 21.5456716,40.8526567 C21.5361194,44.1195224 19.2077612,45.4305672 16.3635821,43.7887761 C13.519403,42.1469851 11.2197015,38.1637015 11.2292537,34.8956418 C11.238806,31.6108657 13.5528358,30.2926567 16.3970149,31.9344478" id="Fill-67" fill="#FEFEFE"></path>
                    <path d="M16.3970149,31.9344478 C19.24,33.5750448 21.5540299,37.5678806 21.5456716,40.8526567 C21.5361194,44.1195224 19.2077612,45.4305672 16.3635821,43.7887761 C13.519403,42.1469851 11.2197015,38.1637015 11.2292537,34.8956418 C11.238806,31.6108657 13.5528358,30.2926567 16.3970149,31.9344478 Z" id="Stroke-69" stroke="#F4BB3C" stroke-linecap="round" stroke-linejoin="round"></path>
                    <path d="M62.719403,29.0124179 L14.9928358,1.45898507 C12.7492537,0.163462687 10.7074627,0.0452537313 9.23164179,0.903761194 L2.65850746,4.72346269 C4.13552239,3.86495522 6.17731343,3.98316418 8.41970149,5.27749254 L56.1462687,32.8321194 C60.5976119,35.4028657 64.2334328,41.6810746 64.2179104,46.7974925 L64.121194,81.1783881 C64.1140299,83.7192836 63.2065672,85.5127164 61.7498507,86.3580896 L68.3229851,82.5383881 C69.7797015,81.6918209 70.6871642,79.8995821 70.6943284,77.3586866 L70.7922388,42.976597 C70.8053731,37.8613731 67.1707463,31.5819701 62.719403,29.0124179" id="Fill-71" fill="#FEFEFE"></path>
                    <path d="M62.719403,29.0124179 L14.9928358,1.45898507 C12.7492537,0.163462687 10.7074627,0.0452537313 9.23164179,0.903761194 L2.65850746,4.72346269 C4.13552239,3.86495522 6.17731343,3.98316418 8.41970149,5.27749254 L56.1462687,32.8321194 C60.5976119,35.4028657 64.2334328,41.6810746 64.2179104,46.7974925 L64.121194,81.1783881 C64.1140299,83.7192836 63.2065672,85.5127164 61.7498507,86.3580896 L68.3229851,82.5383881 C69.7797015,81.6918209 70.6871642,79.8995821 70.6943284,77.3586866 L70.7922388,42.976597 C70.8053731,37.8613731 67.1707463,31.5819701 62.719403,29.0124179 Z" id="Stroke-73" stroke="#F4BB3C" stroke-linecap="round" stroke-linejoin="round"></path>
                </g>
            </g>
        </g>
    </g>
</svg>