<?xml version="1.0" encoding="UTF-8"?>
<svg width="198px" height="213px" viewBox="0 0 198 213" version="1.1" xmlns="http://www.w3.org/2000/svg" xmlns:xlink="http://www.w3.org/1999/xlink">
    <!-- Generator: Sketch 53.2 (72643) - https://sketchapp.com -->
    <title>Group 23</title>
    <desc>Created with Sketch.</desc>
    <g id="Page-1" stroke="none" stroke-width="1" fill="none" fill-rule="evenodd">
        <g id="Step-3" transform="translate(-413.000000, -278.000000)">
            <g id="Group-23" transform="translate(412.000000, 278.000000)">
                <g id="Group-5" transform="translate(59.740260, 2.208571)">
                    <polygon id="Fill-1" fill="#F4D189" opacity="0.299004836" points="98.9168831 99.6966234 24.6753247 193.636883 1.94805195 133.462857 137.446753 0.345974026"></polygon>
                    <polygon id="Stroke-3" stroke="#F4D189" points="98.9168831 99.6966234 24.6753247 193.636883 1.94805195 133.462857 137.446753 0.345974026"></polygon>
                </g>
                <polygon id="Fill-6" fill="#FEFEFE" points="1.29974026 114.243377 61.6893506 135.669351 198.05039 1.25376623"></polygon>
                <polygon id="Stroke-7" stroke="#F4BB3C" stroke-linecap="round" stroke-linejoin="round" points="198.051948 1.25584416 1.2987013 114.242857 61.6883117 135.671429"></polygon>
                <polygon id="Fill-9" fill="#FEFEFE" points="198.051948 1.25584416 167.532468 175.931169 95.4545455 145.411688"></polygon>
                <polygon id="Stroke-10" stroke="#F4BB3C" stroke-linecap="round" stroke-linejoin="round" points="198.051948 1.25584416 167.532468 175.931169 95.4545455 145.411688"></polygon>
                <polygon id="Fill-12" fill="#FEFEFE" points="115.909091 154.177922 83.7662338 196.71039 61.6883117 135.671429 83.7662338 196.71039 95.4545455 145.411688"></polygon>
                <polygon id="Stroke-13" stroke="#F4BB3C" stroke-linecap="round" stroke-linejoin="round" points="115.909091 154.177922 83.7662338 196.71039 61.6883117 135.671429 83.7662338 196.71039 95.4545455 145.411688"></polygon>
                <g id="Group-22" transform="translate(0.000000, 189.221558)" stroke="#F3AC27" stroke-linecap="round" stroke-width="0.746">
                    <path d="M2.67090909,1.88181818 C3.0812987,2.38571429 3.49688312,2.87922078 3.92025974,3.36493506" id="Stroke-14"></path>
                    <path d="M6.40467532,6.02519481 C9.45662338,9.09272727 12.7942857,11.7394805 16.3423377,13.9550649" id="Stroke-16" stroke-dasharray="1.4,1.4,1.4,1.4"></path>
                    <path d="M17.9002597,14.8942857 C36.347013,25.5955844 59.9444156,25.0319481 78.1002597,12.1306494" id="Stroke-18" stroke-dasharray="1.4,1.4,1.4,1.4,1.4,1.4"></path>
                    <path d="M79.5709091,11.0488312 C80.0825974,10.6592208 80.5916883,10.2592208 81.0955844,9.84883117" id="Stroke-20"></path>
                </g>
            </g>
        </g>
    </g>
</svg>