<svg xmlns="http://www.w3.org/2000/svg" viewBox="0 0 35 35" width="64" height="64">
	<style>
		tspan { white-space:pre }
		.shp0 { fill: #000000 } 
		.shp1 { fill: #ffffff } 
	</style>
	<path id="Layer" fill-rule="evenodd" class="shp0" d="M21 34.7L34.9 15.2C33.7 6.6 26.4 0 17.5 0C7.8 0 0 7.8 0 17.5C0 27.2 7.8 35 17.5 35C18.7 35 19.8 34.9 21 34.7Z" />
	<path id="Layer" fill-rule="evenodd" class="shp1" d="M29 12.6L20.2 24.8C19.1 26.5 16.4 27.8 13.9 27.8C9.5 27.8 6.6 25.7 6.6 22.5C6.6 18.5 11 16.4 19.6 16.2L20 16.2L20 12.4C20 11.6 20 10.2 18.3 10.2C16.8 10.2 16.7 11.2 16.7 11.5C16.7 11.8 16.7 12 16.8 12.2C16.9 12.4 16.9 12.6 16.9 12.8C16.9 14.1 15.3 15 12.8 15C10.1 15 8.5 13.7 8.5 11.4C8.5 8.7 12 6 18.5 6C25.6 6 29 9.4 29 12.6ZM20 21.4L20 18.5L19.6 18.5C16.9 18.7 15.9 20.2 15.9 21.5C15.9 22.7 16.7 23.4 17.9 23.4C19.1 23.4 20 22.5 20 21.4Z" />
</svg>