<svg xmlns="http://www.w3.org/2000/svg" viewBox="0 0 260 260" width="64" height="64">
	<defs>
		<clipPath clipPathUnits="userSpaceOnUse" id="cp1">
			<path d="M5.05 32.39L140.31 32.39L140.31 75.62L5.05 75.62L5.05 32.39Z" />
		</clipPath>
		<clipPath clipPathUnits="userSpaceOnUse" id="cp2">
			<path d="M5.05 32.39L140.31 32.39L140.31 75.62L5.05 75.62L5.05 32.39Z" />
		</clipPath>
	</defs>
	<style>
		tspan { white-space:pre }
		.shp0 { fill: #4804ff } 
	</style>
	<g id="Group-9">
		<g id="Group-5">
			<path id="path-1" fill-rule="evenodd" class="shp0" d="M173.69 139.86C173.69 138.17 173.41 137.05 172.29 135.92C171.17 134.8 169.48 133.96 166.67 132.83L158.25 129.74C150.94 126.94 147.29 122.16 147.29 115.7C147.29 111.49 148.98 107.84 152.35 105.31C155.72 102.78 160.21 101.38 165.55 101.38C169.76 101.38 173.97 102.22 178.19 103.63C179.03 103.91 179.59 104.19 179.87 104.75C180.15 105.31 180.43 105.87 180.43 106.72L180.43 109.52C180.43 110.65 179.87 111.21 179.03 111.21C178.75 111.21 177.91 110.93 176.78 110.65C173.41 109.52 169.76 108.96 166.11 108.96C159.65 108.96 156.56 111.21 156.56 115.42C156.56 117.39 157.12 118.51 158.25 119.63C159.09 120.76 161.34 121.88 164.42 123L172.29 126.09C176.22 127.5 179.03 129.46 180.72 131.43C182.4 133.68 183.24 136.2 183.24 139.57C183.24 144.35 181.56 148 177.91 150.81C174.26 153.62 169.76 155.02 163.86 155.02C158.25 155.02 153.19 154.18 148.7 152.21C147.86 151.93 147.29 151.37 147.01 151.09C146.73 150.53 146.45 149.97 146.45 149.12L146.45 146.31C146.45 145.19 146.73 144.63 147.57 144.63C148.14 144.63 148.98 144.91 150.1 145.19C154.6 146.6 159.09 147.16 163.86 147.16C166.95 147.16 169.48 146.31 171.17 145.19C172.85 144.07 173.69 142.1 173.69 139.86ZM202.62 87.9C202.62 89.58 202.06 90.99 200.94 92.11C199.81 93.23 198.41 93.8 196.44 93.8C194.48 93.8 193.07 93.23 191.95 92.11C190.82 91.27 190.26 89.58 190.26 87.9C190.26 86.21 190.82 84.81 191.95 83.68C193.07 82.56 194.48 82 196.44 82C198.41 82 200.09 82.56 201.22 83.68C202.34 84.53 202.62 86.21 202.62 87.9ZM201.5 104.75L201.5 151.37C201.5 152.77 200.94 153.34 199.53 153.34L193.63 153.34C192.23 153.34 191.67 152.77 191.67 151.37L191.67 104.75C191.67 103.34 192.23 102.78 193.63 102.78L199.53 102.78C200.94 102.78 201.5 103.63 201.5 104.75ZM222 127.5L222 128.9C222 134.8 223.12 139.29 225.65 142.1C228.18 144.91 232.11 146.31 237.45 146.31C240.26 146.31 243.34 145.75 246.43 144.91C247 144.63 247.56 144.63 247.84 144.63C248.68 144.63 249.24 145.19 249.24 146.6L249.24 149.4C249.24 150.25 249.24 151.09 248.96 151.37C248.68 151.93 248.12 152.21 247.28 152.49C244.19 153.9 240.25 154.46 236.04 154.46C228.18 154.46 222.28 152.21 218.07 147.72C213.86 143.22 211.89 136.77 211.89 128.34C211.89 119.92 214.14 113.18 218.35 108.68C222.84 103.91 228.74 101.66 236.6 101.66C239.97 101.66 243.62 102.5 247.28 103.34C247.84 103.63 248.4 104.19 248.68 104.47C248.96 104.75 249.24 105.59 249.24 106.43L249.24 109.24C249.24 110.65 248.68 111.21 247.84 111.21C247.28 111.21 247 111.21 246.15 110.93C243.62 110.08 240.82 109.8 238.01 109.8C232.39 109.8 228.46 111.21 225.93 114.02C223.4 116.83 222.28 121.32 222 127.5ZM71.75 151.37L71.75 119.07C71.75 115.7 70.9 113.46 69.78 111.77C68.66 110.08 66.69 109.24 63.88 109.24C59.11 109.24 54.33 110.65 49.28 113.74C49.28 114.02 49.28 150.81 49.28 151.37C49.28 152.77 48.72 153.34 47.31 153.34L41.41 153.34C40.01 153.34 39.45 152.77 39.45 151.37L39.45 119.07C39.45 115.7 38.61 113.46 37.48 111.77C36.36 110.08 34.39 109.24 31.58 109.24C26.53 109.24 21.75 110.93 16.98 113.74L16.98 151.65C16.98 153.06 16.42 153.62 15.01 153.62L9.12 153.62C7.71 153.62 7.15 153.06 7.15 151.65L7.15 105.03C7.15 103.63 7.71 103.06 9.12 103.06L13.61 103.06C14.17 103.06 14.73 103.06 15.01 103.34C15.58 103.63 15.86 103.91 15.86 104.75L16.42 107.84C22.6 103.63 28.78 101.38 34.95 101.38C41.13 101.38 45.35 103.63 47.59 108.4C54.05 103.63 60.79 101.38 67.25 101.38C72.03 101.38 75.4 102.78 77.92 105.31C80.45 107.84 81.57 111.49 81.57 116.26L81.57 151.37C81.57 152.77 81.01 153.34 79.61 153.34L73.71 153.34C72.31 153.34 71.75 152.77 71.75 151.37ZM127.07 104.75C127.07 103.63 127.63 102.78 129.32 102.78L135.22 102.78C136.62 102.78 137.18 103.34 137.18 104.75L137.18 151.09C137.18 152.49 136.62 153.06 135.22 153.06L131 153.06C130.16 153.06 129.6 153.06 129.32 152.77C128.76 152.49 128.48 152.21 128.48 151.37L127.92 148C121.74 152.49 115.28 154.74 108.82 154.74C104.04 154.74 100.39 153.34 97.86 150.81C95.34 148.28 94.21 144.35 94.21 139.57L94.21 104.75C94.21 103.34 94.77 102.78 96.18 102.78L102.08 102.78C103.48 102.78 104.04 103.34 104.04 104.75L104.04 136.48C104.04 140.14 104.61 142.66 106.01 144.35C107.41 146.03 109.66 146.88 112.75 146.88C117.52 146.88 122.3 145.19 127.07 142.1L127.07 104.75Z" />
			<path id="Path" fill-rule="evenodd" class="shp0" d="M171.17 145.19C169.48 146.31 166.95 147.16 163.86 147.16C159.09 147.16 154.6 146.6 150.1 145.19C148.98 144.91 148.14 144.63 147.57 144.63C146.73 144.63 146.45 145.19 146.45 146.31L146.45 149.12C146.45 149.97 146.73 150.53 147.01 151.09C147.29 151.37 147.86 151.93 148.7 152.21C153.19 154.18 158.25 155.02 163.86 155.02C169.76 155.02 174.26 153.62 177.91 150.81C181.56 148 183.24 144.35 183.24 139.57C183.24 136.2 182.4 133.68 180.72 131.43C179.03 129.46 176.22 127.5 172.29 126.09L164.42 123C161.34 121.88 159.09 120.76 158.25 119.63C157.12 118.51 156.56 117.39 156.56 115.42C156.56 111.21 159.65 108.96 166.11 108.96C169.76 108.96 173.41 109.52 176.78 110.65C177.91 110.93 178.75 111.21 179.03 111.21C179.87 111.21 180.43 110.65 180.43 109.52L180.43 106.72C180.43 105.87 180.15 105.31 179.87 104.75C179.59 104.19 179.03 103.91 178.19 103.63C173.97 102.22 169.76 101.38 165.55 101.38C160.21 101.38 155.72 102.78 152.35 105.31C148.98 107.84 147.29 111.49 147.29 115.7C147.29 122.16 150.94 126.94 158.25 129.74L166.67 132.83C169.48 133.96 171.17 134.8 172.29 135.92C173.41 137.05 173.69 138.17 173.69 139.86C173.69 142.1 172.85 144.07 171.17 145.19Z" />
			<path id="Path" fill-rule="evenodd" class="shp0" d="M201.22 83.68C200.09 82.56 198.41 82 196.44 82C194.48 82 193.07 82.56 191.95 83.68C190.82 84.81 190.26 86.21 190.26 87.9C190.26 89.58 190.82 91.27 191.95 92.11C193.07 93.23 194.48 93.8 196.44 93.8C198.41 93.8 199.81 93.23 200.94 92.11C202.06 90.99 202.62 89.58 202.62 87.9C202.62 86.21 202.34 84.53 201.22 83.68Z" />
			<path id="Path" fill-rule="evenodd" class="shp0" d="M199.53 102.78L193.63 102.78C192.23 102.78 191.67 103.34 191.67 104.75L191.67 151.37C191.67 152.77 192.23 153.34 193.63 153.34L199.53 153.34C200.94 153.34 201.5 152.77 201.5 151.37L201.5 104.75C201.5 103.63 200.94 102.78 199.53 102.78Z" />
			<path id="Path" fill-rule="evenodd" class="shp0" d="M225.93 114.02C228.46 111.21 232.39 109.8 238.01 109.8C240.82 109.8 243.62 110.08 246.15 110.93C247 111.21 247.28 111.21 247.84 111.21C248.68 111.21 249.24 110.65 249.24 109.24L249.24 106.43C249.24 105.59 248.96 104.75 248.68 104.47C248.4 104.19 247.84 103.63 247.28 103.34C243.62 102.5 239.97 101.66 236.6 101.66C228.74 101.66 222.84 103.91 218.35 108.68C214.14 113.18 211.89 119.92 211.89 128.34C211.89 136.77 213.86 143.22 218.07 147.72C222.28 152.21 228.18 154.46 236.04 154.46C240.25 154.46 244.19 153.9 247.28 152.49C248.12 152.21 248.68 151.93 248.96 151.37C249.24 151.09 249.24 150.25 249.24 149.4L249.24 146.6C249.24 145.19 248.68 144.63 247.84 144.63C247.56 144.63 247 144.63 246.43 144.91C243.34 145.75 240.26 146.31 237.45 146.31C232.11 146.31 228.18 144.91 225.65 142.1C223.12 139.29 222 134.8 222 128.9L222 127.5C222.28 121.32 223.4 116.83 225.93 114.02Z" />
			<path id="Path" fill-rule="evenodd" class="shp0" d="M73.71 153.34L79.61 153.34C81.01 153.34 81.57 152.77 81.57 151.37L81.57 116.26C81.57 111.49 80.45 107.84 77.92 105.31C75.4 102.78 72.03 101.38 67.25 101.38C60.79 101.38 54.05 103.63 47.59 108.4C45.35 103.63 41.13 101.38 34.95 101.38C28.78 101.38 22.6 103.63 16.42 107.84L15.86 104.75C15.86 103.91 15.58 103.63 15.01 103.34C14.73 103.06 14.17 103.06 13.61 103.06L9.12 103.06C7.71 103.06 7.15 103.63 7.15 105.03L7.15 151.65C7.15 153.06 7.71 153.62 9.12 153.62L15.01 153.62C16.42 153.62 16.98 153.06 16.98 151.65L16.98 113.74C21.75 110.93 26.53 109.24 31.58 109.24C34.39 109.24 36.36 110.08 37.48 111.77C38.61 113.46 39.45 115.7 39.45 119.07L39.45 151.37C39.45 152.77 40.01 153.34 41.41 153.34L47.31 153.34C48.72 153.34 49.28 152.77 49.28 151.37L49.28 115.14C49.28 114.58 49.28 114.02 49.28 113.74C54.33 110.65 59.11 109.24 63.88 109.24C66.69 109.24 68.66 110.08 69.78 111.77C70.9 113.46 71.75 115.7 71.75 119.07L71.75 151.37C71.75 152.77 72.31 153.34 73.71 153.34Z" />
			<path id="Path" fill-rule="evenodd" class="shp0" d="M127.07 104.75L127.07 142.1C122.3 145.19 117.52 146.88 112.75 146.88C109.66 146.88 107.41 146.03 106.01 144.35C104.61 142.66 104.04 140.14 104.04 136.48L104.04 104.75C104.04 103.34 103.48 102.78 102.08 102.78L96.18 102.78C94.77 102.78 94.21 103.34 94.21 104.75L94.21 139.57C94.21 144.35 95.34 148.28 97.86 150.81C100.39 153.34 104.04 154.74 108.82 154.74C115.28 154.74 121.74 152.49 127.92 148L128.48 151.37C128.48 152.21 128.76 152.49 129.32 152.77C129.6 153.06 130.16 153.06 131 153.06L135.22 153.06C136.62 153.06 137.18 152.49 137.18 151.09L137.18 104.75C137.18 103.34 136.62 102.78 135.22 102.78L129.32 102.78C127.63 102.78 127.07 103.63 127.07 104.75L127.07 104.75Z" />
			<path id="Path" fill-rule="evenodd" class="shp0" d="M238.57 217.09C253.17 204.73 257.11 179.17 254.02 175.24C252.61 173.56 245.87 171.87 237.45 171.87C228.46 171.87 217.79 173.84 209.64 179.45C207.12 181.14 207.68 183.39 210.2 183.11C218.91 181.98 238.57 179.74 242.22 184.23C245.59 188.72 238.29 207.26 234.92 215.4C234.08 217.93 236.04 218.77 238.57 217.09Z" />
			<path id="Path" fill-rule="evenodd" class="shp0" d="M226.77 190.69C196.16 203.61 162.74 210.07 132.41 210.07C87.47 210.07 43.94 197.71 8.84 177.21C8.27 176.93 7.71 176.65 7.15 176.65C5.18 176.65 4.06 178.89 6.03 180.86C38.61 210.35 81.86 228.04 129.6 228.04C163.86 228.04 203.46 217.37 230.71 197.15C235.48 193.78 231.55 188.72 226.77 190.69L226.77 190.69Z" />
		</g>
		<g id="Group-8">
			<path id="Fill-5" fill-rule="evenodd" class="shp0" d="M146.26 40.43L146.26 34.88C146.27 34.04 146.9 33.48 147.67 33.48L172.53 33.48C173.33 33.48 173.97 34.06 173.97 34.88L173.97 39.63C173.96 40.43 173.29 41.47 172.09 43.13L159.21 61.51C163.99 61.4 169.05 62.12 173.4 64.56C174.38 65.11 174.64 65.93 174.71 66.73L174.71 72.64C174.71 73.46 173.82 74.4 172.88 73.91C165.23 69.9 155.08 69.47 146.61 73.96C145.75 74.42 144.84 73.49 144.84 72.67L144.84 67.05C144.84 66.15 144.86 64.61 145.77 63.24L160.69 41.83L147.7 41.83C146.91 41.83 146.27 41.26 146.26 40.43Z" />
			<path id="Fill-6" fill-rule="evenodd" class="shp0" d="M55.57 75.08L48.01 75.08C47.29 75.03 46.71 74.49 46.65 73.8L46.66 34.98C46.66 34.2 47.31 33.58 48.12 33.58L55.16 33.58C55.9 33.62 56.49 34.18 56.54 34.88L56.54 39.95L56.68 39.95C58.52 35.05 61.98 32.76 66.64 32.76C71.37 32.76 74.33 35.05 76.45 39.95C78.29 35.05 82.45 32.76 86.9 32.76C90.08 32.76 93.54 34.07 95.65 37.01C98.05 40.28 97.56 45.02 97.56 49.18L97.56 73.68C97.56 74.46 96.9 75.08 96.1 75.08L88.54 75.08C87.78 75.03 87.18 74.43 87.18 73.68L87.18 53.1C87.18 51.47 87.32 47.39 86.97 45.83C86.41 43.22 84.71 42.48 82.52 42.48C80.69 42.48 78.78 43.71 78 45.67C77.23 47.63 77.3 50.9 77.3 53.1L77.3 73.68C77.3 74.46 76.64 75.08 75.84 75.08L68.28 75.08C67.52 75.03 66.93 74.43 66.93 73.68L66.92 53.1C66.92 48.77 67.62 42.4 62.26 42.4C56.82 42.4 57.03 48.61 57.03 53.1L57.03 73.68C57.03 74.46 56.38 75.08 55.57 75.08Z" />
			<path id="Fill-7" fill-rule="evenodd" class="shp0" d="M212.67 54.66C212.67 66.5 205.96 75.9 195.37 75.9C184.35 75.9 178.35 66.25 178.35 54.25C178.35 42.16 184.42 32.76 195.37 32.76C206.6 32.76 212.67 42.4 212.67 54.66ZM195.44 40.69C189.86 40.69 189.51 48.28 189.51 53.02C189.51 57.76 189.44 67.89 195.37 67.89C201.23 67.89 201.51 59.72 201.51 54.74C201.51 51.47 201.37 47.55 200.38 44.45C199.53 41.75 197.84 40.69 195.44 40.69Z" />
			<path id="Fill-8" fill-rule="evenodd" class="shp0" d="M227.23 75.08L219.69 75.08C218.93 75.03 218.33 74.43 218.33 73.68L218.32 34.85C218.38 34.14 219.01 33.58 219.77 33.58L226.79 33.58C227.45 33.62 227.99 34.06 228.13 34.67L228.13 40.6L228.28 40.6C230.39 35.29 233.36 32.76 238.58 32.76C241.97 32.76 245.29 33.99 247.41 37.34C249.39 40.44 249.39 45.67 249.39 49.43L249.39 73.86C249.3 74.54 248.68 75.08 247.94 75.08L240.35 75.08C239.65 75.03 239.09 74.52 239.01 73.86L239.01 52.78C239.01 48.53 239.5 42.32 234.28 42.32C232.44 42.32 230.75 43.55 229.9 45.42C228.84 47.79 228.7 50.16 228.7 52.78L228.7 73.68C228.69 74.46 228.03 75.08 227.23 75.08Z" />
			<g id="Group-12">
				<g id="Clip-10">
				</g>
				<g id="Clip-Path: Fill-9" clip-path="url(#cp1)">
					<path id="Fill-9" fill-rule="evenodd" class="shp0" d="M134.07 74.98C133.57 75.43 132.85 75.46 132.28 75.16C129.77 73.07 129.32 72.11 127.95 70.12C123.79 74.35 120.85 75.62 115.48 75.62C109.11 75.62 104.15 71.68 104.15 63.83C104.15 57.69 107.48 53.51 112.22 51.46C116.32 49.66 122.06 49.34 126.44 48.84L126.44 47.86C126.44 46.06 126.59 43.93 125.52 42.38C124.6 40.98 122.84 40.41 121.28 40.41C118.39 40.41 115.83 41.89 115.2 44.95C115.07 45.63 114.57 46.31 113.89 46.34L106.55 45.55C105.93 45.41 105.25 44.91 105.42 43.97C107.11 35.07 115.14 32.39 122.34 32.39C126.02 32.39 130.83 33.37 133.73 36.15C137.41 39.59 137.06 44.18 137.06 49.17L137.06 60.95C137.06 64.5 138.53 66.06 139.91 67.96C140.4 68.65 140.5 69.47 139.89 69.97C138.34 71.27 135.6 73.65 134.09 75L134.07 74.98ZM126.44 56.54L126.44 54.9C120.97 54.9 115.19 56.07 115.19 62.52C115.19 65.79 116.89 68 119.79 68C121.91 68 123.83 66.69 125.03 64.56C126.51 61.94 126.44 59.49 126.44 56.54Z" />
				</g>
				<g id="Clip-Path: Fill-11" clip-path="url(#cp2)">
					<path id="Fill-11" fill-rule="evenodd" class="shp0" d="M34.91 74.98C34.41 75.43 33.69 75.46 33.13 75.16C30.61 73.07 30.16 72.11 28.79 70.12C24.64 74.35 21.7 75.62 16.32 75.62C9.95 75.62 5 71.68 5 63.83C5 57.69 8.32 53.51 13.07 51.46C17.17 49.66 22.9 49.34 27.29 48.84L27.29 47.86C27.29 46.06 27.43 43.93 26.37 42.38C25.45 40.98 23.68 40.41 22.12 40.41C19.24 40.41 16.67 41.89 16.04 44.95C15.91 45.63 15.42 46.31 14.73 46.34L7.4 45.55C6.78 45.41 6.09 44.91 6.27 43.97C7.95 35.07 15.99 32.39 23.18 32.39C26.86 32.39 31.68 33.37 34.58 36.15C38.26 39.59 37.9 44.18 37.9 49.17L37.9 60.95C37.9 64.5 39.37 66.06 40.76 67.96C41.24 68.65 41.35 69.47 40.73 69.97C39.19 71.27 36.44 73.65 34.93 75L34.91 74.98ZM27.29 56.54L27.29 54.9C21.82 54.9 16.04 56.07 16.04 62.52C16.04 65.79 17.74 68 20.64 68C22.76 68 24.67 66.69 25.87 64.56C27.36 61.94 27.29 59.49 27.29 56.54Z" />
				</g>
			</g>
		</g>
	</g>
</svg>