<svg xmlns="http://www.w3.org/2000/svg" viewBox="0 0 174 174" width="64" height="64">
	<defs>
		<clipPath clipPathUnits="userSpaceOnUse" id="cp1">
			<path d="M0 173.33L173.2 173.33L173.2 0L0 0L0 173.33Z" />
		</clipPath>
		<clipPath clipPathUnits="userSpaceOnUse" id="cp2">
			<path d="M86.62 0C38.78 0 0 38.8 0 86.67C0 130.61 32.69 166.92 75.07 172.57L75.07 155.1C75.07 150.18 71.97 145.75 67.3 144.19C42.85 135.97 25.36 112.58 26 85.21C26.79 51.87 53.93 25.67 87.25 26C120.45 26.34 147.26 53.37 147.26 86.67C147.26 87.43 147.24 88.18 147.21 88.93C147.21 89.1 147.2 89.27 147.19 89.44C147.16 90.14 147.12 90.83 147.07 91.53C147.05 91.75 147.03 91.97 147.01 92.18C146.96 92.67 146.91 93.15 146.86 93.63C146.8 94.17 146.73 94.71 146.65 95.25C146.62 95.5 146.59 95.74 146.55 95.99C139.12 144.92 75.43 172.42 75.08 172.57C78.86 173.07 82.71 173.33 86.62 173.33C134.46 173.33 173.25 134.53 173.25 86.67C173.25 38.8 134.46 0 86.62 0" />
		</clipPath>
	</defs>
	<style>
		tspan { white-space:pre }
		.shp0 { fill: #5fcaf4 } 
	</style>
	<g id="g10">
		<g id="g12">
			<path id="path14" fill-rule="evenodd" class="shp0" d="M86.62 0C38.78 0 0 38.8 0 86.67C0 130.61 32.69 166.92 75.07 172.57L75.07 155.1C75.07 150.18 71.97 145.75 67.3 144.19C42.85 135.97 25.36 112.58 26 85.21C26.79 51.87 53.93 25.67 87.25 26C120.45 26.34 147.26 53.37 147.26 86.67C147.26 87.43 147.24 88.18 147.21 88.93C147.21 89.1 147.2 89.27 147.19 89.44C147.16 90.14 147.12 90.83 147.07 91.53C147.05 91.75 147.03 91.97 147.01 92.18C146.96 92.67 146.91 93.15 146.86 93.63C146.8 94.17 146.73 94.71 146.65 95.25C146.62 95.5 146.59 95.74 146.55 95.99C139.12 144.92 75.43 172.42 75.08 172.57C78.86 173.07 82.71 173.33 86.62 173.33C134.46 173.33 173.25 134.53 173.25 86.67C173.25 38.8 134.46 0 86.62 0" />
			<g id="g16">
				<g id="Clip-Path: g18" clip-path="url(#cp1)">
					<g id="g18">
						<g id="Clip-Path: g24" clip-path="url(#cp2)">
							<g id="g24">
								<path id="path30" class="shp0" d="M-13.15 186.49L186.4 186.49L186.4 -13.15L-13.15 -13.15L-13.15 186.49Z" />
							</g>
						</g>
					</g>
				</g>
			</g>
		</g>
	</g>
</svg>