<svg xmlns="http://www.w3.org/2000/svg" viewBox="0 0 128 128" width="64" height="64">
	<style>
		tspan { white-space:pre }
		.shp0 { fill: #1269ff } 
		.shp1 { fill: #5c9dff } 
		.shp2 { fill: #9ec6ff } 
		.shp3 { fill: #d1e3ff } 
		.shp4 { fill: #ffffff } 
		.shp5 { fill: #003dad } 
	</style>
	<path id="Wave_5" class="shp0" d="M52.79 91C56.87 103.49 63.43 114.85 71.91 124.5C87.79 122.44 101.76 114.28 111.37 102.44C103.53 104.51 95.3 105.61 86.81 105.61C80.02 105.61 73.39 104.89 67 103.55C60.33 102.19 54.93 97.34 52.79 91Z" />
	<path id="Wave_4" class="shp1" d="M64 125C66.68 125 69.32 124.83 71.91 124.49C63.43 114.84 56.87 103.48 52.79 90.99C52.15 89.08 51.8 87.04 51.8 84.92C51.8 80.15 53.56 75.8 56.46 72.46C45.36 84.87 37.44 100.17 33.98 117.1C42.83 122.13 53.08 125 64 125Z" />
	<path id="Wave_3" class="shp2" d="M4.69 78.33C8.69 94.94 19.48 108.9 33.97 117.11C37.44 100.16 45.37 84.83 56.49 72.42C59.97 68.44 65.09 65.93 70.79 65.93C72.06 65.93 73.29 66.05 74.49 66.29C68.13 64.96 61.54 64.25 54.78 64.25C36.43 64.24 19.28 69.39 4.69 78.33Z" />
	<path id="Wave_2" class="shp3" d="M74.5 66.28C68.14 64.95 61.55 64.24 54.79 64.24C36.43 64.24 19.28 69.39 4.69 78.33C3.59 73.74 3 68.94 3 64C3 44.98 11.71 27.99 25.35 16.8C55.26 25.83 78.99 49.11 88.74 78.71C88.83 78.97 88.92 79.23 89 79.5C88.92 79.24 88.83 78.97 88.74 78.71C86.55 72.42 81.14 67.59 74.5 66.28Z" />
	<path id="Wave_1" class="shp4" d="M121.99 53C121.99 26 99.5 3 63.99 3C49.33 3 35.87 8.18 25.35 16.8C55.53 25.92 79.42 49.5 88.99 79.49C89.55 81.24 90.06 83.11 90.52 84.91C107.86 84.53 121.99 70.43 121.99 53Z" />
	<path id="Layer" fill-rule="evenodd" class="shp5" d="M58.75 74.4C56.17 77.33 54.74 80.76 54.8 84.93C54.79 86.8 55.05 88.36 55.63 90.04C57.43 95.38 62 99.47 67.62 100.6C73.86 101.92 80.18 102.6 86.81 102.6C95.1 102.61 102.95 101.56 110.61 99.53L113.08 98.88L114.36 103.51L113.7 104.32C103.61 116.73 88.96 125.3 72.29 127.46C69.61 127.8 66.78 127.99 64 127.99C52.67 127.96 41.68 124.89 32.49 119.71C17.3 111.11 5.98 96.46 1.78 79.03C0.63 74.27 0.01 69.12 0 64C0 44.04 9.14 26.21 23.45 14.48C34.37 5.58 48.79 0.05 64 0C100.87 0 125 24.07 125 53C125 72.1 109.51 87.51 90.57 87.91L88.19 87.96L87.6 85.65C87.15 83.9 86.44 81.35 85.9 79.65C84.04 74.36 79.48 70.32 73.92 69.22C72.86 69.01 71.92 68.92 70.8 68.92C66 68.92 61.69 71.04 58.75 74.4ZM31.73 15.77C60.19 26.17 82.31 48.7 91.6 77.8C91.96 78.92 92.38 80.39 92.77 81.78C107.44 80.3 119 67.99 119 53C119 27.92 98.12 6 64 6C51.89 5.96 40.98 9.49 31.73 15.77ZM6.79 73.64C20.95 65.82 37.51 61.27 54.79 61.24C61.7 61.24 68.59 61.99 75.09 63.34C76.69 63.66 78.22 64.15 79.67 64.79C68.5 43.6 49.37 27.63 26.03 20.15C13.76 30.79 6 46.49 6 64C6 67.33 6.26 70.51 6.79 73.64ZM62.05 105.12C65.14 110.89 68.84 116.29 73.1 121.29C84.3 119.52 94.43 114.56 102.53 107.35C97.4 108.16 92.12 108.6 86.81 108.6C79.86 108.6 72.92 107.85 66.39 106.48C64.88 106.17 63.43 105.71 62.05 105.12ZM49.94 91.93C49.48 90.54 49.13 88.98 48.95 87.41C43.62 95.95 39.68 105.38 37.37 115.55C45.41 119.74 54.27 122.03 64 122C64.65 122 65.3 121.99 65.94 121.97C59.02 113.07 53.51 102.82 49.94 91.93ZM57.65 67.28C56.7 67.25 55.75 67.24 54.79 67.24C37.66 67.21 21.95 71.71 8.16 79.75C11.97 93.27 20.55 104.79 31.98 112.37C35.96 96.63 43.83 82.11 54.25 70.43C55.27 69.26 56.41 68.21 57.65 67.28Z" />
</svg>