<svg xmlns="http://www.w3.org/2000/svg" viewBox="0 0 64 64" width="64" height="64">
	<style>
		tspan { white-space:pre }
		.shp0 { fill: #f25c31 } 
		.shp1 { fill: #fefefe } 
	</style>
	<path id="Layer" fill-rule="evenodd" class="shp0" d="M4.3 32L4.3 18.61C4.29 16.57 5.15 15.11 6.9 14.07L29.24 0.84C31.1 -0.27 32.84 -0.28 34.71 0.83L57.14 14.11C58.86 15.12 59.71 16.61 59.71 18.58L59.71 45.37C59.71 47.34 58.89 48.84 57.17 49.86L34.67 63.19C32.87 64.25 31.16 64.29 29.36 63.21L6.92 49.94C5.13 48.88 4.27 47.39 4.29 45.31L4.3 32ZM37.71 31.82L37.7 25.68C37.69 24.52 37.01 23.78 35.98 23.7C34.77 23.6 33.9 24.37 33.87 25.6L33.85 29.63C33.84 30.5 33.27 30.95 32.48 30.78C31.83 30.64 31.66 30.18 31.67 29.58L31.67 24.24C31.68 23.48 31.47 22.84 30.8 22.43C29.43 21.59 27.84 22.45 27.8 24.09L27.79 28.42C27.78 29.21 27.42 29.59 26.74 29.62C26.04 29.64 25.59 29.22 25.55 28.42L25.54 26.92C25.5 26.09 25.08 25.52 24.31 25.26C23.01 24.8 21.75 25.67 21.73 27.07L21.71 30.9C21.7 31.59 21.29 31.97 20.66 31.99C20.01 32.01 19.6 31.66 19.51 30.98C19.48 30.78 19.51 30.57 19.48 30.38C19.36 29.38 18.53 28.62 17.58 28.64C16.62 28.65 15.71 29.41 15.69 30.38L15.69 36.43C15.72 37.43 16.62 38.17 17.58 38.17C18.55 38.17 19.35 37.44 19.48 36.43C19.51 36.2 19.42 35.91 19.53 35.74C19.75 35.4 20.02 34.98 20.36 34.87C20.66 34.78 21.17 34.97 21.41 35.21C21.63 35.42 21.7 35.87 21.71 36.21L21.73 42.16C21.75 43.61 23.24 44.5 24.52 43.85C25.25 43.48 25.55 42.88 25.54 42.04L25.54 34.18C25.54 32.96 25.9 32.41 26.7 32.43C27.46 32.44 27.8 32.95 27.8 34.12L27.8 37.65C27.83 38.87 28.59 39.65 29.71 39.67C30.86 39.68 31.65 38.87 31.67 37.6L31.68 34.88C31.7 34.06 32.11 33.6 32.78 33.62C33.46 33.63 33.86 34.08 33.87 34.9L33.88 38.03C33.92 39.16 34.74 39.93 35.83 39.91C36.94 39.89 37.7 39.1 37.71 37.87L37.71 31.82L37.71 31.82ZM43.79 33.96L43.79 30.54C43.78 29.37 43.05 28.61 41.96 28.57C40.82 28.52 39.96 29.18 39.95 30.34L39.96 37.58C39.99 38.71 40.92 39.45 41.97 39.39C43.07 39.32 43.77 38.55 43.79 37.38L43.79 33.96L43.79 33.96ZM46.03 34.91L46.04 35.81C46.09 36.85 46.79 37.56 47.81 37.62C48.89 37.68 49.74 37.02 49.84 35.97C49.86 35.8 49.87 35.62 49.88 35.45C49.89 35.27 49.89 35.09 49.89 34.92C49.89 34.74 49.89 34.57 49.88 34.39C49.87 34.22 49.86 34.04 49.84 33.87C49.74 32.83 48.84 32.12 47.82 32.18C46.83 32.24 46.09 32.99 46.03 34C46.02 34.3 46.03 34.61 46.03 34.91L46.03 34.91Z" />
	<path id="Layer" class="shp1" d="M37.71 31.83L37.7 37.88C37.69 39.11 36.94 39.9 35.82 39.91C34.73 39.93 33.92 39.16 33.87 38.03L33.86 34.91C33.85 34.09 33.45 33.63 32.77 33.62C32.1 33.61 31.69 34.06 31.67 34.89L31.66 37.61C31.64 38.87 30.85 39.69 29.7 39.68C28.58 39.67 27.82 38.88 27.79 37.66L27.8 34.13C27.8 32.95 27.47 32.44 26.7 32.43C25.9 32.42 25.54 32.97 25.54 34.19L25.55 42.05C25.55 42.88 25.25 43.49 24.52 43.86C23.24 44.5 21.75 43.61 21.73 42.16L21.71 36.22C21.7 35.87 21.64 35.43 21.41 35.21C21.17 34.97 20.66 34.79 20.36 34.88C20.02 34.98 19.75 35.41 19.53 35.75C19.43 35.92 19.51 36.21 19.48 36.44C19.35 37.44 18.55 38.18 17.58 38.18C16.63 38.18 15.72 37.42 15.69 36.43L15.69 30.39C15.72 29.41 16.62 28.65 17.58 28.64C18.53 28.63 19.36 29.39 19.48 30.38C19.51 30.58 19.48 30.79 19.51 30.98C19.61 31.66 20.01 32.02 20.66 32C21.29 31.98 21.7 31.6 21.72 30.9L21.73 27.07C21.76 25.67 23.01 24.81 24.31 25.27C25.08 25.54 25.51 26.09 25.54 26.93L25.55 28.43C25.59 29.22 26.03 29.64 26.74 29.63C27.42 29.6 27.78 29.22 27.79 28.43L27.8 24.09C27.85 22.45 29.43 21.59 30.8 22.43C31.47 22.85 31.68 23.49 31.67 24.24L31.67 29.58C31.67 30.18 31.84 30.64 32.48 30.79C33.27 30.96 33.84 30.51 33.85 29.64L33.87 25.61C33.9 24.37 34.78 23.61 35.98 23.71C37.01 23.79 37.69 24.53 37.7 25.68L37.71 31.83L37.71 31.83ZM43.79 33.97L43.79 37.39C43.77 38.56 43.06 39.33 41.97 39.39C40.91 39.45 39.99 38.72 39.96 37.59L39.95 30.35C39.97 29.19 40.82 28.53 41.96 28.57C43.06 28.62 43.77 29.38 43.79 30.54L43.79 33.97L43.79 33.97ZM46.03 34.92L46.04 34.02C46.09 33 46.84 32.26 47.82 32.2C48.85 32.13 49.74 32.84 49.84 33.88C49.91 34.57 49.91 35.28 49.85 35.98C49.74 37.04 48.89 37.69 47.81 37.63C46.8 37.58 46.09 36.86 46.04 35.83C46.02 35.53 46.04 35.22 46.04 34.92L46.03 34.92Z" />
</svg>