<svg xmlns="http://www.w3.org/2000/svg" viewBox="0 0 100 100" width="64" height="64">
	<style>
		tspan { white-space:pre }
		.shp0 { fill: #e10000 } 
		.shp1 { fill: #ffffff } 
	</style>
	<g id="Layer_3">
		<path id="Layer" class="shp0" d="M50 99C22.9 99 1 77.1 1 50C1 22.9 22.9 1 50 1C77.1 1 99 22.9 99 50C99 77.1 77.1 99 50 99Z" />
	</g>
	<g id="Layer_2">
	</g>
	<path id="Layer" fill-rule="evenodd" class="shp1" d="M100 50C100 77.6 77.6 100 50 100C22.4 100 0 77.6 0 50C0 22.4 22.4 0 50 0C77.6 0 100 22.4 100 50ZM96.3 50C96.3 24.4 75.6 3.7 50 3.7C24.4 3.7 3.7 24.4 3.7 50C3.7 75.6 24.4 96.3 50 96.3C75.6 96.3 96.3 75.6 96.3 50Z" />
	<g id="D__x26__Waves_2_">
		<g id="Layer">
			<path id="Large_Wave_7_" fill-rule="evenodd" class="shp1" d="M82.2 50.8C82.2 54.1 81.5 58.2 80.4 62.3C79.6 65.2 78.5 67.8 77.2 70.5C75.2 74.6 72.5 78.3 69.3 81.6C69.1 81.8 68.9 82 68.7 82.2C68.2 82.6 67.7 82.6 67.2 82.1C66.1 81 65 79.9 63.8 78.8C63.3 78.3 62.8 77.8 62.3 77.4C61.7 76.9 61.7 76.3 62.3 75.8C64.1 74 65.7 72 67.1 69.8C68.5 67.6 69.6 65.3 70.5 62.9C71.5 60.1 72.3 57.3 72.6 54.4C73.4 49.2 73 44 71.4 39C69.8 33.9 67.2 29.3 63.6 25.3C63.2 24.9 62.8 24.5 62.5 24.1C62.3 23.8 62.1 23.5 62.2 23.2C62.3 23 62.4 22.8 62.6 22.6C64.1 21.2 65.7 19.5 67.5 17.9C68.1 17.4 68.6 17.4 69.2 17.9C70.2 18.9 71.2 20 72.2 21.2C77 27.2 80 34 81.5 41.4C82 44.2 82.2 47 82.2 50.8Z" />
			<path id="Small_Wave_7_" fill-rule="evenodd" class="shp1" d="M63 50C63 54.5 61.9 58.9 59.9 63.1C58.6 65.9 56.8 68.5 54.6 70.7C54.5 70.8 54.5 70.8 54.4 70.9C53.9 71.4 53.4 71.4 52.9 70.9C51.2 69.3 49.6 67.7 47.9 66C47.5 65.6 47.4 65.1 47.8 64.6C48.4 63.9 49 63.2 49.6 62.5C51.8 59.4 53.1 56 53.6 52.3C54 49.4 53.8 46.6 52.9 43.8C52 40.6 50.3 37.8 48 35.3C47.4 34.7 47.5 34.2 48 33.6C49.6 32.1 51.2 30.5 52.8 29C52.9 28.9 53 28.8 53.1 28.8C53.6 28.5 54 28.5 54.4 28.9C55.2 29.6 55.9 30.5 56.5 31.3C59.2 34.7 60.9 38.6 62 42.7C62.7 45.1 63 47.5 63 50Z" />
			<path id="D_7_" fill-rule="evenodd" class="shp1" d="M42 56.6C40.4 60.8 37.2 63.4 32.7 64.4C31.3 64.7 29.9 65 28.3 65C24.9 65 23.1 65 19.7 65C19.2 65 19 64.8 19 64.4C19 60 19 54.7 19 50.2C19 45.7 19 41 19 36.5C19 35.8 19.2 35.6 19.8 35.6C23.4 35.6 25.6 35.6 29.2 35.6C31.7 35.6 34.2 36.1 36.4 37.4C39 38.9 40.9 41.1 42 43.9C42.7 45.5 43 47.2 43.1 48.9C43.3 51.5 43 54.1 42 56.6ZM24.7 57.7C24.7 58.3 25 58.5 25.7 58.5C26.6 58.5 27.6 58.5 28.6 58.5C29.6 58.5 30.6 58.3 31.6 57.9C33.3 57.2 34.4 55.9 35.1 54.2C36 51.8 36 48.9 35.3 46.4C34.4 43.4 32.2 41 29 41C27.7 41 26.8 41 25.6 41C25 41 24.7 41.1 24.7 41.7C24.7 44.2 24.7 55.2 24.7 57.7Z" />
		</g>
	</g>
</svg>