<svg xmlns="http://www.w3.org/2000/svg" viewBox="0 0 64 64" width="64" height="64">
	<style>
		tspan { white-space:pre }
		.shp0 { fill: #000000 } 
	</style>
	<g id="Layer">
		<path id="Layer" fill-rule="evenodd" class="shp0" d="M45.67 33.83C46.11 31.39 46.56 28.95 46.98 26.52C47.11 25.82 46.66 25.31 45.92 25.27C45.44 25.25 44.96 25.26 44.48 25.26C43.49 25.27 42.83 25.84 42.66 26.78C42.13 29.77 41.58 32.76 41.04 35.75C41.02 35.85 40.89 36.01 40.82 36.01C39.45 35.99 38.09 35.98 36.73 35.89C35.85 35.83 35.14 35.4 34.65 34.68C34.62 34.65 34.58 34.62 34.53 34.57C34.35 34.77 34.17 34.95 33.98 35.13C33.36 35.73 32.64 36.09 31.73 36.02C31.1 35.98 30.45 36.02 29.82 35.91C28.71 35.72 27.8 35.18 27.25 34.12C27.17 34.49 27.08 34.85 26.99 35.21C26.81 36.08 26.81 36.08 25.89 36.04C25.23 36.01 24.57 35.92 24 35.59C23.57 35.33 23.2 34.97 22.77 34.63C22.64 34.76 22.46 34.95 22.28 35.12C21.66 35.72 20.94 36.06 20.03 36.02C19.17 35.99 18.31 36.04 17.48 35.75C15.99 35.21 15.19 33.96 15.45 32.44C15.78 30.45 16.08 28.44 16.54 26.47C17.01 24.5 18.24 23.12 20.4 22.69C20.71 22.63 21.02 22.6 21.34 22.6C23.12 22.59 24.91 22.59 26.69 22.59C26.78 22.59 26.87 22.6 26.99 22.62C26.81 23.58 26.64 24.52 26.47 25.46C26.07 27.63 25.66 29.79 25.28 31.97C25.24 32.17 25.33 32.42 25.43 32.6C25.7 33.07 26.53 33.39 27.07 33.3C27.27 31 27.74 28.74 28.24 26.49C28.68 24.5 29.93 23.11 32.11 22.68C32.42 22.62 32.73 22.59 33.05 22.59C34.84 22.58 36.62 22.58 38.41 22.58C38.48 22.58 38.57 22.6 38.69 22.6C38.58 23.19 38.48 23.77 38.38 24.33C37.9 26.91 37.42 29.49 36.94 32.07C36.87 32.43 37.01 32.74 37.31 32.96C37.43 33.05 37.57 33.13 37.71 33.17C37.99 33.24 38.32 33.37 38.59 33.32C38.97 33.24 38.83 32.84 38.87 32.58C39.42 29.67 39.95 26.76 40.47 23.85C40.55 23.44 40.63 23.03 40.71 22.6C40.82 22.6 40.92 22.58 41.02 22.58C42.76 22.58 44.5 22.58 46.24 22.58C46.41 22.58 46.58 22.59 46.75 22.61C46.91 22.63 47.08 22.66 47.25 22.69C47.41 22.73 47.57 22.77 47.73 22.83C47.89 22.88 48.05 22.95 48.2 23.02C49.24 23.52 49.85 24.33 49.81 25.46C49.77 26.41 49.59 27.36 49.43 28.3C49.01 30.68 48.57 33.06 48.14 35.43C48.12 35.57 48.1 35.71 48.06 35.83C48.03 35.9 47.94 35.99 47.88 35.99C47.01 36.03 46.16 36.02 45.27 36.02C45.41 35.26 45.54 34.54 45.67 33.83ZM23.76 25.29C23.65 25.27 23.62 25.26 23.59 25.26C22.71 25.26 21.82 25.25 20.94 25.26C20.06 25.27 19.39 25.79 19.23 26.62C19.14 27.07 19.06 27.51 18.97 27.95C18.89 28.4 18.81 28.84 18.73 29.29C18.65 29.73 18.56 30.18 18.49 30.62C18.41 31.07 18.33 31.51 18.25 31.96C18.1 32.86 18.56 33.36 19.52 33.41C19.91 33.42 20.29 33.41 20.68 33.41C21.74 33.4 22.37 32.87 22.55 31.86C22.84 30.29 23.14 28.72 23.44 27.16C23.46 27.01 23.49 26.85 23.51 26.69C23.54 26.54 23.57 26.38 23.59 26.22C23.62 26.07 23.65 25.91 23.67 25.76C23.7 25.6 23.73 25.44 23.76 25.29L23.76 25.29ZM35.46 25.3C35.36 25.27 35.33 25.26 35.3 25.26C34.41 25.26 33.53 25.25 32.64 25.26C31.74 25.27 31.08 25.8 30.92 26.64C30.83 27.09 30.75 27.53 30.66 27.97C30.58 28.42 30.5 28.86 30.42 29.31C30.34 29.75 30.25 30.2 30.17 30.64C30.09 31.09 30.01 31.53 29.93 31.98C29.79 32.78 30.16 33.26 31 33.36C31.46 33.42 31.93 33.4 32.39 33.4C33.41 33.39 34.05 32.86 34.23 31.9L35.05 27.55C35.19 26.82 35.32 26.07 35.46 25.3ZM11.26 36.03C11.26 36.03 11.26 36.03 11.26 36.03C11.26 36.03 11.26 36.03 11.26 36.03L11.26 36.03ZM10.62 36.03C9.66 36.01 8.69 36.05 7.73 35.95C6.28 35.79 5.27 34.91 4.98 33.7C4.82 33.03 4.91 32.38 5.03 31.72C5.35 29.98 5.66 28.22 6 26.48C6.42 24.37 8.1 22.85 10.34 22.68C11.65 22.58 12.97 22.62 14.29 22.61C14.99 22.6 15.68 22.61 16.44 22.61C16.34 23.14 16.26 23.65 16.17 24.15C15.67 26.92 15.15 29.68 14.64 32.45C14.32 34.19 14.03 35.93 13.66 37.66C13.17 40.02 11.31 41.11 9.4 41.37C8.94 41.43 8.47 41.44 8.01 41.44C6.4 41.45 4.79 41.44 3.18 41.44C3.15 41.44 3.13 41.43 3.08 41.42C3.09 41.38 3.08 41.34 3.11 41.31C3.55 40.53 3.99 39.75 4.46 38.99C4.53 38.88 4.74 38.8 4.89 38.8C6.31 38.79 7.71 38.8 9.13 38.8C10.2 38.8 10.76 38.37 10.99 37.35C11.1 36.92 11.16 36.52 11.26 36.03C11.02 36.03 10.82 36.04 10.62 36.03ZM10.2 33.36L10.2 33.41C10.56 33.41 10.93 33.38 11.28 33.41C11.64 33.45 11.77 33.3 11.82 32.98C12.19 30.86 12.58 28.73 12.96 26.61C13.11 25.81 12.69 25.29 11.84 25.26C11.37 25.25 10.91 25.25 10.44 25.25C9.5 25.27 8.87 25.79 8.7 26.69C8.52 27.66 8.33 28.63 8.15 29.6C8 30.48 7.82 31.35 7.72 32.23C7.64 32.86 8 33.27 8.66 33.34C9.17 33.41 9.69 33.36 10.2 33.36ZM60.12 26.57C60.04 27.02 59.96 27.47 59.87 27.92C59.79 28.37 59.7 28.82 59.62 29.27C59.54 29.72 59.46 30.17 59.37 30.62C59.29 31.07 59.21 31.52 59.13 31.97C59 32.7 59.31 33.15 60.03 33.38C60.12 33.41 60.23 33.57 60.22 33.66C60.09 34.44 59.94 35.21 59.8 36.03C58.56 35.96 57.48 35.59 56.71 34.56C56.51 34.77 56.33 34.97 56.14 35.15C55.52 35.73 54.82 36.08 53.92 36.04C53.14 36 52.37 36.07 51.6 35.84C49.89 35.33 49.03 34.02 49.33 32.32C49.67 30.35 49.97 28.39 50.42 26.44C50.85 24.62 51.97 23.29 53.94 22.78C54.04 22.75 54.14 22.73 54.24 22.71C54.34 22.69 54.45 22.67 54.55 22.66C54.65 22.64 54.76 22.63 54.86 22.63C54.97 22.62 55.07 22.61 55.17 22.61C56.99 22.59 58.82 22.6 60.63 22.6C60.68 22.6 60.75 22.61 60.85 22.62C60.61 23.96 60.36 25.26 60.12 26.57ZM57.32 25.26C56.48 25.26 55.64 25.25 54.8 25.26C53.93 25.27 53.26 25.78 53.11 26.59C52.76 28.43 52.43 30.26 52.11 32.1C51.99 32.79 52.35 33.26 53.08 33.35C53.55 33.41 54.03 33.4 54.51 33.4C55.6 33.4 56.23 32.86 56.42 31.82C56.73 30.11 57.06 28.41 57.37 26.72C57.46 26.25 57.54 25.78 57.63 25.29C57.49 25.27 57.41 25.26 57.32 25.26Z" />
	</g>
</svg>