<svg version="1.2" xmlns="http://www.w3.org/2000/svg" viewBox="0 0 400 400" width="400" height="400">
	<title>goodpods-svg</title>
	<style>
		.s0 { opacity: .8;fill: #ffda09 } 
		.s1 { fill: #ffffff } 
		.s2 { fill: #333333 } 
	</style>
	<g id="Page-1">
		<g id="Onboarding_Landing-Copy-3">
			<g id="Group-3">
				<g id="Group-2">
					<path id="Oval" class="s0" d="m199.7 368.7c-93.5 0-169-75.6-169-169.1c0-93.5 75.5-169 169-169c93.4 0 169 75.5 169 169c0 93.5-75.6 169.1-169 169.1z" />
					<g id="Group-18">
						<path id="Fill-1" class="s1" d="m197.4 121.7l28.2 8.5l25.4 29.9l6.3 33.1l13.1 8l6.8 32.3l-3 21.2l-7.5 9.2h-23.9l-2.5-9.5l-2.5-24.6l-0.2-20.4l5.9-11.1l-1.5-20.2l-7.8-18l-13.5-10.4l-20.6-4.1l-25 1.5l-21.2 26.2l-1.6 21.5l10.6 8.3l2.5 25.7l2.7 24.8l-11.7 12.2l-14.1 3l-14.4-9.7l-4.4-22.4l1.6-32.1l11.8-6.3l5.4-34.6l25.8-31.7z" />
						<g id="Group-8">
							<path id="Fill-2" fill-rule="evenodd" class="s2" d="m315.4 280.4q-0.5 0-1.1-0.2c-1.5-0.2-2.8-0.7-4.1-1.3c-2.1-1-4.1-2.2-5.9-3.1c-2.9-1.8-5.5-3-8.5-3.6c-1.2-0.2-2.8-0.7-3.6-2.2c-0.8-1.4-0.3-3 0.3-4.3q0.2-0.5 0.5-1.1c0.9-1.6 3-2.3 4.8-1.8l0.3 0.1c0.9 0.2 1.9 0.5 2.8 1.2c1.7 1.4 3.8 2.4 6 3.4q1.4 0.6 2.8 1.3c2.2 1.1 4 1.4 5.9 1.1c1.5-0.3 2.5 0.1 3.1 0.5c0.6 0.5 1.3 1.3 1.5 2.8q0 0.7 0.1 1.3v0.4v0.5q-0.1 0.4-0.1 0.8c-0.2 1.4-0.9 2.5-1.9 3.3c-0.8 0.6-1.8 0.9-2.9 0.9z" />
							<path id="Fill-4" fill-rule="evenodd" class="s2" d="m303.8 230.4q-0.3 0-0.5 0q-0.2 0-0.4 0c-2.1 0-3.8-1-4.3-2.4c-0.3-0.9-0.2-1.9 0.3-2.8c0.5-1.1 1.5-1.9 2.7-2.3c2.2-0.6 4.6-1.2 7.2-0.9q1.8 0.2 3.7 0.4c2.1 0.2 4.3 0.1 6.8-0.2c2.2-0.2 3.2-0.7 3.8-1.6c0.8-1.1 2.7-1.4 3.7-1.2c1.1 0.3 2.3 1.4 2.6 2.5c0.4 1.6 0.4 4.1-2.7 6.6c-0.9 0.8-2.3 0.9-3 0.9q-2.9 0.1-5.8 0h-1.9c-1.4 0.2-2.8 0.2-4.1 0.2c-2.5 0-4.7 0-6.9 0.7q-0.6 0.1-1.2 0.1z" />
							<path id="Fill-6" fill-rule="evenodd" class="s2" d="m297 198.9c-1 0-2-0.3-2.8-1c-0.6-0.5-1-1.3-1-2c-0.1-1.2-0.1-2.4 0.4-3.4c0.6-1.3 1.5-2.6 2.5-3.6c3.8-4 7-8.6 10.1-13l1.2-1.7c0.9-1.3 2-2.9 4.3-3.4c1.1-0.2 2.9-0.2 3.9 0.6c0.5 0.4 0.7 1 0.7 1.6c0 0.9-0.2 1.9-0.7 2.8c-1.8 2.8-3.8 5.7-6.2 9.2c-2.4 3.4-4.9 6.9-7.4 10.3q-1 1.4-2.5 2.7c-0.5 0.6-1.3 0.7-1.7 0.8l-0.5 0.1q-0.2 0-0.3 0z" />
						</g>
						<g id="Group-15">
							<path id="Fill-9" fill-rule="evenodd" class="s2" d="m87.3 275.4q-1 0-1.9-0.3c-1.2-0.4-2.2-1.4-2.6-2.5c-0.3-1-0.2-1.9 0.2-2.7c0.4-0.6 0.8-1.2 1.4-1.7c0.9-0.7 2-1.5 3.2-2.1c5-2.1 9.8-4.8 14.5-7.5q2.6-1.4 5.2-2.9c1.1-0.6 2.4-0.7 3.5-0.7c0.9 0 1.8 0.5 2.4 1.4c0.5 0.8 0.8 2 0.3 3.1q-1.5 3.1-4.4 4.9q-1.5 0.9-2.9 1.8c-1.6 1-3.2 1.9-4.8 2.9c-1.7 0.9-3.5 1.8-5.2 2.7q-2.1 1.1-4.3 2.3c-1.5 0.8-3.1 1.3-4.6 1.3z" />
							<path id="Fill-11" fill-rule="evenodd" class="s2" d="m88.1 228.4q-0.8 0-1.7-0.1h-1.1c-0.8 0-1.8-0.1-2.7-0.4c-1.6-0.6-2.6-1.8-2.6-3.3c-0.1-1.6 1-3 2.5-3.5q2.8-0.7 5.7-1c1-0.1 2.1-0.2 3.1-0.2c1.4-0.1 2.7-0.2 3.9-0.4c4.2-0.7 7.8 0.5 11 1.8c1.5 0.6 2.4 2 2.2 3.5c-0.1 1.8-1.8 3.2-3.7 3.3c-0.3 0-0.6 0-1 0l-1-0.1c-3.6-0.7-7.8-0.3-11.1 0.2c-1.2 0.1-2.3 0.2-3.5 0.2z" />
							<path id="Fill-13" fill-rule="evenodd" class="s2" d="m107.1 196.6q0 0-0.1 0c-1.1-0.1-2.3-0.1-3.4-0.6c-1.8-0.9-3.6-1.9-5.2-3.1c-5.5-4.5-9.9-9.2-13.3-14.4c-2.4-3.6-3.7-7.4-3.8-11.3c0-1.3 1.2-2.2 1.9-2.6c1.1-0.5 2.6 0 3.2 0.8c0.6 0.9 1.2 1.8 1.6 2.8c2.8 7.1 8.5 12.2 14.1 16.9c0.6 0.5 1.3 0.8 2.1 1.2q0.5 0.2 1 0.5q0.7 0.3 1.3 0.6c0.8 0.3 1.6 0.7 2.4 1.2c1.5 0.9 2.3 2.5 2.2 4.1c-0.3 2.2-2 3.9-4 3.9z" />
						</g>
						<path id="Fill-16" fill-rule="evenodd" class="s2" d="m277.4 250.4c-1.4 11.3-2.5 13.2-8.6 16.6c-6.1 3.5-17.5 2.8-21.6 2.7c-4.2-0.1-5.8 0.8-5.8 0.8c-1.4 0.1-0.8 0-3.1-0.9c-2.3-1-3.6-4.5-5.6-9.8c-1.9-5.3-1.3-16.3-1.3-22.9c0.1-6.6-1.1-8.4-1.2-14.1c-0.1-5.7 0.3-10 0.7-15.1c0.4-5.2 3.4-9.4 4.2-11.7c0.8-2.2 1.3-1.3 1.7-4.5c0.4-3.1-1.6-4.6-3.7-9.2c-2.2-4.6-1.1-6.6-3-10.7c-1.8-4.2-6.1-10.2-8.1-12.6c-2-2.4-4.3-4.4-7.6-5c-3.2-0.6-4.3-1.1-8.1-2.5c-3.7-1.3-11.3-3.7-21.4-0.7c-10.2 3-17.2 9.6-24 20.3c-6.8 10.6-6.2 16.7-6.5 19.4c-0.3 2.7-0.1 2.1 2.1 4.1c2.1 1.9 6.8 3.2 10 12c3.3 8.7 3.2 14.8 4 26.4c0.7 11.6 0.6 15.7-1.3 24.1c-1.9 8.4-6 12.1-9.4 13.2c-3.4 1.2-8.2 2.6-11 3.3c-2.7 0.6-4.8 0.2-14-2.6c-9.3-2.9-13.5-12.6-14.7-16c-1.2-3.4-1.7-13-2.4-19.7c-0.7-6.8-1.6-17-1.1-20.8c0.4-3.9 0.1-6.5 3.6-13.1c3.5-6.6 9.5-6.5 9.5-6.5c0 0 1-3.9 2-8.6c1-4.7 0.1-4.1 0.3-8.2c0.2-4.1 1.7-5.2 3.4-8.9c1.6-3.7 4.9-11.6 9.5-19.4c4.6-7.8 6.7-9.4 10.1-12.2c3.4-2.9 2.5-3.9 6.6-7.4c4-3.5 6.5-3.4 12.4-6.2c6-2.8 9.3-5.7 14.4-6.8c5.1-1 5.7-0.5 12.4 0c6.7 0.6 7.4-0.2 12.5 1.1c5.1 1.4 4.7 2.2 9.9 4.9c5.1 2.8 8.2 7.2 13.2 11.4c5.1 4.2 7.1 6.9 10.4 12.3c3.2 5.4 6.2 11.4 7.9 14.7c1.6 3.2 1.6 7.3 1.8 10.9c0.1 3.6 0.3 5.2 1.1 8.6c0.8 3.5 0.9 4.1 1.5 7.5c0.6 3.4-1.1 2.1 4.8 3.7c6 1.7 7.5 6.2 7.5 6.2c0 0 3.1 2.5 4.4 9.8c1.2 7.3 0.5 11.4 2.1 15.9c1.5 4.5 0.8 14.9-0.5 26.2zm-36.4-72.1c1.7 5.2 2.2 9.8 3 10.6c0.9 0.7 1.2 1.5 2.4 0c1.2-1.5 1.7-4.1 1.1-8c-0.6-3.9-1.2-3.9-3.9-13.9c-2.6-10-2.8-11.5-3.8-12.9c-1.1-1.4-2.7-2.5-3-4.5c-0.3-2.1-2.9-4.1-4.2-5.2c-1.3-1.2-5-3.7-8.3-6.1c-3.4-2.4-7.1-6.3-9.6-8.4c-2.6-2.1-2.4-2.2-4.8-2.5c-2.3-0.2-11.1-1.6-14.4-1.3c-3.2 0.3-4.1 0.5-6.2 1.2c-2.2 0.8-10 5-13.8 6.6c-3.7 1.5-7.8 3-15.1 9.5c-7.4 6.4-8.6 10-9.9 12.4c-1.4 2.3-4.2 8.4-5.4 10.8c-1.2 2.4-3.6 6.9-4.3 8c-0.6 1.1-1.2 1.5-1.1 3.6c0.1 2.1 0.8 5.1 0.6 7.6c-0.2 2.5-1.8 5.5-0.6 5.7c0 0 2.5 0.7 3.6 0c1.2-0.7 1.7-0.2 2.1-3.4c0.3-3.3-0.2-8 2.8-13.6c3.1-5.7 6.7-13.4 12.5-20.4c5.9-6.9 14-12.9 24.2-14.4c10.1-1.5 13.3-0.1 15.3 0c2 0.1 1.4-0.2 3.3 0.4c1.8 0.6 13.9 4.1 19.6 7.8c5.7 3.8 7.5 3.5 10.7 9.8c3.2 6.3 2.7 3.4 3.7 8.3c1 4.9 1.8 7.2 3.5 12.3zm-89.3 24.4c-2.9-1.3-7.3 0-9.6 0.4c-2.4 0.4-2.2 0.7-4.5 1.6c-2.4 0.9-4.5-0.6-8.1 0.1c-3.6 0.6-3.3 4.3-4.1 8.2c-0.8 3.9-0.1 15.5-0.3 19.1c-0.2 3.5 0.9 5.1 1.8 9.7c0.8 4.6-0.5 3.5 1.9 10.4c2.3 6.9 4.8 8.5 11.4 10.5c6.6 2 12.3 1 14.9-0.7c2.6-1.8 5-5.4 6.4-12.6c1.4-7.3-0.8-24.6-2.1-32.6c-1.2-8.1-4.8-12.8-7.7-14.1zm115.7 11c-1.8-8.1-3-10.9-5.3-12.3c-2.4-1.5-8.4-0.4-11.1-0.1c-2.6 0.2-7.3 0-7.3 0c-1.2 0.5-1 0.1-2.5 3.5c-1.6 3.4-3 14.3-1.9 19.2c1 5 1.2 11.2 1.5 18.5c0.2 7.4 0.7 14.1 2.2 15.9c1.5 1.8 1.5 1.4 8 1.4c6.5 0 12.9-1.5 15-2.4c2.2-0.8 2.2-3.3 2.2-8.3c0.1-4.9 1.7-4.9 2-10.2c0.4-5.2-1-17.2-2.8-25.2z" />
					</g>
				</g>
			</g>
		</g>
	</g>
</svg>