<svg xmlns="http://www.w3.org/2000/svg" viewBox="0 0 64 64" width="64" height="64">
	<style>
		tspan { white-space:pre }
		.shp0 { fill: #ff6d0e } 
	</style>
	<path id="Layer" fill-rule="evenodd" class="shp0" d="M26.76 61.84C15.24 60.16 3.4 49.88 2.12 35C0.64 17.48 13.64 4.2 28.32 2.44C46.04 0.36 60.04 13.24 61.92 28.36C64.08 45.76 51.76 59.4 37.6 61.88C37.6 61.64 37.56 61.44 37.56 61.2C37.56 53.48 37.56 45.76 37.56 38.04C37.56 33.84 37.6 29.64 37.6 25.4C37.6 24.04 37.24 22.8 36.04 22.12C35.36 21.72 34.52 21.44 33.72 21.4C28.4 21.32 23.08 21.36 17.8 21.36C17.24 21.36 17.08 21.56 17.08 22.12C17.12 25.16 17.12 28.2 17.08 31.24C17.08 31.8 17.24 31.96 17.8 31.96C20.44 31.92 23.08 31.96 25.72 31.96C26.64 31.96 26.64 31.96 26.64 32.92C26.64 42.32 26.68 51.72 26.68 61.08C26.76 61.36 26.76 61.6 26.76 61.84ZM31.76 18.96C35.16 18.96 37.8 16.36 37.8 12.96C37.8 9.64 35.16 6.96 31.84 6.96C28.44 6.96 25.8 9.56 25.8 12.92C25.76 16.32 28.36 18.96 31.76 18.96Z" />
</svg>