<svg version="1.2" baseProfile="tiny-ps" xmlns="http://www.w3.org/2000/svg" viewBox="0 0 400 400" width="400" height="400">
	<title>&lt;Path&gt;</title>
	<style>
		tspan { white-space:pre }
		.shp0 { fill: #292c36 } 
		.shp1 { fill: #ffffff } 
		.shp2 { fill: #2bc5b4 } 
	</style>
	<path id="Shape 1" class="shp0" d="M4.76 0L395.24 0C397.87 0 400 2.13 400 4.76L400 395.24C400 397.87 397.87 400 395.24 400L4.76 400C2.13 400 0 397.87 0 395.24L0 4.76C0 2.13 2.13 0 4.76 0Z" />
	<g id="&lt;Group&gt;">
		<path id="&lt;Compound Path&gt;" class="shp1" d="M83.19 308.02C79.99 304.62 73.85 301.25 64.75 297.9C58.12 295.4 53.64 293.49 51.31 292.17C48.98 290.85 47.29 289.46 46.24 287.99C45.19 286.53 44.66 284.76 44.66 282.68C44.66 279.62 46.06 277.21 48.86 275.47C51.66 273.72 55.81 272.85 61.32 272.85C66.78 272.85 72.8 274.07 79.37 276.52C81.41 277.38 82.68 277.03 83.19 275.47L85.23 270.75C86.22 268.92 85.67 267.66 83.59 266.98C76.59 264.33 69.45 263.01 62.16 263.01C53.29 263.01 46.32 264.84 41.23 268.49C36.15 272.15 33.61 277.14 33.61 283.46C33.61 287 34.34 290.04 35.81 292.59C37.28 295.14 39.52 297.42 42.53 299.42C45.54 301.43 50.61 303.77 57.75 306.46C65.26 309.39 70.31 311.93 72.9 314.07C75.49 316.22 76.79 318.8 76.79 321.82C76.79 325.83 75.15 328.82 71.89 330.77C68.62 332.73 63.95 333.71 57.89 333.71C53.97 333.71 49.9 333.17 45.68 332.08C44.16 331.69 41.93 330.94 40.2 330.33C38.18 329.55 36.96 330.06 36.56 331.84L34.94 335.79C33.84 337.5 34.25 338.81 36.16 339.71C41.61 342.18 48.76 343.41 57.61 343.41C67.22 343.41 74.69 341.45 80 337.53C85.32 333.62 87.98 328.05 87.98 320.83C87.98 315.69 86.38 311.42 83.19 308.02Z" />
		<path id="&lt;Compound Path&gt;" class="shp1" d="M272.06 340.32C276.08 329.67 295.57 277.16 299.7 266.23C300.38 264.63 299.82 263.95 298.03 264.19L289.74 264.19C288.65 263.99 287.84 264.62 287.32 266.07C278.18 291.41 272.28 308.18 269.62 315.85C266.89 323.7 265.26 328.88 264.75 331.38L264.19 331.38C263.54 328.17 261.34 321.19 257.61 310.43C249.06 286.46 243.77 271.64 241.73 265.99C241.25 264.63 240.41 264.03 239.21 264.19L230.53 264.19C229.14 263.95 228.75 264.62 229.37 266.19C233.46 277.03 252.94 329.5 257 340.27C257.42 341.39 258.07 342.04 258.93 342.25L269.9 342.25C270.93 342.05 271.65 341.41 272.06 340.32Z" />
		<path id="&lt;Compound Path&gt;" class="shp1" d="M366.88 339.86C366.88 333.14 366.88 317.02 366.88 291.5C366.88 281.61 364.59 274.42 359.93 269.92C355.26 265.42 349.81 263.18 340.57 263.18C335.3 263.18 330.52 264.22 326.23 266.32C321.94 268.41 318.6 271.37 316.22 275.18L315.66 275.18C314.94 270.88 314.4 267.77 314.05 265.85C313.84 264.71 313.16 264.21 311.99 264.34L306.24 264.34C304.93 264.17 304.28 264.82 304.28 266.3C304.28 276.92 304.28 328.35 304.28 339.9C304.28 341.58 304.91 342.36 306.16 342.25L313.91 342.25C315.19 342.37 315.83 341.59 315.83 339.91C315.83 334.55 315.83 321.71 315.83 301.38C315.83 291.31 317.81 284.08 321.54 279.7C325.27 275.32 331.15 273.13 339.17 273.13C345.24 273.13 348.2 274.69 351.04 277.79C353.89 280.9 355.31 285.61 355.31 291.92C355.31 317.26 355.31 333.24 355.31 339.86C355.31 341.62 355.94 342.41 357.19 342.25L364.96 342.25C366.24 342.41 366.88 341.62 366.88 339.86Z" />
		<path id="&lt;Compound Path&gt;" fill-rule="evenodd" class="shp1" d="M225.77 342.2L219.05 342.2C218.17 342.17 217.71 341.7 217.68 340.77C217.61 338.93 217.5 335.98 217.35 331.92L216.31 331.92C212.48 336.78 207.73 339.89 203.93 341.61C200.13 343.33 194.42 343.41 188.73 343.41C181.12 343.41 175.16 341.43 170.85 337.46C166.53 333.5 164.37 327.86 164.37 320.55C164.37 304.88 176.76 296.67 201.53 295.92L215.48 295.49L215.48 290.68C215.48 284.6 214.19 280.1 211.6 277.2C209.01 274.3 203.94 272.85 198.24 272.85C192.59 272.85 186.28 274.41 179.3 277.5C177.16 278.45 175.97 278.2 175.74 276.76L173.72 271.66C172.81 270.41 173.24 269.44 174.99 268.76C178.21 267.17 181.68 265.89 185.4 264.92C189.9 263.74 194.42 263.15 198.94 263.15C208.09 263.15 215.8 265.2 220.21 269.31C224.62 273.41 227.21 279.99 227.21 289.05C227.21 317.94 227.21 335.19 227.21 340.78C227.21 341.76 226.73 342.23 225.77 342.2ZM191.04 333.71C198.27 333.71 204.88 331.71 209.01 327.7C213.14 323.69 215.2 318.07 215.2 310.85L215.2 303.85L202.65 304.34C193.42 304.67 186.75 306.12 182.67 308.69C178.59 311.27 176.55 315.26 176.55 320.69C176.55 324.94 177.82 328.17 180.36 330.39C182.91 332.6 186.46 333.71 191.04 333.71Z" />
		<path id="&lt;Compound Path&gt;" fill-rule="evenodd" class="shp1" d="M154.98 342.2L148.25 342.2C147.37 342.17 146.91 341.7 146.88 340.77C146.81 338.93 146.7 335.98 146.55 331.92L145.51 331.92C141.68 336.78 136.94 339.89 133.13 341.61C129.33 343.33 123.62 343.41 117.93 343.41C110.32 343.41 104.36 341.43 100.05 337.46C95.73 333.5 93.57 327.86 93.57 320.55C93.57 304.88 105.96 296.67 130.74 295.92L144.69 295.49L144.69 290.68C144.69 284.6 143.39 280.1 140.8 277.2C138.21 274.3 133.14 272.85 127.45 272.85C121.79 272.85 115.48 274.41 108.51 277.5C106.36 278.45 105.17 278.2 104.94 276.76L102.92 271.66C102.02 270.41 102.44 269.44 104.19 268.76C107.42 267.17 110.89 265.89 114.6 264.92C119.11 263.74 123.62 263.15 128.15 263.15C137.29 263.15 145 265.2 149.41 269.31C153.82 273.41 156.41 279.99 156.41 289.05C156.41 317.94 156.41 335.19 156.41 340.78C156.41 341.76 155.93 342.23 154.98 342.2ZM120.24 333.71C127.47 333.71 134.08 331.71 138.21 327.7C142.34 323.69 144.41 318.07 144.41 310.85L144.41 303.85L131.86 304.34C122.62 304.67 115.96 306.12 111.88 308.69C107.79 311.27 105.75 315.26 105.75 320.69C105.75 324.94 107.02 328.17 109.57 330.39C112.11 332.6 115.67 333.71 120.24 333.71Z" />
		<g id="&lt;Group&gt;">
			<path id="&lt;Path&gt;" class="shp1" d="M375.45 83.22C371.53 72.44 363.04 63.95 352.26 60.02C342.38 56.9 333.21 56.9 314.87 56.9L259.56 56.9C241.21 56.9 232.04 56.9 222.17 60.02C211.39 63.95 202.9 72.44 198.98 83.22C198.38 85.11 197.9 86.97 197.51 88.88C201.5 94.54 204.94 100.62 207.75 107.05C208.02 100.06 208.67 94.46 210.27 89.4C213.69 80 218.95 74.74 228.35 71.32C236.96 68.6 247.1 68.6 263.1 68.6L311.33 68.6C327.32 68.6 337.46 68.6 346.07 71.32C355.47 74.74 360.73 80 364.15 89.4C366.87 98.01 366.87 108.15 366.87 124.15L366.87 172.38C366.87 188.37 366.87 198.51 364.15 207.12C360.73 216.52 355.47 221.78 346.07 225.2C337.46 227.92 327.32 227.92 311.33 227.92L263.1 227.92C247.1 227.92 236.96 227.92 228.35 225.2C218.95 221.78 213.69 216.52 210.27 207.12C208.67 202.06 208.02 196.46 207.74 189.46C204.94 195.89 201.5 201.97 197.5 207.63C197.89 209.54 198.38 211.41 198.98 213.3C202.9 224.08 211.39 232.57 222.17 236.5C232.04 239.62 241.21 239.62 259.56 239.62L314.87 239.62C333.21 239.62 342.38 239.62 352.26 236.5C363.04 232.57 371.53 224.08 375.45 213.3C378.57 203.43 378.57 194.26 378.57 175.92L378.57 120.6C378.57 102.26 378.57 93.09 375.45 83.22Z" />
		</g>
		<path id="&lt;Compound Path&gt;" fill-rule="evenodd" class="shp1" d="M273.13 212.36C270.2 190.62 259.92 153.3 221.24 125.71C220.63 125.24 219.98 124.74 219.97 123.14C219.97 118.91 219.97 113 219.97 105.4C219.97 85.89 233.14 81.05 239.24 81.05C240.45 81.08 241.49 81.36 242.22 82.58C260.66 122.81 272.16 148.26 279.27 208.91C279.31 210.09 279.5 210.66 280.21 208.87C285.22 197.85 308.97 141.66 299.53 84.12C299.27 82.11 300.86 81.02 302.09 81.02C308.59 81.02 318 81.02 330.33 81.02C344.62 81.02 354.46 90.83 354.46 105.4C354.46 117.32 354.46 125.64 354.46 130.35C354.46 130.96 354.29 132.09 352.94 132.81C309.2 155.6 292.78 192.85 286.95 212.66C286.37 214.27 286.03 215.5 284.23 215.5C281.88 215.5 278.02 215.5 275.61 215.5C273.88 215.48 273.52 214.8 273.13 212.36ZM330.33 215.5C318.39 215.5 308.24 215.5 299.88 215.5C298.59 215.5 295.62 213.47 297.95 210.63C313.57 193.86 333.06 188.02 351.6 181.82C354.03 181.1 354.46 183.65 354.46 184.36C354.46 188.31 354.46 190.42 354.46 190.71C354.46 204.98 344.64 215.5 330.33 215.5ZM244.34 215.5C229.73 215.5 219.97 206.46 219.97 190.71C219.97 192.75 219.97 192.21 219.97 189.07C219.97 188.41 220.49 185.94 222.96 186.42C237.76 190.97 253.6 195.56 265.18 210.89C266.51 212.77 265.35 215.5 263.05 215.5C256.68 215.5 250.44 215.5 244.34 215.5Z" />
		<g id="&lt;Group&gt;">
			<path id="&lt;Path&gt;" class="shp1" d="M113.27 64.21C66.85 64.21 29.22 101.84 29.22 148.25C29.22 194.67 66.85 232.3 113.27 232.3C159.69 232.3 197.32 194.67 197.32 148.25C197.32 101.84 159.69 64.21 113.27 64.21Z" />
			<path id="&lt;Path&gt;" class="shp2" d="M154.02 140.64C147.72 140.64 142.61 146.05 142.61 152.7C142.61 159.37 147.72 164.76 154.02 164.76C160.33 164.76 165.44 159.37 165.44 152.7C165.44 146.05 160.33 140.64 154.02 140.64Z" />
			<path id="&lt;Compound Path&gt;" fill-rule="evenodd" class="shp2" d="M204.63 148.25C204.63 198.71 163.72 239.61 113.27 239.61C62.81 239.61 21.9 198.71 21.9 148.25C21.9 97.8 62.81 56.89 113.27 56.89C163.72 56.89 204.63 97.8 204.63 148.25ZM91.61 117.01C89.33 105.35 70.4 107.28 69.7 117.01L69.44 155.06C67.99 164.71 54.45 165.37 47.4 155.58C17.25 179.52 91.61 200.09 91.61 153.44L91.61 117.01ZM119.34 134.4C119.34 129.59 115.39 125.64 110.56 125.64L106.76 125.64C101.93 125.64 97.98 129.59 97.98 134.4L97.98 171.15C97.98 175.97 101.93 179.93 106.76 179.93L110.56 179.93C115.39 179.93 119.34 175.97 119.34 171.15L119.34 134.4ZM119.34 109.26C119.34 104.53 115.46 100.64 110.72 100.64L106.61 100.64C101.86 100.64 97.98 104.53 97.98 109.26L97.98 111.39C97.98 116.13 101.87 120 106.61 120L110.72 120C115.45 120 119.34 116.12 119.34 111.39L119.34 109.26ZM183.12 152.7C183.12 137.04 170.09 124.34 154.02 124.34C137.96 124.34 124.92 137.04 124.92 152.7C124.92 168.38 137.96 181.07 154.02 181.07C170.09 181.07 183.12 168.38 183.12 152.7Z" />
		</g>
	</g>
</svg>