<svg xmlns="http://www.w3.org/2000/svg" viewBox="0 0 64 64" width="64" height="64">
	<defs>
		<linearGradient id="grd1" gradientUnits="userSpaceOnUse"  x1="32" y1="0" x2="32" y2="64">
			<stop offset="0" stop-color="#ff9a20"  />
			<stop offset="1" stop-color="#ff7724"  />
		</linearGradient>
		<linearGradient id="grd2" gradientUnits="userSpaceOnUse"  x1="32" y1="6.667" x2="32" y2="57.333">
			<stop offset="0" stop-color="#444e58"  />
			<stop offset="1" stop-color="#22312c"  />
		</linearGradient>
	</defs>
	<style>
		tspan { white-space:pre }
		.shp0 { fill: url(#grd1) } 
		.shp1 { fill: #ffffff } 
		.shp2 { fill: url(#grd2) } 
		.shp3 { fill: #ff9a20 } 
	</style>
	<path id="Layer" class="shp0" d="M6.73 57.27C1.82 52.36 0 44.36 0 32C0 19.64 1.82 11.64 6.73 6.73C11.64 1.82 19.64 0 32 0C44.36 0 52.36 1.82 57.27 6.73C62.18 11.64 64 19.64 64 32C64 44.36 62.18 52.36 57.27 57.27C52.36 62.18 44.36 64 32 64C19.64 64 11.64 62.18 6.73 57.27Z" />
	<path id="Layer" class="shp1" d="M32 56C18.73 56 8 45.27 8 32C8 18.73 18.73 8 32 8C45.27 8 56 18.73 56 32C56 45.27 45.27 56 32 56Z" />
	<path id="Layer" fill-rule="evenodd" class="shp2" d="M8.6 41.69C4.67 32.23 6.84 21.33 14.09 14.09C21.33 6.84 32.23 4.67 41.69 8.6C51.16 12.52 57.33 21.75 57.33 32C57.34 35.33 56.69 38.63 55.42 41.7C54.15 44.78 52.29 47.58 49.93 49.93C47.58 52.29 44.78 54.15 41.7 55.42C38.63 56.69 35.33 57.34 32 57.33C21.75 57.33 12.52 51.16 8.6 41.69ZM17.69 15.06C13.69 18.44 11.02 23.12 10.14 28.29C9.27 33.45 10.25 38.76 12.92 43.26C15.59 47.77 19.77 51.18 24.72 52.9L29.47 35.27C29.2 35.08 28.96 34.86 28.75 34.61C28.54 34.36 28.36 34.08 28.21 33.79C28.06 33.5 27.95 33.19 27.88 32.87C27.81 32.55 27.77 32.22 27.78 31.89C27.78 30.43 28.54 29.07 29.78 28.3C31.03 27.53 32.58 27.46 33.89 28.12C35.2 28.77 36.07 30.06 36.21 31.52C36.34 32.97 35.7 34.39 34.53 35.27L39.28 52.9C44.23 51.18 48.41 47.77 51.08 43.26C53.75 38.76 54.73 33.45 53.86 28.29C52.98 23.12 50.31 18.44 46.31 15.06C42.31 11.68 37.24 9.83 32 9.83C26.76 9.83 21.69 11.68 17.69 15.06ZM29.57 47.2L28.62 50.79L30.84 48.57L29.57 47.2ZM34.43 47.2L33.16 48.47L35.38 50.68L34.43 47.2ZM32 49.52L27.78 53.74C28.13 53.81 28.48 53.86 28.83 53.91C29.18 53.96 29.53 54 29.88 54.04C30.23 54.07 30.59 54.1 30.94 54.12C31.29 54.14 31.65 54.16 32 54.17C32.35 54.17 32.71 54.17 33.06 54.15C33.42 54.14 33.77 54.11 34.12 54.08C34.48 54.04 34.83 54 35.18 53.94C35.53 53.89 35.88 53.82 36.22 53.74L32 49.52ZM32 47.31L33.9 45.41L32 38.12L30.1 45.41L32 47.31Z" />
	<path id="Layer" class="shp3" d="M46.46 42.98C46.33 43.14 46.17 43.27 45.99 43.38C45.82 43.48 45.62 43.54 45.42 43.57C45.21 43.6 45 43.59 44.8 43.55C44.6 43.5 44.41 43.41 44.24 43.29C44.08 43.18 43.93 43.04 43.83 42.87C43.72 42.7 43.65 42.51 43.62 42.31C43.59 42.11 43.6 41.91 43.65 41.71C43.71 41.52 43.8 41.34 43.93 41.18C44.85 39.84 45.57 38.36 46.05 36.81C46.53 35.25 46.78 33.63 46.78 32C46.78 30.37 46.53 28.75 46.05 27.19C45.57 25.64 44.85 24.16 43.93 22.82C43.8 22.66 43.71 22.48 43.65 22.29C43.6 22.09 43.59 21.89 43.62 21.69C43.65 21.49 43.72 21.3 43.83 21.13C43.93 20.96 44.08 20.82 44.24 20.71C44.41 20.59 44.6 20.5 44.8 20.45C45 20.41 45.21 20.4 45.42 20.43C45.62 20.46 45.82 20.52 45.99 20.62C46.17 20.73 46.33 20.86 46.46 21.02C47.59 22.62 48.46 24.38 49.05 26.24C49.64 28.1 49.94 30.05 49.94 32C49.94 33.95 49.64 35.9 49.05 37.76C48.46 39.62 47.59 41.38 46.46 42.98L46.46 42.98ZM38.76 38.86C38.61 38.69 38.5 38.49 38.43 38.28C38.36 38.07 38.32 37.85 38.33 37.63C38.34 37.4 38.39 37.18 38.49 36.98C38.58 36.78 38.7 36.59 38.86 36.43C39.12 36.12 39.34 35.79 39.54 35.45C39.74 35.1 39.91 34.73 40.04 34.36C40.18 33.98 40.28 33.59 40.35 33.2C40.41 32.8 40.45 32.4 40.44 32C40.44 31.6 40.4 31.2 40.33 30.81C40.26 30.41 40.16 30.03 40.02 29.65C39.89 29.27 39.72 28.91 39.53 28.56C39.33 28.21 39.11 27.88 38.86 27.57C38.71 27.4 38.6 27.22 38.51 27.01C38.43 26.81 38.38 26.59 38.37 26.37C38.36 26.15 38.39 25.93 38.46 25.72C38.52 25.51 38.62 25.31 38.76 25.14C38.88 24.97 39.05 24.83 39.24 24.74C39.42 24.64 39.63 24.58 39.84 24.57C40.05 24.56 40.26 24.6 40.46 24.68C40.65 24.76 40.83 24.88 40.97 25.03C41.82 25.99 42.48 27.09 42.93 28.28C43.38 29.47 43.61 30.73 43.61 32C43.61 33.27 43.38 34.53 42.93 35.72C42.48 36.91 41.82 38.01 40.97 38.97C40.82 39.11 40.64 39.22 40.45 39.29C40.26 39.37 40.05 39.4 39.84 39.39C39.63 39.38 39.43 39.33 39.24 39.24C39.06 39.15 38.89 39.02 38.76 38.86ZM25.24 38.86C25.11 39.02 24.94 39.15 24.76 39.24C24.57 39.33 24.37 39.38 24.16 39.39C23.95 39.4 23.74 39.37 23.55 39.29C23.36 39.22 23.18 39.11 23.03 38.97C22.18 38.01 21.52 36.91 21.07 35.72C20.62 34.53 20.39 33.27 20.39 32C20.39 30.73 20.62 29.47 21.07 28.28C21.52 27.09 22.18 25.99 23.03 25.03C23.17 24.88 23.35 24.76 23.54 24.68C23.74 24.6 23.95 24.56 24.16 24.57C24.37 24.58 24.58 24.64 24.77 24.74C24.95 24.83 25.12 24.97 25.24 25.14C25.39 25.31 25.5 25.51 25.57 25.72C25.64 25.93 25.68 26.15 25.67 26.37C25.66 26.6 25.61 26.82 25.51 27.02C25.42 27.22 25.3 27.41 25.14 27.57C24.89 27.88 24.67 28.21 24.47 28.56C24.28 28.91 24.11 29.27 23.98 29.65C23.84 30.03 23.74 30.41 23.67 30.81C23.6 31.2 23.56 31.6 23.56 32C23.55 32.4 23.59 32.8 23.65 33.2C23.72 33.59 23.82 33.98 23.96 34.36C24.09 34.73 24.26 35.1 24.46 35.45C24.66 35.79 24.88 36.12 25.14 36.43C25.3 36.59 25.43 36.78 25.52 36.98C25.61 37.18 25.66 37.4 25.67 37.63C25.68 37.85 25.65 38.07 25.57 38.28C25.5 38.49 25.39 38.69 25.24 38.86L25.24 38.86ZM19.76 43.29C19.59 43.41 19.4 43.5 19.2 43.55C19 43.59 18.79 43.6 18.58 43.57C18.38 43.54 18.18 43.48 18.01 43.38C17.83 43.27 17.67 43.14 17.54 42.98C16.41 41.38 15.54 39.62 14.95 37.76C14.36 35.9 14.06 33.95 14.06 32C14.06 30.05 14.36 28.1 14.95 26.24C15.54 24.38 16.41 22.62 17.54 21.02C17.67 20.86 17.83 20.73 18.01 20.62C18.18 20.52 18.38 20.46 18.58 20.43C18.79 20.4 19 20.41 19.2 20.45C19.4 20.5 19.59 20.59 19.76 20.71C19.92 20.82 20.07 20.96 20.17 21.13C20.28 21.3 20.35 21.49 20.38 21.69C20.41 21.89 20.4 22.09 20.35 22.29C20.29 22.48 20.2 22.66 20.07 22.82C19.15 24.16 18.43 25.64 17.95 27.19C17.47 28.75 17.22 30.37 17.22 32C17.22 33.63 17.47 35.25 17.95 36.81C18.43 38.36 19.15 39.84 20.07 41.18C20.19 41.34 20.27 41.52 20.32 41.72C20.37 41.91 20.38 42.11 20.35 42.3C20.32 42.5 20.25 42.69 20.15 42.86C20.05 43.03 19.91 43.18 19.76 43.29Z" />
</svg>