<svg xmlns="http://www.w3.org/2000/svg" viewBox="0 0 2303 321" width="2303" height="321">
	<style>
		tspan { white-space:pre }
		.shp0 { fill: #ff424d } 
	</style>
	<path id="Path 1" fill-rule="evenodd" class="shp0" d="M0 8.67L127.39 8.67C194.8 8.67 238.28 59.57 238.28 118.73C238.28 177.89 194.8 228.77 127.39 228.77L70.44 228.77L70.44 313.17L0 313.17L0 8.67ZM167.41 118.73C167.41 90.45 148.27 66.09 118.7 66.09L70.44 66.09L70.44 171.35L118.7 171.35C148.27 171.35 167.41 147.01 167.41 118.73ZM507.87 313.17L496.14 276.19L387.87 276.19L376.12 313.17L300.89 313.17L409.6 8.67L474.39 8.67L584.4 313.17L507.87 313.17ZM442.21 95.67L404.81 220.95L478.73 220.95L442.21 95.67ZM702.67 69.57L633.98 69.57L633.98 8.67L842.24 8.67L842.24 69.57L773.1 69.57L773.1 313.17L702.67 313.17L702.67 69.57ZM951.82 8.67L1079.67 8.67C1147.05 8.67 1190.54 59.57 1190.54 118.73C1190.54 161.36 1167.92 199.19 1130.09 217.04L1190.98 313.17L1109.24 313.17L1055.3 228.77L1022.25 228.77L1022.25 313.17L951.82 313.17L951.82 8.67ZM1119.23 118.73C1119.23 90.45 1100.09 66.09 1070.52 66.09L1022.25 66.09L1022.25 171.35L1070.52 171.35C1100.09 171.35 1119.23 147.01 1119.23 118.73ZM1380.56 65.23L1380.56 134.38L1495.78 134.38L1495.78 189.64L1380.56 189.64L1380.56 256.61L1495.78 256.61L1495.78 313.17L1310.12 313.17L1310.12 8.67L1495.78 8.67L1495.78 65.23L1380.56 65.23ZM1610.13 160.92C1610.13 77.4 1670.14 0.84 1771.46 0.84C1872.33 0.84 1932.34 77.4 1932.34 160.92C1932.34 244.44 1872.33 321 1771.46 321C1670.14 321 1610.13 244.44 1610.13 160.92ZM1860.6 160.92C1860.6 110.9 1826.68 64.35 1771.46 64.35C1715.8 64.35 1682.33 110.9 1682.33 160.92C1682.33 210.94 1715.8 257.49 1771.46 257.49C1826.68 257.49 1860.6 210.94 1860.6 160.92ZM2232.81 207.03L2232.81 8.67L2302.81 8.67L2302.81 313.17L2229.33 313.17L2119.74 117.41L2119.74 313.17L2049.3 313.17L2049.3 8.67L2122.78 8.67L2232.81 207.03Z" />
</svg>