<svg xmlns="http://www.w3.org/2000/svg" viewBox="0 0 64 64" width="64" height="64">
	<style>
		tspan { white-space:pre }
		.shp0 { fill: #c8122a } 
		.shp1 { fill: #ffffff } 
	</style>
	<path id="Layer" fill-rule="evenodd" class="shp0" d="M30.55 0.37C40.49 -0.17 50.48 4.41 56.65 12.19C62.54 19.44 64.88 29.37 62.91 38.5C60.81 48.78 53.21 57.7 43.4 61.42C38.95 63.19 34.08 63.84 29.31 63.44C20.56 62.79 12.25 58.18 6.92 51.23C4.18 47.67 2.22 43.52 1.19 39.14C-0.8 30.72 0.84 21.5 5.73 14.33C11.17 6.1 20.68 0.72 30.55 0.37ZM37.67 7.95C36.02 8.23 35.63 10.8 37.2 11.46C44.1 13.52 49.82 19.07 52.08 25.9C52.3 26.84 53 27.82 54.05 27.84C55.27 27.96 56.31 26.69 56.02 25.51C53.7 17.65 47.45 11.09 39.73 8.34C39.07 8.12 38.38 7.79 37.67 7.95ZM27.32 11.6C21.8 12.73 16.9 16.39 14 21.19C10.38 27.1 10 34.85 13.03 41.08C16.11 47.68 22.85 52.4 30.12 52.96C34.62 53.39 39.26 52.29 43.1 49.89C47.73 47.01 51.2 42.28 52.42 36.96C52.84 34.97 51.48 32.87 49.59 32.22C47.77 31.52 45.54 32.21 44.44 33.82C43.65 34.89 43.51 36.27 42.88 37.43C41.05 41.2 37.15 43.83 32.97 44.14C27.72 44.64 22.42 41.27 20.62 36.32C19.28 32.81 19.66 28.69 21.7 25.53C23.31 22.93 25.96 21 28.93 20.25C31.1 19.69 32.52 17.28 32.02 15.11C31.62 12.99 29.48 11.34 27.32 11.6ZM36.73 14.08C35.89 14.18 35.18 14.88 35.07 15.72C34.93 16.63 35.54 17.55 36.4 17.84C40.79 19.48 44.36 23.11 45.98 27.5C46.26 28.45 47.34 29.1 48.31 28.82C49.33 28.58 50.01 27.4 49.63 26.4C47.77 21.03 43.48 16.55 38.2 14.44C37.72 14.28 37.25 14.01 36.73 14.08ZM35.52 20.54C33.87 20.73 33.37 23.27 34.88 24.01C37.12 25.07 38.85 26.97 39.93 29.18C40.96 30.85 43.85 29.63 43.34 27.71C42.32 24.97 40.17 22.71 37.7 21.19C37.05 20.8 36.31 20.41 35.52 20.54Z" />
	<path id="Layer" class="shp1" d="M37.67 7.95C38.38 7.79 39.07 8.12 39.73 8.34C47.45 11.09 53.7 17.65 56.02 25.51C56.31 26.69 55.27 27.96 54.05 27.84C53 27.82 52.3 26.84 52.08 25.9C49.82 19.07 44.1 13.52 37.2 11.46C35.63 10.8 36.02 8.23 37.67 7.95Z" />
	<path id="Layer" class="shp1" d="M27.32 11.6C29.48 11.34 31.62 12.99 32.02 15.11C32.52 17.28 31.1 19.69 28.93 20.25C25.96 21 23.31 22.93 21.7 25.53C19.66 28.69 19.28 32.81 20.62 36.32C22.42 41.27 27.72 44.64 32.97 44.14C37.15 43.83 41.05 41.2 42.88 37.43C43.51 36.27 43.65 34.89 44.44 33.82C45.54 32.21 47.77 31.52 49.59 32.22C51.48 32.87 52.84 34.97 52.42 36.96C51.2 42.28 47.73 47.01 43.1 49.89C39.26 52.29 34.62 53.39 30.12 52.96C22.85 52.4 16.11 47.68 13.03 41.08C10 34.85 10.38 27.1 14 21.19C16.9 16.39 21.8 12.73 27.32 11.6Z" />
	<path id="Layer" class="shp1" d="M36.73 14.08C37.25 14.01 37.72 14.28 38.2 14.44C43.48 16.55 47.77 21.03 49.63 26.4C50.01 27.4 49.33 28.58 48.31 28.82C47.34 29.1 46.26 28.45 45.98 27.5C44.36 23.11 40.79 19.48 36.4 17.84C35.54 17.55 34.93 16.63 35.07 15.72C35.18 14.88 35.89 14.18 36.73 14.08Z" />
	<path id="Layer" class="shp1" d="M35.52 20.54C36.31 20.41 37.05 20.8 37.7 21.19C40.17 22.71 42.32 24.97 43.34 27.71C43.85 29.63 40.96 30.85 39.93 29.18C38.85 26.97 37.12 25.07 34.88 24.01C33.37 23.27 33.87 20.73 35.52 20.54Z" />
</svg>