<svg xmlns="http://www.w3.org/2000/svg" xmlns:xlink="http://www.w3.org/1999/xlink" width="60" height="60" viewBox="0 0 60 60">
  <defs>
    <linearGradient id="linear-gradient" x1="0.106" y1="0.166" x2="1.037" y2="1.042" gradientUnits="objectBoundingBox">
      <stop offset="0" stop-color="#dd3b22"/>
      <stop offset="1" stop-color="#f4842d"/>
    </linearGradient>
  </defs>
  <g id="Group_2" data-name="Group 2" transform="translate(-610.23 -420.23)">
    <rect id="Rectangle_23" data-name="Rectangle 23" width="60" height="60" rx="13.52" transform="translate(610.23 420.23)" fill="#f4842d"/>
    <path id="Path_3" data-name="Path 3" d="M670.122,466.519V453.506L656.235,439.62l-11.528-5.459-5.764-2.751s-7.074,4.716-8.384,5.5-5.371,11.4-6.157,13.231,2.221,13.733,2.221,13.733l16.168,16.267H656.5A13.624,13.624,0,0,0,670.122,466.519Z" transform="translate(0.108 0.086)" fill="url(#linear-gradient)"/>
    <path id="Path_4" data-name="Path 4" d="M640.148,430.89a19.26,19.26,0,0,0-9.177,36.192V450.148a9.179,9.179,0,0,1,7.447-9.014v3.25a6.018,6.018,0,1,0,7.494,7.494h3.25a9.179,9.179,0,0,1-15.032,5.2v11.368a19.287,19.287,0,0,0,16.85-2.374v3.335h8.426V450.148A19.258,19.258,0,0,0,640.148,430.89Zm0,22.793a3.535,3.535,0,1,1,3.535-3.535A3.534,3.534,0,0,1,640.148,453.683Zm6.018-3.535a6.018,6.018,0,0,0-6.018-6.018V440.97a9.177,9.177,0,0,1,9.177,9.177Zm5.376,0a11.394,11.394,0,0,0-11.394-11.394v-3.124a14.518,14.518,0,0,1,14.518,14.518Z" transform="translate(0.082 0.082)" fill="#fff"/>
  </g>
</svg>
