<svg xmlns="http://www.w3.org/2000/svg" viewBox="0 0 64 64" width="64" height="64">
	<style>
		tspan { white-space:pre }
		.shp0 { fill: #e90000;stroke: #ff0000;stroke-width: 0.626 } 
	</style>
	<g id="Layer">
		<g id="Layer">
			<path id="PODCASTINDEX" fill-rule="evenodd" class="shp0" d="M6.11 28.85C6.45 29.13 6.61 29.53 6.61 30.04C6.61 30.54 6.5 30.97 6.26 31.35C6.03 31.72 5.69 32.02 5.27 32.23C4.84 32.44 4.35 32.54 3.81 32.54L1.99 32.54L1.36 35.38L0.59 35.38L2.13 28.43L4.72 28.43C5.32 28.43 5.78 28.57 6.11 28.85ZM5.3 31.43C5.66 31.14 5.83 30.71 5.83 30.15C5.83 29.45 5.4 29.1 4.52 29.1L2.75 29.1L2.14 31.88L3.88 31.88C4.48 31.88 4.95 31.73 5.3 31.43ZM7.62 35.09C7.32 34.86 7.17 34.49 7.17 33.98C7.17 33.79 7.19 33.58 7.24 33.34L7.56 31.9C7.87 30.5 8.65 29.79 9.91 29.79C10.42 29.79 10.82 29.91 11.13 30.15C11.43 30.39 11.58 30.76 11.58 31.26C11.58 31.45 11.56 31.66 11.51 31.9L11.19 33.34C10.88 34.74 10.11 35.45 8.86 35.45C8.34 35.45 7.93 35.33 7.62 35.09ZM9.99 34.54C10.26 34.3 10.46 33.91 10.58 33.37L10.9 31.93C10.95 31.74 10.97 31.55 10.97 31.36C10.97 30.67 10.59 30.32 9.83 30.32C9.39 30.32 9.03 30.45 8.76 30.7C8.49 30.95 8.29 31.36 8.16 31.93L7.84 33.37C7.8 33.57 7.77 33.75 7.77 33.9C7.77 34.57 8.16 34.91 8.94 34.91C9.37 34.91 9.72 34.79 9.99 34.54ZM13.45 29.86L15.39 29.86C15.88 29.86 16.28 29.98 16.56 30.2C16.85 30.43 16.99 30.79 16.99 31.28C16.99 31.49 16.96 31.72 16.91 31.97L16.62 33.28C16.46 34.01 16.16 34.54 15.73 34.88C15.3 35.22 14.79 35.38 14.19 35.38L12.23 35.38L13.45 29.86ZM14.3 34.86C15.21 34.86 15.78 34.34 16.01 33.31L16.3 31.99C16.35 31.73 16.38 31.52 16.38 31.36C16.38 31.02 16.29 30.78 16.11 30.62C15.92 30.47 15.66 30.39 15.31 30.39L13.94 30.39L12.96 34.86L14.3 34.86ZM18.38 35.09C18.07 34.86 17.92 34.49 17.92 33.98C17.92 33.79 17.94 33.58 17.99 33.34L18.31 31.9C18.47 31.16 18.75 30.63 19.17 30.29C19.59 29.96 20.1 29.79 20.71 29.79C21.24 29.79 21.65 29.92 21.94 30.18C22.23 30.43 22.37 30.79 22.37 31.24C22.37 31.33 22.36 31.41 22.35 31.5L21.74 31.5C21.75 31.46 21.76 31.39 21.76 31.3C21.76 30.99 21.66 30.75 21.47 30.58C21.28 30.41 21 30.32 20.63 30.32C20.18 30.32 19.81 30.45 19.53 30.7C19.24 30.95 19.04 31.36 18.91 31.93L18.59 33.37C18.54 33.57 18.52 33.74 18.52 33.88C18.52 34.23 18.63 34.49 18.84 34.66C19.05 34.83 19.34 34.91 19.71 34.91C20.12 34.91 20.46 34.81 20.71 34.61C20.97 34.41 21.15 34.12 21.24 33.76L21.25 33.73L21.84 33.73L21.83 33.76C21.69 34.28 21.43 34.7 21.05 35C20.67 35.3 20.18 35.45 19.61 35.45C19.09 35.45 18.68 35.33 18.38 35.09ZM26.07 34.06L23.64 34.06L22.87 35.38L22.23 35.38L25.52 29.86L26.03 29.86L26.89 35.38L26.26 35.38L26.07 34.06ZM26 33.56L25.6 30.68L23.93 33.56L26 33.56ZM28.25 35.09C27.96 34.86 27.81 34.53 27.81 34.1C27.81 33.98 27.82 33.89 27.83 33.82L28.42 33.82C28.41 33.87 28.41 33.93 28.41 34.01C28.41 34.62 28.79 34.92 29.54 34.92C30.05 34.92 30.44 34.81 30.71 34.58C30.98 34.36 31.11 34.05 31.11 33.66C31.11 33.44 31.04 33.27 30.9 33.14C30.76 33.02 30.55 32.93 30.25 32.87L29.61 32.75C28.83 32.61 28.44 32.23 28.44 31.61C28.44 31.24 28.53 30.91 28.71 30.64C28.89 30.37 29.14 30.16 29.47 30.01C29.79 29.87 30.17 29.79 30.58 29.79C31.06 29.79 31.44 29.9 31.73 30.12C32.01 30.35 32.16 30.68 32.16 31.12C32.16 31.21 32.15 31.28 32.15 31.33L31.55 31.33C31.56 31.23 31.57 31.17 31.57 31.13C31.57 30.57 31.23 30.3 30.54 30.3C30.08 30.3 29.71 30.41 29.45 30.63C29.18 30.86 29.04 31.14 29.04 31.5C29.04 31.7 29.11 31.87 29.25 31.99C29.38 32.12 29.59 32.2 29.86 32.25L30.53 32.37C30.92 32.44 31.22 32.57 31.42 32.76C31.63 32.95 31.73 33.21 31.73 33.54C31.73 34.14 31.53 34.61 31.13 34.94C30.73 35.27 30.19 35.43 29.49 35.43C28.96 35.43 28.54 35.32 28.25 35.09ZM37.08 30.39L35.44 30.39L34.35 35.38L33.75 35.38L34.84 30.39L33.21 30.39L33.33 29.86L37.2 29.86L37.08 30.39ZM40.76 28.38L41.53 28.38L39.99 35.38L39.22 35.38L40.76 28.38ZM47.36 29.86L46.14 35.38L45.54 35.38L43.56 30.94L42.58 35.38L41.98 35.38L43.2 29.86L43.8 29.86L45.78 34.3L46.77 29.86L47.36 29.86ZM48.97 29.86L50.91 29.86C51.41 29.86 51.8 29.98 52.09 30.2C52.37 30.43 52.52 30.79 52.52 31.28C52.52 31.49 52.49 31.72 52.43 31.97L52.14 33.28C51.98 34.01 51.69 34.54 51.26 34.88C50.83 35.22 50.31 35.38 49.71 35.38L47.76 35.38L48.97 29.86ZM49.83 34.86C50.74 34.86 51.3 34.34 51.53 33.31L51.82 31.99C51.88 31.73 51.9 31.52 51.9 31.36C51.9 31.02 51.81 30.78 51.63 30.62C51.45 30.47 51.18 30.39 50.84 30.39L49.46 30.39L48.48 34.86L49.83 34.86ZM54.88 30.39L54.46 32.31L56.91 32.31L56.79 32.84L54.34 32.84L53.9 34.86L56.77 34.86L56.64 35.38L53.17 35.38L54.39 29.86L57.86 29.86L57.74 30.39L54.88 30.39ZM59.99 32.5L58.8 29.86L59.51 29.86L60.45 32.04L62.34 29.86L63.04 29.86L60.7 32.5L61.99 35.38L61.27 35.38L60.24 32.96L58.15 35.38L57.44 35.38L59.99 32.5Z" />
		</g>
	</g>
</svg>