<svg version="1.2" xmlns="http://www.w3.org/2000/svg" viewBox="0 0 400 400" width="400" height="400">
	<title>Podimo</title>
	<defs>
		<clipPath clipPathUnits="userSpaceOnUse" id="cp1">
			<path d="m-66.77-89.06h1900.36v570.41h-1900.36z" />
		</clipPath>
	</defs>
	<style>
		.s0 { fill: none;stroke: #03ddac;stroke-linecap: round;stroke-width: 40.1 } 
		.s1 { fill: #03ddac } 
		.s2 { fill: none;stroke: #03ddac;stroke-linecap: round;stroke-width: 40.8 } 
	</style>
	<g id="Clip-Path" clip-path="url(#cp1)">
		<g id="Layer">
			<g id="Layer">
				<g id="Layer">
					<path id="Layer" class="s0" d="m213.2 38.4c-104.6-5.1-180.7 77-175 174.8" />
				</g>
			</g>
			<g id="Layer">
				<g id="Layer">
					<path id="Layer" class="s0" d="m187.7 362.5c104.5 5.2 180.6-77 174.9-174.8" />
				</g>
			</g>
			<g id="Layer">
				<path id="Layer" class="s1" d="m221.5 176.1c13.5 11.8 14.9 32.2 3.1 45.7c-11.7 13.5-32.2 14.9-45.6 3.2c-13.5-11.7-15-32.2-3.3-45.7c11.7-13.6 32.2-15 45.7-3.3z" />
				<g id="Layer">
				</g>
			</g>
			<g id="Layer">
				<g id="Layer">
					<path id="Layer" class="s2" d="m110.6 288.8c0 0 0.6-31.9 0.6-88.3c0-56.3 46.3-89.5 89.1-89.5c38.8 0 88.9 34.5 88.9 89.4c0 54.9-44.2 95.3-102.8 89" />
				</g>
			</g>
		</g>
	</g>
</svg>