<svg width="167" height="167" xmlns="http://www.w3.org/2000/svg" version="1.0">

 <g>
  <title>Layer 1</title>
  <rect id="svg_1" fill="#000000" ry="37" height="167" width="167" xmlns="http://www.w3.org/2000/svg"/>
  <path id="svg_2" d="m30.25,29.75l110,0l0,105l-110,0l0,-105z" opacity="undefined" fill="#0c7bb3"/>
  <path id="svg_3" d="m10,84l0,53l140,0l0,-117l-120,0l0,84l-20,-20zm103.24998,-42.00002c8.25002,7.25002 12.75002,11.00002 17.75002,27.00002c2,6 2,9 2,16c-1,11 -3,17 -8,25l-5,10c-3,6 -7,10 -13,12l-3,1c-1,-1 9,-35 10,-36s2,0 3,2l3,2l1,-2c4,-11 4,-22 -1,-32c-7,-15 -20,-24 -37,-24c-28,0 -47,28 -37,56l1,2l2,-3l4,-2l10,36l-2,0c-7,-2 -11,-5 -14,-12l-6,-10c-4,-8 -6,-14 -7,-25c0,-7 0,-10 2,-16c8,-26 38.24999,-46.99998 72.99996,-29.75001l4.25002,2.74999zm-49.24998,51.00002c3,2 11,34 10,37c-1,2 -6,4 -7,2l-11,-40c1,-1 5,-1 8,1zm47,-1c0,2 -10,40 -12,41c0,1 -5,-1 -6,-3c-2,-2 7,-34 10,-37c2,-2 7,-3 8,-1z"/>
 </g>
</svg>