<svg xmlns="http://www.w3.org/2000/svg" viewBox="0 0 400 400" width="64" height="64">
	<style>
		tspan { white-space:pre }
		.shp0 { fill: #24045c } 
		.shp1 { fill: #8c7cac } 
		.shp2 { fill: #9c8cb4 } 
		.shp3 { fill: #65518d } 
		.shp4 { fill: #846ca4 } 
		.shp5 { fill: #3c2474 } 
		.shp6 { fill: #4c347c } 
		.shp7 { fill: #341464 } 
	</style>
	<g id="svgg">
		<path id="path1" fill-rule="evenodd" class="shp0" d="M324.48 0.43C324.56 0.67 326.55 1.03 329.01 1.24C335.57 1.8 337.36 2.04 337.78 2.44C337.99 2.64 338.61 2.8 339.15 2.8C339.7 2.8 340.7 2.98 341.37 3.19C350.08 5.99 351.99 6.66 353.11 7.28C353.83 7.67 354.78 8 355.21 8C355.64 8 356 8.18 356 8.4C356 8.62 356.36 8.8 356.8 8.8C357.24 8.8 357.6 8.95 357.6 9.14C357.6 9.32 358.45 9.9 359.5 10.43C360.55 10.96 361.49 11.48 361.6 11.6C361.71 11.71 362.29 12.05 362.89 12.37C363.5 12.67 364.34 13.26 364.78 13.66C365.21 14.07 365.71 14.4 365.88 14.4C366.06 14.4 366.75 14.91 367.41 15.54C368.08 16.16 368.82 16.75 369.07 16.84C370.74 17.43 380.03 26.63 382.4 30.03C382.93 30.78 383.46 31.49 383.58 31.6C384.25 32.21 387.2 36.33 387.2 36.66C387.2 36.88 387.51 37.41 387.9 37.84C390.17 40.43 394.26 49.59 396 56C396.26 56.99 396.64 58.21 396.84 58.72C397.04 59.22 397.2 60.13 397.2 60.74C397.2 61.34 397.36 62.01 397.56 62.22C397.96 62.64 398.2 64.42 398.76 70.99C398.97 73.45 399.33 75.44 399.57 75.52C400.18 75.73 400.18 324.27 399.57 324.48C399.33 324.56 398.97 326.55 398.76 329.01C398.2 335.57 397.96 337.36 397.56 337.78C397.36 337.99 397.2 338.61 397.2 339.15C397.2 339.7 397.02 340.7 396.81 341.37C394.01 350.08 393.34 351.99 392.72 353.11C392.32 353.83 392 354.78 392 355.21C392 355.64 391.82 356 391.6 356C391.38 356 391.2 356.36 391.2 356.8C391.2 357.24 391.05 357.6 390.86 357.6C390.68 357.6 390.1 358.45 389.57 359.5C389.04 360.55 388.52 361.49 388.4 361.6C388.29 361.71 387.94 362.29 387.63 362.89C387.33 363.5 386.74 364.34 386.34 364.78C385.93 365.21 385.6 365.71 385.6 365.88C385.6 366.06 385.09 366.75 384.46 367.41C383.84 368.08 383.25 368.82 383.16 369.07C382.56 370.74 373.37 380.03 369.97 382.4C369.22 382.93 368.51 383.46 368.4 383.58C367.79 384.25 363.67 387.2 363.34 387.2C363.13 387.2 362.59 387.51 362.15 387.9C359.57 390.17 350.41 394.26 344 396C343.01 396.26 341.79 396.64 341.28 396.84C340.78 397.04 339.87 397.2 339.26 397.2C338.66 397.2 337.99 397.36 337.78 397.56C337.36 397.96 335.57 398.2 329.01 398.76C326.55 398.97 324.56 399.33 324.48 399.57C324.27 400.18 75.73 400.18 75.52 399.57C75.44 399.33 73.45 398.97 70.99 398.76C64.42 398.2 62.64 397.96 62.22 397.56C62.01 397.36 61.39 397.2 60.85 397.2C60.3 397.2 59.3 397.02 58.63 396.81C49.92 394.01 48.01 393.34 46.89 392.72C46.17 392.32 45.22 392 44.79 392C44.35 392 44 391.82 44 391.6C44 391.38 43.64 391.2 43.2 391.2C42.76 391.2 42.4 391.05 42.4 390.86C42.4 390.68 41.55 390.1 40.5 389.57C39.45 389.04 38.51 388.52 38.4 388.4C38.29 388.29 37.71 387.94 37.11 387.63C36.51 387.33 35.66 386.74 35.22 386.34C34.79 385.93 34.29 385.6 34.12 385.6C33.94 385.6 33.26 385.09 32.59 384.46C31.92 383.84 31.18 383.25 30.93 383.16C29.26 382.56 19.97 373.37 17.6 369.97C17.07 369.22 16.54 368.51 16.42 368.4C15.75 367.79 12.8 363.67 12.8 363.34C12.8 363.13 12.48 362.59 12.1 362.15C9.83 359.57 5.74 350.41 4 344C3.74 343.01 3.35 341.79 3.16 341.28C2.96 340.78 2.8 339.87 2.8 339.26C2.8 338.66 2.64 337.99 2.44 337.78C2.04 337.36 1.8 335.57 1.24 329.01C1.03 326.55 0.67 324.56 0.43 324.48C-0.18 324.27 -0.18 75.73 0.43 75.52C0.67 75.44 1.03 73.45 1.24 70.99C1.8 64.42 2.04 62.64 2.44 62.22C2.64 62.01 2.8 61.39 2.8 60.85C2.8 60.3 2.98 59.3 3.19 58.63C5.99 49.92 6.66 48.01 7.28 46.89C7.67 46.17 8 45.22 8 44.79C8 44.35 8.18 44 8.4 44C8.62 44 8.8 43.64 8.8 43.2C8.8 42.76 8.95 42.4 9.14 42.4C9.32 42.4 9.9 41.55 10.43 40.5C10.96 39.45 11.48 38.51 11.6 38.4C11.71 38.29 12.05 37.71 12.37 37.11C12.67 36.51 13.26 35.66 13.66 35.22C14.07 34.79 14.4 34.29 14.4 34.12C14.4 33.94 14.91 33.26 15.54 32.59C16.16 31.92 16.75 31.18 16.84 30.93C17.43 29.26 26.63 19.97 30.03 17.6C30.78 17.07 31.49 16.54 31.6 16.42C32.21 15.75 36.33 12.8 36.66 12.8C36.88 12.8 37.41 12.48 37.84 12.1C40.43 9.83 49.59 5.74 56 4C56.99 3.74 58.21 3.35 58.72 3.16C59.22 2.96 60.13 2.8 60.74 2.8C61.34 2.8 62.01 2.64 62.22 2.44C62.64 2.04 64.42 1.8 70.99 1.24C73.45 1.03 75.44 0.67 75.52 0.43C75.73 -0.18 324.27 -0.18 324.48 0.43ZM139.58 104.4L126.59 104.4C111.49 104.4 112.12 104.17 116.79 108C119.58 110.29 124.82 115.53 127.39 118.61C128.49 119.93 129.48 121.09 129.6 121.2C129.72 121.31 130.44 122.21 131.21 123.2C131.97 124.19 132.81 125.23 133.08 125.52C133.35 125.8 133.89 126.56 134.27 127.22C134.66 127.87 135.11 128.4 135.29 128.4C135.46 128.4 135.6 128.63 135.6 128.9C135.6 129.18 136.14 130.03 136.8 130.8C137.46 131.57 138 132.43 138 132.7C138 132.97 138.18 133.2 138.4 133.2C138.62 133.2 138.8 133.47 138.8 133.8C138.8 134.13 138.98 134.4 139.2 134.4C139.42 134.4 139.6 134.67 139.6 135C139.6 135.33 139.78 135.6 140 135.6C140.22 135.6 140.4 135.79 140.4 136.03C140.4 136.26 140.91 137.21 141.53 138.13C142.15 139.05 142.98 140.52 143.39 141.4C143.79 142.28 145.18 145.15 146.46 147.78C147.75 150.42 148.8 152.89 148.8 153.28C148.8 153.68 148.98 154 149.2 154C149.42 154 149.6 154.35 149.6 154.78C149.6 155.2 149.78 155.66 150 155.8C150.22 155.94 150.4 156.49 150.4 157.02C150.4 157.56 150.58 158 150.8 158C151.02 158 151.2 158.54 151.2 159.2C151.2 159.86 151.38 160.4 151.6 160.4C151.82 160.4 152 160.84 152 161.38C152 161.91 152.18 162.46 152.4 162.6C152.62 162.74 152.8 163.37 152.8 164C152.8 164.63 152.98 165.26 153.2 165.4C153.42 165.54 153.6 166.17 153.6 166.8C153.6 167.43 153.78 168.06 154 168.2C154.22 168.34 154.4 169.07 154.4 169.82C154.4 170.58 154.58 171.2 154.8 171.2C155.02 171.2 155.2 171.91 155.2 172.78C155.2 173.64 155.38 174.46 155.6 174.6C155.82 174.74 156 175.73 156 176.8C156 177.87 156.18 178.86 156.4 179C156.62 179.14 156.8 180.41 156.8 181.82C156.8 183.28 156.97 184.4 157.2 184.4C157.44 184.4 157.6 186.13 157.6 188.78C157.6 191.26 157.77 193.26 158 193.4C158.24 193.55 158.4 196 158.4 199.4C158.4 202.8 158.24 205.25 158 205.4C157.77 205.54 157.6 207.53 157.6 210C157.6 212.47 157.43 214.46 157.2 214.6C156.98 214.74 156.8 215.91 156.8 217.2C156.8 218.49 156.62 219.66 156.4 219.8C156.18 219.94 156 220.94 156 222.02C156 223.11 155.84 224 155.64 224C155.44 224 155.18 224.76 155.06 225.7C154.63 228.96 154.31 230.41 153.96 230.63C153.76 230.75 153.6 231.46 153.6 232.2C153.6 232.94 153.42 233.66 153.2 233.8C152.98 233.94 152.8 234.48 152.8 235C152.8 235.52 152.62 236.06 152.4 236.2C152.18 236.34 152 236.88 152 237.4C152 237.92 151.86 238.44 151.68 238.55C151.5 238.66 151.11 239.67 150.8 240.8C150.49 241.93 150.1 242.94 149.92 243.05C149.74 243.16 149.6 243.69 149.6 244.22C149.6 244.76 149.42 245.2 149.2 245.2C148.98 245.2 148.8 245.45 148.8 245.76C148.8 246.07 148.46 247.02 148.03 247.86C147.61 248.71 146.25 251.56 144.99 254.2C143.74 256.84 142.56 259.06 142.36 259.13C142.16 259.21 142 259.61 142 260.03C142 260.45 141.82 260.8 141.6 260.8C141.38 260.8 141.2 261.04 141.2 261.32C141.2 261.61 140.84 262.24 140.4 262.71C139.96 263.18 139.6 263.84 139.6 264.18C139.6 264.52 139.42 264.8 139.2 264.8C138.98 264.8 138.8 265.07 138.8 265.4C138.8 265.73 138.62 266 138.4 266C138.18 266 138 266.27 138 266.6C138 266.93 137.82 267.2 137.6 267.2C137.38 267.2 137.2 267.47 137.2 267.8C137.2 268.13 137.06 268.4 136.9 268.4C136.74 268.4 136.15 269.08 135.6 269.9C135.06 270.73 134.5 271.49 134.37 271.6C134.24 271.71 133.97 272.09 133.77 272.45C132.03 275.54 124.5 283.64 115.65 291.92C112.53 294.85 112.36 294.8 126.46 294.8L138.88 294.8L140.69 292.9C141.68 291.86 143.59 289.65 144.94 288C146.28 286.35 147.52 284.94 147.69 284.87C147.86 284.79 148 284.52 148 284.27C148 284.01 148.54 283.23 149.2 282.52C149.86 281.82 150.4 281.09 150.4 280.9C150.4 280.71 150.74 280.19 151.15 279.75C151.56 279.31 152.12 278.52 152.4 278C152.68 277.48 153.07 276.86 153.26 276.63C153.87 275.89 155.6 273.17 155.6 272.95C155.6 272.84 156.14 271.96 156.8 271C157.46 270.04 158 268.97 158 268.63C158 268.28 158.18 268 158.4 268C158.62 268 158.8 267.73 158.8 267.4C158.8 267.07 158.98 266.8 159.2 266.8C159.42 266.8 159.6 266.44 159.6 266C159.6 265.56 159.78 265.2 160 265.2C160.22 265.2 160.4 264.84 160.4 264.4C160.4 263.96 160.58 263.6 160.8 263.6C161.02 263.6 161.2 263.24 161.2 262.8C161.2 262.36 161.38 262 161.6 262C161.82 262 162 261.64 162 261.2C162 260.76 162.18 260.4 162.4 260.4C162.62 260.4 162.8 260.04 162.8 259.6C162.8 259.16 162.98 258.8 163.2 258.8C163.42 258.8 163.6 258.44 163.6 258C163.6 257.56 163.78 257.2 164 257.2C164.22 257.2 164.4 256.96 164.4 256.68C164.4 256.39 164.76 255.41 165.2 254.49C165.64 253.58 166 252.56 166 252.22C166 251.88 166.18 251.6 166.4 251.6C166.62 251.6 166.8 251.25 166.8 250.82C166.8 250.4 166.98 249.94 167.2 249.8C167.42 249.66 167.6 249.15 167.6 248.66C167.6 248.16 167.75 247.59 167.93 247.38C168.24 247.02 169.95 241.78 171.41 236.72C172.69 232.27 173.87 226.2 174.26 222C174.38 220.79 174.63 219.63 174.84 219.42C175.04 219.21 175.2 217.56 175.2 215.74C175.2 213.93 175.38 212.34 175.6 212.2C175.85 212.04 176 207.07 176 198.6C176 190.13 175.85 185.16 175.6 185C175.38 184.86 175.2 183.33 175.2 181.6C175.2 179.87 175.02 178.34 174.8 178.2C174.58 178.06 174.4 176.98 174.4 175.8C174.4 174.62 174.25 173.55 174.06 173.44C173.87 173.32 173.6 172.18 173.46 170.91C173.23 168.88 171.95 163.36 170.74 159.2C170.52 158.43 170.24 157.3 170.12 156.69C170 156.09 169.75 155.49 169.55 155.37C169.36 155.25 169.2 154.8 169.2 154.37C169.2 153.62 169.06 153.23 168.06 151.31C167.81 150.81 167.6 150.06 167.6 149.63C167.6 149.2 167.42 148.74 167.2 148.6C166.98 148.46 166.8 148 166.8 147.58C166.8 147.15 166.62 146.8 166.4 146.8C166.18 146.8 166 146.53 166 146.21C166 145.89 165.64 144.98 165.2 144.2C164.76 143.42 164.4 142.42 164.4 141.99C164.4 141.56 164.22 141.2 164 141.2C163.78 141.2 163.6 140.84 163.6 140.4C163.6 139.96 163.42 139.6 163.2 139.6C162.98 139.6 162.8 139.24 162.8 138.8C162.8 138.36 162.62 138 162.4 138C162.18 138 162 137.64 162 137.2C162 136.76 161.87 136.4 161.7 136.4C161.53 136.4 160.95 135.41 160.4 134.2C159.85 132.99 159.3 132 159.18 132C159.05 132 158.7 131.37 158.4 130.6C158.1 129.83 157.75 129.2 157.62 129.2C157.5 129.2 157.14 128.62 156.83 127.9C156.51 127.19 155.96 126.15 155.59 125.6C155.23 125.05 154.09 123.34 153.07 121.8C150.43 117.83 148.65 115.34 147.55 114.08C147.03 113.48 146.08 112.3 145.45 111.45C144.81 110.61 143.55 109.17 142.65 108.26C141.74 107.35 140.68 106.11 140.29 105.5L139.58 104.4ZM160.2 104.8C160.06 105.03 160.22 105.48 160.56 105.82C161.47 106.72 170 119.5 170 119.95C170 120.16 170.13 120.39 170.3 120.47C170.47 120.54 171.03 121.45 171.56 122.5C172.09 123.55 172.68 124.4 172.86 124.4C173.05 124.4 173.2 124.76 173.2 125.2C173.2 125.64 173.38 126 173.6 126C173.82 126 174 126.36 174 126.8C174 127.24 174.18 127.6 174.4 127.6C174.62 127.6 174.8 127.96 174.8 128.4C174.8 128.84 174.98 129.2 175.2 129.2C175.42 129.2 175.6 129.56 175.6 130C175.6 130.44 175.78 130.8 176 130.8C176.22 130.8 176.4 131.04 176.4 131.32C176.4 131.61 176.74 132.56 177.15 133.43C177.95 135.11 179.05 137.63 179.64 139.1C180.55 141.39 180.92 142.25 181.25 142.9C181.44 143.28 181.6 143.86 181.6 144.2C181.6 144.82 181.78 145.25 182.91 147.4L183.55 148.6L201.06 148.7C211.93 148.77 218.72 148.96 218.96 149.2C219.18 149.42 219.73 149.6 220.18 149.61C223.49 149.63 232.36 154.77 234.94 158.16C235.52 158.91 236.22 159.78 236.49 160.08C237.1 160.74 237.87 162.04 238.92 164.2C239.35 165.08 239.86 166.11 240.05 166.5C240.24 166.88 240.4 167.73 240.4 168.4C240.4 169.06 240.58 169.6 240.8 169.6C241.04 169.6 241.2 171.26 241.2 173.78C241.2 176.13 241.03 178.06 240.8 178.2C240.58 178.34 240.4 179.07 240.4 179.82C240.4 180.58 240.22 181.2 240 181.2C239.78 181.2 239.6 181.54 239.6 181.96C239.6 182.86 238.1 185.87 237.1 186.97C236.72 187.4 236.4 187.9 236.4 188.08C236.4 188.43 231.36 193.6 231.01 193.6C230.91 193.6 229.87 194.19 228.71 194.91C224.91 197.28 220.83 198.8 218.29 198.8C217.5 198.8 216.74 198.98 216.6 199.2C216.44 199.45 211.86 199.6 204.18 199.6L192 199.6L192 205.18C192 208.46 191.84 210.85 191.6 211C191.38 211.14 191.2 212.93 191.2 215C191.2 217.07 191.02 218.86 190.8 219C190.58 219.14 190.4 220.32 190.4 221.62C190.4 222.94 190.22 224 190 224C189.78 224 189.6 224.89 189.6 225.98C189.6 227.06 189.42 228.06 189.2 228.2C188.68 228.52 188.68 233.2 189.2 233.2C189.42 233.2 189.6 233.47 189.6 233.8C189.6 234.13 189.78 234.4 190 234.4C190.22 234.4 190.4 234.67 190.4 235C190.4 235.33 190.58 235.6 190.8 235.6C191.02 235.6 191.2 235.87 191.2 236.2C191.2 236.53 191.35 236.8 191.53 236.8C191.72 236.8 192.12 237.29 192.43 237.9C192.75 238.5 193.14 239.18 193.31 239.4C193.47 239.62 196.07 243.49 199.07 248C202.08 252.51 204.69 256.26 204.87 256.33C205.05 256.41 205.2 256.72 205.2 257.03C205.2 257.35 205.38 257.6 205.6 257.6C205.82 257.6 206 257.79 206 258.02C206 258.25 206.36 258.82 206.8 259.29C207.24 259.76 207.6 260.39 207.6 260.68C207.6 260.96 207.75 261.2 207.94 261.2C208.12 261.2 208.48 261.66 208.73 262.21C208.99 262.77 209.38 263.45 209.6 263.71C210.5 264.78 213.6 269.69 213.6 270.03C213.6 270.23 213.75 270.4 213.93 270.4C214.12 270.4 214.52 270.89 214.83 271.5C215.15 272.11 215.72 272.95 216.1 273.38C216.49 273.8 216.8 274.3 216.8 274.49C216.8 274.68 217.16 275.22 217.6 275.69C218.04 276.16 218.4 276.79 218.4 277.07C218.4 277.36 218.53 277.6 218.7 277.61C218.87 277.61 221.52 281.47 224.6 286.18L230.2 294.75L262.1 294.78C295.38 294.8 295.42 294.8 293.2 293.2C292.76 292.88 292.4 292.3 292.4 291.91C292.4 291.52 292.25 291.2 292.06 291.2C291.88 291.2 291.52 290.74 291.27 290.19C291.01 289.63 290.62 288.95 290.4 288.69C289.48 287.58 284.8 280.3 284.8 279.96C284.8 279.76 284.65 279.6 284.47 279.6C284.29 279.6 283.88 279.11 283.57 278.5C283.25 277.89 282.69 277.05 282.3 276.63C281.92 276.2 281.6 275.61 281.6 275.32C281.6 275.04 281.45 274.8 281.27 274.8C281.08 274.8 280.68 274.31 280.37 273.7C280.06 273.1 279.49 272.25 279.1 271.82C278.71 271.4 278.4 270.83 278.4 270.56C278.4 270.29 278.25 270.01 278.06 269.93C277.87 269.86 273.98 264.13 269.42 257.2C264.85 250.27 260.96 244.54 260.76 244.47C260.56 244.39 260.4 244.11 260.4 243.84C260.4 243.57 260.08 243 259.7 242.57C259.31 242.15 258.75 241.31 258.43 240.7C258.12 240.09 257.71 239.6 257.53 239.6C257.35 239.6 257.2 239.38 257.19 239.1C257.19 238.82 256.84 238.15 256.42 237.61C255.68 236.65 255.9 235.6 256.84 235.6C257.2 235.6 264.05 231.61 264.4 231.2C264.51 231.07 265.23 230.52 266 229.99C268.43 228.29 268.86 227.91 273.79 223C278.81 218 280.8 215.82 280.8 215.3C280.8 215.14 281.34 214.37 282 213.6C282.66 212.83 283.2 211.97 283.2 211.7C283.2 211.43 283.36 211.2 283.55 211.2C283.75 211.2 284.13 210.66 284.4 210C284.67 209.34 285.06 208.8 285.25 208.8C285.44 208.8 285.6 208.46 285.6 208.03C285.6 207.61 285.78 207.21 286 207.13C286.46 206.98 289.59 199.84 290.36 197.2C290.64 196.21 291.04 195.09 291.24 194.71C291.44 194.32 291.6 193.47 291.6 192.81C291.6 192.14 291.78 191.6 292 191.6C292.22 191.6 292.4 190.88 292.4 190C292.4 189.12 292.58 188.4 292.8 188.4C293.02 188.4 293.2 187.51 293.2 186.42C293.2 185.34 293.38 184.34 293.6 184.2C293.85 184.04 294 180.06 294 173.58C294 166.93 293.86 163.2 293.6 163.2C293.38 163.2 293.2 162.31 293.2 161.22C293.2 160.14 293.02 159.14 292.8 159C292.58 158.86 292.4 158.14 292.4 157.4C292.4 156.66 292.22 155.94 292 155.8C291.78 155.66 291.6 154.93 291.6 154.18C291.6 153.42 291.42 152.8 291.2 152.8C290.98 152.8 290.8 152.3 290.8 151.68C290.8 151.06 290.66 150.39 290.48 150.18C290.31 149.97 289.93 149.08 289.63 148.2C288.83 145.78 285.64 139.22 284.35 137.33C283.72 136.41 283.2 135.48 283.2 135.26C283.2 135.04 283.05 134.81 282.87 134.73C282.69 134.66 282.11 133.95 281.57 133.16C278.97 129.29 274.07 124.02 269.61 120.27C267.74 118.69 266.11 117.31 266 117.2C265.89 117.09 265.31 116.74 264.7 116.43C264.1 116.12 263.6 115.72 263.6 115.53C263.6 115.35 263.39 115.2 263.14 115.2C262.88 115.2 262.1 114.76 261.39 114.22C259.76 112.97 252.04 109.2 251.13 109.2C250.75 109.2 250.34 109.02 250.2 108.8C250.06 108.58 249.51 108.4 248.98 108.4C248.44 108.4 248 108.22 248 108C248 107.78 247.46 107.6 246.8 107.6C246.14 107.6 245.6 107.42 245.6 107.2C245.6 106.98 245.06 106.8 244.4 106.8C243.74 106.8 243.2 106.62 243.2 106.4C243.2 106.18 242.49 106 241.62 106C240.76 106 239.94 105.82 239.8 105.6C239.66 105.38 238.57 105.2 237.38 105.2C236.18 105.2 235.2 105.02 235.2 104.8C235.2 104.24 160.54 104.25 160.2 104.8ZM113.6 143.13L113.59 157.8L115.25 161.2C116.15 163.07 117.03 164.96 117.19 165.4C117.66 166.66 118.46 168.53 118.85 169.29C119.04 169.68 119.2 170.26 119.2 170.59C119.2 170.93 119.38 171.2 119.6 171.2C119.82 171.2 120 171.73 120 172.38C120 173.02 120.18 173.66 120.4 173.8C120.62 173.94 120.8 174.57 120.8 175.2C120.8 175.83 120.98 176.46 121.2 176.6C121.42 176.74 121.6 177.46 121.6 178.2C121.6 178.94 121.78 179.66 122 179.8C122.22 179.94 122.4 180.72 122.4 181.54C122.4 182.37 122.56 183.21 122.77 183.42C123.65 184.33 124.44 209.32 123.61 210.15C123.39 210.37 123.2 211.59 123.2 212.86C123.2 214.12 123.02 215.26 122.8 215.4C122.58 215.54 122.4 216.45 122.4 217.42C122.4 218.4 122.22 219.2 122 219.2C121.78 219.2 121.6 219.92 121.6 220.8C121.6 221.68 121.42 222.4 121.2 222.4C120.98 222.4 120.8 222.93 120.8 223.58C120.8 224.22 120.62 224.86 120.4 225C120.18 225.14 120 225.68 120 226.2C120 226.72 119.82 227.26 119.6 227.4C119.38 227.54 119.2 228.09 119.2 228.62C119.2 229.16 119.02 229.6 118.8 229.6C118.58 229.6 118.4 229.96 118.4 230.41C118.4 230.85 118.24 231.52 118.04 231.91C117.85 232.29 117.31 233.46 116.84 234.5C115.19 238.21 114.21 240.2 113.9 240.43C113.39 240.8 113.72 271.31 114.24 271.48C115.06 271.75 124.4 259.77 124.4 258.45C124.4 258.24 124.55 258.01 124.73 257.93C125.13 257.77 128 253.46 128.81 251.8C129.13 251.14 129.49 250.51 129.61 250.4C130.08 249.95 133.2 243.5 133.2 242.97C133.2 242.66 133.35 242.4 133.53 242.4C133.71 242.4 134.1 241.5 134.4 240.4C134.7 239.3 135.05 238.4 135.19 238.4C135.32 238.4 135.68 237.54 135.98 236.5C136.28 235.46 136.67 234.33 136.84 234C137.38 232.97 138.68 228.35 139.39 225C139.76 223.24 140.23 221.15 140.43 220.35C140.63 219.56 140.8 218.08 140.8 217.08C140.8 216.07 140.98 215.14 141.2 215C141.42 214.86 141.6 213.24 141.6 211.4C141.6 209.56 141.78 207.94 142 207.8C142.51 207.48 142.54 191.5 142.03 190.98C141.82 190.77 141.57 189.07 141.46 187.2C141.18 182.31 139.83 174.44 138.63 170.63C138.35 169.73 137.88 168.19 137.59 167.2C137.3 166.21 136.91 165.23 136.73 165.02C136.55 164.81 136.4 164.31 136.4 163.91C136.4 163.52 136.24 162.88 136.05 162.5C135.68 161.77 134.91 159.97 134.39 158.6C132.93 154.79 128 144.96 127.27 144.41C127.12 144.29 126.74 143.71 126.43 143.1C126.12 142.5 125.72 142 125.53 142C125.35 142 125.2 141.68 125.2 141.29C125.2 140.9 124.84 140.32 124.4 140C123.96 139.68 123.6 139.12 123.6 138.75C123.6 138.37 123.46 138.01 123.3 137.93C123.13 137.86 122.33 136.87 121.52 135.73C119.92 133.48 119.24 132.62 117.36 130.44C116.68 129.65 115.79 128.59 115.37 128.1C113.65 126.04 113.6 126.47 113.6 143.13ZM184.69 247.26C184.31 247.92 184 248.8 184 249.21C184 249.62 183.82 250.06 183.6 250.2C183.38 250.34 183.2 250.85 183.2 251.34C183.2 251.84 183.06 252.41 182.88 252.62C182.71 252.83 182.33 253.72 182.05 254.6C181.76 255.48 181.19 256.96 180.77 257.9C180.34 258.83 180 259.74 180 259.93C180 260.11 179.47 261.36 178.81 262.71C178.16 264.06 177.51 265.62 177.37 266.18C177.23 266.75 176.95 267.31 176.76 267.43C176.56 267.55 176.4 268 176.4 268.42C176.4 268.85 176.22 269.2 176 269.2C175.78 269.2 175.6 269.56 175.6 270C175.6 270.44 175.42 270.8 175.2 270.8C174.98 270.8 174.8 271.16 174.8 271.6C174.8 272.04 174.66 272.4 174.5 272.4C174.34 272.4 174 272.81 173.76 273.3C172.58 275.71 171.37 277.81 171.1 277.93C170.94 278.01 170.8 278.24 170.8 278.46C170.8 278.68 170.26 279.64 169.6 280.6C168.94 281.56 168.4 282.54 168.4 282.77C168.4 283.01 168.22 283.2 168 283.2C167.78 283.2 167.6 283.44 167.6 283.73C167.6 284.01 167.24 284.64 166.8 285.11C166.36 285.58 166 286.12 166 286.31C166 286.5 165.69 287 165.3 287.44C163.61 289.34 160.8 293.61 160.8 294.26C160.8 294.7 163.07 294.8 173.6 294.8L186.4 294.8L186.4 270.85C186.4 245.51 186.32 244.42 184.69 247.26Z" />
		<path id="path2" fill-rule="evenodd" class="shp1" d="M199.6 147.78C208.29 147.78 211.84 147.84 207.5 147.9C203.16 147.96 196.04 147.96 191.7 147.9C187.35 147.84 190.91 147.78 199.6 147.78ZM241.88 173.29C241.97 173.68 241.98 174.4 241.88 174.9C241.79 175.39 241.71 175.08 241.7 174.2C241.7 173.32 241.78 172.91 241.88 173.29ZM141.88 198.7C141.98 199.19 141.98 200 141.88 200.5C141.79 201 141.71 200.59 141.71 199.6C141.71 198.61 141.79 198.21 141.88 198.7ZM158.68 203.3C158.78 203.69 158.78 204.31 158.68 204.7C158.57 205.09 158.49 204.77 158.49 204C158.49 203.23 158.57 202.91 158.68 203.3Z" />
		<path id="path3" fill-rule="evenodd" class="shp2" d="M69.4 0.07L70.2 0.06L69.4 0.4C68.96 0.59 68.06 0.73 67.4 0.72L66.2 0.7L67.4 0.4C68.06 0.23 68.96 0.09 69.4 0.07ZM329.8 0.06L330.6 0.07C331.04 0.09 331.94 0.23 332.6 0.4L333.8 0.7L332.6 0.72C331.94 0.73 331.04 0.59 330.6 0.4L329.8 0.06ZM64.6 0.88C65.23 0.88 65.19 0.95 64.4 1.2C63.85 1.38 63.04 1.52 62.6 1.52C61.97 1.52 62.01 1.45 62.8 1.2C63.35 1.02 64.16 0.88 64.6 0.88ZM343.4 2.64C344.87 2.97 345.19 3.2 344.17 3.19C343.75 3.19 343.13 3 342.8 2.78C342.36 2.48 342.52 2.45 343.4 2.64ZM350.8 5.23C351.39 5.23 354.45 6.75 353.94 6.78C353.8 6.79 352.9 6.44 351.94 6.01C350.99 5.57 350.47 5.22 350.8 5.23ZM359.4 9.21C359.62 9.22 360.25 9.59 360.8 10.04C361.78 10.84 360.99 10.56 359.6 9.62C359.27 9.4 359.18 9.21 359.4 9.21ZM36.57 11.61C36.77 11.6 36.86 11.66 36.77 11.72C34.93 13.08 32.4 14.75 32.4 14.6C32.4 14.5 33.26 13.78 34.3 13.01C35.34 12.25 36.37 11.62 36.57 11.61ZM28.8 17.32C28.8 17.39 28.21 17.98 27.5 18.63L26.2 19.8L27.38 18.5C28.47 17.29 28.8 17.02 28.8 17.32ZM372.63 18.5L373.8 19.8L372.5 18.63C371.79 17.98 371.2 17.39 371.2 17.32C371.2 17.02 371.53 17.29 372.63 18.5ZM25.89 19.6C26.18 19.6 25.77 20.05 22.7 23.01L19.4 26.2L22.59 22.9C24.34 21.09 25.83 19.6 25.89 19.6ZM374.02 19.6C374.13 19.6 375.65 21.04 377.4 22.8C379.15 24.56 380.49 26 380.38 26C380.27 26 378.75 24.56 377 22.8C375.25 21.04 373.91 19.6 374.02 19.6ZM19.6 26.52C19.6 26.59 19.02 27.18 18.3 27.82L17 29L18.18 27.7C19.27 26.49 19.6 26.22 19.6 26.52ZM381.82 27.7L383 29L381.7 27.82C380.99 27.18 380.4 26.59 380.4 26.52C380.4 26.22 380.73 26.49 381.82 27.7ZM385.6 32.6C386.11 32.91 388.52 36.42 388.34 36.58C388.26 36.65 387.53 35.73 386.7 34.53C385.88 33.34 385.38 32.46 385.6 32.6ZM10.14 39.59C9.76 40.24 9.37 40.71 9.29 40.62C9.21 40.54 9.44 40 9.81 39.44C10.75 38.01 11.01 38.13 10.14 39.59ZM6.02 48.04C5.58 49.01 5.21 49.58 5.21 49.31C5.2 49.05 5.5 48.19 5.87 47.42C6.84 45.39 6.97 45.94 6.02 48.04ZM3.07 55.69C3.17 56.07 3.05 56.7 2.8 57.09C2.36 57.76 2.35 57.76 2.57 57.07C2.7 56.66 2.82 56.03 2.85 55.67C2.89 55.07 2.91 55.07 3.07 55.69ZM398.8 62.8C398.98 63.35 399.12 64.16 399.12 64.6C399.12 65.23 399.05 65.19 398.8 64.4C398.62 63.85 398.48 63.04 398.48 62.6C398.48 61.97 398.55 62.01 398.8 62.8ZM0.71 66.72C0.92 67.34 0.43 70.16 0.16 69.89C0.06 69.79 0.1 68.92 0.25 67.95C0.41 66.99 0.61 66.44 0.71 66.72ZM399.3 66.2L399.6 67.4C399.77 68.06 399.91 68.96 399.93 69.4L399.94 70.2L399.6 69.4C399.41 68.96 399.26 68.06 399.27 67.4L399.3 66.2ZM160.95 104.8C161.06 104.8 161.53 105.34 162 106C162.47 106.66 162.76 107.2 162.65 107.2C162.54 107.2 162.07 106.66 161.6 106C161.13 105.34 160.84 104.8 160.95 104.8ZM233.2 105.18L235 105.5L233.4 105.5C232.52 105.5 231.26 105.37 230.6 105.2C228.87 104.76 230.76 104.75 233.2 105.18ZM237.8 105.86C238.68 106 239.47 106.17 239.57 106.25C239.91 106.56 237.77 106.33 237 105.98C236.44 105.73 236.69 105.69 237.8 105.86ZM118.6 108.31C121.38 110.72 125.33 114.71 128 117.82C128.77 118.71 127.94 117.9 126.15 116.02C124.36 114.14 121.3 111.09 119.35 109.24C116.62 106.66 116.45 106.45 118.6 108.31ZM241.4 106.64C242.87 106.97 243.19 107.2 242.17 107.19C241.75 107.19 241.13 107 240.8 106.78C240.36 106.48 240.52 106.45 241.4 106.64ZM142.19 108.7C143.05 109.75 143.34 110.24 142.83 109.8C142.33 109.36 141.56 108.5 141.13 107.9C139.9 106.18 140.47 106.61 142.19 108.7ZM164.89 110.09C165.9 111.28 167.35 113.6 167.08 113.6C166.99 113.6 166.25 112.56 165.44 111.3C164.63 110.03 164.38 109.49 164.89 110.09ZM145.82 113.07C146.44 113.88 146.74 114.41 146.49 114.26C146.24 114.1 145.66 113.44 145.19 112.79C143.98 111.09 144.49 111.31 145.82 113.07ZM258.2 113.22C258.42 113.22 259.05 113.59 259.6 114.04C260.58 114.83 259.79 114.56 258.4 113.62C258.07 113.4 257.98 113.21 258.2 113.22ZM147.11 114.94C147.62 115.26 149.35 117.6 149.07 117.6C148.98 117.6 148.39 116.94 147.78 116.13C147.16 115.32 146.86 114.79 147.11 114.94ZM260.91 114.8C261.3 114.8 264.75 117.19 265.03 117.66C265.23 117.97 261.71 115.7 260.83 114.94C260.74 114.86 260.78 114.8 260.91 114.8ZM169.78 117.6C169.89 117.6 170.26 118.14 170.6 118.8C170.94 119.46 171.13 120 171.02 120C170.91 120 170.54 119.46 170.2 118.8C169.86 118.14 169.67 117.6 169.78 117.6ZM150.4 119.4C150.77 119.63 153.44 123.42 154.19 124.8C154.84 125.99 153.72 124.59 151.86 121.87C150.83 120.37 150.17 119.26 150.4 119.4ZM271.08 122.52C271.23 122.78 270.52 122.29 269.48 121.44C268.45 120.6 267.6 119.82 267.6 119.72C267.6 119.44 270.74 121.98 271.08 122.52ZM129.88 120.12C130.42 120.46 132.96 123.6 132.68 123.6C132.58 123.6 131.8 122.75 130.96 121.72C130.11 120.68 129.62 119.97 129.88 120.12ZM135.56 127.38C136.03 127.67 140.89 134.85 140.72 135.01C140.66 135.08 139.38 133.34 137.9 131.14C136.41 128.95 135.36 127.25 135.56 127.38ZM275.88 127.32C276.42 127.66 278.95 130.8 278.68 130.8C278.58 130.8 277.8 129.95 276.95 128.92C276.11 127.88 275.62 127.17 275.88 127.32ZM115.25 129.1C115.75 129.73 115.73 129.75 115.11 129.25C114.45 128.74 114.4 129.5 114.3 143.06L114.19 157.4L114.09 142.9C114 128.74 114.1 127.63 115.25 129.1ZM117.22 131.6C119.31 133.85 122.79 138.47 122.8 138.99C122.8 139.21 122.32 138.67 121.73 137.79C121.15 136.92 119.52 134.76 118.11 133C116.7 131.24 116.3 130.61 117.22 131.6ZM283.78 138C283.89 138 284.26 138.54 284.6 139.2C284.94 139.86 285.13 140.4 285.02 140.4C284.91 140.4 284.54 139.86 284.2 139.2C283.86 138.54 283.67 138 283.78 138ZM181.57 141.2C181.57 141.53 181.31 141.19 180.98 140.45C180.66 139.71 180.41 138.99 180.41 138.85C180.44 138.33 181.57 140.62 181.57 141.2ZM144.19 141.2C144.3 141.2 144.93 142.28 145.6 143.6C146.27 144.92 146.72 146 146.61 146C146.5 146 145.87 144.92 145.2 143.6C144.53 142.28 144.08 141.2 144.19 141.2ZM126.04 143.8C126.31 144.33 126.18 144.26 125.64 143.6C125.19 143.05 124.82 142.42 124.81 142.2C124.81 141.77 125.37 142.5 126.04 143.8ZM215 147.69L216.2 147.68C216.86 147.66 217.76 147.81 218.2 148L219 148.34L218.2 148.32C217.76 148.31 216.86 148.17 216.2 148L215 147.69ZM228.71 151.81C229.87 152.43 231.01 153.18 231.26 153.47C231.68 153.98 227.35 151.51 226.85 150.95C226.71 150.8 227.55 151.19 228.71 151.81ZM290.96 154.2C291.15 155.08 291.12 155.24 290.82 154.8C290.6 154.47 290.41 153.85 290.41 153.43C290.4 152.41 290.63 152.73 290.96 154.2ZM232.03 154C232.13 154 233.29 155.08 234.6 156.4C235.91 157.72 236.88 158.8 236.78 158.8C236.66 158.8 235.51 157.72 234.2 156.4C232.89 155.08 231.91 154 232.03 154ZM291.76 157C291.95 157.88 291.92 158.04 291.62 157.6C291.39 157.27 291.21 156.66 291.21 156.23C291.2 155.21 291.43 155.53 291.76 157ZM292.56 160.6C292.75 161.75 292.71 162.03 292.42 161.6C292.2 161.27 292.01 160.47 292.01 159.83C292 158.3 292.23 158.62 292.56 160.6ZM171.38 164.28C171.99 166.23 172.56 169.09 172.28 168.8C172.03 168.54 170.79 163.67 170.83 163.07C170.84 162.81 171.09 163.35 171.38 164.28ZM293.31 166.4C293.45 168.04 293.42 168.56 293.21 167.8C293.04 167.14 292.87 165.9 292.85 165.03C292.77 162.63 293.07 163.49 293.31 166.4ZM241.3 167.54C241.5 167.74 241.6 168.33 241.52 168.85C241.39 169.66 241.34 169.6 241.15 168.49C241.02 167.69 241.08 167.32 241.3 167.54ZM155.2 169C155.42 169.14 155.59 169.64 155.57 170.12C155.54 171 154.92 170.12 154.83 169.08C154.81 168.9 154.98 168.86 155.2 169ZM172.93 171.2C173.09 172.4 173.05 172.73 172.81 172.2C172.62 171.76 172.44 170.88 172.43 170.23C172.39 168.58 172.65 169.08 172.93 171.2ZM242.13 172.49C242.33 173.57 242.34 175.01 242.14 175.84C241.86 177.03 241.79 176.69 241.78 173.95C241.77 170.85 241.79 170.74 242.13 172.49ZM138.56 173.4C138.75 174.28 138.72 174.44 138.42 174C138.19 173.67 138.01 173.06 138.01 172.63C138 171.61 138.23 171.93 138.56 173.4ZM155.98 172.4C156.21 172.73 156.39 173.34 156.39 173.77C156.4 174.79 156.17 174.47 155.84 173C155.65 172.12 155.69 171.96 155.98 172.4ZM173.72 175.4C173.87 176.69 173.83 177.12 173.6 176.6C173.41 176.16 173.24 175.19 173.23 174.43C173.19 172.52 173.44 173.02 173.72 175.4ZM121.6 174.4C121.81 174.73 121.99 175.27 121.99 175.6C121.99 176.13 121.94 176.13 121.6 175.6C121.39 175.27 121.21 174.73 121.21 174.4C121.21 173.87 121.25 173.87 121.6 174.4ZM156.81 176C157.02 176.33 157.19 177.13 157.19 177.77C157.2 179.31 156.97 178.98 156.67 177C156.5 175.91 156.54 175.59 156.81 176ZM174.51 180.8C174.65 182.44 174.62 182.96 174.41 182.2C174.24 181.54 174.07 180.29 174.05 179.43C173.97 177.03 174.27 177.89 174.51 180.8ZM293.45 178.12C293.55 178.22 293.51 179.5 293.36 180.96C293.21 182.42 293 183.53 292.89 183.43C292.79 183.32 292.83 182.04 292.99 180.59C293.14 179.13 293.35 178.02 293.45 178.12ZM241.52 179.15C241.6 179.67 241.5 180.26 241.3 180.46C241.08 180.68 241.02 180.31 241.15 179.51C241.34 178.4 241.39 178.34 241.52 179.15ZM140.13 181C140.28 182.35 140.25 182.67 140.02 182C139.83 181.45 139.66 180.47 139.64 179.83C139.58 178.06 139.87 178.75 140.13 181ZM157.6 180.6C157.93 181.37 158.15 184.71 157.86 184.37C157.78 184.28 157.61 183.21 157.49 182C157.35 180.63 157.39 180.1 157.6 180.6ZM123.19 180.8C123.41 181.13 123.59 181.84 123.59 182.37C123.6 183.65 123.38 183.32 123.06 181.6C122.88 180.62 122.92 180.38 123.19 180.8ZM140.91 186.2C141.05 187.69 141.01 188.22 140.81 187.6C140.63 187.05 140.46 185.9 140.44 185.03C140.38 182.75 140.65 183.42 140.91 186.2ZM124 185C124.33 185.76 124.56 188.71 124.26 188.37C124.18 188.28 124.01 187.3 123.88 186.2C123.73 184.91 123.77 184.49 124 185ZM175.26 188C175.4 189.87 175.52 194.73 175.52 198.8C175.52 202.87 175.4 207.73 175.26 209.6C175.12 211.47 175 206.61 175 198.8C175 190.99 175.12 186.13 175.26 188ZM292.45 187.04C292.25 187.9 292.06 188.24 292.05 187.8C292.03 187.36 292.12 186.59 292.26 186.08C292.67 184.54 292.84 185.38 292.45 187.04ZM158.41 187C158.71 188.22 158.92 194.27 158.65 193.97C158.57 193.88 158.42 192 158.31 189.8C158.21 187.6 158.25 186.34 158.41 187ZM236.78 189.22C237.15 189.18 232.98 193.28 231.8 194.11C231.14 194.58 231.95 193.67 233.6 192.1C235.25 190.52 236.68 189.23 236.78 189.22ZM291.62 190.62C291.43 191.27 291.25 191.5 291.23 191.13C291.21 190.77 291.31 190.17 291.45 189.81C291.87 188.73 292 189.36 291.62 190.62ZM124.85 191.42C124.99 192.07 125.11 195.66 125.11 199.4C125.11 203.14 124.99 206.73 124.85 207.38C124.71 208.03 124.6 204.44 124.6 199.4C124.6 194.37 124.71 190.78 124.85 191.42ZM141.5 194.88C141.57 197.23 141.57 201.19 141.5 203.68C141.43 206.16 141.37 204.24 141.37 199.4C141.37 194.56 141.43 192.53 141.5 194.88ZM229.2 195.61C229.58 195.62 227.4 197.18 227 197.19C226.78 197.19 227.14 196.84 227.8 196.4C228.46 195.96 229.09 195.61 229.2 195.61ZM289.5 197.37C289.68 197.55 287.38 203.14 286.76 204C286.21 204.78 286.32 204.46 287.98 200.51C288.73 198.7 289.42 197.29 289.5 197.37ZM220.2 199.6C219.76 199.79 219.04 199.94 218.6 199.93C217.96 199.92 218 199.86 218.8 199.6C220.17 199.16 221.22 199.16 220.2 199.6ZM204.77 200.09L216.2 200.19L204.82 200.3C196.33 200.38 193.36 200.54 193.13 200.91C192.94 201.2 192.81 201.23 192.81 200.97C192.8 200.73 192.92 200.41 193.07 200.27C193.21 200.12 198.48 200.04 204.77 200.09ZM192.69 204.1C192.78 204.93 192.78 206.28 192.69 207.1C192.6 207.93 192.53 207.25 192.53 205.6C192.53 203.95 192.6 203.28 192.69 204.1ZM158.55 205L158.69 207.4C158.77 208.72 158.65 210.52 158.42 211.4L158.01 213L158.2 211.4C158.31 210.52 158.43 208.72 158.47 207.4L158.55 205ZM284.29 208.4C284.61 208.4 284.29 209.11 283.56 210L282.73 211L283.45 209.7C283.85 208.99 284.22 208.4 284.29 208.4ZM124.13 210.2L124.28 211.41C124.37 212.08 124.24 213.07 124.01 213.61L123.58 214.6L123.78 213.6C123.9 213.05 124.02 212.06 124.06 211.4L124.13 210.2ZM140.84 213.03C140.64 214.44 140.48 214.89 140.45 214.15C140.42 213.46 140.51 212.33 140.65 211.64C141.08 209.52 141.21 210.5 140.84 213.03ZM192.15 210.2L192.29 212.2C192.37 213.3 192.25 214.92 192.02 215.8L191.61 217.4L191.8 215.8C191.91 214.92 192.03 213.3 192.07 212.2L192.15 210.2ZM174.45 217.4C174.25 218.72 174.08 219.26 174.05 218.6C174.03 217.94 174.13 216.68 174.27 215.8C174.69 213.31 174.84 214.72 174.45 217.4ZM157.73 214.6L157.88 215.81C157.97 216.48 157.84 217.47 157.61 218.01L157.18 219L157.38 218C157.5 217.45 157.62 216.46 157.66 215.8L157.73 214.6ZM123.48 216.29C123.58 216.78 123.45 217.5 123.2 217.89C122.76 218.56 122.75 218.56 122.97 217.87C123.1 217.46 123.22 216.74 123.25 216.27C123.31 215.4 123.31 215.4 123.48 216.29ZM140.04 218.43C139.83 219.47 139.67 219.79 139.65 219.2C139.63 218.65 139.72 217.79 139.86 217.28C140.27 215.73 140.4 216.55 140.04 218.43ZM191.5 219.37C191.61 219.48 191.57 220.4 191.42 221.42C191.26 222.44 191.06 223.2 190.97 223.1C190.87 223.01 190.91 222.09 191.06 221.06C191.2 220.02 191.4 219.26 191.5 219.37ZM276.39 219.61C276.49 219.6 275.33 220.86 273.8 222.4C272.27 223.94 270.9 225.2 270.76 225.2C270.61 225.2 271.78 223.94 273.35 222.41C274.92 220.87 276.29 219.61 276.39 219.61ZM156.92 219.8L157.09 220.89C157.18 221.49 157.05 222.3 156.79 222.69C156.37 223.36 156.35 223.36 156.57 222.67C156.7 222.26 156.83 221.45 156.86 220.87L156.92 219.8ZM173.64 222.82C173.43 223.87 173.27 224.19 173.25 223.6C173.23 223.05 173.32 222.19 173.46 221.68C173.87 220.13 174 220.95 173.64 222.82ZM156.29 224.56C156.39 224.66 156.35 225.31 156.2 226C155.84 227.64 155.52 227.32 155.85 225.65C155.99 224.95 156.19 224.46 156.29 224.56ZM190.67 225.02C190.76 225.47 190.64 226.28 190.41 226.82L189.98 227.8L190.18 226.8C190.3 226.25 190.42 225.44 190.45 225C190.51 224.22 190.51 224.22 190.67 225.02ZM172.84 227.22C172.63 228.27 172.47 228.59 172.45 228C172.43 227.45 172.52 226.59 172.66 226.08C173.07 224.53 173.2 225.35 172.84 227.22ZM138.31 225.94C138.46 226.39 137.2 230.93 136.98 230.72C136.9 230.64 137.14 229.44 137.51 228.06C137.88 226.68 138.24 225.72 138.31 225.94ZM155.47 228.54C155.58 228.65 155.55 229.13 155.4 229.6C155.25 230.07 155.04 230.37 154.93 230.26C154.82 230.15 154.85 229.67 155 229.2C155.15 228.73 155.36 228.43 155.47 228.54ZM189.86 230.78C189.83 231.87 189.65 232.61 189.46 232.42C189.27 232.23 189.24 231.34 189.39 230.44C189.76 228.25 189.93 228.37 189.86 230.78ZM172.05 231.04C171.84 231.9 171.66 232.24 171.65 231.8C171.63 231.36 171.72 230.59 171.86 230.08C172.27 228.54 172.44 229.38 172.05 231.04ZM264.48 230.1C264.25 230.38 263.46 230.94 262.73 231.36C261.16 232.26 261.42 231.88 263.28 230.57C264.79 229.5 265.07 229.39 264.48 230.1ZM136.67 231.69C136.77 232.07 136.65 232.7 136.4 233.09C135.96 233.76 135.95 233.76 136.17 233.07C136.3 232.66 136.42 232.03 136.45 231.67C136.49 231.07 136.51 231.07 136.67 231.69ZM171.11 234.34C171.26 234.79 170 239.33 169.78 239.12C169.7 239.04 169.94 237.84 170.31 236.46C170.68 235.08 171.04 234.13 171.11 234.34ZM255.5 235.2C255.61 235.2 255.48 235.46 255.22 235.78C254.84 236.24 255.12 236.91 256.7 239.28C258.93 242.6 259.52 243.6 258.91 243C257.25 241.35 254.38 236.3 254.82 235.78C255.08 235.46 255.39 235.2 255.5 235.2ZM135.12 236.19C135.21 236.28 134.97 237.18 134.59 238.19C134.2 239.19 133.82 239.95 133.74 239.87C133.66 239.79 133.9 238.89 134.28 237.88C134.65 236.86 135.03 236.1 135.12 236.19ZM115.42 239.6C115.53 239.6 115.35 240.13 115.01 240.78C114.01 242.71 114.1 270.33 115.1 269.55C115.73 269.05 115.75 269.07 115.25 269.7C114.95 270.08 114.54 270.4 114.35 270.4C113.67 270.4 113.92 242.12 114.61 240.78C114.95 240.13 115.31 239.6 115.42 239.6ZM169.47 240.09C169.57 240.47 169.45 241.1 169.2 241.49C168.76 242.16 168.75 242.16 168.97 241.47C169.1 241.06 169.22 240.43 169.25 240.07C169.29 239.47 169.31 239.47 169.47 240.09ZM185.45 248C185.53 248 185.56 258.49 185.5 271.3L185.41 294.6L185.3 272.28C185.22 255.91 185.07 250.03 184.75 250.23C184.46 250.41 184.39 250.3 184.55 249.96C184.69 249.65 184.91 249.09 185.05 248.7C185.18 248.31 185.36 248 185.45 248ZM126.58 254.44C126.23 255.12 125.85 255.58 125.74 255.47C125.63 255.36 125.84 254.8 126.21 254.24C127.14 252.81 127.36 252.93 126.58 254.44ZM273.48 264.6C278.52 272.2 279.19 273.26 278.51 272.6C278.11 272.21 268.88 258.4 268.21 257.2C267.15 255.28 269.27 258.26 273.48 264.6ZM143.82 258.4C143.93 258.4 143.74 258.94 143.4 259.6C143.06 260.26 142.69 260.8 142.58 260.8C142.47 260.8 142.66 260.26 143 259.6C143.34 258.94 143.71 258.4 143.82 258.4ZM121.94 261.01C122.1 261.17 120.45 263.6 120.17 263.6C120.07 263.6 120.4 262.98 120.89 262.23C121.39 261.47 121.86 260.92 121.94 261.01ZM141.49 262.4C141.81 262.4 141.49 263.11 140.76 264L139.93 265L140.65 263.7C141.05 262.99 141.42 262.4 141.49 262.4ZM179.9 262.56C179.99 262.65 179.79 263.24 179.45 263.87C178.72 265.2 178.59 264.89 179.26 263.42C179.52 262.86 179.81 262.47 179.9 262.56ZM117.91 266.4C118.24 266.4 116.18 268.76 115.83 268.78C115.62 268.79 115.97 268.26 116.6 267.6C117.23 266.94 117.82 266.4 117.91 266.4ZM156.7 269.6C156.88 269.6 156.24 270.68 154.94 272.59C154.64 273.02 154.4 273.24 154.4 273.08C154.4 272.92 154.87 272.07 155.45 271.19C156.03 270.32 156.59 269.6 156.7 269.6ZM215.6 270.9C216.19 271.7 216.29 271.98 215.85 271.63C215.47 271.32 214.98 270.74 214.76 270.33C214.16 269.2 214.55 269.46 215.6 270.9ZM135.89 271.2C136.17 271.2 134.39 273.56 133.88 273.87C133.42 274.14 133.88 273.43 135.14 271.9C135.46 271.51 135.8 271.2 135.89 271.2ZM218.87 275.85C220.21 277.62 220.32 277.96 219.11 276.62C218.51 275.95 218.02 275.24 218.01 275.05C218 274.85 218.39 275.21 218.87 275.85ZM152.68 276C152.87 276 152.65 276.39 151.09 278.69C150.47 279.62 149.78 280.49 149.57 280.62C149.35 280.75 149.93 279.77 150.84 278.43C151.76 277.09 152.59 276 152.68 276ZM130.28 278.4C130.58 278.4 130.31 278.73 129.1 279.82L127.8 281L128.97 279.7C129.62 278.99 130.21 278.4 130.28 278.4ZM128 281.31C128 281.37 125.97 283.39 123.5 285.81L119 290.2L123.39 285.7C127.47 281.52 128 281.02 128 281.31ZM147.37 283.8C146.79 284.57 146.21 285.2 146.1 285.2C145.91 285.2 146.39 284.49 147.54 283.1C148.59 281.83 148.46 282.37 147.37 283.8ZM168.71 283.77C168.86 283.93 165.58 288.8 165.32 288.8C165.13 288.8 165.33 288.48 167.18 285.7C167.94 284.56 168.63 283.69 168.71 283.77ZM227.88 289.2C230.94 293.83 231.54 294.82 230.91 294.2C230.51 293.8 225.25 285.95 224.61 284.8C223.74 283.21 225.35 285.38 227.88 289.2ZM165.05 289.2C165.16 289.2 164.87 289.74 164.4 290.4C163.93 291.06 163.46 291.6 163.35 291.6C163.24 291.6 163.53 291.06 164 290.4C164.47 289.74 164.94 289.2 165.05 289.2ZM141.78 290.43C141.99 290.42 141.37 291.21 140.4 292.2L138.63 294L126.94 294C120.51 294 115.16 293.87 115.06 293.7C114.96 293.54 120.23 293.45 126.78 293.51L138.69 293.62L140.04 292.05C140.79 291.18 141.57 290.45 141.78 290.43ZM117.94 291C118.05 291.11 118.06 291.25 117.97 291.3C117.88 291.36 117.26 291.85 116.6 292.4L115.4 293.4L116.57 292.1C117.22 291.39 117.83 290.9 117.94 291ZM0.06 329.8L0.4 330.6C0.59 331.04 0.73 331.94 0.72 332.6L0.7 333.8L0.4 332.6C0.23 331.94 0.09 331.04 0.07 330.6L0.06 329.8ZM399.65 332.23C399.38 333.36 399.27 333.52 399.25 332.8C399.23 332.25 399.33 331.36 399.48 330.81C399.9 329.23 400.06 330.5 399.65 332.23ZM1.2 335.6C1.38 336.15 1.52 336.96 1.52 337.4C1.52 338.03 1.45 337.99 1.2 337.2C1.02 336.65 0.88 335.84 0.88 335.4C0.88 334.77 0.95 334.81 1.2 335.6ZM397.22 343.82C397.03 344.47 396.85 344.7 396.83 344.33C396.81 343.97 396.91 343.37 397.05 343.01C397.46 341.93 397.6 342.56 397.22 343.82ZM394.71 350.74C394.79 350.96 394.47 351.83 394.01 352.67C393.1 354.33 393.09 354.21 393.99 351.87C394.32 351.03 394.64 350.52 394.71 350.74ZM390.69 359.2C391.01 359.2 390.69 359.91 389.96 360.8L389.13 361.8L389.85 360.5C390.25 359.79 390.62 359.2 390.69 359.2ZM11.72 363.23C13.27 365.31 14.76 367.62 14.43 367.42C13.92 367.11 11.6 363.78 11.6 363.36C11.6 363.2 11.66 363.14 11.72 363.23ZM386.73 365.8C386.86 365.92 386.54 366.42 386.03 366.91L385.1 367.8L385.81 366.69C386.19 366.08 386.61 365.68 386.73 365.8ZM18.63 372.5L19.8 373.8L18.5 372.63C17.79 371.98 17.2 371.39 17.2 371.32C17.2 371.02 17.53 371.29 18.63 372.5ZM382.8 371.32C382.8 371.39 382.21 371.98 381.5 372.63L380.2 373.8L381.38 372.5C382.47 371.29 382.8 371.02 382.8 371.32ZM19.62 374C19.73 374 21.25 375.44 23 377.2C24.75 378.96 26.09 380.4 25.98 380.4C25.87 380.4 24.35 378.96 22.6 377.2C20.85 375.44 19.51 374 19.62 374ZM380.4 374.11C380.4 374.17 378.92 375.65 377.1 377.41L373.8 380.6L376.99 377.3C379.95 374.24 380.4 373.82 380.4 374.11ZM27.82 381.7L29 383L27.7 381.82C26.98 381.18 26.4 380.59 26.4 380.52C26.4 380.22 26.73 380.49 27.82 381.7ZM373.6 380.52C373.6 380.59 373.01 381.18 372.3 381.82L371 383L372.18 381.7C373.27 380.49 373.6 380.22 373.6 380.52ZM32.2 385.1L33.31 385.81C33.92 386.19 34.32 386.61 34.2 386.73C34.08 386.86 33.58 386.54 33.09 386.03L32.2 385.1ZM367.4 385.6C367.1 386.09 363.76 388.4 363.36 388.4C363.2 388.4 364.04 387.69 365.23 386.83C367.64 385.1 367.75 385.03 367.4 385.6ZM39 389.56C40.3 390.23 41.03 390.79 40.6 390.79C40.38 390.78 39.75 390.41 39.2 389.96C38.54 389.42 38.47 389.29 39 389.56ZM48.06 393.99C49.02 394.43 49.53 394.78 49.2 394.77C48.87 394.77 47.97 394.42 47.2 394C45.37 393 45.85 392.99 48.06 393.99ZM57.2 397.22C57.64 397.51 57.48 397.55 56.6 397.36C55.94 397.21 55.33 397.02 55.23 396.94C54.83 396.6 56.66 396.85 57.2 397.22ZM337.4 398.48C338.03 398.48 337.99 398.55 337.2 398.8C336.65 398.98 335.84 399.12 335.4 399.12C334.77 399.12 334.81 399.05 335.6 398.8C336.15 398.62 336.96 398.48 337.4 398.48ZM66.2 399.3L67.4 399.27C68.06 399.26 68.96 399.41 69.4 399.6L70.2 399.94L69.4 399.93C68.96 399.91 68.06 399.77 67.4 399.6L66.2 399.3ZM332.6 399.27L333.8 399.3L332.6 399.6C331.94 399.77 331.04 399.91 330.6 399.93L329.8 399.94L330.6 399.6C331.04 399.41 331.94 399.26 332.6 399.27Z" />
		<path id="path4" fill-rule="evenodd" class="shp3" d="M229.6 104.52C230.81 104.52 231.31 104.59 230.7 104.69C230.09 104.78 229.1 104.78 228.5 104.69C227.9 104.59 228.39 104.52 229.6 104.52ZM293.88 178.5C293.98 178.88 293.98 179.51 293.88 179.9C293.77 180.28 293.69 179.97 293.69 179.2C293.69 178.43 293.77 178.12 293.88 178.5ZM175.9 194.5C175.97 196.87 175.97 200.74 175.9 203.1C175.83 205.47 175.77 203.53 175.77 198.8C175.77 194.07 175.83 192.13 175.9 194.5ZM141.88 194.29C141.98 194.79 141.98 195.69 141.89 196.29C141.79 196.9 141.72 196.5 141.71 195.4C141.71 194.3 141.79 193.8 141.88 194.29ZM124.68 194.5C124.78 194.88 124.78 195.51 124.68 195.9C124.58 196.28 124.49 195.97 124.49 195.2C124.49 194.43 124.58 194.12 124.68 194.5ZM192.29 202.29C192.38 203 192.38 204.26 192.29 205.09C192.21 205.92 192.13 205.34 192.13 203.8C192.13 202.26 192.2 201.58 192.29 202.29ZM141.88 202.7C141.98 203.19 141.98 204 141.88 204.5C141.79 205 141.71 204.59 141.71 203.6C141.71 202.61 141.79 202.21 141.88 202.7ZM124.28 206.5C124.38 206.88 124.38 207.51 124.28 207.9C124.17 208.28 124.09 207.97 124.09 207.2C124.09 206.43 124.17 206.12 124.28 206.5ZM276.69 219.6C276.98 219.6 276.56 220.05 273.5 223.01L270.2 226.2L273.39 222.9C275.14 221.09 276.63 219.6 276.69 219.6Z" />
		<path id="path5" fill-rule="evenodd" class="shp4" d="M71.2 0.06C71.58 0.06 71.5 0.18 71 0.4C70.56 0.59 69.93 0.74 69.6 0.74C69.22 0.74 69.3 0.62 69.8 0.4C70.24 0.21 70.87 0.06 71.2 0.06ZM399.6 69.8C399.79 70.24 399.94 70.87 399.94 71.2C399.94 71.58 399.82 71.5 399.6 71C399.41 70.56 399.26 69.93 399.26 69.6C399.26 69.22 399.38 69.3 399.6 69.8ZM126.6 104.58C132.98 104.58 135.65 104.63 132.52 104.7C129.4 104.77 124.18 104.77 120.92 104.7C117.67 104.63 120.22 104.58 126.6 104.58ZM194.6 104.59C212.86 104.59 220.39 104.64 211.33 104.7C202.27 104.76 187.33 104.76 178.13 104.7C168.93 104.64 176.34 104.59 194.6 104.59ZM122.41 112.3L125.4 115.4L122.3 112.41C120.59 110.77 119.2 109.37 119.2 109.31C119.2 109.02 119.63 109.42 122.41 112.3ZM293.89 170.88C293.97 172.14 293.98 174.3 293.9 175.68C293.82 177.07 293.75 176.04 293.75 173.4C293.75 170.76 293.82 169.63 293.89 170.88ZM158.69 197.71C158.78 198.76 158.78 200.38 158.69 201.31C158.61 202.24 158.54 201.38 158.54 199.4C158.54 197.42 158.61 196.66 158.69 197.71ZM192.28 206.9C192.38 207.28 192.38 208 192.28 208.5C192.19 208.99 192.1 208.68 192.1 207.8C192.1 206.92 192.18 206.51 192.28 206.9ZM185.7 247.94C185.87 248.11 185.96 258.68 185.9 271.42L185.8 294.6L185.6 271.12C185.49 258.21 185.54 247.78 185.7 247.94ZM126.6 294.18C133.2 294.18 135.96 294.23 132.72 294.3C129.49 294.37 124.09 294.37 120.72 294.3C117.36 294.23 120 294.18 126.6 294.18ZM173.4 294.58C179.78 294.58 182.45 294.63 179.32 294.7C176.2 294.77 170.98 294.77 167.72 294.7C164.47 294.63 167.02 294.58 173.4 294.58ZM262.2 294.59C279.14 294.59 286.13 294.64 277.73 294.7C269.33 294.76 255.47 294.76 246.93 294.7C238.39 294.64 245.26 294.59 262.2 294.59ZM0.4 329C0.59 329.44 0.74 330.07 0.74 330.4C0.74 330.78 0.62 330.7 0.4 330.2C0.21 329.76 0.06 329.13 0.06 328.8C0.06 328.42 0.18 328.5 0.4 329ZM330.4 399.26C330.78 399.26 330.7 399.38 330.2 399.6C329.76 399.79 329.13 399.94 328.8 399.94C328.42 399.94 328.5 399.82 329 399.6C329.44 399.41 330.07 399.26 330.4 399.26Z" />
		<path id="path6" fill-rule="evenodd" class="shp5" d="M74.2 0.03L75 0.06L74.2 0.4C73 0.91 72 0.91 72.8 0.4C73.13 0.19 73.76 0.02 74.2 0.03ZM399.6 73C399.82 73.14 399.99 73.64 399.97 74.12C399.94 75 399.32 74.11 399.23 73.08C399.21 72.9 399.38 72.86 399.6 73ZM124.3 197.3C124.38 198.56 124.38 200.63 124.3 201.9C124.22 203.16 124.15 202.13 124.15 199.6C124.15 197.07 124.22 196.03 124.3 197.3ZM191.62 213.02C191.43 213.67 191.25 213.9 191.23 213.53C191.22 213.17 191.31 212.57 191.45 212.22C191.87 211.13 192 211.76 191.62 213.02ZM186.3 259.53C186.36 265.98 186.36 276.42 186.3 282.73C186.24 289.04 186.19 283.76 186.19 271C186.19 258.24 186.24 253.08 186.3 259.53ZM0.06 325L0.4 325.8C0.91 327 0.91 328 0.4 327.2C0.19 326.87 0.02 326.24 0.03 325.8L0.06 325ZM327 399.6C326.86 399.82 326.36 399.99 325.88 399.97C325.03 399.94 325.03 399.93 325.8 399.6C326.9 399.13 327.29 399.13 327 399.6Z" />
		<path id="path7" fill-rule="evenodd" class="shp6" d="M328 0.4C328.49 0.71 328.44 0.79 327.72 0.79C327.24 0.8 326.74 0.62 326.6 0.4C326.29 -0.11 327.21 -0.11 328 0.4ZM0.73 72.14C0.81 72.55 0.68 73.08 0.44 73.32C-0.09 73.84 -0.16 73.27 0.29 72.13C0.57 71.43 0.58 71.43 0.73 72.14ZM118.42 108.8C118.53 108.8 119.78 109.97 121.2 111.4C122.62 112.83 123.69 114 123.58 114C123.47 114 122.22 112.83 120.8 111.4C119.38 109.97 118.31 108.8 118.42 108.8ZM113.9 135.87C113.97 139.66 113.97 145.96 113.9 149.87C113.83 153.79 113.78 150.7 113.78 143C113.78 135.3 113.83 132.09 113.9 135.87ZM199.6 148.18C208.29 148.18 211.84 148.24 207.5 148.3C203.16 148.36 196.04 148.36 191.7 148.3C187.35 148.24 190.91 148.18 199.6 148.18ZM241.47 173.29C241.57 173.68 241.58 174.4 241.48 174.9C241.39 175.39 241.31 175.08 241.3 174.2C241.3 173.32 241.38 172.91 241.47 173.29ZM175.88 188.09C175.97 188.48 175.98 189.2 175.88 189.69C175.79 190.19 175.71 189.88 175.7 189C175.7 188.12 175.78 187.71 175.88 188.09ZM124.28 192.9C124.38 193.28 124.38 194 124.28 194.5C124.19 194.99 124.11 194.68 124.1 193.8C124.1 192.92 124.17 192.51 124.28 192.9ZM142.3 196.7C142.37 198.07 142.37 200.32 142.3 201.7C142.22 203.07 142.15 201.95 142.15 199.2C142.15 196.45 142.22 195.32 142.3 196.7ZM124.69 197.9C124.78 198.84 124.78 200.37 124.69 201.3C124.61 202.24 124.54 201.47 124.54 199.6C124.54 197.73 124.61 196.97 124.69 197.9ZM204.6 199.78C210.98 199.78 213.65 199.83 210.52 199.9C207.4 199.97 202.18 199.97 198.92 199.9C195.67 199.83 198.22 199.78 204.6 199.78ZM175.88 207.7C175.98 208.09 175.98 208.72 175.88 209.1C175.78 209.49 175.69 209.17 175.69 208.4C175.69 207.63 175.78 207.31 175.88 207.7ZM113.9 249.07C113.97 252.85 113.97 259.15 113.9 263.07C113.83 266.99 113.78 263.9 113.78 256.2C113.78 248.5 113.83 245.29 113.9 249.07ZM126.32 294.4L138.6 294.6L126.63 294.71C120.04 294.76 114.51 294.67 114.35 294.51C114.18 294.34 119.56 294.29 126.32 294.4ZM399.64 327.88C399.26 328.55 399.22 328.54 399.21 327.77C399.2 327.31 399.33 326.8 399.49 326.64C399.97 326.16 400.09 327.12 399.64 327.88ZM72.28 399.21C72.76 399.2 73.26 399.38 73.4 399.6C73.72 400.11 72.79 400.11 72 399.6C71.51 399.29 71.56 399.21 72.28 399.21Z" />
		<path id="path8" fill-rule="evenodd" class="shp7" d="M75.6 0.37C75.6 0.8 71.29 1.42 70.92 1.05C70.78 0.91 71.28 0.79 72.03 0.77C72.78 0.76 73.76 0.59 74.2 0.4C75.28 -0.06 75.6 -0.07 75.6 0.37ZM325.3 0.25C325.8 0.41 326.92 0.67 327.8 0.82C328.81 1 329.03 1.12 328.4 1.15C326.79 1.22 324.4 0.73 324.4 0.32C324.4 0.11 324.79 0.08 325.3 0.25ZM24.08 22.4C24.27 22.4 24.02 22.83 23.51 23.35C22.42 24.48 21.96 24.35 23 23.2C23.4 22.76 23.88 22.4 24.08 22.4ZM375.92 22.4C376.35 22.4 377.8 23.95 377.56 24.15C377.47 24.23 376.99 23.87 376.49 23.35C375.98 22.83 375.73 22.4 375.92 22.4ZM1.1 70.97C1.46 71.33 0.75 75.6 0.33 75.6C0.09 75.6 0.04 75.3 0.2 74.9C0.36 74.52 0.58 73.43 0.7 72.49C0.81 71.55 0.99 70.86 1.1 70.97ZM399.18 72.2C399.33 73.08 399.59 74.2 399.75 74.7C399.92 75.21 399.89 75.6 399.68 75.6C399.27 75.6 398.78 73.21 398.85 71.6C398.88 70.97 399 71.19 399.18 72.2ZM258 112.2C259.54 112.98 260.8 113.7 260.8 113.81C260.8 113.92 259.54 113.38 258 112.6C256.46 111.82 255.2 111.1 255.2 110.99C255.2 110.88 256.46 111.42 258 112.2ZM274.21 124.44C275.75 126.01 276.64 127.05 276.2 126.77C275.76 126.48 274.43 125.2 273.24 123.92C270.22 120.68 270.85 121.02 274.21 124.44ZM117.42 130.5L118.6 131.8L117.3 130.63C116.58 129.98 116 129.39 116 129.32C116 129.02 116.33 129.29 117.42 130.5ZM135.9 129.2C136.07 129.2 136.43 129.56 136.71 130C136.98 130.44 137.07 130.8 136.9 130.8C136.73 130.8 136.37 130.44 136.09 130C135.82 129.56 135.73 129.2 135.9 129.2ZM285.8 140C286.07 140 288.08 144.05 287.9 144.23C287.82 144.31 287.27 143.39 286.68 142.19C286.09 140.99 285.69 140 285.8 140ZM199.32 148.4L215.4 148.6L199.63 148.7C190.95 148.76 183.71 148.67 183.54 148.5C183.38 148.34 190.48 148.29 199.32 148.4ZM139.68 174.78C139.78 175.43 139.71 175.87 139.53 175.75C139.35 175.64 139.2 175.11 139.2 174.58C139.2 173.24 139.47 173.35 139.68 174.78ZM141.98 190.99C142.21 191.13 142.4 191.72 142.4 192.29C142.4 193.54 142.21 193.4 141.84 191.87C141.66 191.12 141.71 190.82 141.98 190.99ZM158.16 192.53C158.34 193.28 158.29 193.58 158.02 193.41C157.79 193.27 157.6 192.68 157.6 192.11C157.6 190.86 157.79 191 158.16 192.53ZM138.85 227.7C138.72 228.51 138.59 228.73 138.49 228.28C138.4 227.88 138.43 227.29 138.55 226.98C138.93 226 139.07 226.34 138.85 227.7ZM173.22 229.02C173.03 229.67 172.85 229.9 172.83 229.53C172.81 229.17 172.91 228.57 173.05 228.22C173.47 227.13 173.6 227.76 173.22 229.02ZM170.67 238.89C170.77 239.27 170.65 239.9 170.4 240.29C169.96 240.96 169.95 240.96 170.17 240.27C170.3 239.86 170.42 239.23 170.45 238.87C170.49 238.27 170.51 238.27 170.67 238.89ZM186.35 247.55C186.32 248.07 186.27 248.05 186.12 247.47C186.01 247.06 185.69 246.83 185.38 246.95C185.03 247.09 184.92 246.95 185.07 246.57C185.36 245.8 186.42 246.6 186.35 247.55ZM118.28 267.2C118.58 267.2 118.31 267.53 117.1 268.63L115.8 269.8L116.97 268.5C117.62 267.79 118.21 267.2 118.28 267.2ZM115.97 270C116.09 270 115.8 270.38 115.33 270.85C114.49 271.69 113.59 271.6 113.61 270.68C113.61 270.39 113.77 270.44 113.99 270.8C114.32 271.32 114.46 271.31 115.07 270.7C115.46 270.31 115.86 270 115.97 270ZM123.7 284.4C124.05 284.4 119.45 289.05 118.19 289.98C117.75 290.29 118.75 289.17 120.39 287.48C122.03 285.78 123.52 284.4 123.7 284.4ZM143.75 289.23C143.94 289.21 143.49 289.89 142.75 290.73C141.08 292.62 140.66 292.55 142.25 290.64C142.88 289.88 143.56 289.25 143.75 289.23ZM0.32 324.4C0.73 324.4 1.22 326.79 1.15 328.4C1.12 329.03 1 328.81 0.82 327.8C0.67 326.92 0.41 325.8 0.25 325.3C0.08 324.79 0.11 324.4 0.32 324.4ZM399.68 324.4C399.89 324.4 399.92 324.79 399.75 325.3C399.59 325.8 399.33 326.92 399.18 327.8C399 328.81 398.88 329.03 398.85 328.4C398.83 327.85 398.92 326.73 399.06 325.9C399.19 325.07 399.47 324.4 399.68 324.4ZM23.35 376.49C23.87 376.99 24.23 377.47 24.15 377.56C23.95 377.8 22.4 376.35 22.4 375.92C22.4 375.73 22.83 375.98 23.35 376.49ZM377.56 375.85C377.8 376.06 376.35 377.6 375.92 377.6C375.73 377.6 375.98 377.17 376.49 376.65C376.99 376.13 377.47 375.77 377.56 375.85ZM71.6 398.85C73.21 398.78 75.6 399.27 75.6 399.68C75.6 399.89 75.21 399.92 74.7 399.75C74.2 399.59 73.08 399.33 72.2 399.18C71.19 399 70.97 398.88 71.6 398.85ZM327.8 399.18C326.92 399.33 325.8 399.59 325.3 399.75C324.77 399.93 324.4 399.89 324.4 399.65C324.4 399.43 324.89 399.18 325.5 399.09C327.63 398.76 329.71 398.85 327.8 399.18Z" />
	</g>
</svg>