<svg xmlns="http://www.w3.org/2000/svg" viewBox="0 0 64 64" width="64" height="64">
	<style>
		tspan { white-space:pre }
		.shp0 { fill: #cf2327 } 
		.shp1 { fill: #ffffff } 
		.shp2 { fill: #d2d3d5 } 
	</style>
	<path id="Layer" class="shp0" d="M6.73 57.27C1.82 52.36 0 44.36 0 32C0 19.64 1.82 11.64 6.73 6.73C11.64 1.82 19.64 0 32 0C44.36 0 52.36 1.82 57.27 6.73C62.18 11.64 64 19.64 64 32C64 44.36 62.18 52.36 57.27 57.27C52.36 62.18 44.36 64 32 64C19.64 64 11.64 62.18 6.73 57.27Z" />
	<path id="Layer" fill-rule="evenodd" class="shp1" d="M29.99 10.87C30.43 10.85 30.87 10.85 31.31 10.88C31.76 10.91 32.2 10.96 32.63 11.05C33.07 11.13 33.5 11.24 33.92 11.37C34.34 11.51 34.75 11.67 35.16 11.86C35.18 13.92 35.15 15.98 35.17 18.05C38.74 17.66 42.14 16.32 45.74 16.1C46.2 16.06 46.67 16.05 47.14 16.08C47.61 16.1 48.08 16.15 48.54 16.24C49 16.33 49.46 16.44 49.9 16.59C50.35 16.74 50.78 16.91 51.21 17.12C51.18 28.8 51.18 40.47 51.2 52.15C50.68 51.91 50.14 51.71 49.59 51.56C49.03 51.4 48.47 51.28 47.9 51.21C47.33 51.13 46.76 51.09 46.19 51.1C45.61 51.11 45.04 51.16 44.47 51.25C41.17 51.69 38 52.88 34.67 53.1C34.19 53.14 33.72 53.16 33.24 53.13C32.76 53.11 32.29 53.06 31.82 52.98C31.35 52.9 30.89 52.79 30.43 52.64C29.98 52.5 29.53 52.33 29.1 52.13C29.07 50.07 29.1 48 29.09 45.94C26.07 46.24 23.19 47.25 20.2 47.69C19.71 47.78 19.22 47.85 18.73 47.89C18.24 47.93 17.74 47.94 17.25 47.92C16.76 47.9 16.26 47.85 15.78 47.78C15.29 47.71 14.8 47.6 14.33 47.47C13.81 47.34 13.33 47.11 12.83 46.93C12.81 46.24 12.8 45.54 12.81 44.84C12.82 33.86 12.79 22.89 12.82 11.91C13.14 12.01 13.45 12.12 13.75 12.25C14.17 12.39 14.59 12.5 15.02 12.6C15.45 12.69 15.88 12.76 16.31 12.81C16.75 12.86 17.18 12.89 17.62 12.89C18.06 12.89 18.5 12.87 18.93 12.83C22.66 12.47 26.22 11.01 29.99 10.87ZM24.19 17.88C23.77 17.99 23.34 18.09 22.91 18.19C22.48 18.29 22.05 18.38 21.61 18.46C21.18 18.54 20.74 18.61 20.31 18.67C19.87 18.74 19.43 18.79 18.99 18.84C18.96 19.51 18.95 20.18 18.96 20.85C18.98 27.8 18.94 34.75 18.98 41.7C19.32 41.67 19.66 41.63 20 41.59C20.34 41.55 20.68 41.5 21.02 41.44C21.36 41.38 21.69 41.31 22.03 41.24C22.36 41.17 22.7 41.09 23.03 41C23.01 37.75 23.01 34.5 23.02 31.25C23.15 31.21 23.27 31.17 23.4 31.14C23.52 31.11 23.65 31.08 23.78 31.06C23.91 31.03 24.03 31.02 24.16 31C24.29 30.99 24.42 30.98 24.55 30.98C24.93 31.13 24.96 31.59 24.95 31.95C24.99 34.33 24.92 36.72 24.97 39.11C24.97 39.23 24.97 39.35 24.98 39.47C25 39.59 25.02 39.71 25.05 39.83C25.07 39.95 25.11 40.07 25.15 40.18C25.19 40.3 25.24 40.41 25.29 40.52C25.63 40.42 25.97 40.34 26.31 40.26C26.65 40.18 27 40.12 27.34 40.06C27.69 40 28.03 39.95 28.38 39.91C28.73 39.87 29.08 39.84 29.43 39.82C29.38 39.71 29.33 39.59 29.29 39.46C29.26 39.34 29.22 39.22 29.2 39.1C29.17 38.97 29.15 38.85 29.13 38.72C29.11 38.59 29.1 38.47 29.1 38.34C29.07 35.8 29.11 33.26 29.09 30.72C29.1 30.56 29.1 30.4 29.09 30.24C29.08 30.08 29.06 29.92 29.03 29.76C29 29.61 28.97 29.45 28.92 29.3C28.88 29.14 28.82 28.99 28.76 28.84C28.68 28.71 28.6 28.59 28.5 28.48C28.41 28.36 28.3 28.26 28.19 28.17C28.07 28.07 27.95 27.99 27.82 27.91C27.69 27.84 27.55 27.78 27.41 27.73C27.52 27.66 27.62 27.58 27.72 27.49C27.82 27.41 27.91 27.32 28 27.23C28.1 27.14 28.18 27.04 28.27 26.94C28.35 26.84 28.43 26.74 28.5 26.64C28.64 26.4 28.76 26.15 28.86 25.9C28.96 25.65 29.03 25.38 29.09 25.12C29.15 24.85 29.19 24.58 29.2 24.31C29.22 24.03 29.21 23.76 29.18 23.49C29.2 23.12 29.21 22.76 29.21 22.39C29.21 22.02 29.2 21.66 29.17 21.29C29.15 20.93 29.11 20.56 29.06 20.2C29.01 19.83 28.95 19.47 28.88 19.11C28.82 18.94 28.75 18.78 28.66 18.62C28.57 18.47 28.47 18.33 28.34 18.2C28.22 18.07 28.08 17.95 27.93 17.85C27.78 17.76 27.62 17.68 27.46 17.62C27.18 17.56 26.91 17.53 26.63 17.51C26.36 17.5 26.08 17.5 25.81 17.52C25.53 17.54 25.26 17.58 24.99 17.64C24.72 17.7 24.45 17.78 24.19 17.88L24.19 17.88ZM23.01 21.71C23.15 21.65 23.29 21.61 23.44 21.57C23.58 21.54 23.73 21.51 23.88 21.5C24.03 21.48 24.18 21.47 24.33 21.47C24.48 21.48 24.63 21.49 24.78 21.51C24.82 21.61 24.85 21.71 24.88 21.81C24.91 21.91 24.93 22.01 24.94 22.11C24.96 22.22 24.97 22.32 24.97 22.43C24.97 22.53 24.97 22.64 24.96 22.74C24.96 23.86 24.98 24.98 24.95 26.1C24.94 26.2 24.92 26.3 24.89 26.4C24.86 26.5 24.82 26.6 24.76 26.69C24.71 26.78 24.64 26.86 24.56 26.93C24.48 27 24.4 27.06 24.3 27.11C24.2 27.14 24.1 27.18 24 27.21C23.89 27.24 23.79 27.27 23.68 27.29C23.58 27.32 23.47 27.34 23.37 27.36C23.26 27.38 23.15 27.4 23.05 27.41C22.98 25.51 23.04 23.61 23.01 21.71ZM41.09 22.91C40.6 23.04 40.11 23.16 39.62 23.27C39.13 23.38 38.64 23.49 38.15 23.59C37.65 23.69 37.16 23.78 36.66 23.86C36.17 23.95 35.67 24.02 35.17 24.09C35.15 31.69 35.17 39.28 35.16 46.87L35.16 46.95C36.51 46.8 37.85 46.51 39.19 46.26C39.26 43.18 39.17 40.11 39.23 37.03C39.48 36.99 39.73 36.94 39.98 36.89C40.23 36.84 40.48 36.78 40.73 36.72C40.97 36.66 41.22 36.59 41.46 36.51C41.71 36.44 41.95 36.36 42.19 36.27C42.39 36.2 42.58 36.11 42.76 36.01C42.95 35.91 43.12 35.8 43.29 35.67C43.46 35.55 43.62 35.41 43.77 35.27C43.92 35.12 44.06 34.96 44.19 34.8C44.32 34.61 44.44 34.41 44.54 34.2C44.64 33.99 44.73 33.78 44.81 33.56C44.88 33.34 44.95 33.12 44.99 32.89C45.04 32.67 45.07 32.44 45.08 32.2C45.17 30.66 45.09 29.11 45.12 27.56C45.14 27.3 45.15 27.04 45.14 26.78C45.14 26.51 45.13 26.25 45.11 25.99C45.09 25.73 45.05 25.47 45.01 25.21C44.97 24.95 44.92 24.69 44.86 24.43C44.82 24.29 44.77 24.16 44.7 24.03C44.64 23.9 44.56 23.77 44.47 23.66C44.39 23.54 44.29 23.43 44.18 23.33C44.08 23.23 43.96 23.14 43.84 23.06C43.62 22.97 43.4 22.9 43.17 22.85C42.94 22.8 42.71 22.76 42.48 22.75C42.24 22.74 42.01 22.75 41.78 22.77C41.54 22.8 41.31 22.84 41.09 22.91L41.09 22.91ZM39.22 26.9C39.33 26.86 39.44 26.83 39.55 26.8C39.66 26.77 39.77 26.75 39.89 26.73C40 26.71 40.11 26.7 40.23 26.69C40.34 26.68 40.46 26.68 40.57 26.68C40.94 26.76 41.03 27.21 40.98 27.52C41 28.93 40.98 30.33 40.99 31.73C41.01 31.83 41.01 31.92 41.01 32.02C41 32.11 40.98 32.21 40.96 32.3C40.93 32.39 40.89 32.48 40.85 32.56C40.8 32.64 40.75 32.72 40.68 32.79C40.33 33.22 39.72 33.17 39.24 33.28C39.19 31.15 39.22 29.03 39.22 26.9Z" />
	<path id="Layer" class="shp2" d="M29.09 45.94C29.41 45.93 29.73 45.92 30.04 45.93C30.36 45.94 30.68 45.95 31 45.98C31.32 46 31.63 46.04 31.95 46.08C32.26 46.13 32.58 46.18 32.89 46.25C33.08 46.29 33.28 46.34 33.47 46.39C33.66 46.44 33.85 46.49 34.04 46.55C34.23 46.61 34.42 46.67 34.6 46.74C34.79 46.81 34.97 46.88 35.16 46.95L35.15 47.03C35.14 47.09 35.12 47.15 35.11 47.21C35.09 47.27 35.07 47.33 35.04 47.38C35.02 47.44 34.99 47.5 34.96 47.55C34.93 47.6 34.9 47.65 34.86 47.71C34.68 47.95 34.49 48.18 34.29 48.4C34.09 48.63 33.88 48.84 33.66 49.05C33.44 49.26 33.21 49.45 32.97 49.64C32.74 49.83 32.49 50.01 32.24 50.17C31.99 50.35 31.74 50.53 31.48 50.7C31.23 50.88 30.97 51.04 30.7 51.21C30.44 51.37 30.18 51.53 29.91 51.68C29.64 51.84 29.37 51.99 29.1 52.13C29.07 50.09 29.09 47.98 29.09 45.94Z" />
</svg>