<?xml version="1.0" standalone="no"?>
<!DOCTYPE svg PUBLIC "-//W3C//DTD SVG 20010904//EN"
 "http://www.w3.org/TR/2001/REC-SVG-20010904/DTD/svg10.dtd">
<svg version="1.0" xmlns="http://www.w3.org/2000/svg"
 width="1089.000000pt" height="1089.000000pt" viewBox="0 0 1089.000000 1089.000000"
 preserveAspectRatio="xMidYMid meet">
<metadata>
Created by potrace 1.14, written by Peter Selinger 2001-2017
</metadata>
<g transform="translate(0.000000,1089.000000) scale(0.100000,-0.100000)"
fill="#000000" stroke="none">
<path d="M2525 10884 c-396 -34 -721 -125 -1060 -297 -412 -210 -771 -532
-1032 -925 -187 -281 -342 -662 -404 -992 -9 -50 -12 -779 -10 -3230 2 -3117
3 -3167 22 -3265 104 -518 383 -1026 770 -1400 138 -133 234 -210 402 -323
353 -235 797 -394 1207 -431 77 -7 1090 -12 3045 -13 l2930 -3 143 23 c572 91
1065 326 1462 698 470 439 749 969 852 1616 l23 143 -3 2965 c-3 3069 -3 3028
-41 3225 -111 572 -406 1100 -833 1492 -387 355 -886 601 -1383 682 -38 6 -97
17 -130 23 -44 8 -837 12 -2990 13 -1612 1 -2948 0 -2970 -1z m1820 -1815
c179 -22 378 -82 550 -163 61 -29 229 -121 375 -206 1642 -950 2848 -1651
2904 -1688 219 -145 408 -337 531 -538 26 -44 56 -91 67 -107 10 -15 16 -33
12 -39 -4 -6 -3 -8 3 -5 24 15 147 -303 183 -474 39 -184 47 -441 19 -649 -70
-532 -366 -1000 -824 -1307 -51 -34 -1202 -705 -1290 -752 -16 -9 -41 -25 -55
-37 -39 -34 -1834 -1072 -1938 -1121 -198 -93 -420 -150 -623 -160 -231 -11
-532 29 -740 97 -714 234 -1213 854 -1289 1599 -14 144 -14 3756 1 3889 22
209 93 459 174 620 106 208 358 507 561 664 392 303 888 439 1379 377z"/>
<path d="M4607 6550 c-107 -27 -205 -104 -258 -202 l-34 -63 0 -835 0 -835 28
-53 c90 -172 273 -256 453 -209 32 8 286 150 705 392 709 410 734 427 790 541
79 159 30 367 -110 468 -61 44 -1248 731 -1328 768 -69 33 -178 45 -246 28z"/>
</g>
</svg>
