<svg xmlns="http://www.w3.org/2000/svg" viewBox="0 0 64 64" width="64" height="64">
	<defs>
		<clipPath clipPathUnits="userSpaceOnUse" id="cp1">
			<path d="M62.04 54.93C61.83 55.45 61.58 55.95 61.3 56.43C61.02 56.91 60.71 57.37 60.37 57.82C60.03 58.26 59.66 58.68 59.27 59.08C58.88 59.48 58.46 59.85 58.03 60.2C57.7 60.46 57.36 60.7 57.02 60.93C56.67 61.15 56.31 61.36 55.94 61.55C55.57 61.74 55.19 61.92 54.8 62.07C54.41 62.22 54.02 62.36 53.62 62.47C51.59 63.08 49.14 63.25 46.04 63.25L17.92 63.25C14.83 63.25 12.37 63.04 10.35 62.47C9.95 62.35 9.56 62.21 9.17 62.05C8.79 61.9 8.41 61.72 8.04 61.53C7.67 61.34 7.31 61.13 6.96 60.91C6.61 60.69 6.27 60.45 5.94 60.2C5.5 59.85 5.09 59.48 4.69 59.08C4.3 58.68 3.94 58.26 3.6 57.82C3.26 57.37 2.95 56.91 2.67 56.43C2.39 55.95 2.14 55.45 1.92 54.93C0.71 51.84 0.71 48.32 0.71 46.08L0.71 17.92C0.71 15.68 0.71 12.16 1.96 9.07C2.17 8.55 2.42 8.05 2.7 7.57C2.98 7.09 3.29 6.63 3.63 6.18C3.97 5.74 4.34 5.32 4.73 4.92C5.12 4.52 5.54 4.15 5.97 3.8C6.3 3.54 6.64 3.3 6.98 3.07C7.33 2.85 7.69 2.64 8.06 2.45C8.43 2.26 8.81 2.08 9.2 1.93C9.59 1.78 9.98 1.64 10.38 1.53C12.37 0.92 14.83 0.71 17.92 0.71L46.08 0.71C49.17 0.71 51.63 0.92 53.65 1.49C54.05 1.61 54.44 1.75 54.83 1.91C55.21 2.07 55.59 2.24 55.96 2.43C56.33 2.62 56.69 2.83 57.04 3.05C57.39 3.28 57.73 3.51 58.06 3.77C58.5 4.12 58.91 4.49 59.31 4.89C59.7 5.28 60.06 5.71 60.4 6.15C60.74 6.59 61.05 7.06 61.33 7.54C61.61 8.02 61.86 8.52 62.08 9.03C63.29 12.16 63.32 15.68 63.32 17.88L63.32 46.04C63.29 48.32 63.29 51.84 62.04 54.93Z" />
		</clipPath>
	</defs>
	<style>
		tspan { white-space:pre }
		.shp0 { fill: #070606 } 
		.shp1 { fill: #feda00 } 
		.shp2 { fill: #d2d85a } 
		.shp3 { fill: #ffffff } 
		.shp4 { fill: #ef4625 } 
		.shp5 { fill: #f78f1e } 
		.shp6 { fill: #00b0eb } 
	</style>
	<g id="Clip-Path" clip-path="url(#cp1)">
		<g id="Layer">
			<path id="Layer" class="shp0" d="M-1.6 65.85L-1.6 -1.88L66.13 -1.88L66.13 65.85L-1.6 65.85Z" />
		</g>
	</g>
	<path id="Layer" class="shp1" d="M16.41 21.35L20.66 21.35L20.66 32.25L16.41 32.25L16.41 21.35Z" />
	<path id="Layer" class="shp2" d="M41.81 21.35L47.45 21.35L47.45 32.25L41.81 32.25L41.81 21.35Z" />
	<path id="Layer" class="shp3" d="M40.76 20.1L41.17 20.1L41.17 33.51L40.76 33.51L40.76 20.1Z" />
	<path id="Layer" class="shp4" d="M22.56 21.35L29.5 21.35L29.5 32.25L22.56 32.25L22.56 21.35Z" />
	<path id="Layer" class="shp5" d="M20.83 21.35L22.39 21.35L22.39 32.25L20.83 32.25L20.83 21.35Z" />
	<path id="Layer" class="shp6" d="M29.69 21.35L40.12 21.35L40.12 32.25L29.69 32.25L29.69 21.35Z" />
	<g id="Layer">
		<path id="Layer" class="shp3" d="M7.63 41.71C7.65 41.73 7.68 41.76 7.7 41.78C7.73 41.81 7.75 41.83 7.78 41.86C7.8 41.88 7.83 41.9 7.86 41.93C7.88 41.95 7.91 41.97 7.94 41.99C7.97 42.02 8 42.04 8.03 42.07C8.06 42.09 8.1 42.12 8.13 42.14C8.16 42.16 8.2 42.18 8.23 42.2C8.26 42.23 8.3 42.25 8.33 42.26C8.37 42.29 8.41 42.31 8.45 42.33C8.49 42.34 8.53 42.36 8.57 42.38C8.61 42.4 8.65 42.41 8.69 42.42C8.73 42.44 8.77 42.45 8.81 42.46C8.86 42.48 8.9 42.49 8.95 42.5C9 42.51 9.04 42.51 9.09 42.52C9.14 42.53 9.18 42.53 9.23 42.53C9.28 42.54 9.32 42.54 9.37 42.54C9.4 42.54 9.43 42.54 9.46 42.54C9.49 42.53 9.52 42.53 9.55 42.53C9.58 42.52 9.61 42.52 9.64 42.51C9.67 42.51 9.7 42.5 9.72 42.49C9.75 42.48 9.78 42.47 9.81 42.46C9.84 42.45 9.86 42.44 9.89 42.43C9.92 42.42 9.94 42.4 9.97 42.39C9.99 42.37 10.02 42.36 10.04 42.34C10.06 42.33 10.09 42.31 10.11 42.29C10.13 42.27 10.15 42.26 10.17 42.24C10.19 42.22 10.21 42.2 10.22 42.17C10.24 42.15 10.26 42.13 10.27 42.11C10.29 42.09 10.3 42.06 10.31 42.04C10.32 42.01 10.33 41.98 10.34 41.96C10.34 41.93 10.35 41.9 10.35 41.88C10.36 41.85 10.36 41.82 10.36 41.8C10.36 41.74 10.35 41.68 10.33 41.62C10.32 41.56 10.29 41.5 10.26 41.45C10.23 41.4 10.19 41.35 10.15 41.31C10.11 41.27 10.06 41.24 10 41.21C9.91 41.17 9.82 41.12 9.72 41.08C9.63 41.04 9.53 41 9.43 40.97C9.34 40.94 9.24 40.9 9.14 40.88C9.04 40.85 8.94 40.82 8.84 40.8C8.78 40.79 8.72 40.77 8.66 40.75C8.59 40.73 8.53 40.71 8.48 40.69C8.42 40.67 8.36 40.64 8.3 40.62C8.24 40.59 8.18 40.56 8.13 40.53C8.08 40.51 8.02 40.48 7.97 40.45C7.92 40.42 7.87 40.38 7.83 40.35C7.78 40.31 7.73 40.28 7.69 40.24C7.64 40.2 7.6 40.16 7.56 40.12C7.48 40.03 7.4 39.94 7.34 39.85C7.28 39.75 7.22 39.64 7.18 39.54C7.13 39.43 7.1 39.31 7.08 39.2C7.06 39.09 7.05 38.97 7.05 38.85C7.05 38.78 7.06 38.71 7.06 38.65C7.07 38.58 7.08 38.51 7.09 38.44C7.1 38.37 7.12 38.31 7.14 38.24C7.16 38.18 7.18 38.11 7.21 38.05C7.23 37.99 7.26 37.92 7.29 37.86C7.33 37.8 7.36 37.75 7.4 37.69C7.44 37.63 7.48 37.58 7.53 37.53C7.57 37.48 7.62 37.43 7.67 37.38C7.73 37.33 7.78 37.28 7.84 37.24C7.91 37.19 7.97 37.15 8.03 37.11C8.1 37.08 8.17 37.04 8.23 37.01C8.3 36.98 8.37 36.95 8.44 36.92C8.53 36.89 8.62 36.87 8.71 36.85C8.8 36.82 8.89 36.81 8.98 36.79C9.08 36.78 9.17 36.77 9.26 36.76C9.35 36.75 9.45 36.75 9.54 36.75C9.62 36.75 9.69 36.75 9.77 36.76C9.85 36.76 9.93 36.77 10 36.78C10.08 36.79 10.15 36.8 10.23 36.81C10.31 36.83 10.38 36.84 10.46 36.86C10.52 36.88 10.57 36.89 10.63 36.91C10.69 36.93 10.75 36.95 10.8 36.97C10.86 36.99 10.91 37.01 10.97 37.04C11.02 37.06 11.08 37.09 11.13 37.12C11.17 37.14 11.21 37.16 11.25 37.18C11.29 37.21 11.33 37.23 11.37 37.26C11.41 37.28 11.45 37.31 11.48 37.34C11.52 37.36 11.56 37.39 11.59 37.42C11.71 37.53 11.8 37.61 11.86 37.67L10.98 38.65C10.9 38.59 10.82 38.52 10.72 38.45C10.69 38.43 10.66 38.41 10.64 38.4C10.61 38.38 10.58 38.36 10.55 38.34C10.53 38.33 10.5 38.31 10.47 38.3C10.44 38.28 10.41 38.27 10.39 38.25C10.35 38.24 10.32 38.22 10.29 38.21C10.25 38.19 10.22 38.18 10.19 38.17C10.15 38.15 10.12 38.14 10.09 38.13C10.05 38.12 10.02 38.11 9.98 38.1C9.95 38.09 9.91 38.08 9.87 38.07C9.83 38.06 9.79 38.06 9.75 38.05C9.71 38.05 9.68 38.04 9.64 38.04C9.6 38.04 9.56 38.04 9.52 38.04C9.49 38.04 9.46 38.04 9.44 38.04C9.41 38.04 9.38 38.05 9.36 38.05C9.33 38.06 9.3 38.06 9.28 38.07C9.25 38.07 9.22 38.08 9.2 38.09C9.17 38.1 9.15 38.11 9.12 38.12C9.1 38.13 9.07 38.14 9.05 38.15C9.03 38.16 9 38.17 8.98 38.18C8.96 38.2 8.94 38.21 8.91 38.23C8.89 38.24 8.87 38.25 8.86 38.27C8.84 38.29 8.82 38.3 8.8 38.32C8.79 38.34 8.77 38.35 8.75 38.37C8.74 38.39 8.72 38.41 8.71 38.43C8.7 38.45 8.69 38.47 8.68 38.49C8.67 38.51 8.66 38.53 8.65 38.55C8.65 38.57 8.64 38.59 8.64 38.61C8.63 38.64 8.63 38.66 8.63 38.68C8.63 38.74 8.64 38.8 8.66 38.85C8.68 38.91 8.7 38.96 8.73 39.01C8.76 39.06 8.8 39.1 8.84 39.14C8.89 39.18 8.94 39.21 8.99 39.24C9.07 39.28 9.15 39.32 9.23 39.36C9.31 39.39 9.4 39.42 9.48 39.45C9.56 39.48 9.65 39.51 9.74 39.53C9.82 39.56 9.91 39.58 10 39.59C10.06 39.61 10.12 39.63 10.19 39.64C10.25 39.66 10.31 39.68 10.37 39.7C10.43 39.72 10.49 39.75 10.55 39.77C10.62 39.79 10.67 39.82 10.73 39.84C10.79 39.87 10.85 39.9 10.91 39.93C10.96 39.96 11.02 39.99 11.07 40.02C11.13 40.06 11.18 40.1 11.23 40.14C11.28 40.17 11.33 40.22 11.38 40.26C11.43 40.3 11.47 40.35 11.51 40.4C11.56 40.45 11.6 40.5 11.63 40.55C11.67 40.6 11.7 40.66 11.74 40.71C11.77 40.77 11.8 40.83 11.82 40.89C11.85 40.96 11.88 41.03 11.9 41.11C11.93 41.18 11.94 41.25 11.96 41.33C11.97 41.4 11.98 41.48 11.99 41.56C12 41.63 12 41.71 12 41.79C12 41.86 11.99 41.93 11.99 42.01C11.98 42.08 11.96 42.15 11.95 42.22C11.93 42.3 11.91 42.37 11.88 42.43C11.86 42.5 11.83 42.57 11.79 42.63C11.76 42.7 11.72 42.76 11.68 42.82C11.64 42.88 11.6 42.94 11.55 43C11.5 43.05 11.45 43.11 11.4 43.16C11.35 43.21 11.3 43.26 11.24 43.31C11.18 43.35 11.11 43.4 11.05 43.44C10.98 43.48 10.91 43.52 10.85 43.56C10.78 43.59 10.71 43.63 10.63 43.65C10.56 43.68 10.49 43.71 10.41 43.73C10.33 43.76 10.25 43.78 10.16 43.8C10.08 43.82 9.99 43.84 9.91 43.85C9.82 43.87 9.74 43.87 9.65 43.88C9.56 43.89 9.48 43.89 9.39 43.89C9.31 43.89 9.23 43.89 9.16 43.89C9.08 43.88 9 43.88 8.92 43.87C8.85 43.86 8.77 43.85 8.69 43.84C8.61 43.83 8.54 43.81 8.46 43.79C8.4 43.78 8.33 43.76 8.27 43.75C8.2 43.73 8.14 43.71 8.08 43.69C8.02 43.66 7.95 43.64 7.89 43.62C7.83 43.59 7.77 43.57 7.71 43.54C7.61 43.49 7.51 43.44 7.41 43.38C7.32 43.33 7.23 43.27 7.14 43.2C7.05 43.14 6.96 43.07 6.88 42.99C6.8 42.92 6.72 42.84 6.64 42.76L7.63 41.71Z" />
		<path id="Layer" class="shp3" d="M15.31 38.29L13.11 38.29L13.11 36.94L19.04 36.94L19.04 38.29L16.85 38.29L16.85 43.73L15.31 43.73L15.31 38.29Z" />
		<path id="Layer" class="shp3" d="M20.62 36.94L22.16 36.94L22.16 43.73L20.62 43.73L20.62 36.94Z" />
		<path id="Layer" class="shp3" d="M25.91 38.29L23.71 38.29L23.71 36.94L29.65 36.94L29.65 38.29L27.46 38.29L27.46 43.73L25.91 43.73L25.91 38.29Z" />
		<path id="Layer" class="shp3" d="M36.62 42.48C36.58 42.53 36.55 42.58 36.5 42.63C36.46 42.68 36.42 42.73 36.38 42.77C36.33 42.82 36.29 42.86 36.24 42.91C36.2 42.95 36.15 42.99 36.1 43.03C36.05 43.08 36 43.12 35.94 43.16C35.89 43.2 35.83 43.24 35.78 43.28C35.72 43.32 35.66 43.35 35.6 43.39C35.54 43.42 35.48 43.46 35.42 43.49C35.36 43.52 35.3 43.55 35.23 43.58C35.16 43.61 35.1 43.64 35.03 43.66C34.96 43.69 34.9 43.71 34.83 43.73C34.76 43.76 34.69 43.78 34.62 43.79C34.55 43.81 34.47 43.83 34.4 43.84C34.32 43.86 34.25 43.87 34.17 43.88C34.1 43.89 34.02 43.89 33.95 43.9C33.87 43.9 33.79 43.9 33.72 43.9C33.6 43.91 33.47 43.9 33.35 43.89C33.23 43.88 33.11 43.86 32.99 43.84C32.87 43.82 32.76 43.79 32.64 43.76C32.52 43.73 32.41 43.69 32.3 43.64C32.19 43.6 32.09 43.55 31.99 43.5C31.89 43.45 31.8 43.39 31.7 43.33C31.61 43.27 31.52 43.2 31.44 43.13C31.35 43.06 31.27 42.98 31.19 42.9C31.11 42.82 31.04 42.74 30.97 42.65C30.9 42.56 30.84 42.47 30.78 42.38C30.72 42.28 30.66 42.19 30.61 42.09C30.56 41.99 30.52 41.89 30.48 41.78C30.39 41.55 30.33 41.32 30.29 41.08C30.24 40.84 30.22 40.6 30.22 40.36C30.22 40.12 30.24 39.88 30.29 39.64C30.33 39.4 30.39 39.16 30.48 38.94C30.56 38.72 30.66 38.52 30.78 38.33C30.9 38.14 31.04 37.96 31.2 37.8C31.35 37.63 31.53 37.49 31.71 37.36C31.9 37.23 32.1 37.12 32.31 37.03C32.42 36.98 32.53 36.94 32.65 36.91C32.77 36.87 32.88 36.84 33 36.82C33.12 36.8 33.24 36.78 33.36 36.77C33.48 36.75 33.61 36.75 33.73 36.75C33.87 36.75 34.01 36.75 34.15 36.77C34.3 36.78 34.44 36.8 34.58 36.83C34.71 36.86 34.85 36.9 34.99 36.95C35.12 36.99 35.25 37.04 35.38 37.11C35.5 37.16 35.61 37.23 35.72 37.3C35.83 37.37 35.93 37.45 36.03 37.53C36.13 37.61 36.23 37.7 36.31 37.8C36.4 37.89 36.48 38 36.56 38.1L35.49 39.11C35.44 39.04 35.39 38.98 35.34 38.91C35.29 38.85 35.23 38.79 35.17 38.73C35.11 38.67 35.05 38.62 34.98 38.57C34.92 38.52 34.85 38.47 34.78 38.42C34.71 38.38 34.63 38.34 34.55 38.31C34.47 38.27 34.38 38.25 34.3 38.22C34.21 38.2 34.13 38.19 34.04 38.18C33.96 38.17 33.87 38.16 33.78 38.17C33.71 38.16 33.64 38.17 33.57 38.17C33.5 38.18 33.43 38.19 33.36 38.2C33.29 38.22 33.22 38.24 33.15 38.26C33.09 38.28 33.02 38.3 32.96 38.33C32.9 38.36 32.84 38.39 32.78 38.42C32.73 38.45 32.67 38.49 32.62 38.53C32.57 38.57 32.52 38.61 32.47 38.65C32.42 38.7 32.38 38.75 32.33 38.79C32.29 38.85 32.25 38.9 32.21 38.95C32.17 39.01 32.14 39.06 32.11 39.12C32.07 39.18 32.04 39.24 32.02 39.3C31.99 39.36 31.96 39.42 31.94 39.48C31.9 39.62 31.86 39.76 31.84 39.89C31.82 40.03 31.8 40.18 31.8 40.32C31.8 40.46 31.82 40.6 31.84 40.74C31.86 40.88 31.9 41.01 31.94 41.15C31.96 41.21 31.99 41.27 32.02 41.33C32.04 41.39 32.07 41.45 32.11 41.5C32.14 41.56 32.17 41.61 32.21 41.67C32.25 41.72 32.29 41.77 32.33 41.82C32.42 41.92 32.52 42.01 32.63 42.09C32.74 42.16 32.86 42.23 32.98 42.28C33.1 42.34 33.23 42.37 33.36 42.4C33.49 42.42 33.62 42.44 33.76 42.43C33.81 42.43 33.86 42.43 33.92 42.43C33.97 42.43 34.03 42.42 34.08 42.42C34.13 42.41 34.19 42.4 34.24 42.39C34.29 42.38 34.34 42.37 34.4 42.35C34.44 42.34 34.48 42.33 34.52 42.32C34.56 42.3 34.6 42.29 34.64 42.27C34.68 42.25 34.72 42.23 34.76 42.21C34.8 42.19 34.84 42.17 34.87 42.15C34.91 42.13 34.94 42.11 34.97 42.09C35 42.06 35.03 42.04 35.06 42.01C35.09 41.99 35.12 41.96 35.15 41.94C35.17 41.91 35.2 41.88 35.23 41.86L35.54 41.5L36.62 42.48Z" />
		<path id="Layer" class="shp3" d="M37.94 36.94L39.47 36.94L39.47 39.54L42.41 39.54L42.41 36.94L43.95 36.94L43.95 43.73L42.41 43.73L42.41 40.94L39.47 40.94L39.47 43.73L37.94 43.73L37.94 36.94Z" />
		<path id="Layer" class="shp3" d="M45.79 36.94L50.44 36.94L50.44 38.28L47.33 38.28L47.33 39.61L49.74 39.61L49.74 40.91L47.33 40.91L47.33 42.38L50.66 42.38L50.66 43.73L45.79 43.73L45.79 36.94Z" />
		<path id="Layer" fill-rule="evenodd" class="shp3" d="M52.05 36.94L54.58 36.94C54.67 36.94 54.76 36.94 54.85 36.95C54.93 36.95 55.02 36.96 55.11 36.98C55.19 36.99 55.28 37.01 55.37 37.03C55.45 37.05 55.54 37.08 55.62 37.11C55.69 37.13 55.76 37.16 55.82 37.19C55.89 37.22 55.95 37.26 56.02 37.3C56.08 37.34 56.14 37.38 56.2 37.42C56.26 37.47 56.32 37.51 56.37 37.56C56.42 37.61 56.47 37.66 56.51 37.71C56.55 37.77 56.59 37.82 56.63 37.88C56.67 37.94 56.7 38 56.73 38.06C56.77 38.12 56.79 38.18 56.82 38.24C56.84 38.31 56.86 38.38 56.88 38.44C56.9 38.51 56.92 38.58 56.93 38.65C56.94 38.72 56.95 38.79 56.96 38.86C56.96 38.93 56.96 39 56.96 39.07C56.97 39.17 56.96 39.27 56.95 39.37C56.94 39.47 56.92 39.57 56.9 39.67C56.87 39.76 56.84 39.86 56.8 39.95C56.77 40.05 56.72 40.14 56.67 40.22C56.62 40.31 56.57 40.39 56.51 40.46C56.45 40.54 56.38 40.61 56.32 40.67C56.25 40.74 56.17 40.8 56.1 40.86C56.02 40.92 55.94 40.97 55.85 41.01L57.36 43.73L55.67 43.73L54.4 41.24L53.54 41.24L53.54 43.73L52.05 43.73L52.05 36.94ZM54.5 40C54.68 40 54.85 39.95 55 39.85C55.15 39.75 55.27 39.61 55.34 39.44C55.41 39.28 55.43 39.1 55.4 38.92C55.37 38.74 55.29 38.58 55.17 38.45C55.13 38.4 55.08 38.37 55.03 38.33C54.97 38.3 54.92 38.28 54.86 38.25C54.8 38.23 54.74 38.22 54.68 38.21C54.62 38.2 54.56 38.2 54.5 38.2L53.55 38.2L53.55 40L54.5 40Z" />
	</g>
</svg>