<svg xmlns="http://www.w3.org/2000/svg" viewBox="0 0 64 64" width="64" height="64">
	<style>
		tspan { white-space:pre }
		.shp0 { fill: #624fff } 
		.shp1 { fill: #ffffff } 
	</style>
	<g id="Layer">
		<path id="Layer" class="shp0" d="M7.21 0L56.79 0C60.78 0 64 3.22 64 7.21L64 56.79C64 60.78 60.78 64 56.79 64L7.21 64C3.22 64 0 60.78 0 56.79L0 7.21C0 3.22 3.22 0 7.21 0Z" />
		<path id="Layer" fill-rule="evenodd" class="shp1" d="M41 13.38L49.5 13.38C50.13 13.38 50.63 13.88 50.63 14.5L50.63 19.5C50.63 20 50.13 20.5 49.5 20.5L41 20.5C40.38 20.5 39.88 20 39.88 19.5L39.88 14.5C39.88 13.88 40.38 13.38 41 13.38ZM41 23.38L49.5 23.38C50.13 23.38 50.63 23.88 50.63 24.5L50.63 29.5C50.63 30.13 50.13 30.63 49.5 30.63L41 30.63C40.38 30.63 39.88 30.13 39.88 29.5L39.88 24.5C39.88 23.88 40.38 23.38 41 23.38ZM14.5 23.38L23 23.38C23.63 23.38 24.13 23.88 24.13 24.5L24.13 29.5C24.13 30.13 23.63 30.63 23 30.63L14.5 30.63C13.88 30.63 13.38 30.13 13.38 29.5L13.38 24.5C13.38 23.88 13.88 23.38 14.5 23.38ZM41 33.38L49.5 33.38C50.13 33.38 50.63 33.88 50.63 34.5L50.63 39.5C50.63 40.13 50.13 40.63 49.5 40.63L41 40.63C40.38 40.63 39.88 40.13 39.88 39.5L39.88 34.5C39.88 33.88 40.38 33.38 41 33.38ZM28.13 33.38L36.63 33.38C37.25 33.38 37.75 33.88 37.75 34.5L37.75 39.5C37.75 40.13 37.25 40.63 36.63 40.63L28.13 40.63C27.5 40.63 27 40.13 27 39.5L27 34.5C27 33.88 27.5 33.38 28.13 33.38ZM14.5 33.38L23 33.38C23.63 33.38 24.13 33.88 24.13 34.5L24.13 39.5C24.13 40.13 23.63 40.63 23 40.63L14.5 40.63C13.88 40.63 13.38 40.13 13.38 39.5L13.38 34.5C13.38 33.88 13.88 33.38 14.5 33.38ZM41 43.5L49.5 43.5C50.13 43.5 50.63 44 50.63 44.5L50.63 49.5C50.63 50.13 50.13 50.63 49.5 50.63L41 50.63C40.38 50.63 39.88 50.13 39.88 49.5L39.88 44.5C39.88 44 40.38 43.5 41 43.5ZM28.13 43.5L36.63 43.5C37.25 43.5 37.75 44 37.75 44.5L37.75 49.5C37.75 50.13 37.25 50.63 36.63 50.63L28.13 50.63C27.5 50.63 27 50.13 27 49.5L27 44.5C27 44 27.5 43.5 28.13 43.5ZM14.5 43.5L23 43.5C23.63 43.5 24.13 44 24.13 44.5L24.13 49.5C24.13 50.13 23.63 50.63 23 50.63L14.5 50.63C13.88 50.63 13.38 50.13 13.38 49.5L13.38 44.5C13.38 44 13.88 43.5 14.5 43.5Z" />
	</g>
</svg>