<svg xmlns="http://www.w3.org/2000/svg" viewBox="0 0 64 28" width="64" height="28">
	<style>
		tspan { white-space:pre }
		.shp0 { fill: #14d8cc } 
	</style>
	<g id="TuneIn-Marquee-Page-1">
		<g id="TuneIn-Marquee">
			<path id="TuneIn_Marquee" fill-rule="evenodd" class="shp0" d="M63.53 1.44L63.53 20.65C63.53 21.17 63.11 21.58 62.58 21.58L40.83 21.58L40.83 26.85C40.83 27.37 40.41 27.78 39.88 27.78L1.42 27.78C0.89 27.78 0.47 27.37 0.47 26.85L0.47 7.64C0.47 7.12 0.89 6.71 1.42 6.71L38.94 6.71L38.94 1.44C38.94 0.92 39.36 0.51 39.88 0.51L62.58 0.51C63.1 0.51 63.53 0.93 63.53 1.44ZM49.97 13.71L48.9 13.71C48.82 13.71 48.77 13.66 48.77 13.59L48.77 8.5C48.77 8.43 48.82 8.38 48.9 8.38L49.84 8.38C49.98 8.38 50.1 8.27 50.1 8.13L50.1 6.95C50.1 6.82 49.98 6.71 49.84 6.71L45.93 6.71C45.8 6.71 45.68 6.82 45.68 6.95L45.68 8.13C45.68 8.27 45.8 8.38 45.93 8.38L46.88 8.38C46.95 8.38 47.01 8.43 47.01 8.5L47.01 13.59C47.01 13.66 46.95 13.71 46.88 13.71L45.81 13.71C45.67 13.71 45.56 13.82 45.56 13.96L45.56 15.14C45.56 15.27 45.67 15.38 45.81 15.38L49.97 15.38C50.11 15.38 50.22 15.27 50.22 15.14L50.22 13.96C50.22 13.82 50.11 13.71 49.97 13.71ZM38.94 8.57L2.52 8.57C2.44 8.57 2.36 8.64 2.36 8.72L2.36 25.77C2.36 25.85 2.44 25.92 2.52 25.92L38.78 25.92C38.86 25.92 38.94 25.85 38.94 25.77L38.94 8.57ZM57.04 6.71L55.78 6.71C55.65 6.71 55.53 6.82 55.53 6.95L55.53 11.61C55.53 11.69 55.45 11.72 55.41 11.63L53.69 6.92C53.65 6.81 53.56 6.7 53.38 6.7L51.87 6.7C51.74 6.7 51.62 6.81 51.62 6.94L51.62 15.13C51.62 15.26 51.74 15.37 51.87 15.37L53.13 15.37C53.27 15.37 53.39 15.26 53.39 15.13L53.39 10.85C53.39 10.78 53.47 10.75 53.5 10.83L55.21 15.18C55.26 15.28 55.34 15.38 55.55 15.38L57.04 15.38C57.18 15.38 57.3 15.27 57.3 15.14L57.3 6.95C57.3 6.82 57.18 6.71 57.04 6.71ZM33.6 20.1L33.6 21.34C33.6 21.47 33.48 21.58 33.35 21.58L28.72 21.58C28.58 21.58 28.47 21.47 28.47 21.34L28.47 13.15C28.47 13.02 28.58 12.9 28.72 12.9L33.3 12.9C33.44 12.9 33.56 13.02 33.56 13.15L33.56 14.39C33.56 14.53 33.44 14.64 33.3 14.64L30.36 14.64C30.29 14.64 30.23 14.69 30.23 14.76L30.23 16.25C30.23 16.32 30.29 16.38 30.36 16.38L33.2 16.38C33.33 16.38 33.45 16.49 33.45 16.62L33.45 17.86C33.45 18 33.33 18.11 33.2 18.11L30.36 18.11C30.29 18.11 30.23 18.16 30.23 18.24L30.23 19.72C30.23 19.8 30.29 19.85 30.36 19.85L33.35 19.85C33.48 19.85 33.6 19.96 33.6 20.1ZM27.07 13.15L27.07 21.34C27.07 21.47 26.96 21.58 26.82 21.58L25.33 21.58C25.12 21.58 25.03 21.48 24.99 21.38L23.28 17.03C23.25 16.94 23.16 16.98 23.16 17.05L23.16 21.33C23.16 21.46 23.05 21.57 22.91 21.57L21.65 21.57C21.51 21.57 21.4 21.46 21.4 21.33L21.4 13.14C21.4 13.01 21.51 12.89 21.65 12.89L23.14 12.89C23.33 12.89 23.41 13.01 23.46 13.12L25.18 17.83C25.21 17.92 25.3 17.88 25.3 17.81L25.3 13.15C25.3 13.02 25.41 12.9 25.55 12.9L26.81 12.9C26.96 12.9 27.06 13.02 27.07 13.15ZM19.97 13.15L19.97 18.98C19.97 20.48 18.71 21.72 16.96 21.72C15.25 21.72 13.99 20.48 13.99 18.98L13.99 13.15C13.99 13.02 14.1 12.9 14.24 12.9L15.51 12.9C15.65 12.9 15.76 13.02 15.76 13.15L15.76 18.98C15.76 19.53 16.22 19.97 16.96 19.97C17.73 19.97 18.18 19.53 18.18 18.98L18.18 13.15C18.18 13.02 18.3 12.9 18.43 12.9L19.7 12.9C19.84 12.9 19.96 13.02 19.97 13.15ZM12.77 14.39C12.77 14.53 12.65 14.64 12.52 14.64L10.94 14.64C10.87 14.64 10.81 14.69 10.81 14.76L10.81 21.34C10.81 21.47 10.7 21.58 10.56 21.58L9.3 21.58C9.16 21.58 9.05 21.47 9.05 21.34L9.05 14.76C9.05 14.69 9 14.64 8.92 14.64L7.35 14.64C7.21 14.64 7.09 14.53 7.09 14.39L7.09 13.15C7.09 13.02 7.21 12.9 7.35 12.9L12.52 12.9C12.65 12.9 12.77 13.02 12.77 13.15L12.77 14.39Z" />
		</g>
	</g>
</svg>