<svg xmlns="http://www.w3.org/2000/svg" viewBox="0 0 192 192" width="64" height="64">
	<style>
		tspan { white-space:pre }
		.shp0 { fill: #5181b8 } 
		.shp1 { fill: #ffffff } 
	</style>
	<g id="Layer">
		<path id="Layer" fill-rule="evenodd" class="shp0" d="M66.56 0L125.44 0C179.2 0 192 12.8 192 66.56L192 125.44C192 179.2 179.2 192 125.44 192L66.56 192C12.8 192 0 179.2 0 125.44L0 66.56C0 12.8 12.8 0 66.56 0Z" />
		<path id="Layer" fill-rule="evenodd" class="shp1" d="M157.23 66.15C158.12 63.18 157.23 61 153 61L139 61C135.44 61 133.8 62.88 132.91 64.96C132.91 64.96 125.79 82.31 115.7 93.59C112.44 96.85 110.96 97.89 109.18 97.89C108.29 97.89 107 96.85 107 93.88L107 66.15C107 62.59 105.97 61 103 61L81 61C78.78 61 77.44 62.65 77.44 64.22C77.44 67.59 82.48 68.37 83 77.86L83 98.48C83 103 82.18 103.82 80.4 103.82C75.66 103.82 64.11 86.39 57.27 66.44C55.92 62.57 54.58 61 51 61L37 61C33 61 32.2 62.88 32.2 64.96C32.2 68.67 36.95 87.06 54.3 111.38C65.87 128 82.17 137 97 137C105.9 137 107 135 107 131.56L107 119C107 115 107.84 114.2 110.66 114.2C112.74 114.2 116.3 115.24 124.6 123.25C134.1 132.74 135.66 137 141 137L155 137C159 137 161 135 159.85 131.05C158.58 127.12 154.05 121.41 148.04 114.65C144.77 110.79 139.88 106.64 138.4 104.56C136.32 101.89 136.91 100.7 138.4 98.33C138.4 98.33 155.45 74.3 157.23 66.15L157.23 66.15Z" />
	</g>
</svg>