<svg xmlns="http://www.w3.org/2000/svg" viewBox="0 0 44 44" width="64" height="64">
	<style>
		tspan { white-space:pre }
		.shp0 { fill: #ffcc00 } 
		.shp1 { fill: #ff3333 } 
	</style>
	<g id="Brand">
		<g id="Brand-/-Icon-/-Simple-/-SimpleIcon">
			<g id="Logo">
				<g id="Layer">
					<path id="Oval" class="shp0" d="M21.61 38.96C14.09 38.96 8.01 32.89 8.01 25.38C8.01 17.87 14.09 11.8 21.61 11.8C29.13 11.8 35.21 17.87 35.21 25.38C35.21 32.89 29.13 38.96 21.61 38.96Z" />
					<path id="Combined-Shape" fill-rule="evenodd" class="shp1" d="M28.42 11.53L28.42 24.24L28.39 24.25C28.39 24.25 28.39 24.26 28.39 24.27C28.39 25.51 28.3 26.67 28.13 27.26C27.32 30.1 24.7 32.17 21.59 32.17C17.84 32.17 14.83 29.14 14.83 25.39C14.83 21.64 17.84 18.61 21.59 18.61C23.36 18.61 24.97 19.28 26.18 20.39C26.58 20.75 26.93 21.16 27.23 21.6C27.15 21.2 27.06 20.7 27.06 20.27L27.06 10.43L27.06 5L35.91 7.71L35.91 13.84L28.42 11.53Z" />
				</g>
			</g>
		</g>
	</g>
</svg>