<svg xmlns="http://www.w3.org/2000/svg" viewBox="0 0 64 64" width="64" height="64">
	<style>
		tspan { white-space:pre }
		.shp0 { fill: #ff0000 } 
		.shp1 { fill: #ffffff } 
	</style>
	<path id="Path 1" class="shp0" d="M61.63 16.74C60.92 14.04 58.8 11.92 56.11 11.19C51.25 9.88 31.73 9.88 31.73 9.88C31.73 9.88 12.22 9.88 7.35 11.19C4.67 11.92 2.55 14.04 1.83 16.74C0.53 21.62 0.53 31.82 0.53 31.82C0.53 31.82 0.53 42.02 1.83 46.91C2.55 49.61 4.67 51.73 7.35 52.45C12.22 53.76 31.73 53.76 31.73 53.76C31.73 53.76 51.25 53.76 56.11 52.45C58.8 51.73 60.92 49.61 61.63 46.91C62.94 42.02 62.94 31.82 62.94 31.82C62.94 31.82 62.94 21.62 61.63 16.74Z" />
	<path id="Path 2" class="shp1" d="M25.35 41.08L41.66 31.82L25.35 22.56L25.35 41.08Z" />
</svg>