<svg width="40" height="40" viewBox="0 0 40 40" fill="none" xmlns="http://www.w3.org/2000/svg">
<rect x="0.5" y="0.5" width="39" height="39" rx="19.5" fill="#F6F6F6" stroke="#F6F6F6"/>
<path fill-rule="evenodd" clip-rule="evenodd" d="M11.5 18.3178C11.5 13.7179 15.3439 10 19.9934 10C24.6561 10 28.5 13.7179 28.5 18.3178C28.5 20.6357 27.657 22.7876 26.2695 24.6116C24.7388 26.6235 22.8522 28.3765 20.7285 29.7524C20.2425 30.0704 19.8039 30.0944 19.2704 29.7524C17.1347 28.3765 15.2481 26.6235 13.7305 24.6116C12.342 22.7876 11.5 20.6357 11.5 18.3178ZM17.1942 18.5768C17.1942 20.1177 18.4517 21.3297 19.9934 21.3297C21.5362 21.3297 22.8058 20.1177 22.8058 18.5768C22.8058 17.0478 21.5362 15.7768 19.9934 15.7768C18.4517 15.7768 17.1942 17.0478 17.1942 18.5768Z" fill="#C2C2C2"/>
</svg>
