<svg width="40" height="40" viewBox="0 0 40 40" fill="none" xmlns="http://www.w3.org/2000/svg">
<circle cx="20" cy="20" r="19.5" fill="#F9F9F9" stroke="#EEEEEE"/>
<path d="M11 14.0034V15.0017C11 15.7942 11.319 16.5557 11.8748 17.1218C12.4305 17.6878 13.2024 17.9966 13.9949 17.9966C14.7873 17.9966 15.5489 17.6775 16.1149 17.1218C16.681 16.5557 16.9897 14.7959 16.9897 14.0034M16.9897 14.0034C16.9897 14.7959 17.247 16.566 17.813 17.1218C18.482 17.7907 19.2024 17.9966 19.9949 17.9966C20.7873 17.9966 21.6106 17.6775 22.1767 17.1218C22.7427 16.5557 23 14.7959 23 14.0034M23 14.0034C23 14.7959 23.319 16.566 23.8748 17.1218C24.4408 17.6878 25.2024 17.9966 25.9949 17.9966C26.7873 17.9966 27.5489 17.6775 28.1149 17.1218C28.681 16.5557 28.9897 15.7942 28.9897 15.0017V14.0034H11L12.6981 10.6072C12.8834 10.2367 13.2642 10 13.6758 10H26.3242C26.7358 10 27.1166 10.2367 27.3019 10.6072L29 14.0034" fill="#C2C2C2"/>
<path d="M26.0055 19.3759C24.894 19.3759 23.8443 18.9437 23.0312 18.1924C22.1976 18.9643 21.0861 19.3759 20.0055 19.3759C18.9249 19.3759 17.9163 19.0878 16.9695 18.2027C16.1667 18.954 15.1067 19.3759 14.0055 19.3759C13.5321 19.3759 13.0793 19.2833 12.6367 19.1392V28.556H17.0004V24.5526C17.0004 24.0174 17.2062 23.5131 17.587 23.1426C17.9678 22.7721 18.4721 22.556 18.9969 22.556H20.9935C21.5287 22.556 22.0329 22.7619 22.4034 23.1426C22.7739 23.5234 22.9901 24.0277 22.9901 24.5526V28.556H27.8992V18.9128C27.3125 19.201 26.6642 19.3759 25.9849 19.3759H26.0055Z" fill="#C2C2C2"/>
<path d="M11 29.2041H29Z" fill="#C2C2C2"/>
<path d="M11 29.2041H29" stroke="#C2C2C2" stroke-width="1.36878" stroke-linecap="round" stroke-linejoin="round"/>
</svg>
