<?xml version="1.0" encoding="utf-8"?>
<!-- Generator: Adobe Illustrator 26.2.1, SVG Export Plug-In . SVG Version: 6.00 Build 0)  -->
<svg version="1.1" id="Layer_1" xmlns="http://www.w3.org/2000/svg" xmlns:xlink="http://www.w3.org/1999/xlink" x="0px" y="0px"
	 viewBox="0 0 56 64" style="enable-background:new 0 0 56 64;" xml:space="preserve">
<style type="text/css">
	.st0{clip-path:url(#SVGID_00000072242114598263084900000018051811304403395749_);}
	.st1{fill:#F38230;}
	.st2{fill:#FFFFFF;filter:url(#Adobe_OpacityMaskFilter);}
	.st3{mask:url(#path-6-outside-1_8535_177817_00000047756504639052570010000003903202841537098630_);}
</style>
<g>
	<path d="M56,28.5c0,13.3-9,24.6-21.2,27.7L28,64l-6.8-7.8C9,53.1,0,41.8,0,28.5C0,12.8,12.5,0,28,0C43.4,0,56,12.8,56,28.5z"/>
</g>
<g>
	<defs>
		<rect id="SVGID_1_" x="14.7" y="14.7" width="26.7" height="26.7"/>
	</defs>
	<clipPath id="SVGID_00000030448071619901528590000014670993598446835896_">
		<use xlink:href="#SVGID_1_"  style="overflow:visible;"/>
	</clipPath>
	<g style="clip-path:url(#SVGID_00000030448071619901528590000014670993598446835896_);">
		<g>
			<path class="st1" d="M18.9,26.1h19.3v13.1H18.9V26.1z"/>
		</g>
		<g>
			<path d="M24.4,39.2v-5.1c0-0.7,0.3-1.3,0.7-1.8c0.5-0.5,1.1-0.7,1.8-0.7h2.5c0.7,0,1.3,0.3,1.8,0.7c0.5,0.5,0.7,1.1,0.7,1.8v5.1"
				/>
		</g>
		<g>
			<path d="M32,40.1c-0.5,0-0.9-0.4-0.9-0.9v-5.1c0-0.4-0.2-0.9-0.5-1.2c-0.3-0.3-0.7-0.5-1.2-0.5h-2.5c-0.4,0-0.9,0.2-1.2,0.5
				c-0.3,0.3-0.5,0.7-0.5,1.2v5.1c0,0.5-0.4,0.9-0.9,0.9s-0.9-0.4-0.9-0.9v-5.1c0-0.9,0.4-1.8,1-2.4c0.6-0.6,1.5-1,2.4-1h2.5
				c0.9,0,1.8,0.4,2.4,1c0.6,0.6,1,1.5,1,2.4v5.1C32.9,39.7,32.5,40.1,32,40.1z"/>
		</g>
		<g>
			<path class="st1" d="M39.6,41H16.8c-0.6,0-1-0.4-1-1s0.4-1,1-1h22.8c0.6,0,1,0.4,1,1S40.1,41,39.6,41z"/>
		</g>
		<g>
			<path class="st1" d="M16.8,20.8v1.3c0,1,0.4,2,1.1,2.7c0.7,0.7,1.7,1.1,2.7,1.1c1,0,2-0.4,2.7-1.1c0.7-0.7,1.1-2.9,1.1-4
				 M24.4,20.8c0,1,0.3,3.2,1,4c0.8,0.8,1.8,1.1,2.8,1.1c1,0,2.1-0.4,2.8-1.1c0.7-0.7,1-2.9,1-4 M32,20.8c0,1,0.4,3.2,1.1,4
				c0.7,0.7,1.7,1.1,2.7,1.1c1,0,2-0.4,2.7-1.1c0.7-0.7,1.1-1.7,1.1-2.7v-1.3H16.8l2.2-4.3c0.2-0.5,0.7-0.8,1.2-0.8h16
				c0.5,0,1,0.3,1.2,0.8l2.2,4.3"/>
		</g>
		<defs>
			<filter id="Adobe_OpacityMaskFilter" filterUnits="userSpaceOnUse" x="15.1" y="14" width="26.3" height="13.6">
				<feColorMatrix  type="matrix" values="1 0 0 0 0  0 1 0 0 0  0 0 1 0 0  0 0 0 1 0"/>
			</filter>
		</defs>
		
			<mask maskUnits="userSpaceOnUse" x="15.1" y="14" width="26.3" height="13.6" id="path-6-outside-1_8535_177817_00000047756504639052570010000003903202841537098630_">
			<rect x="14.8" y="13.7" class="st2" width="27" height="14"/>
			<path d="M16.8,20.8v1.3c0,1,0.4,2,1.1,2.7c0.7,0.7,1.7,1.1,2.7,1.1c1,0,2-0.4,2.7-1.1c0.7-0.7,1.1-2.9,1.1-4 M24.4,20.8
				c0,1,0.3,3.2,1,4c0.8,0.8,1.8,1.1,2.8,1.1c1,0,2.1-0.4,2.8-1.1c0.7-0.7,1-2.9,1-4 M32,20.8c0,1,0.4,3.2,1.1,4
				c0.7,0.7,1.7,1.1,2.7,1.1c1,0,2-0.4,2.7-1.1c0.7-0.7,1.1-1.7,1.1-2.7v-1.3H16.8l2.2-4.3c0.2-0.5,0.7-0.8,1.2-0.8h16
				c0.5,0,1,0.3,1.2,0.8l2.2,4.3"/>
		</mask>
		<g class="st3">
			<path d="M16.8,20.8L15.2,20c-0.1,0.2-0.2,0.5-0.2,0.8H16.8z M16.8,22.1h-1.7H16.8z M26.1,20.8c0-1-0.8-1.7-1.7-1.7
				c-1,0-1.7,0.8-1.7,1.7H26.1z M25.4,24.7l1.2-1.2l0,0L25.4,24.7z M33.7,20.8c0-1-0.8-1.7-1.7-1.7c-1,0-1.7,0.8-1.7,1.7H33.7z
				 M39.6,22.1h1.7H39.6z M39.6,20.8h1.7c0-0.3-0.1-0.5-0.2-0.8L39.6,20.8z M37.4,16.5l-1.6,0.8L37.4,16.5z M18.9,16.5l-1.6-0.8
				L18.9,16.5z M15.1,20.8v1.3h3.5v-1.3H15.1z M15.1,22.1c0,1.5,0.6,2.9,1.6,3.9l2.5-2.5c-0.4-0.4-0.6-0.9-0.6-1.5H15.1z M16.7,26
				c1,1,2.4,1.6,3.9,1.6v-3.5c-0.5,0-1.1-0.2-1.5-0.6L16.7,26z M20.6,27.6c1.5,0,2.9-0.6,3.9-1.6L22,23.5c-0.4,0.4-0.9,0.6-1.5,0.6
				V27.6z M24.5,26c0.4-0.4,0.7-0.9,0.8-1.3c0.2-0.4,0.3-0.9,0.4-1.4c0.2-0.9,0.3-1.8,0.3-2.5h-3.5c0,0.3-0.1,1-0.2,1.7
				c-0.1,0.3-0.2,0.6-0.3,0.8C22,23.5,22,23.6,22,23.5L24.5,26z M22.7,20.8c0,0.6,0.1,1.6,0.3,2.5c0.1,0.4,0.2,0.9,0.4,1.4
				c0.2,0.4,0.4,0.9,0.8,1.4l2.5-2.5c0.1,0.1,0,0-0.1-0.2c-0.1-0.2-0.2-0.5-0.2-0.8c-0.1-0.7-0.2-1.3-0.2-1.7H22.7z M24.2,26
				c1.2,1.2,2.6,1.6,4,1.6v-3.5c-0.6,0-1.1-0.1-1.5-0.6L24.2,26z M28.2,27.6c1.4,0,2.9-0.6,4-1.6l-2.5-2.5c-0.4,0.4-1,0.6-1.5,0.6
				V27.6z M32.2,26c0.4-0.4,0.7-0.9,0.8-1.4c0.2-0.4,0.3-0.9,0.4-1.4c0.2-0.9,0.3-1.8,0.3-2.5h-3.5c0,0.4-0.1,1-0.2,1.7
				c-0.1,0.3-0.2,0.6-0.2,0.8c-0.1,0.2-0.1,0.3-0.1,0.2L32.2,26z M30.2,20.8c0,0.7,0.1,1.6,0.3,2.5c0.1,0.4,0.3,0.9,0.4,1.4
				c0.2,0.4,0.4,0.9,0.8,1.3l2.5-2.5c0.1,0.1,0,0-0.1-0.2c-0.1-0.2-0.2-0.5-0.3-0.8c-0.2-0.7-0.2-1.3-0.2-1.7H30.2z M31.9,26
				c1,1,2.4,1.6,3.9,1.6v-3.5c-0.5,0-1.1-0.2-1.5-0.6L31.9,26z M35.8,27.6c1.5,0,2.9-0.6,3.9-1.6l-2.5-2.5c-0.4,0.4-0.9,0.6-1.5,0.6
				V27.6z M39.7,26c1-1,1.6-2.4,1.6-3.9h-3.5c0,0.5-0.2,1.1-0.6,1.5L39.7,26z M41.3,22.1v-1.3h-3.5v1.3H41.3z M39.6,19.1H16.8v3.5
				h22.8V19.1z M18.3,21.6l2.2-4.3l-3.1-1.6L15.2,20L18.3,21.6z M20.2,17.5h16V14h-16V17.5z M35.9,17.3l2.2,4.3l3.1-1.6L39,15.7
				L35.9,17.3z M36.2,17.5c-0.1,0-0.3-0.1-0.3-0.2l3.1-1.6c-0.5-1.1-1.6-1.7-2.8-1.7V17.5z M20.5,17.3c-0.1,0.1-0.2,0.2-0.3,0.2V14
				c-1.2,0-2.3,0.7-2.8,1.7L20.5,17.3z"/>
		</g>
	</g>
</g>
</svg>
