<?xml version="1.0" encoding="utf-8"?>
<!-- Generator: Adobe Illustrator 23.0.3, SVG Export Plug-In . SVG Version: 6.00 Build 0)  -->
<svg version="1.1" id="Layer_1" xmlns="http://www.w3.org/2000/svg" xmlns:xlink="http://www.w3.org/1999/xlink" x="0px" y="0px"
	 viewBox="0 0 2840.2 1000" style="enable-background:new 0 0 2840.2 1000;" xml:space="preserve">
<style type="text/css">
	.st0{fill:#662F90;}
	.st1{fill:#FBAF41;}
</style>
<g>
	<g>
		<g>
			<g>
				<path class="st0" d="M1277.1,318.3c0,0,133.2,61.2,286,0c0,0-13.7,125.3-145.3,125.3S1277.1,318.3,1277.1,318.3z"/>
				<path class="st0" d="M1522.9,204.5c0,21-13.6,38.1-30.4,38.1s-30.4-17.1-30.4-38.1s13.6-38.1,30.4-38.1
					S1522.9,183.5,1522.9,204.5z"/>
				<path class="st0" d="M1390.6,204.5c0,21-18.2-13.2-36.3-13.2c-18.1,0-36.3,34.3-36.3,13.2c0-21,18.2-38.1,36.3-38.1
					S1390.6,183.5,1390.6,204.5z"/>
			</g>
			<path class="st1" d="M1205.6,277.3c-6.2,7-14,12.9-23.5,17.8c-9.4,4.9-15.8,8.1-19.2,9.6l10.7,5.7c10.9,5.7,19,10.4,24.3,14.1
				c5.3,3.8,9.4,9.1,12.4,16.1s4.5,16.3,4.5,28v84.8c0,13.9,3.9,23.8,11.6,29.7c7.7,5.8,21.4,8.8,41,8.8v58.8h-28.3
				c-32.8,0-56.1-5.7-70.1-17c-13.9-11.3-20.9-30.5-20.9-57.6V363.5c0-10.2-1.8-17.4-5.4-21.8c-3.6-4.3-9.5-6.5-17.8-6.5h-18.6
				v-60.5h18.6c8.3,0,14.2-2.2,17.8-6.5c3.6-4.3,5.4-11.6,5.4-21.8V134c0-27.1,7-46.3,20.9-57.6s37.3-17,70.1-17h28.3v58.8
				c-19.6,0-33.3,2.9-41,8.8c-7.7,5.8-11.6,15.7-11.6,29.7V242C1215,258.6,1211.8,270.3,1205.6,277.3z"/>
			<path class="st1" d="M1733.7,274.8v60.5H1715c-8.3,0-14.2,2.2-17.8,6.5c-3.6,4.3-5.4,11.6-5.4,21.8v112.5
				c0,27.1-7,46.3-20.9,57.6s-37.3,17-70.1,17h-28.3v-58.8c19.6,0,33.2-2.9,41-8.8c7.7-5.8,11.6-15.7,11.6-29.7v-84.8
				c0-11.7,1.5-21,4.5-28s7.2-12.3,12.4-16.1c5.3-3.8,13.4-8.5,24.3-14.1l10.7-5.7c-3.4-1.5-10.7-5.2-22-11s-19.1-12.7-23.5-20.6
				c-4.3-7.9-6.5-18.3-6.5-31.1v-85.3c0-13.9-3.9-23.8-11.6-29.7c-7.7-5.8-21.4-8.8-41-8.8V59.5h28.3c32.8,0,56.1,5.7,70.1,17
				c13.9,11.3,20.9,30.5,20.9,57.6v112.5c0,10.2,1.8,17.4,5.4,21.8c3.6,4.3,9.5,6.5,17.8,6.5h18.8V274.8z"/>
		</g>
		<g>
			<path class="st0" d="M81.2,626.7h31.5L183,826.5l69.5-199.7h31l69.9,199.7l69.9-199.7H454l-85.7,229h-30.6l-69.9-193.6
				l-69.9,193.6h-30.6L81.2,626.7z"/>
			<path class="st0" d="M675.8,640.5c16.8,9.8,29.8,23.5,39.1,41.1s14,37.7,14,60.1c0,22.1-4.7,42-14,59.4
				c-9.3,17.5-22.3,31.1-38.9,40.9c-16.6,9.8-35.6,14.6-56.8,14.6c-21,0-39.3-4.7-55.1-14.2c-15.7-9.5-28-22.7-36.7-39.6v137.7
				h-29.3V626.7h29.3v52.9c8.4-16.9,20.6-30.1,36.5-39.6s34.2-14.2,54.8-14.2C640,625.9,659,630.8,675.8,640.5z M657.7,819.7
				c13.1-7.7,23.3-18.4,30.6-32.1c7.3-13.7,10.9-29.3,10.9-46.8c0-17.2-3.6-32.6-10.9-46.3c-7.3-13.7-17.5-24.4-30.6-32.1
				c-13.1-7.7-27.8-11.6-44.1-11.6c-16.6,0-31.4,3.9-44.4,11.6c-13,7.7-23.2,18.4-30.6,32.1c-7.4,13.7-11.1,29.1-11.1,46.3
				c0,17.5,3.6,33.1,10.9,46.8c7.3,13.7,17.5,24.4,30.6,32.1c13.1,7.7,28,11.6,44.6,11.6C629.8,831.3,644.6,827.4,657.7,819.7z"/>
			<path class="st1" d="M872.5,632.2c13.5-8,29.4-12.2,47.4-12.5v55.1c-24.2-1.5-43.5,4.2-57.9,16.8c-14.4,12.7-21.6,29.8-21.6,51.4
				v112.8h-56.8V621.9h56.8v45C848.2,651.8,858.9,640.2,872.5,632.2z"/>
			<path class="st1" d="M1141.3,652.1c18.8,21.3,28.2,51.1,28.2,89.6c0,7.6-0.2,13.3-0.4,17H996.4c3.8,16.6,11.6,29.7,23.4,39.1
				c11.8,9.5,26.3,14.2,43.5,14.2c11.9,0,23.4-2.3,34.3-6.8s20.5-11,28.6-19.4l30.6,31.9c-11.7,12.8-25.9,22.7-42.6,29.7
				c-16.8,7-35.3,10.5-55.7,10.5c-23.9,0-44.9-5-63.2-14.9c-18.2-9.9-32.3-23.8-42.2-41.7s-14.9-38.5-14.9-61.8s5-44,15.1-62.1
				s24.1-32.1,42.2-42.2c18.1-10.1,38.6-15.1,61.6-15.1C1094.4,620.2,1122.5,630.8,1141.3,652.1z M1117.4,720.7
				c-0.6-17.2-6.3-30.9-17-41.1c-10.8-10.2-25.1-15.3-42.8-15.3c-16.6,0-30.5,5-41.7,15.1s-18.1,23.8-20.8,41.3H1117.4z"/>
			<path class="st1" d="M1356.5,855.8v-28.4c-8.2,10.2-18.6,17.9-31.5,23.2c-12.8,5.2-27.5,7.9-44.1,7.9c-16.3,0-30.7-3.1-43-9.4
				c-12.4-6.3-21.9-14.9-28.6-26s-10.1-23.5-10.1-37.1c0-21.9,7.7-39,23.2-51.4c15.4-12.4,37.3-18.7,65.6-19h68.2v-6.1
				c0-13.7-4.5-24.3-13.5-31.9c-9-7.6-22.1-11.4-39.3-11.4c-22.1,0-45.3,7.3-69.5,21.9l-20.5-39.3c18.4-10.2,35-17.5,50-22.1
				c15-4.5,32.6-6.8,52.7-6.8c30.3,0,53.8,7.3,70.6,21.9c16.8,14.6,25.3,35,25.6,61.2l0.4,153h-56.2V855.8z M1336.4,803.1
				c11.7-7.7,18.2-17.3,19.7-28.6v-21h-59c-15.2,0-26.3,2.3-33.4,6.8s-10.7,11.9-10.7,22.1c0,9.9,3.7,17.8,11.1,23.6
				s17.6,8.7,30.4,8.7C1310.7,814.7,1324.7,810.8,1336.4,803.1z"/>
			<path class="st1" d="M1575.9,670c-18.9,0-34.3,6.4-46.1,19.2c-11.8,12.8-17.7,29.4-17.7,49.8c0,21,5.9,37.9,17.7,50.7
				c11.8,12.8,27.2,19.2,46.1,19.2c28,0,48.9-9.2,62.9-27.5l35.4,29.3c-10.5,15.2-24.3,26.8-41.5,35s-37.1,12.2-59.9,12.2
				c-23,0-43.5-5-61.4-14.9s-31.8-23.8-41.7-41.7c-9.9-17.9-14.9-38.5-14.9-61.8c0-23.6,5-44.4,15.1-62.5s24-32,42-42
				c17.9-9.9,38.5-14.9,61.8-14.9c21.3,0,40.3,3.7,57,11.1c16.8,7.4,30.4,18,40.9,31.7l-34.5,32.8
				C1621.3,678.6,1600.9,670,1575.9,670z"/>
			<path class="st1" d="M1859.5,841.3c-18.6,11.4-38.2,17-58.6,17c-20.1,0-36.6-5.9-49.4-17.7s-19.2-29.2-19.2-52.2V673.1h-32.8
				l-0.4-41.5h33.2v-64.2h56.4v64.2h66.9v41.5h-66.9v105.3c0,10.8,2,18.4,6.1,22.9s10.2,6.8,18.4,6.8c8.7,0,19.8-3.2,33.2-9.6
				L1859.5,841.3z"/>
			<path class="st1" d="M1955.2,531c6.1,6.4,9.2,14.6,9.2,24.5c0,9.6-3.1,17.6-9.2,24s-13.8,9.6-23.2,9.6c-9.3,0-17-3.2-23.2-9.6
				c-6.1-6.4-9.2-14.4-9.2-24c0-9.9,3.1-18.1,9.2-24.5s13.8-9.6,23.2-9.6C1941.4,521.4,1949.1,524.6,1955.2,531z M1904.1,621.9h56.8
				v233.8h-56.8V621.9z"/>
			<path class="st1" d="M2197.6,635.1c18.5,9.9,32.9,23.8,43.3,41.7c10.3,17.9,15.5,38.5,15.5,61.8c0,23.6-5.2,44.4-15.5,62.5
				s-24.8,32.1-43.3,42s-39.8,14.9-64,14.9c-24.5,0-46-5-64.7-14.9c-18.6-9.9-33.1-23.9-43.5-42c-10.3-18.1-15.5-38.9-15.5-62.5
				c0-23.3,5.2-43.9,15.5-61.8c10.3-17.9,24.8-31.8,43.5-41.7c18.6-9.9,40.2-14.9,64.7-14.9C2157.7,620.2,2179.1,625.1,2197.6,635.1
				z M2085.5,688.4c-12.2,13.1-18.4,30.2-18.4,51.1c0,21,6.1,38,18.4,51.1s28.3,19.7,48.1,19.7c19.2,0,35-6.6,47.2-19.7
				s18.4-30.2,18.4-51.1c0-21-6.1-38-18.4-51.1s-28-19.7-47.2-19.7C2113.7,668.7,2097.7,675.3,2085.5,688.4z"/>
			<path class="st1" d="M2509.8,644c15.4,16.2,23.2,38.1,23.2,65.8v146h-57.3V726.4c0-16.3-4.7-29.2-14-38.7s-22-14.2-38-14.2
				c-18.9,0.3-33.9,6.7-44.8,19.2c-10.9,12.5-16.4,28.6-16.4,48.1v114.9h-56.8V621.9h56.8v43.7c16-30,44-45.3,83.9-45.9
				C2473.3,619.8,2494.4,627.8,2509.8,644z"/>
			<path class="st1" d="M2700.2,669.6c-12.1-3.8-23.2-5.7-33.4-5.7c-9.6,0-17.3,1.7-22.9,5c-5.7,3.4-8.5,8.5-8.5,15.5
				c0,7.3,3.6,12.9,10.7,16.8c7.1,3.9,18.4,8.1,33.9,12.5c16.3,5,29.7,9.8,40.2,14.6s19.6,12,27.3,21.4c7.7,9.5,11.6,21.9,11.6,37.4
				c0,22.7-8.7,40.2-26.2,52.4s-39.5,18.4-66,18.4c-18.1,0-35.7-2.8-52.9-8.5s-31.8-13.8-43.7-24.3l19.7-39.8
				c10.5,9,23,16.1,37.6,21.2c14.6,5.1,28.4,7.6,41.5,7.6c10.5,0,18.9-1.8,25.1-5.5c6.3-3.6,9.4-9.1,9.4-16.4
				c0-8.2-3.6-14.3-10.9-18.4c-7.3-4.1-19.1-8.6-35.4-13.5c-15.7-4.7-28.6-9.2-38.5-13.8c-9.9-4.5-18.5-11.4-25.8-20.5
				c-7.3-9.2-10.9-21.2-10.9-36.1c0-23,8.4-40.6,25.1-52.7c16.8-12.1,37.8-18.1,63.2-18.1c15.4,0,30.7,2.2,45.7,6.6
				c15,4.4,28.3,10.5,40,18.4l-20.5,41.1C2724,678.6,2712.2,673.4,2700.2,669.6z"/>
		</g>
	</g>
</g>
</svg>
