<svg id="Layer_1" xmlns="http://www.w3.org/2000/svg" viewBox="0 0 127.64 126" fill="#444444">
    <rect y="13" width="14" height="100"/>
    <rect width="40" height="14"/>
    <rect y="112" width="40" height="14"/>
    <rect x="113.64" y="13" width="14" height="100"/>
    <rect x="87.64" width="40" height="14"/>
    <rect x="87.64" y="112" width="40" height="14"/>
    <path d="M377.19,678.46a8.91,8.91,0,0,0-3.07-7.08q-3.06-2.67-10.77-5-13.23-4-20.07-9.39t-6.84-14.74a18.54,18.54,0,0,1,7.71-15.34q7.71-6,19.67-6,12.69,0,20.43,6.4a20,20,0,0,1,7.47,16.78l-.1.32H376.77q0-5.71-3.46-8.79t-9.7-3.07q-5.67,0-8.76,2.73a8.86,8.86,0,0,0-3.1,7,7.61,7.61,0,0,0,3.36,6.37q3.36,2.49,11.59,5.27,12.6,3.57,19.2,9.31t6.61,15.14a18.19,18.19,0,0,1-7.66,15.47q-7.65,5.67-20.25,5.67-12.32,0-21.16-6.14t-8.58-18.31l.11-.31h14.84q0,6.76,4,10t10.8,3.2c4.1,0,7.22-.85,9.37-2.57A8.32,8.32,0,0,0,377.19,678.46Z"
          transform="translate(-299.86 -596)"/>
</svg>