<?xml version="1.0" encoding="UTF-8" standalone="no"?>
<svg xmlns="http://www.w3.org/2000/svg" width="16" height="16" viewBox="0 0 0.423 0.423"><circle cx="0.212" cy="0.212" r="0.185" style="fill:none;stroke-width:0.0265;stroke:#929292"/><g><path d="m0.276 0.153q0 0.015-0.005 0.027-0.005 0.012-0.014 0.021-0.009 0.009-0.02 0.016-0.011 0.008-0.024 0.015v0.034h-0.027v-0.047q0.01-0.006 0.021-0.012 0.012-0.007 0.019-0.014 0.009-0.008 0.014-0.016 0.005-0.009 0.005-0.022 0-0.017-0.012-0.026-0.012-0.009-0.03-0.009-0.017 0-0.031 0.005-0.015 0.005-0.023 0.011h-0.002V0.106q0.011-0.004 0.027-0.007 0.017-0.003 0.031-0.003 0.033 0 0.052 0.016 0.019 0.016 0.019 0.042zm-0.061 0.175h-0.031v-0.032h0.031z" style="fill:#929292;stroke-width:0.265"/></g></svg>