<svg width="64" height="64" viewBox="0 0 64 64" fill="none" xmlns="http://www.w3.org/2000/svg">
<path d="M53 29.0061C52.9994 33.7492 51.3931 38.3524 48.4425 42.0666C45.4919 45.7807 41.3708 48.3871 36.75 49.4615L32 56L27.25 49.4615C22.6292 48.3871 18.5081 45.7807 15.5575 42.0666C12.6069 38.3524 11.0006 33.7492 11 29.0061C11 28.4004 11.0254 27.8009 11.0763 27.2077C11.5241 21.968 13.9224 17.087 17.7969 13.5303C21.6715 9.97354 26.74 8 32 8C37.26 8 42.3285 9.97354 46.2031 13.5303C50.0776 17.087 52.4759 21.968 52.9238 27.2077C52.9746 27.8001 53 28.3996 53 29.0061Z" fill="#FFA300"/>
<path d="M40.9263 22.115L33 26.6925C32.696 26.868 32.3511 26.9604 32 26.9604C31.6489 26.9604 31.304 26.868 31 26.6925L23.0738 22.115C22.998 22.071 22.9351 22.008 22.8914 21.932C22.8477 21.8561 22.8246 21.7701 22.8246 21.6825C22.8246 21.5949 22.8477 21.5088 22.8914 21.4329C22.9351 21.357 22.998 21.2939 23.0738 21.25L31 16.6737C31.304 16.4982 31.6489 16.4058 32 16.4058C32.3511 16.4058 32.696 16.4982 33 16.6737L40.9263 21.25C41.002 21.2939 41.0649 21.357 41.1086 21.4329C41.1524 21.5088 41.1754 21.5949 41.1754 21.6825C41.1754 21.7701 41.1524 21.8561 41.1086 21.932C41.0649 22.008 41.002 22.071 40.9263 22.115Z" fill="white"/>
<path d="M30.5 31.0238V39.7675C30.5001 39.8553 30.4771 39.9417 30.4333 40.0178C30.3895 40.0939 30.3264 40.1571 30.2503 40.2011C30.1743 40.245 30.088 40.2682 30.0002 40.2682C29.9124 40.2683 29.8261 40.2452 29.75 40.2013L22 35.7263C21.6968 35.5512 21.4449 35.2997 21.2694 34.9967C21.0939 34.6938 21.001 34.3501 21 34V25.25C20.9999 25.1622 21.0229 25.0759 21.0667 24.9997C21.1105 24.9236 21.1736 24.8604 21.2497 24.8164C21.3257 24.7725 21.412 24.7493 21.4998 24.7493C21.5876 24.7492 21.6739 24.7723 21.75 24.8163L29.5 29.2913C29.8041 29.4668 30.0566 29.7194 30.2322 30.0235C30.4077 30.3276 30.5001 30.6726 30.5 31.0238V31.0238Z" fill="white"/>
<path d="M43 25.25V34C43.0001 34.3512 42.9077 34.6961 42.7322 35.0003C42.5566 35.3044 42.3041 35.5569 42 35.7325L34.25 40.2075C34.1739 40.2514 34.0876 40.2745 33.9998 40.2745C33.912 40.2745 33.8257 40.2513 33.7497 40.2073C33.6736 40.1634 33.6105 40.1001 33.5667 40.024C33.5229 39.9479 33.4999 39.8616 33.5 39.7738V31.0238C33.4999 30.6726 33.5923 30.3276 33.7678 30.0235C33.9434 29.7194 34.1959 29.4668 34.5 29.2913L42.25 24.8163C42.3261 24.7723 42.4124 24.7492 42.5002 24.7493C42.588 24.7493 42.6743 24.7725 42.7503 24.8164C42.8264 24.8604 42.8895 24.9236 42.9333 24.9997C42.9771 25.0759 43.0001 25.1622 43 25.25V25.25Z" fill="white"/>
</svg>
