<svg width="313" height="32" viewBox="0 0 313 32" fill="none" xmlns="http://www.w3.org/2000/svg">
<g clip-path="url(#clip0_213_12856)">
<g clip-path="url(#clip1_213_12856)">
<path fill-rule="evenodd" clip-rule="evenodd" d="M49.9806 21.0382H50.024V22.6358H52.885V9.33703H50.024V10.9778H49.9806C49.2437 9.85517 47.7265 8.99161 45.7325 8.99161C41.3976 8.99161 38.6667 12.7049 38.6667 15.9864C38.6667 19.4407 41.2242 23.0244 45.6024 23.0244C47.4231 23.0244 49.0703 22.2472 49.9806 21.0382ZM50.1549 15.9807C50.1549 18.3554 48.2042 20.2985 45.9501 20.2985C43.6093 20.2985 41.7019 18.3554 41.7019 15.9807C41.7019 13.6059 43.6093 11.6629 45.9501 11.6629C48.2042 11.6629 50.1549 13.6059 50.1549 15.9807Z" fill="black"/>
<path fill-rule="evenodd" clip-rule="evenodd" d="M56.7403 12.1124H54.8763V9.43533H56.7403V7.19008C56.7403 4.72894 58.2575 2.35416 61.7254 2.35416C62.4189 2.35416 63.3293 2.48369 63.9361 2.69958L62.7657 5.29025C62.3756 5.11754 62.0288 5.03119 61.5086 5.03119C60.3382 5.03119 59.6446 5.9811 59.6446 6.97419V9.39215H62.5056V12.0692H59.6446V22.6909H56.7836V12.1124H56.7403Z" fill="black"/>
<path fill-rule="evenodd" clip-rule="evenodd" d="M65.5665 12.0244H63.9193V9.34737H65.5665V5.375H68.4275V9.34737H70.4649V12.0244H68.4275V22.6462H65.5665V12.0244Z" fill="black"/>
<path fill-rule="evenodd" clip-rule="evenodd" d="M78.7783 23.0245C81.1624 23.0245 83.3732 21.8155 84.9771 19.7862L82.5496 18.4045C81.5526 19.743 80.2521 20.477 78.6916 20.477C76.6975 20.477 74.7902 19.009 74.6168 16.9796H85.714V16.4615C85.714 11.2801 81.5526 8.9917 78.7783 8.9917C74.0966 8.9917 71.409 12.4459 71.409 15.9865C71.409 19.5271 74.0966 23.0245 78.7783 23.0245ZM78.3118 11.4902C80.1325 11.4902 81.6497 12.5697 82.2566 14.599H74.5405C75.0173 12.6129 76.4912 11.4902 78.3118 11.4902Z" fill="black"/>
<path fill-rule="evenodd" clip-rule="evenodd" d="M87.8956 9.26208H90.5832V10.7301H90.6266C91.1034 9.65068 92.1004 8.91666 93.2708 8.91666C93.9211 8.91666 94.4412 9.08937 94.8314 9.34844L93.791 12.1982C93.5309 11.9823 93.0107 11.8096 92.7073 11.8096C91.6669 11.8096 90.7133 12.5868 90.7133 13.8389V22.6472H87.8522V9.26208H87.8956Z" fill="black"/>
<path fill-rule="evenodd" clip-rule="evenodd" d="M96.9414 18.6562C97.9817 19.7356 99.629 20.5992 101.146 20.5992C102.793 20.5992 103.79 19.6492 103.79 18.9152C103.79 18.0517 103.097 17.5767 102.057 17.3608L100.409 17.0586C96.6379 16.3677 95.5975 15.1587 95.5975 13.2589C95.5975 11.0137 97.5049 8.89795 100.843 8.89795C102.707 8.89795 104.311 9.45926 106.131 10.7546L104.484 12.784C103.097 11.6182 101.84 11.3159 100.886 11.3159C99.629 11.3159 98.4152 11.9204 98.4152 12.9998C98.4152 13.7771 99.0655 14.2088 100.149 14.3815L103.054 14.9429C105.438 15.3746 106.608 16.4973 106.608 18.4834C106.608 20.4264 105.004 22.9739 100.929 22.9739C98.6753 22.9739 96.7246 22.1967 94.904 20.6423L96.9414 18.6562Z" fill="black"/>
<path fill-rule="evenodd" clip-rule="evenodd" d="M108.302 5.375H111.163V11.0313H111.206C111.986 9.77914 113.46 9.00194 115.281 9.00194C118.099 9.00194 120.483 11.3335 120.483 14.6582V22.6893H117.622V15.2627C117.622 12.8448 116.365 11.8517 114.457 11.8517C112.593 11.8517 111.163 13.0175 111.163 15.2196V22.6893H108.302V5.375V5.375Z" fill="black"/>
<path fill-rule="evenodd" clip-rule="evenodd" d="M125.997 6.4377C125.997 5.57414 125.26 4.84012 124.393 4.84012C123.483 4.84012 122.79 5.53097 122.79 6.4377C122.79 7.30126 123.526 8.03529 124.393 8.03529C125.26 8.03529 125.997 7.30126 125.997 6.4377ZM125.838 9.36616H122.977V22.6649H125.838V9.36616Z" fill="black"/>
<path fill-rule="evenodd" clip-rule="evenodd" d="M131.415 10.9287H131.372V9.33111H128.511V27.2499H131.372V20.9891H131.415C132.152 22.1118 133.669 22.9753 135.663 22.9753C139.998 22.9753 142.729 19.262 142.729 15.9805C142.729 12.5263 140.171 8.9425 135.793 8.9425C133.972 8.9425 132.455 9.67653 131.415 10.9287ZM131.24 15.9804C131.24 13.6056 133.191 11.6626 135.445 11.6626C137.786 11.6626 139.693 13.6056 139.693 15.9804C139.693 18.3552 137.786 20.2982 135.445 20.2982C133.191 20.2982 131.24 18.3552 131.24 15.9804Z" fill="black"/>
<path fill-rule="evenodd" clip-rule="evenodd" d="M223.828 8.93304C225.693 8.93304 227.297 9.49436 229.119 10.7897L227.471 12.8191C226.083 11.6533 224.825 11.351 223.871 11.351C222.613 11.351 221.399 11.9555 221.399 13.0349C221.399 13.8121 222.05 14.2439 223.134 14.4166L226.039 14.978C228.425 15.4097 229.596 16.5324 229.596 18.5185C229.596 20.4615 227.991 23.009 223.914 23.009C221.659 23.009 219.708 22.2318 217.886 20.6774L219.924 18.6912C220.965 19.7707 222.613 20.6343 224.131 20.6343C225.779 20.6343 226.777 19.6843 226.777 18.9503C226.777 18.0868 226.083 17.6118 225.042 17.3959L223.394 17.0937C219.621 16.4028 218.58 15.1938 218.58 13.294C218.58 11.0488 220.488 8.93304 223.828 8.93304Z" fill="black"/>
<path fill-rule="evenodd" clip-rule="evenodd" d="M211.135 8.91666C211.828 8.91666 212.488 9.05419 213.117 9.32924C213.745 9.6043 214.292 9.99406 214.757 10.4982C215.221 11.0027 215.59 11.5985 215.864 12.2861C216.137 12.9738 216.274 13.7302 216.274 14.5554V22.5871H213.431V15.188C213.431 13.9777 213.144 13.1069 212.57 12.5749C211.996 12.0432 211.235 11.7773 210.288 11.7773C209.359 11.7773 208.584 12.0617 207.965 12.6299C207.345 13.1985 207.035 14.0327 207.035 15.133V22.6472H204.193V9.26208H207.035V10.9521H207.09C207.491 10.3288 208.037 9.8337 208.73 9.46677C209.422 9.10012 210.224 8.91666 211.135 8.91666Z" fill="black"/>
<path fill-rule="evenodd" clip-rule="evenodd" d="M200.769 8.91675C201.419 8.91675 201.94 9.08946 202.33 9.34853L201.289 12.1983C201.029 11.9824 200.508 11.8097 200.205 11.8097C199.164 11.8097 198.21 12.5869 198.21 13.839V22.6473H195.347V9.26217H198.08V10.7302H198.123C198.6 9.65077 199.598 8.91675 200.769 8.91675Z" fill="black"/>
<path fill-rule="evenodd" clip-rule="evenodd" d="M183.57 9.34729V16.8276C183.57 17.3208 183.651 17.7684 183.814 18.1703C183.976 18.5723 184.203 18.9239 184.492 19.2254C184.781 19.5268 185.12 19.7598 185.509 19.9242C185.898 20.0886 186.31 20.1708 186.744 20.1708C187.178 20.1708 187.589 20.0886 187.978 19.9242C188.367 19.7598 188.706 19.5268 188.996 19.2254C189.285 18.9239 189.511 18.5723 189.674 18.1703C189.837 17.7684 189.918 17.3208 189.918 16.8276V9.34729H192.739V17.0742C192.739 18.0059 192.572 18.8417 192.238 19.5816C191.903 20.3215 191.46 20.9427 190.908 21.4451C190.357 21.9475 189.719 22.3357 188.996 22.6097C188.272 22.8838 187.521 23.0208 186.744 23.0208C185.966 23.0208 185.215 22.8838 184.492 22.6097C183.769 22.3357 183.131 21.9475 182.579 21.4451C182.028 20.9427 181.585 20.3215 181.25 19.5816C180.915 18.8417 180.748 18.0059 180.748 17.0742V9.34729H183.57Z" fill="black"/>
<path fill-rule="evenodd" clip-rule="evenodd" d="M176.528 5.375V9.34737H178.566V12.0244H176.528V22.6462H173.666V12.0244H172.018V9.34737H173.666V5.375H176.528Z" fill="black"/>
<path fill-rule="evenodd" clip-rule="evenodd" d="M163.918 9.00763C166.694 9.00763 170.857 11.2961 170.857 16.4774V16.9955H159.755C159.928 19.0249 161.836 20.4929 163.831 20.4929C165.393 20.4929 166.694 19.7589 167.691 18.4204L170.12 19.8021C168.515 21.8315 166.303 23.0404 163.918 23.0404C159.234 23.0404 156.545 19.543 156.545 16.0024C156.545 12.4619 159.234 9.00763 163.918 9.00763ZM163.451 11.5061C161.63 11.5061 160.155 12.6288 159.678 14.6149H167.398C166.79 12.5856 165.273 11.5061 163.451 11.5061Z" fill="black"/>
<path fill-rule="evenodd" clip-rule="evenodd" d="M154.838 8.9166C155.488 8.9166 156.009 9.08931 156.399 9.34837L155.358 12.1981C155.098 11.9822 154.578 11.8095 154.274 11.8095C153.233 11.8095 152.279 12.5867 152.279 13.8389V22.6472H149.417V9.26202H152.149V10.7301H152.192C152.669 9.65062 153.667 8.9166 154.838 8.9166Z" fill="black"/>
<path fill-rule="evenodd" clip-rule="evenodd" d="M310.619 8.91666C311.27 8.91666 311.791 9.08937 312.181 9.34844L311.14 12.1982C310.879 11.9823 310.359 11.8096 310.055 11.8096C309.014 11.8096 308.059 12.5868 308.059 13.8389V22.6472H305.195V9.26208H307.929V10.7301H307.972C308.449 9.65068 309.448 8.91666 310.619 8.91666Z" fill="black"/>
<path fill-rule="evenodd" clip-rule="evenodd" d="M296.017 9.02655C298.794 9.02655 302.96 11.315 302.96 16.4963V17.0145H291.851C292.025 19.0438 293.934 20.5119 295.93 20.5119C297.493 20.5119 298.794 19.7778 299.792 18.4393L302.222 19.821C300.617 21.8504 298.404 23.0594 296.017 23.0594C291.331 23.0594 288.64 19.562 288.64 16.0214C288.64 12.4808 291.331 9.02655 296.017 9.02655ZM295.55 11.525C293.727 11.525 292.252 12.6477 291.775 14.6339H299.499C298.891 12.6045 297.372 11.525 295.55 11.525Z" fill="black"/>
<path fill-rule="evenodd" clip-rule="evenodd" d="M285.458 5.375V9.35435H287.497V12.0361H285.458V22.6765H282.594V12.0361H280.945V9.35435H282.594V5.375H285.458Z" fill="black"/>
<path fill-rule="evenodd" clip-rule="evenodd" d="M274.118 9.02081C274.81 9.02081 275.471 9.15834 276.1 9.4334C276.729 9.70846 277.276 10.0982 277.741 10.6024C278.206 11.1069 278.575 11.7026 278.849 12.3903C279.122 13.0779 279.259 13.8343 279.259 14.6595V22.6912H276.415V15.2921C276.415 14.0819 276.128 13.2111 275.553 12.6791C274.979 12.1474 274.217 11.8814 273.27 11.8814C272.34 11.8814 271.565 12.1658 270.946 12.7341C270.325 13.3027 270.015 14.1369 270.015 15.2371V22.6941H267.171V9.37839H270.015V11.0562H270.07C270.471 10.433 271.018 9.93786 271.711 9.57093C272.404 9.20428 273.206 9.02081 274.118 9.02081Z" fill="black"/>
<path fill-rule="evenodd" clip-rule="evenodd" d="M258.015 9.02661C260.792 9.02661 264.958 11.315 264.958 16.4964V17.0145H253.849C254.023 19.0439 255.932 20.5119 257.928 20.5119C259.49 20.5119 260.792 19.7779 261.79 18.4394L264.22 19.8211C262.615 21.8504 260.402 23.0594 258.015 23.0594C253.329 23.0594 250.638 19.562 250.638 16.0214C250.638 12.4808 253.329 9.02661 258.015 9.02661ZM257.548 11.5251C255.725 11.5251 254.25 12.6477 253.773 14.6339H261.497C260.889 12.6046 259.37 11.5251 257.548 11.5251Z" fill="black"/>
<path fill-rule="evenodd" clip-rule="evenodd" d="M243.487 9.02661C244.878 9.02661 246.048 9.32954 246.997 9.9354C247.945 10.5413 248.736 11.3124 249.368 12.2487L246.902 13.7358C246.522 13.1483 246.062 12.6664 245.519 12.29C244.977 11.9136 244.3 11.7254 243.487 11.7254C242.872 11.7254 242.303 11.8402 241.779 12.0697C241.255 12.2992 240.803 12.6067 240.424 12.9922C240.044 13.3778 239.751 13.8322 239.543 14.3554C239.335 14.8787 239.231 15.4432 239.231 16.0491C239.231 16.6549 239.335 17.2195 239.543 17.7427C239.751 18.266 240.044 18.7204 240.424 19.1059C240.803 19.4915 241.255 19.799 241.779 20.0285C242.303 20.258 242.872 20.3727 243.487 20.3727C244.264 20.3727 244.932 20.1891 245.492 19.8219C246.052 19.4547 246.522 18.9682 246.902 18.3624L249.368 19.8495C249.079 20.3268 248.727 20.7583 248.311 21.1438C247.896 21.5294 247.435 21.869 246.929 22.1628C246.423 22.4565 245.876 22.6814 245.289 22.8375C244.702 22.9935 244.101 23.0716 243.487 23.0716C242.348 23.0716 241.327 22.8696 240.424 22.4657C239.52 22.0618 238.762 21.534 238.147 20.8822C237.533 20.2304 237.063 19.4823 236.738 18.6378C236.413 17.7932 236.25 16.9303 236.25 16.0491C236.25 15.1678 236.413 14.3049 236.738 13.4604C237.063 12.6159 237.533 11.8677 238.147 11.216C238.762 10.5642 239.52 10.0364 240.424 9.63247C241.327 9.22856 242.348 9.02661 243.487 9.02661Z" fill="black"/>
<g clip-path="url(#clip2_213_12856)">
<path d="M21.9509 11.8264L16.6667 14.8781C16.464 14.9951 16.2341 15.0567 16 15.0567C15.766 15.0567 15.5361 14.9951 15.3334 14.8781L10.0492 11.8264C9.9987 11.7971 9.95677 11.7551 9.92762 11.7045C9.89848 11.6539 9.88314 11.5965 9.88314 11.5381C9.88314 11.4797 9.89848 11.4223 9.92762 11.3717C9.95677 11.3211 9.9987 11.2791 10.0492 11.2498L15.3334 8.19893C15.5361 8.0819 15.766 8.02029 16 8.02029C16.2341 8.02029 16.464 8.0819 16.6667 8.19893L21.9509 11.2498C22.0014 11.2791 22.0433 11.3211 22.0725 11.3717C22.1016 11.4223 22.1169 11.4797 22.1169 11.5381C22.1169 11.5965 22.1016 11.6539 22.0725 11.7045C22.0433 11.7551 22.0014 11.7971 21.9509 11.8264Z" fill="#22DD9A"/>
<path d="M15 17.7657V23.5949C15.0001 23.6534 14.9847 23.711 14.9555 23.7617C14.9263 23.8125 14.8842 23.8546 14.8335 23.8839C14.7829 23.9132 14.7253 23.9287 14.6668 23.9287C14.6082 23.9287 14.5507 23.9133 14.5 23.884L9.33333 20.9007C9.13121 20.784 8.96325 20.6163 8.84626 20.4143C8.72927 20.2124 8.66734 19.9833 8.66667 19.7499V13.9165C8.66658 13.858 8.68192 13.8004 8.71114 13.7497C8.74036 13.6989 8.78243 13.6568 8.83312 13.6275C8.88381 13.5982 8.94132 13.5827 8.99988 13.5827C9.05843 13.5827 9.11596 13.5981 9.16667 13.6274L14.3333 16.6107C14.5361 16.7277 14.7044 16.8961 14.8214 17.0989C14.9385 17.3016 15.0001 17.5316 15 17.7657Z" fill="#22DD9A"/>
<path d="M23.3333 13.9165V19.7499C23.3334 19.984 23.2718 20.214 23.1548 20.4167C23.0378 20.6195 22.8694 20.7878 22.6667 20.9049L17.5 23.8882C17.4493 23.9175 17.3918 23.9329 17.3332 23.9329C17.2747 23.9328 17.2171 23.9174 17.1665 23.8881C17.1158 23.8588 17.0737 23.8166 17.0445 23.7659C17.0153 23.7151 16.9999 23.6576 17 23.599V17.7657C16.9999 17.5316 17.0615 17.3016 17.1786 17.0989C17.2956 16.8961 17.4639 16.7277 17.6667 16.6107L22.8333 13.6274C22.8841 13.5981 22.9416 13.5827 23.0001 13.5827C23.0587 13.5827 23.1162 13.5982 23.1669 13.6275C23.2176 13.6568 23.2596 13.6989 23.2889 13.7497C23.3181 13.8004 23.3334 13.858 23.3333 13.9165Z" fill="#22DD9A"/>
<path fill-rule="evenodd" clip-rule="evenodd" d="M21.6658 6.1849C16.2451 3.05529 9.31376 4.91254 6.18415 10.3332C4.77859 12.7677 4.37892 15.5017 4.85514 18.0644C5.05695 19.1504 4.34019 20.1943 3.25421 20.3961C2.16823 20.5979 1.12428 19.8812 0.922471 18.7952C0.278702 15.3309 0.820257 11.6237 2.72005 8.33319C6.95423 0.999372 16.3319 -1.51338 23.6658 2.7208C30.9996 6.95498 33.5123 16.3327 29.2782 23.6665C25.044 31.0003 15.6663 33.5131 8.33244 29.2789C7.37585 28.7266 7.0481 27.5034 7.60039 26.5469C8.15267 25.5903 9.37585 25.2625 10.3324 25.8148C15.7531 28.9444 22.6844 27.0872 25.8141 21.6665C28.9437 16.2459 27.0864 9.31451 21.6658 6.1849Z" fill="#22DD9A"/>
</g>
</g>
</g>
<defs>
<clipPath id="clip0_213_12856">
<rect width="313" height="32" fill="white"/>
</clipPath>
<clipPath id="clip1_213_12856">
<rect width="312.167" height="32" fill="white"/>
</clipPath>
<clipPath id="clip2_213_12856">
<rect width="32" height="32" fill="white"/>
</clipPath>
</defs>
</svg>
