<svg version="1.2" xmlns="http://www.w3.org/2000/svg" viewBox="0 0 32 32" width="20" height="20">
	<title>aftership_returns-new-01-svg</title>
	<defs>
		<clipPath clipPathUnits="userSpaceOnUse" id="cp1">
			<path d="m0 0h32v32h-32z"/>
		</clipPath>
		<clipPath clipPathUnits="userSpaceOnUse" id="cp2">
			<path d="m0 0h31.99v32h-31.99z"/>
		</clipPath>
	</defs>
	<style>
		.s0 { fill: #ff6b2b } 
	</style>
	<g id="Clip-Path" clip-path="url(#cp1)">
		<g id="Layer">
			<g id="Clip-Path" clip-path="url(#cp2)">
				<g id="Layer">
					<path id="Layer" fill-rule="evenodd" class="s0" d="m23 12.6v6.7c0 0.4-0.2 0.7-0.4 0.8l-5.8 3.4q-0.3 0.2-0.6 0.2-0.2 0-0.5-0.2l-5.8-3.4c-0.3-0.1-0.4-0.4-0.4-0.8v-6.7c0-0.1 0.1-0.3 0.2-0.4l6-3.7c0.3-0.2 0.7-0.2 1 0l6 3.7c0.2 0.1 0.3 0.2 0.3 0.4zm-6.8-2.4l-4.2 2.6 4.3 2.6 4.2-2.6-4.3-2.6zm-5 8.7l4.2 2.5v-4.6l-4.2-2.5zm10.1 0v-4.6l-4.2 2.5v4.6z"/>
					<path id="Layer" class="s0" d="m16.2 28.4c-4 0-7.7-1.9-10.1-5.2-0.2-0.4-0.2-0.9 0.2-1.2 0.4-0.3 0.9-0.2 1.2 0.2 2 2.8 5.3 4.5 8.7 4.5 6 0 10.8-4.8 10.8-10.7 0-5.9-4.8-10.7-10.8-10.7-5.9 0-10.7 4.8-10.7 10.7 0 0.5-0.3 0.8-0.8 0.8-0.5 0-0.9-0.3-0.9-0.8 0-6.8 5.6-12.4 12.4-12.4 6.9 0 12.5 5.6 12.5 12.4 0 6.8-5.6 12.4-12.5 12.4z"/>
					<path id="Layer" class="s0" d="m4.7 18.5c-0.3 0-0.6-0.1-0.8-0.3l-2-2c-0.3-0.3-0.3-0.9 0-1.2 0.4-0.3 0.9-0.3 1.2 0l1.6 1.5 1.5-1.5c0.4-0.3 0.9-0.3 1.2 0 0.4 0.3 0.4 0.9 0 1.2l-1.9 2c-0.2 0.2-0.5 0.3-0.8 0.3z"/>
				</g>
			</g>
		</g>
	</g>
</svg>