<svg xmlns="http://www.w3.org/2000/svg" viewBox="0 0 96 96"><path d="M91,16H5c-.553,0-1,.448-1,1v62c0,.552,.447,1,1,1H91c.553,0,1-.448,1-1V17c0-.552-.447-1-1-1Zm-1,62H6v-26.621l24.094-19.11,27.048,27.047c.195,.195,.451,.293,.707,.293s.512-.098,.707-.293c.391-.391,.391-1.023,0-1.414l-13.157-13.157,5.973-5.487,27.048,25.529c.193,.183,.44,.273,.687,.273,.266,0,.53-.105,.728-.313,.379-.402,.36-1.035-.041-1.414l-27.726-26.168c-.381-.36-.977-.365-1.363-.009l-6.721,6.174-13.105-13.105c-.36-.36-.932-.393-1.328-.077L6,48.826V18H90v60Zm-16.355-34.249c4.368,0,7.922-3.554,7.922-7.922s-3.554-7.922-7.922-7.922-7.922,3.554-7.922,7.922,3.554,7.922,7.922,7.922Zm0-13.844c3.266,0,5.922,2.657,5.922,5.922s-2.656,5.922-5.922,5.922-5.922-2.657-5.922-5.922,2.656-5.922,5.922-5.922Z"/></svg>