<svg xmlns="http://www.w3.org/2000/svg" viewBox="0 0 96 96"><path d="M95.02,47.2c0,.553-.447,1-1,1s-1-.447-1-1v-6.969c0-.553,.447-1,1-1s1,.447,1,1v6.969Zm-15.687-18.532h.012l4.895-.058c.553-.007,.995-.46,.988-1.012-.007-.548-.453-.988-1-.988h-.012l-4.895,.058c-.553,.007-.995,.46-.988,1.012,.007,.548,.453,.988,1,.988ZM6.879,86.401H2.979v-3.9c0-.553-.447-1-1-1s-1,.447-1,1v4.9c0,.553,.447,1,1,1H6.879c.553,0,1-.447,1-1s-.447-1-1-1ZM1.975,33.395c.553,0,1-.447,1-1v-3.863l3.865,.136c.012,0,.023,0,.036,0,.535,0,.979-.425,.998-.965,.02-.552-.412-1.015-.964-1.034l-4.9-.173c-.267-.019-.534,.092-.729,.279-.195,.188-.306,.448-.306,.72v4.899c0,.553,.447,1,1,1Zm87.157-4.846l3.888-.046v3.888c0,.553,.447,1,1,1s1-.447,1-1v-4.899c0-.268-.107-.523-.297-.711-.19-.188-.475-.283-.715-.289l-4.899,.058c-.553,.007-.995,.46-.988,1.012s.42,.979,1.012,.988ZM19.813,86.397h-6.355c-.553,0-1,.447-1,1s.447,1,1,1h6.355c.553,0,1-.447,1-1s-.447-1-1-1ZM95.02,54.169c0-.553-.447-1-1-1s-1,.447-1,1v6.969c0,.553,.447,1,1,1s1-.447,1-1v-6.969Zm-1,12.938c-.553,0-1,.447-1,1v6.969c0,.553,.447,1,1,1s1-.447,1-1v-6.969c0-.553-.447-1-1-1Zm-36.076,19.29h-6.355c-.553,0-1,.447-1,1s.447,1,1,1h6.355c.553,0,1-.447,1-1s-.447-1-1-1Zm12.71,0h-6.355c-.553,0-1,.447-1,1s.447,1,1,1h6.355c.553,0,1-.447,1-1s-.447-1-1-1Zm11.347,0h-4.992c-.553,0-1,.447-1,1s.447,1,1,1h4.992c.553,0,1-.447,1-1s-.447-1-1-1ZM32.177,30.796c-4.183,0-7.585-3.403-7.585-7.587,0-4.182,3.403-7.584,7.585-7.585,4.184,0,7.587,3.403,7.587,7.587,0,2.026-.789,3.932-2.223,5.364-1.433,1.432-3.337,2.221-5.362,2.221h-.002Zm0-2h.002c1.491,0,2.894-.581,3.948-1.635,1.056-1.056,1.637-2.458,1.637-3.95,0-3.081-2.506-5.587-5.587-5.587-3.079,0-5.584,2.507-5.585,5.585,0,3.081,2.506,5.587,5.585,5.587Zm.347,57.602h-6.355c-.553,0-1,.447-1,1s.447,1,1,1h6.355c.553,0,1-.447,1-1s-.447-1-1-1Zm61.502-4.9c-.553,0-1,.447-1,1v3.9h-3.9c-.553,0-1,.447-1,1s.447,1,1,1h4.9c.553,0,1-.447,1-1v-4.9c0-.553-.447-1-1-1Zm-4.194-11.151l-5.813,5.813c-.188,.188-.442,.293-.707,.293h-.007c-.267-.002-.522-.11-.709-.302l-9.91-10.169-2.987,6.958c-.161,.376-.521,.618-.945,.605-.409-.011-.771-.271-.912-.654l-5.113-13.878H12.104c-.553,0-1-.447-1-1V8.603c0-.552,.447-1,1-1h62.489c.553,0,1,.448,1,1V50.127l10.966,4.041c.384,.142,.643,.502,.654,.91,.011,.408-.227,.782-.602,.945l-7.023,3.052,10.229,9.843c.193,.187,.304,.442,.307,.711s-.103,.527-.293,.717ZM13.104,50.691l14.291-13.745c.2-.192,.473-.291,.748-.277,.277,.015,.536,.145,.714,.357l6.541,7.849,19.572-20.966c.184-.195,.438-.311,.705-.317,.252-.006,.527,.095,.721,.28l17.197,16.608V9.603H13.104V50.691Zm48.887,6.322l-4.323-11.733c-.135-.366-.044-.777,.231-1.053,.274-.277,.688-.365,1.053-.231l14.641,5.395v-6.13l-17.854-17.243-19.651,21.051c-.196,.21-.492,.316-.76,.317-.286-.009-.556-.14-.74-.359l-6.58-7.895-14.903,14.334v3.547H61.99Zm25.706,12.64l-10.576-10.176c-.241-.231-.35-.568-.291-.897,.06-.329,.279-.607,.586-.74l6.113-2.656-9.195-3.388c-.071-.019-.137-.04-.2-.074l-13.839-5.099,8.556,23.224,2.588-6.027c.132-.307,.408-.527,.736-.589,.061-.011,.122-.017,.183-.017,.268,0,.526,.107,.716,.302l10.247,10.515,4.377-4.376Zm-42.463,16.745h-6.355c-.553,0-1,.447-1,1s.447,1,1,1h6.355c.553,0,1-.447,1-1s-.447-1-1-1ZM2.979,39.924c0-.553-.447-1-1-1s-1,.447-1,1v6.969c0,.553,.447,1,1,1s1-.447,1-1v-6.969Zm0,13.938c0-.553-.447-1-1-1s-1,.447-1,1v6.969c0,.553,.447,1,1,1s1-.447,1-1v-6.969Zm-1,12.938c-.553,0-1,.447-1,1v6.969c0,.553,.447,1,1,1s1-.447,1-1v-6.969c0-.553-.447-1-1-1Z"/></svg>