<svg xmlns="http://www.w3.org/2000/svg" viewBox="0 0 300 220"><rect opacity="0" width="300" height="220" fill="#fff"/><rect x="60.417" y="33.739" width="179.657" height="110.364" fill="#dfecfc"/><path d="M240.074,145.103H60.417c-.552,0-1-.447-1-1V33.739c0-.553,.448-1,1-1H240.074c.552,0,1,.447,1,1v110.364c0,.553-.448,1-1,1Zm-178.657-2H239.074V34.739H61.417v108.364Z" fill="#232639"/><path d="M276.313,183.598c0-.044,.005-.088,0-.132-.007-.055-.025-.106-.041-.159-.01-.035-.013-.071-.027-.105-.002-.005-.006-.009-.008-.014-.021-.047-.052-.089-.081-.133-.025-.039-.045-.08-.074-.115-.002-.003-.004-.006-.006-.009l-26.619-30.419V35.487c0-.266-.105-.52-.293-.707l-10.652-10.651c-.188-.188-.442-.293-.707-.293H63.136c-.265,0-.52,.105-.707,.293l-10.652,10.651c-.188,.188-.293,.441-.293,.707v117.022l-26.793,30.319c-.121,.101-.226,.223-.289,.374-.156,.371-.075,.799,.207,1.087l8.953,9.155c.188,.192,.446,.301,.715,.301h232.094c.269,0,.527-.108,.715-.301l8.953-9.155c.007-.007,.01-.016,.017-.023,.036-.039,.063-.084,.092-.128,.025-.037,.053-.073,.072-.113,.004-.008,.011-.014,.014-.022,.017-.038,.022-.078,.034-.117,.014-.045,.031-.088,.039-.134,.008-.051,.006-.102,.007-.153ZM53.484,35.901l10.066-10.065H237.391l10.066,10.065v115.986H53.484V35.901Zm-.549,117.986H248.003l25.116,28.702h-65.428l-6.329-13.121h41.297l-8.131-11.553H66.116l-8.127,11.553h43.304l-8.265,13.121H27.57l25.364-28.702Zm146.208,15.581l6.328,13.12H95.392l8.264-13.12h95.485Zm66.807,22.276H34.697l-6.997-7.155H125.793l2.2,2.171h43.563l2.199-2.171h99.192l-6.998,7.155Z" fill="#232639"/><ellipse cx="150.467" cy="88.896" rx="30.374" ry="30.539" fill="#fff"/><path d="M150.467,120.435c-17.3,0-31.374-14.148-31.374-31.539s14.074-31.539,31.374-31.539,31.374,14.148,31.374,31.539-14.074,31.539-31.374,31.539Zm0-61.078c-16.197,0-29.374,13.251-29.374,29.539s13.177,29.539,29.374,29.539,29.374-13.251,29.374-29.539-13.177-29.539-29.374-29.539Z" fill="#232639"/><path d="M150.477,134.075c-24.813,0-45-20.187-45-45s20.187-45,45-45,45,20.187,45,45-20.187,45-45,45Zm0-88c-23.71,0-43,19.29-43,43s19.29,43,43,43,43-19.29,43-43-19.29-43-43-43Z" fill="#232639"/><path d="M150.467,58.344c16.87-.095,30.623,13.504,30.718,30.374,.095,16.87-13.504,30.623-30.374,30.718-16.87,.095-30.623-13.504-30.718-30.374,0-.057,0-.114,0-.172-.047-16.822,13.552-30.498,30.374-30.546Z" fill="#fff"/><path d="M150.637,120.435c-17.313,0-31.446-14.033-31.543-31.367v-.178c-.049-17.343,14.023-31.495,31.369-31.546,.059,0,.12,0,.179,0,17.313,0,31.446,14.034,31.543,31.368,.047,8.427-3.189,16.367-9.114,22.358-5.924,5.992-13.828,9.318-22.254,9.365h-.18Zm-.167-61.091c-16.244,.046-29.423,13.299-29.377,29.543v.166c.092,16.237,13.329,29.382,29.543,29.382h.168c7.892-.044,15.294-3.159,20.844-8.771,5.549-5.611,8.58-13.049,8.536-20.94-.091-16.234-13.329-29.38-29.543-29.38-.057,0-.112,0-.169,0h-.002Zm-.003-1h0Z" fill="#232639"/><path d="M30.502,75.554l1.752-2.039,1.752,2.039-1.752,2.04-1.752-2.04Zm1.752,13.195l1.752-2.04-1.752-2.04-1.752,2.04,1.752,2.04Zm0,11.388l1.752-2.039-1.752-2.04-1.752,2.04,1.752,2.039Zm0,11.395l1.752-2.039-1.752-2.04-1.752,2.04,1.752,2.039Zm-9.787,7.313l-1.755,2.04,1.755,2.039,1.752-2.039-1.752-2.04Zm9.787-52.641l1.752-2.04-1.752-2.039-1.752,2.039,1.752,2.04Zm-9.787,41.249l-1.755,2.04,1.755,2.039,1.752-2.039-1.752-2.04Zm11.539-54.684l-1.752-2.039-1.752,2.039,1.752,2.04,1.752-2.04Zm-11.539,43.289l-1.755,2.04,1.755,2.039,1.752-2.039-1.752-2.04Zm-.003-7.309l1.752-2.04-1.752-2.04-1.753,2.04,1.753,2.04Zm9.79,45.568l1.752-2.04-1.752-2.039-1.752,2.039,1.752,2.04Zm0-11.393l1.752-2.039-1.752-2.04-1.752,2.04,1.752,2.039Zm8.042,20.047l1.752,2.039,1.755-2.039-1.758-2.043-1.749,2.043Zm1.749-65.377l1.755-2.04-1.755-2.039-1.752,2.039,1.752,2.04Zm0,11.155l1.753-2.04-1.753-2.04-1.752,2.04,1.752,2.04Zm0,11.388l1.755-2.039-1.755-2.04-1.752,2.04,1.752,2.039Zm1.758-47.366l-1.758-2.041-1.749,2.041,1.752,2.04,1.755-2.04Zm-11.549,103.625l1.752-2.039-1.752-2.04-1.752,2.04,1.752,2.039Zm9.791-90.192l1.755-2.04-1.755-2.039-1.752,2.039,1.752,2.04Zm-9.791,101.584l1.752-2.04-1.752-2.039-1.752,2.039,1.752,2.04Zm0-22.781l1.752-2.039-1.752-2.04-1.752,2.04,1.752,2.039ZM12.672,66.204l1.752-2.04-1.752-2.039-1.752,2.039,1.752,2.04Zm9.795,64.034l-1.755,2.039,1.755,2.04,1.752-2.04-1.752-2.039Zm-9.795-7.314l1.752-2.039-1.752-2.04-1.752,2.04,1.752,2.039Zm0-11.392l1.752-2.039-1.752-2.04-1.752,2.04,1.752,2.039Zm0,33.475l1.752-2.039-1.752-2.04-1.752,2.04,1.752,2.039Zm0,11.389l1.752-2.039-1.752-2.04-1.752,2.04,1.752,2.039Zm0,11.392l1.752-2.04-1.752-2.039-1.752,2.039,1.752,2.04Zm1.752-115.019l-1.752-2.039-1.752,2.039,1.752,2.04,1.752-2.04Zm27.621,58.763l1.755-2.039-1.755-2.04-1.752,2.04,1.752,2.039Zm-29.373-22.783l1.752-2.04-1.752-2.04-1.752,2.04,1.752,2.04Zm0,11.388l1.752-2.039-1.752-2.04-1.752,2.04,1.752,2.039Zm0-22.543l1.752-2.04-1.752-2.039-1.752,2.039,1.752,2.04Zm0,56.723l1.752-2.04-1.752-2.039-1.752,2.039,1.752,2.04Zm9.795,40.785l-1.755,2.039,1.755,2.04,1.752-2.04-1.752-2.039Zm-9.795,4.079l1.752-2.04-1.752-2.039-1.752,2.039,1.752,2.04Zm8.04,9.354l1.755,2.04,1.752-2.04-1.752-2.039-1.755,2.039Zm1.755-47.607l-1.755,2.04,1.755,2.039,1.752-2.039-1.752-2.04Zm0,11.389l-1.755,2.04,1.755,2.039,1.752-2.039-1.752-2.04Zm0,11.392l-1.755,2.039,1.755,2.038,1.752-2.04-1.752-2.037Zm0-97.505l1.752-2.04-1.752-2.039-1.755,2.039,1.755,2.04Zm-9.795,124.371l1.752-2.04-1.752-2.039-1.752,2.039,1.752,2.04ZM24.219,52.769l-1.752-2.039-1.755,2.039,1.755,2.04,1.752-2.04Zm-1.752,24.825l1.752-2.04-1.752-2.039-1.755,2.039,1.755,2.04Zm19.578,78.802l1.755-2.039-1.755-2.04-1.752,2.04,1.752,2.039Zm0-22.079l1.755-2.04-1.755-2.039-1.752,2.039,1.752,2.04Zm0-11.393l1.755-2.039-1.755-2.04-1.752,2.04,1.752,2.039ZM259.201,52.769l-1.752-2.039-1.752,2.039,1.752,2.04,1.752-2.04Zm-1.752,24.825l1.752-2.04-1.752-2.039-1.752,2.039,1.752,2.04Zm0-11.39l1.752-2.04-1.752-2.039-1.752,2.039,1.752,2.04Zm0,33.933l1.752-2.039-1.752-2.04-1.752,2.04,1.752,2.039Zm0-11.388l1.752-2.04-1.752-2.04-1.752,2.04,1.752,2.04Zm0,22.783l1.752-2.039-1.752-2.04-1.752,2.04,1.752,2.039Zm19.583,0l1.752-2.039-1.752-2.04-1.752,2.04,1.752,2.039Zm0,56.256l1.752-2.04-1.752-2.039-1.752,2.039,1.752,2.04Zm0,11.393l1.752-2.04-1.752-2.039-1.752,2.039,1.752,2.04Zm9.791-101.587l1.752-2.04-1.752-2.039-1.752,2.039,1.752,2.04Zm-9.791,78.802l1.752-2.039-1.752-2.04-1.752,2.04,1.752,2.039Zm0,34.179l1.752-2.04-1.752-2.039-1.752,2.039,1.752,2.04Zm11.543-126.411l-1.752-2.039-1.752,2.039,1.752,2.04,1.752-2.04Zm-11.543,35.973l1.752-2.039-1.752-2.04-1.752,2.04,1.752,2.039Zm0,34.18l1.752-2.04-1.752-2.039-1.752,2.039,1.752,2.04Zm0,10.69l1.752-2.039-1.752-2.04-1.752,2.04,1.752,2.039Zm0-22.083l1.752-2.039-1.752-2.04-1.752,2.04,1.752,2.039Zm0-34.175l1.752-2.04-1.752-2.04-1.752,2.04,1.752,2.04Zm9.791,90.432l1.752-2.04-1.752-2.039-1.752,2.039,1.752,2.04Zm0-90.432l1.752-2.04-1.752-2.04-1.752,2.04,1.752,2.04Zm0,79.039l1.752-2.04-1.752-2.039-1.752,2.039,1.752,2.04Zm-1.752-115.019l1.752,2.04,1.752-2.04-1.752-2.039-1.752,2.039Zm1.752,137.806l1.752-2.04-1.752-2.039-1.752,2.039,1.752,2.04Zm0-34.179l1.752-2.039-1.752-2.04-1.752,2.04,1.752,2.039Zm0-11.389l1.752-2.039-1.752-2.04-1.752,2.04,1.752,2.039Zm0-33.475l1.752-2.039-1.752-2.04-1.752,2.04,1.752,2.039Zm0-11.395l1.752-2.039-1.752-2.04-1.752,2.04,1.752,2.039Zm0,34.18l1.752-2.04-1.752-2.039-1.752,2.039,1.752,2.04Zm0-11.393l1.752-2.039-1.752-2.04-1.752,2.04,1.752,2.039Zm-19.583-34.175l1.753-2.04-1.753-2.04-1.752,2.04,1.752,2.04Zm0-22.545l1.755-2.04-1.755-2.039-1.752,2.039,1.752,2.04Zm0,11.39l1.755-2.04-1.755-2.039-1.752,2.039,1.752,2.04Zm-1.75,65.377l1.752,2.039,1.755-2.039-1.758-2.043-1.749,2.043Zm3.507-90.2l-1.758-2.041-1.749,2.041,1.752,2.04,1.755-2.04Zm-11.548,81.546l1.752-2.04-1.752-2.039-1.752,2.039,1.752,2.04Zm0,10.69l1.752-2.039-1.752-2.04-1.752,2.04,1.752,2.039Zm0,11.389l1.752-2.039-1.752-2.04-1.752,2.04,1.752,2.039Zm9.791-22.079l1.755-2.04-1.755-2.039-1.752,2.039,1.752,2.04Zm0-34.18l1.755-2.039-1.755-2.04-1.752,2.04,1.752,2.039Zm0,67.651l1.755-2.04-1.755-2.039-1.752,2.039,1.752,2.04Zm11.544-115.019l-1.752-2.039-1.752,2.039,1.752,2.04,1.752-2.04Zm-1.752,13.435l1.752-2.04-1.752-2.039-1.752,2.039,1.752,2.04Zm-19.583,56.72l1.752-2.039-1.752-2.04-1.752,2.04,1.752,2.039Zm9.791,33.472l1.755-2.039-1.755-2.04-1.752,2.04,1.752,2.039Zm0-33.472l1.755-2.039-1.755-2.04-1.752,2.04,1.752,2.039Zm0-11.392l1.755-2.039-1.755-2.04-1.752,2.04,1.752,2.039Zm9.792-33.938l1.752-2.04-1.752-2.039-1.752,2.039,1.752,2.04Z" fill="#dfecfc"/><path d="M151.811,89.01l10.952-10.952c.391-.391,.391-1.023,0-1.414s-1.023-.391-1.414,0l-10.952,10.952-10.952-10.952c-.391-.391-1.023-.391-1.414,0s-.391,1.023,0,1.414l10.952,10.952-10.952,10.952c-.391,.391-.391,1.023,0,1.414,.195,.195,.451,.293,.707,.293s.512-.098,.707-.293l10.952-10.952,10.952,10.952c.195,.195,.451,.293,.707,.293s.512-.098,.707-.293c.391-.391,.391-1.023,0-1.414l-10.952-10.952Z" fill="#232639"/></svg>