<svg id="uuid-5b984951-584e-4413-9162-29daab5c3d43" xmlns="http://www.w3.org/2000/svg" xmlns:xlink="http://www.w3.org/1999/xlink" viewBox="0 0 333.655 292"><defs><linearGradient id="uuid-3a504021-1e3a-4341-a145-7a6213bf5bb2" x1="162.386" y1="5979.26" x2="162.386" y2="5903.761" gradientTransform="translate(0 -5810.221)" gradientUnits="userSpaceOnUse"><stop offset="0" stop-color="#fff"/><stop offset=".193" stop-color="#fcf7ff"/><stop offset=".483" stop-color="#f7e3ff"/><stop offset=".831" stop-color="#eec1ff"/><stop offset=".966" stop-color="#eab3ff"/></linearGradient></defs><path d="M301.818,258.658v23.045h-49.313v.384c0,2.245-1.942,4.065-4.337,4.065h-28.439c-2.395,0-4.337-1.82-4.337-4.065v-4.366h37.112v-20.73s1.906,1.667,4.703,1.667h44.61Zm-187.787,11.598c0,6.322,5.125,11.447,11.447,11.447h89.916v-22.893H125.477c-6.322,0-11.447,5.125-11.447,11.447h0Z" fill="#eee0fa" stroke="#232639" stroke-linecap="round" stroke-linejoin="round" stroke-width="2"/><path d="M314.116,82.28l-7.195-8.589c-.602-.719-1.711-.708-2.299,.023l-3.39,4.214c-.303,.378-.772,.584-1.256,.552l-2.731-.179c-.547-.036-1.03-.37-1.257-.869l-.994-2.189c-.22-.485-.164-1.051,.147-1.484l3.633-5.05c.52-.722,.293-1.735-.484-2.168l-6.267-3.49c-.666-.371-1.504-.178-1.941,.446l-5.079,7.246-7.219-4.275,3.78-5.452c.734-1.059-.133-2.486-1.411-2.322l-8.569,1.099c-.299,.039-.579,.167-.804,.368l-9.511,8.532-11.352-3.077,3.805-5.112c.43-.577,1.11-.914,1.829-.906l15.346,.167c1.175,.012,2.161-.88,2.265-2.05l1.237-13.841c.126-1.409-1.063-2.583-2.47-2.439l-10.384,1.06c-.883,.09-1.736-.347-2.179-1.116l-2.117-3.679c-.414-.719-.398-1.608,.04-2.311l2.696-4.331c.341-.548,.902-.923,1.539-1.03l9.805-1.641c1.305-.218,2.141-1.51,1.805-2.79l-4.676-17.815c-.293-1.116-1.383-1.83-2.523-1.652l-19.353,3.019c-1.402,.219-2.254,1.664-1.766,2.996l3.315,9.062c.252,.688,.153,1.456-.266,2.058l-2.826,4.062c-.474,.681-1.284,1.046-2.108,.95l-4.37-.51c-.801-.094-1.491-.608-1.808-1.349l-4.338-10.129c-.53-1.237-2.019-1.735-3.187-1.067l-11.039,6.323c-1.001,.573-1.406,1.81-.939,2.864l6.236,14.079c.292,.658,.25,1.416-.11,2.038l-3.192,5.515c-.448,.773-1.311,1.209-2.199,1.109l-5.224-.588c-.791-.089-1.475-.588-1.801-1.314l-4.926-10.97c-.798-1.778-3.326-1.769-4.112,.014l-6.191,14.053c-.184,.418-.237,.881-.151,1.329l4.117,21.555,12.612,4.012c.18,.037,15.643-6.148,15.643-6.148l-.965,7.902H59.15c-1.744,0-3.157,1.413-3.157,3.157v18.929l-2.369-3.345c-.074-.104-.177-.184-.297-.228l-15.357-5.71c-.12-.045-.252-.052-.376-.021l-12.647,3.199c-.533,.135-.654,.837-.197,1.142l9.122,6.098c.186,.125,.293,.339,.281,.562l-.264,4.782c-.014,.251-.175,.471-.412,.559l-5.159,1.927c-.19,.071-.403,.047-.572-.065l-10.004-6.614c-.276-.182-.646-.122-.85,.139l-7.159,9.177c-.245,.314-.143,.774,.212,.955l8,4.079c.223,.114,.358,.348,.345,.597l-.209,4.102c-.012,.233-.151,.442-.363,.541l-4.088,1.927c-.164,.078-.354,.081-.522,.009l-7.66-3.307c-.343-.148-.738,.03-.854,.385L.032,133.895c-.101,.309,.047,.645,.345,.777l14.233,6.332c.365,.162,.788-.05,.876-.439l1.836-8.113c.045-.202,.186-.368,.378-.447l4.141-1.7c.216-.089,.464-.052,.644,.097l3.203,2.641c.175,.145,.26,.372,.222,.596l-1.55,9.106c-.063,.374,.213,.72,.591,.74l10.704,.569c.324,.017,.61-.213,.66-.535l1.87-11.861c.032-.2,.157-.374,.338-.466l4.903-2.508c.224-.115,.495-.086,.69,.074l3.708,3.032c.173,.142,.259,.365,.226,.586l-1.654,10.847c-.083,.543,.517,.928,.976,.625l8.622-5.68v57.875c0,1.744,1.413,3.157,3.157,3.157H255.373c1.744,0,3.157-1.413,3.157-3.157V87.838l8.515-9.145,5.037,2.757c.165,.061,.428,.158,.593,.218h0c1.104,.229,1.118,1.8,.019,2.05l-9.287,2.111-3.13,7.815,8.801,9.262c.208,.219,.477,.369,.772,.431l8.455,1.777c1.261,.265,2.239-1.089,1.592-2.203l-3.334-5.736c-.264-.455-.269-1.015-.012-1.474l1.417-2.532c.288-.515,.855-.811,1.442-.754l3.552,.348c.473,.046,.896,.317,1.138,.726l4.469,7.598c.394,.669,1.235,.923,1.934,.583l7.055-3.437c.84-.409,1.099-1.483,.537-2.23l-3.516-4.68c-.352-.469-.396-1.101-.111-1.614l1.115-2.013c.266-.48,.774-.774,1.323-.767l2.838,.041c.427,.006,.831,.195,1.108,.52l3.65,4.262c.569,.664,1.585,.696,2.196,.07l7.346-7.552c.532-.547,.564-1.407,.074-1.992v.003h0Z" fill="#9ac5cc"/><path d="M244.534,99.271l31.225-50.716s39.334-21.911,44.232-24.419" fill="none" stroke="#5affa8" stroke-linecap="round" stroke-linejoin="round" stroke-width="2"/><path d="M332.324,.658l.421,13.819c.006,.191-.08,.374-.23,.492l-12.749,10.008c-.458,.359-1.108-.075-.952-.635l3.18-11.402c.019-.07,.052-.136,.095-.195L331.237,.32c.339-.46,1.069-.233,1.087,.339h0Zm-33.283,34.711l6.815-11.456c.063-.105,.091-.228,.08-.35l-1.283-14.684c-.046-.531-.721-.728-1.046-.306l-11.222,14.585c-.136,.177-.16,.415-.061,.615l5.69,11.557c.205,.416,.79,.44,1.027,.041h0Zm-11.021,7.274l11.73,8.331c.153,.108,.342,.141,.521,.085,2.25-.697,17.371-5.391,18.12-5.856,.762-.473-14.564-6.174-16.343-6.833-.111-.041-.229-.047-.345-.02l-13.476,3.218c-.502,.12-.629,.776-.209,1.074h0Zm-12.104,5.531l1.051-12.205c.01-.12-.011-.241-.062-.35l-6.6-14.089c-.276-.589-1.141-.498-1.288,.136l-4.423,18.99c-.063,.268,.041,.546,.263,.709l9.971,7.305c.431,.316,1.042,.039,1.088-.494h0s0-.001,0-.001Zm-14.658,23.503l-5.509-27.095c-.133-.658-1.035-.751-1.301-.136l-6.295,14.574c-.109,.251-.057,.543,.131,.742l11.804,12.521c.473,.502,1.308,.07,1.171-.607h0Zm.468-.313l12.321,4.452c.165,.06,.346,.054,.507-.017l17.702-7.718c.586-.256,.534-1.104-.08-1.285l-19.569-5.783c-.224-.066-.467-.014-.643,.139l-10.453,9.05c-.396,.343-.277,.985,.216,1.163h0Z" fill="#5affa8"/><path d="M67.989,62.64h201.837v124.219H67.989V62.64Zm0,13.937h201.837" fill="#fff" stroke="#232639" stroke-linecap="round" stroke-linejoin="round" stroke-width="2"/><polygon points="93.317 169.04 102.323 169.04 231.454 169.04 231.454 93.541 211.816 122.654 143.86 128.85 93.317 165.877 93.317 169.04" fill="url(#uuid-3a504021-1e3a-4341-a145-7a6213bf5bb2)"/><path d="M102.323,159.28l41.536-30.43,67.956-6.196,19.974-29.113v10.381m-9.392-6.343l9.392-4.037" fill="none" stroke="#232639" stroke-linecap="round" stroke-linejoin="round" stroke-width="2"/><path d="M93.317,102.605v66.434H244.498m-151.181-16.204h2.768m-2.768-16.743h2.768m-2.768-16.743h2.768m65.798,49.039v-2.652m-17.473,2.652v-2.652m-17.474,2.652v-2.652m-17.473,2.652v-2.652m104.68,2.652v-2.652m-17.473,2.652v-2.652m-17.474,2.652v-2.652m52.26,2.652v-2.652m-17.474,2.652v-2.652" fill="none" stroke="#eab3ff" stroke-linecap="round" stroke-linejoin="round" stroke-width="2"/><circle cx="62.726" cy="253.938" r="37.749" fill="#eab3ff"/><path id="uuid-e0f58066-f35c-4867-8736-c005b4f3c926" d="M271.005,211.276l-4.498,3.314,4.259,8.523,5.445-1.42c1.42,1.183,2.841,2.605,4.262,3.551l-.711,5.445,8.995,3.078,2.605-4.734c1.828,.078,3.658-.081,5.445-.473l3.314,4.498,8.523-4.261-1.42-5.446c1.184-1.42,2.605-2.605,3.551-4.261l5.449,.707,3.077-8.996-4.734-2.605c.068-1.828-.091-3.657-.473-5.446l4.498-3.314-4.261-8.523-5.446,1.42c-1.42-1.183-2.605-2.605-4.261-3.551l.711-5.445-8.996-3.078-2.605,4.734c-1.824,.04-3.642,.198-5.445,.473l-3.314-4.498-8.524,4.261,1.421,5.446c-1.184,1.42-2.605,2.841-3.552,4.261l-5.445-.709-3.078,8.996,4.972,2.605c-.158,1.819-.078,3.651,.237,5.449h0Zm12.959-4.263c0-4.741,3.843-8.586,8.585-8.586s8.586,3.843,8.586,8.585-3.843,8.586-8.585,8.586h-.001c-4.741,0-8.584-3.844-8.584-8.585h0Z" fill="#9ac5cc"/><path id="uuid-44c25d66-bb30-4049-8181-387e095d7916" d="M308.619,170.388l-2.785,.729,.415,4.892,2.877,.358c.454,.837,.864,1.788,1.363,2.512l-1.378,2.47,3.719,3.188,2.153-1.77c.86,.385,1.766,.659,2.697,.811l.729,2.785,4.892-.415,.358-2.877c.877-.378,1.718-.834,2.512-1.363l2.47,1.378,3.188-3.719-1.77-2.153c.381-.862,.653-1.768,.811-2.697l2.785-.729-.415-4.892-2.877-.358c-.378-.876-.835-1.716-1.363-2.51l1.378-2.47-3.719-3.188-2.153,1.77c-.881-.328-1.781-.599-2.697-.811l-.729-2.785-4.892,.415-.358,2.877c-.837,.454-1.788,.864-2.512,1.363l-2.47-1.378-3.188,3.719,1.883,2.194c-.422,.84-.733,1.732-.924,2.653h0Zm8.238,.918c.634-1.594,2.442-2.371,4.035-1.737s2.371,2.442,1.737,4.035c-.634,1.594-2.442,2.371-4.035,1.737h0c-1.592-.635-2.37-2.44-1.736-4.033v-.002h0Z" fill="#9ac5cc"/><path d="M122.731,229.444h111.406v8.932H122.731v-8.932Zm126.236,4.466l-14.829-4.466v8.932l14.829-4.466Zm-135.006-1.994h8.77v3.986h-8.77v-3.986Zm12.119-2.472v-3.745s.521-1.515,7.378-1.515,12.954,5.26,19.651,5.26,6.127-3.942,4.784-5.26c-1.056-1.036-2.751-1.056-3.628-.1" fill="#fff" stroke="#232639" stroke-linecap="round" stroke-linejoin="round" stroke-width="2"/><path d="M242.853,290.537h-6.233c-.908,0-1.645-.737-1.645-1.645v-4.774h9.523v4.774c0,.908-.737,1.645-1.645,1.645h0Z" fill="#eee0fa" stroke="#232639" stroke-linecap="round" stroke-linejoin="round" stroke-width="2"/><rect x="215.393" y="251.962" width="37.112" height="29.781" rx="4.198" ry="4.198" fill="#232639" stroke="#232639" stroke-linecap="round" stroke-linejoin="round" stroke-width="2"/><path d="M301.818,258.658h8.457c1.717,0,3.108,1.391,3.108,3.108v16.829c0,1.717-1.391,3.108-3.108,3.108h-8.457m0-11.523h5.783" fill="none" stroke="#232639" stroke-linecap="round" stroke-linejoin="round" stroke-width="2"/><path d="M145.405,270.445c0-.632,.512-1.144,1.144-1.144s1.144,.512,1.144,1.144-.512,1.144-1.144,1.144-1.144-.512-1.144-1.144Zm-9.585,1.144c.632,0,1.144-.512,1.144-1.144s-.512-1.144-1.144-1.144-1.144,.512-1.144,1.144,.512,1.144,1.144,1.144Zm-10.729,0c.632,0,1.144-.512,1.144-1.144s-.512-1.144-1.144-1.144-1.144,.512-1.144,1.144,.512,1.144,1.144,1.144Z" fill="#232639"/><path d="M11.369,233.119H81.98c1.438,0,2.603,1.166,2.603,2.603v37.609c0,1.438-1.166,2.603-2.603,2.603H11.369c-1.438,0-2.603-1.166-2.603-2.603v-37.609c0-1.438,1.166-2.603,2.603-2.603Zm5.611,6.379h6.015c.929,0,1.682,.753,1.682,1.682v5.641c0,.929-.753,1.682-1.682,1.682h-6.015c-.929,0-1.682-.753-1.682-1.682v-5.641c0-.929,.753-1.682,1.682-1.682Zm43.715,24.047h14.641c.929,0,1.682,.753,1.682,1.682v3.774c0,.929-.753,1.682-1.682,1.682h-14.641c-.929,0-1.682-.753-1.682-1.682v-3.774c0-.929,.753-1.682,1.682-1.682Z" fill="#fff" stroke="#232639" stroke-linecap="round" stroke-linejoin="round" stroke-width="2"/><path d="M17.952,255.856c0,.719-.583,1.302-1.302,1.302s-1.302-.583-1.302-1.302,.583-1.302,1.302-1.302,1.302,.583,1.302,1.302Zm1.922-1.302c-.719,0-1.302,.583-1.302,1.302s.583,1.302,1.302,1.302,1.302-.583,1.302-1.302-.583-1.302-1.302-1.302Zm3.194,0c-.719,0-1.302,.583-1.302,1.302s.583,1.302,1.302,1.302,1.302-.583,1.302-1.302-.583-1.302-1.302-1.302Zm3.224,0c-.719,0-1.302,.583-1.302,1.302s.583,1.302,1.302,1.302,1.302-.583,1.302-1.302-.583-1.302-1.302-1.302Zm-9.642,6.388c-.719,0-1.302,.583-1.302,1.302s.583,1.302,1.302,1.302,1.302-.583,1.302-1.302-.583-1.302-1.302-1.302Zm3.224,0c-.719,0-1.302,.583-1.302,1.302s.583,1.302,1.302,1.302,1.302-.583,1.302-1.302-.583-1.302-1.302-1.302Zm3.194,0c-.719,0-1.302,.583-1.302,1.302s.583,1.302,1.302,1.302,1.302-.583,1.302-1.302-.583-1.302-1.302-1.302Zm3.224,0c-.719,0-1.302,.583-1.302,1.302s.583,1.302,1.302,1.302,1.302-.583,1.302-1.302-.583-1.302-1.302-1.302Zm6.66-6.388c-.719,0-1.302,.583-1.302,1.302s.583,1.302,1.302,1.302,1.302-.583,1.302-1.302-.583-1.302-1.302-1.302Zm3.224,0c-.719,0-1.302,.583-1.302,1.302s.583,1.302,1.302,1.302,1.302-.583,1.302-1.302-.583-1.302-1.302-1.302Zm3.194,0c-.719,0-1.302,.583-1.302,1.302s.583,1.302,1.302,1.302,1.302-.583,1.302-1.302-.583-1.302-1.302-1.302Zm3.224,0c-.719,0-1.302,.583-1.302,1.302s.583,1.302,1.302,1.302,1.302-.583,1.302-1.302-.583-1.302-1.302-1.302Zm6.66,0c-.719,0-1.302,.583-1.302,1.302s.583,1.302,1.302,1.302,1.302-.583,1.302-1.302-.583-1.302-1.302-1.302Zm3.224,0c-.719,0-1.302,.583-1.302,1.302s.583,1.302,1.302,1.302,1.302-.583,1.302-1.302-.583-1.302-1.302-1.302Zm3.194,0c-.719,0-1.302,.583-1.302,1.302s.583,1.302,1.302,1.302,1.302-.583,1.302-1.302-.583-1.302-1.302-1.302Zm3.224,0c-.719,0-1.302,.583-1.302,1.302s.583,1.302,1.302,1.302,1.302-.583,1.302-1.302-.583-1.302-1.302-1.302Zm7.179,0c-.719,0-1.302,.583-1.302,1.302s.583,1.302,1.302,1.302,1.302-.583,1.302-1.302-.583-1.302-1.302-1.302Zm3.224,0c-.719,0-1.302,.583-1.302,1.302s.583,1.302,1.302,1.302,1.302-.583,1.302-1.302-.583-1.302-1.302-1.302Zm3.194,0c-.719,0-1.302,.583-1.302,1.302s.583,1.302,1.302,1.302,1.302-.583,1.302-1.302-.583-1.302-1.302-1.302Zm3.224,0c-.719,0-1.302,.583-1.302,1.302s.583,1.302,1.302,1.302,1.302-.583,1.302-1.302-.583-1.302-1.302-1.302Z" fill="#232639"/><rect x="31.65" y="239.499" width="52.933" height="9.005" fill="#9ac5cc"/><rect x="8.766" y="233.119" width="75.818" height="42.816" rx="2.577" ry="2.577" fill="none" stroke="#00173e" stroke-miterlimit="10" stroke-width="2"/><path d="M115.22,50.51c-3.83-8.697,.116-18.851,8.813-22.681l-5.738-13.031L25.333,55.73l5.74,13.038c.077-.035,.151-.074,.228-.107,8.697-3.83,18.851,.116,22.681,8.813s-.116,18.851-8.813,22.681c-.078,.034-.156,.063-.234,.096l4.701,10.677,92.963-40.933-4.699-10.672c-8.697,3.83-18.851-.116-22.681-8.813h0Z" fill="#5affa8" stroke="#232639" stroke-linecap="round" stroke-linejoin="round" stroke-width="2"/><line x1="90.697" y1="26.95" x2="115.001" y2="82.146" fill="none" stroke="#232639" stroke-dasharray="0 0 0 0 0 0 10 8 0 0 0 0" stroke-miterlimit="10" stroke-width="2"/><path d="M63.932,55.95c4.021-1.771,8.113,.028,9.846,3.964,1.715,3.895,.242,8.044-3.779,9.814-3.979,1.752-7.992,.019-9.707-3.876-1.733-3.937-.339-8.15,3.64-9.902Zm.941,2.136c-2.471,1.088-3.285,3.896-2.067,6.661,1.162,2.638,3.801,3.977,6.272,2.889,2.513-1.107,3.35-3.975,2.188-6.614-1.217-2.764-3.88-4.042-6.392-2.936Zm8.905,27.379l5.542-35.79,2.303-1.014-5.583,35.808-2.261,.996h0Zm11.367-20.855c3.979-1.752,8.071,.047,9.804,3.983,1.715,3.895,.242,8.044-3.737,9.795-3.979,1.752-7.991,.019-9.706-3.876-1.733-3.937-.339-8.15,3.64-9.902Zm.941,2.136c-2.513,1.107-3.326,3.915-2.109,6.679,1.162,2.638,3.801,3.977,6.314,2.87,2.512-1.107,3.35-3.975,2.188-6.614-1.217-2.764-3.88-4.042-6.392-2.936Z" fill="#232639"/><path d="M245.836,269.871l-11.919-3.048m.581-8.118l-.422,8.203" fill="none" stroke="#eee0fa" stroke-linecap="round" stroke-linejoin="round" stroke-width="2"/><ellipse cx="234.04" cy="266.768" rx="1.881" ry="1.868" transform="translate(-112.926 192.239) rotate(-36.616)" fill="#eee0fa"/><rect x=".043" width="333.224" height="292" fill="none"/></svg>