<svg id="uuid-decfc775-1903-446b-8d4a-74b899493077" xmlns="http://www.w3.org/2000/svg" xmlns:xlink="http://www.w3.org/1999/xlink" viewBox="0 0 700 200"><defs><clipPath id="uuid-f5e27f2c-e89e-4b06-8d36-016ddcee3721"><rect x="-.004" y=".584" width="700" height="200" fill="none"/></clipPath><clipPath id="uuid-29bb1625-26b3-4af7-94b0-8378324e6733"><path d="M189.213,70.978c-32.711,.169-59.14,26.734-59.14,59.446h0c.088,32.832,26.774,59.376,59.606,59.288,32.591-.087,59.035-26.398,59.286-58.988v-.608c-.171-32.59-26.548-58.967-59.138-59.138h-.614Z" fill="none"/></clipPath><clipPath id="uuid-d868cc3f-02d5-48ed-ba1f-b3faec85c316"><rect x="165.283" y=".364" width="302" height="199.827" fill="none"/></clipPath><clipPath id="uuid-97a6211f-988b-4ba7-8a5c-2b799197017e"><rect x="504.603" y="40.132" width="43.98" height="40.814" transform="translate(105.895 382.996) rotate(-44.028)" fill="none"/></clipPath><clipPath id="uuid-b8d00438-5001-4d9d-a75c-67a7dec0cb8e"><rect x="96.432" y="16.383" width="26.344" height="28.387" transform="translate(-1.003 3.856) rotate(-2.007)" fill="none"/></clipPath><clipPath id="uuid-813b9bfc-2e3e-4724-b6dc-167e6f693f49"><rect x="5.455" y="98.02" width="28.296" height="30.491" transform="translate(-3.954 .756) rotate(-2.007)" fill="none"/></clipPath><clipPath id="uuid-47328c52-a5e1-4ed9-af48-efec9d494ba2"><rect x="662.978" y="41.535" width="29.256" height="31.525" transform="translate(206.646 547.838) rotate(-51)" fill="none"/></clipPath><clipPath id="uuid-4b504777-b6b7-4e30-bedb-84d008eeb6c2"><rect x="476.492" y="9.584" width="137.156" height="122.394" fill="none"/></clipPath><clipPath id="uuid-9bea7e85-5553-49cc-a841-0b28ab02ebd9"><rect x="476.492" y="9.584" width="137.156" height="122.394" fill="none"/></clipPath></defs><g clip-path="url(#uuid-f5e27f2c-e89e-4b06-8d36-016ddcee3721)"><g id="uuid-85891b1c-4aec-4ec1-9be6-8acab298c224"><g id="uuid-b7a16fe6-b82b-4710-9ce4-da9871b53b90"><g id="uuid-7d211c30-65f9-4aec-820b-1df8e6be7afc"><g id="uuid-44152a57-da2b-4d56-ba25-2b5f7c3f9e86"><g clip-path="url(#uuid-29bb1625-26b3-4af7-94b0-8378324e6733)"><g id="uuid-7d520cbc-2f9f-4ff6-a6bf-71ad4bd58be0"><path id="uuid-80e2e092-1ac6-42e5-9bab-626340a8b8ae" d="M231.644,138.67l2.278-2.623,2.279,2.623-2.274,2.624-2.283-2.624Zm2.278-12.036l2.279-2.625-2.279-2.624-2.278,2.624,2.278,2.625Zm0-14.663l2.279-2.624-2.279-2.624-2.278,2.624,2.278,2.624Zm0-14.663l2.279-2.625-2.279-2.624-2.278,2.623,2.278,2.626Zm0-14.661l2.279-2.626-2.274-2.627-2.283,2.626,2.278,2.627Zm12.76,53.4l-2.279,2.625,2.279,2.624,2.278-2.624-2.278-2.625Zm0-14.662l-2.279,2.626,2.279,2.623,2.278-2.623-2.278-2.626Zm0-14.663l-2.279,2.625,2.279,2.623,2.278-2.623-2.278-2.625Zm0-14.663l-2.279,2.626,2.279,2.623,2.278-2.623-2.278-2.626Zm0-14.662l-2.279,2.626,2.279,2.624,2.278-2.624-2.278-2.626Zm-114.738,58.65l-2.278,2.625,2.278,2.622,2.279-2.624-2.279-2.623Zm0-14.662l-2.278,2.626,2.278,2.623,2.279-2.623-2.279-2.626Zm0-14.663l-2.278,2.625,2.278,2.623,2.279-2.623-2.279-2.625Zm0-14.663l-2.278,2.626,2.278,2.623,2.279-2.623-2.279-2.626Zm0-14.662l-2.278,2.626,2.278,2.624,2.279-2.624-2.279-2.626Zm12.76,58.651l-2.278,2.625,2.278,2.624,2.278-2.624-2.278-2.625Zm0-14.662l-2.278,2.626,2.278,2.623,2.278-2.623-2.278-2.626Zm0-14.663l-2.278,2.625,2.278,2.623,2.278-2.623-2.278-2.625Zm0-14.663l-2.278,2.626,2.278,2.623,2.278-2.623-2.278-2.626Zm0-14.662l-2.278,2.626,2.278,2.624,2.278-2.624-2.278-2.626Zm12.76,58.649l-2.279,2.625,2.279,2.622,2.288-2.624-2.288-2.623Zm0-14.662l-2.279,2.626,2.279,2.623,2.288-2.623-2.288-2.626Zm0-14.663l-2.279,2.625,2.279,2.623,2.288-2.623-2.288-2.625Zm0-14.663l-2.28,2.625,2.279,2.623,2.288-2.623-2.287-2.625Zm2.28-12.037l-2.274-2.628-2.28,2.626,2.28,2.625,2.274-2.623Zm10.475,56.025l-2.275,2.625,2.278,2.624,2.278-2.624-2.281-2.625Zm0-14.662l-2.275,2.626,2.278,2.623,2.278-2.623-2.281-2.626Zm0-14.663l-2.275,2.625,2.278,2.623,2.278-2.623-2.281-2.625Zm0-14.663l-2.275,2.625,2.278,2.623,2.278-2.623-2.281-2.625Zm0-14.662l-2.275,2.625,2.278,2.624,2.278-2.624-2.281-2.625Zm12.763,58.651l-2.278,2.625,2.278,2.624,2.279-2.624-2.279-2.625Zm0-14.662l-2.278,2.626,2.278,2.623,2.279-2.623-2.279-2.626Zm0-14.663l-2.278,2.625,2.278,2.623,2.279-2.623-2.279-2.625Zm0-14.663l-2.278,2.626,2.278,2.623,2.279-2.623-2.279-2.626Zm0-14.662l-2.278,2.626,2.278,2.624,2.279-2.624-2.279-2.626Zm12.762,58.649l-2.288,2.625,2.288,2.622,2.278-2.624-2.278-2.623Zm0-14.662l-2.288,2.626,2.288,2.623,2.278-2.623-2.278-2.626Zm0-14.663l-2.288,2.625,2.288,2.623,2.278-2.623-2.278-2.625Zm0-14.663l-2.288,2.626,2.288,2.623,2.278-2.623-2.278-2.626Zm0-14.662l-2.28,2.625,2.278,2.624,2.278-2.624-2.276-2.625Zm12.759,63.9l2.278-2.626-2.278-2.623-2.278,2.623,2.278,2.626Zm0-14.662l2.278-2.625-2.278-2.624-2.278,2.624,2.278,2.625Zm0-14.663l2.278-2.624-2.278-2.624-2.278,2.624,2.278,2.624Zm0-14.663l2.278-2.625-2.278-2.624-2.278,2.624,2.278,2.625Zm0-14.661l2.278-2.626-2.28-2.628-2.278,2.624,2.28,2.63Zm12.756,58.646l2.288-2.626-2.288-2.623-2.278,2.623,2.278,2.626Zm0-14.662l2.288-2.625-2.288-2.624-2.278,2.624,2.278,2.625Zm0-14.663l2.288-2.624-2.288-2.624-2.278,2.624,2.278,2.624Zm0-14.663l2.288-2.625-2.288-2.624-2.278,2.624,2.278,2.625Zm0-14.661l2.278-2.626-2.278-2.625-2.278,2.624,2.278,2.627Zm12.668,101.729l2.279-2.626-2.279-2.623-2.278,2.623,2.278,2.626Zm0-14.663l2.279-2.624-2.279-2.624-2.283,2.624,2.283,2.624Zm0-14.663l2.279-2.624-2.279-2.63-2.283,2.63,2.283,2.624Zm12.76,24.077l-2.279,2.625,2.279,2.624,2.278-2.624-2.278-2.625Zm0-14.662l-2.279,2.626,2.279,2.623,2.278-2.623-2.278-2.626Zm0-14.663l-2.279,2.625,2.279,2.623,2.278-2.623-2.278-2.625Zm-114.743,29.325l-2.278,2.625,2.278,2.624,2.279-2.624-2.279-2.625Zm0-14.662l-2.278,2.626,2.278,2.623,2.279-2.623-2.279-2.626Zm0-14.663l-2.278,2.625,2.278,2.623,2.279-2.623-2.279-2.625Zm12.76,29.325l-2.278,2.625,2.278,2.624,2.278-2.624-2.278-2.625Zm0-14.662l-2.278,2.626,2.278,2.623,2.278-2.623-2.278-2.626Zm0-14.663l-2.278,2.625,2.278,2.623,2.278-2.623-2.278-2.625Zm12.758,29.325l-2.279,2.625,2.279,2.624,2.288-2.624-2.288-2.625Zm0-14.662l-2.279,2.626,2.279,2.623,2.288-2.623-2.288-2.626Zm0-14.663l-2.279,2.625,2.279,2.623,2.288-2.623-2.288-2.625Zm12.76,29.325l-2.278,2.625,2.278,2.624,2.278-2.624-2.278-2.625Zm0-14.662l-2.278,2.626,2.278,2.623,2.278-2.623-2.278-2.626Zm0-14.663l-2.278,2.625,2.278,2.623,2.278-2.623-2.278-2.625Zm12.763,29.325l-2.278,2.625,2.278,2.624,2.279-2.624-2.279-2.625Zm0-14.662l-2.278,2.626,2.278,2.623,2.279-2.623-2.279-2.626Zm0-14.663l-2.278,2.625,2.278,2.623,2.279-2.623-2.279-2.625Zm12.759,29.325l-2.288,2.625,2.288,2.624,2.278-2.624-2.278-2.625Zm0-14.662l-2.288,2.626,2.288,2.623,2.278-2.623-2.278-2.626Zm0-14.663l-2.288,2.625,2.288,2.623,2.278-2.623-2.278-2.625Zm12.759,34.575l2.278-2.626-2.278-2.623-2.278,2.623,2.278,2.626Zm0-14.663l2.278-2.624-2.278-2.624-2.278,2.624,2.278,2.624Zm0-14.663l2.278-2.624-2.28-2.631-2.278,2.625,2.28,2.63Zm12.758,29.326l2.288-2.626-2.288-2.623-2.278,2.623,2.278,2.626Zm0-14.663l2.288-2.624-2.288-2.624-2.278,2.624,2.278,2.624Zm0-14.663l2.283-2.625-2.285-2.63-2.278,2.625,2.28,2.63Z" fill="#6ee0af"/></g></g></g><g id="uuid-7c9f4fa6-1fa8-4a9e-a7af-597fa74328a3"><g clip-path="url(#uuid-d868cc3f-02d5-48ed-ba1f-b3faec85c316)"><g id="uuid-53ca8cb7-3998-43b0-ba33-cebbcae1d834"><path id="uuid-7cac5f6f-3051-4ebd-b5c8-b244ee242631" d="M424.002,160.381H167.262c-.634-.008-1.141-.521-1.134-1.147V3.464c-.008-.626,.5-1.14,1.134-1.148,0,0,0,0,0,0H424.002c.634,.008,1.142,.521,1.134,1.148h0V159.234c.007,.626-.5,1.139-1.134,1.147" fill="#fff"/><path id="uuid-ba2fccc0-36e5-4015-8b8c-cb7ed190a588" d="M167.47,2.589H423.794c.741,0,1.342,.592,1.342,1.323h0V159.056c0,.731-.601,1.324-1.343,1.324H167.47c-.741,0-1.342-.592-1.342-1.323V3.912c0-.731,.601-1.323,1.342-1.323h0Z" fill="none" stroke="#232639" stroke-linecap="round" stroke-linejoin="round" stroke-width="2"/><rect id="uuid-749d87b1-38d0-48d8-86ca-99f8950be66e" x="349.175" y="124.206" width="47.424" height="2.708" fill="#6ee0af"/><path id="uuid-af1d1cf0-0853-497d-b3cd-1961cd1c0ae3" d="M349.175,133.802v-2.708h34.547v2.708" fill="#6ee0af"/><path id="uuid-143263ef-cb72-4416-98dc-65836cfb7ecd" d="M323.625,132.448h-123.47c-2.833-.033-5.102-2.357-5.069-5.19V44.129c-.033-2.833,2.236-5.157,5.069-5.19h123.47c2.833,.033,5.102,2.357,5.069,5.19V127.257c.033,2.833-2.236,5.157-5.069,5.19" fill="#6ee0af"/><path id="uuid-c925dc92-715c-4b60-97cd-2d5d40ab1c5a" d="M392.153,118.247h-39.6c-1.888-.023-3.401-1.572-3.379-3.46v-19.72c-.022-1.888,1.491-3.437,3.379-3.46h39.6c1.888,.023,3.401,1.572,3.379,3.46v19.72c.022,1.888-1.491,3.437-3.379,3.46" fill="#6ee0af"/><path id="uuid-158e4a10-aa69-49cb-a66d-201d567d9fa4" d="M178.169,10.639c-.04,1.715-1.463,3.072-3.178,3.032-1.715-.04-3.072-1.463-3.032-3.178,.04-1.688,1.421-3.036,3.11-3.033,1.733,.023,3.121,1.446,3.1,3.179" fill="#232639"/><path id="uuid-822bef9f-0cc3-456c-a0dc-d8097bf68777" d="M187.648,10.639c-.04,1.715-1.463,3.072-3.178,3.032-1.715-.04-3.072-1.463-3.032-3.178,.04-1.688,1.421-3.036,3.11-3.033,1.733,.023,3.121,1.446,3.1,3.179" fill="#232639"/><path id="uuid-013dd6c6-8069-4fc2-ba5e-646a2cf9242b" d="M197.126,10.639c-.04,1.715-1.463,3.072-3.178,3.032-1.715-.04-3.072-1.463-3.032-3.178,.04-1.688,1.421-3.036,3.11-3.033,1.733,.023,3.121,1.446,3.1,3.179" fill="#232639"/><line id="uuid-e50a3314-506b-4776-aa8f-341c2d432283" x1="166.128" y1="18.679" x2="425.136" y2="18.679" fill="none" stroke="#232639" stroke-linecap="round" stroke-linejoin="round" stroke-width="2"/><path id="uuid-b21ea248-0a3c-4ae5-858d-9bbfdb24c3a2" d="M177.286,71.288l58.187-17.292,56.276,17.292-8.256,65.7-48.02,62.334-48.054-62.331-10.133-65.703Z" fill="#fff"/><path id="uuid-9774ca06-ccb8-4d76-b983-cbcb013e15a7" d="M177.286,71.288l58.187-17.292,56.276,17.292-8.256,65.7-48.02,62.334-48.054-62.331-10.133-65.703Z" fill="none" stroke="#232639" stroke-linecap="round" stroke-linejoin="round" stroke-width="2"/><line id="uuid-1b4980a6-2ed8-452f-98ae-8b24374a0552" x1="263.683" y1="124.386" x2="283.493" y2="136.991" fill="none"/><line id="uuid-2b2ac704-7945-4d29-98db-21a915ab0907" x1="263.683" y1="124.386" x2="283.493" y2="136.991" fill="none" stroke="#232639" stroke-linecap="round" stroke-linejoin="round" stroke-width="2"/><line id="uuid-e1601a6f-b141-45b0-98eb-c5248a3e9e3b" x1="177.286" y1="71.288" x2="209.607" y2="92.929" fill="none"/><line id="uuid-a20f14ae-97e4-4419-a86a-cd7c0a995acd" x1="177.286" y1="71.288" x2="209.607" y2="92.929" fill="none" stroke="#232639" stroke-linecap="round" stroke-linejoin="round" stroke-width="2"/><line id="uuid-c067e55d-9a13-49eb-b0e4-dca176b36980" x1="207.257" y1="124.386" x2="187.419" y2="136.991" fill="none"/><line id="uuid-d6cd00af-5998-4484-b1aa-209f779956a7" x1="207.257" y1="124.386" x2="187.419" y2="136.991" fill="none" stroke="#232639" stroke-linecap="round" stroke-linejoin="round" stroke-width="2"/><line id="uuid-5ad10e81-e735-45bd-95a3-24bd52b3ed59" x1="291.749" y1="71.288" x2="261.289" y2="92.856" fill="none"/><line id="uuid-e7d3c996-1f2d-4773-8a43-4c3ab7213e10" x1="291.749" y1="71.288" x2="261.289" y2="92.856" fill="none" stroke="#232639" stroke-linecap="round" stroke-linejoin="round" stroke-width="2"/><line id="uuid-b8abb1a4-8521-4fa4-b448-ee1ae740127a" x1="235.473" y1="141.861" x2="235.473" y2="199.325" fill="none" stroke="#232639" stroke-linecap="round" stroke-linejoin="round" stroke-width="2"/><line id="uuid-71376eba-5267-48e6-b185-682928234989" x1="235.472" y1="53.996" x2="235.472" y2="79.428" fill="none" stroke="#232639" stroke-linecap="round" stroke-linejoin="round" stroke-width="2"/><path id="uuid-62c38a6b-7eca-411d-9d66-09bd6095bf2d" d="M266.887,110.644c.11,17.35-13.866,31.503-31.215,31.613-17.35,.11-31.503-13.866-31.613-31.215-.11-17.35,13.866-31.503,31.215-31.613,.066,0,.132,0,.198,0,17.295-.054,31.359,13.921,31.415,31.216" fill="#dfecfc"/><path id="uuid-bc2c43cf-9210-4edb-87dd-ed50d4647f61" d="M266.887,110.644c.11,17.35-13.866,31.503-31.215,31.613-17.35,.11-31.503-13.866-31.613-31.215-.11-17.35,13.866-31.503,31.215-31.613,.066,0,.132,0,.198,0,17.295-.054,31.359,13.921,31.415,31.216Z" fill="none" stroke="#232639" stroke-linecap="round" stroke-linejoin="round" stroke-width="2"/><line id="uuid-bc8956f5-ae69-435f-b2b6-d97e5b582c77" x1="248.546" y1="101.444" x2="231.46" y2="119.845" fill="none"/><line id="uuid-411b80b4-fc0d-4857-9761-db532c9f5433" x1="248.546" y1="101.444" x2="231.46" y2="119.845" fill="none" stroke="#232639" stroke-linecap="round" stroke-linejoin="round" stroke-width="2"/><line id="uuid-5073bc32-dcea-4c1f-8a39-2a56e96d1ee9" x1="222.399" y1="110.374" x2="231.461" y2="119.845" fill="none"/><line id="uuid-b8563b69-b64d-41e7-af3e-9e8e9cd0d1f2" x1="222.399" y1="110.374" x2="231.461" y2="119.845" fill="none" stroke="#232639" stroke-linecap="round" stroke-linejoin="round" stroke-width="2"/><path id="uuid-52ec1f79-0943-4fcf-b5c4-0d04e739ac82" d="M403.069,61.228c-.038-6.162,4.927-11.187,11.088-11.225l.052-9.343-65.092-.377-.052,9.348h.162c6.235,.174,11.147,5.369,10.973,11.604-.169,6.038-5.059,10.874-11.098,10.976-.054,0-.107,0-.161-.005l-.042,7.656,65.092,.377,.042-7.651c-6.162-.11-11.069-5.192-10.963-11.354" fill="#fffb76"/><path id="uuid-80cd8711-3b8d-4b46-8b2a-360dc59848dc" d="M403.069,61.228c-.038-6.162,4.927-11.187,11.088-11.225l.052-9.343-65.092-.377-.052,9.348h.162c6.235,.174,11.147,5.369,10.973,11.604-.169,6.038-5.059,10.874-11.098,10.976-.054,0-.107,0-.161-.005l-.042,7.656,65.092,.377,.042-7.651c-6.165-.109-11.073-5.195-10.964-11.36Z" fill="none" stroke="#231f20" stroke-miterlimit="10" stroke-width="2"/><line id="uuid-e3f162d8-4df4-4272-b510-71a8510e7f8f" x1="394.885" y1="40.547" x2="394.666" y2="80.121" fill="none" stroke="#22263b" stroke-dasharray="0 0 8 8" stroke-miterlimit="10" stroke-width="2"/><path id="uuid-ca625c59-446f-4801-825e-ab9a7d7e33db" d="M371.641,50.75c2.604-.01,4.723,2.094,4.732,4.698,0,.105-.003,.209-.009,.313-.156,2.607-2.396,4.593-5.003,4.437-2.607-.156-4.593-2.396-4.437-5.003,.15-2.495,2.216-4.443,4.716-4.445m-.008,1.531c-1.73-.01-2.94,1.454-2.951,3.436-.233,1.634,.903,3.148,2.537,3.381s3.148-.903,3.381-2.537c.038-.268,.04-.54,.005-.808,.011-1.982-1.212-3.46-2.972-3.471m-1.951,18.785l12.6-19.955,1.613,.01-12.632,19.955-1.581-.01Zm12.1-9.448c2.601,.003,4.707,2.114,4.704,4.714,0,.099-.003,.198-.01,.297-.164,2.598-2.403,4.572-5.002,4.408s-4.572-2.403-4.408-5.002c.157-2.487,2.223-4.423,4.715-4.417m-.008,1.531c-1.76-.01-2.97,1.454-2.981,3.436-.216,1.643,.94,3.15,2.582,3.366,1.643,.216,3.15-.94,3.366-2.582,.033-.248,.034-.5,.004-.749,.011-1.982-1.212-3.46-2.972-3.471"/></g></g></g></g><g id="uuid-e981aa5f-2c3a-450b-b417-f7803b4fb558"><path id="uuid-69e0f6d9-f4ee-42e6-9a6b-4c22a465a364" d="M538.335,68.678l-7.992,4.873-6.456-1.602-7.896-12.951,1.531-6.473,7.993-4.873,6.456,1.604,7.897,12.951-1.533,6.473Z" fill="none" stroke="#6ee0af" stroke-linecap="round" stroke-linejoin="round" stroke-width="2"/><g id="uuid-11410b07-9b1f-4fc8-b329-490536638735"><g clip-path="url(#uuid-97a6211f-988b-4ba7-8a5c-2b799197017e)"><g id="uuid-305709ba-0606-4d29-a87d-4201af2aa36c"><path id="uuid-443f3e15-d8c1-4231-96ce-0579451f5b29" d="M524.165,48.06c.28-1.215,.072-2.492-.579-3.556-1.303-2.23-4.168-2.981-6.398-1.678-2.23,1.303-2.981,4.168-1.678,6.398,.029,.05,.059,.1,.091,.149,.647,1.066,1.686,1.836,2.895,2.143" fill="none" stroke="#6ee0af" stroke-linecap="round" stroke-linejoin="round" stroke-width="2"/><path id="uuid-c53c585f-66dc-4819-9901-82f2d383a999" d="M533.634,39.194l3.862,6.335-3.537,6.501" fill="none" stroke="#6ee0af" stroke-linecap="round" stroke-linejoin="round" stroke-width="2"/><path id="uuid-fc777866-9ac0-49cc-ae14-11b55ff48407" d="M549.566,65.324l-3.862-6.335-7.402,.168" fill="none" stroke="#6ee0af" stroke-linecap="round" stroke-linejoin="round" stroke-width="2"/><path id="uuid-8f072ae6-39aa-47f1-afb8-7fdbf75e347c" d="M548.463,52.963l-5.539-2.053-7.031,4.293" fill="none" stroke="#6ee0af" stroke-linecap="round" stroke-linejoin="round" stroke-width="2"/><path id="uuid-67a0e298-e955-4723-abe1-0d2bce323483" d="M506.272,55.877l3.862,6.335,7.402-.168" fill="none" stroke="#6ee0af" stroke-linecap="round" stroke-linejoin="round" stroke-width="2"/><path id="uuid-d836ff22-9053-4fb1-bc32-8872d094a610" d="M522.205,82.007l-3.862-6.335,3.535-6.499" fill="none" stroke="#6ee0af" stroke-linecap="round" stroke-linejoin="round" stroke-width="2"/><path id="uuid-cbe25626-5d6e-4f83-98c4-04c253ce72d5" d="M511.727,75.362l.714-5.863,7.031-4.293" fill="none" stroke="#6ee0af" stroke-linecap="round" stroke-linejoin="round" stroke-width="2"/><line id="uuid-5aad3f98-1a5e-415f-be4e-6cff01ef4f7d" x1="521.76" y1="50.494" x2="534.093" y2="70.72" fill="none" stroke="#6ee0af" stroke-linecap="round" stroke-linejoin="round" stroke-width="2"/></g></g></g></g><g id="uuid-a693d9e9-fcae-4777-acab-d02b5a18a901"><path id="uuid-0af4f293-1eac-4229-a4cb-237cf54a33c2" d="M100.627,32.69l1.116-5.94,3.558-2.403,9.623,1.809,2.442,3.53-1.116,5.94-3.559,2.402-9.621-1.807-2.442-3.531Z" fill="none" stroke="#6ee0af" stroke-linecap="round" stroke-linejoin="round" stroke-width="1.999"/><g id="uuid-86c1d9d3-58c4-4a1b-8ad2-802c1ee6d466"><g clip-path="url(#uuid-b8d00438-5001-4d9d-a75c-67a7dec0cb8e)"><g id="uuid-832dcadb-f963-4d1a-80bb-d2d9bfa949b5"><path id="uuid-30361367-cd5b-4796-8ca9-6da27eed7404" d="M116.636,34.804c.461,.66,1.164,1.113,1.956,1.261,1.633,.339,3.231-.71,3.569-2.343,.339-1.633-.71-3.231-2.343-3.569-.036-.008-.074-.014-.111-.021-.791-.151-1.609,.015-2.278,.462" fill="none" stroke="#6ee0af" stroke-linecap="round" stroke-linejoin="round" stroke-width="1.999"/><path id="uuid-5e82282d-49e8-4990-8a61-1403c90c688f" d="M116.796,43.175l-4.706-.885-1.589-4.504" fill="none" stroke="#6ee0af" stroke-linecap="round" stroke-linejoin="round" stroke-width="1.999"/><path id="uuid-4b1f5b3e-44df-4b0a-b20a-aef83f143b99" d="M97.383,39.525l4.706,.885,3.118-3.622" fill="none" stroke="#6ee0af" stroke-linecap="round" stroke-linejoin="round" stroke-width="1.999"/><path id="uuid-50080197-6dd7-403d-af20-e83bcfad72e4" d="M103.786,44.336l3.378-1.769,.983-5.227" fill="none" stroke="#6ee0af" stroke-linecap="round" stroke-linejoin="round" stroke-width="1.999"/><path id="uuid-cb135591-2aed-437b-85d5-bfd4e89d80ba" d="M120.619,22.848l-4.706-.885-3.118,3.622" fill="none" stroke="#6ee0af" stroke-linecap="round" stroke-linejoin="round" stroke-width="1.999"/><path id="uuid-697c0db9-e07e-4f27-a83d-bcc02aa06a06" d="M101.205,19.197l4.711,.885,1.589,4.506" fill="none" stroke="#6ee0af" stroke-linecap="round" stroke-linejoin="round" stroke-width="1.999"/><path id="uuid-7d8c4bd8-1098-4927-9da2-c61a32217984" d="M108.919,17.044l2.501,2.876-.979,5.225" fill="none" stroke="#6ee0af" stroke-linecap="round" stroke-linejoin="round" stroke-width="1.999"/><line id="uuid-3aafbe12-f718-4122-af3f-99ac4031ed4a" x1="116.508" y1="32.599" x2="101.48" y2="29.774" fill="none" stroke="#6ee0af" stroke-linecap="round" stroke-linejoin="round" stroke-width="1.999"/></g></g></g></g><g id="uuid-ef63d15a-d539-42ba-9b60-6ecc498e8a48"><path id="uuid-1002880b-a6a5-412c-aaf5-d75735d7c3e0" d="M9.962,115.539l1.2-6.377,3.821-2.581,10.335,1.943,2.623,3.792-1.2,6.375-3.822,2.58-10.334-1.943-2.623-3.789Z" fill="none" stroke="#6ee0af" stroke-linecap="round" stroke-linejoin="round" stroke-width="1.999"/><g id="uuid-fdc05701-36b6-4b6d-94f1-1d4a69395eed"><g clip-path="url(#uuid-813b9bfc-2e3e-4724-b6dc-167e6f693f49)"><g id="uuid-2b63b27d-51db-4f62-8820-3988dfc1e343"><path id="uuid-2d336f7f-cff2-4998-8401-e2a4344adf3c" d="M27.157,117.807c.496,.708,1.25,1.194,2.1,1.352,1.763,.313,3.446-.863,3.759-2.627,.3-1.691-.771-3.323-2.442-3.721-.039-.009-.079-.016-.119-.022-.849-.161-1.728,.017-2.447,.497" fill="none" stroke="#6ee0af" stroke-linecap="round" stroke-linejoin="round" stroke-width="1.999"/><path id="uuid-53e2bb60-a5f5-440d-a5fe-bad666fa1383" d="M27.329,126.799l-5.055-.948-1.707-4.841" fill="none" stroke="#6ee0af" stroke-linecap="round" stroke-linejoin="round" stroke-width="1.999"/><path id="uuid-96d0c3f2-7392-4a26-b353-5dff23a52834" d="M6.477,122.877l5.055,.951,3.348-3.89" fill="none" stroke="#6ee0af" stroke-linecap="round" stroke-linejoin="round" stroke-width="1.999"/><path id="uuid-00096778-b3bf-4c9f-8704-54cd550cdf91" d="M13.355,128.045l3.628-1.901,1.056-5.613" fill="none" stroke="#6ee0af" stroke-linecap="round" stroke-linejoin="round" stroke-width="1.999"/><path id="uuid-724eb214-33e4-4e60-8c22-a37987b80ca6" d="M31.435,104.964l-5.059-.951-3.348,3.89" fill="none" stroke="#6ee0af" stroke-linecap="round" stroke-linejoin="round" stroke-width="1.999"/><path id="uuid-73ec7a62-9e43-4a9a-bf05-40b4cb439ba8" d="M10.582,101.042l5.055,.951,1.707,4.841" fill="none" stroke="#6ee0af" stroke-linecap="round" stroke-linejoin="round" stroke-width="1.999"/><path id="uuid-abbb4295-083a-49d7-94b6-0540b7426c7d" d="M18.868,98.731l2.69,3.088-1.056,5.614" fill="none" stroke="#6ee0af" stroke-linecap="round" stroke-linejoin="round" stroke-width="1.999"/><line id="uuid-d741ff91-a7c7-4844-a9c5-f36e08302100" x1="27.019" y1="115.439" x2="10.878" y2="112.404" fill="none" stroke="#6ee0af" stroke-linecap="round" stroke-linejoin="round" stroke-width="1.999"/></g></g></g></g><g id="uuid-41a6dfed-23b0-4b66-ae4e-4d2c7f5e9160"><path id="uuid-c0d904d1-dc5c-4272-a5f9-4034ea166d34" d="M682.375,48.234l4.163,5.263-.578,4.733-8.53,6.744-4.738-.526-4.163-5.263,.58-4.733,8.532-6.741,4.735,.523Z" fill="none" stroke="#6ee0af" stroke-linecap="round" stroke-linejoin="round" stroke-width="2"/><g id="uuid-5e3deb56-b2e2-4ec7-bd6d-f4781ee085e0"><g clip-path="url(#uuid-47328c52-a5e1-4ed9-af48-efec9d494ba2)"><g id="uuid-000a22ec-b1f7-47fd-b770-35c6a497a36d"><path id="uuid-e803ab12-4d58-46ad-beaf-0b4920aa08ad" d="M668.939,60.111c-.889-.094-1.779,.165-2.48,.721-1.473,1.121-1.759,3.225-.637,4.698,1.121,1.473,3.225,1.759,4.698,.637,.033-.025,.066-.051,.098-.078,.702-.553,1.16-1.36,1.273-2.246" fill="none" stroke="#6ee0af" stroke-linecap="round" stroke-linejoin="round" stroke-width="2"/><path id="uuid-3ebe5647-e311-496c-bbff-af15d04a6fbf" d="M661.807,54.145l4.172-3.299,4.932,1.951" fill="none" stroke="#6ee0af" stroke-linecap="round" stroke-linejoin="round" stroke-width="2"/><path id="uuid-7b53c3fe-30e0-43e6-9068-31b56ab7fc44" d="M679.014,40.537l-4.172,3.299,.765,5.252" fill="none" stroke="#6ee0af" stroke-linecap="round" stroke-linejoin="round" stroke-width="2"/><path id="uuid-117aeb4a-65e8-4d9e-8a98-bd34869accab" d="M670.313,42.396l-.979,4.12,3.664,4.632" fill="none" stroke="#6ee0af" stroke-linecap="round" stroke-linejoin="round" stroke-width="2"/><path id="uuid-c75d8112-5286-48c4-9dc0-44ab0c4885f8" d="M676.056,72.161l4.172-3.299-.765-5.252" fill="none" stroke="#6ee0af" stroke-linecap="round" stroke-linejoin="round" stroke-width="2"/><path id="uuid-9a211705-c345-4180-809f-d516eecfbf03" d="M693.263,58.551l-4.171,3.299-4.936-1.951" fill="none" stroke="#6ee0af" stroke-linecap="round" stroke-linejoin="round" stroke-width="2"/><path id="uuid-d219c26f-6336-4be0-9a20-081a2f87617a" d="M689.446,66.584l-4.235,.004-3.664-4.632" fill="none" stroke="#6ee0af" stroke-linecap="round" stroke-linejoin="round" stroke-width="2"/><line id="uuid-8b1d6b9e-29be-493c-a4ad-3ab0ece7769a" x1="670.88" y1="61.609" x2="684.198" y2="51.075" fill="none" stroke="#6ee0af" stroke-linecap="round" stroke-linejoin="round" stroke-width="2"/></g></g></g></g><g id="uuid-cf96eec5-cbec-4b55-bcc9-577ee006709c"><g clip-path="url(#uuid-4b504777-b6b7-4e30-bedb-84d008eeb6c2)"><g id="uuid-6a427854-7956-4f20-8b97-d37bcd3dbb5b"><g id="uuid-d9cc975a-ab8a-4d4a-8938-65724b78efc4"><g clip-path="url(#uuid-9bea7e85-5553-49cc-a841-0b28ab02ebd9)"><g id="uuid-0e631db8-45a7-4e44-b17a-3060b80816ff"><path id="uuid-38defb9d-f1ab-410f-b165-4aa794c36ff4" d="M572.468,85.195c2.09,1.892,40.18,34.342,40.18,34.342l-9.534,11.441-40.222-33.22" fill="#c6d4f4"/><path id="uuid-6b64c0d5-ed0d-4983-95c9-3ff55ba85624" d="M572.468,85.195c2.09,1.892,40.18,34.342,40.18,34.342l-9.534,11.441-40.222-33.22" fill="none" stroke="#0c1938" stroke-linecap="round" stroke-linejoin="round" stroke-width="2"/><path id="uuid-d66f6d32-f7d3-4137-8e37-6121d7824cf6" d="M528.029,111.657c27.911,0,50.537-22.626,50.537-50.537s-22.626-50.537-50.537-50.537-50.537,22.626-50.537,50.537c0,0,0,0,0,0,0,27.91,22.626,50.536,50.536,50.536h0m-29.597-28.934c-12.069-16.48-8.494-39.624,7.986-51.693,16.48-12.069,39.624-8.494,51.693,7.986,12.069,16.48,8.494,39.623-7.986,51.693-16.48,12.069-39.624,8.494-51.693-7.986,0,0,0,0,0,0" fill="#c5d3f3"/><path id="uuid-e6fcc498-18cf-4418-a53a-1c1122fff350" d="M528.029,111.657c27.911,0,50.537-22.626,50.537-50.537s-22.626-50.537-50.537-50.537-50.537,22.626-50.537,50.537c0,0,0,0,0,0,0,27.91,22.626,50.536,50.536,50.536h0Zm-29.597-28.934c-12.069-16.48-8.494-39.624,7.986-51.693,16.48-12.069,39.624-8.494,51.693,7.986,12.069,16.48,8.494,39.623-7.986,51.693-16.48,12.069-39.624,8.494-51.693-7.986,0,0,0,0,0,0Z" fill="none" stroke="#0c1938" stroke-linecap="round" stroke-linejoin="round" stroke-width="2"/></g></g></g></g></g></g></g></g></g></svg>
