<svg xmlns="http://www.w3.org/2000/svg" xmlns:xlink="http://www.w3.org/1999/xlink" width="386" height="244" viewBox="0 0 386 244"><defs><clipPath id="a"><rect width="386" height="244" fill="none"/></clipPath><clipPath id="b"><rect width="19.019" height="43.296" fill="none"/></clipPath><clipPath id="c"><rect width="18.721" height="41.885" fill="none"/></clipPath><clipPath id="d"><rect width="23.61" height="17.818" fill="none"/></clipPath></defs><g clip-path="url(#a)"><path d="M363.927,190.169H84.8a2.348,2.348,0,0,1-2.348-2.349V19.266A2.348,2.348,0,0,1,84.8,16.917H363.927a2.349,2.349,0,0,1,2.349,2.349V187.821a2.349,2.349,0,0,1-2.349,2.349" transform="translate(-26.372 -5.411)" fill="#c6d4f4"/><path d="M383.474,169.686H107.413a1.759,1.759,0,0,1-1.759-1.759V2.759A1.759,1.759,0,0,1,107.413,1H383.474a1.759,1.759,0,0,1,1.759,1.759V167.928a1.759,1.759,0,0,1-1.759,1.759" transform="translate(-33.794 -0.32)" fill="#fff"/><path d="M2.586-1H276.993a3.59,3.59,0,0,1,3.586,3.586V166.1a3.59,3.59,0,0,1-3.586,3.586H2.586A3.59,3.59,0,0,1-1,166.1V2.586A3.59,3.59,0,0,1,2.586-1ZM276.993,167.686a1.588,1.588,0,0,0,1.586-1.586V2.586A1.588,1.588,0,0,0,276.993,1H2.586A1.588,1.588,0,0,0,1,2.586V166.1a1.588,1.588,0,0,0,1.586,1.586Z" transform="translate(71.859 0.68)" fill="#232639"/><path d="M121.613,13.8a3.351,3.351,0,1,1-3.351-3.351,3.351,3.351,0,0,1,3.351,3.351" transform="translate(-36.755 -3.342)" fill="#232639"/><path d="M136.655,13.8a3.351,3.351,0,1,1-3.351-3.351,3.351,3.351,0,0,1,3.351,3.351" transform="translate(-41.567 -3.342)" fill="#232639"/><path d="M151.7,13.8a3.351,3.351,0,1,1-3.351-3.351A3.351,3.351,0,0,1,151.7,13.8" transform="translate(-46.378 -3.342)" fill="#232639"/><path d="M279.578,1H0A1,1,0,0,1-1,0,1,1,0,0,1,0-1H279.578a1,1,0,0,1,1,1A1,1,0,0,1,279.578,1Z" transform="translate(71.859 19.988)" fill="#232639"/><path d="M312.258,59H293.39a1.759,1.759,0,1,1,0-3.518h18.868a1.759,1.759,0,0,1,0,3.518" transform="translate(-93.281 -17.746)" fill="#232639"/><path d="M360.955,59H342.087a1.759,1.759,0,1,1,0-3.518h18.868a1.759,1.759,0,0,1,0,3.518" transform="translate(-108.857 -17.746)" fill="#232639"/><path d="M410.75,59H391.882a1.759,1.759,0,1,1,0-3.518H410.75a1.759,1.759,0,0,1,0,3.518" transform="translate(-124.784 -17.746)" fill="#232639"/><path d="M459.447,59H440.579a1.759,1.759,0,1,1,0-3.518h18.868a1.759,1.759,0,0,1,0,3.518" transform="translate(-140.36 -17.746)" fill="#232639"/><path d="M186.974,213.267H158.488a9.153,9.153,0,0,1-9.125-9.125v-.266a9.153,9.153,0,0,1,9.125-9.125h28.486a9.153,9.153,0,0,1,9.125,9.125v.266a9.153,9.153,0,0,1-9.125,9.125" transform="translate(-47.775 -62.293)" fill="#98b7ff"/><path d="M149.363,53.647a9.4,9.4,0,1,1,9.4,9.4,9.4,9.4,0,0,1-9.4-9.4" transform="translate(-47.775 -14.153)" fill="#6ee0af"/><rect width="93.455" height="4.08" transform="translate(101.588 98.132)" fill="#232639"/><rect width="93.455" height="4.08" transform="translate(101.588 82.92)" fill="#232639"/><rect width="67.491" height="4.08" transform="translate(101.588 113.343)" fill="#232639"/><path d="M317.079,193.138c5.873-2.113,15.492-4.364,23.586-.552a19.747,19.747,0,0,1,7.2,5.808,6.639,6.639,0,0,0,2.4,1.917,6.512,6.512,0,0,0,3.734.556,3.124,3.124,0,0,1,3.388,2.027l.7,1.932a3.124,3.124,0,0,1-1.32,3.722,6.59,6.59,0,0,0-3.154,5.817c.377,14.074-12.6,20.867-20.377,23.664s-22.073,5.826-30.753-5.219a6.522,6.522,0,0,0-6.239-2.425l-.8.138a3.111,3.111,0,0,1-3.464-2.015l-.628-1.746a3.11,3.11,0,0,1,1.386-3.76l.705-.4a6.523,6.523,0,0,0,3.263-5.845c-.347-14.043,12.619-20.824,20.378-23.616Z" transform="translate(-93.13 -60.941)" fill="#fffb76"/><path d="M330.72,189.524a24.166,24.166,0,0,1,10.37,2.157,20.822,20.822,0,0,1,7.557,6.1,5.668,5.668,0,0,0,2.041,1.629,5.577,5.577,0,0,0,2.36.531,5.448,5.448,0,0,0,.8-.059,4.116,4.116,0,0,1,4.477,2.678l.7,1.932a4.126,4.126,0,0,1-1.744,4.916,5.588,5.588,0,0,0-2.671,4.934c.174,6.488-2.335,12.149-7.458,16.826a41.275,41.275,0,0,1-13.58,7.805,42.711,42.711,0,0,1-13.979,2.672,24.662,24.662,0,0,1-9.451-1.75,20.718,20.718,0,0,1-8.448-6.464,5.516,5.516,0,0,0-4.354-2.137,5.446,5.446,0,0,0-.928.08l-.8.138a4.113,4.113,0,0,1-4.575-2.663L290.4,227.1a4.108,4.108,0,0,1,1.831-4.967l.7-.4a5.524,5.524,0,0,0,2.76-4.952c-.16-6.474,2.355-12.123,7.475-16.791a41.107,41.107,0,0,1,13.345-7.711h0l.219-.079A42.722,42.722,0,0,1,330.72,189.524Zm22.329,12.413a7.59,7.59,0,0,1-3.213-.722,7.679,7.679,0,0,1-2.764-2.206,18.84,18.84,0,0,0-6.834-5.52,22.188,22.188,0,0,0-9.518-1.966,40.6,40.6,0,0,0-13.179,2.51l-.125.045a39.3,39.3,0,0,0-12.894,7.387c-4.673,4.26-6.968,9.395-6.823,15.263a7.522,7.522,0,0,1-3.767,6.738l-.705.4a2.112,2.112,0,0,0-.942,2.553l.628,1.746a2.118,2.118,0,0,0,1.987,1.4,2.155,2.155,0,0,0,.366-.032l.8-.138a7.491,7.491,0,0,1,7.2,2.792c3.885,4.943,9.378,7.45,16.326,7.45a40.7,40.7,0,0,0,13.3-2.554,39.275,39.275,0,0,0,12.909-7.4c4.674-4.268,6.965-9.414,6.807-15.3a7.591,7.591,0,0,1,3.636-6.7,2.12,2.12,0,0,0,.9-2.527l-.7-1.933a2.116,2.116,0,0,0-2.3-1.377A7.454,7.454,0,0,1,353.049,201.938Z" transform="translate(-93.13 -60.941)" fill="#231f20"/><path d="M440.773,245.149l4.46-28.071,14.56-15.226,26.574-7.034-18.382,26.468Z" transform="translate(-140.985 -62.315)" fill="#6ee0af"/><path d="M440.773,246.15a1,1,0,0,1-.987-1.157l4.46-28.071a1,1,0,0,1,.265-.534l14.56-15.226a1,1,0,0,1,.467-.276l26.574-7.034a1,1,0,0,1,1.077,1.537l-18.382,26.468a1,1,0,0,1-.162.181L441.432,245.9A1,1,0,0,1,440.773,246.15Zm5.4-28.605-3.977,25.028,25.038-21.957,16.762-24.134-23.674,6.266Z" transform="translate(-140.985 -62.315)" fill="#231f20"/><path d="M432.762,253.73c1.558-2.555,33.032-31.5,33.032-31.5l30.716-2.935,27.907,10.64L504.443,249.29l-28.731,6.961Z" transform="translate(-138.423 -70.143)" fill="#6ee0af"/><path d="M475.711,257.251l-.059,0-42.95-2.521a1,1,0,0,1-.8-1.519c.258-.424,1.045-1.713,17.27-16.918,7.974-7.473,15.86-14.727,15.938-14.8a1,1,0,0,1,.582-.259l30.716-2.935a1,1,0,0,1,.451.061L524.773,229a1,1,0,0,1,.34,1.652l-19.974,19.358a1,1,0,0,1-.461.254l-28.731,6.961A1,1,0,0,1,475.711,257.251Zm-40.861-4.4,40.771,2.393,28.321-6.861,18.65-18.076-26.221-10-30.148,2.881c-1.4,1.288-8.5,7.836-15.678,14.56C440.792,246.891,436.618,251,434.85,252.85Z" transform="translate(-138.423 -70.143)" fill="#231f20"/><path d="M425.359,264.2a1,1,0,0,1-.406-1.914l42.095-18.654a1,1,0,0,1,.269-.076l19.745-2.72a1,1,0,0,1,.273,1.981l-19.6,2.7-41.966,18.6A1,1,0,0,1,425.359,264.2Z" transform="translate(-136.055 -77.352)" fill="#231f20"/><path d="M361.13,162.993l23.049,8.117h29.083l20.956-8.117v54.489l-20.891,9.451H384.179L362.5,217.481Z" transform="translate(-115.511 -52.135)" fill="#fcffe3"/><path d="M434.218,161.993a1,1,0,0,1,1,1v54.489a1,1,0,0,1-.588.911l-20.891,9.451a1,1,0,0,1-.412.089H384.179a1,1,0,0,1-.4-.083L362.1,218.4a1,1,0,0,1-.6-.892l-1.366-54.489a1,1,0,0,1,1.332-.968l22.888,8.06h28.726l20.782-8.049A1,1,0,0,1,434.218,161.993Zm-20.956,10.117H384.179a1,1,0,0,1-.332-.057l-21.681-7.635,1.314,52.4,20.908,9.113h28.724l20.107-9.1V164.452l-19.595,7.59A1,1,0,0,1,413.262,172.109Z" transform="translate(-115.511 -52.135)" fill="#232639"/><g transform="translate(299.788 139.538)" opacity="0.5"><g clip-path="url(#b)"><path d="M440.773,248.457l4.46-28.071,14.56-15.226-.1,14.285V230.97Z" transform="translate(-440.773 -205.161)" fill="#6ee0af"/></g></g><g transform="translate(246.412 131.044)" opacity="0.6"><g clip-path="url(#c)"><path d="M362.3,192.672a25.188,25.188,0,0,1,8.318,6.409,6.632,6.632,0,0,0,2.4,1.917,6.518,6.518,0,0,0,3.734.557,3.124,3.124,0,0,1,3.388,2.027l.7,1.932a3.124,3.124,0,0,1-1.321,3.722,6.591,6.591,0,0,0-3.153,5.817c.235,8.755-7.624,15.594-13.258,19.5" transform="translate(-362.296 -192.672)" fill="#fffb76"/></g></g><path d="M434.853,240.74a1,1,0,0,1-.345-.062L412.3,232.523H386.112l-22.657,8.158a1,1,0,0,1-.678-1.882l22.821-8.217a1,1,0,0,1,.339-.059h26.54a1,1,0,0,1,.345.061L435.2,238.8a1,1,0,0,1-.345,1.939Z" transform="translate(-116.146 -74.055)" fill="#232639"/><path d="M434.079,143.757a1,1,0,0,1-.338-.059l-22.726-8.159h-26.8L361.026,143.7a1,1,0,0,1-.664-1.887l23.346-8.217a1,1,0,0,1,.332-.057h27.149a1,1,0,0,1,.338.059l22.89,8.217a1,1,0,0,1-.338,1.941Z" transform="translate(-115.371 -43.034)" fill="#232639"/><path d="M361.13,157.668l.141-6.713,12-4.609,10.909,8.67v10.768L372,161.276Z" transform="translate(-115.511 -46.81)" fill="#dfecfc"/><path d="M384.179,166.785a1,1,0,0,1-.347-.062l-12.16-4.5-10.856-3.6a1,1,0,0,1-.685-.97l.141-6.713a1,1,0,0,1,.641-.913l12-4.609a1,1,0,0,1,.981.151l10.909,8.67a1,1,0,0,1,.378.783v10.768a1,1,0,0,1-1,1Zm-22.034-9.834,10.172,3.375.032.011,10.829,4.01V155.5L373.1,147.485l-10.839,4.163Z" transform="translate(-115.511 -46.81)" fill="#232639"/><path d="M381.451,149.7l11.89-9.485,19.011,4.986L403.4,158.112Z" transform="translate(-122.011 -44.85)" fill="#dfecfc"/><path d="M403.4,159.112a1,1,0,0,1-.358-.066l-21.944-8.408a1,1,0,0,1-.266-1.716l11.89-9.485a1,1,0,0,1,.877-.186l19.011,4.986a1,1,0,0,1,.568,1.537l-8.956,12.907A1,1,0,0,1,403.4,159.112ZM383.441,149.4l19.579,7.5,7.694-11.088-17.142-4.5Z" transform="translate(-122.011 -44.85)" fill="#232639"/><path d="M385.156,173.874l21.662,6.481L403.4,162.572l-21.944-8.408Z" transform="translate(-122.011 -49.311)" fill="#dfecfc"/><path d="M406.818,181.355a1,1,0,0,1-.287-.042l-21.662-6.481a1,1,0,0,1-.7-.773l-3.7-19.71a1,1,0,0,1,1.341-1.119l21.944,8.408a1,1,0,0,1,.624.745l3.423,17.783a1,1,0,0,1-.982,1.189Zm-20.792-8.265,19.5,5.834-3.006-15.617-19.754-7.569Z" transform="translate(-122.011 -49.311)" fill="#232639"/><path d="M450.279,133.98l3.486-38.258-8.272-1.458-4.3,37.963" transform="translate(-141.119 -30.151)" fill="#98b7ff"/><path d="M450.28,134.98q-.046,0-.092,0a1,1,0,0,1-.905-1.087l3.4-37.342-6.319-1.113-4.183,36.907a1,1,0,0,1-1.987-.225l4.3-37.963a1,1,0,0,1,1.167-.872l8.272,1.458a1,1,0,0,1,.822,1.076l-3.486,38.258A1,1,0,0,1,450.28,134.98Z" transform="translate(-141.119 -30.151)" fill="#232639"/><path d="M441.261,214.974l5.872-60.966-9.049-1.594-5.911,60.808Z" transform="translate(-138.235 -48.751)" fill="#dfecfc"/><path d="M441.261,215.974a1,1,0,0,1-.189-.018l-9.088-1.752a1,1,0,0,1-.806-1.079l5.911-60.808a1,1,0,0,1,1.169-.888l9.049,1.594a1,1,0,0,1,.822,1.081l-5.872,60.966a1,1,0,0,1-1,.9Zm-8-3.562,7.115,1.372,5.678-58.951-7.074-1.246Z" transform="translate(-138.235 -48.751)" fill="#232639"/><path d="M425.183,147.549l22.306,4.5-6.206,20.54-19.715-6.418Z" transform="translate(-134.843 -47.195)" fill="#dfecfc"/><path d="M425.183,146.549a1,1,0,0,1,.2.02l22.306,4.5a1,1,0,0,1,.76,1.27l-6.206,20.54a1,1,0,0,1-1.267.662l-19.715-6.418a1,1,0,0,1-.672-1.141l3.615-18.62a1,1,0,0,1,.982-.809Zm21.031,6.262-20.241-4.083-3.255,16.764,17.9,5.829Z" transform="translate(-134.843 -47.195)" fill="#232639"/><path d="M422.671,147.549l-.97,4.995-2.645,13.625,4.539,1.478-6.458,10.592-3.423-17.782Z" transform="translate(-132.331 -47.195)" fill="#c6d4f4"/><path d="M422.672,146.549a1,1,0,0,1,.981,1.191l-3.446,17.752,3.7,1.2a1,1,0,0,1,.544,1.471l-6.458,10.592a1,1,0,0,1-1.836-.332l-3.423-17.782a1,1,0,0,1,.16-.759l8.956-12.908A1,1,0,0,1,422.672,146.549Zm-.588,21.658-3.337-1.086a1,1,0,0,1-.672-1.141l2.709-13.955-6.007,8.658,2.854,14.828Z" transform="translate(-132.331 -47.195)" fill="#232639"/><path d="M450.555,174.7l8.334-.585,3.933-11.25-6.061-8.705Z" transform="translate(-144.114 -49.311)" fill="#c6d4f4"/><path d="M450.555,175.7a1,1,0,0,1-.957-1.289l6.206-20.54a1,1,0,0,1,1.778-.282l6.061,8.705a1,1,0,0,1,.123.9l-3.933,11.25a1,1,0,0,1-.874.668l-8.334.585Zm6.566-19.273L451.931,173.6l6.23-.437,3.547-10.146Z" transform="translate(-144.114 -49.311)" fill="#232639"/><path d="M413.445,241.45H384.039a1,1,0,0,1-.374-.072l-21.188-8.534a1,1,0,0,1-.626-.906l-.494-22.878-1.663-62.412a1,1,0,0,1,1.341-.967l23.18,8.423h29.032L433.7,145.7a1,1,0,0,1,1.38.925v85.3a1,1,0,0,1-.618.924l-20.634,8.534A1,1,0,0,1,413.445,241.45Zm-29.212-2h29.013l19.833-8.2V148.114l-19.254,7.916a1,1,0,0,1-.38.075H384.039a1,1,0,0,1-.342-.06l-21.966-7.982,1.624,60.944v.005l.48,22.223Z" transform="translate(-115.371 -46.898)" fill="#232639"/><path d="M384.821,252.558h29.148l20.892-9.451v19.672l-20.634,8.533H384.821l-21.188-8.533-.494-19.672Z" transform="translate(-116.153 -77.76)" fill="#dfecfc"/><path d="M363.138,242.107a1,1,0,0,1,.4.083l21.492,9.368h28.724l20.7-9.362a1,1,0,0,1,1.412.911v19.672a1,1,0,0,1-.618.924l-20.634,8.533a1,1,0,0,1-.382.076H384.821a1,1,0,0,1-.374-.072l-21.188-8.533a1,1,0,0,1-.626-.9l-.494-19.672a1,1,0,0,1,1-1.025Zm50.831,11.451H384.821a1,1,0,0,1-.4-.083l-20.244-8.824.438,17.446,20.4,8.215h29.013l19.833-8.2V244.657l-19.48,8.812A1,1,0,0,1,413.969,253.558Z" transform="translate(-116.153 -77.76)" fill="#232639"/><g transform="translate(294.339 166.709)" opacity="0.5"><g clip-path="url(#d)"><path d="M432.762,261.988c1.558-2.555,7.08-9.629,7.08-9.629l16.469-7.248.061,17.817Z" transform="translate(-432.762 -245.11)" fill="#6ee0af"/></g></g><path d="M409.661,265.18l4.9-41.245,4.9,41.245Z" transform="translate(-131.034 -71.628)" fill="#fbffc7"/><path d="M419.466,266.18h-9.8a1,1,0,0,1-.993-1.118l4.9-41.245a1,1,0,0,1,1.986,0l4.9,41.245a1,1,0,0,1-.993,1.118Zm-8.679-2h7.553l-3.777-31.773Z" transform="translate(-131.034 -71.628)" fill="#232639"/><path d="M453.608,212.659l-2.629,45.335,5.844-2.417Z" transform="translate(-144.25 -68.021)" fill="#fbffc7"/><path d="M453.608,211.659a1,1,0,0,1,1,.925l3.216,42.918a1,1,0,0,1-.615,1l-5.844,2.417a1,1,0,0,1-1.381-.982L452.61,212.6a1,1,0,0,1,.99-.942Zm2.164,43.27-2.037-27.189-1.665,28.72Z" transform="translate(-144.25 -68.021)" fill="#232639"/><path d="M372.788,255.757l6.218,2.5-2.916-44.748Z" transform="translate(-119.24 -68.294)" fill="#fbffc7"/><path d="M379.005,259.261a1,1,0,0,1-.374-.072l-6.218-2.5a1,1,0,0,1-.623-1.006l3.3-42.244a1,1,0,0,1,1-.922h.007a1,1,0,0,1,.991.935L380,258.2a1,1,0,0,1-1,1.065Zm-5.164-4.158,4.062,1.636L376,227.5Z" transform="translate(-119.24 -68.294)" fill="#232639"/><path d="M371.007,180.822c-.793-1.072-9.877-17.83-9.877-17.83l23.049,8.117Z" transform="translate(-115.511 -52.135)" fill="#fbffc7"/><path d="M371.008,181.822a1,1,0,0,1-.8-.405c-.811-1.1-9.019-16.227-9.952-17.948a1,1,0,0,1,1.211-1.42l23.049,8.117a1,1,0,0,1,.261,1.748L371.6,181.627A1,1,0,0,1,371.008,181.822ZM363.249,164.8c2.923,5.376,6.645,12.163,8.041,14.572l10.775-7.946Z" transform="translate(-115.511 -52.135)" fill="#232639"/><path d="M384.669,169.042l7.039,2.479h29.084l19.685-7.243,1.271,1.826-3.933,11.25-8.334.585L414.3,173l-6.458,10.592-21.662-6.481Z" transform="translate(-123.04 -52.546)" fill="#fbffc7"/><path d="M440.476,163.278a1,1,0,0,1,.821.429l1.271,1.826a1,1,0,0,1,.123.9l-3.933,11.25a1,1,0,0,1-.874.668l-8.334.585a1,1,0,0,1-.38-.047l-14.424-4.7L408.7,184.11a1,1,0,0,1-1.14.437L385.9,178.067a1,1,0,0,1-.7-.773l-1.516-8.067A1,1,0,0,1,385,168.1l6.878,2.422h28.735l19.517-7.181A1,1,0,0,1,440.476,163.278Zm.159,2.978-.538-.773-18.96,6.976a1,1,0,0,1-.345.062h-4.723l13.536,4.407,7.483-.525Zm-27.211,6.265H391.708a1,1,0,0,1-.332-.057l-5.4-1.9,1.083,5.765,20.339,6.085Z" transform="translate(-123.04 -52.546)" fill="#232639"/><line x2="2.372" y2="11.932" transform="translate(282.434 119.113)" fill="#eee0fa"/><path d="M2.371,12.932a1,1,0,0,1-.98-.805L-.981.2A1,1,0,0,1-.2-.981,1,1,0,0,1,.981-.2L3.353,11.737a1,1,0,0,1-.982,1.2Z" transform="translate(282.434 119.113)" fill="#232639"/><line x2="4.539" y2="1.478" transform="translate(286.726 118.975)" fill="#eee0fa"/><path d="M4.539,2.478a1,1,0,0,1-.31-.049L-.31.951A1,1,0,0,1-.951-.31,1,1,0,0,1,.31-.951L4.849.527a1,1,0,0,1-.309,1.951Z" transform="translate(286.726 118.975)" fill="#232639"/><line y1="10.927" x2="2.952" transform="translate(306.44 114.466)" fill="#eee0fa"/><path d="M0,11.927a1,1,0,0,1-.261-.035,1,1,0,0,1-.7-1.226L1.987-.261a1,1,0,0,1,1.226-.7,1,1,0,0,1,.7,1.226L.965,11.188A1,1,0,0,1,0,11.927Z" transform="translate(306.44 114.466)" fill="#232639"/><path d="M398.541,227.023a2.924,2.924,0,1,1-4.135,0,2.923,2.923,0,0,1,4.135,0" transform="translate(-125.881 -72.342)" fill="#fcffe3"/><path d="M2.924-1A3.924,3.924,0,1,1-1,2.924,3.928,3.928,0,0,1,2.924-1Zm0,5.847A1.924,1.924,0,1,0,1,2.924,1.926,1.926,0,0,0,2.924,4.847Z" transform="translate(267.669 153.826)" fill="#232639"/><path d="M419.952,206.669a1.8,1.8,0,1,1-2.546,0,1.8,1.8,0,0,1,2.546,0" transform="translate(-133.342 -65.936)" fill="#fcffe3"/><path d="M418.679,205.142a2.8,2.8,0,1,1-1.98.82A2.782,2.782,0,0,1,418.679,205.142Zm0,3.6a.8.8,0,1,0-.566-.235A.795.795,0,0,0,418.679,208.743Z" transform="translate(-133.342 -65.936)" fill="#232639"/><path d="M387.422,199.476a2.121,2.121,0,1,1-2.121-2.121,2.121,2.121,0,0,1,2.121,2.121" transform="translate(-122.564 -63.126)" fill="#fcffe3"/><path d="M385.3,196.355a3.121,3.121,0,1,1-3.121,3.121A3.124,3.124,0,0,1,385.3,196.355Zm0,4.241a1.121,1.121,0,1,0-1.121-1.121A1.122,1.122,0,0,0,385.3,200.6Z" transform="translate(-122.564 -63.126)" fill="#232639"/><path d="M458.422,191.748a1.223,1.223,0,1,1-1.223-1.223,1.223,1.223,0,0,1,1.223,1.223" transform="translate(-145.848 -60.941)" fill="#fcffe3"/><path d="M457.2,189.525a2.223,2.223,0,1,1-2.224,2.223A2.225,2.225,0,0,1,457.2,189.525Zm0,2.446a.223.223,0,1,0-.224-.223A.223.223,0,0,0,457.2,191.971Z" transform="translate(-145.848 -60.941)" fill="#232639"/><path d="M18.439,23.709a1,1,0,0,1-.777-.37L-.776.63A1,1,0,0,1-.63-.776,1,1,0,0,1,.776-.63L19.215,22.078a1,1,0,0,1-.776,1.63Z" transform="translate(240.922 83.693)" fill="#232639"/><path d="M376.093,142.3l2.4-6.442,7.237-3.191-3.186,10.758Z" transform="translate(-120.297 -42.436)" fill="#6ee0af"/><path d="M382.548,144.431a1,1,0,0,1-.173-.015l-6.454-1.126a1,1,0,0,1-.765-1.335l2.4-6.442a1,1,0,0,1,.534-.566l7.237-3.191a1,1,0,0,1,1.362,1.2l-3.186,10.758A1,1,0,0,1,382.548,144.431Zm-5.1-2.9,4.39.766,2.32-7.834-4.876,2.15Z" transform="translate(-120.297 -42.436)" fill="#232639"/><path d="M364.182,128.092l-.35-5.789L369.2,118.6l-.641,7.28Z" transform="translate(-116.375 -37.934)" fill="#6ee0af"/><path d="M364.182,129.092a1,1,0,0,1-1-.94l-.35-5.789a1,1,0,0,1,.43-.883l5.368-3.707a1,1,0,0,1,1.564.911l-.641,7.28a1,1,0,0,1-.544.8l-4.377,2.217A1,1,0,0,1,364.182,129.092Zm.683-6.287.224,3.707,2.523-1.278.406-4.606Z" transform="translate(-116.375 -37.934)" fill="#232639"/><path d="M352.428,120.467l-4.252-1.477-.826-5.591,4.945,2.706Z" transform="translate(-111.103 -36.272)" fill="#6ee0af"/><path d="M352.428,121.467a1,1,0,0,1-.328-.055l-4.252-1.477a1,1,0,0,1-.661-.8l-.826-5.591a1,1,0,0,1,1.469-1.023l4.945,2.706a1,1,0,0,1,.519.847l.133,4.361a1,1,0,0,1-1,1.03Zm-3.351-3.222,2.307.8-.071-2.338-2.68-1.467Z" transform="translate(-111.103 -36.272)" fill="#232639"/><path d="M365.189,148.7l-6.555-2.076-4.369,4.684,7.11,1.783Z" transform="translate(-113.315 -46.9)" fill="#6ee0af"/><path d="M358.634,145.626a1,1,0,0,1,.3.047l6.555,2.076a1,1,0,0,1,.453,1.609l-3.814,4.391a1,1,0,0,1-1,.314l-7.109-1.783a1,1,0,0,1-.488-1.652l4.369-4.684A1,1,0,0,1,358.634,145.626Zm4.8,3.57-4.5-1.426-2.782,2.982,4.87,1.222Z" transform="translate(-113.315 -46.9)" fill="#232639"/><path d="M355.3,133.832l-4.76-3.315-4.993,2.219,5.581,3.676Z" transform="translate(-110.528 -41.747)" fill="#6ee0af"/><path d="M351.132,137.412a1,1,0,0,1-.55-.165L345,133.571a1,1,0,0,1,.144-1.749l4.993-2.219a1,1,0,0,1,.978.093l4.76,3.315a1,1,0,0,1-.046,1.671l-4.172,2.58A1,1,0,0,1,351.132,137.412Zm-3.5-4.505,3.52,2.319,2.334-1.444-3.048-2.123Z" transform="translate(-110.528 -41.747)" fill="#232639"/><path d="M28.955,116.277H84.284a12.664,12.664,0,0,1,12.664,12.664v122.03a12.664,12.664,0,0,1-12.664,12.664H28.955a12.664,12.664,0,0,1-12.664-12.664V128.941a12.664,12.664,0,0,1,12.664-12.664" transform="translate(-5.211 -37.192)" fill="#dfecfc"/><path d="M86.09,268.55h-56.8a14,14,0,0,1-14-14V129.278a14,14,0,0,1,14-14h56.8a14,14,0,0,1,14,14V254.55a14,14,0,0,1-14,14Zm-56.8-151.273a12,12,0,0,0-12,12V254.55a12,12,0,0,0,12,12h56.8a12,12,0,0,0,12-12V129.278a12,12,0,0,0-12-12Z" transform="translate(-6.282 -39.15)" fill="#232639"/><path d="M28.955,116.277H84.284a12.664,12.664,0,0,1,12.664,12.664v122.03a12.664,12.664,0,0,1-12.664,12.664H28.955a12.664,12.664,0,0,1-12.664-12.664V128.941a12.664,12.664,0,0,1,12.664-12.664" transform="translate(-5.211 -37.192)" fill="#fff"/><path d="M32.291,131.11h9.3a.762.762,0,1,1,0,1.524h-9.3a.762.762,0,0,1,0-1.524" transform="translate(-10.085 -41.937)" fill="#232639"/><path d="M32.291,141.134h9.3a.762.762,0,1,1,0,1.523h-9.3a.762.762,0,1,1,0-1.523" transform="translate(-10.085 -45.143)" fill="#232639"/><path d="M32.291,136.122h9.3a.762.762,0,1,1,0,1.524h-9.3a.762.762,0,0,1,0-1.524" transform="translate(-10.085 -43.54)" fill="#232639"/><path d="M363.612,260.587l-.192,8.056c-.23.963-6.585,17.48-32.277,7.487-13.9-5.408,32.469-15.543,32.469-15.543" transform="translate(-105.088 -83.351)" fill="#fffb76"/><path d="M363.612,259.587a1,1,0,0,1,1,1.024l-.192,8.056a1,1,0,0,1-.027.208,15.448,15.448,0,0,1-4.012,6.106,18.05,18.05,0,0,1-5.627,3.7A22.522,22.522,0,0,1,346,280.33a42.664,42.664,0,0,1-15.218-3.268,7.062,7.062,0,0,1-2.363-1.374,2.533,2.533,0,0,1-.868-2.063,4.247,4.247,0,0,1,2.03-2.879A23.135,23.135,0,0,1,333.8,268.4a100.671,100.671,0,0,1,12.16-4.3c8.647-2.566,17.355-4.477,17.441-4.5A1,1,0,0,1,363.612,259.587Zm-1.188,8.9.158-6.647c-2.7.619-9.4,2.2-16.065,4.182a98.7,98.7,0,0,0-11.9,4.2c-4.73,2.13-5.055,3.334-5.072,3.554-.023.293.477.84,1.962,1.418A40.705,40.705,0,0,0,346,278.33a20.569,20.569,0,0,0,7.933-1.468,16.071,16.071,0,0,0,5-3.26A14.35,14.35,0,0,0,362.424,268.491Z" transform="translate(-105.088 -83.351)" fill="#231f20"/><path d="M358.9,249.576c-8.316,14.224-24.065,20.546-35.105,14.09s-13.257-23.279-4.941-37.5Z" transform="translate(-100.379 -72.34)" fill="#fffb76"/><path d="M333.385,267.2a19.5,19.5,0,0,1-17.042-9.6,24.833,24.833,0,0,1-3.265-9.641,32.426,32.426,0,0,1,.513-11.053,38.126,38.126,0,0,1,4.4-11.248l.5-.863,41.773,24.423-.5.863a37.146,37.146,0,0,1-11.881,12.563A27.1,27.1,0,0,1,333.385,267.2Zm-14.158-39.66a35.945,35.945,0,0,0-3.681,9.788,30.434,30.434,0,0,0-.486,10.372,22.848,22.848,0,0,0,3,8.87,17.5,17.5,0,0,0,15.329,8.63,25.116,25.116,0,0,0,13.423-4.239,34.942,34.942,0,0,0,10.717-11.031Z" transform="translate(-100.379 -72.34)" fill="#231f20"/><path d="M320.384,238.707a33.92,33.92,0,0,1,3.688-9.963l12.383,7.265a.882.882,0,0,1-.094.246c-.018.03-.108.177-.211.192Z" transform="translate(-102.478 -73.166)" fill="#fcffe3"/><path d="M324.01,229.245l10.64,6.244-13.724,1.967a33.419,33.419,0,0,1,3.084-8.211m-.51-1.877a34.755,34.755,0,0,0-4.107,10.767.775.775,0,0,0,.11.618.516.516,0,0,0,.427.212.607.607,0,0,0,.092-.007h0l15.9-2.28a1.017,1.017,0,0,0,.7-.521.908.908,0,0,0-.014-1.1Zm-3.479,11.592Zm0,0h0m0,0Zm0,0Zm0,0h0Z" transform="translate(-102.155 -72.726)" fill="#231f20"/><path d="M321.741,258.695a21.487,21.487,0,0,1-2.074-11.39.493.493,0,0,1,.067-.2.438.438,0,0,1,.227-.209l15.763-2.26a.564.564,0,0,1-.162.305L321.8,258.648a.5.5,0,0,1-.055.047" transform="translate(-102.227 -78.249)" fill="#fcffe3"/><path d="M335.639,244.959h0Zm-2,.286-12.021,11.969a21.234,21.234,0,0,1-1.607-10.014l13.628-1.955m-13.616,1.781h0M335.55,243.6a.987.987,0,0,0-.1.007l-15.9,2.281a1.063,1.063,0,0,0-.717.538,1.163,1.163,0,0,0-.159.5,22.091,22.091,0,0,0,2.218,11.882.5.5,0,0,0,.459.275.883.883,0,0,0,.61-.284l13.767-13.706a1.118,1.118,0,0,0,.312-1.145.5.5,0,0,0-.484-.345" transform="translate(-101.907 -77.919)" fill="#231f20"/><path d="M333.573,267.327a13.372,13.372,0,0,1-8.462-4.961.854.854,0,0,1,.09-.26.627.627,0,0,1,.094-.121l13.728-13.667-5.177,18.666a.566.566,0,0,1-.273.343" transform="translate(-103.99 -79.427)" fill="#fcffe3"/><path d="M339.232,248.379h0Zm-1.864,1.855L332.94,266.2a12.654,12.654,0,0,1-7.314-4.275l11.741-11.69m1.486-3.1a.83.83,0,0,0-.585.285L324.5,261.124a1.275,1.275,0,0,0-.2.26.947.947,0,0,0-.035,1.026,14.035,14.035,0,0,0,8.916,5.213.471.471,0,0,0,.082.007,1.118,1.118,0,0,0,.925-.843l5.192-18.72a.69.69,0,0,0-.243-.86.568.568,0,0,0-.284-.074" transform="translate(-103.677 -79.048)" fill="#231f20"/><path d="M341.97,267.492l5.192-18.72a.608.608,0,0,1,.063-.152.478.478,0,0,1,.122-.14l5.765,14.846a.582.582,0,0,1-.216.458,21.477,21.477,0,0,1-10.94,3.777.581.581,0,0,1,.014-.069" transform="translate(-109.378 -79.478)" fill="#fcffe3"/><path d="M347.49,248.617h0Zm-.42,1.513,4.984,12.836a21.231,21.231,0,0,1-9.515,3.513l4.531-16.349m.052-2.725a.64.64,0,0,0-.094.007,1.038,1.038,0,0,0-.713.518,1.339,1.339,0,0,0-.132.315l-5.191,18.721a.876.876,0,0,0,.052.672.492.492,0,0,0,.445.263h.017a22.07,22.07,0,0,0,11.441-3.893,1.2,1.2,0,0,0,.477-1.271l0,0-5.814-14.974a.5.5,0,0,0-.487-.355" transform="translate(-109.056 -79.135)" fill="#231f20"/><path d="M353.73,245.794a.389.389,0,0,1,.063-.279.612.612,0,0,1,.178-.2l12.394,7.22a34.068,34.068,0,0,1-6.87,8.1Z" transform="translate(-113.141 -78.467)" fill="#fcffe3"/><path d="M354.44,246.235l10.656,6.208a33.6,33.6,0,0,1-5.639,6.716Zm-.762-1.942a1.132,1.132,0,0,0-.9,1.419l5.812,14.973a.528.528,0,0,0,.435.352.686.686,0,0,0,.076,0,.8.8,0,0,0,.513-.211,34.884,34.884,0,0,0,7.369-8.864l-13.132-7.65a.61.61,0,0,0-.173-.025" transform="translate(-112.821 -78.139)" fill="#231f20"/><path d="M127.714,310.769A14.1,14.1,0,0,1,141.9,296.747l.066-11.671-83.255-.471-.066,11.676c.069,0,.137,0,.207,0a14.1,14.1,0,1,1-.16,28.2c-.069,0-.137,0-.207-.006l-.054,9.562,83.255.471.054-9.557a14.1,14.1,0,0,1-14.022-14.182" transform="translate(-18.689 -91.034)" fill="#fffb76"/><path d="M142.677,335.514l-85.255-.482.065-11.576,1.014.02.108,0,.08,0h.082a13.1,13.1,0,0,0,.075-26.2c-.065,0-.129,0-.194,0l-1.016.01.077-13.692,85.255.483-.077,13.671-1.076-.006a13.1,13.1,0,0,0-.072,26.2l1,.006Zm-83.243-2.471,81.255.459.043-7.589a15.1,15.1,0,0,1,.171-30.14l.055-9.7-81.255-.46-.055,9.691a15.1,15.1,0,0,1-.171,30.164Z" transform="translate(-18.689 -91.034)" fill="#231f20"/><path d="M1,49.438l-2-.011.008-1.433,2,.011Zm.053-9.433-2-.011.045-8,2,.011Zm.09-16-2-.011.045-8,2,.011Zm.09-16-2-.011.045-8,2,.011Z" transform="translate(98.278 193.903)" fill="#22263b"/><path d="M98.358,303.833a5.951,5.951,0,0,1,6.041,6.261,6.042,6.042,0,1,1-6.041-6.261m-.011,1.913c-2.212-.012-3.76,1.817-3.775,4.292-.013,2.363,1.514,4.247,3.727,4.26a3.947,3.947,0,0,0,3.85-4.217c.014-2.476-1.551-4.322-3.8-4.335m-2.5,23.466,16.119-24.927,2.063.012L97.877,329.223Zm15.483-11.8a5.943,5.943,0,0,1,6,6.26,6.023,6.023,0,1,1-6-6.26m-.011,1.913c-2.251-.013-3.8,1.817-3.813,4.292-.013,2.364,1.514,4.248,3.765,4.26a3.947,3.947,0,0,0,3.85-4.216c.014-2.476-1.551-4.322-3.8-4.335" transform="translate(-29.53 -97.184)"/><path d="M65.8,135.2a6.657,6.657,0,1,1,6.657,6.657A6.657,6.657,0,0,1,65.8,135.2" transform="translate(-21.046 -41.116)" fill="#6ee0af"/><path d="M55.338,233.791H37.473a5.74,5.74,0,0,1-5.723-5.722V227.9a5.74,5.74,0,0,1,5.723-5.723H55.338a5.739,5.739,0,0,1,5.723,5.723v.168a5.739,5.739,0,0,1-5.723,5.722" transform="translate(-10.156 -71.066)" fill="#98b7ff"/><rect width="58.61" height="2.559" transform="translate(21.594 129.585)" fill="#232639"/><rect width="58.61" height="2.559" transform="translate(21.594 120.045)" fill="#232639"/><rect width="42.326" height="2.559" transform="translate(21.595 139.125)" fill="#232639"/></g></svg>