<svg xmlns="http://www.w3.org/2000/svg" viewBox="0 0 700 620"><rect width="700" height="620" opacity="0"/><path d="M136.533,297.344l18.327,5.6,18.742-5.6v32.7H136.533ZM664.524,154.9A125.34,125.34,0,1,0,539.185,280.24,125.34,125.34,0,0,0,664.524,154.9Z" fill="#eee0fa"/><circle cx="132.869" cy="123.254" r="42.571" fill="#C6D4F4"/><path d="M692.11,484.022c0,73.95-153.16,133.9-342.11,133.9S7.89,557.972,7.89,484.022c0-47.99,64.51-90.09,161.44-113.73,52.43-12.78,114.35-20.17,180.67-20.17a825.727,825.727,0,0,1,126.47,9.45,622.481,622.481,0,0,1,75.11,16.26l-.18.83,12.8,71.81,4.43,24.89,13.13,3.98,13.12-3.98,13.73-77.01C660.63,419.852,692.11,450.492,692.11,484.022Z" fill="#C6D4F4"/><polygon points="564.2 448.472 476.47 539.112 172.81 480.352 169.33 370.292 167.48 311.822 273.86 260.232 273.86 157.772 317.69 124.682 476.47 132.582 507.52 134.722 555.57 175.812 561.95 329.092 551.58 375.832 551.4 376.662 564.2 448.472" fill="#eafaeb"/><path d="M418.444,365.841l-19.97,9.406-11.366-.879s33-124.529,31.336-126.128,36.841,72.218,36.841,72.218ZM551.4,376.662l.18-.83,10.37-46.74-6.38-153.28-32.77,17.53,3.35,124.69-49.68,35.98v185.1l87.73-90.64Zm50.118-140.7,21.54-151.324-13.874,3.242,11.058-15.542L606.962,25.68,585.59,50.965,579.5,109.64l5.705,25.052-10.7-10.01,2.066,114.8,9.8,17.486ZM397.04,25.68l38.876,55.464,26.535,7.964-23.468.875,8.056,7.563,29.432,3.152-24,2.564,86.715,97.025,10.733,28.784,22.672,28.791,1.919-27.618-8.365-46.53-16.717-26.185-58.1-95.28L447.039,33.885ZM505.19,52.794l8.591,12.281-7.331-1.566,37.406,82.15s7.984,9.172,8.864,9.253-8.864,1.658-8.864,1.658,20.3,61.619,20.743,64.258,11.695,21.439,11.695,21.439l9.3-33.157-10.92-75.526-4.423,7.222L539.185,35.145,508.843,3l-6.721,15Z" fill="#cef2cf"/><polygon points="408.073 200.1 434.967 205.753 458.889 250.102 433.291 273.691 422.508 258.9 418.444 330.04 304.915 308.911 320.201 250.102 314.582 252.504 298.145 227.093 327.373 192.822 351.889 193.344 408.073 200.1" fill="#98b7ff"/><path d="M393.813,122.89c4.587-3.668,12.575-15.3,12.575-15.3l-4.549-16.346-25.589-6.61-16.642,12,7.146,18.917Z" fill="#e0b086"/><path d="M340.7,130.624c1.493-3.776,14.259-20.4,14.259-20.4L390.13,108.3l17.939,25.281-8.115,19.362h-11.43Z" fill="#e0b086"/><polygon points="428.71 329.866 406.712 323.015 398.281 324.98 250.195 302.057 225.332 318.362 233.496 350.124 256.273 358.077 255.421 358.276 259.198 380.137 316.272 379.027 363.881 395.651 372.59 386.241 372.995 386.52 385.757 377.675 416.697 377.073 417.608 356.413 437.028 343.26 428.71 329.866" fill="#c6d4f4"/><polygon points="389.668 108.05 378.723 103.262 369.96 104.41 364.521 109.64 389.668 108.05" fill="#98b7ff"/><polygon points="397.878 318.598 329.923 295.189 318.163 253.593 307.6 242.217 225.75 226.906 219.846 235.268 240.972 303.971 339.067 327.534 402.914 325.043 397.878 318.598" fill="#fff"/><path d="M168.848,355.03l.537,15.1-42.912-2.54-25.65-19.865V332.545l25.826,20.727Zm51.209,8.934-6.639,11.9,4.35,8.158-7.984,28.259,10.5,17.019,11.164-1.091,10.082-7.066-2.051-9.4,6.95-30.285,12.764-1.982-3.634-21.2ZM364.808,181.137v12.207H351.889l-5.166,29.772,54.306,7.955S410.1,200.1,408.073,200.1s-15.167-3.058-15.167-3.058l-2.575-21.229,9.623-22.867-6.532-6.677-4.254,8.71-4.757-21.4H346.037l10.645,47.905Zm42.709,205.246-20.409-1.577-8.259-5.328-14.968,16.173,17.2,7.242.8,32.753-.923,6.372,9.383,11.086,12.568,4.554,4.705-18.6-3.281-20.493L416.811,395.3ZM287.432,238.445l20.168,3.772-9.455-15.124ZM458.889,250.1l-25.6,23.589,7.473,12.1-72.758-4.159-35.3,6.388-3.549,5.279,4.517,15.976,37.9-9.906L478.736,328.8l4.887-27.119Z" fill="#f6e8d5"/><polygon points="417.711 527.738 417.608 345.976 452.47 322.365 417.711 527.738" fill="#eafaeb"/><path d="M158.424,25.942a48.332,48.332,0,1,0,48.333,48.33A48.384,48.384,0,0,0,158.424,25.942ZM116.05,74.272a42.2,42.2,0,0,1,3.67-17.244l20.213,55.381A42.379,42.379,0,0,1,116.05,74.272Zm42.376,42.378a42.312,42.312,0,0,1-11.971-1.727l12.714-36.944L172.2,113.663a4.029,4.029,0,0,0,.3.585A42.3,42.3,0,0,1,158.426,116.65ZM164.268,54.4c2.549-.132,4.848-.4,4.848-.4a1.752,1.752,0,0,0-.271-3.493s-6.864.539-11.294.539c-4.165,0-11.161-.539-11.161-.539-2.285-.134-2.553,3.357-.269,3.493,0,0,2.16.268,4.444.4l6.6,18.089L147.893,100.3l-15.43-45.9c2.552-.132,4.848-.4,4.848-.4a1.752,1.752,0,0,0-.271-3.493s-6.864.539-11.295.539c-.794,0-1.731-.021-2.727-.053a42.364,42.364,0,0,1,64.02-7.972c-.181-.01-.36-.033-.549-.033a7.336,7.336,0,0,0-7.114,7.521c0,3.492,2.013,6.445,4.161,9.938a22.3,22.3,0,0,1,3.5,11.686q0,5.438-3.225,13.7l-4.228,14.121Zm31.34-.46a42.385,42.385,0,0,1-15.88,56.956L192.67,73.478A40.016,40.016,0,0,0,195.893,58.3,32.374,32.374,0,0,0,195.608,53.943Z" fill="#98b7ff"/><path d="M164.15,268.112a.991.991,0,0,1-.78.37.961.961,0,0,1-.62-.22,1.011,1.011,0,0,1-.16-1.41,9.434,9.434,0,0,0,2.13-6.06,11.489,11.489,0,0,0-.12-1.63,1,1,0,0,1,.85-1.12.983.983,0,0,1,1.13.85,13.719,13.719,0,0,1,.14,1.9A11.427,11.427,0,0,1,164.15,268.112Zm-4.83,6.12a.987.987,0,0,0-1.04.97v.36a13.888,13.888,0,0,0,3.47,8.56,1,1,0,0,0,1.47-1.36,12.016,12.016,0,0,1-2.94-7.2v-.3A1,1,0,0,0,159.32,274.232Zm-9.29-.09a1.012,1.012,0,0,0-1.22.72,8.589,8.589,0,0,0-.26,2.08,11.652,11.652,0,0,0,2.91,7.18,1,1,0,0,0,1.47-1.36,9.723,9.723,0,0,1-2.38-5.82,6.394,6.394,0,0,1,.2-1.58A1.016,1.016,0,0,0,150.03,274.142Zm3.83-9.62v.24a7.966,7.966,0,0,1-.38,2.46,1.006,1.006,0,0,0,.64,1.26,1.177,1.177,0,0,0,.31.05,1,1,0,0,0,.95-.69,9.829,9.829,0,0,0,.48-3.08v-.3a1.024,1.024,0,0,0-1.03-.97A1,1,0,0,0,153.86,264.522Zm459.23,111.92a1.077,1.077,0,0,1,.01.4l-17.23,96.7a1.013,1.013,0,0,1-.7.78l-13.12,3.98a1.446,1.446,0,0,1-.29.04,1.352,1.352,0,0,1-.29-.04l-13.13-3.98a.985.985,0,0,1-.69-.78l-4.09-22.97-4.1,4.23-82.16,84.87-.08.09-.03.04-.01.01a.035.035,0,0,1-.02.01,1.2,1.2,0,0,1-.12.11c-.04.03-.09.04-.13.07-.03.01-.05.02-.08.03a.937.937,0,0,1-.36.08,1.355,1.355,0,0,1-.2-.02h-.02l-58.68-11.36a.035.035,0,0,1-.02-.01.127.127,0,0,1-.06-.01.527.527,0,0,1-.12-.03l-244.75-47.35a1,1,0,0,1-.81-.95l-1.14-35.91-52.25-6.02a.318.318,0,0,1-.14-.02c-.007,0-.013,0-.02,0a1.018,1.018,0,0,1-.122-.026c-.015,0-.033,0-.048-.01s-.03-.01-.05-.02-.041-.022-.063-.032l-.041-.02c-.011-.007-.026-.011-.036-.018a.185.185,0,0,1-.09-.07l0,0a.948.948,0,0,1-.105-.1l-.011-.01c-.013-.007-.015-.017-.02-.027a.894.894,0,0,1-.088-.1l-12.538-19.324a1,1,0,0,1,.027-1.126l17.192-24.013,0-.006-22.33-45.35a.956.956,0,0,1-.11-.44v-15.19a.414.414,0,0,1,.02-.16.266.266,0,0,1,.03-.12.523.523,0,0,1,.06-.16c0-.01,0-.01.01-.02a1.876,1.876,0,0,1,.12-.18,1.288,1.288,0,0,1,.17-.16.3.3,0,0,1,.07-.05.076.076,0,0,1,.04-.02l25.31-18.83v-7.43a1,1,0,0,1,1-1h8.88v-7.07a.866.866,0,0,1,.16-.52c0-.01.01-.01.01-.02a1.432,1.432,0,0,1-.12-.21,1,1,0,0,1,.65-1.26l18.53-5.96a1,1,0,0,1,.66.01l18.54,7.03h.01a.826.826,0,0,1,.13.07.906.906,0,0,1,.16.11l.02.02a.138.138,0,0,1,.03.04.3.3,0,0,1,.08.08.827.827,0,0,1,.09.16.929.929,0,0,1,.05.1c0,.01.01.02.01.03s.01.03.02.05a.09.09,0,0,1,.01.05.375.375,0,0,1,.01.11.44.44,0,0,1,.02.1v9.93l57.73-28-13.44-43.7a.994.994,0,0,1,.14-.87l5.9-8.36a1.01,1.01,0,0,1,1-.41l46.93,8.78v-76.93a1,1,0,0,1,.4-.8l43.83-33.09a.936.936,0,0,1,.65-.2l25.23,1.26c4.16-6.17,10.81-14.83,11.19-15.33a1.028,1.028,0,0,1,.74-.39l8.22-.45-4.45-11.78a1.016,1.016,0,0,1,.35-1.17l16.65-12a1.018,1.018,0,0,1,.83-.16l25.59,6.61a.987.987,0,0,1,.71.7l4.55,16.35a.98.98,0,0,1-.14.83c-.24.34-4.27,6.2-8.24,10.88l6.4,9.02,71.07,3.54-24.72-27.66a.994.994,0,0,1-.18-1.03.983.983,0,0,1,.82-.63l14.71-1.58-20.14-2.15a.953.953,0,0,1-.57-.27l-8.06-7.56a1,1,0,0,1,.65-1.73l17.44-.65L435.63,82.1a.973.973,0,0,1-.53-.38l-38.88-55.47a1,1,0,0,1,.98-1.56l50,8.21a1.026,1.026,0,0,1,.38.14l44.28,28.37a.979.979,0,0,1,.32.32l48.83,80.07-35.47-77.88a.986.986,0,0,1,.13-1.04,1.011,1.011,0,0,1,.99-.35l4.85,1.03-7.14-10.19a1.079,1.079,0,0,1-.18-.49l-3.06-34.8a.91.91,0,0,1,.08-.49l6.72-15a1,1,0,0,1,1.64-.28l30.34,32.15a.9.9,0,0,1,.23.4l30.43,103.5,3.09-5.05-.15-8.61a1,1,0,0,1,1.68-.75l8.32,7.78-4.99-21.87a.916.916,0,0,1-.01-.33l6.09-58.67a.973.973,0,0,1,.23-.54l21.37-25.29a1.015,1.015,0,0,1,.97-.33,1,1,0,0,1,.75.71l13.28,46.65a.99.99,0,0,1-.14.85L611.53,86.3l11.3-2.64a.985.985,0,0,1,.9.23,1.02,1.02,0,0,1,.32.88L602.51,236.1a1.139,1.139,0,0,1-.18.44l-14.77,20.49-1.44,23.38,4.14-1.4a1,1,0,0,1,.81.08,1.022,1.022,0,0,1,.48.65Zm-29.02-95.33,1.46-23.61a.138.138,0,0,1-.03-.04l-8.07-14.41,5.69,38.38Zm-12.2-1.37a1.014,1.014,0,0,1,1.3-.73l4.95,1.66-6.43-22.33-12.33-15.66,3.31,78.54Zm-14.19-77.22v.02l14.3,49.6.95-13.59c-3.48-5.93-8.98-15.53-9.32-17.56-.14-.82-2.57-8.5-5.95-18.94Zm23.46,79.16-5.8-39.07c-.17-.27-.37-.62-.61-1.02l-1.13,16.17,6.82,23.68h.01Zm-5.59-154.66.12,6.46,10.91,75.48a1,1,0,0,1-.03.42l-8.56,30.57,7.76,13.86v.01l.01.01L596.4,81.092a1,1,0,1,1,2,.12l-10.61,172.07.01-.02,12.76-17.69,21.3-149.63-12.45,2.91a1,1,0,0,1-1.04-1.56l10.78-15.15-12.64-44.38-19.96,23.61-6.04,58.21,5.67,24.89a1,1,0,0,1-.48,1.09,1.013,1.013,0,0,1-1.18-.14Zm-30.84,18.09c3.46,3.98,7.45,8.3,8.31,8.85a1.059,1.059,0,0,1,.76.93c.02.79.03,1-3.77,1.68-.6.1-3.82.63-4.84.8.64,1.95,20.23,62.13,20.42,63.29.21,1.29,8.51,15.93,8.97,16.71l-10.93-73.62-43.2-112.82a1,1,0,0,1,1.87-.72l43.23,112.92a.794.794,0,0,1,.06.22l11.01,74.13,7.97-28.44-10.49-72.57-2.98,4.86a1.015,1.015,0,0,1-.98.47,1,1,0,0,1-.83-.71l-31-105.43L509.14,4.772l-6,13.4,3.02,34.27L514.6,64.5a.994.994,0,0,1,.01,1.13.98.98,0,0,1-1.04.42l-5.39-1.15Zm4.17,9.6c.61-.11,1.17-.21,1.66-.3-1.06-1.01-2.71-2.74-5.29-5.66Zm-69.58-22.93,1.9,2.13,48.71,54.5,1.37,1.53,8.65,9.68a.938.938,0,0,1,.19.32l10.68,28.63,19.42,24.67-19.3-66.96-23.28-33.04-4.66-6.61-.01-.01-45.44-64.49-39.09-25.56a1,1,0,0,1,1.09-1.68l39.25,25.67a.958.958,0,0,1,.27.26l50.07,71.05.01.01,22.71,32.22c-.48-1.46-7.94-24.23-8.93-27.22a.97.97,0,0,1,.09-.83,1.017,1.017,0,0,1,.7-.47c1.01-.16,2.06-.34,3.06-.51l-56.17-92.1-43.92-28.13-47.45-7.79,37.32,53.23,26.2,7.87a1,1,0,0,1,.7,1.08.979.979,0,0,1-.95.87l-21.08.79,6.07,5.7,29.1,3.11a1,1,0,0,1,0,1.99l-22.07,2.36Zm-72.46-1.66,2.04,2.88a.992.992,0,0,1,.11.97l-8.11,19.36-9.52,22.62,2.45,20.27c4.2.97,41.36,8.55,41.36,8.55a1.01,1.01,0,0,1,.68.51l23.92,44.35c.01.01.01.03.02.04l24.73,51.58a.988.988,0,0,1,.09.61l-4.89,27.12a.967.967,0,0,1-.45.66.94.94,0,0,1-.53.16.842.842,0,0,1-.27-.04l-25.13-6.9h-.01a.943.943,0,0,1-.3.33L433.82,336.2l-1.66,1.12-11.83,8.01,55.87,7.63h.01l48.93-35.43-3.33-123.76-36.97-36.22-62.78-2.91a1,1,0,0,1,.09-2l63.16,2.93a.968.968,0,0,1,.65.28l37.02,36.27,5.11-2.74-49.75-55.67-1.94-.13ZM224.28,489.292l192.43,37.23-.04-74.12-7.63-1.32-2.6,7.73a1.01,1.01,0,0,1-.95.68,1.177,1.177,0,0,1-.31-.05l-2.57-.83c-.01,0-.03-.01-.04-.01l-12.56-4.56a1.059,1.059,0,0,1-.43-.29l-5.97-7.06-135.83-23.45h-.01l-.1.03-10.44,2.11-5.2,3.65a.929.929,0,0,1-.48.17l-8.01.78Zm-5.55-105-7.86,27.84,9.94,16.11,10.28-1,9.33-6.54-1.91-8.74a1.086,1.086,0,0,1,0-.44l6.95-30.28a1,1,0,0,1,.82-.77l10.78-1.67.7-1.13-3.15-18.23-33.88,5.42-.04.01-6.13,11,4.09,7.68A1,1,0,0,1,218.73,384.292Zm21.69-85.52,1.34,4.36,95.88,23.03-1.52-5.38Zm98.88,2.37-5.985,3.183,1.055,3.737,16.97-4.44,3.49-.91,16.48-4.31a1.153,1.153,0,0,1,.26-.03,1.222,1.222,0,0,1,.26.03l106.12,29.15,4.63-25.73-24.01-50.06-23.99,22.11,6.82,11.039,8.253,1.953a1,1,0,0,1-.23,1.973,1.025,1.025,0,0,1-.231-.027l-8.612-2.038h-.01l-72.5-4.14-34.77,6.3-2.89,4.29-.17.25.24.85,2.29,8.07,5.59-3.01a.79.79,0,0,1,.33-.1c.01-.01.01-.01.02,0a.991.991,0,0,1,.85.28.01.01,0,0,0,.01.01,1.7,1.7,0,0,1,.15.22A1,1,0,0,1,339.3,301.142Zm-19.51-45.48,9.9,35.04,2.18-3.24a1,1,0,0,1,.65-.43l35.31-6.39a1.77,1.77,0,0,1,.23-.01l52.04,2.97,1.35-23.7h-6.67a1,1,0,0,1,0-2h7.33a1.231,1.231,0,0,1,.2.02h.01a1,1,0,0,1,1,.39l10.12,13.88,24.2-22.3-23.33-43.26-25.05-5.26c-.24,4.98-3.92,18.54-7.27,29.98a1,1,0,0,1-.96.72.757.757,0,0,1-.15-.01l-54.3-7.96a1,1,0,0,1-.67-.4,1.02,1.02,0,0,1-.17-.76l4.96-28.62-22.87-.49-28.44,33.34,10.07,15.57.01.01,7.21,7.77,2.7-1.157,5.969-19.538a1,1,0,0,1,1.912.584l-6.105,19.983h0Zm-1.67-3.59.42.45.18-.7Zm-28.7-14.27,16.45,3.07L298,228.7Zm63.16-84.01a1.4,1.4,0,0,1,.108-.236l-1.147.172,5.939,26.724,30.37-1.31,10.92-25.97-5.07-5.19-3.63,7.44a1,1,0,0,1-1.88-.23l-4.58-20.61H347.28l.05.25,2.469,11.1.6-.3a.991.991,0,0,1,.532-.1l7.174.621a1,1,0,1,1-.173,1.992l-6.894-.6-.787.392.849,3.834,3.467-.518a1.028,1.028,0,0,1,.147-.011h3.3a1,1,0,0,1,0,2h-1.8a1.978,1.978,0,0,1,1.109,2.32,1.7,1.7,0,0,1-1.41,1.05,2.728,2.728,0,0,1-.41.03,3.447,3.447,0,0,1-1.2-.23C352.95,155.912,352.21,154.782,352.58,153.792Zm.15,40.55-.02.11-4.83,27.82,52.43,7.68c3.63-12.47,7.07-25.96,7.07-28.9-.28-.03-.62-.08-.99-.14-.03-.01-.06-.01-.1-.02-4-.65-12.48-2.62-13.61-2.88a.989.989,0,0,1-.77-.85v-.01l-2.12-17.48-.31.75-.03.07a1.019,1.019,0,0,1-.47.51l-.15.06a.076.076,0,0,1-.04.01l-.11.03-22.87,7.47v4.77a.955.955,0,0,1-.24.64.974.974,0,0,1-.76.36Zm69.36,89.38,13.41.77-12.15-22.74Zm-31.15,168.53,11.27,4.09,4.39-17.33-3.25-20.29a1,1,0,0,1,.11-.63l11.69-21.81.42-.78-8.49-8.15-20.05-1.55a.978.978,0,0,1-.46-.16l-7.56-4.87-13.42,14.51,15.88,6.69a.981.981,0,0,1,.61.9l.81,32.75c0,.06-.01.11-.01.17l-.86,5.92Zm-9.34-7.94-1.4-1.65a1.021,1.021,0,0,1-.23-.79l.91-6.29-.78-32.02-16.55-6.97-.06-.02-33.4-11.66h-.02l-.02-.01-33.6-4.49h-.03l-39.33.72-7.78,2.24-3.13,29.79,2.07,8.13Zm4.48-65.64h-.01l-3.2,2.22,4.57,2.94,20.15,1.55a1.042,1.042,0,0,1,.62.28l8.43,8.09-.01-15.68Zm-8.8,1.03-1.39-.83-48.55.94,36.28,14.65Zm3.77.01,1.41-.97-2.83.05Zm28.63,69.45,6.99,1.21-.03-52.11-9.25,21.81,5.89,17.74a.971.971,0,0,1,0,.63Zm7.45-104.07,13.98-9.47-3.05-4.91-21.39-6.66-2.82.66a.564.564,0,0,1,.04.12.981.981,0,0,1-.07.63.993.993,0,0,1-.87.58l-5.79.23L256.7,359l.05.3,3.03,17.66,156.17-5.52.66-25.46s.03-.26.04-.28c.02-.07.08-.21.08-.21a1.18,1.18,0,0,1,.13-.18A3.319,3.319,0,0,1,417.13,345.092Zm-79.46-26.17,54.59-1.2L354.74,304.8l-12.19,3.18,15.06,5.15a1,1,0,0,1-.3,1.95l-20.57.55Zm63.25,5.2-3.52-4.51-59.16,1.3,1.58,5.59Zm5.57-2.08a.922.922,0,0,1,.52.02l10.7,3.33.69-12.13L371.56,300.4l-13.32,3.48,39.96,13.77a.612.612,0,0,1,.12.05.864.864,0,0,1,.16.1c.02.02.04.03.06.05a.382.382,0,0,1,.09.09.078.078,0,0,1,.04.04l3.88,4.98Zm-138.8-10.63,51.47,30.98,67.43-15.71-47.48,1.85h-.04a1.225,1.225,0,0,1-.19-.02h-.05ZM432.77,334.5l18.15-12.3-30.55-8.4-.7,12.2,9.34,2.91a.977.977,0,0,1,.55.43Zm-186.99-28.35-19.3,12.66,5.82,22.63,33.28,13.44,50.78-11.84-55.14-33.18-2.21-.53Zm119.14-198.28,4.35-4.18a.927.927,0,0,1,.56-.27l8.76-1.15a.955.955,0,0,1,.53.07l10.95,4.79a1.271,1.271,0,0,1,.27.18,1.063,1.063,0,0,1,.61.41l6.82,9.62c3.28-3.9,6.59-8.58,7.53-9.94l-4.27-15.33-24.58-6.35L360.81,97Zm13.66-3.58-8.16,1.07-3.24,3.11,18.31-1.16Zm-36.54,25.85,5.23,2.44h37.14a1.007,1.007,0,0,1,.98.78l4.12,18.58h.02l2.99-6.11a1,1,0,0,1,1.62-.26l5.47,5.6,7.32-17.46-17.3-24.38-34.16,1.86C353.09,114.3,342.47,129.332,342.04,130.142Zm-67.18,104.93,12.22,2.29,10.29-10.91.05-.05,29.19-34.23a1.019,1.019,0,0,1,.78-.35l36.42.52v-10.16l-7.08.31h-.05a1,1,0,0,1-.97-.79l-6.2-27.89,0-.014a.973.973,0,0,1-.317-1.429l-1.06-4.757a.09.09,0,0,1-.01-.05l-3.06-13.76c0-.01-.01-.03-.01-.04l-4.78-2.23a.986.986,0,0,1-.5-1.27,23.424,23.424,0,0,1,1.91-3.38L318,125.7l-43.14,32.56Zm-40.71,43.31.59,1.93,5,16.26,95.76,22.01L317.27,254.1l-9.37-10.09-.81-.87L226.2,228l-5.25,7.44Zm-63.19,32.86,50.15,6.11h.03l.13.02c.02,0,.04.02.07.02a.918.918,0,0,1,.28.09c.02.01.03.02.05.03l.11.08a.489.489,0,0,1,.13.12.71.71,0,0,1,.1.14.83.83,0,0,1,.13.34.757.757,0,0,1,.01.15v.14l.55,44.04,29.68-4.74-19.21-6.71a.982.982,0,0,1-.64-.7l-2.04-7.94-6.13-23.82a1.036,1.036,0,0,1,.42-1.09l18.33-12.01-2.37-.57a.974.974,0,0,1-.72-.68l-7.1-23.07Zm-69.14,36,25.02,19.37,41.45,2.46-.41-13.06-41.1-1.74a1.042,1.042,0,0,1-.59-.22l-24.37-19.43Zm66.53,23.83-30.09-1.78,1.358,7.193c10.536,1.084,25.519,2.559,28.992,2.793Zm-40.36-2.39,5.3,13.068,4.411-4.659v-.009l-1.49-7.91Zm4.619,16.7-7.437,7.854,12.643,5.008-5.2-12.858ZM169.3,401.162l-.62-19.876c-4.332-.239-25.234-2.395-29.512-2.837l-5.058,5.343h0l6.27,15.47.33.13ZM138.18,296.8l16.68,5.1,15.62-4.67-15.44-5.85Zm-.65,24.47,17.33,5.31L166.83,323l-.35-11.15a.757.757,0,0,1,.01-.15.794.794,0,0,1,.06-.22.953.953,0,0,1,.57-.59l5.48-2.66v-9.55l-17.45,5.22a.957.957,0,0,1-.58,0l-17.04-5.21v22.58Zm-9.88-8.9,7.88.28v-6.24h-7.88Zm0,8.23h7.88v-5.95l-7.67-.27-.21-.01Zm-25.19,11.97,24.73,19.71L167.81,354l-.66-21.11-11.79,3.65a1.071,1.071,0,0,1-.58,0l-18.45-5.52-.08-.02a.987.987,0,0,1-.64-.57,1.689,1.689,0,0,1-.08-.39V322.6h-8.88a1,1,0,0,1-1-1v-6.27Zm21.229,59.318,8.092-8.547h0l-6.13-15.12-22.01-17.05Zm-16.6,26.261,11.28,17.385,20.2-34.844-14.78-5.85-.007,0Zm63.517,24.311-1.24-39.3-28.89-1.79-20.43,35.26Zm51.66,46.44-.73-58.72-1.15.11a.375.375,0,0,1-.1.01.986.986,0,0,1-.85-.48l-10.51-17.01a1.064,1.064,0,0,1-.11-.8l7.88-27.87-4.16-7.81a1,1,0,0,1,0-.95l6.64-11.91a1.041,1.041,0,0,1,.72-.5l.8-.13-.54-43.6-51.64-6.29.05,1.75v.01l4.05,128.06.05,1.72,1.11,35.03Zm253.2-134.02-56.86-7.75.03,48.08v.01a1.016,1.016,0,0,1,.07.52.611.611,0,0,1-.07.24v.01l.03,55.31v.01a.882.882,0,0,1,.03.43c-.01.04-.02.07-.03.1v.01l.04,75.06,56.76,10.98Zm82.2,98.89-7.53-76.44a1.927,1.927,0,0,1,.01-.24l9.92-69.23v-.01l-2.83-67.86-8.11-10.3a1.174,1.174,0,0,1-.15-.27l-10.67-28.61-8.85-9.9-5.64,3.02L527.15,318a1.942,1.942,0,0,1-.02.24,1,1,0,0,1-.1.26.957.957,0,0,1-.29.34l-49.27,35.68v182.12Zm53.43-77.09-21.26-95.42-7.76,2.63a1,1,0,0,1-.64,0l-7.86-2.63-21.16,95.42,17.09,95.9,12.25,3.71,12.25-3.71Zm-379.65-6.02a1.014,1.014,0,0,0,.53-.15l.97-.6,4.29-2.66,5.51,1.33a1,1,0,0,0,.47-1.95l-5.92-1.42a1.014,1.014,0,0,0-.76.12l-5.61,3.48a1.015,1.015,0,0,0-.33,1.38A1.014,1.014,0,0,0,231.45,370.662ZM362.379,165.631h4.858a1,1,0,0,0,0-2h-3.858v-1.8a1,1,0,0,0-2,0v2.8A1,1,0,0,0,362.379,165.631Zm15.408-11.068a1.023,1.023,0,0,0,.4.081,1,1,0,0,0,.395-1.919l-2.672-1.149a1.011,1.011,0,0,0-.395-.081h-5.939a.994.994,0,0,0-.07,1.986h0a1.464,1.464,0,0,0-.34.53,1.718,1.718,0,0,0,.4,1.73,3.329,3.329,0,0,0,1.36.91,3.535,3.535,0,0,0,1.2.23,1.85,1.85,0,0,0,1.85-1.09,1.981,1.981,0,0,0-1.075-2.3H375.3Zm1.663,11.709-2.39,6.07a.96.96,0,0,1-.65.59l-5.68,1.65-.24.07a.863.863,0,0,1-.28.04,1.023,1.023,0,0,1-.42-.09l-.04-.02-4.81-2.27a.994.994,0,0,1-.57-1.03,1.009,1.009,0,0,1,.8-.86l9.31-1.79,3.32-3.43a1,1,0,0,1,1.65,1.07Zm-3.69,3.91-.07.07a1.02,1.02,0,0,1-.52.28l-6.61,1.28,1.74.82,5.08-1.48Zm-7.614-22.12,9.706-1.376,4.357,1.64a1,1,0,1,0,.7-1.871l-4.6-1.731a.987.987,0,0,0-.493-.055l-9.959,1.412a1,1,0,0,0,.281,1.981Zm-253.1-73.79a42.888,42.888,0,0,1,3.76-17.65.94.94,0,0,1,.94-.59,1,1,0,0,1,.91.65l20.21,55.38a.99.99,0,0,1-.27,1.09.971.971,0,0,1-.67.26,1.082,1.082,0,0,1-.43-.1A43.114,43.114,0,0,1,115.05,74.272Zm2,0a41.082,41.082,0,0,0,21.06,36.05l-18.44-50.53A40.967,40.967,0,0,0,117.05,74.272Zm56.3,39.46a.98.98,0,0,1,.09.85,1,1,0,0,1-.61.61,43.362,43.362,0,0,1-26.66.69,1,1,0,0,1-.6-.5.968.968,0,0,1-.06-.78l12.71-36.95a1,1,0,0,1,.94-.67h.01a1.007,1.007,0,0,1,.94.65l13.02,35.69C173.19,113.442,173.27,113.592,173.35,113.732Zm-2.22-.08L159.2,80.972l-11.45,33.27A41.43,41.43,0,0,0,171.13,113.652Zm-49-62.2a.991.991,0,0,1,.05-1.01,43.361,43.361,0,0,1,65.53-8.16,1,1,0,0,1,.25,1.13,1.015,1.015,0,0,1-.98.61l-.21-.02c-.1,0-.19-.01-.28-.01-3.78,0-6.11,3.38-6.11,6.52,0,2.93,1.62,5.56,3.5,8.6l.51.81a23.243,23.243,0,0,1,3.64,12.21c0,3.73-1.11,8.46-3.29,14.07l-4.2,14.04a1,1,0,0,1-.95.71,1.041,1.041,0,0,1-.96-.68l-15.31-45.55a1,1,0,0,1,.9-1.32c2.48-.13,4.76-.39,4.78-.39a.735.735,0,0,0,.7-.84.7.7,0,0,0-.8-.66c-.05,0-6.93.54-11.35.54-4.15,0-10.95-.52-11.24-.55a.718.718,0,0,0-.77.75.628.628,0,0,0,.64.75c.09.01,2.22.27,4.44.4a1,1,0,0,1,.88.66l6.61,18.09a1.063,1.063,0,0,1,.01.66l-9.28,27.81a.991.991,0,0,1-.95.68.978.978,0,0,1-.94-.68l-15.43-45.9a.983.983,0,0,1,.12-.88,1,1,0,0,1,.77-.44c2.49-.13,4.76-.39,4.78-.39a.728.728,0,0,0,.7-.84.677.677,0,0,0-.79-.66c-.05,0-6.94.54-11.35.54-.81,0-1.76-.02-2.76-.06A1,1,0,0,1,122.13,51.452Zm2.76-1.41c.3,0,.59.01.86.01,4.34,0,11.14-.53,11.21-.54a2.665,2.665,0,0,1,2.92,2.48,2.7,2.7,0,0,1-2.45,3c-.08.01-1.63.19-3.6.33l14.06,41.83,8.22-24.65-6.26-17.14c-2.03-.14-3.77-.36-3.85-.37a2.6,2.6,0,0,1-2.46-2.86,2.712,2.712,0,0,1,2.91-2.62c.09.01,7.02.54,11.1.54,4.34,0,11.15-.53,11.22-.54a2.75,2.75,0,0,1,.46,5.48c-.08.01-1.63.19-3.6.33l13.89,41.33,3.33-11.1c2.12-5.45,3.18-9.94,3.18-13.42a21.464,21.464,0,0,0-3.36-11.19l-.49-.78c-1.95-3.16-3.8-6.15-3.8-9.65a8.467,8.467,0,0,1,6.21-8.29,41.359,41.359,0,0,0-59.7,7.82Zm-15.8,24.23a49.335,49.335,0,1,1,49.33,49.33A49.387,49.387,0,0,1,109.09,74.272Zm2,0a47.335,47.335,0,1,0,47.33-47.33A47.387,47.387,0,0,0,111.09,74.272Zm67.69,36.3,12.94-37.42a39.144,39.144,0,0,0,3.17-14.85,32.069,32.069,0,0,0-.27-4.22,1,1,0,0,1,.68-1.09,1.025,1.025,0,0,1,1.19.47,43.386,43.386,0,0,1-16.26,58.3,1,1,0,0,1-1.45-1.19Zm2.82-2.03a41.392,41.392,0,0,0,15.29-49.53,41.657,41.657,0,0,1-3.29,14.84Z" fill="#232639"/></svg>