<svg id="uuid-efb83951-2a43-464a-b8a2-604fe0a1d516" xmlns="http://www.w3.org/2000/svg" viewBox="0 0 580 186"><g id="uuid-0f170340-0c08-4f81-96ef-01487ab0f732"><path d="M230.102,148.912l1.515,1.764,1.513-1.764-1.513-1.763-1.515,1.763Zm8.465,0l1.515,1.764,1.516-1.764-1.516-1.763-1.515,1.763Zm8.462,0l1.515,1.764,1.513-1.764-1.513-1.763-1.515,1.763Zm8.464,0l1.513,1.764,1.518-1.764-1.518-1.763-1.513,1.763Zm8.463,0l1.515,1.764,1.514-1.764-1.505-1.766-1.524,1.766Zm8.463,0l1.515,1.764,1.515-1.764-1.515-1.763-1.515,1.763Zm8.463,0l1.516,1.764,1.514-1.764-1.514-1.763-1.516,1.763Zm8.486,0l1.513,1.764,1.515-1.764-1.515-1.763-1.513,1.763Zm8.464,0l1.513,1.764,1.517-1.764-1.517-1.763-1.513,1.763Zm8.463,0l1.514,1.764,1.514-1.764-1.514-1.763-1.514,1.763Zm8.463,0l1.513,1.764,1.531-1.767-1.515-1.763-1.529,1.766Zm8.456,0l1.518,1.764,1.526-1.767-1.516-1.763-1.528,1.766Zm8.468,0l1.513,1.764,1.515-1.764-1.515-1.763-1.513,1.763Zm8.463,0l1.514,1.764,1.517-1.764-1.517-1.763-1.514,1.763Zm8.4,0l1.515,1.764,1.514-1.764-1.514-1.763-1.515,1.763Zm8.464,0l1.515,1.764,1.512-1.764-1.512-1.763-1.515,1.763Zm8.462,0l1.515,1.764,1.517-1.764-1.517-1.763-1.515,1.763Zm8.464,0l1.515,1.764,1.514-1.764-1.514-1.763-1.515,1.763Zm8.464,0l1.515,1.764,1.514-1.764-1.514-1.763-1.515,1.763Zm8.464,0l1.517,1.764,1.526-1.767-1.514-1.763-1.529,1.766Zm8.463,0l1.514,1.764,1.514-1.764-1.514-1.763-1.514,1.763Zm8.463,0l1.515,1.764,1.517-1.764-1.517-1.763-1.515,1.763Zm8.464,0l1.514,1.764,1.514-1.764-1.514-1.763-1.514,1.763Zm8.463,0l1.514,1.764,1.515-1.764-1.495-1.766-1.534,1.766Zm8.462,0l1.517,1.764,1.513-1.764-1.5-1.766-1.53,1.766Zm8.464,0l1.515,1.764,1.515-1.764-1.515-1.763-1.515,1.763Zm8.462,0l1.513,1.764,1.516-1.764-1.516-1.763-1.513,1.763Zm-220.005-9.85l1.514,1.764,1.514-1.764-1.514-1.762-1.514,1.762Zm8.464,0l1.516,1.762,1.516-1.763-1.516-1.761-1.516,1.762Zm8.463,0l1.514,1.764,1.514-1.764-1.514-1.762-1.514,1.762Zm8.463,0l1.514,1.764,1.518-1.764-1.518-1.762-1.514,1.762Zm8.464,0l1.527,1.761,1.513-1.764-1.513-1.762-1.527,1.765Zm8.462,0l1.516,1.764,1.515-1.764-1.515-1.762-1.516,1.762Zm16.95,0l1.512,1.764,1.516-1.764-1.516-1.762-1.512,1.762Zm8.463,0l1.514,1.762,1.517-1.763-1.517-1.761-1.514,1.762Zm8.464,0l1.513,1.764,1.515-1.764-1.515-1.762-1.513,1.762Zm8.462,0l1.514,1.764,1.534-1.767-1.515-1.762-1.533,1.765Zm8.457,0l1.517,1.764,1.53-1.767-1.516-1.762-1.531,1.765Zm33.8,0l1.514,1.764,1.513-1.764-1.513-1.762-1.514,1.762Zm8.462,0l1.515,1.764,1.517-1.764-1.517-1.762-1.515,1.762Zm8.464,0l1.514,1.764,1.515-1.764-1.515-1.762-1.514,1.762Zm8.463,0l1.516,1.764,1.514-1.764-1.514-1.762-1.516,1.762Zm8.465,0l1.517,1.762,1.529-1.766-1.514-1.761-1.532,1.765Zm8.462,0l1.515,1.764,1.514-1.764-1.514-1.762-1.515,1.762Zm8.464,0l1.515,1.764,1.517-1.764-1.517-1.762-1.515,1.762Zm8.464,0l1.514,1.764,1.514-1.764-1.514-1.762-1.514,1.762Zm8.463,0l1.537,1.761,1.515-1.764-1.515-1.762-1.537,1.765Zm16.926,0l1.515,1.764,1.515-1.764-1.515-1.762-1.515,1.762Zm8.462,0l1.513,1.762,1.516-1.763-1.516-1.761-1.513,1.762Zm-169.229,0l1.515,1.763,1.514-1.763-1.514-1.763-1.515,1.763Zm50.8,0l1.514,1.763,1.515-1.763-1.515-1.763-1.514,1.763Zm8.464,0l1.513,1.763,1.517-1.763-1.517-1.763-1.513,1.763Zm8.4,0l1.515,1.763,1.513-1.763-1.513-1.763-1.515,1.763Zm84.632,0l1.534,1.761,1.514-1.763-1.514-1.763-1.534,1.765Zm-203.083-9.85l1.515,1.763,1.514-1.763-1.514-1.762-1.515,1.762Zm8.465,0l1.516,1.763,1.519-1.763-1.515-1.762-1.52,1.762Zm8.462,0l1.515,1.763,1.514-1.763-1.514-1.762-1.515,1.762Zm8.464,0l1.514,1.763,1.518-1.763-1.518-1.762-1.514,1.762Zm8.464,0l1.514,1.763,1.514-1.763-1.514-1.762-1.514,1.762Zm8.462,0l1.516,1.763,1.515-1.763-1.515-1.762-1.516,1.762Zm8.464,0l1.515,1.763,1.514-1.763-1.514-1.762-1.515,1.762Zm8.485,0l1.513,1.763,1.521-1.763-1.516-1.762-1.518,1.762Zm8.464,0l1.514,1.763,1.516-1.763-1.516-1.762-1.514,1.762Zm8.463,0l1.514,1.763,1.515-1.763-1.515-1.762-1.514,1.762Zm8.463,0l1.514,1.763,1.539-1.767-1.515-1.762-1.538,1.766Zm8.456,0l1.518,1.763,1.535-1.767-1.516-1.762-1.537,1.766Zm8.468,0l1.514,1.763,1.514-1.763-1.514-1.762-1.514,1.762Zm8.464,0l1.513,1.763,1.517-1.763-1.517-1.762-1.513,1.762Zm8.4,0l1.514,1.763,1.514-1.763-1.514-1.762-1.514,1.762Zm8.463,0l1.515,1.763,1.513-1.763-1.513-1.762-1.515,1.762Zm8.463,0l1.515,1.763,1.516-1.763-1.516-1.762-1.515,1.762Zm8.463,0l1.515,1.763,1.515-1.763-1.515-1.762-1.515,1.762Zm8.464,0l1.516,1.763,1.513-1.763-1.513-1.762-1.516,1.762Zm8.465,0l1.516,1.763,1.535-1.767-1.514-1.762-1.537,1.766Zm8.462,0l1.515,1.763,1.513-1.763-1.513-1.762-1.515,1.762Zm8.464,0l1.514,1.763,1.517-1.763-1.517-1.762-1.514,1.762Zm8.463,0l1.515,1.763,1.514-1.763-1.514-1.762-1.515,1.762Zm8.464,0l1.513,1.763,1.515-1.763-1.515-1.762-1.513,1.762Zm8.461,0l1.517,1.763,1.514-1.763-1.514-1.762-1.517,1.762Zm8.465,0l1.515,1.763,1.514-1.763-1.514-1.762-1.515,1.762Zm8.461,0l1.514,1.763,1.516-1.763-1.516-1.762-1.514,1.762Zm-169.229-9.845l1.52,1.761,1.512-1.761-1.515-1.762-1.517,1.762Zm152.3,0l1.519,1.761,1.512-1.761-1.504-1.755-1.527,1.755Zm-203.079,0l1.515,1.762,1.514-1.762-1.514-1.764-1.515,1.764Zm8.465,0l1.516,1.762,1.515-1.762-1.515-1.764-1.516,1.764Zm8.462,0l1.515,1.762,1.514-1.762-1.514-1.764-1.515,1.764Zm8.466,0l1.515,1.763,1.517-1.763-1.52-1.766-1.512,1.766Zm8.461,0l1.515,1.762,1.514-1.762-1.514-1.764-1.515,1.764Zm8.463,0l1.516,1.762,1.514-1.762-1.514-1.764-1.516,1.764Zm16.949,0l1.513,1.763,1.516-1.763-1.516-1.766-1.513,1.766Zm8.464,0l1.513,1.762,1.517-1.762-1.517-1.764-1.513,1.764Zm8.463,0l1.514,1.762,1.515-1.762-1.515-1.764-1.514,1.764Zm8.457,0l1.514,1.763,1.515-1.763-1.514-1.766-1.515,1.766Zm8.461,0l1.518,1.762,1.537-1.768-1.516-1.764-1.539,1.77Zm8.468,0l1.513,1.762,1.515-1.762-1.515-1.764-1.513,1.764Zm8.463,0l1.514,1.762,1.517-1.762-1.517-1.764-1.514,1.764Zm8.4,0l1.514,1.762,1.514-1.762-1.514-1.764-1.514,1.764Zm8.463,0l1.515,1.762,1.512-1.762-1.512-1.764-1.515,1.764Zm8.463,0l1.514,1.762,1.524-1.758-1.517-1.764-1.521,1.76Zm8.463,0l1.515,1.762,1.515-1.762-1.515-1.764-1.515,1.764Zm8.464,0l1.515,1.762,1.514-1.762-1.514-1.764-1.515,1.764Zm8.464,0l1.517,1.762,1.537-1.768-1.514-1.764-1.54,1.77Zm8.463,0l1.515,1.762,1.513-1.762-1.513-1.764-1.515,1.764Zm8.467,0l1.512,1.763,1.518-1.763-1.519-1.766-1.511,1.766Zm8.456,0l1.514,1.762,1.514-1.762-1.514-1.764-1.514,1.764Zm8.463,0l1.514,1.762,1.515-1.762-1.515-1.764-1.514,1.764Zm16.926,0l1.515,1.762,1.515-1.762-1.515-1.764-1.515,1.764Zm8.462,0l1.513,1.762,1.516-1.762-1.516-1.764-1.513,1.764Zm-219.977-9.244l1.514,1.763,1.514-1.763-1.514-1.763-1.514,1.763Zm8.464,0l1.516,1.763,1.516-1.763-1.516-1.763-1.516,1.763Zm8.463,0l1.515,1.763,1.513-1.763-1.513-1.763-1.515,1.763Zm8.463,0l1.514,1.763,1.518-1.763-1.518-1.763-1.514,1.763Zm8.464,0l1.515,1.763,1.513-1.763-1.516-1.763-1.512,1.763Zm8.463,0l1.515,1.763,1.515-1.763-1.515-1.763-1.515,1.763Zm8.463,0l1.516,1.763,1.513-1.763-1.513-1.763-1.516,1.763Zm8.486,0l1.512,1.763,1.516-1.763-1.516-1.763-1.512,1.763Zm8.463,0l1.514,1.763,1.517-1.763-1.517-1.763-1.514,1.763Zm8.464,0l1.514,1.763,1.514-1.763-1.514-1.763-1.514,1.763Zm8.462,0l1.514,1.763,1.519-1.763-1.515-1.763-1.518,1.763Zm8.457,0l1.518,1.763,1.514-1.763-1.516-1.763-1.516,1.763Zm8.467,0l1.514,1.763,1.515-1.763-1.515-1.763-1.514,1.763Zm8.464,0l1.514,1.763,1.516-1.763-1.516-1.763-1.514,1.763Zm8.4,0l1.515,1.763,1.514-1.763-1.514-1.763-1.515,1.763Zm8.464,0l1.514,1.763,1.513-1.763-1.513-1.763-1.514,1.763Zm8.462,0l1.515,1.763,1.517-1.763-1.517-1.763-1.515,1.763Zm8.464,0l1.515,1.763,1.514-1.763-1.514-1.763-1.515,1.763Zm8.463,0l1.516,1.763,1.514-1.763-1.514-1.763-1.516,1.763Zm8.465,0l1.517,1.763,1.514-1.763-1.514-1.763-1.517,1.763Zm8.463,0l1.514,1.763,1.514-1.763-1.514-1.763-1.514,1.763Zm8.463,0l1.515,1.763,1.517-1.763-1.517-1.763-1.515,1.763Zm8.464,0l1.514,1.763,1.514-1.763-1.514-1.763-1.514,1.763Zm8.463,0l1.514,1.763,1.515-1.763-1.507-1.763-1.522,1.763Zm8.462,0l1.516,1.763,1.514-1.763-1.514-1.763-1.516,1.763Zm8.464,0l1.515,1.763,1.515-1.763-1.515-1.763-1.515,1.763Zm8.462,0l1.513,1.763,1.516-1.763-1.516-1.763-1.513,1.763Zm-220-9.847l1.514,1.762,1.514-1.762-1.505-1.764-1.523,1.764Zm8.464,0l1.516,1.762,1.516-1.762-1.511-1.764-1.521,1.764Zm8.463,0l1.515,1.762,1.513-1.762-1.504-1.764-1.524,1.764Zm8.463,0l1.514,1.762,1.518-1.762-1.509-1.764-1.523,1.764Zm8.464,0l1.515,1.762,1.513-1.762-1.507-1.764-1.521,1.764Zm8.463,0l1.515,1.762,1.515-1.762-1.506-1.764-1.524,1.764Zm8.463,0l1.516,1.762,1.513-1.762-1.504-1.764-1.525,1.764Zm8.486,0l1.512,1.762,1.516-1.762-1.509-1.764-1.519,1.764Zm8.463,0l1.514,1.762,1.517-1.762-1.508-1.764-1.523,1.764Zm8.464,0l1.514,1.762,1.514-1.762-1.505-1.764-1.523,1.764Zm8.462,0l1.514,1.762,1.519-1.762-1.503-1.764-1.53,1.764Zm8.457,0l1.518,1.762,1.514-1.762-1.507-1.764-1.525,1.764Zm8.467,0l1.514,1.762,1.515-1.762-1.506-1.764-1.523,1.764Zm8.464,0l1.514,1.762,1.516-1.762-1.507-1.764-1.523,1.764Zm8.4,0l1.515,1.762,1.514-1.762-1.503-1.764-1.526,1.764Zm8.464,0l1.514,1.762,1.513-1.762-1.502-1.764-1.525,1.764Zm8.462,0l1.515,1.762,1.517-1.762-1.506-1.764-1.526,1.764Zm8.464,0l1.515,1.762,1.514-1.762-1.503-1.764-1.526,1.764Zm8.463,0l1.516,1.762,1.514-1.762-1.503-1.764-1.527,1.764Zm8.465,0l1.517,1.762,1.514-1.762-1.507-1.764-1.524,1.764Zm8.463,0l1.514,1.762,1.514-1.762-1.503-1.764-1.525,1.764Zm8.463,0l1.515,1.762,1.517-1.762-1.506-1.764-1.526,1.764Zm8.464,0l1.514,1.762,1.514-1.762-1.503-1.764-1.525,1.764Zm8.463,0l1.514,1.762,1.515-1.762-1.496-1.764-1.533,1.764Zm8.462,0l1.516,1.762,1.514-1.762-1.503-1.764-1.527,1.764Zm8.464,0l1.515,1.762,1.515-1.762-1.504-1.764-1.526,1.764Zm8.462,0l1.513,1.762,1.516-1.762-1.505-1.764-1.524,1.764Zm-220-9.848l1.514,1.763,1.514-1.763-1.514-1.764-1.514,1.764Zm8.464,0l1.516,1.763,1.516-1.763-1.513-1.76-1.519,1.76Zm8.463,0l1.515,1.763,1.513-1.763-1.513-1.764-1.515,1.764Zm8.463,0l1.514,1.763,1.518-1.763-1.518-1.764-1.514,1.764Zm8.464,0l1.512,1.768,1.513-1.763-1.513-1.769-1.512,1.764Zm8.463,0l1.515,1.768,1.515-1.763-1.515-1.763-1.515,1.758Zm8.463,0l1.516,1.763,1.513-1.763-1.513-1.764-1.516,1.764Zm8.486,0l1.512,1.763,1.516-1.763-1.511-1.76-1.517,1.76Zm8.463,0l1.514,1.768,1.517-1.763-1.517-1.763-1.514,1.758Zm8.464,0l1.514,1.763,1.514-1.763-1.514-1.764-1.514,1.764Zm8.462,0l1.514,1.763,1.519-1.763-1.505-1.76-1.528,1.76Zm8.457,0l1.521,1.768,1.511-1.768-1.516-1.764-1.516,1.764Zm8.467,0l1.514,1.763,1.515-1.763-1.515-1.764-1.514,1.764Zm8.464,0l1.514,1.763,1.526-1.759-1.516-1.764-1.524,1.76Zm8.4,0l1.515,1.763,1.525-1.759-1.514-1.764-1.526,1.76Zm8.464,0l1.514,1.763,1.513-1.763-1.513-1.764-1.514,1.764Zm8.462,0l1.515,1.763,1.517-1.763-1.517-1.764-1.515,1.764Zm8.464,0l1.515,1.763,1.514-1.763-1.514-1.764-1.515,1.764Zm8.463,0l1.516,1.763,1.514-1.763-1.514-1.764-1.516,1.764Zm8.465,0l1.517,1.763,1.514-1.763-1.509-1.76-1.522,1.76Zm8.463,0l1.514,1.763,1.514-1.763-1.514-1.764-1.514,1.764Zm8.463,0l1.515,1.763,1.517-1.763-1.517-1.764-1.515,1.764Zm8.464,0l1.514,1.763,1.518-1.759-1.514-1.764-1.518,1.76Zm8.463,0l1.522,1.768,1.515-1.763-1.515-1.769-1.522,1.764Zm8.462,0l1.516,1.768,1.514-1.763-1.514-1.769-1.516,1.764Zm8.464,0l1.515,1.763,1.528-1.759-1.515-1.764-1.528,1.76Zm8.462,0l1.513,1.763,1.516-1.763-1.516-1.764-1.513,1.764Zm-169.219-9.844l1.515,1.763,1.514-1.763-1.514-1.764-1.515,1.764Zm50.8,0l1.514,1.763,1.515-1.763-1.515-1.764-1.514,1.764Zm8.464,0l1.513,1.763,1.517-1.763-1.517-1.764-1.513,1.764Zm8.4,0l1.515,1.763,1.513-1.763-1.513-1.764-1.515,1.764Zm84.633,0l1.516,1.763,1.514-1.763-1.512-1.764-1.518,1.764Zm-203.082,0l1.515,1.763,1.514-1.763-1.514-1.762-1.515,1.762Zm8.465,0l1.516,1.763,1.516-1.763-1.512-1.762-1.52,1.762Zm8.463,0l1.514,1.763,1.514-1.763-1.511-1.762-1.517,1.762Zm8.463,0l1.514,1.763,1.518-1.763-1.518-1.762-1.514,1.762Zm8.464,0l1.514,1.763,1.514-1.763-1.511-1.765-1.517,1.765Zm8.462,0l1.516,1.763,1.515-1.763-1.515-1.762-1.516,1.762Zm16.95,0l1.512,1.763,1.516-1.763-1.51-1.762-1.518,1.762Zm8.463,0l1.514,1.763,1.517-1.763-1.517-1.762-1.514,1.762Zm8.464,0l1.513,1.763,1.515-1.763-1.515-1.762-1.513,1.762Zm8.462,0l1.514,1.763,1.524-1.766-1.509-1.762-1.529,1.765Zm8.456,0l1.518,1.763,1.52-1.766-1.516-1.762-1.522,1.765Zm33.8,0l1.515,1.763,1.513-1.763-1.513-1.762-1.515,1.762Zm8.463,0l1.515,1.763,1.517-1.763-1.517-1.762-1.515,1.762Zm8.464,0l1.514,1.763,1.515-1.763-1.515-1.762-1.514,1.762Zm8.463,0l1.516,1.763,1.513-1.763-1.513-1.762-1.516,1.762Zm8.465,0l1.516,1.763,1.52-1.766-1.518-1.762-1.518,1.765Zm8.462,0l1.515,1.763,1.514-1.763-1.514-1.762-1.515,1.762Zm8.464,0l1.514,1.763,1.517-1.763-1.517-1.762-1.514,1.762Zm8.463,0l1.515,1.763,1.514-1.763-1.514-1.762-1.515,1.762Zm8.464,0l1.513,1.763,1.515-1.763-1.5-1.765-1.528,1.765Zm16.926,0l1.515,1.763,1.514-1.763-1.514-1.762-1.515,1.762Zm8.461,0l1.514,1.763,1.516-1.763-1.516-1.762-1.514,1.762Zm-220-9.848l1.514,1.764,1.514-1.764-1.514-1.762-1.514,1.762Zm8.463,0l1.515,1.764,1.514-1.764-1.514-1.762-1.515,1.762Zm8.464,0l1.515,1.764,1.513-1.764-1.513-1.762-1.515,1.762Zm8.463,0l1.514,1.764,1.516-1.764-1.516-1.762-1.514,1.762Zm8.464,0l1.515,1.764,1.513-1.764-1.516-1.762-1.512,1.762Zm8.463,0l1.515,1.764,1.515-1.764-1.515-1.762-1.515,1.762Zm8.463,0l1.515,1.764,1.513-1.764-1.513-1.762-1.515,1.762Zm8.486,0l1.512,1.764,1.516-1.764-1.516-1.762-1.512,1.762Zm8.463,0l1.514,1.764,1.515-1.764-1.515-1.762-1.514,1.762Zm8.464,0l1.514,1.764,1.514-1.764-1.514-1.762-1.514,1.762Zm8.462,0l1.514,1.764,1.519-1.764-1.51-1.762-1.523,1.762Zm8.464,0l1.515,1.764,1.51-1.764-1.515-1.762-1.51,1.762Zm8.464,0l1.513,1.764,1.515-1.764-1.515-1.762-1.513,1.762Zm8.463,0l1.514,1.764,1.515-1.764-1.515-1.762-1.514,1.762Zm8.4,0l1.515,1.764,1.514-1.764-1.514-1.762-1.515,1.762Zm8.464,0l1.515,1.764,1.512-1.764-1.512-1.762-1.515,1.762Zm8.462,0l1.515,1.764,1.516-1.764-1.516-1.762-1.515,1.762Zm8.464,0l1.515,1.764,1.514-1.764-1.514-1.762-1.515,1.762Zm8.464,0l1.515,1.764,1.514-1.764-1.514-1.762-1.515,1.762Zm8.462,0l1.516,1.764,1.514-1.764-1.514-1.762-1.516,1.762Zm8.465,0l1.514,1.764,1.514-1.764-1.514-1.762-1.514,1.762Zm8.463,0l1.515,1.764,1.515-1.764-1.515-1.762-1.515,1.762Zm8.464,0l1.514,1.764,1.514-1.764-1.514-1.762-1.514,1.762Zm8.463,0l1.514,1.764,1.515-1.764-1.51-1.762-1.519,1.762Zm8.462,0l1.516,1.764,1.514-1.764-1.517-1.762-1.513,1.762Zm8.464,0l1.515,1.764,1.515-1.764-1.515-1.762-1.515,1.762Zm8.464,0l1.514,1.764,1.516-1.764-1.516-1.762-1.514,1.762Zm-218.5-11.4l-1.513,1.762,1.514,1.763,1.514-1.763-1.512-1.762h-.003Zm8.467,0l-1.516,1.762,1.516,1.763,1.516-1.763-1.512-1.765-.004,.003Zm8.456,0l-1.513,1.762,1.514,1.763,1.514-1.763-1.513-1.762h-.002Zm8.464,0l-1.514,1.762,1.514,1.763,1.518-1.763-1.509-1.762h-.009Zm8.464,0l-1.514,1.762,1.514,1.763,1.514-1.763-1.512-1.762h-.002Zm8.463,0l-1.515,1.762,1.516,1.763,1.515-1.763-1.514-1.762h-.002Zm8.464,0l-1.507,1.759,1.516,1.763,1.513-1.763-1.512-1.762-.01,.003Zm8.483,0l-1.512,1.762,1.512,1.763,1.516-1.763-1.506-1.765-.01,.003Zm8.464,0l-1.513,1.762,1.514,1.763,1.517-1.763-1.516-1.762h-.002Zm8.463,0l-1.512,1.762,1.513,1.763,1.515-1.763-1.514-1.762h-.002Zm8.463,0l-1.513,1.762,1.514,1.763,1.523-1.763-1.504-1.765-.02,.003Zm8.463,0l-1.516,1.762,1.517,1.763,1.516-1.763-1.515-1.762h-.002Zm8.464,0l-1.507,1.759,1.514,1.763,1.515-1.763-1.514-1.762-.008,.003Zm8.463,0l-1.512,1.762,1.514,1.763,1.516-1.763-1.516-1.762h-.002Zm8.4,0l-1.511,1.762,1.515,1.763,1.514-1.763-1.513-1.762h-.005Zm8.463,0l-1.513,1.762,1.514,1.763,1.513-1.763-1.513-1.762h-.001Zm8.463,0l-1.514,1.762,1.515,1.763,1.517-1.763-1.516-1.762h-.002Zm8.463,0l-1.513,1.762,1.514,1.763,1.515-1.763-1.513-1.762h-.003Zm8.465,0l-1.515,1.762,1.516,1.763,1.514-1.763-1.514-1.762h0Zm8.466,0l-1.516,1.762,1.517,1.763,1.515-1.763-1.506-1.765-.01,.003Zm8.461,0l-1.515,1.762,1.515,1.763,1.514-1.763-1.513-1.762h-.001Zm8.463,0l-1.514,1.762,1.515,1.763,1.517-1.763-1.517-1.762h-.001Zm8.463,0l-1.513,1.762,1.514,1.763,1.514-1.763-1.513-1.762h-.002Zm8.464,0l-1.514,1.762,1.514,1.763,1.514-1.763-1.505-1.762h-.009Zm8.463,0l-1.504,1.759,1.516,1.763,1.514-1.763-1.513-1.762-.013,.003Zm8.463,0l-1.514,1.762,1.515,1.763,1.515-1.763-1.514-1.762h-.002Zm8.456,0l-1.513,1.762,1.514,1.763,1.516-1.763-1.515-1.762h-.002Z" fill="#d1a3f5"/></g><g><path d="M146.616,38.603h0c-21.284,.012-40.438,9.089-53.839,23.567-.413-.018-.828-.032-1.246-.032h-.014c-15.877,.005-28.743,12.88-28.737,28.757h0c.006,8.934,4.087,16.913,10.485,22.18,.546,40.138,33.258,72.489,73.515,72.444,40.57-.045,73.421-32.97,73.376-73.54s-32.97-73.421-73.54-73.376Z" fill="#9b50d7"/><g id="uuid-bc294f46-d582-4371-aa0b-8a0606179c0f"><path d="M428.543,83.028c.002,1.047-.845,1.896-1.892,1.898s-1.896-.845-1.898-1.892c-.002-1.046,.844-1.895,1.89-1.898h0c1.045,0,1.893,.847,1.894,1.892h0" fill="#232639"/></g><g id="uuid-94925e17-507a-4754-8d24-df73699948e1"><path d="M434.329,83.028c.001,1.046-.846,1.895-1.892,1.896-1.046,.001-1.895-.846-1.896-1.892-.001-1.044,.844-1.893,1.888-1.896h0c1.045,0,1.892,.847,1.893,1.892" fill="#232639"/></g><g id="uuid-f7e485e5-6bd5-462d-beb4-35e04f90bef7"><path d="M440.102,83.028c.001,1.046-.846,1.895-1.892,1.896-1.046,.001-1.895-.846-1.896-1.892-.001-1.044,.844-1.893,1.888-1.896h0c1.045,0,1.892,.847,1.893,1.892" fill="#232639"/></g><g id="uuid-22ff30b3-fc9c-4e96-8000-6f3fef718fbb"><rect x="421.196" y="77.505" width="158.012" height="95.298" fill="#eee0fa"/></g><g id="uuid-f85456de-76e7-46bb-9fb2-81b7c0adbf16"><path d="M579.208,173.803h-158.012c-.553,0-1-.447-1-1V77.505c0-.552,.447-1,1-1h158.012c.553,0,1,.448,1,1v95.298c0,.553-.447,1-1,1Zm-157.012-2h156.012V78.505h-156.012v93.298Z" fill="#fff"/></g><path d="M579.209,87.412h-37.722c.289,.632,.451,1.32,.469,2h37.253c.553,0,1-.448,1-1s-.447-1-1-1Z" fill="#232639"/><g id="uuid-b4d8901e-f71b-47e8-ac23-dbacf263fd5a"><path d="M455.356,59.694l45.594-13.521,44.1,13.521-6.47,51.374-37.627,48.739-37.653-48.74-7.944-51.373Z" fill="#d1a3f5"/></g><g id="uuid-49fe3645-a2f4-48d0-ad53-fe81049f3288"><path d="M525.567,90.467c.116,13.596-10.812,24.711-24.407,24.827-13.596,.116-24.711-10.812-24.827-24.407-.116-13.587,10.799-24.699,24.386-24.827h.234c13.538-.058,24.56,10.87,24.618,24.408h0" fill="#d1a3f5"/></g><path d="M546.043,59.819c.012-.098,0-.192-.015-.285-.003-.019,.001-.038-.003-.057-.028-.125-.081-.241-.153-.346l-.006-.013c-.014-.02-.036-.03-.052-.049-.06-.074-.126-.141-.206-.195-.04-.027-.083-.044-.127-.065-.047-.023-.087-.055-.138-.071l-44.101-13.521c-.188-.058-.389-.058-.577-.002l-45.594,13.521c-.056,.016-.099,.051-.15,.076-.048,.023-.096,.04-.14,.071-.081,.057-.146,.129-.206,.206-.015,.02-.037,.03-.051,.051l-.004,.009c-.069,.106-.118,.223-.144,.348-.009,.043,0,.085-.004,.128-.005,.074-.018,.146-.006,.222l4.263,27.565h-37.434c-.553,0-1,.448-1,1s.447,1,1,1h37.743l3.369,21.786c.005,.04,.02,.076,.03,.116,.02,.077,.047,.149,.084,.219,.012,.023,.013,.048,.027,.071,.014,.023,.034,.039,.05,.06l.009,.016,37.652,48.739c.009,.012,.024,.016,.033,.027,.076,.091,.167,.162,.271,.221,.022,.013,.039,.031,.062,.042,.129,.061,.27,.101,.422,.101,.151,0,.291-.039,.419-.099,.038-.017,.066-.047,.102-.069,.084-.053,.161-.11,.226-.184,.014-.016,.035-.022,.048-.039l37.627-48.738c.013-.016,.019-.036,.03-.053,.006-.008,.014-.014,.019-.023,.006-.01,.006-.021,.012-.031,.058-.099,.1-.204,.122-.317,.002-.011,.007-.021,.008-.032,.002-.01,.007-.02,.008-.03l6.471-51.375Zm-8.258,49.561l-13.751-8.731c1.357-3.104,2.089-6.478,2.119-9.967,.042-4.912-1.309-9.619-3.859-13.682l21.482-15.179-5.99,47.559Zm-81.092-47.589l22.624,15.117c-2.499,3.924-3.963,8.571-3.984,13.558,0,3.689,.803,7.198,2.233,10.371l-13.511,8.565-7.362-47.611Zm60.463,45.37c-4.458,4.383-10.328,6.807-16.61,6.716-12.8-.107-23.213-10.609-23.213-23.406,.056-12.931,10.593-23.412,23.511-23.412h.11c6.248,.056,12.101,2.54,16.482,6.996,4.385,4.459,6.77,10.358,6.717,16.611s-2.537,12.11-6.996,16.495Zm1.706-34.508c-4.526-4.603-10.501-7.262-16.912-7.561v-17.565l40.86,12.527-21.645,15.294c-.7-.942-1.466-1.844-2.303-2.695Zm-18.912-7.571c-7.955,.276-15.005,4.209-19.499,10.179l-22.768-15.213,42.267-12.535v17.568Zm-21.489,37.556c4.207,7.651,12.24,12.932,21.489,13.219v41.016l-35.189-45.551,13.7-8.685Zm23.489,13.211c6.256-.289,12.109-2.837,16.608-7.262,1.859-1.828,3.398-3.893,4.597-6.127l13.963,8.865-35.168,45.555v-41.031Z" fill="#232639"/><g id="uuid-f956ae46-7523-4752-98ce-76734cefcef4"><path d="M497.807,98.661c-.244,0-.488-.089-.682-.268-.404-.377-.427-1.01-.051-1.414l13.389-14.388c.377-.405,1.01-.426,1.414-.051,.404,.376,.427,1.009,.051,1.413l-13.389,14.389c-.197,.211-.465,.318-.732,.318Z" fill="#232639"/></g><g id="uuid-f327d18e-68ae-4c4e-9662-dcdb5ac7d365"><path d="M497.807,98.66c-.263,0-.525-.104-.722-.308l-7.101-7.404c-.383-.399-.369-1.032,.029-1.414,.399-.382,1.031-.369,1.414,.029l7.101,7.404c.383,.398,.369,1.032-.029,1.414-.194,.186-.443,.278-.692,.278Z" fill="#232639"/></g><g id="uuid-552424c1-72c8-451c-aaa6-5863caade896"><path d="M428.115,81.33c.872-.012,1.589,.685,1.601,1.557,.012,.872-.685,1.589-1.557,1.601s-1.589-.685-1.601-1.557h0v-.019c-.007-.865,.69-1.572,1.555-1.579h.001v-.003Z" fill="#232639"/></g><g id="uuid-e38fc4a6-c8d8-4eee-a552-38c199de3271"><path d="M432.869,81.33c.872-.012,1.589,.685,1.601,1.557,.012,.872-.685,1.589-1.557,1.601s-1.589-.685-1.601-1.557h0v-.019c-.007-.865,.69-1.572,1.555-1.579h.001v-.003Z" fill="#232639"/></g><g id="uuid-b4887d94-4c66-48be-81be-3b431d681a31"><path d="M437.624,81.33c.872-.012,1.589,.685,1.601,1.557,.012,.872-.685,1.589-1.557,1.601s-1.589-.685-1.601-1.557h0v-.019c-.007-.865,.69-1.572,1.555-1.579h.001v-.003Z" fill="#232639"/></g><path d="M92.52,78.741V.516c0-.552-.448-1-1-1s-1,.448-1,1V78.733c.659-.128,1.342-.125,2,.008Z" fill="#fff"/><path d="M78.029,89.897H1.199c-.552,0-1,.448-1,1s.448,1,1,1H78.234c-.202-.645-.265-1.329-.205-2Z" fill="#fff"/><g id="uuid-f16f16de-6fe6-4ad4-9122-60c1ec4f4c6c"><path d="M155.379,26.994l-21.759,21.774-18.146,18.158-3.633,3.634-20.322,20.337V.517c23.964-.036,46.952,9.494,63.86,26.476" fill="#eee0fa"/></g><g id="uuid-eb9cc92d-ca02-410b-a456-5bfd4b4cf6b4"><path d="M78.176,90.896c.002,7.369,5.978,13.341,13.347,13.339,7.369-.002,13.341-5.978,13.339-13.347-.002-7.364-5.971-13.335-13.335-13.339h-.008c-7.37,.002-13.343,5.976-13.343,13.346h0Z" fill="#9b50d7"/></g><path d="M182.837,90.902v-.01c-.001-25.125-10.189-47.912-26.646-64.447-.035-.052-.057-.11-.103-.156-5.597-5.622-11.91-10.445-18.716-14.391-.212-.123-.422-.248-.635-.37-.206-.117-.413-.231-.619-.347C124.822,4.828,112.05,.804,98.454-.222c-2.259-.173-4.527-.261-6.8-.261h-.058c-.026,0-.051,0-.077,0C41.165-.484,.199,40.509,.199,90.896c0,14.995,3.629,29.157,10.053,41.656,.534-.385,1.155-.675,1.816-.842-6.305-12.242-9.869-26.118-9.869-40.813C2.199,41.946,41.728,2.068,90.52,1.529V30.354c-32.915,.538-59.529,27.481-59.529,60.542s26.615,60.004,59.529,60.542v28.813c-23.316-.258-44.519-9.486-60.301-24.41-.385,.537-.885,1.017-1.454,1.378,16.375,15.522,38.471,25.057,62.754,25.057h.001c50.351,0,91.314-40.99,91.318-91.374Zm-30.814-1.005c-.26-15.944-6.702-30.402-17.033-41.085l20.357-20.371c15.543,15.903,25.215,37.568,25.478,61.455h-28.802Zm-30.79,0c-.243-7.449-3.238-14.214-8.004-19.309l20.348-20.362c9.969,10.32,16.187,24.279,16.446,39.671h-28.79ZM92.855,1.533c1.234,.017,2.467,.058,3.697,.128,.2,.011,.398,.026,.598,.038,1.295,.082,2.589,.185,3.877,.324l.066,.008c12.567,1.365,24.746,5.431,35.618,11.799,.248,.146,.497,.292,.743,.44,.834,.499,1.655,1.019,2.473,1.545,5.041,3.266,9.731,7.027,14.007,11.212l-20.357,20.371c-10.675-10.338-25.124-16.783-41.057-17.044V1.529c.112,.001,.224,.003,.336,.004Zm39.308,47.278l-20.348,20.362c-5.091-4.762-11.849-7.758-19.295-8.01v-28.81c15.382,.26,29.331,6.482,39.643,16.458Zm-40.626,54.441h-.008c-6.808,0-12.348-5.536-12.353-12.357-.001-6.807,5.536-12.345,12.344-12.347h.009c3.296,0,6.396,1.283,8.728,3.612,2.334,2.331,3.622,5.432,3.624,8.731,.004,6.812-5.533,12.355-12.343,12.36Zm-.02-26.177h0v0Zm9.403,2.999c-2.286-1.985-5.198-3.255-8.401-3.475v-13.435c6.894,.246,13.155,3.019,17.883,7.423l-9.482,9.488Zm-10.401-3.475c-7.443,.518-13.345,6.725-13.343,14.311,.005,7.57,5.904,13.771,13.343,14.291v13.39c-7.027-.247-13.6-3.093-18.602-8.087-5.243-5.236-8.133-12.2-8.138-19.609h0c-.002-7.412,2.881-14.381,8.12-19.624,5-5.004,11.576-7.856,18.619-8.109v13.437Zm2,28.603c7.122-.49,12.818-6.187,13.311-13.306h13.403c-.527,14.49-12.217,26.176-26.713,26.694v-13.388Zm13.31-15.306c-.224-3.208-1.5-6.124-3.493-8.409l9.48-9.487c4.404,4.732,7.175,10.997,7.416,17.896h-13.404Zm-72.839,.999c0-31.959,25.718-58.004,57.529-58.542v28.81c-15.941,.534-28.745,13.664-28.739,29.733,.005,7.944,3.104,15.41,8.725,21.023,5.379,5.372,12.454,8.424,20.015,8.672v28.847c-31.812-.538-57.529-26.584-57.529-58.542Zm59.529,89.368v-28.816c10.333-.169,20.04-2.945,28.502-7.693-.536-.414-.965-.959-1.27-1.575-8.103,4.485-17.374,7.102-27.232,7.268v-28.857c15.599-.519,28.184-13.102,28.713-28.694h28.799c-.171,10.113-2.921,19.605-7.612,27.857,.633,.244,1.214,.611,1.682,1.086,4.891-8.567,7.758-18.43,7.931-28.942h28.793c-.535,48.491-39.848,87.831-88.305,88.367Z" fill="#fff"/><g id="uuid-41ea7f92-c4fa-4185-af3a-8c5193065cd8"><path d="M2.155,145.33c.041,9.099,7.45,16.442,16.549,16.401,9.099-.041,16.442-7.45,16.401-16.549s-7.45-16.442-16.549-16.401c-9.041,.041-16.36,7.36-16.401,16.401v.148" fill="#eee0fa"/></g><g id="uuid-5c2e4e73-8a4d-4dcc-91d5-3367357b8090"><path d="M18.809,162.991c-4.649,0-9.031-1.788-12.356-5.048-3.369-3.302-5.25-7.718-5.297-12.435v-.179c-.048-9.684,7.794-17.606,17.482-17.658,.059,0,.12,0,.178,0,9.656,0,17.56,7.806,17.658,17.483,.098,9.736-7.745,17.737-17.482,17.836-.061,0-.122,0-.183,0Zm.007-33.32c-.054,0-.078,.002-.164,0-8.587,.044-15.539,7.066-15.497,15.653v.154c.042,4.192,1.71,8.108,4.698,11.036s6.936,4.555,11.119,4.475c8.635-.087,15.589-7.183,15.502-15.816-.086-8.581-7.096-15.503-15.658-15.503Zm-.168-.999h0Z" fill="#fff"/></g><g id="uuid-29cbb7e9-033e-422c-9385-15929e1b6968"><path d="M117.106,133.005c.009,9.109,7.401,16.485,16.51,16.476,9.109-.009,16.485-7.401,16.476-16.51-.009-9.102-7.39-16.475-16.492-16.476-9.113,.003-16.497,7.393-16.494,16.506v.004Z" fill="#eee0fa"/></g><g id="uuid-12ef8b7d-8618-4b34-be6e-511a04a8de39"><path d="M133.617,150.515c-4.669,0-9.061-1.815-12.367-5.114-3.312-3.304-5.138-7.699-5.143-12.376-.003-4.694,1.814-9.09,5.117-12.397s7.697-5.131,12.371-5.134l.004,1v-1h.02c4.669,0,9.061,1.815,12.367,5.114,3.311,3.304,5.138,7.699,5.143,12.377,.005,4.677-1.811,9.076-5.115,12.388s-7.699,5.138-12.376,5.143h-.021Zm-.021-33.021c-4.139,.003-8.031,1.617-10.957,4.547-2.925,2.93-4.535,6.823-4.532,10.963,.005,4.162,1.623,8.056,4.556,10.981,2.928,2.922,6.818,4.53,10.954,4.53h.019c4.143-.005,8.036-1.622,10.963-4.556,2.926-2.933,4.535-6.829,4.53-10.973s-1.623-8.036-4.556-10.963c-2.929-2.922-6.818-4.53-10.954-4.53h-.023Z" fill="#fff"/></g><path d="M28.668,147.673l-1.572-1.992c-.19-.24-.479-.381-.785-.381h-2.569l2.284-1.323c.309-.179,.499-.509,.499-.865v-3.189c0-.553-.448-1-1-1s-1,.447-1,1v2.613l-.897,.519c-.038-.192-.112-.374-.252-.516l-1.896-1.92c.109-.313,.176-.64,.174-.971,.048-1.658-1.262-3.046-2.92-3.095-1.644,0-3.046,1.263-3.095,2.949v.113c0,.347,.067,.682,.177,1.001l-1.899,1.922c-.14,.141-.214,.325-.252,.517l-.899-.521v-2.613c0-.553-.448-1-1-1s-1,.447-1,1v3.189c0,.356,.19,.687,.499,.865l2.284,1.323h-2.566c-.306,0-.595,.141-.785,.381l-1.572,1.992c-.342,.434-.268,1.062,.166,1.404,.184,.145,.402,.215,.619,.215,.295,0,.588-.131,.786-.381l1.271-1.611h2.16v.351l-2.363,1.369c-.309,.179-.499,.509-.499,.865v3.189c0,.553,.448,1,1,1s1-.447,1-1v-2.613l.898-.52c.037,.194,.112,.379,.253,.522l2.009,2.033c.188,.189,.444,.297,.711,.297h4.021c.268,0,.524-.107,.712-.298l2.006-2.033c.14-.142,.215-.326,.252-.52l.896,.519v2.613c0,.553,.448,1,1,1s1-.447,1-1v-3.189c0-.356-.19-.687-.499-.865l-2.361-1.368v-.352h2.161l1.271,1.611c.197,.25,.49,.381,.786,.381,.217,0,.436-.07,.619-.215,.434-.342,.507-.971,.166-1.404Zm-9.992-9.119c.556,.016,.995,.48,.979,1.07,.001,.215-.08,.411-.2,.585h-1.615c-.12-.174-.201-.372-.201-.59v-.087c.016-.556,.468-1.044,1.037-.979Zm-3.047,10.795v-5.695l1.427-1.444h.591v8.584h-.591l-1.427-1.444Zm6.036,0l-1.424,1.443h-.594v-8.584h.592l1.426,1.443v5.697Z" fill="#232639"/><path d="M143.621,135.348l-1.572-1.992c-.19-.24-.479-.381-.785-.381h-2.573l2.284-1.323c.309-.179,.499-.509,.499-.865v-3.189c0-.553-.448-1-1-1s-1,.447-1,1v2.613l-.893,.517c-.038-.19-.112-.37-.251-.51l-1.898-1.922c.109-.316,.177-.645,.175-.982,.031-1.657-1.292-3.032-2.952-3.064-1.672-.021-3.033,1.293-3.064,3.042-.001,.349,.066,.687,.178,1.008l-1.894,1.918c-.139,.141-.214,.323-.251,.515l-.9-.521v-2.613c0-.553-.448-1-1-1s-1,.447-1,1v3.189c0,.356,.19,.687,.499,.865l2.284,1.323h-2.571c-.306,0-.595,.141-.785,.381l-1.572,1.992c-.342,.434-.268,1.062,.166,1.404,.184,.145,.402,.215,.619,.215,.295,0,.588-.131,.786-.381l1.272-1.611h2.166v.348l-2.365,1.37c-.309,.179-.499,.509-.499,.865v3.189c0,.553,.448,1,1,1s1-.447,1-1v-2.613l.898-.52c.036,.196,.112,.384,.254,.528l2.008,2.032c.188,.189,.444,.297,.711,.297h4.016c.267,0,.523-.107,.711-.297l2.008-2.032c.141-.143,.217-.329,.253-.523l.89,.516v2.613c0,.553,.448,1,1,1s1-.447,1-1v-3.189c0-.356-.19-.687-.499-.865l-2.356-1.364v-.353h2.16l1.272,1.611c.198,.25,.49,.381,.786,.381,.217,0,.436-.07,.619-.215,.434-.343,.507-.971,.166-1.404Zm-10.003-9.099c.557,.011,1,.472,.99,1.05,0,.216-.081,.413-.202,.588h-1.611c-.122-.177-.205-.383-.204-.649,.01-.556,.478-.987,1.026-.988Zm-3.031,10.778v-5.697l1.426-1.443h.587v8.584h-.587l-1.426-1.443Zm6.032,0l-1.426,1.443h-.593v-8.584h.593l1.426,1.443v5.697Z" fill="#232639"/></g></svg>
