<svg id="uuid-a5f948ee-e40a-45be-801b-f64998beb8df" xmlns="http://www.w3.org/2000/svg" xmlns:xlink="http://www.w3.org/1999/xlink" viewBox="0 0 612 214"><defs><clipPath id="uuid-9e32be7c-5370-43eb-b388-f701523661f5"><rect x="552.41" y="145.757" width="26.344" height="28.387" transform="translate(-5.255 19.906) rotate(-2.007)" fill="none"/></clipPath><clipPath id="uuid-7e6fc118-4bd0-4578-8782-aa836449aecc"><rect x="581.396" y="62.016" width="28.296" height="30.491" transform="translate(-2.34 20.904) rotate(-2.007)" fill="none"/></clipPath></defs><g id="uuid-7579177e-9027-47ad-8f75-6eb57a9ebabc"><g id="uuid-57dbc26f-5a9d-4c23-91ca-fb4d7c20bfc0"><circle id="uuid-bc9473c9-2fdb-4176-b6eb-99df91db5710" cx="406.303" cy="123.645" r="68.686" fill="#6ee0af"/><g id="uuid-bcf0426d-ceab-4a69-8694-246c4b2479f1"><g id="uuid-f73c2df6-2003-4e9f-a895-439f71397b94"><g id="uuid-3ced3a98-2e5a-49ea-b913-2404e1c647b8"><g id="uuid-603c521f-9601-4f89-978a-24a84cb63ff4"><g id="uuid-f991c75b-58b1-4641-a9b9-626d81e9891d"><g id="uuid-84291325-b7b9-47d4-aa79-d131b390f0e1"><g id="uuid-26c6e698-4b8e-4b81-baa7-b1e33fa83daf"><path id="uuid-733b3a3e-bed0-4fdd-bba8-dfa85bca4f29" d="M529.446,128.484h-179.734V1.659h179.734v126.825" fill="#fff" stroke="#232639" stroke-linecap="round" stroke-linejoin="round" stroke-width="2"/><line id="uuid-494b8da6-607e-4143-8eab-2f564ff81230" x1="349.712" y1="30.705" x2="529.447" y2="30.705" fill="none" stroke="#232639" stroke-linecap="round" stroke-linejoin="round" stroke-width="2"/><circle id="uuid-d2f1377e-e9c1-48a0-8da3-f5e9ee1eb06e" cx="364.743" cy="16.417" r="4.973" fill="#232639" stroke="#232639" stroke-miterlimit="10"/><circle id="uuid-361754f1-c6f8-4b68-8bfc-0207cbb40c4a" cx="379.664" cy="16.417" r="4.973" fill="#232639" stroke="#232639" stroke-miterlimit="10"/><circle id="uuid-d05b2cd9-9a32-40bf-94a2-9b3b3ff38c12" cx="394.585" cy="17.019" r="4.973" fill="#232639" stroke="#232639" stroke-miterlimit="10"/></g></g><g id="uuid-e7cf3fb6-ee41-4258-b190-bf4aa4664d6a"><path id="uuid-5f757e4e-1628-4ba1-9ece-ff798406fcee" d="M547.261,42.528l-12.832,82.283-60.859,78.064-60.813-78.064-10.452-82.283,71.265-21.653,73.691,21.653Z" fill="#fff" stroke="#232639" stroke-linecap="round" stroke-linejoin="round" stroke-width="2"/><g id="uuid-10256ac4-7e97-44ce-942e-b1ceee2681fd"><line id="uuid-de46e525-499c-4b00-a401-13ca04b5daae" x1="547.261" y1="42.528" x2="506.331" y2="69.631" fill="none" stroke="#232639" stroke-linecap="round" stroke-linejoin="round" stroke-width="2"/><line id="uuid-77594c52-90e6-41b6-8059-f623c078a77f" x1="509.307" y1="109.025" x2="534.43" y2="124.811" fill="none" stroke="#232639" stroke-linecap="round" stroke-linejoin="round" stroke-width="2"/><line id="uuid-4dd85355-7752-427c-9462-e5a711ef83e3" x1="402.305" y1="42.528" x2="440.88" y2="69.539" fill="none" stroke="#232639" stroke-linecap="round" stroke-linejoin="round" stroke-width="2"/><line id="uuid-7b26c826-387a-459c-975a-5d1b200156c1" x1="473.574" y1="130.909" x2="473.574" y2="202.874" fill="none" stroke="#232639" stroke-linecap="round" stroke-linejoin="round" stroke-width="2"/><line id="uuid-93a95a98-c3e5-4a54-9a50-9648d5be297b" x1="473.575" y1="20.872" x2="473.575" y2="52.721" fill="none" stroke="#232639" stroke-linecap="round" stroke-linejoin="round" stroke-width="2"/><path id="uuid-cd525553-0b8e-44cb-8073-b4d57906df0e" d="M547.261,42.528l-73.691-21.653-71.265,21.653,10.456,82.283,60.809,78.064,60.855-78.064,12.836-82.283Z" fill="none" stroke="#232639" stroke-linecap="round" stroke-linejoin="round" stroke-width="2"/><g id="uuid-34ad0ce4-c3a7-43cb-8d99-773a01877545"><ellipse id="uuid-2fad18f5-4d30-4ce3-b62a-a8ae3dc28904" cx="473.575" cy="91.815" rx="39.784" ry="39.094" fill="#dfecfc" stroke="#232639" stroke-linecap="round" stroke-linejoin="round" stroke-width="2"/></g></g></g></g></g><g id="uuid-1707f757-eaba-4e76-99fd-0e3d6490a79f"><g id="uuid-4176f4af-c356-48fb-a652-f049e24a2430"><g id="uuid-c7ccfd52-9a9b-465a-b00b-c1f910c785e3"><rect id="uuid-2da05582-e01a-40f4-a84e-9071020b7a44" x="2.09" y="92.363" width="20.255" height="20.255" fill="none" stroke="#6ee0af" stroke-linecap="round" stroke-miterlimit="10" stroke-width="2"/><rect id="uuid-047b321a-f8c9-4282-aa98-092e70903f09" x="94.308" y="180.969" width="72.911" height="31.766" fill="#fff" stroke="#232639" stroke-linecap="round" stroke-linejoin="round" stroke-width="2"/><rect id="uuid-63b81abb-c6af-4ed7-9eae-cb1b68e9ed33" x="75.584" y="17.054" width="110.357" height="42.469" fill="#fff" stroke="#232639" stroke-linecap="round" stroke-linejoin="round" stroke-width="2"/><g id="uuid-986b4fde-02af-43fa-a8aa-ceb91ab16642"><g id="uuid-626fedc3-eff7-4f12-a51e-933822ae1d37"><g id="uuid-56dacc63-9e75-47f2-8d08-d6dd6d7ed0a7"><path id="uuid-26e90779-0489-44c0-abe3-ddf28f8175d2" d="M122.583,38.81c-.11,4.343-3.721,7.775-8.064,7.665-4.343-.11-7.775-3.721-7.665-8.064,.11-4.343,3.721-7.775,8.064-7.665,4.343,.11,7.775,3.721,7.665,8.064h0Z" fill="#6ee0af" stroke="#232639" stroke-linecap="round" stroke-miterlimit="10" stroke-width="2"/><path id="uuid-d4dac498-873d-42d2-b942-b9cfa3b30352" d="M155.804,38.487c-.111,4.343-3.721,7.774-8.064,7.663-4.343-.111-7.774-3.721-7.663-8.064,.111-4.342,3.72-7.773,8.062-7.663,4.343,.11,7.775,3.719,7.665,8.062,0,0,0,.001,0,.002Z" fill="#6ee0af" stroke="#232639" stroke-linecap="round" stroke-miterlimit="10" stroke-width="2"/><rect id="uuid-7e322ac1-2302-4559-8ecc-3dd74002e1c5" x="75.584" y="17.054" width="110.357" height="42.469" fill="none" stroke="#6ee0af" stroke-linecap="round" stroke-miterlimit="10" stroke-width="2"/><line id="uuid-c3446eff-f4b2-4eec-bcd4-957f58773bf4" x1="94.307" y1="180.97" x2="167.218" y2="180.97" fill="none" stroke="#567635" stroke-linecap="round" stroke-linejoin="round" stroke-width="2"/><line id="uuid-6154202a-a134-4d8f-a78e-a131f890acce" x1="112.649" y1="59.522" x2="112.649" y2="82.819" fill="none" stroke="#6ee0af" stroke-linecap="round" stroke-miterlimit="10" stroke-width="2"/><line id="uuid-f94a133a-fc7d-4856-b5fb-0bdd2a2382c4" x1="146.377" y1="59.522" x2="146.377" y2="82.819" fill="none" stroke="#6ee0af" stroke-linecap="round" stroke-miterlimit="10" stroke-width="2"/><line id="uuid-f536442c-f4af-4ec2-bb96-c8cc9f0bd296" x1="191.736" y1="107.327" x2="226.665" y2="107.122" fill="none" stroke="#6ee0af" stroke-linecap="round" stroke-miterlimit="10" stroke-width="2"/><path id="uuid-af379416-e86b-4dff-936f-01034e7e285b" d="M2.09,159.182H22.35v16.588" fill="none" stroke="#6ee0af" stroke-linecap="round" stroke-miterlimit="10" stroke-width="2"/><line id="uuid-941ae3f7-0b05-4c89-9a2a-34f8e8f70459" x1="12.219" y1="112.619" x2="12.219" y2="171.399" fill="none" stroke="#6ee0af" stroke-linecap="round" stroke-miterlimit="10" stroke-width="2"/><rect id="uuid-76a8a7f7-c362-4189-9c56-20b1334f7820" x="227.449" y="95.919" width="22.648" height="21.389" fill="none" stroke="#6ee0af" stroke-miterlimit="10" stroke-width="2"/><line id="uuid-5cbbfeb5-9f64-4c4b-bef8-ed490ff33ce6" x1="2.09" y1="159.182" x2="2.09" y2="175.77" fill="none" stroke="#6ee0af" stroke-linecap="round" stroke-miterlimit="10" stroke-width="2"/><line id="uuid-f76b1a0c-1044-484e-87d3-4cd427f2891e" x1="75.584" y1="59.522" x2="60.677" y2="45.481" fill="none" stroke="#6ee0af" stroke-linecap="round" stroke-miterlimit="10" stroke-width="2"/><line id="uuid-c2a6e702-af89-4bdf-ae6f-8b6fab76c812" x1="69.468" y1="180.769" x2="55.407" y2="167.4" fill="none" stroke="#6ee0af" stroke-linecap="round" stroke-miterlimit="10" stroke-width="2"/><line id="uuid-00ff0834-d13c-439c-8734-cfdb72ccca67" x1="69.468" y1="82.917" x2="55.528" y2="69.793" fill="none" stroke="#6ee0af" stroke-linecap="round" stroke-miterlimit="10" stroke-width="2"/><line id="uuid-1979c36d-5a9e-45c9-a1e3-29b7abdf3101" x1="191.736" y1="82.917" x2="177.969" y2="69.793" fill="none" stroke="#6ee0af" stroke-linecap="round" stroke-miterlimit="10" stroke-width="2"/><line id="uuid-d4ee9c91-a72f-4714-aced-e283bd09762d" x1="75.584" y1="17.055" x2="60.604" y2="2.838" fill="none" stroke="#6ee0af" stroke-linecap="round" stroke-miterlimit="10" stroke-width="2"/><line id="uuid-b9692788-66f5-4567-97c8-f88604502f24" x1="185.942" y1="17.054" x2="170.631" y2="2.644" fill="none" stroke="#6ee0af" stroke-linecap="round" stroke-miterlimit="10" stroke-width="2"/><line id="uuid-428a38c2-e820-44db-a94b-1b700885ffd2" x1="60.605" y1="2.837" x2="170.632" y2="2.837" fill="none" stroke="#6ee0af" stroke-linecap="round" stroke-miterlimit="10" stroke-width="2"/><line id="uuid-e37520cc-df7c-4daf-b412-233dcc5823be" x1="60.605" y1="45.481" x2="60.605" y2="2.838" fill="none" stroke="#6ee0af" stroke-linecap="round" stroke-miterlimit="10" stroke-width="2"/><line id="uuid-2d83a44e-1c10-4bb8-acd9-c7a64bee04e8" x1="97.035" y1="69.792" x2="97.035" y2="59.522" fill="none" stroke="#6ee0af" stroke-linecap="round" stroke-miterlimit="10" stroke-width="2"/><line id="uuid-427d2509-87b3-4897-90e5-878bcf01da02" x1="112.649" y1="82.819" x2="97.035" y2="69.79" fill="none" stroke="#6ee0af" stroke-linecap="round" stroke-miterlimit="10" stroke-width="2"/><line id="uuid-0d06d86c-6745-4282-ad02-8aadcdbdc36d" x1="94.306" y1="212.736" x2="82.15" y2="201.27" fill="none" stroke="#6ee0af" stroke-linecap="round" stroke-miterlimit="10" stroke-width="2"/><rect id="uuid-c97df7d2-ba67-4f1a-a9eb-42413093ded5" x="69.469" y="82.916" width="122.268" height="97.956" fill="#fff" stroke="#232639" stroke-linecap="round" stroke-linejoin="round" stroke-width="2"/><rect id="uuid-b5b01b3b-323a-44de-bb35-dea6146c9854" x="69.469" y="82.916" width="122.268" height="97.956" fill="none" stroke="#6ee0af" stroke-linecap="round" stroke-miterlimit="10" stroke-width="2"/><line id="uuid-52121389-8b7b-4e9d-9998-ca1a545fde2c" x1="82.151" y1="201.27" x2="82.151" y2="180.704" fill="none" stroke="#6ee0af" stroke-linecap="round" stroke-miterlimit="10" stroke-width="2"/><line id="uuid-8613105f-ae8a-491a-b224-2ba744a3a5fb" x1="91.139" y1="113.92" x2="171.044" y2="113.92" fill="none" stroke="#232639" stroke-linecap="round" stroke-linejoin="round" stroke-width="2"/><line id="uuid-8cb2a9a9-007b-4a8b-8169-efff535b16a9" x1="90.97" y1="133.938" x2="90.97" y2="113.919" fill="none" stroke="#232639" stroke-linecap="round" stroke-linejoin="round" stroke-width="2"/><line id="uuid-07116c5b-0a66-49fc-833e-bd390c6a6849" x1="171.208" y1="133.938" x2="171.208" y2="113.919" fill="none" stroke="#232639" stroke-linecap="round" stroke-linejoin="round" stroke-width="2"/><line id="uuid-d98fb6b4-0f2a-4fd1-a1b7-6c32e310c80b" x1="191.735" y1="133.985" x2="171.209" y2="133.985" fill="none" stroke="#232639" stroke-linecap="round" stroke-linejoin="round" stroke-width="2"/><line id="uuid-e66fdc47-0f50-4152-a049-d9b99f5d4611" x1="91.096" y1="133.89" x2="69.526" y2="133.89" fill="none" stroke="#232639" stroke-linecap="round" stroke-linejoin="round" stroke-width="2"/><line id="uuid-49a17a68-eaff-4385-aec8-f99697efb58c" x1="97.035" y1="69.793" x2="55.53" y2="69.793" fill="none" stroke="#6ee0af" stroke-linecap="round" stroke-miterlimit="10" stroke-width="2"/><line id="uuid-b0c1447e-0c49-4091-abf6-0e4296f5f13b" x1="177.97" y1="69.793" x2="146.419" y2="69.793" fill="none" stroke="#6ee0af" stroke-linecap="round" stroke-miterlimit="10" stroke-width="2"/><line id="uuid-d8b588ed-4e80-4429-9f31-228b38f14b1b" x1="55.529" y1="69.793" x2="55.529" y2="167.584" fill="none" stroke="#6ee0af" stroke-linecap="round" stroke-miterlimit="10" stroke-width="2"/><line id="uuid-10536908-1319-488e-a3c0-1721715ca9b5" x1="22.342" y1="102.018" x2="55.558" y2="102.018" fill="none" stroke="#6ee0af" stroke-linecap="round" stroke-miterlimit="10" stroke-width="2"/><rect id="uuid-b80da837-fe8a-4103-9212-1341af16a210" x="94.306" y="180.969" width="72.911" height="31.766" fill="none" stroke="#232639" stroke-linecap="round" stroke-linejoin="round" stroke-width="2"/></g></g></g></g></g></g></g></g><g id="uuid-223f7fb3-8ecb-4e6d-9b92-a0b972cc21fb"><line id="uuid-ce843e7d-9b90-47e8-9ba3-624fe876f086" x1="492.641" y1="80.268" x2="469.302" y2="105.403" fill="none" stroke="#232639" stroke-linecap="round" stroke-linejoin="round" stroke-width="2"/><line id="uuid-d468e8ca-2924-46b9-8965-4d715218184e" x1="456.925" y1="92.466" x2="469.304" y2="105.403" fill="none" stroke="#232639" stroke-linecap="round" stroke-linejoin="round" stroke-width="2"/></g></g><path id="uuid-64f26559-3c5d-4f19-902e-2221b41c88d4" d="M311.735,97.049h16.588" fill="none" stroke="#6ee0af" stroke-linecap="round" stroke-miterlimit="10" stroke-width="2"/><line id="uuid-107b9507-6d2e-46ae-bb34-881383c74105" x1="250.136" y1="107.179" x2="325.188" y2="107.179" fill="none" stroke="#6ee0af" stroke-linecap="round" stroke-miterlimit="10" stroke-width="2"/><line id="uuid-2c58580e-96ad-43a1-bf2d-c02b7c8ae67a" x1="311.735" y1="117.308" x2="328.323" y2="117.308" fill="none" stroke="#6ee0af" stroke-linecap="round" stroke-miterlimit="10" stroke-width="2"/><line id="uuid-780a8899-a2cb-4006-9a3b-1574d4cae013" x1="311.735" y1="97.049" x2="311.735" y2="117.308" fill="none" stroke="#6ee0af" stroke-miterlimit="10" stroke-width="2"/></g><g id="uuid-59bf22fc-6197-4a78-a847-e82646008740"><path id="uuid-fc1251e8-a48b-455b-933f-0bc268e4f592" d="M574.558,157.837l-1.116,5.94-3.558,2.4-9.623-1.809-2.442-3.53,1.116-5.941,3.559-2.4,9.621,1.808,2.443,3.532Z" fill="none" stroke="#6ee0af" stroke-linecap="round" stroke-linejoin="round" stroke-width="1.999"/><g id="uuid-c2e5eace-1fc5-4d51-a6ee-b68cea7524ab"><g id="uuid-2713755e-a69e-49e9-81a9-d5cf505ea064"><g clip-path="url(#uuid-9e32be7c-5370-43eb-b388-f701523661f5)"><g id="uuid-c59cd515-41c3-44c9-8a68-5ae8b7cd4dc0"><g id="uuid-77c05acf-8793-4243-8187-2a20a10f2160"><path id="uuid-8aac5718-33d8-426e-a700-2582a21c1e25" d="M558.549,155.723c-.462-.66-1.164-1.113-1.956-1.261-1.633-.338-3.23,.712-3.568,2.345-.338,1.633,.712,3.23,2.345,3.568l.111,.021c.791,.15,1.608-.016,2.278-.462" fill="none" stroke="#6ee0af" stroke-linecap="round" stroke-linejoin="round" stroke-width="1.999"/><path id="uuid-d82c77d4-a390-4b3f-a886-59e3a2606ba0" d="M558.389,147.352l4.706,.885,1.589,4.5" fill="none" stroke="#6ee0af" stroke-linecap="round" stroke-linejoin="round" stroke-width="1.999"/><path id="uuid-72278f27-75dc-4851-a85b-943c0202a79f" d="M577.802,151.002l-4.706-.886-3.118,3.622" fill="none" stroke="#6ee0af" stroke-linecap="round" stroke-linejoin="round" stroke-width="1.999"/><path id="uuid-28e12900-50fe-4054-bfbf-e52723a8f9df" d="M571.399,146.191l-3.378,1.768-.983,5.227" fill="none" stroke="#6ee0af" stroke-linecap="round" stroke-linejoin="round" stroke-width="1.999"/><path id="uuid-52989507-476a-4fcd-8dfb-8be6697ca13b" d="M554.57,167.675l4.706,.886,3.118-3.622" fill="none" stroke="#6ee0af" stroke-linecap="round" stroke-linejoin="round" stroke-width="1.999"/><path id="uuid-f36c9552-8ec1-40b0-a979-fd2e5d5dac25" d="M573.98,171.33l-4.711-.885-1.589-4.506" fill="none" stroke="#6ee0af" stroke-linecap="round" stroke-linejoin="round" stroke-width="1.999"/><path id="uuid-601fc640-4ca0-439f-a916-5bc6867ef1a5" d="M566.27,173.483l-2.5-2.876,.979-5.226" fill="none" stroke="#6ee0af" stroke-linecap="round" stroke-linejoin="round" stroke-width="1.999"/><line id="uuid-abf6363e-4ba8-4a61-b337-a1a797ca7b1c" x1="558.677" y1="157.928" x2="573.704" y2="160.753" fill="none" stroke="#6ee0af" stroke-linecap="round" stroke-linejoin="round" stroke-width="1.999"/></g></g></g></g></g></g><g id="uuid-46d66338-3451-447e-a5a1-f7e7fffd6ac0"><path id="uuid-7b8224ee-9b54-4a7c-a240-6da380a5172c" d="M605.186,74.988l-1.2,6.377-3.822,2.582-10.335-1.944-2.624-3.792,1.2-6.375,3.823-2.581,10.334,1.944,2.624,3.789Z" fill="none" stroke="#6ee0af" stroke-linecap="round" stroke-linejoin="round" stroke-width="1.999"/><g id="uuid-20959de6-6a1e-49b1-8650-bcefcabd6bb4"><g id="uuid-82276f31-6ff5-4d61-a03a-7ac7be9ea6e9"><g clip-path="url(#uuid-7e6fc118-4bd0-4578-8782-aa836449aecc)"><g id="uuid-46def34e-34af-488a-920f-05dc8b8db9ad"><g id="uuid-e391974f-01fa-413f-9535-4bc6724b51bd"><path id="uuid-924186ef-6457-40d1-afe5-6b99634705e5" d="M587.99,72.72c-.496-.708-1.25-1.193-2.1-1.351-1.762-.32-3.449,.849-3.769,2.611-.309,1.7,.77,3.343,2.453,3.736,.039,.009,.078,.017,.118,.022,.85,.16,1.728-.019,2.447-.5" fill="none" stroke="#6ee0af" stroke-linecap="round" stroke-linejoin="round" stroke-width="1.999"/><path id="uuid-452b7f23-6d7f-418d-bdae-e50b3e91e7ba" d="M587.818,63.728l5.056,.949,1.707,4.841" fill="none" stroke="#6ee0af" stroke-linecap="round" stroke-linejoin="round" stroke-width="1.999"/><path id="uuid-a950baad-22fe-48b0-8e69-9b8010869233" d="M608.67,67.65l-5.055-.951-3.349,3.89" fill="none" stroke="#6ee0af" stroke-linecap="round" stroke-linejoin="round" stroke-width="1.999"/><path id="uuid-1890cf2b-3051-46eb-bd5c-0577818ef7af" d="M601.793,62.482l-3.628,1.9-1.056,5.613" fill="none" stroke="#6ee0af" stroke-linecap="round" stroke-linejoin="round" stroke-width="1.999"/><path id="uuid-ad178dcc-7426-4ff8-a9ac-1b4c82b166fa" d="M583.712,85.563l5.06,.951,3.348-3.89" fill="none" stroke="#6ee0af" stroke-linecap="round" stroke-linejoin="round" stroke-width="1.999"/><path id="uuid-defb37c2-66a9-457a-b7e9-3f345995d47b" d="M604.57,89.485l-5.055-.951-1.707-4.842" fill="none" stroke="#6ee0af" stroke-linecap="round" stroke-linejoin="round" stroke-width="1.999"/><path id="uuid-f8bc35ba-5b41-4675-b662-197d583117b1" d="M596.279,91.796l-2.689-3.088,1.055-5.614" fill="none" stroke="#6ee0af" stroke-linecap="round" stroke-linejoin="round" stroke-width="1.999"/><line id="uuid-26f6e2af-fcca-4f5b-8086-114c50ec1741" x1="588.128" y1="75.088" x2="604.269" y2="78.123" fill="none" stroke="#6ee0af" stroke-linecap="round" stroke-linejoin="round" stroke-width="1.999"/></g></g></g></g></g></g></g></svg>
