<svg xmlns="http://www.w3.org/2000/svg" viewBox="0 0 97 37.8"><path d="M19.05,20.25,14.212,34.312a16.4,16.4,0,0,0,4.538.638,15.554,15.554,0,0,0,5.325-.9v-.225ZM2.662,18.9a16.163,16.163,0,0,0,9.076,14.475l-7.5-21.038A15.842,15.842,0,0,0,2.662,18.9Z" fill="#21759c"/><path d="M29.625,18.075a8.129,8.129,0,0,0-1.35-4.425A7.508,7.508,0,0,1,26.7,9.9a2.775,2.775,0,0,1,2.7-2.85h.227a16.12,16.12,0,0,0-24.3,3.038H10.65a.675.675,0,0,1,0,1.312H8.813l5.85,17.438,3.524-10.575L15.75,11.325H14.062c-.862,0-.75-1.35,0-1.312h8.513a.675.675,0,1,1,0,1.312H20.737L26.55,28.613l1.612-5.325A14.99,14.99,0,0,0,29.625,18.075Zm3.225-6.9a11.082,11.082,0,0,1,0,1.65,15.366,15.366,0,0,1-1.2,5.737l-4.8,14.213A16.048,16.048,0,0,0,34.837,18.9,15.779,15.779,0,0,0,32.85,11.175Z" fill="#21759c"/><path d="M18.75.15A18.75,18.75,0,1,0,37.5,18.9,18.75,18.75,0,0,0,18.75.15Zm0,36.638A17.925,17.925,0,1,1,36.638,18.825V18.9A17.927,17.927,0,0,1,18.75,36.788Z" fill="#21759c"/><path d="M60.066,36.656a.78.78,0,0,0,.747,1.094c16.725.05,29.268-16.159,20.06-34.6L79.479.411a.8.8,0,0,0-1.394,0Z" fill="#65bc7b"/><path d="M89.285,20a.8.8,0,0,0-1.394,0L83.71,28.105A6.55,6.55,0,0,0,89.683,37.8H97" fill="#65bc7b"/><polyline points="54.963 17.962 50.238 17.962 50.238 13.275 48.363 13.275 48.363 17.963 43.675 17.963 43.675 19.838 48.363 19.838 48.363 24.525 50.238 24.525 50.238 19.837 54.963 19.837 54.963 17.962" fill="#65bc7b"/></svg>