<svg id="b6de7ec7-36c5-49d2-96d6-843533f8ddb1" data-name="ec226eca-1def-4fa4-a515-d23dffe2f936" xmlns="http://www.w3.org/2000/svg" viewBox="0 0 599.868 76.748"><rect width="599.868" height="76.748" fill="#fff" opacity="0"/><path d="M20.675,36.724c2.1,3.909,5.805,9.87,8.413,11.793s5.446,3.321-.566.781-10.4-9.741-13.306-15.2c-2.24-4.19-4.163-8.013-8.34-10.847s.488-.845.488-.845c7.626,3.724,10.39,8.867,13.311,14.314m-8.017,12.3c8.317,6.476,16.21,3.734,19.816,3.357l6.489,6.449h2.392l-7.447-7.405C33.849,46.98,44.1,18.237,0,18.237,4.8,34.8,4.342,42.542,12.658,49.023" fill="#7bc049"/><path d="M52.229,17.708h29.4v2.834H55.3V36.779H78.971v2.833H55.3V56.2H81.923v2.832H52.229Z" fill="#231f20"/><path d="M94.145,17.708h2.893l28.513,35.951V17.708H128.5V59.031h-2.3L97.1,22.314V59.031H94.145Z" fill="#231f20"/><path d="M139.6,17.708h3.426L159.2,55.729l16.235-38.021h3.247L160.5,59.326h-2.71Z" fill="#231f20"/><rect x="190.199" y="17.708" width="3.072" height="41.323" fill="#231f20"/><path d="M225.326,39.139a17.082,17.082,0,0,0,4.816-.649,11.693,11.693,0,0,0,3.8-1.858,8.9,8.9,0,0,0,2.512-2.953,8.412,8.412,0,0,0,.915-3.984v-.119a7.937,7.937,0,0,0-3.1-6.615q-3.1-2.421-8.766-2.419H211.394v18.6Zm-17-21.431H225.68a19.608,19.608,0,0,1,6.794,1.09,13.272,13.272,0,0,1,4.838,2.985,10.671,10.671,0,0,1,2.3,3.45,10.922,10.922,0,0,1,.823,4.223v.12a11.207,11.207,0,0,1-.915,4.636,10.452,10.452,0,0,1-2.539,3.51,13.058,13.058,0,0,1-3.836,2.391,19.217,19.217,0,0,1-4.811,1.27l13.638,17.648h-3.9L224.917,41.912H211.394V59.031h-3.068Z" fill="#231f20"/><path d="M281.354,44.69,270.5,20.776,259.57,44.69ZM269.077,17.415h2.949l19.249,41.616h-3.366l-5.253-11.572H258.273l-5.257,11.572h-3.188Z" fill="#231f20"/><path d="M321.15,59.748a23.146,23.146,0,0,1-8.8-1.626,19.762,19.762,0,0,1-11.1-11.215,22.66,22.66,0,0,1-1.536-8.417v-.12a21.9,21.9,0,0,1,1.564-8.2,20.765,20.765,0,0,1,11.16-11.454A21.258,21.258,0,0,1,321.03,17a29.4,29.4,0,0,1,4.931.381,22.893,22.893,0,0,1,4.1,1.1,20.96,20.96,0,0,1,3.57,1.739,25.649,25.649,0,0,1,3.275,2.391l-4.6,5.492a27.363,27.363,0,0,0-2.429-1.831,14.931,14.931,0,0,0-2.594-1.388A15.839,15.839,0,0,0,324.306,24a18.272,18.272,0,0,0-3.57-.328,11.973,11.973,0,0,0-5.281,1.183,13.625,13.625,0,0,0-4.249,3.16,14.46,14.46,0,0,0-2.834,4.632,15.149,15.149,0,0,0-1.039,5.611v.115a17.065,17.065,0,0,0,1,5.9A13.251,13.251,0,0,0,315.62,52a14.22,14.22,0,0,0,5.76,1.123,17.349,17.349,0,0,0,5.519-.846A15.572,15.572,0,0,0,331.361,50V42.27h-10.57V35.951h17.6V53.31A32.172,32.172,0,0,1,335,55.793a25.67,25.67,0,0,1-13.845,3.955Z" fill="#231f20"/><path d="M375.232,42.625l-7.148-16.531L361,42.625Zm-10.4-25.21h6.734l18.178,41.616h-7.673l-4.194-9.971H358.343l-4.25,9.971h-7.434Z" fill="#231f20"/><path d="M399.2,17.708h7.258V52.427h21.729v6.6H399.2Z" fill="#231f20"/><path d="M438.1,17.708h7.267V52.427H467.1v6.6h-29Z" fill="#231f20"/><path d="M477.012,17.708h30.634V24.2H484.271V34.948H505v6.5H484.271V52.537h23.668v6.494H477.012Z" fill="#231f20"/><path d="M536.816,38.2a9.59,9.59,0,0,0,6.2-1.859,6.148,6.148,0,0,0,2.3-5.05v-.12a6.067,6.067,0,0,0-2.245-5.106,10.115,10.115,0,0,0-6.32-1.738h-10.56V38.2ZM518.925,17.708h18.416a20.311,20.311,0,0,1,6.918,1.09,13.916,13.916,0,0,1,5.013,3.041,11.952,11.952,0,0,1,2.54,3.956,13.488,13.488,0,0,1,.892,4.963v.114a13.451,13.451,0,0,1-.746,4.577,11.9,11.9,0,0,1-2.032,3.6,12.218,12.218,0,0,1-3.1,2.658,15.383,15.383,0,0,1-3.983,1.68l11.149,15.642h-8.554l-10.157-14.4h-9.089v14.4h-7.266Z" fill="#231f20"/><path d="M576.134,42.739,559.723,17.708h8.564l11.573,18.3,11.682-18.3h8.326L583.457,42.565V59.031h-7.323Z" fill="#231f20"/></svg>