<svg xmlns="http://www.w3.org/2000/svg" viewBox="0 0 98 18"><path d="m7.163,15.337H0V2.487h7.163v1.327H1.494v4.14h5.326v1.318H1.494v4.729h5.669v1.336Zm6.478.176c-1.395,0-2.474-.429-3.239-1.287s-1.147-2.073-1.147-3.644c0-1.611.388-2.856,1.165-3.735s1.882-1.318,3.318-1.318c.463,0,.926.05,1.389.149s.826.217,1.09.352l-.448,1.239c-.322-.129-.674-.235-1.055-.32s-.718-.128-1.011-.128c-1.957,0-2.936,1.248-2.936,3.744,0,1.184.239,2.092.716,2.725s1.185.949,2.123.949c.803,0,1.626-.173,2.47-.519v1.292c-.645.334-1.456.501-2.435.501Zm13.034-5.001c0,1.57-.396,2.797-1.187,3.679s-1.884,1.322-3.278,1.322c-.861,0-1.626-.202-2.294-.606s-1.184-.984-1.547-1.74-.545-1.641-.545-2.654c0-1.57.393-2.793,1.178-3.669s1.875-1.314,3.27-1.314c1.348,0,2.418.448,3.212,1.345s1.191,2.109,1.191,3.639Zm-7.339,0c0,1.23.246,2.168.738,2.812s1.216.967,2.171.967,1.68-.321,2.176-.962c.494-.643.742-1.581.742-2.817,0-1.225-.248-2.154-.742-2.79-.496-.636-1.227-.954-2.193-.954-.955,0-1.676.313-2.162.94s-.729,1.562-.729,2.804Zm22.175,4.825v-6.267c0-.768-.164-1.343-.492-1.728-.328-.383-.838-.575-1.529-.575-.908,0-1.579.261-2.013.782s-.65,1.324-.65,2.408v5.379h-1.459v-6.267c0-.768-.164-1.343-.492-1.728-.328-.383-.841-.575-1.538-.575-.914,0-1.584.274-2.009.821-.425.549-.637,1.446-.637,2.694v5.054h-1.459V5.704h1.187l.237,1.318h.07c.275-.469.664-.835,1.164-1.099.502-.264,1.062-.396,1.684-.396,1.506,0,2.49.545,2.953,1.635h.07c.287-.504.703-.902,1.248-1.195s1.166-.439,1.863-.439c1.09,0,1.905.28,2.447.84s.813,1.454.813,2.685v6.284h-1.459Zm16.743,0v-6.267c0-.768-.164-1.343-.492-1.728-.328-.383-.838-.575-1.529-.575-.908,0-1.579.261-2.013.782s-.65,1.324-.65,2.408v5.379h-1.459v-6.267c0-.768-.164-1.343-.492-1.728-.328-.383-.841-.575-1.538-.575-.914,0-1.584.274-2.009.821-.425.549-.637,1.446-.637,2.694v5.054h-1.459V5.704h1.187l.237,1.318h.07c.275-.469.664-.835,1.164-1.099.502-.264,1.062-.396,1.684-.396,1.506,0,2.49.545,2.953,1.635h.07c.287-.504.703-.902,1.248-1.195s1.166-.439,1.863-.439c1.09,0,1.905.28,2.447.84s.813,1.454.813,2.685v6.284h-1.459Zm8.534.176c-1.424,0-2.548-.434-3.37-1.301-.824-.867-1.235-2.071-1.235-3.612,0-1.553.382-2.786,1.147-3.7.764-.914,1.791-1.371,3.08-1.371,1.207,0,2.162.397,2.865,1.191s1.055,1.841,1.055,3.142v.923h-6.636c.029,1.131.314,1.989.856,2.575s1.306.879,2.29.879c1.037,0,2.062-.217,3.076-.65v1.301c-.516.223-1.004.382-1.464.479-.46.096-1.015.145-1.665.145Zm-.396-8.763c-.773,0-1.391.252-1.85.756-.461.504-.731,1.201-.813,2.092h5.036c0-.92-.205-1.624-.615-2.114-.41-.488-.996-.733-1.758-.733Zm10.819-1.222c.428,0,.812.035,1.151.105l-.202,1.354c-.398-.088-.75-.132-1.055-.132-.779,0-1.445.316-2,.949-.553.633-.83,1.421-.83,2.364v5.168h-1.459V5.704h1.204l.167,1.784h.07c.357-.627.788-1.11,1.292-1.45s1.058-.51,1.661-.51Zm6.803,9.984c-1.395,0-2.475-.429-3.238-1.287-.766-.858-1.147-2.073-1.147-3.644,0-1.611.388-2.856,1.165-3.735.775-.879,1.882-1.318,3.317-1.318.463,0,.926.05,1.389.149s.826.217,1.09.352l-.448,1.239c-.322-.129-.674-.235-1.055-.32s-.718-.128-1.011-.128c-1.957,0-2.936,1.248-2.936,3.744,0,1.184.238,2.092.716,2.725s1.186.949,2.123.949c.803,0,1.626-.173,2.47-.519v1.292c-.645.334-1.456.501-2.435.501Zm8.789,0c-1.424,0-2.548-.434-3.37-1.301-.824-.867-1.235-2.071-1.235-3.612,0-1.553.382-2.786,1.147-3.7.764-.914,1.791-1.371,3.08-1.371,1.207,0,2.162.397,2.865,1.191s1.055,1.841,1.055,3.142v.923h-6.636c.029,1.131.314,1.989.856,2.575s1.306.879,2.29.879c1.037,0,2.062-.217,3.076-.65v1.301c-.516.223-1.004.382-1.464.479-.46.096-1.015.145-1.665.145Zm-.396-8.763c-.773,0-1.391.252-1.85.756-.461.504-.731,1.201-.813,2.092h5.036c0-.92-.205-1.624-.615-2.114-.41-.488-.996-.733-1.758-.733Z" fill="#98e5b9"/></svg>