<svg id="uuid-469dd9b7-85c9-4d26-a8e9-d2b4273c1e7e" xmlns="http://www.w3.org/2000/svg" viewBox="0 0 95.997 96"><polygon points="56.347 92.067 39.684 75.818 75.471 39.274 92.723 56.182 56.347 92.067" fill="#8ab4f8" stroke-width="0"/><path d="m56.418,20.227L39.815,3.274,3.51,39.235c-4.68,4.68-4.68,12.267,0,16.952l35.759,35.994,16.909-15.818-27.245-28.652,27.485-27.485Z" fill="#4285f4" stroke-width="0"/><path d="m92.483,39.514L56.484,3.514c-4.685-4.685-12.283-4.685-16.969,0s-4.685,12.283,0,16.969l35.999,35.999c4.685,4.685,12.283,4.685,16.969,0,4.685-4.685,4.685-12.283,0-16.969Z" fill="#8ab4f8" stroke-width="0"/><circle cx="47.724" cy="84.273" r="11.727" fill="#246fdb" stroke-width="0"/></svg>
