<svg id="b9de1730-cdeb-4044-9c91-f55669f03ce2" data-name="Layer 1" xmlns="http://www.w3.org/2000/svg" width="122.357" height="137.354" viewBox="0 0 122.357 137.354"><g id="b0865f0d-11e6-43f2-9e2e-8234f5fa9a17" data-name="Layer 3"><path d="M26.7,47.4h9.15a18.159,18.159,0,0,1,4.72.47,8.256,8.256,0,0,1,3.74,2.29,10.723,10.723,0,0,1,2.37,4.02,18.351,18.351,0,0,1,.81,5.87,16.262,16.262,0,0,1-.76,5.28,10.852,10.852,0,0,1-2.66,4.38,8.71,8.71,0,0,1-3.52,1.98,15.16,15.16,0,0,1-4.43.52H26.7Zm5,4.2V68h3.75a13.642,13.642,0,0,0,3.04-.24,4.708,4.708,0,0,0,2.03-1.03,5.1,5.1,0,0,0,1.31-2.39,16.446,16.446,0,0,0,.51-4.54,14.712,14.712,0,0,0-.51-4.41,5.678,5.678,0,0,0-1.42-2.4,4.915,4.915,0,0,0-2.32-1.17,22.547,22.547,0,0,0-4.12-.24H31.7Z" fill="#fff"/><path d="M26.017,46.717v26.17h10.1a15.859,15.859,0,0,0,4.64-.56,9.443,9.443,0,0,0,3.79-2.14,11.663,11.663,0,0,0,2.82-4.65,17.018,17.018,0,0,0,.8-5.5,19.079,19.079,0,0,0-.85-6.08,11.577,11.577,0,0,0-2.52-4.27,9.016,9.016,0,0,0-4.04-2.47,18.214,18.214,0,0,0-4.91-.5Zm9.83,1.35a17.124,17.124,0,0,1,4.53.45,7.669,7.669,0,0,1,3.44,2.1,10.241,10.241,0,0,1,2.22,3.77,17.9,17.9,0,0,1,.78,5.65,15.739,15.739,0,0,1-.72,5.06,10.274,10.274,0,0,1-2.49,4.12,8.164,8.164,0,0,1-3.25,1.82,14.45,14.45,0,0,1-4.23.49h-8.75V48.067Z" fill="#fff"/><path d="M31.027,50.917v17.76h4.43a13.706,13.706,0,0,0,3.2-.26,5.338,5.338,0,0,0,2.31-1.18,5.794,5.794,0,0,0,1.51-2.7,16.6,16.6,0,0,0,.54-4.73,15.359,15.359,0,0,0-.54-4.62,6.312,6.312,0,0,0-1.6-2.68,5.382,5.382,0,0,0-2.65-1.33,23.084,23.084,0,0,0-4.27-.25h-2.93Zm2.93,1.36a21.28,21.28,0,0,1,3.97.22,4.156,4.156,0,0,1,2.01,1,5.165,5.165,0,0,1,1.25,2.12,14.373,14.373,0,0,1,.47,4.2,15.465,15.465,0,0,1-.48,4.34,4.6,4.6,0,0,1-1.12,2.08,4.036,4.036,0,0,1-1.74.88,13.416,13.416,0,0,1-2.87.22h-3.07V52.3C33.047,52.277,33.957,52.277,33.957,52.277Z" fill="#fff"/><path d="M53.157,72.207V47.4h18.37v4.21H58.157v5.5h12.43v4.21H58.157v6.7H72v4.21H53.157Z" fill="#fff"/><path d="M52.477,46.717v26.17h20.2v-5.56H58.837v-5.34h12.43v-5.56H58.837v-4.14h13.37v-5.56H52.477Zm18.37,1.35v2.85H57.477v6.85h12.43v2.85H57.477v8.06h13.84v2.85H53.827V48.067Z" fill="#fff"/><path d="M100.027,72.207h-5.45l-2.17-5.63H82.5l-2.05,5.63h-5.32l9.64-24.82H90.1Zm-9.23-9.84-3.42-9.19-3.35,9.19Z" fill="#fff"/><path d="M84.3,46.717l-10.17,26.17h6.78s1.78-4.88,2.05-5.63h8.97c.28.74,2.17,5.63,2.17,5.63h6.92l-10.46-26.17Zm5.34,1.35c.32.79,8.7,21.77,9.38,23.46h-3.98c-.28-.74-2.17-5.63-2.17-5.63H82.017s-1.78,4.88-2.05,5.63h-3.85c.65-1.68,8.8-22.66,9.12-23.46Z" fill="#fff"/><path d="M83.057,63.047h8.72l-4.4-11.83Zm4.33-7.91c.74,2,2,5.38,2.44,6.55H85C85.417,60.527,86.657,57.147,87.387,55.137Z" fill="#fff"/><path d="M104.207,72.207V47.6h5v20.41h12.47v4.21h-17.47Z" fill="#fff"/><path d="M103.527,46.917v25.97h18.83v-5.56h-12.47V46.917Zm5.01,1.36v20.41h12.47v2.85H104.9V48.277Z" fill="#fff"/></g><path d="M49.466,32.326H88.211c20.8,0,28.632,10.53,27.422,26.024C113.639,83.894,98.2,98.018,77.711,98.018H67.369c-2.807,0-4.7,1.856-5.46,6.9L57.472,134.2c-.288,1.9-1.289,3.019-2.792,3.154H30.386c-2.286,0-3.1-1.749-2.5-5.537L42.721,37.883C43.315,34.119,45.375,32.326,49.466,32.326Z" fill="#009de2" fill-rule="evenodd"/><path d="M25.244,0H64.027C74.95,0,87.905.355,96.572,8c5.789,5.106,8.827,13.241,8.126,21.974-2.379,29.614-20.092,46.2-43.847,46.2H41.724c-3.256,0-5.414,2.157-6.332,8l-5.338,33.954c-.346,2.2-1.3,3.5-3.044,3.658H3.12c-2.651,0-3.594-2.028-2.9-6.42L17.423,6.443C18.112,2.078,20.5,0,25.244,0Z" fill="#113984" fill-rule="evenodd"/><path d="M35.948,80.75l6.773-42.867c.594-3.765,2.654-5.557,6.745-5.557H88.211c6.414,0,11.6,1,15.656,2.847-3.893,26.355-20.939,41-43.262,41H41.477C38.959,76.173,37.078,77.459,35.948,80.75Z" fill="#172c70" fill-rule="evenodd"/></svg>