<svg xmlns="http://www.w3.org/2000/svg" viewBox="0 0 134 18"><rect width="134" height="18" opacity="0"/><path d="m7.162,13.676H0V.826h7.162v1.327H1.494v4.14h5.325v1.318H1.494v4.729h5.668v1.336Zm14.904,0v-6.267c0-.768-.164-1.343-.492-1.728-.328-.383-.838-.575-1.529-.575-.908,0-1.579.261-2.012.782s-.65,1.324-.65,2.408v5.379h-1.459v-6.267c0-.768-.164-1.343-.492-1.728-.328-.383-.841-.575-1.538-.575-.914,0-1.584.274-2.008.821-.425.549-.637,1.446-.637,2.694v5.054h-1.459V4.043h1.186l.237,1.318h.07c.275-.469.663-.835,1.164-1.099s1.062-.396,1.683-.396c1.506,0,2.49.545,2.953,1.635h.07c.287-.504.703-.902,1.248-1.195s1.166-.439,1.863-.439c1.09,0,1.905.28,2.447.84s.813,1.454.813,2.685v6.284h-1.459Zm10.387,0l-.29-1.371h-.07c-.48.604-.96,1.013-1.437,1.227-.477.213-1.073.32-1.788.32-.955,0-1.704-.246-2.246-.738s-.812-1.192-.812-2.101c0-1.945,1.555-2.965,4.666-3.059l1.635-.053v-.598c0-.756-.163-1.313-.488-1.675-.325-.359-.845-.54-1.559-.54-.803,0-1.711.246-2.724.738l-.448-1.116c.475-.258.994-.46,1.559-.606s1.133-.22,1.701-.22c1.148,0,1.999.255,2.552.765s.831,1.327.831,2.452v6.574h-1.081Zm-3.295-1.028c.908,0,1.621-.249,2.139-.747s.778-1.195.778-2.092v-.87l-1.459.062c-1.16.041-1.997.222-2.509.541s-.768.815-.768,1.489c0,.527.159.929.478,1.204s.766.413,1.341.413Zm7.259-11.215c0-.334.082-.578.246-.733s.369-.233.615-.233c.234,0,.436.079.606.237s.255.401.255.729-.085.573-.255.733c-.17.162-.372.242-.606.242-.246,0-.451-.08-.615-.242-.164-.16-.246-.405-.246-.733Zm1.582,12.243h-1.459V4.043h1.459v9.633Zm4.552,0h-1.459V0h1.459v13.676Zm13.674,0l-4.359-11.391h-.07c.082.902.123,1.975.123,3.217v8.174h-1.38V.826h2.25l4.069,10.6h.07L61.03.826h2.232v12.85h-1.494V5.396c0-.949.041-1.98.123-3.094h-.07l-4.394,11.373h-1.204Zm16.266,0l-.29-1.371h-.07c-.48.604-.96,1.013-1.436,1.227-.478.213-1.074.32-1.789.32-.955,0-1.704-.246-2.246-.738s-.812-1.192-.812-2.101c0-1.945,1.555-2.965,4.666-3.059l1.635-.053v-.598c0-.756-.163-1.313-.487-1.675-.326-.359-.846-.54-1.56-.54-.803,0-1.711.246-2.724.738l-.448-1.116c.475-.258.994-.46,1.559-.606s1.133-.22,1.701-.22c1.148,0,2,.255,2.552.765.555.51.831,1.327.831,2.452v6.574h-1.081Zm-3.295-1.028c.908,0,1.622-.249,2.139-.747.519-.498.778-1.195.778-2.092v-.87l-1.459.062c-1.16.041-1.997.222-2.508.541-.514.319-.769.815-.769,1.489,0,.527.159.929.478,1.204s.766.413,1.341.413Zm11.775-8.78c.428,0,.811.035,1.151.105l-.202,1.354c-.398-.088-.75-.132-1.055-.132-.779,0-1.445.316-2,.949-.553.633-.83,1.421-.83,2.364v5.168h-1.459V4.043h1.204l.167,1.784h.07c.357-.627.788-1.11,1.292-1.45s1.057-.51,1.661-.51Zm4.394,4.878c.252-.357.636-.826,1.151-1.406l3.111-3.296h1.731l-3.902,4.104,4.174,5.528h-1.766l-3.401-4.553-1.098.949v3.604h-1.441V0h1.441v7.251c0,.322-.023.82-.07,1.494h.07Zm12.074,5.106c-1.424,0-2.547-.434-3.37-1.301-.824-.867-1.235-2.071-1.235-3.612,0-1.553.382-2.786,1.147-3.7.764-.914,1.791-1.371,3.08-1.371,1.207,0,2.162.397,2.865,1.191s1.055,1.841,1.055,3.142v.923h-6.635c.029,1.131.314,1.989.856,2.575s1.305.879,2.29.879c1.037,0,2.062-.217,3.076-.65v1.301c-.516.223-1.004.382-1.464.479-.46.096-1.014.145-1.665.145Zm-.395-8.763c-.773,0-1.39.252-1.849.756-.461.504-.731,1.201-.813,2.092h5.035c0-.92-.205-1.624-.615-2.114-.41-.488-.996-.733-1.758-.733Zm9.535,7.559c.258,0,.507-.019.747-.058.24-.037.431-.077.571-.118v1.116c-.158.076-.391.139-.699.189-.307.049-.584.074-.83.074-1.863,0-2.794-.981-2.794-2.944v-5.73h-1.38v-.703l1.38-.606.615-2.057h.844v2.232h2.794v1.134h-2.794v5.669c0,.58.138,1.025.413,1.336s.653.466,1.134.466Zm3.12-11.215c0-.334.082-.578.246-.733s.369-.233.615-.233c.234,0,.436.079.606.237s.255.401.255.729-.085.573-.255.733c-.17.162-.372.242-.606.242-.246,0-.451-.08-.615-.242-.164-.16-.246-.405-.246-.733Zm1.582,12.243h-1.459V4.043h1.459v9.633Zm9.684,0v-6.231c0-.785-.179-1.371-.536-1.758s-.917-.58-1.678-.58c-1.008,0-1.746.272-2.214.817s-.703,1.444-.703,2.698v5.054h-1.459V4.043h1.186l.237,1.318h.07c.299-.475.718-.842,1.257-1.104.539-.26,1.139-.391,1.801-.391,1.16,0,2.033.28,2.619.84s.879,1.454.879,2.685v6.284h-1.459Zm12.338-9.633v.923l-1.784.211c.164.205.31.474.439.804.129.332.193.705.193,1.121,0,.943-.322,1.696-.967,2.259s-1.529.844-2.654.844c-.287,0-.557-.023-.808-.07-.621.328-.931.741-.931,1.239,0,.264.108.459.325.584.217.127.589.189,1.116.189h1.705c1.043,0,1.843.22,2.404.659.559.439.839,1.078.839,1.916,0,1.066-.428,1.879-1.283,2.438s-2.103.84-3.744.84c-1.26,0-2.231-.234-2.913-.703-.683-.469-1.024-1.131-1.024-1.986,0-.586.187-1.093.562-1.521s.902-.718,1.582-.87c-.246-.111-.452-.284-.62-.519-.166-.234-.25-.507-.25-.817,0-.352.094-.659.281-.923s.483-.519.888-.765c-.498-.205-.904-.554-1.218-1.046s-.47-1.055-.47-1.688c0-1.055.316-1.868.949-2.438.633-.572,1.529-.857,2.689-.857.504,0,.958.059,1.362.176h3.331Zm-7.68,11.25c0,.521.22.917.659,1.187s1.069.404,1.889.404c1.224,0,2.131-.184,2.719-.55.59-.366.884-.862.884-1.489,0-.521-.161-.884-.483-1.085-.322-.203-.929-.304-1.819-.304h-1.749c-.662,0-1.178.158-1.547.475s-.554.771-.554,1.362Zm.791-8.165c0,.674.19,1.184.571,1.529s.911.519,1.591.519c1.424,0,2.135-.691,2.135-2.074,0-1.447-.721-2.171-2.162-2.171-.685,0-1.213.185-1.582.554s-.554.917-.554,1.644Z" fill="#d1a3f5"/></svg>