<svg xmlns="http://www.w3.org/2000/svg" viewBox="0 0 120 48"><path d="M19.05,25.35,14.212,39.412a16.4,16.4,0,0,0,4.538.638,15.554,15.554,0,0,0,5.325-.9v-.225ZM2.662,24a16.163,16.163,0,0,0,9.076,14.475l-7.5-21.038A15.842,15.842,0,0,0,2.662,24Zm26.963-.825a8.129,8.129,0,0,0-1.35-4.425A7.508,7.508,0,0,1,26.7,15a2.775,2.775,0,0,1,2.7-2.85h.227a16.12,16.12,0,0,0-24.3,3.038H10.65a.675.675,0,0,1,0,1.312H8.813l5.85,17.438,3.524-10.575L15.75,16.425H14.062c-.862,0-.75-1.35,0-1.312h8.513a.675.675,0,1,1,0,1.312H20.737L26.55,33.713l1.612-5.325A14.99,14.99,0,0,0,29.625,23.175Zm3.225-6.9a11.082,11.082,0,0,1,0,1.65,15.366,15.366,0,0,1-1.2,5.737l-4.8,14.213A16.048,16.048,0,0,0,34.837,24,15.779,15.779,0,0,0,32.85,16.275ZM18.75,5.25A18.75,18.75,0,1,0,37.5,24,18.75,18.75,0,0,0,18.75,5.25Zm0,36.638A17.925,17.925,0,1,1,36.638,23.925V24A17.927,17.927,0,0,1,18.75,41.888Z" fill="#21759c"/><path d="M53.963,22.463H49.238V17.775H47.363v4.688H42.675v1.875h4.688v4.687h1.875V24.338h4.725V22.463M76.3,19.941a4.644,4.644,0,0,0-1.685-1.179,5.822,5.822,0,0,0-2.264-.442H69.162a1.212,1.212,0,0,0-1.212,1.212v8.942a1.212,1.212,0,0,0,1.212,1.212h3.193a5.7,5.7,0,0,0,2.308-.517,4.717,4.717,0,0,0,1.684-1.206,5.172,5.172,0,0,0,1.018-1.8A6.658,6.658,0,0,0,77.686,24a7.187,7.187,0,0,0-.347-2.273A5.069,5.069,0,0,0,76.3,19.941Zm-.577,5.527a3.454,3.454,0,0,1-.632,1.174,2.859,2.859,0,0,1-1.03.776,3.513,3.513,0,0,1-1.442.367H69.854v-7.57h2.769a3.478,3.478,0,0,1,1.411.323,2.8,2.8,0,0,1,1.029.753,3.392,3.392,0,0,1,.647,1.154,6.275,6.275,0,0,1,.005,3.023ZM72.115,11.885A12.115,12.115,0,1,0,84.231,24,12.115,12.115,0,0,0,72.115,11.885Zm0,22.338A10.223,10.223,0,1,1,82.338,24,10.223,10.223,0,0,1,72.115,34.223ZM116.288,19.8v9.71a.539.539,0,0,1-1.076,0V19.8a.539.539,0,0,1,1.076,0Zm-13.717,0v9.71a.493.493,0,0,1-.986,0h0V19.8a.493.493,0,1,1,.986,0h0Zm-3.415,9.231c-.447,0-.439-.421-.528-.577V16.062a.494.494,0,0,0-.987,0v5.286A4.751,4.751,0,0,0,93.75,19.2a5.187,5.187,0,0,0-4.9,5.42,5.2,5.2,0,0,0,4.9,5.441,4.751,4.751,0,0,0,3.9-2.149v.536a1.541,1.541,0,0,0,1.467,1.611l.065,0a.506.506,0,0,0,.5-.508v-.012a.521.521,0,0,0-.517-.522h-.011Zm-5.415,0a4.159,4.159,0,0,1-3.865-4.4,3.9,3.9,0,1,1,7.728,0,4.149,4.149,0,0,1-3.854,4.384Zm26.25.288a.727.727,0,1,1-.729-.724h0a.728.728,0,0,1,.736.7ZM102.8,16.151a.724.724,0,1,1,0-.006Zm13.682,0a.724.724,0,1,1,0-.006v.006Zm-2.885,3.808-4.315,9.755h0c0,.021-.026.047-.035.064a.481.481,0,0,1-.037.055h0c0,.017-.026.026-.046.043a.173.173,0,0,1-.044.037H109.1l-.055.026h0q-.032.008-.063.018h-.234a.114.114,0,0,1-.052,0h-.02a.135.135,0,0,1-.061-.018h0a.228.228,0,0,0-.046-.026h-.017c-.017,0-.026-.028-.046-.037h0c-.018,0-.026-.026-.043-.043h0a.207.207,0,0,1-.038-.046h0a.266.266,0,0,1-.035-.064h0l-4.364-9.761a.516.516,0,1,1,.912-.485.578.578,0,0,1,.028.063l3.854,8.689,3.848-8.7a.515.515,0,0,1,.677-.265l0,0a.5.5,0,0,1,.256.667l-.014.029Z" fill="#8f42ec"/></svg>