<svg id="uuid-b2952e02-06ec-4cd5-bddc-ba62c6a30244" xmlns="http://www.w3.org/2000/svg" viewBox="0 0 96 96"><path d="m96,48C96,21.49,74.51,0,48,0S0,21.49,0,48c0,23.958,17.553,43.816,40.5,47.417v-33.542h-12.188v-13.875h12.188v-10.575c0-12.03,7.166-18.675,18.13-18.675,5.252,0,10.745.938,10.745.938v11.812h-6.053c-5.963,0-7.822,3.7-7.822,7.496v9.004h13.312l-2.128,13.875h-11.184v33.542c22.947-3.601,40.5-23.458,40.5-47.417Z" fill="#1877f2" stroke-width="0"/><path d="m66.684,61.875l2.128-13.875h-13.312v-9.004c0-3.796,1.86-7.496,7.822-7.496h6.053v-11.812s-5.493-.938-10.745-.938c-10.964,0-18.13,6.645-18.13,18.675v10.575h-12.188v13.875h12.188v33.542c2.444.383,4.948.583,7.5.583s5.056-.2,7.5-.583v-33.542h11.184Z" fill="#fff" stroke-width="0"/></svg>
