
<svg id="Layer_1" data-name="Layer 1" xmlns="http://www.w3.org/2000/svg" viewBox="0 0 62 62">
  <defs>
    <style>
      .cls-1 {
        fill: #e9eff9;
      }

      .cls-2 {
        fill: #fff;
      }

      .cls-3 {
        fill: #707070;
      }
    </style>
  </defs>
  <g>
    <polygon class="cls-2" points="53.24 60.93 9.38 60.93 9.38 4.54 38.41 4.54 53.24 4.54 53.24 60.93"/>
    <path class="cls-3" d="m53.24,61.93H9.38c-.55,0-1-.45-1-1V4.54c0-.55.45-1,1-1h43.86c.55,0,1,.45,1,1v56.4c0,.55-.45,1-1,1Zm-42.86-2h41.86V5.54H10.38v54.4Z"/>
  </g>
  <path class="cls-3" d="m31,47.71c-.2,0-.4-.06-.58-.18L2.01,27.44c-.45-.32-.56-.94-.24-1.39.32-.45.94-.56,1.39-.24l27.84,19.68,27.84-19.68c.45-.32,1.07-.21,1.39.24s.21,1.08-.24,1.39l-28.42,20.08c-.17.12-.38.18-.58.18Z"/>
  <path class="cls-3" d="m59.42,27.63c-.21,0-.43-.07-.61-.21l-6.18-4.74c-.44-.34-.52-.96-.19-1.4.34-.44.96-.52,1.4-.19l6.18,4.74c.44.34.52.96.19,1.4-.2.26-.49.39-.79.39Z"/>
  <path class="cls-3" d="m2.58,27.63c-.32,0-.63-.15-.82-.43-.31-.45-.2-1.08.26-1.39l6.79-4.69c.45-.31,1.08-.2,1.39.26.31.45.2,1.08-.26,1.39l-6.79,4.69c-.17.12-.37.18-.57.18Z"/>
  <polygon class="cls-1" points="59.42 61 58.61 47.98 59.42 47.23 59.42 46.71 59.42 26.63 39.61 40.63 31 46.71 22.39 40.63 9.38 31.43 2.58 26.63 2.58 61 38.49 61 59.42 61"/>
  <path class="cls-3" d="m59.42,62H2.58c-.55,0-1-.45-1-1V26.63c0-.37.21-.72.54-.89.33-.17.73-.14,1.04.07l27.84,19.67,27.84-19.67c.31-.21.71-.24,1.04-.07.33.17.54.51.54.89v34.37c0,.55-.45,1-1,1Zm-55.84-2h54.84v-31.44s-26.84,18.97-26.84,18.97c-.35.24-.81.24-1.15,0L3.58,28.56v31.44Z"/>
  <g>
    <polygon class="cls-1" points="53.24 11.33 9.38 11.33 9.38 4.54 38.41 4.54 53.24 4.54 53.24 11.33"/>
    <path class="cls-3" d="m54.24,12.33H8.38V3.54h45.86v8.79Zm-43.86-2h41.86v-4.79H10.38v4.79Z"/>
  </g>
  <path class="cls-3" d="m45.55,8.92c-.55,0-1-.45-1-1V1c0-.55.45-1,1-1s1,.45,1,1v6.92c0,.55-.45,1-1,1Z"/>
  <path class="cls-3" d="m17.08,8.92c-.55,0-1-.45-1-1V1c0-.55.45-1,1-1s1,.45,1,1v6.92c0,.55-.45,1-1,1Z"/>
  <g>
    <path class="cls-3" d="m25.97,20.59c.73-.58,1.67-.87,2.81-.87.78,0,1.46.14,2.03.42.57.28,1,.66,1.29,1.14s.44,1.02.44,1.63c0,.69-.18,1.29-.55,1.78-.37.49-.81.82-1.33.99v.07c.66.2,1.18.57,1.54,1.1.37.53.55,1.21.55,2.04,0,.66-.15,1.25-.45,1.76s-.75.92-1.34,1.22c-.59.3-1.3.45-2.13.45-1.21,0-2.2-.31-2.98-.93-.78-.62-1.2-1.51-1.25-2.68h1.85c.04.59.27,1.08.69,1.45.41.38.97.56,1.68.56s1.21-.19,1.58-.56c.37-.38.55-.86.55-1.45,0-.78-.25-1.34-.75-1.67-.5-.33-1.26-.5-2.29-.5h-.44v-1.58h.45c.91-.01,1.6-.16,2.07-.45.48-.29.71-.75.71-1.38,0-.54-.17-.97-.52-1.28s-.84-.48-1.48-.48-1.11.16-1.46.48c-.35.32-.55.71-.62,1.18h-1.86c.07-1.04.47-1.85,1.2-2.44Z"/>
    <path class="cls-3" d="m34.53,21.75v-1.75h3.49v12.24h-1.93v-10.5h-1.56Z"/>
  </g>
</svg>
