<svg xmlns="http://www.w3.org/2000/svg" viewBox="0 0 18 18"><path d="M7.433,1.581A2.306,2.306,0,0,1,9.705,3.915a2.332,2.332,0,0,1-.919,1.859l-.39.3v.765l-.368.375-.688.7.688.7.294.3-.294.3-.688.7.688.7.208.212-.8.546-.964-.655V6.074l-.39-.3A2.332,2.332,0,0,1,5.16,3.915,2.306,2.306,0,0,1,7.433,1.581m0-1A3.336,3.336,0,0,0,5.469,6.566v4.682l1.964,1.333L9.4,11.248v-.667l-.654-.666L9.4,9.248V8.581l-.654-.666L9.4,7.248V6.566A3.336,3.336,0,0,0,7.433.581Z"/><path d="M14.731,7.31V5.493h-3.3v1h2.3v7.74H2.021V6.493H3.764v-1H1.021v9.74h1.9V17.05H17.026V7.31Zm1.3,8.74H3.917v-.817H14.731V8.31h1.3Z"/><rect x="7.042" y="2.957" width="0.998" height="0.998"/></svg>