<svg xmlns="http://www.w3.org/2000/svg" viewBox="0 0 144 144"><path d="m126.95,96.62V30.95l-5.96-5.96H23.18l-5.97,5.96v65.52l-15.19,17.42h-.02l5.01,5.13h129.98l5.01-5.13-15.05-17.26ZM21.65,29.97h100.61v61.81H21.65V29.97Z" class="sgmaincolor"/><g id="uuid-6a8f5345-3a20-4224-bfeb-1c2580e84b99"><path d="m1.64,113.55s-.08.08-.1.14c-.06.13-.05.28.02.4-.08-.18-.05-.39.08-.54Z"/></g><g id="uuid-c97af387-f900-4091-911e-c38089ea4bde"><path d="m142.48,113.74s-.01-.03-.02-.05c-.02-.05-.05-.09-.08-.13h0s-14.92-17.11-14.92-17.11V30.95c0-.13-.06-.26-.15-.35l-5.97-5.96c-.09-.1-.22-.15-.35-.15H23.18c-.14,0-.26.05-.36.15l-5.96,5.96c-.1.09-.15.22-.15.35v65.33L1.72,113.47s-.06.05-.08.09c-.13.15-.16.36-.08.54,0,.05.04.1.08.14l5.02,5.13c.09.09.22.15.35.15h129.98c.13,0,.26-.06.35-.15l5.02-5.13s.01-.01.02-.02c.03-.04.06-.08.08-.13h0c.03-.07.04-.14.04-.2,0-.05,0-.09-.02-.14ZM17.71,31.16l5.67-5.67h97.4l5.68,5.67v64.47H17.71V31.16Zm119.07,87.36H7.22l-4.03-4.13h55.02l1.29,1.28h24.39l1.29-1.28h55.63l-4.03,4.13Zm-95.65-5.13l4.71-7.48h53.53l3.61,7.48h-61.85Zm62.96,0l-3.86-8h23.48l-4.55-5.88H24.84l-4.55,5.88h24.7l-5.04,8H3.12l14.04-16.1h109.7l14.04,16.1h-36.81Z"/></g><g id="uuid-62cb04ad-bf1d-4b15-a997-981e7d25a6ce"><path d="m122.26,92.27H21.65c-.28,0-.5-.22-.5-.5V29.97c0-.28.22-.5.5-.5h100.61c.28,0,.5.22.5.5v61.8c0,.28-.22.5-.5.5Zm-100.11-1h99.61V30.47H22.15v60.8Z"/></g><rect x="25.76" y="36.07" width="91.92" height="51.9" rx="5.6" ry="5.6" class="sgmaincolor"/><path d="m112.09,35.07H31.36c-3.36,0-6.1,2.74-6.1,6.1v40.7c0,3.36,2.74,6.1,6.1,6.1h80.73c3.36,0,6.09-2.74,6.09-6.1v-40.7c0-3.36-2.73-6.1-6.09-6.1Zm-80.73,1h80.73c2.77,0,5.02,2.22,5.08,4.97H26.27c.06-2.75,2.32-4.97,5.09-4.97Zm85.82,45.8c0,2.81-2.28,5.1-5.09,5.1H31.36c-2.81,0-5.1-2.29-5.1-5.1v-39.83h90.92v39.83Z"/><g id="uuid-d850aaea-0a03-45f6-88df-33372d55e1cb"><path d="m29.6,38.51c0,.37-.3.67-.67.67-.37,0-.67-.3-.67-.67,0-.37.3-.67.67-.67.37,0,.67.3.67.67h0"/></g><g id="uuid-4f30d902-279d-4b2d-9374-8c5d60d09097"><path d="m31.87,38.51c0,.37-.3.67-.67.67-.37,0-.67-.3-.67-.67,0-.37.3-.67.67-.67.37,0,.67.3.67.67h0"/></g><g id="uuid-ed7b8463-d917-4676-a99d-04a37c784861"><path d="m34.15,38.51c0,.37-.3.67-.67.67-.37,0-.67-.3-.67-.67,0-.37.3-.67.67-.67.37,0,.67.3.67.67h0"/></g><g id="uuid-7af03a01-45e7-4da6-bc8b-f0372d618312"><path d="m55.32,62.32c0,1.15-.93,2.08-2.08,2.08-1.15,0-2.08-.93-2.08-2.08s.93-2.08,2.08-2.08h0c1.15,0,2.08.93,2.08,2.08"/></g><g id="uuid-2b5debfb-35db-460b-9e72-37e7ab5ceefb"><path d="m90.98,62.32c0,1.15-.93,2.08-2.08,2.08-1.15,0-2.08-.93-2.08-2.08s.93-2.08,2.08-2.08h0c1.15,0,2.08.93,2.08,2.08"/></g><g id="uuid-6dc2bd14-1dcf-4790-8391-f3056c569114"><path d="m76.42,70.26c-.28,0-.5-.22-.5-.5,0-2.67-2.18-4.84-4.85-4.85h0c-1.29,0-2.51.5-3.43,1.42-.92.92-1.42,2.13-1.42,3.43,0,.28-.22.5-.5.5h0c-.28,0-.5-.22-.5-.5,0-1.56.61-3.03,1.72-4.14,1.1-1.1,2.57-1.71,4.13-1.71h0c3.22,0,5.84,2.62,5.85,5.85,0,.28-.22.5-.5.5h0Z"/></g></svg>
