<svg xmlns="http://www.w3.org/2000/svg" viewBox="0 0 144 144"><path d="m133.43,42.37l-22.1,18.23s-2.15-3.4-4.28-5.53c-1.32,9.51,0,76.93,0,76.93H37.65s1.32-67.42,0-76.93c-2.13,2.13-4.28,5.53-4.28,5.53l-22.1-18.23,21.45-23.56,19.73-6.81s-.36,20.71,19.9,20.71,19.9-20.71,19.9-20.71l19.73,6.81,21.45,23.56Z" class="sgmaincolor"/><path d="m112.55,17.95l-21.32-7.36.02,1.43c0,.09.07,9.02-5.59,14.77-3.22,3.27-7.7,4.92-13.31,4.92s-10.09-1.65-13.31-4.92c-5.66-5.75-5.59-14.68-5.59-14.77l.02-1.43-21.32,7.36-22.33,24.53,23.79,19.62.61-.96s1.2-1.89,2.64-3.68c.94,14.79-.2,73.89-.21,74.53l-.02,1.01h71.44l-.02-1.01c-.01-.64-1.16-59.74-.21-74.53,1.44,1.79,2.63,3.65,2.65,3.68l.6.96,23.79-19.62-22.33-24.53ZM33.15,59.13l-20.43-16.86,19.3-21.19,4.58,33.65c-1.39,1.46-2.7,3.3-3.45,4.4Zm72.88,71.87H38.67c.17-8.79,1.21-67.11-.03-76.06l-4.82-35.44,17.68-6.11c.2,2.93,1.2,9.8,6.1,14.79,3.61,3.67,8.57,5.53,14.75,5.53s11.14-1.86,14.75-5.53c4.9-4.99,5.9-11.86,6.1-14.79l17.68,6.11-4.82,35.44c-1.24,8.95-.2,67.27-.03,76.06Zm2.07-76.27l4.58-33.65,19.3,21.19-20.43,16.86c-.75-1.1-2.06-2.94-3.45-4.4Z"/><path d="m86.54,67.09c-.16,0-.32-.04-.46-.11l-8.57-4.47c-.33-.17-.54-.51-.54-.89v-15.02c0-.55.45-1,1-1h17.14c.55,0,1,.45,1,1v15.02c0,.37-.21.71-.54.89l-8.57,4.47c-.14.08-.3.11-.46.11Zm-7.57-6.07l7.57,3.95,7.57-3.95v-13.41h-15.14v13.41Zm16.14.61h0,0Z"/></svg>
