<svg xmlns="http://www.w3.org/2000/svg" viewBox="0 0 144 144"><path d="m126.95,103.67V37.99l-5.96-5.96H23.18l-5.97,5.96v65.52l-15.19,17.42h-.02l5.01,5.13h129.98l5.01-5.13-15.05-17.26ZM21.65,37.01h100.61v61.81H21.65v-61.81Z" class="sgmaincolor"/><g id="uuid-776d77e1-e896-4cab-b606-83468718883d"><path d="m1.64,120.6s-.08.08-.1.14c-.06.13-.05.28.02.4-.08-.18-.05-.39.08-.54Z"/></g><g id="uuid-6d599200-fddd-4217-8a32-a3aff2549093"><path d="m142.48,120.79s-.01-.03-.02-.05c-.02-.05-.05-.09-.08-.13h0s-14.92-17.11-14.92-17.11V37.99c0-.13-.06-.26-.15-.35l-5.97-5.96c-.09-.1-.22-.15-.35-.15H23.18c-.14,0-.26.05-.36.15l-5.96,5.96c-.1.09-.15.22-.15.35v65.33L1.72,120.51s-.06.05-.08.09c-.13.15-.16.36-.08.54,0,.05.04.1.08.14l5.02,5.13c.09.09.22.15.35.15h129.98c.13,0,.26-.06.35-.15l5.02-5.13s.01-.01.02-.02c.03-.04.06-.08.08-.13h0c.03-.07.04-.14.04-.2,0-.05,0-.09-.02-.14ZM17.71,38.2l5.67-5.67h97.4l5.68,5.67v64.47H17.71V38.2Zm119.07,87.36H7.22l-4.03-4.13h55.02l1.29,1.28h24.39l1.29-1.28h55.63l-4.03,4.13Zm-95.65-5.13l4.71-7.48h53.53l3.61,7.48h-61.85Zm62.96,0l-3.86-8h23.48l-4.55-5.88H24.84l-4.55,5.88h24.7l-5.04,8H3.12l14.04-16.1h109.7l14.04,16.1h-36.81Z"/></g><g id="uuid-35379d78-40c8-4528-9b13-ef81f87be7b7"><path d="m122.26,99.32H21.65c-.28,0-.5-.22-.5-.5v-61.8c0-.28.22-.5.5-.5h100.61c.28,0,.5.22.5.5v61.8c0,.28-.22.5-.5.5Zm-100.11-1h99.61v-60.8H22.15v60.8Z"/></g><path d="m112.09,42.11H31.36c-3.36,0-6.1,2.74-6.1,6.1v40.7c0,3.36,2.74,6.1,6.1,6.1h80.73c3.36,0,6.09-2.74,6.09-6.1v-40.7c0-3.36-2.73-6.1-6.09-6.1Zm-80.73,1h80.73c2.77,0,5.02,2.22,5.08,4.97H26.27c.06-2.75,2.32-4.97,5.09-4.97Zm85.82,45.8c0,2.81-2.28,5.1-5.09,5.1H31.36c-2.81,0-5.1-2.29-5.1-5.1v-39.83h90.92v39.83Z"/><g id="uuid-5d5da372-623b-4792-86c3-6296591bb583"><path d="m29.6,45.55c0,.37-.3.67-.67.67-.37,0-.67-.3-.67-.67,0-.37.3-.67.67-.67.37,0,.67.3.67.67h0"/></g><g id="uuid-d8b8b9f8-6ac0-4620-8a4e-a580ccb3c3c4"><path d="m31.87,45.55c0,.37-.3.67-.67.67-.37,0-.67-.3-.67-.67,0-.37.3-.67.67-.67.37,0,.67.3.67.67h0"/></g><g id="uuid-6c71d159-e887-42b9-ae0b-999b16831971"><path d="m34.15,45.55c0,.37-.3.67-.67.67-.37,0-.67-.3-.67-.67,0-.37.3-.67.67-.67.37,0,.67.3.67.67h0"/></g><g id="uuid-4e760426-ef2a-4d36-9452-9bea0376b13d"><path d="m132.47,115.75s-.08.08-.1.14c-.06.13-.05.28.02.4-.08-.18-.05-.39.08-.54Z"/></g><path d="m47.31,17.94v65.18h49.37V17.94h-49.37Zm32.3,48.1v7.17h-23.75v-7.17h23.75Zm-23.75-6.32v-7.36h32.73v7.36h-32.73Z" class="sgmaincolor"/><path d="m96.69,17.44h-49.37c-.28,0-.5.22-.5.5v65.18c0,.27.22.5.5.5h49.37c.28,0,.5-.23.5-.5V17.94c0-.28-.22-.5-.5-.5Zm-.5,65.18h-48.37V18.44h48.37v64.18Z"/><path d="m55.36,65.54v8.17h24.76v-8.17h-24.76Zm24.25,7.67h-23.75v-7.17h23.75v7.17Z" fill="#fff"/><path d="m80.11,65.04h-24.75c-.28,0-.5.23-.5.5v8.17c0,.27.22.5.5.5h24.75c.28,0,.5-.23.5-.5v-8.17c0-.27-.22-.5-.5-.5Zm-.5,8.17h-23.75v-7.17h23.75v7.17Z"/><path d="m55.36,51.86v8.36h33.73v-8.36h-33.73Zm33.23,7.86h-32.73v-7.36h32.73v7.36Z" fill="#fff"/><path d="m89.09,51.36h-33.73c-.28,0-.5.23-.5.5v8.36c0,.28.22.5.5.5h33.73c.27,0,.5-.22.5-.5v-8.36c0-.27-.23-.5-.5-.5Zm-.5,8.36h-32.73v-7.36h32.73v7.36Z"/><path d="m84.78,29.37l-.07,5.51c0,.27-.22.49-.5.49s-.5-.23-.5-.51l.06-4.41-11.19,9.36-.03.03c-.1.08-.21.12-.33.12-.04,0-.09-.01-.13-.02-.04-.01-.08-.02-.12-.05-.03-.02-.07-.05-.1-.08-.01-.01-.02-.02-.03-.03-.04-.05-.07-.1-.09-.15l-3.09-5.5-13.02,8.81c-.08.06-.18.09-.28.09-.16,0-.32-.08-.41-.22-.16-.23-.1-.54.13-.69l13.47-9.12s.02-.01.03-.01c0-.01,0-.01,0-.01.03-.02.06-.03.1-.04.08-.03.17-.03.26-.01.08.02.15.05.21.11.03.02.05.04.06.06,0,.01.02.02.03.03s.01.02.01.03c0,0,0,.01,0,.01l3.1,5.52,10.38-8.7-4.46.38h-.04c-.26,0-.48-.2-.5-.46-.02-.27.18-.52.46-.54l5.92-.5c.05-.01.1-.02.15-.01h.03c.06,0,.11.01.16.04.08.03.14.08.2.15.02.03.04.05.05.09,0,.02.03.04.03.07.02.05.03.1.03.16Z"/></svg>
