<svg xmlns="http://www.w3.org/2000/svg" viewBox="0 0 144 144"><path d="m65.56,81.6c-.28,0-.5-.22-.5-.5V18.92c0-.28.22-.5.5-.5s.5.22.5.5v62.18c0,.28-.22.5-.5.5Z"/><path d="m65.56,86.09c-1.51,0-2.74-1.23-2.74-2.74s1.23-2.74,2.74-2.74,2.74,1.23,2.74,2.74-1.23,2.74-2.74,2.74Zm0-4.49c-.96,0-1.74.78-1.74,1.74s.78,1.74,1.74,1.74,1.74-.78,1.74-1.74-.78-1.74-1.74-1.74Z"/><path d="m57.79,111.52c-4.56,0-8.27-3.71-8.27-8.27v-4.6c0-.21.13-.4.33-.47.2-.07.42,0,.56.16l2.69,3.34c.17.21.14.53-.07.7-.22.17-.53.14-.7-.08l-1.8-2.23v3.18c0,4.01,3.26,7.27,7.27,7.27s7.27-3.26,7.27-7.27v-17.66c0-.28.22-.5.5-.5s.5.22.5.5v17.66c0,4.56-3.71,8.27-8.27,8.27Z"/><polygon points="93.16 115.6 102.77 125.08 83.51 125.08 93.16 115.6" class="sgmaincolor"/><polygon points="120.8 107.27 102.77 125.08 88.27 110.76 84.19 113.81 77 104.76 87.24 104.8 93.88 98.23 84.3 89.65 102.77 89.45 120.8 107.27" class="sgmaincolor"/><path d="m121.15,106.34h0s-.07-.07-.07-.07l-9.08-8.98-8.88-8.78s-.03-.03-.05-.03c0-.02-.03-.02-.05-.03-.08-.06-.16-.08-.26-.08l-18.46.2c-.21,0-.39.13-.46.33-.08.19-.02.41.13.55l9.18,8.21-6.13,6.06-10.09-.04c-.19,0-.36.11-.45.28-.08.17-.06.38.06.53l7.19,9.05c.1.12.25.19.39.19.11,0,.21-.03.3-.1l3.77-2.82,4.26,4.21-9.29,9.13c-.15.14-.19.36-.12.54.08.19.26.31.47.31h19.27c.07,0,.13-.01.18-.04.06-.02.11-.05.15-.09l.03-.03,8.54-8.44,9.4-9.3s.1-.08.13-.13c.03-.05.05-.1.07-.16,0-.04.02-.08.02-.12,0-.14-.06-.27-.15-.35Zm-35.55-16.78l15.93-.18-7.66,7.58h-.01l-8.26-7.4Zm-1.39,22.98l-6.24-7.86,8.04.03-1.63,1.62h0c-.08.09-.14.22-.14.36,0,.13.06.26.14.35l3.09,3.06-3.26,2.44Zm.52,11.46l8.43-8.28,8.38,8.28h-16.81Zm17.54-.69l-8.76-8.65s-.05-.05-.07-.06l-4.8-4.75-.09-.09-.02-.02-2.57-2.55h16.31v16.12Zm0-17.12h-16.31l1.55-1.55.07-.06,6.66-6.58,8.03-7.93v16.12Zm1-16.13l7.67,7.59-7.67,7.81v-15.4Zm0,33.25v-15.33l7.38,8.03-7.38,7.3Zm8.09-8l-7.46-8.12h15.67l-8.21,8.12Zm-7.41-9.12l7.7-7.84,7.92,7.84h-15.62Z"/><path d="m142,60.21c-.09,0-.18-.02-.27-.08l-12.47-7.83-12.47,7.83c-.16.1-.37.1-.53,0l-12.46-7.83-12.46,7.83c-.16.1-.37.1-.53,0l-12.46-7.83-12.46,7.83c-.16.1-.37.1-.53,0l-12.46-7.83-12.46,7.83c-.16.1-.37.1-.53,0l-12.46-7.83-12.46,7.83c-.16.1-.37.1-.53,0L1.73,52.13c-.23-.15-.3-.46-.16-.69.15-.23.46-.3.69-.16l12.46,7.83,12.46-7.83c.16-.1.37-.1.53,0l12.46,7.83,12.46-7.83c.16-.1.37-.1.53,0l12.46,7.83,12.46-7.83c.16-.1.37-.1.53,0l12.46,7.83,12.46-7.83c.16-.1.37-.1.53,0l12.46,7.83,12.47-7.83c.16-.1.37-.1.53,0l12.73,8c.23.15.3.46.16.69-.1.15-.26.23-.42.23Z"/><path d="m39.94,69.03c-.08,0-.17-.02-.24-.06l-12.33-6.81-12.33,6.58c-.24.13-.54.04-.68-.21-.13-.24-.04-.55.21-.68l12.57-6.71c.15-.08.33-.08.48,0l12.57,6.94c.24.13.33.44.2.68-.09.17-.26.26-.44.26Z"/><path d="m90.88,51.17c-.17,0-.33-.09-.43-.24-.14-.24-.07-.54.17-.69l12.57-7.61c.15-.09.34-.1.5-.01l12.57,6.94c.24.13.33.44.2.68-.13.24-.44.33-.68.2l-12.32-6.8-12.32,7.46c-.08.05-.17.07-.26.07Z"/></svg>
