<svg id="uuid-0be32f62-1ba7-4fd1-a18d-bcae0081c2d2" xmlns="http://www.w3.org/2000/svg" viewBox="0 0 280 219.996"><g id="uuid-eb0188b3-1e21-49a5-bb3e-2bbae76f0022"><path id="uuid-65014494-9adb-410d-9f4b-5ae269e5700e" d="m21.334,66.862l1.752-2.04-1.752-2.041-1.752,2.039,1.752,2.042Z" fill="#fff"/><path id="uuid-1f1c47b0-24d7-48f4-828f-8544b8670343" d="m21.334,78.017l1.752-2.04-1.752-2.04-1.752,2.044,1.752,2.036Z" fill="#fff"/><path id="uuid-3fc3e973-7048-41a1-95d6-4f03ec963594" d="m21.334,89.405l1.752-2.039-1.752-2.04-1.752,2.04,1.752,2.039Z" fill="#fff"/><path id="uuid-584ddd84-ea16-4ebf-a637-107d14a0198c" d="m21.334,100.8l1.752-2.039-1.752-2.04-1.752,2.04,1.752,2.039Z" fill="#fff"/><path id="uuid-0e8c21e9-082b-4c02-8106-bd98972e1455" d="m11.547,108.113l-1.755,2.04,1.755,2.039,1.752-2.039-1.752-2.04Z" fill="#fff"/><path id="uuid-41c8107c-f5f5-4cae-b5ad-062109cad6b1" d="m21.334,55.472l1.752-2.04-1.752-2.039-1.752,2.039,1.752,2.04Z" fill="#fff"/><path id="uuid-dd25e328-4504-48f1-bf8f-48348c288a75" d="m11.547,96.721l-1.755,2.04,1.755,2.039,1.753-2.039-1.753-2.04Z" fill="#fff"/><path id="uuid-e69f7664-57cd-4c90-b1de-89ff1e10753b" d="m23.086,42.037l-1.752-2.039-1.752,2.039,1.752,2.044,1.752-2.044Z" fill="#fff"/><path id="uuid-7fe9186d-e0db-4bee-a2fa-e33c6aefa06b" d="m11.547,85.326l-1.755,2.04,1.755,2.039,1.752-2.039-1.752-2.04Z" fill="#fff"/><path id="uuid-22a7e390-3672-4ecf-86f3-6b749250546a" d="m11.544,78.017l1.756-2.036-1.752-2.04-1.757,2.04,1.753,2.036Z" fill="#fff"/><path id="uuid-91511af7-f99a-4f94-aacd-78623a663385" d="m21.334,123.581l1.752-2.04-1.752-2.039-1.752,2.039,1.752,2.04Z" fill="#fff"/><path id="uuid-a87bb6a0-e5f2-4122-95c4-73b668a78610" d="m21.334,112.192l1.752-2.039-1.752-2.04-1.752,2.04,1.752,2.039Z" fill="#fff"/><path id="uuid-450e9289-d09a-4e35-9472-81c8a7ccc8b7" d="m29.376,132.239l1.752,2.039,1.755-2.039-1.758-2.043-1.749,2.043Z" fill="#fff"/><path id="uuid-f9639937-9eb4-46b7-b2b7-fc704a20bbbd" d="m31.125,66.862l1.755-2.04-1.755-2.041-1.752,2.039,1.752,2.042Z" fill="#fff"/><path id="uuid-63e6becd-0952-49bb-9508-d602c2e74df9" d="m31.125,78.017l1.753-2.04-1.753-2.04-1.752,2.044,1.752,2.036Z" fill="#fff"/><path id="uuid-dcab90f2-e34f-4e9c-a4a1-463fc2740525" d="m31.125,89.405l1.755-2.039-1.755-2.04-1.752,2.04,1.752,2.039Z" fill="#fff"/><path id="uuid-94d98254-c1b6-4eec-a8cb-30380e367e5c" d="m32.883,42.039l-1.758-2.041-1.749,2.041,1.752,2.042,1.755-2.042Z" fill="#fff"/><path id="uuid-dfba0d4b-6619-4597-860b-60b2cdfe5ddb" d="m21.334,168.449l1.752-2.04-1.752-2.039-1.752,2.039,1.752,2.04Z" fill="#fff"/><path id="uuid-a5027830-f4e6-4bde-807c-f1ecfe256592" d="m21.334,145.664l1.752-2.039-1.752-2.04-1.752,2.04,1.752,2.039Z" fill="#fff"/><path id="uuid-7bef1a31-5bef-4417-a2f4-ab4010408509" d="m31.125,55.472l1.755-2.04-1.755-2.039-1.752,2.039,1.752,2.04Z" fill="#fff"/><path id="uuid-8122ffa4-f18e-43cf-8f76-bbe818ad8189" d="m21.334,157.056l1.752-2.04-1.752-2.035-1.752,2.039,1.752,2.036Z" fill="#fff"/><path id="uuid-19577d60-cac0-4df9-bfd7-ce8a9706bbd2" d="m21.334,134.275l1.752-2.039-1.752-2.04-1.752,2.04,1.752,2.039Z" fill="#fff"/><path id="uuid-d1dac235-41a4-4a10-a9f9-bd2e8e03d696" d="m21.334,179.843l1.752-2.04-1.752-2.039-1.752,2.039,1.752,2.04Z" fill="#fff"/><path id="uuid-7932ba22-ab42-4363-b1e8-c7bf684551e0" d="m0,53.432l1.752,2.039,1.748-2.039-1.748-2.039-1.752,2.039Z" fill="#fff"/><path id="uuid-63e8f434-89ea-4465-a78f-09e4bf8d5fbe" d="m11.547,119.506l-1.755,2.039,1.755,2.04,1.752-2.04-1.752-2.039Z" fill="#fff"/><path id="uuid-6c9e8e78-9072-4257-93f5-d2526a83ee12" d="m0,110.153l1.752,2.039,1.748-2.039-1.752-2.04-1.748,2.04Z" fill="#fff"/><path id="uuid-a18a97bd-b8d5-47ad-a9dc-c5856cb11e6c" d="m0,98.761l1.752,2.039,1.748-2.039-1.752-2.04-1.748,2.04Z" fill="#fff"/><path id="uuid-c3f2d0eb-2462-413f-9890-08df1ab8d72d" d="m0,132.236l1.752,2.038,1.748-2.038-1.752-2.04-1.748,2.04Z" fill="#fff"/><path id="uuid-bd56b629-5b3f-4b9d-885f-2be8f318353f" d="m0,143.625l1.752,2.039,1.748-2.039-1.748-2.044-1.752,2.044Z" fill="#fff"/><path id="uuid-04994786-f314-4b73-b81a-e72f8342956f" d="m0,155.016l1.752,2.039,1.748-2.039-1.748-2.035-1.752,2.035Z" fill="#fff"/><path id="uuid-044bd249-d175-4e24-943c-695ab7572fd8" d="m0,42.037l1.752,2.044,1.748-2.044-1.748-2.038-1.752,2.038Z" fill="#fff"/><path id="uuid-2f762cbc-a045-47e0-8e23-42364c96f374" d="m31.125,100.8l1.755-2.039-1.755-2.04-1.752,2.04,1.752,2.039Z" fill="#fff"/><path id="uuid-add1a204-6084-48d3-8b81-8b9dea732dfd" d="m0,75.981l1.752,2.039,1.748-2.039-1.752-2.04-1.748,2.04Z" fill="#fff"/><path id="uuid-a8559ae1-e183-4661-8da4-930577d38f12" d="m0,87.366l1.752,2.039,1.748-2.039-1.752-2.04-1.748,2.04Z" fill="#fff"/><path id="uuid-618ecec8-6076-41d7-9ca3-afcda6c425bf" d="m0,64.822l1.752,2.04,1.748-2.04-1.748-2.041-1.752,2.041Z" fill="#fff"/><path id="uuid-e50ed59c-3dad-4022-9077-5926246bd912" d="m0,121.545l1.752,2.036,1.748-2.036-1.752-2.039-1.748,2.039Z" fill="#fff"/><path id="uuid-c4a24d43-d885-45b3-b192-ae9af9ad0f93" d="m11.547,164.37l-1.755,2.039,1.755,2.04,1.752-2.04-1.752-2.039Z" fill="#fff"/><path id="uuid-55f4781b-1a9a-47ac-b307-bf5bb90589f0" d="m0,166.409l1.752,2.039,1.748-2.039-1.752-2.039-1.748,2.039Z" fill="#fff"/><path id="uuid-fc6e8df4-f3e9-4fa5-b6d6-7a120238a048" d="m9.792,177.803l1.755,2.04,1.752-2.04-1.752-2.039-1.755,2.039Z" fill="#fff"/><path id="uuid-1448fa35-c171-4840-a03b-520dee66e499" d="m11.547,130.196l-1.755,2.04,1.755,2.039,1.752-2.039-1.752-2.04Z" fill="#fff"/><path id="uuid-62fbdde0-bb53-4268-ae7a-3dd67d46e504" d="m11.547,141.581l-1.755,2.04,1.755,2.039,1.752-2.039-1.752-2.04Z" fill="#fff"/><path id="uuid-870f104a-b38e-495a-9979-24c1bbb83ebf" d="m11.547,152.981l-1.755,2.039,1.755,2.038,1.752-2.04-1.752-2.037Z" fill="#fff"/><path id="uuid-b0a2ece6-a86f-43ab-aa00-d8ced8ce7811" d="m11.547,55.472l1.752-2.04-1.752-2.039-1.755,2.039,1.755,2.04Z" fill="#fff"/><path id="uuid-7ee0bc30-41be-4b85-8526-e87ff7a1563e" d="m0,177.803l1.752,2.039,1.748-2.039-1.752-2.039-1.748,2.039Z" fill="#fff"/><path id="uuid-d8e53f3f-842d-4e20-a844-47d8674579e8" d="m13.3,42.037l-1.752-2.039-1.756,2.039,1.755,2.044,1.753-2.044Z" fill="#fff"/><path id="uuid-f4aa7c36-a1f5-4ead-91d0-43be5916fd02" d="m11.547,66.862l1.752-2.04-1.752-2.041-1.755,2.041,1.755,2.04Z" fill="#fff"/><path id="uuid-f0bf9f9a-74b0-4ffa-9b03-214cce5573b5" d="m31.125,157.056l1.755-2.04-1.755-2.035-1.752,2.039,1.752,2.036Z" fill="#fff"/><path id="uuid-fc4a26ac-3c98-45d8-b8ff-09bebd782bbd" d="m31.125,179.843l1.755-2.04-1.755-2.039-1.752,2.039,1.752,2.04Z" fill="#fff"/><path id="uuid-2b5a14cc-d036-40a4-b20e-927203a583bc" d="m31.125,145.664l1.755-2.039-1.755-2.04-1.752,2.04,1.752,2.039Z" fill="#fff"/><path id="uuid-0d0a6636-2e5f-45f5-8e4b-fd91ad0b437f" d="m31.125,123.581l1.755-2.04-1.755-2.039-1.752,2.039,1.752,2.04Z" fill="#fff"/><path id="uuid-71f86245-e70c-4cbc-ac98-f1fdf51b977d" d="m31.125,112.192l1.755-2.039-1.755-2.04-1.752,2.04,1.752,2.039Z" fill="#fff"/><path id="uuid-3d8dfd4a-2962-4420-a527-a823c397d39d" d="m31.125,168.449l1.755-2.04-1.755-2.039-1.752,2.039,1.752,2.04Z" fill="#fff"/><path id="uuid-d9e34896-336a-4622-a693-574fadea2370" d="m239.086,66.862l1.752-2.04-1.752-2.041-1.755,2.039,1.755,2.042Z" fill="#fff"/><path id="uuid-d20c04bf-af2f-4b99-8353-702917a8f0b2" d="m240.838,42.037l-1.752-2.039-1.755,2.039,1.755,2.044,1.752-2.044Z" fill="#fff"/><path id="uuid-dd7ab725-2d22-4007-9cb0-4245c54a8a05" d="m239.086,164.37l-1.755,2.039,1.755,2.04,1.752-2.04-1.752-2.039Z" fill="#fff"/><path id="uuid-e33f731e-4a77-4ac8-ba86-6d62e58baf50" d="m239.086,152.981l-1.755,2.039,1.755,2.038,1.752-2.04-1.752-2.037Z" fill="#fff"/><path id="uuid-d2eedca2-3ff7-440f-bfbd-bc3d35416a46" d="m239.086,141.581l-1.755,2.04,1.755,2.039,1.752-2.039-1.752-2.04Z" fill="#fff"/><path id="uuid-7150881f-75fc-4ca0-b793-961b11edc818" d="m237.331,177.803l1.755,2.04,1.752-2.04-1.752-2.039-1.755,2.039Z" fill="#fff"/><path id="uuid-8950060c-c50d-458a-ad4d-b70a0e1df8ce" d="m229.291,145.664l1.752-2.039-1.752-2.04-1.752,2.04,1.752,2.039Z" fill="#fff"/><path id="uuid-29d20081-1b06-41d5-bf0f-a68a39df23c0" d="m229.291,157.056l1.752-2.04-1.752-2.039-1.752,2.039,1.752,2.04Z" fill="#fff"/><path id="uuid-d0612992-df70-4b99-8859-cae19acf6a05" d="m229.291,168.449l1.752-2.04-1.752-2.039-1.752,2.039,1.752,2.04Z" fill="#fff"/><path id="uuid-3058e42f-7154-4420-9c50-00a7c61a0f05" d="m229.291,134.275l1.752-2.039-1.752-2.04-1.752,2.04,1.752,2.039Z" fill="#fff"/><path id="uuid-bde5ed2a-ac01-46e9-acb8-bd641dfbde5b" d="m229.291,179.843l1.752-2.04-1.752-2.039-1.752,2.039,1.752,2.04Z" fill="#fff"/><path id="uuid-34600263-8051-48e9-90a3-ed610c4b7cde" d="m239.086,55.472l1.752-2.04-1.752-2.039-1.755,2.039,1.755,2.04Z" fill="#fff"/><path id="uuid-98b9863c-74ea-48ae-8ce5-cdc0897fef98" d="m250.625,42.037l-1.752-2.039-1.752,2.039,1.752,2.044,1.752-2.044Z" fill="#fff"/><path id="uuid-014b37cc-b86b-43fb-9244-7959ec8e026d" d="m248.873,66.862l1.752-2.04-1.752-2.041-1.752,2.039,1.752,2.042Z" fill="#fff"/><path id="uuid-83d81af7-26b0-473f-8013-4a4fb862a111" d="m248.873,55.472l1.752-2.04-1.752-2.039-1.752,2.039,1.752,2.04Z" fill="#fff"/><path id="uuid-2b2dfc25-e5a6-4ac0-a135-58c27e363508" d="m239.086,130.196l-1.755,2.04,1.755,2.039,1.752-2.039-1.752-2.04Z" fill="#fff"/><path id="uuid-05e69029-f929-4e80-bec8-a1f544db3f71" d="m248.873,89.405l1.752-2.039-1.752-2.04-1.752,2.04,1.752,2.039Z" fill="#fff"/><path id="uuid-c0463b95-34e3-4b42-8c59-d133de60fbd2" d="m248.873,78.017l1.752-2.04-1.752-2.04-1.752,2.04,1.752,2.04Z" fill="#fff"/><path id="uuid-f5b8e994-e8ac-4e01-95ab-696c3293ac65" d="m239.086,119.506l-1.755,2.039,1.755,2.04,1.752-2.04-1.752-2.039Z" fill="#fff"/><path id="uuid-e272d6af-4a7f-4b4c-909d-9491571af898" d="m239.086,96.721l-1.755,2.04,1.755,2.039,1.752-2.039-1.752-2.04Z" fill="#fff"/><path id="uuid-f223529a-c035-438e-b227-d1b861445103" d="m239.086,85.326l-1.755,2.04,1.755,2.039,1.752-2.039-1.752-2.04Z" fill="#fff"/><path id="uuid-177a5dee-ee54-419e-9470-13aa83af0c01" d="m239.083,78.017l1.752-2.04-1.752-2.04-1.753,2.04,1.753,2.04Z" fill="#fff"/><path id="uuid-5c2741f5-e7e0-46eb-9a41-e081b143c6b1" d="m229.291,123.581l1.752-2.04-1.752-2.039-1.752,2.039,1.752,2.04Z" fill="#fff"/><path id="uuid-84e0a02c-25f0-4c3d-b89d-5dcb18514b17" d="m248.873,100.8l1.752-2.039-1.752-2.04-1.752,2.04,1.752,2.039Z" fill="#fff"/><path id="uuid-f25ce200-56dc-4993-88c7-194521deac66" d="m229.291,78.017l1.753-2.036-1.752-2.04-1.752,2.04,1.751,2.036Z" fill="#fff"/><path id="uuid-4948e600-6d72-49aa-bd37-d5705b9f2702" d="m229.291,66.862l1.752-2.04-1.752-2.041-1.752,2.039,1.752,2.042Z" fill="#fff"/><path id="uuid-fd5dca2e-3fad-49bd-bc30-4868d952244d" d="m231.044,42.037l-1.752-2.039-1.752,2.039,1.751,2.044,1.753-2.044Z" fill="#fff"/><path id="uuid-b1cb7c59-e21b-4aaf-8676-b9624eb6f084" d="m229.291,55.472l1.752-2.04-1.752-2.039-1.752,2.039,1.752,2.04Z" fill="#fff"/><path id="uuid-64b18305-5feb-4fc6-917e-1891ec1542be" d="m268.456,100.8l1.752-2.039-1.752-2.04-1.752,2.04,1.752,2.039Z" fill="#fff"/><path id="uuid-330ad9c7-f66e-4fa3-8589-78f16c4d850b" d="m268.456,157.056l1.752-2.04-1.752-2.039-1.752,2.039,1.752,2.04Z" fill="#fff"/><path id="uuid-16abcb9a-8f93-42d7-99b5-0b6de77123b0" d="m268.456,168.449l1.752-2.04-1.752-2.039-1.752,2.039,1.752,2.04Z" fill="#fff"/><path id="uuid-a5c3b8e6-b598-496d-ac11-bdce61784802" d="m276.495,64.822l1.752,2.04,1.753-2.04-1.756-2.041-1.749,2.041Z" fill="#fff"/><path id="uuid-55e6b9b2-48a1-4ab7-8f60-f4dba0192a75" d="m268.456,145.664l1.752-2.039-1.752-2.04-1.752,2.04,1.752,2.039Z" fill="#fff"/><path id="uuid-5ab8209b-54c5-4ed1-a48b-d6fb44fe5a30" d="m268.456,179.843l1.752-2.04-1.752-2.039-1.752,2.039,1.752,2.04Z" fill="#fff"/><path id="uuid-20eef5fb-2fdf-41bb-9d21-1893ad1952e0" d="m276.495,53.432l1.749,2.039,1.753-2.039-1.753-2.039-1.749,2.039Z" fill="#fff"/><path id="uuid-d2f1b102-14d4-4111-8fd2-8a2e8ee611f4" d="m268.456,89.405l1.752-2.039-1.752-2.04-1.752,2.04,1.752,2.039Z" fill="#fff"/><path id="uuid-93435d5e-ee81-43ac-8b56-1aaab85aa785" d="m268.456,123.581l1.752-2.04-1.752-2.039-1.752,2.039,1.752,2.04Z" fill="#fff"/><path id="uuid-e3764653-59aa-42c5-b917-3a3ae487b2e6" d="m268.456,134.275l1.752-2.039-1.752-2.04-1.752,2.04,1.752,2.039Z" fill="#fff"/><path id="uuid-7a6eb9af-17f8-4556-8144-0b4eaa986565" d="m268.456,112.192l1.752-2.039-1.752-2.04-1.752,2.04,1.752,2.039Z" fill="#fff"/><path id="uuid-b9f00a7f-8377-4629-99cc-a2cc0b448ff5" d="m268.456,78.017l1.752-2.04-1.752-2.04-1.752,2.044,1.752,2.036Z" fill="#fff"/><path id="uuid-1cb6d494-0cd8-46c6-87f2-a5bfbb96a25b" d="m276.495,166.409l1.752,2.039,1.753-2.039-1.753-2.039-1.752,2.039Z" fill="#fff"/><path id="uuid-44968f6e-120e-4066-9b2c-86ad5e97ff61" d="m276.495,75.981l1.752,2.039,1.753-2.039-1.753-2.04-1.752,2.04Z" fill="#fff"/><path id="uuid-64ba417c-6472-4d93-b182-33bbfef94284" d="m276.495,155.016l1.752,2.039,1.753-2.039-1.756-2.035-1.749,2.035Z" fill="#fff"/><path id="uuid-cc161b66-6c64-415e-a824-d9dc890a3fe9" d="m276.495,42.037l1.749,2.044,1.753-2.039-1.753-2.043-1.749,2.038Z" fill="#fff"/><path id="uuid-8d6945a3-3171-4ec7-8807-805a8c529b5a" d="m276.495,177.803l1.752,2.039,1.753-2.039-1.753-2.039-1.752,2.039Z" fill="#fff"/><path id="uuid-592c5244-55d2-4cea-88c3-69e446813ec7" d="m276.495,143.625l1.752,2.039,1.753-2.039-1.756-2.044-1.749,2.044Z" fill="#fff"/><path id="uuid-899b3bce-ae6b-4f09-808b-7d3b0b7cee87" d="m276.495,132.236l1.752,2.038,1.753-2.038-1.753-2.04-1.752,2.04Z" fill="#fff"/><path id="uuid-9010ac85-9ba0-4b4e-826e-a71a4e76b714" d="m276.495,98.761l1.752,2.039,1.753-2.039-1.753-2.04-1.752,2.04Z" fill="#fff"/><path id="uuid-f5d9c73a-5e5c-4a6b-b80b-0be67360083f" d="m276.495,87.366l1.752,2.039,1.753-2.039-1.753-2.04-1.752,2.04Z" fill="#fff"/><path id="uuid-ded7fabe-e379-4430-8700-e08a61ff54e3" d="m276.495,121.545l1.749,2.036,1.753-2.039-1.753-2.039-1.749,2.042Z" fill="#fff"/><path id="uuid-55308088-4b77-45f4-ae53-87f5956d8e26" d="m276.495,110.153l1.752,2.039,1.753-2.039-1.753-2.04-1.752,2.04Z" fill="#fff"/><path id="uuid-95106c30-3cc8-455e-9d72-31b6ab0b88ec" d="m258.664,168.449l1.755-2.04-1.755-2.039-1.752,2.039,1.752,2.04Z" fill="#fff"/><path id="uuid-8b5b5102-c8bd-4539-b3ba-55d1da5e5200" d="m258.664,78.017l1.753-2.04-1.753-2.04-1.752,2.04,1.752,2.04Z" fill="#fff"/><path id="uuid-0d4cb74e-9374-4c67-a156-3e43515d9c6a" d="m258.664,55.472l1.755-2.04-1.755-2.039-1.752,2.039,1.752,2.04Z" fill="#fff"/><path id="uuid-24f3b15d-71d3-4d7a-bb23-6a18c303432f" d="m258.664,66.862l1.755-2.04-1.755-2.041-1.752,2.039,1.752,2.042Z" fill="#fff"/><path id="uuid-7963a3d1-c64f-48a4-9db4-db9ffd1778c9" d="m256.914,132.239l1.752,2.039,1.755-2.039-1.758-2.043-1.749,2.043Z" fill="#fff"/><path id="uuid-c24dab66-9d51-4a0b-846d-3446e08d709e" d="m248.873,179.843l1.752-2.04-1.752-2.039-1.752,2.039,1.752,2.04Z" fill="#fff"/><path id="uuid-a9c512b8-3859-4ab9-8fac-5285770b355e" d="m260.421,42.039l-1.758-2.041-1.749,2.041,1.752,2.042,1.755-2.042Z" fill="#fff"/><path id="uuid-1e4c188d-592a-435b-b128-fc16afae8ef4" d="m248.873,123.581l1.752-2.04-1.752-2.039-1.752,2.039,1.752,2.04Z" fill="#fff"/><path id="uuid-3a378bc2-9cce-44af-9d67-125e73ec4225" d="m248.873,134.275l1.752-2.039-1.752-2.04-1.752,2.04,1.752,2.039Z" fill="#fff"/><path id="uuid-0027aac7-890f-43d5-8146-9ab5cdf19ec4" d="m248.873,145.664l1.752-2.039-1.752-2.04-1.752,2.04,1.752,2.039Z" fill="#fff"/><path id="uuid-99f121b5-0ab6-4db8-90e3-baf37cffeaa3" d="m248.873,168.449l1.752-2.04-1.752-2.039-1.752,2.039,1.752,2.04Z" fill="#fff"/><path id="uuid-d817a8c6-60c2-4684-b90e-123cd6cee6e9" d="m248.873,157.056l1.752-2.04-1.752-2.039-1.752,2.039,1.752,2.04Z" fill="#fff"/><path id="uuid-016c9418-c6ba-4bce-832d-57ea5d038ea0" d="m258.664,123.581l1.755-2.04-1.755-2.039-1.752,2.039,1.752,2.04Z" fill="#fff"/><path id="uuid-fad28a65-7222-473e-a786-30bc61906ee3" d="m258.664,89.405l1.755-2.039-1.755-2.04-1.752,2.04,1.752,2.039Z" fill="#fff"/><path id="uuid-8a326019-c5ba-4e77-bd33-0297963b2171" d="m258.664,179.843l1.755-2.04-1.755-2.039-1.752,2.039,1.752,2.04Z" fill="#fff"/><path id="uuid-a31e74e6-46ce-4f3e-89fe-94c8f877d7da" d="m258.664,157.056l1.755-2.04-1.755-2.035-1.752,2.039,1.752,2.036Z" fill="#fff"/><path id="uuid-570ccabb-eebc-4826-8852-5c8b4cb12ee0" d="m270.208,42.037l-1.752-2.039-1.752,2.039,1.752,2.044,1.752-2.044Z" fill="#fff"/><path id="uuid-20d5c3e0-70c4-4ba8-b77d-db4ac8ab0970" d="m268.456,55.472l1.752-2.04-1.752-2.039-1.752,2.039,1.752,2.04Z" fill="#fff"/><path id="uuid-2a374654-6fdd-4f18-a999-d713aee188b5" d="m248.873,112.192l1.752-2.039-1.752-2.04-1.752,2.04,1.752,2.039Z" fill="#fff"/><path id="uuid-6337a66e-90d3-4712-b62d-7297190cd413" d="m258.664,145.664l1.755-2.039-1.755-2.04-1.752,2.04,1.752,2.039Z" fill="#fff"/><path id="uuid-705e4642-01ed-40a1-85dc-a29e3e1774c5" d="m258.664,112.192l1.755-2.039-1.755-2.04-1.752,2.04,1.752,2.039Z" fill="#fff"/><path id="uuid-445a402d-284a-4ee0-a91f-1415d9dc915c" d="m258.664,100.8l1.755-2.039-1.755-2.04-1.752,2.04,1.752,2.039Z" fill="#fff"/><path id="uuid-3dcc122d-dc5b-4751-9921-6759282663a2" d="m268.456,66.862l1.752-2.04-1.752-2.041-1.752,2.039,1.752,2.042Z" fill="#fff"/></g><path id="uuid-c9ff2cb2-3f25-427b-8bab-8390acb1ffdb" d="m223.54,54.267L129.54.267c-.619-.356-1.381-.356-2,0L33.54,54.267c-.618.355-.999,1.013-1,1.725v108.006c.001.712.382,1.37,1,1.724l94,54.008c.619.355,1.381.355,2,0l94-54c.618-.354,1-1.012,1-1.724V55.998c.002-.715-.38-1.375-1-1.73" fill="#cef2cf"/><rect id="uuid-8efc4904-0441-4091-9611-1079f63f12c5" x="53.234" y="55.114" width="156.97" height="12.927" fill="#fff"/><path d="m210.323,65.954c.553,0,1-.448,1-1v-9.969c0-.552-.447-1-1-1H53.353c-.553,0-1,.448-1,1v109.444c0,.552.447,1,1,1h156.971c.553,0,1-.448,1-1v-26.778c0-.552-.447-1-1-1s-1,.448-1,1v25.778H54.353v-94.737l155.871-.002c.553,0,1-.448,1-1s-.447-1-1-1l-155.871.002v-10.707h154.971v8.969c0,.552.447,1,1,1Z" fill="#232639"/><rect id="uuid-f16cadaa-4d53-4be3-86ce-8dd1d4accd08" x="67.567" y="97.594" width="67.444" height="53.419" fill="#fff"/><path d="m135.011,152.013h-67.443c-.553,0-1-.448-1-1v-53.419c0-.552.447-1,1-1h67.443c.553,0,1,.448,1,1v53.419c0,.552-.447,1-1,1Zm-66.443-2h65.443v-51.419h-65.443v51.419Z" fill="#232639"/><path d="m77.572,113.762c-.553,0-1-.448-1-1s.447-1,1-1h48.082c.553,0,1,.447,1,.999s-.447,1-1,1h-48.082Z" fill="#232639"/><path d="m77.572,126.192c-.553,0-1-.448-1-1s.447-1,1-1h48.082c.553,0,1,.447,1,.999s-.447,1-1,1h-48.082Z" fill="#232639"/><path d="m77.572,138.623c-.553,0-1-.448-1-1s.447-1,1-1h48.082c.553,0,1,.447,1,.999s-.447,1-1,1h-48.082Z" fill="#232639"/><rect id="uuid-38d42cf6-53ae-427f-8165-866c1e23903f" x="66.961" y="80.791" width="40.174" height="4.043" fill="#232639"/><path d="m230.215,77.119c-.217,0-.435-.07-.618-.214-.434-.342-.508-.971-.166-1.405l8.476-10.756c.343-.433.971-.508,1.404-.167s.508.971.166,1.405l-8.476,10.756c-.197.25-.49.381-.786.381Z" fill="#232639"/><path d="m236.573,92.601c-.396,0-.771-.237-.928-.627-.206-.512.042-1.095.555-1.301l14.992-6.029c.51-.207,1.095.042,1.301.555.206.512-.042,1.095-.555,1.301l-14.992,6.029c-.122.049-.249.073-.373.073Z" fill="#232639"/><path d="m255.151,111.179c-.069,0-.139-.007-.209-.022l-14.536-3.096c-.54-.115-.885-.646-.771-1.187.115-.541.646-.885,1.187-.77l14.536,3.096c.54.115.885.646.771,1.187-.101.47-.516.792-.978.792Z" fill="#232639"/><path id="uuid-a30a1bf7-cae5-426d-9953-4d9dda6ab587" d="m71.7,59.741c1.036,0,1.875.839,1.875,1.875s-.839,1.875-1.875,1.875-1.875-.839-1.875-1.875c0-1.035.838-1.874,1.873-1.875h.002" fill="#232639"/><path id="uuid-20ed541f-bafa-4080-aecf-ab86c57d047d" d="m60.249,59.741c1.036,0,1.875.839,1.875,1.875s-.839,1.875-1.875,1.875-1.875-.839-1.875-1.875c0-1.035.838-1.874,1.873-1.875h.002" fill="#232639"/><path id="uuid-d4afe490-e3a4-48cb-b66e-22652a4b8b9b" d="m65.974,59.741c1.036,0,1.875.838,1.876,1.874s-.838,1.875-1.874,1.876-1.875-.838-1.876-1.874h0c0-1.036.838-1.875,1.873-1.876h.002" fill="#232639"/><path id="uuid-ec4482e7-2cb3-42cd-b61f-e7408d8c2ce7" d="m238.039,129.083l-72.68-1.972-5.385-15.277,53.132-50.219,24.933,67.468Z" fill="#fff"/><path d="m238.978,128.736l-24.933-67.468c-.117-.315-.384-.55-.711-.627-.324-.077-.67.016-.914.247l-52.802,49.906-13.309-1.285c-.012-.001-.023.004-.035.004-.065-.004-.13.011-.196.021-.066.01-.131.013-.192.035-.013.005-.027.002-.04.007-.051.02-.087.059-.133.086-.054.033-.109.06-.156.102-.054.048-.094.105-.135.162-.035.047-.072.09-.098.143-.031.064-.045.133-.063.202-.012.047-.037.087-.042.137-.001.013.005.025.004.039-.004.062.011.123.019.186.01.071.014.141.037.207.004.011.002.023.006.034l10.79,27.148c.009.024.026.041.037.063.017.035.037.065.058.098.049.077.106.145.172.204.016.015.024.035.042.049.01.008.022.01.032.018.061.045.128.078.198.108.029.012.055.03.084.04.099.032.202.051.308.051.123,0,.248-.023.369-.071.011-.004.018-.014.028-.018.044-.019.079-.052.12-.078.084-.052.162-.107.225-.179.012-.014.03-.018.041-.033l8.048-10.15,6.038.164,8.144,20.418c.025.063.064.115.1.17.017.026.029.057.048.082.046.058.102.104.158.149.021.017.038.04.061.055.065.044.137.074.21.102.02.008.037.021.057.027.095.029.194.045.295.045,0,0,0,0,0,0,0,0,0,0,0,0,.113,0,.229-.02.342-.061l34.113-12.407c.06-.022.104-.064.156-.096.059-.035.124-.061.174-.106.046-.042.074-.097.111-.146.04-.053.088-.101.117-.161.027-.056.033-.119.049-.18.017-.064.043-.124.047-.19.004-.066-.017-.132-.026-.198-.009-.062-.003-.124-.024-.185l-2.101-6.178,24.106.654c.01,0,.019,0,.027,0,.322,0,.625-.155.812-.417.193-.27.24-.618.126-.929Zm-81.682,6.941l-9.546-24.019,11.493,1.11,4.992,14.159-6.938,8.75Zm24.22,11.387l-7.466-18.717,37.724,1.024,2.025,5.952-32.283,11.741Zm-15.442-20.934l-4.941-14.016,42.206-39.891,12.258,31.314c.155.395.532.636.932.636.121,0,.245-.022.364-.069.515-.201.769-.781.567-1.296l-12.552-32.067,7.786-7.359,23.896,64.662-70.515-1.914Z" fill="#232639"/></svg>
