<svg xmlns="http://www.w3.org/2000/svg" viewBox="0 0 144 144"><path d="m84.68,29.27L2,60.49l23.45,10.04.46.2,5.68,16.23.17.48.13.37,9.39-7.69,26.47,16.23,17.93-67.46-1,.38Zm-52.77,56.32l-5.4-14.67,53.48-37.2-44.18,42.63c-.05.05-.09.1-.12.17l-3.78,9.07Z" class="sgmaincolor"/><path d="m86.01,28.52c-.13-.12-.33-.16-.51-.1L1.82,60.02c-.19.07-.32.25-.32.45,0,.21.12.39.3.47l23.71,10.17,5.9,16.86c.06.16.18.28.34.32s.33.01.45-.09l9.12-7.46,26.11,15.99.06.04s.08.04.13.06c.04.01.08.02.13.02.06,0,.12-.01.17-.03.04-.02.08-.04.11-.07.03-.01.05-.03.07-.06.03-.02.05-.04.06-.06.02-.03.04-.07.06-.11,0-.02.01-.03.01-.05l17.93-67.45c.05-.18-.01-.37-.15-.5Zm-3.09,1.95l-37.54,26.11c-2.58.15-31.4,2.5-40.13,3.21l77.67-29.32Zm-2.93,3.25l-29.15,28.13-4.03,3.58-.73-8.12,33.91-23.59ZM4.19,60.87c12.59-1.02,33.39-2.7,39.58-3.17l-17.92,12.46-21.66-9.29Zm27.72,24.72l-5.4-14.67,18.61-12.95.78,8.54s.01.06.02.09l-10.11,9.75c-.05.05-.09.1-.12.17l-3.78,9.07Zm9.63-5.89c-.08-.05-.17-.08-.26-.08-.11,0-.23.04-.32.12l-8.38,6.85,4-9.59,14.98-14.45,2.31-2.06,12.9,34.67-25.23-15.46Zm26.13,15l-13.07-35.09,30.13-29.07-17.06,64.16Z"/><path d="m75.15,115.61c-1.16,0-2.31-.03-3.42-.1-.28-.02-.49-.25-.47-.53.02-.27.26-.48.53-.47,1.09.07,2.22.1,3.36.1h.64c.26-.02.5.21.51.49,0,.28-.22.5-.49.51h-.65Zm4.67-.18c-.26,0-.48-.2-.5-.46-.02-.28.18-.52.46-.54,1.32-.1,2.66-.25,3.98-.43.28-.04.53.15.57.43.04.27-.15.53-.42.56-1.34.19-2.7.34-4.04.44-.01,0-.03,0-.04,0Zm-12.06-.33s-.05,0-.08,0c-1.12-.17-1.73-.32-1.76-.32-.75-.18-1.5-.37-2.23-.58-.27-.07-.42-.35-.35-.62.08-.27.35-.42.62-.34.72.2,1.45.39,2.19.57,0,0,.6.14,1.68.31.27.04.46.3.42.57-.04.25-.25.42-.49.42Zm20.04-.79c-.23,0-.44-.16-.49-.4-.05-.27.12-.53.39-.59,1.29-.26,2.6-.57,3.89-.92.27-.07.54.09.61.35.07.27-.09.54-.35.61-1.31.35-2.64.66-3.95.93-.03,0-.07.01-.1.01Zm-27.8-1.34c-.06,0-.12,0-.17-.03-1.26-.46-2.53-.98-3.76-1.55-.25-.11-.36-.41-.25-.66.12-.25.41-.36.66-.25,1.21.55,2.45,1.06,3.69,1.52.26.1.39.38.3.64-.08.2-.27.33-.47.33Zm35.59-.74c-.21,0-.41-.13-.47-.34-.09-.26.05-.54.32-.63,1.25-.42,2.52-.88,3.76-1.37.25-.1.55.02.65.28.1.26-.02.55-.28.65-1.26.5-2.54.97-3.81,1.39-.05.02-.11.03-.16.03Zm46.42-.86s-.03,0-.05,0c-.51-.05-.99-.1-1.44-.15-.27-.03-.47-.28-.44-.55.03-.27.28-.47.55-.44.45.05.92.1,1.43.15.28.03.48.27.45.55-.03.26-.24.45-.5.45Zm-5.41-.79s-.08,0-.11-.01c-1.17-.27-2.37-.63-3.91-1.17-.26-.09-.4-.38-.31-.64.09-.26.37-.4.64-.31,1.5.53,2.67.88,3.8,1.14.27.06.44.33.37.6-.05.23-.26.39-.49.39Zm-83.93-.95c-.08,0-.16-.02-.24-.06-1.17-.64-2.35-1.34-3.49-2.08-.23-.15-.3-.46-.15-.69.15-.23.46-.3.69-.15,1.12.73,2.28,1.41,3.43,2.04.24.13.33.44.2.68-.09.17-.26.26-.44.26Zm50.4-.38c-.19,0-.37-.11-.45-.29-.12-.25,0-.55.24-.66,1.2-.56,2.4-1.16,3.58-1.78.24-.13.54-.04.68.21.13.24.04.55-.21.68-1.2.64-2.42,1.24-3.63,1.81-.07.03-.14.05-.21.05Zm25.9-1.24c-.06,0-.12-.01-.18-.03-.71-.28-1.48-.58-2.31-.91-.48-.19-.96-.39-1.44-.59-.25-.11-.38-.4-.27-.65.11-.25.4-.37.65-.27.48.2.95.39,1.42.58.83.33,1.6.63,2.3.91.26.1.38.39.28.65-.08.2-.27.32-.47.32Zm-18.79-2.54c-.17,0-.33-.09-.43-.24-.14-.24-.07-.54.17-.69,1.13-.68,2.27-1.4,3.38-2.15.23-.15.54-.1.69.14.15.23.09.54-.14.69-1.12.76-2.27,1.49-3.42,2.18-.08.05-.17.07-.26.07Zm-64.28-.2c-.1,0-.21-.03-.3-.1-1.08-.8-2.15-1.66-3.17-2.54-.21-.18-.24-.5-.06-.71.18-.21.5-.23.7-.06,1.01.86,2.06,1.7,3.12,2.5.22.17.27.48.1.7-.1.13-.25.2-.4.2Zm75.66-.4c-.07,0-.15-.02-.21-.05-1.2-.57-2.42-1.19-3.62-1.83-.24-.13-.34-.43-.21-.68.13-.24.43-.33.68-.21,1.19.63,2.4,1.24,3.58,1.81.25.12.36.42.24.67-.09.18-.26.28-.45.28Zm-7.12-3.79c-.09,0-.17-.02-.25-.07-1.16-.68-2.32-1.4-3.45-2.12-.23-.15-.3-.46-.15-.69.15-.23.46-.3.69-.15,1.12.72,2.27,1.43,3.42,2.1.24.14.32.45.18.68-.09.16-.26.25-.43.25Zm2.43-.11c-.15,0-.3-.07-.4-.2-.17-.22-.12-.53.1-.7,1.05-.79,2.12-1.62,3.15-2.47.21-.17.53-.15.7.07.18.21.15.53-.07.7-1.05.86-2.12,1.7-3.19,2.5-.09.07-.2.1-.3.1Zm-77.09-.93c-.12,0-.25-.05-.35-.14-.96-.93-1.92-1.91-2.83-2.91-.19-.2-.17-.52.03-.71.21-.19.52-.17.71.03.9.98,1.84,1.95,2.79,2.87.2.19.2.51.01.71-.1.1-.23.15-.36.15Zm67.89-3.33c-.1,0-.2-.03-.29-.09-1.11-.78-2.2-1.6-3.26-2.42-.22-.17-.26-.48-.09-.7.17-.22.48-.26.7-.09,1.04.81,2.12,1.62,3.22,2.39.23.16.28.47.12.7-.1.14-.25.21-.41.21Zm15.42-.85c-.14,0-.27-.06-.37-.17-.19-.21-.17-.52.04-.71.98-.88,1.96-1.81,2.92-2.75.2-.19.51-.19.71,0,.19.2.19.51,0,.71-.97.95-1.96,1.88-2.95,2.77-.1.09-.22.13-.33.13Zm-88.75-1.76c-.15,0-.29-.06-.39-.19-.86-1.06-1.66-2.12-2.46-3.24-.16-.22-.11-.54.12-.7.22-.16.54-.11.7.12.79,1.1,1.58,2.15,2.42,3.19.17.21.14.53-.07.7-.09.07-.2.11-.31.11Zm66.97-2.34c-.12,0-.23-.04-.33-.12-1.04-.9-2.05-1.82-3-2.74-.2-.19-.2-.51-.01-.71.19-.2.51-.2.71-.01.93.91,1.93,1.81,2.96,2.7.21.18.23.5.05.71-.1.11-.24.17-.38.17Zm27.53-1.53c-.12,0-.25-.04-.34-.14-.2-.19-.21-.51-.02-.71.9-.96,1.8-1.96,2.69-2.97.18-.21.5-.23.71-.05.21.18.23.5.05.71-.89,1.03-1.81,2.04-2.71,3-.1.1-.23.16-.36.16Zm-33.31-4.09c-.14,0-.27-.06-.37-.17-.94-1.04-1.81-2.09-2.6-3.13-.17-.22-.12-.53.09-.7.22-.17.53-.13.7.1.78,1.02,1.63,2.05,2.55,3.07.19.21.17.52-.04.71-.1.09-.22.13-.33.13Zm38.59-2c-.11,0-.22-.03-.31-.11-.22-.17-.26-.48-.09-.7.84-1.07,1.6-2.17,2.27-3.26.14-.24.45-.31.69-.16.24.14.31.45.16.69-.69,1.12-1.48,2.25-2.34,3.35-.1.13-.25.19-.39.19Zm-43.44-4.43c-.17,0-.33-.09-.43-.24-.74-1.22-1.38-2.45-1.89-3.64-.11-.25,0-.55.26-.66.25-.11.55,0,.66.26.49,1.15,1.11,2.33,1.82,3.51.14.24.07.54-.17.69-.08.05-.17.07-.26.07Zm47.62-2.43c-.07,0-.14-.01-.2-.04-.25-.11-.37-.41-.25-.66.54-1.23.99-2.48,1.32-3.72.07-.27.34-.42.61-.35.27.07.43.35.35.61-.34,1.29-.8,2.6-1.37,3.87-.08.19-.27.3-.46.3Zm-50.73-4.96c-.23,0-.44-.16-.49-.39-.28-1.26-.42-2.5-.42-3.71,0-.13,0-.27,0-.41,0-.28.27-.5.51-.49.28,0,.49.24.49.51,0,.13,0,.25,0,.38,0,1.13.13,2.31.4,3.5.06.27-.11.54-.38.6-.04,0-.07.01-.11.01Zm52.77-2.8s-.03,0-.04,0c-.28-.02-.48-.27-.46-.54.07-.8.16-1.9.16-3.13,0-.27,0-.55-.01-.83,0-.28.21-.51.48-.52.28-.03.51.21.52.48,0,.29.01.58.01.87,0,1.28-.1,2.4-.17,3.22-.02.26-.24.46-.5.46Zm-24.76-.83c-.38-.01-.66-.25-.83-.7-.1-.26.03-.55.28-.65.19-.08.4-.02.54.12.12-.37.25-1.02.35-1.56.06-.31.12-.64.2-.99.06-.27.32-.44.59-.39.27.06.44.32.39.59-.07.34-.14.67-.2.98-.32,1.62-.51,2.6-1.33,2.6Zm-27.74-4.33s-.1,0-.15-.02c-.26-.08-.41-.36-.33-.63.41-1.3.98-2.57,1.71-3.77.14-.24.45-.31.69-.17.24.14.31.45.17.69-.68,1.13-1.22,2.33-1.61,3.56-.07.21-.26.35-.48.35Zm26.54,0c-.22,0-.42-.15-.48-.37-.33-1.23-.75-2.29-1.3-3.23-.06-.11-.13-.22-.2-.33-.15-.23-.08-.54.16-.69.23-.15.54-.08.69.16.07.12.15.24.22.36.6,1.02,1.06,2.16,1.41,3.48.07.27-.09.54-.36.61-.04.01-.09.02-.13.02Zm3.4-2.71c-.07,0-.13-.01-.2-.04-.25-.11-.37-.4-.26-.66.57-1.31,1.3-2.43,2.16-3.35l.14-.14c.19-.2.51-.2.71,0s.2.51,0,.71l-.12.13c-.79.84-1.46,1.87-1.98,3.07-.08.19-.27.3-.46.3Zm22.12-.14c-.22,0-.42-.14-.48-.36-.38-1.32-.96-2.46-1.71-3.4-.17-.22-.14-.53.08-.7.21-.17.53-.14.7.08.83,1.04,1.47,2.3,1.89,3.75.08.27-.08.54-.34.62-.05.01-.09.02-.14.02Zm-29.74-3.87c-.12,0-.23-.04-.33-.12-.98-.84-2.07-1.57-3.25-2.15-.25-.12-.35-.42-.22-.67.12-.25.42-.35.67-.23,1.25.62,2.41,1.39,3.45,2.29.21.18.23.5.05.71-.1.11-.24.17-.38.17Zm-18.2-.11c-.13,0-.26-.05-.35-.15-.19-.2-.19-.51,0-.71,1.03-1.02,2.15-1.86,3.34-2.49.24-.13.55-.04.68.21.13.24.04.55-.21.68-1.1.58-2.14,1.36-3.1,2.31-.1.1-.22.15-.35.15Zm31.28-1.54c-.18,0-.36-.1-.45-.28-.12-.25-.02-.55.23-.67,1.23-.61,2.55-1.05,3.94-1.32.27-.05.53.12.59.4.05.27-.12.53-.39.59-1.3.25-2.54.67-3.68,1.24-.07.04-.15.05-.22.05Zm11.7-.51c-.07,0-.14-.02-.21-.05-1.11-.52-2.35-.84-3.71-.96-.28-.02-.48-.26-.46-.54.02-.28.28-.48.54-.46,1.47.12,2.84.48,4.05,1.05.25.12.36.42.24.67-.08.18-.26.29-.45.29Zm-31.94-1.38s-.07,0-.1,0c-1.31-.27-2.62-.33-3.85-.18-.27.04-.52-.16-.56-.44-.03-.27.16-.52.44-.56,1.34-.16,2.75-.1,4.17.19.27.05.45.32.39.59-.05.24-.26.4-.49.4Z"/></svg>
