<svg xmlns="http://www.w3.org/2000/svg" viewBox="0 0 96 96"><rect width="96" height="96" fill="#fff" opacity="0"/><path d="M48,18.671L2,41.296l14.995,8.38v20.95c6.947,.198,15.293,1.242,24.302,4.19,2.374,.777,4.609,1.625,6.704,2.514,2.094-.889,4.329-1.737,6.704-2.514,3.791-1.241,7.455-2.128,10.957-2.773l-1.948,5.287h7.542l-2.228-5.839c3.553-.509,6.909-.777,9.979-.865v-20.95l14.995-8.38L48,18.671Z" class="sgmaincolor"/><path d="M94.441,40.399L48.441,17.773c-.279-.137-.604-.137-.883,0L1.559,40.399c-.333,.164-.549,.5-.559,.871-.01,.372,.188,.718,.512,.899l14.482,8.094v20.362c0,.541,.431,.984,.972,1,8.26,.235,16.341,1.629,24.02,4.141,2.226,.728,4.454,1.563,6.624,2.484,.125,.053,.258,.079,.391,.079s.266-.026,.391-.079c2.17-.921,4.398-1.757,6.624-2.484,2.963-.969,5.958-1.75,9.089-2.391l-1.33,3.609c-.113,.307-.068,.649,.118,.918,.187,.268,.493,.428,.82,.428h7.542c.329,0,.637-.162,.823-.433,.187-.271,.229-.616,.111-.924l-1.775-4.653c2.903-.375,5.797-.614,8.621-.694,.541-.016,.972-.459,.972-1v-20.362l14.482-8.094c.324-.182,.521-.527,.512-.899-.01-.371-.226-.707-.559-.871Zm-26.958,25.875c-1.759,0-3.19-1.432-3.19-3.19s1.432-3.189,3.19-3.189,3.189,1.431,3.189,3.189-1.431,3.19-3.189,3.19Zm-2.337,10.056l2.288-6.207,.658,1.724s.002,.002,.002,.003l1.708,4.479h-4.655Zm12.859-6.67c-2.737,.109-5.531,.355-8.328,.731l-.88-2.307c2.223-.586,3.875-2.596,3.875-5.001,0-2.861-2.328-5.189-5.189-5.189s-5.19,2.328-5.19,5.189c0,2.367,1.602,4.347,3.772,4.969l-1.147,3.112c-3.655,.696-7.104,1.582-10.524,2.701-2.146,.701-4.295,1.501-6.394,2.379-2.099-.878-4.247-1.678-6.394-2.379-7.56-2.474-15.498-3.888-23.612-4.207v-21.163c4.617-3.489,9.738-6.153,15.229-7.923,4.777-1.54,9.756-2.37,14.758-2.467,5.041,.097,10.02,.927,14.797,2.467,5.49,1.77,10.611,4.434,15.229,7.923v21.164Zm1.994-21.685c-.008-.301-.145-.583-.384-.767-4.901-3.776-10.36-6.649-16.226-8.54-4.963-1.6-10.135-2.462-15.41-2.562-5.236,.101-10.408,.963-15.371,2.562-5.865,1.891-11.324,4.764-16.226,8.54-.239,.184-.376,.466-.384,.767l-11.85-6.622L48,19.784l43.85,21.568-11.85,6.622Z"/></svg>
