<svg xmlns="http://www.w3.org/2000/svg" viewBox="0 0 96 96">
  <path
    d="m71.863,68.136h18.637V8.136H5.5v60h42.878l5.777,18.966c.375,1.23,2.03,1.357,2.582.199l3.504-7.356c.42-.881,1.565-1.078,2.244-.385l9.613,9.812c.544.555,1.425.555,1.969,0l7.182-7.33c.546-.558.543-1.463-.007-2.016l-9.614-9.68c-.647-.651-.508-1.727.237-2.21Zm-40.863-11c-3.85,0-7-3.15-7-7s3.15-7,7-7h34c3.85,0,7,3.15,7,7s-3.15,7-7,7h-.391l-19.142-6.075c-1.074-.341-2.082.688-1.748,1.784l1.307,4.292h-14.027Z"
    class="sgmaincolor" />
  <path
    d="m13.348,14.229c0,1.105-.9,2-2.009,2-1.11,0-2.009-.895-2.009-2,0-1.102.895-1.996,2.001-2,1.11,0,2.009.895,2.009,2h0" />
  <path
    d="m20.058,14.229c0,1.105-.9,2-2.009,2-1.11,0-2.009-.895-2.009-2,0-1.102.895-1.996,2.001-2,1.11,0,2.009.895,2.009,2h0" />
  <path
    d="m26.769,14.229c0,1.105-.9,2-2.009,2-1.11,0-2.009-.895-2.009-2,0-1.102.895-1.996,2.001-2,1.11,0,2.009.895,2.009,2h0" />
  <path
    d="m90.5,7.14H5.5c-.55,0-1,.44-1,1v60c0,.55.45,1,1,1h42.14l5.56,18.25c.29.96,1.12,1.63,2.11,1.7.99.09,1.9-.46,2.33-1.36l3.5-7.35c.08-.17.22-.22.29-.23.08-.01.22-.02.34.11l9.61,9.81c.45.47,1.06.72,1.7.72s1.25-.25,1.7-.72l7.18-7.33c.93-.94.92-2.48-.01-3.42l-9.61-9.68c-.14-.14-.13-.31-.12-.38,0-.03.01-.07.04-.12h18.24c.55,0,1-.45,1-1V8.14c0-.56-.45-1-1-1Zm-18.93,60l-.04.02c-.69.35-1.16,1-1.29,1.78-.01.07-.02.13-.02.2-.05.71.2,1.41.7,1.91l9.61,9.68c.16.17.17.45,0,.61l-7.18,7.33c-.19.19-.35.19-.54,0l-9.61-9.81c-.46-.46-1.07-.72-1.71-.72-.12,0-.25.01-.38.04-.77.12-1.44.62-1.77,1.34l-3.51,7.35c-.1.22-.27.24-.37.23-.1-.01-.28-.05-.35-.29l-5.38-17.67-.61-2-2.74-9-.61-2-1.09-3.59c-.07-.23.05-.39.11-.44.07-.08.19-.16.38-.1l13.01,4.13,6.29,2,14.3,4.54c.22.07.27.26.28.37.01.08,0,.3-.22.41l-7.26,3.68Zm-28.81-14l.91,3h-12.67c-3.31,0-6-2.69-6-6s2.69-6,6-6h34c3.31,0,6,2.69,6,6s-2.69,6-6,6h-.22l-19.01-6.03c-.84-.27-1.76-.05-2.39.58-.65.64-.88,1.57-.62,2.45Zm46.74,14h-13.49l3.72-1.89c.88-.45,1.39-1.37,1.31-2.36-.08-.99-.73-1.82-1.66-2.12l-10.87-3.45c2.66-1.3,4.49-4.03,4.49-7.18,0-4.41-3.59-8-8-8H31c-4.41,0-8,3.59-8,8s3.59,8,8,8h13.28l2.75,9H6.5V21.44h83v45.7Zm0-47.7H6.5v-10.3h83v10.3Z" />
  <path d="m72.218,37.47H24.218c-.553,0-1-.447-1-1s.447-1,1-1h48c.553,0,1,.447,1,1s-.447,1-1,1Z" />
  <path d="m72.218,30.47H24.218c-.553,0-1-.447-1-1s.447-1,1-1h48c.553,0,1,.447,1,1s-.447,1-1,1Z" />
</svg>
