<svg xmlns="http://www.w3.org/2000/svg" viewBox="0 0 96 96">
    <polygon points="52 53 52 39 30 39 30 71 52 71 52 76 74 76 74 53 52 53" class="sgmaincolor"/>
    <path d="m92,16H4c-.552,0-1,.448-1,1v66c0,.552.448,1,1,1h88c.552,0,1-.448,1-1V17c0-.552-.448-1-1-1Zm-1,66H5v-42h24v31c0,.552.448,1,1,1h21v4c0,.552.448,1,1,1h22c.552,0,1-.448,1-1v-23c0-.552-.448-1-1-1h-21v-12h38v42Zm-38-28h20v21h-20v-21Zm-22-14h20v30h-20v-30Zm60-2H5v-20h86v20Z"/>
    <path d="m45,29h-8c-.552,0-1-.448-1-1s.448-1,1-1h8c.552,0,1,.448,1,1s-.448,1-1,1Z"/>
    <path d="m32,29h-8c-.552,0-1-.448-1-1s.448-1,1-1h8c.552,0,1,.448,1,1s-.448,1-1,1Z"/>
    <path d="m58,29h-8c-.552,0-1-.448-1-1s.448-1,1-1h8c.552,0,1,.448,1,1s-.448,1-1,1Z"/>
    <path d="m71,29h-8c-.552,0-1-.448-1-1s.448-1,1-1h8c.552,0,1,.448,1,1s-.448,1-1,1Z"/>
    <path d="m46,49h-10c-.552,0-1-.448-1-1s.448-1,1-1h10c.552,0,1,.448,1,1s-.448,1-1,1Z"/>
    <path d="m46,56h-10c-.552,0-1-.448-1-1s.448-1,1-1h10c.552,0,1,.448,1,1s-.448,1-1,1Z"/>
    <path d="m46,63h-10c-.552,0-1-.448-1-1s.448-1,1-1h10c.552,0,1,.448,1,1s-.448,1-1,1Z"/>
    <path d="m68,63h-10c-.552,0-1-.448-1-1s.448-1,1-1h10c.552,0,1,.448,1,1s-.448,1-1,1Z"/>
    <path d="m68,70h-10c-.552,0-1-.448-1-1s.448-1,1-1h10c.552,0,1,.448,1,1s-.448,1-1,1Z"/>
</svg>
