<svg xmlns="http://www.w3.org/2000/svg" viewBox="0 0 96 96"><g fill="none" opacity="0"><rect width="96" height="96" fill="#fff"/></g><path d="m16.34,9.24v82.57h64.22V9.24H16.34Zm63.22,81.57H17.34V10.24h62.22v80.57Z"/><path d="m80.56,8.24H16.34c-.55,0-1,.45-1,1v82.57c0,.55.45,1,1,1h64.22c.56,0,1-.45,1-1V9.24c0-.55-.44-1-1-1Zm-1,82.57H17.34V10.24h62.22v80.57Z"/><path d="m48,71.99c-.2,0-.4-.06-.58-.18L5.82,42.4c-.45-.32-.56-.94-.24-1.39.32-.45.94-.56,1.39-.24l41.03,29,41.03-29c.45-.32,1.08-.21,1.39.24.32.45.21,1.08-.24,1.39l-41.61,29.4c-.17.12-.38.18-.58.18Z"/><path d="m89.61,42.59c-.21,0-.43-.07-.61-.21l-9.04-6.93c-.44-.34-.52-.96-.19-1.4.34-.44.96-.52,1.4-.19l9.04,6.93c.44.34.52.96.19,1.4-.2.26-.49.39-.79.39Z"/><path d="m6.39,42.58c-.32,0-.63-.15-.82-.43-.31-.45-.2-1.08.26-1.39l9.95-6.86c.45-.31,1.08-.2,1.39.26.31.45.2,1.08-.26,1.39l-9.95,6.86c-.17.12-.37.18-.57.18Z"/><polygon points="89.61 91.91 88.43 72.85 89.61 71.75 89.61 70.99 89.61 41.58 60.61 62.08 48 70.99 35.39 62.08 16.34 48.61 6.39 41.58 6.39 91.91 58.97 91.91 89.61 91.91" class="sgmaincolor"/><path d="m89.61,92.91H6.39c-.55,0-1-.45-1-1v-50.33c0-.37.21-.72.54-.89.33-.17.73-.15,1.04.07l41.03,28.99,41.03-28.99c.3-.21.71-.24,1.04-.07.33.17.54.51.54.89v50.33c0,.55-.45,1-1,1Zm-82.21-2h81.21v-47.39l-40.03,28.29c-.35.24-.81.24-1.15,0L7.39,43.51v47.39Z"/><path d="m80.56,9.24v9.94h-21.54c-.61-.37-1.25-.7-1.9-1-2.7-1.27-5.71-1.97-8.89-1.97s-6.18.7-8.88,1.97c-.65.3-1.29.63-1.9,1h-21.11v-9.94h64.22Z" class="sgmaincolor"/><path d="m15.34,8.24v11.94h20.6c.49-.36.99-.69,1.51-1,.61-.37,1.25-.7,1.9-1h-22.01v-7.94h62.22v7.94h-22.44c.65.3,1.29.63,1.9,1,.52.31,1.02.64,1.51,1h21.03v-11.94H15.34Z"/><path d="m69.3,15.19c-.55,0-1-.45-1-1V4.06c0-.55.45-1,1-1s1,.45,1,1v10.13c0,.55-.45,1-1,1Z"/><path d="m27.61,15.19c-.55,0-1-.45-1-1V4.06c0-.55.45-1,1-1s1,.45,1,1v10.13c0,.55-.45,1-1,1Z"/><path d="m67.51,46.71c-.13,0-.27-.03-.4-.08-.51-.22-.74-.81-.52-1.32,4.05-9.34.47-20.26-8.34-25.38-8.55-4.97-19.65-2.9-25.82,4.81-.35.43-.98.5-1.41.16-.43-.34-.5-.97-.16-1.41,6.79-8.49,18.99-10.76,28.38-5.29,9.68,5.64,13.63,17.63,9.17,27.91-.16.38-.53.6-.92.6Z"/><path d="m48.06,59.42c-3.79,0-7.61-.96-11.05-2.96-9.68-5.64-13.62-17.63-9.17-27.91.22-.51.81-.74,1.32-.52.51.22.74.81.52,1.32-4.05,9.34-.47,20.26,8.34,25.38,8.53,4.96,19.62,2.91,25.79-4.78.35-.43.98-.5,1.41-.15.43.35.5.98.15,1.41-4.3,5.35-10.76,8.22-17.31,8.22Z"/><path d="m66.72,47.77c-.4,0-.77-.24-.93-.63l-2.15-5.35c-.21-.51.04-1.09.55-1.3.51-.21,1.09.04,1.3.55l1.78,4.42,4.42-1.78c.51-.21,1.09.04,1.3.55.21.51-.04,1.09-.55,1.3l-5.35,2.15c-.12.05-.25.07-.37.07Z"/><path d="m31.82,33.66c-.37,0-.72-.2-.9-.55l-2.12-4.26-4.26,2.12c-.5.24-1.1.04-1.34-.45s-.04-1.09.45-1.34l5.16-2.57c.49-.25,1.09-.04,1.34.45l2.57,5.16c.25.49.04,1.09-.45,1.34-.14.07-.3.1-.44.1Z"/><path d="m35.61,32.19c.7-.58,1.62-.87,2.77-.87.78,0,1.45.14,2.01.41.56.27.98.64,1.26,1.11.28.46.42.99.42,1.58,0,.67-.17,1.24-.52,1.71s-.76.78-1.24.94v.06c.62.19,1.1.54,1.45,1.03s.52,1.12.52,1.89c0,.64-.15,1.21-.44,1.72-.29.5-.73.9-1.3,1.18-.57.28-1.26.43-2.06.43-1.21,0-2.19-.31-2.95-.92-.76-.61-1.16-1.51-1.2-2.7h2.18c.02.52.2.94.54,1.26s.8.47,1.39.47c.55,0,.97-.15,1.26-.46.29-.31.44-.7.44-1.18,0-.64-.2-1.1-.61-1.38-.41-.28-1.04-.42-1.89-.42h-.47v-1.85h.47c1.52,0,2.28-.51,2.28-1.52,0-.46-.14-.82-.41-1.08-.27-.26-.67-.39-1.18-.39s-.89.14-1.16.41c-.27.27-.43.62-.47,1.04h-2.2c.05-1.07.43-1.9,1.13-2.48Z"/><path d="m49.09,33.5c-.26-.22-.64-.34-1.13-.34-.74,0-1.28.3-1.63.89s-.53,1.56-.54,2.9c.26-.43.63-.76,1.12-1s1.03-.36,1.6-.36c.69,0,1.31.15,1.84.45s.95.74,1.25,1.31.45,1.26.45,2.06c0,.76-.15,1.44-.46,2.03-.3.59-.75,1.06-1.34,1.39-.59.33-1.29.5-2.1.5-1.11,0-1.99-.25-2.62-.74-.64-.49-1.08-1.18-1.33-2.06-.25-.88-.38-1.97-.38-3.27,0-1.96.34-3.44,1.01-4.44.67-1,1.74-1.5,3.19-1.5,1.12,0,1.99.3,2.62.91.62.61.98,1.37,1.07,2.28h-2.09c-.11-.45-.29-.79-.55-1.01Zm-2.51,4.43c-.39.33-.58.81-.58,1.44s.18,1.13.54,1.49c.36.36.86.55,1.52.55.58,0,1.03-.18,1.37-.53.34-.35.51-.83.51-1.43s-.16-1.11-.49-1.48c-.33-.36-.8-.55-1.44-.55-.57,0-1.04.17-1.43.5Z"/><path d="m61.23,33.53h-5.2v2.74c.22-.28.55-.51.96-.68.42-.18.86-.27,1.33-.27.85,0,1.56.19,2.1.56.55.37.94.85,1.19,1.44.25.58.37,1.21.37,1.87,0,1.23-.35,2.22-1.05,2.97s-1.7,1.12-2.99,1.12c-1.22,0-2.19-.3-2.92-.91-.73-.61-1.14-1.41-1.23-2.39h2.18c.1.43.31.77.65,1.03.34.26.77.39,1.29.39.63,0,1.11-.2,1.43-.59.32-.4.48-.92.48-1.57s-.16-1.17-.49-1.52-.8-.52-1.44-.52c-.45,0-.82.11-1.12.34s-.51.52-.64.9h-2.15v-6.87h7.25v1.97Z"/></svg>
