<svg xmlns="http://www.w3.org/2000/svg" viewBox="0 0 96 96"><path d="M62.47,24.479c-5.539,0-10.696,1.621-15.037,4.404,.001,0,.003,.002,.004,.004-.106-.09-.206-.187-.314-.275-2.953-2.438-6.509-4.162-10.402-4.958l4.276-5.559-2.531-2.247-3.934-.781-4.938,.017-3.841,.623-2.929,2.311,4.363,5.602c-10.946,2.193-19.193,11.856-19.193,23.447,0,13.208,10.708,23.916,23.916,23.916,2.986,0,5.843-.552,8.479-1.552,5.103,6.6,13.093,10.854,22.08,10.854,15.41,0,27.902-12.492,27.902-27.902s-12.492-27.902-27.902-27.902Zm-13.085,6.265c-.614-.654-1.265-1.274-1.947-1.857,.682,.583,1.333,1.203,1.947,1.857ZM13.31,47.066c0-10.273,8.328-18.601,18.601-18.601,4.225,0,8.121,1.409,11.245,3.782,.002,0,.003,.003,.005,.004-5.292,5.078-8.592,12.216-8.592,20.13,0,4.468,1.056,8.688,2.923,12.432-1.762,.553-3.636,.854-5.58,.854-10.273,0-18.601-8.328-18.601-18.601Zm26.573,5.315c0-6.432,2.693-12.231,7.007-16.345,0,0,0-.001-.002-.002,2.277,3.086,3.623,6.902,3.623,11.032,0,6.433-3.266,12.102-8.23,15.442-1.531-3.047-2.399-6.485-2.399-10.127Zm3.999,12.811c-.334-.484-.656-.977-.952-1.486,.296,.51,.618,1.002,.952,1.486Zm1.112,1.472c-.272-.333-.534-.672-.787-1.02,.253,.348,.515,.688,.787,1.02Zm17.477,8.305c-6.924,0-13.109-3.124-17.251-8.03,6.397-4.292,10.608-11.59,10.608-19.872,0-5.328-1.742-10.249-4.688-14.225-.275-.372-.563-.734-.859-1.088-.237-.284-.485-.559-.735-.83-.054-.059-.105-.121-.159-.179,.624,.664,1.21,1.363,1.754,2.097,0,0,.001,.002,.002,.002,3.331-1.936,7.199-3.05,11.33-3.05,12.474,0,22.587,10.113,22.587,22.587s-10.113,22.587-22.587,22.587Z" class="sgmaincolor"/><path d="M62.47,23.479c-5.288,0-10.433,1.456-14.942,4.187-2.682-2.161-5.783-3.724-9.076-4.625l3.338-4.341s0-.002,.002-.003c.063-.083,.115-.177,.151-.282,0,0,0-.002,0-.003,.004-.011,.002-.023,.005-.034,.021-.068,.022-.137,.028-.207,.004-.048,.021-.096,.018-.145,0-.012-.005-.022-.007-.034-.007-.067-.032-.129-.052-.194-.015-.047-.017-.098-.039-.143-.005-.01-.013-.018-.018-.027-.028-.054-.072-.097-.11-.146-.037-.047-.064-.101-.109-.141l-2.529-2.243c-.016-.015-.038-.019-.055-.032-.052-.041-.11-.069-.17-.099-.062-.031-.122-.061-.188-.078-.02-.005-.035-.02-.056-.023l-3.934-.78c-.034-.007-.066,.003-.1,0-.033-.003-.061-.019-.095-.019h-.002l-4.944,.008c-.04,0-.074,.019-.112,.023-.014,.001-.026-.004-.04-.001l-3.841,.623c-.018,.003-.032,.015-.05,.019-.064,.014-.123,.042-.184,.069-.062,.027-.123,.051-.178,.09-.015,.01-.032,.012-.047,.023l-2.924,2.308h0l-.005,.004c-.038,.03-.058,.072-.091,.107-.052,.054-.107,.104-.145,.169-.005,.009-.014,.015-.019,.024-.026,.047-.031,.1-.049,.149-.022,.062-.05,.119-.06,.185-.002,.01-.007,.019-.009,.03-.008,.061,.009,.123,.013,.184,.003,.051-.009,.101,.003,.153,.002,.008,.007,.014,.009,.022,.002,.007,0,.015,.003,.022,.008,.03,.031,.056,.042,.085,.031,.083,.066,.161,.115,.23,.008,.012,.01,.026,.018,.037l3.407,4.375c-10.613,2.856-18.449,12.558-18.449,24.06,0,13.738,11.178,24.916,24.916,24.916,2.787,0,5.517-.481,8.138-1.39,5.304,6.518,13.383,10.69,22.421,10.69,15.937,0,28.902-12.966,28.902-28.902s-12.966-28.902-28.902-28.902Zm-23.115-4.893l-3.05,3.966c-.489-.088-.983-.148-1.477-.207l.837-3.464,2.358-.751,1.332,.456Zm-4.916-2.519l2.138,.424-1.684,.536-2.072-.958,1.619-.003Zm-.777,2.595l-.852,3.527c-.3-.011-.598-.039-.899-.039-.174,0-.346,.01-.519,.013l-.742-3.48,1.467-.735,1.545,.714Zm-3.929-2.587l1.665-.003-2.006,1.006-2.354-.566,2.695-.437Zm-5.145,2.578l1.455-.323,2.622,.631,.708,3.319c-.595,.061-1.182,.149-1.764,.251l-3.021-3.878Zm7.323,51.331c-12.636,0-22.916-10.28-22.916-22.916s10.28-22.916,22.916-22.916c5.282,0,10.426,1.84,14.502,5.176l.371,.317c.128,.109,.248,.226,.374,.337,.522,.466,1.028,.948,1.496,1.446l.155,.174c.239,.26,.477,.521,.703,.793,.268,.322,.528,.651,.779,.988l.321,.462c2.751,3.88,4.214,8.437,4.214,13.223,0,7.343-3.499,14.192-9.405,18.508-.241-.312-.484-.622-.708-.946-.057-.082-.118-.16-.173-.243-.342-.509-.659-1.036-.957-1.574,4.982-3.695,7.929-9.514,7.929-15.745,0-3.922-1.154-7.664-3.32-10.892l.012-.012-.511-.724c-.651-.882-1.382-1.699-2.169-2.46-.109-.105-.218-.208-.329-.311-.459-.423-.93-.833-1.429-1.213l-.003-.002s-.001-.001-.002-.002c-.001,0-.002-.001-.003-.002l-.698-.488c-3.285-2.281-7.117-3.497-11.15-3.497-10.808,0-19.601,8.793-19.601,19.602s8.793,19.601,19.601,19.601c1.718,0,3.419-.224,5.07-.665,.019,.036,.042,.07,.061,.106,.232,.428,.474,.85,.726,1.264,.137,.226,.284,.445,.428,.667,.134,.207,.267,.416,.406,.619,.061,.089,.116,.183,.178,.271-2.221,.699-4.525,1.053-6.87,1.053Zm20.681-36.784c3.047-1.57,6.437-2.404,9.879-2.404,11.903,0,21.587,9.684,21.587,21.587s-9.684,21.588-21.587,21.588c-6.216,0-11.81-2.656-15.753-6.875,6.347-4.697,10.109-12.094,10.109-20.027,0-4.997-1.472-9.761-4.235-13.868Zm-9.909,27.784c-1.151-2.638-1.799-5.544-1.799-8.602,0-5.556,2.093-10.741,5.877-14.757,1.8,2.819,2.752,6.058,2.752,9.443,0,5.472-2.534,10.589-6.83,13.916Zm-1.067-28.593c-5.196,5.407-8.047,12.458-8.047,19.991,0,4.194,.905,8.178,2.519,11.779-1.364,.333-2.763,.507-4.176,.507-9.705,0-17.601-7.896-17.601-17.601s7.896-17.602,17.601-17.602c3.496,0,6.826,1.013,9.704,2.925Zm20.855,46.894c-8.777,0-16.585-4.227-21.498-10.75-.054-.072-.106-.145-.159-.216-.2-.271-.396-.545-.586-.823-.063-.093-.124-.188-.186-.281-.174-.262-.345-.526-.51-.795-.07-.114-.137-.229-.205-.345-.151-.254-.3-.51-.443-.769-.074-.134-.143-.27-.215-.405-1.976-3.742-3.1-8-3.1-12.518,0-7.088,2.709-13.72,7.646-18.774,.151,.127,.304,.25,.451,.382,.177,.16,.355,.319,.525,.486,.272,.265,.531,.543,.785,.826,.157,.173,.319,.342,.469,.522,.036,.044,.07,.089,.106,.134-4.306,4.426-6.667,10.223-6.667,16.425,0,3.486,.766,6.795,2.129,9.775l-.02,.014,.396,.787c.053,.106,.114,.208,.169,.313,.108,.206,.217,.41,.331,.612,.102,.182,.206,.363,.312,.543,.104,.174,.211,.345,.32,.516,.122,.193,.243,.387,.37,.577,.081,.121,.168,.237,.251,.356,.314,.45,.643,.888,.987,1.313,.057,.07,.111,.143,.169,.212,.051,.062,.098,.127,.15,.188l.577,.684,.02-.013c4.317,4.734,10.531,7.709,17.427,7.709,13.006,0,23.587-10.581,23.587-23.588s-10.581-23.587-23.587-23.587c-3.86,0-7.666,.951-11.062,2.758-.055-.068-.116-.132-.172-.2-.064-.079-.124-.162-.189-.239-.197-.235-.408-.472-.637-.725-.06-.066-.119-.133-.18-.199l-.116-.129c-.319-.339-.651-.672-.993-.999-.007-.007-.013-.014-.02-.021,4.064-2.334,8.658-3.562,13.369-3.562,14.834,0,26.902,12.068,26.902,26.902s-12.068,26.902-26.902,26.902Z"/></svg>
