<svg xmlns="http://www.w3.org/2000/svg" viewBox="0 0 96 96"><rect x="0" y="0" width="96" height="96" fill="#fff" opacity="0"/><path d="M95,52.878l-7.131-7.577-5.093-16.236h-17.317l-.428-9.586-52.543,.377v7.391h12.505c3.781,.263,6.756,3.332,6.902,7.119v1.934c.091,2.017,1.604,3.684,3.602,3.969,1.133,.19,1.968,1.164,1.982,2.313,.109,1.373-.916,2.573-2.289,2.682-.067,.005-.134,.008-.201,.008H15.996c-1.032-.014-1.952-.634-2.729-1.463l-.779,.194v11.798l7.543,.79-.328,12.098,6.028,.454c-.107,4.06,3.095,7.439,7.155,7.551,4.06-.142,7.239-3.543,7.106-7.604v.027h34.635v.027c-.018,.298-.016,.596,.003,.894,.261,3.937,3.665,6.917,7.602,6.655,3.928-.261,6.902-3.65,6.656-7.575h6.112v-16.237Z" class="sgmaincolor"/><path d="M95.729,52.194l-6.974-7.41-5.024-16.019c-.131-.417-.518-.701-.954-.701h-16.317v-8.771c0-.064-.025-.12-.036-.18-.009-.04-.01-.08-.024-.119-.128-.404-.493-.701-.94-.701H12.488c-.553,0-1,.447-1,1v6.954H1c-.318,0-.618,.152-.807,.409s-.243,.589-.146,.893c.498,1.574,2.342,6.704,5.172,6.703h.048c.52,1.485,1.929,4.744,4.545,5.741,.237,.597,.808,1.911,1.677,3.183v13.003c0,.266,.105,.52,.293,.707s.442,.293,.707,.293h6.131v11.395c0,.096,.029,.182,.054,.27-.025,.088-.054,.174-.054,.27,0,.553,.447,1,1,1h5.207c.581,4.06,4.072,7.195,8.29,7.195s7.709-3.134,8.291-7.192h31.175c.042,0,.078-.019,.119-.024,.572,4.071,4.068,7.216,8.295,7.216s7.708-3.134,8.29-7.192h5.715c.553,0,1-.447,1-1v-16.236c0-.255-.098-.5-.271-.686Zm-48.604-15.568c-.039-.039-.089-.056-.132-.087l17.466-15.036V53.777l-17.334-17.152ZM13.488,20.293H62.799l-24.538,21.123c-.416-1.097-1.39-1.932-2.621-2.138-1.522-.217-2.677-1.488-2.744-2.979v-1.973c-.167-4.306-3.534-7.779-7.902-8.08H13.488v-5.954Zm-6.088,13.959h6.595c.553,0,1-.447,1-1s-.447-1-1-1H5.223c-.773,0-1.962-1.919-2.801-4.005l22.502-.002c3.277,.228,5.846,2.876,5.972,6.121v1.979c.112,2.494,1.988,4.561,4.438,4.91,.656,.109,1.139,.673,1.149,1.405,.065,.821-.55,1.542-1.365,1.606l-19.107,.005c-1.582-.022-3.066-2.336-3.888-4.008h6.874c.553,0,1-.447,1-1s-.447-1-1-1h-7.936c-1.742-.249-3-2.402-3.66-4.012Zm6.088,11.09c.739,.548,1.575,.916,2.508,.929h18.993c.092,0,.184-.004,.28-.011,.93-.073,1.776-.505,2.382-1.215,.247-.29,.428-.616,.567-.954l7.325-6.306c.047,.092,.098,.184,.175,.261l17.308,17.126h-27.332l-.015,.003-22.191,.003v-9.837Zm19.628,29.966c-3.521,0-6.385-2.864-6.385-6.385s2.864-6.385,6.385-6.385,6.386,2.864,6.386,6.385-2.864,6.385-6.386,6.385Zm47.879,0c-3.521,0-6.386-2.864-6.386-6.385s2.864-6.385,6.386-6.385,6.385,2.864,6.385,6.385-2.864,6.385-6.385,6.385Zm13.005-7.192h-4.661c-.408-4.245-3.993-7.577-8.344-7.577s-7.944,3.339-8.345,7.591c-.024-.002-.044-.014-.068-.014h-31.121c-.408-4.245-3.993-7.577-8.345-7.577s-7.934,3.33-8.344,7.574h-4.153v-10.935l15.902-.002,.015-.003h28.923c.131,0,.261-.026,.384-.077,.123-.051,.233-.125,.326-.219h.002c.015-.016,.019-.036,.033-.051,.072-.082,.137-.171,.18-.274,.039-.096,.052-.198,.06-.3,.002-.028,.016-.051,.016-.08V30.064h15.583l4.465,14.237h-12.898c-.553,0-1,.447-1,1s.447,1,1,1h13.826l6.564,6.975v14.84Z"/></svg>