<svg xmlns="http://www.w3.org/2000/svg" viewBox="0 0 96 96"><rect width="96" height="96" fill="#fff" opacity="0"/><path d="M84.355,59.986c-.011-1.602-1.326-2.892-2.938-2.881,0,0-.001,0-.002,0l-5.297,.051,5.435-2.93c1.417-.765,1.943-2.526,1.175-3.936l-9.132-16.745c-.769-1.409-2.542-1.931-3.96-1.168l-6.703,3.611,4.532-7.505c.831-1.373,.384-3.156-.997-3.982l-16.421-9.813c-1.382-.826-3.176-.382-4.007,.991l-6.432,10.635-.07-11.626V82.232l42.042-.284c1.612-.011,2.91-1.318,2.899-2.92,0,0,0-.001,0-.002l-.124-19.041Z" class="sgmaincolor"/><path d="M26.721,67.926c1.986,0,3.596,1.6,3.596,3.574s-1.61,3.574-3.596,3.574-3.596-1.6-3.596-3.574,1.61-3.574,3.596-3.574Zm58.635-7.949c-.016-2.142-1.771-3.873-3.921-3.873h-.029l-1.264,.012,1.887-1.017c.923-.498,1.596-1.324,1.893-2.327,.296-.998,.185-2.052-.314-2.967l-9.133-16.745c-1.032-1.889-3.416-2.591-5.312-1.568l-3.471,1.871,2.637-4.359c.54-.892,.698-1.939,.447-2.95-.252-1.015-.887-1.87-1.787-2.408l-16.426-9.814c-1.849-1.105-4.262-.508-5.375,1.332l-4.697,7.766v-5.55c0-2.151-1.759-3.902-3.92-3.902H17.406c-2.162,0-3.921,1.751-3.921,3.902v61.991c0,2.151,1.759,3.902,3.921,3.902h16.324s.006,.002,.01,.002h.007l.289-.002h2.536c.064,0,.125-.015,.188-.018l44.835-.303c1.046-.008,2.025-.42,2.761-1.161,.735-.742,1.137-1.726,1.129-2.768l-.13-19.045Zm-15.245-26.725c.931-.502,2.102-.159,2.607,.766l9.133,16.744c.242,.444,.297,.957,.153,1.441-.146,.488-.474,.892-.925,1.136l-5.341,2.878c-.111,.036-.21,.091-.3,.162l-8.734,4.706-8.084-14.819c-.11-.202-.286-.335-.481-.421l5.513-9.112,6.459-3.48Zm-19.996,36.77l-3.131-5.739,10.09-16.678,7.87,14.427-14.829,7.989Zm-9.625,5.186v-.191s.002-.002,.003-.004l5.293-8.75,2.568,4.707-7.864,4.238Zm4.599-11.655c-.105,.113-.189,.24-.233,.385l-4.366,7.217v-15.63l6.943,4.152-2.344,3.875Zm1.809-47.355c.546-.902,1.725-1.196,2.639-.65l16.425,9.814c.439,.263,.75,.68,.872,1.174,.122,.491,.045,.999-.217,1.433l-4.466,7.382c-.055,.063-.089,.136-.126,.209l-3.832,6.334-14.536-8.688c-.472-.281-1.088-.13-1.371,.346-.283,.474-.129,1.088,.346,1.371l14.526,8.683-8.688,14.361-7.979-4.772V26.792l6.408-10.595ZM15.485,79.369V17.378c0-1.049,.861-1.902,1.921-1.902h19.163c1.059,0,1.92,.854,1.92,1.902v16.242H21.53c-.553,0-1,.447-1,1s.447,1,1,1h16.959v16.754H21.53c-.553,0-1,.447-1,1s.447,1,1,1h16.959v24.995c0,.507-.198,.983-.56,1.342-.316,.316-.728,.498-1.169,.542l-2.74,.019H17.406c-1.06,0-1.921-.854-1.921-1.902Zm24.51,1.862c.312-.567,.494-1.198,.494-1.863v-1.89l3.855-2.077c-.008,.053-.031,.102-.03,.157l.047,5.643-4.366,.03Zm6.366-.042l-.047-5.647c-.003-.396-.241-.731-.577-.89l17.377-9.362,.116,15.785-16.869,.114Zm36.574-.808c-.36,.363-.842,.565-1.355,.569l-16.35,.11-.118-16.069c-.002-.248-.103-.468-.254-.642l11.504-6.198,5.06-.048h.015c1.052,0,1.911,.844,1.919,1.888l.13,19.044c.004,.507-.191,.984-.55,1.346Z"/></svg>