<svg xmlns="http://www.w3.org/2000/svg" viewBox="0 0 96 96"><g opacity="0"><rect width="96" height="96" fill="#fff"/></g><path d="M91.903,82.505l-24.897-24.601c3.832-5.507,6.081-12.169,6.081-19.342,0-18.874-15.541-34.229-34.644-34.229S3.8,19.688,3.8,38.562s15.541,34.229,34.644,34.229c7.263,0,14.008-2.224,19.583-6.013l24.92,24.606c.194,.192,.448,.288,.702,.288s.508-.096,.702-.288l7.552-7.456c.19-.188,.298-.444,.298-.712s-.107-.523-.297-.711ZM5.8,38.562C5.8,20.79,20.443,6.332,38.443,6.332s32.644,14.458,32.644,32.229-14.644,32.229-32.644,32.229S5.8,56.333,5.8,38.562Zm77.849,50.705l-23.982-23.68c2.292-1.761,4.353-3.798,6.134-6.062l23.977,23.691-6.129,6.051Z"/><ellipse cx="38.444" cy="38.561" rx="24.8" ry="24.197" class="sgmaincolor"/><path d="M38.443,63.758c-14.226,0-25.8-11.303-25.8-25.196S24.218,13.364,38.443,13.364s25.801,11.304,25.801,25.197-11.574,25.196-25.801,25.196Zm0-48.394c-13.123,0-23.8,10.406-23.8,23.197s10.677,23.196,23.8,23.196,23.801-10.406,23.801-23.196-10.677-23.197-23.801-23.197Z"/><path d="M54.415,42.58l-2.587-3.133c-.19-.23-.473-.363-.771-.363h-5.004v-.815l4.194-2.322c.318-.176,.516-.512,.516-.875v-5.012c0-.553-.447-1-1-1s-1,.447-1,1v4.422l-2.71,1.5v-.706c0-.271-.109-.53-.305-.719l-3.305-3.2c-.023-.023-.055-.032-.08-.052,.246-.534,.385-1.113,.385-1.717,0-2.316-1.931-4.2-4.305-4.2s-4.304,1.884-4.304,4.2c0,.603,.139,1.183,.384,1.717-.025,.02-.056,.029-.08,.052l-3.305,3.2c-.195,.188-.305,.448-.305,.719v.706l-2.71-1.5v-4.422c0-.553-.447-1-1-1s-1,.447-1,1v5.012c0,.363,.197,.699,.516,.875l4.194,2.322v.815h-5.004c-.299,0-.581,.133-.771,.363l-2.587,3.133c-.352,.426-.291,1.057,.135,1.408,.187,.153,.412,.229,.636,.229,.288,0,.574-.124,.772-.363l2.286-2.77h4.533v1.442l-4.194,2.322c-.318,.176-.516,.512-.516,.875v5.012c0,.553,.447,1,1,1s1-.447,1-1v-4.422l2.71-1.5v.705c0,.271,.109,.53,.305,.719l3.305,3.201c.187,.181,.436,.281,.695,.281h6.608c.26,0,.509-.101,.695-.281l3.305-3.201c.195-.188,.305-.448,.305-.719v-.705l2.71,1.5v4.422c0,.553,.447,1,1,1s1-.447,1-1v-5.012c0-.363-.197-.699-.516-.875l-4.194-2.322v-1.442h4.533l2.286,2.77c.198,.239,.484,.363,.772,.363,.224,0,.449-.075,.636-.229,.426-.352,.486-.982,.135-1.408Zm-15.972-15.191c1.271,0,2.305,.987,2.305,2.2,0,.557-.221,1.08-.613,1.487h-3.382c-.393-.407-.613-.931-.613-1.487,0-1.213,1.033-2.2,2.304-2.2Zm-5.608,17.705v-9.394l2.71-2.624h1.898v14.643h-1.898l-2.71-2.625Zm11.218,0l-2.71,2.625h-1.899v-14.643h1.899l2.71,2.624v9.394Z"/></svg>