<svg xmlns="http://www.w3.org/2000/svg" viewBox="0 0 96 96">
    <rect x="21.08" y="28" width="53.92" height="30" class="sgmaincolor"/>
    <path d="m75,59H21.08c-.552,0-1-.448-1-1v-30c0-.552.448-1,1-1h53.92c.552,0,1,.448,1,1v30c0,.552-.448,1-1,1Zm-52.92-2h51.92v-28H22.08v28Z"/>
    <path d="m75,64H21.08c-.552,0-1-.448-1-1s.448-1,1-1h53.92c.552,0,1,.448,1,1s-.448,1-1,1Z"/>
    <path d="m43.047,69h-22.047c-.552,0-1-.448-1-1s.448-1,1-1h22.047c.552,0,1,.448,1,1s-.448,1-1,1Z"/>
    <path d="m92,80H4c-.552,0-1-.448-1-1V17c0-.552.448-1,1-1h88c.552,0,1,.448,1,1v62c0,.552-.448,1-1,1Zm-87-2h86V18H5v60Z"/>
</svg>
