<svg id="uuid-7ca14242-ef4e-48df-81b4-45c9aa866f7c" xmlns="http://www.w3.org/2000/svg" viewBox="0 0 96 96">
    <rect x="4" y="16" width="88" height="26" class="sgmaincolor"/>
    <path d="m92,15H4c-.552,0-1,.448-1,1v66c0,.552.448,1,1,1h88c.552,0,1-.448,1-1V16c0-.552-.448-1-1-1ZM5,17h86v24H5v-24Zm86,64H5v-38h86v38Z"/>
    <path d="m25,33.882h-14c-.487,0-.882-.395-.882-.882v-8c0-.487.395-.882.882-.882h14c.487,0,.882.395.882.882v8c0,.487-.395.882-.882.882Zm-13.118-1.764h12.236v-6.236h-12.236v6.236Z"/>
    <path d="m60,30h-8c-.552,0-1-.448-1-1s.448-1,1-1h8c.552,0,1,.448,1,1s-.448,1-1,1Z"/>
    <path d="m48,30h-8c-.552,0-1-.448-1-1s.448-1,1-1h8c.552,0,1,.448,1,1s-.448,1-1,1Z"/>
    <path d="m72,30h-8c-.552,0-1-.448-1-1s.448-1,1-1h8c.552,0,1,.448,1,1s-.448,1-1,1Z"/>
    <path d="m84,30h-8c-.552,0-1-.448-1-1s.448-1,1-1h8c.552,0,1,.448,1,1s-.448,1-1,1Z"/>
</svg>
