
<svg id="uuid-0fd91f96-b7de-429f-a475-c5798ae75299" xmlns="http://www.w3.org/2000/svg" viewBox="0 0 96 96">
    <rect id="uuid-9589c91a-66fd-447c-97f2-851e15c1660f" x="47.989" y="32.989" width="44.023" height="30.023"
          class="sgmaincolor"/>
    <path d="m92,16H4c-.552,0-1,.448-1,1v62c0,.552.448,1,1,1h88c.552,0,1-.448,1-1V17c0-.552-.448-1-1-1ZM5,50.579c.27.036.552-.029.777-.217l11.338-9.546,12.768,13.55c.197.209.462.314.728.314.246,0,.493-.09.686-.272.402-.379.421-1.012.042-1.414l-6.283-6.668,2.406-2.323,12.741,12.769c.195.195.452.293.708.293s.511-.097.707-.292c.391-.39.392-1.023.001-1.415l-13.436-13.465c-.386-.386-1.011-.392-1.403-.013l-3.096,2.99-5.761-6.115c-.364-.387-.966-.421-1.372-.08l-11.55,9.724v-14.423h42v28.045H5v-11.444Zm86,27.421H5v-14h86v14Zm0-15.978h-42v-28.045h42v28.045Zm0-30.022H5v-14h86v14Z"/>
    <path d="m38.871,45.39c-2.481,0-4.5-2.019-4.5-4.5s2.019-4.5,4.5-4.5,4.5,2.019,4.5,4.5-2.019,4.5-4.5,4.5Zm0-7c-1.378,0-2.5,1.122-2.5,2.5s1.122,2.5,2.5,2.5,2.5-1.122,2.5-2.5-1.122-2.5-2.5-2.5Z"/>
    <path d="m85,40h-30c-.552,0-1-.448-1-1s.448-1,1-1h30c.552,0,1,.448,1,1s-.448,1-1,1Z"/>
    <path d="m85,46h-30c-.552,0-1-.448-1-1s.448-1,1-1h30c.552,0,1,.448,1,1s-.448,1-1,1Z"/>
    <path d="m85,52h-30c-.552,0-1-.448-1-1s.448-1,1-1h30c.552,0,1,.448,1,1s-.448,1-1,1Z"/>
    <path d="m65,58h-10c-.552,0-1-.448-1-1s.448-1,1-1h10c.552,0,1,.448,1,1s-.448,1-1,1Z"/>
</svg>
