<svg xmlns="http://www.w3.org/2000/svg" viewBox="0 0 96 96">
    <rect x="10" y="34" width="22" height="18" class="sgmaincolor"/>
    <rect x="37" y="34" width="22" height="18" class="sgmaincolor"/>
    <rect x="64" y="34" width="22" height="18" class="sgmaincolor"/>
    <path d="m32,53H10c-.552,0-1-.448-1-1v-18c0-.552.448-1,1-1h22c.552,0,1,.448,1,1v18c0,.552-.448,1-1,1Zm-21-2h20v-16H11v16Z"/>
    <path d="m59,53h-22c-.552,0-1-.448-1-1v-18c0-.552.448-1,1-1h22c.552,0,1,.448,1,1v18c0,.552-.448,1-1,1Zm-21-2h20v-16h-20v16Z"/>
    <path d="m86,53h-22c-.552,0-1-.448-1-1v-18c0-.552.448-1,1-1h22c.552,0,1,.448,1,1v18c0,.552-.448,1-1,1Zm-21-2h20v-16h-20v16Z"/>
    <path d="m32,59H10c-.552,0-1-.448-1-1s.448-1,1-1h22c.552,0,1,.448,1,1s-.448,1-1,1Z"/>
    <path d="m24,64h-14c-.552,0-1-.448-1-1s.448-1,1-1h14c.552,0,1,.448,1,1s-.448,1-1,1Z"/>
    <path d="m59,59h-22c-.552,0-1-.448-1-1s.448-1,1-1h22c.552,0,1,.448,1,1s-.448,1-1,1Z"/>
    <path d="m51,64h-14c-.552,0-1-.448-1-1s.448-1,1-1h14c.552,0,1,.448,1,1s-.448,1-1,1Z"/>
    <path d="m86,59h-22c-.552,0-1-.448-1-1s.448-1,1-1h22c.552,0,1,.448,1,1s-.448,1-1,1Z"/>
    <path d="m78,64h-14c-.552,0-1-.448-1-1s.448-1,1-1h14c.552,0,1,.448,1,1s-.448,1-1,1Z"/>
    <path d="m92,80H4c-.552,0-1-.448-1-1V17c0-.552.448-1,1-1h88c.552,0,1,.448,1,1v62c0,.552-.448,1-1,1Zm-87-2h86V18H5v60Z"/>
</svg>
