<svg xmlns="http://www.w3.org/2000/svg" viewBox="0 0 96 96">
    <rect x="4" y="39" width="88" height="44" class="sgmaincolor"/>
    <path d="m92,16H4c-.552,0-1,.448-1,1v66c0,.552.448,1,1,1h88c.552,0,1-.448,1-1V17c0-.552-.448-1-1-1ZM5,18h86v20H5v-20Zm86,64H5v-42h86v42Z"/>
    <path d="m53,49h-10c-.552,0-1-.448-1-1s.448-1,1-1h10c.552,0,1,.448,1,1s-.448,1-1,1Z"/>
    <path d="m53,56h-10c-.552,0-1-.448-1-1s.448-1,1-1h10c.552,0,1,.448,1,1s-.448,1-1,1Z"/>
    <path d="m53,63h-10c-.552,0-1-.448-1-1s.448-1,1-1h10c.552,0,1,.448,1,1s-.448,1-1,1Z"/>
    <path d="m53,70h-10c-.552,0-1-.448-1-1s.448-1,1-1h10c.552,0,1,.448,1,1s-.448,1-1,1Z"/>
    <path d="m33,49h-10c-.552,0-1-.448-1-1s.448-1,1-1h10c.552,0,1,.448,1,1s-.448,1-1,1Z"/>
    <path d="m33,56h-10c-.552,0-1-.448-1-1s.448-1,1-1h10c.552,0,1,.448,1,1s-.448,1-1,1Z"/>
    <path d="m33,63h-10c-.552,0-1-.448-1-1s.448-1,1-1h10c.552,0,1,.448,1,1s-.448,1-1,1Z"/>
    <path d="m33,70h-10c-.552,0-1-.448-1-1s.448-1,1-1h10c.552,0,1,.448,1,1s-.448,1-1,1Z"/>
    <path d="m73,49h-10c-.552,0-1-.448-1-1s.448-1,1-1h10c.552,0,1,.448,1,1s-.448,1-1,1Z"/>
    <path d="m73,56h-10c-.552,0-1-.448-1-1s.448-1,1-1h10c.552,0,1,.448,1,1s-.448,1-1,1Z"/>
    <path d="m73,63h-10c-.552,0-1-.448-1-1s.448-1,1-1h10c.552,0,1,.448,1,1s-.448,1-1,1Z"/>
    <path d="m73,70h-10c-.552,0-1-.448-1-1s.448-1,1-1h10c.552,0,1,.448,1,1s-.448,1-1,1Z"/>
    <path d="m45,29h-8c-.552,0-1-.448-1-1s.448-1,1-1h8c.552,0,1,.448,1,1s-.448,1-1,1Z"/>
    <path d="m32,29h-8c-.552,0-1-.448-1-1s.448-1,1-1h8c.552,0,1,.448,1,1s-.448,1-1,1Z"/>
    <path d="m58,29h-8c-.552,0-1-.448-1-1s.448-1,1-1h8c.552,0,1,.448,1,1s-.448,1-1,1Z"/>
    <path d="m71,29h-8c-.552,0-1-.448-1-1s.448-1,1-1h8c.552,0,1,.448,1,1s-.448,1-1,1Z"/>
</svg>
