<?xml version="1.0" encoding="UTF-8"?><svg xmlns="http://www.w3.org/2000/svg" viewBox="0 0 96 96"><g id="uuid-c7e30cad-cb47-4c32-8bec-8d08c7cea029"><path d="m83.904,76.791l-7.114,7.114h-5.262l-27.085-27.085v-5.262l7.114-7.114h5.262l27.085,27.085v5.262Zm.992-56.267v13.323l-9.421,9.421h-13.323s-9.421-9.421-9.421-9.421h0s0,0,0,0v-13.323l9.421-9.421h13.323l-11.462,11.462,9.421,9.421,11.462-11.462Z" fill="#e9eff9" stroke-width="0"/><path d="m55.096,50.326l22.765,22.766c.293.293.293.768,0,1.061-.146.146-.338.22-.53.22s-.384-.073-.53-.22l-22.765-22.766c-.293-.293-.293-.768,0-1.061s.768-.293,1.061,0Zm-3.709,3.709c-.293-.293-.768-.293-1.061,0s-.293.768,0,1.061l23.01,23.01c.146.146.338.22.53.22s.384-.073.53-.22c.293-.293.293-.768,0-1.061l-23.01-23.01Zm34.259-33.511v13.323c0,.199-.079.39-.22.53l-9.421,9.421c-.011.011-.027.016-.04.026-.05.044-.104.08-.164.11-.023.011-.043.023-.067.032-.082.031-.168.052-.259.052h-13.012l-2.505,2.505,24.477,24.476c.141.141.22.331.22.53v5.262c0,.199-.079.39-.22.53l-7.113,7.113c-.141.141-.331.22-.53.22h-5.262c-.199,0-.39-.079-.53-.22l-24.477-24.476-26.369,26.369c-.141.141-.332.22-.53.22h-2.783c-.199,0-.39-.079-.53-.22l-6.638-6.638c-.141-.141-.22-.332-.22-.53v-2.783c0-.199.079-.39.22-.53l30.702-30.702-15.908-15.909-5.068-.841c-.224-.037-.419-.174-.53-.372l-5.723-10.146c-.165-.293-.115-.66.123-.898l3.709-3.709c.238-.238.605-.29.898-.123l10.146,5.723c.198.111.335.307.372.53l.842,5.069,15.908,15.908,6.838-6.838v-13.013c0-.091.021-.177.052-.259.009-.024.021-.044.032-.067.029-.06.066-.114.11-.164.011-.012.015-.028.026-.04l9.421-9.421c.141-.141.332-.22.53-.22h13.323c.303,0,.577.183.693.463s.052.603-.163.817l-10.932,10.932,8.36,8.36,10.932-10.932c.214-.215.539-.279.817-.163.28.116.463.39.463.693Zm-21.633,3.102l-3.559,3.559,8.36,8.36,3.559-3.559-8.36-8.36Zm-10.221-3.102l5.601,5.601,4.09-4.09,10.182-10.182h-11.202l-8.671,8.671Zm-.311,11.512l4.851-4.851-4.851-4.851v9.702Zm-28.906-4.303l1.582-1.582,1.576-1.577-.76-4.576-9.338-5.267-2.904,2.904,5.267,9.338,4.577.76Zm1.315.806l20.255,20.256,2.648-2.648-20.256-20.256-1.324,1.324-1.324,1.324Zm19.571,30.359l-1.549-1.549c-.141-.141-.22-.331-.22-.53v-5.262c0-.199.079-.39.22-.53l1.172-1.172-3.65-3.65-30.482,30.482v2.162l6.198,6.198h2.162l26.15-26.149Zm37.693,12.942l-26.646-26.646h-4.641l-1.482,1.482-3.709,3.709-1.482,1.482v4.641l26.646,26.646h4.641l6.674-6.674v-4.641Zm-22.062-28.572l-8.36-8.36-6.528,6.528,3.65,3.65,1.172-1.172c.141-.141.331-.22.53-.22h5.262c.199,0,.39.079.53.22l1.549,1.549,2.195-2.195Zm6.661-6.661l-8.36-8.36-5.601,5.601,8.36,8.361,5.601-5.601Zm5.911,5.911l-4.851-4.851-4.851,4.851h9.702Zm10.481-20.183l-10.182,10.182-4.09,4.09,5.601,5.601,8.671-8.671v-11.202Z" fill="#707070" stroke-width="0"/></g><g id="uuid-a3eb903e-05dd-43e0-8465-6e246436bfd4"><rect width="96" height="96" fill="none" stroke-width="0"/></g></svg>