<svg xmlns="http://www.w3.org/2000/svg" viewBox="0 0 96 96"><rect width="96" height="96" fill="#fff" opacity="0"/><path d="M93.661,73.089c-.148-8.66-7.211-15.604-15.872-15.604h-.118c-.02,0-.039,.003-.059,.003V8.728H28.63V52.124H4.329v32.249H52.062v-10.872h9.845c.072,8.649,7.057,15.649,15.708,15.737,.058,.006,.116,.008,.174,.007,8.769,.003,15.88-7.104,15.883-15.873v-.003c-.004-.089-.004-.187-.01-.278Zm-14.802,3.926l-4.762,.112,1.018-4.874,10.43-5.438-6.686,10.2Z" class="sgmaincolor"/><path d="M70.28,18.127H34.557c-.552,0-1-.447-1-1s.448-1,1-1h35.723c.552,0,1,.447,1,1s-.448,1-1,1Zm1,7.243c0-.553-.448-1-1-1H34.557c-.552,0-1,.447-1,1s.448,1,1,1h35.723c.552,0,1-.447,1-1Zm0,8.244c0-.553-.448-1-1-1H34.557c-.552,0-1,.447-1,1s.448,1,1,1h35.723c.552,0,1-.447,1-1Zm-24.331,28.08c0-2.674-2.175-4.85-4.85-4.85s-4.85,2.176-4.85,4.85,2.175,4.85,4.85,4.85,4.85-2.176,4.85-4.85Zm-2,0c0,1.571-1.278,2.85-2.85,2.85s-2.85-1.278-2.85-2.85,1.278-2.85,2.85-2.85,2.85,1.278,2.85,2.85Zm49.466,11.242c0,9.323-7.585,16.908-16.908,16.908-.014,0-.027-.002-.041-.002-.045,.006-.085,.026-.131,.026-.078,0-.146-.027-.219-.044-8.764-.202-15.885-7.095-16.46-15.764l-7.911,.013v9.89c0,.553-.448,1-1,1H3.935c-.552,0-1-.447-1-1V51.662c0-.553,.448-1,1-1H27.274V8.196c0-.553,.448-1,1-1h49.119c.552,0,1,.447,1,1V56.073c8.793,.459,15.82,7.649,16.004,16.511,.002,.026,.015,.049,.015,.076,0,.016-.008,.03-.009,.046,.001,.077,.012,.153,.012,.23Zm-43.669-20.274H4.935v14.926l12.368-9.809c.399-.316,.971-.283,1.329,.076l6.732,6.732,3.681-3.349c.387-.353,.979-.347,1.359,.012l15.416,14.552c.401,.38,.42,1.013,.041,1.414-.197,.208-.461,.313-.727,.313-.247,0-.493-.091-.687-.272l-14.742-13.916-2.926,2.662,7.242,7.242c.391,.391,.391,1.023,0,1.414-.195,.195-.451,.293-.707,.293s-.512-.098-.707-.293l-14.759-14.759-12.913,10.241v12.823H50.746v-30.302Zm2-1v20.412l7.898-.013c.441-8.544,7.237-15.417,15.749-15.976V9.196H29.274V50.662h22.472c.552,0,1,.447,1,1Zm39.633,22.002l-4.202,.007h-.001c-.552,0-.999-.446-1-.998,0-.553,.446-1.001,.999-1.002l4.178-.007c-.624-7.334-6.574-13.154-13.959-13.591v4.234c0,.553-.448,1-1,1s-1-.447-1-1v-4.223c-7.409,.553-13.312,6.534-13.748,13.975l4.803,.007c.552,0,1,.449,.999,1.002,0,.552-.448,.998-1,.998h-.001l-4.788-.007c.549,7.308,6.378,13.153,13.679,13.725v-4.25c0-.553,.448-1,1-1s1,.447,1,1v4.268c7.592-.42,13.673-6.533,14.043-14.139Zm-18.539,4.042l4.767-.114c.329-.008,.632-.177,.812-.452l6.697-10.215c.25-.38,.21-.882-.095-1.219-.305-.337-.8-.425-1.204-.216l-10.442,5.448c-.266,.139-.455,.389-.517,.682l-1.021,4.881c-.062,.299,.015,.61,.21,.845,.19,.229,.472,.36,.769,.36h.024Zm8.499-8.667l-4.304,6.565-2.981,.071,.666-3.183,6.619-3.454Z"/></svg>