<?xml version="1.0" encoding="UTF-8"?><svg xmlns="http://www.w3.org/2000/svg" viewBox="0 0 96 96"><g id="uuid-660657c6-73a1-48ff-a86b-8e181b3df8ea"><path d="m73.434,31.987l-9.421-9.421,11.462-11.462h-13.323l-9.421,9.421v13.323h0s0,0,0,0l9.421,9.421h13.323s9.421-9.421,9.421-9.421v-13.323l-11.462,11.462Z" fill="#e9eff9" stroke-width="0"/><path d="m85.184,19.832c-.279-.116-.603-.053-.817.163l-10.932,10.932-8.36-8.36,10.932-10.932c.214-.214.279-.537.163-.817s-.39-.463-.693-.463h-13.323c-.199,0-.39.079-.53.22l-9.421,9.421c-.011.011-.016.027-.026.04-.044.05-.08.104-.11.164-.011.023-.023.043-.032.067-.031.082-.052.168-.052.259v13.013L9.672,75.847c-.141.141-.22.332-.22.53v2.783c0,.199.079.39.22.53l6.638,6.638c.141.141.332.22.53.22h2.783c.199,0,.39-.079.53-.22l42.31-42.31h13.012c.091,0,.177-.021.259-.052.024-.009.044-.021.067-.032.06-.029.114-.066.164-.11.012-.011.028-.015.04-.026l9.421-9.421c.141-.141.22-.332.22-.53v-13.323c0-.303-.183-.577-.463-.693Zm-12.81,12.155l-3.559,3.559-8.36-8.36,3.559-3.559,8.36,8.36Zm-14.041-4.801l-4.851,4.851v-9.702l4.851,4.851Zm-4.54,6.661l5.601-5.601,8.36,8.36-5.601,5.601-8.36-8.361Zm8.671-21.993h11.202l-10.182,10.182-4.09,4.09-5.601-5.601,8.671-8.671ZM19.312,85.047h-2.162l-6.198-6.198v-2.162l41.78-41.78,8.36,8.36-41.78,41.779Zm44.651-42.529l4.851-4.851,4.851,4.851h-9.702Zm20.183-8.981l-8.671,8.671-5.601-5.601,4.09-4.09,10.182-10.182v11.202ZM18.575,74.101c-1.793,0-3.252,1.459-3.252,3.252s1.459,3.252,3.252,3.252,3.252-1.459,3.252-3.252-1.459-3.252-3.252-3.252Zm0,5.004c-.966,0-1.752-.786-1.752-1.752s.786-1.752,1.752-1.752,1.752.786,1.752,1.752-.786,1.752-1.752,1.752Z" fill="#707070" stroke-width="0"/></g><g id="uuid-e60c7f2c-ddbc-4f6a-8c6b-7de7966347f0"><rect width="96" height="96" fill="none" stroke-width="0"/></g></svg>