<svg xmlns="http://www.w3.org/2000/svg" viewBox="0 0 96 96"><rect x="0" y="0" width="96" height="96" fill="#fff" opacity="0"/><path d="M51.396,66.017l14.716-27.604v-12.207l-12.075-12.207h-12.075l-12.075,12.207v12.207l13.751,27.635c-15.608,.533-27.639,3.883-27.639,7.938,0,4.426,14.327,8.014,32,8.014s32-3.588,32-8.014c0-4.139-12.528-7.544-28.604-7.969Zm-3.396-38.983c3.038,0,5.5,2.462,5.5,5.5s-2.462,5.5-5.5,5.5-5.5-2.462-5.5-5.5,2.462-5.5,5.5-5.5Z" class="sgmaincolor"/><path d="M48,39.034c-3.584,0-6.5-2.916-6.5-6.5s2.916-6.5,6.5-6.5,6.5,2.916,6.5,6.5-2.916,6.5-6.5,6.5Zm0-11c-2.481,0-4.5,2.019-4.5,4.5s2.019,4.5,4.5,4.5,4.5-2.019,4.5-4.5-2.019-4.5-4.5-4.5Zm5.03,37.044l13.965-26.194c.077-.146,.117-.307,.117-.471v-12.206c0-.264-.104-.516-.289-.703l-12.075-12.207c-.188-.19-.443-.297-.711-.297h-12.074c-.268,0-.523,.106-.711,.297l-12.075,12.207c-.186,.188-.289,.439-.289,.703v12.206c0,.154,.036,.307,.104,.445l13.066,26.26c-13.998,.678-27.058,3.736-27.058,8.868,0,5.854,17.002,9.014,33,9.014s33-3.159,33-9.014c0-5.243-13.633-8.321-27.97-8.908ZM30.888,26.618l11.492-11.618h11.24l11.492,11.618v11.545l-17.707,33.212L30.888,38.178v-11.56Zm17.112,54.382c-19.207,0-31-4.085-31-7.014,0-2.666,9.783-6.288,26.029-6.916l3.45,6.934c.167,.335,.507,.55,.882,.555h.014c.369,0,.709-.203,.883-.529l3.728-6.992c16.834,.516,27.014,4.23,27.014,6.949,0,2.929-11.793,7.014-31,7.014Z"/></svg>