<svg xmlns="http://www.w3.org/2000/svg" viewBox="0 0 96 96"><path d="M71.373,36.374c.313-5.273,2.327-19.72,2.807-23.12l-2.813,23.267,2.387,3.88,14.733-12.153-14.213-15.707-13.44-4.54c0,2.546-1.533,13.807-12.6,13.807-12.4,0-13.267-11.26-13.267-13.807l-13.153,4.54L7.513,28.247l14.733,12.153,2.833-3.933c-.053-.614-.127-1.327-.22-2.12l.287,2.027-.067,.093c.007,.086,.013,.167,.02,.247,1.14,14.033,0,51.287,0,51.287h46.273s-.853-37.233-.007-51.48c0-.047,.007-.1,.007-.146ZM21.92,13.253c.46,2.98,2.213,14.606,2.94,21.066l-2.94-21.066Z" class="sgmaincolor"/><path d="M89.228,27.576l-14.213-15.707c-.023-.025-.051-.041-.076-.063-.03-.027-.06-.053-.093-.077-.059-.042-.122-.074-.189-.103-.022-.009-.04-.026-.063-.034l-13.44-4.54c-.305-.101-.642-.051-.903,.135-.262,.188-.417,.49-.417,.812,0,.128-.315,12.807-11.6,12.807-11.675,0-12.267-10.668-12.267-12.807,0-.323-.156-.627-.42-.814-.262-.188-.602-.239-.906-.131l-13.153,4.54c-.027,.01-.049,.028-.075,.04-.052,.023-.103,.048-.151,.08-.042,.028-.078,.06-.114,.093-.023,.021-.051,.036-.073,.059L6.774,27.574c-.185,.202-.277,.471-.258,.744,.02,.272,.149,.526,.36,.7l14.733,12.153c.181,.148,.406,.229,.637,.229,.043,0,.085-.003,.128-.008,.274-.036,.521-.184,.684-.408l1.21-1.68c.836,15.305-.157,48.313-.169,48.665-.008,.271,.094,.532,.282,.727s.447,.304,.718,.304h46.273c.27,0,.527-.108,.715-.301,.188-.192,.291-.453,.285-.722-.008-.346-.73-32.363-.157-48.169l.686,1.115c.151,.247,.402,.416,.688,.463,.055,.009,.109,.014,.164,.014,.23,0,.456-.08,.637-.229l14.733-12.153c.21-.174,.341-.427,.36-.699,.021-.272-.072-.541-.256-.743ZM22.06,38.949l-13.1-10.806,12.164-13.36,2.737,19.616c.002,.021,.003,.042,.006,.063,.073,.628,.135,1.206,.184,1.723l-1.991,2.764Zm48.292,48.051H26.129c.172-6.11,.991-37.688-.029-50.325,.045-.142,.059-.292,.037-.441l-.277-1.961c0-.026-.003-.052-.007-.077-.787-6.993-2.716-19.604-2.927-20.981l11.111-3.835c.348,3.803,2.396,13.428,14.196,13.428,10.074,0,13.044-8.716,13.525-13.438l11.415,3.856c-.601,4.261-2.493,17.938-2.801,23.133h.005l-.005,.042c-.002,.02,.004,.04,.003,.06h-.008c-.761,12.801-.146,44.443-.017,50.541Zm3.651-48.103l-1.602-2.604,2.595-21.464,12.046,13.312-13.039,10.756Zm-10.597-8.823h-11.426c-.553,0-1,.447-1,1v10.011c0,.373,.207,.715,.538,.887l5.713,2.979c.145,.075,.303,.113,.462,.113s.317-.038,.462-.113l5.713-2.979c.331-.172,.538-.514,.538-.887v-10.011c0-.553-.447-1-1-1Zm-1,10.404l-4.713,2.457-4.713-2.457v-8.404h9.426v8.404Z"/></svg>
