<svg xmlns="http://www.w3.org/2000/svg" viewBox="0 0 96 96">><path d="M78,23H5v43H91v-19.937l-13-23.063ZM13,45v-15h60l9,15H13Z" class="sgmaincolor"/><path d="M91.871,45.572l-13-23.063c-.177-.314-.51-.509-.871-.509H5c-.553,0-1,.447-1,1v43c0,.553,.447,1,1,1H91c.553,0,1-.447,1-1v-19.937c0-.172-.044-.341-.129-.491Zm-1.871,19.428H6V24H77.416l12.584,22.326v18.674Z"/><path d="M73,29H13c-.553,0-1,.447-1,1v15c0,.553,.447,1,1,1H82c.36,0,.692-.193,.87-.507,.178-.314,.173-.698-.013-1.008l-9-15c-.181-.301-.506-.485-.857-.485Zm-13,2v13h-22v-13h22Zm-46,0h22v13H14v-13Zm48,13v-13h10.434l7.8,13h-18.233Z"/><circle cx="72" cy="66" r="7" class="sgmaincolor"/><path d="M72,74c-4.411,0-8-3.589-8-8s3.589-8,8-8,8,3.589,8,8-3.589,8-8,8Zm0-14c-3.309,0-6,2.691-6,6s2.691,6,6,6,6-2.691,6-6-2.691-6-6-6Z"/><circle cx="24" cy="66" r="7" class="sgmaincolor"/><path d="M24,74c-4.411,0-8-3.589-8-8s3.589-8,8-8,8,3.589,8,8-3.589,8-8,8Zm0-14c-3.309,0-6,2.691-6,6s2.691,6,6,6,6-2.691,6-6-2.691-6-6-6Z"/></svg>
