<svg xmlns="http://www.w3.org/2000/svg" viewBox="0 0 96 96"><rect x="25.592" y="50.108" width="13.282" height="24.35" class="sgmaincolor"/><rect x="51.417" y="26.497" width="13.282" height="47.961" class="sgmaincolor"/><path d="M92,73.458h-19.66v-18.185c0-.553-.448-1-1-1s-1,.447-1,1v18.185h-4.641V26.497c0-.553-.448-1-1-1h-13.282c-.552,0-1,.447-1,1v46.961h-4.641v-18.185c0-.553-.448-1-1-1s-1,.447-1,1v18.185h-3.903v-23.35c0-.553-.448-1-1-1h-13.282c-.552,0-1,.447-1,1v23.35h-7.624c-.319-3.308-3.112-5.903-6.502-5.903-3.603,0-6.534,2.932-6.534,6.534s2.931,6.534,6.534,6.534c3.133,0,5.756-2.218,6.387-5.165h26.924v11.544c0,.553,.448,1,1,1h26.563c.552,0,1-.447,1-1v-11.544h19.66c.552,0,1-.447,1-1s-.448-1-1-1Zm-81.534,5.165c-2.5,0-4.534-2.034-4.534-4.534s2.034-4.534,4.534-4.534c2.284,0,4.16,1.704,4.47,3.903h-4.101c-.552,0-1,.447-1,1s.448,1,1,1h3.931c-.585,1.828-2.28,3.165-4.3,3.165Zm16.126-5.165v-22.35h11.282v22.35h-11.282ZM52.417,27.497h11.282v45.961h-11.282V27.497Zm17.922,58.505h-24.563v-10.544h24.563v10.544ZM52.417,11.002v8.854c0,.553-.448,1-1,1s-1-.447-1-1v-6.441L12.208,51.597c-.195,.195-.451,.293-.707,.293s-.512-.098-.708-.293c-.39-.391-.39-1.024,0-1.414L49.002,12.002h-6.439c-.552,0-1-.447-1-1s.448-1,1-1h8.855c.13,0,.26,.026,.382,.077,.121,.05,.229,.123,.321,.213,.001,.001,.003,.001,.004,.003,.007,.007,.009,.017,.016,.023,.083,.088,.153,.188,.2,.301,.05,.122,.077,.251,.077,.381,0,0,0,0,0,.001h0Z"/></svg>
