<svg xmlns="http://www.w3.org/2000/svg" viewBox="0 0 96 96"><polygon points="79 62.278 79 29.947 51.191 14 23 29.947 23 62.278 51.191 78 79 62.278" class="sgmaincolor"/><path d="M51.191,79c-.168,0-.336-.042-.487-.127l-28.191-15.722c-.316-.177-.513-.511-.513-.873V29.947c0-.36,.194-.693,.508-.87l28.191-15.947c.307-.175,.685-.174,.989,.003l27.809,15.947c.312,.178,.503,.509,.503,.867V62.278c0,.36-.194,.693-.508,.87l-27.809,15.722c-.152,.087-.322,.13-.492,.13Zm-27.191-17.309l27.188,15.162,26.812-15.158V30.526l-26.812-15.376-27.188,15.38v31.161Zm55,.587h0Z"/><path d="M51,65c-.172,0-.343-.044-.497-.132l-16-9.164c-.311-.179-.503-.51-.503-.868v-18.327c0-.37,.204-.709,.53-.883l16-8.509c.293-.156,.646-.156,.939,0l16,8.509c.326,.174,.53,.513,.53,.883v18.327c0,.358-.192,.689-.503,.868l-16,9.164c-.154,.088-.325,.132-.497,.132Zm-15-10.744l15,8.592,15-8.592v-17.146l-15-7.977-15,7.977v17.146Zm31,.58h0Z"/><path d="M95.995,37.4l-2-20c-.051-.511-.481-.9-.995-.9h-4c-.008,0-.015,.004-.023,.004-.079,.001-.152,.024-.227,.044-.049,.013-.101,.018-.147,.038-.059,.026-.108,.067-.161,.104-.052,.036-.106,.066-.15,.111-.039,.039-.064,.088-.096,.134-.043,.061-.085,.12-.114,.19-.006,.014-.018,.023-.023,.038l-5,14c-.039,.107-.059,.222-.059,.336v12c0,.143,.03,.284,.09,.414l4.829,10.624,1.082,20.016c.029,.531,.468,.946,.999,.946h3c.531,0,.97-.415,.999-.946l2-37c.002-.051,0-.103-.004-.153Zm-10.995,5.883v-11.61l2.663-7.456-.662,13.233c0,.034,0,.069,0,.104l.622,11.5-2.623-5.77Zm7.053,30.217h-1.105l-1.009-18.661c.085-.237,.084-.505-.028-.753l-.014-.031-.895-16.557,.95-18.998h2.144l1.902,19.022-1.944,35.978Z"/><path d="M18.997,31.429l-1-14c-.037-.523-.473-.929-.997-.929h-3c-.553,0-1,.447-1,1v10h-1v-10c0-.553-.447-1-1-1h-3c-.553,0-1,.447-1,1v10h-1v-10c0-.553-.447-1-1-1H2c-.524,0-.96,.405-.997,.929L.003,31.429c-.019,.258,.063,.513,.229,.712l4.787,5.745,1.982,36.668c.029,.531,.468,.946,.999,.946h3c.531,0,.97-.415,.999-.946l1.982-36.668,4.787-5.745c.165-.199,.247-.454,.229-.712Zm-8.944,42.071h-1.105l-1.892-35h4.889l-1.892,35Zm2.479-37H6.469l-4.442-5.331,.904-12.669h1.069v10c0,.553,.447,1,1,1h3c.553,0,1-.447,1-1v-10h1v10c0,.553,.447,1,1,1h3c.553,0,1-.447,1-1v-10h1.069l.904,12.669-4.442,5.331Z"/></svg>