<svg xmlns="http://www.w3.org/2000/svg" viewBox="0 0 96 96"><polygon points="80.302 50.897 70.539 41.582 50.653 41.582 30.768 41.582 20.302 51.001 20.302 79.165 29.038 86.275 29.979 90.979 34.818 90.979 65.785 90.979 70.624 90.979 71.554 86.328 80.302 79.274 80.302 50.897" class="sgmaincolor"/><circle cx="50.653" cy="22.813" r="17.792" class="sgmaincolor"/><path d="m81.07,50.1l-9.77-9.32s-.008-.004-.011-.007c-.048-.044-.106-.07-.161-.105-.069-.045-.134-.095-.212-.124-.028-.01-.057-.009-.086-.017-.096-.026-.192-.057-.291-.057h-13.201c7.127-2.708,12.215-9.591,12.215-17.656,0-10.422-8.479-18.901-18.901-18.901s-18.901,8.479-18.901,18.901c0,8.065,5.088,14.948,12.215,17.656h-13.197c-.078,0-.15.027-.224.043-.051.011-.103.012-.153.03-.064.024-.117.064-.175.099-.064.038-.132.067-.188.118h0l-10.47,9.42c-.23.21-.37.51-.37.82v28.17c0,.33.15.64.41.85l8.43,6.86.86,4.32c.11.51.56.89,1.09.89h40.64c.53,0,.99-.38,1.09-.89l.85-4.26,8.44-6.8c.26-.21.41-.53.41-.87v-28.37c0-.31-.12-.6-.34-.8Zm-47.101-27.287c0-9.2,7.484-16.685,16.684-16.685s16.684,7.484,16.684,16.685-7.484,16.684-16.684,16.684-16.684-7.484-16.684-16.684Zm31.703,19.876l-15.362,7.378-14.828-7.378h30.191Zm4.878,43.02l-.68,3.4-.15.76H30.89l-.16-.79-.68-3.41-4.53-22.61h49.56l-4.53,22.65Zm8.64-6.97l-5.95,4.8,4.28-21.37c.06-.33-.02-.67-.23-.93-.21-.25-.53-.4-.86-.4h-10.504v-4.086c0-.612-.496-1.108-1.108-1.108s-1.108.496-1.108,1.108v4.086h-26.815v-4.086c0-.612-.496-1.108-1.108-1.108s-1.108.496-1.108,1.108v4.086h-10.507c-.33,0-.64.15-.86.4-.21.26-.29.6-.22.93l4.26,21.3-5.94-4.83v-27.14l9.537-8.591,18.861,9.385c.155.077.324.116.494.116.164,0,.328-.036.48-.109l19.55-9.39,8.858,8.459v27.37Z"/><path d="m50.301,80.475c-2.212,0-4.011-1.8-4.011-4.012s1.799-4.012,4.011-4.012,4.012,1.8,4.012,4.012-1.8,4.012-4.012,4.012Zm0-5.807c-.989,0-1.794.806-1.794,1.795s.805,1.795,1.794,1.795,1.795-.806,1.795-1.795-.805-1.795-1.795-1.795Z"/></svg>
