<svg xmlns="http://www.w3.org/2000/svg" viewBox="0 0 96 96"><rect x="0" y="0" width="96" height="96" opacity="0"/><rect x="11" y="44" width="74" height="18" class="sgmaincolor"/><path d="m91,76H5c-.552,0-1-.448-1-1V21c0-.552.448-1,1-1h86c.552,0,1,.448,1,1v54c0,.552-.448,1-1,1Zm-85-2h84V22H6v52Zm79-11H11c-.552,0-1-.448-1-1v-18c0-.552.448-1,1-1h74c.552,0,1,.448,1,1v18c0,.552-.448,1-1,1Zm-73-2h72v-16H12v16Zm48-26.225c0-.552-.448-1-1-1h-21.999c-.552,0-1,.448-1,1s.448,1,1,1h21.999c.552,0,1-.448,1-1Z"/></svg>