<svg xmlns="http://www.w3.org/2000/svg" viewBox="0 0 96 96"><g opacity="0"><rect width="96" height="96" fill="#fff"/></g><path d="M48,4C23.7,4,4,23.7,4,48c0,7.553,1.906,14.661,5.259,20.871,.955-.551,2.06-.871,3.241-.871,3.59,0,6.5,2.91,6.5,6.5,0,1.851-.777,3.517-2.02,4.701,7.956,7.909,18.916,12.799,31.02,12.799,24.3,0,44-19.7,44-44S72.3,4,48,4Zm0,58c-7.73,0-14-6.27-14-14s6.27-14,14-14,14,6.27,14,14-6.27,14-14,14Zm20.5,13c-3.59,0-6.5-2.91-6.5-6.5s2.91-6.5,6.5-6.5,6.5,2.91,6.5,6.5-2.91,6.5-6.5,6.5Z" class="sgmaincolor"/><path d="M79.878,16.275c-.023-.029-.034-.065-.061-.092s-.062-.038-.092-.061c-8.143-8.104-19.359-13.122-31.726-13.122C23.19,3,3,23.19,3,48c0,7.39,1.79,14.38,4.97,20.54-1.81,1.36-2.97,3.52-2.97,5.96,0,4.14,3.36,7.5,7.5,7.5,1.67,0,3.21-.55,4.45-1.47,8.08,7.72,19.03,12.47,31.05,12.47,24.81,0,45-20.19,45-45,0-12.366-5.018-23.583-13.122-31.725Zm-1.904,30.725c-.248-7.517-3.272-14.34-8.082-19.479l9.189-9.189c7.16,7.498,11.638,17.567,11.893,28.667h-13Zm-14.274,24.17c-.45-.79-.7-1.7-.7-2.67,0-3.03,2.47-5.5,5.5-5.5,.97,0,1.88,.25,2.67,.7,.59,.32,1.11,.76,1.55,1.27,.79,.96,1.28,2.19,1.28,3.53,0,3.03-2.47,5.5-5.5,5.5-1.34,0-2.57-.49-3.53-1.28-.51-.44-.95-.96-1.27-1.55Zm4.8-10.17c-4.14,0-7.5,3.36-7.5,7.5,0,1.36,.36,2.63,1.01,3.73-3.848,2.242-8.285,3.569-13.01,3.737v-13.017c7.473-.496,13.453-6.476,13.949-13.949h13.017c-.167,4.724-1.495,9.161-3.736,13.01-1.1-.65-2.37-1.01-3.73-1.01Zm-.021-34.893c-5.139-4.81-11.962-7.834-19.479-8.082V5.025c11.101,.255,21.17,4.734,28.667,11.893l-9.189,9.189Zm-20.479,34.893c-7.168,0-13-5.832-13-13s5.832-13,13-13c3.225,0,6.173,1.187,8.447,3.139l-9.154,9.154c-.391,.391-.391,1.023,0,1.414,.195,.195,.451,.293,.707,.293s.512-.098,.707-.293l9.154-9.154c1.951,2.275,3.139,5.223,3.139,8.447,0,7.168-5.832,13-13,13Zm9.861-24.275c-2.404-2.105-5.479-3.449-8.861-3.674v-13.025c6.967,.246,13.291,3.046,18.066,7.494l-9.205,9.205Zm-10.861-3.674c-7.473,.496-13.453,6.476-13.949,13.949h-13.025c.518-14.645,12.329-26.457,26.975-26.975v13.025Zm-13.949,15.949c.496,7.473,6.477,13.453,13.949,13.949v13.025c-14.646-.518-26.457-12.329-26.975-26.975h13.025Zm29.898-2c-.225-3.383-1.569-6.457-3.674-8.861l9.205-9.205c4.448,4.775,7.248,11.099,7.494,18.066h-13.025ZM47,5.025v13c-15.745,.52-28.455,13.229-28.975,28.975H5.025C5.553,24.085,24.085,5.553,47,5.025ZM15.51,79.09c-.87,.58-1.9,.91-3.01,.91-3.03,0-5.5-2.47-5.5-5.5,0-1.68,.76-3.18,1.94-4.18,.5-.44,1.09-.78,1.72-1,.58-.21,1.19-.32,1.84-.32,3.03,0,5.5,2.47,5.5,5.5,0,1.2-.39,2.31-1.05,3.21-.38,.55-.88,1.02-1.44,1.38Zm-3.01-12.09c-.99,0-1.93,.19-2.8,.55-2.857-5.59-4.517-11.883-4.67-18.55h12.995c.52,15.745,13.229,28.455,28.975,28.975v13.001c-11.074-.255-21.125-4.7-28.62-11.835,1.02-1.28,1.62-2.89,1.62-4.64,0-4.14-3.36-7.5-7.5-7.5Zm36.5,23.975v-13.009c5.183-.171,10.04-1.646,14.23-4.136,1.36,1.34,3.21,2.17,5.27,2.17,4.14,0,7.5-3.36,7.5-7.5,0-2.06-.83-3.91-2.17-5.27,2.49-4.19,3.964-9.047,4.136-14.23h13.009c-.527,22.915-19.06,41.447-41.975,41.975Z"/></svg>