<svg id="uuid-0b41d4ee-568c-48a7-b6da-93bd0056a339" xmlns="http://www.w3.org/2000/svg" viewBox="0 0 96 96"><rect id="uuid-d7a5ae21-5d1e-4777-ad3f-5ba400dedac2" x="48" y="25" width="44" height="46" class="sgmaincolor"/><path d="m92,24H4c-.552,0-1,.448-1,1v46c0,.552.448,1,1,1h88c.552,0,1-.448,1-1V25c0-.552-.448-1-1-1ZM5,26h42v44H5V26Zm86,44h-42V26h42v44Z"/><path d="m87.618,55.359l-13.436-13.465c-.386-.386-1.01-.392-1.403-.013l-3.096,2.99-5.761-6.115c-.364-.387-.966-.421-1.372-.08l-12.062,10.155c-.422.356-.477.987-.121,1.409.355.422.987.476,1.409.121l11.338-9.546,12.768,13.55c.197.209.462.314.728.314.246,0,.493-.09.686-.272.402-.379.421-1.012.042-1.414l-6.283-6.668,2.406-2.323,12.741,12.769c.195.195.452.293.708.293s.511-.097.707-.292c.391-.39.392-1.023.001-1.415Z"/><path d="m82.871,45.39c-2.481,0-4.5-2.019-4.5-4.5s2.019-4.5,4.5-4.5,4.5,2.019,4.5,4.5-2.019,4.5-4.5,4.5Zm0-7c-1.378,0-2.5,1.122-2.5,2.5s1.122,2.5,2.5,2.5,2.5-1.122,2.5-2.5-1.122-2.5-2.5-2.5Z"/><path d="m41,40H11c-.552,0-1-.448-1-1s.448-1,1-1h30c.552,0,1,.448,1,1s-.448,1-1,1Z"/><path d="m41,46H11c-.552,0-1-.448-1-1s.448-1,1-1h30c.552,0,1,.448,1,1s-.448,1-1,1Z"/><path d="m41,52H11c-.552,0-1-.448-1-1s.448-1,1-1h30c.552,0,1,.448,1,1s-.448,1-1,1Z"/><path d="m21,58h-10c-.552,0-1-.448-1-1s.448-1,1-1h10c.552,0,1,.448,1,1s-.448,1-1,1Z"/></svg>
