<svg xmlns="http://www.w3.org/2000/svg" viewBox="0 0 96 96"><g opacity="0"><rect width="96" height="96" fill="#fff"/></g><path d="M68.51,27.49l10.6-10.6c-1.49-1.5-3.09-2.88-4.79-4.15-.56-.42-1.14-.83-1.72-1.23-3.8-2.57-8.03-4.56-12.55-5.84-.7-.2-1.4-.38-2.11-.54-3.2-.74-6.52-1.13-9.94-1.13v30c-7.73,0-14,6.27-14,14s6.27,14,14,14,14-6.27,14-14c0-3.86-1.57-7.36-4.1-9.9l1.77-1.77,8.84-8.84Z" class="sgmaincolor"/><path d="M19,74.5c0,1.85-.77,3.52-2.01,4.7-1.17,1.11-2.74,1.8-4.49,1.8-3.59,0-6.5-2.91-6.5-6.5,0-2.41,1.31-4.51,3.26-5.63,.95-.55,2.06-.87,3.24-.87,3.59,0,6.5,2.91,6.5,6.5Z" class="sgmaincolor"/><path d="M75,68.5c0,3.59-2.91,6.5-6.5,6.5-2.06,0-3.89-.95-5.08-2.44-.89-1.11-1.42-2.52-1.42-4.06,0-3.59,2.91-6.5,6.5-6.5,1.54,0,2.95,.53,4.06,1.42,1.49,1.19,2.44,3.02,2.44,5.08Z" class="sgmaincolor"/><path d="M79.816,16.182l-.003-.002c-1.491-1.502-3.138-2.927-4.893-4.24-.571-.427-1.161-.845-1.76-1.258-3.948-2.67-8.268-4.68-12.835-5.974-.719-.205-1.437-.39-2.16-.553-3.314-.767-6.734-1.155-10.165-1.155C23.187,3,3,23.187,3,48c0,7.151,1.728,14.224,4.972,20.53-1.852,1.405-2.972,3.615-2.972,5.97,0,4.136,3.364,7.5,7.5,7.5,1.61,0,3.153-.519,4.442-1.468,8.396,8.04,19.383,12.468,31.058,12.468,24.813,0,45-20.187,45-45,0-12.027-4.683-23.327-13.184-31.818Zm11.16,30.818h-13.001c-.238-7.309-3.074-14.161-8.069-19.493l9.195-9.196c7.451,7.786,11.63,17.904,11.875,28.688Zm-18.725,14.999c-.024-.014-.05-.023-.074-.037-.073-.042-.151-.073-.226-.112-.265-.138-.536-.262-.815-.366-.115-.043-.23-.08-.347-.118-.26-.083-.525-.15-.794-.204-.113-.023-.225-.049-.339-.067-.379-.058-.763-.096-1.156-.096-4.136,0-7.5,3.364-7.5,7.5,0,.392,.038,.776,.096,1.155,.018,.116,.044,.229,.067,.343,.054,.267,.12,.53,.203,.788,.038,.119,.076,.237,.12,.353,.104,.276,.226,.543,.362,.805,.041,.077,.073,.158,.116,.234,.014,.024,.022,.049,.036,.073-3.941,2.289-8.398,3.553-12.999,3.715v-13.016c7.472-.497,13.453-6.478,13.949-13.951h13.018c-.162,4.6-1.426,9.057-3.715,12.999Zm1.748,6.501c0,3.032-2.468,5.5-5.5,5.5-1.685,0-3.251-.752-4.3-2.066-.785-.979-1.2-2.166-1.2-3.434,0-3.032,2.468-5.5,5.5-5.5,1.268,0,2.455,.415,3.437,1.201,1.312,1.048,2.063,2.615,2.063,4.299Zm-26-13c4.136,0,7.5-3.364,7.5-7.5,0-.374-.036-.742-.09-1.105-.01-.068-.018-.136-.03-.204-.061-.346-.146-.686-.254-1.019-.021-.067-.047-.132-.07-.198-.12-.334-.256-.662-.422-.977l-.012-.025c-.17-.319-.372-.622-.589-.917-.025-.034-.042-.073-.068-.107l3.907-3.907c2.024,2.362,3.128,5.329,3.128,8.458,0,7.168-5.832,13-13,13s-13-5.832-13-13c0-6.832,5.297-12.449,12-12.962v5.528c-.1,.013-.196,.036-.294,.053-.099,.017-.198,.032-.295,.053-.143,.031-.282,.07-.421,.109-.089,.025-.179,.046-.267,.074-.154,.049-.305,.108-.454,.167-.068,.027-.139,.049-.207,.078-.214,.092-.424,.193-.628,.303-.033,.018-.063,.039-.096,.058-.17,.096-.337,.195-.499,.303-.07,.047-.135,.099-.203,.148-.12,.086-.239,.172-.354,.264-.074,.06-.144,.125-.216,.188-.102,.089-.204,.178-.3,.273-.071,.07-.139,.143-.208,.216-.09,.095-.179,.191-.265,.291-.066,.078-.129,.157-.191,.238-.081,.102-.159,.205-.233,.312-.059,.084-.116,.169-.171,.255-.071,.109-.138,.22-.203,.333-.051,.089-.102,.179-.149,.27-.061,.116-.117,.235-.171,.355-.042,.093-.084,.186-.123,.281-.051,.125-.096,.252-.14,.381-.033,.095-.067,.189-.096,.286-.041,.136-.074,.275-.107,.414-.022,.093-.047,.185-.065,.279-.031,.157-.052,.318-.073,.478-.01,.079-.025,.157-.034,.237-.023,.243-.037,.488-.037,.737,0,4.136,3.364,7.5,7.5,7.5Zm-14.951-8.5h-13.024c.518-14.645,12.329-26.466,26.975-26.982v13.033c-7.473,.496-13.455,6.478-13.951,13.949Zm.002,2c.497,7.473,6.478,13.455,13.949,13.951v13.024c-14.645-.518-26.457-12.33-26.975-26.975h13.025Zm29.9-2c-.217-3.29-1.494-6.374-3.672-8.865l9.218-9.218c4.619,4.953,7.244,11.307,7.479,18.083h-13.025Zm-13.951-13V5.012c2.943,.067,5.87,.435,8.72,1.094,.692,.156,1.373,.331,2.058,.526,4.365,1.236,8.491,3.156,12.254,5.701,.569,.393,1.14,.795,1.69,1.208,1.406,1.051,2.736,2.176,3.967,3.355l-25.138,25.139c-.042-.032-.087-.056-.13-.086-.179-.131-.362-.253-.55-.366-.073-.044-.144-.089-.218-.13-.25-.14-.506-.269-.77-.379l-.015-.007c-.267-.11-.542-.2-.82-.279-.086-.024-.174-.044-.262-.065-.204-.05-.409-.091-.617-.123-.057-.009-.111-.026-.168-.034v-6.565Zm2.892,10.108c1.037,1.047,1.608,2.429,1.608,3.892,0,3.032-2.468,5.5-5.5,5.5s-5.5-2.468-5.5-5.5,2.468-5.5,5.5-5.5c1.463,0,2.846,.571,3.892,1.608ZM47,5.012v13.014c-15.748,.519-28.456,13.228-28.975,28.975H5.025C5.552,24.084,24.083,5.537,47,5.012ZM17.889,75.616c-.147,.725-.439,1.407-.86,2.012l-.003,.004c-.209,.301-.451,.583-.724,.843-1.037,.983-2.387,1.525-3.801,1.525-3.032,0-5.5-2.468-5.5-5.5,0-1.96,1.057-3.785,2.761-4.765,.832-.481,1.779-.735,2.739-.735,3.032,0,5.5,2.468,5.5,5.5,0,.38-.038,.753-.111,1.116Zm-5.389-8.616c-.294,0-.587,.023-.878,.058-.084,.01-.167,.024-.25,.036-.22,.034-.438,.077-.655,.131-.077,.019-.154,.035-.23,.057-.269,.075-.535,.161-.794,.266-2.922-5.711-4.513-12.085-4.664-18.548h12.996c.52,15.747,13.228,28.456,28.975,28.975v13.001c-10.752-.244-20.847-4.404-28.619-11.817,.025-.032,.042-.068,.067-.1,.23-.299,.445-.609,.626-.936l.011-.022c.176-.321,.321-.658,.447-1.002,.024-.066,.051-.131,.073-.198,.115-.341,.204-.69,.268-1.048,.013-.07,.021-.141,.032-.212,.057-.375,.095-.754,.095-1.142,0-4.136-3.364-7.5-7.5-7.5Zm36.5,23.975v-13.008c5.042-.168,9.92-1.584,14.222-4.135,1.396,1.387,3.275,2.168,5.278,2.168,4.136,0,7.5-3.364,7.5-7.5,0-2.001-.781-3.881-2.166-5.276,2.548-4.302,3.965-9.181,4.131-14.224h13.01c-.527,22.915-19.06,41.448-41.975,41.975Z"/></svg>