<svg xmlns="http://www.w3.org/2000/svg" viewBox="0 0 96 96"><rect x="5" y="11" width="86" height="44" class="sgmaincolor"/><path d="m91,56H5c-.552,0-1-.448-1-1V11c0-.552.448-1,1-1h86c.552,0,1,.448,1,1v44c0,.552-.448,1-1,1Zm-85-2h84V12H6v42Zm29.937,25.803v2.262h-13.156v-1.924l7.046-7.306c.762-.763,1.369-1.521,1.82-2.275.451-.754.676-1.408.676-1.963,0-.815-.316-1.456-.949-1.924-.633-.468-1.504-.702-2.613-.702-.849,0-1.733.195-2.652.585-.919.39-1.751.932-2.496,1.625l-1.066-1.898c.988-.797,2.041-1.417,3.159-1.859,1.118-.442,2.24-.663,3.367-.663,1.768,0,3.185.408,4.251,1.222,1.066.815,1.599,1.907,1.599,3.276,0,1.612-1.127,3.588-3.38,5.928l-5.486,5.616h9.88Zm15.469-19.032h2.106l-8.19,24.414h-2.08l8.164-24.414Zm22.022,14.378v2.236h-2.808v4.68h-2.34v-4.68h-9.022v-1.924l6.5-11.596h2.444l-6.24,11.284h6.318v-4.654h2.34v4.654h2.808Z"/></svg>