<svg xmlns="http://www.w3.org/2000/svg" viewBox="0 0 96 96"><rect x="0" y="0" width="96" height="96" opacity="0"/><rect x="28" y="44" width="40" height="18" class="sgmaincolor"/><path d="m91,76H5c-.552,0-1-.448-1-1V21c0-.552.448-1,1-1h86c.552,0,1,.448,1,1v54c0,.552-.448,1-1,1Zm-85-2h84V22H6v52Zm62-11H28c-.552,0-1-.448-1-1v-18c0-.552.448-1,1-1h40c.552,0,1,.448,1,1v18c0,.552-.448,1-1,1Zm-39-2h38v-16H29v16Zm31-26.225c0-.552-.448-1-1-1h-21.999c-.552,0-1,.448-1,1s.448,1,1,1h21.999c.552,0,1-.448,1-1Z"/></svg>