<svg xmlns="http://www.w3.org/2000/svg" viewBox="0 0 96 96"><rect width="96" height="96" fill="#fff" opacity="0"/><path d="M38.461,30.258c-3.146,0-5.706-2.575-5.706-5.741s2.56-5.741,5.706-5.741,5.707,2.575,5.707,5.741-2.561,5.741-5.707,5.741Zm0-9.482c-2.044,0-3.706,1.679-3.706,3.741s1.662,3.741,3.706,3.741,3.707-1.679,3.707-3.741-1.663-3.741-3.707-3.741Z"/><polygon points="68.768 27.6 68.768 44.394 77.073 47.476 71.067 50.103 79.15 57.939 74.996 62.124 67.172 54.032 64.614 60.031 60.86 49.765 24.877 49.765 24.11 27.6 7.5 27.6 7.5 82 88.5 82 88.5 27.6 68.768 27.6" class="sgmaincolor"/><path d="M88.5,26.6h-18.731V14c0-.553-.447-1-1-1H24.116c-.553,0-1,.447-1,1v12.6H7.5c-.553,0-1,.447-1,1v54.4c0,.553,.447,1,1,1H88.5c.553,0,1-.447,1-1V27.6c0-.553-.447-1-1-1Zm-18.13,24.222l7.356,7.131-2.722,2.743-7.114-7.358c-.19-.196-.45-.305-.719-.305-.061,0-.121,.006-.182,.017-.33,.061-.606,.283-.738,.591l-1.566,3.675-2.973-8.132s-.001-.004-.002-.006l-2.681-7.332,9.295,3.451c.049,.024,.099,.04,.152,.056l5.927,2.201-3.737,1.635c-.306,.134-.524,.41-.584,.738-.059,.328,.049,.664,.288,.896Zm-45.254-4.409l10.342-10.02,4.503,5.445c.184,.222,.454,.354,.742,.362,.271,.004,.565-.109,.762-.32l13.843-14.94,12.461,12.124v3.892l-10.075-3.74c-.364-.136-.776-.047-1.053,.229s-.368,.687-.234,1.053l2.951,8.071H25.116v-2.156Zm0-31.413h42.652v21.273l-11.801-11.482c-.192-.188-.446-.265-.724-.283-.269,.007-.524,.123-.707,.32l-13.763,14.854-4.465-5.398c-.178-.215-.437-.346-.716-.36-.266-.014-.551,.086-.751,.28l-9.727,9.424V15Zm62.384,66H8.5V28.6h14.616v20.969c0,.553,.447,1,1,1H60.089l3.586,9.807c.142,.385,.503,.646,.913,.656,.411,.004,.785-.23,.946-.607l1.967-4.613,6.775,7.009c.187,.193,.443,.303,.712,.305h.007c.267,0,.521-.106,.71-.296l4.154-4.186c.188-.189,.293-.446,.29-.714s-.112-.522-.304-.708l-7.014-6.798,4.641-2.03c.374-.163,.61-.537,.6-.944-.012-.407-.27-.768-.652-.909l-7.651-2.84v-15.099h17.731v52.4Z"/></svg>