<svg id="uuid-ff10833b-e9e5-4d43-ac9c-0c01ed6490e1" xmlns="http://www.w3.org/2000/svg" viewBox="0 0 96 96"><rect id="uuid-86c43745-b49a-4f91-97c6-0073c24d207a" x="3.989" y="24.989" width="44.023" height="46.023" class="sgmaincolor"/><path d="m92.011,24H3.989c-.546,0-.989.443-.989.989v46.022c0,.546.443.989.989.989h88.022c.546,0,.989-.443.989-.989V24.989c0-.546-.443-.989-.989-.989Zm-87.034,1.978h42.022v44.045H4.978V25.978Zm86.045,44.045h-42.022V25.978h42.022v44.045Z"/><path d="m43.618,55.359l-13.436-13.465c-.386-.386-1.011-.392-1.403-.013l-3.096,2.99-5.761-6.115c-.364-.387-.966-.421-1.372-.08l-12.062,10.155c-.422.356-.477.987-.121,1.409.355.422.986.476,1.409.121l11.338-9.546,12.768,13.55c.197.209.462.314.728.314.246,0,.493-.09.686-.272.402-.379.421-1.012.042-1.414l-6.283-6.668,2.406-2.323,12.741,12.769c.195.195.452.293.708.293s.511-.097.707-.292c.391-.39.392-1.023.001-1.415Z"/><path d="m38.871,45.39c-2.481,0-4.5-2.019-4.5-4.5s2.019-4.5,4.5-4.5,4.5,2.019,4.5,4.5-2.019,4.5-4.5,4.5Zm0-7c-1.378,0-2.5,1.122-2.5,2.5s1.122,2.5,2.5,2.5,2.5-1.122,2.5-2.5-1.122-2.5-2.5-2.5Z"/><path d="m85,40h-30c-.552,0-1-.448-1-1s.448-1,1-1h30c.552,0,1,.448,1,1s-.448,1-1,1Z"/><path d="m85,46h-30c-.552,0-1-.448-1-1s.448-1,1-1h30c.552,0,1,.448,1,1s-.448,1-1,1Z"/><path d="m85,52h-30c-.552,0-1-.448-1-1s.448-1,1-1h30c.552,0,1,.448,1,1s-.448,1-1,1Z"/><path d="m65,58h-10c-.552,0-1-.448-1-1s.448-1,1-1h10c.552,0,1,.448,1,1s-.448,1-1,1Z"/></svg>
