<svg xmlns="http://www.w3.org/2000/svg" viewBox="0 0 96 96"><path d="M91,14H5c-.553,0-1,.448-1,1V80c0,.552,.447,1,1,1H91c.553,0,1-.448,1-1V15c0-.552-.447-1-1-1ZM6,16H31v63H6V16Zm84,63H33V16h57v63ZM25.012,33c0,.559-.453,1.012-1.012,1.012H13c-.559,0-1.012-.453-1.012-1.012s.453-1.012,1.012-1.012h11c.559,0,1.012,.453,1.012,1.012Zm-13.023-8c0-.559,.453-1.012,1.012-1.012h11c.559,0,1.012,.453,1.012,1.012s-.453,1.012-1.012,1.012H13c-.559,0-1.012-.453-1.012-1.012Zm13.023,24c0,.559-.453,1.012-1.012,1.012H13c-.559,0-1.012-.453-1.012-1.012s.453-1.012,1.012-1.012h11c.559,0,1.012,.453,1.012,1.012Zm0,8c0,.559-.453,1.012-1.012,1.012H13c-.559,0-1.012-.453-1.012-1.012s.453-1.012,1.012-1.012h11c.559,0,1.012,.453,1.012,1.012Zm0-16c0,.559-.453,1.012-1.012,1.012H13c-.559,0-1.012-.453-1.012-1.012s.453-1.012,1.012-1.012h11c.559,0,1.012,.453,1.012,1.012Z"/></svg>