<svg xmlns="http://www.w3.org/2000/svg" viewBox="0 0 19.8 18.29"><defs><style>.cls-1{fill:#0347ff;}.cls-2{fill:#2e3033;}</style></defs><g id="Layer_2" data-name="Layer 2"><g id="Layer_1-2" data-name="Layer 1"><path class="cls-1" d="M19.21,11.79,13.65,2.17a4.33,4.33,0,0,0-7.5,0L.59,11.79a4.33,4.33,0,0,0,3.75,6.5H7.18a3.12,3.12,0,0,1-2.24-4.66l4-7a3.14,3.14,0,0,1,5.43,0l4,7a3.13,3.13,0,0,1-1.09,4.25A4.34,4.34,0,0,0,19.21,11.79Z"/><path class="cls-2" d="M11.68,9.73,9.5,13.51A1.7,1.7,0,0,0,11,16.06h4.37a1.7,1.7,0,0,0,1.47-2.55L14.63,9.73A1.71,1.71,0,0,0,11.68,9.73Z"/></g></g></svg>