<svg xmlns="http://www.w3.org/2000/svg" viewBox="0 0 768 547"><defs><style>.cls-1{fill:none;}.cls-2{fill:#4e4b66;fill-opacity:0.1;}.cls-3{fill:#fff;}</style></defs><g id="Layer_2" data-name="Layer 2"><g id="Layer_1-2" data-name="Layer 1"><rect class="cls-1" width="768" height="547"/><circle class="cls-2" cx="384" cy="273" r="233"/><path class="cls-3" d="M504,306.75,432.29,184c-21.47-36.68-75-36.68-96.48,0L264.14,306.75c-21.47,36.69,5.3,82.75,48.25,82.75h36.52c-27.6-3.86-43.5-34.48-29-59.3l51.87-88.82c15.61-26.48,54.37-26.48,69.71,0l51.87,88.54c11.71,19.86,3.62,43.31-13.95,54.06C507.3,371,521,336,504,306.75Z"/><path class="cls-3" d="M407.06,280.7,379.6,330.35c-8.24,14.83,2.2,33.67,18.67,33.67h55.19c16.48,0,26.91-18.55,18.68-33.67L444.4,280.7A21,21,0,0,0,407.06,280.7Z"/></g></g></svg>