<svg width="15" height="12" viewBox="0 0 15 12" fill="none" xmlns="http://www.w3.org/2000/svg">
<path d="M4.5 11.9999C3.13144 12.0006 1.93589 11.075 1.59375 9.74988H0V8.24988H1.5945C1.98423 6.74047 3.46509 5.78107 5.00196 6.0423C6.53883 6.30354 7.61953 7.69834 7.48865 9.25176C7.35776 10.8052 6.05892 11.9995 4.5 11.9999ZM4.5 7.49988C3.68055 7.50071 3.01342 8.15902 3.00167 8.97839C2.98993 9.79776 3.63792 10.4749 4.45702 10.4992C5.27611 10.5235 5.96312 9.88601 6 9.06738V9.36738V8.99988C6 8.17145 5.32843 7.49988 4.5 7.49988ZM15 9.74988H8.25V8.24988H15V9.74988ZM8.25 5.99988C6.88172 6.00023 5.68657 5.07471 5.3445 3.74988H0V2.24988H5.3445C5.73423 0.740466 7.21509 -0.218932 8.75196 0.0423033C10.2888 0.303538 11.3695 1.69834 11.2386 3.25176C11.1078 4.80517 9.80892 5.99949 8.25 5.99988ZM8.25 1.49988C7.43055 1.50071 6.76342 2.15902 6.75167 2.97839C6.73993 3.79776 7.38792 4.47491 8.20702 4.49922C9.02611 4.52353 9.71312 3.88601 9.75 3.06738V3.36738V2.99988C9.75 2.17145 9.07843 1.49988 8.25 1.49988ZM15 3.74988H12V2.24988H15V3.74988Z" fill="white"/>
</svg>
