<svg width="1440" height="68" viewBox="0 0 1440 68" fill="none" xmlns="http://www.w3.org/2000/svg">
<path d="M235 1.85322C235 1.87946 234.552 1.90074 234 1.90074H218C217.448 1.90074 217 1.87946 217 1.85322C217 1.82697 217.448 1.8057 218 1.8057H234C234.552 1.8057 235 1.82697 235 1.85322ZM235 1.61562C235 1.64186 234.552 1.66314 234 1.66314H218C217.448 1.66314 217 1.64186 217 1.61562C217 1.58938 217.448 1.5681 218 1.5681H234C234.552 1.5681 235 1.58938 235 1.61562ZM235 1.37802C235 1.40427 234.552 1.42554 234 1.42554H218C217.448 1.42554 217 1.40427 217 1.37802C217 1.35178 217.448 1.33051 218 1.33051H234C234.552 1.33051 235 1.35178 235 1.37802Z" fill="#E0E0E0"/>
<rect x="293" y="17" width="74" height="34" rx="6" fill="#E0E0E0"/>
<rect x="489" y="15" width="360" height="38" rx="6" fill="#E0E0E0"/>
<circle cx="38" cy="34" r="22" fill="#E0E0E0"/>
<rect x="73" y="29" width="61" height="14" rx="7" fill="#E0E0E0"/>
<rect x="1256" y="25" width="36" height="18" rx="6" fill="#E0E0E0"/>
<rect x="1298" y="25" width="35" height="18" rx="6" fill="#E0E0E0"/>
<rect x="1337" y="25" width="24" height="18" rx="6" fill="#E0E0E0"/>
<circle cx="1402" cy="34" r="22" fill="#E0E0E0"/>
<path d="M241 39C241 39.5523 240.552 40 240 40H224C223.448 40 223 39.5523 223 39C223 38.4477 223.448 38 224 38H240C240.552 38 241 38.4477 241 39ZM241 34C241 34.5523 240.552 35 240 35H224C223.448 35 223 34.5523 223 34C223 33.4477 223.448 33 224 33H240C240.552 33 241 33.4477 241 34ZM241 29C241 29.5523 240.552 30 240 30H224C223.448 30 223 29.5523 223 29C223 28.4477 223.448 28 224 28H240C240.552 28 241 28.4477 241 29Z" fill="#E0E0E0"/>
</svg>
