<svg width="37" height="48" viewBox="0 0 37 48" fill="none" xmlns="http://www.w3.org/2000/svg">
<g clip-path="url(#clip0_40_2622)">
<path d="M33.5233 48H3.47667C1.55428 48 0 46.4576 0 44.55V3.45003C0 1.54236 1.55428 0 3.47667 0H26.5373L37 10.204V44.55C37 46.4576 35.4457 48 33.5233 48Z" fill="#E8EDF3"/>
<path d="M33.5233 47.9999H3.47667C1.55428 47.9999 0 46.4576 0 44.5499V33.4368H37V44.5499C37 46.4576 35.4457 47.9999 33.5233 47.9999Z" fill="#0072FF"/>
<path d="M26.5372 0V6.75393C26.5372 8.66159 28.0915 10.204 30.0139 10.204H37L26.5372 0Z" fill="#CADAE8"/>
<path d="M9.55469 38.1207H12.1642C12.7696 38.1207 13.3013 38.2343 13.7758 38.4535C14.2421 38.6808 14.602 38.9974 14.8638 39.4114C15.1174 39.8254 15.2483 40.3043 15.2483 40.8563C15.2483 41.4083 15.1174 41.8954 14.8638 42.3013C14.602 42.7153 14.2421 43.0319 13.7758 43.2592C13.3095 43.4865 12.7696 43.592 12.1642 43.592H9.55469V38.1125V38.1207ZM12.0988 42.3662C12.5733 42.3662 12.9496 42.2363 13.2359 41.9685C13.5222 41.7006 13.6694 41.3353 13.6694 40.8645C13.6694 40.3936 13.5304 40.0283 13.2359 39.7604C12.9496 39.4926 12.5733 39.3627 12.0988 39.3627H11.109V42.3662H12.0988Z" fill="white"/>
<path d="M17.277 43.3403C16.8108 43.0968 16.4426 42.7558 16.1809 42.3256C15.9191 41.8953 15.78 41.4083 15.78 40.8644C15.78 40.3205 15.9109 39.8334 16.1809 39.4032C16.4426 38.973 16.8108 38.632 17.277 38.3885C17.7433 38.145 18.2669 38.0232 18.8477 38.0232C19.4285 38.0232 19.952 38.145 20.4183 38.3885C20.8846 38.632 21.2527 38.973 21.5145 39.4032C21.7763 39.8334 21.9153 40.3205 21.9153 40.8644C21.9153 41.4083 21.7844 41.8953 21.5145 42.3256C21.2445 42.7558 20.8846 43.0968 20.4183 43.3403C19.952 43.5838 19.4285 43.7056 18.8477 43.7056C18.2669 43.7056 17.7433 43.5838 17.277 43.3403ZM19.6085 42.2282C19.8375 42.0983 20.0093 41.9116 20.1484 41.6762C20.2793 41.4407 20.3447 41.1647 20.3447 40.8563C20.3447 40.5478 20.2793 40.2718 20.1484 40.0364C20.0175 39.801 19.8375 39.6143 19.6085 39.4844C19.3794 39.3545 19.134 39.2896 18.8477 39.2896C18.5614 39.2896 18.316 39.3545 18.0869 39.4844C17.8579 39.6143 17.6779 39.801 17.547 40.0364C17.4161 40.2718 17.3507 40.5478 17.3507 40.8563C17.3507 41.1647 17.4161 41.4326 17.547 41.6762C17.6779 41.9116 17.8579 42.0983 18.0869 42.2282C18.316 42.358 18.5614 42.423 18.8477 42.423C19.134 42.423 19.3794 42.358 19.6085 42.2282Z" fill="white"/>
<path d="M23.9359 43.3404C23.4778 43.0969 23.1178 42.7641 22.8479 42.3257C22.5861 41.8955 22.4552 41.4003 22.4552 40.8564C22.4552 40.3125 22.5861 39.8173 22.8479 39.3871C23.1096 38.9569 23.4696 38.6159 23.9359 38.3724C24.394 38.1288 24.9175 38.0071 25.4901 38.0071C25.9973 38.0071 26.4472 38.0964 26.8563 38.275C27.2653 38.4536 27.6007 38.7052 27.8625 39.038L26.8726 39.931C26.5127 39.5007 26.0791 39.2897 25.5719 39.2897C25.2693 39.2897 25.0075 39.3546 24.7703 39.4845C24.533 39.6144 24.3531 39.8011 24.2222 40.0365C24.0913 40.2719 24.0258 40.5479 24.0258 40.8564C24.0258 41.1649 24.0913 41.4328 24.2222 41.6763C24.3531 41.9198 24.533 42.0984 24.7703 42.2283C25.0075 42.3582 25.2693 42.4231 25.5719 42.4231C26.0791 42.4231 26.5127 42.2121 26.8726 41.7818L27.8625 42.6748C27.5925 43.0076 27.2571 43.2674 26.8563 43.4378C26.4554 43.6083 25.9973 43.7057 25.4901 43.7057C24.9093 43.7057 24.394 43.5839 23.9359 43.3404Z" fill="white"/>
<path d="M29.9322 15.5372V15.3262C29.9322 14.9122 29.5968 14.5793 29.1796 14.5793H8.80216C8.38496 14.5793 8.04956 14.9122 8.04956 15.3262V15.5372C8.04956 15.9512 8.38496 16.2841 8.80216 16.2841H29.1796C29.5968 16.2841 29.9322 15.9512 29.9322 15.5372ZM29.9322 20.5134V20.3023C29.9322 19.8883 29.5968 19.5555 29.1796 19.5555H8.80216C8.38496 19.5555 8.04956 19.8883 8.04956 20.3023V20.5134C8.04956 20.9274 8.38496 21.2602 8.80216 21.2602H29.1796C29.5968 21.2602 29.9322 20.9274 29.9322 20.5134ZM22.5207 25.4895V25.2785C22.5207 24.8645 22.1853 24.5317 21.7681 24.5317H8.80216C8.38496 24.5317 8.04956 24.8645 8.04956 25.2785V25.4895C8.04956 25.9035 8.38496 26.2364 8.80216 26.2364H21.7763C22.1935 26.2364 22.5289 25.9035 22.5289 25.4895H22.5207Z" fill="#CADAE8"/>
</g>
<defs>
<clipPath id="clip0_40_2622">
<rect width="37" height="48" fill="white"/>
</clipPath>
</defs>
</svg>
