<svg width="37" height="48" viewBox="0 0 37 48" fill="none" xmlns="http://www.w3.org/2000/svg">
<g clip-path="url(#clip0_124_3149)">
<path d="M33.5233 48H3.47667C1.55428 48 0 46.4576 0 44.55V3.45003C0 1.54236 1.55428 0 3.47667 0H26.5373L37 10.204V44.55C37 46.4576 35.4457 48 33.5233 48Z" fill="#E8EDF3"/>
<path d="M33.5233 48.0002H3.47667C1.55428 48.0002 0 46.4578 0 44.5502V33.437H37V44.5502C37 46.4578 35.4457 48.0002 33.5233 48.0002Z" fill="#E63A3A"/>
<path d="M26.5372 0V6.75393C26.5372 8.66159 28.0915 10.204 30.0139 10.204H37L26.5372 0Z" fill="#CADAE8"/>
<path d="M14.6674 43.6004L14.6511 40.6942L13.2277 43.0565H12.5323L11.1171 40.7673V43.5922H9.67737V38.1128H10.9617L12.9005 41.2787L14.7901 38.1128H16.0744L16.0908 43.5922H14.6592L14.6674 43.6004Z" fill="white"/>
<path d="M21.0318 38.3644C21.3999 38.5268 21.6862 38.7622 21.8826 39.0707C22.0789 39.3792 22.1852 39.7363 22.1852 40.1503C22.1852 40.5643 22.0871 40.9215 21.8826 41.2219C21.6781 41.5222 21.3999 41.7576 21.0318 41.92C20.6637 42.0824 20.2301 42.1635 19.7311 42.1635H18.7658V43.5922H17.2034V38.1128H19.7229C20.2219 38.1128 20.6555 38.194 21.0236 38.3563L21.0318 38.3644ZM20.361 40.7348C20.5246 40.5968 20.6064 40.402 20.6064 40.1422C20.6064 39.8825 20.5246 39.6876 20.361 39.5496C20.1974 39.4116 19.952 39.3386 19.633 39.3386H18.7658V40.9459H19.633C19.952 40.9459 20.1974 40.8728 20.361 40.7348Z" fill="white"/>
<path d="M27.707 42.5452H26.889V43.5924H25.3674V42.5452H22.447V41.5386L24.9257 38.1211H26.5454L24.2958 41.3195H25.4165V40.3859H26.889V41.3195H27.707V42.5452Z" fill="white"/>
<path d="M18.5041 9.13232C13.1214 9.13232 8.73669 13.4753 8.73669 18.8167C8.73669 24.1582 13.1214 28.5012 18.5041 28.5012C23.8868 28.5012 28.2633 24.1582 28.2633 18.8167C28.2633 13.4753 23.8868 9.13232 18.5041 9.13232Z" fill="#CADAE8"/>
<path d="M16.2463 14.9609V22.6809L22.3571 18.825L16.2463 14.9609Z" fill="#E8EDF3"/>
</g>
<defs>
<clipPath id="clip0_124_3149">
<rect width="37" height="48" fill="white"/>
</clipPath>
</defs>
</svg>
