<svg width="37" height="48" viewBox="0 0 37 48" fill="none" xmlns="http://www.w3.org/2000/svg">
<g clip-path="url(#clip0_124_2891)">
<path d="M33.5233 48H3.47667C1.55428 48 0 46.4576 0 44.55V3.45003C0 1.54236 1.55428 0 3.47667 0H26.5373L37 10.204V44.55C37 46.4576 35.4457 48 33.5233 48Z" fill="#E8EDF3"/>
<path d="M0 33.437H37V44.5502C37 46.4578 35.4375 48.0002 33.5233 48.0002H3.47667C1.55428 48.0002 0 46.4497 0 44.5502V33.437Z" fill="#B0B7BD"/>
<path d="M26.5372 0V6.75393C26.5372 8.66159 28.0915 10.204 30.0139 10.204H37L26.5372 0Z" fill="#CADAE8"/>
<path d="M12.9986 20.1481C12.9905 21.2846 12.0252 22.2019 10.8717 22.1857C9.74283 22.1694 8.81845 21.2197 8.83481 20.0913C8.85117 18.9629 9.79192 18.0456 10.929 18.0538C12.0824 18.0538 13.0068 19.0035 12.9986 20.1481ZM18.5122 18.0538C17.367 18.0538 16.4262 18.9629 16.418 20.0913C16.4017 21.2197 17.3261 22.1694 18.455 22.1857C19.6166 22.2019 20.5737 21.2846 20.5819 20.1481C20.5901 18.9954 19.6657 18.0619 18.5122 18.0538ZM26.0955 18.0538C24.9502 18.0538 24.0095 18.9629 24.0013 20.0913C23.9849 21.2197 24.9093 22.1694 26.0382 22.1857C27.1998 22.2019 28.1569 21.2846 28.1651 20.1481C28.1733 18.9954 27.2489 18.0619 26.0955 18.0538Z" fill="#CADAE8"/>
<path d="M20.3038 39.8902L20.1156 41.4569H21.4899V42.8613H19.9438L19.7393 44.4848H18.2423L18.4468 42.8613H17.097L16.8925 44.4848H15.3955L15.6082 42.8613H14.2257V41.4569H15.7882L15.9763 39.8902H14.5938V38.4858H16.1563L16.3608 36.8623H17.8578L17.6533 38.4858H19.0031L19.2158 36.8623H20.7128L20.5083 38.4858H21.8908V39.8902H20.3283H20.3038ZM18.8067 39.8902H17.457L17.2688 41.4569H18.6186L18.8067 39.8902Z" fill="white"/>
</g>
<defs>
<clipPath id="clip0_124_2891">
<rect width="37" height="48" fill="white"/>
</clipPath>
</defs>
</svg>
