<svg width="37" height="48" viewBox="0 0 37 48" fill="none" xmlns="http://www.w3.org/2000/svg">
<g clip-path="url(#clip0_124_735)">
<path d="M33.5233 48H3.47667C1.55428 48 0 46.4576 0 44.55V3.45003C0 1.54236 1.55428 0 3.47667 0H26.5373L37 10.204V44.55C37 46.4576 35.4457 48 33.5233 48Z" fill="#E8EDF3"/>
<path d="M33.5233 48.0002H3.47667C1.55428 48.0002 0 46.4578 0 44.5502V33.437H37V44.5502C37 46.4578 35.4457 48.0002 33.5233 48.0002Z" fill="#FF3E4C"/>
<path d="M26.5372 0V6.75393C26.5372 8.66159 28.0915 10.204 30.0139 10.204H37L26.5372 0Z" fill="#CADAE8"/>
<path d="M15.2811 38.364C15.6492 38.5263 15.9355 38.7617 16.1318 39.0702C16.3282 39.3787 16.4345 39.7358 16.4345 40.1498C16.4345 40.5639 16.3363 40.921 16.1318 41.2214C15.9273 41.5217 15.6492 41.7572 15.2811 41.9195C14.913 42.0819 14.4794 42.163 13.9804 42.163H13.0151V43.5918H11.4526V38.1123H13.9722C14.4712 38.1123 14.9048 38.1935 15.2729 38.3558L15.2811 38.364ZM14.6103 40.7343C14.7739 40.5963 14.8557 40.4015 14.8557 40.1417C14.8557 39.882 14.7739 39.6871 14.6103 39.5491C14.4467 39.4111 14.2013 39.3381 13.8822 39.3381H13.0151V40.9454H13.8822C14.2013 40.9454 14.4467 40.8723 14.6103 40.7343Z" fill="white"/>
<path d="M17.1871 38.1209H19.7967C20.402 38.1209 20.9338 38.2346 21.4082 38.4537C21.8745 38.681 22.2344 38.9976 22.4962 39.4116C22.7498 39.8256 22.8807 40.3046 22.8807 40.8566C22.8807 41.4086 22.7498 41.8956 22.4962 42.3015C22.2344 42.7155 21.8745 43.0321 21.4082 43.2594C20.9419 43.4867 20.402 43.5922 19.7967 43.5922H17.1871V38.1128V38.1209ZM19.7312 42.3665C20.2057 42.3665 20.582 42.2366 20.8683 41.9687C21.1546 41.7008 21.3019 41.3355 21.3019 40.8647C21.3019 40.3939 21.1628 40.0286 20.8683 39.7607C20.582 39.4928 20.2057 39.3629 19.7312 39.3629H18.7414V42.3665H19.7312Z" fill="white"/>
<path d="M25.2694 39.314V40.5155H27.7071V41.7088H25.2694V43.5839H23.7069V38.1045H28.0343V39.3059H25.2694V39.314Z" fill="white"/>
<path d="M18.7249 12.9638C18.7086 14.1896 18.3977 15.3423 17.9642 16.4788C17.8742 16.7061 17.776 16.9334 17.6942 17.1607C17.6697 17.2175 17.6778 17.3068 17.6942 17.3555C18.545 18.9628 19.6411 20.3591 21.13 21.4306C21.2363 21.5037 21.3263 21.5361 21.4572 21.5037C22.6025 21.2439 23.7559 21.0653 24.9339 21.1384C25.9155 21.1952 26.8481 21.4144 27.6579 21.9989C27.9115 22.1856 28.1569 22.4047 28.3369 22.6564C28.7214 23.184 28.5742 23.8091 28.0097 24.1419C27.478 24.4585 26.889 24.5478 26.2836 24.564C24.8357 24.5884 23.4859 24.2069 22.1934 23.5818C21.8417 23.4113 21.4981 23.2003 21.1545 23.0217C21.0891 22.9892 21.0073 22.9567 20.9418 22.9811C19.0113 23.4925 17.0889 24.0202 15.1583 24.5316C14.7493 24.6371 14.512 24.8482 14.3239 25.2378C13.8249 26.2931 13.2441 27.2997 12.4833 28.2008C12.0824 28.6716 11.6407 29.1018 11.109 29.4266C10.7081 29.6701 10.2746 29.8324 9.79193 29.7594C8.76938 29.6051 8.19675 28.6229 8.5485 27.6407C8.78574 26.9669 9.25202 26.4555 9.77557 25.9928C10.839 25.0349 12.0661 24.3449 13.3913 23.8091C13.5549 23.7442 13.6531 23.6549 13.7185 23.4925C14.3648 21.8609 15.0192 20.2373 15.6655 18.6138C15.8127 18.2404 15.9681 17.8588 16.1317 17.4935C16.1808 17.3799 16.1808 17.2825 16.1317 17.1769C15.7227 16.3083 15.4037 15.4154 15.2646 14.4656C15.101 13.3616 15.1828 12.282 15.7554 11.2997C15.9272 11.0075 16.1399 10.7315 16.3935 10.5123C16.9007 10.0821 17.5797 10.1632 18.0214 10.6503C18.4141 11.0724 18.5777 11.592 18.6513 12.144C18.6922 12.4281 18.7004 12.7122 18.7249 12.9963V12.9638ZM16.9825 18.8329C16.4344 20.2454 15.8782 21.6579 15.3219 23.0785C16.778 22.697 18.2096 22.3236 19.6248 21.9583C19.1503 21.4631 18.6513 20.9923 18.2096 20.4808C17.7678 19.9613 17.3915 19.3931 16.9743 18.8329H16.9825ZM12.6469 25.595C12.5978 25.6031 12.5733 25.6031 12.5651 25.6112C11.7634 26.0496 11.0026 26.5529 10.3727 27.2185C10.1519 27.4539 9.98008 27.7381 9.80011 28.0141C9.73466 28.1115 9.71012 28.2332 9.81647 28.3469C9.93099 28.4605 10.0619 28.4605 10.1846 28.3956C10.3809 28.2901 10.5854 28.1764 10.7654 28.0384C11.5834 27.3728 12.1315 26.5123 12.6551 25.5869L12.6469 25.595ZM16.9089 15.5128C16.9743 15.2936 17.0398 15.1069 17.0889 14.9202C17.3179 14.0922 17.457 13.2561 17.3588 12.3956C17.3261 12.1196 17.2688 11.8517 17.1134 11.6001C16.4099 12.2089 16.2872 14.3844 16.9007 15.5128H16.9089ZM26.979 23.1353C25.7846 22.283 24.4512 22.3641 23.1015 22.5346C24.3367 23.0704 25.6128 23.4032 26.979 23.1353Z" fill="#CADAE8"/>
</g>
<defs>
<clipPath id="clip0_124_735">
<rect width="37" height="48" fill="white"/>
</clipPath>
</defs>
</svg>
