<svg width="37" height="48" viewBox="0 0 37 48" fill="none" xmlns="http://www.w3.org/2000/svg">
<g clip-path="url(#clip0_124_3311)">
<path d="M33.5233 48H3.47667C1.55428 48 0 46.4576 0 44.55V3.45003C0 1.54236 1.55428 0 3.47667 0H26.5373L37 10.204V44.55C37 46.4576 35.4457 48 33.5233 48Z" fill="#E8EDF3"/>
<path d="M33.5233 48.0002H3.47667C1.55428 48.0002 0 46.4578 0 44.5502V33.437H37V44.5502C37 46.4578 35.4457 48.0002 33.5233 48.0002Z" fill="#FF9908"/>
<path d="M26.5372 0V6.75393C26.5372 8.66159 28.0915 10.204 30.0139 10.204H37L26.5372 0Z" fill="#CADAE8"/>
<path d="M15.2892 38.3644C15.6574 38.5268 15.9437 38.7622 16.14 39.0707C16.3363 39.3792 16.4427 39.7363 16.4427 40.1503C16.4427 40.5643 16.3445 40.9215 16.14 41.2219C15.9355 41.5222 15.6574 41.7576 15.2892 41.92C14.9211 42.0824 14.4876 42.1635 13.9886 42.1635H13.0233V43.5922H11.4608V38.1128H13.9804C14.4794 38.1128 14.9129 38.194 15.2811 38.3563L15.2892 38.3644ZM14.6185 40.7348C14.7821 40.5968 14.8639 40.402 14.8639 40.1422C14.8639 39.8825 14.7821 39.6876 14.6185 39.5496C14.4548 39.4116 14.2094 39.3386 13.8904 39.3386H13.0233V40.9459H13.8904C14.2094 40.9459 14.4548 40.8728 14.6185 40.7348Z" fill="white"/>
<path d="M21.0237 38.3644C21.3919 38.5268 21.6782 38.7622 21.8745 39.0707C22.0708 39.3792 22.1772 39.7363 22.1772 40.1503C22.1772 40.5643 22.079 40.9215 21.8745 41.2219C21.67 41.5222 21.3919 41.7576 21.0237 41.92C20.6556 42.0824 20.2221 42.1635 19.7231 42.1635H18.7578V43.5922H17.1953V38.1128H19.7149C20.2139 38.1128 20.6474 38.194 21.0156 38.3563L21.0237 38.3644ZM20.353 40.7348C20.5166 40.5968 20.5984 40.402 20.5984 40.1422C20.5984 39.8825 20.5166 39.6876 20.353 39.5496C20.1893 39.4116 19.9439 39.3386 19.6249 39.3386H18.7578V40.9459H19.6249C19.9439 40.9459 20.1893 40.8728 20.353 40.7348Z" fill="white"/>
<path d="M23.9768 39.3469H22.2834V38.1211H27.2244V39.3469H25.5393V43.5924H23.9768V39.3469Z" fill="white"/>
<path d="M8.91663 19.4746C8.91663 14.6933 12.8269 10.813 17.6451 10.813V19.4746H8.91663Z" fill="#CADAE8"/>
<path d="M10.6345 21.1792C10.6345 25.9605 14.5448 29.8408 19.363 29.8408C24.1813 29.8408 28.0915 25.9605 28.0915 21.1792C28.0915 16.3978 24.1813 12.5176 19.363 12.5176V21.1792H10.6345Z" fill="#CADAE8"/>
</g>
<defs>
<clipPath id="clip0_124_3311">
<rect width="37" height="48" fill="white"/>
</clipPath>
</defs>
</svg>
