<svg width="37" height="48" viewBox="0 0 37 48" fill="none" xmlns="http://www.w3.org/2000/svg">
<g clip-path="url(#clip0_124_2459)">
<path d="M33.5233 48H3.47667C1.55428 48 0 46.4576 0 44.55V3.45003C0 1.54236 1.55428 0 3.47667 0H26.5373L37 10.204V44.55C37 46.4576 35.4457 48 33.5233 48Z" fill="#E8EDF3"/>
<path d="M33.5233 48.0002H3.47667C1.55428 48.0002 0 46.4578 0 44.5502V33.437H37V44.5502C37 46.4578 35.4457 48.0002 33.5233 48.0002Z" fill="#A140FF"/>
<path d="M26.5372 0V6.75393C26.5372 8.66159 28.0915 10.204 30.0139 10.204H37L26.5372 0Z" fill="#CADAE8"/>
<path d="M16.7126 38.1206L14.9211 43.6001H13.2523L12.197 40.2637L11.0926 43.6001H9.42383L7.63232 38.1206H9.24387L10.3564 41.6193L11.5262 38.1206H12.9578L14.0703 41.6518L15.2319 38.1206H16.7208H16.7126Z" fill="white"/>
<path d="M20.7783 42.5366H18.4468L18.0133 43.6001H16.4181L18.8559 38.1206H20.3938L22.8397 43.6001H21.2118L20.7783 42.5366ZM20.3201 41.392L19.6085 39.6386L18.8968 41.392H20.3201Z" fill="white"/>
<path d="M28.5742 38.1206L26.21 43.6001H24.6721L22.3162 38.1206H24.0013L25.4983 41.6924L27.0281 38.1206H28.5742Z" fill="white"/>
<path d="M29.4658 20.6678H26.1691V19.1579C26.1691 18.6871 25.7846 18.3056 25.3102 18.3056C24.8357 18.3056 24.4512 18.6871 24.4512 19.1579V20.6678H23.2405V17.6156C23.2405 17.1447 22.856 16.7632 22.3816 16.7632C21.9071 16.7632 21.5226 17.1447 21.5226 17.6156V20.6678H18.4059V20.0428C18.4059 19.5719 18.0214 19.1904 17.5469 19.1904C17.0725 19.1904 16.688 19.5719 16.688 20.0428V20.6678H15.4773V17.0717C15.4773 16.6008 15.0928 16.2193 14.6184 16.2193C14.1439 16.2193 13.7594 16.6008 13.7594 17.0717V20.6678H12.5487V14.1087C12.5487 13.6379 12.1642 13.2563 11.6898 13.2563C11.2153 13.2563 10.8308 13.6379 10.8308 14.1087V20.6678H7.52594C7.05147 20.6678 6.66699 21.0493 6.66699 21.5202C6.66699 21.991 7.05147 22.3725 7.52594 22.3725H10.8308V28.9316C10.8308 29.4025 11.2153 29.784 11.6898 29.784C12.1642 29.784 12.5487 29.4025 12.5487 28.9316V22.3725H13.7594V25.9687C13.7594 26.4395 14.1439 26.821 14.6184 26.821C15.0928 26.821 15.4773 26.4395 15.4773 25.9687V22.3725H16.688V22.9976C16.688 23.4684 17.0725 23.85 17.5469 23.85C18.0214 23.85 18.4059 23.4684 18.4059 22.9976V22.3725H21.5226V25.4248C21.5226 25.8956 21.9071 26.2771 22.3816 26.2771C22.856 26.2771 23.2405 25.8956 23.2405 25.4248V22.3725H24.4512V23.8824C24.4512 24.3533 24.8357 24.7348 25.3102 24.7348C25.7846 24.7348 26.1691 24.3533 26.1691 23.8824V22.3725H29.4658C29.9403 22.3725 30.3247 21.991 30.3247 21.5202C30.3247 21.0493 29.9403 20.6678 29.4658 20.6678Z" fill="#CADAE8"/>
</g>
<defs>
<clipPath id="clip0_124_2459">
<rect width="37" height="48" fill="white"/>
</clipPath>
</defs>
</svg>
