<svg width="37" height="48" viewBox="0 0 37 48" fill="none" xmlns="http://www.w3.org/2000/svg">
<g clip-path="url(#clip0_124_2788)">
<path d="M33.5233 48H3.47667C1.55428 48 0 46.4576 0 44.55V3.45003C0 1.54236 1.55428 0 3.47667 0H26.5373L37 10.204V44.55C37 46.4576 35.4457 48 33.5233 48Z" fill="#E8EDF3"/>
<path d="M33.5233 48.0002H3.47667C1.55428 48.0002 0 46.4578 0 44.5502V33.437H37V44.5502C37 46.4578 35.4457 48.0002 33.5233 48.0002Z" fill="#329E5E"/>
<path d="M26.5372 0V6.75393C26.5372 8.66159 28.0915 10.204 30.0139 10.204H37L26.5372 0Z" fill="#CADAE8"/>
<path d="M14.6675 43.6005L13.5222 41.9039L12.3933 43.6005H10.61L12.6224 40.8324L10.7 38.1211H12.4588L13.5631 39.704L14.6511 38.1211H16.3363L14.4139 40.7675L16.4672 43.6005H14.6675Z" fill="white"/>
<path d="M16.8353 38.1209H18.3978V42.3665H21.0319V43.5922H16.8353V38.1128V38.1209Z" fill="white"/>
<path d="M22.2671 43.5436C21.8499 43.43 21.5063 43.292 21.2445 43.1052L21.7599 41.9606C22.0053 42.123 22.2916 42.2529 22.6188 42.3503C22.946 42.4477 23.2651 42.4964 23.5841 42.4964C24.1813 42.4964 24.484 42.3503 24.484 42.0499C24.484 41.8957 24.4021 41.7739 24.2304 41.7009C24.0586 41.6278 23.7886 41.5466 23.4041 41.4655C22.9869 41.3762 22.6434 41.2788 22.3652 41.1813C22.0871 41.0839 21.8499 40.9135 21.6453 40.6943C21.4408 40.4751 21.3427 40.1666 21.3427 39.7851C21.3427 39.4523 21.4327 39.1519 21.6208 38.884C21.809 38.6162 22.0789 38.4051 22.447 38.2427C22.8151 38.0885 23.2569 38.0073 23.7886 38.0073C24.1486 38.0073 24.5085 38.0479 24.8602 38.1291C25.212 38.2103 25.5229 38.332 25.7928 38.4863L25.3102 39.639C24.7866 39.3549 24.2713 39.2169 23.7804 39.2169C23.4696 39.2169 23.2405 39.2656 23.1015 39.3549C22.9624 39.4442 22.8888 39.5659 22.8888 39.712C22.8888 39.8582 22.9706 39.9637 23.1424 40.0368C23.3142 40.1098 23.5841 40.1829 23.9522 40.264C24.3694 40.3533 24.7212 40.4508 24.9993 40.5482C25.2774 40.6456 25.5147 40.8079 25.7192 41.0352C25.9237 41.2544 26.0219 41.5548 26.0219 41.9363C26.0219 42.261 25.9319 42.5614 25.7437 42.8292C25.5638 43.0971 25.2856 43.3082 24.9175 43.4705C24.5494 43.6329 24.0995 43.706 23.5759 43.706C23.126 43.706 22.6924 43.6491 22.2752 43.5436H22.2671Z" fill="white"/>
<path d="M27.5271 18.1188V17.8184H18.9295V14.4009H8.61401V26.3583H27.5353V23.996V18.1107L27.5271 18.1188ZM25.8092 19.5232V21.236H18.9213V19.5232H25.8092ZM18.9213 24.6535V22.9407H25.8092V24.6535H18.9213ZM10.3237 16.1056H17.2116V17.8184H10.3237V16.1056ZM10.3237 19.5232H17.2116V21.236H10.3237V19.5232ZM10.3237 22.9407H17.2116V24.6535H10.3237V22.9407Z" fill="#CADAE8"/>
</g>
<defs>
<clipPath id="clip0_124_2788">
<rect width="37" height="48" fill="white"/>
</clipPath>
</defs>
</svg>
