<svg width="37" height="48" viewBox="0 0 37 48" fill="none" xmlns="http://www.w3.org/2000/svg">
<g clip-path="url(#clip0_124_4450)">
<path d="M33.5233 48H3.47667C1.55428 48 0 46.4576 0 44.55V3.45003C0 1.54236 1.55428 0 3.47667 0H26.5373L37 10.204V44.55C37 46.4576 35.4457 48 33.5233 48Z" fill="#E8EDF3"/>
<path d="M0 33.4368H37V44.5499C37 46.4576 35.4375 47.9999 33.5233 47.9999H3.47667C1.55428 47.9999 0 46.4495 0 44.5499V33.4368Z" fill="#FFB11F"/>
<path d="M26.5372 0V6.75393C26.5372 8.66159 28.0915 10.204 30.0139 10.204H37L26.5372 0Z" fill="#CADAE8"/>
<path d="M16.0663 42.3662V43.592H11.1254V42.6179L13.9067 39.3383H11.1908V38.1125H15.9436V39.0867L13.1623 42.3662H16.0663Z" fill="white"/>
<path d="M16.7535 38.1208H18.316V43.6003H16.7535V38.1208Z" fill="white"/>
<path d="M23.2569 38.3642C23.625 38.5265 23.9113 38.762 24.1077 39.0704C24.304 39.3789 24.4103 39.7361 24.4103 40.1501C24.4103 40.5641 24.3122 40.9213 24.1077 41.2216C23.9032 41.522 23.625 41.7574 23.2569 41.9198C22.8888 42.0821 22.4552 42.1633 21.9562 42.1633H20.9909V43.592H19.4285V38.1125H21.948C22.447 38.1125 22.8806 38.1937 23.2487 38.3561L23.2569 38.3642ZM22.5861 40.7346C22.7497 40.5966 22.8315 40.4017 22.8315 40.142C22.8315 39.8822 22.7497 39.6874 22.5861 39.5494C22.4225 39.4114 22.1771 39.3383 21.858 39.3383H20.9909V40.9456H21.858C22.1771 40.9456 22.4225 40.8726 22.5861 40.7346Z" fill="white"/>
<path d="M19.7066 24.7509V22.1775C19.7066 21.9015 19.4857 21.6824 19.2076 21.6824H17.8087C17.5306 21.6824 17.3097 21.9015 17.3097 22.1775V24.7509L16.5244 27.0238C16.3035 27.657 16.4099 28.3632 16.8025 28.9152C17.187 29.4591 17.8333 29.7838 18.5041 29.7838C19.1749 29.7838 19.8129 29.4591 20.2056 28.9152C20.5982 28.3714 20.7046 27.6651 20.4837 27.0238L19.6984 24.7509H19.7066ZM19.3794 28.3145C18.9785 28.8828 18.0296 28.8828 17.6206 28.3145C17.4242 28.0385 17.367 27.6651 17.4815 27.3404L17.7351 26.5773H19.2648L19.5348 27.3404C19.6411 27.6651 19.5921 28.0385 19.3794 28.3145ZM15.4037 7.87415V9.28663C15.4037 9.56263 15.6246 9.78181 15.9027 9.78181H17.8087V11.8924H15.9027C15.6246 11.8924 15.4037 12.1116 15.4037 12.3876V13.4754C15.4037 13.7514 15.6246 13.9868 15.9027 13.9868H17.8087V16.0811H15.9027C15.6246 16.0811 15.4037 16.3003 15.4037 16.5763V17.6803C15.4037 17.9563 15.6246 18.1755 15.9027 18.1755H17.8087V19.7747C17.8087 20.0507 18.046 20.2699 18.3241 20.2699H21.1136C21.3836 20.2699 21.6126 20.0507 21.6126 19.7747V18.6707C21.6126 18.4028 21.3754 18.1755 21.1136 18.1755H19.1994V16.0811H21.1136C21.3836 16.0811 21.6126 15.862 21.6126 15.586V14.482C21.6126 14.206 21.3754 13.9868 21.1136 13.9868H19.1994V11.8924H21.1136C21.3836 11.8924 21.6126 11.657 21.6126 11.381V10.2932C21.6126 10.0172 21.3754 9.78181 21.1136 9.78181H19.1994V7.85791L15.4037 7.86603V7.87415Z" fill="#CADAE8"/>
</g>
<defs>
<clipPath id="clip0_124_4450">
<rect width="37" height="48" fill="white"/>
</clipPath>
</defs>
</svg>
