<svg xmlns="http://www.w3.org/2000/svg" width="30" height="30" ><path fill="#3fad43" d="M15 29.808c8.168 0 14.808-6.641 14.808-14.808a14.8 14.8 0 0 0-.586-4.126 1.23 1.23 0 0 0-1.527-.841 1.24 1.24 0 0 0-.841 1.527 12.18 12.18 0 0 1 .486 3.432A12.36 12.36 0 0 1 15 27.332C8.198 27.332 2.66 21.803 2.66 15A12.36 12.36 0 0 1 15 2.66a12.27 12.27 0 0 1 6.88 2.09c.563.378 1.334.231 1.712-.332s.231-1.334-.332-1.712C20.823 1.063 17.969.192 15 .192 6.832.192.192 6.832.192 15S6.832 29.808 15 29.808zM27.703 3.022L15 15.725l-4.065-4.065a1.24 1.24 0 0 0-1.743 0 1.24 1.24 0 0 0 0 1.743l4.936 4.936a1.23 1.23 0 0 0 .872.362c.317 0 .632-.123.872-.362L29.446 4.765a1.24 1.24 0 0 0 0-1.743c-.478-.486-1.265-.486-1.743 0z"/></svg>