<svg xmlns="http://www.w3.org/2000/svg" width="100" height="100" fill="none"><rect x=".6" y=".6" width="98.8" height="98.8" rx="2.4" fill="#fff"/><rect x=".6" y=".6" width="98.8" height="98.8" rx="2.4" stroke="#8796a1" stroke-width="1.2"/><rect x="10.492" y="30.412" width="37.018" height="39.176" rx="1.52" fill="#fff"/><rect x="10.492" y="30.412" width="37.018" height="39.176" rx="1.52" stroke="#4d626e" stroke-width="1.824"/><g fill="#4d626e"><path d="M37.694 44.98l.033-1.068c-.013-5.193-3.057-8.212-7.862-8.533-4.187-.279-7.34 1.38-8.779 4.146-.484.93-.759 2.094-.863 3.358-.163.659-.254 1.343-.254 2.052h.017c-.012.017-.025.017-.033.021-.613.108-.893 1.414-.621 2.92.246 1.38.872 2.452 1.447 2.532.734 1.969 1.889 3.883 3.324 5.28.809.792 1.71 1.418 2.669 1.802.659.259 1.347.404 2.052.404s1.393-.146 2.052-.404c.993-.396 1.923-1.051 2.753-1.885 1.397-1.397 2.527-3.278 3.245-5.214.551-.163 1.13-1.197 1.368-2.515.25-1.439.008-2.686-.546-2.895zm-.93 3.086c-.129.73-.417 1.335-.717 1.593-.121.1-.246.15-.367.129-.067-.008-.129-.042-.183-.096-.663 2.065-1.927 4.125-3.524 5.372-.951.746-2.023 1.205-3.153 1.205-1.105 0-2.156-.438-3.091-1.155-1.627-1.243-2.915-3.328-3.587-5.422a.34.34 0 0 1-.183.092c-.138.025-.284-.042-.421-.183-.284-.284-.538-.851-.663-1.535-.008-.046-.013-.088-.021-.133a21.83 21.83 0 0 1 .058-1.401c.063-.175.138-.313.242-.388.042-.033.092-.05.142-.058.113-.021.234.025.35.117v-.029c.042-.388.563-3.8 3.841-3.495 0 0 2.878 1.059 5.497.125a13.14 13.14 0 0 1 .809 0c1.084.042 1.827.605 2.607.963-.029-.359-.304-.722-.292-.963a1.6 1.6 0 0 1 .346.146c.559.596 1.101 1.597 1.535 3.232v.021l.013-.013c.113-.088.229-.129.342-.108.029.004.054.013.083.025.355.171.509 1.009.338 1.96zm10.235 21.429H11.005c.079-1.572.313-3.065.776-4.629l.1-.334.138-.417c-.004.008-.008.017-.008.025.008-.017.012-.033.021-.05l.008-.021v-.004-.004c2.048-5.472 5.255-5.689 5.985-5.86 1.556-.363 3.437-.209 4.442-.521.117.984 2.986 4.229 4.863 6.26l.801-3.149c-.601-.363-.73-1.151-.73-1.81h3.086c0 .663-.129 1.46-.747 1.819l.813 3.141c1.881-2.031 4.746-5.276 4.863-6.26 1.005.313 2.89.158 4.442.521.73.171 3.933.384 5.981 5.839l.163.45v.004c.004.013.008.021.008.033l.096.334c.367 1.322.672 2.711.826 4.075.038.188.054.375.067.559z"/><rect x="54.422" y="33.25" width="30" height="4" rx="2"/><rect x="54.422" y="39.75" width="19.895" height="2.5" rx="1.25"/><rect x="54.422" y="46.25" width="36" height="3" rx="1.5"/><rect x="54.422" y="51.75" width="36" height="3" rx="1.5"/><path d="M61.823 58.75H55.31a.9.9 0 0 0-.628.251.84.84 0 0 0-.26.606v6.286a.84.84 0 0 0 .26.606.9.9 0 0 0 .628.251h2.54v-2.72h-1.166v-1.28h1.166v-.976c0-1.11.685-1.723 1.733-1.723a7.26 7.26 0 0 1 1.027.087v1.089h-.579c-.57 0-.748.342-.748.692v.831h1.273l-.203 1.28h-1.069v2.72h2.539a.9.9 0 0 0 .628-.251.84.84 0 0 0 .26-.606v-6.286a.84.84 0 0 0-.26-.606c-.167-.161-.393-.251-.628-.251zm11.347 0h-6.286a.86.86 0 0 0-.857.857v6.286a.86.86 0 0 0 .857.857h6.286a.86.86 0 0 0 .857-.857v-6.286a.86.86 0 0 0-.857-.857zm-.873 2.836l.004.152c0 1.548-1.179 3.332-3.332 3.332a3.32 3.32 0 0 1-1.798-.525 2.41 2.41 0 0 0 .282.014 2.35 2.35 0 0 0 1.454-.5c-.514-.011-.946-.348-1.095-.812a1.26 1.26 0 0 0 .528-.021 1.17 1.17 0 0 1-.937-1.15v-.014a1.17 1.17 0 0 0 .529.148 1.17 1.17 0 0 1-.521-.975c0-.218.057-.418.159-.591.577.711 1.443 1.175 2.414 1.225a1.17 1.17 0 0 1 1.143-1.439c.337 0 .641.141.855.37.264-.05.518-.148.743-.282a1.17 1.17 0 0 1-.514.645c.236-.025.464-.091.675-.182a2.46 2.46 0 0 1-.588.607zm12.475-2.836h-6.859c-.314 0-.57.259-.57.577v6.846c0 .318.255.577.57.577h6.859c.314 0 .572-.259.572-.577v-6.846c0-.318-.257-.577-.572-.577zm-5.011 6.857h-1.186v-3.818h1.188v3.818h-.002zm-.593-4.339a.69.69 0 0 1-.687-.687.69.69 0 0 1 .688-.687.69.69 0 0 1 .688.688c0 .38-.307.688-.687.688zm5.037 4.339H83.02V63.75c0-.443-.009-1.013-.616-1.013-.618 0-.712.482-.712.98v1.889h-1.186v-3.818h1.138v.521h.016c.159-.3.546-.616 1.123-.616 1.2 0 1.423.791 1.423 1.82v2.093z"/></g></svg>