<svg xmlns="http://www.w3.org/2000/svg" viewBox="0 0 128 128" width="150" height="150" ><linearGradient id="A" gradientUnits="userSpaceOnUse" x1="2.363" y1="125.638" x2="125.638" y2="2.362"><stop offset="0" stop-color="#225e64"/><stop offset="1" stop-color="#71b280"/></linearGradient><path fill="url(#A)" d="M119.9 128H8.1c-4.5 0-8.1-3.6-8.1-8.1V8.1C0 3.6 3.6 0 8.1 0h111.8c4.5 0 8.1 3.6 8.1 8.1v111.8c0 4.5-3.6 8.1-8.1 8.1z"/><path d="M57.5 78.9l-.1.4-6.8 2c-1.9.6-4.1 6.3-5.9 15.2a37.71 37.71 0 0 0 19.2 5.3c.8 0 1.7 0 2.5-.1 5.9-.4 11.7-2.1 16.7-5.2-1.7-8.8-3.9-14.7-5.9-15.2l-6.8-2-.1-.4c-.1-.3-.3-.6-.7-.8l-.6-.5.5-.6c.6-.6 1-1.2 1.2-1.6.8-1.1 1.4-2.3 1.8-3.5l.6-1.5.1-.2.2-.1c.5-.4.7-.9.7-1.5v-2a1.92 1.92 0 0 0-.4-1.2l-.1-.4v-3a8.28 8.28 0 0 0-8.3-8.3h-2.9c-4.5 0-8.3 3.7-8.3 8.3v3l-.1.2c-.2.3-.4.8-.4 1.2v2c0 .6.3 1.2.7 1.5l.2.1.1.2c.1.5.3 1 .5 1.4.5 1.2 1.1 2.4 1.9 3.5.4.6.8 1.1 1.2 1.6l.5.6-.6.7c-.2.4-.5.6-.6.9zM41.4 94.3c.2-1.1.5-2.2.8-3.4 2.5-10.4 5.1-12.4 7.4-13.2l3.8-1.1c-.6-1-1.2-2.1-1.6-3.2-.1-.3-.3-.7-.4-1h0l-4.1-1.2-.1-.4c-.1-.3-.3-.6-.7-.8l-.7-.6.5-.6c.4-.5.8-1 1.2-1.6.8-1.1 1.4-2.3 1.8-3.4l.6-1.5.1-.2.2-.1c.5-.4.7-.9.7-1.5v-2a1.92 1.92 0 0 0-.4-1.2l-.1-.2v-3a8.28 8.28 0 0 0-8.3-8.3h-2.9c-4.5 0-8.3 3.7-8.3 8.3v3l-.1.2c-.2.3-.4.8-.4 1.2v2c0 .6.3 1.2.7 1.5l.2.1.1.2c.1.5.3 1 .6 1.4.5 1.2 1.1 2.4 1.9 3.5.4.6.8 1.1 1.2 1.6l.5.6-.7.5c-.4.3-.6.5-.7.8l-.1.3-6.8 2h-.1c2.2 8.5 7.2 16 14.2 21.3zm47.3-48.9h-2.9c-4.5 0-8.3 3.7-8.3 8.3v3l-.1.3c-.2.4-.3.8-.3 1.2v2c0 .6.3 1.2.7 1.5l.2.1.1.2c.2.5.3 1 .5 1.4.5 1.2 1.1 2.4 1.9 3.5.3.4.7 1 1.2 1.6l.5.6-.7.5c-.4.3-.6.5-.7.8l-.1.4-4.1 1.2c-.1.4-.3.7-.4 1.1-.4 1-1 2.1-1.6 3.2l3.8 1.1c2.2.6 4.8 2.7 7.4 12.9.3 1.2.6 2.4.8 3.6 2.1-1.6 4.1-3.4 5.9-5.5 3.9-4.6 6.9-10 8.3-15.8h-.1l-6.8-2-.1-.4c-.1-.3-.3-.6-.7-.8l-.7-.4.6-.6c.4-.5.8-1 1.2-1.6.8-1.1 1.4-2.3 1.8-3.4l.6-1.5.1-.2.2-.1c.5-.4.7-.9.7-1.5v-2a1.92 1.92 0 0 0-.4-1.2H97v-3c-.1-4.7-3.7-8.5-8.3-8.5zm-24.7 64C39.1 109.4 18.8 89 18.8 64S39.1 18.6 64 18.6s45.2 20.3 45.2 45.4c0 25-20.3 45.4-45.2 45.4zm0-85.9c-22.3 0-40.4 18.2-40.4 40.5s18.1 40.5 40.4 40.5 40.4-18.2 40.4-40.5S86.3 23.5 64 23.5z" opacity=".8" fill="#fff"/></svg>