<svg id="Layer_1" data-name="Layer 1" xmlns="http://www.w3.org/2000/svg" xmlns:xlink="http://www.w3.org/1999/xlink" viewBox="0 0 800 800"><defs><style>.cls-1{fill:url(#linear-gradient);}.cls-2{opacity:0.07;}.cls-3{fill:#01949a;}.cls-4{opacity:0.19;}.cls-5{fill:#fff;}.cls-6{fill:none;stroke:#fff;stroke-miterlimit:10;stroke-width:7px;}.cls-7{opacity:0.1;}</style><linearGradient id="linear-gradient" x1="398.35" y1="5.6" x2="402.31" y2="807.6" gradientTransform="matrix(1, 0, 0, -1, -0.3, 800)" gradientUnits="userSpaceOnUse"><stop offset="0" stop-color="#01949a"/><stop offset="0.52" stop-color="#01b0a3"/><stop offset="1" stop-color="#00cdac"/></linearGradient></defs><title>ZASO</title><g id="Hover"><rect id="bg" class="cls-1" width="800" height="800"/><g id="Shadow" class="cls-2"><path d="M590.25,245h-411a28,28,0,0,0-28,28V509a28,28,0,0,0,28,28h307c-6.1-7.6-15-22-8-34,0,0,13-19,31-17,0,0,10-1,17,9V444s5-21,27-19c0,0,27-2,26,21v34s14-4,18,7c14-10,21,4,21,4V273A28,28,0,0,0,590.25,245Z" transform="translate(-0.3)"/><path d="M643.75,519.47a15.83,15.83,0,0,0-26-12.1c-.2-.4-.4-.7-.6-1.1-2.2-4.2-5.3-7.4-9.9-8.9a14.55,14.55,0,0,0-13.9,2.7c-.7.6-1,.5-1.4-.3a12.47,12.47,0,0,0-2.1-3c-5.3-6.1-12.7-7.4-19.7-3.4-.2.1-.4.3-.7.1v-41.1a21.75,21.75,0,0,0-.1-2.6,15.77,15.77,0,0,0-22.2-13.3c-6.2,2.9-9.4,8-9.4,14.9v76.9c-.4-.5-.7-.8-.9-1.1-5-6.8-10.2-13.5-15.1-20.4a20.5,20.5,0,0,0-14.6-8.6c-12.3-1.6-19.4,8.2-19.6,16.9a18,18,0,0,0,3.5,10.6c4.1,6.2,8.7,12,13.2,17.9a45.68,45.68,0,0,1,8.3,15.9c1.8,6.2,3.8,12.4,5.7,18.6,4.3,13.9,11.9,25.6,23.7,34.3,14.3,10.6,30.5,14.8,48,11.7,22-3.9,37.7-16.5,47.5-36.5a63.12,63.12,0,0,0,6.3-27.7Zm-71,23.5c-2.2,0-4-6.9-4-15.5s1.8-15.5,4-15.5,4,6.9,4,15.5S575,543,572.75,543Zm22,4c-2.2,0-4-6.9-4-15.5s1.8-15.5,4-15.5,4,6.9,4,15.5S597,547,594.75,547Zm21,7c-2.2,0-4-6.9-4-15.5s1.8-15.5,4-15.5,4,6.9,4,15.5S618,554,615.75,554Z" transform="translate(-0.3)"/></g><path class="cls-3" d="M599,238H188a28,28,0,0,0-28,28V502a28,28,0,0,0,28,28H495c-6.1-7.6-15-22-8-34,0,0,13-19,31-17,0,0,10-1,17,9V437s5-21,27-19c0,0,27-2,26,21v34s14-4,18,7c14-10,21,4,21,4V266A28,28,0,0,0,599,238Z" transform="translate(-0.3)"/><path class="cls-4" d="M598.5,238h-411a28,28,0,0,0-28,28V502a28,28,0,0,0,28,28h307c-6.1-7.6-15-22-8-34,0,0,13-19,31-17,0,0,10-1,17,9V437s5-21,27-19c0,0,27-2,26,21v34s14-4,18,7c14-10,21,4,21,4V266A28,28,0,0,0,598.5,238Z" transform="translate(-0.3)"/><rect class="cls-5" x="251.28" y="328.33" width="283.83" height="26.86" rx="5.73"/><path class="cls-5" d="M652,512.5a15.83,15.83,0,0,0-26-12.1c-.2-.4-.4-.7-.6-1.1-2.2-4.2-5.3-7.4-9.9-8.9a14.55,14.55,0,0,0-13.9,2.7c-.7.6-1,.5-1.4-.3a12.47,12.47,0,0,0-2.1-3c-5.3-6.1-12.7-7.4-19.7-3.4-.2.1-.4.3-.7.1V445.4a21.75,21.75,0,0,0-.1-2.6,15.77,15.77,0,0,0-22.2-13.3c-6.2,2.9-9.4,8-9.4,14.9v76.9c-.4-.5-.7-.8-.9-1.1-5-6.8-10.2-13.5-15.1-20.4a20.5,20.5,0,0,0-14.6-8.6c-12.3-1.6-19.4,8.2-19.6,16.9a18,18,0,0,0,3.5,10.6c4.1,6.2,8.7,12,13.2,17.9a45.68,45.68,0,0,1,8.3,15.9c1.8,6.2,3.8,12.4,5.7,18.6,4.3,13.9,11.9,25.6,23.7,34.3,14.3,10.6,30.5,14.8,48,11.7,22-3.9,37.7-16.5,47.5-36.5a63.12,63.12,0,0,0,6.3-27.7ZM581,536c-2.2,0-4-6.9-4-15.5s1.8-15.5,4-15.5,4,6.9,4,15.5S583.2,536,581,536Zm22,4c-2.2,0-4-6.9-4-15.5s1.8-15.5,4-15.5,4,6.9,4,15.5S605.2,540,603,540Zm21,7c-2.2,0-4-6.9-4-15.5s1.8-15.5,4-15.5,4,6.9,4,15.5S626.2,547,624,547Z" transform="translate(-0.3)"/><rect id="Button" class="cls-6" x="336.04" y="388.88" width="114.33" height="39.18" rx="5.14"/><g class="cls-7"><path class="cls-5" d="M523.35,468.7l.34-34c2-15.31,17-21.89,17-21.89l-66.1-76.38-68.34,70.9L320.83,275.81,192.22,479.11H488.93S505.05,466.86,523.35,468.7Z" transform="translate(-0.3)"/><circle class="cls-5" cx="417.97" cy="308.08" r="25.77"/></g></g></svg>