<svg width="64" height="64" viewBox="0 0 64 64" fill="none" xmlns="http://www.w3.org/2000/svg">
    <rect width="64" height="64" rx="8" fill="#F6F6FE"/>
    <g clip-path="url(#clip0_2551_33529)">
        <path d="M26.4585 33.1734L22.7637 28.3617L28.5755 26.6449L32.0008 21.637L35.4261 26.6449L41.2379 28.3617L37.543 33.1734L37.7095 39.2424L32.0008 37.2082L26.292 39.2424L26.4585 33.1734Z"
              fill="#A1EAFB"/>
        <path d="M30.0623 31.6642L30.0671 31.488L29.9604 31.3478L28.7733 29.788L30.6364 29.2327L30.8073 29.1818L30.9074 29.0341L32 27.4223L33.0926 29.0341L33.1927 29.1818L33.3636 29.2327L35.2267 29.788L34.0396 31.3478L33.9329 31.488L33.9377 31.6642L33.991 33.6256L32.1692 32.9706L32 32.9098L31.8308 32.9706L30.009 33.6256L30.0623 31.6642Z"
              stroke="#4F47EB"/>
        <path d="M49.723 34.9991L51.9478 29.2303C52.0405 28.99 52.0087 28.7195 51.8631 28.5072C51.7174 28.2948 51.4764 28.1679 51.2189 28.1679H47.4679C47.881 27.6117 47.9998 26.8897 47.7851 26.2291C47.5671 25.5585 47.0335 25.039 46.3578 24.8393L38.4335 22.4987L33.763 15.6701C33.3644 15.0875 32.7054 14.7395 32.0001 14.7395C31.2948 14.7395 30.6357 15.0874 30.2372 15.6701L25.5667 22.4987L17.6424 24.8393C16.9668 25.039 16.4331 25.5585 16.2151 26.2291C16.0004 26.8897 16.1192 27.6118 16.5322 28.1679H12.7813C12.5238 28.1679 12.2827 28.2949 12.137 28.5072C11.9914 28.7195 11.9596 28.99 12.0524 29.2303L14.2771 34.9991L12.0524 40.768C11.9596 41.0083 11.9914 41.2788 12.137 41.4911C12.2827 41.7035 12.5238 41.8304 12.7813 41.8304H21.3972L21.3642 43.0329C21.3449 43.7394 21.6745 44.4089 22.2459 44.8237C22.8161 45.2378 23.5528 45.3437 24.2166 45.1073L29.1083 43.3643L27.5625 47.6981H25.7958C25.3644 47.6981 25.0145 48.0479 25.0145 48.4793C25.0145 48.9108 25.3644 49.2606 25.7958 49.2606H38.2042C38.6356 49.2606 38.9855 48.9108 38.9855 48.4793C38.9855 48.0479 38.6356 47.6981 38.2042 47.6981H36.4376L34.8927 43.3647L39.7835 45.1073C40.0168 45.1904 40.2591 45.2312 40.4999 45.2312C40.9445 45.2312 41.3843 45.0922 41.7542 44.8237C42.3256 44.4089 42.6553 43.7394 42.6359 43.0329L42.6029 41.8304H51.2188C51.4763 41.8304 51.7173 41.7034 51.863 41.4911C52.0086 41.2788 52.0404 41.0083 51.9477 40.768L49.723 34.9991ZM48.3496 34.2179H42.8227L46.2685 29.7304H50.0803L48.3496 34.2179ZM17.7317 29.7304L21.1774 34.2179H15.6505L13.9199 29.7304H17.7317ZM13.9199 40.2679L15.6504 35.7804H21.5631L21.44 40.2679H13.9199ZM34.7788 47.6981H29.2213L31.0087 42.6872L32 42.334L32.9924 42.6875L34.7788 47.6981ZM40.8363 43.5593C40.7628 43.6127 40.5645 43.7268 40.308 43.6355L32.2623 40.7687C32.1775 40.7385 32.0888 40.7234 32.0001 40.7234C31.9113 40.7234 31.8227 40.7385 31.7379 40.7687L23.6922 43.6355C23.4359 43.7268 23.2374 43.6127 23.1639 43.5593C23.0899 43.5056 22.9186 43.351 22.9262 43.0758L23.161 34.5226C23.1659 34.3433 23.1089 34.1677 22.9997 34.0254L17.7923 27.2438C17.6248 27.0258 17.6727 26.7994 17.701 26.7122C17.7292 26.6254 17.8231 26.4152 18.0849 26.3379L26.2758 23.9185C26.4482 23.8675 26.5978 23.7587 26.6993 23.6103L31.5268 16.5522C31.6813 16.3264 31.9092 16.302 32.0001 16.302C32.091 16.302 32.3188 16.3264 32.4734 16.5522L37.3009 23.6103C37.4024 23.7586 37.552 23.8675 37.7244 23.9185L45.9153 26.3379C46.1771 26.4152 46.271 26.6254 46.2992 26.7122C46.3275 26.7994 46.3754 27.0258 46.2079 27.2439L41.0006 34.0254C40.8914 34.1677 40.8344 34.3433 40.8394 34.5226L41.0742 43.0758C41.0815 43.351 40.9103 43.5056 40.8363 43.5593V43.5593ZM42.56 40.2679L42.4369 35.7804H48.3496L50.0802 40.2679H42.56Z"
              fill="#4F47EB"/>
    </g>
    <defs>
        <clipPath id="clip0_2551_33529">
            <rect width="40" height="40" fill="white" transform="translate(12 12)"/>
        </clipPath>
    </defs>
</svg>