<svg width="40" height="40" viewBox="0 0 40 40" fill="#9CC21D" xmlns="http://www.w3.org/2000/svg">
    <path d="M23.1178 16.0588C23.2942 16.1764 23.5295 16.1176 23.7648 16C23.9413 15.8823 24.0589 15.647 24.0001 15.4117L23.4119 11.9411L25.9413 9.52937C26.1178 9.3529 26.1766 9.11761 26.1178 8.94114C26.0589 8.70584 25.8825 8.58819 25.6472 8.52937L22.1766 7.99996L20.6472 4.88231C20.4707 4.47055 19.7648 4.47055 19.5884 4.88231L18.0589 7.99996L14.5883 8.52937C14.3531 8.58819 14.1766 8.70584 14.1178 8.94114C14.0589 9.17643 14.1178 9.41173 14.2942 9.52937L16.8236 11.9411L16.2354 15.4117C16.1766 15.647 16.2942 15.8823 16.4707 16C16.6472 16.1176 16.8825 16.1764 17.1178 16.0588L20.2354 14.4117L23.1178 16.0588ZM17.4119 14.4706L17.8825 11.8823C17.9413 11.7058 17.8236 11.4705 17.706 11.3529L15.8236 9.52937L18.4119 9.17643C18.5883 9.17643 18.7648 8.99996 18.8825 8.88231L20.0589 6.52937L21.2354 8.88231C21.2942 9.05878 21.4707 9.17643 21.706 9.17643L24.2942 9.52937L22.4119 11.3529C22.2942 11.4705 22.2354 11.7058 22.2354 11.8823L22.706 14.4706L20.4119 13.2353C20.3531 13.1764 20.2354 13.1764 20.1178 13.1764C20.0001 13.1764 19.9413 13.1764 19.8236 13.2353L17.4119 14.4706Z"
          fill="#9CC21D"/>
    <path d="M36.4118 38.2352H29.3529V32.8234C29.3529 32.4705 29.1176 32.2352 28.7647 32.2352H26.0588V29.2352C26.0588 28.8822 25.8235 28.647 25.4706 28.647H22.1765V21.9999C22.1765 21.9411 22.2941 21.8234 22.3529 21.8234C25.1765 20.9999 27.7059 18.7058 29.3529 15.4117C33.1177 13.4117 35.4118 9.52931 35.4118 5.23519V4.47049C35.4118 4.11755 35.1765 3.88225 34.8235 3.88225H31.6471C31.6471 2.94108 31.5882 1.70578 31.5294 1.11755C31.4706 0.823429 31.2353 0.588135 30.9412 0.588135H9C8.70588 0.588135 8.47059 0.823429 8.41177 1.11755C8.35294 1.70578 8.29412 2.94108 8.29412 3.88225H5.05882C4.70588 3.88225 4.47059 4.11755 4.47059 4.47049V5.29402C4.47059 9.64696 6.76471 13.5293 10.5294 15.4705C12.2353 18.7646 14.7059 20.9999 17.5294 21.8822C17.6471 21.8822 17.7059 21.9999 17.7059 22.0587V28.7058H14.4118C14.0588 28.7058 13.8235 28.9411 13.8235 29.294V32.294H11.1176C10.7647 32.294 10.5294 32.5293 10.5294 32.8822V38.2352H3.58824C3.23529 38.2352 3 38.4705 3 38.8234C3 39.1764 3.23529 39.4117 3.58824 39.4117H36.4118C36.7647 39.4117 37 39.1764 37 38.8234C37 38.4705 36.7059 38.2352 36.4118 38.2352ZM34.3529 5.29402C34.3529 8.58813 32.8235 11.647 30.2941 13.5293C31.2353 11.0587 31.7647 8.17637 31.7647 5.05872H34.3529V5.29402ZM5.64706 5.29402V5.05872H8.23529C8.23529 8.11755 8.76471 10.9999 9.70588 13.4705C7.17647 11.5881 5.64706 8.58813 5.64706 5.29402ZM17.9412 20.7058C15.3529 19.9411 13.0588 17.8234 11.5294 14.7646C10.1765 12.0587 9.41176 8.70578 9.41176 5.05872C9.41176 4.23519 9.47059 2.64696 9.52941 1.76461H30.4706C30.5294 2.70578 30.5882 4.29402 30.5882 5.05872C30.5882 8.70578 29.8824 12.0587 28.5294 14.7646C27 17.8234 24.7059 19.9411 22.1176 20.7058C21.4706 20.8822 21.0588 21.4117 21.0588 21.9999V28.647H19V21.9999C18.9412 21.4117 18.5294 20.8822 17.9412 20.7058ZM15.0588 29.8822H24.8824V32.294H15.0588V29.8822ZM11.8235 38.2352V33.4117H28.2353V38.2352H11.8235Z"
          fill="#9CC21D"/>
</svg>
