<svg width="64" height="64" viewBox="0 0 64 64" fill="none" xmlns="http://www.w3.org/2000/svg">
    <rect width="64" height="64" rx="8" fill="#F6F6FE"/>
    <path d="M36.9408 18.3369C32.9498 18.3369 29.585 21.0178 28.5488 24.677C34.1795 25.3548 38.6441 29.8194 39.3219 35.4501C42.981 34.4139 45.662 31.0491 45.662 27.0581C45.6619 22.2414 41.7574 18.3369 36.9408 18.3369Z"
          fill="#FFC9B8"/>
    <path d="M27.0571 45.6631C31.8736 45.6631 35.7782 41.7585 35.7782 36.942C35.7782 32.1254 31.8736 28.2208 27.0571 28.2208C22.2405 28.2208 18.3359 32.1254 18.3359 36.942C18.3359 41.7585 22.2405 45.6631 27.0571 45.6631Z"
          fill="#FFC9B8"/>
    <path d="M50 27.058C50 19.8578 44.1423 14 36.942 14C30.8061 14 25.5216 18.2617 24.1983 24.2002C18.369 25.5077 14 30.7239 14 36.942C14 44.1423 19.8578 50 27.058 50C33.2761 50 38.4923 45.631 39.7998 39.8017C45.7383 38.4784 50 33.1939 50 27.058ZM27.058 48.5938C20.6332 48.5938 15.4062 43.3668 15.4062 36.942C15.4062 30.5172 20.6332 25.2901 27.058 25.2901C33.4828 25.2901 38.7099 30.5172 38.7099 36.942C38.7099 43.3668 33.4828 48.5938 27.058 48.5938ZM34.8164 26.4454L36.942 24.3198L39.6801 27.0579L37.5545 29.1835C36.7822 28.1413 35.8587 27.2178 34.8164 26.4454ZM40.0466 38.2921C40.3214 35.6289 39.7887 32.8566 38.3449 30.3821L41.1718 27.5553C41.4463 27.2807 41.4463 26.8355 41.1718 26.5608L37.4392 22.8283C37.1646 22.5538 36.7195 22.5538 36.4448 22.8283L33.618 25.6551C31.1435 24.2114 28.3713 23.6787 25.7079 23.9534C27.0835 18.9458 31.6591 15.4062 36.942 15.4062C43.3668 15.4062 48.5938 20.6332 48.5938 27.058C48.5938 32.3409 45.0542 36.9165 40.0466 38.2921Z"
          fill="#4F47EB"/>
    <path d="M27.556 32.7122C27.2814 32.4378 26.8362 32.4377 26.5616 32.7122L22.829 36.4449C22.5544 36.7194 22.5544 37.1647 22.829 37.4393L26.5616 41.1719C26.8363 41.4465 27.2813 41.4464 27.556 41.1719L31.2887 37.4393C31.5631 37.1647 31.5632 36.7195 31.2887 36.4449L27.556 32.7122ZM27.0588 39.6803L24.3206 36.9421L27.0588 34.2038L29.7971 36.9421L27.0588 39.6803Z"
          fill="#4F47EB"/>
</svg>