<svg width="120" height="92" viewBox="0 0 120 92" fill="none" xmlns="http://www.w3.org/2000/svg">
<rect x="1" y="1" width="118" height="90" rx="3" fill="white"/>
<path d="M57 29V30H58H99V75H21V17H57V29Z" fill="white" stroke="#B2BABF" stroke-width="2"/>
<rect x="62" y="16" width="26" height="15" fill="#B2BABF"/>
<path d="M32.0172 21.3131L30.9187 23.6401L28.4609 24.0145C28.0202 24.0813 27.8436 24.649 28.1632 24.9741L29.9413 26.7845L29.5208 29.3418C29.4451 29.804 29.911 30.1503 30.3013 29.9341L32.5 28.7266L34.6987 29.9341C35.089 30.1485 35.5549 29.804 35.4792 29.3418L35.0587 26.7845L36.8368 24.9741C37.1564 24.649 36.9798 24.0813 36.5391 24.0145L34.0813 23.6401L32.9828 21.3131C32.786 20.8983 32.2157 20.893 32.0172 21.3131Z" fill="#525454"/>
<rect x="39" y="24" width="11" height="3" rx="1.5" fill="#525454"/>
<rect x="1" y="1" width="118" height="90" rx="3" stroke="#CCCCCC" stroke-width="2"/>
</svg>
