<svg width="120" height="92" viewBox="0 0 120 92" fill="none" xmlns="http://www.w3.org/2000/svg">
<rect x="1" y="1" width="118" height="90" rx="3" fill="white"/>
<path d="M57 29V30H58H99V75H21V17H57V29Z" fill="white" stroke="#B2BABF" stroke-width="2"/>
<rect x="62" y="16" width="29" height="15" fill="#B2BABF"/>
<path d="M45.0172 21.3131L43.9187 23.6401L41.4609 24.0145C41.0202 24.0813 40.8436 24.649 41.1632 24.9741L42.9413 26.7845L42.5208 29.3418C42.4451 29.804 42.911 30.1503 43.3013 29.9341L45.5 28.7266L47.6987 29.9341C48.089 30.1485 48.5549 29.804 48.4792 29.3418L48.0587 26.7845L49.8368 24.9741C50.1564 24.649 49.9798 24.0813 49.5391 24.0145L47.0813 23.6401L45.9828 21.3131C45.786 20.8983 45.2157 20.893 45.0172 21.3131Z" fill="#525454"/>
<rect x="28" y="24" width="11" height="3" rx="1.5" fill="#525454"/>
<rect x="1" y="1" width="118" height="90" rx="3" stroke="#CCCCCC" stroke-width="2"/>
</svg>
