<svg xmlns="http://www.w3.org/2000/svg" xmlns:xlink="http://www.w3.org/1999/xlink" xmlns:a="http://ns.adobe.com/AdobeSVGViewerExtensions/3.0/" x="0px" y="0px" width="177px" height="48px" viewBox="404.5 143.89 177 48" xml:space="preserve">
<defs>
</defs>
<g>
	<defs>
		<rect id="SVGID_3_" x="4" y="2" width="1097" height="841.89"></rect>
	</defs>
	<clipPath id="SVGID_4_">
		<use xlink:href="#SVGID_3_"></use>
	</clipPath>
	<path clip-path="url(#SVGID_4_)" fill="#5BB3A7" d="M452.516,276.296h-29.948c-1.234,0-2.234-1.001-2.234-2.233   c0-1.237,1-2.237,2.234-2.237h29.948c1.232,0,2.233,1,2.233,2.237C454.749,275.295,453.748,276.296,452.516,276.296"></path>
	<path clip-path="url(#SVGID_4_)" fill="#5BB3A7" d="M452.516,262.272h-29.948c-1.234,0-2.234-1-2.234-2.237   c0-1.233,1-2.234,2.234-2.234h29.948c1.232,0,2.233,1.001,2.233,2.234C454.749,261.272,453.748,262.272,452.516,262.272"></path>
	<path clip-path="url(#SVGID_4_)" fill="#5BB3A7" d="M452.516,248.244h-29.948c-1.234,0-2.234-1.001-2.234-2.234   c0-1.236,1-2.237,2.234-2.237h29.948c1.232,0,2.233,1.001,2.233,2.237C454.749,247.243,453.748,248.244,452.516,248.244"></path>
	<path clip-path="url(#SVGID_4_)" fill="#C9A777" d="M415.966,246.18c0,1.659-1.342,3.002-3,3.002c-1.659,0-3.001-1.343-3.001-3.002   c0-1.657,1.342-3,3.001-3C414.625,243.18,415.966,244.523,415.966,246.18"></path>
	<path clip-path="url(#SVGID_4_)" fill="#C9A777" d="M415.966,260.035c0,1.659-1.342,3.001-3,3.001   c-1.659,0-3.001-1.342-3.001-3.001c0-1.655,1.342-3.001,3.001-3.001C414.625,257.034,415.966,258.379,415.966,260.035"></path>
	<path clip-path="url(#SVGID_4_)" fill="#C9A777" d="M415.966,273.888c0,1.659-1.342,3.001-3,3.001   c-1.659,0-3.001-1.342-3.001-3.001c0-1.655,1.342-3.001,3.001-3.001C414.625,270.887,415.966,272.233,415.966,273.888"></path>
	<path clip-path="url(#SVGID_4_)" fill="#FFAB03" d="M427.377,506.193c-0.788,0-1.427-0.639-1.427-1.427v-10.345   c0-0.787,0.639-1.426,1.427-1.426c0.787,0,1.426,0.639,1.426,1.426v10.345C428.803,505.554,428.165,506.193,427.377,506.193"></path>
	<path clip-path="url(#SVGID_4_)" fill="#FFAB03" d="M438.788,506.406h-11.346c-0.788,0-1.426-0.639-1.426-1.427   c0-0.787,0.638-1.427,1.426-1.427h11.346c0.787,0,1.426,0.64,1.426,1.427C440.213,505.767,439.575,506.406,438.788,506.406"></path>
	<path clip-path="url(#SVGID_4_)" fill="#FFAB03" d="M420.842,395.045c-0.158-0.663-0.19-1.551-0.19-1.995   c0-0.44,0.032-1.296,0.19-1.964h8.929c0.158,0.668,0.19,1.524,0.19,1.964c0,0.444-0.032,1.332-0.19,1.995H420.842z"></path>
	<path clip-path="url(#SVGID_4_)" fill="#FFAB03" d="M423.422,369.417c0.655-0.145,1.256-0.17,1.884-0.17   c0.627,0,1.226,0.025,1.883,0.17v2.394c0,0.741-0.029,1.315-0.029,1.968c0.683,0,1.227-0.024,1.941-0.024h2.254   c0.141,0.653,0.2,1.169,0.2,1.794c0,0.63-0.059,1.2-0.2,1.77h-2.254c-0.714,0-1.258-0.03-1.941-0.03   c0,0.686,0.029,1.23,0.029,1.942v2.424c-0.657,0.147-1.199,0.17-1.827,0.17s-1.285-0.023-1.94-0.17v-2.424   c0-0.712,0.029-1.256,0.029-1.942c-0.684,0-1.256,0.03-1.94,0.03h-2.254c-0.143-0.543-0.199-1.14-0.199-1.77   c0-0.625,0.056-1.226,0.199-1.794h2.254c0.684,0,1.256,0.024,1.94,0.024c0-0.653-0.029-1.227-0.029-1.968V369.417z"></path>
	<path clip-path="url(#SVGID_4_)" fill="#314BF8" d="M429.926,475.447c-14.531,0-26.312,11.781-26.312,26.312   c0,0.031,0,0.062,0.001,0.091c0.049-12.715,10.356-23.006,23.063-23.006c1.117,0,2.215,0.08,3.289,0.234   c9.96,1.425,17.867,9.22,19.474,19.133c0.183,1.016,0.29,2.058,0.312,3.121c0.004,0.143,0.005,0.285,0.005,0.427   c0,0.145-0.001,0.287-0.005,0.429c-0.007,0.296-0.019,0.59-0.039,0.883c0.004-0.083,0.007-0.166,0.01-0.249   c-0.546,8.642-7.706,15.482-16.46,15.482c-1.144,0-2.26-0.117-3.338-0.34c-7.51-1.548-13.156-8.214-13.156-16.205   c0-7.265,5.89-13.155,13.156-13.155s13.156,5.891,13.156,13.155c0-7.988-5.647-14.655-13.156-16.203   c-1.078-0.222-2.194-0.339-3.338-0.339c-8.493,0-15.485,6.438-16.393,14.713c-0.058,0.667-0.089,1.341-0.089,2.022   c0,0.226,0.004,0.451,0.009,0.675c0.003,0.084,0.007,0.168,0.01,0.251c0.442,11.219,8.873,20.38,19.754,21.937   c1.075,0.154,2.174,0.234,3.291,0.234c11.938,0,21.758-9.084,22.943-20.726c0.058-0.597,0.096-1.198,0.114-1.807   c0.007-0.251,0.011-0.503,0.011-0.758C456.238,487.228,444.457,475.447,429.926,475.447"></path>
	<path clip-path="url(#SVGID_4_)" fill="#182DDA" d="M433.17,525.048c-1.117,0-2.216-0.081-3.291-0.234   c-10.881-1.557-19.313-10.718-19.754-21.937c-0.012-0.229-0.021-0.459-0.025-0.69c-0.004-0.142-0.006-0.285-0.006-0.428   s0.002-0.285,0.006-0.428c0.019-0.967,0.11-1.918,0.264-2.845c-0.071,0.476-0.128,0.958-0.17,1.442   c0.909-8.275,7.901-14.713,16.394-14.713c1.144,0,2.26,0.117,3.338,0.339c7.509,1.548,13.156,8.215,13.156,16.204   c0,7.266-5.891,13.156-13.156,13.156c-7.266,0-13.156-5.891-13.156-13.156c0,7.99,5.646,14.656,13.156,16.204   c1.078,0.223,2.194,0.34,3.338,0.34c8.754,0,15.914-6.841,16.46-15.482c0.01-0.294,0.018-0.585,0.018-0.881   c0-0.723-0.035-1.437-0.099-2.142c-0.049-0.535-0.118-1.064-0.202-1.588c-1.607-9.913-9.514-17.708-19.474-19.133   c-1.074-0.154-2.172-0.235-3.289-0.235c-12.707,0-23.014,10.292-23.063,23.007c0.002,0.875,0.047,1.74,0.133,2.592   c1.344,13.272,12.551,23.631,26.178,23.631c13.667,0,24.898-10.42,26.187-23.749C454.928,515.964,445.108,525.048,433.17,525.048"></path>
	<path clip-path="url(#SVGID_4_)" fill="#314BF8" d="M535.792,495.493c0,3.131-2.538,5.669-5.669,5.669h-57.996   c-3.131,0-5.669-2.538-5.669-5.669v-6.662c0-3.131,2.538-5.669,5.669-5.669h57.996c3.131,0,5.669,2.538,5.669,5.669V495.493z"></path>
	<path clip-path="url(#SVGID_4_)" fill="#FFFFFF" d="M474.508,495.499c-0.222-0.156-0.377-0.442-0.377-0.754   c0-0.521,0.416-0.924,0.936-0.924c0.259,0,0.441,0.092,0.572,0.183c0.688,0.507,1.443,0.819,2.326,0.819   c0.819,0,1.314-0.325,1.314-0.858v-0.026c0-0.507-0.312-0.767-1.833-1.156c-1.834-0.469-3.016-0.976-3.016-2.783v-0.025   c0-1.65,1.326-2.743,3.184-2.743c1.105,0,2.068,0.286,2.886,0.806c0.221,0.131,0.443,0.403,0.443,0.793   c0,0.521-0.416,0.924-0.937,0.924c-0.194,0-0.351-0.053-0.506-0.143c-0.664-0.391-1.287-0.611-1.912-0.611   c-0.767,0-1.17,0.351-1.17,0.793v0.025c0,0.598,0.391,0.793,1.963,1.196c1.847,0.481,2.887,1.144,2.887,2.729v0.027   c0,1.807-1.379,2.82-3.342,2.82C476.731,496.59,475.522,496.228,474.508,495.499"></path>
	<path clip-path="url(#SVGID_4_)" fill="#FFFFFF" d="M484.608,489.206h-1.924c-0.506,0-0.922-0.416-0.922-0.922   c0-0.508,0.416-0.924,0.922-0.924h5.851c0.507,0,0.923,0.416,0.923,0.924c0,0.506-0.416,0.922-0.923,0.922h-1.924v6.332   c0,0.559-0.442,1.001-1.001,1.001s-1.002-0.442-1.002-1.001V489.206z"></path>
	<path clip-path="url(#SVGID_4_)" fill="#FFFFFF" d="M492.967,492.95l-2.938-3.99c-0.142-0.195-0.247-0.43-0.247-0.715   c0-0.533,0.443-0.963,1.001-0.963c0.455,0,0.741,0.248,0.989,0.611l2.21,3.186l2.249-3.211c0.247-0.365,0.546-0.599,0.962-0.599   c0.61,0,0.975,0.429,0.975,0.976c0,0.272-0.131,0.52-0.261,0.701l-2.938,3.965v2.627c0,0.559-0.441,1.001-1,1.001   c-0.56,0-1.002-0.442-1.002-1.001V492.95z"></path>
	<path clip-path="url(#SVGID_4_)" fill="#FFFFFF" d="M499.208,488.284c0-0.56,0.441-1.002,1.001-1.002s1.001,0.442,1.001,1.002   v6.356h3.705c0.507,0,0.91,0.403,0.91,0.91s-0.403,0.91-0.91,0.91h-4.706c-0.56,0-1.001-0.442-1.001-1.001V488.284z"></path>
	<path clip-path="url(#SVGID_4_)" fill="#FFFFFF" d="M507.02,488.284c0-0.56,0.442-1.002,1.002-1.002c0.559,0,1,0.442,1,1.002v7.254   c0,0.559-0.441,1.001-1,1.001c-0.56,0-1.002-0.442-1.002-1.001V488.284z"></path>
	<path clip-path="url(#SVGID_4_)" fill="#FFFFFF" d="M510.791,495.499c-0.222-0.156-0.377-0.442-0.377-0.754   c0-0.521,0.416-0.924,0.937-0.924c0.259,0,0.441,0.092,0.571,0.183c0.688,0.507,1.442,0.819,2.327,0.819   c0.818,0,1.313-0.325,1.313-0.858v-0.026c0-0.507-0.312-0.767-1.833-1.156c-1.834-0.469-3.016-0.976-3.016-2.783v-0.025   c0-1.65,1.326-2.743,3.184-2.743c1.106,0,2.069,0.286,2.887,0.806c0.221,0.131,0.442,0.403,0.442,0.793   c0,0.521-0.416,0.924-0.936,0.924c-0.195,0-0.352-0.053-0.507-0.143c-0.663-0.391-1.287-0.611-1.911-0.611   c-0.768,0-1.17,0.351-1.17,0.793v0.025c0,0.598,0.39,0.793,1.963,1.196c1.846,0.481,2.887,1.144,2.887,2.729v0.027   c0,1.807-1.379,2.82-3.342,2.82C513.015,496.59,511.806,496.228,510.791,495.499"></path>
	<path clip-path="url(#SVGID_4_)" fill="#FFFFFF" d="M518.967,488.284c0-0.56,0.441-1.002,1.001-1.002s1.001,0.442,1.001,1.002   v2.678h3.691v-2.678c0-0.56,0.444-1.002,1.002-1.002c0.559,0,1,0.442,1,1.002v7.254c0,0.559-0.441,1.001-1,1.001   c-0.558,0-1.002-0.442-1.002-1.001v-2.73h-3.691v2.73c0,0.559-0.441,1.001-1.001,1.001s-1.001-0.442-1.001-1.001V488.284z"></path>
</g>
<g>
	<defs>
		<rect id="SVGID_2_" x="4" y="2" width="1097" height="841.89"></rect>
	</defs>
	<clipPath id="SVGID_5_">
		<use xlink:href="#SVGID_2_"></use>
	</clipPath>
	<path clip-path="url(#SVGID_5_)" fill="#5BB3A7" d="M537.792,253.493c0,3.131-2.538,5.668-5.669,5.668h-57.996   c-3.131,0-5.669-2.537-5.669-5.668v-6.662c0-3.131,2.538-5.67,5.669-5.67h57.996c3.131,0,5.669,2.539,5.669,5.67V253.493z"></path>
	<path clip-path="url(#SVGID_5_)" fill="#FFFFFF" d="M476.508,253.499c-0.222-0.156-0.377-0.443-0.377-0.754   c0-0.521,0.416-0.924,0.936-0.924c0.259,0,0.441,0.092,0.572,0.182c0.688,0.508,1.443,0.82,2.326,0.82   c0.819,0,1.314-0.326,1.314-0.859v-0.026c0-0.507-0.312-0.767-1.833-1.156c-1.834-0.469-3.016-0.976-3.016-2.783v-0.025   c0-1.651,1.326-2.745,3.184-2.745c1.105,0,2.068,0.288,2.886,0.807c0.221,0.131,0.443,0.402,0.443,0.793   c0,0.52-0.416,0.924-0.937,0.924c-0.194,0-0.351-0.053-0.506-0.143c-0.664-0.39-1.287-0.611-1.912-0.611   c-0.767,0-1.17,0.35-1.17,0.793v0.025c0,0.598,0.391,0.793,1.963,1.196c1.847,0.482,2.887,1.144,2.887,2.73v0.027   c0,1.807-1.379,2.821-3.342,2.821C478.731,254.59,477.522,254.228,476.508,253.499"></path>
	<path clip-path="url(#SVGID_5_)" fill="#FFFFFF" d="M486.608,247.206h-1.924c-0.506,0-0.922-0.416-0.922-0.922   c0-0.508,0.416-0.924,0.922-0.924h5.851c0.507,0,0.923,0.416,0.923,0.924c0,0.506-0.416,0.922-0.923,0.922h-1.924v6.332   c0,0.559-0.442,1-1.001,1s-1.002-0.441-1.002-1V247.206z"></path>
	<path clip-path="url(#SVGID_5_)" fill="#FFFFFF" d="M494.967,250.95l-2.938-3.99c-0.142-0.196-0.247-0.43-0.247-0.715   c0-0.533,0.443-0.963,1.001-0.963c0.455,0,0.741,0.248,0.989,0.611l2.21,3.186l2.249-3.211c0.247-0.365,0.546-0.6,0.962-0.6   c0.61,0,0.975,0.43,0.975,0.977c0,0.271-0.131,0.519-0.261,0.701l-2.938,3.965v2.627c0,0.558-0.441,1-1,1   c-0.56,0-1.002-0.442-1.002-1V250.95z"></path>
	<path clip-path="url(#SVGID_5_)" fill="#FFFFFF" d="M501.208,246.284c0-0.561,0.441-1.002,1.001-1.002s1.001,0.441,1.001,1.002   v6.355h3.705c0.507,0,0.91,0.405,0.91,0.911c0,0.507-0.403,0.91-0.91,0.91h-4.706c-0.56,0-1.001-0.442-1.001-1V246.284z"></path>
	<path clip-path="url(#SVGID_5_)" fill="#FFFFFF" d="M509.02,246.284c0-0.561,0.442-1.002,1.002-1.002c0.559,0,1,0.441,1,1.002   v7.254c0,0.558-0.441,1-1,1c-0.56,0-1.002-0.442-1.002-1V246.284z"></path>
	<path clip-path="url(#SVGID_5_)" fill="#FFFFFF" d="M512.791,253.499c-0.222-0.156-0.377-0.443-0.377-0.754   c0-0.521,0.416-0.924,0.937-0.924c0.259,0,0.441,0.092,0.571,0.182c0.688,0.508,1.442,0.82,2.327,0.82   c0.818,0,1.313-0.326,1.313-0.859v-0.026c0-0.507-0.312-0.767-1.833-1.156c-1.834-0.469-3.016-0.976-3.016-2.783v-0.025   c0-1.651,1.326-2.745,3.184-2.745c1.106,0,2.069,0.288,2.887,0.807c0.221,0.131,0.442,0.402,0.442,0.793   c0,0.52-0.416,0.924-0.936,0.924c-0.195,0-0.352-0.053-0.507-0.143c-0.663-0.39-1.287-0.611-1.911-0.611   c-0.768,0-1.17,0.35-1.17,0.793v0.025c0,0.598,0.39,0.793,1.963,1.196c1.846,0.482,2.887,1.144,2.887,2.73v0.027   c0,1.807-1.379,2.821-3.342,2.821C515.015,254.59,513.806,254.228,512.791,253.499"></path>
	<path clip-path="url(#SVGID_5_)" fill="#FFFFFF" d="M520.967,246.284c0-0.561,0.441-1.002,1.001-1.002s1.001,0.441,1.001,1.002   v2.678h3.691v-2.678c0-0.561,0.444-1.002,1.002-1.002c0.559,0,1,0.441,1,1.002v7.254c0,0.558-0.441,1-1,1   c-0.558,0-1.002-0.442-1.002-1v-2.731h-3.691v2.731c0,0.558-0.441,1-1.001,1s-1.001-0.442-1.001-1V246.284z"></path>
	<path clip-path="url(#SVGID_5_)" fill="#314BF8" d="M526.292,378.759c0,3.131-2.538,5.669-5.669,5.669h-57.996   c-3.131,0-5.669-2.538-5.669-5.669v-6.662c0-3.131,2.538-5.669,5.669-5.669h57.996c3.131,0,5.669,2.538,5.669,5.669V378.759z"></path>
	<path clip-path="url(#SVGID_5_)" fill="#314BF8" d="M562.164,378.759c0,3.131-2.538,5.669-5.67,5.669h-57.996   c-3.131,0-5.669-2.538-5.669-5.669v-6.662c0-3.131,2.538-5.669,5.669-5.669h57.996c3.132,0,5.67,2.538,5.67,5.669V378.759z"></path>
</g>
<g>
	<defs>
		<rect id="SVGID_1_" width="1097" height="841.89"></rect>
	</defs>
	<clipPath id="SVGID_6_">
		<use xlink:href="#SVGID_1_"></use>
	</clipPath>
	<path clip-path="url(#SVGID_6_)" fill="#182DDA" d="M436.033,400.524v9.623c4.676,0,8.465-4.309,8.465-9.623v-38.47l-8.465,9.303   V400.524z"></path>
	<path clip-path="url(#SVGID_6_)" fill="#182DDA" d="M405.004,362.054v38.47h8.466v-48.093   C408.794,352.431,405.004,356.74,405.004,362.054"></path>
	<path clip-path="url(#SVGID_6_)" fill="#314BF8" d="M413.47,362.054h31.027c0-5.314-3.789-9.623-8.465-9.623H413.47V362.054z"></path>
	<path clip-path="url(#SVGID_6_)" fill="#314BF8" d="M436.033,410.147v-9.623h-31.029c0,5.314,3.79,9.623,8.467,9.623H436.033z"></path>
</g>
<path fill="#5BB3A7" d="M450.047,184.405h-29.948c-1.234,0-2.234-1.001-2.234-2.233c0-1.237,1-2.237,2.234-2.237h29.948  c1.232,0,2.233,1,2.233,2.237C452.28,183.404,451.279,184.405,450.047,184.405"></path>
<path fill="#5BB3A7" d="M450.047,170.38h-29.948c-1.234,0-2.234-1-2.234-2.237c0-1.233,1-2.234,2.234-2.234h29.948  c1.232,0,2.233,1.001,2.233,2.234C452.28,169.38,451.279,170.38,450.047,170.38"></path>
<path fill="#5BB3A7" d="M450.047,156.352h-29.948c-1.234,0-2.234-1.001-2.234-2.234c0-1.236,1-2.237,2.234-2.237h29.948  c1.232,0,2.233,1.001,2.233,2.237C452.28,155.351,451.279,156.352,450.047,156.352"></path>
<path fill="#C9A777" d="M413.498,154.289c0,1.659-1.342,3.002-3,3.002c-1.659,0-3.001-1.343-3.001-3.002c0-1.657,1.342-3,3.001-3  C412.156,151.289,413.498,152.631,413.498,154.289"></path>
<path fill="#C9A777" d="M413.498,168.143c0,1.659-1.342,3.001-3,3.001c-1.659,0-3.001-1.342-3.001-3.001  c0-1.655,1.342-3.001,3.001-3.001C412.156,165.142,413.498,166.488,413.498,168.143"></path>
<path fill="#C9A777" d="M413.498,181.997c0,1.659-1.342,3.001-3,3.001c-1.659,0-3.001-1.342-3.001-3.001  c0-1.655,1.342-3.001,3.001-3.001C412.156,178.996,413.498,180.341,413.498,181.997"></path>
<path fill="#575756" d="M466.134,173.275c0-0.903,0.714-1.617,1.617-1.617h4.388c3.506,0,5.627,2.079,5.627,5.081v0.042  c0,3.401-2.646,5.165-5.942,5.165h-2.457v2.918c0,0.903-0.714,1.617-1.617,1.617s-1.617-0.714-1.617-1.617V173.275z M471.929,179.07  c1.617,0,2.562-0.966,2.562-2.226v-0.042c0-1.449-1.008-2.226-2.625-2.226h-2.499v4.493H471.929z"></path>
<path fill="#575756" d="M479.658,173.275c0-0.903,0.714-1.617,1.617-1.617h5.102c1.869,0,3.317,0.525,4.283,1.491  c0.819,0.819,1.26,1.974,1.26,3.359v0.042c0,2.31-1.155,3.737-2.939,4.472l2.247,2.729c0.315,0.399,0.525,0.735,0.525,1.239  c0,0.903-0.756,1.491-1.533,1.491c-0.735,0-1.218-0.357-1.596-0.84l-3.149-3.989h-2.583v3.212c0,0.903-0.714,1.617-1.617,1.617  s-1.617-0.714-1.617-1.617V173.275z M486.167,178.797c1.575,0,2.478-0.84,2.478-2.079v-0.042c0-1.386-0.966-2.1-2.541-2.1h-3.212  v4.22H486.167z"></path>
<path fill="#575756" d="M494.484,173.149c0-0.903,0.714-1.617,1.617-1.617s1.617,0.714,1.617,1.617v11.716  c0,0.903-0.714,1.617-1.617,1.617s-1.617-0.714-1.617-1.617V173.149z"></path>
<path fill="#575756" d="M500.238,179.049v-0.042c0-4.178,3.149-7.601,7.664-7.601c2.205,0,3.695,0.588,4.913,1.491  c0.336,0.252,0.63,0.714,0.63,1.281c0,0.882-0.714,1.575-1.596,1.575c-0.441,0-0.735-0.168-0.966-0.315  c-0.903-0.672-1.848-1.05-3.002-1.05c-2.478,0-4.262,2.058-4.262,4.577v0.042c0,2.52,1.743,4.619,4.262,4.619  c1.365,0,2.268-0.42,3.191-1.155c0.252-0.21,0.588-0.357,0.966-0.357c0.819,0,1.512,0.672,1.512,1.491  c0,0.504-0.252,0.903-0.546,1.155c-1.323,1.155-2.876,1.848-5.228,1.848C503.451,186.607,500.238,183.269,500.238,179.049z"></path>
<path fill="#575756" d="M515.883,184.739v-11.464c0-0.903,0.714-1.617,1.617-1.617h8.146c0.798,0,1.449,0.651,1.449,1.449  s-0.651,1.428-1.449,1.428h-6.551v2.981h5.606c0.798,0,1.449,0.651,1.449,1.449s-0.651,1.428-1.449,1.428h-5.606v3.086h6.656  c0.798,0,1.449,0.651,1.449,1.449s-0.651,1.428-1.449,1.428H517.5C516.597,186.355,515.883,185.642,515.883,184.739z"></path>
<path fill="#575756" d="M535.224,173.149c0-0.903,0.714-1.617,1.617-1.617s1.617,0.714,1.617,1.617v10.267h5.984  c0.818,0,1.469,0.651,1.469,1.47s-0.65,1.47-1.469,1.47h-7.601c-0.903,0-1.617-0.714-1.617-1.617V173.149z"></path>
<path fill="#575756" d="M547.865,173.149c0-0.903,0.714-1.617,1.617-1.617c0.902,0,1.616,0.714,1.616,1.617v11.716  c0,0.903-0.714,1.617-1.616,1.617c-0.903,0-1.617-0.714-1.617-1.617V173.149z"></path>
<path fill="#575756" d="M553.955,184.802c-0.357-0.252-0.609-0.714-0.609-1.218c0-0.84,0.672-1.491,1.512-1.491  c0.42,0,0.715,0.147,0.924,0.294c1.113,0.819,2.331,1.323,3.759,1.323c1.323,0,2.12-0.525,2.12-1.386v-0.042  c0-0.819-0.504-1.239-2.96-1.869c-2.96-0.756-4.871-1.575-4.871-4.493v-0.042c0-2.667,2.142-4.43,5.144-4.43  c1.785,0,3.339,0.462,4.662,1.302c0.356,0.21,0.713,0.651,0.713,1.281c0,0.84-0.672,1.491-1.512,1.491  c-0.314,0-0.566-0.084-0.818-0.231c-1.07-0.63-2.078-0.987-3.086-0.987c-1.239,0-1.891,0.567-1.891,1.281v0.042  c0,0.966,0.631,1.281,3.171,1.932c2.981,0.777,4.661,1.848,4.661,4.409v0.042c0,2.918-2.226,4.556-5.396,4.556  C557.545,186.565,555.593,185.978,553.955,184.802z"></path>
<path fill="#575756" d="M570.293,174.64h-3.107c-0.819,0-1.491-0.672-1.491-1.491s0.672-1.491,1.491-1.491h9.447  c0.819,0,1.491,0.672,1.491,1.491s-0.672,1.491-1.491,1.491h-3.107v10.225c0,0.903-0.713,1.617-1.616,1.617  s-1.616-0.714-1.616-1.617V174.64z"></path>
<path fill="#5BB3A7" d="M535.324,161.601c0,3.131-2.539,5.668-5.67,5.668h-57.996c-3.131,0-5.669-2.537-5.669-5.668v-6.662  c0-3.131,2.538-5.67,5.669-5.67h57.996c3.131,0,5.67,2.539,5.67,5.67V161.601z"></path>
<path fill="#FFFFFF" d="M474.04,161.607c-0.222-0.156-0.377-0.443-0.377-0.754c0-0.521,0.416-0.924,0.936-0.924  c0.259,0,0.441,0.092,0.572,0.182c0.688,0.508,1.443,0.82,2.326,0.82c0.819,0,1.314-0.326,1.314-0.859v-0.026  c0-0.507-0.312-0.767-1.833-1.156c-1.834-0.469-3.016-0.976-3.016-2.783v-0.025c0-1.651,1.326-2.745,3.184-2.745  c1.105,0,2.068,0.288,2.886,0.807c0.221,0.131,0.443,0.402,0.443,0.793c0,0.52-0.416,0.924-0.937,0.924  c-0.194,0-0.351-0.053-0.506-0.143c-0.664-0.39-1.287-0.611-1.912-0.611c-0.767,0-1.17,0.35-1.17,0.793v0.025  c0,0.598,0.391,0.793,1.963,1.196c1.847,0.482,2.887,1.144,2.887,2.73v0.027c0,1.807-1.379,2.821-3.342,2.821  C476.263,162.699,475.054,162.336,474.04,161.607"></path>
<path fill="#FFFFFF" d="M484.139,155.314h-1.924c-0.506,0-0.922-0.416-0.922-0.922c0-0.508,0.416-0.924,0.922-0.924h5.851  c0.507,0,0.923,0.416,0.923,0.924c0,0.506-0.416,0.922-0.923,0.922h-1.924v6.332c0,0.559-0.442,1-1.001,1s-1.002-0.441-1.002-1  V155.314z"></path>
<path fill="#FFFFFF" d="M492.499,159.058l-2.938-3.99c-0.142-0.196-0.247-0.43-0.247-0.715c0-0.533,0.443-0.963,1.001-0.963  c0.455,0,0.741,0.248,0.989,0.611l2.21,3.186l2.249-3.211c0.247-0.365,0.546-0.6,0.962-0.6c0.61,0,0.975,0.43,0.975,0.977  c0,0.271-0.131,0.519-0.261,0.701l-2.938,3.965v2.627c0,0.558-0.441,1-1,1c-0.56,0-1.002-0.442-1.002-1V159.058z"></path>
<path fill="#FFFFFF" d="M498.738,154.392c0-0.561,0.441-1.002,1.002-1.002c0.56,0,1,0.441,1,1.002v6.355h3.705  c0.508,0,0.91,0.405,0.91,0.911c0,0.507-0.402,0.91-0.91,0.91h-4.705c-0.561,0-1.002-0.442-1.002-1V154.392z"></path>
<path fill="#FFFFFF" d="M506.551,154.392c0-0.561,0.442-1.002,1.002-1.002s1,0.441,1,1.002v7.254c0,0.558-0.44,1-1,1  s-1.002-0.442-1.002-1V154.392z"></path>
<path fill="#FFFFFF" d="M510.322,161.607c-0.223-0.156-0.377-0.443-0.377-0.754c0-0.521,0.416-0.924,0.937-0.924  c0.259,0,0.44,0.092,0.571,0.182c0.688,0.508,1.441,0.82,2.326,0.82c0.818,0,1.313-0.326,1.313-0.859v-0.026  c0-0.507-0.312-0.767-1.833-1.156c-1.834-0.469-3.016-0.976-3.016-2.783v-0.025c0-1.651,1.326-2.745,3.184-2.745  c1.105,0,2.068,0.288,2.887,0.807c0.221,0.131,0.442,0.402,0.442,0.793c0,0.52-0.416,0.924-0.937,0.924  c-0.194,0-0.352-0.053-0.507-0.143c-0.663-0.39-1.286-0.611-1.911-0.611c-0.768,0-1.17,0.35-1.17,0.793v0.025  c0,0.598,0.391,0.793,1.963,1.196c1.846,0.482,2.887,1.144,2.887,2.73v0.027c0,1.807-1.379,2.821-3.342,2.821  C512.546,162.699,511.337,162.336,510.322,161.607"></path>
<path fill="#FFFFFF" d="M518.498,154.392c0-0.561,0.441-1.002,1.002-1.002c0.56,0,1,0.441,1,1.002v2.678h3.691v-2.678  c0-0.561,0.444-1.002,1.002-1.002c0.559,0,1,0.441,1,1.002v7.254c0,0.558-0.441,1-1,1c-0.558,0-1.002-0.442-1.002-1v-2.731H520.5  v2.731c0,0.558-0.44,1-1,1c-0.561,0-1.002-0.442-1.002-1V154.392z"></path>
</svg>