<?xml version="1.0" encoding="utf-8"?>
<!-- Generator: Adobe Illustrator 28.0.0, SVG Export Plug-In . SVG Version: 6.00 Build 0)  -->
<svg version="1.1" id="Layer_1" xmlns="http://www.w3.org/2000/svg" xmlns:xlink="http://www.w3.org/1999/xlink" x="0px" y="0px"
	 viewBox="0 0 26 26" style="enable-background:new 0 0 26 26;" xml:space="preserve">
<g>
	<polygon points="10.25,10.06 9.5,12.19 11,12.19 11,12.19 	"/>
	<path d="M13,1L13,1C5.82,1,0,5.59,0,11.25c0,3.66,2.43,6.87,6.09,8.68c-0.2,0.69-1.28,4.42-1.32,4.71c0,0-0.03,0.22,0.12,0.3
		c0.14,0.08,0.31,0.02,0.31,0.02c0.41-0.06,4.74-3.1,5.49-3.63c0.75,0.11,1.52,0.16,2.31,0.16c7.18,0,13-4.59,13-10.25
		C26,5.59,20.18,1,13,1z M6.56,14.12c0,0.4-0.34,0.72-0.75,0.72c-0.41,0-0.75-0.32-0.75-0.72V9.66H3.89c-0.41,0-0.74-0.33-0.74-0.73
		c0-0.4,0.33-0.73,0.74-0.73h3.84c0.41,0,0.74,0.33,0.74,0.73c0,0.4-0.33,0.73-0.74,0.73H6.56V14.12z M12.87,14.72
		c-0.15,0.07-0.31,0.1-0.48,0.1l0,0c-0.31,0-0.55-0.13-0.62-0.33l-0.37-0.97l-2.29,0l-0.37,0.97c-0.07,0.2-0.31,0.33-0.62,0.33
		c-0.16,0-0.33-0.04-0.48-0.1c-0.21-0.1-0.41-0.36-0.18-1.07l1.79-4.72c0.13-0.36,0.51-0.73,1-0.74c0.49,0.01,0.87,0.38,1,0.74
		l1.79,4.72C13.27,14.36,13.07,14.62,12.87,14.72z M16.66,14.72h-2.41c-0.4,0-0.72-0.31-0.72-0.69V8.94c0-0.41,0.34-0.75,0.77-0.75
		c0.42,0,0.77,0.34,0.77,0.75v4.41h1.59c0.4,0,0.72,0.31,0.72,0.69C17.38,14.41,17.05,14.72,16.66,14.72z M22.53,14.16
		c-0.03,0.2-0.13,0.38-0.29,0.49c-0.13,0.1-0.29,0.15-0.45,0.15c-0.24,0-0.46-0.11-0.6-0.3l-1.76-2.33l-0.26,0.26v1.64
		c0,0.41-0.34,0.75-0.75,0.75v0c-0.41,0-0.75-0.34-0.75-0.75V8.94c0-0.41,0.34-0.75,0.75-0.75s0.75,0.34,0.75,0.75v1.61l2.09-2.09
		c0.11-0.11,0.26-0.17,0.42-0.17c0.19,0,0.38,0.08,0.52,0.22c0.13,0.13,0.21,0.3,0.22,0.48c0.01,0.18-0.05,0.34-0.17,0.46
		l-1.71,1.71l1.85,2.45C22.5,13.76,22.56,13.96,22.53,14.16z"/>
</g>
</svg>
