<svg xmlns="http://www.w3.org/2000/svg" viewBox="0 0 105 95"><path d="M15.5,45.4C37,36,51.3,29.9,58.5,26.9c20.5-8.5,24.7-10,27.5-10c0.6,0,2,0.1,2.9,0.9c0.7,0.6,1,1.4,1,2c0.1,0.6,0.2,1.9,0.1,2.9c-1.1,11.6-5.9,39.9-8.3,53c-1,5.5-3.1,7.4-5,7.6c-4.3,0.4-7.5-2.8-11.7-5.5c-6.5-4.2-10.1-6.9-16.4-11c-7.3-4.8-2.6-7.4,1.6-11.7C51.1,53.7,70,36.5,70.4,35c0-0.2,0.1-0.9-0.3-1.3c-0.4-0.4-1.1-0.3-1.5-0.1c-0.7,0.1-11,7-31.1,20.5c-2.9,2-5.6,3-8,3c-2.6-0.1-7.7-1.5-11.5-2.7c-4.6-1.5-8.3-2.3-8-4.8C10.2,48.1,12,46.8,15.5,45.4z" fill="#fff"/></svg>
