<?xml version="1.0" encoding="utf-8"?>
<!-- Generator: Adobe Illustrator 28.0.0, SVG Export Plug-In . SVG Version: 6.00 Build 0)  -->
<svg version="1.1" id="Layer_1" xmlns="http://www.w3.org/2000/svg" xmlns:xlink="http://www.w3.org/1999/xlink" x="0px" y="0px"
	 viewBox="0 0 26 26" style="enable-background:new 0 0 26 26;" xml:space="preserve">
<style type="text/css">
	.st0{fill:#FFFFFF;}
</style>
<g>
	<path class="st0" d="M23.31,21.19c1.63-1.21,2.69-2.98,2.69-4.96c0-3.61-3.54-6.52-7.86-6.52s-7.8,2.91-7.8,6.52
		s3.47,6.52,7.79,6.52c0.86,0,1.72-0.12,2.55-0.35c0.21-0.06,0.44-0.04,0.64,0.07l1.77,0.99c0.21,0.14,0.43,0,0.35-0.28l-0.43-1.54
		C23.02,21.44,23.13,21.27,23.31,21.19z M15.51,15.17c-0.09,0.02-0.18,0.03-0.27,0.03c-0.59-0.03-1.04-0.53-1-1.12
		c0.03-0.54,0.46-0.98,1-1c0.09,0,0.18,0.01,0.27,0.03c0.57,0.15,0.91,0.73,0.76,1.3C16.17,14.78,15.88,15.07,15.51,15.17z
		 M20.76,15.17c-0.09,0.02-0.18,0.03-0.27,0.03c-0.59,0.03-1.09-0.42-1.12-1c-0.03-0.59,0.42-1.09,1-1.12c0.04,0,0.08,0,0.11,0
		c0.09,0,0.18,0.01,0.27,0.03c0.57,0.15,0.91,0.73,0.76,1.3C21.41,14.78,21.13,15.07,20.76,15.17z M9.35,2.49
		C4.19,2.49,0,6.03,0,10.35c0,2.34,1.2,4.46,3.19,5.88c0.25,0.14,0.36,0.44,0.28,0.71l-0.5,1.7C2.92,18.81,3.01,19,3.18,19.06
		c0.07,0.02,0.15,0.02,0.22,0l2.12-1.2c0.23-0.15,0.51-0.21,0.78-0.14c1.17,0.35,2.39,0.5,3.61,0.43c-1.7-5.95,4.18-9.35,8.71-9.07
		C17.92,5.38,14.03,2.49,9.35,2.49L9.35,2.49z M6.23,9.08c-0.1,0.02-0.2,0.03-0.31,0.03C5.22,9.15,4.62,8.6,4.59,7.9
		C4.55,7.19,5.1,6.6,5.8,6.56c0.04,0,0.08,0,0.13,0c0.1,0,0.21,0.01,0.31,0.04c0.68,0.18,1.09,0.87,0.92,1.55
		C7.03,8.6,6.68,8.95,6.23,9.06V9.08z M12.54,9.08c-0.1,0.02-0.2,0.03-0.31,0.03c-0.7,0.03-1.3-0.51-1.34-1.21
		c-0.03-0.7,0.51-1.3,1.21-1.34c0.04,0,0.08,0,0.13,0c0.1,0,0.21,0.01,0.31,0.04c0.68,0.18,1.09,0.88,0.9,1.56
		c-0.12,0.44-0.46,0.79-0.9,0.9V9.08z"/>
</g>
</svg>
