<?xml version="1.0" encoding="UTF-8"?><!DOCTYPE svg PUBLIC "-//W3C//DTD SVG 1.1//EN" "http://www.w3.org/Graphics/SVG/1.1/DTD/svg11.dtd">
<svg xmlns="http://www.w3.org/2000/svg">
<symbol id="default" viewBox="0 0 42 42">
<path fill="none" stroke="#686868" stroke-width="2" d="M40.803,37.145c0,2.13-1.645,3.855-3.67,3.855H4.67
	C2.645,41,1,39.274,1,37.145V4.856C1,2.727,2.645,1,4.67,1h32.463c2.025,0,3.67,1.727,3.67,3.856V37.145z"/>
<text transform="matrix(1 0 0 1 14.1826 36.1465)" fill="#686868" font-family="'SegoeUI-Semilight'" font-size="16">ar</text>
<path fill-rule="evenodd" clip-rule="evenodd" fill="#686868" d="M20.383,11.581h-4.938c-0.27,0-0.489-0.22-0.489-0.49V9.616	c0-0.27,0.22-0.489,0.489-0.489h6.321c0.252,0,0.458,0.191,0.485,0.437C21.611,10.072,20.977,10.756,20.383,11.581z M13.489,20.87	h-1.466c-0.271,0-0.489-0.219-0.489-0.489v-1.474c0-0.27,0.219-0.489,0.489-0.489h1.466c0.271,0,0.49,0.219,0.49,0.489v1.474	C13.979,20.651,13.76,20.87,13.489,20.87z M13.489,16.225h-1.466c-0.271,0-0.489-0.219-0.489-0.49v-1.474	c0-0.271,0.219-0.489,0.489-0.489h1.466c0.271,0,0.49,0.218,0.49,0.489v1.474C13.979,16.006,13.76,16.225,13.489,16.225z	 M13.489,11.581h-1.466c-0.271,0-0.489-0.22-0.489-0.49V9.616c0-0.27,0.219-0.489,0.489-0.489h1.466c0.271,0,0.49,0.219,0.49,0.489	v1.475C13.979,11.36,13.76,11.581,13.489,11.581z M15.445,13.773h3.446c-0.321,0.553-0.604,1.216-0.833,1.951	c-0.068,0.163-0.131,0.33-0.192,0.501h-2.421c-0.27,0-0.489-0.219-0.489-0.49v-1.474C14.956,13.991,15.176,13.773,15.445,13.773z	 M15.445,18.417h1.953c-0.071,0.879,0.002,1.712,0.2,2.453h-2.153c-0.27,0-0.489-0.219-0.489-0.489v-1.474	C14.956,18.637,15.176,18.417,15.445,18.417z"/>
<path fill="#686868" d="M32.132,7.296c-0.445-0.16-0.89-0.24-1.334-0.24c-0.531,0-0.837,0.125-0.922,0.376l-0.318,0.821	c-0.445-0.342-0.997-0.513-1.652-0.513c-2.205,0-4.281,1.369-6.229,4.107c-1.824,2.533-2.733,4.939-2.733,7.221	c0,0.913,0.221,1.678,0.666,2.293c0.445,0.617,1.049,0.924,1.812,0.924c0.721,0,1.616-0.399,2.686-1.198	c1.07-0.798,2.039-1.78,2.909-2.944l0.19,0.103c-0.445,1.004-0.668,1.848-0.668,2.533c0,1.004,0.401,1.506,1.207,1.506	c1.483,0,3.031-1.027,4.641-3.081c0.021-0.022,0.032-0.056,0.032-0.103c0-0.137-0.091-0.302-0.271-0.496	c-0.181-0.194-0.345-0.291-0.491-0.291c-0.044,0-0.086,0.023-0.129,0.068c-0.635,0.731-1.164,1.096-1.588,1.096	c-0.34,0-0.445-0.217-0.319-0.65l3.116-11.056C32.778,7.615,32.576,7.456,32.132,7.296z M28.287,12.602	c-0.509,1.779-1.314,3.457-2.416,5.03c-1.102,1.575-2.023,2.362-2.766,2.362c-0.212,0-0.387-0.154-0.524-0.462	c-0.138-0.308-0.206-0.644-0.206-1.01c0-1.437,0.454-3.251,1.364-5.442c1.121-2.624,2.369-3.936,3.746-3.936	c0.718,0,1.236,0.262,1.554,0.784L28.287,12.602z"/>
</symbol>
</svg>