<?xml version="1.0" standalone="no"?>
<!DOCTYPE svg PUBLIC "-//W3C//DTD SVG 20010904//EN"
 "http://www.w3.org/TR/2001/REC-SVG-20010904/DTD/svg10.dtd">
<svg version="1.0" xmlns="http://www.w3.org/2000/svg"
 width="512.000000pt" height="512.000000pt" viewBox="0 0 512.000000 512.000000"
 preserveAspectRatio="xMidYMid meet">

<g transform="translate(0.000000,512.000000) scale(0.100000,-0.100000)"
fill="#000000" stroke="none">
<path d="M810 4436 c-377 -155 -695 -292 -708 -304 -12 -12 -22 -32 -22 -44 0
-13 56 -228 125 -478 130 -475 135 -490 188 -490 11 0 142 45 289 100 148 55
271 100 274 100 2 0 4 -430 4 -955 l0 -956 25 -24 24 -25 1071 0 1071 0 24 25
25 24 0 956 c0 525 3 955 7 955 4 0 127 -45 273 -100 146 -55 276 -100 287
-100 53 0 58 15 188 490 69 250 125 465 125 476 0 12 -8 31 -17 42 -11 13
-291 133 -712 307 l-694 285 -581 -1 -581 -1 -685 -282z m1736 92 c-13 -64
-66 -159 -121 -217 -190 -200 -500 -200 -690 0 -55 58 -108 153 -121 217 l-6
32 472 0 473 0 -7 -32z m-1081 -65 c48 -166 173 -316 326 -391 253 -125 540
-81 735 113 77 77 130 163 164 265 12 36 23 66 25 68 3 3 1175 -476 1184 -484
6 -5 -191 -724 -198 -724 -3 0 -132 47 -286 105 -154 58 -290 105 -303 105
-13 0 -34 -11 -47 -25 l-25 -24 0 -976 0 -975 -960 0 -960 0 0 975 0 976 -25
24 c-13 14 -34 25 -47 25 -13 0 -148 -47 -302 -105 -153 -58 -282 -105 -286
-105 -8 0 -206 718 -199 724 6 5 1173 485 1181 486 4 0 14 -26 23 -57z"/>
<path d="M4428 4543 c-98 -98 -181 -188 -185 -201 -13 -55 45 -113 99 -97 13
4 67 50 121 103 l97 97 0 -1405 0 -1404 -104 102 c-64 64 -111 102 -124 102
-56 0 -101 -52 -89 -102 4 -13 87 -103 185 -200 160 -160 182 -178 212 -178
30 0 52 18 211 176 100 100 180 188 184 202 13 52 -30 102 -87 102 -13 0 -60
-38 -124 -102 l-104 -102 0 1404 0 1405 98 -97 c53 -53 107 -99 120 -103 55
-16 111 41 97 97 -4 14 -84 102 -184 202 -159 158 -181 176 -211 176 -30 0
-52 -18 -212 -177z"/>
<path d="M423 1017 c-166 -165 -183 -186 -183 -217 0 -30 17 -51 176 -211 100
-100 188 -180 202 -184 56 -14 113 42 97 97 -4 13 -50 67 -103 120 l-97 98
1565 0 1564 0 -102 -104 c-64 -64 -102 -111 -102 -124 0 -57 50 -100 102 -87
14 4 102 84 202 184 158 159 176 181 176 211 0 30 -18 52 -177 212 -98 98
-188 181 -201 185 -50 12 -102 -33 -102 -89 0 -13 38 -60 102 -124 l102 -104
-1564 0 -1565 0 97 98 c53 53 99 107 103 120 15 50 -30 102 -88 102 -15 0 -79
-58 -204 -183z"/>
</g>
</svg>
