<?xml version="1.0" standalone="no"?>
<!DOCTYPE svg PUBLIC "-//W3C//DTD SVG 20010904//EN"
 "http://www.w3.org/TR/2001/REC-SVG-20010904/DTD/svg10.dtd">
<svg version="1.0" xmlns="http://www.w3.org/2000/svg"
 width="512.000000pt" height="512.000000pt" viewBox="0 0 512.000000 512.000000"
 preserveAspectRatio="xMidYMid meet">

<g transform="translate(0.000000,512.000000) scale(0.100000,-0.100000)"
fill="#000000" stroke="none">
<path d="M1639 4827 c-79 -60 -132 -84 -264 -121 -221 -63 -394 -159 -497
-277 -110 -125 -498 -623 -498 -638 0 -15 374 -556 417 -603 30 -34 63 -21
170 62 56 44 104 80 107 80 3 0 7 -486 8 -1081 3 -1057 3 -1081 22 -1095 17
-12 193 -14 1176 -14 1108 0 1158 1 1173 18 16 17 17 108 17 1101 l0 1082 111
-85 c79 -61 120 -86 140 -86 25 0 48 29 238 299 134 190 211 307 211 322 -1
16 -58 96 -161 224 -88 110 -203 255 -255 322 -52 67 -119 141 -147 164 -114
90 -245 152 -442 209 -125 36 -168 56 -241 111 l-51 39 -595 0 -595 0 -44 -33z
m1131 -86 c0 -5 -22 -43 -50 -84 -214 -320 -568 -377 -803 -128 -60 64 -137
182 -137 209 0 9 128 12 495 12 293 0 495 -4 495 -9z m-1053 -113 c37 -73 67
-112 133 -178 93 -93 166 -137 281 -166 85 -22 229 -15 317 16 156 55 319 205
402 370 12 25 24 47 26 49 2 2 25 -10 51 -27 59 -38 77 -45 228 -88 201 -58
381 -158 451 -250 16 -20 91 -115 167 -210 75 -96 137 -176 137 -179 0 -6
-355 -512 -370 -529 -5 -4 -30 8 -56 28 -56 43 -92 45 -111 6 -10 -20 -13
-220 -13 -917 l0 -893 -1085 0 -1085 0 0 904 c0 809 -2 906 -16 920 -24 25
-55 19 -103 -19 -24 -19 -47 -35 -50 -35 -4 1 -247 341 -368 518 -11 15 5 39
122 187 74 94 158 197 187 229 96 107 242 186 458 246 107 29 182 61 225 94
11 8 21 16 22 16 1 0 23 -42 50 -92z m2332 -843 c0 -15 -332 -478 -345 -482
-5 -2 -27 11 -48 29 l-37 33 182 257 182 257 33 -42 c19 -23 34 -46 33 -52z
m-3295 -164 c97 -137 176 -253 176 -257 0 -11 -65 -64 -78 -64 -7 0 -108 138
-309 426 l-42 61 31 42 c18 22 36 41 40 41 4 0 86 -112 182 -249z m2606 -2216
l0 -155 -1085 0 -1085 0 0 155 0 155 1085 0 1085 0 0 -155z"/>
<path d="M4379 3038 c-36 -30 -299 -408 -299 -430 0 -32 18 -48 51 -48 24 0
40 18 121 130 51 71 96 130 101 130 4 0 7 -433 6 -962 l0 -963 -24 30 c-14 17
-60 77 -102 135 -50 67 -86 106 -99 108 -27 4 -54 -22 -54 -52 0 -13 62 -108
148 -227 193 -266 171 -263 322 -52 190 264 193 268 185 292 -8 26 -40 44 -64
36 -10 -3 -61 -64 -112 -136 l-94 -131 -3 481 c-1 265 -1 698 0 963 l3 482 79
-109 c101 -140 115 -155 142 -155 27 0 54 24 54 48 0 18 -279 409 -307 430 -9
6 -22 12 -28 12 -6 0 -18 -6 -26 -12z"/>
<path d="M1305 774 c-110 -80 -204 -152 -208 -160 -5 -8 -5 -23 -2 -34 6 -19
369 -289 419 -311 22 -10 29 -9 46 6 40 37 24 63 -90 148 -58 43 -116 86 -130
97 -25 19 -10 19 940 19 l964 1 -109 -80 c-136 -98 -165 -123 -165 -144 0 -24
39 -59 61 -53 10 3 108 70 219 148 201 145 226 171 203 208 -5 8 -99 80 -208
158 -166 120 -204 143 -230 141 -22 -2 -32 -10 -39 -30 -13 -36 -7 -42 138
-146 l120 -87 -476 -3 c-262 -1 -692 -1 -956 0 l-480 3 129 94 c110 80 129 97
129 120 0 15 -5 32 -12 39 -28 28 -65 10 -263 -134z"/>
</g>
</svg>
