<?xml version="1.0" standalone="no"?>
<!DOCTYPE svg PUBLIC "-//W3C//DTD SVG 20010904//EN"
 "http://www.w3.org/TR/2001/REC-SVG-20010904/DTD/svg10.dtd">
<svg version="1.0" xmlns="http://www.w3.org/2000/svg"
 width="512.000000pt" height="512.000000pt" viewBox="0 0 512.000000 512.000000"
 preserveAspectRatio="xMidYMid meet">

<g transform="translate(0.000000,512.000000) scale(0.100000,-0.100000)"
fill="#000000" stroke="none">
<path d="M1343 4735 c-282 -96 -530 -185 -551 -199 -95 -60 -100 -69 -426
-831 -168 -392 -306 -725 -306 -739 0 -33 53 -72 175 -131 241 -115 534 -172
844 -163 l149 4 -5 -101 c-3 -55 -8 -181 -11 -280 l-7 -180 -194 -3 c-214 -3
-237 -9 -272 -65 -18 -31 -19 -49 -17 -429 l3 -396 25 -27 c44 -48 75 -55 255
-55 l165 0 -5 -37 c-2 -21 -7 -114 -10 -208 -7 -206 -13 -373 -20 -520 -5 -90
-3 -114 10 -132 l16 -23 1398 0 c1356 0 1398 1 1415 19 15 16 16 34 12 132 -8
148 -14 313 -21 524 -3 94 -8 187 -10 208 l-5 37 165 0 c184 0 214 7 258 59
l27 33 0 391 c0 518 19 485 -288 488 l-190 2 -6 31 c-3 17 -8 141 -12 276 -4
135 -7 246 -8 247 -1 1 96 4 214 7 246 5 367 25 584 97 133 45 333 136 355
162 7 9 11 29 9 44 -3 16 -141 348 -308 738 l-304 710 -56 55 c-38 39 -75 64
-120 83 -117 48 -983 337 -1011 337 -39 0 -49 -18 -59 -109 -12 -110 -25 -153
-71 -241 -98 -188 -271 -309 -487 -340 -257 -38 -528 103 -649 337 -50 95 -61
133 -73 243 -7 68 -13 88 -31 103 -12 9 -24 17 -28 16 -3 0 -237 -79 -518
-174z m471 -16 c29 -221 203 -450 420 -554 114 -54 184 -69 326 -69 186 0 317
43 461 152 144 110 263 306 285 472 4 31 11 49 18 47 6 -2 48 -16 92 -31 l81
-27 -13 -63 c-49 -234 -194 -447 -397 -585 -75 -51 -203 -107 -302 -132 -128
-33 -322 -33 -450 0 -351 90 -627 371 -699 715 l-13 65 86 30 c47 16 89 30 92
30 4 1 9 -22 13 -50z m-292 -95 c67 -325 322 -630 634 -755 173 -69 378 -95
555 -70 259 38 512 181 674 383 83 105 168 274 198 393 12 50 22 91 23 93 3 5
620 -205 652 -222 66 -34 90 -82 323 -626 l228 -535 -22 -19 c-39 -32 -153
-85 -241 -110 -154 -45 -280 -59 -528 -59 -185 1 -230 -2 -239 -13 -13 -15 -9
-254 11 -684 5 -113 10 -224 10 -247 l0 -42 -1240 0 c-1200 0 -1240 1 -1240
19 0 24 28 721 34 837 7 138 7 138 -163 130 -153 -8 -366 5 -489 28 -142 27
-297 87 -369 143 l-23 17 228 533 c126 293 240 549 256 568 15 19 39 42 53 52
29 18 641 231 658 227 5 -1 13 -19 17 -41z m-1195 -1489 c169 -101 437 -155
764 -155 l149 0 0 -27 c0 -16 -3 -58 -6 -94 l-7 -66 -111 -7 c-196 -12 -456
20 -649 80 -105 33 -277 113 -277 129 0 7 12 39 26 71 14 33 30 69 35 82 5 12
11 22 13 22 3 0 31 -16 63 -35z m4567 -52 c20 -47 35 -88 33 -89 -2 -2 -41
-21 -88 -42 -114 -53 -280 -106 -436 -138 -111 -24 -152 -28 -315 -28 -102 -1
-188 1 -191 4 -2 3 -7 47 -11 98 l-7 92 144 0 c332 0 624 60 777 159 25 17 48
30 51 30 3 1 23 -38 43 -86z m-3794 -1282 c0 -195 1 -200 22 -215 29 -20 47
-20 70 1 16 15 18 35 18 215 l0 198 100 0 100 0 0 -135 c0 -122 2 -137 20
-155 24 -24 47 -25 72 -3 16 14 18 33 18 155 l0 138 100 0 100 0 0 -195 c0
-182 1 -196 20 -215 24 -24 49 -25 76 -6 17 13 19 30 22 215 l3 201 100 0 99
0 0 -137 c0 -113 3 -140 17 -155 21 -24 48 -23 73 2 18 18 20 33 20 155 l0
135 100 0 100 0 0 -197 c0 -169 2 -199 17 -215 20 -22 42 -23 71 -2 21 15 22
20 22 215 l0 199 100 0 100 0 0 -140 c0 -139 0 -140 26 -157 24 -15 29 -15 53
-2 26 15 26 15 29 157 l3 142 99 0 100 0 0 -195 c0 -182 1 -196 20 -215 24
-24 47 -25 72 -3 16 15 18 35 18 215 l0 198 99 0 99 0 4 -141 c3 -126 5 -142
22 -155 27 -19 52 -18 76 6 18 18 20 33 20 155 l0 135 100 0 100 0 0 -197 c0
-169 2 -199 17 -215 21 -24 48 -23 73 2 19 19 20 33 20 215 l0 195 100 0 100
0 0 -140 c0 -139 0 -140 26 -157 24 -15 29 -15 53 -2 26 15 26 15 29 157 l3
143 132 -3 132 -3 0 -365 0 -365 -1725 0 -1725 0 -3 355 c-1 195 0 361 3 367
3 10 39 13 135 13 l130 0 0 -199z m2744 -798 c3 -76 8 -177 11 -225 l6 -88
-1301 0 -1301 0 6 88 c3 48 8 149 11 225 l6 137 1278 0 1278 0 6 -137z m20
-484 c3 -34 6 -91 6 -125 l0 -64 -1310 0 -1310 0 0 64 c0 34 3 91 6 125 l7 61
1297 0 1297 0 7 -61z"/>
</g>
</svg>
