<?xml version="1.0" standalone="no"?>
<!DOCTYPE svg PUBLIC "-//W3C//DTD SVG 20010904//EN"
 "http://www.w3.org/TR/2001/REC-SVG-20010904/DTD/svg10.dtd">
<svg version="1.0" xmlns="http://www.w3.org/2000/svg"
 width="512.000000pt" height="512.000000pt" viewBox="0 0 512.000000 512.000000"
 preserveAspectRatio="xMidYMid meet">

<g transform="translate(0.000000,512.000000) scale(0.100000,-0.100000)"
fill="#000000" stroke="none">
<path d="M1175 5108 c-3 -7 -6 -94 -7 -193 l-3 -180 -385 -5 -385 -5 0 -25 c0
-23 34 -42 400 -227 l400 -202 83 0 82 -1 0 -935 0 -935 -85 0 -85 0 -400
-200 c-407 -204 -423 -213 -388 -248 9 -9 109 -12 390 -12 l378 0 0 -185 c0
-216 -6 -205 114 -205 l76 0 0 -764 c0 -684 2 -765 16 -777 11 -9 20 -10 32
-2 16 9 17 74 20 777 l2 766 645 0 645 0 0 -155 0 -155 -178 0 c-188 0 -218
-6 -210 -46 3 -18 15 -19 193 -24 l190 -5 3 -158 3 -157 -179 0 c-193 0 -221
-6 -208 -48 7 -22 11 -22 197 -22 l189 0 0 -160 0 -160 -186 -2 c-162 -3 -188
-5 -197 -20 -8 -12 -7 -21 2 -32 11 -14 42 -16 197 -16 l184 0 0 -184 c0 -155
2 -186 16 -197 11 -9 20 -10 32 -2 16 9 17 76 22 783 l5 774 955 238 c525 132
960 244 967 250 10 8 13 53 13 173 0 139 -2 164 -16 169 -9 3 -445 6 -970 6
l-954 0 0 935 0 935 958 0 c732 0 961 3 970 12 8 8 12 62 12 175 0 160 0 164
-22 173 -13 5 -456 118 -985 250 l-963 240 -790 0 c-623 0 -792 -3 -795 -12z
m2530 -296 l950 -238 3 -117 3 -117 -1063 -2 -1063 -3 -3 -24 c-5 -34 12 -41
106 -41 l83 0 -3 -157 -3 -158 -190 -5 c-178 -5 -190 -6 -193 -24 -8 -40 22
-46 210 -46 l178 0 0 -155 0 -155 -178 0 c-188 0 -218 -6 -210 -46 3 -18 15
-19 196 -22 l192 -2 0 -160 0 -160 -184 0 c-155 0 -186 -2 -197 -16 -9 -11
-10 -20 -2 -32 9 -15 35 -17 197 -20 l186 -2 0 -160 0 -160 -184 0 c-155 0
-186 -2 -197 -16 -9 -11 -10 -20 -2 -32 9 -15 35 -17 197 -20 l186 -2 0 -160
0 -160 -645 0 -645 0 0 935 0 935 228 0 c125 0 233 4 240 9 8 4 12 19 10 32
l-3 24 -350 5 -350 5 -310 155 -310 155 318 5 c268 4 319 7 327 20 5 8 10 95
10 193 l0 177 758 0 757 -1 950 -237z m955 -2596 c0 -101 -2 -115 -17 -120
-10 -2 -444 -111 -965 -240 l-948 -236 -745 0 -745 0 0 176 c0 102 -4 183 -10
195 -10 18 -25 19 -333 20 l-322 0 315 159 315 159 1728 0 1727 1 0 -114z"/>
</g>
</svg>
