<?xml version="1.0" standalone="no"?>
<!DOCTYPE svg PUBLIC "-//W3C//DTD SVG 20010904//EN"
 "http://www.w3.org/TR/2001/REC-SVG-20010904/DTD/svg10.dtd">
<svg version="1.0" xmlns="http://www.w3.org/2000/svg"
 width="512.000000pt" height="512.000000pt" viewBox="0 0 512.000000 512.000000"
 preserveAspectRatio="xMidYMid meet">

<g transform="translate(0.000000,512.000000) scale(0.100000,-0.100000)"
fill="#000000" stroke="none">
<path d="M1980 4824 c-106 -13 -280 -47 -359 -69 -83 -23 -105 -25 -304 -25
-206 0 -215 -1 -243 -22 -49 -38 -858 -744 -873 -762 -8 -9 -14 -29 -14 -44 1
-30 432 -789 460 -809 34 -26 68 -12 245 97 99 61 181 110 183 110 3 0 6 -449
7 -997 l3 -998 22 -41 c35 -65 69 -100 125 -128 l52 -26 915 0 916 0 51 24
c27 13 66 42 87 66 71 83 67 24 67 1117 0 541 3 983 7 983 3 0 86 -49 184
-110 200 -124 223 -131 262 -77 49 66 447 773 447 794 0 11 -8 30 -17 41 -16
17 -198 176 -731 640 l-164 141 -231 3 c-214 3 -239 6 -327 30 -179 49 -270
60 -510 63 -124 2 -241 1 -260 -1z m428 -145 c99 -10 330 -53 339 -63 11 -10
-93 -143 -186 -239 -101 -103 -198 -182 -300 -243 l-61 -36 -76 47 c-159 99
-322 252 -423 396 l-52 74 28 7 c209 58 509 82 731 57z m-849 -186 c145 -211
373 -418 574 -520 65 -32 94 -28 194 33 210 127 385 293 519 490 l58 84 178 0
179 0 392 -341 c216 -188 393 -345 395 -350 3 -7 -341 -616 -356 -631 -4 -3
-101 52 -216 123 -115 71 -217 129 -226 129 -10 0 -29 -9 -43 -20 -26 -20 -26
-25 -29 -143 l-3 -122 -972 -3 -973 -2 0 103 c0 123 -11 161 -50 177 -35 14
-54 5 -281 -136 -91 -56 -170 -104 -177 -106 -13 -3 -374 621 -366 634 3 4 85
77 182 162 97 84 273 237 391 340 l214 186 178 0 178 0 60 -87z m1621 -1547
l0 -134 -136 -129 c-75 -70 -140 -128 -145 -128 -4 0 -78 66 -164 148 -128
121 -161 147 -185 147 -30 0 -45 -13 -297 -254 l-52 -49 -161 151 c-117 111
-167 152 -185 152 -23 0 -129 -82 -180 -140 -11 -12 -55 -54 -97 -92 l-78 -70
-135 128 -135 129 0 137 0 138 975 0 975 0 0 -134z m-1006 -560 c13 -5 34 -6
47 -3 13 4 90 70 171 147 81 77 152 140 158 140 6 0 79 -65 163 -145 132 -125
156 -145 185 -145 28 0 50 16 157 116 l125 116 0 -231 0 -231 -975 0 -975 0 0
227 0 227 33 -30 c17 -16 71 -66 118 -111 124 -119 114 -121 313 67 l159 149
149 -142 c82 -78 159 -146 172 -151z m1004 -718 c-3 -329 -3 -333 -26 -365
-14 -20 -38 -37 -60 -43 -25 -8 -311 -10 -915 -8 l-879 3 -34 37 -34 38 0 335
0 335 976 0 975 0 -3 -332z"/>
<path d="M4610 4810 c-11 -11 -20 -33 -20 -50 0 -17 9 -39 20 -50 11 -11 33
-20 50 -20 l30 0 0 -284 0 -284 -32 -7 c-46 -10 -68 -33 -68 -71 0 -38 38 -74
76 -74 l24 0 0 -285 0 -285 -24 0 c-38 0 -76 -36 -76 -74 0 -38 22 -61 68 -71
l32 -7 0 -284 0 -284 -30 0 c-17 0 -39 -9 -50 -20 -43 -43 -11 -120 50 -120
l30 0 0 -284 0 -283 -32 -7 c-45 -9 -68 -33 -68 -72 0 -38 38 -74 76 -74 l24
0 0 -285 0 -285 -28 0 c-59 0 -92 -67 -56 -118 14 -21 22 -22 153 -22 121 0
140 2 154 18 40 45 6 122 -53 122 l-30 0 0 285 c0 276 1 285 20 285 102 0 114
127 14 146 l-34 6 0 284 0 284 29 0 c42 0 74 30 74 69 0 39 -20 61 -64 70
l-34 7 -3 281 -2 281 33 6 c101 19 89 146 -13 146 -19 0 -20 9 -20 285 0 276
1 285 20 285 102 0 114 127 13 146 l-33 6 2 282 3 281 30 3 c44 5 65 29 65 73
0 61 -21 69 -172 69 -115 0 -130 -2 -148 -20z"/>
<path d="M1014 629 c-28 -10 -54 -47 -54 -76 l0 -23 -315 0 c-312 0 -315 0
-315 21 0 23 -18 60 -34 71 -22 15 -73 8 -92 -13 -17 -18 -19 -37 -19 -149 0
-146 10 -170 71 -170 38 0 74 38 74 76 l0 24 315 0 315 0 0 -24 c0 -38 36 -76
74 -76 39 0 63 23 72 68 l7 32 313 0 314 0 0 -24 c0 -39 36 -76 75 -76 37 0
61 25 68 70 l4 25 316 3 317 2 0 -30 c0 -38 31 -70 70 -70 38 0 70 32 70 70
l0 30 320 0 320 0 0 -30 c0 -38 32 -70 70 -70 39 0 70 32 70 70 l0 30 318 -2
317 -3 3 -30 c2 -16 11 -38 19 -47 23 -25 77 -23 103 4 18 20 20 35 20 150 0
115 -2 130 -20 148 -25 25 -81 26 -103 2 -8 -9 -17 -30 -19 -47 l-3 -30 -317
-3 -318 -2 0 30 c0 40 -31 70 -74 70 -39 0 -56 -16 -65 -63 l-7 -32 -317 -3
-317 -2 0 28 c0 46 -25 72 -70 72 -45 0 -70 -26 -70 -72 l0 -28 -317 2 -316 3
-4 30 c-12 92 -143 87 -143 -5 l0 -30 -314 0 -314 0 -6 34 c-10 51 -52 81 -92
65z"/>
</g>
</svg>
