<?xml version="1.0" standalone="no"?>
<!DOCTYPE svg PUBLIC "-//W3C//DTD SVG 20010904//EN"
 "http://www.w3.org/TR/2001/REC-SVG-20010904/DTD/svg10.dtd">
<svg version="1.0" xmlns="http://www.w3.org/2000/svg"
 width="512.000000pt" height="512.000000pt" viewBox="0 0 512.000000 512.000000"
 preserveAspectRatio="xMidYMid meet">

<g transform="translate(0.000000,512.000000) scale(0.100000,-0.100000)"
fill="#000000" stroke="none">
<path d="M4610 4810 c-11 -11 -20 -33 -20 -50 0 -17 9 -39 20 -50 11 -11 33
-20 50 -20 l30 0 0 -284 0 -284 -32 -7 c-46 -10 -68 -33 -68 -71 0 -38 38 -74
76 -74 l24 0 0 -285 0 -285 -24 0 c-38 0 -76 -36 -76 -74 0 -38 22 -61 68 -71
l32 -7 0 -284 0 -284 -30 0 c-17 0 -39 -9 -50 -20 -43 -43 -11 -120 50 -120
l30 0 0 -284 0 -283 -32 -7 c-45 -9 -68 -33 -68 -72 0 -38 38 -74 76 -74 l24
0 0 -285 0 -285 -30 0 c-59 0 -90 -67 -54 -118 14 -21 22 -22 153 -22 156 0
171 6 171 73 0 41 -27 67 -72 67 l-28 0 0 285 c0 276 1 285 20 285 102 0 114
127 14 146 l-34 6 0 284 0 284 29 0 c42 0 74 30 74 69 0 39 -20 61 -64 70
l-34 7 -3 281 -2 281 32 7 c40 9 57 22 69 52 17 44 -26 93 -81 93 -19 0 -20 9
-20 285 l0 285 30 0 c40 0 70 31 70 73 0 40 -23 64 -68 73 l-32 7 0 283 0 284
33 0 c43 0 67 26 67 72 0 61 -18 68 -168 68 -119 0 -134 -2 -152 -20z"/>
<path d="M2020 4684 c-101 -12 -243 -37 -303 -52 l-68 -17 52 -75 c61 -86 228
-258 310 -318 31 -22 86 -59 123 -81 l67 -42 60 37 c109 66 213 149 304 245
78 81 185 215 185 232 0 7 -123 35 -235 53 -87 15 -424 27 -495 18z"/>
<path d="M779 4264 c-206 -179 -386 -337 -401 -352 l-28 -27 180 -315 c99
-173 185 -314 190 -313 5 2 101 59 213 128 112 69 212 125 221 125 57 0 76
-46 76 -187 l0 -103 973 2 972 3 3 122 c3 118 3 123 29 143 14 11 33 20 43 20
9 0 111 -58 226 -129 115 -71 212 -126 216 -123 16 16 359 624 356 631 -3 9
-107 100 -566 499 l-232 202 -170 0 -169 0 -61 -89 c-134 -195 -267 -326 -474
-462 -152 -100 -169 -104 -263 -54 -207 110 -440 328 -578 543 l-40 62 -171 0
-171 0 -374 -326z"/>
<path d="M1230 2942 l0 -137 135 -129 135 -128 78 70 c42 38 86 80 97 92 52
58 157 140 181 140 18 0 65 -38 180 -147 86 -82 160 -148 164 -148 5 0 79 66
165 148 130 122 161 147 186 147 30 0 36 -5 291 -249 l57 -54 140 132 141 133
0 134 0 134 -975 0 -975 0 0 -138z"/>
<path d="M1694 2530 c-199 -187 -190 -185 -313 -67 -47 45 -101 95 -118 111
l-33 30 0 -227 0 -227 975 0 975 0 0 232 0 232 -52 -50 c-187 -177 -195 -184
-228 -184 -33 0 -45 10 -251 207 -48 46 -92 83 -98 83 -7 0 -77 -62 -157 -137
-79 -76 -155 -142 -169 -147 -16 -6 -34 -6 -50 0 -13 5 -91 73 -173 151 l-149
142 -159 -149z"/>
<path d="M1230 1665 l0 -335 34 -38 34 -37 887 -3 c973 -3 930 -5 972 56 16
24 18 58 21 360 l3 332 -975 0 -976 0 0 -335z"/>
<path d="M1009 628 c-27 -9 -49 -44 -49 -78 0 -19 -9 -20 -314 -20 l-313 0 -7
40 c-4 24 -14 43 -25 50 -32 17 -76 12 -97 -11 -17 -18 -19 -37 -19 -149 0
-146 10 -170 71 -170 38 0 74 38 74 76 l0 24 315 0 315 0 0 -24 c0 -38 36 -76
74 -76 39 0 63 23 72 68 l7 32 313 0 314 0 0 -24 c0 -39 36 -76 75 -76 37 0
61 25 68 70 l4 25 316 3 317 2 0 -30 c0 -38 31 -70 70 -70 38 0 70 32 70 70
l0 30 320 0 320 0 0 -30 c0 -63 77 -94 120 -48 11 12 20 34 20 50 l0 28 318
-2 317 -3 3 -32 c6 -60 79 -84 120 -40 20 21 22 34 22 150 0 114 -2 129 -20
147 -45 45 -112 21 -124 -46 l-7 -34 -314 0 -315 0 0 29 c0 42 -30 74 -69 74
-39 0 -61 -20 -70 -64 l-7 -34 -314 0 -314 0 -7 34 c-9 44 -31 64 -70 64 -39
0 -69 -32 -69 -74 l0 -29 -317 2 -316 3 -4 30 c-12 92 -143 87 -143 -5 l0 -30
-314 0 -314 0 -6 34 c-10 53 -51 80 -97 64z"/>
</g>
</svg>
