<?xml version="1.0" standalone="no"?>
<!DOCTYPE svg PUBLIC "-//W3C//DTD SVG 20010904//EN"
 "http://www.w3.org/TR/2001/REC-SVG-20010904/DTD/svg10.dtd">
<svg version="1.0" xmlns="http://www.w3.org/2000/svg"
 width="512.000000pt" height="512.000000pt" viewBox="0 0 512.000000 512.000000"
 preserveAspectRatio="xMidYMid meet">

<g transform="translate(0.000000,512.000000) scale(0.100000,-0.100000)"
fill="#000000" stroke="none">
<path d="M1700 4814 c0 -3 17 -38 37 -78 51 -97 157 -203 243 -244 184 -87
385 -50 547 101 59 55 163 195 163 218 0 5 -220 9 -495 9 -272 0 -495 -3 -495
-6z"/>
<path d="M1565 4774 c-42 -33 -114 -63 -220 -92 -215 -60 -360 -136 -455 -240
-69 -74 -322 -398 -321 -409 2 -9 370 -533 375 -533 2 0 23 16 47 35 45 36 86
44 107 23 9 -9 12 -227 12 -920 l0 -908 1090 0 1090 0 0 908 c0 693 3 911 12
920 20 20 58 14 97 -16 20 -16 41 -32 48 -35 12 -8 387 516 381 533 -6 17
-272 352 -325 410 -87 94 -255 180 -457 235 -97 26 -208 74 -221 95 -12 20
-22 9 -74 -75 -98 -160 -242 -286 -383 -335 -88 -30 -223 -37 -312 -16 -100
24 -200 80 -277 156 -70 70 -139 169 -165 238 -19 47 -21 48 -49 26z"/>
<path d="M457 3905 l-36 -46 126 -177 c68 -97 146 -207 171 -244 26 -38 52
-68 57 -68 6 1 27 15 47 33 l37 32 -180 255 c-99 140 -182 256 -183 258 -2 1
-19 -18 -39 -43z"/>
<path d="M3722 3692 l-182 -257 38 -32 c20 -18 42 -32 47 -32 6 0 86 108 178
240 117 166 166 244 162 257 -3 9 -18 32 -33 49 l-28 33 -182 -258z"/>
<path d="M4288 3142 c-15 -9 -95 -111 -179 -227 -140 -195 -150 -212 -145
-245 11 -68 86 -102 137 -61 13 10 49 54 79 96 l55 78 3 -427 c1 -235 1 -617
0 -848 l-3 -421 -67 91 c-51 69 -73 92 -96 97 -65 14 -128 -55 -105 -114 13
-34 276 -399 309 -428 30 -27 74 -30 103 -5 31 25 310 413 317 441 11 37 -19
87 -60 101 -52 17 -80 -2 -151 -100 l-60 -84 -3 421 c-1 232 -1 613 0 848 l3
426 55 -77 c30 -42 65 -85 79 -95 55 -44 136 -4 135 67 0 34 -18 65 -147 244
-139 193 -182 240 -217 240 -8 0 -27 -8 -42 -18z"/>
<path d="M1110 1475 l0 -155 1090 0 1091 0 -3 153 -3 152 -1087 3 -1088 2 0
-155z"/>
<path d="M1210 880 c-112 -82 -210 -156 -217 -166 -20 -28 -16 -80 10 -107 12
-13 110 -88 218 -166 167 -120 202 -141 233 -141 48 0 86 36 86 82 0 46 -16
65 -105 128 l-76 55 421 3 c231 1 609 1 840 0 l421 -3 -76 -55 c-43 -30 -83
-63 -91 -74 -22 -32 -17 -83 11 -111 37 -38 81 -33 154 18 193 135 363 262
371 278 15 28 12 75 -7 97 -17 20 -375 282 -414 302 -57 31 -129 -10 -129 -72
0 -47 18 -68 113 -135 l82 -58 -427 -3 c-236 -1 -620 -1 -855 0 l-428 3 82 58
c46 32 89 68 98 80 41 58 -1 137 -72 136 -33 0 -66 -21 -243 -149z"/>
</g>
</svg>
