<svg xmlns="http://www.w3.org/2000/svg" width="80" height="89" fill="none" ><rect x=".6" y=".6" width="78.8" height="87.8" rx="2.4" fill="#fff"/><rect x=".6" y=".6" width="78.8" height="87.8" rx="2.4" stroke="#8796a1" stroke-width="1.2"/><rect x="13.17" y="16.11" width="53.675" height="56.78" rx="2.379" fill="#fff"/><rect x="13.17" y="16.11" width="53.675" height="56.78" rx="2.379" stroke="#4d626e" stroke-width="2.22"/><path d="M52.516 37.275l.048-1.537c-.018-7.472-4.399-11.818-11.313-12.28-6.026-.402-10.563 1.987-12.634 5.966-.696 1.338-1.092 3.013-1.242 4.831-.234.948-.366 1.933-.366 2.953h.024c0 .006 0 .012-.006.024-.012 0-.03 0-.042.006-.882.156-1.284 2.035-.894 4.201.354 1.987 1.254 3.529 2.083 3.643 1.056 2.833 2.719 5.588 4.783 7.598 1.164 1.14 2.461 2.041 3.841 2.593.948.372 1.939.582 2.953.582s2.005-.21 2.953-.582c1.428-.57 2.767-1.512 3.961-2.713 2.011-2.011 3.637-4.718 4.669-7.502.792-.234 1.627-1.723 1.969-3.619.36-2.071.012-3.865-.786-4.165zm-1.338 4.441c-.186 1.05-.6 1.921-1.032 2.293-.174.144-.354.216-.528.186-.096-.012-.186-.06-.264-.138-.954 2.971-2.773 5.936-5.071 7.73-1.368 1.074-2.911 1.735-4.537 1.735-1.591 0-3.103-.63-4.447-1.663-2.341-1.788-4.195-4.789-5.162-7.802-.078.072-.168.12-.264.132-.198.036-.408-.06-.606-.264-.408-.408-.774-1.224-.954-2.209-.012-.066-.018-.126-.03-.192a31.43 31.43 0 0 1 .084-2.017c.09-.252.198-.45.348-.558.06-.048.132-.072.204-.084.162-.03.336.036.504.168v-.042c.06-.558.81-5.468 5.528-5.029 0 0 4.141 1.524 7.91.18a18.82 18.82 0 0 1 1.164 0c1.56.06 2.629.87 3.751 1.386-.042-.516-.438-1.038-.42-1.386a2.3 2.3 0 0 1 .498.21c.804.858 1.584 2.299 2.209 4.651v.03l.018-.018c.162-.126.33-.186.492-.156.042.006.078.018.12.036.51.246.732 1.452.486 2.821zm14.729 30.838H14.111a27.93 27.93 0 0 1 1.116-6.662l.144-.48.198-.6c-.006.012-.012.024-.012.036.012-.024.018-.048.03-.072l.012-.03v-.006-.006c2.947-7.874 7.562-8.187 8.613-8.433 2.239-.522 4.946-.3 6.392-.75.168 1.416 4.297 6.086 6.998 9.009l1.152-4.531c-.864-.522-1.05-1.657-1.05-2.605h4.441c0 .954-.186 2.101-1.074 2.617l1.17 4.519c2.707-2.923 6.83-7.592 6.998-9.009 1.447.45 4.159.228 6.392.75 1.05.246 5.66.552 8.607 8.403a14.02 14.02 0 0 1 .234.648v.006c.006.018.012.03.012.048.042.138.09.294.138.48.528 1.903.966 3.901 1.188 5.864.054.27.078.54.096.804z" fill="#4d626e"/><path d="M77 1.5H3A1.5 1.5 0 0 0 1.5 3v83A1.5 1.5 0 0 0 3 87.5h74a1.5 1.5 0 0 0 1.5-1.5V3A1.5 1.5 0 0 0 77 1.5z" fill="#000" fill-opacity=".6"/><g fill="#fff"><rect x="21" y="33.5" width="38" height="4" rx="2"/><rect x="30.053" y="40.5" width="19.895" height="3" rx="1.5"/><path d="M31.941 47.5h-6.513a.9.9 0 0 0-.628.251.84.84 0 0 0-.26.606v6.286a.84.84 0 0 0 .26.606.9.9 0 0 0 .628.251h2.54v-2.72h-1.166V51.5h1.166v-.976c0-1.11.685-1.723 1.733-1.723a7.26 7.26 0 0 1 1.027.087v1.089h-.579c-.57 0-.748.342-.748.692v.831h1.273l-.203 1.28h-1.069v2.72h2.54a.9.9 0 0 0 .628-.251.84.84 0 0 0 .26-.606v-6.286a.84.84 0 0 0-.26-.606c-.167-.161-.393-.251-.628-.251zm11.347 0h-6.286a.86.86 0 0 0-.857.857v6.286a.86.86 0 0 0 .857.857h6.286a.86.86 0 0 0 .857-.857v-6.286a.86.86 0 0 0-.857-.857zm-.873 2.836l.004.152c0 1.548-1.179 3.332-3.332 3.332a3.32 3.32 0 0 1-1.798-.525 2.45 2.45 0 0 0 .282.014 2.35 2.35 0 0 0 1.453-.5c-.514-.011-.946-.348-1.095-.812.18.027.343.027.529-.021a1.17 1.17 0 0 1-.937-1.15v-.014a1.17 1.17 0 0 0 .529.148 1.17 1.17 0 0 1-.521-.975c0-.218.057-.418.159-.591.577.711 1.443 1.175 2.414 1.225a1.17 1.17 0 0 1 1.143-1.439c.337 0 .641.141.855.37.264-.05.518-.148.743-.282a1.17 1.17 0 0 1-.514.645c.236-.025.464-.091.675-.182a2.47 2.47 0 0 1-.587.607zM54.889 47.5H48.03c-.314 0-.57.259-.57.577v6.846c0 .318.255.577.57.577h6.859c.314 0 .571-.259.571-.577v-6.846c0-.318-.257-.577-.571-.577zm-5.011 6.857h-1.186v-3.818h1.188v3.818h-.002zm-.593-4.339a.69.69 0 0 1-.687-.687.69.69 0 0 1 .688-.687.69.69 0 0 1 .688.688c0 .38-.307.688-.687.688zm5.037 4.339h-1.186V52.5c0-.443-.009-1.013-.616-1.013-.618 0-.712.482-.712.98v1.889h-1.186v-3.818h1.137v.521h.016c.159-.3.546-.616 1.123-.616 1.2 0 1.423.791 1.423 1.82v2.093z"/></g></svg>