<svg xmlns="http://www.w3.org/2000/svg" width="80" height="89" fill="none" ><rect x=".6" y=".6" width="78.8" height="87.8" rx="2.4" fill="#fff"/><rect x=".6" y=".6" width="78.8" height="87.8" rx="2.4" stroke="#8796a1" stroke-width="1.2"/><g fill="#4d626e"><rect x="21.21" y="8" width="38" height="4" rx="2"/><rect x="30.263" y="15.316" width="19.895" height="3" rx="1.5"/><path d="M32.156 23h-6.513a.9.9 0 0 0-.628.251.84.84 0 0 0-.26.606v6.286a.84.84 0 0 0 .26.606c.167.161.392.251.628.251h2.54v-2.72h-1.166V27h1.166v-.976c0-1.11.685-1.723 1.733-1.723.502 0 1.027.086 1.027.086v1.089h-.579c-.57 0-.748.341-.748.692V27h1.273l-.203 1.28h-1.069V31h2.54a.9.9 0 0 0 .628-.251.84.84 0 0 0 .26-.606v-6.286a.84.84 0 0 0-.26-.606.9.9 0 0 0-.628-.251zm11.347 0h-6.286a.86.86 0 0 0-.857.857v6.286a.86.86 0 0 0 .857.857h6.286a.86.86 0 0 0 .857-.857v-6.286a.86.86 0 0 0-.857-.857zm-.873 2.836l.004.152c0 1.548-1.179 3.332-3.332 3.332a3.32 3.32 0 0 1-1.798-.525 2.45 2.45 0 0 0 .282.014 2.35 2.35 0 0 0 1.453-.5c-.514-.011-.946-.348-1.095-.812.18.027.343.027.529-.021a1.17 1.17 0 0 1-.937-1.15v-.014a1.17 1.17 0 0 0 .529.148 1.17 1.17 0 0 1-.521-.975c0-.218.057-.418.159-.591.577.711 1.443 1.175 2.414 1.225a1.17 1.17 0 0 1 1.143-1.439c.338 0 .641.141.855.37.264-.05.518-.148.743-.282a1.17 1.17 0 0 1-.514.645c.236-.025.464-.091.675-.182a2.47 2.47 0 0 1-.587.607zM55.105 23h-6.859c-.314 0-.57.259-.57.577v6.846c0 .318.255.577.57.577h6.859c.314 0 .571-.259.571-.577v-6.846c0-.318-.257-.577-.571-.577zm-5.011 6.857h-1.186v-3.818h1.188v3.818h-.002zm-.593-4.339a.69.69 0 0 1-.687-.687.69.69 0 0 1 .688-.687.69.69 0 0 1 .688.688c0 .38-.307.688-.687.688zm5.038 4.339h-1.186V28c0-.443-.009-1.012-.616-1.012-.618 0-.712.482-.712.98v1.889h-1.186v-3.818h1.137v.521h.016c.159-.3.546-.616 1.123-.616 1.2 0 1.423.791 1.423 1.82v2.093z"/></g><rect x="19.122" y="35.912" width="41.755" height="44.176" rx="1.52" fill="#fff"/><rect x="19.122" y="35.912" width="41.755" height="44.176" rx="1.52" stroke="#4d626e" stroke-width="1.824"/><path d="M49.752 52.367l.037-1.198c-.014-5.826-3.43-9.214-8.821-9.574-4.698-.314-8.236 1.549-9.85 4.651-.543 1.044-.852 2.349-.969 3.767a9.6 9.6 0 0 0-.285 2.302h.019c-.014.019-.028.019-.037.023-.688.122-1.001 1.586-.697 3.276.276 1.549.978 2.752 1.624 2.84.824 2.209 2.12 4.356 3.729 5.924.908.889 1.919 1.591 2.995 2.022.739.29 1.512.454 2.302.454s1.563-.164 2.302-.454c1.114-.445 2.157-1.179 3.088-2.115 1.568-1.568 2.836-3.678 3.641-5.849.618-.182 1.268-1.343 1.535-2.822.281-1.614.009-3.014-.613-3.248zm-1.044 3.463c-.145.819-.468 1.497-.805 1.788-.136.112-.276.169-.412.145-.075-.009-.145-.047-.206-.108-.744 2.316-2.162 4.628-3.954 6.027-1.067.838-2.27 1.352-3.538 1.352-1.24 0-2.419-.491-3.467-1.296-1.825-1.395-3.271-3.734-4.024-6.083-.061.056-.131.094-.206.103-.154.028-.318-.047-.473-.206-.318-.318-.604-.955-.744-1.722-.009-.051-.014-.098-.023-.15a24.39 24.39 0 0 1 .066-1.572c.07-.197.154-.351.271-.435a.34.34 0 0 1 .159-.066c.126-.023.262.028.393.131v-.033c.047-.435.632-4.263 4.31-3.921 0 0 3.229 1.189 6.167.14a15.26 15.26 0 0 1 .908 0c1.217.047 2.05.678 2.925 1.081-.033-.402-.342-.809-.328-1.081a1.74 1.74 0 0 1 .388.164c.627.669 1.235 1.792 1.722 3.627v.023l.014-.014c.126-.098.257-.145.384-.122.033.005.061.014.094.028.398.192.571 1.132.379 2.199zm11.484 24.043H19.809a21.8 21.8 0 0 1 .87-5.194l.112-.374.154-.468c-.005.009-.009.019-.009.028.009-.019.014-.037.023-.056l.009-.023v-.005-.005c2.298-6.139 5.896-6.383 6.715-6.574 1.745-.407 3.856-.234 4.984-.585.131 1.104 3.35 4.745 5.456 7.024l.898-3.533c-.674-.407-.819-1.292-.819-2.031h3.463c0 .744-.145 1.638-.838 2.04l.913 3.523c2.11-2.279 5.325-5.919 5.456-7.024 1.128.351 3.243.178 4.983.585.819.192 4.413.43 6.71 6.551l.183.505v.005c.005.014.009.023.009.037l.108.374c.412 1.483.753 3.042.927 4.572a4.89 4.89 0 0 1 .075.627z" fill="#4d626e"/></svg>