<?xml version="1.0" encoding="utf-8"?>
<!-- Generator: Adobe Illustrator 19.2.1, SVG Export Plug-In . SVG Version: 6.00 Build 0)  -->
<svg version="1.1" id="Layer_1" xmlns="http://www.w3.org/2000/svg" xmlns:xlink="http://www.w3.org/1999/xlink" x="0px" y="0px"
	 viewBox="0 0 64 64" style="enable-background:new 0 0 64 64;" xml:space="preserve">
<style type="text/css">
	.st0{fill:#241F20;}
	.st1{fill:#8D8D8D;}
</style>
<g>
	<g>
		<path class="st0" d="M295.7,451.9c-0.5,0-1-0.3-1.3-0.8L290,443h-11.4l-0.1,0c0,0-0.2,0-0.2,0c-1.2,0-2.1-0.9-2.2-1.9l-0.7-10.8
			c-0.1-1.1,0.8-2.1,1.9-2.2l0.6,0l0.1,0c1.1,0,2,0.9,2.1,1.9l0.2,3.9h7.5c0.3,0,0.5,0.3,0.5,0.7s-0.2,0.7-0.5,0.7h-7.4l0.3,4.4h8.8
			c0.2,0,0.4,0,0.5,0.1l0.1,0l0.1,0c0.4,0.1,0.8,0.4,1,0.8l5.2,9.5c0.4,0.7,0.2,1.5-0.4,1.8C296,451.9,295.8,451.9,295.7,451.9z"/>
		<path class="st0" d="M278.1,428.9c0.6,0,1,0.4,1.1,1l0.2,3l0.1,1.3h0l0.1,2.1l0.2,2.4l0.1,1.9h1.9h7.9c0.1,0,0.1,0,0.2,0l0.1,0
			l0.1,0c0.1,0,0.2,0.1,0.3,0.3l5.2,9.5c0.1,0.3,0.1,0.5,0,0.5c-0.1,0-0.3-0.1-0.4-0.3l-4.2-7.6l-0.6-1h-1.2h-10.7l-0.1,0h-0.2h-0.1
			l-0.1,0l0,0c-0.6,0-1-0.4-1.1-1l-0.7-10.8c0-0.6,0.4-1.1,1-1.2L278.1,428.9L278.1,428.9 M278.1,426.9c-0.1,0-0.1,0-0.2,0l-0.6,0
			c-1.7,0.1-3,1.6-2.9,3.3l0.7,10.8c0.1,1.6,1.5,2.9,3.1,2.9c0,0,0.1,0,0.1,0h0.1c0.1,0,0.1,0,0.2,0h10.8l4.2,7.6
			c0.5,0.8,1.3,1.3,2.1,1.3c0.3,0,0.7-0.1,1-0.2c1.1-0.6,1.4-2,0.8-3.2l-5.2-9.5c-0.4-0.7-1-1.2-1.7-1.3c-0.3-0.1-0.6-0.1-0.9-0.1
			h-7.9l-0.2-2.4h6.4c0.8,0,1.5-0.8,1.5-1.7c0-0.9-0.7-1.7-1.5-1.7h-6.6l-0.2-3C281.1,428.2,279.8,426.9,278.1,426.9L278.1,426.9z"
			/>
	</g>
	<g>
		<circle class="st0" cx="277.7" cy="422.5" r="2.6"/>
		<path class="st0" d="M277.7,420.9c0.9,0,1.6,0.7,1.6,1.6s-0.7,1.6-1.6,1.6s-1.6-0.7-1.6-1.6S276.8,420.9,277.7,420.9 M277.7,418.9
			c-2,0-3.6,1.6-3.6,3.6s1.6,3.6,3.6,3.6s3.6-1.6,3.6-3.6S279.6,418.9,277.7,418.9L277.7,418.9z"/>
	</g>
	<path class="st0" d="M270.2,435.5c0,0-6,4.2-5.4,12s6.6,12.2,11.9,12.9s11.1-1.4,14.3-7.1c0.3-0.7,0.7-1.2,0-1.8
		c0,0-0.8-0.7-1.5,0.3s-1.6,3.5-5.2,5.3c-2.2,1.1-5.1,2.1-9.1,0.9s-9-5.8-8.4-12.3c0.4-3.4,1.6-6.2,5.2-9c0.8-0.7,0.7-1.2,0.4-1.6
		s-0.9-0.5-1.4-0.2S270.2,435.5,270.2,435.5z"/>
</g>
<g>
	<g>
		<path class="st1" d="M54.2,51.3c-0.9,0-1.9-0.6-2.4-1.5l-6.7-12.2c0,0-17.2,0-17.2,0c0,0-0.2,0-0.2,0l-0.3,0c-2,0-3.6-1.5-3.7-3.5
			l-1.1-16.6c-0.1-2.1,1.4-3.8,3.5-4l1-0.1c0.1,0,0.2,0,0.3,0c2,0,3.6,1.5,3.7,3.5l0.4,5.5h11c0.7,0,1.3,0.7,1.3,1.6
			c0,0.9-0.6,1.6-1.3,1.6H31.6l0.4,5.7h13c0.3,0,0.7,0.1,1,0.2l0.1,0l0.1,0c0.8,0.1,1.5,0.7,2,1.5L56,47.4c0.7,1.3,0.4,2.9-0.8,3.6
			C54.9,51.2,54.5,51.3,54.2,51.3z"/>
		<path class="st1" d="M27.3,14.4c1.4,0,2.6,1.1,2.7,2.5l0.3,4.6l0.1,1.9h1.9h10.1c0.1,0,0.3,0.2,0.3,0.6c0,0.4-0.2,0.6-0.3,0.6
			h-9.7h-2.1l0.1,2.1l0.2,3.7l0.1,1.9h1.9h12.1c0.2,0,0.4,0,0.7,0.1l0.1,0l0.1,0c0.5,0.1,1,0.4,1.2,1l7.9,14.5
			c0.5,0.8,0.3,1.8-0.4,2.2c-0.2,0.1-0.3,0.1-0.5,0.1c-0.6,0-1.2-0.4-1.5-1l-6.4-11.7l-0.6-1h-1.2H28h0l-0.1,0h-0.2h-0.1h0l0,0
			l-0.1,0c-1.4,0-2.6-1.1-2.7-2.6l-1.1-16.6c-0.1-1.5,1-2.8,2.5-2.9l1-0.1C27.1,14.4,27.2,14.4,27.3,14.4 M27.3,12.4
			c-0.1,0-0.2,0-0.3,0l-1,0.1c-2.6,0.2-4.6,2.4-4.4,5l1.1,16.6c0.2,2.5,2.2,4.4,4.7,4.4c0.1,0,0.1,0,0.2,0h0.1c0.1,0,0.2,0,0.3,0
			h16.5l6.4,11.7c0.7,1.3,2,2,3.3,2c0.5,0,1-0.1,1.5-0.4c1.6-0.9,2.2-3.1,1.2-4.9l-7.9-14.5c-0.6-1.1-1.6-1.8-2.7-2
			c-0.4-0.1-0.8-0.2-1.3-0.2H32.9l-0.2-3.7h9.7c1.3,0,2.3-1.2,2.3-2.6c0-1.4-1-2.6-2.3-2.6H32.3L32,16.8
			C31.8,14.3,29.7,12.4,27.3,12.4L27.3,12.4z"/>
	</g>
	<g>
		<path class="st1" d="M26.5,10.1c-2.5,0-4.5-2-4.5-4.5s2-4.5,4.5-4.5c2.5,0,4.5,2,4.5,4.5S29,10.1,26.5,10.1z"/>
		<path class="st1" d="M26.5,2.1c1.9,0,3.5,1.6,3.5,3.5s-1.6,3.5-3.5,3.5c-1.9,0-3.5-1.6-3.5-3.5C23,3.6,24.6,2.1,26.5,2.1
			 M26.5,0.1c-3,0-5.5,2.5-5.5,5.5c0,3,2.5,5.5,5.5,5.5S32,8.6,32,5.6S29.6,0.1,26.5,0.1L26.5,0.1z"/>
	</g>
	<path class="st1" d="M15,25.5c0,0-9.2,6.5-8.3,18.4c0.9,11.8,10.2,18.7,18.2,19.8s17-2.2,22-11c0.5-1.1,1-1.8,0-2.8
		c0,0-1.3-1-2.3,0.5c-1,1.5-2.5,5.4-8,8.2c-3.4,1.7-7.8,3.3-14,1.4c-6.2-1.9-13.9-9-12.9-18.9c0.7-5.3,2.4-9.4,8-13.8
		c1.2-1.1,1.1-1.8,0.6-2.4c-0.5-0.6-1.3-0.8-2.1-0.3C15.5,25.1,15,25.5,15,25.5z"/>
</g>
</svg>
