<svg width="256" height="256" xmlns="http://www.w3.org/2000/svg" fill="#fff">
  <rect fill="#d20962" width="256" height="256" rx="16" ry="16"/>
  <path d="m88.364 136.525 12.612 4q-2.9 10.546-9.668 15.688-6.724 5.098-17.095 5.098-12.832 0-21.093-8.746-8.262-8.789-8.262-23.994 0-16.084 8.306-24.96 8.305-8.922 21.84-8.922 11.822 0 19.204 6.988 4.395 4.13 6.592 11.865l-12.876 3.076q-1.142-5.01-4.79-7.91-3.603-2.9-8.789-2.9-7.163 0-11.645 5.141-4.439 5.142-4.439 16.655 0 12.217 4.395 17.403 4.394 5.185 11.426 5.185 5.185 0 8.92-3.296 3.736-3.295 5.362-10.37zM102.182 95.788h25.752q7.647 0 11.382.66 3.78.615 6.724 2.636 2.988 2.021 4.965 5.405 1.978 3.34 1.978 7.515 0 4.526-2.461 8.306-2.417 3.779-6.592 5.669 5.889 1.713 9.053 5.844 3.164 4.131 3.164 9.712 0 4.395-2.065 8.57-2.022 4.13-5.582 6.635-3.515 2.461-8.7 3.032-3.253.352-15.69.44h-21.928Zm13.008 10.723v14.897h8.525q7.603 0 9.449-.22 3.34-.395 5.23-2.285 1.933-1.933 1.933-5.053 0-2.989-1.67-4.834-1.626-1.89-4.878-2.286-1.934-.22-11.118-.22zm0 25.62v17.226h12.041q7.031 0 8.92-.395 2.901-.527 4.703-2.549 1.846-2.065 1.846-5.493 0-2.9-1.407-4.922-1.406-2.021-4.086-2.944-2.637-.923-11.514-.923zM157.177 95.788h25.752q7.647 0 11.382.66 3.78.615 6.724 2.636 2.988 2.021 4.965 5.405 1.978 3.34 1.978 7.515 0 4.526-2.46 8.306-2.418 3.779-6.593 5.669 5.889 1.713 9.053 5.844 3.164 4.131 3.164 9.712 0 4.395-2.065 8.57-2.022 4.13-5.581 6.635-3.516 2.461-8.702 3.032-3.252.352-15.688.44h-21.929zm13.008 10.723v14.897h8.525q7.603 0 9.449-.22 3.34-.395 5.23-2.285 1.933-1.933 1.933-5.053 0-2.989-1.67-4.834-1.626-1.89-4.878-2.286-1.934-.22-11.118-.22zm0 25.62v17.226h12.041q7.031 0 8.921-.395 2.9-.527 4.702-2.549 1.846-2.065 1.846-5.493 0-2.9-1.406-4.922-1.407-2.021-4.087-2.944-2.637-.923-11.514-.923z"/>
  <path d="M51.081 84.915c-5.769 0-9.906.83-12.408 2.49-2.809 1.865-4.213 5.245-4.213 10.139v18.877c0 5.943-2.502 9.278-7.508 10.006v3.146c5.006.758 7.508 4.122 7.508 10.094v18.701c0 4.312 1.054 7.429 3.16 9.352 2.442 2.243 6.929 3.365 13.461 3.365h1.191v-3.016h-.55c-4.335 0-7.386-.626-9.157-1.879-2.014-1.398-3.021-4.063-3.021-7.996V139.58c0-5.564-2.885-9.438-8.654-11.623 5.769-2.068 8.654-5.913 8.654-11.535V97.806c0-3.467.747-5.914 2.242-7.342 1.74-1.66 5.052-2.49 9.936-2.49h.55v-3.059zm152.648 0v3.059h.55c4.883 0 8.195.83 9.935 2.49 1.495 1.428 2.242 3.875 2.242 7.342v18.615c0 5.622 2.885 9.467 8.654 11.535-5.769 2.185-8.654 6.06-8.654 11.623v18.615c0 3.933-1.007 6.598-3.021 7.996-1.77 1.253-4.822 1.88-9.157 1.88h-.549v3.015h1.19c6.532 0 11.02-1.122 13.46-3.365 2.107-1.923 3.161-5.04 3.161-9.352v-18.701c0-5.972 2.502-9.336 7.508-10.094v-3.146c-5.006-.728-7.508-4.063-7.508-10.006V97.544c0-4.894-1.404-8.274-4.213-10.139-2.502-1.66-6.639-2.49-12.408-2.49z"/>
</svg>
