<svg style="position: absolute; width: 0; height: 0; overflow: hidden;" version="1.1" xmlns="http://www.w3.org/2000/svg" xmlns:xlink="http://www.w3.org/1999/xlink">
<defs>
<symbol id="icon-audlogo" viewBox="0 0 32 32">
<path fill="#7421b7" style="fill: var(--color1, #7421b7)" d="M13.857 0.347c-2.287 0.309-4.641 1.2-6.619 2.506-5.004 3.298-7.736 9.253-6.966 15.2 0.408 3.14 1.819 6.249 3.849 8.498l0.521 0.574 0.038-6.181c0.045-6.045 0.045-6.204 0.211-7.004 0.966-4.619 4.317-7.985 8.921-8.966 1.132-0.242 3.238-0.249 4.347-0.008 1.57 0.34 2.838 0.868 4.143 1.728 0.989 0.657 2.4 2.060 3.041 3.034 2.34 3.517 2.581 7.826 0.657 11.54-0.566 1.079-1.155 1.887-2.038 2.77-1.577 1.577-3.404 2.574-5.63 3.072-0.679 0.151-0.989 0.174-2.332 0.174-1.751 0-2.249-0.075-3.675-0.558l-0.853-0.287v0.279c0 0.808-0.596 1.698-1.374 2.045-0.355 0.159-0.543 0.181-1.668 0.204-1.547 0.038-1.592 0.091-0.604 0.672 2.408 1.411 4.785 2.121 7.525 2.257 4.091 0.204 8.468-1.419 11.411-4.211 0.294-0.279 0.558-0.513 0.574-0.513 0.023 0 0.060 0.091 0.083 0.204 0.068 0.34 0.475 0.906 0.815 1.155 0.521 0.377 0.921 0.453 2.347 0.453h1.275l-0.030-7.343c-0.023-7.992-0.008-7.675-0.475-9.502-1.411-5.585-5.811-9.992-11.404-11.426-0.551-0.136-1.396-0.302-1.872-0.37-1.072-0.136-3.185-0.136-4.219 0.008z"></path>
<path fill="#f9cf3c" style="fill: var(--color2, #f9cf3c)" d="M14.981 7.094c-1.932 0.211-3.857 1.125-5.253 2.498-0.792 0.777-1.162 1.291-1.841 2.528-0.362 0.657-0.687 1.804-0.868 3.102-0.083 0.611-0.106 9.54-0.023 12.083l0.045 1.6h1.298c1.494 0 1.804-0.068 2.332-0.536 0.189-0.166 0.43-0.491 0.551-0.732 0.211-0.423 0.211-0.453 0.234-2.068 0.015-0.906 0.053-1.645 0.083-1.645 0.038 0 0.309 0.113 0.619 0.257 2.091 0.959 4.37 1.125 6.468 0.46 2.906-0.921 5.192-3.23 6.008-6.091 0.551-1.909 0.423-4.302-0.309-5.947-0.34-0.762-0.46-0.981-0.823-1.509-0.219-0.317-0.453-0.626-0.521-0.679-0.060-0.053-0.113-0.136-0.113-0.189s-0.234-0.317-0.521-0.589c-2.045-1.925-4.672-2.83-7.366-2.543zM17.094 11.66c1.962 0.498 3.321 2.166 3.411 4.189 0.068 1.359-0.347 2.43-1.328 3.396-0.657 0.657-1.245 0.996-2.091 1.208-0.74 0.189-1.434 0.189-2.174 0-0.845-0.211-1.434-0.551-2.091-1.208-0.981-0.966-1.396-2.038-1.328-3.396 0.045-0.928 0.257-1.577 0.74-2.302 0.619-0.921 1.57-1.6 2.634-1.879 0.551-0.143 1.668-0.151 2.226-0.008z"></path>
</symbol>
</defs>
</svg>
