<svg xmlns="http://www.w3.org/2000/svg" width="21" height="15" viewBox="0 0 21 15">
  <metadata><?xpacket begin="﻿" id="W5M0MpCehiHzreSzNTczkc9d"?>
<x:xmpmeta xmlns:x="adobe:ns:meta/" x:xmptk="Adobe XMP Core 5.6-c138 79.159824, 2016/09/14-01:09:01        ">
   <rdf:RDF xmlns:rdf="http://www.w3.org/1999/02/22-rdf-syntax-ns#">
      <rdf:Description rdf:about=""/>
   </rdf:RDF>
</x:xmpmeta>
                                                                                                    
                                                                                                    
                                                                                                    
                                                                                                    
                                                                                                    
                                                                                                    
                                                                                                    
                                                                                                    
                                                                                                    
                                                                                                    
                                                                                                    
                                                                                                    
                                                                                                    
                                                                                                    
                                                                                                    
                                                                                                    
                                                                                                    
                                                                                                    
                                                                                                    
                                                                                                    
                           
<?xpacket end="w"?></metadata>
<defs>
    <style>
      .cls-1 {
        fill: #fff;
        fill-rule: evenodd;
      }
    </style>
  </defs>
  <path id="Forma_1" data-name="Forma 1" class="cls-1" d="M31,433.81v1.606a1.742,1.742,0,0,1-1.737,1.743H27.728a0.714,0.714,0,0,1-.712-0.714v-3.664a0.711,0.711,0,0,1,.628-0.7,7.341,7.341,0,0,0-14.285,0,0.711,0.711,0,0,1,.627.7v3.664a0.714,0.714,0,0,1-.712.714H11.735A1.742,1.742,0,0,1,10,435.416V433.81a1.742,1.742,0,0,1,1.737-1.743h0.159a8.775,8.775,0,0,1,17.213,0h0.16A1.741,1.741,0,0,1,31,433.81ZM22.648,437.2a1.548,1.548,0,0,1-1.318.655,1.219,1.219,0,1,1,0-2.38,1.549,1.549,0,0,1,1.318.654h3.569a6.172,6.172,0,1,0-.559,1.073h-3.01v0Z" transform="translate(-10 -425)"/>
</svg>
