<svg xmlns="http://www.w3.org/2000/svg" xmlns:xlink="http://www.w3.org/1999/xlink" width="250" height="192" fill="none" ><style><![CDATA[.B{fill:#fff}.C{fill:#718491}.D{stroke:#718491}.E{stroke-width:1.667}.F{font-family:Roboto}]]></style><path d="M0 0h250v192H0z" class="B"/><rect x="60.5" y="164.5" width="11" height="11" rx="5.5" fill="#ffd9f1" stroke="#f21197"/><text fill="#546069" xml:space="preserve" style="white-space:pre" font-size="12" font-weight="600" letter-spacing="0em" class="F"><tspan x="76" y="174.031">Button Inner Padding</tspan></text><rect x="20.5" y="14.5" width="209" height="141" rx="3.5" class="B"/><rect x="20.5" y="14.5" width="209" height="141" rx="3.5" stroke="#bbc2c7"/><rect x="36" y="22" width="40" height="49" rx="2.223" class="B"/><rect x="40" y="66.988" width="32" height="3.789" rx="1.895" class="C"/><rect x="36.662" y="22.581" width="38.35" height="40.573" rx="1.389" class="B"/><rect x="36.662" y="22.581" width="38.35" height="40.573" rx="1.389" class="D E"/><path d="M64.792 37.695l.034-1.1c-.013-5.35-3.15-8.461-8.1-8.791-4.314-.288-7.562 1.422-9.045 4.271-.498.958-.782 2.157-.889 3.459a8.79 8.79 0 0 0-.262 2.114h.017c-.013.017-.026.017-.034.021-.632.112-.919 1.457-.64 3.008.253 1.422.898 2.527 1.491 2.608.756 2.028 1.947 4 3.425 5.44.834.816 1.762 1.461 2.75 1.856a5.77 5.77 0 0 0 2.114.417 5.77 5.77 0 0 0 2.114-.417c1.023-.408 1.981-1.083 2.836-1.942 1.439-1.439 2.604-3.377 3.343-5.371.567-.168 1.165-1.233 1.409-2.591.258-1.483.009-2.767-.563-2.982zm-.958 3.18c-.133.752-.43 1.375-.739 1.642-.125.103-.254.155-.378.133-.069-.009-.133-.043-.189-.099-.683 2.127-1.985 4.25-3.631 5.534-.98.769-2.084 1.242-3.248 1.242-1.139 0-2.221-.451-3.184-1.19-1.676-1.281-3.004-3.429-3.695-5.586-.056.052-.12.086-.189.095-.142.026-.292-.043-.434-.189-.292-.292-.554-.877-.683-1.581-.009-.047-.013-.09-.021-.138.004-.494.026-.971.06-1.444.064-.18.142-.322.249-.4.043-.034.095-.052.146-.06.116-.021.241.026.361.12v-.03c.043-.4.58-3.914 3.958-3.601 0 0 2.965 1.092 5.663.129a13.62 13.62 0 0 1 .834 0c1.117.043 1.882.623 2.686.993-.03-.369-.314-.743-.301-.993a1.65 1.65 0 0 1 .357.15c.576.614 1.134 1.646 1.581 3.33v.021l.013-.013c.116-.09.236-.133.352-.112.03.004.056.013.086.026.365.176.524 1.04.348 2.02zm10.545 22.077H37.297c.082-1.62.322-3.158.799-4.77l.103-.344.142-.43c-.004.009-.008.017-.008.026.008-.017.013-.034.021-.051l.009-.022v-.004-.004c2.11-5.637 5.414-5.861 6.166-6.037 1.603-.374 3.541-.215 4.576-.537.12 1.014 3.077 4.357 5.01 6.45l.825-3.244c-.619-.374-.752-1.186-.752-1.865h3.18c0 .683-.133 1.504-.769 1.873l.838 3.236c1.938-2.093 4.89-5.436 5.01-6.45 1.035.322 2.978.163 4.576.537.752.176 4.052.395 6.162 6.016l.168.464v.004c.004.013.009.021.009.034l.099.344c.378 1.362.692 2.793.851 4.198a4.43 4.43 0 0 1 .069.576z" class="C"/><rect x="82" y="22" width="40" height="49" rx="2.223" class="B"/><rect x="86" y="66.988" width="32" height="3.789" rx="1.895" class="C"/><rect x="82.662" y="22.581" width="38.35" height="40.573" rx="1.389" class="B"/><rect x="82.662" y="22.581" width="38.35" height="40.573" rx="1.389" class="D E"/><path d="M110.792 37.695l.035-1.1c-.013-5.35-3.15-8.461-8.1-8.791-4.314-.288-7.563 1.422-9.045 4.271-.498.958-.782 2.157-.889 3.459a8.79 8.79 0 0 0-.262 2.114h.017c-.013.017-.026.017-.034.021-.632.112-.919 1.457-.64 3.008.254 1.422.898 2.527 1.491 2.608.756 2.028 1.947 4 3.425 5.44.834.816 1.762 1.461 2.75 1.856.678.267 1.388.417 2.115.417a5.77 5.77 0 0 0 2.114-.417c1.022-.408 1.981-1.083 2.836-1.942 1.439-1.439 2.604-3.377 3.343-5.371.567-.168 1.164-1.233 1.409-2.591.258-1.483.009-2.767-.563-2.982zm-.958 3.18c-.133.752-.43 1.375-.739 1.642-.125.103-.254.155-.378.133-.069-.009-.133-.043-.189-.099-.684 2.127-1.986 4.25-3.631 5.534-.98.769-2.084 1.242-3.249 1.242-1.138 0-2.221-.451-3.184-1.19-1.676-1.281-3.003-3.429-3.695-5.586-.056.052-.12.086-.189.095-.142.026-.292-.043-.434-.189-.292-.292-.554-.877-.683-1.581-.009-.047-.013-.09-.022-.138.004-.494.026-.971.06-1.444.064-.18.142-.322.249-.4.043-.034.094-.052.146-.06.116-.021.241.026.361.12v-.03c.043-.4.58-3.914 3.958-3.601 0 0 2.965 1.092 5.663.129a13.63 13.63 0 0 1 .834 0c1.117.043 1.882.623 2.686.993-.031-.369-.314-.743-.301-.993.129.034.245.09.356.15.576.614 1.135 1.646 1.582 3.33v.021l.013-.013c.116-.09.236-.133.352-.112.03.004.056.013.086.026.365.176.524 1.04.348 2.02zm10.545 22.077H83.297c.082-1.62.322-3.158.799-4.77l.103-.344.142-.43c-.004.009-.008.017-.008.026.008-.017.013-.034.021-.051l.009-.022v-.004-.004c2.11-5.637 5.414-5.861 6.166-6.037 1.603-.374 3.541-.215 4.576-.537.12 1.014 3.077 4.357 5.01 6.45l.825-3.244c-.619-.374-.752-1.186-.752-1.865h3.18c0 .683-.133 1.504-.769 1.873l.838 3.236c1.937-2.093 4.889-5.436 5.01-6.45 1.035.322 2.978.163 4.576.537.752.176 4.052.395 6.162 6.016l.167.464v.004c.005.013.009.021.009.034l.099.344c.378 1.362.692 2.793.851 4.198a4.61 4.61 0 0 1 .068.576z" class="C"/><rect x="128" y="22" width="40" height="49" rx="2.223" class="B"/><rect x="132" y="66.988" width="32" height="3.789" rx="1.895" class="C"/><rect x="128.662" y="22.581" width="38.35" height="40.573" rx="1.389" class="B"/><rect x="128.662" y="22.581" width="38.35" height="40.573" rx="1.389" class="D E"/><g class="C"><use xlink:href="#B"/><use xlink:href="#C"/></g><rect x="174" y="22" width="40" height="49" rx="2.223" class="B"/><rect x="178" y="66.988" width="32" height="3.789" rx="1.895" class="C"/><rect x="174.662" y="22.581" width="38.35" height="40.573" rx="1.389" class="B"/><rect x="174.662" y="22.581" width="38.35" height="40.573" rx="1.389" class="D E"/><g class="C"><use xlink:href="#B" x="46"/><use xlink:href="#C" x="46"/></g><rect x="36" y="77" width="40" height="49" rx="2.223" class="B"/><rect x="40" y="121.987" width="32" height="3.789" rx="1.895" class="C"/><rect x="36.662" y="77.581" width="38.35" height="40.573" rx="1.389" class="B"/><rect x="36.662" y="77.581" width="38.35" height="40.573" rx="1.389" class="D E"/><path d="M64.792 92.695l.034-1.1c-.013-5.35-3.15-8.461-8.1-8.791-4.314-.288-7.562 1.422-9.045 4.271-.498.958-.782 2.157-.889 3.459a8.79 8.79 0 0 0-.262 2.114h.017c-.013.017-.026.017-.034.021-.632.112-.919 1.457-.64 3.008.253 1.422.898 2.527 1.491 2.608.756 2.029 1.947 4.001 3.425 5.44.834.817 1.762 1.461 2.75 1.857a5.78 5.78 0 0 0 2.114.416 5.78 5.78 0 0 0 2.114-.416c1.023-.409 1.981-1.083 2.836-1.943 1.439-1.439 2.604-3.377 3.343-5.371.567-.168 1.165-1.233 1.409-2.591.258-1.483.009-2.767-.563-2.982zm-.958 3.18c-.133.752-.43 1.375-.739 1.642-.125.103-.254.155-.378.133-.069-.009-.133-.043-.189-.099-.683 2.127-1.985 4.249-3.631 5.534-.98.769-2.084 1.242-3.248 1.242-1.139 0-2.221-.451-3.184-1.19-1.676-1.281-3.004-3.429-3.695-5.586-.056.052-.12.086-.189.095-.142.026-.292-.043-.434-.189-.292-.292-.554-.877-.683-1.581-.009-.047-.013-.09-.021-.137.004-.494.026-.971.06-1.444.064-.18.142-.322.249-.4.043-.034.095-.052.146-.06.116-.022.241.026.361.12v-.03c.043-.4.58-3.914 3.958-3.601 0 0 2.965 1.091 5.663.129a13.62 13.62 0 0 1 .834 0c1.117.043 1.882.623 2.686.993-.03-.37-.314-.743-.301-.993a1.65 1.65 0 0 1 .357.15c.576.614 1.134 1.646 1.581 3.33v.022l.013-.013c.116-.09.236-.133.352-.112.03.004.056.013.086.026.365.176.524 1.04.348 2.019zm10.545 22.077H37.297c.082-1.62.322-3.158.799-4.769l.103-.344.142-.43c-.004.009-.008.018-.008.026.008-.017.013-.034.021-.051l.009-.022v-.004-.005c2.11-5.637 5.414-5.86 6.166-6.037 1.603-.373 3.541-.214 4.576-.537.12 1.014 3.077 4.357 5.01 6.45l.825-3.244c-.619-.374-.752-1.186-.752-1.865h3.18c0 .683-.133 1.504-.769 1.873l.838 3.236c1.938-2.093 4.89-5.436 5.01-6.45 1.035.323 2.978.164 4.576.537.752.177 4.052.396 6.162 6.016l.168.464v.004c.004.013.009.022.009.035l.099.344c.378 1.362.692 2.792.851 4.198a4.45 4.45 0 0 1 .069.575z" class="C"/><rect x="82" y="77" width="40" height="49" rx="2.223" class="B"/><rect x="86" y="121.987" width="32" height="3.789" rx="1.895" class="C"/><rect x="82.662" y="77.581" width="38.35" height="40.573" rx="1.389" class="B"/><rect x="82.662" y="77.581" width="38.35" height="40.573" rx="1.389" class="D E"/><path d="M110.792 92.695l.035-1.1c-.013-5.35-3.15-8.461-8.1-8.791-4.314-.288-7.563 1.422-9.045 4.271-.498.958-.782 2.157-.889 3.459a8.79 8.79 0 0 0-.262 2.114h.017c-.013.017-.026.017-.034.021-.632.112-.919 1.457-.64 3.008.254 1.422.898 2.527 1.491 2.608.756 2.029 1.947 4.001 3.425 5.44.834.817 1.762 1.461 2.75 1.857.678.266 1.388.416 2.115.416a5.78 5.78 0 0 0 2.114-.416c1.022-.409 1.981-1.083 2.836-1.943 1.439-1.439 2.604-3.377 3.343-5.371.567-.168 1.164-1.233 1.409-2.591.258-1.483.009-2.767-.563-2.982zm-.958 3.18c-.133.752-.43 1.375-.739 1.642-.125.103-.254.155-.378.133-.069-.009-.133-.043-.189-.099-.684 2.127-1.986 4.249-3.631 5.534-.98.769-2.084 1.242-3.249 1.242-1.138 0-2.221-.451-3.184-1.19-1.676-1.281-3.003-3.429-3.695-5.586-.056.052-.12.086-.189.095-.142.026-.292-.043-.434-.189-.292-.292-.554-.877-.683-1.581-.009-.047-.013-.09-.022-.137.004-.494.026-.971.06-1.444.064-.18.142-.322.249-.4.043-.034.094-.052.146-.06.116-.022.241.026.361.12v-.03c.043-.4.58-3.914 3.958-3.601 0 0 2.965 1.091 5.663.129a13.63 13.63 0 0 1 .834 0c1.117.043 1.882.623 2.686.993-.031-.37-.314-.743-.301-.993.129.034.245.09.356.15.576.614 1.135 1.646 1.582 3.33v.022l.013-.013c.116-.09.236-.133.352-.112.03.004.056.013.086.026.365.176.524 1.04.348 2.019zm10.545 22.077H83.297c.082-1.62.322-3.158.799-4.769l.103-.344.142-.43c-.004.009-.008.018-.008.026.008-.017.013-.034.021-.051l.009-.022v-.004-.005c2.11-5.637 5.414-5.86 6.166-6.037 1.603-.373 3.541-.214 4.576-.537.12 1.014 3.077 4.357 5.01 6.45l.825-3.244c-.619-.374-.752-1.186-.752-1.865h3.18c0 .683-.133 1.504-.769 1.873l.838 3.236c1.937-2.093 4.889-5.436 5.01-6.45 1.035.323 2.978.164 4.576.537.752.177 4.052.396 6.162 6.016l.167.464v.004c.005.013.009.022.009.035l.099.344c.378 1.362.692 2.792.851 4.198.038.193.055.386.068.575z" class="C"/><rect x="128" y="77" width="40" height="49" rx="2.223" class="B"/><rect x="132" y="121.987" width="32" height="3.789" rx="1.895" class="C"/><rect x="128.662" y="77.581" width="38.35" height="40.573" rx="1.389" class="B"/><rect x="128.662" y="77.581" width="38.35" height="40.573" rx="1.389" class="D E"/><g class="C"><use xlink:href="#D"/><use xlink:href="#E"/></g><rect x="174" y="77" width="40" height="49" rx="2.223" class="B"/><rect x="178" y="121.987" width="32" height="3.789" rx="1.895" class="C"/><rect x="174.662" y="77.581" width="38.35" height="40.573" rx="1.389" class="B"/><rect x="174.662" y="77.581" width="38.35" height="40.573" rx="1.389" class="D E"/><g class="C"><use xlink:href="#D" x="46"/><use xlink:href="#E" x="46"/></g><rect x="100.5" y="132.5" width="50" height="18" rx="1.5" class="B D"/><text xml:space="preserve" style="white-space:pre" font-size="6" font-weight="800" letter-spacing="0em" class="C F"><tspan x="111" y="143.766">Contact Us</tspan></text><path d="M106.5 148.5h-4v-14h4zm36.5 0h-35v-4h35zm0-10h-35v-4h35zm5.5 10h-4v-14h4z" fill="#ffd9f1" stroke="#f21197"/><path d="M191.5 172a4 4 0 1 0 8 0 4 4 0 1 0-8 0zm22.5 0v.75a.75.75 0 0 0 .75-.75H214zm0-29h.75a.75.75 0 0 0-.75-.75v.75zm-63 0l7.5 4.33v-8.66L151 143zm44.5 29.75H214v-1.5h-18.5v1.5zm19.25-.75v-29h-1.5v29h1.5zm-.75-29.75h-56.25v1.5H214v-1.5z" fill="#f21197"/><defs ><path id="B" d="M156.792 37.695l.035-1.1c-.013-5.35-3.15-8.461-8.1-8.791-4.314-.288-7.563 1.422-9.045 4.271-.499.958-.782 2.157-.89 3.459a8.82 8.82 0 0 0-.262 2.114h.017c-.012.017-.025.017-.034.021-.632.112-.919 1.457-.64 3.008.253 1.422.898 2.527 1.491 2.608.756 2.028 1.946 4 3.425 5.44.833.816 1.761 1.461 2.75 1.856.678.267 1.387.417 2.114.417a5.77 5.77 0 0 0 2.114-.417c1.022-.408 1.981-1.083 2.836-1.942 1.439-1.439 2.604-3.377 3.343-5.371.567-.168 1.164-1.233 1.409-2.591.258-1.483.009-2.767-.563-2.982zm-.958 3.18c-.133.752-.43 1.375-.739 1.642-.125.103-.254.155-.378.133-.069-.009-.133-.043-.189-.099-.684 2.127-1.986 4.25-3.631 5.534-.98.769-2.084 1.242-3.249 1.242-1.138 0-2.221-.451-3.184-1.19-1.675-1.281-3.003-3.429-3.695-5.586-.056.052-.12.086-.189.095-.142.026-.292-.043-.434-.189-.292-.292-.554-.877-.683-1.581-.009-.047-.013-.09-.022-.138.005-.494.026-.971.06-1.444.065-.18.142-.322.25-.4a.31.31 0 0 1 .146-.06c.116-.021.24.026.361.12v-.03c.043-.4.58-3.914 3.957-3.601 0 0 2.965 1.092 5.663.129a13.63 13.63 0 0 1 .834 0c1.117.043 1.882.623 2.686.993-.031-.369-.314-.743-.301-.993.129.034.245.09.356.15.576.614 1.135 1.646 1.582 3.33v.021l.013-.013c.116-.09.236-.133.352-.112.03.004.056.013.086.026.365.176.524 1.04.348 2.02z"/><path id="C" d="M166.379 62.952h-37.082c.082-1.62.322-3.158.799-4.77l.103-.344.142-.43c-.004.009-.008.017-.008.026.008-.017.012-.034.021-.051l.009-.022v-.004-.004c2.109-5.637 5.414-5.861 6.166-6.037 1.602-.374 3.54-.215 4.576-.537.12 1.014 3.076 4.357 5.01 6.45l.825-3.244c-.619-.374-.752-1.186-.752-1.865h3.18c0 .683-.133 1.504-.769 1.873l.838 3.236c1.937-2.093 4.889-5.436 5.01-6.45 1.035.322 2.978.163 4.576.537.752.176 4.052.395 6.162 6.016l.167.464v.004c.005.013.009.021.009.034l.099.344c.378 1.362.692 2.793.851 4.198a4.61 4.61 0 0 1 .068.576z"/><path id="D" d="M156.792 92.695l.035-1.1c-.013-5.35-3.15-8.461-8.1-8.791-4.314-.288-7.563 1.422-9.045 4.271-.499.958-.782 2.157-.89 3.459a8.82 8.82 0 0 0-.262 2.114h.017c-.012.017-.025.017-.034.021-.632.112-.919 1.457-.64 3.008.253 1.422.898 2.527 1.491 2.608.756 2.029 1.946 4.001 3.425 5.44.833.817 1.761 1.461 2.75 1.857.678.266 1.387.416 2.114.416a5.78 5.78 0 0 0 2.114-.416c1.022-.409 1.981-1.083 2.836-1.943 1.439-1.439 2.604-3.377 3.343-5.371.567-.168 1.164-1.233 1.409-2.591.258-1.483.009-2.767-.563-2.982zm-.958 3.18c-.133.752-.43 1.375-.739 1.642-.125.103-.254.155-.378.133-.069-.009-.133-.043-.189-.099-.684 2.127-1.986 4.249-3.631 5.534-.98.769-2.084 1.242-3.249 1.242-1.138 0-2.221-.451-3.184-1.19-1.675-1.281-3.003-3.429-3.695-5.586-.056.052-.12.086-.189.095-.142.026-.292-.043-.434-.189-.292-.292-.554-.877-.683-1.581-.009-.047-.013-.09-.022-.137.005-.494.026-.971.06-1.444.065-.18.142-.322.25-.4a.31.31 0 0 1 .146-.06c.116-.022.24.026.361.12v-.03c.043-.4.58-3.914 3.957-3.601 0 0 2.965 1.091 5.663.129a13.63 13.63 0 0 1 .834 0c1.117.043 1.882.623 2.686.993-.031-.37-.314-.743-.301-.993.129.034.245.09.356.15.576.614 1.135 1.646 1.582 3.33v.022l.013-.013c.116-.09.236-.133.352-.112.03.004.056.013.086.026.365.176.524 1.04.348 2.019z"/><path id="E" d="M166.379 117.952h-37.082c.082-1.62.322-3.158.799-4.769l.103-.344.142-.43c-.004.009-.008.018-.008.026.008-.017.012-.034.021-.051l.009-.022v-.004-.005c2.109-5.637 5.414-5.86 6.166-6.037 1.602-.373 3.54-.214 4.576-.537.12 1.014 3.076 4.357 5.01 6.45l.825-3.244c-.619-.374-.752-1.186-.752-1.865h3.18c0 .683-.133 1.504-.769 1.873l.838 3.236c1.937-2.093 4.889-5.436 5.01-6.45 1.035.323 2.978.164 4.576.537.752.177 4.052.396 6.162 6.016l.167.464v.004c.005.013.009.022.009.035l.099.344c.378 1.362.692 2.792.851 4.198.038.193.055.386.068.575z"/></defs></svg>