<svg xmlns="http://www.w3.org/2000/svg" width="250" height="161" fill="none" ><style><![CDATA[.B{fill:#fff}.C{fill:#58707f}.D{stroke:#718491}.E{stroke-width:.815}.F{stroke:#58707f}.G{stroke-width:1.671}]]></style><path d="M0 0h250v161H0z" class="B"/><rect x="95" y="130.5" width="11" height="11" rx="5.5" fill="#ffd9f1" stroke="#f21197"/><text fill="#546069" xml:space="preserve" style="white-space:pre" font-family="Roboto" font-size="12" font-weight="600" letter-spacing="0em"><tspan x="110.5" y="140.031">Padding</tspan></text><rect x="19.5" y="20.5" width="211" height="97" rx="3.5" class="B"/><rect x="19.5" y="20.5" width="211" height="97" rx="3.5" stroke="#bbc2c7"/><rect x="29.117" y="31.407" width="59.336" height="75.185" rx="3.082" class="B D E"/><g class="C"><rect x="40.962" y="88.372" width="36.455" height="3.797" rx="1.899"/><rect x="50.076" y="95.207" width="18.227" height="3.038" rx="1.519"/></g><rect x="39.57" y="41.765" width="38.429" height="40.657" rx="1.392" class="B"/><rect x="39.57" y="41.765" width="38.429" height="40.657" rx="1.392" class="F G"/><path d="M67.759 56.911l.035-1.102c-.013-5.361-3.156-8.478-8.117-8.81-4.323-.289-7.578 1.425-9.064 4.28-.499.96-.784 2.161-.891 3.466a8.8 8.8 0 0 0-.263 2.118h.017c-.013.017-.026.017-.035.022-.633.112-.921 1.46-.642 3.014.254 1.425.9 2.532 1.494 2.614.758 2.032 1.951 4.009 3.432 5.451.835.818 1.765 1.464 2.756 1.86.68.267 1.391.418 2.119.418s1.438-.151 2.118-.418c1.025-.409 1.985-1.085 2.842-1.946 1.442-1.442 2.609-3.384 3.35-5.382.568-.168 1.167-1.236 1.412-2.596.258-1.486.009-2.773-.564-2.988zm-.96 3.186c-.133.754-.43 1.378-.741 1.645-.125.103-.254.155-.379.133-.069-.009-.133-.043-.189-.099-.685 2.131-1.989 4.259-3.639 5.546-.982.771-2.088 1.244-3.255 1.244-1.141 0-2.226-.452-3.191-1.193-1.679-1.283-3.01-3.436-3.703-5.598-.056.052-.121.086-.189.095-.142.026-.293-.043-.435-.189-.293-.293-.555-.878-.685-1.585-.009-.047-.013-.09-.022-.138a22.5 22.5 0 0 1 .06-1.447c.065-.181.142-.323.25-.4.043-.035.095-.052.146-.06.116-.022.241.026.362.12v-.03c.043-.4.581-3.923 3.966-3.608 0 0 2.971 1.094 5.675.129a13.52 13.52 0 0 1 .835 0c1.12.043 1.886.624 2.691.995-.03-.37-.314-.745-.301-.995.129.034.245.09.357.151.577.616 1.137 1.649 1.585 3.337v.022l.013-.013c.116-.09.237-.133.353-.112a.33.33 0 0 1 .086.026c.366.177.525 1.042.349 2.024zm10.567 22.124h-37.16c.082-1.623.323-3.165.801-4.779l.103-.344.142-.431c-.004.009-.009.017-.009.026.009-.017.013-.034.022-.052l.009-.021v-.004-.004c2.114-5.649 5.425-5.873 6.179-6.05 1.606-.375 3.548-.215 4.586-.538.12 1.016 3.083 4.366 5.021 6.463l.827-3.251c-.62-.375-.754-1.188-.754-1.869h3.186c0 .685-.133 1.507-.771 1.877l.84 3.242c1.942-2.097 4.9-5.447 5.021-6.463 1.038.323 2.984.164 4.586.538.754.177 4.06.396 6.175 6.028l.168.465v.004c.004.013.009.022.009.034l.099.344c.379 1.365.693 2.799.853 4.207.039.194.056.388.069.577z" class="C"/><rect x="95.332" y="31.407" width="59.336" height="75.185" rx="3.082" class="B D E"/><g class="C"><rect x="107.178" y="88.372" width="36.455" height="3.797" rx="1.899"/><rect x="116.292" y="95.207" width="18.227" height="3.038" rx="1.519"/></g><rect x="105.785" y="41.765" width="38.429" height="40.657" rx="1.392" class="B"/><rect x="105.785" y="41.765" width="38.429" height="40.657" rx="1.392" class="F G"/><path d="M133.974 56.911l.034-1.102c-.013-5.361-3.156-8.478-8.116-8.81-4.323-.289-7.579 1.425-9.064 4.28-.5.96-.784 2.161-.891 3.466a8.8 8.8 0 0 0-.263 2.118h.017c-.013.017-.026.017-.034.022-.633.112-.922 1.46-.642 3.014.254 1.425.9 2.532 1.494 2.614.758 2.032 1.951 4.009 3.432 5.451.835.818 1.765 1.464 2.756 1.86.68.267 1.391.418 2.118.418s1.438-.151 2.119-.418c1.025-.409 1.985-1.085 2.842-1.946 1.442-1.442 2.609-3.384 3.35-5.382.568-.168 1.167-1.236 1.412-2.596.258-1.486.009-2.773-.564-2.988zm-.96 3.186c-.134.754-.431 1.378-.741 1.645-.125.103-.254.155-.379.133-.069-.009-.133-.043-.189-.099-.685 2.131-1.99 4.259-3.639 5.546-.981.771-2.088 1.244-3.255 1.244-1.141 0-2.226-.452-3.191-1.193-1.679-1.283-3.009-3.436-3.703-5.598-.056.052-.12.086-.189.095-.142.026-.293-.043-.435-.189-.293-.293-.555-.878-.685-1.585-.008-.047-.013-.09-.021-.138a22.65 22.65 0 0 1 .06-1.447c.065-.181.142-.323.25-.4.043-.035.095-.052.146-.06.116-.022.241.026.362.12v-.03c.043-.4.581-3.923 3.966-3.608 0 0 2.971 1.094 5.675.129.293-.009.572-.009.835 0 1.12.043 1.886.624 2.691.995-.03-.37-.314-.745-.301-.995.129.034.245.09.357.151.577.616 1.137 1.649 1.585 3.337v.022l.013-.013c.116-.09.237-.133.353-.112.03.004.056.013.086.026.366.177.525 1.042.349 2.024zm10.567 22.124h-37.16c.082-1.623.323-3.165.801-4.779l.104-.344.142-.431c-.005.009-.009.017-.009.026.009-.017.013-.034.022-.052l.008-.021v-.004-.004c2.114-5.649 5.426-5.873 6.179-6.05 1.606-.375 3.548-.215 4.586-.538.12 1.016 3.083 4.366 5.021 6.463l.826-3.251c-.62-.375-.753-1.188-.753-1.869h3.186c0 .685-.133 1.507-.771 1.877l.84 3.242c1.942-2.097 4.9-5.447 5.021-6.463 1.037.323 2.984.164 4.585.538.754.177 4.061.396 6.175 6.028l.168.465v.004c.004.013.008.022.008.034l.099.344c.379 1.365.694 2.799.853 4.207a4.45 4.45 0 0 1 .069.577z" class="C"/><rect x="161.548" y="31.407" width="59.336" height="75.185" rx="3.082" class="B D E"/><g class="C"><rect x="172.947" y="87.683" width="36.455" height="3.797" rx="1.899"/><rect x="182.061" y="94.519" width="18.227" height="3.038" rx="1.519"/></g><rect x="171.045" y="41.135" width="39.429" height="41.713" rx="1.392" class="B"/><rect x="171.045" y="41.135" width="39.429" height="41.713" rx="1.392" class="F G"/><path d="M199.957 56.679l.035-1.13c-.013-5.494-3.235-8.69-8.319-9.029-4.43-.296-7.767 1.461-9.289 4.387-.512.984-.804 2.216-.914 3.553-.172.697-.269 1.421-.269 2.171h.018c-.014.018-.027.018-.036.022-.649.115-.944 1.496-.657 3.089.26 1.461.922 2.595 1.531 2.679.777 2.083 1.999 4.109 3.517 5.587.857.839 1.81 1.501 2.825 1.907.697.274 1.425.428 2.171.428s1.474-.154 2.171-.428c1.051-.419 2.035-1.112 2.913-1.995 1.479-1.478 2.675-3.469 3.434-5.517.582-.172 1.196-1.267 1.447-2.661.265-1.523.009-2.842-.578-3.063zm-.984 3.266c-.137.772-.441 1.412-.759 1.686-.128.106-.261.159-.389.137a.34.34 0 0 1-.194-.101c-.701 2.185-2.039 4.365-3.729 5.684-1.006.79-2.14 1.275-3.336 1.275-1.17 0-2.282-.463-3.27-1.222-1.722-1.315-3.085-3.522-3.796-5.737a.35.35 0 0 1-.194.097c-.146.026-.3-.044-.446-.194-.3-.3-.569-.9-.701-1.624-.009-.049-.014-.093-.023-.141a23.77 23.77 0 0 1 .062-1.483c.066-.185.146-.331.256-.41a.32.32 0 0 1 .15-.062c.119-.022.247.027.371.124v-.031c.044-.41.596-4.02 4.065-3.698 0 0 3.045 1.121 5.816.132a13.87 13.87 0 0 1 .856 0c1.148.044 1.933.64 2.759 1.02-.031-.38-.323-.764-.309-1.02a1.7 1.7 0 0 1 .366.154c.591.631 1.165 1.69 1.624 3.42v.022l.013-.013c.119-.093.243-.137.362-.115a.32.32 0 0 1 .088.026c.376.181.539 1.068.358 2.074zm10.831 22.675h-38.086c.083-1.664.331-3.244.82-4.899l.106-.353.146-.441c-.004.009-.009.018-.009.026.009-.018.013-.035.022-.053l.009-.022v-.004-.004c2.167-5.79 5.561-6.02 6.333-6.2 1.646-.384 3.636-.221 4.7-.552.124 1.041 3.16 4.475 5.146 6.624l.847-3.332c-.635-.384-.772-1.218-.772-1.915h3.266c0 .702-.137 1.545-.79 1.924l.86 3.323c1.991-2.149 5.022-5.583 5.146-6.624 1.064.331 3.058.168 4.7.552.772.181 4.162.406 6.329 6.178l.172.477v.004c.004.013.009.022.009.035l.101.353c.388 1.399.711 2.869.874 4.312.04.199.057.397.071.591z" class="C"/><path d="M211.5 38.5h-41v-5h41zm0 66h-41v-5h41zm-43 0h-5v-71h5zm50 0h-5v-71h5z" fill="#ffd9f1" stroke="#f21197"/><path d="M161 138a4 4 0 1 0 8 0 4 4 0 1 0-8 0zm72 0v.75a.75.75 0 0 0 .75-.739L233 138zm1-71l.75.011a.75.75 0 0 0-.75-.761V67zm-14.5 0l7.5 4.33v-8.66L219.5 67zM165 138.75h68v-1.5h-68v1.5zm68.75-.739l1-71-1.5-.021-1 71 1.5.022zM234 66.25h-7.75v1.5H234v-1.5z" fill="#f21197"/></svg>