<svg xmlns="http://www.w3.org/2000/svg" width="250" height="180" fill="none" ><style><![CDATA[.B{fill:#fff}.C{fill:#718491}.D{stroke:#718491}.E{stroke-width:.75}.F{stroke-width:.607}]]></style><path d="M0 0h250v180H0z" class="B"/><rect x="48.5" y="152.5" width="11" height="11" rx="5.5" fill="#ffd9f1" stroke="#f21197"/><text fill="#546069" xml:space="preserve" style="white-space:pre" font-family="Roboto" font-size="12" font-weight="600" letter-spacing="0em"><tspan x="64" y="162.031">Equalize Members Height</tspan></text><rect x="61.454" y="82.209" width="128.093" height="58.886" rx="2.125" class="B"/><rect x="61.454" y="82.209" width="128.093" height="58.886" rx="2.125" stroke="#bbc2c7" class="F"/><rect x="64.5" y="85.5" width="122" height="53" rx=".5" stroke="#f21197"/><rect x="71.793" y="88.151" width="32.85" height="47.25" rx="1.492" class="B"/><rect x="71.793" y="88.151" width="32.85" height="47.25" rx="1.492" class="D E"/><g class="C"><rect x="76.421" y="125.776" width="24" height="2.5" rx="1.25"/><rect x="81.421" y="130.276" width="14" height="2" rx="1"/></g><mask id="A" class="B"><path d="M71.418 89.643a1.87 1.87 0 0 1 1.868-1.867h29.879a1.87 1.87 0 0 1 1.867 1.867v33.614H71.418V89.643z"/></mask><g class="C"><path d="M71.418 89.643a1.87 1.87 0 0 1 1.868-1.867h29.879a1.87 1.87 0 0 1 1.867 1.867v33.614H71.418V89.643z"/><path d="M70.018 89.643a3.27 3.27 0 0 1 3.268-3.268h29.879a3.27 3.27 0 0 1 3.268 3.268h-2.801c0-.258-.209-.467-.467-.467H73.286c-.258 0-.467.209-.467.467h-2.801zm35.014 33.614H71.418h33.614zm-35.014 0V89.643a3.27 3.27 0 0 1 3.268-3.268v2.801c-.258 0-.467.209-.467.467v33.614h-2.801zm33.147-36.882a3.27 3.27 0 0 1 3.268 3.268v33.614h-2.801V89.643c0-.258-.209-.467-.467-.467v-2.801z" mask="url(#A)"/></g><g class="B"><path d="M95.748 100.172l.029-.924c-.011-4.494-2.646-7.107-6.804-7.385-3.624-.242-6.353 1.195-7.598 3.588-.419.805-.657 1.812-.747 2.906a7.39 7.39 0 0 0-.22 1.776h.014c-.011.015-.022.015-.029.018-.531.094-.772 1.224-.538 2.527.213 1.195.754 2.122 1.252 2.191.635 1.703 1.635 3.36 2.877 4.569.7.686 1.48 1.227 2.31 1.559.57.224 1.166.351 1.776.351s1.205-.127 1.776-.351c.859-.342 1.664-.909 2.382-1.631 1.209-1.209 2.187-2.837 2.808-4.512.477-.14.978-1.036 1.184-2.176.217-1.245.007-2.325-.473-2.505zm-.805 2.671c-.112.631-.361 1.155-.621 1.379-.105.086-.213.13-.318.112a.28.28 0 0 1-.159-.084c-.574 1.787-1.668 3.57-3.05 4.649-.823.646-1.751 1.044-2.729 1.044-.957 0-1.866-.379-2.675-1-1.408-1.076-2.523-2.881-3.104-4.693-.047.044-.101.073-.159.08-.119.022-.245-.036-.365-.159-.245-.245-.466-.736-.574-1.328-.007-.04-.011-.076-.018-.116a18.85 18.85 0 0 1 .05-1.212c.054-.152.119-.271.209-.336a.27.27 0 0 1 .123-.051c.097-.018.202.022.303.101v-.025c.036-.336.487-3.288 3.324-3.024 0 0 2.49.917 4.757.108a11.66 11.66 0 0 1 .7 0c.938.036 1.581.523 2.256.834-.025-.31-.263-.624-.253-.834a1.38 1.38 0 0 1 .3.126c.484.516.953 1.382 1.328 2.797l.011.008c.097-.076.198-.112.296-.094a.28.28 0 0 1 .072.021c.307.148.44.874.292 1.697zm8.858 18.545H72.652c.069-1.361.271-2.653.671-4.006l.087-.289.119-.361c-.004.007-.007.014-.007.021.007-.014.011-.028.018-.043l.007-.018v-.003-.004c1.772-4.736 4.548-4.923 5.18-5.071 1.346-.314 2.974-.181 3.844-.451.101.851 2.584 3.659 4.209 5.417l.693-2.725c-.52-.314-.632-.996-.632-1.566h2.671c0 .574-.112 1.263-.646 1.573l.704 2.718c1.628-1.758 4.108-4.566 4.209-5.417.87.27 2.501.137 3.844.451.632.148 3.404.332 5.176 5.053l.141.39v.003c.004.011.007.018.007.029l.083.289c.318 1.144.581 2.346.715 3.526a3.89 3.89 0 0 1 .058.484z"/><rect x="109.075" y="88.151" width="32.85" height="47.25" rx="1.492"/></g><rect x="109.075" y="88.151" width="32.85" height="47.25" rx="1.492" class="D E"/><rect x="113.703" y="125.776" width="24" height="2.5" rx="1.25" class="C"/><mask id="B" class="B"><path d="M108.7 89.643a1.87 1.87 0 0 1 1.868-1.867h29.879a1.87 1.87 0 0 1 1.867 1.867v33.614H108.7V89.643z"/></mask><g class="C"><path d="M108.7 89.643a1.87 1.87 0 0 1 1.868-1.867h29.879a1.87 1.87 0 0 1 1.867 1.867v33.614H108.7V89.643z"/><path d="M107.299 89.643a3.27 3.27 0 0 1 3.269-3.268h29.879a3.27 3.27 0 0 1 3.268 3.268h-2.801c0-.258-.209-.467-.467-.467h-29.879c-.258 0-.467.209-.467.467h-2.802zm35.015 33.614H108.7h33.614zm-35.015 0V89.643a3.27 3.27 0 0 1 3.269-3.268v2.801c-.258 0-.467.209-.467.467v33.614h-2.802zm33.148-36.882a3.27 3.27 0 0 1 3.268 3.268v33.614h-2.801V89.643c0-.258-.209-.467-.467-.467v-2.801z" mask="url(#B)"/></g><g class="B"><path d="M133.029 100.172l.029-.924c-.01-4.494-2.645-7.107-6.803-7.385-3.624-.242-6.353 1.195-7.598 3.588-.419.805-.657 1.812-.747 2.906a7.37 7.37 0 0 0-.22 1.776h.014c-.011.015-.022.015-.029.018-.531.094-.772 1.224-.538 2.527.213 1.195.755 2.122 1.253 2.191.635 1.703 1.635 3.36 2.876 4.569.701.686 1.48 1.227 2.31 1.559.571.224 1.166.351 1.776.351s1.206-.127 1.776-.351c.859-.342 1.664-.909 2.382-1.631 1.209-1.209 2.188-2.837 2.808-4.512.477-.14.979-1.036 1.184-2.176.217-1.245.008-2.325-.473-2.505zm-.804 2.671c-.112.631-.361 1.155-.621 1.379-.105.086-.213.13-.318.112a.28.28 0 0 1-.159-.084c-.574 1.787-1.667 3.57-3.05 4.649-.823.646-1.75 1.044-2.728 1.044-.957 0-1.866-.379-2.675-1-1.408-1.076-2.523-2.881-3.104-4.693-.047.044-.101.073-.159.08-.119.022-.245-.036-.364-.159-.246-.245-.466-.736-.574-1.328-.007-.04-.011-.076-.018-.116a18.36 18.36 0 0 1 .05-1.212c.054-.152.119-.271.21-.336.036-.029.079-.043.122-.051.098-.018.202.022.303.101v-.025c.037-.336.488-3.288 3.325-3.024 0 0 2.49.917 4.757.108a11.66 11.66 0 0 1 .7 0c.939.036 1.581.523 2.256.834-.025-.31-.263-.624-.253-.834.109.029.206.076.3.126.484.516.953 1.382 1.328 2.797l.011.008c.097-.076.199-.112.296-.094a.28.28 0 0 1 .072.021c.307.148.441.874.293 1.697zm8.858 18.545h-31.15a16.79 16.79 0 0 1 .672-4.006l.086-.289.12-.361c-.004.007-.008.014-.008.021.008-.014.011-.028.018-.043l.008-.018v-.003-.004c1.772-4.736 4.547-4.923 5.179-5.071 1.346-.314 2.974-.181 3.844-.451.101.851 2.584 3.659 4.209 5.417l.693-2.725c-.52-.314-.632-.996-.632-1.566h2.671c0 .574-.112 1.263-.646 1.573l.704 2.718c1.628-1.758 4.107-4.566 4.208-5.417.87.27 2.502.137 3.844.451.632.148 3.404.332 5.176 5.053l.141.39v.003c.004.011.007.018.007.029l.083.289c.318 1.144.581 2.346.715 3.526a3.89 3.89 0 0 1 .058.484z"/><rect x="146.357" y="88.151" width="32.85" height="47.25" rx="1.492"/></g><rect x="146.357" y="88.151" width="32.85" height="47.25" rx="1.492" class="D E"/><g class="C"><rect x="150.985" y="125.776" width="24" height="2.5" rx="1.25"/><rect x="155.985" y="130.276" width="14" height="2" rx="1"/></g><mask id="C" class="B"><path d="M145.982 89.643a1.87 1.87 0 0 1 1.867-1.867h29.88a1.87 1.87 0 0 1 1.867 1.867v33.614h-33.614V89.643z"/></mask><g class="C"><path d="M145.982 89.643a1.87 1.87 0 0 1 1.867-1.867h29.88a1.87 1.87 0 0 1 1.867 1.867v33.614h-33.614V89.643z"/><path d="M144.581 89.643a3.27 3.27 0 0 1 3.268-3.268h29.88a3.27 3.27 0 0 1 3.268 3.268h-2.802c0-.258-.209-.467-.466-.467h-29.88c-.257 0-.466.209-.466.467h-2.802zm35.015 33.614h-33.614 33.614zm-35.015 0V89.643a3.27 3.27 0 0 1 3.268-3.268v2.801c-.257 0-.466.209-.466.467v33.614h-2.802zm33.148-36.882a3.27 3.27 0 0 1 3.268 3.268v33.614h-2.802V89.643c0-.258-.209-.467-.466-.467v-2.801z" mask="url(#C)"/></g><g class="B"><path d="M170.311 100.172l.029-.924c-.011-4.494-2.645-7.107-6.804-7.385-3.623-.242-6.352 1.195-7.597 3.588-.419.805-.657 1.812-.747 2.906a7.37 7.37 0 0 0-.221 1.776h.015c-.011.015-.022.015-.029.018-.531.094-.772 1.224-.538 2.527.213 1.195.755 2.122 1.253 2.191.635 1.703 1.635 3.36 2.876 4.569.701.686 1.48 1.227 2.31 1.559.571.224 1.166.351 1.776.351s1.206-.127 1.776-.351c.859-.342 1.664-.909 2.382-1.631 1.209-1.209 2.187-2.837 2.808-4.512.477-.14.978-1.036 1.184-2.176.217-1.245.007-2.325-.473-2.505zm-.805 2.671c-.111.631-.361 1.155-.62 1.379-.105.086-.213.13-.318.112a.28.28 0 0 1-.159-.084c-.574 1.787-1.667 3.57-3.05 4.649-.823.646-1.75 1.044-2.728 1.044-.957 0-1.867-.379-2.675-1-1.408-1.076-2.523-2.881-3.104-4.693-.047.044-.101.073-.159.08-.119.022-.245-.036-.364-.159-.246-.245-.466-.736-.574-1.328-.008-.04-.011-.076-.018-.116a18.36 18.36 0 0 1 .05-1.212c.054-.152.119-.271.209-.336.037-.029.08-.043.123-.051.098-.018.202.022.303.101v-.025c.036-.336.488-3.288 3.325-3.024 0 0 2.49.917 4.757.108a11.66 11.66 0 0 1 .7 0c.938.036 1.581.523 2.256.834-.025-.31-.264-.624-.253-.834.109.029.206.076.3.126.483.516.953 1.382 1.328 2.797l.011.008c.097-.076.198-.112.296-.094a.28.28 0 0 1 .072.021c.307.148.44.874.292 1.697zm8.858 18.545h-31.149a16.79 16.79 0 0 1 .672-4.006l.086-.289.119-.361c-.003.007-.007.014-.007.021.007-.014.011-.028.018-.043l.007-.018v-.003-.004c1.773-4.736 4.548-4.923 5.18-5.071 1.346-.314 2.974-.181 3.844-.451.101.851 2.584 3.659 4.209 5.417l.693-2.725c-.52-.314-.632-.996-.632-1.566h2.671c0 .574-.112 1.263-.646 1.573l.704 2.718c1.627-1.758 4.107-4.566 4.208-5.417.87.27 2.501.137 3.844.451.632.148 3.404.332 5.176 5.053l.141.39v.003c.003.011.007.018.007.029l.083.289c.318 1.144.581 2.346.715 3.526.032.163.047.325.057.484z"/><rect x="61.454" y="16.009" width="128.093" height="58.886" rx="2.125"/></g><rect x="61.454" y="16.009" width="128.093" height="58.886" rx="2.125" stroke="#bbc2c7" class="F"/><rect x="71.793" y="22.151" width="32.85" height="47.25" rx="1.492" class="B"/><rect x="71.793" y="22.151" width="32.85" height="47.25" rx="1.492" class="D E"/><g class="C"><rect x="76.421" y="59.776" width="24" height="2.5" rx="1.25"/><rect x="81.421" y="64.276" width="14" height="2" rx="1"/></g><mask id="D" class="B"><path d="M71.418 23.643a1.87 1.87 0 0 1 1.868-1.867h29.879a1.87 1.87 0 0 1 1.867 1.867v33.614H71.418V23.643z"/></mask><g class="C"><path d="M71.418 23.643a1.87 1.87 0 0 1 1.868-1.867h29.879a1.87 1.87 0 0 1 1.867 1.867v33.614H71.418V23.643z"/><path d="M70.018 23.643a3.27 3.27 0 0 1 3.268-3.268h29.879a3.27 3.27 0 0 1 3.268 3.268h-2.801c0-.258-.209-.467-.467-.467H73.286c-.258 0-.467.209-.467.467h-2.801zm35.014 33.614H71.418h33.614zm-35.014 0V23.643a3.27 3.27 0 0 1 3.268-3.268v2.801c-.258 0-.467.209-.467.467v33.614h-2.801zm33.147-36.882a3.27 3.27 0 0 1 3.268 3.268v33.614h-2.801V23.643c0-.258-.209-.467-.467-.467v-2.801z" mask="url(#D)"/></g><g class="B"><path d="M95.748 34.172l.029-.924c-.011-4.494-2.646-7.107-6.804-7.385-3.624-.242-6.353 1.195-7.598 3.588-.419.805-.657 1.812-.747 2.906a7.39 7.39 0 0 0-.22 1.776h.014c-.011.014-.022.014-.029.018-.531.094-.772 1.224-.538 2.527.213 1.195.754 2.122 1.252 2.191.635 1.704 1.635 3.36 2.877 4.569.7.686 1.48 1.227 2.31 1.559.57.224 1.166.35 1.776.35s1.205-.126 1.776-.35c.859-.343 1.664-.91 2.382-1.631 1.209-1.209 2.187-2.837 2.808-4.512.477-.141.978-1.036 1.184-2.176.217-1.245.007-2.324-.473-2.505zm-.805 2.671c-.112.632-.361 1.155-.621 1.379-.105.087-.213.13-.318.112-.058-.007-.112-.036-.159-.083-.574 1.787-1.668 3.57-3.05 4.649-.823.646-1.751 1.043-2.729 1.043-.957 0-1.866-.379-2.675-1-1.408-1.076-2.523-2.88-3.104-4.692a.29.29 0 0 1-.159.079c-.119.022-.245-.036-.365-.159-.245-.245-.466-.736-.574-1.328-.007-.04-.011-.076-.018-.115a18.87 18.87 0 0 1 .05-1.213c.054-.152.119-.271.209-.336.036-.029.079-.043.123-.05.097-.018.202.022.303.101v-.025c.036-.336.487-3.288 3.324-3.025 0 0 2.49.917 4.757.108a11.66 11.66 0 0 1 .7 0c.938.036 1.581.523 2.256.834-.025-.31-.263-.624-.253-.834a1.38 1.38 0 0 1 .3.126c.484.516.953 1.382 1.328 2.797l.011.007c.097-.076.198-.112.296-.094.025.004.047.011.072.022.307.148.44.874.292 1.696zm8.858 18.545H72.652c.069-1.361.271-2.653.671-4.006l.087-.289.119-.361c-.004.007-.007.014-.007.022.007-.014.011-.029.018-.043l.007-.018v-.004-.004c1.772-4.736 4.548-4.923 5.18-5.071 1.346-.314 2.974-.181 3.844-.451.101.852 2.584 3.66 4.209 5.418l.693-2.725c-.52-.314-.632-.996-.632-1.566h2.671c0 .574-.112 1.263-.646 1.574l.704 2.718c1.628-1.758 4.108-4.566 4.209-5.418.87.271 2.501.137 3.844.451.632.148 3.404.332 5.176 5.053l.141.39v.004c.004.011.007.018.007.029l.083.289c.318 1.144.581 2.346.715 3.526a3.87 3.87 0 0 1 .058.484z"/><rect x="109.075" y="22.151" width="32.85" height="43.25" rx="1.492"/></g><rect x="109.075" y="22.151" width="32.85" height="43.25" rx="1.492" class="D E"/><rect x="113.703" y="59.776" width="24" height="2.5" rx="1.25" class="C"/><mask id="E" class="B"><path d="M108.7 23.643a1.87 1.87 0 0 1 1.868-1.867h29.879a1.87 1.87 0 0 1 1.867 1.867v33.614H108.7V23.643z"/></mask><g class="C"><path d="M108.7 23.643a1.87 1.87 0 0 1 1.868-1.867h29.879a1.87 1.87 0 0 1 1.867 1.867v33.614H108.7V23.643z"/><path d="M107.299 23.643a3.27 3.27 0 0 1 3.269-3.268h29.879a3.27 3.27 0 0 1 3.268 3.268h-2.801c0-.258-.209-.467-.467-.467h-29.879c-.258 0-.467.209-.467.467h-2.802zm35.015 33.614H108.7h33.614zm-35.015 0V23.643a3.27 3.27 0 0 1 3.269-3.268v2.801c-.258 0-.467.209-.467.467v33.614h-2.802zm33.148-36.882a3.27 3.27 0 0 1 3.268 3.268v33.614h-2.801V23.643c0-.258-.209-.467-.467-.467v-2.801z" mask="url(#E)"/></g><g class="B"><path d="M133.029 34.172l.029-.924c-.01-4.494-2.645-7.107-6.803-7.385-3.624-.242-6.353 1.195-7.598 3.588-.419.805-.657 1.812-.747 2.906a7.37 7.37 0 0 0-.22 1.776h.014c-.011.014-.022.014-.029.018-.531.094-.772 1.224-.538 2.527.213 1.195.755 2.122 1.253 2.191.635 1.704 1.635 3.36 2.876 4.569.701.686 1.48 1.227 2.31 1.559.571.224 1.166.35 1.776.35s1.206-.126 1.776-.35c.859-.343 1.664-.91 2.382-1.631 1.209-1.209 2.188-2.837 2.808-4.512.477-.141.979-1.036 1.184-2.176.217-1.245.008-2.324-.473-2.505zm-.804 2.671c-.112.632-.361 1.155-.621 1.379-.105.087-.213.13-.318.112-.058-.007-.112-.036-.159-.083-.574 1.787-1.667 3.57-3.05 4.649-.823.646-1.75 1.043-2.728 1.043-.957 0-1.866-.379-2.675-1-1.408-1.076-2.523-2.88-3.104-4.692a.29.29 0 0 1-.159.079c-.119.022-.245-.036-.364-.159-.246-.245-.466-.736-.574-1.328-.007-.04-.011-.076-.018-.115a18.38 18.38 0 0 1 .05-1.213c.054-.152.119-.271.21-.336a.26.26 0 0 1 .122-.05c.098-.018.202.022.303.101v-.025c.037-.336.488-3.288 3.325-3.025 0 0 2.49.917 4.757.108a11.66 11.66 0 0 1 .7 0c.939.036 1.581.523 2.256.834-.025-.31-.263-.624-.253-.834.109.029.206.076.3.126.484.516.953 1.382 1.328 2.797l.011.007c.097-.076.199-.112.296-.094.025.004.047.011.072.022.307.148.441.874.293 1.696zm8.858 18.545h-31.15a16.8 16.8 0 0 1 .672-4.006l.086-.289.12-.361c-.004.007-.008.014-.008.022.008-.014.011-.029.018-.043l.008-.018v-.004-.004c1.772-4.736 4.547-4.923 5.179-5.071 1.346-.314 2.974-.181 3.844-.451.101.852 2.584 3.66 4.209 5.418l.693-2.725c-.52-.314-.632-.996-.632-1.566h2.671c0 .574-.112 1.263-.646 1.574l.704 2.718c1.628-1.758 4.107-4.566 4.208-5.418.87.271 2.502.137 3.844.451.632.148 3.404.332 5.176 5.053l.141.39v.004c.004.011.007.018.007.029l.083.289c.318 1.144.581 2.346.715 3.526a3.87 3.87 0 0 1 .058.484z"/><rect x="146.357" y="22.151" width="32.85" height="47.25" rx="1.492"/></g><rect x="146.357" y="22.151" width="32.85" height="47.25" rx="1.492" class="D E"/><g class="C"><rect x="150.985" y="59.776" width="24" height="2.5" rx="1.25"/><rect x="155.985" y="64.276" width="14" height="2" rx="1"/></g><mask id="F" class="B"><path d="M145.982 23.643a1.87 1.87 0 0 1 1.867-1.867h29.88a1.87 1.87 0 0 1 1.867 1.867v33.614h-33.614V23.643z"/></mask><g class="C"><path d="M145.982 23.643a1.87 1.87 0 0 1 1.867-1.867h29.88a1.87 1.87 0 0 1 1.867 1.867v33.614h-33.614V23.643z"/><path d="M144.581 23.643a3.27 3.27 0 0 1 3.268-3.268h29.88a3.27 3.27 0 0 1 3.268 3.268h-2.802c0-.258-.209-.467-.466-.467h-29.88c-.257 0-.466.209-.466.467h-2.802zm35.015 33.614h-33.614 33.614zm-35.015 0V23.643a3.27 3.27 0 0 1 3.268-3.268v2.801c-.257 0-.466.209-.466.467v33.614h-2.802zm33.148-36.882a3.27 3.27 0 0 1 3.268 3.268v33.614h-2.802V23.643c0-.258-.209-.467-.466-.467v-2.801z" mask="url(#F)"/></g><path d="M170.311 34.172l.029-.924c-.011-4.494-2.645-7.107-6.804-7.385-3.623-.242-6.352 1.195-7.597 3.588-.419.805-.657 1.812-.747 2.906a7.37 7.37 0 0 0-.221 1.776h.015c-.011.014-.022.014-.029.018-.531.094-.772 1.224-.538 2.527.213 1.195.755 2.122 1.253 2.191.635 1.704 1.635 3.36 2.876 4.569.701.686 1.48 1.227 2.31 1.559.571.224 1.166.35 1.776.35s1.206-.126 1.776-.35c.859-.343 1.664-.91 2.382-1.631 1.209-1.209 2.187-2.837 2.808-4.512.477-.141.978-1.036 1.184-2.176.217-1.245.007-2.324-.473-2.505zm-.805 2.671c-.111.632-.361 1.155-.62 1.379-.105.087-.213.13-.318.112-.058-.007-.112-.036-.159-.083-.574 1.787-1.667 3.57-3.05 4.649-.823.646-1.75 1.043-2.728 1.043-.957 0-1.867-.379-2.675-1-1.408-1.076-2.523-2.88-3.104-4.692a.29.29 0 0 1-.159.079c-.119.022-.245-.036-.364-.159-.246-.245-.466-.736-.574-1.328-.008-.04-.011-.076-.018-.115a18.38 18.38 0 0 1 .05-1.213c.054-.152.119-.271.209-.336.037-.029.08-.043.123-.05.098-.018.202.022.303.101v-.025c.036-.336.488-3.288 3.325-3.025 0 0 2.49.917 4.757.108a11.66 11.66 0 0 1 .7 0c.938.036 1.581.523 2.256.834-.025-.31-.264-.624-.253-.834.109.029.206.076.3.126.483.516.953 1.382 1.328 2.797l.011.007c.097-.076.198-.112.296-.094.025.004.047.011.072.022.307.148.44.874.292 1.696zm8.858 18.545h-31.149a16.8 16.8 0 0 1 .672-4.006l.086-.289.119-.361c-.003.007-.007.014-.007.022.007-.014.011-.029.018-.043l.007-.018v-.004-.004c1.773-4.736 4.548-4.923 5.18-5.071 1.346-.314 2.974-.181 3.844-.451.101.852 2.584 3.66 4.209 5.418l.693-2.725c-.52-.314-.632-.996-.632-1.566h2.671c0 .574-.112 1.263-.646 1.574l.704 2.718c1.627-1.758 4.107-4.566 4.208-5.418.87.271 2.501.137 3.844.451.632.148 3.404.332 5.176 5.053l.141.39v.004c.003.011.007.018.007.029l.083.289c.318 1.144.581 2.346.715 3.526a3.69 3.69 0 0 1 .057.484z" class="B"/><path d="M204 159a4 4 0 1 0 8 0 4 4 0 1 0-8 0zm31 0v.75a.75.75 0 0 0 .75-.75H235zm0-48h.75a.75.75 0 0 0-.75-.75v.75zm-47.5 0l7.5 4.33v-8.66l-7.5 4.33zm20.5 48.75h27v-1.5h-27v1.5zm27.75-.75v-48h-1.5v48h1.5zm-.75-48.75h-40.75v1.5H235v-1.5z" fill="#f21197"/></svg>