<svg xmlns="http://www.w3.org/2000/svg" width="250" height="161" fill="none" ><style><![CDATA[.B{fill:#fff}.C{fill:#58707f}.D{stroke:#718491}.E{stroke-width:.815}.F{stroke:#58707f}.G{stroke-width:1.671}]]></style><path d="M0 0h250v161H0z" class="B"/><rect x="80.5" y="130.5" width="11" height="11" rx="5.5" fill="#ffd9f1" stroke="#f21197"/><text fill="#546069" xml:space="preserve" style="white-space:pre" font-family="Roboto" font-size="12" font-weight="600" letter-spacing="0em"><tspan x="96" y="140.031">Social Margin</tspan></text><rect x="19.5" y="20.5" width="211" height="97" rx="3.5" class="B"/><rect x="19.5" y="20.5" width="211" height="97" rx="3.5" stroke="#bbc2c7"/><rect x="29.117" y="31.407" width="59.336" height="75.185" rx="3.082" class="B D E"/><rect x="40.962" y="82.79" width="36.455" height="3.797" rx="1.899" class="C"/><rect x="39.57" y="37.183" width="38.429" height="40.657" rx="1.392" class="B"/><rect x="39.57" y="37.183" width="38.429" height="40.657" rx="1.392" class="F G"/><path d="M67.759 52.329l.035-1.102c-.013-5.361-3.156-8.478-8.117-8.81-4.323-.288-7.578 1.425-9.064 4.28-.499.96-.784 2.162-.891 3.466a8.8 8.8 0 0 0-.263 2.118h.017c-.013.017-.026.017-.035.022-.633.112-.921 1.46-.642 3.014.254 1.425.9 2.532 1.494 2.614.758 2.032 1.951 4.009 3.432 5.451.835.818 1.765 1.464 2.756 1.86.68.267 1.391.418 2.119.418s1.438-.151 2.118-.418c1.025-.409 1.985-1.085 2.842-1.946 1.442-1.443 2.609-3.384 3.35-5.382.568-.168 1.167-1.236 1.412-2.596.258-1.486.009-2.773-.564-2.988zm-.96 3.186c-.133.754-.43 1.378-.741 1.645-.125.103-.254.155-.379.133-.069-.009-.133-.043-.189-.099-.685 2.131-1.989 4.258-3.639 5.546-.982.771-2.088 1.244-3.255 1.244-1.141 0-2.226-.452-3.191-1.193-1.679-1.283-3.01-3.436-3.703-5.598-.056.052-.121.086-.189.095-.142.026-.293-.043-.435-.189-.293-.293-.555-.878-.685-1.585-.009-.047-.013-.09-.022-.138a22.67 22.67 0 0 1 .06-1.447c.065-.181.142-.323.25-.401.043-.034.095-.052.146-.06.116-.022.241.026.362.121v-.03c.043-.401.581-3.923 3.966-3.608 0 0 2.971 1.094 5.675.129a13.52 13.52 0 0 1 .835 0c1.12.043 1.886.624 2.691.995-.03-.37-.314-.745-.301-.995.129.035.245.09.357.151.577.616 1.137 1.649 1.585 3.337v.022l.013-.013c.116-.09.237-.133.353-.112.03.004.056.013.086.026.366.177.525 1.042.349 2.024zm10.567 22.124h-37.16c.082-1.623.323-3.165.801-4.779l.103-.344.142-.431c-.004.009-.009.017-.009.026.009-.017.013-.035.022-.052l.009-.021v-.004-.004c2.114-5.649 5.425-5.873 6.179-6.05 1.606-.375 3.548-.215 4.586-.538.12 1.016 3.083 4.366 5.021 6.463l.827-3.251c-.62-.375-.754-1.188-.754-1.869h3.186c0 .685-.133 1.507-.771 1.877l.84 3.242c1.942-2.097 4.9-5.447 5.021-6.463 1.038.323 2.984.164 4.586.538.754.177 4.06.396 6.175 6.028l.168.465v.004c.004.013.009.021.009.034l.099.344c.379 1.365.693 2.799.853 4.207a4.47 4.47 0 0 1 .069.577zM51.847 92.111h-5.5a.75.75 0 0 0-.75.75v5.502a.75.75 0 0 0 .75.75h2.145v-2.381h-.984v-1.12h.984v-.854c0-.972.578-1.508 1.464-1.508.424 0 .867.076.867.076v.953h-.489c-.481 0-.632.299-.632.605v.728h1.075l-.172 1.12h-.903v2.381h2.145a.75.75 0 0 0 .75-.75v-5.502a.75.75 0 0 0-.75-.75zm10 .001h-5.5a.75.75 0 0 0-.75.75v5.5a.75.75 0 0 0 .75.75h5.5a.75.75 0 0 0 .75-.75v-5.5a.75.75 0 0 0-.75-.75zm-.764 2.481l.003.133c0 1.355-1.031 2.916-2.916 2.916a2.9 2.9 0 0 1-1.573-.459c.083.009.163.012.247.012.48 0 .92-.162 1.272-.437-.45-.009-.828-.305-.958-.711.158.023.3.023.462-.019-.469-.095-.82-.508-.82-1.006v-.013a1.04 1.04 0 0 0 .463.13 1.02 1.02 0 0 1-.456-.853 1.01 1.01 0 0 1 .139-.517 2.91 2.91 0 0 0 2.113 1.072c-.145-.695.375-1.259 1-1.259a1.02 1.02 0 0 1 .749.323 2.01 2.01 0 0 0 .65-.247 1.02 1.02 0 0 1-.45.564 2.04 2.04 0 0 0 .591-.159c-.139.205-.314.386-.514.531zm11.014-2.481h-6.002c-.275 0-.498.227-.498.505v5.991c0 .278.223.505.498.505h6.002c.275 0 .5-.227.5-.505v-5.991c0-.278-.225-.505-.5-.505zm-4.384 6h-1.037v-3.341h1.039v3.341h-.002zm-.519-3.797a.602.602 0 1 1 0-1.203c.331 0 .602.27.602.602a.6.6 0 0 1-.602.602zm4.408 3.797h-1.037v-1.625c0-.388-.008-.886-.539-.886-.541 0-.623.422-.623.858v1.653h-1.037v-3.341h.995v.456h.014c.139-.263.478-.539.983-.539 1.05 0 1.245.692 1.245 1.592v1.831z" class="C"/><rect x="95.332" y="31.407" width="59.336" height="75.185" rx="3.082" class="B D E"/><rect x="107.178" y="82.79" width="36.455" height="3.797" rx="1.899" class="C"/><rect x="105.785" y="37.183" width="38.429" height="40.657" rx="1.392" class="B"/><rect x="105.785" y="37.183" width="38.429" height="40.657" rx="1.392" class="F G"/><path d="M133.974 52.329l.034-1.102c-.013-5.361-3.156-8.478-8.116-8.81-4.323-.288-7.579 1.425-9.064 4.28-.5.96-.784 2.162-.891 3.466a8.81 8.81 0 0 0-.263 2.118h.017c-.013.017-.026.017-.034.022-.633.112-.922 1.46-.642 3.014.254 1.425.9 2.532 1.494 2.614.758 2.032 1.951 4.009 3.432 5.451.835.818 1.765 1.464 2.756 1.86.68.267 1.391.418 2.118.418s1.438-.151 2.119-.418c1.025-.409 1.985-1.085 2.842-1.946 1.442-1.443 2.609-3.384 3.35-5.382.568-.168 1.167-1.236 1.412-2.596.258-1.486.009-2.773-.564-2.988zm-.96 3.186c-.134.754-.431 1.378-.741 1.645-.125.103-.254.155-.379.133-.069-.009-.133-.043-.189-.099-.685 2.131-1.99 4.258-3.639 5.546-.981.771-2.088 1.244-3.255 1.244-1.141 0-2.226-.452-3.191-1.193-1.679-1.283-3.009-3.436-3.703-5.598-.056.052-.12.086-.189.095-.142.026-.293-.043-.435-.189-.293-.293-.555-.878-.685-1.585-.008-.047-.013-.09-.021-.138a22.64 22.64 0 0 1 .06-1.447c.065-.181.142-.323.25-.401.043-.034.095-.052.146-.06.116-.022.241.026.362.121v-.03c.043-.401.581-3.923 3.966-3.608 0 0 2.971 1.094 5.675.129.293-.009.572-.009.835 0 1.12.043 1.886.624 2.691.995-.03-.37-.314-.745-.301-.995.129.035.245.09.357.151.577.616 1.137 1.649 1.585 3.337v.022l.013-.013c.116-.09.237-.133.353-.112.03.004.056.013.086.026.366.177.525 1.042.349 2.024zm10.567 22.124h-37.16c.082-1.623.323-3.165.801-4.779l.104-.344.142-.431c-.005.009-.009.017-.009.026.009-.017.013-.035.022-.052l.008-.021v-.004-.004c2.114-5.649 5.426-5.873 6.179-6.05 1.606-.375 3.548-.215 4.586-.538.12 1.016 3.083 4.366 5.021 6.463l.826-3.251c-.62-.375-.753-1.188-.753-1.869h3.186c0 .685-.133 1.507-.771 1.877l.84 3.242c1.942-2.097 4.9-5.447 5.021-6.463 1.037.323 2.984.164 4.585.538.754.177 4.061.396 6.175 6.028l.168.465v.004c.004.013.008.021.008.034l.099.344c.379 1.365.694 2.799.853 4.207.039.194.056.388.069.577zm-25.519 14.472h-5.5a.75.75 0 0 0-.75.75v5.502a.75.75 0 0 0 .75.75h2.145v-2.381h-.985v-1.12h.985v-.854c0-.972.578-1.508 1.463-1.508a5.98 5.98 0 0 1 .868.076v.953h-.489c-.481 0-.632.299-.632.605v.728h1.075l-.172 1.12h-.903v2.381h2.145a.75.75 0 0 0 .75-.75v-5.502a.75.75 0 0 0-.75-.75zm10 .001h-5.5a.75.75 0 0 0-.75.75v5.5a.75.75 0 0 0 .75.75h5.5a.75.75 0 0 0 .75-.75v-5.5a.75.75 0 0 0-.75-.75zm-.764 2.481l.003.133c0 1.355-1.031 2.916-2.916 2.916a2.9 2.9 0 0 1-1.573-.459 2.16 2.16 0 0 0 .247.012c.48 0 .92-.162 1.272-.437-.45-.009-.828-.305-.958-.711a1.1 1.1 0 0 0 .462-.019c-.468-.095-.82-.508-.82-1.006v-.013a1.04 1.04 0 0 0 .463.13 1.02 1.02 0 0 1-.457-.853 1.01 1.01 0 0 1 .139-.517 2.91 2.91 0 0 0 2.113 1.072c-.145-.695.375-1.259 1-1.259a1.02 1.02 0 0 1 .748.323c.232-.044.454-.13.65-.247a1.02 1.02 0 0 1-.45.564c.207-.022.407-.08.591-.159-.139.205-.314.386-.514.531zm11.014-2.481h-6.002a.5.5 0 0 0-.498.505v5.991c0 .278.223.505.498.505h6.002c.275 0 .5-.227.5-.505v-5.991c0-.278-.225-.505-.5-.505zm-4.384 6h-1.038v-3.341h1.039v3.341h-.001zm-.519-3.797a.602.602 0 1 1 0-1.203c.331 0 .601.27.601.602a.6.6 0 0 1-.601.602zm4.408 3.797h-1.038v-1.625c0-.388-.008-.886-.539-.886-.54 0-.623.422-.623.858v1.653h-1.038v-3.341h.996v.456h.014c.139-.263.478-.539.982-.539 1.05 0 1.246.692 1.246 1.592v1.831z" class="C"/><rect x="161.548" y="31.407" width="59.336" height="75.185" rx="3.082" class="B D E"/><rect x="173.393" y="82.79" width="36.455" height="3.797" rx="1.899" class="C"/><rect x="172.001" y="37.183" width="38.429" height="40.657" rx="1.392" class="B"/><rect x="172.001" y="37.183" width="38.429" height="40.657" rx="1.392" class="F G"/><path d="M200.189 52.329l.035-1.102c-.013-5.361-3.157-8.478-8.117-8.81-4.323-.288-7.578 1.425-9.064 4.28-.499.96-.783 2.162-.891 3.466a8.81 8.81 0 0 0-.263 2.118h.018c-.013.017-.026.017-.035.022-.633.112-.921 1.46-.641 3.014.254 1.425.899 2.532 1.494 2.614.757 2.032 1.95 4.009 3.431 5.451.836.818 1.766 1.464 2.756 1.86.68.267 1.391.418 2.119.418s1.438-.151 2.118-.418c1.025-.409 1.985-1.085 2.842-1.946 1.442-1.443 2.609-3.384 3.35-5.382.568-.168 1.167-1.236 1.412-2.596.259-1.486.009-2.773-.564-2.988zm-.96 3.186c-.133.754-.431 1.378-.741 1.645-.124.103-.254.155-.379.133a.33.33 0 0 1-.189-.099c-.685 2.131-1.989 4.258-3.638 5.546-.982.771-2.089 1.244-3.256 1.244-1.141 0-2.226-.452-3.19-1.193-1.68-1.283-3.01-3.436-3.703-5.598-.056.052-.121.086-.19.095-.142.026-.293-.043-.435-.189-.292-.293-.555-.878-.684-1.585-.009-.047-.013-.09-.022-.138a22.64 22.64 0 0 1 .06-1.447c.065-.181.143-.323.25-.401a.31.31 0 0 1 .147-.06c.116-.022.241.026.361.121v-.03c.043-.401.582-3.923 3.966-3.608 0 0 2.971 1.094 5.675.129.293-.009.573-.009.835 0 1.12.043 1.886.624 2.692.995-.031-.37-.315-.745-.302-.995a1.66 1.66 0 0 1 .358.151c.577.616 1.136 1.649 1.584 3.337v.022l.013-.013c.116-.09.237-.133.353-.112.03.004.056.013.086.026.366.177.526 1.042.349 2.024zm10.567 22.124h-37.159c.082-1.623.323-3.165.801-4.779l.103-.344.142-.431c-.004.009-.009.017-.009.026.009-.017.013-.035.022-.052l.009-.021v-.004-.004c2.114-5.649 5.425-5.873 6.178-6.05 1.607-.375 3.549-.215 4.586-.538.121 1.016 3.083 4.366 5.021 6.463l.827-3.251c-.62-.375-.754-1.188-.754-1.869h3.186c0 .685-.133 1.507-.77 1.877l.839 3.242c1.942-2.097 4.9-5.447 5.021-6.463 1.038.323 2.984.164 4.586.538.753.177 4.06.396 6.174 6.028l.168.465v.004c.004.013.009.021.009.034l.099.344c.379 1.365.693 2.799.852 4.207.039.194.056.388.069.577zm-28.519 14.472h-5.5a.75.75 0 0 0-.75.75v5.502a.75.75 0 0 0 .75.75h2.145v-2.381h-.984v-1.12h.984v-.854c0-.972.578-1.508 1.463-1.508a5.96 5.96 0 0 1 .868.076v.953h-.489c-.481 0-.631.299-.631.605v.728h1.074l-.171 1.12h-.903v2.381h2.144a.75.75 0 0 0 .531-.22c.14-.141.219-.332.219-.531V92.86a.75.75 0 0 0-.75-.75zm11 .001h-5.5a.75.75 0 0 0-.75.75v5.5a.75.75 0 0 0 .75.75h5.5a.75.75 0 0 0 .75-.75v-5.5a.75.75 0 0 0-.75-.75zm-.764 2.481l.003.133c0 1.355-1.031 2.916-2.915 2.916a2.91 2.91 0 0 1-1.574-.459 2.16 2.16 0 0 0 .247.012c.48 0 .921-.162 1.272-.437-.45-.009-.828-.305-.958-.711.158.023.3.023.463-.019-.469-.095-.821-.508-.821-1.006v-.013c.136.076.296.123.463.13a1.01 1.01 0 0 1-.456-.853 1.01 1.01 0 0 1 .139-.517 2.91 2.91 0 0 0 2.112 1.072c-.145-.695.375-1.259 1-1.259a1.02 1.02 0 0 1 .749.323 2.01 2.01 0 0 0 .65-.247c-.077.237-.238.438-.45.564a2.06 2.06 0 0 0 .59-.159c-.139.205-.314.386-.514.531zm16.014-2.481h-6.001c-.275 0-.499.227-.499.505v5.991c0 .278.224.505.499.505h6.001c.275 0 .5-.227.5-.505v-5.991c0-.278-.225-.505-.5-.505zm-4.384 6h-1.038v-3.341h1.04v3.341h-.002zm-.519-3.797a.602.602 0 1 1 0-1.203c.331 0 .602.27.602.602a.6.6 0 0 1-.602.602zm4.408 3.797h-1.037v-1.625c0-.388-.008-.886-.54-.886-.54 0-.623.422-.623.858v1.653h-1.037v-3.341h.995v.456h.014c.139-.263.478-.539.983-.539 1.05 0 1.245.692 1.245 1.592v1.831z" class="C"/><path d="M200 98.5h-3v-6h3zm12-7.5h-15v-3h15zm0 12h-15v-3h15zm0-4.5h-3v-6h3z" fill="#ffd9f1" stroke="#f21197"/><path d="M171 138a4 4 0 1 0 8 0 4 4 0 1 0-8 0zm62 0v.75a.75.75 0 0 0 .75-.733L233 138zm1-43l.75.017a.75.75 0 0 0-.75-.767V95zm-18.5 0l7.5 4.33v-8.66L215.5 95zM175 138.75h58v-1.5h-58v1.5zm58.75-.733l1-43-1.5-.035-1 43 1.5.034zM234 94.25h-11.75v1.5H234v-1.5z" fill="#f21197"/></svg>