<svg xmlns="http://www.w3.org/2000/svg" xmlns:xlink="http://www.w3.org/1999/xlink" width="250" height="200" fill="none" ><style><![CDATA[.B{fill:#fff}.C{fill:#718491}.D{stroke:#718491}.E{stroke-width:1.751}.F{font-family:Roboto}]]></style><path d="M0 0h250v200H0z" class="B"/><rect x="31.5" y="173.5" width="11" height="11" rx="5.5" fill="#ffdccc" stroke="#ff5a08"/><text fill="#546069" xml:space="preserve" style="white-space:pre" font-size="12" font-weight="600" letter-spacing="0em" class="F"><tspan x="47" y="183.031">Gap</tspan></text><rect x="118.5" y="173.5" width="11" height="11" rx="5.5" fill="#ffd9f1" stroke="#f21197"/><text fill="#546069" xml:space="preserve" style="white-space:pre" font-size="12" font-weight="600" letter-spacing="0em" class="F"><tspan x="134" y="183.031">Vertical Gap</tspan></text><rect x="20.5" y="15.5" width="209" height="146" rx="3.5" class="B"/><rect x="20.5" y="15.5" width="209" height="146" rx="3.5" stroke="#bbc2c7"/><rect x="30.5" y="24.5" width="42" height="60" rx="2.334" class="B"/><g class="C"><rect x="32.654" y="74.21" width="38.198" height="3.979" rx="1.989"/><rect x="42.204" y="81.372" width="19.099" height="3.183" rx="1.592"/></g><rect x="31.195" y="25.375" width="40.267" height="42.601" rx="1.459" class="B"/><rect x="31.195" y="25.375" width="40.267" height="42.601" rx="1.459" class="D E"/><path d="M60.732 41.245l.036-1.155c-.014-5.617-3.307-8.884-8.505-9.231-4.53-.302-7.941 1.493-9.497 4.485-.523 1.006-.821 2.265-.934 3.632a9.23 9.23 0 0 0-.275 2.22h.018c-.014.018-.027.018-.036.023-.663.117-.965 1.529-.672 3.158.266 1.493.943 2.653 1.566 2.739.794 2.13 2.044 4.2 3.596 5.712.875.857 1.85 1.534 2.887 1.949.713.28 1.457.438 2.22.438s1.507-.158 2.22-.438c1.074-.429 2.08-1.137 2.978-2.039 1.511-1.511 2.734-3.546 3.51-5.64.596-.176 1.223-1.295 1.48-2.721.271-1.557.009-2.906-.591-3.131zm-1.006 3.339c-.14.789-.451 1.444-.776 1.724-.131.108-.266.162-.397.14-.072-.009-.14-.045-.199-.104-.717 2.233-2.084 4.462-3.812 5.811-1.029.808-2.188 1.304-3.411 1.304-1.196 0-2.333-.474-3.343-1.25-1.76-1.345-3.154-3.6-3.88-5.865-.059.054-.126.09-.199.099-.149.027-.307-.045-.456-.199-.307-.307-.582-.92-.717-1.66-.009-.05-.014-.095-.023-.144a24.04 24.04 0 0 1 .063-1.516c.068-.19.149-.338.262-.42.045-.036.099-.054.153-.063.122-.023.253.027.379.126v-.031c.045-.42.609-4.11 4.155-3.781 0 0 3.113 1.146 5.947.135a14.17 14.17 0 0 1 .875 0c1.173.045 1.976.654 2.82 1.042-.032-.388-.329-.781-.316-1.042a1.76 1.76 0 0 1 .375.158c.605.645 1.191 1.728 1.66 3.497v.022l.014-.013c.122-.095.248-.14.37-.117a.34.34 0 0 1 .09.027c.383.185.55 1.092.365 2.121zm11.072 23.181H31.862c.086-1.701.338-3.316.839-5.008l.108-.361.149-.451c-.005.009-.009.018-.009.027.009-.018.014-.036.023-.054l.009-.023v-.005-.005c2.215-5.919 5.685-6.154 6.474-6.339 1.683-.392 3.718-.226 4.805-.564.126 1.065 3.23 4.575 5.261 6.772l.866-3.406c-.65-.392-.79-1.245-.79-1.958h3.339c0 .717-.14 1.579-.808 1.967l.88 3.397c2.035-2.197 5.134-5.707 5.261-6.772 1.087.338 3.127.172 4.805.564.789.185 4.255.415 6.47 6.316l.176.487v.005c.005.014.009.023.009.036l.104.361c.397 1.43.726 2.933.893 4.408a4.69 4.69 0 0 1 .072.605z" class="C"/><rect x="79.5" y="24.5" width="42" height="60" rx="2.334" class="B"/><g class="C"><rect x="81.654" y="74.21" width="38.198" height="3.979" rx="1.989"/><rect x="91.204" y="81.372" width="19.099" height="3.183" rx="1.592"/></g><rect x="80.195" y="25.375" width="40.267" height="42.601" rx="1.459" class="B"/><rect x="80.195" y="25.375" width="40.267" height="42.601" rx="1.459" class="D E"/><path d="M109.732 41.245l.036-1.155c-.014-5.617-3.307-8.884-8.505-9.231-4.53-.302-7.94 1.493-9.497 4.485-.523 1.006-.821 2.265-.934 3.632a9.23 9.23 0 0 0-.275 2.22h.018c-.013.018-.027.018-.036.023-.663.117-.966 1.529-.672 3.158.266 1.493.943 2.653 1.566 2.739.794 2.13 2.044 4.2 3.596 5.712.875.857 1.85 1.534 2.888 1.949.713.28 1.457.438 2.22.438s1.507-.158 2.22-.438c1.074-.429 2.08-1.137 2.978-2.039 1.511-1.511 2.734-3.546 3.51-5.64.595-.176 1.223-1.295 1.48-2.721.27-1.557.009-2.906-.591-3.131zm-1.006 3.339c-.14.789-.452 1.444-.776 1.724-.131.108-.267.162-.397.14a.34.34 0 0 1-.199-.104c-.717 2.233-2.084 4.462-3.812 5.811-1.029.808-2.189 1.304-3.411 1.304-1.196 0-2.333-.474-3.344-1.25-1.76-1.345-3.154-3.6-3.88-5.865-.059.054-.126.09-.198.099-.149.027-.307-.045-.456-.199-.307-.307-.582-.92-.717-1.66-.009-.05-.013-.095-.022-.144a23.31 23.31 0 0 1 .063-1.516c.068-.19.149-.338.262-.42.045-.036.099-.054.153-.063.122-.023.253.027.379.126v-.031c.045-.42.609-4.11 4.155-3.781 0 0 3.113 1.146 5.946.135a14.05 14.05 0 0 1 .876 0c1.173.045 1.976.654 2.819 1.042-.031-.388-.329-.781-.315-1.042a1.73 1.73 0 0 1 .374.158c.605.645 1.191 1.728 1.66 3.497v.022l.014-.013c.122-.095.248-.14.37-.117a.34.34 0 0 1 .09.027c.384.185.551 1.092.366 2.121zm11.072 23.181H80.862c.086-1.701.338-3.316.839-5.008l.108-.361.149-.451c-.005.009-.009.018-.009.027.009-.018.014-.036.023-.054l.009-.023v-.005-.005c2.215-5.919 5.685-6.154 6.474-6.339 1.683-.392 3.718-.226 4.805-.564.126 1.065 3.23 4.575 5.261 6.772l.866-3.406c-.65-.392-.79-1.245-.79-1.958h3.339c0 .717-.14 1.579-.807 1.967l.879 3.397c2.035-2.197 5.135-5.707 5.261-6.772 1.087.338 3.127.172 4.805.564.79.185 4.255.415 6.47 6.316l.176.487v.005c.004.014.009.023.009.036l.104.361c.397 1.43.726 2.933.893 4.408.041.203.059.406.072.605z" class="C"/><rect x="128.5" y="24.5" width="42" height="60" rx="2.334" class="B"/><g class="C"><rect x="130.654" y="74.21" width="38.198" height="3.979" rx="1.989"/><rect x="140.204" y="81.372" width="19.099" height="3.183" rx="1.592"/></g><rect x="129.195" y="25.375" width="40.267" height="42.601" rx="1.459" class="B"/><rect x="129.195" y="25.375" width="40.267" height="42.601" rx="1.459" class="D E"/><g class="C"><use xlink:href="#B"/><use xlink:href="#C"/></g><rect x="177.5" y="24.5" width="42" height="60" rx="2.334" class="B"/><g class="C"><rect x="179.654" y="74.21" width="38.198" height="3.979" rx="1.989"/><rect x="189.204" y="81.372" width="19.099" height="3.183" rx="1.592"/></g><rect x="178.195" y="25.375" width="40.267" height="42.601" rx="1.459" class="B"/><rect x="178.195" y="25.375" width="40.267" height="42.601" rx="1.459" class="D E"/><g class="C"><use xlink:href="#B" x="49"/><use xlink:href="#C" x="49"/></g><rect x="30.5" y="92.5" width="42" height="60" rx="2.334" class="B"/><g class="C"><rect x="32.654" y="142.21" width="38.198" height="3.979" rx="1.989"/><rect x="42.204" y="149.372" width="19.099" height="3.183" rx="1.592"/></g><rect x="31.195" y="93.375" width="40.267" height="42.601" rx="1.459" class="B"/><rect x="31.195" y="93.375" width="40.267" height="42.601" rx="1.459" class="D E"/><path d="M60.732 109.245l.036-1.155c-.014-5.617-3.307-8.884-8.505-9.231-4.53-.302-7.941 1.493-9.497 4.485-.523 1.006-.821 2.265-.934 3.632a9.22 9.22 0 0 0-.275 2.219h.018c-.014.018-.027.018-.036.023-.663.117-.965 1.529-.672 3.158.266 1.494.943 2.653 1.566 2.739.794 2.129 2.044 4.2 3.596 5.712.875.857 1.85 1.534 2.887 1.949.713.279 1.457.437 2.22.437s1.507-.158 2.22-.437c1.074-.429 2.08-1.137 2.978-2.04 1.511-1.511 2.734-3.546 3.51-5.639.596-.176 1.223-1.295 1.48-2.721.271-1.556.009-2.905-.591-3.131zm-1.006 3.339c-.14.789-.451 1.443-.776 1.723-.131.108-.266.163-.397.14a.34.34 0 0 1-.199-.104c-.717 2.234-2.084 4.462-3.812 5.811-1.029.808-2.188 1.304-3.411 1.304-1.196 0-2.333-.473-3.343-1.249-1.76-1.345-3.154-3.601-3.88-5.866-.059.054-.126.091-.199.1-.149.027-.307-.046-.456-.199-.307-.307-.582-.92-.717-1.66-.009-.05-.014-.095-.023-.145a24.07 24.07 0 0 1 .063-1.516c.068-.189.149-.338.262-.419.045-.036.099-.054.153-.063.122-.023.253.027.379.126v-.032c.045-.419.609-4.11 4.155-3.78 0 0 3.113 1.145 5.947.135a14.18 14.18 0 0 1 .875 0c1.173.045 1.976.654 2.82 1.042-.032-.388-.329-.78-.316-1.042a1.73 1.73 0 0 1 .375.158c.605.645 1.191 1.728 1.66 3.496v.023l.014-.014c.122-.094.248-.139.37-.117a.37.37 0 0 1 .09.027c.383.185.55 1.092.365 2.121zm11.072 23.181H31.862c.086-1.701.338-3.316.839-5.008l.108-.361.149-.451c-.005.009-.009.018-.009.027.009-.018.014-.036.023-.054l.009-.023v-.004-.005c2.215-5.919 5.685-6.154 6.474-6.339 1.683-.392 3.718-.225 4.805-.564.126 1.065 3.23 4.575 5.261 6.772l.866-3.406c-.65-.392-.79-1.245-.79-1.958h3.339c0 .717-.14 1.579-.808 1.967l.88 3.397c2.035-2.197 5.134-5.707 5.261-6.772 1.087.339 3.127.172 4.805.564.789.185 4.255.415 6.47 6.317l.176.487v.005c.005.013.009.022.009.036l.104.361c.397 1.43.726 2.932.893 4.408a4.69 4.69 0 0 1 .072.604z" class="C"/><rect x="79.5" y="92.5" width="42" height="60" rx="2.334" class="B"/><g class="C"><rect x="81.654" y="142.21" width="38.198" height="3.979" rx="1.989"/><rect x="91.204" y="149.372" width="19.099" height="3.183" rx="1.592"/></g><rect x="80.195" y="93.375" width="40.267" height="42.601" rx="1.459" class="B"/><rect x="80.195" y="93.375" width="40.267" height="42.601" rx="1.459" class="D E"/><path d="M109.732 109.245l.036-1.155c-.014-5.617-3.307-8.884-8.505-9.231-4.53-.302-7.94 1.493-9.497 4.485-.523 1.006-.821 2.265-.934 3.632a9.22 9.22 0 0 0-.275 2.219h.018c-.013.018-.027.018-.036.023-.663.117-.966 1.529-.672 3.158.266 1.494.943 2.653 1.566 2.739.794 2.129 2.044 4.2 3.596 5.712.875.857 1.85 1.534 2.888 1.949.713.279 1.457.437 2.22.437s1.507-.158 2.22-.437c1.074-.429 2.08-1.137 2.978-2.04 1.511-1.511 2.734-3.546 3.51-5.639.595-.176 1.223-1.295 1.48-2.721.27-1.556.009-2.905-.591-3.131zm-1.006 3.339c-.14.789-.452 1.443-.776 1.723-.131.108-.267.163-.397.14a.34.34 0 0 1-.199-.104c-.717 2.234-2.084 4.462-3.812 5.811-1.029.808-2.189 1.304-3.411 1.304-1.196 0-2.333-.473-3.344-1.249-1.76-1.345-3.154-3.601-3.88-5.866-.059.054-.126.091-.198.1-.149.027-.307-.046-.456-.199-.307-.307-.582-.92-.717-1.66-.009-.05-.013-.095-.022-.145a23.34 23.34 0 0 1 .063-1.516c.068-.189.149-.338.262-.419.045-.036.099-.054.153-.063.122-.023.253.027.379.126v-.032c.045-.419.609-4.11 4.155-3.78 0 0 3.113 1.145 5.946.135.307-.009.6-.009.876 0 1.173.045 1.976.654 2.819 1.042-.031-.388-.329-.78-.315-1.042a1.73 1.73 0 0 1 .374.158c.605.645 1.191 1.728 1.66 3.496v.023l.014-.014c.122-.094.248-.139.37-.117.031.005.059.014.09.027.384.185.551 1.092.366 2.121zm11.072 23.181H80.862c.086-1.701.338-3.316.839-5.008l.108-.361.149-.451c-.005.009-.009.018-.009.027.009-.018.014-.036.023-.054l.009-.023v-.004-.005c2.215-5.919 5.685-6.154 6.474-6.339 1.683-.392 3.718-.225 4.805-.564.126 1.065 3.23 4.575 5.261 6.772l.866-3.406c-.65-.392-.79-1.245-.79-1.958h3.339c0 .717-.14 1.579-.807 1.967l.879 3.397c2.035-2.197 5.135-5.707 5.261-6.772 1.087.339 3.127.172 4.805.564.79.185 4.255.415 6.47 6.317l.176.487v.005c.004.013.009.022.009.036l.104.361c.397 1.43.726 2.932.893 4.408.041.203.059.406.072.604z" class="C"/><rect x="128.5" y="92.5" width="42" height="60" rx="2.334" class="B"/><g class="C"><rect x="130.654" y="142.21" width="38.198" height="3.979" rx="1.989"/><rect x="140.204" y="149.372" width="19.099" height="3.183" rx="1.592"/></g><rect x="129.195" y="93.375" width="40.267" height="42.601" rx="1.459" class="B"/><rect x="129.195" y="93.375" width="40.267" height="42.601" rx="1.459" class="D E"/><g class="C"><use xlink:href="#D"/><use xlink:href="#E"/></g><rect x="177.5" y="92.5" width="42" height="60" rx="2.334" class="B"/><g class="C"><rect x="179.654" y="142.21" width="38.198" height="3.979" rx="1.989"/><rect x="189.204" y="149.372" width="19.099" height="3.183" rx="1.592"/></g><rect x="178.195" y="93.375" width="40.267" height="42.601" rx="1.459" class="B"/><rect x="178.195" y="93.375" width="40.267" height="42.601" rx="1.459" class="D E"/><g class="C"><use xlink:href="#D" x="49"/><use xlink:href="#E" x="49"/></g><g stroke="#ff5a08" fill="#ffdccc"><path transform="rotate(90 176.5 93.5)" d="M176.5 93.5h60v5h-60z"/><path transform="rotate(90 176.5 24.5)" d="M176.5 24.5h60v5h-60z"/><path transform="rotate(90 127.5 93.5)" d="M127.5 93.5h60v5h-60z"/><path transform="rotate(90 127.5 24.5)" d="M127.5 24.5h60v5h-60z"/><path transform="rotate(90 78.5 93.5)" d="M78.5 93.5h60v5h-60z"/><path transform="rotate(90 78.5 24.5)" d="M78.5 24.5h60v5h-60z"/></g><path fill="#ffd9f1" stroke="#f21197" d="M219 91.5H31v-5h188z"/><path d="M203.5 181a4 4 0 1 0 8 0 4 4 0 1 0-8 0zm35 0v.75a.75.75 0 0 0 .75-.75h-.75zm0-92h.75a.75.75 0 0 0-.75-.75V89zM220 89l7.5 4.33v-8.66L220 89zm-12.5 92.75h31v-1.5h-31v1.5zm31.75-.75V89h-1.5v92h1.5zm-.75-92.75h-11.75v1.5h11.75v-1.5z" fill="#f21197"/><path d="M72 180a4 4 0 1 0 8 0 4 4 0 1 0-8 0zm4-25l-4.33 7.5h8.66L76 155zm.75 25v-18.25h-1.5V180h1.5z" fill="#ff5a08"/><defs ><path id="B" d="M158.732 41.245l.036-1.155c-.014-5.617-3.307-8.884-8.505-9.231-4.53-.302-7.941 1.493-9.497 4.485-.523 1.006-.821 2.265-.934 3.632a9.23 9.23 0 0 0-.275 2.22h.018c-.014.018-.027.018-.036.023-.663.117-.966 1.529-.673 3.158.267 1.493.943 2.653 1.566 2.739.794 2.13 2.044 4.2 3.596 5.712.875.857 1.85 1.534 2.887 1.949.713.28 1.458.438 2.22.438s1.507-.158 2.22-.438c1.074-.429 2.08-1.137 2.978-2.039 1.511-1.511 2.734-3.546 3.51-5.64.595-.176 1.223-1.295 1.48-2.721.27-1.557.009-2.906-.591-3.131zm-1.006 3.339c-.14.789-.452 1.444-.776 1.724-.131.108-.267.162-.397.14-.073-.009-.14-.045-.199-.104-.717 2.233-2.084 4.462-3.812 5.811-1.029.808-2.189 1.304-3.411 1.304-1.196 0-2.333-.474-3.343-1.25-1.76-1.345-3.154-3.6-3.881-5.865a.36.36 0 0 1-.198.099c-.149.027-.307-.045-.456-.199-.307-.307-.582-.92-.717-1.66-.009-.05-.014-.095-.023-.144a24.05 24.05 0 0 1 .063-1.516c.068-.19.149-.338.262-.42.045-.036.099-.054.154-.063.121-.023.252.027.379.126v-.031c.045-.42.609-4.11 4.155-3.781 0 0 3.113 1.146 5.946.135a14.05 14.05 0 0 1 .876 0c1.173.045 1.976.654 2.819 1.042-.031-.388-.329-.781-.315-1.042.135.036.257.095.374.158.605.645 1.191 1.728 1.66 3.497v.022l.014-.013c.122-.095.248-.14.37-.117a.34.34 0 0 1 .09.027c.384.185.551 1.092.366 2.121z"/><path id="C" d="M168.798 67.765h-38.936c.086-1.701.338-3.316.839-5.008l.108-.361.149-.451c-.004.009-.009.018-.009.027.009-.018.014-.036.023-.054l.009-.023v-.005-.005c2.215-5.919 5.685-6.154 6.474-6.339 1.683-.392 3.718-.226 4.805-.564.126 1.065 3.231 4.575 5.261 6.772l.866-3.406c-.65-.392-.79-1.245-.79-1.958h3.339c0 .717-.14 1.579-.807 1.967l.879 3.397c2.035-2.197 5.135-5.707 5.261-6.772 1.087.338 3.127.172 4.805.564.79.185 4.255.415 6.47 6.316l.176.487v.005c.004.014.009.023.009.036l.104.361c.397 1.43.726 2.933.893 4.408.041.203.059.406.072.605z"/><path id="D" d="M158.732 109.245l.036-1.155c-.014-5.617-3.307-8.884-8.505-9.231-4.53-.302-7.941 1.493-9.497 4.485-.523 1.006-.821 2.265-.934 3.632a9.22 9.22 0 0 0-.275 2.219h.018c-.014.018-.027.018-.036.023-.663.117-.966 1.529-.673 3.158.267 1.494.943 2.653 1.566 2.739.794 2.129 2.044 4.2 3.596 5.712.875.857 1.85 1.534 2.887 1.949.713.279 1.458.437 2.22.437s1.507-.158 2.22-.437c1.074-.429 2.08-1.137 2.978-2.04 1.511-1.511 2.734-3.546 3.51-5.639.595-.176 1.223-1.295 1.48-2.721.27-1.556.009-2.905-.591-3.131zm-1.006 3.339c-.14.789-.452 1.443-.776 1.723-.131.108-.267.163-.397.14a.34.34 0 0 1-.199-.104c-.717 2.234-2.084 4.462-3.812 5.811-1.029.808-2.189 1.304-3.411 1.304-1.196 0-2.333-.473-3.343-1.249-1.76-1.345-3.154-3.601-3.881-5.866-.058.054-.126.091-.198.1-.149.027-.307-.046-.456-.199-.307-.307-.582-.92-.717-1.66-.009-.05-.014-.095-.023-.145a24.07 24.07 0 0 1 .063-1.516c.068-.189.149-.338.262-.419.045-.036.099-.054.154-.063.121-.023.252.027.379.126v-.032c.045-.419.609-4.11 4.155-3.78 0 0 3.113 1.145 5.946.135.307-.009.6-.009.876 0 1.173.045 1.976.654 2.819 1.042-.031-.388-.329-.78-.315-1.042a1.73 1.73 0 0 1 .374.158c.605.645 1.191 1.728 1.66 3.496v.023l.014-.014c.122-.094.248-.139.37-.117.031.005.059.014.09.027.384.185.551 1.092.366 2.121z"/><path id="E" d="M168.798 135.765h-38.936c.086-1.701.338-3.316.839-5.008l.108-.361.149-.451c-.004.009-.009.018-.009.027.009-.018.014-.036.023-.054l.009-.023v-.004-.005c2.215-5.919 5.685-6.154 6.474-6.339 1.683-.392 3.718-.225 4.805-.564.126 1.065 3.231 4.575 5.261 6.772l.866-3.406c-.65-.392-.79-1.245-.79-1.958h3.339c0 .717-.14 1.579-.807 1.967l.879 3.397c2.035-2.197 5.135-5.707 5.261-6.772 1.087.339 3.127.172 4.805.564.79.185 4.255.415 6.47 6.317l.176.487v.005c.004.013.009.022.009.036l.104.361c.397 1.43.726 2.932.893 4.408.041.203.059.406.072.604z"/></defs></svg>