<?xml version="1.0" encoding="UTF-8" standalone="no"?>
<svg
   xmlns:dc="http://purl.org/dc/elements/1.1/"
   xmlns:cc="http://creativecommons.org/ns#"
   xmlns:rdf="http://www.w3.org/1999/02/22-rdf-syntax-ns#"
   xmlns:svg="http://www.w3.org/2000/svg"
   xmlns="http://www.w3.org/2000/svg"
   xmlns:sodipodi="http://sodipodi.sourceforge.net/DTD/sodipodi-0.dtd"
   xmlns:inkscape="http://www.inkscape.org/namespaces/inkscape"
      xmlns:xlink="http://www.w3.org/1999/xlink"

   viewBox="0 0 256 256"
   version="1.1"
   id="svg97"
   sodipodi:docname="icon (2).svg"
   inkscape:version="1.0.2-2 (e86c870879, 2021-01-15)">
   
    <animateMotion xlink:href="#small-circle" begin="0s" dur="3s" path="M0,0 h20 h-20" repeatCount="indefinite"  />
	<animateMotion xlink:href="#pi-6" begin="0s" dur="4s" path="M0,0 h40 h-60 h40 h-40 " repeatCount="indefinite"  />
	<animate xlink:href="#path117" begin="0s" dur="0.5s" attributeName="fill" to="#000000" repeatCount="indefinite"  />
  <metadata
     id="metadata101">
    <rdf:RDF>
      <cc:Work
         rdf:about="">
        <dc:format>image/svg+xml</dc:format>
        <dc:type
           rdf:resource="http://purl.org/dc/dcmitype/StillImage" />
        <dc:title>business economic finance interprise company cart</dc:title>
      </cc:Work>
    </rdf:RDF>
  </metadata>
  <sodipodi:namedview
     pagecolor="#ffffff"
     bordercolor="#666666"
     borderopacity="1"
     objecttolerance="10"
     gridtolerance="10"
     guidetolerance="10"
     inkscape:pageopacity="0"
     inkscape:pageshadow="2"
     inkscape:window-width="1366"
     inkscape:window-height="741"
     id="namedview99"
     showgrid="false"
     inkscape:zoom="1.1503906"
     inkscape:cx="39.587218"
     inkscape:cy="122.33328"
     inkscape:window-x="-9"
     inkscape:window-y="-9"
     inkscape:window-maximized="1"
     inkscape:current-layer="Layer_2"
     inkscape:document-rotation="0" />
  <defs
     id="defs4">
    <style
       id="style2">.cls-1{fill:#90fc95;}.cls-2{fill:#2fb1ea;}.cls-3{fill:#ffe76e;}.cls-4{fill:#ffc444;}.cls-5{fill:#a4ecff;}.cls-6{fill:#6dd0fc;}.cls-7{fill:#f88;}.cls-8{fill:#f97171;}.cls-9{fill:#cbecf9;}.cls-10{fill:#fff;}.cls-11{fill:#d4ffd4;}.cls-12{fill:#ffbdbd;}.cls-13{fill:#bbf1ff;}.cls-14{fill:#fff4c5;}</style>
  </defs>
  <title
     id="title6">business economic finance interprise company cart</title>
  <g
     id="Layer_2"
     data-name="Layer 2">
    <rect
       class="cls-1"
       x="117.69"
       y="24"
       width="54.7"
       height="54.7"
       id="rect8" />
    <path
       class="cls-2"
       d="M172.4,80.7h-54.7a2,2,0,0,1-2-2V24a2,2,0,0,1,2-2h54.7a2,2,0,0,1,2,2V78.7A2,2,0,0,1,172.4,80.7Zm-52.7-4h50.7V26h-50.7Z"
       id="path10" />
    <rect
       class="cls-3"
       x="83.46"
       y="54.17"
       width="49.07"
       height="49.07"
       id="rect12" />
    <rect
       class="cls-4"
       x="83.46"
       y="70.7"
       width="49.07"
       height="32.54"
       id="rect14" />
    <path
       class="cls-2"
       d="M132.53,105.24H83.46a2,2,0,0,1-2-2V54.17a2,2,0,0,1,2-2h49.07a2,2,0,0,1,2,2v49.07A2,2,0,0,1,132.53,105.24Zm-47.07-4h45.07V56.17H85.46Z"
       id="pi-4" />
    <rect
       class="cls-5"
       x="115.5"
       y="41.37"
       width="54.7"
       height="76.22"
       transform="translate(98.04 -77.73) rotate(45)"
       id="rect18" />
    <polygon
       class="cls-6"
       points="135.24 125.77 189.14 71.87 187.97 70.7 112.95 70.7 96.56 87.09 135.24 125.77"
       id="polygon20" />
    <path
       class="cls-2"
       d="M135.24,127.77a2,2,0,0,1-1.41-.59L95.15,88.5a2,2,0,0,1,0-2.83L149,31.78a2,2,0,0,1,2.83,0l38.68,38.68a2,2,0,0,1,0,2.83l-53.9,53.9A2,2,0,0,1,135.24,127.77ZM99.39,87.09l35.85,35.85,51.07-51.07L150.46,36Z"
       id="pi-2" />
    <rect
       class="cls-7"
       x="41.14"
       y="44"
       width="49.07"
       height="49.07"
       id="rect24" />
    <rect
       class="cls-8"
       x="41.14"
       y="70.7"
       width="49.07"
       height="22.37"
       id="rect26" />
    <path
       class="cls-2"
       d="M90.21,95.07H41.14a2,2,0,0,1-2-2V44a2,2,0,0,1,2-2H90.21a2,2,0,0,1,2,2V93.07A2,2,0,0,1,90.21,95.07Zm-47.07-4H88.21V46H43.14Z"
       id="pi-1" />
    <path
       class="cls-9"
       d="M189.14,177.3H68.67a12,12,0,0,1-11.14-7.55L27.72,95.16A12,12,0,0,1,38.86,78.7H189.14Z"
       id="path30" />
    <path
       class="cls-10"
       d="M177.53,166.5H68.67A12,12,0,0,1,57.53,159L27.72,95.16A12,12,0,0,1,38.86,78.7H177.53Z"
       id="path32" />
    <path
       class="cls-2"
       d="M189.14,179.3H68.67a13.93,13.93,0,0,1-13-8.8L25.86,95.9a14,14,0,0,1,13-19.2H189.14a2,2,0,0,1,2,2V177.3A2,2,0,0,1,189.14,179.3ZM38.86,80.7a10,10,0,0,0-9.29,13.71L59.38,169a10,10,0,0,0,9.29,6.29H187.14V80.7Z"
       id="path34" />
    <circle
       class="cls-1"
       cx="219.14"
       cy="54"
       r="10"
       id="circle36" />
    <path
       class="cls-2"
       d="M219.14,66a12,12,0,1,1,12-12A12,12,0,0,1,219.14,66Zm0-20a8,8,0,1,0,8,8A8,8,0,0,0,219.14,46Z"
       id="path38" />
    <path
       class="cls-2"
       d="M189.14,80.7a2,2,0,0,1-2-2V67.93a2,2,0,0,1,1.07-1.77l20.52-10.77a2,2,0,0,1,1.86,3.54L191.14,69.14V78.7A2,2,0,0,1,189.14,80.7Z"
       id="path40" />
    <circle
       class="cls-6"
       cx="61.14"
       cy="212"
       r="20"
       id="circle42" />
    <circle
       class="cls-5"
       cx="61.14"
       cy="207.14"
       r="15.14"
       id="circle44" />
    <path
       class="cls-2"
       d="M61.14,234a22,22,0,1,1,22-22A22,22,0,0,1,61.14,234Zm0-40a18,18,0,1,0,18,18A18,18,0,0,0,61.14,194Z"
       id="path46" />
    <path
       class="cls-2"
       d="M211.79,214H81.14a2,2,0,0,1,0-4H211.79a15.35,15.35,0,1,0,0-30.7H189.14a2,2,0,0,1,0-4h22.65a19.35,19.35,0,1,1,0,38.7Z"
       id="path48" />
    <circle
       class="cls-6"
       cx="169.14"
       cy="212"
       r="20"
       id="circle50" />
    <circle
       class="cls-5"
       cx="169.14"
       cy="207.14"
       r="15.14"
       id="circle52" />
    <path
       class="cls-2"
       d="M169.14,234a22,22,0,1,1,22-22A22,22,0,0,1,169.14,234Zm0-40a18,18,0,1,0,18,18A18,18,0,0,0,169.14,194Z"
       id="path54" />
    <circle
       class="cls-11"
       cx="45"
       cy="185"
       r="1"
       id="circle64" />
    <circle
       class="cls-12"
       cx="69"
       cy="236"
       r="1"
       id="circle74" />
    <circle
       class="cls-13"
       cx="43"
       cy="229"
       r="1"
       id="circle84" />
    <g
       id="small-circle">
      <circle
         class="cls-11"
         cx="31"
         cy="46"
         r="5"
         id="circle56" />
      <circle
         class="cls-11"
         cx="37"
         cy="171"
         r="4"
         id="circle58" />
      <circle
         class="cls-11"
         cx="198"
         cy="222"
         r="3"
         id="circle60" />
      <circle
         class="cls-11"
         cx="88"
         cy="24"
         r="2"
         id="circle62" />
      <circle
         class="cls-12"
         cx="11"
         cy="84"
         r="5"
         id="circle66" />
      <circle
         class="cls-12"
         cx="124"
         cy="10"
         r="4"
         id="circle68" />
      <circle
         class="cls-12"
         cx="171"
         cy="247"
         r="3"
         id="circle70" />
      <circle
         class="cls-12"
         cx="224"
         cy="160"
         r="2"
         id="circle72" />
      <circle
         class="cls-13"
         cx="137"
         cy="229"
         r="5"
         id="circle76" />
      <circle
         class="cls-13"
         cx="203"
         cy="123"
         r="4"
         id="circle78" />
      <circle
         class="cls-13"
         cx="187"
         cy="34"
         r="3"
         id="circle80" />
      <circle
         class="cls-13"
         cx="218"
         cy="140"
         r="2"
         id="circle82" />
      <circle
         class="cls-14"
         cx="245"
         cy="142"
         r="5"
         id="circle86" />
      <circle
         class="cls-14"
         cx="224"
         cy="91"
         r="4"
         id="circle88" />
      <circle
         class="cls-14"
         cx="101"
         cy="191"
         r="3"
         id="circle90" />
    </g>
    <circle
       class="cls-14"
       cx="26"
       cy="142"
       r="2"
       id="circle92" />
    <circle
       class="cls-14"
       cx="52"
       cy="28"
       r="1"
       id="circle94" />
  </g>
  <g
     id="pi-6"
     transform="matrix(0.14428098,0,0,0.14428098,73.875279,89.354706)">
    <path
       style="fill:#b9e678"
       d="m 311.281,125.996 c 80.77,48.139 153.002,162.713 153.002,249.831 0,73.099 -40.055,128.174 -152.206,128.174 h -56.076 -56.077 c -112.152,0 -152.207,-55.075 -152.207,-128.174 0,-87.118 72.098,-200.272 150.015,-248.761 z"
       id="path103" />
    <path
       style="fill:#9bdc6e"
       d="m 97.278,375.828 c 0,-87.118 72.098,-202.342 150.015,-250.831 H 199.279 C 121.362,173.486 47.717,288.71 47.717,375.828 c 0,73.099 40.055,128.174 152.206,128.174 h 49.561 C 137.333,504.001 97.278,448.927 97.278,375.828 Z"
       id="path105" />
    <path
       style="fill:#b9e678"
       d="M 207.936,95.448 183.352,19.645 c -2.395,-8.313 2.488,-13.323 10.858,-11.139 0,0 33.067,10.493 44.186,13.66 8.32,2.369 22.111,2.357 30.422,-0.026 11.003,-3.16 43.726,-13.61 43.726,-13.61 8.362,-2.195 13.245,2.803 10.85,11.115 l -19.326,75.803 z"
       id="path107" />
    <path
       style="fill:#9bdc6e"
       d="m 208.394,12.979 c -7.957,-2.495 -14.185,-4.472 -14.185,-4.472 -8.37,-2.185 -13.253,2.826 -10.858,11.139 l 24.583,75.803 h 25.281 L 208.631,19.646 c -0.742,-2.581 -0.782,-4.84 -0.237,-6.667 z"
       id="path109" />
    <path
       style="fill:#82c85a"
       d="m 320.087,111.47 c 0,8.812 -7.21,16.021 -16.021,16.021 h -96.13 c -8.812,0 -16.021,-7.21 -16.021,-16.021 v 0 c 0,-8.813 7.209,-16.021 16.021,-16.021 h 96.13 c 8.811,-0.001 16.021,7.208 16.021,16.021 z"
       id="path111" />
    <path
       style="fill:#73af55"
       d="m 227.28,111.47 c 0,-8.813 7.21,-16.021 16.021,-16.021 h -35.367 c -8.812,0 -16.021,7.209 -16.021,16.021 0,8.812 7.209,16.021 16.021,16.021 h 35.367 c -8.811,0 -16.021,-7.21 -16.021,-16.021 z"
       id="path113" />
    <circle
       style="fill:#ffffff"
       cx="256.284"
       cy="319.996"
       r="103.001"
       id="circle115" />
    <path
       style="fill:#9bdc6e"
       d="m 256,303.731 c -21.713,0 -40.055,-12.842 -40.055,-28.038 0,-15.195 18.341,-28.037 40.055,-28.037 18.056,0 34.409,9.016 38.885,21.438 0.779,2.151 1.17,4.373 1.17,6.599 0,8.848 7.173,16.021 16.021,16.021 8.848,0 16.021,-7.174 16.021,-16.021 0,-5.941 -1.033,-11.813 -3.066,-17.461 -7.605,-21.109 -28.013,-36.313 -53.01,-40.976 v -1.645 c 0,-8.848 -7.174,-16.021 -16.021,-16.021 -8.847,0 -16.021,7.174 -16.021,16.021 v 1.547 c -32.057,6.094 -56.076,29.997 -56.076,58.534 0,33.131 32.344,60.082 72.098,60.082 21.712,0 40.055,12.841 40.055,28.038 0,15.195 -18.341,28.037 -40.055,28.037 -21.714,0 -40.055,-12.842 -40.055,-28.037 0,-8.849 -7.174,-16.021 -16.021,-16.021 -8.848,0 -16.021,7.173 -16.021,16.021 0,28.536 24.019,52.44 56.076,58.534 v 1.547 c 0,8.848 7.174,16.021 16.021,16.021 8.847,0 16.021,-7.174 16.021,-16.021 v -1.547 c 32.057,-6.094 56.076,-29.997 56.076,-58.534 0,-33.131 -32.344,-60.081 -72.098,-60.081 z"
       id="path117" />
    <g
       id="g123">
      <path
         style="fill:#2d2b29"
         d="M 425.314,232.777 C 397.758,187.876 361.3,148.675 324.467,124.133 c 2.292,-3.68 3.621,-8.019 3.621,-12.663 0,-9.77 -5.865,-18.189 -14.257,-21.939 l 17.286,-67.8 c 1.908,-6.755 0.675,-13.008 -3.392,-17.173 -4.093,-4.19 -10.367,-5.565 -17.213,-3.765 -0.135,0.035 -0.27,0.074 -0.402,0.116 -0.326,0.104 -32.734,10.45 -43.498,13.542 -6.928,1.985 -19.089,1.997 -26.025,0.021 C 229.71,11.373 196.959,0.985 196.629,0.88 196.497,0.838 196.363,0.799 196.23,0.765 c -6.848,-1.787 -13.122,-0.408 -17.213,3.787 -4.091,4.195 -5.313,10.503 -3.353,17.307 0.024,0.085 0.05,0.169 0.078,0.253 l 21.937,67.641 c -8.128,3.854 -13.765,12.139 -13.765,21.716 0,4.646 1.329,8.983 3.622,12.663 C 150.703,148.674 114.245,187.876 86.689,232.776 56.4,282.13 39.718,332.933 39.718,375.828 c 0,41.456 12.289,74.189 36.527,97.289 27.07,25.802 68.683,38.885 123.68,38.885 h 112.153 c 54.998,0 96.609,-13.082 123.68,-38.885 24.237,-23.101 36.526,-55.834 36.526,-97.289 -10e-4,-42.894 -16.681,-93.698 -46.97,-143.051 z M 272.067,119.491 c -0.002,0 -0.005,0 -0.008,0 h -32.112 c -0.006,0 -0.012,0 -0.018,0 h -31.993 c -4.423,0 -8.021,-3.599 -8.021,-8.021 0,-4.417 3.59,-8.012 8.006,-8.021 0.005,0 0.009,0.001 0.014,0.001 0.008,0 0.017,-0.002 0.025,-0.002 h 40.007 c 0.009,0 0.018,0.002 0.026,0.002 0.014,0 0.028,-0.002 0.042,-0.002 h 15.934 c 0.014,0 0.027,0.002 0.042,0.002 0.009,0 0.017,-0.002 0.026,-0.002 h 40.031 c 4.423,0 8.021,3.599 8.021,8.021 0,4.422 -3.599,8.021 -8.021,8.021 z M 190.757,16.003 c 0.321,0.02 0.741,0.076 1.259,0.201 3.181,1.009 33.441,10.597 44.188,13.657 9.768,2.78 25.062,2.769 34.821,-0.031 10.628,-3.053 40.553,-12.594 43.723,-13.606 0.506,-0.123 0.919,-0.18 1.237,-0.201 -0.032,0.354 -0.111,0.824 -0.28,1.408 -0.022,0.079 -0.044,0.158 -0.064,0.238 L 297.85,87.448 h -22.021 l 11.633,-29.083 c 1.641,-4.102 -0.354,-8.758 -4.457,-10.398 -4.103,-1.64 -8.758,0.354 -10.399,4.457 l -14.01,35.024 h -5.189 l -14.01,-35.024 c -1.641,-4.104 -6.296,-6.098 -10.399,-4.457 -4.102,1.641 -6.098,6.297 -4.457,10.398 l 11.633,29.083 H 213.752 L 191.009,17.322 c -0.152,-0.545 -0.223,-0.985 -0.252,-1.319 z m 121.32,479.998 H 199.924 c -95.688,0 -144.207,-40.433 -144.207,-120.174 0,-81.498 66.433,-191.734 145.285,-241.36 2.196,0.664 4.523,1.024 6.933,1.024 h 17.095 l -7.729,11.595 c -2.451,3.676 -1.458,8.644 2.219,11.094 1.364,0.909 2.905,1.345 4.43,1.345 2.585,0 5.122,-1.251 6.664,-3.563 l 13.646,-20.47 h 23.48 l 13.646,20.47 c 1.542,2.313 4.078,3.563 6.664,3.563 1.525,0 3.066,-0.436 4.43,-1.345 3.676,-2.45 4.67,-7.418 2.219,-11.094 l -7.729,-11.595 h 17.095 c 2.41,0 4.736,-0.36 6.933,-1.024 78.852,49.627 145.285,159.862 145.285,241.36 0,79.743 -48.518,120.174 -144.206,120.174 z"
         id="path119" />
      <path
         style="fill:#2d2b29"
         d="m 256,255.654 c 14.56,0 28.041,6.943 31.361,16.16 0.459,1.27 0.692,2.574 0.692,3.877 0,13.245 10.776,24.021 24.021,24.021 13.245,0 24.021,-10.776 24.021,-24.021 0,-6.862 -1.191,-13.648 -3.541,-20.173 -7.882,-21.878 -27.475,-38.307 -53.037,-44.802 -2.267,-10.906 -11.952,-19.128 -23.521,-19.128 -11.545,0 -21.214,8.188 -23.506,19.061 -14.892,3.899 -28.328,11.508 -38.313,21.784 -11.788,12.132 -18.279,27.494 -18.279,43.258 0,37.541 35.931,68.082 80.098,68.082 18.346,0 32.054,10.579 32.054,20.037 0,9.459 -13.708,20.038 -32.054,20.038 -18.346,0 -32.054,-10.579 -32.054,-20.038 0,-13.245 -10.776,-24.021 -24.021,-24.021 -13.245,0 -24.021,10.776 -24.021,24.022 0,15.764 6.491,31.126 18.278,43.259 9.984,10.276 23.42,17.885 38.313,21.784 2.292,10.873 11.961,19.061 23.506,19.061 11.545,0 21.214,-8.188 23.506,-19.061 14.892,-3.899 28.328,-11.508 38.313,-21.784 11.787,-12.132 18.278,-27.494 18.278,-43.259 0,-37.54 -35.931,-68.081 -80.098,-68.081 -18.346,0 -32.054,-10.579 -32.054,-20.038 0.004,-9.458 13.712,-20.038 32.058,-20.038 z m 0,56.077 c 35.343,0 64.098,23.363 64.098,52.081 0,23.903 -20.847,45.216 -49.57,50.676 -3.774,0.718 -6.506,4.018 -6.506,7.859 v 1.547 c 0,4.423 -3.599,8.021 -8.021,8.021 -4.422,0 -8.021,-3.599 -8.021,-8.021 v -1.547 c 0,-3.842 -2.731,-7.142 -6.506,-7.859 -28.723,-5.46 -49.57,-26.771 -49.57,-50.676 0,-4.423 3.599,-8.021 8.021,-8.021 4.422,0 8.021,3.599 8.021,8.021 0,19.871 21.557,36.038 48.055,36.038 26.498,0 48.055,-16.167 48.055,-36.038 0,-19.871 -21.557,-36.037 -48.055,-36.037 -35.343,0 -64.098,-23.363 -64.098,-52.082 0,-23.902 20.847,-45.215 49.57,-50.675 3.774,-0.718 6.506,-4.018 6.506,-7.859 v -1.547 c 0,-4.423 3.599,-8.021 8.021,-8.021 4.422,0 8.021,3.599 8.021,8.021 v 1.645 c 0,3.853 2.746,7.158 6.534,7.864 22.511,4.198 40.501,17.924 46.949,35.821 1.721,4.778 2.594,9.741 2.594,14.75 0,4.423 -3.599,8.021 -8.021,8.021 -4.422,0 -8.021,-3.599 -8.021,-8.021 0,-3.164 -0.554,-6.3 -1.643,-9.31 -5.668,-15.737 -24.753,-26.728 -46.412,-26.728 -26.497,0 -48.055,16.166 -48.055,36.037 0.001,19.872 21.557,36.04 48.054,36.04 z"
         id="path121" />
    </g>
    <g
       id="g125" />
    <g
       id="g127" />
    <g
       id="g129" />
    <g
       id="g131" />
    <g
       id="g133" />
    <g
       id="g135" />
    <g
       id="g137" />
    <g
       id="g139" />
    <g
       id="g141" />
    <g
       id="g143" />
    <g
       id="g145" />
    <g
       id="g147" />
    <g
       id="g149" />
    <g
       id="g151" />
    <g
       id="g153" />
  </g>
</svg>
