<?xml version="1.0" encoding="utf-8"?>
<!-- Generator: Adobe Illustrator 16.0.0, SVG Export Plug-In . SVG Version: 6.00 Build 0)  -->
<!DOCTYPE svg PUBLIC "-//W3C//DTD SVG 1.1//EN" "http://www.w3.org/Graphics/SVG/1.1/DTD/svg11.dtd">
<svg version="1.1" id="Layer_1" xmlns="http://www.w3.org/2000/svg" xmlns:xlink="http://www.w3.org/1999/xlink" x="0px" y="0px"
	 width="15.028px" height="21.546px" viewBox="0 0 15.028 21.546" enable-background="new 0 0 15.028 21.546" xml:space="preserve">
<path fill="#C1C1C1" d="M3.009,18.454c-0.309,0.309-0.309,0.81,0,1.119l0,0c0.309,0.309,0.811,0.309,1.119,0l8.102-8.102
	c0.31-0.311,0.309-0.812,0-1.12l0,0c-0.31-0.31-0.811-0.31-1.12,0L3.009,18.454z"/>
<path fill="#C1C1C1" d="M11.118,11.465c0.309,0.309,0.81,0.309,1.119,0l0,0c0.309-0.309,0.309-0.811,0-1.119L4.135,2.243
	c-0.311-0.31-0.812-0.309-1.12,0l0,0c-0.31,0.31-0.31,0.811,0,1.12L11.118,11.465z"/>
</svg>
