<svg xmlns="http://www.w3.org/2000/svg" width="32" height="32" viewBox="0 0 32 32"><title>alert-octagon</title><path d="M30.296 9.015l-7.874-7.874c-.133-.267-.534-.4-.934-.4H10.544c-.4 0-.801.133-.934.4L1.736 9.015c-.267.133-.4.534-.4.934v11.077c0 .4.133.667.4.934l7.874 7.874c.133.133.534.267.934.267h11.077c.4 0 .667-.133.934-.4l7.874-7.874c.267-.267.4-.534.4-.934V9.949c-.133-.4-.267-.801-.534-.934zm-2.269 11.344l-7.074 7.074h-9.876l-7.074-7.074v-9.876l7.074-7.074h10.01l6.94 7.074v9.876zM16.016 8.748c-.801 0-1.335.534-1.335 1.335v5.339c0 .801.534 1.335 1.335 1.335s1.335-.534 1.335-1.335v-5.339c0-.801-.534-1.335-1.335-1.335zm-.935 11.078c-.267.267-.4.534-.4.934s.133.667.4.934.534.4.934.4.667-.133.934-.4.4-.667.4-.934-.133-.667-.4-.934a1.29 1.29 0 00-1.868 0z"/></svg>