<svg xmlns="http://www.w3.org/2000/svg" width="32" height="32" viewBox="0 0 32 32"><title>align-right</title><path d="M28.027 11.417H9.342c-.801 0-1.335.534-1.335 1.335s.534 1.335 1.335 1.335h18.685c.801 0 1.335-.534 1.335-1.335s-.534-1.335-1.335-1.335zM4.004 8.748h24.023c.801 0 1.335-.534 1.335-1.335s-.534-1.335-1.335-1.335H4.004c-.801 0-1.335.534-1.335 1.335s.534 1.335 1.335 1.335zm24.023 8.008H4.004c-.801 0-1.335.534-1.335 1.335s.534 1.335 1.335 1.335h24.023c.801 0 1.335-.534 1.335-1.335s-.534-1.335-1.335-1.335zm0 5.338H9.342c-.801 0-1.335.534-1.335 1.335s.534 1.335 1.335 1.335h18.685c.801 0 1.335-.534 1.335-1.335s-.534-1.335-1.335-1.335z"/></svg>