<svg xmlns="http://www.w3.org/2000/svg" width="32" height="32" viewBox="0 0 32 32"><title>align-left</title><path d="M4.004 14.087h18.685c.801 0 1.335-.534 1.335-1.335s-.534-1.335-1.335-1.335H4.004c-.801 0-1.335.534-1.335 1.335s.534 1.335 1.335 1.335zm0-5.339h24.023c.801 0 1.335-.534 1.335-1.335s-.534-1.335-1.335-1.335H4.004c-.801 0-1.335.534-1.335 1.335s.534 1.335 1.335 1.335zm24.023 8.008H4.004c-.801 0-1.335.534-1.335 1.335s.534 1.335 1.335 1.335h24.023c.801 0 1.335-.534 1.335-1.335s-.534-1.335-1.335-1.335zm-5.338 5.338H4.004c-.801 0-1.335.534-1.335 1.335s.534 1.335 1.335 1.335h18.685c.801 0 1.335-.534 1.335-1.335s-.534-1.335-1.335-1.335z"/></svg>