<svg xmlns="http://www.w3.org/2000/svg" width="32" height="32" viewBox="0 0 32 32"><title>align-center</title><path d="M8.008 11.417c-.801 0-1.335.534-1.335 1.335s.534 1.335 1.335 1.335h16.016c.801 0 1.335-.534 1.335-1.335s-.534-1.335-1.335-1.335H8.008zM4.004 8.748h24.023c.801 0 1.335-.534 1.335-1.335s-.534-1.335-1.335-1.335H4.004c-.801 0-1.335.534-1.335 1.335s.534 1.335 1.335 1.335zm24.023 8.008H4.004c-.801 0-1.335.534-1.335 1.335s.534 1.335 1.335 1.335h24.023c.801 0 1.335-.534 1.335-1.335s-.534-1.335-1.335-1.335zm-4.004 5.338H8.007c-.801 0-1.335.534-1.335 1.335s.534 1.335 1.335 1.335h16.016c.801 0 1.335-.534 1.335-1.335s-.534-1.335-1.335-1.335z"/></svg>