<svg xmlns="http://www.w3.org/2000/svg" width="32" height="32" viewBox="0 0 32 32"><title>amazon</title><path d="M27.724 27.076c.536-.268.947.143.393.858s-5.005 4.79-12.476 4.79S2.45 27.612.698 25.503c-.483-.554.072-.804.393-.59 5.237 3.182 13.424 8.419 26.633 2.163zm3.7-2.056c.268.358 0 1.93-.465 3.074-.465 1.126-1.144 1.913-1.519 2.216-.393.322-.679.197-.465-.268s1.376-3.325.912-3.932c-.465-.59-2.645-.304-3.432-.232-.769.072-.929.143-1.001-.018-.161-.411 1.555-1.108 2.681-1.251 1.126-.125 2.931-.054 3.289.411zm-7.043-7.918c0 1.966 2.306 3.772 2.306 3.772l-4.058 4.004c-1.591-1.501-2.788-2.753-2.788-2.753a3.397 3.397 0 01-.447-.59c-3.235 5.058-13.12 4.737-13.12-3.092 0-7.293 8.633-8.276 12.119-8.401v-2.27c0-.483.179-2.681-2.538-2.681 0 0-2.717 0-3.879 3.539l-5.255-.483c0-3.521 3.343-7.454 9.634-7.454 6.274 0 8.026 4.075 8.026 5.881v10.528zm-12.012.375c0 3.629 6.024 4.487 6.024-1.233v-2.896c-2.413.072-6.024.751-6.024 4.129z"/></svg>