<svg xmlns="http://www.w3.org/2000/svg" width="32" height="32" viewBox="0 0 32 32"><title>at-sign</title><path d="M16.016.74c-3.87 0-7.607 1.468-10.41 4.271s-4.271 6.54-4.271 10.41a14.64 14.64 0 0014.681 14.681c3.203 0 6.406-1.068 8.942-3.07.534-.4.667-1.335.267-1.868s-1.335-.667-1.868-.267c-2.135 1.602-4.671 2.536-7.34 2.536A11.962 11.962 0 014.005 15.421c0-3.203 1.201-6.273 3.47-8.542s5.339-3.47 8.542-3.47a11.962 11.962 0 0112.012 12.012v1.335c0 1.468-1.201 2.669-2.669 2.669s-2.669-1.201-2.669-2.669v-6.673c0-.801-.534-1.335-1.335-1.335s-1.335.534-1.335 1.335a6.862 6.862 0 00-4.004-1.335c-3.737 0-6.673 2.936-6.673 6.673s2.936 6.673 6.673 6.673c2.002 0 3.737-.934 4.938-2.269a5.365 5.365 0 004.404 2.269c2.936 0 5.339-2.402 5.339-5.339V15.42A14.64 14.64 0 0016.017.739zm0 18.685c-2.269 0-4.004-1.735-4.004-4.004s1.735-4.004 4.004-4.004 4.004 1.735 4.004 4.004-1.735 4.004-4.004 4.004z"/></svg>