<svg xmlns="http://www.w3.org/2000/svg" width="32" height="32" viewBox="0 0 32 32"><title>bar-chart</title><path d="M16.016 11.417c-.801 0-1.335.534-1.335 1.335v13.346c0 .801.534 1.335 1.335 1.335s1.335-.534 1.335-1.335V12.752c0-.801-.534-1.335-1.335-1.335zm8.007-8.007c-.801 0-1.335.534-1.335 1.335v21.354c0 .801.534 1.335 1.335 1.335s1.335-.534 1.335-1.335V4.745c0-.801-.534-1.335-1.335-1.335zM8.008 19.425c-.801 0-1.335.534-1.335 1.335v5.339c0 .801.534 1.335 1.335 1.335s1.335-.534 1.335-1.335V20.76c0-.801-.534-1.335-1.335-1.335z"/></svg>