<svg xmlns="http://www.w3.org/2000/svg" width="32" height="32" viewBox="0 0 32 32"><title>battery</title><path d="M22.689 6.079H4.004C1.735 6.079 0 7.814 0 10.083V20.76c0 2.269 1.735 4.004 4.004 4.004h18.685c2.269 0 4.004-1.735 4.004-4.004V10.083c0-2.269-1.735-4.004-4.004-4.004zm1.334 14.681c0 .801-.534 1.335-1.335 1.335H4.003c-.801 0-1.335-.534-1.335-1.335V10.083c0-.801.534-1.335 1.335-1.335h18.685c.801 0 1.335.534 1.335 1.335V20.76zm6.674-8.008c-.801 0-1.335.534-1.335 1.335v2.669c0 .801.534 1.335 1.335 1.335s1.335-.534 1.335-1.335v-2.669c0-.801-.534-1.335-1.335-1.335z"/></svg>