<svg xmlns="http://www.w3.org/2000/svg" width="32" height="32" viewBox="0 0 32 32"><title>battery-charging</title><path d="M6.673 22.094H4.004c-.801 0-1.335-.534-1.335-1.335V10.082c0-.801.534-1.335 1.335-1.335h4.271c.801 0 1.335-.534 1.335-1.335s-.534-1.335-1.335-1.335H4.004C1.735 6.077 0 7.812 0 10.081v10.677c0 2.269 1.735 4.004 4.004 4.004h2.669c.801 0 1.335-.534 1.335-1.335s-.534-1.335-1.335-1.335zM22.689 6.079H20.02c-.801 0-1.335.534-1.335 1.335s.534 1.335 1.335 1.335h2.669c.801 0 1.335.534 1.335 1.335v10.677c0 .801-.534 1.335-1.335 1.335h-4.271c-.801 0-1.335.534-1.335 1.335s.534 1.335 1.335 1.335h4.271c2.269 0 4.004-1.735 4.004-4.004V10.085c0-2.269-1.735-4.004-4.004-4.004zm8.008 6.673c-.801 0-1.335.534-1.335 1.335v2.669c0 .801.534 1.335 1.335 1.335s1.335-.534 1.335-1.335v-2.669c0-.801-.534-1.335-1.335-1.335zm-12.146 2.002c-.267-.4-.667-.667-1.201-.667h-5.472l4.004-5.872c.4-.667.267-1.468-.4-1.868s-1.468-.267-1.868.4l-5.339 8.008c-.267.4-.267.934 0 1.335.133.4.534.667 1.068.667h5.472l-4.004 5.872c-.4.667-.267 1.468.4 1.868.267.133.534.267.801.267.4 0 .801-.267 1.068-.534l5.339-8.008c.267-.534.4-.934.133-1.468z"/></svg>