<svg xmlns="http://www.w3.org/2000/svg" width="32" height="32" viewBox="0 0 32 32"><title>bell-off</title><path d="M18.952 26.232c-.667-.4-1.468-.133-1.868.534s-1.201.801-1.868.534a1.042 1.042 0 01-.534-.534c-.4-.667-1.201-.801-1.868-.534-.667.4-.801 1.201-.534 1.868.4.667.801 1.068 1.468 1.468s1.335.534 2.002.534c1.335 0 2.669-.667 3.47-2.002.667-.667.4-1.468-.267-1.868zM12.145 4.477c3.87-2.135 8.675-.801 10.944 3.07.534 1.068.934 2.536.934 3.87v5.339c0 .801.534 1.335 1.335 1.335s1.335-.534 1.335-1.335v-5.339c0-1.868-.534-3.604-1.335-5.205-2.936-5.072-9.476-6.94-14.548-4.004-.667.267-.934 1.068-.534 1.735s1.201.801 1.868.534zm19.486 24.691l-8.008-8.008L2.269-.194C1.735-.728.934-.728.401-.194s-.534 1.335 0 1.868L6.14 7.413c-.534 1.335-.801 2.669-.801 4.004v6.673a2.677 2.677 0 01-2.669 2.669c-.801 0-1.335.534-1.335 1.335s.534 1.335 1.335 1.335h19.486l7.607 7.607c.267.267.667.4.934.4s.667-.133.934-.4a1.29 1.29 0 000-1.868zM7.34 20.76c.4-.801.667-1.735.667-2.669v-6.673c0-.667.133-1.335.267-1.868l11.211 11.211H7.34z"/></svg>