<svg xmlns="http://www.w3.org/2000/svg" width="32" height="32" viewBox="0 0 32 32"><title>bell</title><path d="M18.952 26.232c-.667-.4-1.468-.133-1.868.534s-1.201.801-1.868.534a1.042 1.042 0 01-.534-.534c-.4-.667-1.201-.801-1.868-.534-.667.4-.801 1.201-.534 1.868.4.667.801 1.068 1.468 1.468s1.335.534 2.002.534c1.335 0 2.669-.667 3.47-2.002.667-.667.4-1.468-.267-1.868zm10.41-5.472a2.677 2.677 0 01-2.669-2.669v-6.673c0-5.872-4.805-10.677-10.677-10.677S5.339 5.546 5.339 11.418v6.673A2.677 2.677 0 012.67 20.76c-.801 0-1.335.534-1.335 1.335s.534 1.335 1.335 1.335h26.693c.801 0 1.335-.534 1.335-1.335s-.534-1.335-1.335-1.335zm-22.022 0c.4-.801.667-1.735.667-2.669v-6.673c0-4.404 3.604-8.008 8.008-8.008s8.008 3.604 8.008 8.008v6.673c0 .934.267 1.868.667 2.669H7.34z"/></svg>