<svg xmlns="http://www.w3.org/2000/svg" width="32" height="32" viewBox="0 0 32 32"><title>bluetooth</title><path d="M17.884 15.421l6.406-6.406a1.29 1.29 0 000-1.868l-7.34-7.34c-.4-.4-.934-.534-1.468-.267-.534.133-.801.667-.801 1.201v11.478L9.609 7.147c-.534-.534-1.335-.534-1.868 0s-.534 1.335 0 1.868l6.406 6.406-6.406 6.406c-.534.534-.534 1.335 0 1.868s1.335.534 1.868 0l5.072-5.072v11.478c0 .534.267 1.068.801 1.201.133.133.4.133.534.133.4 0 .667-.133.934-.4l7.34-7.34a1.29 1.29 0 000-1.868l-6.406-6.406zM17.35 3.943l4.137 4.137-4.137 4.137V3.942zm0 22.956v-8.275l4.137 4.137-4.137 4.137z"/></svg>