<svg xmlns="http://www.w3.org/2000/svg" width="32" height="32" viewBox="0 0 32 32"><title>bold</title><path d="M23.223 14.887a6.459 6.459 0 002.135-4.805c0-3.737-2.936-6.673-6.673-6.673H8.008c-.801 0-1.335.534-1.335 1.335v21.354c0 .801.534 1.335 1.335 1.335H20.02c3.737 0 6.673-2.936 6.673-6.673 0-2.536-1.468-4.671-3.47-5.872zM9.342 6.079h9.342c2.269 0 4.004 1.735 4.004 4.004s-1.735 4.004-4.004 4.004H9.342V6.079zM20.02 24.764H9.343v-8.008H20.02c2.269 0 4.004 1.735 4.004 4.004s-1.735 4.004-4.004 4.004z"/></svg>