<svg xmlns="http://www.w3.org/2000/svg" width="32" height="32" viewBox="0 0 32 32"><title>book-open</title><path d="M29.362 2.075h-8.008c-2.135 0-4.137 1.068-5.339 2.669-1.201-1.602-3.203-2.669-5.339-2.669H2.668c-.801 0-1.335.534-1.335 1.335v20.02c0 .801.534 1.335 1.335 1.335h9.342a2.677 2.677 0 012.669 2.669c0 .801.534 1.335 1.335 1.335s1.335-.534 1.335-1.335a2.677 2.677 0 012.669-2.669h9.342c.801 0 1.335-.534 1.335-1.335V3.41c0-.801-.534-1.335-1.335-1.335zM14.681 22.762c-.801-.4-1.735-.667-2.669-.667H4.004V4.745h6.673c2.269 0 4.004 1.735 4.004 4.004v14.014zm13.346-.668h-8.008c-.934 0-1.868.267-2.669.667V8.747c0-2.269 1.735-4.004 4.004-4.004h6.673v17.35z"/></svg>