<svg xmlns="http://www.w3.org/2000/svg" width="32" height="32" viewBox="0 0 32 32"><title>briefcase</title><path d="M26.693 7.413h-4.004V6.078c0-2.269-1.735-4.004-4.004-4.004h-5.339c-2.269 0-4.004 1.735-4.004 4.004v1.335H5.338c-2.269 0-4.004 1.735-4.004 4.004v13.346c0 2.269 1.735 4.004 4.004 4.004h21.354c2.269 0 4.004-1.735 4.004-4.004V11.417c0-2.269-1.735-4.004-4.004-4.004zM12.012 6.079c0-.801.534-1.335 1.335-1.335h5.339c.801 0 1.335.534 1.335 1.335v1.335h-8.008V6.079zm8.008 4.004v16.016h-8.008V10.083h8.008zM4.004 24.764V11.418c0-.801.534-1.335 1.335-1.335h4.004v16.016H5.339c-.801 0-1.335-.534-1.335-1.335zm24.023 0c0 .801-.534 1.335-1.335 1.335h-4.004V10.083h4.004c.801 0 1.335.534 1.335 1.335v13.346z"/></svg>