<svg xmlns="http://www.w3.org/2000/svg" width="32" height="32" viewBox="0 0 32 32"><title>calendar</title><path d="M25.358 3.41h-2.669V2.075c0-.801-.534-1.335-1.335-1.335s-1.335.534-1.335 1.335V3.41h-8.008V2.075c0-.801-.534-1.335-1.335-1.335s-1.335.534-1.335 1.335V3.41H6.672c-2.269 0-4.004 1.735-4.004 4.004v18.685c0 2.269 1.735 4.004 4.004 4.004h18.685c2.269 0 4.004-1.735 4.004-4.004V7.414c0-2.269-1.735-4.004-4.004-4.004zM6.673 6.079h2.669v1.335c0 .801.534 1.335 1.335 1.335s1.335-.534 1.335-1.335V6.079h8.008v1.335c0 .801.534 1.335 1.335 1.335s1.335-.534 1.335-1.335V6.079h2.669c.801 0 1.335.534 1.335 1.335v4.004H5.34V7.414c0-.801.534-1.335 1.335-1.335zm18.685 21.354H6.673c-.801 0-1.335-.534-1.335-1.335V14.086h21.354v12.012c0 .801-.534 1.335-1.335 1.335z"/></svg>