<svg xmlns="http://www.w3.org/2000/svg" width="32" height="32" viewBox="0 0 32 32"><title>camera</title><path d="M28.027 6.079h-4.671l-2.269-3.47c-.267-.267-.667-.534-1.068-.534h-8.008c-.4 0-.801.267-1.068.534l-2.269 3.47H4.003c-2.269 0-4.004 1.735-4.004 4.004v14.681c0 2.269 1.735 4.004 4.004 4.004h24.023c2.269 0 4.004-1.735 4.004-4.004V10.083c0-2.269-1.735-4.004-4.004-4.004zm1.335 18.685c0 .801-.534 1.335-1.335 1.335H4.004c-.801 0-1.335-.534-1.335-1.335V10.083c0-.801.534-1.335 1.335-1.335h5.339c.4 0 .801-.267 1.068-.534l2.269-3.47h6.54l2.269 3.47c.4.267.801.534 1.201.534h5.339c.801 0 1.335.534 1.335 1.335v14.681zM16.016 10.083c-3.737 0-6.673 2.936-6.673 6.673s2.936 6.673 6.673 6.673 6.673-2.936 6.673-6.673-2.936-6.673-6.673-6.673zm0 10.677c-2.269 0-4.004-1.735-4.004-4.004s1.735-4.004 4.004-4.004 4.004 1.735 4.004 4.004-1.735 4.004-4.004 4.004z"/></svg>