<svg xmlns="http://www.w3.org/2000/svg" width="32" height="32" viewBox="0 0 32 32"><title>cast</title><path d="M2.936 19.559c-.667-.133-1.468.4-1.602 1.068s.267 1.468 1.068 1.602c2.135.4 3.737 2.002 4.137 4.137.133.667.667 1.068 1.335 1.068h.267a1.385 1.385 0 001.068-1.602c-.667-3.203-3.07-5.605-6.273-6.273zM26.693 3.41H5.339c-2.269 0-4.004 1.735-4.004 4.004v2.669c0 .801.534 1.335 1.335 1.335s1.335-.534 1.335-1.335V7.414c0-.801.534-1.335 1.335-1.335h21.354c.801 0 1.335.534 1.335 1.335V23.43c0 .801-.534 1.335-1.335 1.335h-8.008c-.801 0-1.335.534-1.335 1.335s.534 1.335 1.335 1.335h8.008c2.269 0 4.004-1.735 4.004-4.004V7.415c0-2.269-1.735-4.004-4.004-4.004zM2.803 14.22c-.667-.133-1.335.4-1.468 1.201-.133.667.4 1.335 1.201 1.468 4.938.534 8.809 4.404 9.476 9.476 0 .534.534 1.068 1.201 1.068h.133c.667-.133 1.201-.801 1.201-1.468-.667-6.273-5.472-11.077-11.745-11.745zM1.735 25.164c-.267.267-.4.534-.4.934s.133.667.4.934.534.4.934.4.667-.133.934-.4.4-.534.4-.934-.133-.667-.4-.934a1.29 1.29 0 00-1.868 0z"/></svg>