<svg xmlns="http://www.w3.org/2000/svg" width="32" height="32" viewBox="0 0 32 32"><title>check-circle</title><path d="M29.362 12.886c-.801 0-1.335.534-1.335 1.335v1.201a11.962 11.962 0 01-12.012 12.012c-6.673 0-12.012-5.339-12.012-12.012S9.342 3.41 16.015 3.41c1.735 0 3.337.4 4.938 1.068.667.267 1.468 0 1.735-.667s0-1.468-.667-1.735c-1.868-.801-3.87-1.335-6.006-1.335-8.141 0-14.681 6.54-14.681 14.681s6.54 14.681 14.681 14.681a14.64 14.64 0 0014.681-14.681v-1.201c0-.801-.534-1.335-1.335-1.335zm-16.416.266c-.534-.534-1.335-.534-1.868 0s-.534 1.335 0 1.868l4.004 4.004c.267.267.534.4.934.4s.667-.133.934-.4L30.296 5.678c.534-.534.534-1.335 0-1.868s-1.335-.534-1.868 0L16.016 16.222l-3.07-3.07z"/></svg>