<svg xmlns="http://www.w3.org/2000/svg" width="32" height="32" viewBox="0 0 32 32"><title>check-square</title><path d="M30.296 3.81a1.29 1.29 0 00-1.868 0L16.016 16.222l-3.07-3.07c-.534-.534-1.335-.534-1.868 0s-.534 1.335 0 1.868l4.004 4.004c.267.267.667.4.934.4s.667-.133.934-.4L30.296 5.678a1.29 1.29 0 000-1.868zm-2.269 10.277c-.801 0-1.335.534-1.335 1.335v9.342c0 .801-.534 1.335-1.335 1.335H6.672c-.801 0-1.335-.534-1.335-1.335V6.079c0-.801.534-1.335 1.335-1.335h14.681c.801 0 1.335-.534 1.335-1.335s-.534-1.335-1.335-1.335H6.672c-2.269 0-4.004 1.735-4.004 4.004v18.685c0 2.269 1.735 4.004 4.004 4.004h18.685c2.269 0 4.004-1.735 4.004-4.004v-9.342c0-.801-.534-1.335-1.335-1.335z"/></svg>