<svg xmlns="http://www.w3.org/2000/svg" width="32" height="32" viewBox="0 0 32 32"><title>chevrons-down</title><path d="M21.755 15.822l-5.739 5.739-5.739-5.739c-.534-.534-1.335-.534-1.868 0s-.534 1.335 0 1.868l6.673 6.673c.267.267.667.4.934.4s.667-.133.934-.4l6.673-6.673c.534-.534.534-1.335 0-1.868s-1.335-.534-1.868 0zm-6.674-.801c.267.267.667.4.934.4s.667-.133.934-.4l6.673-6.673c.534-.534.534-1.335 0-1.868s-1.335-.534-1.868 0l-5.739 5.739-5.739-5.739c-.534-.534-1.335-.534-1.868 0s-.534 1.335 0 1.868l6.673 6.673z"/></svg>