<svg xmlns="http://www.w3.org/2000/svg" width="32" height="32" viewBox="0 0 32 32"><title>chevrons-right</title><path d="M24.958 14.487l-6.673-6.673c-.534-.534-1.335-.534-1.868 0s-.534 1.335 0 1.868l5.739 5.739-5.739 5.739a1.29 1.29 0 000 1.868c.267.267.667.4.934.4s.667-.133.934-.4l6.673-6.673a1.29 1.29 0 000-1.868zm-9.343 0L8.942 7.814c-.534-.534-1.335-.534-1.868 0s-.534 1.335 0 1.868l5.739 5.739-5.739 5.739a1.29 1.29 0 000 1.868c.267.267.534.4.934.4s.667-.133.934-.4l6.673-6.673a1.29 1.29 0 000-1.868z"/></svg>