<svg xmlns="http://www.w3.org/2000/svg" width="32" height="32" viewBox="0 0 32 32"><title>clock</title><path d="M16.016.74C7.875.74 1.335 7.28 1.335 15.421s6.54 14.681 14.681 14.681 14.681-6.54 14.681-14.681S24.157.74 16.016.74zm0 26.693c-6.673 0-12.012-5.339-12.012-12.012S9.343 3.409 16.016 3.409s12.012 5.339 12.012 12.012-5.339 12.012-12.012 12.012zm5.872-10.544L17.35 14.62V7.413c0-.801-.534-1.335-1.335-1.335s-1.335.534-1.335 1.335v8.008c0 .534.267.934.801 1.201l5.339 2.669c.133.133.267.133.534.133.534 0 .934-.267 1.201-.801s0-1.335-.667-1.735z"/></svg>