<svg xmlns="http://www.w3.org/2000/svg" width="32" height="32" viewBox="0 0 32 32"><title>cloud-drizzle</title><path d="M10.677 23.429c-.801 0-1.335.534-1.335 1.335v2.669c0 .801.534 1.335 1.335 1.335s1.335-.534 1.335-1.335v-2.669c0-.801-.534-1.335-1.335-1.335zm0-8.008c-.801 0-1.335.534-1.335 1.335v2.669c0 .801.534 1.335 1.335 1.335s1.335-.534 1.335-1.335v-2.669c0-.801-.534-1.335-1.335-1.335zm10.677 8.008c-.801 0-1.335.534-1.335 1.335v2.669c0 .801.534 1.335 1.335 1.335s1.335-.534 1.335-1.335v-2.669c0-.801-.534-1.335-1.335-1.335zm0-8.008c-.801 0-1.335.534-1.335 1.335v2.669c0 .801.534 1.335 1.335 1.335s1.335-.534 1.335-1.335v-2.669c0-.801-.534-1.335-1.335-1.335zm-5.338 10.677c-.801 0-1.335.534-1.335 1.335v2.669c0 .801.534 1.335 1.335 1.335s1.335-.534 1.335-1.335v-2.669c0-.801-.534-1.335-1.335-1.335zm0-8.007c-.801 0-1.335.534-1.335 1.335v2.669c0 .801.534 1.335 1.335 1.335s1.335-.534 1.335-1.335v-2.669c0-.801-.534-1.335-1.335-1.335zm15.348-5.873c-1.335-2.936-4.137-4.805-7.34-4.805h-.667C21.355 1.541 15.082-1.796 9.076-.194 2.536 1.408-1.334 7.947.401 14.487c.667 2.536 2.135 4.805 4.137 6.406.534.4 1.468.4 1.868-.267.4-.534.4-1.468-.267-1.868-1.602-1.201-2.669-3.07-3.203-4.938C1.601 8.882 4.671 3.677 9.609 2.476c4.938-1.335 10.143 1.735 11.344 6.673.133.534.667 1.068 1.335 1.068h1.735c2.135 0 4.004 1.201 4.938 3.203.534 1.335.667 2.803.133 4.137s-1.468 2.402-2.803 2.936c-.667.267-.934 1.068-.667 1.735.267.534.667.801 1.201.801.133 0 .4 0 .534-.133 2.002-.801 3.47-2.402 4.271-4.404.667-2.135.534-4.271-.267-6.273z"/></svg>