<svg xmlns="http://www.w3.org/2000/svg" width="32" height="32" viewBox="0 0 32 32"><title>cloud-lightning</title><path d="M31.898 13.82c-.801-3.737-4.137-6.406-7.874-6.406h-.667C21.355 1.542 15.082-1.795 9.076-.193 5.873.608 3.337 2.61 1.602 5.279 0 8.082-.533 11.285.267 14.355c.801 3.203 2.936 5.872 5.872 7.474.667.4 1.468.267 1.868-.4s.133-1.468-.534-1.868c-2.269-1.201-3.87-3.337-4.538-5.872-.667-2.402-.267-4.805 1.068-7.074C5.204 4.48 7.34 2.878 9.742 2.344c4.938-1.335 10.143 1.735 11.344 6.673.133.534.667 1.068 1.335 1.068h1.602c2.536 0 4.671 1.735 5.205 4.271.534 2.936-1.335 5.739-4.137 6.273a1.385 1.385 0 00-1.068 1.602c.133.667.667 1.068 1.335 1.068h.267c4.271-.934 7.074-5.205 6.273-9.476zM20.02 20.76h-5.472l4.004-5.872c.4-.667.267-1.468-.4-1.868s-1.468-.267-1.868.4l-5.339 8.008c-.267.4-.267.934 0 1.335.133.4.534.667 1.068.667h5.472l-4.004 5.872c-.4.667-.267 1.468.4 1.868.267.133.534.267.801.267.4 0 .801-.267 1.068-.534l5.339-8.008c.267-.4.267-.934 0-1.335s-.534-.801-1.068-.801z"/></svg>