<svg xmlns="http://www.w3.org/2000/svg" width="32" height="32" viewBox="0 0 32 32"><title>cloud-snow</title><path d="M31.364 13.553c-1.335-2.936-4.137-4.805-7.34-4.805h-.667C21.355 2.876 15.082-.461 9.076 1.141 2.536 2.743-1.334 9.282.401 15.822c.667 2.536 2.135 4.805 4.137 6.406.534.4 1.468.4 1.868-.267.4-.534.4-1.468-.267-1.868-1.602-1.201-2.669-3.07-3.203-4.938C1.601 10.217 4.671 5.012 9.609 3.811c4.938-1.335 10.143 1.735 11.344 6.673.133.534.667 1.068 1.335 1.068h1.735c2.135 0 4.004 1.201 4.938 3.203.534 1.335.667 2.803.133 4.137s-1.468 2.402-2.803 2.936c-.667.267-.934 1.068-.667 1.735.267.534.667.801 1.201.801.133 0 .4 0 .534-.133 2.002-.801 3.47-2.402 4.271-4.404.667-2.135.534-4.271-.267-6.273zM9.743 19.826c-.267.267-.4.534-.4.934s.133.667.4.934.534.4.934.4.667-.133.934-.4.4-.534.4-.934-.133-.667-.4-.934a1.29 1.29 0 00-1.868 0zm0 5.338c-.267.267-.4.534-.4.934s.133.667.4.934.534.4.934.4.667-.133.934-.4.4-.534.4-.934-.133-.667-.4-.934a1.29 1.29 0 00-1.868 0zm5.338-2.669c-.267.267-.4.534-.4.934s.133.667.4.934.534.4.934.4.667-.133.934-.4.4-.667.4-.934-.133-.667-.4-.934a1.29 1.29 0 00-1.868 0zm0 5.338c-.267.267-.4.534-.4.934s.133.667.4.934.534.4.934.4.667-.133.934-.4.4-.667.4-.934-.133-.667-.4-.934a1.29 1.29 0 00-1.868 0zm5.339-8.007c-.267.267-.4.534-.4.934s.133.667.4.934.667.4.934.4.667-.133.934-.4.4-.667.4-.934-.133-.667-.4-.934a1.29 1.29 0 00-1.868 0zm0 5.338c-.267.267-.4.534-.4.934s.133.667.4.934.667.4.934.4.667-.133.934-.4.4-.667.4-.934-.133-.667-.4-.934a1.29 1.29 0 00-1.868 0z"/></svg>