<svg xmlns="http://www.w3.org/2000/svg" width="32" height="32" viewBox="0 0 32 32"><title>cloud-off</title><path d="M12.813 6.079c4.004.4 7.207 3.203 8.275 6.94.133.534.667 1.068 1.335 1.068h1.602a6.04 6.04 0 012.135.4c2.669 1.201 4.004 4.271 2.803 6.94-.267.667 0 1.468.667 1.735.133.133.4.133.534.133.534 0 1.068-.267 1.201-.801 1.735-4.004-.133-8.809-4.271-10.544-.934-.267-2.002-.534-3.07-.534h-.667c-1.602-4.404-5.605-7.607-10.277-8.008-.801 0-1.335.534-1.468 1.201-.133.801.534 1.335 1.201 1.468zM2.269-.194C1.735-.728.934-.728.401-.194s-.534 1.335 0 1.868l4.137 4.137C2.536 7.413 1.068 9.548.267 12.084c-.934 3.07-.534 6.273 1.068 9.076 2.135 3.87 6.139 6.273 10.544 6.273h12.145c.667 0 1.201-.133 1.868-.267l3.87 3.87c.267.267.667.4.934.4s.667-.133.934-.4a1.29 1.29 0 000-1.868L2.268-.194zm9.743 24.958a8.927 8.927 0 01-8.275-4.805c-1.201-2.135-1.468-4.671-.801-7.074.534-2.135 1.868-3.87 3.604-5.072l16.95 16.95H12.012z"/></svg>