<svg xmlns="http://www.w3.org/2000/svg" width="32" height="32" viewBox="0 0 32 32"><title>code</title><path d="M30.296 14.487l-8.008-8.008c-.534-.534-1.335-.534-1.868 0s-.534 1.335 0 1.868l7.074 7.074-7.074 7.074a1.29 1.29 0 000 1.868c.267.267.667.4.934.4s.667-.133.934-.4l8.008-8.008a1.29 1.29 0 000-1.868zM11.611 6.479a1.29 1.29 0 00-1.868 0l-8.008 8.008a1.29 1.29 0 000 1.868l8.008 8.008c.267.267.534.4.934.4s.667-.133.934-.4a1.29 1.29 0 000-1.868l-7.074-7.074 7.074-7.074a1.29 1.29 0 000-1.868z"/></svg>