<svg xmlns="http://www.w3.org/2000/svg" width="32" height="32" viewBox="0 0 32 32"><title>compass</title><path d="M16.016.74C7.875.74 1.335 7.28 1.335 15.421s6.54 14.681 14.681 14.681 14.681-6.54 14.681-14.681S24.157.74 16.016.74zm0 26.693c-6.673 0-12.012-5.339-12.012-12.012S9.343 3.409 16.016 3.409s12.012 5.339 12.012 12.012-5.339 12.012-12.012 12.012zm5.205-18.952l-8.408 2.803c-.4.133-.801.534-.934.934L9.076 20.76c-.133.534 0 1.068.267 1.335s.534.4.934.4c.133 0 .267 0 .4-.133l8.542-2.803c.4-.133.667-.4.801-.801l2.803-8.542c.133-.534 0-1.068-.267-1.335-.267-.4-.801-.534-1.335-.4zm-3.47 8.675l-5.339 1.735 1.735-5.339 5.339-1.735-1.735 5.339z"/></svg>