<svg xmlns="http://www.w3.org/2000/svg" width="32" height="32" viewBox="0 0 32 32"><title>corner-right-down</title><path d="M27.627 18.491a1.29 1.29 0 00-1.868 0l-4.404 4.404V10.082c0-3.737-2.936-6.673-6.673-6.673H5.34c-.801 0-1.335.534-1.335 1.335s.534 1.335 1.335 1.335h9.342c2.269 0 4.004 1.735 4.004 4.004v12.813l-4.404-4.404c-.534-.534-1.335-.534-1.868 0s-.534 1.335 0 1.868l6.673 6.673c.133.133.267.267.4.267.133.133.4.133.534.133s.4 0 .534-.133c.133-.133.267-.133.4-.267l6.673-6.673a1.29 1.29 0 000-1.868z"/></svg>