<svg xmlns="http://www.w3.org/2000/svg" width="32" height="32" viewBox="0 0 32 32"><title>corner-left-up</title><path d="M26.693 24.764h-9.342c-2.269 0-4.004-1.735-4.004-4.004V7.947l4.404 4.404c.267.267.534.4.934.4s.667-.133.934-.4a1.29 1.29 0 000-1.868L12.946 3.81c-.133-.133-.267-.267-.4-.267-.4-.133-.667-.133-1.068 0-.133 0-.267.133-.4.267l-6.673 6.673c-.534.534-.534 1.335 0 1.868s1.335.534 1.868 0l4.404-4.404V20.76c0 3.737 2.936 6.673 6.673 6.673h9.342c.801 0 1.335-.534 1.335-1.335s-.534-1.335-1.335-1.335z"/></svg>