<svg xmlns="http://www.w3.org/2000/svg" width="32" height="32" viewBox="0 0 32 32"><title>corner-left-down</title><path d="M26.693 3.41h-9.342c-3.737 0-6.673 2.936-6.673 6.673v12.813l-4.404-4.404c-.534-.534-1.335-.534-1.868 0s-.534 1.335 0 1.868l6.673 6.673c.133.133.267.267.4.267.133.133.4.133.534.133s.4 0 .534-.133c.133-.133.267-.133.4-.267l6.673-6.673c.534-.534.534-1.335 0-1.868s-1.335-.534-1.868 0l-4.404 4.404V10.083c0-2.269 1.735-4.004 4.004-4.004h9.342c.801 0 1.335-.534 1.335-1.335s-.534-1.335-1.335-1.335z"/></svg>