<svg xmlns="http://www.w3.org/2000/svg" width="32" height="32" viewBox="0 0 32 32"><title>corner-down-left</title><path d="M26.693 3.41c-.801 0-1.335.534-1.335 1.335v9.342c0 2.269-1.735 4.004-4.004 4.004H8.541l4.404-4.404c.534-.534.534-1.335 0-1.868s-1.335-.534-1.868 0l-6.673 6.673c-.133.133-.267.267-.267.4-.133.267-.133.667 0 1.068.133.133.133.267.267.4l6.673 6.673c.267.267.534.4.934.4s.667-.133.934-.4a1.29 1.29 0 000-1.868l-4.404-4.404h12.812c3.737 0 6.673-2.936 6.673-6.673V4.746c0-.801-.534-1.335-1.335-1.335z"/></svg>