<svg xmlns="http://www.w3.org/2000/svg" width="32" height="32" viewBox="0 0 32 32"><title>cpu</title><path d="M20.02 10.083h-8.008c-.801 0-1.335.534-1.335 1.335v8.008c0 .801.534 1.335 1.335 1.335h8.008c.801 0 1.335-.534 1.335-1.335v-8.008c0-.801-.534-1.335-1.335-1.335zm-1.335 8.008h-5.339v-5.339h5.339v5.339zm12.012-1.335h-2.669v-4.004h2.669c.801 0 1.335-.534 1.335-1.335s-.534-1.335-1.335-1.335h-2.669V7.413c0-2.269-1.735-4.004-4.004-4.004h-2.669V.74c0-.801-.534-1.335-1.335-1.335S18.685-.061 18.685.74v2.669h-5.339V.74c0-.801-.534-1.335-1.335-1.335S10.676-.061 10.676.74v2.669H8.007c-2.269 0-4.004 1.735-4.004 4.004v2.669H1.334c-.801 0-1.335.534-1.335 1.335s.534 1.335 1.335 1.335h2.669v4.004H1.334c-.801 0-1.335.534-1.335 1.335s.534 1.335 1.335 1.335h2.669v4.004c0 2.269 1.735 4.004 4.004 4.004h2.669v2.669c0 .801.534 1.335 1.335 1.335s1.335-.534 1.335-1.335v-2.669h5.339v2.669c0 .801.534 1.335 1.335 1.335s1.335-.534 1.335-1.335v-2.669h2.669c2.269 0 4.004-1.735 4.004-4.004v-4.004h2.669c.801 0 1.335-.534 1.335-1.335s-.534-1.335-1.335-1.335zm-5.339 6.673c0 .801-.534 1.335-1.335 1.335H8.007c-.801 0-1.335-.534-1.335-1.335V7.413c0-.801.534-1.335 1.335-1.335h16.016c.801 0 1.335.534 1.335 1.335v16.016z"/></svg>