<svg xmlns="http://www.w3.org/2000/svg" width="32" height="32" viewBox="0 0 32 32"><title>crop</title><path d="M30.697 22.094h-5.339V10.082c0-2.269-1.735-4.004-4.004-4.004l-11.878.133V.739c0-.801-.534-1.335-1.335-1.335-.667 0-1.335.534-1.335 1.335v5.472H1.334c-.801 0-1.335.667-1.335 1.335s.667 1.335 1.335 1.335h5.472l-.133 11.878c0 2.269 1.735 4.004 4.004 4.004h12.012v5.339c0 .801.534 1.335 1.335 1.335s1.335-.534 1.335-1.335v-5.339h5.339c.801 0 1.335-.534 1.335-1.335s-.534-1.335-1.335-1.335zm-20.02 0c-.801 0-1.335-.534-1.335-1.335l.133-11.878 11.878-.133c.801 0 1.335.534 1.335 1.335v12.012H10.676z"/></svg>