<svg xmlns="http://www.w3.org/2000/svg" width="32" height="32" viewBox="0 0 32 32"><title>crosshair</title><path d="M16.016.74C7.875.74 1.335 7.28 1.335 15.421s6.54 14.681 14.681 14.681 14.681-6.54 14.681-14.681S24.157.74 16.016.74zM17.35 27.3v-3.87c0-.801-.534-1.335-1.335-1.335s-1.335.534-1.335 1.335v3.87c-5.605-.667-10.01-5.072-10.544-10.544h3.87c.801 0 1.335-.534 1.335-1.335s-.534-1.335-1.335-1.335h-3.87A11.679 11.679 0 0114.68 3.542v3.87c0 .801.534 1.335 1.335 1.335s1.335-.534 1.335-1.335v-3.87c5.605.667 10.01 5.072 10.544 10.544h-3.87c-.801 0-1.335.534-1.335 1.335s.534 1.335 1.335 1.335h3.87A11.679 11.679 0 0117.35 27.3z"/></svg>