<svg xmlns="http://www.w3.org/2000/svg" width="32" height="32" viewBox="0 0 32 32"><title>database</title><path d="M16.016.74C9.61.74 2.67 2.475 2.67 6.079v18.685c0 3.604 6.94 5.339 13.346 5.339s13.346-1.735 13.346-5.339V6.079c0-3.604-6.94-5.339-13.346-5.339zm10.677 14.681c0 .667-3.337 2.669-10.677 2.669S5.339 16.088 5.339 15.421V9.415c2.536 1.335 6.673 2.002 10.677 2.002s8.141-.667 10.677-2.002v6.006zM16.016 3.41c6.94 0 10.677 2.002 10.677 2.669s-3.737 2.669-10.677 2.669c-6.94 0-10.677-2.002-10.677-2.669S9.076 3.41 16.016 3.41zm0 24.023c-7.34 0-10.677-2.002-10.677-2.669v-6.006c2.536 1.335 6.673 2.002 10.677 2.002s8.141-.667 10.677-2.002v6.006c0 .667-3.337 2.669-10.677 2.669z"/></svg>