<svg xmlns="http://www.w3.org/2000/svg" width="32" height="32" viewBox="0 0 32 32"><title>delete</title><path d="M28.027 3.41h-17.35c-.4 0-.801.133-1.068.4L.267 14.487c-.4.534-.4 1.201 0 1.735l9.342 10.677c.267.4.667.534 1.068.534h17.35c2.269 0 4.004-1.735 4.004-4.004V7.413c0-2.269-1.735-4.004-4.004-4.004zm1.335 20.019c0 .801-.534 1.335-1.335 1.335H11.344l-8.141-9.342 8.141-9.342h16.683c.801 0 1.335.534 1.335 1.335v16.016zm-4.404-12.946a1.29 1.29 0 00-1.868 0l-3.07 3.07-3.07-3.07c-.534-.534-1.335-.534-1.868 0s-.534 1.335 0 1.868l3.07 3.07-3.07 3.07a1.29 1.29 0 000 1.868c.267.267.667.4.934.4s.667-.133.934-.4l3.07-3.07 3.07 3.07c.267.267.667.4.934.4s.667-.133.934-.4a1.29 1.29 0 000-1.868l-3.07-3.07 3.07-3.07a1.29 1.29 0 000-1.868z"/></svg>