<svg xmlns="http://www.w3.org/2000/svg" width="32" height="32" viewBox="0 0 32 32"><title>deviantart</title><path d="M30.217 17.548c-1.501-1.814-3.378-2.94-5.505-3.816-2.753-1.126-5.63-1.564-8.571-1.627h-.751V9.102c-1.314.125-2.565.313-4.192.438v2.69c.063.25-.063.375-.313.438-2.127.438-4.129 1.126-6.006 2.252-1.439.876-2.69 1.939-3.629 3.378C.124 19.987-.314 21.864.186 23.803h15.202v-9.196h1.939c1.627.125 3.253.375 4.755 1.001 2.002.938 3.378 2.377 3.941 4.504.063.125.063.5.125.5H20.83v-4.129c0-.25-.063-.375-.313-.375a29.814 29.814 0 00-2.315-.438c-.5-.063-1.251-.063-1.564-.125v8.258H31.84c.063-.626.188-.938.188-1.376.063-1.877-.626-3.441-1.814-4.88zm-19.019 3.066H5.943c.125-2.252 2.69-5.067 5.255-5.38v5.38z"/></svg>