<svg xmlns="http://www.w3.org/2000/svg" width="32" height="32" viewBox="0 0 32 32"><title>dollar-sign</title><path d="M19.352 14.087H17.35V7.414h5.339c.801 0 1.335-.534 1.335-1.335s-.534-1.335-1.335-1.335H17.35V.74c0-.801-.534-1.335-1.335-1.335S14.68-.061 14.68.74v4.004h-2.002c-3.337 0-6.006 2.669-6.006 6.006s2.669 6.006 6.006 6.006h2.002v6.673H8.007c-.801 0-1.335.534-1.335 1.335s.534 1.335 1.335 1.335h6.673v4.004c0 .801.534 1.335 1.335 1.335s1.335-.534 1.335-1.335v-4.004h2.002c3.337 0 6.006-2.669 6.006-6.006s-2.669-6.006-6.006-6.006zm-6.673 0c-1.868 0-3.337-1.468-3.337-3.337s1.468-3.337 3.337-3.337h2.002v6.673h-2.002zm6.673 9.342H17.35v-6.673h2.002c1.868 0 3.337 1.468 3.337 3.337s-1.468 3.337-3.337 3.337z"/></svg>