<svg xmlns="http://www.w3.org/2000/svg" width="32" height="32" viewBox="0 0 32 32"><title>dribbble</title><path d="M15.953.532C7.132.532-.063 7.727-.063 16.548s7.195 16.016 16.016 16.016c8.884 0 16.016-7.195 16.016-16.016S24.837.532 15.953.532zm10.635 7.382c1.877 2.315 3.066 5.255 3.066 8.508-.438-.125-4.942-1.001-9.509-.438-.125-.25-.188-.501-.313-.688a19.291 19.291 0 00-.876-2.002c5.005-2.065 7.32-5.005 7.632-5.38zM15.953 2.847a13.58 13.58 0 019.071 3.441c-.188.375-2.252 3.128-7.132 4.942-2.252-4.066-4.755-7.445-5.13-8.008a13.905 13.905 0 013.191-.375zM10.197 4.16c.313.5 2.753 3.879 5.067 7.945-6.444 1.689-12.074 1.627-12.7 1.627.938-4.254 3.754-7.758 7.632-9.572zM2.315 16.547v-.438c.563.063 7.195.125 14.076-1.939.375.751.751 1.564 1.064 2.315-.188.063-.313.125-.5.188-7.069 2.252-10.823 8.508-11.136 9.009a13.602 13.602 0 01-3.503-9.134zm13.638 13.701c-3.128 0-6.068-1.126-8.383-2.878.25-.563 3.003-5.881 10.761-8.571 0 0 .063 0 .063-.063 1.939 5.005 2.753 9.196 2.94 10.385-1.627.688-3.441 1.126-5.38 1.126zm7.695-2.377c-.188-.813-.876-4.817-2.69-9.76 4.317-.688 8.07.438 8.508.626-.563 3.816-2.753 7.069-5.818 9.134z"/></svg>