<svg xmlns="http://www.w3.org/2000/svg" width="32" height="32" viewBox="0 0 32 32"><title>droplet</title><path d="M24.557 9.549L16.95 2.075c-.267-.267-.534-.4-.934-.4s-.667.133-.934.4L7.608 9.549c-2.402 2.269-3.604 5.339-3.604 8.542s1.201 6.273 3.47 8.542 5.339 3.47 8.542 3.47c3.203 0 6.273-1.201 8.542-3.47 4.671-4.671 4.671-12.279 0-17.083zm-1.868 15.215c-1.868 1.735-4.137 2.669-6.673 2.669-2.536 0-4.805-.934-6.54-2.669-1.868-1.868-2.803-4.137-2.803-6.673s.934-4.805 2.669-6.54l6.54-6.673 6.673 6.673c3.737 3.604 3.737 9.476.133 13.213z"/></svg>