<svg xmlns="http://www.w3.org/2000/svg" width="32" height="32" viewBox="0 0 32 32"><title>edit-3</title><path d="M4.004 23.429h5.339c.4 0 .667-.133.934-.4L24.958 8.348a1.29 1.29 0 000-1.868l-5.339-5.339a1.29 1.29 0 00-1.868 0L3.07 15.822c-.267.267-.4.534-.4.934v5.339c0 .801.534 1.335 1.335 1.335zm1.335-6.139L18.685 3.944l3.47 3.47L8.809 20.76h-3.47v-3.47zm22.688 10.143H4.004c-.801 0-1.335.534-1.335 1.335s.534 1.335 1.335 1.335h24.023c.801 0 1.335-.534 1.335-1.335s-.534-1.335-1.335-1.335z"/></svg>