<svg xmlns="http://www.w3.org/2000/svg" width="32" height="32" viewBox="0 0 32 32"><title>external-link</title><path d="M24.023 15.421c-.801 0-1.335.534-1.335 1.335v8.008c0 .801-.534 1.335-1.335 1.335H6.672c-.801 0-1.335-.534-1.335-1.335V10.083c0-.801.534-1.335 1.335-1.335h8.008c.801 0 1.335-.534 1.335-1.335s-.534-1.335-1.335-1.335H6.672c-2.269 0-4.004 1.735-4.004 4.004v14.681c0 2.269 1.735 4.004 4.004 4.004h14.681c2.269 0 4.004-1.735 4.004-4.004v-8.008c0-.801-.534-1.335-1.335-1.335zm5.206-12.545a1.6 1.6 0 00-.667-.667c-.133-.133-.4-.133-.534-.133H20.02c-.801 0-1.335.534-1.335 1.335s.534 1.335 1.335 1.335h4.805L12.413 17.158a1.29 1.29 0 000 1.868c.267.267.534.4.934.4s.667-.133.934-.4L26.693 6.614v4.805c0 .801.534 1.335 1.335 1.335s1.335-.534 1.335-1.335V3.411c0-.133 0-.4-.133-.534z"/></svg>