<svg xmlns="http://www.w3.org/2000/svg" width="32" height="32" viewBox="0 0 32 32"><title>eye</title><path d="M31.898 14.887c-.267-.534-5.872-11.478-15.882-11.478S.401 14.353.134 14.887c-.133.4-.133.801 0 1.201.267.4 5.872 11.344 15.882 11.344s15.615-10.944 15.882-11.478c.133-.267.133-.801 0-1.068zm-15.882 9.877c-7.207 0-11.878-7.207-13.213-9.342C4.004 13.287 8.809 6.08 16.016 6.08s11.878 7.207 13.213 9.342c-1.335 2.135-6.006 9.342-13.213 9.342zm0-14.681c-2.936 0-5.339 2.402-5.339 5.339s2.402 5.339 5.339 5.339c2.936 0 5.339-2.402 5.339-5.339s-2.402-5.339-5.339-5.339zm0 8.008c-1.468 0-2.669-1.201-2.669-2.669s1.201-2.669 2.669-2.669 2.669 1.201 2.669 2.669-1.201 2.669-2.669 2.669z"/></svg>