<svg xmlns="http://www.w3.org/2000/svg" width="32" height="32" viewBox="0 0 32 32"><title>feather</title><path d="M27.894 3.41c-3.604-3.604-9.609-3.604-13.213 0l-8.942 9.076c-.267.267-.4.534-.4.934v10.811l-3.604 3.604a1.29 1.29 0 000 1.868c.267.267.534.4.934.4s.667-.133.934-.4l3.604-3.604h10.811c.4 0 .667-.133.934-.4l8.942-9.076c3.737-3.604 3.737-9.476 0-13.213zm-10.41 20.019H9.877l2.669-2.669h7.607l-2.669 2.669zm8.541-8.675l-3.203 3.337h-7.607l7.074-7.074c.534-.534.534-1.335 0-1.868s-1.335-.534-1.868 0l-9.342 9.342-3.07 3.07v-7.607l8.675-8.675c2.669-2.669 6.807-2.669 9.476 0 2.536 2.669 2.536 6.94-.133 9.476z"/></svg>