<svg xmlns="http://www.w3.org/2000/svg" width="32" height="32" viewBox="0 0 32 32"><title>file</title><path d="M27.894 10.884c-.133-.133-.133-.267-.267-.4l-9.342-9.342c-.133-.133-.267-.267-.4-.267-.133-.133-.4-.133-.534-.133H8.009c-2.269 0-4.004 1.735-4.004 4.004V26.1c0 2.269 1.735 4.004 4.004 4.004h16.016c2.269 0 4.004-1.735 4.004-4.004V11.419c0-.133 0-.4-.133-.534zm-9.209-5.606l4.805 4.805h-4.805V5.278zm5.338 22.155H8.007c-.801 0-1.335-.534-1.335-1.335V4.744c0-.801.534-1.335 1.335-1.335h8.008v8.008c0 .801.534 1.335 1.335 1.335h8.008v13.346c0 .801-.534 1.335-1.335 1.335z"/></svg>