<svg xmlns="http://www.w3.org/2000/svg" width="32" height="32" viewBox="0 0 32 32"><title>file-minus</title><path d="M27.894 9.549c-.133-.133-.133-.267-.267-.4l-8.008-8.008c-.133-.133-.267-.267-.4-.267-.133-.133-.4-.133-.534-.133H8.008c-2.269 0-4.004 1.735-4.004 4.004v21.354c0 2.269 1.735 4.004 4.004 4.004h16.016c2.269 0 4.004-1.735 4.004-4.004V10.083c0-.133 0-.4-.133-.534zM20.02 5.278l3.47 3.47h-3.47v-3.47zm4.003 22.155H8.007c-.801 0-1.335-.534-1.335-1.335V4.744c0-.801.534-1.335 1.335-1.335h9.342v6.673c0 .801.534 1.335 1.335 1.335h6.673v14.681c0 .801-.534 1.335-1.335 1.335zm-4.003-9.342h-8.008c-.801 0-1.335.534-1.335 1.335s.534 1.335 1.335 1.335h8.008c.801 0 1.335-.534 1.335-1.335s-.534-1.335-1.335-1.335z"/></svg>