<svg xmlns="http://www.w3.org/2000/svg" width="32" height="32" viewBox="0 0 32 32"><title>flag</title><path d="M27.227 2.208c-.534-.267-1.068-.133-1.468.267 0 0-1.201.934-4.404.934-1.735 0-3.203-.667-4.805-1.201C14.815 1.407 12.946.74 10.678.74c-4.271 0-6.006 1.468-6.273 1.735s-.4.534-.4.934v25.358c0 .801.534 1.335 1.335 1.335s1.335-.534 1.335-1.335v-8.675c.534-.267 1.868-.667 4.004-.667 1.735 0 3.203.667 4.805 1.201 1.735.667 3.604 1.468 5.872 1.468 4.271 0 6.006-1.468 6.273-1.735s.4-.534.4-.934V3.409c0-.534-.267-.934-.801-1.201zm-1.869 16.55c-.534.267-1.868.667-4.004.667-1.735 0-3.203-.667-4.805-1.201-1.735-.801-3.604-1.468-5.872-1.468-1.735 0-3.07.267-4.004.534V4.077c.534-.267 1.868-.667 4.004-.667 1.735 0 3.203.667 4.805 1.201 1.735.801 3.604 1.468 5.872 1.468 1.735 0 3.07-.267 4.004-.534v13.213z"/></svg>