<svg xmlns="http://www.w3.org/2000/svg" width="32" height="32" viewBox="0 0 32 32"><title>foursquare</title><path d="M24.649.407H7.57c-2.315 0-3.003 1.752-3.003 2.878v27.151c0 1.251.626 1.752 1.001 1.877.438.188 1.439.313 2.065-.438 0 0 8.07-9.384 8.195-9.509.25-.188.25-.188.438-.188h5.255c2.19 0 2.502-1.564 2.753-2.502.188-.751 2.315-11.699 3.066-15.202.5-2.628-.125-4.066-2.69-4.066zm-.375 19.268c.188-.751 2.315-11.699 3.066-15.202zm-.626-14.639L22.96 8.79c-.125.375-.626.813-1.064.813h-6.694c-.751 0-1.251.501-1.251 1.251v.813c0 .751.501 1.251 1.251 1.251h5.693c.5 0 1.001.626.938 1.189-.125.563-.688 3.378-.751 3.691-.063.25-.375.813-1.064.813h-4.567c-.876 0-1.126.125-1.689.813s-5.568 6.757-5.568 6.757c-.063.063-.125.063-.125 0V4.973c0-.5.438-1.064 1.064-1.064h13.701c.5 0 .938.501.813 1.126z"/></svg>