<svg xmlns="http://www.w3.org/2000/svg" width="32" height="32" viewBox="0 0 32 32"><title>gift</title><path d="M29.362 7.413h-3.203c.4-.667.534-1.335.534-2.002 0-2.536-2.135-4.671-4.671-4.671-3.07 0-4.938 2.135-6.006 4.137C14.948 2.875 13.08.74 10.01.74c-2.536 0-4.671 2.135-4.671 4.671 0 .667.133 1.335.534 2.002H2.67c-.801 0-1.335.534-1.335 1.335v6.673c0 .801.534 1.335 1.335 1.335h1.335v12.012c0 .801.534 1.335 1.335 1.335h21.354c.801 0 1.335-.534 1.335-1.335V16.756h1.335c.801 0 1.335-.534 1.335-1.335V8.748c0-.801-.534-1.335-1.335-1.335zM22.021 3.41c1.068 0 2.002.934 2.002 2.002s-.934 2.002-2.002 2.002H17.75c.667-1.602 2.002-4.004 4.271-4.004zM8.008 5.412c0-1.068.934-2.002 2.002-2.002 2.269 0 3.604 2.402 4.271 4.004H10.01c-1.068 0-2.002-.934-2.002-2.002zm-4.004 4.671h10.677v4.004H4.004v-4.004zm2.669 6.673h8.008v10.677H6.673V16.756zm18.685 10.677H17.35V16.756h8.008v10.677zm2.669-13.346H17.35v-4.004h10.677v4.004z"/></svg>