<svg xmlns="http://www.w3.org/2000/svg" width="32" height="32" viewBox="0 0 32 32"><title>git-branch</title><path d="M29.362 7.413c0-2.936-2.402-5.339-5.339-5.339s-5.339 2.402-5.339 5.339c0 2.402 1.735 4.538 4.004 5.072-.534 4.938-4.538 8.942-9.476 9.476-.534-1.868-2.002-3.337-3.737-3.737V3.41c0-.801-.534-1.335-1.335-1.335s-1.468.534-1.468 1.335v14.814c-2.269.534-4.004 2.669-4.004 5.205 0 2.936 2.402 5.339 5.339 5.339 2.536 0 4.538-1.735 5.205-4.004 6.406-.534 11.611-5.739 12.145-12.145 2.269-.667 4.004-2.669 4.004-5.205zM8.008 26.098c-1.468 0-2.669-1.201-2.669-2.669S6.54 20.76 8.008 20.76s2.669 1.201 2.669 2.669-1.201 2.669-2.669 2.669zm16.015-16.015c-1.468 0-2.669-1.201-2.669-2.669s1.201-2.669 2.669-2.669 2.669 1.201 2.669 2.669-1.201 2.669-2.669 2.669z"/></svg>