<svg xmlns="http://www.w3.org/2000/svg" width="32" height="32" viewBox="0 0 32 32"><title>git-commit</title><path d="M30.697 14.087H22.556c-.667-3.07-3.337-5.339-6.54-5.339s-5.872 2.269-6.54 5.339H1.335c-.801 0-1.335.534-1.335 1.335s.534 1.335 1.335 1.335h8.141c.667 3.07 3.337 5.339 6.54 5.339s5.872-2.269 6.54-5.339h8.141c.801 0 1.335-.534 1.335-1.335s-.667-1.335-1.335-1.335zm-14.681 5.338c-2.269 0-4.004-1.735-4.004-4.004s1.735-4.004 4.004-4.004 4.004 1.735 4.004 4.004-1.735 4.004-4.004 4.004z"/></svg>