<svg xmlns="http://www.w3.org/2000/svg" width="32" height="32" viewBox="0 0 32 32"><title>globe</title><path d="M16.016.74C7.875.74 1.335 7.28 1.335 15.421s6.54 14.681 14.681 14.681 14.681-6.54 14.681-14.681S24.157.74 16.016.74zm11.878 13.347h-5.339c-.267-3.737-1.468-7.207-3.604-10.277 4.805 1.201 8.408 5.339 8.942 10.277zm-15.749 2.669h7.874c-.4 3.604-1.735 7.074-3.87 9.876-2.402-2.803-3.737-6.273-4.004-9.876zm0-2.669c.4-3.604 1.735-7.074 3.87-9.876 2.269 2.936 3.604 6.406 3.87 9.876h-7.741zm.801-10.277a21.465 21.465 0 00-3.47 10.277H4.137c.534-4.938 4.137-9.076 8.809-10.277zM4.137 16.756h5.339c.267 3.737 1.468 7.207 3.604 10.277-4.805-1.201-8.408-5.339-8.942-10.277zm14.948 10.277c2.002-3.07 3.203-6.54 3.604-10.277h5.339c-.667 4.938-4.271 9.076-8.942 10.277z"/></svg>