<svg xmlns="http://www.w3.org/2000/svg" width="32" height="32" viewBox="0 0 32 32"><title>google</title><path d="M31.656 15.359c-.063-.626-.125-1.314-.25-1.939H16.329v6.256h8.759a7.685 7.685 0 01-3.253 4.942c-1.064.688-2.252 1.189-3.503 1.376a9.802 9.802 0 01-3.816 0c-1.314-.25-2.502-.813-3.566-1.564-1.564-1.064-2.815-2.69-3.503-4.442-.063-.125-.125-.313-.188-.438s0 0 .063 0c-.688-2.002-.688-4.254-.063-6.256.5-1.376 1.314-2.69 2.377-3.754 1.251-1.314 2.94-2.252 4.755-2.69a9.903 9.903 0 014.692.188c1.314.438 2.502 1.126 3.441 2.065 1.001-1.001 2.002-1.939 2.94-2.94.563-.5 1.064-1.064 1.564-1.564a14.718 14.718 0 00-5.13-3.191C18.457.094 14.578.094 11.137 1.283 7.196 2.597 3.88 5.537 2.003 9.228 1.377 10.479.939 11.856.627 13.232a16.516 16.516 0 001.376 10.385 16.376 16.376 0 004.379 5.318 15.516 15.516 0 005.818 2.94c2.69.751 5.505.751 8.195.125a14.8 14.8 0 006.569-3.441c1.939-1.752 3.316-4.129 4.066-6.631.563-2.127.813-4.317.626-6.569z"/></svg>