<svg xmlns="http://www.w3.org/2000/svg" width="41" height="32" viewBox="0 0 41 32"><title>google-plus</title><path d="M25.686 17.012c0 7.489-5.023 12.798-12.584 12.798C5.863 29.81 0 23.947 0 16.708S5.863 3.606 13.102 3.606c3.539 0 6.489 1.287 8.776 3.432l-3.557 3.414c-.965-.929-2.663-2.02-5.219-2.02-4.469 0-8.115 3.7-8.115 8.276s3.646 8.276 8.115 8.276c5.184 0 7.132-3.736 7.436-5.648h-7.436v-4.504h12.369c.125.661.215 1.323.215 2.181zm15.497-2.181v3.754h-3.736v3.736h-3.754v-3.736h-3.736v-3.754h3.736v-3.736h3.754v3.736h3.736z"/></svg>