<svg xmlns="http://www.w3.org/2000/svg" width="32" height="32" viewBox="0 0 32 32"><title>grid</title><path d="M13.346 2.075H4.004c-.801 0-1.335.534-1.335 1.335v9.342c0 .801.534 1.335 1.335 1.335h9.342c.801 0 1.335-.534 1.335-1.335V3.41c0-.801-.534-1.335-1.335-1.335zm-1.334 9.342H5.339V4.744h6.673v6.673zm16.015-9.342h-9.342c-.801 0-1.335.534-1.335 1.335v9.342c0 .801.534 1.335 1.335 1.335h9.342c.801 0 1.335-.534 1.335-1.335V3.41c0-.801-.534-1.335-1.335-1.335zm-1.334 9.342H20.02V4.744h6.673v6.673zm1.334 5.339h-9.342c-.801 0-1.335.534-1.335 1.335v9.342c0 .801.534 1.335 1.335 1.335h9.342c.801 0 1.335-.534 1.335-1.335v-9.342c0-.801-.534-1.335-1.335-1.335zm-1.334 9.342H20.02v-6.673h6.673v6.673zm-13.347-9.342H4.004c-.801 0-1.335.534-1.335 1.335v9.342c0 .801.534 1.335 1.335 1.335h9.342c.801 0 1.335-.534 1.335-1.335v-9.342c0-.801-.534-1.335-1.335-1.335zm-1.334 9.342H5.339v-6.673h6.673v6.673z"/></svg>