<svg xmlns="http://www.w3.org/2000/svg" width="32" height="32" viewBox="0 0 32 32"><title>hash</title><path d="M26.693 18.091h-5.605l.534-5.339h5.072c.801 0 1.335-.534 1.335-1.335s-.534-1.335-1.335-1.335h-4.671l.667-6.54c.133-.667-.4-1.335-1.201-1.468-.667-.133-1.335.4-1.468 1.201l-.801 6.807h-5.339l.801-6.54c.133-.667-.4-1.335-1.201-1.468-.667-.133-1.335.4-1.468 1.201l-.801 6.807H5.34c-.801 0-1.335.534-1.335 1.335s.534 1.335 1.335 1.335h5.605l-.534 5.339H5.339c-.801 0-1.335.534-1.335 1.335s.534 1.335 1.335 1.335h4.671l-.667 6.54c-.133.667.4 1.335 1.201 1.468h.133c.667 0 1.201-.534 1.335-1.201l.801-6.807h5.339l-.801 6.54c-.133.667.4 1.335 1.201 1.468h.133c.667 0 1.201-.534 1.335-1.201l.801-6.807h5.872c.801 0 1.335-.534 1.335-1.335s-.534-1.335-1.335-1.335zm-13.614 0l.534-5.339h5.339l-.534 5.339h-5.339z"/></svg>