<svg xmlns="http://www.w3.org/2000/svg" width="32" height="32" viewBox="0 0 32 32"><title>heart</title><path d="M28.695 4.611c-1.602-1.602-3.737-2.536-6.006-2.536s-4.538.934-6.139 2.536l-.534.534-.534-.534a8.567 8.567 0 00-6.139-2.536c-2.269 0-4.404.934-6.006 2.536S.668 8.481.668 10.75s.934 4.538 2.536 6.139l11.745 11.745c.267.267.534.4.934.4s.667-.133.934-.4l11.745-11.745a8.431 8.431 0 00.133-12.279zm-1.869 10.41L16.015 25.832 5.204 15.021c-2.402-2.402-2.402-6.139 0-8.542 1.068-1.201 2.669-1.735 4.137-1.735 1.602 0 3.07.534 4.271 1.735l1.468 1.468a1.29 1.29 0 001.868 0l1.335-1.468c1.201-1.068 2.669-1.735 4.404-1.735 1.602 0 3.07.667 4.271 1.735 1.068 1.201 1.735 2.669 1.735 4.271s-.667 3.07-1.868 4.271z"/></svg>