<svg xmlns="http://www.w3.org/2000/svg" width="32" height="32" viewBox="0 0 32 32"><title>help-circle</title><path d="M16.016.74C7.875.74 1.335 7.28 1.335 15.421s6.54 14.681 14.681 14.681 14.681-6.54 14.681-14.681S24.157.74 16.016.74zm0 26.693c-6.673 0-12.012-5.339-12.012-12.012S9.343 3.409 16.016 3.409s12.012 5.339 12.012 12.012-5.339 12.012-12.012 12.012zM17.617 7.68c-2.803-.934-5.872.534-6.807 3.203-.133.801.133 1.602.934 1.735.667.267 1.468-.133 1.735-.801.534-1.335 2.002-2.135 3.47-1.602 1.068.4 1.735 1.335 1.735 2.536 0 1.335-2.269 2.402-3.07 2.803-.667.267-1.068.934-.801 1.735.133.534.667.934 1.201.934.133 0 .267 0 .4-.133.534-.133 4.938-1.735 4.938-5.205-.133-2.402-1.602-4.404-3.737-5.205zm-2.536 13.48c-.267.267-.4.534-.4.934s.133.667.4.934.534.4.934.4.667-.133.934-.4.4-.667.4-.934-.133-.667-.4-.934a1.29 1.29 0 00-1.868 0z"/></svg>