<svg xmlns="http://www.w3.org/2000/svg" width="32" height="32" viewBox="0 0 32 32"><title>home</title><path d="M28.828 10.35L16.816 1.008c-.534-.4-1.201-.4-1.602 0L3.202 10.35c-.4.267-.534.667-.534 1.068v14.681c0 2.269 1.735 4.004 4.004 4.004h18.685c2.269 0 4.004-1.735 4.004-4.004V11.418c0-.4-.133-.801-.534-1.068zM18.685 27.433h-5.339V16.756h5.339v10.677zm8.008-1.335c0 .801-.534 1.335-1.335 1.335h-4.004V15.421c0-.801-.534-1.335-1.335-1.335h-8.008c-.801 0-1.335.534-1.335 1.335v12.012H6.672c-.801 0-1.335-.534-1.335-1.335V12.084l10.677-8.275 10.677 8.275v14.014z"/></svg>