<svg xmlns="http://www.w3.org/2000/svg" width="32" height="32" viewBox="0 0 32 32"><title>image</title><path d="M25.358 2.075H6.673c-2.269 0-4.004 1.735-4.004 4.004v18.685c0 2.269 1.735 4.004 4.004 4.004h18.685c2.269 0 4.004-1.735 4.004-4.004V6.079c0-2.269-1.735-4.004-4.004-4.004zM5.339 6.079c0-.801.534-1.335 1.335-1.335h18.685c.801 0 1.335.534 1.335 1.335v10.143l-4.404-4.404a1.29 1.29 0 00-1.868 0L6.275 25.965c-.534-.133-.934-.667-.934-1.201V6.079zm20.019 20.019H9.876L21.354 14.62l5.339 5.339v4.805c0 .801-.534 1.335-1.335 1.335zM11.344 14.087c1.868 0 3.337-1.468 3.337-3.337s-1.468-3.337-3.337-3.337-3.337 1.468-3.337 3.337 1.468 3.337 3.337 3.337zm0-4.004c.4 0 .667.267.667.667s-.267.667-.667.667-.667-.267-.667-.667.267-.667.667-.667z"/></svg>