<svg xmlns="http://www.w3.org/2000/svg" width="32" height="32" viewBox="0 0 32 32"><title>instagram</title><path d="M16.016 3.284c4.317 0 4.755.063 6.444.125 1.627.063 2.44.313 3.003.5.751.313 1.314.688 1.814 1.189.563.563.938 1.126 1.189 1.814.25.626.5 1.439.563 3.003.063 1.752.125 2.19.125 6.506s-.063 4.755-.125 6.444c-.063 1.627-.313 2.44-.5 3.003-.313.751-.688 1.314-1.189 1.814-.563.563-1.126.938-1.814 1.189-.626.25-1.439.5-3.003.563-1.752.063-2.19.125-6.506.125s-4.755-.063-6.444-.125c-1.627-.063-2.44-.313-3.003-.5-.751-.313-1.314-.688-1.814-1.189-.563-.563-.938-1.126-1.189-1.814-.25-.626-.5-1.439-.563-3.003-.063-1.752-.125-2.19-.125-6.506s.063-4.755.125-6.444c.063-1.627.313-2.44.5-3.003.313-.751.688-1.314 1.189-1.814.563-.563 1.126-.938 1.814-1.189.626-.25 1.439-.5 3.003-.563 1.752-.063 2.19-.125 6.506-.125m0-2.877c-4.379 0-4.88.063-6.569.125-1.752.063-2.94.313-3.879.688-1.064.438-2.002 1.001-2.878 1.877S1.251 4.911.813 5.975C.438 6.976.187 8.102.125 9.854.062 11.543 0 12.044 0 16.423s.063 4.88.125 6.569c.063 1.752.313 2.94.688 3.879.438 1.064 1.001 2.002 1.877 2.878s1.814 1.439 2.878 1.877c1.001.375 2.127.626 3.879.688 1.689.063 2.19.125 6.569.125s4.88-.063 6.569-.125c1.752-.063 2.94-.313 3.879-.688 1.064-.438 2.002-1.001 2.878-1.877s1.439-1.814 1.877-2.878c.375-1.001.626-2.127.688-3.879.063-1.689.125-2.19.125-6.569s-.063-4.88-.125-6.569c-.063-1.752-.313-2.94-.688-3.879-.438-1.064-1.001-2.002-1.877-2.878s-1.814-1.439-2.878-1.877C25.463.845 24.337.594 22.585.532c-1.689-.063-2.19-.125-6.569-.125zm0 7.757c-4.567 0-8.258 3.691-8.258 8.258s3.691 8.258 8.258 8.258c4.567 0 8.258-3.691 8.258-8.258s-3.691-8.258-8.258-8.258zm0 13.639c-2.94 0-5.38-2.44-5.38-5.38s2.44-5.38 5.38-5.38 5.38 2.44 5.38 5.38-2.44 5.38-5.38 5.38zM26.463 7.851c0 1.064-.813 1.939-1.877 1.939s-1.939-.876-1.939-1.939c0-1.064.876-1.877 1.939-1.877s1.877.813 1.877 1.877z"/></svg>