<svg xmlns="http://www.w3.org/2000/svg" width="32" height="32" viewBox="0 0 32 32"><title>layers</title><path d="M2.135 9.949l13.346 6.673c.133.133.267.133.534.133s.4 0 .534-.133l13.346-6.673c.534-.267.801-.667.801-1.201s-.267-.934-.801-1.201L16.549.874a1.857 1.857 0 00-1.201 0L2.002 7.547c-.4.267-.667.667-.667 1.201s.267.934.801 1.201zm13.881-6.406l10.41 5.205-10.41 5.205-10.41-5.205 10.41-5.205zm12.812 17.35l-12.813 6.406-12.813-6.406c-.667-.267-1.468 0-1.735.534s0 1.468.534 1.735l13.346 6.673c.267.267.4.267.667.267s.4 0 .534-.133l13.346-6.673c.667-.267.934-1.068.534-1.735-.267-.667-1.068-.934-1.602-.667zm0-6.673l-12.813 6.406L3.202 14.22c-.667-.267-1.468 0-1.735.534-.267.667 0 1.468.534 1.735l13.346 6.673c.267.267.4.267.667.267s.4 0 .534-.133l13.346-6.673c.667-.267.934-1.068.534-1.735-.267-.667-1.068-.934-1.602-.667z"/></svg>