<svg xmlns="http://www.w3.org/2000/svg" width="32" height="32" viewBox="0 0 32 32"><title>layout</title><path d="M25.358 2.075H6.673c-2.269 0-4.004 1.735-4.004 4.004v18.685c0 2.269 1.735 4.004 4.004 4.004h18.685c2.269 0 4.004-1.735 4.004-4.004V6.079c0-2.269-1.735-4.004-4.004-4.004zM6.673 4.744h18.685c.801 0 1.335.534 1.335 1.335v4.004H5.339V6.079c0-.801.534-1.335 1.335-1.335zm-1.334 20.02V12.752h5.339v13.346H6.674c-.801 0-1.335-.534-1.335-1.335zm20.019 1.334H13.346V12.752h13.346v12.012c0 .801-.534 1.335-1.335 1.335z"/></svg>