<svg xmlns="http://www.w3.org/2000/svg" width="32" height="32" viewBox="0 0 32 32"><title>life-buoy</title><path d="M26.426 25.831c2.669-2.669 4.271-6.273 4.271-10.41 0-4.004-1.602-7.741-4.271-10.41C23.757 2.342 20.02.74 16.016.74S8.275 2.342 5.606 5.011c-2.669 2.669-4.271 6.406-4.271 10.41s1.602 7.741 4.271 10.41c2.669 2.669 6.273 4.271 10.41 4.271 4.004 0 7.741-1.602 10.41-4.271zm-1.068-2.936l-3.87-3.87c.801-.934 1.201-2.269 1.201-3.604s-.4-2.669-1.068-3.737l3.737-3.737c1.602 2.002 2.669 4.671 2.669 7.474s-.934 5.472-2.669 7.474zm-13.346-7.474c0-2.269 1.735-4.004 4.004-4.004s4.004 1.735 4.004 4.004-1.735 4.004-4.004 4.004-4.004-1.735-4.004-4.004zM23.49 6.079l-3.87 3.87c-.934-.801-2.269-1.201-3.604-1.201s-2.669.4-3.737 1.068L8.542 6.079c2.002-1.735 4.671-2.669 7.474-2.669s5.472.934 7.474 2.669zM6.673 7.947l3.87 3.87c-.801.934-1.201 2.269-1.201 3.604s.4 2.669 1.068 3.737l-3.737 3.737c-1.602-2.002-2.669-4.671-2.669-7.474s.934-5.472 2.669-7.474zm1.869 16.817l3.87-3.87c.934.801 2.269 1.201 3.604 1.201s2.669-.4 3.737-1.068l3.87 3.87c-2.002 1.602-4.671 2.669-7.474 2.669-2.936-.133-5.605-1.068-7.607-2.803z"/></svg>