<svg xmlns="http://www.w3.org/2000/svg" width="32" height="32" viewBox="0 0 32 32"><title>link-2</title><path d="M12.012 20.76H8.008c-2.936 0-5.339-2.402-5.339-5.339s2.402-5.339 5.339-5.339h4.004c.801 0 1.335-.534 1.335-1.335s-.534-1.335-1.335-1.335H8.008C3.604 7.412 0 11.016 0 15.42s3.604 8.008 8.008 8.008h4.004c.801 0 1.335-.534 1.335-1.335s-.534-1.335-1.335-1.335zM24.023 7.413h-4.004c-.801 0-1.335.534-1.335 1.335s.534 1.335 1.335 1.335h4.004c2.936 0 5.339 2.402 5.339 5.339s-2.402 5.339-5.339 5.339h-4.004c-.801 0-1.335.534-1.335 1.335s.534 1.335 1.335 1.335h4.004c4.404 0 8.008-3.604 8.008-8.008s-3.604-8.008-8.008-8.008zM9.342 15.421c0 .801.534 1.335 1.335 1.335h10.677c.801 0 1.335-.534 1.335-1.335s-.534-1.335-1.335-1.335H10.677c-.801 0-1.335.534-1.335 1.335z"/></svg>