<svg xmlns="http://www.w3.org/2000/svg" width="32" height="32" viewBox="0 0 32 32"><title>list</title><path d="M10.677 8.748h17.35c.801 0 1.335-.534 1.335-1.335s-.534-1.335-1.335-1.335h-17.35c-.801 0-1.335.534-1.335 1.335s.534 1.335 1.335 1.335zm17.35 5.339h-17.35c-.801 0-1.335.534-1.335 1.335s.534 1.335 1.335 1.335h17.35c.801 0 1.335-.534 1.335-1.335s-.534-1.335-1.335-1.335zm0 8.007h-17.35c-.801 0-1.335.534-1.335 1.335s.534 1.335 1.335 1.335h17.35c.801 0 1.335-.534 1.335-1.335s-.534-1.335-1.335-1.335zM3.07 6.479c-.267.267-.4.534-.4.934s.133.667.4.934.534.4.934.4.667-.133.934-.4.4-.534.4-.934-.133-.667-.4-.934a1.29 1.29 0 00-1.868 0zm0 8.008c-.267.267-.4.534-.4.934s.133.667.4.934.534.4.934.4.667-.133.934-.4.4-.534.4-.934-.133-.667-.4-.934a1.29 1.29 0 00-1.868 0zm0 8.008c-.267.267-.4.534-.4.934s.133.667.4.934.534.4.934.4.667-.133.934-.4.4-.534.4-.934-.133-.667-.4-.934a1.29 1.29 0 00-1.868 0z"/></svg>