<svg xmlns="http://www.w3.org/2000/svg" width="32" height="32" viewBox="0 0 32 32"><title>loader</title><path d="M16.016.74c-.801 0-1.335.534-1.335 1.335v5.339c0 .801.534 1.335 1.335 1.335s1.335-.534 1.335-1.335V2.075c0-.801-.534-1.335-1.335-1.335zm0 21.354c-.801 0-1.335.534-1.335 1.335v5.339c0 .801.534 1.335 1.335 1.335s1.335-.534 1.335-1.335v-5.339c0-.801-.534-1.335-1.335-1.335zM7.474 5.011c-.534-.534-1.335-.534-1.868 0s-.534 1.335 0 1.868l3.737 3.737c.267.267.667.4.934.4s.667-.133.934-.4a1.29 1.29 0 000-1.868L7.474 5.011zm15.081 15.082c-.534-.534-1.335-.534-1.868 0s-.534 1.335 0 1.868l3.737 3.737c.267.267.667.4.934.4s.667-.133.934-.4a1.29 1.29 0 000-1.868l-3.737-3.737zM9.342 15.421c0-.801-.534-1.335-1.335-1.335H2.668c-.801 0-1.335.534-1.335 1.335s.534 1.335 1.335 1.335h5.339c.801 0 1.335-.534 1.335-1.335zm20.02-1.334h-5.339c-.801 0-1.335.534-1.335 1.335s.534 1.335 1.335 1.335h5.339c.801 0 1.335-.534 1.335-1.335s-.534-1.335-1.335-1.335zM9.476 20.093L5.739 23.83a1.29 1.29 0 000 1.868c.267.267.667.4.934.4s.667-.133.934-.4l3.737-3.737c.534-.534.534-1.335 0-1.868s-1.468-.534-1.868 0zm12.145-8.943c.4 0 .667-.133.934-.4l3.737-3.737c.534-.534.534-1.335 0-1.868s-1.335-.534-1.868 0l-3.737 3.737a1.29 1.29 0 000 1.868c.267.267.667.4.934.4z"/></svg>