<svg xmlns="http://www.w3.org/2000/svg" width="32" height="32" viewBox="0 0 32 32"><title>lock</title><path d="M25.358 12.752h-1.335V8.748c0-4.404-3.604-8.008-8.008-8.008S8.007 4.344 8.007 8.748v4.004H6.672c-2.269 0-4.004 1.735-4.004 4.004v9.342c0 2.269 1.735 4.004 4.004 4.004h18.685c2.269 0 4.004-1.735 4.004-4.004v-9.342c0-2.269-1.735-4.004-4.004-4.004zM10.677 8.748c0-2.936 2.402-5.339 5.339-5.339s5.339 2.402 5.339 5.339v4.004H10.678V8.748zm16.016 17.35c0 .801-.534 1.335-1.335 1.335H6.673c-.801 0-1.335-.534-1.335-1.335v-9.342c0-.801.534-1.335 1.335-1.335h18.685c.801 0 1.335.534 1.335 1.335v9.342z"/></svg>