<svg xmlns="http://www.w3.org/2000/svg" width="32" height="32" viewBox="0 0 32 32"><title>mail</title><path d="M26.693 3.41H5.339c-2.269 0-4.004 1.735-4.004 4.004V23.43c0 2.269 1.735 4.004 4.004 4.004h21.354c2.269 0 4.004-1.735 4.004-4.004V7.414c0-2.269-1.735-4.004-4.004-4.004zM5.339 6.079h21.354c.534 0 .934.267 1.201.801l-11.878 8.275L4.138 6.88c.267-.534.667-.801 1.201-.801zm21.354 18.685H5.339c-.801 0-1.335-.534-1.335-1.335V9.949l11.211 7.874c.267.133.534.267.801.267s.534-.133.801-.267l11.211-7.874v13.48c0 .801-.534 1.335-1.335 1.335z"/></svg>