<svg xmlns="http://www.w3.org/2000/svg" width="32" height="32" viewBox="0 0 32 32"><title>map-pin</title><path d="M16.016-.594C8.676-.594 2.67 5.412 2.67 12.752c0 9.876 12.145 18.151 12.546 18.418.267.133.534.267.801.267s.534-.133.801-.267c.4-.267 12.546-8.542 12.546-18.418 0-7.34-6.006-13.346-13.346-13.346zm0 29.095C13.48 26.633 5.339 19.959 5.339 12.752c0-5.872 4.805-10.677 10.677-10.677S26.693 6.88 26.693 12.752c0 7.207-8.141 13.88-10.677 15.749zm0-21.088c-2.936 0-5.339 2.402-5.339 5.339s2.402 5.339 5.339 5.339c2.936 0 5.339-2.402 5.339-5.339s-2.402-5.339-5.339-5.339zm0 8.008c-1.468 0-2.669-1.201-2.669-2.669s1.201-2.669 2.669-2.669 2.669 1.201 2.669 2.669-1.201 2.669-2.669 2.669z"/></svg>