<svg xmlns="http://www.w3.org/2000/svg" width="32" height="32" viewBox="0 0 32 32"><title>maximize</title><path d="M10.677 26.098H6.673c-.801 0-1.335-.534-1.335-1.335v-4.004c0-.801-.534-1.335-1.335-1.335s-1.335.534-1.335 1.335v4.004c0 2.269 1.735 4.004 4.004 4.004h4.004c.801 0 1.335-.534 1.335-1.335s-.534-1.335-1.335-1.335zm0-24.023H6.673c-2.269 0-4.004 1.735-4.004 4.004v4.004c0 .801.534 1.335 1.335 1.335s1.335-.534 1.335-1.335V6.079c0-.801.534-1.335 1.335-1.335h4.004c.801 0 1.335-.534 1.335-1.335s-.534-1.335-1.335-1.335zm14.681 0h-4.004c-.801 0-1.335.534-1.335 1.335s.534 1.335 1.335 1.335h4.004c.801 0 1.335.534 1.335 1.335v4.004c0 .801.534 1.335 1.335 1.335s1.335-.534 1.335-1.335V6.08c0-2.269-1.735-4.004-4.004-4.004zm2.669 17.35c-.801 0-1.335.534-1.335 1.335v4.004c0 .801-.534 1.335-1.335 1.335h-4.004c-.801 0-1.335.534-1.335 1.335s.534 1.335 1.335 1.335h4.004c2.269 0 4.004-1.735 4.004-4.004v-4.004c0-.801-.534-1.335-1.335-1.335z"/></svg>