<svg xmlns="http://www.w3.org/2000/svg" width="32" height="32" viewBox="0 0 32 32"><title>medium</title><path d="M31.781 7.726L21.646 2.659h-.125c-.125 0-.313.063-.375.125l-6.194 10.197 6.944 11.324 10.01-16.203c.063-.125 0-.313-.125-.375zM11.636 9.415v10.948l9.76 4.88zm10.573 16.204l8.946 4.504c.438.25.876 0 .876-.563V9.666zM10.51 7.789l-9.322-4.63-.626-.375c-.063 0-.125-.063-.188-.063-.125 0-.188.063-.25.125s-.125.188-.125.375v21.333c0 .375.25.813.563.938l9.196 4.63c.125.063.25.125.375.125.313 0 .501-.25.501-.688V7.975c0-.063 0-.125-.125-.188z"/></svg>