<svg xmlns="http://www.w3.org/2000/svg" width="32" height="32" viewBox="0 0 32 32"><title>message-circle</title><path d="M29.362 13.953c-.4-6.406-5.472-11.611-12.012-11.878h-.667c-2.002 0-3.87.4-5.605 1.335-4.404 2.135-7.074 6.54-7.074 11.344 0 1.735.4 3.604 1.068 5.205L2.67 27.033c-.133.534 0 1.068.267 1.335.4.267.667.4 1.068.4.133 0 .267 0 .4-.133l7.074-2.402c1.602.667 3.337 1.068 5.205 1.068 4.805 0 9.209-2.669 11.344-6.94.934-1.735 1.335-3.737 1.335-5.739v-.667zm-2.669.801c0 1.602-.4 3.07-1.068 4.538-1.735 3.47-5.072 5.472-8.942 5.472-1.602 0-3.07-.4-4.404-1.068-.267-.133-.667-.133-1.068-.133l-5.072 1.735 1.735-5.072c.133-.4.133-.667-.133-1.068-.667-1.335-1.068-2.936-1.068-4.404 0-3.87 2.135-7.207 5.605-8.942 1.335-.667 2.936-1.068 4.404-1.068h.534c5.072.267 9.076 4.271 9.476 9.342v.667z"/></svg>