<svg xmlns="http://www.w3.org/2000/svg" width="32" height="32" viewBox="0 0 32 32"><title>mic-off</title><path d="M31.631 29.168l-7.874-7.874c0-.133-.133-.133-.133-.267l-.133-.133-10.544-10.41L2.27-.193C1.736-.727.935-.727.402-.193s-.534 1.335 0 1.868l10.277 10.277v3.47c0 1.468.534 2.803 1.602 3.737.934 1.068 2.269 1.602 3.737 1.602.934 0 1.868-.267 2.669-.801l2.002 2.002c-1.335.934-2.803 1.468-4.404 1.468h-.534c-2.002 0-3.87-.801-5.339-2.269-1.602-1.468-2.402-3.604-2.402-5.739v-2.669c0-.801-.534-1.335-1.335-1.335s-1.335.534-1.335 1.335v2.669c0 2.936 1.201 5.739 3.203 7.741 1.735 1.735 3.87 2.669 6.139 2.936v2.669h-4.004c-.801 0-1.335.534-1.335 1.335s.534 1.335 1.335 1.335h10.677c.801 0 1.335-.534 1.335-1.335s-.534-1.335-1.335-1.335h-4.004v-2.669c1.868-.267 3.737-.934 5.205-2.135l7.207 7.207c.267.267.667.4.934.4s.667-.133.934-.4c.534-.667.534-1.468 0-2.002zM16.016 18.091c-.667 0-1.335-.267-1.868-.801s-.801-1.201-.801-1.868v-.801l3.337 3.337c-.267.133-.4.133-.667.133zM11.878 5.278c.667.133 1.335-.4 1.468-1.068a2.727 2.727 0 012.669-2.135c.667 0 1.335.267 1.868.801s.801 1.201.801 1.868v7.074c0 .801.534 1.335 1.335 1.335s1.335-.534 1.335-1.335V4.744c0-1.468-.534-2.803-1.602-3.737-.934-1.068-2.269-1.602-3.737-1.602-2.536 0-4.671 1.735-5.205 4.271-.133.667.267 1.468 1.068 1.602zm13.08 13.08h.267c.667 0 1.201-.4 1.335-1.068s.133-1.201.133-1.868v-2.669c0-.801-.534-1.335-1.335-1.335s-1.335.534-1.335 1.335v2.669c0 .534 0 .934-.133 1.468-.133.667.4 1.335 1.068 1.468z"/></svg>