<svg xmlns="http://www.w3.org/2000/svg" width="32" height="32" viewBox="0 0 32 32"><title>mic</title><path d="M16.016 20.76c2.936 0 5.339-2.402 5.339-5.339V4.744c0-2.936-2.402-5.339-5.339-5.339s-5.339 2.402-5.339 5.339v10.677c0 2.936 2.402 5.339 5.339 5.339zm-2.67-16.016c0-1.468 1.201-2.669 2.669-2.669s2.669 1.201 2.669 2.669v10.677c0 1.468-1.201 2.669-2.669 2.669s-2.669-1.201-2.669-2.669V4.744zm12.012 6.673c-.801 0-1.335.534-1.335 1.335v2.669c0 4.404-3.604 8.008-8.008 8.008s-8.008-3.604-8.008-8.008v-2.669c0-.801-.534-1.335-1.335-1.335s-1.335.534-1.335 1.335v2.669c0 5.472 4.137 9.876 9.342 10.544v2.803h-4.004c-.801 0-1.335.534-1.335 1.335s.534 1.335 1.335 1.335h10.677c.801 0 1.335-.534 1.335-1.335s-.534-1.335-1.335-1.335h-4.004v-2.803c5.205-.667 9.342-5.205 9.342-10.544v-2.669c0-.801-.534-1.335-1.335-1.335z"/></svg>