<svg xmlns="http://www.w3.org/2000/svg" width="32" height="32" viewBox="0 0 32 32"><title>minimize-2</title><path d="M13.88 16.889c-.133-.133-.4-.133-.534-.133H5.338c-.801 0-1.335.534-1.335 1.335s.534 1.335 1.335 1.335h4.805L3.069 26.5a1.29 1.29 0 000 1.868c.267.267.534.4.934.4s.667-.133.934-.4l7.074-7.074v4.805c0 .801.534 1.335 1.335 1.335s1.335-.534 1.335-1.335v-8.008c0-.133 0-.4-.133-.534a1.6 1.6 0 00-.667-.667zM28.962 2.475a1.29 1.29 0 00-1.868 0L20.02 9.549V4.744c0-.801-.534-1.335-1.335-1.335s-1.335.534-1.335 1.335v8.008c0 .133 0 .4.133.534.133.267.4.534.667.667.133.133.4.133.534.133h8.008c.801 0 1.335-.534 1.335-1.335s-.534-1.335-1.335-1.335h-4.805l7.074-7.074a1.29 1.29 0 000-1.868z"/></svg>