<svg xmlns="http://www.w3.org/2000/svg" width="32" height="32" viewBox="0 0 32 32"><title>moon</title><path d="M28.695 15.288c-.4-.267-1.068-.267-1.468.133a7.81 7.81 0 01-9.476 0c-3.604-2.669-4.404-7.607-1.735-11.211.267-.4.4-.934.133-1.468-.267-.4-.801-.667-1.335-.667A13.14 13.14 0 002.802 14.087c-.667 7.34 4.671 13.88 12.012 14.548h1.201c3.07 0 6.139-1.068 8.542-3.07 2.803-2.269 4.404-5.472 4.805-9.076 0-.4-.267-.934-.667-1.201zm-5.739 8.275c-2.135 1.868-4.938 2.669-7.741 2.402-5.872-.534-10.143-5.739-9.609-11.611.4-4.137 3.203-7.741 6.94-9.076-1.602 4.271-.133 9.342 3.737 12.279 2.936 2.135 6.673 2.669 10.01 1.468-.801 1.735-1.868 3.337-3.337 4.538z"/></svg>