<svg xmlns="http://www.w3.org/2000/svg" width="32" height="32" viewBox="0 0 32 32"><title>move</title><path d="M30.563 15.955c.133-.267.133-.667 0-1.068-.133-.133-.133-.267-.267-.4l-4.004-4.004c-.534-.534-1.335-.534-1.868 0s-.534 1.335 0 1.868l1.735 1.735H17.35V5.277l1.735 1.735c.267.267.534.4.934.4s.667-.133.934-.4a1.29 1.29 0 000-1.868L16.949 1.14c-.133-.133-.267-.267-.4-.267-.267-.133-.667-.133-1.068 0-.133.133-.267.133-.4.267l-4.004 4.004c-.534.534-.534 1.335 0 1.868s1.335.534 1.868 0l1.735-1.735v8.809H5.871l1.735-1.735c.534-.534.534-1.335 0-1.868s-1.335-.534-1.868 0l-4.004 4.004c-.133.133-.267.267-.267.4-.133.267-.133.667 0 1.068.133.133.133.267.267.4l4.004 4.004c.267.267.534.4.934.4s.667-.133.934-.4a1.29 1.29 0 000-1.868l-1.735-1.735h8.809v8.809l-1.735-1.735c-.534-.534-1.335-.534-1.868 0s-.534 1.335 0 1.868l4.004 4.004c.133.133.267.267.4.267.133.133.4.133.534.133s.4 0 .534-.133c.133-.133.267-.133.4-.267l4.004-4.004c.534-.534.534-1.335 0-1.868s-1.335-.534-1.868 0l-1.735 1.735v-8.809h8.809l-1.735 1.735a1.29 1.29 0 000 1.868c.267.267.667.4.934.4s.667-.133.934-.4l4.004-4.004c.133-.133.267-.267.267-.4z"/></svg>