<svg xmlns="http://www.w3.org/2000/svg" width="32" height="32" viewBox="0 0 32 32"><title>music</title><path d="M28.828 2.342c-.267-.267-.667-.267-1.068-.267L11.744 4.744c-.534.133-1.068.667-1.068 1.335V20.76H6.672c-2.269 0-4.004 1.735-4.004 4.004s1.735 4.004 4.004 4.004h2.669c2.269 0 4.004-1.735 4.004-4.004V7.147l13.346-2.269v13.213h-4.004c-2.269 0-4.004 1.735-4.004 4.004s1.735 4.004 4.004 4.004h2.669c2.269 0 4.004-1.735 4.004-4.004V3.41c0-.4-.133-.801-.534-1.068zM10.677 24.764c0 .801-.534 1.335-1.335 1.335H6.673c-.801 0-1.335-.534-1.335-1.335s.534-1.335 1.335-1.335h4.004v1.335zm16.016-2.67c0 .801-.534 1.335-1.335 1.335h-2.669c-.801 0-1.335-.534-1.335-1.335s.534-1.335 1.335-1.335h4.004v1.335z"/></svg>