<svg xmlns="http://www.w3.org/2000/svg" width="32" height="32" viewBox="0 0 32 32"><title>package</title><path d="M28.428 5.545L17.751.206c-1.068-.534-2.402-.534-3.604 0L3.47 5.545a3.846 3.846 0 00-2.135 3.47v12.679c0 1.468.801 2.936 2.269 3.604l10.677 5.339c.534.267 1.201.4 1.735.4.667 0 1.201-.133 1.735-.4l10.677-5.339c1.335-.667 2.269-2.002 2.269-3.604V9.015c0-1.468-.801-2.803-2.269-3.47zm-12.946-3.07c.133-.133.4-.133.534-.133.267 0 .4 0 .534.133l9.876 4.938-3.737 1.868-10.41-5.205 3.203-1.602zm.534 10.144L5.606 7.414l3.737-1.868 10.41 5.205-3.737 1.868zM4.671 23.029c-.4-.267-.667-.801-.667-1.201V9.549l10.677 5.339v13.079l-10.01-4.938zm22.556 0l-9.876 4.938V14.888l10.677-5.339v12.279c0 .534-.267.934-.801 1.201z"/></svg>