<svg xmlns="http://www.w3.org/2000/svg" width="32" height="32" viewBox="0 0 32 32"><title>pause</title><path d="M13.346 3.41H8.007c-.801 0-1.335.534-1.335 1.335v21.354c0 .801.534 1.335 1.335 1.335h5.339c.801 0 1.335-.534 1.335-1.335V4.745c0-.801-.534-1.335-1.335-1.335zm-1.334 21.354H9.343V6.079h2.669v18.685zM24.023 3.41h-5.339c-.801 0-1.335.534-1.335 1.335v21.354c0 .801.534 1.335 1.335 1.335h5.339c.801 0 1.335-.534 1.335-1.335V4.745c0-.801-.534-1.335-1.335-1.335zm-1.334 21.354H20.02V6.079h2.669v18.685z"/></svg>