<svg xmlns="http://www.w3.org/2000/svg" width="32" height="32" viewBox="0 0 32 32"><title>phone-incoming</title><path d="M31.631-.194a1.29 1.29 0 00-1.868 0L22.689 6.88V2.075c0-.801-.534-1.335-1.335-1.335s-1.335.534-1.335 1.335v8.008c0 .133 0 .4.133.534.133.267.4.534.667.667.133.133.4.133.534.133h8.008c.801 0 1.335-.534 1.335-1.335s-.534-1.335-1.335-1.335h-4.805l7.074-7.074a1.29 1.29 0 000-1.868zm-4.404 18.151c-1.201-.133-2.402-.4-3.47-.801-1.468-.534-3.07-.133-4.271.934l-.934.934c-2.402-1.602-4.538-3.604-6.139-6.139l.934-.934c1.068-1.068 1.468-2.803.934-4.271-.4-1.068-.667-2.269-.801-3.47C13.213 2.208 11.478.74 9.476.74H5.072c-1.068.133-2.002.667-2.669 1.468s-.934 1.868-.934 2.936c.4 4.271 2.002 8.542 4.271 12.145a28.055 28.055 0 008.408 8.408c3.604 2.402 7.874 3.87 12.145 4.271h.4c1.068 0 2.135-.4 2.803-1.201s1.201-1.735 1.201-2.803V21.96c0-2.002-1.468-3.737-3.47-4.004zm.8 4.004v4.004c0 .4-.133.667-.4.934s-.534.4-1.068.4c-3.87-.4-7.607-1.735-10.944-3.87-3.07-1.868-5.605-4.538-7.607-7.607-2.135-3.337-3.47-7.074-3.87-10.944 0-.4.133-.667.267-.934.267-.267.667-.534 1.068-.534h4.004c.667 0 1.201.534 1.335 1.201a13.644 13.644 0 001.068 4.004c.133.534 0 1.068-.267 1.468l-1.735 1.602c-.4.4-.534 1.068-.267 1.602a21.896 21.896 0 008.542 8.542c.534.267 1.201.267 1.602-.267l1.735-1.735c.4-.4.934-.534 1.468-.267 1.335.534 2.669.801 4.004 1.068.534.133 1.068.667 1.068 1.335z"/></svg>