<svg xmlns="http://www.w3.org/2000/svg" width="32" height="32" viewBox="0 0 32 32"><title>pie-chart</title><path d="M28.828 19.425c-.667-.267-1.468 0-1.735.667-2.536 6.139-9.609 8.942-15.749 6.406s-8.942-9.609-6.406-15.749a12.004 12.004 0 016.273-6.273c.667-.267.934-1.068.667-1.735s-1.068-1.068-1.735-.801c-3.47 1.468-6.139 4.271-7.607 7.741-3.203 7.474.4 16.149 7.741 19.219 1.868.801 3.87 1.201 5.739 1.201 5.739 0 11.211-3.337 13.48-8.942.267-.667 0-1.468-.667-1.735zM16.016.74c-.801 0-1.335.534-1.335 1.335v13.346c0 .801.534 1.335 1.335 1.335h13.346c.801 0 1.335-.534 1.335-1.335A14.64 14.64 0 0016.016.74zm1.334 13.347V3.543c5.605.667 10.01 5.072 10.544 10.544H17.35z"/></svg>