<svg xmlns="http://www.w3.org/2000/svg" width="32" height="32" viewBox="0 0 32 32"><title>play-circle</title><path d="M16.016.74C7.875.74 1.335 7.28 1.335 15.421s6.54 14.681 14.681 14.681 14.681-6.54 14.681-14.681S24.157.74 16.016.74zm0 26.693c-6.673 0-12.012-5.339-12.012-12.012S9.343 3.409 16.016 3.409s12.012 5.339 12.012 12.012-5.339 12.012-12.012 12.012zm6.139-13.079l-8.008-5.339a1.213 1.213 0 00-1.335 0c-.534.133-.801.534-.801 1.068V20.76c0 .534.267.934.667 1.201.267.133.4.133.667.133s.534-.133.801-.267l8.008-5.339c.4-.267.534-.667.534-1.068s-.267-.801-.534-1.068zm-7.474 3.87v-5.605l4.271 2.803-4.271 2.803z"/></svg>