<svg xmlns="http://www.w3.org/2000/svg" width="32" height="32" viewBox="0 0 32 32"><title>plus-square</title><path d="M25.358 2.075H6.673c-2.269 0-4.004 1.735-4.004 4.004v18.685c0 2.269 1.735 4.004 4.004 4.004h18.685c2.269 0 4.004-1.735 4.004-4.004V6.079c0-2.269-1.735-4.004-4.004-4.004zm1.335 22.689c0 .801-.534 1.335-1.335 1.335H6.673c-.801 0-1.335-.534-1.335-1.335V6.079c0-.801.534-1.335 1.335-1.335h18.685c.801 0 1.335.534 1.335 1.335v18.685zm-5.339-10.677H17.35v-4.004c0-.801-.534-1.335-1.335-1.335s-1.335.534-1.335 1.335v4.004h-4.004c-.801 0-1.335.534-1.335 1.335s.534 1.335 1.335 1.335h4.004v4.004c0 .801.534 1.335 1.335 1.335s1.335-.534 1.335-1.335v-4.004h4.004c.801 0 1.335-.534 1.335-1.335s-.534-1.335-1.335-1.335z"/></svg>