<svg xmlns="http://www.w3.org/2000/svg" width="32" height="32" viewBox="0 0 32 32"><title>printer</title><path d="M26.693 10.083h-1.335V2.075c0-.801-.534-1.335-1.335-1.335H8.007c-.801 0-1.335.534-1.335 1.335v8.008H5.337c-2.269 0-4.004 1.735-4.004 4.004v6.673c0 2.269 1.735 4.004 4.004 4.004h1.335v4.004c0 .801.534 1.335 1.335 1.335h16.016c.801 0 1.335-.534 1.335-1.335v-4.004h1.335c2.269 0 4.004-1.735 4.004-4.004v-6.673c0-2.269-1.735-4.004-4.004-4.004zM9.342 3.41h13.346v6.673H9.342V3.41zm13.347 24.023H9.343v-8.008h13.346v8.008zm5.338-6.673c0 .801-.534 1.335-1.335 1.335h-1.335v-4.004c0-.801-.534-1.335-1.335-1.335H8.006c-.801 0-1.335.534-1.335 1.335v4.004H5.336c-.801 0-1.335-.534-1.335-1.335v-6.673c0-.801.534-1.335 1.335-1.335H26.69c.801 0 1.335.534 1.335 1.335v6.673z"/></svg>