<svg xmlns="http://www.w3.org/2000/svg" width="32" height="32" viewBox="0 0 32 32"><title>px</title><path d="M7.912 21.451c0 .032.16.48.256.705.512 1.249 1.281 2.37 2.242 3.331s2.082 1.73 3.331 2.242c1.281.545 2.659.833 4.068.833s2.787-.288 4.068-.833c1.249-.512 2.37-1.281 3.331-2.242s1.73-2.082 2.242-3.331c.545-1.281.833-2.659.833-4.068s-.288-2.787-.833-4.068c-.512-1.249-1.281-2.37-2.242-3.331s-2.082-1.73-3.331-2.242a10.376 10.376 0 00-4.068-.833c-1.441 0-2.851.288-4.132.833-1.025.416-2.755 1.537-3.748 2.595v-8.68h14.51c.512 0 .512-.737.512-.993s0-.993-.545-.993L8.775.408a.705.705 0 00-.705.673v12.14c0 .384.48.673.929.769.897.192 1.089-.096 1.313-.384l.032-.032c.32-.48 1.377-1.537 1.377-1.537 1.602-1.602 3.78-2.498 6.086-2.498s4.452.897 6.054 2.498c1.634 1.634 2.498 3.78 2.498 6.054s-.897 4.42-2.498 6.054c-1.602 1.602-3.812 2.498-6.086 2.498a8.428 8.428 0 01-4.324-1.185v-7.399c0-.993.416-2.05 1.153-2.851.833-.929 1.954-1.441 3.171-1.441 1.185 0 2.306.448 3.139 1.281a4.188 4.188 0 011.281 3.043c0 2.466-1.954 4.388-4.42 4.388-.48 0-1.345-.224-1.377-.224-.512-.16-.705.545-.769.769-.256.865.128 1.057.224 1.089.801.256 1.313.288 2.018.288 3.491 0 6.342-2.851 6.342-6.342 0-3.459-2.851-6.31-6.342-6.31-1.698 0-3.331.641-4.516 1.858-1.153 1.121-1.826 2.627-1.826 4.132v6.086c-.673-.737-1.313-1.858-1.73-2.979-.16-.448-.545-.352-1.057-.192-.288.096-.993.288-.833.801zm7.463-1.73c0 .224.192.384.32.512v.032c.192.192.384.288.577.288.16 0 .224-.064.256-.096l1.185-1.185 1.121 1.089c.096.128.224.16.352.192.192 0 .384-.096.577-.32.48-.48.224-.737.128-.865l-1.121-1.121 1.153-1.185c.256-.288.032-.577-.192-.801-.32-.32-.641-.416-.833-.224l-1.153 1.153-1.185-1.185a.29.29 0 00-.224-.096c-.16 0-.352.096-.545.32-.352.352-.448.609-.256.801l1.185 1.185-1.153 1.185a.356.356 0 00-.192.32zm2.563-15.887c-1.89 0-3.876.384-5.349 1.025-.16.064-.256.192-.256.352-.032.16.032.384.128.673.096.224.32.865.801.673 1.505-.577 3.171-.897 4.677-.897 1.73 0 3.363.32 4.933.993 1.249.513 2.402 1.281 3.684 2.402a.39.39 0 00.288.128c.256 0 .48-.256.705-.48.352-.384.577-.705.224-1.025-1.217-1.153-2.563-2.018-4.196-2.723a14.747 14.747 0 00-5.637-1.121zm10.089 23.191c-.224-.224-.416-.352-.577-.416s-.32 0-.448.096l-.096.128a12.823 12.823 0 01-4.036 2.723c-1.57.673-3.235.993-4.933.993s-3.363-.32-4.933-.993a12.66 12.66 0 01-4.036-2.723c-1.217-1.217-2.114-2.563-2.723-4.036-.577-1.409-.769-2.498-.833-2.851v-.064c-.064-.416-.448-.448-.993-.352-.224.032-.929.128-.865.641.192 1.153.512 2.274.961 3.363a14.653 14.653 0 003.107 4.613c1.345 1.345 2.883 2.402 4.612 3.107 1.794.769 3.716 1.153 5.67 1.153s3.876-.384 5.67-1.153a14.653 14.653 0 004.613-3.107l.128-.128c.192-.128.32-.416-.288-.993z"/></svg>