<svg xmlns="http://www.w3.org/2000/svg" width="32" height="32" viewBox="0 0 32 32"><title>refresh-ccw</title><path d="M1.335 14.087h8.008c.801 0 1.335-.534 1.335-1.335s-.534-1.335-1.335-1.335H4.672l3.737-3.604c1.068-1.068 2.536-2.002 4.004-2.536 2.669-.934 5.605-.801 8.141.4s4.538 3.337 5.472 6.139c.267.667 1.068 1.068 1.735.801s1.068-1.068.801-1.735c-1.201-3.337-3.604-6.006-6.807-7.607s-6.807-1.735-10.143-.534c-1.868.801-3.604 1.868-4.938 3.203L2.67 9.681V4.743c0-.801-.534-1.335-1.335-1.335S0 3.942 0 4.743v8.408c0 .133.133.133.133.267 0 0 0 .133.133.133.133.133.267.267.4.267a.863.863 0 00.667.267zm30.696 3.737v-.267c0-.134-.133-.133-.133-.267 0 0 0-.133-.133-.133-.133-.133-.133-.133-.267-.133l-.133-.133h-.133s-.267 0-.4-.133h-8.008c-.801 0-1.335.534-1.335 1.335s.534 1.335 1.335 1.335h4.671l-3.737 3.604c-4.137 4.137-10.944 4.137-15.081 0-1.068-1.068-2.002-2.536-2.536-4.004-.267-.667-1.068-1.068-1.735-.801s-1.068 1.068-.801 1.735c.667 1.868 1.735 3.604 3.203 4.938 2.669 2.669 6.006 3.87 9.476 3.87s6.807-1.335 9.342-3.87l4.004-3.737v4.938c0 .801.534 1.335 1.335 1.335s1.335-.534 1.335-1.335v-8.008c-.267-.133-.267-.133-.267-.267z"/></svg>