<svg xmlns="http://www.w3.org/2000/svg" width="32" height="32" viewBox="0 0 32 32"><title>refresh-cw</title><path d="M27.76 18.224c-.667-.267-1.468.133-1.735.801-.534 1.468-1.335 2.936-2.536 4.004-1.868 2.002-4.671 3.07-7.474 3.07s-5.472-1.068-7.607-3.203l-3.737-3.47h4.671c.801 0 1.335-.534 1.335-1.335s-.534-1.335-1.335-1.335H1.334c-.133 0-.267 0-.267.133H.934s-.133 0-.133.133a.287.287 0 00-.267.267s0 .133-.133.133c0 .133-.133.133-.133.267v8.408c0 .801.534 1.335 1.335 1.335s1.335-.534 1.335-1.335v-4.938l3.87 3.737c2.269 2.536 5.605 3.87 9.209 3.87 3.604 0 6.94-1.335 9.476-3.87 1.335-1.335 2.536-3.07 3.203-4.938.133-.801-.267-1.602-.934-1.735zm4.271-5.338V4.745c0-.801-.534-1.335-1.335-1.335s-1.335.534-1.335 1.335v4.938l-3.87-3.737c-1.335-1.335-3.07-2.536-4.938-3.203-3.47-1.068-7.074-.934-10.277.667-3.203 1.468-5.605 4.137-6.807 7.607-.267.667.133 1.468.801 1.602.667.267 1.468-.133 1.735-.801.934-2.669 2.936-4.805 5.472-6.139 2.536-1.201 5.472-1.335 8.141-.4 1.468.534 2.936 1.335 4.004 2.536l3.737 3.604h-4.671c-.801 0-1.335.534-1.335 1.335s.534 1.335 1.335 1.335h8.008c.133 0 .4 0 .534-.133.133-.133.267-.133.4-.267s0-.133.133-.133c0-.133.133-.133.133-.267.133-.133.133-.267.133-.4z"/></svg>