<svg xmlns="http://www.w3.org/2000/svg" width="32" height="32" viewBox="0 0 32 32"><title>repeat</title><path d="M4.004 15.421c.801 0 1.335-.534 1.335-1.335v-2.669c0-2.269 1.735-4.004 4.004-4.004h15.482l-3.07 3.07a1.29 1.29 0 000 1.868c.267.267.534.4.934.4s.667-.133.934-.4l5.339-5.339c.133-.133.267-.267.267-.4.133-.267.133-.667 0-1.068-.133-.133-.133-.267-.267-.4L23.623-.195c-.534-.534-1.335-.534-1.868 0s-.534 1.335 0 1.868l3.07 3.07H9.343c-3.737 0-6.673 2.936-6.673 6.673v2.669c0 .801.534 1.335 1.335 1.335zm24.023 0c-.801 0-1.335.534-1.335 1.335v2.669c0 2.269-1.735 4.004-4.004 4.004H7.206l3.07-3.07c.534-.534.534-1.335 0-1.868s-1.335-.534-1.868 0L3.069 23.83c-.133.133-.267.267-.267.4-.133.267-.133.667 0 1.068.133.133.133.267.267.4l5.339 5.339c.267.267.534.4.934.4s.667-.133.934-.4a1.29 1.29 0 000-1.868l-3.07-3.07h15.482c3.737 0 6.673-2.936 6.673-6.673v-2.669c0-.801-.534-1.335-1.335-1.335z"/></svg>