<svg xmlns="http://www.w3.org/2000/svg" width="32" height="32" viewBox="0 0 32 32"><title>rewind</title><path d="M15.215 4.878c-.4-.267-1.068-.133-1.468.133L1.735 14.353c-.267.267-.4.667-.4 1.068s.133.801.534 1.068l12.012 9.342c.267.133.534.267.801.267.133 0 .4 0 .534-.133.4-.267.801-.667.801-1.201V6.079c0-.534-.267-.934-.801-1.201zm-1.869 17.216l-8.542-6.673 8.542-6.673v13.346zm16.55-17.216c-.4-.267-1.068-.133-1.468.133l-12.012 9.342c-.267.267-.4.667-.4 1.068s.133.801.534 1.068l12.012 9.342c.267.133.534.267.801.267.133 0 .4 0 .534-.133.4-.267.801-.667.801-1.201V6.079c0-.534-.267-.934-.801-1.201zm-1.869 17.216l-8.542-6.673 8.542-6.673v13.346z"/></svg>