<svg xmlns="http://www.w3.org/2000/svg" width="32" height="32" viewBox="0 0 32 32"><title>rotate-cw</title><path d="M32.031 12.886V4.745c0-.801-.534-1.335-1.335-1.335s-1.335.534-1.335 1.335v4.938l-3.87-3.737c-1.335-1.335-3.07-2.536-4.938-3.203C13.479.341 5.872 4.078 3.47 11.018s1.201 14.548 8.141 17.083c1.468.4 2.936.667 4.404.667 5.472 0 10.677-3.47 12.546-8.942.267-.667-.133-1.468-.801-1.735s-1.468.133-1.735.801c-2.002 5.605-8.008 8.408-13.613 6.54-5.605-2.002-8.408-8.008-6.54-13.613 2.002-5.472 8.141-8.408 13.747-6.406 1.468.534 2.936 1.335 4.004 2.536l3.737 3.47h-4.671c-.801 0-1.335.534-1.335 1.335s.534 1.335 1.335 1.335h8.008c.133 0 .267 0 .267-.133h.133l.133-.133a.287.287 0 00.267-.267s0-.133.133-.133c0-.133.133-.133.133-.267.267 0 .267-.133.267-.267z"/></svg>