<svg xmlns="http://www.w3.org/2000/svg" width="32" height="32" viewBox="0 0 32 32"><title>rss</title><path d="M5.339 12.752c-.801 0-1.335.534-1.335 1.335s.534 1.335 1.335 1.335c5.872 0 10.677 4.805 10.677 10.677 0 .801.534 1.335 1.335 1.335s1.335-.534 1.335-1.335c0-7.34-6.006-13.346-13.346-13.346zm0-9.342c-.801 0-1.335.534-1.335 1.335S4.538 6.08 5.339 6.08c11.077 0 20.02 8.942 20.02 20.02 0 .801.534 1.335 1.335 1.335s1.335-.534 1.335-1.335c0-12.546-10.143-22.689-22.689-22.689zm4.003 21.354a2.67 2.67 0 11-5.338 0 2.67 2.67 0 015.338 0z"/></svg>