<svg xmlns="http://www.w3.org/2000/svg" width="32" height="32" viewBox="0 0 32 32"><title>save</title><path d="M28.962 9.149l-6.673-6.673c-.267-.267-.534-.4-.934-.4H6.674c-2.269 0-4.004 1.735-4.004 4.004v18.685c0 2.269 1.735 4.004 4.004 4.004h18.685c2.269 0 4.004-1.735 4.004-4.004V10.084c0-.4-.133-.667-.4-.934zm-7.608 16.949H10.677V18.09h10.677v8.008zm5.339-1.334c0 .801-.534 1.335-1.335 1.335h-1.335v-9.342c0-.801-.534-1.335-1.335-1.335H9.342c-.801 0-1.335.534-1.335 1.335v9.342H6.672c-.801 0-1.335-.534-1.335-1.335V6.079c0-.801.534-1.335 1.335-1.335h1.335v5.339c0 .801.534 1.335 1.335 1.335h10.677c.801 0 1.335-.534 1.335-1.335s-.534-1.335-1.335-1.335h-9.342V4.744H20.82l5.872 5.872v14.147z"/></svg>