<svg xmlns="http://www.w3.org/2000/svg" width="32" height="32" viewBox="0 0 32 32"><title>server</title><path d="M26.693.74H5.339C3.07.74 1.335 2.475 1.335 4.744v5.339c0 2.269 1.735 4.004 4.004 4.004h21.354c2.269 0 4.004-1.735 4.004-4.004V4.744c0-2.269-1.735-4.004-4.004-4.004zm1.334 9.343c0 .801-.534 1.335-1.335 1.335H5.338c-.801 0-1.335-.534-1.335-1.335V4.744c0-.801.534-1.335 1.335-1.335h21.354c.801 0 1.335.534 1.335 1.335v5.339zm-1.334 6.673H5.339c-2.269 0-4.004 1.735-4.004 4.004v5.339c0 2.269 1.735 4.004 4.004 4.004h21.354c2.269 0 4.004-1.735 4.004-4.004V20.76c0-2.269-1.735-4.004-4.004-4.004zm1.334 9.342c0 .801-.534 1.335-1.335 1.335H5.338c-.801 0-1.335-.534-1.335-1.335v-5.339c0-.801.534-1.335 1.335-1.335h21.354c.801 0 1.335.534 1.335 1.335v5.339zM7.074 6.479c-.267.267-.4.534-.4.934s.133.667.4.934.534.4.934.4.667-.133.934-.4.4-.534.4-.934-.133-.667-.4-.934a1.29 1.29 0 00-1.868 0zm0 16.016c-.267.267-.4.534-.4.934s.133.667.4.934.534.4.934.4.667-.133.934-.4.4-.534.4-.934-.133-.667-.4-.934a1.29 1.29 0 00-1.868 0z"/></svg>