<svg xmlns="http://www.w3.org/2000/svg" width="32" height="32" viewBox="0 0 32 32"><title>share</title><path d="M26.693 14.087c-.801 0-1.335.534-1.335 1.335v10.677c0 .801-.534 1.335-1.335 1.335H8.007c-.801 0-1.335-.534-1.335-1.335V15.422c0-.801-.534-1.335-1.335-1.335s-1.335.534-1.335 1.335v10.677c0 2.269 1.735 4.004 4.004 4.004h16.016c2.269 0 4.004-1.735 4.004-4.004V15.422c0-.801-.534-1.335-1.335-1.335zM11.611 8.348l3.07-3.07v14.147c0 .801.534 1.335 1.335 1.335s1.335-.534 1.335-1.335V5.278l3.07 3.07c.267.267.534.4.934.4s.667-.133.934-.4a1.29 1.29 0 000-1.868L16.95 1.141c-.133-.133-.267-.267-.4-.267-.267-.133-.667-.133-1.068 0-.133.133-.267.133-.4.267L9.743 6.48c-.534.534-.534 1.335 0 1.868s1.335.534 1.868 0z"/></svg>