<svg xmlns="http://www.w3.org/2000/svg" width="32" height="32" viewBox="0 0 32 32"><title>shield-off</title><path d="M12.279 4.878l3.737-1.335 9.342 3.47v8.408c0 .801-.133 1.602-.4 2.269s.133 1.468.934 1.602h.4c.534 0 1.068-.4 1.335-.934.267-.934.4-2.002.534-3.07V6.079c0-.534-.4-1.068-.801-1.201L16.683.874a1.143 1.143 0 00-.934 0l-4.404 1.468c-.667.267-1.068 1.068-.801 1.735s1.068 1.068 1.735.801zm19.352 24.29L2.269-.194C1.735-.728.934-.728.401-.194s-.534 1.335 0 1.868l3.737 3.737c0 .267-.133.4-.133.667v9.342c0 8.675 10.944 14.281 11.478 14.548.133.133.267.133.534.133s.4 0 .667-.133c2.536-1.335 4.805-3.07 6.94-5.072l6.273 6.273c.267.267.667.4.934.4s.667-.133.934-.4c.4-.667.4-1.468-.133-2.002zM16.016 27.3c-2.135-1.201-9.342-5.739-9.342-11.878V7.948l14.948 14.948a22.746 22.746 0 01-5.605 4.404z"/></svg>