<svg xmlns="http://www.w3.org/2000/svg" width="32" height="32" viewBox="0 0 32 32"><title>shopping-cart</title><path d="M14.681 27.433a2.67 2.67 0 11-5.338 0 2.67 2.67 0 015.338 0zm14.681 0a2.67 2.67 0 11-5.338 0 2.67 2.67 0 015.338 0zm2.402-20.82c-.267-.4-.667-.534-1.068-.534H9.075L8.007.474C7.874-.193 7.34-.594 6.672-.594H1.333C.532-.594-.002-.06-.002.741s.534 1.335 1.335 1.335h4.271l1.068 5.605v.133l2.269 11.077c.4 1.868 2.002 3.203 3.87 3.203H25.89c2.002 0 3.604-1.335 4.004-3.203L32.029 7.68c0-.4 0-.801-.267-1.068zm-4.537 11.745c-.133.667-.667 1.068-1.335 1.068H12.946c-.667 0-1.201-.4-1.335-1.068L9.609 8.749h19.486l-1.868 9.609z"/></svg>