<svg xmlns="http://www.w3.org/2000/svg" width="32" height="32" viewBox="0 0 32 32"><title>shopping-bag</title><path d="M29.229 6.88s0-.133-.133-.133c0 0 0-.133-.133-.133l-4.004-5.339c-.133-.4-.534-.534-.934-.534H8.009c-.4 0-.801.133-1.068.534L2.937 6.614s0 .133-.133.133c0 0 0 .133-.133.133v19.219c0 2.269 1.735 4.004 4.004 4.004H25.36c2.269 0 4.004-1.735 4.004-4.004V7.414c0-.133 0-.267-.133-.534zM8.675 3.41h14.681l2.002 2.669H6.673L8.675 3.41zm16.683 24.023H6.673c-.801 0-1.335-.534-1.335-1.335V8.748h21.354v17.35c0 .801-.534 1.335-1.335 1.335zm-4.004-16.016c-.801 0-1.335.534-1.335 1.335 0 2.269-1.735 4.004-4.004 4.004s-4.004-1.735-4.004-4.004c0-.801-.534-1.335-1.335-1.335s-1.335.534-1.335 1.335c0 3.737 2.936 6.673 6.673 6.673s6.673-2.936 6.673-6.673c0-.801-.534-1.335-1.335-1.335z"/></svg>