<svg xmlns="http://www.w3.org/2000/svg" width="32" height="32" viewBox="0 0 32 32"><title>shuffle</title><path d="M29.229 2.876a1.6 1.6 0 00-.667-.667c-.133-.133-.4-.133-.534-.133h-6.673c-.801 0-1.335.534-1.335 1.335s.534 1.335 1.335 1.335h3.47l-20.42 20.42a1.29 1.29 0 000 1.868c.267.267.534.4.934.4s.667-.133.934-.4l20.42-20.42v3.47c0 .801.534 1.335 1.335 1.335s1.335-.534 1.335-1.335V3.411c0-.133 0-.4-.133-.534zm-1.202 16.549c-.801 0-1.335.534-1.335 1.335v3.47l-5.739-5.739c-.534-.534-1.335-.534-1.868 0s-.534 1.335 0 1.868l5.739 5.739h-3.47c-.801 0-1.335.534-1.335 1.335s.534 1.335 1.335 1.335h6.673c.133 0 .4 0 .534-.133a1.6 1.6 0 00.667-.667c.133-.133.133-.4.133-.534v-6.673c0-.801-.534-1.335-1.335-1.335zm-16.95-7.073c.267.267.534.4.934.4s.667-.133.934-.4a1.29 1.29 0 000-1.868L6.272 3.811c-.534-.534-1.335-.534-1.868 0s-.534 1.335 0 1.868l6.673 6.673z"/></svg>