<svg xmlns="http://www.w3.org/2000/svg" width="32" height="32" viewBox="0 0 32 32"><title>skip-forward</title><path d="M7.474 3.676c-.4-.267-.934-.4-1.335-.133-.534.267-.801.667-.801 1.201v21.354c0 .534.267.934.801 1.201.133.133.4.133.534.133.267 0 .534-.133.801-.267L20.82 16.488c.267-.267.534-.667.534-1.068s-.133-.801-.534-1.068L7.474 3.675zm.534 19.62V7.547l9.876 7.874-9.876 7.874zm17.35-18.552c-.801 0-1.335.534-1.335 1.335v18.685c0 .801.534 1.335 1.335 1.335s1.335-.534 1.335-1.335V6.079c0-.801-.534-1.335-1.335-1.335z"/></svg>