<svg xmlns="http://www.w3.org/2000/svg" width="32" height="32" viewBox="0 0 32 32"><title>skype</title><path d="M30.905 19.801c.25-1.001.313-2.127.313-3.191 0-8.321-6.694-15.077-15.015-15.077-.876 0-1.752.063-2.565.188C12.262.908 10.698.407 8.946.407 4.129.407.25 4.348.25 9.166c0 1.564.438 3.128 1.189 4.379-.188 1.001-.313 2.002-.313 3.065 0 8.321 6.757 15.015 15.077 15.015.938 0 1.814-.063 2.753-.25 1.189.688 2.628 1.064 4.129 1.064 4.817 0 8.696-3.941 8.696-8.759 0-1.376-.313-2.69-.876-3.879zm-7.132 3.941c-.688 1.001-1.689 1.752-3.066 2.315-1.314.563-2.878.813-4.692.813-2.127 0-3.941-.375-5.38-1.126-1.001-.5-1.877-1.251-2.502-2.19s-.938-1.814-.938-2.69c0-.563.188-1.064.626-1.439s.938-.563 1.564-.563c.501 0 .938.125 1.314.438s.688.751.876 1.314c.313.563.563 1.126.876 1.501s.751.751 1.251 1.001c.563.25 1.314.375 2.19.375 1.251 0 2.315-.25 3.066-.813.751-.5 1.126-1.126 1.126-1.877 0-.563-.188-1.064-.626-1.439-.375-.375-.938-.626-1.564-.876a57.515 57.515 0 00-2.753-.688c-1.564-.313-2.94-.688-4.004-1.189-1.064-.438-1.939-1.064-2.565-1.877s-1.001-1.814-1.001-3.003c0-1.126.375-2.19 1.064-3.066s1.627-1.564 2.94-2.002c1.251-.5 2.69-.688 4.379-.688 1.376 0 2.565.125 3.503.438 1.001.313 1.877.751 2.502 1.251.688.501 1.189 1.064 1.501 1.627s.438 1.189.438 1.752c0 .501-.188 1.001-.626 1.439-.375.438-.938.626-1.564.626-.5 0-.938-.125-1.251-.375s-.563-.688-.938-1.189c-.375-.751-.813-1.314-1.314-1.689s-1.376-.563-2.502-.563-2.002.188-2.628.626c-.626.375-.938.876-.938 1.439 0 .313.063.626.313.876.188.25.501.501.876.688s.813.375 1.189.438c.438.125 1.126.313 2.127.563 1.189.25 2.315.501 3.316.813 1.001.375 1.877.751 2.565 1.189.751.501 1.314 1.064 1.689 1.814.438.688.626 1.627.626 2.628a5.847 5.847 0 01-1.064 3.378z"/></svg>