<svg xmlns="http://www.w3.org/2000/svg" width="32" height="32" viewBox="0 0 32 32"><title>slash</title><path d="M26.426 25.831c2.669-2.669 4.271-6.273 4.271-10.41A14.64 14.64 0 0016.016.74c-4.004 0-7.741 1.602-10.41 4.271-2.669 2.669-4.271 6.406-4.271 10.41a14.64 14.64 0 0014.681 14.681c4.004 0 7.741-1.602 10.41-4.271zm1.601-10.41c0 2.803-.934 5.472-2.669 7.474L8.542 6.079c2.002-1.735 4.671-2.669 7.474-2.669a11.962 11.962 0 0112.012 12.012zm-24.023 0c0-2.803.934-5.472 2.669-7.474l16.816 16.816c-2.002 1.602-4.671 2.669-7.474 2.669A11.962 11.962 0 014.003 15.42z"/></svg>