<svg xmlns="http://www.w3.org/2000/svg" width="32" height="32" viewBox="0 0 32 32"><title>smartphone</title><path d="M22.689.74H9.343c-2.269 0-4.004 1.735-4.004 4.004v21.354c0 2.269 1.735 4.004 4.004 4.004h13.346c2.269 0 4.004-1.735 4.004-4.004V4.744c0-2.269-1.735-4.004-4.004-4.004zm1.334 25.358c0 .801-.534 1.335-1.335 1.335H9.342c-.801 0-1.335-.534-1.335-1.335V4.744c0-.801.534-1.335 1.335-1.335h13.346c.801 0 1.335.534 1.335 1.335v21.354zm-8.942-3.603c-.267.267-.4.534-.4.934s.133.667.4.934.534.4.934.4.667-.133.934-.4.4-.667.4-.934-.133-.667-.4-.934a1.29 1.29 0 00-1.868 0z"/></svg>