<svg xmlns="http://www.w3.org/2000/svg" width="30" height="32" viewBox="0 0 30 32"><title>snapchat</title><path d="M15.158 2.981c3.217-.036 5.881 1.77 7.221 4.665.411.876.483 2.234.483 3.2 0 1.144-.089 2.27-.161 3.414.143.072.34.125.5.125.643 0 1.18-.483 1.823-.483.608 0 1.484.429 1.484 1.144 0 1.716-3.593 1.394-3.593 2.896 0 .268.107.518.215.769.858 1.877 2.485 3.682 4.415 4.487.465.197.929.304 1.43.411.322.072.5.304.5.626 0 1.215-3.092 1.716-3.915 1.841-.358.554-.089 1.859-1.037 1.859-.733 0-1.466-.232-2.252-.232-.375 0-.751.018-1.108.089-2.127.358-2.842 2.645-6.328 2.645-3.36 0-4.165-2.288-6.238-2.645a5.938 5.938 0 00-1.126-.089c-.804 0-1.573.268-2.216.268-1.001 0-.697-1.323-1.072-1.895-.822-.125-3.915-.626-3.915-1.841 0-.322.179-.554.5-.626.5-.107.965-.215 1.43-.411 1.913-.787 3.575-2.61 4.415-4.487.107-.25.215-.5.215-.769 0-1.501-3.611-1.215-3.611-2.878 0-.697.822-1.144 1.448-1.144.554 0 1.108.465 1.805.465.197 0 .393-.036.572-.125-.072-1.126-.161-2.252-.161-3.396 0-.965.072-2.342.483-3.217 1.573-3.396 4.236-4.63 7.793-4.665z"/></svg>