<svg xmlns="http://www.w3.org/2000/svg" width="32" height="32" viewBox="0 0 32 32"><title>star</title><path d="M30.697 11.417c-.133-.534-.534-.801-1.068-.934l-8.542-1.201-3.87-7.741c-.4-.934-2.002-.934-2.402 0l-3.87 7.607-8.408 1.335c-.534 0-.934.4-1.201.934-.133.534 0 1.068.4 1.335l6.139 6.006L6.407 27.3c-.133.534.133 1.068.534 1.335s.934.4 1.468.133l7.607-4.004 7.607 4.004h.667c.267 0 .534-.133.801-.267.4-.267.667-.801.534-1.335l-1.468-8.542 6.139-6.006c.4-.267.534-.801.4-1.201zm-8.942 5.873c-.267.4-.4.801-.4 1.201l1.068 6.54-5.872-3.07c-.4-.267-.801-.267-1.201 0l-5.872 3.07 1.201-6.54c0-.4-.133-.801-.4-1.201l-4.805-4.538 6.54-.934c.4 0 .801-.4 1.068-.667l2.936-6.006 2.936 5.872c.133.4.534.667 1.068.667l6.54.934-4.805 4.671z"/></svg>