<svg xmlns="http://www.w3.org/2000/svg" width="32" height="32" viewBox="0 0 32 32"><title>sun</title><path d="M16.016 7.413c-4.404 0-8.008 3.604-8.008 8.008s3.604 8.008 8.008 8.008 8.008-3.604 8.008-8.008-3.604-8.008-8.008-8.008zm0 13.347c-2.936 0-5.339-2.402-5.339-5.339s2.402-5.339 5.339-5.339c2.936 0 5.339 2.402 5.339 5.339s-2.402 5.339-5.339 5.339zm0-16.016c.801 0 1.335-.534 1.335-1.335V.74c0-.801-.534-1.335-1.335-1.335S14.681-.061 14.681.74v2.669c0 .801.534 1.335 1.335 1.335zm0 21.354c-.801 0-1.335.534-1.335 1.335v2.669c0 .801.534 1.335 1.335 1.335s1.335-.534 1.335-1.335v-2.669c0-.801-.534-1.335-1.335-1.335zM6.54 7.814c.267.267.667.4.934.4s.667-.133.934-.4a1.29 1.29 0 000-1.868L6.54 4.078c-.534-.534-1.335-.534-1.868 0s-.534 1.335 0 1.868L6.54 7.814zm18.952 15.215c-.534-.534-1.335-.534-1.868 0s-.534 1.335 0 1.868l1.868 1.868c.267.267.667.4.934.4s.667-.133.934-.4a1.29 1.29 0 000-1.868l-1.868-1.868zM5.339 15.421c0-.801-.534-1.335-1.335-1.335H1.335C.534 14.086 0 14.62 0 15.421s.534 1.335 1.335 1.335h2.669c.801 0 1.335-.534 1.335-1.335zm25.358-1.334h-2.669c-.801 0-1.335.534-1.335 1.335s.534 1.335 1.335 1.335h2.669c.801 0 1.335-.534 1.335-1.335s-.534-1.335-1.335-1.335zM6.54 23.029l-1.868 1.868a1.29 1.29 0 000 1.868c.267.267.667.4.934.4s.667-.133.934-.4l1.868-1.868c.534-.534.534-1.335 0-1.868s-1.335-.534-1.868 0zM24.557 8.214c.4 0 .667-.133.934-.4l1.868-1.868c.534-.534.534-1.335 0-1.868s-1.335-.534-1.868 0l-1.868 1.868a1.29 1.29 0 000 1.868c.133.267.534.4.934.4z"/></svg>