<svg xmlns="http://www.w3.org/2000/svg" width="32" height="32" viewBox="0 0 32 32"><title>sunset</title><path d="M16.016 15.421c-4.404 0-8.008 3.604-8.008 8.008 0 .801.534 1.335 1.335 1.335s1.335-.534 1.335-1.335c0-2.936 2.402-5.339 5.339-5.339s5.339 2.402 5.339 5.339c0 .801.534 1.335 1.335 1.335s1.335-.534 1.335-1.335c0-4.404-3.604-8.008-8.008-8.008zm-9.476.401c.267.267.667.4.934.4s.667-.133.934-.4a1.29 1.29 0 000-1.868L6.54 12.086c-.534-.534-1.335-.534-1.868 0s-.534 1.335 0 1.868l1.868 1.868zm-5.205 8.942h2.669c.801 0 1.335-.534 1.335-1.335s-.534-1.335-1.335-1.335H1.335c-.801 0-1.335.534-1.335 1.335s.534 1.335 1.335 1.335zm25.358-1.335c0 .801.534 1.335 1.335 1.335h2.669c.801 0 1.335-.534 1.335-1.335s-.534-1.335-1.335-1.335h-2.669c-.801 0-1.335.534-1.335 1.335zm-2.136-7.207c.4 0 .667-.133.934-.4l1.868-1.868c.534-.534.534-1.335 0-1.868s-1.335-.534-1.868 0l-1.868 1.868a1.29 1.29 0 000 1.868c.133.267.534.4.934.4zm6.14 11.211H1.335c-.801 0-1.335.534-1.335 1.335s.534 1.335 1.335 1.335h29.362c.801 0 1.335-.534 1.335-1.335s-.534-1.335-1.335-1.335zM15.081 12.352c.133.133.267.267.4.267.133.133.4.133.534.133s.4 0 .534-.133c.133-.133.267-.133.4-.267l5.339-5.339c.534-.534.534-1.335 0-1.868s-1.335-.534-1.868 0l-3.07 3.07V2.076c0-.801-.534-1.335-1.335-1.335s-1.335.534-1.335 1.335v6.139l-3.07-3.07c-.534-.534-1.335-.534-1.868 0s-.534 1.335 0 1.868l5.339 5.339z"/></svg>