<svg xmlns="http://www.w3.org/2000/svg" width="32" height="32" viewBox="0 0 32 32"><title>tablet</title><path d="M24.023.74H8.007c-2.269 0-4.004 1.735-4.004 4.004v21.354c0 2.269 1.735 4.004 4.004 4.004h16.016c2.269 0 4.004-1.735 4.004-4.004V4.744c0-2.269-1.735-4.004-4.004-4.004zm1.335 25.358c0 .801-.534 1.335-1.335 1.335H8.007c-.801 0-1.335-.534-1.335-1.335V4.744c0-.801.534-1.335 1.335-1.335h16.016c.801 0 1.335.534 1.335 1.335v21.354zm-10.277-3.603c-.267.267-.4.534-.4.934s.133.667.4.934.534.4.934.4.667-.133.934-.4.4-.667.4-.934-.133-.667-.4-.934a1.29 1.29 0 00-1.868 0z"/></svg>