<svg xmlns="http://www.w3.org/2000/svg" width="32" height="32" viewBox="0 0 32 32"><title>tag</title><path d="M28.428 12.619L16.95 1.141c-.267-.267-.534-.4-.934-.4H2.67c-.801 0-1.335.534-1.335 1.335v13.346c0 .4.133.667.4.934l11.478 11.478c.801.801 1.868 1.201 2.803 1.201 1.068 0 2.002-.4 2.803-1.201l9.609-9.609c1.602-1.602 1.602-4.004 0-5.605zm-1.869 3.737l-9.609 9.609a1.29 1.29 0 01-1.868 0L4.005 14.888V3.41h11.478L26.56 14.487a1.29 1.29 0 010 1.868zM8.408 7.814c-.267.267-.4.534-.4.934s.133.667.4.934.534.4.934.4.667-.133.934-.4.4-.534.4-.934-.133-.667-.4-.934a1.29 1.29 0 00-1.868 0z"/></svg>