<svg xmlns="http://www.w3.org/2000/svg" width="32" height="32" viewBox="0 0 32 32"><title>target</title><path d="M16.016.74C7.875.74 1.335 7.28 1.335 15.421s6.54 14.681 14.681 14.681 14.681-6.54 14.681-14.681S24.157.74 16.016.74zm0 26.693c-6.673 0-12.012-5.339-12.012-12.012S9.343 3.409 16.016 3.409s12.012 5.339 12.012 12.012-5.339 12.012-12.012 12.012zm0-21.354c-5.205 0-9.342 4.137-9.342 9.342s4.137 9.342 9.342 9.342c5.205 0 9.342-4.137 9.342-9.342s-4.137-9.342-9.342-9.342zm0 16.015c-3.737 0-6.673-2.936-6.673-6.673s2.936-6.673 6.673-6.673 6.673 2.936 6.673 6.673-2.936 6.673-6.673 6.673zm0-10.677c-2.269 0-4.004 1.735-4.004 4.004s1.735 4.004 4.004 4.004 4.004-1.735 4.004-4.004-1.735-4.004-4.004-4.004zm0 5.339c-.801 0-1.335-.534-1.335-1.335s.534-1.335 1.335-1.335 1.335.534 1.335 1.335-.534 1.335-1.335 1.335z"/></svg>