<svg xmlns="http://www.w3.org/2000/svg" width="32" height="32" viewBox="0 0 32 32"><title>trending-up</title><path d="M31.898 6.88a1.6 1.6 0 00-.667-.667c-.133-.133-.4-.133-.534-.133h-8.008c-.801 0-1.335.534-1.335 1.335s.534 1.335 1.335 1.335h4.805l-9.476 9.476-5.739-5.739a1.29 1.29 0 00-1.868 0L.401 22.497a1.29 1.29 0 000 1.868c.267.267.534.4.934.4s.667-.133.934-.4l9.076-9.076 5.739 5.739a1.29 1.29 0 001.868 0l10.41-10.41v4.805c0 .801.534 1.335 1.335 1.335s1.335-.534 1.335-1.335V7.415c0-.133 0-.4-.133-.534z"/></svg>