<svg xmlns="http://www.w3.org/2000/svg" width="32" height="32" viewBox="0 0 32 32"><title>truck</title><path d="M31.631 13.152l-4.004-4.004c-.267-.267-.534-.4-.934-.4h-4.004V3.409c0-.801-.534-1.335-1.335-1.335H1.334c-.801 0-1.335.534-1.335 1.335v17.35c0 .801.534 1.335 1.335 1.335h1.868c-.4.667-.534 1.335-.534 2.002 0 2.536 2.135 4.671 4.671 4.671s4.671-2.135 4.671-4.671c0-.667-.133-1.335-.534-2.002h8.942c-.267.667-.534 1.335-.534 2.002 0 2.536 2.135 4.671 4.671 4.671s4.671-2.135 4.671-4.671c0-.667-.133-1.335-.534-2.002h2.002c.801 0 1.335-.534 1.335-1.335v-6.673c0-.4-.133-.667-.4-.934zM2.669 4.744h17.35v14.681H2.669V4.744zm6.673 19.352c0 1.068-.934 2.002-2.002 2.002s-2.002-.934-2.002-2.002.934-2.002 2.002-2.002 2.002.934 2.002 2.002zm17.351 0c0 1.068-.934 2.002-2.002 2.002s-2.002-.934-2.002-2.002.934-2.002 2.002-2.002 2.002.934 2.002 2.002zm2.669-4.671h-6.673v-8.008h3.47l3.203 3.203v4.805z"/></svg>