<svg xmlns="http://www.w3.org/2000/svg" width="32" height="32" viewBox="0 0 32 32"><title>tumblr</title><path d="M6.131 13.544V8.977c1.251-.375 2.377-1.001 3.253-1.752s1.627-1.689 2.127-2.753c.563-1.064.938-2.44 1.126-4.066h4.567v8.07h7.632v5.067h-7.632v8.195c0 1.877.125 3.066.313 3.566.188.563.563.938 1.064 1.251.751.438 1.564.688 2.44.688 1.627 0 3.253-.563 4.88-1.627v5.067c-1.376.626-2.628 1.126-3.754 1.376-1.064.25-2.315.375-3.566.375-1.501 0-2.753-.188-3.879-.563s-2.127-.876-2.878-1.564c-.813-.688-1.376-1.439-1.689-2.19s-.438-1.877-.438-3.378V13.541z"/></svg>