<svg xmlns="http://www.w3.org/2000/svg" width="32" height="32" viewBox="0 0 32 32"><title>tv</title><path d="M26.693 7.413h-7.474l4.404-4.404c.534-.534.534-1.335 0-1.868s-1.335-.534-1.868 0L16.016 6.88l-5.739-5.739c-.534-.534-1.335-.534-1.868 0s-.534 1.335 0 1.868l4.404 4.404H5.339c-2.269 0-4.004 1.735-4.004 4.004v14.681c0 2.269 1.735 4.004 4.004 4.004h21.354c2.269 0 4.004-1.735 4.004-4.004V11.417c0-2.269-1.735-4.004-4.004-4.004zm1.334 18.685c0 .801-.534 1.335-1.335 1.335H5.338c-.801 0-1.335-.534-1.335-1.335V11.417c0-.801.534-1.335 1.335-1.335h21.354c.801 0 1.335.534 1.335 1.335v14.681z"/></svg>