<svg xmlns="http://www.w3.org/2000/svg" width="32" height="32" viewBox="0 0 32 32"><title>twitter</title><path d="M28.778 9.916v.813c0 8.696-6.631 18.706-18.706 18.706-3.691 0-7.195-1.064-10.072-2.94.5.063 1.064.063 1.564.063 3.066 0 5.943-1.001 8.195-2.815-2.878 0-5.318-1.939-6.194-4.567.438.125.813.125 1.251.125.626 0 1.189-.063 1.752-.188-3.003-.626-5.255-3.316-5.255-6.444v-.125c.876.501 1.877.813 2.94.813-1.752-1.126-2.94-3.191-2.94-5.443 0-1.189.375-2.315.938-3.316a18.371 18.371 0 0013.513 6.882 6.179 6.179 0 01-.188-1.501 6.568 6.568 0 016.569-6.569c1.939 0 3.629.813 4.817 2.065 1.501-.313 2.94-.813 4.192-1.564a6.916 6.916 0 01-2.878 3.629c1.314-.188 2.565-.5 3.754-1.064a14.198 14.198 0 01-3.253 3.441z"/></svg>