<svg xmlns="http://www.w3.org/2000/svg" width="32" height="32" viewBox="0 0 32 32"><title>umbrella</title><path d="M14.548.874C6.807 1.541.801 7.681 0 15.288c0 .4.133.801.4 1.068.133.267.534.4.934.4H14.68v8.008c0 2.936 2.402 5.339 5.339 5.339s5.339-2.402 5.339-5.339c0-.801-.534-1.335-1.335-1.335s-1.335.534-1.335 1.335c0 1.468-1.201 2.669-2.669 2.669s-2.669-1.201-2.669-2.669v-8.008h13.346c.4 0 .801-.133.934-.4s.4-.667.4-1.068C31.229 6.479 23.355-.06 14.546.874zm1.468 13.213H2.937C4.005 8.348 8.809 4.077 14.682 3.41c6.807-.667 13.079 4.004 14.414 10.677H16.017z"/></svg>