<svg xmlns="http://www.w3.org/2000/svg" width="32" height="32" viewBox="0 0 32 32"><title>upload-cloud</title><path d="M31.097 14.22c-1.468-2.536-4.137-4.137-7.074-4.137h-.667C21.354 4.211 15.081.874 9.075 2.476c-3.203.801-5.739 2.803-7.474 5.472S-.534 13.954.266 17.024c.534 1.868 1.335 3.47 2.669 4.938.534.534 1.335.667 1.868.133s.667-1.335.133-1.868c-.934-1.068-1.735-2.402-2.002-3.87-.667-2.402-.267-4.805 1.068-7.074 1.201-2.135 3.337-3.737 5.739-4.271 4.938-1.335 10.143 1.735 11.344 6.673.133.534.667.934 1.335.934h1.602c2.002 0 3.737 1.068 4.671 2.803.667 1.201.801 2.669.4 4.004s-1.335 2.536-2.536 3.203c-.667.4-.934 1.201-.534 1.868.267.4.667.667 1.201.667.267 0 .4 0 .667-.133 1.868-1.068 3.203-2.669 3.87-4.805.534-1.868.267-4.137-.667-6.006zm-14.147.267c-.133-.133-.267-.267-.4-.267-.267-.133-.667-.133-1.068 0-.133.133-.267.133-.4.267l-5.339 5.339c-.534.534-.534 1.335 0 1.868s1.335.534 1.868 0l3.07-3.07v8.809c0 .801.534 1.335 1.335 1.335s1.335-.534 1.335-1.335v-8.809l3.07 3.07c.267.267.667.4.934.4s.667-.133.934-.4a1.29 1.29 0 000-1.868l-5.339-5.339z"/></svg>