<svg xmlns="http://www.w3.org/2000/svg" width="32" height="32" viewBox="0 0 32 32"><title>user-minus</title><path d="M16.016 18.091H6.674c-3.737 0-6.673 2.936-6.673 6.673v2.669c0 .801.534 1.335 1.335 1.335s1.335-.534 1.335-1.335v-2.669c0-2.269 1.735-4.004 4.004-4.004h9.342c2.269 0 4.004 1.735 4.004 4.004v2.669c0 .801.534 1.335 1.335 1.335s1.335-.534 1.335-1.335v-2.669c0-3.737-2.936-6.673-6.673-6.673zm-4.672-2.67c3.737 0 6.673-2.936 6.673-6.673s-2.936-6.673-6.673-6.673-6.673 2.936-6.673 6.673 2.936 6.673 6.673 6.673zm0-10.677c2.269 0 4.004 1.735 4.004 4.004s-1.735 4.004-4.004 4.004S7.34 11.017 7.34 8.748s1.735-4.004 4.004-4.004zm19.353 8.008h-8.008c-.801 0-1.335.534-1.335 1.335s.534 1.335 1.335 1.335h8.008c.801 0 1.335-.534 1.335-1.335s-.534-1.335-1.335-1.335z"/></svg>