<svg xmlns="http://www.w3.org/2000/svg" width="32" height="32" viewBox="0 0 32 32"><title>users</title><path d="M17.35 18.091H6.673C2.936 18.091 0 21.027 0 24.764v2.669c0 .801.534 1.335 1.335 1.335s1.335-.534 1.335-1.335v-2.669c0-2.269 1.735-4.004 4.004-4.004h10.677c2.269 0 4.004 1.735 4.004 4.004v2.669c0 .801.534 1.335 1.335 1.335s1.335-.534 1.335-1.335v-2.669c0-3.737-2.936-6.673-6.673-6.673zm-5.338-2.67c3.737 0 6.673-2.936 6.673-6.673s-2.936-6.673-6.673-6.673-6.673 2.936-6.673 6.673 2.936 6.673 6.673 6.673zm0-10.677c2.269 0 4.004 1.735 4.004 4.004s-1.735 4.004-4.004 4.004-4.004-1.735-4.004-4.004 1.735-4.004 4.004-4.004zM26.96 18.358c-.667-.133-1.468.267-1.602.934s.267 1.468.934 1.602c1.735.4 2.936 2.002 2.936 3.87v2.669c0 .801.534 1.335 1.335 1.335s1.335-.534 1.335-1.335v-2.669c.133-3.07-1.868-5.739-4.938-6.406zM21.621 2.342c-.667-.267-1.335.133-1.602.934-.133.667.267 1.468.934 1.602 2.135.534 3.47 2.669 2.936 4.938-.4 1.468-1.468 2.536-2.936 2.936-.667.133-1.201.934-.934 1.602.133.667.667 1.068 1.335 1.068h.267c2.402-.667 4.271-2.402 4.805-4.805.934-3.737-1.201-7.474-4.805-8.275z"/></svg>