<svg xmlns="http://www.w3.org/2000/svg" width="32" height="32" viewBox="0 0 32 32"><title>vimeo</title><path d="M20.708 9.541c-.751 0-1.564.188-2.377.563 1.564-5.193 4.567-7.695 9.009-7.507 3.316.063 4.88 2.19 4.692 6.381-.188 3.128-2.315 7.382-6.569 12.825-4.317 5.63-8.008 8.508-11.011 8.508-1.877 0-3.441-1.752-4.755-5.193-.876-3.191-1.752-6.319-2.565-9.509-1.001-3.441-2.002-5.13-3.128-5.13-.25 0-1.064.501-2.502 1.501L.001 10.041c1.564-1.439 3.128-2.815 4.692-4.192 2.065-1.814 3.691-2.753 4.755-2.878 2.44-.25 4.004 1.439 4.567 5.13.626 3.941 1.064 6.381 1.314 7.32.688 3.253 1.501 4.88 2.377 4.88.688 0 1.689-1.064 3.003-3.128 1.314-2.127 2.065-3.754 2.19-4.88.188-1.814-.563-2.753-2.19-2.753z"/></svg>