<svg xmlns="http://www.w3.org/2000/svg" width="32" height="32" viewBox="0 0 32 32"><title>vkontakte</title><path d="M30.968 22.491c-.938-1.251-1.752-2.002-2.94-3.128-.5-.5-1.189-1.001-1.251-1.689-.063-.938.813-1.814 1.251-2.44l.188-.188.125-.125c0-.063.063-.063.063-.125.063-.063.063-.125.125-.125 0-.063.063-.063.063-.063.063-.063.063-.125.125-.188.813-1.064 1.627-2.002 2.44-3.253.25-.438 1.064-2.002.813-2.628-.375-.751-2.315-.501-3.378-.501-1.314 0-2.753-.25-3.691.125-.563.188-.938 1.439-1.251 2.127-.5 1.064-.938 1.939-1.439 2.753 0 .063-.063.125-.125.188 0 .063-.063.125-.125.188-.063.125-.125.25-.188.313 0 .063-.063.063-.063.063 0 .063-.063.063-.063.125-.063.063-.063.063-.063.125-.063 0-.063.063-.125.125 0 0-.063.063-.063.125-.063 0-.063.063-.063.063-.063.063-.125.125-.188.25-.438.626-.876 1.376-1.689 1.501-.063-.063-.063-.063-.125-.063v-.063h-.063c0-.063-.063-.063-.063-.063l-.063-.063s0-.063-.063-.063c0-.063-.063-.063-.063-.063v-.063s-.063 0-.063-.063 0-.063-.063-.063v-.126h-.063v-.125l-.063-.063v-.126s0-.063-.063-.063v-.189c0-.063 0-.063-.063-.063v-.69s-.063 0-.063-.063v-.315c0-.063.063-.063.063-.063v-.94c0-.125 0-.313.063-.438 0-1.376.438-3.191-.188-4.254-.563-.938-2.69-.813-4.192-.813-1.814 0-3.253.125-3.816 1.189.626.438 1.314.438 1.627 1.064.375.688.438 2.127.375 3.441v.188c0 1.126-.063 2.94-.813 3.066s-1.376-1.001-1.814-1.564c-.063-.125-.125-.188-.188-.313l-.063-.063c-.063-.063-.063-.125-.125-.25l-.063-.063c-.063-.063-.125-.125-.125-.188-.063-.063-.063-.063-.063-.125-.063-.063-.125-.188-.188-.25-.563-.938-1.126-1.877-1.627-3.066-.375-.688-.813-1.877-1.189-2.065-.751-.375-2.252-.188-3.253-.188-1.126 0-2.315-.188-3.003.375 0 1.251.626 2.315 1.126 3.316.688 1.376 1.376 2.69 2.127 3.941 0 .063.063.125.063.188.125.125.188.313.313.438 0 .063.063.125.063.188.125.125.188.313.313.438 0 .063.063.125.125.188l.375.563c.125.188.25.438.375.626.063.063.063.125.125.125.125.188.188.313.313.438 0 .063.063.125.125.188.063.125.188.313.313.438 0 .063.063.125.125.188.125.188.25.375.438.563 1.939 2.44 4.129 4.755 8.446 5.255 1.376.125 3.378.25 3.816-.563.626-1.001-.063-3.378 1.314-3.566.938-.188 1.752 1.251 2.315 1.814.938 1.064 2.065 2.19 3.691 2.502h.125c1.439-.626 5.756.688 6.006-1.126.063-.626-.688-1.627-1.064-2.065z"/></svg>