<svg xmlns="http://www.w3.org/2000/svg" width="32" height="32" viewBox="0 0 32 32"><title>voicemail</title><path d="M24.691 7.413c-4.004 0-7.34 3.337-7.34 7.34 0 1.735.667 3.337 1.735 4.671h-6.139c1.068-1.335 1.735-2.936 1.735-4.671 0-4.004-3.337-7.34-7.34-7.34s-7.34 3.337-7.34 7.34c0 4.004 3.337 7.34 7.34 7.34h17.35c4.004 0 7.34-3.337 7.34-7.34s-3.337-7.34-7.34-7.34zM2.669 14.754c0-2.536 2.135-4.671 4.671-4.671s4.671 2.135 4.671 4.671-2.135 4.671-4.671 4.671-4.671-2.135-4.671-4.671zm22.022 4.671c-2.536 0-4.671-2.135-4.671-4.671s2.135-4.671 4.671-4.671 4.671 2.135 4.671 4.671-2.135 4.671-4.671 4.671z"/></svg>