<svg xmlns="http://www.w3.org/2000/svg" width="32" height="32" viewBox="0 0 32 32"><title>volume-x</title><path d="M15.215 4.878c-.4-.267-1.068-.133-1.468.133l-6.273 5.072H2.669c-.801 0-1.335.534-1.335 1.335v8.008c0 .801.534 1.335 1.335 1.335h4.805l6.273 5.072c.267.133.534.267.801.267.133 0 .4 0 .534-.133.4-.267.801-.667.801-1.201V6.081c.133-.534-.133-.934-.667-1.201zm-1.869 17.083l-4.538-3.604c-.267-.133-.534-.267-.801-.267H4.003v-5.339h4.004c.267 0 .534-.133.801-.267l4.538-3.604v13.079zm15.215-6.54l3.07-3.07c.534-.534.534-1.335 0-1.868s-1.335-.534-1.868 0l-3.07 3.07-3.07-3.07c-.534-.534-1.335-.534-1.868 0s-.534 1.335 0 1.868l3.07 3.07-3.07 3.07a1.29 1.29 0 000 1.868c.267.267.667.4.934.4s.667-.133.934-.4l3.07-3.07 3.07 3.07c.267.267.667.4.934.4s.667-.133.934-.4a1.29 1.29 0 000-1.868l-3.07-3.07z"/></svg>