<svg xmlns="http://www.w3.org/2000/svg" width="32" height="32" viewBox="0 0 32 32"><title>watch</title><path d="M26.693 15.421c0-3.07-1.335-5.739-3.337-7.741l-.4-4.671c-.267-2.002-1.868-3.604-4.004-3.604H13.08c-2.002 0-3.737 1.602-4.004 3.604l-.4 4.671c-2.002 1.868-3.337 4.671-3.337 7.741s1.335 5.872 3.337 7.741l.4 4.671c.267 2.002 2.002 3.604 4.004 3.604h5.739c2.135 0 3.737-1.602 4.004-3.604l.4-4.538c2.135-2.002 3.47-4.805 3.47-7.874zM11.745 3.276c0-.667.667-1.201 1.335-1.201h5.872c.667 0 1.335.534 1.335 1.201l.267 2.402c-1.468-.534-2.936-.934-4.538-.934s-3.07.4-4.404.934l.133-2.402zM8.008 15.421c0-4.404 3.604-8.008 8.008-8.008s8.008 3.604 8.008 8.008-3.604 8.008-8.008 8.008-8.008-3.604-8.008-8.008zm12.278 12.146c0 .667-.667 1.201-1.335 1.201h-5.872c-.667 0-1.201-.534-1.335-1.201l-.267-2.402c1.335.667 2.803.934 4.404.934s3.07-.4 4.404-.934v2.402zm-3.203-9.209c.267.267.667.4.934.4s.667-.133.934-.4a1.29 1.29 0 000-1.868l-1.602-1.602v-3.47c0-.801-.534-1.335-1.335-1.335s-1.335.534-1.335 1.335v4.004c0 .4.133.667.4.934l2.002 2.002z"/></svg>