<svg xmlns="http://www.w3.org/2000/svg" width="32" height="32" viewBox="0 0 32 32"><title>wind</title><path d="M18.685 19.425H2.669c-.801 0-1.335.534-1.335 1.335s.534 1.335 1.335 1.335h16.016c.4 0 .667.133.934.4s.4.534.4.934-.133.667-.4.934-.534.4-.934.4-.667-.133-.934-.4c-.534-.534-1.335-.534-1.868 0s-.534 1.335 0 1.868c.801.801 1.735 1.201 2.803 1.201 1.068 0 2.002-.4 2.803-1.201s1.201-1.735 1.201-2.803c0-1.068-.4-2.135-1.201-2.803-.667-.801-1.735-1.201-2.803-1.201zM2.669 11.417h12.012c1.068 0 2.135-.4 2.803-1.201 1.602-1.602 1.602-4.137 0-5.605-.667-.801-1.735-1.201-2.803-1.201s-2.135.4-2.803 1.201c-.534.534-.534 1.335 0 1.868s1.335.534 1.868 0c.267-.267.534-.4.934-.4s.667.133.934.4a1.29 1.29 0 010 1.868c-.267.267-.534.4-.934.4H2.668c-.801 0-1.335.534-1.335 1.335s.534 1.335 1.335 1.335zm26.693-2.669c-1.868-1.868-4.805-1.868-6.54 0-.534.534-.534 1.335 0 1.868s1.335.534 1.868 0c.801-.801 2.002-.801 2.803 0s.801 2.002 0 2.803c-.4.4-.934.534-1.468.534H2.669c-.801 0-1.335.534-1.335 1.335s.534 1.335 1.335 1.335h23.356c1.201 0 2.402-.534 3.337-1.335 1.735-1.735 1.735-4.671 0-6.54z"/></svg>