<svg xmlns="http://www.w3.org/2000/svg" width="32" height="32" viewBox="0 0 32 32"><title>x-circle</title><path d="M16.016.74C7.875.74 1.335 7.28 1.335 15.421s6.54 14.681 14.681 14.681 14.681-6.54 14.681-14.681S24.157.74 16.016.74zm0 26.693c-6.673 0-12.012-5.339-12.012-12.012S9.343 3.409 16.016 3.409s12.012 5.339 12.012 12.012-5.339 12.012-12.012 12.012zm4.938-16.95a1.29 1.29 0 00-1.868 0l-3.07 3.07-3.07-3.07c-.534-.534-1.335-.534-1.868 0s-.534 1.335 0 1.868l3.07 3.07-3.07 3.07a1.29 1.29 0 000 1.868c.267.267.534.4.934.4s.667-.133.934-.4l3.07-3.07 3.07 3.07c.267.267.667.4.934.4s.667-.133.934-.4a1.29 1.29 0 000-1.868l-3.07-3.07 3.07-3.07a1.29 1.29 0 000-1.868z"/></svg>