<svg xmlns="http://www.w3.org/2000/svg" width="32" height="32" viewBox="0 0 32 32"><title>x-square</title><path d="M25.358 2.075H6.673c-2.269 0-4.004 1.735-4.004 4.004v18.685c0 2.269 1.735 4.004 4.004 4.004h18.685c2.269 0 4.004-1.735 4.004-4.004V6.079c0-2.269-1.735-4.004-4.004-4.004zm1.335 22.689c0 .801-.534 1.335-1.335 1.335H6.673c-.801 0-1.335-.534-1.335-1.335V6.079c0-.801.534-1.335 1.335-1.335h18.685c.801 0 1.335.534 1.335 1.335v18.685zm-5.739-14.281a1.29 1.29 0 00-1.868 0l-3.07 3.07-3.07-3.07c-.534-.534-1.335-.534-1.868 0s-.534 1.335 0 1.868l3.07 3.07-3.07 3.07a1.29 1.29 0 000 1.868c.267.267.534.4.934.4s.667-.133.934-.4l3.07-3.07 3.07 3.07c.267.267.667.4.934.4s.667-.133.934-.4a1.29 1.29 0 000-1.868l-3.07-3.07 3.07-3.07a1.29 1.29 0 000-1.868z"/></svg>