<svg xmlns="http://www.w3.org/2000/svg" width="32" height="32" viewBox="0 0 32 32"><title>xing</title><path d="M7.695 22.866h-4.63c-.25 0-.438-.125-.563-.313s-.125-.5 0-.751l4.88-8.633v-.063l-3.128-5.38c-.125-.25-.125-.5 0-.688s.313-.313.626-.313h4.63c.688 0 1.064.438 1.251.876l3.191 5.505c-.188.375-5.005 8.821-5.005 8.821-.25.438-.563.938-1.251.938zM29.529 1.408l-10.197 18.08v.063l6.506 11.887c.125.25.125.5 0 .688s-.313.313-.626.313h-4.63c-.688 0-1.001-.5-1.251-.876 0 0-6.569-12.012-6.569-12.074.313-.563 10.26-18.205 10.26-18.205.25-.438.563-.876 1.251-.876h4.692c.25 0 .5.125.563.313.125.188.125.438 0 .688z"/></svg>