<svg xmlns="http://www.w3.org/2000/svg" width="32" height="32" viewBox="0 0 32 32"><title>youtube</title><path d="M31.718 10.041s-.313-2.252-1.251-3.191c-1.251-1.314-2.628-1.314-3.253-1.376-4.442-.313-11.198-.313-11.198-.313s-6.757 0-11.198.313c-.626.063-2.002.063-3.253 1.376-.938.938-1.251 3.191-1.251 3.191s-.313 2.565-.313 5.13v2.44c0 2.628.313 5.193.313 5.193s.313 2.19 1.251 3.191c1.251 1.251 2.878 1.251 3.566 1.376 2.565.25 10.886.313 10.886.313s6.757 0 11.198-.313c.626-.063 2.002-.125 3.253-1.376.938-1.001 1.251-3.191 1.251-3.191s.313-2.565.313-5.193v-2.44c0-2.565-.313-5.13-.313-5.13zm-11.386 6.632l-7.57 3.941v-9.009l8.633 4.504z"/></svg>