<svg xmlns="http://www.w3.org/2000/svg" width="32" height="32" viewBox="0 0 32 32"><title>zap-off</title><path d="M15.081 6.88l.267-.4-.267 1.868c-.133.667.4 1.335 1.201 1.468h.133c.667 0 1.201-.534 1.335-1.201l.934-6.406c.133-.534-.267-1.201-.801-1.335-.534-.267-1.201-.133-1.602.4l-3.203 3.87c-.534.534-.4 1.335.133 1.868.667.4 1.468.4 1.868-.133zm5.873 7.207h4.271l-1.468 1.735c-.534.534-.4 1.468.133 1.868.267.267.534.267.801.267.4 0 .801-.133 1.068-.534l3.203-3.87c.267-.4.4-.934.133-1.468-.133-.4-.534-.667-1.068-.667h-7.074c-.801 0-1.335.534-1.335 1.335s.534 1.335 1.335 1.335zm10.677 15.081L2.269-.194C1.735-.728.934-.728.401-.194s-.534 1.335 0 1.868l8.542 8.542-5.872 7.074c-.267.4-.4.934-.133 1.468.133.4.534.667 1.068.667H14.55l-1.201 9.209c-.133.534.267 1.201.801 1.335.133.133.4.133.534.133.4 0 .801-.133 1.068-.534l5.739-6.94 8.275 8.275c.267.267.667.4.934.4s.667-.133.934-.4c.534-.4.534-1.201 0-1.735zM6.807 16.756l3.87-4.671 4.671 4.671H6.806zm9.742 7.607l.667-5.872 2.269 2.269-2.936 3.604z"/></svg>