<svg xmlns="http://www.w3.org/2000/svg" width="32" height="32" viewBox="0 0 32 32"><title>zoom-out</title><path d="M28.962 26.499l-4.938-4.938c1.602-2.002 2.669-4.671 2.669-7.474 0-6.673-5.339-12.012-12.012-12.012S2.669 7.414 2.669 14.087a11.962 11.962 0 0012.012 12.012c2.803 0 5.472-.934 7.474-2.669l4.938 4.938c.267.267.667.4.934.4s.667-.133.934-.4a1.29 1.29 0 000-1.868zM5.339 14.087c0-5.205 4.137-9.342 9.342-9.342s9.342 4.137 9.342 9.342c0 2.536-1.068 4.938-2.669 6.54-1.735 1.735-4.004 2.669-6.54 2.669-5.339.133-9.476-4.004-9.476-9.209zm13.346-1.335h-8.008c-.801 0-1.335.534-1.335 1.335s.534 1.335 1.335 1.335h8.008c.801 0 1.335-.534 1.335-1.335s-.534-1.335-1.335-1.335z"/></svg>