<?xml version="1.0" encoding="utf-8"?>
<!-- Generator: Adobe Illustrator 21.0.2, SVG Export Plug-In . SVG Version: 6.00 Build 0)  -->
<!DOCTYPE svg PUBLIC "-//W3C//DTD SVG 1.1//EN" "http://www.w3.org/Graphics/SVG/1.1/DTD/svg11.dtd">
<svg version="1.1" id="Layer_1" xmlns="http://www.w3.org/2000/svg" xmlns:xlink="http://www.w3.org/1999/xlink" x="0px" y="0px"
	 viewBox="0 0 279 356.5" style="enable-background:new 0 0 279 356.5;" xml:space="preserve">
<g>
	<path d="M0,178.3c0-52.3,0-104.7,0-157C0,10.7,5.9,2.9,15.6,0.6c2.1-0.5,4.3-0.6,6.4-0.6C80.2,0,138.4,0,196.6,0
		c1.8,0,3.1,0.5,4.4,1.8c25.4,25.5,50.9,50.9,76.4,76.4c1.2,1.2,1.7,2.4,1.7,4.1c0,84.2,0,168.5,0,252.7c0,10.8-5.8,18.6-15.7,20.9
		c-2.1,0.5-4.3,0.6-6.4,0.6c-78.2,0-156.5,0-234.7,0c-11,0-18.6-5.2-21.2-14.6c-0.6-2.3-0.8-4.8-0.8-7.1C0,282.6,0,230.4,0,178.3z
		 M179.4,20.2c-53.3,0-106.3,0-159.3,0c0,105.5,0,210.8,0,316.2c79.7,0,159.2,0,238.7,0c0-79,0-157.7,0-236.7c-1.2,0-2.2,0-3.2,0
		c-18.6,0-37.2,0-55.7,0c-11.8,0-20.5-8.6-20.5-20.5c0-18.7,0-37.3,0-56C179.4,22.3,179.4,21.3,179.4,20.2z M199.4,79.6
		c17.1,0,34,0,50.1,0c-16.6-16.6-33.4-33.4-50.1-50.1C199.4,45.9,199.4,62.7,199.4,79.6z"/>
	<path d="M146.4,87.1c0.6,12.3-2.4,23.9-6.4,35.3c-0.6,1.6-0.4,2.7,0.7,4c9.2,11.1,18.2,22.3,27.3,33.5c1.1,1.4,2.3,2,4.2,2
		c12.3-0.1,24.5,0.4,36.3,3.9c5.2,1.5,10.2,3.6,14.5,7.1c10.2,8.2,8.5,21.8-3.5,27c-9.2,4.1-18.4,2.8-27.3-1.3
		c-8.6-4-15.7-10-22.4-16.5c-1-0.9-2-1.8-2.8-2.8c-1.9-2.7-4.5-3.2-7.6-2.9c-15.4,1.3-30.7,3.6-45.6,8.1c-1.3,0.4-2.7,1.6-3.4,2.8
		c-7.3,12.6-14.8,25.1-24.2,36.3c-4.5,5.3-9.6,10-16.5,12c-6.1,1.8-12,1.6-16.7-3.3c-4.7-4.8-4.7-10.6-2.8-16.6
		c2.9-8.8,8.8-15.6,15.5-21.7c9.7-8.8,21.1-14.7,33.3-19.1c2.1-0.8,3.5-1.8,4.4-3.9c6.4-14,12.9-27.9,19.3-41.8
		c0.7-1.6,0.6-2.9-0.3-4.4c-7.1-12-10.7-25-11-38.9c-0.1-6.4,0.6-12.8,3.4-18.8c2.2-4.8,5.4-8.6,10.6-10.3
		c6.6-2.1,12.7,0.3,16.4,6.2c3.1,5,3.9,10.5,4.4,16.2C146.6,81.7,146.4,84.4,146.4,87.1z M133.7,139.8c-4.3,9.4-8.6,18.8-12.8,28
		c10.3-1.7,20.7-3.4,31.2-5.1C146,155.1,139.9,147.5,133.7,139.8z M62.5,222.5c4.4,0,7.2-1.8,9.7-4.2c7.1-7,12.5-15.2,17.7-23.7
		c0-0.1-0.1-0.2-0.3-0.5C78,200.9,67.4,208.5,62.5,222.5z M130.3,69.6c-7.2,5.4-5.5,28.3-0.1,38.2C133.1,94.9,134.5,82.5,130.3,69.6
		z M184,175.8c5.5,5.9,14.1,11.1,20.4,12.2c4,0.7,8.1,0.9,11.9-2.6C207,177.1,195.6,177.2,184,175.8z"/>
	<path d="M118.4,277.3c0-6.6-0.1-13.2,0-19.7c0-4.2,2-6.6,6.1-6.7c7.2-0.1,14.5-0.2,21.7,0.6c7.9,0.9,13,6.1,15.6,13.4
		c3,8.3,2.9,16.9-0.1,25.2c-3,8.4-10.4,13.5-19.6,13.6c-5.7,0.1-11.5,0.1-17.2,0c-4.3,0-6.4-2.1-6.5-6.5
		C118.3,290.7,118.4,284,118.4,277.3C118.4,277.3,118.4,277.3,118.4,277.3z M130.7,293.7c3.1,0,5.9,0,8.7,0c5.7-0.1,9.4-3,10.9-8.4
		c1.4-5.3,1.5-10.7,0.1-16c-0.7-2.8-2.2-5.4-4.9-6.6c-4.7-2.2-9.8-1.7-14.8-1.5C130.7,272.1,130.7,282.7,130.7,293.7z"/>
	<path d="M83,283.8c0,5.1,0,9.5,0,13.9c0,2.7-0.8,5.1-3.5,6.5c-3.4,1.7-7.3,0-8.4-3.6c-0.4-1.3-0.5-2.6-0.5-3.9c0-12.5,0-25,0-37.5
		c0-5.9,2.3-8.2,8.1-8.2c6.1,0,12.2-0.1,18.2,0.4c10.3,0.9,16.1,8.6,14.4,19c-1.3,8.1-6.9,12.9-15.8,13.5
		C91.5,284,87.4,283.8,83,283.8z M83.1,274.5c3.9-0.3,7.6-0.3,11.2-0.9c3.3-0.5,4.7-2.8,4.7-6.3c0-3.5-1.3-5.5-4.7-6
		c-3.6-0.6-7.4-0.6-11.2-0.9C83.1,265.3,83.1,269.6,83.1,274.5z"/>
	<path d="M183.1,260.8c0,3.8,0,7.2,0,11c0.9,0,1.8,0,2.7,0c4.3,0,8.7,0,13,0c3.6,0.1,5.6,1.5,5.9,4.1c0.4,2.9-0.9,5-3.8,5.4
		c-3.3,0.4-6.6,0.3-10,0.4c-2.5,0.1-5,0-7.7,0c-0.1,0.8-0.1,1.5-0.1,2.2c0,4.7,0,9.3,0,14c0,4.1-2.5,6.8-6.1,6.8
		c-3.5,0-5.9-2.5-6.1-6.5c-0.1-4.9-0.1-9.8-0.1-14.7c0-8.5,0-17,0-25.5c0-4.8,2.3-7.1,7-7.2c8.2-0.1,16.3-0.1,24.5,0.1
		c1.7,0,3.9,0.9,4.9,2.2c0.9,1,0.9,3.3,0.5,4.8c-0.6,2.1-2.7,2.8-4.8,2.8c-5.7,0-11.3,0-17,0C185,260.8,184.1,260.8,183.1,260.8z"/>
</g>
</svg>
