<?xml version="1.0" encoding="utf-8"?>
<!-- Generator: Adobe Illustrator 14.0.0, SVG Export Plug-In . SVG Version: 6.00 Build 43363)  -->
<!DOCTYPE svg PUBLIC "-//W3C//DTD SVG 1.1//EN" "http://www.w3.org/Graphics/SVG/1.1/DTD/svg11.dtd">
<svg version="1.1" id="Laag_1" xmlns="http://www.w3.org/2000/svg" xmlns:xlink="http://www.w3.org/1999/xlink" x="0px" y="0px"
	 width="1303.939px" height="1303.939px" viewBox="0 0 1303.939 1303.939" enable-background="new 0 0 1303.939 1303.939"
	 xml:space="preserve">
<g>
	<g>
		<path fill="#0EB5DC" d="M321.566,824.61l80.975,0.001c0,138.134,163.537,200.056,255.626,200.056
			c92.089,0,198.467-31.756,198.467-139.722s-127.02-131.782-127.02-131.782l-258.801-69.86c0,0-165.125-31.501-165.125-241.337
			c0-83.981,28.82-146.019,69.971-191.809c-114.253,86.04-188.132,222.822-188.132,376.864
			c0,128.128,51.104,244.315,134.039,329.295L321.566,824.61z"/>
	</g>
	<g>
		<path fill="#00576C" d="M1130.511,627.022c0-129.805-52.46-247.354-137.33-332.614v115.979l-80.975-1.588
			c0-161.949-206.406-182.59-247.688-182.59c-41.282,0-177.827,11.114-177.827,127.019c0,106.712,134.959,131.783,134.959,131.783
			s90.5,23.816,217.52,57.158c127.02,33.343,209.582,119.082,209.582,266.742c0,34.135-3.483,66.482-8.833,96.054
			C1096.883,827.028,1130.511,730.954,1130.511,627.022z"/>
	</g>
</g>
</svg>
