<svg width="132" height="63" viewBox="0 0 132 63" fill="none" xmlns="http://www.w3.org/2000/svg">
<g clip-path="url(#clip0)">
<path d="M92.2099 1.26C72.9999 5.35 59.3799 18.18 61.8799 29.93C62.7699 34.11 65.5599 37.57 69.6599 40.13C71.0658 41.1236 72.2484 42.4002 73.1318 43.8777C74.0153 45.3553 74.58 47.0013 74.7899 48.71L75.2299 52.16C75.2748 52.4911 75.4475 52.7915 75.7109 52.9971C75.9744 53.2026 76.3078 53.297 76.6399 53.26C76.9109 53.2226 77.1631 53.1001 77.3599 52.91L80.9599 49.41C83.5787 46.8873 86.9788 45.3319 90.5999 45C94.1846 44.9188 97.7536 44.5003 101.26 43.75C120.49 39.66 134.07 26.83 131.57 15.08C129.07 3.33 111.45 -2.83 92.2099 1.26Z" fill="#FCAB1C"/>
<path d="M0 16.67H5.37V24.13H11.27V16.67H16.62V36.54H11.27V28.39H5.37V36.54H0V16.67Z" fill="#231F20"/>
<path d="M22.1798 36.0499C21.03 35.43 20.0824 34.4928 19.4498 33.3499C18.7761 32.1255 18.4316 30.7473 18.4498 29.3499C18.4162 27.964 18.7217 26.5909 19.3398 25.3499C19.8973 24.2427 20.7617 23.3193 21.8298 22.6899C22.9677 22.0412 24.2602 21.7129 25.5698 21.7399C26.836 21.715 28.0859 22.0292 29.1898 22.6499C30.2189 23.2418 31.053 24.121 31.5898 25.1799C32.1621 26.3625 32.4368 27.667 32.3898 28.9799C32.3898 29.2999 32.3898 29.6099 32.3898 29.9799C32.3672 30.2423 32.3272 30.5029 32.2698 30.7599H23.2698C23.2901 31.3102 23.4483 31.8466 23.7298 32.3199C23.9926 32.7378 24.3573 33.0819 24.7898 33.3199C25.2539 33.5673 25.7739 33.6913 26.2998 33.6799C26.9039 33.6604 27.4915 33.4772 27.9998 33.1499C28.5218 32.817 28.9246 32.3267 29.1498 31.7499L32.6098 33.0599C32.3532 33.8592 31.8951 34.579 31.2798 35.1499C30.631 35.7576 29.8655 36.2271 29.0298 36.5299C28.1319 36.8532 27.184 37.0157 26.2298 37.0099C24.8205 37.0356 23.4275 36.7054 22.1798 36.0499V36.0499ZM27.7498 28.0499C27.7252 27.5093 27.6277 26.9744 27.4598 26.4599C27.3308 26.072 27.0802 25.736 26.7452 25.5018C26.4101 25.2676 26.0084 25.1477 25.5998 25.1599C25.18 25.1452 24.7655 25.2567 24.4098 25.4799C24.0431 25.7218 23.7602 26.0711 23.5998 26.4799C23.3822 26.9881 23.2504 27.5287 23.2098 28.0799L27.7498 28.0499Z" fill="#231F20"/>
<path d="M36.8893 42.58C36.1012 42.4062 35.336 42.1411 34.6093 41.79C33.9384 41.462 33.3213 41.0337 32.7793 40.52L34.5693 37.15C34.9585 37.5027 35.3804 37.8174 35.8293 38.09C36.2953 38.3687 36.7964 38.5839 37.3193 38.73C37.8283 38.8648 38.3528 38.9321 38.8793 38.93C39.5723 38.9536 40.2601 38.8022 40.8793 38.49C41.4158 38.2031 41.8597 37.7695 42.1593 37.24C42.474 36.6217 42.6255 35.9333 42.5993 35.24V34.18C42.2329 34.9849 41.6559 35.6759 40.9293 36.18C40.2489 36.6638 39.4342 36.9225 38.5993 36.92C37.7464 36.9404 36.9048 36.7222 36.1693 36.29C35.4884 35.8714 34.9485 35.2583 34.6193 34.53C34.2164 33.6795 34.0047 32.7511 33.9993 31.81V22.24H38.7993V31C38.7834 31.3834 38.8517 31.7657 38.9993 32.12C39.1286 32.4052 39.3281 32.6529 39.5793 32.84C39.8394 33.0316 40.1564 33.1303 40.4793 33.12C40.8518 33.1272 41.2189 33.0302 41.5393 32.84C41.857 32.6535 42.1061 32.3694 42.2493 32.03C42.4141 31.6553 42.496 31.2493 42.4893 30.84V22.24H47.2693V35.65C47.3006 37.0045 46.9544 38.3411 46.2693 39.51C45.6283 40.5794 44.695 41.4434 43.5793 42C42.2778 42.6171 40.8492 42.9186 39.4093 42.88C38.5607 42.8754 37.7153 42.7747 36.8893 42.58Z" fill="#231F20"/>
<path d="M16.2099 61.0001C14.831 60.1156 13.7372 58.8516 13.0599 57.3601C12.2959 55.6056 11.9337 53.7025 11.9999 51.7901C11.9594 49.8705 12.374 47.9686 13.2099 46.2401C13.9646 44.6944 15.1529 43.4018 16.6299 42.5201C18.2009 41.6287 19.984 41.1794 21.7899 41.2201C23.0898 41.2085 24.3766 41.4816 25.5599 42.0201C26.6928 42.5412 27.6967 43.3061 28.4999 44.2601C29.314 45.2475 29.8767 46.4176 30.1399 47.6701L25.1899 48.6701C25.0545 48.1135 24.7908 47.5964 24.4199 47.1601C24.0836 46.749 23.6689 46.4091 23.1999 46.1601C22.7395 45.9227 22.2277 45.8025 21.7099 45.8101C20.8855 45.7949 20.0784 46.0475 19.4099 46.5301C18.7344 47.0405 18.2205 47.7349 17.9299 48.5301C17.5703 49.5231 17.3974 50.5741 17.4199 51.6301C17.3871 52.7548 17.5845 53.8743 17.9999 54.9201C18.3432 55.7693 18.9359 56.4946 19.6999 57.0001C20.4766 57.4933 21.3798 57.7504 22.2999 57.7401C23.0865 57.7548 23.8651 57.5798 24.5699 57.2301C25.218 56.9108 25.7599 56.4107 26.1299 55.7901C26.5187 55.1317 26.7322 54.3845 26.7499 53.6201H20.2699V50.3701H31.8999V61.7301H28.0599L27.6199 58.4701C27.2265 59.2376 26.6823 59.9178 26.0199 60.4701C25.3363 61.0417 24.5532 61.4824 23.7099 61.7701C22.8347 62.0722 21.9157 62.2277 20.9899 62.2301C19.3105 62.2965 17.6486 61.8688 16.2099 61.0001V61.0001Z" fill="#231F20"/>
<path d="M36.8102 61.27C35.7166 60.6572 34.8319 59.7307 34.2702 58.61C33.6836 57.3387 33.3799 55.9552 33.3799 54.555C33.3799 53.1549 33.6836 51.7714 34.2702 50.5C34.838 49.3863 35.7214 48.4645 36.8102 47.85C38.0031 47.2384 39.3245 46.9194 40.6652 46.9194C42.0058 46.9194 43.3272 47.2384 44.5202 47.85C45.6137 48.4615 46.5011 49.3838 47.0702 50.5C47.6567 51.7714 47.9604 53.1549 47.9604 54.555C47.9604 55.9552 47.6567 57.3387 47.0702 58.61C46.5073 59.7332 45.6185 60.6603 44.5202 61.27C43.3272 61.8816 42.0058 62.2006 40.6652 62.2006C39.3245 62.2006 38.0031 61.8816 36.8102 61.27V61.27ZM42.0002 57.78C42.4058 57.4591 42.7112 57.0289 42.8802 56.54C43.28 55.2571 43.28 53.8829 42.8802 52.6C42.7193 52.1043 42.4126 51.6687 42.0002 51.35C41.6083 51.066 41.134 50.9184 40.6502 50.93C40.1626 50.9139 39.6837 51.0618 39.2902 51.35C38.881 51.6697 38.5778 52.1053 38.4202 52.6C38.0203 53.8829 38.0203 55.2571 38.4202 56.54C38.5859 57.0279 38.8878 57.4582 39.2902 57.78C39.687 58.0606 40.1643 58.2045 40.6502 58.19C41.1323 58.2002 41.6051 58.0566 42.0002 57.78V57.78Z" fill="#231F20"/>
<path d="M48.0703 47.42H53.0703L55.6303 57.83L58.1703 47.42H63.1703L58.5603 61.73H52.5603L48.0703 47.42Z" fill="#231F20"/>
</g>
<defs>
<clipPath id="clip0">
<rect width="131.86" height="62.26" fill="white"/>
</clipPath>
</defs>
</svg>
