<?xml version="1.0" encoding="utf-8"?>
<!-- Generator: Adobe Illustrator 17.0.0, SVG Export Plug-In . SVG Version: 6.00 Build 0)  -->
<!DOCTYPE svg PUBLIC "-//W3C//DTD SVG 1.1//EN" "http://www.w3.org/Graphics/SVG/1.1/DTD/svg11.dtd">
<svg version="1.1" id="Layer_1" xmlns="http://www.w3.org/2000/svg" xmlns:xlink="http://www.w3.org/1999/xlink" x="0px" y="0px"
	 width="200px" height="24px" viewBox="0 0 200 24" enable-background="new 0 0 200 24" xml:space="preserve">
<g>
	<path fill="#3F69B2" d="M9.642,17.083c-1.074-0.312-1.937-0.717-2.588-1.216l1.143-2.536c0.624,0.457,1.365,0.825,2.224,1.102
		c0.859,0.277,1.718,0.416,2.578,0.416c0.956,0,1.663-0.142,2.12-0.426c0.457-0.284,0.686-0.662,0.686-1.133
		c0-0.346-0.135-0.634-0.405-0.863c-0.27-0.229-0.617-0.412-1.039-0.551c-0.423-0.138-0.995-0.291-1.715-0.457
		c-1.109-0.263-2.016-0.526-2.723-0.79C9.216,10.365,8.61,9.942,8.104,9.36C7.598,8.778,7.345,8.002,7.345,7.032
		c0-0.845,0.229-1.611,0.686-2.297c0.457-0.686,1.147-1.23,2.068-1.632C11.021,2.701,12.147,2.5,13.477,2.5
		c0.928,0,1.836,0.111,2.723,0.333c0.887,0.222,1.663,0.54,2.328,0.956l-1.039,2.557c-1.344-0.762-2.689-1.143-4.033-1.143
		c-0.943,0-1.639,0.153-2.089,0.457c-0.451,0.305-0.675,0.707-0.675,1.206s0.26,0.87,0.78,1.112c0.52,0.243,1.313,0.482,2.38,0.717
		c1.109,0.263,2.017,0.527,2.723,0.79c0.707,0.263,1.313,0.679,1.819,1.247c0.506,0.568,0.759,1.337,0.759,2.307
		c0,0.831-0.232,1.59-0.696,2.276c-0.464,0.686-1.161,1.23-2.089,1.632c-0.929,0.402-2.058,0.603-3.388,0.603
		C11.828,17.55,10.716,17.394,9.642,17.083z"/>
	<path fill="#3F69B2" d="M32.123,12.624h-8.461c0.152,0.693,0.513,1.24,1.081,1.642c0.568,0.402,1.275,0.603,2.12,0.603
		c0.582,0,1.098-0.086,1.549-0.26c0.45-0.173,0.87-0.447,1.258-0.821l1.725,1.871c-1.053,1.206-2.592,1.809-4.615,1.809
		c-1.261,0-2.377-0.246-3.347-0.738c-0.97-0.492-1.719-1.175-2.245-2.048c-0.527-0.873-0.79-1.864-0.79-2.973
		c0-1.095,0.26-2.082,0.78-2.962c0.52-0.88,1.233-1.566,2.141-2.058c0.907-0.492,1.923-0.738,3.045-0.738
		c1.095,0,2.086,0.236,2.973,0.707c0.887,0.471,1.583,1.147,2.089,2.027c0.506,0.88,0.759,1.902,0.759,3.066
		C32.186,11.792,32.165,12.083,32.123,12.624z M24.536,9.027c-0.499,0.416-0.804,0.984-0.915,1.705h5.509
		c-0.111-0.707-0.416-1.271-0.915-1.694c-0.499-0.423-1.109-0.634-1.829-0.634C25.652,8.404,25.035,8.612,24.536,9.027z"/>
	<path fill="#3F69B2" d="M36.541,16.729c-0.949-0.492-1.691-1.175-2.224-2.048c-0.534-0.873-0.8-1.864-0.8-2.973
		c0-1.109,0.267-2.1,0.8-2.973c0.533-0.873,1.275-1.555,2.224-2.047c0.949-0.492,2.02-0.738,3.212-0.738
		c1.178,0,2.207,0.246,3.087,0.738c0.88,0.492,1.521,1.195,1.923,2.11l-2.515,1.351c-0.582-1.025-1.421-1.538-2.515-1.538
		c-0.845,0-1.545,0.277-2.1,0.831c-0.554,0.555-0.831,1.31-0.831,2.266c0,0.956,0.277,1.712,0.831,2.266
		c0.554,0.555,1.254,0.831,2.1,0.831c1.109,0,1.947-0.512,2.515-1.538l2.515,1.372c-0.402,0.887-1.043,1.58-1.923,2.079
		c-0.88,0.499-1.909,0.748-3.087,0.748C38.561,17.467,37.49,17.221,36.541,16.729z"/>
	<path fill="#3F69B2" d="M57.9,6.117v11.184h-3.077v-1.33c-0.43,0.485-0.943,0.856-1.538,1.112
		c-0.596,0.256-1.241,0.385-1.933,0.385c-1.469,0-2.633-0.423-3.492-1.268c-0.859-0.845-1.289-2.1-1.289-3.763V6.117h3.243v5.841
		c0,1.802,0.755,2.702,2.266,2.702c0.776,0,1.4-0.253,1.871-0.759c0.471-0.506,0.707-1.258,0.707-2.255V6.117H57.9z"/>
	<path fill="#3F69B2" d="M65.581,6.367c0.658-0.277,1.417-0.416,2.276-0.416v2.993c-0.36-0.028-0.603-0.042-0.728-0.042
		c-0.929,0-1.656,0.26-2.183,0.78c-0.527,0.52-0.79,1.299-0.79,2.339v5.28h-3.243V6.117h3.097v1.476
		C64.399,7.053,64.923,6.644,65.581,6.367z"/>
	<path fill="#3F69B2" d="M80.579,12.624h-8.461c0.152,0.693,0.513,1.24,1.081,1.642c0.568,0.402,1.275,0.603,2.12,0.603
		c0.582,0,1.098-0.086,1.549-0.26c0.45-0.173,0.87-0.447,1.258-0.821l1.725,1.871c-1.053,1.206-2.592,1.809-4.615,1.809
		c-1.261,0-2.377-0.246-3.347-0.738c-0.97-0.492-1.719-1.175-2.245-2.048c-0.527-0.873-0.79-1.864-0.79-2.973
		c0-1.095,0.26-2.082,0.78-2.962c0.52-0.88,1.233-1.566,2.141-2.058c0.907-0.492,1.923-0.738,3.045-0.738
		c1.095,0,2.086,0.236,2.973,0.707c0.887,0.471,1.583,1.147,2.089,2.027c0.506,0.88,0.759,1.902,0.759,3.066
		C80.642,11.792,80.621,12.083,80.579,12.624z M72.992,9.027c-0.499,0.416-0.804,0.984-0.915,1.705h5.509
		c-0.111-0.707-0.416-1.271-0.915-1.694c-0.499-0.423-1.109-0.634-1.829-0.634C74.107,8.404,73.491,8.612,72.992,9.027z"/>
	<path fill="#2BB6EA" d="M92.688,3.394c0.949,0.43,1.68,1.039,2.193,1.829c0.512,0.79,0.769,1.725,0.769,2.806
		c0,1.067-0.257,1.999-0.769,2.796c-0.513,0.797-1.244,1.407-2.193,1.829c-0.949,0.423-2.069,0.634-3.357,0.634H86.4v4.012h-3.368
		V2.75h6.299C90.62,2.75,91.739,2.965,92.688,3.394z M91.451,9.89c0.526-0.436,0.79-1.056,0.79-1.86c0-0.818-0.264-1.445-0.79-1.881
		c-0.527-0.437-1.296-0.655-2.307-0.655H86.4v5.051h2.744C90.155,10.545,90.924,10.327,91.451,9.89z"/>
	<path fill="#2BB6EA" d="M106.21,7.188c0.928,0.825,1.393,2.068,1.393,3.731v6.382h-3.035v-1.393
		c-0.61,1.039-1.746,1.559-3.409,1.559c-0.859,0-1.604-0.145-2.235-0.436c-0.631-0.291-1.112-0.693-1.445-1.206
		c-0.333-0.513-0.499-1.095-0.499-1.746c0-1.039,0.391-1.857,1.174-2.453c0.783-0.596,1.992-0.894,3.627-0.894h2.578
		c0-0.707-0.215-1.251-0.645-1.632c-0.43-0.381-1.074-0.572-1.933-0.572c-0.596,0-1.181,0.094-1.757,0.281
		c-0.575,0.187-1.064,0.44-1.465,0.759l-1.164-2.266c0.61-0.43,1.341-0.762,2.193-0.998c0.852-0.235,1.729-0.353,2.63-0.353
		C103.951,5.951,105.282,6.363,106.21,7.188z M103.445,14.9c0.429-0.256,0.735-0.634,0.915-1.133v-1.143h-2.224
		c-1.331,0-1.996,0.436-1.996,1.31c0,0.416,0.163,0.745,0.489,0.987c0.325,0.243,0.772,0.364,1.341,0.364
		C102.524,15.285,103.016,15.156,103.445,14.9z"/>
	<path fill="#2BB6EA" d="M121.427,6.117l-5.051,11.87c-0.513,1.289-1.147,2.196-1.902,2.723c-0.756,0.527-1.667,0.79-2.733,0.79
		c-0.582,0-1.157-0.09-1.726-0.27c-0.568-0.18-1.033-0.43-1.393-0.748l1.185-2.307c0.249,0.221,0.537,0.395,0.863,0.52
		c0.325,0.125,0.648,0.187,0.967,0.187c0.443,0,0.804-0.108,1.081-0.322c0.277-0.215,0.526-0.572,0.748-1.071l0.042-0.104
		l-4.843-11.267h3.347l3.139,7.587l3.16-7.587H121.427z"/>
</g>
<line fill="none" stroke="#2BB6EA" stroke-width="2" stroke-linejoin="round" stroke-miterlimit="10" x1="130" y1="-0.5" x2="130" y2="24.5"/>
<g>
	<polygon fill="#202D5C" points="158.601,4.805 167.858,4.805 167.858,7.612 161.641,7.612 161.641,10.418 167.39,10.418 
		167.39,13.225 161.641,13.225 161.641,18.604 158.601,18.604 	"/>
	<path fill="#202D5C" d="M170.04,4.805h5.126c0.714,0,1.39,0.065,2.027,0.195c0.637,0.13,1.192,0.354,1.666,0.672
		c0.474,0.318,0.851,0.747,1.13,1.286c0.279,0.539,0.419,1.218,0.419,2.037c0,0.806-0.13,1.481-0.39,2.027
		c-0.26,0.546-0.617,0.981-1.072,1.306c-0.455,0.325-0.994,0.555-1.618,0.692c-0.624,0.137-1.299,0.205-2.027,0.205h-2.222v5.379
		h-3.04V4.805z M173.081,10.652h2.027c0.273,0,0.536-0.026,0.789-0.078c0.254-0.052,0.481-0.14,0.682-0.263
		c0.201-0.123,0.364-0.292,0.487-0.507c0.123-0.214,0.185-0.484,0.185-0.809c0-0.351-0.081-0.633-0.244-0.848
		c-0.162-0.214-0.37-0.38-0.624-0.497c-0.253-0.117-0.536-0.191-0.848-0.224c-0.312-0.032-0.611-0.049-0.896-0.049h-1.559V10.652z"
		/>
	<polygon fill="#202D5C" points="185.748,11.393 181.188,4.805 185.008,4.805 187.95,9.639 190.777,4.805 194.46,4.805 
		189.997,11.334 194.986,18.604 191.166,18.604 187.794,13.05 184.52,18.604 180.915,18.604 	"/>
	<path fill="#0589CB" d="M145.285,16.015l-1.925-2.605c-0.285-0.388-0.779-0.898-0.779-1.41c0-0.511,0.491-1.021,0.779-1.41
		l1.925-2.608c0.092-0.126,0.18-0.213,0.266-0.284V4.698c0-2.411-1.009-3.019-2.241-1.35l-4.149,5.617
		c-0.617,0.836-1.674,1.934-1.674,3.035c0,1.098,1.06,2.198,1.674,3.038l4.149,5.611c1.232,1.67,2.241,1.067,2.241-1.348v-3.001
		C145.465,16.231,145.377,16.143,145.285,16.015"/>
	<path fill="#202D5C" d="M153.438,8.966l-4.151-5.617c-1.232-1.67-2.24-1.061-2.24,1.35v3.001c0.084,0.07,0.172,0.158,0.264,0.284
		l1.927,2.608c0.287,0.388,0.779,0.899,0.779,1.41c0,0.51-0.491,1.022-0.779,1.41l-1.927,2.605c-0.091,0.129-0.18,0.216-0.264,0.287
		v3c0,2.416,1.008,3.016,2.24,1.348l4.151-5.611c0.616-0.841,1.673-1.941,1.673-3.04C155.111,10.9,154.054,9.801,153.438,8.966"/>
	<rect x="134.611" y="0.5" fill="none" width="63.25" height="23"/>
</g>
</svg>
