<svg version="1.1" id="Layer_1" xmlns="http://www.w3.org/2000/svg" x="0" y="0" viewBox="0 0 1200 600" xml:space="preserve"><style>.st1,.st2{fill-rule:evenodd;clip-rule:evenodd;fill:#7e2f17}.st2{fill:#3e0000}.st6{fill:#fff}.st10,.st6{fill-rule:evenodd;clip-rule:evenodd}.st12{fill:#3e0000}</style><path fill="#feaf52" d="M0 0h1200v600H0z"/><path id="Fill-46" class="st1" d="M402.6 297.7c0 4 1.1 7.4 3.2 10.3 2.1 2.9 5 4.4 8.8 4.4 3.4 0 6.3-1.3 8.6-4s3.5-6.3 3.5-10.8c0-4.5-1.1-8.1-3.3-10.9-2.2-2.8-5.1-4.1-8.7-4.1-3.4 0-6.3 1.3-8.6 3.8-2.4 2.6-3.5 6.3-3.5 11.3zm-17.5-33.2v-10.1h11.4c4.3 0 6.4 2.1 6.4 6.4v14l-.2 4.1h.2c.1-.2.3-.4.5-.7.2-.3.7-.8 1.6-1.6.9-.8 1.8-1.5 2.8-2.1 1-.6 2.4-1.2 4.1-1.6 1.7-.5 3.5-.7 5.4-.7 6.4 0 11.6 2.3 15.4 7 3.8 4.7 5.8 10.8 5.8 18.3s-2 13.6-6.1 18.2-9.4 6.9-15.8 6.9c-2.9 0-5.6-.6-8-1.7-2.4-1.1-4-2.3-4.9-3.4l-1.4-1.7h-.2c.1.9.2 2 .2 3.2v2.4H391v-54.7c0-1.4-.7-2.1-2.1-2.1h-3.8z"/><path id="Fill-47" class="st1" d="M457.4 291.1h20.8c-.1-2.8-1-5.1-2.7-7-1.7-1.8-3.9-2.7-6.4-2.7-3.1 0-5.6.9-7.7 2.6-2 1.8-3.3 4.1-4 7.1m-12.6 6.3c0-7.4 2.3-13.5 6.8-18.2 4.5-4.7 10.4-7 17.6-7 6.7 0 11.9 2.2 15.6 6.5 3.8 4.3 5.7 9.8 5.7 16.4l-.3 4.4H457c.4 4.1 2 7.3 4.7 9.6s5.9 3.4 9.7 3.4c2.3 0 4.5-.4 6.8-1.3s3.9-1.8 5-2.7l1.7-1.4 5.1 8.3c-.2.2-.5.4-.9.8-.4.3-1.2.9-2.5 1.7-1.3.8-2.6 1.5-4 2.1-1.4.6-3.2 1.2-5.3 1.7-2.2.5-4.4.8-6.6.8-7.7 0-14-2.4-18.7-7.3-4.8-4.9-7.2-10.8-7.2-17.8"/><path id="Fill-48" class="st1" d="M509.3 307c0 1.7.6 3.2 1.9 4.4 1.3 1.2 3 1.9 5.3 1.9 3.1 0 5.7-1.3 7.8-4 2.1-2.7 3.2-5.6 3.2-8.7v-1.1h-2.1c-10.8-.1-16.1 2.4-16.1 7.5m-12 .5c0-2.4.5-4.6 1.5-6.5 1-1.9 2.4-3.4 4.2-4.5 1.8-1.1 3.7-2.1 5.6-2.9s4.1-1.4 6.4-1.7c2.3-.3 4.3-.5 5.9-.6 1.6-.1 3.2-.2 4.8-.2h1.5v-.4c0-3.4-.7-5.8-2.1-7.2-1.4-1.4-3.7-2.1-6.8-2.1-1.5 0-3 .2-4.3.7-1.4.5-2.1 1.3-2.1 2.5v2.6h-11.1v-5.1c0-2.1.6-3.8 1.9-5.3 1.3-1.4 3-2.5 5.1-3.1 2.1-.6 4-1 5.7-1.2 1.7-.2 3.3-.3 4.9-.3 14 0 21 6.3 21 19v18c0 1.4.7 2.1 2 2.1h3.7v10.1h-10.8c-2.1 0-3.6-.5-4.6-1.4-1-1-1.5-2.2-1.5-3.8l.1-2h-.2l-.5 1c-.2.4-.7 1-1.5 2s-1.7 1.8-2.7 2.6c-1 .7-2.4 1.4-4.2 2-1.8.6-3.7.9-5.7.9-4.5 0-8.3-1.4-11.5-4.1-3.1-2.8-4.7-6.5-4.7-11.1"/><path id="Fill-49" class="st1" d="M547.1 283.4v-10.1h6.9c1.9 0 3.4.3 4.5 1s1.9 1.8 2.6 3.5l9 25.2 1.8 6.8h.2c.5-2.7 1.1-5 1.7-6.8l9.1-25.2c.6-1.6 1.5-2.8 2.5-3.5 1.1-.7 2.6-1 4.5-1h6.4v10.1h-1.2c-1.3 0-2.2.6-2.6 1.7l-13.8 36.3h-14.3l-13.8-36.3c-.4-1.1-1.3-1.7-2.6-1.7h-.9z"/><path id="Fill-50" class="st1" d="M612 291.1h20.8c-.1-2.8-1-5.1-2.7-7-1.7-1.8-3.9-2.7-6.4-2.7-3.1 0-5.6.9-7.7 2.6-1.9 1.8-3.3 4.1-4 7.1m-12.5 6.3c0-7.4 2.3-13.5 6.8-18.2 4.5-4.7 10.4-7 17.6-7 6.7 0 11.9 2.2 15.6 6.5 3.8 4.3 5.7 9.8 5.7 16.4l-.3 4.4h-33.2c.4 4.1 2 7.3 4.7 9.6s5.9 3.4 9.7 3.4c2.3 0 4.5-.4 6.8-1.3s3.9-1.8 5-2.7l1.7-1.4 5.1 8.3c-.2.2-.5.4-.9.8-.4.3-1.2.9-2.5 1.7-1.3.8-2.6 1.5-4 2.1-1.4.6-3.2 1.2-5.3 1.7-2.2.5-4.4.8-6.6.8-7.7 0-14-2.4-18.7-7.3-4.8-4.9-7.2-10.8-7.2-17.8"/><path id="Fill-51" class="st1" d="M650.8 283.4v-10.1h11c4.3 0 6.4 1.9 6.4 5.7v2.8l-.2 2.9h.2c1.1-3.5 3.1-6.4 5.8-8.7 2.7-2.3 5.9-3.4 9.5-3.4l2.2.2v11.5c-.8-.1-1.8-.2-2.9-.2-2.8 0-5.5.9-7.9 2.6-2.5 1.7-4.2 4.2-5.2 7.6-.7 2.5-1.1 5.1-1.1 7.9v19.2h-12v-35.9c0-1.4-.7-2.1-2.1-2.1h-3.7z"/><path id="Fill-52" class="st2" d="M706.7 297.7c0 4 1.1 7.4 3.2 10.3 2.1 2.9 5 4.4 8.8 4.4 3.4 0 6.3-1.3 8.6-4s3.5-6.3 3.5-10.8c0-4.5-1.1-8.1-3.3-10.9-2.2-2.8-5.1-4.1-8.7-4.1-3.4 0-6.3 1.3-8.6 3.8-2.4 2.6-3.5 6.3-3.5 11.3zm-17.5-33.2v-10.1h11.4c4.3 0 6.4 2.1 6.4 6.4v14l-.2 4.1h.2c.1-.2.3-.4.5-.7.2-.3.8-.8 1.6-1.6.9-.8 1.8-1.5 2.8-2.1 1-.6 2.4-1.2 4.1-1.6 1.7-.5 3.5-.7 5.4-.7 6.4 0 11.6 2.3 15.4 7 3.8 4.7 5.8 10.8 5.8 18.3s-2 13.6-6.1 18.2-9.4 6.9-15.8 6.9c-2.9 0-5.6-.6-8-1.7-2.4-1.1-4-2.3-4.9-3.4l-1.4-1.7h-.2c.1.9.2 2 .2 3.2v2.4h-11.3v-54.7c0-1.4-.7-2.1-2.1-2.1h-3.8z"/><path id="Fill-53" class="st2" d="M747.7 283.4v-10.1h11.4c2.2 0 3.8.5 4.8 1.5s1.5 2.6 1.5 4.8v22.2c0 3.2.6 5.6 1.7 7.3 1.1 1.7 3 2.5 5.8 2.5 4.1 0 7.4-1.6 9.8-4.7 2.4-3.1 3.6-7 3.6-11.5v-22h12v35.9c0 1.4.7 2.1 2.1 2.1h3.8v10.1h-11c-4.2 0-6.3-1.8-6.3-5.4v-1.3l.1-2.2h-.2c-1.3 2.8-3.4 5.1-6.3 7.1-3 2-6.4 2.9-10.3 2.9-11.1 0-16.6-6.1-16.6-18.3v-18.7c0-1.4-.7-2.1-2-2.1h-3.9z"/><path id="Fill-54" class="st2" d="M814.7 265.4h9.8v-11h-9.8v11zm-6.3 18v-10.1h11.4c2.2 0 3.8.5 4.8 1.5s1.5 2.6 1.5 4.8v29.5c0 1.4.7 2.1 2 2.1h3.7v10.1h-11.4c-2.2 0-3.8-.5-4.8-1.5s-1.5-2.6-1.5-4.9v-29.5c0-1.4-.7-2.1-2-2.1h-3.7z"/><path id="Fill-55" class="st2" d="M835.8 264.5v-10.1h11.4c4.3 0 6.4 2.1 6.4 6.3v48.4c0 1.4.7 2.1 2.1 2.1h3.7v10.1H848c-2.3 0-3.9-.5-4.9-1.5-1-1-1.5-2.6-1.5-4.9v-48.3c0-1.4-.7-2.1-2.1-2.1h-3.7z"/><path id="Fill-56" class="st2" d="M876.4 297.4c0 4.5 1.1 8.1 3.3 10.9 2.2 2.8 5.1 4.1 8.6 4.1 3.4 0 6.3-1.3 8.6-3.8s3.5-6.3 3.5-11.3c0-4-1-7.4-3.1-10.4s-5-4.4-8.8-4.4c-3.5 0-6.4 1.3-8.6 4-2.3 2.8-3.5 6.4-3.5 10.9m-11.9 0c0-7.6 2-13.7 6.1-18.3 4.1-4.6 9.3-6.9 15.6-6.9 6.1 0 10.6 1.8 13.4 5.3l.5.7h.2c-.1-.8-.1-1.8-.1-2.9v-8.6c0-1.4-.7-2.1-2.1-2.1h-3.8v-10.1h11.4c4.3 0 6.4 2.1 6.4 6.3v48.4c0 1.4.7 2.1 2.1 2.1h3.7v10.1h-11c-4 0-5.9-1.6-5.9-4.9v-1.8h-.2c-.1.2-.3.5-.5.8-.2.4-.8 1-1.6 1.9-.9.9-1.8 1.7-2.8 2.4-1 .7-2.4 1.3-4.2 1.9-1.8.6-3.7.8-5.8.8-6.4 0-11.6-2.3-15.4-6.9-4.1-4.7-6-10.7-6-18.2"/><path id="Fill-57" class="st2" d="M935.7 291.1h20.8c-.1-2.8-1-5.1-2.7-7-1.7-1.8-3.9-2.7-6.4-2.7-3.1 0-5.6.9-7.7 2.6-2 1.8-3.3 4.1-4 7.1m-12.6 6.3c0-7.4 2.3-13.5 6.8-18.2 4.5-4.7 10.4-7 17.6-7 6.7 0 11.9 2.2 15.6 6.5 3.8 4.3 5.7 9.8 5.7 16.4l-.3 4.4h-33.2c.4 4.1 2 7.3 4.7 9.6s5.9 3.4 9.7 3.4c2.3 0 4.5-.4 6.8-1.3s3.9-1.8 5-2.7l1.7-1.4 5.1 8.3c-.2.2-.5.4-.9.8-.4.3-1.2.9-2.5 1.7-1.3.8-2.6 1.5-4 2.1-1.4.6-3.2 1.2-5.3 1.7-2.2.5-4.4.8-6.6.8-7.7 0-14-2.4-18.7-7.3-4.8-4.9-7.2-10.8-7.2-17.8"/><path id="Fill-58" class="st2" d="M974.4 283.4v-10.1h11c4.3 0 6.4 1.9 6.4 5.7v2.8l-.2 2.9h.2c1.1-3.5 3.1-6.4 5.8-8.7 2.7-2.3 5.9-3.4 9.5-3.4l2.2.2v11.5c-.8-.1-1.8-.2-2.9-.2-2.8 0-5.5.9-7.9 2.6-2.5 1.7-4.2 4.2-5.2 7.6-.7 2.5-1.1 5.1-1.1 7.9v19.2h-12v-35.9c0-1.4-.7-2.1-2.1-2.1h-3.7z"/><path id="Fill-59" d="M390.1 349.6c0 7.9-39.1 14.4-87.3 14.4-48.2 0-87.3-6.4-87.3-14.4 0-7.9 39.1-14.4 87.3-14.4 48.2 0 87.3 6.5 87.3 14.4" fill-rule="evenodd" clip-rule="evenodd" fill="#d38e44"/><path id="Fill-60" class="st2" d="M276.3 347.3c18.1-.5 41.1 8.8 55.9-1.4 3.3-2.3 1.5-3.9 1.3-3.7-14 14.9-33.1 2.5-60.1 1.1-.1 0 2.8 3.8 2.9 4"/><path id="Fill-61" d="M250.4 250.3c-10.8-12.2-27.9-10.9-36.2-6.1-11.5 6.6-32.9 30.7-19.4 43.4 8.9 8.4 10.8 14 23.8 21.8 7 4.2 15.6 14.2 25.4 19.8 5 2.9 12.7 7 13.4 12.7 1.1 9.3 14.1 11.2 25.6 10.5 2.3-.1-3.9-4.8-1.9-5.1 3.5-.5 14.8 2.4 17 2.7 10.9 1.4 18.9 2 24.8 2 12.5-.1 16.7-6 18.7-8.1 6.5-6.7.1-10.3-2-13.8-.7-1.3 1.1-3.6 1.5-4.6 3.2-8.3 5.2-11.2 10.2-18.6 3.9-5.8 3 1.9 6.3-7.7 8.4-23.9 1.6-7.7 2.7-19.4.4-4.2 14.8-8.7 3.3-28.3-3.7-6.4-10.2-22.8-17.3-31.1-7.3-8.6-3.8-1.3-10.4-3.3-51.8-15.5-23.7 5.8-57.8-3.1-15.9-4.2-17.5-5.2-20.6 16-1.2 10.3-1.4 5.9-7.1 20.3" fill-rule="evenodd" clip-rule="evenodd" fill="#aa7b55"/><path id="Fill-62" d="M311.7 323.6c9.3 1.4 21.2-8.4 34.7-32.6-5.2 64.4-90.2 62.2-106.7 11.3-2.1-6.4 1.8-30.7 8.6-44.7 19.2-39-1-2-5.4 0-3 1.3-7.4.1-8.2 1.9-11.8 26.8-17.6 41.6-8.5 53.9 8.4 11.3 22.7 15.7 24.5 17 .5.4 4.1 15.8 11.4 18.8 5.1 2.1 11.6 4.1 16.2 3 2.1-.5 2.3-3.9 4.5-4.2 5.2-.8 12.4.6 13 .6 4 .3 20.6 5.8 31.3 3.6 12.9-2.7 20-13.3 21.7-15.1 2.3-2.4-15.2-6.7-12.8-9.4 11.9-13.3 22.8-30.8 17.7-40.3-.2-.3 14.3-9.3 14.5-20.4.2-11.5-4.8 21.8-35.9 14.9-9.7-2.2-9.2 19.9-14.4 19.7-34.8-1.9-7.3 17.3-6.2 22" fill-rule="evenodd" clip-rule="evenodd" fill="#8c5d40"/><path id="Fill-63" class="st6" d="M318.5 268.7c.1 2.4-18.7 8.7-23.4 12.3-4.5 3.5-7.5 2.1-7.8 10.7 0 1.4 4.5 14.5 5.6 16.7 4.6 9.4 8.9 15 20.5 14.2 3.3-.2 6.9-2.8 9.6-4.7 3.6-2.5 14.4-22.6 18.5-28.2 7.7-10.6-2.9-8.9-11.8-17.9-1.4-1.3-9.3-3.1-11.2-3.1"/><path id="Fill-64" d="M318.5 268.7c.1 1.4-15.7 9.9-20.5 12.1-4.5 2.1-8.9-3.2-10.8 1.5-3.3 8.2 10.5 28.5 11.5 29.8-1.7-5.6-5.2-13.6-2.6-18.4 2.6-4.8 17.7-11.7 17.7-6.7-.1 5-1.3 14.2-2.9 27.1 3.3-.1 10.8-24.4 12.7-26.5 3-3.2 9.3.3 10 3 .7 2.7-2.4 10.4-10.3 22.9 3-2.4 16.5-15.3 18.4-22.1 3.1-10.6-6.8-16.3-12.2-19.5-1.2-.9-9.1-3.2-11-3.2" fill-rule="evenodd" clip-rule="evenodd" fill="#ece1da"/><path id="Fill-65" d="M260.3 211.4c-3.2.2 0-8.4 3.4-11.4 12.8-11.5 13.4-8.4 25.9-12.7 5.2-1.8 20.2 1.4 24.9 3.8 1.8.9 5.4 10.6 10.3 12.8 6.2 2.8 10.5 10.9 0 12.5-11.1 1.7-28.4 3.4-37.7-4-6.3-5-2.6 4.8-11.1 1.1l-15.7-2.1" fill-rule="evenodd" clip-rule="evenodd" fill="#fa9339"/><path id="Fill-66" d="M288.2 212.2c-1.7.1 5.5-2.4 7.4-4 6.9-6.2 7.8-2.5 14.5-4.9 2.8-1 13.7 1.6 16.3 2.9 1 .5 1.1 2 3.7 3.2 3.3 1.5 5.7 3.7.1 4.5-6 .9-17 4.9-21.9.9-3.4-2.7-1 .8-6 .6-2.1 0-32.5-3.9-14.1-3.2" fill-rule="evenodd" clip-rule="evenodd" fill="#8b4519"/><path id="Fill-67" class="st2" d="M228.6 244.9c-2.8-3.3-30.3 39.2-32.7 41.6-5.3 5.1 2.5 7.8 11.5 15.3 15.8 13.1 12.9 11.9 24.2 17.2.1-.2.1-.2-.9-1.2-.6-.6 3.5-11.7 2.5-12.7s-3 5.7-5.4 9.8c-2.2-2.1-5.5-5.3-5.4-5.7 3.5-8.6 13.1-29.8 11.7-30.8-1.9-1.2-12.2 23-15.7 27-1.2 1.4-4.6-.5-5.6-1.7-.7-.7-1.7-1.8-1-3.3 5.6-12.1 28-50.8 26.2-52.1-1.7-1.1-21.4 35.2-29.6 45.9-2.8 3.7-6.5-2.5-8.2-3.7 2.4-3.5 29.1-44.7 28.4-45.6"/><path id="Fill-68" class="st2" d="M311.6 259.3c.8 1 1.5 1.7 2.2 2.4-.8-2-.8-4.4-.1-6.4-2.4.8-3.6 2.2-2.1 4"/><path id="Fill-69" class="st2" d="M343.9 241c.3 0 .6.1.8.1-.9-.8-2.1-1.4-3.4-1.4-2.8 0-5 2.2-5 5s2.2 5 5 5 5-2.2 5-5v-.5c-.3 1-1.3 1.7-2.4 1.7-1.4 0-2.5-1.1-2.5-2.5 0-1.2 1.1-2.4 2.5-2.4"/><path id="Fill-70" class="st2" d="M278.7 344.1c-.7-.5-2-1.2-2.2-1-.4.3 1.9 3.4.9 5.8-1.1 2.3-14.7-1.7-15.5-3.4-.9-1.8 1.7-7.6 1.2-9.4-.5-1.8-4.6-3.9-7.2-5.3-20.5-11.1-61.1-43.8-59.1-55.5 1.9-11.1 19.9-31.5 24.1-32.5s20.3 1.7 20.7.5c.4-1.3-21.6-10-26.2-8.6-4.3 1.3-32.5 30.1-34.4 40.7-4.4 25.1 61.8 57.4 70.5 62.5 2.6 1.5-2 7.5 0 10.8 2.6 4.3 33.7 7.4 34.3 4.7.5-2.3-4.2-7.1-7.1-9.3"/><path id="Fill-71" class="st2" d="M316.4 320c-1.2.6-3.3.8-5.5.8 5.6-14.1 11.5-29.9 14.3-48.9 4.1 5 10.4 11.3 15.3 14-2.9 9.9-18.6 31.3-24.1 34.1m-8 .7c-1.6-.2-3.1-.5-3.8-1-4.1-2.5-12.6-19.1-14.6-30.3 7.3-1.3 21.4-10 28.2-16.9-1.5 15.5-5.7 32.4-9.8 48.2m-1-109.6c-6.3.1-12.6.5-17.5.8 10.5-8.3 35.7-9.7 38.3-.6-5.2 0-12.7-.3-20.8-.2m-27.8-.1c-2.6-2.9-7.2-9.4-10-9.5-1.1 0-3.8 1.6-6.8 3.9 1.4-9.9 15.2-15.5 28-16.6 3.1 2.5 5.8 5.3 9.3 13-6 .3-10.8.8-12.4 1.7-2.9 1.6-5.9 4.5-8.1 7.5m31.8-18.4c1.6 1.4 4.6 5.4 6.6 9-3.7-.1-7.6-.1-11.4-.1-2.9-6-6.1-9.9-9.6-13 6.1.3 11.5 1.6 14.4 4.1m38.2 27.6c0-3.1 5-6.1 4.6-9.9-.3-2.6-11.2-7.6-13.7-6.6-1.9.8-3.1 4.3-4.7 6.1.6-2.5.9-5 .1-6-.7-.8-4.9-1.4-10.7-1.8-2.1-4.8-6.9-10-10-12.9-3.3-3-11.7-3.8-21.2-2.9-1-.7-1.3-.9-3.7-.6-2.2.3-2.4.8-1.9 1.3-13.9 2.3-28.3 8.1-31.5 16.3-.6 1.5-1 4.2-.8 7.7-4.3 3.8-7.9 7.6-7.9 8.8-.1 2.6 4.6 6.4 4.9 8.4.3 2-8.4 15.4-13.7 33.9-6.5 22.8-2.6 54.2 17.7 54 11-.1 8.3-16.8.8-16.5-2.2.1-.9 13.7-6 11.4-8.9-4-10.1-27.5-3.7-43.9 13-32.9 18-34.7 17.6-37.1-.4-2.4-5.5-6.4-5.6-8-.1-1.8 7.3-8.9 9.5-8.2 2 .7 5.2 8.2 7.9 8.7 2.4.4 49-7.8 60.2-2.7 11.2 5.1 27.8 42.3 26.5 46.1-1.2 3.9-11.7 10.5-21.1 10.1-6.6-.3-15.1-6.3-18.8-9.5.1-.1.2-.1.3-.2-1 .4-2.1.6-3.3.6-1.2 0-2.2-.2-3.1-.6-5.3 4.4-14.7 10.5-23.1 11-10.9.7-21.7-6.6-23.5-9.8-2-3.6 5.4-17.3 4.4-18.2-2.1-1.7-21.2 18.7-19.1 25.8 1.6 5.4 13.5 10.9 23.2 13.2 2.4 8.9 13.3 30.6 16.9 33 3.9 2.5 15.4 3.5 20.2 1.5 5.5-2.3 23.3-20.3 28.8-35.7 1.7-.1 3.8-.5 6-1.2-2 30.3-30.4 51.2-29.3 53.2 1.1 2 17.4-2.9 19.3-.9 1.8 1.8-6.1 10.5-5.6 10.7.5.2 19.5-12.4 18.1-17.6-.8-3-12.6-1.5-13.3-2.7-.7-1.1 20.3-15.8 25.2-49.3 3.4-2.1 6.1-4.4 7-6.4 2.7-5.6-23.9-51.8-23.9-52.6"/><path id="Fill-72" class="st2" d="M299.4 241c.3 0 .6.1.8.1-.9-.9-2.1-1.4-3.4-1.4-2.8 0-5 2.2-5 5 0 2.7 2.2 5 5 5s5-2.2 5-5v-.5c-.3.8-1 1.4-1.8 1.6-.2 0-.4.1-.6.1-1.4 0-2.5-1.1-2.5-2.5 0-.7.3-1.4.8-1.9.5-.2 1-.5 1.7-.5"/><path id="Fill-73" class="st2" d="M341.4 249.7c2.7 0 4.9-2.2 4.9-4.9s-2.2-4.9-4.9-4.9-4.9 2.2-4.9 4.9c-.1 2.7 2.1 4.9 4.9 4.9"/><path id="Fill-74" class="st10" d="M341.4 247.7c1.6 0 2.9-1.3 2.9-2.9 0-1.6-1.3-2.9-2.9-2.9s-2.9 1.3-2.9 2.9c0 1.6 1.3 2.9 2.9 2.9"/><path id="Fill-75" class="st6" d="M343.9 244.6c.8 0 1.5-.7 1.5-1.5s-.7-1.5-1.5-1.5-1.5.7-1.5 1.5.7 1.5 1.5 1.5"/><path id="Fill-76" class="st2" d="M296.9 249.7c2.7 0 4.9-2.2 4.9-4.9s-2.2-4.9-4.9-4.9-4.9 2.2-4.9 4.9 2.2 4.9 4.9 4.9"/><path id="Fill-77" class="st10" d="M296.9 247.7c1.6 0 2.9-1.3 2.9-2.9 0-1.6-1.3-2.9-2.9-2.9s-2.9 1.3-2.9 2.9c0 1.6 1.3 2.9 2.9 2.9"/><path id="Fill-78" class="st6" d="M299.4 244.6c.8 0 1.5-.7 1.5-1.5s-.7-1.5-1.5-1.5-1.5.7-1.5 1.5c.1.9.7 1.5 1.5 1.5"/><path id="Fill-79" class="st10" d="M318.4 266.3c-.4-.2 1.4-2.5 1.7-4.2.5-2.2-1.4-2.6-2.7-2.4-2.5.5-.7 3.3-.2 4.3.4.9.1 1.4-1.3-.1-.7-.7-1.3-1.4-1.9-2-.8-.8-1.6-1.6-2.4-2.6-5.2-6.3 22.6-7 19.6-.9-1.1 2.2-2.5 3.8-4.1 5.6-2.3 2.7.3-2 .3-3.1 0-1.3-.7-1.1-1.3-.6-1.3 1.2 1.3 6.5-4.3 6.9-1.2.1-2.5-.2-3.4-.9"/><path id="Fill-80" class="st2" d="M223.9 242.6c10.1.7 17.1 2.8 27.2 6.3-3.2-3.7-8.2-5.7-17.2-9.6-4-1.7-7.9 1-10 3.3"/><path id="Fill-81" class="st2" d="M239.3 305.1c-2.1 3.8-42.6-29.6-45.5-31.4-6.2-3.9 2.2-11.6 9.4-20.9 12.6-16.2 5.6-6.5 15.6-14.1.1.1 14.9 13.1 14.4 13.7-.6.7-16.4-10.7-17.3-9.6-1.6 1.8-3.2 3.6-2.9 3.9 6 6.4 23.3 18.2 21.8 19.8-2 2.2-18.9-12.2-23.8-15.7-4.2-3-6.1 4.6-5.4 5.6 8 10.6 37.1 31.2 35.6 32.8-1.4 1.5-26.7-17.4-37.7-25.9-3.7-2.9-5 4-6.4 5.6 3.1 2.9 42.7 35.2 42.2 36.2"/><path class="st12" d="M1014.4 259.4v-7h-2.8v-.8h6.7v.8h-2.8v7h-1.1zM1019.5 259.4v-7.9h1.5l2.2 6.1 2.2-6.1h1.4v7.9h-1V253l-2.2 5.9h-1.1l-2.1-5.9v6.4h-.9z"/></svg>