<?xml version="1.0" encoding="UTF-8"?>
<svg width="168px" height="75px" viewBox="0 0 168 75" version="1.1" xmlns="http://www.w3.org/2000/svg" xmlns:xlink="http://www.w3.org/1999/xlink">
    <!-- Generator: Sketch 46.2 (44496) - http://www.bohemiancoding.com/sketch -->
    <title>Admin Navbar Logo</title>
    <desc>Created with Sketch.</desc>
    <defs></defs>
    <g id="Flow-Flow" stroke="none" stroke-width="1" fill="none" fill-rule="evenodd">
        <g id="Admin-Navbar-Logo">
            <g id="Logo" transform="translate(13.000000, 11.000000)">
                <path d="M77.2743478,10.4552181 C76.8276789,10.2885506 76.2443514,10.2052181 75.5243478,10.2052181 C74.7376772,10.2052181 74.12435,10.4252159 73.6843478,10.8652181 C73.2443456,11.3052203 73.0243478,11.8585481 73.0243478,12.5252181 C73.0243478,12.9385535 73.1743463,13.255217 73.4743478,13.4752181 C73.7743493,13.6952192 74.237678,13.9385501 74.8643478,14.2052181 L75.5843478,14.5052181 L76.1843478,14.7852181 C76.9043514,15.1052197 77.4743457,15.3952168 77.8943478,15.6552181 C78.3143499,15.9152194 78.671013,16.2718825 78.9643478,16.7252181 C79.2576826,17.1785537 79.4043478,17.7585479 79.4043478,18.4652181 C79.4043478,19.2252219 79.1543503,19.881882 78.6543478,20.4352181 C78.1543453,20.9885542 77.4576856,21.40855 76.5643478,21.6952181 C75.67101,21.9818862 74.6310204,22.1252181 73.4443478,22.1252181 C72.5643434,22.1252181 71.7410183,21.9885528 70.9743478,21.7152181 C70.2076773,21.4418834 69.6010167,21.0985535 69.1543478,20.6852181 C68.7076789,20.2718827 68.4843478,19.8652201 68.4843478,19.4652181 C68.4843478,19.0785495 68.6510128,18.761886 68.9843478,18.5152181 C69.3176828,18.2685502 69.7910114,18.0985519 70.4043478,18.0052181 C70.4710148,18.3918867 70.6976792,18.7385499 71.0843478,19.0452181 C71.4710164,19.3518863 71.9210119,19.5952172 72.4343478,19.7752181 C72.9476837,19.955219 73.3976792,20.0452181 73.7843478,20.0452181 C74.491018,20.0452181 75.1210117,19.9052195 75.6743478,19.6252181 C76.2276839,19.3452167 76.5043478,18.9585539 76.5043478,18.4652181 C76.5043478,18.0518827 76.3076831,17.7085528 75.9143478,17.4352181 C75.5210125,17.1618834 74.9310184,16.8652197 74.1443478,16.5452181 L73.0843478,16.0652181 C72.2176768,15.6385493 71.531017,15.1585541 71.0243478,14.6252181 C70.5176786,14.0918821 70.2643478,13.3852225 70.2643478,12.5052181 C70.2643478,11.5318799 70.5376784,10.7418878 71.0843478,10.1352181 C71.6310172,9.52854844 72.2943439,9.09188614 73.0743478,8.82521814 C73.8543517,8.55855014 74.6176774,8.42521814 75.3643478,8.42521814 C76.5510204,8.42521814 77.5276773,8.57854994 78.2943478,8.88521814 C79.0610183,9.19188634 79.6176794,9.57854914 79.9643478,10.0452181 C80.3110162,10.5118871 80.4843478,10.9918823 80.4843478,11.4852181 C80.4843478,11.7652195 80.4143485,12.1052161 80.2743478,12.5052181 C80.1343471,12.9052201 79.9276825,13.2518833 79.6543478,13.5452181 C79.3810131,13.8385529 79.0510164,13.9852181 78.6643478,13.9852181 C77.9976778,13.9852181 77.6643478,13.6385549 77.6643478,12.9452181 C77.6910146,12.7318837 77.751014,12.3818872 77.8443478,11.8952181 C77.9376816,11.408549 78.0043476,11.1185519 78.0443478,11.0252181 C77.9776808,10.8118837 77.7210167,10.6218856 77.2743478,10.4552181 Z M82.3643478,20.7852181 C81.7110112,19.9852141 81.3843478,18.9652243 81.3843478,17.7252181 C81.3843478,16.6852129 81.6343453,15.7052227 82.1343478,14.7852181 C82.6343503,13.8652135 83.3176768,13.1252209 84.1843478,12.5652181 C85.0510188,12.0052153 86.0043426,11.7252181 87.0443478,11.7252181 C88.0710196,11.7252181 88.9143445,12.0618814 89.5743478,12.7352181 C90.2343511,13.4085548 90.5643478,14.3985449 90.5643478,15.7052181 C90.5643478,16.6252227 90.311017,17.5785465 89.8043478,18.5652181 C89.2976786,19.5518897 88.6210187,20.3685482 87.7743478,21.0152181 C86.9276769,21.661888 86.0376858,21.9852181 85.1043478,21.9852181 C83.9310086,21.9852181 83.0176844,21.5852221 82.3643478,20.7852181 Z M86.6943478,19.5852181 C87.1276833,19.0518821 87.4843464,18.3785555 87.7643478,17.5652181 C88.0443492,16.7518807 88.1843478,15.9585553 88.1843478,15.1852181 C88.1843478,13.9985455 87.6910194,13.4052181 86.7043478,13.4052181 C86.1576784,13.4052181 85.6576834,13.6652155 85.2043478,14.1852181 C84.7510122,14.7052207 84.3910158,15.3485476 84.1243478,16.1152181 C83.8576798,16.8818886 83.7243478,17.5985481 83.7243478,18.2652181 C83.7243478,18.6518867 83.8110136,19.0085498 83.9843478,19.3352181 C84.157682,19.6618864 84.3743465,19.9185505 84.6343478,20.1052181 C84.8943491,20.2918857 85.1510132,20.3852181 85.4043478,20.3852181 C85.8310166,20.3852181 86.2610123,20.1185541 86.6943478,19.5852181 Z M99.2043478,20.4952181 C98.7376788,20.9285536 98.1443514,21.2852167 97.4243478,21.5652181 C96.7043442,21.8452195 95.9176854,21.9852181 95.0643478,21.9852181 C93.7576746,21.9852181 92.7910176,21.7152208 92.1643478,21.1752181 C91.537678,20.6352154 91.2243478,19.9318891 91.2243478,19.0652181 C91.2243478,17.8118785 91.5443446,16.6485568 92.1843478,15.5752181 C92.824351,14.5018794 93.6843424,13.6518879 94.7643478,13.0252181 C95.8443532,12.3985483 96.997675,12.0852181 98.2243478,12.0852181 C98.9843516,12.0852181 99.6143453,12.3085492 100.114348,12.7552181 C100.61435,13.201887 100.864348,13.8052143 100.864348,14.5652181 C100.864348,14.8585529 100.744349,15.1018838 100.504348,15.2952181 C100.264347,15.4885524 99.9443498,15.5852181 99.5443478,15.5852181 C99.2243462,15.5852181 99.0076817,15.5118855 98.8943478,15.3652181 C98.7810139,15.2185507 98.7243478,15.0252193 98.7243478,14.7852181 L98.7443478,14.3252181 C98.7443478,14.1652173 98.657682,14.0352186 98.4843478,13.9352181 C98.3110136,13.8352176 98.1243488,13.7852181 97.9243478,13.7852181 C97.5110124,13.7852181 96.9543513,14.0318823 96.2543478,14.5252181 C95.5543443,15.0185539 94.9410171,15.6685474 94.4143478,16.4752181 C93.8876785,17.2818888 93.6243478,18.1452135 93.6243478,19.0652181 C93.6243478,19.4385533 93.771013,19.7252171 94.0643478,19.9252181 C94.3576826,20.1252191 94.7910116,20.2252181 95.3643478,20.2252181 C95.7243496,20.2252181 96.1376788,20.1518855 96.6043478,20.0052181 C97.0710168,19.8585507 97.3643472,19.6718859 97.4843478,19.4452181 C97.9376834,18.6185473 98.3510126,18.2052181 98.7243478,18.2052181 C99.2710172,18.2052181 99.6410135,18.3085504 99.8343478,18.5152181 C100.027682,18.7218858 100.131014,18.9518835 100.144348,19.2052181 C99.984347,19.6318869 99.6710168,20.0618826 99.2043478,20.4952181 Z M104.094348,8.58521814 C104.354349,8.26521654 104.717679,8.10521814 105.184348,8.10521814 C105.677684,8.10521814 106.107679,8.25854994 106.474348,8.56521814 C106.841016,8.87188634 107.024348,9.21854954 107.024348,9.60521814 C107.024348,9.99188674 106.837683,10.3252167 106.464348,10.6052181 C106.091013,10.8852195 105.657684,11.0252181 105.164348,11.0252181 C104.684345,11.0252181 104.321016,10.901886 104.074348,10.6552181 C103.82768,10.4085502 103.704348,10.0852201 103.704348,9.68521814 C103.704348,9.27188274 103.834347,8.90521974 104.094348,8.58521814 Z M103.584348,13.0252181 L103.464348,12.2852181 C103.464348,12.1385507 103.551014,12.0252185 103.724348,11.9452181 C103.897682,11.8652177 104.231012,11.8252181 104.724348,11.8252181 C105.111016,11.8252181 105.394347,11.9318837 105.574348,12.1452181 C105.754349,12.3585525 105.844348,12.6118833 105.844348,12.9052181 C105.844348,12.9852185 105.831015,13.0918841 105.804348,13.2252181 L104.024348,20.4252181 L104.144348,21.1652181 C104.144348,21.3118855 104.057682,21.4252177 103.884348,21.5052181 C103.711014,21.5852185 103.377684,21.6252181 102.884348,21.6252181 C102.444346,21.6252181 102.157682,21.4952194 102.024348,21.2352181 C101.891014,20.9752168 101.817681,20.6385535 101.804348,20.2252181 C101.804348,19.9852169 102.397675,17.5852409 103.584348,13.0252181 Z M114.294348,21.7152181 C113.954346,21.8018852 113.657682,21.8452181 113.404348,21.8452181 C113.17768,21.8452181 113.024348,21.788552 112.944348,21.6752181 C112.864347,21.5618842 112.797681,21.3952192 112.744348,21.1752181 C112.691014,20.955217 112.651015,20.7985519 112.624348,20.7052181 C112.064345,21.0918867 111.487684,21.3885504 110.894348,21.5952181 C110.301012,21.8018858 109.80435,21.9052181 109.404348,21.9052181 C109.004346,21.9052181 108.59435,21.815219 108.174348,21.6352181 C107.754346,21.4552172 107.391016,21.141887 107.084348,20.6952181 C106.77768,20.2485492 106.624348,19.6518885 106.624348,18.9052181 C106.624348,18.1452143 106.861012,17.2285568 107.334348,16.1552181 C107.807684,15.0818794 108.487677,14.1485554 109.374348,13.3552181 C110.261019,12.5618808 111.297675,12.1652181 112.484348,12.1652181 C113.084351,12.1652181 113.677678,12.30855 114.264348,12.5952181 C114.851017,12.8818862 115.331013,13.2418826 115.704348,13.6752181 C116.077683,14.1085536 116.271014,14.5452159 116.284348,14.9852181 L116.024348,15.6852181 C115.651013,16.7252233 115.357682,17.6085478 115.144348,18.3352181 C114.931013,19.0618884 114.824348,19.7118819 114.824348,20.2852181 C114.824348,20.6718867 114.857681,20.9852169 114.924348,21.2252181 C114.844347,21.4652193 114.63435,21.628551 114.294348,21.7152181 Z M113.084348,17.7252181 C113.377683,16.7118797 113.65768,15.8585549 113.924348,15.1652181 C113.871014,14.9785505 113.751015,14.7818858 113.564348,14.5752181 C113.37768,14.3685504 113.184349,14.1952188 112.984348,14.0552181 C112.784347,13.9152174 112.644348,13.8452181 112.564348,13.8452181 C112.071012,13.8452181 111.544351,14.1418818 110.984348,14.7352181 C110.424345,15.3285544 109.95435,16.0318807 109.574348,16.8452181 C109.194346,17.6585555 109.004348,18.3652151 109.004348,18.9652181 C109.004348,19.2318861 109.084347,19.4818836 109.244348,19.7152181 C109.404349,19.9485526 109.57768,20.0652181 109.764348,20.0652181 C110.071016,20.0652181 110.561011,19.9485526 111.234348,19.7152181 C111.907685,19.4818836 112.37768,19.2518859 112.644348,19.0252181 C112.764348,18.6918831 112.911014,18.2585541 113.084348,17.7252181 Z M121.604348,11.4452181 C120.217674,17.2852473 119.411016,20.5852143 119.184348,21.3452181 C119.157681,21.4252185 119.021016,21.5285508 118.774348,21.6552181 C118.52768,21.7818854 118.357682,21.8452181 118.264348,21.8452181 C117.917679,21.8452181 117.604349,21.7618856 117.324348,21.5952181 C117.044346,21.4285506 116.891015,21.1385535 116.864348,20.7252181 C116.877681,20.6585511 116.911014,20.4718863 116.964348,20.1652181 C117.017681,19.8585499 117.091014,19.5252199 117.184348,19.1652181 C117.691017,17.2585419 118.277678,14.9252319 118.944348,12.1652181 L119.904348,8.30521814 C119.891014,8.22521774 119.884348,8.11188554 119.884348,7.96521814 C119.884348,7.44521554 120.034346,6.99855334 120.334348,6.62521814 C120.634349,6.25188294 120.977679,6.06521814 121.364348,6.06521814 C121.617682,6.06521814 121.85768,6.16188384 122.084348,6.35521814 C122.311016,6.54855244 122.491014,6.83854954 122.624348,7.22521814 L121.604348,11.4452181 Z M77.2743478,32.4552181 C76.8276789,32.2885506 76.2443514,32.2052181 75.5243478,32.2052181 C74.7376772,32.2052181 74.12435,32.4252159 73.6843478,32.8652181 C73.2443456,33.3052203 73.0243478,33.8585481 73.0243478,34.5252181 C73.0243478,34.9385535 73.1743463,35.255217 73.4743478,35.4752181 C73.7743493,35.6952192 74.237678,35.9385501 74.8643478,36.2052181 L75.5843478,36.5052181 L76.1843478,36.7852181 C76.9043514,37.1052197 77.4743457,37.3952168 77.8943478,37.6552181 C78.3143499,37.9152194 78.671013,38.2718825 78.9643478,38.7252181 C79.2576826,39.1785537 79.4043478,39.7585479 79.4043478,40.4652181 C79.4043478,41.2252219 79.1543503,41.881882 78.6543478,42.4352181 C78.1543453,42.9885542 77.4576856,43.40855 76.5643478,43.6952181 C75.67101,43.9818862 74.6310204,44.1252181 73.4443478,44.1252181 C72.5643434,44.1252181 71.7410183,43.9885528 70.9743478,43.7152181 C70.2076773,43.4418834 69.6010167,43.0985535 69.1543478,42.6852181 C68.7076789,42.2718827 68.4843478,41.8652201 68.4843478,41.4652181 C68.4843478,41.0785495 68.6510128,40.761886 68.9843478,40.5152181 C69.3176828,40.2685502 69.7910114,40.0985519 70.4043478,40.0052181 C70.4710148,40.3918867 70.6976792,40.7385499 71.0843478,41.0452181 C71.4710164,41.3518863 71.9210119,41.5952172 72.4343478,41.7752181 C72.9476837,41.955219 73.3976792,42.0452181 73.7843478,42.0452181 C74.491018,42.0452181 75.1210117,41.9052195 75.6743478,41.6252181 C76.2276839,41.3452167 76.5043478,40.9585539 76.5043478,40.4652181 C76.5043478,40.0518827 76.3076831,39.7085528 75.9143478,39.4352181 C75.5210125,39.1618834 74.9310184,38.8652197 74.1443478,38.5452181 L73.0843478,38.0652181 C72.2176768,37.6385493 71.531017,37.1585541 71.0243478,36.6252181 C70.5176786,36.0918821 70.2643478,35.3852225 70.2643478,34.5052181 C70.2643478,33.5318799 70.5376784,32.7418878 71.0843478,32.1352181 C71.6310172,31.5285484 72.2943439,31.0918861 73.0743478,30.8252181 C73.8543517,30.5585501 74.6176774,30.4252181 75.3643478,30.4252181 C76.5510204,30.4252181 77.5276773,30.5785499 78.2943478,30.8852181 C79.0610183,31.1918863 79.6176794,31.5785491 79.9643478,32.0452181 C80.3110162,32.5118871 80.4843478,32.9918823 80.4843478,33.4852181 C80.4843478,33.7652195 80.4143485,34.1052161 80.2743478,34.5052181 C80.1343471,34.9052201 79.9276825,35.2518833 79.6543478,35.5452181 C79.3810131,35.8385529 79.0510164,35.9852181 78.6643478,35.9852181 C77.9976778,35.9852181 77.6643478,35.6385549 77.6643478,34.9452181 C77.6910146,34.7318837 77.751014,34.3818872 77.8443478,33.8952181 C77.9376816,33.408549 78.0043476,33.1185519 78.0443478,33.0252181 C77.9776808,32.8118837 77.7210167,32.6218856 77.2743478,32.4552181 Z M84.2043478,41.3652181 C84.2043478,41.6718863 84.284347,41.9152172 84.4443478,42.0952181 C84.6043486,42.275219 84.831013,42.3652181 85.1243478,42.3652181 C85.5243498,42.3652181 85.8543465,42.2485526 86.1143478,42.0152181 C86.3743491,41.7818836 86.651013,41.4518869 86.9443478,41.0252181 C87.1576822,40.7185499 87.3310138,40.4985521 87.4643478,40.3652181 C87.5976818,40.2318841 87.7510136,40.1652181 87.9243478,40.1652181 C88.2710162,40.1652181 88.5176804,40.208551 88.6643478,40.2952181 C88.8110152,40.3818852 88.8843478,40.5585501 88.8843478,40.8252181 C88.8843478,40.9452187 88.8710146,41.0885506 88.8443478,41.2552181 C88.817681,41.4218856 88.784348,41.5452177 88.7443478,41.6252181 C88.4243462,42.3052215 87.9010181,42.8918823 87.1743478,43.3852181 C86.4476775,43.8785539 85.6243524,44.1252181 84.7043478,44.1252181 C83.7843432,44.1252181 83.0910168,43.901887 82.6243478,43.4552181 C82.1576788,43.0085492 81.9243478,42.3718889 81.9243478,41.5452181 C81.9243478,41.4252175 81.9843472,41.1118873 82.1043478,40.6052181 C82.2243484,40.0985489 82.3776802,39.4918883 82.5643478,38.7852181 L83.1243478,36.5052181 L81.9043478,36.6052181 C81.744347,36.6052181 81.6243482,36.5452187 81.5443478,36.4252181 C81.4643474,36.3052175 81.4243478,36.1585523 81.4243478,35.9852181 C81.4243478,35.6518831 81.5443466,35.3185531 81.7843478,34.9852181 C81.8110146,34.9452179 81.9443466,34.9052183 82.1843478,34.8652181 C82.424349,34.8252179 82.7176794,34.7852183 83.0643478,34.7452181 L83.6043478,34.6852181 L84.2843478,31.7652181 C84.4176818,31.4185497 84.6210131,31.1485524 84.8943478,30.9552181 C85.1676825,30.7618838 85.4243466,30.6652181 85.6643478,30.6652181 C85.9310158,30.6652181 86.1576802,30.7452173 86.3443478,30.9052181 C86.5310154,31.0652189 86.6310144,31.2518837 86.6443478,31.4652181 L85.9243478,34.4652181 C86.4443504,34.3985511 86.9276789,34.341885 87.3743478,34.2952181 C87.8210167,34.2485512 88.1710132,34.2252181 88.4243478,34.2252181 C88.931017,34.2252181 89.1843478,34.5185485 89.1843478,35.1052181 C89.1843478,35.3318859 89.0876821,35.5352172 88.8943478,35.7152181 C88.7010135,35.895219 88.4910156,36.0052179 88.2643478,36.0452181 L85.4643478,36.3252181 L84.2043478,41.3652181 Z M92.2343478,43.2752181 C92.1876809,43.5085526 92.0743487,43.6718843 91.8943478,43.7652181 C91.7143469,43.8585519 91.4310164,43.9052181 91.0443478,43.9052181 C90.6043456,43.9052181 90.2843488,43.8585519 90.0843478,43.7652181 C89.8843468,43.6718843 89.7843478,43.4718863 89.7843478,43.1652181 C89.824348,43.0052173 90.1110118,41.8652287 90.6443478,39.7452181 C91.0310164,38.1052099 91.3176802,36.9518881 91.5043478,36.2852181 C91.7043488,35.3385467 91.9376798,34.7152196 92.2043478,34.4152181 C92.4710158,34.1152166 92.7776794,33.9652181 93.1243478,33.9652181 C93.5910168,33.9652181 93.8943471,34.0318841 94.0343478,34.1652181 C94.1743485,34.2985521 94.2443478,34.4718837 94.2443478,34.6852181 L94.0043478,35.8652181 C94.4310166,35.3452155 94.9276783,34.9152198 95.4943478,34.5752181 C96.0610173,34.2352164 96.5643456,34.0652181 97.0043478,34.0652181 C97.577684,34.0652181 98.0243462,34.1652171 98.3443478,34.3652181 C98.6643494,34.5652191 98.8243478,34.8252165 98.8243478,35.1452181 C98.8243478,35.3852193 98.6743493,35.5752174 98.3743478,35.7152181 C98.0743463,35.8552188 97.6843502,35.9452179 97.2043478,35.9852181 C96.4843442,36.0518851 95.7476849,36.3652153 94.9943478,36.9252181 C94.2410107,37.4852209 93.677683,38.1452143 93.3043478,38.9052181 L92.3243478,42.8052181 C92.3110144,42.8852185 92.2810147,43.0418836 92.2343478,43.2752181 Z M98.9843478,43.2052181 C98.3843448,42.6852155 98.0843478,41.9918891 98.0843478,41.1252181 C98.0843478,39.8585451 98.4010113,38.6852235 99.0343478,37.6052181 C99.6676843,36.5252127 100.514343,35.6685546 101.574348,35.0352181 C102.634353,34.4018816 103.777675,34.0852181 105.004348,34.0852181 C105.751018,34.0852181 106.377679,34.295216 106.884348,34.7152181 C107.391017,35.1352202 107.644348,35.7518807 107.644348,36.5652181 C107.644348,37.0318871 107.494349,37.4152166 107.194348,37.7152181 C106.894346,38.0152196 106.464351,38.2818836 105.904348,38.5152181 C105.344345,38.7485526 104.437687,39.0785493 103.184348,39.5052181 C102.051009,39.8785533 101.131018,40.1918835 100.424348,40.4452181 C100.371014,40.6452191 100.344348,40.8518837 100.344348,41.0652181 C100.344348,41.4385533 100.501013,41.7252171 100.814348,41.9252181 C101.127683,42.1252191 101.571012,42.2252181 102.144348,42.2252181 C102.50435,42.2252181 102.917679,42.1518855 103.384348,42.0052181 C103.851017,41.8585507 104.144347,41.6718859 104.264348,41.4452181 C104.717683,40.6185473 105.131013,40.2052181 105.504348,40.2052181 C106.051017,40.2052181 106.421014,40.3085504 106.614348,40.5152181 C106.807682,40.7218858 106.911014,40.9518835 106.924348,41.2052181 C106.764347,41.6318869 106.451017,42.0618826 105.984348,42.4952181 C105.517679,42.9285536 104.924351,43.2852167 104.204348,43.5652181 C103.484344,43.8452195 102.697685,43.9852181 101.844348,43.9852181 C100.537675,43.9852181 99.5843508,43.7252207 98.9843478,43.2052181 Z M104.244348,37.4152181 C105.097685,37.0485496 105.524348,36.6852199 105.524348,36.3252181 C105.524348,36.1652173 105.437682,36.0352186 105.264348,35.9352181 C105.091014,35.8352176 104.904349,35.7852181 104.704348,35.7852181 C104.304346,35.7852181 103.847684,35.9385499 103.334348,36.2452181 C102.821012,36.5518863 102.34435,36.9252159 101.904348,37.3652181 C101.464346,37.8052203 101.157682,38.2185495 100.984348,38.6052181 C102.304354,38.1785493 103.39101,37.7818866 104.244348,37.4152181 Z M115.794348,43.7152181 C115.454346,43.8018852 115.157682,43.8452181 114.904348,43.8452181 C114.664347,43.8452181 114.507682,43.788552 114.434348,43.6752181 C114.361014,43.5618842 114.297681,43.3918859 114.244348,43.1652181 C114.191014,42.9385503 114.157681,42.7852185 114.144348,42.7052181 C113.571012,43.0918867 112.987684,43.3885504 112.394348,43.5952181 C111.801012,43.8018858 111.30435,43.9052181 110.904348,43.9052181 C110.557679,43.9052181 110.167683,43.7918859 109.734348,43.5652181 C109.301012,43.3385503 108.931016,43.0318867 108.624348,42.6452181 C108.31768,42.2585495 108.164348,41.8318871 108.164348,41.3652181 C108.164348,40.6185477 108.411012,39.6652239 108.904348,38.5052181 C109.397684,37.3452123 110.094343,36.3318891 110.994348,35.4652181 C111.894352,34.5985471 112.944342,34.1652181 114.144348,34.1652181 C115.197686,34.1652181 116.137677,34.3318831 116.964348,34.6652181 C117.791019,34.9985531 118.204348,35.4718817 118.204348,36.0852181 C117.831013,36.7785549 117.427683,37.8185445 116.994348,39.2052181 C116.561012,40.5918917 116.344348,41.6185481 116.344348,42.2852181 C116.344348,42.7252203 116.377681,43.0385505 116.444348,43.2252181 C116.351014,43.4652193 116.13435,43.628551 115.794348,43.7152181 Z M114.734348,38.9352181 C114.994349,38.1285474 115.344346,37.3185555 115.784348,36.5052181 C115.717681,36.2385501 115.507683,36.0618852 115.154348,35.9752181 C114.801013,35.888551 114.484349,35.8452181 114.204348,35.8452181 C113.711012,35.8452181 113.177684,36.1785481 112.604348,36.8452181 C112.031012,37.5118881 111.541017,38.288547 111.134348,39.1752181 C110.727679,40.0618892 110.524348,40.7785487 110.524348,41.3252181 C110.524348,41.5918861 110.59768,41.7818842 110.744348,41.8952181 C110.891015,42.008552 111.07768,42.0652181 111.304348,42.0652181 C111.611016,42.0652181 112.101011,41.9485526 112.774348,41.7152181 C113.447685,41.4818836 113.91768,41.2518859 114.184348,41.0252181 C114.291015,40.4385485 114.474347,39.7418888 114.734348,38.9352181 Z M120.294348,34.1052181 C120.421015,33.9185505 120.704346,33.8252181 121.144348,33.8252181 C121.62435,33.8252181 121.93768,33.9152172 122.084348,34.0952181 C122.231015,34.275219 122.324348,34.5452163 122.364348,34.9052181 L122.104348,36.3852181 C122.931019,34.9052107 123.917675,34.1652181 125.064348,34.1652181 C125.637684,34.1652181 126.097679,34.3485496 126.444348,34.7152181 C126.791016,35.0818866 126.964348,35.6385477 126.964348,36.3852181 C126.964348,36.7185531 126.924348,37.1052159 126.844348,37.5452181 C127.32435,36.5585465 127.781012,35.8185539 128.214348,35.3252181 C128.647683,34.8318823 129.037679,34.5152188 129.384348,34.3752181 C129.731016,34.2352174 130.091013,34.1652181 130.464348,34.1652181 C131.864355,34.1652181 132.591014,34.8318781 132.644348,36.1652181 C132.644348,36.3518857 132.617681,36.6185497 132.564348,36.9652181 C132.33768,38.2052243 132.017683,40.0585391 131.604348,42.5252181 C131.524347,43.0052205 131.431015,43.3685502 131.324348,43.6152181 C131.217681,43.861886 131.057682,44.0452175 130.844348,44.1652181 C130.631013,44.2852187 130.32435,44.3452181 129.924348,44.3452181 C129.324345,44.3452181 129.011015,43.9718885 128.984348,43.2252181 C129.011015,43.0385505 129.024348,42.8918853 129.024348,42.7852181 C129.117682,42.1985485 129.337679,41.0652265 129.684348,39.3852181 C129.991016,37.9718777 130.144348,37.1252195 130.144348,36.8452181 C130.144348,36.5652167 130.084348,36.368552 129.964348,36.2552181 C129.844347,36.1418842 129.704349,36.0852181 129.544348,36.0852181 C129.27768,36.0852181 128.89435,36.5552134 128.394348,37.4952181 C127.894345,38.4352228 127.401017,39.4852123 126.914348,40.6452181 C126.427679,41.8052239 126.117682,42.5985493 125.984348,43.0252181 C125.944348,43.1585521 125.781016,43.3252171 125.494348,43.5252181 C125.20768,43.7252191 124.971015,43.8252181 124.784348,43.8252181 C123.864343,43.8252181 123.404348,43.6385533 123.404348,43.2652181 C123.484348,43.0385503 123.757679,41.8918951 124.224348,39.8252181 L124.984348,36.5652181 C124.971014,36.4452175 124.911015,36.3452185 124.804348,36.2652181 C124.697681,36.1852177 124.584348,36.1452181 124.464348,36.1452181 C123.971012,36.1452181 123.454351,36.5785471 122.914348,37.4452181 C122.374345,38.3118891 121.901017,39.2852127 121.494348,40.3652181 C121.087679,41.4452235 120.851015,42.1985493 120.784348,42.6252181 C120.717681,42.9985533 120.591015,43.2585507 120.404348,43.4052181 C120.21768,43.5518855 119.897683,43.6252181 119.444348,43.6252181 C119.057679,43.6252181 118.764349,43.5752186 118.564348,43.4752181 C118.364347,43.3752176 118.257681,43.1785529 118.244348,42.8852181 C118.244348,42.7385507 118.404346,41.9585585 118.724348,40.5452181 C119.044349,39.1318777 119.477678,37.2918961 120.024348,35.0252181 C120.077681,34.5985493 120.167681,34.2918857 120.294348,34.1052181 Z M139.884348,35.7052181 C139.284345,35.7052181 138.684351,35.8252169 138.084348,36.0652181 C137.484345,36.3052193 137.184348,36.6118829 137.184348,36.9852181 C137.184348,37.2518861 137.304347,37.4652173 137.544348,37.6252181 C137.784349,37.7852189 138.164345,37.9652171 138.684348,38.1652181 C139.244351,38.3918859 139.697679,38.6052171 140.044348,38.8052181 C140.391016,39.0052191 140.694347,39.2952162 140.954348,39.6752181 C141.214349,40.05522 141.344348,40.5385485 141.344348,41.1252181 C141.344348,42.0852229 140.947685,42.8218822 140.154348,43.3352181 C139.361011,43.848554 138.297688,44.1052181 136.964348,44.1052181 C136.311011,44.1052181 135.704351,44.0052191 135.144348,43.8052181 C134.584345,43.6052171 134.141016,43.348553 133.814348,43.0352181 C133.48768,42.7218832 133.311015,42.4118863 133.284348,42.1052181 C133.284348,41.7852165 133.424346,41.5218858 133.704348,41.3152181 C133.984349,41.1085504 134.377679,40.9718851 134.884348,40.9052181 C134.897681,41.1718861 135.03768,41.4218836 135.304348,41.6552181 C135.571016,41.8885526 135.887679,42.0752174 136.254348,42.2152181 C136.621016,42.3552188 136.93768,42.4252181 137.204348,42.4252181 C137.657683,42.4252181 138.071013,42.301886 138.444348,42.0552181 C138.817683,41.8085502 139.004348,41.5185531 139.004348,41.1852181 C139.004348,40.5718817 138.41102,40.0852199 137.224348,39.7252181 C136.464344,39.4985503 135.881017,39.1385539 135.474348,38.6452181 C135.067679,38.1518823 134.864348,37.6318875 134.864348,37.0852181 C134.864348,36.0052127 135.354343,35.2285538 136.334348,34.7552181 C137.314353,34.2818824 138.56434,34.0452181 140.084348,34.0452181 C140.937685,34.0452181 141.597679,34.1452171 142.064348,34.3452181 C142.531017,34.5452191 142.764348,34.8918823 142.764348,35.3852181 C142.764348,35.7185531 142.641016,36.0118835 142.394348,36.2652181 C142.14768,36.5185527 141.797683,36.6452181 141.344348,36.6452181 C140.944346,36.6452181 140.687682,36.6152184 140.574348,36.5552181 C140.461014,36.4952178 140.397681,36.3918855 140.384348,36.2452181 C140.384348,36.1118841 140.417681,35.9718855 140.484348,35.8252181 C140.324347,35.7452177 140.124349,35.7052181 139.884348,35.7052181 Z" id="Social-Streams-Copy-2" fill="#FFFFFF"></path>
                <g>
                    <path d="M29.0256051,0.356951081 L50.0493454,12.4830545 C50.8755588,12.9595991 51.3846154,13.8408767 51.3846154,14.7946708 L51.3846154,39.0423234 C51.3846154,39.9961175 50.8755588,40.8773951 50.0493454,41.3539397 L29.0256051,53.4800431 C28.2004489,53.9559779 27.1841665,53.9559779 26.3590103,53.4800431 L5.33526997,41.3539397 C4.50905659,40.8773951 4,39.9961175 4,39.0423234 L4,14.7946708 C4,13.8408767 4.50905659,12.9595991 5.33526997,12.4830545 L26.3590103,0.356951081 C27.1841665,-0.118983694 28.2004489,-0.118983694 29.0256051,0.356951081 Z" id="Shadown-Copy" fill="#91288F"></path>
                    <g id="021-cloud" transform="translate(0.000000, 6.480000)" fill-rule="nonzero">
                        <path d="M46.10375,15.8706844 C44.9707344,11.2698422 40.8281562,7.8580125 35.8904219,7.8580125 C35.1112344,7.8580125 34.3520625,7.94378812 33.621,8.10480937 C32.2485625,3.87876937 28.2885312,0.824191875 23.6163594,0.824191875 C17.8060312,0.824191875 13.0957969,5.54788406 13.0957969,11.3748131 C13.0957969,12.6080297 13.3075469,13.7915578 13.6952812,14.8917234 L12.2191562,14.8917234 L12.2191562,14.9012662 C12.0735781,14.8955625 11.9276719,14.8917234 11.7807812,14.8917234 C5.72829687,14.8917234 0.82184375,19.812195 0.82184375,25.8819722 C0.82184375,31.9516397 5.72829687,36.8722209 11.7807812,36.8722209 C11.9276719,36.8722209 12.0735781,36.8684916 12.2191562,36.8626781 L12.2191562,36.8722209 L44.6574844,36.8722209 C50.4678125,36.8722209 55.1780469,32.1485287 55.1780469,26.3215997 C55.1780469,20.9868384 51.2297187,16.5775106 46.10375,15.8706844 Z" id="Shape" fill="#F9D76F"></path>
                        <path d="M45.5342344,34.2345656 L13.0959062,34.2345656 L13.0959062,34.2251325 C12.9503281,34.2308362 12.8044219,34.2345656 12.6575312,34.2345656 C6.60504687,34.2345656 1.69859375,29.3140941 1.69859375,23.2443169 C1.69859375,22.5143466 1.77023438,21.8011584 1.90564063,21.1110047 C1.21121875,22.5540534 0.821953125,24.1723828 0.821953125,25.8819722 C0.821953125,31.9517494 5.72840625,36.8722209 11.7808906,36.8722209 C11.9277813,36.8722209 12.0736875,36.8684916 12.2192656,36.8627878 L12.2192656,36.8722209 L44.6575937,36.8722209 C49.7890312,36.8722209 54.0615469,33.1877081 54.99025,28.3130859 C53.2800625,31.8194662 49.688625,34.2345656 45.5342344,34.2345656 Z" id="Shape" fill="#FFB63B"></path>
                        <ellipse id="Oval" fill="#B8E986" cx="27.535375" cy="29.9758387" rx="2.49265625" ry="2.49977812"></ellipse>
                        <path d="M24.2214219,29.9763872 C24.2214219,31.8092653 25.708375,33.3003572 27.5359219,33.3003572 C29.3634688,33.3003572 30.8504219,31.8091556 30.8504219,29.9763872 C30.8504219,28.1435091 29.3634688,26.6524172 27.5359219,26.6524172 C25.708375,26.6524172 24.2214219,28.1435091 24.2214219,29.9763872 Z M29.206625,29.9763872 C29.206625,30.9001753 28.4571875,31.6518637 27.5359219,31.6518637 C26.6147656,31.6518637 25.8652187,30.900285 25.8652187,29.9763872 C25.8652187,29.0524894 26.6146562,28.3009106 27.5359219,28.3009106 C28.4571875,28.3009106 29.206625,29.0524894 29.206625,29.9763872 Z" id="Shape" fill="#000000"></path>
                        <path d="M37.6438125,19.8362166 C37.4334844,19.8362166 37.2231563,19.7558156 37.0625938,19.5947944 C34.5682969,17.0935903 31.2520469,15.716025 27.7248125,15.716025 C24.1975781,15.716025 20.8813281,17.0934806 18.3870313,19.5947944 C18.0660156,19.9167272 17.5456094,19.9168369 17.2247031,19.5947944 C16.9036875,19.2729713 16.9036875,18.7510781 17.2247031,18.4291453 C20.0295156,15.6164288 23.7584375,14.0674219 27.7248125,14.0674219 C31.6911875,14.0674219 35.4202188,15.6164288 38.2249219,18.4291453 C38.7313281,18.9368888 38.3625156,19.8362166 37.6438125,19.8362166 Z M34.5442344,22.94487 C34.3337969,22.94487 34.1234688,22.8643594 33.9629063,22.7034478 C32.2967969,21.0324684 30.0814063,20.1121903 27.7249219,20.1121903 C25.3685469,20.1121903 23.1531563,21.0324684 21.4869375,22.7034478 C21.1660313,23.0253806 20.645625,23.0254903 20.3246094,22.7034478 C20.0035938,22.3816247 20.0035938,21.8597316 20.3246094,21.5377988 C22.3012344,19.5553069 24.9292969,18.4635872 27.7249219,18.4635872 C30.5205469,18.4635872 33.1487188,19.5554166 35.1253438,21.5377988 C35.63175,22.0455422 35.2630469,22.94487 34.5442344,22.94487 Z M31.4446562,26.0533041 C31.2342187,26.0533041 31.0238906,25.9727934 30.8633281,25.8118819 C30.0250781,24.9712369 28.9104375,24.5082459 27.7249219,24.5082459 C26.5394062,24.5082459 25.4247656,24.9712369 24.5865156,25.8118819 C24.2656094,26.1338147 23.7452031,26.1339244 23.4241875,25.8118819 C23.1031719,25.4900587 23.1031719,24.9681656 23.4241875,24.6462328 C24.5729531,23.4940753 26.1002656,22.8596428 27.7249219,22.8596428 C29.3495781,22.8596428 30.8768906,23.4940753 32.0257656,24.6462328 C32.5321719,25.1539762 32.1633594,26.0533041 31.4446562,26.0533041 Z" id="Combined-Shape" fill="#000000"></path>
                        <path d="M34.958875,37.6963031 L44.6574844,37.6963031 C50.9117656,37.6964128 56,32.5936406 56,26.3215997 C56,23.48892 54.9551406,20.7747028 53.0579219,18.6790134 C52.7529844,18.3420534 52.233125,18.3168253 51.8969063,18.6228534 C51.5609063,18.9287719 51.53575,19.4501166 51.8407969,19.7871862 C53.4628281,21.5789316 54.3560937,23.8994803 54.3560937,26.3215997 C54.3560937,31.68477 50.0052656,36.0479194 44.6574844,36.0479194 C44.6574844,36.0479194 11.9028438,36.0479194 11.7807813,36.0479194 C6.19117188,36.0479194 1.64379688,31.4875519 1.64379688,25.8819722 C1.64379688,20.2763925 6.19117188,15.716025 11.7807813,15.716025 C12.4183281,15.716025 13.0569688,15.716025 13.6952813,15.716025 C14.2525469,15.716025 14.65625,15.1449919 14.4702031,14.6169563 C14.1035781,13.5767897 13.9176406,12.4859475 13.9176406,11.3748131 C13.9176406,6.0117525 18.2684688,1.64849344 23.61625,1.64849344 C27.8290469,1.64849344 31.5355469,4.34570906 32.8394063,8.36016188 C32.9702188,8.76315375 33.3848594,9.0005175 33.7974219,8.90991563 C34.4825469,8.75887594 35.1867031,8.68231406 35.8903125,8.68231406 C40.3629844,8.68231406 44.2348594,11.7195609 45.30575,16.0684509 C45.3863594,16.3961972 45.6582656,16.6413488 45.99175,16.6874175 C47.1956406,16.8534844 48.3434219,17.2405716 49.4029375,17.83782 C49.7985469,18.0608147 50.2997031,17.9200856 50.5221719,17.5232363 C50.7446406,17.1263869 50.6042031,16.6239084 50.2084844,16.4008041 C49.1282969,15.7917094 47.9695781,15.3695222 46.757375,15.1422497 C45.3294844,10.3408988 40.936875,7.03382063 35.8902031,7.03382063 C35.3100781,7.03382063 34.7294063,7.07846344 34.1566094,7.16665219 C32.4488281,2.85121687 28.300125,0 23.6164687,0 C17.3621875,0 12.2739531,5.10277219 12.2739531,11.3749228 C12.2739531,12.2879616 12.3814687,13.1895928 12.5943125,14.0675316 C12.3228438,14.0675316 12.0520312,14.0675316 11.7807812,14.0675316 C5.28478125,14.0674219 0,19.3674122 0,25.8819722 C0,32.3965322 5.28478125,37.6964128 11.7807812,37.6964128 C11.8880781,37.6964128 18.410875,37.6964128 18.410875,37.6964128 L20.0547813,37.6965225 L27.1780469,37.6965225 L28.8219531,37.6964128 L33.3150781,37.6964128 L34.958875,37.6963031 Z" id="Shape" fill="#000000"></path>
                    </g>
                </g>
            </g>
        </g>
    </g>
</svg>