<?xml version="1.0" encoding="utf-8"?>
<!-- Generator: Adobe Illustrator 12.0.0, SVG Export Plug-In . SVG Version: 6.00 Build 51448)  -->
<!DOCTYPE svg PUBLIC "-//W3C//DTD SVG 1.1//EN" "http://www.w3.org/Graphics/SVG/1.1/DTD/svg11.dtd" [
	<!ENTITY ns_svg "http://www.w3.org/2000/svg">
	<!ENTITY ns_xlink "http://www.w3.org/1999/xlink">
]>
<svg  version="1.1" id="Ebene_1" xmlns="&ns_svg;" xmlns:xlink="&ns_xlink;" width="409.091" height="598.631"
	 viewBox="0 0 409.091 598.631" overflow="visible" enable-background="new 0 0 409.091 598.631" xml:space="preserve">
<g>
	<g id="XMLID_2_">
		<g>
			<path fill="#F18D1A" d="M325.595,140.431c39.58-3.21,87.08,3.23,83,41c-4.11,37.95-52.78,53.66-91,60
				c-6.31,13.8-7.16,34.14-16,47c-8.14,11.82-30.64,16.85-39,29c-6.17,8.96-6.99,25.52-9,38c-4.34,26.75-15.9,47.08-27,66.99
				c-4.77,8.56-9.5,20.62-21,25c-6.43-16.12,10.86-21.43,7-35c-27.36-0.62-42.5-15.06-54-31.99c1.5-10.8,46.41-11.28,45-25
				c-1.15-11.1-24.53-4.88-33-11c6.85-8.82,27.02-4.31,36-11c-7.97-15.45-33.51,0.9-49,0c13.97-5.46,23.47-24.6,43-18
				c1.27-3.14,3.36-9.4,1-13c-5.77-5.57-19.56-3.12-23-11c11.5-17.12,31.96-29.76,26-64c-10.14,10.57-14.66,28.61-31,31
				c-15.62,2.28-35.11-10-54-8c-6.44,0.68-10.73,3.78-18,4c-5.93-2.41-6.01-10.67-10-15c-37.82,8.84-86.95-1.66-91-36
				c-0.9-7.54-0.2-18.2,4-26c6.87-12.79,34.99-28.28,66-25c16.26,1.71,34.24,7.14,53,8
				C193.465,163.602,265.145,145.321,325.595,140.431z"/>
			<path fill="#F18D1A" d="M374.595,374.431c9.85,5.061,29.33,12.311,28,27c-1.13,12.391-31.62,35.3-40,41.99
				c-38.92,31.06-78.23,54.86-128,76c-8.07,3.43-22.36,10.95-29,11c-7.18,0.06-19.67-7.14-29-11c-56.17-23.21-103.12-53.05-146-92
				c-6.7-6.08-17.43-13.25-18-20.99c-1-13.399,11.55-16.93,25-21c10.61-3.22,26.77-10.45,36-9c7.7,1.2,15.61,15.03,20,20
				c8.15,9.24,11.33,13.61,20,19.99c-15.9-31.61-53.02-79.8-57-126.99c-0.75-8.89,0.4-19.21,5-24c5.75-6.02,33.03-9.8,36,3
				c-5.38,4.96-18.73-2.22-24,4c9.86,33.67,56.75,34.3,69,66c4.87,12.62,4.2,26.66,8,39c10.3,33.5,27.49,62.8,54,83.99
				c26.85-22.521,46.96-51.23,56-93.99c2.98-14.12,4.78-28.76,12-38c18.58-23.8,52.83-25.65,64-56c-3.42-8.46-18.67,0.57-24-5
				c2.07-11.31,26.98-9.78,34-5c3.46,2.35,7.57,10.86,8,18c1.38,23.4-11.479,47.79-22,70c-11.78,24.851-22.34,44.38-33,60.99
				c-0.2,0.82-1.01,1-1,2c11.39-11.62,28.74-34.57,40-52.99C351.525,365.051,362.326,368.122,374.595,374.431z"/>
			<path fill="#F18D1A" d="M297.595,96.431c3.87,10.07,10.89,18.84,13,32c-18.43,2.04-38.63-1.85-59-3c-41.16-2.34-85.63-0.2-124,5
				c-19.09,2.58-36.55,9.87-53,8c0.39-10.92,9.38-19.62,15-30c10.85-20.08,13.09-45.44,25-69c4.64-9.21,12.16-23.28,22-24
				c21.25-1.57,33.02,35.54,51,35c11.5-0.35,22.58-24.69,35-36c8.36-7.63,20.19-17.64,34-13c8.5,2.85,14.54,16.88,18,28
				C282.105,53.571,288.725,73.381,297.595,96.431z"/>
		</g>
		<g>
		</g>
	</g>
</g>
<g>
	<g id="XMLID_1_">
		<g>
			<path fill="#F18D1A" d="M383.928,450.148c0.039,1.312-0.521,2.024-0.849,2.963c-0.849,3.767-0.345,8.879-0.361,13.471
				l-0.063,2.212c-2.308,44.037-17.073,75.622-39.005,100.036c-3.145,2.788-6.107,5.757-8.901,8.901
				c-7.9,7.075-16.66,13.29-26.286,18.651c-11.198-5.333-20.772-12.289-29.673-19.924c-1.663-2.013-3.495-3.852-5.514-5.508
				c-0.373-0.192-0.758-0.374-0.843-0.849c-1.238-1.595-2.652-3.003-4.241-4.241c-17.096-18.651-30.595-46.865-34.339-80.113
				c-1.289-11.43-0.187-23.187-1.272-35.6c18.006-5.515,36.861-9.993,56.383-14.84c6.521-1.617,13.442-4.265,19.5-4.236
				c5.955,0.023,13.092,2.676,19.505,4.236C346.942,439.928,365.678,444.854,383.928,450.148z"/>
			<path fill="#FFFFFF" d="M383.08,453.111l-0.361,13.471C382.735,461.99,382.231,456.877,383.08,453.111z"/>
			<path fill="#F18D1A" d="M382.656,468.793l0.063-2.212C382.712,467.339,382.695,468.075,382.656,468.793z"/>
			<path fill="#FFFFFF" d="M343.651,568.83c-2.788,3.145-5.757,6.107-8.901,8.901C337.543,574.586,340.506,571.618,343.651,568.83z"
				/>
			<path fill="#FFFFFF" d="M273.276,570.951c2.019,1.656,3.851,3.495,5.514,5.508C276.777,574.801,274.939,572.963,273.276,570.951z
				"/>
			<path fill="#FFFFFF" d="M268.192,565.861c1.589,1.238,3.003,2.646,4.241,4.241C270.839,568.864,269.425,567.45,268.192,565.861z"
				/>
		</g>
		<g>
			<polyline fill="none" stroke="#FFFFFF" stroke-width="4" points="382.656,468.793 382.718,466.582 383.08,453.111 			"/>
			<path fill="none" stroke="#FFFFFF" stroke-width="4" d="M272.434,570.102c-1.595-1.238-3.008-2.652-4.241-4.241"/>
			<path fill="none" stroke="#FFFFFF" stroke-width="4" d="M278.791,576.458c-2.014-1.657-3.852-3.495-5.514-5.508"/>
			<path fill="none" stroke="#FFFFFF" stroke-width="4" d="M343.651,568.83c-2.788,3.145-5.757,6.107-8.901,8.901"/>
			<path fill="none" stroke="#FFFFFF" stroke-width="4" d="M268.192,565.861c-17.096-18.651-30.595-46.865-34.339-80.113
				c-1.289-11.43-0.187-23.187-1.272-35.6c18.006-5.515,36.861-9.993,56.383-14.84c6.521-1.617,13.442-4.265,19.5-4.236
				c5.955,0.023,13.092,2.676,19.505,4.236c18.973,4.62,37.709,9.546,55.959,14.84c0.039,1.312-0.521,2.024-0.849,2.963
				c-0.849,3.767-0.345,8.879-0.361,13.471c-0.006,0.758-0.023,1.493-0.063,2.212c-2.308,44.037-17.073,75.622-39.005,100.036
				c-3.145,2.788-6.107,5.757-8.901,8.901c-7.9,7.075-16.66,13.29-26.286,18.651c-11.198-5.333-20.772-12.289-29.673-19.924
				c-1.663-2.013-3.495-3.852-5.514-5.508c-0.373-0.192-0.758-0.374-0.843-0.849C271.195,568.507,269.781,567.099,268.192,565.861z"
				/>
		</g>
	</g>
</g>
</svg>
