<svg id="Ken_Icon" data-name="Ken Icon" xmlns="http://www.w3.org/2000/svg" xmlns:xlink="http://www.w3.org/1999/xlink" viewBox="0 0 800 800"><defs><style>.cls-1{fill:url(#linear-gradient);}.cls-2{opacity:0.07;}.cls-3{fill:#fff;}.cls-4{fill:#01767b;}</style><linearGradient id="linear-gradient" x1="398.05" y1="5.13" x2="402.01" y2="807.13" gradientTransform="matrix(1, 0, 0, -1, 0, 799.54)" gradientUnits="userSpaceOnUse"><stop offset="0" stop-color="#01949a"/><stop offset="0.52" stop-color="#01b0a3"/><stop offset="1" stop-color="#00cdac"/></linearGradient></defs><title>BBpress forum index</title><g id="BBpress_forum_index" data-name="BBpress forum index"><rect id="bg" class="cls-1" width="800" height="800"/><g id="Shadow" class="cls-2"><path d="M321,533.91c20.62-6.45,35.19-28.87,39.71-61.13,1.95-13.9-.62-26.36-6.91-33.52C340.08,423.64,308,432.59,297,455.1c-3.06,6.28-12.13,48.19-12.13,56,0,10.61,5.83,19.8,14.5,22.87h0C305.15,536.06,314.29,536,321,533.91Z" transform="translate(0 -0.46)"/><path d="M456.61,337.65h-8.25a3.22,3.22,0,0,1-3.22-3.22V286.56a1.52,1.52,0,0,0-1-1.43,157.8,157.8,0,0,0-42.41-9.52,149.64,149.64,0,0,0-25.66.56A153.93,153.93,0,0,0,308,301.47c-10.05,6.73-29,24.25-26.69,24.7,1.17.23,26.18-3.23,37.81-5.23,6.12-1.06,6.15-1.31-6.38,56.8-6.33,29.37-11.51,53.6-11.51,53.86s1.94-.87,4.32-2.51a92.68,92.68,0,0,1,23.92-11c17.53-4.51,37.19.61,48.54,12.63,2.71,2.87,5,5.08,5.15,4.92s3.81-16.71,8.21-36.78c5.29-24.15,8.14-39.27,8.42-44.73.41-8.06.36-8.28-2.22-10.32-2-1.55-4-2.07-7.84-2.07-2.87,0-6.07-.46-7.11-1-2.82-1.51-4-5.49-2.7-8.75,1.43-3.46,3.5-4,25.34-6.56,9.49-1.12,20.59-2.7,24.67-3.52,8.93-1.79,10.33-1.41,10.33,2.8,0,1.74-5,26.17-11,54.28s-11,51.57-11,52.11,1.4-.07,3.12-1.38c4.53-3.45,18.5-9.91,25.13-11.61,7.25-1.86,18.41-1.86,26.32,0,25.74,6.08,38.9,30.33,33.1,61-3.14,16.59-9.78,29.37-21.71,41.81-18.21,19-39.08,28.38-63,28.32-11.55,0-18.69-1.57-27.89-6-7.56-3.67-16.93-12.7-20.5-19.75l-1.59-3.15a1.53,1.53,0,0,0-2.43-.4l-4.49,4.38c-13.13,12.82-32.74,22.58-49.28,24.53l-1,.12a1.53,1.53,0,0,0-.63,2.82h0c17.71,11,40.86,18.93,63.63,21.76h0c8.34,1,33.39-.25,43.4-2.23a149.91,149.91,0,0,0,71.66-36c24.59-22.6,40.16-50.71,46.84-84.6,2.55-12.92,3-34.16.85-47.14a162.83,162.83,0,0,0-11.61-39,1.52,1.52,0,0,0-1.41-.91H463a3.61,3.61,0,0,1-3.6-3.6v-19.6A2.73,2.73,0,0,0,456.61,337.65Z" transform="translate(0 -0.46)"/><path d="M428.28,535.38c6.24-.26,9-.9,14.18-3.35,20.2-9.46,35.12-37.95,35.32-67.44.11-14.49-3.15-23.18-10.75-28.69-14.93-10.84-42.21-1.4-52.65,18.22-2.42,4.54-4.09,10.62-7.79,28.35-3,14.16-4.71,25-4.71,29,0,11.13,5.37,19.25,15.09,22.88C419.29,535.21,423.31,535.58,428.28,535.38Z" transform="translate(0 -0.46)"/><path d="M279.47,342.63a25.2,25.2,0,0,0-7-.9c-4.65,0-4.67,0-8,5.52a155.14,155.14,0,0,0-19.06,49.46c-3.07,15.32-3.09,40.73,0,55.93a182.26,182.26,0,0,0,8.87,29.74h0c.64,1.58,1.32,2.44,1.5,1.92,1-2.85,27.2-124.64,27.74-128.86C284.29,349,282.67,343.85,279.47,342.63Z" transform="translate(0 -0.46)"/><path d="M546.23,363.59a164.43,164.43,0,0,1-16.34,153.35c-26.08,38.95-65.24,64.24-111.72,72.14-8.07,1.37-34.25,2.49-39.79,1.7-1.58-.23-6.33-.86-10.54-1.41a183.07,183.07,0,0,1-18.22-3.79A167.2,167.2,0,0,1,229.45,459.81c-9.61-44.68-1-89.54,24.61-127.78,25.8-38.57,66.89-64.59,113.78-72,9.93-1.58,38.09-1.57,47.94,0a178.79,178.79,0,0,1,29.36,7.3v-8a173.49,173.49,0,0,0-129,9c-20.46,10-40.5,25.19-54.77,41.62-57.72,66.43-57.72,163.46,0,229.88,27.95,32.18,69.66,53.7,112.8,58.21,63.71,6.67,126.57-23.15,162.41-77a173.74,173.74,0,0,0,17.88-157.28Z" transform="translate(0 -0.46)"/><g id="icon"><path d="M529.3,272.1H639.07a7.09,7.09,0,0,1,7.07,7.07V350.9a7.1,7.1,0,0,1-7.07,7.08h-5.61a3.81,3.81,0,0,0-3.82,3.81v15.06c0,3.75-5.31,5.32-7.77,2.29l-15.42-18.93a6.08,6.08,0,0,0-4.71-2.23H529.3a7.1,7.1,0,0,1-7.07-7.08V279.17A7.09,7.09,0,0,1,529.3,272.1Z" transform="translate(0 -0.46)"/><path d="M511.78,270.46a7.1,7.1,0,0,1,7.08-7.08h53.4a3.66,3.66,0,0,0,3.66-3.66v-7.09a7.1,7.1,0,0,0-7.08-7.07H459.08a7.1,7.1,0,0,0-7.08,7.07v71.73a7.11,7.11,0,0,0,7.08,7.08h7.63a1.79,1.79,0,0,1,1.79,1.79v17.08c0,3.75,5.31,5.32,7.78,2.3l16.34-20.07a3,3,0,0,1,2.32-1.1h13.42a3.42,3.42,0,0,0,3.42-3.42Z" transform="translate(0 -0.46)"/></g></g><path class="cls-3" d="M328,527.91c20.62-6.45,35.19-28.87,39.71-61.13,1.95-13.9-.62-26.36-6.91-33.52C347.08,417.64,315,426.59,304,449.1c-3.06,6.28-12.13,48.19-12.13,56,0,10.61,5.83,19.8,14.5,22.87h0C312.15,530.06,321.29,530,328,527.91Z" transform="translate(0 -0.46)"/><path class="cls-3" d="M463.61,331.65h-8.25a3.22,3.22,0,0,1-3.22-3.22V280.56a1.52,1.52,0,0,0-1-1.43,157.8,157.8,0,0,0-42.41-9.52,149.64,149.64,0,0,0-25.66.56A153.93,153.93,0,0,0,315,295.47c-10.05,6.73-29,24.25-26.69,24.7,1.17.23,26.18-3.23,37.81-5.23,6.12-1.06,6.15-1.31-6.38,56.8-6.33,29.37-11.51,53.6-11.51,53.86s1.94-.87,4.32-2.51a92.68,92.68,0,0,1,23.92-11c17.53-4.51,37.19.61,48.54,12.63,2.71,2.87,5,5.08,5.15,4.92s3.81-16.71,8.21-36.78c5.29-24.15,8.14-39.27,8.42-44.73.41-8.06.36-8.28-2.22-10.32-2-1.55-4-2.07-7.84-2.07-2.87,0-6.07-.46-7.11-1-2.82-1.51-4-5.49-2.7-8.75,1.43-3.46,3.5-4,25.34-6.56,9.49-1.12,20.59-2.7,24.67-3.52,8.93-1.79,10.33-1.41,10.33,2.8,0,1.74-5,26.17-11,54.28s-11,51.57-11,52.11,1.4-.07,3.12-1.38c4.53-3.45,18.5-9.91,25.13-11.61,7.25-1.86,18.41-1.86,26.32,0,25.74,6.08,38.9,30.33,33.1,61-3.14,16.59-9.78,29.37-21.71,41.81-18.21,19-39.08,28.38-63,28.32-11.55,0-18.69-1.57-27.89-6-7.56-3.67-16.93-12.7-20.5-19.75l-1.59-3.15a1.53,1.53,0,0,0-2.43-.4l-4.49,4.38c-13.13,12.82-32.74,22.58-49.28,24.53l-1,.12a1.53,1.53,0,0,0-.63,2.82h0c17.71,11,40.86,18.93,63.63,21.76h0c8.34,1,33.39-.25,43.4-2.23a149.91,149.91,0,0,0,71.66-36c24.59-22.6,40.16-50.71,46.84-84.6,2.55-12.92,3-34.16.85-47.14a162.83,162.83,0,0,0-11.61-39,1.52,1.52,0,0,0-1.41-.91H470a3.61,3.61,0,0,1-3.6-3.6v-19.6A2.73,2.73,0,0,0,463.61,331.65Z" transform="translate(0 -0.46)"/><path class="cls-3" d="M435.28,529.38c6.24-.26,9-.9,14.18-3.35,20.2-9.46,35.12-37.95,35.32-67.44.11-14.49-3.15-23.18-10.75-28.69-14.93-10.84-42.21-1.4-52.65,18.22-2.42,4.54-4.09,10.62-7.79,28.35-3,14.16-4.71,25-4.71,29,0,11.13,5.37,19.25,15.09,22.88C426.29,529.21,430.31,529.58,435.28,529.38Z" transform="translate(0 -0.46)"/><path class="cls-3" d="M286.47,336.63a25.2,25.2,0,0,0-7-.9c-4.65,0-4.67,0-8,5.52a155.14,155.14,0,0,0-19.06,49.46c-3.07,15.32-3.09,40.73,0,55.93a182.26,182.26,0,0,0,8.87,29.74h0c.64,1.58,1.32,2.44,1.5,1.92,1-2.85,27.2-124.64,27.74-128.86C291.29,343,289.67,337.85,286.47,336.63Z" transform="translate(0 -0.46)"/><path class="cls-3" d="M553.23,357.59a164.43,164.43,0,0,1-16.34,153.35c-26.08,38.95-65.24,64.24-111.72,72.14-8.07,1.37-34.25,2.49-39.79,1.7-1.58-.23-6.33-.86-10.54-1.41a183.07,183.07,0,0,1-18.22-3.79A167.2,167.2,0,0,1,236.45,453.81c-9.61-44.68-1-89.54,24.61-127.78,25.8-38.57,66.89-64.59,113.78-72,9.93-1.58,38.09-1.57,47.94,0a178.79,178.79,0,0,1,29.36,7.3v-8a173.49,173.49,0,0,0-129,9c-20.46,10-40.5,25.19-54.77,41.62-57.72,66.43-57.72,163.46,0,229.88,27.95,32.18,69.66,53.7,112.8,58.21,63.71,6.67,126.57-23.15,162.41-77a173.74,173.74,0,0,0,17.88-157.28Z" transform="translate(0 -0.46)"/><g id="icon-2" data-name="icon"><path class="cls-4" d="M536.3,266.1H646.07a7.09,7.09,0,0,1,7.07,7.07V344.9a7.1,7.1,0,0,1-7.07,7.08h-5.61a3.81,3.81,0,0,0-3.82,3.81v15.06c0,3.75-5.31,5.32-7.77,2.29l-15.42-18.93a6.08,6.08,0,0,0-4.71-2.23H536.3a7.1,7.1,0,0,1-7.07-7.08V273.17A7.09,7.09,0,0,1,536.3,266.1Z" transform="translate(0 -0.46)"/><path class="cls-4" d="M518.78,264.46a7.1,7.1,0,0,1,7.08-7.08h53.4a3.66,3.66,0,0,0,3.66-3.66v-7.09a7.1,7.1,0,0,0-7.08-7.07H466.08a7.1,7.1,0,0,0-7.08,7.07v71.73a7.11,7.11,0,0,0,7.08,7.08h7.63a1.79,1.79,0,0,1,1.79,1.79v17.08c0,3.75,5.31,5.32,7.78,2.3l16.34-20.07a3,3,0,0,1,2.32-1.1h13.42a3.42,3.42,0,0,0,3.42-3.42Z" transform="translate(0 -0.46)"/><circle class="cls-3" cx="562.9" cy="305.35" r="8"/><circle class="cls-3" cx="496.46" cy="279.4" r="8"/><circle class="cls-3" cx="591.73" cy="305.35" r="8"/><circle class="cls-3" cx="619.47" cy="305.35" r="8"/></g></g></svg>