<svg xmlns="http://www.w3.org/2000/svg" xmlns:xlink="http://www.w3.org/1999/xlink" viewBox="0 0 128 128"><defs><style>.cls-1{isolation:isolate;}.cls-2{fill:#1d6d6d;}.cls-3{fill:url(#linear-gradient);}.cls-4{fill:url(#linear-gradient-2);}.cls-5,.cls-6,.cls-7,.cls-8{mix-blend-mode:screen;}.cls-5{fill:url(#linear-gradient-3);}.cls-6{fill:url(#linear-gradient-4);}.cls-7{fill:url(#linear-gradient-5);}.cls-9{fill:url(#linear-gradient-6);}</style><linearGradient id="linear-gradient" x1="21.27" y1="92.7" x2="92.29" y2="92.7" gradientTransform="matrix(0.95, 0.32, -0.32, 0.95, 38.59, -42.63)" gradientUnits="userSpaceOnUse"><stop offset="0" stop-color="#ffb75e"/><stop offset="0.01" stop-color="#feb559"/><stop offset="0.08" stop-color="#f9a93e"/><stop offset="0.16" stop-color="#f49f28"/><stop offset="0.25" stop-color="#f19817"/><stop offset="0.37" stop-color="#ef930c"/><stop offset="0.53" stop-color="#ed9005"/><stop offset="0.98" stop-color="#ed8f03"/></linearGradient><linearGradient id="linear-gradient-2" x1="21.27" y1="92.7" x2="92.29" y2="92.7" gradientTransform="matrix(0.95, 0.32, -0.32, 0.95, 38.59, -42.63)" gradientUnits="userSpaceOnUse"><stop offset="0" stop-color="#ffb75e"/><stop offset="0.21" stop-color="#fcb151"/><stop offset="0.59" stop-color="#f6a22f"/><stop offset="1" stop-color="#ed8f03"/></linearGradient><linearGradient id="linear-gradient-3" x1="60.13" y1="57.22" x2="71.05" y2="57.22" gradientTransform="matrix(0.95, 0.32, -0.32, 0.95, 38.59, -42.63)" gradientUnits="userSpaceOnUse"><stop offset="0" stop-color="#414042"/><stop offset="1" stop-color="#231f20"/></linearGradient><linearGradient id="linear-gradient-4" x1="42.5" y1="128.19" x2="53.75" y2="128.19" xlink:href="#linear-gradient-3"/><linearGradient id="linear-gradient-5" x1="21.27" y1="115.37" x2="64.01" y2="115.37" gradientTransform="matrix(0.95, 0.32, -0.32, 0.95, 38.59, -42.63)" gradientUnits="userSpaceOnUse"><stop offset="0" stop-color="#808285"/><stop offset="1"/></linearGradient><linearGradient id="linear-gradient-6" x1="1991.49" y1="28.87" x2="2034.23" y2="28.87" gradientTransform="matrix(-0.95, -0.32, 0.32, -0.95, 1984.87, 708.31)" xlink:href="#linear-gradient-5"/></defs><g class="cls-1"><g id="Camada_1" data-name="Camada 1"><path class="cls-2" d="M71.24,63.12"/><rect class="cls-2" width="128" height="128" rx="24.52"/><path class="cls-2" d="M84.1,10.17,67.46,4.88"/><polygon class="cls-3" points="100.71 63.11 55.18 96.88 51.43 99.67 31.08 114.76 41.59 96.61 55.18 73.15 25.78 63.38 71.31 29.6 95.4 11.73 71.31 53.34 100.71 63.11"/><path class="cls-4" d="M100.71,63.11,57.34,95.28l-2.16,1.6,5.36-9.26c3.14-5.4,1.35-12.24-3.63-13.9L25.78,63.38,71.31,29.6l-5.37,9.26c-3.13,5.41-1.34,12.25,3.63,13.9Z"/><polygon class="cls-5" points="95.4 11.73 70.19 52.97 71.31 53.34 95.4 11.73"/><polygon class="cls-6" points="31.08 114.76 56.6 73.62 55.18 73.15 31.08 114.76"/><path class="cls-7" d="M61.5,89.55l-4.16,5.73-2.16,1.6,5.36-9.26c3.14-5.4,1.35-12.24-3.63-13.9L25.78,63.38l32.14,9.55C64.05,74.76,65.92,83.45,61.5,89.55Z"/><g class="cls-8"><path class="cls-9" d="M65,36.94l4.15-5.73,2.17-1.61-5.37,9.26c-3.13,5.41-1.34,12.25,3.64,13.9l31.13,10.35L68.57,53.55C62.44,51.73,60.57,43,65,36.94Z"/></g></g></g></svg>