<svg width="20" height="20" viewBox="0 0 20 20" fill="none" xmlns="http://www.w3.org/2000/svg">
<g clip-path="url(#clip0_51_1875)">
<path d="M10 20C15.5228 20 20 15.5228 20 10C20 4.47715 15.5228 0 10 0C4.47715 0 0 4.47715 0 10C0 15.5228 4.47715 20 10 20Z" fill="white"/>
<path d="M9.27008 13.83V8.81L9.21008 8.63L9.05008 8.13L8.13008 5.25C7.83008 5.25 7.58008 5.5 7.58008 5.8V6.15V9.99H5.19008V6.15C5.19008 5.51 5.75008 5.43 5.87008 5.25H2.83008C2.96008 5.43 3.51008 5.51 3.51008 6.15V13.83C3.51008 14.47 2.96008 14.54 2.83008 14.73H5.87008C5.75008 14.54 5.19008 14.47 5.19008 13.83V10.16H7.58008V13.83C7.58008 14.47 7.02008 14.54 6.90008 14.73H9.94008C9.82008 14.54 9.26008 14.47 9.26008 13.83H9.27008Z" fill="black"/>
<path d="M14.35 8.3C16.07 8.3 16.51 9.18 17.17 10.27L16.72 8.13H10L8.18005 2.44C8.18005 2.44 8.12005 2.37 8.08005 2.39C8.04005 2.4 8.01005 2.45 8.03005 2.49L12.85 17.55C12.85 17.55 12.89 17.61 12.93 17.61H14.47C14.35 17.42 13.79 17.35 13.79 16.71V8.3H14.36H14.35ZM11.52 8.3H12.09V14.68L10.14 8.59C10.49 8.41 10.93 8.3 11.52 8.3Z" fill="black"/>
</g>
<defs>
<clipPath id="clip0_51_1875">
<rect width="20" height="20" fill="white"/>
</clipPath>
</defs>
</svg>
