<?xml version="1.0" encoding="utf-8"?>
<!-- Generator: Adobe Illustrator 25.0.0, SVG Export Plug-In . SVG Version: 6.00 Build 0)  -->
<svg version="1.1" id="GRT" xmlns="http://www.w3.org/2000/svg" xmlns:xlink="http://www.w3.org/1999/xlink" x="0px" y="0px"
	 viewBox="0 0 220.4 145.8" style="enable-background:new 0 0 220.4 145.8;" xml:space="preserve">
<style type="text/css">
	.st0{fill:#6747ED;}
	.st1{fill-rule:evenodd;clip-rule:evenodd;fill:#FFFFFF;}
</style>
<circle class="st0" cx="110.2" cy="72.9" r="48"/>
<g id="Symbols">
	<g transform="translate(-88.000000, -52.000000)">
		<path id="Fill-19" class="st1" d="M197.5,131.1c-7.1,0-12.8-5.7-12.8-12.8c0-7.1,5.7-12.8,12.8-12.8s12.8,5.7,12.8,12.8
			S204.6,131.1,197.5,131.1 M197.5,99.1c10.6,0,19.2,8.6,19.2,19.2s-8.6,19.2-19.2,19.2c-10.6,0-19.2-8.6-19.2-19.2
			S186.9,99.1,197.5,99.1z M215.8,138.5c1.3,1.3,1.3,3.3,0,4.5L203,155.8c-1.3,1.3-3.3,1.3-4.5,0c-1.3-1.3-1.3-3.3,0-4.5l12.8-12.8
			C212.5,137.2,214.6,137.2,215.8,138.5z M223.2,102.3c0,1.8-1.4,3.2-3.2,3.2s-3.2-1.4-3.2-3.2s1.4-3.2,3.2-3.2
			C221.7,99.1,223.2,100.5,223.2,102.3z"/>
	</g>
</g>
</svg>
