<svg xmlns="http://www.w3.org/2000/svg" xmlns:xlink="http://www.w3.org/1999/xlink" width="153.855" height="106.361" viewBox="0 0 153.855 106.361">
  <defs>
    <linearGradient id="linear-gradient" x1="0.218" y1="0.102" x2="0.826" y2="0.961" gradientUnits="objectBoundingBox">
      <stop offset="0" stop-color="#fbb017"/>
      <stop offset="1" stop-color="#f6771f"/>
    </linearGradient>
    <linearGradient id="linear-gradient-2" x1="0.218" y1="0.112" x2="1.755" y2="1.425" xlink:href="#linear-gradient"/>
  </defs>
  <g id="Group_611" data-name="Group 611" transform="translate(-116.511 -295.731)">
    <path id="Path_3443" data-name="Path 3443" d="M350.6,360.476l.3.249A.35.35,0,0,0,350.6,360.476Z" transform="translate(-134.668 -37.247)" fill="#f9a01c"/>
    <path id="Path_3444" data-name="Path 3444" d="M308.068,393.812a.745.745,0,0,1-.051-.059l.025.042A.089.089,0,0,0,308.068,393.812Z" transform="translate(-110.17 -56.39)" fill="#f9a01c"/>
    <path id="Path_3445" data-name="Path 3445" d="M251.226,311.425a34.264,34.264,0,1,0,34.265,34.262A34.265,34.265,0,0,0,251.226,311.425Zm4.642,51.652v6.143h-9.329v-6.229c-5.219-1.227-8.446-4.785-8.8-10.163h7.3a6.13,6.13,0,0,0,1.505,3.218,6.241,6.241,0,0,0,5.039,1.988,6.566,6.566,0,0,0,4.29-1.141,3.723,3.723,0,0,0,1.284-3.051,4.036,4.036,0,0,0-1.284-3.219c-1.1-1.1-3.006-1.865-5.926-2.671a35.19,35.19,0,0,1-3.4-1.055c-5.836-2.078-7.914-4.83-7.914-9.109,0-5,3.227-8.217,7.914-9.4v-6.229h9.329v6.229a9.854,9.854,0,0,1,7.914,9.358h-7.292a6.793,6.793,0,0,0-.622-1.947c-.752-1.526-2.209-2.54-5-2.54-2.209,0-3.624.634-4.331,1.82a3.668,3.668,0,0,0-.532,2.033,2.851,2.851,0,0,0,.532,1.865c.793,1.227,2.785,1.906,6.454,2.879,1.063.3,1.992.593,2.875.933,6.945,2.5,8.847,5.8,8.847,10.249C264.714,357.7,262.06,361.764,255.867,363.077Z" transform="translate(-57.787 -9.028)" fill="url(#linear-gradient)"/>
    <path id="Path_3446" data-name="Path 3446" d="M388.79,344.408A37.549,37.549,0,0,1,377.2,366.564c-7.718,7.132-17.068,10.274-27.379,10.9-3.941.236-7.887.067-11.834.085q-2.4.01-4.8.006l-6.672.036h-2.339V376.8A40.877,40.877,0,0,0,346.357,360h2.363c7.464-.882,13.049-4.587,16.457-11.308,3.076-6.056,3.445-12.5,1.988-19.032-2.194-9.845-9.44-16.143-18.893-16.6h-2.212A40.829,40.829,0,0,0,323.529,296.4v-.671h23.142l.006.048a49.411,49.411,0,0,1,17.249,3.076c10.818,4.11,18.6,11.381,22.749,22.272A44.207,44.207,0,0,1,388.79,344.408Z" transform="translate(-119.094 0)" fill="#000001"/>
    <path id="Path_3447" data-name="Path 3447" d="M138.812,329.661c-1.457,6.527-1.094,12.976,1.982,19.032,3.415,6.721,9,10.426,16.464,11.308h1.535a40.88,40.88,0,0,0,22.344,16.85v.737h-1.68l-6.672-.036q-2.393,0-4.8-.006c-3.946-.018-7.893.151-11.834-.085-10.317-.623-19.661-3.765-27.378-10.9a37.558,37.558,0,0,1-11.592-22.157,44.149,44.149,0,0,1,2.121-23.28c4.146-10.891,11.93-18.162,22.743-22.272a49.445,49.445,0,0,1,17.255-3.076l.006-.048h22.115v.677A40.777,40.777,0,0,0,158.9,313.065H157.7C148.252,313.518,141.005,319.816,138.812,329.661Z" transform="translate(0 0)" fill="url(#linear-gradient-2)"/>
    <g id="Group_610" data-name="Group 610" transform="translate(128.885 388.847)">
      <path id="Path_3448" data-name="Path 3448" d="M154.16,523.282l-6.055-7.816h-2.46v12.827h2.744v-8.06l6.247,8.06H156.9V515.466H154.16Z" transform="translate(-145.645 -515.257)" fill="#000001"/>
      <path id="Path_3449" data-name="Path 3449" d="M194.344,523.1h6.112v-2.552h-6.112v-2.532h6.9v-2.552h-9.675v12.827h9.762V525.74h-6.983Z" transform="translate(-172.062 -515.257)" fill="#000001"/>
      <path id="Path_3450" data-name="Path 3450" d="M230.515,518.088h3.866v10.2h2.8v-10.2h3.866v-2.622H230.515Z" transform="translate(-194.469 -515.257)" fill="#000001"/>
      <path id="Path_3451" data-name="Path 3451" d="M283.614,523.747l-2.761-8.363h-2.271l-2.761,8.363-2.68-8.328h-3l4.47,12.914h2.3l2.767-8.093,2.768,8.093h2.318l4.451-12.914h-2.925Z" transform="translate(-217.268 -515.21)" fill="#000001"/>
      <path id="Path_3452" data-name="Path 3452" d="M335.788,514.974a6.6,6.6,0,0,0-6.709,6.622v.035a6.486,6.486,0,0,0,6.674,6.588,6.6,6.6,0,0,0,6.71-6.657A6.486,6.486,0,0,0,335.788,514.974Zm0,10.622a4.014,4.014,0,1,1,3.791-4v.035A3.8,3.8,0,0,1,335.788,525.6Z" transform="translate(-251.171 -514.974)" fill="#000001"/>
      <path id="Path_3453" data-name="Path 3453" d="M389.328,519.633a3.993,3.993,0,0,0-1.106-2.857,5.216,5.216,0,0,0-3.741-1.31H378.73v12.826h2.779v-4.249h2.2l3,4.249h3.326l-3.4-4.767A3.951,3.951,0,0,0,389.328,519.633Zm-7.819-1.58h2.8c.824,0,2.206.221,2.206,1.736,0,1.06-.838,1.719-2.189,1.719h-2.816Z" transform="translate(-279.735 -515.257)" fill="#000001"/>
      <path id="Path_3454" data-name="Path 3454" d="M428.143,521.051l5.418-5.585h-3.537l-5.343,5.648v-5.648H421.9v12.827h2.779v-3.724l1.55-1.592,4.034,5.316h3.415Z" transform="translate(-304.571 -515.257)" fill="#000001"/>
    </g>
  </g>
</svg>
