<svg width="19" height="18" viewBox="0 0 19 18" fill="none" xmlns="http://www.w3.org/2000/svg">
<path d="M2.67041 18C2.12041 18 1.64941 17.8043 1.25741 17.413C0.866077 17.021 0.67041 16.55 0.67041 16V2C0.67041 1.45 0.866077 0.979 1.25741 0.587C1.64941 0.195667 2.12041 0 2.67041 0H16.6704C17.2204 0 17.6914 0.195667 18.0834 0.587C18.4747 0.979 18.6704 1.45 18.6704 2V16C18.6704 16.55 18.4747 17.021 18.0834 17.413C17.6914 17.8043 17.2204 18 16.6704 18H2.67041ZM2.67041 16H8.67041V2H2.67041V16ZM10.6704 16H16.6704V9H10.6704V16ZM10.6704 7H16.6704V2H10.6704V7Z" fill="#616161"/>
</svg>
