<svg width="10" height="10" viewBox="0 0 10 10" fill="none" xmlns="http://www.w3.org/2000/svg">
<path d="M8.66661 5.66665H5.33327V8.99998C5.33327 9.36665 5.03327 9.66665 4.66661 9.66665C4.29994 9.66665 3.99994 9.36665 3.99994 8.99998V5.66665H0.666606C0.299939 5.66665 -6.10352e-05 5.36665 -6.10352e-05 4.99998C-6.10352e-05 4.63331 0.299939 4.33331 0.666606 4.33331H3.99994V0.99998C3.99994 0.633313 4.29994 0.333313 4.66661 0.333313C5.03327 0.333313 5.33327 0.633313 5.33327 0.99998V4.33331H8.66661C9.03327 4.33331 9.33327 4.63331 9.33327 4.99998C9.33327 5.36665 9.03327 5.66665 8.66661 5.66665Z" fill="#757575"/>
</svg>
