<svg width="456" height="85" viewBox="0 0 456 85" fill="none" xmlns="http://www.w3.org/2000/svg">
<mask id="mask0_130_2668" style="mask-type:alpha" maskUnits="userSpaceOnUse" x="0" y="0" width="456" height="85">
<path fill-rule="evenodd" clip-rule="evenodd" d="M20.0831 28.1364C17.136 26.4049 14.9294 24.2843 13.6466 22.6341C13.5392 22.4958 13.4381 22.3609 13.3437 22.2298C13.7343 21.9323 14.121 21.6494 14.5039 21.3805C17.2252 19.4702 19.7567 18.2705 22.118 17.618C27.1591 16.225 31.4248 17.3265 35.1066 19.3333C36.3082 19.9884 37.4476 20.7397 38.5315 21.5324C39.7114 22.3952 40.8255 23.3068 41.8824 24.1961C41.9663 24.2666 42.0497 24.3369 42.1327 24.4072C42.3989 24.632 42.6615 24.8551 42.9206 25.0752C43.0618 25.1953 43.2021 25.3145 43.3414 25.4326C43.3747 25.3105 43.4082 25.1877 43.4424 25.0641L43.4705 24.9628C43.782 23.8429 44.138 22.6629 44.5761 21.4756C45.2519 19.6446 46.1231 17.7963 47.328 16.1241C49.7434 12.7718 53.4998 10.1276 59.7101 9.75128C62.3238 9.59288 65.3722 9.83624 68.9382 10.5976C69.1829 10.6499 69.4302 10.7046 69.6798 10.7617L69.6375 10.8716C68.7715 13.1197 67.8652 15.4721 66.5499 17.7262C66.146 18.4183 65.7037 19.101 65.2121 19.7686C64.8305 20.2869 64.4191 20.7961 63.973 21.2937C62.3805 23.0694 60.346 24.694 57.6422 26.0426C58.3975 26.0454 59.1465 26.0893 59.8855 26.1733C62.7257 26.4957 65.4198 27.4085 67.7715 28.8351L68.6818 29.6C68.771 29.6738 68.8603 29.7482 68.9496 29.8232L68.9498 29.8233C73.3429 33.5151 75.3883 38.3282 75.3883 43.9181C75.3886 47.3887 74.6004 51.1589 73.096 55.1462C71.1657 60.262 68.2019 65.1229 64.939 68.987C62.5026 71.8722 60.2081 73.8413 58.4116 75.0056C39.458 72.4495 29.5079 65.7971 24.8877 59.6519C22.2143 56.0962 21.0262 52.3537 20.9569 48.8163C20.9543 48.6875 20.9533 48.5592 20.9538 48.431C20.9619 45.841 21.5679 43.3695 22.6259 41.1728C22.6636 41.0946 22.7015 41.0166 22.7397 40.9387L23.5989 39.1548C25.5664 35.8952 28.4484 33.1543 31.6409 31.3086C27.5602 31.3469 23.9718 30.2218 21.0321 28.666C20.7079 28.4943 20.3914 28.3176 20.0831 28.1364ZM14.4102 36.0254C14.3832 36.0085 14.3563 35.9915 14.3294 35.9745C10.2572 33.4008 7.26693 30.3192 5.55018 27.9341L0 20.2231L7.5398 14.4805C16.6317 7.5557 25.5415 5.914 33.7926 8.32691C35.7901 8.9111 37.6604 9.71968 39.3839 10.6372C40.5298 9.01156 41.9101 7.43148 43.5823 6.00413C50.4608 0.132747 59.9694 -1.42045 71.8125 1.29173L82.6989 3.7848L78.6563 14.2783L78.614 14.3882L78.486 14.7211L78.4856 14.7222C77.68 16.8167 76.6777 19.4232 75.1405 22.1503C75.1107 22.2032 75.0807 22.2561 75.0504 22.3091C75.0719 22.327 75.0932 22.345 75.1148 22.363L75.1155 22.3635L75.1148 22.3649C81.9762 28.1308 84.8061 35.4374 84.9903 43.0269C85 43.4264 85.0024 43.8265 84.9977 44.2274C84.7871 61.8634 70.7808 80.6605 60.1881 85C24.7911 81.1619 11.357 63.9745 11.3242 48.5466L11.3241 48.459C11.3292 44.4009 12.2609 40.4667 13.9636 36.9318L13.9631 36.9313L13.9636 36.9299C14.11 36.6261 14.2588 36.3246 14.4102 36.0254Z" fill="#FF866C"/>
<path d="M55.1692 58.6552C55.3475 52.0465 53.8302 42.1059 47.3909 36.1213C46.083 34.9056 45.5862 33.0126 46.3865 31.5378C47.2229 29.9962 49.0762 29.4828 50.3411 30.4939C57.1502 35.937 61.9603 47.0886 61.0516 59.6271C60.9374 61.2026 59.4795 62.3164 57.8776 62.0893C56.2753 61.8622 55.1235 60.3497 55.1692 58.6552Z" fill="#FF866C" stroke="#FF866C"/>
<path d="M101 70.2728V17.9092H122.631C126.551 17.9092 129.935 18.6762 132.781 20.2103C135.645 21.7273 137.852 23.8495 139.403 26.5768C140.955 29.287 141.73 32.4404 141.73 36.037C141.73 39.6506 140.938 42.8126 139.352 45.5228C137.784 48.216 135.543 50.304 132.628 51.787C129.713 53.27 126.253 54.0114 122.247 54.0114H108.901V44.0398H119.895C121.804 44.0398 123.398 43.7075 124.676 43.0427C125.972 42.3779 126.952 41.4489 127.617 40.2558C128.281 39.0455 128.614 37.6393 128.614 36.037C128.614 34.4177 128.281 33.02 127.617 31.8438C126.952 30.6506 125.972 29.7302 124.676 29.0825C123.381 28.4347 121.787 28.1109 119.895 28.1109H113.656V70.2728H101ZM165.553 71.0143C161.445 71.0143 157.9 70.2046 154.917 68.5853C151.951 66.9489 149.667 64.6222 148.065 61.6052C146.479 58.5711 145.687 54.966 145.687 50.7898C145.687 46.733 146.488 43.1876 148.09 40.1535C149.693 37.1023 151.951 34.733 154.866 33.0455C157.781 31.341 161.215 30.4887 165.17 30.4887C167.965 30.4887 170.522 30.9234 172.84 31.7927C175.158 32.662 177.161 33.9489 178.849 35.6535C180.536 37.358 181.849 39.4631 182.786 41.9688C183.724 44.4575 184.193 47.3126 184.193 50.5342V53.6535H150.059V46.3921H172.559C172.542 45.0626 172.227 43.8779 171.613 42.8381C170.999 41.7984 170.156 40.9887 169.082 40.4092C168.025 39.8126 166.806 39.5143 165.425 39.5143C164.028 39.5143 162.775 39.8296 161.667 40.4603C160.559 41.0739 159.681 41.9177 159.033 42.9916C158.386 44.0484 158.045 45.2501 158.011 46.5967V53.9859C158.011 55.5881 158.326 56.9944 158.957 58.2046C159.587 59.3978 160.482 60.3268 161.641 60.9916C162.8 61.6563 164.181 61.9887 165.783 61.9887C166.891 61.9887 167.897 61.8353 168.8 61.5285C169.704 61.2217 170.479 60.77 171.127 60.1734C171.775 59.5768 172.261 58.8438 172.585 57.9745L184.065 58.3069C183.587 60.8808 182.539 63.1222 180.92 65.0313C179.318 66.9234 177.212 68.3978 174.604 69.4546C171.997 70.4944 168.979 71.0143 165.553 71.0143ZM204.922 70.8353C202.024 70.8353 199.391 70.0853 197.021 68.5853C194.652 67.0853 192.76 64.8353 191.345 61.8353C189.93 58.8353 189.223 55.1109 189.223 50.662C189.223 46.0427 189.956 42.2415 191.422 39.2586C192.888 36.2756 194.805 34.0683 197.175 32.6364C199.561 31.2046 202.126 30.4887 204.871 30.4887C206.933 30.4887 208.698 30.8467 210.163 31.5626C211.629 32.2614 212.84 33.1648 213.794 34.2728C214.749 35.3808 215.473 36.5313 215.967 37.7245H216.223V31.0001H228.726V70.2728H216.351V63.9063H215.967C215.439 65.1166 214.689 66.2501 213.717 67.3069C212.746 68.3637 211.527 69.216 210.061 69.8637C208.612 70.5114 206.899 70.8353 204.922 70.8353ZM209.269 61.0938C210.786 61.0938 212.081 60.6677 213.155 59.8154C214.229 58.9461 215.055 57.7273 215.635 56.1592C216.215 54.591 216.504 52.7501 216.504 50.6364C216.504 48.4887 216.215 46.6393 215.635 45.0881C215.073 43.537 214.246 42.3438 213.155 41.5086C212.081 40.6734 210.786 40.2558 209.269 40.2558C207.717 40.2558 206.405 40.6819 205.331 41.5342C204.257 42.3864 203.439 43.5881 202.876 45.1393C202.331 46.6904 202.058 48.5228 202.058 50.6364C202.058 52.7501 202.34 54.591 202.902 56.1592C203.465 57.7273 204.274 58.9461 205.331 59.8154C206.405 60.6677 207.717 61.0938 209.269 61.0938ZM254.965 71.0143C250.823 71.0143 247.269 70.162 244.303 68.4575C241.354 66.7529 239.087 64.3836 237.502 61.3495C235.917 58.2984 235.124 54.77 235.124 50.7643C235.124 46.7415 235.917 43.2131 237.502 40.179C239.104 37.1279 241.38 34.7501 244.329 33.0455C247.295 31.341 250.832 30.4887 254.94 30.4887C258.57 30.4887 261.732 31.145 264.425 32.4575C267.136 33.77 269.249 35.6279 270.766 38.0313C272.3 40.4177 273.11 43.2217 273.195 46.4433H261.511C261.272 44.4319 260.59 42.8552 259.465 41.7131C258.357 40.5711 256.908 40.0001 255.119 40.0001C253.67 40.0001 252.4 40.4092 251.309 41.2273C250.218 42.0285 249.366 43.2217 248.752 44.8069C248.156 46.3751 247.857 48.3183 247.857 50.6364C247.857 52.9546 248.156 54.9148 248.752 56.5171C249.366 58.1023 250.218 59.304 251.309 60.1222C252.4 60.9234 253.67 61.3239 255.119 61.3239C256.278 61.3239 257.3 61.0768 258.187 60.5825C259.09 60.0881 259.832 59.3637 260.411 58.4092C260.991 57.4376 261.357 56.2614 261.511 54.8808H273.195C273.076 58.1194 272.266 60.9489 270.766 63.3694C269.283 65.7898 267.195 67.6734 264.502 69.02C261.826 70.3495 258.647 71.0143 254.965 71.0143ZM292.097 47.8751V70.2728H279.594V17.9092H291.688V38.2103H292.122C293.009 35.7898 294.457 33.8978 296.469 32.5342C298.497 31.1705 300.977 30.4887 303.909 30.4887C306.671 30.4887 309.074 31.1023 311.119 32.3296C313.165 33.5398 314.75 35.2529 315.875 37.4688C317.017 39.6847 317.58 42.2756 317.563 45.2416V70.2728H305.06V47.6961C305.077 45.5143 304.531 43.8097 303.423 42.5825C302.315 41.3552 300.756 40.7416 298.744 40.7416C297.432 40.7416 296.273 41.0313 295.267 41.6109C294.278 42.1734 293.503 42.983 292.94 44.0398C292.395 45.0967 292.114 46.3751 292.097 47.8751ZM325.367 70.2728V17.9092H346.998C350.918 17.9092 354.302 18.6762 357.149 20.2103C360.012 21.7273 362.22 23.8495 363.771 26.5768C365.322 29.287 366.097 32.4404 366.097 36.037C366.097 39.6506 365.305 42.8126 363.72 45.5228C362.151 48.216 359.91 50.304 356.995 51.787C354.08 53.27 350.62 54.0114 346.614 54.0114H333.268V44.0398H344.262C346.171 44.0398 347.765 43.7075 349.043 43.0427C350.339 42.3779 351.319 41.4489 351.984 40.2558C352.649 39.0455 352.981 37.6393 352.981 36.037C352.981 34.4177 352.649 33.02 351.984 31.8438C351.319 30.6506 350.339 29.7302 349.043 29.0825C347.748 28.4347 346.154 28.1109 344.262 28.1109H338.024V70.2728H325.367ZM385.906 70.8353C383.009 70.8353 380.375 70.0853 378.006 68.5853C375.636 67.0853 373.744 64.8353 372.33 61.8353C370.915 58.8353 370.207 55.1109 370.207 50.662C370.207 46.0427 370.94 42.2415 372.406 39.2586C373.872 36.2756 375.79 34.0683 378.159 32.6364C380.546 31.2046 383.111 30.4887 385.855 30.4887C387.918 30.4887 389.682 30.8467 391.148 31.5626C392.614 32.2614 393.824 33.1648 394.778 34.2728C395.733 35.3808 396.457 36.5313 396.952 37.7245H397.207V31.0001H409.71V70.2728H397.335V63.9063H396.952C396.423 65.1166 395.673 66.2501 394.702 67.3069C393.73 68.3637 392.511 69.216 391.046 69.8637C389.597 70.5114 387.884 70.8353 385.906 70.8353ZM390.253 61.0938C391.77 61.0938 393.065 60.6677 394.139 59.8154C395.213 58.9461 396.04 57.7273 396.619 56.1592C397.199 54.591 397.489 52.7501 397.489 50.6364C397.489 48.4887 397.199 46.6393 396.619 45.0881C396.057 43.537 395.23 42.3438 394.139 41.5086C393.065 40.6734 391.77 40.2558 390.253 40.2558C388.702 40.2558 387.389 40.6819 386.315 41.5342C385.242 42.3864 384.423 43.5881 383.861 45.1393C383.315 46.6904 383.043 48.5228 383.043 50.6364C383.043 52.7501 383.324 54.591 383.886 56.1592C384.449 57.7273 385.259 58.9461 386.315 59.8154C387.389 60.6677 388.702 61.0938 390.253 61.0938ZM425.262 85.0001C423.762 85.0001 422.347 84.8808 421.018 84.6421C419.688 84.4205 418.546 84.1222 417.592 83.7472L420.353 74.6705C421.58 75.0796 422.688 75.3183 423.677 75.3864C424.683 75.4546 425.543 75.2927 426.259 74.9006C426.992 74.5256 427.555 73.8523 427.947 72.8808L428.433 71.7046L414.472 31.0001H427.563L434.799 59.0228H435.208L442.546 31.0001H455.714L440.91 74.0313C440.194 76.1791 439.18 78.0711 437.867 79.7075C436.572 81.3609 434.893 82.6563 432.83 83.5938C430.785 84.5313 428.262 85.0001 425.262 85.0001Z" fill="#FF866C"/>
</mask>
<g mask="url(#mask0_130_2668)">
<rect width="455.71" height="85" fill="url(#paint0_linear_130_2668)"/>
</g>
<defs>
<linearGradient id="paint0_linear_130_2668" x1="-208.161" y1="43.7245" x2="-178.401" y2="203.276" gradientUnits="userSpaceOnUse">
<stop stop-color="#B65FC4"/>
<stop offset="0.694101" stop-color="#FF876C"/>
</linearGradient>
</defs>
</svg>