<svg width="456" height="85" viewBox="0 0 456 85" fill="none" xmlns="http://www.w3.org/2000/svg">
<path fill-rule="evenodd" clip-rule="evenodd" d="M20.0831 28.1364C17.136 26.4049 14.9294 24.2843 13.6466 22.6341C13.5392 22.4958 13.4381 22.3609 13.3437 22.2298C13.7343 21.9323 14.121 21.6494 14.5039 21.3805C17.2252 19.4702 19.7567 18.2705 22.118 17.618C27.1591 16.225 31.4248 17.3265 35.1066 19.3333C36.3082 19.9884 37.4476 20.7397 38.5315 21.5324C39.7114 22.3952 40.8255 23.3068 41.8824 24.1961C41.9663 24.2666 42.0497 24.3369 42.1327 24.4072C42.3989 24.632 42.6615 24.8551 42.9206 25.0752C43.0618 25.1953 43.2021 25.3145 43.3414 25.4326C43.3747 25.3105 43.4082 25.1877 43.4424 25.0641L43.4705 24.9628C43.782 23.8429 44.138 22.6629 44.5761 21.4756C45.2519 19.6446 46.1231 17.7963 47.328 16.1241C49.7434 12.7718 53.4998 10.1276 59.7101 9.75128C62.3238 9.59288 65.3722 9.83624 68.9382 10.5976C69.1829 10.6499 69.4302 10.7046 69.6798 10.7617L69.6375 10.8716C68.7715 13.1197 67.8652 15.4721 66.5499 17.7262C66.146 18.4183 65.7038 19.101 65.2121 19.7686C64.8305 20.2869 64.4191 20.7962 63.973 21.2937C62.3805 23.0694 60.346 24.694 57.6422 26.0426C58.3975 26.0454 59.1465 26.0893 59.8855 26.1733C62.7257 26.4957 65.4198 27.4085 67.7715 28.8351L68.6818 29.6C68.771 29.6738 68.8603 29.7482 68.9496 29.8232L68.9498 29.8233C73.3429 33.5151 75.3883 38.3282 75.3883 43.9181C75.3886 47.3887 74.6004 51.1589 73.096 55.1462C71.1657 60.262 68.2019 65.1229 64.9389 68.987C62.5026 71.8722 60.2081 73.8413 58.4116 75.0056C39.458 72.4495 29.5079 65.7971 24.8877 59.6519C22.2143 56.0962 21.0262 52.3537 20.9569 48.8163C20.9543 48.6875 20.9533 48.5592 20.9538 48.431C20.962 45.841 21.5679 43.3695 22.6259 41.1728C22.6636 41.0946 22.7015 41.0166 22.7397 40.9387L23.5989 39.1548C25.5664 35.8952 28.4484 33.1543 31.6409 31.3086C27.5602 31.3469 23.9718 30.2218 21.0321 28.666C20.7079 28.4943 20.3914 28.3176 20.0831 28.1364ZM14.4102 36.0254C14.3832 36.0085 14.3563 35.9915 14.3294 35.9745C10.2572 33.4008 7.26693 30.3192 5.55018 27.9341L0 20.2231L7.5398 14.4805C16.6317 7.5557 25.5415 5.914 33.7926 8.32691C35.7901 8.9111 37.6604 9.71968 39.3839 10.6372C40.5298 9.01157 41.9101 7.43148 43.5823 6.00413C50.4608 0.132747 59.9694 -1.42045 71.8125 1.29173L82.6989 3.7848L78.6563 14.2783L78.614 14.3882L78.486 14.7211L78.4856 14.7222C77.68 16.8167 76.6777 19.4232 75.1405 22.1503C75.1107 22.2032 75.0807 22.2561 75.0504 22.3091C75.0719 22.327 75.0932 22.345 75.1148 22.363L75.1155 22.3635L75.1148 22.3649C81.9762 28.1308 84.8061 35.4374 84.9903 43.0269C85 43.4264 85.0024 43.8265 84.9977 44.2274C84.7871 61.8634 70.7808 80.6605 60.1881 85C24.7911 81.1619 11.357 63.9745 11.3242 48.5466L11.3241 48.459C11.3292 44.4009 12.2609 40.4667 13.9636 36.9318L13.9631 36.9313L13.9636 36.9299C14.11 36.6261 14.2588 36.3246 14.4102 36.0254Z" fill="#21105D"/>
<path d="M55.1692 58.6552C55.3475 52.0465 53.8302 42.1059 47.3909 36.1213C46.083 34.9056 45.5862 33.0126 46.3865 31.5378C47.2229 29.9962 49.0762 29.4828 50.3411 30.4939C57.1502 35.937 61.9603 47.0886 61.0516 59.6271C60.9374 61.2026 59.4795 62.3164 57.8776 62.0893C56.2753 61.8622 55.1235 60.3497 55.1692 58.6552Z" fill="#21105D" stroke="#21105D"/>
<path d="M101 70.2727V17.9091H122.631C126.551 17.9091 129.935 18.6761 132.781 20.2102C135.645 21.7272 137.852 23.8494 139.403 26.5767C140.955 29.2869 141.73 32.4403 141.73 36.0369C141.73 39.6505 140.938 42.8125 139.352 45.5227C137.784 48.2159 135.543 50.3039 132.628 51.7869C129.713 53.2699 126.253 54.0113 122.247 54.0113H108.901V44.0397H119.895C121.804 44.0397 123.398 43.7074 124.676 43.0426C125.972 42.3778 126.952 41.4488 127.617 40.2557C128.281 39.0454 128.614 37.6392 128.614 36.0369C128.614 34.4176 128.281 33.0199 127.617 31.8437C126.952 30.6505 125.972 29.7301 124.676 29.0824C123.381 28.4346 121.787 28.1108 119.895 28.1108H113.656V70.2727H101ZM165.553 71.0142C161.445 71.0142 157.9 70.2045 154.917 68.5852C151.951 66.9488 149.667 64.6221 148.065 61.6051C146.479 58.571 145.687 54.9659 145.687 50.7897C145.687 46.7329 146.488 43.1875 148.09 40.1534C149.693 37.1022 151.951 34.7329 154.866 33.0454C157.781 31.3409 161.215 30.4886 165.17 30.4886C167.965 30.4886 170.522 30.9233 172.84 31.7926C175.158 32.6619 177.161 33.9488 178.849 35.6534C180.536 37.3579 181.849 39.463 182.786 41.9687C183.724 44.4574 184.193 47.3125 184.193 50.5341V53.6534H150.059V46.392H172.559C172.542 45.0625 172.227 43.8778 171.613 42.838C170.999 41.7983 170.156 40.9886 169.082 40.4091C168.025 39.8125 166.806 39.5142 165.425 39.5142C164.028 39.5142 162.775 39.8295 161.667 40.4602C160.559 41.0738 159.681 41.9176 159.033 42.9915C158.386 44.0483 158.045 45.25 158.011 46.5966V53.9858C158.011 55.588 158.326 56.9943 158.957 58.2045C159.587 59.3977 160.482 60.3267 161.641 60.9915C162.8 61.6562 164.181 61.9886 165.783 61.9886C166.891 61.9886 167.897 61.8352 168.8 61.5284C169.704 61.2216 170.479 60.7699 171.127 60.1733C171.775 59.5767 172.261 58.8437 172.585 57.9744L184.065 58.3068C183.587 60.8807 182.539 63.1221 180.92 65.0312C179.318 66.9233 177.212 68.3977 174.604 69.4545C171.997 70.4943 168.979 71.0142 165.553 71.0142ZM204.922 70.8352C202.024 70.8352 199.391 70.0852 197.021 68.5852C194.652 67.0852 192.76 64.8352 191.345 61.8352C189.93 58.8352 189.223 55.1108 189.223 50.6619C189.223 46.0426 189.956 42.2414 191.422 39.2585C192.888 36.2755 194.805 34.0682 197.175 32.6363C199.561 31.2045 202.126 30.4886 204.871 30.4886C206.933 30.4886 208.698 30.8466 210.163 31.5625C211.629 32.2613 212.84 33.1647 213.794 34.2727C214.749 35.3807 215.473 36.5312 215.967 37.7244H216.223V31H228.726V70.2727H216.351V63.9062H215.967C215.439 65.1165 214.689 66.25 213.717 67.3068C212.746 68.3636 211.527 69.2159 210.061 69.8636C208.612 70.5113 206.899 70.8352 204.922 70.8352ZM209.269 61.0937C210.786 61.0937 212.081 60.6676 213.155 59.8153C214.229 58.946 215.055 57.7272 215.635 56.1591C216.215 54.5909 216.504 52.75 216.504 50.6363C216.504 48.4886 216.215 46.6392 215.635 45.088C215.073 43.5369 214.246 42.3437 213.155 41.5085C212.081 40.6733 210.786 40.2557 209.269 40.2557C207.717 40.2557 206.405 40.6818 205.331 41.5341C204.257 42.3863 203.439 43.588 202.876 45.1392C202.331 46.6903 202.058 48.5227 202.058 50.6363C202.058 52.75 202.34 54.5909 202.902 56.1591C203.465 57.7272 204.274 58.946 205.331 59.8153C206.405 60.6676 207.717 61.0937 209.269 61.0937ZM254.965 71.0142C250.823 71.0142 247.269 70.1619 244.303 68.4574C241.354 66.7528 239.087 64.3835 237.502 61.3494C235.917 58.2983 235.124 54.7699 235.124 50.7642C235.124 46.7414 235.917 43.213 237.502 40.1789C239.104 37.1278 241.38 34.75 244.329 33.0454C247.295 31.3409 250.832 30.4886 254.94 30.4886C258.57 30.4886 261.732 31.1449 264.425 32.4574C267.136 33.7699 269.249 35.6278 270.766 38.0312C272.3 40.4176 273.11 43.2216 273.195 46.4432H261.511C261.272 44.4318 260.59 42.8551 259.465 41.713C258.357 40.571 256.908 40 255.119 40C253.67 40 252.4 40.4091 251.309 41.2272C250.218 42.0284 249.366 43.2216 248.752 44.8068C248.156 46.375 247.857 48.3182 247.857 50.6363C247.857 52.9545 248.156 54.9147 248.752 56.517C249.366 58.1022 250.218 59.3039 251.309 60.1221C252.4 60.9233 253.67 61.3238 255.119 61.3238C256.278 61.3238 257.3 61.0767 258.187 60.5824C259.09 60.088 259.832 59.3636 260.411 58.4091C260.991 57.4375 261.357 56.2613 261.511 54.8807H273.195C273.076 58.1193 272.266 60.9488 270.766 63.3693C269.283 65.7897 267.195 67.6733 264.502 69.0199C261.826 70.3494 258.647 71.0142 254.965 71.0142ZM292.097 47.875V70.2727H279.594V17.9091H291.688V38.2102H292.122C293.009 35.7897 294.457 33.8977 296.469 32.5341C298.497 31.1704 300.977 30.4886 303.909 30.4886C306.671 30.4886 309.074 31.1022 311.119 32.3295C313.165 33.5397 314.75 35.2528 315.875 37.4687C317.017 39.6846 317.58 42.2755 317.563 45.2415V70.2727H305.06V47.696C305.077 45.5142 304.531 43.8096 303.423 42.5824C302.315 41.3551 300.756 40.7415 298.744 40.7415C297.432 40.7415 296.273 41.0312 295.267 41.6108C294.278 42.1733 293.503 42.9829 292.94 44.0397C292.395 45.0966 292.114 46.375 292.097 47.875ZM325.367 70.2727V17.9091H346.998C350.918 17.9091 354.302 18.6761 357.149 20.2102C360.012 21.7272 362.22 23.8494 363.771 26.5767C365.322 29.2869 366.097 32.4403 366.097 36.0369C366.097 39.6505 365.305 42.8125 363.72 45.5227C362.151 48.2159 359.91 50.3039 356.995 51.7869C354.08 53.2699 350.62 54.0113 346.614 54.0113H333.268V44.0397H344.262C346.171 44.0397 347.765 43.7074 349.043 43.0426C350.339 42.3778 351.319 41.4488 351.984 40.2557C352.649 39.0454 352.981 37.6392 352.981 36.0369C352.981 34.4176 352.649 33.0199 351.984 31.8437C351.319 30.6505 350.339 29.7301 349.043 29.0824C347.748 28.4346 346.154 28.1108 344.262 28.1108H338.024V70.2727H325.367ZM385.906 70.8352C383.009 70.8352 380.375 70.0852 378.006 68.5852C375.636 67.0852 373.744 64.8352 372.33 61.8352C370.915 58.8352 370.207 55.1108 370.207 50.6619C370.207 46.0426 370.94 42.2414 372.406 39.2585C373.872 36.2755 375.79 34.0682 378.159 32.6363C380.546 31.2045 383.111 30.4886 385.855 30.4886C387.918 30.4886 389.682 30.8466 391.148 31.5625C392.614 32.2613 393.824 33.1647 394.778 34.2727C395.733 35.3807 396.457 36.5312 396.952 37.7244H397.207V31H409.71V70.2727H397.335V63.9062H396.952C396.423 65.1165 395.673 66.25 394.702 67.3068C393.73 68.3636 392.511 69.2159 391.046 69.8636C389.597 70.5113 387.884 70.8352 385.906 70.8352ZM390.253 61.0937C391.77 61.0937 393.065 60.6676 394.139 59.8153C395.213 58.946 396.04 57.7272 396.619 56.1591C397.199 54.5909 397.489 52.75 397.489 50.6363C397.489 48.4886 397.199 46.6392 396.619 45.088C396.057 43.5369 395.23 42.3437 394.139 41.5085C393.065 40.6733 391.77 40.2557 390.253 40.2557C388.702 40.2557 387.389 40.6818 386.315 41.5341C385.242 42.3863 384.423 43.588 383.861 45.1392C383.315 46.6903 383.043 48.5227 383.043 50.6363C383.043 52.75 383.324 54.5909 383.886 56.1591C384.449 57.7272 385.259 58.946 386.315 59.8153C387.389 60.6676 388.702 61.0937 390.253 61.0937ZM425.262 85C423.762 85 422.347 84.8807 421.018 84.642C419.688 84.4204 418.546 84.1221 417.592 83.7471L420.353 74.6704C421.58 75.0795 422.688 75.3182 423.677 75.3863C424.683 75.4545 425.543 75.2926 426.259 74.9005C426.992 74.5255 427.555 73.8522 427.947 72.8807L428.433 71.7045L414.472 31H427.563L434.799 59.0227H435.208L442.546 31H455.714L440.91 74.0312C440.194 76.179 439.18 78.071 437.867 79.7074C436.572 81.3608 434.893 82.6562 432.83 83.5937C430.785 84.5312 428.262 85 425.262 85Z" fill="#21105D"/>
</svg>
