<svg width="85" height="85" viewBox="0 0 85 85" fill="none" xmlns="http://www.w3.org/2000/svg">
<path fill-rule="evenodd" clip-rule="evenodd" d="M20.0831 28.1364C17.136 26.4049 14.9294 24.2843 13.6466 22.6341C13.5392 22.4958 13.4381 22.3609 13.3437 22.2298C13.7343 21.9323 14.121 21.6494 14.5039 21.3805C17.2252 19.4702 19.7567 18.2705 22.118 17.618C27.1591 16.225 31.4248 17.3265 35.1066 19.3333C36.3082 19.9884 37.4476 20.7397 38.5315 21.5324C39.7114 22.3952 40.8255 23.3068 41.8824 24.1961C41.9663 24.2666 42.0497 24.3369 42.1327 24.4072C42.3989 24.632 42.6615 24.8551 42.9206 25.0752C43.0618 25.1953 43.2021 25.3145 43.3414 25.4326C43.3747 25.3105 43.4082 25.1877 43.4424 25.0641L43.4705 24.9628C43.782 23.8429 44.138 22.6629 44.5761 21.4756C45.2519 19.6446 46.1231 17.7963 47.328 16.1241C49.7434 12.7718 53.4998 10.1276 59.7101 9.75128C62.3238 9.59288 65.3722 9.83624 68.9382 10.5976C69.1829 10.6499 69.4302 10.7046 69.6798 10.7617L69.6375 10.8716C68.7715 13.1197 67.8652 15.4721 66.5499 17.7262C66.146 18.4183 65.7038 19.101 65.2121 19.7686C64.8305 20.2869 64.4191 20.7962 63.973 21.2937C62.3805 23.0694 60.346 24.694 57.6422 26.0426C58.3975 26.0454 59.1465 26.0893 59.8855 26.1733C62.7257 26.4957 65.4198 27.4085 67.7715 28.8351L68.6818 29.6C68.771 29.6738 68.8603 29.7482 68.9496 29.8232L68.9498 29.8233C73.3429 33.5151 75.3883 38.3282 75.3883 43.9181C75.3886 47.3887 74.6004 51.1589 73.096 55.1462C71.1657 60.262 68.2019 65.1229 64.9389 68.987C62.5026 71.8722 60.2081 73.8413 58.4116 75.0056C39.458 72.4495 29.5079 65.7971 24.8877 59.6519C22.2143 56.0962 21.0262 52.3537 20.9569 48.8163C20.9543 48.6875 20.9533 48.5592 20.9538 48.431C20.962 45.841 21.5679 43.3695 22.6259 41.1728C22.6636 41.0946 22.7015 41.0166 22.7397 40.9387L23.5989 39.1548C25.5664 35.8952 28.4484 33.1543 31.6409 31.3086C27.5602 31.3469 23.9718 30.2218 21.0321 28.666C20.7079 28.4943 20.3914 28.3176 20.0831 28.1364ZM14.4102 36.0254C14.3832 36.0085 14.3563 35.9915 14.3294 35.9745C10.2572 33.4008 7.26693 30.3192 5.55018 27.9341L0 20.2231L7.5398 14.4805C16.6317 7.5557 25.5415 5.914 33.7926 8.32691C35.7901 8.9111 37.6604 9.71968 39.3839 10.6372C40.5298 9.01157 41.9101 7.43148 43.5823 6.00413C50.4608 0.132747 59.9694 -1.42045 71.8125 1.29173L82.6989 3.7848L78.6563 14.2783L78.614 14.3882L78.486 14.7211L78.4856 14.7222C77.68 16.8167 76.6777 19.4232 75.1405 22.1503C75.1107 22.2032 75.0807 22.2561 75.0504 22.3091C75.0719 22.327 75.0932 22.345 75.1148 22.363L75.1155 22.3635L75.1148 22.3649C81.9762 28.1308 84.8061 35.4374 84.9903 43.0269C85 43.4264 85.0024 43.8265 84.9977 44.2274C84.7871 61.8634 70.7808 80.6605 60.1881 85C24.7911 81.1619 11.357 63.9745 11.3242 48.5466L11.3241 48.459C11.3292 44.4009 12.2609 40.4667 13.9636 36.9318L13.9631 36.9313L13.9636 36.9299C14.11 36.6261 14.2588 36.3246 14.4102 36.0254Z" fill="#21105D"/>
<path d="M55.1692 58.6552C55.3475 52.0465 53.8302 42.1059 47.3909 36.1213C46.083 34.9056 45.5862 33.0126 46.3865 31.5378C47.2229 29.9962 49.0762 29.4828 50.3411 30.4939C57.1502 35.937 61.9603 47.0886 61.0516 59.6271C60.9374 61.2026 59.4795 62.3164 57.8776 62.0893C56.2753 61.8622 55.1235 60.3497 55.1692 58.6552Z" fill="#21105D" stroke="#21105D"/>
</svg>
