<svg xmlns="http://www.w3.org/2000/svg" width="36" height="17" viewBox="0 0 1029 563">
  <path fill="#F0F6FC" d="M510.14,-2.84217094e-14 C546.87,-2.84217094e-14 574.04,32.12 572.82,67 L572.82,68 L572.82,68 L572.76,70 L572.76,71 L572.7,73.07 L572.7,73.07 L572.7,75.15 C572.06,107.29 574.15,146.57 584.19,179.09 C595.19,214.54 613.62,236.95 643.88,239.83 L643.88,272.48 C613.62,275.36 595.15,297.77 584.19,333.22 C574.19,365.73 572.06,405.02 572.7,437.16 L572.7,439.24 L572.7,439.24 L572.76,441.31 L572.76,441.31 L572.82,443.31 L572.88,445.31 C574.1,480.14 546.93,512.31 510.2,512.31 L133.82,512.31 C97.1,512.31 69.93,480.19 71.14,445.31 L71.14,444.31 L71.14,444.31 L71.2,442.31 L71.2,441.31 L71.25,439.24 L71.25,439.24 L71.3,437.16 C71.3,436.46 71.3,435.76 71.3,435.05 L71.3,432.93 C71.67,401.62 69.3,364.32 59.73,333.22 C48.73,297.77 30.26,275.36 2.84217094e-14,272.48 L2.84217094e-14,239.84 C30.26,236.96 48.78,214.55 59.73,179.1 C69.23,148.35 71.62,111.55 71.31,80.46 L71.31,78.33 C71.31,77.97 71.31,77.62 71.31,77.27 L71.31,75.16 C71.31,74.46 71.31,73.77 71.26,73.08 L71.21,71.01 L71.15,69.01 L71.08,67.01 L71.08,67.01 C69.87,32.18 97.08,0.01 133.76,0.01 L510.14,-2.84217094e-14 Z M349.83,34.47 L293.66,34.47 C289.636738,34.6569078 286.192173,37.4149826 285.13,41.3 L285.07,41.51 L270.93,98.25 L270.52,98.38 L269.52,98.71 C261.969386,101.176798 254.615259,104.208704 247.52,107.78 L246.57,108.27 L245.51,108.82 L195.36,78.69 L195.16,78.57 C191.596317,76.5475682 187.128875,77.0958452 184.16,79.92 L184,80.08 L144.57,119.49 L144.41,119.65 L144.26,119.81 C141.560941,122.784996 141.07699,127.156693 143.06,130.65 L143.18,130.85 L173.33,181.03 L172.79,182.03 C169.010728,189.415622 165.824041,197.089753 163.26,204.98 L162.92,205.98 L162.8,206.38 L106.05,220.52 L105.85,220.58 C101.887542,221.665616 99.1069494,225.222661 99.01,229.33 L99.01,285.75 C99.192471,289.771642 101.947109,293.216959 105.83,294.28 L106.04,294.34 L162.78,308.48 L162.91,308.88 L163.25,309.88 C165.706294,317.434484 168.738525,324.789397 172.32,331.88 L172.81,332.88 L173.35,333.88 L143.2,384.05 L143.08,384.25 C141.060939,387.814356 141.608954,392.279658 144.43,395.25 L144.59,395.41 L184.02,434.82 L184.18,434.98 L184.34,435.13 C187.305395,437.829194 191.66801,438.321097 195.16,436.35 L195.36,436.23 L245.51,406.08 L246.51,406.63 C253.888458,410.425542 261.559776,413.622482 269.45,416.19 L270.45,416.53 L270.85,416.65 L285.07,473.35 L285.13,473.55 C286.208773,477.512825 289.76406,480.295223 293.87,480.39 L350.26,480.39 C354.281642,480.207529 357.726959,477.452891 358.79,473.57 L358.85,473.36 L372.99,416.62 L373.39,416.5 L374.39,416.16 C381.946142,413.704184 389.301344,410.668492 396.39,407.08 L397.39,406.6 L398.39,406.06 L448.55,436.21 L448.75,436.32 C452.312328,438.349205 456.784077,437.800399 459.75,434.97 L459.91,434.81 L499.32,395.4 L499.48,395.24 L499.63,395.08 C502.329059,392.105004 502.81301,387.733307 500.83,384.24 L500.72,384.05 L470.58,333.87 L470.65,333.73 L471.12,332.82 C474.911864,325.443286 478.108689,317.775589 480.68,309.89 L481.02,308.89 L481.14,308.49 L537.9,294.35 L538.1,294.29 C542.058985,293.205451 544.838693,289.653601 544.94,285.55 L544.94,229.15 C544.759316,225.124392 541.998667,221.676613 538.11,220.62 L537.91,220.56 L481.16,206.42 L481.04,206.02 L480.71,205.02 C478.142044,197.141126 474.948546,189.480073 471.16,182.11 L470.67,181.16 L470.6,181.02 L500.74,130.84 L500.85,130.65 C502.869061,127.085644 502.321046,122.620342 499.5,119.65 L499.34,119.49 L459.93,80.08 L459.77,79.92 L459.61,79.77 C456.635004,77.0709413 452.263307,76.5869895 448.77,78.57 L448.57,78.69 L398.42,108.83 L397.42,108.28 C390.043634,104.494815 382.379799,101.298207 374.5,98.72 L373.5,98.39 L373.09,98.26 L358.95,41.52 L358.89,41.31 C357.804384,37.3475421 354.247339,34.5669494 350.14,34.47 L349.83,34.47 Z M342.57,53.05 L356.26,107.89 L356.32,108.1 C357.179365,111.241281 359.6241,113.701201 362.76,114.58 C373.390279,117.555863 383.628865,121.785574 393.26,127.18 L394.07,127.64 L394.29,127.76 L394.5,127.87 C397.593982,129.471767 401.32985,129.173052 404.13,127.1 L404.29,126.98 L404.43,126.88 L451.91,98.35 L481.06,127.5 L452.57,174.93 L452.41,175.14 C450.167247,178.102807 449.915182,182.12009 451.77,185.34 C457.235245,194.924632 461.52934,205.13108 464.56,215.74 L464.83,216.67 L464.89,216.88 L464.96,217.1 C465.945564,220.032573 468.326317,222.282103 471.31,223.1 L471.52,223.16 L526.36,236.83 L526.36,278.05 L471.52,291.72 L471.31,291.78 C468.168719,292.639365 465.708799,295.0841 464.83,298.22 C461.876912,308.869414 457.656752,319.126047 452.26,328.77 L451.8,329.58 L451.69,329.77 L451.58,329.98 C449.993479,333.073218 450.279511,336.795493 452.32,339.61 L452.44,339.78 L452.6,339.99 L481.09,387.42 L451.94,416.57 L404.57,388.1 L404.49,388.03 L404.33,387.91 C401.369796,385.639981 397.330274,385.387017 394.11,387.27 C384.529642,392.741402 374.322021,397.032632 363.71,400.05 L362.78,400.32 L362.57,400.38 L362.36,400.45 C359.424461,401.430922 357.173094,403.813619 356.36,406.8 L356.3,407.02 L342.57,461.85 L301.35,461.85 L287.68,407.02 L287.62,406.8 C286.757027,403.657256 284.308706,401.197547 281.17,400.32 C270.526667,397.368038 260.279052,393.140729 250.65,387.73 L249.84,387.27 L249.65,387.16 L249.45,387.05 C246.289808,385.417277 242.472265,385.748053 239.64,387.9 L239.47,388.02 L239.47,388.07 L192.05,416.57 L162.89,387.42 L191.4,339.99 L191.56,339.78 C193.802753,336.817193 194.054818,332.79991 192.2,329.58 C186.732938,319.989226 182.43879,309.775938 179.41,299.16 L179.14,298.23 L179.08,298.02 L179.01,297.81 C178.025979,294.87644 175.644581,292.6263 172.66,291.81 L172.44,291.75 L117.56,278.06 L117.56,236.84 L172.39,223.17 L172.61,223.11 C175.749225,222.247084 178.207663,219.803821 179.09,216.67 C182.059595,206.031191 186.289569,195.785254 191.69,186.15 L192.15,185.34 L192.25,185.15 L192.36,184.94 C193.954139,181.849587 193.671782,178.124793 191.63,175.31 L191.51,175.14 L191.35,174.93 L162.84,127.5 L192,98.35 L239.52,126.92 L239.62,126.99 L239.78,127.11 C242.730585,129.258097 246.669845,129.465839 249.83,127.64 C259.426277,122.176966 269.642378,117.883048 280.26,114.85 L281.19,114.58 L281.4,114.52 L281.61,114.45 C284.54356,113.465979 286.7937,111.084581 287.61,108.1 L287.67,107.89 L301.34,53.05 L342.57,53.05 Z M335.72,151.89 L249.87,151.89 L249.87,363.01 L337.53,363.01 C382.47,362.57 409.53,340.12 409.53,303.33 C409.53,275.52 390.25,255.33 361.53,251.78 L360.66,251.68 L360.66,250.51 L361.26,250.35 C382.42,246.55 398.92,226.68 398.92,204.52 C398.92,172.95 374.38,152.27 336.92,151.86 L335.72,151.89 Z M327.37,266.74 C358.97,266.74 375.37,278.45 375.37,301.27 C375.37,323.86 359.74,335.99 330.22,336.27 L283.26,336.27 L283.26,266.77 L327.37,266.74 Z M327.67,178.67 C351.82,178.67 365.53,189.49 365.53,209.1 C365.53,229.81 349.9,241.49 321.53,241.72 L283.26,241.72 L283.26,178.67 L327.67,178.67 Z" transform="translate(191.74 20.65)"/>
</svg>
