<svg width="120" height="92" viewBox="0 0 120 92" fill="none" xmlns="http://www.w3.org/2000/svg">
<rect x="1" y="1" width="118" height="90" rx="3" fill="white"/>
<path d="M40 66H39V67V74C39 74.4997 38.9979 74.7738 38.9723 74.964C38.972 74.9665 38.9716 74.9689 38.9713 74.9713C38.9689 74.9716 38.9665 74.972 38.964 74.9723C38.7738 74.9979 38.4997 75 38 75H22C21.5003 75 21.2262 74.9979 21.036 74.9723C21.0335 74.972 21.0311 74.9716 21.0287 74.9713C21.0284 74.9689 21.028 74.9665 21.0277 74.964C21.0021 74.7738 21 74.4997 21 74V18C21 17.5003 21.0021 17.2262 21.0277 17.036C21.028 17.0335 21.0284 17.0311 21.0287 17.0287C21.0311 17.0284 21.0335 17.028 21.036 17.0277C21.2262 17.0021 21.5003 17 22 17H98C98.4997 17 98.7738 17.0021 98.964 17.0277C98.9665 17.028 98.9689 17.0284 98.9713 17.0287C98.9716 17.0311 98.972 17.0335 98.9723 17.036C98.9979 17.2262 99 17.5003 99 18V65C99 65.4997 98.9979 65.7738 98.9723 65.964C98.972 65.9665 98.9716 65.9689 98.9713 65.9713C98.9689 65.9716 98.9665 65.972 98.964 65.9723C98.7738 65.9979 98.4997 66 98 66H40Z" fill="white" stroke="#8796A1" stroke-width="2"/>
<path d="M44 67C44 66.0572 44 65.5858 44.2929 65.2929C44.5858 65 45.0572 65 46 65H61C61.9428 65 62.4142 65 62.7071 65.2929C63 65.5858 63 66.0572 63 67V74C63 74.9428 63 75.4142 62.7071 75.7071C62.4142 76 61.9428 76 61 76H46C45.0572 76 44.5858 76 44.2929 75.7071C44 75.4142 44 74.9428 44 74V67Z" fill="#8796A1"/>
<path d="M67 67C67 66.0572 67 65.5858 67.2929 65.2929C67.5858 65 68.0572 65 69 65H84C84.9428 65 85.4142 65 85.7071 65.2929C86 65.5858 86 66.0572 86 67V74C86 74.9428 86 75.4142 85.7071 75.7071C85.4142 76 84.9428 76 84 76H69C68.0572 76 67.5858 76 67.2929 75.7071C67 75.4142 67 74.9428 67 74V67Z" fill="#8796A1"/>
<rect x="1" y="1" width="118" height="90" rx="3" stroke="#CCCCCC" stroke-width="2"/>
</svg>
