<svg width="120" height="92" viewBox="0 0 120 92" fill="none" xmlns="http://www.w3.org/2000/svg">
<rect x="1" y="1" width="118" height="90" rx="3" fill="white"/>
<path d="M83 31H82V32L82 74C82 74.4997 81.9979 74.7738 81.9723 74.964C81.972 74.9665 81.9716 74.9689 81.9713 74.9713C81.9689 74.9716 81.9665 74.972 81.964 74.9723C81.7738 74.9979 81.4997 75 81 75H22C21.5003 75 21.2262 74.9979 21.036 74.9723C21.0335 74.972 21.0311 74.9716 21.0287 74.9713C21.0284 74.9689 21.028 74.9665 21.0277 74.964C21.0021 74.7738 21 74.4997 21 74V18C21 17.5003 21.0021 17.2262 21.0277 17.036C21.028 17.0335 21.0284 17.0311 21.0287 17.0287C21.0311 17.0284 21.0335 17.028 21.036 17.0277C21.2262 17.0021 21.5003 17 22 17H98C98.4997 17 98.7738 17.0021 98.964 17.0277C98.9665 17.028 98.9689 17.0284 98.9713 17.0287C98.9716 17.0311 98.972 17.0335 98.9723 17.036C98.9979 17.2262 99 17.5003 99 18V30C99 30.4997 98.9979 30.7738 98.9723 30.964C98.972 30.9665 98.9716 30.9689 98.9713 30.9713C98.9689 30.9716 98.9665 30.972 98.964 30.9723C98.7738 30.9979 98.4997 31 98 31H83Z" fill="white" stroke="#8796A1" stroke-width="2"/>
<path d="M83 50C82.0572 50 81.5858 50 81.2929 49.7071C81 49.4142 81 48.9428 81 48L81 38C81 37.0572 81 36.5858 81.2929 36.2929C81.5858 36 82.0572 36 83 36L98 36C98.9428 36 99.4142 36 99.7071 36.2929C100 36.5858 100 37.0572 100 38V48C100 48.9428 100 49.4142 99.7071 49.7071C99.4142 50 98.9428 50 98 50L83 50Z" fill="#8796A1"/>
<path d="M83 68C82.0572 68 81.5858 68 81.2929 67.7071C81 67.4142 81 66.9428 81 66L81 56C81 55.0572 81 54.5858 81.2929 54.2929C81.5858 54 82.0572 54 83 54L98 54C98.9428 54 99.4142 54 99.7071 54.2929C100 54.5858 100 55.0572 100 56V66C100 66.9428 100 67.4142 99.7071 67.7071C99.4142 68 98.9428 68 98 68L83 68Z" fill="#8796A1"/>
<rect x="1" y="1" width="118" height="90" rx="3" stroke="#CCCCCC" stroke-width="2"/>
</svg>
