<?xml version="1.0" ?><!DOCTYPE svg  PUBLIC '-//W3C//DTD SVG 1.1//EN'  'http://www.w3.org/Graphics/SVG/1.1/DTD/svg11.dtd'><svg enable-background="new 0 0 32 32" height="20px" id="Слой_1" version="1.1" viewBox="0 0 32 32" width="20px" xml:space="preserve" xmlns="http://www.w3.org/2000/svg" xmlns:xlink="http://www.w3.org/1999/xlink"><g id="Apps"><path d="M6,0H2C0.895,0,0,0.896,0,2v4c0,1.105,0.895,2,2,2h4c1.105,0,2-0.895,2-2V2C8,0.896,7.105,0,6,0z M6,6H2V2   h4V6z" fill="#121313"/><path d="M18,0h-4c-1.105,0-2,0.896-2,2v4c0,1.105,0.895,2,2,2h4c1.104,0,2-0.895,2-2V2C20,0.896,19.104,0,18,0z    M18,6h-4V2h4V6z" fill="#121313"/><path d="M30,0h-4c-1.105,0-2,0.896-2,2v4c0,1.105,0.895,2,2,2h4c1.104,0,2-0.895,2-2V2C32,0.896,31.104,0,30,0z    M30,6h-4V2h4V6z" fill="#121313"/><path clip-rule="evenodd" d="M6,12H2c-1.105,0-2,0.895-2,2v4c0,1.105,0.895,2,2,2h4   c1.105,0,2-0.895,2-2v-4C8,12.896,7.105,12,6,12z M6,18H2v-4h4V18z" fill="#121313" fill-rule="evenodd"/><path clip-rule="evenodd" d="M18,12h-4c-1.105,0-2,0.895-2,2v4c0,1.105,0.895,2,2,2h4   c1.104,0,2-0.895,2-2v-4C20,12.896,19.104,12,18,12z M18,18h-4v-4h4V18z" fill="#121313" fill-rule="evenodd"/><path clip-rule="evenodd" d="M30,12h-4c-1.105,0-2,0.895-2,2v4c0,1.105,0.895,2,2,2h4   c1.104,0,2-0.895,2-2v-4C32,12.896,31.104,12,30,12z M30,18h-4v-4h4V18z" fill="#121313" fill-rule="evenodd"/><path clip-rule="evenodd" d="M6,24H2c-1.105,0-2,0.895-2,2v4c0,1.105,0.895,2,2,2h4   c1.105,0,2-0.895,2-2v-4C8,24.896,7.105,24,6,24z M6,30H2v-4h4V30z" fill="#121313" fill-rule="evenodd"/><path clip-rule="evenodd" d="M18,24h-4c-1.105,0-2,0.895-2,2v4c0,1.105,0.895,2,2,2h4   c1.104,0,2-0.895,2-2v-4C20,24.896,19.104,24,18,24z M18,30h-4v-4h4V30z" fill="#121313" fill-rule="evenodd"/><path clip-rule="evenodd" d="M30,24h-4c-1.105,0-2,0.895-2,2v4c0,1.105,0.895,2,2,2h4   c1.104,0,2-0.895,2-2v-4C32,24.896,31.104,24,30,24z M30,30h-4v-4h4V30z" fill="#121313" fill-rule="evenodd"/></g><g/><g/><g/><g/><g/><g/></svg>