<svg width="286" height="211" viewBox="0 0 286 211" fill="none" xmlns="http://www.w3.org/2000/svg">
<g clip-path="url(#clip0_131_52)">
<path d="M17.6514 210.366C17.6514 206.038 19.3772 201.887 22.4492 198.827C25.5212 195.767 29.6877 194.047 34.0322 194.047C38.3766 194.047 42.5431 195.767 45.6151 198.827C48.6871 201.887 50.413 206.038 50.413 210.366" fill="#EFF2F5"/>
<path d="M34.0323 210.366C33.9149 210.366 33.8023 210.32 33.7193 210.237C33.6362 210.154 33.5896 210.042 33.5896 209.925V201.325C33.5896 201.208 33.6362 201.095 33.7193 201.013C33.8023 200.93 33.9149 200.884 34.0323 200.884C34.1497 200.884 34.2623 200.93 34.3454 201.013C34.4284 201.095 34.475 201.208 34.475 201.325V209.925C34.475 210.042 34.4284 210.154 34.3454 210.237C34.2623 210.32 34.1497 210.366 34.0323 210.366Z" fill="#C2CAD6"/>
<path d="M34.032 207.411C33.9263 207.411 33.824 207.373 33.7439 207.304L28.4312 202.762C28.3867 202.724 28.3501 202.678 28.3235 202.627C28.2969 202.575 28.2809 202.518 28.2763 202.46C28.2717 202.402 28.2786 202.344 28.2967 202.289C28.3148 202.234 28.3437 202.182 28.3817 202.138C28.4197 202.094 28.4661 202.058 28.5182 202.032C28.5703 202.006 28.627 201.99 28.6852 201.986C28.7434 201.981 28.8019 201.989 28.8573 202.007C28.9127 202.025 28.9638 202.054 29.0079 202.093L34.3206 206.635C34.3892 206.694 34.4382 206.772 34.4608 206.859C34.4835 206.947 34.4788 207.039 34.4474 207.123C34.4159 207.208 34.3593 207.28 34.285 207.332C34.2108 207.383 34.1225 207.411 34.032 207.411Z" fill="#C2CAD6"/>
<path d="M68.1221 210.366C68.1221 206.038 69.8479 201.887 72.9199 198.827C75.9919 195.767 80.1584 194.047 84.5029 194.047C88.8473 194.047 93.0139 195.767 96.0858 198.827C99.1578 201.887 100.884 206.038 100.884 210.366" fill="#EFF2F5"/>
<path d="M84.5028 210.366C84.3854 210.366 84.2727 210.32 84.1897 210.237C84.1067 210.154 84.0601 210.042 84.0601 209.925V201.325C84.0601 201.208 84.1067 201.095 84.1897 201.013C84.2727 200.93 84.3854 200.884 84.5028 200.884C84.6202 200.884 84.7328 200.93 84.8158 201.013C84.8989 201.095 84.9455 201.208 84.9455 201.325V209.925C84.9455 210.042 84.8989 210.154 84.8158 210.237C84.7328 210.32 84.6202 210.366 84.5028 210.366Z" fill="#C2CAD6"/>
<path d="M84.5025 207.411C84.3968 207.411 84.2945 207.373 84.2144 207.304L78.9017 202.762C78.8126 202.686 78.7575 202.577 78.7486 202.461C78.7397 202.344 78.7776 202.229 78.8541 202.14C78.9306 202.051 79.0393 201.996 79.1564 201.987C79.2735 201.979 79.3893 202.016 79.4784 202.093L84.7911 206.635C84.8598 206.694 84.9087 206.772 84.9314 206.859C84.954 206.947 84.9493 207.039 84.9179 207.123C84.8864 207.208 84.8298 207.28 84.7555 207.332C84.6813 207.383 84.593 207.411 84.5025 207.411Z" fill="#C2CAD6"/>
<path d="M102.212 76.9202C105.88 76.9202 108.853 73.9582 108.853 70.3044C108.853 66.6506 105.88 63.6887 102.212 63.6887C98.5443 63.6887 95.571 66.6506 95.571 70.3044C95.571 73.9582 98.5443 76.9202 102.212 76.9202Z" fill="white"/>
<path d="M102.212 63.6887C100.898 63.6887 99.6145 64.0767 98.5224 64.8036C97.4304 65.5306 96.5792 66.5638 96.0766 67.7727C95.5739 68.9816 95.4424 70.3118 95.6986 71.5951C95.9549 72.8785 96.5874 74.0573 97.5161 74.9825C98.4449 75.9077 99.6281 76.5378 100.916 76.7931C102.205 77.0484 103.54 76.9173 104.753 76.4166C105.967 75.9159 107.004 75.0679 107.734 73.98C108.463 72.892 108.853 71.6129 108.853 70.3044C108.853 68.5498 108.153 66.8671 106.908 65.6264C105.662 64.3857 103.973 63.6887 102.212 63.6887ZM100.622 73.193C100.622 73.2424 100.602 73.2898 100.567 73.3248C100.532 73.3597 100.484 73.3794 100.435 73.3794H98.9382C98.8886 73.3794 98.8411 73.3597 98.806 73.3248C98.7709 73.2898 98.7512 73.2424 98.7512 73.193V69.6522C98.7512 69.6027 98.7709 69.5553 98.806 69.5204C98.8411 69.4854 98.8886 69.4658 98.9382 69.4658H100.435C100.484 69.4658 100.532 69.4854 100.567 69.5204C100.602 69.5553 100.622 69.6027 100.622 69.6522V73.193ZM105.673 70.3976C105.673 70.5459 105.614 70.6881 105.508 70.7929C105.403 70.8978 105.26 70.9567 105.111 70.9567V70.9661C105.217 70.9876 105.312 71.0448 105.38 71.1279C105.448 71.2111 105.486 71.3152 105.486 71.4226C105.486 71.53 105.448 71.6341 105.38 71.7173C105.312 71.8005 105.217 71.8576 105.111 71.8791V72.0749C105.211 72.0749 105.306 72.1141 105.376 72.184C105.446 72.2539 105.486 72.3487 105.486 72.4476C105.486 72.5464 105.446 72.6412 105.376 72.7111C105.306 72.781 105.211 72.8203 105.111 72.8203H101.37C101.32 72.8203 101.273 72.8007 101.238 72.7657C101.203 72.7308 101.183 72.6834 101.183 72.6339V69.6522C101.183 68.7204 102.68 67.4158 102.68 67.4158V66.9615C102.679 66.8234 102.73 66.69 102.822 66.5866C102.914 66.4833 103.041 66.4172 103.179 66.4009C103.317 66.3846 103.455 66.4191 103.569 66.4981C103.683 66.5771 103.764 66.6949 103.796 66.8292L103.802 66.8568C103.875 67.5135 103.714 68.1748 103.348 68.7255H104.499C104.516 68.724 104.533 68.7204 104.55 68.7204H105.111C104.963 69.0169 104.938 69.3603 105.043 69.6748C105.149 69.9893 105.375 70.2494 105.673 70.3976Z" fill="#437DFF"/>
<path d="M111.952 41.195C117.086 41.195 121.249 37.0482 121.249 31.9329C121.249 26.8176 117.086 22.6708 111.952 22.6708C106.817 22.6708 102.655 26.8176 102.655 31.9329C102.655 37.0482 106.817 41.195 111.952 41.195Z" fill="white"/>
<path d="M111.952 22.6708C110.113 22.6708 108.315 23.214 106.787 24.2318C105.258 25.2495 104.066 26.6961 103.362 28.3885C102.659 30.0809 102.474 31.9432 102.833 33.7399C103.192 35.5365 104.077 37.1869 105.378 38.4822C106.678 39.7775 108.334 40.6597 110.138 41.017C111.941 41.3744 113.811 41.191 115.51 40.49C117.208 39.7889 118.661 38.6018 119.682 37.0787C120.704 35.5555 121.249 33.7648 121.249 31.9329C121.249 29.4765 120.269 27.1206 118.526 25.3836C116.782 23.6467 114.418 22.6708 111.952 22.6708ZM109.726 35.9769C109.726 36.0461 109.698 36.1125 109.649 36.1614C109.6 36.2103 109.533 36.2378 109.464 36.2378H107.369C107.299 36.2378 107.233 36.2103 107.183 36.1614C107.134 36.1125 107.107 36.0461 107.107 35.9769V31.0198C107.107 30.9506 107.134 30.8842 107.183 30.8353C107.233 30.7863 107.299 30.7589 107.369 30.7589H109.464C109.533 30.7589 109.6 30.7863 109.649 30.8353C109.698 30.8842 109.726 30.9506 109.726 31.0198V35.9769ZM116.797 32.0634C116.797 32.271 116.714 32.47 116.567 32.6168C116.419 32.7636 116.219 32.8461 116.011 32.8461V32.8592C116.159 32.8893 116.292 32.9693 116.387 33.0858C116.483 33.2023 116.535 33.348 116.535 33.4983C116.535 33.6487 116.483 33.7944 116.387 33.9109C116.292 34.0273 116.159 34.1074 116.011 34.1374V34.4115C116.15 34.4115 116.283 34.4665 116.381 34.5643C116.48 34.6622 116.535 34.7949 116.535 34.9333C116.535 35.0717 116.48 35.2044 116.381 35.3023C116.283 35.4001 116.15 35.4551 116.011 35.4551H110.773C110.704 35.4551 110.637 35.4276 110.588 35.3787C110.539 35.3298 110.511 35.2634 110.511 35.1942V31.0198C110.511 29.7152 112.606 27.8889 112.606 27.8889V27.2529C112.606 27.0595 112.677 26.8727 112.806 26.728C112.935 26.5833 113.113 26.4908 113.305 26.4679C113.498 26.4451 113.693 26.4935 113.852 26.604C114.011 26.7146 114.124 26.8795 114.17 27.0676C114.172 27.0803 114.175 27.0932 114.178 27.1062C114.44 28.4107 113.542 29.7224 113.542 29.7224H115.154C115.178 29.7202 115.201 29.7152 115.225 29.7152H116.011C116.219 29.7152 116.419 29.7977 116.567 29.9445C116.714 30.0913 116.797 30.2904 116.797 30.4979C116.797 30.7055 116.714 30.9046 116.567 31.0514C116.419 31.1982 116.219 31.2807 116.011 31.2807C116.219 31.2807 116.419 31.3631 116.567 31.5099C116.714 31.6567 116.797 31.8558 116.797 32.0634V32.0634Z" fill="#437DFF"/>
<path d="M132.65 131.257C133.328 131.1 133.962 130.797 134.509 130.37C135.056 129.943 135.503 129.401 135.817 128.783C136.131 128.165 136.306 127.486 136.328 126.794C136.35 126.101 136.22 125.413 135.946 124.776L153.479 85.3141L143.449 82.7975L129.369 122.378C128.326 122.908 127.514 123.8 127.086 124.885C126.659 125.971 126.647 127.175 127.051 128.27C127.456 129.364 128.249 130.273 129.281 130.823C130.313 131.374 131.512 131.528 132.65 131.257V131.257Z" fill="#A0616A"/>
<path d="M148.449 97.6642L138.695 93.1154C138.417 92.9859 138.171 92.7984 137.972 92.5656C137.774 92.3328 137.629 92.0602 137.546 91.7663C137.463 91.4724 137.444 91.1642 137.492 90.8625C137.539 90.5609 137.651 90.273 137.82 90.0185L143.749 81.0992C144.422 79.6892 145.629 78.6026 147.105 78.0775C148.581 77.5523 150.206 77.6315 151.623 78.2976C153.041 78.9637 154.136 80.1624 154.668 81.6311C155.2 83.0998 155.126 84.7187 154.462 86.1331L151.396 96.3492C151.308 96.6416 151.158 96.9118 150.956 97.1413C150.754 97.3708 150.505 97.5541 150.225 97.6789C149.945 97.8037 149.642 97.867 149.335 97.8645C149.029 97.8619 148.727 97.7936 148.449 97.6642H148.449Z" fill="#0071FF"/>
<path d="M114.534 92.5892L125.288 100.175C125.426 100.274 125.592 100.328 125.762 100.328C125.932 100.328 126.098 100.274 126.236 100.175L129.142 98.0006C129.239 97.9302 129.318 97.8391 129.375 97.7339C129.431 97.6287 129.463 97.5122 129.468 97.3931C129.473 97.274 129.451 97.1552 129.404 97.0457C129.356 96.9362 129.285 96.8388 129.194 96.7606L120.919 89.4088C120.81 89.3141 120.678 89.2498 120.536 89.2225C120.394 89.1952 120.248 89.2057 120.112 89.2531L114.726 91.1728C114.588 91.2237 114.466 91.3111 114.374 91.4257C114.282 91.5403 114.223 91.6778 114.203 91.8233C114.183 91.9689 114.203 92.1171 114.262 92.252C114.32 92.3869 114.414 92.5035 114.534 92.5892H114.534Z" fill="#3F3D56"/>
<path d="M115.511 92.0041L125.203 98.8399C125.252 98.8764 125.311 98.8964 125.372 98.897C125.433 98.8975 125.492 98.8786 125.542 98.8429L128.155 96.8879C128.185 96.8668 128.211 96.84 128.23 96.809C128.249 96.7781 128.262 96.7436 128.268 96.7076C128.274 96.6716 128.273 96.6348 128.265 96.5993C128.256 96.5638 128.241 96.5303 128.219 96.5007C128.207 96.4847 128.194 96.4699 128.179 96.4568L120.714 89.8255C120.675 89.7922 120.628 89.7698 120.578 89.7605C120.528 89.7512 120.476 89.7553 120.427 89.7725L115.577 91.5014C115.528 91.5202 115.486 91.5516 115.453 91.5924C115.421 91.6332 115.401 91.6819 115.394 91.7334C115.387 91.7849 115.395 91.8372 115.415 91.8848C115.436 91.9324 115.469 91.9736 115.511 92.0041V92.0041Z" fill="white"/>
<path d="M153.73 205.677L148.302 205.677L145.72 184.82L153.731 184.821L153.73 205.677Z" fill="#A0616A"/>
<path d="M155.114 210.919L137.613 210.918V210.697C137.613 209.806 137.789 208.924 138.132 208.1C138.474 207.277 138.976 206.529 139.608 205.899C140.241 205.269 140.992 204.769 141.818 204.428C142.645 204.087 143.53 203.911 144.425 203.911H144.425L155.115 203.912L155.114 210.919Z" fill="#2F2E41"/>
<path d="M171.882 205.677L166.454 205.677L163.872 184.82L171.882 184.821L171.882 205.677Z" fill="#A0616A"/>
<path d="M173.266 210.919L155.765 210.918V210.697C155.765 209.806 155.941 208.924 156.283 208.1C156.626 207.277 157.127 206.529 157.76 205.899C158.392 205.269 159.143 204.769 159.97 204.428C160.796 204.087 161.682 203.911 162.577 203.911H162.577L173.266 203.912L173.266 210.919Z" fill="#2F2E41"/>
<path d="M171.633 199.875C171.584 199.875 171.535 199.873 171.486 199.87L165.244 199.409C164.816 199.376 164.41 199.206 164.086 198.926C163.763 198.646 163.537 198.269 163.444 197.852L152.606 138.587C152.571 138.423 152.474 138.279 152.335 138.184C152.197 138.088 152.027 138.049 151.86 138.074C151.694 138.098 151.543 138.185 151.438 138.316C151.333 138.447 151.282 138.613 151.296 138.78L155.144 197.172C155.165 197.445 155.13 197.719 155.04 197.978C154.95 198.237 154.807 198.474 154.621 198.675C154.434 198.876 154.208 199.036 153.956 199.146C153.704 199.256 153.432 199.312 153.158 199.312H148.405C148.004 199.312 147.612 199.192 147.281 198.967C146.95 198.742 146.695 198.423 146.548 198.051C134.595 166.866 138.924 105.762 138.958 105.148L139.401 104.707L163.209 108.802L163.26 108.851C171.395 114.803 174.915 184.513 173.622 197.774C173.614 198.337 173.405 198.879 173.033 199.303C172.66 199.67 172.157 199.875 171.633 199.875Z" fill="#2F2E41"/>
<path d="M141.705 68.9616C147.71 68.9616 152.578 64.1117 152.578 58.1289C152.578 52.1462 147.71 47.2963 141.705 47.2963C135.699 47.2963 130.831 52.1462 130.831 58.1289C130.831 64.1117 135.699 68.9616 141.705 68.9616Z" fill="#A0616A"/>
<path d="M166.643 118.866C166.532 118.866 166.422 118.855 166.314 118.833L138.387 115.263C137.387 115.062 136.674 113.999 136.728 112.789L139.401 98.0907C135.859 93.6802 139.206 82.2897 141.37 79.4099L140.533 77.1534C140.317 76.5674 140.304 75.9265 140.496 75.3323C140.66 74.7729 141.037 74.2997 141.547 74.0137L152.881 68.0148C153.886 67.4829 155.064 68.0272 155.509 69.227L157.732 75.2192L157.698 75.2367C163.02 78.0784 167.735 80.8897 164.193 95.8855L168.634 116.596C168.619 117.249 168.355 117.871 167.895 118.337C167.563 118.669 167.114 118.859 166.643 118.866Z" fill="#0071FF"/>
<path d="M127.241 94.5858C127.419 94.753 127.584 94.934 127.734 95.127L149.638 93.6192L151.987 88.8488L159.678 91.4407L156.342 100.288C156.072 101.003 155.577 101.612 154.931 102.022C154.285 102.433 153.522 102.624 152.758 102.566L127.85 100.684C127.299 101.447 126.527 102.025 125.638 102.34C124.749 102.656 123.785 102.694 122.874 102.45C121.962 102.207 121.147 101.692 120.536 100.975C119.925 100.259 119.548 99.3737 119.455 98.4381C119.361 97.5026 119.556 96.5608 120.012 95.7382C120.469 94.9155 121.167 94.2508 122.012 93.8326C122.857 93.4144 123.81 93.2625 124.744 93.397C125.678 93.5315 126.549 93.9462 127.241 94.5858Z" fill="#A0616A"/>
<path d="M149.242 92.5674C149.133 92.3037 149.082 92.0196 149.094 91.7346C149.105 91.4496 149.177 91.1704 149.307 90.916L153.824 82.0289C154.286 80.6444 155.281 79.4991 156.59 78.8441C157.899 78.1892 159.415 78.0779 160.806 78.5347C162.197 78.9916 163.349 79.9793 164.01 81.2813C164.672 82.5833 164.788 84.0933 164.333 85.4804L162.593 95.3226C162.544 95.6035 162.434 95.8705 162.271 96.1052C162.109 96.34 161.897 96.5371 161.651 96.6832C161.405 96.8292 161.131 96.9207 160.846 96.9515C160.562 96.9822 160.274 96.9515 160.002 96.8614L150.455 93.6951C150.183 93.6051 149.934 93.4578 149.725 93.2632C149.516 93.0686 149.351 92.8312 149.242 92.5674Z" fill="#0071FF"/>
<path d="M115.058 85.3109C114.968 85.3944 114.849 85.4407 114.727 85.4407C114.604 85.4407 114.485 85.3944 114.396 85.3109L114.141 85.082C112.062 83.1809 110.861 81.9457 110.861 80.4058C110.861 79.1497 111.659 78.179 112.91 78.179C113.256 78.1809 113.599 78.2579 113.912 78.4047C114.226 78.5514 114.504 78.7643 114.727 79.0287C114.95 78.7644 115.228 78.5514 115.542 78.4047C115.855 78.258 116.197 78.1809 116.543 78.179C117.796 78.179 118.593 79.1464 118.593 80.4058C118.593 81.9425 117.392 83.1776 115.312 85.082L115.058 85.3109Z" fill="#FF5E7E"/>
<path d="M99.8655 58.9679C99.6933 59.1278 99.4667 59.2167 99.2313 59.2167C98.9959 59.2167 98.7693 59.1278 98.597 58.9679L98.1101 58.5292C94.1248 54.8864 91.8235 52.5197 91.8235 49.569C91.8235 47.1621 93.3525 45.3021 95.7499 45.3021C96.4142 45.3058 97.0698 45.4534 97.6711 45.7346C98.2725 46.0157 98.8054 46.4237 99.2328 46.9304C99.6596 46.4238 100.192 46.0158 100.793 45.7346C101.394 45.4535 102.049 45.3059 102.713 45.3021C105.113 45.3021 106.639 47.1559 106.639 49.569C106.639 52.5135 104.338 54.8802 100.352 58.5292L99.8655 58.9679Z" fill="#FF5E7E"/>
<path d="M100.498 17.7495C100.274 17.9572 99.9797 18.0726 99.6739 18.0726C99.3682 18.0726 99.0738 17.9572 98.8501 17.7495L98.2177 17.1797C93.0414 12.4484 90.0525 9.37441 90.0525 5.54197C90.0525 2.41584 92.0384 0 95.1522 0C96.015 0.00490143 96.8665 0.196574 97.6476 0.561739C98.4287 0.926905 99.1208 1.45684 99.6759 2.11485C100.23 1.45694 100.922 0.927023 101.702 0.56184C102.483 0.196658 103.333 0.00494244 104.196 0C107.313 0 109.295 2.40781 109.295 5.54197C109.295 9.36637 106.306 12.4403 101.13 17.1797L100.498 17.7495Z" fill="#FF5E7E"/>
<path d="M285.557 211H0.442724C0.325307 211 0.212704 210.954 0.129677 210.871C0.0466505 210.788 0 210.676 0 210.559C0 210.442 0.0466505 210.33 0.129677 210.247C0.212704 210.164 0.325307 210.118 0.442724 210.118H285.557C285.675 210.118 285.787 210.164 285.87 210.247C285.953 210.33 286 210.442 286 210.559C286 210.676 285.953 210.788 285.87 210.871C285.787 210.954 285.675 211 285.557 211Z" fill="#C2CAD6"/>
<path d="M147.812 49.575C152.703 49.575 156.667 45.6257 156.667 40.754C156.667 35.8822 152.703 31.9329 147.812 31.9329C142.922 31.9329 138.958 35.8822 138.958 40.754C138.958 45.6257 142.922 49.575 147.812 49.575Z" fill="#2F2E41"/>
<path d="M131.411 59.4681C130.546 59.5592 129.626 59.6411 128.848 59.2541C128.431 59.0189 128.077 58.6891 127.812 58.2917C127.548 57.8942 127.381 57.4403 127.326 56.9666C125.676 46.0466 134.997 46.9448 136.1 46.4719C136.841 46.1539 137.387 45.514 138.049 45.0547C139.498 44.0503 141.377 43.9769 143.142 43.939C145.236 43.8939 147.407 43.863 149.33 44.6927C151.059 45.4996 152.495 46.8187 153.443 48.4697C154.381 50.1137 155.068 51.8875 155.483 53.7329C156.016 55.8441 156.378 58.0775 155.829 60.1847C155.377 61.7864 154.432 63.207 153.129 64.2476C151.825 65.2882 150.228 65.8968 148.56 65.9882C149.276 63.4714 147.714 60.6812 145.398 59.4495C143.529 58.5338 141.402 58.2815 139.369 58.7344C138.051 59.0005 136.714 59.1664 135.371 59.2305C134.052 59.2797 132.469 59.3567 131.411 59.4681Z" fill="#2F2E41"/>
<path d="M273.432 93.3955C273.432 72.1087 256.098 21.5962 234.716 21.5962C213.334 21.5962 196.001 72.1087 196.001 93.3955C196.009 103.62 200.091 113.422 207.351 120.649C214.611 127.876 224.454 131.936 234.716 131.936C244.979 131.936 254.822 127.876 262.082 120.649C269.342 113.422 273.424 103.62 273.432 93.3955Z" fill="#EFF2F5"/>
<path d="M234.716 210.559C234.599 210.559 234.486 210.513 234.403 210.43C234.32 210.347 234.274 210.235 234.274 210.118V88.3256C234.274 88.2086 234.32 88.0964 234.403 88.0137C234.486 87.931 234.599 87.8845 234.716 87.8845C234.834 87.8845 234.946 87.931 235.029 88.0137C235.113 88.0964 235.159 88.2086 235.159 88.3256V210.118C235.159 210.235 235.112 210.347 235.029 210.43C234.946 210.512 234.834 210.559 234.716 210.559Z" fill="#C2CAD6"/>
<path d="M234.717 105.148C234.653 105.148 234.59 105.134 234.533 105.108C234.475 105.082 234.423 105.043 234.382 104.995L212.116 79.4145C212.039 79.3261 212.001 79.211 212.009 79.0945C212.018 78.978 212.072 78.8696 212.161 78.7931C212.25 78.7166 212.365 78.6782 212.482 78.6863C212.599 78.6944 212.708 78.7484 212.785 78.8365L235.051 104.417C235.107 104.481 235.143 104.56 235.155 104.644C235.167 104.727 235.154 104.813 235.119 104.889C235.084 104.966 235.027 105.032 234.956 105.077C234.885 105.123 234.802 105.147 234.717 105.148Z" fill="#C2CAD6"/>
<path d="M234.716 119.911C234.629 119.911 234.543 119.885 234.47 119.836C234.398 119.788 234.341 119.719 234.307 119.638C234.274 119.558 234.265 119.469 234.282 119.384C234.299 119.298 234.341 119.22 234.403 119.158L247.055 106.553C247.096 106.512 247.145 106.48 247.199 106.458C247.253 106.436 247.31 106.424 247.368 106.424C247.426 106.424 247.484 106.436 247.538 106.458C247.591 106.48 247.64 106.512 247.681 106.553C247.722 106.594 247.755 106.643 247.777 106.696C247.8 106.75 247.811 106.807 247.811 106.865C247.811 106.923 247.8 106.981 247.777 107.034C247.755 107.088 247.722 107.136 247.681 107.177L235.029 119.782C234.988 119.823 234.939 119.855 234.886 119.877C234.832 119.899 234.774 119.911 234.716 119.911Z" fill="#C2CAD6"/>
<path d="M234.716 168.426C234.629 168.426 234.543 168.401 234.47 168.352C234.398 168.304 234.341 168.235 234.307 168.154C234.274 168.074 234.265 167.985 234.282 167.899C234.299 167.814 234.341 167.735 234.403 167.674L247.055 155.069C247.138 154.986 247.251 154.94 247.368 154.94C247.486 154.94 247.598 154.986 247.681 155.069C247.764 155.152 247.811 155.264 247.811 155.381C247.811 155.498 247.764 155.61 247.681 155.693L235.029 168.297C234.988 168.338 234.939 168.371 234.886 168.393C234.832 168.415 234.774 168.427 234.716 168.426Z" fill="#C2CAD6"/>
</g>
<defs>
<clipPath id="clip0_131_52">
<rect width="286" height="211" fill="white"/>
</clipPath>
</defs>
</svg>
