<svg xmlns="http://www.w3.org/2000/svg" viewBox="0 0 86.01 97"><title>post grid</title><g id="Layer_2" data-name="Layer 2"><g id="Layer_1-2" data-name="Layer 1"><path d="M55.32,33.67H84.51a1.5,1.5,0,0,0,0-3H55.32a1.5,1.5,0,0,0,0,3Z"/><path d="M55.32,41.28H74.41a1.5,1.5,0,0,0,0-3H55.32a1.5,1.5,0,1,0,0,3Z"/><path d="M56.32,22.88H83.51a2.5,2.5,0,0,0,2.5-2.5V2.94a2.5,2.5,0,0,0-2.5-2.5H56.32a2.5,2.5,0,0,0-2.5,2.5V20.38A2.5,2.5,0,0,0,56.32,22.88Zm.5-3V3.44H83V19.88Z"/><path d="M1.5,33.23H30.69a1.5,1.5,0,0,0,0-3H1.5a1.5,1.5,0,1,0,0,3Z"/><path d="M1.5,40.84H20.59a1.5,1.5,0,1,0,0-3H1.5a1.5,1.5,0,0,0,0,3Z"/><path d="M2.5,22.44H29.69a2.5,2.5,0,0,0,2.5-2.5V2.5A2.5,2.5,0,0,0,29.69,0H2.5A2.5,2.5,0,0,0,0,2.5V19.94A2.5,2.5,0,0,0,2.5,22.44Zm.5-3V3H29.19V19.44Z"/><path d="M55.32,89.39H84.51a1.5,1.5,0,0,0,0-3H55.32a1.5,1.5,0,0,0,0,3Z"/><path d="M55.32,97H74.41a1.5,1.5,0,0,0,0-3H55.32a1.5,1.5,0,1,0,0,3Z"/><path d="M53.82,76.1a2.5,2.5,0,0,0,2.5,2.5H83.51A2.5,2.5,0,0,0,86,76.1V58.66a2.5,2.5,0,0,0-2.5-2.5H56.32a2.5,2.5,0,0,0-2.5,2.5Zm3-.5V59.16H83V75.6Z"/><path d="M1.5,89H30.69a1.5,1.5,0,0,0,0-3H1.5a1.5,1.5,0,0,0,0,3Z"/><path d="M1.5,96.56H20.59a1.5,1.5,0,1,0,0-3H1.5a1.5,1.5,0,0,0,0,3Z"/><path d="M0,75.66a2.5,2.5,0,0,0,2.5,2.5H29.69a2.5,2.5,0,0,0,2.5-2.5V58.22a2.5,2.5,0,0,0-2.5-2.5H2.5A2.5,2.5,0,0,0,0,58.22Zm3-.5V58.72H29.19V75.16Z"/></g></g></svg>