<?xml version="1.0" encoding="UTF-8" standalone="no"?>
<svg width="253px" height="27px" viewBox="0 0 253 27" version="1.1" xmlns="http://www.w3.org/2000/svg" xmlns:xlink="http://www.w3.org/1999/xlink" xmlns:sketch="http://www.bohemiancoding.com/sketch/ns">
    <!-- Generator: Sketch 3.3.3 (12081) - http://www.bohemiancoding.com/sketch -->
    <title>Envato elements black</title>
    <desc>Created with Sketch.</desc>
    <defs></defs>
    <g id="-Resources" stroke="none" stroke-width="1" fill="none" fill-rule="evenodd" sketch:type="MSPage">
        <g id="Desktop" sketch:type="MSArtboardGroup" transform="translate(-102.000000, -1229.000000)">
            <g id="Imported-Layers-Copy-8" sketch:type="MSLayerGroup" transform="translate(102.000000, 1229.435670)">
                <path d="M16.4495708,4.88314894 C15.8221839,4.53468743 14.0228411,4.75032729 11.8617547,5.41912336 C8.07946291,8.00445774 4.88705546,11.8133139 4.66438386,17.9293603 C4.62375607,18.0762454 4.25107414,17.9098277 4.17685027,17.8645121 C3.15568617,15.9065647 2.75097079,13.8454852 3.60415457,10.8718428 C3.76275925,10.6069808 3.2431922,10.2811771 3.14943574,10.3741523 C2.96270412,10.5616652 2.1821816,11.3929724 1.66417716,12.2922532 C-0.904749835,16.7488102 0.775053399,22.4593599 5.26989433,24.9579695 C9.76317266,27.461267 15.4377824,25.846312 17.9402985,21.3514711 C20.8342479,16.1636136 18.1465628,5.83165179 16.4495708,4.88314894" id="Fill-1" fill="#7AAC41" sketch:type="MSShapeGroup"></path>
                <path d="M32.5350541,7.37316424 C27.206562,7.37316424 23.339108,11.3343747 23.339108,16.7917819 C23.339108,22.2937235 27.196405,26.136957 32.7202231,26.136957 C35.5102591,26.136957 37.7197863,25.2642406 39.4761573,23.4680231 C40.0011935,22.9015779 40.0574474,22.3562278 40.0574474,22.1468384 C40.0574474,21.2569333 39.395683,20.610795 38.4839014,20.610795 C38.0244948,20.610795 37.6400933,20.7842445 37.199438,21.1920851 C36.2048382,22.1187114 34.8945917,23.066433 32.7202231,23.066433 C29.6965773,23.066433 27.2378141,20.795964 27.083116,17.8809195 L39.1167576,17.8809195 C40.4254415,17.8809195 41.0606415,17.2691586 41.0606415,16.0112594 C41.0606415,15.6409214 41.0606415,15.3729342 40.9864176,14.8455541 C40.3379354,10.1663254 37.1791241,7.37316424 32.5350541,7.37316424 L32.5350541,7.37316424 Z M32.5350541,10.2952406 C35.4243157,10.2952406 37.2775683,12.1359924 37.39242,15.1080722 L27.0870225,15.1080722 C27.3573536,12.3578827 29.6825138,10.2952406 32.5350541,10.2952406 L32.5350541,10.2952406 Z" id="Fill-2" fill="#131412" sketch:type="MSShapeGroup"></path>
                <path d="M52.5528395,7.37316424 C50.1323602,7.37316424 47.7353201,8.76466636 46.7993181,10.697612 L46.7993181,9.50377979 C46.7993181,7.65287101 45.3648443,7.55911455 45.0773245,7.55911455 C44.2280472,7.55911455 43.3193909,8.07008726 43.3193909,9.50377979 L43.3193909,23.9321176 C43.3193909,25.8533437 44.8460585,25.9502254 45.1523296,25.9502254 C45.4578194,25.9502254 46.9852684,25.8533437 46.9852684,23.9321176 L46.9852684,16.1972097 C46.9852684,12.8321341 48.8924311,10.4811909 51.623088,10.4811909 C54.2670201,10.4811909 55.5530462,12.2164667 55.5530462,15.7878065 L55.5530462,23.9321176 C55.5530462,25.8533437 57.0804952,25.9502254 57.3867663,25.9502254 C57.6922561,25.9502254 59.2189238,25.8533437 59.2189238,23.9321176 L59.2189238,14.6353833 C59.2189238,11.1242039 57.4680219,7.37316424 52.5528395,7.37316424" id="Fill-3" fill="#131412" sketch:type="MSShapeGroup"></path>
                <path d="M75.8052228,7.55911455 C74.9582894,7.55911455 74.3441846,8.05367988 73.9777531,9.02562184 L68.9625639,21.6374283 L63.9856585,9.02562184 C63.5957878,8.03883511 62.9863709,7.55911455 62.1206862,7.55911455 C61.1104604,7.55911455 60.2877474,8.34823142 60.2877474,9.31782948 C60.2877474,9.55768975 60.3150931,9.86864868 60.5182321,10.3546197 L66.2819104,23.9641511 C66.9686765,25.6064517 68.0984418,25.9502254 68.9250613,25.9502254 C69.7516807,25.9502254 70.8822274,25.6064517 71.570556,23.9649324 L77.371737,10.2796145 C77.5701882,9.79989394 77.600659,9.44752591 77.600659,9.28032689 C77.600659,8.29979059 76.8279495,7.55911455 75.8052228,7.55911455" id="Fill-4" fill="#131412" sketch:type="MSShapeGroup"></path>
                <path d="M86.464551,7.37316424 C84.1198582,7.37316424 81.936114,8.02633425 80.3164711,9.21079085 C79.7672145,9.58972321 79.5000086,10.062412 79.5000086,10.6569842 C79.5000086,11.4750094 80.1250517,12.1172411 80.9243255,12.1172411 C81.2696618,12.1172411 81.6571885,11.9789503 82.0119004,11.7304957 C83.4041838,10.8023068 84.7128678,10.3694644 86.1293716,10.3694644 C88.8397146,10.3694644 90.3952905,11.7476844 90.3952905,14.1517563 L90.3952905,14.5502212 C84.3112776,14.5564717 78.1233513,15.2916786 78.1233513,20.5842307 C78.1233513,24.3938682 81.3790443,26.0994544 84.6050478,26.0994544 C87.1747561,26.0994544 89.22646,25.0814155 90.5429569,23.153939 L90.5429569,24.0805653 C90.5429569,25.4611292 91.4703646,25.9502254 92.2657319,25.9502254 C92.4329309,25.9502254 93.9119391,25.8978781 93.9119391,24.0805653 L93.9119391,14.3752092 C93.9119391,9.99053207 91.1265909,7.37316424 86.464551,7.37316424 L86.464551,7.37316424 Z M89.6241436,17.2488447 L90.3952905,17.2488447 L90.3952905,18.0934341 C90.3952905,21.1819281 88.4287488,23.1773781 85.3855704,23.1773781 C84.5597322,23.1773781 81.864234,22.9851774 81.864234,20.5100068 C81.864234,17.5871492 86.2926641,17.2488447 89.6241436,17.2488447 L89.6241436,17.2488447 Z" id="Fill-5" fill="#131412" sketch:type="MSShapeGroup"></path>
                <path d="M103.457909,10.8898128 C105.061926,10.8898128 105.143182,9.64207057 105.143182,9.39205334 C105.143182,8.6498147 104.700182,7.85679131 103.457909,7.85679131 L100.160026,7.85679131 L100.160026,4.52062396 C100.160026,3.03067756 99.1927716,2.50173486 98.3645896,2.50173486 C98.0583185,2.50173486 96.5316508,2.59861654 96.5316508,4.52062396 L96.5316508,20.3623404 C96.5316508,24.018061 98.3349,25.9502254 101.747635,25.9502254 C102.630508,25.9502254 103.490724,25.7939646 104.053263,25.5322279 C104.69862,25.2103307 105.068176,24.681388 105.068176,24.0805653 C105.068176,23.233632 104.454072,22.6195272 103.606357,22.6195272 C103.443064,22.6195272 103.210236,22.6593737 102.953968,22.7335975 C102.639884,22.8117279 102.42737,22.8429801 102.194541,22.8429801 C100.806164,22.8429801 100.160026,21.9366676 100.160026,19.9896585 L100.160026,10.8898128 L103.457909,10.8898128" id="Fill-6" fill="#131412" sketch:type="MSShapeGroup"></path>
                <path d="M115.579838,7.37316424 C110.035706,7.37316424 106.012773,11.3031225 106.012773,16.7167767 C106.012773,19.3528959 106.987059,21.7554051 108.755931,23.4813053 C110.51152,25.1939233 112.934343,26.136957 115.579838,26.136957 C121.055215,26.136957 125.184406,22.0874593 125.184406,16.7167767 C125.184406,11.3031225 121.144284,7.37316424 115.579838,7.37316424 L115.579838,7.37316424 Z M115.579838,23.0289304 C111.777232,23.0289304 109.789595,19.8537116 109.789595,16.7167767 C109.789595,12.4071048 112.790584,10.4436883 115.579838,10.4436883 C118.368312,10.4436883 121.370081,12.4071048 121.370081,16.7167767 C121.370081,21.0537943 118.368312,23.0289304 115.579838,23.0289304 L115.579838,23.0289304 Z" id="Fill-7" fill="#131412" sketch:type="MSShapeGroup"></path>
            </g>
        </g>
    </g>
</svg>
