<?xml version="1.0" encoding="UTF-8"?>
<svg xmlns="http://www.w3.org/2000/svg" xmlns:xlink="http://www.w3.org/1999/xlink" width="108px" height="52px" viewBox="0 0 100 48" version="1.1">
<g id="surface1">
<path style=" stroke:none;fill-rule:nonzero;fill:rgb(97.647059%,71.764706%,8.235294%);fill-opacity:1;" d="M 36.699219 16.898438 L 67.898438 16.898438 L 67.898438 47.699219 L 36.699219 47.699219 Z M 36.699219 16.898438 "/>
<path style=" stroke:none;fill-rule:nonzero;fill:rgb(0.784314%,24.705882%,52.941176%);fill-opacity:1;" d="M 68 47.601562 L 36.601562 47.601562 L 36.601562 16.800781 L 68 16.800781 Z M 52.5 37.601562 L 36.601562 24.601562 L 36.601562 27.898438 L 50.898438 39.601562 Z M 52.300781 28.199219 L 68 41 L 68 37.699219 L 54 26.199219 Z M 60.101562 37.601562 L 46.300781 26.300781 L 44.699219 28.300781 L 58.5 39.699219 Z M 10 2.699219 L 4.800781 2.699219 C 4.699219 2.699219 4.601562 2.699219 4.601562 2.800781 C 4.5 2.800781 4.5 2.800781 4.5 3 L 4.5 3.5 C 4.5 3.601562 4.5 3.699219 4.601562 3.699219 C 4.699219 3.800781 4.699219 3.800781 4.800781 3.800781 L 6.800781 3.800781 L 6.800781 10.5 C 6.800781 10.601562 6.800781 10.699219 6.898438 10.699219 C 6.898438 10.800781 7 10.800781 7.101562 10.800781 L 7.800781 10.800781 C 7.898438 10.800781 8 10.800781 8 10.699219 C 8 10.699219 8 10.601562 8 10.5 L 8 3.800781 L 10 3.800781 C 10.101562 3.800781 10.199219 3.800781 10.199219 3.699219 C 10.300781 3.601562 10.300781 3.601562 10.300781 3.5 L 10.300781 3 C 10.300781 2.898438 10.300781 2.800781 10.199219 2.800781 C 10.101562 2.699219 10.101562 2.699219 10 2.699219 Z M 11.101562 10.398438 C 11.101562 10.5 11.101562 10.601562 11.199219 10.601562 C 11.199219 10.699219 11.300781 10.699219 11.398438 10.699219 L 12.101562 10.699219 C 12.199219 10.699219 12.300781 10.699219 12.300781 10.601562 C 12.300781 10.5 12.398438 10.5 12.398438 10.398438 L 12.398438 8 L 14.101562 8 C 14.601562 8 15 7.898438 15.398438 7.800781 C 15.800781 7.699219 16.101562 7.398438 16.300781 7.199219 C 16.5 7 16.699219 6.699219 16.800781 6.398438 C 16.898438 6.101562 17 5.699219 17 5.398438 C 17 5 16.898438 4.699219 16.800781 4.398438 C 16.699219 4.101562 16.5 3.800781 16.300781 3.601562 C 16.101562 3.398438 15.800781 3.199219 15.398438 3 C 15 2.898438 14.601562 2.800781 14.101562 2.800781 L 11.5 2.800781 C 11.398438 2.800781 11.300781 2.800781 11.300781 2.898438 C 11.199219 3 11.199219 3 11.199219 3.101562 L 11.199219 10.601562 L 11.101562 10.601562 Z M 14.101562 3.699219 C 14.601562 3.699219 14.898438 3.800781 15.199219 4.101562 C 15.5 4.398438 15.601562 4.800781 15.601562 5.199219 C 15.601562 5.601562 15.5 6 15.199219 6.300781 C 14.898438 6.601562 14.5 6.699219 14.101562 6.699219 L 12.398438 6.699219 L 12.398438 3.699219 Z M 22.5 10.5 C 22.601562 10.601562 22.601562 10.699219 22.601562 10.699219 C 22.699219 10.800781 22.699219 10.800781 22.800781 10.800781 L 23.601562 10.800781 C 23.699219 10.800781 23.699219 10.800781 23.800781 10.699219 C 23.898438 10.601562 23.898438 10.601562 23.800781 10.5 L 20.601562 3 C 20.5 2.898438 20.5 2.800781 20.5 2.800781 C 20.398438 2.699219 20.398438 2.699219 20.300781 2.699219 L 19.5 2.699219 C 19.398438 2.699219 19.398438 2.699219 19.300781 2.800781 C 19.199219 2.898438 19.199219 2.898438 19.199219 3 L 16.101562 10.5 C 16 10.601562 16 10.601562 16.101562 10.699219 C 16.101562 10.800781 16.199219 10.800781 16.300781 10.800781 L 17.101562 10.800781 C 17.199219 10.800781 17.199219 10.800781 17.300781 10.699219 C 17.398438 10.601562 17.398438 10.601562 17.398438 10.5 L 18.101562 8.699219 L 21.699219 8.699219 Z M 19.898438 4.199219 L 21.300781 7.601562 L 18.601562 7.601562 Z M 24.699219 2.699219 C 24.601562 2.699219 24.5 2.699219 24.5 2.800781 C 24.5 2.898438 24.5 2.800781 24.5 3 L 24.5 10.5 C 24.5 10.601562 24.5 10.699219 24.601562 10.699219 C 24.601562 10.800781 24.699219 10.800781 24.800781 10.800781 L 25.5 10.800781 C 25.601562 10.800781 25.699219 10.800781 25.699219 10.699219 C 25.699219 10.601562 25.800781 10.601562 25.800781 10.5 L 25.800781 3.800781 L 29.5 3.800781 L 29.5 10.5 C 29.5 10.601562 29.5 10.699219 29.601562 10.699219 C 29.601562 10.800781 29.699219 10.800781 29.800781 10.800781 L 30.5 10.800781 C 30.601562 10.800781 30.699219 10.800781 30.699219 10.699219 C 30.800781 10.601562 30.800781 10.601562 30.800781 10.5 L 30.800781 3 C 30.800781 2.898438 30.800781 2.800781 30.699219 2.800781 C 30.601562 2.699219 30.601562 2.699219 30.5 2.699219 C 30.398438 2.699219 24.699219 2.699219 24.699219 2.699219 Z M 32.398438 2.699219 C 32.300781 2.699219 32.199219 2.699219 32.199219 2.800781 C 32.101562 2.898438 32.101562 2.898438 32.101562 3 L 32.101562 10.5 C 32.101562 10.601562 32.101562 10.699219 32.199219 10.699219 C 32.300781 10.800781 32.300781 10.800781 32.398438 10.800781 L 36.398438 10.800781 C 36.5 10.800781 36.601562 10.800781 36.601562 10.699219 C 36.699219 10.601562 36.699219 10.601562 36.699219 10.5 L 36.699219 9.898438 C 36.699219 9.800781 36.699219 9.699219 36.601562 9.699219 C 36.5 9.699219 36.5 9.601562 36.398438 9.601562 L 33.398438 9.601562 L 33.398438 7.101562 L 35.5 7.101562 C 35.601562 7.101562 35.699219 7.101562 35.699219 7 C 35.800781 7 35.800781 7 35.800781 6.800781 L 35.800781 6.300781 C 35.800781 6.199219 35.800781 6.101562 35.699219 6.101562 C 35.601562 6 35.601562 6 35.5 6 L 33.398438 6 L 33.398438 3.800781 L 36.398438 3.800781 C 36.5 3.800781 36.601562 3.800781 36.601562 3.699219 C 36.699219 3.601562 36.699219 3.601562 36.699219 3.5 L 36.699219 3 C 36.699219 2.898438 36.699219 2.800781 36.601562 2.800781 C 36.5 2.699219 36.5 2.699219 36.398438 2.699219 C 36.398438 2.699219 32.398438 2.699219 32.398438 2.699219 Z M 41.5 3.800781 L 37.398438 9.800781 L 37.398438 10.5 C 37.398438 10.601562 37.398438 10.699219 37.5 10.699219 C 37.601562 10.800781 37.601562 10.800781 37.699219 10.800781 L 42.800781 10.800781 C 42.898438 10.800781 43 10.800781 43 10.699219 C 43.101562 10.601562 43.101562 10.601562 43.101562 10.5 L 43.101562 9.898438 C 43.101562 9.800781 43.101562 9.699219 43 9.699219 C 42.898438 9.699219 42.898438 9.601562 42.800781 9.601562 L 38.898438 9.601562 L 43 3.601562 L 43 2.898438 C 43 2.800781 43 2.699219 42.898438 2.699219 C 42.800781 2.601562 42.800781 2.601562 42.699219 2.601562 L 37.898438 2.601562 C 37.800781 2.601562 37.699219 2.601562 37.699219 2.699219 C 37.601562 2.800781 37.601562 2.800781 37.601562 2.898438 L 37.601562 3.398438 C 37.601562 3.5 37.601562 3.601562 37.699219 3.601562 C 37.800781 3.699219 37.800781 3.699219 37.898438 3.699219 Z M 49.898438 10.5 C 50 10.601562 50 10.699219 50 10.699219 C 50.101562 10.800781 50.101562 10.800781 50.199219 10.800781 L 51 10.800781 C 51.101562 10.800781 51.101562 10.800781 51.199219 10.699219 C 51.300781 10.601562 51.300781 10.601562 51.199219 10.5 L 48.101562 3 C 48 2.800781 48 2.800781 48 2.699219 C 47.898438 2.601562 47.898438 2.601562 47.800781 2.601562 L 47 2.601562 C 46.898438 2.601562 46.898438 2.601562 46.800781 2.699219 C 46.699219 2.800781 46.699219 2.800781 46.699219 2.898438 L 43.601562 10.398438 C 43.5 10.5 43.5 10.5 43.601562 10.601562 C 43.601562 10.699219 43.699219 10.699219 43.800781 10.699219 L 44.5 10.699219 C 44.601562 10.699219 44.601562 10.699219 44.699219 10.601562 C 44.800781 10.5 44.800781 10.5 44.800781 10.398438 L 45.5 8.601562 L 49.101562 8.601562 Z M 47.398438 4.199219 L 48.800781 7.601562 L 46 7.601562 Z M 54.398438 2.699219 C 54.300781 2.699219 54.199219 2.699219 54.199219 2.800781 C 54.101562 2.898438 54.101562 2.898438 54.101562 3 L 54.101562 10.5 C 54.101562 10.601562 54.101562 10.699219 54.199219 10.699219 C 54.300781 10.699219 54.300781 10.800781 54.398438 10.800781 L 55.101562 10.800781 C 55.199219 10.800781 55.300781 10.800781 55.300781 10.699219 C 55.398438 10.601562 55.398438 10.601562 55.398438 10.5 L 55.398438 3.800781 L 59.101562 3.800781 L 59.101562 10.5 C 59.101562 10.601562 59.101562 10.699219 59.199219 10.699219 C 59.300781 10.699219 59.300781 10.800781 59.398438 10.800781 L 60 10.800781 C 60.101562 10.800781 60.199219 10.800781 60.199219 10.699219 C 60.300781 10.601562 60.300781 10.601562 60.300781 10.5 L 60.300781 3 C 60.300781 2.898438 60.300781 2.800781 60.199219 2.800781 C 60.101562 2.699219 60.101562 2.699219 60 2.699219 C 60 2.699219 54.398438 2.699219 54.398438 2.699219 Z M 62.101562 2.699219 C 62 2.699219 61.898438 2.699219 61.898438 2.800781 C 61.898438 2.898438 61.800781 2.898438 61.800781 3 L 61.800781 10.5 C 61.800781 10.601562 61.800781 10.699219 61.898438 10.699219 C 62 10.800781 62 10.800781 62.101562 10.800781 L 66.101562 10.800781 C 66.199219 10.800781 66.300781 10.800781 66.300781 10.699219 C 66.398438 10.601562 66.398438 10.601562 66.398438 10.5 L 66.398438 9.898438 C 66.398438 9.800781 66.398438 9.699219 66.300781 9.699219 C 66.199219 9.699219 66.199219 9.601562 66.101562 9.601562 L 63.101562 9.601562 L 63.101562 7.101562 L 65.199219 7.101562 C 65.300781 7.101562 65.398438 7.101562 65.398438 7 C 65.398438 7 65.398438 7 65.398438 6.800781 L 65.398438 6.300781 C 65.398438 6.199219 65.398438 6.101562 65.300781 6.101562 C 65.300781 6 65.199219 6 65.101562 6 L 63 6 L 63 3.800781 L 66 3.800781 C 66.101562 3.800781 66.199219 3.800781 66.199219 3.699219 C 66.300781 3.601562 66.300781 3.601562 66.300781 3.5 L 66.300781 3 C 66.300781 2.898438 66.300781 2.800781 66.199219 2.800781 C 66.101562 2.699219 66.101562 2.699219 66 2.699219 C 66.101562 2.699219 62.101562 2.699219 62.101562 2.699219 Z M 67.5 10.398438 C 67.5 10.5 67.5 10.601562 67.601562 10.601562 C 67.699219 10.601562 67.699219 10.699219 67.800781 10.699219 L 68.5 10.699219 C 68.601562 10.699219 68.699219 10.699219 68.699219 10.601562 C 68.699219 10.5 68.800781 10.5 68.800781 10.398438 L 68.800781 3 C 68.800781 2.898438 68.800781 2.800781 68.699219 2.800781 C 68.601562 2.800781 68.601562 2.699219 68.5 2.699219 L 67.800781 2.699219 C 67.699219 2.699219 67.601562 2.699219 67.601562 2.800781 C 67.601562 2.898438 67.5 2.898438 67.5 3 Z M 70.199219 10.398438 C 70.199219 10.5 70.199219 10.601562 70.300781 10.601562 C 70.398438 10.699219 70.398438 10.699219 70.5 10.699219 L 71.199219 10.699219 C 71.300781 10.699219 71.398438 10.699219 71.398438 10.601562 C 71.398438 10.5 71.5 10.5 71.5 10.398438 L 71.5 8 L 73.199219 8 C 73.699219 8 74.101562 7.898438 74.5 7.800781 C 74.898438 7.699219 75.199219 7.398438 75.398438 7.199219 C 75.601562 7 75.800781 6.699219 75.898438 6.398438 C 75.898438 6 76 5.601562 76 5.300781 C 76 4.898438 75.898438 4.601562 75.800781 4.300781 C 75.699219 4 75.5 3.699219 75.300781 3.5 C 75.101562 3.300781 74.800781 3.101562 74.398438 2.898438 C 74 2.800781 73.601562 2.699219 73.101562 2.699219 L 70.5 2.699219 C 70.398438 2.699219 70.300781 2.699219 70.300781 2.800781 C 70.199219 2.898438 70.199219 2.898438 70.199219 3 Z M 73.199219 3.699219 C 73.699219 3.699219 74.101562 3.800781 74.300781 4.101562 C 74.601562 4.398438 74.699219 4.800781 74.699219 5.199219 C 74.699219 5.601562 74.601562 6 74.300781 6.300781 C 74 6.601562 73.601562 6.699219 73.199219 6.699219 L 71.5 6.699219 L 71.5 3.699219 Z M 81.601562 10.5 C 81.699219 10.601562 81.699219 10.699219 81.699219 10.699219 C 81.800781 10.800781 81.800781 10.800781 81.898438 10.800781 L 82.699219 10.800781 C 82.800781 10.800781 82.800781 10.800781 82.898438 10.699219 C 83 10.601562 83 10.601562 82.898438 10.5 L 79.699219 3 C 79.601562 2.898438 79.601562 2.800781 79.601562 2.800781 C 79.5 2.699219 79.5 2.699219 79.398438 2.699219 L 78.601562 2.699219 C 78.5 2.699219 78.5 2.699219 78.398438 2.800781 C 78.300781 2.898438 78.300781 2.898438 78.300781 3 L 75.199219 10.5 C 75.101562 10.601562 75.101562 10.601562 75.199219 10.699219 C 75.300781 10.800781 75.300781 10.800781 75.398438 10.800781 L 76.199219 10.800781 C 76.300781 10.800781 76.300781 10.800781 76.398438 10.699219 C 76.5 10.601562 76.5 10.601562 76.5 10.5 L 77.199219 8.699219 L 80.800781 8.699219 Z M 79 4.199219 L 80.398438 7.601562 L 77.699219 7.601562 Z M 83.601562 10.398438 C 83.601562 10.5 83.601562 10.601562 83.699219 10.601562 C 83.800781 10.699219 83.800781 10.699219 83.898438 10.699219 L 84.601562 10.699219 C 84.699219 10.699219 84.800781 10.699219 84.800781 10.601562 C 84.898438 10.5 84.898438 10.5 84.898438 10.398438 L 84.898438 3 C 84.898438 2.898438 84.898438 2.800781 84.800781 2.800781 C 84.699219 2.699219 84.699219 2.699219 84.601562 2.699219 L 83.898438 2.699219 C 83.800781 2.699219 83.699219 2.699219 83.699219 2.800781 C 83.601562 2.898438 83.601562 2.898438 83.601562 3 Z M 86.101562 9.601562 C 86 9.601562 85.898438 9.601562 85.898438 9.699219 C 85.800781 9.800781 85.800781 9.800781 85.800781 9.898438 L 85.800781 10.398438 C 85.800781 10.5 85.800781 10.601562 85.898438 10.601562 C 86 10.699219 86 10.699219 86.101562 10.699219 L 89 10.699219 C 89.101562 10.699219 89.199219 10.699219 89.199219 10.601562 C 89.300781 10.5 89.300781 10.5 89.300781 10.398438 L 89.300781 9.800781 C 88.601562 9.300781 88.199219 8.800781 87.898438 8.300781 C 87.601562 7.800781 87.5 7.199219 87.5 6.601562 C 87.5 6.101562 87.601562 5.699219 87.699219 5.398438 C 87.800781 5 88 4.699219 88.199219 4.5 C 88.398438 4.300781 88.699219 4.101562 89 4 C 89.300781 3.898438 89.601562 3.800781 90 3.800781 C 90.398438 3.800781 90.699219 3.898438 91 4 C 91 4 91.300781 4.199219 91.5 4.5 C 91.699219 4.800781 91.898438 5 92 5.300781 C 92.101562 5.601562 92.199219 6.101562 92.199219 6.5 C 92.199219 7.199219 92.101562 7.800781 91.800781 8.199219 C 91.5 8.699219 91.101562 9.199219 90.398438 9.699219 L 90.398438 10.398438 C 90.398438 10.5 90.398438 10.601562 90.5 10.601562 C 90.5 10.699219 90.601562 10.699219 90.699219 10.699219 L 93.601562 10.699219 C 93.699219 10.699219 93.800781 10.699219 93.800781 10.601562 C 93.800781 10.5 93.898438 10.5 93.898438 10.398438 L 93.898438 9.898438 C 93.898438 9.800781 93.898438 9.699219 93.800781 9.699219 C 93.800781 9.601562 93.699219 9.601562 93.601562 9.601562 L 92 9.601562 C 92.199219 9.398438 92.398438 9.199219 92.5 9 C 92.699219 8.800781 92.800781 8.5 93 8.199219 C 93.101562 7.898438 93.199219 7.601562 93.300781 7.300781 C 93.398438 7 93.398438 6.601562 93.398438 6.300781 C 93.398438 5.800781 93.300781 5.300781 93.199219 4.898438 C 93 4.5 92.800781 4 92.5 3.699219 C 92.199219 3.300781 91.800781 3 91.398438 2.898438 C 90.898438 2.699219 90.398438 2.601562 89.800781 2.601562 C 89.199219 2.601562 88.699219 2.699219 88.199219 2.898438 C 87.699219 3.101562 87.398438 3.398438 87.101562 3.699219 C 86.800781 4 86.601562 4.5 86.398438 4.898438 C 86.199219 5.398438 86.199219 5.898438 86.199219 6.300781 C 86.199219 6.699219 86.300781 7 86.300781 7.300781 C 86.398438 7.601562 86.5 8 86.601562 8.199219 C 86.699219 8.5 86.898438 8.699219 87.101562 9 C 87.300781 9.199219 87.5 9.398438 87.601562 9.601562 Z M 98 6.699219 C 98.101562 6.601562 98.101562 6.601562 98.101562 6.5 C 98.101562 6.398438 98.101562 6.398438 98 6.300781 L 95.898438 3.699219 L 99.5 3.699219 C 99.601562 3.699219 99.699219 3.699219 99.699219 3.601562 C 99.800781 3.5 99.800781 3.5 99.800781 3.398438 L 99.800781 2.898438 C 99.800781 2.800781 99.800781 2.699219 99.699219 2.699219 C 99.601562 2.601562 99.601562 2.601562 99.5 2.601562 L 94.699219 2.601562 C 94.601562 2.601562 94.5 2.601562 94.5 2.699219 C 94.398438 2.800781 94.398438 2.800781 94.398438 2.898438 L 94.398438 3.601562 L 96.699219 6.601562 L 94.300781 9.800781 L 94.300781 10.5 C 94.300781 10.601562 94.300781 10.699219 94.398438 10.699219 C 94.5 10.800781 94.5 10.800781 94.601562 10.800781 L 99.699219 10.800781 C 99.800781 10.800781 99.898438 10.800781 99.898438 10.699219 C 100 10.601562 100 10.601562 100 10.5 L 100 9.898438 C 100 9.800781 100 9.699219 99.898438 9.699219 C 99.800781 9.601562 99.800781 9.601562 99.699219 9.601562 L 95.898438 9.601562 Z M 98 6.699219 "/>
</g>
</svg>
