<svg xmlns="http://www.w3.org/2000/svg" xmlns:xlink="http://www.w3.org/1999/xlink" version="1.1" width="748.1007752854923" height="359.1937977160609" enable-background="new 0 0 1190.551 841.89" xml:space="preserve"><rect id="backgroundrect" width="100px" height="148px" x="0" y="0" fill="none" stroke="none" class="" style=""/>


<g class="currentLayer" style=""><title>Layer 1</title><rect x="258.4193991422653" y="118.51476418972015" fill="#F9B715" width="220" height="217" id="svg_1" class=""/><path fill="#023F87" d="M478.5862092428207,335.1165612668991 H257.70020924282073 V118.01756126689912 h220.886 V335.1165612668991 zM369.6162092428208,264.8545612668991 l-111.916,-91.721 v23.141 l100.556,82.465 L369.6162092428208,264.8545612668991 zM368.35420924282073,198.37756126689914 l110.232,90.459 v-23.141 l-98.872,-80.781 L368.35420924282073,198.37756126689914 zM423.4702092428207,264.8545612668991 l-97.61,-79.939 l-11.359,13.883000000000001 l97.189,79.941 L423.4702092428207,264.8545612668991 zM70.05320924282074,18.533561266899113 h-36.183 c-0.8420000000000006,0 -1.263,0 -1.6840000000000006,0.4210000000000003 c-0.4200000000000003,0.4210000000000003 -0.4200000000000003,0.8410000000000006 -0.4200000000000003,1.6830000000000007 v3.787 c0,0.8410000000000006 0,1.262 0.4200000000000003,1.6830000000000007 c0.4210000000000003,0.4210000000000003 0.8420000000000006,0.4210000000000003 1.6840000000000006,0.4210000000000003 h13.884 v47.122 c0,0.8420000000000006 0,1.262 0.4210000000000003,1.6830000000000007 c0,0.4210000000000003 0.8420000000000006,0.4210000000000003 1.263,0.4210000000000003 h5.049 c0.8410000000000006,0 1.262,0 1.262,-0.4210000000000003 c0.4210000000000003,-0.4210000000000003 0.4210000000000003,-0.8410000000000006 0.4210000000000003,-1.6830000000000007 v-47.122 h13.884 c0.8420000000000006,0 1.263,0 1.6830000000000007,-0.4210000000000003 c0.4210000000000003,-0.4200000000000003 0.4210000000000003,-0.8410000000000006 0.4210000000000003,-1.6830000000000007 v-3.787 c0,-0.8420000000000006 0,-1.262 -0.4210000000000003,-1.6830000000000007 C71.31620924282072,18.954561266899105 70.89520924282073,18.533561266899113 70.05320924282074,18.533561266899113 zM78.46820924282076,73.22956126689911 c0,0.8410000000000006 0,1.262 0.4210000000000003,1.6830000000000007 c0,0.4210000000000003 0.8410000000000006,0.4210000000000003 1.262,0.4210000000000003 h5.049 c0.8420000000000006,0 1.263,0 1.6830000000000007,-0.4210000000000003 c0,-0.4200000000000003 0.4210000000000003,-0.8410000000000006 0.4210000000000003,-1.6830000000000007 v-17.25 h12.201 c3.366,0 6.312,-0.4200000000000003 8.836,-1.6830000000000007 c2.524,-0.8420000000000006 4.628,-2.524 6.311,-4.208 c1.6840000000000006,-1.6830000000000007 2.9450000000000003,-3.787 3.366,-5.8900000000000015 c0.8420000000000006,-2.104 1.262,-4.628 1.262,-7.152 s-0.4200000000000003,-4.628 -1.262,-6.732 s-2.104,-4.208 -3.366,-5.8900000000000015 c-1.6830000000000007,-1.6830000000000007 -3.786,-2.9450000000000003 -6.311,-4.208 c-2.524,-0.8410000000000006 -5.47,-1.6830000000000007 -8.836,-1.6830000000000007 h-18.512 c-0.8420000000000006,0 -1.263,0 -1.263,0.4210000000000003 c-0.4210000000000003,0.4210000000000003 -0.4210000000000003,0.8410000000000006 -0.4210000000000003,1.6830000000000007 v52.592 H78.46820924282076 zM99.08320924282071,26.107561266899097 c3.366,0 5.891,0.8420000000000006 7.994,2.9450000000000003 s2.9450000000000003,4.628 2.9450000000000003,7.994 c0,3.366 -0.8420000000000006,5.8900000000000015 -2.9450000000000003,7.994 c-2.104,2.104 -4.628,2.9450000000000003 -7.994,2.9450000000000003 h-12.201 v-21.878 H99.08320924282071 zM158.40720924282073,73.64956126689913 c0.4210000000000003,0.8420000000000006 0.4210000000000003,1.262 0.8420000000000006,1.6830000000000007 c0.4200000000000003,0.4210000000000003 0.8410000000000006,0.4210000000000003 1.262,0.4210000000000003 h5.47 c0.4210000000000003,0 0.8410000000000006,0 1.262,-0.4210000000000003 s0.4210000000000003,-0.8410000000000006 0,-1.262 l-21.878,-53.013 c-0.4210000000000003,-0.8410000000000006 -0.4210000000000003,-1.262 -0.8420000000000006,-1.6830000000000007 c-0.4200000000000003,-0.4210000000000003 -0.8410000000000006,-0.4210000000000003 -1.262,-0.4210000000000003 h-5.47 c-0.4210000000000003,0 -0.8420000000000006,0 -1.262,0.4210000000000003 c-0.4210000000000003,0.4200000000000003 -0.4210000000000003,0.8410000000000006 -0.8420000000000006,1.6830000000000007 l-21.878,53.013 c-0.4210000000000003,0.4210000000000003 -0.4210000000000003,0.8410000000000006 0,1.262 c0,0.4210000000000003 0.4200000000000003,0.4210000000000003 1.262,0.4210000000000003 h5.47 c0.4210000000000003,0 0.8420000000000006,0 1.262,-0.4210000000000003 c0.4210000000000003,-0.4210000000000003 0.4210000000000003,-0.8410000000000006 0.8420000000000006,-1.6830000000000007 l5.049,-12.622 h25.665 L158.40720924282073,73.64956126689913 zM140.31620924282072,29.473561266899083 l9.677,23.981 h-19.354 L140.31620924282072,29.473561266899083 zM173.97520924282077,18.533561266899113 c-0.8420000000000006,0 -1.263,0 -1.263,0.4210000000000003 s-0.4210000000000003,0.8410000000000006 -0.4210000000000003,1.6830000000000007 v52.592 c0,0.8410000000000006 0,1.262 0.4210000000000003,1.6830000000000007 c0,0.4210000000000003 0.8420000000000006,0.4210000000000003 1.263,0.4210000000000003 h5.049 c0.8410000000000006,0 1.262,0 1.6830000000000007,-0.4210000000000003 c0,-0.4200000000000003 0.4210000000000003,-0.8410000000000006 0.4210000000000003,-1.6830000000000007 v-46.702 h26.085 v47.122 c0,0.8420000000000006 0,1.262 0.4210000000000003,1.6830000000000007 c0,0.4210000000000003 0.8420000000000006,0.4210000000000003 1.263,0.4210000000000003 h5.049 c0.8410000000000006,0 1.262,0 1.262,-0.4210000000000003 c0.4210000000000003,-0.4210000000000003 0.4210000000000003,-0.8410000000000006 0.4210000000000003,-1.6830000000000007 v-53.012 c0,-0.8420000000000006 0,-1.262 -0.4210000000000003,-1.6830000000000007 s-0.8420000000000006,-0.4210000000000003 -1.262,-0.4210000000000003 H173.97520924282077 zM228.2492092428207,18.533561266899113 c-0.8420000000000006,0 -1.262,0 -1.262,0.4210000000000003 c-0.4210000000000003,0.4210000000000003 -0.4210000000000003,0.8410000000000006 -0.4210000000000003,1.6830000000000007 v52.592 c0,0.8410000000000006 0,1.262 0.4210000000000003,1.6830000000000007 c0.4200000000000003,0.4210000000000003 0.8410000000000006,0.4210000000000003 1.262,0.4210000000000003 h28.189 c0.8410000000000006,0 1.262,0 1.6830000000000007,-0.4210000000000003 c0.4210000000000003,-0.4200000000000003 0.4210000000000003,-0.8410000000000006 0.4210000000000003,-1.6830000000000007 v-3.787 c0,-0.8420000000000006 0,-1.262 -0.4210000000000003,-1.6830000000000007 s-0.8420000000000006,-0.4210000000000003 -1.6830000000000007,-0.4210000000000003 h-21.458 v-17.25 h14.726 c0.8420000000000006,0 1.263,0 1.6840000000000006,-0.4200000000000003 c0.4210000000000003,-0.4210000000000003 0.4210000000000003,-0.8420000000000006 0.4210000000000003,-1.6830000000000007 v-3.787 c0,-0.8420000000000006 0,-1.262 -0.4210000000000003,-1.6830000000000007 c-0.4210000000000003,-0.4200000000000003 -0.8420000000000006,-0.4200000000000003 -1.6840000000000006,-0.4200000000000003 h-14.726 v-15.567 h21.458 c0.8410000000000006,0 1.262,0 1.6830000000000007,-0.4210000000000003 c0.4210000000000003,-0.4200000000000003 0.4210000000000003,-0.8410000000000006 0.4210000000000003,-1.6830000000000007 v-3.787 c0,-0.8420000000000006 0,-1.262 -0.4210000000000003,-1.6830000000000007 s-0.8420000000000006,-0.4210000000000003 -1.6830000000000007,-0.4210000000000003 H228.2492092428207 zM292.20020924282073,26.527561266899113 l-29.03,42.073 v4.628 c0,0.8410000000000006 0,1.262 0.4210000000000003,1.6830000000000007 c0.4210000000000003,0.4210000000000003 0.8420000000000006,0.4210000000000003 1.6830000000000007,0.4210000000000003 h35.763 c0.8420000000000006,0 1.262,0 1.6830000000000007,-0.4210000000000003 c0.4210000000000003,-0.4200000000000003 0.4210000000000003,-0.8410000000000006 0.4210000000000003,-1.6830000000000007 v-3.787 c0,-0.8420000000000006 0,-1.262 -0.4210000000000003,-1.6830000000000007 s-0.8410000000000006,-0.4210000000000003 -1.6830000000000007,-0.4210000000000003 h-27.348 l29.03,-42.494 v-4.628 c0,-0.8410000000000006 0,-1.262 -0.4210000000000003,-1.6830000000000007 c-0.4200000000000003,-0.4200000000000003 -0.8410000000000006,-0.4200000000000003 -1.6830000000000007,-0.4200000000000003 h-33.658 c-0.8420000000000006,0 -1.263,0 -1.6840000000000006,0.4200000000000003 c-0.4210000000000003,0.4210000000000003 -0.4210000000000003,0.8420000000000006 -0.4210000000000003,1.6830000000000007 v3.787 c0,0.8410000000000006 0,1.262 0.4210000000000003,1.6830000000000007 c0.4210000000000003,0.4200000000000003 0.8420000000000006,0.4200000000000003 1.6840000000000006,0.4200000000000003 h25.243 V26.527561266899113 zM351.5242092428207,73.64956126689913 c0.4210000000000003,0.8420000000000006 0.4210000000000003,1.262 0.8410000000000006,1.6830000000000007 c0.4210000000000003,0.4210000000000003 0.8420000000000006,0.4210000000000003 1.263,0.4210000000000003 h5.47 c0.4210000000000003,0 0.8410000000000006,0 1.262,-0.4210000000000003 s0.4210000000000003,-0.8410000000000006 0,-1.262 l-21.878,-53.433 c-0.4210000000000003,-0.8420000000000006 -0.4210000000000003,-1.262 -0.8420000000000006,-1.6830000000000007 c-0.4200000000000003,-0.4210000000000003 -0.8410000000000006,-0.4210000000000003 -1.262,-0.4210000000000003 h-5.47 c-0.4210000000000003,0 -0.8420000000000006,0 -1.263,0.4210000000000003 c-0.4200000000000003,0.4210000000000003 -0.4200000000000003,0.8410000000000006 -0.8410000000000006,1.6830000000000007 l-21.878,53.012 c-0.4210000000000003,0.4210000000000003 -0.4210000000000003,0.8420000000000006 0,1.262 c0,0.4210000000000003 0.4200000000000003,0.4210000000000003 1.262,0.4210000000000003 h5.049 c0.4210000000000003,0 0.8420000000000006,0 1.263,-0.4210000000000003 c0.4200000000000003,-0.4200000000000003 0.4200000000000003,-0.8410000000000006 0.8410000000000006,-1.6830000000000007 l5.049,-12.622 h25.665 L351.5242092428207,73.64956126689913 zM333.4332092428208,29.473561266899083 l9.677,23.981 h-19.354 L333.4332092428208,29.473561266899083 zM383.07920924282075,18.533561266899113 c-0.8410000000000006,0 -1.262,0 -1.262,0.4210000000000003 c-0.4210000000000003,0.4210000000000003 -0.4210000000000003,0.8410000000000006 -0.4210000000000003,1.6830000000000007 v52.592 c0,0.8410000000000006 0,1.262 0.4210000000000003,1.6830000000000007 c0.4210000000000003,0.4210000000000003 0.8410000000000006,0.4210000000000003 1.262,0.4210000000000003 h5.049 c0.8420000000000006,0 1.263,0 1.263,-0.4210000000000003 c0.4210000000000003,-0.4200000000000003 0.4210000000000003,-0.8410000000000006 0.4210000000000003,-1.6830000000000007 v-46.702 h26.085 v47.122 c0,0.8420000000000006 0,1.262 0.4210000000000003,1.6830000000000007 s0.8420000000000006,0.4210000000000003 1.262,0.4210000000000003 h5.049 c0.8420000000000006,0 1.263,0 1.263,-0.4210000000000003 c0.4210000000000003,-0.4210000000000003 0.4210000000000003,-0.8410000000000006 0.4210000000000003,-1.6830000000000007 v-53.012 c0,-0.8420000000000006 0,-1.262 -0.4210000000000003,-1.6830000000000007 s-0.8420000000000006,-0.4210000000000003 -1.263,-0.4210000000000003 H383.07920924282075 zM436.93420924282077,18.533561266899113 c-0.8420000000000006,0 -1.263,0 -1.6840000000000006,0.4210000000000003 c0,0.4210000000000003 -0.4200000000000003,0.8410000000000006 -0.4200000000000003,1.6830000000000007 v52.592 c0,0.8410000000000006 0,1.262 0.4200000000000003,1.6830000000000007 c0.4210000000000003,0.4210000000000003 0.8420000000000006,0.4210000000000003 1.6840000000000006,0.4210000000000003 h28.188 c0.8420000000000006,0 1.263,0 1.6840000000000006,-0.4210000000000003 c0.4210000000000003,-0.4200000000000003 0.4210000000000003,-0.8410000000000006 0.4210000000000003,-1.6830000000000007 v-3.787 c0,-0.8420000000000006 0,-1.262 -0.4210000000000003,-1.6830000000000007 s-0.8420000000000006,-0.4210000000000003 -1.6840000000000006,-0.4210000000000003 h-21.457 v-17.25 h14.726 c0.8420000000000006,0 1.263,0 1.6830000000000007,-0.4200000000000003 c0.4210000000000003,-0.4210000000000003 0.4210000000000003,-0.8420000000000006 0.4210000000000003,-1.6830000000000007 v-3.787 c0,-0.8420000000000006 0,-1.262 -0.4210000000000003,-1.6830000000000007 c-0.4200000000000003,-0.4200000000000003 -0.8410000000000006,-0.4200000000000003 -1.6830000000000007,-0.4200000000000003 h-14.726 v-15.567 h21.457 c0.8420000000000006,0 1.263,0 1.6840000000000006,-0.4210000000000003 c0.4210000000000003,-0.4200000000000003 0.4210000000000003,-0.8410000000000006 0.4210000000000003,-1.6830000000000007 v-3.787 c0,-0.8420000000000006 0,-1.262 -0.4210000000000003,-1.6830000000000007 s-0.8420000000000006,-0.4210000000000003 -1.6840000000000006,-0.4210000000000003 H436.93420924282077 zM475.2202092428207,73.22956126689911 c0,0.8410000000000006 0,1.262 0.4210000000000003,1.6830000000000007 c0.4210000000000003,0.4210000000000003 0.8420000000000006,0.4210000000000003 1.6840000000000006,0.4210000000000003 h5.049 c0.8410000000000006,0 1.262,0 1.262,-0.4210000000000003 c0,-0.4200000000000003 0.4210000000000003,-0.8410000000000006 0.4210000000000003,-1.6830000000000007 v-52.592 c0,-0.8420000000000006 0,-1.262 -0.4210000000000003,-1.6830000000000007 s-0.8410000000000006,-0.4210000000000003 -1.262,-0.4210000000000003 h-5.049 c-0.8420000000000006,0 -1.263,0 -1.6840000000000006,0.4210000000000003 c0,0.4210000000000003 -0.4210000000000003,0.8410000000000006 -0.4210000000000003,1.6830000000000007 V73.22956126689911 zM494.57420924282076,73.22956126689911 c0,0.8410000000000006 0,1.262 0.4210000000000003,1.6830000000000007 c0.4200000000000003,0.4210000000000003 0.8410000000000006,0.4210000000000003 1.262,0.4210000000000003 h5.049 c0.8420000000000006,0 1.263,0 1.263,-0.4210000000000003 c0,-0.4200000000000003 0.4210000000000003,-0.8410000000000006 0.4210000000000003,-1.6830000000000007 v-17.25 h12.201 c3.365,0 6.311,-0.4200000000000003 8.835,-1.6830000000000007 c2.524,-0.8420000000000006 4.628,-2.524 6.312,-4.208 c1.6830000000000007,-1.6830000000000007 2.944,-3.787 3.365,-5.8900000000000015 c0.8420000000000006,-2.104 1.263,-4.628 1.263,-7.152 s-0.4210000000000003,-4.628 -1.263,-6.732 c-0.8410000000000006,-2.104 -2.104,-4.208 -3.365,-5.8900000000000015 c-1.6840000000000006,-1.6830000000000007 -3.787,-2.9450000000000003 -6.312,-4.208 c-2.524,-0.8410000000000006 -5.47,-1.6830000000000007 -8.835,-1.6830000000000007 H496.6782092428207 c-0.8420000000000006,0 -1.263,0 -1.263,0.4210000000000003 c-0.4200000000000003,0.4210000000000003 -0.4200000000000003,0.8410000000000006 -0.4200000000000003,1.6830000000000007 v52.592 H494.57420924282076 zM515.1912092428207,26.107561266899097 c3.365,0 6.311,0.8420000000000006 7.993,2.9450000000000003 c2.104,2.104 2.9450000000000003,4.628 2.9450000000000003,7.994 c0,3.366 -0.8410000000000006,5.8900000000000015 -2.9450000000000003,7.994 c-2.104,2.104 -4.628,2.9450000000000003 -7.993,2.9450000000000003 H502.98820924282074 v-21.878 H515.1912092428207 zM574.5142092428207,73.64956126689913 c0.4210000000000003,0.8420000000000006 0.4210000000000003,1.262 0.8410000000000006,1.6830000000000007 c0.4210000000000003,0.4210000000000003 0.8420000000000006,0.4210000000000003 1.263,0.4210000000000003 h5.47 c0.4210000000000003,0 0.8420000000000006,0 1.262,-0.4210000000000003 c0.4210000000000003,-0.4210000000000003 0.4210000000000003,-0.8410000000000006 0,-1.262 l-21.878,-53.433 c-0.4210000000000003,-0.8420000000000006 -0.4210000000000003,-1.262 -0.8420000000000006,-1.6830000000000007 c-0.4200000000000003,-0.4210000000000003 -0.8410000000000006,-0.4210000000000003 -1.262,-0.4210000000000003 h-5.47 c-0.4210000000000003,0 -0.8420000000000006,0 -1.262,0.4210000000000003 c-0.4210000000000003,0.4210000000000003 -0.4210000000000003,0.8410000000000006 -0.8420000000000006,1.6830000000000007 l-21.878,53.012 c-0.4210000000000003,0.4210000000000003 -0.4210000000000003,0.8420000000000006 0,1.262 c0.4210000000000003,0.4210000000000003 0.4210000000000003,0.4210000000000003 1.262,0.4210000000000003 h5.47 c0.4210000000000003,0 0.8420000000000006,0 1.262,-0.4210000000000003 c0.4210000000000003,-0.4200000000000003 0.4210000000000003,-0.8410000000000006 0.8420000000000006,-1.6830000000000007 l5.049,-12.622 h25.665 L574.5142092428207,73.64956126689913 zM556.4222092428207,29.473561266899083 l9.677,23.981 h-19.354 L556.4222092428207,29.473561266899083 zM588.3982092428207,73.22956126689911 c0,0.8410000000000006 0,1.262 0.4210000000000003,1.6830000000000007 c0.4210000000000003,0.4210000000000003 0.8420000000000006,0.4210000000000003 1.263,0.4210000000000003 h5.049 c0.8410000000000006,0 1.262,0 1.262,-0.4210000000000003 c0.4210000000000003,-0.4200000000000003 0.4210000000000003,-0.8410000000000006 0.4210000000000003,-1.6830000000000007 v-52.592 c0,-0.8420000000000006 0,-1.262 -0.4210000000000003,-1.6830000000000007 s-0.8420000000000006,-0.4210000000000003 -1.262,-0.4210000000000003 h-5.049 c-0.8420000000000006,0 -1.263,0 -1.263,0.4210000000000003 c-0.4210000000000003,0.4210000000000003 -0.4210000000000003,0.8410000000000006 -0.4210000000000003,1.6830000000000007 V73.22956126689911 zM606.0682092428208,67.75956126689908 c-0.8410000000000006,0 -1.262,0 -1.262,0.4210000000000003 c-0.4210000000000003,0.4200000000000003 -0.4210000000000003,0.8410000000000006 -0.4210000000000003,1.6830000000000007 v3.366 c0,0.8410000000000006 0,1.262 0.4210000000000003,1.6830000000000007 c0.4210000000000003,0.4210000000000003 0.8410000000000006,0.4210000000000003 1.262,0.4210000000000003 h20.195 c0.8420000000000006,0 1.263,0 1.263,-0.4210000000000003 c0.4210000000000003,-0.4200000000000003 0.4210000000000003,-0.8410000000000006 0.4210000000000003,-1.6830000000000007 v-4.628 c-4.628,-3.366 -7.573,-6.731 -9.677,-10.518 c-2.104,-3.787 -2.9450000000000003,-7.573 -2.9450000000000003,-12.202 c0,-3.366 0.4200000000000003,-6.311 1.262,-8.415 c0.8420000000000006,-2.524 2.104,-4.628 3.366,-6.311 c1.6830000000000007,-1.6830000000000007 3.366,-2.9450000000000003 5.47,-3.787 c2.104,-0.8410000000000006 4.207,-1.262 6.731,-1.262 s4.628,0.4210000000000003 6.731,1.262 c2.104,0.8420000000000006 3.787,2.104 5.47,3.787 c1.6830000000000007,1.6830000000000007 2.524,3.787 3.366,6.311 s1.262,5.47 1.262,8.415 c0,4.628 -0.8410000000000006,8.836 -2.944,12.202 c-2.104,3.787 -5.049,7.152 -9.678,10.518 v4.628 c0,0.8410000000000006 0,1.262 0.4210000000000003,1.6830000000000007 c0,0.4210000000000003 0.8420000000000006,0.4210000000000003 1.263,0.4210000000000003 h20.195 c0.8410000000000006,0 1.262,0 1.262,-0.4210000000000003 c0,-0.4200000000000003 0.4210000000000003,-0.8410000000000006 0.4210000000000003,-1.6830000000000007 v-3.366 c0,-0.8410000000000006 0,-1.262 -0.4210000000000003,-1.6830000000000007 c0,-0.4210000000000003 -0.8410000000000006,-0.4210000000000003 -1.262,-0.4210000000000003 h-10.519 c1.262,-1.262 2.524,-2.524 3.786,-4.208 c1.263,-1.6830000000000007 2.104,-3.366 3.366,-5.469 c0.8420000000000006,-2.104 1.6830000000000007,-4.208 2.104,-6.311 s0.8420000000000006,-4.628 0.8420000000000006,-7.152 c0,-3.787 -0.4210000000000003,-7.1530000000000005 -1.6830000000000007,-10.098 c-1.263,-3.366 -2.9450000000000003,-6.312 -5.049,-8.415 c-2.104,-2.524 -5.049,-4.628 -7.994,-5.8900000000000015 c-3.366,-1.6830000000000007 -6.731,-2.104 -10.939,-2.104 c-4.207,0 -7.994,0.8410000000000006 -11.359,2.104 c-3.366,1.262 -5.891,3.366 -7.994,5.8900000000000015 s-3.786,5.47 -5.049,8.415 c-1.263,3.366 -1.6830000000000007,6.731 -1.6830000000000007,10.098 c0,2.524 0.4200000000000003,5.049 0.8410000000000006,7.152 s1.263,4.628 2.104,6.311 c0.8410000000000006,2.104 2.104,3.787 3.365,5.469 c1.263,1.6830000000000007 2.524,2.9450000000000003 3.787,4.208 H606.0682092428208 L606.0682092428208,67.75956126689908 zM690.2162092428207,47.14456126689913 c0.4210000000000003,-0.4210000000000003 0.4210000000000003,-0.8420000000000006 0.4210000000000003,-1.263 c0,-0.4200000000000003 0,-0.8410000000000006 -0.4210000000000003,-1.262 l-14.726,-18.513 h25.243 c0.8420000000000006,0 1.263,0 1.6840000000000006,-0.4200000000000003 c0.4210000000000003,-0.4210000000000003 0.4210000000000003,-0.8420000000000006 0.4210000000000003,-1.6830000000000007 v-3.787 c0,-0.8410000000000006 0,-1.262 -0.4210000000000003,-1.6830000000000007 c-0.4210000000000003,-0.4200000000000003 -0.8420000000000006,-0.4200000000000003 -1.6840000000000006,-0.4200000000000003 h-34.079 c-0.8410000000000006,0 -1.262,0 -1.6830000000000007,0.4200000000000003 c-0.4210000000000003,0.4210000000000003 -0.4210000000000003,0.8420000000000006 -0.4210000000000003,1.6830000000000007 v4.628 l16.408,21.037 l-16.829,22.72 v4.628 c0,0.8410000000000006 0,1.262 0.4210000000000003,1.6830000000000007 c0.4210000000000003,0.4210000000000003 0.8420000000000006,0.4210000000000003 1.263,0.4210000000000003 h36.183 c0.8420000000000006,0 1.263,0 1.6830000000000007,-0.4210000000000003 c0.4210000000000003,-0.4200000000000003 0.4210000000000003,-0.8410000000000006 0.4210000000000003,-1.6830000000000007 v-3.787 c0,-0.8420000000000006 0,-1.262 -0.4210000000000003,-1.6830000000000007 c-0.4200000000000003,-0.4210000000000003 -0.8410000000000006,-0.4210000000000003 -1.6830000000000007,-0.4210000000000003 h-26.927 L690.2162092428207,47.14456126689913 z" id="svg_2" class=""/></g></svg>