<svg version="1.1" xmlns="http://www.w3.org/2000/svg" width="40" height="40" viewBox="0 0 256 256"><path d="M0 0 C84.48 0 168.96 0 256 0 C256 84.48 256 168.96 256 256 C171.52 256 87.04 256 0 256 C0 171.52 0 87.04 0 0 Z " fill="#6385F7" transform="translate(0,0)"/><path d="M0 0 C0.99641006 -0.01022186 1.99282013 -0.02044373 3.01942444 -0.03097534 C6.28948487 -0.0586093 9.55869462 -0.05686584 12.82885742 -0.05224609 C15.11895557 -0.06002934 17.40905085 -0.06870059 19.69914246 -0.07821655 C24.49125541 -0.09310744 29.28307358 -0.0925835 34.07519531 -0.08203125 C40.19153837 -0.07045285 46.30666796 -0.10429131 52.42281055 -0.1507206 C57.15088356 -0.18030415 61.87866807 -0.18192394 66.60681725 -0.17570114 C68.86049488 -0.17672234 71.11418977 -0.18709911 73.36777687 -0.20732498 C97.53307645 -0.39759127 97.53307645 -0.39759127 107.51203918 8.17269897 C114.07736621 15.0615659 116.22368231 23.19540268 116.17114258 32.46850586 C116.18136444 33.41614807 116.1915863 34.36379028 116.20211792 35.34014893 C116.2297352 38.44789464 116.22800973 41.55474441 116.22338867 44.66259766 C116.2311729 46.84059472 116.23984435 49.01858878 116.24935913 51.19657898 C116.26424646 55.75330461 116.26372876 60.30972024 116.25317383 64.86645508 C116.2415964 70.68015195 116.27543284 76.49257197 116.32186317 82.30605793 C116.35145813 86.80251879 116.353065 91.29867649 116.34684372 95.79521751 C116.34786437 97.93725294 116.35823066 100.07930664 116.37846756 102.22124672 C116.48361651 114.90740445 116.56761034 125.26289644 108.03384399 135.44380188 C100.99219316 142.24605908 91.85166764 144.15286186 82.38964844 144.06689453 C81.42074677 144.07390381 80.45184509 144.08091309 79.45358276 144.08813477 C76.28149933 144.10560065 73.1103234 144.09413149 69.93823242 144.08056641 C67.71443004 144.08326481 65.49062881 144.08715012 63.26683044 144.09216309 C58.61771352 144.09804291 53.96890512 144.08954473 49.31982422 144.07080078 C43.38411387 144.04802587 37.4491277 144.06113528 31.51344395 144.08509064 C26.92439906 144.09960087 22.33552353 144.09491844 17.74647331 144.08457947 C15.55897878 144.08192593 13.37146848 144.08513318 11.18399239 144.09449768 C-15.93219248 144.18511569 -15.93219248 144.18511569 -25.6714325 134.59864807 C-34.2657358 124.27922968 -33.12853028 111.91417853 -33.07739258 99.24072266 C-33.08331073 97.0655834 -33.0905613 94.89044741 -33.09907532 92.71531677 C-33.11091633 88.17047066 -33.10431311 83.62611549 -33.08496094 79.08129883 C-33.06208378 73.28331236 -33.08886319 67.48679247 -33.130023 61.68895054 C-33.15570936 57.20104683 -33.15299151 52.71348898 -33.1421299 48.22553825 C-33.14065226 46.08909715 -33.14822747 43.95262833 -33.16538048 41.81625557 C-33.3211927 18.6536712 -33.3211927 18.6536712 -24.75492859 8.65455627 C-17.69353014 1.94435567 -9.47364459 -0.05095195 0 0 Z " fill="#D2DCFA" transform="translate(83.378173828125,52.45068359375)"/><path d="M0 0 C27.90909091 0 27.90909091 0 34.8125 5.0625 C37.89007974 9.19524993 38.29354695 12.91185288 38 18 C36.63305721 21.75909269 35.0386642 24.39543068 32 27 C32.94875 27.721875 33.8975 28.44375 34.875 29.1875 C38.85067557 32.53494382 39.84077009 35.24847098 40.3125 40.4375 C39.83727178 45.85510165 38.07073418 49.27845466 34 52.8125 C23.68451085 60.33421084 15.50353313 56 0 56 C0 37.52 0 19.04 0 0 Z " fill="#FDFDFE" transform="translate(87,94)"/><path d="M0 0 C4.58441798 2.83441177 7.64814036 5.58594835 9.26953125 10.85546875 C9.81655832 14.18321677 10.24410394 17.47999292 10.26953125 20.85546875 C9.26953125 21.85546875 9.26953125 21.85546875 6.67749023 21.96899414 C5.55157471 21.96375732 4.42565918 21.95852051 3.265625 21.953125 C2.05068359 21.94990234 0.83574219 21.94667969 -0.41601562 21.94335938 C-1.69541016 21.93498047 -2.97480469 21.92660156 -4.29296875 21.91796875 C-5.57623047 21.91345703 -6.85949219 21.90894531 -8.18164062 21.90429688 C-11.36462897 21.8924642 -14.54752637 21.87597943 -17.73046875 21.85546875 C-15.92634232 25.12007848 -14.89652182 26.7447667 -11.73046875 28.85546875 C-8.78189252 28.76186316 -6.50710388 28.68049353 -3.73046875 27.85546875 C-2.77140625 26.77265625 -2.77140625 26.77265625 -1.79296875 25.66796875 C-1.11234375 25.06984375 -0.43171875 24.47171875 0.26953125 23.85546875 C3.39547405 24.11187243 6.28605581 24.91197652 9.26953125 25.85546875 C8.01738024 31.69884013 5.05054021 34.58649381 0.26953125 37.85546875 C-5.07779431 39.6379106 -11.4843001 39.87903544 -16.8984375 38.171875 C-22.27783473 35.30998817 -26.45407684 30.48654348 -28.73046875 24.85546875 C-29.60931177 17.86172847 -29.72923159 11.28718002 -25.32421875 5.51171875 C-18.45290318 -1.62906017 -9.45765024 -3.96436555 0 0 Z " fill="#FDFDFE" transform="translate(156.73046875,112.14453125)"/><path d="M0 0 C12.54 0 25.08 0 38 0 C38 2.97 38 5.94 38 9 C25.46 9 12.92 9 0 9 C0 6.03 0 3.06 0 0 Z " fill="#FFFFFF" transform="translate(129,94)"/><path d="M0 0 C10.74695122 -0.42987805 10.74695122 -0.42987805 15 3 C16 4 16 4 16.375 7.3125 C16 11 16 11 14.1875 13.4375 C9.37975734 15.7942366 5.32028699 15.25639937 0 15 C0 10.05 0 5.1 0 0 Z " fill="#D2DBF9" transform="translate(99,126)"/><path d="M0 0 C10.625 -0.25 10.625 -0.25 14 2 C14.39145233 5.08268708 14.62093236 7.05207843 14 10 C11.66863973 12.40656544 9.97827183 12.92965604 6.6640625 13.16796875 C4.44207193 13.18549233 2.21983551 13.09939562 0 13 C0 8.71 0 4.42 0 0 Z " fill="#D2DCF9" transform="translate(99,104)"/><path d="M0 0 C3 2.4375 3 2.4375 5 5 C5 5.33 5 5.66 5 6 C-0.61 6 -6.22 6 -12 6 C-9.42093353 -0.44766617 -6.732166 -1.19711556 0 0 Z " fill="#D2DCF9" transform="translate(151,120)"/></svg>