<svg width="25" height="24" viewBox="0 0 25 24" fill="none" xmlns="http://www.w3.org/2000/svg">
<path d="M22.0992 22.9091H2.90068C1.51555 22.9091 0.646284 21.3429 1.31909 20.0744L10.9184 2.06901C11.6098 0.764878 13.3901 0.764878 14.0815 2.06901L23.6808 20.0744C24.3536 21.3429 23.4844 22.9091 22.0992 22.9091Z" fill="#FFC700"/>
<path d="M12.5009 8.72726C13.3891 8.72726 14.098 9.46785 14.0593 10.3552L13.8446 15.2727H11.1626L10.9425 10.357C10.9027 9.46895 11.6119 8.72726 12.5009 8.72726V8.72726Z" fill="#333333"/>
<path d="M11.3451 19.1571C11.6667 19.4766 12.0516 19.6364 12.5 19.6364C12.7898 19.6364 13.057 19.5633 13.3016 19.4173C13.5461 19.2666 13.7431 19.0681 13.8926 18.8216C14.0466 18.5706 14.1258 18.2944 14.1304 17.9931C14.1258 17.5458 13.9605 17.1624 13.6345 16.8429C13.3084 16.5234 12.9302 16.3636 12.5 16.3636C12.0516 16.3636 11.6667 16.5234 11.3451 16.8429C11.0236 17.1624 10.8651 17.5458 10.8696 17.9931C10.8651 18.445 11.0236 18.833 11.3451 19.1571Z" fill="#333333"/>
</svg>
