<svg width="16" height="16" viewBox="0 0 16 16" fill="none" xmlns="http://www.w3.org/2000/svg">
<path fill-rule="evenodd" clip-rule="evenodd" d="M8 0C3.58172 0 0 3.58172 0 8C0 12.4183 3.58172 16 8 16C12.4183 16 16 12.4183 16 8C16 3.58172 12.4183 0 8 0ZM4.07674 8.25765L6.30338 10.4843L12.6016 4.18608C12.8497 3.93797 13.2441 3.93797 13.4922 4.18608C13.7404 4.43419 13.7404 4.82863 13.4922 5.07674L6.74871 11.8139C6.5006 12.062 6.0998 12.062 5.85169 11.8139L3.18608 9.14831C2.93797 8.9002 2.93797 8.50576 3.18608 8.25765C3.43419 8.00954 3.82863 8.00954 4.07674 8.25765Z" fill="white"/>
</svg>
