<svg xmlns="http://www.w3.org/2000/svg" viewBox="0 0 86.61 97"><title>contact form 7</title><g id="Layer_2" data-name="Layer 2"><g id="Layer_1-2" data-name="Layer 1"><path d="M84.87,14.84a5.93,5.93,0,0,0-8.39,0l-8.07,8.08L46.81,1.3A4.48,4.48,0,0,0,43.66,0H4.45A4.46,4.46,0,0,0,0,4.45v88.1A4.46,4.46,0,0,0,4.45,97H78.09a4.45,4.45,0,0,0,4.45-4.45V38.87a4.39,4.39,0,0,0-1.31-3.13L76.8,31.3l8.07-8.07a5.93,5.93,0,0,0,0-8.39ZM78.59,25.27l-4.15-4.15L78.61,17a2.93,2.93,0,1,1,4.14,4.15ZM59,40.68l2.07-6.22L72.32,23.24l4.15,4.15L65.25,38.61Zm-.3-8.09a1.57,1.57,0,0,0-.36.59l-3.14,9.4a1.49,1.49,0,0,0,.36,1.53,1.51,1.51,0,0,0,1.54.37l9.4-3.14a1.45,1.45,0,0,0,.59-.36l7.56-7.56,4.44,4.45a1.4,1.4,0,0,1,.42,1V92.55A1.47,1.47,0,0,1,78.09,94H4.45A1.45,1.45,0,0,1,3,92.55V4.45A1.45,1.45,0,0,1,4.45,3H43.66a1.47,1.47,0,0,1,1,.42L66.29,25Z"/><path d="M12.28,52.81a1.51,1.51,0,0,0,1.5,1.5H53.2a1.5,1.5,0,0,0,0-3H13.78A1.5,1.5,0,0,0,12.28,52.81Z"/><path d="M53.2,63.62H13.78a1.5,1.5,0,0,0,0,3H53.2a1.5,1.5,0,0,0,0-3Z"/><path d="M53.2,75.92H13.78a1.5,1.5,0,0,0,0,3H53.2a1.5,1.5,0,0,0,0-3Z"/><path d="M14,18.91v2.72h6.65a21.37,21.37,0,0,0-3.3,5.88A19.4,19.4,0,0,0,16,34h2.82a17.72,17.72,0,0,1,.66-4.58,19.86,19.86,0,0,1,2-4.85A15.38,15.38,0,0,1,24,21V18.91Z"/></g></g></svg>