<svg width="236" height="32" viewBox="0 0 236 32" fill="none" xmlns="http://www.w3.org/2000/svg">
<path d="M170.901 25.384C169.434 25.384 168.101 25.0083 166.892 24.251C165.689 23.4937 164.726 22.484 164.01 21.2159C163.293 19.9479 162.935 18.539 162.935 17.0009C162.935 15.4629 163.293 14.0363 164.01 12.7624C164.726 11.4885 165.689 10.4729 166.892 9.71565C168.095 8.96423 169.434 8.58265 170.901 8.58265C172.451 8.58265 173.831 8.97597 175.04 9.76262C176.244 10.5493 177.189 11.6294 177.864 12.9973C178.539 14.3651 178.862 15.9325 178.827 17.6995H164.737C164.855 18.8384 165.195 19.854 165.765 20.7522C166.334 21.6503 167.062 22.3607 167.955 22.8773C168.847 23.3997 169.827 23.6581 170.901 23.6581C172.081 23.6581 173.144 23.3469 174.095 22.7246C175.046 22.1024 175.803 21.2512 176.367 20.1651L178.105 20.5643C177.465 21.9791 176.508 23.1356 175.222 24.0279C173.937 24.9261 172.498 25.3722 170.901 25.3722V25.384ZM177.083 16.2378C177.019 15.1517 176.702 14.1537 176.132 13.2321C175.563 12.3104 174.823 11.5766 173.907 11.0189C172.991 10.4612 171.988 10.1853 170.896 10.1853C169.804 10.1853 168.788 10.4553 167.89 10.9954C166.992 11.5355 166.258 12.2693 165.688 13.1851C165.119 14.1068 164.784 15.1224 164.679 16.2378H177.083Z" fill="black"/>
<path d="M181.598 24.973V9.03468H183.318V11.4709C183.905 10.6021 184.662 9.90351 185.595 9.37517C186.529 8.84682 187.562 8.58852 188.689 8.58852C189.922 8.58852 191.043 8.89966 192.059 9.51019C193.074 10.1266 193.861 10.9367 194.425 11.9347C194.988 10.9367 195.775 10.1266 196.784 9.51019C197.794 8.89379 198.915 8.58852 200.148 8.58852C201.381 8.58852 202.467 8.88205 203.465 9.47496C204.463 10.062 205.256 10.8604 205.848 11.8584C206.436 12.8564 206.735 13.96 206.735 15.1752V24.9789H205.015V15.4922C205.015 14.5764 204.792 13.7311 204.346 12.9444C203.899 12.1578 203.301 11.5238 202.543 11.0483C201.786 10.5727 200.947 10.3321 200.025 10.3321C199.103 10.3321 198.264 10.5551 197.507 10.9954C196.755 11.4357 196.15 12.0462 195.704 12.827C195.258 13.6078 195.035 14.5001 195.035 15.4981V24.9789H193.315V15.4922C193.315 14.4942 193.092 13.6019 192.64 12.8211C192.188 12.0404 191.583 11.4298 190.832 10.9895C190.08 10.5493 189.241 10.3262 188.313 10.3262C187.386 10.3262 186.564 10.5669 185.813 11.0424C185.055 11.5179 184.456 12.1519 184.004 12.9385C183.552 13.7252 183.329 14.5764 183.329 15.4863V24.9672H181.609L181.598 24.973Z" fill="black"/>
<path d="M223.031 9.03468H224.751V24.973H223.031L222.984 21.7032C222.444 22.8068 221.669 23.6991 220.666 24.3742C219.662 25.0494 218.458 25.384 217.055 25.384C215.899 25.384 214.807 25.1668 213.791 24.7323C212.77 24.2979 211.877 23.6933 211.108 22.9125C210.339 22.1376 209.735 21.2394 209.3 20.2179C208.866 19.1965 208.649 18.1104 208.649 16.9481C208.649 15.41 209.024 14.007 209.77 12.739C210.521 11.4768 211.525 10.4671 212.787 9.70978C214.05 8.95836 215.447 8.57678 216.979 8.57678C218.394 8.57678 219.615 8.91727 220.654 9.60412C221.693 10.291 222.497 11.1833 223.084 12.2869L223.037 9.01707L223.031 9.03468ZM217.038 23.6991C218.259 23.6991 219.309 23.3997 220.184 22.801C221.059 22.2022 221.734 21.392 222.198 20.3764C222.667 19.3609 222.902 18.2396 222.902 17.0068C222.902 15.774 222.667 14.6175 222.192 13.6019C221.716 12.5863 221.047 11.7821 220.167 11.1774C219.292 10.5786 218.247 10.2792 217.038 10.2792C215.828 10.2792 214.689 10.5845 213.686 11.1891C212.682 11.7938 211.883 12.6098 211.285 13.6254C210.686 14.641 210.392 15.774 210.392 17.0068C210.392 18.2396 210.697 19.3961 211.308 20.4117C211.919 21.4273 212.729 22.2257 213.733 22.8186C214.736 23.4056 215.84 23.705 217.038 23.705V23.6991Z" fill="black"/>
<path d="M228.82 6.02312C228.52 6.02312 228.268 5.92332 228.062 5.7296C227.857 5.53587 227.751 5.28344 227.751 4.98992C227.751 4.69639 227.857 4.44396 228.062 4.25023C228.268 4.05651 228.52 3.95671 228.82 3.95671C229.119 3.95671 229.354 4.05651 229.559 4.25023C229.765 4.44396 229.87 4.69639 229.87 4.98992C229.87 5.28344 229.765 5.53587 229.559 5.7296C229.354 5.92919 229.107 6.02312 228.82 6.02312ZM227.945 9.03468H229.665V24.973H227.945V9.03468Z" fill="black"/>
<path d="M233.616 24.973V3.15833H235.336V24.973H233.616Z" fill="black"/>
<path d="M28.1825 12.8052C27.8813 9.31314 26.2698 6.05944 23.665 3.68858C21.0602 1.3151 17.6523 0 14.1176 0C10.583 0 7.17506 1.3151 4.57027 3.68596C1.96548 6.05682 0.351356 9.31052 0.0501937 12.8052C0.0158506 13.2008 0 13.599 0 14.0051C0 17.1671 1.08049 20.2348 3.06446 22.7104C5.04843 25.1861 7.81965 26.923 10.9237 27.6408L14.1176 32L17.3116 27.6408C20.4183 26.9256 23.1895 25.1861 25.1708 22.7104C27.1548 20.2348 28.2353 17.1645 28.2353 14.0051C28.2353 13.6016 28.2194 13.2008 28.1851 12.8052H28.1825ZM13.1085 21.1779C13.1085 21.2355 13.0926 21.2932 13.0636 21.3456C13.0345 21.3953 12.9922 21.4372 12.9394 21.4687C12.8892 21.4975 12.8311 21.5132 12.7703 21.5132C12.7122 21.5132 12.6541 21.4975 12.6013 21.4687L7.39169 18.4848C7.18827 18.3669 7.0192 18.1993 6.90032 17.9975C6.78144 17.7958 6.72068 17.5653 6.71803 17.3321V11.498C6.71803 11.4404 6.73388 11.3827 6.76294 11.3303C6.792 11.2806 6.83427 11.2386 6.88711 11.2072C6.9373 11.1784 6.99542 11.1627 7.05618 11.1627C7.1143 11.1627 7.17242 11.1784 7.22526 11.2072L12.4348 14.1911C12.6383 14.309 12.81 14.4766 12.9262 14.6783C13.0451 14.8801 13.1058 15.1106 13.1058 15.3464V21.1753L13.1085 21.1779ZM14.1176 12.6402C13.8825 12.6402 13.6501 12.5773 13.4466 12.4621L8.11817 9.41007C8.06798 9.38125 8.02571 9.33934 7.99665 9.28694C7.96759 9.23717 7.95174 9.17953 7.95174 9.11928C7.95174 9.05903 7.96759 9.00401 7.99665 8.95424C8.02571 8.90446 8.06798 8.86255 8.11817 8.83111L13.4466 5.77912C13.6501 5.66124 13.8825 5.60098 14.1176 5.60098C14.3528 5.60098 14.5852 5.66386 14.7887 5.77912L20.1171 8.83111C20.1673 8.85993 20.2096 8.90184 20.2386 8.95424C20.2677 9.00401 20.2835 9.06165 20.2835 9.11928C20.2835 9.17691 20.2677 9.23455 20.2386 9.28694C20.2096 9.33672 20.1673 9.37863 20.1171 9.41007L14.7887 12.4621C14.5852 12.5799 14.3528 12.6402 14.1176 12.6402ZM21.512 17.3321C21.512 17.5653 21.4512 17.7958 21.3323 18.0002C21.2135 18.2019 21.0444 18.3722 20.841 18.4874L15.6314 21.4713C15.5812 21.5001 15.5231 21.5158 15.4623 21.5158C15.4042 21.5158 15.3461 21.5001 15.2932 21.4713C15.243 21.4425 15.2008 21.4006 15.1691 21.3482C15.14 21.2984 15.1242 21.2408 15.1242 21.1805V15.3464C15.1242 15.1132 15.1876 14.8827 15.3038 14.6783C15.4227 14.4766 15.5918 14.3063 15.7952 14.1911L21.0048 11.2072C21.0549 11.1784 21.1131 11.1627 21.1738 11.1627C21.2319 11.1627 21.2901 11.1784 21.3429 11.2072C21.3931 11.236 21.4354 11.2779 21.4671 11.3303C21.4961 11.3801 21.512 11.4377 21.512 11.498V17.3321Z" fill="#FF6B2B"/>
<path d="M13.0636 21.3456C13.0926 21.2932 13.1085 21.2355 13.1085 21.1779L13.1058 15.3464C13.1058 15.1106 13.0451 14.8801 12.9262 14.6783C12.81 14.4766 12.6383 14.309 12.4348 14.1911L7.22526 11.2072C7.17242 11.1784 7.1143 11.1627 7.05618 11.1627C6.99542 11.1627 6.9373 11.1784 6.88711 11.2072C6.83427 11.2386 6.792 11.2806 6.76294 11.3303C6.73388 11.3827 6.71803 11.4404 6.71803 11.498V17.3321C6.72068 17.5653 6.78144 17.7958 6.90032 17.9975C7.0192 18.1993 7.18827 18.3669 7.39169 18.4848L12.6013 21.4687C12.6541 21.4975 12.7122 21.5132 12.7703 21.5132C12.8311 21.5132 12.8892 21.4975 12.9394 21.4687C12.9922 21.4372 13.0345 21.3953 13.0636 21.3456Z" fill="white"/>
<path d="M13.4466 12.4621C13.6501 12.5773 13.8825 12.6402 14.1176 12.6402C14.3528 12.6402 14.5852 12.5799 14.7887 12.4621L20.1171 9.41007C20.1673 9.37863 20.2096 9.33672 20.2386 9.28694C20.2677 9.23455 20.2835 9.17691 20.2835 9.11928C20.2835 9.06165 20.2677 9.00401 20.2386 8.95424C20.2096 8.90184 20.1673 8.85993 20.1171 8.83111L14.7887 5.77912C14.5852 5.66386 14.3528 5.60098 14.1176 5.60098C13.8825 5.60098 13.6501 5.66124 13.4466 5.77912L8.11817 8.83111C8.06798 8.86255 8.02571 8.90446 7.99665 8.95424C7.96759 9.00401 7.95174 9.05903 7.95174 9.11928C7.95174 9.17953 7.96759 9.23717 7.99665 9.28694C8.02571 9.33934 8.06798 9.38125 8.11817 9.41007L13.4466 12.4621Z" fill="white"/>
<path d="M21.3323 18.0002C21.4512 17.7958 21.512 17.5653 21.512 17.3321V11.498C21.512 11.4377 21.4961 11.3801 21.4671 11.3303C21.4354 11.2779 21.3931 11.236 21.3429 11.2072C21.2901 11.1784 21.2319 11.1627 21.1738 11.1627C21.1131 11.1627 21.0549 11.1784 21.0048 11.2072L15.7952 14.1911C15.5918 14.3063 15.4227 14.4766 15.3038 14.6783C15.1876 14.8827 15.1242 15.1132 15.1242 15.3464V21.1805C15.1242 21.2408 15.14 21.2984 15.1691 21.3482C15.2008 21.4006 15.243 21.4425 15.2932 21.4713C15.3461 21.5001 15.4042 21.5158 15.4623 21.5158C15.5231 21.5158 15.5812 21.5001 15.6314 21.4713L20.841 18.4874C21.0444 18.3722 21.2135 18.2019 21.3323 18.0002Z" fill="white"/>
<path d="M46.5412 10.1912C46.1244 9.70978 45.5784 9.29297 44.9092 8.95249C44.0345 8.50633 43.0013 8.27738 41.8272 8.27738C40.5533 8.27738 39.3851 8.52981 38.3577 9.0288C37.3304 9.52779 36.4498 10.1794 35.7395 10.9837C35.0292 11.7821 34.4715 12.6744 34.084 13.6489C33.6966 14.6234 33.497 15.6096 33.497 16.5841C33.497 17.5586 33.6848 18.6094 34.0488 19.5898C34.4128 20.5702 34.9529 21.4625 35.6456 22.2433C36.3383 23.024 37.1954 23.6639 38.1992 24.1512C39.209 24.6384 40.3772 24.885 41.6687 24.885C42.7547 24.885 43.7645 24.6678 44.6744 24.2451C45.4082 23.9046 46.0363 23.4585 46.5353 22.9242V24.474H50.2807V8.57678H46.5353V10.1912H46.5412ZM46.3064 18.4392C46.0657 19.0086 45.7311 19.5135 45.3084 19.9362C44.8857 20.3588 44.3926 20.6993 43.8408 20.9518C43.2948 21.1983 42.7019 21.3275 42.0855 21.3275C41.4691 21.3275 40.8351 21.1983 40.2774 20.9518C39.7138 20.6993 39.2148 20.3588 38.7921 19.9362C38.3695 19.5135 38.0349 19.0145 37.7942 18.4392C37.5535 17.8698 37.4302 17.2416 37.4302 16.5782C37.4302 15.9149 37.5535 15.2926 37.7942 14.7173C38.0349 14.1479 38.3695 13.643 38.7921 13.2203C39.2148 12.7977 39.7138 12.4572 40.2774 12.2047C40.8351 11.9523 41.4456 11.829 42.0855 11.829C42.7254 11.829 43.2948 11.9582 43.8408 12.2047C44.3926 12.4572 44.8857 12.7977 45.3084 13.2203C45.7311 13.643 46.0657 14.142 46.3064 14.7173C46.5471 15.2867 46.6703 15.9149 46.6703 16.5782C46.6703 17.2416 46.5471 17.8639 46.3064 18.4392Z" fill="black"/>
<path d="M134.405 3.27573C133.829 3.27573 133.33 3.4812 132.925 3.88626C132.52 4.29132 132.315 4.79031 132.315 5.36562C132.315 5.94093 132.52 6.43992 132.925 6.84498C133.33 7.25005 133.829 7.45551 134.405 7.45551C134.98 7.45551 135.479 7.25005 135.884 6.84498C136.289 6.43992 136.495 5.94093 136.495 5.36562C136.495 4.79031 136.289 4.29132 135.884 3.88626C135.479 3.4812 134.98 3.27573 134.405 3.27573Z" fill="black"/>
<path d="M136.407 8.62374H132.602V24.4564H136.407V8.62374Z" fill="black"/>
<path d="M155.486 13.5021C155.116 12.5159 154.576 11.6236 153.883 10.8428C153.19 10.062 152.327 9.41625 151.318 8.929C150.308 8.44175 149.134 8.18932 147.836 8.18932C146.75 8.18932 145.752 8.39479 144.866 8.79985C144.156 9.12273 143.533 9.56889 142.993 10.1207V8.60026H139.189V29.7281H142.993V22.9888C143.404 23.4467 143.938 23.8459 144.584 24.1746C145.459 24.6267 146.504 24.8498 147.678 24.8498C148.958 24.8498 150.126 24.5973 151.159 24.0983C152.186 23.5993 153.073 22.9418 153.789 22.1376C154.499 21.3392 155.063 20.441 155.45 19.4665C155.838 18.492 156.037 17.4999 156.037 16.5195C156.037 15.5392 155.85 14.4884 155.486 13.5021ZM151.67 18.3629C151.417 18.9323 151.083 19.4313 150.66 19.854C150.243 20.2708 149.744 20.6113 149.187 20.8637C148.635 21.1103 148.036 21.2394 147.425 21.2394C146.815 21.2394 146.222 21.1161 145.682 20.8637C145.13 20.6171 144.643 20.2766 144.22 19.854C143.803 19.4372 143.469 18.9382 143.228 18.3687C142.987 17.7993 142.87 17.1829 142.87 16.5195C142.87 15.8562 142.993 15.2398 143.228 14.6703C143.469 14.1009 143.797 13.6019 144.22 13.1851C144.637 12.7683 145.13 12.4278 145.682 12.1754C146.228 11.9288 146.815 11.7997 147.425 11.7997C148.036 11.7997 148.635 11.9229 149.187 12.1754C149.744 12.4278 150.243 12.7624 150.66 13.1851C151.077 13.6019 151.417 14.1068 151.67 14.6762C151.916 15.2398 152.046 15.862 152.046 16.5195C152.046 17.177 151.922 17.7993 151.67 18.3629Z" fill="black"/>
<path d="M58.4348 5.95854C58.4348 4.9723 59.1921 3.84517 60.4542 3.84517C60.9239 3.84517 61.2702 3.90387 61.6636 4.0565L63.5715 0.833609L63.366 0.757292C62.6674 0.510732 61.599 0.340488 60.7125 0.340488C58.7811 0.340488 57.1961 0.96863 56.1218 2.16034C55.1884 3.19354 54.6718 4.63181 54.6718 6.2051V8.61787H52.4997V12.3515H54.7246V24.5034H58.4407V12.3574H61.8514V8.62374H58.4407V5.95854H58.4348Z" fill="black"/>
<path d="M100.702 8.70006C100.174 8.35957 99.5223 8.18345 98.7591 8.18345C97.996 8.18345 97.3737 8.38892 96.8043 8.79985C96.5225 8.99945 96.2759 9.24014 96.0646 9.50431V8.612H92.3309V24.4623H96.0587V14.0422C96.0587 13.4141 96.3288 12.9268 96.7338 12.5511C97.1447 12.1695 97.6085 11.9875 98.1603 11.9875C98.3012 11.9875 98.4773 12.0227 98.6945 12.0991C98.7767 12.1284 98.8589 12.1636 98.9294 12.1989L100.861 8.85269L100.873 8.81159L100.702 8.70006Z" fill="black"/>
<path d="M114.105 18.9088C113.793 17.5586 112.948 16.543 111.58 15.8855C110.6 15.4159 109.514 15.1987 108.463 14.9873C107.665 14.8288 106.813 14.6762 106.226 14.4414C105.792 14.2653 105.545 14.0715 105.363 13.7722C105.058 13.2614 105.346 12.7683 105.381 12.7155C105.757 12.1167 106.602 11.7468 107.442 11.7468C108.363 11.7468 109.173 12.0227 109.86 12.5746C110.283 12.9151 110.547 13.2732 110.612 13.3847L110.735 13.5902L114.075 11.7586L113.958 11.559C113.758 11.2244 113.312 10.5727 112.549 9.92699C111.586 9.11099 109.925 8.13062 107.442 8.13062C106.309 8.13062 105.217 8.39479 104.277 8.88791C103.379 9.36342 102.634 10.0444 102.129 10.8604C101.201 12.3456 101.16 14.1009 102.017 15.5509C102.54 16.4315 103.303 17.0714 104.354 17.5234C105.258 17.905 106.262 18.0987 107.142 18.2631C107.324 18.2983 107.494 18.3276 107.665 18.3629C108.657 18.5625 109.485 18.7738 109.937 19.0028C110.23 19.1554 110.412 19.3667 110.465 19.6368C110.535 20.0066 110.365 20.3764 110.259 20.4939C109.666 21.1455 108.762 21.392 107.688 21.257C106.943 21.1631 106.156 20.7933 105.475 20.2414C104.859 19.7483 104.477 19.126 104.477 19.126L101.348 20.7522L101.131 20.8637L101.248 21.0692C101.377 21.2864 101.865 22.0554 102.751 22.8244C104.765 24.5738 106.907 24.7852 107.823 24.7852C107.858 24.7852 107.888 24.7852 107.917 24.7852H107.946C109.009 24.7852 109.995 24.6149 110.876 24.2862C111.768 23.9516 112.508 23.4643 113.083 22.8362C114.081 21.7443 114.451 20.3471 114.116 18.903L114.105 18.9088Z" fill="black"/>
<path d="M81.8639 8.12475C77.2438 8.12475 73.4984 11.8701 73.4984 16.4902C73.4984 21.1103 77.2438 24.8556 81.8639 24.8556C84.7933 24.8556 87.3704 23.3528 88.8615 21.0692L85.7267 19.2611C84.8637 20.4645 83.4548 21.2453 81.8639 21.2453C79.7799 21.2453 78.0128 19.9068 77.3671 18.04H90.0826C90.1765 17.541 90.2293 17.0185 90.2293 16.4902C90.2293 11.8701 86.484 8.12475 81.8639 8.12475ZM77.2908 15.3161C77.3671 15.005 77.5784 14.4531 77.6195 14.3475C77.6195 14.3357 77.6313 14.324 77.6371 14.3122C78.4238 12.78 80.0264 11.7292 81.8639 11.7292H81.8874C84.1064 11.7292 85.9674 13.2556 86.484 15.3102H77.2849L77.2908 15.3161Z" fill="black"/>
<path d="M123.398 8.20693C121.93 8.20693 120.938 8.51807 119.887 9.27536V3.3403H116.177V24.4388H119.887V14.6292C119.887 12.8857 121.707 11.8173 123.386 11.8525C124.478 11.876 126.057 12.962 126.174 14.7173V24.4388H129.961V15.1048C129.961 11.1187 127.378 8.20107 123.392 8.20107L123.398 8.20693Z" fill="black"/>
<path d="M69.7413 24.4388V12.4043H72.5181V8.65896H69.7413V5.47716H66.0371V8.65896H63.7358V12.4043H66.0371V24.4564L69.7413 24.4388Z" fill="black"/>
</svg>
