<svg width="36" height="36" viewBox="0 0 36 36" fill="none" xmlns="http://www.w3.org/2000/svg">
<path d="M29.25 23.625L34.2165 18.6585C34.6383 18.2366 34.8753 17.6644 34.8753 17.0677C34.8753 16.4711 34.6383 15.8989 34.2165 15.477L31.05 12.318C30.6919 13.1677 30.1304 13.9164 29.4149 14.4981C28.6994 15.0798 27.8519 15.4766 26.9469 15.6537C26.042 15.8309 25.1074 15.7828 24.2254 15.5138C23.3434 15.2447 22.5411 14.763 21.889 14.111C21.237 13.4589 20.7553 12.6566 20.4862 11.7746C20.2172 10.8926 20.1691 9.95801 20.3462 9.05307C20.5234 8.14813 20.9202 7.3006 21.5019 6.58511C22.0836 5.86962 22.8323 5.3081 23.682 4.95L20.523 1.78349C20.1011 1.36169 19.5289 1.12473 18.9322 1.12473C18.3356 1.12473 17.7634 1.36169 17.3415 1.78349L12.375 6.75C12.375 5.63748 12.0451 4.54994 11.427 3.62491C10.8089 2.69989 9.93042 1.97892 8.90259 1.55317C7.87475 1.12743 6.74376 1.01604 5.65261 1.23308C4.56147 1.45012 3.55919 1.98585 2.77252 2.77252C1.98585 3.55919 1.45012 4.56147 1.23308 5.65261C1.01604 6.74376 1.12743 7.87476 1.55317 8.90259C1.97892 9.93042 2.69989 10.8089 3.62491 11.427C4.54994 12.0451 5.63748 12.375 6.74999 12.375L1.78349 17.3415C1.36169 17.7634 1.12473 18.3356 1.12473 18.9322C1.12473 19.5289 1.36169 20.1011 1.78349 20.523L4.94999 23.682C5.3081 22.8323 5.86962 22.0836 6.58511 21.5019C7.3006 20.9202 8.14813 20.5234 9.05307 20.3462C9.95801 20.1691 10.8926 20.2172 11.7746 20.4862C12.6566 20.7553 13.4589 21.237 14.111 21.889C14.763 22.5411 15.2447 23.3434 15.5138 24.2254C15.7828 25.1074 15.8309 26.042 15.6537 26.9469C15.4766 27.8519 15.0798 28.6994 14.4981 29.4149C13.9164 30.1304 13.1677 30.6919 12.318 31.05L15.477 34.2105C15.8989 34.6323 16.4711 34.8693 17.0677 34.8693C17.6644 34.8693 18.2366 34.6323 18.6585 34.2105L23.625 29.25C23.625 30.3625 23.9549 31.4501 24.573 32.3751C25.1911 33.3001 26.0696 34.0211 27.0974 34.4468C28.1252 34.8726 29.2562 34.984 30.3474 34.7669C31.4385 34.5499 32.4408 34.0141 33.2275 33.2275C34.0141 32.4408 34.5499 31.4385 34.7669 30.3474C34.984 29.2562 34.8726 28.1252 34.4468 27.0974C34.0211 26.0696 33.3001 25.1911 32.3751 24.573C31.4501 23.9549 30.3625 23.625 29.25 23.625V23.625Z" stroke="#6E7289" stroke-width="1.5" stroke-linecap="round" stroke-linejoin="round"/>
</svg>
