<svg width="32" height="32" viewBox="0 0 32 32" fill="none" xmlns="http://www.w3.org/2000/svg">
<path d="M8.5974 9H1.58442C1.26165 9 1 9.27134 1 9.60606V13.8485C1 14.1832 1.26165 14.4545 1.58442 14.4545H8.5974C8.92017 14.4545 9.18182 14.1832 9.18182 13.8485V9.60606C9.18182 9.27134 8.92017 9 8.5974 9Z" stroke="#2C3149" stroke-width="1.5" stroke-linecap="round" stroke-linejoin="round"/>
<path d="M8.5974 18.0911H1.58442C1.26165 18.0911 1 18.3624 1 18.6971V22.9395C1 23.2743 1.26165 23.5456 1.58442 23.5456H8.5974C8.92017 23.5456 9.18182 23.2743 9.18182 22.9395V18.6971C9.18182 18.3624 8.92017 18.0911 8.5974 18.0911Z" stroke="#2C3149" stroke-width="1.5" stroke-linecap="round" stroke-linejoin="round"/>
<path d="M19.5065 9H12.4935C12.1707 9 11.9091 9.27134 11.9091 9.60606V13.8485C11.9091 14.1832 12.1707 14.4545 12.4935 14.4545H19.5065C19.8292 14.4545 20.0909 14.1832 20.0909 13.8485V9.60606C20.0909 9.27134 19.8292 9 19.5065 9Z" stroke="#568EE8" stroke-width="1.5" stroke-linecap="round" stroke-linejoin="round"/>
<path d="M19.5065 18.0911H12.4935C12.1707 18.0911 11.9091 18.3624 11.9091 18.6971V22.9395C11.9091 23.2743 12.1707 23.5456 12.4935 23.5456H19.5065C19.8292 23.5456 20.0909 23.2743 20.0909 22.9395V18.6971C20.0909 18.3624 19.8292 18.0911 19.5065 18.0911Z" stroke="#2C3149" stroke-width="1.5" stroke-linecap="round" stroke-linejoin="round"/>
<path d="M30.4155 9H23.4025C23.0798 9 22.8181 9.27134 22.8181 9.60606V13.8485C22.8181 14.1832 23.0798 14.4545 23.4025 14.4545H30.4155C30.7383 14.4545 30.9999 14.1832 30.9999 13.8485V9.60606C30.9999 9.27134 30.7383 9 30.4155 9Z" stroke="#2C3149" stroke-width="1.5" stroke-linecap="round" stroke-linejoin="round"/>
<path d="M30.4155 18.0911H23.4025C23.0798 18.0911 22.8181 18.3624 22.8181 18.6971V22.9395C22.8181 23.2743 23.0798 23.5456 23.4025 23.5456H30.4155C30.7383 23.5456 30.9999 23.2743 30.9999 22.9395V18.6971C30.9999 18.3624 30.7383 18.0911 30.4155 18.0911Z" stroke="#2C3149" stroke-width="1.5" stroke-linecap="round" stroke-linejoin="round"/>
</svg>
