<svg width="32" height="32" viewBox="0 0 32 32" fill="none" xmlns="http://www.w3.org/2000/svg">
<path d="M28 31H7C6.20435 31 5.44129 30.6839 4.87868 30.1213C4.31607 29.5587 4 28.7956 4 28" stroke="#2C3149" stroke-width="1.5" stroke-linecap="round" stroke-linejoin="round"/>
<path d="M16 3H8C6.93913 3 5.92172 3.42143 5.17157 4.17157C4.42143 4.92172 4 5.93913 4 7V28C4 27.2044 4.31607 26.4413 4.87868 25.8787C5.44129 25.3161 6.20435 25 7 25H27C27.2652 25 27.5196 24.8946 27.7071 24.7071C27.8946 24.5196 28 24.2652 28 24V4C28 3.73478 27.8946 3.48043 27.7071 3.29289C27.5196 3.10536 27.2652 3 27 3H24" stroke="#2C3149" stroke-width="1.5" stroke-linecap="round" stroke-linejoin="round"/>
<path d="M26 31V25" stroke="#2C3149" stroke-width="1.5" stroke-linecap="round" stroke-linejoin="round"/>
<path d="M24 17L20 13L16 17V3C16 2.46957 16.2107 1.96086 16.5858 1.58579C16.9609 1.21071 17.4696 1 18 1H22C22.5304 1 23.0391 1.21071 23.4142 1.58579C23.7893 1.96086 24 2.46957 24 3V17Z" fill="#A38BE0" stroke="#2C3149" stroke-width="1.5" stroke-linecap="round" stroke-linejoin="round"/>
</svg>
