<svg width="36" height="36" viewBox="0 0 36 36" fill="none" xmlns="http://www.w3.org/2000/svg">
<path d="M9 10.125C11.4853 10.125 13.5 8.11028 13.5 5.625C13.5 3.13972 11.4853 1.125 9 1.125C6.51472 1.125 4.5 3.13972 4.5 5.625C4.5 8.11028 6.51472 10.125 9 10.125Z" stroke="#6E7289" stroke-width="1.5" stroke-linecap="round" stroke-linejoin="round"/>
<path d="M14.511 14.625C13.4034 13.5399 12 12.8059 10.4769 12.5151C8.9538 12.2243 7.37874 12.3896 5.94922 12.9903C4.51969 13.591 3.29932 14.6004 2.44111 15.8919C1.58291 17.1833 1.12507 18.6994 1.125 20.25V23.625H4.5L5.625 34.875H12.375L13.1565 27.051" stroke="#6E7289" stroke-width="1.5" stroke-linecap="round" stroke-linejoin="round"/>
<path d="M25.875 27C27.1176 27 28.125 25.9926 28.125 24.75C28.125 23.5074 27.1176 22.5 25.875 22.5C24.6324 22.5 23.625 23.5074 23.625 24.75C23.625 25.9926 24.6324 27 25.875 27Z" stroke="#6E7289" stroke-width="1.5" stroke-linecap="round" stroke-linejoin="round"/>
<path d="M27.786 16.0501L28.449 18.2296C28.5581 18.5912 28.8005 18.8979 29.1272 19.0875C29.4539 19.2772 29.8404 19.3356 30.2085 19.2511L32.418 18.7381C32.8367 18.6438 33.2745 18.686 33.6674 18.8587C34.0603 19.0313 34.3876 19.3252 34.6013 19.6974C34.815 20.0696 34.9038 20.5004 34.8548 20.9268C34.8058 21.3531 34.6216 21.7526 34.329 22.0666L32.784 23.7331C32.5259 24.0106 32.3824 24.3756 32.3824 24.7546C32.3824 25.1336 32.5259 25.4985 32.784 25.7761L34.329 27.4426C34.622 27.7563 34.8067 28.1558 34.8559 28.5822C34.9051 29.0087 34.8163 29.4397 34.6024 29.812C34.3886 30.1842 34.0611 30.4781 33.6679 30.6505C33.2747 30.8228 32.8367 30.8646 32.418 30.7696L30.2085 30.2581C29.8404 30.1731 29.4537 30.2314 29.1269 30.4211C28.8002 30.6108 28.5578 30.9177 28.449 31.2796L27.786 33.4501C27.6623 33.8609 27.4096 34.221 27.0653 34.4769C26.7209 34.7328 26.3033 34.8711 25.8743 34.8711C25.4452 34.8711 25.0276 34.7328 24.6833 34.4769C24.3389 34.221 24.0862 33.8609 23.9625 33.4501L23.2995 31.2721C23.1907 30.9102 22.9484 30.6033 22.6216 30.4136C22.2949 30.2239 21.9082 30.1656 21.54 30.2506L19.3305 30.7621C18.9119 30.8571 18.4738 30.8153 18.0806 30.643C17.6875 30.4706 17.3599 30.1767 17.1461 29.8045C16.9323 29.4322 16.8434 29.0012 16.8927 28.5747C16.9419 28.1483 17.1265 27.7488 17.4195 27.4351L18.9645 25.7686C19.2226 25.491 19.3661 25.1261 19.3661 24.7471C19.3661 24.3681 19.2226 24.0031 18.9645 23.7256L17.4195 22.0591C17.127 21.7451 16.9427 21.3456 16.8937 20.9193C16.8447 20.4929 16.9336 20.0621 17.1472 19.6899C17.3609 19.3177 17.6882 19.0238 18.0811 18.8512C18.474 18.6785 18.9119 18.6363 19.3305 18.7306L21.54 19.2436C21.9082 19.3281 22.2947 19.2697 22.6213 19.08C22.948 18.8904 23.1904 18.5837 23.2995 18.2221L23.9625 16.0426C24.087 15.632 24.3404 15.2724 24.6853 15.0172C25.0301 14.7619 25.448 14.6245 25.8771 14.6253C26.3061 14.6262 26.7234 14.7652 27.0673 15.0218C27.4111 15.2784 27.6631 15.639 27.786 16.0501V16.0501Z" stroke="#6E7289" stroke-width="1.5" stroke-linecap="round" stroke-linejoin="round"/>
</svg>
