<svg width="20" height="20" viewBox="0 0 20 20" fill="none" xmlns="http://www.w3.org/2000/svg">
<path d="M19.1668 8.82201L11.1784 0.833681C10.8659 0.521229 10.442 0.345703 10.0001 0.345703C9.55816 0.345703 9.13432 0.521229 8.82177 0.833681L0.833436 8.82285C0.520985 9.13539 0.345459 9.55924 0.345459 10.0012C0.345459 10.4431 0.520985 10.867 0.833436 11.1795L8.82177 19.167C9.13432 19.4795 9.55816 19.655 10.0001 19.655C10.442 19.655 10.8659 19.4795 11.1784 19.167L19.1668 11.1795C19.3216 11.0247 19.4444 10.841 19.5282 10.6387C19.612 10.4365 19.6552 10.2197 19.6552 10.0008C19.6552 9.78184 19.612 9.56506 19.5282 9.3628C19.4444 9.16055 19.3216 8.97679 19.1668 8.82201ZM9.22344 5.34785C9.22344 5.12683 9.31123 4.91487 9.46751 4.75859C9.62379 4.60231 9.83576 4.51451 10.0568 4.51451C10.2778 4.51451 10.4897 4.60231 10.646 4.75859C10.8023 4.91487 10.8901 5.12683 10.8901 5.34785V10.3478C10.8901 10.5689 10.8023 10.7808 10.646 10.9371C10.4897 11.0934 10.2778 11.1812 10.0568 11.1812C9.83576 11.1812 9.62379 11.0934 9.46751 10.9371C9.31123 10.7808 9.22344 10.5689 9.22344 10.3478V5.34785ZM10.0993 14.9395H10.0759C9.74736 14.9383 9.43198 14.8101 9.19564 14.5818C8.9593 14.3536 8.82028 14.0428 8.8076 13.7145C8.80148 13.5512 8.82801 13.3882 8.88562 13.2352C8.94324 13.0823 9.0308 12.9423 9.14316 12.8236C9.25553 12.7049 9.39044 12.6097 9.54002 12.5438C9.6896 12.4778 9.85083 12.4424 10.0143 12.4395H10.0376C10.3663 12.4404 10.6819 12.5684 10.9183 12.7967C11.1548 13.0251 11.2937 13.336 11.3059 13.6645C11.3121 13.8279 11.2855 13.9908 11.2279 14.1438C11.1703 14.2968 11.0827 14.4367 10.9704 14.5554C10.858 14.6742 10.7231 14.7693 10.5735 14.8352C10.4239 14.9012 10.2627 14.9366 10.0993 14.9395Z" fill="#D96D6D"/>
</svg>
