<svg width="16" height="16" viewBox="0 0 16 16" fill="none" xmlns="http://www.w3.org/2000/svg">
<g clip-path="url(#clip0)">
<path d="M13.6293 6.17947C13.6012 6.12523 13.5587 6.07974 13.5065 6.048C13.4543 6.01626 13.3944 5.99947 13.3333 5.99947H8.41599L9.65865 0.403474C9.67557 0.328374 9.66597 0.249733 9.63149 0.180906C9.59701 0.112079 9.53976 0.0573092 9.46948 0.025898C9.3992 -0.0055132 9.32021 -0.0116295 9.24593 0.00858786C9.17165 0.0288052 9.10666 0.0741097 9.06199 0.136808L2.39532 9.47014C2.35908 9.51999 2.33737 9.57891 2.3326 9.64035C2.32783 9.70179 2.34019 9.76336 2.3683 9.8182C2.39642 9.87304 2.43918 9.91902 2.49185 9.95102C2.54452 9.98302 2.60503 9.99979 2.66665 9.99947H7.58399L6.34132 15.5928C6.3244 15.6679 6.334 15.7465 6.36848 15.8154C6.40297 15.8842 6.46021 15.939 6.5305 15.9704C6.60078 16.0018 6.67977 16.0079 6.75405 15.9877C6.82833 15.9675 6.89332 15.9222 6.93799 15.8595L13.6047 6.52614C13.6403 6.47622 13.6614 6.41744 13.6657 6.35628C13.6701 6.29511 13.6575 6.23394 13.6293 6.17947Z" fill="#FFD600"/>
</g>
<defs>
<clipPath id="clip0">
<rect width="16" height="16" fill="white"/>
</clipPath>
</defs>
</svg>
