<svg version="1.1" id="Layer_1" xmlns="http://www.w3.org/2000/svg" xmlns:xlink="http://www.w3.org/1999/xlink" x="0px" y="0px"
	 width="100%" viewBox="0 0 128 128" enable-background="new 0 0 128 128" xml:space="preserve">
<path fill="#E8EAED" opacity="1.000000" stroke="none" 
	d="
M129.000000,114.000000 
	C129.000000,118.994728 129.000000,123.989449 129.000000,128.988129 
	C86.383629,128.992096 43.767250,128.992096 1.075437,128.992096 
	C1.075437,86.428757 1.075437,43.857338 1.075437,1.142961 
	C43.666317,1.142961 86.333092,1.142961 129.000000,1.142961 
	C129.000000,6.739196 129.000000,12.399890 128.668671,18.530807 
	C127.895538,19.002867 127.453758,19.004700 127.005249,18.751556 
	C126.993553,18.326658 126.988579,18.156740 126.988495,17.528421 
	C126.995796,16.237509 126.999794,15.404999 127.000404,14.572487 
	C127.008423,3.565447 126.444885,2.999154 115.476799,2.999082 
	C81.177368,2.998855 46.877937,2.998282 12.578506,2.999528 
	C4.424678,2.999824 3.003583,4.398586 3.001977,12.521631 
	C2.995063,47.487072 2.998327,82.452515 2.999509,117.417953 
	C2.999785,125.573990 4.398707,126.996246 12.518356,126.997932 
	C46.318283,127.004967 80.118210,127.000908 113.918137,127.000908 
	C126.940720,127.000900 126.940720,127.000908 127.348976,113.992157 
	C128.119446,113.996674 128.559723,113.998337 129.000000,114.000000 
z"/>
<path fill="#E1E4E7" opacity="1.000000" stroke="none" 
	d="
M129.000000,113.531342 
	C128.559723,113.998337 128.119446,113.996674 127.340332,113.997284 
	C127.001480,113.999550 126.988434,114.008415 126.993362,113.538933 
	C126.992592,105.042595 126.986893,97.015732 126.991776,88.552742 
	C126.996521,86.080765 126.990692,84.044914 126.990692,81.539536 
	C126.991432,73.042961 126.986328,65.015923 126.991882,56.540401 
	C126.995148,53.400940 126.987747,50.709965 126.987350,47.548393 
	C127.000237,37.720711 127.006104,28.363623 127.011971,19.006535 
	C127.453758,19.004700 127.895538,19.002867 128.668671,19.000515 
	C129.000000,50.354229 129.000000,81.708458 129.000000,113.531342 
z"/>
<path fill="#FEFFFF" opacity="1.000000" stroke="none" 
	d="
M126.984856,82.009071 
	C126.990692,84.044914 126.996521,86.080765 126.525223,88.556755 
	C93.771065,88.998169 61.494041,88.987419 29.217043,89.012817 
	C23.997900,89.016922 19.573839,92.225525 17.839735,97.061142 
	C16.001104,102.188232 17.175802,108.235924 21.681601,110.847794 
	C24.946121,112.740120 29.138586,113.792084 32.942383,113.862572 
	C49.811363,114.175171 66.689423,113.996819 83.564201,113.998581 
	C98.038948,114.000092 112.513687,114.005005 126.988434,114.008415 
	C126.988434,114.008415 127.001480,113.999550 127.010132,113.994431 
	C126.940720,127.000908 126.940720,127.000900 113.918137,127.000908 
	C80.118210,127.000908 46.318283,127.004967 12.518356,126.997932 
	C4.398707,126.996246 2.999785,125.573990 2.999509,117.417953 
	C2.998327,82.452515 2.995063,47.487072 3.001977,12.521631 
	C3.003583,4.398586 4.424678,2.999824 12.578506,2.999528 
	C46.877937,2.998282 81.177368,2.998855 115.476799,2.999082 
	C126.444885,2.999154 127.008423,3.565447 127.000404,14.572487 
	C126.999794,15.404999 126.995796,16.237509 126.567917,17.519510 
	C124.353485,17.647667 122.566635,17.062683 120.775169,17.048214 
	C109.958313,16.960840 99.137444,16.872591 88.325386,17.116272 
	C86.205833,17.164043 83.761772,18.222349 82.082161,19.576899 
	C76.377449,24.177555 74.567001,36.583122 78.884850,43.366879 
	C80.418381,45.776196 83.410622,48.457638 86.005890,48.768318 
	C94.206825,49.750057 102.538765,49.984058 110.812675,49.886166 
	C116.208504,49.822323 121.591560,48.678837 126.980347,48.018990 
	C126.987747,50.709965 126.995148,53.400940 126.525330,56.544422 
	C94.248863,56.998077 62.449612,56.988651 30.650381,57.009201 
	C24.193514,57.013371 19.886898,59.685204 17.937542,64.733551 
	C14.417409,73.849838 20.763975,81.964912 31.587194,81.981865 
	C63.386353,82.031670 95.185623,82.005493 126.984856,82.009071 
M22.613894,47.127045 
	C25.152426,47.755165 27.677490,48.851444 30.231979,48.924934 
	C38.379025,49.159317 46.555882,48.659630 54.686565,49.093327 
	C68.750801,49.843525 74.041847,45.257942 73.005928,30.250443 
	C72.983047,29.918957 73.003036,29.584734 72.989189,29.252365 
	C72.681915,21.881701 68.056763,17.142731 60.655167,17.045275 
	C50.173676,16.907272 39.688927,16.991465 29.205698,17.023113 
	C24.935555,17.036005 21.442627,18.695486 19.064056,22.325937 
	C14.874052,28.721205 16.394524,41.433136 22.613894,47.127045 
z"/>
<path fill="#F5F5F5" opacity="1.000000" stroke="none" 
	d="
M126.987350,47.548393 
	C121.591560,48.678837 116.208504,49.822323 110.812675,49.886166 
	C102.538765,49.984058 94.206825,49.750057 86.005890,48.768318 
	C83.410622,48.457638 80.418381,45.776196 78.884850,43.366879 
	C74.567001,36.583122 76.377449,24.177555 82.082161,19.576899 
	C83.761772,18.222349 86.205833,17.164043 88.325386,17.116272 
	C99.137444,16.872591 109.958313,16.960840 120.775169,17.048214 
	C122.566635,17.062683 124.353485,17.647667 126.563042,17.977913 
	C126.988579,18.156740 126.993553,18.326658 127.005249,18.751556 
	C127.006104,28.363623 127.000237,37.720711 126.987350,47.548393 
M91.648621,36.989437 
	C90.652328,36.990051 89.548439,36.716621 88.685028,37.055656 
	C87.397385,37.561279 86.279312,38.498779 85.089088,39.252525 
	C86.281212,39.837936 87.457932,40.888763 88.668114,40.928833 
	C94.141655,41.110073 99.627975,41.101849 105.101120,40.913124 
	C106.058853,40.880104 106.975517,39.656040 107.911140,38.982048 
	C106.963127,38.319874 106.042244,37.137127 105.062386,37.086063 
	C100.922318,36.870289 96.764679,36.991463 91.648621,36.989437 
M92.828743,30.153458 
	C91.717567,28.451578 90.841812,26.461920 89.342072,25.235018 
	C88.928421,24.896614 86.073601,26.537628 85.423325,27.820219 
	C84.929085,28.795038 86.052483,31.832188 86.630226,31.880751 
	C88.538773,32.041183 90.526314,31.262053 92.828743,30.153458 
z"/>
<path fill="#F5F5F5" opacity="1.000000" stroke="none" 
	d="
M126.993362,113.538933 
	C112.513687,114.005005 98.038948,114.000092 83.564201,113.998581 
	C66.689423,113.996819 49.811363,114.175171 32.942383,113.862572 
	C29.138586,113.792084 24.946121,112.740120 21.681601,110.847794 
	C17.175802,108.235924 16.001104,102.188232 17.839735,97.061142 
	C19.573839,92.225525 23.997900,89.016922 29.217043,89.012817 
	C61.494041,88.987419 93.771065,88.998169 126.514633,88.992889 
	C126.986893,97.015732 126.992592,105.042595 126.993362,113.538933 
M40.508766,103.697975 
	C49.139885,103.695129 57.773232,103.786400 66.399590,103.582352 
	C67.615990,103.553574 68.798286,102.082870 69.996368,101.279587 
	C68.977509,100.505287 67.966461,99.069275 66.938591,99.057121 
	C53.993706,98.904060 41.045773,98.904251 28.100838,99.055298 
	C27.060926,99.067436 26.037352,100.479698 25.006187,101.241318 
	C26.024670,102.054436 26.995483,103.486244 28.070236,103.569046 
	C31.865715,103.861488 35.696793,103.691917 40.508766,103.697975 
z"/>
<path fill="#F5F5F5" opacity="1.000000" stroke="none" 
	d="
M126.990692,81.539536 
	C95.185623,82.005493 63.386353,82.031670 31.587194,81.981865 
	C20.763975,81.964912 14.417409,73.849838 17.937542,64.733551 
	C19.886898,59.685204 24.193514,57.013371 30.650381,57.009201 
	C62.449612,56.988651 94.248863,56.998077 126.514664,56.992905 
	C126.986328,65.015923 126.991432,73.042961 126.990692,81.539536 
M94.455612,71.697067 
	C97.448143,71.678818 100.460426,71.846786 103.421547,71.532570 
	C104.349541,71.434090 105.139778,70.037430 105.993065,69.234985 
	C105.123703,68.479462 104.346886,67.544434 103.352348,67.031731 
	C102.693291,66.691971 101.722321,66.952415 100.890984,66.952385 
	C77.279129,66.951508 53.667278,66.951492 30.055426,66.952477 
	C29.224102,66.952507 28.245031,66.687805 27.595928,67.034851 
	C26.611391,67.561249 25.856142,68.516495 25.003490,69.289558 
	C25.876101,70.075195 26.630600,71.209938 27.652086,71.555534 
	C28.850424,71.960960 30.280884,71.694855 31.610668,71.695045 
	C52.229469,71.697960 72.848267,71.696823 94.455612,71.697067 
z"/>
<path fill="#027BFF" opacity="1.000000" stroke="none" 
	d="
M22.276138,46.941246 
	C16.394524,41.433136 14.874052,28.721205 19.064056,22.325937 
	C21.442627,18.695486 24.935555,17.036005 29.205698,17.023113 
	C39.688927,16.991465 50.173676,16.907272 60.655167,17.045275 
	C68.056763,17.142731 72.681915,21.881701 72.989189,29.252365 
	C73.003036,29.584734 72.983047,29.918957 73.005928,30.250443 
	C74.041847,45.257942 68.750801,49.843525 54.686565,49.093327 
	C46.555882,48.659630 38.379025,49.159317 30.231979,48.924934 
	C27.677490,48.851444 25.152426,47.755165 22.276138,46.941246 
M39.420677,36.992935 
	C35.589378,36.994171 31.750406,36.863842 27.932024,37.086529 
	C26.942442,37.144241 26.017313,38.307125 25.062576,38.962364 
	C25.991957,39.642231 26.893078,40.858353 27.855618,40.909081 
	C32.008621,41.127953 36.216686,41.339855 40.330437,40.884010 
	C42.876110,40.601925 46.466217,43.114166 47.937309,38.770248 
	C45.419407,38.177811 42.901508,37.585377 39.420677,36.992935 
M25.027130,29.391874 
	C25.936068,32.465977 27.900970,34.006310 30.872511,32.330566 
	C31.970142,31.711578 32.954197,29.526489 32.721382,28.295647 
	C32.487183,27.057495 30.352371,25.042789 29.619654,25.262945 
	C27.903049,25.778723 26.526985,27.427870 25.027130,29.391874 
z"/>
<path fill="#70717B" opacity="1.000000" stroke="none" 
	d="
M92.131042,36.989433 
	C96.764679,36.991463 100.922318,36.870289 105.062386,37.086063 
	C106.042244,37.137127 106.963127,38.319874 107.911140,38.982048 
	C106.975517,39.656040 106.058853,40.880104 105.101120,40.913124 
	C99.627975,41.101849 94.141655,41.110073 88.668114,40.928833 
	C87.457932,40.888763 86.281212,39.837936 85.089088,39.252525 
	C86.279312,38.498779 87.397385,37.561279 88.685028,37.055656 
	C89.548439,36.716621 90.652328,36.990051 92.131042,36.989433 
z"/>
<path fill="#74757E" opacity="1.000000" stroke="none" 
	d="
M92.656136,30.498516 
	C90.526314,31.262053 88.538773,32.041183 86.630226,31.880751 
	C86.052483,31.832188 84.929085,28.795038 85.423325,27.820219 
	C86.073601,26.537628 88.928421,24.896614 89.342072,25.235018 
	C90.841812,26.461920 91.717567,28.451578 92.656136,30.498516 
z"/>
<path fill="#7B7C85" opacity="1.000000" stroke="none" 
	d="
M40.011566,103.697754 
	C35.696793,103.691917 31.865715,103.861488 28.070236,103.569046 
	C26.995483,103.486244 26.024670,102.054436 25.006187,101.241318 
	C26.037352,100.479698 27.060926,99.067436 28.100838,99.055298 
	C41.045773,98.904251 53.993706,98.904060 66.938591,99.057121 
	C67.966461,99.069275 68.977509,100.505287 69.996368,101.279587 
	C68.798286,102.082870 67.615990,103.553574 66.399590,103.582352 
	C57.773232,103.786400 49.139885,103.695129 40.011566,103.697754 
z"/>
<path fill="#7B7C85" opacity="1.000000" stroke="none" 
	d="
M93.961342,71.696846 
	C72.848267,71.696823 52.229469,71.697960 31.610668,71.695045 
	C30.280884,71.694855 28.850424,71.960960 27.652086,71.555534 
	C26.630600,71.209938 25.876101,70.075195 25.003490,69.289558 
	C25.856142,68.516495 26.611391,67.561249 27.595928,67.034851 
	C28.245031,66.687805 29.224102,66.952507 30.055426,66.952477 
	C53.667278,66.951492 77.279129,66.951508 100.890984,66.952385 
	C101.722321,66.952415 102.693291,66.691971 103.352348,67.031731 
	C104.346886,67.544434 105.123703,68.479462 105.993065,69.234985 
	C105.139778,70.037430 104.349541,71.434090 103.421547,71.532570 
	C100.460426,71.846786 97.448143,71.678818 93.961342,71.696846 
z"/>
<path fill="#F9FCFF" opacity="1.000000" stroke="none" 
	d="
M39.902142,36.992935 
	C42.901508,37.585377 45.419407,38.177811 47.937309,38.770248 
	C46.466217,43.114166 42.876110,40.601925 40.330437,40.884010 
	C36.216686,41.339855 32.008621,41.127953 27.855618,40.909081 
	C26.893078,40.858353 25.991957,39.642231 25.062576,38.962364 
	C26.017313,38.307125 26.942442,37.144241 27.932024,37.086529 
	C31.750406,36.863842 35.589378,36.994171 39.902142,36.992935 
z"/>
<path fill="#F1F8FF" opacity="1.000000" stroke="none" 
	d="
M25.020092,29.005028 
	C26.526985,27.427870 27.903049,25.778723 29.619654,25.262945 
	C30.352371,25.042789 32.487183,27.057495 32.721382,28.295647 
	C32.954197,29.526489 31.970142,31.711578 30.872511,32.330566 
	C27.900970,34.006310 25.936068,32.465977 25.020092,29.005028 
z"/>
</svg>