<svg width="32" height="32" viewBox="0 0 32 32" fill="none" xmlns="http://www.w3.org/2000/svg">
<path d="M28 11.996H4C2.89543 11.996 2 12.8914 2 13.996V27.996C2 29.1006 2.89543 29.996 4 29.996H28C29.1046 29.996 30 29.1006 30 27.996V13.996C30 12.8914 29.1046 11.996 28 11.996Z" stroke="#2C3149" stroke-width="1.5" stroke-linecap="round" stroke-linejoin="round"/>
<path d="M28 2H4C2.89543 2 2 2.67157 2 3.5V6.5C2 7.32843 2.89543 8 4 8H28C29.1046 8 30 7.32843 30 6.5V3.5C30 2.67157 29.1046 2 28 2Z" stroke="#5E6378" stroke-width="1.5" stroke-linecap="round" stroke-linejoin="round"/>
<path d="M6 16L26 16" stroke="#568EE8" stroke-width="1.5" stroke-linecap="round" stroke-linejoin="round"/>
<path d="M6 21L26 21" stroke="#2C3149" stroke-width="1.5" stroke-linecap="round" stroke-linejoin="round"/>
<path d="M6 5H16" stroke="#5E6378" stroke-width="1.5" stroke-linecap="round" stroke-linejoin="round"/>
<path d="M26 5H25" stroke="#5E6378" stroke-width="1.5" stroke-linecap="round" stroke-linejoin="round"/>
<path d="M6 26L26 26" stroke="#2C3149" stroke-width="1.5" stroke-linecap="round" stroke-linejoin="round"/>
</svg>
