<svg width="32" height="32" viewBox="0 0 32 32" fill="none" xmlns="http://www.w3.org/2000/svg">
<path d="M29 0.996002H13C11.8954 0.996002 11 1.89143 11 2.996V4.996C11 6.10057 11.8954 6.996 13 6.996H29C30.1046 6.996 31 6.10057 31 4.996V2.996C31 1.89143 30.1046 0.996002 29 0.996002Z" stroke="#568EE8" stroke-width="1.5" stroke-linecap="round" stroke-linejoin="round"/>
<path d="M29 12.996H13C11.8954 12.996 11 13.8914 11 14.996V16.996C11 18.1006 11.8954 18.996 13 18.996H29C30.1046 18.996 31 18.1006 31 16.996V14.996C31 13.8914 30.1046 12.996 29 12.996Z" stroke="#2C3149" stroke-width="1.5" stroke-linecap="round" stroke-linejoin="round"/>
<path d="M29 24.996H13C11.8954 24.996 11 25.8914 11 26.996V28.996C11 30.1006 11.8954 30.996 13 30.996H29C30.1046 30.996 31 30.1006 31 28.996V26.996C31 25.8914 30.1046 24.996 29 24.996Z" stroke="#2C3149" stroke-width="1.5" stroke-linecap="round" stroke-linejoin="round"/>
<path d="M5 0.996002H3C1.89543 0.996002 1 1.89143 1 2.996V4.996C1 6.10057 1.89543 6.996 3 6.996H5C6.10457 6.996 7 6.10057 7 4.996V2.996C7 1.89143 6.10457 0.996002 5 0.996002Z" stroke="#568EE8" stroke-width="1.5" stroke-linecap="round" stroke-linejoin="round"/>
<path d="M5 12.996H3C1.89543 12.996 1 13.8914 1 14.996V16.996C1 18.1006 1.89543 18.996 3 18.996H5C6.10457 18.996 7 18.1006 7 16.996V14.996C7 13.8914 6.10457 12.996 5 12.996Z" stroke="#2C3149" stroke-width="1.5" stroke-linecap="round" stroke-linejoin="round"/>
<path d="M5 24.996H3C1.89543 24.996 1 25.8914 1 26.996V28.996C1 30.1006 1.89543 30.996 3 30.996H5C6.10457 30.996 7 30.1006 7 28.996V26.996C7 25.8914 6.10457 24.996 5 24.996Z" stroke="#2C3149" stroke-width="1.5" stroke-linecap="round" stroke-linejoin="round"/>
</svg>
