<svg width="36" height="36" viewBox="0 0 36 36" fill="none" xmlns="http://www.w3.org/2000/svg">
<g clip-path="url(#clip0_4348_74590)">
<path d="M19.1265 14.6254H7.87647C6.08625 14.6254 4.36936 13.9142 3.1035 12.6483C1.83762 11.3825 1.12646 9.66558 1.12646 7.87536C1.12646 6.08515 1.83762 4.36827 3.1035 3.10239C4.36936 1.83653 6.08625 1.12537 7.87647 1.12537H25.8765C27.3313 1.12506 28.7474 1.5948 29.9135 2.46461C31.0797 3.33443 31.9336 4.55774 32.3481 5.95229C32.7627 7.34684 32.7154 8.83799 32.2137 10.2035C31.7118 11.5691 30.7822 12.736 29.5635 13.5304" stroke="#535870" stroke-width="1.5" stroke-linecap="round" stroke-linejoin="round"/>
<path d="M12.3765 28.1253H7.87647C6.08625 28.1253 4.36936 27.4142 3.1035 26.1483C1.83762 24.8825 1.12646 23.1656 1.12646 21.3753C1.12646 19.5852 1.83762 17.8683 3.1035 16.6025C4.36936 15.3366 6.08625 14.6254 7.87647 14.6254" stroke="#535870" stroke-width="1.5" stroke-linecap="round" stroke-linejoin="round"/>
<path d="M15.7515 7.87537H25.8765" stroke="#535870" stroke-width="1.5" stroke-linecap="round" stroke-linejoin="round"/>
<path d="M33.9465 22.3039L22.5 33.7504L16.875 34.8754L18 29.2504L29.445 17.8039C30.0402 17.2089 30.8473 16.8747 31.689 16.8747C32.5306 16.8747 33.3378 17.2089 33.933 17.8039L33.945 17.8174C34.5402 18.4122 34.8747 19.219 34.8749 20.0604C34.8752 20.9017 34.5413 21.7087 33.9465 22.3039Z" stroke="#535870" stroke-width="1.5" stroke-linecap="round" stroke-linejoin="round"/>
<path d="M15.7515 21.3753H20.2515" stroke="#535870" stroke-width="1.5" stroke-linecap="round" stroke-linejoin="round"/>
<path d="M7.87646 8.43787C7.5658 8.43787 7.31396 8.18603 7.31396 7.87537C7.31396 7.56472 7.5658 7.31287 7.87646 7.31287" stroke="#535870" stroke-width="1.5"/>
<path d="M7.87646 8.43787C8.18711 8.43787 8.43896 8.18603 8.43896 7.87537C8.43896 7.56472 8.18711 7.31287 7.87646 7.31287" stroke="#535870" stroke-width="1.5"/>
<path d="M7.87646 21.9378C7.5658 21.9378 7.31396 21.6861 7.31396 21.3753C7.31396 21.0647 7.5658 20.8128 7.87646 20.8128" stroke="#535870" stroke-width="1.5"/>
<path d="M7.87646 21.9378C8.18711 21.9378 8.43896 21.6861 8.43896 21.3753C8.43896 21.0647 8.18711 20.8128 7.87646 20.8128" stroke="#535870" stroke-width="1.5"/>
</g>
<defs>
<clipPath id="clip0_4348_74590">
<rect width="36" height="36" fill="white"/>
</clipPath>
</defs>
</svg>
