<svg width="20" height="20" viewBox="0 0 20 20" fill="none" xmlns="http://www.w3.org/2000/svg">
<g clip-path="url(#clip0_1944_251)">
<path d="M19.9934 9.67439C19.9512 8.5022 19.6784 7.34982 19.1905 6.28318C18.7026 5.21653 18.0091 4.25656 17.1498 3.45818C16.2905 2.6598 15.2823 2.03868 14.1827 1.63036C13.0831 1.22204 11.9138 1.03453 10.7417 1.07855C8.95035 1.15634 7.22265 1.76531 5.77845 2.82798C4.33426 3.89065 3.23887 5.35896 2.63169 7.04605C2.61603 7.08867 2.58688 7.12499 2.54867 7.14951C2.51046 7.17403 2.46529 7.1854 2.42003 7.18189L0.448359 7.03022C0.370809 7.02616 0.293596 7.04305 0.224826 7.07912C0.156056 7.11519 0.0982666 7.16911 0.0575252 7.23522C0.0179918 7.30261 -0.0017993 7.37975 0.000410961 7.45785C0.00262122 7.53594 0.0267438 7.61184 0.0700252 7.67689L2.62753 11.5102C2.66304 11.5633 2.7103 11.6076 2.76564 11.6395C2.82099 11.6714 2.88293 11.6902 2.94669 11.6944H2.97419C3.03356 11.6943 3.09222 11.6816 3.14626 11.657C3.2003 11.6324 3.24846 11.5966 3.28753 11.5519L6.27003 8.14605C6.321 8.08786 6.35477 8.01662 6.36755 7.94032C6.38032 7.86401 6.3716 7.78566 6.34236 7.71404C6.31312 7.64241 6.26452 7.58034 6.202 7.53477C6.13947 7.48921 6.0655 7.46195 5.98836 7.45605L4.60086 7.34939C4.56745 7.34678 4.53516 7.33615 4.50674 7.31841C4.47831 7.30066 4.45459 7.27632 4.43758 7.24745C4.42057 7.21858 4.41077 7.18603 4.40902 7.15257C4.40727 7.1191 4.41362 7.08571 4.42753 7.05522C4.98724 5.81702 5.87961 4.75846 7.00528 3.99736C8.13096 3.23627 9.44578 2.80252 10.8034 2.74439C11.7566 2.70894 12.7076 2.86171 13.6018 3.19396C14.496 3.52622 15.3159 4.03144 16.0148 4.68076C16.7136 5.33008 17.2777 6.11076 17.6747 6.97818C18.0716 7.84559 18.2938 8.78274 18.3284 9.73605C18.3837 11.2878 17.9519 12.818 17.0934 14.1119C17.0642 14.1559 17.0194 14.1871 16.968 14.1994C16.9166 14.2116 16.8626 14.2038 16.8167 14.1777C15.6805 13.5452 14.4376 13.1271 13.15 12.9444C13.1438 12.9436 13.138 12.9405 13.1339 12.9357C13.1297 12.931 13.1275 12.9249 13.1275 12.9186V12.9052C13.1275 12.9008 13.1287 12.8965 13.1309 12.8927C13.1331 12.8889 13.1362 12.8857 13.14 12.8836C13.6469 12.5641 14.0645 12.1214 14.3538 11.5968C14.643 11.0721 14.7946 10.4827 14.7942 9.88355V7.17939C14.7941 6.95839 14.7063 6.74646 14.55 6.59022C14.5251 6.56552 14.507 6.53481 14.4975 6.50105L14.4909 6.47855C14.3208 6.01248 14.0209 5.60478 13.6267 5.30357C13.2324 5.00235 12.7603 4.82018 12.2659 4.77855C10.3909 4.40439 9.54336 5.12605 9.20003 5.61189C9.18302 5.63494 9.16144 5.65425 9.13663 5.66858C9.11182 5.68292 9.08433 5.69199 9.05586 5.69522C8.84564 5.71797 8.64512 5.79563 8.47441 5.9204C8.30371 6.04517 8.16884 6.21266 8.08336 6.40605C8.07189 6.42828 8.0616 6.45109 8.05253 6.47439C8.03992 6.50358 8.02083 6.52952 7.99669 6.55022C7.90667 6.62847 7.83449 6.72513 7.78503 6.83367C7.73558 6.94221 7.71 7.06011 7.71003 7.17939V9.88772C7.71044 10.4838 7.86116 11.0701 8.14826 11.5924C8.43536 12.1147 8.84955 12.5562 9.35253 12.8761C9.35992 12.8806 9.36602 12.887 9.37026 12.8946C9.37449 12.9022 9.3767 12.9107 9.37669 12.9194V12.9361L9.37169 12.9419C8.03792 13.1272 6.75198 13.5662 5.58336 14.2352C5.54763 14.2563 5.50648 14.2665 5.46503 14.2644C5.31287 14.2554 5.16117 14.2883 5.02641 14.3595C4.89165 14.4307 4.779 14.5375 4.70072 14.6683C4.62244 14.7991 4.58153 14.9488 4.58243 15.1012C4.58334 15.2536 4.62603 15.4029 4.70586 15.5327C5.45063 16.6034 6.44837 17.4734 7.6104 18.0655C8.77244 18.6577 10.0628 18.9536 11.3667 18.9269C12.5456 18.9016 13.7075 18.6403 14.7838 18.1584C15.86 17.6766 16.8288 16.984 17.633 16.1215C18.4371 15.259 19.0603 14.2442 19.4657 13.1368C19.8711 12.0295 20.0505 10.8522 19.9934 9.67439ZM11.5525 8.23605C11.5893 8.21619 11.6313 8.20787 11.6729 8.21218C11.7145 8.21649 11.7539 8.23323 11.7859 8.26022C12.1276 8.53066 12.5305 8.71321 12.9592 8.79189C13.0062 8.80132 13.0485 8.82672 13.0788 8.86379C13.1092 8.90086 13.1258 8.94729 13.1259 8.99522V9.88772C13.1259 10.385 12.9283 10.8619 12.5767 11.2135C12.2251 11.5652 11.7481 11.7627 11.2509 11.7627C10.7536 11.7627 10.2767 11.5652 9.92503 11.2135C9.5734 10.8619 9.37586 10.385 9.37586 9.88772V8.70439C9.37586 8.67548 9.38188 8.6469 9.39353 8.62045C9.40518 8.594 9.4222 8.57026 9.44352 8.55074C9.46484 8.53123 9.48998 8.51636 9.51736 8.50709C9.54473 8.49782 9.57374 8.49434 9.60253 8.49689C10.2642 8.58764 10.938 8.4975 11.5525 8.23605Z" fill="#568EE8"/>
</g>
<defs>
<clipPath id="clip0_1944_251">
<rect width="20" height="20" fill="white"/>
</clipPath>
</defs>
</svg>
