<svg version="1.1" id="Layer_1" xmlns="http://www.w3.org/2000/svg" xmlns:xlink="http://www.w3.org/1999/xlink" x="0px" y="0px"
	 width="100%" viewBox="0 0 128 128" enable-background="new 0 0 128 128" xml:space="preserve">
<path fill="#1A1B25" opacity="1.000000" stroke="none" 
	d="
M129.000000,49.000000 
	C129.000000,50.714397 129.000000,52.428791 128.538513,54.480736 
	C105.580635,54.877419 83.084282,54.945545 60.587887,54.992092 
	C48.422058,55.017262 36.255325,54.923183 24.090633,55.045589 
	C18.080576,55.106060 15.279852,57.989418 15.033885,63.973728 
	C14.910789,66.968620 14.960137,69.973145 15.008633,72.972054 
	C15.125204,80.180687 17.805658,82.969101 25.031132,82.979088 
	C59.687363,83.026985 94.343697,83.000237 129.000000,83.000000 
	C129.000000,84.066673 129.000000,85.133347 128.538620,86.508423 
	C125.580757,86.876190 123.084305,86.986298 120.587799,86.987244 
	C89.104080,86.999214 57.620243,86.959991 26.136850,87.061821 
	C23.570864,87.070114 20.634027,87.386765 18.517433,88.647713 
	C13.297687,91.757362 13.169491,110.113121 18.372910,113.229218 
	C20.618929,114.574249 23.738417,114.920303 26.464920,114.933510 
	C59.944679,115.095604 93.425148,115.111763 126.926285,115.591713 
	C127.027840,125.037117 125.659477,126.967567 118.664078,126.975861 
	C83.041283,127.018074 47.418369,127.018898 11.795576,126.973869 
	C4.774012,126.964996 3.015769,125.100334 3.011269,117.971832 
	C2.989096,82.848381 2.986332,47.724888 3.012977,12.601439 
	C3.019079,4.557344 4.620195,3.008589 12.720001,3.005299 
	C46.178848,2.991709 79.637703,2.998920 113.096558,2.999131 
	C126.986137,2.999219 127.175392,3.190045 126.952271,16.968426 
	C126.962769,17.031050 127.057892,17.115192 126.586823,17.076544 
	C112.321220,17.028494 98.526413,16.965469 84.732285,17.035812 
	C79.132767,17.064367 77.162086,19.005495 77.040688,24.481579 
	C76.915482,30.129602 76.928436,35.784115 77.035126,41.432877 
	C77.139374,46.952095 79.063667,48.933975 84.647095,48.957008 
	C98.772308,49.015293 112.898186,48.912525 127.345322,48.967266 
	C128.111237,49.040173 128.555618,49.020088 129.000000,49.000000 
M61.386978,49.000710 
	C62.219879,49.000633 63.052818,49.005527 63.885681,48.999702 
	C71.437813,48.946896 72.965752,47.444878 72.996368,39.969620 
	C73.017517,34.805733 73.066032,29.640535 72.978516,24.478020 
	C72.887825,19.127935 71.028534,17.077335 65.831985,17.040321 
	C51.840012,16.940659 37.846851,17.012249 23.854160,17.008677 
	C19.318981,17.007519 17.092796,19.384052 17.031824,23.793665 
	C16.953526,29.456312 16.963726,35.121101 17.011431,40.784328 
	C17.065594,47.214233 18.844475,48.964821 25.433056,48.988438 
	C37.093510,49.030239 48.754223,49.000542 61.386978,49.000710 
z"/>
<path fill="#3C3F4A" opacity="1.000000" stroke="none" 
	d="
M126.941780,16.905800 
	C127.175392,3.190045 126.986137,2.999219 113.096558,2.999131 
	C79.637703,2.998920 46.178848,2.991709 12.720001,3.005299 
	C4.620195,3.008589 3.019079,4.557344 3.012977,12.601439 
	C2.986332,47.724888 2.989096,82.848381 3.011269,117.971832 
	C3.015769,125.100334 4.774012,126.964996 11.795576,126.973869 
	C47.418369,127.018898 83.041283,127.018074 118.664078,126.975861 
	C125.659477,126.967567 127.027840,125.037117 127.275620,115.566742 
	C128.069397,115.077141 128.534698,115.038574 129.000000,115.000000 
	C129.000000,119.661674 129.000000,124.323341 129.000000,128.988770 
	C86.383980,128.992508 43.767963,128.992508 1.075972,128.992508 
	C1.075972,86.429749 1.075972,43.859329 1.075972,1.144453 
	C43.666302,1.144453 86.333092,1.144453 129.000000,1.144453 
	C129.000000,6.068265 129.000000,11.062935 128.656021,16.546108 
	C127.855286,16.991674 127.398537,16.948736 126.941780,16.905800 
z"/>
<path fill="#697282" opacity="1.000000" stroke="none" 
	d="
M129.000000,82.666672 
	C94.343697,83.000237 59.687363,83.026985 25.031132,82.979088 
	C17.805658,82.969101 15.125204,80.180687 15.008633,72.972054 
	C14.960137,69.973145 14.910789,66.968620 15.033885,63.973728 
	C15.279852,57.989418 18.080576,55.106060 24.090633,55.045589 
	C36.255325,54.923183 48.422058,55.017262 60.587887,54.992092 
	C83.084282,54.945545 105.580635,54.877419 128.538513,54.909142 
	C129.000000,55.444447 129.000000,55.888889 128.650818,56.701866 
	C127.834785,57.102127 127.367935,57.133854 126.441681,57.111786 
	C94.999130,57.040676 64.015648,57.105904 33.033001,56.972836 
	C16.399376,56.901394 16.763584,56.500839 17.048742,73.709686 
	C17.135052,78.918304 19.137735,80.943886 24.463564,80.946884 
	C58.609520,80.966080 92.755531,80.884583 127.251526,80.860603 
	C128.067688,80.923347 128.533844,80.961678 129.000000,81.000000 
	C129.000000,81.444443 129.000000,81.888893 129.000000,82.666672 
z"/>
<path fill="#697282" opacity="1.000000" stroke="none" 
	d="
M129.000000,114.666672 
	C128.534698,115.038574 128.069397,115.077141 127.254768,115.140686 
	C93.425148,115.111763 59.944679,115.095604 26.464920,114.933510 
	C23.738417,114.920303 20.618929,114.574249 18.372910,113.229218 
	C13.169491,110.113121 13.297687,91.757362 18.517433,88.647713 
	C20.634027,87.386765 23.570864,87.070114 26.136850,87.061821 
	C57.620243,86.959991 89.104080,86.999214 120.587799,86.987244 
	C123.084305,86.986298 125.580757,86.876190 128.538620,86.908409 
	C129.000000,87.444443 129.000000,87.888893 128.650879,88.701828 
	C127.834946,89.101814 127.368156,89.133308 126.441940,89.110947 
	C94.999718,89.040092 64.016556,89.105598 33.034245,88.972824 
	C16.414011,88.901604 16.760471,88.494865 17.048119,105.710922 
	C17.135138,110.918999 19.140097,112.944221 24.464298,112.947105 
	C58.609898,112.965645 92.755554,112.884239 127.251266,112.859985 
	C128.067566,112.922852 128.533783,112.961426 129.000000,113.000000 
	C129.000000,113.444443 129.000000,113.888893 129.000000,114.666672 
z"/>
<path fill="#788190" opacity="1.000000" stroke="none" 
	d="
M126.952271,16.968426 
	C127.398537,16.948736 127.855286,16.991674 128.656021,17.017305 
	C129.000000,27.354227 129.000000,37.708454 129.000000,48.531342 
	C128.555618,49.020088 128.111237,49.040173 127.342712,48.507050 
	C127.031670,37.674294 127.044777,27.394743 127.057892,17.115192 
	C127.057892,17.115192 126.962769,17.031050 126.952271,16.968426 
z"/>
<path fill="#3C3F4A" opacity="1.000000" stroke="none" 
	d="
M126.901077,57.165581 
	C127.367935,57.133854 127.834785,57.102127 128.650818,57.035202 
	C129.000000,64.687576 129.000000,72.375153 129.000000,80.531372 
	C128.533844,80.961678 128.067688,80.923347 127.274399,80.403465 
	C126.931877,72.336464 126.916481,64.751022 126.901077,57.165581 
z"/>
<path fill="#3C3F4A" opacity="1.000000" stroke="none" 
	d="
M129.000000,112.531364 
	C128.533783,112.961426 128.067566,112.922852 127.274002,112.402863 
	C126.931564,104.335907 126.916458,96.750351 126.901360,89.164803 
	C127.368156,89.133308 127.834946,89.101814 128.650879,89.035156 
	C129.000000,96.687576 129.000000,104.375153 129.000000,112.531364 
z"/>
<path fill="#85D896" opacity="1.000000" stroke="none" 
	d="
M60.900902,49.000740 
	C48.754223,49.000542 37.093510,49.030239 25.433056,48.988438 
	C18.844475,48.964821 17.065594,47.214233 17.011431,40.784328 
	C16.963726,35.121101 16.953526,29.456312 17.031824,23.793665 
	C17.092796,19.384052 19.318981,17.007519 23.854160,17.008677 
	C37.846851,17.012249 51.840012,16.940659 65.831985,17.040321 
	C71.028534,17.077335 72.887825,19.127935 72.978516,24.478020 
	C73.066032,29.640535 73.017517,34.805733 72.996368,39.969620 
	C72.965752,47.444878 71.437813,48.946896 63.885681,48.999702 
	C63.052818,49.005527 62.219879,49.000633 60.900902,49.000740 
M38.439331,36.987713 
	C34.969234,36.995731 31.488605,36.857044 28.035723,37.104900 
	C27.053082,37.175438 26.151136,38.370152 25.212185,39.049339 
	C26.019590,39.687134 26.813051,40.856060 27.636635,40.877686 
	C33.580536,41.033737 39.532623,41.032001 45.476101,40.865555 
	C46.264053,40.843487 47.018055,39.609028 47.787785,38.936054 
	C46.976040,38.302795 46.226532,37.254242 45.339802,37.121353 
	C43.398365,36.830402 41.387321,37.003899 38.439331,36.987713 
M27.182213,32.432137 
	C29.044260,31.653652 31.066690,31.091295 32.640034,29.923759 
	C32.975529,29.674797 32.063900,26.652222 31.023951,25.953371 
	C30.005182,25.268751 26.890188,25.602482 26.775932,26.036724 
	C26.282228,27.913069 26.551601,29.990194 27.182213,32.432137 
z"/>
<path fill="#6A7383" opacity="1.000000" stroke="none" 
	d="
M126.586823,17.076544 
	C127.044777,27.394743 127.031670,37.674294 127.021179,48.414055 
	C112.898186,48.912525 98.772308,49.015293 84.647095,48.957008 
	C79.063667,48.933975 77.139374,46.952095 77.035126,41.432877 
	C76.928436,35.784115 76.915482,30.129602 77.040688,24.481579 
	C77.162086,19.005495 79.132767,17.064367 84.732285,17.035812 
	C98.526413,16.965469 112.321220,17.028494 126.586823,17.076544 
M88.117470,40.945827 
	C93.611336,40.949471 99.108498,41.051403 104.596077,40.867443 
	C105.600708,40.833767 106.566345,39.637074 107.549980,38.977226 
	C106.551994,38.331821 105.571121,37.161686 104.553169,37.128490 
	C99.065361,36.949532 93.565956,36.973194 88.076927,37.138622 
	C87.185547,37.165489 86.326103,38.251842 85.451889,38.848476 
	C86.061844,39.514618 86.671806,40.180763 88.117470,40.945827 
M89.360771,25.188192 
	C85.809586,25.615814 84.245506,27.513535 85.862663,30.857735 
	C86.343674,31.852440 88.319664,32.766254 89.467323,32.616760 
	C90.625221,32.465931 92.562576,30.827753 92.465004,30.055058 
	C92.257660,28.413208 90.951103,26.910172 89.360771,25.188192 
z"/>
<path fill="#1A1B25" opacity="1.000000" stroke="none" 
	d="
M126.441673,57.111786 
	C126.916481,64.751022 126.931877,72.336464 126.924400,80.379044 
	C92.755531,80.884583 58.609520,80.966080 24.463564,80.946884 
	C19.137735,80.943886 17.135052,78.918304 17.048742,73.709686 
	C16.763584,56.500839 16.399376,56.901394 33.033001,56.972836 
	C64.015648,57.105904 94.999130,57.040676 126.441673,57.111786 
M76.500000,66.950127 
	C60.698071,66.951149 44.895535,66.893791 29.095278,67.056847 
	C27.736563,67.070877 26.392925,68.546097 25.042284,69.342552 
	C26.295134,70.094444 27.544518,71.495522 28.801350,71.502243 
	C53.252014,71.632858 77.703720,71.633835 102.154419,71.507660 
	C103.423454,71.501106 104.685425,70.124786 105.950684,69.386177 
	C104.617599,68.575249 103.302544,67.099174 101.948471,67.062477 
	C93.803955,66.841721 85.650475,66.951225 76.500000,66.950127 
z"/>
<path fill="#1A1B25" opacity="1.000000" stroke="none" 
	d="
M126.441940,89.110947 
	C126.916458,96.750351 126.931564,104.335907 126.923927,112.378571 
	C92.755554,112.884239 58.609898,112.965645 24.464298,112.947105 
	C19.140097,112.944221 17.135138,110.918999 17.048119,105.710922 
	C16.760471,88.494865 16.414011,88.901604 33.034245,88.972824 
	C64.016556,89.105598 94.999718,89.040092 126.441940,89.110947 
M49.499695,98.949448 
	C42.524151,98.952217 35.545002,98.842422 28.576509,99.065468 
	C27.375841,99.103905 26.220448,100.556740 25.044144,101.356232 
	C26.132439,102.098686 27.213280,103.474037 28.310165,103.486954 
	C41.096668,103.637543 53.886227,103.636993 66.672745,103.486641 
	C67.774414,103.473679 68.860184,102.109108 69.953346,101.372398 
	C68.783371,100.567589 67.644295,99.126389 66.438087,99.067825 
	C61.135757,98.810356 55.814030,98.952286 49.499695,98.949448 
z"/>
<path fill="#FCFEFD" opacity="1.000000" stroke="none" 
	d="
M38.922020,36.987709 
	C41.387321,37.003899 43.398365,36.830402 45.339802,37.121353 
	C46.226532,37.254242 46.976040,38.302795 47.787785,38.936054 
	C47.018055,39.609028 46.264053,40.843487 45.476101,40.865555 
	C39.532623,41.032001 33.580536,41.033737 27.636635,40.877686 
	C26.813051,40.856060 26.019590,39.687134 25.212185,39.049339 
	C26.151136,38.370152 27.053082,37.175438 28.035723,37.104900 
	C31.488605,36.857044 34.969234,36.995731 38.922020,36.987709 
z"/>
<path fill="#F9FDFA" opacity="1.000000" stroke="none" 
	d="
M26.862764,32.213200 
	C26.551601,29.990194 26.282228,27.913069 26.775932,26.036724 
	C26.890188,25.602482 30.005182,25.268751 31.023951,25.953371 
	C32.063900,26.652222 32.975529,29.674797 32.640034,29.923759 
	C31.066690,31.091295 29.044260,31.653652 26.862764,32.213200 
z"/>
<path fill="#A2ABB9" opacity="1.000000" stroke="none" 
	d="
M87.699615,40.896370 
	C86.671806,40.180763 86.061844,39.514618 85.451889,38.848480 
	C86.326103,38.251842 87.185547,37.165489 88.076927,37.138622 
	C93.565956,36.973194 99.065361,36.949532 104.553169,37.128490 
	C105.571121,37.161686 106.551994,38.331821 107.549980,38.977226 
	C106.566345,39.637074 105.600708,40.833767 104.596077,40.867443 
	C99.108498,41.051403 93.611336,40.949471 87.699615,40.896370 
z"/>
<path fill="#A0A9B7" opacity="1.000000" stroke="none" 
	d="
M89.727959,25.269211 
	C90.951103,26.910172 92.257660,28.413208 92.465004,30.055058 
	C92.562576,30.827753 90.625221,32.465931 89.467323,32.616760 
	C88.319664,32.766254 86.343674,31.852440 85.862663,30.857735 
	C84.245506,27.513535 85.809586,25.615814 89.727959,25.269211 
z"/>
<path fill="#7C8390" opacity="1.000000" stroke="none" 
	d="
M77.000000,66.950134 
	C85.650475,66.951225 93.803955,66.841721 101.948471,67.062477 
	C103.302544,67.099174 104.617599,68.575249 105.950684,69.386177 
	C104.685425,70.124786 103.423454,71.501106 102.154419,71.507660 
	C77.703720,71.633835 53.252014,71.632858 28.801350,71.502243 
	C27.544518,71.495522 26.295134,70.094444 25.042284,69.342552 
	C26.392925,68.546097 27.736563,67.070877 29.095278,67.056847 
	C44.895535,66.893791 60.698071,66.951149 77.000000,66.950134 
z"/>
<path fill="#7C8390" opacity="1.000000" stroke="none" 
	d="
M49.999516,98.949448 
	C55.814030,98.952286 61.135757,98.810356 66.438087,99.067825 
	C67.644295,99.126389 68.783371,100.567589 69.953346,101.372391 
	C68.860184,102.109108 67.774414,103.473679 66.672745,103.486641 
	C53.886227,103.636993 41.096668,103.637543 28.310165,103.486954 
	C27.213280,103.474037 26.132439,102.098686 25.044142,101.356232 
	C26.220448,100.556740 27.375841,99.103905 28.576509,99.065468 
	C35.545002,98.842422 42.524151,98.952217 49.999516,98.949448 
z"/>
</svg>