<svg width="32" height="32" viewBox="0 0 32 32" fill="none" xmlns="http://www.w3.org/2000/svg">
<path d="M21 13H11C9.89543 13 9 13.8954 9 15V21C9 22.1046 9.89543 23 11 23H21C22.1046 23 23 22.1046 23 21V15C23 13.8954 22.1046 13 21 13Z" stroke="#5E6378" stroke-width="1.5" stroke-linecap="round" stroke-linejoin="round"/>
<path d="M16 17.5C15.9011 17.5 15.8044 17.5293 15.7222 17.5843C15.64 17.6392 15.5759 17.7173 15.5381 17.8087C15.5002 17.9 15.4903 18.0006 15.5096 18.0975C15.5289 18.1945 15.5765 18.2836 15.6464 18.3536C15.7164 18.4235 15.8055 18.4711 15.9025 18.4904C15.9994 18.5097 16.1 18.4998 16.1913 18.4619C16.2827 18.4241 16.3608 18.36 16.4157 18.2778C16.4707 18.1956 16.5 18.0989 16.5 18C16.5002 17.9343 16.4874 17.8692 16.4623 17.8085C16.4372 17.7477 16.4004 17.6925 16.3539 17.6461C16.3075 17.5996 16.2523 17.5628 16.1915 17.5377C16.1308 17.5126 16.0657 17.4998 16 17.5Z" stroke="#5E6378" stroke-width="1.5" stroke-linecap="round" stroke-linejoin="round"/>
<path d="M11 13V10C11 8.67392 11.5268 7.40215 12.4645 6.46447C13.4021 5.52678 14.6739 5 16 5C17.3261 5 18.5979 5.52678 19.5355 6.46447C20.4732 7.40215 21 8.67392 21 10V13" stroke="#5E6378" stroke-width="1.5" stroke-linecap="round" stroke-linejoin="round"/>
<path d="M16 31C7.09867 28.6253 1 23.3467 1 14V1H31V14C31 23.34 24.9107 28.6227 16 31Z" stroke="#5E6378" stroke-width="1.5" stroke-linecap="round" stroke-linejoin="round"/>
</svg>
