<svg width="32" height="32" viewBox="0 0 32 32" fill="none" xmlns="http://www.w3.org/2000/svg">
<rect opacity="0.01" width="32" height="32" fill="#5E6378"/>
<path fill-rule="evenodd" clip-rule="evenodd" d="M13.6861 9.52967C13.6861 8.15824 14.81 7.63077 16.6715 7.63077C19.3409 7.63077 22.7127 8.43956 25.382 9.88132V1.61758C22.4668 0.457142 19.5867 0 16.6715 0C9.54159 0 4.8 3.72747 4.8 9.95165C4.8 19.6571 18.1467 18.1099 18.1467 22.2945C18.1467 23.9121 16.7418 24.4396 14.7749 24.4396C11.8597 24.4396 8.13668 23.244 5.18635 21.6264V29.9956C8.45278 31.4022 11.7543 32 14.7749 32C22.0805 32 27.103 28.378 27.103 22.0835C27.0679 11.6044 13.6861 13.4681 13.6861 9.52967Z" fill="#5E6378"/>
</svg>
