<svg version="1.1" id="Layer_1" xmlns="http://www.w3.org/2000/svg" xmlns:xlink="http://www.w3.org/1999/xlink" x="0px" y="0px"
	 width="100%" viewBox="0 0 128 128" enable-background="new 0 0 128 128" xml:space="preserve">
<path fill="#E2E6EB" opacity="1.000000" stroke="none" 
	d="
M129.000000,89.000000 
	C129.000000,102.319908 129.000000,115.639824 129.000000,128.979858 
	C86.389709,128.979858 43.779404,128.979858 1.084550,128.979858 
	C1.084550,86.432793 1.084550,43.865364 1.084550,1.148968 
	C43.666275,1.148968 86.333076,1.148968 129.000000,1.148968 
	C129.000000,6.067683 129.000000,11.062643 128.658447,16.525539 
	C127.861549,16.986233 127.406197,16.978992 126.968361,16.518972 
	C127.047928,2.999084 127.047928,2.999052 113.971970,2.999050 
	C79.846283,2.999046 45.720589,2.995842 11.594899,3.001831 
	C4.821771,3.003020 3.015327,4.740897 3.010770,11.511945 
	C2.986571,47.468758 2.990860,83.425598 3.008518,119.382408 
	C3.011192,124.827072 4.986928,126.960106 10.490294,126.968636 
	C47.112896,127.025406 83.735672,126.970840 120.358246,127.035576 
	C124.610176,127.043091 126.360847,124.672630 126.911316,121.025452 
	C127.206284,119.071121 126.981270,117.038307 126.994186,114.701523 
	C126.998863,113.910736 127.000259,113.459328 127.004654,112.538803 
	C126.985664,104.389832 126.963676,96.709991 127.284698,89.022568 
	C128.085144,89.009995 128.542572,89.004997 129.000000,89.000000 
z"/>
<path fill="#DFE3E7" opacity="1.000000" stroke="none" 
	d="
M126.950836,16.971752 
	C127.406197,16.978992 127.861549,16.986233 128.658447,16.996737 
	C129.000000,17.750000 129.000000,18.500000 128.739349,19.510067 
	C127.966492,19.523451 127.454262,19.276764 126.479179,19.019897 
	C112.555290,19.007006 99.094223,18.983656 85.633263,19.011337 
	C79.925514,19.023073 79.044487,19.945738 79.007851,25.734541 
	C78.977348,30.553732 78.978966,35.373402 79.007294,40.192616 
	C79.042427,46.168255 79.878517,46.987595 86.058472,46.992222 
	C99.685585,47.002426 113.312729,46.978558 127.283173,46.975945 
	C128.084335,46.988869 128.542160,46.994434 129.000000,47.000000 
	C129.000000,50.030594 129.000000,53.061188 128.657715,56.548782 
	C127.859100,57.012939 127.402763,57.020092 126.483139,57.017204 
	C92.881546,57.004936 59.743042,56.953541 26.605289,57.087555 
	C23.745750,57.099117 20.891174,58.337521 17.762844,59.001396 
	C17.310522,58.990265 17.129648,58.983765 17.020779,58.612274 
	C20.189615,57.165966 23.279530,55.168491 26.384342,55.145061 
	C57.371166,54.911221 88.360832,55.067116 119.348335,54.883759 
	C121.908592,54.868603 126.620453,57.260902 126.792221,52.125599 
	C126.974068,46.689129 122.110298,49.203377 119.592072,49.141487 
	C107.770203,48.850967 95.937103,49.047386 84.108391,48.991699 
	C79.030815,48.967800 77.083527,47.074070 77.018730,42.146481 
	C76.939873,36.149750 76.893112,30.148539 77.036896,24.154167 
	C77.161140,18.974566 79.264183,17.026505 84.466743,17.011372 
	C98.628029,16.970179 112.789459,16.981339 126.950836,16.971752 
z"/>
<path fill="#DCE0E4" opacity="1.000000" stroke="none" 
	d="
M16.948772,58.977264 
	C17.129648,58.983765 17.310522,58.990265 17.686447,59.412636 
	C17.587164,64.118507 17.098467,68.406059 17.044497,72.699081 
	C16.965490,78.983871 19.070307,80.986084 25.471197,80.988373 
	C59.294262,81.000473 93.117332,80.975266 127.283630,80.971191 
	C128.084579,80.986252 128.542282,80.993126 129.000000,81.000000 
	C129.000000,81.444336 129.000000,81.888672 128.656479,82.670227 
	C127.855011,83.017189 127.397064,83.026939 126.477203,83.025780 
	C114.010872,83.028908 102.006447,83.042961 89.584976,83.040848 
	C87.777885,83.035568 86.387840,83.046455 84.529938,83.039490 
	C77.375427,83.033150 70.688797,83.044647 63.552109,83.043289 
	C60.400677,83.038643 57.699291,83.046852 54.529892,83.037529 
	C42.708824,83.010483 31.355780,83.000969 19.785297,82.725883 
	C18.067570,80.379402 15.609729,78.443375 15.268316,76.187103 
	C14.578800,71.630333 14.917707,66.894516 15.113054,62.244335 
	C15.159801,61.131569 16.307453,60.065052 16.948772,58.977264 
z"/>
<path fill="#DFE3E7" opacity="1.000000" stroke="none" 
	d="
M126.939117,83.036697 
	C127.397064,83.026939 127.855011,83.017189 128.656479,83.003723 
	C129.000000,84.714394 129.000000,86.428795 129.000000,88.571594 
	C128.542572,89.004997 128.085144,89.009995 126.822403,89.012352 
	C92.763718,89.006516 59.509842,88.924110 26.257792,89.132614 
	C23.205696,89.151749 20.165255,91.029213 16.840370,92.028992 
	C16.375111,92.009697 16.188885,92.005150 16.052557,91.640396 
	C17.928110,87.156013 21.701300,87.053566 25.331808,87.033371 
	C40.552361,86.948677 55.773571,86.982224 71.329773,86.981644 
	C72.111946,86.984726 72.558884,86.978615 73.474060,86.980347 
	C84.293297,86.984459 94.644310,86.980736 105.330322,86.982391 
	C106.112038,86.982994 106.558739,86.978218 107.473152,86.982643 
	C113.012711,86.993721 118.090378,87.128395 123.152390,86.906158 
	C124.453476,86.849030 125.705185,85.667274 126.983231,84.674194 
	C126.970963,83.909721 126.955040,83.473206 126.939117,83.036697 
z"/>
<path fill="#E2E6EB" opacity="1.000000" stroke="none" 
	d="
M126.942039,19.030079 
	C127.454262,19.276764 127.966492,19.523451 128.739349,19.885067 
	C129.000000,28.687563 129.000000,37.375126 129.000000,46.531345 
	C128.542160,46.994434 128.084335,46.988869 127.307350,46.511124 
	C126.972816,37.035984 126.957428,28.033031 126.942039,19.030079 
z"/>
<path fill="#E2E6EB" opacity="1.000000" stroke="none" 
	d="
M129.000000,80.531364 
	C128.542282,80.993126 128.084579,80.986252 127.308105,80.506981 
	C126.975037,72.365463 126.960732,64.696358 126.946434,57.027245 
	C127.402763,57.020092 127.859100,57.012939 128.657715,57.002892 
	C129.000000,64.687576 129.000000,72.375153 129.000000,80.531364 
z"/>
<path fill="#F7FAFC" opacity="1.000000" stroke="none" 
	d="
M70.994537,86.972458 
	C55.773571,86.982224 40.552361,86.948677 25.331808,87.033371 
	C21.701300,87.053566 17.928110,87.156013 15.977927,92.051392 
	C15.569161,95.115829 15.054259,97.407448 15.038196,99.702553 
	C14.935514,114.374298 15.597747,115.006760 30.040152,115.010040 
	C62.357071,115.017387 94.673988,115.030281 126.990906,115.040909 
	C126.981270,117.038307 127.206284,119.071121 126.911316,121.025452 
	C126.360847,124.672630 124.610176,127.043091 120.358246,127.035576 
	C83.735672,126.970840 47.112896,127.025406 10.490294,126.968636 
	C4.986928,126.960106 3.011192,124.827072 3.008518,119.382408 
	C2.990860,83.425598 2.986571,47.468758 3.010770,11.511945 
	C3.015327,4.740897 4.821771,3.003020 11.594899,3.001831 
	C45.720589,2.995842 79.846283,2.999046 113.971970,2.999050 
	C127.047928,2.999052 127.047928,2.999084 126.968361,16.518972 
	C112.789459,16.981339 98.628029,16.970179 84.466743,17.011372 
	C79.264183,17.026505 77.161140,18.974566 77.036896,24.154167 
	C76.893112,30.148539 76.939873,36.149750 77.018730,42.146481 
	C77.083527,47.074070 79.030815,48.967800 84.108391,48.991699 
	C95.937103,49.047386 107.770203,48.850967 119.592072,49.141487 
	C122.110298,49.203377 126.974068,46.689129 126.792221,52.125599 
	C126.620453,57.260902 121.908592,54.868603 119.348335,54.883759 
	C88.360832,55.067116 57.371166,54.911221 26.384342,55.145061 
	C23.279530,55.168491 20.189615,57.165966 17.020779,58.612274 
	C16.307453,60.065052 15.159801,61.131569 15.113054,62.244335 
	C14.917707,66.894516 14.578800,71.630333 15.268316,76.187103 
	C15.609729,78.443375 18.067570,80.379402 19.867889,83.081985 
	C20.655880,84.099030 21.140459,84.834740 21.632298,84.839615 
	C31.759453,84.940247 41.887997,85.012016 52.014366,84.906563 
	C53.015198,84.896149 54.003689,83.700569 54.997910,83.055069 
	C57.699291,83.046852 60.400677,83.038643 63.650650,83.402313 
	C66.464340,84.840279 68.729439,85.906372 70.994537,86.972458 
M44.500008,16.995260 
	C37.684650,16.996731 30.867939,16.915541 24.054392,17.027306 
	C19.107725,17.108450 17.134296,19.073217 17.028500,24.037809 
	C16.901031,30.019306 16.913172,36.007168 17.024439,41.989307 
	C17.116390,46.932884 19.061853,48.944260 24.056314,48.979439 
	C38.018784,49.077793 51.982742,49.070751 65.945374,48.984787 
	C70.900368,48.954277 72.864456,46.955166 72.973190,41.988644 
	C73.100502,36.173431 73.065498,30.352489 72.986748,24.535580 
	C72.911797,18.999430 71.015671,17.092224 65.447105,17.018024 
	C58.799145,16.929443 52.149120,16.995937 44.500008,16.995260 
z"/>
<path fill="#FFFFFF" opacity="1.000000" stroke="none" 
	d="
M17.119404,92.043755 
	C20.165255,91.029213 23.205696,89.151749 26.257792,89.132614 
	C59.509842,88.924110 92.763718,89.006516 126.479393,89.019928 
	C126.963676,96.709991 126.985664,104.389832 126.535820,112.535698 
	C92.630806,113.000725 59.197628,113.008820 25.764456,112.991020 
	C19.172979,112.987511 17.086620,111.088394 17.016890,105.014420 
	C16.967262,100.691826 17.079439,96.367378 17.119404,92.043755 
M65.225861,98.965942 
	C53.236568,98.966217 41.246231,98.893349 29.259382,99.064690 
	C27.852219,99.084801 26.464272,100.449074 25.067415,101.190216 
	C26.400549,102.067551 27.721888,103.685280 29.068657,103.706741 
	C41.387848,103.902992 53.712349,103.888336 66.032471,103.723640 
	C67.331673,103.706276 68.612709,102.329857 69.902176,101.583954 
	C68.648972,100.711700 67.395767,99.839447 65.225861,98.965942 
z"/>
<path fill="#DCE0E4" opacity="1.000000" stroke="none" 
	d="
M16.840370,92.028992 
	C17.079439,96.367378 16.967262,100.691826 17.016890,105.014420 
	C17.086620,111.088394 19.172979,112.987511 25.764456,112.991020 
	C59.197628,113.008820 92.630806,113.000725 126.532822,113.004822 
	C127.000259,113.459328 126.998863,113.910736 126.994186,114.701523 
	C94.673988,115.030281 62.357071,115.017387 30.040152,115.010040 
	C15.597747,115.006760 14.935514,114.374298 15.038196,99.702553 
	C15.054259,97.407448 15.569161,95.115829 15.928029,92.411606 
	C16.188885,92.005150 16.375111,92.009697 16.840370,92.028992 
z"/>
<path fill="#FFFFFF" opacity="1.000000" stroke="none" 
	d="
M126.483139,57.017200 
	C126.960732,64.696358 126.975037,72.365463 126.964874,80.498787 
	C93.117332,80.975266 59.294262,81.000473 25.471197,80.988373 
	C19.070307,80.986084 16.965490,78.983871 17.044497,72.699081 
	C17.098467,68.406059 17.587164,64.118507 17.957895,59.417271 
	C20.891174,58.337521 23.745750,57.099117 26.605289,57.087555 
	C59.743042,56.953541 92.881546,57.004936 126.483139,57.017200 
M85.499763,66.965736 
	C70.515152,66.965744 55.530533,66.965050 40.545918,66.966202 
	C36.383537,66.966515 32.214867,66.849777 28.063267,67.062935 
	C27.043617,67.115288 26.079674,68.252609 25.090118,68.891129 
	C25.983232,69.848442 26.713547,71.179565 27.814722,71.659142 
	C28.941561,72.149879 30.431847,71.824455 31.763044,71.824799 
	C48.412621,71.829056 65.062202,71.827629 81.711777,71.827560 
	C88.038620,71.827538 94.373116,71.998978 100.687393,71.717171 
	C102.464767,71.637840 104.182793,70.228577 105.928032,69.429314 
	C104.280228,68.608185 102.672310,67.192795 100.977020,67.078987 
	C96.170303,66.756271 91.327858,66.965775 85.499763,66.965736 
z"/>
<path fill="#FFFFFF" opacity="1.000000" stroke="none" 
	d="
M126.479179,19.019896 
	C126.957428,28.033031 126.972816,37.035984 126.964035,46.503765 
	C113.312729,46.978558 99.685585,47.002426 86.058472,46.992222 
	C79.878517,46.987595 79.042427,46.168255 79.007294,40.192616 
	C78.978966,35.373402 78.977348,30.553732 79.007851,25.734541 
	C79.044487,19.945738 79.925514,19.023073 85.633263,19.011337 
	C99.094223,18.983656 112.555290,19.007006 126.479179,19.019896 
M107.484512,40.231766 
	C108.577805,37.540905 106.967201,37.022564 104.843552,37.012897 
	C99.389763,36.988068 93.931732,36.891975 88.485237,37.092197 
	C87.352722,37.133827 86.262718,38.331738 85.153122,38.996769 
	C86.259789,39.663929 87.356323,40.885536 88.474815,40.905998 
	C94.578400,41.017639 100.687393,40.833817 107.484512,40.231766 
M92.449806,30.827385 
	C91.666733,28.956778 91.100327,26.925352 89.926926,25.344458 
	C89.677238,25.008051 86.642685,25.925322 85.939568,26.970387 
	C85.253372,27.990297 85.590378,31.114002 86.030411,31.230633 
	C87.910339,31.728899 89.994545,31.456390 92.449806,30.827385 
z"/>
<path fill="#F5F8FA" opacity="1.000000" stroke="none" 
	d="
M107.005440,86.973442 
	C106.558739,86.978218 106.112038,86.982994 105.239586,86.624245 
	C103.163582,85.898560 101.514359,85.531624 99.862862,85.175247 
	C96.576576,84.466080 93.289047,83.762749 90.002029,83.057007 
	C102.006447,83.042961 114.010872,83.028908 126.477203,83.025780 
	C126.955040,83.473206 126.970963,83.909721 126.605743,84.680977 
	C121.290199,85.010635 116.348541,84.854767 111.425735,85.091240 
	C109.925629,85.163315 108.477417,86.315781 107.005440,86.973442 
z"/>
<path fill="#F7FAFC" opacity="1.000000" stroke="none" 
	d="
M89.584976,83.040848 
	C93.289047,83.762749 96.576576,84.466080 99.862862,85.175247 
	C101.514359,85.531624 103.163582,85.898560 104.904572,86.618866 
	C94.644310,86.980736 84.293297,86.984459 73.581749,86.600891 
	C75.684036,85.808914 78.181206,85.543694 80.597244,84.948959 
	C82.126640,84.572479 83.535103,83.704750 84.997803,83.057343 
	C86.387840,83.046455 87.777885,83.035568 89.584976,83.040848 
z"/>
<path fill="#F5F8FA" opacity="1.000000" stroke="none" 
	d="
M54.529892,83.037529 
	C54.003689,83.700569 53.015198,84.896149 52.014366,84.906563 
	C41.887997,85.012016 31.759453,84.940247 21.632298,84.839615 
	C21.140459,84.834740 20.655880,84.099030 20.085327,83.347549 
	C31.355780,83.000969 42.708824,83.010483 54.529892,83.037529 
z"/>
<path fill="#F5F8FA" opacity="1.000000" stroke="none" 
	d="
M84.529938,83.039497 
	C83.535103,83.704750 82.126640,84.572479 80.597244,84.948959 
	C78.181206,85.543694 75.684036,85.808914 73.113518,86.593048 
	C72.558884,86.978615 72.111946,86.984726 71.329773,86.981644 
	C68.729439,85.906372 66.464340,84.840279 64.100700,83.415169 
	C70.688797,83.044647 77.375427,83.033150 84.529938,83.039497 
z"/>
<path fill="#F7FAFC" opacity="1.000000" stroke="none" 
	d="
M107.473152,86.982643 
	C108.477417,86.315781 109.925629,85.163315 111.425735,85.091240 
	C116.348541,84.854767 121.290199,85.010635 126.602097,85.008942 
	C125.705185,85.667274 124.453476,86.849030 123.152390,86.906158 
	C118.090378,87.128395 113.012711,86.993721 107.473152,86.982643 
z"/>
<path fill="#0872DE" opacity="1.000000" stroke="none" 
	d="
M45.000000,16.995258 
	C52.149120,16.995937 58.799145,16.929443 65.447105,17.018024 
	C71.015671,17.092224 72.911797,18.999430 72.986748,24.535580 
	C73.065498,30.352489 73.100502,36.173431 72.973190,41.988644 
	C72.864456,46.955166 70.900368,48.954277 65.945374,48.984787 
	C51.982742,49.070751 38.018784,49.077793 24.056314,48.979439 
	C19.061853,48.944260 17.116390,46.932884 17.024439,41.989307 
	C16.913172,36.007168 16.901031,30.019306 17.028500,24.037809 
	C17.134296,19.073217 19.107725,17.108450 24.054392,17.027306 
	C30.867939,16.915541 37.684650,16.996731 45.000000,16.995258 
M21.005682,37.375618 
	C21.009020,44.993137 21.009020,44.993820 28.434179,44.994167 
	C40.237686,44.994713 52.043388,44.866001 63.843426,45.068256 
	C67.642036,45.133366 69.355507,44.209740 69.068153,40.077808 
	C68.745987,35.445309 68.777328,30.759871 69.061256,26.122351 
	C69.297989,22.255913 68.108665,20.844492 64.044296,20.919973 
	C51.413914,21.154535 38.774452,21.130037 26.142864,20.930540 
	C22.324574,20.870235 20.576458,21.823330 20.942448,25.936878 
	C21.250624,29.400633 21.005743,32.913593 21.005682,37.375618 
z"/>
<path fill="#ACB4C1" opacity="1.000000" stroke="none" 
	d="
M65.684212,98.966568 
	C67.395767,99.839447 68.648972,100.711700 69.902176,101.583954 
	C68.612709,102.329857 67.331673,103.706276 66.032471,103.723640 
	C53.712349,103.888336 41.387848,103.902992 29.068657,103.706741 
	C27.721888,103.685280 26.400549,102.067551 25.067415,101.190216 
	C26.464272,100.449074 27.852219,99.084801 29.259382,99.064690 
	C41.246231,98.893349 53.236568,98.966217 65.684212,98.966568 
z"/>
<path fill="#ACB4C1" opacity="1.000000" stroke="none" 
	d="
M85.999619,66.965714 
	C91.327858,66.965775 96.170303,66.756271 100.977020,67.078987 
	C102.672310,67.192795 104.280228,68.608185 105.928032,69.429314 
	C104.182793,70.228577 102.464767,71.637840 100.687393,71.717171 
	C94.373116,71.998978 88.038620,71.827538 81.711777,71.827560 
	C65.062202,71.827629 48.412621,71.829056 31.763044,71.824799 
	C30.431847,71.824455 28.941561,72.149879 27.814722,71.659142 
	C26.713547,71.179565 25.983232,69.848442 25.090118,68.891129 
	C26.079674,68.252609 27.043617,67.115288 28.063267,67.062935 
	C32.214867,66.849777 36.383537,66.966515 40.545918,66.966202 
	C55.530533,66.965050 70.515152,66.965744 85.999619,66.965714 
z"/>
<path fill="#A4ADBB" opacity="1.000000" stroke="none" 
	d="
M107.139519,40.491680 
	C100.687393,40.833817 94.578400,41.017639 88.474815,40.905998 
	C87.356323,40.885536 86.259789,39.663929 85.153122,38.996765 
	C86.262718,38.331738 87.352722,37.133827 88.485237,37.092197 
	C93.931732,36.891975 99.389763,36.988068 104.843552,37.012897 
	C106.967201,37.022564 108.577805,37.540905 107.139519,40.491680 
z"/>
<path fill="#A4ADBB" opacity="1.000000" stroke="none" 
	d="
M92.227020,31.146214 
	C89.994545,31.456390 87.910339,31.728899 86.030411,31.230633 
	C85.590378,31.114002 85.253372,27.990297 85.939568,26.970387 
	C86.642685,25.925322 89.677238,25.008051 89.926926,25.344458 
	C91.100327,26.925352 91.666733,28.956778 92.227020,31.146214 
z"/>
<path fill="#FFFFFF" opacity="1.000000" stroke="none" 
	d="
M21.005682,36.890194 
	C21.005743,32.913593 21.250624,29.400633 20.942448,25.936878 
	C20.576458,21.823330 22.324574,20.870235 26.142864,20.930540 
	C38.774452,21.130037 51.413914,21.154535 64.044296,20.919973 
	C68.108665,20.844492 69.297989,22.255913 69.061256,26.122351 
	C68.777328,30.759871 68.745987,35.445309 69.068153,40.077808 
	C69.355507,44.209740 67.642036,45.133366 63.843426,45.068256 
	C52.043388,44.866001 40.237686,44.994713 28.434179,44.994167 
	C21.009020,44.993820 21.009020,44.993137 21.005682,36.890194 
M29.774746,41.005642 
	C34.726643,41.004974 39.683598,41.123417 44.626610,40.913532 
	C45.755104,40.865616 46.835464,39.684162 47.937977,39.024422 
	C46.850815,38.348457 45.784821,37.132099 44.672890,37.088551 
	C39.398937,36.882008 34.107117,36.867226 28.834269,37.086891 
	C27.552532,37.140293 26.318546,38.339973 25.062605,39.012581 
	C26.325500,39.676826 27.588394,40.341076 29.774746,41.005642 
M25.174618,27.849358 
	C26.284708,29.548769 27.158985,31.537090 28.657701,32.760372 
	C29.073076,33.099411 31.921082,31.460684 32.573154,30.179680 
	C33.066196,29.211086 31.943069,26.181723 31.362125,26.131838 
	C29.461117,25.968599 27.479151,26.748182 25.174618,27.849358 
z"/>
<path fill="#0872DE" opacity="1.000000" stroke="none" 
	d="
M29.313019,41.005482 
	C27.588394,40.341076 26.325500,39.676826 25.062605,39.012581 
	C26.318546,38.339973 27.552532,37.140293 28.834269,37.086891 
	C34.107117,36.867226 39.398937,36.882008 44.672890,37.088551 
	C45.784821,37.132099 46.850815,38.348457 47.937977,39.024422 
	C46.835464,39.684162 45.755104,40.865616 44.626610,40.913532 
	C39.683598,41.123417 34.726643,41.004974 29.313019,41.005482 
z"/>
<path fill="#0872DE" opacity="1.000000" stroke="none" 
	d="
M25.351465,27.507305 
	C27.479151,26.748182 29.461117,25.968599 31.362125,26.131838 
	C31.943069,26.181723 33.066196,29.211086 32.573154,30.179680 
	C31.921082,31.460684 29.073076,33.099411 28.657701,32.760372 
	C27.158985,31.537090 26.284708,29.548769 25.351465,27.507305 
z"/>
</svg>