<svg width="36" height="36" viewBox="0 0 36 36" fill="none" xmlns="http://www.w3.org/2000/svg">
<g clip-path="url(#clip0)">
<mask id="path-1-inside-1" fill="white">
<path fill-rule="evenodd" clip-rule="evenodd" d="M17.9987 2.52159C22.0362 2.52159 25.7123 4.06876 28.4679 6.60187C27.1173 6.56563 25.7694 7.36849 25.7137 9.20697C25.6001 12.9237 30.158 13.7154 27.702 21.1913L25.6705 27.3751L20.1376 11.0768C20.0519 10.8245 20.1515 10.681 20.4617 10.681H22.0259C22.1072 10.681 22.1737 10.6116 22.1737 10.5265V9.60005C22.1737 9.51508 22.107 9.44215 22.0259 9.44566C19.0636 9.5752 16.1188 9.57608 13.1917 9.44566C13.1102 9.44218 13.044 9.51536 13.044 9.60038V10.5269C13.044 10.6118 13.1104 10.6813 13.1917 10.6813H14.7645C15.1144 10.6813 15.2123 10.7979 15.2948 11.0234L17.5682 17.2407L14.1484 27.567L8.527 11.0095C8.4573 10.8018 8.54163 10.6812 8.74165 10.6812H10.5338C10.6151 10.6812 10.6815 10.6118 10.6815 10.5268V9.60029C10.6815 9.51532 10.6148 9.44164 10.5338 9.4459C8.65349 9.54578 6.76601 9.56586 5.00781 9.58391C7.76686 5.33379 12.5541 2.52129 17.9978 2.52129L17.9978 2.52124L17.9987 2.52159ZM31.6111 10.6289C32.8004 12.8201 33.4757 15.3306 33.4757 17.9982C33.4757 23.8527 30.2228 28.9482 25.4269 31.5784L30.2538 17.9069C31.0016 15.791 31.6957 12.9315 31.6107 10.6289H31.6107H31.6111ZM23.1804 32.5848C21.56 33.1612 19.8163 33.4755 17.9987 33.4755C16.4328 33.4755 14.9218 33.242 13.4973 32.8099L18.2653 19.146L23.1803 32.5855L23.1804 32.5848ZM11.3759 31.9896C6.1419 29.5074 2.52145 24.175 2.52145 17.9989C2.52145 15.7093 3.01951 13.5359 3.91216 11.5805L11.3762 31.9899L11.3762 31.9899L11.3759 31.9896ZM17.9982 1.0692C27.3461 1.0692 34.9272 8.65034 34.9272 17.9982C34.9272 27.346 27.3461 34.9272 17.9982 34.9272C8.65041 34.9272 1.06927 27.346 1.06927 17.9982C1.06927 8.65034 8.65041 1.0692 17.9982 1.0692ZM17.9982 -0.000854492C27.9371 -0.000854492 35.9977 8.05977 35.9977 17.9986C35.9977 27.9374 27.9371 35.9981 17.9982 35.9981C8.05942 35.9981 -0.00120544 27.9374 -0.00120544 17.9986C-0.00120544 8.05977 8.05942 -0.000854492 17.9982 -0.000854492Z"/>
</mask>
<path fill-rule="evenodd" clip-rule="evenodd" d="M17.9987 2.52159C22.0362 2.52159 25.7123 4.06876 28.4679 6.60187C27.1173 6.56563 25.7694 7.36849 25.7137 9.20697C25.6001 12.9237 30.158 13.7154 27.702 21.1913L25.6705 27.3751L20.1376 11.0768C20.0519 10.8245 20.1515 10.681 20.4617 10.681H22.0259C22.1072 10.681 22.1737 10.6116 22.1737 10.5265V9.60005C22.1737 9.51508 22.107 9.44215 22.0259 9.44566C19.0636 9.5752 16.1188 9.57608 13.1917 9.44566C13.1102 9.44218 13.044 9.51536 13.044 9.60038V10.5269C13.044 10.6118 13.1104 10.6813 13.1917 10.6813H14.7645C15.1144 10.6813 15.2123 10.7979 15.2948 11.0234L17.5682 17.2407L14.1484 27.567L8.527 11.0095C8.4573 10.8018 8.54163 10.6812 8.74165 10.6812H10.5338C10.6151 10.6812 10.6815 10.6118 10.6815 10.5268V9.60029C10.6815 9.51532 10.6148 9.44164 10.5338 9.4459C8.65349 9.54578 6.76601 9.56586 5.00781 9.58391C7.76686 5.33379 12.5541 2.52129 17.9978 2.52129L17.9978 2.52124L17.9987 2.52159ZM31.6111 10.6289C32.8004 12.8201 33.4757 15.3306 33.4757 17.9982C33.4757 23.8527 30.2228 28.9482 25.4269 31.5784L30.2538 17.9069C31.0016 15.791 31.6957 12.9315 31.6107 10.6289H31.6107H31.6111ZM23.1804 32.5848C21.56 33.1612 19.8163 33.4755 17.9987 33.4755C16.4328 33.4755 14.9218 33.242 13.4973 32.8099L18.2653 19.146L23.1803 32.5855L23.1804 32.5848ZM11.3759 31.9896C6.1419 29.5074 2.52145 24.175 2.52145 17.9989C2.52145 15.7093 3.01951 13.5359 3.91216 11.5805L11.3762 31.9899L11.3762 31.9899L11.3759 31.9896ZM17.9982 1.0692C27.3461 1.0692 34.9272 8.65034 34.9272 17.9982C34.9272 27.346 27.3461 34.9272 17.9982 34.9272C8.65041 34.9272 1.06927 27.346 1.06927 17.9982C1.06927 8.65034 8.65041 1.0692 17.9982 1.0692ZM17.9982 -0.000854492C27.9371 -0.000854492 35.9977 8.05977 35.9977 17.9986C35.9977 27.9374 27.9371 35.9981 17.9982 35.9981C8.05942 35.9981 -0.00120544 27.9374 -0.00120544 17.9986C-0.00120544 8.05977 8.05942 -0.000854492 17.9982 -0.000854492Z" fill="#2C3149"/>
<path d="M17.9987 2.52159L-14.5276 93.688L1.24857 99.3166H17.9987V2.52159ZM28.4679 6.60187L25.8717 103.362L284.299 110.296L93.9745 -64.6593L28.4679 6.60187ZM25.7137 9.20697L122.464 12.1641L122.464 12.1526L122.464 12.141L25.7137 9.20697ZM27.702 21.1913L119.662 51.4023L119.662 51.4016L27.702 21.1913ZM25.6705 27.3751L-65.987 58.4907L27.1757 332.921L117.63 57.5861L25.6705 27.3751ZM20.1376 11.0768L111.795 -20.0388L111.791 -20.0512L111.787 -20.0636L20.1376 11.0768ZM22.0259 9.44566L17.8391 -87.2587L17.8181 -87.2578L17.7972 -87.2569L22.0259 9.44566ZM13.1917 9.44566L17.5001 -87.2534L17.4123 -87.2573L17.3245 -87.2611L13.1917 9.44566ZM15.2948 11.0234L106.203 -22.2176L106.201 -22.2245L15.2948 11.0234ZM17.5682 17.2407L109.455 47.6713L120.055 15.665L108.476 -16.0003L17.5682 17.2407ZM14.1484 27.567L-77.5082 58.685L15.2887 332.014L106.036 57.9976L14.1484 27.567ZM8.527 11.0095L-83.239 41.8034L-83.1846 41.9656L-83.1296 42.1275L8.527 11.0095ZM10.5338 9.4459L5.45421 -87.2157L5.42689 -87.2143L5.39956 -87.2128L10.5338 9.4459ZM5.00781 9.58391L-76.1801 -43.1209L-174.43 108.226L6.00149 106.374L5.00781 9.58391ZM17.9978 2.52129V99.3163H169.28L105.884 -38.0415L17.9978 2.52129ZM17.9978 2.52124L50.5241 -88.6451L-166.408 -166.042L-69.8882 43.084L17.9978 2.52124ZM31.6111 10.6289L116.683 -35.545L89.2078 -86.1661H31.6111V10.6289ZM25.4269 31.5784L-65.8464 -0.646612L-150.208 238.298L71.9717 116.448L25.4269 31.5784ZM30.2538 17.9069L-61.0091 -14.3477L-61.0143 -14.333L-61.0195 -14.3182L30.2538 17.9069ZM31.6107 10.6289L128.34 7.05719L124.898 -86.1661H31.6107V10.6289ZM23.1804 32.5848L119.495 42.2163L134.698 -109.818L-9.25849 -58.6127L23.1804 32.5848ZM13.4973 32.8099L-77.8934 0.919202L-111.127 96.158L-14.5991 125.437L13.4973 32.8099ZM18.2653 19.146L109.172 -14.0997L16.1272 -268.52L-73.1254 -12.7447L18.2653 19.146ZM11.3759 31.9896L67.0277 -47.2072L60.2918 -51.9406L52.8532 -55.4684L11.3759 31.9896ZM3.91216 11.5805L94.8186 -21.6655L13.807 -243.18L-84.1418 -28.6162L3.91216 11.5805ZM11.3762 31.9899L-79.5302 65.2359L-31.5947 196.309L74.3696 105.482L11.3762 31.9899ZM11.3762 31.9899L74.3696 105.482L168.95 24.4135L67.0281 -47.207L11.3762 31.9899ZM17.9987 99.3166C-3.18359 99.3166 -22.6472 91.0924 -37.0387 77.8631L93.9745 -64.6593C74.0718 -82.9549 47.2559 -94.2734 17.9987 -94.2734V99.3166ZM31.0642 -90.1583C11.3502 -90.6873 -13.5243 -85.3006 -35.2493 -67.2518C-59.0113 -47.5108 -70.2457 -19.8147 -71.0368 6.27292L122.464 12.141C121.729 36.3902 111.196 62.7656 88.4598 81.6546C67.7603 98.8515 44.235 103.855 25.8717 103.362L31.0642 -90.1583ZM-71.0361 6.24987C-71.3655 17.0263 -69.957 27.1783 -67.3912 36.4081C-64.9186 45.3024 -61.6941 52.1625 -59.466 56.4261C-58.3595 58.5435 -57.3832 60.2344 -56.7859 61.2487C-56.4799 61.7682 -56.2218 62.197 -56.0616 62.4621C-55.9798 62.5975 -55.9095 62.7133 -55.8644 62.7874C-55.8417 62.8248 -55.8207 62.8593 -55.8071 62.8816C-55.7912 62.9079 -55.784 62.9196 -55.7772 62.931C-55.5031 63.382 -56.9739 61.0222 -58.5589 57.9287C-60.3305 54.4713 -62.5816 49.5095 -64.4765 43.2854C-66.3996 36.9688 -67.6877 30.2359 -68.1623 23.2278C-69.1137 9.17942 -66.5495 -2.04316 -64.2578 -9.01907L119.662 51.4016C123.182 40.6878 126.097 26.5628 124.985 10.1472C123.808 -7.23038 118.542 -20.9616 113.731 -30.3499C111.737 -34.2419 109.821 -37.3414 109.658 -37.609C108.932 -38.8043 110.544 -36.2303 112.11 -33.2337C113.965 -29.6838 116.871 -23.5537 119.126 -15.4433C121.474 -6.99742 122.764 2.3168 122.464 12.1641L-71.0361 6.24987ZM-64.2576 -9.01974L-66.2891 -2.83593L117.63 57.5861L119.662 51.4023L-64.2576 -9.01974ZM117.328 -3.74049L111.795 -20.0388L-71.5199 42.1924L-65.987 58.4907L117.328 -3.74049ZM111.787 -20.0636C115.672 -8.62878 126.473 32.1277 96.2696 70.5778C68.1931 106.32 29.4052 107.476 20.4617 107.476V-86.114C11.2081 -86.114 -27.7848 -84.886 -55.9672 -49.0092C-86.2769 -10.4243 -75.4825 30.5301 -71.5114 42.2172L111.787 -20.0636ZM20.4617 107.476H22.0259V-86.114H20.4617V107.476ZM22.0259 107.476C79.5294 107.476 118.969 60.0181 118.969 10.5265H-74.6213C-74.6213 -38.795 -35.315 -86.114 22.0259 -86.114V107.476ZM118.969 10.5265V9.60005H-74.6213V10.5265H118.969ZM118.969 9.60005C118.969 -35.8605 82.2242 -90.0463 17.8391 -87.2587L26.2128 106.15C-38.0101 108.931 -74.6213 54.8907 -74.6213 9.60005H118.969ZM17.7972 -87.2569C17.6161 -87.249 17.5205 -87.2525 17.5001 -87.2534L8.8833 106.145C14.7171 106.405 20.5111 106.399 26.2546 106.148L17.7972 -87.2569ZM17.3245 -87.2611C-47.3881 -90.0266 -83.751 -35.455 -83.751 9.60038H109.839C109.839 54.4857 73.6085 108.911 9.05894 106.152L17.3245 -87.2611ZM-83.751 9.60038V10.5269H109.839V9.60038H-83.751ZM-83.751 10.5269C-83.751 59.9928 -44.3363 107.476 13.1917 107.476V-86.1137C70.5572 -86.1137 109.839 -38.7692 109.839 10.5269H-83.751ZM13.1917 107.476H14.7645V-86.1137H13.1917V107.476ZM14.7645 107.476C6.21158 107.476 -17.9587 106.458 -41.9465 88.9442C-65.9551 71.4156 -74.0703 48.4834 -75.6109 44.2713L106.201 -22.2245C104.578 -26.6622 96.372 -49.7654 72.2064 -67.4087C48.0616 -85.0367 23.6673 -86.1137 14.7645 -86.1137V107.476ZM-75.6134 44.2644L-73.3401 50.4816L108.476 -16.0003L106.203 -22.2176L-75.6134 44.2644ZM-74.319 -13.1899L-77.7388 -2.86362L106.036 57.9976L109.455 47.6713L-74.319 -13.1899ZM105.805 -3.55107L100.184 -20.1086L-83.1296 42.1275L-77.5082 58.685L105.805 -3.55107ZM100.293 -19.7845C104.661 -6.7667 112.886 28.7094 89.0909 64.4305C64.0265 102.057 25.5419 107.476 8.74165 107.476V-86.1138C-8.25866 -86.1138 -46.8854 -80.6339 -72.0246 -42.8956C-95.8947 -7.0623 -87.6771 28.5779 -83.239 41.8034L100.293 -19.7845ZM8.74165 107.476H10.5338V-86.1138H8.74165V107.476ZM10.5338 107.476C68.0519 107.476 107.477 60.0031 107.477 10.5268H-86.1135C-86.1135 -38.7795 -46.8218 -86.1138 10.5338 -86.1138V107.476ZM107.477 10.5268V9.60029H-86.1135V10.5268H107.477ZM107.477 9.60029C107.477 -34.9532 71.3046 -90.6762 5.45421 -87.2157L15.6134 106.108C-50.0749 109.559 -86.1135 53.9838 -86.1135 9.60029H107.477ZM5.39956 -87.2128C5.79353 -87.2338 5.93197 -87.2332 5.66125 -87.2274C5.5362 -87.2247 5.35204 -87.2215 5.07212 -87.2178C4.77945 -87.2139 4.46577 -87.2106 4.01413 -87.206L6.00149 106.374C7.48279 106.359 11.3974 106.331 15.668 106.105L5.39956 -87.2128ZM86.1957 62.2887C71.8749 84.3489 46.727 99.3163 17.9978 99.3163V-94.2737C-21.6188 -94.2737 -56.3412 -73.6813 -76.1801 -43.1209L86.1957 62.2887ZM105.884 -38.0415L105.884 -38.0415L-69.8882 43.084L-69.8881 43.084L105.884 -38.0415ZM-14.5286 93.6876L-14.5276 93.688L50.525 -88.6448L50.5241 -88.6451L-14.5286 93.6876ZM-53.4609 56.8028C-59.7732 45.1729 -63.3193 31.8554 -63.3193 17.9982H130.271C130.271 -1.19411 125.374 -19.5327 116.683 -35.545L-53.4609 56.8028ZM-63.3193 17.9982C-63.3193 -12.9202 -46.035 -39.626 -21.1179 -53.2912L71.9717 116.448C106.481 97.5225 130.271 60.6255 130.271 17.9982H-63.3193ZM116.7 63.8035L121.527 50.1319L-61.0195 -14.3182L-65.8464 -0.646612L116.7 63.8035ZM121.517 50.1615C123.948 43.2809 129.079 27.0675 128.34 7.05719L-65.1184 14.2006C-65.4534 5.12751 -64.2686 -1.69158 -63.6281 -4.85708C-62.8871 -8.51958 -61.9628 -11.6491 -61.0091 -14.3477L121.517 50.1615ZM31.6107 -86.1661H31.6107V107.424H31.6107V-86.1661ZM31.6107 107.424H31.6111V-86.1661H31.6107V107.424ZM-9.25849 -58.6127C-0.638247 -61.679 8.58047 -63.3195 17.9987 -63.3195V130.27C31.0522 130.27 43.7583 128.001 55.6192 123.782L-9.25849 -58.6127ZM17.9987 -63.3195C26.1053 -63.3195 34.0563 -62.104 41.5937 -59.8176L-14.5991 125.437C-4.21264 128.588 6.76024 130.27 17.9987 130.27V-63.3195ZM104.888 64.7006L109.656 51.0367L-73.1254 -12.7447L-77.8934 0.919202L104.888 64.7006ZM-72.6412 52.3917L-67.7262 65.8312L114.087 -0.660173L109.172 -14.0997L-72.6412 52.3917ZM119.495 42.217L119.495 42.2163L-73.1343 22.9533L-73.1343 22.954L119.495 42.217ZM52.8532 -55.4684C80.1108 -42.5413 99.3165 -14.6235 99.3165 17.9989H-94.2735C-94.2735 62.9735 -67.827 101.556 -30.1015 119.448L52.8532 -55.4684ZM99.3165 17.9989C99.3165 29.8777 96.7085 41.3886 91.9661 51.7772L-84.1418 -28.6162C-90.6695 -14.3168 -94.2735 1.54097 -94.2735 17.9989H99.3165ZM-86.9943 44.8264L-79.5302 65.2359L102.283 -1.25605L94.8186 -21.6655L-86.9943 44.8264ZM74.3696 105.482L74.3696 105.482L-51.6171 -41.5024L-51.6171 -41.5023L74.3696 105.482ZM67.0281 -47.207L67.0277 -47.2072L-44.276 111.186L-44.2756 111.187L67.0281 -47.207ZM17.9982 97.8642C-26.1123 97.8642 -61.8678 62.1087 -61.8678 17.9982H131.722C131.722 -44.8081 80.8045 -95.7258 17.9982 -95.7258V97.8642ZM-61.8678 17.9982C-61.8678 -26.1124 -26.1123 -61.8678 17.9982 -61.8678V131.722C80.8045 131.722 131.722 80.8044 131.722 17.9982H-61.8678ZM17.9982 -61.8678C62.1088 -61.8678 97.8643 -26.1124 97.8643 17.9982H-95.7257C-95.7257 80.8044 -44.808 131.722 17.9982 131.722V-61.8678ZM97.8643 17.9982C97.8643 62.1087 62.1088 97.8642 17.9982 97.8642V-95.7258C-44.808 -95.7258 -95.7257 -44.8081 -95.7257 17.9982H97.8643ZM17.9982 96.7941C-25.5213 96.7941 -60.7973 61.5182 -60.7973 17.9986H132.793C132.793 -45.3986 81.3955 -96.7959 17.9982 -96.7959V96.7941ZM-60.7973 17.9986C-60.7973 -25.521 -25.5213 -60.7969 17.9982 -60.7969V132.793C81.3955 132.793 132.793 81.3959 132.793 17.9986H-60.7973ZM17.9982 -60.7969C61.5178 -60.7969 96.7938 -25.521 96.7938 17.9986H-96.7962C-96.7962 81.3959 -45.399 132.793 17.9982 132.793V-60.7969ZM96.7938 17.9986C96.7938 61.5182 61.5178 96.7941 17.9982 96.7941V-96.7959C-45.399 -96.7959 -96.7962 -45.3986 -96.7962 17.9986H96.7938Z" fill="#6E7289" mask="url(#path-1-inside-1)"/>
</g>
<defs>
<clipPath id="clip0">
<rect width="36" height="36" fill="white"/>
</clipPath>
</defs>
</svg>
