<?xml version="1.0" encoding="UTF-8"?>
<svg xmlns="http://www.w3.org/2000/svg" xmlns:xlink="http://www.w3.org/1999/xlink" width="11px" height="16px" viewBox="0 0 11 16" version="1.1">
    <g id="surface1">
        <path style=" stroke:none;fill-rule:nonzero;fill:rgb(100%,100%,100%);fill-opacity:1;" d="M 7.824219 0 L 0.90625 0 C 0.421875 0 0.03125 0.390625 0.03125 0.871094 L 0.03125 11.730469 C 0.03125 12.214844 0.421875 12.605469 0.90625 12.605469 L 5.472656 12.605469 L 5.472656 10.96875 L 1.671875 10.96875 L 1.671875 1.636719 L 7.824219 1.636719 C 8.640625 1.636719 9.304688 2.296875 9.304688 3.109375 L 9.304688 9.496094 C 9.304688 10.308594 8.640625 10.96875 7.824219 10.96875 L 6.511719 10.96875 C 6.390625 10.96875 6.292969 11.066406 6.292969 11.1875 L 6.292969 12.386719 C 6.292969 12.507812 6.390625 12.605469 6.511719 12.605469 L 7.824219 12.605469 C 9.546875 12.605469 10.945312 11.210938 10.945312 9.496094 L 10.945312 3.109375 C 10.945312 1.390625 9.546875 0 7.824219 0 Z M 7.824219 0 "/>
        <path style=" stroke:none;fill-rule:nonzero;fill:rgb(0%,94.117647%,70.196078%);fill-opacity:1;" d="M 4.0625 15.816406 L 0.683594 13.234375 C 0.253906 12.902344 0 12.390625 0 11.847656 L 0 0.875 C 0 0.152344 0.832031 -0.257812 1.410156 0.183594 L 4.789062 2.765625 C 5.21875 3.097656 5.472656 3.609375 5.472656 4.152344 L 5.472656 15.125 C 5.472656 15.847656 4.640625 16.257812 4.0625 15.816406 Z M 4.0625 15.816406 "/>
    </g>
</svg>
