<?xml version="1.0" standalone="no"?>
<!DOCTYPE svg PUBLIC "-//W3C//DTD SVG 20010904//EN"
 "http://www.w3.org/TR/2001/REC-SVG-20010904/DTD/svg10.dtd">
<svg version="1.0" xmlns="http://www.w3.org/2000/svg"
 width="250.000000pt" height="250.000000pt" viewBox="0 0 250.000000 250.000000"
 preserveAspectRatio="xMidYMid meet">

<g transform="translate(0.000000,250.000000) scale(0.100000,-0.100000)"
fill="#000000" stroke="none">
<path d="M1615 1911 c-110 -48 -310 -134 -443 -191 -134 -57 -246 -109 -249
-117 -3 -8 61 -81 156 -179 110 -113 159 -170 154 -179 -7 -12 -352 -387 -529
-575 -134 -143 -164 -177 -164 -189 0 -6 4 -11 8 -11 8 0 151 59 219 90 24 11
45 20 47 20 3 0 51 20 108 44 57 24 175 74 263 111 180 76 221 93 250 106 11
5 47 20 80 33 33 13 61 30 63 38 1 7 -67 85 -152 173 -86 88 -155 165 -155
170 0 6 130 172 289 370 160 198 290 363 290 367 0 17 -44 2 -235 -81z"/>
</g>
</svg>
