<?xml version="1.0" standalone="no"?>
<!DOCTYPE svg PUBLIC "-//W3C//DTD SVG 1.1//EN" "http://www.w3.org/Graphics/SVG/1.1/DTD/svg11.dtd" >
<svg xmlns="http://www.w3.org/2000/svg">
<defs>
  <font id="imagelinks-font-icons" horiz-adv-x="1536">
    <font-face font-family="imagelinks-font-icons"
      units-per-em="1536" ascent="1536"
      descent="0" />
    <missing-glyph horiz-adv-x="0" />
    <glyph glyph-name="align-bottom"
      unicode="&#xE001;"
      horiz-adv-x="1536" d="M64 192H1472V64H64zM288 1472H672V256H288zM864 864H1248V256H864z" />
    <glyph glyph-name="align-center"
      unicode="&#xE002;"
      horiz-adv-x="1536" d="M704 1472H832V64H704zM160 672H1376V288H160zM480 1248H1088V864H480z" />
    <glyph glyph-name="align-left"
      unicode="&#xE003;"
      horiz-adv-x="1536" d="M64 1472H192V64H64zM256 672H1472V288H256zM256 1248H864V864H256z" />
    <glyph glyph-name="align-middle"
      unicode="&#xE004;"
      horiz-adv-x="1536" d="M64 832H1472V704H64zM288 1376H672V160H288zM864 1056H1248V448H864z" />
    <glyph glyph-name="align-right"
      unicode="&#xE005;"
      horiz-adv-x="1536" d="M1344 1472H1472V64H1344zM64 672H1280V288H64zM672 1248H1280V864H672z" />
    <glyph glyph-name="align-top"
      unicode="&#xE006;"
      horiz-adv-x="1536" d="M64 1472H1472V1344H64zM288 1280H672V64H288zM864 1280H1248V672H864z" />
    <glyph glyph-name="arrow-down"
      unicode="&#xE007;"
      horiz-adv-x="1536" d="M767.5 224L318.7 704H512V1312H1024V704H1216z" />
    <glyph glyph-name="arrow-left"
      unicode="&#xE008;"
      horiz-adv-x="1536" d="M224 768.1L704 319.4000000000001V512H1312V1024H704V1216.6z" />
    <glyph glyph-name="arrow-right"
      unicode="&#xE009;"
      horiz-adv-x="1536" d="M1312 768.1L832 319.4000000000001V512H224V1024H832V1216.6z" />
    <glyph glyph-name="arrow-up"
      unicode="&#xE00A;"
      horiz-adv-x="1536" d="M767.5 1312L318.7 832H512V224H1024V832H1216z" />
    <glyph glyph-name="blank"
      unicode="&#xE00B;"
      horiz-adv-x="1536" d="M768 304C512.2 304 304 512.2 304 768S512.2 1232 768 1232S1232 1023.8 1232 768S1023.8 304 768 304zM768 1104C582.7 1104 432 953.3 432 768S582.7 432 768 432S1104 582.7 1104 768S953.3 1104 768 1104z" />
    <glyph glyph-name="center"
      unicode="&#xE00C;"
      horiz-adv-x="1536" d="M1472 832H1340.2C1310.6000000000001 1098.6 1098.6000000000001 1310.6 832 1340.2V1472H704V1340.2C437.4 1310.6 225.4 1098.6 195.8 832H64V704H195.8C225.4 437.4000000000001 437.4 225.4000000000001 704 195.8V64H832V195.8C1098.6 225.3999999999999 1310.6 437.3999999999999 1340.2 704H1472V832zM768 296.7000000000001C508.2 296.7000000000001 296.7 508.2 296.7 768S508.2 1239.3 768 1239.3S1239.3 1027.8 1239.3 768S1027.8 296.7000000000001 768 296.7000000000001zM544 768A224 224 0 0 1 992 768A224 224 0 0 1 544 768" />
    <glyph glyph-name="check"
      unicode="&#xE00D;"
      horiz-adv-x="1536" d="M691.5 322.9000000000001L306.9 707.5L487.9 888.6L691.5999999999999 684.9000000000001L1144.1 1137.5L1325.1999999999998 956.4z" />
    <glyph glyph-name="cog"
      unicode="&#xE00E;"
      horiz-adv-x="1536" d="M1279 561C1285.5 574.8 1299.7 584 1314.6 584H1320C1421.6 584 1504 666.4 1504 768S1421.6 952 1320 952H1309.6C1296.1999999999998 952 1284.3999999999999 958.5 1277.1 969.3C1276.3 973.4 1274.8 977.3 1273.1999999999998 981.1C1270.9999999999998 986.1 1269.7999999999997 991.8999999999997 1269.7999999999997 997.6C1269.7999999999997 1007.9999999999998 1273.5999999999997 1017.9999999999998 1280.8999999999996 1025.1999999999998L1284.3999999999996 1028.6999999999998C1319.2999999999997 1063.6 1338.3999999999996 1109.5 1338.3999999999996 1159C1338.3999999999996 1208.5 1319.1999999999996 1254.4 1284.3999999999996 1289C1249.4999999999995 1323.8999999999999 1203.4999999999995 1343 1153.9999999999995 1343C1104.9999999999995 1343 1058.5999999999995 1323.8 1023.6999999999996 1289L1020.2999999999996 1285.5C1012.9999999999995 1278.1999999999998 1002.9999999999995 1274.3999999999999 992.6999999999996 1274.3999999999999C987.3999999999996 1274.3999999999999 981.5999999999996 1275.6 977.0999999999996 1277.5C976.2999999999996 1277.8999999999999 975.4999999999995 1278.1999999999998 974.7999999999996 1278.1999999999998C960.5999999999996 1284.8 951.7999999999996 1298.8999999999999 951.7999999999996 1313.8999999999999V1319.8999999999999C951.7999999999996 1421.5 869.2999999999996 1503.8999999999999 767.7999999999996 1503.8999999999999C666.1999999999996 1503.8999999999999 583.7999999999996 1421.5 583.7999999999996 1319.8999999999999V1309.6C583.7999999999996 1296.1999999999998 577.1999999999996 1284.3 566.4999999999997 1277C562.2999999999996 1276.1999999999998 558.4999999999997 1274.6999999999998 554.6999999999997 1273.1999999999998C549.5999999999997 1270.8 543.8999999999997 1269.6999999999998 538.0999999999997 1269.6999999999998C527.7999999999997 1269.6999999999998 517.7999999999997 1273.5 510.4999999999997 1280.8999999999999L507.0999999999997 1284.3C472.1999999999997 1319.1 426.1999999999997 1338.3 376.7999999999997 1338.3C327.2999999999997 1338.3 281.2999999999997 1319.1 246.7999999999997 1284.3C212.6999999999997 1249.3999999999999 193.4999999999997 1203.3999999999999 193.4999999999997 1153.8999999999999S212.6999999999997 1058.5 247.5999999999997 1023.6L250.9999999999997 1020.1C258.2999999999997 1012.8 262.1999999999997 1002.8 262.1999999999997 992.4999999999998C262.1999999999997 987.2 260.9999999999997 981.3999999999997 259.0999999999996 976.8999999999997C258.2999999999996 975.2999999999998 257.5999999999996 973.3999999999997 257.1999999999997 971.4999999999998C251.3999999999997 956.8999999999997 237.6999999999997 946.8999999999997 221.4999999999997 946.4999999999998H216.4999999999997C114.9999999999997 946.4999999999998 32.4999999999997 864.0999999999999 32.4999999999997 762.4999999999999S114.9999999999997 578.4999999999999 216.4999999999997 578.4999999999999H226.8999999999997C242.9999999999997 578.4999999999999 256.7999999999997 568.8999999999999 263.6999999999997 553.9999999999999C263.6999999999997 553.5999999999999 264.0999999999996 553.2999999999998 264.0999999999996 552.8999999999999C265.9999999999996 548.1999999999998 267.0999999999996 542.7999999999998 267.0999999999996 537.8999999999999C267.0999999999996 527.5999999999999 263.2999999999996 517.5999999999999 255.9999999999997 510.3999999999999L252.5999999999996 506.8C217.4999999999996 472.2 198.3999999999996 426.0999999999999 198.3999999999996 376.5999999999999C198.3999999999996 327.1999999999998 217.5999999999996 281.3 252.3999999999997 246.6999999999998C287.2999999999996 211.7999999999997 333.2999999999996 192.5999999999999 382.7999999999996 192.5999999999999C432.1999999999996 192.5999999999999 478.1999999999996 211.8 512.6999999999996 246.6999999999998L516.1999999999996 250.0999999999999C523.4999999999995 257.5 533.4999999999995 261.3 543.7999999999996 261.3C549.1999999999996 261.3 554.8999999999996 260.0999999999999 559.4999999999997 258.2000000000001C561.0999999999997 257.5 562.8999999999996 256.7000000000001 564.7999999999996 256.3C579.3999999999996 250.5 589.3999999999996 236.7000000000001 589.7999999999996 220.5999999999999V216C589.7999999999996 114.4000000000001 672.1999999999996 32 773.7999999999996 32S957.7999999999996 114.4000000000001 957.7999999999996 216V226.3C957.7999999999996 242.3999999999999 967.2999999999996 256.3 982.2999999999996 263.0999999999999C982.6999999999996 263.0999999999999 982.9999999999995 263.5 983.4999999999995 263.5C988.0999999999996 265.4000000000001 993.3999999999996 266.5999999999999 998.3999999999996 266.5999999999999C1008.6999999999996 266.5999999999999 1018.7999999999996 262.8 1025.9999999999995 255.5L1029.4999999999995 252.0999999999999C1064.3999999999996 217.1999999999998 1110.2999999999995 198 1159.6999999999996 198S1255.0999999999997 217.2000000000001 1289.6999999999996 252.0999999999999C1324.5999999999997 286.8999999999999 1343.6999999999996 333 1343.6999999999996 382.3999999999999C1343.6999999999996 431.3999999999999 1324.5999999999997 477.8 1289.7999999999995 512.2999999999998L1286.2999999999995 515.7999999999998C1278.9999999999995 523.0999999999998 1275.0999999999995 533.0999999999998 1275.0999999999995 543.2999999999998C1275.0999999999995 548.6999999999998 1276.3999999999994 554.4999999999999 1278.2999999999995 559.0999999999998C1278.6999999999996 559.4999999999998 1278.9999999999995 560.2999999999998 1278.9999999999995 560.9999999999998zM1166.3 609.3C1165.8999999999999 608.5999999999999 1165.8999999999999 608.1999999999999 1165.5 607.4C1156.8 587.4 1152.1 565.1999999999999 1152.1 542.9C1152.1 500 1168.6 459.7 1198.5 429.0999999999999L1198.9 428.6999999999998L1202.8000000000002 424.7999999999998C1214.2000000000003 413.2999999999998 1220.7000000000003 397.9999999999998 1220.7000000000003 381.4999999999998S1214.2000000000003 349.6999999999998 1202.7000000000003 338.0999999999997C1191.2000000000003 326.5999999999997 1175.8000000000002 320.0999999999997 1159.4000000000003 320.0999999999997C1142.9000000000003 320.0999999999997 1127.6000000000004 326.6999999999996 1116.1000000000004 338.0999999999997L1112.3000000000004 341.9999999999998L1111.8000000000004 342.3999999999999C1081.2000000000005 372.3 1041.0000000000005 388.8 998.0000000000005 388.8C974.6000000000004 388.8 952.4000000000004 383.8 931.3000000000004 374.5999999999999C930.9000000000004 374.0999999999999 930.2000000000004 374.0999999999999 929.8000000000004 373.8C871.8000000000004 347.3999999999999 834.7000000000004 289.8999999999999 834.4000000000004 226.3V215.8999999999999C834.4000000000004 182.1999999999998 806.8000000000004 154.5999999999999 773.0000000000005 154.5999999999999C739.3000000000004 154.5999999999999 711.6000000000005 182.0999999999999 711.6000000000005 215.8999999999999V222.8C710.1000000000005 289.5 668.7000000000005 347.3999999999999 606.6000000000005 371.2000000000001C587.1000000000005 379.6000000000002 565.2000000000005 384.2000000000001 543.0000000000005 384.2000000000001C500.0000000000005 384.2000000000001 459.8000000000005 367.7000000000001 429.1000000000005 337.8L428.7000000000005 337.3999999999999L424.9000000000005 333.5999999999999C413.4000000000005 322 398.0000000000005 315.5999999999999 381.6000000000005 315.5999999999999C365.1000000000005 315.5999999999999 349.8000000000005 322 338.2000000000005 333.5999999999999C326.7000000000005 345.0999999999999 320.2000000000005 360.3999999999999 320.2000000000005 376.8999999999999S326.8000000000005 408.6999999999998 338.2000000000005 420.1999999999998L342.5000000000005 424.3999999999999C372.4000000000005 454.9999999999998 388.9000000000005 495.3 388.9000000000005 538.2999999999998C388.9000000000005 561.2999999999998 383.8000000000005 583.8999999999999 374.7000000000005 604.9999999999999C374.3000000000005 605.3999999999999 374.3000000000005 606.0999999999999 373.9000000000005 606.4999999999999C347.4000000000005 664.3999999999999 289.9000000000005 701.4999999999999 226.3000000000005 701.4999999999999H216.4000000000005C182.7000000000005 701.4999999999999 155.1000000000005 729.1999999999999 155.1000000000005 762.8999999999999S182.7000000000005 824.2999999999998 216.4000000000005 824.2999999999998H223.3000000000005C290.0000000000005 825.7999999999998 347.9000000000005 867.0999999999998 371.6000000000005 929.2999999999998C380.1000000000005 948.7999999999998 384.7000000000005 970.6999999999998 384.7000000000005 992.8999999999997C384.7000000000005 1035.8999999999999 368.2000000000005 1076.1 338.3000000000005 1106.7999999999997L338.0000000000005 1107.1999999999998L334.1000000000006 1110.9999999999998C322.6000000000006 1122.4999999999998 316.1000000000006 1137.8999999999999 316.1000000000006 1154.3999999999999S322.6000000000006 1186.1999999999998 334.1000000000006 1197.6999999999998C345.6000000000006 1209.1999999999998 361.0000000000005 1215.6999999999998 377.4000000000006 1215.6999999999998C393.9000000000006 1215.6999999999998 409.3000000000005 1209.1999999999998 420.8000000000005 1197.6999999999998L424.6000000000006 1193.7999999999997L425.0000000000005 1193.3999999999999C455.6000000000005 1163.5 495.9000000000005 1147 538.8000000000005 1147C557.2000000000005 1147 575.6000000000005 1150.1 592.9000000000005 1156.1999999999998C598.7000000000005 1157 604.0000000000006 1158.5 609.4000000000005 1160.8C668.8000000000005 1186.8 707.1000000000006 1245.1 707.5000000000006 1309.5V1320C707.5000000000006 1353.7 735.0000000000006 1381.3 768.8000000000005 1381.3S830.2000000000005 1353.8 830.2000000000005 1320V1314.2C830.6000000000005 1249.8 868.5000000000005 1191.6 927.5000000000005 1165.9C928.0000000000005 1165.5 928.7000000000006 1165.5 929.1000000000004 1165.1C949.0000000000005 1156.3 971.3000000000006 1151.7 993.5000000000005 1151.7C1036.5000000000005 1151.7 1076.7000000000005 1168.2 1107.4000000000005 1198.1L1107.8000000000006 1198.5L1111.6000000000006 1202.3C1123.1000000000006 1213.8 1138.5000000000007 1220.3 1154.9000000000005 1220.3S1186.7000000000005 1213.8 1198.2000000000005 1202.3C1209.7000000000005 1190.8 1216.3000000000004 1175.4 1216.3000000000004 1159C1216.3000000000004 1142.5 1209.7000000000005 1127.1 1198.2000000000005 1115.6L1194.4000000000005 1111.8L1194.0000000000005 1111.4C1164.1000000000004 1080.8 1147.6000000000004 1040.5 1147.6000000000004 997.6C1147.6000000000004 979.2 1150.7000000000003 960.8 1156.8000000000004 943.5C1157.6000000000004 937.7 1159.1000000000004 932.4 1161.5000000000005 927C1187.5000000000005 867.6 1245.8000000000004 829.3 1310.2000000000005 828.9H1320.5000000000005C1354.2000000000005 828.9 1381.8000000000004 801.3 1381.8000000000004 767.6C1381.8000000000004 733.8000000000001 1354.3000000000004 706.2 1320.5000000000005 706.2H1314.7000000000005C1250.2000000000005 706.2 1191.9000000000005 668.3000000000001 1166.2000000000005 609.2zM768.4 1013.3C633 1013.3 523 903.3 523 768C523 632.6 633.1 522.7 768.4 522.7S1013.7 632.7 1013.7 768C1013.7 903.4 903.7 1013.3 768.4000000000001 1013.3zM768.4 645.3C700.9 645.3 645.6999999999999 700.5999999999999 645.6999999999999 768C645.6999999999999 835.5 700.9 890.7 768.4 890.7C835.8 890.7 891 835.5 891 768C891 700.6 835.8 645.3 768.4 645.3z" />
    <glyph glyph-name="copy"
      unicode="&#xE00F;"
      horiz-adv-x="1536" d="M288 1280H1088V1408H160V352H288V480zM1376 128H416V1152H1376V128zM544 256H1248V1024H544V256z" />
    <glyph glyph-name="cross"
      unicode="&#xE010;"
      horiz-adv-x="1536" d="M1356.3 1175.3L949 768L1356.3 360.7000000000001L1175.3 179.7000000000001L768 587L360.7 179.7000000000001L179.7 360.7000000000001L587 768L179.7 1175.3L360.7 1356.3L768 949L1175.3 1356.3L1356.3 1175.3z" />
    <glyph glyph-name="download"
      unicode="&#xE011;"
      horiz-adv-x="1536" d="M393.9 997.9L328.9 1060.8L768 1513.1L1207.1 1060.9L1142.1 998.1L813.1999999999999 1336.8V363.9000000000001H722.8V1336.8L393.9 997.9zM1445.6 720.0999999999999V135.5C1445.6 110.5999999999999 1425.3999999999999 90.4000000000001 1400.5 90.4000000000001H135.5C110.6 90.4000000000001 90.4 110.6000000000001 90.4 135.5V720.6H0V135.5C0 60.8 60.8 0 135.5 0H1400.5C1475.2 0 1536 60.8 1536 135.5V720.1H1445.6z" />
    <glyph glyph-name="edit"
      unicode="&#xE012;"
      horiz-adv-x="1536" d="M1490.8 1369.5L1363.9 1496.2C1312.7 1547.4 1223.4 1547.4 1172.1000000000001 1496.2L491.3 815.3L335.8 337.5999999999999L810.1 497.0999999999999L1490.7 1177.8C1516.2 1203.4 1530.3 1237.5 1530.3 1273.6S1516.2 1343.9 1490.6 1369.4zM504.4 564L562.1999999999999 740.9L735.6999999999999 567.4L560.1999999999999 508.4000000000001L504.4999999999999 564.0000000000001zM617.1999999999999 813.5L977.3 1173.7L1168 983L807.8 622.9L617.2 813.5zM1041.1999999999998 1237.6L1107.1999999999998 1303.5L1297.7999999999997 1112.9L1231.8999999999996 1046.9L1041.1999999999996 1237.6zM1426.7999999999997 1241.7L1361.6999999999998 1176.7L1171.1 1367.3L1236.1 1432.4C1253.3 1449.5 1283.1 1449.5 1300 1432.4L1426.7 1305.6C1435.2 1297 1439.9 1285.7 1439.9 1273.6S1435.2 1250.3 1426.7 1241.7zM1355.2999999999997 858.4000000000001H1445.5999999999997V0H0V1355.3H677.6V1264.9H90.4V90.4000000000001H1355.3000000000002V858.4000000000001z" />
    <glyph glyph-name="email"
      unicode="&#xE013;"
      horiz-adv-x="1536" d="M0 1355.3V180.7000000000001H1536V1355.3H0zM767.5 649L144.4 1264.9H1393.1000000000001L767.5 649zM519.9 766.5L90.4 343.7000000000001V1191.2L520 766.6zM584.1999999999999 703L767.3 522.1L947.6 699.8L1381.3 271.0999999999999H145.5L584.2 703zM1012 763.1L1445.6 1189.9V334.6000000000002L1012 763z" />
    <glyph glyph-name="eye-off"
      unicode="&#xE014;"
      horiz-adv-x="1536" d="M1465.7 739.8C1463 734.5999999999999 1401.5 609.9 1286.5 484.3999999999999C1285.6 483.4999999999998 1284.7 482.5999999999999 1283.9 481.6999999999998L1199.7 565.7999999999998C1272.7 645.4999999999999 1322.4 726.0999999999999 1345.8 766.5999999999999C1322.6 807.6999999999999 1272.1 888.6999999999999 1198.3999999999999 968.9999999999998C1064.7 1113.7 920 1187.3 768 1188.5C713.3 1188.1 659.5 1177.9 606.8 1158.7L515.3 1250.2C597.1999999999999 1288.5 682 1308.7 768 1309.2C952.2 1308 1131.4 1218.1 1286.6 1049.2C1401.6 923.7 1463.1 798.9 1465.8 793.7C1474.1 776.7 1474.1 756.4000000000001 1465.7 739.8000000000001zM1213.8 412.6999999999998L1129.1 497.3999999999999L980.5 646L887 739.5L739.5 886.9L646 980.5L513 1113.5L426 1200.4L218.5 1408L128 1317.5L323.8 1121.7C298.6 1099.3 273.7 1075.3 249.5 1048.9C134.5 923.4 73 798.7 70.3 793.4C61.9 776.8 61.9 756.5 70.3 739.6C73 734.3000000000001 134.5 609.5 249.5 484C404.7 315.2000000000001 583.9 225.3 768 224.0999999999999C886.2 224.8 1002.4 262.5 1111.5 334L1312 133.4000000000001L1402.5 224L1213.8 412.7000000000001zM796.4 649.1C787.1999999999999 646.9 777.8 645.3000000000001 768 645.3000000000001C700.5 645.3000000000001 645.3 700.5000000000001 645.3 768.0000000000001C645.3 777.8000000000001 646.9 787.2000000000002 649.0999999999999 796.4000000000001L796.3999999999999 649.1000000000001zM768 344.8C616.1 346 471.4 419.5999999999999 337.6 564.3C263.9000000000001 644.5 213.4 725.5999999999999 190.2 766.6999999999999C213.8 807.4 263.9000000000001 888.8 337.6 968.8999999999997C360.9000000000001 994.1 384.5 1016.3999999999997 408.4000000000001 1037.1L555.6 890C534.8000000000001 854.1 522.7 812.5 522.7 768C522.7 632.7 632.7 522.7 768 522.7C812.5 522.7 854.1 534.7 890 555.5L1024.5 421C941.9 371.5 856.2 345.5 768 344.8z" />
    <glyph glyph-name="eye"
      unicode="&#xE015;"
      horiz-adv-x="1536" d="M768 1013.3C632.6 1013.3 522.7 903.3 522.7 768S632.6 522.7 768 522.7S1013.3 632.7 1013.3 768S903.4 1013.3 768 1013.3zM768 645.3C700.5 645.3 645.3 700.5 645.3 768S700.6 890.7 768 890.7C835.5 890.7 890.7 835.5 890.7 768S835.5 645.3 768 645.3zM1465.7 793.6999999999999C1463 798.9999999999999 1401.5 923.7 1286.5 1049.1999999999998C1131.3 1218.1 952.1 1308 768 1309.1C583.9 1308 404.7 1218 249.5 1048.8C134.5 923.4 73 798.6 70.3 793.4C61.9 776.6999999999999 61.9 756.5 70.3 739.5C73 734.2 134.5 609.5 249.5 484C404.7 315.0999999999999 583.9 225.2000000000001 768 224.0999999999999C952.1 225.1999999999998 1131.3 315.1999999999998 1286.5 484.3999999999999C1401.5 609.7999999999998 1463 734.5999999999999 1465.7 739.7999999999998C1474.1000000000001 756.3999999999999 1474.1000000000001 776.6999999999998 1465.7 793.6999999999998zM1198.4 564.3C1064.6 419.5999999999999 919.9 346 768 344.8C616 346 471.3 419.5999999999999 337.6 564.4C263.9000000000001 644.5 213.4 725.5999999999999 190.2 766.7C213.8 807.4000000000001 263.9000000000001 888.8000000000001 337.6 968.9C471.4 1113.7 616.1 1187.3 768 1188.4C919.9 1187.3 1064.6 1113.7 1198.4 968.9C1272.1000000000001 888.6999999999999 1322.6000000000001 807.5999999999999 1345.8000000000002 766.5999999999999C1322.2000000000003 725.9999999999999 1272.1000000000001 644.4999999999999 1198.4 564.3999999999999z" />
    <glyph glyph-name="facebook"
      unicode="&#xE016;"
      horiz-adv-x="1536" d="M1125.8 1032.7L1098 768H886.4V0H568.5V768H410.2V1032.7H568.3V1192.1C568.5 1407.4 658 1536 912.6 1536H1124V1271.3H991.7C893 1271.3 886.4 1234 886.4 1165V1032.7H1125.8z" />
    <glyph glyph-name="from-file"
      unicode="&#xE017;"
      horiz-adv-x="1536" d="M1152 1359.9V1223.1C1239.7 1191.5 1289.3 1152 1304.6 1120H1312V960H1304.6C1273.9 896 1120 801.5 768 801.5S262.1 896 231.4 960H224V1120H231.4C246.7 1152 328.2 1191.4 416 1223V1360C258.4 1313.3 114.8 1233.6 96 1120.8V672.8C96.1 672.8 96 671.5999999999999 96 670.1999999999999V384H97.3C115.6 192 416 94.5 768 94.5S1420.4 192 1438.7 384H1440V670.2C1440 671.6 1439.9 672.7 1440 672.7V1120.7C1421.2 1233.5 1309.5 1313.2 1152 1359.9zM1312 384H1305.2C1274.6000000000001 320 1120 225.5 768 225.5S261.4 320 230.8 384H224V505.3C352 425.3 549.1 384.7000000000001 768 384.7000000000001S1184 425.2000000000001 1312 505.3V384zM1312 672H1305.2C1274.6000000000001 608 1107.2 513.5 768 513.5S261.4 608 230.8 672H224V793.7C352 713.3000000000001 544 672.7 768 672.7S1184 713.3000000000001 1312 793.7V672zM672 1184V960H896V1184H1088L800 1440H768L480 1184z" />
    <glyph glyph-name="fullscreen"
      unicode="&#xE018;"
      horiz-adv-x="1536" d="M1445.3 510.3L1445.6 90.4000000000001L1025.5 90.7000000000001L1025.7 181.1000000000001L1291.3000000000002 180.8000000000002L768 704.1L244.7000000000001 180.7000000000001L510.3000000000001 181V90.5999999999999L90.4000000000001 90.3999999999999L90.7000000000001 510.5L181.1000000000001 510.3L180.7000000000001 244.6999999999998L704.2 768L180.7 1291.3L181.1 1025.7H90.7L90.4 1445.6L510.5 1445.3L510.3 1354.9L244.7 1355.3L768 831.8L1291.3 1355.3L1025.6999999999998 1354.8999999999999V1445.3L1445.6 1445.6L1445.3 1025.5L1354.8999999999999 1025.7L1355.1999999999998 1291.3L831.8 768L1355.3 244.7000000000001L1354.8999999999999 510.3000000000002H1445.3z" />
    <glyph glyph-name="google"
      unicode="&#xE019;"
      horiz-adv-x="1536" d="M1536 1299.7V1181.5H1299.7V945.1H1181.5V1181.6H945.3V1299.7H1181.5V1536H1299.7V1299.7H1536zM938.8 381.3C938.8 275.0999999999999 888.1999999999999 189.3 809.5999999999999 121.0999999999999C703.3999999999999 29.5 558.3999999999999 0 421.8999999999999 0C249.4 0 0 73.8 0 288C0 331.3 14.8 373.8 34.3 412.5999999999999C116.3 578.6999999999999 372.9000000000001 621.3999999999999 538.1 625.8999999999999C507.8 665.5999999999999 479.1 711.6999999999998 479.1 763.3999999999999C479.1 793.7999999999998 490 813.9999999999999 499.5 842.5999999999999C477.2 839.8999999999999 456.1 838.0999999999999 434.9 838.0999999999999C255.8 838.0999999999999 100.7 969.9999999999998 100.7 1155.6C100.7 1331.1 236.3 1480.6 404.3 1517.5C460.8 1529.7 518.6 1536 576.9 1536H980.4L855.9 1463.1H731.2C822.7 1405.9 868.7 1294.1 868.7 1190.8C868.7 946.1 661.8000000000001 927.7 661.8000000000001 805.9C661.8000000000001 686.6 938.9 639.5999999999999 938.9 381.2000000000001zM698 1097.5C698 1237.8 622.1 1469.5 451.3 1469.5C330.6 1469.5 271.5 1362.4 271.5 1253.6C271.5 1113.2 363.7 893.5 528.1 893.5C654.4 893.5 698 984.8 698 1097.4zM808.7 301.8C808.7 431 687.6 503.0999999999999 593.6 568.6999999999999C577.8000000000001 570.4999999999999 562.9 570.4999999999999 547.3000000000001 570.4999999999999C396.0000000000001 570.4999999999999 170.7000000000001 522.5999999999999 170.7000000000001 330.5C170.7000000000001 153.4000000000001 370.0000000000001 84.9000000000001 517.6 84.9000000000001C655.2 84.9000000000001 808.6 140.3000000000002 808.6 301.8000000000002z" />
    <glyph glyph-name="image"
      unicode="&#xE01A;"
      horiz-adv-x="1536" d="M64 1472V64H1472V1472M1344 1344V687.7S1193.3 891.3000000000001 1116.8 892.4000000000001C968.5 894.7 811.9 525.0000000000001 664.5999999999999 508.7C600.3 501.6000000000001 512.3 632.9000000000001 447.9999999999999 640C361.2999999999999 649.6 191.9999999999999 453.8 191.9999999999999 453.8V1344H1344zM192 192V270.5999999999999S377.9 457.8999999999999 463.9 448C528.9 440.5 601.9 312.5 666.8 320C815.3 337.2000000000001 969.9 712.6 1119.4 710.8C1195.1000000000001 709.9 1344 507.3 1344 507.3V192H192zM533.3 1248C398 1248 288 1138 288 1002.7S398 757.3000000000001 533.3 757.3000000000001C668.6999999999999 757.3000000000001 778.6999999999999 867.3000000000001 778.6999999999999 1002.7S668.6 1248 533.3 1248zM533.3 880C465.9 880 410.7 935.2 410.7 1002.7S465.8999999999999 1125.3000000000002 533.3 1125.3000000000002C600.8 1125.3000000000002 656 1070.1000000000001 656 1002.7S600.8 880 533.4 880z" />
    <glyph glyph-name="info"
      unicode="&#xE01B;"
      horiz-adv-x="1536" d="M704 1088H832V960H704zM640 896V768H704V448H832V896zM768 64C379.8 64 64 379.8 64 768S379.8 1472 768 1472S1472 1156.2 1472 768S1156.2 64 768 64zM768 1344C450.4 1344 192 1085.6 192 768S450.4 192 768 192S1344 450.4000000000001 1344 768S1085.6 1344 768 1344z" />
    <glyph glyph-name="layers"
      unicode="&#xE01C;"
      horiz-adv-x="1536" d="M768 1472L64 1184V1056L768 768L1472 1056V1184L768 1472zM768 896L220.5 1120L768 1344L1315.5 1120L768 896zM1315.5 896L1472 832V704L768 416L64 704V832L220.5 896L376.9 832L220.4 768L768 544L1315.5 768L1159.1 832L1315.6 896zM1315.5 544L1472 480V352L768 64L64 352V480L220.5 544L376.9 480L220.4 416L768 192L1315.5 416L1159.1 480L1315.6 544z" />
    <glyph glyph-name="link"
      unicode="&#xE01D;"
      horiz-adv-x="1536" d="M128 416H384V544H256V1280H960V544H640V416H1088V1408H128M1152 1120V992H1280V256H576V992H896V1120H448V128H1408V1120z" />
    <glyph glyph-name="linkedin"
      unicode="&#xE01E;"
      horiz-adv-x="1536" d="M63.1 1009.9H373.7000000000001V77.1999999999998H63.1V1009.9zM220.3 1458.9C114.7 1458.8 45.2 1389.1 45.2 1297.7C45.2 1208.3 112 1136.9 216.5 1136.9H218.3C326.7000000000001 1136.9 394.5 1208.3 393.6 1297.7C392.5 1389 326.7000000000001 1458.7 220.3 1458.7zM1134.1 1031.6C968.8 1031.6 895.3 941 854.5999999999999 877.0999999999999V1009.9H544.8S548.6999999999999 922.2 544.8 77.1999999999998H854.6999999999999V597.6C854.6999999999999 625.9 857.5999999999999 653.3000000000001 864.9999999999999 673.9C887.5999999999999 729.4 938.3999999999997 786.8 1024.1999999999998 786.8C1136.1 786.8 1181.2999999999997 701.0999999999999 1181.2999999999997 576V77.3H1490.7999999999997V611.7C1490.7999999999997 897.9000000000001 1338.2999999999997 1031.6 1134.0999999999997 1031.6z" />
    <glyph glyph-name="lock-open"
      unicode="&#xE01F;"
      horiz-adv-x="1536" d="M640 640C640 710.7 697.3 768 768 768S896 710.7 896 640C896 592.7 870.1 551.9 832 529.8V384H704V529.8C665.9 551.9 640 592.6999999999999 640 640zM1472 1120V1024H1344V1120C1344 1214.7 1278.7 1259.6 1184 1259.6S1024 1214.7 1024 1120V1024H1280V128H256V1024H896V1120C896 1285.2 1018.8 1387.6 1184 1387.6S1472 1285.2 1472 1120zM384 896V256H1152V896H384z" />
    <glyph glyph-name="lock"
      unicode="&#xE020;"
      horiz-adv-x="1536" d="M1152 1024H1056V1120C1056 1285.2 933.2 1387.6 768 1387.6S480 1285.2 480 1120V1024H256V128H1280V1024H1152zM608 1120C608 1214.7 673.3 1259.6 768 1259.6S928 1214.6 928 1120V1024H608V1120zM1152 256H384V896H1152V256zM640 640C640 710.7 697.3 768 768 768S896 710.7 896 640C896 592.7 870.1 551.9 832 529.8V384H704V529.8C665.9 551.9 640 592.6999999999999 640 640z" />
    <glyph glyph-name="menu"
      unicode="&#xE021;"
      horiz-adv-x="1536" d="M160 1056V1280H1376V1056M160 672V896H1376V672M160 288V512H1376V288" />
    <glyph glyph-name="minus"
      unicode="&#xE022;"
      horiz-adv-x="1536" d="M1376 640H160V896H1376V640z" />
    <glyph glyph-name="more"
      unicode="&#xE023;"
      horiz-adv-x="1536" d="M361.4 813.2C361.4 713.4000000000001 280.5 632.5 180.7 632.5S0 713.4 0 813.2S81 993.9 180.7 993.9S361.4 912.9 361.4 813.2zM768 993.9C668.3 993.9 587.3 912.9 587.3 813.2S668.3 632.5 768 632.5S948.7 713.4 948.7 813.2S867.7 993.9 768 993.9zM1355.3 993.9C1255.5 993.9 1174.6 912.9 1174.6 813.2S1255.5 632.5 1355.3 632.5S1536 713.4 1536 813.2S1455 993.9 1355.3 993.9z" />
    <glyph glyph-name="next"
      unicode="&#xE024;"
      horiz-adv-x="1536" d="M1193.3 770.5L483.6999999999999 60.9000000000001L419.8 124.8000000000002L1065.4 770.5000000000002L419.8000000000001 1416.4L483.7 1480.3000000000002L1193.3000000000002 770.6000000000001z" />
    <glyph glyph-name="not-blank"
      unicode="&#xE025;"
      horiz-adv-x="1536" d="M288 768A480 480 0 0 1 1248 768A480 480 0 0 1 288 768" />
    <glyph glyph-name="outline"
      unicode="&#xE026;"
      horiz-adv-x="1536" d="M1445.6 1355.3V1174.6H451.8V1355.3H1445.6zM451.8 722.8H1445.6V903.5H451.8V722.8zM451.8 271.0999999999999H1445.6V451.8H451.8V271.0999999999999zM180.7 1355.3C130.8 1355.3 90.4 1314.9 90.4 1264.9S130.8 1174.6 180.7 1174.6S271.1 1215 271.1 1264.9S230.6 1355.3 180.7 1355.3zM180.7 903.5C130.8 903.5 90.4 863.1 90.4 813.2S130.8 722.8000000000001 180.7 722.8000000000001S271.1 763.2 271.1 813.2S230.6 903.5 180.7 903.5zM180.7 451.8C130.8 451.8 90.4 411.3999999999999 90.4 361.3999999999999S130.8 271.0999999999999 180.7 271.0999999999999S271.1 311.3999999999999 271.1 361.3999999999999S230.6 451.8 180.7 451.8z" />
    <glyph glyph-name="pin"
      unicode="&#xE027;"
      horiz-adv-x="1536" d="M768 77.9000000000001L724.6 110.5C702.8 126.8 224 480 192 864C159 1260.4 391.2 1472 768 1472S1344 1261.8 1344 864C1344 483.4000000000001 833.2 126.8 811.4 110.5L768 77.9000000000001zM768 1327.6000000000001C469.5 1327.6000000000001 336.4 1184.6000000000001 336.4 864.0000000000001C336.4 632.5000000000001 616.5999999999999 385.3000000000002 768 260.3000000000002C919.4 385.3000000000002 1199.6 632.5000000000002 1199.6 864.0000000000002C1199.6 1184.6000000000004 1066.5 1327.6000000000004 767.9999999999999 1327.6000000000004zM768 1130.7000000000003C632.6 1130.7000000000003 522.7 1020.6000000000003 522.7 885.3000000000002S632.6 640 768 640S1013.3 750 1013.3 885.3S903.4 1130.7 768 1130.7zM768 762.7000000000002C700.5 762.7000000000002 645.3 817.9000000000002 645.3 885.3000000000002S700.5 1008 768 1008S890.7 952.8 890.7 885.3S835.5 762.7 768 762.7z" />
    <glyph glyph-name="play"
      unicode="&#xE028;"
      horiz-adv-x="1536" d="M544 436.3L1108.6 762.3L543.9999999999999 1088.3z" />
    <glyph glyph-name="plus"
      unicode="&#xE029;"
      horiz-adv-x="1536" d="M1376 640H896V160H640V640H160V896H640V1376H896V896H1376V640z" />
    <glyph glyph-name="popup"
      unicode="&#xE02A;"
      horiz-adv-x="1536" d="M1408 128H128V1408H1408V128zM256 256H1280V1280H256V256zM736 800H352V1184H736V800zM480 928H608V1056H480V928zM832 1184H1184V1056H832zM352 704H1184V576H352zM832 928H1184V800H832zM352 480H1184V352H352z" />
    <glyph glyph-name="prev"
      unicode="&#xE02B;"
      horiz-adv-x="1536" d="M470.5 770.7L1116.1 124.9000000000001L1052.3 61L342.7 770.7L1052.3 1480L1116.2 1416.1L470.5 770.7z" />
    <glyph glyph-name="properties"
      unicode="&#xE02C;"
      horiz-adv-x="1536" d="M1344 1472H64V64H1472V1472H1344zM192 1344H1344V1216H192V1344zM192 192V1088H1344V192H192zM320 448H448V320H320zM320 704H448V576H320zM320 960H448V832H320zM576 448H1216V320H576zM576 704H1216V576H576zM576 960H1216V832H576z" />
    <glyph glyph-name="region-create"
      unicode="&#xE02D;"
      horiz-adv-x="1536" d="M192 832H64V1088H192V832zM192 704H64V448H192V704zM192 320H64V64H320V192H192V320zM448 64H704V192H448V64zM1344 1472H1216V1344H1344V1216H1472V1472H1344zM64 1472V1216H192V1344H320V1472H64zM448 1344H704V1472H448V1344zM832 1344H1088V1472H832V1344zM1344 832H1472V1088H1344V832zM1440 384H1152V96H1024V384H736V512H1024V800H1152V512H1440V384z" />
    <glyph glyph-name="restore"
      unicode="&#xE02E;"
      horiz-adv-x="1536" d="M999 1376.8C714.7 1490.6 396.3 1386.7 228 1158.3L96 1211.2L205.9 898.3L501.4 1048.8L354.3 1107.6999999999998C493.6 1273.8 733.5999999999999 1342 950.3 1255.1999999999998C1218.6 1147.6999999999998 1348.1999999999998 839.0999999999999 1240.6999999999998 570.8C1133.2999999999997 302.5999999999999 827.0999999999998 170.1999999999998 558.7999999999998 277.6999999999998C398.0999999999999 341.9999999999998 286.9999999999999 476.7999999999997 246.7999999999999 632.8999999999999L114.4999999999998 622.0999999999999C159.6999999999998 417.8999999999999 301.0999999999998 238.1999999999998 509.5999999999999 154.8C844.9999999999998 20.5 1228.1 186.8999999999999 1362.3999999999999 522.1999999999999C1496.6 857.5 1334.3 1242.5 998.9999999999998 1376.8z" />
    <glyph glyph-name="save"
      unicode="&#xE02F;"
      horiz-adv-x="1536" d="M1120 1408H128V128H1408V1120L1120 1408zM480 1280H992V960H480V1280zM1056 256H480V768H1056V256zM1280 672V256H1120V832H416V256H256V1280H416V896H1056V1269.5L1280 1045.5V672zM800 1216H928V1024H800z" />
    <glyph glyph-name="select"
      unicode="&#xE030;"
      horiz-adv-x="1536" d="M1312 992V1184H704V1376H64V160H1312V213.4000000000001L1479 992M1313.5 864L1190 288H297L420.5 864H1313.5zM576 1248V1056H1184V992H320V983.3L192 403.9000000000001V1248H576z" />
    <glyph glyph-name="share"
      unicode="&#xE031;"
      horiz-adv-x="1536" d="M1490.8 346.2000000000001C1490.8 179.7000000000001 1356.2 45.2 1189.6999999999998 45.2C1023.0999999999998 45.2 888.4999999999998 179.8 888.4999999999998 346.2000000000001C888.4999999999998 356.7000000000001 889.3999999999997 367.9000000000001 890.2999999999997 378.2000000000001L551.5 547.7C497.9 497.8 425.4 466.8 346.4 466.8C179.6 466.8 45.2 601.4 45.2 768C45.2 934.5 179.8 1069.1 346.3 1069.1C425.4 1069.1 497.8 1038.1 551.4 988.2L890.2 1157.5C889.3000000000001 1168.1000000000001 888.4000000000001 1179.2 888.4000000000001 1189.6000000000001C888.5000000000001 1356.2 1023.2 1490.8000000000002 1189.8000000000002 1490.8000000000002C1356.2000000000003 1490.8000000000002 1490.8000000000002 1356.2 1490.8000000000002 1189.4C1490.8000000000002 1022.8 1356.2000000000003 888.3000000000001 1189.7000000000003 888.3000000000001C1110.6000000000004 888.3000000000001 1038.2000000000003 919.3 984.6000000000003 969.2L645.8 799.8C646.6999999999999 789.4 647.5999999999999 778.0999999999999 647.5999999999999 767.8C647.5999999999999 757.3 646.6999999999999 746.0999999999999 645.8 735.6999999999999L984.6 566.1999999999999C1038.1999999999998 616.0999999999999 1110.6999999999998 647.1999999999999 1189.6999999999998 647.1999999999999C1356.1999999999998 647.4 1490.7999999999997 512.8 1490.7999999999997 346.0999999999999z" />
    <glyph glyph-name="size-actual"
      unicode="&#xE032;"
      horiz-adv-x="1536" d="M640 896H256V1024H407.3L62.7 1369.2L165.5 1470.4L512 1126.2V1280H640M1280 896V1024H1127.4L1472 1369.8L1369.9 1471.4L1024 1127.5V1280H896V896M896 640V256H1024V408.5L1369.8 64L1471.3999999999999 166.2000000000001L1127.5 512H1280V640M640 640H256V512H408.9L64 166.0999999999999L166.3 64.5999999999999L512 408.2000000000001V256H640" />
    <glyph glyph-name="size-fullscreen"
      unicode="&#xE033;"
      horiz-adv-x="1536" d="M64 1472H448V1344H292.9L637.4 999.5L536.5 898.6L192 1243.1V1088H64M1088 1472V1344H1243.1L898.4 999.6L999.4 898.7L1344 1243.1V1088H1472V1472M1472 64V448H1344V292.9000000000001L999.5 637.4L898.6 536.5L1243.1 192H1088V64M64 64H448V192H292.4L637.2 536.7L536.4000000000001 637.6L192 293.4000000000001V448H64" />
    <glyph glyph-name="sound"
      unicode="&#xE034;"
      horiz-adv-x="1536" d="M324.1 999.9C237.7 999.9 184 954.8 184 881.9V686.7C184 649.2 198.5 614 225 587.5C251.4000000000001 561 286.6 546.4 324.1 546.4H481.6L995.3 32.4000000000001V1516.8L486.6 999.9H324zM905.1 1296.3V250.5999999999999L518.9 636.7H324C296.6 636.7 274.3 659.1 274.3 686.7V881.8C274.3 890.1999999999999 274.3 909.6 324 909.6H524.4L905 1296.3zM1084.7 543.3V633.5999999999999C1134.9 633.5999999999999 1175.8 674.4999999999999 1175.8 724.6999999999999S1134.8999999999999 815.9999999999999 1084.7 815.9999999999999V906.2999999999998C1184.7 906.2999999999998 1266.1000000000001 824.7999999999998 1266.1000000000001 724.6999999999998S1184.8000000000002 543.3999999999999 1084.7 543.3999999999999zM1448.3 724C1448.3 524.7 1286.1 362.5999999999999 1086.9 362.5999999999999V452.8999999999999C1236.2 452.8999999999999 1357.9 574.5999999999999 1357.9 723.9999999999999S1236.2 995.1 1086.9 995.1V1085.3999999999999C1286 1085.3999999999999 1448.3000000000002 923.2 1448.3000000000002 724z" />
    <glyph glyph-name="style"
      unicode="&#xE035;"
      horiz-adv-x="1536" d="M765.1 1285.9L584 1466.9L493.5 1376.4L674.5 1195.4L154.1 674.9L765.1 64L1376 674.9L765.1 1285.9zM335.1 672L765.1 1101.9L1195 672H335.1zM1472 352C1472 299 1429 256 1376 256S1280 299 1280 352S1344 480 1376 512C1408 480 1472 405 1472 352z" />
    <glyph glyph-name="svg"
      unicode="&#xE036;"
      horiz-adv-x="1536" d="M1333.4 983.4H1297.5V1152C1297.5 1153.1 1297.4 1154.1 1297.2 1155.2C1297.2 1161.9 1295 1168.4 1290.3 1173.7L1002.7 1494.2L1002.5 1494.4C1000.8 1496.4 998.8 1497.9 996.6 1499.2C996 1499.6 995.4 1500 994.7 1500.4C992.9 1501.3 990.9 1502.1 989 1502.7C988.4 1502.8 987.9 1503 987.4 1503.2C985.3 1503.7 983 1504 980.7 1504H273.9C241.6 1504 215.4 1478.4 215.4 1446.9V983.4H179.6C133.4 983.4 96 946.9 96 901.8V477.5999999999999C96 432.5 133.4 396 179.6 396H215.5V105.5999999999999C215.5 74.0999999999999 241.7 48.5 274 48.5H1239.2C1271.4 48.5 1297.7 74.0999999999999 1297.7 105.5999999999999V396H1333.5C1379.7 396 1417.1 432.5 1417.1 477.5999999999999V901.8C1417.1 946.9 1379.6 983.4 1333.3999999999999 983.4zM273.9 1446.9H951.5V1154.8C951.5 1139.1 964.6 1126.3 980.7 1126.3H1239.1V983.3H273.9V1446.8zM928.4 907.7L781.2 481.3999999999999H665.9L526 907.7H634.1L687.3000000000001 727.5C702.2 676.9 715.8000000000001 628.2 726.2 575.1H728.1C739.1 626.3000000000001 752.7 676.9 767.6 725.6L823.4 907.7H928.4zM196.1 501L216.1 580.7C242.7 567.4000000000001 283.6 554.1 325.7 554.1C371 554.1 395 572.5 395 600.3000000000001C395 626.8000000000001 374.2 642.0000000000001 321.7 660.4000000000001C249.1 685.0000000000001 201.9 724.2 201.9 786.2C201.9 858.9000000000001 264.1 914.5 367.1 914.5C416.4 914.5 452.6 904.4 478.6 893.1L456.4999999999999 815.3000000000001C439 823.5000000000001 408 835.5000000000001 365.2 835.5000000000001S301.7 816.5000000000001 301.7 794.4000000000001C301.7 767.2 326.3 755.2 382.7 734.3000000000001C459.8 706.5000000000001 496.0999999999999 667.3000000000001 496.0999999999999 607.2C496.0999999999999 535.8000000000001 439.7999999999999 475.1000000000001 319.7999999999999 475.1000000000001C269.9999999999999 475.1000000000001 220.6999999999999 487.7 196.0999999999999 501.0000000000002zM1239.1 121H273.9V395.9000000000001H1239.1V121zM1334.6999999999998 501C1304.1999999999998 490.9000000000001 1246.6 477 1188.8999999999999 477C1109.1999999999998 477 1051.4999999999998 496.5999999999999 1011.2999999999998 534.5C971.0999999999998 571.2 949.1999999999998 626.8 949.7999999999998 689.4C950.4999999999998 831.0999999999999 1056.1 912 1199.3999999999999 912C1255.6999999999998 912 1299.1 901.3 1320.3999999999999 891.2L1299.6999999999998 814C1275.6999999999998 824.1 1245.9999999999998 832.4 1197.9999999999998 832.4C1115.6999999999998 832.4 1053.4999999999998 786.9 1053.4999999999998 694.5C1053.4999999999998 606.6 1109.7999999999997 554.8 1190.7999999999997 554.8C1213.5999999999997 554.8 1231.6999999999998 557.3 1239.4999999999998 561.0999999999999V650.3H1172.0999999999997V725.5H1334.6999999999996V501z" />
    <glyph glyph-name="text"
      unicode="&#xE037;"
      horiz-adv-x="1536" d="M288 1312V1088H608V224H896V1088H1216V1312z" />
    <glyph glyph-name="thumbnails"
      unicode="&#xE038;"
      horiz-adv-x="1536" d="M0 903.5H632.5V1536H0V903.5zM90.4 1445.6H542.1V993.9H90.4V1445.6zM813.2 1536V903.5H1445.6V1536H813.2zM1355.3000000000002 993.9H903.5V1445.6H1355.3V993.9zM0 90.4000000000001H632.5V722.8H0V90.4000000000001zM90.4 632.5000000000001H542.1V180.7000000000001H90.4V632.5zM813.1999999999999 90.4000000000001H1445.6V722.8H813.2V90.4000000000001zM903.4999999999998 632.5000000000001H1355.3V180.7000000000001H903.5V632.5z" />
    <glyph glyph-name="to-file"
      unicode="&#xE039;"
      horiz-adv-x="1536" d="M1152 1359.9V1223.1C1239.7 1191.5 1289.3 1152 1304.6 1120H1312V960H1304.6C1273.9 896 1120 801.5 768 801.5S262.1 896 231.4 960H224V1120H231.4C246.7 1152 328.2 1191.4 416 1223V1360C258.4 1313.3 114.8 1233.6 96 1120.8V672.8C96.1 672.8 96 671.5999999999999 96 670.1999999999999V384H97.3C115.6 192 416 94.5 768 94.5S1420.4 192 1438.7 384H1440V670.2C1440 671.6 1439.9 672.7 1440 672.7V1120.7C1421.2 1233.5 1309.5 1313.2 1152 1359.9zM1312 384H1305.2C1274.6000000000001 320 1120 225.5 768 225.5S261.4 320 230.8 384H224V505.3C352 425.3 549.1 384.7000000000001 768 384.7000000000001S1184 425.2000000000001 1312 505.3V384zM1312 672H1305.2C1274.6000000000001 608 1107.2 513.5 768 513.5S261.4 608 230.8 672H224V793.7C352 713.3000000000001 544 672.7 768 672.7S1184 713.3000000000001 1312 793.7V672zM896 1216V1440H672V1216H480L768 960H800L1088 1216z" />
    <glyph glyph-name="tooltip"
      unicode="&#xE03A;"
      horiz-adv-x="1536" d="M384 1184H1152V1056H384zM384 960H1152V832H384zM1280 1408H128V96L416 384H1408V1408H1280zM1280 512H384L256 384V1280H1280V512zM384 736H1152V608H384z" />
    <glyph glyph-name="trash"
      unicode="&#xE03B;"
      horiz-adv-x="1536" d="M240 1155V1218C240 1247.9 264.8 1272 295.7 1272H555.7L577.5 1314.1C586.8 1332.5 606.1 1344 627.2 1344H892.6C913.7 1344 933 1332.5 942.5 1314.1L964.3 1272H1224.3C1255.2 1272 1280 1247.9 1280 1218V1154.9C1280 1140.1 1267.5 1128 1252.2 1128H267.8C252.5 1128 240 1140.2 240 1155zM1205.8 1029V300C1205.8 240.4000000000001 1155.8 192 1094.3 192H425.7C364.2 192 314.3 240.4000000000001 314.3 300V1029C314.3 1043.8 326.8 1056 342.1 1056H1177.8999999999999C1193.1999999999998 1056 1205.8 1043.9 1205.8 1029zM574.3 876C574.3 895.8 557.5999999999999 912 537.1999999999999 912S500 895.8 500 876V372C500 352.2000000000001 516.7 336 537.1 336S574.3000000000001 352.2000000000001 574.3000000000001 372V876zM797.1999999999999 876C797.1999999999999 895.8 780.4999999999999 912 759.9999999999999 912S722.8999999999999 895.8 722.8999999999999 876V372C722.8999999999999 352.2000000000001 739.5999999999999 336 759.9999999999999 336S797.1999999999999 352.2000000000001 797.1999999999999 372V876zM1020 876C1020 895.8 1003.3 912 982.9 912S945.8 895.8 945.8 876V372C945.8 352.2000000000001 962.4 336 982.9 336S1020 352.2000000000001 1020 372V876z" />
    <glyph glyph-name="twitter"
      unicode="&#xE03C;"
      horiz-adv-x="1536" d="M1378.2 1080.8C1379.1000000000001 1067.2 1379.1000000000001 1053.5 1379.1000000000001 1039.8C1379.1000000000001 623.7 1062.4 144.2000000000001 483.5000000000001 144.2000000000001C305.2000000000001 144.2000000000001 139.5000000000001 195.9000000000001 0.1000000000001 285.5C25.4000000000001 282.5999999999999 49.8000000000001 281.7000000000001 76.2000000000001 281.7000000000001C223.4000000000001 281.7000000000001 358.7000000000002 331.4000000000001 466.9000000000001 416.2000000000001C328.5000000000001 419.1000000000002 212.6000000000001 509.8 172.7000000000001 634.5C192.1000000000001 631.7 211.5000000000001 629.7 231.9000000000001 629.7C260.3000000000001 629.7 288.6000000000001 633.5 314.9000000000001 640.2C170.6 669.5 62.3 796.3 62.3 949.3V953.1C104.3 929.6 153 915.2 204.6 913.1C119.9 969.8 64.3 1066.1999999999998 64.3 1175.1999999999998C64.3 1233.8 80 1287.3999999999999 107.2 1334.1999999999998C262.2000000000001 1143.1 495.1 1018.3 756.3000000000001 1004.7C751.4000000000001 1028.1999999999998 748.5000000000001 1052.6 748.5000000000001 1077C748.5000000000001 1250.5 888.9000000000001 1391.6999999999998 1063.3000000000002 1391.6999999999998C1153.9 1391.6999999999998 1235.8000000000002 1353.8 1293.3000000000002 1292.3C1364.4 1305.8999999999999 1432.5000000000002 1332.3 1493.0000000000002 1368.1999999999998C1469.7000000000003 1295.1999999999998 1420.0000000000002 1233.8 1354.8000000000002 1194.8999999999999C1418.0000000000002 1201.6999999999998 1479.4 1219.3 1536.0000000000002 1243.6999999999998C1493.1000000000001 1181.3999999999999 1439.5000000000002 1125.6 1378.2000000000003 1080.8z" />
    <glyph glyph-name="zoom-default"
      unicode="&#xE03D;"
      horiz-adv-x="1536" d="M1464.9 161.5999999999999L1144.4 482.0999999999999C1229.1 586.6 1280 719.4 1280 864C1280 1199.3 1007.3 1472 672 1472S64 1199.3 64 864S336.7 256 672 256C816.6 256 949.4 306.9000000000001 1053.9 391.5999999999999L1374.4 71.0999999999999L1464.9 161.6999999999998zM192 864C192 1128.6 407.4 1344 672 1344S1152 1128.6 1152 864S936.6 384 672 384S192 599.4 192 864z" />
    <glyph glyph-name="zoom-fit"
      unicode="&#xE03E;"
      horiz-adv-x="1536" d="M1344 1472H960V1344H1344V960H1472V1472zM64 1472V960H192V1344H576V1472H192zM1344 192H960V64H1472V576H1344zM192 576H64V64H576V192H192z" />
    <glyph glyph-name="zoom-in"
      unicode="&#xE03F;"
      horiz-adv-x="1536" d="M1464.9 161.5999999999999L1144.4 482.0999999999999C1229.1 586.6 1280 719.4 1280 864C1280 1199.3 1007.3 1472 672 1472S64 1199.3 64 864S336.7 256 672 256C816.6 256 949.4 306.9000000000001 1053.9 391.5999999999999L1374.4 71.0999999999999L1464.9 161.6999999999998zM192 864C192 1128.6 407.4 1344 672 1344S1152 1128.6 1152 864S936.6 384 672 384S192 599.4 192 864zM896 928H736V1088H608V928H448V800H608V640H736V800H896z" />
    <glyph glyph-name="zoom-out"
      unicode="&#xE040;"
      horiz-adv-x="1536" d="M1464.9 161.5999999999999L1144.4 482.0999999999999C1229.1 586.6 1280 719.4 1280 864C1280 1199.3 1007.3 1472 672 1472S64 1199.3 64 864S336.7 256 672 256C816.6 256 949.4 306.9000000000001 1053.9 391.5999999999999L1374.4 71.0999999999999L1464.9 161.6999999999998zM192 864C192 1128.6 407.4 1344 672 1344S1152 1128.6 1152 864S936.6 384 672 384S192 599.4 192 864zM896 800V928H448V800" />
  </font>
</defs>
</svg>
