<?xml version="1.0" encoding="utf-8"?>
<!-- Generator: Adobe Illustrator 20.1.0, SVG Export Plug-In . SVG Version: 6.00 Build 0)  -->
<svg version="1.1" id="Слой_1" xmlns="http://www.w3.org/2000/svg" xmlns:xlink="http://www.w3.org/1999/xlink" x="0px" y="0px"
	 viewBox="0 0 80 80" style="enable-background:new 0 0 80 80;" xml:space="preserve">
<style type="text/css">
	.st0{fill:#1C7FB9;}
	.st1{fill:#FFFFFF;}
</style>
<g id="LinKeDin_1_">
	<circle class="st0" cx="40.1" cy="39.8" r="38"/>
	<g id="LinkedIn_2_">
		<rect x="23.3" y="34.1" class="st1" width="7.2" height="22.8"/>
		<path class="st1" d="M50.1,33.8c-4.1,0-6.7,2.2-7.2,3.8v-3.6h-8.1c0.1,1.9,0,22.8,0,22.8h8.1V44.5c0-0.7,0-1.4,0.2-1.9
			c0.6-1.4,1.7-2.8,3.9-2.8c2.8,0,4.1,2.1,4.1,5.2v11.8h8.2V44.2C59.2,37.1,55.2,33.8,50.1,33.8z"/>
		<path class="st1" d="M26.7,23.3c-2.7,0-4.4,1.7-4.4,4c0,2.2,1.7,3.9,4.3,3.9h0.1c2.7,0,4.4-1.7,4.4-4C31,25,29.4,23.3,26.7,23.3z"
			/>
	</g>
</g>
</svg>
