<?xml version="1.0" encoding="utf-8"?>
<!-- Generator: Adobe Illustrator 20.1.0, SVG Export Plug-In . SVG Version: 6.00 Build 0)  -->
<svg version="1.1" id="Слой_1" xmlns="http://www.w3.org/2000/svg" xmlns:xlink="http://www.w3.org/1999/xlink" x="0px" y="0px"
	 viewBox="0 0 80 80" style="enable-background:new 0 0 80 80;" xml:space="preserve">
<style type="text/css">
	.st0{fill:#C0BFBF;}
</style>
<g id="Google_x2B__5_">
	<path class="st0" d="M40.1,79.3c-21.8,0-39.5-17.7-39.5-39.5S18.4,0.3,40.1,0.3S79.6,18,79.6,39.8S61.9,79.3,40.1,79.3z M40.1,3.3
		C20,3.3,3.7,19.7,3.7,39.8S20,76.3,40.1,76.3s36.5-16.4,36.5-36.5S60.2,3.3,40.1,3.3z"/>
	<path class="st0" d="M32.4,36.9V42c0,0,4.9,0,6.9,0c-1.1,3.3-2.8,5.1-6.9,5.1c-4.2,0-7.5-3.4-7.5-7.6s3.3-7.6,7.5-7.6
		c2.2,0,3.7,0.8,5,1.9c1.1-1.1,1-1.2,3.6-3.7c-2.3-2.1-5.3-3.3-8.6-3.3c-7.1,0-12.8,5.7-12.8,12.8c0,7.1,5.7,12.8,12.8,12.8
		c10.6,0,13.2-9.2,12.3-15.4H32.4z"/>
	<polygon class="st0" points="55.5,37.2 55.5,32.7 52.4,32.7 52.4,37.2 47.8,37.2 47.8,40.4 52.4,40.4 52.4,44.9 55.5,44.9 
		55.5,40.4 60,40.4 60,37.2 	"/>
</g>
</svg>
