<?xml version="1.0" encoding="utf-8"?>
<!-- Generator: Adobe Illustrator 20.1.0, SVG Export Plug-In . SVG Version: 6.00 Build 0)  -->
<svg version="1.1" id="Слой_1" xmlns="http://www.w3.org/2000/svg" xmlns:xlink="http://www.w3.org/1999/xlink" x="0px" y="0px"
	 viewBox="0 0 80 80" style="enable-background:new 0 0 80 80;" xml:space="preserve">
<style type="text/css">
	.st0{fill:#C0BFBF;}
</style>
<g>
	<path class="st0" d="M40.1,79.3c-21.8,0-39.5-17.7-39.5-39.5S18.4,0.3,40.1,0.3S79.6,18,79.6,39.8S61.9,79.3,40.1,79.3z M40.1,3.3
		C20,3.3,3.7,19.7,3.7,39.8S20,76.3,40.1,76.3s36.5-16.4,36.5-36.5S60.2,3.3,40.1,3.3z"/>
	<path id="pinterest" class="st0" d="M29.6,45c2-3.4-0.7-4.1-1.1-6.6c-1.7-10,12.3-16.8,19.7-9.8c5.1,4.8,1.7,19.7-6.5,18.2
		c-7.9-1.5,3.9-13.3-2.4-15.6c-5.1-1.9-7.8,5.8-5.4,9.6c-1.4,6.6-4.5,12.7-3.2,20.9c4-2.7,5.4-7.9,6.5-13.4c1.6,1.3,3.6,2.2,5.7,2.5
		c9.5,0.7,14.8-8.9,13.5-17.7c-1.1-7.8-9.5-11.8-18.3-10.8c-7,0.7-14,6-14.3,13.6C23.5,40.6,24.9,44,29.6,45z"/>
</g>
</svg>
