<?xml version="1.0" encoding="utf-8"?>
<!-- Generator: Adobe Illustrator 20.1.0, SVG Export Plug-In . SVG Version: 6.00 Build 0)  -->
<svg version="1.1" id="Слой_1" xmlns="http://www.w3.org/2000/svg" xmlns:xlink="http://www.w3.org/1999/xlink" x="0px" y="0px"
	 viewBox="0 0 80 80" style="enable-background:new 0 0 80 80;" xml:space="preserve">
<style type="text/css">
	.st0{fill:#44629C;}
</style>
<g id="Facebook_5_">
	<path class="st0" d="M40.1,1.8c-21,0-38,17-38,38c0,21,17,38,38,38c21,0,38-17,38-38C78.1,18.8,61.1,1.8,40.1,1.8z M59,55.8
		c0,1.1-1,2.2-2.1,2.2H48V44h4.3l0.7-6H48v-3.4c0-1.6,0-2.6,2.3-2.6H54v-5.1c-1-0.1-2.6-0.2-4.6-0.2c-4.2,0-7.4,2.6-7.4,7.3v4h-5v6
		h5v14H24.3c-1.1,0-1.3-1-1.3-2.2V23.2c0-1.1,0.2-2.2,1.3-2.2h32.7c1.1,0,2.1,1.1,2.1,2.2V55.8z"/>
</g>
</svg>
