<?xml version="1.0" encoding="utf-8"?>
<!-- Generator: Adobe Illustrator 16.0.0, SVG Export Plug-In . SVG Version: 6.00 Build 0)  -->
<!DOCTYPE svg PUBLIC "-//W3C//DTD SVG 1.1//EN" "http://www.w3.org/Graphics/SVG/1.1/DTD/svg11.dtd">
<svg version="1.1" id="Слой_1" xmlns="http://www.w3.org/2000/svg" xmlns:xlink="http://www.w3.org/1999/xlink" x="0px" y="0px"
	 width="595.279px" height="348.183px" viewBox="0 0 595.279 348.183" enable-background="new 0 0 595.279 348.183"
	 xml:space="preserve">
<g enable-background="new    ">
	<path fill="#BBBABA" d="M595.28,50.543c0,5.616,0,11.231-5.615,11.231L308.871,342.568c0,0-5.615,5.615-11.231,5.615
		c-5.615,0-11.231-5.615-16.848-5.615L5.615,61.774C0,61.774,0,56.159,0,50.543c0-5.616,0-11.232,5.615-11.232l28.08-28.079
		C39.311,0,44.927,0,50.542,0c5.616,0,11.232,0,11.232,5.616L297.64,241.482L533.506,5.616C533.506,0,539.121,0,544.738,0
		c5.615,0,11.231,0,11.231,5.616l28.079,28.079C589.664,39.311,595.28,44.927,595.28,50.543z"/>
</g>
</svg>
