<?xml version="1.0" encoding="utf-8"?>
<!-- Generator: Adobe Illustrator 16.0.0, SVG Export Plug-In . SVG Version: 6.00 Build 0)  -->
<!DOCTYPE svg PUBLIC "-//W3C//DTD SVG 1.1//EN" "http://www.w3.org/Graphics/SVG/1.1/DTD/svg11.dtd">
<svg version="1.1" id="Слой_1" xmlns="http://www.w3.org/2000/svg" xmlns:xlink="http://www.w3.org/1999/xlink" x="0px" y="0px"
	 width="595.279px" height="540.048px" viewBox="0 0 595.279 540.048" enable-background="new 0 0 595.279 540.048"
	 xml:space="preserve">
<path id="reset-icon" fill="#707070" fill-opacity="0.6" d="M337.476,0C193.259,3.068,79.726,122.738,79.726,270.025l0,0
	l-49.095-79.781c-6.137-9.205-15.343-12.273-21.479-6.137l0,0c-9.205,6.137-12.273,15.342-6.137,24.548l73.643,116.602
	c3.068,3.068,6.137,6.137,12.274,6.137c0,0,0,0,3.068,0s9.205-3.068,12.273-3.068l104.327-95.123c6.138-6.137,6.138-18.411,0-24.547
	c-9.205-9.206-18.41-9.206-24.547-3.069l0,0l-70.575,64.438l0,0c6.138-122.739,110.465-220.93,233.203-214.792
	c122.737,6.137,220.929,110.464,214.791,233.203c-6.137,119.67-104.327,214.791-223.997,214.791
	c-61.368,0-116.601-24.547-159.56-67.506c-6.137-6.137-15.342-6.137-21.479,0l0,0c-6.137,6.137-6.137,18.412,0,24.549
	c46.026,49.094,113.532,79.779,181.038,79.779c147.286-6.137,263.888-131.943,257.75-279.229
	C592.157,116.602,478.625,6.137,337.476,0z"/>
</svg>
