<?xml version="1.0" encoding="utf-8"?>
<!-- Generator: Adobe Illustrator 16.0.0, SVG Export Plug-In . SVG Version: 6.00 Build 0)  -->
<!DOCTYPE svg PUBLIC "-//W3C//DTD SVG 1.1//EN" "http://www.w3.org/Graphics/SVG/1.1/DTD/svg11.dtd">
<svg version="1.1" id="Слой_1" xmlns="http://www.w3.org/2000/svg" xmlns:xlink="http://www.w3.org/1999/xlink" x="0px" y="0px"
	 width="208.122px" height="250.704px" viewBox="0 0 208.122 250.704" enable-background="new 0 0 208.122 250.704"
	 xml:space="preserve">
<path id="pinterest_4_" fill="#BD2026" d="M37.992,144.297c12.649-21.578-4.465-26.042-6.697-41.669
	C20.134,39.38,109.426-4.522,156.303,40.124c31.996,30.508,11.161,125.009-40.926,115.335
	c-49.854-9.674,24.556-84.827-15.626-98.965c-32.74-11.905-49.854,36.461-34.229,61.017c-8.929,41.669-28.275,81.107-20.834,133.193
	c25.299-17.113,34.229-50.598,40.925-84.826c10.418,8.186,23.067,14.137,35.717,16.369c60.272,4.465,93.757-56.551,85.571-112.358
	c-7.44-49.855-60.271-74.41-116.079-69.201C46.177,5.151,2.275,39.38,0.043,87.002C-0.701,116.022,8.228,138.346,37.992,144.297z"/>
</svg>
