<svg width="159" height="40" viewBox="0 0 159 40" fill="none" xmlns="http://www.w3.org/2000/svg">
<path fill-rule="evenodd" clip-rule="evenodd" d="M7.69395 21.2958L20.5264 29.316C21.4174 29.8729 22.548 29.8729 23.4391 29.316L36.2715 21.2958L40.2372 23.7743C41.9592 24.8506 41.9592 27.3584 40.2372 28.4347L23.4391 38.9335C22.548 39.4904 21.4174 39.4904 20.5264 38.9335L3.72826 28.4347C2.00627 27.3584 2.00627 24.8506 3.72826 23.7743L7.69395 21.2958Z" fill="#09B585"/>
<path d="M20.5264 0.910221L3.72826 11.409C2.00628 12.4853 2.00628 14.9931 3.72826 16.0694L20.5264 26.5682C21.4174 27.1251 22.548 27.1251 23.4391 26.5682L40.2372 16.0694C41.9592 14.9931 41.9592 12.4853 40.2372 11.409L23.4391 0.910221C22.548 0.353319 21.4174 0.353318 20.5264 0.910221Z" fill="#006088"/>
<path d="M60.393 28.913L55.0814 10.3493H59.3688L62.4416 23.2478H62.5957L65.9857 10.3493H69.6568L73.0378 23.275H73.2009L76.2737 10.3493H80.5611L75.2494 28.913H71.4243L67.8892 16.7759H67.7442L64.2182 28.913H60.393ZM82.4065 28.913V10.3493H89.7305C91.1385 10.3493 92.338 10.6182 93.329 11.156C94.32 11.6878 95.0754 12.428 95.5951 13.3767C96.1208 14.3194 96.3837 15.4071 96.3837 16.6399C96.3837 17.8726 96.1178 18.9604 95.586 19.903C95.0543 20.8457 94.2838 21.5799 93.2746 22.1057C92.2715 22.6314 91.0569 22.8943 89.6308 22.8943H84.9627V19.749H88.9963C89.7516 19.749 90.374 19.619 90.8635 19.3592C91.359 19.0933 91.7277 18.7277 91.9694 18.2624C92.2171 17.7911 92.341 17.2502 92.341 16.6399C92.341 16.0235 92.2171 15.4857 91.9694 15.0264C91.7277 14.5611 91.359 14.2016 90.8635 13.9478C90.368 13.688 89.7395 13.558 88.9781 13.558H86.3314V28.913H82.4065ZM108.748 15.6881C108.676 14.957 108.364 14.3889 107.815 13.9841C107.265 13.5792 106.518 13.3767 105.576 13.3767C104.935 13.3767 104.394 13.4674 103.953 13.6487C103.512 13.8239 103.174 14.0687 102.938 14.3829C102.708 14.6971 102.594 15.0536 102.594 15.4525C102.581 15.7848 102.651 16.0749 102.802 16.3226C102.959 16.5704 103.174 16.7849 103.446 16.9662C103.718 17.1415 104.032 17.2955 104.388 17.4285C104.745 17.5554 105.126 17.6642 105.53 17.7548L107.198 18.1536C108.008 18.3349 108.751 18.5766 109.428 18.8788C110.105 19.1809 110.691 19.5526 111.187 19.9937C111.682 20.4348 112.066 20.9545 112.338 21.5527C112.616 22.151 112.758 22.8369 112.764 23.6103C112.758 24.7464 112.468 25.7314 111.894 26.5653C111.325 27.3932 110.504 28.0367 109.428 28.496C108.358 28.9492 107.068 29.1758 105.558 29.1758C104.059 29.1758 102.754 28.9462 101.642 28.4869C100.536 28.0277 99.6718 27.3479 99.0494 26.4475C98.433 25.541 98.1097 24.4201 98.0795 23.0846H101.877C101.92 23.707 102.098 24.2267 102.412 24.6437C102.733 25.0546 103.159 25.3658 103.69 25.5773C104.228 25.7828 104.835 25.8855 105.512 25.8855C106.177 25.8855 106.754 25.7888 107.244 25.5954C107.739 25.4021 108.123 25.1331 108.395 24.7887C108.667 24.4443 108.803 24.0485 108.803 23.6013C108.803 23.1843 108.679 22.8338 108.431 22.5498C108.189 22.2658 107.833 22.0241 107.361 21.8247C106.896 21.6253 106.325 21.444 105.648 21.2808L103.627 20.7732C102.062 20.3925 100.826 19.7973 99.9196 18.9875C99.0131 18.1778 98.563 17.0871 98.569 15.7153C98.563 14.5914 98.8621 13.6094 99.4664 12.7694C100.077 11.9295 100.914 11.2738 101.977 10.8025C103.041 10.3311 104.249 10.0955 105.603 10.0955C106.981 10.0955 108.183 10.3311 109.21 10.8025C110.244 11.2738 111.048 11.9295 111.622 12.7694C112.196 13.6094 112.492 14.5823 112.51 15.6881H108.748ZM121.367 29.1849C119.94 29.1849 118.714 28.8827 117.686 28.2785C116.665 27.6681 115.88 26.8221 115.33 25.7405C114.786 24.6588 114.514 23.414 114.514 22.006C114.514 20.5798 114.789 19.329 115.339 18.2533C115.895 17.1717 116.683 16.3287 117.705 15.7244C118.726 15.1141 119.94 14.8089 121.348 14.8089C122.563 14.8089 123.627 15.0295 124.539 15.4706C125.452 15.9117 126.174 16.5311 126.705 17.3288C127.237 18.1264 127.53 19.0631 127.585 20.1387H123.941C123.838 19.4438 123.566 18.8848 123.125 18.4618C122.69 18.0328 122.119 17.8183 121.412 17.8183C120.814 17.8183 120.291 17.9814 119.844 18.3077C119.403 18.628 119.058 19.0963 118.81 19.7127C118.563 20.3291 118.439 21.0754 118.439 21.9516C118.439 22.8399 118.56 23.5952 118.801 24.2177C119.049 24.8401 119.397 25.3144 119.844 25.6407C120.291 25.9671 120.814 26.1302 121.412 26.1302C121.853 26.1302 122.249 26.0396 122.599 25.8583C122.956 25.677 123.249 25.4141 123.479 25.0697C123.714 24.7192 123.868 24.2992 123.941 23.8098H127.585C127.524 24.8733 127.234 25.8099 126.714 26.6197C126.201 27.4234 125.491 28.0519 124.584 28.5051C123.678 28.9583 122.605 29.1849 121.367 29.1849ZM133.772 29.1758C132.884 29.1758 132.092 29.0217 131.397 28.7135C130.702 28.3993 130.152 27.937 129.747 27.3267C129.348 26.7103 129.149 25.9429 129.149 25.0244C129.149 24.2509 129.291 23.6013 129.575 23.0756C129.859 22.5498 130.246 22.1268 130.735 21.8065C131.225 21.4863 131.781 21.2446 132.403 21.0814C133.032 20.9182 133.69 20.8034 134.379 20.737C135.189 20.6524 135.842 20.5738 136.337 20.5013C136.833 20.4227 137.192 20.3079 137.416 20.1568C137.639 20.0058 137.751 19.7822 137.751 19.4861V19.4317C137.751 18.8576 137.57 18.4135 137.207 18.0992C136.851 17.785 136.343 17.6279 135.684 17.6279C134.989 17.6279 134.437 17.782 134.026 18.0902C133.615 18.3923 133.343 18.773 133.21 19.2323L129.639 18.9422C129.82 18.0962 130.176 17.365 130.708 16.7487C131.24 16.1262 131.926 15.6489 132.766 15.3165C133.612 14.9781 134.591 14.8089 135.703 14.8089C136.476 14.8089 137.216 14.8995 137.923 15.0808C138.636 15.2621 139.268 15.5431 139.818 15.9238C140.374 16.3045 140.812 16.794 141.132 17.3922C141.452 17.9844 141.612 18.6945 141.612 19.5223V28.913H137.951V26.9823H137.842C137.618 27.4174 137.319 27.8011 136.944 28.1334C136.57 28.4597 136.12 28.7166 135.594 28.9039C135.068 29.0852 134.461 29.1758 133.772 29.1758ZM134.878 26.5109C135.446 26.5109 135.947 26.3991 136.382 26.1755C136.817 25.9459 137.159 25.6377 137.407 25.251C137.654 24.8642 137.778 24.4261 137.778 23.9367V22.4592C137.657 22.5377 137.491 22.6103 137.28 22.6767C137.074 22.7372 136.842 22.7946 136.582 22.8489C136.322 22.8973 136.062 22.9426 135.802 22.9849C135.542 23.0212 135.307 23.0544 135.095 23.0846C134.642 23.1511 134.246 23.2568 133.908 23.4019C133.569 23.5469 133.307 23.7433 133.119 23.991C132.932 24.2328 132.838 24.5349 132.838 24.8975C132.838 25.4232 133.029 25.8251 133.409 26.103C133.796 26.375 134.285 26.5109 134.878 26.5109ZM148.214 20.8639V28.913H144.353V14.9902H148.033V17.4466H148.196C148.504 16.6369 149.021 15.9963 149.746 15.525C150.471 15.0476 151.351 14.8089 152.384 14.8089C153.351 14.8089 154.194 15.0204 154.913 15.4434C155.632 15.8664 156.191 16.4707 156.59 17.2563C156.989 18.0358 157.188 18.9664 157.188 20.0481V28.913H153.327V20.737C153.333 19.8849 153.115 19.2202 152.674 18.7428C152.233 18.2594 151.626 18.0177 150.852 18.0177C150.332 18.0177 149.873 18.1295 149.474 18.353C149.082 18.5766 148.773 18.9029 148.55 19.332C148.332 19.755 148.22 20.2656 148.214 20.8639Z" fill="black"/>
</svg>
