<svg width="16" height="16" viewBox="0 0 16 16" fill="none" xmlns="http://www.w3.org/2000/svg">
<path fill-rule="evenodd" clip-rule="evenodd" d="M2.80005 8.75L7.47005 11.6687C7.79432 11.8714 8.20577 11.8714 8.53004 11.6687L13.2 8.75L14.6432 9.65201C15.2699 10.0437 15.2699 10.9563 14.6432 11.348L8.53004 15.1688C8.20577 15.3714 7.79432 15.3714 7.47005 15.1688L1.35684 11.348C0.730173 10.9563 0.730174 10.0437 1.35684 9.65201L2.80005 8.75Z" fill="#09B585"/>
<path d="M7.47 1.33125L1.3568 5.152C0.730129 5.54367 0.730128 6.45633 1.3568 6.848L7.47 10.6688C7.79427 10.8714 8.20573 10.8714 8.53 10.6688L14.6432 6.848C15.2699 6.45633 15.2699 5.54367 14.6432 5.152L8.53 1.33125C8.20573 1.12858 7.79427 1.12858 7.47 1.33125Z" fill="#006088"/>
</svg>
