<svg width="60" height="52" viewBox="0 0 60 52" fill="none" xmlns="http://www.w3.org/2000/svg">
<path d="M50.6564 23V26.9761C54.38 28.9208 56.5436 31.328 56.5436 33.716C56.5436 39.1889 46.0085 43.4884 35.5856 44.3946C34.634 44.4765 33.9266 45.3495 34.0061 46.3429C34.0808 47.2984 34.869 48.0698 35.8702 47.995C44.9431 47.2143 60 43.1223 60 33.716C60 28.5786 55.1907 25.0444 50.6564 23Z" fill="#FE8A54"/>
<path d="M19.0683 38.3597C18.1106 37.3321 16.446 37.8343 16.1537 39.246L15.3917 42.9254C3.97602 39.6858 -1.5048 32.7178 9.34323 27.0022V23C-4.89135 29.4747 -2.65761 41.6359 14.6548 46.4829L13.9695 49.7911C13.6757 51.2095 15.0088 52.4092 16.2946 51.867L24.9161 48.2307C26.0566 47.7498 26.3692 46.1952 25.5058 45.2685L19.0683 38.3597Z" fill="#FE8A54"/>
<path d="M30.7598 0.238455C30.2257 -0.0821557 29.5715 -0.07922 29.0399 0.245795L15 8.83012C17.3778 10.2839 28.7053 17.2099 29.9975 18L45 8.78412L30.7598 0.238455Z" fill="#FE8A54"/>
<path d="M13.0001 28.9188C13.0001 29.5647 13.3302 30.1613 13.8661 30.4842L28 39V21.0376L13 12V28.9188H13.0001Z" fill="#FE8A54"/>
<path d="M47 28.9355V12L32 21.0649V39L46.134 30.4983C46.67 30.1759 47 29.5803 47 28.9355Z" fill="#FE8A54"/>
</svg>
