<svg width="20" height="18" viewBox="0 0 20 18" fill="none" xmlns="http://www.w3.org/2000/svg">
<path d="M19.4136 18C19.1298 18 18.8835 17.7889 18.8361 17.4961C18.4133 14.9552 16.0226 10.5205 9.95832 10.2613V13.5215C9.95832 13.7473 9.83566 13.9543 9.64051 14.0577C9.44531 14.161 9.21039 14.1434 9.0318 14.0122L0.245352 7.55296C0.0913672 7.43975 0 7.25695 0 7.06221C0 6.86743 0.0913672 6.68467 0.245352 6.5715L9.03184 0.11234C9.21039 -0.0189611 9.44535 -0.0365295 9.64051 0.0668309C9.83566 0.170191 9.95832 0.377153 9.95832 0.603051V3.91231C13.7069 4.29713 20 7.08187 20 17.3969C20 17.7107 19.7662 17.9721 19.4624 17.9979C19.446 17.9993 19.4297 18 19.4136 18Z" fill="#011F3F"/>
</svg>
