<svg width="57" height="50" viewBox="0 0 57 50" fill="none" xmlns="http://www.w3.org/2000/svg">
<path d="M20.0247 17.5002C20.0247 15.571 18.2925 14 16.1628 14C14.034 14 12.3005 15.571 12.3005 17.5002C12.3005 19.4303 14.034 21 16.1628 21C18.2925 21 20.0247 19.4303 20.0247 17.5002Z" fill="#FFA912"/>
<path d="M11.335 30.1921V32H21.9557V30.1942C21.9557 27.3296 19.5733 25 16.6449 25C13.716 25 11.335 27.3296 11.335 30.1921Z" fill="#FFA912"/>
<path fill-rule="evenodd" clip-rule="evenodd" d="M33.3327 9H45.3377C46.0553 9 46.73 9.28965 47.2379 9.81455C47.745 10.3403 48.0248 11.0388 48.0248 11.7816V17.1079C48.0248 18.6417 46.8197 19.8892 45.3377 19.8892H34.1896C33.8735 19.8892 33.5641 19.9854 33.3014 20.168L30.6455 22V11.7816C30.6455 11.0388 30.9253 10.3403 31.4324 9.81541C31.9395 9.28965 32.615 9 33.3327 9ZM32.5883 14.4446C32.5883 15.3597 33.306 16.1022 34.1896 16.1022C35.0736 16.1022 35.7909 15.3597 35.7909 14.4446C35.7909 13.5299 35.0736 12.787 34.1896 12.787C33.306 12.787 32.5883 13.5299 32.5883 14.4446ZM39.335 16.1022C38.4513 16.1022 37.7337 15.3597 37.7337 14.4446C37.7337 13.5299 38.4513 12.787 39.335 12.787C40.219 12.787 40.9362 13.5299 40.9362 14.4446C40.9362 15.3597 40.219 16.1022 39.335 16.1022ZM42.8795 14.4446C42.8795 15.3597 43.5967 16.1022 44.4807 16.1022C45.3644 16.1022 46.082 15.3597 46.082 14.4446C46.082 13.5299 45.3644 12.787 44.4807 12.787C43.5967 12.787 42.8795 13.5299 42.8795 14.4446Z" fill="white"/>
<path fill-rule="evenodd" clip-rule="evenodd" d="M5.86908 0H51.5596C54.3739 0 56.7144 2.29945 56.7144 5.21613V32H25.0832V30.1047C25.0832 27.0307 23.5114 24.3241 21.1389 22.7577C22.4834 21.4804 23.3255 19.6681 23.3255 17.66C23.3255 13.8036 20.2245 10.6665 16.4131 10.6665C12.6012 10.6665 9.50024 13.8036 9.50024 17.66C9.50024 19.6681 10.3428 21.4796 11.6869 22.7564C9.31567 24.3232 7.74384 27.0298 7.74384 30.1025V32H0.714355V5.21613C0.714355 2.30939 3.04498 0 5.86908 0ZM45.4081 22.8757C48.7355 22.8757 51.4426 20.1371 51.4426 16.7713V11.438C51.4426 8.06624 48.7462 5.33326 45.4081 5.33326H33.1082C29.7752 5.33326 27.0737 8.06105 27.0737 11.438V24.7714C27.0737 26.0936 28.5349 26.8867 29.6244 26.1524L34.4826 22.8757H45.4081Z" fill="#00B7FF"/>
<path d="M0.714355 37.8662C0.714355 40.7364 3.05524 43 5.86951 43H27.0737V46.7323H19.928C19.0219 46.7323 18.2874 47.4641 18.2874 48.3662C18.2874 49.2686 19.0219 50 19.928 50H37.5007C38.4069 50 39.1413 49.2686 39.1413 48.3662C39.1413 47.4641 38.4069 46.7323 37.5007 46.7323H30.355V43H51.5592C54.3833 43 56.7144 40.7271 56.7144 37.8662V36H0.714355V37.8662Z" fill="white"/>
</svg>
