<svg width="55" height="48" viewBox="0 0 55 48" fill="none" xmlns="http://www.w3.org/2000/svg">
<path d="M42.0634 4H26.5079C25.2812 4 24.2856 3.104 24.2856 2C24.2856 0.896 25.2812 0 26.5079 0H42.0634C43.2901 0 44.2856 0.896 44.2856 2C44.2856 3.104 43.2901 4 42.0634 4Z" fill="white"/>
<path d="M51.978 15H26.5933C25.3195 15 24.2856 14.104 24.2856 13C24.2856 11.896 25.3195 11 26.5933 11H51.978C53.2518 11 54.2856 11.896 54.2856 13C54.2856 14.104 53.2518 15 51.978 15Z" fill="#FFF3F3"/>
<path d="M42.0634 26H26.5079C25.2812 26 24.2856 25.104 24.2856 24C24.2856 22.896 25.2812 22 26.5079 22H42.0634C43.2901 22 44.2856 22.896 44.2856 24C44.2856 25.104 43.2901 26 42.0634 26Z" fill="#FFF3F3"/>
<path d="M50.2472 33H28.3241C26.0972 33 24.2856 34.7008 24.2856 36.7917V42.2083C24.2856 44.2992 26.0972 46 28.3241 46H50.2472C52.4741 46 54.2856 44.2992 54.2856 42.2083V36.7917C54.2856 34.7008 52.4741 33 50.2472 33Z" fill="#00B7FF"/>
<path d="M19.7545 37.7619L11.9768 30.4489C11.4901 29.9922 10.7834 29.8752 10.1745 30.1384C9.56787 30.4084 9.17453 31.016 9.17453 31.6865V36.7493H2.50787C1.27898 36.7493 0.285645 37.7574 0.285645 38.9995C0.285645 40.2415 1.27898 41.2496 2.50787 41.2496H9.17453V46.3124C9.17453 46.9829 9.56787 47.5905 10.1745 47.8605C10.3901 47.9527 10.6145 48 10.8412 48C11.2545 48 11.6612 47.8447 11.9768 47.55L19.7545 40.237C20.0923 39.9175 20.2856 39.4675 20.2856 38.9995C20.2856 38.5314 20.0923 38.0814 19.7545 37.7619Z" fill="#FFA912"/>
</svg>
