<svg width="38" height="50" viewBox="0 0 38 50" fill="none" xmlns="http://www.w3.org/2000/svg">
<path fill-rule="evenodd" clip-rule="evenodd" d="M1.72727 0H29.3636C34.131 0.00590378 37.9943 3.99991 38 8.92857V48.2143C38 49.2005 37.2267 50 36.2727 50H8.63636C3.869 49.9941 0.00571056 46.0001 0 41.0714V1.78571C0 0.799492 0.773326 0 1.72727 0ZM10.3636 37.5H27.6364C28.5903 37.5 29.3636 36.7005 29.3636 35.7143C29.3636 34.7281 28.5903 33.9286 27.6364 33.9286H10.3636C9.40969 33.9286 8.63636 34.7281 8.63636 35.7143C8.63636 36.7005 9.40969 37.5 10.3636 37.5ZM27.6364 26.7857H10.3636C9.40969 26.7857 8.63636 25.9862 8.63636 25C8.63636 24.0138 9.40969 23.2143 10.3636 23.2143H27.6364C28.5903 23.2143 29.3636 24.0138 29.3636 25C29.3636 25.9862 28.5903 26.7857 27.6364 26.7857ZM10.3636 16.0714H27.6364C28.5903 16.0714 29.3636 15.2719 29.3636 14.2857C29.3636 13.2995 28.5903 12.5 27.6364 12.5H10.3636C9.40969 12.5 8.63636 13.2995 8.63636 14.2857C8.63636 15.2719 9.40969 16.0714 10.3636 16.0714Z" fill="#00B7FF"/>
<rect x="8" y="12" width="22" height="5" rx="2.5" fill="#FFA912"/>
<rect x="8" y="23" width="22" height="5" rx="2.5" fill="white"/>
<rect x="8" y="34" width="22" height="5" rx="2.5" fill="#201CFE"/>
</svg>
