<svg width="50" height="50" viewBox="0 0 50 50" fill="none" xmlns="http://www.w3.org/2000/svg">
<path d="M7 0H50V31H7V0Z" fill="#00B7FF"/>
<path d="M11 4H47V28H11V4Z" fill="white"/>
<circle cx="16.5" cy="9.5" r="2.5" fill="#FFA912"/>
<path d="M0 8H43V39H0V8Z" fill="#201CFE"/>
<path d="M3 12H39V36H3V12Z" fill="white"/>
<circle cx="9.5" cy="18.5" r="2.5" fill="#FFA912"/>
<path d="M39.3071 14.4945L45.4934 35.8463L10.6985 45.7523L4.51232 24.4004L39.3071 14.4945Z" fill="white"/>
<path opacity="0.2" d="M40.5959 25.2213L43.7204 36L46 35.3513L39.8109 14L5 23.906L5.55491 25.8205L29.3477 19.05C31.6653 18.3905 34.1524 18.6702 36.2618 19.8275C38.3713 20.9848 39.9303 22.9251 40.5959 25.2213Z" fill="#0088BE"/>
<path d="M31.355 30.6019L19.7598 24L10 41.7048L11.644 47L36 40.1675L31.6507 30.7727" fill="#201CFE"/>
<path opacity="0.2" d="M30.8621 30.7727L30.5807 30.6019L19.549 24L18.9902 25.0655C21.2452 27.667 22.2112 31.1965 21.6082 34.6311C21.0052 38.0656 18.9006 41.021 15.9045 42.6406L11 45.2919L11.8276 47L35 40.1675L30.8621 30.7727Z" fill="#000016"/>
<path d="M25 42L31.4036 31.2755L34.5501 26L45.2992 31.4408L47 36.4021L25 42Z" fill="#201CFE"/>
<path opacity="0.21" d="M45.2992 31.4408L34.5501 26L33.7301 27.3748C35.5989 28.5602 36.6788 30.6222 36.5655 32.789C36.4522 34.9557 35.1628 36.9006 33.1799 37.8956L25 42L47 36.4021L45.2992 31.4408Z" fill="#000016"/>
<path fill-rule="evenodd" clip-rule="evenodd" d="M0.240112 21.8221L41.6687 10.0134L49.7598 37.972L8.33115 49.7804L0.240112 21.8221ZM39.3064 14.2473L4.50632 24.1666L10.6935 45.5467L45.4936 35.6276L39.3064 14.2473Z" fill="#00B7FF"/>
<ellipse cx="29.1344" cy="22.4873" rx="2.58621" ry="2.56667" fill="#FFA912"/>
</svg>
