<svg width="50" height="50" viewBox="0 0 50 50" fill="none" xmlns="http://www.w3.org/2000/svg">
<path d="M40.1296 20.1193L38.2812 12.5781V4.39453C38.2812 1.96279 36.3185 0 33.8867 0H16.1133C13.6815 0 11.7188 1.96279 11.7188 4.39453V12.5781L9.93633 20.1355L0 17.6758V38.1836C0 40.1348 2.23164 41.5124 7.02383 42.5181C7.44971 42.6093 7.90449 42.5004 8.24834 42.222C8.58877 41.9444 8.78906 41.5253 8.78906 41.0847V36.4843L10.0374 29.7062L11.7188 36.045V45.6055C11.7188 48.0372 13.6815 50 16.1133 50H33.8867C36.3185 50 38.2812 48.0372 38.2812 45.6055V36.045L39.9339 29.5502L41.2109 36.4843V41.0847C41.2109 41.5253 41.4112 41.9444 41.7517 42.222C42.0957 42.5005 42.5504 42.6093 42.9762 42.5181C47.7684 41.5124 50 40.1348 50 38.1836V17.6758L40.1296 20.1193Z" fill="#00B7FF"/>
<path fill-rule="evenodd" clip-rule="evenodd" d="M26.4648 8.9156H23.5352C22.7255 8.9156 22.0703 8.26358 22.0703 7.4578C22.0703 6.65203 22.7255 6 23.5352 6H26.4648C27.2745 6 27.9297 6.65203 27.9297 7.4578C27.9297 8.26358 27.2745 8.9156 26.4648 8.9156ZM0 17.7596C0 19.159 1.17197 21.0542 7.5 21.9581C8.23242 22.0746 8.78906 22.687 8.78906 23.4159V36.4777C9.72656 36.3027 10.7226 36.1569 11.7188 36.0404V12.6864C0 14.1442 0 16.7392 0 17.7596ZM38.2812 12.6864V36.0404C39.2774 36.1569 40.2734 36.3027 41.2109 36.4777V23.6492C41.2109 22.9495 41.7383 22.3663 42.412 22.2206C47.7147 21.2 50 19.8005 50 17.7596C50 16.7392 50 14.1442 38.2812 12.6864ZM27.9297 42.5422C27.9297 41.7364 27.2745 41.0844 26.4648 41.0844H23.5352C22.7255 41.0844 22.0703 41.7364 22.0703 42.5422C22.0703 43.348 22.7255 44 23.5352 44H26.4648C27.2745 44 27.9297 43.348 27.9297 42.5422ZM26.4648 23.5908H27.9297C28.7394 23.5908 29.3945 24.2428 29.3945 25.0486C29.3945 25.8544 28.7394 26.5064 27.9297 26.5064H26.4648V27.9642C26.4648 28.77 25.8097 29.422 25 29.422C24.1903 29.422 23.5352 28.77 23.5352 27.9642V26.5064H22.0703C21.2606 26.5064 20.6055 25.8544 20.6055 25.0486C20.6055 24.2428 21.2606 23.5908 22.0703 23.5908H23.5352V22.133C23.5352 21.3272 24.1903 20.6752 25 20.6752C25.8097 20.6752 26.4648 21.3272 26.4648 22.133V23.5908Z" fill="#E8EBEF"/>
</svg>
