<svg width="831" height="694" viewBox="0 0 831 694" fill="none" xmlns="http://www.w3.org/2000/svg">
<path d="M829.085 425.268C825.137 386.167 810.946 348.477 784.818 318.493C741.492 268.678 679.65 256.553 629.463 220.46C578.711 184.085 540.742 129.006 497.133 82.292C390.179 -32.378 242.624 40.4656 147.701 128.536C52.8707 216.512 -42.0532 362.106 20.2583 513.996C75.8968 649.533 223.922 619.831 325.706 642.859C446.946 670.305 562.922 725.102 683.128 668.895C724.763 649.439 764.048 620.395 792.243 578.381C820.72 535.521 834.63 479.031 829.085 425.268Z" fill="#F2F4F7"/>
<path d="M654.151 52.2192C672.963 36.6997 696.186 28.9399 709.419 44.4595C722.652 59.979 718.112 85.0393 699.3 100.686C680.488 116.333 633.652 115.442 620.419 99.9228C607.186 84.276 635.339 67.7388 654.151 52.2192Z" fill="#F2F4F7"/>
<path d="M554.769 54.2867C547.774 30.714 549.523 6.36409 568.51 0.406138C587.498 -5.68133 608.485 8.56594 615.48 32.1387C622.476 55.7115 604.112 98.3238 585.125 104.282C566.137 110.24 561.64 77.8595 554.769 54.2867Z" fill="#F2F4F7"/>
</svg>
