<svg width="64" height="39" viewBox="0 0 64 39" fill="none" xmlns="http://www.w3.org/2000/svg">
<path d="M57.5504 0.5H6.3068C3.06016 0.5 0.428589 3.17898 0.428589 6.48363V26.1242C0.428589 29.4291 3.06057 32.1078 6.3068 32.1078H30.694L41.5023 38.5L39.3438 32.1078H57.5504C60.797 32.1078 63.4286 29.4289 63.4286 26.1242V6.48363C63.4288 3.17877 60.7968 0.5 57.5504 0.5Z" fill="#00B7FF"/>
<path d="M10.8121 29.9C10.8032 29.9 10.7948 29.9 10.7861 29.8998C10.0802 29.8915 9.42307 29.5458 9.02603 28.9738C8.39896 28.0703 7.47967 25.9872 5.92488 17.8311C5.09146 13.4596 4.46501 9.34271 4.45884 9.30175C4.28338 8.14561 5.09785 7.06938 6.27785 6.89747C7.45702 6.72536 8.55629 7.52336 8.73175 8.67969C8.73772 8.71985 9.35016 12.7425 10.165 17.0218C10.6358 19.4937 11.0384 21.3377 11.3728 22.7097C13.4095 19.0323 15.8956 14.0869 16.9899 11.8535C17.3906 11.036 18.2782 10.5594 19.1979 10.6689C20.1172 10.7785 20.8625 11.4498 21.0515 12.3378C21.4092 14.0141 22.3359 17.5047 23.6524 20.6729C24.138 16.1684 25.0777 10.4518 26.8691 6.85368C27.392 5.80327 28.6852 5.36705 29.7573 5.87954C30.8294 6.39204 31.2747 7.65894 30.7516 8.70935C27.9031 14.4307 27.4766 27.4638 27.4725 27.5949C27.447 28.4391 26.9115 29.1875 26.1105 29.4988C25.3092 29.8104 24.3959 29.6255 23.7863 29.0283C21.8511 27.1323 20.0871 23.8648 18.5428 19.3168C18.4761 19.12 18.4112 18.9253 18.348 18.733C16.4547 22.425 13.9657 27.1028 12.5685 29.016C12.1624 29.5709 11.5081 29.9 10.8121 29.9Z" fill="white"/>
<path fill-rule="evenodd" clip-rule="evenodd" d="M39.8797 8.46341C41.898 9.01364 43.4429 10.2513 44.3425 12.0412C45.2183 13.7827 45.4312 15.9331 44.9751 18.4314C44.3404 21.9184 41.0459 27.0036 37.1233 27.3684C36.9855 27.3809 36.837 27.3894 36.6778 27.3894C35.204 27.3894 32.923 26.7084 31.4727 22.9978C29.3552 17.5838 30.9799 13.091 33.207 10.694C35.0833 8.67002 37.5773 7.83732 39.8797 8.46341ZM38.948 21.3597C39.828 20.2191 40.523 18.777 40.7232 17.6871C41.0867 15.6863 41.0352 13.1711 38.7221 12.5406C38.608 12.5089 38.4876 12.4942 38.3628 12.4942C37.7431 12.4942 37.0221 12.8717 36.4025 13.5399C34.3238 15.779 34.6208 19.2197 35.5073 21.484C35.9484 22.6141 36.4476 23.179 36.7165 23.1538C37.1576 23.1139 38.0442 22.534 38.948 21.3597Z" fill="white"/>
<path fill-rule="evenodd" clip-rule="evenodd" d="M58.5766 9.78742C59.3254 10.3883 59.9366 11.1473 60.3884 12.0412C61.262 13.7827 61.4751 15.9331 61.0188 18.4314C60.3839 21.9184 57.0895 27.0036 53.169 27.3684C53.0314 27.3809 52.8807 27.3894 52.7215 27.3894C51.2476 27.3894 48.9667 26.7084 47.5163 22.9978C45.4012 17.5838 47.0258 13.091 49.2507 10.694C51.1292 8.67002 53.6231 7.83732 55.9233 8.46341C56.9326 8.73963 57.8235 9.18655 58.5766 9.78742ZM54.9938 21.3597C55.8717 20.2191 56.5689 18.777 56.7668 17.6871C57.1305 15.6863 57.0811 13.1711 54.7679 12.5406C54.6517 12.5089 54.5312 12.4942 54.4064 12.4942C53.7888 12.4942 53.0681 12.8717 52.4462 13.5399C50.3697 15.779 50.6665 19.2197 51.551 21.484C51.9921 22.6141 52.4933 23.179 52.7602 23.1538C53.2013 23.1139 54.0879 22.534 54.9938 21.3597Z" fill="white"/>
</svg>
