<svg width="85" height="61" viewBox="0 0 85 61" fill="none" xmlns="http://www.w3.org/2000/svg">
<path d="M83.2487 9.86735C82.2688 6.19253 79.3979 3.29587 75.7573 2.30632C69.1057 0.469238 42.4992 0.469238 42.4992 0.469238C42.4992 0.469238 15.8933 0.469238 9.24171 2.23629C5.6711 3.22519 2.73017 6.19319 1.75029 9.86735C0 16.5795 0 30.5 0 30.5C0 30.5 0 44.4905 1.75029 51.1327C2.73082 54.8068 5.60106 57.7041 9.24236 58.6937C15.9634 60.5308 42.4998 60.5308 42.4998 60.5308C42.4998 60.5308 69.1057 60.5308 75.7573 58.7637C79.3986 57.7748 82.2688 54.8775 83.2494 51.2033C84.9996 44.4905 84.9996 30.5707 84.9996 30.5707C84.9996 30.5707 85.0697 16.5795 83.2487 9.86735Z" fill="white"/>
<path d="M33.6265 43.6384L56.044 30.9692L33.6265 18.3L33.6265 43.6384Z" fill="#C1C1D6"/>
</svg>
