<svg xmlns="http://www.w3.org/2000/svg" xmlns:xlink="http://www.w3.org/1999/xlink" width="20" height="20" preserveAspectRatio="xMidYMid meet" viewBox="0 0 20 20" style="-ms-transform: rotate(360deg); -webkit-transform: rotate(360deg); transform: rotate(360deg);"><path d="M15 4h3v15H2V4h3V3c0-.41.15-.76.44-1.06.29-.29.65-.44 1.06-.44s.77.15 1.06.44c.29.3.44.65.44 1.06v1h4V3c0-.41.15-.76.44-1.06.29-.29.65-.44 1.06-.44s.77.15 1.06.44c.29.3.44.65.44 1.06v1zM6 3v2.5a.491.491 0 0 0 .5.5.491.491 0 0 0 .5-.5V3c0-.14-.05-.26-.15-.35-.09-.1-.21-.15-.35-.15s-.26.05-.35.15c-.1.09-.15.21-.15.35zm7 0v2.5c0 .14.05.26.14.36.1.09.22.14.36.14s.26-.05.36-.14c.09-.1.14-.22.14-.36V3a.491.491 0 0 0-.5-.5.491.491 0 0 0-.5.5zm4 15V8H3v10h14zM7 9v2H5V9h2zm2 0h2v2H9V9zm4 2V9h2v2h-2zm-6 1v2H5v-2h2zm2 0h2v2H9v-2zm4 2v-2h2v2h-2zm-6 1v2H5v-2h2zm4 2H9v-2h2v2zm4 0h-2v-2h2v2z" fill="#7f7f7f"/><rect x="0" y="0" width="20" height="20" fill="rgba(0, 0, 0, 0)" /></svg>