<svg width="45" height="32" viewBox="0 0 45 32" fill="none" xmlns="http://www.w3.org/2000/svg">
<g id="Group 161">
<path id="Vector" d="M12.4891 11.0927C13.7408 11.3525 14.9354 11.8451 16.0137 12.5461C19.5064 14.8444 21.3382 19.164 20.5624 23.2834C19.7474 27.6307 16.5276 30.9655 12.3784 31.7904C6.25853 33.0082 1.1824 28.6281 0.217337 23.0391C-0.252288 20.3251 0.0944008 17.6301 0.733681 14.993C2.59374 7.30206 7.41908 2.49759 14.6884 0.123694C15.7174 -0.211297 16.6837 0.155177 17.2296 1.02792C17.7754 1.90065 17.6881 2.93459 16.9837 3.77459C15.2072 5.88402 13.6828 8.15465 12.6304 10.7376C12.585 10.8371 12.5481 10.9391 12.4891 11.0927ZM12.8702 4.06424C12.7878 4.0995 12.703 4.12973 12.6243 4.16877C4.86073 7.90655 2.51014 15.804 3.11992 22.3225C3.48873 26.2668 6.91749 29.1319 10.7114 28.9505C13.598 28.8132 15.7396 27.3587 17.007 24.7203C18.2881 22.0555 18.0311 19.431 16.3838 16.9903C15.2773 15.3532 13.7123 14.3935 11.8277 13.9364C10.6106 13.6417 9.86064 12.8332 9.58525 11.5751C9.38978 10.6809 9.74876 9.90768 10.0856 9.1294C10.8503 7.3537 11.819 5.69889 12.8702 4.06424Z" fill="#6E55FF"/>
<path id="Vector_2" d="M36.0527 10.9382C37.1677 11.4243 38.2275 11.7719 39.179 12.3235C42.8549 14.4379 44.892 18.8722 44.174 23.052C43.4032 27.5416 40.1687 30.9583 35.9531 31.7945C29.8676 32.9997 24.8948 28.6927 23.8264 23.2799C23.4011 21.1302 23.6113 18.9805 23.9359 16.8484C24.4977 13.1622 25.8094 9.79593 28.1379 6.88176C30.8425 3.50163 34.3205 1.3305 38.3799 0.093804C38.8255 -0.0451415 39.3035 -0.0292037 39.7393 0.139132C40.1751 0.307467 40.5444 0.618748 40.7895 1.02448C41.3157 1.85565 41.2419 2.83922 40.6432 3.66914C39.5736 5.14511 38.4795 6.60597 37.4886 8.13483C36.9071 9.02142 36.5051 10.0377 36.0527 10.9382ZM36.4658 4.05072C36.2912 4.12754 36.1781 4.1691 36.0711 4.22451C31.3183 6.6236 28.3616 10.4911 27.1544 15.7565C26.6467 17.9717 26.343 20.2235 26.6909 22.4979C26.961 24.3469 27.8874 26.0288 29.2926 27.2218C30.6978 28.4147 32.4832 29.0349 34.307 28.9634C39.5626 28.7544 42.9446 22.9261 40.5977 18.1002C39.5085 15.861 37.732 14.5223 35.3667 13.9317C33.5226 13.472 32.6301 11.622 33.3579 9.84631C33.7014 8.98831 34.0917 8.15078 34.527 7.33766C35.122 6.2395 35.7896 5.18667 36.4658 4.05072Z" fill="#6E55FF"/>
</g>
</svg>
