<svg width="107" height="107" viewBox="0 0 107 107" fill="none" xmlns="http://www.w3.org/2000/svg">
<mask id="mask0_23_58" style="mask-type:alpha" maskUnits="userSpaceOnUse" x="0" y="0" width="107" height="107">
<path d="M0 0H107V92C107 100.284 100.284 107 92 107H15C6.71573 107 0 100.284 0 92V0Z" fill="#121933"/>
</mask>
<g mask="url(#mask0_23_58)">
<g opacity="0.15">
<g style="mix-blend-mode:multiply">
<path d="M-83.2684 -26.6997L111.874 151.114L226.85 158.702C226.85 158.702 189.677 231.292 187.933 230.345L-138.243 53.1645L-83.2684 -26.6997Z" fill="white"/>
</g>
<g style="mix-blend-mode:multiply">
<path d="M-14.3703 57.11C-7.04813 61.0874 2.11199 58.376 6.08942 51.0538C10.0669 43.7317 7.35542 34.5715 0.0332614 30.5941C-7.28889 26.6167 -16.449 29.3281 -20.4264 36.6503C-24.4039 43.9724 -21.6924 53.1325 -14.3703 57.11Z" fill="white"/>
</g>
<g style="mix-blend-mode:multiply">
<path d="M19.1815 66.9793C23.0892 61.929 22.1629 54.6671 17.1126 50.7594C12.0622 46.8517 4.80033 47.7779 0.892622 52.8282C-3.01508 57.8786 -2.0888 65.1405 2.96153 69.0482C8.01185 72.9559 15.2738 72.0296 19.1815 66.9793Z" fill="white"/>
</g>
<g style="mix-blend-mode:multiply">
<path d="M46.3708 84.4809C52.8628 76.0907 51.3239 64.0263 42.9337 57.5343C34.5434 51.0423 22.479 52.5812 15.987 60.9714C9.49507 69.3617 11.0339 81.4261 19.4241 87.9181C27.8144 94.4101 39.8788 92.8712 46.3708 84.4809Z" fill="white"/>
</g>
<g style="mix-blend-mode:multiply">
<path d="M66.035 107.964C72.3817 100.863 71.7705 89.9623 64.6699 83.6157C57.5693 77.269 46.6681 77.8801 40.3214 84.9807C33.9747 92.0814 34.586 102.983 41.6866 109.329C48.7872 115.676 59.6884 115.065 66.035 107.964Z" fill="white"/>
</g>
<g style="mix-blend-mode:multiply">
<path d="M71.1877 115.437C74.0726 112.209 73.7948 107.254 70.5672 104.369C67.3397 101.484 62.3845 101.762 59.4997 104.99C56.6148 108.217 56.8927 113.172 60.1202 116.057C63.3478 118.942 68.3028 118.664 71.1877 115.437Z" fill="white"/>
</g>
<g style="mix-blend-mode:multiply">
<path d="M93.4477 131.639C98.3532 126.151 97.8808 117.726 92.3926 112.82C86.9044 107.915 78.4787 108.387 73.5732 113.875C68.6677 119.363 69.1401 127.789 74.6283 132.695C80.1165 137.6 88.5423 137.128 93.4477 131.639Z" fill="white"/>
</g>
</g>
<g opacity="0.1">
<g style="mix-blend-mode:multiply">
<path d="M-82.1192 13.2399L145.078 147.701L259.198 131.772C259.198 131.772 237.547 210.401 235.648 209.827L-119.723 102.607L-82.1192 13.2399Z" fill="white"/>
</g>
<g style="mix-blend-mode:multiply">
<path d="M2.3686 81.3044C10.3461 83.7113 18.7643 79.1954 21.1713 71.2179C23.5782 63.2404 19.0624 54.8222 11.0849 52.4153C3.10736 50.0083 -5.31088 54.5242 -7.71781 62.5017C-10.1247 70.4792 -5.6089 78.8974 2.3686 81.3044Z" fill="white"/>
</g>
<g style="mix-blend-mode:multiply">
<path d="M37.2257 84.1516C40.0259 78.4127 37.6436 71.4904 31.9047 68.6902C26.1659 65.89 19.2436 68.2723 16.4434 74.0112C13.6432 79.7501 16.0255 86.6724 21.7643 89.4726C27.5032 92.2728 34.4255 89.8905 37.2257 84.1516Z" fill="white"/>
</g>
<g style="mix-blend-mode:multiply">
<path d="M67.4037 95.7645C72.0557 86.2304 68.098 74.7302 58.5638 70.0781C49.0296 65.4261 37.5294 69.3838 32.8774 78.918C28.2253 88.4522 32.1831 99.9524 41.7172 104.604C51.2514 109.256 62.7516 105.299 67.4037 95.7645Z" fill="white"/>
</g>
<g style="mix-blend-mode:multiply">
<path d="M91.4286 114.763C96.2004 106.521 93.3873 95.9716 85.1454 91.1998C76.9034 86.428 66.3538 89.2411 61.582 97.483C56.8102 105.725 59.6233 116.275 67.8652 121.046C76.1072 125.818 86.6568 123.005 91.4286 114.763Z" fill="white"/>
</g>
<g style="mix-blend-mode:multiply">
<path d="M97.9919 121.033C100.161 117.287 98.8823 112.491 95.1359 110.322C91.3896 108.153 86.5943 109.432 84.4253 113.178C82.2563 116.925 83.535 121.72 87.2813 123.889C91.0276 126.058 95.8229 124.779 97.9919 121.033Z" fill="white"/>
</g>
</g>
<path d="M-102.364 -1.11216L117.04 145.722L231.867 136.137C231.867 136.137 205.896 213.446 204.031 212.768L-144.858 86.036L-102.364 -1.11216Z" fill="white"/>
<path d="M-21.7744 71.526C-13.9424 74.3709 -5.28699 70.3281 -2.44206 62.4961C0.402882 54.6641 -3.63993 46.0087 -11.4719 43.1638C-19.3039 40.3189 -27.9593 44.3617 -30.8042 52.1937C-33.6492 60.0257 -29.6064 68.681 -21.7744 71.526Z" fill="white"/>
<path d="M12.8717 76.2987C15.9853 70.7237 13.99 63.6801 8.41495 60.5665C2.83991 57.4528 -4.20366 59.4481 -7.31731 65.0232C-10.431 70.5982 -8.43562 77.6418 -2.86058 80.7554C2.71446 83.8691 9.75804 81.8738 12.8717 76.2987Z" fill="white"/>
<path d="M42.3603 89.5647C47.5331 80.3028 44.2182 68.6011 34.9562 63.4283C25.6943 58.2555 13.9926 61.5704 8.81978 70.8324C3.64698 80.0943 6.96188 91.796 16.2238 96.9688C25.4858 102.142 37.1875 98.8267 42.3603 89.5647Z" fill="white"/>
<path d="M65.2966 109.864C70.5174 101.899 68.2927 91.2101 60.3276 85.9893C52.3625 80.7685 41.6733 82.9932 36.4525 90.9582C31.2317 98.9233 33.4564 109.613 41.4215 114.833C49.3865 120.054 60.0758 117.83 65.2966 109.864Z" fill="white"/>
<path d="M71.5026 116.488C73.8757 112.867 72.8645 108.009 69.244 105.636C65.6236 103.263 60.7648 104.274 58.3917 107.894C56.0186 111.515 57.0298 116.373 60.6503 118.747C64.2708 121.12 69.1295 120.108 71.5026 116.488Z" fill="white"/>
<path d="M95.9236 129.202C99.9589 123.046 98.2394 114.784 92.0831 110.749C85.9267 106.714 77.6648 108.433 73.6295 114.589C69.5943 120.746 71.3137 129.008 77.4701 133.043C83.6264 137.078 91.8884 135.359 95.9236 129.202Z" fill="white"/>
<path d="M53.6496 65.9048C53.6496 65.9048 22.8916 106.809 -9.99998 108.686L24.4781 135.377C24.4781 135.377 29.9169 108.91 57.8604 68.7109L53.6496 65.9048Z" fill="white"/>
<path d="M60.1397 67.207C72.9567 60.1178 81.197 55.3843 90.7826 43.002C101.626 28.9944 97.5512 13.3272 97.5512 13.3272C97.5512 13.3272 81.3628 13.3075 70.5189 27.3151C60.9407 39.6878 58.4392 48.8101 54.7685 63.0489L60.1397 67.207Z" fill="white"/>
<path d="M98.2099 23.1655C98.4696 19.87 98.2461 16.5543 97.5464 13.3234C94.2436 13.4582 90.978 14.0725 87.852 15.1471L98.2099 23.1655Z" fill="#FA476D"/>
<path d="M59.8499 41.2657C57.7997 45.3619 56.2896 49.7068 55.3574 54.1916C55.3574 54.1916 48.0984 51.1408 46.0195 54.0149L49.1711 41.9966C49.1711 41.9966 47.512 51.7096 59.8499 41.2657Z" fill="#FA476D"/>
<path d="M79.9405 56.8187C76.4971 59.8346 72.6772 62.3914 68.5764 64.4251C68.5764 64.4251 73.344 70.6844 71.0823 73.4171L81.9277 67.3549C81.9277 67.3549 72.9161 71.3761 79.9405 56.8187Z" fill="#FA476D"/>
<path d="M88.474 35.593C87.6936 36.6031 86.6312 37.3589 85.4212 37.765C84.2111 38.1711 82.9078 38.2092 81.6761 37.8745C80.4444 37.5398 79.3397 36.8472 78.5017 35.8845C77.6636 34.9218 77.1299 33.7321 76.9681 32.466C76.8064 31.2 77.0237 29.9144 77.5927 28.7718C78.1618 27.6293 79.0568 26.6812 80.1648 26.0475C81.2727 25.4138 82.5437 25.1229 83.817 25.2117C85.0903 25.3005 86.3086 25.7649 87.3179 26.5462C88.6702 27.5931 89.5516 29.134 89.7684 30.8304C89.9851 32.5267 89.5195 34.2397 88.474 35.593V35.593Z" fill="#00539F"/>
<path d="M59.4101 69.1031L53.1204 64.234L52.1377 65.5035L58.4274 70.3726L59.4101 69.1031Z" fill="#FA476D"/>
<g style="mix-blend-mode:multiply" opacity="0.1">
<path d="M57.9278 65.4946L60.1397 67.2069C72.9567 60.1178 81.197 55.3842 90.7827 43.0019C101.627 28.9943 97.5513 13.3271 97.5513 13.3271C97.5513 13.3271 88.6987 43.8958 57.9278 65.4946Z" fill="black"/>
</g>
</g>
</svg>
