<svg width="24" height="24" viewBox="0 0 24 24" fill="none" xmlns="http://www.w3.org/2000/svg">
<g id="Group 186">
<path id="Vector" d="M23.9744 10.9159C23.9647 10.8859 23.9541 10.8559 23.9462 10.8276C23.7098 9.93103 23.1234 9.38602 22.2106 9.20935C21.8578 9.14045 21.498 9.07862 21.1381 9.02385C21.0808 9.01502 21.0729 9.01148 21.0499 8.95142C20.9714 8.74914 20.8877 8.54774 20.8065 8.35252C20.7254 8.15731 20.6363 7.94531 20.5587 7.74303C20.5542 7.72207 20.5542 7.70038 20.5587 7.67943C20.661 7.52043 20.773 7.36055 20.8806 7.20596C21.0279 6.99485 21.1796 6.77667 21.3172 6.55053C21.5388 6.18288 21.6377 5.75406 21.5994 5.32631C21.5612 4.89855 21.3879 4.49413 21.1046 4.17173C20.7108 3.732 20.2937 3.31387 19.8549 2.91918C19.5314 2.62394 19.1204 2.44261 18.6846 2.40275C18.2487 2.36289 17.8118 2.46668 17.4402 2.69834C17.2135 2.83438 16.9992 2.98631 16.7876 3.13294C16.6376 3.23806 16.4833 3.34582 16.3307 3.44387C16.3103 3.45202 16.2881 3.45476 16.2663 3.45182C15.8113 3.27516 15.4135 3.11262 15.0519 2.94833C15.0219 2.92604 14.9991 2.89529 14.9867 2.85999C14.9355 2.63298 14.8985 2.39536 14.857 2.16658C14.8376 2.04645 14.8173 1.9272 14.7953 1.80795C14.6048 0.756792 13.8084 0.0527788 12.7668 0.0139124C12.2641 -0.00463747 11.7482 -0.00463747 11.2332 0.0139124C10.2472 0.0501288 9.48958 0.664926 9.25675 1.61892C9.16327 1.99698 9.10153 2.38388 9.04156 2.75841L9.02569 2.84939C9.01334 2.92978 9.00187 2.93773 8.94631 2.95716C8.53357 3.11439 8.12964 3.28046 7.74777 3.45182C7.73373 3.46006 7.71809 3.46518 7.70191 3.46684C7.68631 3.46147 7.67192 3.45306 7.65958 3.44211C7.37471 3.23364 7.07574 3.02253 6.77059 2.81583C5.85955 2.1975 4.83828 2.26728 4.0366 3.00486C3.67236 3.34052 3.32312 3.68944 2.99945 4.04189C2.26392 4.84218 2.19601 5.86419 2.81865 6.7749C2.89979 6.89503 2.98446 7.0134 3.06824 7.12823C3.19436 7.3049 3.324 7.48951 3.44041 7.66883C3.44565 7.6903 3.44565 7.71272 3.44041 7.73419C3.27285 8.17586 3.10793 8.5707 2.93684 8.94965C2.91917 8.97526 2.89474 8.99545 2.86628 9.00795C2.6114 9.06625 2.34329 9.10777 2.084 9.14752L2.0011 9.15988C1.35553 9.2597 0.890753 9.4876 0.537098 9.87803C0.23195 10.2146 0.102306 10.6174 0.00793975 10.9689L0 10.9981V12.9891L0.00793975 13.0183C0.110244 13.3928 0.246061 13.7841 0.537098 14.1092C0.889871 14.4987 1.35465 14.7275 2.00198 14.8273L2.10076 14.8423C2.35476 14.8821 2.61757 14.9227 2.86716 14.9801C2.89532 14.9927 2.91944 15.0129 2.93684 15.0384C3.11322 15.4209 3.27461 15.8193 3.4413 16.253C3.44539 16.274 3.44539 16.2956 3.4413 16.3166C3.34076 16.4712 3.23228 16.6266 3.12733 16.7768C2.98005 16.9853 2.82924 17.2017 2.69342 17.4278C2.46206 17.7992 2.35814 18.236 2.39746 18.672C2.43678 19.1079 2.61719 19.519 2.91126 19.8428C3.27276 20.2497 3.65547 20.6371 4.05777 21.0035C4.8515 21.7279 5.86573 21.7906 6.77235 21.1723C6.89318 21.0901 7.01224 21.0053 7.1313 20.9214C7.30769 20.796 7.49201 20.6661 7.67104 20.5495C7.69243 20.5428 7.7151 20.5413 7.73719 20.5451C7.94268 20.6237 8.14993 20.7094 8.35454 20.7933C8.55915 20.8772 8.75052 20.9576 8.9516 21.0353C9.01334 21.0592 9.01598 21.0663 9.02392 21.1237C9.07507 21.4646 9.13769 21.8303 9.21001 22.1969C9.39169 23.1262 9.94466 23.7118 10.8539 23.9379C10.877 23.9441 10.8997 23.9518 10.9218 23.9609L10.9677 23.9777L11.0021 23.9901H13.0041L13.0993 23.9609C13.1399 23.9477 13.1813 23.9353 13.2228 23.9238C13.4833 23.8646 13.7291 23.7532 13.9454 23.5962C14.1617 23.4392 14.344 23.2399 14.4813 23.0105C14.6164 22.7739 14.7174 22.5193 14.7812 22.2543C14.8808 21.8657 14.6048 21.4266 14.1938 21.3162C13.7828 21.2058 13.3621 21.4364 13.2069 21.8674C13.0517 22.2985 12.9741 22.3524 12.5164 22.3524H11.451C11.01 22.3524 10.8654 22.2278 10.7931 21.8012C10.7631 21.6245 10.7337 21.4505 10.7049 21.2791C10.6546 20.9912 10.6026 20.6926 10.5558 20.3958C10.4941 20.0089 10.2789 19.758 9.87675 19.6079C9.28762 19.387 8.6932 19.1424 8.11289 18.88C7.72131 18.7034 7.39147 18.7272 7.07662 18.956C6.65418 19.2625 6.22379 19.5602 5.85867 19.8119C5.56146 20.016 5.36479 19.9983 5.10638 19.7466C4.83299 19.4816 4.55253 19.1989 4.24827 18.8889C3.98369 18.6239 3.97222 18.4295 4.18565 18.1204L4.25091 18.0258C4.50314 17.661 4.76331 17.2847 5.02877 16.9226C5.33569 16.5021 5.21839 16.117 5.10286 15.8626C4.83828 15.2796 4.59486 14.6939 4.38408 14.1215C4.23151 13.7081 3.96869 13.4864 3.55595 13.4246C3.11498 13.3592 2.64844 13.2762 2.11752 13.1728C1.76475 13.1031 1.64304 12.9555 1.64128 12.5881C1.64128 12.1985 1.64128 11.8081 1.64128 11.4177C1.64128 11.0272 1.76739 10.8647 2.15456 10.794L2.24981 10.7773C2.67578 10.6995 3.11675 10.6191 3.55066 10.5555C3.96693 10.4937 4.23151 10.2738 4.38408 9.86301C4.58957 9.30917 4.82505 8.73235 5.11256 8.10077C5.28894 7.70946 5.26248 7.38086 5.0323 7.06375C4.76066 6.69187 4.49344 6.30585 4.23856 5.93221L4.1927 5.86507C3.9731 5.54884 3.99074 5.35804 4.26502 5.08068C4.5393 4.80331 4.81711 4.52506 5.09228 4.25388C5.36744 3.9827 5.56146 3.9615 5.87807 4.18057L6.08974 4.32632C6.40371 4.54273 6.72826 4.76798 7.03693 4.99676C7.38 5.25293 7.7363 5.28031 8.15786 5.08509C8.68702 4.83776 9.25411 4.6028 9.85294 4.38638C10.2807 4.2318 10.5082 3.96592 10.5708 3.54722C10.6379 3.09496 10.7225 2.61796 10.8284 2.08885C10.8945 1.7629 11.0462 1.64012 11.3884 1.63747C11.6962 1.63747 12.0057 1.63747 12.3126 1.63747H12.5587C12.9917 1.63747 13.1381 1.76378 13.2105 2.19573C13.244 2.39625 13.2792 2.59588 13.3145 2.79639C13.3604 3.06139 13.4027 3.32639 13.4512 3.59757C13.5121 3.97387 13.729 4.22738 14.1135 4.37225C14.7159 4.59927 15.3165 4.84748 15.8995 5.10894C16.2884 5.28561 16.6174 5.25734 16.9348 5.02503C17.3203 4.74501 17.7206 4.46853 18.1069 4.20177L18.1343 4.18233C18.4438 3.96857 18.6379 3.98447 18.9042 4.24505C19.2146 4.54892 19.5215 4.85455 19.7473 5.08686C20.0198 5.36423 20.0366 5.55414 19.817 5.87214L19.6759 6.07619C19.4536 6.3986 19.2226 6.73162 18.9871 7.04785C18.7516 7.36408 18.7225 7.71829 18.9068 8.12639C19.1714 8.70144 19.4113 9.28002 19.6124 9.84446C19.7667 10.2693 20.0348 10.4955 20.4546 10.5582C20.9335 10.6289 21.4318 10.7172 21.9345 10.8232C22.2273 10.8833 22.3552 11.0361 22.3605 11.3364C22.3684 11.7878 22.3684 12.2339 22.3605 12.6614C22.3552 12.9264 22.2511 13.0668 21.9892 13.1578C21.9698 13.1649 21.9504 13.1702 21.931 13.1764C21.8866 13.1884 21.843 13.2032 21.8005 13.2205C21.6167 13.3021 21.4686 13.4474 21.3833 13.6297C21.2981 13.8119 21.2815 14.0189 21.3366 14.2125C21.3995 14.4041 21.5296 14.5665 21.7027 14.6696C21.8758 14.7727 22.0803 14.8096 22.2785 14.7734C22.689 14.6914 23.0676 14.4934 23.3694 14.2028C23.7363 13.8495 23.8906 13.4078 23.9929 13.0156L24 12.9882V10.9937L23.9744 10.9159Z" fill="black"/>
<path id="Vector_2" d="M18.5451 14.2744C18.4324 14.1633 18.3266 14.0453 18.2285 13.921C17.9137 13.5161 17.757 13.0102 17.7875 12.498C17.8475 11.4336 17.7126 10.4972 17.3722 9.63336C16.4558 7.30667 13.8991 5.72551 11.4253 5.95606C10.7638 6.0179 10.3026 6.39773 10.1588 7.00811C10.0415 7.50277 10.1791 7.95238 10.5654 8.34458L10.7153 8.49651C11.1739 8.96203 11.6475 9.44256 12.1097 9.91955C12.3954 10.2137 12.4289 10.5644 12.1979 10.8126C11.7745 11.2622 11.3036 11.7233 10.7982 12.1826C10.6867 12.2746 10.5457 12.3228 10.4013 12.3184C10.2569 12.314 10.1191 12.2573 10.0133 12.1588C9.91984 12.0775 9.83694 11.9874 9.73904 11.8938C9.70376 11.8576 9.66849 11.8205 9.63233 11.7851C9.48945 11.6412 9.34746 11.4954 9.20547 11.3505C8.88533 11.0228 8.55373 10.6845 8.21154 10.3656C7.83583 10.0123 7.34989 9.93192 6.84278 10.1289C6.33567 10.3259 6.03846 10.7022 5.98907 11.1942C5.77388 13.3336 6.49706 15.1109 8.13833 16.4783C9.24155 17.4143 10.6641 17.8854 12.107 17.7927C12.9581 17.7494 13.6381 18.0303 14.2466 18.676C15.0924 19.5734 15.9681 20.47 16.8157 21.3374C17.1331 21.6625 17.4504 21.9879 17.7673 22.3135C17.8543 22.4093 17.9599 22.4864 18.0775 22.5403C18.1951 22.5942 18.3224 22.6237 18.4516 22.6271C18.6548 22.6275 18.8499 22.5479 18.9949 22.4054C19.0695 22.3347 19.1293 22.2499 19.171 22.1559C19.2126 22.0619 19.2352 21.9605 19.2374 21.8577C19.2357 21.7302 19.2088 21.6043 19.1582 21.4873C19.1077 21.3702 19.0345 21.2644 18.9429 21.1758L18.1147 20.3207C17.1799 19.3561 16.2124 18.358 15.2538 17.3837C15.0051 17.1326 14.7291 16.9104 14.4309 16.7212C13.5993 16.1912 12.6671 16.1399 11.9474 16.1576C10.8466 16.1852 9.77791 15.785 8.96523 15.0409C8.15254 14.2967 7.65899 13.2664 7.58801 12.1659C7.58801 12.1208 7.58801 12.0775 7.58272 12.0298L7.66121 12.1111C8.01398 12.4759 8.38175 12.8531 8.74863 13.217C9.71875 14.1807 11.0866 14.1949 12.0735 13.2506C12.443 12.8973 12.8205 12.528 13.228 12.1217C14.2298 11.1209 14.2404 9.76409 13.2527 8.74384C12.9728 8.45529 12.6912 8.16792 12.4078 7.88172L12.1141 7.58404C13.6284 7.65382 15.1188 8.6299 15.7556 10.0088C16.0728 10.6605 16.2136 11.3842 16.1639 12.1076C16.0616 13.4272 16.4805 14.5349 17.4427 15.496C18.2611 16.3122 19.0778 17.1602 19.8671 17.9799C20.2287 18.3544 20.5903 18.7287 20.9519 19.1026L20.966 19.1168C21.0327 19.1896 21.1059 19.2561 21.1847 19.3155C21.2933 19.3939 21.4196 19.4441 21.5523 19.4615C21.685 19.4789 21.8199 19.4631 21.945 19.4153C22.0704 19.3663 22.1817 19.2867 22.2689 19.1839C22.356 19.081 22.4162 18.9581 22.4441 18.8261C22.5085 18.5293 22.4194 18.2617 22.1725 18.0082C20.9237 16.7282 19.6916 15.4571 18.5451 14.2744Z" fill="black"/>
</g>
</svg>
