<?xml version="1.0" encoding="utf-8"?>
<!-- Generator: Adobe Illustrator 26.2.1, SVG Export Plug-In . SVG Version: 6.00 Build 0)  -->
<svg version="1.1" id="Layer_1" xmlns="http://www.w3.org/2000/svg" xmlns:xlink="http://www.w3.org/1999/xlink" x="0px" y="0px"
	 viewBox="0 0 252 252" style="enable-background:new 0 0 252 252;" xml:space="preserve">
<style type="text/css">
	.st0{fill:#6B71FB;}
	.st1{display:none;fill:none;}
</style>
<g>
	<g>
		<path class="st0" d="M62.72,221.01c3.68-22.93,23.32-40.91,45.01-47.6c29.33-9.1,66.92-1.47,83.32,26.34
			c3.74,6.49,6.56,13.81,6.56,21.27c-16.87-21.02-40.06-29.93-66.46-29.08C104.77,192.13,81.67,202.71,62.72,221.01L62.72,221.01z"
			/>
	</g>
	<path class="st0" d="M126.06,153.53c-1.46-9.06-6.18-22.84-11.99-36.73c-5.81-13.89-9.71-20.45-11.12-23.49
		c-1.41-3.04-14.54-24.79-18.5-31.79c-3.96-7-10.69-14.49-15.25-18.39c-4.56-3.91-18.17-13.94-32.17-10.15
		c-14,3.8-18.14,18.22-18.99,23.38c-1.74,10.58,1.11,21.48,2.6,26.75c2.77,9.77,11.61,25.39,13.4,28.27
		c1.79,2.88,16.87,24.69,19.26,28.65c2.39,3.96,12.59,18.72,16.66,24.41c4.07,5.7,8.57,11.83,10.15,15.14
		c1.57,3.31,4.77,8.25,4.77,8.25l27.62-12.04l-14.71,6.42c0,0-3.79-14.77-12.04-27.36c-8.25-12.59-26.04-42.53-31.47-51
		c-5.43-8.46-16.71-34.94-10.85-39.93c5.86-4.99,20.07,5.86,28.86,17.58c5.3,7.06,13.87,22.57,20.97,38.18
		c4.69,10.3,8.81,20.63,10.65,28.62c0.33,1.41,0.93,2.86,1.36,4.49c2.39,9.01,7.22,23,7.22,23l16.82-4.72
		C129.32,171.05,127.53,162.59,126.06,153.53z"/>
	<path class="st0" d="M229.85,149.95c4.56-10.63,5.32-25.5,4.23-41.12c-1.09-15.62-7.92-17.8-14.11-19.97
		c-6.18-2.17-20.4-7.6-32.23-5.64c-2.77,0.46-5.11,1.48-7.17,2.9c-6.42,5.39-5.49,17.59-5.92,21.99c-0.43,4.41,0.07,24.52,3.26,35.3
		c3.18,10.78,8.17,16.85,13.67,19.97c5.49,3.1,10.82,3.71,10.85,3.72c1.32-0.02,3.28-0.1,6.26-0.32
		C217.69,166.12,225.29,160.58,229.85,149.95z"/>
	<path class="st0" d="M190.27,165.68c-2.29-1.29-4.35-3-6.23-5.06c-4.05,6.94-9.48,15.94-14.8,23.8l11.24,5.24
		c0,0,4.01-3.69,9.93-9.33c3.98-3.8,6.85-8.57,8.3-11.29C196.47,168.47,193.42,167.46,190.27,165.68z"/>
	<path class="st0" d="M172.01,107.84c0.07-0.73,0.1-1.69,0.14-2.8c0.1-2.95,0.23-6.88,1.11-10.74c-2.59,4.15-4.72,8.92-7,13.43
		c-5.32,10.53-7.38,16.28-13.56,37.87c-6.18,21.59-6.4,28.1-6.4,28.1l10.12,4.72c0.68-1.97,1.36-3.96,1.64-4.82
		c2.24-6.76,8-23.39,15.37-38.95C171.88,123.88,171.67,111.26,172.01,107.84z"/>
</g>
<rect class="st1" width="252" height="252"/>
</svg>
