<?xml version="1.0" encoding="utf-8"?>
<!-- Generator: Adobe Illustrator 16.0.0, SVG Export Plug-In . SVG Version: 6.00 Build 0)  -->
<!DOCTYPE svg PUBLIC "-//W3C//DTD SVG 1.1//EN" "http://www.w3.org/Graphics/SVG/1.1/DTD/svg11.dtd">
<svg version="1.1" id="Layer_1" xmlns="http://www.w3.org/2000/svg" xmlns:xlink="http://www.w3.org/1999/xlink" x="0px" y="0px"
	 width="30px" height="30px" viewBox="0 0 30 30" enable-background="new 0 0 30 30" xml:space="preserve">
<g>
	<path fill="#404040" d="M13.12,12.258c0.63,0.525,1.887,0.479,2.522,0C17.589,8.29,11.175,7.982,13.12,12.258z"/>
	<path fill="#404040" d="M30,0H0v30h30V0z M19.494,9.323c-0.369,0.071-0.689,0.197-1.062,0.269c0.656,1.852-0.326,4.262-1.992,5.067
		c-0.887,0.427-2.348,0.259-2.391,1.335c-0.062,1.538,3.979,1.684,4.781,2.665c0.885,1.073,0.744,3.405-0.266,4.532
		c-1.443,1.619-6.37,1.734-7.969,0c-1.317-1.422-0.86-4.916,1.592-5.198c-1.042-0.369-1.106-2.958-0.132-3.467
		c-3.778-2.45-2.128-8.559,3.058-7.866c1.174,0.154,2.803,0.996,4.382,0L19.494,9.323L19.494,9.323z"/>
	<path fill="#404040" d="M12.586,21.326c0.445,1.338,4.291,1.252,4.118-0.666c-0.113-1.285-1.67-1.396-2.922-1.066
		C12.679,19.885,12.213,20.201,12.586,21.326z"/>
</g>
</svg>
