<?xml version="1.0" encoding="utf-8"?>
<!-- Generator: Adobe Illustrator 16.0.0, SVG Export Plug-In . SVG Version: 6.00 Build 0)  -->
<!DOCTYPE svg PUBLIC "-//W3C//DTD SVG 1.1//EN" "http://www.w3.org/Graphics/SVG/1.1/DTD/svg11.dtd">
<svg version="1.1" id="Layer_1" xmlns="http://www.w3.org/2000/svg" xmlns:xlink="http://www.w3.org/1999/xlink" x="0px" y="0px"
	 width="30px" height="30px" viewBox="0 0 30 30" enable-background="new 0 0 30 30" xml:space="preserve">
<g>
	<path fill="#404040" d="M18.51,14.605l-5.718-3.132c-0.208-0.116-0.485-0.132-0.716-0.043c-0.23,0.088-0.378,0.27-0.378,0.461
		v6.268c0,0.192,0.147,0.37,0.378,0.461c0.099,0.037,0.204,0.057,0.312,0.057c0.14,0,0.283-0.034,0.403-0.1l5.718-3.134
		c0.179-0.097,0.281-0.252,0.281-0.419C18.791,14.859,18.688,14.704,18.51,14.605z"/>
	<path fill="#404040" d="M0,0v30h30V0H0z M23.654,11.96v6.128c0,1.475-1.262,2.676-2.812,2.676H9.262
		c-1.547,0-2.822-1.201-2.822-2.676V11.96c0-1.463,1.274-2.674,2.822-2.674h11.582C22.393,9.286,23.654,10.497,23.654,11.96z"/>
</g>
</svg>
