<?xml version="1.0" encoding="utf-8"?>
<!-- Generator: Adobe Illustrator 22.1.0, SVG Export Plug-In . SVG Version: 6.00 Build 0)  -->
<svg version="1.2" baseProfile="tiny" id="Layer_1" xmlns="http://www.w3.org/2000/svg" xmlns:xlink="http://www.w3.org/1999/xlink"
	 x="0px" y="0px" viewBox="0 0 200 200" xml:space="preserve">
<g>
	<path fill="#FFFFFF" d="M191.9,94.9l-83.8-83.8L100,3l0,0L36.9,66.1l0,0L8.1,94.9c-3,3-3,7.9,0,10.9l57.6,57.6l34.3,34.3l63.1-63.1
		l1-1l27.9-27.9C194.9,102.8,194.9,97.9,191.9,94.9z M100,129.2l-28.8-28.8L100,71.6l28.8,28.8L100,129.2z"/>
	<path fill="#FFFFFF" d="M100,71.6C81.1,52.7,81.1,22.2,99.8,3.2l-63,63l34.3,34.3L100,71.6z"/>
	<path fill="#FFFFFF" d="M128.9,100.3L100,129.2c18.9,18.9,18.9,49.6,0,68.6c0,0,0,0,0,0l0,0l63.2-63.2L128.9,100.3z"/>
</g>
</svg>
