<svg version="1.1" xmlns="http://www.w3.org/2000/svg" xmlns:xlink="http://www.w3.org/1999/xlink" x="0" y="0" viewBox="0 0 355.4 411.3" xml:space="preserve" width="355.4" height="411.3" preserveAspectRatio="xMidYMid meet">
	<path fill="#ffffff" d="M355.4,178.8c0,58.6-28.1,110.5-71.4,143.1h0.3l-106.6,89.4L71.1,321.9h0.3C28.1,289.3,0,237.4,0,178.9
	C0,80.1,79.5,0,177.7,0S355.4,80,355.4,178.8z M178.2,19.4C91.7,19.4,21.6,89.5,21.6,176s70.1,156.6,156.6,156.6
	S334.8,262.5,334.8,176S264.7,19.4,178.2,19.4z"/>
	<path fill="#ffffff" d="M196.1,247.1h31.3v-55.9h33.2l-82.9-82.5l-82.9,82.5h35.1v55.9h33.2v-48.3h33.2v48.3H196.1z"/>
</svg>