<svg xmlns="http://www.w3.org/2000/svg" xmlns:xlink="http://www.w3.org/1999/xlink" viewBox="0 0 245.771 60"><defs><linearGradient id="a" x1="14.841" y1="22.544" x2="27.473" y2="44.649" gradientUnits="userSpaceOnUse"><stop offset="0" stop-color="#909cf7"/><stop offset="1" stop-color="#4b38d8"/></linearGradient><linearGradient id="b" x1="7.984" y1="-1.358" x2="21.001" y2="21.422" xlink:href="#a"/></defs><path d="M61.426 46.517V15.968h12.961c1.833 0 3.477.43 4.932 1.288a9.576 9.576 0 013.47 3.513c.857 1.483 1.287 3.157 1.287 5.019 0 1.89-.43 3.593-1.288 5.105a9.812 9.812 0 01-3.47 3.6c-1.454.889-3.098 1.332-4.93 1.332h-6.416v10.692h-6.546zm6.459-16.584h5.76c.699 0 1.324-.181 1.877-.545a4.037 4.037 0 001.33-1.462c.335-.611.503-1.31.503-2.095s-.168-1.469-.502-2.05a3.962 3.962 0 00-1.33-1.398 3.443 3.443 0 00-1.877-.523h-5.761v8.073zM88.22 46.517V14.223h6.198v32.294H88.22zm19.813.436c-1.92 0-3.651-.524-5.193-1.57-1.543-1.048-2.765-2.473-3.666-4.278-.902-1.803-1.353-3.869-1.353-6.197 0-2.327.459-4.392 1.375-6.197.917-1.803 2.16-3.214 3.731-4.233 1.571-1.018 3.36-1.527 5.368-1.527 1.135 0 2.174.167 3.12.502a8.26 8.26 0 012.488 1.374 8.82 8.82 0 011.811 2.008 7.607 7.607 0 011.047 2.444l-1.309-.219v-5.63h6.154v23.087h-6.241v-5.543l1.396-.13a7.441 7.441 0 01-1.134 2.313 8.787 8.787 0 01-1.942 1.942 9.776 9.776 0 01-2.597 1.352 9.234 9.234 0 01-3.055.502zm1.702-5.368c1.164 0 2.182-.276 3.055-.829.873-.552 1.55-1.33 2.03-2.334.48-1.004.72-2.175.72-3.514 0-1.309-.24-2.458-.72-3.447-.48-.99-1.157-1.768-2.03-2.335-.873-.568-1.891-.851-3.055-.851-1.135 0-2.131.283-2.99.851-.858.567-1.534 1.346-2.029 2.335-.495.99-.741 2.138-.741 3.447 0 1.339.246 2.51.741 3.514.495 1.003 1.171 1.782 2.03 2.334.858.553 1.854.83 2.989.83zm24.7 5.368c-1.687 0-3.135-.37-4.342-1.113-1.207-.741-2.138-1.803-2.793-3.185-.654-1.382-.981-3.048-.981-4.997V23.43h6.196v13.223c0 1.047.175 1.957.524 2.728.35.77.843 1.36 1.484 1.767.64.408 1.425.611 2.356.611.67 0 1.288-.109 1.855-.327a4.308 4.308 0 002.466-2.379 4.563 4.563 0 00.349-1.789V23.431h6.197v23.086h-5.891l-.219-4.757 1.135-.524a7.765 7.765 0 01-1.746 2.924 8.713 8.713 0 01-2.924 2.051 9.08 9.08 0 01-3.666.742zm26.446 0c-2.153 0-4.066-.356-5.738-1.069-1.674-.713-3.019-1.695-4.037-2.946l3.884-3.316c.873.96 1.861 1.651 2.968 2.072a9.236 9.236 0 003.316.633c.437 0 .836-.05 1.2-.152s.677-.247.939-.437a1.81 1.81 0 00.589-.698c.13-.276.196-.574.196-.895 0-.64-.253-1.147-.785-1.483-.287-.182-.742-.372-1.353-.59s-1.397-.458-2.357-.72c-1.484-.378-2.743-.821-3.775-1.331-1.033-.508-1.855-1.083-2.465-1.724a6.829 6.829 0 01-1.2-1.985c-.277-.713-.415-1.506-.415-2.379 0-1.047.232-2 .698-2.858.465-.858 1.113-1.593 1.942-2.204s1.782-1.084 2.859-1.418a11.406 11.406 0 013.404-.502c1.192 0 2.356.146 3.49.436 1.135.291 2.19.706 3.165 1.244a11.344 11.344 0 012.553 1.898l-3.317 3.666a11.158 11.158 0 00-1.767-1.353 9.59 9.59 0 00-2.03-.96c-.698-.232-1.324-.349-1.876-.349-.495 0-.939.044-1.331.13a2.65 2.65 0 00-.982.416 1.86 1.86 0 00-.59.676 1.922 1.922 0 00-.196.873c0 .32.08.626.24.916.16.292.385.539.677.742.32.175.792.378 1.418.611.625.233 1.476.495 2.553.785 1.396.38 2.582.801 3.557 1.266.974.466 1.752 1.004 2.335 1.615.494.524.857 1.12 1.09 1.79.233.669.35 1.41.35 2.225 0 1.426-.4 2.691-1.2 3.797-.801 1.106-1.899 1.979-3.295 2.618s-2.968.96-4.714.96zm16.322-28.235c-1.194 0-2.124-.298-2.793-.895-.67-.596-1.004-1.433-1.004-2.51 0-.988.342-1.795 1.025-2.421.684-.626 1.608-.939 2.772-.939 1.192 0 2.123.299 2.792.895.67.597 1.004 1.418 1.004 2.465 0 .99-.342 1.805-1.025 2.444-.684.64-1.608.96-2.771.96zm-3.055 27.799V23.43h6.197v23.086h-6.197zm25.268.436c-1.02 0-2.008-.146-2.968-.436a10.23 10.23 0 01-2.619-1.2 8.175 8.175 0 01-1.963-1.746c-.524-.655-.859-1.331-1.004-2.03l1.396-.523-.305 5.411h-5.848V14.223h6.24v14.62l-1.221-.48c.174-.7.508-1.376 1.004-2.03a7.72 7.72 0 011.876-1.746 9.853 9.853 0 012.488-1.2 9.06 9.06 0 012.793-.436c2.007 0 3.803.516 5.39 1.549 1.585 1.033 2.829 2.451 3.73 4.255.902 1.804 1.354 3.87 1.354 6.197 0 2.328-.445 4.393-1.331 6.197-.888 1.804-2.117 3.223-3.688 4.255-1.571 1.033-3.346 1.55-5.324 1.55zm-1.484-5.28c1.163 0 2.174-.284 3.033-.851.858-.568 1.534-1.353 2.03-2.357.494-1.004.74-2.174.74-3.513 0-1.31-.239-2.473-.72-3.491-.479-1.018-1.155-1.804-2.028-2.357-.873-.552-1.892-.83-3.055-.83-1.164 0-2.182.278-3.055.83-.873.553-1.55 1.339-2.03 2.357-.48 1.018-.72 2.182-.72 3.49 0 1.34.24 2.51.72 3.514s1.157 1.79 2.03 2.357c.873.567 1.89.85 3.055.85zm15.666 4.844V14.223h6.198v32.294h-6.198zm22.126.436c-2.503 0-4.692-.509-6.568-1.527-1.877-1.018-3.332-2.415-4.364-4.19-1.033-1.774-1.55-3.81-1.55-6.11 0-1.803.291-3.447.873-4.93.582-1.485 1.397-2.772 2.444-3.863a10.883 10.883 0 013.732-2.531c1.44-.596 3.003-.895 4.69-.895 1.572 0 3.026.291 4.365.873a10.457 10.457 0 013.47 2.422c.974 1.033 1.723 2.255 2.247 3.666.524 1.411.756 2.931.698 4.56l-.043 1.92H227.17l-1.003-3.796h14.444l-.698.785v-.96a4.07 4.07 0 00-.763-2.116 4.87 4.87 0 00-1.724-1.484c-.699-.364-1.484-.546-2.357-.546-1.28 0-2.364.248-3.251.742-.888.495-1.564 1.222-2.03 2.182-.465.96-.698 2.124-.698 3.492 0 1.396.298 2.604.895 3.622.596 1.019 1.44 1.81 2.531 2.378 1.091.568 2.379.851 3.862.851 1.018 0 1.95-.16 2.793-.48.844-.32 1.746-.873 2.706-1.658l2.968 4.146a12.603 12.603 0 01-2.793 1.898c-1.02.51-2.067.895-3.142 1.157a13.462 13.462 0 01-3.186.392z" fill="#1f2961"/><path d="M45.246 22.603C44.155 33.059 35.013 40.83 24.5 40.83h-4.047v9.57a9.6 9.6 0 01-9.6 9.6H3.36A3.36 3.36 0 010 56.64V36.938l5.038-7.07a3.362 3.362 0 014.037-1.149l2.866 1.2a3.353 3.353 0 004.025-1.145l6.717-9.417a3.34 3.34 0 014.014-1.14l5.52 2.32a3.347 3.347 0 004.022-1.142l6.46-9.063c2.025 3.56 3.014 7.789 2.547 12.27z" fill="url(#a)"/><path d="M3.292 28.873c.823-1.155 2.021-2.044 3.414-2.312a5.41 5.41 0 013.147.316l2.865 1.2a1.357 1.357 0 001.62-.464l6.594-9.245c.823-1.154 2.02-2.041 3.412-2.309a5.368 5.368 0 013.128.314l5.52 2.32a1.35 1.35 0 001.619-.46l6.919-9.707C37.827 3.364 31.78 0 24.945 0H3.36A3.36 3.36 0 000 3.36v30.132l3.292-4.62z" fill="url(#b)"/></svg>