<svg xmlns="http://www.w3.org/2000/svg" xmlns:xlink="http://www.w3.org/1999/xlink" width="20px" version="1.1" x="0px" y="0px" viewBox="0 0 100 125" height="20px" enable-background="new 0 0 100 100" xml:space="preserve"><g><path fill-rule="evenodd" clip-rule="evenodd" fill="#000000" d="M41.598,83.845c-0.105,0.577-0.165,1.178-0.165,1.787   c0,5.068,3.819,9.18,8.537,9.18c4.715,0,8.537-4.111,8.537-9.18c0-0.609-0.054-1.21-0.162-1.787H41.598z"/><path fill-rule="evenodd" clip-rule="evenodd" fill="#000000" d="M42.295,14.013c-7.012,1.886-11.54,5.241-14.54,11.343   c-4.85,9.874-1.649,26.617-6.108,36.925c-2.973,6.88-7.726,10.321-15.119,13.381c0,1.547,0,3.099,0,4.651   c28.106,0.006,57.873-0.006,86.943,0c0-1.747,0-3.489,0-5.236c-2.462-1.019-4.525-1.49-6.399-2.613   C75.4,65.449,76.283,49.943,75.154,35.241c-0.855-11.083-7.855-18.089-16.575-21.228C60.594,1.91,40.472,2.587,42.295,14.013z"/></g><text x="0" y="115" fill="#000000" font-size="5px" font-weight="bold" font-family="'Helvetica Neue', Helvetica, Arial-Unicode, Arial, Sans-serif">Created by Blaise Sewell</text><text x="0" y="120" fill="#000000" font-size="5px" font-weight="bold" font-family="'Helvetica Neue', Helvetica, Arial-Unicode, Arial, Sans-serif">from the Noun Project</text></svg>