<svg xmlns="http://www.w3.org/2000/svg" viewBox="0 0 97 97"><title>profile image</title><g id="Layer_2" data-name="Layer 2"><g id="Layer_1-2" data-name="Layer 1"><path d="M55.25,50.14a12.69,12.69,0,1,0-13.48,0A26.14,26.14,0,0,0,28.32,60.47a31.84,31.84,0,0,0-3.12,5.75A2.92,2.92,0,0,0,25.46,69a2.89,2.89,0,0,0,2.41,1.29H69.13A2.89,2.89,0,0,0,71.54,69a2.92,2.92,0,0,0,.26-2.75C68.45,58.2,62.46,52.4,55.25,50.14Zm-6.75,2C57.19,52.1,65,57.9,69,67.26H28a29,29,0,0,1,2.78-5.09C35.18,55.77,41.64,52.1,48.5,52.1Zm0-22.36a9.68,9.68,0,1,1-9.68,9.68A9.69,9.69,0,0,1,48.5,29.74Z"/><path d="M48.5,0A48.5,48.5,0,1,0,97,48.5,48.56,48.56,0,0,0,48.5,0Zm0,94A45.5,45.5,0,1,1,94,48.5,45.55,45.55,0,0,1,48.5,94Z"/></g></g></svg>