<svg xmlns="http://www.w3.org/2000/svg" width="14.91" height="10.97" viewBox="0 0 18.91 14.97">
  <defs>
    <style>
      .cls-1 {
        fill: #3cce88;
        fill-rule: evenodd;
      }
    </style>
  </defs>
  <path id="fleche-formulaire.svg" class="cls-1" d="M3156.15,1130.96h16.62a1.115,1.115,0,0,1,.98.58,1.04,1.04,0,0,1-.05,1.18l-8.29,12.71a1.032,1.032,0,0,1-.96.52,1.122,1.122,0,0,1-.97-0.52l-8.26-12.71a1.219,1.219,0,0,1-.22-0.61,0.864,0.864,0,0,1,.17-0.58A1.114,1.114,0,0,1,3156.15,1130.96Z" transform="translate(-3155 -1130.97)"/>
</svg>
