<svg xmlns="http://www.w3.org/2000/svg" width="611" height="439" viewBox="-279 252 611 439" xmlns:v="https://vecta.io/nano"><g fill="#32373c"><path d="M-140.9 491H-82l-29.4-80.5zm421-236h-507.3c-27.4 0-49.7 22.4-49.7 49.7v333.5c0 27.4 22.4 49.7 49.7 49.7h507.3c27.4 0 49.7-22.4 49.7-49.7V304.8c0-27.4-22.3-49.8-49.7-49.8zM-50.4 577.5l-17.8-48.6h-86.5l-17.7 48.6h-43.7l81.8-213h48.1l81 213h-45.2zm256.7 0h-42.7L115 425.8 66.3 577.5H23.1l-59.2-213H7.8L46.9 511l47.2-146.5H137l47.6 147.1L223 364.5h42.3l-59 213z"/><path d="M-237 325h516v282h-516z"/></g><path d="M15.9 349.4v43.3h-77.1v200.9h-48.5V392.7h-77.1v-43.3H15.9zm122.7 249.4c-40.7 0-75.3-11.4-103.9-34.2l25.1-35.9c21.6 17.7 47.9 26.5 78.8 26.5 16.3 0 29.2-2.8 38.7-8.5s14.3-13.4 14.3-23.2c0-9.3-4.4-16.5-13.3-21.6-8.8-5.1-22.9-8.8-42.2-11.2-33.3-4-57.5-11.8-72.7-23.5s-22.8-28.5-22.8-50.4c0-21.4 9-38.8 27-52.3s41.4-20.2 70.3-20.2c34.4 0 64.9 9.8 91.4 29.3l-23.7 34.2c-20-14.6-42.1-22-66.3-22-15.1 0-27.4 2.9-37 8.5-9.5 5.7-14.3 13-14.3 21.8s4.2 15.8 12.6 20.9 22.1 8.8 41.2 11.2c33.9 4.7 58.8 13 74.5 24.9 15.7 12 23.5 28.5 23.5 49.7 0 22.8-9.2 41.2-27.7 55.1s-43 20.9-73.5 20.9z" fill="#fff"/></svg>