<svg width="22" height="21" viewBox="0 0 22 21" fill="none" xmlns="http://www.w3.org/2000/svg">
<path d="M10.9998 21C6.95337 21.0024 3.30431 18.5659 1.75548 14.8276C0.20665 11.0893 1.06336 6.78606 3.92581 3.92598C6.45311 1.39868 10.1367 0.411662 13.5891 1.33672C17.0414 2.26177 19.738 4.95836 20.6631 8.41072C21.5881 11.8631 20.6011 15.5467 18.0738 18.074C16.2013 19.955 13.654 21.0086 10.9998 21ZM2.99981 11.172C3.04713 15.5732 6.64092 19.1095 11.0424 19.086C15.4438 19.0622 18.9994 15.4875 18.9994 11.086C18.9994 6.68449 15.4438 3.10975 11.0424 3.08598C6.64092 3.06244 3.04713 6.59874 2.99981 11V11.172ZM8.40881 15L6.99981 13.59L9.58981 11L6.99981 8.40998L8.40981 6.99998L10.9998 9.58998L13.5898 6.99998L14.9998 8.40998L12.4098 11L14.9998 13.59L13.5908 15L10.9998 12.41L8.40981 15H8.40881Z" fill="#F9F9F9"/>
</svg>
