<svg width="10" height="10" viewBox="0 0 10 10" fill="none" xmlns="http://www.w3.org/2000/svg">
<path d="M4.9857 10H4.5357C3.21101 9.88258 1.99003 9.23467 1.1502 8.20352C0.30224 7.17391 -0.103665 5.8505 0.0212014 4.52252C0.217847 2.11454 2.12665 0.201726 4.5342 8.44465e-06C4.73117 -0.00101934 4.91685 0.091822 5.0342 0.250017C5.14391 0.424591 5.12344 0.650952 4.9842 0.803017C4.50586 1.45279 4.30777 2.26712 4.4342 3.06402C4.53928 3.85844 4.97699 4.5708 5.6382 5.02352C6.6886 5.82776 8.1478 5.82776 9.1982 5.02352C9.29381 4.95724 9.40689 4.92071 9.5232 4.91852C9.60209 4.91865 9.67985 4.93732 9.7502 4.97302C9.90866 5.09126 10.0015 5.2778 10.0002 5.47552C9.90067 6.81619 9.24649 8.0546 8.1952 8.89252C7.27227 9.59715 6.14678 9.98552 4.9857 10ZM3.5817 1.15552C2.11102 1.67583 1.08762 3.01713 0.974201 4.57302C0.873988 5.63369 1.19855 6.69082 1.8767 7.51252C2.54987 8.33457 3.52584 8.85076 4.5842 8.94452C4.7152 8.95702 4.8482 8.96352 4.9792 8.96352C5.90134 8.97086 6.79468 8.64263 7.4927 8.04002C8.03471 7.58403 8.44935 6.99541 8.6962 6.33152C8.26136 6.48855 7.80252 6.56874 7.3402 6.56852C6.47489 6.56833 5.63227 6.29172 4.9352 5.77902C4.09309 5.13879 3.52093 4.20671 3.3312 3.16602C3.28606 2.48602 3.37108 1.80365 3.5817 1.15552Z" fill="white"/>
</svg>
