<svg width="10" height="10" viewBox="0 0 10 10" fill="none" xmlns="http://www.w3.org/2000/svg">
<path d="M5.49902 10H4.49902V8.5H5.49902V10ZM8.18102 8.889L7.12052 7.8285L7.82752 7.1215L8.88852 8.1825L8.18202 8.889H8.18102ZM1.81702 8.889L1.10952 8.182L2.16952 7.121L2.87702 7.828L1.81702 8.8885V8.889ZM4.99902 7.5035C3.61651 7.50295 2.49616 6.38185 2.49652 4.99933C2.49689 3.61682 3.61784 2.49632 5.00036 2.4965C6.38287 2.49668 7.50352 3.61749 7.50352 5C7.50214 6.38246 6.38149 7.50267 4.99902 7.5035ZM4.99902 3.4965C4.16879 3.49705 3.49616 4.17044 3.49652 5.00067C3.49689 5.8309 4.17013 6.50368 5.00036 6.5035C5.83059 6.50332 6.50352 5.83023 6.50352 5C6.5027 4.16959 5.82943 3.49678 4.99902 3.4965ZM9.99902 5.5H8.49902V4.5H9.99902V5.5ZM1.49902 5.5H-0.000976562V4.5H1.49902V5.5ZM7.82702 2.879L7.12052 2.1715L8.18102 1.1105L8.88852 1.818L7.82752 2.8785L7.82702 2.879ZM2.17052 2.879L1.11052 1.8185L1.81802 1.1115L2.87802 2.1725L2.17102 2.8785L2.17052 2.879ZM5.49902 1.5H4.49902V0H5.49902V1.5Z" fill="#4E4B66"/>
</svg>
