<?xml version="1.0" encoding="utf-8"?>
<!-- Generator: Adobe Illustrator 24.1.3, SVG Export Plug-In . SVG Version: 6.00 Build 0)  -->
<svg version="1.1" id="Calque_1" xmlns="http://www.w3.org/2000/svg" xmlns:xlink="http://www.w3.org/1999/xlink" x="0px" y="0px"
	 viewBox="0 0 55.9 61.8" style="enable-background:new 0 0 55.9 61.8;" xml:space="preserve">
<style type="text/css">
	.st0{fill:#FEC739;}
</style>
<desc>Created with Sketch.</desc>
<path class="st0" d="M34.7,46.3l-4.4-7.7l0,0l-3.9-6.8l0,0l0,0l-0.1,0c-4.2,0.4-8-2.6-8.5-6.9c-0.3-3.2,1.4-6.3,4.3-7.7
	c3.6-1.8,8-0.5,10,2.9c1.6,2.7,1.5,6.1-0.5,8.6l2.7,4.7c0.7,1.2,2.2,1.6,3.4,0.9c0,0,0,0,0,0L48.6,28c1.9-1.1,1.9-3.9,0-5L10,0.6
	C8.1-0.5,5.7,0.8,5.7,3.1L5.5,47.7c0,2.2,2.4,3.6,4.3,2.5l13.3-7.6c1-0.6,2.4-0.2,3,0.8l3.4,5.9c-2,2.6-2.1,6.2-0.3,9
	c2.1,3.2,6.4,4.3,9.8,2.6c3.8-1.9,5.4-6.5,3.5-10.3C41.1,47.6,38,45.9,34.7,46.3L34.7,46.3z M36.8,57c-1.7,0.6-3.6-0.3-4.3-2
	c-0.6-1.7,0.3-3.6,2-4.3c1.3-0.5,2.8-0.1,3.7,1c1.2,1.4,1,3.5-0.4,4.7C37.4,56.7,37.1,56.9,36.8,57z"/>
</svg>
