<svg xmlns="http://www.w3.org/2000/svg" viewBox="0 0 800 800" width="800" height="800" preserveAspectRatio="xMidYMid meet" style="width: 100%; height: 100%; transform: translate3d(0px, 0px, 0px);"><defs><clipPath id="__lottie_element_7"><rect width="800" height="800" x="0" y="0"></rect></clipPath><mask id="__lottie_element_9" mask-type="alpha"><g transform="matrix(3.328399896621704,0.8492404222488403,-0.882073700428009,3.1346936225891113,182.62307739257812,55.01816177368164)" opacity="1" style="display: block;"><g opacity="1" transform="matrix(1,0,0,1,86.18299865722656,123.5260009765625)"><path fill="rgb(71,71,107)" fill-opacity="1" d=" M52.599998474121094,-30.966999053955078 C52.599998474121094,-30.966999053955078 -52.60100173950195,-30.966999053955078 -52.60100173950195,-30.966999053955078 C-55.178001403808594,-30.966999053955078 -57.266998291015625,-28.87700080871582 -57.266998291015625,-26.298999786376953 C-57.266998291015625,5.328000068664551 -31.628000259399414,30.966999053955078 -0.0010000000474974513,30.966999053955078 C31.62700080871582,30.966999053955078 57.266998291015625,5.328000068664551 57.266998291015625,-26.298999786376953 C57.266998291015625,-28.87700080871582 55.176998138427734,-30.966999053955078 52.599998474121094,-30.966999053955078z"></path></g></g></mask><clipPath id="__lottie_element_25"><path d="M0,0 L1000,0 L1000,1000 L0,1000z"></path></clipPath><mask id="__lottie_element_26"><path fill="#ffffff" clip-rule="nonzero" d="M0,0  h800 v800 h-800 v-800  M492.0400085449219,322.885986328125 C492.0400085449219,322.885986328125 291.0450134277344,322.885986328125 291.0450134277344,322.885986328125 C291.0450134277344,322.885986328125 291.0450134277344,495.0249938964844 291.0450134277344,495.0249938964844 C291.0450134277344,495.0249938964844 492.0400085449219,495.0249938964844 492.0400085449219,495.0249938964844 C492.0400085449219,495.0249938964844 492.0400085449219,322.885986328125 492.0400085449219,322.885986328125" fill-opacity="1"></path></mask><mask id="__lottie_element_31" mask-type="alpha"><g transform="matrix(3.074579954147339,0,0,3.074579954147339,430.3038330078125,229.11993408203125)" opacity="1" style="display: block;"><g opacity="1" transform="matrix(1,0,0,1,54.09700012207031,62.5890007019043)"><path fill="rgb(239,182,80)" fill-opacity="1" d=" M21.368000030517578,0 C21.368000030517578,-11.802000045776367 11.800999641418457,-21.368999481201172 -0.0010000000474974513,-21.368999481201172 C-11.802000045776367,-21.368999481201172 -21.368000030517578,-11.802000045776367 -21.368000030517578,0 C-21.368000030517578,11.802000045776367 -11.802000045776367,21.368999481201172 -0.0010000000474974513,21.368999481201172 C11.800999641418457,21.368999481201172 21.368000030517578,11.802000045776367 21.368000030517578,0z"></path></g></g></mask><mask id="__lottie_element_37" mask-type="alpha"><g transform="matrix(3.074579954147339,0,0,3.074579954147339,234.3038330078125,229.11993408203125)" opacity="1" style="display: block;"><g opacity="1" transform="matrix(1,0,0,1,54.09700012207031,62.5890007019043)"><path fill="rgb(239,182,80)" fill-opacity="1" d=" M21.368000030517578,0 C21.368000030517578,-11.802000045776367 11.800999641418457,-21.368999481201172 -0.0010000000474974513,-21.368999481201172 C-11.802000045776367,-21.368999481201172 -21.368000030517578,-11.802000045776367 -21.368000030517578,0 C-21.368000030517578,11.802000045776367 -11.802000045776367,21.368999481201172 -0.0010000000474974513,21.368999481201172 C11.800999641418457,21.368999481201172 21.368000030517578,11.802000045776367 21.368000030517578,0z"></path></g></g></mask></defs><g clip-path="url(#__lottie_element_7)"><g transform="matrix(3.7996058464050293,0,0,3.618105888366699,72.53856658935547,62.08082962036133)" opacity="1" style="display: block;"><g opacity="1" transform="matrix(1,0,0,1,86.18299865722656,95.86699676513672)"><path fill="rgb(238,182,80)" fill-opacity="1" d=" M85.93299865722656,0 C85.93299865722656,47.45899963378906 47.45899963378906,85.93299865722656 -0.0010000000474974513,85.93299865722656 C-47.459999084472656,85.93299865722656 -85.93299865722656,47.45899963378906 -85.93299865722656,0 C-85.93299865722656,-47.45899963378906 -47.459999084472656,-85.93299865722656 -0.0010000000474974513,-85.93299865722656 C47.45899963378906,-85.93299865722656 85.93299865722656,-47.45899963378906 85.93299865722656,0z"></path></g></g><g transform="matrix(3.670137643814087,0.9364347457885742,-0.9834103584289551,3.494821786880493,169.8500518798828,-7.82244873046875)" opacity="1" style="display: block;"><g opacity="1" transform="matrix(1,0,0,1,86.18199920654297,87.60700225830078)"><path fill="rgb(255,204,102)" fill-opacity="1" d=" M72.98899841308594,0 C72.98899841308594,40.310001373291016 40.31100082397461,72.98799896240234 0.0010000000474974513,72.98799896240234 C-40.310001373291016,72.98799896240234 -72.98899841308594,40.310001373291016 -72.98899841308594,0 C-72.98899841308594,-40.310001373291016 -40.310001373291016,-72.98799896240234 0.0010000000474974513,-72.98799896240234 C40.31100082397461,-72.98799896240234 72.98899841308594,-40.310001373291016 72.98899841308594,0z"></path></g></g><g transform="matrix(3.66349458694458,0.9347397089004517,-0.9816303849220276,3.4884960651397705,164.97744750976562,5.167954921722412)" opacity="1" style="display: block;"><g opacity="1" transform="matrix(1,0,0,1,120.41400146484375,27.97100067138672)"><path stroke-linecap="round" stroke-linejoin="miter" fill-opacity="0" stroke-miterlimit="10" stroke="rgb(70,70,107)" stroke-opacity="1" stroke-width="8.414" d=" M-13.539999961853027,-0.3199999928474426 C-4.236000061035156,-6.935999870300293 8.791000366210938,-3.444999933242798 13.539999961853027,6.935999870300293"></path></g><g opacity="1" transform="matrix(1,0,0,1,51.95100021362305,27.97100067138672)"><path stroke-linecap="round" stroke-linejoin="miter" fill-opacity="0" stroke-miterlimit="10" stroke="rgb(70,70,107)" stroke-opacity="1" stroke-width="8.414" d=" M13.541000366210938,-0.3199999928474426 C4.236999988555908,-6.935999870300293 -8.791999816894531,-3.444999933242798 -13.541000366210938,6.935999870300293"></path></g></g><g transform="matrix(3.66349458694458,0.9347397089004517,-0.9816303849220276,3.4884960651397705,165.920654296875,5.045248508453369)" opacity="1" style="display: block;"><g opacity="1" transform="matrix(1,0,0,1,54.09700012207031,63.46699905395508)"><path fill="rgb(255,255,255)" fill-opacity="1" d=" M21.368000030517578,0 C21.368000030517578,-11.802000045776367 11.800999641418457,-21.368999481201172 -0.0010000000474974513,-21.368999481201172 C-11.802000045776367,-21.368999481201172 -21.368000030517578,-11.802000045776367 -21.368000030517578,0 C-21.368000030517578,11.802000045776367 -11.802000045776367,21.368999481201172 -0.0010000000474974513,21.368999481201172 C11.800999641418457,21.368999481201172 21.368000030517578,11.802000045776367 21.368000030517578,0z"></path></g><g opacity="1" transform="matrix(1,0,0,1,118.26799774169922,63.79199981689453)"><path fill="rgb(255,255,255)" fill-opacity="1" d=" M-21.368000030517578,0 C-21.368000030517578,-11.802000045776367 -11.802000045776367,-21.368999481201172 0,-21.368999481201172 C11.800999641418457,-21.368999481201172 21.368000030517578,-11.802000045776367 21.368000030517578,0 C21.368000030517578,11.802000045776367 11.800999641418457,21.368999481201172 0,21.368999481201172 C-11.802000045776367,21.368999481201172 -21.368000030517578,11.802000045776367 -21.368000030517578,0z"></path></g></g><g transform="matrix(3.6213276386260986,0.9239808917045593,-0.9703317880630493,3.448343515396118,169.6904296875,8.97870922088623)" opacity="1" style="display: block;"><g opacity="1" transform="matrix(1,0,0,1,68.5790023803711,63.46699905395508)"><path fill="rgb(70,70,107)" fill-opacity="1" d=" M6.557000160217285,0 C6.557000160217285,-7.801000118255615 0.2329999953508377,-14.125 -7.567999839782715,-14.125 C-15.369000434875488,-14.125 -21.69300079345703,-7.801000118255615 -21.69300079345703,0 C-21.69300079345703,7.801000118255615 -15.369000434875488,14.125 -7.567999839782715,14.125 C0.2329999953508377,14.125 6.557000160217285,7.801000118255615 6.557000160217285,0z"></path></g><g opacity="1" transform="matrix(1,0,0,1,56.21500015258789,57.31399917602539)"><path fill="rgb(252,252,251)" fill-opacity="1" d=" M-3.427000045776367,0 C-3.427000045776367,-1.8930000066757202 -1.8930000066757202,-3.427999973297119 0,-3.427999973297119 C1.8930000066757202,-3.427999973297119 3.427000045776367,-1.8930000066757202 3.427000045776367,0 C3.427000045776367,1.8930000066757202 1.8930000066757202,3.427999973297119 0,3.427999973297119 C-1.8930000066757202,3.427999973297119 -3.427000045776367,1.8930000066757202 -3.427000045776367,0z"></path></g><g opacity="1" transform="matrix(1,0,0,1,111.3489990234375,63.46699905395508)"><path fill="rgb(70,70,107)" fill-opacity="1" d=" M14.125,0 C14.125,-7.801000118255615 7.801000118255615,-14.125 0,-14.125 C-7.801000118255615,-14.125 -14.125,-7.801000118255615 -14.125,0 C-14.125,7.801000118255615 -7.801000118255615,14.125 0,14.125 C7.801000118255615,14.125 14.125,7.801000118255615 14.125,0z"></path></g><g opacity="1" transform="matrix(1,0,0,1,105.89900207519531,57.31399917602539)"><path fill="rgb(252,252,251)" fill-opacity="1" d=" M-3.427000045776367,0 C-3.427000045776367,-1.8930000066757202 -1.8930000066757202,-3.427999973297119 0,-3.427999973297119 C1.8930000066757202,-3.427999973297119 3.427000045776367,-1.8930000066757202 3.427000045776367,0 C3.427000045776367,1.8930000066757202 1.8930000066757202,3.427999973297119 0,3.427999973297119 C-1.8930000066757202,3.427999973297119 -3.427000045776367,1.8930000066757202 -3.427000045776367,0z"></path></g></g><g clip-path="url(#__lottie_element_25)" style="display: block;" transform="matrix(1.197486400604248,0.3055383861064911,-0.32086554169654846,1.140284776687622,-42.44400405883789,-324.86920166015625)" opacity="1"><g mask="url(#__lottie_element_26)"><g mask="url(#__lottie_element_37)" style="display: block;"><g transform="matrix(-1,0,0,-1,304,394)" opacity="1"><g opacity="1" transform="matrix(-1,0,0,-1,-104,19.417457580566406)"><path fill="rgb(239,182,80)" fill-opacity="1" d=" M109,-71 C109,-71 109,71 109,71 C109,71 81,39 -5,40 C-91,41 -109,71 -109,71 C-109,71 -109,-71 -109,-71 C-109,-71 109,-71 109,-71z"></path><path stroke-linecap="butt" stroke-linejoin="miter" fill-opacity="0" stroke-miterlimit="4" stroke="rgb(255,204,102)" stroke-opacity="1" stroke-width="0" d=" M109,-71 C109,-71 109,71 109,71 C109,71 81,39 -5,40 C-91,41 -109,71 -109,71 C-109,71 -109,-71 -109,-71 C-109,-71 109,-71 109,-71z"></path></g><g opacity="1" transform="matrix(1,0,0,1,-104,-129.75570678710938)"><path fill="rgb(239,182,80)" fill-opacity="1" d=" M109,-71 C109,-71 109,71 109,71 C109,71 94,107 8,108 C-78,109 -109,71 -109,71 C-109,71 -109,-71 -109,-71 C-109,-71 109,-71 109,-71z"></path><path stroke-linecap="butt" stroke-linejoin="miter" fill-opacity="0" stroke-miterlimit="4" stroke="rgb(255,204,102)" stroke-opacity="1" stroke-width="0" d=" M109,-71 C109,-71 109,71 109,71 C109,71 94,107 8,108 C-78,109 -109,71 -109,71 C-109,71 -109,-71 -109,-71 C-109,-71 109,-71 109,-71z"></path></g></g></g><g mask="url(#__lottie_element_31)" style="display: block;"><g transform="matrix(-1,0,0,-1,500,394)" opacity="1"><g opacity="1" transform="matrix(-1,0,0,-1,-104,19.417457580566406)"><path fill="rgb(239,182,80)" fill-opacity="1" d=" M109,-71 C109,-71 109,71 109,71 C109,71 81,39 -5,40 C-91,41 -109,71 -109,71 C-109,71 -109,-71 -109,-71 C-109,-71 109,-71 109,-71z"></path><path stroke-linecap="butt" stroke-linejoin="miter" fill-opacity="0" stroke-miterlimit="4" stroke="rgb(255,204,102)" stroke-opacity="1" stroke-width="0" d=" M109,-71 C109,-71 109,71 109,71 C109,71 81,39 -5,40 C-91,41 -109,71 -109,71 C-109,71 -109,-71 -109,-71 C-109,-71 109,-71 109,-71z"></path></g><g opacity="1" transform="matrix(1,0,0,1,-104,-129.75570678710938)"><path fill="rgb(239,182,80)" fill-opacity="1" d=" M109,-71 C109,-71 109,71 109,71 C109,71 94,107 8,108 C-78,109 -109,71 -109,71 C-109,71 -109,-71 -109,-71 C-109,-71 109,-71 109,-71z"></path><path stroke-linecap="butt" stroke-linejoin="miter" fill-opacity="0" stroke-miterlimit="4" stroke="rgb(255,204,102)" stroke-opacity="1" stroke-width="0" d=" M109,-71 C109,-71 109,71 109,71 C109,71 94,107 8,108 C-78,109 -109,71 -109,71 C-109,71 -109,-71 -109,-71 C-109,-71 109,-71 109,-71z"></path></g></g></g><g transform="matrix(3.074579954147339,0,0,3.074579954147339,234.3038330078125,222.11993408203125)" opacity="1" style="display: block;"><g opacity="1" transform="matrix(1,0,0,1,117.26799774169922,63.49700164794922)"><path stroke-linecap="butt" stroke-linejoin="miter" fill-opacity="0" stroke-miterlimit="10" stroke="rgb(70,70,107)" stroke-opacity="1" stroke-width="8.414" d=" M-21.570999145507812,5.053999900817871 C-9.744000434875488,-5.083000183105469 10.557999610900879,-5.083000183105469 22.385000228881836,5.053999900817871"></path></g><g opacity="1" transform="matrix(1,0,0,1,54.09700012207031,63.49700164794922)"><path stroke-linecap="butt" stroke-linejoin="miter" fill-opacity="0" stroke-miterlimit="10" stroke="rgb(70,70,107)" stroke-opacity="1" stroke-width="8.414" d=" M-21.97800064086914,5.067999839782715 C-10.151000022888184,-5.068999767303467 10.151000022888184,-5.068999767303467 21.97800064086914,5.067999839782715"></path></g></g></g></g><g mask="url(#__lottie_element_9)" style="display: block;"><g transform="matrix(3.6213245391845703,0.9239801168441772,-0.9703310132026672,3.448340654373169,167.07870483398438,13.730307579040527)" opacity="1"><g opacity="1" transform="matrix(1,0,0,1,86.18299865722656,123.5260009765625)"><path fill="rgb(252,252,251)" fill-opacity="1" d=" M55.60499954223633,-33.047000885009766 C55.60499954223633,-33.047000885009766 -55.310001373291016,-33.047000885009766 -55.310001373291016,-33.047000885009766 C-58.027000427246094,-33.047000885009766 -60.22999954223633,-30.774999618530273 -60.22999954223633,-27.969999313354492 C-60.22999954223633,6.438000202178955 -33.196998596191406,34.33100128173828 0.14800000190734863,34.33100128173828 C33.49399948120117,34.33100128173828 60.5260009765625,6.438000202178955 60.5260009765625,-27.969999313354492 C60.5260009765625,-30.774999618530273 58.321998596191406,-33.047000885009766 55.60499954223633,-33.047000885009766z"></path></g><g opacity="1" transform="matrix(1,0,0,1,74.18499755859375,121.23600006103516)"><path fill="rgb(225,223,212)" fill-opacity="1" d=" M-53.104000091552734,-9.505000114440918 C-51.534000396728516,-4.650000095367432 -49.37699890136719,-0.06300000101327896 -46.7140007019043,4.177999973297119 C-46.7140007019043,4.177999973297119 37.95000076293945,-5.666999816894531 37.95000076293945,-5.666999816894531 C37.95000076293945,-5.666999816894531 -53.104000091552734,-9.505000114440918 -53.104000091552734,-9.505000114440918z"></path></g></g></g></g></svg>