<svg xmlns="http://www.w3.org/2000/svg" viewBox="0 0 800 800" width="800" height="800" preserveAspectRatio="xMidYMid meet" style="width: 100%; height: 100%; transform: translate3d(0px, 0px, 0px);"><defs><clipPath id="__lottie_element_1137"><rect width="800" height="800" x="0" y="0"></rect></clipPath><mask id="__lottie_element_1146" mask-type="alpha"><g transform="matrix(3.72700572013855,0,0,3.72700572013855,78.79547119140625,43.282806396484375)" opacity="1" style="display: block;"><g opacity="1" transform="matrix(1,0,0,1,86.18299865722656,95.86699676513672)"><path fill="rgb(238,182,80)" fill-opacity="1" d=" M85.93299865722656,0 C85.93299865722656,47.45899963378906 47.45899963378906,85.93299865722656 -0.0010000000474974513,85.93299865722656 C-47.459999084472656,85.93299865722656 -85.93299865722656,47.45899963378906 -85.93299865722656,0 C-85.93299865722656,-47.45899963378906 -47.459999084472656,-85.93299865722656 -0.0010000000474974513,-85.93299865722656 C47.45899963378906,-85.93299865722656 85.93299865722656,-47.45899963378906 85.93299865722656,0z"></path></g></g></mask><clipPath id="__lottie_element_1162"><path d="M0,0 L1000,0 L1000,1000 L0,1000z"></path></clipPath><mask id="__lottie_element_1168" mask-type="alpha"><g transform="matrix(3.72700572013855,0,0,3.72700572013855,78.79547119140625,43.282806396484375)" opacity="1" style="display: none;"><g opacity="1" transform="matrix(1,0,0,1,86.18299865722656,95.86699676513672)"><path fill="rgb(238,182,80)" fill-opacity="1" d=" M85.93299865722656,0 C85.93299865722656,47.45899963378906 47.45899963378906,85.93299865722656 -0.0010000000474974513,85.93299865722656 C-47.459999084472656,85.93299865722656 -85.93299865722656,47.45899963378906 -85.93299865722656,0 C-85.93299865722656,-47.45899963378906 -47.459999084472656,-85.93299865722656 -0.0010000000474974513,-85.93299865722656 C47.45899963378906,-85.93299865722656 85.93299865722656,-47.45899963378906 85.93299865722656,0z"></path></g></g></mask><clipPath id="__lottie_element_1175"><path d="M0,0 L1000,0 L1000,1000 L0,1000z"></path></clipPath><mask id="__lottie_element_1181" mask-type="alpha"><g transform="matrix(3.72700572013855,0,0,3.72700572013855,79.64525604248047,43.282806396484375)" opacity="1" style="display: none;"><g opacity="1" transform="matrix(1,0,0,1,86.18299865722656,95.86699676513672)"><path fill="rgb(238,182,80)" fill-opacity="1" d=" M85.93299865722656,0 C85.93299865722656,47.45899963378906 47.45899963378906,85.93299865722656 -0.0010000000474974513,85.93299865722656 C-47.459999084472656,85.93299865722656 -85.93299865722656,47.45899963378906 -85.93299865722656,0 C-85.93299865722656,-47.45899963378906 -47.459999084472656,-85.93299865722656 -0.0010000000474974513,-85.93299865722656 C47.45899963378906,-85.93299865722656 85.93299865722656,-47.45899963378906 85.93299865722656,0z"></path></g></g></mask><clipPath id="__lottie_element_1188"><path d="M0,0 L1000,0 L1000,1000 L0,1000z"></path></clipPath><mask id="__lottie_element_1194" mask-type="alpha"><g transform="matrix(3.72700572013855,0,0,3.72700572013855,78.79547119140625,43.282806396484375)" opacity="1" style="display: none;"><g opacity="1" transform="matrix(1,0,0,1,86.18299865722656,95.86699676513672)"><path fill="rgb(238,182,80)" fill-opacity="1" d=" M85.93299865722656,0 C85.93299865722656,47.45899963378906 47.45899963378906,85.93299865722656 -0.0010000000474974513,85.93299865722656 C-47.459999084472656,85.93299865722656 -85.93299865722656,47.45899963378906 -85.93299865722656,0 C-85.93299865722656,-47.45899963378906 -47.459999084472656,-85.93299865722656 -0.0010000000474974513,-85.93299865722656 C47.45899963378906,-85.93299865722656 85.93299865722656,-47.45899963378906 85.93299865722656,0z"></path></g></g></mask><clipPath id="__lottie_element_1201"><path d="M0,0 L1000,0 L1000,1000 L0,1000z"></path></clipPath><mask id="__lottie_element_1207" mask-type="alpha"><g transform="matrix(3.72700572013855,0,0,3.72700572013855,79.64525604248047,43.282806396484375)" opacity="1" style="display: none;"><g opacity="1" transform="matrix(1,0,0,1,86.18299865722656,95.86699676513672)"><path fill="rgb(238,182,80)" fill-opacity="1" d=" M85.93299865722656,0 C85.93299865722656,47.45899963378906 47.45899963378906,85.93299865722656 -0.0010000000474974513,85.93299865722656 C-47.459999084472656,85.93299865722656 -85.93299865722656,47.45899963378906 -85.93299865722656,0 C-85.93299865722656,-47.45899963378906 -47.459999084472656,-85.93299865722656 -0.0010000000474974513,-85.93299865722656 C47.45899963378906,-85.93299865722656 85.93299865722656,-47.45899963378906 85.93299865722656,0z"></path></g></g></mask><clipPath id="__lottie_element_1214"><path d="M0,0 L1000,0 L1000,1000 L0,1000z"></path></clipPath><mask id="__lottie_element_1220" mask-type="alpha"><g transform="matrix(3.72700572013855,0,0,3.72700572013855,78.79547119140625,43.282806396484375)" opacity="1" style="display: block;"><g opacity="1" transform="matrix(1,0,0,1,86.18299865722656,95.86699676513672)"><path fill="rgb(238,182,80)" fill-opacity="1" d=" M85.93299865722656,0 C85.93299865722656,47.45899963378906 47.45899963378906,85.93299865722656 -0.0010000000474974513,85.93299865722656 C-47.459999084472656,85.93299865722656 -85.93299865722656,47.45899963378906 -85.93299865722656,0 C-85.93299865722656,-47.45899963378906 -47.459999084472656,-85.93299865722656 -0.0010000000474974513,-85.93299865722656 C47.45899963378906,-85.93299865722656 85.93299865722656,-47.45899963378906 85.93299865722656,0z"></path></g></g></mask><clipPath id="__lottie_element_1227"><path d="M0,0 L1000,0 L1000,1000 L0,1000z"></path></clipPath><mask id="__lottie_element_1233" mask-type="alpha"><g transform="matrix(3.72700572013855,0,0,3.72700572013855,79.64525604248047,43.282806396484375)" opacity="1" style="display: block;"><g opacity="1" transform="matrix(1,0,0,1,86.18299865722656,95.86699676513672)"><path fill="rgb(238,182,80)" fill-opacity="1" d=" M85.93299865722656,0 C85.93299865722656,47.45899963378906 47.45899963378906,85.93299865722656 -0.0010000000474974513,85.93299865722656 C-47.459999084472656,85.93299865722656 -85.93299865722656,47.45899963378906 -85.93299865722656,0 C-85.93299865722656,-47.45899963378906 -47.459999084472656,-85.93299865722656 -0.0010000000474974513,-85.93299865722656 C47.45899963378906,-85.93299865722656 85.93299865722656,-47.45899963378906 85.93299865722656,0z"></path></g></g></mask></defs><g clip-path="url(#__lottie_element_1137)"><g transform="matrix(3.72700572013855,0,0,3.72700572013855,78.79547119140625,43.282806396484375)" opacity="1" style="display: block;"><g opacity="1" transform="matrix(1,0,0,1,86.18299865722656,95.86699676513672)"><path fill="rgb(238,182,80)" fill-opacity="1" d=" M85.93299865722656,0 C85.93299865722656,47.45899963378906 47.45899963378906,85.93299865722656 -0.0010000000474974513,85.93299865722656 C-47.459999084472656,85.93299865722656 -85.93299865722656,47.45899963378906 -85.93299865722656,0 C-85.93299865722656,-47.45899963378906 -47.459999084472656,-85.93299865722656 -0.0010000000474974513,-85.93299865722656 C47.45899963378906,-85.93299865722656 85.93299865722656,-47.45899963378906 85.93299865722656,0z"></path></g></g><g mask="url(#__lottie_element_1146)" style="display: block;"><g transform="matrix(3.72700572013855,0,0,3.72700572013855,78.98929595947266,74.93899536132812)" opacity="1"><g opacity="1" transform="matrix(1,0,0,1,86.18199920654297,87.60700225830078)"><path fill="rgb(255,204,102)" fill-opacity="1" d=" M72.98899841308594,0 C72.98899841308594,40.310001373291016 40.31100082397461,72.98799896240234 0.0010000000474974513,72.98799896240234 C-40.310001373291016,72.98799896240234 -72.98899841308594,40.310001373291016 -72.98899841308594,0 C-72.98899841308594,-40.310001373291016 -40.310001373291016,-72.98799896240234 0.0010000000474974513,-72.98799896240234 C40.31100082397461,-72.98799896240234 72.98899841308594,-40.310001373291016 72.98899841308594,0z"></path></g></g></g><g transform="matrix(-3.677436590194702,0,0,-3.677436590194702,759.5567016601562,965.1053466796875)" opacity="1" style="display: block;"><g opacity="1" transform="matrix(1,0,0,1,98.89800262451172,122.9990005493164)"><path stroke-linecap="round" stroke-linejoin="round" fill-opacity="0" stroke="rgb(70,70,107)" stroke-opacity="1" stroke-width="8.414" d=" M-27.222000122070312,-6.181000232696533 C-8.362000465393066,9.77299976348877 10.062999725341797,8.78600025177002 27.180999755859375,-6.263999938964844"></path></g></g><g mask="url(#__lottie_element_1233)" style="display: block;"><g clip-path="url(#__lottie_element_1227)" transform="matrix(1.209986925125122,0,0,1.209986925125122,-205.16693115234375,-216.31695556640625)" opacity="1"><g transform="matrix(3.0392000675201416,0,0,2.041504144668579,237.12347412109375,311.76641845703125)" opacity="0.25" style="display: block;"><g opacity="1" transform="matrix(1,0,0,1,37.207000732421875,101.15899658203125)"><path fill="rgb(108,171,208)" fill-opacity="1" d=" M4.763999938964844,28.33300018310547 C4.763999938964844,28.33300018310547 -4.763000011444092,28.33300018310547 -4.763000011444092,28.33300018310547 C-4.763000011444092,28.33300018310547 -4.671999931335449,-28.31999969482422 -4.763000011444092,-28.33300018310547 C-1.8760000467300415,-30.983999252319336 4.763999938964844,-28.33300018310547 4.763999938964844,-28.33300018310547 C4.763999938964844,-28.33300018310547 4.763999938964844,28.33300018310547 4.763999938964844,28.33300018310547z"></path></g></g></g></g><g style="display: block;" transform="matrix(3.6773927211761475,0,0,3.6773927211761475,80.54064178466797,-5.88149356842041)" opacity="1"><g opacity="1" transform="matrix(1,0,0,1,37.207000732421875,126.6510009765625)"><path fill="rgb(108,171,208)" fill-opacity="1" d=" M0,8.788999557495117 C0,8.788999557495117 0,8.788999557495117 0,8.788999557495117 C-3.2339999675750732,8.788999557495117 -5.53000020980835,4.960000038146973 -4.541999816894531,1.215999960899353 C-4.541999816894531,1.215999960899353 -0.4830000102519989,-8.36299991607666 -0.4830000102519989,-8.36299991607666 C-0.3019999861717224,-8.788999557495117 0.3019999861717224,-8.788999557495117 0.4819999933242798,-8.36299991607666 C0.4819999933242798,-8.36299991607666 4.541999816894531,1.215999960899353 4.541999816894531,1.215999960899353 C5.53000020980835,4.960000038146973 3.2339999675750732,8.788999557495117 0,8.788999557495117z"></path></g></g><g mask="url(#__lottie_element_1220)" style="display: block;"><g clip-path="url(#__lottie_element_1214)" transform="matrix(1.209986925125122,0,0,1.209986925125122,152.48216247558594,-216.31695556640625)" opacity="1"><g transform="matrix(3.0392000675201416,0,0,6.079999923706055,237.12347412109375,17.658966064453125)" opacity="0.18000747442862086" style="display: block;"><g opacity="1" transform="matrix(1,0,0,1,37.207000732421875,101.15899658203125)"><path fill="rgb(108,171,208)" fill-opacity="1" d=" M4.763999938964844,28.33300018310547 C4.763999938964844,28.33300018310547 -4.763000011444092,28.33300018310547 -4.763000011444092,28.33300018310547 C-4.763000011444092,28.33300018310547 -4.671999931335449,-28.31999969482422 -4.763000011444092,-28.33300018310547 C-1.8760000467300415,-30.983999252319336 4.763999938964844,-28.33300018310547 4.763999938964844,-28.33300018310547 C4.763999938964844,-28.33300018310547 4.763999938964844,28.33300018310547 4.763999938964844,28.33300018310547z"></path></g></g></g></g><g style="display: none;" transform="matrix(1.789555311203003,0,0,1.789555311203003,508.43048095703125,466.9823913574219)" opacity="1"><g opacity="1" transform="matrix(1,0,0,1,37.207000732421875,126.6510009765625)"><path fill="rgb(108,171,208)" fill-opacity="1" d=" M0,8.788999557495117 C0,8.788999557495117 0,8.788999557495117 0,8.788999557495117 C-3.2339999675750732,8.788999557495117 -5.53000020980835,4.960000038146973 -4.541999816894531,1.215999960899353 C-4.541999816894531,1.215999960899353 -0.4830000102519989,-8.36299991607666 -0.4830000102519989,-8.36299991607666 C-0.3019999861717224,-8.788999557495117 0.3019999861717224,-8.788999557495117 0.4819999933242798,-8.36299991607666 C0.4819999933242798,-8.36299991607666 4.541999816894531,1.215999960899353 4.541999816894531,1.215999960899353 C5.53000020980835,4.960000038146973 3.2339999675750732,8.788999557495117 0,8.788999557495117z"></path></g></g><g mask="url(#__lottie_element_1207)" style="display: none;"><g clip-path="url(#__lottie_element_1201)" transform="matrix(1.209986925125122,0,0,1.209986925125122,-205.16693115234375,-201.99285888671875)" opacity="1"><g transform="matrix(3.0392000675201416,0,0,6.079999923706055,237.12347412109375,17.658966064453125)" opacity="0.010000000097686056" style="display: block;"><g opacity="1" transform="matrix(1,0,0,1,37.207000732421875,101.15899658203125)"><path fill="rgb(108,171,208)" fill-opacity="1" d=" M4.763999938964844,28.33300018310547 C4.763999938964844,28.33300018310547 -4.763000011444092,28.33300018310547 -4.763000011444092,28.33300018310547 C-4.763000011444092,28.33300018310547 -4.671999931335449,-28.31999969482422 -4.763000011444092,-28.33300018310547 C-1.8760000467300415,-30.983999252319336 4.763999938964844,-28.33300018310547 4.763999938964844,-28.33300018310547 C4.763999938964844,-28.33300018310547 4.763999938964844,28.33300018310547 4.763999938964844,28.33300018310547z"></path></g></g></g></g><g style="display: none;" transform="matrix(2.4018335342407227,0,0,2.4018335342407227,128.0003662109375,65.21638488769531)" opacity="1"><g opacity="1" transform="matrix(1,0,0,1,37.207000732421875,126.6510009765625)"><path fill="rgb(108,171,208)" fill-opacity="1" d=" M0,8.788999557495117 C0,8.788999557495117 0,8.788999557495117 0,8.788999557495117 C-3.2339999675750732,8.788999557495117 -5.53000020980835,4.960000038146973 -4.541999816894531,1.215999960899353 C-4.541999816894531,1.215999960899353 -0.4830000102519989,-8.36299991607666 -0.4830000102519989,-8.36299991607666 C-0.3019999861717224,-8.788999557495117 0.3019999861717224,-8.788999557495117 0.4819999933242798,-8.36299991607666 C0.4819999933242798,-8.36299991607666 4.541999816894531,1.215999960899353 4.541999816894531,1.215999960899353 C5.53000020980835,4.960000038146973 3.2339999675750732,8.788999557495117 0,8.788999557495117z"></path></g></g><g mask="url(#__lottie_element_1194)" style="display: none;"><g clip-path="url(#__lottie_element_1188)" transform="matrix(1.209986925125122,0,0,1.209986925125122,152.48216247558594,-200.5032196044922)" opacity="1"><g transform="matrix(3.0392000675201416,0,0,0.2550423741340637,237.12347412109375,441.8673095703125)" opacity="0.25" style="display: block;"><g opacity="1" transform="matrix(1,0,0,1,37.207000732421875,101.15899658203125)"><path fill="rgb(108,171,208)" fill-opacity="1" d=" M4.763999938964844,28.33300018310547 C4.763999938964844,28.33300018310547 -4.763000011444092,28.33300018310547 -4.763000011444092,28.33300018310547 C-4.763000011444092,28.33300018310547 -4.671999931335449,-28.31999969482422 -4.763000011444092,-28.33300018310547 C-1.8760000467300415,-30.983999252319336 4.763999938964844,-28.33300018310547 4.763999938964844,-28.33300018310547 C4.763999938964844,-28.33300018310547 4.763999938964844,28.33300018310547 4.763999938964844,28.33300018310547z"></path></g></g></g></g><g style="display: none;" transform="matrix(2.4019243717193604,0,0,2.4019243717193604,485.64605712890625,66.60045623779297)" opacity="1"><g opacity="1" transform="matrix(1,0,0,1,37.207000732421875,126.6510009765625)"><path fill="rgb(108,171,208)" fill-opacity="1" d=" M0,8.788999557495117 C0,8.788999557495117 0,8.788999557495117 0,8.788999557495117 C-3.2339999675750732,8.788999557495117 -5.53000020980835,4.960000038146973 -4.541999816894531,1.215999960899353 C-4.541999816894531,1.215999960899353 -0.4830000102519989,-8.36299991607666 -0.4830000102519989,-8.36299991607666 C-0.3019999861717224,-8.788999557495117 0.3019999861717224,-8.788999557495117 0.4819999933242798,-8.36299991607666 C0.4819999933242798,-8.36299991607666 4.541999816894531,1.215999960899353 4.541999816894531,1.215999960899353 C5.53000020980835,4.960000038146973 3.2339999675750732,8.788999557495117 0,8.788999557495117z"></path></g></g><g mask="url(#__lottie_element_1181)" style="display: none;"><g clip-path="url(#__lottie_element_1175)" transform="matrix(1.209986925125122,0,0,1.209986925125122,-205.16693115234375,-201.99307250976562)" opacity="1"><g transform="matrix(3.0392000675201416,0,0,6.079999923706055,237.12347412109375,17.658966064453125)" opacity="0.01" style="display: block;"><g opacity="1" transform="matrix(1,0,0,1,37.207000732421875,101.15899658203125)"><path fill="rgb(108,171,208)" fill-opacity="1" d=" M4.763999938964844,28.33300018310547 C4.763999938964844,28.33300018310547 -4.763000011444092,28.33300018310547 -4.763000011444092,28.33300018310547 C-4.763000011444092,28.33300018310547 -4.671999931335449,-28.31999969482422 -4.763000011444092,-28.33300018310547 C-1.8760000467300415,-30.983999252319336 4.763999938964844,-28.33300018310547 4.763999938964844,-28.33300018310547 C4.763999938964844,-28.33300018310547 4.763999938964844,28.33300018310547 4.763999938964844,28.33300018310547z"></path></g></g></g></g><g style="display: none;" transform="matrix(2.0072414875030518,0,0,2.0072414875030518,142.6819610595703,117.010498046875)" opacity="1"><g opacity="1" transform="matrix(1,0,0,1,37.207000732421875,126.6510009765625)"><path fill="rgb(108,171,208)" fill-opacity="1" d=" M0,8.788999557495117 C0,8.788999557495117 0,8.788999557495117 0,8.788999557495117 C-3.2339999675750732,8.788999557495117 -5.53000020980835,4.960000038146973 -4.541999816894531,1.215999960899353 C-4.541999816894531,1.215999960899353 -0.4830000102519989,-8.36299991607666 -0.4830000102519989,-8.36299991607666 C-0.3019999861717224,-8.788999557495117 0.3019999861717224,-8.788999557495117 0.4819999933242798,-8.36299991607666 C0.4819999933242798,-8.36299991607666 4.541999816894531,1.215999960899353 4.541999816894531,1.215999960899353 C5.53000020980835,4.960000038146973 3.2339999675750732,8.788999557495117 0,8.788999557495117z"></path></g></g><g mask="url(#__lottie_element_1168)" style="display: none;"><g clip-path="url(#__lottie_element_1162)" transform="matrix(1.209986925125122,0,0,1.209986925125122,152.48216247558594,-236.35496520996094)" opacity="1"><g transform="matrix(3.0392000675201416,0,0,6.079999923706055,237.12347412109375,17.658966064453125)" opacity="0.010146188840651825" style="display: block;"><g opacity="1" transform="matrix(1,0,0,1,37.207000732421875,101.15899658203125)"><path fill="rgb(108,171,208)" fill-opacity="1" d=" M4.763999938964844,28.33300018310547 C4.763999938964844,28.33300018310547 -4.763000011444092,28.33300018310547 -4.763000011444092,28.33300018310547 C-4.763000011444092,28.33300018310547 -4.671999931335449,-28.31999969482422 -4.763000011444092,-28.33300018310547 C-1.8760000467300415,-30.983999252319336 4.763999938964844,-28.33300018310547 4.763999938964844,-28.33300018310547 C4.763999938964844,-28.33300018310547 4.763999938964844,28.33300018310547 4.763999938964844,28.33300018310547z"></path></g></g></g></g><g style="display: none;" transform="matrix(2.1298038959503174,0,0,2.1298038959503174,495.7708435058594,54.33195877075195)" opacity="1"><g opacity="1" transform="matrix(1,0,0,1,37.207000732421875,126.6510009765625)"><path fill="rgb(108,171,208)" fill-opacity="1" d=" M0,8.788999557495117 C0,8.788999557495117 0,8.788999557495117 0,8.788999557495117 C-3.2339999675750732,8.788999557495117 -5.53000020980835,4.960000038146973 -4.541999816894531,1.215999960899353 C-4.541999816894531,1.215999960899353 -0.4830000102519989,-8.36299991607666 -0.4830000102519989,-8.36299991607666 C-0.3019999861717224,-8.788999557495117 0.3019999861717224,-8.788999557495117 0.4819999933242798,-8.36299991607666 C0.4819999933242798,-8.36299991607666 4.541999816894531,1.215999960899353 4.541999816894531,1.215999960899353 C5.53000020980835,4.960000038146973 3.2339999675750732,8.788999557495117 0,8.788999557495117z"></path></g></g><g transform="matrix(3.677436590194702,0,0,3.677436590194702,81.91584777832031,118.97701263427734)" opacity="1" style="display: block;"><g opacity="1" transform="matrix(1,0,0,1,118.26799774169922,62.64799880981445)"><path fill="rgb(238,182,80)" fill-opacity="1" d=" M-1221.3399658203125,-379.6549987792969 C-1221.3399658203125,-379.6549987792969 987.6599731445312,-379.6549987792969 987.6599731445312,-379.6549987792969 C987.6599731445312,-379.6549987792969 987.6599731445312,700.344970703125 987.6599731445312,700.344970703125 C987.6599731445312,700.344970703125 -1221.3399658203125,700.344970703125 -1221.3399658203125,700.344970703125 C-1221.3399658203125,700.344970703125 -1221.3399658203125,-379.6549987792969 -1221.3399658203125,-379.6549987792969z M-1221.3399658203125,700.344970703125 C-1221.3399658203125,700.344970703125 987.6599731445312,700.344970703125 987.6599731445312,700.344970703125 C987.6599731445312,700.344970703125 987.6599731445312,-379.6549987792969 987.6599731445312,-379.6549987792969 C987.6599731445312,-379.6549987792969 -1221.3399658203125,-379.6549987792969 -1221.3399658203125,-379.6549987792969 C-1221.3399658203125,-379.6549987792969 -1221.3399658203125,700.344970703125 -1221.3399658203125,700.344970703125z M-21.368000030517578,0 C-21.368000030517578,11.802000045776367 -11.802000045776367,21.368999481201172 0,21.368999481201172 C11.800999641418457,21.368999481201172 21.368000030517578,11.802000045776367 21.368000030517578,0 C21.368000030517578,-11.802000045776367 11.800999641418457,-21.368999481201172 0,-21.368999481201172 C-11.802000045776367,-21.368999481201172 -21.368000030517578,-11.802000045776367 -21.368000030517578,0z"></path><g opacity="1" transform="matrix(1,0,0,1,0,0)"></g></g><g opacity="1" transform="matrix(1,0,0,1,54.09700012207031,62.64799880981445)"><path fill="rgb(238,182,80)" fill-opacity="1" d=" M-1157.1689453125,-379.6549987792969 C-1157.1689453125,-379.6549987792969 1051.8310546875,-379.6549987792969 1051.8310546875,-379.6549987792969 C1051.8310546875,-379.6549987792969 1051.8310546875,700.344970703125 1051.8310546875,700.344970703125 C1051.8310546875,700.344970703125 -1157.1689453125,700.344970703125 -1157.1689453125,700.344970703125 C-1157.1689453125,700.344970703125 -1157.1689453125,-379.6549987792969 -1157.1689453125,-379.6549987792969z M-1157.1689453125,700.344970703125 C-1157.1689453125,700.344970703125 1051.8310546875,700.344970703125 1051.8310546875,700.344970703125 C1051.8310546875,700.344970703125 1051.8310546875,-379.6549987792969 1051.8310546875,-379.6549987792969 C1051.8310546875,-379.6549987792969 -1157.1689453125,-379.6549987792969 -1157.1689453125,-379.6549987792969 C-1157.1689453125,-379.6549987792969 -1157.1689453125,700.344970703125 -1157.1689453125,700.344970703125z M21.368999481201172,0 C21.368999481201172,11.802000045776367 11.802000045776367,21.368999481201172 0,21.368999481201172 C-11.800999641418457,21.368999481201172 -21.368999481201172,11.802000045776367 -21.368999481201172,0 C-21.368999481201172,-11.802000045776367 -11.800999641418457,-21.368999481201172 0,-21.368999481201172 C11.802000045776367,-21.368999481201172 21.368999481201172,-11.802000045776367 21.368999481201172,0z"></path><g opacity="1" transform="matrix(1,0,0,1,0,0)"></g></g><g opacity="1" transform="matrix(1,0,0,1,54.09700012207031,66.73999786376953)"><path stroke-linecap="butt" stroke-linejoin="miter" fill-opacity="0" stroke-miterlimit="10" stroke="rgb(70,70,107)" stroke-opacity="1" stroke-width="8.414" d=" M21.97800064086914,-5.068999767303467 C10.151000022888184,5.067999839782715 -10.151000022888184,5.067999839782715 -21.97800064086914,-5.068999767303467"></path></g><g opacity="1" transform="matrix(1,0,0,1,118.26799774169922,66.73999786376953)"><path stroke-linecap="butt" stroke-linejoin="miter" fill-opacity="0" stroke-miterlimit="10" stroke="rgb(70,70,107)" stroke-opacity="1" stroke-width="8.414" d=" M21.97800064086914,-5.068999767303467 C10.151000022888184,5.067999839782715 -10.151000022888184,5.067999839782715 -21.97800064086914,-5.068999767303467"></path></g></g><g transform="matrix(3.677436590194702,0,0,3.677436590194702,78.5579605102539,108.97966766357422)" opacity="1" style="display: block;"><g opacity="1" transform="matrix(1,0,0,1,86.18299865722656,129.95899963378906)"><path fill="rgb(238,182,80)" fill-opacity="1" d=" M14.557000160217285,6.054999828338623 C14.557000160217285,6.054999828338623 14.557000160217285,6.054999828338623 14.557000160217285,6.054999828338623 C8.630000114440918,-6.056000232696533 -8.630999565124512,-6.056000232696533 -14.557000160217285,6.054999828338623"></path></g></g><g transform="matrix(3.8157083988189697,0,0,3.7442989349365234,66.72803497314453,98.15607452392578)" opacity="1" style="display: block;"><g opacity="1" transform="matrix(1,0,0,1,120.41400146484375,27.97100067138672)"><path stroke-linecap="round" stroke-linejoin="miter" fill-opacity="0" stroke-miterlimit="10" stroke="rgb(70,70,107)" stroke-opacity="1" stroke-width="8.414" d=" M-13.539999961853027,-0.3199999928474426 C-6.0929999351501465,9.600000381469727 2.6760001182556152,9.440999984741211 13.539999961853027,6.935999870300293"></path></g><g opacity="1" transform="matrix(1,0,0,1,51.95100021362305,27.97100067138672)"><path stroke-linecap="round" stroke-linejoin="miter" fill-opacity="0" stroke-miterlimit="10" stroke="rgb(70,70,107)" stroke-opacity="1" stroke-width="8.414" d=" M13.541000366210938,-0.3199999928474426 C13.541000366210938,-0.3199999928474426 13.541000366210938,-0.3199999928474426 13.541000366210938,-0.3199999928474426 C7.729000091552734,8.805000305175781 -2.052999973297119,10.553999900817871 -13.541000366210938,6.935999870300293"></path></g></g></g></svg>