<svg xmlns="http://www.w3.org/2000/svg" viewBox="0 0 800 800" width="800" height="800" preserveAspectRatio="xMidYMid meet" style="width: 100%; height: 100%; transform: translate3d(0px, 0px, 0px);"><defs><clipPath id="__lottie_element_117"><rect width="800" height="800" x="0" y="0"></rect></clipPath><clipPath id="__lottie_element_135"><path d="M0,0 L1000,0 L1000,1000 L0,1000z"></path></clipPath><mask id="__lottie_element_138" mask-type="alpha"><g transform="matrix(3.080169916152954,0,0,3.080169916152954,233.56680297851562,218.1641082763672)" opacity="1" style="display: block;"><g opacity="1" transform="matrix(1,0,0,1,86.18199920654297,111.76000213623047)"><path fill="rgb(70,70,107)" fill-opacity="1" d=" M55.31999969482422,-32.56800079345703 C55.31999969482422,-32.56800079345703 -55.31999969482422,-32.56800079345703 -55.31999969482422,-32.56800079345703 C-58.03099822998047,-32.56800079345703 -60.22700119018555,-30.3700008392334 -60.22700119018555,-27.659000396728516 C-60.22700119018555,5.604000091552734 -33.26300048828125,32.56800079345703 -0.0010000000474974513,32.56800079345703 C33.262001037597656,32.56800079345703 60.22700119018555,5.604000091552734 60.22700119018555,-27.659000396728516 C60.22700119018555,-30.3700008392334 58.03099822998047,-32.56800079345703 55.31999969482422,-32.56800079345703z"></path></g></g></mask><mask id="__lottie_element_150" mask-type="alpha"><g transform="matrix(3.7267348766326904,0,0,3.7274577617645264,77.4503173828125,51.87876892089844)" opacity="1" style="display: block;"><g opacity="1" transform="matrix(1,0,0,1,53.67599868774414,47.70500183105469)"><path fill="rgb(255,255,255)" fill-opacity="1" d=" M-206.8350067138672,-106.21499633789062 C-206.8350067138672,-106.21499633789062 2002.1650390625,-106.21499633789062 2002.1650390625,-106.21499633789062 C2002.1650390625,-106.21499633789062 2002.1650390625,973.7849731445312 2002.1650390625,973.7849731445312 C2002.1650390625,973.7849731445312 -206.8350067138672,973.7849731445312 -206.8350067138672,973.7849731445312 C-206.8350067138672,973.7849731445312 -206.8350067138672,-106.21499633789062 -206.8350067138672,-106.21499633789062z M-206.8350067138672,973.7849731445312 C-206.8350067138672,973.7849731445312 2002.1650390625,973.7849731445312 2002.1650390625,973.7849731445312 C2002.1650390625,973.7849731445312 2002.1650390625,-106.21499633789062 2002.1650390625,-106.21499633789062 C2002.1650390625,-106.21499633789062 -206.8350067138672,-106.21499633789062 -206.8350067138672,-106.21499633789062 C-206.8350067138672,-106.21499633789062 -206.8350067138672,973.7849731445312 -206.8350067138672,973.7849731445312z M-1.7009999752044678,-10.840999603271484 C-1.7009999752044678,-10.840999603271484 -1.7009999752044678,-10.840999603271484 -1.7009999752044678,-10.840999603271484 C-11.329000473022461,-9.651000022888184 -18.16900062561035,-0.8809999823570251 -16.979000091552734,8.746999740600586 C-16.979000091552734,8.746999740600586 -16.871000289916992,9.619000434875488 -16.871000289916992,9.619000434875488 C-16.69700050354004,11.029000282287598 -15.411999702453613,12.031000137329102 -14.00100040435791,11.857000350952148 C-14.00100040435791,11.857000350952148 15.755999565124512,8.178000450134277 15.755999565124512,8.178000450134277 C17.16699981689453,8.003999710083008 18.16900062561035,6.718999862670898 17.9950008392334,5.308000087738037 C17.9950008392334,5.308000087738037 17.886999130249023,4.436999797821045 17.886999130249023,4.436999797821045 C16.69700050354004,-5.190999984741211 7.927000045776367,-12.031000137329102 -1.7009999752044678,-10.840999603271484z"></path><g opacity="1" transform="matrix(1,0,0,1,0,0)"></g></g><g opacity="1" transform="matrix(1,0,0,1,118.68900299072266,47.70500183105469)"><path fill="rgb(255,255,255)" fill-opacity="1" d=" M-271.8489990234375,-106.21499633789062 C-271.8489990234375,-106.21499633789062 1937.1510009765625,-106.21499633789062 1937.1510009765625,-106.21499633789062 C1937.1510009765625,-106.21499633789062 1937.1510009765625,973.7849731445312 1937.1510009765625,973.7849731445312 C1937.1510009765625,973.7849731445312 -271.8489990234375,973.7849731445312 -271.8489990234375,973.7849731445312 C-271.8489990234375,973.7849731445312 -271.8489990234375,-106.21499633789062 -271.8489990234375,-106.21499633789062z M-271.8489990234375,973.7849731445312 C-271.8489990234375,973.7849731445312 1937.1510009765625,973.7849731445312 1937.1510009765625,973.7849731445312 C1937.1510009765625,973.7849731445312 1937.1510009765625,-106.21499633789062 1937.1510009765625,-106.21499633789062 C1937.1510009765625,-106.21499633789062 -271.8489990234375,-106.21499633789062 -271.8489990234375,-106.21499633789062 C-271.8489990234375,-106.21499633789062 -271.8489990234375,973.7849731445312 -271.8489990234375,973.7849731445312z M1.7009999752044678,-10.840999603271484 C1.7009999752044678,-10.840999603271484 1.7009999752044678,-10.840999603271484 1.7009999752044678,-10.840999603271484 C11.329000473022461,-9.651000022888184 18.16900062561035,-0.8809999823570251 16.979000091552734,8.746999740600586 C16.979000091552734,8.746999740600586 16.871000289916992,9.619000434875488 16.871000289916992,9.619000434875488 C16.69700050354004,11.029000282287598 15.411999702453613,12.031000137329102 14.00100040435791,11.857000350952148 C14.00100040435791,11.857000350952148 -15.755999565124512,8.178000450134277 -15.755999565124512,8.178000450134277 C-17.16699981689453,8.003999710083008 -18.16900062561035,6.718999862670898 -17.9950008392334,5.308000087738037 C-17.9950008392334,5.308000087738037 -17.886999130249023,4.436999797821045 -17.886999130249023,4.436999797821045 C-16.69700050354004,-5.190999984741211 -7.927000045776367,-12.031000137329102 1.7009999752044678,-10.840999603271484z"></path><g opacity="1" transform="matrix(1,0,0,1,0,0)"></g></g></g></mask></defs><g clip-path="url(#__lottie_element_117)"><g transform="matrix(3.7267348766326904,0,0,3.7274577617645264,78.63542938232422,41.89634323120117)" opacity="1" style="display: block;"><g opacity="1" transform="matrix(1,0,0,1,86.18299865722656,95.86699676513672)"><path fill="rgb(238,182,80)" fill-opacity="1" d=" M-239.3419952392578,-154.3769989013672 C-239.3419952392578,-154.3769989013672 1969.657958984375,-154.3769989013672 1969.657958984375,-154.3769989013672 C1969.657958984375,-154.3769989013672 1969.657958984375,925.6229858398438 1969.657958984375,925.6229858398438 C1969.657958984375,925.6229858398438 -239.3419952392578,925.6229858398438 -239.3419952392578,925.6229858398438 C-239.3419952392578,925.6229858398438 -239.3419952392578,-154.3769989013672 -239.3419952392578,-154.3769989013672z M-239.3419952392578,925.6229858398438 C-239.3419952392578,925.6229858398438 1969.657958984375,925.6229858398438 1969.657958984375,925.6229858398438 C1969.657958984375,925.6229858398438 1969.657958984375,-154.3769989013672 1969.657958984375,-154.3769989013672 C1969.657958984375,-154.3769989013672 -239.3419952392578,-154.3769989013672 -239.3419952392578,-154.3769989013672 C-239.3419952392578,-154.3769989013672 -239.3419952392578,925.6229858398438 -239.3419952392578,925.6229858398438z M85.93299865722656,0 C85.93299865722656,47.45899963378906 47.45899963378906,85.93299865722656 -0.0010000000474974513,85.93299865722656 C-47.459999084472656,85.93299865722656 -85.93299865722656,47.45899963378906 -85.93299865722656,0 C-85.93299865722656,-47.45899963378906 -47.459999084472656,-85.93299865722656 -0.0010000000474974513,-85.93299865722656 C47.45899963378906,-85.93299865722656 85.93299865722656,-47.45899963378906 85.93299865722656,0z"></path><g opacity="1" transform="matrix(1,0,0,1,0,0)"></g></g><g opacity="1" transform="matrix(1,0,0,1,86.18199920654297,87.60700225830078)"><path fill="rgb(255,204,102)" fill-opacity="1" d=" M-239.3419952392578,-146.11599731445312 C-239.3419952392578,-146.11599731445312 1969.657958984375,-146.11599731445312 1969.657958984375,-146.11599731445312 C1969.657958984375,-146.11599731445312 1969.657958984375,933.8839721679688 1969.657958984375,933.8839721679688 C1969.657958984375,933.8839721679688 -239.3419952392578,933.8839721679688 -239.3419952392578,933.8839721679688 C-239.3419952392578,933.8839721679688 -239.3419952392578,-146.11599731445312 -239.3419952392578,-146.11599731445312z M-239.3419952392578,933.8839721679688 C-239.3419952392578,933.8839721679688 1969.657958984375,933.8839721679688 1969.657958984375,933.8839721679688 C1969.657958984375,933.8839721679688 1969.657958984375,-146.11599731445312 1969.657958984375,-146.11599731445312 C1969.657958984375,-146.11599731445312 -239.3419952392578,-146.11599731445312 -239.3419952392578,-146.11599731445312 C-239.3419952392578,-146.11599731445312 -239.3419952392578,933.8839721679688 -239.3419952392578,933.8839721679688z M72.98899841308594,0 C72.98899841308594,40.310001373291016 40.31100082397461,72.98799896240234 0.0010000000474974513,72.98799896240234 C-40.310001373291016,72.98799896240234 -72.98899841308594,40.310001373291016 -72.98899841308594,0 C-72.98899841308594,-40.310001373291016 -40.310001373291016,-72.98799896240234 0.0010000000474974513,-72.98799896240234 C40.31100082397461,-72.98799896240234 72.98899841308594,-40.310001373291016 72.98899841308594,0z"></path><g opacity="1" transform="matrix(1,0,0,1,0,0)"></g></g></g><g transform="matrix(3.7267348766326904,0,0,3.7274577617645264,77.4503173828125,51.87876892089844)" opacity="1" style="display: block;"><g opacity="1" transform="matrix(1,0,0,1,53.67599868774414,47.70500183105469)"><path fill="rgb(255,255,255)" fill-opacity="1" d=" M-206.8350067138672,-106.21499633789062 C-206.8350067138672,-106.21499633789062 2002.1650390625,-106.21499633789062 2002.1650390625,-106.21499633789062 C2002.1650390625,-106.21499633789062 2002.1650390625,973.7849731445312 2002.1650390625,973.7849731445312 C2002.1650390625,973.7849731445312 -206.8350067138672,973.7849731445312 -206.8350067138672,973.7849731445312 C-206.8350067138672,973.7849731445312 -206.8350067138672,-106.21499633789062 -206.8350067138672,-106.21499633789062z M-206.8350067138672,973.7849731445312 C-206.8350067138672,973.7849731445312 2002.1650390625,973.7849731445312 2002.1650390625,973.7849731445312 C2002.1650390625,973.7849731445312 2002.1650390625,-106.21499633789062 2002.1650390625,-106.21499633789062 C2002.1650390625,-106.21499633789062 -206.8350067138672,-106.21499633789062 -206.8350067138672,-106.21499633789062 C-206.8350067138672,-106.21499633789062 -206.8350067138672,973.7849731445312 -206.8350067138672,973.7849731445312z M-1.7009999752044678,-10.840999603271484 C-1.7009999752044678,-10.840999603271484 -1.7009999752044678,-10.840999603271484 -1.7009999752044678,-10.840999603271484 C-11.329000473022461,-9.651000022888184 -18.16900062561035,-0.8809999823570251 -16.979000091552734,8.746999740600586 C-16.979000091552734,8.746999740600586 -16.871000289916992,9.619000434875488 -16.871000289916992,9.619000434875488 C-16.69700050354004,11.029000282287598 -15.411999702453613,12.031000137329102 -14.00100040435791,11.857000350952148 C-14.00100040435791,11.857000350952148 15.755999565124512,8.178000450134277 15.755999565124512,8.178000450134277 C17.16699981689453,8.003999710083008 18.16900062561035,6.718999862670898 17.9950008392334,5.308000087738037 C17.9950008392334,5.308000087738037 17.886999130249023,4.436999797821045 17.886999130249023,4.436999797821045 C16.69700050354004,-5.190999984741211 7.927000045776367,-12.031000137329102 -1.7009999752044678,-10.840999603271484z"></path><g opacity="1" transform="matrix(1,0,0,1,0,0)"></g></g><g opacity="1" transform="matrix(1,0,0,1,118.68900299072266,47.70500183105469)"><path fill="rgb(255,255,255)" fill-opacity="1" d=" M-271.8489990234375,-106.21499633789062 C-271.8489990234375,-106.21499633789062 1937.1510009765625,-106.21499633789062 1937.1510009765625,-106.21499633789062 C1937.1510009765625,-106.21499633789062 1937.1510009765625,973.7849731445312 1937.1510009765625,973.7849731445312 C1937.1510009765625,973.7849731445312 -271.8489990234375,973.7849731445312 -271.8489990234375,973.7849731445312 C-271.8489990234375,973.7849731445312 -271.8489990234375,-106.21499633789062 -271.8489990234375,-106.21499633789062z M-271.8489990234375,973.7849731445312 C-271.8489990234375,973.7849731445312 1937.1510009765625,973.7849731445312 1937.1510009765625,973.7849731445312 C1937.1510009765625,973.7849731445312 1937.1510009765625,-106.21499633789062 1937.1510009765625,-106.21499633789062 C1937.1510009765625,-106.21499633789062 -271.8489990234375,-106.21499633789062 -271.8489990234375,-106.21499633789062 C-271.8489990234375,-106.21499633789062 -271.8489990234375,973.7849731445312 -271.8489990234375,973.7849731445312z M1.7009999752044678,-10.840999603271484 C1.7009999752044678,-10.840999603271484 1.7009999752044678,-10.840999603271484 1.7009999752044678,-10.840999603271484 C11.329000473022461,-9.651000022888184 18.16900062561035,-0.8809999823570251 16.979000091552734,8.746999740600586 C16.979000091552734,8.746999740600586 16.871000289916992,9.619000434875488 16.871000289916992,9.619000434875488 C16.69700050354004,11.029000282287598 15.411999702453613,12.031000137329102 14.00100040435791,11.857000350952148 C14.00100040435791,11.857000350952148 -15.755999565124512,8.178000450134277 -15.755999565124512,8.178000450134277 C-17.16699981689453,8.003999710083008 -18.16900062561035,6.718999862670898 -17.9950008392334,5.308000087738037 C-17.9950008392334,5.308000087738037 -17.886999130249023,4.436999797821045 -17.886999130249023,4.436999797821045 C-16.69700050354004,-5.190999984741211 -7.927000045776367,-12.031000137329102 1.7009999752044678,-10.840999603271484z"></path><g opacity="1" transform="matrix(1,0,0,1,0,0)"></g></g></g><g mask="url(#__lottie_element_150)" style="display: block;"><g transform="matrix(3.4903852939605713,0,0,3.4910624027252197,109.55551147460938,62.78878402709961)" opacity="1"><g opacity="1" transform="matrix(1,0,0,1,52.90999984741211,45.965999603271484)"><path fill="rgb(70,70,107)" fill-opacity="1" d=" M16.231000900268555,-11.223999977111816 C17.402999877929688,-1.7430000305175781 10.668000221252441,6.892000198364258 1.187000036239624,8.064000129699707 C-8.293999671936035,9.237000465393066 -16.93000030517578,2.500999927520752 -18.101999282836914,-6.980000019073486 C-19.27400016784668,-16.459999084472656 -12.538000106811523,-25.09600067138672 -3.056999921798706,-26.26799964904785 C6.422999858856201,-27.440000534057617 15.059000015258789,-20.704999923706055 16.231000900268555,-11.223999977111816z"></path></g><g opacity="1" transform="matrix(1,0,0,1,119.45500183105469,45.965999603271484)"><path fill="rgb(70,70,107)" fill-opacity="1" d=" M-23.85700035095215,-11.223999977111816 C-25.02899932861328,-1.7430000305175781 -18.29400062561035,6.890999794006348 -8.812999725341797,8.064000129699707 C0.6679999828338623,9.237000465393066 9.303999900817871,2.500999927520752 10.47599983215332,-6.980000019073486 C11.64799976348877,-16.459999084472656 4.9120001792907715,-25.09600067138672 -4.568999767303467,-26.26799964904785 C-14.048999786376953,-27.440000534057617 -22.684999465942383,-20.704999923706055 -23.85700035095215,-11.223999977111816z"></path></g></g></g><g transform="matrix(3.72700572013855,0,0,3.72700572013855,78.6158218383789,49.43916320800781)" opacity="1" style="display: block;"><g opacity="1" transform="matrix(1,0,0,1,22.96299934387207,72.61000061035156)"><path fill="rgb(238,182,80)" fill-opacity="1" d=" M6.5320000648498535,-4.883999824523926 C6.5320000648498535,-4.883999824523926 -6.5320000648498535,-6.420000076293945 -6.5320000648498535,6.421000003814697"></path></g><g opacity="1" transform="matrix(1,0,0,1,149.4010009765625,72.61000061035156)"><path fill="rgb(238,182,80)" fill-opacity="1" d=" M-6.531000137329102,-4.883999824523926 C-6.531000137329102,-4.883999824523926 6.531000137329102,-6.420000076293945 6.531000137329102,6.421000003814697"></path></g></g><g clip-path="url(#__lottie_element_135)" transform="matrix(1.132759928703308,0,0,1.277003288269043,-166.56707763671875,-245.60565185546875)" opacity="1" style="display: block;"><g transform="matrix(3.080169916152954,0,0,3.080169916152954,233.56680297851562,218.1641082763672)" opacity="1" style="display: block;"><g opacity="1" transform="matrix(1,0,0,1,86.18199920654297,111.76000213623047)"><path fill="rgb(70,70,107)" fill-opacity="1" d=" M55.31999969482422,-32.56800079345703 C55.31999969482422,-32.56800079345703 -55.31999969482422,-32.56800079345703 -55.31999969482422,-32.56800079345703 C-58.03099822998047,-32.56800079345703 -60.22700119018555,-30.3700008392334 -60.22700119018555,-27.659000396728516 C-60.22700119018555,5.604000091552734 -33.26300048828125,32.56800079345703 -0.0010000000474974513,32.56800079345703 C33.262001037597656,32.56800079345703 60.22700119018555,5.604000091552734 60.22700119018555,-27.659000396728516 C60.22700119018555,-30.3700008392334 58.03099822998047,-32.56800079345703 55.31999969482422,-32.56800079345703z"></path></g></g><g mask="url(#__lottie_element_138)" style="display: block;"><g transform="matrix(3.080169916152954,0,0,3.080169916152954,233.56680297851562,218.16311645507812)" opacity="1"><g opacity="1" transform="matrix(1,0,0,1,86.18199920654297,86.22000122070312)"><path fill="rgb(255,255,255)" fill-opacity="1" d=" M-50.720001220703125,-10.597999572753906 C-50.720001220703125,-10.597999572753906 -50.1619987487793,1.5750000476837158 -49.6510009765625,3.388000011444092 C-49.04600143432617,5.538000106811523 -47.09000015258789,7.0269999504089355 -44.85599899291992,7.0269999504089355 C-44.85599899291992,7.0269999504089355 44.85599899291992,7.0269999504089355 44.85599899291992,7.0269999504089355 C47.09000015258789,7.0269999504089355 49.04600143432617,5.538000106811523 49.6510009765625,3.388000011444092 C50.1619987487793,1.5750000476837158 50.76300048828125,-10.597999572753906 50.76300048828125,-10.597999572753906 C50.76300048828125,-10.597999572753906 -50.720001220703125,-10.597999572753906 -50.720001220703125,-10.597999572753906z"></path></g><g opacity="1" transform="matrix(1,0,0,1,86.18199920654297,131.5780029296875)"><path fill="rgb(225,83,83)" fill-opacity="1" d=" M0.020999999716877937,22.652000427246094 C14.430999755859375,22.652000427246094 37.16600036621094,8.944999694824219 37.99800109863281,-0.7580000162124634 C14.085000038146973,-12.75 -14.085000038146973,-12.75 -37.99800109863281,-0.7580000162124634 C-34.42100143432617,12.840999603271484 -14.388999938964844,22.652000427246094 0.020999999716877937,22.652000427246094z"></path></g></g></g></g><g transform="matrix(3.7267348766326904,0,0,3.7274577617645264,78.63542938232422,41.70654296875)" opacity="1" style="display: block;"><g opacity="1" transform="matrix(1,0,0,1,46.63199996948242,27.94300079345703)"><path stroke-linecap="round" stroke-linejoin="miter" fill-opacity="0" stroke-miterlimit="10" stroke="rgb(70,70,107)" stroke-opacity="1" stroke-width="8.414" d=" M-11.432000160217285,6.9079999923706055 C-11.432000160217285,6.9079999923706055 -2.5399999618530273,-6.9079999923706055 11.432000160217285,-3.3459999561309814"></path></g><g opacity="1" transform="matrix(1,0,0,1,125.73200225830078,27.94300079345703)"><path stroke-linecap="round" stroke-linejoin="miter" fill-opacity="0" stroke-miterlimit="10" stroke="rgb(70,70,107)" stroke-opacity="1" stroke-width="8.414" d=" M11.432000160217285,6.9079999923706055 C11.432000160217285,6.9079999923706055 2.5399999618530273,-6.9079999923706055 -11.432000160217285,-3.3459999561309814"></path></g></g><g transform="matrix(0,0,0,0,297.6200256347656,677.9931640625)" opacity="1" style="display: block;"><g opacity="1" transform="matrix(1,0,0,1,36.5620002746582,65.64600372314453)"><path fill="rgb(108,171,208)" fill-opacity="1" d=" M0,8.35099983215332 C0,8.35099983215332 0,8.35099983215332 0,8.35099983215332 C-3.5899999141693115,8.35099983215332 -6.139999866485596,4.854000091552734 -5.043000221252441,1.4359999895095825 C-5.043000221252441,1.4359999895095825 0,-8.35099983215332 0,-8.35099983215332 C0,-8.35099983215332 5.043000221252441,1.4359999895095825 5.043000221252441,1.4359999895095825 C6.139999866485596,4.854000091552734 3.5899999141693115,8.35099983215332 0,8.35099983215332z"></path></g></g><g transform="matrix(0,0,0,0,297.6200256347656,677.9931640625)" opacity="1" style="display: none;"><g opacity="1" transform="matrix(1,0,0,1,36.5620002746582,65.64600372314453)"><path fill="rgb(108,171,208)" fill-opacity="1" d=" M0,8.35099983215332 C0,8.35099983215332 0,8.35099983215332 0,8.35099983215332 C-3.5899999141693115,8.35099983215332 -6.139999866485596,4.854000091552734 -5.043000221252441,1.4359999895095825 C-5.043000221252441,1.4359999895095825 0,-8.35099983215332 0,-8.35099983215332 C0,-8.35099983215332 5.043000221252441,1.4359999895095825 5.043000221252441,1.4359999895095825 C6.139999866485596,4.854000091552734 3.5899999141693115,8.35099983215332 0,8.35099983215332z"></path></g></g></g></svg>