<svg xmlns="http://www.w3.org/2000/svg" viewBox="0 0 800 800" width="800" height="800" preserveAspectRatio="xMidYMid meet" style="width: 100%; height: 100%; transform: translate3d(0px, 0px, 0px);"><defs><clipPath id="__lottie_element_156"><rect width="800" height="800" x="0" y="0"></rect></clipPath><clipPath id="__lottie_element_177"><path d="M0,0 L1000,0 L1000,1000 L0,1000z"></path></clipPath><mask id="__lottie_element_180" mask-type="alpha"><g transform="matrix(3.074579954147339,0,0,3.074579954147339,234.3038330078125,227.11993408203125)" opacity="1" style="display: block;"><g opacity="1" transform="matrix(1,0,0,1,86.18199920654297,148.82400512695312)"><path fill="rgb(70,70,107)" fill-opacity="1" d=" M0,-32.040000915527344 C0,-32.040000915527344 0,-32.040000915527344 0,-32.040000915527344 C-9.685999870300293,-32.040000915527344 -17.538000106811523,-24.187999725341797 -17.538000106811523,-14.501999855041504 C-17.538000106811523,-14.501999855041504 -17.538000106811523,28.520999908447266 -17.538000106811523,28.520999908447266 C-17.538000106811523,30.464000701904297 -15.963000297546387,32.040000915527344 -14.020000457763672,32.040000915527344 C-14.020000457763672,32.040000915527344 14.020000457763672,32.040000915527344 14.020000457763672,32.040000915527344 C15.963000297546387,32.040000915527344 17.538000106811523,30.464000701904297 17.538000106811523,28.520999908447266 C17.538000106811523,28.520999908447266 17.538000106811523,-14.501999855041504 17.538000106811523,-14.501999855041504 C17.538000106811523,-24.187999725341797 9.685999870300293,-32.040000915527344 0,-32.040000915527344z"></path></g></g></mask></defs><g clip-path="url(#__lottie_element_156)"><g transform="matrix(3.895969867706299,0,0,3.62843918800354,64.23362731933594,61.202239990234375)" opacity="1" style="display: block;"><g opacity="1" transform="matrix(1,0,0,1,86.18299865722656,95.86699676513672)"><path fill="rgb(238,182,80)" fill-opacity="1" d=" M85.93299865722656,0 C85.93299865722656,47.45899963378906 47.45899963378906,85.93299865722656 -0.0010000000474974513,85.93299865722656 C-47.459999084472656,85.93299865722656 -85.93299865722656,47.45899963378906 -85.93299865722656,0 C-85.93299865722656,-47.45899963378906 -47.459999084472656,-85.93299865722656 -0.0010000000474974513,-85.93299865722656 C47.45899963378906,-85.93299865722656 85.93299865722656,-47.45899963378906 85.93299865722656,0z"></path></g></g><g transform="matrix(3.895969867706299,0,0,3.62843918800354,64.23362731933594,109.54393768310547)" opacity="1" style="display: block;"><g opacity="1" transform="matrix(1,0,0,1,86.18199920654297,87.60700225830078)"><path fill="rgb(255,204,102)" fill-opacity="1" d=" M72.98899841308594,0 C72.98899841308594,40.310001373291016 40.31100082397461,72.98799896240234 0.0010000000474974513,72.98799896240234 C-40.310001373291016,72.98799896240234 -72.98899841308594,40.310001373291016 -72.98899841308594,0 C-72.98899841308594,-40.310001373291016 -40.310001373291016,-72.98799896240234 0.0010000000474974513,-72.98799896240234 C40.31100082397461,-72.98799896240234 72.98899841308594,-40.310001373291016 72.98899841308594,0z"></path></g></g><g clip-path="url(#__lottie_element_177)" transform="matrix(1.2100000381469727,0,0,1.2100000381469727,-205.00001525878906,-202.16940307617188)" opacity="1" style="display: block;"><g transform="matrix(3.074579954147339,0,0,3.074579954147339,234.3038330078125,227.11993408203125)" opacity="1" style="display: block;"><g opacity="1" transform="matrix(1,0,0,1,86.18199920654297,148.82400512695312)"><path fill="rgb(70,70,107)" fill-opacity="1" d=" M0,-32.040000915527344 C0,-32.040000915527344 0,-32.040000915527344 0,-32.040000915527344 C-9.685999870300293,-32.040000915527344 -17.538000106811523,-24.187999725341797 -17.538000106811523,-14.501999855041504 C-17.538000106811523,-14.501999855041504 -17.538000106811523,28.520999908447266 -17.538000106811523,28.520999908447266 C-17.538000106811523,30.464000701904297 -15.963000297546387,32.040000915527344 -14.020000457763672,32.040000915527344 C-14.020000457763672,32.040000915527344 14.020000457763672,32.040000915527344 14.020000457763672,32.040000915527344 C15.963000297546387,32.040000915527344 17.538000106811523,30.464000701904297 17.538000106811523,28.520999908447266 C17.538000106811523,28.520999908447266 17.538000106811523,-14.501999855041504 17.538000106811523,-14.501999855041504 C17.538000106811523,-24.187999725341797 9.685999870300293,-32.040000915527344 0,-32.040000915527344z"></path><path stroke-linecap="butt" stroke-linejoin="miter" fill-opacity="0" stroke-miterlimit="4" stroke="rgb(255,204,102)" stroke-opacity="1" stroke-width="18" d=" M0,-32.040000915527344 C0,-32.040000915527344 0,-32.040000915527344 0,-32.040000915527344 C-9.685999870300293,-32.040000915527344 -17.538000106811523,-24.187999725341797 -17.538000106811523,-14.501999855041504 C-17.538000106811523,-14.501999855041504 -17.538000106811523,28.520999908447266 -17.538000106811523,28.520999908447266 C-17.538000106811523,30.464000701904297 -15.963000297546387,32.040000915527344 -14.020000457763672,32.040000915527344 C-14.020000457763672,32.040000915527344 14.020000457763672,32.040000915527344 14.020000457763672,32.040000915527344 C15.963000297546387,32.040000915527344 17.538000106811523,30.464000701904297 17.538000106811523,28.520999908447266 C17.538000106811523,28.520999908447266 17.538000106811523,-14.501999855041504 17.538000106811523,-14.501999855041504 C17.538000106811523,-24.187999725341797 9.685999870300293,-32.040000915527344 0,-32.040000915527344z" style="mix-blend-mode: darken;"></path></g></g><g mask="url(#__lottie_element_180)" style="display: block;"><g transform="matrix(3.074579954147339,0,0,3.074579954147339,234.3038330078125,236.8829345703125)" opacity="1"><g opacity="1" transform="matrix(1.213670015335083,0,0,1.213670015335083,86.18199920654297,172.093994140625)"><path fill="rgb(225,83,83)" fill-opacity="1" d=" M0,-8.769000053405762 C-8.859999656677246,-8.769000053405762 -16.180999755859375,-2.197999954223633 -17.365999221801758,6.335000038146973 C-16.909000396728516,7.747000217437744 -15.583999633789062,8.769000053405762 -14.020000457763672,8.769000053405762 C-14.020000457763672,8.769000053405762 14.020000457763672,8.769000053405762 14.020000457763672,8.769000053405762 C15.583999633789062,8.769000053405762 16.909000396728516,7.747000217437744 17.365999221801758,6.335000038146973 C16.180999755859375,-2.197999954223633 8.859999656677246,-8.769000053405762 0,-8.769000053405762z"></path></g></g></g></g><g transform="matrix(3.888918161392212,0,0,3.6218717098236084,63.92802810668945,138.29550170898438)" opacity="1" style="display: block;"><g opacity="1" transform="matrix(1,0,0,1,68.81600189208984,88.15599822998047)"><path fill="rgb(238,182,80)" fill-opacity="1" d=" M-459.4540100097656,-153.2550048828125 C-459.4540100097656,-153.2550048828125 1749.5460205078125,-153.2550048828125 1749.5460205078125,-153.2550048828125 C1749.5460205078125,-153.2550048828125 1749.5460205078125,926.7449951171875 1749.5460205078125,926.7449951171875 C1749.5460205078125,926.7449951171875 -459.4540100097656,926.7449951171875 -459.4540100097656,926.7449951171875 C-459.4540100097656,926.7449951171875 -459.4540100097656,-153.2550048828125 -459.4540100097656,-153.2550048828125z M-459.4540100097656,926.7449951171875 C-459.4540100097656,926.7449951171875 1749.5460205078125,926.7449951171875 1749.5460205078125,926.7449951171875 C1749.5460205078125,926.7449951171875 1749.5460205078125,-153.2550048828125 1749.5460205078125,-153.2550048828125 C1749.5460205078125,-153.2550048828125 -459.4540100097656,-153.2550048828125 -459.4540100097656,-153.2550048828125 C-459.4540100097656,-153.2550048828125 -459.4540100097656,926.7449951171875 -459.4540100097656,926.7449951171875z M7.2729997634887695,-6.480999946594238 C7.2729997634887695,-6.480999946594238 5.039999961853027,6.480999946594238 -7.2729997634887695,2.8369998931884766"></path><g opacity="1" transform="matrix(1,0,0,1,0,0)"></g></g><g opacity="1" transform="matrix(1,0,0,1,103.5479965209961,88.15599822998047)"><path fill="rgb(238,182,80)" fill-opacity="1" d=" M-494.1860046386719,-153.2550048828125 C-494.1860046386719,-153.2550048828125 1714.81396484375,-153.2550048828125 1714.81396484375,-153.2550048828125 C1714.81396484375,-153.2550048828125 1714.81396484375,926.7449951171875 1714.81396484375,926.7449951171875 C1714.81396484375,926.7449951171875 -494.1860046386719,926.7449951171875 -494.1860046386719,926.7449951171875 C-494.1860046386719,926.7449951171875 -494.1860046386719,-153.2550048828125 -494.1860046386719,-153.2550048828125z M-494.1860046386719,926.7449951171875 C-494.1860046386719,926.7449951171875 1714.81396484375,926.7449951171875 1714.81396484375,926.7449951171875 C1714.81396484375,926.7449951171875 1714.81396484375,-153.2550048828125 1714.81396484375,-153.2550048828125 C1714.81396484375,-153.2550048828125 -494.1860046386719,-153.2550048828125 -494.1860046386719,-153.2550048828125 C-494.1860046386719,-153.2550048828125 -494.1860046386719,926.7449951171875 -494.1860046386719,926.7449951171875z M-7.2729997634887695,-6.480999946594238 C-7.2729997634887695,-6.480999946594238 -5.039999961853027,6.480999946594238 7.2729997634887695,2.8369998931884766"></path><g opacity="1" transform="matrix(1,0,0,1,0,0)"></g></g></g><g transform="matrix(3.888918161392212,0,0,3.6218717098236084,63.92802810668945,116.51399230957031)" opacity="1" style="display: block;"><g opacity="1" transform="matrix(1,0,0,1,125.73200225830078,26.16200065612793)"><path stroke-linecap="round" stroke-linejoin="miter" fill-opacity="0" stroke-miterlimit="10" stroke="rgb(70,70,107)" stroke-opacity="1" stroke-width="8.414" d=" M-11.432000160217285,-5.127999782562256 C-11.432000160217285,-5.127999782562256 1.4459999799728394,-3.617000102996826 11.432000160217285,5.127999782562256"></path></g><g opacity="1" transform="matrix(1,0,0,1,46.632999420166016,26.16200065612793)"><path stroke-linecap="round" stroke-linejoin="miter" fill-opacity="0" stroke-miterlimit="10" stroke="rgb(70,70,107)" stroke-opacity="1" stroke-width="8.414" d=" M11.432000160217285,-5.127999782562256 C11.432000160217285,-5.127999782562256 -1.4459999799728394,-3.617000102996826 -11.432000160217285,5.127999782562256"></path></g></g><g transform="matrix(3.888918161392212,0,0,3.6218717098236084,63.92802810668945,138.29550170898438)" opacity="1" style="display: block;"><g opacity="1" transform="matrix(1,0,0,1,54.09700012207031,63.46699905395508)"><path fill="rgb(255,255,255)" fill-opacity="1" d=" M-444.7349853515625,-128.56700134277344 C-444.7349853515625,-128.56700134277344 1764.2650146484375,-128.56700134277344 1764.2650146484375,-128.56700134277344 C1764.2650146484375,-128.56700134277344 1764.2650146484375,951.4329833984375 1764.2650146484375,951.4329833984375 C1764.2650146484375,951.4329833984375 -444.7349853515625,951.4329833984375 -444.7349853515625,951.4329833984375 C-444.7349853515625,951.4329833984375 -444.7349853515625,-128.56700134277344 -444.7349853515625,-128.56700134277344z M-444.7349853515625,951.4329833984375 C-444.7349853515625,951.4329833984375 1764.2650146484375,951.4329833984375 1764.2650146484375,951.4329833984375 C1764.2650146484375,951.4329833984375 1764.2650146484375,-128.56700134277344 1764.2650146484375,-128.56700134277344 C1764.2650146484375,-128.56700134277344 -444.7349853515625,-128.56700134277344 -444.7349853515625,-128.56700134277344 C-444.7349853515625,-128.56700134277344 -444.7349853515625,951.4329833984375 -444.7349853515625,951.4329833984375z M21.368000030517578,0 C21.368000030517578,-11.802000045776367 11.800999641418457,-21.368999481201172 -0.0010000000474974513,-21.368999481201172 C-11.802000045776367,-21.368999481201172 -21.368000030517578,-11.802000045776367 -21.368000030517578,0 C-21.368000030517578,11.802000045776367 -11.802000045776367,21.368999481201172 -0.0010000000474974513,21.368999481201172 C11.800999641418457,21.368999481201172 21.368000030517578,11.802000045776367 21.368000030517578,0z"></path><g opacity="1" transform="matrix(1,0,0,1,0,0)"></g></g><g opacity="1" transform="matrix(1,0,0,1,118.26799774169922,63.46699905395508)"><path fill="rgb(255,255,255)" fill-opacity="1" d=" M-508.9049987792969,-128.56700134277344 C-508.9049987792969,-128.56700134277344 1700.093994140625,-128.56700134277344 1700.093994140625,-128.56700134277344 C1700.093994140625,-128.56700134277344 1700.093994140625,951.4329833984375 1700.093994140625,951.4329833984375 C1700.093994140625,951.4329833984375 -508.9049987792969,951.4329833984375 -508.9049987792969,951.4329833984375 C-508.9049987792969,951.4329833984375 -508.9049987792969,-128.56700134277344 -508.9049987792969,-128.56700134277344z M-508.9049987792969,951.4329833984375 C-508.9049987792969,951.4329833984375 1700.093994140625,951.4329833984375 1700.093994140625,951.4329833984375 C1700.093994140625,951.4329833984375 1700.093994140625,-128.56700134277344 1700.093994140625,-128.56700134277344 C1700.093994140625,-128.56700134277344 -508.9049987792969,-128.56700134277344 -508.9049987792969,-128.56700134277344 C-508.9049987792969,-128.56700134277344 -508.9049987792969,951.4329833984375 -508.9049987792969,951.4329833984375z M-21.368000030517578,0 C-21.368000030517578,-11.802000045776367 -11.802000045776367,-21.368999481201172 0,-21.368999481201172 C11.800999641418457,-21.368999481201172 21.368000030517578,-11.802000045776367 21.368000030517578,0 C21.368000030517578,11.802000045776367 11.800999641418457,21.368999481201172 0,21.368999481201172 C-11.802000045776367,21.368999481201172 -21.368000030517578,11.802000045776367 -21.368000030517578,0z"></path><g opacity="1" transform="matrix(1,0,0,1,0,0)"></g></g></g><g transform="matrix(3.84415340423584,0,0,3.5801808834075928,67.49547576904297,141.1723175048828)" opacity="1" style="display: block;"><g opacity="1" transform="matrix(0.20999999344348907,0,0,0.20999999344348907,55.4622802734375,63.46699905395508)"><path fill="rgb(70,70,107)" fill-opacity="1" d=" M6.557000160217285,0 C6.557000160217285,-7.801000118255615 0.2329999953508377,-14.125 -7.567999839782715,-14.125 C-15.369000434875488,-14.125 -21.69300079345703,-7.801000118255615 -21.69300079345703,0 C-21.69300079345703,7.801000118255615 -15.369000434875488,14.125 -7.567999839782715,14.125 C0.2329999953508377,14.125 6.557000160217285,7.801000118255615 6.557000160217285,0z"></path></g><g opacity="1" transform="matrix(0,0,0,0,56.21500015258789,57.31399917602539)"><path fill="rgb(252,252,251)" fill-opacity="1" d=" M-3.427000045776367,0 C-3.427000045776367,-1.8930000066757202 -1.8930000066757202,-3.427999973297119 0,-3.427999973297119 C1.8930000066757202,-3.427999973297119 3.427000045776367,-1.8930000066757202 3.427000045776367,0 C3.427000045776367,1.8930000066757202 1.8930000066757202,3.427999973297119 0,3.427999973297119 C-1.8930000066757202,3.427999973297119 -3.427000045776367,1.8930000066757202 -3.427000045776367,0z"></path></g><g opacity="1" transform="matrix(0.20999999344348907,0,0,0.20999999344348907,119.13999938964844,63.46699905395508)"><path fill="rgb(70,70,107)" fill-opacity="1" d=" M14.125,0 C14.125,-7.801000118255615 7.801000118255615,-14.125 0,-14.125 C-7.801000118255615,-14.125 -14.125,-7.801000118255615 -14.125,0 C-14.125,7.801000118255615 -7.801000118255615,14.125 0,14.125 C7.801000118255615,14.125 14.125,7.801000118255615 14.125,0z"></path></g><g opacity="1" transform="matrix(0,0,0,0,105.89900207519531,57.31399917602539)"><path fill="rgb(252,252,251)" fill-opacity="1" d=" M-3.427000045776367,0 C-3.427000045776367,-1.8930000066757202 -1.8930000066757202,-3.427999973297119 0,-3.427999973297119 C1.8930000066757202,-3.427999973297119 3.427000045776367,-1.8930000066757202 3.427000045776367,0 C3.427000045776367,1.8930000066757202 1.8930000066757202,3.427999973297119 0,3.427999973297119 C-1.8930000066757202,3.427999973297119 -3.427000045776367,1.8930000066757202 -3.427000045776367,0z"></path></g></g></g></svg>