<svg xmlns="http://www.w3.org/2000/svg" viewBox="0 0 800 800" width="800" height="800" preserveAspectRatio="xMidYMid meet" style="width: 100%; height: 100%; transform: translate3d(0px, 0px, 0px);"><defs><clipPath id="__lottie_element_189"><rect width="800" height="800" x="0" y="0"></rect></clipPath><filter id="__lottie_element_204" filterUnits="objectBoundingBox" x="0%" y="0%" width="100%" height="100%"><feComponentTransfer in="SourceGraphic"><feFuncA type="table" tableValues="1.0 0.0"></feFuncA></feComponentTransfer></filter><mask id="__lottie_element_197" mask-type="alpha"><g filter="url(#__lottie_element_204)"><rect width="800" height="800" x="0" y="0" fill="#ffffff" opacity="0"></rect><g transform="matrix(1.100172519683838,0,0,1.077761173248291,401.2433776855469,363.1507263183594)" opacity="1" style="display: block;"><g opacity="1" transform="matrix(1,0,0,1,2,154)"><path fill="rgb(70,70,107)" fill-opacity="1" d=" M0,-66 C36.42539978027344,-66 66,-36.42539978027344 66,0 C66,36.42539978027344 36.42539978027344,66 0,66 C-36.42539978027344,66 -66,36.42539978027344 -66,0 C-66,-36.42539978027344 -36.42539978027344,-66 0,-66z"></path><path stroke-linecap="butt" stroke-linejoin="miter" fill-opacity="0" stroke-miterlimit="4" stroke="rgb(70,70,107)" stroke-opacity="1" stroke-width="4" d=" M0,-66 C36.42539978027344,-66 66,-36.42539978027344 66,0 C66,36.42539978027344 36.42539978027344,66 0,66 C-36.42539978027344,66 -66,36.42539978027344 -66,0 C-66,-36.42539978027344 -36.42539978027344,-66 0,-66z"></path></g></g></g></mask><mask id="__lottie_element_213" mask-type="alpha"><g transform="matrix(1.100172519683838,0,0,1.077761173248291,401.2433776855469,363.1507263183594)" opacity="1" style="display: block;"><g opacity="1" transform="matrix(1,0,0,1,2,154)"><path fill="rgb(70,70,107)" fill-opacity="1" d=" M0,-66 C36.42539978027344,-66 66,-36.42539978027344 66,0 C66,36.42539978027344 36.42539978027344,66 0,66 C-36.42539978027344,66 -66,36.42539978027344 -66,0 C-66,-36.42539978027344 -36.42539978027344,-66 0,-66z"></path><path stroke-linecap="butt" stroke-linejoin="miter" fill-opacity="0" stroke-miterlimit="4" stroke="rgb(70,70,107)" stroke-opacity="1" stroke-width="4" d=" M0,-66 C36.42539978027344,-66 66,-36.42539978027344 66,0 C66,36.42539978027344 36.42539978027344,66 0,66 C-36.42539978027344,66 -66,36.42539978027344 -66,0 C-66,-36.42539978027344 -36.42539978027344,-66 0,-66z"></path></g></g></mask></defs><g clip-path="url(#__lottie_element_189)"><g transform="matrix(3.743130683898926,0,0,3.8613815307617188,77.222412109375,17.549007415771484)" opacity="1" style="display: block;"><g opacity="1" transform="matrix(1,0,0,1,86.18299865722656,95.86699676513672)"><path fill="rgb(238,182,80)" fill-opacity="1" d=" M-239.3419952392578,-154.3769989013672 C-239.3419952392578,-154.3769989013672 1969.657958984375,-154.3769989013672 1969.657958984375,-154.3769989013672 C1969.657958984375,-154.3769989013672 1969.657958984375,925.6229858398438 1969.657958984375,925.6229858398438 C1969.657958984375,925.6229858398438 -239.3419952392578,925.6229858398438 -239.3419952392578,925.6229858398438 C-239.3419952392578,925.6229858398438 -239.3419952392578,-154.3769989013672 -239.3419952392578,-154.3769989013672z M-239.3419952392578,925.6229858398438 C-239.3419952392578,925.6229858398438 1969.657958984375,925.6229858398438 1969.657958984375,925.6229858398438 C1969.657958984375,925.6229858398438 1969.657958984375,-154.3769989013672 1969.657958984375,-154.3769989013672 C1969.657958984375,-154.3769989013672 -239.3419952392578,-154.3769989013672 -239.3419952392578,-154.3769989013672 C-239.3419952392578,-154.3769989013672 -239.3419952392578,925.6229858398438 -239.3419952392578,925.6229858398438z M85.93299865722656,0 C85.93299865722656,47.45899963378906 47.45899963378906,85.93299865722656 -0.0010000000474974513,85.93299865722656 C-47.459999084472656,85.93299865722656 -85.93299865722656,47.45899963378906 -85.93299865722656,0 C-85.93299865722656,-47.45899963378906 -47.459999084472656,-85.93299865722656 -0.0010000000474974513,-85.93299865722656 C47.45899963378906,-85.93299865722656 85.93299865722656,-47.45899963378906 85.93299865722656,0z"></path><g opacity="1" transform="matrix(1,0,0,1,0,0)"></g></g><g opacity="1" transform="matrix(1,0,0,1,86.18199920654297,87.60700225830078)"><path fill="rgb(255,204,102)" fill-opacity="1" d=" M-239.3419952392578,-146.11599731445312 C-239.3419952392578,-146.11599731445312 1969.657958984375,-146.11599731445312 1969.657958984375,-146.11599731445312 C1969.657958984375,-146.11599731445312 1969.657958984375,933.8839721679688 1969.657958984375,933.8839721679688 C1969.657958984375,933.8839721679688 -239.3419952392578,933.8839721679688 -239.3419952392578,933.8839721679688 C-239.3419952392578,933.8839721679688 -239.3419952392578,-146.11599731445312 -239.3419952392578,-146.11599731445312z M-239.3419952392578,933.8839721679688 C-239.3419952392578,933.8839721679688 1969.657958984375,933.8839721679688 1969.657958984375,933.8839721679688 C1969.657958984375,933.8839721679688 1969.657958984375,-146.11599731445312 1969.657958984375,-146.11599731445312 C1969.657958984375,-146.11599731445312 -239.3419952392578,-146.11599731445312 -239.3419952392578,-146.11599731445312 C-239.3419952392578,-146.11599731445312 -239.3419952392578,933.8839721679688 -239.3419952392578,933.8839721679688z M72.98899841308594,0 C72.98899841308594,40.310001373291016 40.31100082397461,72.98799896240234 0.0010000000474974513,72.98799896240234 C-40.310001373291016,72.98799896240234 -72.98899841308594,40.310001373291016 -72.98899841308594,0 C-72.98899841308594,-40.310001373291016 -40.310001373291016,-72.98799896240234 0.0010000000474974513,-72.98799896240234 C40.31100082397461,-72.98799896240234 72.98899841308594,-40.310001373291016 72.98899841308594,0z"></path><g opacity="1" transform="matrix(1,0,0,1,0,0)"></g></g></g><g transform="matrix(1.100172519683838,0,0,1.077761173248291,401.2433776855469,363.1507263183594)" opacity="1" style="display: block;"><g opacity="1" transform="matrix(1,0,0,1,2,154)"><path fill="rgb(70,70,107)" fill-opacity="1" d=" M0,-66 C36.42539978027344,-66 66,-36.42539978027344 66,0 C66,36.42539978027344 36.42539978027344,66 0,66 C-36.42539978027344,66 -66,36.42539978027344 -66,0 C-66,-36.42539978027344 -36.42539978027344,-66 0,-66z"></path><path stroke-linecap="butt" stroke-linejoin="miter" fill-opacity="0" stroke-miterlimit="4" stroke="rgb(70,70,107)" stroke-opacity="1" stroke-width="4" d=" M0,-66 C36.42539978027344,-66 66,-36.42539978027344 66,0 C66,36.42539978027344 36.42539978027344,66 0,66 C-36.42539978027344,66 -66,36.42539978027344 -66,0 C-66,-36.42539978027344 -36.42539978027344,-66 0,-66z"></path></g></g><g mask="url(#__lottie_element_213)" style="display: block;"><g transform="matrix(2.936560869216919,0,0,3.0090975761413574,151.60780334472656,188.84716796875)" opacity="1"><g opacity="1" transform="matrix(1,0,0,1,86.18199920654297,86.22000122070312)"><path fill="rgb(255,255,255)" fill-opacity="1" d=" M-50.720001220703125,-10.597999572753906 C-50.720001220703125,-10.597999572753906 -50.1619987487793,1.5750000476837158 -49.6510009765625,3.388000011444092 C-49.04600143432617,5.538000106811523 -47.09000015258789,7.0269999504089355 -44.85599899291992,7.0269999504089355 C-44.85599899291992,7.0269999504089355 44.85599899291992,7.0269999504089355 44.85599899291992,7.0269999504089355 C47.09000015258789,7.0269999504089355 49.04600143432617,5.538000106811523 49.6510009765625,3.388000011444092 C50.1619987487793,1.5750000476837158 50.76300048828125,-10.597999572753906 50.76300048828125,-10.597999572753906 C50.76300048828125,-10.597999572753906 -50.720001220703125,-10.597999572753906 -50.720001220703125,-10.597999572753906z"></path></g></g></g><g transform="matrix(3.6934218406677246,0,0,3.809947967529297,81.53639221191406,72.30597686767578)" opacity="1" style="display: block;"><g opacity="1" transform="matrix(1,0,0,1,118.26799774169922,62.64799880981445)"><path fill="rgb(238,182,80)" fill-opacity="1" d=" M-1221.3399658203125,-379.6549987792969 C-1221.3399658203125,-379.6549987792969 987.6599731445312,-379.6549987792969 987.6599731445312,-379.6549987792969 C987.6599731445312,-379.6549987792969 987.6599731445312,700.344970703125 987.6599731445312,700.344970703125 C987.6599731445312,700.344970703125 -1221.3399658203125,700.344970703125 -1221.3399658203125,700.344970703125 C-1221.3399658203125,700.344970703125 -1221.3399658203125,-379.6549987792969 -1221.3399658203125,-379.6549987792969z M-1221.3399658203125,700.344970703125 C-1221.3399658203125,700.344970703125 987.6599731445312,700.344970703125 987.6599731445312,700.344970703125 C987.6599731445312,700.344970703125 987.6599731445312,-379.6549987792969 987.6599731445312,-379.6549987792969 C987.6599731445312,-379.6549987792969 -1221.3399658203125,-379.6549987792969 -1221.3399658203125,-379.6549987792969 C-1221.3399658203125,-379.6549987792969 -1221.3399658203125,700.344970703125 -1221.3399658203125,700.344970703125z M-21.368000030517578,0 C-21.368000030517578,11.802000045776367 -11.802000045776367,21.368999481201172 0,21.368999481201172 C11.800999641418457,21.368999481201172 21.368000030517578,11.802000045776367 21.368000030517578,0 C21.368000030517578,-11.802000045776367 11.800999641418457,-21.368999481201172 0,-21.368999481201172 C-11.802000045776367,-21.368999481201172 -21.368000030517578,-11.802000045776367 -21.368000030517578,0z"></path><g opacity="1" transform="matrix(1,0,0,1,0,0)"></g></g><g opacity="1" transform="matrix(1,0,0,1,54.09700012207031,62.64799880981445)"><path fill="rgb(238,182,80)" fill-opacity="1" d=" M-1157.1689453125,-379.6549987792969 C-1157.1689453125,-379.6549987792969 1051.8310546875,-379.6549987792969 1051.8310546875,-379.6549987792969 C1051.8310546875,-379.6549987792969 1051.8310546875,700.344970703125 1051.8310546875,700.344970703125 C1051.8310546875,700.344970703125 -1157.1689453125,700.344970703125 -1157.1689453125,700.344970703125 C-1157.1689453125,700.344970703125 -1157.1689453125,-379.6549987792969 -1157.1689453125,-379.6549987792969z M-1157.1689453125,700.344970703125 C-1157.1689453125,700.344970703125 1051.8310546875,700.344970703125 1051.8310546875,700.344970703125 C1051.8310546875,700.344970703125 1051.8310546875,-379.6549987792969 1051.8310546875,-379.6549987792969 C1051.8310546875,-379.6549987792969 -1157.1689453125,-379.6549987792969 -1157.1689453125,-379.6549987792969 C-1157.1689453125,-379.6549987792969 -1157.1689453125,700.344970703125 -1157.1689453125,700.344970703125z M21.368999481201172,0 C21.368999481201172,11.802000045776367 11.802000045776367,21.368999481201172 0,21.368999481201172 C-11.800999641418457,21.368999481201172 -21.368999481201172,11.802000045776367 -21.368999481201172,0 C-21.368999481201172,-11.802000045776367 -11.800999641418457,-21.368999481201172 0,-21.368999481201172 C11.802000045776367,-21.368999481201172 21.368999481201172,-11.802000045776367 21.368999481201172,0z"></path><g opacity="1" transform="matrix(1,0,0,1,0,0)"></g></g><g opacity="1" transform="matrix(1,0,0,1,54.09700012207031,66.73999786376953)"><path stroke-linecap="butt" stroke-linejoin="miter" fill-opacity="0" stroke-miterlimit="10" stroke="rgb(70,70,107)" stroke-opacity="1" stroke-width="8.414" d=" M21.97800064086914,-5.068999767303467 C10.151000022888184,5.067999839782715 -10.151000022888184,5.067999839782715 -21.97800064086914,-5.068999767303467"></path></g><g opacity="1" transform="matrix(1,0,0,1,118.26799774169922,66.73999786376953)"><path stroke-linecap="butt" stroke-linejoin="miter" fill-opacity="0" stroke-miterlimit="10" stroke="rgb(70,70,107)" stroke-opacity="1" stroke-width="8.414" d=" M21.97800064086914,-5.068999767303467 C10.151000022888184,5.067999839782715 -10.151000022888184,5.067999839782715 -21.97800064086914,-5.068999767303467"></path></g></g><g mask="url(#__lottie_element_197)" style="display: block;"><g transform="matrix(3.8456926345825195,0,0,4.073911666870117,62.445106506347656,-264.8388366699219)" opacity="1"><g opacity="1" transform="matrix(1,0,0,1,86.15599822998047,217.7550048828125)"><path fill="rgb(108,171,208)" fill-opacity="1" d=" M-951.75,-739.2529907226562 C-951.75,-739.2529907226562 1257.25,-739.2529907226562 1257.25,-739.2529907226562 C1257.25,-739.2529907226562 1257.25,340.74700927734375 1257.25,340.74700927734375 C1257.25,340.74700927734375 -951.75,340.74700927734375 -951.75,340.74700927734375 C-951.75,340.74700927734375 -951.75,-739.2529907226562 -951.75,-739.2529907226562z M-951.75,340.74700927734375 C-951.75,340.74700927734375 1257.25,340.74700927734375 1257.25,340.74700927734375 C1257.25,340.74700927734375 1257.25,-739.2529907226562 1257.25,-739.2529907226562 C1257.25,-739.2529907226562 -951.75,-739.2529907226562 -951.75,-739.2529907226562 C-951.75,-739.2529907226562 -951.75,340.74700927734375 -951.75,340.74700927734375z M0,12.541000366210938 C0,12.541000366210938 0,12.541000366210938 0,12.541000366210938 C-1.7799999713897705,12.541000366210938 -3.2239999771118164,11.097999572753906 -3.2239999771118164,9.317000389099121 C-3.2239999771118164,9.317000389099121 -3.2239999771118164,-12.541000366210938 -3.2239999771118164,-12.541000366210938 C-3.2239999771118164,-12.541000366210938 3.2239999771118164,-12.541000366210938 3.2239999771118164,-12.541000366210938 C3.2239999771118164,-12.541000366210938 3.2239999771118164,9.317000389099121 3.2239999771118164,9.317000389099121 C3.2239999771118164,11.097999572753906 1.7799999713897705,12.541000366210938 0,12.541000366210938z"></path><g opacity="1" transform="matrix(1,0,0,1,0,0)"></g></g><g opacity="1" transform="matrix(1,0,0,1,89.37999725341797,210.1300048828125)"><path fill="rgb(108,171,208)" fill-opacity="1" d=" M-954.9739990234375,-731.6279907226562 C-954.9739990234375,-731.6279907226562 1254.0260009765625,-731.6279907226562 1254.0260009765625,-731.6279907226562 C1254.0260009765625,-731.6279907226562 1254.0260009765625,348.37200927734375 1254.0260009765625,348.37200927734375 C1254.0260009765625,348.37200927734375 -954.9739990234375,348.37200927734375 -954.9739990234375,348.37200927734375 C-954.9739990234375,348.37200927734375 -954.9739990234375,-731.6279907226562 -954.9739990234375,-731.6279907226562z M-954.9739990234375,348.37200927734375 C-954.9739990234375,348.37200927734375 1254.0260009765625,348.37200927734375 1254.0260009765625,348.37200927734375 C1254.0260009765625,348.37200927734375 1254.0260009765625,-731.6279907226562 1254.0260009765625,-731.6279907226562 C1254.0260009765625,-731.6279907226562 -954.9739990234375,-731.6279907226562 -954.9739990234375,-731.6279907226562 C-954.9739990234375,-731.6279907226562 -954.9739990234375,348.37200927734375 -954.9739990234375,348.37200927734375z M0,4.915999889373779 C0,4.915999889373779 0,4.915999889373779 0,4.915999889373779 C-1.7799999713897705,4.915999889373779 -3.2239999771118164,3.4730000495910645 -3.2239999771118164,1.6920000314712524 C-3.2239999771118164,1.6920000314712524 -3.2239999771118164,-4.915999889373779 -3.2239999771118164,-4.915999889373779 C-3.2239999771118164,-4.915999889373779 3.2239999771118164,-4.915999889373779 3.2239999771118164,-4.915999889373779 C3.2239999771118164,-4.915999889373779 3.2239999771118164,1.6920000314712524 3.2239999771118164,1.6920000314712524 C3.2239999771118164,3.4730000495910645 1.7799999713897705,4.915999889373779 0,4.915999889373779z"></path><g opacity="1" transform="matrix(1,0,0,1,0,0)"></g></g></g></g><g fill="rgb(108,171,208)" stroke="rgb(108,171,208)" stroke-width="5" font-size="40" font-family="Rubik" font-style="normal" font-weight="400" arial-label="Z" transform="matrix(0.005456255748867989,-0.004743050783872604,0.004743050783872604,0.005456255748867989,510.8004150390625,170.68373107910156)" opacity="1" style="display: block;"><path stroke-linecap="butt" stroke-linejoin="round" stroke-miterlimit="4" d=" M-9.44,0 C-9.44,0 9.44,0 9.44,0 C9.73,0 9.97,-0.09 10.14,-0.26 C10.31,-0.43 10.4,-0.65 10.4,-0.92 C10.4,-0.92 10.4,-2.52 10.4,-2.52 C10.4,-2.81 10.31,-3.05 10.14,-3.22 C9.97,-3.39 9.73,-3.48 9.44,-3.48 C9.44,-3.48 -5.28,-3.48 -5.28,-3.48 C-5.28,-3.48 9.48,-23.92 9.48,-23.92 C9.64,-24.19 9.77,-24.41 9.86,-24.6 C9.95,-24.79 10,-25.03 10,-25.32 C10,-25.32 10,-27.04 10,-27.04 C10,-27.33 9.91,-27.57 9.74,-27.74 C9.57,-27.91 9.33,-28 9.04,-28 C9.04,-28 -9.08,-28 -9.08,-28 C-9.35,-28 -9.57,-27.91 -9.74,-27.74 C-9.91,-27.57 -10,-27.33 -10,-27.04 C-10,-27.04 -10,-25.44 -10,-25.44 C-10,-25.17 -9.91,-24.95 -9.74,-24.78 C-9.57,-24.61 -9.35,-24.52 -9.08,-24.52 C-9.08,-24.52 5.12,-24.52 5.12,-24.52 C5.12,-24.52 -9.76,-4.16 -9.76,-4.16 C-9.92,-3.95 -10.06,-3.73 -10.18,-3.52 C-10.3,-3.31 -10.36,-3.03 -10.36,-2.68 C-10.36,-2.68 -10.36,-0.96 -10.36,-0.96 C-10.36,-0.67 -10.27,-0.43 -10.1,-0.26 C-9.93,-0.09 -9.71,0 -9.44,0z" style="display: inherit;"></path></g><g fill="rgb(108,171,208)" stroke="rgb(108,171,208)" stroke-width="5" font-size="40" font-family="Rubik" font-style="normal" font-weight="400" arial-label="Z" style="display: block;" transform="matrix(3.8046035766601562,0,0,3.8046035766601562,640.7265014648438,173.18515014648438)" opacity="1"><path stroke-linecap="butt" stroke-linejoin="round" stroke-miterlimit="4" d=" M-9.44,0 C-9.44,0 9.44,0 9.44,0 C9.73,0 9.97,-0.09 10.14,-0.26 C10.31,-0.43 10.4,-0.65 10.4,-0.92 C10.4,-0.92 10.4,-2.52 10.4,-2.52 C10.4,-2.81 10.31,-3.05 10.14,-3.22 C9.97,-3.39 9.73,-3.48 9.44,-3.48 C9.44,-3.48 -5.28,-3.48 -5.28,-3.48 C-5.28,-3.48 9.48,-23.92 9.48,-23.92 C9.64,-24.19 9.77,-24.41 9.86,-24.6 C9.95,-24.79 10,-25.03 10,-25.32 C10,-25.32 10,-27.04 10,-27.04 C10,-27.33 9.91,-27.57 9.74,-27.74 C9.57,-27.91 9.33,-28 9.04,-28 C9.04,-28 -9.08,-28 -9.08,-28 C-9.35,-28 -9.57,-27.91 -9.74,-27.74 C-9.91,-27.57 -10,-27.33 -10,-27.04 C-10,-27.04 -10,-25.44 -10,-25.44 C-10,-25.17 -9.91,-24.95 -9.74,-24.78 C-9.57,-24.61 -9.35,-24.52 -9.08,-24.52 C-9.08,-24.52 5.12,-24.52 5.12,-24.52 C5.12,-24.52 -9.76,-4.16 -9.76,-4.16 C-9.92,-3.95 -10.06,-3.73 -10.18,-3.52 C-10.3,-3.31 -10.36,-3.03 -10.36,-2.68 C-10.36,-2.68 -10.36,-0.96 -10.36,-0.96 C-10.36,-0.67 -10.27,-0.43 -10.1,-0.26 C-9.93,-0.09 -9.71,0 -9.44,0z" style="display: inherit;"></path></g></g></svg>