<svg xmlns="http://www.w3.org/2000/svg" viewBox="0 0 800 800" width="800" height="800" preserveAspectRatio="xMidYMid meet" style="width: 100%; height: 100%; transform: translate3d(0px, 0px, 0px);"><defs><clipPath id="__lottie_element_219"><rect width="800" height="800" x="0" y="0"></rect></clipPath><mask id="__lottie_element_228" mask-type="alpha"><g transform="matrix(3.72700572013855,0,0,3.72700572013855,78.79547119140625,43.282806396484375)" opacity="1" style="display: block;"><g opacity="1" transform="matrix(1,0,0,1,86.18299865722656,95.86699676513672)"><path fill="rgb(238,182,80)" fill-opacity="1" d=" M85.93299865722656,0 C85.93299865722656,47.45899963378906 47.45899963378906,85.93299865722656 -0.0010000000474974513,85.93299865722656 C-47.459999084472656,85.93299865722656 -85.93299865722656,47.45899963378906 -85.93299865722656,0 C-85.93299865722656,-47.45899963378906 -47.459999084472656,-85.93299865722656 -0.0010000000474974513,-85.93299865722656 C47.45899963378906,-85.93299865722656 85.93299865722656,-47.45899963378906 85.93299865722656,0z"></path></g></g></mask></defs><g clip-path="url(#__lottie_element_219)"><g transform="matrix(3.72700572013855,0,0,3.72700572013855,78.79547119140625,43.282806396484375)" opacity="1" style="display: block;"><g opacity="1" transform="matrix(1,0,0,1,86.18299865722656,95.86699676513672)"><path fill="rgb(238,182,80)" fill-opacity="1" d=" M85.93299865722656,0 C85.93299865722656,47.45899963378906 47.45899963378906,85.93299865722656 -0.0010000000474974513,85.93299865722656 C-47.459999084472656,85.93299865722656 -85.93299865722656,47.45899963378906 -85.93299865722656,0 C-85.93299865722656,-47.45899963378906 -47.459999084472656,-85.93299865722656 -0.0010000000474974513,-85.93299865722656 C47.45899963378906,-85.93299865722656 85.93299865722656,-47.45899963378906 85.93299865722656,0z"></path></g></g><g mask="url(#__lottie_element_228)" style="display: block;"><g transform="matrix(3.72700572013855,0,0,3.72700572013855,78.98929595947266,89.26288604736328)" opacity="1"><g opacity="1" transform="matrix(1,0,0,1,86.18199920654297,87.60700225830078)"><path fill="rgb(255,204,102)" fill-opacity="1" d=" M72.98899841308594,0 C72.98899841308594,40.310001373291016 40.31100082397461,72.98799896240234 0.0010000000474974513,72.98799896240234 C-40.310001373291016,72.98799896240234 -72.98899841308594,40.310001373291016 -72.98899841308594,0 C-72.98899841308594,-40.310001373291016 -40.310001373291016,-72.98799896240234 0.0010000000474974513,-72.98799896240234 C40.31100082397461,-72.98799896240234 72.98899841308594,-40.310001373291016 72.98899841308594,0z"></path></g></g></g><g transform="matrix(-3.634016752243042,0,0,-3.634016752243042,702.1444091796875,577.8305053710938)" opacity="1" style="display: block;"><g opacity="1" transform="matrix(0.999994158744812,-0.0034208386205136776,0.0034208386205136776,0.999994158744812,110.9739990234375,36.88199996948242)"><path fill="rgb(255,255,255)" fill-opacity="1" d=" M-6.27400016784668,2.621000051498413 C-6.27400016784668,2.621000051498413 14.25,2.621000051498413 14.25,2.621000051498413 C19.775999069213867,2.621000051498413 24.297000885009766,7.142000198364258 24.297000885009766,12.668000221252441 C24.297000885009766,18.194000244140625 19.775999069213867,22.71500015258789 14.25,22.71500015258789 C14.25,22.71500015258789 -6.27400016784668,22.71500015258789 -6.27400016784668,22.71500015258789 C-11.800000190734863,22.71500015258789 -16.320999145507812,18.194000244140625 -16.320999145507812,12.668000221252441 C-16.320999145507812,7.142000198364258 -11.800000190734863,2.621000051498413 -6.27400016784668,2.621000051498413z"></path></g><g opacity="1" transform="matrix(0.999994158744812,-0.0034208386205136776,0.0034208386205136776,0.999994158744812,110.9739990234375,36.88199996948242)"><path fill="rgb(255,255,255)" fill-opacity="1" d=" M-70.2030029296875,2.4019999504089355 C-70.2030029296875,2.4019999504089355 -49.67900085449219,2.4019999504089355 -49.67900085449219,2.4019999504089355 C-44.15299987792969,2.4019999504089355 -39.63199996948242,6.922999858856201 -39.63199996948242,12.449000358581543 C-39.63199996948242,17.975000381469727 -44.15299987792969,22.496000289916992 -49.67900085449219,22.496000289916992 C-49.67900085449219,22.496000289916992 -70.2030029296875,22.496000289916992 -70.2030029296875,22.496000289916992 C-75.72899627685547,22.496000289916992 -80.2509994506836,17.975000381469727 -80.2509994506836,12.449000358581543 C-80.2509994506836,6.922999858856201 -75.72899627685547,2.4019999504089355 -70.2030029296875,2.4019999504089355z"></path></g></g><g transform="matrix(1.00135338306427,0,0,0.983255922794342,393.78662109375,478.67999267578125)" opacity="1" style="display: block;"><g opacity="1" transform="matrix(1,0,0,1,-107,-86)"><path fill="rgb(71,71,107)" fill-opacity="1" d=" M0,-11 C6.070899963378906,-11 11,-6.070899963378906 11,0 C11,6.070899963378906 6.070899963378906,11 0,11 C-6.070899963378906,11 -11,6.070899963378906 -11,0 C-11,-6.070899963378906 -6.070899963378906,-11 0,-11z"></path><path stroke-linecap="butt" stroke-linejoin="miter" fill-opacity="0" stroke-miterlimit="4" stroke="rgb(255,204,102)" stroke-opacity="1" stroke-width="0" d=" M0,-11 C6.070899963378906,-11 11,-6.070899963378906 11,0 C11,6.070899963378906 6.070899963378906,11 0,11 C-6.070899963378906,11 -11,6.070899963378906 -11,0 C-11,-6.070899963378906 -6.070899963378906,-11 0,-11z"></path></g><g opacity="1" transform="matrix(1,0,0,1,122.58599853515625,-86)"><path fill="rgb(71,71,107)" fill-opacity="1" d=" M0,-11 C6.070899963378906,-11 11,-6.070899963378906 11,0 C11,6.070899963378906 6.070899963378906,11 0,11 C-6.070899963378906,11 -11,6.070899963378906 -11,0 C-11,-6.070899963378906 -6.070899963378906,-11 0,-11z"></path><path stroke-linecap="butt" stroke-linejoin="miter" fill-opacity="0" stroke-miterlimit="4" stroke="rgb(255,204,102)" stroke-opacity="1" stroke-width="0" d=" M0,-11 C6.070899963378906,-11 11,-6.070899963378906 11,0 C11,6.070899963378906 6.070899963378906,11 0,11 C-6.070899963378906,11 -11,6.070899963378906 -11,0 C-11,-6.070899963378906 -6.070899963378906,-11 0,-11z"></path></g></g><g transform="matrix(3.549361228942871,1.114615797996521,-1.114615797996521,3.549361228942871,132.46676635742188,181.54420471191406)" opacity="1" style="display: block;"><g opacity="1" transform="matrix(1,0,0,1,51.95100021362305,27.97100067138672)"><path stroke-linecap="round" stroke-linejoin="miter" fill-opacity="0" stroke-miterlimit="10" stroke="rgb(70,70,107)" stroke-opacity="1" stroke-width="8.414" d=" M13.541000366210938,-0.3199999928474426 C13.541000366210938,-0.3199999928474426 -13.541000366210938,6.935999870300293 -13.541000366210938,6.935999870300293"></path></g><g opacity="1" transform="matrix(0.9991661310195923,-0.04082935303449631,0.04082935303449631,0.9991661310195923,113.31099700927734,8.491999626159668)"><path stroke-linecap="round" stroke-linejoin="miter" fill-opacity="0" stroke-miterlimit="10" stroke="rgb(70,70,107)" stroke-opacity="1" stroke-width="8.414" d=" M13.541000366210938,-0.3199999928474426 C13.541000366210938,-0.3199999928474426 -13.541000366210938,6.935999870300293 -13.541000366210938,6.935999870300293"></path></g></g><g transform="matrix(-3.677436590194702,0,0,-3.677436590194702,757.2694702148438,960.380859375)" opacity="1" style="display: block;"><g opacity="1" transform="matrix(1,0,0,1,98.89800262451172,122.9990005493164)"><path stroke-linecap="round" stroke-linejoin="round" fill-opacity="0" stroke="rgb(255,204,102)" stroke-opacity="1" stroke-width="23" d=" M-52.362483978271484,-26.442068099975586 C-27.063068389892578,8.073168754577637 33.0788459777832,5.815291881561279 52.2203254699707,-26.73128890991211"></path></g></g><g transform="matrix(-3.677436590194702,0,0,-3.677436590194702,757.2694702148438,960.380859375)" opacity="1" style="display: block;"><g opacity="1" transform="matrix(1,0,0,1,98.89800262451172,122.9990005493164)"><path stroke-linecap="round" stroke-linejoin="round" fill-opacity="0" stroke="rgb(70,70,107)" stroke-opacity="1" stroke-width="8.414" d=" M-52.88199996948242,-26.825000762939453 C-27.368000030517578,8.08899974822998 33.50400161743164,5.785999774932861 52.73699951171875,-27.1200008392334"></path></g></g><g transform="matrix(1.2100096940994263,0,0,1.2100096940994263,399.99627685546875,448.9822692871094)" opacity="1" style="display: block;"><g opacity="1" transform="matrix(1,0,0,1,0,0)"><path fill="rgb(71,71,107)" fill-opacity="1" d=" M-132,-140 C-132,-140 124,-140 124,-140"></path><path stroke-linecap="round" stroke-linejoin="round" fill-opacity="0" stroke="rgb(239,182,80)" stroke-opacity="1" stroke-width="33" d=" M-132,-140 C-132,-140 124,-140 124,-140"></path></g></g><g transform="matrix(1.2100096940994263,0,0,1.2100096940994263,399.99627685546875,382.42913818359375)" opacity="1" style="display: block;"><g opacity="1" transform="matrix(1,0,0,1,0,0)"><path fill="rgb(71,71,107)" fill-opacity="1" d=" M-92,-140 C-92,-140 84,-140 84,-140"></path><path stroke-linecap="round" stroke-linejoin="round" fill-opacity="0" stroke="rgb(239,182,80)" stroke-opacity="1" stroke-width="27" d=" M-92,-140 C-92,-140 84,-140 84,-140"></path></g></g></g></svg>