<svg xmlns="http://www.w3.org/2000/svg" viewBox="0 0 145 145" width="145" height="145" preserveAspectRatio="xMidYMid meet" style="width: 100%; height: 100%; transform: translate3d(0px, 0px, 0px);"><defs><clipPath id="__lottie_element_1611"><rect width="145" height="145" x="0" y="0"></rect></clipPath><clipPath id="__lottie_element_1613"><path d="M0,0 L850,0 L850,850 L0,850z"></path></clipPath></defs><g clip-path="url(#__lottie_element_1611)"><g clip-path="url(#__lottie_element_1613)" transform="matrix(0.20000000298023224,0,0,0.20000000298023224,-12.5,-12.5)" opacity="1" style="display: block;"><g transform="matrix(1,0,0,1,-215.00003051757812,65)" opacity="1" style="display: block;"><g opacity="1" transform="matrix(1,0,0,1,640.4180297851562,361.08599853515625)"><path fill="rgb(109,137,191)" fill-opacity="1" d=" M350,-0.0020000000949949026 C350,193.3040008544922 193.30299377441406,350 -0.003000000026077032,350 C-193.29800415039062,350 -350,193.3040008544922 -350,-0.0020000000949949026 C-350,-193.3000030517578 -193.29800415039062,-350 -0.003000000026077032,-350 C193.30299377441406,-350 350,-193.3000030517578 350,-0.0020000000949949026z"></path></g></g><g transform="matrix(0.8399873375892639,-0.004609310533851385,0.004609310533851385,0.8399873375892639,-103.4437255859375,150.68533325195312)" opacity="1" style="display: block;"><path fill="rgb(255,255,255)" fill-opacity="1" d=" M404.29,304.94 C404.29,304.94 509.5,304.94 509.5,304.94 C512.01,304.94 514.06,306.98 514.06,309.49 C514.06,309.49 514.06,521.6 514.06,521.6 C514.04,524.11 512,526.14 509.5,526.13 C509.5,526.13 404.29,526.13 404.29,526.13 C404.29,526.13 404.29,304.94 404.29,304.94z"></path><g opacity="1" transform="matrix(1,0,0,1,459.1789855957031,415.53900146484375)"></g></g><g transform="matrix(0.8399907350540161,-0.003944034688174725,0.003944034688174725,0.8399907350540161,-103.21903991699219,150.32469177246094)" opacity="1" style="display: block;"><path fill="rgb(255,255,255)" fill-opacity="1" d=" M843.28,416.67 C843.28,416.67 843.85,416.45 843.85,416.45 C858.57,414.22 872.14,401.04 872.14,384.54 C872.14,367.02 857.31,354.97 843.08,353.53 C840.05,353.22 839.85,349.1 842.52,347.61 C852.44,342.17 859.97,331.72 859.97,319.43 C859.97,300.74 841.71,288.07 826.69,288.07 C822.75,287.74 734.5,288.07 722.51,288.07 C721.75,288.07 713.74,284.69 720.01,277.88 C727.43,271.14 735.29,263.15 742,254.09 C760.67,228.9 773.03,196.22 773.82,193.87 C782.11,169.31 774.1,152.41 761,144.58 C748.14,136.9 729.17,141.09 723.75,154.29 C714.25,172.76 699.06,202.93 676.99,224.52 C658.29,242.82 638.13,248.69 616.91,266.89 C587.07,292.49 576.12,320.42 568.02,339.22 C568.02,339.22 540.6,339.22 540.6,339.22 C540.6,339.22 540.6,494.13 540.6,494.13 C540.6,494.13 574.89,494.13 574.89,494.13 C574.89,494.13 597.86,528.82 669.7,528.82 C669.7,528.82 807.71,528.82 807.71,528.82 C821.44,528.96 833.17,520.76 835.37,505.62 C837.01,494.28 832.39,486.67 825.34,480.31 C822.77,476.91 826.83,476.65 826.83,476.65 C842.17,475 852.09,467.78 855.71,455.13 C860.31,439.07 854.42,428.4 842.2,421.8 C838.63,419.87 840.82,416.63 843.28,416.67z"></path><g opacity="1" transform="matrix(1,0,0,1,706.3699951171875,332.61199951171875)"></g></g></g></g></svg>