<svg xmlns="http://www.w3.org/2000/svg" width="88" height="102" fill="none"><rect x=".75" y=".75" width="86.5" height="100.5" rx="3.25" fill="#fff"/><rect x=".75" y=".75" width="86.5" height="100.5" rx="3.25" stroke="#8796a1" stroke-width="1.5"/><path d="M68.796 44.61L57.105 34l-5.845-1c0 3.306-2.965 5.997-6.777 5.997S37.706 36.306 37.706 33l-5.846.999L20 44.302l8.048 7.304 3.897-3.537v21.528h25.161V48.454l3.727 3.383 7.963-7.227z" fill="#718491"/><path d="M14 13a3 3 0 0 1 3-3h54a3 3 0 0 1 3 3v76a3 3 0 0 1-3 3H17a3 3 0 0 1-3-3V13z" fill="#000" fill-opacity=".5"/><g fill="#fff"><rect x="26" y="36.5" width="36" height="5" rx="2.5"/><rect x="36.597" y="44" width="14.806" height="5" rx="2.5"/><rect x="26.641" y="54.141" width="34.719" height="10.719" rx="1.359" stroke="#fff" stroke-width="1.281"/></g><rect x="35" y="57.5" width="18" height="4" rx="2" fill="#718491"/></svg>