<svg xmlns="http://www.w3.org/2000/svg" width="88" height="102" fill="none"><rect x=".75" y=".75" width="86.5" height="100.5" rx="3.25" fill="#fff"/><rect x=".75" y=".75" width="86.5" height="100.5" rx="3.25" stroke="#8796a1" stroke-width="1.5"/><path d="M10 35a3 3 0 0 1 3-3h30a3 3 0 0 1 3 3v32a3 3 0 0 1-3 3H13a3 3 0 0 1-3-3V35z" fill="#718491"/><path d="M41.133 47.573l-6.261-6.007-3.13-.566c0 1.872-1.588 3.395-3.63 3.395s-3.63-1.523-3.63-3.395l-3.131.566L15 47.399l4.31 4.135 2.087-2.002V61.72h13.475V49.749l1.996 1.915 4.265-4.092z" fill="#fff"/><g fill="#718491"><rect x="52" y="37" width="26" height="4" rx="2"/><rect x="52" y="43" width="14" height="4" rx="2"/><rect x="52.641" y="51.641" width="24.719" height="8.719" rx="1.359" stroke="#718491" stroke-width="1.281"/></g><rect x="57.5" y="54.5" width="15" height="3" rx="1.5" fill="#fff"/></svg>