<svg xmlns="http://www.w3.org/2000/svg" width="88" height="102" fill="none"><rect x=".75" y=".75" width="86.5" height="100.5" rx="3.25" fill="#fff"/><rect x=".75" y=".75" width="86.5" height="100.5" rx="3.25" stroke="#8796a1" stroke-width="1.5"/><rect x="20" y="50" width="48" height="38" rx="2" fill="#718491"/><path d="M59 64.613l-7.187-6.958L48.219 57c0 2.168-1.823 3.933-4.167 3.933S39.885 59.168 39.885 57l-3.594.655L29 64.412l4.948 4.79 2.396-2.319V81h15.469V67.135l2.292 2.218L59 64.613z" fill="#fff"/><g fill="#718491"><rect x="26" y="14" width="36" height="5" rx="2.5"/><rect x="36.597" y="21" width="14.806" height="5" rx="2.5"/><rect x="26.641" y="30.641" width="34.719" height="10.719" rx="1.359" stroke="#718491" stroke-width="1.281"/></g><rect x="35" y="33.844" width="18" height="4" rx="2" fill="#fff"/></svg>