<?xml version="1.0" encoding="utf-8"?>
<!-- Generator: Adobe Illustrator 25.2.0, SVG Export Plug-In . SVG Version: 6.00 Build 0)  -->
<svg version="1.1" id="Layer_1" xmlns="http://www.w3.org/2000/svg" xmlns:xlink="http://www.w3.org/1999/xlink" x="0px" y="0px"
	 width="25px" height="25px" viewBox="0 0 25 25" style="enable-background:new 0 0 25 25;" xml:space="preserve">
<style type="text/css">
	.st0{fill:#1D2327;}
</style>
<g>
	<path class="st0" d="M0,6.5C2.9,4.7,5.9,3,8.8,1.2c0.5-0.3,0.9-0.3,1.3,0c4.9,3,9.9,5.9,14.9,8.8c0,0.1,0,0.2,0,0.2
		c-3,1.8-6,3.6-9,5.4c-0.4,0.2-0.7,0.2-1,0c-5-3-10-5.9-15-8.9C0,6.7,0,6.6,0,6.5z M3.8,7.6c3.3,2,6.6,3.9,9.8,5.9
		c0.1,0.1,0.3,0.1,0.4,0c1.1-0.5,2.1-0.4,3.1,0.2c1.4-0.8,2.7-1.6,4.1-2.5c-1.2-0.8-1.2-1.3-0.1-2c0,0,0,0,0,0
		c-3.3-2-6.5-3.9-9.8-5.8c-0.1-0.1-0.3-0.1-0.4,0C9.9,3.8,9,3.8,8.1,3.3C8,3.3,7.8,3.2,7.7,3.3C6.4,4.1,5.1,4.8,3.8,5.6
		C4.8,6.4,4.8,6.8,3.8,7.6z"/>
	<path class="st0" d="M0.1,10.8c0.7-0.8,1.2-0.6,2-0.2c4.3,2.6,8.7,5.2,13.1,7.8c0.3,0.2,0.5,0.2,0.8,0c2.3-1.4,4.7-2.8,7-4.2
		c0.9-0.5,1-0.5,1.9,0.3c-1.8,1.1-3.6,2.2-5.5,3.3c-1.2,0.7-2.3,1.4-3.5,2.1c-0.2,0.1-0.5,0.1-0.6,0c-5-2.9-10-5.9-14.9-8.9
		C0.3,10.9,0.2,10.8,0.1,10.8z"/>
	<path class="st0" d="M0,14.8c0.4-0.2,0.7-0.4,1-0.6c0.1-0.1,0.4,0.1,0.5,0.2c4.4,2.6,8.8,5.2,13.2,7.9c0.2,0.1,0.3,0.3,0.5,0.3
		c0.2,0.1,0.5,0.1,0.7,0c2.4-1.4,4.8-2.8,7.1-4.3c0.5-0.3,0.9-0.4,1.4,0c0.1,0.1,0.2,0.2,0.4,0.3c-0.1,0.1-0.2,0.2-0.3,0.3
		c-2.8,1.7-5.7,3.4-8.5,5.1c-0.3,0.2-0.5,0.2-0.8,0c-5-3-10-6-15-9C0.2,14.9,0.2,14.8,0,14.8z"/>
	<path class="st0" d="M12,10.9c-0.6,0-1.7-0.2-2.7-0.9C8,9.1,8,7.7,9.3,6.8c1.7-1.2,4.8-1.2,6.5,0c1.2,0.9,1.2,2.2,0,3.2
		C14.8,10.7,13.7,10.9,12,10.9z M13.2,8.2C13,8,12.8,7.9,12.5,7.7c0.6-0.1,1.1,0,1.5,0.4c0.3,0.3,0.6,0.3,1,0.1
		c-0.6-0.9-1.5-1.1-2.5-1.1c-0.4,0-1,0.1-1.4,0C11.1,7,11,7.2,10.9,7.2l0.2,0.3c-0.3,0-0.6,0-0.6,0l-0.2,0.2l0.3,0.2
		c-0.5,0.8-0.3,1.3,0.5,1.7c0.8,0.4,1,0.4,1.2-0.1c-1.3-0.7-1.3-0.7-1.1-1.2c0.4,0,0.7,0.7,1.2,0.1l-0.9-0.6
		C12.2,7.7,12.6,8.7,13.2,8.2z"/>
	<path class="st0" d="M9,5.8C8.1,6.5,8.2,6.5,6.7,5.5C7.7,4.7,7.5,4.8,9,5.8z"/>
	<path class="st0" d="M18.3,11.3C17.4,12,17.1,12,16,11C16.8,10.3,17.1,10.3,18.3,11.3z"/>
</g>
</svg>
