<?xml version="1.0" encoding="utf-8"?>
<!-- Generator: Adobe Illustrator 25.2.0, SVG Export Plug-In . SVG Version: 6.00 Build 0)  -->
<svg version="1.1" id="Capa_1" xmlns="http://www.w3.org/2000/svg" xmlns:xlink="http://www.w3.org/1999/xlink" x="0px" y="0px"
	 width="20px" height="20px" viewBox="0 0 20 20" style="enable-background:new 0 0 20 20;" xml:space="preserve">
<style type="text/css">
	.st0{fill:#FFFFFF;}
</style>
<path class="st0" d="M10,0C4.5,0,0,4.5,0,10s4.5,10,10,10s10-4.5,10-10S15.5,0,10,0z M10,2c1.8,0,3.5,0.6,4.9,1.7L3.7,14.9
	C2.6,13.5,2,11.8,2,10C2,5.6,5.6,2,10,2z M10,18c-1.8,0-3.5-0.6-4.9-1.7L16.3,5.1C17.4,6.5,18,8.2,18,10C18,14.4,14.4,18,10,18z"/>
</svg>
