<?xml version="1.0" encoding="utf-8"?>
<!-- Generator: Adobe Illustrator 25.2.0, SVG Export Plug-In . SVG Version: 6.00 Build 0)  -->
<svg version="1.1" id="Layer_1" xmlns="http://www.w3.org/2000/svg" xmlns:xlink="http://www.w3.org/1999/xlink" x="0px" y="0px"
	 width="20px" height="20px" viewBox="0 0 20 20" style="enable-background:new 0 0 20 20;" xml:space="preserve">
<g>
	<path d="M18.1,4.8c-1.5-1.5-3.1-3.1-4.6-4.6C13.4,0.1,13.2,0,13,0C9.9,0,6.7,0,3.6,0C2.4,0,1.8,0.7,1.8,1.9c0,2.7,0,5.4,0,8.1
		c0,2.7,0,5.5,0,8.2c0,1.1,0.7,1.8,1.8,1.8c4.3,0,8.6,0,12.9,0c1.1,0,1.8-0.7,1.8-1.8c0-4.3,0-8.6,0-12.9C18.3,5.1,18.2,5,18.1,4.8z
		 M13.3,2.5C14.1,3.3,15,4.1,15.8,5c-0.8,0-1.6,0-2.5,0C13.3,4.1,13.3,3.3,13.3,2.5z M16.6,18.3c-4.4,0-8.8,0-13.2,0
		c0-5.5,0-11.1,0-16.6c2.7,0,5.5,0,8.2,0c0,0,0,2.2,0,3.2c0,1.1,0.7,1.8,1.8,1.8c1.1,0,2.1,0,3.2,0C16.6,10.6,16.6,14.4,16.6,18.3z"
		/>
	<path d="M8,10.5c-0.3-0.3-0.6-0.6-0.8-0.9c-0.8,0.8-1.6,1.6-2.4,2.4c-0.3,0.3-0.2,0.8,0,1.1c0.7,0.8,1.5,1.6,2.3,2.3
		c0.3-0.3,0.6-0.6,0.9-0.9c-0.7-0.7-1.3-1.3-2-2C6.7,11.8,7.4,11.1,8,10.5z"/>
	<path d="M12.8,9.6c-0.3,0.3-0.6,0.6-0.9,0.9c0.6,0.6,1.3,1.3,2,2c-0.7,0.7-1.3,1.3-2,2c0.3,0.3,0.6,0.6,0.9,0.9
		c0.7-0.7,1.4-1.5,2.2-2.2c0.5-0.5,0.5-0.9,0-1.4C14.3,11.1,13.6,10.3,12.8,9.6z"/>
	<path d="M9,15.8c0.4,0,0.7,0,1,0c0.2,0,0.2-0.1,0.2-0.2c0.3-2.1,0.5-4.3,0.8-6.4c-0.4,0-0.8,0-1.2,0C9.5,11.4,9.2,13.6,9,15.8z"/>
</g>
</svg>
