<?xml version="1.0" encoding="utf-8"?>
<!-- Generator: Adobe Illustrator 25.2.0, SVG Export Plug-In . SVG Version: 6.00 Build 0)  -->
<svg version="1.1" id="Calque_1" xmlns="http://www.w3.org/2000/svg" xmlns:xlink="http://www.w3.org/1999/xlink" x="0px" y="0px"
	 width="22px" height="22px" viewBox="0 0 22 22" style="enable-background:new 0 0 22 22;" xml:space="preserve">
<style type="text/css">
	.st0{fill:#FFFFFF;}
	.st1{opacity:0.5;fill:#FFFFFF;}
	.st2{opacity:0.5;fill:#FFFFFF;enable-background:new    ;}
</style>
<g>
	<path class="st0" d="M21.4,1.9c-1-1-2.7,0.1-3.7,2.2S14,9.6,13.4,9.9c0,0-1.8-1-2.7-1.2C9.8,8.7,9.1,9.9,9.1,9.9l6.9,5.8
		c0,0,1-1,0.8-1.8c-0.2-0.8-1.8-2.7-1.8-2.7S17.8,7.9,20,6S22.4,2.9,21.4,1.9z M14.2,9.8C15.1,9,17.7,5,17.7,5
		C16.3,8.2,14.2,9.8,14.2,9.8z M20.2,3.2c-0.4,0.4-0.8,0.5-1.1,0.3c-0.2-0.2-0.2-0.7,0.2-1.1s0.8-0.5,1.1-0.3
		C20.7,2.3,20.6,2.8,20.2,3.2z"/>
	<g>
		<g>
			<path class="st0" d="M2.8,16.8c0,0.1,0.1,0.1,0.1,0.2C2.9,16.9,2.8,16.9,2.8,16.8z"/>
			<g>
				<path class="st0" d="M4.9,18.6c0,0-0.1-0.1-0.1-0.1C4.8,18.5,4.9,18.5,4.9,18.6z"/>
				<path class="st0" d="M14.1,16.1c-0.4-0.3-0.5-0.7-0.6-1.1c-0.4,0.1-0.8-0.1-1.1-0.4c-0.4-0.3-0.5-0.7-0.6-1.1
					c-0.4,0.1-0.8-0.1-1.1-0.4S10,12.5,10,12.1c-0.4,0.1-0.8-0.1-1.1-0.4c-0.4-0.3-0.7-0.8-0.7-1.3c0.1,0,0.2-0.1,0.3-0.1
					C4.9,12.1,0,11.2,0,11.1C0,12,0,12.8,0.2,13.4C0.1,13,0,12.5,0,12c0.1,0.4,1,4.5,6,3.7l-1.2,0.6c0,0,0,0,0,0
					c-0.5,0.3-1.9,0.5-1.9,0.5s2.4,1.4,5.2,0.4l-0.8,0.4c-0.7,0.7-2.4,0.9-2.4,0.9s2.3,1.1,5.4-0.1L9.4,19l-0.1,0
					c-0.4,0.3-2,0.9-2,0.9C7.4,20,7.5,20,7.6,20c0.6,0.2,3,0.6,5.8-1.2c0.9-0.8,1.7-1.7,2.2-2.3C15,16.6,14.5,16.5,14.1,16.1z
					 M4.7,16.7c0,0,2.4-0.7,3.2-1.9C7.9,14.9,7.3,16.8,4.7,16.7z M0.5,11.7c0,0,3.6,1.2,7.8-0.2C8.3,11.4,4.2,14.3,0.5,11.7z"/>
				<path class="st1" d="M13.5,18.8C10.2,20.9,7.4,20,7.4,20C9.7,21.2,11.9,20.1,13.5,18.8z"/>
			</g>
			<path class="st1" d="M9,19.1L9.4,19l0.8-0.7c-3.1,1.2-5.4,0.1-5.4,0.1C5.7,19.6,8.1,19.2,9,19.1z"/>
		</g>
		<path class="st1" d="M7,17.7l1-0.4c-2.8,1-5.2-0.4-5.2-0.4C3.8,18.5,6.2,17.9,7,17.7z"/>
		<path class="st1" d="M0,12c0.1,4.5,3.9,4.4,4.8,4.3L6,15.7C1,16.5,0.1,12.4,0,12z"/>
		<path class="st0" d="M16.1,15.7L9.1,9.9L16.1,15.7C16.1,15.7,16.1,15.7,16.1,15.7z"/>
	</g>
	<path class="st2" d="M9.1,9.9c-0.3,0.2-0.7,0.4-1,0.5c0,0.5,0.2,1,0.7,1.3c0.4,0.3,0.8,0.4,1.1,0.4c0.1,0.4,0.2,0.8,0.6,1.1
		c0.4,0.3,0.8,0.4,1.1,0.4c0.1,0.4,0.2,0.8,0.6,1.1c0.4,0.3,0.8,0.4,1.1,0.4c0.1,0.4,0.2,0.8,0.6,1.1c0.4,0.4,1,0.4,1.4,0.4
		c0.4-0.5,0.5-0.8,0.5-0.8L9.1,9.9z"/>
</g>
</svg>
