<?xml version="1.0" encoding="utf-8"?>
<!-- Generator: Adobe Illustrator 25.2.0, SVG Export Plug-In . SVG Version: 6.00 Build 0)  -->
<svg version="1.1" id="Calque_1" xmlns="http://www.w3.org/2000/svg" xmlns:xlink="http://www.w3.org/1999/xlink" x="0px" y="0px"
	 width="24px" height="24px" viewBox="0 0 24 24" style="enable-background:new 0 0 24 24;" xml:space="preserve">
<style type="text/css">
	.st0{fill:#FFFFFF;}
</style>
<path class="st0" d="M12.5,12v7.4H2.7V4.5h5.4V3H1.3v21h12.6V11L12.5,12z M7.6,23.1c-0.8,0-1.4-0.6-1.4-1.4s0.6-1.4,1.4-1.4
	S9,20.9,9,21.7S8.4,23.1,7.6,23.1z"/>
<path class="st0" d="M9.8,0v7.5H12v2.3l3.4-2.3h7.3V0H9.8z M12.7,5c-0.7,0-1.2-0.5-1.2-1.2s0.5-1.2,1.2-1.2S14,3,14,3.7
	S13.4,5,12.7,5z M16.3,5C15.6,5,15,4.4,15,3.7s0.5-1.2,1.2-1.2c0.7,0,1.2,0.5,1.2,1.2S16.9,5,16.3,5z M19.8,5
	c-0.7,0-1.2-0.5-1.2-1.2s0.5-1.2,1.2-1.2C20.5,2.5,21,3,21,3.7S20.5,5,19.8,5z"/>
</svg>
