<?xml version="1.0" encoding="utf-8"?>
<!-- Generator: Adobe Illustrator 25.2.0, SVG Export Plug-In . SVG Version: 6.00 Build 0)  -->
<svg version="1.1" id="Calque_1" xmlns="http://www.w3.org/2000/svg" xmlns:xlink="http://www.w3.org/1999/xlink" x="0px" y="0px"
	 width="60px" height="60px" viewBox="0 0 60 60" style="enable-background:new 0 0 60 60;" xml:space="preserve">
<style type="text/css">
	.st0{fill:#6C7F92;}
	.st1{fill:#008A56;}
</style>
<path class="st0" d="M26,7.7C25.1,25.6,9,24,8.9,6.8C8.8-2.6,27.4-2.2,26,7.7z"/>
<path class="st0" d="M26.8,40.5c0-3.1,2-5.8,4.8-6.8c-0.1-2.4,0.4-4.8,1.5-6.9c-3.1-1.9-7.3-2.7-10.7-3.8c-4.8-0.8-8.6-0.2-9.6,0
	C1.4,26.8,0.5,24.5,0,37.5c0,0.7,0,0.8,0.5,1c8.1,4,17.5,3.9,26.3,2.6V40.5z"/>
<path class="st1" d="M56.3,37h-0.9v-4.5c0-5.7-4.9-10.1-10.5-9.7c-5.3,0-9.7,4.3-9.7,9.7V37c-2.3-0.3-4.7,1.2-4.6,3.7
	c0,0,0,15.6,0,15.6c0,2,1.7,3.7,3.7,3.7h22.1c2,0,3.7-1.7,3.7-3.7V40.7C60,38.7,58.3,37,56.3,37z M40.1,32.4c0-3,2.7-5,5.5-4.7
	c2.6,0,4.7,2.1,4.7,4.7V37H40.1V32.4z"/>
</svg>
