<?xml version="1.0" encoding="utf-8"?>
<!-- Generator: Adobe Illustrator 25.2.0, SVG Export Plug-In . SVG Version: 6.00 Build 0)  -->
<svg version="1.1" id="Calque_1" xmlns="http://www.w3.org/2000/svg" xmlns:xlink="http://www.w3.org/1999/xlink" x="0px" y="0px"
	 width="25px" height="25px" viewBox="0 0 25 25" style="enable-background:new 0 0 25 25;" xml:space="preserve">
<style type="text/css">
	.st0{fill:#DB3D3D;}
</style>
<path class="st0" d="M10.8,22.9c-1.9-1.2-1.3-4.7-1.2-5.2l0.4-2.1l-2.1-0.2c-0.3,0-2.9,0-3.2,0c-2.1,0-2.6-0.4-2.8-1v-0.1
	c0.3-0.9,0.3-1.7,0.3-2.3c0-0.3,0-0.8,0-0.9l0.2-0.3l0.1-0.4c0.1-0.4,0.2-0.8,0.2-1.1C2.9,8.7,3,8.2,3.3,8l0,0c0,0,0.5-0.9,0.6-1.1
	C4,6.6,4.1,6.3,4.2,6.1c0.1-0.3,0.2-0.7,0.3-0.9c2.2,0,4.5,0,6.7,0l2.7,0c0.3,0,0.6,0.1,0.7,0.2c0.1,0.1,0.1,0.4,0.1,0.6
	c0,1.1-0.1,3.2,0,7.6c-1.3,0.5-2.1,2.8-2.2,3C11.3,18.4,10.8,20.6,10.8,22.9 M11.3,25c0.8,0,1.4-0.6,1.5-1.5c-0.2-2.1,0.2-4.2,1.4-6
	c0.7-1.2,1-2.3,2.5-2.7c0-0.2,0-6.1,0-8.8c0.1-1.8-1.1-2.7-2.7-2.7c-3.2,0-6.3,0-9.5,0c0,0-0.1,0-0.1,0C2.8,3.3,2.6,5,2.1,6.1
	C2.1,6.3,2.1,6.5,1.9,6.6C1,7.6,1,8.9,0.7,10c-0.9,1.2,0,2.7-0.7,4c0,0.3,0,0.6,0,0.9c0.7,2.3,2.7,2.5,4.7,2.5c0.7,0,2.8,0,3.1,0
	c-0.5,2.8-0.1,6.5,3,7.5C10.9,25,11.1,25,11.3,25L11.3,25z"/>
<path class="st0" d="M18.4,15.9h6.1c0.3,0,0.5-0.2,0.5-0.5V3.5C25,3.2,24.8,3,24.5,3h-6.1c-0.3,0-0.5,0.2-0.5,0.5v11.9
	C17.9,15.7,18.1,15.9,18.4,15.9z M20.8,5c0.6,0,1.1,0.5,1.1,1.1c0,0.6-0.5,1.1-1.1,1.1c-0.6,0-1.1-0.5-1.1-1.1
	C19.7,5.5,20.2,5,20.8,5z"/>
</svg>
