<?xml version="1.0" encoding="utf-8"?>
<!-- Generator: Adobe Illustrator 25.2.0, SVG Export Plug-In . SVG Version: 6.00 Build 0)  -->
<svg version="1.1" id="Calque_1" xmlns="http://www.w3.org/2000/svg" xmlns:xlink="http://www.w3.org/1999/xlink" x="0px" y="0px"
	 width="30px" height="16px" viewBox="0 0 30 16" style="enable-background:new 0 0 30 16;" xml:space="preserve">
<style type="text/css">
	.st0{fill:#1D2327;}
</style>
<g>
	<path class="st0" d="M30,12.9c0-1.4,0-3,0-4.4c0-0.5-0.2-0.9-0.8-1.2c-0.3-0.2-0.6-0.6-0.6-0.9c0-0.2,0-0.5,0.3-0.6
		C30,5.4,30,4.7,30,4.1l0-2.7C30,0,29.8,0,28.6,0C28.5,0,1.4,0,1.4,0C-0.4-0.3,0.2,1.9,0,3l0,2.1l0.3,0.3C0.9,6.1,2,7.1,0.5,7.7
		C-0.3,8,0.2,9.2,0,10c0.2,0.9-0.5,2.9,1.1,2.9c0.5,0,1.3,0,1.7,0c0.2,0.8-0.1,2.7,0.3,2.8C3.6,16.1,4,16,4,16h13.5
		c1.4,0,1.5-0.2,1.5-1.5l0-1.4l1.8,0c0,0.5-0.2,2.1,0.3,2.8c0.2,0.2,0.5,0.2,0.8,0.2c1.8,0,3.6,0,5.4,0c1.5,0,0.7-2.1,0.9-3L30,12.9
		z M26.4,13l0,1.3h-1.2l0-1.3H26.4z M23.5,13l0,1.3h-1.2l0-1.3H23.5z M17.1,13l0,1.3h-1.2l0-1.3H17.1z M14.2,13l0,1.3H13l0-1.3H14.2
		z M11.5,13l0,1.3h-1.4l0-1.3H11.5z M8.6,13l0,1.3H7.4l0-1.3H8.6z M5.8,13l0,1.3H4.6l0-1.3H5.8z M1.7,9.1c0,0,0-0.2,0.3-0.5
		C3,7.5,3.2,5.7,2.1,4.8C1.4,4,1.8,2.6,1.7,1.7l26.6,0c0,0.8,0,1.6,0,2.4c0,0.2-0.3,0.3-0.3,0.5c-1.1,0.9-1.2,2.8-0.2,3.7
		c0.8,0.6,0.5,1.9,0.5,2.9l-26.6,0C1.7,10.6,1.7,9.7,1.7,9.1z"/>
	<g>
		<rect x="11" y="4.3" class="st0" width="2.6" height="3.9"/>
		<rect x="16.5" y="4.3" class="st0" width="2.6" height="3.9"/>
		<rect x="21.9" y="4.3" class="st0" width="2.6" height="3.9"/>
		<rect x="5.6" y="4.3" class="st0" width="2.6" height="3.9"/>
	</g>
</g>
</svg>
