<svg id="securise" xmlns="http://www.w3.org/2000/svg" width="16.5" height="20" viewBox="0 0 16.5 20">
  <path id="Tracé_188" data-name="Tracé 188" d="M10.768,4.7l1.062.933L6.917,12.167H5.589L2.8,8.567,4,7.5,6.12,9.633Z" transform="translate(0.918 1.567)" fill="#fff"/>
  <g id="Groupe_124" data-name="Groupe 124" transform="translate(0)">
    <path id="Tracé_189" data-name="Tracé 189" d="M0,6.667V4c0-.267,0-.4.4-.533C2.922,2.267,5.445,1.2,7.968,0H8.5c2.523,1.067,5.046,2.267,7.7,3.467.133,0,.266.267.266.4a51.49,51.49,0,0,1-.133,6.4A11.235,11.235,0,0,1,8.632,20h-.8A10.724,10.724,0,0,1,.664,12.667,8.875,8.875,0,0,1,0,8.933ZM14.608,7.6V5.2a.734.734,0,0,0-.4-.667C12.35,3.733,10.491,2.933,8.5,2H7.968c-1.992.933-3.851,1.733-5.71,2.533a.616.616,0,0,0-.4.667v4a8.079,8.079,0,0,0,.93,4,9.175,9.175,0,0,0,5.046,4.933,1.119,1.119,0,0,0,.93,0A9.6,9.6,0,0,0,14.209,12,12.4,12.4,0,0,0,14.608,7.6Z" transform="translate(0)" fill="#fff"/>
  </g>
</svg>
