<?xml version="1.0" encoding="utf-8"?>
<!-- Generator: Adobe Illustrator 25.2.0, SVG Export Plug-In . SVG Version: 6.00 Build 0)  -->
<svg version="1.1" id="Calque_1" xmlns="http://www.w3.org/2000/svg" xmlns:xlink="http://www.w3.org/1999/xlink" x="0px" y="0px"
	 width="30px" height="30px" viewBox="0 0 30 30" style="enable-background:new 0 0 30 30;" xml:space="preserve">
<style type="text/css">
	.st0{fill:#1D2327;}
</style>
<g>
	<polygon class="st0" points="24,0 23.9,1.9 26.6,2.1 19.3,9.2 20.7,10.6 27.9,3.5 28.1,6.2 30,6.2 29.6,0.4 	"/>
</g>
<g>
	<polygon class="st0" points="0,6 1.9,6.1 2,3.4 9.1,10.7 10.6,9.3 3.5,2.1 6.2,1.9 6.1,0 0.4,0.4 	"/>
</g>
<g>
	<polygon class="st0" points="6,30 6.1,28.1 3.4,27.9 10.7,20.8 9.3,19.4 2,26.5 1.9,23.8 0,23.8 0.4,29.6 	"/>
</g>
<g>
	<polygon class="st0" points="30,24 28.1,23.9 28,26.6 20.8,19.3 19.4,20.7 26.5,27.9 23.8,28.1 23.9,30 29.6,29.6 	"/>
</g>
</svg>
