<svg width="16" height="16" viewBox="0 0 16 16" fill="none" xmlns="http://www.w3.org/2000/svg">
<path fill-rule="evenodd" clip-rule="evenodd" d="M8.00023 1.84607C5.28128 1.84607 3.07715 4.0502 3.07715 6.76914V12.5384C3.07715 13.0907 3.52486 13.5384 4.07715 13.5384H11.9233C12.4756 13.5384 12.9233 13.0907 12.9233 12.5384V6.76915C12.9233 4.05021 10.7192 1.84607 8.00023 1.84607ZM6.15408 6.15376C5.13447 6.15376 4.30792 6.98031 4.30792 7.99992C4.30792 9.01952 5.13447 9.84607 6.15408 9.84607H9.84639C10.866 9.84607 11.6925 9.01952 11.6925 7.99992C11.6925 6.98031 10.866 6.15376 9.84638 6.15376H6.15408Z" fill="#FFFFFF"/>
<path fill-rule="evenodd" clip-rule="evenodd" d="M6.76886 8.00003C6.76886 8.3399 6.49334 8.61541 6.15347 8.61541C5.8136 8.61541 5.53809 8.3399 5.53809 8.00003C5.53809 7.66016 5.8136 7.38464 6.15347 7.38464C6.49334 7.38464 6.76886 7.66016 6.76886 8.00003ZM10.4612 8.00003C10.4612 8.3399 10.1856 8.61541 9.84578 8.61541C9.50591 8.61541 9.23039 8.3399 9.23039 8.00003C9.23039 7.66016 9.50591 7.38464 9.84578 7.38464C10.1856 7.38464 10.4612 7.66016 10.4612 8.00003Z" fill="#FFFFFF"/>
</svg>
