<svg width="16" height="16" viewBox="0 0 16 16" fill="none" xmlns="http://www.w3.org/2000/svg">
<path opacity="0.5" fill-rule="evenodd" clip-rule="evenodd" d="M7.99955 13.5384C11.0584 13.5384 13.538 11.0587 13.538 7.99992C13.538 4.94111 11.0584 2.46145 7.99955 2.46145C4.94074 2.46145 2.46109 4.94111 2.46109 7.99992C2.46109 11.0587 4.94074 13.5384 7.99955 13.5384ZM7.99955 14.1538C11.3982 14.1538 14.1534 11.3986 14.1534 7.99992C14.1534 4.60124 11.3982 1.84607 7.99955 1.84607C4.60087 1.84607 1.8457 4.60124 1.8457 7.99992C1.8457 11.3986 4.60087 14.1538 7.99955 14.1538Z" fill="#FFFFFF"/>
<path opacity="0.5" fill-rule="evenodd" clip-rule="evenodd" d="M8.00023 12.3077C10.3793 12.3077 12.3079 10.3791 12.3079 7.99998C12.3079 5.62091 10.3793 3.69229 8.00023 3.69229C5.62115 3.69229 3.69253 5.62091 3.69253 7.99998C3.69253 10.3791 5.62115 12.3077 8.00023 12.3077ZM8.00023 12.9231C10.7192 12.9231 12.9233 10.7189 12.9233 7.99998C12.9233 5.28104 10.7192 3.0769 8.00023 3.0769C5.28129 3.0769 3.07715 5.28104 3.07715 7.99998C3.07715 10.7189 5.28129 12.9231 8.00023 12.9231Z" fill="#FFFFFF"/>
<path opacity="0.5" fill-rule="evenodd" clip-rule="evenodd" d="M7.99993 11.0768C9.69926 11.0768 11.0768 9.69926 11.0768 7.99993C11.0768 6.30059 9.69926 4.923 7.99993 4.923C6.30059 4.923 4.923 6.30059 4.923 7.99993C4.923 9.69926 6.30059 11.0768 7.99993 11.0768ZM7.99993 11.6922C10.0391 11.6922 11.6922 10.0391 11.6922 7.99993C11.6922 5.96072 10.0391 4.30762 7.99993 4.30762C5.96072 4.30762 4.30762 5.96072 4.30762 7.99993C4.30762 10.0391 5.96072 11.6922 7.99993 11.6922Z" fill="#FFFFFF"/>
<path opacity="0.5" fill-rule="evenodd" clip-rule="evenodd" d="M7.99962 9.84615C9.01923 9.84615 9.84578 9.01959 9.84578 7.99999C9.84578 6.98039 9.01923 6.15384 7.99962 6.15384C6.98002 6.15384 6.15347 6.98039 6.15347 7.99999C6.15347 9.01959 6.98002 9.84615 7.99962 9.84615ZM7.99962 10.4615C9.35909 10.4615 10.4612 9.35946 10.4612 7.99999C10.4612 6.64052 9.35909 5.53845 7.99962 5.53845C6.64015 5.53845 5.53809 6.64052 5.53809 7.99999C5.53809 9.35946 6.64015 10.4615 7.99962 10.4615Z" fill="#FFFFFF"/>
<ellipse opacity="0.5" cx="8.0003" cy="7.99993" rx="1.23077" ry="1.23077" fill="#FFFFFF"/>
<ellipse cx="4.61538" cy="8.923" rx="0.615384" ry="0.615385" fill="#FFFFFF"/>
<ellipse cx="11.0763" cy="11.6923" rx="0.615384" ry="0.615385" fill="#FFFFFF"/>
<path d="M8 7.99997L12.1538 3.84612C10.8 2.49228 9.23077 2.15381 8 2.15381V7.99997Z" fill="url(#paint0_linear)"/>
<path d="M8 8L12 4" stroke="#FFFFFF" stroke-width="2" stroke-linecap="round" stroke-linejoin="round"/>
<defs>
<linearGradient id="paint0_linear" x1="8.15385" y1="4.76919" x2="12.4052" y2="5.24476" gradientUnits="userSpaceOnUse">
<stop stop-color="white" stop-opacity="0.12"/>
<stop offset="1" stop-color="white"/>
</linearGradient>
</defs>
</svg>
