<svg width="16" height="16" viewBox="0 0 16 16" fill="none" xmlns="http://www.w3.org/2000/svg">
<path fill-rule="evenodd" clip-rule="evenodd" d="M8.0001 11.0769L5.48663 12.3983C5.1858 12.5565 4.81372 12.4408 4.65557 12.14C4.59259 12.0202 4.57086 11.883 4.59374 11.7496L5.07377 8.95079L3.04033 6.96868C2.79696 6.73145 2.79198 6.34184 3.02921 6.09847C3.12368 6.00155 3.24746 5.93848 3.38139 5.91902L6.19153 5.51069L7.44826 2.96427C7.59867 2.6595 7.96767 2.53436 8.27244 2.68478C8.39381 2.74467 8.49204 2.84291 8.55193 2.96427L9.80866 5.51069L12.6188 5.91902C12.9551 5.9679 13.1882 6.28017 13.1393 6.6165C13.1198 6.75043 13.0568 6.87421 12.9599 6.96868L10.9264 8.95079L11.4065 11.7496C11.4639 12.0846 11.2389 12.4027 10.904 12.4601C10.7706 12.483 10.6334 12.4613 10.5136 12.3983L8.0001 11.0769Z" fill="#FFFFFF"/>
</svg>
