<svg width="18px" height="18px" viewBox="0 0 16 16" xmlns="http://www.w3.org/2000/svg" class="svg-icon " xmlns:xlink="http://www.w3.org/1999/xlink"><rect x="1.333" y="2" width="13.333" height="12" rx="2" fill="#FFFFFF"></rect><g fill="#555555"><path d="M6.633 8.877c-.09.272-.346.456-.632.456H3.333c-.368 0-.667-.298-.667-.667S2.965 8 3.333 8H5.52L6.7 4.456a.67.67 0 0 1 1.279.049L9.2 9.423l.527-1.055c.113-.226.344-.37.596-.37h2.333c.368 0 .667.298.667.667s-.298.667-.667.667h-1.92l-1.15 2.298a.67.67 0 0 1-1.243-.137L7.242 7.05l-.61 1.828z"></path><path opacity=".4" fill-rule="evenodd" d="M12.667 4.667c.368 0 .667-.298.667-.667s-.298-.667-.667-.667S12 3.632 12 4s.3.667.667.667z"></path></g></svg>