<?xml version="1.0" encoding="utf-8"?>
<!-- Generator: Adobe Illustrator 26.1.0, SVG Export Plug-In . SVG Version: 6.00 Build 0)  -->
<svg version="1.1" id="Lag_1" xmlns="http://www.w3.org/2000/svg" xmlns:xlink="http://www.w3.org/1999/xlink" x="0px" y="0px"
	 viewBox="0 0 226.8 60.4" style="enable-background:new 0 0 226.8 60.4;" xml:space="preserve" width="227" height="60">
<style type="text/css">
	.st0{fill-rule:evenodd;clip-rule:evenodd;fill:#187FAE;}
	.st1{fill-rule:evenodd;clip-rule:evenodd;fill:#195A7F;}
	.st2{fill:#195A7F;}
</style>
<g id="paypal">
	<path class="st0" d="M177.2,9.5c-5.7,0-10.2,1.5-13.6,2.2l-1.1,8.6c1.7-0.8,7.1-2.3,11.6-2.5c4.5-0.1,7.1,0.8,6.2,4.7
		c-13.3,0-22.3,2.7-24.2,11.4c-2.6,14.8,13.6,14.4,20.1,7.9l-0.8,3.6h11.9l5.1-23.5C194.6,11.8,185.5,9.4,177.2,9.5z M177.9,33.6
		c-0.7,3.1-3.2,4.5-6.2,4.7c-2.6,0.1-5-2.2-3.3-4.9c1.3-2.3,5-2.9,7.3-2.9c0.9,0,2,0,2.9,0C178.3,31.6,178.2,32.5,177.9,33.6z"/>
	<polygon class="st0" points="202.6,0.2 192.8,45.4 204.9,45.4 214.8,0.2 202.6,0.2 	"/>
	<path class="st0" d="M147.2,0.3h-22.1l-9.8,45h12.8l3.3-14.9h9.1c9,0,16.4-5.5,18.4-14.8C161.2,5.1,153.5,0.3,147.2,0.3z
		 M146.8,15.7c-0.8,3.4-4.2,6.2-7.5,6.2h-6l2.6-12.3h6.4C145.6,9.5,147.6,12.3,146.8,15.7z"/>
	<path class="st1" d="M61.5,9.5c-5.6,0-10,1.5-13.3,2.2l-1,8.6c1.6-0.8,6.9-2.3,11.3-2.5c4.4-0.1,7,0.8,6.3,4.7
		c-13.2,0-22,2.7-23.9,11.4c-2.6,14.8,13.4,14.4,19.7,7.9l-0.8,3.6h11.9l5.1-23.5C78.8,11.8,69.7,9.4,61.5,9.5z M62.4,33.6
		c-0.7,3.1-3.3,4.5-6.3,4.7c-2.6,0.1-4.8-2.2-3.1-4.9c1.3-2.3,5-2.9,7-2.9c1,0,2,0,3,0C62.8,31.6,62.5,32.5,62.4,33.6z"/>
	<polygon class="st1" points="81.9,10.2 93.8,10.2 95.7,31.1 107.3,10.2 119.5,10.2 91.3,60.4 78.1,60.4 86.7,45.6 81.9,10.2 	"/>
	<path class="st1" d="M32,0.3H9.8L0,45.4h13l3.2-14.9h9.3c8.9,0,16.3-5.5,18.3-14.8C46,5.1,38.5,0.3,32,0.3z M31.6,15.7
		c-0.8,3.4-4.1,6.2-7.4,6.2H18l2.8-12.3h6.4C30.4,9.5,32.5,12.3,31.6,15.7z"/>
	<path class="st2" d="M217.4,6V0.7h-2V0h4.8v0.7h-2V6H217.4z"/>
	<path class="st2" d="M221,6V0h1.2l1.4,4.3c0.1,0.4,0.2,0.7,0.3,0.9c0.1-0.2,0.2-0.5,0.3-1l1.4-4.2h1.1v6H226V1L224.2,6h-0.7
		l-1.7-5.1V6C221.8,6,221,6,221,6z"/>
</g>
<g id="Layer_1">
</g>
</svg>
