<?xml version="1.0" encoding="utf-8"?>
<!-- Generator: Adobe Illustrator 24.3.0, SVG Export Plug-In . SVG Version: 6.00 Build 0)  -->
<svg version="1.1" id="Layer_1" xmlns="http://www.w3.org/2000/svg" xmlns:xlink="http://www.w3.org/1999/xlink" x="0px" y="0px"
	 viewBox="0 0 960 375" style="enable-background:new 0 0 960 375;" xml:space="preserve">
<style type="text/css">
	.st0{fill:#00E2BD;stroke:#00E2BD;stroke-miterlimit:10;}
</style>
<g transform="translate(0.000000,375.000000) scale(0.100000,-0.100000)">
	<path d="M6472,2157l3-604l30-48c45-72,95-95,207-95h88v55v55l-42,1c-60,0-108,19-132,52c-21,28-21,38-24,608l-3,579h-65h-65
		L6472,2157z"/>
	<path d="M7199,2630c-109-19-206-84-254-171c-24-45-30-68-33-142c-4-83-3-91,28-153c25-51,42-72,76-93c24-14,44-29,44-32
		c0-4-13-12-29-18c-41-18-97-79-123-136c-35-75-33-209,3-286c36-75,96-134,177-172c59-28,79-32,173-35c163-6,271,34,354,131
		c57,66,78,136,73,242c-3,76-8,98-33,144c-31,56-85,108-122,117c-25,7-32,24-10,24c27,0,95,70,118,122c35,79,34,193-4,270
		C7566,2588,7391,2662,7199,2630z M7388,2475c173-73,156-319-27-372c-132-38-259,25-291,145c-22,83,23,182,101,220
		C7225,2495,7332,2498,7388,2475z M7389,1948c39-12,106-70,125-107c51-101,8-228-97-284c-64-33-194-31-262,4c-68,34-107,91-113,164
		C7028,1900,7195,2007,7389,1948z"/>
	<path class="st0" d="M1535,2611c-89-26-131-46-200-96c-316-225-352-681-76-955c144-143,328-206,522-180c308,42,519,266,549,583
		c12,118,23,159,59,212c85,125,249,167,386,100c221-108,221-427,1-543c-44-23-63-27-136-27c-92,0-145,19-201,72c-29,27-31,26-49-32
		c-22-69-60-136-106-185l-44-47l38-25c119-79,224-111,362-111c178,0,314,56,441,183c84,83,126,150,161,255c19,58,23,90,22,190
		c0,104-4,131-27,198c-71,204-239,361-442,412c-76,19-234,19-310,0c-179-45-329-169-415-343c-40-81-50-123-59-237
		c-11-130-36-189-108-255c-146-134-371-95-468,81c-27,49-30,63-30,144c0,74,4,97,23,133c87,163,284,218,437,121c31-20,47-25,50-16
		c2,6,9,30,15,52c17,56,56,121,104,173c39,43,40,44,21,59c-34,26-138,72-200,88C1774,2636,1613,2634,1535,2611z"/>
	<path d="M3670,2016v-606h80h80v189v189l178,4c197,5,238,15,330,75c61,41,123,123,149,196c26,76,24,224-5,297
		c-44,111-122,187-236,234c-46,19-76,21-313,24l-263,3V2016z M4202,2452c195-96,197-398,4-488c-47-22-64-24-213-24h-163v271v271
		l163-4C4138,2475,4160,2472,4202,2452z"/>
	<path d="M4845,2197c-96-32-159-82-216-170c-108-167-79-402,65-535c80-73,133-95,242-100c123-6,178,13,251,82l53,52v-58v-58h75h75
		v390v390h-75h-75v-60v-60l-37,41c-60,66-122,92-228,96C4919,2209,4870,2205,4845,2197z M5084,2053c62-31,95-64,125-124
		c79-157,3-349-155-395c-103-30-196-3-267,75c-51,57-69,104-70,186c-2,134,72,238,192,272C4962,2082,5040,2076,5084,2053z"/>
	<path d="M8091,2179c-41-21-73-45-92-72l-29-40v66v67h-80h-80v-390v-390h80h80v214c0,255,9,294,80,367c52,55,103,72,192,67l58-3v73
		v72h-73C8164,2210,8144,2205,8091,2179z"/>
	<path d="M5600,1907c0-312,5-350,59-424c17-23,50-50,78-64c42-21,62-24,158-24c102,0,113,2,157,27c25,16,62,47,82,70l36,42v-125
		c0-189-27-254-122-293c-75-32-208-15-262,32c-25,23-56,90-56,125v27h-76h-77l7-52c25-193,184-304,406-284c152,13,241,70,296,188
		l29,63l3,488l3,487h-76h-75v-228c0-271-8-313-74-378c-80-81-207-86-283-12c-55,54-63,99-63,375v243h-75h-75V1907z"/>
	<path d="M8364,1641c-36-22-64-75-64-121c0-83,60-140,147-140c44,0,58,5,88,31c19,17,40,48,46,70c16,53-1,108-46,148
		c-30,26-44,31-88,31C8414,1660,8384,1653,8364,1641z M8524,1619c63-55,66-137,7-193c-40-38-112-46-157-18c-32,21-64,76-64,111
		c0,40,28,90,62,111C8423,1661,8482,1657,8524,1619z"/>
	<path d="M8390,1520c0-40,4-70,10-70s10,9,10,20c0,33,30,37,52,7c11-15,27-27,35-27c13,0,13,3-1,25c-15,23-15,27-1,41
		c38,38,10,74-57,74h-48V1520z M8477,1554c7-19-14-35-42-32c-12,2-21,12-23,26c-3,19,1,22,28,22C8459,1570,8473,1564,8477,1554z"/>
</g>
</svg>
