<svg version="1.1" id="Capa_1" xmlns="http://www.w3.org/2000/svg" xmlns:xlink="http://www.w3.org/1999/xlink" x="0px" y="0px"
     viewBox="0 0 20 20" style="enable-background:new 0 0 20 20;" xml:space="preserve">
<path style="fill:#FFFFFF;" d="M6.6,8.6c0-0.3-0.1-0.5-0.3-0.7C6.1,7.8,5.8,7.8,5.5,7.8H4.9l0.1,1.7h0.7c0.4,0,0.7-0.1,0.8-0.3
	C6.6,9.1,6.6,9,6.6,8.6z M16.4,1.8C16.4,1.8,16.5,1.8,16.4,1.8z M6,13.9c0.1-0.1,0.1-0.1,0.1-0.4c0-0.3-0.1-0.4-0.1-0.4
	C5.8,13,5.7,13,5.5,13H4.9l0.1,1h0.5C5.7,14,5.8,14,6,13.9z M16.4,2.1c0.1,0,0.1-0.1,0.1-0.1c0-0.1-0.1-0.1-0.1-0.1
	c-0.1,0-0.1,0.1-0.1,0.1L16.4,2.1z M16.4,1.8C16.4,1.8,16.5,1.8,16.4,1.8C16.5,1.8,16.5,1.8,16.4,1.8C16.5,1.8,16.5,1.8,16.4,1.8
	c0.1,0,0.1,0.1,0.1,0.1C16.4,1.9,16.4,1.9,16.4,1.8v0.3V1.8z M6,6c0.1-0.1,0.1-0.3,0.1-0.5c0-0.3-0.1-0.4-0.3-0.5
	C5.7,4.8,5.5,4.7,5.1,4.8H4.5l0.1,1.4h0.5C5.6,6.2,5.8,6.1,6,6z M5.7,15.3H5.2l0.1,1.3H6c0.1-0.1,0.3-0.1,0.4-0.3
	c0.1-0.1,0.1-0.3,0.1-0.5c0-0.3-0.1-0.4-0.3-0.4C6.1,15.3,6,15.3,5.7,15.3z M17.9,0.3L0.3,2.1l1.8,17.7l17.7-1.8L17.9,0.3z
	 M16.4,1.7c0.1,0,0.3,0.1,0.3,0.1c0,0.1-0.1,0.3-0.1,0.3c-0.1,0-0.3-0.1-0.3-0.1C16.2,1.8,16.2,1.7,16.4,1.7z M11.2,3.9
	c0-0.3,0-0.4,0.1-0.7c0.1-0.4,0.4-0.7,0.9-0.9c0.4-0.1,0.9-0.3,1.6-0.4c0.5,0,0.9,0,1.4,0c0.5,0,0.9,0.1,1.4,0.4l0.3,2.2l-1.9,0.3
	V4.7c0-0.4-0.1-0.5-0.3-0.7c-0.1-0.1-0.4-0.3-0.7-0.1c-0.3,0-0.5,0.1-0.6,0.3c-0.1,0.3-0.1,0.5-0.1,0.9l0.3,2.6
	c0,0.4,0.1,0.7,0.3,0.8c0.1,0.1,0.4,0.3,0.7,0.1c0.5,0,0.8-0.3,0.9-0.4l-0.1-1l-1,0.1L14,5.7l2.9-0.3l0.4,3.8
	C16.9,9.5,16.5,9.7,16,10c-0.4,0.1-0.9,0.4-1.4,0.4c-0.7,0-1.2,0-1.6-0.1c-0.3,0-0.6-0.3-0.9-0.5c-0.1-0.3-0.3-0.4-0.4-0.7
	c-0.1-0.3-0.1-0.6-0.3-1.3l-0.3-2.6C11,4.7,11,4.1,11.2,3.9z M11.2,9.7c0,0.3,0,0.5-0.3,0.8c-0.1,0.3-0.4,0.4-0.6,0.4
	c-0.3,0-0.5,0-0.8-0.3c-0.3-0.1-0.4-0.4-0.4-0.7c0-0.3,0-0.5,0.3-0.8C9.5,9,9.7,8.8,10,8.8c0.3,0,0.5,0,0.8,0.3
	C11,9.2,11.2,9.5,11.2,9.7z M8.6,2.7C8.7,2.5,9,2.3,9.4,2.3c0.4,0,0.7,0,0.9,0.3c0.3,0.1,0.4,0.4,0.4,0.8v0.1c0,0.1,0,0.1,0,0.3
	l-0.1,4.4L9.4,8.3V8.2l-1-4.3c0-0.1,0-0.1,0-0.3V3.5C8.3,3.1,8.3,2.9,8.6,2.7z M2.6,10.1C2.7,10,2.9,10,2.9,9.9c0-0.1,0-0.3,0-0.5
	L2.5,5.6c0-0.3-0.1-0.5-0.1-0.5c0-0.1-0.1-0.3-0.3-0.3H1.9L1.8,3.4L4.9,3c1-0.1,1.8,0,2.2,0.4c0.5,0.4,0.8,0.8,0.9,1.6
	c0,0.5,0,0.8-0.3,1.2c0,0.4-0.1,0.7-0.4,0.8C7.7,7,8.1,7.1,8.2,7.4c0.3,0.4,0.5,0.8,0.5,1.3c0,0.3,0,0.3,0,0.6
	c0,0.3-0.1,0.5-0.3,0.6c-0.3,0.4-0.7,0.6-1,0.8c-0.3,0.1-0.8,0.4-1.4,0.5l-3.2,0.3C2.7,11.6,2.6,10.1,2.6,10.1z M7.7,17.3
	c-0.3,0.4-0.8,0.5-1.6,0.6l-2.6,0.3L3.4,17h0.1v-0.1c0-0.1,0-0.3,0-0.4l-0.3-2.9c0-0.3,0-0.4-0.1-0.4c0,0-0.1-0.1-0.3-0.1H2.7v-1
	l2.6-0.3c0.8-0.1,1.3,0,1.7,0.3c0.4,0.1,0.6,0.5,0.6,1.2c0,0.4,0,0.7-0.1,0.9c-0.1,0.3-0.3,0.4-0.4,0.5c0.3,0.1,0.5,0.3,0.7,0.4
	c0.3,0.3,0.3,0.5,0.4,0.9C8.2,16.6,8.1,16.9,7.7,17.3z M12.6,12.6l0.3,2.5c0.1,0.8,0,1.3-0.4,1.7c-0.3,0.4-0.8,0.6-1.6,0.8
	c-0.8,0.1-1.3,0-1.7-0.4c-0.4-0.4-0.7-0.8-0.7-1.6l-0.3-2.5c0-0.1,0-0.3-0.1-0.4c0,0-0.1-0.1-0.3-0.1l-0.1-1l2.2-0.3l0.1,0.9
	c-0.1,0.1-0.3,0.3-0.3,0.4c0,0.1,0,0.3,0,0.5l0.3,2.3c0,0.3,0.1,0.5,0.3,0.7c0.1,0.1,0.3,0.1,0.4,0.1c0.3,0,0.3-0.1,0.4-0.3
	c0.1-0.3,0.1-0.4,0.1-0.7L11,13c0-0.3,0-0.4-0.1-0.5c0-0.1-0.1-0.1-0.3-0.1l-0.1-1l2.3-0.4l0.1,1c-0.1,0-0.1,0.1-0.3,0.1
	C12.6,12.3,12.6,12.5,12.6,12.6z M17.5,11.6c-0.1,0.1-0.3,0.3-0.3,0.4l-0.9,2.5l0.1,0.8c0,0.3,0,0.4,0.1,0.4c0,0,0.1,0.1,0.3,0.1H17
	l0.1,1.2l-2.1,0.3L14.9,16h0.1c0.1,0,0.1,0,0.1-0.1c0-0.1,0-0.3,0-0.4l-0.1-0.8l-1.4-2.2c0-0.1-0.1-0.1-0.1-0.3l-0.1-0.1l-0.1-1
	l1.8-0.1l0.1,0.8c0,0.1,0,0.3,0.1,0.4c0,0.1,0.1,0.1,0.1,0.3l0.4,0.5l0.3-0.7c0-0.1,0-0.1,0-0.3c0-0.1,0-0.3,0-0.4L16,10.8l1.8-0.1
	C17.8,10.6,17.5,11.6,17.5,11.6z"/>
</svg>