<svg xmlns="http://www.w3.org/2000/svg" width="14" height="14" viewBox="0 0 14 14"><path d="M9.3 5.1h-.3v-1.2c-.1-1.6-1.9-2.8-4-2.8s-3.9 1.2-4 2.8v6.2c.1 1.6 1.8 2.9 4 2.9.9 0 1.6-.2 2.3-.5.6.3 1.3.5 2 .5 2.2 0 4-1.8 4-4s-1.8-3.9-4-3.9zm-3.9 5h-.4c-1.6 0-3-.9-3-2 .7.6 1.8 1 3 1h.3c0 .3 0 .6.1 1zm0-2h-.4c-1.6 0-3-.9-3-2 .7.6 1.8 1 3 1 .3 0 .6 0 .9-.1-.2.3-.4.7-.5 1.1zm-.4-6c1.6 0 3 .9 3 2s-1.4 2-3 2-3-.9-3-2 1.4-2 3-2zm-3 8c.7.6 1.8 1 3 1 .3 0 .5 0 .8-.1.2.3.4.6.6.8-.4.2-.9.3-1.4.3-1.6 0-3-.9-3-2zm7.3 2c-1.7 0-3-1.3-3-3s1.3-3 3-3 3 1.3 3 3-1.4 3-3 3z"/></svg>