<?xml version="1.0" encoding="utf-8"?>
<!-- Generator: Adobe Illustrator 22.0.1, SVG Export Plug-In . SVG Version: 6.00 Build 0)  -->
<svg version="1.1" id="Capa_1" xmlns="http://www.w3.org/2000/svg" xmlns:xlink="http://www.w3.org/1999/xlink" x="0px" y="0px"
	 viewBox="0 0 284.9 284.9" style="enable-background:new 0 0 284.9 284.9;" xml:space="preserve">
<style type="text/css">
	.st0{fill:#9D9FA4;}
</style>
<g>
	<path class="st0" d="M282.1,195.3L149,62.2c-1.9-1.9-4.1-2.9-6.6-2.9s-4.7,1-6.6,2.9l-133,133c-1.9,1.9-2.9,4.1-2.9,6.6
		c0,2.5,1,4.7,2.9,6.6l14.3,14.3c1.9,1.9,4.1,2.9,6.6,2.9s4.7-1,6.6-2.9l112.2-112.2l112.2,112.2c1.9,1.9,4.1,2.8,6.6,2.8
		c2.5,0,4.7-1,6.6-2.8l14.3-14.3c1.9-1.9,2.8-4.1,2.8-6.6C284.9,199.4,284,197.2,282.1,195.3z"/>
</g>
</svg>
