<svg xmlns="http://www.w3.org/2000/svg" width="16" height="16" viewBox="0 0 16 16"><path d="M47.029 141.952L5 183.98V205h21.019l42.029-42.029v-1.914l-19.105-19.104h-1.914zm-22.925 55.405h-5.727v-5.734h-5.736v-5.729l5.736-5.734 11.462 11.463-5.735 5.734zm0-19.103l-3.821-3.82 26.746-26.746 3.821 3.821-26.746 26.745zm59.373-38.088l-13.643-13.643c-2.031-2.031-5.354-2.031-7.385 0l-2.946 2.945c-.021.021-.032.043-.052.063l-6.688 6.692 21.01 21.012 6.695-6.69c.02-.019.043-.03.061-.049l2.947-2.946c2.032-2.03 2.032-5.355.001-7.384zM2 11.501V14h2.5l7.373-7.373-2.499-2.499L2 11.501zm11.805-6.807c.26-.26.26-.68 0-.94l-1.56-1.559a.662.662 0 0 0-.94 0l-1.22 1.219 2.5 2.5 1.22-1.22z"/></svg>