<svg width="24" height="24" fill="none" xmlns="http://www.w3.org/2000/svg"><g clip-path="url(#a)" stroke="#9FA1B8" stroke-linecap="round" stroke-linejoin="round"><path d="M19.5 7A9 9 0 0 0 12 3a8.991 8.991 0 0 0-7.484 4" stroke-width="2"/><path d="M11.5 3a16.988 16.988 0 0 0-1.826 4M12.5 3a16.99 16.99 0 0 1 1.828 4M19.5 17a9 9 0 0 1-7.5 4 8.991 8.991 0 0 1-7.484-4" stroke-width="2"/><path d="M11.5 21a16.988 16.988 0 0 1-1.826-4M12.5 21a16.99 16.99 0 0 0 1.828-4" stroke-width="2"/><path d="m2 10 1 4 1.5-4L6 14l1-4M17 10l1 4 1.5-4 1.5 4 1-4M9.5 10l1 4 1.5-4 1.5 4 1-4" stroke-width="1.5"/></g><defs><clipPath id="a"><path fill="#fff" d="M0 0h24v24H0z"/></clipPath></defs></svg>