<?xml version="1.0" encoding="UTF-8"?>
<svg fill="none" viewBox="0 0 69 69" xmlns="http://www.w3.org/2000/svg">
<g clip-path="url(#a)">
<circle cx="34" cy="35" r="27" fill="#F55F53" opacity=".1"/>
<path d="m64.354 43.668c0 1.4744-1.1973 2.6676-2.6769 2.6676s-2.6769-1.1932-2.6769-2.6676 1.1973-2.6675 2.6769-2.6675 2.6769 1.1931 2.6769 2.6675z" stroke="#000" stroke-miterlimit="10" stroke-width=".65"/>
<path d="m6.8716 6.4308c0 0.79056-0.64246 1.4308-1.4358 1.4308s-1.4358-0.64021-1.4358-1.4308 0.64245-1.4308 1.4358-1.4308c0.79333 0.00485 1.4358 0.64505 1.4358 1.4308z" stroke="#000" stroke-miterlimit="10" stroke-width=".65"/>
<path d="m37.895 10.875c0 0.4759-0.3887 0.8577-0.8607 0.8577-0.4776 0-0.8608-0.3873-0.8608-0.8577 0-0.4759 0.3888-0.8577 0.8608-0.8577 0.4775 0 0.8607 0.3818 0.8607 0.8577z" stroke="#000" stroke-miterlimit="10" stroke-width=".65"/>
<path d="m52.939 20.259 7.9965-7.1828" stroke="#000" stroke-miterlimit="10" stroke-width=".81162"/>
<path d="m55.683 25.238 9.0739-2.4017" stroke="#000" stroke-miterlimit="10" stroke-width=".81162"/>
<path d="m56.326 30.996 9.6736 2.3408" stroke="#000" stroke-miterlimit="10" stroke-width=".81162"/>
<path d="m13.768 22.836-10.123-3.3203" stroke="#000" stroke-miterlimit="10" stroke-width=".81162"/>
<path d="M12.6121 33.5586L2 36.2757" stroke="#000" stroke-miterlimit="10" stroke-width=".81162"/>
<path d="m14.65 40.293-9.0184 9.2247" stroke="#000" stroke-miterlimit="10" stroke-width=".81162"/>
<path d="M28.0324 13.8431L24.5 0.5" stroke="#000" stroke-miterlimit="10" stroke-width=".81162"/>
<path d="m19.981 16.665-6.8304-8.6493" stroke="#000" stroke-miterlimit="10" stroke-width=".81162"/>
<path d="m46.198 15.353 4.7757-8.8761" stroke="#000" stroke-miterlimit="10" stroke-width=".81162"/>
<path d="m40.666 50.763s0.1332-11.282-2.529-16.657c-2.6622-5.3755-4.394-9.8525-3.6374-10.606 0.7566-0.7539 1.5321 0.5086 2.7581 2.8543 1.233 2.3457 1.4818 2.8305 1.4818 2.8305s-3.7523-8.7765-2.5333-9.684c1.212-0.9076 2.0253 1.6316 3.2933 4.2076 1.2681 2.5761 1.5869 3.9685 1.5869 3.9685s-3.4644-10.646-1.5869-11.176c1.8776-0.5305 5.0827 10.722 5.0827 10.722s-2.3822-8.6918-0.876-9.2223c1.5062-0.5306 2.4412 2.485 3.7933 6.4992s3.1356 6.8908 3.1356 6.8908-0.5254-5.8293 0.7006-5.6757 1.6814 5.1452 1.7584 8.3286c0.0771 3.1834-0.2171 14.381-0.9878 15.973-0.7706 1.5917-11.412 2.9461-11.44 0.747z" fill="#D2BDA6"/>
<path d="m81.707 110.1s6.2561 32.002 6.9847 36.107 1.3731 7.868 3.5378 8.803c2.1998 0.95 9.1148 2.555 25.599 3.358s21.094-0.963 20.576-5.983c-0.519-5.019-6.922-35.89-6.922-35.89s10.432 1.668 13.675 9.082c3.244 7.407 4.68 23.297 5.17 27.395 0.491 4.098-0.588 5.696 1.689 6.213 2.277 0.523 9.233 0.747 9.745-1.222 0.511-1.969 3.426-15.226 4.357-19.875 0.939-4.65 4.4-31.869-21.864-43.011-26.272-11.149-39.071-5.9969-53.335-9.7807-14.264-3.7838-27.154-8.8591-30.888-15.673-3.7341-6.8136-5.8708-13.397-6.2491-17.034-0.3783-3.6302 0.7776-6.6251-3.1386-7.2255-3.9161-0.6004-9.8009-1.0262-10.838 3.8047-1.0368 4.8241-2.9774 21.746 1.9336 32.19 4.911 10.437 29.151 25.69 39.968 28.742z" fill="#000"/>
<path d="m60.956 71.031c-0.1541 0.5096-0.2382 0.9076-0.2382 0.9076l-5.6956 0.1535s-1.191-3.7349-2.459-3.6302c-1.2681 0.0978-2.1017 4.7682-1.191 8.175s3.643 3.9653 3.643 3.9653c4.2314 0.9355 8.5049-0.377 8.7641-4.7193 0.042-0.6911 0.056-1.3264 0.056-1.9268-1.1419-0.9424-2.1087-1.9198-2.8793-2.9251z" fill="#000"/>
<path d="m51.344 52.563v-7.058c-0.2171-0.0558-0.4483-0.1117-0.7005-0.1466v7.0929c0.2382 0.0349 0.4693 0.0698 0.7005 0.1117z" fill="#F75142"/>
<path d="m47.756 52.208c0.1191 0.0069 0.2312 0.0139 0.3503 0.0209v-7.1627c-0.2312-0.014-0.4624-0.0349-0.7006-0.0419v7.1837c0.1191-7e-3 0.2312 0 0.3503 0z" fill="#F75142"/>
<path d="m45.291 52.192v-7.1278c-0.2382 0.0209-0.4694 0.0488-0.7006 0.0837v7.058c0.2242-7e-3 0.4624-0.0139 0.7006-0.0139z" fill="#F75142"/>
<path d="m42.468 52.353 0.2031-6.688c-0.2522 0.1048-0.4834 0.2304-0.7146 0.37l-0.1891 6.4018c0.2242-0.0279 0.4624-0.0558 0.7006-0.0838z" fill="#000"/>
<path d="m18.924 47.511s-0.3902-9.5193-1.9244-14.511c-1.5342-4.9986-1.8056-6.7487-1-7 0.8127-0.2514 3.5269 5.0142 3.5269 5.0142s-0.5044-10.254 0.8126-10.505c1.3171-0.2514 1.7235 7.7334 1.7235 7.7334s-0.331-11.193 0.937-11.242c1.268-0.0489 1.634 12.205 1.634 12.205s0.2926-12.268 1.5045-12.464c1.219-0.1954 1.3398 12.059 1.3398 12.059s0.3013-8.8923 1.4712-8.8434c1.163 0.0488 1.7234 13.332 1.7234 16.914 0 3.5814-0.2031 10.444-0.6095 11.505-0.3993 1.0542-11.146 0.1955-11.139-0.8656z" fill="#B6946E"/>
<path d="m25.154 38.231c0.1681-0.4188 0.1891-0.9285 0.1611-1.3753-0.077-1.1379-0.6235-2.1641-1.3941-2.9879-0.7146-0.761-1.6043-1.3543-2.5221-1.8361-0.3012-0.1535-0.5674 0.2933-0.2662 0.4538 1.9056 0.9983 4.0423 2.8483 3.622 5.194-0.0281 0.1396-0.0561 0.2863-0.1051 0.4189-0.1261 0.3072 0.3783 0.4398 0.5044 0.1326z" fill="#000"/>
<path d="m-88.998 141.32s2.8303-28.972 11.44-35.151c8.617-6.178 27.392-12.454 39.015-14.611 11.622-2.1572 32.191-6.8555 41.004-14.884 8.8132-8.0284 13.563-19.68 14.754-24.225 1.198-4.5448-0.2171-7.8748 4.8199-8.3286 5.0371-0.4538 8.9883-0.754 9.5908 4.091 0.6095 4.8449-2.48 34.704-15.672 49.825-13.192 15.122-29.452 18.766-30.594 19.143v14.346l-34.258 6.66-1.9195-21.013s-13.122 3.344-18.138 9.431c-5.016 6.081-9.5557 16.986-10.249 19.708-0.6725 2.73-9.6398-0.6-9.7939-4.991z" fill="#F8938B"/>
<path d="m22.041 44.122c-4.3996 0.3979-3.8812 2.9879-4.4766 6.667 3.2506 0.4678 10.593 1.4731 14.039 1.6267 0.1261-1.9478 0.1261-3.4139 0.028-4.2027-0.6025-4.845-4.5537-4.5448-9.5908-4.091z" fill="#F55F53"/>
<path d="m17.474 69.656c0.4484-0.5934 0.8687-1.2148 1.261-1.857 0.1261-0.2025 0.1962-0.4189 0.2102-0.6493 0.049-0.2304 0.042-0.4608-0.028-0.6981-0.0561-0.2304-0.1612-0.4259-0.3153-0.5934-0.1261-0.1885-0.2872-0.3421-0.4904-0.4468-0.4063-0.2164-0.8967-0.3212-1.3521-0.1745-0.1401 0.0558-0.2802 0.1186-0.4203 0.1745-0.2662 0.1536-0.4694 0.363-0.6305 0.6283-0.3853 0.6423-0.8057 1.2566-1.2611 1.857-0.1261 0.2024-0.1961 0.4189-0.2101 0.6492-0.0491 0.2304-0.0421 0.4608 0.028 0.6982 0.056 0.2303 0.1611 0.4258 0.3152 0.5934 0.1261 0.1885 0.2873 0.3421 0.4904 0.4468 0.4064 0.2164 0.8968 0.3211 1.3521 0.1745 0.1402-0.0559 0.2803-0.1187 0.4204-0.1745 0.2662-0.1536 0.4764-0.3631 0.6305-0.6283z" fill="#F55F53"/>
<path d="m26.426 67.196c0.2382-0.7401 0.4834-1.4801 0.7216-2.2131 0.0701-0.2304 0.0841-0.4607 0.028-0.6981-0.014-0.2304-0.077-0.4468-0.2101-0.6493-0.1121-0.2024-0.2592-0.37-0.4484-0.4886-0.1681-0.1536-0.3643-0.2583-0.5955-0.3142-0.4483-0.1047-0.9527-0.0768-1.3521 0.1745-0.1191 0.0908-0.2382 0.1816-0.3573 0.2723-0.2171 0.2164-0.3643 0.4747-0.4483 0.7679-0.2382 0.74-0.4834 1.4801-0.7216 2.2131-0.0701 0.2304-0.0841 0.4607-0.028 0.6981 0.014 0.2304 0.077 0.4468 0.2101 0.6493 0.1121 0.2024 0.2592 0.37 0.4484 0.4886 0.1681 0.1536 0.3643 0.2583 0.5955 0.3142 0.4483 0.1047 0.9528 0.0768 1.3521-0.1745 0.1191-0.0908 0.2382-0.1816 0.3573-0.2723 0.2101-0.2164 0.3643-0.4747 0.4483-0.7679z" fill="#F55F53"/>
<path d="m23.73 58.228c0.2593-0.747 0.5115-1.487 0.7707-2.2339 0.07-0.2304 0.084-0.4608 0.028-0.6982-0.014-0.2303-0.0771-0.4468-0.2102-0.6492-0.1121-0.2025-0.2592-0.37-0.4483-0.4887-0.1682-0.1536-0.3643-0.2583-0.5955-0.3141-0.4484-0.1048-0.9528-0.0768-1.3521 0.1745-0.1191 0.0907-0.2382 0.1815-0.3573 0.2722-0.2172 0.2165-0.3643 0.4748-0.4484 0.768-0.2592 0.747-0.5114 1.487-0.7706 2.234-0.0701 0.2303-0.0841 0.4607-0.028 0.6981 0.014 0.2303 0.077 0.4468 0.2101 0.6492 0.1121 0.2025 0.2593 0.37 0.4484 0.4887 0.1681 0.1536 0.3643 0.2583 0.5955 0.3142 0.4484 0.1047 0.9528 0.0768 1.3521-0.1746 0.1191-0.0907 0.2382-0.1815 0.3573-0.2722 0.2172-0.2165 0.3713-0.4678 0.4483-0.768z" fill="#F55F53"/>
<path d="m8.8873 55.6c0 0.7034-0.57251 1.2755-1.2811 1.2755s-1.2811-0.5721-1.2811-1.2755 0.57251-1.2755 1.2811-1.2755 1.2811 0.5721 1.2811 1.2755z" stroke="#000" stroke-miterlimit="10" stroke-width=".65"/>
<rect transform="rotate(89.622 68.275 6.3271)" x="68.275" y="6.3271" width="4.3195" height="4.3195" rx="2.1598" stroke="#000" stroke-width=".65"/>
</g>
<defs>
<clipPath id="a">
<rect width="69" height="69" fill="#fff"/>
</clipPath>
</defs>
</svg>
