<svg width="1310" height="350" viewBox="0 0 1310 350" fill="none" xmlns="http://www.w3.org/2000/svg">
<path d="M534.4 290.36C500.24 290.36 474.293 281.213 456.56 262.92C438.827 244.627 429.96 219.707 429.96 188.16V185.92C429.96 155.493 439.573 130.853 458.8 112C478.027 93.1467 502.48 83.72 532.16 83.72C559.04 83.72 580.693 90.16 597.12 103.04C613.547 115.733 622.88 134.96 625.12 160.72H566.04C563.8 139.627 552.6 129.08 532.44 129.08C519.373 129.08 509.107 134.027 501.64 143.92C494.173 153.813 490.44 167.72 490.44 185.64V187.88C490.44 205.987 494.173 219.987 501.64 229.88C509.107 239.587 519.653 244.44 533.28 244.44C543.547 244.44 551.947 241.733 558.48 236.32C565.2 230.72 569.213 222.507 570.52 211.68H627.64C625.773 237.067 616.44 256.573 599.64 270.2C582.84 283.64 561.093 290.36 534.4 290.36ZM688.028 290.36C673.655 290.36 661.801 286.72 652.468 279.44C643.135 272.16 638.468 261.147 638.468 246.4C638.468 214.48 664.415 198.52 716.308 198.52H730.308V195.16C730.308 187.507 728.908 181.72 726.108 177.8C723.495 173.88 718.455 171.92 710.988 171.92C699.228 171.92 692.601 177.707 691.108 189.28H644.068C645.188 172.107 652.001 159.04 664.508 150.08C677.015 141.12 693.535 136.64 714.068 136.64C734.975 136.64 751.215 141.213 762.788 150.36C774.361 159.32 780.148 173.227 780.148 192.08V287H731.428V269.92C722.468 283.547 708.001 290.36 688.028 290.36ZM705.388 256.48C712.668 256.48 718.641 254.613 723.308 250.88C727.975 246.96 730.308 241.92 730.308 235.76V226.8H717.148C706.881 226.8 699.415 228.013 694.748 230.44C690.268 232.68 688.028 236.787 688.028 242.76C688.028 251.907 693.815 256.48 705.388 256.48ZM860.263 290.36C842.343 290.36 827.596 283.92 816.023 271.04C804.45 258.16 798.663 239.587 798.663 215.32V213.08C798.663 189 804.45 170.24 816.023 156.8C827.783 143.36 842.716 136.64 860.823 136.64C881.543 136.64 896.57 144.853 905.903 161.28V76.16H956.023V287H905.903V263.2C901.983 271.227 896.01 277.76 887.983 282.8C880.143 287.84 870.903 290.36 860.263 290.36ZM877.903 252C887.236 252 894.423 248.827 899.463 242.48C904.69 236.133 907.303 226.8 907.303 214.48V212.24C907.303 199.92 904.783 190.587 899.743 184.24C894.89 177.707 887.796 174.44 878.463 174.44C859.236 174.44 849.623 187.133 849.623 212.52V214.76C849.623 226.893 852.143 236.133 857.183 242.48C862.223 248.827 869.13 252 877.903 252ZM1037.11 290.36C1019.19 290.36 1004.44 283.92 992.872 271.04C981.298 258.16 975.512 239.587 975.512 215.32V213.08C975.512 189 981.298 170.24 992.872 156.8C1004.63 143.36 1019.56 136.64 1037.67 136.64C1058.39 136.64 1073.42 144.853 1082.75 161.28V76.16H1132.87V287H1082.75V263.2C1078.83 271.227 1072.86 277.76 1064.83 282.8C1056.99 287.84 1047.75 290.36 1037.11 290.36ZM1054.75 252C1064.08 252 1071.27 248.827 1076.31 242.48C1081.54 236.133 1084.15 226.8 1084.15 214.48V212.24C1084.15 199.92 1081.63 190.587 1076.59 184.24C1071.74 177.707 1064.64 174.44 1055.31 174.44C1036.08 174.44 1026.47 187.133 1026.47 212.52V214.76C1026.47 226.893 1028.99 236.133 1034.03 242.48C1039.07 248.827 1045.98 252 1054.75 252ZM1181.2 336L1205.56 272.16L1147.04 140.56H1201.36L1231.6 218.68L1259.6 140.56H1307.48L1229.08 336H1181.2Z" fill="black"/>
<path d="M195.702 243.783C190.001 252.322 182.281 259.323 173.227 264.164C164.172 269.006 154.063 271.539 143.796 271.539C133.528 271.539 123.419 269.006 114.364 264.164C105.31 259.323 97.59 252.322 91.8887 243.783" stroke="black" stroke-width="15" stroke-linecap="round" stroke-linejoin="round"/>
<path d="M81.3892 132.826V70.413C81.3892 53.8601 87.9648 37.9851 99.6695 26.2804C111.374 14.5756 127.249 8 143.802 8C160.355 8 176.23 14.5756 187.935 26.2804C199.64 37.9851 206.215 53.8601 206.215 70.413V132.826" stroke="black" stroke-width="15" stroke-linecap="round" stroke-linejoin="round"/>
<path d="M275.092 285.391L262.609 105.087C262.356 101.326 260.684 97.8024 257.932 95.2276C255.179 92.6528 251.552 91.2194 247.783 91.2174H39.7807C36.0117 91.2194 32.3841 92.6528 29.6317 95.2276C26.8792 97.8024 25.2073 101.326 24.9542 105.087L12.4716 285.391C12.1572 290.015 12 294.638 12 299.261C12 306.618 14.9225 313.673 20.1246 318.875C25.3267 324.077 32.3823 327 39.7391 327H247.783C255.139 327 262.195 324.077 267.397 318.875C272.599 313.673 275.522 306.618 275.522 299.261C275.549 294.638 275.406 290.015 275.092 285.391Z" stroke="black" stroke-width="23" stroke-linecap="round" stroke-linejoin="round"/>
<circle cx="94" cy="194" r="12" fill="black"/>
<circle cx="193" cy="194" r="12" fill="black"/>
</svg>
