<svg width="270" height="130" viewBox="0 0 270 130" fill="none" xmlns="http://www.w3.org/2000/svg">
<path d="M73.2846 69.7853H195.612C197.841 69.7853 199.666 71.5738 199.666 73.7598V125.627C199.666 127.813 197.841 129.601 195.612 129.601H73.2846C71.055 129.601 69.2307 127.813 69.2307 125.627V73.7598C69.2307 71.5738 71.055 69.7853 73.2846 69.7853Z" fill="#D5D5D5"/>
<path d="M213.76 69.7853H265.839C268.072 69.7853 269.9 71.5738 269.9 73.7598V125.627C269.9 127.813 268.072 129.601 265.839 129.601H213.76C211.526 129.601 209.699 127.813 209.699 125.627V73.7598C209.699 71.5738 211.425 69.7853 213.76 69.7853Z" fill="#D5D5D5"/>
<path d="M73.2915 0H125.371C127.604 0 129.431 1.78852 129.431 3.97448V55.8415C129.431 58.0274 127.604 59.8159 125.371 59.8159H73.2915C71.0581 59.8159 69.2307 58.0274 69.2307 55.8415V3.97448C69.2307 1.78852 71.0581 0 73.2915 0Z" fill="#D5D5D5"/>
<path d="M4.06075 0H56.1399C58.3733 0 60.2007 1.79448 60.2007 3.98773V126.012C60.2007 128.206 58.3733 130 56.1399 130H4.06075C1.82734 130 0 128.206 0 126.012V3.98773C0 1.79448 1.82734 0 4.06075 0Z" fill="#D5D5D5"/>
<path d="M269.9 4.0348V55.7811C269.9 58.0003 268.101 59.8159 265.902 59.8159H143.463C141.264 59.8159 139.465 58.0003 139.465 55.7811V4.0348C139.465 1.81566 141.264 0 143.463 0H265.802C268.101 0 269.9 1.81566 269.9 4.0348Z" fill="#D5D5D5"/>
</svg>
