<?xml version="1.0" encoding="utf-8"?>
<!-- Generator: Adobe Illustrator 18.0.0, SVG Export Plug-In . SVG Version: 6.00 Build 0)  -->
<!DOCTYPE svg PUBLIC "-//W3C//DTD SVG 1.1//EN" "http://www.w3.org/Graphics/SVG/1.1/DTD/svg11.dtd">
<svg version="1.1" id="Layer_1" xmlns="http://www.w3.org/2000/svg" xmlns:xlink="http://www.w3.org/1999/xlink" x="0px" y="0px"
	 width="270px" height="130px" viewBox="0 0 270 130" style="enable-background:new 0 0 270 130;" xml:space="preserve">
<style type="text/css">
	.st0{fill:#D5D5D5;}
</style>
<g>
	<path class="st0" d="M4,0h122c2.2,0,4,1.8,4,4v52c0,2.2-1.8,4-4,4H4c-2.2,0-4-1.8-4-4V4C0,1.8,1.8,0,4,0z"/>
	<path class="st0" d="M144,0h122c2.2,0,4,1.8,4,4v52c0,2.2-1.8,4-4,4H144c-2.2,0-4-1.8-4-4V4C140,1.8,141.8,0,144,0z"/>
	<path class="st0" d="M266,130h-52c-2.2,0-4-1.8-4-4V74c0-2.2,1.8-4,4-4h52c2.2,0,4,1.8,4,4v52C270,128.2,268.2,130,266,130z"/>
	<path class="st0" d="M56,130H4c-2.2,0-4-1.8-4-4l0-52c0-2.2,1.8-4,4-4h52c2.2,0,4,1.8,4,4v52C60,128.2,58.2,130,56,130z"/>
	<path class="st0" d="M196,130H74c-2.2,0-4-1.8-4-4V74c0-2.2,1.8-4,4-4h122c2.2,0,4,1.8,4,4v52C200,128.2,198.2,130,196,130z"/>
</g>
</svg>
