<svg width="270" height="130" viewBox="0 0 270 130" fill="none" xmlns="http://www.w3.org/2000/svg">
<path d="M74.6667 130H5.33333C2.4 130 0 128.2 0 126V4C0 1.8 2.4 0 5.33333 0H74.6667C77.6 0 80 1.8 80 4V126C80 128.2 77.6 130 74.6667 130Z" fill="#D5D5D5"/>
<path d="M264.667 130H195.333C192.4 130 190 128.2 190 126V4C190 1.8 192.4 0 195.333 0H264.667C267.6 0 270 1.8 270 4V126C270 128.2 267.6 130 264.667 130Z" fill="#D5D5D5"/>
<path d="M177 130H93C91.35 130 90 128.2 90 126V4C90 1.8 91.35 0 93 0H177C178.65 0 180 1.8 180 4V126C180 128.2 178.65 130 177 130Z" fill="#D5D5D5"/>
</svg>
