<svg width="270" height="130" viewBox="0 0 270 130" fill="none" xmlns="http://www.w3.org/2000/svg">
<path d="M74 0H126C128.2 0 130 1.8 130 4V56C130 58.2 128.2 60 126 60H74C71.8 60 70 58.2 70 56V4C70 1.8 71.8 0 74 0Z" fill="#D5D5D5"/>
<path d="M4 0H56C58.2 0 60 1.8 60 4V56C60 58.2 58.2 60 56 60H4C1.8 60 0 58.2 0 56V4C0 1.8 1.8 0 4 0Z" fill="#D5D5D5"/>
<path d="M56 130H4C1.8 130 0 128.2 0 126V74C0 71.8 1.8 70 4 70H56C58.2 70 60 71.8 60 74V126C60 128.2 58.2 130 56 130Z" fill="#D5D5D5"/>
<path d="M266 130H214C211.8 130 210 128.2 210 126V74C210 71.8 211.8 70 214 70H266C268.2 70 270 71.8 270 74V126C270 128.2 268.2 130 266 130Z" fill="#D5D5D5"/>
<path d="M144 0H266C268.2 0 270 1.8 270 4V56C270 58.2 268.2 60 266 60H144C141.8 60 140 58.2 140 56V4C140 1.8 141.8 0 144 0Z" fill="#D5D5D5"/>
<path d="M194.1 130H75.9C72.6 130 70 127.4 70 124.1V75.9C70 72.6 72.6 70 75.9 70H194.1C197.4 70 200 72.6 200 75.9V124.1C200 127.4 197.4 130 194.1 130Z" fill="#D5D5D5"/>
</svg>
