<?xml version="1.0" encoding="utf-8"?>
<!-- Generator: Adobe Illustrator 18.0.0, SVG Export Plug-In . SVG Version: 6.00 Build 0)  -->
<!DOCTYPE svg PUBLIC "-//W3C//DTD SVG 1.1//EN" "http://www.w3.org/Graphics/SVG/1.1/DTD/svg11.dtd">
<svg version="1.1" id="Layer_1" xmlns="http://www.w3.org/2000/svg" xmlns:xlink="http://www.w3.org/1999/xlink" x="0px" y="0px"
	 width="270px" height="130px" viewBox="0 0 270 130" style="enable-background:new 0 0 270 130;" xml:space="preserve">
<style type="text/css">
	.st0{fill:#D5D5D5;}
</style>
<g>
	<path class="st0" d="M213.9,0h52c2.2,0,4,1.8,4,4v52c0,2.2-1.8,4-4,4h-52c-2.2,0-4-1.8-4-4V4C209.9,1.8,211.7,0,213.9,0z"/>
	<path class="st0" d="M265.9,130h-52c-2.2,0-4-1.8-4-4V74c0-2.2,1.8-4,4-4h52c2.2,0,4,1.8,4,4v52C269.9,128.2,268.1,130,265.9,130z"
		/>
	<path class="st0" d="M4.1,0h52c2.2,0,4,1.8,4,4v52c0,2.2-1.8,4-4,4h-52c-2.2,0-4-1.8-4-4V4C0.1,1.8,1.9,0,4.1,0z"/>
	<path class="st0" d="M56.1,130h-52c-2.2,0-4-1.8-4-4V74c0-2.2,1.8-4,4-4h52c2.2,0,4,1.8,4,4v52C60.1,128.2,58.3,130,56.1,130z"/>
	<path class="st0" d="M74.1,0h122c2.2,0,4,1.8,4,4v122c0,2.2-1.8,4-4,4h-122c-2.2,0-4-1.8-4-4V4C70.1,1.8,71.9,0,74.1,0z"/>
</g>
</svg>
