<svg width="270" height="130" xmlns="http://www.w3.org/2000/svg" xml:space="preserve" version="1.1">
 <style type="text/css">.st0{fill:#D5D5D5;}</style>

 <g>
  <title>Layer 1</title>
  <g stroke="null" id="svg_1">
   <path stroke="null" id="svg_2" d="m264.07407,0l-51.03704,0c-2.15926,0 -3.92593,1.8 -3.92593,4l0,52c0,2.2 1.76667,4 3.92593,4l51.03704,0c2.15926,0 3.92593,-1.8 3.92593,-4l0,-52c0,-2.2 -1.76667,-4 -3.92593,-4z" class="st0"/>
   <path stroke="null" id="svg_3" d="m195.37036,0l-51.03704,0c-2.15926,0 -3.92593,1.8 -3.92593,4l0,52c0,2.2 1.76667,4 3.92593,4l51.03704,0c2.15926,0 3.92593,-1.8 3.92593,-4l0,-52c0,-2.2 -1.76667,-4 -3.92593,-4z" class="st0"/>
   <path stroke="null" id="svg_4" d="m126.66666,0l-119.74074,0c-2.15926,0 -3.92593,1.8 -3.92593,4l0,52c0,2.2 1.76667,4 3.92593,4l119.74074,0c2.15926,0 3.92593,-1.8 3.92593,-4l0,-52c0,-2.2 -1.76667,-4 -3.92593,-4z" class="st0"/>
   <path stroke="null" id="svg_5" d="m6.92592,130l51.03704,0c2.15926,0 3.92593,-1.8 3.92593,-4l0,-52c0,-2.2 -1.76667,-4 -3.92593,-4l-51.03704,0c-2.15926,0 -3.92593,1.8 -3.92593,4l0,52c0,2.2 1.76667,4 3.92593,4z" class="st0"/>
   <path stroke="null" id="svg_6" d="m75.62962,130l51.03704,0c2.15926,0 3.92593,-1.8 3.92593,-4l0,-52c0,-2.2 -1.76667,-4 -3.92593,-4l-51.03704,0c-2.15926,0 -3.92593,1.8 -3.92593,4l0,52c0,2.2 1.76667,4 3.92593,4z" class="st0"/>
   <path stroke="null" id="svg_7" d="m144.33333,130l119.74074,0c2.15926,0 3.92593,-1.8 3.92593,-4l0,-52c0,-2.2 -1.76667,-4 -3.92593,-4l-119.74074,0c-2.15926,0 -3.92593,1.8 -3.92593,4l0,52c0,2.2 1.76667,4 3.92593,4z" class="st0"/>
  </g>
 </g>
</svg>