<svg width="270" height="190" viewBox="0 0 270 190" fill="none" xmlns="http://www.w3.org/2000/svg">
<rect x="270" y="123" width="130" height="123" rx="6" transform="rotate(-180 270 123)" fill="#D5D5D5"/>
<rect x="60" y="190" width="60" height="57" rx="6" transform="rotate(-180 60 190)" fill="#D5D5D5"/>
<rect x="130" y="123" width="60" height="123" rx="6" transform="rotate(-180 130 123)" fill="#D5D5D5"/>
<rect x="130" y="190" width="60" height="57" rx="6" transform="rotate(-180 130 190)" fill="#D5D5D5"/>
<rect x="200" y="190" width="60" height="57" rx="6" transform="rotate(-180 200 190)" fill="#D5D5D5"/>
<rect x="270" y="190" width="60" height="57" rx="6" transform="rotate(-180 270 190)" fill="#D5D5D5"/>
<rect x="60" y="123" width="60" height="57" rx="6" transform="rotate(-180 60 123)" fill="#D5D5D5"/>
<rect x="60" y="57" width="60" height="57" rx="6" transform="rotate(-180 60 57)" fill="#D5D5D5"/>
</svg>
