<?xml version="1.0" encoding="utf-8"?>
<!-- Generator: Adobe Illustrator 18.0.0, SVG Export Plug-In . SVG Version: 6.00 Build 0)  -->
<!DOCTYPE svg PUBLIC "-//W3C//DTD SVG 1.1//EN" "http://www.w3.org/Graphics/SVG/1.1/DTD/svg11.dtd">
<svg version="1.1" id="Layer_1" xmlns="http://www.w3.org/2000/svg" xmlns:xlink="http://www.w3.org/1999/xlink" x="0px" y="0px"
	 width="270px" height="130px" viewBox="0 0 270 130" style="enable-background:new 0 0 270 130;" xml:space="preserve">
<style type="text/css">
	.st0{fill:#D5D5D5;}
</style>
<g>
	<path class="st0" d="M109,0h52c2.2,0,4,1.8,4,4v52c0,2.2-1.8,4-4,4h-52c-2.2,0-4-1.8-4-4V4C105,1.8,106.8,0,109,0z"/>
	<path class="st0" d="M161,130h-52c-2.2,0-4-1.8-4-4V74c0-2.2,1.8-4,4-4h52c2.2,0,4,1.8,4,4v52C165,128.2,163.2,130,161,130z"/>
	<path class="st0" d="M4.1,0H91c2.2,0,4,1.8,4,4v122c0,2.2-1.8,4-4,4H4.1c-2.2,0-4-1.8-4-4V4C0.1,1.8,1.9,0,4.1,0z"/>
	<path class="st0" d="M179,0h86.9c2.2,0,4,1.8,4,4v122c0,2.2-1.8,4-4,4H179c-2.2,0-4-1.8-4-4V4C175,1.8,176.8,0,179,0z"/>
</g>
</svg>
