<?xml version="1.0" encoding="utf-8"?>
<!-- Generator: Adobe Illustrator 18.0.0, SVG Export Plug-In . SVG Version: 6.00 Build 0)  -->
<!DOCTYPE svg PUBLIC "-//W3C//DTD SVG 1.1//EN" "http://www.w3.org/Graphics/SVG/1.1/DTD/svg11.dtd">
<svg version="1.1" id="Layer_1" xmlns="http://www.w3.org/2000/svg" xmlns:xlink="http://www.w3.org/1999/xlink" x="0px" y="0px"
	 width="270px" height="130px" viewBox="0 0 270 130" style="enable-background:new 0 0 270 130;" xml:space="preserve">
<style type="text/css">
	.st0{fill:#D5D5D5;}
</style>
<g>
	<path class="st0" d="M4,0h82c2.2,0,4,1.8,4,4v122c0,2.2-1.8,4-4,4H4c-2.2,0-4-1.8-4-4V4C0,1.8,1.8,0,4,0z"/>
	<path class="st0" d="M104,0h42c2.2,0,4,1.8,4,4v52c0,2.2-1.8,4-4,4h-42c-2.2,0-4-1.8-4-4V4C100,1.8,101.8,0,104,0z"/>
	<path class="st0" d="M164,0h42c2.2,0,4,1.8,4,4v52c0,2.2-1.8,4-4,4h-42c-2.2,0-4-1.8-4-4V4C160,1.8,161.8,0,164,0z"/>
	<path class="st0" d="M224,0h42c2.2,0,4,1.8,4,4v52c0,2.2-1.8,4-4,4h-42c-2.2,0-4-1.8-4-4V4C220,1.8,221.8,0,224,0z"/>
	<path class="st0" d="M104,70h42c2.2,0,4,1.8,4,4v52c0,2.2-1.8,4-4,4h-42c-2.2,0-4-1.8-4-4V74C100,71.8,101.8,70,104,70z"/>
	<path class="st0" d="M164,70h42c2.2,0,4,1.8,4,4v52c0,2.2-1.8,4-4,4h-42c-2.2,0-4-1.8-4-4V74C160,71.8,161.8,70,164,70z"/>
	<path class="st0" d="M224,70h42c2.2,0,4,1.8,4,4v52c0,2.2-1.8,4-4,4h-42c-2.2,0-4-1.8-4-4V74C220,71.8,221.8,70,224,70z"/>
</g>
</svg>
