<svg width="270" height="130" viewBox="0 0 270 130" fill="none" xmlns="http://www.w3.org/2000/svg">
<path d="M265.997 130H213.959C211.757 130 209.956 128.2 209.956 126V74C209.956 71.8 211.757 70 213.959 70H265.997C268.199 70 270 71.8 270 74V126C270 128.2 268.199 130 265.997 130Z" fill="#D5D5D5"/>
<path d="M143.907 0H265.997C268.199 0 270 1.8 270 4V56C270 58.2 268.199 60 265.997 60H143.907C141.705 60 139.904 58.2 139.904 56V4C139.904 1.8 141.705 0 143.907 0Z" fill="#D5D5D5"/>
<path d="M195.945 130H143.907C141.705 130 139.904 128.2 139.904 126V74C139.904 71.8 141.705 70 143.907 70H195.945C198.147 70 199.948 71.8 199.948 74V126C199.948 128.2 198.147 130 195.945 130Z" fill="#D5D5D5"/>
<path d="M4.00297 0H126.093C128.295 0 130.096 1.8 130.096 4V126C130.096 128.2 128.295 130 126.093 130H4.00297C1.80133 130 0 128.2 0 126V4C0 1.8 1.80133 0 4.00297 0Z" fill="#D5D5D5"/>
</svg>
