<svg width="270" height="130" xmlns="http://www.w3.org/2000/svg" xml:space="preserve" version="1.1">
 <style type="text/css">.st0{fill:#D5D5D5;}</style>

 <g>
  <title>Layer 1</title>
  <g stroke="null" id="svg_1">
   <path stroke="null" id="svg_2" d="m265.02962,0l-51.61481,0c-2.1837,0 -3.97037,1.8 -3.97037,4l0,52c0,2.2 1.78667,4 3.97037,4l51.61481,0c2.1837,0 3.97037,-1.8 3.97037,-4l0,-52c0,-2.2 -1.78667,-4 -3.97037,-4z" class="st0"/>
   <path stroke="null" id="svg_3" d="m195.54814,0l-51.61481,0c-2.1837,0 -3.97037,1.8 -3.97037,4l0,17c0,2.2 1.78667,4 3.97037,4l51.61481,0c2.1837,0 3.97037,-1.8 3.97037,-4l0,-17c0,-2.2 -1.78667,-4 -3.97037,-4z" class="st0"/>
   <path stroke="null" id="svg_4" d="m195.54814,35l-51.61481,0c-2.1837,0 -3.97037,1.8 -3.97037,4l0,17c0,2.2 1.78667,4 3.97037,4l51.61481,0c2.1837,0 3.97037,-1.8 3.97037,-4l0,-17c0,-2.2 -1.78667,-4 -3.97037,-4z" class="st0"/>
   <path stroke="null" id="svg_5" d="m126.06666,0l-121.09629,0c-2.1837,0 -3.97037,1.8 -3.97037,4l0,52c0,2.2 1.78667,4 3.97037,4l121.09629,0c2.1837,0 3.97037,-1.8 3.97037,-4l0,-52c0,-2.2 -1.78667,-4 -3.97037,-4z" class="st0"/>
   <path stroke="null" id="svg_6" d="m4.97037,130l51.61481,0c2.1837,0 3.97037,-1.8 3.97037,-4l0,-52c0,-2.2 -1.78667,-4 -3.97037,-4l-51.61481,0c-2.1837,0 -3.97037,1.8 -3.97037,4l0,52c0,2.2 1.78667,4 3.97037,4z" class="st0"/>
   <path stroke="null" id="svg_7" d="m74.45185,130l51.61481,0c2.1837,0 3.97037,-1.8 3.97037,-4l0,-17c0,-2.2 -1.78667,-4 -3.97037,-4l-51.61481,0c-2.1837,0 -3.97037,1.8 -3.97037,4l0,17c0,2.2 1.78667,4 3.97037,4z" class="st0"/>
   <path stroke="null" id="svg_8" d="m74.45185,95l51.61481,0c2.1837,0 3.97037,-1.8 3.97037,-4l0,-17c0,-2.2 -1.78667,-4 -3.97037,-4l-51.61481,0c-2.1837,0 -3.97037,1.8 -3.97037,4l0,17c0,2.2 1.78667,4 3.97037,4z" class="st0"/>
   <path stroke="null" id="svg_9" d="m143.93333,130l121.09629,0c2.1837,0 3.97037,-1.8 3.97037,-4l0,-52c0,-2.2 -1.78667,-4 -3.97037,-4l-121.09629,0c-2.1837,0 -3.97037,1.8 -3.97037,4l0,52c0,2.2 1.78667,4 3.97037,4z" class="st0"/>
  </g>
 </g>
</svg>