<?xml version="1.0" encoding="iso-8859-1"?>
<!-- Generator: Adobe Illustrator 16.0.4, SVG Export Plug-In . SVG Version: 6.00 Build 0)  -->
<!DOCTYPE svg PUBLIC "-//W3C//DTD SVG 1.1//EN" "http://www.w3.org/Graphics/SVG/1.1/DTD/svg11.dtd">
<svg version="1.1" xmlns="http://www.w3.org/2000/svg" xmlns:xlink="http://www.w3.org/1999/xlink" x="0px" y="0px"
	 width="242.65px" height="153.01px" viewBox="0 0 242.65 153.01" style="enable-background:new 0 0 242.65 153.01;"
	 xml:space="preserve">
<g id="bitcoin">
	<g transform="translate(-289.60744,-317.50471)">
		<path style="fill:#F39200;" d="M342.516,399.881c-3.241,12.999-16.408,20.911-29.411,17.67
			c-12.997-3.242-20.909-16.41-17.666-29.409c3.24-13.002,16.407-20.915,29.405-17.673
			C337.846,373.709,345.757,386.879,342.516,399.881L342.516,399.881z"/>
		<path style="fill:#FFFFFF;" d="M329.677,390.552c0.483-3.229-1.976-4.965-5.338-6.123l1.091-4.374l-2.663-0.663l-1.062,4.257
			c-0.7-0.173-1.419-0.337-2.134-0.5l1.069-4.288l-2.661-0.663l-1.091,4.373c-0.579-0.133-1.147-0.263-1.7-0.4l0.003-0.014
			l-3.671-0.917l-0.709,2.844c0,0,1.976,0.454,1.934,0.481c1.078,0.269,1.273,0.981,1.241,1.548l-1.243,4.983
			c0.075,0.02,0.171,0.047,0.277,0.089c-0.089-0.021-0.184-0.046-0.282-0.069l-1.741,6.98c-0.132,0.327-0.466,0.819-1.22,0.633
			c0.026,0.038-1.936-0.483-1.936-0.483l-1.322,3.049l3.465,0.864c0.645,0.161,1.276,0.329,1.898,0.489l-1.103,4.425l2.66,0.664
			l1.091-4.377c0.727,0.196,1.432,0.378,2.122,0.549l-1.087,4.357l2.663,0.665l1.102-4.419c4.541,0.859,7.954,0.513,9.392-3.593
			c1.158-3.307-0.057-5.215-2.446-6.458C328.017,394.061,329.327,392.916,329.677,390.552L329.677,390.552z M323.593,399.083
			c-0.823,3.307-6.39,1.521-8.195,1.07l1.462-5.86C318.665,394.742,324.453,395.634,323.593,399.083z M324.417,390.504
			c-0.75,3.008-5.384,1.48-6.887,1.105l1.326-5.316C320.358,386.668,325.199,387.367,324.417,390.504z"/>
		<path style="fill:#55514F;" d="M365.827,384.425c1.968,0,3.668,0.353,5.098,1.045c1.436,0.699,2.62,1.641,3.57,2.825
			c0.938,1.191,1.634,2.583,2.085,4.177c0.447,1.599,0.673,3.318,0.673,5.158c0,2.829-0.52,5.499-1.564,8.019
			c-1.046,2.521-2.465,4.708-4.27,6.574c-1.804,1.863-3.933,3.332-6.389,4.416c-2.452,1.086-5.117,1.63-7.979,1.63
			c-0.37,0-1.021-0.011-1.94-0.03c-0.919-0.018-1.975-0.113-3.158-0.273c-1.191-0.167-2.45-0.412-3.779-0.741
			c-1.329-0.323-2.591-0.776-3.779-1.351l10.626-44.648l9.517-1.476l-3.804,15.845c0.814-0.368,1.635-0.652,2.455-0.859
			C364.007,384.531,364.887,384.425,365.827,384.425L365.827,384.425z M357.845,410.717c1.434,0,2.784-0.352,4.052-1.044
			c1.273-0.692,2.371-1.629,3.291-2.796c0.919-1.17,1.647-2.489,2.179-3.963c0.53-1.472,0.799-3.01,0.799-4.609
			c0-1.967-0.329-3.497-0.983-4.604c-0.655-1.104-1.865-1.66-3.625-1.66c-0.576,0-1.319,0.109-2.24,0.306
			c-0.923,0.209-1.75,0.642-2.491,1.293l-4.051,16.827c0.244,0.042,0.46,0.083,0.644,0.122c0.181,0.041,0.38,0.072,0.579,0.092
			c0.209,0.023,0.45,0.035,0.741,0.035C357.031,410.717,357.394,410.717,357.845,410.717L357.845,410.717z"/>
		<path style="fill:#55514F;" d="M387.123,417.413h-9.091l7.677-32.303h9.153L387.123,417.413z M391.546,381.174
			c-1.269,0-2.419-0.378-3.441-1.135c-1.029-0.753-1.539-1.91-1.539-3.471c0-0.858,0.175-1.664,0.521-2.424
			c0.351-0.758,0.81-1.412,1.385-1.966c0.574-0.551,1.239-0.991,1.995-1.322c0.76-0.326,1.567-0.489,2.43-0.489
			c1.268,0,2.412,0.378,3.437,1.134c1.021,0.761,1.534,1.918,1.534,3.472c0,0.86-0.173,1.669-0.522,2.428
			c-0.347,0.759-0.805,1.412-1.38,1.967c-0.569,0.551-1.241,0.989-1.994,1.318C393.21,381.016,392.404,381.174,391.546,381.174
			L391.546,381.174z"/>
		<path style="fill:#55514F;" d="M402.828,377.061l9.52-1.475l-2.336,9.522h10.197l-1.841,7.492h-10.136l-2.701,11.299
			c-0.248,0.942-0.389,1.821-0.428,2.64c-0.045,0.821,0.059,1.527,0.304,2.121c0.245,0.595,0.685,1.053,1.322,1.378
			c0.633,0.329,1.54,0.497,2.731,0.497c0.98,0,1.937-0.095,2.861-0.279c0.917-0.183,1.849-0.435,2.789-0.768l0.679,7.005
			c-1.229,0.45-2.56,0.839-3.991,1.164c-1.436,0.331-3.137,0.489-5.1,0.489c-2.825,0-5.014-0.42-6.574-1.253
			c-1.557-0.841-2.659-1.991-3.318-3.444c-0.648-1.45-0.94-3.12-0.858-5.003c0.084-1.887,0.369-3.87,0.858-5.959L402.828,377.061
			L402.828,377.061z"/>
		<path style="fill:#55514F;" d="M419.809,404.513c0-2.782,0.449-5.407,1.349-7.864c0.899-2.458,2.192-4.607,3.873-6.452
			c1.674-1.836,3.714-3.291,6.114-4.358c2.39-1.062,5.062-1.598,8.012-1.598c1.844,0,3.491,0.175,4.941,0.524
			c1.457,0.353,2.774,0.809,3.964,1.379l-3.133,7.128c-0.818-0.332-1.671-0.625-2.548-0.889c-0.881-0.271-1.953-0.401-3.225-0.401
			c-3.034,0-5.433,1.045-7.217,3.131c-1.779,2.085-2.675,4.894-2.675,8.416c0,2.089,0.45,3.776,1.354,5.067
			c0.898,1.291,2.562,1.936,4.974,1.936c1.189,0,2.339-0.125,3.438-0.367c1.11-0.248,2.088-0.557,2.951-0.921l0.678,7.306
			c-1.149,0.445-2.417,0.849-3.809,1.201c-1.393,0.342-3.053,0.518-4.978,0.518c-2.539,0-4.688-0.369-6.447-1.103
			c-1.76-0.742-3.213-1.729-4.358-2.979c-1.151-1.252-1.978-2.717-2.489-4.396C420.067,408.115,419.809,406.352,419.809,404.513
			L419.809,404.513z"/>
		<path style="fill:#55514F;" d="M460.19,418.269c-2.17,0-4.056-0.33-5.653-0.985c-1.595-0.653-2.914-1.572-3.96-2.763
			c-1.045-1.184-1.827-2.588-2.363-4.206c-0.537-1.615-0.794-3.407-0.794-5.369c0-2.46,0.395-4.92,1.193-7.376
			c0.794-2.456,1.975-4.666,3.534-6.628c1.55-1.968,3.46-3.575,5.708-4.829c2.247-1.246,4.833-1.871,7.734-1.871
			c2.131,0,4.006,0.332,5.627,0.985c1.613,0.654,2.941,1.579,3.991,2.764c1.039,1.191,1.828,2.589,2.359,4.209
			c0.535,1.614,0.798,3.408,0.798,5.371c0,2.455-0.389,4.915-1.162,7.376c-0.775,2.448-1.923,4.663-3.44,6.632
			c-1.514,1.962-3.407,3.569-5.681,4.817C465.814,417.644,463.18,418.269,460.19,418.269L460.19,418.269z M464.733,391.985
			c-1.349,0-2.539,0.391-3.56,1.163c-1.023,0.782-1.884,1.765-2.576,2.949c-0.701,1.192-1.22,2.49-1.571,3.901
			c-0.349,1.415-0.519,2.752-0.519,4.022c0,2.049,0.33,3.646,0.98,4.795c0.658,1.142,1.843,1.719,3.562,1.719
			c1.354,0,2.538-0.391,3.563-1.17c1.017-0.776,1.88-1.76,2.577-2.947c0.697-1.185,1.221-2.486,1.571-3.901
			c0.344-1.41,0.519-2.753,0.519-4.021c0-2.046-0.328-3.646-0.983-4.792C467.641,392.559,466.453,391.985,464.733,391.985
			L464.733,391.985z"/>
		<path style="fill:#55514F;" d="M488.272,417.413h-9.099l7.677-32.303h9.157L488.272,417.413z M492.689,381.174
			c-1.269,0-2.418-0.378-3.438-1.135c-1.023-0.753-1.538-1.91-1.538-3.471c0-0.858,0.177-1.664,0.523-2.424
			c0.347-0.758,0.808-1.412,1.383-1.966c0.571-0.551,1.242-0.991,1.996-1.322c0.755-0.326,1.563-0.489,2.422-0.489
			c1.271,0,2.419,0.378,3.442,1.134c1.022,0.761,1.538,1.918,1.538,3.472c0,0.86-0.182,1.669-0.526,2.428
			c-0.343,0.759-0.806,1.412-1.377,1.967c-0.577,0.551-1.239,0.989-1.994,1.318C494.359,381.016,493.553,381.174,492.689,381.174z"
			/>
		<path style="fill:#55514F;" d="M502.56,386.578c0.69-0.202,1.46-0.444,2.299-0.708c0.841-0.264,1.781-0.51,2.83-0.731
			c1.039-0.229,2.209-0.414,3.498-0.557c1.288-0.146,2.757-0.218,4.389-0.218c4.793,0,8.098,1.396,9.923,4.181
			c1.823,2.783,2.139,6.591,0.955,11.423l-4.182,17.442h-9.151l4.056-17.075c0.246-1.067,0.44-2.098,0.583-3.105
			c0.146-0.998,0.138-1.878-0.033-2.64c-0.161-0.752-0.541-1.365-1.133-1.843c-0.6-0.469-1.507-0.706-2.733-0.706
			c-1.188,0-2.393,0.127-3.624,0.373l-5.958,24.995h-9.153L502.56,386.578z"/>
	</g>
</g>
<g id="Layer_1">
</g>
</svg>
