<svg width="32" height="30" viewBox="0 0 80 140" fill="none" xmlns="http://www.w3.org/2000/svg">
<path d="M0 18.7498C0 17.7552 0.395088 16.8014 1.09835 16.0982C1.80161 15.3949 2.75544 14.9998 3.75 14.9998C17.065 14.9998 30.04 10.2849 42.75 0.749992C43.3991 0.263164 44.1886 0 45 0C45.8114 0 46.6009 0.263164 47.25 0.749992C59.96 10.2849 72.935 14.9998 86.25 14.9998C87.2446 14.9998 88.1984 15.3949 88.9017 16.0982C89.6049 16.8014 90 17.7552 90 18.7498V44.9995C90 70.0042 75.21 88.379 46.375 99.7388C45.4914 100.087 44.5086 100.087 43.625 99.7388C14.79 88.379 0 69.9992 0 44.9995V18.7498Z" fill="white"/>
<path d="M76.1874 50.1514C76.1874 67.3259 62.2775 81.2486 45.1187 81.2486C27.96 81.2486 14.05 67.3259 14.05 50.1514C14.05 32.9769 27.96 19.0542 45.1187 19.0542C62.2775 19.0542 76.1874 32.9769 76.1874 50.1514Z" fill="#161616"/>
<path d="M60.3883 31.6152C60.1206 31.6152 59.8653 31.7282 59.6851 31.9265L37.5701 56.2635C37.2388 56.628 36.6843 56.679 36.2921 56.3811L30.5672 52.0303C30.4018 51.9047 30.2 51.8367 29.9924 51.8367H28.3064C27.5628 51.8367 27.1072 52.6528 27.4969 53.2867L36.2374 67.503C36.5929 68.0813 37.4218 68.1113 37.8182 67.5603L62.5907 33.1225C63.0434 32.4932 62.5941 31.6152 61.8193 31.6152H60.3883Z" fill="white"/>
</svg>
