<svg width="17" height="23" viewBox="0 0 17 23" fill="none" xmlns="http://www.w3.org/2000/svg">
<path id="Vector" d="M1.28583 0.871383C1.58765 0.715964 1.92649 0.646822 2.26508 0.671565C2.60366 0.696307 2.92885 0.813976 3.20487 1.01162L16.1215 10.2378C16.3607 10.4085 16.5557 10.6339 16.6902 10.8951C16.8248 11.1564 16.8949 11.446 16.8949 11.7398C16.8949 12.0337 16.8248 12.3233 16.6902 12.5846C16.5557 12.8458 16.3607 13.0712 16.1215 13.2419L3.20487 22.468C2.92895 22.6655 2.60391 22.7831 2.2655 22.8078C1.9271 22.8326 1.58842 22.7635 1.2867 22.6083C0.984984 22.4531 0.731917 22.2176 0.555319 21.9279C0.378721 21.6382 0.285431 21.3053 0.285707 20.966V2.51365C0.285351 2.17443 0.378511 1.84167 0.554949 1.55195C0.731387 1.26223 0.984275 1.02675 1.28583 0.871383Z" fill="#7593FF"/>
</svg>
