<svg width="165" height="158" viewBox="0 0 165 158" fill="none" xmlns="http://www.w3.org/2000/svg">
<path d="M78.3125 5.01541C80.3144 2.4633 84.1788 2.4633 86.1807 5.01542L90.6606 10.7267C92.2583 12.7635 95.1463 13.244 97.3175 11.8344L103.56 7.7815C106.295 6.00583 109.97 7.28091 111.017 10.3688L113.244 16.933C114.086 19.4134 116.699 20.8241 119.234 20.1665L126.402 18.3078C129.601 17.4782 132.71 19.925 132.656 23.2293L132.548 29.8258C132.505 32.4935 134.564 34.7255 137.226 34.8971L144.369 35.3573C147.719 35.5732 149.909 38.9634 148.728 42.1058L146.478 48.0916C145.524 50.6327 146.771 53.4715 149.288 54.4872L155.6 57.0339C158.748 58.3042 159.743 62.276 157.564 64.8796L153.45 69.7951C151.692 71.8954 151.951 75.019 154.031 76.8009L158.968 81.031C161.553 83.2455 161.218 87.3391 158.307 89.1036L152.631 92.5453C150.296 93.9608 149.528 96.9876 150.906 99.3447L154.123 104.846C155.829 107.763 154.21 111.497 150.915 112.245L144.103 113.794C141.477 114.39 139.795 116.96 140.299 119.605L141.511 125.963C142.134 129.236 139.444 132.191 136.127 131.877L128.858 131.188C126.227 130.938 123.856 132.779 123.446 135.39L122.399 142.064C121.89 145.305 118.451 147.186 115.448 145.866L108.625 142.868C106.244 141.822 103.458 142.776 102.218 145.062L98.8301 151.307C97.2813 154.162 93.4641 154.806 91.0649 152.617L85.6168 147.645C83.7076 145.903 80.7855 145.903 78.8764 147.645L73.4283 152.617C71.029 154.806 67.2118 154.162 65.6631 151.307L62.2751 145.062C61.035 142.776 58.2496 141.822 55.8686 142.868L49.0456 145.866C46.0424 147.186 42.6034 145.305 42.0946 142.064L41.0469 135.39C40.6371 132.779 38.2664 130.938 35.6356 131.188L28.3659 131.877C25.0495 132.191 22.3589 129.236 22.9825 125.963L24.1941 119.605C24.6982 116.96 23.0166 114.39 20.3905 113.794L13.5784 112.245C10.2834 111.497 8.66455 107.763 10.3701 104.846L13.5868 99.3447C14.965 96.9876 14.1975 93.9608 11.8626 92.5453L6.18573 89.1036C3.27524 87.3391 2.94003 83.2455 5.52469 81.031L10.4619 76.8009C12.5417 75.019 12.8009 71.8954 11.0431 69.795L6.92956 64.8796C4.75064 62.276 5.74467 58.3042 8.89314 57.0339L15.205 54.4872C17.7224 53.4715 18.9695 50.6327 18.0147 48.0916L15.7654 42.1058C14.5845 38.9634 16.7743 35.5732 20.1243 35.3573L27.267 34.8971C29.9296 34.7255 31.9884 32.4935 31.9448 29.8258L31.837 23.2294C31.7831 19.925 34.8926 17.4782 38.0915 18.3078L45.2587 20.1665C47.7942 20.8241 50.4074 19.4134 51.2489 16.9329L53.4757 10.3688C54.5233 7.28091 58.1986 6.00583 60.9334 7.7815L67.1757 11.8344C69.3468 13.244 72.2349 12.7635 73.8326 10.7267L78.3125 5.01541Z" fill="#007FFF"/>
<g filter="url(#filter0_d_5118_2121)">
<path d="M42.663 107.938H37.3076V92.953H42.7072C44.2268 92.953 45.5349 93.253 46.6315 93.853C47.7281 94.4482 48.5715 95.3043 49.1616 96.4213C49.7567 97.5384 50.0542 98.875 50.0542 100.431C50.0542 101.992 49.7567 103.334 49.1616 104.456C48.5715 105.577 47.7232 106.438 46.6167 107.038C45.5152 107.638 44.1973 107.938 42.663 107.938ZM40.5016 105.224H42.5302C43.4744 105.224 44.2686 105.058 44.9128 104.726C45.5619 104.39 46.0488 103.87 46.3733 103.168C46.7028 102.46 46.8675 101.548 46.8675 100.431C46.8675 99.3238 46.7028 98.4189 46.3733 97.7165C46.0488 97.014 45.5644 96.4969 44.9202 96.1652C44.2759 95.8335 43.4817 95.6677 42.5375 95.6677H40.5016V105.224Z" fill="#FDFDFD"/>
<path d="M52.3612 107.938V96.6994H55.5036V107.938H52.3612ZM53.9398 95.2506C53.4726 95.2506 53.0718 95.0969 52.7374 94.7896C52.4079 94.4774 52.2432 94.1043 52.2432 93.6701C52.2432 93.2408 52.4079 92.8725 52.7374 92.5652C53.0718 92.253 53.4726 92.0969 53.9398 92.0969C54.4069 92.0969 54.8053 92.253 55.1348 92.5652C55.4692 92.8725 55.6364 93.2408 55.6364 93.6701C55.6364 94.1043 55.4692 94.4774 55.1348 94.7896C54.8053 95.0969 54.4069 95.2506 53.9398 95.2506Z" fill="#FDFDFD"/>
<path d="M67.448 99.9043L64.5711 100.08C64.522 99.836 64.4162 99.6165 64.2539 99.4214C64.0917 99.2214 63.8777 99.0628 63.6122 98.9457C63.3515 98.8238 63.0393 98.7628 62.6754 98.7628C62.1885 98.7628 61.7779 98.8653 61.4435 99.0701C61.1091 99.2701 60.9419 99.5384 60.9419 99.875C60.9419 100.143 61.0501 100.37 61.2665 100.556C61.4828 100.741 61.8541 100.89 62.3803 101.002L64.431 101.412C65.5325 101.636 66.3538 101.997 66.8947 102.495C67.4357 102.992 67.7061 103.646 67.7061 104.456C67.7061 105.192 67.4873 105.838 67.0496 106.395C66.6169 106.951 66.0218 107.385 65.2645 107.697C64.5121 108.004 63.6441 108.158 62.6606 108.158C61.1607 108.158 59.9657 107.848 59.0756 107.229C58.1905 106.604 57.6716 105.756 57.5192 104.682L60.61 104.521C60.7034 104.975 60.9296 105.321 61.2886 105.56C61.6476 105.795 62.1074 105.912 62.668 105.912C63.2188 105.912 63.6614 105.807 63.9958 105.597C64.3351 105.382 64.5072 105.107 64.5121 104.77C64.5072 104.487 64.3867 104.256 64.1507 104.075C63.9146 103.89 63.5507 103.748 63.0589 103.651L61.0968 103.263C59.9903 103.043 59.1666 102.663 58.6257 102.121C58.0896 101.58 57.8216 100.89 57.8216 100.051C57.8216 99.3287 58.0183 98.7067 58.4118 98.1848C58.8101 97.6628 59.3682 97.2604 60.0862 96.9774C60.8091 96.6945 61.655 96.553 62.6237 96.553C64.0548 96.553 65.1809 96.8531 66.0022 97.4531C66.8283 98.0531 67.3103 98.8701 67.448 99.9043Z" fill="#FDFDFD"/>
<path d="M74.8042 108.158C73.6436 108.158 72.6453 107.914 71.8093 107.426C70.9782 106.934 70.3389 106.251 69.8914 105.377C69.4488 104.504 69.2275 103.499 69.2275 102.363C69.2275 101.212 69.4513 100.202 69.8988 99.3336C70.3512 98.4604 70.993 97.7799 71.8241 97.2921C72.6551 96.7994 73.6436 96.553 74.7894 96.553C75.7779 96.553 76.6434 96.7311 77.3859 97.0872C78.1285 97.4433 78.7162 97.9433 79.1489 98.5872C79.5817 99.2311 79.8202 99.9872 79.8644 100.856H76.8991C76.8155 100.295 76.5942 99.8433 76.2352 99.5018C75.8811 99.1555 75.4164 98.9823 74.841 98.9823C74.3542 98.9823 73.9288 99.114 73.5649 99.3775C73.2059 99.636 72.9256 100.014 72.724 100.512C72.5224 101.009 72.4216 101.612 72.4216 102.319C72.4216 103.036 72.5199 103.646 72.7166 104.148C72.9182 104.651 73.201 105.034 73.5649 105.297C73.9288 105.56 74.3542 105.692 74.841 105.692C75.2 105.692 75.5221 105.619 75.8074 105.473C76.0975 105.326 76.336 105.114 76.5229 104.836C76.7147 104.553 76.8401 104.214 76.8991 103.819H79.8644C79.8153 104.677 79.5792 105.434 79.1563 106.087C78.7383 106.736 78.1605 107.243 77.4228 107.609C76.6852 107.975 75.8123 108.158 74.8042 108.158Z" fill="#FDFDFD"/>
<path d="M86.9957 108.158C85.8498 108.158 84.8589 107.917 84.0229 107.434C83.1919 106.946 82.5501 106.268 82.0977 105.399C81.6452 104.526 81.419 103.514 81.419 102.363C81.419 101.202 81.6452 100.187 82.0977 99.3189C82.5501 98.4457 83.1919 97.7677 84.0229 97.2848C84.8589 96.7969 85.8498 96.553 86.9957 96.553C88.1415 96.553 89.1299 96.7969 89.961 97.2848C90.797 97.7677 91.4412 98.4457 91.8937 99.3189C92.3461 100.187 92.5723 101.202 92.5723 102.363C92.5723 103.514 92.3461 104.526 91.8937 105.399C91.4412 106.268 90.797 106.946 89.961 107.434C89.1299 107.917 88.1415 108.158 86.9957 108.158ZM87.0104 105.743C87.5317 105.743 87.9669 105.597 88.3161 105.304C88.6652 105.007 88.9283 104.602 89.1053 104.09C89.2873 103.577 89.3783 102.995 89.3783 102.341C89.3783 101.687 89.2873 101.104 89.1053 100.592C88.9283 100.08 88.6652 99.675 88.3161 99.3775C87.9669 99.0799 87.5317 98.9311 87.0104 98.9311C86.4842 98.9311 86.0416 99.0799 85.6826 99.3775C85.3286 99.675 85.0606 100.08 84.8786 100.592C84.7016 101.104 84.6131 101.687 84.6131 102.341C84.6131 102.995 84.7016 103.577 84.8786 104.09C85.0606 104.602 85.3286 105.007 85.6826 105.304C86.0416 105.597 86.4842 105.743 87.0104 105.743Z" fill="#FDFDFD"/>
<path d="M101.881 103.153V96.6994H105.024V107.938H102.007V105.897H101.889C101.633 106.556 101.208 107.085 100.613 107.485C100.023 107.885 99.3021 108.085 98.4514 108.085C97.694 108.085 97.0277 107.914 96.4523 107.573C95.877 107.231 95.427 106.746 95.1024 106.117C94.7828 105.487 94.6205 104.734 94.6156 103.856V96.6994H97.758V103.299C97.7629 103.963 97.9424 104.487 98.2964 104.873C98.6505 105.258 99.1251 105.451 99.7201 105.451C100.099 105.451 100.453 105.365 100.782 105.195C101.112 105.019 101.377 104.76 101.579 104.419C101.786 104.077 101.886 103.656 101.881 103.153Z" fill="#FDFDFD"/>
<path d="M110.68 101.441V107.938H107.537V96.6994H110.532V98.6823H110.665C110.916 98.0287 111.336 97.5116 111.926 97.1311C112.516 96.7457 113.232 96.553 114.073 96.553C114.86 96.553 115.546 96.7238 116.131 97.0652C116.716 97.4067 117.171 97.8945 117.496 98.5287C117.82 99.1579 117.982 99.9092 117.982 100.782V107.938H114.84V101.338C114.845 100.651 114.668 100.114 114.309 99.7287C113.95 99.3384 113.456 99.1433 112.826 99.1433C112.403 99.1433 112.03 99.2336 111.705 99.414C111.385 99.5945 111.135 99.8579 110.953 100.204C110.776 100.546 110.685 100.958 110.68 101.441Z" fill="#FDFDFD"/>
<path d="M126.486 96.6994V99.0409H119.662V96.6994H126.486ZM121.212 94.0067H124.354V104.485C124.354 104.773 124.398 104.997 124.487 105.158C124.575 105.314 124.698 105.424 124.856 105.487C125.018 105.551 125.205 105.582 125.416 105.582C125.564 105.582 125.711 105.57 125.859 105.546C126.006 105.517 126.119 105.495 126.198 105.48L126.692 107.799C126.535 107.848 126.314 107.904 126.028 107.968C125.743 108.036 125.396 108.077 124.988 108.092C124.231 108.121 123.567 108.021 122.997 107.792C122.431 107.563 121.991 107.207 121.676 106.724C121.361 106.241 121.207 105.631 121.212 104.895V94.0067Z" fill="#FDFDFD"/>
</g>
<g filter="url(#filter1_d_5118_2121)">
<path d="M45.2978 62.1976H49.0042C50.1915 62.1976 51.1702 61.9946 51.9403 61.5887C52.7105 61.1665 53.28 60.582 53.6491 59.8351C54.0341 59.072 54.2267 58.1871 54.2267 57.1804C54.2267 56.2712 54.0502 55.4674 53.6972 54.7693C53.3603 54.0548 52.8388 53.5028 52.1329 53.1131C51.4269 52.7072 50.5364 52.5042 49.4614 52.5042C48.6111 52.5042 47.8249 52.6747 47.1029 53.0157C46.3809 53.3567 45.8032 53.8357 45.37 54.4526C44.9368 55.0696 44.7202 55.8165 44.7202 56.6933H37.7649C37.7649 54.7449 38.2783 53.0482 39.3052 51.6031C40.3481 50.158 41.744 49.0296 43.4928 48.2178C45.2417 47.4059 47.167 47 49.2689 47C51.6435 47 53.7213 47.3897 55.5022 48.169C57.2832 48.9322 58.671 50.0606 59.6658 51.5544C60.6606 53.0482 61.158 54.8992 61.158 57.1074C61.158 58.2277 60.9012 59.3155 60.3878 60.3709C59.8744 61.4101 59.1363 62.3518 58.1737 63.1961C57.227 64.0242 56.0718 64.6899 54.708 65.1932C53.3442 65.6803 51.812 65.9239 50.1112 65.9239H45.2978V62.1976ZM45.2978 67.5313V63.9024H50.1112C52.0205 63.9024 53.6972 64.1216 55.1412 64.56C56.5852 64.9984 57.7966 65.6316 58.7753 66.4597C59.7541 67.2715 60.4921 68.2376 60.9895 69.3579C61.4869 70.462 61.7356 71.6879 61.7356 73.0356C61.7356 74.6917 61.4227 76.1692 60.797 77.4682C60.1712 78.7509 59.2888 79.8387 58.1496 80.7318C57.0265 81.6248 55.7108 82.3067 54.2026 82.7776C52.6944 83.2322 51.0498 83.4595 49.2689 83.4595C47.7928 83.4595 46.3407 83.2566 44.9128 82.8507C43.5008 82.4285 42.2173 81.8034 41.0621 80.9753C39.9229 80.131 39.0083 79.0756 38.3184 77.8092C37.6446 76.5265 37.3076 75.0083 37.3076 73.2548H44.263C44.263 74.164 44.4876 74.9758 44.9368 75.6903C45.3861 76.4047 46.0038 76.9648 46.79 77.3708C47.5922 77.7767 48.4827 77.9796 49.4614 77.9796C50.5685 77.9796 51.5151 77.7767 52.3013 77.3708C53.1036 76.9486 53.7133 76.3641 54.1304 75.6172C54.5636 74.8541 54.7802 73.9692 54.7802 72.9625C54.7802 71.6636 54.5476 70.6244 54.0823 69.845C53.617 69.0494 52.9511 68.4649 52.0847 68.0915C51.2183 67.718 50.1915 67.5313 49.0042 67.5313H45.2978Z" fill="white"/>
<path d="M90.0864 62.1245V68.262C90.0864 70.9248 89.8056 73.2223 89.2441 75.1545C88.6825 77.0704 87.8723 78.6453 86.8133 79.8793C85.7704 81.0971 84.527 81.9982 83.0829 82.5827C81.6389 83.1673 80.0345 83.4595 78.2696 83.4595C76.8576 83.4595 75.542 83.2809 74.3226 82.9237C73.1032 82.5503 72.0041 81.9739 71.0254 81.1945C70.0627 80.4151 69.2284 79.4328 68.5224 78.2475C67.8325 77.046 67.3031 75.6172 66.934 73.9611C66.565 72.3049 66.3805 70.4052 66.3805 68.262V62.1245C66.3805 59.4617 66.6613 57.1804 67.2228 55.2807C67.8004 53.3648 68.6107 51.7979 69.6536 50.5802C70.7125 49.3624 71.964 48.4694 73.408 47.9011C74.8521 47.3166 76.4565 47.0244 78.2214 47.0244C79.6334 47.0244 80.941 47.2111 82.1443 47.5845C83.3637 47.9417 84.4628 48.5019 85.4415 49.265C86.4202 50.0281 87.2546 51.0105 87.9445 52.212C88.6344 53.3973 89.1639 54.818 89.5329 56.4741C89.9019 58.114 90.0864 59.9975 90.0864 62.1245ZM83.1311 69.1875V61.1746C83.1311 59.8919 83.0589 58.7716 82.9145 57.8136C82.7861 56.8557 82.5856 56.0438 82.3128 55.3781C82.04 54.6962 81.7031 54.1442 81.302 53.722C80.9009 53.2998 80.4436 52.9913 79.9302 52.7965C79.4168 52.6017 78.8472 52.5042 78.2214 52.5042C77.4352 52.5042 76.7373 52.6585 76.1276 52.967C75.534 53.2755 75.0285 53.7707 74.6114 54.4526C74.1942 55.1184 73.8733 56.0114 73.6487 57.1317C73.4401 58.2358 73.3358 59.5834 73.3358 61.1746V69.1875C73.3358 70.4702 73.4 71.5986 73.5284 72.5728C73.6728 73.547 73.8814 74.3832 74.1541 75.0814C74.4429 75.7633 74.7799 76.3235 75.1649 76.7619C75.566 77.184 76.0233 77.4925 76.5367 77.6874C77.0662 77.8822 77.6438 77.9796 78.2696 77.9796C79.0397 77.9796 79.7216 77.8254 80.3153 77.5169C80.9249 77.1922 81.4384 76.6888 81.8555 76.0069C82.2887 75.3087 82.6096 74.3994 82.8182 73.2791C83.0268 72.1588 83.1311 70.7949 83.1311 69.1875Z" fill="white"/>
<path d="M94.7073 56.2062V54.3309C94.7073 52.9832 94.9961 51.7574 95.5737 50.6533C96.1513 49.5492 97.0017 48.6643 98.1248 47.9986C99.2479 47.3329 100.628 47 102.264 47C103.949 47 105.353 47.3329 106.476 47.9986C107.615 48.6643 108.466 49.5492 109.027 50.6533C109.605 51.7574 109.894 52.9832 109.894 54.3309V56.2062C109.894 57.5214 109.605 58.731 109.027 59.8351C108.466 60.9392 107.623 61.8241 106.5 62.4898C105.377 63.1555 103.989 63.4884 102.337 63.4884C100.668 63.4884 99.264 63.1555 98.1248 62.4898C97.0017 61.8241 96.1513 60.9392 95.5737 59.8351C94.9961 58.731 94.7073 57.5214 94.7073 56.2062ZM99.3041 54.3309V56.2062C99.3041 56.7745 99.4084 57.3184 99.6169 57.838C99.8416 58.3413 100.179 58.7554 100.628 59.0801C101.093 59.3886 101.655 59.5429 102.312 59.5429C103.002 59.5429 103.564 59.3886 103.997 59.0801C104.43 58.7554 104.751 58.3413 104.96 57.838C105.168 57.3184 105.273 56.7745 105.273 56.2062V54.3309C105.273 53.7301 105.16 53.1781 104.936 52.6747C104.727 52.1552 104.398 51.7411 103.949 51.4326C103.516 51.1079 102.954 50.9455 102.264 50.9455C101.623 50.9455 101.077 51.1079 100.628 51.4326C100.179 51.7411 99.8416 52.1552 99.6169 52.6747C99.4084 53.1781 99.3041 53.7301 99.3041 54.3309ZM111.458 76.153V74.2777C111.458 72.9463 111.747 71.7285 112.324 70.6244C112.918 69.5203 113.776 68.6354 114.899 67.9697C116.039 67.304 117.435 66.9711 119.087 66.9711C120.756 66.9711 122.152 67.304 123.275 67.9697C124.398 68.6354 125.248 69.5203 125.826 70.6244C126.403 71.7285 126.692 72.9463 126.692 74.2777V76.153C126.692 77.4844 126.403 78.7022 125.826 79.8063C125.264 80.9104 124.422 81.7953 123.299 82.461C122.176 83.1267 120.788 83.4595 119.135 83.4595C117.467 83.4595 116.063 83.1267 114.924 82.461C113.784 81.7953 112.918 80.9104 112.324 79.8063C111.747 78.7022 111.458 77.4844 111.458 76.153ZM116.079 74.2777V76.153C116.079 76.7375 116.207 77.2896 116.464 77.8092C116.721 78.3287 117.074 78.7428 117.523 79.0513C117.988 79.3598 118.526 79.514 119.135 79.514C119.905 79.514 120.507 79.3598 120.94 79.0513C121.373 78.7428 121.67 78.3287 121.831 77.8092C122.007 77.2896 122.095 76.7375 122.095 76.153V74.2777C122.095 73.6931 121.983 73.1492 121.759 72.6459C121.534 72.1263 121.197 71.7123 120.748 71.4038C120.315 71.079 119.761 70.9167 119.087 70.9167C118.413 70.9167 117.852 71.079 117.402 71.4038C116.969 71.7123 116.64 72.1263 116.416 72.6459C116.191 73.1492 116.079 73.6931 116.079 74.2777ZM120.796 52.5773L103.684 80.2934L100.315 78.4911L117.426 50.775L120.796 52.5773Z" fill="white"/>
</g>
<defs>
<filter id="filter0_d_5118_2121" x="30.3076" y="89.0969" width="103.385" height="30.061" filterUnits="userSpaceOnUse" color-interpolation-filters="sRGB">
<feFlood flood-opacity="0" result="BackgroundImageFix"/>
<feColorMatrix in="SourceAlpha" type="matrix" values="0 0 0 0 0 0 0 0 0 0 0 0 0 0 0 0 0 0 127 0" result="hardAlpha"/>
<feOffset dy="4"/>
<feGaussianBlur stdDeviation="3.5"/>
<feComposite in2="hardAlpha" operator="out"/>
<feColorMatrix type="matrix" values="0 0 0 0 0 0 0 0 0 0 0 0 0 0 0 0 0 0 0.12 0"/>
<feBlend mode="multiply" in2="BackgroundImageFix" result="effect1_dropShadow_5118_2121"/>
<feBlend mode="normal" in="SourceGraphic" in2="effect1_dropShadow_5118_2121" result="shape"/>
</filter>
<filter id="filter1_d_5118_2121" x="26.3076" y="40" width="111.385" height="58.4595" filterUnits="userSpaceOnUse" color-interpolation-filters="sRGB">
<feFlood flood-opacity="0" result="BackgroundImageFix"/>
<feColorMatrix in="SourceAlpha" type="matrix" values="0 0 0 0 0 0 0 0 0 0 0 0 0 0 0 0 0 0 127 0" result="hardAlpha"/>
<feOffset dy="4"/>
<feGaussianBlur stdDeviation="5.5"/>
<feComposite in2="hardAlpha" operator="out"/>
<feColorMatrix type="matrix" values="0 0 0 0 0 0 0 0 0 0 0 0 0 0 0 0 0 0 0.11 0"/>
<feBlend mode="normal" in2="BackgroundImageFix" result="effect1_dropShadow_5118_2121"/>
<feBlend mode="normal" in="SourceGraphic" in2="effect1_dropShadow_5118_2121" result="shape"/>
</filter>
</defs>
</svg>
