<svg width="24" height="24" viewBox="0 0 24 24" fill="none" xmlns="http://www.w3.org/2000/svg">
<g id="right-arrow 3">
<g id="Group 394">
<path id="Vector" d="M19.7363 11.2827L14.2821 4.43645C14.1879 4.31923 14.0715 4.22178 13.9396 4.1497C13.8076 4.07761 13.6627 4.03232 13.5132 4.01641C13.3637 4.00051 13.2125 4.01431 13.0684 4.05702C12.9242 4.09973 12.7899 4.17051 12.6732 4.26529C12.556 4.35945 12.4585 4.47585 12.3865 4.6078C12.3144 4.73974 12.2691 4.88463 12.2532 5.03414C12.2373 5.18365 12.2511 5.33483 12.2938 5.47899C12.3365 5.62314 12.4073 5.75744 12.5021 5.87415L17.3743 12.0015L12.2624 18.1289C12.1664 18.2442 12.094 18.3773 12.0494 18.5206C12.0049 18.664 11.989 18.8147 12.0028 18.9641C12.0166 19.1136 12.0597 19.2588 12.1297 19.3916C12.1997 19.5243 12.2952 19.642 12.4108 19.7378C12.6176 19.9038 12.8758 19.9925 13.141 19.9888C13.3087 19.9891 13.4743 19.9524 13.6262 19.8814C13.778 19.8104 13.9124 19.7068 14.0196 19.578L19.7249 12.7318C19.8943 12.5289 19.9881 12.2736 19.9902 12.0093C19.9922 11.745 19.9025 11.4882 19.7363 11.2827Z" fill="#257671"/>
<path id="Vector_2" d="M6.29484 4.43655C6.10419 4.19294 5.82457 4.03504 5.5175 3.9976C5.21043 3.96015 4.90105 4.04622 4.65744 4.23687C4.41383 4.42752 4.25593 4.70714 4.21848 5.01421C4.18104 5.32128 4.26711 5.63065 4.45776 5.87426L9.38707 12.0016L4.27519 18.1176C4.17911 18.2329 4.10673 18.366 4.06217 18.5093C4.01762 18.6527 4.00178 18.8034 4.01556 18.9528C4.02934 19.1023 4.07247 19.2475 4.14247 19.3803C4.21248 19.513 4.30799 19.6307 4.42353 19.7265C4.62882 19.8966 4.88719 19.9894 5.1538 19.9889C5.32143 19.9892 5.48706 19.9525 5.63892 19.8815C5.79077 19.8105 5.92512 19.7069 6.0324 19.5781L11.7376 12.7319C11.9055 12.5277 11.9972 12.2716 11.9972 12.0073C11.9972 11.743 11.9055 11.4869 11.7376 11.2828L6.29484 4.43655Z" fill="#257671"/>
</g>
</g>
</svg>
