<svg xmlns="http://www.w3.org/2000/svg" width="1000" height="1000" xml:space="preserve"><rect width="100%" height="100%" fill="#fff"/><g><path style="stroke:none;stroke-width:1;stroke-dasharray:none;stroke-linecap:butt;stroke-dashoffset:0;stroke-linejoin:miter;stroke-miterlimit:4;is-custom-font:none;font-file-url:none;fill:#abdcd5;fill-rule:nonzero;opacity:1" transform="translate(69.805 -71.285) scale(22.3252)" d="M36.293 13.156 21.527 4.608a4.473 4.473 0 0 0-4.494 0L2.268 13.156a4.48 4.48 0 0 0-1.86 2.095v.063l-.126.335a.588.588 0 0 0 0 .126c0 .095-.052.189-.083.273v.188a1.786 1.786 0 0 0 0 .23v.43a1.786 1.786 0 0 0 0 .23c-.006.07-.006.14 0 .21V17.766a2.1 2.1 0 0 0 0 .251v.168c0 .094.052.199.083.293a.798.798 0 0 0 0 .115c0 .116.084.23.136.346a4.48 4.48 0 0 0 1.86 2.095L31.768 38.1a4.541 4.541 0 0 0 6.207-1.687 4.565 4.565 0 0 0-1.682-6.222L13.585 17.084l5.695-3.3 10.22 5.93v4.106l9.06 5.238V17.085a4.517 4.517 0 0 0-2.267-3.929Z"/><path style="stroke:none;stroke-width:1;stroke-dasharray:none;stroke-linecap:butt;stroke-dashoffset:0;stroke-linejoin:miter;stroke-miterlimit:4;is-custom-font:none;font-file-url:none;fill:#abdcd5;fill-rule:nonzero;opacity:1" transform="translate(69.807 -71.287) scale(22.3252)" d="M19.238 37.43 9.06 31.541v-4.096L0 22.208v11.87a4.675 4.675 0 0 0 2.33 4.053l14.745 8.538a4.41 4.41 0 0 0 4.473 0l10.147-6.086-8.987-5.238-3.47 2.084Z"/></g></svg>