<svg xmlns="http://www.w3.org/2000/svg" width="80" height="32" fill="none" ><rect x=".6" y=".6" width="78.8" height="30.8" rx="2.4" fill="#fff"/><rect x=".6" y=".6" width="78.8" height="30.8" rx="2.4" stroke="#8796a1" stroke-width="1.2"/><path d="M14 19a3 3 0 1 0 0-6 3 3 0 1 0 0 6zm11.5 1.5a4.5 4.5 0 1 0 0-9 4.5 4.5 0 1 0 0 9z" fill="#bbc2c7"/><path d="M40 22a6 6 0 1 0 0-12 6 6 0 1 0 0 12z" fill="#58707f"/><path d="M54.5 20.5a4.5 4.5 0 1 0 0-9 4.5 4.5 0 1 0 0 9zM66 19a3 3 0 1 0 0-6 3 3 0 1 0 0 6z" fill="#bbc2c7"/></svg>