<svg xmlns="http://www.w3.org/2000/svg" width="80" height="32" fill="none" ><rect x=".6" y=".6" width="78.8" height="30.8" rx="2.4" fill="#fff"/><rect x=".6" y=".6" width="78.8" height="30.8" rx="2.4" stroke="#8796a1" stroke-width="1.2"/><circle cx="40" cy="16" r="10" fill="#58707f"/><path d="M36.664 12.98v5.688h-1.316v-4.203l-1.297.379v-1l2.492-.863h.121zm4.145 0l-1.945 6.176h-.937l1.945-6.176h.938zm3.359-.082h.211v1.035h-.07c-.253 0-.49.035-.711.105s-.411.177-.578.32-.293.319-.387.535-.137.47-.137.762v.996a2.14 2.14 0 0 0 .047.477.95.95 0 0 0 .141.336c.063.088.139.155.23.199a.75.75 0 0 0 .324.066c.102 0 .195-.023.281-.07s.16-.113.223-.199a.93.93 0 0 0 .148-.301 1.32 1.32 0 0 0 .051-.375c0-.146-.018-.277-.055-.395a.85.85 0 0 0-.156-.297c-.065-.083-.144-.146-.238-.187a.68.68 0 0 0-.301-.066.77.77 0 0 0-.426.113.73.73 0 0 0-.262.281.77.77 0 0 0-.086.348l-.316-.32c-.005-.156.025-.318.09-.484a1.5 1.5 0 0 1 .293-.465 1.47 1.47 0 0 1 .488-.348 1.63 1.63 0 0 1 .68-.133c.26 0 .49.049.688.148s.369.237.504.414a1.86 1.86 0 0 1 .313.621c.07.237.105.493.105.77s-.05.538-.148.777-.233.444-.41.621a1.89 1.89 0 0 1-.629.414 2.1 2.1 0 0 1-.801.148 2.23 2.23 0 0 1-.832-.152 1.96 1.96 0 0 1-.664-.449c-.187-.198-.335-.439-.441-.723s-.156-.605-.156-.965v-.48c0-.487.079-.921.238-1.301s.38-.702.656-.965.598-.468.957-.606.738-.207 1.137-.207z" fill="#fff"/></svg>