<svg width="425" height="55" viewBox="0 0 425 55" fill="none" xmlns="http://www.w3.org/2000/svg"><path d="M0 27a1 1 0 011-1h423a1 1 0 010 2H1a1 1 0 01-1-1z" fill="#E6E6E6"/><path d="M62 0h300l-12.032 27.5L362 55H62l12.032-26.4L62 0z" fill="#fff"/><path fill-rule="evenodd" clip-rule="evenodd" d="M349.968 27.5L362 0H62l12.032 28.6L62 55h300l-12.032-27.5zM360.471 54l-11.595-26.5L360.471 1H63.506l11.618 27.616L63.554 54h296.917z" fill="#BDBDBD"/><path fill-rule="evenodd" clip-rule="evenodd" d="M355.037 6L356 4h-2v1h.409l-.273.566.901.434zM70 4h-2l.963 2.08.907-.42-.305-.66H70V4zm.888 6.24l.907-.42 1.925 4.16-.907.42-1.925-4.16zm3.85 8.32l.907-.42 1.926 4.16-.908.42-1.925-4.16zm1.925 16.16l.894.448-1.925 3.84-.894-.448 1.925-3.84zm-3.85 7.68l.894.448-1.925 3.84-.894-.448 1.925-3.84zM354 52v-1h.409l-.273-.566.901-.434.963 2h-2zm-.888-6l-.901.434-1.925-4 .901-.434 1.925 4zm-3.85-8l-1.925-4-.901.434 1.925 4 .901-.434zm-1.925-16l-.901-.434 1.925-4 .901.434-1.925 4zm3.85-8l-.901-.434 1.925-4 .901.434-1.925 4zm-5.775 12l-.901-.434L343.339 28l1.172 2.434.901-.434-.963-2 .963-2zM350 52v-1h-4v1h4zm-8 0v-1h-4v1h4zm-8 0v-1h-4v1h4zm-8 0v-1h-4v1h4zm-8 0v-1h-4v1h4zm-8 0v-1h-4v1h4zm-8 0v-1h-4v1h4zm-8 0v-1h-4v1h4zm-8 0v-1h-4v1h4zm-8 0v-1h-4v1h4zm-8 0v-1h-4v1h4zm-8 0v-1h-4v1h4zm-8 0v-1h-4v1h4zm-8 0v-1h-4v1h4zm-8 0v-1h-4v1h4zm-8 0v-1h-4v1h4zm-8 0v-1h-4v1h4zm-8 0v-1h-4v1h4zm-8 0v-1h-4v1h4zm-8 0v-1h-4v1h4zm-8 0v-1h-4v1h4zm-8 0v-1h-4v1h4zm-8 0v-1h-4v1h4zm-8 0v-1h-4v1h4zm-8 0v-1h-4v1h4zm-8 0v-1h-4v1h4zm-8 0v-1h-4v1h4zm-8 0v-1h-4v1h4zm-8 0v-1h-4v1h4zm-8 0v-1h-4v1h4zm-8 0v-1h-4v1h4zm-8 0v-1h-4v1h4zm-8 0v-1h-4v1h4zm-8 0v-1h-4v1h4zm-8 0v-1h-4v1h4zm-8 0v-1h-.38l.236-.472-.893-.448L68 52h2zm8.588-21.12l.894.448 1.179-2.35-1.165-2.518-.908.42.963 2.08-.963 1.92zM74 4v1h4V4h-4zm8 0v1h4V4h-4zm8 0v1h4V4h-4zm8 0v1h4V4h-4zm8 0v1h4V4h-4zm8 0v1h4V4h-4zm8 0v1h4V4h-4zm8 0v1h4V4h-4zm8 0v1h4V4h-4zm8 0v1h4V4h-4zm8 0v1h4V4h-4zm8 0v1h4V4h-4zm8 0v1h4V4h-4zm8 0v1h4V4h-4zm8 0v1h4V4h-4zm8 0v1h4V4h-4zm8 0v1h4V4h-4zm8 0v1h4V4h-4zm8 0v1h4V4h-4zm8 0v1h4V4h-4zm8 0v1h4V4h-4zm8 0v1h4V4h-4zm8 0v1h4V4h-4zm8 0v1h4V4h-4zm8 0v1h4V4h-4zm8 0v1h4V4h-4zm8 0v1h4V4h-4zm8 0v1h4V4h-4zm8 0v1h4V4h-4zm8 0v1h4V4h-4zm8 0v1h4V4h-4zm8 0v1h4V4h-4zm8 0v1h4V4h-4zm8 0v1h4V4h-4zm8 0v1h4V4h-4z" fill="#D7D7D7"/></svg>