<svg width="300" height="55" viewBox="0 0 300 55" fill="none" xmlns="http://www.w3.org/2000/svg"><path fill-rule="evenodd" clip-rule="evenodd" d="M0 0h300l-12.032 27.5L300 55H0l12.032-26.4L0 0zm20 4v1h4V4h-4zm-8 1V4h4v1h-4zM8 4H6l.963 2.08.907-.42L7.565 5H8V4zm20 1V4h4v1h-4zm8-1v1h4V4h-4zm8 1V4h4v1h-4zm8-1v1h4V4h-4zm8 1V4h4v1h-4zm8-1v1h4V4h-4zm8 1V4h4v1h-4zm8-1v1h4V4h-4zm8 1V4h4v1h-4zm8-1v1h4V4h-4zm8 1V4h4v1h-4zm8-1v1h4V4h-4zm8 1V4h4v1h-4zm8-1v1h4V4h-4zm8 1V4h4v1h-4zm8-1v1h4V4h-4zm8 1V4h4v1h-4zm8-1v1h4V4h-4zm8 1V4h4v1h-4zm8-1v1h4V4h-4zm8 1V4h4v1h-4zm8-1v1h4V4h-4zm8 1V4h4v1h-4zm8-1v1h4V4h-4zm8 1V4h4v1h-4zm8-1v1h4V4h-4zm8 1V4h4v1h-4zm8-1v1h4V4h-4zm8 1V4h4v1h-4zm8-1v1h4V4h-4zm8 1V4h4v1h-4zm8-1v1h4V4h-4zm8 1V4h4v1h-4zm10-1h-2v1h.409l-.273.566.901.434.963-2zm-5.714 9.566l.901.434 1.925-4-.901-.434-1.925 4zM285.337 22l-.901-.434 1.925-4 .901.434-1.925 4zm-2.826 3.566l.901.434-.963 2 .963 2-.901.434L281.339 28l1.172-2.434zM287.262 38l-1.925-4-.901.434 1.925 4 .901-.434zm2.949 8.434l.901-.434-1.925-4-.901.434 1.925 4zM292 52v-1h.409l-.273-.566.901-.434.963 2h-2zm-4-1v1h-4v-1h4zm-8 1v-1h-4v1h4zm-8-1v1h-4v-1h4zm-8 1v-1h-4v1h4zm-8-1v1h-4v-1h4zm-8 1v-1h-4v1h4zm-8-1v1h-4v-1h4zm-8 1v-1h-4v1h4zm-8-1v1h-4v-1h4zm-8 1v-1h-4v1h4zm-8-1v1h-4v-1h4zm-8 1v-1h-4v1h4zm-8-1v1h-4v-1h4zm-8 1v-1h-4v1h4zm-8-1v1h-4v-1h4zm-8 1v-1h-4v1h4zm-8-1v1h-4v-1h4zm-8 1v-1h-4v1h4zm-8-1v1h-4v-1h4zm-8 1v-1h-4v1h4zm-8-1v1h-4v-1h4zm-8 1v-1h-4v1h4zm-8-1v1h-4v-1h4zm-8 1v-1h-4v1h4zm-8-1v1h-4v-1h4zm-8 1v-1h-4v1h4zm-8-1v1h-4v-1h4zm-8 1v-1h-4v1h4zm-8-1v1h-4v-1h4zm-8 1v-1h-4v1h4zm-8-1v1h-4v-1h4zm-8 1v-1h-4v1h4zm-8-1v1h-4v-1h4zm-8 1v-1h-4v1h4zm-8-1v1h-4v-1h4zm-8 1v-1h-.38l.237-.472-.894-.448L6 52h2zm3.707-9.152l-.894-.448-1.925 3.84.894.448 1.925-3.84zm2.956-8.128l.894.448-1.925 3.84-.894-.448 1.925-3.84zm2.82-3.392l-.895-.448.963-1.92-.963-2.08.908-.42 1.165 2.517-1.179 2.351zM12.737 18.56l.908-.42 1.925 4.16-.908.42-1.925-4.16zM9.795 9.82l-.907.42 1.925 4.16.907-.42-1.925-4.16z" fill="red"/></svg>