<svg width="278" height="66" viewBox="0 0 278 66" fill="none" xmlns="http://www.w3.org/2000/svg"><path fill-rule="evenodd" clip-rule="evenodd" d="M256.597 28.225L275.814 0 0 10.136l19.438 27.905L2.02 65.099l275.814-10.136-21.237-26.738zm19.224 25.811L255.357 28.27l18.517-27.198L1.868 11.068 20.64 38.019 3.898 64.029l271.923-9.993z" fill="#E4E4E4"/><path d="M.917 5.05h276l-20.24 27.5 20.24 27.5h-276l18.4-26.4-18.4-28.6z" fill="#fff"/><path fill-rule="evenodd" clip-rule="evenodd" d="M256.677 32.55l20.24-27.5h-276l18.4 28.6-18.4 26.4h276l-20.24-27.5zm18.262 26.5l-19.504-26.5 19.504-26.5H2.749L20.52 33.671 2.833 59.049h272.106z" fill="#BDBDBD"/></svg>