<svg width="56" height="56" viewBox="0 0 56 56" fill="none" xmlns="http://www.w3.org/2000/svg">
<g clip-path="url(#clip0_47_19)">
<path d="M3.63004 41.7879C6.06256 46.0873 9.58924 49.6667 13.8521 52.1627C18.115 54.6588 22.9624 55.9826 27.9023 55.9998C32.8421 56.0171 37.6986 54.7271 41.9788 52.2609C46.2591 49.7947 49.8106 46.24 52.2731 41.9577L37.7578 33.611C36.7679 35.3325 35.3401 36.7615 33.6195 37.7529C31.8988 38.7443 29.9465 39.2629 27.9607 39.2559C25.9749 39.249 24.0262 38.7168 22.3126 37.7134C20.5989 36.71 19.1811 35.2711 18.2033 33.5427L3.63004 41.7879Z" fill="#2257F7"/>
<path d="M28.2444 0.00106626C23.3047 -0.042044 18.4415 1.22245 14.1484 3.66622C9.85531 6.10999 6.28516 9.64603 3.8003 13.9154C1.31544 18.1849 0.00431785 23.0357 1.06435e-05 27.9756C-0.00429657 32.9155 1.29836 37.7686 3.77578 42.0423L18.2619 33.645C17.2659 31.927 16.7423 29.976 16.744 27.9902C16.7457 26.0044 17.2728 24.0543 18.2717 22.338C19.2706 20.6217 20.7058 19.2002 22.4317 18.2178C24.1575 17.2354 26.1125 16.7271 28.0982 16.7444L28.2444 0.00106626Z" fill="#D9D9D9"/>
<path d="M28.2444 0.00106626C33.1542 0.0439162 37.9665 1.37712 42.1984 3.86695C46.4304 6.35678 49.9332 9.91567 52.3555 14.1866C54.7778 18.4576 56.0344 23.2904 55.9993 28.2004C55.9641 33.1103 54.6385 37.9247 52.1553 42.1605L37.7104 33.6925C38.7087 31.9897 39.2416 30.0543 39.2557 28.0805C39.2698 26.1068 38.7647 24.164 37.7909 22.447C36.8172 20.7301 35.409 19.2994 33.7078 18.2985C32.0065 17.2976 30.072 16.7617 28.0982 16.7444L28.2444 0.00106626Z" fill="#2257F7"/>
</g>
<defs>
<clipPath id="clip0_47_19">
<rect width="56" height="56" fill="white"/>
</clipPath>
</defs>
</svg>
