<svg xmlns="http://www.w3.org/2000/svg" xmlns:xlink="http://www.w3.org/1999/xlink" width="96" height="60" fill="none"><style><![CDATA[.B{fill:#fff}.C{fill:#9ea9b2}.D{stroke-width:.5}.E{stroke:#9ea9b2}]]></style><rect x=".5" y=".5" width="95" height="59" rx="3.5" class="B"/><rect x=".5" y=".5" width="95" height="59" rx="3.5" stroke="#8796a1"/><rect x="14.25" y="11.25" width="19.5" height="25.5" rx="1.18" class="B D E"/><path d="M14 12.43A1.43 1.43 0 0 1 15.43 11H32.57A1.43 1.43 0 0 1 34 12.43v13.014H14V12.43z" class="C"/><use xlink:href="#B" class="B"/><g class="C"><rect x="16.848" y="28.333" width="14.304" height="2.146" rx="1.073"/><rect x="21.139" y="31.909" width="5.722" height="2.146" rx="1.073"/></g><rect x="38.25" y="11.25" width="19.5" height="25.5" rx="1.18" class="B D E"/><path d="M38 12.43A1.43 1.43 0 0 1 39.43 11H56.57A1.43 1.43 0 0 1 58 12.43v13.014H38V12.43z" class="C"/><use xlink:href="#B" x="24.001" class="B"/><g class="C"><rect x="40.848" y="28.333" width="14.304" height="2.146" rx="1.073"/><rect x="45.139" y="31.909" width="5.722" height="2.146" rx="1.073"/></g><rect x="62.25" y="11.25" width="19.5" height="25.5" rx="1.18" class="B D E"/><path d="M62 12.43A1.43 1.43 0 0 1 63.43 11H80.57A1.43 1.43 0 0 1 82 12.43v13.014H62V12.43z" class="C"/><use xlink:href="#B" x="48" class="B"/><g class="C"><rect x="64.848" y="28.333" width="14.304" height="2.146" rx="1.073"/><rect x="69.139" y="31.909" width="5.722" height="2.146" rx="1.073"/></g><rect x="59.25" y="40.25" width="9.5" height="9.5" rx=".75" fill="#546069" stroke="#546069" class="D"/><path d="M66 42.5L63.5 45l2.5 2.5-.5 1L62 45l3.5-3.5.5 1z" class="B"/><rect x="72.25" y="40.25" width="9.5" height="9.5" rx=".75" fill="#546069" stroke="#546069" class="D"/><path d="M75 47.5l2.5-2.5-2.5-2.5.5-1L79 45l-3.5 3.5-.5-1z" class="B"/><defs ><path id="B" d="M29.714 16.638l-2.738-2.513-1.369-.237c0 .783-.694 1.42-1.587 1.42s-1.587-.637-1.587-1.42l-1.369.237-2.778 2.44 1.885 1.73.913-.838v5.098h5.893v-5.007l.873.801 1.865-1.711z"/></defs></svg>