<?xml version="1.0" encoding="utf-8"?>
<!-- Generator: Adobe Illustrator 16.0.0, SVG Export Plug-In . SVG Version: 6.00 Build 0)  -->
<!DOCTYPE svg PUBLIC "-//W3C//DTD SVG 1.1//EN" "http://www.w3.org/Graphics/SVG/1.1/DTD/svg11.dtd">
<svg version="1.1" id="Layer_1" xmlns="http://www.w3.org/2000/svg" xmlns:xlink="http://www.w3.org/1999/xlink" x="0px" y="0px"
	 width="30px" height="30px" viewBox="0 0 30 30" enable-background="new 0 0 30 30" xml:space="preserve">
<g>
	<path fill="#4064AF" d="M12.523,15.708c-0.258-0.12-0.625-0.181-1.092-0.185H9.083v2.91h2.311c0.474,0,0.843-0.062,1.107-0.192
		c0.478-0.238,0.717-0.69,0.717-1.363C13.217,16.311,12.986,15.919,12.523,15.708z"/>
	<path fill="#4064AF" d="M12.552,13.445c0.295-0.181,0.442-0.5,0.442-0.961c0-0.508-0.195-0.845-0.586-1.007
		c-0.335-0.112-0.766-0.171-1.29-0.171H9.083v2.409h2.315C11.872,13.715,12.256,13.624,12.552,13.445z"/>
	<path fill="#4064AF" d="M20.242,13.645c-0.526,0-0.935,0.151-1.221,0.447c-0.29,0.298-0.473,0.701-0.546,1.212H22
		c-0.035-0.543-0.217-0.955-0.546-1.236C21.131,13.786,20.725,13.645,20.242,13.645z"/>
	<path fill="#4064AF" d="M15.016,0.001c-8.282,0-15,6.713-15,14.999c0,8.282,6.717,14.999,15,14.999c8.284,0,15-6.717,15-14.999
		C30.016,6.715,23.301,0.001,15.016,0.001z M18.022,9.863h4.403v1.092h-4.403V9.863z M15.035,18.775
		c-0.207,0.34-0.463,0.627-0.772,0.857c-0.348,0.268-0.76,0.452-1.233,0.548c-0.475,0.1-0.989,0.147-1.543,0.147H6.564V9.409h5.279
		c1.33,0.022,2.274,0.407,2.829,1.163c0.333,0.465,0.5,1.021,0.5,1.668c0,0.667-0.168,1.201-0.505,1.606
		c-0.187,0.229-0.462,0.436-0.834,0.622c0.559,0.204,0.982,0.523,1.262,0.965c0.284,0.44,0.426,0.972,0.426,1.598
		C15.521,17.682,15.36,18.262,15.035,18.775z M24.127,16.654h-5.702c0.032,0.786,0.303,1.335,0.819,1.65
		c0.31,0.197,0.686,0.293,1.127,0.293c0.467,0,0.846-0.117,1.137-0.358c0.159-0.129,0.299-0.309,0.42-0.536h2.09
		c-0.057,0.464-0.308,0.935-0.76,1.413c-0.7,0.76-1.683,1.143-2.944,1.143c-1.042,0-1.96-0.322-2.758-0.963
		c-0.795-0.644-1.194-1.688-1.194-3.135c0-1.355,0.358-2.394,1.078-3.117c0.721-0.724,1.65-1.084,2.8-1.084
		c0.681,0,1.293,0.121,1.84,0.366c0.547,0.244,0.998,0.629,1.353,1.158c0.321,0.466,0.528,1.005,0.622,1.619
		C24.109,15.458,24.134,15.978,24.127,16.654z"/>
</g>
</svg>
