<?xml version="1.0" encoding="utf-8"?>
<!-- Generator: Adobe Illustrator 16.0.0, SVG Export Plug-In . SVG Version: 6.00 Build 0)  -->
<!DOCTYPE svg PUBLIC "-//W3C//DTD SVG 1.1//EN" "http://www.w3.org/Graphics/SVG/1.1/DTD/svg11.dtd">
<svg version="1.1" id="Layer_1" xmlns="http://www.w3.org/2000/svg" xmlns:xlink="http://www.w3.org/1999/xlink" x="0px" y="0px"
	 width="30px" height="30px" viewBox="0 0 30 30" enable-background="new 0 0 30 30" xml:space="preserve">
<path fill="#3866B0" d="M15.001,0C6.716,0,0,6.716,0,15.001C0,23.283,6.715,30,15.001,30C23.284,30,30,23.283,30,15.001
	C30,6.717,23.284,0,15.001,0 M9.525,19.445c-2.456,0-4.445-1.99-4.445-4.444c0-2.456,1.99-4.447,4.445-4.447
	s4.449,1.991,4.449,4.447C13.973,17.455,11.981,19.445,9.525,19.445 M20.476,19.445c-2.456,0-4.448-1.99-4.448-4.444
	c0-2.456,1.992-4.447,4.448-4.447c2.454,0,4.445,1.991,4.445,4.447C24.92,17.455,22.93,19.445,20.476,19.445"/>
</svg>
