<?xml version="1.0" encoding="utf-8"?>
<!-- Generator: Adobe Illustrator 16.0.0, SVG Export Plug-In . SVG Version: 6.00 Build 0)  -->
<!DOCTYPE svg PUBLIC "-//W3C//DTD SVG 1.1//EN" "http://www.w3.org/Graphics/SVG/1.1/DTD/svg11.dtd">
<svg version="1.1" id="Layer_1" xmlns="http://www.w3.org/2000/svg" xmlns:xlink="http://www.w3.org/1999/xlink" x="0px" y="0px"
	 width="30px" height="30px" viewBox="0 0 30 30" enable-background="new 0 0 30 30" xml:space="preserve">
<g>
	
		<ellipse transform="matrix(-0.965 0.2623 -0.2623 -0.965 26.1651 19.2541)" fill="#CB2026" cx="11.797" cy="11.374" rx="1.964" ry="2.748"/>
	<path fill="#CB2026" d="M15,0C6.715,0,0,6.716,0,15c0,8.285,6.715,15,15,15c8.284,0,15-6.715,15-15C30,6.716,23.283,0,15,0z
		 M15.765,11.438c0,2.33-2.18,2.618-2.18,3.608s2.893,1.784,2.893,4.242c0,4.104-5.076,3.871-5.076,3.871s-4.386,0.159-4.386-3.144
		c0-3.306,4.978-3.173,5.233-3.173c-0.063-0.756-0.569-0.631-0.569-1.004v-0.926c0,0-3.767,0.423-3.767-3.224
		c0-3.649,4.311-3.754,4.311-3.754h4.254c0,0.649-1.943,0.419-1.943,0.767C15.636,9.198,15.765,10.041,15.765,11.438z
		 M24.462,11.768h-2.964v2.96h-0.87v-2.96h-2.961v-0.871h2.961V7.934h0.87v2.963h2.964V11.768z"/>
	
		<ellipse transform="matrix(0.0675 0.9977 -0.9977 0.0675 30.8649 6.5681)" fill="#CB2026" cx="11.919" cy="19.796" rx="2.326" ry="3.187"/>
</g>
</svg>
