<?xml version="1.0" encoding="utf-8"?>
<!-- Generator: Adobe Illustrator 16.0.0, SVG Export Plug-In . SVG Version: 6.00 Build 0)  -->
<!DOCTYPE svg PUBLIC "-//W3C//DTD SVG 1.1//EN" "http://www.w3.org/Graphics/SVG/1.1/DTD/svg11.dtd">
<svg version="1.1" id="Layer_1" xmlns="http://www.w3.org/2000/svg" xmlns:xlink="http://www.w3.org/1999/xlink" x="0px" y="0px"
	 width="30px" height="30px" viewBox="0 0 30 30" enable-background="new 0 0 30 30" xml:space="preserve">
<g>
	<path fill="none" d="M0.016,14.333C0.006,14.555,0,14.775,0,15.002c0,0.225,0.006,0.447,0.016,0.668V14.333z"/>
	<path fill="#CD2037" d="M5.024,26.201v-22.4C2.096,6.41,0.199,10.146,0.016,14.332v1.336C0.197,19.853,2.095,23.592,5.024,26.201z"
		/>
	<path fill="#F2683A" d="M10.031,29.157V0.843c-1.865,0.655-3.564,1.67-5.007,2.959v22.4C6.467,27.488,8.166,28.503,10.031,29.157z"
		/>
	<path fill="#CDCC65" d="M15,30c0.014,0,0.025-0.001,0.037-0.001V0.002c-0.012,0-0.023,0-0.037,0c-1.742,0-3.414,0.298-4.969,0.842
		v28.313C11.586,29.704,13.258,30,15,30z"/>
	<path fill="#99CC68" d="M20.046,29.129V0.872c-1.564-0.561-3.252-0.867-5.009-0.871v29.997
		C16.795,29.995,18.482,29.689,20.046,29.129z"/>
	<path fill="#3CC0C4" d="M25.055,26.133V3.868c-1.443-1.302-3.14-2.331-5.008-2.997v28.257
		C21.912,28.463,23.61,27.437,25.055,26.133z"/>
	<path fill="#373B95" d="M30,15.001c0-4.415-1.91-8.387-4.947-11.134v22.265C28.091,23.388,30,19.419,30,15.001z"/>
</g>
</svg>
