<?xml version="1.0" encoding="utf-8"?>
<!-- Generator: Adobe Illustrator 16.0.0, SVG Export Plug-In . SVG Version: 6.00 Build 0)  -->
<!DOCTYPE svg PUBLIC "-//W3C//DTD SVG 1.1//EN" "http://www.w3.org/Graphics/SVG/1.1/DTD/svg11.dtd">
<svg version="1.1" id="Layer_1" xmlns="http://www.w3.org/2000/svg" xmlns:xlink="http://www.w3.org/1999/xlink" x="0px" y="0px"
	 width="30px" height="30px" viewBox="0 0 30 30" enable-background="new 0 0 30 30" xml:space="preserve">
<path fill="#D43738" d="M15,0c-8.283,0-15,6.716-15,15c0,6.143,3.694,11.418,8.979,13.74c-0.042-1.047-0.008-2.306,0.26-3.445
	c0.289-1.217,1.931-8.173,1.931-8.173s-0.481-0.958-0.481-2.374c0-2.224,1.29-3.883,2.895-3.883c1.364,0,2.021,1.024,2.021,2.252
	c0,1.373-0.874,3.422-1.324,5.323c-0.375,1.591,0.799,2.889,2.369,2.889c2.842,0,4.756-3.65,4.756-7.976
	c0-3.288-2.214-5.748-6.24-5.748c-4.552,0-7.386,3.394-7.386,7.183c0,1.308,0.387,2.23,0.99,2.943
	c0.277,0.329,0.315,0.461,0.216,0.838c-0.073,0.274-0.237,0.939-0.307,1.202c-0.098,0.381-0.408,0.517-0.75,0.377
	c-2.095-0.855-3.071-3.152-3.071-5.733c0-4.261,3.592-9.371,10.719-9.371c5.727,0,9.495,4.146,9.495,8.593
	c0,5.883-3.271,10.281-8.094,10.281c-1.619,0-3.14-0.877-3.663-1.87c0,0-0.873,3.455-1.056,4.124
	c-0.317,1.156-0.939,2.312-1.509,3.214C12.098,29.784,13.526,30,15.002,30C23.285,30,30,23.284,30,15C30,6.715,23.283,0,15,0"/>
</svg>
