<?xml version="1.0" encoding="utf-8"?>
<!-- Generator: Adobe Illustrator 16.0.0, SVG Export Plug-In . SVG Version: 6.00 Build 0)  -->
<!DOCTYPE svg PUBLIC "-//W3C//DTD SVG 1.1//EN" "http://www.w3.org/Graphics/SVG/1.1/DTD/svg11.dtd">
<svg version="1.1" id="Layer_1" xmlns="http://www.w3.org/2000/svg" xmlns:xlink="http://www.w3.org/1999/xlink" x="0px" y="0px"
	 width="30px" height="30px" viewBox="0 0 30 30" enable-background="new 0 0 30 30" xml:space="preserve">
<path fill="#0B7AAF" d="M15.001,0.001C6.717,0.001,0,6.717,0,15.001c0,8.282,6.717,14.998,15.001,14.998
	C23.283,29.999,30,23.283,30,15.001C29.999,6.717,23.283,0.001,15.001,0.001 M23.469,13.873c0.057,0.395,0.087,0.8,0.087,1.211
	c0,4.835-4.084,8.752-9.124,8.752c-5.039,0-9.124-3.917-9.124-8.752c0-4.834,4.085-8.752,9.124-8.752
	c0.989,0,1.939,0.154,2.831,0.429l0.002,5.291c0,0-2.72-1.486-5.15,0.257c-2.432,1.745-1.973,3.575-1.973,3.575
	s0.113,2.889,3.545,2.889c3.835,0,4.923-3.489,4.923-3.489V7.303c0.737,0.366,1.426,0.822,2.087,1.338
	c1.631,1.005,3.325,1.659,5.262,1.609c0,0,0.372-0.079,0.372,0.657c0,0.401-0.141,0.86-0.543,1.289
	C25.786,12.195,25.024,13.334,23.469,13.873"/>
</svg>
