<?xml version="1.0" encoding="utf-8"?>
<!-- Generator: Adobe Illustrator 16.0.0, SVG Export Plug-In . SVG Version: 6.00 Build 0)  -->
<!DOCTYPE svg PUBLIC "-//W3C//DTD SVG 1.1//EN" "http://www.w3.org/Graphics/SVG/1.1/DTD/svg11.dtd">
<svg version="1.1" id="Layer_1" xmlns="http://www.w3.org/2000/svg" xmlns:xlink="http://www.w3.org/1999/xlink" x="0px" y="0px"
	 width="30px" height="30px" viewBox="0 0 30 30" enable-background="new 0 0 30 30" xml:space="preserve">
<path fill="#67B7E6" d="M15,0C6.718,0,0,6.717,0,15s6.717,15,15,15s15-6.717,15-15S23.283,0,15,0 M23.141,11.591
	c-0.08,1.679-1.251,3.976-3.522,6.89c-2.348,3.047-4.339,4.569-5.962,4.569c-1.004,0-1.857-0.932-2.552-2.787
	c-0.465-1.704-0.932-3.406-1.394-5.112c-0.517-1.855-1.072-2.783-1.668-2.783c-0.124,0-0.579,0.268-1.354,0.812l-0.812-1.044
	c0.852-0.75,1.69-1.499,2.519-2.246c1.134-0.98,1.984-1.498,2.552-1.547c1.341-0.129,2.166,0.787,2.479,2.748
	c0.333,2.116,0.564,3.432,0.694,3.947c0.389,1.756,0.813,2.635,1.28,2.635c0.361,0,0.901-0.568,1.626-1.704
	c0.72-1.137,1.108-2.001,1.159-2.594c0.104-0.982-0.284-1.473-1.159-1.473c-0.414,0-0.841,0.093-1.278,0.273
	c0.849-2.762,2.475-4.103,4.875-4.026C22.405,8.197,23.245,9.345,23.141,11.591"/>
</svg>
