<?xml version="1.0" encoding="UTF-8"?>
<svg width="79px" height="58px" viewBox="0 0 79 58" version="1.1" xmlns="http://www.w3.org/2000/svg" xmlns:xlink="http://www.w3.org/1999/xlink">
    <title>Group</title>
    <defs>
        <circle id="path-1" cx="14.5" cy="14.5" r="14.5"></circle>
        <filter x="-69.0%" y="-65.5%" width="237.9%" height="237.9%" filterUnits="objectBoundingBox" id="filter-2">
            <feMorphology radius="2" operator="dilate" in="SourceAlpha" result="shadowSpreadOuter1"></feMorphology>
            <feOffset dx="0" dy="1" in="shadowSpreadOuter1" result="shadowOffsetOuter1"></feOffset>
            <feGaussianBlur stdDeviation="4.5" in="shadowOffsetOuter1" result="shadowBlurOuter1"></feGaussianBlur>
            <feColorMatrix values="0 0 0 0 0.255612183   0 0 0 0 0.589203949   0 0 0 0 0.879698822  0 0 0 0.160565997 0" type="matrix" in="shadowBlurOuter1"></feColorMatrix>
        </filter>
    </defs>
    <g id="Page-1" stroke="none" stroke-width="1" fill="none" fill-rule="evenodd">
        <g id="Carriers---Enter-your-license" transform="translate(-639.000000, -383.000000)">
            <g id="Group" transform="translate(652.000000, 395.000000)">
                <g id="carrier" transform="translate(15.000000, 13.000000)" stroke="#333333" stroke-width="1.44">
                    <line x1="32" y1="25.5" x2="17" y2="25.5" id="Path"></line>
                    <polyline id="Path" points="0 25 0 0 35.7572718 0 35.7572718 8.05335968 35.7572718 8.34980237 41.1735206 8.34980237 50 17.0454545 50 25 47.893681 25"></polyline>
                    <path d="M13,27 C13,29.7614237 10.7614237,32 8,32 C5.23857625,32 3,29.7614237 3,27 C3,24.2385763 5.23857625,22 8,22 C9.32608245,22 10.597852,22.5267842 11.5355339,23.4644661 C12.4732158,24.402148 13,25.6739176 13,27 Z" id="Path"></path>
                    <path d="M46,27 C46,29.7614237 43.7614237,32 41,32 C38.2385763,32 36,29.7614237 36,27 C36,24.2385763 38.2385763,22 41,22 C43.7614237,22 46,24.2385763 46,27 Z" id="Path"></path>
                    <path d="M43.0491937,26.5499967 C43.0217925,27.3989886 42.3161731,28.0677657 41.4669325,28.0496437 C40.6176919,28.0315218 39.9412439,27.3332529 39.9500843,26.483865 C39.9589248,25.634477 40.6497599,24.9504388 41.4991937,24.9499967 C41.9190908,24.9497782 42.3211103,25.1199269 42.6132727,25.4215139 C42.9054351,25.723101 43.0627388,26.1303181 43.0491937,26.5499967 Z" id="Path"></path>
                    <path d="M9.0491937,26.5499967 C9.02179249,27.3989886 8.3161731,28.0677657 7.46693251,28.0496437 C6.61769192,28.0315218 5.94124386,27.3332529 5.95008431,26.483865 C5.95892476,25.634477 6.64975989,24.9504388 7.4991937,24.9499967 C7.91909079,24.9497782 8.32111029,25.1199269 8.61327271,25.4215139 C8.90543514,25.723101 9.06273882,26.1303181 9.0491937,26.5499967 L9.0491937,26.5499967 Z" id="Path"></path>
                    <polyline id="Path" points="36 8 36 15 43 15"></polyline>
                    <line x1="6" y1="5.5" x2="27" y2="5.5" id="Path"></line>
                    <line x1="6" y1="10.5" x2="27" y2="10.5" id="Path"></line>
                    <line x1="6" y1="16.5" x2="27" y2="16.5" id="Path"></line>
                </g>
                <g id="Oval">
                    <use fill="black" fill-opacity="1" filter="url(#filter-2)" xlink:href="#path-1"></use>
                    <use fill="#FFFFFF" fill-rule="evenodd" xlink:href="#path-1"></use>
                </g>
                <g id="locked" transform="translate(8.000000, 6.000000)" fill="#00779B" fill-rule="nonzero">
                    <path d="M7.53082483,10.9561476 C7.53082483,11.320728 7.32355442,11.6254904 7.02992134,11.7984125 L7.02992134,13.9442973 L6.02915072,13.9442973 L6.02915072,11.7997877 C5.73551764,11.6265217 5.52824724,11.3217594 5.52824724,10.9561476 C5.53544154,10.411163 5.98142644,9.97312533 6.52910422,9.97312533 C7.076782,9.97312533 7.5227669,10.411163 7.5299612,10.9561476 L7.53082483,10.9561476 Z M13,8.45410516 L13,15.5059252 C12.9992383,16.3306987 12.3276218,16.9991471 11.4988441,17 L1.50132866,17 C0.672483491,16.9992419 0.000761806701,16.3307657 0,15.5059252 L0,8.45410516 C0.00085700673,7.62933178 0.672550852,6.9609602 1.50132866,6.96020222 L1.52533748,6.96020222 L1.52533748,4.98002022 C1.52533748,2.23458038 3.77024872,0 6.52901786,0 C9.28778699,0 11.5337346,2.23458038 11.5337346,4.98002022 L11.5337346,6.96415571 C12.3479552,6.982172 12.998888,7.64361905 13,8.45410516 Z M2.5261081,6.96020222 L10.532964,6.96020222 L10.532964,4.98002022 C10.532964,2.78291203 8.73748406,0.995935288 6.52901786,0.995935288 C4.32055166,0.995935288 2.52558992,2.7835996 2.52558992,4.98002022 L2.5261081,6.96020222 Z M11.9992294,8.45410516 C11.9975615,8.19393155 11.7938022,7.97944092 11.532871,7.96318504 L11.532871,7.96713852 L1.52533748,7.96713852 L1.52533748,7.95613751 L1.50132866,7.95613751 C1.2246873,7.95613751 1.00042517,8.1793161 1.00042517,8.45462083 L1.00042517,15.5059252 C1.00042517,15.7812299 1.2246873,16.0044085 1.50132866,16.0044085 L11.4988441,16.0044085 C11.7754854,16.0044085 11.9997476,15.7812299 11.9997476,15.5059252 L11.9992294,8.45410516 Z" id="Shape"></path>
                </g>
            </g>
        </g>
    </g>
</svg>