<?xml version="1.0" encoding="UTF-8"?><svg id="a" xmlns="http://www.w3.org/2000/svg" viewBox="0 0 1108.7 205.8"><defs><style>.b{fill:#e64545;}.c{fill:#3a3b44;}</style></defs><g><path class="c" d="M880.63,110.02c-2.19-4.26-5.24-7.79-9.13-10.47-4.02-2.8-8.77-5.11-14.37-7.06-5.6-1.95-11.81-3.77-18.75-5.36-5.48-1.46-9.37-2.44-11.81-3.17-2.43-.73-4.75-1.83-7.06-3.04-2.44-1.22-4.26-2.8-5.6-4.63-1.34-1.7-1.95-3.9-1.95-6.33,0-3.9,1.95-7.31,5.84-10.11,3.9-2.8,9.13-4.26,15.46-4.26,6.94,0,11.93,1.34,15.1,3.9,3.17,2.56,5.72,6.21,8.04,10.84,1.7,3.29,3.29,5.6,4.75,6.94,1.46,1.46,3.65,2.19,6.45,2.19,3.17,0,5.84-1.22,7.91-3.65,2.07-2.31,3.04-4.99,3.04-7.91,0-3.29-.85-6.57-2.44-9.98-1.7-3.29-4.38-6.57-8.04-9.62-3.53-3.17-8.16-5.6-13.64-7.55-5.48-1.83-11.93-2.8-19.48-2.8-9.37,0-17.53,1.46-24.59,4.26-6.94,2.8-12.3,6.82-15.95,12.05s-5.48,11.2-5.48,18.02,1.7,12.91,5.24,17.65c3.41,4.87,8.16,8.52,14.12,11.32,5.97,2.68,13.27,5.11,22.04,7.06,6.57,1.58,11.93,3.04,15.83,4.38,3.9,1.22,7.06,3.17,9.62,5.72,2.44,2.56,3.65,5.84,3.65,9.86,0,5.24-2.31,9.5-6.82,12.91-4.63,3.41-10.59,5.11-18.02,5.11-5.36,0-9.62-.85-12.91-2.56s-5.84-3.9-7.67-6.45c-1.83-2.68-3.41-5.84-4.99-9.74-1.34-3.29-2.92-5.84-4.63-7.55-1.83-1.58-4.02-2.44-6.7-2.44-3.29,0-5.84,1.1-7.91,3.17-2.19,2.19-3.17,4.75-3.17,7.79,0,5.11,1.7,10.47,5.24,15.95,3.41,5.48,7.91,9.86,13.51,13.15,7.91,4.63,17.9,6.94,29.95,6.94,10.11,0,18.75-1.7,26.18-5.11,7.31-3.29,12.91-7.91,16.68-13.76,3.77-5.97,5.72-12.66,5.72-20.09,0-6.09-1.1-11.32-3.29-15.58Z"/><path class="b" d="M22.16,142.53c.61,2.44,1.34,5.11,2.07,8.04,.85,2.8,1.83,5.36,3.04,7.43,1.22,2.07,2.8,3.65,4.75,4.87,2.07,1.1,4.5,1.7,7.67,1.7,3.65,0,6.82-.97,9.01-2.92,2.31-1.95,3.9-4.14,4.87-6.57,.85-2.44,2.07-6.33,3.65-11.93l20.09-73.29,19.72,73.29c1.7,5.72,2.92,9.74,3.77,12.18,.97,2.31,2.56,4.5,4.87,6.33,2.19,1.95,5.24,2.92,9.01,2.92,4.02,0,7.18-.97,9.37-3.04,2.19-1.83,3.77-4.14,4.63-6.7,.97-2.68,2.07-6.7,3.53-12.3l20.33-82.3c1.22-4.99,1.83-8.64,1.83-10.96,0-3.29-1.1-5.97-3.41-8.04-2.19-2.19-4.99-3.29-8.16-3.29s-5.72,.85-7.43,2.56c-1.7,1.7-2.92,3.53-3.53,5.72-.73,2.07-1.46,4.99-2.31,8.77l-15.95,71.35-18.14-66.72c-1.58-5.6-2.68-9.5-3.65-11.93-.85-2.44-2.43-4.63-4.75-6.7-2.31-1.95-5.6-3.04-9.74-3.04s-7.43,.97-9.74,3.04c-2.44,1.83-4.14,4.14-5.24,6.82-1.1,2.68-2.31,6.57-3.53,11.81l-18.02,66.72L24.72,54.99c-1.1-5.6-2.56-9.74-4.02-12.66-1.58-2.92-4.63-4.38-9.13-4.38-3.29,0-6.09,1.1-8.28,3.29s-3.29,4.87-3.29,8.04c0,2.56,.49,6.21,1.7,10.96l20.45,82.3Z"/><path class="b" d="M252.76,37.94c-3.65,0-6.57,1.34-8.89,3.77-2.19,2.56-3.41,6.33-3.41,11.32v35.06h-53.45V53.04c0-5.11-1.22-8.89-3.53-11.32-2.31-2.43-5.36-3.77-9.01-3.77s-6.82,1.34-9.01,3.77c-2.19,2.56-3.29,6.33-3.29,11.32v96.31c0,5.11,1.1,8.89,3.29,11.32,2.19,2.56,5.24,3.9,9.01,3.9s6.7-1.34,9.01-3.77c2.31-2.56,3.53-6.33,3.53-11.44v-41.15h53.45v41.15c0,5.11,1.22,8.89,3.41,11.32,2.19,2.56,5.24,3.9,8.89,3.9s6.7-1.34,9.01-3.77c2.44-2.56,3.53-6.33,3.53-11.44V53.04c0-5.11-1.1-8.89-3.41-11.32-2.31-2.43-5.36-3.77-9.13-3.77Z"/><path class="c" d="M754.13,97.72c12.3-5.72,18.38-14.61,18.38-26.91,0-3.53-.61-6.94-1.7-10.11-1.22-3.29-2.92-6.21-5.11-8.77-2.31-2.68-4.75-4.87-7.67-6.57-3.41-2.07-7.31-3.53-11.57-4.26-4.26-.61-9.37-.97-15.22-.97h-39.69c-5.24,0-9.13,1.1-11.44,3.53-2.44,2.31-3.53,6.21-3.53,11.57v92.04c0,5.24,1.1,9.13,3.41,11.57s6.21,3.53,11.57,3.53h37.5c6.45,0,12.05-.24,16.92-.85,4.87-.73,9.13-1.83,12.91-3.29,5.84-2.68,10.59-6.7,14.12-12.18,3.53-5.48,5.36-11.69,5.36-18.51,0-14.85-8.16-24.84-24.23-29.83Zm-52.72-39.08h20.09c9.01,0,15.71,1.1,20.09,3.17,4.38,1.95,6.57,6.09,6.57,12.3,0,2.92-.61,5.48-2.07,7.79-1.7,3.29-4.38,5.6-7.67,6.7-3.41,1.22-8.16,1.83-14.37,1.83h-22.65v-31.78Zm26.54,85.23h-26.54v-35.8h25.81c8.64,0,15.1,1.34,19.48,4.14,4.26,2.8,6.45,7.31,6.45,13.51,0,12.05-8.4,18.14-25.2,18.14Z"/><path class="c" d="M636.76,45.73c-9.13-5.11-20.09-7.79-32.75-7.79-9.37,0-17.78,1.46-25.08,4.5-7.43,2.8-13.64,7.06-18.75,12.54-5.11,5.6-9.01,12.18-11.69,20.09-2.8,7.91-4.14,16.56-4.14,25.93s1.34,17.53,3.9,25.45c2.68,7.91,6.45,14.73,11.57,20.33,4.99,5.6,11.32,9.98,18.87,13.03,7.67,3.17,16.19,4.75,25.81,4.75s18.14-1.58,25.69-4.5c7.43-3.04,13.76-7.43,18.87-13.03,5.11-5.72,8.89-12.42,11.44-20.21,2.56-7.79,3.9-16.31,3.9-25.69,0-12.78-2.31-23.99-7.06-33.48-4.63-9.5-11.57-16.8-20.58-21.92Zm-2.31,79.63c-3.04,6.57-7.31,11.57-12.66,14.73-5.36,3.17-11.08,4.75-17.53,4.75-4.87,0-9.5-.97-13.64-2.8-4.14-1.83-7.79-4.63-10.96-8.28-3.29-3.77-5.72-8.4-7.55-14-1.7-5.6-2.56-11.93-2.56-18.75s.85-13.15,2.56-18.75c1.83-5.48,4.26-10.11,7.31-13.64,3.04-3.53,6.57-6.21,10.84-8.16,4.14-1.83,8.77-2.8,13.76-2.8,6.94,0,13.15,1.7,18.51,5.11,5.36,3.29,9.5,8.28,12.42,14.85,2.8,6.57,4.26,14.37,4.26,23.38,0,9.5-1.58,17.65-4.75,24.35Z"/><path class="b" d="M471.3,57.79c2.07-1.95,3.17-4.38,3.17-7.43s-1.1-5.6-3.17-7.43c-2.07-1.95-5.24-2.8-9.5-2.8h-78.9c-4.02,0-7.18,.85-9.25,2.68-2.19,1.83-3.29,4.38-3.29,7.55s.97,5.48,3.17,7.43c1.95,1.83,5.11,2.8,9.37,2.8h27.03v88.76c0,5.11,1.22,8.89,3.53,11.44,2.31,2.44,5.36,3.77,8.89,3.77s6.7-1.22,8.89-3.77c2.31-2.44,3.41-6.33,3.41-11.44V60.59h27.15c4.26,0,7.43-.97,9.5-2.8Z"/><path class="c" d="M519.64,37.94c-3.9,0-6.82,1.34-9.01,3.77-2.19,2.56-3.29,6.33-3.29,11.32V120.61c0,16.19-5.48,24.23-16.56,24.23-4.02,0-7.18-.97-9.37-2.8-2.19-1.83-3.77-4.02-4.75-6.57-.97-2.56-1.95-5.97-2.8-10.35-.97-3.9-2.19-6.94-3.9-8.77-1.7-1.95-4.14-2.92-7.43-2.92s-6.21,1.1-8.28,3.17c-2.19,2.07-3.29,4.99-3.29,8.89,0,3.65,.49,7.55,1.58,11.69,1.22,4.02,2.56,7.67,4.38,10.71,3.41,5.84,7.91,10.11,13.39,12.66,5.6,2.68,12.54,4.02,20.7,4.02,9.13,0,16.92-1.95,23.38-5.72,6.45-3.77,10.96-9.01,13.76-15.71,1.7-4.02,2.8-7.91,3.17-11.93,.49-3.9,.73-8.52,.73-14.12V53.04c0-4.99-1.1-8.77-3.41-11.32-2.19-2.43-5.24-3.77-9.01-3.77Z"/><path class="b" d="M352.23,61.07c-1.58-3.9-2.8-7.06-3.77-9.37-.97-2.44-2.19-4.63-3.53-6.7-1.46-2.07-3.29-3.77-5.6-4.99-2.31-1.34-5.24-2.07-8.64-2.07s-6.33,.73-8.64,2.07c-2.31,1.22-4.14,2.92-5.6,5.11-1.34,2.07-2.68,4.75-4.02,7.91-1.22,3.29-2.31,5.97-3.17,8.28l-31.29,79.38c-1.34,3.17-2.19,5.6-2.8,7.43s-.85,3.53-.85,5.24c0,2.8,1.22,5.48,3.65,7.67,2.31,2.31,5.11,3.53,8.28,3.53,3.65,0,6.33-1.1,7.91-3.29,1.58-2.07,3.53-6.21,5.84-12.42l5.84-15.71h49.8l5.84,15.34c.73,1.95,1.7,4.14,2.8,6.57,1.1,2.56,2.07,4.38,3.04,5.6s2.07,2.07,3.53,2.8c1.34,.73,3.04,1.1,4.99,1.1,3.29,0,6.21-1.22,8.52-3.65,2.44-2.31,3.53-4.87,3.53-7.79,0-2.68-1.22-7.06-3.65-13.03l-32.02-79.02Zm-39.93,53.45l18.14-50.41,18.51,50.41h-36.65Z"/></g><path class="c" d="M1096.25,0h-124.35c-6.92-.09-12.6,6.42-12.69,14.55l-.38,2.24-29.25,172.82-.17,.99-.11,.64c.08,8.13,5.76,14.65,12.69,14.57h124.06s0,0,0,0c6.94,.1,12.64-6.42,12.73-14.57l29.9-176.7c-.1-8.03-5.65-14.46-12.45-14.54Zm-104.07,154.12c-.55,3.9-2.21,7.06-5.07,9.25-2.74,2.19-5.82,3.29-9.11,3.29s-6.18-1.1-8.43-3.29c-2.25-2.19-3.04-5.24-2.48-9.25,.49-3.53,2.12-6.45,4.88-8.77,2.78-2.44,5.99-3.65,9.52-3.65s6.28,1.22,8.38,3.65c1.99,2.31,2.8,5.24,2.3,8.77Zm41.7-80.49c-.66,4.75-2.22,8.89-4.66,12.42-2.46,3.65-5.2,6.7-8.11,9.25-3.05,2.68-8.4,6.94-16.07,13.03-2.19,1.7-3.97,3.17-5.26,4.51-1.28,1.34-2.31,2.56-3.05,3.53-.64,1.1-1.28,2.19-1.8,3.29-.4,1.1-1.16,3.04-2.14,5.72-1.79,5.85-5.59,8.65-11.19,8.65-2.8,0-5.12-.85-6.91-2.8-1.69-1.83-2.28-4.63-1.75-8.4,.65-4.63,1.96-8.77,3.9-12.18,1.94-3.41,4.31-6.45,6.97-8.89,2.79-2.56,6.39-5.6,11.04-9.25,3.96-3.04,6.86-5.48,8.66-7.06,1.8-1.58,3.38-3.29,4.75-5.24,1.37-1.95,2.28-4.14,2.59-6.33,.63-4.51-.55-8.28-3.41-11.33-2.86-3.04-6.9-4.63-12.14-4.63-6.21,0-10.94,1.58-14.29,4.63-3.24,3.17-6.31,7.67-9.23,13.76-2.82,6.21-6.79,9.38-12.03,9.38-3.17,0-5.69-1.1-7.46-3.29-1.89-2.19-2.64-4.63-2.28-7.18,.73-5.24,3.19-10.59,7.36-16.07,4.16-5.36,9.78-9.86,16.75-13.52,7.07-3.53,14.88-5.36,23.64-5.36,8.04,0,14.88,1.58,20.68,4.51,5.78,3.04,9.97,7.06,12.67,12.18,2.69,5.11,3.62,10.72,2.78,16.68Z"/><path class="b" d="M1060.39,16.79h-121.22c-5.82-.08-10.58,5.39-10.66,12.22l-25.02,147.83-.09,.54c.07,6.83,4.84,12.3,10.66,12.23h120.97s0,0,0,0c5.83,.08,10.61-5.39,10.69-12.23l25.11-148.38c-.08-6.75-4.74-12.15-10.46-12.21Zm-68.21,137.33c-.55,3.9-2.21,7.06-5.07,9.25-2.74,2.19-5.82,3.29-9.11,3.29s-6.18-1.1-8.43-3.29c-2.25-2.19-3.04-5.24-2.48-9.25,.49-3.53,2.12-6.45,4.88-8.77,2.78-2.44,5.99-3.65,9.52-3.65s6.28,1.22,8.38,3.65c1.99,2.31,2.8,5.24,2.3,8.77Zm41.7-80.49c-.66,4.75-2.22,8.89-4.66,12.42-2.46,3.65-5.2,6.7-8.11,9.25-3.05,2.68-8.4,6.94-16.07,13.03-2.19,1.7-3.97,3.17-5.26,4.51-1.28,1.34-2.31,2.56-3.05,3.53-.64,1.1-1.28,2.19-1.8,3.29-.4,1.1-1.16,3.04-2.14,5.72-1.79,5.85-5.59,8.65-11.19,8.65-2.8,0-5.12-.85-6.91-2.8-1.69-1.83-2.28-4.63-1.75-8.4,.65-4.63,1.96-8.77,3.9-12.18,1.94-3.41,4.31-6.45,6.97-8.89,2.79-2.56,6.39-5.6,11.04-9.25,3.96-3.04,6.86-5.48,8.66-7.06,1.8-1.58,3.38-3.29,4.75-5.24,1.37-1.95,2.28-4.14,2.59-6.33,.63-4.51-.55-8.28-3.41-11.33-2.86-3.04-6.9-4.63-12.14-4.63-6.21,0-10.94,1.58-14.29,4.63-3.24,3.17-6.31,7.67-9.23,13.76-2.82,6.21-6.79,9.38-12.03,9.38-3.17,0-5.69-1.1-7.46-3.29-1.89-2.19-2.64-4.63-2.28-7.18,.73-5.24,3.19-10.59,7.36-16.07,4.16-5.36,9.78-9.86,16.75-13.52,7.07-3.53,14.88-5.36,23.64-5.36,8.04,0,14.88,1.58,20.68,4.51,5.78,3.04,9.97,7.06,12.67,12.18,2.69,5.11,3.62,10.72,2.78,16.68Z"/></svg>