<svg xmlns="http://www.w3.org/2000/svg" xmlns:xlink="http://www.w3.org/1999/xlink" width="88" height="60" fill="none" ><rect x=".6" y=".6" width="86.8" height="58.8" rx="2.4" fill="#fff"/><rect x=".6" y=".6" width="86.8" height="58.8" rx="2.4" stroke="#8796a1" stroke-width="1.2"/><rect x="10" y="14.251" width="19.893" height="31.497" rx=".829" fill="#fff"/><g fill="#aab5bd"><rect x="13.316" y="34.804" width="13.563" height="1.413" rx=".706"/><rect x="16.706" y="37.347" width="6.782" height="1.13" rx=".565"/><use xlink:href="#D"/><path d="M21.453 39.909h-2.22c-.167 0-.303.136-.303.303v2.22c0 .167.136.303.303.303h2.22c.167 0 .303-.136.303-.303v-2.22c0-.167-.136-.303-.303-.303zm-.308 1.002l.001.054c0 .547-.416 1.177-1.177 1.177a1.17 1.17 0 0 1-.635-.186c.033.004.066.005.1.005a.83.83 0 0 0 .513-.177c-.182-.004-.334-.123-.387-.287.064.009.121.009.187-.008-.189-.038-.331-.205-.331-.406v-.005c.055.031.119.05.187.052a.41.41 0 0 1-.135-.149c-.032-.06-.049-.127-.049-.195a.41.41 0 0 1 .056-.209c.204.251.51.415.853.433-.059-.281.151-.508.404-.508.119 0 .227.05.302.13a.81.81 0 0 0 .262-.1c-.031.096-.096.177-.182.228.083-.009.164-.032.238-.064a.87.87 0 0 1-.207.215z"/><use xlink:href="#E"/></g><g clip-path="url(#A)"><rect x="12.487" y="17.153" width="14.92" height="15.749" rx=".829" fill="#fff"/><g fill="#aab5bd"><path d="M23.285 23.098l.013-.41c-.005-1.994-1.174-3.154-3.02-3.278-1.608-.107-2.82.53-3.372 1.592-.186.357-.291.804-.332 1.29a3.28 3.28 0 0 0-.098.788h.006c-.248.05-.356.551-.252 1.13.095.53.335.942.556.972.282.756.726 1.491 1.277 2.028.311.304.657.545 1.025.692.253.099.517.155.788.155s.535-.056.788-.155c.381-.152.739-.404 1.057-.724.537-.537.971-1.259 1.246-2.003.211-.062.434-.46.525-.966.096-.553.003-1.032-.21-1.112zm-.357 1.185c-.05.28-.16.513-.276.612-.046.038-.095.058-.141.05a.12.12 0 0 1-.071-.037c-.255.793-.74 1.584-1.354 2.063-.365.287-.777.463-1.211.463-.425 0-.828-.168-1.187-.444-.625-.477-1.12-1.278-1.378-2.083a.13.13 0 0 1-.07.035c-.053.01-.109-.016-.162-.07-.109-.109-.207-.327-.255-.59l-.008-.051.022-.538c.024-.067.053-.12.093-.149.016-.013.035-.019.054-.022.043-.008.09.01.135.045.016-.16.216-1.471 1.476-1.354 0 0 1.105.407 2.111.048h.311c.416.016.702.232 1.001.37-.011-.138-.117-.277-.112-.37a.61.61 0 0 1 .133.056c.215.229.423.614.589 1.242l.005.003c.043-.034.088-.05.131-.042.011.002.021.005.032.01.136.066.195.388.13.753zm3.932 8.232H13.034a7.46 7.46 0 0 1 .298-1.778l.039-.128.053-.16.008-.018v-.002-.002c.787-2.102 2.019-2.185 2.299-2.251.597-.139 1.32-.08 1.706-.2.045.378 1.147 1.624 1.868 2.405l.308-1.209c-.231-.139-.28-.442-.28-.695h1.186c0 .255-.05.561-.287.698l.312 1.206c.723-.78 1.823-2.027 1.868-2.405.386.12 1.11.061 1.706.2.28.066 1.511.147 2.297 2.243l.063.173v.002l.04.141a10.19 10.19 0 0 1 .317 1.565 1.69 1.69 0 0 1 .026.215z"/></g></g><rect x="12.798" y="17.463" width="14.298" height="15.127" rx=".518" stroke="#aab5bd" stroke-width=".622"/><rect x="31.893" y="8" width="25" height="44" rx="1.389" fill="#fff"/><g fill="#58707f"><rect x="33.175" y="38.053" width="22.737" height="2.368" rx="1.184"/><rect x="38.86" y="42.316" width="11.368" height="1.895" rx=".947"/><path d="M40.184 46.611h-3.722c-.135 0-.264.053-.359.149a.51.51 0 0 0-.149.359v3.722a.51.51 0 0 0 .508.508h1.451v-1.61h-.666v-.758h.666v-.578c0-.657.391-1.02.99-1.02a4.05 4.05 0 0 1 .587.051v.645h-.331c-.326 0-.427.202-.427.41v.492h.727l-.116.758h-.611v1.61h1.451a.51.51 0 0 0 .508-.508v-3.722a.51.51 0 0 0-.508-.508zm6.632 0h-3.722a.51.51 0 0 0-.508.508v3.722a.51.51 0 0 0 .508.508h3.722a.51.51 0 0 0 .508-.508v-3.722a.51.51 0 0 0-.508-.508zm-.517 1.679l.002.09c0 .917-.698 1.973-1.973 1.973-.393 0-.758-.114-1.065-.311a1.45 1.45 0 0 0 .167.008 1.39 1.39 0 0 0 .861-.296c-.304-.006-.56-.206-.648-.481.107.016.203.016.313-.013-.317-.065-.555-.344-.555-.681v-.008a.69.69 0 0 0 .313.088.69.69 0 0 1-.215-.927 1.97 1.97 0 0 0 1.43.725c-.098-.471.254-.852.677-.852a.69.69 0 0 1 .507.219 1.36 1.36 0 0 0 .44-.167.69.69 0 0 1-.305.382 1.38 1.38 0 0 0 .4-.108 1.46 1.46 0 0 1-.348.359zm7.317-1.679h-4.061a.34.34 0 0 0-.337.341v4.054a.34.34 0 0 0 .337.341h4.061a.34.34 0 0 0 .338-.341v-4.054a.34.34 0 0 0-.338-.341zm-2.967 4.06h-.702V48.41h.703v2.261h-.001zm-.351-2.569c-.225 0-.407-.183-.407-.407s.182-.407.407-.407a.41.41 0 0 1 .407.407c0 .225-.182.407-.407.407zm2.983 2.569h-.702v-1.1c0-.262-.005-.599-.365-.599-.366 0-.422.285-.422.581v1.119h-.702V48.41h.673v.309h.01c.094-.178.324-.365.665-.365.711 0 .843.468.843 1.077v1.239z"/></g><g clip-path="url(#B)"><rect x="31.786" y="8.463" width="25.011" height="26.4" rx="1.389" fill="#fff"/><g fill="#58707f"><path d="M49.888 18.43l.021-.687c-.008-3.343-1.968-5.288-5.062-5.495-2.696-.18-4.727.889-5.653 2.669-.312.599-.489 1.348-.556 2.162a5.49 5.49 0 0 0-.164 1.321h.011c-.008.011-.016.011-.021.013-.395.07-.575.91-.4 1.88.159.889.561 1.579.932 1.63.473 1.268 1.217 2.5 2.14 3.4.521.51 1.101.913 1.719 1.16.424.166.867.261 1.321.261s.897-.094 1.321-.261c.639-.255 1.238-.677 1.773-1.214.9-.9 1.627-2.111 2.089-3.357.355-.105.728-.771.881-1.619.161-.927.005-1.73-.352-1.864zm-.599 1.987c-.083.47-.269.859-.462 1.026-.078.064-.159.097-.236.083-.043-.005-.083-.027-.118-.062-.427 1.329-1.241 2.656-2.269 3.459-.612.481-1.302.776-2.03.776-.712 0-1.388-.282-1.99-.744-1.047-.8-1.877-2.143-2.31-3.491-.035.032-.075.054-.118.059-.089.016-.183-.027-.271-.118-.183-.183-.346-.548-.427-.988l-.013-.086.038-.902c.04-.113.089-.201.156-.25.027-.021.059-.032.091-.038.073-.014.15.016.226.075.027-.269.363-2.465 2.473-2.269 0 0 1.853.682 3.54.081h.521c.698.027 1.176.389 1.678.62-.019-.231-.196-.465-.188-.62a1.03 1.03 0 0 1 .223.094c.36.384.709 1.029.988 2.081l.008.005c.073-.056.148-.083.22-.07.019.003.035.008.054.016.228.11.328.65.218 1.262zm6.591 13.799H32.704c.051-1.013.201-1.974.5-2.981l.064-.215.089-.269c.008-.016.008-.019.011-.021l.003-.008v-.003-.003c1.319-3.523 3.384-3.663 3.854-3.773 1.002-.234 2.213-.134 2.86-.336.075.634 1.923 2.723 3.131 4.031l.516-2.028c-.387-.234-.47-.741-.47-1.165h1.987c0 .427-.083.94-.481 1.171l.524 2.022c1.211-1.308 3.056-3.397 3.131-4.031.647.201 1.861.102 2.86.336.47.11 2.532.247 3.851 3.76l.105.29v.003c.003.008.005.013.005.021l.062.215a17.26 17.26 0 0 1 .532 2.624 2.78 2.78 0 0 1 .043.36z"/></g></g><rect x="32.307" y="8.984" width="23.968" height="25.358" rx=".868" stroke="#58707f" stroke-width="1.042"/><rect x="58.893" y="14.251" width="19.893" height="31.497" rx=".829" fill="#fff"/><g fill="#aab5bd"><rect x="62.208" y="34.804" width="13.563" height="1.413" rx=".706"/><rect x="65.599" y="37.347" width="6.782" height="1.13" rx=".565"/><use xlink:href="#D" x="48.892"/><path d="M70.345 39.909h-2.22c-.167 0-.303.136-.303.303v2.22c0 .167.136.303.303.303h2.22c.167 0 .303-.136.303-.303v-2.22c0-.167-.136-.303-.303-.303zm-.308 1.002l.001.054c0 .547-.416 1.177-1.177 1.177a1.17 1.17 0 0 1-.635-.186.87.87 0 0 0 .1.005.83.83 0 0 0 .513-.177c-.182-.004-.334-.123-.387-.287.064.009.121.009.187-.008-.189-.038-.331-.205-.331-.406v-.005c.055.031.119.05.187.052-.057-.038-.103-.089-.135-.149s-.049-.127-.049-.195c0-.077.02-.148.056-.209.204.251.51.415.853.433-.059-.281.151-.508.404-.508.119 0 .226.05.302.13a.81.81 0 0 0 .262-.1c-.031.096-.096.177-.182.228.083-.009.164-.032.238-.064a.87.87 0 0 1-.208.215z"/><use xlink:href="#E" x="48.893"/></g><g clip-path="url(#C)"><rect x="61.379" y="17.153" width="14.92" height="15.749" rx=".829" fill="#fff"/><g fill="#aab5bd"><path d="M72.177 23.098l.013-.41c-.005-1.994-1.174-3.154-3.02-3.278-1.608-.107-2.82.53-3.372 1.592-.186.357-.292.804-.332 1.29a3.28 3.28 0 0 0-.098.788h.006c-.248.05-.356.551-.252 1.13.095.53.335.942.556.972.282.756.726 1.491 1.277 2.028.311.304.657.545 1.025.692.253.099.517.155.788.155s.535-.056.788-.155c.381-.152.738-.404 1.057-.724.537-.537.971-1.259 1.246-2.003.212-.062.434-.46.526-.966.096-.553.003-1.032-.21-1.112zm-.357 1.185c-.05.28-.16.513-.276.612-.046.038-.094.058-.141.05-.026-.003-.05-.016-.07-.037-.255.793-.74 1.584-1.354 2.063-.365.287-.777.463-1.211.463-.425 0-.828-.168-1.187-.444-.625-.477-1.12-1.278-1.378-2.083a.13.13 0 0 1-.07.035c-.053.01-.109-.016-.162-.07-.109-.109-.207-.327-.255-.59l-.008-.051.022-.538c.024-.067.053-.12.093-.149.016-.013.035-.019.055-.022.043-.008.09.01.135.045.016-.16.216-1.471 1.476-1.354 0 0 1.105.407 2.111.048h.311c.417.016.702.232 1.001.37-.011-.138-.117-.277-.112-.37a.61.61 0 0 1 .133.056c.215.229.423.614.59 1.242l.005.003c.043-.034.088-.05.131-.042.011.002.021.005.032.01.136.066.196.388.13.753zm3.932 8.232H61.926a7.45 7.45 0 0 1 .298-1.778l.038-.128.053-.16.008-.018v-.002-.002c.787-2.102 2.019-2.185 2.299-2.251.598-.139 1.32-.08 1.706-.2.045.378 1.147 1.624 1.868 2.405l.308-1.209c-.231-.139-.28-.442-.28-.695h1.185c0 .255-.05.561-.287.698l.312 1.206c.723-.78 1.823-2.027 1.868-2.405.386.12 1.11.061 1.706.2.28.066 1.511.147 2.297 2.243l.062.173v.002l.04.141a10.19 10.19 0 0 1 .317 1.565 1.67 1.67 0 0 1 .026.215z"/></g></g><rect x="61.69" y="17.463" width="14.298" height="15.127" rx=".518" stroke="#aab5bd" stroke-width=".622"/><path d="M79.5 34l4-4-4-4m-71 0l-4 4 4 4" stroke="#718491" stroke-width="1.8" stroke-linecap="round" stroke-linejoin="round"/><defs><clipPath id="A"><rect x="12.487" y="17.153" width="14.92" height="15.749" rx=".829" fill="#fff"/></clipPath><clipPath id="B"><rect x="31.786" y="8.463" width="25.011" height="26.4" rx="1.389" fill="#fff"/></clipPath><clipPath id="C"><rect x="61.379" y="17.153" width="14.92" height="15.749" rx=".829" fill="#fff"/></clipPath><path id="D" d="M17.497 39.909h-2.22c-.08 0-.157.032-.214.089s-.089.134-.089.214v2.22c0 .08.032.157.089.214s.134.089.214.089h.866v-.961h-.397v-.452h.397v-.345c0-.392.233-.608.591-.608a2.41 2.41 0 0 1 .35.03v.385h-.197c-.194 0-.255.121-.255.244v.294h.434l-.069.452h-.364v.961h.866c.08 0 .157-.032.214-.089s.089-.134.089-.214v-2.22c0-.08-.032-.157-.089-.214s-.134-.089-.214-.089z"/><path id="E" d="M25.509 39.909h-2.423c-.111 0-.201.091-.201.204v2.418c0 .112.09.204.201.204h2.423c.111 0 .202-.092.202-.204v-2.418c0-.112-.091-.204-.202-.204zm-1.77 2.422h-.419v-1.349h.419v1.349h-.001zm-.209-1.533c-.134 0-.243-.109-.243-.243s.108-.243.243-.243.243.109.243.243-.108.243-.243.243zm1.779 1.533h-.419v-.656c0-.156-.003-.358-.218-.358s-.252.17-.252.346v.667h-.419v-1.349h.402v.184h.006c.056-.106.193-.218.397-.218.424 0 .503.279.503.643v.739z"/></defs></svg>