<svg xmlns="http://www.w3.org/2000/svg" xmlns:xlink="http://www.w3.org/1999/xlink" width="88" height="60" fill="none" ><style><![CDATA[.B{fill:#fff}.C{fill:#58707f}.D{stroke:#58707f}.E{stroke-width:.95}]]></style><rect x=".6" y=".6" width="86.8" height="58.8" rx="2.4" class="B"/><rect x=".6" y=".6" width="86.8" height="58.8" rx="2.4" stroke="#8796a1" stroke-width="1.2"/><g clip-path="url(#A)"><rect x="7.5" y="4.523" width="15.158" height="16" rx="1.267" class="B"/><g class="C"><path d="M18.471 10.564l.013-.417c-.005-2.026-1.193-3.205-3.068-3.33-1.634-.109-2.865.539-3.426 1.618-.189.363-.296.817-.337 1.31a3.33 3.33 0 0 0-.099.801h.007c-.252.05-.361.56-.255 1.147.096.539.34.957.565.988.286.768.737 1.515 1.297 2.061.316.309.667.553 1.042.703.257.101.526.158.801.158s.544-.057.801-.158c.387-.155.75-.41 1.074-.736.545-.545.986-1.279 1.266-2.034.215-.063.441-.467.534-.981.098-.562.003-1.048-.213-1.13zm-.363 1.204c-.05.285-.163.521-.28.622-.047.039-.096.059-.143.05-.026-.003-.05-.016-.072-.037-.259.806-.752 1.61-1.375 2.096-.371.291-.789.47-1.23.47-.431 0-.841-.171-1.206-.451-.635-.485-1.138-1.299-1.4-2.116-.021.02-.046.033-.072.036-.054.01-.111-.016-.164-.072-.111-.111-.21-.332-.259-.599l-.008-.052.023-.547c.024-.068.054-.122.094-.151.016-.013.036-.019.055-.023.044-.008.091.01.137.046.016-.163.22-1.494 1.499-1.375 0 0 1.123.413 2.145.049h.316c.423.016.713.236 1.017.376-.011-.14-.119-.282-.114-.376a.62.62 0 0 1 .135.057c.218.233.43.623.599 1.261l.005.003c.044-.034.09-.051.133-.042.011.002.021.005.033.01.138.067.199.394.132.765z"/><use xlink:href="#H"/></g></g><rect x="7.975" y="4.998" width="14.208" height="15.05" rx=".792" class="D E"/><g class="C"><rect x="7.579" y="22.523" width="15" height="2" rx="1"/><rect x="10.079" y="26.25" width="10" height="1.75" rx=".875"/></g><g clip-path="url(#B)"><rect x="7.5" y="32" width="15.158" height="16" rx="1.267" class="B"/><g class="C"><path d="M18.471 38.041l.013-.417c-.005-2.026-1.193-3.205-3.068-3.33-1.634-.109-2.865.539-3.426 1.618-.189.363-.296.817-.337 1.31a3.33 3.33 0 0 0-.099.801h.007c-.252.05-.361.56-.255 1.147.096.539.34.957.565.988.286.768.737 1.515 1.297 2.061.316.309.667.553 1.042.703.257.101.526.158.801.158s.544-.057.801-.158c.387-.155.75-.41 1.074-.736.545-.545.986-1.279 1.266-2.035.215-.064.441-.467.534-.982.098-.561.003-1.048-.213-1.13zm-.363 1.204c-.05.285-.163.521-.28.622-.047.039-.096.059-.143.05-.026-.003-.05-.016-.072-.037-.259.806-.752 1.61-1.375 2.096-.371.291-.789.47-1.23.47-.431 0-.841-.171-1.206-.451-.635-.485-1.138-1.299-1.4-2.116-.021.02-.046.032-.072.036-.054.01-.111-.016-.164-.072-.111-.111-.21-.332-.259-.599l-.008-.052.023-.547c.024-.068.054-.122.094-.151.016-.013.036-.02.055-.023.044-.008.091.01.137.046.016-.163.22-1.494 1.499-1.375 0 0 1.123.413 2.145.049h.316c.423.016.713.236 1.017.376-.011-.14-.119-.282-.114-.376a.62.62 0 0 1 .135.057c.218.233.43.623.599 1.261l.005.003c.044-.034.09-.05.133-.042.011.002.021.005.033.01.138.067.199.394.132.765zm3.994 8.363H8.056c.031-.614.122-1.196.303-1.807l.039-.13.054-.163.008-.018v-.002-.002c.799-2.135 2.051-2.22 2.336-2.287.607-.142 1.341-.081 1.733-.203.046.384 1.165 1.65 1.898 2.443l.313-1.229c-.234-.142-.285-.449-.285-.706h1.204c0 .259-.05.57-.291.71l.317 1.226c.734-.793 1.852-2.059 1.898-2.443.392.122 1.128.062 1.733.203.285.067 1.535.15 2.334 2.279l.064.176v.002l.041.143c.143.516.262 1.058.322 1.59a1.64 1.64 0 0 1 .026.218z"/></g></g><rect x="7.975" y="32.475" width="14.208" height="15.05" rx=".792" class="D E"/><g class="C"><rect x="7.579" y="50" width="15" height="2" rx="1"/><rect x="10.079" y="53.727" width="10" height="1.75" rx=".875"/></g><g clip-path="url(#C)"><rect x="26.658" y="4.523" width="15.158" height="16" rx="1.267" class="B"/><g class="C"><path d="M37.629 10.564l.013-.417c-.005-2.026-1.193-3.205-3.068-3.33-1.634-.109-2.865.539-3.426 1.618-.189.363-.296.817-.337 1.31-.063.257-.099.524-.099.801h.006c-.252.05-.361.56-.256 1.147.096.539.34.957.565.988.287.768.737 1.515 1.297 2.061a3.22 3.22 0 0 0 1.042.703c.257.101.526.158.801.158s.544-.057.801-.158c.387-.155.75-.41 1.074-.736.545-.545.986-1.279 1.266-2.034.215-.063.441-.467.534-.981.098-.562.003-1.048-.213-1.13zm-.363 1.204c-.05.285-.163.521-.28.622-.047.039-.096.059-.143.05-.026-.003-.05-.016-.072-.037-.259.806-.752 1.61-1.375 2.096-.371.291-.789.47-1.23.47-.431 0-.842-.171-1.206-.451-.635-.485-1.138-1.299-1.4-2.116-.021.02-.046.033-.072.036-.054.01-.111-.016-.164-.072-.111-.111-.21-.332-.259-.599l-.008-.052.023-.547c.024-.068.054-.122.094-.151.016-.013.036-.019.055-.023.044-.008.091.01.137.046.016-.163.22-1.494 1.499-1.375 0 0 1.123.413 2.145.049h.316c.423.016.713.236 1.017.376-.011-.14-.119-.282-.114-.376.049.013.093.034.135.057.218.233.43.623.599 1.261l.005.003c.044-.034.089-.051.133-.042.011.002.021.005.032.01.138.067.199.394.132.765z"/><use xlink:href="#I"/></g></g><rect x="27.133" y="4.998" width="14.208" height="15.05" rx=".792" class="D E"/><g class="C"><rect x="26.737" y="22.523" width="15" height="2" rx="1"/><rect x="29.237" y="26.25" width="10" height="1.75" rx=".875"/></g><g clip-path="url(#D)"><rect x="26.658" y="32" width="15.158" height="16" rx="1.267" class="B"/><g class="C"><path d="M37.629 38.041l.013-.417c-.005-2.026-1.193-3.205-3.068-3.33-1.634-.109-2.865.539-3.426 1.618-.189.363-.296.817-.337 1.31-.063.257-.099.524-.099.801h.006c-.252.05-.361.56-.256 1.147.096.539.34.957.565.988.287.768.737 1.515 1.297 2.061a3.22 3.22 0 0 0 1.042.703c.257.101.526.158.801.158s.544-.057.801-.158c.387-.155.75-.41 1.074-.736.545-.545.986-1.279 1.266-2.035.215-.064.441-.467.534-.982.098-.561.003-1.048-.213-1.13zm-.363 1.204c-.05.285-.163.521-.28.622-.047.039-.096.059-.143.05-.026-.003-.05-.016-.072-.037-.259.806-.752 1.61-1.375 2.096-.371.291-.789.47-1.23.47-.431 0-.842-.171-1.206-.451-.635-.485-1.138-1.299-1.4-2.116-.021.02-.046.032-.072.036-.054.01-.111-.016-.164-.072-.111-.111-.21-.332-.259-.599l-.008-.052.023-.547c.024-.068.054-.122.094-.151.016-.013.036-.02.055-.023.044-.008.091.01.137.046.016-.163.22-1.494 1.499-1.375 0 0 1.123.413 2.145.049h.316c.423.016.713.236 1.017.376-.011-.14-.119-.282-.114-.376a.6.6 0 0 1 .135.057c.218.233.43.623.599 1.261l.005.003c.044-.034.089-.05.133-.042.011.002.021.005.032.01.138.067.199.394.132.765zm3.994 8.363H27.214c.031-.614.122-1.196.303-1.807l.039-.13.054-.163.008-.018v-.002-.002c.799-2.135 2.051-2.22 2.336-2.287.607-.142 1.341-.081 1.733-.203.046.384 1.165 1.65 1.898 2.443l.313-1.229c-.234-.142-.285-.449-.285-.706h1.204c0 .259-.05.57-.291.71l.317 1.226c.734-.793 1.852-2.059 1.898-2.443.392.122 1.128.062 1.733.203.285.067 1.535.15 2.334 2.279l.063.176v.002l.041.143a10.38 10.38 0 0 1 .322 1.59 1.69 1.69 0 0 1 .026.218z"/></g></g><rect x="27.133" y="32.475" width="14.208" height="15.05" rx=".792" class="D E"/><g class="C"><rect x="26.737" y="50" width="15" height="2" rx="1"/><rect x="29.237" y="53.727" width="10" height="1.75" rx=".875"/></g><g clip-path="url(#E)"><rect x="45.816" y="4.523" width="15.158" height="16" rx="1.267" class="B"/><g class="C"><path d="M56.787 10.564l.013-.417c-.005-2.026-1.193-3.205-3.068-3.33-1.634-.109-2.865.539-3.426 1.618-.189.363-.296.817-.337 1.31a3.33 3.33 0 0 0-.099.801h.007c-.252.05-.361.56-.256 1.147.096.539.34.957.565.988.286.768.737 1.515 1.297 2.061.316.309.667.553 1.042.703.257.101.526.158.801.158s.544-.057.801-.158c.387-.155.75-.41 1.074-.736.545-.545.986-1.279 1.266-2.034.215-.063.441-.467.534-.981.098-.562.003-1.048-.213-1.13zm-.363 1.204c-.05.285-.163.521-.28.622-.047.039-.096.059-.143.05-.026-.003-.05-.016-.072-.037-.259.806-.752 1.61-1.375 2.096-.371.291-.789.47-1.23.47-.431 0-.842-.171-1.206-.451-.635-.485-1.138-1.299-1.4-2.116-.021.02-.046.033-.072.036-.054.01-.111-.016-.164-.072-.111-.111-.21-.332-.259-.599l-.008-.052.023-.547c.024-.068.054-.122.094-.151.016-.013.036-.019.055-.023.044-.008.091.01.137.046.016-.163.22-1.494 1.499-1.375 0 0 1.123.413 2.145.049h.316c.423.016.713.236 1.017.376-.011-.14-.119-.282-.114-.376a.62.62 0 0 1 .135.057c.218.233.43.623.599 1.261l.005.003c.044-.034.09-.051.133-.042.011.002.021.005.033.01.138.067.199.394.132.765zm3.994 8.363H46.372c.031-.614.122-1.196.303-1.807l.039-.13.054-.163.008-.018v-.002-.002c.799-2.135 2.051-2.22 2.336-2.287.607-.142 1.341-.081 1.733-.203.046.384 1.165 1.65 1.898 2.443l.313-1.229c-.234-.142-.285-.449-.285-.706h1.204c0 .259-.05.57-.291.71L54 17.963c.734-.793 1.852-2.059 1.898-2.443.392.122 1.128.062 1.733.203.285.067 1.535.15 2.334 2.279l.064.176v.002l.041.143c.143.516.262 1.058.322 1.59a1.64 1.64 0 0 1 .026.218z"/></g></g><rect x="46.291" y="4.998" width="14.208" height="15.05" rx=".792" class="D E"/><g class="C"><rect x="45.895" y="22.523" width="15" height="2" rx="1"/><rect x="48.395" y="26.25" width="10" height="1.75" rx=".875"/></g><g clip-path="url(#F)"><rect x="45.816" y="32" width="15.158" height="16" rx="1.267" class="B"/><g class="C"><path d="M56.787 38.041l.013-.417c-.005-2.026-1.193-3.205-3.068-3.33-1.634-.109-2.865.539-3.426 1.618-.189.363-.296.817-.337 1.31a3.33 3.33 0 0 0-.099.801h.007c-.252.05-.361.56-.256 1.147.096.539.34.957.565.988.286.768.737 1.515 1.297 2.061.316.309.667.553 1.042.703.257.101.526.158.801.158s.544-.057.801-.158c.387-.155.75-.41 1.074-.736.545-.545.986-1.279 1.266-2.035.215-.064.441-.467.534-.982.098-.561.003-1.048-.213-1.13zm-.363 1.204c-.05.285-.163.521-.28.622-.047.039-.096.059-.143.05-.026-.003-.05-.016-.072-.037-.259.806-.752 1.61-1.375 2.096-.371.291-.789.47-1.23.47-.431 0-.842-.171-1.206-.451-.635-.485-1.138-1.299-1.4-2.116-.021.02-.046.032-.072.036-.054.01-.111-.016-.164-.072-.111-.111-.21-.332-.259-.599l-.008-.052.023-.547c.024-.068.054-.122.094-.151.016-.013.036-.02.055-.023.044-.008.091.01.137.046.016-.163.22-1.494 1.499-1.375 0 0 1.123.413 2.145.049h.316c.423.016.713.236 1.017.376-.011-.14-.119-.282-.114-.376a.62.62 0 0 1 .135.057c.218.233.43.623.599 1.261l.005.003c.044-.034.09-.05.133-.042.011.002.021.005.033.01.138.067.199.394.132.765zm3.994 8.363H46.372c.031-.614.122-1.196.303-1.807l.039-.13.054-.163.008-.018v-.002-.002c.799-2.135 2.051-2.22 2.336-2.287.607-.142 1.341-.081 1.733-.203.046.384 1.165 1.65 1.898 2.443l.313-1.229c-.234-.142-.285-.449-.285-.706h1.204c0 .259-.05.57-.291.71L54 45.44c.734-.793 1.852-2.059 1.898-2.443.392.122 1.128.062 1.733.203.285.067 1.535.15 2.334 2.279l.064.176v.002l.041.143c.143.516.262 1.058.322 1.59a1.64 1.64 0 0 1 .026.218z"/></g></g><rect x="46.291" y="32.475" width="14.208" height="15.05" rx=".792" class="D E"/><g class="C"><rect x="45.895" y="50" width="15" height="2" rx="1"/><rect x="48.395" y="53.727" width="10" height="1.75" rx=".875"/></g><g clip-path="url(#G)"><rect x="64.974" y="4.523" width="15.158" height="16" rx="1.267" class="B"/><g class="C"><path d="M75.945 10.564l.013-.417c-.005-2.026-1.193-3.205-3.068-3.33-1.634-.109-2.865.539-3.426 1.618-.189.363-.296.817-.337 1.31-.063.257-.099.524-.099.801h.007c-.252.05-.361.56-.256 1.147.096.539.34.957.565.988.286.768.737 1.515 1.297 2.061a3.22 3.22 0 0 0 1.042.703c.257.101.526.158.801.158s.544-.057.801-.158c.387-.155.75-.41 1.074-.736.545-.545.986-1.279 1.266-2.034.215-.063.441-.467.534-.981.098-.562.003-1.048-.213-1.13zm-.363 1.204c-.05.285-.163.521-.28.622-.047.039-.096.059-.143.05-.026-.003-.05-.016-.072-.037-.259.806-.752 1.61-1.375 2.096-.371.291-.789.47-1.23.47-.431 0-.841-.171-1.206-.451-.635-.485-1.138-1.299-1.4-2.116-.021.02-.046.033-.072.036-.054.01-.111-.016-.164-.072-.111-.111-.21-.332-.259-.599l-.008-.052.023-.547c.024-.068.054-.122.094-.151.016-.013.036-.019.055-.023.044-.008.091.01.137.046.016-.163.22-1.494 1.499-1.375 0 0 1.123.413 2.145.049h.316c.423.016.713.236 1.017.376-.011-.14-.119-.282-.114-.376.049.013.093.034.135.057.218.233.43.623.599 1.261l.005.003c.044-.034.09-.051.133-.042.011.002.021.005.032.01.138.067.199.394.132.765z"/><use xlink:href="#J"/></g></g><rect x="65.449" y="4.998" width="14.208" height="15.05" rx=".792" class="D E"/><g class="C"><rect x="65.053" y="22.523" width="15" height="2" rx="1"/><rect x="67.553" y="26.25" width="10" height="1.75" rx=".875"/></g><rect x="65.449" y="32.475" width="14.208" height="15.05" rx=".792" class="B"/><rect x="65.449" y="32.475" width="14.208" height="15.05" rx=".792" class="D E"/><g class="C"><path d="M75.945 38.041l.013-.417c-.005-2.026-1.193-3.205-3.068-3.33-1.634-.109-2.865.539-3.426 1.618-.189.363-.296.817-.337 1.31-.063.257-.099.524-.099.801h.007c-.252.05-.361.56-.256 1.147.096.539.34.957.565.988.286.768.737 1.515 1.297 2.061a3.22 3.22 0 0 0 1.042.703c.257.101.526.158.801.158s.544-.057.801-.158c.387-.155.75-.41 1.074-.736.545-.545.986-1.279 1.266-2.035.215-.064.441-.467.534-.982.098-.561.003-1.048-.213-1.13zm-.363 1.204c-.05.285-.163.521-.28.622-.047.039-.096.059-.143.05-.026-.003-.05-.016-.072-.037-.259.806-.752 1.61-1.375 2.096-.371.291-.789.47-1.23.47-.431 0-.841-.171-1.206-.451-.635-.485-1.138-1.299-1.4-2.116-.021.02-.046.032-.072.036-.054.01-.111-.016-.164-.072-.111-.111-.21-.332-.259-.599l-.008-.052.023-.547c.024-.068.054-.122.094-.151.016-.013.036-.02.055-.023.044-.008.091.01.137.046.016-.163.22-1.494 1.499-1.375 0 0 1.123.413 2.145.049h.316c.423.016.713.236 1.017.376-.011-.14-.119-.282-.114-.376.049.013.093.034.135.057.218.233.43.623.599 1.261l.005.003c.044-.034.09-.05.133-.042.011.002.021.005.032.01.138.067.199.394.132.765z"/><use xlink:href="#J" y="27.477"/><rect x="65.053" y="50" width="15" height="2" rx="1"/><rect x="67.553" y="53.727" width="10" height="1.75" rx=".875"/></g><defs><clipPath id="A"><rect x="7.5" y="4.523" width="15.158" height="16" rx="1.267" class="B"/></clipPath><clipPath id="B"><rect x="7.5" y="32" width="15.158" height="16" rx="1.267" class="B"/></clipPath><clipPath id="C"><rect x="26.658" y="4.523" width="15.158" height="16" rx="1.267" class="B"/></clipPath><clipPath id="D"><rect x="26.658" y="32" width="15.158" height="16" rx="1.267" class="B"/></clipPath><clipPath id="E"><rect x="45.816" y="4.523" width="15.158" height="16" rx="1.267" class="B"/></clipPath><clipPath id="F"><rect x="45.816" y="32" width="15.158" height="16" rx="1.267" class="B"/></clipPath><clipPath id="G"><rect x="64.974" y="4.523" width="15.158" height="16" rx="1.267" class="B"/></clipPath><path id="H" d="M22.102 20.131H8.056c.031-.614.122-1.196.303-1.807l.039-.13.054-.163.008-.018v-.002-.002c.799-2.135 2.051-2.22 2.336-2.287.607-.142 1.341-.081 1.733-.203.046.384 1.165 1.65 1.898 2.443l.313-1.229c-.234-.142-.285-.449-.285-.706h1.204c0 .259-.05.57-.291.71l.317 1.226c.734-.793 1.852-2.059 1.898-2.443.392.122 1.128.062 1.733.203.285.067 1.535.15 2.334 2.279l.064.176v.002l.041.143c.143.516.262 1.058.322 1.59.015.073.021.146.026.218z"/><path id="I" d="M41.26 20.131H27.214c.031-.614.122-1.196.303-1.807l.039-.13.054-.163.008-.018v-.002-.002c.799-2.135 2.051-2.22 2.336-2.287.607-.142 1.341-.081 1.733-.203.046.384 1.165 1.65 1.898 2.443l.313-1.229c-.234-.142-.285-.449-.285-.706h1.204c0 .259-.05.57-.291.71l.317 1.226c.734-.793 1.852-2.059 1.898-2.443.392.122 1.128.062 1.733.203.285.067 1.535.15 2.334 2.279l.063.176v.002l.041.143a10.38 10.38 0 0 1 .322 1.59 1.69 1.69 0 0 1 .026.218z"/><path id="J" d="M79.576 20.131H65.53c.031-.614.122-1.196.303-1.807l.039-.13.054-.163.008-.018v-.002-.002c.799-2.135 2.051-2.22 2.336-2.287.607-.142 1.341-.081 1.733-.203.046.384 1.165 1.65 1.898 2.443l.313-1.229c-.234-.142-.285-.449-.285-.706h1.204c0 .259-.05.57-.291.71l.317 1.226c.734-.793 1.852-2.059 1.898-2.443.392.122 1.128.062 1.733.203.285.067 1.535.15 2.334 2.279l.063.176v.002l.041.143a10.38 10.38 0 0 1 .322 1.59 1.69 1.69 0 0 1 .026.218z"/></defs></svg>