<svg xmlns="http://www.w3.org/2000/svg" width="88" height="60" fill="none" ><style><![CDATA[.B{fill:#fff}.C{fill:#58707f}.D{stroke:#58707f}.E{stroke-width:.5}]]></style><rect x=".6" y=".6" width="86.8" height="58.8" rx="2.4" class="B"/><rect x=".6" y=".6" width="86.8" height="58.8" rx="2.4" stroke="#8796a1" stroke-width="1.2"/><g clip-path="url(#A)"><rect x="8.37" y="16.369" width="15.565" height="18" rx="1.487" class="B"/><g class="C"><path d="M19.633 23.239l.013-.454c-.005-2.207-1.225-3.491-3.151-3.628-1.678-.119-2.942.587-3.518 1.762-.194.395-.304.89-.346 1.427-.065.28-.102.571-.102.872h.007c-.259.055-.371.61-.262 1.25.099.587.349 1.043.58 1.076.294.837.757 1.651 1.332 2.245.324.337.685.603 1.07.766.264.11.54.172.822.172s.558-.062.822-.172c.398-.168.77-.447 1.103-.801.56-.594 1.013-1.394 1.3-2.216.221-.069.453-.509.548-1.069.1-.612.003-1.142-.219-1.231zm-.373 1.312c-.052.31-.167.567-.288.677-.048.043-.099.064-.147.055-.027-.003-.052-.018-.074-.041-.266.878-.772 1.754-1.412 2.284-.381.317-.811.512-1.264.512-.443 0-.864-.186-1.239-.491-.652-.528-1.168-1.415-1.437-2.305-.022.021-.047.035-.073.039-.055.011-.114-.018-.169-.078-.114-.121-.216-.362-.266-.652l-.008-.057.023-.596c.025-.074.055-.133.097-.165.017-.014.037-.021.057-.025.045-.009.094.011.14.05.017-.177.226-1.628 1.539-1.498 0 0 1.153.45 2.203.053h.324c.434.018.732.257 1.045.41-.012-.152-.122-.307-.117-.41a.62.62 0 0 1 .139.062c.224.254.441.679.615 1.374l.005.003c.045-.037.092-.055.137-.046.012.002.022.005.033.011.142.073.204.429.135.833zm4.102 9.111H8.938a8.71 8.71 0 0 1 .311-1.968l.04-.142.055-.177.008-.02v-.002-.002c.821-2.326 2.106-2.419 2.398-2.491.623-.154 1.377-.089 1.78-.222.047.418 1.197 1.798 1.949 2.661l.321-1.339c-.241-.154-.293-.489-.293-.77h1.237c0 .282-.052.621-.299.773l.326 1.335c.754-.864 1.902-2.243 1.949-2.661.403.133 1.158.067 1.78.222.293.073 1.576.163 2.397 2.482l.065.191v.002l.042.156a11.92 11.92 0 0 1 .331 1.732 1.94 1.94 0 0 1 .027.238z"/></g></g><rect x="8.87" y="16.869" width="14.565" height="17" rx=".987" class="D"/><g clip-path="url(#B)"><rect x="8.37" y="37.5" width="15.565" height="16" rx="1.487" class="B"/><g class="C"><path d="M19.632 43.359l.013-.428c-.005-2.081-1.225-3.291-3.151-3.42-1.678-.112-2.942.553-3.518 1.661-.194.373-.304.839-.346 1.345a3.42 3.42 0 0 0-.102.822h.007c-.259.052-.371.575-.262 1.178.099.553.349.983.58 1.014.294.789.757 1.556 1.332 2.116.324.318.685.568 1.07.722.264.104.54.162.822.162s.558-.059.822-.162a3.31 3.31 0 0 0 1.103-.755c.56-.56 1.013-1.314 1.3-2.089.221-.065.453-.48.548-1.008.1-.577.003-1.076-.219-1.16zm-.373 1.237c-.052.292-.167.535-.287.638-.048.04-.099.06-.147.052-.027-.003-.052-.017-.074-.038-.266.827-.772 1.653-1.412 2.153-.381.299-.811.483-1.264.483-.443 0-.864-.175-1.239-.463-.652-.498-1.168-1.334-1.437-2.173-.022.02-.047.033-.074.037-.055.01-.114-.017-.169-.074-.114-.114-.216-.341-.266-.615l-.008-.053.023-.562c.025-.07.055-.125.097-.155.017-.013.037-.02.057-.023.045-.008.094.01.14.047.017-.167.226-1.534 1.539-1.412 0 0 1.153.425 2.203.05h.324c.435.017.732.242 1.045.386-.012-.144-.122-.289-.117-.386a.61.61 0 0 1 .139.059c.224.239.441.64.615 1.295l.005.003c.045-.035.092-.052.137-.043.012.002.022.005.033.01.142.069.204.404.135.786zm4.103 8.588H8.938c.032-.63.125-1.228.311-1.855l.04-.134.055-.167.008-.018v-.002-.002c.821-2.193 2.106-2.28 2.398-2.348.623-.145 1.377-.084 1.78-.209.047.394 1.197 1.695 1.949 2.509l.321-1.262c-.241-.145-.293-.461-.293-.725h1.237c0 .266-.052.585-.299.729l.326 1.259c.754-.814 1.902-2.114 1.949-2.509.403.125 1.158.064 1.78.209.293.069 1.576.154 2.397 2.34l.065.181v.002l.042.147a10.66 10.66 0 0 1 .331 1.633 1.73 1.73 0 0 1 .027.224z"/></g></g><rect x="8.87" y="38" width="14.565" height="15" rx=".987" class="D"/><g clip-path="url(#C)"><rect x="26.935" y="16.369" width="15.565" height="16" rx="1.487" class="B"/><g class="C"><path d="M38.198 22.229l.013-.428c-.005-2.081-1.225-3.291-3.151-3.42-1.678-.112-2.942.553-3.518 1.661-.194.373-.304.839-.346 1.346a3.42 3.42 0 0 0-.102.822h.007c-.259.052-.371.575-.262 1.178.099.553.349.983.58 1.015.294.789.757 1.556 1.332 2.116.324.318.685.568 1.07.722.264.104.54.162.822.162s.558-.059.822-.162a3.31 3.31 0 0 0 1.103-.755c.56-.56 1.013-1.314 1.3-2.089.221-.065.453-.48.548-1.008.1-.577.003-1.076-.219-1.16zm-.373 1.237c-.052.292-.167.535-.288.638-.049.04-.099.06-.147.052-.027-.003-.052-.017-.074-.038-.266.827-.772 1.653-1.412 2.153-.381.299-.811.483-1.264.483-.443 0-.864-.175-1.239-.463-.652-.498-1.168-1.334-1.437-2.173-.022.02-.047.033-.073.037-.055.01-.114-.017-.169-.074-.114-.114-.216-.341-.266-.615l-.008-.054.023-.562c.025-.07.055-.125.097-.155.017-.013.037-.02.057-.023.045-.008.094.01.14.047.017-.167.226-1.534 1.539-1.412 0 0 1.153.424 2.203.05h.324c.435.017.732.242 1.045.386-.012-.144-.122-.289-.117-.386a.64.64 0 0 1 .139.058c.224.239.441.64.615 1.295l.005.003c.045-.035.092-.052.137-.043.012.002.022.005.033.01.142.069.204.405.135.786zm4.102 8.587H27.503c.032-.63.125-1.228.311-1.855l.04-.134.055-.167.008-.018v-.002-.002c.821-2.193 2.106-2.28 2.398-2.348.624-.145 1.377-.084 1.78-.209.047.394 1.197 1.695 1.949 2.509l.321-1.262c-.241-.145-.292-.461-.292-.725h1.237c0 .266-.052.585-.299.729l.326 1.259c.754-.814 1.902-2.114 1.949-2.509.403.125 1.158.064 1.78.209.292.069 1.576.154 2.397 2.34l.065.18v.002l.042.147c.147.53.269 1.086.331 1.633a1.73 1.73 0 0 1 .027.224z"/></g></g><rect x="27.435" y="16.869" width="14.565" height="15" rx=".987" class="D"/><rect x="27.435" y="36" width="14.565" height="17" rx=".987" class="B"/><rect x="27.435" y="36" width="14.565" height="17" rx=".987" class="D"/><path d="M38.198 42.37l.013-.454c-.005-2.208-1.225-3.491-3.151-3.628-1.678-.119-2.942.587-3.518 1.763-.194.395-.304.89-.346 1.427-.065.28-.102.571-.102.872h.007c-.259.055-.371.61-.262 1.25.099.587.349 1.043.58 1.076.294.837.757 1.651 1.332 2.245.324.337.685.603 1.07.766.264.11.54.172.822.172a2.13 2.13 0 0 0 .822-.172c.398-.168.77-.447 1.103-.801.56-.594 1.013-1.394 1.3-2.216.221-.069.453-.509.548-1.069.1-.612.003-1.142-.219-1.23zm-.373 1.312c-.052.31-.167.567-.288.677-.048.042-.099.064-.147.055-.027-.003-.052-.018-.073-.041-.266.878-.772 1.754-1.412 2.284-.381.317-.811.512-1.264.512-.443 0-.864-.186-1.239-.491-.652-.528-1.168-1.415-1.437-2.305-.022.021-.047.035-.073.039-.055.011-.114-.018-.169-.078-.114-.12-.216-.362-.266-.652l-.008-.057.023-.596c.025-.075.055-.133.097-.165.017-.014.037-.021.057-.025.045-.009.094.011.14.05.017-.177.226-1.628 1.539-1.498 0 0 1.153.45 2.203.053h.324c.435.018.732.257 1.045.41-.012-.153-.122-.307-.117-.41a.62.62 0 0 1 .139.062c.224.253.441.679.615 1.374l.005.004c.045-.037.092-.055.137-.046a.12.12 0 0 1 .033.011c.142.073.204.429.135.833zm4.102 9.11H27.503a8.7 8.7 0 0 1 .311-1.968l.04-.142.055-.177.008-.02v-.002-.002c.821-2.326 2.106-2.419 2.398-2.491.624-.154 1.377-.089 1.78-.222.047.419 1.197 1.798 1.949 2.661l.321-1.339c-.241-.154-.292-.489-.292-.77h1.237c0 .282-.052.621-.299.773l.326 1.335c.754-.864 1.902-2.243 1.949-2.661.403.133 1.158.067 1.78.222.292.073 1.576.163 2.397 2.482l.065.191v.002l.042.156c.147.562.269 1.152.331 1.732a1.97 1.97 0 0 1 .027.238z" class="C"/><rect x="46" y="16.869" width="14.565" height="17" rx=".987" class="B"/><rect x="46" y="16.869" width="14.565" height="17" rx=".987" class="D"/><path d="M56.763 23.239l.013-.454c-.005-2.207-1.225-3.491-3.151-3.628-1.678-.119-2.942.587-3.518 1.762-.194.395-.304.89-.346 1.427-.065.28-.102.571-.102.872h.007c-.259.055-.371.61-.262 1.25.099.587.349 1.043.58 1.076.294.837.757 1.651 1.332 2.245.324.337.685.603 1.07.766.264.11.54.172.822.172s.558-.062.822-.172c.398-.168.77-.447 1.103-.801.56-.594 1.013-1.394 1.3-2.216.221-.069.453-.509.548-1.069.1-.612.003-1.142-.219-1.231zm-.373 1.312c-.052.31-.167.567-.288.677-.048.043-.099.064-.147.055-.027-.003-.052-.018-.074-.041-.266.878-.772 1.754-1.412 2.284-.381.317-.811.512-1.264.512-.443 0-.864-.186-1.239-.491-.652-.528-1.168-1.415-1.437-2.305-.022.021-.047.035-.074.039-.055.011-.114-.018-.169-.078-.114-.121-.216-.362-.266-.652l-.008-.057.023-.596c.025-.074.055-.133.097-.165.017-.014.037-.021.057-.025.045-.009.094.011.14.05.017-.177.226-1.628 1.539-1.498 0 0 1.153.45 2.203.053h.324c.434.018.732.257 1.044.41-.012-.152-.122-.307-.117-.41a.62.62 0 0 1 .139.062c.224.254.441.679.615 1.374l.005.003c.045-.037.092-.055.137-.046.012.002.022.005.033.011.142.073.204.429.135.833zm4.102 9.111H46.068a8.7 8.7 0 0 1 .311-1.968l.04-.142.055-.177.008-.02v-.002-.002c.821-2.326 2.106-2.419 2.398-2.491.623-.154 1.377-.089 1.78-.222.047.418 1.197 1.798 1.949 2.661l.321-1.339c-.241-.154-.292-.489-.292-.77h1.237c0 .282-.052.621-.299.773l.326 1.335c.754-.864 1.902-2.243 1.949-2.661.403.133 1.158.067 1.78.222.292.073 1.576.163 2.397 2.482l.065.191v.002l.042.156a11.92 11.92 0 0 1 .331 1.732 1.94 1.94 0 0 1 .027.238z" class="C"/><g clip-path="url(#D)"><rect x="45.5" y="37.5" width="15.565" height="16" rx="1.487" class="B"/><g class="C"><path d="M56.763 43.359l.013-.428c-.005-2.081-1.225-3.291-3.151-3.42-1.678-.112-2.942.553-3.518 1.661-.194.373-.304.839-.346 1.345a3.42 3.42 0 0 0-.102.822h.007c-.259.052-.371.575-.262 1.178.099.553.349.983.58 1.014.294.789.757 1.556 1.332 2.116.324.318.685.568 1.07.722.264.104.54.162.822.162s.558-.059.822-.162a3.31 3.31 0 0 0 1.103-.755c.56-.56 1.013-1.314 1.3-2.089.221-.065.453-.48.548-1.008.1-.577.003-1.076-.219-1.16zm-.373 1.237c-.052.292-.167.535-.287.638-.048.04-.099.06-.147.052-.027-.003-.052-.017-.074-.038-.266.827-.772 1.653-1.412 2.153-.381.299-.811.483-1.264.483-.443 0-.864-.175-1.239-.463-.652-.498-1.168-1.334-1.437-2.173-.022.02-.047.033-.073.037-.055.01-.114-.017-.169-.074-.114-.114-.216-.341-.266-.615l-.008-.053.023-.562c.025-.07.055-.125.097-.155.017-.013.037-.02.057-.023.045-.008.094.01.14.047.017-.167.226-1.534 1.539-1.412 0 0 1.153.425 2.203.05h.324c.435.017.732.242 1.045.386-.012-.144-.122-.289-.117-.386a.64.64 0 0 1 .139.059c.224.239.441.64.615 1.295l.005.003c.045-.035.092-.052.137-.043.012.002.022.005.033.01.142.069.204.404.135.786zm4.102 8.588H46.068c.032-.63.125-1.228.311-1.855l.04-.134.055-.167.008-.018v-.002-.002c.821-2.193 2.106-2.28 2.398-2.348.623-.145 1.377-.084 1.78-.209.047.394 1.197 1.695 1.949 2.509l.321-1.262c-.241-.145-.292-.461-.292-.725h1.237c0 .266-.052.585-.299.729l.326 1.259c.754-.814 1.902-2.114 1.949-2.509.403.125 1.158.064 1.78.209.292.069 1.576.154 2.397 2.34l.065.181v.002l.042.147a10.66 10.66 0 0 1 .331 1.633 1.73 1.73 0 0 1 .027.224z"/></g></g><rect x="46" y="38" width="14.565" height="15" rx=".987" class="D"/><g clip-path="url(#E)"><rect x="64.065" y="16.369" width="15.565" height="16" rx="1.487" class="B"/><g class="C"><path d="M75.328 22.229l.013-.428c-.005-2.081-1.225-3.291-3.15-3.42-1.678-.112-2.942.553-3.518 1.661-.194.373-.304.839-.346 1.346a3.42 3.42 0 0 0-.102.822h.007c-.259.052-.371.575-.262 1.178.099.553.349.983.58 1.015.294.789.757 1.556 1.332 2.116.324.318.685.568 1.07.722.264.104.54.162.822.162s.558-.059.822-.162a3.32 3.32 0 0 0 1.103-.755c.56-.56 1.013-1.314 1.3-2.089.221-.065.453-.48.548-1.008.1-.577.003-1.076-.219-1.16zm-.373 1.237c-.052.292-.167.535-.287.638-.048.04-.099.06-.147.052-.027-.003-.052-.017-.074-.038-.266.827-.772 1.653-1.412 2.153-.381.299-.811.483-1.263.483-.443 0-.864-.175-1.239-.463-.652-.498-1.168-1.334-1.437-2.173-.022.02-.047.033-.074.037-.055.01-.114-.017-.169-.074-.114-.114-.216-.341-.266-.615l-.008-.054.023-.562c.025-.07.055-.125.097-.155.017-.013.037-.02.057-.023.045-.008.094.01.14.047.017-.167.226-1.534 1.539-1.412 0 0 1.153.424 2.203.05h.324c.435.017.732.242 1.045.386-.012-.144-.122-.289-.117-.386.05.013.095.035.139.058.224.239.441.64.615 1.295l.005.003c.045-.035.092-.052.137-.043.012.002.022.005.033.01.142.069.204.405.135.786zm4.103 8.587H64.634c.032-.63.125-1.228.311-1.855l.04-.134.055-.167.008-.018v-.002-.002c.821-2.193 2.106-2.28 2.398-2.348.623-.145 1.377-.084 1.78-.209.047.394 1.197 1.695 1.949 2.509l.321-1.262c-.241-.145-.293-.461-.293-.725h1.237c0 .266-.052.585-.299.729l.326 1.259c.754-.814 1.902-2.114 1.949-2.509.403.125 1.158.064 1.78.209.293.069 1.576.154 2.397 2.34l.065.18v.002l.042.147c.147.53.269 1.086.331 1.633a1.73 1.73 0 0 1 .027.224z"/></g></g><rect x="64.565" y="16.869" width="14.565" height="15" rx=".987" class="D"/><g clip-path="url(#F)"><rect x="64.065" y="35.5" width="15.565" height="18" rx="1.487" class="B"/><g class="C"><path d="M75.329 42.37l.013-.454c-.005-2.208-1.225-3.491-3.151-3.628-1.678-.119-2.942.587-3.518 1.763-.194.395-.304.89-.346 1.427-.065.28-.102.571-.102.872h.007c-.259.055-.371.61-.262 1.25.099.587.349 1.043.58 1.076.294.837.757 1.651 1.332 2.245.324.337.685.603 1.07.766.264.11.54.172.822.172s.558-.062.822-.172c.398-.168.77-.447 1.103-.801.56-.594 1.013-1.394 1.3-2.216.221-.069.453-.509.548-1.069.1-.612.003-1.142-.219-1.23zm-.373 1.312c-.052.31-.167.567-.288.677-.048.042-.099.064-.147.055-.027-.003-.052-.018-.074-.041-.266.878-.772 1.754-1.412 2.284-.381.317-.811.512-1.264.512-.443 0-.864-.186-1.238-.491-.652-.528-1.168-1.415-1.437-2.305-.022.021-.047.035-.073.039-.055.011-.114-.018-.169-.078-.114-.12-.216-.362-.266-.652l-.008-.057.023-.596c.025-.075.055-.133.097-.165.017-.014.037-.021.057-.025.045-.009.094.011.14.05.017-.177.226-1.628 1.539-1.498 0 0 1.153.45 2.203.053h.324c.434.018.732.257 1.045.41-.012-.153-.122-.307-.117-.41a.62.62 0 0 1 .139.062c.224.253.441.679.615 1.374l.005.004c.045-.037.092-.055.137-.046a.12.12 0 0 1 .033.011c.142.073.204.429.135.833zm4.102 9.11H64.634a8.7 8.7 0 0 1 .311-1.968l.04-.142.055-.177.008-.02v-.002-.002c.821-2.326 2.106-2.419 2.398-2.491.623-.154 1.377-.089 1.78-.222.047.419 1.197 1.798 1.949 2.661l.321-1.339c-.241-.154-.293-.489-.293-.77h1.237c0 .282-.052.621-.299.773l.326 1.335c.754-.864 1.902-2.243 1.949-2.661.403.133 1.158.067 1.78.222.293.073 1.576.163 2.397 2.482l.065.191v.002l.042.156c.147.562.269 1.152.331 1.732a1.97 1.97 0 0 1 .027.238z"/></g></g><g class="D"><rect x="64.565" y="36" width="14.565" height="17" rx=".987"/><rect x="14.25" y="6.75" width="11.5" height="5.5" rx=".75" class="C E"/></g><rect x="17" y="8.75" width="6" height="1.5" rx=".75" class="B"/><rect x="30.25" y="6.75" width="21.5" height="5.5" rx=".75" class="C D E"/><rect x="34" y="8.75" width="14" height="1.5" rx=".75" class="B"/><rect x="56.25" y="6.75" width="17.5" height="5.5" rx=".75" class="C D E"/><rect x="59" y="8.75" width="12" height="1.5" rx=".75" class="B"/><defs><clipPath id="A"><rect x="8.37" y="16.369" width="15.565" height="18" rx="1.487" class="B"/></clipPath><clipPath id="B"><rect x="8.37" y="37.5" width="15.565" height="16" rx="1.487" class="B"/></clipPath><clipPath id="C"><rect x="26.935" y="16.369" width="15.565" height="16" rx="1.487" class="B"/></clipPath><clipPath id="D"><rect x="45.5" y="37.5" width="15.565" height="16" rx="1.487" class="B"/></clipPath><clipPath id="E"><rect x="64.065" y="16.369" width="15.565" height="16" rx="1.487" class="B"/></clipPath><clipPath id="F"><rect x="64.065" y="35.5" width="15.565" height="18" rx="1.487" class="B"/></clipPath></defs></svg>