<svg xmlns="http://www.w3.org/2000/svg" xmlns:xlink="http://www.w3.org/1999/xlink" width="88" height="60" fill="none"><style><![CDATA[.B{fill:#fff}.C{stroke:#58707f}.D{stroke-width:.95}.E{fill:#58707f}]]></style><rect x=".6" y=".6" width="86.8" height="58.8" rx="2.4" class="B"/><rect x=".6" y=".6" width="86.8" height="58.8" rx="2.4" stroke="#8796a1" stroke-width="1.2"/><rect x="12.475" y="9.475" width="17.05" height="18.05" rx=".792" class="B"/><rect x="12.475" y="9.475" width="17.05" height="18.05" rx=".792" class="C D"/><g class="E"><path d="M25.028 16.173l.015-.495c-.006-2.406-1.417-3.806-3.643-3.954-1.94-.13-3.402.64-4.068 1.921-.224.431-.352.97-.4 1.556-.075.305-.118.622-.118.951h.008c-.3.06-.429.665-.303 1.363.114.64.404 1.136.671 1.173.34.912.876 1.799 1.54 2.447.375.367.792.657 1.237.835.305.12.624.188.951.188s.646-.068.951-.187c.46-.184.891-.487 1.276-.874.648-.648 1.171-1.519 1.504-2.416.255-.075.524-.555.634-1.165.116-.667.004-1.245-.253-1.341zm-.431 1.43c-.06.338-.193.619-.332.738-.056.046-.114.07-.17.06-.031-.004-.06-.019-.085-.045-.307.957-.893 1.912-1.633 2.49-.441.346-.937.559-1.461.559-.512 0-.999-.203-1.432-.535-.754-.576-1.351-1.542-1.662-2.513-.025.023-.054.039-.085.043-.064.012-.131-.019-.195-.085-.131-.131-.249-.394-.307-.711l-.01-.062.027-.649c.029-.081.064-.145.112-.18a.14.14 0 0 1 .066-.027c.052-.01.108.012.162.054.019-.193.261-1.774 1.78-1.633 0 0 1.334.491 2.547.058h.375c.503.019.847.28 1.208.446-.014-.166-.141-.334-.135-.446.058.015.11.041.16.068.259.276.51.74.711 1.498l.006.004c.052-.041.106-.06.159-.05.014.002.025.006.039.012.164.079.236.468.157.909z"/><use xlink:href="#B"/></g><rect x="35.475" y="9.475" width="17.05" height="18.05" rx=".792" class="B"/><rect x="35.475" y="9.475" width="17.05" height="18.05" rx=".792" class="C D"/><g class="E"><path d="M48.028 16.173l.015-.495c-.006-2.406-1.417-3.806-3.643-3.954-1.94-.13-3.402.64-4.068 1.921-.224.431-.352.97-.4 1.556-.075.305-.118.622-.118.951h.008c-.3.06-.429.665-.303 1.363.114.64.404 1.136.671 1.173.34.912.876 1.799 1.541 2.447.375.367.792.657 1.237.835.305.12.624.188.951.188s.646-.068.951-.187c.46-.184.891-.487 1.276-.874.648-.648 1.171-1.519 1.504-2.416.255-.075.524-.555.634-1.165.116-.667.004-1.245-.253-1.341zm-.431 1.43c-.06.338-.193.619-.332.738-.056.046-.114.07-.17.06-.031-.004-.06-.019-.085-.045-.307.957-.893 1.912-1.633 2.49-.441.346-.937.559-1.461.559-.512 0-.999-.203-1.432-.535-.754-.576-1.351-1.542-1.662-2.513-.025.023-.054.039-.085.043-.064.012-.131-.019-.195-.085-.131-.131-.249-.394-.307-.711l-.01-.062.027-.649c.029-.081.064-.145.112-.18a.14.14 0 0 1 .066-.027c.052-.01.108.012.162.054.019-.193.261-1.774 1.78-1.633 0 0 1.334.491 2.547.058h.375c.502.019.846.28 1.208.446-.014-.166-.141-.334-.135-.446.058.015.11.041.16.068.259.276.51.74.711 1.498l.006.004c.052-.041.106-.06.158-.05.014.002.025.006.039.012.164.079.236.468.156.909z"/><use xlink:href="#C"/></g><rect x="58.475" y="9.475" width="17.05" height="18.05" rx=".792" class="B"/><rect x="58.475" y="9.475" width="17.05" height="18.05" rx=".792" class="C D"/><g class="E"><path d="M71.028 16.173l.015-.495c-.006-2.406-1.417-3.806-3.643-3.954-1.94-.13-3.402.64-4.068 1.921-.224.431-.352.97-.4 1.556-.075.305-.118.622-.118.951h.008c-.3.06-.429.665-.303 1.363.114.64.404 1.136.671 1.173.34.912.876 1.799 1.541 2.447.375.367.792.657 1.237.835.305.12.624.188.951.188s.646-.068.951-.187c.46-.184.891-.487 1.276-.874.648-.648 1.171-1.519 1.504-2.416.255-.075.524-.555.634-1.165.116-.667.004-1.245-.253-1.341zm-.431 1.43c-.06.338-.193.619-.332.738-.056.046-.114.07-.17.06-.031-.004-.06-.019-.085-.045-.307.957-.893 1.912-1.633 2.49-.441.346-.937.559-1.461.559-.512 0-.999-.203-1.432-.535-.754-.576-1.351-1.542-1.662-2.513-.025.023-.054.039-.085.043-.064.012-.131-.019-.195-.085-.131-.131-.249-.394-.307-.711l-.01-.062.027-.649c.029-.081.064-.145.112-.18a.14.14 0 0 1 .066-.027c.052-.01.108.012.162.054.019-.193.261-1.774 1.78-1.633 0 0 1.334.491 2.547.058h.375c.502.019.846.28 1.208.446-.013-.166-.141-.334-.135-.446.058.015.11.041.16.068.259.276.51.74.711 1.498l.006.004c.052-.041.106-.06.159-.05.014.002.025.006.039.012.164.079.236.468.156.909z"/><use xlink:href="#D"/></g><rect x="12.475" y="32.475" width="17.05" height="18.05" rx=".792" class="B"/><rect x="12.475" y="32.475" width="17.05" height="18.05" rx=".792" class="C D"/><g class="E"><path d="M25.028 39.173l.015-.495c-.006-2.406-1.417-3.806-3.643-3.955-1.94-.13-3.402.64-4.068 1.921-.224.431-.352.97-.4 1.556-.075.305-.118.622-.118.951h.008c-.3.06-.429.665-.303 1.363.114.64.404 1.137.671 1.173.34.912.876 1.799 1.54 2.447.375.367.792.657 1.237.835.305.12.624.188.951.188s.646-.068.951-.187c.46-.184.891-.487 1.276-.874.648-.648 1.171-1.519 1.504-2.416.255-.075.524-.555.634-1.166.116-.667.004-1.245-.253-1.341zm-.431 1.43c-.06.338-.193.618-.332.738-.056.046-.114.07-.17.06-.031-.004-.06-.019-.085-.044-.307.957-.893 1.912-1.633 2.489-.441.346-.937.559-1.461.559-.512 0-.999-.203-1.432-.535-.754-.576-1.351-1.542-1.662-2.513-.025.023-.054.039-.085.043-.064.012-.131-.019-.195-.085-.131-.131-.249-.394-.307-.711l-.01-.062.027-.649c.029-.081.064-.145.112-.18a.14.14 0 0 1 .066-.027c.052-.01.108.012.162.054.019-.193.261-1.774 1.78-1.633 0 0 1.334.491 2.547.058h.375c.503.019.847.28 1.208.446-.014-.166-.141-.334-.135-.446.058.015.11.041.16.068.259.276.51.74.711 1.498l.006.004c.052-.041.106-.06.159-.05.014.002.025.006.039.012.164.079.236.468.157.909z"/><use xlink:href="#B" y="23"/></g><rect x="35.475" y="32.475" width="17.05" height="18.05" rx=".792" class="B"/><rect x="35.475" y="32.475" width="17.05" height="18.05" rx=".792" class="C D"/><g class="E"><path d="M48.028 39.173l.015-.495c-.006-2.406-1.417-3.806-3.643-3.955-1.94-.13-3.402.64-4.068 1.921-.224.431-.352.97-.4 1.556-.075.305-.118.622-.118.951h.008c-.3.06-.429.665-.303 1.363.114.64.404 1.137.671 1.173.34.912.876 1.799 1.541 2.447.375.367.792.657 1.237.835.305.12.624.188.951.188s.646-.068.951-.187c.46-.184.891-.487 1.276-.874.648-.648 1.171-1.519 1.504-2.416.255-.075.524-.555.634-1.166.116-.667.004-1.245-.253-1.341zm-.431 1.43c-.06.338-.193.618-.332.738-.056.046-.114.07-.17.06-.031-.004-.06-.019-.085-.044-.307.957-.893 1.912-1.633 2.489-.441.346-.937.559-1.461.559-.512 0-.999-.203-1.432-.535-.754-.576-1.351-1.542-1.662-2.513-.025.023-.054.039-.085.043-.064.012-.131-.019-.195-.085-.131-.131-.249-.394-.307-.711l-.01-.062.027-.649c.029-.081.064-.145.112-.18a.14.14 0 0 1 .066-.027c.052-.01.108.012.162.054.019-.193.261-1.774 1.78-1.633 0 0 1.334.491 2.547.058h.375c.502.019.846.28 1.208.446-.014-.166-.141-.334-.135-.446.058.015.11.041.16.068.259.276.51.74.711 1.498l.006.004c.052-.041.106-.06.158-.05.014.002.025.006.039.012.164.079.236.468.156.909z"/><use xlink:href="#C" y="23"/></g><rect x="58.475" y="32.475" width="17.05" height="18.05" rx=".792" class="B"/><rect x="58.475" y="32.475" width="17.05" height="18.05" rx=".792" class="C D"/><g class="E"><path d="M71.028 39.173l.015-.495c-.006-2.406-1.417-3.806-3.643-3.955-1.94-.13-3.402.64-4.068 1.921-.224.431-.352.97-.4 1.556-.075.305-.118.622-.118.951h.008c-.3.06-.429.665-.303 1.363.114.64.404 1.137.671 1.173.34.912.876 1.799 1.541 2.447.375.367.792.657 1.237.835.305.12.624.188.951.188s.646-.068.951-.187c.46-.184.891-.487 1.276-.874.648-.648 1.171-1.519 1.504-2.416.255-.075.524-.555.634-1.166.116-.667.004-1.245-.253-1.341zm-.431 1.43c-.06.338-.193.618-.332.738-.056.046-.114.07-.17.06-.031-.004-.06-.019-.085-.044-.307.957-.893 1.912-1.633 2.489-.441.346-.937.559-1.461.559-.512 0-.999-.203-1.432-.535-.754-.576-1.351-1.542-1.662-2.513-.025.023-.054.039-.085.043-.064.012-.131-.019-.195-.085-.131-.131-.249-.394-.307-.711l-.01-.062.027-.649c.029-.081.064-.145.112-.18a.14.14 0 0 1 .066-.027c.052-.01.108.012.162.054.019-.193.261-1.774 1.78-1.633 0 0 1.334.491 2.547.058h.375c.502.019.846.28 1.208.446-.013-.166-.141-.334-.135-.446.058.015.11.041.16.068.259.276.51.74.711 1.498l.006.004c.052-.041.106-.06.159-.05.014.002.025.006.039.012.164.079.236.468.156.909z"/><use xlink:href="#D" y="23"/></g><path d="M80 34l4-4-4-4M8 26l-4 4 4 4" stroke="#718491" stroke-width="1.8" stroke-linecap="round" stroke-linejoin="round"/><defs ><path id="B" d="M29.34 27.534H12.66a8.99 8.99 0 0 1 .36-2.145l.046-.155.064-.193.01-.021v-.004c.949-2.536 2.435-2.636 2.774-2.716.721-.168 1.593-.097 2.058-.242.054.456 1.384 1.96 2.254 2.901l.371-1.459c-.278-.168-.338-.533-.338-.839h1.43c0 .307-.06.676-.346.843l.377 1.455c.872-.941 2.2-2.445 2.254-2.901.466.145 1.339.073 2.058.242.338.079 1.823.178 2.772 2.706l.075.209v.002l.048.17c.17.613.311 1.256.383 1.888.017.087.025.174.031.259z"/><path id="C" d="M52.34 27.534H35.66a8.99 8.99 0 0 1 .359-2.145l.046-.155.064-.193.01-.021v-.004c.949-2.536 2.435-2.636 2.773-2.716.721-.168 1.593-.097 2.059-.242.054.456 1.384 1.96 2.254 2.901l.371-1.459c-.278-.168-.338-.533-.338-.839h1.43c0 .307-.06.676-.346.843l.377 1.455c.872-.941 2.2-2.445 2.254-2.901.466.145 1.339.073 2.058.242.338.079 1.823.178 2.772 2.706l.075.209v.002l.048.17c.17.613.311 1.256.383 1.888.017.087.025.174.031.259z"/><path id="D" d="M75.34 27.534H58.66a8.99 8.99 0 0 1 .359-2.145l.046-.155.064-.193.01-.021v-.004c.949-2.536 2.435-2.636 2.773-2.716.721-.168 1.593-.097 2.059-.242.054.456 1.384 1.96 2.254 2.901l.371-1.459c-.278-.168-.338-.533-.338-.839h1.43c0 .307-.06.676-.346.843l.377 1.455c.872-.941 2.2-2.445 2.254-2.901.466.145 1.339.073 2.058.242.338.079 1.823.178 2.772 2.706l.075.209v.002l.048.17c.17.613.311 1.256.383 1.888.017.087.025.174.031.259z"/></defs></svg>