<svg xmlns="http://www.w3.org/2000/svg" xmlns:xlink="http://www.w3.org/1999/xlink" width="88" height="60" fill="none" ><rect x=".6" y=".6" width="86.8" height="58.8" rx="2.4" fill="#fff"/><rect x=".6" y=".6" width="86.8" height="58.8" rx="2.4" stroke="#8796a1" stroke-width="1.2"/><rect x="8" y="11" width="23.667" height="37.472" rx=".986" fill="#fff"/><g fill="#58707f"><rect x="11.944" y="35.451" width="16.136" height="1.681" rx=".84"/><rect x="15.978" y="38.477" width="8.068" height="1.345" rx=".672"/><path d="M16.918 41.525h-2.641a.36.36 0 0 0-.36.36v2.641a.36.36 0 0 0 .36.36h1.03v-1.143h-.473v-.538h.473v-.41c0-.466.278-.724.703-.724a2.86 2.86 0 0 1 .417.036v.458h-.235c-.231 0-.303.143-.303.291v.349h.516l-.082.538h-.434v1.143h1.03a.36.36 0 0 0 .36-.36v-2.641a.36.36 0 0 0-.36-.36zm4.707 0h-2.641a.36.36 0 0 0-.36.36v2.641a.36.36 0 0 0 .36.36h2.641a.36.36 0 0 0 .36-.36v-2.641a.36.36 0 0 0-.36-.36zm-.367 1.192l.002.064c0 .651-.495 1.4-1.4 1.4-.279 0-.538-.081-.756-.221.04.005.078.006.118.006a.99.99 0 0 0 .611-.21c-.216-.005-.398-.146-.46-.342a.53.53 0 0 0 .222-.009.49.49 0 0 1-.394-.483v-.006a.49.49 0 0 0 .222.062.49.49 0 0 1-.219-.41c0-.091.024-.175.067-.248.242.299.606.494 1.015.515-.07-.334.18-.605.48-.605a.49.49 0 0 1 .359.155c.111-.021.218-.062.312-.119a.49.49 0 0 1-.216.271.98.98 0 0 0 .284-.077 1.05 1.05 0 0 1-.247.255z"/><use xlink:href="#C"/></g><g clip-path="url(#A)"><rect x="10.958" y="14.451" width="17.75" height="18.736" rx=".986" fill="#fff"/><g fill="#58707f"><path d="M23.805 21.525l.015-.488c-.006-2.373-1.397-3.753-3.593-3.9-1.914-.128-3.355.631-4.012 1.895-.221.425-.347.957-.395 1.534a3.9 3.9 0 0 0-.116.938h.008c-.295.059-.423.656-.299 1.344.113.631.398 1.121.661 1.157.335.9.863 1.774 1.519 2.413.37.362.781.648 1.22.823a2.56 2.56 0 0 0 .938.185 2.56 2.56 0 0 0 .938-.185c.454-.181.879-.48 1.258-.861.639-.639 1.155-1.498 1.483-2.383.252-.074.517-.547.625-1.149.114-.657.004-1.227-.25-1.323zm-.425 1.41c-.059.334-.191.61-.328.728-.055.046-.112.069-.168.059-.03-.004-.059-.019-.084-.044-.303.944-.881 1.885-1.61 2.455-.435.341-.924.551-1.441.551-.505 0-.985-.2-1.412-.528-.743-.568-1.332-1.521-1.639-2.478-.025.023-.053.038-.084.042-.063.011-.13-.019-.192-.084-.13-.13-.246-.389-.303-.701l-.009-.061.027-.64c.029-.08.063-.143.111-.177.019-.015.042-.023.065-.027.052-.009.107.011.16.053.019-.191.257-1.75 1.755-1.611 0 0 1.315.484 2.512.057h.37c.496.019.835.276 1.191.44-.013-.164-.139-.33-.133-.44a.73.73 0 0 1 .158.067c.255.273.503.73.701 1.477l.006.004c.051-.04.105-.059.156-.049.013.002.025.006.038.011.162.078.233.461.154.896zm4.677 9.793H11.609c.036-.718.143-1.401.354-2.116l.046-.152.063-.191.009-.021v-.002-.002c.936-2.501 2.402-2.6 2.735-2.678.711-.166 1.57-.095 2.03-.238.053.45 1.365 1.933 2.222 2.861l.366-1.439c-.274-.166-.334-.526-.334-.827h1.41c0 .303-.059.667-.341.831l.372 1.435c.86-.928 2.169-2.411 2.222-2.861.459.143 1.321.072 2.03.238.334.078 1.797.175 2.733 2.668l.074.206v.002l.048.168a12.07 12.07 0 0 1 .377 1.862 1.9 1.9 0 0 1 .03.255z"/></g></g><rect x="11.328" y="14.821" width="17.01" height="17.997" rx=".616" stroke="#58707f" stroke-width=".74"/><rect x="31.667" y="11" width="23.667" height="37.472" rx=".986" fill="#fff"/><g fill="#58707f"><rect x="35.611" y="35.451" width="16.136" height="1.681" rx=".84"/><rect x="39.645" y="38.477" width="8.068" height="1.345" rx=".672"/><path d="M40.585 41.525h-2.641a.36.36 0 0 0-.36.36v2.641a.36.36 0 0 0 .36.36h1.03v-1.143h-.473v-.538h.473v-.41c0-.466.278-.724.703-.724a2.89 2.89 0 0 1 .417.036v.458h-.235c-.231 0-.303.143-.303.291v.349h.516l-.083.538h-.434v1.143h1.03a.36.36 0 0 0 .36-.36v-2.641a.36.36 0 0 0-.36-.36zm4.706 0H42.65a.36.36 0 0 0-.36.36v2.641a.36.36 0 0 0 .36.36h2.641a.36.36 0 0 0 .36-.36v-2.641a.36.36 0 0 0-.36-.36zm-.367 1.192l.002.064c0 .651-.495 1.4-1.4 1.4-.279 0-.538-.081-.756-.221.04.005.078.006.118.006a.99.99 0 0 0 .611-.21c-.216-.005-.398-.146-.46-.342a.53.53 0 0 0 .222-.009.49.49 0 0 1-.394-.483v-.006a.49.49 0 0 0 .222.062.49.49 0 0 1-.219-.41c0-.091.024-.175.067-.248.242.299.606.494 1.015.515-.07-.334.18-.605.48-.605a.49.49 0 0 1 .359.155c.111-.021.218-.062.312-.119a.49.49 0 0 1-.216.271.98.98 0 0 0 .284-.077 1.05 1.05 0 0 1-.247.255z"/><use xlink:href="#C" x="23.667"/></g><rect x="34.995" y="14.821" width="17.01" height="17.997" rx=".616" fill="#fff"/><rect x="34.995" y="14.821" width="17.01" height="17.997" rx=".616" stroke="#58707f" stroke-width=".74"/><path d="M47.472 21.525l.015-.488c-.006-2.373-1.397-3.753-3.593-3.9-1.913-.128-3.354.631-4.012 1.895-.221.425-.347.957-.395 1.534a3.9 3.9 0 0 0-.116.938h.008c-.296.059-.423.656-.299 1.344.113.631.398 1.121.661 1.157.335.9.863 1.774 1.519 2.413.37.362.782.648 1.22.823.301.118.616.185.938.185a2.56 2.56 0 0 0 .938-.185c.454-.181.879-.48 1.258-.861.639-.639 1.155-1.498 1.483-2.383.252-.074.517-.547.625-1.149.114-.657.004-1.227-.25-1.323zm-.425 1.41c-.059.334-.191.61-.328.728-.055.046-.112.069-.168.059-.03-.004-.059-.019-.084-.044-.303.944-.881 1.885-1.611 2.455-.435.341-.924.551-1.441.551-.505 0-.985-.2-1.412-.528-.743-.568-1.332-1.521-1.639-2.478-.025.023-.053.038-.084.042-.063.011-.13-.019-.193-.084-.13-.13-.246-.389-.303-.701l-.009-.061.027-.64c.029-.08.063-.143.111-.177.019-.015.042-.023.065-.027.052-.009.107.011.16.053.019-.191.257-1.75 1.755-1.611 0 0 1.315.484 2.512.057h.37c.495.019.835.276 1.191.44-.013-.164-.139-.33-.133-.44.057.015.109.04.158.067.255.273.503.73.701 1.477l.006.004c.052-.04.105-.059.156-.049.013.002.025.006.038.011.162.078.233.461.154.896zm4.677 9.793H35.276c.036-.718.143-1.401.355-2.116l.046-.152.063-.191.01-.021v-.002-.002c.936-2.501 2.401-2.6 2.735-2.678.711-.166 1.571-.095 2.03-.238.053.45 1.365 1.933 2.222 2.861l.366-1.439c-.275-.166-.334-.526-.334-.827h1.41c0 .303-.059.667-.341.831l.372 1.435c.86-.928 2.169-2.411 2.222-2.861.459.143 1.321.072 2.03.238.334.078 1.797.175 2.733 2.668l.074.206v.002l.048.168a12.07 12.07 0 0 1 .377 1.862 2.01 2.01 0 0 1 .03.255z" fill="#58707f"/><rect x="55.333" y="11" width="23.667" height="37.472" rx=".986" fill="#fff"/><g fill="#58707f"><rect x="59.278" y="35.451" width="16.136" height="1.681" rx=".84"/><rect x="63.312" y="38.477" width="8.068" height="1.345" rx=".672"/><path d="M64.251 41.525H61.61a.36.36 0 0 0-.36.36v2.641a.36.36 0 0 0 .36.36h1.03v-1.143h-.473v-.538h.473v-.41c0-.466.278-.724.703-.724a2.89 2.89 0 0 1 .417.036v.458h-.235c-.231 0-.303.143-.303.291v.349h.516l-.083.538h-.434v1.143h1.03a.36.36 0 0 0 .36-.36v-2.641a.36.36 0 0 0-.36-.36zm4.707 0h-2.641a.36.36 0 0 0-.36.36v2.641a.36.36 0 0 0 .36.36h2.641a.36.36 0 0 0 .36-.36v-2.641a.36.36 0 0 0-.36-.36zm-.367 1.192l.002.064c0 .651-.495 1.4-1.4 1.4-.279 0-.538-.081-.756-.221a.94.94 0 0 0 .119.006.99.99 0 0 0 .611-.21c-.216-.005-.398-.146-.46-.342a.53.53 0 0 0 .222-.009.49.49 0 0 1-.394-.483v-.006a.49.49 0 0 0 .222.062.49.49 0 0 1-.219-.41c0-.091.024-.175.067-.248a1.4 1.4 0 0 0 1.015.515c-.07-.334.18-.605.48-.605a.49.49 0 0 1 .359.155c.111-.021.218-.062.312-.119a.49.49 0 0 1-.216.271.98.98 0 0 0 .284-.077 1.05 1.05 0 0 1-.247.255z"/><use xlink:href="#C" x="47.333"/></g><g clip-path="url(#B)"><rect x="58.291" y="14.451" width="17.75" height="18.736" rx=".986" fill="#fff"/><g fill="#58707f"><path d="M71.138 21.525l.015-.488c-.006-2.373-1.397-3.753-3.593-3.9-1.914-.128-3.355.631-4.012 1.895-.221.425-.347.957-.394 1.534a3.92 3.92 0 0 0-.116.938h.008c-.295.059-.423.656-.299 1.344.112.631.398 1.121.661 1.157.335.9.863 1.774 1.519 2.413.37.362.781.648 1.22.823a2.56 2.56 0 0 0 .938.185 2.56 2.56 0 0 0 .938-.185c.454-.181.879-.48 1.258-.861.638-.639 1.155-1.498 1.483-2.383.252-.074.516-.547.625-1.149.114-.657.004-1.227-.25-1.323zm-.425 1.41c-.059.334-.191.61-.328.728-.055.046-.112.069-.168.059-.031-.004-.059-.019-.084-.044-.303.944-.88 1.885-1.611 2.455-.434.341-.924.551-1.441.551-.505 0-.985-.2-1.412-.528-.743-.568-1.332-1.521-1.639-2.478-.025.023-.053.038-.084.042-.063.011-.13-.019-.193-.084-.13-.13-.246-.389-.303-.701l-.01-.061.027-.64c.029-.08.063-.143.111-.177.019-.015.042-.023.065-.027.051-.009.107.011.16.053.019-.191.257-1.75 1.755-1.611 0 0 1.315.484 2.512.057h.37c.495.019.835.276 1.191.44-.013-.164-.139-.33-.133-.44a.73.73 0 0 1 .158.067c.255.273.503.73.701 1.477l.006.004c.051-.04.105-.059.156-.049.013.002.025.006.038.011.162.078.233.461.154.896zm4.677 9.793H58.942c.036-.718.143-1.401.355-2.116l.046-.152.063-.191.01-.021v-.002-.002c.936-2.501 2.401-2.6 2.735-2.678.711-.166 1.57-.095 2.03-.238.053.45 1.365 1.933 2.222 2.861l.366-1.439c-.275-.166-.334-.526-.334-.827h1.41c0 .303-.059.667-.341.831l.372 1.435c.859-.928 2.169-2.411 2.222-2.861.459.143 1.321.072 2.03.238.334.078 1.797.175 2.733 2.668l.074.206v.002l.048.168a12.07 12.07 0 0 1 .377 1.862c.017.086.025.172.031.255z"/></g></g><rect x="58.661" y="14.821" width="17.01" height="17.997" rx=".616" stroke="#58707f" stroke-width=".74"/><path d="M79.5 34l4-4-4-4m-71 0l-4 4 4 4" stroke="#718491" stroke-width="1.8" stroke-linecap="round" stroke-linejoin="round"/><rect x="36" y="50" width="4" height="4" rx="2" fill="#9ea9b2"/><rect x="42" y="50" width="4" height="4" rx="2" fill="#718491"/><rect x="48" y="50" width="4" height="4" rx="2" fill="#9ea9b2"/><defs><clipPath id="A"><rect x="10.958" y="14.451" width="17.75" height="18.736" rx=".986" fill="#fff"/></clipPath><clipPath id="B"><rect x="58.291" y="14.451" width="17.75" height="18.736" rx=".986" fill="#fff"/></clipPath><path id="C" d="M26.451 41.525h-2.882c-.132 0-.239.109-.239.242v2.877c0 .134.107.242.239.242h2.882c.132 0 .24-.109.24-.242v-2.877c0-.134-.108-.242-.24-.242zm-2.106 2.881h-.498v-1.604h.499v1.604h-.001zm-.249-1.823a.29.29 0 0 1-.289-.289.29.29 0 0 1 .289-.289.29.29 0 0 1 .289.289.29.29 0 0 1-.289.289zm2.117 1.823h-.498v-.78c0-.186-.004-.425-.259-.425s-.299.203-.299.412v.794h-.498v-1.604h.478v.219h.007c.067-.126.23-.259.472-.259.504 0 .598.332.598.765v.88z"/></defs></svg>