<svg xmlns="http://www.w3.org/2000/svg" width="88" height="60" fill="none"><style><![CDATA[.B{fill:#fff}.C{fill:#58707f}.D{stroke:#58707f}.E{stroke-width:.6}]]></style><rect x=".6" y=".6" width="86.8" height="58.8" rx="2.4" class="B"/><rect x=".6" y=".6" width="86.8" height="58.8" rx="2.4" stroke="#8796a1" stroke-width="1.2"/><g class="C"><rect x="11.928" y="21.12" width="8.481" height=".883" rx=".442"/><rect x="14.048" y="22.71" width="4.24" height=".707" rx=".353"/></g><g clip-path="url(#A)"><rect x="11.407" y="10.083" width="9.999" height="10" rx="4.999" class="B"/><g class="C"><path d="M18.647 13.635l.009-.275c-.003-1.337-.787-2.114-2.024-2.197-1.078-.072-1.89.355-2.26 1.067-.125.239-.195.539-.222.864-.042.17-.066.346-.066.528h.004c-.166.033-.238.369-.169.757.063.355.224.631.373.652.189.507.486 1 .856 1.359a2.12 2.12 0 0 0 .687.464 1.44 1.44 0 0 0 .528.104 1.44 1.44 0 0 0 .528-.104 2.13 2.13 0 0 0 .709-.485c.36-.36.651-.844.835-1.342.142-.042.291-.308.352-.647.064-.37.002-.691-.141-.745zm-.239.794c-.033.188-.107.344-.185.41-.031.026-.063.039-.095.033-.017-.002-.033-.011-.047-.025-.171.531-.496 1.062-.907 1.383-.245.192-.521.31-.812.31-.285 0-.555-.113-.796-.297-.419-.32-.751-.857-.923-1.396-.014.013-.03.021-.047.024-.035.006-.073-.011-.108-.047-.073-.073-.139-.219-.171-.395l-.005-.034.015-.361c.016-.045.036-.081.062-.1.011-.009.024-.013.037-.015.029-.005.06.006.09.03.011-.107.145-.985.989-.907 0 0 .741.273 1.415.032h.208c.279.011.47.156.671.248-.008-.092-.078-.186-.075-.248a.44.44 0 0 1 .089.038c.144.154.283.411.395.832l.003.002c.029-.023.059-.033.088-.028.008.001.014.003.021.006.091.044.131.26.087.505zm2.634 5.516h-9.265a4.99 4.99 0 0 1 .2-1.192l.026-.086.035-.107.005-.012v-.001-.001c.527-1.409 1.353-1.464 1.541-1.508.4-.093.885-.054 1.143-.134.03.253.769 1.089 1.252 1.611l.206-.811c-.155-.093-.188-.296-.188-.466h.794c0 .171-.033.376-.192.468l.209.808c.484-.523 1.222-1.358 1.252-1.611.259.081.744.041 1.143.134.188.044 1.012.099 1.54 1.503l.042.116v.001l.027.095c.094.34.173.698.212 1.049.01.048.014.097.017.144z"/></g></g><rect x="11.707" y="10.383" width="9.399" height="9.4" rx="4.699" class="D E"/><g class="C"><rect x="24.726" y="21.12" width="8.481" height=".883" rx=".442"/><rect x="26.846" y="22.71" width="4.24" height=".707" rx=".353"/></g><g clip-path="url(#B)"><rect x="24.205" y="10.083" width="9.999" height="10" rx="4.999" class="B"/><g class="C"><path d="M31.445 13.635l.009-.275c-.003-1.337-.787-2.114-2.024-2.197-1.078-.072-1.89.355-2.26 1.067-.125.239-.195.539-.222.864-.042.17-.066.346-.066.528h.004c-.166.033-.238.369-.169.757.063.355.224.631.373.652.189.507.486 1 .856 1.359.208.204.44.365.687.464a1.44 1.44 0 0 0 .528.104 1.44 1.44 0 0 0 .528-.104 2.13 2.13 0 0 0 .709-.485c.36-.36.651-.844.835-1.342.142-.042.291-.308.352-.647.064-.37.002-.691-.141-.745zm-.239.794c-.033.188-.107.344-.185.41-.031.026-.063.039-.095.033-.017-.002-.033-.011-.047-.025-.171.531-.496 1.062-.907 1.383-.245.192-.521.31-.812.31-.284 0-.555-.113-.796-.297-.419-.32-.75-.857-.923-1.396-.014.013-.03.021-.047.024-.035.006-.073-.011-.108-.047-.073-.073-.139-.219-.171-.395l-.005-.034.015-.361c.016-.045.035-.081.062-.1.011-.009.024-.013.037-.015.029-.005.06.006.09.03.011-.107.145-.985.989-.907 0 0 .741.273 1.415.032h.208c.279.011.47.156.671.248-.008-.092-.078-.186-.075-.248a.44.44 0 0 1 .089.038c.144.154.283.411.395.832l.003.002c.029-.023.059-.033.088-.028.008.001.014.003.021.006.091.044.131.26.087.505zm2.635 5.516h-9.265a4.99 4.99 0 0 1 .2-1.192l.026-.086.035-.107.005-.012v-.001-.001c.527-1.409 1.353-1.464 1.541-1.508.4-.093.885-.054 1.143-.134.03.253.769 1.089 1.252 1.611l.206-.811c-.155-.093-.188-.296-.188-.466h.794c0 .171-.033.376-.192.468l.209.808c.484-.523 1.222-1.358 1.252-1.611.259.081.744.041 1.143.134.188.044 1.012.099 1.54 1.503l.042.116v.001l.027.095a6.94 6.94 0 0 1 .213 1.049c.01.048.014.097.017.144z"/></g></g><rect x="24.505" y="10.383" width="9.399" height="9.4" rx="4.699" class="D E"/><g class="C"><rect x="37.786" y="23.305" width="12.721" height="1.325" rx=".663"/><rect x="40.966" y="25.69" width="6.36" height="1.06" rx=".53"/></g><g clip-path="url(#C)"><rect x="37.004" y="6.75" width="13.993" height="13.99" rx="6.995" class="B"/><g class="C"><path d="M47.137 12.326l.012-.385c-.005-1.871-1.101-2.958-2.832-3.074-1.508-.101-2.644.497-3.163 1.493-.174.335-.273.754-.311 1.21-.059.237-.092.484-.092.739h.006c-.233.047-.334.517-.236 1.059.089.497.314.883.521.912.265.709.681 1.399 1.198 1.902a2.97 2.97 0 0 0 .962.649 2.02 2.02 0 0 0 .739.146 2.02 2.02 0 0 0 .739-.146c.358-.143.693-.379.992-.679.503-.503.911-1.181 1.169-1.878.198-.059.407-.431.493-.906.09-.518.003-.968-.197-1.043zm-.335 1.112c-.047.263-.15.481-.258.574-.044.036-.089.054-.132.047a.11.11 0 0 1-.066-.035c-.239.744-.694 1.486-1.27 1.935-.343.269-.729.434-1.136.434-.398 0-.777-.158-1.113-.416-.586-.448-1.05-1.199-1.292-1.953-.02.018-.042.03-.066.033-.05.009-.102-.015-.152-.066-.102-.102-.194-.306-.239-.553l-.008-.048.021-.505c.023-.063.05-.113.087-.14.015-.012.033-.018.051-.021.04-.007.084.009.126.042.015-.15.203-1.379 1.384-1.27 0 0 1.037.382 1.98.045h.291c.391.015.658.218.939.347-.01-.129-.11-.26-.105-.347a.58.58 0 0 1 .125.053c.201.215.397.575.553 1.165l.005.003c.041-.032.083-.047.123-.039.011.002.02.005.03.009.128.062.183.364.122.706zm3.687 7.72H37.522c.029-.567.113-1.104.279-1.668l.036-.12.05-.15.008-.017v-.001-.002c.738-1.971 1.893-2.05 2.156-2.111.56-.131 1.238-.075 1.6-.188.042.355 1.076 1.524 1.752 2.255l.288-1.134c-.216-.131-.263-.415-.263-.652h1.112c0 .239-.047.526-.269.655l.293 1.131c.678-.732 1.71-1.901 1.752-2.255.362.113 1.041.057 1.6.188.263.062 1.417.138 2.155 2.104l.059.162v.002l.038.132c.132.476.242.977.297 1.468a1.41 1.41 0 0 1 .024.201z"/></g></g><rect x="37.379" y="7.125" width="13.243" height="13.24" rx="6.62" stroke-width=".75" class="D"/><g class="C"><rect x="54.318" y="21.12" width="8.481" height=".883" rx=".442"/><rect x="56.438" y="22.71" width="4.24" height=".707" rx=".353"/></g><g clip-path="url(#D)"><rect x="53.796" y="10.083" width="9.999" height="10" rx="4.999" class="B"/><g class="C"><path d="M61.037 13.635l.008-.275c-.003-1.337-.787-2.114-2.024-2.197-1.078-.072-1.89.355-2.26 1.067-.125.239-.195.539-.222.864-.042.17-.066.346-.066.528h.004c-.166.033-.238.369-.169.757.063.355.224.631.373.652.189.507.486 1 .856 1.359.208.204.44.365.687.464a1.44 1.44 0 0 0 .528.104 1.44 1.44 0 0 0 .528-.104 2.13 2.13 0 0 0 .709-.485c.36-.36.651-.844.835-1.342.142-.042.291-.308.352-.647.064-.37.002-.691-.141-.745zm-.239.794c-.033.188-.107.344-.185.41-.031.026-.063.039-.094.033-.017-.002-.033-.011-.047-.025-.171.531-.496 1.062-.907 1.383-.245.192-.521.31-.812.31-.285 0-.555-.113-.795-.297-.419-.32-.751-.857-.923-1.396-.014.013-.03.021-.047.024-.035.006-.073-.011-.108-.047-.073-.073-.139-.219-.171-.395l-.005-.034.015-.361c.016-.045.035-.081.062-.1.011-.009.024-.013.037-.015.029-.005.06.006.09.03.011-.107.145-.985.989-.907 0 0 .741.273 1.415.032h.208c.279.011.47.156.671.248-.008-.092-.078-.186-.075-.248a.44.44 0 0 1 .089.038c.144.154.283.411.395.832l.003.002c.029-.023.059-.033.088-.028a.09.09 0 0 1 .022.006c.091.044.131.26.087.505zm2.634 5.516h-9.265a4.99 4.99 0 0 1 .2-1.192l.026-.086.035-.107.005-.012v-.001-.001c.527-1.409 1.353-1.464 1.541-1.508.401-.093.885-.054 1.143-.134.03.253.769 1.089 1.252 1.611l.206-.811c-.155-.093-.188-.296-.188-.466h.794c0 .171-.033.376-.192.468l.209.808c.484-.523 1.222-1.358 1.252-1.611.259.081.744.041 1.143.134.188.044 1.012.099 1.539 1.503l.042.116v.001l.027.095a6.82 6.82 0 0 1 .213 1.049c.01.048.014.097.017.144z"/></g></g><rect x="54.096" y="10.383" width="9.399" height="9.4" rx="4.699" class="D E"/><g class="C"><rect x="67.116" y="21.12" width="8.481" height=".883" rx=".442"/><rect x="69.236" y="22.71" width="4.24" height=".707" rx=".353"/></g><g clip-path="url(#E)"><rect x="66.595" y="10.083" width="9.999" height="10" rx="4.999" class="B"/><g class="C"><path d="M73.835 13.635l.009-.275c-.003-1.337-.787-2.114-2.024-2.197-1.078-.072-1.89.355-2.26 1.067-.124.239-.195.539-.222.864-.042.17-.066.346-.066.528h.004c-.166.033-.238.369-.169.757.063.355.224.631.373.652.189.507.486 1 .856 1.359.208.204.44.365.687.464a1.44 1.44 0 0 0 .528.104 1.44 1.44 0 0 0 .528-.104 2.13 2.13 0 0 0 .709-.485c.36-.36.651-.844.835-1.342.142-.042.291-.308.352-.647.064-.37.002-.691-.141-.745zm-.239.794c-.033.188-.107.344-.185.41-.031.026-.063.039-.094.033-.017-.002-.033-.011-.047-.025-.171.531-.496 1.062-.907 1.383-.245.192-.521.31-.812.31-.285 0-.555-.113-.796-.297-.419-.32-.75-.857-.923-1.396-.014.013-.03.021-.047.024-.035.006-.073-.011-.108-.047-.073-.073-.138-.219-.171-.395l-.005-.034.015-.361c.016-.045.035-.081.062-.1.011-.009.024-.013.037-.015.029-.005.06.006.09.03.011-.107.145-.985.989-.907 0 0 .741.273 1.415.032h.208c.279.011.47.156.671.248-.008-.092-.078-.186-.075-.248a.44.44 0 0 1 .089.038c.144.154.284.411.395.832l.003.002c.029-.023.059-.033.088-.028a.09.09 0 0 1 .022.006c.091.044.131.26.087.505zm2.634 5.516h-9.265a4.94 4.94 0 0 1 .2-1.192l.026-.086.035-.107.005-.012v-.001-.001c.527-1.409 1.353-1.464 1.541-1.508.4-.093.885-.054 1.143-.134.03.253.769 1.089 1.252 1.611l.206-.811c-.155-.093-.188-.296-.188-.466h.794c0 .171-.033.376-.192.468l.209.808c.484-.523 1.222-1.358 1.252-1.611.259.081.744.041 1.143.134.188.044 1.012.099 1.54 1.503l.042.116v.001l.027.095a6.94 6.94 0 0 1 .213 1.049c.01.048.014.097.017.144z"/></g></g><rect x="66.895" y="10.383" width="9.399" height="9.4" rx="4.699" class="D E"/><g fill="#8796a1"><rect x="20" y="30.75" width="48" height="2" rx="1"/><rect x="20" y="34.75" width="48" height="2" rx="1"/><rect x="20" y="38.75" width="48" height="2" rx="1"/><rect x="28.14" y="42.75" width="31.721" height="2" rx="1"/></g><path d="M39.923 48.75h-3.536a.48.48 0 0 0-.482.482v3.536a.48.48 0 0 0 .482.482h1.379v-1.53h-.633V51h.633v-.549c0-.624.372-.969.941-.969.273 0 .558.049.558.049v.613h-.314c-.309 0-.406.192-.406.389V51h.691l-.111.72h-.58v1.53h1.379c.128 0 .251-.051.341-.141a.48.48 0 0 0 .141-.341v-3.536a.48.48 0 0 0-.141-.341c-.09-.09-.213-.141-.341-.141zm5.845 0h-3.536c-.266 0-.482.216-.482.482v3.536c0 .266.216.482.482.482h3.536c.266 0 .482-.216.482-.482v-3.536c0-.266-.216-.482-.482-.482zm-.491 1.595l.002.085c0 .871-.663 1.874-1.874 1.874-.374 0-.72-.108-1.012-.295a1.39 1.39 0 0 0 .159.008 1.32 1.32 0 0 0 .818-.281.66.66 0 0 1-.616-.457.71.71 0 0 0 .297-.012.66.66 0 0 1-.527-.647v-.008a.66.66 0 0 0 .297.083c-.09-.06-.164-.142-.216-.237a.66.66 0 0 1-.078-.311.65.65 0 0 1 .089-.332 1.87 1.87 0 0 0 1.358.689.66.66 0 0 1 .643-.81c.19 0 .361.079.481.208a1.29 1.29 0 0 0 .418-.159.66.66 0 0 1-.289.363 1.31 1.31 0 0 0 .38-.102c-.089.132-.202.248-.33.342zm6.496-1.595h-3.858c-.177 0-.32.146-.32.324v3.851c0 .179.144.324.32.324h3.858c.177 0 .321-.146.321-.324v-3.851c0-.179-.145-.324-.321-.324zm-2.818 3.857h-.667V50.46h.668v2.148h-.001zm-.334-2.441c-.214 0-.387-.174-.387-.387s.173-.387.387-.387.387.174.387.387-.173.387-.387.387zm2.834 2.441h-.667v-1.045c0-.249-.005-.569-.346-.569-.348 0-.401.271-.401.551v1.063h-.667V50.46h.64v.293h.009c.089-.169.307-.346.632-.346.675 0 .801.445.801 1.024v1.177z" fill="#718491"/><defs><clipPath id="A"><rect x="11.407" y="10.083" width="9.999" height="10" rx="4.999" class="B"/></clipPath><clipPath id="B"><rect x="24.205" y="10.083" width="9.999" height="10" rx="4.999" class="B"/></clipPath><clipPath id="C"><rect x="37.004" y="6.75" width="13.993" height="13.99" rx="6.995" class="B"/></clipPath><clipPath id="D"><rect x="53.796" y="10.083" width="9.999" height="10" rx="4.999" class="B"/></clipPath><clipPath id="E"><rect x="66.595" y="10.083" width="9.999" height="10" rx="4.999" class="B"/></clipPath></defs></svg>