<svg xmlns="http://www.w3.org/2000/svg" width="88" height="60" fill="none" ><style><![CDATA[.B{fill:#fff}.C{fill:#58707f}.D{stroke:#58707f}.E{stroke-width:.712}]]></style><rect x=".6" y=".6" width="86.8" height="58.8" rx="2.4" class="B"/><rect x=".6" y=".6" width="86.8" height="58.8" rx="2.4" stroke="#8796a1" stroke-width="1.2"/><g clip-path="url(#A)"><rect x=".444" y="20" width="17.778" height="30" rx=".949" class="B"/><g class="C"><rect x="1.738" y="40.496" width="15.536" height="1.618" rx=".809"/><rect x="5.622" y="43.409" width="7.768" height="1.295" rx=".647"/><path d="M11.058 46.344H8.515c-.191 0-.347.155-.347.347v2.543c0 .191.155.347.347.347h2.543c.191 0 .347-.155.347-.347V46.69c0-.191-.155-.347-.347-.347zm-.353 1.147l.001.061c0 .626-.477 1.348-1.348 1.348a1.34 1.34 0 0 1-.728-.212c.038.004.075.006.114.006a.95.95 0 0 0 .588-.202c-.208-.004-.383-.141-.443-.329a.51.51 0 0 0 .214-.009c-.217-.044-.379-.235-.379-.465v-.006a.48.48 0 0 0 .214.06.47.47 0 0 1-.155-.171c-.037-.069-.056-.146-.056-.224a.47.47 0 0 1 .064-.239c.233.288.584.475.977.496-.067-.322.173-.582.462-.582a.47.47 0 0 1 .346.15.93.93 0 0 0 .3-.114c-.035.11-.11.202-.208.261a.94.94 0 0 0 .273-.074 1 1 0 0 1-.238.246zm5-1.147H12.93c-.127 0-.23.105-.23.233v2.77c0 .129.103.233.23.233h2.775c.127 0 .231-.105.231-.233v-2.77c0-.129-.104-.233-.231-.233zm-2.027 2.774h-.48v-1.545h.48v1.545h-.001zm-.24-1.756c-.154 0-.278-.125-.278-.278s.124-.278.278-.278a.28.28 0 0 1 .278.278c0 .154-.124.278-.278.278zm2.038 1.756h-.48v-.751c0-.179-.004-.41-.249-.41s-.288.195-.288.397v.764h-.48v-1.545h.46v.211h.007c.064-.121.221-.249.454-.249.486 0 .576.32.576.736v.847z"/></g><g clip-path="url(#B)"><rect x=".789" y="20.278" width="17.09" height="18.039" rx=".949" class="B"/><g class="C"><path d="M13.159 27.088l.015-.47c-.005-2.285-1.345-3.613-3.459-3.754-1.842-.123-3.23.607-3.863 1.824-.213.409-.334.921-.38 1.477-.072.29-.112.591-.112.903h.007c-.284.057-.407.631-.288 1.294.108.607.384 1.079.637 1.114.323.866.831 1.708 1.463 2.323.356.349.752.624 1.174.793a2.46 2.46 0 0 0 .903.178 2.46 2.46 0 0 0 .903-.178c.437-.174.846-.462 1.211-.829.615-.615 1.112-1.442 1.428-2.294.242-.072.497-.527.602-1.107.11-.633.004-1.182-.24-1.273zm-.409 1.358c-.057.321-.184.587-.316.701-.053.044-.108.066-.162.057-.029-.004-.057-.018-.081-.042-.292.908-.848 1.815-1.551 2.364-.418.328-.89.53-1.387.53-.486 0-.949-.193-1.36-.508-.716-.547-1.283-1.464-1.578-2.386-.024.022-.051.037-.081.04-.061.011-.125-.018-.185-.081-.125-.125-.237-.374-.292-.675l-.009-.059.026-.617c.028-.077.061-.138.106-.171.018-.015.04-.022.062-.026.05-.009.103.011.154.051.018-.184.248-1.684 1.69-1.551 0 0 1.266.466 2.419.055h.356c.477.018.804.266 1.147.424-.013-.158-.134-.318-.128-.424.055.015.105.038.152.064.246.262.484.703.675 1.422l.006.004c.049-.038.101-.057.15-.048a.14.14 0 0 1 .037.011c.156.075.224.444.149.863zm4.503 9.429H1.417a8.54 8.54 0 0 1 .341-2.037l.044-.147.061-.184.009-.02v-.002-.002c.901-2.407 2.312-2.503 2.633-2.578.684-.16 1.512-.092 1.954-.229.051.433 1.314 1.861 2.14 2.754l.352-1.385c-.264-.16-.321-.506-.321-.796h1.358c0 .292-.057.642-.328.8l.358 1.382c.828-.894 2.088-2.321 2.14-2.754.442.138 1.272.07 1.954.229.321.075 1.73.169 2.631 2.569l.072.198v.002l.046.162a11.71 11.71 0 0 1 .363 1.793 1.91 1.91 0 0 1 .029.246z"/></g></g><rect x="1.145" y="20.634" width="16.377" height="17.327" rx=".593" class="D E"/><rect x="23.222" y="20" width="17.778" height="30" rx=".949" class="B"/><g class="C"><rect x="24.516" y="40.496" width="15.536" height="1.618" rx=".809"/><rect x="28.4" y="43.409" width="7.768" height="1.295" rx=".647"/><path d="M29.304 46.344h-2.543c-.092 0-.18.037-.245.102s-.102.153-.102.245v2.543c0 .092.037.18.102.245s.153.102.245.102h.992v-1.1h-.455v-.518h.455v-.395c0-.449.267-.697.677-.697.196 0 .401.035.401.035v.441h-.226c-.223 0-.292.138-.292.28v.336h.497l-.079.518h-.418v1.1h.992c.092 0 .18-.037.245-.102s.102-.153.102-.245V46.69c0-.092-.037-.18-.102-.245s-.153-.102-.245-.102zm4.532 0h-2.543c-.191 0-.347.155-.347.347v2.543c0 .191.155.347.347.347h2.543c.191 0 .347-.155.347-.347V46.69c0-.191-.155-.347-.347-.347zm-.353 1.147l.001.061c0 .626-.477 1.348-1.348 1.348a1.34 1.34 0 0 1-.728-.212c.038.004.075.006.114.006a.95.95 0 0 0 .588-.202c-.208-.004-.383-.141-.443-.329a.51.51 0 0 0 .214-.009c-.217-.044-.379-.235-.379-.465v-.006a.48.48 0 0 0 .214.06.47.47 0 0 1-.155-.171c-.037-.069-.056-.146-.056-.224a.47.47 0 0 1 .064-.239c.233.288.584.475.977.496-.067-.322.173-.582.462-.582a.47.47 0 0 1 .346.15.93.93 0 0 0 .301-.114c-.035.11-.11.202-.208.261a.94.94 0 0 0 .273-.074c-.064.095-.145.178-.238.246zm5-1.147h-2.775c-.127 0-.23.105-.23.233v2.77c0 .129.103.233.23.233h2.775c.127 0 .231-.105.231-.233v-2.77c0-.129-.104-.233-.231-.233zm-2.027 2.774h-.48v-1.545h.48v1.545h-.001zm-.24-1.756c-.154 0-.278-.125-.278-.278s.124-.278.278-.278a.28.28 0 0 1 .278.278c0 .154-.124.278-.278.278zm2.038 1.756h-.48v-.751c0-.179-.004-.41-.249-.41s-.288.195-.288.397v.764h-.48v-1.545h.46v.211h.006c.064-.121.221-.249.455-.249.486 0 .576.32.576.736v.847z"/></g><g clip-path="url(#C)"><rect x="23.567" y="20.278" width="17.09" height="18.039" rx=".949" class="B"/><g class="C"><path d="M35.936 27.088l.015-.47c-.005-2.285-1.345-3.613-3.459-3.754-1.842-.123-3.23.607-3.863 1.824-.213.409-.334.921-.38 1.477-.072.29-.112.591-.112.903h.007c-.284.057-.407.631-.288 1.294.108.607.383 1.079.637 1.114.323.866.831 1.708 1.462 2.323.356.349.752.624 1.174.793a2.46 2.46 0 0 0 .903.178 2.46 2.46 0 0 0 .903-.178c.437-.174.846-.462 1.211-.829.615-.615 1.112-1.442 1.428-2.294.242-.072.497-.527.602-1.107.11-.633.004-1.182-.24-1.273zm-.409 1.358c-.057.321-.183.587-.316.701-.053.044-.108.066-.162.057-.029-.004-.057-.018-.081-.042-.292.908-.848 1.815-1.55 2.364-.418.328-.89.53-1.387.53-.486 0-.949-.193-1.36-.508-.716-.547-1.283-1.464-1.578-2.386-.024.022-.051.037-.081.04-.061.011-.125-.018-.185-.081-.125-.125-.237-.374-.292-.675l-.009-.059.026-.617c.027-.077.061-.138.106-.171.018-.015.04-.022.062-.026.049-.009.103.011.154.051.018-.184.248-1.684 1.69-1.551 0 0 1.266.466 2.419.055h.356c.477.018.804.266 1.147.424-.013-.158-.134-.318-.128-.424.055.015.105.038.152.064.246.262.484.703.675 1.422l.005.004c.05-.038.101-.057.151-.048a.14.14 0 0 1 .037.011c.156.075.224.444.149.863zm4.504 9.429H24.194a8.54 8.54 0 0 1 .341-2.037l.044-.147.061-.184.009-.02v-.002-.002c.901-2.407 2.312-2.503 2.633-2.578.684-.16 1.512-.092 1.954-.229.051.433 1.314 1.861 2.14 2.754l.352-1.385c-.264-.16-.321-.506-.321-.796h1.358c0 .292-.057.642-.328.8l.358 1.382c.828-.894 2.088-2.321 2.14-2.754.442.138 1.272.07 1.954.229.321.075 1.73.169 2.631 2.569l.072.198v.002l.046.162c.161.582.295 1.193.363 1.793a1.93 1.93 0 0 1 .029.246z"/></g></g><rect x="23.923" y="20.634" width="16.377" height="17.327" rx=".593" class="D E"/><rect x="46" y="20" width="17.778" height="30" rx=".949" class="B"/><g class="C"><rect x="47.294" y="40.496" width="15.536" height="1.618" rx=".809"/><rect x="51.178" y="43.409" width="7.768" height="1.295" rx=".647"/><path d="M52.082 46.344h-2.543c-.092 0-.18.037-.245.102s-.101.153-.101.245v2.543c0 .092.036.18.101.245s.153.102.245.102h.992v-1.1h-.455v-.518h.455v-.395c0-.449.267-.697.677-.697.196 0 .401.035.401.035v.441h-.226c-.223 0-.292.138-.292.28v.336h.497l-.079.518h-.418v1.1h.992c.092 0 .18-.037.245-.102s.102-.153.102-.245V46.69c0-.092-.036-.18-.102-.245a.35.35 0 0 0-.245-.102zm4.532 0H54.07c-.191 0-.347.155-.347.347v2.543c0 .191.155.347.347.347h2.543c.191 0 .347-.155.347-.347V46.69c0-.191-.155-.347-.347-.347zm-.353 1.147l.002.061c0 .626-.477 1.348-1.348 1.348a1.34 1.34 0 0 1-.727-.212c.038.004.075.006.114.006a.95.95 0 0 0 .588-.202c-.208-.004-.383-.141-.443-.329a.51.51 0 0 0 .214-.009c-.217-.044-.379-.235-.379-.465v-.006a.48.48 0 0 0 .214.06.47.47 0 0 1-.155-.171c-.037-.069-.056-.146-.056-.224a.47.47 0 0 1 .064-.239c.233.288.584.475.977.496-.067-.322.173-.582.462-.582a.47.47 0 0 1 .346.15.93.93 0 0 0 .301-.114c-.035.11-.11.202-.208.261a.94.94 0 0 0 .273-.074c-.064.095-.145.178-.238.246zm4.999-1.147h-2.775c-.127 0-.23.105-.23.233v2.77c0 .129.103.233.23.233h2.775c.127 0 .231-.105.231-.233v-2.77c0-.129-.104-.233-.231-.233zm-2.027 2.774h-.48v-1.545h.48v1.545h-.001zm-.24-1.756c-.154 0-.278-.125-.278-.278s.124-.278.278-.278a.28.28 0 0 1 .278.278c0 .154-.124.278-.278.278zm2.038 1.756h-.48v-.751c0-.179-.004-.41-.249-.41s-.288.195-.288.397v.764h-.48v-1.545h.46v.211H60c.064-.121.221-.249.454-.249.486 0 .576.32.576.736v.847z"/></g><g clip-path="url(#D)"><rect x="46.345" y="20.278" width="17.09" height="18.039" rx=".949" class="B"/><g class="C"><path d="M58.714 27.088l.015-.47c-.005-2.285-1.345-3.613-3.459-3.754-1.842-.123-3.23.607-3.863 1.824-.213.409-.334.921-.38 1.477-.072.29-.112.591-.112.903h.007c-.284.057-.407.631-.288 1.294.108.607.383 1.079.637 1.114.323.866.831 1.708 1.462 2.323.356.349.752.624 1.174.793a2.46 2.46 0 0 0 .903.178 2.46 2.46 0 0 0 .903-.178c.437-.174.846-.462 1.211-.829.615-.615 1.112-1.442 1.428-2.294.242-.072.497-.527.602-1.107.11-.633.004-1.182-.24-1.273zm-.409 1.358c-.057.321-.184.587-.316.701-.053.044-.108.066-.161.057-.029-.004-.057-.018-.081-.042-.292.908-.848 1.815-1.551 2.364-.418.328-.89.53-1.387.53-.486 0-.949-.193-1.36-.508-.716-.547-1.283-1.464-1.578-2.386-.024.022-.051.037-.081.04-.061.011-.125-.018-.185-.081-.125-.125-.237-.374-.292-.675l-.009-.059.026-.617c.027-.077.06-.138.106-.171.018-.015.04-.022.062-.026.05-.009.103.011.154.051.018-.184.248-1.684 1.69-1.551 0 0 1.266.466 2.419.055h.356c.477.018.804.266 1.147.424-.013-.158-.134-.318-.128-.424.055.015.105.038.152.064.246.262.484.703.675 1.422l.006.004c.05-.038.101-.057.151-.048a.14.14 0 0 1 .037.011c.156.075.224.444.149.863zm4.503 9.429H46.972c.035-.692.138-1.349.341-2.037l.044-.147.06-.184.009-.02v-.002-.002c.901-2.407 2.312-2.503 2.633-2.578.684-.16 1.512-.092 1.954-.229.051.433 1.314 1.861 2.14 2.754l.352-1.385c-.264-.16-.321-.506-.321-.796h1.358c0 .292-.057.642-.329.8l.358 1.382c.828-.894 2.088-2.321 2.14-2.754.442.138 1.272.07 1.954.229.321.075 1.73.169 2.631 2.569l.072.198v.002l.046.162c.161.582.295 1.193.363 1.793a1.91 1.91 0 0 1 .029.246z"/></g></g><rect x="46.701" y="20.634" width="16.377" height="17.327" rx=".593" class="D E"/><rect x="68.778" y="20" width="17.778" height="30" rx=".949" class="B"/><g class="C"><rect x="70.071" y="40.496" width="15.536" height="1.618" rx=".809"/><rect x="73.955" y="43.409" width="7.768" height="1.295" rx=".647"/><path d="M74.86 46.344h-2.543c-.092 0-.18.037-.245.102s-.102.153-.102.245v2.543c0 .092.037.18.102.245s.153.102.245.102h.992v-1.1h-.455v-.518h.455v-.395c0-.449.267-.697.677-.697.196 0 .401.035.401.035v.441h-.226c-.223 0-.292.138-.292.28v.336h.497l-.08.518h-.417v1.1h.992c.092 0 .18-.037.245-.102s.102-.153.102-.245V46.69c0-.092-.037-.18-.102-.245s-.153-.102-.245-.102zm4.531 0h-2.543c-.191 0-.347.155-.347.347v2.543c0 .191.155.347.347.347h2.543c.192 0 .347-.155.347-.347V46.69c0-.191-.155-.347-.347-.347zm-.353 1.147l.002.061c0 .626-.477 1.348-1.348 1.348a1.34 1.34 0 0 1-.728-.212c.038.004.075.006.114.006a.95.95 0 0 0 .588-.202c-.208-.004-.383-.141-.443-.329a.51.51 0 0 0 .214-.009c-.217-.044-.379-.235-.379-.465v-.006a.48.48 0 0 0 .214.06.47.47 0 0 1-.211-.395.47.47 0 0 1 .064-.239c.233.288.584.475.977.496-.067-.322.173-.582.462-.582a.47.47 0 0 1 .346.15.93.93 0 0 0 .3-.114c-.035.11-.11.202-.208.261a.94.94 0 0 0 .273-.074c-.064.095-.145.178-.238.246z"/></g><g clip-path="url(#E)"><rect x="69.122" y="20.278" width="17.09" height="18.039" rx=".949" class="B"/><g class="C"><path d="M81.491 27.088l.015-.47c-.005-2.285-1.345-3.613-3.459-3.754-1.842-.123-3.23.607-3.863 1.824-.213.409-.334.921-.38 1.477-.072.29-.112.591-.112.903h.007c-.284.057-.407.631-.288 1.294.108.607.383 1.079.637 1.114.323.866.831 1.708 1.463 2.323.356.349.752.624 1.174.793a2.46 2.46 0 0 0 .903.178 2.46 2.46 0 0 0 .903-.178c.437-.174.846-.462 1.211-.829.615-.615 1.112-1.442 1.428-2.294.242-.072.497-.527.602-1.107.11-.633.004-1.182-.24-1.273zm-.409 1.358c-.057.321-.183.587-.316.701-.053.044-.108.066-.162.057-.029-.004-.057-.018-.081-.042-.292.908-.848 1.815-1.55 2.364-.418.328-.89.53-1.387.53-.486 0-.949-.193-1.36-.508-.716-.547-1.283-1.464-1.578-2.386-.024.022-.051.037-.081.04-.061.011-.125-.018-.185-.081-.125-.125-.237-.374-.292-.675l-.009-.059.026-.617c.028-.077.061-.138.106-.171.018-.015.04-.022.062-.026.049-.009.103.011.154.051.018-.184.248-1.684 1.69-1.551 0 0 1.266.466 2.419.055h.356c.477.018.804.266 1.147.424-.013-.158-.134-.318-.128-.424.055.015.105.038.152.064.246.262.484.703.675 1.422l.005.004c.05-.038.101-.057.151-.048a.14.14 0 0 1 .037.011c.156.075.224.444.149.863zm4.504 9.429H69.75c.035-.692.138-1.349.341-2.037l.044-.147.061-.184.009-.02v-.002-.002c.901-2.407 2.312-2.503 2.633-2.578.684-.16 1.512-.092 1.954-.229.051.433 1.314 1.861 2.14 2.754l.352-1.385c-.264-.16-.321-.506-.321-.796h1.358c0 .292-.057.642-.328.8l.358 1.382c.828-.894 2.088-2.321 2.14-2.754.442.138 1.272.07 1.954.229.321.075 1.73.169 2.632 2.569l.072.198v.002l.046.162a11.71 11.71 0 0 1 .363 1.793 1.91 1.91 0 0 1 .029.246z"/></g></g><rect x="69.478" y="20.634" width="16.377" height="17.327" rx=".593" class="D E"/></g><path d="M58.875 11.5a.5.5 0 0 1 .5-.5h.5a.5.5 0 0 1 .5.5v.5a.5.5 0 0 1-.5.5h-.5a.5.5 0 0 1-.5-.5v-.5zm-3.5 0a.5.5 0 0 1 .5-.5h1.5a.5.5 0 0 1 .5.5v.5a.5.5 0 0 1-.5.5h-1.5a.5.5 0 0 1-.5-.5v-.5zm-4.5 0a.5.5 0 0 1 .5-.5h2.5a.5.5 0 0 1 .5.5v.5a.5.5 0 0 1-.5.5h-2.5a.5.5 0 0 1-.5-.5v-.5z" fill-rule="evenodd" class="C"/><path d="M33.405 8.28a.75.75 0 0 0-1.061-1.061l-4 4a.75.75 0 0 0 0 1.061l4 4a.75.75 0 0 0 1.061-1.061l-2.72-2.72h18.189.75a.5.5 0 0 0 .5-.5v-.5a.5.5 0 0 0-.5-.5h-1-17.939l2.72-2.72z" class="C"/><defs><clipPath id="A"><path transform="translate(10 20)" d="M0 0h68v30H0z" class="B"/></clipPath><clipPath id="B"><rect x=".789" y="20.278" width="17.09" height="18.039" rx=".949" class="B"/></clipPath><clipPath id="C"><rect x="23.567" y="20.278" width="17.09" height="18.039" rx=".949" class="B"/></clipPath><clipPath id="D"><rect x="46.345" y="20.278" width="17.09" height="18.039" rx=".949" class="B"/></clipPath><clipPath id="E"><rect x="69.122" y="20.278" width="17.09" height="18.039" rx=".949" class="B"/></clipPath></defs></svg>