<svg width="30" height="30" viewBox="0 0 30 30" fill="none" xmlns="http://www.w3.org/2000/svg">
<path d="M25.3573 7.87857C24.5644 7.87857 23.918 7.23211 23.918 6.43928C23.918 5.64646 24.5644 5 25.3573 5C26.1501 5 26.7965 5.64646 26.7965 6.43928C26.7965 7.23211 26.1501 7.87857 25.3573 7.87857ZM25.3573 5.927C25.0767 5.927 24.845 6.15875 24.845 6.43928C24.845 6.71982 25.0767 6.95157 25.3573 6.95157C25.6378 6.95157 25.8695 6.71982 25.8695 6.43928C25.8573 6.14655 25.6378 5.927 25.3573 5.927Z" fill="white"/>
<path d="M9.11107 23.2995C8.31829 23.2995 7.67188 22.653 7.67188 21.8602C7.67188 21.0674 8.31829 20.4209 9.11107 20.4209C9.90385 20.4209 10.5503 21.0674 10.5503 21.8602C10.5625 22.653 9.91605 23.2995 9.11107 23.2995ZM9.11107 21.3479C8.83055 21.3479 8.59882 21.5796 8.59882 21.8602C8.59882 22.1407 8.83055 22.3725 9.11107 22.3725C9.3916 22.3725 9.62333 22.1407 9.62333 21.8602C9.62333 21.5796 9.3916 21.3479 9.11107 21.3479Z" fill="white"/>
<path d="M25.7562 24.7388H18.2717L14.0469 17.811L14.1763 17.575C14.447 17.1029 15.0472 16.6898 15.6944 16.5482C16.2358 16.4302 16.7183 16.501 17.0713 16.7606C17.1654 16.8315 17.4126 17.0085 18.0716 18.0116V13.4207C18.0951 12.7716 18.5188 11.5796 19.9074 11.5796C20.5429 11.5796 20.9077 11.8392 21.1078 12.0635C21.5785 12.5828 21.555 13.2909 21.5432 13.4561V16.2532H24.1087C24.7206 16.2532 25.1796 16.4302 25.4738 16.7724C25.7915 17.1383 25.7798 17.575 25.7562 17.7166V24.7388ZM18.7777 23.83H24.8619L24.8736 17.6222C24.8736 17.6222 24.8854 17.4688 24.7912 17.3507C24.6853 17.2327 24.45 17.1619 24.1205 17.1619H20.6606V13.3971C20.6724 13.2673 20.6488 12.8896 20.4488 12.6772C20.3311 12.5473 20.1546 12.4883 19.9074 12.4883C19.0719 12.4883 18.9895 13.2909 18.9778 13.4443V21.2926L18.1422 19.8409C17.0007 17.8582 16.6241 17.5278 16.5535 17.4806C16.4123 17.3861 16.1769 17.3625 15.8945 17.4216C15.6003 17.4924 15.3061 17.6458 15.1178 17.811L18.7777 23.83Z" fill="white"/>
<path d="M12.8899 16.0049L11.7105 17.1907C11.5808 17.3211 11.5808 17.5346 11.7105 17.6531C11.7695 17.7124 11.8639 17.748 11.9464 17.748C12.029 17.748 12.1115 17.7124 12.1823 17.6531L14.1518 15.6848L12.1823 13.7164C12.0525 13.586 11.8521 13.586 11.7223 13.7164C11.5926 13.8468 11.5926 14.0603 11.7223 14.1788L12.8899 15.3528C7.78331 15.329 5.66048 14.25 5.66048 12.1038C5.66048 9.94566 10.0241 8.13144 15.1778 8.13144C20.3316 8.13144 24.6952 9.94566 24.6952 12.1038C24.6952 12.2816 24.8367 12.4358 25.0254 12.4358C25.2023 12.4358 25.3556 12.2935 25.3556 12.1038C25.3556 9.50693 20.8859 7.46741 15.1778 7.46741C9.46977 7.46741 5.00005 9.50693 5.00005 12.1038C4.98825 14.6769 7.24081 15.9812 12.8899 16.0049V16.0049Z" fill="white"/>
</svg>
