<svg xmlns="http://www.w3.org/2000/svg" viewBox="0 0 97 73.5"><title>image 2</title><g id="Layer_2" data-name="Layer 2"><g id="Layer_1-2" data-name="Layer 1"><path d="M94.5,0H2.5A2.5,2.5,0,0,0,0,2.5V71a2.5,2.5,0,0,0,2.5,2.5h92A2.5,2.5,0,0,0,97,71V2.5A2.5,2.5,0,0,0,94.5,0ZM72.75,31.71a.45.45,0,0,1,.63,0L94,51.14V70.5H31.59ZM3,62.14l24.39-30a.51.51,0,0,1,.71,0L45.36,53.4,27.21,70.5H3ZM75.44,29.53a3.46,3.46,0,0,0-4.75,0L47.55,51.34,30.42,30.27a3.45,3.45,0,0,0-5.36,0L3,57.38V3H94V47Z"/><path d="M48.5,13.71a6.4,6.4,0,1,0,6.4,6.4A6.41,6.41,0,0,0,48.5,13.71Zm0,9.79a3.4,3.4,0,1,1,3.4-3.39A3.4,3.4,0,0,1,48.5,23.5Z"/></g></g></svg>