<svg xmlns="http://www.w3.org/2000/svg" viewBox="0 0 91.95 97"><title>social share</title><g id="Layer_2" data-name="Layer 2"><g id="Layer_1-2" data-name="Layer 1"><path d="M37.65,46.77A8.33,8.33,0,1,0,46,38.44,8.33,8.33,0,0,0,37.65,46.77ZM46,41.44a5.33,5.33,0,1,1-5.33,5.33A5.33,5.33,0,0,1,46,41.44Z"/><path d="M35.94,63.77a1.49,1.49,0,0,0-.5,1,1.56,1.56,0,0,0,.37,1.09,1.52,1.52,0,0,0,2.12.13A12.17,12.17,0,0,1,54,66a1.5,1.5,0,0,0,1,.37,1.52,1.52,0,0,0,1.13-.5,1.56,1.56,0,0,0,.37-1.09,1.49,1.49,0,0,0-.5-1A15.19,15.19,0,0,0,35.94,63.77Z"/><path d="M0,72.07a6.92,6.92,0,0,0,9.21,6.51,45.9,45.9,0,0,0,73.53,0,6.9,6.9,0,0,0,6.49-12A45.36,45.36,0,0,0,92,51,46.07,46.07,0,0,0,52.75,5.59a6.9,6.9,0,0,0-13.55,0A46.07,46.07,0,0,0,0,51,45.36,45.36,0,0,0,2.72,66.58,6.9,6.9,0,0,0,0,72.07ZM52.66,8.61A43.1,43.1,0,0,1,89,51a42.26,42.26,0,0,1-2.46,14.29,7.06,7.06,0,0,0-1.44-.16A6.9,6.9,0,0,0,80.19,77a42.89,42.89,0,0,1-68.43,0A6.9,6.9,0,0,0,6.91,65.16a7.08,7.08,0,0,0-1.45.16A42.22,42.22,0,0,1,3,51,43.1,43.1,0,0,1,39.29,8.61a6.9,6.9,0,0,0,13.37,0ZM6.91,68.16A3.91,3.91,0,1,1,3,72.07,3.91,3.91,0,0,1,6.91,68.16Zm78.14,0a3.91,3.91,0,1,1-3.91,3.91A3.91,3.91,0,0,1,85.05,68.16ZM46,3a3.91,3.91,0,1,1-3.91,3.91A3.91,3.91,0,0,1,46,3Z"/></g></g></svg>