<?xml version="1.0" encoding="UTF-8"?><svg id="Layer_1" xmlns="http://www.w3.org/2000/svg" viewBox="0 0 200 200"><defs><style>.cls-1{fill:#00c103;}.cls-2{fill:none;stroke:#00c103;stroke-miterlimit:10;}</style></defs><g><rect class="cls-1" x="18.41" y="116.86" width="163.19" height="38.4" rx="6.06" ry="6.06"/><g><rect class="cls-2" x="18.41" y="61.67" width="163.19" height="30.97" rx="3.92" ry="3.92"/><rect class="cls-1" x="18.41" y="44.75" width="56.02" height="9.63" rx="4.81" ry="4.81"/></g></g><path class="cls-1" d="M169.73,75.82c2.12,.44,3.56,1.07,4.32,1.91,.76,.83,1.14,1.97,1.14,3.41s-.48,2.8-1.45,3.91c-.97,1.11-2.31,1.71-4.02,1.8v1.99h-1.37v-1.96c-3.49-.39-5.35-2.26-5.59-5.63h2.49c.19,2.14,1.22,3.37,3.1,3.68v-7.17c-3.46-.69-5.2-2.38-5.2-5.07,0-1.51,.47-2.73,1.4-3.66,.94-.92,2.2-1.46,3.79-1.6v-1.98h1.37v1.98c3.04,.23,4.72,1.78,5.02,4.66h-2.5c-.14-1.59-.98-2.49-2.51-2.71v6.45Zm-1.37-.28v-6.2c-1.8,.32-2.71,1.36-2.71,3.14,0,.96,.25,1.65,.75,2.09,.5,.44,1.15,.76,1.96,.96Zm1.37,9.38c1.98-.25,2.96-1.46,2.96-3.63,0-.89-.2-1.57-.6-2.05s-1.19-.87-2.36-1.18v6.86Z"/></svg>