<?xml version="1.0" encoding="UTF-8"?><svg id="a" xmlns="http://www.w3.org/2000/svg" viewBox="0 0 126.3 32.19"><g><polygon points="0 18.4 7.91 22.96 7.93 22.97 15.88 18.38 7.95 13.81 7.91 13.83 0 18.4" fill="#a8bc17"/><polygon points="7.91 22.98 7.91 32.16 7.95 32.19 15.91 27.59 15.91 18.4 15.88 18.38 7.93 22.97 7.91 22.98" fill="#175fff"/><g><polygon points="8.47 22.48 8.47 22.5 8.49 22.49 8.47 22.48" fill="#fff"/><polygon points="8.47 22.48 8.47 22.5 8.49 22.49 8.47 22.48"/></g><polygon points="7.94 4.59 15.85 9.16 15.87 9.17 23.82 4.58 15.89 0 15.85 .02 7.94 4.59" fill="#a8bc17"/><polygon points="15.85 9.18 15.85 18.36 15.89 18.38 23.85 13.78 23.85 4.6 23.82 4.58 15.87 9.17 15.85 9.18" fill="#175fff"/><g><polygon points="16.42 8.67 16.42 8.69 16.43 8.68 16.42 8.67" fill="#fff"/><polygon points="16.42 8.67 16.42 8.69 16.43 8.68 16.42 8.67"/></g><g><polygon points="19.27 20.3 19.27 29.48 19.31 29.5 27.27 24.9 27.27 15.71 27.24 15.7 19.29 20.29 19.27 20.3" fill="#175fff"/><g><polygon points="25.09 22.36 25.09 22.38 25.11 22.37 25.09 22.36" fill="#fff"/><polygon points="25.09 22.36 25.09 22.38 25.11 22.37 25.09 22.36"/></g></g></g><g><path d="M40.28,22.48c-3.39,0-6.15-2.54-6.15-6.14s2.76-6.12,6.15-6.12,6.12,2.52,6.12,6.12-2.73,6.14-6.12,6.14Zm0-2.66c1.91,0,3.15-1.38,3.15-3.48s-1.24-3.48-3.15-3.48-3.17,1.35-3.17,3.48,1.23,3.48,3.17,3.48Z"/><path d="M61.12,17.19c0-1.24-.72-1.93-1.82-1.93s-1.82,.68-1.82,1.93v5.16h-2.9v-5.16c0-1.24-.72-1.93-1.82-1.93s-1.82,.68-1.82,1.93v5.16h-2.91V12.85h2.91v1.19c.56-.77,1.53-1.3,2.78-1.3,1.43,0,2.59,.63,3.24,1.77,.63-1.01,1.82-1.77,3.2-1.77,2.35,0,3.87,1.5,3.87,4.06v5.56h-2.9v-5.16Z"/><path d="M72.62,17.19c0-1.29-.72-2.01-1.82-2.01s-1.82,.72-1.82,2.01v5.16h-2.92V12.85h2.92v1.26c.58-.8,1.6-1.36,2.88-1.36,2.2,0,3.67,1.5,3.67,4.06v5.56h-2.9v-5.16Z"/><path d="M77.28,10.29c0-.89,.7-1.58,1.74-1.58s1.72,.7,1.72,1.58-.7,1.57-1.72,1.57-1.74-.7-1.74-1.57Zm.27,2.56h2.92v9.51h-2.92V12.85Z"/><path d="M87.76,12.91c2.54,0,4.43,1.86,4.43,4.77s-1.89,4.81-4.43,4.81c-1.86,0-3.15-1.02-3.7-2.18v6.44h-1.18V13.05h1.18v2.05c.54-1.18,1.84-2.18,3.7-2.18Zm-.24,1.04c-1.89,0-3.46,1.43-3.46,3.75s1.57,3.75,3.46,3.75,3.46-1.41,3.46-3.77-1.5-3.73-3.46-3.73Z" fill="#175fff"/><path d="M95.58,22.36h-1.19V13.05h1.19v1.65c.51-1.14,1.58-1.82,3.19-1.82v1.24h-.32c-1.55,0-2.86,.7-2.86,3.03v5.2Z" fill="#175fff"/><path d="M104.58,22.49c-2.64,0-4.57-1.84-4.57-4.79s1.89-4.79,4.57-4.79,4.4,1.94,4.4,4.31c0,.38,0,.61-.03,.94h-7.72c.1,2.18,1.62,3.32,3.36,3.32,1.58,0,2.66-.84,3-2.08h1.26c-.43,1.76-1.93,3.08-4.26,3.08Zm-3.36-5.3h6.54c.05-2.16-1.52-3.26-3.24-3.26s-3.17,1.09-3.31,3.26Z" fill="#175fff"/><path d="M114.36,22.49c-2.11,0-3.6-1.06-3.75-2.76h1.23c.1,1.02,.99,1.76,2.51,1.76,1.33,0,2.08-.72,2.08-1.6,0-2.3-5.59-.95-5.59-4.45,0-1.38,1.31-2.52,3.27-2.52s3.31,1.06,3.41,2.85h-1.19c-.07-1.04-.84-1.82-2.25-1.82-1.24,0-2.03,.67-2.03,1.48,0,2.52,5.5,1.18,5.56,4.47,0,1.5-1.31,2.61-3.24,2.61Z" fill="#175fff"/><path d="M123.06,22.49c-2.11,0-3.6-1.06-3.75-2.76h1.23c.1,1.02,.99,1.76,2.51,1.76,1.33,0,2.08-.72,2.08-1.6,0-2.3-5.59-.95-5.59-4.45,0-1.38,1.31-2.52,3.27-2.52s3.31,1.06,3.41,2.85h-1.19c-.07-1.04-.84-1.82-2.25-1.82-1.24,0-2.03,.67-2.03,1.48,0,2.52,5.5,1.18,5.56,4.47,0,1.5-1.31,2.61-3.24,2.61Z" fill="#175fff"/></g></svg>