<svg xmlns="http://www.w3.org/2000/svg" width="60" height="42" viewBox="0 0 60 42">
  <g fill="gray">
    <path d="M30,19.5931709 C17.214434,19.5931709 6.0381233,21.7965117 0,25.0749204 C7.16639223,23.1486621 17.9414922,21.9228485 30,21.9228485 C42.056301,21.9228485 52.8313709,23.1486408 59.9999796,25.0771165 C53.9596408,21.7987078 42.7811427,19.5931709 30,19.5931709 Z"/>
    <polygon points="14.246 10.959 14.246 17.507 9.443 17.507 9.443 .116 14.246 .116 14.246 6.593 17.301 6.593 17.301 .116 22.104 .116 22.104 17.507 17.301 17.507 17.301 10.959"/>
    <path d="M47.9946583,8.8535 C47.9946583,11.2984524 46.0152,13.2756932 43.5702476,13.2756932 C41.1275126,13.2756932 39.1458379,11.2962359 39.1458379,8.8535 C39.1458379,6.40633107 41.1275126,4.42465631 43.5702476,4.42465631 C46.0152,4.42465631 47.9946583,6.40633107 47.9946583,8.8535 M34.8300427,7.46145146 C34.7524602,7.91364563 34.7214272,8.37913883 34.7214272,8.8535 C34.7214272,9.33451068 34.7613262,9.81330388 34.8344757,10.2721485 C34.317999,9.45420874 33.5798583,9.11506311 32.9459,8.99979806 C32.3518408,8.88896602 33.9611204,8.94216505 34.8300427,7.46145146 M30.9841748,12.0321592 C30.9841748,13.2889932 29.9290544,13.2756961 29.9290544,13.2756961 L27.4220369,13.2756961 L27.4220369,10.6556272 L29.9623049,10.6556272 C29.9645184,10.6556272 30.9841748,10.7753252 30.9841748,12.0321592 M30.9841748,5.62829126 C30.9841748,6.88290874 29.9290544,6.87182694 29.9290544,6.87182694 L27.4220369,6.87182694 L27.4220369,4.24954175 L29.9623049,4.24954175 C29.9645184,4.24954175 30.9841748,4.37367379 30.9841748,5.62829126 M52.4257194,8.8535 C52.4257194,3.96359515 48.4579359,0.000245631068 43.5702476,0.000245631068 C39.8329951,0.000245631068 36.6388194,2.31884951 35.3443029,5.59060777 L35.3509534,5.28471165 C35.3509534,-0.0285699029 30.6915796,0.122161165 30.6915796,0.122161165 L23.1239757,0.122161165 L23.1239757,17.5116893 L30.476565,17.5116893 C31.782166,17.5116893 35.4928184,16.780199 35.4928184,13.0717631 C35.4928184,12.8390155 35.4839544,12.6217854 35.468435,12.4089883 C36.8383175,15.523365 39.9482612,17.7001039 43.5702485,17.7001039 C48.4579369,17.7001039 52.4257194,13.7389709 52.4257194,8.8535"/>
    <path d="M43.5724641 12.3912553C41.6196058 12.3912553 40.0302767 10.8063583 40.0302767 8.8512835 40.0302767 6.89399126 41.6196058 5.30909515 43.5724641 5.30909515 45.5341893 5.30909515 47.1124359 6.89399126 47.1124359 8.8512835 47.1124359 10.8063583 45.5341893 12.3912553 43.5724641 12.3912553M20.2888942 33.9724466C20.9450194 33.6621175 21.5058291 33.5823184 21.9136903 33.7685165 22.2617029 33.9170311 22.7471466 34.2162767 22.7471466 34.5820223L22.572032 34.9499845C22.1819039 35.3711456 20.9849184 36.9538252 20.8918194 37.3173544L20.6546398 37.4680854C20.0760971 37.4680854 19.2603738 36.8984097 19.2603738 36.1403194 19.2603738 35.6105427 19.5308039 35.094066 19.6704524 34.903435 18.8325631 35.3489796 15.6007039 37.0956903 14.3793359 37.0956903 13.4882476 37.0956903 12.9629039 36.3841495 12.9629039 35.9053553 12.9629039 35.4442951 13.1335854 35.1760816 13.370766 34.903435 15.6716359 32.2412524 17.9037913 31.4676456 19.6061699 31.4676456 20.3420932 31.4676456 21.1046175 31.9708223 21.2021495 32.305535 21.4703621 33.2764223 20.7743379 33.1190408 19.9962981 33.1567243 19.6748854 33.1788903 19.4909049 33.1744573 19.1473252 33.2941553 18.2562369 33.6044845 15.946499 34.8258524 15.0199447 36.0028874 16.5871078 35.7745738 19.1473252 34.5133068 20.2888942 33.9724466"/>
    <path d="M20.2888942 33.9724466L20.2002291 33.7862495C20.6413398 33.5801019 21.0469845 33.4648369 21.4193796 33.4648369 21.6255272 33.4648369 21.8228078 33.5003029 21.9979223 33.5823184L21.9136903 33.7685165 21.9934893 33.5801019C22.354801 33.7507825 22.9178272 34.0256466 22.9532932 34.5820223L22.9532932 34.6285718 22.7582291 35.040867 22.7449301 35.067466 22.7227631 35.0918495C22.5387825 35.2891301 22.1420039 35.7923068 21.7873417 36.279967 21.4326796 36.7565447 21.1046175 37.2774544 21.0913175 37.3727699L21.071368 37.4503524 20.7654718 37.6454165 20.7144883 37.678666 20.6546398 37.678666C19.9630485 37.665366 19.0786097 37.0602243 19.0542262 36.1469689 19.0608767 35.5462602 19.3446058 35.014267 19.5042039 34.7903864L19.6704524 34.9123019 19.765768 35.094066C19.3490398 35.3179466 18.3271689 35.8676728 17.2543165 36.3619835 16.1748136 36.8562932 15.0731437 37.3018379 14.3793359 37.3107039 13.370766 37.2996214 12.7656233 36.5260146 12.7589738 35.9142223 12.7523233 35.4021786 12.9673379 35.0586 13.215601 34.7770864 15.5452883 32.0816544 17.8395087 31.2703641 19.6061699 31.272577 20.0206806 31.272577 20.4241087 31.4100126 20.7455214 31.5917767 21.0647175 31.7801913 21.3107641 31.9907718 21.3994301 32.2589854L21.3994301 32.261199 21.4659291 32.6779272C21.4858786 33.0458893 21.1932825 33.2897194 20.9184194 33.3229689 20.6391233 33.376168 20.3243602 33.3540019 20.0051641 33.3695184L19.9963 33.1633709 20.0096 33.3695184C19.6748874 33.3916845 19.5330223 33.385035 19.2138262 33.4936495 18.3648544 33.7840301 16.0462505 35.0231301 15.1817612 36.1358825L15.0199466 36.0073184 14.9911301 35.8056039C16.4962282 35.5861563 19.0630951 34.3315388 20.2002311 33.7884631L20.2888961 33.9724437 20.3775621 34.1586417C19.2315592 34.6972845 16.6779922 35.9652019 15.0487631 36.209032L14.5389359 36.2821816 14.858132 35.8787534C15.8467524 34.6396524 18.1476233 33.4315845 19.0808282 33.1035214 19.4487903 32.9705233 19.6748874 32.9727398 19.983 32.9572233L19.9852136 32.9572233 19.9874272 32.9572233C20.3310068 32.9417068 20.6457689 32.9572233 20.8364 32.9173243L21.0558476 32.6734942 21.0048641 32.3653806 21.2021456 32.309965 21.0048641 32.3675981C20.996 32.2988816 20.8120175 32.088301 20.5415874 31.9420029 20.2733738 31.7912718 19.9275786 31.6760068 19.606166 31.6782233 17.9680699 31.6782233 15.7979806 32.4141466 13.5259262 35.0430806 13.2998291 35.3090767 13.1734806 35.5041408 13.1690476 35.9120029 13.1646107 36.0782505 13.2710126 36.3375971 13.4793767 36.5393117 13.6899573 36.7432417 13.9892039 36.8961903 14.379332 36.8984068 14.9068922 36.9050573 16.0307282 36.4772456 17.0836311 35.987368 18.140968 35.4974913 19.1539718 34.9521981 19.575133 34.7283175L19.8366961 35.0342136C19.7169981 35.1871621 19.459868 35.6881223 19.4665175 36.146966 19.4643039 36.4484291 19.6305485 36.7299417 19.8743786 36.9383058 20.1159922 37.1488864 20.4307553 37.2708019 20.6546359 37.2685854L20.6546359 37.4725155 20.5438039 37.2996184 20.7809845 37.1511039 20.8918155 37.3217845 20.6923184 37.2730184C20.7721175 37.0048049 21.0890971 36.5526107 21.4548417 36.040568 21.8183709 35.5396068 22.2151495 35.0408641 22.4212961 34.8125495L22.5720282 34.9521981 22.3858301 34.863533 22.5609447 34.4955709 22.7471427 34.5842359 22.5409951 34.5842359C22.5764612 34.4091214 22.1686 34.0832757 21.8338874 33.9591437L21.8294505 33.9569301 21.4193718 33.8771311C21.1356427 33.8749175 20.7787631 33.9702301 20.3775524 34.1608612L20.2888864 33.9724466 20.2888942 33.9724466zM24.5293233 33.3584379C24.0061971 33.2210068 23.4852864 32.318835 23.5207534 32.0173718 23.5429194 31.7868417 23.6759175 31.7469417 25.0125505 31.8555573 25.6332097 31.9131893 26.2516515 31.9508728 26.8723107 31.9774718 27.8830971 30.3260767 28.8628515 28.8209786 29.5101097 27.9919563 29.9556544 27.4111971 30.418932 27.1651505 30.9198922 27.1651505 31.3454864 27.1651505 32.2410087 27.3712971 32.2410087 27.8456583 32.2410087 27.9830893 32.2410087 28.1582039 31.737832 28.7522631 30.9819583 29.6211854 29.9334883 30.8558534 28.9825505 32.0195883 30.7292612 32.0195883 31.7888146 31.8998903 32.1612097 31.8998903 32.5469049 31.8998903 32.839501 31.9774718 32.2786913 32.4008505 31.8730466 32.7111796 30.6494621 33.1323408 30.0265874 33.2520388 29.7406408 33.3074553 28.8495515 33.4426699 27.7833485 33.5091689 27.5749845 33.823932 27.3533214 34.0943621 27.1981563 34.3271087 26.6595136 35.125099 25.5201612 36.5481806 24.2721932 37.6299L23.9064485 37.7761981C23.695868 37.7761981 23.5828194 37.6299 23.6759175 37.4525689 24.2588932 36.3841495 25.054667 34.974367 25.9058563 33.5512854 25.4204126 33.5202524 24.9327515 33.4670534 24.5293233 33.3584379"/>
    <path d="M24.5293233 33.3584379L24.4783408 33.5557184C24.1391951 33.4626204 23.873199 33.1833233 23.6670515 32.8929437 23.4631204 32.5959146 23.3212553 32.3033184 23.3146058 32.0461883L23.3168194 31.9907718 23.5207505 32.0173718 23.3168194 31.9974223 23.5207505 31.6693592C23.6537485 31.6050767 23.7933971 31.5962107 24.0106272 31.5939942 24.2433748 31.5939942 24.5647864 31.6139437 25.0280641 31.6516262L25.032501 31.6516262C25.6487262 31.7070427 26.262735 31.7469417 26.8811767 31.7735417L26.8723126 31.9774718 26.6971981 31.8710738C27.7102019 30.2152447 28.6899563 28.7101476 29.3482971 27.8656078L29.3482971 27.8678214C29.8115748 27.2538126 30.3457845 26.9567835 30.9198942 26.9611676 31.1637243 26.9611676 31.5073029 27.0144155 31.8154165 27.1363311 32.1124456 27.2560291 32.4338583 27.4577437 32.4471583 27.8434388L32.3651427 28.2091835C32.2875602 28.3732155 32.1523447 28.5771456 31.8952155 28.8852583L31.8930019 28.8852583 31.8930019 28.8874718C31.1371282 29.7519602 30.0908757 30.9888447 29.1421544 32.1481466L28.9825563 32.017365 28.9825563 31.8112175C30.724834 31.8090039 31.7622204 31.6937359 32.1612155 31.6937359L32.5158777 31.7292019 32.6887757 31.8112175 32.7951738 32.0417476C32.7730078 32.2744951 32.6333592 32.3742437 32.4028291 32.5626583L32.4028291 32.5604447C31.9284689 32.9128893 30.7270505 33.318535 30.0642757 33.4493165 29.7672456 33.5069485 28.8739408 33.6421641 27.7966544 33.7086631L27.7833544 33.504732 27.9540359 33.6177806C27.7390223 33.9436262 27.5151417 34.2184893 27.3688437 34.4357204L27.3688437 34.437934C26.8191165 35.2536573 25.6753311 36.6811718 24.4074146 37.7828417L24.3808146 37.8050078 23.9818194 37.9646058 23.9463534 37.9801223 23.9064544 37.9801223 23.5894748 37.8781573 23.4387437 37.5700447 23.4941592 37.3505971 23.4941592 37.3483835 23.4963728 37.3483835C24.0793485 36.2799631 24.8773388 34.867965 25.7307447 33.4404495L25.9058592 33.5468485 25.8925592 33.7529961C25.400465 33.7197466 24.9039388 33.6709796 24.4761272 33.5534981L24.4805641 33.5557117 24.4783505 33.5534981 24.529333 33.358434 24.582533 33.1611534C24.9615777 33.2631184 25.4403718 33.314101 25.919166 33.345134L26.2538777 33.3650835 26.0809806 33.6554641C25.2320078 35.0741126 24.4384515 36.4794612 23.8554748 37.5478806L23.6759272 37.4503485 23.8576922 37.5456641 23.8488282 37.5722641 23.8288786 37.5722641 23.8421786 37.5567476 23.8488291 37.5722641 23.8288796 37.5722641 23.8421796 37.5567476 23.9064621 37.5722641 23.9064621 37.7761942 23.8310961 37.5855631 24.1968417 37.439265 24.2722068 37.6298961 24.1369922 37.4769485C25.3650097 36.4107456 26.4999291 34.9965301 27.0274883 34.2096233L27.0274883 34.2118369C27.1915204 33.9680068 27.410967 33.6997932 27.6126816 33.3961136L27.6680971 33.3118816 27.7700621 33.3052311C28.8251825 33.238732 29.7140544 33.1013 29.986701 33.0503175 30.5718932 32.9439184 31.8176447 32.5050243 32.1545738 32.2390282L32.1545738 32.2368146 32.3629379 32.0550505 32.3895369 32.017368 32.4427369 32.043967 32.3851039 32.043967 32.3895408 32.017368 32.4427408 32.043967 32.3851078 32.043967 32.4981563 32.043967 32.4250068 32.1304165 32.3851078 32.043967 32.4981563 32.043967 32.4250068 32.1304165 32.4227932 32.1326301 32.1612301 32.1082466C31.815435 32.106033 30.7337146 32.2257291 28.9825709 32.2257291L28.5503262 32.2257291 28.8229728 31.8888C29.7761272 30.7294981 30.8268136 29.4881806 31.5826874 28.6192583L31.7378524 28.7544728 31.5804709 28.6214748C31.8265175 28.3310951 31.9417825 28.1493311 31.992766 28.0407155L32.0370981 27.8456515C32.0481816 27.7592029 31.921833 27.6195544 31.6647029 27.5198058 31.4186563 27.4200563 31.1016767 27.3712903 30.9199126 27.3735078 30.492101 27.3757214 30.0997563 27.5730049 29.6719456 28.1182981L29.6719456 28.122735C29.0357699 28.9362417 28.0560155 30.4413388 27.0474456 32.0860845L26.9831631 32.1924835 26.8634641 32.1836194C26.2405893 32.1570204 25.6177136 32.1215534 24.9926214 32.0617049L25.0125709 31.8577738 24.9970544 32.0617049C24.5359942 32.0240214 24.2190146 32.0085049 24.0106505 32.0085049L23.7114039 32.0373214 23.6914544 32.0018553 23.7269204 32.0195883 23.7114039 32.0373214 23.6914544 32.0018553 23.7269204 32.0195883 23.7202699 32.0151515 23.729134 32.017365 23.7269204 32.0195786 23.7202699 32.0151417 23.729134 32.0173553 23.7246971 32.0417379 23.7246971 32.0439515 23.7246971 32.046165 23.7246971 32.0528155C23.715833 32.1281816 23.8266631 32.4229942 24.0017777 32.6646078 24.1724583 32.9128709 24.4140718 33.1278854 24.5803194 33.1677845L24.582533 33.1677845 24.529333 33.3584155 24.5293233 33.3584379zM35.3376524 29.7009845C36.6321699 29.6876845 37.2594786 30.6364058 37.0089981 31.2060816 36.734135 31.8289573 35.9583117 32.1104709 35.2024379 32.1104709 34.255933 32.1104709 33.4003107 31.7225592 33.4003107 30.9755515 33.4003107 30.2839602 34.0387029 29.7009845 35.3376524 29.7009845M33.4557262 32.8840777C34.5064136 32.8840777 35.2024379 33.682067 35.2024379 34.4135583 35.2024379 34.9455515 33.1476136 36.8119602 32.4515893 36.8119602 32.2011097 36.8119602 31.8131971 36.6235466 31.5981835 36.3509 31.4452359 36.1491854 31.4230689 36.0272709 31.4230689 35.8388563 31.4230689 34.7261039 32.7042864 32.8840777 33.4557262 32.8840777"/>
    <path d="M35.3376524 29.7009845L35.3354388 29.4970534 35.3642553 29.4948398C36.5390738 29.4970534 37.2594816 30.2374136 37.2683476 30.9356553L37.1974155 31.2858835C36.8604864 32.0240243 36.0004301 32.3121874 35.2024408 32.3144039 34.7014806 32.3121903 34.2204699 32.2124388 33.8436408 31.9996417 33.4712456 31.7868447 33.1919495 31.4321825 33.1941529 30.9733379 33.1941529 30.5610427 33.3914466 30.1731311 33.7616252 29.9093515 34.1318039 29.6455718 34.6571476 29.4948398 35.3376553 29.4948398L35.3443058 29.4948398 35.3354417 29.4948398 35.3376553 29.7009874 35.3376553 29.907135C34.0874718 29.920435 33.6064612 30.4346951 33.6042447 30.9755544 33.6086816 31.2637175 33.7571922 31.4742981 34.0475718 31.6449796 34.3379515 31.8112272 34.7568961 31.9065427 35.2024408 31.9065427 35.9161981 31.9087563 36.6077893 31.6316796 36.8205864 31.1218524L36.8582699 30.9356553C36.8560563 30.5322272 36.3683922 29.9049184 35.3642553 29.9027019L35.3398718 29.9049155 35.335435 29.9049155 35.3376485 29.9049155 35.3376485 29.7009845 35.3376524 29.7009845zM33.4557262 32.8840777L33.4557262 32.6801466C34.6150282 32.6823602 35.4041515 33.5557184 35.406368 34.4135583 35.3930689 34.6662544 35.2401204 34.8724019 35.0295398 35.142832 34.7103437 35.5351767 34.229333 35.9895874 33.7527563 36.355333 33.2673126 36.7188621 32.8328515 37.0025913 32.4515893 37.0181078 32.1080107 37.0070252 31.7045825 36.8030942 31.4363689 36.4772485L31.4341553 36.475035C31.2590408 36.2555874 31.2124913 36.0405738 31.2169243 35.8388592 31.2213612 35.2071175 31.5605039 34.4534602 31.9883146 33.828368 32.4294262 33.2143592 32.9215194 32.7023155 33.4557291 32.6801466L33.4557291 32.8840806 33.4557291 33.0902272C33.238499 33.0658447 32.7131553 33.4803563 32.3252437 34.0611155 31.9262485 34.6330078 31.6247864 35.3578485 31.6270029 35.8388592L31.7622175 36.2267709 31.5981864 36.3531194 31.760001 36.2245544C31.9218155 36.4462184 32.2942107 36.6191155 32.4515922 36.6102495 32.6533068 36.6324155 33.3803641 36.1846553 33.9522563 35.6593117 34.2448524 35.3977485 34.517499 35.120668 34.7125631 34.8834883 34.9098447 34.6529573 35.0118097 34.4268602 34.9962932 34.4135612 34.9962932 33.8084184 34.397801 33.0880107 33.4557291 33.0880107L33.4557291 32.8840806 33.4557262 32.8840777zM37.0222981 34.5376893C37.2350951 34.2251437 39.2544524 31.4898117 39.7953126 31.4898117 40.1832243 31.4898117 40.6021689 32.0461883 40.6021689 32.3210515 40.6021689 32.5914806 39.7775796 33.837232 39.5426155 34.2827757 40.4536544 33.8616146 42.116133 33.2653388 42.8897398 33.2653388 43.7830447 33.2653388 44.4037039 33.7552165 44.5766019 34.1209612 44.7517165 34.4711903 44.8714146 35.4886272 44.8714146 35.7878738 44.8714146 36.2733175 44.5965515 36.7188621 43.6655631 36.7188621 43.0050049 36.7188621 42.213665 36.5193641 42.1759825 35.7568408 42.0984 34.6352214 41.9809184 34.1342612 41.6550718 34.1342612L41.4023757 34.2162767C40.4713874 34.7172369 38.8244252 35.9519049 38.1838165 36.6013796 37.9111699 36.8851097 37.3924767 36.7609777 36.9048155 36.5459641 36.5191214 36.3708495 36.3462233 36.248935 36.4038553 35.8432893 36.4836544 35.3356796 36.7164019 35.0430835 37.0222981 34.5376893"/>
    <path d="M37.0222981 34.5376893L36.853833 34.4224243C36.9668816 34.2561767 37.5232583 33.4958699 38.1284 32.7665951 38.4298631 32.4008505 38.7424097 32.0461883 39.0217058 31.7757583 39.3120854 31.5097612 39.5071495 31.3080476 39.7953126 31.2858806 40.0901252 31.2903175 40.3206563 31.4720786 40.4979874 31.6671427 40.6708845 31.8710738 40.7994495 32.0883039 40.8061 32.3210515L40.6531515 32.7710291C40.4004544 33.2719893 39.8906282 34.0588961 39.7243806 34.3780913L39.5426155 34.2827757 39.456167 34.0965786C40.3938049 33.668767 42.0341175 33.0680583 42.8897398 33.0614087 43.8606272 33.0658456 44.5367019 33.5734515 44.762799 34.0322961L44.5766019 34.1209612 44.7605825 34.0300796C44.9667301 34.4645408 45.0709117 35.4465117 45.075388 35.7878738 45.0775592 36.0671699 44.9933301 36.3664165 44.7561495 36.5836466 44.5211854 36.8053107 44.1620903 36.9227922 43.6655631 36.9227922 43.315334 36.9205786 42.9252058 36.8718097 42.5949272 36.7055621 42.2624311 36.5437476 41.9897845 36.2201184 41.9720515 35.7679243L42.1759825 35.7546243 41.9720515 35.7701408C41.9343689 35.2159806 41.8833864 34.8147689 41.8124534 34.5820223 41.7282214 34.3359757 41.6838883 34.3359757 41.6550718 34.3381922L41.6550718 34.1320447 41.7193544 34.3271087 41.4666583 34.4091243 41.4023757 34.2140602 41.4999078 34.3936078C40.5977359 34.876835 38.9419068 36.1159359 38.3301146 36.7432447L38.1838165 36.6013796 38.3323311 36.7410282C38.1705165 36.9094932 37.9488524 36.9715583 37.7360553 36.9715583 37.4345922 36.9715583 37.1198301 36.8629437 36.8205835 36.7343786L36.8205835 36.732165 36.3794728 36.4639515 36.1888417 35.9829408 36.1999252 35.8144767 36.1999252 35.8122631 36.2021388 35.8122631C36.2908039 35.2492369 36.552368 34.9233913 36.8471806 34.4335146L36.8493942 34.4290777 36.8538311 34.4246408 37.0222961 34.5376893 37.1974107 34.6440883C36.8804311 35.1649981 36.6765 35.4265612 36.605568 35.8743223L36.4038534 35.8410728 36.6077845 35.8721058 36.5989204 35.9829379 36.6654194 36.1735689 36.9890485 36.359766 36.9846117 36.3575524 36.9890485 36.359766C37.2594786 36.479465 37.5365583 36.5636971 37.7360553 36.5614806L38.0353019 36.4595155 38.0375155 36.4573019C38.7069398 35.7834447 40.3450359 34.5554262 41.3048408 34.036733L41.3203573 34.0278689 41.5907864 33.9392029 41.6218194 33.9303388 41.6550689 33.9303388C41.952099 33.9303388 42.1294301 34.1808184 42.2047951 34.4645485 42.2934612 34.7660107 42.3400107 35.1760893 42.3799097 35.7435485L42.3799097 35.7457621C42.3998602 36.0538748 42.5417243 36.2112563 42.7811214 36.3420379 43.0183019 36.4639534 43.3552311 36.5149359 43.6655602 36.5149359 44.1000214 36.5127223 44.3438515 36.4085369 44.479067 36.2844058 44.612065 36.1602738 44.6652641 35.9940262 44.6652641 35.7878786 44.6719146 35.5351816 44.536699 34.4800621 44.3926175 34.2118485L44.3926175 34.209635 44.3904039 34.209635C44.2684893 33.9347718 43.7054631 33.4670612 42.8897398 33.4737107 42.1981485 33.4648466 40.5135039 34.0544699 39.629065 34.4689816L39.0793379 34.7238951 39.3608515 34.1874689C39.4872 33.9502883 39.7487631 33.5291272 39.9837272 33.1323485L40.2874058 32.5870553 40.3738553 32.3919913 40.3938049 32.3321417 40.3960184 32.3210592 40.1898709 31.9375806 39.7953097 31.695967 39.7620602 31.709267C39.5182301 31.806799 38.8731883 32.4939563 38.3323282 33.161165 37.7826019 33.8372398 37.2838583 34.5155311 37.1907592 34.6529621L37.0222951 34.5376971 37.1974097 34.6440961 37.0222951 34.5376971 37.0222981 34.5376893zM7.61415534 37.2907544C13.4682981 34.0101301 11.910001 37.6764495 11.7725689 37.9934291 11.1097942 39.5140427 8.64710874 40.1103184 7.97103398 40.307599 7.42795825 40.4738476 5.78321262 40.8595427 4.74804175 40.8595427 3.8569534 40.8595427 2.78631748 39.8886544 2.78631748 39.0884485 2.78631748 36.466165 5.7078466 30.4213922 7.7892699 27.207266 8.95300485 25.3475068 9.86626019 24.4165184 10.8792641 24.4165184 11.2272767 24.4165184 11.5531223 24.5229175 11.923301 24.7135476 12.3400291 24.9263456 12.5195767 25.2433243 12.5195767 25.6024204 12.5195767 26.0679146 12.144965 26.6176408 11.5775049 27.1851 7.63632233 31.0331845 5.01625534 35.7679243 4.22491553 38.1995767 5.26230194 38.2616417 7.14644466 37.5656175 7.61415534 37.2907544"/>
    <path d="M7.61415534 37.2907544L7.51219029 37.1089903C9.31431748 36.1026359 10.4248534 35.7302408 11.1541272 35.7258078 11.5464718 35.7235942 11.847935 35.8499398 12.0319155 36.0649534 12.2158971 36.279967 12.2690961 36.5526136 12.2690961 36.8097437 12.2668825 37.3794204 12.0164 37.9513126 11.9632 38.0754447 11.2139767 39.7401398 8.69587476 40.298733 8.02866699 40.5070971L7.97103398 40.307599 8.0331 40.5070971C7.46785728 40.6777777 5.82976117 41.0656903 4.74804175 41.0679068 4.22713204 41.0656932 3.70400583 40.7974767 3.29392718 40.4295146 2.88828252 40.0593359 2.58238641 39.5827583 2.5779534 39.090665 2.59125243 36.355333 5.51943204 30.3460262 7.61415534 27.096434L7.7892699 27.2094825 7.61193883 27.0986515C8.78454078 25.2366748 9.71774563 24.2258874 10.8792641 24.2103709 11.2716087 24.2103709 11.6329214 24.3322864 12.0186165 24.529567L12.011966 24.5273534 12.0186165 24.529567C12.4907602 24.7645311 12.7345903 25.1723922 12.7279408 25.6046369 12.7190767 26.1831796 12.3023456 26.7506388 11.7238029 27.3313981L11.7238029 27.3336117C7.80921942 31.1550961 5.19801942 35.8765359 4.42219612 38.2660728L4.22491553 38.2017903 4.23821553 37.9934262 4.3601301 37.9978631C5.34210097 38.0067272 7.11319515 37.3528214 7.50775728 37.1134243L7.51219417 37.1112107 7.61415922 37.2907583 7.72055825 37.4703058C7.21738155 37.7584689 5.4972699 38.4035107 4.36013398 38.4123777L4.21161942 38.4079408 3.94340583 38.3924243 4.02763883 38.1352942C4.83449515 35.6615252 7.46342816 30.9179194 11.4312107 27.0365854L11.5775087 27.1851 11.4312107 27.0388019C11.9875874 26.4868592 12.3200825 25.954866 12.3112165 25.6046369 12.304566 25.3186903 12.189301 25.0925932 11.8279893 24.9019621 11.4733272 24.7179816 11.1829476 24.627099 10.879268 24.627099 10.0147786 24.6115825 9.12147379 25.4627718 7.96660485 27.3203146L7.96439126 27.3225282C5.89626796 30.5034049 2.98138835 36.5880777 2.99468738 39.0928786 2.99025049 39.4009913 3.22078544 39.8088534 3.5732301 40.125832 3.92124272 40.4428117 4.3778699 40.6578252 4.74804854 40.6556087 5.7366699 40.6578223 7.38806505 40.2721301 7.90897573 40.112532L7.91341262 40.112532C8.5983534 39.926335 11.0056233 39.2923757 11.5819495 37.9136272 11.6284981 37.8094447 11.8545951 37.2597184 11.8523786 36.8141748 11.8523786 36.6124602 11.8080466 36.4462126 11.7149476 36.3398136 11.624065 36.235632 11.4711175 36.1491825 11.1541379 36.146966 10.5689456 36.1425291 9.48722621 36.4794621 7.71613204 37.4769495L7.61416602 37.2907515 7.72056505 37.470299 7.61416602 37.2907515 7.61415534 37.2907544zM50.7011738 32.314401C50.7011738 32.518332 50.4684262 32.7887621 50.0982476 33.2498223 49.3623243 34.1276117 48.8635806 35.1450485 48.8635806 36.0826864 48.8635806 36.3265165 48.9145631 36.6080301 49.4753728 36.6080301 50.0627816 36.6080301 50.8785049 36.4240485 51.5878291 35.6881252 50.6568408 35.1317485 50.2356796 33.854965 50.7388563 33.2032728 51.2243 32.5693146 52.9776612 32.0351049 53.1084427 33.0082087 53.1705087 33.4315874 53.1239592 33.1700233 53.1416922 33.3628709 53.2835573 35.2204146 51.8205757 37.0713078 49.6926029 37.1511068 48.3914369 37.1932223 46.2457301 36.0627369 46.2457301 35.0785495 46.2457301 33.9502806 47.6599456 32.6491136 48.2008058 32.2722854 48.621967 31.9730388 48.7039825 31.8954563 49.1872097 31.8954563 49.7347194 31.8976699 50.7011738 31.9486563 50.7011738 32.314401"/>
    <path d="M50.7011738 32.314401L50.9051049 32.314401C50.8807214 32.6712796 50.6191583 32.9106767 50.2578456 33.3783874L50.255632 33.380601C49.5374417 34.2340068 49.0652971 35.2181951 49.0675146 36.0826835L49.1184971 36.3065641C49.1473126 36.3442466 49.2248951 36.4018796 49.4753757 36.4063126 50.0228854 36.4018757 50.7743252 36.2378485 51.4393175 35.5462573L51.587832 35.6881223 51.4836495 35.8632369C50.7565922 35.4265583 50.3243485 34.6197019 50.3199146 33.8970786 50.3199146 33.6000485 50.3974971 33.3096689 50.5770447 33.0747049 50.9383573 32.6225107 51.7097476 32.278932 52.3680883 32.2678485 52.7892505 32.252332 53.2503107 32.4717796 53.3123767 32.9793903L53.1084456 33.0082058 53.3123767 32.9771728 53.3478427 33.2675524 53.3389786 33.3296184 53.3190282 33.376168 53.1549971 33.2852864 53.3389786 33.3229689 53.3190282 33.376168 53.1549971 33.2852864 53.3389786 33.3229689 53.2037631 33.2963689 53.3434117 33.2963689 53.3389748 33.3229689 53.2037592 33.2963689 53.3434078 33.2963689 53.3456214 33.3429184 53.3456214 33.3473553 53.3567049 33.6133524C53.3567049 35.4930621 51.8493903 37.2730223 49.6992515 37.3550379L49.6216689 37.3572515C48.9123447 37.3550379 48.0500718 37.0668718 47.3407476 36.6545777 46.6402903 36.2378495 46.0595311 35.7147223 46.0395816 35.0807641 46.0683971 33.7906806 47.5158621 32.5183301 48.0833214 32.106035L48.0811078 32.1082485C48.4756699 31.8156524 48.6818175 31.6804379 49.1872107 31.6937379 49.4687233 31.6937379 49.8544184 31.7048204 50.1869146 31.7646699L50.6435417 31.9154019 50.9051058 32.3121796 50.7011748 32.3121796 50.4950272 32.3121796C50.4861631 32.2789301 50.2667136 32.1813981 50.0007165 32.150365 49.7325039 32.110466 49.4199573 32.101599 49.1872107 32.1038155 48.7261495 32.114899 48.768266 32.1348485 48.3205049 32.4407447L48.3182913 32.4429583C47.8040311 32.7821039 46.423065 34.1143039 46.449665 35.0785417 46.431932 35.4088204 46.8863427 35.9230806 47.546901 36.2999097 48.1985932 36.6833874 49.0231825 36.947168 49.6216748 36.9449515L49.6859573 36.9449515C51.601133 36.876235 52.946632 35.2736058 52.946632 33.6111272L52.937768 33.3783796 53.1416981 33.3628631 52.937768 33.3828136 52.9333311 33.2963641 52.9577146 33.1833155 53.0308641 33.220999 52.9577146 33.1833155 53.0308641 33.220999 52.9577146 33.1833155 53.1217456 33.2675476 52.937765 33.2675476 52.9577146 33.1833155 53.1217456 33.2675476 52.937765 33.2675476 52.9311146 33.225432 52.9045155 33.034801 52.9045155 33.0325874C52.862399 32.7710243 52.7094515 32.6934417 52.3680883 32.6757087 51.8671282 32.6668447 51.1245544 33.0148544 50.9006738 33.3251835 50.7876252 33.4736981 50.7299932 33.6687621 50.7299932 33.8970767 50.7255563 34.4512359 51.0979553 35.1605602 51.6920136 35.5130058L51.9136777 35.6437874 51.7363466 35.8299854C50.9826893 36.6146748 50.1026845 36.8141728 49.4753757 36.8141728 49.1650466 36.8141728 48.936732 36.7321573 48.8015175 36.5659087L48.6574359 36.0826816C48.6618728 35.0718942 49.1872126 34.0212078 49.9408699 33.1190359L50.0982505 33.2498175 49.9386534 33.1212524C50.3176981 32.6690583 50.5216291 32.3653786 50.4950291 32.3143961L50.7011767 32.3143961 50.7011738 32.314401zM53.7978175 36.4462155L53.8864835 36.4462155 54.0726806 36.315434 53.8864835 36.182435 53.7978175 36.1846485 53.7978175 36.4462117 53.7978175 36.4462155zM53.7978175 36.8673806L53.6781194 36.8673806 53.6781194 36.1048534 53.8887 36.0826864 54.1280971 36.1425359 54.2012456 36.297701 54.0505146 36.4838981 54.0505146 36.488335 54.1790796 36.674533 54.2234126 36.8651641 54.0926301 36.8651641 54.0505146 36.6701 53.8820495 36.537101 53.7978175 36.537101 53.7978175 36.8673806 53.7978175 36.8673806zM53.924166 35.8920553C53.6227029 35.8920553 53.3766563 36.1491854 53.3766563 36.4728146 53.3766563 36.7964447 53.6227029 37.0491408 53.928599 37.0491408 54.2278456 37.0535777 54.4761087 36.7964447 54.4761087 36.4728146 54.4761087 36.1491854 54.2278456 35.8920553 53.928599 35.8920553L53.9241621 35.8920553 53.924166 35.8920553zM53.9286029 35.7834408C54.3009981 35.7834408 54.6002447 36.0937699 54.6002447 36.4728146 54.6002447 36.8540767 54.3009981 37.1577563 53.9241699 37.1577563 53.5495583 37.1577563 53.2458786 36.8540767 53.2458786 36.4728146 53.2458786 36.0937699 53.5495583 35.7834408 53.9241699 35.7834408L53.9286068 35.7834408 53.9286029 35.7834408z"/>
  </g>
</svg>
