<svg width="20" height="14" viewBox="0 0 20 14" fill="none" xmlns="http://www.w3.org/2000/svg"><path d="M15.8335 3.66667L12.5002 7H15.0002C15.0002 8.32608 14.4734 9.59785 13.5357 10.5355C12.598 11.4732 11.3262 12 10.0002 12C9.16683 12 8.3585 11.7917 7.66683 11.4167L6.45016 12.6333C7.51107 13.3085 8.74261 13.667 10.0002 13.6667C11.7683 13.6667 13.464 12.9643 14.7142 11.714C15.9644 10.4638 16.6668 8.76811 16.6668 7H19.1668L15.8335 3.66667ZM5.00016 7C5.00016 5.67392 5.52695 4.40215 6.46463 3.46447C7.40231 2.52678 8.67408 2 10.0002 2C10.8335 2 11.6418 2.20833 12.3335 2.58333L13.5502 1.36667C12.4893 0.691461 11.2577 0.332984 10.0002 0.333334C8.23205 0.333334 6.53636 1.03571 5.28612 2.28596C6.03587 3.5362 3.3335 5.23189 3.3335 7H0.833496L4.16683 10.3333L7.50016 7" fill="#141B38"></path></svg>