<svg width="56" height="56" viewBox="0 0 56 56" fill="none" xmlns="http://www.w3.org/2000/svg"><rect width="28.1951" height="27" transform="translate(2.66699 10.4574) rotate(-5)" fill="#8C8F9A"/><path d="M24.869 21.1557C24.8383 20.8053 24.6698 20.4815 24.4003 20.2554C24.1309 20.0293 23.7827 19.9195 23.4323 19.9502L19.2577 20.3154L19.6277 17.2413C19.6351 17.174 19.6354 17.1008 19.629 17.0281C19.6053 16.7573 19.4711 16.5161 19.2771 16.3534L18.5163 15.7211L14.5501 20.4477C14.3271 20.7135 14.2107 21.0565 14.2425 21.4198L14.8204 28.0253C14.851 28.3756 15.0196 28.6995 15.2891 28.9256C15.5585 29.1516 15.9067 29.2614 16.2571 29.2308L22.202 28.7106C22.7502 28.6627 23.1903 28.2914 23.3469 27.7985L24.9343 22.9671C24.9804 22.81 24.9996 22.6485 24.9846 22.4768L24.869 21.1557ZM10.9727 29.6931L13.6149 29.4619L12.9214 21.5354L10.2792 21.7665L10.9727 29.6931Z" fill="white"/><rect x="24.0895" y="15.6761" width="30.1951" height="30" transform="rotate(6 24.0895 15.6761)" fill="#0096CC"/><circle cx="36.1335" cy="31.0152" r="6.125" transform="rotate(-39 36.1335 31.0152)" stroke="white" stroke-width="1.75"/><line x1="40.3895" y1="36.4399" x2="44.2441" y2="41.1999" stroke="white" stroke-width="1.75"/><rect x="24.0895" y="15.6761" width="30.1951" height="30" transform="rotate(6 24.0895 15.6761)" stroke="white" stroke-width="2"/></svg>