<svg width="56" height="56" viewBox="0 0 56 56" fill="none" xmlns="http://www.w3.org/2000/svg"><rect x="18.2598" y="18.8797" width="33.8724" height="28.8912" transform="rotate(4 18.2598 18.8797)" fill="#8C8F9A"/><path d="M29.6665 28.6654L40.2163 34.8959L28.9021 39.5974L29.6665 28.6654Z" fill="white"/><rect x="18.2598" y="18.8797" width="33.8724" height="28.8912" transform="rotate(4 18.2598 18.8797)" stroke="white" stroke-width="1.9925"/><rect x="5.5448" y="3.05956" width="25.7622" height="25.7622" rx="12.8811" transform="rotate(4 5.5448 3.05956)" fill="#0096CC"/><path d="M13.491 11.8079C13.5568 11.8737 13.609 11.9518 13.6447 12.0377C13.6803 12.1237 13.6986 12.2158 13.6986 12.3088C13.6986 12.4019 13.6803 12.494 13.6447 12.58C13.609 12.6659 13.5568 12.744 13.491 12.8098C12.4286 13.8723 11.8317 15.3134 11.8317 16.816C11.8317 18.3186 12.4286 19.7597 13.491 20.8223C13.5567 20.8881 13.6088 20.9662 13.6444 21.0521C13.68 21.138 13.6982 21.2301 13.6982 21.3231C13.6982 21.4161 13.6798 21.5082 13.6442 21.5941C13.6086 21.68 13.5564 21.758 13.4906 21.8238C13.4248 21.8895 13.3468 21.9416 13.2608 21.9772C13.1749 22.0127 13.0828 22.031 12.9898 22.031C12.8968 22.031 12.8047 22.0126 12.7188 21.977C12.6329 21.9414 12.5549 21.8892 12.4891 21.8234C9.72367 19.0579 9.72367 14.5734 12.4891 11.8079C12.5549 11.7421 12.633 11.6899 12.7189 11.6542C12.8049 11.6186 12.897 11.6003 12.9901 11.6003C13.0831 11.6003 13.1752 11.6186 13.2612 11.6542C13.3471 11.6899 13.4252 11.7421 13.491 11.8079ZM22.5046 11.8079C25.2701 14.5741 25.2701 19.0579 22.5046 21.8234C22.3711 21.9524 22.1923 22.0237 22.0066 22.0221C21.821 22.0205 21.6434 21.9461 21.5121 21.8148C21.3809 21.6835 21.3064 21.5059 21.3048 21.3203C21.3032 21.1347 21.3745 20.9558 21.5035 20.8223C22.5659 19.7597 23.1628 18.3186 23.1628 16.816C23.1628 15.3134 22.5659 13.8723 21.5035 12.8098C21.3707 12.677 21.296 12.4969 21.2959 12.3091C21.2958 12.1213 21.3704 11.9411 21.5031 11.8083C21.6359 11.6754 21.816 11.6008 22.0038 11.6007C22.1916 11.6006 22.3718 11.6752 22.5046 11.8079ZM15.5916 13.8427C15.7244 13.9755 15.7989 14.1556 15.7989 14.3433C15.7989 14.531 15.7244 14.7111 15.5916 14.8439C15.3339 15.1016 15.1294 15.4076 14.9899 15.7443C14.8504 16.081 14.7786 16.442 14.7786 16.8065C14.7786 17.171 14.8504 17.5319 14.9899 17.8686C15.1294 18.2054 15.3339 18.5113 15.5916 18.7691C15.6593 18.8344 15.7132 18.9125 15.7503 18.9989C15.7874 19.0853 15.8069 19.1782 15.8078 19.2722C15.8086 19.3662 15.7907 19.4594 15.7551 19.5464C15.7195 19.6334 15.6669 19.7125 15.6004 19.779C15.5339 19.8454 15.4549 19.898 15.3679 19.9336C15.2809 19.9692 15.1876 19.9871 15.0936 19.9863C14.9996 19.9855 14.9067 19.966 14.8203 19.9289C14.734 19.8917 14.6558 19.8378 14.5905 19.7702C13.8045 18.9841 13.3629 17.9181 13.3629 16.8065C13.3629 15.6949 13.8045 14.6288 14.5905 13.8427C14.7233 13.71 14.9033 13.6354 15.0911 13.6354C15.2788 13.6354 15.4589 13.71 15.5916 13.8427ZM20.5187 13.8427C21.3047 14.6288 21.7462 15.6949 21.7462 16.8065C21.7462 17.9181 21.3047 18.9841 20.5187 19.7702C20.4529 19.836 20.3749 19.8882 20.289 19.9238C20.2031 19.9594 20.111 19.9777 20.018 19.9778C19.925 19.9778 19.8329 19.9595 19.747 19.924C19.6611 19.8884 19.583 19.8363 19.5172 19.7705C19.4514 19.7048 19.3992 19.6268 19.3636 19.5409C19.328 19.4549 19.3096 19.3629 19.3096 19.2699C19.3096 19.1769 19.3278 19.0848 19.3634 18.9989C19.399 18.9129 19.4511 18.8348 19.5168 18.7691C19.7746 18.5113 19.979 18.2054 20.1185 17.8686C20.258 17.5319 20.3298 17.171 20.3298 16.8065C20.3298 16.442 20.258 16.081 20.1185 15.7443C19.979 15.4076 19.7746 15.1016 19.5168 14.8439C19.3841 14.711 19.3095 14.5309 19.3096 14.3431C19.3097 14.1552 19.3843 13.9751 19.5172 13.8424C19.65 13.7096 19.8302 13.6351 20.018 13.6352C20.2058 13.6352 20.3859 13.7099 20.5187 13.8427ZM17.5542 15.8039C17.6937 15.8039 17.8318 15.8314 17.9606 15.8848C18.0895 15.9381 18.2066 16.0164 18.3052 16.115C18.4038 16.2136 18.482 16.3307 18.5354 16.4595C18.5888 16.5884 18.6162 16.7265 18.6162 16.8659C18.6162 17.0054 18.5888 17.1435 18.5354 17.2724C18.482 17.4012 18.4038 17.5183 18.3052 17.6169C18.2066 17.7155 18.0895 17.7937 17.9606 17.8471C17.8318 17.9005 17.6937 17.9279 17.5542 17.9279C17.2726 17.9279 17.0024 17.8161 16.8033 17.6169C16.6041 17.4177 16.4922 17.1476 16.4922 16.8659C16.4922 16.5843 16.6041 16.3141 16.8033 16.115C17.0024 15.9158 17.2726 15.8039 17.5542 15.8039Z" fill="white"/><rect x="5.5448" y="3.05956" width="25.7622" height="25.7622" rx="12.8811" transform="rotate(4 5.5448 3.05956)" stroke="white" stroke-width="1.76224"/></svg>