<svg height="166" viewBox="0 0 176 166" width="176" xmlns="http://www.w3.org/2000/svg" xmlns:xlink="http://www.w3.org/1999/xlink"><defs><path id="a" d="m25.896543 38.0427092v-6.9475588c0-4.2627133 3.4884248-7.7195098 7.7918802-7.7195098 4.3034555 0 7.7918802 3.4567965 7.7918802 7.7195098v6.9475588"/><filter id="b" height="120.5%" width="119.3%" x="-9.6%" y="-10.2%"><feMorphology in="SourceAlpha" operator="dilate" radius="1" result="shadowSpreadOuter1"/><feOffset dx="0" dy="0" in="shadowSpreadOuter1" result="shadowOffsetOuter1"/><feMorphology in="SourceAlpha" operator="erode" radius="1.5" result="shadowInner"/><feOffset dx="0" dy="0" in="shadowInner" result="shadowInner"/><feComposite in="shadowOffsetOuter1" in2="shadowInner" operator="out" result="shadowOffsetOuter1"/><feColorMatrix in="shadowOffsetOuter1" type="matrix" values="0 0 0 0 1   0 0 0 0 1   0 0 0 0 1  0 0 0 1 0"/></filter><path id="c" d="m45.8345894 54.5730535c0 .8690239-.6981524 1.5743186-1.558376 1.5743186h-20.2588885c-.8602236 0-1.5583761-.7052947-1.5583761-1.5743186v-14.9560258c0-.8690238.6981525-1.5743185 1.5583761-1.5743185h20.2588885c.8602236 0 1.558376.7052947 1.558376 1.5743185z"/><filter id="d" height="155.2%" width="142.8%" x="-21.4%" y="-27.6%"><feMorphology in="SourceAlpha" operator="dilate" radius="2" result="shadowSpreadOuter1"/><feOffset dx="0" dy="0" in="shadowSpreadOuter1" result="shadowOffsetOuter1"/><feComposite in="shadowOffsetOuter1" in2="SourceAlpha" operator="out" result="shadowOffsetOuter1"/><feColorMatrix in="shadowOffsetOuter1" type="matrix" values="0 0 0 0 1   0 0 0 0 1   0 0 0 0 1  0 0 0 1 0"/></filter><circle id="e" cx="9.515358" cy="9.515358" r="9.515358"/><filter id="f" height="136.8%" width="136.8%" x="-18.4%" y="-18.4%"><feMorphology in="SourceAlpha" operator="dilate" radius="1.5" result="shadowSpreadOuter1"/><feOffset dx="0" dy="0" in="shadowSpreadOuter1" result="shadowOffsetOuter1"/><feComposite in="shadowOffsetOuter1" in2="SourceAlpha" operator="out" result="shadowOffsetOuter1"/><feColorMatrix in="shadowOffsetOuter1" type="matrix" values="0 0 0 0 1   0 0 0 0 1   0 0 0 0 1  0 0 0 1 0"/></filter><path id="g" d="m25.0275937 6.36696564c-.2370679-.40640206-.6773368-.7113165-1.1515854-.77905018-.5078897-.06762078-.9820255.06784657-1.3545607.37264812-.609716.54175652-1.3885404.81280412-2.2013445.81280412-1.8626761 0-3.3866839-1.52400773-3.3866839-3.38668385 0-.33878127.0678466-.7113165.1693342-1.01600516.1355803-.47413573.0678466-.9822512-.1693342-1.38865326-.2710475-.4402689-.7113164-.7113165-1.1852264-.81280413-.7113165-.10160051-1.4564998-.1692213-2.2014574-.1692213-7.4846842 0-13.5467354 6.0620512-13.5467354 13.5467354 0 7.4844584 6.0620512 13.5467354 13.5467354 13.5467354s13.5467354-6.062277 13.5467354-13.5467354c0-2.5400129-.7113165-5.01240499-2.0658771-7.17976976z"/><filter id="h" height="125.8%" width="125.8%" x="-12.9%" y="-12.9%"><feMorphology in="SourceAlpha" operator="dilate" radius="1.5" result="shadowSpreadOuter1"/><feOffset dx="0" dy="0" in="shadowSpreadOuter1" result="shadowOffsetOuter1"/><feComposite in="shadowOffsetOuter1" in2="SourceAlpha" operator="out" result="shadowOffsetOuter1"/><feColorMatrix in="shadowOffsetOuter1" type="matrix" values="0 0 0 0 1   0 0 0 0 1   0 0 0 0 1  0 0 0 1 0"/></filter><path id="i" d="m39.8242814 68.7655317-11.0142118 11.0142118v42.6287665h11.0142118zm-6.353321-28.5198819c4.4462315 0 8.0487325-3.5697058 8.0487325-7.9672414 0-4.3985294-3.602501-7.96426-8.0487325-7.96426-4.4492128 0-8.0517138 3.5657306-8.0517138 7.96426 0 4.3975356 3.602501 7.9672414 8.0517138 7.9672414zm33.4679791-7.4683571c0 8.0686083-2.9694546 15.4495116-7.9175517 21.1628296l7.1086039 94.4570777h-63.54513517l6.88897559-92.8063869c-5.86437463-5.8981636-9.47383212-13.9359643-9.47383212-22.8135204 0-18.1059213 14.9814349-32.7772927 33.4709604-32.7772927s33.4679791 14.6713714 33.4679791 32.7772927z"/><filter id="j" height="108.8%" width="119.4%" x="-9.7%" y="-4.4%"><feMorphology in="SourceAlpha" operator="dilate" radius="2.5" result="shadowSpreadOuter1"/><feOffset dx="0" dy="0" in="shadowSpreadOuter1" result="shadowOffsetOuter1"/><feComposite in="shadowOffsetOuter1" in2="SourceAlpha" operator="out" result="shadowOffsetOuter1"/><feColorMatrix in="shadowOffsetOuter1" type="matrix" values="0 0 0 0 1   0 0 0 0 1   0 0 0 0 1  0 0 0 1 0"/></filter></defs><g fill="none" fill-rule="evenodd" transform="translate(1 1)"><g transform="matrix(.96592583 .25881905 -.25881905 .96592583 122.94563 9.8)"><g stroke="#7e818d"><path d="m41.3275215 5.95849663h6.1112786v-1.19169933c0-2.63246381-2.18906-4.7667973-4.8890229-4.7667973h-13.4448129"/><path d="m6.18767 12.146166h25.438197"/><path d="m6.18767 16.958798h25.438197"/><path d="m6.18767 21.77143h15.812933"/><path d="m9.625264 36.438499h6.187669"/><path d="m6.18767 36.438499h2.520902"/><path d="m23.1584887 45.962452h-23.1584887v-41.12429916c0-2.67186991 2.18299227-4.83815284 4.8754713-4.83815284h38.4382157c-2.9313771 0-5.5287844 2.08524387-5.5287844 4.98934511v15.08561229m0 25.8874946h-7.313207"/></g><g stroke-linejoin="round"><use fill="#000" filter="url(#b)" xlink:href="#a"/><use stroke="#7e818d" xlink:href="#a"/></g><g stroke-linejoin="round"><use fill="#000" filter="url(#d)" xlink:href="#c"/><use fill="#d2ecfe" fill-rule="evenodd" stroke="#7e818d" xlink:href="#c"/></g><path d="m33.2029049 42.4854282c-1.0562626.2617763-1.9158726 1.1676812-2.1728618 2.2885599-.3441419 1.497678.3150911 2.8581218 1.397425 3.5292212v2.8200452c0 .8757609.6674269 1.5865233 1.4897922 1.5865233.8231101 0 1.4897921-.7107624 1.4897921-1.5865233v-2.8200452c.8871712-.5497304 1.4897921-1.5619322 1.4897921-2.7327865 0-2.0006059-1.7385874-3.5688842-3.6939396-3.0849946z" fill="#fff" stroke="#7e818d" stroke-linejoin="round"/></g><g transform="matrix(.96592583 -.25881905 .25881905 .96592583 108.307092 94.439528)"><g stroke="#7e818d"><path d="m0 42.4191436v8.0220107c0 4.4297542 8.66615643 8.0220106 20.4537299 8.0220106 11.7875735 0 20.4537299-3.5922564 20.4537299-8.0220106v-8.0220107" fill="#ededed"/><path d="m20.4537299 51.4964562c11.7875735 0 20.4537299-3.5922564 20.4537299-8.0220107 0-4.4297542-8.6661564-8.0220106-20.4537299-8.0220106-11.78757347 0-20.4537299 3.5922564-20.4537299 8.0220106 0 4.4297543 8.66615643 8.0220107 20.4537299 8.0220107z" fill="#ededed"/><path d="m0 31.546729v8.0220107c0 4.4297543 8.66615643 8.0220106 20.4537299 8.0220106 11.7875735 0 20.4537299-3.5922563 20.4537299-8.0220106v-8.0220107" fill="#fff"/><path d="m20.4537299 39.6287975c11.7875735 0 20.4537299-3.5922564 20.4537299-8.0220106 0-4.4297543-8.6661564-8.0220107-20.4537299-8.0220107-11.78757347 0-20.4537299 3.5922564-20.4537299 8.0220107 0 4.4297542 8.66615643 8.0220106 20.4537299 8.0220106z" fill="#fff"/><path d="m0 19.7596041v7.7860692c0 4.2994674 8.66615643 7.7860691 20.4537299 7.7860691 11.7875735 0 20.4537299-3.4866017 20.4537299-7.7860691v-7.7860692" fill="#ededed"/><path d="m20.4537299 27.7816148c11.7875735 0 20.4537299-3.4866018 20.4537299-7.7860692s-8.6661564-7.7860692-20.4537299-7.7860692c-11.78757347 0-20.4537299 3.4866018-20.4537299 7.7860692s8.66615643 7.7860692 20.4537299 7.7860692z" fill="#ededed"/><path d="m0 7.55012767v7.78606913c0 4.2994674 8.66615643 7.7860692 20.4537299 7.7860692 11.7875735 0 20.4537299-3.4866018 20.4537299-7.7860692v-7.78606913" fill="#fff"/><path d="m20.4537299 15.5721383c11.7875735 0 20.4537299-3.4866017 20.4537299-7.78606914 0-4.29946739-8.6661564-7.78606916-20.4537299-7.78606916-11.78757347 0-20.4537299 3.48660177-20.4537299 7.78606916 0 4.29946744 8.66615643 7.78606914 20.4537299 7.78606914z" fill="#fff"/></g><ellipse cx="20.45373" cy="6.606362" fill="#d9d9d9" rx="11.416035" ry="3.775064"/><g stroke="#7e818d" transform="translate(15.697049 18.403436)"><path d="m3.16174717.5v1.32809192h-2.66174717v-1.32809192z"/><path d="m7.9004788.5v1.32809192h-2.66174717v-1.32809192z" fill="#d2ecfe"/></g><g stroke="#7e818d" transform="translate(17.124053 42.374298)"><path d="m.5 12.367659h2.649033v1.241978h-2.649033z"/><path d="m.5.5h2.649033v1.241978h-2.649033z"/></g><g stroke="#7e818d" transform="matrix(-1 0 0 1 27.113084 30.14103)"><path d="m3.16174717.5v1.30395962h-2.66174717v-1.30395962z"/><path d="m5.23873163.5h2.66174717v1.30395962h-2.66174717z" fill="#fff"/></g><g transform="translate(30.819114 35.418981)"><use fill="#000" filter="url(#f)" xlink:href="#e"/><g stroke="#7e818d"><use fill="#d2ecfe" fill-rule="evenodd" xlink:href="#e"/><path d="m12.2075195 9.89144617h-5.39785947l.03878267-2.9688227" stroke-linecap="round" transform="matrix(.64278761 -.76604444 .76604444 .64278761 -3.043576 10.2871)"/></g></g></g><g transform="matrix(.95105652 .30901699 -.30901699 .95105652 17.501508 93.6)"><g stroke="#7e818d"><path d="m14.1857324 42.1737989h-14.1857324v-42.1737989h56.7429294v42.1737989h-14.2002528" stroke-linejoin="round"/><path d="m0 7.412365h56.742929" stroke-linejoin="round"/><path d="m3.833982 3.833982h2.555988" stroke-linejoin="round"/><path d="m8.43476 3.833982h2.555988" stroke-linejoin="round"/><path d="m14.057933 3.833982h2.555988" stroke-linejoin="round"/><path d="m53.4313428 10.7239512v8.2015562h-50.11975621v-8.2015562z" fill="#7c7c7c"/><path d="m46.998226 13.514786 2.875486 2.875486" stroke-linecap="square"/><path d="m.479248.479248 2.875486 2.875486" stroke-linecap="square" transform="matrix(1 0 0 -1 46.518978 16.86952)"/></g><g transform="translate(14.824729 26.071076)"><g fill-rule="nonzero"><use fill="#000" filter="url(#h)" xlink:href="#g"/><use fill="#d2ecfe" stroke="#7e818d" xlink:href="#g"/></g><path d="m17.1802608 15.133532h-7.47406096l.05369982-2.8027728" stroke="#7e818d" stroke-linecap="round" transform="matrix(.64278761 -.76604444 .76604444 .64278761 -5.717346 15.203404)"/></g></g><g stroke="#7e818d" stroke-linejoin="round" transform="matrix(.96592583 -.25881905 .25881905 .96592583 11.6 11.129219)"><path d="m36.9245662 61.8321006v-3.316566c0-2.3174769-1.9761481-4.1957939-4.2422224-4.1957939h-1.2280837v-2.797196c0-2.3174768-.6085716-2.7971959-2.8746459-2.7971959h-1.2280837v-8.3915879l6.8378826-5.5943919v-15.3845777h-6.8378826v5.5943919h-5.4703061v-5.5943919h-6.8378826v5.5943919h-5.47030613v-5.5943919h-6.83788262v15.3845777l6.83788262 5.5943919v8.3915879h-1.22808372c-2.2660743 0-2.87464585.4797191-2.87464585 2.7971959v2.797196h-1.22808372c-2.2660743 0-4.24222238 1.878317-4.24222238 4.1957939v6.9929899h30.9092968" fill="#fff"/><path d="m5.169439 53.597884h13.292844"/><path d="m25.108705 53.597884h5.169439"/><path d="m2.215474 33.498677h16.246809"/><path d="m25.108705 33.498677h8.123405"/><path d="m29.0965581 10.4218107h-10.634275v-8.18856555h13.2928438v4.09428278" fill="#d2ecfe"/><path d="m29.5396529 13.3994709h13.2928439v-6.69973544h-13.2928439z" fill="#d2ecfe"/><path d="m18.462283 16.377131v-16.377131"/></g><g transform="translate(53 12)"><use fill="#000" filter="url(#j)" xlink:href="#i"/><use fill="#1cc691" fill-rule="evenodd" stroke="#7e818d" xlink:href="#i"/></g></g></svg>