<svg height="132" viewBox="0 0 133 132" width="133" xmlns="http://www.w3.org/2000/svg" xmlns:xlink="http://www.w3.org/1999/xlink"><defs><path id="a" d="m63.1764706 84v-13.2631579c0-8.1376842 6.6364941-14.7368421 14.8235294-14.7368421s14.8235294 6.5991579 14.8235294 14.7368421v13.2631579"/><filter id="b" height="148.2%" width="145.5%" x="-22.8%" y="-24.1%"><feMorphology in="SourceAlpha" operator="dilate" radius="3.75" result="shadowSpreadOuter1"/><feOffset dx="0" dy="0" in="shadowSpreadOuter1" result="shadowOffsetOuter1"/><feMorphology in="SourceAlpha" operator="erode" radius="4" result="shadowInner"/><feOffset dx="0" dy="0" in="shadowInner" result="shadowInner"/><feComposite in="shadowOffsetOuter1" in2="shadowInner" operator="out" result="shadowOffsetOuter1"/><feColorMatrix in="shadowOffsetOuter1" type="matrix" values="0 0 0 0 1   0 0 0 0 1   0 0 0 0 1  0 0 0 1 0"/></filter></defs><g fill="none" fill-rule="evenodd"><g transform="translate(22 1)"><path d="m95.8974359 14.0338983h14.1025641v-2.8067797c0-6.20017623-5.051538-11.2271186-11.2820513-11.2271186h-31.025641" fill="#d8d8d8" stroke="#7e818d" stroke-width="1.5"/><path d="m39.6051373 106.657627h-39.6051373v-95.4305084c0-6.20017623 5.05153846-11.2271186 11.2820513-11.2271186h88.9476927c-6.7833337 0-12.7938466 4.83888814-12.7938466 11.5779661v35.00674m0 60.0729209h-16.9230769" fill="#fff" stroke="#7e818d" stroke-width="1.5"/><g stroke-linejoin="round"><use fill="#000" filter="url(#b)" xlink:href="#a"/><use stroke="#7e818d" stroke-width="1.5" xlink:href="#a"/></g><g stroke="#7e818d" stroke-width="1.5"><path d="m106 126.347826c0 2.016-1.6128 3.652174-3.6 3.652174h-46.8c-1.9872 0-3.6-1.636174-3.6-3.652174v-34.6956521c0-2.016 1.6128-3.6521739 3.6-3.6521739h46.8c1.9872 0 3.6 1.6361739 3.6 3.6521739z" fill="#e7e7e7" stroke-linejoin="round"/><path d="m106 126.347826c0 2.016-1.6128 3.652174-3.6 3.652174h-46.8c-1.9872 0-3.6-1.636174-3.6-3.652174v-34.6956521c0-2.016 1.6128-3.6521739 3.6-3.6521739h46.8c1.9872 0 3.6 1.6361739 3.6 3.6521739z" stroke-linejoin="round"/><path d="m77.3207715 98.205802c-2.4817798.6092083-4.5015075 2.717438-5.1053256 5.325957-.8085911 3.48541.7403335 6.651447 3.2833702 8.213235v6.562835c0 2.038078 1.5681768 3.692171 3.5003946 3.692171 1.9339681 0 3.5003947-1.654093 3.5003947-3.692171v-6.562835c2.084485-1.279337 3.5003946-3.634942 3.5003946-6.359765 0-4.655828-4.0849605-8.3055393-8.6792285-7.179427z" fill="#fff" stroke-linejoin="round"/><path d="m14.102564 28.067797h59.230769"/><path d="m14.102564 39.294915h59.230769"/><path d="m14.102564 50.522034h36.666667"/><path d="m22.564103 84.20339h14.102564"/><path d="m14.102564 84.20339h5.641026"/></g></g><g transform="translate(0 32)"><circle cx="21" cy="21" fill="#1cc691" r="21"/><path d="m26.1451613 21.1818028-9.7550986-.0190301.0629524-3.6605419" stroke="#fff" stroke-linecap="round" stroke-width="2" transform="matrix(.64278761 -.76604444 .76604444 .64278761 -7.21979 23.201144)"/></g></g></svg>