<svg height="124" viewBox="0 0 371 124" width="371" xmlns="http://www.w3.org/2000/svg" xmlns:xlink="http://www.w3.org/1999/xlink"><defs><path id="a" d="m23.5995742 40.9132972-6.5269404 6.5531046v25.3627558h6.5269404zm-3.764931-16.9684197c2.6348039 0 4.7696192-2.123861 4.7696192-4.7402544 0-2.6169847-2.1348153-4.7384806-4.7696192-4.7384806-2.6365706 0-4.7713859 2.1214959-4.7713859 4.7384806 0 2.6163934 2.1348153 4.7402544 4.7713859 4.7402544zm19.8328765-4.4434342c0 4.8005645-1.7596768 9.1919664-4.6918825 12.5912084l4.212506 56.1989473h-37.65637636l4.0823559-55.216839c-3.47518497-3.5092191-5.61412274-8.2914541-5.61412274-13.5733167 0-10.77244544 8.87788737-19.5014433 19.8346432-19.5014433 10.9567559 0 19.8328765 8.72899786 19.8328765 19.5014433z"/><filter id="b" height="107.9%" width="117.6%" x="-8.8%" y="-4%"><feMorphology in="SourceAlpha" operator="dilate" radius="1.5" result="shadowSpreadOuter1"/><feOffset dx="0" dy="0" in="shadowSpreadOuter1" result="shadowOffsetOuter1"/><feComposite in="shadowOffsetOuter1" in2="SourceAlpha" operator="out" result="shadowOffsetOuter1"/><feColorMatrix in="shadowOffsetOuter1" type="matrix" values="0 0 0 0 1   0 0 0 0 1   0 0 0 0 1  0 0 0 1 0"/></filter></defs><g fill="none" fill-rule="evenodd" transform="translate(1 1)"><g stroke="#7e818d"><path d="m151 60.6575186v58.3424814c0 1.656854-1.343146 3-3 3h-145c-1.65685425 0-3-1.343146-3-3v-116c0-1.65685425 1.34314575-3 3-3h145c1.656854 0 3 1.34314575 3 3v27.0786124" stroke-linecap="round" stroke-linejoin="round"/><path d="m12.5 13.5h5" stroke-linecap="round" stroke-linejoin="round"/><path d="m21.5 13.5h5" stroke-linecap="round" stroke-linejoin="round"/><path d="m30.5 13.5h5" stroke-linecap="round" stroke-linejoin="round"/><path d="m.5 26.5h45" stroke-linecap="square"/><path d="m105.5 26.5h45" stroke-linecap="round" stroke-linejoin="round"/></g><g transform="translate(53 14)"><use fill="#000" filter="url(#b)" xlink:href="#a"/><use fill="#1cc691" fill-rule="evenodd" stroke="#7e818d" xlink:href="#a"/></g><rect height="122" rx="3" stroke="#7e818d" width="151" x="218"/><path d="m218.5 26.5h45" stroke="#7e818d" stroke-linecap="round" stroke-linejoin="round"/><path d="m323.5 26.5h45" stroke="#7e818d" stroke-linecap="round" stroke-linejoin="round"/><rect fill="#fff" height="50" rx="3" stroke="#7e818d" width="136" x="107" y="50"/><g stroke="#7e818d" stroke-linecap="round" stroke-linejoin="round"><path d="m153.5 64.5h27" opacity=".468442"/><g transform="translate(136 30.5)"><path d="m10.5 7h29"/><path d="m38.1502072 2.5v9h-9" transform="matrix(.70710678 -.70710678 .70710678 .70710678 4.90617 25.844542)"/><path d="m.5 7h6"/></g><g transform="translate(181 107.795455)"><path d="m7.266667 4.704545h15.466666"/><path d="m22.1855545 1.56818182v6.27272727h-6.2727273" transform="matrix(.70710678 -.70710678 .70710678 .70710678 2.252763 14.847741)"/><path d="m.277778 4.704545h4.444444"/></g><path d="m206.5 64.5h15"/><path d="m185.5 64.5h15"/><path d="m153.5 74.5h33"/><path d="m190.5 74.5h19" opacity=".468442"/><path d="m153.5 79.5h19" opacity=".468442"/><path d="m153.5 84.5h24"/><path d="m181.5 84.5h16" opacity=".648597"/><path d="m153.5 69.5h14"/><path d="m172.5 69.5h14"/></g><g stroke="#7e818d"><circle cx="132" cy="75" fill="#d2ecfe" r="14"/><g stroke-linecap="round" stroke-linejoin="round" transform="translate(123 67)"><path d="m10.719983.803419-3.428571 15.111111"/><path d="m1.76638796 11.9192344.08689792-5.61626249c.01671576-1.0803492.88847004-1.95210348 1.96881924-1.96881924l5.61626251-.08689792" transform="matrix(.70710678 -.70710678 .70710678 .70710678 -4.074819 6.329007)"/><path d="m8.56995939 11.9192344.08689792-5.61626249c.01671576-1.0803492.88847004-1.95210348 1.96881929-1.96881924l5.6162625-.08689792" transform="matrix(-.70710678 -.70710678 -.70710678 .70710678 26.893997 11.139858)"/></g></g><g fill-rule="nonzero" transform="translate(258 25)"><g fill="#676767"><path d="m33 0c-18.1959228 0-33 14.8040772-33 33s14.8040772 33 33 33 33-14.8040772 33-33-14.8040772-33-33-33zm0 63.25c-16.6799317 0-30.25-13.5700683-30.25-30.25s13.5700683-30.25 30.25-30.25 30.25 13.5700683 30.25 30.25-13.5700683 30.25-30.25 30.25z"/><path d="m8.2830858 22c-1.46012055 3.3678858-2.2830858 7.0797686-2.2830858 10.9864491 0 11.1210638 6.5805715 20.6981643 16 25.0135509l-12.53260687-36z"/><path d="m21.8849214 20.9687708c0 .7521595-.6200711 1.3607973-1.3863598 1.3607973h-.7997968l7.7735658 23.6704319c1.4168218-3.9656147 2.8745982-8.086711 4.0059233-11.3775749l-4.409545-12.292857h-1.0247081c-.7662888 0-1.3863598-.6086378-1.3863598-1.3607973s.620071-1.3607974 1.3863598-1.3607974h12.4772381c.7662887 0 1.3863598.6086379 1.3863598 1.3607974s-.6200711 1.3607973-1.3863598 1.3607973h-.5425622l7.7735659 23.6704319c1.6111017-4.5076412 3.2858352-9.2451829 4.4582841-12.7003322.5320696-2.6112958-1.5325775-5.8923589-3.3657134-8.8039868-1.425622-2.2657807-2.6576411-4.2232558-2.6576411-5.8936876 0-5.0963455 3.0218312-5.8578075 4.8224741-5.8578075 1.0854629 0 2.0781858.2850498 2.9903537.7249169-4.9705532-4.61611279-11.6574714-7.4691028-19.0242003-7.4691028-10.236419 0-19.1727872 5.486877-23.9757997 13.6079734h11.4985616c.7662887 0 1.3863598.6086379 1.3863598 1.3607974z"/><path d="m25 59.9702579c2.3921697.6531429 4.9003193 1.0297421 7.5011153 1.0297421 2.6001098 0 5.1074015-.3764303 7.4988847-1.0292359l-7.5078062-20.9707641c-2.6850359 7.6877168-6.2562194 17.5621376-7.4921938 20.9702579z"/><path d="m54.9005596 17c1.1103833 3.5154217-.2520206 9.4992717-1.6958342 14.1146991-.2347773.7529093-.5265908 1.6547898-.8595235 2.6680633-.0318343.1382347-.0676475.2764692-.1087669.414704-.0305079.1060246-.0742799.2066809-.1273368.2992847-2.3136166 6.980683-6.3058238 18.3781651-8.1090982 23.5032489 9.4197723-4.3196655 16-13.9019787 16-25.0291984 0-5.9581826-1.9035854-11.4635795-5.0994404-15.9708016z"/></g><path d="m33 0c-18.1959228 0-33 14.8040772-33 33s14.8040772 33 33 33 33-14.8040772 33-33-14.8040772-33-33-33z"/></g><path d="m227.5 13.5h5" stroke="#7e818d" stroke-linecap="round" stroke-linejoin="round"/><path d="m236.5 13.5h5" stroke="#7e818d" stroke-linecap="round" stroke-linejoin="round"/><path d="m245.5 13.5h5" stroke="#7e818d" stroke-linecap="round" stroke-linejoin="round"/></g></svg>