<?xml version="1.0" encoding="utf-8"?>
<!-- Generator: Adobe Illustrator 16.0.0, SVG Export Plug-In . SVG Version: 6.00 Build 0)  -->
<!DOCTYPE svg PUBLIC "-//W3C//DTD SVG 1.1//EN" "http://www.w3.org/Graphics/SVG/1.1/DTD/svg11.dtd">
<svg version="1.1" id="Layer_1" xmlns="http://www.w3.org/2000/svg" xmlns:xlink="http://www.w3.org/1999/xlink" x="0px" y="0px"
	 width="16.593px" height="19.033px" viewBox="0 0 16.593 19.033" enable-background="new 0 0 16.593 19.033" xml:space="preserve">
<g id="Icon_copy_2">
	<g>
		<path fill="#FFFFFF" stroke="#FFFFFF" stroke-width="0.4" stroke-miterlimit="10" d="M0.815,17.304V1.731
			c0-0.508,0.413-0.919,0.922-0.919h5.418h3.807v1.433c0,0.844,0.688,1.53,1.535,1.53h1.438v4.547h0.615V6.558l0,0V3.342L11.396,0.2
			h-0.127h-9.53C0.889,0.2,0.2,0.887,0.2,1.731v15.572c0,0.846,0.688,1.529,1.537,1.529h3.471v-0.611H1.737
			C1.228,18.222,0.815,17.81,0.815,17.304z M11.575,1.245l1.926,1.917h-1.004c-0.509,0-0.922-0.411-0.922-0.918V1.245z M3.01,6.966
			h1.718V6.353H3.01V6.966z M4.09,6.966h0.718V6.353H4.09V6.966z M11.712,6.353H6.507v0.612h5.205V6.353z M3.126,11.993
			c0.082,0.106,0.204,0.161,0.327,0.161c0.085,0,0.173-0.027,0.25-0.084l1.438-1.087c0.101-0.081,0.163-0.198,0.163-0.327
			c0-0.13-0.062-0.25-0.163-0.325L3.703,9.244c-0.182-0.136-0.44-0.098-0.578,0.081C2.986,9.502,3.024,9.761,3.206,9.899
			l1.007,0.757l-1.008,0.763C3.024,11.556,2.989,11.812,3.126,11.993z M15.501,13.375c-0.007-0.078-0.019-0.158-0.029-0.234
			c-0.359-2.239-2.312-3.958-4.663-3.958c-1.862,0-3.478,1.08-4.247,2.643l0.522,0.681c0.563-1.5,2.02-2.573,3.727-2.573
			c1.938,0,3.554,1.386,3.902,3.213c0.019,0.076,0.026,0.155,0.037,0.231h-0.726l0.012,0.017l1.072,1.396l1.081-1.409L15.501,13.375
			L15.501,13.375z M10.806,17.845c-1.935,0-3.55-1.389-3.901-3.214c-0.016-0.077-0.025-0.157-0.038-0.233h0.727l-0.012-0.017
			L6.51,12.985l-1.081,1.407H6.11c0.009,0.078,0.021,0.161,0.032,0.236c0.36,2.239,2.312,3.957,4.662,3.957
			c1.864,0,3.479-1.078,4.246-2.643l-0.521-0.681C13.968,16.771,12.511,17.845,10.806,17.845z"/>
	</g>
</g>
</svg>
