<svg width="30" height="30" viewBox="0 0 30 30" fill="none" xmlns="http://www.w3.org/2000/svg">
<path d="M6.53024 22.9676C5.6875 22.9676 5 22.2801 5 21.4374C5 20.5947 5.6875 19.9072 6.53024 19.9072C7.37298 19.9072 8.06048 20.5947 8.06048 21.4374C8.06048 22.2801 7.37298 22.9676 6.53024 22.9676ZM6.53024 20.7499C6.15323 20.7499 5.84274 21.0604 5.84274 21.4374C5.84274 21.8144 6.15323 22.1249 6.53024 22.1249C6.90726 22.1249 7.21774 21.8144 7.21774 21.4374C7.21774 21.0604 6.90726 20.7499 6.53024 20.7499Z" fill="white"/>
<path d="M20.7334 12.123C19.3251 12.123 18.1719 10.9698 18.1719 9.56149C18.1719 8.15323 19.3251 7 20.7334 7C22.1416 7 23.2949 8.15323 23.2949 9.56149C23.2949 10.9698 22.1527 12.123 20.7334 12.123ZM20.7334 7.85383C19.7908 7.85383 19.0257 8.61895 19.0257 9.56149C19.0257 10.504 19.7908 11.2692 20.7334 11.2692C21.6759 11.2692 22.441 10.504 22.441 9.56149C22.4521 8.61895 21.687 7.85383 20.7334 7.85383V7.85383Z" fill="white"/>
<path d="M24.0731 18.6429H7.90575C6.91885 18.6429 6.10938 17.8335 6.10938 16.8466V15.2831C6.10938 14.2962 6.91885 13.4867 7.90575 13.4867H24.0842C25.0711 13.4867 25.8805 14.2962 25.8805 15.2831V16.8466C25.8695 17.8446 25.0711 18.6429 24.0731 18.6429ZM7.90575 14.3516C7.38458 14.3516 6.96321 14.773 6.96321 15.2942V16.8577C6.96321 17.3788 7.38458 17.8002 7.90575 17.8002H24.0842C24.6053 17.8002 25.0267 17.3788 25.0267 16.8577V15.2942C25.0267 14.773 24.6053 14.3516 24.0842 14.3516H7.90575Z" fill="white"/>
</svg>
