<svg xmlns="http://www.w3.org/2000/svg" width="72" height="72" fill="none" ><rect x=".6" y=".6" width="70.8" height="70.8" rx="2.4" fill="#fff"/><rect x=".6" y=".6" width="70.8" height="70.8" rx="2.4" stroke="#8796a1" stroke-width="1.2"/><path d="M10 16a6 6 0 0 1 6-6h40a6 6 0 0 1 6 6v40.001a6 6 0 0 1-6 6H16a6 6 0 0 1-6-6V16z" fill="#58707f"/><path fill-rule="evenodd" d="M36.076 44.395l-2.154 1.783c.669 3.566 1.486 6.983 2.154 10.326l2.08-10.326c-.743-.52-1.411-1.189-2.08-1.783zm-.148-2.823c-4.532 0-8.32-4.606-8.32-10.251-.817-2.08-.297-9.286 4.531-9.137 5.349-2.749 9.137.297 11.737 2.08.966 1.931 1.486 4.903.446 6.686.074 5.869-3.64 10.623-8.394 10.623zm0-1.114c-3.937 0-7.206-4.086-7.206-9.137 0-.817.149-1.486.149-2.08.52-1.337 1.783-2.08 2.749-1.263 3.269 2.749 7.206 2.6 10.92 2.08.966-.149.817.966.669 1.783-.223 4.68-3.343 8.617-7.28 8.617zM18.916 62.001c0-3.937.149-7.874 0-11.737 0-3.269 1.486-3.937 3.937-4.754l6.24-2.303c.52-.52 1.114-1.263 1.486-1.783 1.783.669 3.714 1.486 5.423 2.154 1.783-.669 3.566-1.486 5.349-2.154.52.52.966 1.263 1.486 1.783l6.389 2.303c2.451.817 3.789 1.486 3.789 4.754v11.737H18.916zm17.457-3.789l6.389-14.337c.446.669.966 1.486 1.486 2.154-.817.817-1.634 1.634-2.303 2.452.52.669 1.263 1.337 1.931 2.08-2.526 2.451-4.977 5.051-7.503 7.651zm-.743 0l-6.24-14.337c-.52.669-1.114 1.486-1.486 2.154.669.817 1.486 1.634 2.303 2.452l-2.08 2.08c2.526 2.451 5.051 5.051 7.503 7.651z" fill="#fff"/></svg>