<?xml version="1.0" encoding="utf-8"?>
<svg version="1.1" xmlns="http://www.w3.org/2000/svg" xmlns:xlink="http://www.w3.org/1999/xlink" x="0px" y="0px" viewBox="0 0 1544 166">
<g> <path d="M89.2,18h30L76.8,97.3v47.6H50.4V97.3L6.5,18h31.2L64,73.2L89.2,18z"/> <path d="M170.7,18h30l44.9,126.8h-28.7l-8.4-26.1h-46.7l-8.6,26.1h-27.7L170.7,18z M168.9,96.9h32.5l-16-49.9L168.9,96.9z"/> <path d="M261.5,144.8V18h26.3v48.4h49.3V18h26.3v126.8h-26.3V88.2h-49.3v56.6H261.5z"/> <path d="M473,18h38.1v126.8h-24.7V59c0-2.5,0-5.9,0.1-10.4c0.1-4.4,0.1-7.9,0.1-10.3l-24,106.4h-25.8L413,38.4 	c0,2.4,0,5.8,0.1,10.3c0.1,4.4,0.1,7.9,0.1,10.4v85.8h-24.7V18H427l23.1,99.7L473,18z"/> <path d="M571.9,18h30l44.9,126.8h-28.7l-8.4-26.1H563l-8.6,26.1h-27.7L571.9,18z M570.2,96.9h32.5l-16-49.9L570.2,96.9z"/> <path d="M662.5,18h27.8l50.3,88.4V18h24.7v126.8h-26.5l-51.6-90v90h-24.7V18z"/> <path d="M875.4,18h30l44.9,126.8h-28.7l-8.4-26.1h-46.7l-8.6,26.1h-27.7L875.4,18z M873.6,96.9h32.5l-16-49.9L873.6,96.9z"/> <path d="M1014.1,52.5c4.4,2.5,8,6,10.8,10.4V18.2h24.9v126.6h-23.8v-13c-3.5,5.6-7.5,9.6-12,12.1s-10,3.8-16.7,3.8 	c-11,0-20.2-4.4-27.7-13.3c-7.5-8.9-11.2-20.2-11.2-34.1c0-16,3.7-28.6,11.1-37.8c7.4-9.2,17.2-13.8,29.6-13.8 	C1004.7,48.8,1009.7,50,1014.1,52.5z M1020.1,119.4c3.6-5.2,5.4-11.8,5.4-20c0-11.5-2.9-19.7-8.7-24.6c-3.6-3-7.7-4.5-12.4-4.5 	c-7.2,0-12.4,2.7-15.8,8.1c-3.4,5.4-5,12.1-5,20.2c0,8.7,1.7,15.6,5.1,20.8c3.4,5.2,8.6,7.8,15.5,7.8S1016.5,124.5,1020.1,119.4z" 	/> <path d="M1121.8,52.5c4.4,2.5,8,6,10.8,10.4V18.2h24.9v126.6h-23.8v-13c-3.5,5.6-7.5,9.6-12,12.1s-10,3.8-16.7,3.8 	c-11,0-20.2-4.4-27.7-13.3c-7.5-8.9-11.2-20.2-11.2-34.1c0-16,3.7-28.6,11.1-37.8c7.4-9.2,17.2-13.8,29.6-13.8 	C1112.3,48.8,1117.3,50,1121.8,52.5z M1127.8,119.4c3.6-5.2,5.4-11.8,5.4-20c0-11.5-2.9-19.7-8.7-24.6c-3.6-3-7.7-4.5-12.4-4.5 	c-7.2,0-12.4,2.7-15.8,8.1c-3.4,5.4-5,12.1-5,20.2c0,8.7,1.7,15.6,5.1,20.8c3.4,5.2,8.6,7.8,15.5,7.8S1124.2,124.5,1127.8,119.4z" 	/> <path d="M1172.3,84.1h48v23.2h-48V84.1z"/> <path d="M1316.5,133.3c-7.9,9.8-19.9,14.7-36,14.7c-16.1,0-28.1-4.9-36-14.7c-7.9-9.8-11.9-21.5-11.9-35.3c0-13.5,4-25.2,11.9-35.2 	c7.9-9.9,19.9-14.9,36-14.9c16.1,0,28.1,5,36,14.9c7.9,9.9,11.9,21.6,11.9,35.2C1328.4,111.8,1324.5,123.6,1316.5,133.3z 	 M1296.9,119.8c3.8-5.1,5.8-12.3,5.8-21.7c0-9.4-1.9-16.6-5.8-21.7c-3.8-5.1-9.3-7.6-16.5-7.6c-7.2,0-12.7,2.5-16.6,7.6 	c-3.9,5.1-5.8,12.3-5.8,21.7c0,9.4,1.9,16.6,5.8,21.7c3.9,5.1,9.4,7.6,16.6,7.6C1287.6,127.4,1293.1,124.9,1296.9,119.8z"/> <path d="M1421.6,56.4c6.1,5.1,9.2,13.5,9.2,25.3v63.2h-25.1v-57c0-4.9-0.7-8.7-2-11.4c-2.4-4.8-6.9-7.2-13.7-7.2 	c-8.3,0-13.9,3.5-17,10.6c-1.6,3.7-2.4,8.5-2.4,14.3v50.8h-24.5V51.2h23.7v13.7c3.1-4.8,6.1-8.3,8.9-10.4c5-3.8,11.4-5.7,19.1-5.7 	C1407.6,48.8,1415.4,51.3,1421.6,56.4z"/> <path d="M1472.6,114.9c0.5,4.4,1.6,7.5,3.4,9.3c3.1,3.3,8.7,4.9,16.9,4.9c4.8,0,8.7-0.7,11.5-2.2c2.9-1.4,4.3-3.6,4.3-6.5 	c0-2.8-1.1-4.8-3.4-6.3c-2.3-1.4-10.8-3.9-25.7-7.4c-10.7-2.6-18.2-5.9-22.5-9.9c-4.4-3.9-6.5-9.5-6.5-16.9 	c0-8.7,3.4-16.1,10.2-22.3c6.8-6.2,16.4-9.3,28.8-9.3c11.7,0,21.3,2.3,28.7,7c7.4,4.7,11.6,12.7,12.7,24.2h-24.5 	c-0.3-3.2-1.2-5.6-2.7-7.5c-2.7-3.3-7.3-5-13.8-5c-5.3,0-9.2,0.8-11.4,2.5c-2.3,1.7-3.4,3.6-3.4,5.9c0,2.8,1.2,4.8,3.6,6.1 	c2.4,1.3,10.9,3.6,25.6,6.8c9.8,2.3,17.1,5.8,22,10.4c4.8,4.7,7.2,10.6,7.2,17.6c0,9.3-3.5,16.9-10.4,22.8 	c-6.9,5.9-17.6,8.8-32.1,8.8c-14.8,0-25.7-3.1-32.7-9.3c-7-6.2-10.6-14.2-10.6-23.8H1472.6z"/>
</g>
</svg>
