<svg xmlns="http://www.w3.org/2000/svg" xmlns:xlink="http://www.w3.org/1999/xlink" width="57" height="44.178" viewBox="0 0 57 44.178">
  <defs>
    <clipPath id="clip-path">
      <rect id="Rectangle_904" data-name="Rectangle 904" width="44.721" height="38.478" transform="translate(0 0)" fill="#ccf"/>
    </clipPath>
  </defs>
  <g id="Group_2969" data-name="Group 2969" transform="translate(-1195 -157)">
    <g id="checkout_icon" data-name="checkout icon" transform="translate(1195 162.7)">
      <g id="Group_2870" data-name="Group 2870" clip-path="url(#clip-path)">
        <path id="Path_2368" data-name="Path 2368" d="M21.219,31.222a3.628,3.628,0,1,0,3.628,3.628,3.633,3.633,0,0,0-3.628-3.628m0,5.256a1.628,1.628,0,1,1,1.628-1.628,1.63,1.63,0,0,1-1.628,1.628m11.062-5.256a3.628,3.628,0,1,0,3.628,3.628,3.633,3.633,0,0,0-3.628-3.628m0,5.256a1.628,1.628,0,1,1,1.628-1.628,1.63,1.63,0,0,1-1.628,1.628M14.839,24.631l24.788-4.41,5.1-14.942H8.995L7.355,0H0V2H5.882L7.318,6.622l.013,0,5.508,17.33V28.77H39.8v-2H14.839ZM9.64,7.279H41.927l-3.812,11.18L14.527,22.654Z" fill="#ccf"/>
      </g>
    </g>
    <g id="Group_2968" data-name="Group 2968" transform="translate(361 -236)">
      <circle id="Ellipse_117" data-name="Ellipse 117" cx="12.5" cy="12.5" r="12.5" transform="translate(866 393)" fill="#635cff"/>
      <path id="Path_2429" data-name="Path 2429" d="M13.445,0,5.871,7.573,2.029,3.731,0,5.761l5.872,5.872,9.6-9.6Z" transform="translate(871.001 400)" fill="#fff"/>
    </g>
  </g>
</svg>
