<svg xmlns="http://www.w3.org/2000/svg" viewBox="0 0 97 88.79"><title>testimonial</title><g id="Layer_2" data-name="Layer 2"><g id="Layer_1-2" data-name="Layer 1"><path d="M73.76,73A28.12,28.12,0,1,0,24.67,75.6l-4.2,11.17a1.49,1.49,0,0,0,1.41,2,1.18,1.18,0,0,0,.26,0l14.47-2.62A28.21,28.21,0,0,0,73.76,73ZM36.82,83.09a1.24,1.24,0,0,0-.27,0L24.21,85.35,27.74,76a1.52,1.52,0,0,0-.15-1.36,25.12,25.12,0,0,1,20.9-39v0a25.11,25.11,0,1,1-11,47.68A1.37,1.37,0,0,0,36.82,83.09Z"/><path d="M22.88,33.23a2.31,2.31,0,0,0-.47-1.72,2.27,2.27,0,0,0-1.52-.89l-5-.74-2.28-4.6a2.33,2.33,0,0,0-4.2,0L7.09,29.88l-4.94.73A2.33,2.33,0,0,0,0,33a2.3,2.3,0,0,0,.72,1.62l3.67,3.55-.87,5.12a2.34,2.34,0,0,0,1.62,2.64,2.25,2.25,0,0,0,1.78-.17l4.55-2.4L16,45.75A2.35,2.35,0,0,0,19,45a2.31,2.31,0,0,0,.39-1.75l-.87-5.06,3.61-3.59A2.38,2.38,0,0,0,22.88,33.23Zm-6.66,3.06a2.3,2.3,0,0,0-.69,2.09l.71,4.1-3.71-2a2.42,2.42,0,0,0-2.16,0L6.7,42.48l.71-4.16a2.32,2.32,0,0,0-.68-2.08l-3-2.84,4-.6a2.27,2.27,0,0,0,1.81-1.28l1.85-3.73,1.82,3.67a2.26,2.26,0,0,0,1.78,1.33l4.07.61Z"/><path d="M59.93,9.28h0a2.31,2.31,0,0,0-.47-1.72A2.34,2.34,0,0,0,58,6.68L52.9,5.93l-2.28-4.6A2.33,2.33,0,0,0,47.72.14a2.29,2.29,0,0,0-1.3,1.18L44.14,5.93l-4.94.74a2.32,2.32,0,0,0-1.43,4l3.67,3.55-.87,5.12A2.34,2.34,0,0,0,42.19,22a2.35,2.35,0,0,0,.69.1A2.29,2.29,0,0,0,44,21.81l4.55-2.4,4.54,2.4a2.4,2.4,0,0,0,1.51.24,2.34,2.34,0,0,0,1.9-2.71l-.87-5.07,3.61-3.58A2.32,2.32,0,0,0,59.93,9.28Zm-6.65,3.07a2.27,2.27,0,0,0-.7,2.08l.71,4.1-3.71-2a2.42,2.42,0,0,0-2.16,0l-3.67,1.94.71-4.16a2.3,2.3,0,0,0-.68-2.08l-3-2.84,4-.6a2.26,2.26,0,0,0,1.8-1.29l1.85-3.73,1.82,3.67a2.27,2.27,0,0,0,1.78,1.34l4.08.6Z"/><path d="M97,33.23a2.34,2.34,0,0,0-.46-1.72A2.31,2.31,0,0,0,95,30.62l-5-.74-2.28-4.61a2.32,2.32,0,0,0-1.12-1.11,2.29,2.29,0,0,0-1.78-.07,2.26,2.26,0,0,0-1.29,1.17l-2.29,4.62-4.94.73A2.33,2.33,0,0,0,74.1,33a2.28,2.28,0,0,0,.72,1.62l3.67,3.55-.87,5.12a2.36,2.36,0,0,0,.24,1.5,2.3,2.3,0,0,0,1.38,1.14A2.27,2.27,0,0,0,81,45.75l4.54-2.4,4.54,2.4a2.39,2.39,0,0,0,1.51.24,2.35,2.35,0,0,0,1.51-1,2.31,2.31,0,0,0,.39-1.75l-.87-5.07,3.61-3.58A2.32,2.32,0,0,0,97,33.23Zm-6.65,3.06a2.28,2.28,0,0,0-.7,2.09l.71,4.1-3.71-2a2.42,2.42,0,0,0-2.16,0L80.8,42.48l.71-4.16a2.3,2.3,0,0,0-.68-2.08l-3-2.84,4-.6a2.27,2.27,0,0,0,1.81-1.28l1.85-3.73,1.82,3.67a2.26,2.26,0,0,0,1.78,1.33l4.08.61Z"/></g></g></svg>