<svg xmlns="http://www.w3.org/2000/svg" viewBox="0 0 140 60" xmlns:v="https://vecta.io/nano"><path d="M0 0h140v60H0z" fill="#f7f8f9" stroke="#d2d2d2" stroke-miterlimit="10"/><path d="M14 17.9h23.7v4.5H14zm5 7.4h13.6V28H19zM17.6 30H34v2.7H17.6zm.9 4.7h14.6v2.7H18.5zm-.9 4.7H34v2.7H17.6zm25.9-21.5h23.7v4.5H43.5zm5 7.4h13.6V28H48.5zM47.2 30h16.4v2.7H47.2zm.9 4.7h14.6v2.7H48.1zm-.9 4.7h16.4v2.7H47.2zm25.9-21.5h23.7v4.5H73.1zm5 7.4h13.6V28H78.1zM76.7 30h16.4v2.7H76.7zm.9 4.7h14.6v2.7H77.6zm-.9 4.7h16.4v2.7H76.7zm25.9-21.5h23.7v4.5h-23.7zm5 7.4h13.6V28h-13.6zm-1.3 4.7h16.4v2.7h-16.4zm.9 4.7h14.6v2.7h-14.6zm-.9 4.7h16.4v2.7h-16.4z" fill="#bdc5cb"/></svg>