<svg xmlns="http://www.w3.org/2000/svg" viewBox="0 0 70 70" xmlns:v="https://vecta.io/nano"><path fill="#bcc5cb" d="M0 0h70v70H0z"/><path d="M9.3 32.2c-.4 0-.8-.1-1.1-.2-.4-.1-.6-.4-.8-.7-.3-.4-.4-.8-.4-1.4v-2.8c0-.6.1-1 .3-1.3s.5-.6.8-.7c.4-.1.7-.2 1.2-.2a3.73 3.73 0 0 1 1.2.2 1.85 1.85 0 0 1 .8.7 1.69 1.69 0 0 1 .3 1c0 .3-.1.4-.2.5s-.3.1-.5.1-.3 0-.5-.1c-.1-.1-.2-.2-.2-.3v-.3c0-.1-.1-.2-.1-.3l-.3-.3c0-.1-.2-.1-.4-.1-.3 0-.6.1-.8.3s-.3.5-.3.9V30c0 .4.1.7.3.9s.5.3.8.3c.2 0 .4 0 .5-.1l.3-.3c.1-.1.1-.2.1-.3s0-.2.1-.3c0-.2.1-.3.2-.3.1-.1.3-.1.4-.1.2 0 .4 0 .5.1s.2.3.2.5c0 .4-.1.8-.3 1-.2.3-.5.5-.8.7-.4 0-.8.1-1.3.1zm5.3 0c-.4 0-.8-.1-1.1-.3s-.6-.4-.8-.8a1.69 1.69 0 0 1-.3-1v-2.4c0-.1.1-.2.2-.3s.3-.1.5-.1.3 0 .4.1.2.2.2.3v2.4c0 .2 0 .3.1.4l.3.3c.1.1.3.1.4.1.2 0 .3 0 .4-.1l.3-.3c.1-.1.1-.3.1-.4v-2.4c0-.1.1-.2.2-.3s.3-.1.4-.1c.2 0 .4 0 .5.1s.2.2.2.3v2.4a1.69 1.69 0 0 1-.3 1c-.2.3-.5.6-.8.7s-.5.4-.9.4zm4.7 0c-.3 0-.6 0-.9-.1s-.5-.2-.6-.3a.76.76 0 0 1-.2-.4c0-.1 0-.1.1-.2 0-.1.1-.2.1-.2.1-.1.1-.1.2-.1s.2 0 .3.1.2.2.4.2c.2.1.4.1.7.1s.5 0 .6-.1v-.4c0-.1-.1-.3-.2-.3a.76.76 0 0 1-.4-.2c-.2-.1-.4-.1-.6-.2s-.4-.1-.6-.2a.78.78 0 0 1-.4-.4c-.1-.2-.2-.4-.2-.7 0-.2.1-.5.2-.7s.3-.4.6-.6c.3-.1.6-.2 1.1-.2.3 0 .5 0 .8.1.2.1.4.1.6.2s.2.2.2.3 0 .1-.1.2-.1.2-.2.3-.2.1-.3.1-.2 0-.3-.1c-.1 0-.2-.1-.4-.1-.1 0-.3-.1-.5-.1s-.3 0-.4.1c-.1 0-.2.1-.2.2s-.1.1-.1.2.1.2.2.3.3.1.4.2c.2 0 .4.1.6.2s.4.1.6.2.3.3.4.4c.1.2.2.4.2.7 0 .4-.2.8-.5 1.1-.2.3-.6.4-1.2.4zm4.4-.1c-.6 0-1.1-.1-1.4-.4s-.5-.7-.5-1.2v-4.9c0-.1.1-.2.2-.3s.3-.1.4-.1c.2 0 .3 0 .4.1s.2.2.2.3v1.7h1.2c.1 0 .2 0 .2.1s.1.2.1.3 0 .2-.1.3-.1.1-.2.1H23v2.2c0 .2 0 .3.1.4s.2.1.4.1h.4c.2 0 .3.1.4.2s.1.2.1.4c0 .1 0 .3-.1.4s-.2.2-.4.2l-.2.1h0zm3.6.1c-.4 0-.7-.1-1.1-.3-.3-.2-.6-.4-.8-.8a1.69 1.69 0 0 1-.3-1v-.8a1.69 1.69 0 0 1 .3-1c.2-.3.5-.6.8-.7.3-.2.7-.3 1.1-.3s.8.1 1.1.3.6.4.8.7a1.69 1.69 0 0 1 .3 1v.8a1.69 1.69 0 0 1-.3 1c-.2.3-.5.6-.8.8-.4.2-.7.3-1.1.3zm0-1.1c.2 0 .3 0 .4-.1l.3-.3c.1-.1.1-.3.1-.4v-.8c0-.2 0-.3-.1-.4l-.3-.3c-.1-.1-.3-.1-.4-.1-.2 0-.3 0-.4.1l-.3.3c-.1.1-.1.3-.1.4v.8c0 .2 0 .3.1.4s.2.3.3.3c.1.1.2.1.4.1zm3.6 1c-.2 0-.3 0-.5-.1-.1-.1-.2-.2-.2-.3v-3.9c0-.1.1-.2.2-.3s.3-.1.5-.1.3 0 .4.1.2.2.2.3v.3c.1-.2.3-.4.5-.5.2-.2.5-.2.8-.2s.5.1.8.3c.2.2.4.4.5.7.2-.3.4-.6.7-.8s.5-.2.8-.2.6.1.9.2c.3.2.5.4.7.7s.3.7.3 1.1v2.4c0 .1-.1.2-.2.3s-.3.1-.5.1-.3 0-.5-.1c-.1-.1-.2-.2-.2-.3v-2.4c0-.2 0-.4-.1-.5l-.3-.3c-.1-.1-.3-.1-.4-.1s-.3 0-.4.1l-.3.3c-.1.1-.1.3-.1.5v2.4c0 .1-.1.2-.2.3s-.3.1-.4.1-.3 0-.4-.1-.2-.2-.2-.3v-2.4c0-.2 0-.3-.1-.5l-.3-.3c-.1-.1-.3-.1-.4-.1s-.3 0-.4.1l-.3.3c-.1.1-.1.3-.1.5v2.4c0 .1-.1.2-.2.3h-.6zm-23.2 12c-.2 0-.3 0-.4-.1s-.2-.2-.2-.3v-6.5c0-.1.1-.2.2-.3s.2-.1.4-.1h1.9c.3 0 .7 0 1 .1s.6.3.8.5c.2.3.3.6.3 1.1 0 .4-.1.7-.2 1-.2.3-.4.5-.6.6.2.1.4.2.5.3s.3.3.4.5.1.5.1.8v.3c0 .5-.1.9-.3 1.2s-.4.5-.7.7-.6.2-1 .2H7.7zm.7-4.4h1.1c.3 0 .5-.1.6-.2s.2-.4.2-.6 0-.3-.1-.5l-.3-.3c-.1-.1-.2-.1-.4-.1H8.4v1.7zm0 3.3h1.1c.3 0 .5-.1.7-.3s.3-.5.3-.8v-.2c0-.4-.1-.7-.3-.8-.2-.2-.4-.2-.7-.2H8.4V43zm6.2 1.2c-.4 0-.7-.1-1.1-.3-.3-.2-.6-.4-.8-.8a1.93 1.93 0 0 1-.3-1v-.8a1.69 1.69 0 0 1 .3-1c.2-.3.5-.6.8-.7s.7-.3 1.1-.3.8.1 1.1.3.6.4.8.7a1.69 1.69 0 0 1 .3 1v.8a1.69 1.69 0 0 1-.3 1c-.2.3-.5.6-.8.8s-.7.3-1.1.3zm0-1.1c.2 0 .3 0 .4-.1l.3-.3c.1-.1.1-.3.1-.4v-.8c0-.2 0-.3-.1-.4l-.3-.3c-.1-.1-.3-.1-.4-.1-.2 0-.3 0-.4.1l-.3.3c-.1.1-.1.3-.1.4v.8c0 .2 0 .3.1.4s.2.3.3.3c.1.1.2.1.4.1zm3.6 1c-.2 0-.3 0-.4-.1s-.2-.2-.2-.3v-3.9c0-.1.1-.2.2-.3s.3-.1.4-.1c.2 0 .3 0 .4.1s.2.2.2.3v.4c.1-.1.2-.3.3-.4s.3-.2.4-.3c.2-.1.3-.1.5-.1h.3c.1 0 .2.1.3.2s.1.2.1.4 0 .3-.1.4-.2.2-.3.2H20c-.2 0-.4.1-.5.2s-.3.3-.4.5-.2.5-.2.8v1.8c0 .1-.1.2-.2.3-.1-.1-.3-.1-.5-.1zm4.6.1c-.3 0-.6-.1-.9-.3s-.5-.4-.6-.8c-.2-.3-.2-.6-.2-1v-.8c0-.4.1-.7.2-1 .2-.3.4-.6.6-.7s.6-.3.9-.3.6.1.8.2c.2.2.4.3.5.5v-3c0-.1.1-.2.2-.3s.3-.1.5-.1a.9.9 0 0 1 .5.1c.2.1.2.2.2.3v6.7c0 .1-.1.2-.2.3s-.3.1-.5.1-.3 0-.4-.1-.2-.2-.2-.3v-.3c-.1.2-.3.4-.5.5-.3.3-.6.3-.9.3zm.4-1.1c.2 0 .3 0 .5-.1l.3-.3c.1-.1.1-.2.1-.3v-1c0-.2 0-.3-.1-.5l-.3-.3c-.1-.1-.3-.1-.4-.1-.2 0-.3 0-.4.1l-.3.3c-.1.1-.1.3-.1.4v.8c0 .2 0 .3.1.4s.2.3.3.3c0 .3.2.3.3.3zm5.5 1.1c-.5 0-.9-.1-1.3-.3s-.6-.4-.9-.7c-.2-.3-.3-.7-.3-1.1v-.9a1.69 1.69 0 0 1 .3-1c.2-.3.5-.5.8-.7s.7-.3 1.1-.3.7.1 1 .2c.3.2.6.4.8.7a1.69 1.69 0 0 1 .3 1c0 .3 0 .5-.1.6-.1.3-.2.3-.4.4h-.4-2v.1c0 .3.1.5.3.7s.5.3.8.3c.2 0 .4 0 .5-.1s.3-.1.4-.2.2-.1.3-.1.2 0 .3.1l.2.2c0 .1.1.2.1.2 0 .1-.1.2-.2.4s-.3.2-.6.3-.7.2-1 .2zm-1.2-2.9H29c.1 0 .2 0 .2-.1 0 0 .1-.1.1-.2 0-.2 0-.3-.1-.4l-.3-.3c-.1-.1-.3-.1-.4-.1-.2 0-.3 0-.4.1l-.3.3c-.1.1-.1.3-.1.4v.3h-.2zm4.4 2.8c-.2 0-.3 0-.5-.1-.1-.1-.2-.2-.2-.3v-3.9c0-.1.1-.2.2-.3s.3-.1.5-.1.3 0 .4.1.2.2.2.3v.4c.1-.1.2-.3.3-.4s.3-.2.4-.3c.2-.1.3-.1.5-.1h.3c.1 0 .2.1.3.2s.1.2.1.4 0 .3-.1.4-.2.2-.3.2h-.3c-.2 0-.4.1-.5.2-.2.1-.3.3-.4.5s-.2.5-.2.8v1.8c0 .1-.1.2-.2.3-.2-.1-.3-.1-.5-.1zm3-1.8c-.1 0-.2 0-.3-.2-.1-.1-.1-.2-.1-.4s0-.3.1-.4.2-.2.3-.2h2.6c.1 0 .2.1.3.2s.1.2.1.4 0 .3-.1.4-.2.2-.3.2h-2.6zm4.4 1.8c-.2 0-.3 0-.5-.1-.1-.1-.2-.2-.2-.3v-3.9c0-.1.1-.2.2-.3s.3-.1.5-.1.3 0 .4.1.2.2.2.3v.4c.1-.1.2-.3.3-.4s.3-.2.4-.3c.2-.1.3-.1.5-.1h.3c.1 0 .2.1.3.2s.1.2.1.4 0 .3-.1.4-.2.2-.3.2h-.3c-.2 0-.4.1-.5.2-.2.1-.3.3-.4.5s-.2.3-.2.6v1.8c0 .1-.1.2-.2.3s-.3.1-.5.1zm4.1.1c-.4 0-.7-.1-.9-.3-.3-.2-.4-.6-.4-1s.1-.7.3-.9.5-.4.8-.5.8-.1 1.2-.1h.4v-.1c0-.1 0-.3-.1-.4s-.1-.3-.3-.3c-.1-.1-.3-.1-.5-.1-.3 0-.4 0-.6.1-.1.1-.2.1-.3.2s-.2.1-.2.1c-.1 0-.2-.1-.3-.2s-.1-.3-.1-.4.1-.3.3-.4l.6-.3c.2-.1.5-.1.7-.1.5 0 .9.1 1.2.3s.5.4.7.7c.1.3.2.6.2 1V44c0 .1-.1.2-.2.3s-.3.1-.5.1-.3 0-.4-.1-.2-.2-.2-.3v-.3c-.2.2-.4.4-.6.5h-.8zm.5-.9c.1 0 .3 0 .4-.1s.3-.2.4-.4c.1-.1.1-.3.1-.5v-.2h-.2-.6c-.2 0-.4.1-.5.2s-.2.2-.2.4.1.3.2.4a.76.76 0 0 0 .4.2zm4.8.9c-.3 0-.6-.1-.9-.3s-.5-.4-.6-.8-.2-.6-.2-1v-.8c0-.4.1-.7.2-1a1.41 1.41 0 0 1 .6-.7c.2-.1.6-.3.9-.3s.6.1.8.2c.2.2.4.3.5.5v-3c0-.1.1-.2.2-.3s.3-.1.5-.1a.9.9 0 0 1 .5.1c.2.1.2.2.2.3v6.7c0 .1-.1.2-.2.3s-.3.1-.5.1-.3 0-.4-.1-.2-.2-.2-.3v-.3c-.1.2-.3.4-.5.5-.3.3-.6.3-.9.3zm.4-1.1c.2 0 .3 0 .5-.1l.3-.3c.1-.1.1-.2.1-.3v-1c0-.2 0-.3-.1-.5l-.3-.3c-.1-.1-.3-.1-.4-.1-.2 0-.3 0-.4.1l-.3.3c-.1.1-.1.3-.1.4v.8c0 .2 0 .3.1.4s.2.3.3.3c0 .3.1.3.3.3zm3.8-4.8c-.2 0-.4-.1-.5-.2a.76.76 0 0 1-.2-.4c0-.2.1-.3.2-.4s.3-.2.5-.2.4.1.5.2a.76.76 0 0 1 .2.4c0 .2-.1.3-.2.4s-.3.2-.5.2zm0 5.8c-.2 0-.3 0-.5-.1-.1-.1-.2-.2-.2-.3v-3.9c0-.1.1-.2.2-.3s.3-.1.5-.1a.9.9 0 0 1 .5.1c.1.1.2.2.2.3v3.9c0 .1-.1.2-.2.3s-.3.1-.5.1zm3.8.1c-.4 0-.8-.1-1.1-.3s-.6-.4-.8-.8a1.69 1.69 0 0 1-.3-1v-2.4c0-.1.1-.2.2-.3s.3-.1.5-.1a.9.9 0 0 1 .5.1c.2.1.2.2.2.3v2.4c0 .2 0 .3.1.4l.3.3c.1.1.3.1.4.1.2 0 .3 0 .4-.1l.3-.3c.1-.1.1-.3.1-.4v-2.4c0-.1.1-.2.2-.3s.3-.1.4-.1c.2 0 .4 0 .5.1s.2.2.2.3v2.4a1.69 1.69 0 0 1-.3 1c-.2.3-.5.6-.8.7s-.6.4-1 .4zm4.7 0c-.3 0-.6 0-.9-.1s-.5-.2-.6-.3c-.2-.1-.2-.3-.2-.4s0-.1.1-.2c0-.1.1-.2.2-.2s.1-.1.2-.1.2 0 .3.1.2.2.4.2c.2.1.4.1.7.1s.5 0 .6-.1.1-.2.1-.3-.1-.3-.2-.3a.76.76 0 0 1-.4-.2c-.2-.1-.4-.1-.6-.2s-.4-.1-.6-.2a.78.78 0 0 1-.4-.4c-.1-.2-.2-.4-.2-.7 0-.2.1-.5.2-.7s.3-.4.6-.6.6-.2 1.1-.2c.3 0 .5 0 .8.1.2.1.4.1.6.2s.2.2.2.3 0 .1-.1.2-.1.2-.2.3-.2.1-.3.1-.2 0-.3-.1c-.1 0-.2-.1-.4-.1-.1 0-.3-.1-.5-.1s-.3 0-.4.1c-.1 0-.2.1-.2.2s-.1.1-.1.2.1.2.2.3.3.1.4.2c.2 0 .4.1.6.2s.4.1.6.2.3.3.4.4c.1.2.2.4.2.7 0 .4-.2.8-.5 1.1s-.8.3-1.4.3z" fill="#f8f8f8"/></svg>