<?xml version="1.0" encoding="UTF-8"?>
<svg width="62px" height="80px" viewBox="0 0 62 80" version="1.1" xmlns="http://www.w3.org/2000/svg" xmlns:xlink="http://www.w3.org/1999/xlink">
    <!-- Generator: Sketch 52.2 (67145) - http://www.bohemiancoding.com/sketch -->
    <title>Shape</title>
    <desc>Created with Sketch.</desc>
    <g id="Visual-Design" stroke="none" stroke-width="1" fill="none" fill-rule="evenodd">
        <g id="wp-&gt;-empty" transform="translate(-530.000000, -208.000000)" fill="#A5A5A5" fill-rule="nonzero">
            <g id="Group-2" transform="translate(449.000000, 208.000000)">
                <path d="M116.4175,0 L90.3,0 C85.1637518,-1.26882631e-15 81,3.83755929 81,8.57142857 L81,71.4285714 C81,76.1624407 85.1637518,80 90.3,80 L133.7,80 C138.836248,80 143,76.1624407 143,71.4285714 L143,24.5 L116.4175,0 Z M118,10 L132,23 L121.060109,23 C119.370058,23 118,21.7278037 118,20.1584699 L118,10 Z M133.875,75 L90.125,75 C88.3991102,75 87,73.7128187 87,72.125 L87,8.875 C87,7.28718134 88.3991102,6 90.125,6 L112,6 L112,20.375 C112,25.138456 116.19733,29 121.375,29 L137,29 L137,72.125 C137,73.7128187 135.60089,75 133.875,75 Z" id="Shape"></path>
            </g>
        </g>
    </g>
</svg>