<svg xmlns="http://www.w3.org/2000/svg" xmlns:xlink="http://www.w3.org/1999/xlink" x="0px" y="0px" width="24px" height="132px" viewBox="0 0 24 132">

<!-- left arrow -->
<g transform="translate(0, 0)">
	<path fill="#fff" d="M1.293,11.293L9,3.586L10.414,5l-6,6H22c0.553,0,1,0.448,1,1s-0.447,1-1,1H4.414l6,6L9,20.414l-7.707-7.707&#10;&#9;C0.902,12.316,0.902,11.684,1.293,11.293z"/>
</g>
<!-- right arrow -->
<g transform="translate(0, 44)">
	<path fill="#fff" d="M22.707,11.293L15,3.586L13.586,5l6,6H2c-0.553,0-1,0.448-1,1s0.447,1,1,1h17.586l-6,6L15,20.414&#10;&#9;l7.707-7.707C23.098,12.316,23.098,11.684,22.707,11.293z"/>
</g>
<!-- close -->
<g transform="translate(0, 88)">
	<path fill="#fff" d="M15.657,0.343c-0.457-0.457-1.143-0.457-1.6,0L8,6.4L1.943,0.343c-0.458-0.457-1.144-0.457-1.601,0 c-0.458,0.457-0.458,1.143,0,1.601L6.4,8l-6.057,6.057c-0.458,0.458-0.458,1.144,0,1.601C0.571,15.885,0.8,16,1.143,16 s0.571-0.114,0.801-0.343L8,9.6l6.058,6.057c0.228,0.229,0.57,0.343,0.8,0.343s0.57-0.114,0.8-0.343 c0.456-0.457,0.456-1.143,0-1.601L9.6,8l6.058-6.057C16.113,1.485,16.113,0.8,15.657,0.343z"/>
</g>

</svg>