<svg xmlns="http://www.w3.org/2000/svg" xmlns:xlink="http://www.w3.org/1999/xlink" width="244.997" height="164.13" viewBox="0 0 244.997 164.13">
  <defs>
    <filter id="Path_13" x="44.809" y="0" width="200.188" height="164.13" filterUnits="userSpaceOnUse">
      <feOffset dx="12" dy="12" input="SourceAlpha"/>
      <feGaussianBlur stdDeviation="11" result="blur"/>
      <feFlood flood-opacity="0.102"/>
      <feComposite operator="in" in2="blur"/>
      <feComposite in="SourceGraphic"/>
    </filter>
    <linearGradient id="linear-gradient" x1="0.185" y1="2.977" x2="0.948" y2="1.824" gradientUnits="objectBoundingBox">
      <stop offset="0" stop-color="#f1f1f1"/>
      <stop offset="1" stop-color="#d6d6d6"/>
    </linearGradient>
    <clipPath id="clip-path">
      <rect id="Rectangle_5" data-name="Rectangle 5" width="115.586" height="77.523" transform="translate(872.142 488.562)" fill="none"/>
    </clipPath>
    <radialGradient id="radial-gradient" cx="0.5" cy="0.5" r="0.5" gradientTransform="translate(8.491 -7.705) rotate(90)" gradientUnits="objectBoundingBox">
      <stop offset="0"/>
      <stop offset="0.074" stop-opacity="0.839"/>
      <stop offset="1" stop-opacity="0"/>
    </radialGradient>
    <radialGradient id="radial-gradient-2" cx="0.5" cy="0.5" r="0.261" gradientTransform="translate(79.257 -6.125) rotate(180) scale(1.916 1.916)" xlink:href="#radial-gradient"/>
    <linearGradient id="linear-gradient-2" x1="0.261" y1="0.064" x2="1.286" y2="1.088" gradientUnits="objectBoundingBox">
      <stop offset="0" stop-color="#b300b0"/>
      <stop offset="1" stop-color="#5f35cd"/>
    </linearGradient>
    <linearGradient id="linear-gradient-3" x1="-0.001" y1="1.017" x2="0.933" y2="0.315" gradientUnits="objectBoundingBox">
      <stop offset="0" stop-color="#c233cc"/>
      <stop offset="1" stop-color="#5f35cd"/>
    </linearGradient>
    <linearGradient id="linear-gradient-4" x1="0.385" y1="0.888" x2="0.799" y2="0.042" gradientUnits="objectBoundingBox">
      <stop offset="0.001" stop-color="#ff914b"/>
      <stop offset="1" stop-color="#ff64a0"/>
    </linearGradient>
    <linearGradient id="linear-gradient-5" x1="0.242" y1="1.007" x2="1.329" y2="0.144" gradientUnits="objectBoundingBox">
      <stop offset="0" stop-color="#ff64a0"/>
      <stop offset="1" stop-color="#645ff5"/>
    </linearGradient>
    <linearGradient id="linear-gradient-6" x1="1.551" y1="1.252" x2="-0.015" y2="0.169" gradientUnits="objectBoundingBox">
      <stop offset="0" stop-color="#ff48a0"/>
      <stop offset="1" stop-color="#6446f1"/>
    </linearGradient>
    <linearGradient id="linear-gradient-7" x1="0.498" y1="0.21" x2="0.651" y2="1.146" gradientUnits="objectBoundingBox">
      <stop offset="0" stop-color="#ff64a0"/>
      <stop offset="1" stop-color="#645fff"/>
    </linearGradient>
    <clipPath id="clip-path-2">
      <path id="Path_23" data-name="Path 23" d="M918.649,438.85,861,466.007l32.171,64.751L930,554.391l37.241-34.572,17.731-67.206Z" fill="none"/>
    </clipPath>
    <radialGradient id="radial-gradient-3" cx="0.721" cy="0.556" r="0.609" gradientTransform="matrix(0.015, 1, -0.856, 0.018, 5.383, 5.846)" gradientUnits="objectBoundingBox">
      <stop offset="0" stop-color="#fff"/>
      <stop offset="0.683" stop-color="#a2a2a2"/>
      <stop offset="1" stop-color="#7d7d7d"/>
    </radialGradient>
    <linearGradient id="linear-gradient-8" x1="0.564" y1="1.25" x2="0.564" y2="0.218" gradientUnits="objectBoundingBox">
      <stop offset="0" stop-color="#ffd1ff" stop-opacity="0.502"/>
      <stop offset="0.14" stop-color="#efc4ef" stop-opacity="0.529"/>
      <stop offset="0.354" stop-color="#c4a1c4" stop-opacity="0.616"/>
      <stop offset="0.616" stop-color="#7f687f" stop-opacity="0.749"/>
      <stop offset="0.913" stop-color="#1f191f" stop-opacity="0.937"/>
      <stop offset="1"/>
    </linearGradient>
    <linearGradient id="linear-gradient-9" x1="-0.267" y1="-1.77" x2="0.753" y2="-2.812" gradientUnits="objectBoundingBox">
      <stop offset="0" stop-color="#e42392"/>
      <stop offset="1" stop-color="#5928df"/>
    </linearGradient>
  </defs>
  <g id="Group_18" data-name="Group 18" transform="translate(-861.002 -427.425)">
    <g id="Group_10" data-name="Group 10">
      <g transform="matrix(1, 0, 0, 1, 861, 427.43)" filter="url(#Path_13)">
        <path id="Path_13-2" data-name="Path 13" d="M926.811,485.009v47.4c0,3.121,3.084,5.856,6.887,6.109l120.415,8.021c3.8.253,6.886-3.855,6.886-9.176V456.539c0-5.321-3.083-8.889-6.886-7.969L933.7,477.693C929.9,478.613,926.811,481.888,926.811,485.009Z" transform="translate(-861 -427.43)" fill="#fff"/>
      </g>
      <path id="Path_14" data-name="Path 14" d="M1032.286,491.7a5.46,5.46,0,0,0-2-2.131,4.643,4.643,0,0,0-2.994-.509,5.723,5.723,0,0,0-2.994,1.225,7.6,7.6,0,0,0-2,2.52,12.592,12.592,0,0,0-1.114,3.365,20.365,20.365,0,0,0-.35,3.788,18.056,18.056,0,0,0,.35,3.585,10.529,10.529,0,0,0,1.114,3.1,5.99,5.99,0,0,0,2,2.164,4.944,4.944,0,0,0,2.994.722,5.219,5.219,0,0,0,2.994-1.011,7.028,7.028,0,0,0,2-2.445,12.556,12.556,0,0,0,1.114-3.373,20.663,20.663,0,0,0,.35-3.815,21.241,21.241,0,0,0-.35-3.907A11.061,11.061,0,0,0,1032.286,491.7Zm-49.366,3.744a3.494,3.494,0,0,0-1.464-.368,10.293,10.293,0,0,0-1.729.071l-4.059.494v7.273l4.059-.354a10.685,10.685,0,0,0,1.729-.291,4.231,4.231,0,0,0,1.464-.674,3.318,3.318,0,0,0,1.015-1.239,4.515,4.515,0,0,0,.382-1.983,4,4,0,0,0-.382-1.9A2.452,2.452,0,0,0,982.92,495.449Zm23.352-2.614a3.3,3.3,0,0,0-2.694-.587l-5.722.7v7.548l5.722-.512a3.9,3.9,0,0,0,2.694-1.175,4.631,4.631,0,0,0,.9-3.129A3.707,3.707,0,0,0,1006.272,492.835Zm44.931-35.44-114.6,25.545A3.193,3.193,0,0,0,934,485.664v42.63a2.573,2.573,0,0,0,2.611,2.281l114.6,6.09c1.441.077,2.61-1.5,2.61-3.513V460.465C1053.813,458.448,1052.644,457.073,1051.2,457.395Zm-62.279,43.554a7.979,7.979,0,0,1-1.43,2.768,7.766,7.766,0,0,1-2.545,2.028,9.738,9.738,0,0,1-3.792.949l-5.489.372v8.7l-5.223.139V492.237l10.712-1.514a8.9,8.9,0,0,1,3.792.156,5.837,5.837,0,0,1,2.545,1.5,6.159,6.159,0,0,1,1.43,2.451,10.012,10.012,0,0,1,.45,3.023A11.018,11.018,0,0,1,988.924,500.949Zm18.945,13.96a12.308,12.308,0,0,1-.532-3.151q-.1-1.832-.3-3.5a5.675,5.675,0,0,0-1.131-3.124,3.327,3.327,0,0,0-2.828-.808l-5.223.373v10.477l-5.223.139V489.1l12.808-1.81a6.238,6.238,0,0,1,2.877.2,5.42,5.42,0,0,1,2.2,1.378,6.347,6.347,0,0,1,1.4,2.3,8.9,8.9,0,0,1,.482,2.993,10.5,10.5,0,0,1-.881,4.429,6.576,6.576,0,0,1-2.878,3.015v.078a3.474,3.474,0,0,1,1.6.84,4.8,4.8,0,0,1,1.031,1.47,7.77,7.77,0,0,1,.583,1.929,20.235,20.235,0,0,1,.249,2.136c.022.451.044.98.066,1.59s.061,1.233.117,1.869a14.592,14.592,0,0,0,.266,1.8,4.511,4.511,0,0,0,.549,1.442Zm30.3-9.987a17.575,17.575,0,0,1-2.295,5.268,11.483,11.483,0,0,1-3.66,3.532,10.64,10.64,0,0,1-9.83.282,10.574,10.574,0,0,1-3.676-3.106,14.44,14.44,0,0,1-2.295-4.668,20.36,20.36,0,0,1-.8-5.831,22.52,22.52,0,0,1,.8-6.086,18.023,18.023,0,0,1,2.295-5.134,13.59,13.59,0,0,1,3.676-3.785,11.3,11.3,0,0,1,4.907-1.91,8.945,8.945,0,0,1,4.923.54,9.049,9.049,0,0,1,3.66,2.983,15.029,15.029,0,0,1,2.295,4.971,24.639,24.639,0,0,1,.8,6.471A25.309,25.309,0,0,1,1038.174,504.922Z" fill="url(#linear-gradient)"/>
    </g>
    <g id="Group_17" data-name="Group 17">
      <g id="Group_13" data-name="Group 13">
        <g id="Group_12" data-name="Group 12" clip-path="url(#clip-path)">
          <g id="Group_11" data-name="Group 11" style="mix-blend-mode: multiply;isolation: isolate">
            <ellipse id="Ellipse_1" data-name="Ellipse 1" cx="55.84" cy="15.646" rx="55.84" ry="15.646" transform="translate(893.036 553.812) rotate(-36.903)" opacity="0.45" fill="url(#radial-gradient)" style="mix-blend-mode: multiply;isolation: isolate"/>
            <ellipse id="Ellipse_2" data-name="Ellipse 2" cx="24.249" cy="46.458" rx="24.249" ry="46.458" transform="translate(868.752 558.55) rotate(-83.834)" opacity="0.6" fill="url(#radial-gradient-2)" style="mix-blend-mode: multiply;isolation: isolate"/>
          </g>
        </g>
      </g>
      <path id="Path_15" data-name="Path 15" d="M942.869,455.99l-20.806,30.478-10.8-4.076,5.094-6.713L898.662,469l-12.384,3.961-10.47-3.952L932.2,451.963Zm-22.848,14.719,8.325-11.086-.132-.05-20.454,6.508Z" fill="#fff"/>
      <path id="Path_16" data-name="Path 16" d="M861,466.007l57.647-27.157,66.325,13.763L928.26,492.546Z" fill="#fff"/>
      <path id="Path_17" data-name="Path 17" d="M861,466.007l67.257,26.538L930,554.391l-36.829-23.633Z" fill="url(#linear-gradient-2)"/>
      <path id="Path_18" data-name="Path 18" d="M984.974,452.613,928.26,492.546,930,554.391l37.241-34.572Z" fill="url(#linear-gradient-3)"/>
      <g id="Group_14" data-name="Group 14">
        <path id="Path_19" data-name="Path 19" d="M870.426,485.014l53.5,31.069,49.625-45.823-55.433-5.877Z" fill="url(#linear-gradient-4)"/>
        <path id="Path_20" data-name="Path 20" d="M973.547,470.261l-49.625,45.823L930,554.391l37.241-34.572Z" fill="url(#linear-gradient-5)"/>
        <path id="Path_21" data-name="Path 21" d="M870.426,485.014l53.5,31.069L930,554.391l-36.829-23.633Z" fill="url(#linear-gradient-6)"/>
      </g>
      <path id="Path_22" data-name="Path 22" d="M861,466.007l57.647-27.157,66.325,13.763L928.26,492.546Z" fill="url(#linear-gradient-7)" style="mix-blend-mode: multiply;isolation: isolate"/>
      <g id="Group_16" data-name="Group 16" opacity="0.45" style="mix-blend-mode: overlay;isolation: isolate">
        <g id="Group_15" data-name="Group 15" clip-path="url(#clip-path-2)">
          <ellipse id="Ellipse_3" data-name="Ellipse 3" cx="57.886" cy="49.581" rx="57.886" ry="49.581" transform="translate(828.411 532.185) rotate(-87.425)" fill="url(#radial-gradient-3)"/>
        </g>
      </g>
      <path id="Path_24" data-name="Path 24" d="M928.122,491.689l-62.485-24.655-3.966-.527,66.52,34.19,56.151-47.367-3.623,1.326Z" fill="url(#linear-gradient-8)" style="mix-blend-mode: multiply;isolation: isolate"/>
      <path id="Path_25" data-name="Path 25" d="M960.44,518.25l-6.6,5.389.707-13.351a13.361,13.361,0,0,1-1.271,2.031q-.828,1.124-2.393,3.046a33.617,33.617,0,0,0-3.36,4.719,7.206,7.206,0,0,0-.96,3.211c-.089,3.859,2.913,3.1,4.6,2.4l-2.876,2.813c-2.451,2.515-4.649,3.61-5.761,3.616s-1.637-.591-1.594-2.452a15.266,15.266,0,0,1,.825-4.684,22.944,22.944,0,0,1,2.086-4.388,40.731,40.731,0,0,1,3.121-4.406q1.8-2.235,3.93-4.737a29.807,29.807,0,0,0,2.874-3.789,11.18,11.18,0,0,0,.787-3.833q.026-1.116-.933-.745a8.77,8.77,0,0,0-2.6,2.057,14.664,14.664,0,0,0-3.35,4.8c-.822,4.054-3.262,6.8-5.7,7.194a23.67,23.67,0,0,1,.5-3.092,21.243,21.243,0,0,1,1.659-4.2,32.98,32.98,0,0,1,2.913-4.6,50.444,50.444,0,0,1,4.339-5.02,30.486,30.486,0,0,1,4.246-3.767,5.028,5.028,0,0,1,2.771-1.141,1.635,1.635,0,0,1,1.47,1.262,9.557,9.557,0,0,1,.387,3.348l-.891,16.25C959.256,517.321,959.47,518.421,960.44,518.25Z" fill="url(#linear-gradient-9)"/>
      <path id="Path_26" data-name="Path 26" d="M928,490.332,863.542,464.9,861,466.007l67.257,26.538,56.714-39.932-2.725-.481Z" fill="#fff"/>
    </g>
  </g>
</svg>
