<?xml version="1.0" encoding="utf-8"?>
<svg version="1.0" id="Layer_1"
	 xmlns="http://www.w3.org/2000/svg" xmlns:xlink="http://www.w3.org/1999/xlink" x="0px" y="0px" viewBox="0 0 15.8 12.8"
	 style="enable-background:new 0 0 15.8 12.8;" xml:space="preserve">
	<style type="text/css">.st0{fill:#FFFFFF;}</style>
	<g>
		<g>
			<path class="st0" d="M15.7,4c0,0.2,0,0.3,0,0.4c-0.1,0.3-0.4,0.4-0.9,0.4l-0.2,0.5L13,10.7c0,0.1,0,0.1-0.1,0.2s-0.1,0-0.2,0H3
				c-0.1,0-0.1,0-0.2,0c0,0-0.1-0.1-0.1-0.2L1,4.9c0,0,0-0.1,0-0.1c-0.3,0-0.5,0-0.7-0.2C0.1,4.5,0,4.3,0,4.1c0-0.2,0.1-0.4,0.2-0.5
				c0.1-0.1,0.3-0.2,0.5-0.2c0.2,0,0.4,0.1,0.5,0.3c0.1,0.2,0.1,0.4,0.1,0.7l4.2,1.8l2-4.8C7.4,1.2,7.2,1,7.2,0.8
				c0-0.2,0-0.4,0.2-0.6C7.5,0.1,7.7,0,7.9,0c0.2,0,0.4,0.1,0.5,0.2c0.2,0.2,0.2,0.4,0.2,0.6c0,0.2-0.2,0.4-0.4,0.6l2,4.8
				c0.9-0.4,2.4-1,4.2-1.8c-0.1-0.4,0-0.7,0.3-0.9c0.1-0.1,0.3-0.1,0.4-0.1c0.2,0,0.3,0.1,0.4,0.2C15.6,3.7,15.7,3.8,15.7,4z
				 M13,11.5c0,0,0,0.1,0,0.1v1c0,0.1,0,0.1,0,0.1c0,0-0.1,0.1-0.1,0.1h-10c0,0-0.1,0-0.1-0.1s0-0.1,0-0.1v-1c0-0.1,0-0.1,0-0.1
				c0,0,0.1-0.1,0.1-0.1L13,11.5C12.9,11.4,12.9,11.4,13,11.5z"/>
		</g>
	</g>
</svg>
