<svg xmlns="http://www.w3.org/2000/svg" xmlns:xlink="http://www.w3.org/1999/xlink" width="33px" height="13px"
     viewBox="0 0 33 13">
    <title>measure-02</title>
    <g id="Home-1" stroke="none" stroke-width="1" fill="none" fill-rule="evenodd">
        <g id="Single-Product" transform="translate(-1364.000000, -422.000000)" fill="#888888" fill-rule="nonzero">
            <g id="Group-8" transform="translate(959.000000, 418.000000)">
                <g id="Group-12" transform="translate(406.000000, 0.000000)">
                    <g id="measure-02"
                       transform="translate(15.500000, 10.500000) rotate(90.000000) translate(-15.500000, -10.500000) translate(10.000000, -5.000000)">
                        <path d="M11,-0.5 C11.2761424,-0.5 11.5,-0.276142375 11.5,0 L11.5,0 L11.5,31 C11.5,31.2761424 11.2761424,31.5 11,31.5 L11,31.5 L0,31.5 C-0.276142375,31.5 -0.5,31.2761424 -0.5,31 L-0.5,31 L-0.5,0 C-0.5,-0.276142375 -0.276142375,-0.5 0,-0.5 L0,-0.5 Z M10.5,0.5 L0.5,0.5 L0.5,6.545 L4.125,6.54545455 C4.40114237,6.54545455 4.625,6.76931217 4.625,7.04545455 C4.625,7.29091443 4.44812484,7.49506292 4.21487563,7.53739888 L4.125,7.54545455 L0.5,7.545 L0.5,12.181 L2.75,12.1818182 C3.02614237,12.1818182 3.25,12.4056758 3.25,12.6818182 C3.25,12.9272781 3.07312484,13.1314266 2.83987563,13.1737625 L2.75,13.1818182 L0.5,13.181 L0.5,17.818 L4.125,17.8181818 C4.40114237,17.8181818 4.625,18.0420394 4.625,18.3181818 C4.625,18.5636417 4.44812484,18.7677902 4.21487563,18.8101261 L4.125,18.8181818 L0.5,18.818 L0.5,23.454 L2.75,23.4545455 C3.02614237,23.4545455 3.25,23.6784031 3.25,23.9545455 C3.25,24.2000053 3.07312484,24.4041538 2.83987563,24.4464898 L2.75,24.4545455 L0.5,24.454 L0.5,30.5 L10.5,30.5 L10.5,0.5 Z"
                              id="Combined-Shape"></path>
                    </g>
                </g>
            </g>
        </g>
    </g>
</svg>