<svg xmlns="http://www.w3.org/2000/svg" xmlns:xlink="http://www.w3.org/1999/xlink" width="100" zoomAndPan="magnify" viewBox="0 0 75 74.999997" height="100" preserveAspectRatio="xMidYMid meet" version="1.0"><defs><clipPath id="b4fb1f37cb"><path d="M 37 37 L 74.191406 37 L 74.191406 57 L 37 57 Z M 37 37 " clip-rule="nonzero"/></clipPath><clipPath id="384e3e1d68"><path d="M 18 37 L 38 37 L 38 74.191406 L 18 74.191406 Z M 18 37 " clip-rule="nonzero"/></clipPath><clipPath id="c4b2d31bf6"><path d="M 0.691406 37 L 38 37 L 38 56 L 0.691406 56 Z M 0.691406 37 " clip-rule="nonzero"/></clipPath><clipPath id="58b5952534"><path d="M 37 37 L 56 37 L 56 74.191406 L 37 74.191406 Z M 37 37 " clip-rule="nonzero"/></clipPath><clipPath id="d48babbcc8"><path d="M 37 19 L 74.191406 19 L 74.191406 38 L 37 38 Z M 37 19 " clip-rule="nonzero"/></clipPath><clipPath id="8bb8d03d26"><path d="M 0.691406 18 L 38 18 L 38 38 L 0.691406 38 Z M 0.691406 18 " clip-rule="nonzero"/></clipPath><clipPath id="791117be3e"><path d="M 37 0.691406 L 57 0.691406 L 57 38 L 37 38 Z M 37 0.691406 " clip-rule="nonzero"/></clipPath><clipPath id="51003ed848"><path d="M 19 0.691406 L 38 0.691406 L 38 38 L 19 38 Z M 19 0.691406 " clip-rule="nonzero"/></clipPath></defs><path fill="#a01647" d="M 18.828125 69.082031 C 13.28125 65.8125 8.675781 61.132812 5.5 55.535156 L 37.441406 37.441406 L 18.828125 69.082031 " fill-opacity="1" fill-rule="nonzero"/><g clip-path="url(#b4fb1f37cb)"><path fill="#3d8cce" d="M 74.136719 37.738281 C 74.082031 44.429688 72.242188 50.683594 69.082031 56.054688 L 37.441406 37.441406 L 74.136719 37.738281 " fill-opacity="1" fill-rule="nonzero"/></g><g clip-path="url(#384e3e1d68)"><path fill="#742594" d="M 37.140625 74.136719 C 30.453125 74.082031 24.199219 72.242188 18.828125 69.082031 L 37.441406 37.441406 L 37.140625 74.136719 " fill-opacity="1" fill-rule="nonzero"/></g><g clip-path="url(#c4b2d31bf6)"><path fill="#ee2423" d="M 5.5 55.535156 C 2.425781 50.113281 0.691406 43.828125 0.746094 37.140625 L 37.441406 37.441406 L 5.5 55.535156 " fill-opacity="1" fill-rule="nonzero"/></g><path fill="#4053ad" d="M 69.082031 56.054688 C 65.8125 61.597656 61.132812 66.203125 55.535156 69.378906 L 37.441406 37.441406 L 69.082031 56.054688 " fill-opacity="1" fill-rule="nonzero"/><g clip-path="url(#58b5952534)"><path fill="#3f2c90" d="M 55.535156 69.378906 C 50.113281 72.457031 43.828125 74.191406 37.140625 74.136719 L 37.441406 37.441406 L 55.535156 69.378906 " fill-opacity="1" fill-rule="nonzero"/></g><path fill="#bedf1e" d="M 56.054688 5.800781 C 61.597656 9.066406 66.203125 13.75 69.378906 19.347656 L 37.441406 37.441406 L 56.054688 5.800781 " fill-opacity="1" fill-rule="nonzero"/><g clip-path="url(#d48babbcc8)"><path fill="#57af35" d="M 37.441406 37.441406 L 69.378906 19.347656 C 72.457031 24.769531 74.191406 31.050781 74.136719 37.738281 L 37.441406 37.441406 " fill-opacity="1" fill-rule="nonzero"/></g><g clip-path="url(#8bb8d03d26)"><path fill="#f0401e" d="M 0.746094 37.140625 C 0.800781 30.453125 2.636719 24.199219 5.800781 18.828125 L 37.441406 37.441406 L 0.746094 37.140625 " fill-opacity="1" fill-rule="nonzero"/></g><g clip-path="url(#791117be3e)"><path fill="#ecee26" d="M 37.738281 0.746094 C 44.429688 0.800781 50.683594 2.636719 56.054688 5.800781 L 37.441406 37.441406 L 37.738281 0.746094 " fill-opacity="1" fill-rule="nonzero"/></g><g clip-path="url(#51003ed848)"><path fill="#edb10e" d="M 19.347656 5.5 C 24.769531 2.425781 31.050781 0.691406 37.738281 0.746094 L 37.441406 37.441406 L 19.347656 5.5 " fill-opacity="1" fill-rule="nonzero"/></g><path fill="#f28913" d="M 5.800781 18.828125 C 9.066406 13.28125 13.75 8.675781 19.347656 5.5 L 37.441406 37.441406 L 5.800781 18.828125 " fill-opacity="1" fill-rule="nonzero"/></svg>