<svg xmlns="http://www.w3.org/2000/svg" viewBox="0 0 97 73.5"><title>left align</title><g id="Layer_2" data-name="Layer 2"><g id="Layer_1-2" data-name="Layer 1"><path d="M0,2.5V38.1a2.5,2.5,0,0,0,2.5,2.5H38.1a2.5,2.5,0,0,0,2.5-2.5V2.5A2.5,2.5,0,0,0,38.1,0H2.5A2.5,2.5,0,0,0,0,2.5ZM3,3H37.6V37.6H3Z"/><path d="M95.5,20.37h-47a1.5,1.5,0,0,0,0,3h47a1.5,1.5,0,0,0,0-3Z"/><path d="M95.5,37.6h-47a1.5,1.5,0,0,0,0,3h47a1.5,1.5,0,0,0,0-3Z"/><path d="M95.5,54.05H1.5a1.5,1.5,0,0,0,0,3h94a1.5,1.5,0,0,0,0-3Z"/><path d="M57.9,73.5a1.5,1.5,0,1,0,0-3H1.5a1.5,1.5,0,0,0,0,3Z"/></g></g></svg>