<svg width="16" height="16" viewBox="0 0 16 16" fill="none" xmlns="http://www.w3.org/2000/svg">
<g clip-path="url(#clip0_46_26)">
<path d="M12.88 13.28H10.88C10.08 13.28 9.36 12.8 8.96 12.08L8.8 11.6C8.64 11.28 8.4 11.12 8.08 11.12C7.76 11.12 7.44 11.28 7.36 11.6L7.12 12.08C6.8 12.8 6.08 13.28 5.2 13.28H3.12C1.36 13.28 0 11.84 0 10.16V5.84C0 4.08 1.44 2.72 3.12 2.72H12.88C14.64 2.72 16 4.16 16 5.84V7.04C16 7.36 15.76 7.68 15.36 7.68C15.04 7.68 14.72 7.44 14.72 7.04V5.84C14.72 4.8 13.84 4 12.88 4H3.12C2.08 3.92 1.28 4.8 1.28 5.84V10.16C1.28 11.2 2.16 12 3.12 12H5.2C5.52 12 5.84 11.84 5.92 11.52L6.16 11.04C6.48 10.32 7.2 9.84 8.08 9.84C8.88 9.84 9.6 10.32 10 11.04L10.24 11.52C10.4 11.84 10.64 12 10.96 12H12.96C14 12 14.8 11.12 14.8 10.16C14.8 9.84 15.04 9.52 15.44 9.52C15.76 9.52 16.08 9.76 16.08 10.16C16 11.92 14.56 13.28 12.88 13.28ZM13.36 7.52C13.36 6.48 12.48 5.68 11.52 5.68C10.4 5.68 9.6 6.48 9.6 7.52C9.6 8.56 10.48 9.36 11.44 9.36C12.48 9.36 13.36 8.56 13.36 7.52ZM12.08 7.52C12.08 7.84 11.76 8.16 11.44 8.16C11.12 8.16 10.8 7.84 10.8 7.52C10.8 7.2 11.12 6.88 11.44 6.88C11.84 6.88 12.08 7.2 12.08 7.52ZM6.4 7.52C6.4 6.48 5.6 5.68 4.56 5.68C3.52 5.68 2.64 6.48 2.64 7.52C2.64 8.56 3.52 9.36 4.48 9.36C5.44 9.36 6.4 8.56 6.4 7.52ZM5.12 7.52C5.12 7.84 4.8 8.16 4.48 8.16C4.16 8.16 3.84 7.84 3.84 7.52C3.84 7.2 4.16 6.88 4.48 6.88C4.88 6.88 5.12 7.2 5.12 7.52Z" fill="url(#paint0_linear_46_26)"/>
</g>
<defs>
<linearGradient id="paint0_linear_46_26" x1="0" y1="8" x2="16" y2="8" gradientUnits="userSpaceOnUse">
<stop offset="0.00262957" stop-color="#00B4FF"/>
<stop offset="0.9984" stop-color="#3F04FE"/>
</linearGradient>
<clipPath id="clip0_46_26">
<rect width="16" height="16" fill="white"/>
</clipPath>
</defs>
</svg>
