<svg id="Txt" xmlns="http://www.w3.org/2000/svg" xmlns:xlink="http://www.w3.org/1999/xlink" width="138" height="184" viewBox="0 0 138 184">
  <defs>
    <style>
      .cls-1 {
        fill: #2b5699;
        filter: url(#filter);
      }

      .cls-1, .cls-3, .cls-4 {
        fill-rule: evenodd;
      }

      .cls-2 {
        font-size: 38.162px;
        fill: #fff;
        font-family: Arial;
        font-weight: 700;
        text-transform: uppercase;
      }

      .cls-3 {
        fill: #1c3865;
      }

      .cls-4 {
        fill: #234881;
      }
    </style>
    <filter id="filter" x="0" y="0" width="138" height="184" filterUnits="userSpaceOnUse">
      <feOffset result="offset" dy="4" in="SourceAlpha"/>
      <feGaussianBlur result="blur"/>
      <feFlood result="flood" flood-color="#1c3865"/>
      <feComposite result="composite" operator="in" in2="blur"/>
      <feBlend result="blend" in="SourceGraphic"/>
    </filter>
  </defs>
  <path id="Rounded_Rectangle_1" data-name="Rounded Rectangle 1" class="cls-1" d="M12,0H94.163L138,44.134V168a12,12,0,0,1-12,12H12A12,12,0,0,1,0,168V12A12,12,0,0,1,12,0Z"/>
  <text id="W" class="cls-2" transform="translate(38.509 116.884) scale(1.703)">W</text>
  <path id="corner_shadow_" data-name="corner shadow " class="cls-3" d="M94,4l44,40v2H106A12,12,0,0,1,94,34V4Z"/>
  <path id="corner" class="cls-4" d="M94,0l44,44H106A12,12,0,0,1,94,32V0Z"/>
</svg>
