<svg id="Jpg" xmlns="http://www.w3.org/2000/svg" xmlns:xlink="http://www.w3.org/1999/xlink" width="138" height="184" viewBox="0 0 138 184">
  <defs>
    <style>
      .cls-1 {
        fill: #b2979d;
        filter: url(#filter);
      }

      .cls-1, .cls-2, .cls-3 {
        fill-rule: evenodd;
      }

      .cls-2 {
        fill: #7f6c70;
      }

      .cls-3 {
        fill: #9c858a;
      }

      .cls-4 {
        font-size: 30px;
        fill: #fff;
        font-family: Arial;
        font-weight: 700;
        text-transform: uppercase;
      }
    </style>
    <filter id="filter" x="0" y="0" width="138" height="184" filterUnits="userSpaceOnUse">
      <feOffset result="offset" dy="4" in="SourceAlpha"/>
      <feGaussianBlur result="blur"/>
      <feFlood result="flood" flood-color="#7f6c70"/>
      <feComposite result="composite" operator="in" in2="blur"/>
      <feBlend result="blend" in="SourceGraphic"/>
    </filter>
  </defs>
  <path id="Rounded_Rectangle_1" data-name="Rounded Rectangle 1" class="cls-1" d="M12,0H94.163L138,44.134V168a12,12,0,0,1-12,12H12A12,12,0,0,1,0,168V12A12,12,0,0,1,12,0Z"/>
  <path id="corner_shadow" data-name="corner shadow" class="cls-2" d="M94,4l44,40v2H106A12,12,0,0,1,94,34V4Z"/>
  <path id="corner" class="cls-3" d="M94,0l44,44H106A12,12,0,0,1,94,32V0Z"/>
  <text id="swf" class="cls-4" transform="translate(13.286 112.884) scale(1.703)">swf</text>
</svg>
