<svg id="Txt" xmlns="http://www.w3.org/2000/svg" xmlns:xlink="http://www.w3.org/1999/xlink" width="138" height="184" viewBox="0 0 138 184">
  <defs>
    <style>
      .cls-1 {
        fill: #aaacb0;
        filter: url(#filter);
      }

      .cls-1, .cls-2, .cls-3 {
        fill-rule: evenodd;
      }

      .cls-2 {
        fill: #6a6a6a;
      }

      .cls-3 {
        fill: #858688;
      }

      .cls-4 {
        fill: #fff;
      }
    </style>
    <filter id="filter" x="0" y="0" width="138" height="184" filterUnits="userSpaceOnUse">
      <feOffset result="offset" dy="4" in="SourceAlpha"/>
      <feGaussianBlur result="blur"/>
      <feFlood result="flood" flood-color="#6a6a6a"/>
      <feComposite result="composite" operator="in" in2="blur"/>
      <feBlend result="blend" in="SourceGraphic"/>
    </filter>
  </defs>
  <path id="Rounded_Rectangle_1" data-name="Rounded Rectangle 1" class="cls-1" d="M12,0H94.163L138,44.134V168a12,12,0,0,1-12,12H12A12,12,0,0,1,0,168V12A12,12,0,0,1,12,0Z"/>
  <path id="corner_shadow_" data-name="corner shadow " class="cls-2" d="M94,4l44,40v2H106A12,12,0,0,1,94,34V4Z"/>
  <path id="corner" class="cls-3" d="M94,0l44,44H106A12,12,0,0,1,94,32V0Z"/>
  <rect class="cls-4" x="27" y="65" width="84" height="10"/>
  <rect id="Rectangle_1_copy" data-name="Rectangle 1 copy" class="cls-4" x="27" y="85" width="84" height="10"/>
  <rect id="Rectangle_1_copy_2" data-name="Rectangle 1 copy 2" class="cls-4" x="27" y="105" width="84" height="10"/>
</svg>
