<svg id="Jpg" xmlns="http://www.w3.org/2000/svg" xmlns:xlink="http://www.w3.org/1999/xlink" width="138" height="184" viewBox="0 0 138 184">
  <defs>
    <style>
      .cls-1, .cls-6 {
        fill: #848484;
      }

      .cls-1, .cls-2, .cls-3, .cls-7 {
        fill-rule: evenodd;
      }

      .cls-1 {
        filter: url(#filter);
      }

      .cls-2 {
        fill: #646464;
      }

      .cls-3 {
        fill: #727272;
      }

      .cls-4 {
        font-size: 30px;
        font-family: Arial;
        font-weight: 700;
        text-transform: uppercase;
      }

      .cls-4, .cls-5, .cls-7 {
        fill: #fff;
      }
    </style>
    <filter id="filter" x="0" y="0" width="138" height="184" filterUnits="userSpaceOnUse">
      <feOffset result="offset" dy="4" in="SourceAlpha"/>
      <feGaussianBlur result="blur"/>
      <feFlood result="flood" flood-color="#646464"/>
      <feComposite result="composite" operator="in" in2="blur"/>
      <feBlend result="blend" in="SourceGraphic"/>
    </filter>
  </defs>
  <path id="Rounded_Rectangle_1" data-name="Rounded Rectangle 1" class="cls-1" d="M12,0H94.163L138,44.134V168a12,12,0,0,1-12,12H12A12,12,0,0,1,0,168V12A12,12,0,0,1,12,0Z"/>
  <path id="corner_shadow" data-name="corner shadow" class="cls-2" d="M94,4l44,40v2H106A12,12,0,0,1,94,34V4Z"/>
  <path id="corner" class="cls-3" d="M94,0l44,44H106A12,12,0,0,1,94,32V0Z"/>
  <text id="WMv" class="cls-4" transform="translate(14.379 157.824) scale(1.465)">WMv</text>
  <g>
    <circle class="cls-5" cx="67.5" cy="76.5" r="38.5"/>
    <circle id="Ellipse_1_copy" data-name="Ellipse 1 copy" class="cls-6" cx="67.5" cy="76.5" r="32.156"/>
    <path id="Rounded_Rectangle_2" data-name="Rounded Rectangle 2" class="cls-7" d="M56.92,62.134a3.175,3.175,0,0,1,4.491,0L82.66,75.446a3.175,3.175,0,0,1,0,4.491L61.41,93.248a3.175,3.175,0,0,1-4.491,0"/>
  </g>
</svg>
