<svg width="12" height="12" viewBox="0 0 12 12" fill="none" xmlns="http://www.w3.org/2000/svg">
<path d="M7.1667 11.8333H1.33336C1.02074 11.8442 0.71764 11.7248 0.496449 11.5036C0.275257 11.2824 0.155833 10.9793 0.166697 10.6667V4.83333C0.155833 4.52071 0.275257 4.21761 0.496449 3.99642C0.71764 3.77523 1.02074 3.6558 1.33336 3.66667H3.6667V1.33333C3.65583 1.02071 3.77526 0.71761 3.99645 0.496418C4.21764 0.275227 4.52074 0.155803 4.83336 0.166667H10.6667C10.9793 0.155803 11.2824 0.275227 11.5036 0.496418C11.7248 0.71761 11.8442 1.02071 11.8334 1.33333V7.16667C11.8441 7.47924 11.7246 7.78224 11.5034 8.00339C11.2823 8.22454 10.9793 8.34402 10.6667 8.33333H8.33336V10.6667C8.34405 10.9792 8.22457 11.2822 8.00342 11.5034C7.78227 11.7245 7.47927 11.844 7.1667 11.8333ZM1.33336 4.83333V10.6667H7.1667V8.33333H4.83336C4.52079 8.34402 4.21779 8.22454 3.99664 8.00339C3.77549 7.78224 3.65601 7.47924 3.6667 7.16667V4.83333H1.33336ZM4.83336 1.33333V7.16667H10.6667V1.33333H4.83336Z" fill="#0347FF"/>
</svg>
