<?xml version="1.0" encoding="utf-8"?>
<!-- Generator: Adobe Illustrator 22.1.0, SVG Export Plug-In . SVG Version: 6.00 Build 0)  -->
<svg version="1.1" id="Layer_1" xmlns="http://www.w3.org/2000/svg" xmlns:xlink="http://www.w3.org/1999/xlink" x="0px" y="0px"
	 viewBox="0 0 128 128" style="enable-background:new 0 0 128 128;" xml:space="preserve">
<style type="text/css">
	.st0{fill:#1F216E;}
	.st1{fill:#53B8DE;}
</style>
<title>Icons8 RSL Colored Part 9</title>
<g>
	<path class="st0" d="M80.5,105.6c-9.4,0-18.8,0-28.2,0c-6.3,0-10.6-4.2-10.6-10.5c0-8.3,0-16.7,0-25c0-3.5,0-7.1,0-10.6
		C41.8,53.2,46,49,52.3,49c18.8,0,37.6,0,56.4,0c6.3,0,10.6,4.3,10.6,10.5c0,11.9,0,23.8,0,35.6c0,6.1-4.3,10.5-10.5,10.5
		C99.4,105.6,89.9,105.6,80.5,105.6L80.5,105.6z M81.1,69.9c-10.6,0-21.2,0-31.9,0c-1.1,0-1.4,0.3-1.4,1.4c0,7.9,0,15.8,0,23.7
		c0,3,1.5,4.4,4.4,4.4c19.1,0,38.1,0,57.2,0c3.3,0,4.6-1.3,4.6-4.7c0-7.7,0-15.5,0-23.2c0-1.6,0-1.6-1.6-1.6
		C102,69.9,91.5,69.9,81.1,69.9z M113.9,60.4c0.4-3.4-1.1-5.2-4.1-5.2c-19.3,0-38.7,0-58,0c-2.3,0-3.7,1.4-4,3.6
		c-0.2,1.5-0.1,1.6,1.4,1.6c21.1,0,42.2,0,63.2,0C113,60.4,113.4,60.4,113.9,60.4z"/>
	<path class="st1" d="M86.5,42.6c-1,0-1.9,0-2.8,0c-10.8,0-21.6,0-32.4,0c-7.7,0-13.9,4.9-15.6,12.3c-0.3,1.2-0.4,2.5-0.4,3.7
		c0,11.4,0,22.7,0,34.1c0,2.7,0.7,5.2,2,7.6c-2,0.7-4,0.5-5.8-0.2c-2.5-0.9-4.4-2.5-5.5-4.8c-5.4-11-10.9-21.9-16.2-32.9
		c-2.6-5.3-0.4-11,5-13.7c10.8-5.3,21.6-10.7,32.3-16c6-3,12-6,18.1-8.9c6-3,11.6-1,14.6,5c2,4,4,8.1,6,12.1
		C86,41.4,86.2,41.9,86.5,42.6z"/>
	<path class="st0" d="M63.3,84.5c3.7-2.9,7.2-2.9,9.7-0.2c2.4,2.6,2.4,6.4,0,8.9c-1.9,2.1-5.9,3.4-9.7-0.2c-1.7,1.7-3.7,2.6-6.2,2.1
		c-1.5-0.3-2.8-1.1-3.8-2.3c-2.1-2.6-1.9-6.4,0.5-8.7C56.4,81.6,60,81.7,63.3,84.5z"/>
</g>
</svg>
