<?xml version="1.0" encoding="utf-8"?>
<!-- Generator: Adobe Illustrator 22.1.0, SVG Export Plug-In . SVG Version: 6.00 Build 0)  -->
<svg version="1.1" id="Layer_1" xmlns="http://www.w3.org/2000/svg" xmlns:xlink="http://www.w3.org/1999/xlink" x="0px" y="0px"
	 viewBox="0 0 128 128" style="enable-background:new 0 0 128 128;" xml:space="preserve">
<style type="text/css">
	.st0{fill:#12BDE2;}
	.st1{fill:none;stroke:#1F216E;stroke-width:5;stroke-miterlimit:10;}
</style>
<g>
	<path class="st0" d="M41.3,71.2c-0.9,0.9-2.2,1.5-3.8,1.8v1.4c0,0.5-0.1,0.8-0.4,1.1C36.8,75.9,36.5,76,36,76
		c-0.4,0-0.8-0.1-1.1-0.4c-0.3-0.3-0.4-0.6-0.4-1.1v-1.4c-0.9-0.1-1.8-0.3-2.7-0.6c-0.9-0.3-1.6-0.7-2.3-1.2
		c-0.3-0.2-0.5-0.4-0.6-0.6c-0.1-0.2-0.2-0.5-0.2-0.8c0-0.4,0.1-0.8,0.4-1.1c0.3-0.3,0.6-0.5,0.9-0.5c0.3,0,0.7,0.1,1.2,0.4
		c0.8,0.5,1.5,0.8,2.2,1c0.7,0.2,1.4,0.3,2.2,0.3c1,0,1.8-0.2,2.3-0.6c0.5-0.4,0.8-0.9,0.8-1.6c0-0.4-0.2-0.8-0.5-1
		c-0.3-0.3-0.7-0.5-1.2-0.6c-0.5-0.2-1.1-0.3-2-0.6c-1.3-0.3-2.3-0.6-3.1-1c-0.8-0.3-1.5-0.8-2.1-1.5c-0.6-0.7-0.9-1.6-0.9-2.8
		c0-1.4,0.5-2.5,1.5-3.5c1-1,2.2-1.6,3.8-1.9v-1.4c0-0.5,0.1-0.8,0.4-1.1c0.3-0.3,0.7-0.4,1.1-0.4c0.5,0,0.8,0.1,1.1,0.4
		c0.3,0.3,0.4,0.6,0.4,1.1v1.4c1.5,0.2,3,0.8,4.3,1.7c0.3,0.2,0.4,0.4,0.5,0.6c0.1,0.2,0.2,0.5,0.2,0.8c0,0.4-0.1,0.8-0.4,1.1
		c-0.3,0.3-0.6,0.5-0.9,0.5c-0.2,0-0.4,0-0.5-0.1c-0.2-0.1-0.4-0.2-0.7-0.3c-0.7-0.4-1.3-0.8-1.9-1c-0.6-0.2-1.2-0.3-2-0.3
		c-0.9,0-1.6,0.2-2.2,0.6c-0.5,0.4-0.8,0.9-0.8,1.6c0,0.5,0.2,0.9,0.5,1.2c0.3,0.3,0.7,0.5,1.2,0.7c0.5,0.2,1.2,0.4,2.1,0.6
		c1.2,0.3,2.2,0.6,3,0.9c0.8,0.3,1.5,0.8,2,1.5c0.6,0.7,0.9,1.6,0.9,2.8C42.7,69.1,42.3,70.3,41.3,71.2z"/>
</g>
<title>Icons8 RSL Colored Part 9</title>
<circle class="st1" cx="35.8" cy="64" r="22.2"/>
<circle class="st1" cx="92.2" cy="64" r="22.2"/>
<g>
	<path class="st0" d="M100,69.3c0.3,0.3,0.4,0.8,0.4,1.2c0,0.3-0.1,0.6-0.2,0.8c-0.1,0.2-0.3,0.5-0.6,0.7c-1.6,1.3-3.5,2-5.5,2
		c-1.9,0-3.4-0.6-4.7-1.7s-2.1-2.8-2.5-4.9h-1.5c-0.4,0-0.7-0.1-0.9-0.4c-0.3-0.2-0.4-0.5-0.4-0.9c0-0.4,0.1-0.7,0.4-0.9
		c0.3-0.2,0.6-0.4,0.9-0.4h1.2c0-0.2,0-0.5,0-0.9c0-0.4,0-0.7,0-0.9h-1.2c-0.4,0-0.7-0.1-0.9-0.4c-0.3-0.2-0.4-0.5-0.4-0.9
		c0-0.3,0.1-0.7,0.4-0.9c0.3-0.2,0.6-0.4,0.9-0.4H87c0.4-2.1,1.3-3.7,2.5-4.9c1.2-1.1,2.8-1.7,4.7-1.7c1.9,0,3.8,0.7,5.5,2
		c0.3,0.2,0.4,0.4,0.6,0.6c0.1,0.2,0.2,0.5,0.2,0.9c0,0.5-0.1,0.9-0.4,1.2c-0.3,0.3-0.6,0.5-1,0.5c-0.2,0-0.4,0-0.6-0.1
		c-0.2-0.1-0.4-0.2-0.7-0.4c-0.7-0.5-1.3-0.8-1.8-1c-0.5-0.2-1-0.3-1.5-0.3c-0.8,0-1.5,0.3-2,0.8c-0.5,0.5-0.9,1.3-1.1,2.4h3.2
		c0.4,0,0.7,0.1,0.9,0.4c0.2,0.2,0.4,0.5,0.4,0.9c0,0.4-0.1,0.7-0.4,0.9c-0.2,0.2-0.6,0.4-0.9,0.4h-3.5V64v0.9h3.5
		c0.4,0,0.7,0.1,0.9,0.4c0.2,0.2,0.4,0.5,0.4,0.9s-0.1,0.7-0.4,0.9c-0.2,0.2-0.6,0.4-0.9,0.4h-3.2c0.2,1.1,0.6,1.9,1.1,2.4
		c0.5,0.5,1.2,0.8,2,0.8c0.5,0,1-0.1,1.5-0.3c0.5-0.2,1.1-0.5,1.8-1c0.3-0.2,0.5-0.3,0.7-0.4c0.2-0.1,0.4-0.1,0.6-0.1
		C99.4,68.8,99.7,68.9,100,69.3z"/>
</g>
</svg>
