<?xml version="1.0" encoding="utf-8"?>
<!-- Generator: Adobe Illustrator 22.1.0, SVG Export Plug-In . SVG Version: 6.00 Build 0)  -->
<svg version="1.1" id="Layer_1" xmlns="http://www.w3.org/2000/svg" xmlns:xlink="http://www.w3.org/1999/xlink" x="0px" y="0px"
	 viewBox="0 0 128 128" style="enable-background:new 0 0 128 128;" xml:space="preserve">
<style type="text/css">
	.st0{fill:#1F216E;}
	.st1{fill:#53B8DE;}
</style>
<title>Dusk Part 3</title>
<g>
	<path class="st0" d="M109.8,38.3c0,21.2,0,42.4,0,63.6c-0.2,0.5-0.4,0.9-0.7,1.3c-0.9,1.4-2.2,1.7-3.8,1.7c-27.6,0-55.2,0-82.8,0
		c-2.7,0-4.2-1.6-4.2-4.3c0-20.4,0-40.7,0-61.1c0-2.9,1.5-4.4,4.4-4.4c3.7,0,7.3,0,11,0c0.3,0,0.6,0,1,0c0-0.5,0-0.8,0-1.1
		c0-2.9,0-5.8,0-8.7c0-1.8,0.6-2.4,2.3-2.4c3.1,0,6.2,0,9.3,0c1.7,0,2.3,0.6,2.3,2.4c0,2.9,0,5.8,0,8.8c0,0.3,0,0.6,0,0.9
		c10.3,0,20.4,0,30.7,0c0-0.3,0-0.6,0-0.9c0-3,0-6,0-8.9c0-1.6,0.6-2.2,2.2-2.2c3.2,0,6.3,0,9.5,0c1.7,0,2.3,0.6,2.3,2.2
		c0,2.9,0,5.9,0,8.8c0,0.3,0,0.6,0,1c0.4,0,0.7,0,1,0c3.7,0,7.3,0,11,0c0.5,0,1.1,0,1.6,0.1C108.5,35.7,109.2,36.9,109.8,38.3z
		 M101.3,51.7c-24.9,0-49.8,0-74.6,0c0,15.4,0,30.7,0,46c24.9,0,49.7,0,74.6,0C101.3,82.3,101.3,67,101.3,51.7z"/>
	<path class="st1" d="M62.4,69.2c-0.9,0.5-1.5,0.8-2.2,1.2c-1.1,0.6-2,0.2-2.3-1c-0.4-1.6-0.8-3.3-1.3-4.9c-0.2-0.9,0.1-1.5,0.9-2
		c2.2-1.2,4.5-2.4,6.7-3.6c0.4-0.2,0.9-0.3,1.4-0.3c1.4,0,2.7,0,4.1,0c1.2,0,1.7,0.5,1.7,1.7c0,9.9,0,19.9,0,29.8
		c0,1.2-0.5,1.7-1.8,1.7c-1.8,0-3.6,0-5.4,0c-1.5,0-1.9-0.4-1.9-1.9c0-6.5,0-13,0-19.6C62.4,70,62.4,69.7,62.4,69.2z"/>
</g>
</svg>
