<?xml version="1.0" encoding="utf-8"?>
<!-- Generator: Adobe Illustrator 22.1.0, SVG Export Plug-In . SVG Version: 6.00 Build 0)  -->
<svg version="1.1" id="Layer_1" xmlns="http://www.w3.org/2000/svg" xmlns:xlink="http://www.w3.org/1999/xlink" x="0px" y="0px"
	 viewBox="0 0 128 128" style="enable-background:new 0 0 128 128;" xml:space="preserve">
<style type="text/css">
	.st0{fill:#1F216E;}
	.st1{fill:#12BDE2;}
	.st2{fill:#FFFFFF;}
</style>
<title>Dusk Part 1</title>
<g>
	<path class="st0" d="M20.6,101.6c0-3.2,0-6.3,0-9.3c0-2,0-4,0-5.9c0-1.4,0.5-2.5,1.4-3.4c5-4.9,9.9-9.9,14.9-14.8
		c2.5-2.5,5.8-3.5,9.2-3.5c8-0.1,16.1-0.1,24.1,0c2.5,0,4.5,2.2,4.5,4.7c0,2.5-2.1,4.6-4.6,4.6c-5.7,0-11.3,0-17,0
		c-1.5,0-2.6,0.8-2.8,2.1c-0.2,1.5,0.8,2.8,2.4,2.8c2.1,0,4.2,0,6.4,0c5.2,0,10.4,0,15.6,0c1.7,0,3.1-0.6,4.3-1.8
		c6.7-6.8,13.4-13.5,20.2-20.2c1.9-1.9,4.5-2.2,6.4-0.6c2,1.6,2.5,4.5,0.9,6.5c-0.3,0.4-0.7,0.8-1.1,1.2
		c-8.6,8.6-17.3,17.3-25.9,25.9c-1.3,1.3-2.8,2-4.7,2c-9.9,0-19.9,0-29.8,0c-1.2,0-2.2,0.4-3,1.2c-2.6,2.7-5.3,5.3-8,8
		c-0.3,0.3-0.9,0.6-1.3,0.6c-3.8,0.1-7.6,0-11.5,0C21,101.7,20.9,101.6,20.6,101.6z"/>
	<path class="st1" d="M80.4,42.7c-0.1,9.5-8,16.8-17.2,16.3c-8.2-0.4-15.5-7.2-15.5-16.4c0.1-9.1,7.4-16.4,16.5-16.3
		C73.1,26.4,80.4,33.9,80.4,42.7z"/>
	<path class="st1" d="M80.4,42.7c-0.1,9.5-8,16.8-17.2,16.3c-8.2-0.4-15.5-7.2-15.5-16.4c0.1-9.1,7.4-16.4,16.5-16.3
		C73.1,26.4,80.4,33.9,80.4,42.7z"/>
	<g>
		<g>
			<path class="st2" d="M59.6,44.5l-1.3,0.7c-0.3,0.2-0.7-0.1-0.7-0.4v-0.5c0-0.2,0.1-0.3,0.2-0.4l2.2-1.1c0.2-0.1,0.2-0.2,0.2-0.4
				v-1.1c0-0.3-0.3-0.6-0.7-0.4l-1.4,0.7c-0.3,0.2-0.7-0.1-0.7-0.4v-0.5c0-0.2,0.1-0.3,0.2-0.4l2.2-1.1c0.2-0.1,0.2-0.2,0.2-0.4v-5
				c0-0.2,0.2-0.5,0.5-0.5h1.5c0.2,0,0.5,0.2,0.5,0.5v3.4c0,0.3,0.3,0.6,0.7,0.4l3.4-1.8c0.3-0.2,0.7,0.1,0.7,0.4v0.5
				c0,0.2-0.1,0.3-0.2,0.4l-4.3,2.2c-0.2,0.1-0.2,0.2-0.2,0.4v1.1c0,0.3,0.3,0.6,0.7,0.4l3.4-1.8c0.3-0.2,0.7,0.1,0.7,0.4v0.5
				c0,0.2-0.1,0.3-0.2,0.4l-4.3,2.2c-0.2,0.1-0.2,0.2-0.2,0.4v6.1c0,0.2,0.2,0.5,0.5,0.5c2.5-0.2,5.1-1.9,5.1-4.7
				c0-0.2,0-0.5-0.1-0.8c0-0.2,0.1-0.5,0.3-0.5l1.1-0.3c0.2-0.1,0.5,0.1,0.6,0.3c0.1,0.4,0.1,0.8,0.1,1.1c0,4.7-4.1,7-9.6,7
				c-0.2,0-0.5-0.2-0.5-0.5v-6.6C60.3,44.6,59.9,44.5,59.6,44.5z"/>
		</g>
	</g>
</g>
</svg>
