<svg id="Ken_Icon" data-name="Ken Icon" xmlns="http://www.w3.org/2000/svg" xmlns:xlink="http://www.w3.org/1999/xlink" viewBox="0 0 800 800"><defs><style>.cls-1{fill:url(#linear-gradient);}.cls-2{opacity:0.07;}.cls-3{fill:#fff;}.cls-4{fill:#01767b;}</style><linearGradient id="linear-gradient" x1="398.09" y1="5.72" x2="402.05" y2="807.69" gradientTransform="matrix(1, 0, 0, -1, 0, 800)" gradientUnits="userSpaceOnUse"><stop offset="0" stop-color="#01949a"/><stop offset="0.52" stop-color="#01b0a3"/><stop offset="1" stop-color="#00cdac"/></linearGradient></defs><title>YoutubeLightBox</title><g id="youtube_lightbox" data-name="youtube lightbox"><path id="Youtube" class="cls-1" d="M797.24,799.89H2.84a2.8,2.8,0,0,1-2.8-2.8V2.69a2.73,2.73,0,0,1,2.8-2.8h794.4a2.8,2.8,0,0,1,2.8,2.8v794.4A2.73,2.73,0,0,1,797.24,799.89Z" transform="translate(-0.04 0.11)"/><path class="cls-2" d="M203.5,565.86a12.4,12.4,0,0,1-12.4-12.4V337.66H156.8a12.4,12.4,0,0,0-12.4,12.4v245.6a12.4,12.4,0,0,0,12.4,12.4H592.6a8,8,0,0,0,8-8v-34.3H203.5Z" transform="translate(-0.04 0.11)"/><path class="cls-2" d="M654,249.86l-14.5-14.5a3.14,3.14,0,0,1,0-4.4l14.5-14.5a3.14,3.14,0,0,0,0-4.4l-13.4-13.4a3.14,3.14,0,0,0-4.4,0l-14.5,14.5a3.14,3.14,0,0,1-4.4,0l-14.5-14.5a3.14,3.14,0,0,0-4.4,0L585,212.06a3.14,3.14,0,0,0,0,4.4L599.5,231a3.14,3.14,0,0,1,0,4.4L585,249.86a3.14,3.14,0,0,0,0,4.4l13.4,13.4a3.14,3.14,0,0,0,4.4,0l14.5-14.5a3.14,3.14,0,0,1,4.4,0l14.5,14.5a3.14,3.14,0,0,0,4.4,0l13.4-13.4A3,3,0,0,0,654,249.86Z" transform="translate(-0.04 0.11)"/><path class="cls-2" d="M646.2,285.36H210a10.07,10.07,0,0,0-10.1,10.1v250.3a10.07,10.07,0,0,0,10.1,10.1H646.2a10.07,10.07,0,0,0,10.1-10.1V295.46A10.2,10.2,0,0,0,646.2,285.36Z" transform="translate(-0.04 0.11)"/><path class="cls-2" d="M504,382.14c-1.79-8.73-7.35-14.27-16-16.47a70.15,70.15,0,0,0-13.68-1.79c-23.45-1.2-46.9-2.46-70.4-1.47-13.93.58-27.86.87-41.76,2.12s-21.21,9-23.06,20.26-2.36,22.69-2.74,34c-.41,11.94.66,23.88,2,35.76.49,4.24,1.1,8.52,3,12.4,3.89,7.95,10.71,11.41,19.22,12.41,20.33,2.4,40.77,2,61.17,2.2,8,0,16,.18,24,0,13.6-.39,27.23-.41,40.69-2.76,9.57-1.67,15.74-7.89,17.76-17.47,2-9.38,2.5-18.9,2.82-28.44C507.55,415.89,507.37,398.89,504,382.14Zm-72.58,50.33c-8,4.61-16,9.14-23.92,13.79-2,1.16-2.87,1.51-2.85-1.49.12-15.13,0-30.25.06-45.38,0-1.33-.44-3.35,2.09-1.89,13.93,8.05,27.85,16.12,42.45,24.58C442.89,425.76,437.14,429.14,431.37,432.47Z" transform="translate(-0.04 0.11)"/><path class="cls-3" d="M208.5,559.86a12.4,12.4,0,0,1-12.4-12.4V331.66H161.8a12.4,12.4,0,0,0-12.4,12.4v245.6a12.4,12.4,0,0,0,12.4,12.4H597.6a8,8,0,0,0,8-8v-34.3H208.5Z" transform="translate(-0.04 0.11)"/><path class="cls-3" d="M659,243.86l-14.5-14.5a3.14,3.14,0,0,1,0-4.4l14.5-14.5a3.14,3.14,0,0,0,0-4.4l-13.4-13.4a3.14,3.14,0,0,0-4.4,0l-14.5,14.5a3.14,3.14,0,0,1-4.4,0l-14.5-14.5a3.14,3.14,0,0,0-4.4,0L590,206.06a3.14,3.14,0,0,0,0,4.4L604.5,225a3.14,3.14,0,0,1,0,4.4L590,243.86a3.14,3.14,0,0,0,0,4.4l13.4,13.4a3.14,3.14,0,0,0,4.4,0l14.5-14.5a3.14,3.14,0,0,1,4.4,0l14.5,14.5a3.14,3.14,0,0,0,4.4,0l13.4-13.4A3,3,0,0,0,659,243.86Z" transform="translate(-0.04 0.11)"/><path class="cls-3" d="M651.2,279.36H215a10.07,10.07,0,0,0-10.1,10.1v250.3a10.07,10.07,0,0,0,10.1,10.1H651.2a10.07,10.07,0,0,0,10.1-10.1V289.46A10.2,10.2,0,0,0,651.2,279.36Z" transform="translate(-0.04 0.11)"/><path class="cls-4" d="M509,376.14c-1.79-8.73-7.35-14.27-16-16.47a70.15,70.15,0,0,0-13.68-1.79c-23.45-1.2-46.9-2.46-70.4-1.47-13.93.58-27.86.87-41.76,2.12s-21.21,9-23.06,20.26-2.36,22.69-2.74,34c-.41,11.94.66,23.88,2,35.76.49,4.24,1.1,8.52,3,12.4,3.89,7.95,10.71,11.41,19.22,12.41,20.33,2.4,40.77,2,61.17,2.2,8,0,16,.18,24,0,13.6-.39,27.23-.41,40.69-2.76,9.57-1.67,15.74-7.89,17.76-17.47,2-9.38,2.5-18.9,2.82-28.44C512.55,409.89,512.37,392.89,509,376.14Zm-72.58,50.33c-8,4.61-16,9.14-23.92,13.79-2,1.16-2.87,1.51-2.85-1.49.12-15.13,0-30.25.06-45.38,0-1.33-.44-3.35,2.09-1.89,13.93,8.05,27.85,16.12,42.45,24.58C447.89,419.76,442.14,423.14,436.37,426.47Z" transform="translate(-0.04 0.11)"/></g></svg>