<svg width="104" height="38" viewBox="0 0 104 38" xmlns="http://www.w3.org/2000/svg" xmlns:xlink="http://www.w3.org/1999/xlink">
    <defs>
        <path id="a" d="M0 0h8.634v8.634H0z"/>
        <path id="c" d="M0 37.23h104V0H0z"/>
    </defs>
    <g fill="none" fill-rule="evenodd">
        <path d="M54.902 15.774a8.159 8.159 0 0 0-.13-1.215c-.734-4.581-5.156-7.152-9.501-5.537a8.787 8.787 0 0 0-3.022 1.918c-.145-.515-.25-.939-.384-1.354-.164-.51-.49-.873-1.02-1.02-.774-.222-1.391.127-1.393.856-.016 4.269-.014 8.538.006 12.807 0 .89.69 1.548 1.567 1.68.858.137 1.69-.36 1.977-1.18.096-.314.142-.642.134-.97.018-1.962-.058-3.927.045-5.884.15-2.855 3.64-4.725 6.058-3.283 1.357.81 1.962 2.074 1.973 3.629 0 .505.002 1.01.005 1.515v4.04c-.006.329.043.656.146.968a1.835 1.835 0 0 0 3.539-.66 328.9 328.9 0 0 0 .005-3.373c.015-1.114.007-1.226-.005-2.937M21.75 8.661a1.82 1.82 0 0 0-2.578 1.643c-.024 1.946.013 3.894-.014 5.84-.042 3.059-3.417 5.173-5.996 3.754-1.428-.784-2.064-2.07-2.086-3.657-.028-1.931 0-3.862-.01-5.792 0-.864-.446-1.538-1.172-1.817-1.247-.48-2.5.408-2.512 1.805-.017 1.976-.01 3.956.006 5.932.009.502.055 1.003.138 1.498.461 2.901 2.608 5.283 5.351 5.869 2.55.545 4.768-.254 6.738-1.87.13-.102.255-.22.441-.381.078.32.135.576.204.827.152.568.328 1.121.892 1.433.853.47 1.69.076 1.694-.837.013-4.19.013-8.382 0-12.573-.004-.773-.378-1.358-1.095-1.674m48.666.245c-1.013-.902-2.497-.542-3.005.747-.837 2.131-1.655 4.27-2.484 6.404-.373.962-.753 1.921-1.159 2.957-.09-.21-.148-.336-.198-.465l-1.86-4.727c-.556-1.417-1.1-2.838-1.677-4.245-.35-.853-1.145-1.282-2.002-1.142-.892.146-1.508.758-1.53 1.642-.002.422.088.839.263 1.223 1.494 3.334 2.978 6.675 4.554 9.972.416.868.443 1.544 0 2.393-.268.539-.68.994-1.188 1.317-.486.33-.764.3-1.502.43-.737.13-1.625.226-1.625 1.212 0 .985.97 1.853 2.488 1.853 2.338 0 4.017-1.052 4.98-3.2a1611.49 1611.49 0 0 0 3.015-6.744c1.099-2.464 2.197-4.928 3.294-7.393.393-.883.26-1.676-.364-2.234m-34.88-.082c-2.335-.678-4.283.101-6.009 1.652-.124.111-.241.229-.397.378-.055-.168-.089-.269-.12-.37-.13-.402-.213-.825-.394-1.202a1.403 1.403 0 0 0-1.622-.739c-.48.125-.647.445-.647 1.254V20.72c0 .486-.014.974.008 1.46.02.814.593 1.511 1.39 1.69 1.184.273 2.27-.561 2.28-1.785.016-1.945-.008-3.892.016-5.837.006-.485.079-.967.215-1.432.532-1.801 1.963-2.77 3.826-2.651.532.043 1.066.05 1.599.02 1.112-.084 1.82-1.102 1.463-2.096-.272-.743-.915-1.064-1.608-1.264M4.062 4.577a1.985 1.985 0 0 0-2.023-2.02A2.01 2.01 0 0 0 0 4.537v.035C.012 5.68.898 6.536 2.034 6.536c1.147 0 2.017-.842 2.028-1.96Zm-.199 14.948V18.02c.006-.641 0-.453 0-.906v-2.48c0-1.442.006-2.881-.008-4.322-.01-1.052-.801-1.807-1.835-1.809-1.009 0-1.823.736-1.828 1.76 0 .42 0 .8-.006 1.152a2.92 2.92 0 0 0-.009.215v8.769c0 2.345 1.406 3.579 3.347 3.579 1.505 0 2.193-1.01 2.14-1.505-.126-1.241-1.8-.724-1.8-2.947" fill="#89DA3E"/>
        <g transform="translate(95.366)">
            <mask id="b" fill="#fff">
                <use xlink:href="#a"/>
            </mask>
            <g/>
            <path d="M4.319 0a4.317 4.317 0 1 0 4.315 4.319A4.323 4.323 0 0 0 4.319 0" fill="#89DA3E" mask="url(#b)"/>
        </g>
        <path d="M93.25 25.888h-6.02a9.161 9.161 0 0 1-9.153-9.15v-6.023A9.16 9.16 0 0 1 87.23 1.56h4.87a1.44 1.44 0 0 1 0 2.878h-4.87a6.28 6.28 0 0 0-6.274 6.273v6.022a6.28 6.28 0 0 0 6.274 6.273h6.021a6.28 6.28 0 0 0 6.274-6.273v-4.867a1.439 1.439 0 0 1 2.877-.004v4.876a9.16 9.16 0 0 1-9.15 9.15m-90.757 6.14c-.82 0-1.313.623-1.313 1.443 0 .82.492 1.452 1.313 1.452.82 0 1.304-.634 1.304-1.45s-.483-1.445-1.304-1.445m.156 3.604a1.66 1.66 0 0 1-1.443-.744h-.017v.649H.396v-5.962h.815v2.497h.018a1.671 1.671 0 0 1 1.433-.714c1.201 0 1.98.918 1.98 2.125 0 1.207-.774 2.149-1.991 2.149m6.653-4.198-1.98 4.82c-.284.714-.621.95-1.079.95a2.03 2.03 0 0 1-.777-.146l.164-.674c.137.056.283.088.432.095.173 0 .354.017.536-.483l.198-.545-1.64-4.027.863.009 1.223 3.187 1.204-3.196.856.01Z" fill="#003B5C"/>
        <mask id="d" fill="#fff">
            <use xlink:href="#c"/>
        </mask>
        <g/>
        <path d="M12.027 35.537h.846v-4.103h-.846v4.103Zm.423-4.942a.514.514 0 0 1-.493-.536.516.516 0 0 1 .547-.482.514.514 0 0 1 .493.508.515.515 0 0 1-.547.51Zm5.355 4.942h-.829v-2.29c0-.692-.121-1.21-.855-1.21-.769 0-1.055.648-1.055 1.434v2.066h-.828v-4.103h.827l-.008.647h.026a1.386 1.386 0 0 1 1.253-.725c1.166 0 1.468.77 1.468 1.754l.001 2.427Zm3.189-3.509c-.815 0-1.305.623-1.305 1.443 0 .82.485 1.452 1.305 1.452.821 0 1.304-.634 1.304-1.45s-.483-1.445-1.304-1.445Zm2.1 3.509h-.796v-.657h-.017a1.67 1.67 0 0 1-1.443.752c-1.218 0-1.995-.933-1.995-2.152 0-1.218.777-2.125 1.978-2.125.666 0 1.15.294 1.435.714h.017v-2.494h.82v5.962Zm1.427 0h.846v-4.103h-.846v4.103Zm.423-4.942a.514.514 0 0 1-.493-.536.516.516 0 0 1 .547-.482.514.514 0 0 1 .493.508.515.515 0 0 1-.547.51Zm3.663 1.426c-.839 0-1.305.622-1.305 1.4 0 .778.466 1.39 1.305 1.39.838 0 1.304-.611 1.304-1.39 0-.779-.458-1.4-1.304-1.4Zm2.099 2.651c0 .908-.147 1.408-.45 1.771-.303.363-.815.786-1.835.786a3.148 3.148 0 0 1-1.835-.612l.388-.579c.425.319.938.5 1.468.518.612 0 .96-.241 1.122-.448.162-.207.311-.588.311-1.15v-.203h-.017c-.277.415-.744.735-1.435.735-1.053 0-1.978-.76-1.978-2.065 0-1.304.925-2.064 1.978-2.064.714 0 1.193.345 1.435.724h.025l-.008-.647h.816l.015 3.234Zm1.393.865h.846v-4.103h-.846v4.103Zm.423-4.942a.514.514 0 0 1-.493-.535.516.516 0 0 1 .545-.484.514.514 0 0 1 .494.509.515.515 0 0 1-.546.51Zm3.783 4.898a2.08 2.08 0 0 1-.752.139c-.431 0-.7-.165-.872-.424-.172-.259-.204-.579-.204-1.223v-1.878h-.604v-.666h.604v-1.23h.83v1.223h.985v.666h-.985v1.857c0 .345.008.578.102.752.079.13.19.204.424.204.147 0 .291-.033.424-.095l.048.675Zm3.271-1.926-.96.06c-.664.035-.932.32-.932.709 0 .388.306.713.847.713.542 0 .89-.363 1.045-.596v-.886Zm.816 1.97h-.803l-.01-.52a1.69 1.69 0 0 1-1.304.612c-.76 0-1.417-.475-1.417-1.27s.657-1.21 1.607-1.252l1.097-.044V32.9c0-.622-.423-.933-1.02-.933-.435.01-.86.132-1.234.354l-.251-.553a3.176 3.176 0 0 1 1.537-.414c.684 0 1.08.19 1.358.466.277.277.44.631.44 1.33v2.388Zm1.313 0h.821v-5.962h-.82zm2.255 0h.821v-5.962h-.82z" fill="#003B5C" mask="url(#d)"/>
    </g>
</svg>
