<svg height="36" viewBox="0 0 40 36" width="40" xmlns="http://www.w3.org/2000/svg"><g fill="none" fill-rule="evenodd" transform="translate(1.3008 1)"><g stroke="#7e818d"><path d="m6.24843636 27.2700267h-6.24843636v-27.2700267h36.6976v27.2700267h-6.6176" fill="#fff" stroke-linejoin="round" stroke-width=".94"/><path d="m0 4.8128h36.6976" stroke-linejoin="round" stroke-width=".94"/><path d="m2.4064 2.4064h1.668073" stroke-linejoin="round" stroke-width=".94"/><path d="m5.4144 2.4064h1.668073" stroke-linejoin="round" stroke-width=".94"/><path d="m8.4224 2.4064h1.668073" stroke-linejoin="round" stroke-width=".94"/></g><path d="m1.8048 6.6176h33.088v7.2192h-33.088z" fill="#efefef"/><g stroke="#bdbdbd" stroke-linecap="square" stroke-width=".94" transform="translate(29.4784 9.024)"><path d="m.3008.3008 1.8048 1.8048"/><path d="m.3008.3008 1.8048 1.8048" transform="matrix(1 0 0 -1 0 2.4064)"/></g><g stroke="#7e818d" stroke-width=".94" transform="translate(9.6256 16.8448)"><path d="m16.116112 4.099904c-.152656-.261696-.43616-.45804069-.7415447-.50165669-.3270473-.04354331-.6323593.04368869-.8722473.23996069-.3926167.34885531-.894128.523392-1.41752.523392-1.19944 0-2.1808-.98136-2.1808-2.1808 0-.21815269.0436887-.45804069.10904-.65424.0873047-.305312.0436887-.63250469-.10904-.89420069-.1745367-.283504-.4580407-.4580407-.7632073-.523392-.4580407-.065424-.93788939-.10896731-1.4175927-.10896731-4.81964069 0-8.7232 3.90355931-8.7232 8.7232 0 4.8194953 3.90355931 8.7232 8.7232 8.7232 4.8196407 0 8.7232-3.9037047 8.7232-8.7232 0-1.6356-.4580407-3.22765669-1.330288-4.623296z" fill="#d2ecfe" fill-rule="nonzero"/><path d="m16.116112 4.099904c-.152656-.261696-.43616-.45804069-.7415447-.50165669-.3270473-.04354331-.6323593.04368869-.8722473.23996069-.3926167.34885531-.894128.523392-1.41752.523392-1.19944 0-2.1808-.98136-2.1808-2.1808 0-.21815269.0436887-.45804069.10904-.65424.0873047-.305312.0436887-.63250469-.10904-.89420069-.1745367-.283504-.4580407-.4580407-.7632073-.523392-.4580407-.065424-.93788939-.10896731-1.4175927-.10896731-4.81964069 0-8.7232 3.90355931-8.7232 8.7232 0 4.8194953 3.90355931 8.7232 8.7232 8.7232 4.8196407 0 8.7232-3.9037047 8.7232-8.7232 0-1.6356-.4580407-3.22765669-1.330288-4.623296z" fill-rule="nonzero"/><path d="m11.4304 9.6256h-4.8128l.03457912-1.8048" stroke-linecap="round" transform="matrix(.64278761 -.76604444 .76604444 .64278761 -3.458874 10.02882)"/></g></g></svg>