<svg height="28" viewBox="0 0 30 28" width="30" xmlns="http://www.w3.org/2000/svg"><g fill="none" fill-rule="evenodd"><path d="m4.5 5.5h25.5v18h-25.5z" fill="#bcbcbc" fill-opacity=".1"/><path d="m13.5 7a.75.75 0 1 0 0-1.5.75.75 0 0 0 0 1.5zm0 10.5a.75.75 0 1 0 0-1.5.75.75 0 0 0 0 1.5zm4.5-6a.75.75 0 1 0 1.5 0 .75.75 0 0 0 -1.5 0zm-10.5 0a.75.75 0 1 0 1.5 0 .75.75 0 0 0 -1.5 0zm9.182 3.182a.75.75 0 1 0 1.06 1.06.75.75 0 0 0 -1.06-1.06zm-7.425-7.425a.75.75 0 1 0 1.061 1.061.75.75 0 0 0 -1.06-1.06zm1.061 7.425a.75.75 0 1 0 -1.06 1.06.75.75 0 0 0 1.06-1.06zm7.425-7.425a.75.75 0 1 0 -1.061 1.061.75.75 0 0 0 1.06-1.06z" fill="#333"/><g stroke="#333" stroke-linecap="round" stroke-linejoin="round"><path d="m.75 2.5h25.391v18h-25.391z"/><path d="m.75 1v26.027" fill="#d8d8d8"/></g></g></svg>