<svg height="41" viewBox="0 0 35 41" width="35" xmlns="http://www.w3.org/2000/svg" xmlns:xlink="http://www.w3.org/1999/xlink"><defs><path id="a" d="m19.0034824 25.2672v-3.9895579c0-2.4478154 1.9962574-4.4328421 4.4589176-4.4328421s4.4589176 1.9850267 4.4589176 4.4328421v3.9895579"/><filter id="b" height="158.7%" width="155.4%" x="-27.7%" y="-29.3%"><feMorphology in="SourceAlpha" operator="dilate" radius="1.47" result="shadowSpreadOuter1"/><feOffset dx="0" dy="0" in="shadowSpreadOuter1" result="shadowOffsetOuter1"/><feMorphology in="SourceAlpha" operator="erode" radius="2" result="shadowInner"/><feOffset dx="0" dy="0" in="shadowInner" result="shadowInner"/><feComposite in="shadowOffsetOuter1" in2="shadowInner" operator="out" result="shadowOffsetOuter1"/><feColorMatrix in="shadowOffsetOuter1" type="matrix" values="0 0 0 0 1   0 0 0 0 1   0 0 0 0 1  0 0 0 1 0"/></filter></defs><g fill="none" fill-rule="evenodd" transform="translate(1 1)"><path d="m28.8459487 4.22139661h4.2420513v-.84427932c0-1.86501302-1.5195028-3.37711729-3.393641-3.37711729h-9.3325128" fill="#d8d8d8" stroke="#7e818d" stroke-width=".94"/><path d="m11.9132253 32.0826142h-11.9132253v-28.70549691c0-1.86501302 1.51950277-3.37711729 3.39364103-3.37711729h26.75546587c-2.0404267 0-3.848389 1.45553755-3.848389 3.4826522v10.5300274m0 18.0699346h-5.0904615" fill="#fff" stroke="#7e818d" stroke-width=".94"/><g stroke-linejoin="round"><use fill="#000" filter="url(#b)" xlink:href="#a"/><use stroke="#7e818d" stroke-width=".94" xlink:href="#a"/></g><g stroke="#7e818d" stroke-width=".94"><path d="m31.8848 38.0054261c0 .6064128-.4851302 1.0985739-1.08288 1.0985739h-14.07744c-.5977498 0-1.08288-.4921611-1.08288-1.0985739v-10.4364522c0-.6064128.4851302-1.0985739 1.08288-1.0985739h14.07744c.5977498 0 1.08288.4921611 1.08288 1.0985739z" fill="#d2ecfe" stroke-linejoin="round"/><path d="m31.8848 38.0054261c0 .6064128-.4851302 1.0985739-1.08288 1.0985739h-14.07744c-.5977498 0-1.08288-.4921611-1.08288-1.0985739v-10.4364522c0-.6064128.4851302-1.0985739 1.08288-1.0985739h14.07744c.5977498 0 1.08288.4921611 1.08288 1.0985739z" stroke-linejoin="round"/><path d="m23.2580881 29.5403052c-.7465194.1832499-1.3540535.8174054-1.535682 1.6020479-.2432242 1.0484113.2226923 2.0007552.9876378 2.4705412v1.9741006c0 .613054.4717076 1.1106051 1.0529187 1.1106051.5817376 0 1.0529187-.4975511 1.0529187-1.1106051v-1.9741006c.6270131-.3848247 1.0529187-1.0933908 1.0529187-1.9130174 0-1.4004731-1.2287561-2.4983062-2.6107119-2.1595717z" fill="#fff" stroke-linejoin="round"/><path d="m4.242051 8.442793h17.816616"/><path d="m4.242051 11.819911h17.816616"/><path d="m4.242051 15.197028h11.029334"/><path d="m6.787282 25.32838h4.242051"/><path d="m4.242051 25.32838h1.696821"/></g></g></svg>