<svg height="40" viewBox="0 0 35 40" width="35" xmlns="http://www.w3.org/2000/svg"><g fill="none" fill-rule="evenodd" stroke="#7e818d" stroke-width=".94" transform="translate(1 1)"><path d="m28.8459487 4.22139661h4.2420513v-.84427932c0-1.86501302-1.5195028-3.37711729-3.393641-3.37711729h-9.3325128" fill="#d8d8d8"/><path d="m11.9985445 32.0826142h-11.9985445v-28.70549691c0-1.86501302 1.51950277-3.37711729 3.39364103-3.37711729h26.75546587c-2.0404267 0-3.848389 1.45553755-3.848389 3.4826522v10.5300274m0 18.0699346h-5.0904615" fill="#fff"/><path d="m4.242051 8.442793h17.816616"/><path d="m4.242051 11.819911h17.816616"/><path d="m4.242051 15.197028h11.029334"/><path d="m6.787282 25.32838h4.242051"/><path d="m4.242051 25.32838h1.696821"/><g stroke-linejoin="round"><path d="m23.4672761 17.4464-8.4272761 3.5583699v8.4511286c0 3.9733649 7.9547352 8.3199138 8.4224 8.4449015.4681081-.1249877 8.4224-4.7753325 8.4224-8.0001052v-8.8959249z" fill="#d2ecfe"/><path d="m23.4672761 17.4464-8.4272761 3.5583699v8.4511286c0 3.9733649 7.9547352 8.3199138 8.4224 8.4449015.4681081-.1249877 8.4224-4.7753325 8.4224-8.0001052v-8.8959249z"/><path d="m19.8528 28.0680483 2.4691351 2.6135517 5.9532649-7.2192"/></g></g></svg>