<svg viewBox="0 0 1913 1913" xmlns="http://www.w3.org/2000/svg" fill="currentColor" style="fill-rule:evenodd;"><path d="M1650.22 1576.87c-219.04 117.33-457.13 173.84-673.776 173.84-320.985 0-631.848-111.03-883.248-295.39-22.079-16.11-38.34 12.27-20.007 33.15C306.336 1753.58 614.09 1913 956.039 1913c243.991 0 527.191-96.77 722.631-278.5 32.37-30.05 4.63-75.33-28.45-57.63Zm53.4 176.63c-7.25 18.1 8.29 25.51 24.71 11.72 106.73-89.27 134.31-276.27 112.47-303.21-21.68-26.78-208.2-49.9-322.02 30.05-17.54 12.28-14.51 29.25 4.94 26.86 64.17-7.65 206.85-24.87 232.19 7.81 25.43 32.68-28.29 166.91-52.29 226.77ZM1072.53 554.128c-144.034 15.033-320.418 29.769-449.688 86.583-171.728 74.237-292.58 225.579-292.58 448.259 0 143.9 46.747 251.29 121.261 323.22 74.882 72.28 178.706 109.34 295.839 109.34 176.033 0 278.808-37.77 409.108-160.99 31.08 45.75 55.48 78.81 125.16 136.56 1.98 1.65 4.12 3.1 6.38 4.33 29.96 16.33 68.03 15.7 96.92-4.62a39.93 39.93 0 0 0 8.9-6.01c49.82-44.52 140.62-123.37 191.96-166.31 36.93-30.23 37.36-79.45 7.92-120.88l-.16-.22c-41.45-57.49-87.46-103.5-87.46-210.071V600.915c0-177.898 7.56-340.026-123.48-462.527C1278.89 38.864 1107.45 2 975.886 2c-257.433 0-542.194 99.917-602.51 418.129-11.244 58.506 29.986 90.885 68.46 99.204 1.363.295 2.741.518 4.127.669l243.988 26.543c2.127.231 4.269.291 6.406.18 40.58-2.113 73.164-38.41 80.915-78.546 16.859-81.384 86.445-118.997 163.224-118.997 39.337 0 84.914 12.523 108.174 47.509.07.111.15.222.22.332 30.24 44.502 23.9 105.311 23.64 157.105Zm461.85 709.072c-49.86 41.7-136.45 116.83-187.77 162.53a39.352 39.352 0 0 0-6.9 5.01c-3.03 2.74-7.19 2.83-10.88 1.56-76.36-63.91-90.45-94.77-133.41-156.66a39.965 39.965 0 0 0-29.48-17.05 39.99 39.99 0 0 0-31.93 11.84c-128.78 131.23-219.762 171.1-386.648 171.1-94.891 0-179.615-28.34-240.278-86.9-61.032-58.91-96.822-147.8-96.822-265.66 0-186.175 100.841-312.837 244.482-374.895l.234-.103c133.281-58.596 319.582-68.289 461.952-84.143 20.26-2.255 35.58-19.376 35.58-39.755v-32.68c0-67.512 2.31-146.671-37.34-205.167-38.1-57.195-110.27-83.045-174.674-83.045-115.249 0-216.486 60.824-241.64 183.15-.041.204-.082.407-.12.611-.708 3.734-2.176 7.469-4.336 10.618-.582.848-1.701 1.984-2.481 2.726l-235.006-25.566c-2.688-.695-5.651-1.984-4.97-5.516l.025-.13C503.906 160.923 754.116 82 975.886 82c113.364 0 262.214 28.444 351.534 114.299l.42.399c54.22 50.624 78.33 109.929 89.31 174.743 12.06 71.195 8.94 148.694 8.94 229.474v392.404c0 129.461 52.13 186.911 102.48 256.731 2.3 3.25 4.16 6.63 5.23 10.06.27.85.47 2.21.58 3.09Zm-381.79-414.515c.05-.803.08-1.613.08-2.428v-54.6c0-22.092-17.91-40-40-40-204.546 0-414.633 52.658-414.633 293.633 0 134.83 73.546 222.69 193.199 222.69 84.165 0 161.324-50.22 209.074-134.95 52.69-93.08 52.29-179.883 52.28-284.345Zm-40 37.57v.002c-22.09 0-40-17.909-40-40 0 90.849 3.8 166.643-41.92 247.393-.01.03-.03.05-.04.08-32.284 57.29-82.481 94.25-139.394 94.25-73.923 0-113.199-59.39-113.199-142.69 0-172.669 146.986-208.305 294.633-213.031v13.998c0 22.065 17.86 39.957 39.92 39.998Z"/></svg>