<svg viewBox="0 0 2009 2013" xmlns="http://www.w3.org/2000/svg" fill="currentColor" style="fill-rule:evenodd;clip-rule:evenodd;stroke-linejoin:round;stroke-miterlimit:2"><path d="M780.313 1281.76c-2.13 93.56 9.206 229.28 25.37 355.58 16.309 127.44 37.101 241.29 52.212 290.95 6.595 21.67 22.956 42.93 53.834 58.42 24.568 12.32 56.661 19.68 90.521 19.79 33.67.11 66.18-6.95 91.63-19.31 31.03-15.09 49.07-36.28 57.11-58.91 17.71-49.91 39.8-164.6 56.02-293.19 15.99-126.79 25.8-262.1 21.56-353.32-1.93-41.62-25.14-78.11-73.08-104.86-40.18-22.45-95.41-35.48-152.66-35.77-57.533-.28-112.419 12.36-151.874 34.55-46.817 26.34-69.652 62.63-70.643 106.07ZM1914.8 916.8c0-502.743-407.56-910.302-910.3-910.302-502.743 0-910.301 407.559-910.301 910.302 0 396.48 253.47 733.76 607.213 858.62 7.525 1.76 17.128 1 17.602-10.13.474-11.15-11.922-92.51-12.37-95.88-.44-3.37-5.474-16.58-15.611-23.62-281.642-121.71-478.736-402.01-478.736-728.326 0-437.997 355.07-793.066 793.063-793.066 438 0 793.07 355.07 793.07 793.066 0 327.146-198.1 608.036-480.88 729.256-8.8 5.74-12.05 10.61-14.3 22.55 0 0-12.9 85.48-12.9 95.6 0 10.12 9.9 13.11 17.69 10.4 353.5-125 606.76-462.15 606.76-858.47Zm-301.54.836c0-336.113-272.48-608.592-608.6-608.592-336.109 0-608.587 272.479-608.587 608.592 0 209.494 105.848 394.264 266.996 503.754 6.973 4.67 17.421-1.39 17.421-6s.12-110.78 0-116.24c-.12-5.46-1.233-11.74-7.896-18.04-98.616-90.01-160.492-219.6-160.492-363.646 0-271.85 220.368-492.218 492.218-492.218 271.84 0 492.22 220.369 492.22 492.218 0 141.066-59.34 268.276-154.43 358.016-7.66 10.4-13.49 19.53-13.49 29.39v108.67c0 6.06 10.99 11.61 17.84 7.72 161.03-109.5 266.8-294.21 266.8-503.624Zm-608.82-291.02c-118.942 0-215.507 96.564-215.507 215.506 0 118.943 96.565 215.508 215.507 215.508 118.94 0 215.51-96.565 215.51-215.508 0-118.942-96.57-215.507-215.51-215.507v.001Z"/></svg>