<svg viewBox="0 0 1967 1921" xmlns="http://www.w3.org/2000/svg" fill="currentColor" style="fill-rule:evenodd;clip-rule:evenodd;stroke-linejoin:round;stroke-miterlimit:2"><path d="M1715.188 654.975c-11.205 8.795-207.831 119.518-207.831 365.904 0 284.94 250.12 385.783 257.59 388.193-1.205 6.265-39.759 138.193-131.928 272.53-82.048 118.193-167.951 236.386-298.554 236.386-130.723 0-164.337-75.904-314.82-75.904-146.867 0-199.156 78.434-318.554 78.434-119.518 0-202.891-109.518-298.675-243.856-110.723-158.072-200.361-403.253-200.361-635.904 0-373.253 242.65-571.205 481.566-571.205 126.868 0 232.651 83.374 312.29 83.374 75.903 0 194.096-88.313 338.434-88.313 54.819 0 251.446 5.06 380.843 190.361Zm-449.157-348.313c59.639-70.964 101.928-169.278 101.928-267.59 0-13.615-1.205-27.35-3.735-38.555-96.988 3.735-212.771 64.699-282.41 145.542-54.819 62.29-105.783 160.603-105.783 260.12 0 14.94 2.53 29.88 3.735 34.82 6.265 1.205 16.145 2.53 26.145 2.53 87.108 0 196.626-58.554 260-136.867h.12Z"/></svg>