<svg width="100%" height="100%" viewBox="0 0 1913 1913" version="1.1" xmlns="http://www.w3.org/2000/svg"
     fill="currentColor">
	<g transform="matrix(22.6123,0,0,22.6123,188.813,-1.13687e-13)">
		<path
			d="M67.9,60C67.9,73.6 57.1,84.6 43.3,84.6C29.7,84.6 18.9,73.9 18.9,60C18.9,53.5 21.4,47.7 25.3,43.4L8.7,60L0,51.2L18.7,32.7C21.2,30.2 22.5,26.9 22.5,23.2L22.5,0L34.8,0L34.8,23.3C34.8,30.4 32.3,36.5 27.3,41.4L26.8,41.9C31.1,37.9 37,35.5 43.3,35.5C57.3,35.5 67.9,46.6 67.9,60M56.8,60C56.8,52.7 50.8,46.8 43.4,46.8C35.9,46.8 30,53 30,60C30,67.2 35.9,73.3 43.3,73.3C51,73.3 56.8,67 56.8,60"/>
	</g>
</svg>
