<svg  fill="currentColor" xmlns="http://www.w3.org/2000/svg" viewBox="0 0 1984 1984"><path d="M1697.67,1140.47c-18.56-53.02-31.81-116.65-47.72-196.19,10.6,153.77,10.6,196.19,10.6,331.41v291.64h-193.54V427.28h190.89s84.84,336.71,106.05,405.64c18.56,71.58,34.47,127.26,39.77,180.28-5.3-114-5.3-249.22-5.3-363.22v-230.66h185.59V1559.37h-161.73l-127.26-424.2,2.65,5.3Zm-1151.51,90.14c0,238.61-106.05,326.1-291.64,326.1H0V416.68H257.17c201.49,0,254.52,116.65,254.52,310.2,0,143.17-53.02,217.4-140.52,222.7,98.1,0,174.98,98.1,174.98,281.03ZM238.61,554.54h-39.77v331.41h53.02c53.02,0,60.98-53.02,60.98-148.47,0-132.56-13.26-185.59-79.54-185.59,0,0,5.3,2.65,5.3,2.65Zm5.3,463.97h-42.42v405.64h53.02c60.98,0,79.54-37.12,79.54-212.1,0-124.61-18.56-190.89-87.49-190.89,0,0-2.65-2.65-2.65-2.65Z"/><path d="M1433.58,1079.35c-4.41,30.88-22.06,55.15-57.36,55.15-72.8,0-15.44-110.3-83.83-110.3-39.71,0-66.18,35.3-110.3,127.95l-66.18,158.83,13.24,28.68c44.12,59.56,83.83,101.48,132.36,101.48,26.47,0,55.15-13.24,99.27-57.36l22.06,30.88c-48.53,59.56-110.3,92.65-165.45,92.65-66.18,0-123.54-59.56-165.45-105.89-61.77,66.18-132.36,105.89-229.43,105.89-138.98,0-264.72-88.24-233.84-286.79,26.47-119.13,116.92-198.54,220.6-264.72-30.88-79.42-48.53-176.48-35.3-249.28,24.27-152.22,161.04-240.46,277.96-240.46,136.77,0,198.54,92.65,176.48,198.54-11.03,55.15-35.3,105.89-92.65,154.42-59.56,52.94-158.83,99.27-213.99,132.36,35.3,88.24,88.24,187.51,163.25,315.46,22.06-44.12,55.15-123.54,88.24-187.51,28.68-66.18,75.01-105.89,143.39-105.89,94.86,0,121.33,66.18,116.92,105.89Zm-739.02,165.45c-13.24,81.62,37.5,191.93,169.87,191.93,66.18,0,110.3-17.65,154.42-72.8-83.83-119.13-143.39-233.84-191.93-348.55-66.18,57.36-114.71,121.33-132.36,229.43Zm408.12-478.71c28.68-37.5,37.5-66.18,44.12-97.07,15.44-79.42-30.88-132.36-99.27-132.36-88.24,0-154.42,72.8-158.83,141.19-15.44,75.01-6.62,147.8,17.65,225.02,52.94-30.88,163.25-99.27,198.54-136.77,0,0-2.21,0-2.21,0Z"/></svg>