<svg  fill="currentColor" xmlns="http://www.w3.org/2000/svg" viewBox="0 0 1984 1984"><path d="M1671.15,1581.98h-265.02V412.12h253.66l7.62,30.23c.48,1.89,28.53,113.18,55.54,217.44v-255.27h257.42V1574.38h-224.37l-84.85-282.82v290.43Zm-185.02-80h105.02v-238.8c0-129.39,0-168.44-10.04-314.07l79.13-10.6c15.31,76.56,27.44,134.44,44.15,182.19l-.86,.36,111.99,373.31h84.85V484.52h-97.42v180.51c0,111.24,0,237.32,5.03,345.38l-79.76,5.84c-4.08-40.83-15.51-84.45-29.99-139.68-2.19-8.36-4.44-16.94-6.73-25.77-17.19-56.27-73.34-276.94-94.03-358.67h-111.34v1009.86Zm-1199.12,69.86H3.69V401.98H289.54c53.06,0,97.14,7.66,134.75,23.43,37.71,15.81,68.53,40.06,91.6,72.08,38.87,53.95,56.97,130.54,56.97,241.04,0,74.87-14.23,134.66-42.29,177.72-7.72,11.85-16.45,22.37-26.09,31.51,17.27,13.34,32.82,30.19,46.17,50.29,36.08,54.31,55.16,131.1,55.16,222.05,0,122.29-27.49,210.33-84.04,269.14-27.7,28.81-62.62,50.32-103.78,63.95-37.93,12.56-80.77,18.66-130.98,18.66Zm-203.32-80h203.32c81.6,0,139.54-18.99,177.1-58.06,19.88-20.68,34.56-47.01,44.86-80.51,11.18-36.35,16.85-81.16,16.85-133.19,0-75.15-14.45-136.62-41.79-177.78-15.42-23.21-42.77-50.88-85.49-50.88l-2.42-79.93c29.46-1.79,51.52-14.52,67.44-38.94,19.18-29.42,29.31-75.77,29.31-134.03,0-92.89-13.31-154.62-41.88-194.27-14.53-20.16-33.37-34.9-57.62-45.06-27.24-11.42-62.17-17.21-103.82-17.21H83.69v1009.86Zm203.32-46.73h-90.69v-467.79h97.12l3.73,3.73c30.62,4.24,65.5,21.03,85.75,70.13,13.92,33.76,20.13,80.38,20.13,151.17,0,92.8-5.49,144.59-18.94,178.76-16.95,43.07-48.71,64-97.1,64Zm-10.69-80h10.69c10.28,0,14.33-1.52,15.83-2.42,2.9-1.75,5.52-7.57,6.82-10.88,11.99-30.46,13.38-99.89,13.38-149.46,0-58.21-4.61-97.68-14.09-120.67-7.65-18.56-15.63-21.82-29.55-21.82h-3.09v305.25Zm8.16-434.52h-90.69v-396.82h61.66c4.74-1.74,9.88-2.62,15.21-2.49,23.27,.59,43.25,6.74,59.37,18.29,16.05,11.49,28.31,28.37,36.47,50.17,13.51,36.14,16.28,85.67,16.28,148.91,0,49.34-2.09,88.31-12.29,118.13-14.08,41.14-44.62,63.8-86,63.8Zm-10.69-80h10.69c4.31,0,5.72-.75,5.73-.76,.04-.03,4.4-3.72,7.84-21.73,4.19-21.95,4.73-53.99,4.73-79.45,0-42.32-1.27-94.31-11.22-120.89-3.42-9.15-6.42-13.37-12.56-15.22-1.7,.43-3.44,.74-5.21,.95v237.09Z"/><path d="M1414.17,1075.49c-4.22,29.53-21.09,52.72-54.83,52.72-69.6,0-14.76-105.45-80.14-105.45-37.96,0-63.27,33.74-105.45,122.32l-63.27,151.84,12.65,27.42c42.18,56.94,80.14,97.01,126.54,97.01,25.31,0,52.72-12.65,94.9-54.83l21.09,29.53c-46.4,56.94-105.45,88.58-158.17,88.58-63.27,0-118.1-56.94-158.17-101.23-59.05,63.27-126.54,101.23-219.33,101.23-132.86,0-253.07-84.36-223.55-274.16,25.31-113.88,111.77-189.81,210.89-253.07-29.53-75.92-46.4-168.72-33.74-238.31,23.2-145.52,153.95-229.88,265.73-229.88,130.75,0,189.81,88.58,168.72,189.81-10.54,52.72-33.74,101.23-88.58,147.63-56.94,50.61-151.84,94.9-204.57,126.54,33.74,84.36,84.36,179.26,156.06,301.58,21.09-42.18,52.72-118.1,84.36-179.26,27.42-63.27,71.7-101.23,137.08-101.23,90.68,0,115.99,63.27,111.77,101.23Zm-706.5,158.17c-12.65,78.03,35.85,183.48,162.39,183.48,63.27,0,105.45-16.87,147.63-69.6-80.14-113.88-137.08-223.55-183.48-333.21-63.27,54.83-109.67,115.99-126.54,219.33Zm390.15-457.64c27.42-35.85,35.85-63.27,42.18-92.79,14.76-75.92-29.53-126.54-94.9-126.54-84.36,0-147.63,69.6-151.84,134.97-14.76,71.7-6.33,141.3,16.87,215.11,50.61-29.53,156.06-94.9,189.81-130.75,0,0-2.11,0-2.11,0Z"/></svg>