<svg viewBox="0 0 1913 1913" xmlns="http://www.w3.org/2000/svg" fill="currentColor" style="fill-rule:evenodd;clip-rule:evenodd;stroke-linejoin:round;stroke-miterlimit:2"><path d="M744.672 901.46a381.794 381.794 0 0 0 82.585-72.4l.128-.15a304.071 304.071 0 0 0 71.828-199.58c-.14-104.044-41.526-184.857-123.545-242.732-76.627-54.072-182.53-82.469-318.404-82.469H40.5c-22.091 0-40 17.91-40 40v1224.743a40.011 40.011 0 0 0 11.72 28.289 40.024 40.024 0 0 0 28.29 11.712l436.947-.105c142.88 0 256.55-36.621 341.74-107.488 87.878-73.098 132.384-170.654 132.514-293.134 2.157-84.056-29.426-165.6-87.667-226.288-33.152-34.634-72.895-61.532-119.372-80.397Zm960.688 0a381.625 381.625 0 0 0 82.579-72.4c.047-.05.086-.1.134-.15a304.078 304.078 0 0 0 71.824-199.58c-.144-104.044-41.524-184.857-123.538-242.732-76.632-54.072-182.53-82.469-318.412-82.469h-416.763c-22.09 0-39.998 17.91-39.998 40v1224.743a40.015 40.015 0 0 0 11.719 28.289 40.025 40.025 0 0 0 28.289 11.712l436.95-.105c142.873 0 256.547-36.621 341.74-107.488 87.875-73.098 132.387-170.654 132.512-293.134 2.155-84.056-29.429-165.6-87.664-226.288-33.154-34.634-72.897-61.532-119.372-80.397Zm-664.174 627.4V384.13h376.761c115.925 0 206.912 21.703 272.282 67.833 59.93 42.285 89.608 101.611 89.665 177.665.01.143.01.286.01.43a224.033 224.033 0 0 1-52.844 147.099 302.368 302.368 0 0 1-148.341 94.77c-17.276 4.838-29.209 20.582-29.209 38.518v2.468c0 20.126 14.95 37.116 34.907 39.676 76.412 9.795 137.472 37.521 182.54 84.603.009.015.018.03.038.044a235.225 235.225 0 0 1 65.417 169.28c-.01.366-.019.73-.019 1.096 0 96.851-34.217 174.393-103.666 232.168-72.275 60.113-169.381 88.986-290.592 88.986l-396.95.096Zm-960.686 0V384.13h376.764c115.919 0 206.907 21.703 272.28 67.833 59.925 42.285 89.609 101.611 89.669 177.665a224.046 224.046 0 0 1-52.833 147.53 302.427 302.427 0 0 1-148.347 94.769c-17.271 4.838-29.21 20.582-29.21 38.518v2.468c0 20.126 14.951 37.116 34.913 39.676 76.406 9.795 137.47 37.521 182.53 84.603l.041.044a235.246 235.246 0 0 1 65.42 169.28c-.01.366-.016.73-.016 1.096 0 96.851-34.22 174.393-103.673 232.168-72.27 60.113-169.377 88.986-290.59 88.986l-396.948.096Zm197.02-537.854c-22.081.016-39.973 17.92-39.973 40v356.112c0 22.083 17.908 39.992 40 39.992h162.97c80.981 0 143.546-20.169 188.6-57.508 47.927-39.723 72.752-94.399 72.664-164.833 0-57.498-16.323-103.159-46.717-137.688-42.68-48.486-116.22-76.182-222.922-76.182l-154.623.107Zm960.685 0c-22.084.016-39.973 17.92-39.973 40v356.112c0 22.083 17.908 39.992 40.001 39.992h162.965c80.99 0 143.553-20.169 188.601-57.508 47.93-39.723 72.753-94.399 72.667-164.833 0-57.498-16.318-103.159-46.714-137.688-42.683-48.486-116.222-76.182-222.924-76.182l-154.623.107Zm-920.658 79.973 114.604-.08c77.036.001 132.048 14.034 162.864 49.04 18.597 21.13 26.766 49.666 26.766 84.88v.05c.056 43.798-13.909 78.437-43.711 103.137-32.676 27.073-78.82 39.11-137.553 39.11h-122.97V1070.98Zm960.688 0 114.603-.08c77.034.001 132.051 14.034 162.859 49.04 18.598 21.13 26.766 49.666 26.766 84.88v.05c.058 43.798-13.905 78.437-43.707 103.137-32.675 27.073-78.825 39.11-137.558 39.11h-122.963V1070.98ZM277.547 486.423c-22.092 0-40 17.91-40 40v321.108c0 22.091 17.908 40 40 40h128.83c74.782 0 133.11-19.092 175.83-54.511 45.435-37.67 68.903-90.286 68.15-158.808-.047-50.993-15.692-91.44-44.85-122.07-39.541-41.54-107.685-65.719-206.538-65.719H277.547Zm960.686 0c-22.093 0-40.001 17.91-40.001 40v321.108c0 22.091 17.908 40 40.001 40h128.824c74.784 0 133.115-19.092 175.836-54.511 45.431-37.67 68.904-90.286 68.147-158.808-.048-50.993-15.686-91.44-44.847-122.07-39.542-41.54-107.689-65.719-206.538-65.719h-121.422Zm-920.686 80h81.422c110.634 0 171.388 30.564 171.388 108.047 0 .156 0 .313.003.47.483 41.314-11.83 73.791-39.213 96.493-30.142 24.99-72.006 36.099-124.77 36.099h-88.83V566.423Zm960.688 0h81.42c110.638 0 171.382 30.564 171.382 108.047 0 .156.01.313.01.47.479 41.314-11.827 73.791-39.216 96.493-30.138 24.99-72.007 36.099-124.774 36.099h-88.822V566.423Z"/></svg>