<svg xmlns="http://www.w3.org/2000/svg" fill="currentColor" style="fill-rule:evenodd;" viewBox="0 0 2009 2013"><path d="M939.64 2011.404c72.359.229 135.444-51.063 149.984-121.933 0 .114 14.77-67.779 14.77-67.779 333.283-45.224 541.542-254.055 541.542-542.23 0-292.524-240.088-420.41-503.417-508.34l-34.233-12.593c-59.42-21.868-103.385-38.927-132.237-56.673-15.227-9.389-26.219-16.03-26.219-28.28 0-13.968 13.052-19.807 25.646-25.188 36.409-15.456 84.838-16.143 99.035-16.143 111.743 0 219.937 39.614 305.348 111.743 60.336 50.949 150.326 48.659 208.03-5.266.343-.23.687-.573 1.03-.916l104.874-104.988c28.623-27.135 45.338-64.802 46.254-104.302 1.03-40.072-12.937-79.113-50.147-117.468-.801-.915-1.832-1.831-2.862-2.633a956.56 956.56 0 0 0-235.508-146.434l14.77-74.304c17.974-80.144-31.715-161.776-122.735-182.27-2.862-.573-5.725-.916-8.587-.916l-222.227-1.488h-.229c-71.9-.115-134.527 50.834-149.067 121.246l-14.197 69.61C625.363 233.931 430.27 428.337 430.27 709.527c0 294.7 228.753 422.013 456.247 503.53l52.666 19.464c76.709 28.165 124.91 46.713 153.761 63.886 13.281 7.9 20.838 12.594 20.838 22.44 0 22.67-17.632 35.836-39.156 45.454-32.172 14.54-74.19 20.035-113.003 20.035h-.687c-118.613 2.061-233.333-42.59-319.2-124.222l-.573-.573c-59.192-54.268-151.243-54.268-210.435 0-.229.344-.572.573-.801.802l-114.491 111.056-1.145 1.145c-53.582 53.696-59.306 139.45-13.51 199.672 4.35 6.755 9.503 12.938 15.227 18.433l.23.23c81.631 76.708 177.804 136.358 282.678 175.285l-12.938 58.276c-.114.343-.114.687-.229 1.03l-.916 4.809c-1.488 8.587-2.404 17.632-2.404 26.905 0 71.672 47.857 134.07 127.2 151.815 1.373.344 2.862.573 4.235.687 2.634.344 18.319 1.718 20.952 1.718h204.825Zm-203.793-79.915-10.877-1.03c-38.125-9.389-62.626-38.47-62.626-73.275 0-4.35.457-8.472 1.144-12.594.115 0 .687-3.32.687-3.32l20.494-92.509c4.465-20.15-7.098-40.415-26.79-46.712-106.935-34.576-204.94-92.509-286.8-169.447-1.26-1.145-2.29-2.518-3.206-4.007-.802-1.374-1.718-2.748-2.748-3.893-22.44-28.622-19.922-69.954 5.724-95.6l.458-.458 113.804-110.369c28.738-25.99 73.046-25.99 101.783 0 100.981 96.058 235.851 148.495 375.072 145.976 61.253 0 127.772-12.708 171.508-41.102 37.324-24.158 60.222-58.734 60.222-104.301 0-30.112-9.731-54.155-39.843-77.625-28.851-22.555-84.837-46.255-187.078-83.808l-52.78-19.463c-.115 0-.23-.115-.344-.115-197.039-70.526-403.466-173.11-403.466-428.31 0-248.446 183.071-412.168 476.168-439.188 17.632-1.603 32.058-14.54 35.492-31.828l19.922-98.12c6.984-33.202 36.522-57.36 70.526-57.474l217.533 1.489c42.018 11.22 66.977 48.2 58.276 86.097 0 .458-.115.801-.229 1.145l-21.18 106.934c-3.779 19.006 6.64 37.897 24.615 44.995 88.158 34.806 170.019 83.693 242.606 144.602 18.204 19.235 26.677 38.126 26.219 58.276v.115c-.458 18.318-8.244 35.836-21.754 48.544l-.801.802-104.645 104.759c-28.394 25.99-72.13 27.02-101.553 2.175-99.722-84.265-226.235-130.52-356.869-130.52-18.662 0-82.204 2.061-130.176 22.326-43.621 18.548-74.42 50.834-74.42 98.92 0 31.37 13.167 58.162 44.08 82.434 31.256 24.5 85.868 47.857 166.584 77.625l34.805 12.823c.458.114.802.229 1.26.343 229.554 76.595 449.377 177.69 449.377 432.662 0 256.345-196.123 434.264-498.952 466.207-17.173 1.717-31.141 14.426-34.805 31.256l-20.837 95.944c-.115.114-.115.343-.115.458-6.87 33.774-36.98 58.275-71.442 58.161H735.847Z"/></svg>