<svg viewBox="0 0 158 130" xmlns="http://www.w3.org/2000/svg" fill="currentColor" style="fill-rule:evenodd;clip-rule:evenodd;stroke-linejoin:round;stroke-miterlimit:2"><path d="M154.68 58.482c.025-.056.141-.317.277-.588l.005-.01c1.019-2.265 2.248-5.201 2.248-8.134 0-2.176-.574-4.695-2.06-6.872-2.298-3.893-6.421-5.288-10.22-5.288-8.682 0-14.683 6.066-17.728 12.278l-.608 1.217a102.723 102.723 0 0 1-2.913-4.548c-3.058-5.352-4.807-8.957-6.337-13.555-1.202-3.608-2.186-7.763-2.842-11.163-1.924-11.095-5.171-14.665-10.385-16.023-3.684-.975-7.988-.301-11.25 1.631C90.556 2.636 86.75.5 81.76.5c-7.312 0-13.93 4.818-13.93 12.94 0 .813.073 1.627.159 2.559a13.092 13.092 0 0 0-2.299-.199c-7.886 0-13.71 5.501-13.71 12.94 0 1.507.179 3.195.619 5.142a19.014 19.014 0 0 0-1.329-.032l-.029.001c-3.88.228-7.414 1.719-9.936 4.8-2.494 2.961-3.559 7.512-1.623 13.785 2.095 6.948 4.631 13.465 7.389 19.751 4.741 11.257 7.939 17.212 12.36 24.6l.001.002c5.427 8.86 11.428 18.935 21.282 25.468 7.232 4.784 16.031 7.233 24.486 7.233 11.921 0 22.163-5.232 28.741-11.364 6.44-5.996 14.799-17.546 14.799-40.096 0-7.617 3.388-14.151 5.891-19.374l.049-.102v-.072Zm-107.773-8.32c-.923-2.977-.886-5.239.237-6.681 1.121-1.321 2.648-1.918 4.473-2.021 1.846-.058 2.998.724 4.021 2.563.744 1.338 1.416 3.2 2.195 5.666 1.215 3.978 3.645 9.732 5.081 12.936l.003.007c1.882 3.875 4.537 9.068 5.756 10.854 1.124 1.747 2.153 2.204 3.277 2.204 2.061 0 3.58-1.189 3.58-3.25 0-.45-.168-1.024-.425-1.618-.343-.798-.839-1.645-1.176-2.251-.987-1.865-3.068-5.588-4.492-8.764a202.592 202.592 0 0 1-4.717-11.856l-.001-.005c-.878-2.305-1.864-5.592-2.85-8.88v-.001c-1.52-4.991-2.289-8.027-2.289-10.315 0-3.238 2.457-5.33 6.1-5.33 1.031 0 1.923.195 2.687.741 1.203.858 2.077 2.534 2.764 5.462.996 4.759 2.766 12.503 5.308 18.58 1.656 3.975 4.086 9.285 5.521 11.935l.003.005c.531.929 1.098 1.774 1.468 2.421.188.329.339.578.339.746 0 .085-.044.175-.099.279-.09.167-.22.349-.375.548-.53.675-1.337 1.509-2.065 2.502-.86 1.107-1.201 1.859-1.201 2.721 0 .744.456 1.508 1.2 2.5.423.564.85 1.123 1.298 1.483.378.304.777.477 1.192.477.726 0 1.169-.275 1.605-.853 3.365-4.233 7.057-7.163 11.301-9.562 5.01-2.831 10.14-4.245 14.17-5.116l.001-.001c1.604-.356 2.36-.784 2.691-1.402.158-.295.232-.641.232-1.066 0-1.597-1.165-2.562-2.761-2.698-1.014-.111-1.917-.003-3.495.109l-.007.001c-.895.089-1.28-.426-1.813-1.582l-.001-.002c-1.972-4.164-5.809-11.182-8.109-20.162-.984-3.829-1.86-7.877-2.407-13.138l-.001-.008c-.152-1.116-.141-1.872.061-2.477.193-.579.564-1.006 1.094-1.488 1.431-1.223 3.983-1.722 5.922-1.211 1.382.36 2.344 1.174 3.171 3.266.596 1.51 1.113 3.646 1.633 6.684l.001.003c.664 3.652 1.77 8.298 3.097 12.289 1.66 5.091 3.761 9.307 6.97 14.951l.001.001c1.729 3.025 3.879 6.156 6.143 9.196-.439 1.127-1.247 1.962-3.497 3.821-2.572 2.123-5.139 4.362-7.487 8.498l-.001.002c-1.698 3.057-2.484 6.452-2.484 8.715 0 1.486.271 2.245.759 2.633.348.277.831.397 1.501.397 1.468 0 2.766-.18 3.597-.54.72-.313 1.124-.78 1.189-1.324.535-3.856 1.169-6.325 3.307-9.226 1.307-1.632 3.582-3.687 5.426-5.315 3.618-2.94 4.857-4.641 6.1-8.823.541-1.837 1.188-3.565 2.051-5.185 2.016-3.712 5.599-7.987 11.23-7.987 1.685 0 3.085.471 3.978 1.858.499.801.692 1.902.692 2.702 0 1.909-1.401 4.554-2.037 5.826l-.003.006c-2.446 5.224-6.43 13.232-6.43 22.448 0 19.704-6.938 29.516-12.388 34.522l-.002.002c-5.315 4.989-13.673 9.336-23.54 9.336-7.054 0-14.336-2.061-20.305-5.968-8.408-5.569-13.647-14.325-18.997-23.061-4.278-7.13-7.24-12.735-11.857-23.594-2.604-6.296-5.028-12.441-7.114-19.135ZM35.32 87.12l.264.425c1.166-.724 1.915-1.382 2.258-2.177.352-.817.304-1.802-.258-3.204-.504-1.259-1.139-2.05-1.891-2.471-.776-.436-1.691-.495-2.772-.206h-.001c-2.668.722-14.153 4.874-16.921 5.947-2.02.783-3.643 1.574-4.284 3.125-.429 1.039-.436 2.443.241 4.46v.001c.697 2.063 1.67 3.12 2.71 3.584 1.068.476 2.237.342 3.358-.075 2.806-1.036 15.217-7.536 17.559-8.984l-.263-.425ZM25.14 60.91l.016.5c.902-.029 1.7-.212 2.332-.758.613-.529 1.089-1.417 1.297-2.934.164-1.172.122-2.06-.266-2.762-.392-.71-1.143-1.261-2.501-1.683v-.001c-2.312-.713-16.834-3.078-19.97-3.38-1.489-.144-2.686-.099-3.562.526-.873.623-1.478 1.846-1.655 4.194-.162 2.145.095 3.538.724 4.437.658.941 1.728 1.396 3.276 1.549 3.16.311 16.992.902 20.323.812l-.014-.5Zm50.08-47.47c0-3.858 3.596-5.33 6.54-5.33 1.239 0 2.162.224 2.87.717 1.087.755 1.654 2.111 2.145 4.074l.001.005c.764 2.838 1.09 5.455 1.417 8.507l.001.009c.443 3.102 1.989 10.182 2.431 11.949l.001.005c1.625 5.958 4.837 12.983 8.708 21.37-2.259.793-5.072 2.012-7.027 3.042l-.003.001c-.758.411-1.333.701-1.798.847-.335.106-.59.139-.813.031-.365-.177-.63-.625-1.001-1.33l-.001-.002c-2.299-4.27-3.941-7.443-5.364-11.173l-.001-.002c-1.203-3.064-2.406-6.562-3.39-10.617-1.654-6.949-1.884-8.95-3.2-12.151-.757-3.241-1.516-7.244-1.516-9.952Zm-63.821-.26h-.057c-.4 0-.78.064-1.144.19-1.091.38-2.063 1.351-2.96 3.046v.001c-.998 1.893-1.367 3.239-1.166 4.316.209 1.118 1.012 2 2.5 2.895l.001.001c2.934 1.756 14.128 8.524 18.035 9.808l.091.03c1.108.35 1.954.335 2.678-.042.693-.361 1.292-1.082 1.889-2.259.723-1.426 1.062-2.356.772-3.259-.193-.603-.674-1.217-1.595-1.957-2.121-1.708-13.227-10.346-16.372-11.983v-.001c-.986-.511-1.868-.774-2.672-.786Z"/></svg>