<svg fill="currentColor" xmlns="http://www.w3.org/2000/svg" viewBox="0 0 1984 1984"><path d="M725.22,990c.13-148.45,120.57-268.68,269.02-268.55,148.26,.13,268.42,120.29,268.55,268.55-.13,148.45-120.57,268.68-269.02,268.55-148.26-.13-268.42-120.29-268.55-268.55Zm12.22,0c0,141.37,115.19,256.57,256.57,256.57s256.57-115.19,256.57-256.57-115.19-256.57-256.57-256.57-256.57,115.19-256.57,256.57Z"/><path d="M1035.89,990c0,22.69-19.2,41.89-41.89,41.89s-41.89-19.2-41.89-41.89,19.2-41.89,41.89-41.89,41.89,19.2,41.89,41.89Z"/><path d="M994,1515.21c-86.2,0-171.82-21.57-247.6-62.38l-36-19.39,105.76-186.47,34.42,18.44c43.85,23.49,92.11,35.4,143.43,35.4,170.42,0,309.07-139.43,309.07-310.82h0c0-40.71-7.66-80.1-22.77-117.08-14.5-35.49-35.46-67.89-62.3-96.31l-25.74-27.25,146.56-157.62,29.33,29.93c47.12,48.08,84.19,103.81,110.19,165.65,27.12,64.5,40.87,132.7,40.87,202.69s-13.94,139.33-41.44,204.1c-26.53,62.48-64.46,118.65-112.74,166.93-48.28,48.28-104.44,86.21-166.92,112.74-64.77,27.5-133.44,41.44-204.1,41.44Zm-172.73-115.1c54.45,23.05,113.42,35.1,172.73,35.1s118.01-11.8,172.84-35.08c52.99-22.49,100.63-54.68,141.62-95.67,40.99-40.99,73.17-88.63,95.67-141.62,23.28-54.83,35.08-112.98,35.08-172.84s-11.65-117.05-34.62-171.69c-16.63-39.56-38.62-76.19-65.57-109.32l-38.33,41.22c22.13,28.33,40.11,59.3,53.66,92.44,19.05,46.63,28.72,96.21,28.72,147.34h0c0,215.5-174.54,390.82-389.07,390.82-51.19,0-100.06-9.47-145.8-28.19l-26.93,47.49Zm-162.52-3.44l-29.61-29.04c-103.4-101.41-160.35-235.52-160.35-377.63h0c0-70.66,13.94-139.33,41.44-204.1,26.53-62.48,64.46-118.64,112.74-166.93s104.44-86.21,166.93-112.74c64.77-27.5,133.44-41.44,204.1-41.44,91.28,0,178.31,22.86,258.68,67.95l34.44,19.32-103.19,189.64-35.63-20.89c-46.46-27.24-99.82-41.63-154.31-41.63-83.01,0-161.06,32.33-219.77,91.04s-91.04,136.76-91.04,219.77,29.03,154.2,82.09,210.39l12.66,12.65-27.8,28.57,27.33,24.93-118.71,130.12Zm-109.96-406.67c0,106.78,38.06,208.36,107.98,290.13l36.63-40.15c-24.04-28.4-43.68-60.14-58.59-94.75-20.98-48.72-31.63-100.94-31.63-155.24s10.34-103.92,30.73-152.13c19.69-46.54,47.86-88.33,83.74-124.21s77.67-64.05,124.21-83.74c48.21-20.39,99.39-30.73,152.13-30.73s108.69,11.57,158.06,33.71l26.25-48.24c-58.21-26.47-120.04-39.85-184.31-39.85-59.86,0-118.01,11.8-172.84,35.08-52.99,22.5-100.63,54.68-141.62,95.67-40.99,40.99-73.17,88.63-95.67,141.62-23.28,54.83-35.08,112.98-35.08,172.84h0Z"/><path d="M991.84,1668.73c-21.37,0-42.78-1.01-64.22-3.04-90.53-8.57-177.35-34.97-258.03-78.48l-35.74-19.27,105.3-188.43,34.64,18.55c66.97,35.87,142.51,54.83,218.48,54.83h.21c62.48-.03,123.06-12.28,180.06-36.43,55.08-23.33,104.54-56.71,147.03-99.24s75.83-92.02,99.1-147.12c24.09-57.02,36.29-117.62,36.26-180.09v-.02c0-123.25-47.29-238.41-133.15-324.28l-27.27-27.27,146.8-157.88,29.33,28.89c62.91,61.97,112.32,134.64,146.85,215.98,35.55,83.75,53.58,172.76,53.58,264.56-.1,111.98-28.24,223.22-81.36,321.75-43.5,80.68-101.53,150.45-172.46,207.36-68.5,54.95-146.06,95.64-230.55,120.93-63.76,19.09-129.07,28.69-194.85,28.69Zm-247.89-133.84c60.68,27.69,124.82,44.87,191.21,51.15,77.12,7.3,154.02-.32,228.59-22.64,74.56-22.32,143.01-58.22,203.43-106.69,62.54-50.17,113.71-111.72,152.11-182.93,46.87-86.92,71.69-185.07,71.78-283.82,0-80.97-15.89-159.46-47.22-233.27-25.02-58.94-58.91-112.71-100.99-160.32l-38.18,41.06c84.27,97.28,130.25,221.05,130.25,352.56,.03,73.24-14.29,144.3-42.56,211.24-27.3,64.64-66.4,122.69-116.2,172.53-49.8,49.85-107.81,89-172.42,116.36-66.92,28.34-137.98,42.73-211.22,42.76h-.25c-75.98,0-151.59-16.17-220.92-47.02l-27.39,49.02Zm-188.12-25.42l-29.32-28.06c-65.93-63.11-117.83-137.07-154.25-219.83-37.86-86.03-57.06-177.4-57.06-271.59,0-2.2,0-4.41,.02-6.61,.7-90.96,19.21-179.08,55-261.91,34.56-79.99,83.7-151.68,146.06-213.08,62.35-61.4,134.79-109.43,215.31-142.75,83.33-34.49,171.66-51.63,262.56-50.95,59.87,.01,118.99,7.66,175.72,22.72,55.07,14.63,108.24,36.33,158.01,64.5l34.62,19.6-105.43,188.66-35.06-20.04c-70.9-40.51-147.6-61.05-227.99-61.05-62.48,0-123.06,12.23-180.08,36.34-55.09,23.3-104.57,56.67-147.07,99.17-42.5,42.5-75.87,91.99-99.17,147.07-24.11,57.01-36.34,117.6-36.34,180.08s12.89,125.5,38.31,183.58c24.69,56.41,59.85,106.42,104.5,148.64l28.83,27.25-147.15,158.26ZM988.96,394.67c-78.53,0-154.8,15.09-226.79,44.89-70.95,29.36-134.79,71.7-189.77,125.84-54.98,54.13-98.29,117.32-128.75,187.81-31.52,72.95-47.82,150.61-48.44,230.8-.02,1.97-.02,3.93-.02,5.9v.09c0,83.02,16.92,163.56,50.28,239.36,26.75,60.77,62.97,116.2,107.93,165.23l37.95-40.81c-39.44-43.19-71.31-92.28-94.99-146.37-29.88-68.26-45.03-140.82-45.03-215.66s14.35-144.31,42.66-211.24c27.33-64.62,66.46-122.65,116.28-172.48s107.85-88.95,172.48-116.28c66.93-28.31,138-42.66,211.24-42.66,81.1,0,158.93,17.74,231.92,52.81l27.26-48.79c-33.37-16.03-68.16-28.89-103.86-38.37-50.08-13.3-102.33-20.04-155.32-20.04h-.31c-1.58-.01-3.16-.02-4.73-.02Z"/><path d="M992.25,1825.88c-70.43,0-140.95-9.18-209.61-27.29-65.17-17.19-129.05-42.5-189.84-75.24l-35.95-19.36,107.42-190.04,34.48,18.51c89.01,47.78,189.45,73.17,290.47,73.44,.56,0,1.13,0,1.69,0,82.81,0,163.15-16.11,238.84-47.89,73.63-30.91,139.8-75.28,196.69-131.86,56.89-56.59,101.6-122.53,132.9-195.99,32.4-76.03,48.94-156.87,49.16-240.27-.01-83.85-16.33-164.64-48.5-240.13-31.4-73.68-76.03-138.09-132.66-191.43l-28.68-27.01,146.97-160.83,29.58,28.88c78.11,76.25,139.51,165.8,182.49,266.17,44.42,103.71,66.94,214.05,66.94,327.95s-21.99,220.9-65.36,323.47c-41.9,99.1-101.88,188.13-178.24,264.62-76.44,76.55-165.44,136.67-264.54,178.68-102.72,43.54-211.81,65.62-324.24,65.62Zm-325.07-154.5c44.09,20.95,89.64,37.67,135.86,49.86,62,16.35,125.66,24.64,189.21,24.64,101.65,0,200.23-19.94,293.02-59.28,89.57-37.97,170.03-92.33,239.16-161.55,69.07-69.17,123.29-149.67,161.17-239.25,39.18-92.66,59.05-191.01,59.05-292.31s-20.35-202.75-60.48-296.45c-33.37-77.93-79.04-148.64-136.01-210.7l-38.1,41.69c51.62,55.04,93.09,118.92,123.54,190.38,36.43,85.49,54.91,176.87,54.91,271.59v.11c-.25,94.16-18.94,185.48-55.56,271.42-35.36,82.99-85.85,157.46-150.08,221.35s-138.97,113.99-222.14,148.91c-85.55,35.92-176.32,54.12-269.8,54.12-.64,0-1.27,0-1.91,0-101.04-.27-201.56-22.79-293.06-65.41l-28.76,50.89Zm-217.52-48.26l-29.57-28.21c-81.12-77.39-144.99-168.24-189.85-270.03-46.7-105.96-70.38-218.63-70.38-334.88h0c0-112.74,22.19-222.17,65.95-325.25,42.24-99.5,102.64-188.77,179.52-265.35,76.49-76.19,165.4-135.91,264.26-177.5,102.41-43.09,210.98-64.71,322.75-64.29,142.16,.01,282.87,36.78,406.94,106.34l34.63,19.41-105.12,190.87-35.31-20.27c-91.41-52.48-195.57-80.21-301.23-80.21-82.89,0-163.42,16.34-239.33,48.55-73.34,31.13-139.28,75.66-195.99,132.37-56.71,56.71-101.25,122.65-132.37,195.99-32.22,75.92-48.55,156.44-48.55,239.33-.11,83.96,16.64,165.59,49.79,242.66,33.15,77.08,80.89,145.38,141.88,203l28.6,27.02-146.61,160.44ZM989.03,237.6c-99.86,0-196.88,19.52-288.4,58.03-89.32,37.58-169.67,91.57-238.83,160.45-69.53,69.26-124.15,149.98-162.34,239.93-39.54,93.14-59.59,192.05-59.59,293.99h0c0,105.07,21.39,206.89,63.58,302.61,35.12,79.68,83.14,151.98,143.02,215.41l38.42-42.04c-55.78-58.96-100.29-126.66-132.58-201.71-37.49-87.16-56.43-179.45-56.31-274.33,0-93.64,18.48-184.68,54.91-270.53,35.16-82.84,85.44-157.3,149.45-221.31s138.47-114.29,221.31-149.45c85.86-36.44,176.89-54.91,270.58-54.91,106,0,210.67,24.66,305.16,71.63l27.61-50.13c-103.26-50.89-217.5-77.63-332.77-77.63h-.16c-1.02,0-2.05,0-3.07,0Z"/><path d="M994,1975.98c-83.4,0-166.91-10.87-248.22-32.3-77.83-20.52-153.44-50.63-224.73-89.52l-35.65-19.45,107.44-190.08,34.59,18.87c115.08,62.77,239,94.6,368.31,94.6,103.82,0,204.57-20.37,299.44-60.54,91.65-38.81,174-94.36,244.75-165.11s126.31-153.1,165.11-244.75c40.17-94.87,60.54-195.62,60.54-299.44s-21.06-206.3-62.61-302.44c-40.13-92.89-97.23-175.87-169.69-246.65l-27.9-27.25,145.26-156.44,29.35,28.77c93.2,91.35,166.59,197.85,218.13,316.54,53.42,123.01,80.96,253.88,81.85,388.96v.26c0,132.94-26.1,261.99-77.59,383.57-49.71,117.38-120.84,222.83-211.42,313.4s-196.02,161.71-313.41,211.42c-121.58,51.48-250.63,77.59-383.57,77.59Zm-398.55-173.38c124.94,61.2,261.89,93.38,398.55,93.38,122.16,0,240.72-23.97,352.37-71.26,107.86-45.67,204.77-111.05,288.03-194.32s148.65-180.17,194.32-288.03c47.26-111.61,71.24-230.1,71.26-352.21-.83-124.19-26.14-244.48-75.23-357.51-41.99-96.69-99.76-184.6-172.01-261.86l-36.25,39.03c67.1,71.72,120.81,153.73,159.93,244.26,45.9,106.22,69.17,218.66,69.17,334.17s-22.5,225.84-66.87,330.63c-42.84,101.18-104.15,192.06-182.21,270.13-78.07,78.07-168.95,139.37-270.13,182.21-104.79,44.37-216.04,66.87-330.63,66.87-72.35,0-144.25-9.25-213.71-27.49-54.01-14.18-106.95-33.9-157.88-58.78l-28.7,50.77Zm-250.62-64.72l-29.29-27.61c-47.74-45.01-91.18-94.88-129.11-148.22-38.32-53.89-71.28-111.71-97.97-171.83C32.77,1264.7,4.53,1131.23,4.53,993.49v-9.13c1.34-132.12,28.3-260.15,80.14-380.55,50.13-116.42,121.32-220.87,211.6-310.46,90.36-89.67,195.42-160.04,312.24-209.17C729.51,33.31,858.04,7.51,990.51,7.51h16.14c82.93,.89,165.25,12.38,244.67,34.15,76.88,21.07,151.37,51.84,221.4,91.47l34.46,19.5-103.27,187.01-35.19-19.96c-114.79-65.1-244.96-99.51-376.46-99.51-103.82,0-204.57,20.37-299.44,60.54-91.65,38.81-174,94.36-244.75,165.11-70.75,70.75-126.31,153.1-165.11,244.75-40.17,94.87-60.54,195.62-60.54,299.44h0c0,107.69,21.9,211.84,65.09,309.56,41.62,94.17,101.3,178.77,177.37,251.45l28.55,27.28-148.58,159.59ZM84.53,984.97v8.52c0,126.49,25.93,249.04,77.07,364.26,24.52,55.25,54.82,108.39,90.04,157.93,27.14,38.17,57.35,74.41,90.1,108.12l39.9-42.85c-70.47-73.48-126.66-157.1-167.31-249.04-47.72-107.97-71.92-223-71.92-341.9h0c0-114.6,22.5-225.84,66.87-330.63,42.84-101.18,104.15-192.06,182.21-270.13s168.95-139.37,270.13-182.21c104.79-44.37,216.04-66.87,330.63-66.87,131.84,0,262.48,31.3,380.27,90.82l25.93-46.96c-53.93-27.46-110.38-49.34-168.28-65.21-72.75-19.94-148.19-30.47-224.21-31.3h-15.46c-121.77,0-239.86,23.69-350.99,70.42-107.33,45.13-203.85,109.8-286.9,192.21-82.98,82.34-148.41,178.34-194.47,285.31-47.6,110.54-72.36,228.14-73.62,349.52Z"/></svg>