<svg viewBox="0 0 1913 1913" xmlns="http://www.w3.org/2000/svg" fill="currentColor" style="fill-rule:evenodd;clip-rule:evenodd;stroke-linejoin:round;stroke-miterlimit:2"><path d="M940.6 611.1c-50.9-29.8-93.6 14.4-109.7 31-33.9 35.1-74.7 69.9-95.4 86.9-8.8-3.9-18.5-6.2-28.7-6.3-63-3.4-162.2-14.7-187-29.5-26.7-15.9-48.1-31.4-66.9-45-54.2-39.2-97-70.2-203.5-70.2-30.9 0-58 8.6-84.1 16.9-26.9 8.5-52.3 16.6-82.9 16.6-33.8 0-61.3 27.5-61.3 61.3v155.9c0 33.8 27.5 61.3 61.3 61.3 58.2 0 149.3 3 169.4 9.7 36.2 12.1 121.1 62.4 150.7 80.7.4.2.8.5 1.1.7 10.7 6 22.9 9.1 35.2 9.1h283.1c30 0 63.3-27.7 74.8-46.9 37.1-61.6 170.2-229.2 171.6-230.9 1.2-1.5 2.2-3.2 3.1-4.9 17.2-34.7 3.9-76.1-30.8-96.4ZM721.9 934.3H438.7c-2.7 0-5.3-.6-7.7-1.9-10.5-6.5-113.5-69.7-161.7-85.8-35.9-12-162.1-12.6-187-12.6-3.1 0-5.6-2.5-5.6-5.6V672.6c0-3.1 2.5-5.6 5.6-5.6 39.2 0 71.4-10.2 99.7-19.1 24.2-7.7 45.1-14.3 67.3-14.3 88.5 0 119.4 22.5 170.8 59.7 19.8 14.4 42.3 30.6 71.1 47.8 14.5 8.6 38.5 15.4 65.4 20.6 57.8 11.3 129 15.7 147.9 16.7h1.5c9.2 0 16.7 7.5 16.7 16.7s-7.5 16.7-16.7 16.7c-.5 0-1 0-1.5.1L493.8 823c-16.8-.6-56.4-28.6-82.7-47.2-6.8-4.8-13.4-9.5-20-14-14.2-9.8-27.8-18.7-40.3-24.9-13.8-6.9-30.5-1.3-37.3 12.4-6.9 13.8-1.3 30.5 12.4 37.4 14.3 7.2 33.1 20.4 53 34.5 41.8 29.6 81.2 57.5 115.4 57.5h1.5l210.9-11.1c39.5-.4 71.6-32.8 71.6-72.4 0-9-1.6-17.5-4.6-25.5 22.3-18.5 62.6-53 97.2-88.8 23.7-24.6 33.2-26.6 41.5-21.7 7.4 4.3 12.8 12.8 9.9 21.3-18.5 23.4-136.7 173.1-173.4 234-4.8 7.9-21.1 19.2-27 19.8ZM590.3 617.8c4.7 3.1 10 4.7 15.4 4.7s10.8-1.6 15.4-4.7c9.5-6.3 233-156.5 315.4-307.4 20.4-31.6 31.1-68 31.1-105.5C967.7 97.4 880.3 10 772.8 10c-79 0-137.5 65.6-167 99.8-29.5-34.3-88-99.8-167-99.8-107.5 0-194.9 87.4-194.9 194.9 0 37.5 10.8 73.9 31.1 105.5 82.3 150.9 305.8 301.1 315.3 307.4ZM772.348 65.702 773 65.7c76.8 0 139.2 62.5 139.2 139.2 0 27-7.8 53.3-22.7 76-.4.6-.8 1.3-1.2 2-63.6 117.5-230.7 241.4-282.4 277.9-51.8-36.6-218.9-160.5-282.5-277.9-.15-.263-.3-.511-.45-.756l-.3-.488c-.15-.245-.3-.494-.45-.756-14.8-22.7-22.7-49-22.7-76 0-76.8 62.5-139.2 139.3-139.2 55.7 0 102.2 54.2 127.3 83.3 15.5 18.1 24.1 28.1 39.8 28.1 15.7 0 24.2-10 39.8-28.1 24.903-28.987 71.237-82.878 126.648-83.298Z"  transform="translate(-19.314 -19.516) scale(1.95164)"/></svg>