<svg viewBox="0 0 2009 2013" xmlns="http://www.w3.org/2000/svg" fill="currentColor" style="fill-rule:evenodd;clip-rule:evenodd;stroke-linejoin:round;stroke-miterlimit:2"><path d="M1091.69 2012.5v-789.82h254.73l26.25-170.69h-281.02V871.476c0-150.763 65.12-240.767 174.18-240.767h116.18v-143.25c-32.75-3.496-82.44-7.171-155.55-7.171-106.34 0-187.15 28.117-240.176 83.562-56.529 59.109-85.192 152.476-85.192 277.501v210.679H663.209v170.69h237.883v788.39l-47.883-7.23c-235.179-35.49-450.984-154.69-607.663-335.64C87.2 1485.36 0 1250.97 0 1008.24c0-269.219 104.321-522.335 293.75-712.723C483.234 105.079 735.171.196 1003.16.196c267.97 0 519.9 104.883 709.38 295.321 189.42 190.388 293.74 443.504 293.74 712.723 0 245.25-88.79 481.5-250.02 665.23-159.68 181.97-378.9 300.08-617.28 332.58l-47.29 6.45Zm83.33-706.49v609.75c429.62-81.79 747.93-463.7 747.93-907.52 0-509.885-412.61-924.711-919.79-924.711-507.193 0-919.827 414.826-919.827 924.711 0 436.95 312.471 817.49 734.426 904.69v-606.87H579.875V968.697h237.884V841.351c0-367.296 222.251-444.392 408.701-444.392 111.57 0 172.12 8.225 201.22 12.175l37.66 5.112v299.796h-199.51c-75.08 0-90.85 85.613-90.85 157.434v97.183h294.81l-51.87 337.351h-242.9Z"/></svg>