<svg viewBox="0 0 1913 1913" xmlns="http://www.w3.org/2000/svg" fill="currentColor" style="fill-rule:evenodd;clip-rule:evenodd;stroke-linejoin:round;stroke-miterlimit:2"><path d="M668.517-.002h1104.025a38.398 38.398 0 0 1 35.215 23.088 38.4 38.4 0 0 1-7.126 41.506L1511.567 374.67a38.408 38.408 0 0 1-28.09 12.217h-343.561l-69.404 105.315h179.472a38.406 38.406 0 0 1 29.48 63.02l-162.977 195.2a38.416 38.416 0 0 1-29.48 13.79H904.18l-88.778 153.88h50.252c14.72 0 28.14 8.411 34.557 21.66a38.396 38.396 0 0 1-4.413 40.543L171.037 1898.39c-11.825 14.976-32.853 19.001-49.37 9.447-16.522-9.555-23.518-29.79-16.433-47.507 0 0 189.246-473.117 253.522-633.802H257.172a38.402 38.402 0 0 1-35.906-52.023L668.516-.002Zm51.153 76.81h964.57s-171.23 183.67-217.467 233.269h-347.545a38.41 38.41 0 0 0-32.068 17.274L967.145 509.475a38.405 38.405 0 0 0 32.068 59.536h168.675l-98.847 118.39H882a38.404 38.404 0 0 0-33.263 19.212L715.645 937.305a38.398 38.398 0 0 0 .01 38.4 38.397 38.397 0 0 0 33.253 19.198h37.504l-511.415 647.83 176.142-440.349a38.402 38.402 0 0 0-3.857-35.79 38.404 38.404 0 0 0-31.802-16.876H312.81L719.67 76.808Z"/></svg>