<svg viewBox="0 0 1913 1913" xmlns="http://www.w3.org/2000/svg" fill="currentColor" style="fill-rule:evenodd;clip-rule:evenodd;stroke-linejoin:round;stroke-miterlimit:2"><path d="M8.277.51c-1.901.081-3.831.682-5.257 1.979C1.37 3.929.591 6.113.352 8.237v.675a7.548 7.548 0 0 0 2.152 4.878c3.847 3.902 7.733 7.766 11.618 11.629.73.719 1.405 1.516 2.296 2.046h.664c.981-.339 1.585-1.237 2.324-1.908 2.859-2.916 5.843-5.711 8.633-8.692l-8.372-8.402c.944-.947 1.88-1.905 2.84-2.833.781-.775 1.871-1.222 2.977-1.132 2.246.03 4.105 2.327 3.693 4.534-.242 1.917-2.046 2.958-3.172 4.338l2.828 2.696c.942-.774 1.825-1.724 2.627-2.643 2.237-2.636 2.35-6.78.304-9.558C30.426 1.914 28.161.702 25.818.51h-1.161c-1.735.196-3.444.853-4.734 2.051-3.882 3.785-7.681 7.655-11.568 11.436-.9-.887-1.795-1.779-2.691-2.67-.949-.945-1.453-2.345-1.174-3.675.38-1.974 2.414-3.458 4.416-3.126 1.93.205 2.967 2.057 4.358 3.17l2.797-2.656C14.322 2.819 11.975.676 9.005.51h-.728Zm8.59 12.413c1.891.021 3.706 1.519 3.901 3.444.376 2.392-1.905 4.744-4.313 4.417-2.35-.083-4.066-2.654-3.478-4.875.338-1.463 1.598-2.649 3.08-2.9a3.53 3.53 0 0 1 .81-.086Zm-.042 1.375a2.55 2.55 0 0 0-2.538 2.538 2.55 2.55 0 0 0 2.538 2.539 2.55 2.55 0 0 0 2.539-2.539c0-.378-.085-.752-.248-1.093-.182.129-.4.199-.623.199a1.089 1.089 0 0 1-1.084-1.083c.002-.161.039-.32.11-.465a2.544 2.544 0 0 0-.694-.096Z" transform="translate(-20.3 142.582) scale(58.1885)"/></svg>