<svg viewBox="0 0 1913 1913" xmlns="http://www.w3.org/2000/svg" fill="currentColor" style="fill-rule:evenodd;clip-rule:evenodd;stroke-linejoin:round;stroke-miterlimit:2"><path d="M32.392 50.161c0 4.899-1.333 8.622-3.999 11.168-2.666 2.547-6.473 3.82-11.42 3.82-4.036 0-7.303-.937-9.801-2.81-2.785-2.114-4.226-5.116-4.323-9.007h1.442c.144 3.458 1.441 6.1 3.89 7.925 2.209 1.633 5.116 2.45 8.719 2.45 9.367 0 14.051-4.516 14.051-13.546V38.848h-.145c-.72 3.17-2.485 5.716-5.295 7.638-2.81 1.921-5.897 2.881-9.26 2.881-4.947 0-8.814-1.801-11.601-5.403C2.105 40.698.832 36.519.832 31.426c0-5.188 1.321-9.463 3.963-12.824 2.93-3.652 6.917-5.478 11.96-5.478 3.314 0 6.293 1.009 8.935 3.027 2.643 2.018 4.348 4.612 5.116 7.781h.145v-9.943h1.441v36.172Zm-1.513-18.735c0-4.563-1.178-8.43-3.532-11.599-2.641-3.507-6.172-5.26-10.592-5.26-4.611 0-8.237 1.705-10.88 5.115-2.402 3.074-3.602 6.989-3.602 11.744 0 4.66 1.129 8.479 3.386 11.457 2.546 3.363 6.053 5.044 10.52 5.044 4.563 0 8.214-1.633 10.953-4.899 2.498-3.074 3.747-6.942 3.747-11.602Z"  transform="matrix(35.494 0 0 35.9445 366.874 -471.752)"/></svg>