<svg viewBox="0 0 1917 1917" xmlns="http://www.w3.org/2000/svg" fill="currentColor" style="fill-rule:evenodd;clip-rule:evenodd;stroke-linejoin:round;stroke-miterlimit:2"><path d="M1348.88 2.133H565.646C253.654 2.133 0 255.792 0 567.78v783.24c0 311.95 253.654 565.65 565.646 565.65h783.234c311.96 0 565.66-253.7 565.66-565.65V567.78c0-311.988-253.7-565.647-565.66-565.647ZM957.267 1478.6c-286.512 0-519.2-232.69-519.2-519.203 0-286.509 232.688-519.192 519.2-519.192 286.513 0 519.193 232.683 519.193 519.192 0 286.513-232.68 519.203-519.193 519.203Zm391.613-519.203c0 215.833-175.82 391.623-391.613 391.623-215.837 0-391.621-175.82-391.621-391.623 0-215.83 175.825-391.617 391.621-391.617 215.833 0 391.613 175.825 391.613 391.617Zm130.55-435.105c-47.71-.117-86.94-39.346-87.05-87.05.15-47.708 39.34-86.896 87.05-87.013 47.67.155 86.86 39.346 87.01 87.013-.11 47.704-39.31 86.896-87.01 87.05Z"/></svg>