<svg viewBox="0 0 2005 2005" xmlns="http://www.w3.org/2000/svg" fill="currentColor" style="fill-rule:evenodd;clip-rule:evenodd;stroke-linejoin:round;stroke-miterlimit:2"><path d="M1412.49 2004.17H589.984C264.663 2004.17 0 1739.5 0 1414.18V591.671C0 266.359 264.663 1.692 589.984 1.692h822.506c325.32 0 589.99 264.667 589.99 589.979v822.509c0 325.32-264.67 589.99-589.99 589.99ZM589.984 85.025c-279.371 0-506.651 227.284-506.651 506.646v822.509c0 279.37 227.28 506.66 506.651 506.66h822.506c279.37 0 506.65-227.29 506.65-506.66V591.671c0-279.362-227.28-506.646-506.65-506.646H589.984ZM1001.28 1501.55c-132.371 0-257.371-52.09-351.967-146.66-94.6-94.59-146.696-219.57-146.696-351.92 0-132.373 52.088-257.374 146.671-351.969 94.588-94.596 219.579-146.696 351.952-146.696 132.36 0 257.34 52.091 351.93 146.675 94.6 94.587 146.69 219.579 146.69 351.95 0 132.36-52.08 257.34-146.66 351.93-94.59 94.59-219.57 146.69-351.92 146.69Zm-.04-913.912c-228.994 0-415.29 186.317-415.29 415.332 0 228.97 186.317 415.25 415.33 415.25 228.97 0 415.25-186.3 415.25-415.29 0-228.992-186.3-415.292-415.29-415.292Zm548.32-224.421c-50.02.279-91.13 41.379-91.36 91.396.27 50.021 41.34 91.083 91.36 91.358 50.01-.237 91.12-41.337 91.39-91.358-.24-50.059-41.34-91.154-91.39-91.396Z"/></svg>