<svg viewBox="0 0 1913 1913" xmlns="http://www.w3.org/2000/svg" fill="currentColor" style="fill-rule:evenodd;clip-rule:evenodd;stroke-linejoin:round;stroke-miterlimit:2"><path d="m1908.547 747.053.021-.007-.595-4.905-.05-.437-2.22-18.44c-.444-3.701-.956-7.922-1.534-12.733l-.467-3.833-.947.117c-23.336-132.71-87.436-258.654-186.716-366.191-98.813-107.02-227.195-191.52-371.26-244.364-123.434-45.274-254.4-68.235-389.253-68.235-182.058 0-358.87 42.818-511.314 123.82C150.244 308.037-23.128 595.136 2.496 883.264c13.264 149.097 71.675 291.02 168.923 410.44 91.53 112.403 215.35 203.107 358.068 262.31 87.749 36.4 174.513 53.554 266.38 71.714l10.756 2.13c25.295 5.005 32.095 11.882 33.848 14.606 3.245 5.057 1.55 15.024.246 20.515-1.2 5.064-2.439 10.115-3.677 15.172-9.864 40.226-20.063 81.824-12.05 127.686 9.211 52.72 42.132 82.957 90.325 82.964h.012c51.837 0 110.834-34.774 149.871-57.777l5.213-3.066c93.13-54.695 180.87-116.39 246.9-164.025 144.488-104.247 308.263-222.41 431.044-375.274 123.64-153.96 181.883-351.803 160.192-543.607Zm-81.89-11.067 1.683 13.98.052.451.11 1.205.17 1.11.383 3.31c19.335 170.983-32.856 347.274-143.074 484.524-118.175 147.127-276.411 260.156-415.48 360.49-64.353 46.43-149.833 106.612-240.602 159.92l-5.282 3.104c-28.913 17.04-70.946 46.723-109.29 46.723h-.003c-7.984-.003-10.002-7.999-11.528-16.734-5.966-34.147 3.597-64.913 10.943-94.864l.002-.011c1.287-5.254 2.57-10.49 3.814-15.74 5.266-22.18 2.36-61.756-10.749-82.19l-.045-.071c-4.756-7.38-17.7-36.373-85.607-49.812l-10.76-2.13c-86.614-17.122-168.533-32.818-251.256-67.13-130.134-53.985-243.224-136.44-326.686-238.932-86.977-106.807-139.407-233.663-151.27-367.011C59.207 617.83 218.167 362.54 481.748 222.49h.002c141.235-75.047 305.107-114.466 473.776-114.466 125.304 0 247.01 21.272 361.703 63.342 131.897 48.38 249.563 125.545 340.033 223.526 88.388 95.739 145.926 207.625 166.702 325.775l2.692 15.318ZM1201.6 542.644c-20.103-13.795-44.439-21.856-70.657-21.856-57.724 0-106.322 39.078-120.753 92.235l-22.289-30.699c-31.851-43.88-88.316-62.246-139.91-45.512l-.016.004c-13.86 4.5-26.514 11.26-37.595 19.807-22.562-22.171-53.505-35.835-87.637-35.835-69.124 0-125.16 56.034-125.16 125.158v222.525l-1.854-.048h-39.874v-221.25c0-69.124-56.034-125.16-125.158-125.16s-125.16 56.036-125.16 125.16v346.41c0 69.124 56.036 125.159 125.16 125.159h165.037c23.628 0 45.728-6.548 64.57-17.93 18.358 10.636 39.688 16.705 62.439 16.705 31.347 0 60.003-11.526 81.934-30.591 21.94 19.073 50.594 30.596 81.94 30.596 55.17 0 102-35.692 118.626-85.258l24.421 33.636c24.011 33.056 61.98 51.622 101.287 51.622 12.87 0 25.902-1.987 38.628-6.117l.012-.005a124.466 124.466 0 0 0 41.407-22.855c20.093 13.795 44.436 21.863 70.661 21.863h223.506c69.123 0 125.16-56.037 125.16-125.16 0-44.731-23.465-83.979-58.78-106.09 12.383-19.384 19.537-42.412 19.537-67.109 0-26.074-7.972-50.285-21.62-70.32 32.596-22.575 53.928-60.242 53.928-102.892 0-69.124-56.036-125.158-125.16-125.158h-216.57c-30.456 0-58.371 10.878-80.06 28.965Zm-605.866 496.098H430.697c-24.94 0-45.159-20.218-45.159-45.159v-346.41c0-24.941 20.218-45.16 45.159-45.16 24.94 0 45.159 20.219 45.159 45.16v301.25h119.873c24.94 0 45.159 20.22 45.159 45.16.007 24.941-20.213 45.16-45.154 45.16Zm580.368-46.385c0 19.567-12.6 36.909-31.21 42.954a45.172 45.172 0 0 1-13.941 2.212 45.182 45.182 0 0 1-36.555-18.63L931.779 794.92v197.443c0 24.94-20.22 45.159-45.161 45.159-24.941 0-45.16-20.218-45.16-45.159V655.862c0-19.567 12.6-36.908 31.214-42.954 18.618-6.037 38.996.582 50.493 16.419l162.62 223.971V645.946c0-24.94 20.218-45.159 45.158-45.159 24.941 0 45.16 20.218 45.16 45.159v346.41Zm-408.2 0c0 24.94-20.218 45.159-45.16 45.159-24.94 0-45.16-20.218-45.16-45.16v-346.41c0-24.94 20.22-45.159 45.16-45.159 24.942 0 45.16 20.218 45.16 45.159v346.41Zm737.263 38.05h-223.506c-24.94 0-45.159-20.219-45.159-45.16v-346.41c0-24.941 20.218-45.159 45.16-45.159h216.57c24.94 0 45.159 20.218 45.159 45.159 0 24.94-20.218 45.159-45.16 45.159h-171.411v82.895h139.104c24.94 0 45.159 20.218 45.159 45.158 0 24.941-20.219 45.16-45.16 45.16h-139.103v82.88h178.347c24.943 0 45.16 20.218 45.16 45.159 0 24.94-20.217 45.158-45.16 45.158Z"/></svg>