<svg xmlns="http://www.w3.org/2000/svg" fill="currentColor" style="fill-rule:evenodd;clip-rule:evenodd;stroke-linejoin:round;stroke-miterlimit:2" viewBox="0 0 1984 1984"><path d="M511.464 720.707c36.289-36.289 76.547-66.214 119.367-89.856 238.651-131.518 544.669-61.584 698.099 171.032l-185.66 185.581c-53.24-121.433-185.42-190.541-316.939-161.112-49.515 11.077-96.551 35.793-134.99 74.232L335.555 1256.54c-108.042 108.04-108.042 283.78 0 391.82 108.042 108.04 283.786 108.04 391.828 0l109.695-109.69c99.775 39.59 206.742 55.38 312.382 47.53l-242.118 242.12c-207.569 207.57-544.095 207.57-751.664 0-207.57-207.57-207.57-544.09 0-751.66l355.786-355.953Zm565.096-565.091L834.432 397.739c105.562-7.936 212.608 7.935 312.388 47.449l109.61-109.613c108.04-108.042 283.79-108.042 391.83 0 108.04 108.042 108.04 283.786 0 391.828l-355.87 355.867c-108.37 108.37-284.36 107.47-391.826 0-25.047-25.05-46.623-56.21-60.097-86.878L654.803 1181.97c19.509 29.6 39.762 55.14 65.801 81.18 67.123 67.12 152.598 117.13 250.968 140.86 127.468 30.67 264.028 13.72 381.328-51 42.82-23.65 83.08-53.57 119.37-89.86l355.78-355.87c207.66-207.57 207.66-544.095.09-751.664-207.57-207.487-544.02-207.487-751.58 0Z" /></svg>