<svg xmlns="http://www.w3.org/2000/svg" fill="currentColor" style="fill-rule:evenodd;clip-rule:evenodd;stroke-linejoin:round;stroke-miterlimit:2" viewBox="0 0 1984 1984"><path d="m502.946 703.911-342.035 342.193c-214.554 214.56-214.554 562.418.007 776.978 214.56 214.56 562.42 214.56 776.979 0l232.761-232.768c11.363-11.363 14.459-28.6 7.768-43.212a38.46 38.46 0 0 0-37.81-22.322c-95.796 7.124-192.796-7.181-283.273-43.087a38.46 38.46 0 0 0-41.375 8.547l-105.453 105.458c-88.87 88.865-233.426 88.865-322.295 0-88.87-88.875-88.87-233.431 0-322.297l342.03-342.189c31.6-31.599 70.267-51.918 110.973-61.025h.002c108.348-24.245 217.208 32.756 261.064 132.792a38.463 38.463 0 0 0 28.1 22.35 38.413 38.413 0 0 0 34.3-10.593l178.49-178.4c12.91-12.911 14.968-33.124 4.913-48.369-158.63-240.51-475.015-312.906-721.764-176.924l-.027.014c-44.25 24.431-85.853 55.353-123.355 92.854Zm54.383 54.38c32.267-32.267 68.06-58.878 106.133-79.901 203.124-111.93 461.178-59.738 602.416 126.47l-119.416 119.363C1077.4 821.167 950.624 766.9 824.432 795.136c-54.494 12.19-106.26 39.392-148.564 81.697l-342.036 342.196c-118.852 118.849-118.852 312.192.007 431.051 118.86 118.86 312.198 118.86 431.058 0l87.929-87.933c63.855 22.726 130.286 36.06 197.195 40.04.01 0-166.505 166.512-166.505 166.512-184.525 184.528-483.692 184.528-668.218 0-184.525-184.528-184.525-483.694 0-668.222l342.03-342.186Zm488.866-597.626-232.77 232.766a38.454 38.454 0 0 0 30.074 65.536c95.722-7.196 192.794 7.192 283.265 43.021 14.257 5.646 30.513 2.282 41.347-8.561l105.381-105.374c88.866-88.87 233.421-88.87 322.296 0 88.866 88.869 88.866 233.426 0 322.295l-342.109 342.11c-89.144 89.135-233.902 88.395-322.298 0-20.712-20.716-38.617-46.441-49.759-71.8a38.454 38.454 0 0 0-62.389-11.729l-178.485 178.403c-12.912 12.911-14.969 33.118-4.92 48.365 20.206 30.647 41.2 57.094 68.171 84.059 69.387 69.389 157.75 121.08 259.439 145.603.006 0 .013.01.02.01 131.755 31.695 272.908 14.15 394.16-52.748 0 0 0-.01.01-.01 44.25-24.428 85.847-55.354 123.348-92.855l342.033-342.108c214.636-214.553 214.636-562.415.077-776.978v-.005c-214.56-214.474-562.332-214.474-776.891 0Zm54.373 54.392c184.518-184.453 483.617-184.453 668.145-.002 184.518 184.525 184.518 483.685-.077 668.21l-342.042 342.118c-32.262 32.262-68.062 58.882-106.14 79.906-104.276 57.536-225.683 72.57-338.996 45.307-87.44-21.091-163.412-65.553-223.078-125.223-15.294-15.294-28.33-30.397-40.417-46.48l119.777-119.724c11.548 17.034 24.872 33.281 39.26 47.672 118.222 118.215 311.837 119.215 431.062 0l342.1-342.112c118.858-118.86 118.858-312.198 0-431.057-118.86-118.86-312.193-118.86-431.052 0l-87.866 87.861c-63.833-22.675-130.27-36.025-197.153-40.004l166.477-166.472Z"/></svg>