<svg xmlns="http://www.w3.org/2000/svg" fill="currentColor" style="fill-rule:evenodd;clip-rule:evenodd;stroke-linejoin:round;stroke-miterlimit:2" viewBox="0 0 1913 1913"><path d="M951.596.023C710.46 1.06 471.082 31.626 346.483 89.007c0 0-267.954 122.024-267.954 537.497 0 494.556-.32 1115.616 444.036 1235.726 170.176 45.73 316.485 55.62 434.14 48.84 213.515-12.05 319.115-77.49 319.115-77.49l-7.18-157.78s-138.41 48.76-309.781 43.18c-169.776-5.99-348.572-18.68-376.429-230.64-2.554-19.72-3.831-39.67-3.751-59.54 359.747 89.3 666.491 38.86 750.941 28.65 235.79-28.65 441-176.45 467.19-311.57 41.02-212.919 37.59-519.376 37.59-519.376 0-415.473-267.55-537.497-267.55-537.497C1435.54 27.717 1192.65-.935 951.595.023h.001ZM693.539 316.935c82.613 2.234 164.269 39.185 214.555 117.235l48.61 82.6 48.446-82.6c100.98-156.979 327.34-147.243 435.02-25.777 99.3 115.56 77.11 190.18 77.11 706.447v.16h-195.32V665.77c0-210.29-268.11-218.43-268.11 29.13v260.327H859.723V694.898c0-247.56-267.954-239.579-267.954-29.289v449.231H395.972c0-516.667-21.791-591.765 77.105-706.447 54.278-61.132 137.849-93.693 220.462-91.458Z"/></svg>