<svg viewBox="0 0 1913 1913" xmlns="http://www.w3.org/2000/svg" fill="currentColor" style="fill-rule:evenodd;clip-rule:evenodd;stroke-linejoin:round;stroke-miterlimit:2"><path d="M0 1874.74h336.309V38.26H0v1836.48Zm80-80V118.26h176.309v1676.48H80ZM1226.35 38.266c-379.802 0-688.799 309.275-688.799 689.447 0 379.027 308.997 687.387 688.799 687.387 378.62 0 686.65-308.36 686.65-687.387 0-380.172-308.03-689.447-686.65-689.447Zm0 80c334.6 0 606.65 273.478 606.65 609.447 0 334.887-272.12 607.387-606.65 607.387-335.645 0-608.799-272.43-608.799-607.387 0-336.038 273.088-609.447 608.799-609.447Z"/></svg>