<svg viewBox="0 0 1913 1913" xmlns="http://www.w3.org/2000/svg" fill="currentColor" style="fill-rule:evenodd;"><path d="M230.766 42.16v1828.68a39.995 39.995 0 0 0 21.125 35.264 40.002 40.002 0 0 0 41.062-1.978l685.734-457.132 1.865-1.329 683.864-455.883a39.982 39.982 0 0 0 17.818-33.28 40 40 0 0 0-17.809-33.282L978.69 466.006l-1.77-1.093L292.957 8.879a40.002 40.002 0 0 0-41.064-1.987 40.002 40.002 0 0 0-21.126 35.268Zm80 989.084 573.624 382.464-573.624 382.398v-764.862Zm32.11-74.741L916.5 1338.965V574.11L342.875 956.503ZM996.5 574.033l573.623 382.464L996.5 1338.888V574.033ZM310.766 116.905 884.39 499.37 310.766 881.762V116.905Z"/></svg>