<svg viewBox="0 0 1913 1913" xmlns="http://www.w3.org/2000/svg" style="fill-rule:evenodd;" fill="currentColor"><path d="M439.827 454.653c.739-.618-.743.601 0 0 2.069-1.666.03-5.218-1.099-6.775-1.359-1.871-3.178-3.405-5.359-4.218-1.452-.538-3.472-.694-4.628.507-.475.493-.699 1.168-.716 1.841-.023.963-.161 1.777-.801 2.544-1.091 1.301-3.75-1.97-4.376-2.668-2.231-2.484-4.139-5.256-5.746-8.18a41.617 41.617 0 0 1-1.327-2.625 31.699 31.699 0 0 0-.15-.335c-.028-.063-.149-.394-.053-.119-.085-.241-.186-.486-.105-.744.218-.7 1.308-.965 1.928-1.108.163-.037.328-.069.492-.098.212-.035-.06.008.031-.006.821-.112 1.575-.297 2.34-.628 2.33-1.002 3.086-3.267 2.205-5.58-.473-1.235-1.288-2.33-1.989-3.441-.849-1.347-1.726-3.453-3.403-3.909-2.074-.563-4.21 1.065-5.65 2.361-1.781 1.601-3.145 3.657-3.749 5.988-.536 2.066-.335 4.07.131 6.133 1.32 5.868 4.75 11.173 8.486 15.795 2.465 3.047 5.305 6.441 8.994 7.984 4.561 1.907 9.75.67 13.691-2.077.292-.203.581-.414.853-.642Z" transform="translate(-19686.7 -20398) scale(48.6829)"/></svg>