<svg viewBox="0 0 1963 1963" xmlns="http://www.w3.org/2000/svg" fill="currentColor" style="fill-rule:evenodd;clip-rule:evenodd;stroke-linejoin:round;stroke-miterlimit:2"><path d="M1088.563 1311.234c-140.525 0-192.479-91.12-192.479-91.12s-25.054 98.416-43.52 168.362c-18.43 69.95-21.563 70.971-39.484 110.413-20.075 44.308-69.284 113.983-83.792 135.391-11.525 17.096-25.875 31.367-34.267 29.68-8.391-1.605-8.391-10.43-10.429-28.896-2.825-25.367-10.979-110.567-7.058-168.204 2.55-37.484 15.604-101.009 15.604-101.009l94.85-388.167c-58.308-119.63-10.508-306.538 122.33-306.538 94.258 0 118.92 85.28 90.066 187.813-12.825 45.717-53.092 173.93-54.346 179.971-1.216 6.075-4.196 18.858-3.529 31.483 0 37.409 28.62 113.863 127.667 113.863 159.58 0 235.096-235.884 235.096-393.659 0-126.879-80.613-280.15-316.025-280.15-239.884 0-372.176 182.559-372.176 350.1 0 93.942 37.092 131.742 54.267 152.442 13.958 16.863 6.9 32.975 6.9 32.975l-15.133 60.738c-5.567 20.07-23.525 30.387-48.7 15.683-25.25-14.508-145.584-65.48-145.584-282.933 0-222.863 209.93-453.847 535.755-453.847 258.667 0 487.096 162.68 487.096 426.205 0 325.358-203.225 499.404-403.071 499.404h-.038ZM980.226 2.042C439.73 2.042 0 441.734 0 982.272c0 540.533 439.73 980.23 980.226 980.23s980.234-439.697 980.234-980.23c0-540.538-439.738-980.23-980.234-980.23Z"/></svg>