<svg xmlns="http://www.w3.org/2000/svg" fill="currentColor" style="fill-rule:evenodd;clip-rule:evenodd;stroke-linejoin:round;stroke-miterlimit:2" viewBox="0 0 1984 1984"><path d="M500 176c-76.667 0-148.333 19.333-215 58-64 38-114.667 89-152 153-38.667 66-58 137.5-58 214.5S94.333 750 133 816c37.333 64 88 114.667 152 152 66.667 38.67 138.333 58 215 58s148.333-19.33 215-58c64-37.333 114.667-88 152-152 38.667-66 58-137.5 58-214.5S905.667 453 867 387c-37.333-64-88-115-152-153-66.667-38.667-138.333-58-215-58Zm-68 259h112c24 0 46.167 5.833 66.5 17.5s36.5 27.333 48.5 47 18 41.333 18 65-6 45.333-18 65-28.167 35.333-48.5 47C590.167 688.167 568 694 544 694h-78L355 800V510c0-20.667 7.5-38.333 22.5-53 15-14.667 33.167-22 54.5-22Z"  transform="translate(-175.059 -410.805) scale(2.33412)"/></svg>