<svg viewBox="0 0 1913 1913" xmlns="http://www.w3.org/2000/svg" fill="currentColor" style="fill-rule:evenodd;clip-rule:evenodd;stroke-linejoin:round;stroke-miterlimit:2"><path d="m1768.279 1909.041.374.246.21-.257a39.966 39.966 0 0 0 35.275-21.738c5.806-11.342 5.817-24.646.292-35.848l-.116-.28-.246-.479-.128-.257-.152-.257c-.771-1.483-1.542-2.733-2.313-3.784l-.467-.701-489.58-680.518c182.474-120.789 299.128-306.472 299.128-511.838 0-356.09-344.308-649.61-769.81-649.61H144.232c-22.092 0-40 17.908-40 40v1824.276c0 22.088 17.908 40.006 40 40.006h486.497c22.091 0 40-17.918 40-40.006V1300.96h87.058l426.632 591.482a39.98 39.98 0 0 0 32.442 16.598h551.418Zm-530.95-80-426.633-591.482a39.98 39.98 0 0 0-32.441-16.598H630.729c-22.092 0-40 17.906-40 39.994v567.046H184.231V83.72h656.514c377.901 0 689.81 253.356 689.81 569.61 0 191.46-118.722 361.614-296.781 466.007a40.003 40.003 0 0 0-12.24 57.867l468.951 651.837H1237.33ZM1124.751 653.448c.002-.078.002-.156.003-.235a346.544 346.544 0 0 0-25.769-132.216c-17.171-41.874-42.404-80.046-74.37-112.276l-.057-.058c-31.971-32.103-69.897-57.719-111.776-75.16-41.665-17.525-86.42-26.524-131.842-26.788H630.728c-22.09 0-40 17.908-40 40v610.194c0 22.092 17.91 40 40 40H781.41c45.025-.265 89.52-9.247 131.113-26.544l.041-.017c41.486-17.309 79.276-42.67 111.118-74.511a345.097 345.097 0 0 0 74.55-111.45c17.143-41.406 26.125-85.973 26.52-130.939Zm-79.997-.585c-.32 34.645-7.22 68.987-20.424 100.891a264.98 264.98 0 0 1-57.218 85.514c-24.453 24.454-53.469 43.943-85.33 57.238-31.944 13.281-66.116 20.18-100.694 20.403h-110.36V386.715h109.856c34.88.216 69.255 7.093 101.296 20.579l.14.06c32.15 13.385 61.249 33.07 85.799 57.707a265.7 265.7 0 0 1 57.14 86.27 266.576 266.576 0 0 1 19.795 101.496v.036Z"/></svg>