<svg viewBox="0 0 1913 1913" xmlns="http://www.w3.org/2000/svg" fill="currentColor" style="fill-rule:evenodd;clip-rule:evenodd;stroke-linejoin:round;stroke-miterlimit:2"><path d="M1694.705 651.32c160.29 175.462 160.84 447.343 1.224 623.417-276.47 305.163-637.857 521.004-1037.603 619.748-211.252 52.859-429.234-73.6-488.211-283.26C49.59 1199.486 67.333 733.91 183.575 320.338 244.752 103.152 449.092-33.278 659.55 16.889c389.713 92.993 755.565 332.204 1035.155 634.43Zm-58.916 54.143c132.454 145.179 132.882 369.952.857 515.559-265.825 293.355-613.201 500.814-997.53 595.826h-.184c-169.528 42.459-344.5-59.038-391.793-227.281-.06-.245-.183-.551-.244-.796-116.425-397.666-98.56-847.334 13.704-1246.775C309.787 167.451 471.85 54.392 641.012 94.71c374.663 89.383 725.955 320.213 994.777 610.754Zm-432.293 429.663c104.984-91.096 103.332-259.095-6.73-349.212a1761.464 1761.464 0 0 0-357.41-229.851c-.061-.061-.183-.122-.306-.184-133.37-63.81-284.484 21.23-305.836 172.955-21.657 153.193-25.45 307.61-11.44 454.379 14.56 153.989 163.777 242.882 299.35 183.844 134.412-57.814 260.502-133.555 374.786-225.018 2.691-2.141 5.2-4.466 7.586-6.913Zm-57.57-56.163c73.415-58.12 73.415-171.302 0-231.258-104.494-86.752-219.145-160.473-341.381-219.634-84.428-40.378-178.644 15.907-192.103 111.958-20.801 146.831-24.472 294.885-11.013 435.598 9.177 97.275 102.17 155.395 187.821 118.076a1554.075 1554.075 0 0 0 356.676-214.128v-.612Z"/></svg>