<svg viewBox="0 0 2009 2013" xmlns="http://www.w3.org/2000/svg" fill="currentColor" style="fill-rule:evenodd;clip-rule:evenodd;stroke-linejoin:round;stroke-miterlimit:2"><path d="m521.011 766.487-57.02 27.272c-82.4-66.406-154.876-44.784-188.873-7.052-17.838 19.777-25.638 43.944-22.438 66.126 3.058 21.294 17.091 46.232 53.89 66.732l.046.024-15.426 27.587-5.858 10.515 21.284-38.101 196.439 109.69-17.087 30.59 31.914 14.43c-110.021 243.33-254.009 297.92-436.085 429.16 13.587 27.84 34.941 46.82 64.433 60.55 38.83 18.1 91.88 27.04 160.06 30.94l-1.996 34.96 34.848 3.68-34.837-3.69 1.985-34.95a34.929 34.929 0 0 1 24.703 12.28 35.03 35.03 0 0 1 8.149 26.36c-3.479 32.88-.981 52.54 4.203 64.77 4.39 10.3 11.932 18.4 28.417 25.17 18.002 7.4 44.69 12.31 84.15 15.06 39.017 2.71 87.397 3.13 147.429 3.13 8.897 0 17.468 3.39 23.956 9.48l.694.65c118.241 110.61 273.868 158.66 376.519 158.66h1.21c102.86-.38 258.12-48.67 375.97-159.31 6.5-6.09 15.08-9.48 23.98-9.48 60.03 0 108.39-.42 147.43-3.13 39.46-2.75 66.15-7.66 84.13-15.06 16.48-6.77 24.05-14.87 28.41-25.17 5.19-12.23 7.69-31.89 4.23-64.77l34.82-3.68v-.01l-34.82 3.69a34.998 34.998 0 0 1 8.15-26.36 34.875 34.875 0 0 1 24.68-12.28c68.2-3.9 121.25-12.85 160.06-30.94 29.51-13.73 50.85-32.7 64.44-60.54-182.06-131.24-326.05-185.84-436.09-429.17l-.17-.39c-7.23-16.49-.76-35.82 14.99-44.63l196.47-109.691 17.07 30.576-4.64-8.318-12.43-22.259.02-.024v.001c36.8-20.5 50.83-45.438 53.91-66.732 3.2-22.182-4.62-46.349-22.46-66.126-33.99-37.732-106.47-59.354-188.87 7.052v-.001c-10.49 8.439-24.95 10.123-37.1 4.319-12.14-5.818-19.89-18.133-19.9-31.59V563.549c-.75-236.116-188.69-461.073-483.49-461.073-295.397 0-483.499 225.859-483.499 462.459v201.552ZM1405.67 1776.75v-.01l-23.98-25.54 23.98 25.55ZM1969.48 1491v.01l20.89-28.1-20.89 28.09ZM485.986 1059.87l31.896 14.43c7.495-16.58 1.05-36.14-14.827-45.02l-17.069 30.59Zm-213.529-79.13h-.001v.002l.001-.002Zm248.554-214.253-57.02 27.272c10.491 8.44 24.954 10.124 37.103 4.32 12.165-5.838 19.917-18.12 19.917-31.592Zm1037.039-63.502v-138.05c0-273.085-216.96-531.471-551.57-532.504l-1.97-.003c-335.073 0-552.676 257.841-553.546 530.904l-.002 1.603v138.048c-90.144-42.854-177.426-19.162-227.866 36.815-29.7 32.946-46.326 77.38-39.764 123.028 6.724 46.536 36.681 88.681 89.148 117.938l.005-.008 167.834 93.714c-101.783 205.12-224.867 242.06-421.694 388.43l20.898 28.11h-.009l-20.889-28.1c-11.815 8.8-16.882 24.05-12.655 38.17 18.469 61.48 57.462 101.64 110.699 126.44 42.676 19.88 94.201 29.76 150.813 34.84.113 23.11 3.358 44.41 11.396 63.34 12.865 30.38 36.097 50.23 66.265 62.63 28.673 11.79 64.538 17.25 105.913 20.15 38.599 2.67 84.776 3.21 138.647 3.28 129.827 116.5 296.499 168.38 413.397 168.8h1.41c116.96 0 284.45-51.84 414.78-168.8 53.86-.07 100.06-.61 138.64-3.28 41.38-2.9 77.24-8.36 105.92-20.15 30.19-12.4 53.4-32.25 66.28-62.63 8.04-18.93 11.28-40.23 11.38-63.34 56.63-5.08 108.14-14.97 150.83-34.84 53.24-24.8 92.23-64.96 110.68-126.44 4.22-14.08-.85-29.4-12.65-38.17-196.83-146.38-319.92-183.32-421.68-388.44l167.82-93.715v.01c52.49-29.258 82.45-71.403 89.15-117.939 6.58-45.648-10.04-90.082-39.74-123.028-50.46-55.977-137.73-79.67-227.87-36.813Z"/></svg>