<svg viewBox="0 0 2005 2005" xmlns="http://www.w3.org/2000/svg" fill="currentColor" style="fill-rule:evenodd;clip-rule:evenodd;stroke-linejoin:round;stroke-miterlimit:2"><path d="M1724.66 1165.51h-274.34l-170.24 309.83-183.89-309.83h354.13L880.562 8.8l.004-.002a4.958 4.958 0 0 0-4.443-2.774 4.956 4.956 0 0 0-4.397 2.685h-.01L275.978 1168.19h-.02c-.361.7-.549 1.48-.549 2.27 0 2.71 2.232 4.94 4.944 4.94h349.356a4.943 4.943 0 0 0 4.37-2.63l241.872-456.969 220.239 449.709H823.265l-4.311 7.34 456.916 823.57a4.95 4.95 0 0 0 4.32 2.55c1.82 0 3.49-1 4.35-2.6h.01l444.46-823.57h-.01c.39-.72.59-1.53.59-2.34 0-2.71-2.22-4.94-4.93-4.95Zm-5.62 4.95h5.61l-2.67 4.94h2.68v-4.94h-.01v-.01l-4.34-2.35-1.27 2.36Zm-895.775-4.95h-.012c-2.706 0-4.934 2.23-4.934 4.94 0 .84.215 1.67.625 2.4l4.321-7.34Zm901.385 4.94h.01v.01l4.34 2.34-4.34-2.35v-4.94h-.01v4.94ZM880.556 8.788l.006.012-.006-.012Z"/></svg>