<svg viewBox="0 0 1984 1984" xmlns="http://www.w3.org/2000/svg" fill="currentColor" style="fill-rule:evenodd;"><path d="M29.32 30.7c-3.47-.77-6.45-1.4-6.45-1.4a2.602 2.602 0 0 0 1.06-2.08c0-1.1-.57-1.73-1.03-2.06a3.313 3.313 0 0 0 1.43-2.77c0-1.61-1.1-2.43-1.67-2.83a3.408 3.408 0 0 0 1.1-2.46c0-2.1-1.62-3.04-2.93-3.56-1.06-.4-3.07-.55-4.83-.55-2.9 0-5.5.21-6.75.21-1.5 0-1.31-.76-.76-1.46.33-.4 4.56-5.96 5.35-6.96.55-.73 1.18-1.43 1.67-1.16.52.28.3 1.55-.24 2.95-.82 2.2-1.98 3.6-2.25 4.08l1.94 1.19c.76-.95 3.23-5.05 3.23-7.7 0-1.19-.46-2.19-1.34-2.74-.88-.51-2-.48-3.01.13a7.107 7.107 0 0 0-1.92 1.7L6 10.77c-1.7 2.22-.91 4.96 2.7 4.96 1.29 0 5.45-.3 7.06-.3 1.86 0 2.77.08 3.41.18 1.22.18 1.92.73 1.92 1.46 0 .51-.25.88-.67 1.18-.43.3-.82.76-.82 1.4 0 .76.7 1.07 1.15 1.37.61.4.97.67.97 1.3 0 .59-.42.92-.9 1.28-.4.3-.92.64-.92 1.34 0 .64.46.95.76 1.19s.64.52.64 1.03c0 .52-.24.76-.85 1.13-.49.27-1.19.79-1.19 1.52 0 .82.58 1.18 1.28 1.37 1.67.4 6.66 1.46 8.36 1.85.55.12 1.1.3 1.1.76s-.73.67-1.77.67c-3.59 0-13.56-.73-19.43-2.77-3.98-1.33-6.17-3.8-6.17-6.75 0-2.55 1.7-4.83 3.55-6.14L4.5 17.1C1.82 18.95 0 21.9 0 25c0 3.6 2.13 7.24 8 9.22 6.23 2.1 15.7 2.74 20.1 2.74 3.01 0 4.47-1.25 4.47-3.14-.03-1.8-1.49-2.76-3.25-3.13v.01Z" transform="translate(93.357 -56.542) scale(55.1823)"/></svg>