<svg viewBox="0 0 1984 1984" xmlns="http://www.w3.org/2000/svg" fill="currentColor" style="fill-rule:evenodd;"><path d="M29.32 30.7c-3.47-.77-6.45-1.4-6.45-1.4a2.602 2.602 0 0 0 1.06-2.08c0-1.1-.57-1.73-1.03-2.06a3.313 3.313 0 0 0 1.43-2.77c0-1.61-1.1-2.43-1.67-2.83a3.408 3.408 0 0 0 1.1-2.46c0-2.1-1.62-3.04-2.93-3.56-1.06-.4-3.07-.55-4.83-.55-2.9 0-2.069.032-2.069.032.76-.95 4.259-6.232 4.259-8.882 0-1.19-.46-2.19-1.34-2.74-.88-.51-2-.48-3.01.13a7.107 7.107 0 0 0-1.92 1.7L6 10.77c-1.7 2.22.338 4 .338 4C3.658 16.62 0 21.9 0 25c0 3.6 2.13 7.24 8 9.22 6.23 2.1 15.7 2.74 20.1 2.74 3.01 0 4.47-1.25 4.47-3.14-.03-1.8-1.49-2.76-3.25-3.13v.01Z" transform="translate(93.357 -56.542) scale(55.1823)"/></svg>