<svg viewBox="0 0 1913 1913" xmlns="http://www.w3.org/2000/svg" fill="currentColor" style="fill-rule:evenodd;clip-rule:evenodd;stroke-linejoin:round;stroke-miterlimit:2"><path d="M141.537 88.988a66.823 66.823 0 0 0-2.518-1.143c-1.482-27.307-16.403-42.94-41.457-43.1l-.34-.001c-14.986 0-27.449 6.397-35.12 18.037l13.779 9.452c5.731-8.695 14.724-10.548 21.348-10.548h.229c8.249.053 14.474 2.452 18.503 7.129 2.932 3.405 4.893 8.111 5.864 14.05-7.314-1.243-15.224-1.625-23.68-1.141-23.82 1.372-39.134 15.265-38.105 34.569.522 9.792 5.4 18.216 13.735 23.719 7.047 4.652 16.124 6.927 25.557 6.412 12.458-.683 22.231-5.436 29.049-14.127 5.178-6.6 8.453-15.153 9.899-25.93 5.937 3.583 10.337 8.298 12.767 13.966 4.132 9.635 4.373 25.468-8.546 38.376-11.319 11.308-24.925 16.2-45.488 16.351-22.809-.169-40.059-7.484-51.275-21.742C35.236 139.966 29.808 120.682 29.605 96c.203-24.682 5.631-43.966 16.133-57.317C56.954 24.425 74.204 17.11 97.013 16.941c22.975.17 40.526 7.52 52.171 21.847 5.71 7.026 10.015 15.861 12.853 26.162l16.147-4.308c-3.44-12.68-8.853-23.606-16.219-32.668C147.036 9.607 125.202.195 97.07 0h-.113C68.882.194 47.292 9.642 32.788 28.079 19.882 44.486 13.224 67.316 13.001 95.933L13 96l.001.068c.223 28.616 6.881 51.446 19.787 67.853C47.292 182.358 68.882 191.806 96.957 192h.113c24.96-.173 42.554-6.708 57.048-21.189 18.963-18.945 18.392-42.692 12.142-57.27-4.484-10.454-13.033-18.945-24.723-24.553Zm-43.096 40.519c-10.44.588-21.287-4.098-21.821-14.135-.397-7.442 5.296-15.746 22.461-16.735a99.978 99.978 0 0 1 5.79-.169c6.235 0 12.068.606 17.371 1.765-1.978 24.702-13.58 28.713-23.801 29.274Z" transform="translate(4.065) scale(9.96354)"/></svg>