<svg viewBox="0 0 1980 1980" xmlns="http://www.w3.org/2000/svg" fill="currentColor" style="fill-rule:evenodd;clip-rule:evenodd;stroke-linejoin:round;stroke-miterlimit:2"><path d="M804.563 891.58c-191.817 8.783-345.175 167.588-345.175 361.53 0 199.541 162.354 361.879 361.917 361.879h.066c96.634 0 187.471-37.617 255.805-105.946 68.354-68.342 106-159.221 106-255.892V707.155c0-18.43 12.108-34.667 29.762-39.93 17.68-5.266 36.684 1.696 46.771 17.113 56.346 86.096 150.363 138.467 252.826 141.346V681.646c-160.867-27.479-288.4-151.346-320.672-311.6h-112.779l-1.883 885.76c0 66-27.604 128.1-77.734 174.77-47.92 44.609-112.858 70.196-178.162 70.196-136.58 0-247.659-111.08-247.659-247.621 0-130.92 102.142-238.438 230.917-247.063V891.58Zm16.817 806.742h-.084c-245.504 0-445.246-199.72-445.246-445.213 0-245.508 199.742-445.246 445.255-445.246 7.696 0 14.992.517 21.433.971 2.021.142 4.042.287 6.063.412 21.97 1.359 39.096 19.571 39.096 41.588v198.85a41.667 41.667 0 0 1-14 31.154 41.643 41.643 0 0 1-32.588 10.221c-2.362-.283-4.712-.6-7.062-.916-5.05-.684-9.409-1.28-12.942-1.28-90.63 0-164.325 73.7-164.325 164.288 0 90.588 73.696 164.288 164.287 164.288 93.58 0 172.605-74.063 172.605-161.725l1.97-927.422c.05-22.975 18.692-41.58 41.667-41.58h190.096c21.333 0 39.217 16.11 41.442 37.322 15.833 150.92 137.012 268.325 288.138 279.166 21.8 1.563 38.683 19.705 38.683 41.563v221.054c0 21.438-16.263 39.375-37.596 41.467a389.873 389.873 0 0 1-36.575 1.858h-.133c-94.921 0-184.663-33.475-255.055-92.746v436.755c0 118.933-46.316 230.742-130.412 314.825-84.071 84.059-195.838 130.346-314.717 130.346ZM230.975 86.083c-81.467 0-147.642 66.18-147.642 147.526v1514.588c0 81.409 66.23 147.638 147.642 147.638h1514.472c81.409 0 147.638-66.23 147.638-147.638V233.725c0-81.408-66.23-147.642-147.638-147.642H230.975Zm1514.472 1893.085H230.975C103.613 1979.168 0 1875.556 0 1748.198V233.724C0 106.313 103.563 2.75 230.854 2.75h1514.593c127.359 0 230.971 103.617 230.971 230.975v1514.472c0 127.359-103.612 230.971-230.97 230.971Z"/></svg>