<svg viewBox="0 0 2009 2013" xmlns="http://www.w3.org/2000/svg" fill="currentColor" fill="currentColor" style="fill-rule:evenodd;clip-rule:evenodd;stroke-linejoin:round;stroke-miterlimit:2"><path d="M72.868.001C112.611.253 144.8 32.597 144.8 72.4c0 39.959-32.441 72.4-72.4 72.4S0 112.359 0 72.4 32.441 0 72.4 0m0 144.8C32.5 144.8 0 112.3 0 72.4 0 32.5 32.5 0 72.4 0c39.9 0 72.4 32.5 72.4 72.4 0 39.9-32.5 72.4-72.4 72.4Zm0-137.5C36.5 7.3 7.3 36.5 7.3 72.4c0 35.9 29.2 65.1 65.1 65.1 35.9 0 65.1-29.2 65.1-65.1 0-35.9-29.2-65.1-65.1-65.1ZM29.5 111.8c10.6 11.6 25.9 18.8 42.9 18.8 8.7 0 16.9-1.9 24.3-5.3L56.3 85l-26.8 26.8Zm26.6-51.2L25.5 91.1 21.4 87l69.8-69.8c-5.9-2-12.2-3.1-18.8-3.1-32.2 0-58.3 26.1-58.3 58.3 0 13.1 4.3 25.2 11.7 35l30.5-30.5 2.1 2 43.7 43.7c.9-.5 1.7-1 2.5-1.6L56.3 72.7 27 102l-4.1-4.1 33.4-33.4 2.1 2 51 50.9c.8-.6 1.5-1.3 2.2-1.9l-55-55-.5.1Zm59.6 50.8c9.3-10.3 15-24 15-39 0-23.4-13.8-43.5-33.6-52.8L60.4 56.2l55.3 55.2ZM74.5 66.8l-4.1-4.1 28.9-28.9 4.1 4.1-28.9 28.9Zm27.4-39.7L68.6 60.4l-4.1-4.1L97.8 23l4.1 4.1Z" style="stroke:#fff;stroke-width:.07px" transform="translate(-95.5 -93.5) scale(15.1934)"/></svg>