<svg fill="currentColor" xmlns="http://www.w3.org/2000/svg" viewBox="0 0 1984 1984"><path d="M1148.27,1982.25c-93.99,0-152.11-12.96-220.74-35.35l-.2-.07c-73.34-24.36-137.25-59.6-189.95-104.76-54.52-46.78-93.42-98.7-115.64-154.33-21.36-53.63-31.73-125.46-31.73-219.64V904h-171.46c-42.2,0-76.54-34.33-76.54-76.54v-258.85c0-33.23,21.22-62.48,52.8-72.78,106.36-34.69,156.58-65.77,179.98-85.74,43.43-36.94,78.6-81.75,104.61-133.25l.08-.15c26.99-52.88,45.89-122.65,56.18-207.37,4.68-38.38,37.34-67.32,75.98-67.32h259.85c42.2,0,76.54,34.33,76.54,76.54V425h345.46c42.2,0,76.54,34.33,76.54,76.54v325.93c0,42.2-34.33,76.54-76.54,76.54h-345.43l-.03,424.51c-.06,37.26-.11,69.43,.77,94.4,1.16,33.01,3.68,41.57,4.18,42.96l.08,.23c4.19,11.33,19.15,29.33,36.92,39.85l.17,.1c28.71,17.2,61.23,25.56,99.4,25.56,76.93,0,155.62-26.09,233.89-77.54,23.53-15.48,53.56-16.79,78.36-3.41h0s0,0,0,0c24.77,13.37,40.18,39.16,40.21,67.33v288.08c0,29.5-17.25,56.69-43.94,69.25-82.87,39-159.32,66.82-227.22,82.66-69.3,16.11-144.17,24.28-222.56,24.28Zm-195.81-111.36c63.79,20.8,111.62,31.36,195.81,31.36,72.3,0,141.07-7.47,204.41-22.19,61.88-14.44,132.3-40.08,209.32-76.2v-279.47c-89.85,57.88-181.48,87.21-272.48,87.21-53.02,0-98.95-12.06-140.42-36.87-32.01-18.98-59.89-50.67-71.07-80.78-9.81-26.16-10.18-72.27-10.04-165.56l.04-504.38h421.96V505h-422V82h-253.31c-11.51,92.67-33.02,170.38-63.92,230.98-30.83,61.03-72.58,114.19-124.1,158.01-41.64,35.53-110.5,69.22-204.66,100.12v252.9h248v644.1c0,83.86,8.52,146.01,26.04,190,17.37,43.49,48.8,84.96,93.4,123.24,44.75,38.35,99.6,68.48,163.02,89.55Z"/></svg>