<svg viewBox="0 0 2027 1663" xmlns="http://www.w3.org/2000/svg" fill="currentColor" style="fill-rule:evenodd;clip-rule:evenodd;stroke-linejoin:round;stroke-miterlimit:2"><path d="M210.717 1485.439c138.146 61.416 287.905 93.391 440.621 93.391h1.234c683.888 0 1092.53-555.342 1092.53-1092.238 0-15.796-.371-32.087-1.134-49.804a41.657 41.657 0 0 1 17.192-35.55c36.146-26.163 69.73-55.209 100.554-86.921a841.982 841.982 0 0 1-101.416 18.446c-19.559 2.32-38.017-9.309-44.371-27.913-6.35-18.608 1.17-39.125 18.041-49.216a358.22 358.22 0 0 0 102.15-91.746c-48.545 19.47-98.87 34.37-150.546 44.537a41.67 41.67 0 0 1-38.462-12.408c-67.05-71.63-161.738-112.684-259.842-112.684h-.52c-196.888 0-357.014 160.096-357.014 356.876 0 27.591 3.13 54.954 9.3 81.325a41.68 41.68 0 0 1-8.579 36.2c-8.387 10.05-20.991 15.558-34.087 14.912-309.525-15.583-600.955-154.066-809.293-382.512-14.841 39.804-22.5 82.104-22.429 124.82-.141 119.717 59.196 230.763 158.734 297.172 15.47 10.32 22.229 29.65 16.558 47.362a41.612 41.612 0 0 1-40.987 28.946c-44.988-1.413-89.713-9.875-132.155-24.833 25.088 142.354 135.475 259.012 280.775 288.354 18.925 3.82 32.742 20.137 33.396 39.433.65 19.292-12.033 36.505-30.654 41.596-37.579 10.275-76.267 15.484-115.004 15.484-3.325.016-6.663-.025-10.004-.096 60.6 111.391 177.104 184.017 307.154 186.404 17.625.32 33.138 11.696 38.738 28.408 5.608 16.713.087 35.146-13.775 46.025-128.338 100.734-284.692 162.038-446.705 176.23Zm440.575 176.725c-224.554.004-443.129-64.2-632.154-185.709-16.338-10.504-23.25-30.9-16.667-49.175 6.583-18.275 24.913-29.566 44.2-27.241 28.78 3.479 59.071 5.245 90.034 5.245h1.333c134.296 0 266.763-36.233 382.154-103.42-140.033-39.242-254.537-146.388-300.562-289.513a41.654 41.654 0 0 1 8.483-40.388 41.65 41.65 0 0 1 31.183-14.037h.163C148.625 876.9 78.075 745.9 78.075 601.942v-5.058c0-14.771 7.821-28.438 20.555-35.921a41.657 41.657 0 0 1 41.379-.483 350.888 350.888 0 0 0 24.283 12.308C110.912 498.83 81.2 409.05 81.312 314.975c-.132-77.57 20.468-154.162 59.568-221.367a41.671 41.671 0 0 1 32.741-20.583c13.584-1.067 26.921 4.608 35.563 15.208C393.434 314.2 660.659 457.143 948.705 485.56a446.588 446.588 0 0 1-2.308-45.35C946.397 197.479 1143.91 0 1386.689 0h.637c113.042 0 222.434 44.2 303.813 122.071 76.896-17.463 150.238-46.688 218.317-87.025 14.896-8.825 33.7-7.525 47.233 3.283a41.663 41.663 0 0 1 13.663 45.342 441.42 441.42 0 0 1-69.359 132.58 756.719 756.719 0 0 0 66.496-25.776c16.959-7.5 36.821-2.912 48.755 11.275 11.937 14.188 13.062 34.55 2.77 49.967-52.254 78.233-116.437 146.654-191.008 203.65.287 10.713.43 21.054.43 31.225 0 285.196-110.28 573.855-302.56 791.955-104.416 118.43-228.646 211.5-369.241 276.625-153.267 70.992-322.842 106.992-504.018 106.992h-1.325Z"/></svg>