<svg viewBox="0 0 1980 1980" xmlns="http://www.w3.org/2000/svg" fill="currentColor" style="fill-rule:evenodd;clip-rule:evenodd;stroke-linejoin:round;stroke-miterlimit:2"><path d="M857.284 990.83h88.67v-410.1h-88.67v410.1Zm172.004 83.333H773.951V497.396h255.337v576.767Zm257.971-83.333h88.675v-410.1h-88.675v410.1Zm172.009 83.333h-255.342V497.396h255.342v576.767ZM427.308 1319.79H771.28v190.904l199.63-190.904h515.983l233.05-222.73V251.7l-1292.634.075V1319.79Zm260.638 385.9v-302.567H343.971V168.446l1459.305-.083v964.325l-282.966 270.434h-515.972l-316.392 302.567Zm-131.791 190.146H755.93l257.93-246.855h386.95l491.104-469.5V87.296H199.125L83.333 382.546V1648.98h472.822v246.855Zm233.225 83.333H472.82v-246.854H0V366.788L142.292 3.963h1832.955V1215.1l-541.013 517.213h-386.92L789.38 1979.168Z"/></svg>