<svg xmlns="http://www.w3.org/2000/svg" fill="currentColor" style="fill-rule:evenodd;" viewBox="0 0 2009 2013"><path d="M1193.205 126.817a39.994 39.994 0 0 0-28.164 56.49c36.533 76.27 59.412 168.996 59.412 304.982-.007 223.079-138.9 536.17-272.128 771.55C912.64 941.582 805.255 80.442 805.255 80.442c-2.675-21.459-21.926-36.912-43.46-34.875l-667.25 63.136a39.955 39.955 0 0 0-27.948 15.445 39.984 39.984 0 0 0-7.73 30.996l305.606 1821.025c3.234 19.267 19.913 33.374 39.447 33.374h762.043a39.99 39.99 0 0 0 31.813-15.75c338.587-444.21 752.9-1078.197 752.908-1565.16 0-158.59-33.686-284.052-107.748-405.945a40 40 0 0 0-42.093-18.441l-607.638 122.57Zm64.11 68.68 531.27-107.168c56.625 101.95 82.105 208.428 82.105 340.303-.007 467-398.028 1070.623-724.558 1500.918H437.77S190.297 454.923 144.874 184.296l585.8-55.42c26.818 215.043 156.776 1257.25 156.776 1257.25 2.103 16.842 14.605 30.534 31.196 34.139 16.59 3.605 33.649-3.657 42.554-18.114 154.42-250.677 343.24-645.279 343.247-913.862 0-124.807-18.025-216.76-47.133-292.792Z"/></svg>