<svg viewBox="0 0 1950 1950" xmlns="http://www.w3.org/2000/svg" fill="currentColor" style="fill-rule:evenodd;clip-rule:evenodd;stroke-linejoin:round;stroke-miterlimit:2"><path d="M41.667 1950a41.638 41.638 0 0 1-29.909-12.66 41.65 41.65 0 0 1-10.212-40.25L125.742 1454C43.425 1308.23 0 1143.08 0 975.188c0-260.383 101.396-505.183 285.513-689.296C469.63 101.779 714.426.379 974.809.379c260.381 0 505.181 101.4 689.301 285.513 184.11 184.113 285.51 428.913 285.51 689.296 0 260.382-101.4 505.182-285.51 689.302-184.38 184.38-429.66 286-690.455 285.51-160.079 0-318.575-39.97-459.567-115.79L51.683 1948.77a41.254 41.254 0 0 1-10.016 1.23Zm478.196-201.81c7.075 0 14.092 1.8 20.362 5.32 132.176 74.04 282.046 113.15 433.48 113.15h1.054c491.611 0 891.531-399.91 891.531-891.472 0-491.563-399.92-891.475-891.481-891.475-491.559 0-891.476 399.912-891.476 891.475 0 159.002 42.588 315.322 123.159 452.022a41.7 41.7 0 0 1 4.221 32.41l-109.617 391.06 408.746-101.27a41.602 41.602 0 0 1 10.021-1.22Zm715.777-264.7c-32.18 0-69.36-3.95-109.42-16.52a1509.556 1509.556 0 0 1-146.594-53.51c-213.434-91.01-367.926-277.99-441.03-381.36-1.733-2.45-2.962-4.2-3.683-5.17l-.446-.59C501.3 982.476 424.155 867.334 424.155 745.905c0-130.596 66.041-200.15 94.241-229.85a551.608 551.608 0 0 0 4.554-4.825c37.134-39.967 80.446-44.28 97.346-44.28 16.013-.083 32.813.234 49.696.93 1.442.07 2.554.037 3.7.037 28.334-.225 63.867 7.442 89.35 67.858l.004.013c7.1 16.837 17.559 41.996 28.525 68.379 18.38 44.209 43.551 104.746 47.471 112.729 14.234 28.025 14.967 55.28 2.08 80.8-1.142 2.271-2.221 4.459-3.255 6.55-6.825 13.821-13.271 26.875-27.516 43.28-4.075 4.696-8.28 9.754-12.475 14.804-9.034 10.871-18.375 22.104-27.288 30.896-.721.712-1.658 1.637-2.612 2.6 15.308 25.587 62.525 99.541 129.196 158.234 74.787 65.91 138.958 93.45 173.428 108.25 7.71 3.31 13.8 5.92 19.01 8.51 2.25 1.12 4.04 1.88 5.43 2.42 19.07-21.72 61.15-71.13 74.99-91.62 35.87-53.17 84.33-35.71 105.03-28.25 28.82 10.22 174.17 81.58 175.58 82.28 4.59 2.26 8.94 4.34 12.98 6.26 21.8 10.4 40.64 19.39 52.14 38.32 18.32 29.85 8.35 99.79-11 153.37-28.42 78.53-148.5 136.74-202.23 144.64-18.31 2.69-40.98 5.25-66.89 5.25ZM625.117 550.271c-1.546 0-3.083.004-4.612.013-4.871 0-21.271 1.271-36.484 17.641a650.913 650.913 0 0 1-5.191 5.509c-24.934 26.258-71.342 75.137-71.342 172.471 0 98.896 71.529 201.183 93.45 230.179l.383.504c.896 1.175 2.721 3.729 5.313 7.396 68.012 96.166 211.142 269.876 405.636 352.806 44.97 19.11 91.64 36.14 138.66 50.6 56.25 17.64 106.54 13.24 139.49 8.4 40.03-5.89 122.33-52.84 135.96-90.53 13.22-36.56 16.08-66.7 15.81-81.04-4.14-2.18-9.65-4.81-14.45-7.09-4.35-2.08-9.04-4.32-14.06-6.79-33.1-16.43-147.92-71.85-166.68-78.5-3.43-1.24-6.23-2.19-8.41-2.86-21.77 31.94-81.39 99.77-81.99 100.45-27.62 31.15-62.58 36.51-104.01 16.05-3.21-1.6-8.61-3.91-14.86-6.6-35.99-15.44-110.875-47.58-195.642-122.28-76.55-67.4-128.771-149.333-147.667-181.433-31.266-53.108 5.571-89.379 17.675-101.295 5.955-5.876 13.955-15.501 21.696-24.809 4.584-5.517 9.184-11.042 13.634-16.175 7.204-8.296 10.05-14.058 15.72-25.542 1.121-2.27 2.3-4.65 3.563-7.162.062-.125.112-.225.15-.308-.15-.667-.638-2.33-2.221-5.446-4.533-9.013-21.917-50.688-50.012-118.271-10.909-26.238-21.313-51.259-28.371-68.009-4.271-10.12-7.621-14.912-9.275-16.9-.925-.016-1.979-.004-2.863-.004-2.746.009-5.396.004-7.941-.121a1006.386 1006.386 0 0 0-41.059-.854Z"/></svg>