<svg viewBox="0 0 1913 1913" xmlns="http://www.w3.org/2000/svg" style="fill-rule:evenodd;" fill="currentColor"><path d="M1728.79 0h-278.73c-30.06 0-54.75 17.348-74 52.049C980.5 753.708 775.778 1116.9 761.894 1141.53l392.066 719.42c18.5 34.7 43.95 52.05 76.33 52.05h276.41c16.96 0 29.31-5.78 37.02-17.35 7.68-13.15 7.32-27.42-1.15-42.82l-388.59-711.3v-1.12L1764.66 60.146c8.47-16.177 8.47-30.407 0-42.776C1757.7 5.783 1745.75 0 1728.79 0ZM460.036 1340.49c29.282 0 54.363-17.72 75.18-53.22C725.662 949.569 824.73 773.785 832.463 759.859L642.795 429.108c-20.056-34.697-45.505-52.049-76.326-52.049H290.035c-17.763 0-30.064 5.783-37.015 17.349-8.49 11.565-8.101 25.838 1.15 42.776l186.2 322.675c.757.821.757 1.171 0 1.171l-292.615 518.16c-7.687 14.69-7.687 28.55 0 41.61 7.69 13.15 19.667 19.69 35.847 19.69h276.434Z" /></svg>