<svg viewBox="0 0 1913 1913" xmlns="http://www.w3.org/2000/svg" style="fill-rule:evenodd;" fill="currentColor"><path d="M1906.59 56.402a45.57 45.57 0 0 0-39.14-22.24h-432.7a45.53 45.53 0 0 0-39.49 22.86L780.362 1127.39c-8.225 14.32-8.061 31.97.438 46.12l409.93 683.22a45.567 45.567 0 0 0 39.06 22.11h455.47c16.53 0 31.77-8.96 39.81-23.41a45.557 45.557 0 0 0-1.11-46.16l-395.98-637.98L1907.5 101.404a45.547 45.547 0 0 0-.91-45.002ZM1235.28 1151.16a45.539 45.539 0 0 0 1.35 45.71l366.75 590.87h-347.8l-382.902-638.16L1461.11 125.257h329.87l-555.7 1025.903ZM814.619 787.259 586.881 354.557a45.549 45.549 0 0 0-40.31-24.336H136.643a45.54 45.54 0 0 0-41.161 65.042L290.33 806.617 5.894 1309.86a45.55 45.55 0 0 0 39.654 67.96H478.25c16.42 0 31.574-8.85 39.654-23.14l296.059-523.8a45.555 45.555 0 0 0 .656-43.621ZM451.673 1286.72H123.612l257.649-455.84a45.533 45.533 0 0 0 1.508-41.909L208.617 421.316h310.457l203.352 386.376-270.753 479.028Z" /></svg>