<svg enable-background="new 0 0 512.003 512.003" height="80" viewBox="0 0 512.003 512.003" width="80" xmlns="http://www.w3.org/2000/svg"><linearGradient id="SVGID_1_" gradientTransform="matrix(1 0 0 -1 0 127.89)" gradientUnits="userSpaceOnUse" x1="112.793" x2="15.111" y1="-7.71" y2="89.972"><stop offset="0" stop-color="#78048c"/><stop offset="1" stop-color="#ca0e4e"/></linearGradient><g  fill="url(#SVGID_1_)"><path d="m444.579 345.374c0-13.349-10.86-24.209-24.209-24.209s-24.209 10.86-24.209 24.209 10.86 24.209 24.209 24.209 24.209-10.86 24.209-24.209zm-33.419 0c0-5.078 4.131-9.209 9.209-9.209s9.209 4.131 9.209 9.209-4.131 9.209-9.209 9.209-9.209-4.131-9.209-9.209zm-116.581 0c0-13.349-10.86-24.209-24.209-24.209s-24.209 10.86-24.209 24.209 10.86 24.209 24.209 24.209 24.209-10.86 24.209-24.209zm-33.419 0c0-5.078 4.131-9.209 9.209-9.209s9.209 4.131 9.209 9.209-4.131 9.209-9.209 9.209-9.209-4.131-9.209-9.209zm223.609 142.373-29.281-17.327c36.223-31.917 56.812-77.836 56.512-126.116-.279-43.656-17.489-84.899-48.462-116.131-30.976-31.235-72.072-48.783-115.724-49.411-5.015-.067-10.039.111-15.025.48.311-4.176.472-8.381.472-12.61 0-44.962-17.637-87.108-49.661-118.675-32.018-31.561-74.432-48.598-119.421-47.937-30.115.433-59.572 9.094-85.186 25.046-3.516 2.19-4.591 6.815-2.401 10.331 2.189 3.516 6.816 4.592 10.331 2.401 23.296-14.509 50.086-22.387 77.472-22.781 40.949-.583 79.54 14.902 108.675 43.622 29.142 28.726 45.191 67.078 45.191 107.993 0 6.64-.435 13.216-1.273 19.7v.003c-4.21 32.574-18.82 62.774-42.2 86.563-27.982 28.473-65.345 44.569-105.216 45.327l-128.524.031 23.802-14.083c3.969-2.348 6.589-6.49 7.011-11.08.422-4.594-1.403-9.149-4.882-12.186-33.311-29.072-52.255-71.082-51.976-115.257.259-41.069 16.845-79.5 46.702-108.215 2.986-2.872 3.078-7.619.207-10.604s-7.619-3.079-10.604-.207c-32.799 31.545-51.019 73.783-51.305 118.932-.305 48.275 20.282 94.198 56.507 126.122l-29.284 17.326c-5.122 3.03-7.506 8.921-5.935 14.661 1.571 5.738 6.623 9.592 12.572 9.592h.004l135.778-.033c.046 0 .092 0 .137-.001 43.846-.814 84.937-18.505 115.704-49.811 24.218-24.643 39.877-55.545 45.47-88.991 5.503-.514 11.08-.737 16.645-.66 39.699.572 77.09 16.544 105.285 44.975 28.193 28.43 43.86 65.956 44.113 105.663.274 44.179-18.672 86.187-51.983 115.254-3.479 3.038-5.302 7.594-4.878 12.189.423 4.589 3.046 8.73 7.012 11.075l23.802 14.083-128.52-.028c-77.105-1.471-140.73-60.394-148.007-137.089-.391-4.123-4.045-7.15-8.175-6.758-4.124.391-7.149 4.051-6.758 8.175 8 84.318 77.958 149.093 162.728 150.671.046.001.092.001.138.001l135.771.03c5.953 0 11.007-3.855 12.578-9.593s-.815-11.631-5.938-14.662zm-318.139-237.554c-13.349 0-24.209 10.86-24.209 24.209s10.86 24.209 24.209 24.209 24.209-10.86 24.209-24.209-10.86-24.209-24.209-24.209zm0 33.419c-5.078 0-9.209-4.131-9.209-9.209s4.131-9.209 9.209-9.209 9.209 4.131 9.209 9.209-4.131 9.209-9.209 9.209zm202.949 61.762c0-13.349-10.86-24.209-24.209-24.209s-24.209 10.86-24.209 24.209 10.86 24.209 24.209 24.209 24.209-10.86 24.209-24.209zm-33.419 0c0-5.078 4.131-9.209 9.209-9.209s9.209 4.131 9.209 9.209-4.131 9.209-9.209 9.209-9.209-4.131-9.209-9.209zm-116.168-186.488c14.034-14.781 21.18-34.15 20.121-54.538-2.02-38.878-34.554-69.7-73.477-69.7-36.509 0-67.841 27.233-72.88 63.347-.471 3.373-.71 6.817-.71 10.237 0 12.407 10.093 22.5 22.5 22.5s22.5-10.093 22.5-22.5c0-1.349.093-2.698.278-4.016 1.994-14.296 14.414-24.852 28.908-24.562 14.897.3 27.17 12.171 27.942 27.026.412 7.942-2.364 15.479-7.816 21.221-5.458 5.749-12.819 8.914-20.728 8.914-12.407 0-22.5 10.093-22.5 22.5v53.417c0 12.407 10.093 22.5 22.5 22.5s22.5-10.093 22.5-22.5v-34.465c11.76-3.777 22.339-10.405 30.862-19.381zm-40.077 6.385c-3.39.795-5.786 3.819-5.786 7.301v40.161c0 4.136-3.364 7.5-7.5 7.5s-7.5-3.364-7.5-7.5v-53.417c0-4.136 3.364-7.5 7.5-7.5 12.064 0 23.289-4.825 31.606-13.586 8.313-8.755 12.545-20.235 11.918-32.327-1.194-23.008-20.467-41.254-43.516-41.254-21.692 0-40.169 15.974-43.17 37.492-.804 5.767.082 13.592-7.922 13.592-8.653 0-7.756-9.776-6.934-15.663 4.011-28.745 28.956-50.421 58.024-50.421 30.932 0 56.891 24.541 58.498 55.478.843 16.239-4.846 31.664-16.02 43.432-7.879 8.298-17.975 14.077-29.198 16.712z"/></g></svg>