<svg enable-background="new 0 0 510.896 510.896" height="170" viewBox="0 0 510.896 510.896" width="300" xmlns="http://www.w3.org/2000/svg"><linearGradient id="SVGID_1_" gradientTransform="matrix(1 0 0 -1 0 127.89)" gradientUnits="userSpaceOnUse" x1="112.793" x2="15.111" y1="-7.71" y2="89.972"><stop offset="0.78" stop-color="#78048c"/><stop offset="0.8" stop-color="#ca0e4e"/></linearGradient><g fill="url(#SVGID_1_)"><path d="m7.5 318.938h25.756c4.142 0 7.5-3.357 7.5-7.5s-3.358-7.5-7.5-7.5h-25.756c-4.142 0-7.5 3.357-7.5 7.5s3.358 7.5 7.5 7.5z"/><path d="m503.396 162.69c-4.143 0-7.5 3.357-7.5 7.5v29.721c0 23.454-19.081 42.535-42.535 42.535h-244.169v-6.014c0-16.376-13.323-29.699-29.699-29.699s-29.699 13.323-29.699 29.699v6.014h-38.977c-2.41 0-4.672 1.157-6.082 3.111l-13.468 18.667-13.468-18.667c-1.41-1.954-3.672-3.111-6.082-3.111h-14.181c-23.454 0-42.536-19.081-42.536-42.536v-123.775c0-23.454 19.082-42.535 42.536-42.535h322.307c4.143 0 7.5-3.357 7.5-7.5s-3.357-7.5-7.5-7.5h-322.307c-31.725 0-57.536 25.81-57.536 57.535v123.775c0 31.725 25.811 57.535 57.536 57.535h10.344l11.656 16.155c2.711 3.758 7.097 6.001 11.731 6.001 4.635 0 9.02-2.243 11.731-6.001l11.656-16.155h35.14v21.196c0 4.681-2.068 9.076-5.675 12.06l-33.091 27.374c-5.914-8.534-15.771-14.138-26.917-14.138h-18.893c-4.142 0-7.5 3.357-7.5 7.5s3.358 7.5 7.5 7.5h18.894c9.778 0 17.733 7.955 17.733 17.733v122.892c0 9.778-7.955 17.733-17.733 17.733h-76.612c-4.142 0-7.5 3.357-7.5 7.5s3.358 7.5 7.5 7.5h76.612c13.309 0 24.78-7.988 29.891-19.418 11.609 8.773 25.896 13.594 40.47 13.594h119.978c15.166 0 27.505-12.338 27.505-27.504 0-5.994-1.933-11.542-5.201-16.066 8.346-4.728 13.994-13.686 13.994-23.943 0-6.26-2.106-12.036-5.642-16.664 7.79-4.862 12.987-13.506 12.987-23.345 0-6.213-2.073-11.95-5.561-16.561 7.88-4.842 13.146-13.541 13.146-23.448 0-15.166-12.338-27.505-27.504-27.505h-68.21c-3.131 0-6.074-1.219-8.287-3.432l-11.172-11.174c-.846-.846-1.312-1.972-1.312-3.169v-36.217h244.168c31.725 0 57.535-25.811 57.535-57.535v-29.718c-.001-4.143-3.358-7.5-7.501-7.5zm-292.325 155.922c5.046 5.046 11.756 7.825 18.894 7.825h68.21c6.895 0 12.504 5.609 12.504 12.505 0 6.895-5.609 12.504-12.504 12.504h-22.082c-4.143 0-7.5 3.357-7.5 7.5s3.357 7.5 7.5 7.5h14.496c6.896 0 12.505 5.609 12.505 12.505 0 6.895-5.609 12.504-12.505 12.504h-14.496c-4.143 0-7.5 3.357-7.5 7.5s3.357 7.5 7.5 7.5h7.152c6.895 0 12.504 5.609 12.504 12.505 0 6.895-5.609 12.504-12.504 12.504h-11.213c-4.143 0-7.5 3.357-7.5 7.5s3.357 7.5 7.5 7.5h2.419c6.896 0 12.505 5.609 12.505 12.505 0 6.895-5.609 12.504-12.505 12.504h-119.978c-11.836 0-23.435-4.086-32.658-11.504l-4.97-3.998v-119.3c0-1.271-.08-2.522-.222-3.755l37.058-30.657c7.062-5.843 11.113-14.451 11.113-23.617v-42.21c0-8.105 6.594-14.699 14.699-14.699s14.699 6.594 14.699 14.699v57.23c0 5.204 2.026 10.097 5.706 13.775z"/><path d="m453.361 18.6h-41.557c-4.143 0-7.5 3.357-7.5 7.5s3.357 7.5 7.5 7.5h41.557c23.454 0 42.535 19.081 42.535 42.535v62.093c0 4.143 3.357 7.5 7.5 7.5s7.5-3.357 7.5-7.5v-62.093c0-31.725-25.811-57.535-57.535-57.535z"/><path d="m290.738 115.328c-1.578-4.856-5.697-8.329-10.751-9.063l-8.464-1.229-3.785-7.669c-2.26-4.58-6.835-7.425-11.942-7.425-5.106 0-9.683 2.845-11.943 7.424l-3.785 7.67-8.464 1.229c-5.053.734-9.173 4.207-10.751 9.063s-.287 10.088 3.37 13.653l6.125 5.97-1.446 8.429c-.863 5.033 1.167 10.024 5.298 13.026 2.334 1.695 5.065 2.558 7.815 2.558 2.117 0 4.245-.511 6.21-1.544l7.57-3.98 7.569 3.979c4.521 2.378 9.894 1.989 14.024-1.012 4.132-3.002 6.163-7.992 5.3-13.027l-1.445-8.429 6.124-5.971c3.657-3.564 4.949-8.795 3.371-13.652zm-20.597 9.497c-3.14 3.06-4.572 7.467-3.831 11.79l1.019 5.941-5.337-2.806c-1.939-1.02-4.067-1.529-6.195-1.529s-4.257.51-6.199 1.529l-5.335 2.806 1.019-5.941c.741-4.32-.69-8.727-3.831-11.789l-4.317-4.207 5.966-.867c4.337-.63 8.086-3.354 10.027-7.285l2.668-5.406 2.669 5.407c1.94 3.931 5.689 6.654 10.027 7.284l5.965.866z"/><path d="m207.173 115.328c-1.578-4.856-5.697-8.329-10.751-9.063l-8.463-1.229-3.785-7.669c-2.259-4.58-6.835-7.425-11.942-7.425-5.106 0-9.683 2.845-11.943 7.424l-3.785 7.67-8.464 1.229c-5.053.734-9.172 4.207-10.75 9.063s-.287 10.088 3.37 13.652l6.125 5.971-1.446 8.43c-.863 5.033 1.167 10.024 5.299 13.025 2.334 1.696 5.065 2.558 7.815 2.558 2.117 0 4.244-.511 6.21-1.544l7.57-3.98 7.57 3.98c4.52 2.375 9.895 1.988 14.025-1.014 4.131-3.001 6.162-7.992 5.299-13.025l-1.446-8.43 6.125-5.971c3.654-3.564 4.945-8.795 3.367-13.652zm-20.597 9.498c-3.14 3.061-4.572 7.468-3.831 11.788l1.019 5.942-5.337-2.806c-1.94-1.02-4.067-1.529-6.196-1.529-2.128 0-4.257.51-6.198 1.529l-5.336 2.806 1.019-5.941c.741-4.321-.69-8.729-3.83-11.788l-4.317-4.208 5.966-.867c4.338-.63 8.086-3.354 10.028-7.285l2.668-5.406 2.668 5.405c1.94 3.932 5.688 6.656 10.028 7.286l5.965.867z"/><path d="m123.609 115.328c-1.578-4.856-5.697-8.329-10.751-9.063l-8.464-1.229-3.785-7.67c-2.26-4.579-6.837-7.424-11.943-7.424s-9.683 2.845-11.942 7.424l-3.785 7.67-8.464 1.229c-5.053.734-9.172 4.207-10.75 9.063-1.579 4.856-.288 10.088 3.37 13.653l6.125 5.97-1.446 8.429c-.863 5.033 1.167 10.024 5.298 13.026 2.334 1.696 5.066 2.558 7.816 2.558 2.117 0 4.244-.511 6.21-1.544l7.57-3.98 7.57 3.98c4.52 2.375 9.894 1.988 14.025-1.014 4.131-3.001 6.162-7.992 5.299-13.026l-1.446-8.429 6.125-5.971c3.655-3.564 4.947-8.795 3.368-13.652zm-20.598 9.499c-3.138 3.061-4.57 7.466-3.83 11.788l1.02 5.941-5.337-2.806c-3.879-2.038-8.512-2.039-12.394 0l-5.336 2.806 1.019-5.941c.741-4.32-.69-8.727-3.831-11.789l-4.317-4.207 5.966-.867c4.339-.63 8.087-3.354 10.027-7.285l2.668-5.406 2.668 5.407c1.941 3.931 5.689 6.653 10.027 7.284l5.966.867z"/><path d="m375.302 115.328c-1.578-4.856-5.698-8.329-10.752-9.063l-8.463-1.229-3.785-7.669c-2.26-4.579-6.835-7.425-11.941-7.425-.001 0-.001 0-.001 0-5.106 0-9.683 2.845-11.943 7.423v.002l-3.784 7.669-8.464 1.229c-5.054.734-9.173 4.207-10.751 9.064-1.578 4.856-.287 10.087 3.369 13.652l6.125 5.97-1.445 8.429c-.864 5.033 1.166 10.024 5.297 13.026 4.132 3 9.506 3.39 14.026 1.014l7.569-3.98 7.57 3.98c1.966 1.033 4.094 1.544 6.21 1.544 2.75 0 5.481-.862 7.816-2.558 4.131-3.002 6.161-7.993 5.298-13.025l-1.446-8.431 6.125-5.97c3.656-3.564 4.948-8.795 3.37-13.652zm-20.599 9.499c-3.14 3.062-4.57 7.469-3.829 11.787l1.02 5.942-5.338-2.807c-1.939-1.019-4.067-1.528-6.195-1.528s-4.257.51-6.198 1.529l-5.335 2.806 1.02-5.943c.74-4.319-.692-8.726-3.831-11.787l-4.317-4.207 5.967-.867c4.338-.631 8.086-3.354 10.027-7.286l2.668-5.405 2.669 5.407c1.94 3.931 5.688 6.654 10.026 7.284l5.966.867z"/><path d="m398.476 134.95-1.445 8.43c-.864 5.033 1.166 10.024 5.297 13.026 4.132 3 9.506 3.39 14.026 1.014l7.569-3.98 7.57 3.98c1.966 1.033 4.094 1.544 6.21 1.544 2.75 0 5.481-.862 7.816-2.558 4.131-3.002 6.161-7.993 5.298-13.025l-1.446-8.431 6.125-5.97c3.656-3.564 4.948-8.796 3.37-13.652s-5.698-8.329-10.752-9.063l-8.464-1.229-3.784-7.671c-2.261-4.579-6.838-7.423-11.944-7.423s-9.682 2.846-11.941 7.425l-3.785 7.669-8.463 1.229c-5.054.734-9.174 4.207-10.752 9.063s-.286 10.088 3.37 13.653zm12.753-15.198c4.34-.631 8.088-3.354 10.026-7.285l2.668-5.406 2.669 5.407c1.94 3.931 5.688 6.653 10.027 7.284l5.966.867-4.318 4.208c-3.14 3.062-4.57 7.469-3.829 11.787l1.02 5.942-5.338-2.807c-3.879-2.037-8.511-2.038-12.394.001l-5.336 2.806 1.019-5.939c.742-4.321-.688-8.729-3.829-11.791l-4.317-4.207z"/></g></svg>