<svg id="Layer_1" enable-background="new 0 0 128 128" height="512" viewBox="0 0 128 128" width="512" xmlns="http://www.w3.org/2000/svg" xmlns:xlink="http://www.w3.org/1999/xlink"><linearGradient id="SVGID_1_" gradientTransform="matrix(1 0 0 -1 0 127.89)" gradientUnits="userSpaceOnUse" x1="112.793" x2="15.111" y1="-7.71" y2="89.972"><stop offset="0" stop-color="#78048c"/><stop offset="1" stop-color="#ca0e4e"/></linearGradient><path d="m60.9 49 .7-4.7c.1-1 1-1.6 2-1.5s1.6 1 1.5 2v.1l-.7 4.7 1.9-.1c1 0 1.7.8 1.7 1.7s-.8 1.7-1.7 1.7h-2c-2.1 0-3.8-1.8-3.4-3.9zm14.2-4.9c2.3 0 4.2-1.9 4.2-4.2s-1.9-4.2-4.2-4.2-4.2 1.9-4.2 4.2c0 2.3 1.9 4.2 4.2 4.2zm-19 13.2c-.7.6-.9 1.7-.2 2.5 2.1 2.2 5 3.5 8.1 3.4 3 .1 6-1.1 8.1-3.4.6-.8.5-1.9-.3-2.5-.7-.6-1.8-.5-2.4.2-1.4 1.4-3.4 2.2-5.4 2.1-2 .1-4-.7-5.4-2.1-.7-.7-1.8-.8-2.5-.2zm-3.2-13.2c2.3 0 4.2-1.9 4.2-4.2s-1.9-4.2-4.2-4.2-4.2 1.9-4.2 4.2c.1 2.3 1.9 4.2 4.2 4.2zm33.1 50.1c-.9-.4-1.9.1-2.3 1l-.5 1.3c-.4.9.1 1.9 1 2.3s1.9-.1 2.3-1l.5-1.3c.4-1-.1-2-1-2.3zm35.5 16.5v15.5c0 1-.8 1.7-1.7 1.7h-111.6c-1 0-1.7-.8-1.7-1.7v-15.5c0-10.9 7.3-20.5 17.9-23.4 6.8-1.6 10.8-1.5 17.4-2 .9-.1 2.9-.1 4.5-1.6 1-.9 1.6-2.1 1.9-3.3l1-7.5c-3.1-2.5-5.6-5.8-7.1-9.5-1-2.8-1.8-5.7-2.3-8.6h-8c-3.7 0-6.7-3-6.7-6.7v-6.8c0-3.7 3-6.7 6.7-6.7h5.4v-7.6c0-14.6 11.7-26.6 26.3-26.9 15.2-.3 27.3 12.5 27.4 27.5v6.9h5.4c3.7 0 6.7 3 6.7 6.7v6.8c0 3.7-3 6.7-6.7 6.7h-.5v12.9c0 .7-.4 1.3-1 1.6l-6.1 2.9c-.9.4-1.9.1-2.3-.8s-.1-1.9.8-2.3c.1 0 5.3-2.5 5.2-2.4v-11.9h-4c-.5 2.9-1.2 5.8-2.3 8.6-1.5 3.7-4 7-7.1 9.6 0 0 .7 5.7 1 7.6.1 1 .7 2.6 1.6 3.2 1.3.9 2.9 1.4 4.5 1.6 8.6 1 11.6.6 17.6 2 10.5 2.9 17.8 12.4 17.8 23.4zm-25.2-72.8h-5.4c0 1.4.2 3.8-.5 7.2l-1.4 6.1h7.3c1.8 0 3.2-1.5 3.2-3.2v-6.8c0-1.8-1.4-3.3-3.2-3.3zm-64.6 13.3h7.3l-1.3-6.1c-.7-3.5-.5-5.9-.5-7.2h-5.4c-1.8 0-3.2 1.5-3.2 3.2v6.8c-.1 1.8 1.3 3.3 3.1 3.3zm51.1 10.8c1.7-4.6 4.1-17.6 4.1-17.6.6-3 .4-5 .5-6.5h-1.5c-3.1 0-5.7-2.1-6.5-5l-2.9-11.2c-2.3 1.3-6.3 2.9-12.4 2.9-2.1 0-4.3-.2-6.4-.6-.9-.2-1.5-1.1-1.3-2.1.2-.9 1.1-1.5 2.1-1.3 1.9.4 3.7.6 5.6.6 8.6 0 12.2-3.4 12.2-3.5 1-1 2.6-.5 2.9.8l3.5 13.5c.4 1.4 1.7 2.4 3.1 2.4h1.5v-6.9c-.1-13-10.6-24.2-23.8-24-12.7.4-22.8 10.8-22.9 23.5v7.4h.7c1.4 0 2.7-.9 3.1-2.3l4.4-13.8c.3-.9 1.3-1.4 2.2-1.1s1.4 1.3 1.1 2.2l-4.4 13.8c-.9 2.8-3.5 4.7-6.4 4.7h-.7c0 1.4-.2 3.5.5 6.5 0 0 3.2 15 4.1 17.6 6.9 16.8 30.8 16.7 37.6 0zm-30.5 13-.7 5.8c-.1.8-.7 2.4-1.6 3.8l14 10.7 13.9-10.6c-.4-.7-1.2-2.3-1.5-3.9l-.7-5.8c-7.3 4.1-16.1 4.1-23.4 0zm-10.6 13.7 6.1 15.4 13-6.9c-.8-.6.1.1-13.3-10.2-2.7 1.9-5.2 1.7-5.8 1.7zm76.3 22c0-9.4-6.3-17.6-15.3-20-3.5-.8-6.3-1.1-12.8-1.5l-.5 1.3c-.4.9-1.4 1.3-2.3 1-.9-.4-1.3-1.4-1-2.3l.1-.4c-2-.2-3.8-.6-5.7-1.6l-13.3 10.1 13 6.9.7-1.7c.4-.9 1.4-1.3 2.3-1 .9.4 1.3 1.4 1 2.3l-1.4 3.5c-.4 1-1.5 1.4-2.4.9l-14.6-7.7v7c0 1-.8 1.7-1.7 1.7s-1.7-.8-1.7-1.7v-7l-14.6 7.7c-.9.5-2.1.1-2.4-.9l-7.3-18.3c-3.5.3-7.1.2-12.8 1.6-9 2.5-15.3 10.7-15.3 20v13.7h108zm-54 1.9c-1 0-1.7.8-1.7 1.7v4.7c0 1 .8 1.7 1.7 1.7s1.7-.8 1.7-1.7v-4.7c0-1-.7-1.7-1.7-1.7z" fill="url(#SVGID_1_)"/></svg>