<svg version="1.2" xmlns="http://www.w3.org/2000/svg" viewBox="0 0 1000 1000" width="250" height="250"><style>.a{fill:#c6ff00}.b{opacity:.6;fill:#fff}.c{fill:#fff;stroke:#263238;stroke-width:2}.d{fill:#c6ff00;stroke:#263238;stroke-linecap:round;stroke-linejoin:round;stroke-width:2}.e{fill:#fff}.f{opacity:.5;fill:#fff}.g{fill:none;stroke:#263238;stroke-linecap:round;stroke-linejoin:round;stroke-width:2}.h{opacity:.3}.i{fill:none;stroke:#263238;stroke-linecap:round;stroke-linejoin:round;stroke-width:2;stroke-dasharray:4,10}.j{fill:#263238}.k{fill:none;stroke:#fff;stroke-linecap:round;stroke-linejoin:round}.l{fill:none;stroke:#263238;stroke-linecap:round;stroke-linejoin:round;stroke-width:4}.m{fill:none;stroke:#263238;stroke-linecap:round;stroke-width:2}.n{fill:#fff;stroke:#263238;stroke-linecap:round;stroke-linejoin:round;stroke-width:2}</style><path class="a" d="m232.6 477c0 0-54.2-229.5 146.4-296.4 175.6-58.5 253.2 133.9 253.2 133.9 0 0 86.8-50.4 154.8 8.1 64.4 55.4 20.9 148.6 20.9 148.6 194.4-11.3 133.6 220.9 134 215.3 0.5-7-889.2-0.4-889.3 0-2.9-224.6 180-209.5 180-209.5z"/><path class="b" d="m232.6 477c0 0-54.2-229.5 146.4-296.4 175.6-58.5 253.2 133.9 253.2 133.9 0 0 86.8-50.4 154.8 8.1 64.4 55.4 20.9 148.6 20.9 148.6 194.4-11.3 133.6 220.9 134 215.3 0.5-7-889.2-0.4-889.3 0-2.9-224.6 180-209.5 180-209.5z"/><path fill-rule="evenodd" class="a" d="m290.7 272.9l-73.2-12.2 6.8-48.3 74.1 10.3zm-62.6-58l29.6 26.6 36.2-17.4zm61 55.8l6.9-45.5-38.7 18.6-31.4-28.4-6.2 43.7z"/><path fill-rule="evenodd" class="b" d="m290.7 272.9l-73.2-12.2 6.8-48.3 74.1 10.3zm-62.6-58l29.6 26.6 36.2-17.4zm61 55.8l6.9-45.5-38.7 18.6-31.4-28.4-6.2 43.7z"/><path fill-rule="evenodd" class="a" d="m744.1 270.6l-64.1 54.7-0.6-0.8-78.4-94.3 60.9-53.3zm-63.9 52l60.5-51.6-70.6-19.1-9-71.7-57.4 50.2zm-17.1-141.2l8.7 69 68 18.4z"/><path fill-rule="evenodd" class="b" d="m744.1 270.6l-64.1 54.7-0.6-0.8-78.4-94.3 60.9-53.3zm-63.9 52l60.5-51.6-70.6-19.1-9-71.7-57.4 50.2zm-17.1-141.2l8.7 69 68 18.4z"/><path class="a" d="m121.1 452.3q0 0 0 0c-0.6-0.1-1-0.5-1-1q0.1-2 0.1-3.9c0-0.5 0.4-0.9 1-0.9 0.5 0 1 0.4 0.9 0.9q0 2 0 3.9c-0.1 0.5-0.5 1-1 1zm0.4-13.6q0 0 0 0c-0.6 0-1-0.5-1-1q0.1-1.9 0.2-3.9c0.1-0.5 0.5-0.9 1-0.9 0.6 0.1 1 0.5 1 1q-0.1 2-0.2 3.9c-0.1 0.5-0.5 0.9-1 0.9zm0.8-13.5q-0.1 0-0.1 0c-0.5 0-0.9-0.5-0.9-1q0.1-2 0.3-3.9c0-0.5 0.5-0.9 1-0.9 0.6 0.1 1 0.5 0.9 1.1q-0.1 1.9-0.3 3.8c0 0.5-0.4 0.9-0.9 0.9zm1.1-13.5q0 0-0.1 0c-0.5 0-0.9-0.5-0.9-1q0.2-2 0.4-3.9c0.1-0.5 0.6-0.9 1.1-0.9 0.5 0.1 0.9 0.6 0.9 1.1q-0.2 1.9-0.4 3.9c-0.1 0.5-0.5 0.8-1 0.8zm1.5-13.4q0 0-0.1 0c-0.5-0.1-0.9-0.6-0.8-1.1q0.2-1.9 0.5-3.9c0-0.5 0.5-0.9 1.1-0.8 0.5 0.1 0.9 0.6 0.8 1.1q-0.3 1.9-0.5 3.8c-0.1 0.5-0.5 0.9-1 0.9zm1.9-13.4q0 0-0.1 0c-0.5-0.1-0.9-0.6-0.8-1.1q0.3-2 0.6-3.9c0.1-0.5 0.6-0.9 1.1-0.8 0.5 0.1 0.9 0.6 0.8 1.2q-0.3 1.9-0.6 3.8c-0.1 0.4-0.5 0.8-1 0.8zm2.4-13.4q-0.1 0-0.2 0c-0.6-0.1-0.9-0.6-0.8-1.1q0.4-1.9 0.7-3.8c0.1-0.5 0.7-0.9 1.2-0.8 0.5 0.1 0.8 0.6 0.7 1.2q-0.3 1.9-0.7 3.8c-0.1 0.4-0.5 0.7-0.9 0.7zm2.7-13.2q-0.1 0-0.2 0c-0.5-0.2-0.9-0.7-0.7-1.2q0.4-1.9 0.8-3.8c0.1-0.5 0.7-0.8 1.2-0.7 0.5 0.1 0.8 0.7 0.7 1.2q-0.4 1.9-0.9 3.7c-0.1 0.5-0.5 0.8-0.9 0.8zm3.2-13.2q-0.1 0-0.3 0c-0.5-0.1-0.8-0.7-0.6-1.2q0.4-1.8 0.9-3.7c0.2-0.5 0.7-0.8 1.2-0.7 0.5 0.1 0.9 0.7 0.7 1.2q-0.5 1.8-1 3.7c-0.1 0.5-0.5 0.7-0.9 0.7zm3.6-13q-0.1 0-0.2 0c-0.6-0.2-0.8-0.7-0.7-1.2q0.6-1.9 1.1-3.7c0.2-0.6 0.7-0.8 1.2-0.7 0.6 0.2 0.8 0.7 0.7 1.2q-0.6 1.9-1.1 3.7c-0.2 0.4-0.6 0.7-1 0.7zm4.1-12.9q-0.1 0-0.3 0c-0.5-0.2-0.7-0.8-0.6-1.3q0.7-1.8 1.3-3.6c0.2-0.5 0.7-0.8 1.2-0.6 0.5 0.2 0.8 0.7 0.6 1.2q-0.6 1.8-1.2 3.7c-0.2 0.4-0.5 0.6-1 0.6zm4.6-12.7q-0.1 0-0.3-0.1c-0.5-0.2-0.7-0.7-0.6-1.2q0.7-1.8 1.5-3.6c0.1-0.5 0.7-0.8 1.2-0.6 0.5 0.2 0.7 0.8 0.5 1.3q-0.7 1.8-1.3 3.6c-0.2 0.3-0.6 0.6-1 0.6zm5.1-12.6q-0.2 0-0.3 0c-0.5-0.3-0.8-0.8-0.6-1.3q0.8-1.8 1.6-3.6c0.2-0.5 0.8-0.7 1.3-0.5 0.5 0.3 0.7 0.8 0.5 1.3q-0.8 1.8-1.6 3.6c-0.1 0.3-0.5 0.5-0.9 0.5zm5.6-12.3q-0.2 0-0.4-0.1c-0.5-0.2-0.7-0.8-0.4-1.3q0.8-1.7 1.7-3.5c0.2-0.4 0.8-0.6 1.3-0.4 0.4 0.2 0.6 0.8 0.4 1.3q-0.9 1.7-1.7 3.5c-0.2 0.3-0.5 0.5-0.9 0.5zm6.1-12.1q-0.2 0-0.4-0.1c-0.5-0.2-0.7-0.8-0.4-1.3q0.9-1.7 1.8-3.4c0.3-0.5 0.9-0.7 1.3-0.4 0.5 0.3 0.7 0.8 0.4 1.3q-0.9 1.7-1.8 3.4c-0.2 0.3-0.5 0.5-0.9 0.5zm6.7-11.8q-0.3 0-0.5-0.1c-0.5-0.3-0.6-0.9-0.4-1.3q1-1.7 2-3.4c0.3-0.4 0.9-0.6 1.4-0.3 0.4 0.3 0.6 0.9 0.3 1.3q-1 1.7-2 3.3c-0.2 0.3-0.5 0.5-0.8 0.5zm7.1-11.5q-0.2 0-0.5-0.1c-0.4-0.3-0.6-0.9-0.3-1.4q1.1-1.6 2.2-3.2c0.3-0.4 0.9-0.6 1.3-0.3 0.5 0.3 0.6 0.9 0.3 1.4q-1.1 1.6-2.2 3.2c-0.1 0.3-0.4 0.4-0.8 0.4zm7.8-11.1q-0.3 0-0.6-0.2c-0.4-0.3-0.5-0.9-0.2-1.3q1.1-1.6 2.3-3.2c0.3-0.4 0.9-0.5 1.3-0.2 0.5 0.4 0.5 1 0.2 1.4q-1.1 1.5-2.3 3.1c-0.2 0.3-0.4 0.4-0.7 0.4zm8.2-10.8q-0.3 0-0.6-0.2c-0.4-0.3-0.5-0.9-0.2-1.3q1.2-1.5 2.5-3c0.3-0.5 0.9-0.5 1.3-0.2 0.5 0.4 0.5 1 0.2 1.4q-1.3 1.5-2.5 3c-0.2 0.2-0.4 0.3-0.7 0.3zm8.7-10.3q-0.3 0-0.6-0.3c-0.4-0.3-0.5-0.9-0.1-1.3q1.3-1.5 2.6-2.9c0.3-0.4 0.9-0.4 1.3-0.1 0.4 0.4 0.5 1 0.1 1.4q-1.3 1.4-2.6 2.9c-0.2 0.2-0.4 0.3-0.7 0.3zm423.5-3.2q-0.2 0-0.3-0.1-1.8-0.7-3.6-1.4c-0.5-0.2-0.7-0.8-0.5-1.3 0.2-0.5 0.7-0.7 1.2-0.5q1.8 0.7 3.6 1.5c0.5 0.2 0.7 0.7 0.5 1.2-0.1 0.4-0.5 0.6-0.9 0.6zm-12.5-5.2q-0.2 0-0.3 0l-3.6-1.6c-0.5-0.2-0.7-0.7-0.5-1.2 0.2-0.5 0.8-0.8 1.3-0.5l3.5 1.5c0.5 0.2 0.7 0.7 0.5 1.2-0.1 0.4-0.5 0.6-0.9 0.6zm-401.8-1.5q-0.4 0-0.7-0.3c-0.3-0.4-0.4-1 0-1.4q1.4-1.4 2.7-2.7c0.4-0.4 1-0.4 1.4 0 0.4 0.3 0.4 1 0 1.3q-1.3 1.4-2.7 2.8-0.3 0.3-0.7 0.3zm389.4-3.8q-0.2 0-0.4-0.1l-3.5-1.6c-0.5-0.2-0.7-0.8-0.5-1.3 0.2-0.5 0.8-0.7 1.3-0.5l3.5 1.6c0.5 0.2 0.7 0.8 0.5 1.3-0.2 0.3-0.5 0.6-0.9 0.6zm-12.4-5.6q-0.2 0-0.4-0.1l-3.5-1.5c-0.5-0.3-0.7-0.8-0.5-1.3 0.3-0.5 0.8-0.7 1.3-0.5l3.5 1.6c0.5 0.2 0.7 0.8 0.5 1.3-0.1 0.3-0.5 0.5-0.9 0.5zm-367.3-0.1c-0.3 0-0.5-0.1-0.7-0.3-0.4-0.4-0.4-1 0-1.4q1.4-1.3 2.9-2.6c0.4-0.4 1-0.3 1.3 0.1 0.4 0.4 0.4 1 0 1.3q-1.4 1.3-2.9 2.6-0.2 0.3-0.6 0.3zm355-5.5q-0.2 0-0.4-0.1l-3.5-1.6c-0.5-0.2-0.7-0.8-0.5-1.2 0.2-0.5 0.8-0.7 1.3-0.5l3.5 1.6c0.5 0.2 0.7 0.8 0.5 1.3-0.2 0.3-0.5 0.5-0.9 0.5zm-344.9-3.5c-0.3 0-0.5-0.1-0.7-0.3-0.4-0.4-0.3-1 0.1-1.4q1.5-1.2 3-2.5c0.4-0.3 1-0.2 1.3 0.2 0.4 0.4 0.3 1-0.1 1.3q-1.5 1.2-3 2.5-0.3 0.2-0.6 0.2zm332.6-2.1q-0.2 0-0.4-0.1l-3.5-1.6c-0.5-0.2-0.7-0.8-0.5-1.3 0.2-0.5 0.8-0.7 1.3-0.5l3.5 1.6c0.5 0.3 0.7 0.8 0.5 1.3-0.2 0.4-0.5 0.6-0.9 0.6zm-12.3-5.6q-0.2 0-0.4-0.1l-3.5-1.6c-0.5-0.3-0.7-0.8-0.5-1.3 0.2-0.5 0.8-0.7 1.3-0.5l3.5 1.6c0.5 0.2 0.7 0.8 0.5 1.3-0.2 0.3-0.5 0.6-0.9 0.6zm-309.7-0.7c-0.3 0-0.6-0.2-0.8-0.4-0.3-0.5-0.3-1.1 0.2-1.4q1.5-1.2 3.1-2.3c0.4-0.3 1-0.2 1.3 0.2 0.3 0.4 0.3 1-0.2 1.3q-1.5 1.2-3.1 2.4-0.2 0.2-0.5 0.2zm297.4-4.9q-0.2 0-0.4-0.1l-3.6-1.6c-0.5-0.2-0.7-0.8-0.5-1.3 0.3-0.4 0.8-0.7 1.3-0.4l3.6 1.5c0.4 0.3 0.7 0.8 0.4 1.3-0.1 0.4-0.5 0.6-0.8 0.6zm-286.5-3.1c-0.3 0-0.6-0.1-0.8-0.4-0.3-0.4-0.2-1 0.3-1.3q1.6-1.1 3.2-2.2c0.4-0.3 1-0.2 1.3 0.3 0.3 0.4 0.2 1-0.2 1.3q-1.6 1.1-3.2 2.2-0.3 0.1-0.6 0.1zm274.1-2.4q-0.2 0-0.4-0.1l-3.6-1.5c-0.4-0.2-0.7-0.8-0.5-1.3 0.2-0.4 0.8-0.7 1.3-0.5l3.6 1.6c0.5 0.2 0.7 0.7 0.5 1.2-0.2 0.4-0.6 0.6-0.9 0.6zm-262.7-4.9c-0.3 0-0.6-0.1-0.8-0.5-0.3-0.4-0.2-1 0.3-1.3q1.7-1 3.3-2c0.5-0.2 1.1-0.1 1.4 0.4 0.2 0.4 0.1 1-0.4 1.3q-1.7 1-3.3 2-0.2 0.1-0.5 0.1zm250.2-0.4q-0.2 0-0.4 0-1.7-0.8-3.5-1.5c-0.5-0.2-0.8-0.8-0.6-1.3 0.2-0.5 0.8-0.7 1.3-0.5q1.8 0.7 3.6 1.5c0.5 0.2 0.7 0.7 0.5 1.2-0.1 0.4-0.5 0.6-0.9 0.6zm-12.5-5q-0.2 0-0.4-0.1-1.8-0.7-3.6-1.4c-0.5-0.2-0.7-0.8-0.5-1.2 0.2-0.5 0.7-0.8 1.2-0.6q1.8 0.7 3.6 1.4c0.5 0.2 0.8 0.8 0.6 1.3-0.2 0.3-0.5 0.6-0.9 0.6zm-225.9-1.3c-0.4 0-0.7-0.2-0.9-0.5-0.3-0.5-0.1-1 0.4-1.3q1.7-0.9 3.4-1.8c0.5-0.2 1.1-0.1 1.3 0.4 0.3 0.5 0.1 1.1-0.4 1.3q-1.7 0.9-3.4 1.8-0.2 0.1-0.4 0.1zm213.2-3.5q-0.2 0-0.3-0.1-1.8-0.7-3.7-1.3c-0.5-0.2-0.7-0.7-0.5-1.2 0.1-0.5 0.7-0.8 1.2-0.6q1.8 0.6 3.6 1.3c0.5 0.2 0.8 0.7 0.6 1.2-0.1 0.4-0.5 0.7-0.9 0.7zm-201.1-2.5c-0.4 0-0.8-0.2-0.9-0.6-0.2-0.5 0-1 0.5-1.3q1.7-0.8 3.5-1.6c0.5-0.2 1.1 0.1 1.3 0.5 0.2 0.5 0 1.1-0.5 1.3q-1.8 0.8-3.5 1.6-0.2 0.1-0.4 0.1zm188.3-2q-0.1 0-0.3-0.1-1.8-0.6-3.6-1.2c-0.5-0.2-0.8-0.7-0.7-1.2 0.2-0.5 0.8-0.8 1.3-0.6q1.8 0.6 3.6 1.2c0.5 0.2 0.8 0.7 0.7 1.2-0.2 0.4-0.6 0.7-1 0.7zm-175.9-3.3c-0.4 0-0.7-0.3-0.9-0.6-0.2-0.5 0.1-1.1 0.6-1.3q1.8-0.7 3.6-1.4c0.5-0.2 1 0.1 1.2 0.6 0.2 0.5 0 1.1-0.5 1.2q-1.9 0.7-3.6 1.4-0.2 0.1-0.4 0.1zm163-0.9q-0.1 0-0.2 0-1.9-0.6-3.7-1.1c-0.6-0.1-0.8-0.7-0.7-1.2 0.2-0.5 0.7-0.8 1.2-0.7q1.9 0.6 3.7 1.2c0.5 0.1 0.8 0.6 0.7 1.2-0.2 0.4-0.5 0.6-1 0.6zm-13-3.7q-0.1 0-0.2 0-1.9-0.5-3.8-1c-0.5-0.1-0.8-0.6-0.7-1.1 0.2-0.6 0.7-0.9 1.2-0.7q1.9 0.4 3.8 0.9c0.5 0.2 0.8 0.7 0.7 1.2-0.2 0.4-0.6 0.7-1 0.7zm-137.3 0c-0.4 0-0.7-0.2-0.9-0.6-0.1-0.6 0.1-1.1 0.6-1.3q1.9-0.6 3.8-1.1c0.5-0.2 1 0.1 1.2 0.6 0.1 0.5-0.2 1.1-0.7 1.2q-1.8 0.6-3.7 1.2-0.1 0-0.3 0zm124.2-3.2q-0.1 0-0.2 0-1.9-0.5-3.8-0.9c-0.5-0.1-0.9-0.6-0.8-1.1 0.2-0.5 0.7-0.9 1.2-0.7q1.9 0.4 3.8 0.8c0.5 0.1 0.8 0.6 0.7 1.1-0.1 0.5-0.5 0.8-0.9 0.8zm-111.2-0.5c-0.4 0-0.8-0.3-0.9-0.8-0.1-0.5 0.2-1 0.7-1.1q1.9-0.5 3.8-1c0.5-0.1 1 0.2 1.1 0.7 0.2 0.6-0.2 1.1-0.7 1.2q-1.8 0.5-3.7 0.9-0.1 0.1-0.3 0.1zm97.9-2.2q-0.1 0-0.2 0-1.9-0.4-3.8-0.7c-0.5-0.1-0.9-0.6-0.8-1.1 0.1-0.5 0.6-0.9 1.1-0.8q2 0.3 3.9 0.7c0.5 0.1 0.8 0.6 0.8 1.1-0.1 0.5-0.5 0.8-1 0.8zm-84.6-0.8c-0.5 0-0.9-0.3-1-0.8-0.1-0.5 0.3-1 0.8-1.1q1.9-0.3 3.8-0.7c0.6 0 1 0.3 1.1 0.8 0.1 0.6-0.2 1.1-0.8 1.1q-1.9 0.4-3.8 0.7 0 0-0.1 0zm71.2-1.3q0 0-0.1 0-1.9-0.3-3.8-0.5c-0.6 0-0.9-0.5-0.9-1.1 0.1-0.5 0.6-0.9 1.1-0.8q1.9 0.2 3.9 0.5c0.5 0 0.9 0.5 0.8 1.1-0.1 0.4-0.5 0.8-1 0.8zm-57.8-0.7c-0.5 0-0.9-0.4-1-0.9-0.1-0.5 0.3-1 0.8-1q2-0.3 3.9-0.5c0.6 0 1 0.4 1.1 0.9 0 0.5-0.4 1-0.9 1.1q-1.9 0.1-3.8 0.4-0.1 0-0.1 0zm44.4-0.7q-0.1 0-0.1 0-1.9-0.2-3.9-0.3c-0.5 0-0.9-0.5-0.9-1 0.1-0.6 0.5-1 1.1-0.9q1.9 0.1 3.8 0.2c0.6 0.1 1 0.5 0.9 1.1 0 0.5-0.4 0.9-0.9 0.9zm-30.9-0.5c-0.6 0-1-0.4-1-0.9 0-0.5 0.4-1 0.9-1q1.9-0.1 3.9-0.2c0.5 0 1 0.4 1 0.9 0 0.6-0.4 1-0.9 1q-2 0.1-3.9 0.2 0 0 0 0zm17.4-0.2q-0.1 0-0.1 0-1.9-0.1-3.8-0.1c-0.6 0-1-0.4-1-1 0-0.5 0.5-0.9 1-0.9q0 0 0 0 1.9 0 3.9 0c0.5 0 0.9 0.5 0.9 1 0 0.5-0.4 1-0.9 1z"/><path class="b" d="m121.1 452.3q0 0 0 0c-0.6-0.1-1-0.5-1-1q0.1-2 0.1-3.9c0-0.5 0.4-0.9 1-0.9 0.5 0 1 0.4 0.9 0.9q0 2 0 3.9c-0.1 0.5-0.5 1-1 1zm0.4-13.6q0 0 0 0c-0.6 0-1-0.5-1-1q0.1-1.9 0.2-3.9c0.1-0.5 0.5-0.9 1-0.9 0.6 0.1 1 0.5 1 1q-0.1 2-0.2 3.9c-0.1 0.5-0.5 0.9-1 0.9zm0.8-13.5q-0.1 0-0.1 0c-0.5 0-0.9-0.5-0.9-1q0.1-2 0.3-3.9c0-0.5 0.5-0.9 1-0.9 0.6 0.1 1 0.5 0.9 1.1q-0.1 1.9-0.3 3.8c0 0.5-0.4 0.9-0.9 0.9zm1.1-13.5q0 0-0.1 0c-0.5 0-0.9-0.5-0.9-1q0.2-2 0.4-3.9c0.1-0.5 0.6-0.9 1.1-0.9 0.5 0.1 0.9 0.6 0.9 1.1q-0.2 1.9-0.4 3.9c-0.1 0.5-0.5 0.8-1 0.8zm1.5-13.4q0 0-0.1 0c-0.5-0.1-0.9-0.6-0.8-1.1q0.2-1.9 0.5-3.9c0-0.5 0.5-0.9 1.1-0.8 0.5 0.1 0.9 0.6 0.8 1.1q-0.3 1.9-0.5 3.8c-0.1 0.5-0.5 0.9-1 0.9zm1.9-13.4q0 0-0.1 0c-0.5-0.1-0.9-0.6-0.8-1.1q0.3-2 0.6-3.9c0.1-0.5 0.6-0.9 1.1-0.8 0.5 0.1 0.9 0.6 0.8 1.2q-0.3 1.9-0.6 3.8c-0.1 0.4-0.5 0.8-1 0.8zm2.4-13.4q-0.1 0-0.2 0c-0.6-0.1-0.9-0.6-0.8-1.1q0.4-1.9 0.7-3.8c0.1-0.5 0.7-0.9 1.2-0.8 0.5 0.1 0.8 0.6 0.7 1.2q-0.3 1.9-0.7 3.8c-0.1 0.4-0.5 0.7-0.9 0.7zm2.7-13.2q-0.1 0-0.2 0c-0.5-0.2-0.9-0.7-0.7-1.2q0.4-1.9 0.8-3.8c0.1-0.5 0.7-0.8 1.2-0.7 0.5 0.1 0.8 0.7 0.7 1.2q-0.4 1.9-0.9 3.7c-0.1 0.5-0.5 0.8-0.9 0.8zm3.2-13.2q-0.1 0-0.3 0c-0.5-0.1-0.8-0.7-0.6-1.2q0.4-1.8 0.9-3.7c0.2-0.5 0.7-0.8 1.2-0.7 0.5 0.1 0.9 0.7 0.7 1.2q-0.5 1.8-1 3.7c-0.1 0.5-0.5 0.7-0.9 0.7zm3.6-13q-0.1 0-0.2 0c-0.6-0.2-0.8-0.7-0.7-1.2q0.6-1.9 1.1-3.7c0.2-0.6 0.7-0.8 1.2-0.7 0.6 0.2 0.8 0.7 0.7 1.2q-0.6 1.9-1.1 3.7c-0.2 0.4-0.6 0.7-1 0.7zm4.1-12.9q-0.1 0-0.3 0c-0.5-0.2-0.7-0.8-0.6-1.3q0.7-1.8 1.3-3.6c0.2-0.5 0.7-0.8 1.2-0.6 0.5 0.2 0.8 0.7 0.6 1.2q-0.6 1.8-1.2 3.7c-0.2 0.4-0.5 0.6-1 0.6zm4.6-12.7q-0.1 0-0.3-0.1c-0.5-0.2-0.7-0.7-0.6-1.2q0.7-1.8 1.5-3.6c0.1-0.5 0.7-0.8 1.2-0.6 0.5 0.2 0.7 0.8 0.5 1.3q-0.7 1.8-1.3 3.6c-0.2 0.3-0.6 0.6-1 0.6zm5.1-12.6q-0.2 0-0.3 0c-0.5-0.3-0.8-0.8-0.6-1.3q0.8-1.8 1.6-3.6c0.2-0.5 0.8-0.7 1.3-0.5 0.5 0.3 0.7 0.8 0.5 1.3q-0.8 1.8-1.6 3.6c-0.1 0.3-0.5 0.5-0.9 0.5zm5.6-12.3q-0.2 0-0.4-0.1c-0.5-0.2-0.7-0.8-0.4-1.3q0.8-1.7 1.7-3.5c0.2-0.4 0.8-0.6 1.3-0.4 0.4 0.2 0.6 0.8 0.4 1.3q-0.9 1.7-1.7 3.5c-0.2 0.3-0.5 0.5-0.9 0.5zm6.1-12.1q-0.2 0-0.4-0.1c-0.5-0.2-0.7-0.8-0.4-1.3q0.9-1.7 1.8-3.4c0.3-0.5 0.9-0.7 1.3-0.4 0.5 0.3 0.7 0.8 0.4 1.3q-0.9 1.7-1.8 3.4c-0.2 0.3-0.5 0.5-0.9 0.5zm6.7-11.8q-0.3 0-0.5-0.1c-0.5-0.3-0.6-0.9-0.4-1.3q1-1.7 2-3.4c0.3-0.4 0.9-0.6 1.4-0.3 0.4 0.3 0.6 0.9 0.3 1.3q-1 1.7-2 3.3c-0.2 0.3-0.5 0.5-0.8 0.5zm7.1-11.5q-0.2 0-0.5-0.1c-0.4-0.3-0.6-0.9-0.3-1.4q1.1-1.6 2.2-3.2c0.3-0.4 0.9-0.6 1.3-0.3 0.5 0.3 0.6 0.9 0.3 1.4q-1.1 1.6-2.2 3.2c-0.1 0.3-0.4 0.4-0.8 0.4zm7.8-11.1q-0.3 0-0.6-0.2c-0.4-0.3-0.5-0.9-0.2-1.3q1.1-1.6 2.3-3.2c0.3-0.4 0.9-0.5 1.3-0.2 0.5 0.4 0.5 1 0.2 1.4q-1.1 1.5-2.3 3.1c-0.2 0.3-0.4 0.4-0.7 0.4zm8.2-10.8q-0.3 0-0.6-0.2c-0.4-0.3-0.5-0.9-0.2-1.3q1.2-1.5 2.5-3c0.3-0.5 0.9-0.5 1.3-0.2 0.5 0.4 0.5 1 0.2 1.4q-1.3 1.5-2.5 3c-0.2 0.2-0.4 0.3-0.7 0.3zm8.7-10.3q-0.3 0-0.6-0.3c-0.4-0.3-0.5-0.9-0.1-1.3q1.3-1.5 2.6-2.9c0.3-0.4 0.9-0.4 1.3-0.1 0.4 0.4 0.5 1 0.1 1.4q-1.3 1.4-2.6 2.9c-0.2 0.2-0.4 0.3-0.7 0.3zm423.5-3.2q-0.2 0-0.3-0.1-1.8-0.7-3.6-1.4c-0.5-0.2-0.7-0.8-0.5-1.3 0.2-0.5 0.7-0.7 1.2-0.5q1.8 0.7 3.6 1.5c0.5 0.2 0.7 0.7 0.5 1.2-0.1 0.4-0.5 0.6-0.9 0.6zm-12.5-5.2q-0.2 0-0.3 0l-3.6-1.6c-0.5-0.2-0.7-0.7-0.5-1.2 0.2-0.5 0.8-0.8 1.3-0.5l3.5 1.5c0.5 0.2 0.7 0.7 0.5 1.2-0.1 0.4-0.5 0.6-0.9 0.6zm-401.8-1.5q-0.4 0-0.7-0.3c-0.3-0.4-0.4-1 0-1.4q1.4-1.4 2.7-2.7c0.4-0.4 1-0.4 1.4 0 0.4 0.3 0.4 1 0 1.3q-1.3 1.4-2.7 2.8-0.3 0.3-0.7 0.3zm389.4-3.8q-0.2 0-0.4-0.1l-3.5-1.6c-0.5-0.2-0.7-0.8-0.5-1.3 0.2-0.5 0.8-0.7 1.3-0.5l3.5 1.6c0.5 0.2 0.7 0.8 0.5 1.3-0.2 0.3-0.5 0.6-0.9 0.6zm-12.4-5.6q-0.2 0-0.4-0.1l-3.5-1.5c-0.5-0.3-0.7-0.8-0.5-1.3 0.3-0.5 0.8-0.7 1.3-0.5l3.5 1.6c0.5 0.2 0.7 0.8 0.5 1.3-0.1 0.3-0.5 0.5-0.9 0.5zm-367.3-0.1c-0.3 0-0.5-0.1-0.7-0.3-0.4-0.4-0.4-1 0-1.4q1.4-1.3 2.9-2.6c0.4-0.4 1-0.3 1.3 0.1 0.4 0.4 0.4 1 0 1.3q-1.4 1.3-2.9 2.6-0.2 0.3-0.6 0.3zm355-5.5q-0.2 0-0.4-0.1l-3.5-1.6c-0.5-0.2-0.7-0.8-0.5-1.2 0.2-0.5 0.8-0.7 1.3-0.5l3.5 1.6c0.5 0.2 0.7 0.8 0.5 1.3-0.2 0.3-0.5 0.5-0.9 0.5zm-344.9-3.5c-0.3 0-0.5-0.1-0.7-0.3-0.4-0.4-0.3-1 0.1-1.4q1.5-1.2 3-2.5c0.4-0.3 1-0.2 1.3 0.2 0.4 0.4 0.3 1-0.1 1.3q-1.5 1.2-3 2.5-0.3 0.2-0.6 0.2zm332.6-2.1q-0.2 0-0.4-0.1l-3.5-1.6c-0.5-0.2-0.7-0.8-0.5-1.3 0.2-0.5 0.8-0.7 1.3-0.5l3.5 1.6c0.5 0.3 0.7 0.8 0.5 1.3-0.2 0.4-0.5 0.6-0.9 0.6zm-12.3-5.6q-0.2 0-0.4-0.1l-3.5-1.6c-0.5-0.3-0.7-0.8-0.5-1.3 0.2-0.5 0.8-0.7 1.3-0.5l3.5 1.6c0.5 0.2 0.7 0.8 0.5 1.3-0.2 0.3-0.5 0.6-0.9 0.6zm-309.7-0.7c-0.3 0-0.6-0.2-0.8-0.4-0.3-0.5-0.3-1.1 0.2-1.4q1.5-1.2 3.1-2.3c0.4-0.3 1-0.2 1.3 0.2 0.3 0.4 0.3 1-0.2 1.3q-1.5 1.2-3.1 2.4-0.2 0.2-0.5 0.2zm297.4-4.9q-0.2 0-0.4-0.1l-3.6-1.6c-0.5-0.2-0.7-0.8-0.5-1.3 0.3-0.4 0.8-0.7 1.3-0.4l3.6 1.5c0.4 0.3 0.7 0.8 0.4 1.3-0.1 0.4-0.5 0.6-0.8 0.6zm-286.5-3.1c-0.3 0-0.6-0.1-0.8-0.4-0.3-0.4-0.2-1 0.3-1.3q1.6-1.1 3.2-2.2c0.4-0.3 1-0.2 1.3 0.3 0.3 0.4 0.2 1-0.2 1.3q-1.6 1.1-3.2 2.2-0.3 0.1-0.6 0.1zm274.1-2.4q-0.2 0-0.4-0.1l-3.6-1.5c-0.4-0.2-0.7-0.8-0.5-1.3 0.2-0.4 0.8-0.7 1.3-0.5l3.6 1.6c0.5 0.2 0.7 0.7 0.5 1.2-0.2 0.4-0.6 0.6-0.9 0.6zm-262.7-4.9c-0.3 0-0.6-0.1-0.8-0.5-0.3-0.4-0.2-1 0.3-1.3q1.7-1 3.3-2c0.5-0.2 1.1-0.1 1.4 0.4 0.2 0.4 0.1 1-0.4 1.3q-1.7 1-3.3 2-0.2 0.1-0.5 0.1zm250.2-0.4q-0.2 0-0.4 0-1.7-0.8-3.5-1.5c-0.5-0.2-0.8-0.8-0.6-1.3 0.2-0.5 0.8-0.7 1.3-0.5q1.8 0.7 3.6 1.5c0.5 0.2 0.7 0.7 0.5 1.2-0.1 0.4-0.5 0.6-0.9 0.6zm-12.5-5q-0.2 0-0.4-0.1-1.8-0.7-3.6-1.4c-0.5-0.2-0.7-0.8-0.5-1.2 0.2-0.5 0.7-0.8 1.2-0.6q1.8 0.7 3.6 1.4c0.5 0.2 0.8 0.8 0.6 1.3-0.2 0.3-0.5 0.6-0.9 0.6zm-225.9-1.3c-0.4 0-0.7-0.2-0.9-0.5-0.3-0.5-0.1-1 0.4-1.3q1.7-0.9 3.4-1.8c0.5-0.2 1.1-0.1 1.3 0.4 0.3 0.5 0.1 1.1-0.4 1.3q-1.7 0.9-3.4 1.8-0.2 0.1-0.4 0.1zm213.2-3.5q-0.2 0-0.3-0.1-1.8-0.7-3.7-1.3c-0.5-0.2-0.7-0.7-0.5-1.2 0.1-0.5 0.7-0.8 1.2-0.6q1.8 0.6 3.6 1.3c0.5 0.2 0.8 0.7 0.6 1.2-0.1 0.4-0.5 0.7-0.9 0.7zm-201.1-2.5c-0.4 0-0.8-0.2-0.9-0.6-0.2-0.5 0-1 0.5-1.3q1.7-0.8 3.5-1.6c0.5-0.2 1.1 0.1 1.3 0.5 0.2 0.5 0 1.1-0.5 1.3q-1.8 0.8-3.5 1.6-0.2 0.1-0.4 0.1zm188.3-2q-0.1 0-0.3-0.1-1.8-0.6-3.6-1.2c-0.5-0.2-0.8-0.7-0.7-1.2 0.2-0.5 0.8-0.8 1.3-0.6q1.8 0.6 3.6 1.2c0.5 0.2 0.8 0.7 0.7 1.2-0.2 0.4-0.6 0.7-1 0.7zm-175.9-3.3c-0.4 0-0.7-0.3-0.9-0.6-0.2-0.5 0.1-1.1 0.6-1.3q1.8-0.7 3.6-1.4c0.5-0.2 1 0.1 1.2 0.6 0.2 0.5 0 1.1-0.5 1.2q-1.9 0.7-3.6 1.4-0.2 0.1-0.4 0.1zm163-0.9q-0.1 0-0.2 0-1.9-0.6-3.7-1.1c-0.6-0.1-0.8-0.7-0.7-1.2 0.2-0.5 0.7-0.8 1.2-0.7q1.9 0.6 3.7 1.2c0.5 0.1 0.8 0.6 0.7 1.2-0.2 0.4-0.5 0.6-1 0.6zm-13-3.7q-0.1 0-0.2 0-1.9-0.5-3.8-1c-0.5-0.1-0.8-0.6-0.7-1.1 0.2-0.6 0.7-0.9 1.2-0.7q1.9 0.4 3.8 0.9c0.5 0.2 0.8 0.7 0.7 1.2-0.2 0.4-0.6 0.7-1 0.7zm-137.3 0c-0.4 0-0.7-0.2-0.9-0.6-0.1-0.6 0.1-1.1 0.6-1.3q1.9-0.6 3.8-1.1c0.5-0.2 1 0.1 1.2 0.6 0.1 0.5-0.2 1.1-0.7 1.2q-1.8 0.6-3.7 1.2-0.1 0-0.3 0zm124.2-3.2q-0.1 0-0.2 0-1.9-0.5-3.8-0.9c-0.5-0.1-0.9-0.6-0.8-1.1 0.2-0.5 0.7-0.9 1.2-0.7q1.9 0.4 3.8 0.8c0.5 0.1 0.8 0.6 0.7 1.1-0.1 0.5-0.5 0.8-0.9 0.8zm-111.2-0.5c-0.4 0-0.8-0.3-0.9-0.8-0.1-0.5 0.2-1 0.7-1.1q1.9-0.5 3.8-1c0.5-0.1 1 0.2 1.1 0.7 0.2 0.6-0.2 1.1-0.7 1.2q-1.8 0.5-3.7 0.9-0.1 0.1-0.3 0.1zm97.9-2.2q-0.1 0-0.2 0-1.9-0.4-3.8-0.7c-0.5-0.1-0.9-0.6-0.8-1.1 0.1-0.5 0.6-0.9 1.1-0.8q2 0.3 3.9 0.7c0.5 0.1 0.8 0.6 0.8 1.1-0.1 0.5-0.5 0.8-1 0.8zm-84.6-0.8c-0.5 0-0.9-0.3-1-0.8-0.1-0.5 0.3-1 0.8-1.1q1.9-0.3 3.8-0.7c0.6 0 1 0.3 1.1 0.8 0.1 0.6-0.2 1.1-0.8 1.1q-1.9 0.4-3.8 0.7 0 0-0.1 0zm71.2-1.3q0 0-0.1 0-1.9-0.3-3.8-0.5c-0.6 0-0.9-0.5-0.9-1.1 0.1-0.5 0.6-0.9 1.1-0.8q1.9 0.2 3.9 0.5c0.5 0 0.9 0.5 0.8 1.1-0.1 0.4-0.5 0.8-1 0.8zm-57.8-0.7c-0.5 0-0.9-0.4-1-0.9-0.1-0.5 0.3-1 0.8-1q2-0.3 3.9-0.5c0.6 0 1 0.4 1.1 0.9 0 0.5-0.4 1-0.9 1.1q-1.9 0.1-3.8 0.4-0.1 0-0.1 0zm44.4-0.7q-0.1 0-0.1 0-1.9-0.2-3.9-0.3c-0.5 0-0.9-0.5-0.9-1 0.1-0.6 0.5-1 1.1-0.9q1.9 0.1 3.8 0.2c0.6 0.1 1 0.5 0.9 1.1 0 0.5-0.4 0.9-0.9 0.9zm-30.9-0.5c-0.6 0-1-0.4-1-0.9 0-0.5 0.4-1 0.9-1q1.9-0.1 3.9-0.2c0.5 0 1 0.4 1 0.9 0 0.6-0.4 1-0.9 1q-2 0.1-3.9 0.2 0 0 0 0zm17.4-0.2q-0.1 0-0.1 0-1.9-0.1-3.8-0.1c-0.6 0-1-0.4-1-1 0-0.5 0.5-0.9 1-0.9q0 0 0 0 1.9 0 3.9 0c0.5 0 0.9 0.5 0.9 1 0 0.5-0.4 1-0.9 1z"/><path class="a" d="m872.1 491.5q-0.3 0-0.5-0.1c-0.4-0.3-0.6-0.8-0.4-1.3q0.8-1.8 1.7-3.5c0.2-0.5 0.8-0.7 1.2-0.5 0.5 0.3 0.7 0.8 0.5 1.3q-0.8 1.8-1.7 3.5c-0.1 0.4-0.5 0.6-0.8 0.6zm5.6-12.3q-0.2 0-0.4-0.1c-0.5-0.2-0.7-0.8-0.5-1.3q0.7-1.8 1.5-3.5c0.2-0.5 0.7-0.8 1.2-0.6 0.5 0.2 0.8 0.8 0.6 1.3q-0.8 1.8-1.5 3.6c-0.2 0.3-0.5 0.6-0.9 0.6zm4.9-12.7q-0.2 0-0.3 0c-0.5-0.2-0.8-0.7-0.6-1.2q0.6-1.9 1.3-3.7c0.1-0.5 0.7-0.8 1.2-0.6 0.5 0.2 0.8 0.7 0.6 1.2q-0.6 1.9-1.3 3.7c-0.1 0.4-0.5 0.6-0.9 0.6zm4.2-12.8q-0.2 0-0.3-0.1c-0.5-0.1-0.8-0.7-0.6-1.2q0.5-1.8 1-3.7c0.1-0.5 0.7-0.8 1.2-0.6 0.5 0.1 0.8 0.6 0.7 1.1q-0.5 1.9-1.1 3.8c-0.1 0.4-0.5 0.7-0.9 0.7zm3.4-13.1q-0.1 0-0.2-0.1c-0.5-0.1-0.9-0.6-0.8-1.1q0.5-1.9 0.9-3.8c0.1-0.5 0.6-0.8 1.1-0.7 0.5 0.1 0.9 0.6 0.8 1.1q-0.4 1.9-0.9 3.8c-0.1 0.5-0.5 0.8-0.9 0.8zm2.6-13.3q-0.1 0-0.2 0c-0.5-0.1-0.9-0.6-0.8-1.1q0.3-1.9 0.6-3.8c0.1-0.6 0.6-0.9 1.1-0.9 0.5 0.1 0.9 0.6 0.8 1.1q-0.2 2-0.6 3.9c0 0.4-0.4 0.8-0.9 0.8zm1.7-13.4q0 0-0.1 0c-0.5-0.1-0.9-0.6-0.8-1.1q0.1-1.9 0.3-3.8c0-0.6 0.5-1 1-0.9 0.5 0 0.9 0.5 0.9 1q-0.1 1.9-0.3 3.9c-0.1 0.5-0.5 0.9-1 0.9zm0.8-13.6q0 0 0 0c-0.5 0-1-0.4-0.9-0.9q0-2 0-3.9c0-0.5 0.4-1 1-1q0 0 0 0c0.5 0 0.9 0.5 0.9 1q0 2 0 3.9c0 0.5-0.5 0.9-1 0.9zm-0.1-13.5c-0.6 0-1-0.4-1-0.9q-0.1-1.9-0.2-3.8c-0.1-0.6 0.3-1 0.9-1.1 0.4 0 0.9 0.4 1 0.9q0.1 2 0.2 3.9c0 0.5-0.4 1-0.9 1q0 0 0 0zm-1.2-13.5c-0.5 0-0.9-0.3-1-0.8q-0.2-1.9-0.5-3.8c-0.1-0.5 0.3-1 0.8-1.1 0.5-0.1 1 0.3 1.1 0.8q0.3 1.9 0.5 3.8c0.1 0.6-0.3 1.1-0.8 1.1q-0.1 0-0.1 0zm-2.3-13.3c-0.4 0-0.8-0.3-0.9-0.8q-0.4-1.9-0.9-3.7c-0.1-0.5 0.2-1.1 0.7-1.2 0.6-0.1 1.1 0.2 1.2 0.7q0.5 1.9 0.9 3.8c0.1 0.5-0.3 1.1-0.8 1.2q-0.1 0-0.2 0zm-3.4-13.1c-0.4 0-0.8-0.3-0.9-0.7q-0.5-1.8-1.1-3.7c-0.2-0.5 0.1-1 0.6-1.2 0.5-0.2 1 0.1 1.2 0.6q0.6 1.9 1.2 3.7c0.1 0.5-0.2 1.1-0.7 1.2q-0.1 0.1-0.3 0.1zm-4.5-12.8c-0.3 0-0.7-0.2-0.9-0.6q-0.7-1.8-1.4-3.5c-0.2-0.5 0-1.1 0.5-1.3 0.5-0.2 1 0 1.3 0.5q0.7 1.8 1.4 3.6c0.2 0.5 0 1.1-0.5 1.2q-0.2 0.1-0.4 0.1zm-5.5-12.3c-0.4 0-0.7-0.2-0.9-0.5q-0.9-1.8-1.8-3.5c-0.2-0.4 0-1 0.4-1.3 0.5-0.2 1.1 0 1.3 0.4q1 1.7 1.8 3.5c0.3 0.5 0.1 1-0.4 1.3q-0.2 0.1-0.4 0.1zm-6.7-11.8c-0.3 0-0.6-0.2-0.8-0.5q-1-1.6-2-3.2c-0.3-0.5-0.2-1.1 0.2-1.4 0.5-0.2 1.1-0.1 1.4 0.3q1 1.7 2.1 3.3c0.3 0.5 0.1 1.1-0.3 1.3q-0.3 0.2-0.6 0.2zm-7.6-11.2c-0.3 0-0.6-0.1-0.8-0.4q-1.1-1.5-2.3-3c-0.4-0.4-0.3-1 0.1-1.4 0.4-0.3 1.1-0.2 1.4 0.2q1.2 1.5 2.4 3.1c0.3 0.4 0.2 1-0.2 1.3q-0.3 0.2-0.6 0.2zm-8.6-10.4c-0.3 0-0.6-0.1-0.8-0.3q-1.3-1.4-2.6-2.8c-0.4-0.4-0.3-1 0-1.4 0.4-0.4 1-0.3 1.4 0q1.4 1.4 2.7 2.9c0.3 0.4 0.3 1-0.1 1.3q-0.3 0.3-0.6 0.3zm-9.6-9.5q-0.4 0-0.7-0.3-1.4-1.3-2.9-2.5c-0.4-0.4-0.4-1-0.1-1.4 0.4-0.4 1-0.4 1.4-0.1q1.5 1.3 2.9 2.6c0.4 0.3 0.4 0.9 0.1 1.3-0.2 0.3-0.5 0.4-0.7 0.4zm-10.6-8.6q-0.3 0-0.5-0.1-1.6-1.2-3.2-2.3c-0.4-0.3-0.5-0.9-0.2-1.3 0.3-0.4 0.9-0.5 1.3-0.2q1.6 1 3.2 2.2c0.4 0.3 0.5 0.9 0.2 1.3-0.2 0.3-0.5 0.4-0.8 0.4zm-11.3-7.3q-0.3 0-0.5-0.1-1.6-1-3.3-1.9c-0.5-0.2-0.7-0.8-0.4-1.3 0.2-0.5 0.8-0.6 1.3-0.4q1.7 0.9 3.4 1.9c0.4 0.2 0.6 0.8 0.3 1.3-0.1 0.3-0.5 0.5-0.8 0.5zm-12.1-6.1q-0.2 0-0.4-0.1-1.7-0.7-3.5-1.4c-0.5-0.2-0.8-0.8-0.6-1.3 0.2-0.5 0.8-0.7 1.3-0.5q1.8 0.7 3.6 1.5c0.5 0.2 0.7 0.7 0.5 1.2-0.2 0.4-0.5 0.6-0.9 0.6zm-12.7-4.8q-0.1 0-0.3 0-1.8-0.6-3.6-1.2c-0.5-0.1-0.8-0.7-0.7-1.2 0.2-0.5 0.7-0.8 1.2-0.6q1.9 0.5 3.8 1.1c0.5 0.2 0.7 0.7 0.6 1.3-0.2 0.4-0.5 0.6-1 0.6zm-13-3.7q-0.1 0-0.2 0-1.9-0.5-3.7-0.9c-0.6-0.1-0.9-0.7-0.8-1.2 0.2-0.5 0.7-0.8 1.2-0.7q1.9 0.4 3.8 0.9c0.5 0.1 0.8 0.6 0.7 1.2-0.1 0.4-0.5 0.7-1 0.7zm-13.2-2.9q-0.1 0-0.2 0-1.9-0.3-3.8-0.7c-0.5-0.1-0.8-0.6-0.7-1.1 0.1-0.5 0.6-0.9 1.1-0.8q1.9 0.4 3.8 0.7c0.5 0.1 0.9 0.6 0.8 1.2-0.1 0.4-0.5 0.7-1 0.7zm-13.3-2.2q-0.1 0-0.2 0-1.9-0.3-3.8-0.6c-0.5-0.1-0.9-0.6-0.8-1.1 0.1-0.5 0.6-0.9 1.1-0.8q1.9 0.3 3.8 0.6c0.5 0 0.9 0.5 0.8 1.1 0 0.4-0.5 0.8-0.9 0.8zm-13.4-1.9q-0.1 0-0.2 0l-3.8-0.5c-0.5-0.1-0.9-0.6-0.8-1.1 0-0.5 0.5-0.9 1.1-0.8l3.8 0.5c0.5 0 0.9 0.5 0.8 1.1 0 0.4-0.5 0.8-0.9 0.8zm-13.5-1.8q0 0-0.1 0l-3.8-0.5c-0.5-0.1-0.9-0.6-0.8-1.1 0-0.5 0.5-0.9 1-0.8l3.9 0.5c0.5 0.1 0.9 0.5 0.8 1.1-0.1 0.5-0.5 0.8-1 0.8zm-13.4-1.9q0 0-0.1 0-1.9-0.3-3.8-0.6c-0.6-0.1-0.9-0.6-0.8-1.1 0-0.5 0.6-0.9 1.1-0.8q1.9 0.3 3.8 0.6c0.5 0.1 0.9 0.6 0.8 1.1-0.1 0.5-0.5 0.8-1 0.8z"/><path class="b" d="m872.1 491.5q-0.3 0-0.5-0.1c-0.4-0.3-0.6-0.8-0.4-1.3q0.8-1.8 1.7-3.5c0.2-0.5 0.8-0.7 1.2-0.5 0.5 0.3 0.7 0.8 0.5 1.3q-0.8 1.8-1.7 3.5c-0.1 0.4-0.5 0.6-0.8 0.6zm5.6-12.3q-0.2 0-0.4-0.1c-0.5-0.2-0.7-0.8-0.5-1.3q0.7-1.8 1.5-3.5c0.2-0.5 0.7-0.8 1.2-0.6 0.5 0.2 0.8 0.8 0.6 1.3q-0.8 1.8-1.5 3.6c-0.2 0.3-0.5 0.6-0.9 0.6zm4.9-12.7q-0.2 0-0.3 0c-0.5-0.2-0.8-0.7-0.6-1.2q0.6-1.9 1.3-3.7c0.1-0.5 0.7-0.8 1.2-0.6 0.5 0.2 0.8 0.7 0.6 1.2q-0.6 1.9-1.3 3.7c-0.1 0.4-0.5 0.6-0.9 0.6zm4.2-12.8q-0.2 0-0.3-0.1c-0.5-0.1-0.8-0.7-0.6-1.2q0.5-1.8 1-3.7c0.1-0.5 0.7-0.8 1.2-0.6 0.5 0.1 0.8 0.6 0.7 1.1q-0.5 1.9-1.1 3.8c-0.1 0.4-0.5 0.7-0.9 0.7zm3.4-13.1q-0.1 0-0.2-0.1c-0.5-0.1-0.9-0.6-0.8-1.1q0.5-1.9 0.9-3.8c0.1-0.5 0.6-0.8 1.1-0.7 0.5 0.1 0.9 0.6 0.8 1.1q-0.4 1.9-0.9 3.8c-0.1 0.5-0.5 0.8-0.9 0.8zm2.6-13.3q-0.1 0-0.2 0c-0.5-0.1-0.9-0.6-0.8-1.1q0.3-1.9 0.6-3.8c0.1-0.6 0.6-0.9 1.1-0.9 0.5 0.1 0.9 0.6 0.8 1.1q-0.2 2-0.6 3.9c0 0.4-0.4 0.8-0.9 0.8zm1.7-13.4q0 0-0.1 0c-0.5-0.1-0.9-0.6-0.8-1.1q0.1-1.9 0.3-3.8c0-0.6 0.5-1 1-0.9 0.5 0 0.9 0.5 0.9 1q-0.1 1.9-0.3 3.9c-0.1 0.5-0.5 0.9-1 0.9zm0.8-13.6q0 0 0 0c-0.5 0-1-0.4-0.9-0.9q0-2 0-3.9c0-0.5 0.4-1 1-1q0 0 0 0c0.5 0 0.9 0.5 0.9 1q0 2 0 3.9c0 0.5-0.5 0.9-1 0.9zm-0.1-13.5c-0.6 0-1-0.4-1-0.9q-0.1-1.9-0.2-3.8c-0.1-0.6 0.3-1 0.9-1.1 0.4 0 0.9 0.4 1 0.9q0.1 2 0.2 3.9c0 0.5-0.4 1-0.9 1q0 0 0 0zm-1.2-13.5c-0.5 0-0.9-0.3-1-0.8q-0.2-1.9-0.5-3.8c-0.1-0.5 0.3-1 0.8-1.1 0.5-0.1 1 0.3 1.1 0.8q0.3 1.9 0.5 3.8c0.1 0.6-0.3 1.1-0.8 1.1q-0.1 0-0.1 0zm-2.3-13.3c-0.4 0-0.8-0.3-0.9-0.8q-0.4-1.9-0.9-3.7c-0.1-0.5 0.2-1.1 0.7-1.2 0.6-0.1 1.1 0.2 1.2 0.7q0.5 1.9 0.9 3.8c0.1 0.5-0.3 1.1-0.8 1.2q-0.1 0-0.2 0zm-3.4-13.1c-0.4 0-0.8-0.3-0.9-0.7q-0.5-1.8-1.1-3.7c-0.2-0.5 0.1-1 0.6-1.2 0.5-0.2 1 0.1 1.2 0.6q0.6 1.9 1.2 3.7c0.1 0.5-0.2 1.1-0.7 1.2q-0.1 0.1-0.3 0.1zm-4.5-12.8c-0.3 0-0.7-0.2-0.9-0.6q-0.7-1.8-1.4-3.5c-0.2-0.5 0-1.1 0.5-1.3 0.5-0.2 1 0 1.3 0.5q0.7 1.8 1.4 3.6c0.2 0.5 0 1.1-0.5 1.2q-0.2 0.1-0.4 0.1zm-5.5-12.3c-0.4 0-0.7-0.2-0.9-0.5q-0.9-1.8-1.8-3.5c-0.2-0.4 0-1 0.4-1.3 0.5-0.2 1.1 0 1.3 0.4q1 1.7 1.8 3.5c0.3 0.5 0.1 1-0.4 1.3q-0.2 0.1-0.4 0.1zm-6.7-11.8c-0.3 0-0.6-0.2-0.8-0.5q-1-1.6-2-3.2c-0.3-0.5-0.2-1.1 0.2-1.4 0.5-0.2 1.1-0.1 1.4 0.3q1 1.7 2.1 3.3c0.3 0.5 0.1 1.1-0.3 1.3q-0.3 0.2-0.6 0.2zm-7.6-11.2c-0.3 0-0.6-0.1-0.8-0.4q-1.1-1.5-2.3-3c-0.4-0.4-0.3-1 0.1-1.4 0.4-0.3 1.1-0.2 1.4 0.2q1.2 1.5 2.4 3.1c0.3 0.4 0.2 1-0.2 1.3q-0.3 0.2-0.6 0.2zm-8.6-10.4c-0.3 0-0.6-0.1-0.8-0.3q-1.3-1.4-2.6-2.8c-0.4-0.4-0.3-1 0-1.4 0.4-0.4 1-0.3 1.4 0q1.4 1.4 2.7 2.9c0.3 0.4 0.3 1-0.1 1.3q-0.3 0.3-0.6 0.3zm-9.6-9.5q-0.4 0-0.7-0.3-1.4-1.3-2.9-2.5c-0.4-0.4-0.4-1-0.1-1.4 0.4-0.4 1-0.4 1.4-0.1q1.5 1.3 2.9 2.6c0.4 0.3 0.4 0.9 0.1 1.3-0.2 0.3-0.5 0.4-0.7 0.4zm-10.6-8.6q-0.3 0-0.5-0.1-1.6-1.2-3.2-2.3c-0.4-0.3-0.5-0.9-0.2-1.3 0.3-0.4 0.9-0.5 1.3-0.2q1.6 1 3.2 2.2c0.4 0.3 0.5 0.9 0.2 1.3-0.2 0.3-0.5 0.4-0.8 0.4zm-11.3-7.3q-0.3 0-0.5-0.1-1.6-1-3.3-1.9c-0.5-0.2-0.7-0.8-0.4-1.3 0.2-0.5 0.8-0.6 1.3-0.4q1.7 0.9 3.4 1.9c0.4 0.2 0.6 0.8 0.3 1.3-0.1 0.3-0.5 0.5-0.8 0.5zm-12.1-6.1q-0.2 0-0.4-0.1-1.7-0.7-3.5-1.4c-0.5-0.2-0.8-0.8-0.6-1.3 0.2-0.5 0.8-0.7 1.3-0.5q1.8 0.7 3.6 1.5c0.5 0.2 0.7 0.7 0.5 1.2-0.2 0.4-0.5 0.6-0.9 0.6zm-12.7-4.8q-0.1 0-0.3 0-1.8-0.6-3.6-1.2c-0.5-0.1-0.8-0.7-0.7-1.2 0.2-0.5 0.7-0.8 1.2-0.6q1.9 0.5 3.8 1.1c0.5 0.2 0.7 0.7 0.6 1.3-0.2 0.4-0.5 0.6-1 0.6zm-13-3.7q-0.1 0-0.2 0-1.9-0.5-3.7-0.9c-0.6-0.1-0.9-0.7-0.8-1.2 0.2-0.5 0.7-0.8 1.2-0.7q1.9 0.4 3.8 0.9c0.5 0.1 0.8 0.6 0.7 1.2-0.1 0.4-0.5 0.7-1 0.7zm-13.2-2.9q-0.1 0-0.2 0-1.9-0.3-3.8-0.7c-0.5-0.1-0.8-0.6-0.7-1.1 0.1-0.5 0.6-0.9 1.1-0.8q1.9 0.4 3.8 0.7c0.5 0.1 0.9 0.6 0.8 1.2-0.1 0.4-0.5 0.7-1 0.7zm-13.3-2.2q-0.1 0-0.2 0-1.9-0.3-3.8-0.6c-0.5-0.1-0.9-0.6-0.8-1.1 0.1-0.5 0.6-0.9 1.1-0.8q1.9 0.3 3.8 0.6c0.5 0 0.9 0.5 0.8 1.1 0 0.4-0.5 0.8-0.9 0.8zm-13.4-1.9q-0.1 0-0.2 0l-3.8-0.5c-0.5-0.1-0.9-0.6-0.8-1.1 0-0.5 0.5-0.9 1.1-0.8l3.8 0.5c0.5 0 0.9 0.5 0.8 1.1 0 0.4-0.5 0.8-0.9 0.8zm-13.5-1.8q0 0-0.1 0l-3.8-0.5c-0.5-0.1-0.9-0.6-0.8-1.1 0-0.5 0.5-0.9 1-0.8l3.9 0.5c0.5 0.1 0.9 0.5 0.8 1.1-0.1 0.5-0.5 0.8-1 0.8zm-13.4-1.9q0 0-0.1 0-1.9-0.3-3.8-0.6c-0.6-0.1-0.9-0.6-0.8-1.1 0-0.5 0.6-0.9 1.1-0.8q1.9 0.3 3.8 0.6c0.5 0.1 0.9 0.6 0.8 1.1-0.1 0.5-0.5 0.8-1 0.8z"/><path class="c" d="m107 345.8h318.6v201.7h-318.6z"/><path fill-rule="evenodd" class="d" d="m431.7 322.3v239.9h-330.9v-257.5h99.8l6.2 17.6zm-6.2 23.5h-318.6v201.7h318.6z"/><path class="d" d="m114.8 336.9l-4.7-5.1 4.5-4.3"/><path class="d" d="m110.1 331.8h10.1"/><path class="d" d="m140.5 327.5l4.6 4.3-4.8 5.1"/><path class="d" d="m145.1 331.8h-10.2"/><path class="d" d="m165.1 335.7c-0.8 0.7-1.8 1.1-2.9 1.1-2.5 0-4.6-2.1-4.6-4.6 0-2.5 2.1-4.6 4.6-4.6 2.2 0.1 4.1 1.5 4.7 3.6"/><path class="d" d="m167.4 327.6v4.2h-3.6"/><path class="d" d="m189.6 313.8l6.4 6.6"/><path class="d" d="m196.1 313.9l-6.6 6.4"/><path class="e" d="m207.8 761.9l-49.4-90.5 142-77 49.2 95.8z"/><path class="a" d="m290 620.3l-28.4 71.1-102.6-19.7 95.2 9 32-61.4z"/><path class="f" d="m290 620.3l-28.4 71.1-102.6-19.7 95.2 9 32-61.4z"/><path class="g" d="m299.8 595l49.8 95.2-141.8 71.7-48.9-90.8z"/><path class="g" d="m299.8 595l-45.6 85.7-95.3-9.6"/><path class="a" d="m315.8 598.9c0 11.6-9.4 21-20.9 21-11.6 0-21-9.4-21-21 0-11.6 9.4-20.9 21-20.9 11.5 0 20.9 9.3 20.9 20.9z"/><path class="h" d="m315.8 598.9c0 11.6-9.4 21-20.9 21-11.6 0-21-9.4-21-21 0-11.6 9.4-20.9 21-20.9 11.5 0 20.9 9.3 20.9 20.9z"/><path class="g" d="m315.8 599.6c0 11.5-9.4 20.9-20.9 20.9-11.6 0-21-9.4-21-20.9 0-11.6 9.4-21 21-21 11.5 0 20.9 9.4 20.9 21z"/><path class="a" d="m315.8 593.7c0 11.6-9.4 21-20.9 21-11.6 0-21-9.4-21-21 0-11.6 9.4-20.9 21-20.9 11.5 0 20.9 9.3 20.9 20.9z"/><path class="g" d="m315.8 593.7c0 11.6-9.4 21-20.9 21-11.6 0-21-9.4-21-21 0-11.6 9.4-20.9 21-20.9 11.5 0 20.9 9.3 20.9 20.9z"/><path class="e" d="m626.2 537.5h-100.4c-3.3 0-6-2.7-6-6v-55.9c0-3.3 2.7-6 6-6h100.4c3.3 0 6 2.7 6 6v55.9c0 3.3-2.7 6-6 6z"/><path class="g" d="m626.2 537.5h-100.4c-3.3 0-6-2.7-6-6v-55.9c0-3.3 2.7-6 6-6h100.4c3.3 0 6 2.7 6 6v55.9c0 3.3-2.7 6-6 6z"/><path class="a" d="m625.3 484.5h-98.1v-4.6h98.1z"/><path class="a" d="m625.3 495.1h-98.1v-4.6h98.1z"/><path class="a" d="m625.3 505.7h-98.1v-4.6h98.1z"/><path class="a" d="m625.3 516.3h-98.1v-4.6h98.1z"/><path class="a" d="m625.3 526.9h-98.1v-4.6h98.1z"/><path class="i" d="m513.7 524.8c-16 8.9-31 19-43.9 31.8-30 29.9-44.8 71.2-66.1 107.7-21.7 37.3-50.9 70.3-85.3 96.4-35.4 27-77.5 47.1-122 50.3-44.5 3.2-91.5-12.2-120.5-45.9-29-33.8-36.2-86.6-11.7-123.8 20.2-30.6 60.3-46.7 96.2-38.8 14 3.1 27.1 9.5 40 15.8q10 4.9 19.9 9.7"/><path class="i" d="m574.6 331.2c20.1-9.5 43.8-12.3 64.8-4.8 20.9 7.5 38.3 25.9 41.9 47.8 3.1 18.9-4 38.5-15.5 53.8-8.6 11.5-19.5 20.9-31.1 29.4"/><path class="e" d="m457.7 428.2l17.5-11 43.9-53.5 35.6 29.8-45.6 51.4-6.5-4.6-37.3 7.8c0 0-3.7-14.7-7.6-19.9z"/><path class="e" d="m217.1 425.9c6.8 9.9 4.8 23.4 4.8 23.4 0 0-19.6 12.6-27 8.6-7.3-3.9-8.2-16.7-8.2-16.7l-4.8-9.9 17.7-14.1z"/><path class="e" d="m406.6 267.8c0 0-30.3 58.5-48.1 62.5l-7.1 2.4c0 0-6.3 20.2-28 23.5l2.8-16.8-15.7 15.6c0 0-25.5-23.3-19.4-54.9l22.2 1.5 10-18.6c0 0-8.5-4.8-6.5-14.2 2-9.4 4-18.1 13.8-10.4 0 0 21.2 10.7 38.3-4.4 17.2-15.1 21.9-17.1 31-11.8 0 0-2.4 20.9 6.7 25.6z"/><path class="a" d="m312.5 353.2l14-15-3.1 18c19.5 0.1 28.8-25.7 28.8-25.7 5.1 2.5 15.7-5 15.7-5 16.1 11.7 23.5 28.9 27.4 46.2 3.8 17.2 2.8 70.3 2.8 70.3l58.9-13.4c4.5 5.8 6.7 20.1 6.7 20.1l-83.6 36.9c-14.8-15.4-31.3-75.2-31.3-75.2l-15.7 25.7c9.4 8.9-6.8 13.1-6.8 13.1l10.4 55.5c-97.3 50.5-140.6-29.4-140.6-29.4l25.8-26c3.8-4.9-2.9-24.7-2.9-24.7v-58.9l-59.3 35.2 38.2 15.7-16.9 14.7c0 0-43.1-2.8-60.6-6.2-17.5-3.4-21.6-19.6-21.6-19.6l122.1-107.2c41.1-3.2 69.9 2.9 69.9 2.9-3.8 38.3 19.7 53.8 19.7 53.8z"/><path class="a" d="m399.4 244.9c-4.7 0-9.1 2.5-12.7 5.5-3.6 3.1-6.6 6.8-10 10.1-9.6 9.2-22.8 14.5-36.1 14.7-1 8-4.2 15.8-9.2 22.3-1.4 1.8-3 3.8-2.7 6.1 0.2 1.1 0.9 2 1.5 2.9q3 4.4 6 8.8c0.6 0.8 1.1 1.7 1.2 2.7 0.1 1.9-1.5 3.4-3 4.6q-6.4 4.9-12.8 9.8c0 0-8.7-21.3-8.3-30.8l10-18.6c0 0-18.9-22.1-4-29.7 14.9-7.6 24.2 2.1 24.2 2.1 0 0 35.6-17.3 46.3-17 10.7 0.4 9.6 6.5 9.6 6.5z"/><path class="b" d="m399.4 244.9c-4.7 0-9.1 2.5-12.7 5.5-3.6 3.1-6.6 6.8-10 10.1-9.6 9.2-22.8 14.5-36.1 14.7-1 8-4.2 15.8-9.2 22.3-1.4 1.8-3 3.8-2.7 6.1 0.2 1.1 0.9 2 1.5 2.9q3 4.4 6 8.8c0.6 0.8 1.1 1.7 1.2 2.7 0.1 1.9-1.5 3.4-3 4.6q-6.4 4.9-12.8 9.8c0 0-8.7-21.3-8.3-30.8l10-18.6c0 0-18.9-22.1-4-29.7 14.9-7.6 24.2 2.1 24.2 2.1 0 0 35.6-17.3 46.3-17 10.7 0.4 9.6 6.5 9.6 6.5z"/><path class="g" d="m406.4 263.9c0 0-19.8 49.6-46.4 66.3 0 0-1.8 1.7-7.5 0-5.6-1.8-18-16-22.7-23.1-2.1-3.3-2.9-8.3-3.1-12.6"/><path class="g" d="m357.5 300c0 0 2.5 7.1 9.9 8.5"/><path class="g" d="m384 269.2c-2.8-3.3-7.4-5-11.7-4.1"/><path class="g" d="m392.8 274.3c3-1.1 6.6-0.1 8.5 2.4"/><path class="g" d="m389.4 279c-2.2 2.2-4 4.8-4.8 7.8-0.9 3-0.7 6.3 0.7 9 0.5 1.2 1.3 2.3 1.6 3.6 0.3 1.3-0.3 2.9-1.6 3.2-0.5 0.2-1.1 0.1-1.7-0.1-3.6-0.9-6.9-2.4-9.9-4.5"/><path class="g" d="m333.4 278.3c0 2.3-1.4 4.6-3.6 5.6-2.1 1-4.8 0.6-6.5-0.9-1.5-1.3-2.3-3.2-2.9-5q-1.1-3.3-1.8-6.7c-0.5-2.7-0.8-5.4-0.1-8.1 0.6-2.6 2.2-5.1 4.7-6.3 0.8-0.4 1.7-0.6 2.6-0.5 2.6 0.3 4.1 2.9 5 5.3q1.1 2.8 1.8 5.8"/><path class="g" d="m322 282.2c-2.3 7.6-4.8 13.1-8.7 19.4"/><path class="g" d="m197.9 416.6c10.9 4.4 20.8 10 20.8 10 5.3 11.6 3.5 21.6 3.2 22.7 0 0-20.8 11.2-27.8 8.4-7.1-2.8-7.4-16.5-7.4-16.5l-5.7-9.9"/><path class="g" d="m211.7 453.5l-5.3-20.4"/><path class="g" d="m202 456.8l-6.5-20.6"/><path class="g" d="m159.3 400.6l73.8-42.9"/><path class="g" d="m219.9 365.7c7-0.3 11.5-0.6 18.5-0.8"/><path class="g" d="m219.4 366.1v60.5"/><path class="g" d="m366.5 325.1c0 0 17.7 5.7 29 44 3.7 33.1 2.7 73.5 2.7 73.5"/><path class="g" d="m477.6 415.8c0 0 21 0.8 20.5 4.4-0.5 3.5-17.9 6.9-17.9 6.9 0 0 0.1 0.3 0.2 0.8 0 0 4.3 7.8-1.9 11.5"/><path class="g" d="m476.8 415.7c-8.8 4.7-19.4 12.7-19.4 12.7l-60.8 15.5"/><path class="g" d="m280.4 448.1c0 0 18 7.2 41.7-6.5"/><path class="j" d="m375.2 280.6c-0.9 2.6-2.7 4.3-3.9 3.9-1.3-0.5-1.5-2.9-0.6-5.5 0.9-2.6 2.7-4.3 3.9-3.9 1.3 0.5 1.6 2.9 0.6 5.5z"/><path class="j" d="m393.2 284.9c-0.9 2.6-2.7 4.3-3.9 3.9-1.3-0.5-1.6-2.9-0.6-5.5 0.9-2.6 2.7-4.3 3.9-3.9 1.3 0.5 1.5 2.9 0.6 5.5z"/><path class="g" d="m289.1 535.5q5.2-0.3 10.6-0.9"/><path class="g" d="m199.7 501.8c0 0 24.6 32.2 78.3 33.8"/><path class="g" d="m475.1 416.2l44.4-53 35.2 30.3-45.6 51.4-22.1-18.6"/><path class="g" d="m519.5 363.2l-4.6 41.7-39.8 11.3"/><path class="j" d="m323.2 256.9c-7.7 6.2-1.5 25.6-1.5 25.6l-6 14.3c-33.6-72.5 24.5-94.9 49.5-92.8 21.3 1.8 33.9 28.8 33.9 28.8 16.7-2.6 30.2 12 30.2 12l-25.2 23.1c-10.4-7.1-5.8-22.6-5.8-22.6 0 0-5.5-8.8-23.5 7.1-17.9 15.9-44 9.3-44 9.3 0 0-2-9.3-7.6-4.8z"/><path class="j" d="m407.1 238.2c1 0.4 4.6-0.9 6-0.9 2.6 0.1 5.1 0.8 7.5 1.7 5.4 2.3 10.8 6.7 14.7 11.1 8.3 9.3 16.1 21.7 29.9 22.6 12.3 0.8 21.3-8.6 33-10 24.5-2.9 42.5 21.9 39.4 44.4-6.9 50.6-83.8 81.4-141.4 70.8-2-0.4-0.2-32.3-28.3-52.4 0 0 36.2-42.6 38.5-64.6 2.4-22 0.7-22.7 0.7-22.7z"/><path class="g" d="m398.7 234.1c0 0 2.4-16.5-15.5-31.2"/><path class="g" d="m313.3 301.6c0 0-0.4 12.3 13.2 36.6l-16 16.8c0 0-26.4-18.9-19-55.5z"/><path class="g" d="m352.5 330.2c-11.5 28.1-29.1 26-29.1 26l3.1-18c0 0 11.9-6.6 17.3-13.8 0.2-0.3-0.2 0.2-0.1 0.1"/><path class="g" d="m219.7 451l-6-21"/><path class="g" d="m365.4 382.1l-32.3 54c0 0 3.5 3.4 2.3 7-1.2 3.5-9.3 6.2-9.3 6.2 0 0 10.5 55.2 10.6 55.4 0.6 3.4-28.7 12.3-31.6 13.1-23.5 6.3-48.1 5.7-70-6.1-15.5-8.5-29.5-21.5-39-36.4l23.6-24.3"/><path class="g" d="m501.6 439.8l-37.4 8.5-84.1 37.3c-25.9-45-31-75.4-31-75.4"/><path class="g" d="m398.7 442.6c-8.5 3.5-14.6 12-15.1 21.2"/><path class="g" d="m378.1 449.8c4.1-3.2 8.7-5.8 13.5-7.6"/><path class="g" d="m464.2 448.3c1.3-4.1-6.8-19.9-6.8-19.9"/><path class="g" d="m127.6 392.4c19.6 2 72 24.8 72 24.8l-18.6 14.1-60.6-6.2c0 0-20.9-6.5-21.6-19.6l41.2-36.3c0 0 71.3-66.4 82.2-71.3 7.5-3.3 45.8 0.1 69.4 2.7"/><path class="g" d="m139.5 383.9c0 0 17.2 5.2 19.8 16.7"/><path class="k" d="m521.6 292.6c-6.1-4.5-14.6-4.3-21.7-1.9-7.2 2.5-13.4 6.9-20 10.8-9.6 5.7-20.1 10.2-31.2 11.6-11.1 1.4-22.9-0.5-32.1-6.9-7.7-5.2-13.1-13.1-18-20.9"/><path class="k" d="m506.2 338.2c-9.4-1.1-18.8 2-27.4 5.9-8.6 4-16.8 8.9-25.8 11.7-11 3.4-22.9 3.6-33.9 0.5-10-2.7-19.5-8.4-25.2-17.1-6.2-9.5-7.2-21.5-7.5-32.8"/><path class="e" d="m507.5 653.1l-27.2-14.3-13.7 6.8-22.3-41.8 63.7-33.3 22.6 42.1-14.9 8.1-1.6 17.9z"/><path class="e" d="m771.8 457l-4 18.5 10.3 26.1c4.4-5.7 11.7 0.2 11 14.1-0.8 15.5-16 13.6-16 13.6-2.2 7.5-0.2 23.7-0.2 23.7 7.7 8.5 4.6 24.8 4.6 24.8 0 0-35.1 23.5-39 24.3-3.8 0.7-7.7-20.9-7.7-20.9 0 0-4.8 15.1-9.2 14.7-4.4-0.3-9.9-21.9-9.9-21.9 0 0-0.1-4.4 4.3-10.9 4.4-6.6 10.1-6.2 10.1-6.2l1.3-8.6c0 0-14.2-0.3-22.1-5.9-7.8-5.7-8.8-13.9-6.9-30.2 1.9-16.3 22.6-64.6 22.6-64.6z"/><path class="a" d="m728.5 452.4l1.6 2.9c0 0-25.3 41.7-24.1 69 1.2 27.2 40.1 20 40.1 20 0 0-2.4 34.1-16.8 32.1l-3.6-8.4 1-19c0 0-15.1 1.3-24.3-7.9-9.2-9.2-4.8-28.9 3.6-55.8 8.4-26.8 15-37.7 15-37.7z"/><path class="b" d="m728.5 452.4l1.6 2.9c0 0-25.3 41.7-24.1 69 1.2 27.2 40.1 20 40.1 20 0 0-2.4 34.1-16.8 32.1l-3.6-8.4 1-19c0 0-15.1 1.3-24.3-7.9-9.2-9.2-4.8-28.9 3.6-55.8 8.4-26.8 15-37.7 15-37.7z"/><path class="a" d="m850.7 644.6c-1.4 8.8-4.4 17.3-8.4 25.3-4.3 8.7-9.7 16.6-15.6 23.4l3.5 33 8.3 49.1q0 0 0 0-0.2 0.2-0.4 0.3-0.8 0.6-2.7 2h-124.1c-3.3-7.6-6.9-16.2-10.3-24.6-6.2-15.4-11.7-30.2-12.9-37.7q-0.3-1.5-0.3-2.6l-21-21-69.5 37.8-89.6-75.8 0.1-0.2 9.1-18.2v-0.1l89.2 42.5 18.4-25.5 0.3-0.9v-0.1l5.3-17.2v-0.2l3.3-10.8 4.3-13.8 26.3-12.6 0.1-0.1 47.6-22.6q0 0 0 0.2c0.3 0.8 1 3.5 2.1 6.7q0.3 1.2 0.7 2.3 0.3 0.9 0.6 1.8c1 2.7 2.1 5.4 3.2 7.5q0.3 0.6 0.7 1.1 0.4 0.8 0.9 1.3 0 0.1 0.1 0.1c0.5 0.6 1.1 1 1.6 0.9 2.2-0.1 4.9-5 6.8-9.1q0.1-0.2 0.2-0.4c1.1-2.4 1.9-4.5 2.1-5.1q0.1-0.1 0.1-0.1 0 0 0 0.2c0.3 1.9 2.5 15 5.8 19.3q0.1 0.2 0.3 0.4c0.5 0.6 1.1 0.9 1.6 1q0 0 0.1 0c1.5 0 6.4-3 12.3-7q0 0 0 0c10.9-7.3 24.9-18 26.9-19.6q0.3-0.2 0.3-0.2c0 0 0.8-3.5 0-11.5q0 0 0.3 0.1l57.9 22.4q0 0 0.1 0l1.6 0.6c0 0 8.5 10.3 12.8 35.8 1.3 7.3 1.1 14.7-0.1 21.9z"/><path class="e" d="m664.8 634.5l-1.6 14.3-19.3 18-17.5-12.1-11.6-23.4-25.5-8 11-46.5 64.2 17.2-5.4 30.3z"/><path class="g" d=""/><path class="g" d="m496.5 630.3l-29.9 15.3-22.1-41 63.6-34.3 22.5 43-14.9 7.4"/><path class="g" d="m508.1 570.3l-20.5 38.7-43.1-4.4"/><path class="g" d="m614 630.4l-24.7-7.1 11-46.8 64.4 16.8-8.9 49.2-6.8-2"/><path class="g" d="m664.7 593.3l-38.5 15.2-25.5-32"/><path class="g" d="m759.9 533.1c-5.4 4.4-10.5 9.5-17 12.3-8 3.4-17.3 4-25.8 2.6-0.3 0-21.9-3.6-20.2-26.7 1.7-23.2 26.9-80.2 26.9-80.2"/><path class="g" d="m719.3 505.5l-10.2-5.6 11.9-25.5"/><path class="j" d="m735.5 482.2c1.2 0.4 1.5 2.6 0.8 4.8-0.8 2.3-2.3 3.8-3.5 3.4-1.2-0.4-1.6-2.5-0.9-4.8 0.8-2.3 2.4-3.8 3.6-3.4z"/><path class="j" d="m716 474.9c1.2 0.4 1.6 2.6 0.8 4.8-0.7 2.3-2.3 3.8-3.5 3.4-1.2-0.4-1.6-2.5-0.8-4.8 0.7-2.3 2.3-3.8 3.5-3.4z"/><path class="g" d="m733.3 510.6c0 0-5.1 6.7-14.6 5.5"/><path class="l" d="m732.9 473.3c2.3-1.5 5.4-0.6 7.3 1.3 1.9 1.8 2.8 4.4 3.7 6.9"/><path class="l" d="m713.6 469.2c0.9-1.5 2.7-2.3 4.4-2.2 1.7 0.2 3.2 1.5 3.8 3.1"/><path class="g" d="m772.5 513.1c0 0 6.7-11.1 13.8-8.6 7 2.4 3.6 12.5 0.3 19-3.4 6.4-12 6.7-16.9 4"/><path class="j" d="m788.4 519.2c0 0 6.6-11.2-0.5-15-7.1-3.8-15.8 9-15.8 9-0.2 0.1-0.9 0-1.8-0.4-3.5-1.2-5.1-5.1-3.7-8.5q0.4-1.1 0.8-2.1c0.9-2.8 1.2-6.1 0.7-9-1.2-6.1-5.5-11.1-4.8-17.7 0.5-5 2.2-10.1 4.5-14.6-36.4 7.3-58.2-13.3-53.3-30.3 4.8-17 16.3-1.8 41.8-11.5 25.4-9.7 43.7 31.6 43.7 31.6 25.5 17.6 1.1 42.3 1.1 42.3l-13 26.9z"/><path class="g" d="m826.6 692.4c0.9 32.1 11.9 83 11.9 83q0 0 0 0-0.2 0.2-0.4 0.3-1.4 1-2.8 2"/><path class="g" d="m710.5 777.7c-3.2-7.7-6.4-15.9-9.5-24.6-4.6-12.7-9-26.3-13.2-40.3"/><path class="g" d=""/><path class="g" d="m778.1 563.8c0 0 51.7 18.3 59.6 23.2"/><path class="g" d="m731.7 578.6c-4.1-3-6.4-10.6-5.5-16.2l1.3-13.2"/><path class="g" d="m773.2 528.7c0 0-2.6 8.7-0.5 24.3"/><path class="g" d="m838.1 587c26.4 46.6 5.4 81.1 5.4 81.1-20.9 34.4-85.4 104-85.4 104-32.3-14.4-114.2-105.6-114.2-105.6l20.1-18 92 64.7"/><path class="g" d="m744.9 705.6l49.4-65.5"/><path class="g" d="m746.5 706.6l30.9 1.5"/><path class="m" d="m800.6 453.5c0 0 4-16-6-28.4"/><path class="g" d="m666.5 691.5l-69.2 38.1-89.8-76.3 8.4-18.4 89.8 43.6 18.8-26.2"/><path class="g" d="m664 597.7l47.7-23.7"/><path class="g" d="m497.2 634.4c-3-12.6 5.2-18.4 5.2-18.4 0 0-0.2-30.7 2.6-30.8 2.8-0.1 1.4 12.6 1.4 12.6l9.6 17.9-2.6 24"/><path class="g" d="m481.8 638.5l25.7 14.8"/><path class="g" d="m659.6 624.9l4.8 8.5-0.9 15.1"/><path class="g" d="m643.6 665.8l-17.2-11.1-12.1-25.8 4.4-2.3 3.3 8.8-2.5-12.1 2.7-3.1 9.4 16.5-11.2-21.9 3.1-2.5c0 0 27.3 29.5 27.3 30.8"/><path class="g" d=""/><path class="g" d=""/><path class="g" d=""/><path class="g" d=""/><path class="g" d="m773 553.1c6 6.2 5.5 14.2 5.1 22.2-0.1 1.7-2 2.6-3.3 3.6-6.5 5-13.1 9.9-19.9 14.6-3.3 2.2-6.7 4.5-10.2 6.4-1.5 0.8-4.3 2.7-6.2 2.2-4.9-1.6-6.9-24.5-6.9-24.5 19.9-7.6 41.3-24.6 41.3-24.6z"/><path class="g" d="m731.6 577.6c0 0-5.4 19-10 18.3-4.6-0.6-10.1-23.2-10.1-23.2 0 0 5.2-18 15-15"/><path class="g" d="m606 677.8c0.8 6.8 0.8 13.7 0.1 20.5"/><path class="g" d="m672.3 634.7l7.6 24.8"/><path class="g" d="m790.2 619.2c-5.8 11-8.5 23.7-7.7 36.1"/><path class="g" d="m777.1 633.4c-0.8 7.3-0.5 14.7 0.7 21.9"/><path class="g" d="m609.1 680.7c2.2 3.9 3.5 8.2 4 12.6"/><path class="k" d="m775 454.9c-0.7-2-2.7-3.4-4.7-4-2.1-0.6-4.3-0.5-6.5-0.5-9.8 0-19.6-1.6-28.9-4.7-3.2-1-6.3-2.2-9-4.2-2.7-2-4.9-4.8-5.5-8.1"/><path class="k" d="m727.8 425.7c1.3 5.4 6.9 8.9 12.5 9.7 5.5 0.8 11.1-0.5 16.6-1.3 5.6-0.8 11.5-1 16.5 1.6 4.9 2.7 8.2 9.1 5.7 14.1"/><path class="g" d=""/><path class="g" d="m672.3 777.7h38.2 0.8 124 0.1 71"/><path class="g" d="m583.5 777.7h70.6"/><path class="g" d="m694.7 832.6h-137.6l50.1-27.1h131.4z"/><path class="g" d="m615.8 812.6h97"/><path class="g" d="m608.7 817.6h94.3"/><path class="g" d="m601.6 822.7h91.6"/><path class="g" d="m713.3 812.6l-27.8 13.6"/><path class="g" d="m698.1 812.6l-27.7 13.6"/><path class="j" d="m533.6 738.1h137.6l23.5 94.5h-137.6z"/><path class="g" d="m694.7 839.3h-138.9v-6.7h138.9z"/><path class="n" d="m532 738.1h137.7l23.5 94.5h-137.7z"/><path class="j" d="m694.7 832.6l44.8-27.3v5.1l-44.3 29.8z"/><path class="g" d="m618.6 782.5c0.6 4-2.2 7.7-6.2 8.4-4 0.6-7.7-2.2-8.4-6.2-0.5-3.7 1.8-7.3 5.5-8.2 4.2-0.9 8.2 1.8 9.1 6z"/></svg>