<svg xmlns="http://www.w3.org/2000/svg" viewBox="0 0 24 30" fill="none" x="0px" y="0px"><path fill-rule="evenodd" clip-rule="evenodd" d="M16.9788 10.5L15.5688 9.02127L13 11.8537L13 3H11.0001V11.8537L8.43124 9.02127L7.02124 10.5L10.5858 14.3857C11.3669 15.2048 12.6332 15.2048 13.4142 14.3856L16.9788 10.5ZM19 18V13H21V19C21 20.1 20.1 21 19 21H5C3.9 21 3 20.1 3 19V13H5V18C5 18.5523 5.44772 19 6 19H18C18.5523 19 19 18.5523 19 18Z" fill="black"/><text x="0" y="39" fill="#000000" font-size="5px" font-weight="bold" font-family="'Helvetica Neue', Helvetica, Arial-Unicode, Arial, Sans-serif">Created by Bradley Wilton</text><text x="0" y="44" fill="#000000" font-size="5px" font-weight="bold" font-family="'Helvetica Neue', Helvetica, Arial-Unicode, Arial, Sans-serif">from the Noun Project</text></svg>