<?xml version="1.0" encoding="UTF-8"?>
<svg xmlns="http://www.w3.org/2000/svg" xmlns:xlink="http://www.w3.org/1999/xlink" viewBox="0 0 48 48" width="48px" height="48px">
<g id="surface50883773">
<path style=" stroke:none;fill-rule:nonzero;fill:rgb(10.588235%,60.784316%,63.137257%);fill-opacity:1;" d="M 24 4 C 18.5 4 14 8.5 14 14 L 14 23 L 18 23 L 18 14 C 18 10.699219 20.699219 8 24 8 C 27.300781 8 30 10.699219 30 14 L 30 23 L 34 23 L 34 14 C 34 8.5 29.5 4 24 4 Z M 24 4 "/>
<path style=" stroke:none;fill-rule:nonzero;fill:rgb(98.431373%,54.901963%,0%);fill-opacity:1;" d="M 36 44 L 12 44 C 9.800781 44 8 42.199219 8 40 L 8 22 C 8 19.800781 9.800781 18 12 18 L 36 18 C 38.199219 18 40 19.800781 40 22 L 40 40 C 40 42.199219 38.199219 44 36 44 Z M 36 44 "/>
<path style=" stroke:none;fill-rule:nonzero;fill:rgb(78.039217%,43.137255%,0%);fill-opacity:1;" d="M 24 28 C 22.300781 28 21 29.300781 21 31 C 21 32.699219 22.300781 34 24 34 C 25.699219 34 27 32.699219 27 31 C 27 29.300781 25.699219 28 24 28 Z M 24 28 "/>
</g>
</svg>
