<svg height="32" width="32" xmlns="http://www.w3.org/2000/svg"><g fill="none" fill-rule="evenodd" transform="translate(1 1)"><path d="m21.32 10.32a1.096 1.096 0 0 0 -1.496-.05l-.105.106-4.47 4.471-2.003 2.004c-.01.012-.022.025-.035.037-.012.012-.024.024-.037.034l-.004.004-.005.003a.605.605 0 0 1 -.784-.016l-.005-.004a.705.705 0 0 1 -.044-.044l-.004-.005-2.015-2.014-.436-.437a1.098 1.098 0 0 0 -1.58 1.527l.052.052 3.966 3.966.033.034.011.01c.227.204.57.209.8.013l.07-.072 1.09-1.088.316-.317 2.782-2.781a.53.53 0 0 1 .025-.027l.027-.025.402-.402.003.002 3.354-3.348.172-.172c.346-.43.318-1.061-.08-1.46z" fill="#0391e6"/></g></svg>