<svg width="24" height="27" viewBox="0 0 24 27" fill="none" xmlns="http://www.w3.org/2000/svg">
<path d="M17.7928 3.30811C17.9511 3.44732 18.1821 3.46548 18.36 3.3526C19.0251 3.07919 19.7711 3.07919 20.436 3.3526C20.614 3.46604 20.8455 3.44787 21.0036 3.30811C21.1425 3.15129 21.1604 2.92145 21.0481 2.7448C20.7732 2.08455 20.7732 1.34183 21.0481 0.681582C21.1595 0.504747 21.1408 0.275643 21.0025 0.119036C20.8444 -0.0205398 20.6134 -0.0392597 20.4349 0.0728813C19.7698 0.346657 19.0238 0.346657 18.3589 0.0728813C18.181 -0.0390775 17.9504 -0.0203529 17.7928 0.119036C17.654 0.276037 17.6358 0.506066 17.7485 0.682911C18.0234 1.34335 18.0234 2.08607 17.7485 2.74651C17.6365 2.92279 17.6547 3.15171 17.7928 3.30816L17.7928 3.30811Z" fill="#FC993E"/>
<path d="M23.2418 17.1908C23.0829 17.0527 22.8521 17.0358 22.6749 17.1492C21.9697 17.4327 21.1792 17.416 20.4864 17.1031C20.3309 17.0393 20.1522 17.0747 20.0326 17.1932C19.914 17.3116 19.8782 17.4896 19.9416 17.6445C20.2664 18.3302 20.2832 19.1215 19.9881 19.8203C19.8753 19.997 19.8934 20.2272 20.0326 20.3842C20.1913 20.5225 20.4217 20.5404 20.5998 20.4285C21.2647 20.1549 22.0108 20.1549 22.6759 20.4285C22.854 20.5404 23.0844 20.5226 23.2431 20.3845C23.3826 20.2277 23.4008 19.997 23.2874 19.8203C23.0127 19.1602 23.0127 18.4177 23.2874 17.7574C23.401 17.5796 23.3823 17.3479 23.2418 17.1908L23.2418 17.1908Z" fill="#FC823E"/>
<path d="M14.7749 12.0653C14.9085 11.9261 15.0887 11.8409 15.2809 11.8255C15.6371 11.7775 15.968 11.6143 16.2229 11.3608C16.4778 11.1074 16.6428 10.7774 16.6926 10.4215C16.7104 10.2295 16.7949 10.0499 16.9315 9.91386C17.0682 9.7778 17.2481 9.69383 17.44 9.67678C17.7963 9.6284 18.127 9.46491 18.3818 9.21152C18.6367 8.95795 18.8017 8.62801 18.8517 8.27211C18.8695 8.07934 18.9542 7.8988 19.0914 7.76219C19.2285 7.62577 19.4093 7.54161 19.6021 7.52475C19.9587 7.47618 20.2899 7.31269 20.5452 7.05894C20.8004 6.80518 20.9659 6.47523 21.0167 6.11881C21.0325 5.92604 21.119 5.74587 21.2596 5.61316C21.4217 5.45097 21.4217 5.18813 21.2596 5.02594C21.0963 4.86375 20.8325 4.86375 20.6692 5.02594C20.4112 5.27618 20.2445 5.60576 20.1963 5.96184C20.1782 6.1548 20.0931 6.33516 19.9559 6.47176C19.8186 6.60819 19.6377 6.69234 19.4447 6.70921C19.0887 6.75796 18.758 6.92163 18.5033 7.17539C18.2484 7.42896 18.0834 7.75872 18.033 8.1148C18.016 8.3072 17.9316 8.48756 17.795 8.62415C17.6584 8.76074 17.4781 8.84491 17.2857 8.86215C16.9294 8.91035 16.5987 9.07365 16.3438 9.32722C16.089 9.5808 15.924 9.91074 15.8739 10.2668C15.8563 10.4587 15.7718 10.6383 15.6352 10.7741C15.4986 10.9102 15.3186 10.9938 15.1266 11.0103C14.7698 11.0574 14.4389 11.2223 14.1866 11.4791C14.0244 11.6413 14.0244 11.9041 14.1866 12.0663C14.3499 12.2268 14.612 12.2264 14.7749 12.0654L14.7749 12.0653Z" fill="#65B9FF"/>
<path d="M0.111657 24.5488C6.86955e-05 24.8151 -0.028659 25.1087 0.0289859 25.3916C0.0868207 25.6746 0.228247 25.9336 0.435111 26.1349C0.639008 26.3412 0.89981 26.4819 1.18414 26.5392C1.46849 26.5964 1.76339 26.5677 2.03126 26.4567L6.87328 24.5052L2.07682 19.7339L0.111657 24.5488Z" fill="#FF473E"/>
<path d="M2.41641 18.8989L7.71255 24.1661L14.6857 21.3538L5.24409 11.9653L2.41641 18.8989Z" fill="#F9839A"/>
<path d="M21.1672 15.1707C21.3305 15.3331 21.5942 15.3331 21.7575 15.1707C21.8359 15.0932 21.88 14.9875 21.88 14.8774C21.88 14.7672 21.8359 14.6615 21.7575 14.584C21.0528 13.8898 20.1325 13.4565 19.1484 13.3554C18.1643 13.2544 17.1753 13.4919 16.3441 14.0285L14.9926 14.9071L11.7332 11.6661L12.6126 10.3183V10.3182C13.1513 9.49292 13.3896 8.50758 13.2877 7.52755C13.1855 6.54737 12.7496 5.63207 12.0525 4.93547C11.8891 4.77346 11.6256 4.77346 11.4621 4.93547C11.3001 5.09766 11.3001 5.3605 11.4621 5.5225C12.0241 6.08453 12.3756 6.82279 12.4576 7.61334C12.5398 8.4037 12.3475 9.19853 11.913 9.864L11.1299 11.0648L8.77602 8.72424H8.7762C8.42643 8.37633 7.92614 8.22581 7.44237 8.32313C6.95878 8.42063 6.55577 8.75298 6.368 9.20915L5.58447 11.1299L15.5257 21.0146L17.4581 20.2354C17.915 20.0526 18.2492 19.6524 18.3475 19.1703C18.4457 18.688 18.2946 18.1888 17.9456 17.842L15.596 15.5058L16.8001 14.7219C17.4705 14.2892 18.2685 14.098 19.0624 14.1795C19.8563 14.261 20.5986 14.6106 21.1671 15.1706L21.1672 15.1707Z" fill="#FFA9BA"/>
<path d="M14.9476 5.9574C14.7776 6.18076 14.6909 6.4566 14.7022 6.73704C14.7094 6.96745 14.9018 7.14836 15.1322 7.14131C15.2427 7.13797 15.3474 7.09071 15.4232 7.01008C15.499 6.92945 15.5398 6.82194 15.5363 6.71128C15.5304 6.60432 15.568 6.4996 15.6407 6.42063C15.8103 6.1969 15.8979 5.92162 15.889 5.6408C15.8801 5.36016 15.7754 5.09102 15.5919 4.87824C15.4316 4.72402 15.4236 4.47008 15.5737 4.30602C15.7437 4.08266 15.8306 3.8072 15.8195 3.52676C15.8053 3.30154 15.6151 3.12842 15.3895 3.13546C15.1641 3.14251 14.985 3.32731 14.985 3.55289C14.9913 3.65985 14.9537 3.76476 14.8812 3.84354C14.7114 4.06708 14.6236 4.34236 14.6325 4.62299C14.6414 4.90363 14.7465 5.17277 14.9302 5.38517C15.089 5.54013 15.0966 5.79296 14.9476 5.95739V5.9574Z" fill="#65B9FF"/>
<path d="M23.2081 11.2672C23.1011 11.2665 22.999 11.2229 22.9245 11.1464C22.7095 10.964 22.439 10.86 22.1575 10.8513C21.8757 10.8426 21.5995 10.9295 21.3736 11.0982C21.2071 11.2465 20.9535 11.2385 20.7969 11.0798C20.5823 10.8974 20.3113 10.7949 20.0295 10.7892C19.8008 10.784 19.6097 10.9625 19.5995 11.1912C19.596 11.3015 19.6366 11.4088 19.7126 11.4891C19.7884 11.5695 19.8929 11.6163 20.0034 11.6192C20.1107 11.62 20.2132 11.6635 20.2883 11.7401C20.5035 11.9225 20.7741 12.0265 21.0561 12.035C21.338 12.0435 21.6146 11.956 21.8403 11.787C22.0056 11.6376 22.2594 11.6452 22.4153 11.8044C22.6299 11.987 22.9009 12.0897 23.1827 12.095H23.196C23.4253 12.0986 23.614 11.9154 23.6173 11.6861C23.6209 11.4568 23.4377 11.2681 23.2084 11.2646L23.2081 11.2672Z" fill="#FF4372"/>
<path d="M23.6674 8.37916C23.6674 8.72319 23.3872 9.00197 23.0413 9.00197C22.6956 9.00197 22.4152 8.72319 22.4152 8.37916C22.4152 8.03531 22.6956 7.75635 23.0413 7.75635C23.3872 7.75635 23.6674 8.03531 23.6674 8.37916Z" fill="#E73D62"/>
<path d="M9.16129 6.71392C9.27899 6.59751 9.34516 6.43902 9.34516 6.27369C9.34516 6.10816 9.27899 5.94968 9.16129 5.83327C8.91624 5.59008 8.52087 5.59008 8.27564 5.83327C8.1583 5.94968 8.09232 6.10835 8.09232 6.27369C8.09232 6.43902 8.1583 6.59751 8.27564 6.71392C8.52087 6.95711 8.91624 6.95711 9.16129 6.71392Z" fill="#E73D62"/>
</svg>
