<svg width="258" height="221" viewBox="0 0 258 221" fill="none" xmlns="http://www.w3.org/2000/svg">
<g opacity="0.871591">
<path d="M168.617 41.2325L167.261 45.8937L171.184 48.6354L172.468 44.104L168.617 41.2325Z" fill="#FFBB00"/>
</g>
<g opacity="0.387221">
<path d="M170.433 10.6085L165.88 8.92364L162.866 12.6412L167.295 14.2454L170.433 10.6085Z" fill="#FF3363"/>
</g>
<g opacity="0.766161">
<path d="M153.445 81.11L156.363 77.2302L153.664 73.2779L150.859 77.0616L153.445 81.11Z" fill="#EAECFF"/>
</g>
<g opacity="0.871591">
<path d="M117.84 41.579L117.793 46.4334L122.311 48.013L122.324 43.3029L117.84 41.579Z" fill="#5E68C2"/>
</g>
<g opacity="0.576966">
<path d="M22.5394 63.3114L17.9671 64.9428L18.0432 69.728L22.4683 68.1147L22.5394 63.3114Z" fill="#FF3363"/>
</g>
<g opacity="0.632723">
<path d="M94.2109 1.53945L94.1645 6.39384L98.6822 7.97343L98.6947 3.2634L94.2109 1.53945Z" fill="#EAECFF"/>
</g>
<g opacity="0.331689">
<path d="M247.606 65.5207L245.625 69.9526L249.136 73.205L251.028 68.8919L247.606 65.5207Z" fill="#FFBB00"/>
</g>
<g opacity="0.975033">
<path d="M62.098 97.8223L65.6033 101.181L69.8484 98.9712L66.4252 95.7361L62.098 97.8223Z" fill="#5E68C2"/>
</g>
<g opacity="0.576966">
<path d="M181.422 87.1536L177.924 90.5206L179.961 94.8514L183.332 91.5613L181.422 87.1536Z" fill="#EAECFF"/>
</g>
<g opacity="0.476997">
<path d="M45.4589 72.9799L42.3925 76.7435L44.9359 80.7975L47.8858 77.1256L45.4589 72.9799Z" fill="#EAECFF"/>
</g>
<g opacity="0.971853">
<path d="M51.0241 19.0622L50.5476 23.8934L54.9075 25.8672L55.3375 21.1768L51.0241 19.0622Z" fill="#EAECFF"/>
</g>
<g opacity="0.331689">
<path d="M134.708 49.7673L132.727 54.1992L136.237 57.4516L138.13 53.1385L134.708 49.7673Z" fill="#EAECFF"/>
</g>
<g opacity="0.995188">
<path d="M249.477 123.448L253.366 126.353L257.31 123.641L253.517 120.848L249.477 123.448Z" fill="#EAECFF"/>
</g>
<g opacity="0.435251">
<path d="M57.2546 183.67L55.2734 188.102L58.7843 191.354L60.6769 187.041L57.2546 183.67Z" fill="#5E68C2"/>
</g>
<g opacity="0.995188">
<path d="M0.291516 95.8659L3.92119 99.0897L8.07981 96.7211L4.53677 93.6177L0.291516 95.8659Z" fill="#EAECFF"/>
</g>
<g opacity="0.760369">
<path d="M237.368 153.013L234.432 156.879L237.111 160.844L239.935 157.074L237.368 153.013Z" fill="#EAECFF"/>
</g>
<g opacity="0.970255">
<path d="M192.398 138.64L190.874 143.249L194.694 146.131L196.143 141.649L192.398 138.64Z" fill="#5E68C2"/>
</g>
<g opacity="0.970255">
<path d="M31.5833 141.266L30.0591 145.875L33.88 148.757L35.3281 144.275L31.5833 141.266Z" fill="#5E68C2"/>
</g>
<g opacity="0.996879">
<path d="M67.0365 144.524L65.4689 149.118L69.2625 152.036L70.7527 147.568L67.0365 144.524Z" fill="#FF3363"/>
</g>
<g opacity="0.656623">
<path d="M70.3116 39.7425L72.3554 44.1459L77.1135 43.6312L75.1012 39.3727L70.3116 39.7425Z" fill="#5E68C2"/>
</g>
<g opacity="0.882281">
<path d="M95.9806 167.919L94.0038 172.353L97.5179 175.602L99.4062 171.287L95.9806 167.919Z" fill="#FF3363"/>
</g>
<g opacity="0.760369">
<path d="M183.321 197.211L185.158 201.705L189.935 201.411L188.123 197.064L183.321 197.211Z" fill="#FFBB00"/>
</g>
<g opacity="0.539755">
<path d="M39.9599 168.593L35.3497 170.113L35.3106 174.899L39.7733 173.393L39.9599 168.593Z" fill="#EAECFF"/>
</g>
<g opacity="0.28412">
<path d="M78.9167 190.89L76.9355 195.322L80.4464 198.575L82.339 194.262L78.9167 190.89Z" fill="#FF3363"/>
</g>
<g opacity="0.241715">
<path d="M150.266 165.281L149.396 170.057L153.579 172.381L154.392 167.742L150.266 165.281Z" fill="#5E68C2"/>
</g>
<g opacity="0.843544">
<path d="M146.721 191.234L146.674 196.089L151.192 197.668L151.204 192.958L146.721 191.234Z" fill="#FFBB00"/>
</g>
<g opacity="0.498525">
<path d="M199.697 151.278L196.555 147.577L192.106 149.338L195.178 152.908L199.697 151.278Z" fill="#EAECFF"/>
</g>
<g opacity="0.966724">
<path d="M226.292 50.6817L230.69 52.7356L234 49.2787L229.719 47.3154L226.292 50.6817Z" fill="#EAECFF"/>
</g>
<g opacity="0.896848">
<path d="M62.9378 10.2815L65.2463 14.5521L69.9642 13.7482L67.6959 9.62035L62.9378 10.2815Z" fill="#FF3363"/>
</g>
<g opacity="0.967725">
<path d="M1.72635 149.505L4.30483 153.619L8.96121 152.513L6.43209 148.54L1.72635 149.505Z" fill="#EAECFF"/>
</g>
<g opacity="0.981895">
<path d="M248.205 134.002L246.602 138.584L250.373 141.531L251.898 137.074L248.205 134.002Z" fill="#FF3363"/>
</g>
<g opacity="0.981895">
<path d="M56.5408 63.1128L54.9381 67.6952L58.7093 70.6418L60.2336 66.1853L56.5408 63.1128Z" fill="#FF3363"/>
</g>
<g opacity="0.996879">
<path d="M250.105 91.9991L245.878 95.6451L247.944 100.746L252.021 97.1807L250.105 91.9991Z" fill="#FFBB00"/>
</g>
<g opacity="0.996879">
<path d="M32.1855 111.691L27.9577 115.337L30.0238 120.438L34.1012 116.873L32.1855 111.691Z" fill="#FFBB00"/>
</g>
<g opacity="0.708654">
<path d="M96.4412 67.6898L99.2686 62.8759L95.6689 58.7126L92.9579 63.4019L96.4412 67.6898Z" fill="#FFBB00"/>
</g>
<g opacity="0.400611">
<path d="M99.1844 106.152L102.575 109.626L106.892 107.561L103.579 104.212L99.1844 106.152Z" fill="#EAECFF"/>
</g>
<g opacity="0.99617">
<path d="M193.615 67.7577L194.789 72.718L199.792 73.192L198.62 68.3873L193.615 67.7577Z" fill="#FF3363"/>
</g>
<g opacity="0.918299">
<path d="M128.461 8.89742L132.665 6.47072L131.73 1.7771L127.667 4.15957L128.461 8.89742Z" fill="#FF3363"/>
</g>
<g opacity="0.760369">
<path d="M208.226 25.411L204.78 28.8302L206.881 33.1299L210.202 29.7896L208.226 25.411Z" fill="#5E68C2"/>
</g>
<g opacity="0.615954">
<path d="M203.884 102.905L206.477 107.009L211.13 105.886L208.586 101.922L203.884 102.905Z" fill="#5E68C2"/>
</g>
<g opacity="0.700782">
<path d="M220.566 175.532L217.645 178.781L219.753 182.537L222.566 179.365L220.566 175.532Z" fill="#FF3363"/>
</g>
<g opacity="0.882281">
<path d="M27.3469 173.455L22.3833 176.01L23.1982 181.454L27.9968 178.941L27.3469 173.455Z" fill="#FFBB00"/>
</g>
<g opacity="0.843544">
<path d="M118.366 189.774L118.888 193.377L122.417 194.03L121.887 190.538L118.366 189.774Z" fill="#EAECFF"/>
</g>
<g opacity="0.424734">
<path d="M28.3738 33.3581L26.3926 37.79L29.9035 41.0424L31.796 36.7293L28.3738 33.3581Z" fill="#5E68C2"/>
</g>
<g opacity="0.450085">
<path d="M205.936 212.855L203.181 216.852L206.041 220.689L208.687 216.793L205.936 212.855Z" fill="#EAECFF"/>
</g>
<g id="check-group">	
<circle cx="132.963" cy="110.982" r="40.9866" fill="#74D27D"/>
<path id="check" d="M148.037 98.156C148.254 97.9344 148.513 97.7583 148.799 97.6382C149.085 97.518 149.392 97.4561 149.703 97.4561C150.013 97.4561 150.32 97.518 150.606 97.6382C150.892 97.7583 151.152 97.9344 151.369 98.156C152.279 99.0758 152.292 100.562 151.401 101.498L132.582 123.745C132.368 123.979 132.109 124.168 131.82 124.299C131.531 124.43 131.218 124.5 130.901 124.506C130.583 124.512 130.268 124.454 129.974 124.334C129.681 124.214 129.414 124.035 129.192 123.808L117.741 112.204C117.299 111.754 117.052 111.148 117.052 110.518C117.052 109.887 117.299 109.281 117.741 108.831C117.958 108.609 118.217 108.433 118.503 108.313C118.789 108.193 119.097 108.131 119.407 108.131C119.717 108.131 120.024 108.193 120.311 108.313C120.597 108.433 120.856 108.609 121.073 108.831L130.787 118.675L147.973 98.2261C147.993 98.2015 148.014 98.1781 148.037 98.156Z" fill="white"/>
</g>
</svg>
