<svg width="450" height="450" viewBox="0 0 450 450" fill="none" xmlns="http://www.w3.org/2000/svg">
<style xmlns="http://www.w3.org/2000/svg">
@keyframes float {
  100% {
    transform: translateY(20px);
  }
}

@keyframes woocommerce {
    0%,
    100% {
        transform: translateX(0) translateY(-20px);
    }
    50% {
        transform: translateX(30px) translateY(20px);
    }
}

.circle {
  	animation: float 2.5s infinite ease-in-out alternate;
}

.xls {
  	animation: float 3s infinite ease-in-out alternate;
    animation-delay: 0.5s;
}

.woocommerce {
  	animation: woocommerce 10500ms ease infinite;
}

.circle1 {
	animation: float 5000ms infinite ease-in-out alternate;
}

.circle2 {
	animation: float 5000ms infinite ease-in-out alternate;
}

.circle3 {
	animation: float 5000ms infinite ease-in-out alternate;
}

.circle4 {
	animation: float 5000ms infinite ease-in-out alternate;
}

</style>
<path class="circle1" opacity="0.5" d="M431 232.5C431 345.995 338.995 438 225.5 438C112.005 438 20 345.995 20 232.5C20 119.005 112.005 27 225.5 27C338.995 27 431 119.005 431 232.5Z" fill="url(#paint0_linear_388_445)"/>
<path class="circle2" opacity="0.7" d="M393.408 232.5C393.408 325.233 318.233 400.408 225.499 400.408C132.766 400.408 57.5909 325.233 57.5909 232.5C57.5909 139.767 132.766 64.5913 225.499 64.5913C318.233 64.5913 393.408 139.767 393.408 232.5Z" fill="url(#paint1_linear_388_445)"/>
<path class="circle3" d="M363.336 232.5C363.336 308.625 301.625 370.336 225.5 370.336C149.376 370.336 87.6649 308.625 87.6649 232.5C87.6649 156.376 149.376 94.665 225.5 94.665C301.625 94.665 363.336 156.376 363.336 232.5Z" fill="url(#paint2_linear_388_445)"/>
<g class="circle4" opacity="0.4" filter="url(#filter0_d_388_445)">
<circle cx="224.86" cy="238.242" r="119.97" fill="white"/>
</g>
<mask id="mask0_388_445" style="mask-type:alpha" maskUnits="userSpaceOnUse" x="106" y="120" width="239" height="239">
<circle cx="225.52" cy="239.54" r="119.311" fill="white"/>
</mask>
<g mask="url(#mask0_388_445)">
<path d="M241.241 218.496C262.805 220.806 290.713 223.241 318.727 270.785C349.347 322.746 333.228 400.365 309.06 421.934C284.893 443.503 205.962 470.136 139.611 430.265C139.611 430.265 99.5473 406.103 120.107 366.005C151.748 304.296 147.277 291.428 161.424 267.245C175.571 243.061 195.467 213.595 241.241 218.496Z" fill="white"/>
<path d="M172.007 297.476L166.464 314.105L183.356 307.459L172.007 297.476Z" fill="#F79C8D"/>
<path d="M189.42 247.993C188.294 248.04 185.208 249.068 180.695 257.567C174.934 268.42 166.511 301.208 166.511 301.208L191.651 310.537L194.881 303.694L200.201 251.01C200.201 251.012 189.734 247.982 189.42 247.993Z" fill="url(#paint3_linear_388_445)"/>
<path d="M222.653 243.268C215.464 243.277 197.677 245.368 189.422 247.996C189.422 247.996 183.358 299.946 194.881 339.423C197.46 348.259 192.748 376.053 192.748 376.053L267.241 375.073C267.241 375.073 258.416 307.88 261.74 297.026C265.064 286.173 265.143 248.348 265.143 248.348C265.143 248.348 264.633 248.269 248.407 245.473C240.838 244.166 230.327 243.256 222.653 243.268Z" fill="url(#paint4_linear_388_445)"/>
<path d="M201.153 360.407C201.153 360.407 149.731 357.562 138.248 364.491C126.764 371.423 140.325 385.653 140.325 385.653C140.325 385.653 182.189 403.794 252.274 407.825C268.87 408.778 270.3 364.698 267.197 361.051C264.092 357.401 201.153 360.407 201.153 360.407Z" fill="#54A993"/>
<path d="M238.854 397.069C236.8 412.563 226.629 489.691 226.629 489.691L250.231 492.608C250.231 492.608 279.255 391.936 277.766 376.537C276.277 361.139 265.413 359.844 265.413 359.844C265.413 359.844 244.29 356.055 238.854 397.069Z" fill="#3C8F7C"/>
<path d="M216.243 177.726C216.243 177.726 224.084 169.457 230.392 179.517C230.392 179.517 235.251 176.789 238.661 181.648C238.661 181.648 247.439 179.005 249.572 192.131C249.572 192.131 254.09 191.28 254.687 196.648C255.285 202.019 252.557 205.599 252.557 205.599C252.557 205.599 255.094 207.501 253.941 212.439C252.961 216.638 249.486 217.278 249.486 217.278C249.486 217.278 248.549 224.353 245.481 226.484C242.413 228.615 238.235 227.591 238.235 227.591C238.235 227.591 237.128 231.427 233.549 231.085C229.969 230.743 225.535 227.335 221.53 228.868C217.525 230.403 207.125 228.782 207.125 228.782C207.125 228.782 195.448 223.583 198.942 211.649C198.942 211.649 192.806 206.108 198.175 199.46C198.175 199.46 194.253 189.061 202.01 182.925C209.765 176.789 216.243 177.726 216.243 177.726Z" fill="#07345A"/>
<path d="M217.569 233.859L216.15 244.391C216.15 244.391 212.971 259.564 217.062 262.488C221.153 265.414 234.461 243.959 234.461 243.959L233.056 217.272L217.569 233.859Z" fill="#F7A491"/>
<path d="M233.505 225.921C230.125 235.022 222.077 240.619 216.365 242.789L217.567 233.859L233.051 217.272L233.505 225.921Z" fill="#F47458"/>
<path d="M223.598 189.238C215.297 186.379 206.446 191.894 205.179 200.454C204.627 204.173 204.13 208.851 204.037 213.966C203.813 226.266 210.182 238.238 215.767 238.238C221.351 238.238 236.789 230.276 237.347 212.812C237.692 202.029 232.309 192.236 223.598 189.238Z" fill="#F7A491"/>
<path d="M233.232 214.191C233.232 216.906 235.03 219.104 237.249 219.104C239.468 219.104 241.266 216.903 241.266 214.191C241.266 211.477 239.468 209.279 237.249 209.279C235.03 209.279 233.232 211.477 233.232 214.191Z" fill="#F7A491"/>
<path d="M199.398 183.115C193.63 187.686 191.606 194.631 194.881 198.627C198.156 202.623 205.49 202.158 211.259 197.587C217.027 193.017 219.051 186.071 215.776 182.075C212.501 178.079 205.169 178.544 199.398 183.115Z" fill="#07345A"/>
<path d="M265.955 254.118C258.99 251.516 255.583 314.057 254.643 339.799C242.308 340.981 220.811 339.809 215.459 339.409C212.942 339.22 207.137 337.101 204.634 336.775C202.068 336.441 199.742 336.266 198.482 336.485C198.019 336.566 185.163 341.804 184.063 342.953C182.7 344.379 179.011 347.973 179.634 349.527C180.255 351.08 186.726 345.196 186.726 345.196L189.887 343.428C185.951 347.259 178.443 352.306 179.525 354.144C180.578 355.935 187.352 350.815 192.178 347.324C188.038 351.05 182.895 357.719 184.081 358.759C185.147 359.694 190.996 351.974 197.249 349.75C199.566 348.927 201.875 351.208 203.696 351.483C205.036 351.685 207.104 352.116 208.418 351.746L215.187 349.831C217.492 350.038 217.55 351.399 219.879 351.892C222.581 352.467 227.017 353.069 230.46 353.907C250.284 358.733 256.897 360.975 262.966 360.973C281.348 360.964 282.413 260.273 265.955 254.118Z" fill="#F7A491"/>
<path d="M279.171 312.838C280.476 286.47 280.285 253.969 265.452 248.423C259.6 246.235 249.284 259.391 251.138 313.373C259.058 314.024 270.681 314.55 279.171 312.838Z" fill="url(#paint5_linear_388_445)"/>
<path d="M196.193 301.507H197.705L220.433 357.171L218.867 356.934L196.193 301.507Z" fill="#F79C8D"/>
<path d="M163.945 372.553C160.621 365.582 153.062 356.506 139.759 361.972C127.073 367.187 123.668 380.001 127.671 393.122C131.674 406.243 158.025 483.381 158.944 493.987L179.985 494.127C179.985 494.127 176.161 433.048 175.224 418.285C174.319 404.08 169.697 384.621 163.945 372.553Z" fill="#3C8F7C"/>
<path d="M210.708 224.582L221.521 224.405C221.521 224.405 221.34 228.515 216.585 228.731C210.789 228.994 210.708 224.582 210.708 224.582Z" fill="white"/>
</g>
<g class="woocommerce">
<path d="M47 172.563C47 169.49 49.4904 167 52.5625 167H123.356C126.428 167 128.918 169.49 128.918 172.563V202.496C128.918 205.589 126.395 208.088 123.302 208.058L104.14 207.871C102.358 207.853 101.149 209.678 101.86 211.313C102.785 213.438 100.528 215.546 98.4707 214.478L87.4534 208.761C86.6628 208.351 85.7853 208.137 84.8946 208.136L52.5591 208.116C49.4884 208.115 47 205.625 47 202.554L47 172.563Z" fill="white"/>
<path fill-rule="evenodd" clip-rule="evenodd" d="M119.265 168.786H57.0654C53.1291 168.786 49.9426 171.939 49.9739 175.766V199.033C49.9739 202.891 53.1604 206.013 57.0966 206.013H86.5561L100.021 213.361L96.9593 206.013H119.265C123.201 206.013 126.387 202.891 126.387 199.033V175.766C126.387 171.909 123.201 168.786 119.265 168.786ZM55.7535 174.174C54.8787 174.236 54.2227 174.542 53.7853 175.123C53.3479 175.674 53.1918 176.379 53.2855 177.175C55.1286 188.655 56.8468 196.4 58.4401 200.411C59.0649 201.88 59.7834 202.585 60.6269 202.523C61.939 202.432 63.501 200.656 65.3442 197.197C66.3126 195.237 67.8122 192.298 69.8428 188.379C71.5297 194.166 73.8415 198.513 76.7469 201.421C77.5592 202.248 78.4027 202.615 79.2148 202.554C79.9335 202.493 80.4957 202.125 80.8706 201.452C81.183 200.87 81.308 200.197 81.2455 199.431C81.058 196.645 81.3393 192.757 82.1203 187.767C82.9324 182.624 83.9322 178.92 85.1505 176.715C85.4005 176.256 85.4941 175.797 85.4629 175.246C85.4005 174.542 85.088 173.96 84.4945 173.501C83.901 173.042 83.2448 172.827 82.5263 172.888C81.6204 172.95 80.9331 173.378 80.4645 174.236C78.5277 177.695 77.153 183.297 76.3409 191.074C75.1537 188.135 74.1539 184.675 73.3729 180.603C73.0293 178.797 72.1859 177.94 70.8112 178.032C69.874 178.093 69.093 178.705 68.4682 179.869L61.6266 192.635C60.502 188.196 59.4398 182.777 58.4713 176.379C58.2527 174.787 57.3467 174.052 55.7535 174.174ZM115.953 176.379C118.172 176.838 119.827 178.001 120.952 179.93C121.952 181.583 122.451 183.573 122.451 185.961C122.451 189.114 121.639 191.992 120.015 194.625C118.14 197.686 115.703 199.217 112.673 199.217C112.142 199.217 111.58 199.156 110.986 199.033C108.768 198.574 107.112 197.411 105.988 195.482C104.988 193.798 104.488 191.778 104.488 189.42C104.488 186.267 105.301 183.389 106.925 180.787C108.831 177.726 111.267 176.195 114.267 176.195C114.798 176.195 115.36 176.256 115.953 176.379ZM114.641 192.941C115.797 191.931 116.578 190.431 117.016 188.41C117.141 187.706 117.234 186.941 117.234 186.145C117.234 185.257 117.047 184.308 116.672 183.359C116.203 182.165 115.579 181.522 114.829 181.369C113.704 181.155 112.611 181.767 111.58 183.267C110.736 184.43 110.205 185.655 109.924 186.91C109.768 187.614 109.705 188.38 109.705 189.145C109.705 190.033 109.893 190.982 110.268 191.931C110.736 193.125 111.361 193.768 112.111 193.921C112.892 194.074 113.735 193.737 114.641 192.941ZM101.364 179.93C100.239 178.001 98.5525 176.838 96.3657 176.379C95.772 176.256 95.2099 176.195 94.6786 176.195C91.6797 176.195 89.243 177.726 87.3373 180.787C85.7127 183.389 84.9006 186.267 84.9006 189.42C84.9006 191.778 85.4005 193.798 86.4 195.482C87.5248 197.411 89.1805 198.574 91.3985 199.033C91.992 199.156 92.5543 199.217 93.0856 199.217C96.1158 199.217 98.5525 197.686 100.427 194.625C102.052 191.992 102.864 189.114 102.864 185.961C102.864 183.573 102.364 181.583 101.364 179.93ZM97.4278 188.41C96.9906 190.431 96.2094 191.931 95.0536 192.941C94.1476 193.737 93.3042 194.074 92.5232 193.921C91.7734 193.768 91.1485 193.125 90.68 191.931C90.3051 190.982 90.1176 190.033 90.1176 189.145C90.1176 188.38 90.1801 187.614 90.3364 186.91C90.6175 185.655 91.1485 184.43 91.992 183.267C93.0231 181.767 94.1165 181.155 95.241 181.369C95.9908 181.522 96.6157 182.165 97.0842 183.359C97.4591 184.308 97.6466 185.257 97.6466 186.145C97.6466 186.941 97.5841 187.706 97.4278 188.41Z" fill="#7F54B3"/>
</g>
<g class="circle">
<circle cx="219.116" cy="81.235" r="26.1661" fill="url(#paint6_linear_388_445)"/>
<path d="M217.632 67.2064C217.896 66.9451 218.254 66.7983 218.628 66.7983C219.001 66.7983 219.36 66.9451 219.624 67.2064L222.913 70.4625C223.177 70.7242 223.325 71.0788 223.325 71.4486C223.325 71.8184 223.177 72.1731 222.913 72.4348L219.624 75.6908C219.357 75.9373 219.003 76.0715 218.638 76.0651C218.273 76.0587 217.924 75.9123 217.666 75.6566C217.408 75.4009 217.26 75.056 217.254 74.6945C217.247 74.333 217.383 73.9831 217.632 73.7186L218.44 72.9185C216.812 73.1351 215.284 73.816 214.041 74.8781C212.797 75.9402 211.893 77.3377 211.439 78.8998C210.985 80.462 210.999 82.1213 211.482 83.6752C211.964 85.2292 212.893 86.6106 214.155 87.6508C214.442 87.8879 214.622 88.2282 214.656 88.5969C214.689 88.9655 214.574 89.3323 214.334 89.6165C214.095 89.9008 213.751 90.0792 213.378 90.1125C213.006 90.1458 212.635 90.0313 212.348 89.7942C210.634 88.3802 209.381 86.4943 208.75 84.3754C208.118 82.2564 208.136 79.9996 208.801 77.8907C209.466 75.7818 210.748 73.9156 212.485 72.5284C214.222 71.1412 216.336 70.2953 218.558 70.0978L217.632 69.1787C217.368 68.917 217.219 68.5624 217.219 68.1926C217.219 67.8228 217.368 67.4681 217.632 67.2064ZM224.802 72.818C225.041 72.5339 225.385 72.3555 225.757 72.322C226.129 72.2885 226.5 72.4027 226.787 72.6394C228.502 74.0534 229.754 75.9393 230.385 78.0583C231.017 80.1772 230.999 82.434 230.334 84.5429C229.669 86.6518 228.387 88.518 226.65 89.9052C224.913 91.2925 222.8 92.1383 220.577 92.3358L221.503 93.2549C221.642 93.3827 221.753 93.5368 221.83 93.7079C221.907 93.8791 221.949 94.0639 221.952 94.2513C221.955 94.4386 221.92 94.6247 221.85 94.7985C221.779 94.9723 221.673 95.1301 221.539 95.2626C221.405 95.3951 221.246 95.4996 221.07 95.5698C220.895 95.64 220.707 95.6744 220.518 95.6711C220.328 95.6678 220.142 95.6268 219.969 95.5505C219.796 95.4743 219.64 95.3643 219.511 95.2272L216.222 91.9711C215.958 91.7095 215.81 91.3548 215.81 90.985C215.81 90.6152 215.958 90.2605 216.222 89.9989L219.511 86.7428C219.778 86.4963 220.132 86.3621 220.497 86.3685C220.862 86.3749 221.211 86.5213 221.469 86.777C221.727 87.0327 221.875 87.3776 221.882 87.7391C221.888 88.1007 221.752 88.4505 221.503 88.7151L220.695 89.5151C222.323 89.2986 223.851 88.6177 225.095 87.5555C226.338 86.4934 227.242 85.096 227.696 83.5338C228.151 81.9717 228.136 80.3124 227.654 78.7584C227.171 77.2044 226.243 75.8231 224.981 74.7828C224.694 74.5456 224.514 74.2055 224.48 73.837C224.447 73.4686 224.563 73.1021 224.802 72.818Z" fill="#FDFCFE"/>
</g>
<g class="xls">
<rect x="333.344" y="123" width="51.6941" height="67.0109" rx="6.38199" transform="rotate(15 333.344 123)" fill="white"/>
<path d="M360.385 198.148L322.36 187.959C319.936 187.31 318.498 184.82 319.148 182.396L333.256 129.745C333.905 127.322 336.395 125.884 338.819 126.534L366.607 133.979L377.313 152.523L365.948 194.936C365.299 197.36 362.809 198.798 360.385 198.148Z" fill="#43A047"/>
<path d="M377.314 152.524L362.689 148.605L366.608 133.98L377.314 152.524Z" fill="#C8E6C9"/>
<path d="M362.689 148.604L373.395 167.148L377.314 152.523L362.689 148.604Z" fill="#2E7D32"/>
<path d="M360.233 163.619L339.757 158.132L336.832 157.349L336.049 160.274L335.265 163.199L334.481 166.124L333.697 169.049L332.913 171.974L332.13 174.899L331.346 177.824L357.671 184.878L358.455 181.953L359.239 179.028L360.023 176.103L360.806 173.178L361.59 170.253L362.374 167.328L363.158 164.402L360.233 163.619ZM338.974 161.057L344.824 162.625L344.04 165.55L338.19 163.982L338.974 161.057ZM337.406 166.908L343.256 168.475L342.472 171.4L336.622 169.833L337.406 166.908ZM335.839 172.758L341.689 174.325L340.905 177.25L335.055 175.683L335.839 172.758ZM355.53 181.169L343.83 178.034L344.614 175.109L356.314 178.244L355.53 181.169ZM357.098 175.319L345.397 172.184L346.181 169.259L357.881 172.394L357.098 175.319ZM358.665 169.469L346.965 166.334L347.749 163.409L359.449 166.544L358.665 169.469Z" fill="#E8F5E9"/>
</g>
<path d="M132.979 297.678H203.311C205.171 297.678 206.848 298.801 207.553 300.525L229.208 353.341H267.983C269.067 353.341 269.946 354.221 269.946 355.302C269.946 356.386 269.067 357.263 267.983 357.263H157.63C154.597 357.263 151.845 355.481 150.603 352.713L128.797 304.142C127.434 301.106 129.653 297.678 132.979 297.678Z" fill="url(#paint7_linear_388_445)"/>
<path d="M170.846 328.436C171.321 330.808 173.391 332.394 175.468 331.978C177.545 331.562 178.845 329.303 178.371 326.931C177.896 324.558 175.826 322.972 173.749 323.388C171.67 323.802 170.372 326.063 170.846 328.436Z" fill="white"/>
<defs>
<filter id="filter0_d_388_445" x="0.225424" y="0.20472" width="449.27" height="449.27" filterUnits="userSpaceOnUse" color-interpolation-filters="sRGB">
<feFlood flood-opacity="0" result="BackgroundImageFix"/>
<feColorMatrix in="SourceAlpha" type="matrix" values="0 0 0 0 0 0 0 0 0 0 0 0 0 0 0 0 0 0 127 0" result="hardAlpha"/>
<feMorphology radius="29.9953" operator="dilate" in="SourceAlpha" result="effect1_dropShadow_388_445"/>
<feOffset dy="-13.4022"/>
<feGaussianBlur stdDeviation="37.3346"/>
<feComposite in2="hardAlpha" operator="out"/>
<feColorMatrix type="matrix" values="0 0 0 0 0 0 0 0 0 0 0 0 0 0 0 0 0 0 0.03 0"/>
<feBlend mode="normal" in2="BackgroundImageFix" result="effect1_dropShadow_388_445"/>
<feBlend mode="normal" in="SourceGraphic" in2="effect1_dropShadow_388_445" result="shape"/>
</filter>
<linearGradient id="paint0_linear_388_445" x1="843.534" y1="-641.642" x2="60.0976" y2="402.915" gradientUnits="userSpaceOnUse">
<stop stop-color="#6198EB"/>
<stop offset="1" stop-color="#6198EB" stop-opacity="0"/>
</linearGradient>
<linearGradient id="paint1_linear_388_445" x1="730.478" y1="-481.738" x2="90.3536" y2="371.741" gradientUnits="userSpaceOnUse">
<stop stop-color="#6198EB"/>
<stop offset="1" stop-color="#6198EB" stop-opacity="0"/>
</linearGradient>
<linearGradient id="paint2_linear_388_445" x1="640.035" y1="-353.814" x2="114.56" y2="346.803" gradientUnits="userSpaceOnUse">
<stop stop-color="#6198EB"/>
<stop offset="1" stop-color="#6198EB" stop-opacity="0"/>
</linearGradient>
<linearGradient id="paint3_linear_388_445" x1="183.356" y1="247.993" x2="183.356" y2="310.537" gradientUnits="userSpaceOnUse">
<stop stop-color="#003CA0"/>
<stop offset="1" stop-color="#0048C2"/>
</linearGradient>
<linearGradient id="paint4_linear_388_445" x1="227.534" y1="243.268" x2="227.534" y2="376.053" gradientUnits="userSpaceOnUse">
<stop stop-color="#0855D8"/>
<stop offset="1" stop-color="#005FFF"/>
</linearGradient>
<linearGradient id="paint5_linear_388_445" x1="265.297" y1="248.198" x2="265.297" y2="313.991" gradientUnits="userSpaceOnUse">
<stop stop-color="#003CA0"/>
<stop offset="1" stop-color="#0048C2"/>
</linearGradient>
<linearGradient id="paint6_linear_388_445" x1="219.116" y1="55.0689" x2="219.116" y2="107.401" gradientUnits="userSpaceOnUse">
<stop stop-color="#3FEDED"/>
<stop offset="1" stop-color="#0080A8"/>
</linearGradient>
<linearGradient id="paint7_linear_388_445" x1="168.485" y1="277.814" x2="229.543" y2="369.575" gradientUnits="userSpaceOnUse">
<stop stop-color="#FFB9AA"/>
<stop offset="1" stop-color="#FF522C"/>
</linearGradient>
</defs>
</svg>
