<svg width="17" height="18" viewBox="0 0 17 18" fill="none" xmlns="http://www.w3.org/2000/svg">
<path d="M16.0772 13.838L8.83862 17.8556C8.49135 18.0483 7.92312 18.0483 7.57589 17.8556L0.337308 13.838C0.163677 13.7416 0.076879 13.6146 0.076879 13.4876H0V4.5127H16.3376V13.4876C16.3376 13.6146 16.2508 13.7416 16.0772 13.838Z" fill="#FF473E"/>
<path d="M16.3389 4.51322V13.4881C16.3389 13.6151 16.2521 13.7422 16.0784 13.8385L8.83987 17.8561C8.65929 17.9563 8.41903 18.004 8.18109 17.9999C8.18672 13.5058 8.31447 9.00603 8.1748 4.51318H16.3389V4.51322Z" fill="#FF6E83"/>
<path d="M7.57614 8.88053L0.337596 4.86295C-0.00966743 4.67021 -0.00966743 4.35485 0.337596 4.1621L7.57614 0.144557C7.9234 -0.0481856 8.49164 -0.0481856 8.83887 0.144557L16.0774 4.16214C16.4247 4.35488 16.4247 4.67025 16.0774 4.86299L8.8389 8.88053C8.49164 9.07328 7.9234 9.07328 7.57614 8.88053Z" fill="#FFA9BA"/>
<path d="M13.1213 2.39271C13.1206 2.47921 13.0726 2.55842 12.9963 2.59911L4.32326 7.22221C4.3112 7.22864 4.29874 7.23394 4.28598 7.23812L4.25666 7.25451V15.8823C4.25666 15.966 4.21241 16.0434 4.14029 16.0859C4.10334 16.1076 4.06192 16.1185 4.0205 16.1185C3.98105 16.1185 3.94159 16.1086 3.90591 16.0888L2.45262 15.2822C2.3776 15.2406 2.33105 15.1615 2.33105 15.0757V6.67987C2.33105 6.44662 2.41596 6.22129 2.57016 6.04537C2.60711 6.00326 2.64784 5.96427 2.69122 5.92943L2.69979 5.92275C2.71883 5.90785 2.73689 5.89473 2.75545 5.8822C2.76239 5.87748 2.76686 5.87446 2.7714 5.87152C2.7964 5.85542 2.819 5.84202 2.84091 5.83032L11.2605 1.34227C11.3312 1.30459 11.4161 1.30528 11.4862 1.3442L12.9998 2.18423C13.0754 2.2262 13.122 2.30616 13.1213 2.39271ZM13.9211 6.04522C13.8841 6.00311 13.8434 5.96413 13.8018 5.9307C13.7984 5.92794 13.7949 5.92525 13.7901 5.92151C13.7725 5.90774 13.7544 5.89459 13.7341 5.88089C13.7295 5.8778 13.725 5.87472 13.7196 5.87123C13.6945 5.85502 13.6725 5.84198 13.6504 5.83021L5.23084 1.34223C5.16014 1.30452 5.07519 1.30525 5.00514 1.34416L3.49158 2.1842C3.41594 2.2262 3.36928 2.30616 3.37005 2.39271C3.37077 2.47921 3.41877 2.55842 3.4951 2.59911L12.1681 7.22221C12.1802 7.22864 12.1927 7.23394 12.2054 7.23816L12.2347 7.25454V15.8824C12.2347 15.966 12.279 16.0435 12.3511 16.0859C12.388 16.1077 12.4294 16.1185 12.4709 16.1185C12.5103 16.1185 12.5498 16.1087 12.5855 16.0889L14.0388 15.2823C14.1137 15.2406 14.1603 15.1616 14.1603 15.0757V6.67987C14.1603 6.44666 14.0754 6.22129 13.9211 6.04522Z" fill="#FFD4DE"/>
<path d="M11.1065 4.6792C11.1065 5.27181 10.3797 5.70191 9.37826 5.70191C8.96985 5.70191 8.60722 5.6303 8.32085 5.50539C8.24687 5.47313 8.16236 5.47589 8.09032 5.51226C7.79185 5.66289 7.39608 5.75067 6.94411 5.75067C5.94268 5.75067 5.21582 5.32057 5.21582 4.72796C5.21582 4.4296 5.4001 4.17247 5.71088 3.99063C5.83332 3.91902 5.88473 3.76617 5.82409 3.63795C5.60258 3.16949 5.6097 2.72997 5.88139 2.45828C6.02211 2.31757 6.21481 2.24319 6.43873 2.24319C6.59605 2.24319 6.76688 2.28036 6.9424 2.35016C7.08301 2.40604 7.2416 2.33922 7.30006 2.19967C7.48044 1.7691 7.77891 1.50391 8.13679 1.50391C8.48856 1.50391 8.78303 1.76008 8.96429 2.17776C9.02446 2.3164 9.18326 2.38256 9.32296 2.32491C9.50637 2.24923 9.68505 2.20875 9.84913 2.20875C10.132 2.20875 10.3083 2.32571 10.4065 2.42384C10.6735 2.69092 10.685 3.12011 10.4749 3.5796C10.416 3.70851 10.4683 3.86103 10.5916 3.93075C10.9143 4.11307 11.1065 4.37463 11.1065 4.6792Z" fill="#FF6E83"/>
</svg>
