<svg width="128" height="128" viewBox="0 0 128 128" fill="#ffffff" xmlns="http://www.w3.org/2000/svg">
<path d="M119.933 64.4665C119.933 97.309 93.309 123.933 60.4665 123.933C27.6241 123.933 1 97.309 1 64.4665C1 31.6241 27.6241 5 60.4665 5C93.309 5 119.933 31.6241 119.933 64.4665Z" fill="white"/>
<path fill-rule="evenodd" clip-rule="evenodd" d="M60.4665 123.214C92.9117 123.214 119.214 96.9117 119.214 64.4665C119.214 32.0214 92.9117 5.71935 60.4665 5.71935C28.0214 5.71935 1.71935 32.0214 1.71935 64.4665C1.71935 96.9117 28.0214 123.214 60.4665 123.214ZM60.4665 123.933C93.309 123.933 119.933 97.309 119.933 64.4665C119.933 31.6241 93.309 5 60.4665 5C27.6241 5 1 31.6241 1 64.4665C1 97.309 27.6241 123.933 60.4665 123.933Z" fill="white"/>
<path d="M49.9768 28.2332C50.4696 26.3942 52.3599 25.3028 54.1989 25.7956L84.7092 33.9708C86.5483 34.4635 87.6396 36.3538 87.1469 38.1929L78.8428 69.1839C78.3501 71.023 76.4598 72.1143 74.6207 71.6216L44.1104 63.4464C42.2714 62.9536 41.18 61.0633 41.6728 59.2243L49.9768 28.2332Z" fill="#1E1E1E"/>
<path d="M53.0616 32.9037C53.4771 31.353 55.071 30.4328 56.6217 30.8483L80.2927 37.1909C81.8433 37.6064 82.7636 39.2003 82.3481 40.751L75.4278 66.5777C75.0123 68.1284 73.4184 69.0486 71.8677 68.6331L48.1968 62.2905C46.6461 61.875 45.7259 60.2811 46.1414 58.7305L53.0616 32.9037Z" fill="white"/>
<path fill-rule="evenodd" clip-rule="evenodd" d="M62.88 54.2428C62.9269 54.2608 62.9751 54.2765 63.0247 54.2898C63.0742 54.303 63.1239 54.3136 63.1734 54.3214L71.117 56.4499C71.827 56.6402 72.5568 56.2188 72.7471 55.5088C72.7842 55.3702 72.7981 55.2308 72.791 55.0948L74.2533 49.6373C74.2701 49.5936 74.2848 49.5485 74.2972 49.5022C74.3096 49.4559 74.3195 49.4095 74.3267 49.3632L75.8034 43.8521C75.8203 43.8083 75.835 43.7633 75.8474 43.717C75.8653 43.6503 75.8777 43.5833 75.8851 43.5167C75.9871 42.8543 75.576 42.2075 74.9138 42.03C74.784 41.9953 74.6536 41.9809 74.5259 41.985L58.8364 37.781C58.1264 37.5908 57.3965 38.0121 57.2063 38.7222L57.2034 38.7332L55.659 44.4971L55.6562 44.5073L55.6535 44.5176L54.0486 50.507C53.8584 51.217 54.2797 51.9468 54.9897 52.137C55.038 52.15 55.0864 52.1601 55.1347 52.1675L62.88 54.2428ZM72.9245 44.3117L67.5751 42.8783L66.7139 46.0924L72.0633 47.5257L72.9245 44.3117ZM62.3229 51.3378L63.2395 47.9172L57.8829 46.4819L56.9664 49.9025L62.3229 51.3378ZM70.4578 53.5175L65.1084 52.0841L66.0249 48.6635L71.3744 50.0969L70.4578 53.5175ZM64.7896 42.132L63.9284 45.346L58.5719 43.9107L59.4331 40.6967L64.7896 42.132Z" fill="#1E1E1E"/>
<g filter="url(#filter0_i_238_277)">
<ellipse cx="46.2832" cy="100.316" rx="4.43601" ry="4.31612" fill="#535353"/>
</g>
<g filter="url(#filter1_i_238_277)">
<ellipse cx="72.1799" cy="99.8347" rx="4.43601" ry="4.31612" fill="#535353"/>
</g>
<path d="M86.0923 66.3412L83.4879 81.2075C83.1667 82.8497 81.8517 83.8482 80.3352 83.867H42.3659L41.6121 88.095H77.7994C79.7049 88.2391 80.9974 89.5822 81.0206 91.3C80.8821 93.1921 79.5323 94.4817 77.7994 94.5052H37.774C35.6093 94.3114 34.3185 92.5946 34.5527 90.6863L36.2661 81.4119L33.6617 55.3618L26.2598 53.0433C24.451 52.3287 23.7127 50.7006 24.1352 49.0199C24.8376 47.2683 26.5208 46.468 28.1788 46.9059L37.6369 49.9064C38.911 50.3816 39.644 51.4194 39.83 52.6342L40.3783 57.8169L83.2822 62.5905C85.2535 63.0154 86.3237 64.569 86.0923 66.3412Z" fill="#1E1E1E"/>
<path d="M88.8643 94.9187C88.8643 85.6486 96.3791 78.1338 105.649 78.1338H110.685C119.955 78.1338 127.47 85.6486 127.47 94.9187V100.913C127.47 110.183 119.955 117.698 110.685 117.698H105.649C96.3791 117.698 88.8643 110.183 88.8643 100.913V94.9187Z" fill="white"/>
<path fill-rule="evenodd" clip-rule="evenodd" d="M110.685 80.5316H105.649C97.7034 80.5316 91.2621 86.9729 91.2621 94.9187V100.913C91.2621 108.859 97.7034 115.3 105.649 115.3H110.685C118.63 115.3 125.072 108.859 125.072 100.913V94.9187C125.072 86.9729 118.63 80.5316 110.685 80.5316ZM105.649 78.1338C96.3791 78.1338 88.8643 85.6486 88.8643 94.9187V100.913C88.8643 110.183 96.3791 117.698 105.649 117.698H110.685C119.955 117.698 127.47 110.183 127.47 100.913V94.9187C127.47 85.6486 119.955 78.1338 110.685 78.1338H105.649Z" fill="#1E1E1E"/>
<path d="M112.548 93.2285C111.354 92.1105 109.805 91.4977 108.161 91.4992C105.203 91.5018 102.649 93.5301 101.944 96.3437C101.893 96.5486 101.71 96.6932 101.499 96.6932H99.3104C99.0241 96.6932 98.8065 96.4332 98.8595 96.1518C99.6859 91.7636 103.539 88.4438 108.167 88.4438C110.705 88.4438 113.009 89.442 114.71 91.067L116.074 89.703C116.651 89.1256 117.638 89.5346 117.638 90.3512V95.4711C117.638 95.9773 117.228 96.3877 116.722 96.3877H111.602C110.785 96.3877 110.376 95.4004 110.954 94.8229L112.548 93.2285V93.2285ZM99.612 99.443H104.732C105.549 99.443 105.958 100.43 105.38 101.008L103.786 102.602C104.98 103.72 106.529 104.333 108.173 104.332C111.13 104.329 113.684 102.302 114.39 99.487C114.441 99.2822 114.624 99.1375 114.835 99.1375H117.023C117.31 99.1375 117.527 99.3975 117.474 99.6789C116.648 104.067 112.795 107.387 108.167 107.387C105.629 107.387 103.325 106.389 101.624 104.764L100.26 106.128C99.6827 106.705 98.6954 106.296 98.6954 105.479V100.36C98.6954 99.8534 99.1058 99.443 99.612 99.443Z" fill="#1E1E1E"/>
<defs>
<filter id="filter0_i_238_277" x="41.8472" y="96" width="8.87202" height="8.63232" filterUnits="userSpaceOnUse" color-interpolation-filters="sRGB">
<feFlood flood-opacity="0" result="BackgroundImageFix"/>
<feBlend mode="normal" in="SourceGraphic" in2="BackgroundImageFix" result="shape"/>
<feColorMatrix in="SourceAlpha" type="matrix" values="0 0 0 0 0 0 0 0 0 0 0 0 0 0 0 0 0 0 127 0" result="hardAlpha"/>
<feOffset/>
<feGaussianBlur stdDeviation="6"/>
<feComposite in2="hardAlpha" operator="arithmetic" k2="-1" k3="1"/>
<feColorMatrix type="matrix" values="0 0 0 0 0 0 0 0 0 0 0 0 0 0 0 0 0 0 0.13 0"/>
<feBlend mode="normal" in2="shape" result="effect1_innerShadow_238_277"/>
</filter>
<filter id="filter1_i_238_277" x="67.7439" y="95.5186" width="8.87202" height="8.63232" filterUnits="userSpaceOnUse" color-interpolation-filters="sRGB">
<feFlood flood-opacity="0" result="BackgroundImageFix"/>
<feBlend mode="normal" in="SourceGraphic" in2="BackgroundImageFix" result="shape"/>
<feColorMatrix in="SourceAlpha" type="matrix" values="0 0 0 0 0 0 0 0 0 0 0 0 0 0 0 0 0 0 127 0" result="hardAlpha"/>
<feOffset/>
<feGaussianBlur stdDeviation="6"/>
<feComposite in2="hardAlpha" operator="arithmetic" k2="-1" k3="1"/>
<feColorMatrix type="matrix" values="0 0 0 0 0 0 0 0 0 0 0 0 0 0 0 0 0 0 0.13 0"/>
<feBlend mode="normal" in2="shape" result="effect1_innerShadow_238_277"/>
</filter>
</defs>
</svg>
