<svg width="111" height="114" viewBox="0 0 111 114" fill="none" xmlns="http://www.w3.org/2000/svg">
<style xmlns="http://www.w3.org/2000/svg">
@-webkit-keyframes spin {
	0% {
	    -webkit-transform: rotate(0);
	            transform: rotate(0);
	}
	100% {
	    -webkit-transform: rotate(360deg);
	            transform: rotate(360deg);
	}
}

@keyframes spin {
	0% {
	    -webkit-transform: rotate(0);
	            transform: rotate(0);
	}
	100% {
	    -webkit-transform: rotate(360deg);
	            transform: rotate(360deg);
	}
}

.recycle {
	transform-box: fill-box;
	-webkit-transform-origin: 50% 50%;
	    -ms-transform-origin: 50% 50%;
	        transform-origin: 50% 50%;
    -webkit-animation: spin 5000ms linear infinite;
            animation: spin 5000ms linear infinite;
}
</style>
<path d="M0 48.4933C0 21.8355 21.6071 0.225098 48.2609 0.225098H62.7391C89.3929 0.225098 111 21.8355 111 48.4933V65.7319C111 92.3897 89.3929 114 62.7391 114H48.2609C21.6071 114 0 92.3897 0 65.7319V48.4933Z" fill="url(#paint0_linear_386_1978)"/>
<g class="recycle">
<path d="M68.3366 43.6098C64.8385 40.389 60.299 38.6234 55.483 38.6276C46.8158 38.6351 39.3334 44.4788 37.2675 52.5849C37.1171 53.175 36.5824 53.5917 35.9638 53.5917H29.5518C28.7129 53.5917 28.0755 52.8428 28.2307 52.0319C30.6518 39.3895 41.9398 29.8252 55.5 29.8252C62.9352 29.8252 69.6873 32.7009 74.6693 37.3826L78.6657 33.4529C80.3574 31.7893 83.25 32.9675 83.25 35.3202V50.0708C83.25 51.5292 82.0477 52.7115 80.5645 52.7115H65.564C63.1714 52.7115 61.9732 49.8671 63.665 48.2034L68.3366 43.6098ZM30.4355 61.5139H45.436C47.8286 61.5139 49.0268 64.3583 47.335 66.022L42.6634 70.6157C46.1615 73.8366 50.7014 75.6022 55.5175 75.5979C64.1802 75.5902 71.6656 69.7504 73.7325 61.6407C73.8829 61.0506 74.4176 60.6339 75.0362 60.6339H81.4483C82.2873 60.6339 82.9246 61.3829 82.7694 62.1937C80.3482 74.8359 69.0602 84.4002 55.5 84.4002C48.0648 84.4002 41.3127 81.5244 36.3307 76.8428L32.3343 80.7725C30.6426 82.436 27.75 81.2578 27.75 78.9052V64.1546C27.75 62.6962 28.9523 61.5139 30.4355 61.5139Z" fill="white"/>
</g>
<defs>
<linearGradient id="paint0_linear_386_1978" x1="26.5435" y1="-7.70468" x2="99.9853" y2="113.99" gradientUnits="userSpaceOnUse">
<stop stop-color="#20DF59"/>
<stop offset="1" stop-color="#34A853"/>
</linearGradient>
</defs>
</svg>
