<svg width="128" height="28" viewBox="0 0 286 64" fill="none" xmlns="http://www.w3.org/2000/svg">
<rect width="286" height="64" fill="white"/>
<g filter="url(#filter0_i)">
<rect width="286" height="64" rx="8" ry="8" fill="#F7C657"/>
</g>
<rect x="1" y="1" width="284" height="62" rx="8" ry="8" stroke="#E0A92B" stroke-width="2"/>
<g filter="url(#filter1_d)">
<path d="M166.148 32.808L164.872 40H159.913L163.509 19.497H171.542C173.669 19.497 175.273 19.961 176.356 20.889C177.458 21.817 178.009 23.1027 178.009 24.746C178.009 25.1327 177.961 25.616 177.864 26.196C177.632 27.472 177.139 28.6127 176.385 29.618C175.631 30.604 174.645 31.387 173.427 31.967C172.209 32.5277 170.798 32.808 169.193 32.808H166.148ZM169.367 28.835C171.339 28.835 172.489 27.9553 172.818 26.196C172.857 25.8867 172.876 25.6643 172.876 25.529C172.876 24.1757 172.016 23.499 170.295 23.499H167.772L166.844 28.835H169.367ZM187.119 23.615C188.414 23.615 189.478 23.905 190.309 24.485C191.16 25.0457 191.701 25.7997 191.933 26.747L192.455 23.818H197.414L194.543 40H189.584L190.135 37.071C189.555 38.0377 188.762 38.8013 187.757 39.362C186.771 39.9227 185.65 40.203 184.393 40.203C182.634 40.203 181.242 39.6423 180.217 38.521C179.192 37.3803 178.68 35.8047 178.68 33.794C178.68 33.0013 178.748 32.228 178.883 31.474C179.173 29.8693 179.714 28.4773 180.507 27.298C181.319 26.0993 182.295 25.1907 183.436 24.572C184.596 23.934 185.824 23.615 187.119 23.615ZM188.192 27.965C187.129 27.965 186.201 28.313 185.408 29.009C184.635 29.705 184.142 30.6717 183.929 31.909C183.871 32.257 183.842 32.576 183.842 32.866C183.842 33.8133 184.103 34.548 184.625 35.07C185.166 35.592 185.882 35.853 186.771 35.853C187.815 35.853 188.733 35.4953 189.526 34.78C190.319 34.0647 190.821 33.1077 191.034 31.909C191.092 31.5803 191.121 31.271 191.121 30.981C191.121 30.0337 190.85 29.299 190.309 28.777C189.787 28.2357 189.081 27.965 188.192 27.965ZM204.162 23.818L206.279 33.736L211.644 23.818H217.154L202.828 47.714H197.347L202.654 39.391L198.623 23.818H204.162Z" fill="#072F96"/>
<path d="M221.967 32.808L220.691 40H215.732L219.328 19.497H227.361C229.488 19.497 231.093 19.961 232.175 20.889C233.277 21.817 233.828 23.1027 233.828 24.746C233.828 25.1327 233.78 25.616 233.683 26.196C233.451 27.472 232.958 28.6127 232.204 29.618C231.45 30.604 230.464 31.387 229.246 31.967C228.028 32.5277 226.617 32.808 225.012 32.808H221.967ZM225.186 28.835C227.158 28.835 228.309 27.9553 228.637 26.196C228.676 25.8867 228.695 25.6643 228.695 25.529C228.695 24.1757 227.835 23.499 226.114 23.499H223.591L222.663 28.835H225.186ZM242.938 23.615C244.234 23.615 245.297 23.905 246.128 24.485C246.979 25.0457 247.52 25.7997 247.752 26.747L248.274 23.818H253.233L250.362 40H245.403L245.954 37.071C245.374 38.0377 244.582 38.8013 243.576 39.362C242.59 39.9227 241.469 40.203 240.212 40.203C238.453 40.203 237.061 39.6423 236.036 38.521C235.012 37.3803 234.499 35.8047 234.499 33.794C234.499 33.0013 234.567 32.228 234.702 31.474C234.992 29.8693 235.534 28.4773 236.326 27.298C237.138 26.0993 238.115 25.1907 239.255 24.572C240.415 23.934 241.643 23.615 242.938 23.615ZM244.011 27.965C242.948 27.965 242.02 28.313 241.227 29.009C240.454 29.705 239.961 30.6717 239.748 31.909C239.69 32.257 239.661 32.576 239.661 32.866C239.661 33.8133 239.922 34.548 240.444 35.07C240.986 35.592 241.701 35.853 242.59 35.853C243.634 35.853 244.553 35.4953 245.345 34.78C246.138 34.0647 246.641 33.1077 246.853 31.909C246.911 31.5803 246.94 31.271 246.94 30.981C246.94 30.0337 246.67 29.299 246.128 28.777C245.606 28.2357 244.901 27.965 244.011 27.965ZM262.533 18.54L258.763 40H253.775L257.545 18.54H262.533Z" fill="#03A9F4"/>
</g>
<path d="M30.545 25.896C32.007 25.896 33.214 26.2587 34.166 26.984C35.118 27.698 35.7753 28.6783 36.138 29.925H34.506C34.2 29.1317 33.707 28.5027 33.027 28.038C32.347 27.562 31.514 27.324 30.528 27.324C29.746 27.324 29.0433 27.5167 28.42 27.902C27.808 28.276 27.3207 28.82 26.958 29.534C26.6067 30.2367 26.431 31.064 26.431 32.016C26.431 32.9567 26.6067 33.7783 26.958 34.481C27.3207 35.1837 27.808 35.7277 28.42 36.113C29.0433 36.487 29.746 36.674 30.528 36.674C31.514 36.674 32.347 36.4417 33.027 35.977C33.707 35.501 34.2 34.8663 34.506 34.073H36.138C35.7753 35.3197 35.118 36.3057 34.166 37.031C33.214 37.745 32.007 38.102 30.545 38.102C29.423 38.102 28.4313 37.847 27.57 37.337C26.7087 36.8157 26.0343 36.096 25.547 35.178C25.071 34.2487 24.833 33.1947 24.833 32.016C24.833 30.826 25.071 29.7663 25.547 28.837C26.0343 27.9077 26.7087 27.188 27.57 26.678C28.4313 26.1567 29.423 25.896 30.545 25.896ZM43.1198 28.514C44.2078 28.514 45.0862 28.8653 45.7548 29.568C46.4235 30.2593 46.7578 31.2623 46.7578 32.577V38H45.2108V32.713C45.2108 31.7837 44.9728 31.0697 44.4968 30.571C44.0208 30.0723 43.3748 29.823 42.5588 29.823C41.7088 29.823 41.0288 30.1007 40.5188 30.656C40.0088 31.2 39.7538 31.999 39.7538 33.053V38H38.2068V25.42H39.7538V30.877C39.9918 30.1177 40.4112 29.534 41.0118 29.126C41.6238 28.718 42.3265 28.514 43.1198 28.514ZM57.7156 32.815C57.7156 33.1437 57.693 33.427 57.6476 33.665H50.1846C50.2186 34.7303 50.519 35.5293 51.0856 36.062C51.6636 36.5947 52.3663 36.861 53.1936 36.861C53.9416 36.861 54.565 36.674 55.0636 36.3C55.5736 35.9147 55.8853 35.4047 55.9986 34.77H57.6476C57.5343 35.416 57.2793 35.994 56.8826 36.504C56.4973 37.014 55.993 37.4107 55.3696 37.694C54.7463 37.9773 54.0436 38.119 53.2616 38.119C52.3663 38.119 51.573 37.9263 50.8816 37.541C50.1903 37.1557 49.6463 36.606 49.2496 35.892C48.8643 35.1667 48.6716 34.3167 48.6716 33.342C48.6716 32.3673 48.8643 31.5173 49.2496 30.792C49.6463 30.0667 50.1903 29.5113 50.8816 29.126C51.573 28.7407 52.3663 28.548 53.2616 28.548C54.1683 28.548 54.956 28.7407 55.6246 29.126C56.3046 29.5113 56.8203 30.027 57.1716 30.673C57.5343 31.319 57.7156 32.033 57.7156 32.815ZM56.1516 32.917C56.1856 32.2257 56.0723 31.6477 55.8116 31.183C55.551 30.7183 55.194 30.3727 54.7406 30.146C54.2873 29.9193 53.7943 29.806 53.2616 29.806C52.4116 29.806 51.6976 30.0723 51.1196 30.605C50.5416 31.1263 50.23 31.897 50.1846 32.917H56.1516ZM63.87 28.548C65.06 28.548 66.046 28.8653 66.828 29.5C67.61 30.1347 68.0917 30.9847 68.273 32.05H66.641C66.5277 31.3813 66.216 30.86 65.706 30.486C65.2074 30.1007 64.584 29.908 63.836 29.908C63.292 29.908 62.7934 30.0327 62.34 30.282C61.898 30.5313 61.541 30.9167 61.269 31.438C60.997 31.948 60.861 32.5827 60.861 33.342C60.861 34.1013 60.997 34.7417 61.269 35.263C61.541 35.773 61.898 36.1527 62.34 36.402C62.7934 36.6513 63.292 36.776 63.836 36.776C64.584 36.776 65.2074 36.5833 65.706 36.198C66.216 35.8127 66.5277 35.2857 66.641 34.617H68.273C68.0917 35.6937 67.61 36.5493 66.828 37.184C66.046 37.8073 65.06 38.119 63.87 38.119C62.9747 38.119 62.1814 37.9263 61.49 37.541C60.7987 37.1557 60.2547 36.606 59.858 35.892C59.4727 35.1667 59.28 34.3167 59.28 33.342C59.28 32.3673 59.4727 31.5173 59.858 30.792C60.2547 30.0667 60.7987 29.5113 61.49 29.126C62.1814 28.7407 62.9747 28.548 63.87 28.548ZM75.4146 38L71.8446 33.801V38H70.2976V25.42H71.8446V32.73L75.3636 28.667H77.2506L73.0686 33.308L77.3526 38H75.4146ZM87.1478 28.548C88.0432 28.548 88.8422 28.7407 89.5448 29.126C90.2588 29.5113 90.8142 30.0667 91.2108 30.792C91.6188 31.5173 91.8228 32.3673 91.8228 33.342C91.8228 34.3167 91.6188 35.1667 91.2108 35.892C90.8142 36.606 90.2588 37.1557 89.5448 37.541C88.8422 37.9263 88.0432 38.119 87.1478 38.119C86.2525 38.119 85.4478 37.9263 84.7338 37.541C84.0312 37.1557 83.4758 36.606 83.0678 35.892C82.6598 35.1667 82.4558 34.3167 82.4558 33.342C82.4558 32.3673 82.6598 31.5173 83.0678 30.792C83.4758 30.0667 84.0312 29.5113 84.7338 29.126C85.4478 28.7407 86.2525 28.548 87.1478 28.548ZM87.1478 29.908C86.5925 29.908 86.0768 30.0327 85.6008 30.282C85.1362 30.5313 84.7565 30.9167 84.4618 31.438C84.1785 31.948 84.0368 32.5827 84.0368 33.342C84.0368 34.09 84.1785 34.7247 84.4618 35.246C84.7565 35.756 85.1362 36.1357 85.6008 36.385C86.0768 36.6343 86.5925 36.759 87.1478 36.759C87.7032 36.759 88.2132 36.6343 88.6778 36.385C89.1538 36.1357 89.5335 35.756 89.8168 35.246C90.1115 34.7247 90.2588 34.09 90.2588 33.342C90.2588 32.5827 90.1115 31.948 89.8168 31.438C89.5335 30.9167 89.1538 30.5313 88.6778 30.282C88.2132 30.0327 87.7032 29.908 87.1478 29.908ZM102.135 28.667V38H100.588V35.807C100.35 36.5663 99.9247 37.15 99.3127 37.558C98.712 37.9547 98.0093 38.153 97.2047 38.153C96.128 38.153 95.2553 37.8073 94.5867 37.116C93.918 36.4133 93.5837 35.4103 93.5837 34.107V28.667H95.1307V33.954C95.1307 34.8833 95.3687 35.603 95.8447 36.113C96.3207 36.6117 96.9667 36.861 97.7827 36.861C98.6327 36.861 99.3127 36.589 99.8227 36.045C100.333 35.4897 100.588 34.685 100.588 33.631V28.667H102.135ZM109.067 36.64V38H107.911C106.959 38 106.245 37.7733 105.769 37.32C105.304 36.8667 105.072 36.1073 105.072 35.042V30.01H103.678V28.667H105.072V26.338H106.636V28.667H109.05V30.01H106.636V35.076C106.636 35.6767 106.744 36.0903 106.959 36.317C107.186 36.5323 107.571 36.64 108.115 36.64H109.067ZM127.973 28.667L125.287 38H123.621L121.054 30.401L118.47 38H116.787L114.135 28.667H115.699L117.688 36.521L120.272 28.667H121.887L124.488 36.504L126.494 28.667H127.973ZM129.144 25.93C129.144 25.6467 129.24 25.42 129.433 25.25C129.625 25.0687 129.88 24.978 130.198 24.978C130.515 24.978 130.77 25.0687 130.963 25.25C131.155 25.42 131.252 25.6467 131.252 25.93C131.252 26.2133 131.155 26.4457 130.963 26.627C130.77 26.797 130.515 26.882 130.198 26.882C129.88 26.882 129.625 26.797 129.433 26.627C129.24 26.4457 129.144 26.2133 129.144 25.93ZM130.963 28.667V38H129.416V28.667H130.963ZM137.904 36.64V38H136.748C135.796 38 135.082 37.7733 134.606 37.32C134.141 36.8667 133.909 36.1073 133.909 35.042V30.01H132.515V28.667H133.909V26.338H135.473V28.667H137.887V30.01H135.473V35.076C135.473 35.6767 135.581 36.0903 135.796 36.317C136.023 36.5323 136.408 36.64 136.952 36.64H137.904ZM144.705 28.514C145.793 28.514 146.671 28.8653 147.34 29.568C148.008 30.2593 148.343 31.2623 148.343 32.577V38H146.796V32.713C146.796 31.7837 146.558 31.0697 146.082 30.571C145.606 30.0723 144.96 29.823 144.144 29.823C143.294 29.823 142.614 30.1007 142.104 30.656C141.594 31.2 141.339 31.999 141.339 33.053V38H139.792V25.42H141.339V30.877C141.577 30.1177 141.996 29.534 142.597 29.126C143.209 28.718 143.911 28.514 144.705 28.514Z" fill="#030303"/>
<defs>
<filter id="filter0_i" x="0" y="0" width="286" height="68" filterUnits="userSpaceOnUse" color-interpolation-filters="sRGB">
<feFlood flood-opacity="0" result="BackgroundImageFix"/>
<feBlend mode="normal" in="SourceGraphic" in2="BackgroundImageFix" result="shape"/>
<feColorMatrix in="SourceAlpha" type="matrix" values="0 0 0 0 0 0 0 0 0 0 0 0 0 0 0 0 0 0 127 0" result="hardAlpha"/>
<feOffset dy="4"/>
<feGaussianBlur stdDeviation="2"/>
<feComposite in2="hardAlpha" operator="arithmetic" k2="-1" k3="1"/>
<feColorMatrix type="matrix" values="0 0 0 0 0.976471 0 0 0 0 0.847059 0 0 0 0 0.501961 0 0 0 1 0"/>
<feBlend mode="normal" in2="shape" result="effect1_innerShadow"/>
</filter>
<filter id="filter1_d" x="157.913" y="18.54" width="106.62" height="33.174" filterUnits="userSpaceOnUse" color-interpolation-filters="sRGB">
<feFlood flood-opacity="0" result="BackgroundImageFix"/>
<feColorMatrix in="SourceAlpha" type="matrix" values="0 0 0 0 0 0 0 0 0 0 0 0 0 0 0 0 0 0 127 0"/>
<feOffset dy="2"/>
<feGaussianBlur stdDeviation="1"/>
<feColorMatrix type="matrix" values="0 0 0 0 0.979167 0 0 0 0 0.950608 0 0 0 0 0.950608 0 0 0 1 0"/>
<feBlend mode="normal" in2="BackgroundImageFix" result="effect1_dropShadow"/>
<feBlend mode="normal" in="SourceGraphic" in2="effect1_dropShadow" result="shape"/>
</filter>
</defs>
</svg>
