<svg width="387" height="38" viewBox="0 0 387 38" fill="none" xmlns="http://www.w3.org/2000/svg">
<rect x="0.5" y="0.5" width="59" height="37" rx="5.5" fill="white" stroke="#D9D9D9"/>
<g clip-path="url(#clip0)">
<path d="M19.0969 15.2629C19.2801 14.0803 19.0954 13.2761 18.4632 12.5472C17.7669 11.7449 16.5092 11.4014 14.9002 11.4014H10.2294C9.90052 11.4014 9.62038 11.6433 9.56938 11.9716L7.62422 24.4457C7.58597 24.6919 7.77376 24.9146 8.02029 24.9146H10.904L10.705 26.191C10.6714 26.4063 10.8356 26.6009 11.0512 26.6009H13.4817C13.7696 26.6009 14.0146 26.3891 14.0594 26.1019L14.0829 25.9768L14.5408 23.0403L14.5706 22.8781C14.6154 22.5905 14.8604 22.3791 15.1479 22.3791H15.5115C17.8662 22.3791 19.7101 21.4114 20.2488 18.6133C20.4737 17.444 20.3574 16.4682 19.7623 15.7819C19.5822 15.5744 19.3581 15.4028 19.0969 15.2629Z" fill="#159BD7"/>
<path d="M19.0969 15.2629C19.2801 14.0803 19.0954 13.2761 18.4632 12.5472C17.7669 11.7449 16.5092 11.4014 14.9002 11.4014H10.2294C9.90052 11.4014 9.62038 11.6433 9.56938 11.9716L7.62422 24.4457C7.58597 24.6919 7.77376 24.9146 8.02029 24.9146H10.904L11.6281 20.2691L11.6057 20.4145C11.6571 20.0862 11.9345 19.8439 12.2634 19.8439H13.6339C16.3256 19.8439 18.4331 18.7379 19.049 15.5396C19.0672 15.445 19.083 15.3532 19.0969 15.2629Z" fill="#222C65"/>
<path d="M12.4063 15.2785C12.4373 15.0808 12.5625 14.919 12.7313 14.8373C12.8082 14.8002 12.894 14.7795 12.9836 14.7795H16.6452C17.0791 14.7795 17.4833 14.808 17.8531 14.8682C17.9586 14.8854 18.0617 14.9053 18.1614 14.928C18.2615 14.9503 18.3581 14.9753 18.452 15.003C18.4991 15.0167 18.5451 15.0316 18.5907 15.0468C18.7723 15.1078 18.9412 15.1797 19.0969 15.2629C19.2801 14.0803 19.0954 13.2761 18.4632 12.5472C17.7669 11.7449 16.5092 11.4014 14.9002 11.4014H10.2294C9.90052 11.4014 9.62038 11.6433 9.56938 11.9716L7.62422 24.4457C7.58597 24.6919 7.77376 24.9146 8.02029 24.9146H10.904L11.6281 20.2691L12.4063 15.2785Z" fill="#253B80"/>
<path d="M40.0958 24.2692H40.4853C41.5213 24.2692 42.495 23.6963 42.7075 22.3801C42.8934 21.1709 42.2118 20.4905 41.0962 20.4905H40.8103C40.7403 20.4905 40.6808 20.5421 40.67 20.6117L40.0958 24.2692ZM39.1515 19.2118C39.1704 19.0922 39.272 19.0039 39.3922 19.0039H41.6453C43.5043 19.0039 44.8057 20.4815 44.5136 22.3801C44.2126 24.2782 42.4421 25.7558 40.5916 25.7558H38.2967C38.2094 25.7558 38.1426 25.6769 38.1565 25.5897L39.1515 19.2118Z" fill="#253B80"/>
<path d="M36.2337 20.6984L36.0892 21.6188H37.8798C37.9671 21.6188 38.0336 21.6977 38.0201 21.7849L37.8481 22.8971C37.8296 23.0171 37.7272 23.1054 37.6074 23.1054H36.0664C35.947 23.1054 35.845 23.1929 35.8261 23.3121L35.6734 24.2692H37.5699C37.6572 24.2692 37.7237 24.3482 37.7102 24.4353L37.5382 25.5475C37.5197 25.6675 37.4173 25.7558 37.2975 25.7558H33.874C33.7866 25.7558 33.7202 25.6769 33.7337 25.5897L34.7291 19.2118C34.7476 19.0922 34.8496 19.0039 34.9694 19.0039H38.3933C38.4806 19.0039 38.5471 19.0828 38.5336 19.17L38.3612 20.2822C38.3431 20.4022 38.2407 20.4905 38.1209 20.4905H36.4744C36.3547 20.4905 36.2526 20.5784 36.2337 20.6984Z" fill="#253B80"/>
<path d="M46.0286 25.7558H44.6677C44.5804 25.7558 44.514 25.6769 44.5275 25.5897L45.5228 19.2118C45.5414 19.0922 45.6434 19.0039 45.7632 19.0039H47.1241C47.2114 19.0039 47.2783 19.0828 47.2644 19.17L46.2694 25.5479C46.2504 25.6675 46.1488 25.7558 46.0286 25.7558Z" fill="#253B80"/>
<path d="M30.2808 22.0307H30.4489C31.0153 22.0307 31.6672 21.9228 31.7858 21.1889C31.9041 20.455 31.5262 20.3494 30.9207 20.3471H30.6749C30.6007 20.3471 30.5378 20.4018 30.5262 20.4757L30.2808 22.0307ZM33.2592 25.7558H31.4759C31.4002 25.7558 31.331 25.7117 31.2982 25.6425L30.1212 23.1589H30.1038L29.7228 25.5878C29.7078 25.6843 29.6251 25.7558 29.5281 25.7558H28.1274C28.04 25.7558 27.9736 25.6769 27.9871 25.5897L28.9883 19.1723C29.0033 19.0754 29.086 19.0039 29.183 19.0039H31.6085C32.9277 19.0039 33.8307 19.6397 33.6093 21.0814C33.459 22.0127 32.8214 22.8185 31.8477 22.9889L33.3809 25.5374C33.4385 25.6331 33.3701 25.7558 33.2592 25.7558Z" fill="#253B80"/>
<path d="M49.7095 25.7558H48.3486C48.2613 25.7558 48.1948 25.6769 48.2083 25.5897L49.0055 20.4905H47.7373C47.6504 20.4905 47.5835 20.412 47.5971 20.3248L47.7694 19.2122C47.7879 19.0922 47.8899 19.0039 48.0101 19.0039H52.2393C52.3266 19.0039 52.3931 19.0828 52.3796 19.17L52.2072 20.2822C52.1887 20.4022 52.0867 20.4905 51.9669 20.4905H50.7408L49.9499 25.5479C49.9313 25.6675 49.8293 25.7558 49.7095 25.7558Z" fill="#253B80"/>
<path d="M28.0756 20.9227C28.0555 21.0478 27.904 21.0931 27.8163 21.0021C27.5192 20.6941 27.0829 20.5312 26.6131 20.5312C25.5516 20.5312 24.7112 21.3542 24.5435 22.4008C24.3839 23.4657 24.9855 24.2348 26.0648 24.2348C26.5095 24.2348 26.9817 24.0636 27.3739 23.7776C27.4821 23.6986 27.6309 23.7932 27.6092 23.9265L27.3623 25.4713C27.3476 25.5636 27.2819 25.6386 27.1935 25.6648C26.6649 25.8219 26.2591 25.9348 25.7642 25.9348C22.8866 25.9348 22.4264 23.4489 22.5744 22.3918C22.9902 19.4287 25.3677 18.7495 26.8252 18.8316C27.2951 18.8577 27.7155 18.9207 28.1278 19.0774C28.2611 19.1282 28.3403 19.2669 28.3175 19.4092L28.0756 20.9227Z" fill="#253B80"/>
<path d="M36.8929 13.6682C36.811 14.2142 36.3987 14.2142 35.9999 14.2142H35.7735L35.9323 13.1954C35.942 13.1336 35.9945 13.0883 36.0564 13.0883H36.1603C36.4316 13.0883 36.6877 13.0883 36.8199 13.2446C36.8991 13.338 36.9231 13.4767 36.8929 13.6682ZM36.7194 12.2445H35.2163C35.1135 12.2445 35.0262 12.3203 35.01 12.4231L34.4022 16.321C34.3902 16.398 34.4489 16.4676 34.5258 16.4676H35.2971C35.3689 16.4676 35.4304 16.4148 35.4416 16.3429L35.6139 15.2377C35.6302 15.1349 35.7175 15.0595 35.8203 15.0595H36.2959C37.2859 15.0595 37.8574 14.5749 38.0069 13.6143C38.0742 13.1942 38.0096 12.864 37.8153 12.633C37.6012 12.379 37.2225 12.2445 36.7194 12.2445Z" fill="#159BD7"/>
<path d="M26.1714 13.6682C26.0895 14.2142 25.6772 14.2142 25.2788 14.2142H25.052L25.2108 13.1954C25.2205 13.1336 25.273 13.0883 25.3349 13.0883H25.4388C25.7101 13.0883 25.9662 13.0883 26.0984 13.2446C26.1776 13.338 26.2016 13.4767 26.1714 13.6682ZM25.9979 12.2445H24.4948C24.392 12.2445 24.3047 12.3203 24.2885 12.4231L23.6807 16.321C23.6687 16.398 23.7274 16.4676 23.8043 16.4676H24.5223C24.625 16.4676 24.7124 16.3921 24.7286 16.2894L24.8924 15.2377C24.9087 15.1349 24.996 15.0595 25.0988 15.0595H25.5744C26.5644 15.0595 27.1359 14.5749 27.2854 13.6143C27.3527 13.1942 27.2881 12.864 27.0938 12.633C26.8797 12.379 26.501 12.2445 25.9979 12.2445Z" fill="#253B80"/>
<path d="M29.4879 15.0677C29.4184 15.4839 29.0919 15.763 28.6753 15.763C28.4667 15.763 28.2993 15.6953 28.1919 15.5664C28.0857 15.439 28.0455 15.2576 28.0795 15.0552C28.144 14.6429 28.4759 14.3549 28.8859 14.3549C29.0903 14.3549 29.2565 14.4233 29.3658 14.553C29.4763 14.6839 29.5196 14.8664 29.4879 15.0677ZM30.491 13.651H29.7712C29.7097 13.651 29.6572 13.6964 29.6475 13.7577L29.6158 13.9613L29.5656 13.8879C29.4095 13.6589 29.0621 13.5823 28.7151 13.5823C27.9199 13.5823 27.2406 14.1919 27.1084 15.0466C27.0397 15.4734 27.1374 15.8806 27.3766 16.1651C27.5961 16.4265 27.9095 16.5352 28.2831 16.5352C28.9242 16.5352 29.2796 16.1186 29.2796 16.1186L29.2472 16.321C29.2352 16.398 29.2939 16.4676 29.3712 16.4676H30.0192C30.122 16.4676 30.2097 16.3921 30.2256 16.2894L30.6147 13.7972C30.6267 13.7206 30.5679 13.651 30.491 13.651Z" fill="#253B80"/>
<path d="M40.2094 15.0677C40.1399 15.4839 39.8134 15.763 39.3968 15.763C39.1882 15.763 39.0209 15.6953 38.9134 15.5664C38.8072 15.439 38.767 15.2576 38.801 15.0552C38.8655 14.6429 39.1975 14.3549 39.6074 14.3549C39.8118 14.3549 39.978 14.4233 40.0873 14.553C40.1975 14.6839 40.2411 14.8664 40.2094 15.0677ZM41.2125 13.651H40.4927C40.4308 13.651 40.3787 13.6964 40.369 13.7577L40.3373 13.9613L40.2871 13.8879C40.131 13.6589 39.7836 13.5823 39.4366 13.5823C38.6414 13.5823 37.9621 14.1919 37.83 15.0466C37.7612 15.4734 37.859 15.8806 38.0978 16.1651C38.3176 16.4265 38.631 16.5352 39.0046 16.5352C39.6457 16.5352 40.0012 16.1186 40.0012 16.1186L39.9687 16.321C39.9567 16.398 40.0159 16.4676 40.0927 16.4676H40.7407C40.8435 16.4676 40.9312 16.3921 40.9471 16.2894L41.3362 13.7972C41.3482 13.7206 41.2894 13.651 41.2125 13.651Z" fill="#159BD7"/>
<path d="M34.3249 13.651H33.6011C33.532 13.651 33.4674 13.6858 33.4284 13.7437L32.4303 15.2303L32.0076 13.8015C31.9809 13.7124 31.8998 13.651 31.8075 13.651H31.0961C31.0103 13.651 30.95 13.7362 30.9775 13.8187L31.7742 16.1835L31.025 17.2527C30.9663 17.3367 31.0254 17.4528 31.127 17.4528H31.85C31.9183 17.4528 31.9825 17.4188 32.0215 17.3617L34.4276 13.85C34.4852 13.7659 34.4257 13.651 34.3249 13.651Z" fill="#253B80"/>
<path d="M42.0611 12.3516L41.444 16.3214C41.432 16.3984 41.4908 16.4676 41.5676 16.4676H42.1882C42.291 16.4676 42.3787 16.3921 42.3945 16.2894L43.0027 12.3911C43.0147 12.3141 42.956 12.2445 42.8791 12.2445H42.1847C42.1229 12.2445 42.0704 12.2899 42.0611 12.3516Z" fill="#159BD7"/>
</g>
<rect x="65.5" y="0.5" width="59" height="37" rx="5.5" fill="white" stroke="#D9D9D9"/>
<g clip-path="url(#clip1)">
<path d="M89.1292 15.3871H86.5502C86.4648 15.387 86.3822 15.4173 86.3173 15.4725C86.2524 15.5276 86.2094 15.604 86.1961 15.688L85.153 22.2675C85.1482 22.298 85.1501 22.3292 85.1586 22.359C85.1671 22.3887 85.182 22.4162 85.2022 22.4397C85.2224 22.4632 85.2475 22.482 85.2757 22.4949C85.3039 22.5078 85.3346 22.5144 85.3657 22.5144H86.5969C86.6824 22.5144 86.765 22.4841 86.8299 22.4288C86.8949 22.3736 86.9378 22.2971 86.951 22.2131L87.2324 20.4385C87.2456 20.3546 87.2885 20.2781 87.3533 20.2229C87.4182 20.1677 87.5007 20.1373 87.5861 20.1372H88.4025C90.1014 20.1372 91.0818 19.3193 91.3379 17.6985C91.4533 16.9895 91.3428 16.4323 91.0091 16.0421C90.6425 15.6137 89.9924 15.3871 89.1292 15.3871V15.3871ZM89.4267 17.7901C89.2857 18.7108 88.5786 18.7108 87.8949 18.7108H87.5058L87.7788 16.9913C87.7868 16.941 87.8125 16.8952 87.8515 16.8621C87.8904 16.829 87.9399 16.8109 87.9911 16.8109H88.1695C88.6352 16.8109 89.0745 16.8109 89.3015 17.075C89.4369 17.2326 89.4784 17.4667 89.4267 17.7901V17.7901ZM96.8384 17.7605H95.6033C95.5521 17.7605 95.5026 17.7786 95.4637 17.8117C95.4248 17.8448 95.399 17.8906 95.391 17.9409L95.3363 18.2846L95.25 18.16C94.9826 17.774 94.3864 17.6449 93.7913 17.6449C92.4266 17.6449 91.261 18.6733 91.034 20.1158C90.9159 20.8354 91.0837 21.5235 91.494 22.0034C91.8704 22.4446 92.4089 22.6284 93.0496 22.6284C94.1492 22.6284 94.759 21.925 94.759 21.925L94.7039 22.2664C94.699 22.2969 94.7008 22.3281 94.7092 22.3579C94.7176 22.3877 94.7324 22.4153 94.7525 22.4388C94.7727 22.4623 94.7977 22.4812 94.8259 22.4942C94.8541 22.5072 94.8848 22.514 94.9159 22.514H96.0283C96.1138 22.514 96.1964 22.4837 96.2613 22.4285C96.3263 22.3732 96.3692 22.2967 96.3824 22.2127L97.0499 18.0073C97.0548 17.9769 97.053 17.9457 97.0447 17.916C97.0363 17.8863 97.0215 17.8588 97.0014 17.8353C96.9813 17.8118 96.9563 17.793 96.9282 17.7801C96.9 17.7671 96.8694 17.7604 96.8384 17.7605V17.7605ZM95.1169 20.1519C94.9977 20.8538 94.4377 21.3251 93.7235 21.3251C93.3648 21.3251 93.0782 21.2106 92.8942 20.9938C92.7117 20.7784 92.6423 20.4719 92.7004 20.1305C92.8116 19.4345 93.3811 18.9479 94.0844 18.9479C94.4351 18.9479 94.7202 19.0638 94.908 19.2826C95.0961 19.5035 95.1708 19.8119 95.1169 20.1519V20.1519ZM103.416 17.7605H102.175C102.116 17.7605 102.059 17.7748 102.007 17.8021C101.955 17.8294 101.911 17.8688 101.878 17.9169L100.166 20.4254L99.4408 18.0148C99.4185 17.9413 99.373 17.8769 99.3111 17.8311C99.2491 17.7852 99.174 17.7605 99.0968 17.7605H97.8773C97.843 17.7604 97.8093 17.7684 97.7788 17.7839C97.7483 17.7994 97.722 17.822 97.7021 17.8496C97.6821 17.8773 97.6691 17.9093 97.6641 17.943C97.6591 17.9767 97.6622 18.0111 97.6733 18.0433L99.0403 22.0345L97.7551 23.8395C97.7323 23.8715 97.7187 23.9092 97.7159 23.9483C97.7132 23.9875 97.7213 24.0266 97.7394 24.0615C97.7575 24.0964 97.7849 24.1256 97.8186 24.146C97.8523 24.1664 97.891 24.1772 97.9305 24.1772H99.17C99.2279 24.1773 99.2849 24.1634 99.3362 24.1367C99.3875 24.1101 99.4315 24.0714 99.4645 24.0241L103.592 18.0962C103.615 18.0642 103.628 18.0266 103.63 17.9877C103.633 17.9487 103.624 17.9098 103.606 17.8752C103.588 17.8406 103.561 17.8116 103.527 17.7914C103.494 17.7712 103.455 17.7605 103.416 17.7605V17.7605Z" fill="#253B80"/>
<path d="M107.525 15.387H104.945C104.86 15.3871 104.778 15.4174 104.713 15.4726C104.648 15.5277 104.605 15.6041 104.592 15.6879L103.549 22.2675C103.544 22.298 103.546 22.3291 103.554 22.3588C103.562 22.3885 103.577 22.4161 103.597 22.4395C103.617 22.463 103.643 22.4818 103.671 22.4948C103.699 22.5077 103.729 22.5144 103.761 22.5144H105.084C105.144 22.5143 105.202 22.493 105.247 22.4543C105.292 22.4157 105.322 22.3622 105.332 22.3035L105.628 20.4385C105.641 20.3546 105.684 20.2781 105.749 20.2229C105.813 20.1676 105.896 20.1373 105.981 20.1372H106.797C108.497 20.1372 109.477 19.3193 109.733 17.6985C109.849 16.9894 109.738 16.4323 109.404 16.0421C109.038 15.6137 108.388 15.387 107.525 15.387V15.387ZM107.822 17.7901C107.682 18.7108 106.975 18.7108 106.291 18.7108H105.902L106.175 16.9913C106.183 16.941 106.209 16.8952 106.248 16.8621C106.286 16.829 106.336 16.8108 106.387 16.8109H106.565C107.031 16.8109 107.47 16.8109 107.697 17.075C107.833 17.2326 107.874 17.4667 107.822 17.7901V17.7901ZM115.234 17.7604H113.999C113.948 17.7603 113.899 17.7784 113.86 17.8116C113.821 17.8447 113.795 17.8906 113.787 17.9409L113.733 18.2846L113.646 18.16C113.379 17.774 112.783 17.6449 112.188 17.6449C110.823 17.6449 109.658 18.6733 109.431 20.1158C109.313 20.8354 109.48 21.5235 109.89 22.0034C110.267 22.4446 110.805 22.6284 111.446 22.6284C112.546 22.6284 113.155 21.925 113.155 21.925L113.1 22.2664C113.095 22.297 113.097 22.3282 113.106 22.3581C113.114 22.3879 113.129 22.4155 113.149 22.4391C113.169 22.4626 113.194 22.4815 113.223 22.4945C113.251 22.5074 113.282 22.5141 113.313 22.514H114.425C114.51 22.5139 114.593 22.4836 114.658 22.4283C114.723 22.3731 114.766 22.2966 114.779 22.2127L115.447 18.0073C115.451 17.9768 115.449 17.9456 115.441 17.9158C115.432 17.8861 115.417 17.8586 115.397 17.8351C115.377 17.8117 115.352 17.7928 115.324 17.78C115.295 17.7671 115.265 17.7604 115.234 17.7604V17.7604ZM113.512 20.1519C113.394 20.8538 112.833 21.325 112.119 21.325C111.761 21.325 111.473 21.2106 111.289 20.9938C111.107 20.7784 111.038 20.4719 111.096 20.1305C111.208 19.4345 111.776 18.9479 112.48 18.9479C112.83 18.9479 113.115 19.0638 113.303 19.2826C113.492 19.5035 113.567 19.8119 113.512 20.1519V20.1519ZM116.69 15.5675L115.631 22.2675C115.626 22.298 115.628 22.3291 115.636 22.3588C115.645 22.3885 115.66 22.4161 115.68 22.4395C115.7 22.463 115.725 22.4818 115.753 22.4948C115.781 22.5077 115.812 22.5144 115.843 22.5144H116.907C117.084 22.5144 117.234 22.3868 117.261 22.2131L118.305 15.6339C118.31 15.6034 118.308 15.5722 118.3 15.5425C118.291 15.5128 118.276 15.4853 118.256 15.4618C118.236 15.4383 118.211 15.4194 118.183 15.4064C118.155 15.3935 118.124 15.3867 118.093 15.3867H116.902C116.85 15.3869 116.801 15.4052 116.762 15.4383C116.723 15.4714 116.698 15.5172 116.69 15.5675V15.5675Z" fill="#179BD7"/>
<path d="M74.4428 23.793L74.64 22.5466L74.2007 22.5365H72.1029L73.5608 13.3397C73.5651 13.3116 73.5795 13.286 73.6012 13.2675C73.6229 13.2491 73.6506 13.239 73.6792 13.2391H77.2164C78.3907 13.2391 79.2011 13.4823 79.6242 13.9621C79.8226 14.1872 79.9489 14.4225 80.01 14.6813C80.0741 14.953 80.0753 15.2775 80.0127 15.6733L80.0081 15.7022V15.9558L80.2065 16.0676C80.3579 16.144 80.494 16.2472 80.6081 16.3723C80.7778 16.5647 80.8875 16.8094 80.9339 17.0994C80.9818 17.3976 80.966 17.7526 80.8875 18.1544C80.797 18.6166 80.6507 19.0192 80.4531 19.3486C80.2788 19.6437 80.0444 19.8993 79.7649 20.099C79.5024 20.2843 79.1906 20.425 78.838 20.515C78.4963 20.6036 78.1068 20.6482 77.6795 20.6482H77.4042C77.2074 20.6482 77.0162 20.7188 76.8661 20.8452C76.7162 20.973 76.6168 21.1495 76.5855 21.3434L76.5648 21.4556L76.2163 23.6523L76.2005 23.733C76.1964 23.7585 76.1892 23.7712 76.1786 23.7799C76.1684 23.7882 76.1556 23.7928 76.1424 23.793H74.4428Z" fill="#253B80"/>
<path d="M80.3943 15.7315C80.3837 15.7986 80.3717 15.8673 80.3581 15.9378C79.8916 18.3206 78.2957 19.1437 76.2575 19.1437H75.2197C74.9704 19.1437 74.7603 19.3238 74.7215 19.5685L74.1902 22.9211L74.0397 23.8714C74.0337 23.9091 74.036 23.9476 74.0464 23.9844C74.0568 24.0211 74.0751 24.0552 74.1 24.0842C74.1249 24.1132 74.1559 24.1365 74.1907 24.1525C74.2255 24.1685 74.2634 24.1768 74.3018 24.1768H76.1424C76.3604 24.1768 76.5456 24.0192 76.5799 23.8054L76.598 23.7123L76.9445 21.5243L76.9668 21.4042C77.0007 21.1896 77.1863 21.032 77.4042 21.032H77.6795C79.4629 21.032 80.8589 20.3117 81.2669 18.2272C81.4374 17.3564 81.3491 16.6293 80.8981 16.1179C80.7552 15.9597 80.5844 15.8288 80.3943 15.7315V15.7315Z" fill="#179BD7"/>
<path d="M79.9064 15.5379C79.7574 15.495 79.6059 15.4616 79.4527 15.4377C79.15 15.3914 78.8441 15.3692 78.5378 15.3713H75.7654C75.6598 15.3712 75.5578 15.4087 75.4776 15.477C75.3975 15.5452 75.3445 15.6397 75.3283 15.7435L74.7385 19.46L74.7215 19.5685C74.7399 19.4501 74.8002 19.3423 74.8916 19.2644C74.983 19.1865 75.0994 19.1437 75.2197 19.1437H76.2575C78.2957 19.1437 79.8916 18.3202 80.3581 15.9378C80.3721 15.8673 80.3838 15.7986 80.3943 15.7315C80.2712 15.6672 80.1429 15.6134 80.0108 15.5705C79.9762 15.5591 79.9413 15.5482 79.9064 15.5379V15.5379Z" fill="#222D65"/>
<path d="M75.3289 15.7435C75.345 15.6397 75.398 15.5451 75.4782 15.4769C75.5584 15.4087 75.6605 15.3713 75.766 15.3717H78.5385C78.867 15.3717 79.1735 15.3931 79.4534 15.4381C79.6427 15.4677 79.8294 15.512 80.0118 15.5705C80.1495 15.6159 80.2773 15.6696 80.3954 15.7315C80.5341 14.8509 80.3942 14.2514 79.9157 13.7085C79.3881 13.1108 78.4359 12.855 77.2175 12.855H73.6802C73.4314 12.855 73.219 13.035 73.1806 13.28L71.7072 22.5714C71.7004 22.6145 71.703 22.6586 71.7149 22.7007C71.7268 22.7427 71.7477 22.7817 71.7762 22.8149C71.8047 22.8482 71.8401 22.8748 71.8799 22.8932C71.9198 22.9115 71.9631 22.921 72.007 22.9211H74.1908L74.7392 19.46L75.3289 15.7435Z" fill="#253B80"/>
</g>
<rect x="130.5" y="0.5" width="60" height="37" rx="5.5" fill="white" stroke="#D9D9D9"/>
<g clip-path="url(#clip2)">
<path d="M178.081 24.716V24.3057H177.972L177.846 24.5872L177.72 24.3057H177.611V24.716H177.688V24.4069L177.806 24.6736H177.886L178.004 24.4062V24.716H178.081H178.081ZM177.389 24.716V24.3759H177.529V24.3067H177.173V24.3759H177.312V24.716H177.389H177.389Z" fill="#F79410"/>
<path d="M165.7 26.4756H156.273V9.85912H165.7L165.7 26.4756Z" fill="#FF5F00"/>
<path d="M156.871 18.167C156.871 14.7964 158.48 11.7938 160.986 9.8588C159.089 8.39195 156.743 7.59584 154.328 7.59934C148.378 7.59934 143.556 12.3306 143.556 18.167C143.556 24.0035 148.378 28.7347 154.328 28.7347C156.743 28.7382 159.089 27.9421 160.986 26.4752C158.48 24.5406 156.871 21.5378 156.871 18.167Z" fill="#EB001B"/>
<path d="M178.417 18.1677C178.417 24.0041 173.594 28.7354 167.645 28.7354C165.229 28.7388 162.883 27.9427 160.986 26.4759C163.492 24.5409 165.101 21.5385 165.101 18.1677C165.101 14.7969 163.492 11.7945 160.986 9.85946C162.883 8.39266 165.229 7.59656 167.644 7.6C173.594 7.6 178.417 12.3312 178.417 18.1677" fill="#F79E1B"/>
</g>
<rect x="196.5" y="0.5" width="60" height="37" rx="5.5" fill="white" stroke="#D9D9D9"/>
<path d="M217.869 11.6689L214.331 18.2465C213.562 19.6869 212.814 21.0792 212.225 22.5196L212.182 22.5196C212.088 21.0792 211.972 19.7061 211.803 18.2465L211.435 14.7993L211.098 11.6689L202.778 11.6689L202.778 12.149L203.062 12.149C206.917 12.341 207.896 14.3864 208.149 15.433L207.685 12.149L208.17 15.529C208.159 15.5002 208.159 15.4618 208.149 15.433L208.233 16.0476L208.233 15.9708L209.581 25.4964L213.488 25.4964L221.629 11.6689L217.869 11.6689ZM226.895 11.6209L223.904 25.458L220.534 25.458L223.525 11.6209L226.895 11.6209ZM227.127 22.2603C228.064 22.7501 229.401 23.1438 230.844 23.1438C232.15 23.1438 233.351 22.606 233.351 21.521C233.351 20.7432 232.677 20.2246 231.223 19.5717C229.538 18.7747 227.948 17.7088 227.948 15.8939C227.948 13.0996 230.728 11.4 234.172 11.4C236.089 11.4 237.216 11.7649 237.89 12.101L236.384 14.5592C235.868 14.3095 235.468 13.8198 233.888 13.839C232.319 13.8582 231.497 14.636 231.497 15.3946C231.497 16.1916 232.456 16.6909 233.793 17.3439C235.71 18.2273 236.931 19.3508 236.931 20.9928C236.931 24.0752 234.025 25.65 230.518 25.65C228.317 25.65 226.526 24.853 225.779 24.3537L227.127 22.2603ZM241.818 21.8666L239.943 25.458L236.363 25.458L244.04 11.6209L248.369 11.6209L250.222 25.458L246.684 25.458L246.357 21.8666L241.818 21.8666ZM246.22 19.6101L245.915 16.6333C245.841 15.8747 245.746 14.7704 245.683 13.9254L245.641 13.9254C245.241 14.7704 244.798 15.8363 244.377 16.6333L242.808 19.6101L246.22 19.6101Z" fill="#161E6F"/>
<rect x="262.5" y="0.5" width="59" height="37" rx="5.5" fill="white" stroke="#D9D9D9"/>
<path d="M287.286 37.1292L321.143 27.1146V32.1292C321.143 34.8906 318.904 37.1292 316.143 37.1292H287.286Z" fill="#FD6020"/>
<path fill-rule="evenodd" clip-rule="evenodd" d="M314.717 12.9389C316.579 12.9389 317.604 13.7811 317.604 15.3718C317.697 16.5883 316.859 17.6176 315.741 17.8048L318.256 21.267H316.3L314.158 17.8984H313.972V21.267H312.388V12.9389H314.717ZM313.972 16.7754H314.437C315.462 16.7754 315.927 16.3076 315.927 15.4654C315.927 14.7168 315.462 14.2489 314.437 14.2489H313.972V16.7754ZM306.893 21.267H311.364V19.8634H308.477V17.6176H311.271V16.214H308.477V14.3425H311.364V12.9389H306.893V21.267V21.267ZM302.237 18.5534L300.095 12.9389H298.418L301.864 21.4542H302.702L306.148 12.9389H304.472L302.237 18.5534V18.5534ZM283.331 17.1497C283.331 19.4891 285.193 21.4542 287.522 21.4542C288.267 21.4542 288.919 21.267 289.571 20.9863V19.1148C289.105 19.6763 288.453 20.0506 287.708 20.0506C286.218 20.0506 285.007 18.9277 285.007 17.4305V17.2433C284.914 15.7461 286.125 14.4361 287.615 14.3425C288.36 14.3425 289.105 14.7168 289.571 15.2783V13.4068C289.012 13.0325 288.267 12.9389 287.615 12.9389C285.193 12.7517 283.331 14.7168 283.331 17.1497V17.1497ZM280.444 16.1204C279.512 15.7461 279.233 15.559 279.233 15.0911C279.326 14.5297 279.792 14.0618 280.35 14.1554C280.816 14.1554 281.282 14.4361 281.654 14.8104L282.492 13.6875C281.841 13.126 281.002 12.7517 280.164 12.7517C278.86 12.6582 277.743 13.6875 277.65 14.9975V15.0911C277.65 16.214 278.115 16.869 279.605 17.3369C279.978 17.4305 280.35 17.6176 280.723 17.8048C281.002 17.9919 281.189 18.2726 281.189 18.6469C281.189 19.302 280.63 19.8634 280.071 19.8634H279.978C279.233 19.8634 278.581 19.3955 278.301 18.7405L277.277 19.7698C277.836 20.7991 278.953 21.3606 280.071 21.3606C281.561 21.4542 282.772 20.3313 282.865 18.8341V18.5534C282.772 17.4305 282.306 16.869 280.444 16.1204V16.1204ZM275.042 21.267H276.625V12.9389H275.042V21.267V21.267ZM267.684 12.9389H270.013H270.478C272.713 13.0325 274.483 14.904 274.39 17.1498C274.39 18.3662 273.831 19.4891 272.9 20.3313C272.062 20.9863 271.037 21.3606 270.013 21.267H267.684V12.9389ZM269.733 19.8634C270.478 19.957 271.316 19.6763 271.875 19.2084C272.434 18.6469 272.713 17.8983 272.713 17.0562C272.713 16.3076 272.434 15.559 271.875 14.9975C271.316 14.5297 270.478 14.2489 269.733 14.3425H269.267V19.8634H269.733Z" fill="black"/>
<path fill-rule="evenodd" clip-rule="evenodd" d="M294.32 12.7458C291.992 12.7458 290.036 14.6173 290.036 17.0503C290.036 19.3896 291.899 21.3547 294.32 21.4483C296.742 21.5418 298.605 19.5768 298.698 17.1438C298.605 14.7109 296.742 12.7458 294.32 12.7458V12.7458Z" fill="#FD6020"/>
<rect x="327.5" y="0.5" width="59" height="37" rx="5.5" fill="#1F72CD" stroke="#D9D9D9"/>
<path fill-rule="evenodd" clip-rule="evenodd" d="M338.835 13.3L333.667 24.774H339.854L340.621 22.9446H342.374L343.141 24.774H349.951V23.3777L350.558 24.774H354.081L354.688 23.3482V24.774H368.851L370.573 22.9921L372.186 24.774L379.46 24.7888L374.276 19.069L379.46 13.3H372.299L370.622 15.049L369.06 13.3H353.652L352.329 16.2615L350.975 13.3H344.801V14.6488L344.114 13.3H338.835ZM340.032 14.9293H343.048L346.476 22.7099V14.9293H349.78L352.427 20.508L354.868 14.9293H358.155V23.1627H356.155L356.138 16.7111L353.222 23.1627H351.433L348.501 16.7111V23.1627H344.386L343.606 21.3169H339.391L338.612 23.1611H336.408L340.032 14.9293ZM368.118 14.9293H359.985V23.1578H367.992L370.573 20.4308L373.061 23.1578H375.661L371.882 19.0674L375.661 14.9293H373.174L370.606 17.6251L368.118 14.9293ZM341.499 16.3224L340.111 19.6105H342.886L341.499 16.3224ZM361.993 18.137V16.634V16.6326H367.068L369.283 19.0363L366.97 21.4531H361.993V19.8122H366.43V18.137H361.993Z" fill="white"/>
<defs>
<clipPath id="clip0">
<rect width="44.7619" height="15.2" fill="white" transform="translate(7.61905 11.4)"/>
</clipPath>
<clipPath id="clip1">
<rect width="46.6667" height="12.35" fill="white" transform="translate(71.6667 12.35)"/>
</clipPath>
<clipPath id="clip2">
<rect width="34.8571" height="21.85" fill="white" transform="translate(143.556 7.6)"/>
</clipPath>
</defs>
</svg>
