<svg width="225" height="48" viewBox="0 0 348 64" fill="none" xmlns="http://www.w3.org/2000/svg">
<rect width="348" height="64" rx="8" ry="8" fill="#123F8F"/>
<path d="M1 4C1 2.34315 2.34315 1 4 1H89V63H4C2.34315 63 1 61.6569 1 60V4Z" fill="#FDFFFE" stroke="#123F8F"  stroke-width="2"/>
<path d="M56.889 22.4642C56.6647 22.332 56.3886 22.3228 56.156 22.4396C55.9237 22.5568 55.7666 22.7837 55.7388 23.0424C55.7112 23.2939 55.6683 23.5454 55.6146 23.8092C54.1132 30.6232 51.098 33.9373 46.3943 33.9373H39.493C39.1291 33.938 38.8158 34.1943 38.743 34.5508L36.4425 45.3338L36.0316 48.0791C35.7953 49.3274 36.6157 50.531 37.8639 50.7673C38.0016 50.7933 38.1413 50.8068 38.2814 50.8074H42.8976C43.9557 50.8106 44.8782 50.0885 45.1291 49.0606L46.994 41.6056H50.9952C55.7173 41.6056 58.9809 37.8405 60.1848 31.0035C60.9795 27.748 59.6647 24.3417 56.889 22.4642Z" fill="#03A9F4"/>
<path d="M55.4428 16.733C53.9275 15.0142 51.7529 14.0205 49.4616 14.0001H36.763C34.8626 13.9898 33.2447 15.3803 32.9689 17.2605L29.0259 43.564C28.837 44.8204 29.7024 45.992 30.9588 46.1809C31.0728 46.1981 31.188 46.2066 31.3033 46.2065H37.1925C37.5564 46.2058 37.8697 45.9496 37.9425 45.5931L40.1126 35.471H46.4005C51.8572 35.471 55.4628 31.6569 57.1192 24.1221C57.1857 23.8217 57.2369 23.5182 57.2725 23.2126C57.657 20.8881 56.9863 18.5131 55.4428 16.733Z" fill="#283593"/>
<path d="M120.148 33.808L118.872 41H113.913L117.509 20.497H125.542C127.669 20.497 129.273 20.961 130.356 21.889C131.458 22.817 132.009 24.1027 132.009 25.746C132.009 26.1327 131.961 26.616 131.864 27.196C131.632 28.472 131.139 29.6127 130.385 30.618C129.631 31.604 128.645 32.387 127.427 32.967C126.209 33.5277 124.798 33.808 123.193 33.808H120.148ZM123.367 29.835C125.339 29.835 126.489 28.9553 126.818 27.196C126.857 26.8867 126.876 26.6643 126.876 26.529C126.876 25.1757 126.016 24.499 124.295 24.499H121.772L120.844 29.835H123.367ZM141.119 24.615C142.414 24.615 143.478 24.905 144.309 25.485C145.16 26.0457 145.701 26.7997 145.933 27.747L146.455 24.818H151.414L148.543 41H143.584L144.135 38.071C143.555 39.0377 142.762 39.8013 141.757 40.362C140.771 40.9227 139.65 41.203 138.393 41.203C136.634 41.203 135.242 40.6423 134.217 39.521C133.192 38.3803 132.68 36.8047 132.68 34.794C132.68 34.0013 132.748 33.228 132.883 32.474C133.173 30.8693 133.714 29.4773 134.507 28.298C135.319 27.0993 136.295 26.1907 137.436 25.572C138.596 24.934 139.824 24.615 141.119 24.615ZM142.192 28.965C141.129 28.965 140.201 29.313 139.408 30.009C138.635 30.705 138.142 31.6717 137.929 32.909C137.871 33.257 137.842 33.576 137.842 33.866C137.842 34.8133 138.103 35.548 138.625 36.07C139.166 36.592 139.882 36.853 140.771 36.853C141.815 36.853 142.733 36.4953 143.526 35.78C144.319 35.0647 144.821 34.1077 145.034 32.909C145.092 32.5803 145.121 32.271 145.121 31.981C145.121 31.0337 144.85 30.299 144.309 29.777C143.787 29.2357 143.081 28.965 142.192 28.965ZM158.162 24.818L160.279 34.736L165.644 24.818H171.154L156.828 48.714H151.347L156.654 40.391L152.623 24.818H158.162ZM175.967 33.808L174.691 41H169.732L173.328 20.497H181.361C183.488 20.497 185.093 20.961 186.175 21.889C187.277 22.817 187.828 24.1027 187.828 25.746C187.828 26.1327 187.78 26.616 187.683 27.196C187.451 28.472 186.958 29.6127 186.204 30.618C185.45 31.604 184.464 32.387 183.246 32.967C182.028 33.5277 180.617 33.808 179.012 33.808H175.967ZM179.186 29.835C181.158 29.835 182.309 28.9553 182.637 27.196C182.676 26.8867 182.695 26.6643 182.695 26.529C182.695 25.1757 181.835 24.499 180.114 24.499H177.591L176.663 29.835H179.186ZM196.938 24.615C198.234 24.615 199.297 24.905 200.128 25.485C200.979 26.0457 201.52 26.7997 201.752 27.747L202.274 24.818H207.233L204.362 41H199.403L199.954 38.071C199.374 39.0377 198.582 39.8013 197.576 40.362C196.59 40.9227 195.469 41.203 194.212 41.203C192.453 41.203 191.061 40.6423 190.036 39.521C189.012 38.3803 188.499 36.8047 188.499 34.794C188.499 34.0013 188.567 33.228 188.702 32.474C188.992 30.8693 189.534 29.4773 190.326 28.298C191.138 27.0993 192.115 26.1907 193.255 25.572C194.415 24.934 195.643 24.615 196.938 24.615ZM198.011 28.965C196.948 28.965 196.02 29.313 195.227 30.009C194.454 30.705 193.961 31.6717 193.748 32.909C193.69 33.257 193.661 33.576 193.661 33.866C193.661 34.8133 193.922 35.548 194.444 36.07C194.986 36.592 195.701 36.853 196.59 36.853C197.634 36.853 198.553 36.4953 199.345 35.78C200.138 35.0647 200.641 34.1077 200.853 32.909C200.911 32.5803 200.94 32.271 200.94 31.981C200.94 31.0337 200.67 30.299 200.128 29.777C199.606 29.2357 198.901 28.965 198.011 28.965ZM216.533 19.54L212.763 41H207.775L211.545 19.54H216.533ZM234.466 20.294C237.076 20.294 239.115 20.9803 240.585 22.353C242.054 23.7257 242.827 25.5817 242.905 27.921H237.685C237.472 26.9737 237.008 26.2293 236.293 25.688C235.597 25.1467 234.688 24.876 233.567 24.876C232.136 24.876 230.879 25.4077 229.797 26.471C228.714 27.5343 228.018 28.9553 227.709 30.734C227.612 31.314 227.564 31.807 227.564 32.213C227.564 33.5663 227.921 34.6297 228.637 35.403C229.352 36.1763 230.319 36.563 231.537 36.563C232.639 36.563 233.634 36.2923 234.524 35.751C235.432 35.2097 236.157 34.475 236.699 33.547H241.948C241.02 35.867 239.579 37.723 237.627 39.115C235.674 40.4877 233.402 41.174 230.812 41.174C229.072 41.174 227.573 40.8357 226.317 40.159C225.06 39.4823 224.103 38.535 223.446 37.317C222.788 36.0797 222.46 34.649 222.46 33.025C222.46 32.2323 222.527 31.4687 222.663 30.734C223.011 28.704 223.736 26.8963 224.838 25.311C225.94 23.7257 227.322 22.498 228.985 21.628C230.647 20.7387 232.474 20.294 234.466 20.294ZM255.486 20.497C257.612 20.497 259.217 20.9707 260.3 21.918C261.402 22.8653 261.953 24.122 261.953 25.688C261.953 26.1713 261.914 26.6063 261.837 26.993C261.566 28.4817 260.928 29.748 259.923 30.792C258.917 31.836 257.603 32.5513 255.979 32.938L259.43 41H253.949L250.875 33.257H249.744L248.381 41H243.422L247.018 20.497H255.486ZM256.733 27.283C256.771 27.0123 256.791 26.8093 256.791 26.674C256.791 25.34 255.969 24.673 254.326 24.673H251.281L250.324 29.864H253.398C255.331 29.864 256.443 29.0037 256.733 27.283ZM269.717 24.441L268.992 28.733H275.894L275.227 32.474H268.296L267.513 37.027H275.314L274.618 41H261.858L265.454 20.497H278.214L277.518 24.441H269.717ZM297.676 30.705C297.328 32.7157 296.584 34.504 295.443 36.07C294.322 37.6167 292.872 38.825 291.093 39.695C289.334 40.565 287.362 41 285.177 41H277.434L281.03 20.497H288.773C290.687 20.497 292.331 20.8257 293.703 21.483C295.076 22.1403 296.11 23.078 296.806 24.296C297.522 25.4947 297.879 26.906 297.879 28.53C297.879 29.284 297.812 30.009 297.676 30.705ZM285.525 36.563C287.439 36.563 289.025 36.0507 290.281 35.026C291.538 34.0013 292.331 32.561 292.659 30.705C292.756 30.1637 292.804 29.6997 292.804 29.313C292.804 27.8823 292.35 26.7803 291.441 26.007C290.533 25.2337 289.247 24.847 287.584 24.847H285.235L283.176 36.563H285.525ZM307.258 20.497L303.662 41H298.703L302.299 20.497H307.258ZM325.414 20.497L324.718 24.441H319.15L316.25 41H311.262L314.162 24.441H308.652L309.348 20.497H325.414Z" fill="white"/>
</svg>
