<?xml version="1.0" encoding="utf-8"?>
<!-- Generator: Adobe Illustrator 15.0.0, SVG Export Plug-In . SVG Version: 6.00 Build 0)  -->
<!DOCTYPE svg PUBLIC "-//W3C//DTD SVG 1.1//EN" "http://www.w3.org/Graphics/SVG/1.1/DTD/svg11.dtd">
<svg version="1.1" id="Layer_1" xmlns="http://www.w3.org/2000/svg" xmlns:xlink="http://www.w3.org/1999/xlink" x="0px" y="0px"
	 width="640px" height="480px" viewBox="0 0 640 480" enable-background="new 0 0 640 480" xml:space="preserve">
<rect y="0.632" fill="#8C9296" width="640" height="480"/>
<circle fill="#4A4D4F" cx="320" cy="240.633" r="158.397"/>
<path fill="#B7BBBE" d="M320,18.087c-122.908,0-222.545,99.637-222.545,222.545c0,122.908,99.637,222.546,222.545,222.546
	s222.546-99.638,222.546-222.546C542.546,117.724,442.908,18.087,320,18.087 M319.833,115.451c21.253,0,38.528,6.092,51.825,18.304
	c13.325,11.99,20.001,27.373,20.001,46.123c0,8.151-2.253,16.413-6.676,24.786c-4.451,8.429-8.514,14.354-11.906,17.998
	c-3.255,3.366-7.929,7.817-14.021,13.242l-1.725,1.697c-14.243,12.434-21.42,24.869-21.42,37.304v13.547h-32.909v-15.938
	c0-10.154,2.226-18.89,6.677-26.121c4.423-7.456,12.269-16.19,23.479-26.122c6.287-5.786,10.736-9.848,13.297-12.574
	c2.754-2.921,5.479-6.871,8.039-11.823c2.81-5.202,4.257-10.599,4.257-15.996c0-10.404-3.533-18.75-10.654-25.092
	c-6.677-6.343-16.106-9.514-28.264-9.514c-20.085,0-33.882,10.905-41.338,32.603l-30.155-12.212
	c4.896-12.908,13.354-24.453,25.26-34.634C285.756,120.652,301.139,115.451,319.833,115.451 M319.443,319.691
	c6.788,0,12.406,2.252,16.857,6.897c4.673,4.423,7.01,9.792,7.01,16.136c0,6.342-2.337,11.684-7.01,16.301
	c-4.451,4.507-10.069,6.787-16.857,6.787c-6.761,0-12.49-2.28-17.165-6.787c-4.422-4.617-6.62-9.959-6.62-16.301
	c0-6.344,2.198-11.713,6.62-16.136C306.953,321.943,312.684,319.691,319.443,319.691"/>
</svg>
