<svg xmlns="http://www.w3.org/2000/svg" xmlns:xlink="http://www.w3.org/1999/xlink" width="240" height="328" viewBox="0 2.454 240 328" overflow="visible"><style><![CDATA[.B{opacity:.6}.C{opacity:.4}.D{fill:#33a1cc}.E{fill:#8c2100}.F{fill:#cc3000}.G{fill:#ff6c40}.H{fill:#66b8d9}.I{fill:#0089bf}.J{fill:#591500}.K{fill:#005273}]]></style><path d="M206.16 310.618c-45.116 26.049-118.269 26.049-163.388 0s-45.117-68.284 0-94.333 118.272-26.049 163.388 0 45.12 68.281 0 94.333z" class="K"/><path d="M107.104 310.14c26.654 0 53.308-5.87 73.645-17.611.915 2.351 1.452 4.797 1.452 7.054 0 3.134-1.007 5.408-2.668 6.631-19.066 11.061-44.5 17.812-72.429 17.812s-53.362-6.751-72.428-17.812c-1.662-1.223-2.668-3.497-2.668-6.631 0-2.257.538-4.703 1.452-7.054 20.336 11.741 46.99 17.611 73.644 17.611z" class="E"/><g class="F"><path d="M34.676 306.213c-1.662-1.223-2.668-3.497-2.668-6.631 0-2.257.538-4.703 1.452-7.054-34.452-19.893-39.731-50.267-15.81-73.36C6.495 229.844 0 242.634 0 256.38c0 19.719 13.36 37.468 34.676 49.833z"/><path d="M107.104 310.14c26.654 0 53.305-5.87 73.642-17.611l-22.885-58.287c-14.016 8.092-32.388 12.137-50.758 12.137s-36.742-4.045-50.758-12.137L33.46 292.529c20.336 11.741 46.99 17.611 73.644 17.611z"/></g><path d="M17.649 219.168c-23.921 23.094-18.642 53.468 15.81 73.36l22.885-58.287c-21.557-12.447-26.54-30.845-14.937-46.04l-23.758 30.967z" class="G"/><path d="M87.717 152.452c.37-1.246.611-2.446.727-3.586v-1.358c-5.1-2.945-7.633-6.795-7.676-10.655-2.685 5.36-.366 11.376 6.949 15.599z" class="B D"/><path d="M88.444 147.508l-.004-17.841-.723.401c-3.389 1.956-5.706 4.301-6.949 6.785.043 3.86 2.576 7.709 7.676 10.655z" class="B H"/><path d="M80.768 136.853c1.243-2.484 3.56-4.829 6.949-6.785l.723-.401.035-3.665c-5.185 2.995-7.749 6.927-7.707 10.851z" class="B D"/><path fill="#ff9d80" d="M56.344 234.242c-21.557-12.447-26.54-30.845-14.937-46.04 3.483-4.561 8.465-8.829 14.937-12.566 7.67-4.43 16.644-7.646 26.21-9.649l-26.21 68.255z"/><path d="M107.103 246.378c18.37 0 36.736-4.045 50.752-12.137l-26.21-68.255c-7.913-1.659-16.229-2.488-24.545-2.488s-16.632.829-24.545 2.488l-26.21 68.255c14.016 8.092 32.387 12.137 50.758 12.137z" class="G"/><g class="H"><path d="M87.717 152.452l-.631 1.863-4.531 11.672c-9.566 2.003-18.54 5.22-26.21 9.649-6.471 3.737-11.453 8.005-14.937 12.566l39.36-51.349c-2.685 5.36-.366 11.376 6.949 15.599z" class="B"/><path d="M80.768 109.553v27.3c-.042-3.924 2.522-7.856 7.707-10.851l-.035-11.87c-1.473-.642-2.866-1.357-4.17-2.14-1.251-.75-2.426-1.575-3.502-2.439z" class="B"/></g><path d="M107.101 117.833c6.883 0 13.296-1.36 18.665-3.701 1.473-.642 2.866-1.357 4.17-2.14.778-.642 1.19-1.848 1.19-3.381 0-3.423-2.4-7.582-5.363-9.293-5.144 2.972-11.919 4.517-18.661 4.517s-13.517-1.544-18.66-4.517c-2.963 1.712-5.363 5.871-5.363 9.293 0 1.533.412 2.739 1.19 3.381 1.304.783 2.698 1.498 4.17 2.14 5.37 2.342 11.779 3.701 18.662 3.701z" class="C I"/><g class="D"><path d="M84.468 77.503c-7.153 4.219-11.667 10.406-11.667 17.302 0 5.617 2.988 10.75 7.967 14.748a31.48 31.48 0 0 0 3.501 2.44c-.778-.642-1.19-1.848-1.19-3.381 0-3.423 2.4-7.582 5.363-9.293-10.278-5.935-10.243-15.501.035-21.438-1.573-.91-3.028-1.058-4.009-.378z" class="B"/><path d="M107.101 102.752c4.729.001 9.459-.947 13.258-2.843a21.59 21.59 0 0 0 1.097-.591c.304-.176.597-.374.881-.552.928-.353 2.122-.199 3.423.552-5.144 2.972-11.917 4.517-18.658 4.517s-13.517-1.544-18.66-4.517c1.301-.751 2.496-.905 3.423-.552.284.179.577.376.88.552.356.205.723.403 1.098.591 3.799 1.896 8.53 2.844 13.258 2.843z" class="C"/></g><path d="M88.478 77.88c-10.278 5.938-10.313 15.504-.035 21.438 1.301-.751 2.496-.905 3.423-.552-1.177-.739-2.181-1.505-2.867-2.428-.255-.343-.422-.729-.582-1.099.126-2.664 1.871-5.305 5.391-7.337v-.836c.001-3.421-2.368-7.478-5.33-9.186z" class="B I"/><path d="M91.866 98.766l.88.552 1.098.591-.035-12.008c-3.52 2.033-5.265 4.673-5.391 7.337.16.371.327.756.582 1.099.685.924 1.689 1.69 2.866 2.429z" class="C D"/><path d="M179.524 306.213c1.662-1.223 2.668-3.497 2.668-6.631 0-2.257-.538-4.703-1.452-7.054 34.451-19.893 39.731-50.267 15.81-73.36 11.155 10.676 17.649 23.466 17.649 37.212.001 19.719-13.36 37.468-34.675 49.833z" class="J"/><path d="M196.55 219.168c23.921 23.094 18.641 53.468-15.81 73.36l-22.885-58.287c21.558-12.447 26.54-30.845 14.937-46.04l23.758 30.967z" class="E"/><path d="M126.482 152.452c-.369-1.246-.611-2.446-.727-3.586v-1.358c5.1-2.945 7.633-6.795 7.676-10.655 2.685 5.36.367 11.376-6.949 15.599z" class="B D"/><path d="M125.756 147.508l.004-17.841.722.401c3.39 1.956 5.707 4.301 6.949 6.785-.042 3.86-2.576 7.709-7.675 10.655z" class="B I"/><path d="M133.432 136.853c-1.243-2.484-3.56-4.829-6.949-6.785l-.722-.401-.035-3.665c5.184 2.995 7.748 6.927 7.706 10.851z" class="B K"/><path d="M157.855 234.242c21.558-12.447 26.54-30.845 14.937-46.04-3.483-4.561-8.466-8.829-14.937-12.566-7.67-4.43-16.644-7.646-26.21-9.649l26.21 68.255z" class="F"/><g class="I"><path d="M126.482 152.452l.632 1.863 4.531 11.672c9.566 2.003 18.54 5.22 26.21 9.649 6.471 3.737 11.454 8.005 14.937 12.566l-39.36-51.349c2.684 5.36.366 11.376-6.95 15.599z" class="B"/><path d="M133.432 109.553v27.3c.042-3.924-2.522-7.856-7.707-10.851l.035-11.87c1.473-.642 2.866-1.357 4.17-2.14 1.251-.75 2.426-1.575 3.502-2.439z" class="B"/></g><path d="M129.731 77.503c7.152 4.219 11.667 10.406 11.667 17.302 0 5.617-2.988 10.75-7.967 14.748a31.48 31.48 0 0 1-3.501 2.44c.778-.642 1.19-1.848 1.19-3.381 0-3.423-2.4-7.582-5.363-9.293 10.278-5.935 10.243-15.501-.035-21.438 1.574-.91 3.029-1.058 4.009-.378z" class="B K"/><path d="M125.722 77.88c10.278 5.938 10.313 15.504.035 21.438-1.301-.751-2.496-.905-3.423-.552 1.177-.739 2.181-1.505 2.866-2.428.255-.343.422-.729.582-1.099-.126-2.664-1.872-5.305-5.391-7.337v-.836c0-3.421 2.368-7.478 5.331-9.186z" class="B H"/><path fill="#ccf1ff" d="M122.334 98.766l-.881.552-1.097.591.035-12.008c3.52 2.033 5.265 4.673 5.391 7.337-.16.371-.327.756-.582 1.099-.685.924-1.689 1.69-2.866 2.429z" class="C"/><path d="M107.101 102.752c4.729.001 9.462-.947 13.261-2.843l.035-12.008c-3.655-2.111-8.507-3.168-13.294-3.168s-9.639 1.057-13.294 3.168l.035 12.008c3.798 1.896 8.529 2.844 13.257 2.843z" class="C H"/><path d="M107.103 84.733c4.788 0 9.634 1.057 13.289 3.168v-.836c0-3.42 2.368-7.477 5.331-9.185-5.144-2.971-11.884-4.457-18.623-4.458s-13.479 1.487-18.622 4.458c2.963 1.708 5.331 5.765 5.331 9.185v.836c3.654-2.111 8.506-3.168 13.294-3.168z" class="C D"/><path d="M107.1 73.422c6.738.001 13.482 1.487 18.625 4.458 1.574-.909 3.029-1.057 4.009-.377-6.041-3.563-13.961-5.725-22.633-5.725s-16.592 2.162-22.633 5.725c.98-.68 2.436-.532 4.009.377 5.144-2.971 11.885-4.457 18.623-4.458z" class="C H"/><g opacity=".8"><defs><circle id="A" opacity=".8" cx="107.1" cy="56.772" r="15.006"/></defs><clipPath id="B"><use xlink:href="#A"/></clipPath><g clip-path="url(#B)"><circle cx="107.1" cy="56.772" r="19.592" class="J"/><path d="M121.217 61.664c.534-1.539.888-3.172.888-4.891a15.01 15.01 0 0 0-15.006-15.006 15.01 15.01 0 0 0-15.005 15.006c0 8.287 6.717 15.005 15.005 15.005 1.709.001 3.338-.335 4.868-.863-4.033 1.079-6.421-1.312-5.34-5.34 1.076-4.028 5.22-8.172 9.25-9.251s6.419 1.311 5.34 5.34z" class="E"/><path d="M121.374 52.134c-.954-2.872-4.058-4.157-8.174-3.057-6.027 1.613-12.221 7.809-13.835 13.832-1.121 4.189.254 7.28 3.227 8.179-6.084-1.914-10.498-7.6-10.498-14.315a15.01 15.01 0 0 1 15.005-15.006c6.67 0 12.322 4.349 14.275 10.367z" class="F"/><path d="M112.935 42.945c-1.407-.518-3.24-.473-5.3.079-6.244 1.67-12.666 8.092-14.337 14.337-.652 2.44-.501 4.504.318 6-.973-1.989-1.521-4.225-1.521-6.588A15.01 15.01 0 0 1 107.1 41.767c2.069.001 4.041.42 5.835 1.178z" class="G"/></g></g><g class="B"><defs><circle id="C" cx="122.104" cy="26.761" r="12.004" class="B"/></defs><clipPath id="D"><use xlink:href="#C"/></clipPath><g clip-path="url(#D)"><circle cx="122.104" cy="26.761" r="15.674" class="J"/><path d="M133.398 30.673c.426-1.23.71-2.538.71-3.913 0-6.629-5.375-12.004-12.004-12.004S110.1 20.131 110.1 26.76s5.374 12.005 12.004 12.005c1.367.001 2.67-.269 3.895-.69-3.227.863-5.138-1.049-4.273-4.271s4.176-6.539 7.4-7.402 5.135 1.049 4.272 4.271z" class="E"/><path d="M133.524 23.051c-.764-2.298-3.246-3.327-6.54-2.446-4.821 1.291-9.777 6.247-11.067 11.065-.897 3.353.202 5.825 2.581 6.543-4.867-1.531-8.398-6.08-8.398-11.452 0-6.629 5.374-12.004 12.004-12.004 5.335-.001 9.856 3.478 11.42 8.294z" class="F"/><path d="M126.772 15.699c-1.125-.413-2.592-.378-4.241.063-4.996 1.336-10.132 6.474-11.47 11.471-.521 1.952-.401 3.604.254 4.799-.778-1.592-1.216-3.381-1.216-5.271 0-6.629 5.374-12.004 12.004-12.004 1.657.001 3.233.336 4.669.942z" class="G"/></g></g><g class="C"><defs><circle id="E" cx="92.093" cy="11.755" r="9.003" class="C"/></defs><clipPath id="F"><use xlink:href="#E"/></clipPath><g clip-path="url(#F)"><circle cx="92.093" cy="11.755" r="11.755" class="J"/><path d="M100.562 14.69c.321-.923.534-1.903.534-2.935 0-4.972-4.031-9.003-9.003-9.003s-9.003 4.031-9.003 9.003 4.03 9.003 9.003 9.003c1.026.001 2.003-.201 2.92-.518-2.419.646-3.853-.787-3.203-3.205s3.131-4.903 5.549-5.551 3.851.788 3.203 3.206z" class="E"/><path d="M100.658 8.973c-.573-1.724-2.435-2.494-4.904-1.835-3.617.969-7.333 4.687-8.302 8.3-.672 2.513.152 4.368 1.936 4.906-3.65-1.147-6.298-4.559-6.298-8.589 0-4.972 4.03-9.003 9.003-9.003 4.002 0 7.392 2.61 8.565 6.221z" class="F"/><path d="M95.593 3.458c-.844-.31-1.943-.283-3.18.048-3.747 1.002-7.6 4.854-8.602 8.602-.391 1.464-.302 2.704.191 3.601a8.96 8.96 0 0 1-.913-3.954c0-4.972 4.03-9.003 9.003-9.003a9 9 0 0 1 3.501.706z" class="G"/></g></g><path d="M126.488 152.452c-.369-1.246-.611-2.446-.727-3.586v-1.358c-.003 0 .001-17.841.001-17.841s-.038-3.665-.038-3.665.038-11.87.038-11.87c-5.369 2.341-11.779 3.701-18.662 3.701s-13.292-1.36-18.662-3.701l.035 11.87-.035 3.665.004 17.841v1.358c-.116 1.14-.357 2.34-.727 3.586-.18.61-.388 1.234-.631 1.863l-4.531 11.672c7.914-1.659 16.229-2.488 24.545-2.488s16.638.829 24.551 2.488l-4.531-11.672a24.94 24.94 0 0 1-.63-1.863z" class="C D"/></svg>