<?xml version="1.0" encoding="UTF-8" standalone="no"?>
<!DOCTYPE svg PUBLIC "-//W3C//DTD SVG 1.1//EN" "http://www.w3.org/Graphics/SVG/1.1/DTD/svg11.dtd">
<svg width="100%" height="100%" viewBox="0 0 512 512" version="1.1" xmlns="http://www.w3.org/2000/svg" xmlns:xlink="http://www.w3.org/1999/xlink" xml:space="preserve" xmlns:serif="http://www.serif.com/" style="fill-rule:evenodd;clip-rule:evenodd;stroke-linejoin:round;stroke-miterlimit:2;">
    <path d="M440.58,151.568L256,45L71.419,151.568L71.419,364.703L256,471.27L440.581,364.703L440.58,151.568Z" style="fill:rgb(40,69,157);fill-rule:nonzero;"/>
    <path d="M255.917,223.084L255.917,223.086C201.412,223.084 157.067,267.423 157.067,321.934C157.067,376.438 201.412,420.788 255.917,420.788L255.917,420.786C310.421,420.784 354.767,376.438 354.767,321.934C354.767,267.423 310.421,223.084 255.917,223.084Z" style="fill:rgb(229,229,229);fill-rule:nonzero;"/>
    <path d="M255.917,249.763C216.121,249.762 183.745,282.138 183.745,321.933C183.745,361.73 216.121,394.105 255.917,394.105L255.917,394.107C295.713,394.105 328.089,361.73 328.089,321.935C328.089,282.139 295.713,249.763 255.917,249.763ZM255.917,387.107L255.917,387.105C219.981,387.105 190.745,357.87 190.745,321.933C190.745,285.996 219.981,256.761 255.917,256.761L255.917,256.763C291.854,256.763 321.089,285.998 321.089,321.935C321.089,357.871 291.854,387.107 255.917,387.107Z" style="fill:rgb(40,69,157);fill-rule:nonzero;"/>
    <g>
        <path d="M255.87,276.395C258.421,276.395 260.243,278.215 260.243,280.766L260.243,297.889C260.243,300.44 258.422,302.444 255.87,302.444C253.318,302.444 251.315,300.44 251.315,297.889L251.315,280.766C251.316,278.215 253.32,276.395 255.87,276.395Z" style="fill:rgb(137,155,207);fill-rule:nonzero;"/>
        <g>
            <g>
                <g>
                    <g>
                        <g>
                            <g>
                                <path d="M235.287,286.046L245.305,299.891C247.492,302.809 245.305,306.995 241.662,306.995C240.205,306.995 239.112,306.45 238.201,305.176L228.183,291.33C226.725,289.327 227.089,286.596 229.094,285.139C231.097,283.68 233.83,284.046 235.287,286.046Z" style="fill:rgb(137,155,207);fill-rule:nonzero;"/>
                            </g>
                        </g>
                    </g>
                </g>
            </g>
            <g>
                <g>
                    <g>
                        <g>
                            <g>
                                <path d="M215.431,313.555C213.062,312.826 211.788,310.276 212.516,307.909C213.244,305.542 215.794,304.264 218.163,304.995L234.375,310.276C236.743,311.005 238.017,313.555 237.29,315.922C236.743,317.744 234.739,319.02 232.918,319.02C232.372,319.02 232.189,318.836 231.643,318.655L215.431,313.555Z" style="fill:rgb(68,94,171);fill-opacity:0.9;fill-rule:nonzero;"/>
                            </g>
                        </g>
                    </g>
                </g>
            </g>
            <g>
                <g>
                    <g>
                        <g>
                            <g>
                                <path d="M237.291,327.943C238.019,330.312 236.744,332.861 234.376,333.589L218.164,338.872C217.618,339.057 217.254,339.057 216.707,339.057C214.884,339.057 213.062,337.78 212.517,335.959C211.789,333.591 213.062,331.04 215.432,330.311L231.644,325.028C234.012,324.302 236.562,325.577 237.291,327.943Z" style="fill:rgb(68,94,171);fill-opacity:0.9;fill-rule:nonzero;"/>
                            </g>
                        </g>
                    </g>
                </g>
            </g>
        </g>
        <path d="M244.395,337.781C246.398,339.236 246.762,341.97 245.306,343.974L235.288,357.818C234.376,359.091 233.101,359.64 231.644,359.64C228,359.64 225.997,355.45 228.183,352.536L238.202,338.691C239.658,336.688 242.39,336.323 244.395,337.781Z" style="fill:rgb(41,71,156);fill-opacity:0.9;fill-rule:nonzero;"/>
        <path d="M255.87,341.424C258.421,341.424 260.243,343.427 260.243,345.979L260.243,362.921C260.243,365.469 258.422,367.475 255.87,367.475C253.318,367.475 251.315,365.469 251.315,362.921L251.315,345.979C251.316,343.427 253.32,341.424 255.87,341.424Z" style="fill:rgb(41,71,156);fill-opacity:0.9;fill-rule:nonzero;"/>
        <g>
            <g>
                <g>
                    <g>
                        <g>
                            <g>
                                <path d="M273.54,338.691L283.561,352.536C285.747,355.452 283.561,359.642 279.915,359.642C278.46,359.642 277.365,359.091 276.454,357.82L266.435,343.976C264.976,341.972 265.341,339.24 267.345,337.784C269.354,336.323 272.083,336.688 273.54,338.691Z" style="fill:rgb(66,93,174);fill-rule:nonzero;"/>
                            </g>
                        </g>
                    </g>
                </g>
            </g>
            <g>
                <g>
                    <g>
                        <path d="M296.311,330.313C298.68,331.042 299.957,333.591 299.227,335.96C298.68,337.781 296.676,339.057 294.854,339.057C294.307,339.057 294.125,339.057 293.582,338.874L277.37,333.591C275,332.862 273.725,330.311 274.453,327.942C275.182,325.577 277.731,324.297 280.1,325.026L296.311,330.313Z" style="fill:rgb(68,94,171);fill-rule:nonzero;"/>
                    </g>
                </g>
            </g>
            <g>
                <g>
                    <g>
                        <g>
                            <g>
                                <clipPath id="_clip1">
                                    <path d="M299.521,276.395L299.521,367.477L212.312,367.477L212.312,276.395"/>
                                </clipPath>
                                <g clip-path="url(#_clip1)">
                                    <path d="M274.451,315.922C273.722,313.555 274.998,311.006 277.367,310.276L293.579,304.995C295.945,304.266 298.498,305.544 299.226,307.911C299.954,310.278 298.679,312.828 296.31,313.557L280.099,318.659C279.547,318.843 279.185,319.024 278.64,319.024C276.818,319.02 274.997,317.744 274.451,315.922Z" style="fill:rgb(99,122,188);fill-rule:nonzero;"/>
                                </g>
                            </g>
                        </g>
                    </g>
                </g>
            </g>
        </g>
        <path d="M269.896,306.995C266.25,306.995 264.248,302.808 266.437,299.891L276.454,286.046C277.911,284.046 280.642,283.68 282.646,285.136C284.65,286.594 285.015,289.327 283.558,291.33L273.538,305.174C272.63,306.45 271.354,306.995 269.896,306.995Z" style="fill:rgb(99,122,188);fill-rule:nonzero;"/>
    </g>
    <path d="M256,109.29L256,109.275C255.958,109.276 255.917,109.281 255.875,109.282C255.833,109.281 255.792,109.276 255.75,109.275L255.75,109.29C206.298,111.173 174.858,148.454 175.156,195.373L175.451,252.535C182.995,242.374 194.128,234.218 205.078,228.789L204.823,196.039C204.661,164.742 219.047,140.597 255.875,138.971C292.703,140.597 307.088,164.742 306.926,196.039L306.672,228.789C317.621,234.218 328.754,242.374 336.299,252.535L336.594,195.373C336.891,148.453 305.452,111.172 256,109.29Z" style="fill:rgb(229,229,229);fill-rule:nonzero;"/>
    <g opacity="0.1">
        <path d="M440.36,364.703L440.359,151.568L255.779,45L255.779,471.27L440.36,364.703Z" style="fill:white;fill-rule:nonzero;"/>
    </g>
</svg>
