<?xml version="1.0" standalone="no"?><!DOCTYPE svg PUBLIC "-//W3C//DTD SVG 1.1//EN" "http://www.w3.org/Graphics/SVG/1.1/DTD/svg11.dtd"><svg width="100%" height="100%" viewBox="0 0 482 155" version="1.1" xmlns="http://www.w3.org/2000/svg" xmlns:xlink="http://www.w3.org/1999/xlink" xml:space="preserve" style="fill-rule:evenodd;clip-rule:evenodd;stroke-linejoin:round;stroke-miterlimit:1.41421;"><g><path d="M130.238,86.496c-4.42,6.79 -12.08,11.218 -20.726,11.218c-9.784,0 -18.245,-5.706 -22.317,-14.002l-18.436,28.303c10.273,10.833 24.733,17.579 40.753,17.579c19.775,0 37.17,-10.279 47.251,-25.836l57.497,-88.253l-37.766,0l-46.256,70.991ZM88.786,58.602c4.42,-6.79 12.08,-11.217 20.726,-11.217c9.784,0 18.245,5.705 22.317,14.001l18.436,-28.303c-10.273,-10.832 -24.733,-17.578 -40.753,-17.578c-19.775,0 -37.171,10.279 -47.251,25.836l-57.497,88.253l37.766,0l46.256,-70.992l0,0ZM109.512,59.85c6.94,0 12.566,5.685 12.566,12.699c0,7.014 -5.626,12.7 -12.566,12.7c-6.94,0 -12.566,-5.686 -12.566,-12.7c0,-7.014 5.626,-12.699 12.566,-12.699" style="fill:#7a00d1;fill-rule:nonzero;"/><path d="M233.146,76.963l0,26.016l-9.888,0l0,-63.072l37.248,0l0,8.928l-27.36,0l0,19.296l24.864,0l0,8.832l-24.864,0Z" style="fill:#1f033f;fill-rule:nonzero;"/><rect x="271.546" y="39.907" width="9.888" height="63.072" style="fill:#1f033f;fill-rule:nonzero;"/><path d="M306.202,94.051l25.92,0l0,8.928l-35.808,0l0,-63.072l9.888,0l0,54.144Z" style="fill:#1f033f;fill-rule:nonzero;"/><path d="M372.73,102.979l-9.888,-24c-0.256,0.064 -0.512,0.096 -0.768,0.096c-0.256,0 -0.544,0 -0.864,0l-10.272,0l0,23.904l-9.888,0l0,-63.072l20.832,0c3.136,0 6.016,0.464 8.64,1.392c2.624,0.928 4.896,2.224 6.816,3.888c1.92,1.664 3.408,3.68 4.464,6.048c1.056,2.368 1.584,5.024 1.584,7.968c0,4.096 -0.976,7.648 -2.928,10.656c-1.952,3.008 -4.592,5.28 -7.92,6.816l11.04,26.304l-10.848,0ZM350.938,48.643l0,21.792l10.08,0c3.776,0 6.768,-0.992 8.976,-2.976c2.208,-1.984 3.312,-4.704 3.312,-8.16c0,-3.264 -1.104,-5.856 -3.312,-7.776c-2.208,-1.92 -5.2,-2.88 -8.976,-2.88l-10.08,0Z" style="fill:#1f033f;fill-rule:nonzero;"/></g></svg>