<svg width="200" height="100" viewBox="0 0 200 100" fill="none" xmlns="http://www.w3.org/2000/svg">
<rect x="0.15" y="0.15" width="199.7" height="99.7" rx="9.85" fill="white"/>
<path d="M68.8401 20H54.554C48.2419 20.2986 43.082 22.8408 41.5921 28.0836C40.8155 30.818 40.3879 33.8206 39.7803 36.6552C36.6924 51.0673 33.9539 65.876 31 80H142.22C150.818 80 156.722 78.183 158.317 71.3592C159.059 68.1888 159.768 64.598 160.478 61.1151C163.242 47.5352 166.009 33.9558 168.84 20H68.8401Z" fill="#B82126"/>
<path d="M126.223 55.8473C124.68 57.3574 120.35 57.7862 120.793 54.1768C121.161 51.1788 124.425 50.5418 127.963 50.9747C127.7 52.6145 127.398 54.6967 126.223 55.8476V55.8473ZM121.35 44.1532C121.203 44.9803 120.977 45.7287 120.793 46.5197C122.559 46.0771 128.06 44.7194 128.589 47.0767C128.766 47.8601 128.462 48.692 128.241 49.3042C123.268 48.8331 119.214 49.6596 118.148 53.2022C117.434 55.5751 118.228 57.9103 119.749 58.5624C122.679 59.8169 126.242 58.3793 127.476 56.4043C127.348 57.0881 127.226 57.7787 127.267 58.6318H129.842C129.87 56.1653 130.228 54.1687 130.608 51.9493C130.931 50.0594 131.54 48.188 131.443 46.5199C131.222 42.6997 124.893 44.0509 121.35 44.1535V44.1532ZM147.174 57.0305C145.159 57.0736 144.158 55.8268 144.112 53.7592C144.031 50.1382 145.62 46.115 148.845 45.7543C150.347 45.5863 151.434 45.9355 152.534 46.3113C151.524 50.3787 151.889 56.9293 147.174 57.0305V57.0305ZM153.856 37.8888C153.6 40.1378 153.257 42.301 152.813 44.3619C145.471 42.0383 140.968 47.4399 141.049 54.1071C141.065 55.3966 141.287 56.6754 142.093 57.5873C143.483 59.1595 147.462 59.5353 149.471 58.214C149.861 57.9582 150.258 57.493 150.516 57.17C150.709 56.9269 151.017 56.2907 151.072 56.4735C150.967 57.1802 150.809 57.8347 150.794 58.6318H153.509C154.032 51.1268 155.65 44.7164 156.85 37.8885H153.857L153.856 37.8888ZM77.2195 55.917C75.6179 57.6131 71.6811 57.587 71.3726 54.7335C71.238 53.4919 71.7008 52.19 71.9294 50.9053C72.1609 49.6049 72.3273 48.3574 72.5556 47.2159C74.1329 45.2899 78.7678 45.0575 79.2381 48.2602C79.6463 51.0407 78.5457 54.5125 77.2195 55.917V55.917ZM79.5862 44.1532C77.0529 43.2018 73.9652 44.3377 72.6269 45.4183C72.6315 45.4657 72.5951 45.4721 72.5556 45.4759C72.5785 45.4565 72.6032 45.4374 72.6269 45.4183C72.6268 45.4143 72.6262 45.4103 72.6253 45.4065C72.6479 44.9415 72.8116 44.6179 72.8342 44.1532H70.2589C69.1855 51.2937 67.9129 58.2345 66.5695 65.1049H69.5627C69.9958 62.4289 70.282 59.6064 70.8853 57.1002C71.5689 59.7359 76.032 59.2325 77.9154 58.214C81.8016 56.1128 84.7991 46.1115 79.5862 44.1532ZM93.7859 49.165H86.7558C86.9782 47.5489 88.4322 45.7723 90.7233 45.6848C92.8794 45.6022 94.4231 46.4763 93.7859 49.165V49.165ZM90.9322 43.8749C88.7693 44.0415 86.9413 44.6637 85.642 46.0327C84.0483 47.7115 82.7579 51.4232 83.1359 54.8033C83.6754 59.6255 89.6795 59.4527 94.4821 58.2835C94.5637 57.4373 94.7686 56.7139 94.8997 55.917C92.9212 56.6574 89.4865 57.6906 87.4517 56.4043C85.9156 55.433 85.9064 52.9731 86.4077 50.8355C89.6354 50.733 92.9901 50.7526 96.2221 50.8355C96.4272 49.3204 97.0141 47.6684 96.5004 46.1721C95.8234 44.1963 93.399 43.6851 90.9322 43.8749V43.8749ZM64.6206 44.1532C64.5396 44.1651 64.545 44.2636 64.5506 44.3619C63.8913 49.2942 62.9988 53.9937 62.045 58.6318H65.0382C65.7573 53.6661 66.5811 48.8056 67.6135 44.1532H64.6206V44.1532ZM142.72 44.2227C140.075 42.9003 137.872 45.1195 137.012 46.4502C137.257 45.7675 137.271 44.8535 137.499 44.1532H134.854C134.141 49.1249 133.281 53.9496 132.279 58.6318H135.341C135.361 56.7128 135.738 55.2935 136.037 53.4111C136.678 49.3928 137.617 44.9862 142.302 46.3113C142.458 45.6315 142.522 44.8607 142.72 44.2227V44.2227ZM109.099 55.2208C108.824 54.5082 108.752 53.3309 108.821 52.4366C108.976 50.425 109.709 47.9764 110.84 46.868C112.401 45.3381 115.482 45.5911 117.939 46.4502C118.016 45.6218 118.182 44.8831 118.288 44.0838C114.257 43.4255 110.432 43.835 108.403 45.9629C106.418 48.0464 105.117 52.8345 106.037 55.8473C107.114 59.3727 111.942 59.5644 115.852 58.214C116.024 57.5054 116.116 56.7155 116.269 55.9865C114.133 57.0965 110.049 57.6734 109.099 55.2208V55.2208ZM107.429 44.1532C104.775 43.0815 102.689 44.8928 101.722 46.5897C101.941 45.8348 102.031 44.9507 102.208 44.1532H99.5633C98.9167 49.1683 97.9636 53.8766 97.0575 58.6318H100.051C100.47 55.8091 100.651 52.0042 101.582 49.3042C102.326 47.1467 104.272 45.3085 107.081 46.3113C107.12 45.5152 107.348 44.9076 107.429 44.1532V44.1532ZM59.191 38.3063C58.7635 41.0806 58.2819 43.8011 57.7989 46.5199C54.698 46.5525 51.532 46.6731 48.5412 46.4499C49.1061 43.7903 49.5112 40.9703 50.0723 38.3061H46.7313C45.5352 45.0923 44.4475 51.9859 43.1122 58.6321H46.5226C47.0579 55.2224 47.5581 51.7783 48.2626 48.5391C51.171 48.4672 54.6566 48.3426 57.451 48.6085C56.8749 51.9767 56.1785 55.2246 55.6414 58.6321H59.0521C60.1478 51.7463 61.3028 44.9194 62.6717 38.3066H59.1913L59.191 38.3063ZM67.683 41.369C68.2798 40.9582 69.0482 39.0857 68.1703 38.3063C67.8922 38.0595 67.427 37.9879 66.7784 38.0977C66.1762 38.1992 65.8299 38.4035 65.5949 38.7239C65.2164 39.2389 64.8699 40.792 65.4555 41.369C66.0257 41.9308 67.3034 41.6301 67.683 41.369V41.369Z" fill="white"/>
<rect x="0.15" y="0.15" width="199.7" height="99.7" rx="9.85" stroke="#BDBDBD" stroke-width="0.3"/>
</svg>
