<svg width="200" height="100" viewBox="0 0 200 100" fill="none" xmlns="http://www.w3.org/2000/svg">
<rect x="0.15" y="0.15" width="199.7" height="99.7" rx="9.85" fill="white"/>
<path d="M102.748 40.85C102.657 48.0475 109.163 52.0637 114.063 54.4519C119.098 56.9019 120.789 58.4731 120.769 60.6644C120.732 64.0175 116.753 65.4975 113.03 65.555C106.534 65.6556 102.758 63.8013 99.755 62.3988L97.415 73.3481C100.427 74.7362 106.006 75.9469 111.79 76C125.368 76 134.251 69.2975 134.299 58.9056C134.352 45.7169 116.057 44.9869 116.182 39.0919C116.225 37.3044 117.931 35.3969 121.668 34.9119C123.518 34.6669 128.625 34.4794 134.415 37.1456L136.687 26.5519C133.574 25.4181 129.572 24.3325 124.589 24.3325C111.809 24.3325 102.821 31.1262 102.748 40.85V40.85ZM158.524 25.245C156.044 25.245 153.955 26.6912 153.022 28.9106L133.627 75.2219H147.195L149.895 67.76H166.475L168.041 75.2219H180L169.564 25.245H158.524V25.245ZM160.422 38.7456L164.338 57.5125H153.614L160.422 38.7456V38.7456ZM86.2975 25.2456L75.6025 75.2212H88.5319L99.2219 25.2444H86.2975V25.2456ZM67.1706 25.2444L53.7131 59.2613L48.2694 30.3381C47.6306 27.1094 45.1081 25.245 42.3069 25.245H20.3081L20 26.6962C24.5162 27.6762 29.6475 29.2569 32.7562 30.9481C34.6587 31.9812 35.2013 32.8844 35.8263 35.3394L46.1369 75.2219H59.8L80.7475 25.245H67.1706" fill="url(#paint0_linear_2_25)"/>
<rect x="0.15" y="0.15" width="199.7" height="99.7" rx="9.85" stroke="#BDBDBD" stroke-width="0.3" stroke-linejoin="round"/>
<defs>
<linearGradient id="paint0_linear_2_25" x1="93.5584" y1="77.0364" x2="95.054" y2="23.9732" gradientUnits="userSpaceOnUse">
<stop stop-color="#222357"/>
<stop offset="1" stop-color="#254AA5"/>
</linearGradient>
</defs>
</svg>
