<svg width="200" height="100" viewBox="0 0 200 100" fill="none" xmlns="http://www.w3.org/2000/svg">
<rect x="0.15" y="0.15" width="199.7" height="99.7" rx="9.85" fill="white"/>
<path d="M84.3194 22.486H114.944V77.5137H84.3194V22.486Z" fill="#FF5F00"/>
<path d="M86.2641 50C86.2641 38.8196 91.5139 28.9027 99.5831 22.4859C93.653 17.8193 86.1671 15 78.0004 15C58.6525 15 43 30.6525 43 50C43 69.347 58.6525 85 78 85C86.1666 85 93.6525 82.1807 99.5831 77.5136C91.5139 71.1943 86.2641 61.1804 86.2641 50V50Z" fill="#EB001B"/>
<path d="M156.264 50C156.264 69.347 140.611 85 121.264 85C113.097 85 105.611 82.1807 99.6806 77.5136C107.847 71.0973 113 61.1804 113 50C113 38.8196 107.75 28.9027 99.6806 22.4859C105.611 17.8193 113.097 15 121.264 15C140.611 15 156.264 30.75 156.264 50H156.264Z" fill="#F79E1B"/>
<rect x="0.15" y="0.15" width="199.7" height="99.7" rx="9.85" stroke="#BDBDBD" stroke-width="0.3" stroke-linejoin="round"/>
</svg>
