<svg width="54" height="50" viewBox="0 0 54 50" fill="none" xmlns="http://www.w3.org/2000/svg">
<path d="M52.9983 11.1124C52.5183 10.2808 51.831 9.58779 51.0034 9.10098C50.1759 8.61416 49.2362 8.35015 48.2762 8.33469H12.7218L11.1107 2.05712C10.948 1.45113 10.5848 0.91811 10.0804 0.544867C9.57606 0.171623 8.96016 -0.0198515 8.33306 0.00162906H2.77769C2.041 0.00162906 1.33448 0.294277 0.813566 0.815195C0.292648 1.33611 0 2.04263 0 2.77932C0 3.516 0.292648 4.22252 0.813566 4.74344C1.33448 5.26435 2.041 5.557 2.77769 5.557H6.22202L13.8884 34.0561C14.0512 34.6621 14.4144 35.1951 14.9187 35.5683C15.4231 35.9416 16.039 36.133 16.6661 36.1116H41.6653C42.1783 36.11 42.6808 35.9664 43.1171 35.6968C43.5535 35.4271 43.9066 35.0419 44.1375 34.5838L53.2483 16.3622C53.6432 15.5345 53.827 14.6219 53.7834 13.7059C53.7397 12.7898 53.47 11.8988 52.9983 11.1124Z" fill="#0075FF"/>
<path d="M15.2772 50.0001C17.5784 50.0001 19.4438 48.1346 19.4438 45.8335C19.4438 43.5324 17.5784 41.667 15.2772 41.667C12.9761 41.667 11.1107 43.5324 11.1107 45.8335C11.1107 48.1346 12.9761 50.0001 15.2772 50.0001Z" fill="#0075FF"/>
<path d="M43.0542 50.0001C45.3553 50.0001 47.2207 48.1346 47.2207 45.8335C47.2207 43.5324 45.3553 41.667 43.0542 41.667C40.7531 41.667 38.8876 43.5324 38.8876 45.8335C38.8876 48.1346 40.7531 50.0001 43.0542 50.0001Z" fill="#0075FF"/>
</svg>
