<svg viewBox="0 0 500 500" xmlns="http://www.w3.org/2000/svg"><g fill="#23282d"><path d="m171.117 262.277c14.583-.142 25.832 20.664 25.921 35.25.094 15.265-11.418 37.682-26.678 37.227-14.687-.438-23.797-22.605-23.494-37.296.295-14.24 10.095-35.044 24.25-35.181zm151.27.753c14.584-.142 25.832 20.664 25.922 35.25.093 15.265-11.419 37.681-26.679 37.227-14.686-.438-23.797-22.606-23.493-37.296.294-14.24 10.094-35.044 24.25-35.182z"/><path d="m331.348 26.203c0-.107 98.038-7.914 98.038-7.914s-9.219 91.716-10.104 96.592c1.277-3.3 22.717-46.002 22.818-46.002.105 0 53.047 69.799 53.047 69.799l-46.63 42.993c26.6 30.762 41.632 67.951 41.724 107.653.239 103.748-110.253 191.827-245.68 191.091-130.352-.706-239.977-86.977-240.475-188.91-.5-102.38 105.089-191.741 239.663-192.095 38.677-.1 74.34 6.068 105.82 17.154-3.241-16.067-18.22-90.265-18.22-90.36zm-85.421 157.959c-74.098-1.337-161.3 41.627-161.054 105.87.247 63.88 87.825 103.981 160.683 104.125 78.85.154 164.156-41.58 163.722-106.614-.428-64.436-86.566-101.996-163.351-103.381z"/></g></svg>