<svg xmlns="http://www.w3.org/2000/svg" width="314.844" height="27.255" viewBox="0 0 314.844 27.255"><defs><style>.a{fill:#3575d3;}.b{fill:#2b3648;}</style></defs><g transform="translate(-20 -19)"><rect class="a" width="7.478" height="7.478" transform="translate(20 19.016)"/><rect class="a" width="7.483" height="7.478" transform="translate(29.65 19.016)"/><rect class="a" width="7.483" height="7.478" transform="translate(39.3 19.016)"/><rect class="a" width="7.478" height="7.478" transform="translate(20 28.687)"/><rect class="a" width="7.483" height="7.478" transform="translate(29.65 28.687)"/><rect class="a" width="7.483" height="7.478" transform="translate(39.3 28.687)"/><rect class="a" width="7.478" height="7.478" transform="translate(20 38.363)"/><rect class="a" width="7.483" height="7.478" transform="translate(29.65 38.363)"/><rect class="a" width="7.483" height="7.478" transform="translate(39.3 38.363)"/><path class="a" d="M98.465,30.625a8.658,8.658,0,0,1,5.7-2.178c3.831,0,7.52,2.624,7.52,8.879,0,6.486-4.151,8.921-8.59,8.921a13.355,13.355,0,0,1-6.544-1.763V19.07h1.915Zm0,12.8a10.007,10.007,0,0,0,4.513,1.128c3.521,0,6.822-2.067,6.822-7.215,0-4.534-2.545-7.136-5.772-7.136a7.7,7.7,0,0,0-5.562,2.681Z" transform="translate(-36.381 -0.033)"/><path class="a" d="M131.78,45.919V19h1.837V45.919Z" transform="translate(-53.125)"/><path class="a" d="M145.671,47.985c0,4.1,2.01,5.205,4.02,5.205,2.256,0,4.324-1.417,5.93-3.768V37.48h1.9V54.7H155.6V51.4a8.155,8.155,0,0,1-6.544,3.594c-2.718,0-5.321-1.574-5.321-6.79V37.48h1.915Z" transform="translate(-58.809 -8.783)"/><path class="a" d="M191.57,53.348a12.069,12.069,0,0,1-6.139,1.469c-5.772-.189-8.747-4.723-8.559-9.566.215-5.415,4.229-8.364,8.517-8.207,4.633.11,7.787,3.825,7.178,9.262H178.751a6.668,6.668,0,0,0,6.774,6.753,10.689,10.689,0,0,0,5.373-1.322Zm-.782-8.611a5.667,5.667,0,0,0-5.573-5.972,6.155,6.155,0,0,0-6.391,5.972Z" transform="translate(-74.551 -8.573)"/><path class="a" d="M216.931,32.1a7.651,7.651,0,0,1,6.3-3.636c3.442,0,5.473,2.624,5.473,6.449v11.02h-1.894V35.3c0-3.731-1.915-5.053-3.983-5.074-2.5,0-4.723,1.936-5.909,3.888V45.952H215V19.07h1.915Z" transform="translate(-92.676 -0.033)"/><path class="a" d="M263.651,45.833c0,5.7-3.862,8.921-8.286,8.921-4.954,0-8.286-3.978-8.286-8.921,0-5.247,3.673-8.863,8.286-8.863C259.8,36.986,263.651,40.265,263.651,45.833Zm-14.635,0c0,3.8,2.22,7.115,6.349,7.115,4,0,6.376-3.327,6.376-7.115s-2.356-7.084-6.376-7.084C251.236,38.749,249.016,42,249.016,45.833Z" transform="translate(-107.922 -8.54)"/><path class="a" d="M285.94,51.533a8.338,8.338,0,0,0,4.591,1.454c1.8,0,4.035-.745,4.02-2.561,0-1.574-1.648-2.76-4.287-3.789-2.928-1.17-5.494-2.241-5.494-5s2.587-4.591,5.971-4.591a10.248,10.248,0,0,1,4.786,1.244L294.8,39.8a8.548,8.548,0,0,0-4-1.018c-2.849,0-4.135,1.4-4.135,2.855,0,1.858,2.1,2.545,4.765,3.636,4.156,1.627,5.032,3.479,5.032,5.069,0,2.7-2.524,4.4-5.872,4.4a10.768,10.768,0,0,1-5.473-1.574Z" transform="translate(-125.835 -8.578)"/><path class="a" d="M321.271,32.252v1.627h-5.725v9.414c0,2.776,1.186,4.576,3.673,4.67a7.142,7.142,0,0,0,3.232-.666l.556,1.684a10.5,10.5,0,0,1-3.831.761c-3.1,0-5.567-1.894-5.567-6.3V33.879h-3.08V32.252h3.08V26.48h1.915v5.772Z" transform="translate(-138.077 -3.555)"/><path class="b" d="M374.229,40.7a7.807,7.807,0,0,1,6.706-3.878c3.789,0,6.171,2.624,6.171,6.974V54.384h-4.229V44.251c0-2.624-1.385-3.878-3.285-3.878s-3.71,1.422-4.98,3.185V54.384h-4.2V44.251c0-2.571-1.328-3.878-3.306-3.878s-3.731,1.322-4.959,3.185V54.384H357.92V37.068h4.229v3.248a7.907,7.907,0,0,1,6.36-3.516A5.833,5.833,0,0,1,374.229,40.7Z" transform="translate(-160.6 -8.46)"/><path class="b" d="M435.547,42.99V54.4h-4.014l-.115-2.367a7.829,7.829,0,0,1-5.667,2.692c-2.944,0-5.421-1.957-5.421-4.975,0-3.306,2.923-4.518,6.3-5.363,2.209-.556,4.114-.829,4.691-2.1-.042-1.4-1.574-2.477-3.558-2.514a6.092,6.092,0,0,0-4.455,2L421.595,39.3a11.45,11.45,0,0,1,6.9-2.456C432.226,36.84,435.547,38.97,435.547,42.99Zm-4.224,6.743V44.758a5.014,5.014,0,0,1-2.692,1.669c-1.963.714-4.035,1.385-4.035,3.148a2.422,2.422,0,0,0,2.729,2.209,5.843,5.843,0,0,0,4-2.052Z" transform="translate(-190.261 -8.479)"/><path class="b" d="M473.6,46.948H459.99c.462,3.017,2.6,4.46,5.478,4.518a7.735,7.735,0,0,0,5.363-1.968l1.978,2.671a11.576,11.576,0,0,1-7.535,2.482c-5.494-.152-9.529-3.883-9.445-9.225.058-5.515,4.481-8.684,9.283-8.627C469.561,36.9,474.231,39.9,473.6,46.948ZM469.619,44.1c0-2.382-1.789-4.151-4.534-4.229a4.744,4.744,0,0,0-5.059,4.2Z" transform="translate(-207.132 -8.459)"/><path class="b" d="M507.322,38.653l-1.516,2.786a6.428,6.428,0,0,0-3.789-1.307c-1.863,0-2.881.866-2.881,1.768,0,1.175,1.711,1.711,3.673,2.251,2.23.614,5.609,1.805,5.494,5.321-.094,2.981-2.881,5.247-6.974,5.247a12.258,12.258,0,0,1-7.089-2.44l1.627-2.734a8.753,8.753,0,0,0,5.247,1.921c1.674,0,2.786-.75,2.786-1.784,0-1.5-2.456-2.193-4.266-2.75-1.936-.614-4.838-1.789-4.765-4.917.079-3.232,3.248-5.116,6.764-5.116A10.678,10.678,0,0,1,507.322,38.653Z" transform="translate(-225.388 -8.507)"/><path class="b" d="M537.325,32.431l-.037,3.327h-5.9v8.07c0,1.805,1.018,2.729,2.881,2.786a5.7,5.7,0,0,0,3.148-1.049l1.307,3.1a10.369,10.369,0,0,1-5,1.364c-3.573,0-6.533-2.1-6.533-6.381V35.774H524.18V32.431h3V27h4.229v5.457Z" transform="translate(-239.617 -3.802)"/><path class="b" d="M568.463,37.167v4.072a5.468,5.468,0,0,0-2.246-.462c-2.1,0-4.093,1.443-5.247,4.2v9.409H556.74V37.068h4.229v3.825c.976-2.151,3.054-4.093,5.588-4.093A5.772,5.772,0,0,1,568.463,37.167Z" transform="translate(-255.091 -8.46)"/><path class="b" d="M602.387,45.708c0,6.035-4.823,8.921-9.76,8.921-5.247,0-9.687-3.343-9.687-8.994,0-5.84,4.723-9.015,9.76-9.015C597.664,36.636,602.387,39.695,602.387,45.708Zm-15.144-.037a5.424,5.424,0,1,0,10.841,0,5.426,5.426,0,1,0-10.841,0Z" transform="translate(-267.543 -8.374)"/></g></svg>