<?xml version="1.0" encoding="utf-8"?>
<!-- Generator: Adobe Illustrator 26.3.1, SVG Export Plug-In . SVG Version: 6.00 Build 0)  -->
<svg version="1.1" id="Layer_1" xmlns="http://www.w3.org/2000/svg" xmlns:xlink="http://www.w3.org/1999/xlink" x="0px" y="0px"
	 viewBox="0 0 1200 1200" style="enable-background:new 0 0 1200 1200;" xml:space="preserve">
<style type="text/css">
	.st0{fill:#20B040;}
</style>
<g>
	<path class="st0" d="M199.3,370.7l97.3,346.9h606.8l97.3-346.9c-6-4.8-11.5-11.1-16.5-18l-87.4,94.1
		c-44.6,48-100.2,62.3-152.7,39.2c-26.5-11.8-51.4-32.7-71.6-61.1c-21.5-30-37.3-66.7-47.5-108.9l-10.7-45.2
		c-4.7,1.4-9.5,2.1-14.5,2.1c-5,0-9.9-0.7-14.5-2.1l-10.7,45.2c-10,42.4-26,79.1-47.5,108.9c-20.2,28.4-45.1,49.4-71.6,61.1
		c-52.3,23.1-108.1,8.8-152.7-39.2l-87.4-94.1C211,359.7,205.3,365.9,199.3,370.7L199.3,370.7z"/>
	<path class="st0" d="M889.8,929.1l9.2-180.4H300.9l9.2,180.4H889.8z"/>
</g>
</svg>
