<svg xmlns="http://www.w3.org/2000/svg" viewBox="0 0 256 256"><linearGradient id="A" gradientUnits="userSpaceOnUse" x1="3.515" y1="3.515" x2="252.485" y2="252.485"><stop offset="0" stop-color="#145a9d"/><stop offset="1" stop-color="#1e8ad4"/></linearGradient><path d="M244,256H12c-6.6,0-12-5.4-12-12V12C0,5.4,5.4,0,12,0h232c6.6,0,12,5.4,12,12v232C256,250.6,250.6,256,244,256   z" fill="url(#A)"/><g opacity=".5"><path d="M221.4,223h-176c-6.6,0-12-5.4-12-12V55c0-6.6,5.4-12,12-12h176c6.6,0,12,5.4,12,12v156C233.4,217.6,228,223,221.4,223z"/></g><path d="M216.4,218h-176c-6.6,0-12-5.4-12-12V50c0-6.6,5.4-12,12-12h176c6.6,0,12,5.4,12,12v156     C228.4,212.6,223,218,216.4,218z" fill="#f0fbff"/><path d="M122.8 110.3l-8.1 13.3c-.2.4-.7.5-1.1.3l-7.6-3.7v43.6c0 .2-.1.4-.2.6s-.4.2-.6.2H61.3c-.5 0-.8-.4-.8-.8v-43.6l-6.8 3.2c-.4.2-.8.1-1-.3l-8.8-12.8c-.2-.3-.2-.8.1-1.1l17.5-14.9c.1-.1.2-.1.4-.2l10.6-2.6c.3-.1.6 0 .8.2 6.8 6.9 13.6 6.9 20.8 0 .2-.2.5-.3.7-.2l11.4 2.8a.76.76 0 0 1 .4.2l16.2 14.7c.2.3.3.7 0 1.1h0z" fill="#08477c"/><path d="M137.1 94.8H180c.4 0 .8.4.8.8v4c0 .4-.4.8-.8.8h-42.9c-.4 0-.8-.4-.8-.8v-4c0-.4.4-.8.8-.8z" fill="#3e585f"/><path d="M136.7 109.4h76c.2 0 .4.2.4.4v3.6c0 .2-.2.4-.4.4h-76c-.2 0-.4-.2-.4-.4v-3.6c0-.2.2-.4.4-.4zm0 11.3h76c.2 0 .4.2.4.4v3.6c0 .2-.2.4-.4.4h-76c-.2 0-.4-.2-.4-.4v-3.6c0-.2.2-.4.4-.4zm0 11.3h52.2c.2 0 .4.2.4.4v3.6c0 .2-.2.4-.4.4h-52.2c-.2 0-.4-.2-.4-.4v-3.6c0-.2.2-.4.4-.4z" fill="#83a2aa"/><path d="M143.2 147.4h20.2c3.8 0 6.9 3.1 6.9 6.9h0c0 3.8-3.1 6.9-6.9 6.9h-20.2c-3.8 0-6.9-3.1-6.9-6.9h0c0-3.8 3.1-6.9 6.9-6.9z" fill="#2dc952"/><path d="M146.3 152.3h14a.47.47 0 0 1 .5.5v3a.47.47 0 0 1-.5.5h-14a.47.47 0 0 1-.5-.5v-3a.47.47 0 0 1 .5-.5z" fill="#fff"/><path d="M213 54.5l2.8-2.8c.3-.3.3-.8 0-1.1l-.4-.4c-.3-.3-.8-.3-1.1 0l-2.8 2.8-2.8-2.8c-.3-.3-.8-.3-1.1 0l-.4.4c-.3.3-.3.8 0 1.1l2.8 2.8-2.8 2.8c-.3.3-.3.8 0 1.1l.4.4c.3.3.8.3 1.1 0l2.8-2.8 2.8 2.8c.3.3.8.3 1.1 0l.4-.4c.3-.3.3-.8 0-1.1l-2.8-2.8zM211.5 65a10.5 10.5 0 1 1 0-21 10.5 10.5 0 1 1 0 21zm0-19.3c-4.9 0-8.8 4-8.8 8.8s4 8.8 8.8 8.8 8.8-4 8.8-8.8-3.9-8.8-8.8-8.8z" fill="#83a2aa"/></svg>