<svg xmlns="http://www.w3.org/2000/svg" viewBox="0 0 256 256"><linearGradient id="A" gradientUnits="userSpaceOnUse" x1="3.525" y1="3.525" x2="252.475" y2="252.475"><stop offset="0" stop-color="#281266"/><stop offset=".312" stop-color="#3a1f75"/><stop offset=".933" stop-color="#68429c"/><stop offset="1" stop-color="#6d46a1"/></linearGradient><path d="M244,256H12c-6.6,0-12-5.4-12-12V12C0,5.4,5.4,0,12,0h232c6.6,0,12,5.4,12,12v232C256,250.6,250.6,256,244,256z  " fill="url(#A)"/><g opacity=".8"><path d="M216.6 233.2H49.4c-6.3 0-11.4-6-11.4-13.4V46.1c0-7.3 5.1-13.4 11.4-13.4h167.2c6.3 0 11.4 6 11.4 13.4v173.7c0 7.4-5.1 13.4-11.4 13.4z" fill="#23194c"/></g><path d="M211.6 228.2H44.4c-6.3 0-11.4-6-11.4-13.4V41.1c0-7.3 5.1-13.4 11.4-13.4h167.2c6.3 0 11.4 6 11.4 13.4v173.7c0 7.4-5.1 13.4-11.4 13.4z" fill="#f0fbff"/><path d="M59.3 41.5h137.4c3.9 0 7 3.1 7 6.8v120.3c0 3.8-3.1 6.8-7 6.8H59.3c-3.9 0-7-3.1-7-6.8V48.3c0-3.8 3.1-6.8 7-6.8z" fill="#93b1c9"/><path d="M176.5 86.6l-10 16.4c-.2.5-.9.6-1.4.4l-9.3-4.6v53.6c0 .2-.1.5-.2.7s-.5.2-.7.2h-54c-.6 0-1-.5-1-1V98.8l-8.4 3.9c-.5.2-1 .1-1.2-.4L79.4 86.6c-.2-.4-.2-1 .1-1.4L101.1 67c.1-.1.2-.1.5-.2l13-3.2c.4-.1.7 0 1 .2 8.4 8.5 16.7 8.5 25.6 0 .2-.2.6-.4.9-.2l14 3.4c.1 0 .4.1.5.2l19.9 18.1c.2.4.4.8 0 1.3h0z" fill="#09347a"/><path d="M55.6 180.5h27.2a3.37 3.37 0 0 1 3.4 3.4v27.2a3.37 3.37 0 0 1-3.4 3.4H55.6a3.37 3.37 0 0 1-3.4-3.4v-27.2c.1-1.8 1.6-3.4 3.4-3.4z" fill="#b9cddb"/><path d="M81.3 192.1l-2.5 4.1c-.1.1-.2.2-.3.1l-2.3-1.1v13.3c0 .1 0 .1-.1.2 0 .1-.1.1-.2.1H62.5c-.2 0-.2-.1-.2-.2v-13.3l-2.1 1c-.1.1-.2 0-.3-.1l-2.7-3.9c-.1-.1-.1-.2 0-.3l5.4-4.6s.1 0 .1-.1l3.2-.8c.1 0 .2 0 .2.1 2.1 2.1 4.2 2.1 6.4 0 .1-.1.2-.1.2-.1l3.5.9s.1 0 .1.1l5 4.5c.1-.1.1 0 0 .1h0z" fill="#32ad4c"/><path d="M94.8 180.5H122a3.37 3.37 0 0 1 3.4 3.4v27.2a3.37 3.37 0 0 1-3.4 3.4H94.8a3.37 3.37 0 0 1-3.4-3.4v-27.2a3.44 3.44 0 0 1 3.4-3.4z" fill="#b9cddb"/><path d="M120.5 192.1l-2.5 4.1c-.1.1-.2.2-.3.1l-2.3-1.1v13.3c0 .1 0 .1-.1.2 0 .1-.1.1-.2.1h-13.4c-.2 0-.2-.1-.2-.2v-13.3l-2.1 1c-.1.1-.2 0-.3-.1l-2.7-3.9c-.1-.1-.1-.2 0-.3l5.4-4.6s.1 0 .1-.1l3.2-.8c.1 0 .2 0 .2.1 2.1 2.1 4.2 2.1 6.4 0 .1-.1.2-.1.2-.1l3.5.9s.1 0 .1.1l5 4.5c0-.1.1 0 0 .1h0z" fill="#8e0774"/><path d="M134 180.5h27.2a3.37 3.37 0 0 1 3.4 3.4v27.2a3.37 3.37 0 0 1-3.4 3.4H134a3.37 3.37 0 0 1-3.4-3.4v-27.2a3.44 3.44 0 0 1 3.4-3.4z" fill="#b9cddb" stroke="#362063" stroke-width=".75" stroke-miterlimit="10"/><path d="M159.6 192.1l-2.5 4.1c-.1.1-.2.2-.3.1l-2.3-1.1v13.3c0 .1 0 .1-.1.2 0 .1-.1.1-.2.1h-13.4c-.2 0-.2-.1-.2-.2v-13.3l-2.1 1c-.1.1-.2 0-.3-.1l-2.7-3.9c-.1-.1-.1-.2 0-.3l5.4-4.6s.1 0 .1-.1l3.2-.8c.1 0 .2 0 .2.1 2.1 2.1 4.2 2.1 6.4 0 .1-.1.2-.1.2-.1l3.5.9s.1 0 .1.1l5 4.5c.1-.1.1 0 0 .1h0z" fill="#09347a"/><path d="M173.1 180.5h27.2a3.37 3.37 0 0 1 3.4 3.4v27.2a3.37 3.37 0 0 1-3.4 3.4h-27.2a3.37 3.37 0 0 1-3.4-3.4v-27.2c0-1.8 1.6-3.4 3.4-3.4z" fill="#b9cddb"/><path d="M198.8 192.1l-2.5 4.1c-.1.1-.2.2-.3.1l-2.3-1.1v13.3c0 .1 0 .1-.1.2 0 .1-.1.1-.2.1H180c-.2 0-.2-.1-.2-.2v-13.3l-2.1 1c-.1.1-.2 0-.3-.1l-2.7-3.9c-.1-.1-.1-.2 0-.3l5.4-4.6s.1 0 .1-.1l3.2-.8c.1 0 .2 0 .2.1 2.1 2.1 4.2 2.1 6.4 0 .1-.1.2-.1.2-.1l3.5.9s.1 0 .1.1l5 4.5c.1-.1.1 0 0 .1h0z" fill="#ec4739"/><path d="M200.4 214.5h-1.5v-34h1.5a3.37 3.37 0 0 1 3.4 3.4v27.2c-.1 1.9-1.6 3.4-3.4 3.4z" opacity=".6" fill="#09347a"/><path d="M202.4 197.7a.37.37 0 0 0 0-.6l-1.7-1.7a.37.37 0 0 0-.6 0c-.2.2-.2.4 0 .6l1.4 1.4-1.4 1.4c-.2.2-.2.4 0 .6a.37.37 0 0 0 .6 0l1.7-1.7z" fill="#fff"/><path d="M55.6 214.5h1.5v-34h-1.5a3.37 3.37 0 0 0-3.4 3.4v27.2c.1 1.9 1.6 3.4 3.4 3.4z" opacity=".6" fill="#09347a"/><path d="M55.3 199.5c.2.2.4.2.6 0a.37.37 0 0 0 0-.6l-1.4-1.4 1.4-1.4a.37.37 0 0 0 0-.6c-.2-.2-.4-.2-.6 0l-1.7 1.7a.37.37 0 0 0 0 .6l1.7 1.7z" fill="#fff"/><g fill="#281266"><g opacity=".5"><path d="M195.6 108.9a.61.61 0 0 0 0-.8l-2.6-2.5c-.2-.2-.6-.2-.9 0a.61.61 0 0 0 0 .8l2.1 2.1-2.1 2.1a.61.61 0 0 0 0 .8c.2.2.6.2.9 0l2.6-2.5zm1.7 5.1h-6.9c-1.1 0-2-.9-2-2v-7c0-1.1.9-2 2-2h6.9c1.1 0 2 .9 2 2v6.9c.1 1.1-.9 2.1-2 2.1zm-6.9-10c-.6 0-1 .5-1 1v6.9c0 .6.5 1 1 1h6.9c.6 0 1-.5 1-1V105c0-.6-.5-1-1-1h-6.9z"/></g><g opacity=".5"><path d="M62.8 111.4c.2.2.6.2.9 0a.61.61 0 0 0 0-.8l-2.1-2.1 2.1-2.1a.61.61 0 0 0 0-.8c-.2-.2-.6-.2-.9 0l-2.6 2.5a.61.61 0 0 0 0 .8l2.6 2.5zm-6.4.5V105c0-1.1.9-2 2-2h6.9c1.1 0 2 .9 2 2v6.9c0 1.1-.9 2-2 2h-6.9c-1.1.1-2-.9-2-2zm2-7.9c-.6 0-1 .5-1 1v6.9c0 .6.5 1 1 1h6.9c.6 0 1-.5 1-1V105c0-.6-.5-1-1-1h-6.9z"/></g></g></svg>