<svg xmlns="http://www.w3.org/2000/svg" width="18.953" height="18.858" viewBox="0 0 18.953 18.858">
  <g id="ELEX_grey_logo_for_sidebar" data-name="ELEX grey logo for sidebar" transform="translate(0.001 -1.042)">
    <g id="_1" data-name="1" transform="translate(5.764 10.48)">
      <g id="Group_242" data-name="Group 242" transform="translate(0 0)">
        <g id="Group_241" data-name="Group 241">
          <g id="Group_240" data-name="Group 240">
            <path id="Path_410" data-name="Path 410" d="M6.3,7.77,6.39,9.286q-.318.034-.748.059t-.971.042q-.541.017-1.194.025T2.06,9.42a2.968,2.968,0,0,1-.444-.032,2.285,2.285,0,0,1-.4-.1,1.9,1.9,0,0,1-.349-.159,1.782,1.782,0,0,1-.3-.222,1.7,1.7,0,0,1-.244-.276,1.657,1.657,0,0,1-.176-.321A1.867,1.867,0,0,1,.04,7.95,2.357,2.357,0,0,1,0,7.539V1.881a2.355,2.355,0,0,1,.04-.41A1.87,1.87,0,0,1,.149,1.1,1.659,1.659,0,0,1,.325.784,1.7,1.7,0,0,1,.569.507a1.782,1.782,0,0,1,.3-.222A1.9,1.9,0,0,1,1.22.127a2.285,2.285,0,0,1,.4-.1A2.968,2.968,0,0,1,2.06,0q.764,0,1.417.009T4.671.034q.541.017.971.043t.748.06L6.3,1.666H2.707a1.141,1.141,0,0,0-.158.01.752.752,0,0,0-.134.03.52.52,0,0,0-.11.051.409.409,0,0,0-.086.071.446.446,0,0,0-.064.094.628.628,0,0,0-.045.119.952.952,0,0,0-.027.144,1.464,1.464,0,0,0-.009.169V3.777H5.795V5.264H2.073v1.8a1.569,1.569,0,0,0,.009.176,1,1,0,0,0,.027.148.634.634,0,0,0,.045.121.433.433,0,0,0,.064.095.406.406,0,0,0,.086.071.516.516,0,0,0,.11.051.751.751,0,0,0,.134.03,1.151,1.151,0,0,0,.158.01Z" transform="translate(0 0)" fill="#f0f0f1"/>
          </g>
        </g>
      </g>
      <g id="Group_275" data-name="Group 275" transform="translate(6.391 1.526)">
        <g id="Group_274" data-name="Group 274">
          <g id="Group_273" data-name="Group 273">
            <path id="Path_421" data-name="Path 421" d="M3.436,3.573H3.361L1.9,6.159H0L1.9,3,.14,0H2.024L3.338,2.372h.124L4.773,0H6.66L4.9,3,6.8,6.159H4.9Z" fill="#f0f0f1"/>
          </g>
        </g>
      </g>
    </g>
    <g id="Group_1114" data-name="Group 1114" transform="translate(-0.001 1.042)">
      <g id="Group_242-2" data-name="Group 242" transform="translate(0 0)">
        <g id="Group_241-2" data-name="Group 241" transform="translate(0 0)">
          <g id="Group_240-2" data-name="Group 240">
            <path id="Path_410-2" data-name="Path 410" d="M6.111,7.541,6.2,9.013q-.309.033-.726.057t-.943.04q-.525.016-1.159.024T2,9.142a2.881,2.881,0,0,1-.43-.031,2.218,2.218,0,0,1-.384-.092,1.848,1.848,0,0,1-.339-.154A1.729,1.729,0,0,1,.553,8.65a1.647,1.647,0,0,1-.237-.268A1.609,1.609,0,0,1,.145,8.07a1.813,1.813,0,0,1-.105-.355A2.288,2.288,0,0,1,0,7.317V1.825a2.285,2.285,0,0,1,.039-.4,1.815,1.815,0,0,1,.1-.355A1.611,1.611,0,0,1,.315.761,1.645,1.645,0,0,1,.553.492,1.729,1.729,0,0,1,.846.277,1.848,1.848,0,0,1,1.184.123,2.218,2.218,0,0,1,1.569.031,2.881,2.881,0,0,1,2,0q.742,0,1.376.008T4.534.033q.526.017.943.042T6.2.132L6.111,1.617H2.628a1.107,1.107,0,0,0-.153.01.73.73,0,0,0-.13.03.5.5,0,0,0-.107.049.4.4,0,0,0-.084.069.433.433,0,0,0-.062.092.609.609,0,0,0-.044.116.924.924,0,0,0-.027.14,1.421,1.421,0,0,0-.009.164V3.666H5.625V5.11H2.012v1.75a1.523,1.523,0,0,0,.009.17.966.966,0,0,0,.027.144.615.615,0,0,0,.044.118.421.421,0,0,0,.062.092.394.394,0,0,0,.084.069.5.5,0,0,0,.107.049.729.729,0,0,0,.13.029,1.118,1.118,0,0,0,.153.01Z" transform="translate(0 0)" fill="#f0f0f1"/>
          </g>
        </g>
      </g>
      <g id="Group_245" data-name="Group 245" transform="translate(8.12 0.288)">
        <g id="Group_244" data-name="Group 244" transform="translate(0)">
          <g id="Group_243" data-name="Group 243">
            <path id="Path_411" data-name="Path 411" d="M2,0V6.764a1.242,1.242,0,0,0,.01.165.814.814,0,0,0,.031.14.557.557,0,0,0,.051.116.428.428,0,0,0,.167.16.613.613,0,0,0,.123.049.952.952,0,0,0,.15.029,1.5,1.5,0,0,0,.178.01H5.82l.092,1.525q-.332.036-.737.062t-.885.044q-.48.018-1.033.027T2.074,9.1a3.484,3.484,0,0,1-.492-.033,2.4,2.4,0,0,1-.424-.1A1.763,1.763,0,0,1,.8,8.806a1.467,1.467,0,0,1-.29-.229,1.682,1.682,0,0,1-.223-.284,1.741,1.741,0,0,1-.16-.329,2.043,2.043,0,0,1-.1-.374A2.624,2.624,0,0,1,0,7.172V0Z" transform="translate(0)" fill="#f0f0f1"/>
          </g>
        </g>
      </g>
    </g>
  </g>
</svg>
