<svg xmlns="http://www.w3.org/2000/svg" viewBox="0 0 97 81.3"><title>flip box</title><g id="Layer_2" data-name="Layer 2"><g id="Layer_1-2" data-name="Layer 1"><path d="M50,1.5a1.5,1.5,0,0,0-3,0V5a1.5,1.5,0,0,0,3,0Z"/><path d="M50,24.44a1.5,1.5,0,1,0-3,0v6.49a1.5,1.5,0,1,0,3,0Z"/><path d="M50,37.41a1.5,1.5,0,0,0-3,0v6.48a1.5,1.5,0,0,0,3,0Z"/><path d="M50,11.48a1.5,1.5,0,0,0-3,0V18a1.5,1.5,0,1,0,3,0Z"/><path d="M50,50.37a1.5,1.5,0,0,0-3,0v6.48a1.5,1.5,0,0,0,3,0Z"/><path d="M48.5,61.83a1.5,1.5,0,0,0-1.5,1.5v6.49a1.5,1.5,0,0,0,3,0V63.33A1.5,1.5,0,0,0,48.5,61.83Z"/><path d="M48.5,81.3A1.5,1.5,0,0,0,50,79.8V76.3a1.5,1.5,0,0,0-3,0v3.5A1.5,1.5,0,0,0,48.5,81.3Z"/><path d="M0,74.59a4.78,4.78,0,0,0,4.65,4.89h.18L32.7,76.09a4.81,4.81,0,0,0,4.58-4.9V6.71a4.78,4.78,0,0,0-4.65-4.89h-.18L4.57,5.21A4.8,4.8,0,0,0,0,10.1Zm3,0V10.1A1.79,1.79,0,0,1,4.65,8.21h.18L32.67,4.82a1.79,1.79,0,0,1,1.61,1.89V71.19a1.79,1.79,0,0,1-1.65,1.9h-.18L4.61,76.48A1.8,1.8,0,0,1,3,74.59Z"/><path d="M97,10.1a4.81,4.81,0,0,0-4.55-4.89L64.55,1.83h-.18a4.78,4.78,0,0,0-4.65,4.89V71.19a4.79,4.79,0,0,0,4.52,4.89l27.93,3.39h.18A4.78,4.78,0,0,0,97,74.59Zm-3,0V74.59a1.8,1.8,0,0,1-1.53,1.89L64.55,73.1h-.18a1.79,1.79,0,0,1-1.65-1.9V6.71a1.81,1.81,0,0,1,1.54-1.9L92.17,8.2h.18A1.79,1.79,0,0,1,94,10.1Z"/></g></g></svg>