<svg width="24" height="24" viewBox="0 0 24 24" fill="none" xmlns="http://www.w3.org/2000/svg">
<circle cx="12" cy="12" r="12" fill="#5B9AF8"/>
<path d="M8.63651 18.0694C8.55102 17.9038 8.53384 17.7266 8.5418 17.543C8.5485 17.3833 8.56275 17.2199 8.5397 17.0632C8.45756 16.5066 8.71236 16.1718 9.16455 15.8659C11.0931 14.5613 12.9999 13.224 14.9143 11.8985C14.9591 11.8675 15.001 11.8323 15.0706 11.7795C14.8149 11.5984 14.5756 11.4262 14.3334 11.2573C12.5779 10.0319 10.8262 8.80066 9.06187 7.58786C8.66878 7.31756 8.45463 7.00493 8.50157 6.51419C8.53048 6.21203 8.50702 5.90485 8.50702 5.61443C8.59335 5.5587 8.63316 5.60898 8.67632 5.63916C10.4771 6.89722 12.2774 8.15529 14.0774 9.41419C14.7835 9.90828 15.4788 10.4196 16.1971 10.8952C16.9376 11.3855 16.7515 12.2911 16.1723 12.6884C13.748 14.3517 11.3387 16.0381 8.92441 17.7161C8.85066 17.7672 8.78067 17.8242 8.70775 17.8799L8.678 18.0694H8.63651V18.0694Z" fill="white"/>
<path d="M8.46984 9.29895C8.6886 8.95992 8.89353 8.90377 9.21035 9.12127C10.4139 9.94726 11.6137 10.7787 12.814 11.6089C12.8584 11.6395 12.9137 11.6613 12.9389 11.7497C12.6308 11.95 12.3631 12.2316 11.9842 12.3322C11.6925 12.4098 11.4356 12.302 11.2001 12.1394C10.4278 11.6064 9.65792 11.07 8.8864 10.5361C8.74936 10.4414 8.60855 10.3517 8.46942 10.2599V9.29937L8.46984 9.29895Z" fill="white"/>
</svg>
