<svg width="26" height="27" viewBox="0 0 26 27" fill="none" xmlns="http://www.w3.org/2000/svg">
<path d="M19.1121 12.3466C19.3016 12.3238 19.4836 12.3228 19.6504 12.3466C19.7468 12.1245 19.7642 11.7422 19.6764 11.3262C19.5475 10.7077 19.372 10.3329 19.0102 10.3914C18.6484 10.4499 18.6354 10.8983 18.7643 11.5168C18.8391 11.8646 18.968 12.1624 19.1121 12.3466Z" fill="#5B9AF8"/>
<path d="M16.0088 12.8362C16.2677 12.9499 16.427 13.0247 16.4887 12.9597C16.5288 12.9185 16.5169 12.8405 16.4551 12.7398C16.3273 12.5318 16.0652 12.3206 15.7868 12.2014C15.217 11.9566 14.5378 12.0378 14.0135 12.4148C13.8402 12.5415 13.6766 12.717 13.6994 12.8243C13.707 12.8589 13.733 12.8849 13.7936 12.8936C13.9366 12.9098 14.4349 12.6574 15.009 12.6228C15.4142 12.5957 15.75 12.7224 16.0088 12.8362Z" fill="#5B9AF8"/>
<path d="M15.4887 13.133C15.1518 13.1861 14.9654 13.2976 14.8463 13.4005C14.7445 13.4894 14.6816 13.5879 14.6816 13.6573C14.6816 13.6898 14.6957 13.7093 14.7076 13.719C14.7228 13.7331 14.7412 13.7396 14.7629 13.7396C14.8387 13.7396 15.0099 13.6714 15.0099 13.6714C15.4789 13.5035 15.7876 13.524 16.0942 13.5587C16.2632 13.5782 16.3433 13.5879 16.3802 13.5305C16.391 13.5143 16.404 13.4775 16.3704 13.4233C16.2924 13.2944 15.9523 13.0777 15.4887 13.133Z" fill="#5B9AF8"/>
<path d="M18.0644 14.2228C18.293 14.3354 18.5454 14.291 18.6266 14.1242C18.7089 13.9574 18.5898 13.731 18.3612 13.6183C18.1327 13.5057 17.8803 13.5501 17.799 13.7169C17.7167 13.8848 17.8359 14.1112 18.0644 14.2228Z" fill="#5B9AF8"/>
<path d="M19.5345 12.938C19.3482 12.9348 19.1944 13.1384 19.19 13.3941C19.1857 13.6486 19.333 13.8577 19.5183 13.8609C19.7046 13.8642 19.8584 13.6605 19.8627 13.4049C19.8681 13.1503 19.7208 12.9413 19.5345 12.938Z" fill="#5B9AF8"/>
<path d="M7.05253 17.5331C7.00595 17.4746 6.93013 17.493 6.85647 17.5103C6.80556 17.5222 6.74706 17.5363 6.68315 17.5352C6.54666 17.5331 6.43076 17.4746 6.36576 17.3738C6.28127 17.2438 6.2856 17.0499 6.37984 16.8279C6.39284 16.7975 6.40692 16.765 6.42317 16.7282C6.57266 16.3935 6.8218 15.8345 6.54125 15.3005C6.33002 14.8986 5.98663 14.6495 5.57283 14.5964C5.17637 14.5466 4.76691 14.6928 4.50693 14.981C4.0953 15.4348 4.03139 16.0512 4.11155 16.27C4.1408 16.3502 4.18629 16.3718 4.21987 16.3762C4.29028 16.3859 4.39319 16.335 4.45818 16.1606C4.46252 16.1476 4.46902 16.1281 4.4766 16.1043C4.50585 16.0122 4.55893 15.841 4.64775 15.7035C4.75391 15.5377 4.91964 15.4229 5.11354 15.3817C5.31177 15.3395 5.51326 15.3774 5.68224 15.4879C5.97038 15.6764 6.08087 16.0295 5.95847 16.3664C5.89455 16.5408 5.79165 16.8734 5.8144 17.1474C5.85989 17.701 6.20111 17.9241 6.50658 17.9469C6.80447 17.9577 7.01245 17.7909 7.06445 17.6685C7.09586 17.5959 7.06987 17.5526 7.05253 17.5331Z" fill="#5B9AF8"/>
<path d="M24.224 16.5203C24.2132 16.4802 24.1385 16.2105 24.0377 15.8855C23.9359 15.5605 23.8319 15.332 23.8319 15.332C24.2381 14.7232 24.2457 14.1783 24.1915 13.8707C24.1341 13.4883 23.9749 13.1622 23.6543 12.8264C23.3336 12.4896 22.6772 12.1451 21.7553 11.8862C21.6503 11.8569 21.3026 11.7616 21.2711 11.7519C21.269 11.7324 21.2462 10.6112 21.2246 10.1303C21.2094 9.78255 21.1791 9.23985 21.0112 8.70581C20.8108 7.98221 20.4609 7.3496 20.0243 6.94447C21.2289 5.6955 21.9807 4.32087 21.9785 3.14015C21.9752 0.870768 19.1881 0.183996 15.7542 1.60628C15.751 1.60737 15.0317 1.91284 15.0263 1.91501C15.023 1.91176 13.7112 0.62379 13.6907 0.607541C9.77693 -2.8079 -2.46471 10.7997 1.44902 14.1047L2.30477 14.8293C2.08271 15.4045 1.99605 16.0631 2.06646 16.7705C2.15745 17.6804 2.62758 18.5524 3.38801 19.2251C4.10944 19.8642 5.05944 20.2693 5.98019 20.2683C7.50322 23.7779 10.9837 25.9314 15.0642 26.0527C19.4416 26.1827 23.1159 24.1289 24.6552 20.4394C24.7559 20.1805 25.1827 19.0139 25.1827 17.9837C25.1827 16.9492 24.5967 16.5203 24.224 16.5203ZM6.31599 19.2836C6.18275 19.3064 6.04735 19.315 5.91086 19.3118C4.58931 19.276 3.16053 18.0866 3.01862 16.6752C2.86155 15.1153 3.65882 13.914 5.07027 13.6302C5.23926 13.5966 5.4429 13.576 5.6628 13.588C6.45356 13.6313 7.61912 14.239 7.8856 15.9613C8.12066 17.4854 7.74695 19.0388 6.31599 19.2836ZM4.83954 12.6954C3.96104 12.8665 3.18652 13.3637 2.71315 14.0516C2.43043 13.8154 1.90289 13.3583 1.80973 13.1807C1.05363 11.7454 2.63516 8.95495 3.73898 7.37885C6.46873 3.48353 10.7443 0.534965 12.7233 1.07008C13.0451 1.16107 14.111 2.39705 14.111 2.39705C14.111 2.39705 12.133 3.49436 10.298 5.02498C7.82602 6.92714 5.95852 9.69372 4.83954 12.6954ZM18.7158 18.6997C18.744 18.6878 18.7645 18.6542 18.7613 18.6217C18.757 18.5817 18.7212 18.5524 18.6811 18.5568C18.6811 18.5568 16.61 18.8633 14.6537 18.1473C14.8671 17.4551 15.4336 17.7053 16.2893 17.7736C17.833 17.8656 19.2162 17.6403 20.2388 17.3468C21.1249 17.0922 22.2883 16.5907 23.1928 15.8779C23.4972 16.5474 23.6055 17.285 23.6055 17.285C23.6055 17.285 23.8417 17.2428 24.0388 17.3641C24.2251 17.4789 24.3616 17.7172 24.2685 18.3336C24.0789 19.4851 23.5893 20.4199 22.766 21.28C22.2656 21.8195 21.6579 22.2874 20.9613 22.6286C20.592 22.8225 20.1987 22.9904 19.7828 23.1258C16.6815 24.1387 13.5076 23.0251 12.4839 20.6333C12.4027 20.4535 12.3334 20.265 12.2792 20.0689C11.8427 18.4928 12.2131 16.6026 13.3711 15.4121C13.3711 15.4121 13.3711 15.4121 13.3711 15.411C13.4426 15.3352 13.5152 15.2464 13.5152 15.1337C13.5152 15.0395 13.4556 14.9409 13.4036 14.8705C12.9985 14.2834 11.5968 13.2825 11.8773 11.3457C12.0799 9.95478 13.2964 8.97445 14.4305 9.03295C14.5258 9.03836 14.6222 9.04378 14.7176 9.0492C15.2094 9.07844 15.6383 9.14127 16.0424 9.1586C16.7194 9.18785 17.3292 9.08928 18.0496 8.48808C18.2933 8.28551 18.4883 8.10895 18.8187 8.0537C18.8534 8.04829 18.94 8.01687 19.1123 8.02445C19.2888 8.0342 19.4556 8.08187 19.6062 8.18261C20.1847 8.56716 20.267 9.49982 20.2962 10.1812C20.3136 10.5701 20.3601 11.5125 20.3764 11.7822C20.4132 12.4007 20.5757 12.4874 20.9039 12.5957C21.0892 12.6564 21.2603 12.7019 21.5138 12.7734C22.2796 12.9878 22.7335 13.2067 23.0195 13.4861C23.1906 13.6616 23.2697 13.8468 23.2935 14.0245C23.3834 14.6831 22.7823 15.4966 21.1899 16.2354C19.4491 17.0435 17.3379 17.2482 15.8788 17.0857C15.7672 17.0727 15.3686 17.0283 15.3675 17.0283C14.2009 16.8712 13.5347 18.3791 14.2355 19.4125C14.6872 20.0787 15.9167 20.512 17.1473 20.512C19.968 20.512 22.1366 19.3074 22.9426 18.2675C22.9664 18.2361 22.9686 18.2329 23.0076 18.1755C23.0476 18.1159 23.0141 18.0823 22.9653 18.117C22.3067 18.5676 19.3798 20.3582 16.2493 19.8198C16.2493 19.8198 15.869 19.757 15.5213 19.6227C15.2451 19.5154 14.6677 19.25 14.5973 18.6575C17.1256 19.4385 18.7158 18.6997 18.7158 18.6997ZM9.88092 7.3626C10.8515 6.24145 12.0463 5.26654 13.1165 4.71842C13.1534 4.70001 13.1924 4.74009 13.1729 4.77583C13.0884 4.92965 12.9248 5.25895 12.8728 5.50918C12.8652 5.54818 12.9075 5.57743 12.94 5.55468C13.6062 5.1008 14.7641 4.61443 15.7802 4.5516C15.8235 4.54944 15.8452 4.60468 15.8105 4.63176C15.6556 4.74983 15.4867 4.91449 15.3643 5.08022C15.3437 5.10838 15.3632 5.14955 15.3978 5.14955C16.1117 5.15496 17.1169 5.40411 17.7723 5.77133C17.8167 5.79624 17.7853 5.88181 17.7355 5.87098C16.7443 5.6435 15.1205 5.47127 13.4339 5.8829C11.9282 6.25012 10.78 6.81665 9.94158 7.42651C9.89825 7.45792 9.84734 7.40268 9.88092 7.3626Z" fill="#5B9AF8"/>
</svg>
