<svg xmlns="http://www.w3.org/2000/svg" width="327.5" height="29.904" viewBox="0 0 327.5 29.904">
  <g id="Group_52" data-name="Group 52" transform="translate(-55.338 -165.506)">
    <g id="Group_51" data-name="Group 51" transform="translate(55.338 165.506)">
      <path id="Path_39" data-name="Path 39" d="M314.325,187.21v8.2H288.818v-29.9l25.506.013v8.2H298.635v3.027h14.6v7.218h-14.6v3.246Z" transform="translate(13.175 -165.506)" fill="#fff"/>
      <path id="Path_40" data-name="Path 40" d="M292.82,186.874v8.536H268.788v-29.9h9.985v21.368Z" transform="translate(7.298 -165.506)" fill="#fff"/>
      <path id="Path_41" data-name="Path 41" d="M273.724,165.506v8.472h-8.8V195.41h-9.985V173.978h-8.8v-8.472Z" transform="translate(0.654 -165.506)" fill="#fff"/>
      <path id="Path_42" data-name="Path 42" d="M250.984,165.516v8.459h-8.8v21.432H232.2V173.975h-8.8v-8.459Z" transform="translate(-6.019 -165.503)" fill="#fff"/>
      <path id="Path_43" data-name="Path 43" d="M231.271,187.21v8.2H199.31c5.148-1.281,8.265-4.682,8.265-9.57v-.079c0-6.027-5.122-8.239-12.766-9.649-3.156-.595-3.971-1.112-3.971-1.927v-.078c0-.724.686-1.242,2.173-1.242a15.58,15.58,0,0,1,8.964,2.949l4.863-6.752a18.291,18.291,0,0,0-7.774-3.557l24.614.013h7.373v8.2H215.388v3.027h14.6v7.217h-14.6v3.247Z" transform="translate(-15.576 -165.506)" fill="#fff"/>
      <path id="Path_44" data-name="Path 44" d="M206.7,186.693v.091c0,.815-.763,1.281-2.561,1.281a17.035,17.035,0,0,1-10.452-3.505l-5.341,6.364a20.47,20.47,0,0,0,9.544,4.488H173.722l-6.959-10.166a9.656,9.656,0,0,0,5.885-9.132v-.091a9.391,9.391,0,0,0-2.729-7.088c-2.1-2.082-5.458-3.415-10.761-3.415l38.855-.013c-5.251,1.345-8.045,5.031-8.045,9.533v.091c0,6.325,5.9,8.239,12.6,9.61C205.774,185.373,206.7,185.84,206.7,186.693Z" transform="translate(-24.873 -165.506)" fill="#fff"/>
      <path id="Path_45" data-name="Path 45" d="M163.747,174.845v.091c0,1.837-1.449,2.9-3.842,2.9H155.6v-5.846h4.346C162.259,171.986,163.747,172.93,163.747,174.845Z" transform="translate(-25.917 -163.604)" fill="#fff"/>
      <path id="Path_46" data-name="Path 46" d="M157.732,182.026l5.639,8.536H155.6v-8.536h2.135Z" transform="translate(-25.917 -160.658)" fill="#fff"/>
      <path id="Path_47" data-name="Path 47" d="M151.973,165.516v29.891h-2.212v-8.2H133.878v-3.246h14.6v-7.218h-14.6v-3.027h15.677v-8.2Z" transform="translate(-32.291 -165.503)" fill="#fff"/>
      <path id="Path_48" data-name="Path 48" d="M128.987,165.516v29.891H116.958Z" transform="translate(-37.256 -165.503)" fill="#fff"/>
      <path id="Path_49" data-name="Path 49" d="M120.383,165.516l-5.808,16.789-5.807-16.789Z" transform="translate(-39.659 -165.503)" fill="#fff"/>
      <path id="Path_50" data-name="Path 50" d="M103.656,165.506l12.055,29.9H103.889v-8.2H88.018v-3.246h14.59v-7.218H88.018v-3.027h15.637Z" transform="translate(-45.748 -165.506)" fill="#fff"/>
      <path id="Path_51" data-name="Path 51" d="M87.778,165.519V195.41H76.344L65.207,181.623V195.41H55.338v-29.9h9.4l10.581,13.206V165.506Z" transform="translate(-55.338 -165.506)" fill="#fff"/>
    </g>
  </g>
</svg>
