<?xml version="1.0" encoding="utf-8"?>
<!-- Generator: Adobe Illustrator 21.1.0, SVG Export Plug-In . SVG Version: 6.00 Build 0)  -->
<svg version="1.1" id="Capa_1" xmlns="http://www.w3.org/2000/svg" xmlns:xlink="http://www.w3.org/1999/xlink" x="0px" y="0px"
	 viewBox="0 0 1920 1080" style="enable-background:new 0 0 1920 1080;" xml:space="preserve">
<style type="text/css">
	.st0{fill:#FFFFFF;}
</style>
<g id="XMLID_11_">
	<g>
		<polygon class="st0" points="1497.4,146.1 1497.4,933.9 1495.8,933.9 1450.2,933.9 1257.3,933.9 1257.3,886.7 1450.2,886.7 
			1450.2,193.3 1257.3,193.3 1257.3,146.1 1450.2,146.1 1495.8,146.1 		"/>
		<path class="st0" d="M1051.8,355.2v66.1c0,9.4-3.7,17.8-9.9,24c-6.1,6.2-14.6,9.9-24,9.9c-0.6,0-1.1-0.1-1.7-0.1
			c-0.5,0.1-1.1,0.1-1.7,0.1c-9.4,0-17.9-3.7-24-9.9c-6.2-6.1-10-14.6-10-24v-66.1v-63.3c0-0.4,0.1-0.9,0.1-1.3
			c0.7-18.1,15.6-32.6,33.9-32.6c0.6,0,1.1,0.1,1.7,0.1c0.6,0,1.1-0.1,1.7-0.1c18.3,0,33.2,14.5,33.9,32.6c0,0.4,0,0.9,0,1.3V355.2z
			"/>
		<path class="st0" d="M1019.8,826.2c-0.2,0-0.5,0.1-0.7,0.1c-0.9,0.1-1.9,0.2-2.9,0.2c-0.9,0-1.9-0.1-2.8-0.2
			c-0.2,0-0.5-0.1-0.8-0.1c-0.8-0.1-1.7-0.2-2.5-0.4c-0.1,0-0.2,0-0.3-0.1c-0.9-0.2-1.8-0.4-2.7-0.7c-0.2-0.1-0.4-0.1-0.6-0.2
			c-0.8-0.3-1.5-0.5-2.2-0.8c-0.2-0.1-0.3-0.1-0.4-0.2c-0.8-0.4-1.6-0.7-2.4-1.2c-0.3-0.1-0.5-0.3-0.7-0.4c-0.3-0.1-0.6-0.3-0.8-0.4
			c0,0-0.1-0.1-0.1-0.1c0-0.1-0.1-0.1-0.2-0.2c-1.9-1.2-3.7-2.6-5.3-4.2c0,0-0.1,0-0.1,0c-138.1-107.4-174-164.6-177-169.7
			c0-0.1-0.1-0.1-0.2-0.2c0-0.1-0.1-0.1-0.1-0.2c-23.8-36.3-35.7-79.2-35.7-128.4c0-63.2,23.2-117.6,69.5-162.9
			c3.8-3.8,7.7-7.4,11.7-10.8c0.5-0.5,1-0.9,1.6-1.4c5.5-4.5,12.6-7.2,20.3-7.2c17.8,0,32.3,14.4,32.3,32.2c0,9.5-4.1,18-10.6,23.9
			l0.1,0.1c-2.8,2.4-5.5,5-8.1,7.7c-32.2,32.2-48.3,71.9-48.3,119.2c0,49.6,16.7,90.5,50.1,122.4c33.2,32,71.5,48,114.9,48
			c0.5,0,1,0,1.4,0c0.6,0,1,0,1.5,0c43.5,0,81.8-16,115-48c33.4-32,50.1-72.8,50.1-122.4c0-47.3-16.1-87-48.3-119.2
			c-2.6-2.7-5.3-5.2-8.1-7.7l0.1-0.1c-6.5-5.9-10.6-14.4-10.6-23.9c0-17.8,14.4-32.2,32.2-32.2c7.7,0,14.8,2.7,20.3,7.2
			c0.5,0.4,1.1,0.9,1.6,1.4c4,3.4,7.9,7,11.7,10.8c46.4,45.4,69.5,99.7,69.5,162.9c0,49.3-11.9,92.1-35.7,128.4
			c0,0.1-0.1,0.1-0.1,0.2c-0.1,0.1-0.1,0.2-0.1,0.2c-3,5.1-38.9,62.3-177,169.7c0,0,0,0,0,0c-1.6,1.6-3.4,3-5.4,4.2
			c-0.1,0.1-0.1,0.1-0.2,0.2c-0.1,0-0.1,0-0.1,0.1c-0.3,0.2-0.5,0.3-0.8,0.4c-0.2,0.2-0.4,0.3-0.7,0.4c-0.7,0.4-1.6,0.8-2.4,1.2
			c-0.1,0.1-0.3,0.1-0.4,0.2c-0.7,0.3-1.5,0.6-2.2,0.8c-0.2,0.1-0.4,0.1-0.6,0.2c-0.9,0.3-1.8,0.5-2.7,0.7c-0.1,0-0.2,0.1-0.2,0.1
			C1021.6,826,1020.7,826.1,1019.8,826.2z"/>
		<polygon class="st0" points="770.4,886.7 770.4,933.9 577.6,933.9 532,933.9 530.5,933.9 530.5,146.1 532,146.1 577.6,146.1 
			770.4,146.1 770.4,193.3 577.6,193.3 577.6,886.7 		"/>
	</g>
	<g>
	</g>
</g>
</svg>
