<svg width="24" height="24" xmlns="http://www.w3.org/2000/svg">
 <!-- Created with Method Draw - http://github.com/duopixel/Method-Draw/ -->

 <g>
  <title>background</title>
  <rect x="-1" y="-1" width="5.99996" height="5.99996" id="canvas_background" fill="none"/>
  <g id="canvasGrid" display="none">
   <rect id="svg_1" width="100%" height="100%" x="0" y="0" stroke-width="0" fill="url(#gridpattern)"/>
  </g>
 </g>
 <g>
  <title>Layer 1</title>
  <!-- Created with Method Draw - http://github.com/duopixel/Method-Draw/ -->
  <g stroke="null" id="svg_20">
   <g stroke="null" id="svg_18" transform="matrix(0.8533291968322059,0,0,0.8533291968322059,270.1585271005616,222.28301374802194) ">
    <title fill="#DDDDDD">background</title>
    <rect stroke="null" x="-319.47443" y="-263.5632" width="7.33333" height="7.33333" id="svg_16" fill="#DDDDDD"/>
    <g stroke="null" id="svg_14" display="none">
     <rect stroke="null" id="svg_15" width="580" height="400" x="-318.47443" y="-262.5632" stroke-width="0" fill="#DDDDDD"/>
    </g>
   </g>
   <g stroke="null" id="svg_19" transform="matrix(0.8533291968322059,0,0,0.8533291968322059,270.1585271005616,222.28301374802194) ">
    <g stroke="null" id="svg_10">
     <g stroke="null" fill="none" fill-rule="evenodd" id="svg_11" transform="matrix(1.032986662424339,0,0,1.066743137808017,234.81362637649246,185.34925730981627) ">
      <g stroke="null" fill="#3c3c3c" id="svg_12">
       <path fill="#3c3c3c" stroke="null" d="m-523.15083,-399.90233l0,3.05052l12.99505,0c1.1073,0 2.00495,-0.89007 2.00495,-2.00012l0,-12.99977c0,-1.10463 -0.89703,-2.00011 -2.00495,-2.00011l-19.9901,0c-1.1073,0 -2.00495,0.89006 -2.00495,2.00011l0,12.99977c0,1.10463 0.89703,2.00012 2.00495,2.00012l1.99505,0l0,-3.05052c-0.61859,-0.63127 -1,-1.49583 -1,-2.44948c0,-1.933 1.567,-3.5 3.5,-3.5c1.933,0 3.5,1.567 3.5,3.5c0,0.95365 -0.38141,1.81821 -1,2.44948l0,0l0,0zm-4,0.7137l0,4.9368l1.5,-1.49997l1.5,1.49997l0,-4.9368c-0.45463,0.21597 -0.9632,0.33682 -1.5,0.33682c-0.5368,0 -1.04537,-0.12085 -1.5,-0.33682l0,0l0,0zm-2,-9.66318l0,1l18,0l0,-1l-18,0l0,0zm9,3l0,1l9,0l0,-1l-9,0l0,0zm3,3l0,1l6,0l0,-1l-6,0l0,0zm-8.5,3c1.38071,0 2.5,-1.1193 2.5,-2.5c0,-1.38071 -1.11929,-2.5 -2.5,-2.5c-1.38071,0 -2.5,1.11929 -2.5,2.5c0,1.3807 1.11929,2.5 2.5,2.5l0,0z" id="svg_13"/>
      </g>
     </g>
    </g>
   </g>
  </g>
 </g>
</svg>
