<svg width="32" height="19" xmlns="http://www.w3.org/2000/svg" version="1.1">
 <title/>
 <desc/>

 <g>
  <title>Layer 1</title>
  <g stroke="null" id="Page-1" fill-rule="evenodd" fill="none">
   <g stroke="null" id="icon-5-file-pdf" fill="#3c3c3c">
    <path stroke="null" id="file-pdf" d="m4.98645,1.07108c-2.15345,0 -3.89915,1.74058 -3.89915,3.8887l0,9.08043c0,2.14767 1.73245,3.8887 3.89915,3.8887l22.02709,0c2.15345,0 3.89915,-1.74058 3.89915,-3.8887l0,-9.08043c0,-2.14767 -1.73245,-3.8887 -3.89915,-3.8887l-22.02709,0l0,0zm16.84895,7.78054l0,-2.59351l5.18702,0l0,-1.29676l-6.48378,0l0,9.07729l1.29676,0l0,-3.89027l3.89027,0l0,-1.29676l-3.89027,0l0,0zm-16.85783,-1.29676l0,6.48378l1.29676,0l0,-3.89027l2.58718,0c1.43585,0 2.59984,-1.15117 2.59984,-2.59351c0,-1.43236 -1.15917,-2.59351 -2.59984,-2.59351l-3.88394,0l0,2.59351l0,0zm1.29676,-1.29676l0,2.59351l2.59486,0c0.71543,0 1.29541,-0.57558 1.29541,-1.29676c0,-0.71617 -0.57402,-1.29676 -1.29541,-1.29676l-2.59486,0l0,0zm6.48378,-1.29676l0,9.07729l3.88394,0c1.43585,0 2.59984,-1.14964 2.59984,-2.60119l0,-3.87492c0,-1.4366 -1.15917,-2.60119 -2.59984,-2.60119l-3.88394,0l0,0zm1.29676,1.29676l0,6.48378l2.59486,0c0.71543,0 1.29541,-0.5754 1.29541,-1.29651l0,-3.89076c0,-0.71604 -0.57402,-1.29651 -1.29541,-1.29651l-2.59486,0l0,0z"/>
   </g>
  </g>
 </g>
</svg>