<?xml version="1.0" ?><svg id="Layer_1" style="enable-background:new 0 0 30 30;" version="1.1" viewBox="0 0 30 30" xml:space="preserve" xmlns="http://www.w3.org/2000/svg" xmlns:xlink="http://www.w3.org/1999/xlink"><path style="fill:#3c3c3c" d="M8,19H3c-1.657,0-3-1.343-3-3v-2c0-1.657,1.343-3,3-3h5V19z"/><polygon style="fill:#3c3c3c" points="11,23 6.075,18.316 6.075,11.684 11,7 "/><path d="  M25.323,26.242C27.621,23.172,29,19.377,29,15.256c0-4.35-1.526-8.346-4.06-11.498" style="fill:none;stroke:#3c3c3c;stroke-width:2;stroke-linecap:round;stroke-linejoin:round;stroke-miterlimit:10;"/><path d="  M15.157,20.428C16.307,19.015,17,17.215,17,15.256c0-2.192-0.869-4.182-2.275-5.655" style="fill:none;stroke:#3c3c3c;stroke-width:2;stroke-linecap:round;stroke-linejoin:round;stroke-miterlimit:10;"/><path d="  M20.408,23.343C22.034,21.056,23,18.269,23,15.256c0-3.242-1.118-6.222-2.975-8.598" style="fill:none;stroke:#3c3c3c;stroke-width:2;stroke-linecap:round;stroke-linejoin:round;stroke-miterlimit:10;"/></svg>
