<svg width="96" height="97" viewBox="0 0 96 97" fill="none" xmlns="http://www.w3.org/2000/svg">
<rect y="0.980469" width="96" height="96" rx="8" fill="#F7F4FF"/>
<path d="M44.7359 48.4639L38.7999 42.5759C41.1041 39.703 42.2199 36.0564 41.918 32.386C41.6161 28.7156 39.9194 25.3004 37.1768 22.8426C34.4341 20.3848 30.854 19.0712 27.1726 19.1719C23.4912 19.2726 19.9883 20.78 17.3842 23.3842C14.78 25.9883 13.2726 29.4912 13.1719 33.1726C13.0712 36.854 14.3848 40.4341 16.8426 43.1768C19.3004 45.9194 22.7156 47.6161 26.386 47.918C30.0564 48.2199 33.703 47.1041 36.5759 44.7999L42.4639 50.6879C42.6127 50.8379 42.7896 50.9569 42.9846 51.0381C43.1796 51.1194 43.3887 51.1612 43.5999 51.1612C43.8111 51.1612 44.0203 51.1194 44.2152 51.0381C44.4102 50.9569 44.5872 50.8379 44.7359 50.6879C45.0243 50.3896 45.1855 49.9909 45.1855 49.5759C45.1855 49.161 45.0243 48.7623 44.7359 48.4639ZM27.5999 44.7999C25.3848 44.7999 23.2194 44.1431 21.3776 42.9124C19.5357 41.6817 18.1002 39.9325 17.2525 37.886C16.4048 35.8395 16.183 33.5875 16.6151 31.4149C17.0473 29.2423 18.114 27.2467 19.6803 25.6803C21.2467 24.114 23.2423 23.0473 25.4149 22.6151C27.5875 22.183 29.8395 22.4048 31.886 23.2525C33.9325 24.1002 35.6817 25.5357 36.9124 27.3776C38.1431 29.2194 38.7999 31.3848 38.7999 33.5999C38.7999 36.5704 37.6199 39.4191 35.5195 41.5195C33.4191 43.6199 30.5704 44.7999 27.5999 44.7999Z" fill="#21105D"/>
<path d="M27.6001 34.3999C28.0401 34.3999 28.4169 34.2431 28.7305 33.9295C29.0441 33.6159 29.2006 33.2394 29.2001 32.7999C29.2001 32.3599 29.0433 31.9831 28.7297 31.6695C28.4161 31.3559 28.0395 31.1994 27.6001 31.1999C27.1601 31.1999 26.7833 31.3567 26.4697 31.6703C26.1561 31.9839 25.9996 32.3605 26.0001 32.7999C26.0001 33.2399 26.1569 33.6167 26.4705 33.9303C26.7841 34.2439 27.1606 34.4005 27.6001 34.3999ZM27.6001 42.3999C25.4534 40.5733 23.8502 38.8767 22.7905 37.3103C21.7308 35.7439 21.2006 34.2938 21.2001 32.9599C21.2001 30.9599 21.8436 29.3666 23.1305 28.1799C24.4174 26.9933 25.9073 26.3999 27.6001 26.3999C29.2934 26.3999 30.7835 26.9933 32.0705 28.1799C33.3574 29.3666 34.0006 30.9599 34.0001 32.9599C34.0001 34.2933 33.4699 35.7434 32.4097 37.3103C31.3494 38.8773 29.7462 40.5738 27.6001 42.3999Z" fill="#21105D"/>
<path d="M55.1522 66.4897H29.0137C28.0181 66.4897 27.2109 67.216 27.2109 68.1122C27.2109 69.0083 28.0181 69.7346 29.0137 69.7346H55.1522C56.1478 69.7346 56.9549 69.0083 56.9549 68.1122C56.9549 67.216 56.1478 66.4897 55.1522 66.4897Z" fill="#21105D"/>
<path d="M59.6591 63.2451H58.7578V72.9797H59.6591V63.2451Z" fill="#21105D"/>
<path d="M84.2676 60H23.3324C21.4921 60 20 61.338 20 62.9888V73.2355C20 74.8863 21.4921 76.2243 23.3324 76.2243H84.2676C86.1079 76.2243 87.6 74.8863 87.6 73.2355V62.9888C87.6 61.338 86.1079 60 84.2676 60Z" stroke="#21105D" stroke-width="1.01401"/>
<path d="M66.5677 45.6493L62.8561 51.6679L56.8374 47.9563" stroke="#21105D" stroke-width="2" stroke-linecap="round" stroke-linejoin="round"/>
<path d="M62.856 51.668L61.0104 43.8838C59.7362 38.5098 54.3471 35.1864 48.9731 36.4605L48.0001 36.6912" stroke="#21105D" stroke-width="2" stroke-linecap="round" stroke-linejoin="round"/>
</svg>
