<svg width="96" height="97" viewBox="0 0 96 97" fill="none" xmlns="http://www.w3.org/2000/svg">
<rect y="0.980469" width="96" height="96" rx="8" fill="#F7F4FF"/>
<path d="M61.3335 42.647H60.0002C60.0002 37.487 55.8268 33.3137 50.6668 33.3137H49.3335V31.6204C49.739 31.3862 50.0757 31.0495 50.3097 30.644C50.5438 30.2385 50.6669 29.7785 50.6668 29.3103C50.6667 28.8421 50.5433 28.3821 50.309 27.9767C50.0748 27.5713 49.7379 27.2348 49.3323 27.0009C48.9267 26.767 48.4667 26.644 47.9985 26.6443C47.5302 26.6446 47.0704 26.7682 46.6651 27.0026C46.2597 27.237 45.9233 27.574 45.6896 27.9797C45.4558 28.3854 45.333 28.8455 45.3335 29.3137C45.3335 30.3004 45.8668 31.167 46.6668 31.6204V33.3137H45.3335C40.1735 33.3137 36.0002 37.487 36.0002 42.647H34.6668C33.9335 42.647 33.3335 43.247 33.3335 43.9804V47.9804C33.3335 48.7137 33.9335 49.3137 34.6668 49.3137H36.0002V50.647C36.0002 51.3543 36.2811 52.0325 36.7812 52.5326C37.2813 53.0327 37.9596 53.3137 38.6668 53.3137H57.3335C58.8135 53.3137 60.0002 52.127 60.0002 50.647V49.3137H61.3335C62.0668 49.3137 62.6668 48.7137 62.6668 47.9804V43.9804C62.6668 43.247 62.0668 42.647 61.3335 42.647ZM42.0002 47.9804C41.1161 47.9804 40.2683 47.6292 39.6431 47.004C39.018 46.3789 38.6668 45.5311 38.6668 44.647C38.6668 43.5537 39.2002 42.5937 40.0002 41.9804L45.1068 45.8204C44.6668 47.0737 43.4268 47.9804 42.0002 47.9804ZM54.0002 47.9804C52.5735 47.9804 51.3335 47.0737 50.8935 45.8204L56.0002 41.9804C56.8002 42.5937 57.3335 43.5537 57.3335 44.647C57.3335 45.5311 56.9823 46.3789 56.3572 47.004C55.7321 47.6292 54.8842 47.9804 54.0002 47.9804Z" fill="#21105D"/>
<path d="M34.6 71.5138L30.8667 67.7805C30.5333 68.0471 30.15 68.2582 29.7167 68.4138C29.2833 68.5694 28.8222 68.6471 28.3333 68.6471C27.1222 68.6471 26.0973 68.2278 25.2587 67.3891C24.4196 66.55 24 65.5249 24 64.3138C24 63.1027 24.4196 62.0776 25.2587 61.2385C26.0973 60.3998 27.1222 59.9805 28.3333 59.9805C29.5444 59.9805 30.5696 60.3998 31.4087 61.2385C32.2473 62.0776 32.6667 63.1027 32.6667 64.3138C32.6667 64.8027 32.5889 65.2638 32.4333 65.6971C32.2778 66.1305 32.0667 66.5138 31.8 66.8471L35.55 70.5971C35.6722 70.7194 35.7333 70.8694 35.7333 71.0471C35.7333 71.2249 35.6667 71.3805 35.5333 71.5138C35.4111 71.636 35.2556 71.6971 35.0667 71.6971C34.8778 71.6971 34.7222 71.636 34.6 71.5138ZM28.3333 67.3138C29.1667 67.3138 29.8751 67.0222 30.4587 66.4391C31.0418 65.8556 31.3333 65.1471 31.3333 64.3138C31.3333 63.4805 31.0418 62.772 30.4587 62.1885C29.8751 61.6054 29.1667 61.3138 28.3333 61.3138C27.5 61.3138 26.7916 61.6054 26.208 62.1885C25.6249 62.772 25.3333 63.4805 25.3333 64.3138C25.3333 65.1471 25.6249 65.8556 26.208 66.4391C26.7916 67.0222 27.5 67.3138 28.3333 67.3138Z" fill="#21105D"/>
<path d="M42.9802 71.9804H53.0202C54.0469 71.9804 54.6869 70.8671 54.1736 69.9804L49.1536 61.3071C48.6402 60.4204 47.3602 60.4204 46.8469 61.3071L41.8269 69.9804C41.3136 70.8671 41.9536 71.9804 42.9802 71.9804ZM48.0002 67.3138C47.6336 67.3138 47.3336 67.0138 47.3336 66.6471V65.3138C47.3336 64.9471 47.6336 64.6471 48.0002 64.6471C48.3669 64.6471 48.6669 64.9471 48.6669 65.3138V66.6471C48.6669 67.0138 48.3669 67.3138 48.0002 67.3138ZM48.6669 69.9804H47.3336V68.6471H48.6669V69.9804Z" fill="#21105D"/>
<path d="M65.5 58.9805L60 61.4249V65.0916C60 68.4832 62.3467 71.6549 65.5 72.4249C68.6533 71.6549 71 68.4832 71 65.0916V61.4249L65.5 58.9805ZM65.5 62.6471C66.3556 62.6471 67.2111 63.3194 67.2111 64.1749V65.0916C67.5778 65.0916 67.9444 65.4582 67.9444 65.886V68.0249C67.9444 68.3916 67.5778 68.7582 67.15 68.7582H63.7889C63.4222 68.7582 63.0556 68.3916 63.0556 67.9638V65.8249C63.0556 65.4582 63.4222 65.0916 63.7889 65.0916V64.1749C63.7889 63.3194 64.6444 62.6471 65.5 62.6471ZM65.5 63.3805C65.0111 63.3805 64.5833 63.686 64.5833 64.1749V65.0916H66.4167V64.1749C66.4167 63.686 65.9889 63.3805 65.5 63.3805Z" fill="#21105D"/>
</svg>
