<svg width="72" height="77" viewBox="0 0 72 77" fill="none" xmlns="http://www.w3.org/2000/svg">
<path d="M53.3333 54H18.6667C16.0893 54 14 56.0893 14 58.6667C14 61.244 16.0893 63.3333 18.6667 63.3333H53.3333C55.9107 63.3333 58 61.244 58 58.6667C58 56.0893 55.9107 54 53.3333 54Z" fill="#0C0030"/>
<path d="M25.0037 60V56.1212H26.5341C26.8282 56.1212 27.0789 56.1773 27.2859 56.2897C27.493 56.4009 27.6509 56.5556 27.7594 56.7537C27.8693 56.9508 27.9242 57.178 27.9242 57.4356C27.9242 57.6932 27.8686 57.9204 27.7575 58.1175C27.6463 58.3144 27.4854 58.4679 27.2746 58.5776C27.065 58.6875 26.8111 58.7424 26.5131 58.7424H25.5378V58.0852H26.3806C26.5385 58.0852 26.6685 58.0581 26.7707 58.0037C26.8743 57.9483 26.9513 57.8719 27.0018 57.7747C27.0535 57.6762 27.0795 57.5631 27.0795 57.4356C27.0795 57.3068 27.0535 57.1944 27.0018 57.0985C26.9513 57.0012 26.8743 56.9261 26.7707 56.8731C26.6673 56.8188 26.5359 56.7917 26.3769 56.7917H25.8238V60H25.0037ZM29.4667 60.0473C29.2458 60.0473 29.0457 59.9905 28.8665 59.8769C28.6883 59.762 28.547 59.5935 28.4422 59.3712C28.3386 59.1477 28.2869 58.8737 28.2869 58.5492C28.2869 58.2159 28.3405 57.9388 28.4478 57.7179C28.5551 57.4956 28.6978 57.3296 28.8759 57.2197C29.0551 57.1085 29.2515 57.0531 29.4649 57.0531C29.6278 57.0531 29.7635 57.0808 29.8721 57.1364C29.9819 57.1907 30.0703 57.2588 30.1373 57.3409C30.2054 57.4217 30.2571 57.5012 30.2926 57.5796H30.3171V57.0909H31.1221V60H30.3266V59.5341H30.2926C30.2547 59.6149 30.201 59.6951 30.1315 59.7747C30.0634 59.853 29.9743 59.9179 29.8645 59.9697C29.7559 60.0215 29.6234 60.0473 29.4667 60.0473ZM29.7225 59.4053C29.8525 59.4053 29.9623 59.37 30.0521 59.2992C30.1429 59.2273 30.2123 59.1269 30.2603 58.9981C30.3095 58.8693 30.3342 58.7184 30.3342 58.5455C30.3342 58.3725 30.3102 58.2223 30.2622 58.0947C30.2142 57.9672 30.1449 57.8687 30.0539 57.7992C29.963 57.7297 29.8525 57.6951 29.7225 57.6951C29.5899 57.6951 29.4782 57.7311 29.3873 57.8031C29.2963 57.8749 29.2275 57.9748 29.1809 58.1023C29.1341 58.2297 29.1107 58.3775 29.1107 58.5455C29.1107 58.7147 29.1341 58.8643 29.1809 58.9943C29.2287 59.1231 29.2975 59.2241 29.3873 59.2973C29.4782 59.3693 29.5899 59.4053 29.7225 59.4053ZM32.2835 61.0909C32.1813 61.0909 32.0853 61.0827 31.9957 61.0663C31.9073 61.0512 31.8341 61.0316 31.7759 61.0076L31.9578 60.4053C32.0525 60.4344 32.1377 60.4501 32.2135 60.4527C32.2905 60.4552 32.3567 60.4375 32.4123 60.3996C32.4691 60.3618 32.5153 60.2973 32.5506 60.2064L32.5979 60.0833L31.5543 57.0909H32.4029L33.0051 59.2274H33.0354L33.6434 57.0909H34.4975L33.3669 60.3144C33.3126 60.471 33.2387 60.6073 33.1453 60.7235C33.0531 60.8409 32.9363 60.9312 32.7949 60.9943C32.6535 61.0587 32.483 61.0909 32.2835 61.0909ZM36.9517 58.3182V60H36.1449V57.0909H36.9138V57.6041H36.9478C37.0122 57.4349 37.1202 57.3012 37.2717 57.2027C37.4233 57.1029 37.607 57.0531 37.8229 57.0531C38.0249 57.0531 38.201 57.0972 38.3513 57.1856C38.5015 57.274 38.6183 57.4003 38.7017 57.5644C38.785 57.7274 38.8266 57.9218 38.8266 58.1478V60H38.0198V58.2917C38.0211 58.1136 37.9757 57.9748 37.8834 57.8749C37.7913 57.774 37.6643 57.7235 37.5027 57.7235C37.3942 57.7235 37.2982 57.7468 37.2149 57.7936C37.1329 57.8403 37.0685 57.9084 37.0217 57.9981C36.9762 58.0865 36.9529 58.1932 36.9517 58.3182ZM40.7769 60.0568C40.4827 60.0568 40.2283 59.9943 40.0137 59.8693C39.8003 59.7431 39.6355 59.5676 39.5194 59.3428C39.4031 59.1168 39.3451 58.8548 39.3451 58.5568C39.3451 58.2563 39.4031 57.9937 39.5194 57.7689C39.6355 57.5429 39.8003 57.3675 40.0137 57.2424C40.2283 57.1161 40.4827 57.0531 40.7769 57.0531C41.0711 57.0531 41.3249 57.1161 41.5383 57.2424C41.7529 57.3675 41.9183 57.5429 42.0345 57.7689C42.1506 57.9937 42.2087 58.2563 42.2087 58.5568C42.2087 58.8548 42.1506 59.1168 42.0345 59.3428C41.9183 59.5676 41.7529 59.7431 41.5383 59.8693C41.3249 59.9943 41.0711 60.0568 40.7769 60.0568ZM40.7807 59.4319C40.9146 59.4319 41.0263 59.394 41.1159 59.3182C41.2055 59.2412 41.2731 59.1364 41.3186 59.0037C41.3653 58.8712 41.3886 58.7203 41.3886 58.5512C41.3886 58.382 41.3653 58.2311 41.3186 58.0985C41.2731 57.9659 41.2055 57.8611 41.1159 57.7841C41.0263 57.7071 40.9146 57.6685 40.7807 57.6685C40.6457 57.6685 40.5319 57.7071 40.4398 57.7841C40.3489 57.8611 40.2801 57.9659 40.2334 58.0985C40.1879 58.2311 40.1651 58.382 40.1651 58.5512C40.1651 58.7203 40.1879 58.8712 40.2334 59.0037C40.2801 59.1364 40.3489 59.2412 40.4398 59.3182C40.5319 59.394 40.6457 59.4319 40.7807 59.4319ZM43.2343 60L42.4426 57.0909H43.2589L43.7097 59.0455H43.7362L44.2059 57.0909H45.007L45.4843 59.0341H45.5089L45.9521 57.0909H46.7665L45.9767 60H45.1226L44.6226 58.1704H44.5866L44.0866 60H43.2343Z" fill="#FFEFE1"/>
<path d="M53.3333 54H18.6667C16.0893 54 14 56.0893 14 58.6667C14 61.244 16.0893 63.3333 18.6667 63.3333H53.3333C55.9107 63.3333 58 61.244 58 58.6667C58 56.0893 55.9107 54 53.3333 54Z" stroke="#0C0030"/>
<path d="M56.9969 6.7104L56.6156 8.80103C56.5841 8.97374 56.4932 9.12994 56.3584 9.24242C56.2236 9.35491 56.0537 9.41658 55.8781 9.41666H52.2531L52.3907 10.1667H55.75C55.8984 10.1667 56.0433 10.2106 56.1667 10.2931C56.29 10.3755 56.3861 10.4926 56.4429 10.6296C56.4997 10.7667 56.5145 10.9175 56.4856 11.063C56.4567 11.2085 56.3852 11.3421 56.2803 11.447C56.1755 11.5519 56.0419 11.6233 55.8963 11.6522C55.7508 11.6812 55.6 11.6663 55.4629 11.6096C55.326 11.5528 55.2088 11.4567 55.1264 11.3333C55.044 11.21 55 11.065 55 10.9167C55 10.8314 55.0148 10.7468 55.0437 10.6667H53.2063C53.2352 10.7468 53.25 10.8314 53.25 10.9167C53.2503 11.0377 53.2212 11.1569 53.1653 11.2643C53.1095 11.3716 53.0284 11.4638 52.9292 11.5331C52.83 11.6023 52.7155 11.6466 52.5955 11.662C52.4755 11.6774 52.3535 11.6635 52.24 11.6215C52.1264 11.5796 52.0248 11.5108 51.9436 11.421C51.8625 11.3312 51.8043 11.2232 51.774 11.106C51.7436 10.9889 51.7421 10.8661 51.7695 10.7483C51.7968 10.6304 51.8524 10.5209 51.9312 10.4291L51.0656 5.66666H50.5C50.4337 5.66666 50.3701 5.64032 50.3232 5.59343C50.2764 5.54655 50.25 5.48296 50.25 5.41666C50.25 5.35035 50.2764 5.28676 50.3232 5.23988C50.3701 5.19299 50.4337 5.16666 50.5 5.16666H51.0656C51.1823 5.16691 51.2952 5.20798 51.3848 5.28275C51.4745 5.35751 51.5351 5.46127 51.5563 5.57603L51.7093 6.41666H56.75C56.7865 6.41674 56.8225 6.4249 56.8555 6.44056C56.8884 6.45624 56.9175 6.47903 56.9407 6.50728C56.9648 6.53466 56.9824 6.56716 56.9921 6.60236C57.0019 6.63755 57.0035 6.6745 56.9969 6.7104Z" fill="#0C0030"/>
<path d="M23.9999 12H14.6666C13.9302 12 13.3333 12.597 13.3333 13.3333C13.3333 14.0697 13.9302 14.6667 14.6666 14.6667H23.9999C24.7363 14.6667 25.3333 14.0697 25.3333 13.3333C25.3333 12.597 24.7363 12 23.9999 12Z" fill="#0C0030"/>
<path d="M38.6666 16H14.6666C13.9302 16 13.3333 16.597 13.3333 17.3333C13.3333 18.0697 13.9302 18.6667 14.6666 18.6667H38.6666C39.403 18.6667 39.9999 18.0697 39.9999 17.3333C39.9999 16.597 39.403 16 38.6666 16Z" fill="#3B2082"/>
<path d="M31.9999 20H14.6666C13.9302 20 13.3333 20.597 13.3333 21.3333C13.3333 22.0697 13.9302 22.6667 14.6666 22.6667H31.9999C32.7363 22.6667 33.3333 22.0697 33.3333 21.3333C33.3333 20.597 32.7363 20 31.9999 20Z" fill="#3B2082"/>
<path d="M33.3333 25.3333H14.6666C13.9302 25.3333 13.3333 25.9303 13.3333 26.6667C13.3333 27.4031 13.9302 28 14.6666 28H33.3333C34.0696 28 34.6666 27.4031 34.6666 26.6667C34.6666 25.9303 34.0696 25.3333 33.3333 25.3333Z" fill="#0C0030"/>
<path d="M55.9999 29.3333H14.6666C13.9302 29.3333 13.3333 29.9303 13.3333 30.6667C13.3333 31.4031 13.9302 32 14.6666 32H55.9999C56.7363 32 57.3333 31.4031 57.3333 30.6667C57.3333 29.9303 56.7363 29.3333 55.9999 29.3333Z" fill="#3B2082"/>
<path d="M45.3333 33.3333H14.6666C13.9302 33.3333 13.3333 33.9303 13.3333 34.6667C13.3333 35.4031 13.9302 36 14.6666 36H45.3333C46.0696 36 46.6666 35.4031 46.6666 34.6667C46.6666 33.9303 46.0696 33.3333 45.3333 33.3333Z" fill="#3B2082"/>
<path d="M22.2219 40.4444H15.1108C14.6175 40.4444 14.2264 40.84 14.2264 41.3333L14.2219 46.6667C14.2219 47.16 14.6175 47.5556 15.1108 47.5556H22.2219C22.7153 47.5556 23.1109 47.16 23.1109 46.6667V41.3333C23.1109 40.84 22.7153 40.4444 22.2219 40.4444ZM22.2219 46.6667H15.1108V44H22.2219V46.6667ZM22.2219 42.2223H15.1108V41.3333H22.2219V42.2223Z" fill="#0C0030"/>
<path d="M42.6664 43.2H29.7776C29.2867 43.2 28.8887 43.5581 28.8887 44C28.8887 44.4419 29.2867 44.8 29.7776 44.8H42.6664C43.1573 44.8 43.5553 44.4419 43.5553 44C43.5553 43.5581 43.1573 43.2 42.6664 43.2Z" fill="#0C0030"/>
<path d="M44.889 41.6H44.4446V46.4H44.889V41.6Z" fill="#0C0030"/>
<path d="M57.0234 40H26.9765C26.069 40 25.3333 40.6597 25.3333 41.4737V46.5263C25.3333 47.3403 26.069 48 26.9765 48H57.0234C57.9309 48 58.6666 47.3403 58.6666 46.5263V41.4737C58.6666 40.6597 57.9309 40 57.0234 40Z" stroke="#0C0030" stroke-width="0.5"/>
<path d="M59.3333 1.33334H12.6667C10.0893 1.33334 8 3.42268 8 6.00001V66C8 68.5773 10.0893 70.6667 12.6667 70.6667H59.3333C61.9107 70.6667 64 68.5773 64 66V6.00001C64 3.42268 61.9107 1.33334 59.3333 1.33334Z" stroke="#0C0030"/>
<g clip-path="url(#clip0_450_14360)">
<path d="M64.5871 71.9844C64.7254 72.1183 64.7567 72.2723 64.6808 72.4464C64.6049 72.625 64.4732 72.7143 64.2857 72.7143H61.7277L63.0737 75.9018C63.1183 76.0134 63.1183 76.1228 63.0737 76.2299C63.029 76.3371 62.9531 76.4152 62.846 76.4643L61.6607 76.9665C61.5491 77.0112 61.4397 77.0112 61.3326 76.9665C61.2254 76.9219 61.1473 76.846 61.0982 76.7388L59.8192 73.7121L57.7299 75.8013C57.6451 75.8862 57.5446 75.9286 57.4286 75.9286C57.375 75.9286 57.3214 75.9174 57.2679 75.8951C57.0893 75.8192 57 75.6875 57 75.5V65.4286C57 65.2411 57.0893 65.1094 57.2679 65.0335C57.3214 65.0112 57.375 65 57.4286 65C57.5491 65 57.6496 65.0424 57.7299 65.1272L64.5871 71.9844Z" fill="#0C0030"/>
</g>
<defs>
<clipPath id="clip0_450_14360">
<rect width="7.71429" height="12" fill="white" transform="translate(57 65)"/>
</clipPath>
</defs>
</svg>
