<svg width="66" height="66" viewBox="0 0 66 66" fill="none" xmlns="http://www.w3.org/2000/svg">
<path d="M33 66C50.1 66 64.17 52.98 65.85 36.3C66.03 34.53 64.62 33 62.85 33C61.32 33 60.03 34.14 59.88 35.64C58.56 49.32 47.01 60 33 60C23.64 60 15.39 55.23 10.56 48H15C16.65 48 18 46.65 18 45C18 43.35 16.65 42 15 42H3C1.35 42 0 43.35 0 45V57C0 58.65 1.35 60 3 60C4.65 60 6 58.65 6 57V51.99C11.97 60.45 21.84 66 33 66ZM33 6.28999e-08C15.9 6.28999e-08 1.83 13.02 0.15 29.7C-1.49012e-07 31.47 1.38 33 3.15 33C4.68 33 5.97 31.86 6.12 30.36C7.44 16.68 18.99 6 33 6C42.36 6 50.61 10.77 55.44 18H51C49.35 18 48 19.35 48 21C48 22.65 49.35 24 51 24H63C64.65 24 66 22.65 66 21V9C66 7.35 64.65 6 63 6C61.35 6 60 7.35 60 9V14.01C56.9532 9.68037 52.9096 6.14725 48.2103 3.70887C43.5111 1.27049 38.2942 -0.00159245 33 6.28999e-08Z" fill="#0C0030"/>
<g clip-path="url(#clip0_0_1)">
<path d="M31.9844 33.0312C31.4844 33.0104 30.9688 32.9479 30.4375 32.8438C29.9062 32.7396 29.4167 32.5781 28.9688 32.3594C28.7917 32.276 28.651 32.1562 28.5469 32C28.4427 31.8438 28.3906 31.6615 28.3906 31.4531C28.3906 31.1823 28.4896 30.9479 28.6875 30.75C28.8854 30.5521 29.1198 30.4531 29.3906 30.4531C29.526 30.4531 29.6667 30.4844 29.8125 30.5469C30.5 30.849 31.2188 31.0052 31.9688 31.0156V27.5938C31.5833 27.4583 31.2135 27.2917 30.8594 27.0938C30.5052 26.8958 30.1875 26.6615 29.9062 26.3906C29.625 26.1198 29.401 25.8021 29.2344 25.4375C29.0677 25.0729 28.9844 24.6719 28.9844 24.2344C28.9844 23.8073 29.0677 23.4219 29.2344 23.0781C29.401 22.7344 29.625 22.4375 29.9062 22.1875C30.1875 21.9375 30.5052 21.724 30.8594 21.5469C31.2135 21.3698 31.5833 21.2396 31.9688 21.1562C31.9688 20.8542 32.0521 20.5938 32.2188 20.375C32.3854 20.1562 32.6354 20.0417 32.9688 20.0312C33.25 20.0312 33.4844 20.125 33.6719 20.3125C33.8594 20.5 33.9583 20.7396 33.9688 21.0312C34.3333 21.0521 34.6771 21.099 35 21.1719C35.3229 21.2448 35.6615 21.3333 36.0156 21.4375L35.3281 23.3125C35.1094 23.2292 34.8854 23.1667 34.6562 23.125C34.4271 23.0833 34.1979 23.0521 33.9688 23.0312V26.1562C34.3229 26.2812 34.6771 26.4479 35.0312 26.6562C35.3854 26.8646 35.7083 27.1094 36 27.3906C36.2917 27.6719 36.526 27.9896 36.7031 28.3438C36.8802 28.6979 36.9688 29.0833 36.9688 29.5C36.9688 29.9583 36.8906 30.375 36.7344 30.75C36.5781 31.125 36.3698 31.4531 36.1094 31.7344C35.849 32.0156 35.5312 32.25 35.1562 32.4375C34.7812 32.625 34.3854 32.7708 33.9688 32.875C33.9688 33.1667 33.8802 33.4167 33.7031 33.625C33.526 33.8333 33.2812 33.9375 32.9688 33.9375C32.7083 33.9375 32.4844 33.849 32.2969 33.6719C32.1094 33.4948 32.0052 33.2812 31.9844 33.0312ZM33.9688 30.7969C34.2604 30.6823 34.5 30.526 34.6875 30.3281C34.875 30.1302 34.9688 29.8594 34.9688 29.5156C34.9688 29.3906 34.9375 29.2708 34.875 29.1562C34.8125 29.0417 34.7292 28.9375 34.625 28.8438C34.5208 28.75 34.4115 28.6615 34.2969 28.5781C34.1823 28.4948 34.0729 28.4219 33.9688 28.3594V30.7969ZM30.9844 24.2344C30.9844 24.526 31.0885 24.7656 31.2969 24.9531C31.5052 25.1406 31.7292 25.2969 31.9688 25.4219V23.25C31.9375 23.2604 31.8698 23.2865 31.7656 23.3281C31.6615 23.3698 31.599 23.4062 31.5781 23.4375C31.4323 23.4896 31.2969 23.5938 31.1719 23.75C31.0469 23.9062 30.9844 24.0677 30.9844 24.2344ZM42.625 29.7188C43.5833 30.0938 44.4531 30.5938 45.2344 31.2188C46.0156 31.8438 46.6823 32.5573 47.2344 33.3594C47.7865 34.1615 48.2188 35.0417 48.5312 36C48.8438 36.9583 49 37.9531 49 38.9844C49 39.901 48.8802 40.7865 48.6406 41.6406C48.401 42.4948 48.0677 43.2917 47.6406 44.0312C47.2135 44.7708 46.6927 45.4427 46.0781 46.0469C45.4635 46.651 44.7865 47.1771 44.0469 47.625C43.3073 48.0729 42.5104 48.4115 41.6562 48.6406C40.8021 48.8698 39.9167 48.9896 39 49C37.9167 49 36.8646 48.8281 35.8438 48.4844C34.8229 48.1406 33.8802 47.6406 33.0156 46.9844C32.1406 47.6406 31.1927 48.1406 30.1719 48.4844C29.151 48.8281 28.0938 49 27 49C26.0729 49 25.1875 48.8802 24.3438 48.6406C23.5 48.401 22.7031 48.0677 21.9531 47.6406C21.2031 47.2135 20.5312 46.6927 19.9375 46.0781C19.3438 45.4635 18.8229 44.7865 18.375 44.0469C17.9271 43.3073 17.5885 42.5104 17.3594 41.6562C17.1302 40.8021 17.0104 39.9115 17 38.9844C17 37.9531 17.151 36.9635 17.4531 36.0156C17.7552 35.0677 18.1875 34.1875 18.75 33.375C19.3125 32.5625 19.9844 31.8438 20.7656 31.2188C21.5469 30.5938 22.4167 30.0938 23.375 29.7188C23.125 28.8438 23 27.9427 23 27.0156C23 26.099 23.1198 25.2135 23.3594 24.3594C23.599 23.5052 23.9323 22.7083 24.3594 21.9688C24.7865 21.2292 25.3073 20.5573 25.9219 19.9531C26.5365 19.349 27.2135 18.8229 27.9531 18.375C28.6927 17.9271 29.4896 17.5885 30.3438 17.3594C31.1979 17.1302 32.0833 17.0104 33 17C33.9167 17 34.8021 17.1198 35.6562 17.3594C36.5104 17.599 37.3073 17.9375 38.0469 18.375C38.7865 18.8125 39.4583 19.3333 40.0625 19.9375C40.6667 20.5417 41.1875 21.2188 41.625 21.9688C42.0625 22.7188 42.401 23.5156 42.6406 24.3594C42.8802 25.2031 43 26.0885 43 27.0156C43 27.9427 42.875 28.8438 42.625 29.7188ZM33 19C31.8958 19 30.8594 19.2083 29.8906 19.625C28.9219 20.0417 28.0729 20.6198 27.3438 21.3594C26.6146 22.099 26.0417 22.9479 25.625 23.9062C25.2083 24.8646 25 25.901 25 27.0156C25 28.1198 25.2083 29.1562 25.625 30.125C26.0417 31.0938 26.6094 31.9427 27.3281 32.6719C28.0469 33.401 28.8958 33.974 29.875 34.3906C30.8542 34.8073 31.8958 35.0208 33 35.0312C34.1042 35.0312 35.1406 34.8229 36.1094 34.4062C37.0781 33.9896 37.9271 33.4167 38.6562 32.6875C39.3854 31.9583 39.9583 31.1094 40.375 30.1406C40.7917 29.1719 41 28.1302 41 27.0156C41 25.9115 40.7917 24.875 40.375 23.9062C39.9583 22.9375 39.3906 22.0885 38.6719 21.3594C37.9531 20.6302 37.1042 20.0573 36.125 19.6406C35.1458 19.224 34.1042 19.0104 33 19ZM27 47C28.1042 47 29.1406 46.7917 30.1094 46.375C31.0781 45.9583 31.9271 45.3854 32.6562 44.6562C33.3854 43.9271 33.9583 43.0781 34.375 42.1094C34.7917 41.1406 35 40.099 35 38.9844C35 38.276 34.8958 37.5781 34.6875 36.8906C34.125 36.9844 33.5625 37.0312 33 37.0312C31.9062 37.0312 30.849 36.8594 29.8281 36.5156C28.8073 36.1719 27.8542 35.6667 26.9688 35C26.8958 35.0417 26.8281 35.0677 26.7656 35.0781C25.849 35.349 25.1562 35.8229 24.6875 36.5C24.2188 37.1771 23.9792 37.9948 23.9688 38.9531V38.9844H25.9375C26.2083 38.9844 26.4427 39.0833 26.6406 39.2812C26.8385 39.4792 26.9375 39.7135 26.9375 39.9844C26.9375 40.3073 26.849 40.5365 26.6719 40.6719C26.4948 40.8073 26.2812 40.901 26.0312 40.9531C25.7812 41.0052 25.5156 41.026 25.2344 41.0156C24.9531 41.0052 24.7135 40.9948 24.5156 40.9844C24.8802 41.599 25.3646 42.0781 25.9688 42.4219C26.5729 42.7656 27.2396 42.9427 27.9688 42.9531C28.2708 42.9531 28.5521 42.9219 28.8125 42.8594C29.0729 42.7969 29.3438 42.7083 29.625 42.5938C29.7604 42.5417 29.8958 42.5156 30.0312 42.5156C30.3021 42.5156 30.5365 42.6094 30.7344 42.7969C30.9323 42.9844 31.0312 43.2188 31.0312 43.5C31.0312 43.8021 30.9167 44.0469 30.6875 44.2344C30.4583 44.4219 30.1771 44.5677 29.8438 44.6719C29.5104 44.776 29.1719 44.849 28.8281 44.8906C28.4844 44.9323 28.1979 44.9531 27.9688 44.9531C27.3333 44.9531 26.724 44.8594 26.1406 44.6719C25.5573 44.4844 25.0156 44.2135 24.5156 43.8594C24.0156 43.5052 23.5781 43.0885 23.2031 42.6094C22.8281 42.1302 22.5312 41.5885 22.3125 40.9844C22.1458 40.9844 21.9844 40.9688 21.8281 40.9375C21.6719 40.9062 21.5365 40.8542 21.4219 40.7812C21.3073 40.7083 21.2083 40.6094 21.125 40.4844C21.0417 40.3594 21.0052 40.1927 21.0156 39.9844C21.0156 39.7135 21.1042 39.4844 21.2812 39.2969C21.4583 39.1094 21.6875 39.0052 21.9688 38.9844C21.9688 38.401 22.0417 37.8333 22.1875 37.2812C22.3333 36.7292 22.5469 36.2083 22.8281 35.7188C23.1094 35.2292 23.4583 34.7917 23.875 34.4062C24.2917 34.0208 24.7812 33.7083 25.3438 33.4688C25.1042 33.1667 24.8802 32.8542 24.6719 32.5312C24.4635 32.2083 24.2656 31.875 24.0781 31.5312C23.3073 31.8333 22.6146 32.2344 22 32.7344C21.3854 33.2344 20.849 33.8125 20.3906 34.4688C19.9323 35.125 19.5885 35.8333 19.3594 36.5938C19.1302 37.3542 19.0104 38.151 19 38.9844C19 40.0885 19.2083 41.125 19.625 42.0938C20.0417 43.0625 20.6094 43.9115 21.3281 44.6406C22.0469 45.3698 22.8958 45.9427 23.875 46.3594C24.8542 46.776 25.8958 46.9896 27 47ZM39 47C40.1042 47 41.1406 46.7917 42.1094 46.375C43.0781 45.9583 43.9271 45.3854 44.6562 44.6562C45.3854 43.9271 45.9583 43.0781 46.375 42.1094C46.7917 41.1406 47 40.099 47 38.9844C47 38.1615 46.8802 37.3698 46.6406 36.6094C46.401 35.849 46.0573 35.1406 45.6094 34.4844C45.1615 33.8281 44.625 33.2552 44 32.7656C43.375 32.276 42.6823 31.8698 41.9219 31.5469C41.526 32.3177 41.0417 33.026 40.4688 33.6719C39.8958 34.3177 39.25 34.8802 38.5312 35.3594L39.9844 37.3281L42.1719 34.4062C42.3698 34.1354 42.6354 34 42.9688 34C43.25 34 43.4896 34.099 43.6875 34.2969C43.8854 34.4948 43.9844 34.7344 43.9844 35.0156C43.9844 35.224 43.9167 35.4219 43.7812 35.6094L40.9688 39.3438V40.9844H41.6094C41.8385 40.9844 42.0573 41.0052 42.2656 41.0469C42.474 41.0885 42.6458 41.1823 42.7812 41.3281C42.9167 41.474 42.9896 41.6927 43 41.9844C43 42.276 42.9323 42.4896 42.7969 42.625C42.6615 42.7604 42.4896 42.8594 42.2812 42.9219C42.0729 42.9844 41.8542 43.0104 41.625 43C41.3958 42.9896 41.1771 42.9844 40.9688 42.9844V43.625C40.9688 43.8542 40.9479 44.0729 40.9062 44.2812C40.8646 44.4896 40.7708 44.6615 40.625 44.7969C40.4792 44.9323 40.2604 45.0052 39.9688 45.0156C39.6771 45.0156 39.4635 44.9479 39.3281 44.8125C39.1927 44.6771 39.0938 44.5052 39.0312 44.2969C38.9688 44.0885 38.9427 43.8698 38.9531 43.6406C38.9635 43.4115 38.9688 43.1927 38.9688 42.9844H38.3281C38.099 42.9844 37.8854 42.9635 37.6875 42.9219C37.4896 42.8802 37.3177 42.7865 37.1719 42.6406C37.026 42.4948 36.9583 42.276 36.9688 41.9844C36.9688 41.6927 37.0365 41.4792 37.1719 41.3438C37.3073 41.2083 37.474 41.1094 37.6719 41.0469C37.8698 40.9844 38.0885 40.9583 38.3281 40.9688C38.5677 40.9792 38.7812 40.9844 38.9688 40.9844V39.3438L36.75 36.3125L36.6562 36.3438C36.7812 36.7708 36.8698 37.2083 36.9219 37.6562C36.974 38.1042 37 38.5469 37 38.9844C37 40.2135 36.7917 41.3906 36.375 42.5156C35.9583 43.6406 35.3385 44.6667 34.5156 45.5938C35.1823 46.0521 35.8906 46.401 36.6406 46.6406C37.3906 46.8802 38.1771 47 39 47Z" fill="#0C0030"/>
</g>
<defs>
<clipPath id="clip0_0_1">
<rect width="32" height="32" fill="white" transform="translate(17 17)"/>
</clipPath>
</defs>
</svg>
