<svg width="72" height="77" viewBox="0 0 72 77" fill="none" xmlns="http://www.w3.org/2000/svg">
<g clip-path="url(#clip0_450_15382)">
<path d="M21.4923 9.5L48.996 37.0037" stroke="#0C0030"/>
<path d="M21.4928 36.5L49.0001 9" stroke="#0C0030"/>
<path d="M47.5849 8.8302H23.0566C21.9521 8.8302 21.0566 9.72563 21.0566 10.8302V35.3585C21.0566 36.4631 21.9521 37.3585 23.0566 37.3585H47.5849C48.6895 37.3585 49.5849 36.4631 49.5849 35.3585V10.8302C49.5849 9.72563 48.6895 8.8302 47.5849 8.8302Z" stroke="#0C0030"/>
<path d="M41.6605 42.1132H28.9811C27.9809 42.1132 27.1699 42.9242 27.1699 43.9245C27.1699 44.9249 27.9809 45.7359 28.9811 45.7359H41.6605C42.6607 45.7359 43.4717 44.9249 43.4717 43.9245C43.4717 42.9242 42.6607 42.1132 41.6605 42.1132Z" fill="#0C0030"/>
<path d="M51.6224 47.0944H19.0187C18.0183 47.0944 17.2073 47.9053 17.2073 48.9057C17.2073 49.9061 18.0183 50.7169 19.0187 50.7169H51.6224C52.6228 50.7169 53.4338 49.9061 53.4338 48.9057C53.4338 47.9053 52.6228 47.0944 51.6224 47.0944Z" fill="#3B2082"/>
<path d="M52.9812 55.4716H17.6604C15.0345 55.4716 12.9057 57.6004 12.9057 60.2264C12.9057 62.8523 15.0345 64.9811 17.6604 64.9811H52.9812C55.6071 64.9811 57.7359 62.8523 57.7359 60.2264C57.7359 57.6004 55.6071 55.4716 52.9812 55.4716Z" fill="#0C0030"/>
<path d="M20.7229 61.5849H19.8275L21.1917 57.6329H22.2684L23.6309 61.5849H22.7355L21.7455 58.536H21.7147L20.7229 61.5849ZM20.6669 60.0316H22.7818V60.6838H20.6669V60.0316ZM25.0453 61.6331C24.8202 61.6331 24.6163 61.5752 24.4336 61.4595C24.2522 61.3424 24.1081 61.1707 24.0013 60.9442C23.8959 60.7165 23.8431 60.4373 23.8431 60.1068C23.8431 59.7672 23.8978 59.4848 24.0072 59.2597C24.1165 59.0332 24.2619 58.8641 24.4432 58.7521C24.626 58.639 24.8259 58.5823 25.0434 58.5823C25.2093 58.5823 25.3476 58.6106 25.4583 58.6672C25.5701 58.7225 25.6602 58.7921 25.7284 58.8756C25.7979 58.9579 25.8506 59.0391 25.8866 59.1188H25.9118V57.6329H26.7319V61.5849H25.9214V61.1102H25.8866C25.8481 61.1925 25.7933 61.2742 25.7227 61.3553C25.6531 61.435 25.5625 61.5013 25.4506 61.554C25.3398 61.6067 25.2048 61.6331 25.0453 61.6331ZM25.3057 60.979C25.4383 60.979 25.5503 60.943 25.6416 60.871C25.7342 60.7976 25.805 60.6953 25.8538 60.5641C25.904 60.4329 25.929 60.2792 25.929 60.1029C25.929 59.9267 25.9047 59.7736 25.8558 59.6437C25.8069 59.5137 25.7361 59.4133 25.6435 59.3427C25.5508 59.2719 25.4383 59.2364 25.3057 59.2364C25.1707 59.2364 25.0569 59.2731 24.9642 59.3465C24.8716 59.4198 24.8015 59.5214 24.7539 59.6513C24.7064 59.7813 24.6825 59.9319 24.6825 60.1029C24.6825 60.2753 24.7064 60.4277 24.7539 60.5603C24.8028 60.6915 24.8729 60.7944 24.9642 60.8689C25.0569 60.9423 25.1707 60.979 25.3057 60.979ZM28.4998 61.6331C28.2747 61.6331 28.0708 61.5752 27.8882 61.4595C27.7067 61.3424 27.5627 61.1707 27.456 60.9442C27.3504 60.7165 27.2977 60.4373 27.2977 60.1068C27.2977 59.7672 27.3524 59.4848 27.4617 59.2597C27.571 59.0332 27.7164 58.8641 27.8979 58.7521C28.0805 58.639 28.2806 58.5823 28.4979 58.5823C28.6639 58.5823 28.8022 58.6106 28.9128 58.6672C29.0247 58.7225 29.1148 58.7921 29.183 58.8756C29.2524 58.9579 29.3053 59.0391 29.3413 59.1188H29.3663V57.6329H30.1864V61.5849H29.3759V61.1102H29.3413C29.3027 61.1925 29.2479 61.2742 29.1772 61.3553C29.1078 61.435 29.017 61.5013 28.9051 61.554C28.7945 61.6067 28.6594 61.6331 28.4998 61.6331ZM28.7604 60.979C28.8928 60.979 29.0048 60.943 29.0962 60.871C29.1889 60.7976 29.2595 60.6953 29.3084 60.5641C29.3587 60.4329 29.3837 60.2792 29.3837 60.1029C29.3837 59.9267 29.3592 59.7736 29.3103 59.6437C29.2615 59.5137 29.1908 59.4133 29.0981 59.3427C29.0055 59.2719 28.8928 59.2364 28.7604 59.2364C28.6253 59.2364 28.5115 59.2731 28.4189 59.3465C28.3262 59.4198 28.2561 59.5214 28.2086 59.6513C28.1609 59.7813 28.1371 59.9319 28.1371 60.1029C28.1371 60.2753 28.1609 60.4277 28.2086 60.5603C28.2573 60.6915 28.3276 60.7944 28.4189 60.8689C28.5115 60.9423 28.6253 60.979 28.7604 60.979ZM33.6965 58.6209V59.2385H31.9115V58.6209H33.6965ZM32.3168 57.9108H33.1388V60.6741C33.1388 60.7499 33.1503 60.8092 33.1736 60.8517C33.1967 60.8928 33.2289 60.9218 33.27 60.9385C33.3126 60.9552 33.3613 60.9635 33.4167 60.9635C33.4553 60.9635 33.4939 60.9604 33.5325 60.9538C33.5711 60.9462 33.6007 60.9404 33.6212 60.9366L33.7505 61.5482C33.7094 61.5611 33.6515 61.5759 33.5769 61.5926C33.5022 61.6107 33.4116 61.6215 33.3048 61.6255C33.1066 61.6331 32.933 61.6067 32.7838 61.5463C32.6359 61.4858 32.5207 61.392 32.4384 61.2645C32.356 61.1372 32.3156 60.9764 32.3168 60.7821V57.9108ZM35.5394 61.6427C35.2396 61.6427 34.9804 61.5792 34.7617 61.4517C34.5443 61.3231 34.3764 61.1443 34.2581 60.9153C34.1397 60.685 34.0805 60.4181 34.0805 60.1144C34.0805 59.8084 34.1397 59.5407 34.2581 59.3117C34.3764 59.0814 34.5443 58.9027 34.7617 58.7754C34.9804 58.6467 35.2396 58.5823 35.5394 58.5823C35.8391 58.5823 36.0977 58.6467 36.3151 58.7754C36.5338 58.9027 36.7023 59.0814 36.8206 59.3117C36.939 59.5407 36.9981 59.8084 36.9981 60.1144C36.9981 60.4181 36.939 60.685 36.8206 60.9153C36.7023 61.1443 36.5338 61.3231 36.3151 61.4517C36.0977 61.5792 35.8391 61.6427 35.5394 61.6427ZM35.5432 61.006C35.6796 61.006 35.7934 60.9674 35.8847 60.8903C35.9761 60.8117 36.0449 60.705 36.0912 60.5699C36.1389 60.4348 36.1627 60.2811 36.1627 60.1087C36.1627 59.9363 36.1389 59.7826 36.0912 59.6475C36.0449 59.5125 35.9761 59.4057 35.8847 59.3272C35.7934 59.2487 35.6796 59.2095 35.5432 59.2095C35.4056 59.2095 35.2898 59.2487 35.1958 59.3272C35.1032 59.4057 35.0331 59.5125 34.9855 59.6475C34.9392 59.7826 34.9161 59.9363 34.9161 60.1087C34.9161 60.2811 34.9392 60.4348 34.9855 60.5699C35.0331 60.705 35.1032 60.8117 35.1958 60.8903C35.2898 60.9674 35.4056 61.006 35.5432 61.006ZM40.1296 61.6427C39.826 61.6427 39.5649 61.5785 39.3462 61.4498C39.1287 61.32 38.9614 61.1398 38.8445 60.9096C38.7286 60.6793 38.6707 60.4143 38.6707 60.1144C38.6707 59.8109 38.7293 59.5445 38.8464 59.3156C38.9647 59.0854 39.1326 58.9059 39.35 58.7773C39.5673 58.6473 39.826 58.5823 40.1257 58.5823C40.3843 58.5823 40.6106 58.6293 40.8049 58.7232C40.9992 58.8171 41.1529 58.949 41.2661 59.1188C41.3794 59.2886 41.4418 59.488 41.4533 59.7169H40.6776C40.6557 59.569 40.5979 59.45 40.5039 59.3599C40.4113 59.2686 40.2898 59.223 40.1392 59.223C40.0118 59.223 39.9006 59.2578 39.8053 59.3272C39.7114 59.3954 39.6381 59.4951 39.5854 59.6263C39.5327 59.7576 39.5063 59.9164 39.5063 60.1029C39.5063 60.292 39.532 60.4528 39.5835 60.5853C39.6362 60.7179 39.7102 60.8188 39.8053 60.8882C39.9006 60.9578 40.0118 60.9926 40.1392 60.9926C40.2331 60.9926 40.3173 60.9731 40.3921 60.9346C40.4679 60.896 40.5303 60.84 40.5791 60.7668C40.6294 60.6921 40.6621 60.6027 40.6776 60.4985H41.4533C41.4404 60.7249 41.3787 60.9244 41.268 61.0968C41.1586 61.2678 41.0076 61.4016 40.8145 61.4981C40.6216 61.5945 40.3933 61.6427 40.1296 61.6427ZM43.0718 61.6331C42.8467 61.6331 42.6428 61.5752 42.4601 61.4595C42.2787 61.3424 42.1346 61.1707 42.0278 60.9442C41.9224 60.7165 41.8697 60.4373 41.8697 60.1068C41.8697 59.7672 41.9243 59.4848 42.0337 59.2597C42.143 59.0332 42.2884 58.8641 42.4697 58.7521C42.6524 58.639 42.8526 58.5823 43.0699 58.5823C43.2358 58.5823 43.3741 58.6106 43.4848 58.6672C43.5967 58.7225 43.6868 58.7921 43.755 58.8756C43.8244 58.9579 43.8771 59.0391 43.9131 59.1188H43.9383V58.6209H44.7584V61.5849H43.9479V61.1102H43.9131C43.8745 61.1925 43.8199 61.2742 43.7492 61.3553C43.6797 61.435 43.589 61.5013 43.477 61.554C43.3665 61.6067 43.2313 61.6331 43.0718 61.6331ZM43.3324 60.979C43.4648 60.979 43.5768 60.943 43.6681 60.871C43.7607 60.7976 43.8315 60.6953 43.8804 60.5641C43.9305 60.4329 43.9556 60.2792 43.9556 60.1029C43.9556 59.9267 43.9312 59.7736 43.8823 59.6437C43.8334 59.5137 43.7626 59.4133 43.6701 59.3427C43.5774 59.2719 43.4648 59.2364 43.3324 59.2364C43.1972 59.2364 43.0834 59.2731 42.9908 59.3465C42.8982 59.4198 42.8281 59.5214 42.7804 59.6513C42.7329 59.7813 42.7091 59.9319 42.7091 60.1029C42.7091 60.2753 42.7329 60.4277 42.7804 60.5603C42.8293 60.6915 42.8994 60.7944 42.9908 60.8689C43.0834 60.9423 43.1972 60.979 43.3324 60.979ZM45.4342 61.5849V58.6209H46.2311V59.1381H46.2621C46.3162 58.9541 46.4068 58.8152 46.5342 58.7213C46.6615 58.6261 46.8082 58.5785 46.9741 58.5785C47.0538 58.5785 47.1279 58.5882 47.1961 58.6075C47.2643 58.6267 47.3252 58.6531 47.3793 58.6865L47.1323 59.3658C47.0938 59.3465 47.0512 59.3304 47.005 59.3175C46.9599 59.3034 46.9091 59.2963 46.8525 59.2963C46.7419 59.2963 46.6415 59.3227 46.5514 59.3754C46.4615 59.4269 46.3901 59.4982 46.3373 59.5896C46.2845 59.6809 46.2576 59.787 46.2562 59.9081V61.5849H45.4342ZM49.4518 58.6209V59.2385H47.6669V58.6209H49.4518ZM48.0721 57.9108H48.8942V60.6741C48.8942 60.7499 48.9057 60.8092 48.9288 60.8517C48.952 60.8928 48.9842 60.9218 49.0254 60.9385C49.0678 60.9552 49.1167 60.9635 49.172 60.9635C49.2106 60.9635 49.2491 60.9604 49.2877 60.9538C49.3264 60.9462 49.3559 60.9404 49.3766 60.9366L49.5059 61.5482C49.4647 61.5611 49.4067 61.5759 49.3321 61.5926C49.2576 61.6107 49.1668 61.6215 49.06 61.6255C48.862 61.6331 48.6884 61.6067 48.5391 61.5463C48.3911 61.4858 48.2761 61.392 48.1937 61.2645C48.1113 61.1372 48.0708 60.9764 48.0721 60.7821V57.9108Z" fill="#FFEFE1"/>
<path d="M52.9812 55.4716H17.6604C15.0345 55.4716 12.9057 57.6004 12.9057 60.2264C12.9057 62.8523 15.0345 64.9811 17.6604 64.9811H52.9812C55.6071 64.9811 57.7359 62.8523 57.7359 60.2264C57.7359 57.6004 55.6071 55.4716 52.9812 55.4716Z" stroke="#0C0030"/>
<path d="M59.7736 0.67926H12.2265C9.6005 0.67926 7.47174 2.80802 7.47174 5.43398V66.5661C7.47174 69.192 9.6005 71.3208 12.2265 71.3208H59.7736C62.3996 71.3208 64.5283 69.192 64.5283 66.5661V5.43398C64.5283 2.80802 62.3996 0.67926 59.7736 0.67926Z" stroke="#0C0030"/>
</g>
<g clip-path="url(#clip1_450_15382)">
<path d="M64.5871 71.9844C64.7254 72.1183 64.7567 72.2723 64.6808 72.4464C64.6049 72.625 64.4732 72.7143 64.2857 72.7143H61.7277L63.0737 75.9018C63.1183 76.0134 63.1183 76.1228 63.0737 76.2299C63.029 76.3371 62.9531 76.4152 62.846 76.4643L61.6607 76.9665C61.5491 77.0112 61.4397 77.0112 61.3326 76.9665C61.2254 76.9219 61.1473 76.846 61.0982 76.7388L59.8192 73.7121L57.7299 75.8013C57.6451 75.8862 57.5446 75.9286 57.4286 75.9286C57.375 75.9286 57.3214 75.9174 57.2679 75.8951C57.0893 75.8192 57 75.6875 57 75.5V65.4286C57 65.2411 57.0893 65.1094 57.2679 65.0335C57.3214 65.0112 57.375 65 57.4286 65C57.5491 65 57.6496 65.0424 57.7299 65.1272L64.5871 71.9844Z" fill="#0C0030"/>
</g>
<defs>
<clipPath id="clip0_450_15382">
<rect width="58.4151" height="72" fill="white" transform="translate(6.79248)"/>
</clipPath>
<clipPath id="clip1_450_15382">
<rect width="7.71429" height="12" fill="white" transform="translate(57 65)"/>
</clipPath>
</defs>
</svg>
