<?xml version="1.0"?>
<svg xmlns="http://www.w3.org/2000/svg" xmlns:xlink="http://www.w3.org/1999/xlink" version="1.1" id="Capa_1" x="0px" y="0px" width="512px" height="512px" viewBox="0 0 519.438 519.438" style="enable-background:new 0 0 519.438 519.438;" xml:space="preserve"><g transform="matrix(-1 0 0 1 519.438 0)"><g>
	<g>
		<path d="M175.041,317.448c2.935-0.83,5.933-1.658,9.067-2.488c9.477-2.545,19.832-5.037,30.872-7.41    c5.511-1.105,11.218-2.381,17.038-3.369c2.922-0.529,5.878-1.064,8.862-1.604c2.987-0.463,6-0.93,9.039-1.402    c12.204-1.924,24.816-3.301,37.736-4.43c12.843-0.873,26.04-1.598,39.112-1.348c3.269,0.059,6.595,0.016,9.856,0.154    c3.266,0.17,6.527,0.346,9.783,0.516c6.606,0.199,12.935,1.121,19.44,1.682c6.423,0.734,12.689,1.832,19.029,2.766    c6.117,1.35,12.394,2.424,18.354,3.98c11.943,3.078,23.461,6.705,34.03,11.123c10.661,4.291,20.386,9.32,29.187,14.492    c4.274,2.725,8.519,5.275,12.426,7.9c3.762,2.844,7.332,5.539,10.686,8.072c3.517,2.459,6.236,5.297,9.03,7.727    c2.757,2.5,5.291,4.799,7.577,6.873c8.445,9.158,13.271,14.393,13.271,14.393s-2.882-6.625-7.922-18.217    c-1.524-2.801-3.21-5.9-5.046-9.271c-1.913-3.348-3.728-7.23-6.338-10.867c-2.521-3.773-5.201-7.783-8.029-12.016    c-3.048-4.076-6.469-8.213-10.003-12.668c-7.295-8.615-15.826-17.645-25.729-26.322c-9.819-8.816-21.004-17.217-33.106-25.291    c-6.046-4.058-12.438-7.647-18.895-11.592c-6.564-3.485-13.257-7.2-20.142-10.539c-6.909-3.149-13.904-6.72-21.074-9.511    c-3.592-1.475-7.194-2.953-10.796-4.431c-3.619-1.441-7.271-2.687-10.93-4.036c-14.643-5.429-29.529-9.78-44.337-13.847    c-14.792-3.8-29.517-7.203-43.825-9.829c-3.586-0.664-7.145-1.319-10.667-1.971c-3.528-0.566-7.022-1.126-10.48-1.68    c-6.943-1.172-13.715-1.992-20.358-2.91c-13.127-1.656-25.6-2.922-37.176-3.804l-0.242-69.456L0,260.327l175.338,142.291    L175.041,317.448z" data-original="#000000" class="active-path" data-old_color="#000000" fill="#FFFFFF"/>
	</g>
</g></g> </svg>
