<?xml version="1.0"?>
<svg xmlns="http://www.w3.org/2000/svg" xmlns:xlink="http://www.w3.org/1999/xlink" version="1.1" id="Layer_1" x="0px" y="0px" viewBox="0 0 512.004 512.004" style="enable-background:new 0 0 512.004 512.004;" xml:space="preserve" width="512px" height="512px"><g transform="matrix(-1 0 0 1 512.004 0)"><g>
	<g>
		<path d="M464.004,98.346h-368v32h368c14.544,0,15.92,15.92,16,20.688v128c0,3.072-0.448,7.152-2.608,9.056    c-2.816,2.496-8.784,2.624-11.072,2.416c-0.768-0.096-1.552-0.16-2.32-0.16H54.628l68.688-68.688l-22.624-22.624l-96,96    c-6.256,6.256-6.256,16.368,0,22.624l96,96l22.624-22.624l-68.688-68.688h408.464c1.168,0.112,2.896,0.24,5.024,0.24    c7.536,0,20.064-1.52,30.144-10.224c6.272-5.424,13.744-15.6,13.744-33.328v-128C512.004,129.866,499.22,98.346,464.004,98.346z" data-original="#000000" class="active-path" data-old_color="#000000" fill="#FFFFFF"/>
	</g>
</g></g> </svg>
