<svg width="30" height="30" viewBox="0 0 30 30" fill="none" xmlns="http://www.w3.org/2000/svg">
<path d="M26.4366 27.3378C26.1689 27.3381 25.9071 27.259 25.6843 27.1105C25.4616 26.962 25.2879 26.7507 25.1853 26.5035C25.0827 26.2562 25.0558 25.9841 25.1079 25.7215C25.1601 25.4589 25.289 25.2177 25.4783 25.0284C25.6675 24.8391 25.9088 24.7103 26.1713 24.6581C26.4339 24.606 26.7061 24.6329 26.9533 24.7355C27.2006 24.8381 27.4118 25.0118 27.5603 25.2345C27.7089 25.4573 27.7879 25.719 27.7876 25.9867C27.7867 26.3448 27.644 26.6879 27.3909 26.941C27.1377 27.1942 26.7946 27.3368 26.4366 27.3378ZM26.4366 25.3834C26.3172 25.383 26.2003 25.4181 26.1009 25.4842C26.0014 25.5503 25.9238 25.6444 25.8779 25.7546C25.8319 25.8648 25.8197 25.9862 25.8428 26.1034C25.8659 26.2205 25.9232 26.3282 26.0075 26.4128C26.0918 26.4973 26.1994 26.555 26.3165 26.5784C26.4335 26.6018 26.555 26.59 26.6653 26.5444C26.7757 26.4988 26.87 26.4214 26.9364 26.3222C27.0028 26.2229 27.0382 26.1062 27.0382 25.9867C27.0382 25.827 26.9749 25.6738 26.8621 25.5607C26.7493 25.4476 26.5963 25.3838 26.4366 25.3834V25.3834Z" fill="white"/>
<path d="M3.56117 22.3453C3.45045 22.3457 3.34213 22.3132 3.2499 22.2519C3.15767 22.1906 3.0857 22.1034 3.04309 22.0012C3.00048 21.899 2.98915 21.7865 3.01054 21.6779C3.03192 21.5692 3.08506 21.4694 3.16323 21.391C3.24139 21.3126 3.34106 21.2591 3.44963 21.2374C3.55819 21.2157 3.67076 21.2266 3.77308 21.2689C3.8754 21.3112 3.96287 21.3829 4.02442 21.4749C4.08596 21.567 4.11882 21.6752 4.11882 21.7859C4.11882 21.934 4.06012 22.076 3.95559 22.1809C3.85106 22.2857 3.70923 22.3449 3.56117 22.3453ZM3.56117 21.5379C3.51162 21.5375 3.46308 21.5519 3.42173 21.5792C3.38038 21.6065 3.34809 21.6455 3.32897 21.6913C3.30984 21.737 3.30475 21.7873 3.31433 21.836C3.32391 21.8846 3.34774 21.9293 3.38278 21.9643C3.41782 21.9993 3.46249 22.0232 3.51111 22.0327C3.55973 22.0423 3.6101 22.0372 3.65582 22.0181C3.70154 21.999 3.74053 21.9667 3.76784 21.9253C3.79516 21.884 3.80956 21.8355 3.80921 21.7859C3.80875 21.7203 3.78247 21.6574 3.73605 21.611C3.68963 21.5646 3.62681 21.5383 3.56117 21.5379V21.5379Z" fill="white"/>
<path d="M16.3873 5.07931C16.1817 5.07931 15.9807 5.01834 15.8097 4.9041C15.6387 4.78986 15.5055 4.62749 15.4268 4.43752C15.3481 4.24754 15.3275 4.0385 15.3676 3.83683C15.4077 3.63516 15.5068 3.44991 15.6522 3.30451C15.7976 3.15911 15.9828 3.06009 16.1845 3.01998C16.3862 2.97986 16.5952 3.00045 16.7852 3.07914C16.9751 3.15783 17.1375 3.29108 17.2518 3.46206C17.366 3.63303 17.427 3.83403 17.427 4.03966C17.427 4.31539 17.3174 4.57983 17.1225 4.77481C16.9275 4.96978 16.663 5.07931 16.3873 5.07931ZM16.3873 3.577C16.2958 3.577 16.2064 3.60414 16.1303 3.65497C16.0542 3.70581 15.9949 3.77807 15.9599 3.86261C15.9249 3.94715 15.9157 4.04017 15.9335 4.12992C15.9514 4.21966 15.9955 4.3021 16.0602 4.36681C16.1249 4.43151 16.2073 4.47557 16.2971 4.49342C16.3868 4.51128 16.4798 4.50211 16.5644 4.4671C16.6489 4.43208 16.7212 4.37278 16.772 4.2967C16.8228 4.22061 16.85 4.13116 16.85 4.03966C16.85 3.9789 16.838 3.91874 16.8148 3.86261C16.7915 3.80647 16.7574 3.75547 16.7145 3.71251C16.6715 3.66955 16.6205 3.63547 16.5644 3.61222C16.5082 3.58897 16.4481 3.577 16.3873 3.577V3.577Z" fill="white"/>
<path d="M14.7695 13.6868H8.90625V14.3729H14.7695V13.6868Z" fill="white"/>
<path d="M12.7043 15.3949H8.90625V16.081H12.7043V15.3949Z" fill="white"/>
<path d="M14.7695 17.2703H8.90625V17.9563H14.7695V17.2703Z" fill="white"/>
<path d="M26.6327 5.72665H13.615V6.34235H17.4025V23.3709H6.27586V6.34235H8.00862V5.72665H6.17559C6.03987 5.72978 5.91058 5.78509 5.81459 5.88108C5.7186 5.97707 5.66329 6.10637 5.66016 6.24208V23.4712C5.66329 23.6069 5.7186 23.7362 5.81459 23.8322C5.91058 23.9282 6.03987 23.9835 6.17559 23.9866H26.5975C26.7333 23.9835 26.8626 23.9282 26.9585 23.8322C27.0545 23.7362 27.1098 23.6069 27.113 23.4712V6.24208C27.1184 6.176 27.1099 6.10953 27.0882 6.0469C27.0664 5.98427 27.0318 5.92687 26.9866 5.87837C26.9414 5.82986 26.8866 5.79132 26.8257 5.76519C26.7647 5.73907 26.699 5.72594 26.6327 5.72665V5.72665ZM21.9323 23.3709H18.0516V6.34235H21.9323V23.3709ZM26.5325 23.4061H22.548V6.34235H26.5325V23.4061Z" fill="white"/>
<path d="M10.8045 5.44867C10.6571 5.44867 10.513 5.49233 10.3904 5.57413C10.2679 5.65594 10.1723 5.77222 10.1157 5.90831C10.0592 6.04439 10.0442 6.19418 10.0727 6.33877C10.1012 6.48336 10.1719 6.61627 10.2758 6.72072C10.3798 6.82517 10.5124 6.89649 10.6568 6.92566C10.8013 6.95484 10.9511 6.94057 11.0875 6.88466C11.2238 6.82874 11.3406 6.73369 11.4229 6.61149C11.5053 6.4893 11.5496 6.34544 11.5503 6.19807C11.5508 6.09982 11.5319 6.00245 11.4946 5.91155C11.4573 5.82065 11.4024 5.73801 11.3331 5.66837C11.2638 5.59874 11.1814 5.54348 11.0907 5.50578C11 5.46808 10.9027 5.44867 10.8045 5.44867V5.44867ZM10.8045 6.57277C10.7295 6.57276 10.6562 6.55049 10.594 6.50877C10.5317 6.46706 10.4832 6.40778 10.4547 6.33846C10.4262 6.26915 10.4189 6.19292 10.4338 6.11946C10.4487 6.046 10.485 5.97861 10.5383 5.92586C10.5915 5.87311 10.6593 5.83737 10.7329 5.82318C10.8065 5.80898 10.8826 5.81697 10.9517 5.84614C11.0207 5.87531 11.0795 5.92433 11.1207 5.98699C11.1618 6.04965 11.1834 6.12312 11.1827 6.19807C11.1813 6.29762 11.1409 6.39266 11.0702 6.46273C10.9994 6.5328 10.904 6.57231 10.8045 6.57277V6.57277Z" fill="white"/>
<path d="M13.6067 5.9817L13.4308 5.88846V8.51487C13.4306 8.64516 13.4047 8.77414 13.3546 8.89442C13.3046 9.01471 13.2313 9.12395 13.139 9.21592C13.0467 9.30789 12.9372 9.38078 12.8167 9.43042C12.6963 9.48007 12.5672 9.5055 12.4369 9.50527H9.16666C8.9046 9.50434 8.65359 9.39959 8.46861 9.21395C8.28363 9.02831 8.17977 8.77693 8.17977 8.51487V5.24285C8.17977 5.11279 8.20539 4.98401 8.25516 4.86384C8.30494 4.74368 8.37789 4.6345 8.46986 4.54254C8.56182 4.45057 8.671 4.37762 8.79116 4.32784C8.91133 4.27807 9.04011 4.25245 9.17018 4.25245H12.4369C12.5573 4.25313 12.6765 4.27579 12.7887 4.3193L12.9523 3.98858C12.7879 3.9204 12.6114 3.88571 12.4334 3.88655H9.16666C8.80678 3.88655 8.46162 4.02939 8.20698 4.2837C7.95235 4.538 7.80906 4.88298 7.80859 5.24285V8.51487C7.80859 8.87505 7.95167 9.22048 8.20636 9.47517C8.46105 9.72985 8.80648 9.87293 9.16666 9.87293H12.4369C12.7973 9.87293 13.1429 9.72991 13.3978 9.47527C13.6528 9.22064 13.7963 8.87521 13.7967 8.51487V5.86559L13.6067 5.9817Z" fill="white"/>
<path d="M7.80859 5.86559V8.51487C7.80906 8.87521 7.95253 9.22064 8.2075 9.47527C8.46246 9.72991 8.80807 9.87293 9.16842 9.87293H12.4387C12.617 9.87293 12.7936 9.83781 12.9584 9.76956C13.1232 9.70131 13.2729 9.60128 13.399 9.47517C13.5251 9.34906 13.6251 9.19935 13.6934 9.03458C13.7616 8.86981 13.7967 8.69322 13.7967 8.51487V5.24285C13.7963 4.88298 13.653 4.538 13.3983 4.2837C13.1437 4.02939 12.7986 3.88655 12.4387 3.88655H9.16842C8.99037 3.88571 8.81394 3.9204 8.64947 3.98858L8.81307 4.3193C8.9253 4.27579 9.04453 4.25313 9.1649 4.25245H12.4387C12.7013 4.25245 12.9533 4.3568 13.139 4.54254C13.3247 4.72827 13.4291 4.98018 13.4291 5.24285V8.51487C13.4291 8.77754 13.3247 9.02946 13.139 9.21519C12.9533 9.40093 12.7013 9.50527 12.4387 9.50527H9.16842C8.90619 9.50434 8.655 9.39964 8.46975 9.21406C8.28449 9.02847 8.18024 8.7771 8.17977 8.51487V5.88846L8.00386 5.9817L7.80859 5.86559Z" fill="white"/>
<path d="M13.6071 5.99935L13.4312 6.10841L10.4829 7.9133L9.87422 7.03373L8.18016 7.9907L7.8125 8.20004V8.53076C7.81203 8.8908 7.95437 9.23633 8.20829 9.49158C8.46222 9.74682 8.80701 9.89095 9.16705 9.89234H12.4373C12.7978 9.89188 13.1434 9.74846 13.3983 9.49355C13.6532 9.23863 13.7967 8.89303 13.7971 8.53252V5.8938L13.6071 5.99935ZM13.4312 8.53076C13.4308 8.79406 13.3258 9.04642 13.1395 9.23243C12.9531 9.41845 12.7006 9.52292 12.4373 9.52292H9.16705C8.90482 9.52153 8.65382 9.41638 8.46889 9.23047C8.28397 9.04455 8.18016 8.79299 8.18016 8.53076V8.4129L9.7634 7.51398L10.3756 8.40938L13.4295 6.53941L13.4312 8.53076Z" fill="white"/>
</svg>
