<svg xmlns="http://www.w3.org/2000/svg" fill="#000" viewBox="0 0 24 25">
  <path fill-rule="evenodd" d="M11.996 2.5H12a10 10 0 0 1 10 10 1 1 0 1 1-2 0 8 8 0 0 0-7.998-8A8.75 8.75 0 0 0 5.96 6.953l-.547.547H8a1 1 0 1 1 0 2H3a.997.997 0 0 1-.705-.29l-.004-.005A.997.997 0 0 1 2 8.5v-5a1 1 0 1 1 2 0v2.586l.553-.553.012-.012A10.75 10.75 0 0 1 11.996 2.5ZM4 12.5a8 8 0 0 0 7.998 8 8.75 8.75 0 0 0 6.041-2.453l.547-.547H16a1 1 0 1 1 0-2h5.003a.998.998 0 0 1 .997 1v5a1 1 0 1 1-2 0v-2.586l-.553.553-.012.012a10.75 10.75 0 0 1-7.431 3.021H12a10 10 0 0 1-10-10 1 1 0 1 1 2 0Z" clip-rule="evenodd"/>
</svg>