<svg xmlns="http://www.w3.org/2000/svg" viewBox="0 0 97 73.5"><title>center align</title><g id="Layer_2" data-name="Layer 2"><g id="Layer_1-2" data-name="Layer 1"><path d="M66.3,40.6a2.5,2.5,0,0,0,2.5-2.5V2.5A2.5,2.5,0,0,0,66.3,0H30.7a2.5,2.5,0,0,0-2.5,2.5V38.1a2.5,2.5,0,0,0,2.5,2.5ZM31.2,3H65.8V37.6H31.2Z"/><path d="M1.5,23.37H20.3a1.5,1.5,0,0,0,0-3H1.5a1.5,1.5,0,0,0,0,3Z"/><path d="M1.5,40.6H20.3a1.5,1.5,0,1,0,0-3H1.5a1.5,1.5,0,0,0,0,3Z"/><path d="M95.5,20.37H76.7a1.5,1.5,0,0,0,0,3H95.5a1.5,1.5,0,0,0,0-3Z"/><path d="M95.5,37.6H76.7a1.5,1.5,0,0,0,0,3H95.5a1.5,1.5,0,0,0,0-3Z"/><path d="M97,55.55a1.5,1.5,0,0,0-1.5-1.5H1.5a1.5,1.5,0,0,0,0,3h94A1.5,1.5,0,0,0,97,55.55Z"/><path d="M59.4,72a1.5,1.5,0,0,0-1.5-1.5H1.5a1.5,1.5,0,0,0,0,3H57.9A1.5,1.5,0,0,0,59.4,72Z"/></g></g></svg>