<?xml version="1.0" ?><!DOCTYPE svg  PUBLIC '-//W3C//DTD SVG 1.1//EN'  'http://www.w3.org/Graphics/SVG/1.1/DTD/svg11.dtd'><svg enable-background="new 0 0 128 128" height="128px" id="Layer_1" version="1.1" viewBox="0 0 128 128" width="128px" xml:space="preserve" xmlns="http://www.w3.org/2000/svg" xmlns:xlink="http://www.w3.org/1999/xlink"><path d="M64.005,114.135h-0.004c-27.641,0-50.129-22.487-50.131-50.128c0-27.642,22.487-50.129,50.129-50.129  s50.129,22.488,50.129,50.129C114.128,91.647,91.643,114.135,64.005,114.135z M63.999,17.877c-25.436,0-46.129,20.693-46.129,46.129  c0.002,25.436,20.696,46.129,46.131,46.129h0.004c25.433,0,46.123-20.693,46.123-46.129S89.435,17.877,63.999,17.877z"/><g><path d="M64.478,92.582c-8.949,0-16.23-6.85-16.23-15.268c0-1.104,0.896-2,2-2s2,0.896,2,2c0,6.213,5.486,11.268,12.23,11.268   c6.743,0,12.229-5.055,12.229-11.268s-5.485-11.268-12.229-11.268c-8.949,0-16.23-6.849-16.23-15.268   c0-8.418,7.281-15.267,16.23-15.267c4.811,0,9.342,1.988,12.434,5.455c0.735,0.825,0.663,2.089-0.161,2.824   s-2.09,0.662-2.823-0.161c-2.334-2.617-5.778-4.118-9.449-4.118c-6.744,0-12.23,5.054-12.23,11.267   c0,6.213,5.486,11.268,12.23,11.268c8.948,0,16.229,6.85,16.229,15.268S73.426,92.582,64.478,92.582z"/><path d="M64.032,99.842c-1.104,0-2-0.896-2-2v-67.59c0-1.104,0.896-2,2-2s2,0.896,2,2v67.59   C66.032,98.946,65.137,99.842,64.032,99.842z"/></g></svg>