<?xml version="1.0" encoding="utf-8"?>
<!-- Generator: Adobe Illustrator 25.0.1, SVG Export Plug-In . SVG Version: 6.00 Build 0)  -->
<svg version="1.1" id="Capa_1" xmlns="http://www.w3.org/2000/svg" xmlns:xlink="http://www.w3.org/1999/xlink" x="0px" y="0px"
	 viewBox="0 0 512 512" style="enable-background:new 0 0 512 512;" xml:space="preserve">
<style>
	.st0{fill:#FF6D4A;}
</style>
<g>
	<g>
		<path class="st0" d="M324.3,345.5c-18.9,14.5-42.6,23.1-68.3,23.1s-49.4-8.6-68.3-23.1L85.9,447.3C132.8,489.1,192.6,512,256,512
			s123.2-22.9,170.1-64.7L324.3,345.5z"/>
	</g>
</g>
<g>
	<g>
		<path class="st0" d="M447.3,85.9L345.5,187.7c14.5,18.9,23.1,42.6,23.1,68.3s-8.6,49.4-23.1,68.3l101.8,101.8
			C489.1,379.2,512,319.4,512,256S489.1,132.8,447.3,85.9z"/>
	</g>
</g>
<g>
	<g>
		<path class="st0" d="M256,0C192.6,0,132.8,22.9,85.9,64.7l101.8,101.8c18.9-14.5,42.6-23.1,68.3-23.1s49.4,8.6,68.3,23.1
			L426.1,64.7C379.2,22.9,319.4,0,256,0z"/>
	</g>
</g>
<g>
	<g>
		<path class="st0" d="M166.5,187.7L64.7,85.9C22.9,132.8,0,192.6,0,256s22.9,123.2,64.7,170.1l101.8-101.8
			c-14.5-18.9-23.1-42.6-23.1-68.3S152,206.6,166.5,187.7z"/>
	</g>
</g>
</svg>
