<?xml version="1.0" encoding="utf-8"?>
<!-- Generator: Adobe Illustrator 25.0.1, SVG Export Plug-In . SVG Version: 6.00 Build 0)  -->
<svg version="1.1" id="Layer_1" xmlns="http://www.w3.org/2000/svg" xmlns:xlink="http://www.w3.org/1999/xlink" x="0px" y="0px"
	 viewBox="0 0 24 24" style="enable-background:new 0 0 24 24;" xml:space="preserve">
<style>
	.st0{fill:#FB4E24;}
	.st1{fill:#F9B1A2;}
</style>
<g>
	<path class="st0" d="M15.7,20.1l-3.5-2.5v1.7v0.3H12c-2.1,0-4.1-0.8-5.5-2.2C5,16,4.2,14.1,4.2,12.1c0-2,0.8-3.9,2.3-5.3
		C7.3,5.9,8.2,5.3,9.3,5L8.1,4.1l0-0.1c-1,0.4-1.8,1-2.6,1.7c-1.7,1.6-2.7,3.8-2.7,6.3c0,2.4,1,4.7,2.7,6.3c1.6,1.5,3.8,2.5,6.2,2.6
		c0.1,0,0.2,0,0.2,0l0,1.8l0,0v0L15.7,20.1z"/>
	<path class="st1" d="M11.7,20.9l0,1.8c0,0.1,0.1,0.2,0.1,0.2c0,0,0.1,0,0.1,0c0.1,0,0.1,0,0.2-0.1l3.7-2.6c0.1,0,0.1-0.1,0.1-0.2
		c0-0.1,0-0.2-0.1-0.2l-1.3-1l-2.3-1.6V4.8c-0.1,0-0.2,0-0.2,0l0,1.8l0,0v0L8.3,3.9L12,1.3l0,0l0,0l0,2c0.1,0,0.2,0,0.2,0l0-2
		c0-0.1-0.1-0.2-0.1-0.2c0,0-0.1,0-0.1,0c-0.1,0-0.1,0-0.2,0.1L8.1,3.7C8,3.7,8,3.8,8,3.9C8,4,8,4,8.1,4.1l0,0.1L9.3,5
		c-1.1,0.4-2,1-2.8,1.8C5,8.1,4.2,10,4.2,12.1c0,2,0.8,3.9,2.3,5.3c1.5,1.4,3.4,2.2,5.5,2.2h0.3v-0.3v-1.7l3.5,2.5L12,22.8v0l0,0
		l0-1.8C11.9,20.9,11.8,20.9,11.7,20.9z M12,19.4c-2.1,0-4-0.8-5.4-2.1c-1.4-1.3-2.2-3.1-2.2-5.2c0-2,0.8-3.8,2.2-5.2
		c0.8-0.8,1.8-1.4,2.9-1.7l2.3,1.6c0,0,0.1,0.1,0.2,0.1l0,0V19.4z"/>
	<path class="st0" d="M8.2,15.3h0.5C8.9,15.3,9,15.2,9,15v-0.5c0.4-0.1,0.8-0.2,1.1-0.4c0.5-0.3,0.8-0.8,0.8-1.3
		c0-0.4-0.1-0.7-0.3-0.9c-0.3-0.4-0.9-0.6-1.6-0.7v-1c0.1,0.1,0.3,0.1,0.4,0.2c0.1,0.1,0.2,0.1,0.3,0.1c0.1,0,0.2-0.1,0.2-0.1l0,0
		l0.6-0.4c0.1-0.1,0.1-0.1,0.1-0.2c0-0.1,0-0.1-0.1-0.2C10.1,9.2,9.6,9,9,8.9V8.3C9,8.2,8.9,8,8.7,8H8.2C8,8,7.9,8.2,7.9,8.3v0.5
		C7.6,8.9,7.4,9,7.1,9.1C6.4,9.4,6,9.9,6,10.5c0,0.3,0.1,0.6,0.3,0.8c0.3,0.4,0.8,0.7,1.6,0.8v1.2c-0.3-0.1-0.6-0.3-0.9-0.6
		c-0.1-0.1-0.1-0.1-0.2-0.1c-0.1,0-0.2,0-0.2,0l0,0L6,13c-0.1,0.1-0.1,0.1-0.1,0.2c0,0.1,0,0.1,0.1,0.2c0.1,0.2,0.3,0.4,0.6,0.6
		c0.4,0.3,0.8,0.5,1.3,0.6V15C7.9,15.2,8,15.3,8.2,15.3z M9,12.3c0.3,0.1,0.4,0.3,0.4,0.5c0,0.2-0.1,0.4-0.3,0.5c0,0-0.1,0-0.1,0.1
		V12.3z M7.5,10.5c0-0.2,0.1-0.3,0.3-0.4l0,0V11C7.7,10.9,7.5,10.7,7.5,10.5z"/>
	<path class="st0" d="M13,12.1L13,12.1c-0.1,0.1-0.1,0.1-0.1,0.2c0,0,0,0.1,0,0.2c0,0.1,0,0.2,0,0.3c0,0.1,0.1,0.1,0.1,0.1h0.5
		c0.1,0.3,0.2,0.5,0.3,0.8c0.1,0.2,0.3,0.4,0.5,0.6c0.2,0.2,0.5,0.3,0.8,0.4c0.3,0.1,0.7,0.1,1.1,0.1c0.2,0,0.4,0,0.6,0
		c0.2,0,0.3-0.1,0.5-0.1c0.1,0,0.3-0.1,0.4-0.1c0.1,0,0.2-0.1,0.2-0.1c0,0,0.1-0.1,0.1-0.2c0-0.1,0-0.2,0-0.3c0-0.1,0-0.2,0-0.2
		c0-0.1,0-0.1,0-0.1c0,0,0-0.1-0.1-0.1c0,0-0.1,0-0.1,0c-0.1,0-0.1,0-0.2,0.1c-0.1,0-0.2,0.1-0.3,0.1c-0.1,0-0.3,0.1-0.4,0.1
		c-0.2,0-0.3,0.1-0.6,0.1c-0.2,0-0.4,0-0.6-0.1c-0.2,0-0.3-0.1-0.4-0.2c-0.1-0.1-0.2-0.2-0.3-0.3c-0.1-0.1-0.1-0.2-0.1-0.4h1.5
		c0.1,0,0.1,0,0.1-0.1c0-0.1,0-0.1,0-0.3c0-0.1,0-0.1,0-0.2c0,0,0-0.1,0-0.1l-0.1-0.1l-0.1,0H15c0-0.1,0-0.1,0-0.2c0,0,0-0.1,0-0.2
		c0-0.1,0-0.1,0-0.2c0,0,0-0.1,0-0.1h1.6c0.1,0,0.1,0,0.1-0.1c0-0.1,0-0.1,0-0.3c0-0.1,0-0.1,0-0.2c0,0,0-0.1,0-0.1l-0.1-0.1l-0.1,0
		h-1.5c0-0.1,0.1-0.3,0.2-0.4c0.1-0.1,0.2-0.2,0.3-0.3c0.1-0.1,0.2-0.1,0.4-0.2c0.2,0,0.3-0.1,0.5-0.1c0.2,0,0.4,0,0.6,0.1
		c0.2,0,0.3,0.1,0.4,0.1c0.1,0,0.2,0.1,0.3,0.1c0.1,0,0.1,0.1,0.2,0.1c0,0,0.1,0,0.1,0c0,0,0,0,0.1-0.1c0,0,0-0.1,0-0.1
		c0,0,0-0.1,0-0.2c0-0.1,0-0.2,0-0.2c0-0.1,0-0.1,0-0.2c0,0,0-0.1,0-0.1c0,0,0-0.1-0.1-0.1c0,0-0.1-0.1-0.2-0.1
		c-0.1,0-0.2-0.1-0.3-0.1c-0.1,0-0.3-0.1-0.5-0.1c-0.2,0-0.4,0-0.5,0c-0.4,0-0.8,0-1.1,0.1c-0.3,0.1-0.6,0.2-0.8,0.4
		c-0.2,0.2-0.4,0.4-0.5,0.6c-0.1,0.2-0.2,0.5-0.3,0.7h-0.6l-0.1,0L13,10.9c0,0,0,0.1,0,0.1c0,0,0,0.1,0,0.2c0,0.1,0,0.2,0,0.3
		c0,0.1,0.1,0.1,0.1,0.1h0.5c0,0.1,0,0.1,0,0.2c0,0.1,0,0.1,0,0.2c0,0,0,0.1,0,0.1c0,0,0,0.1,0,0.1L13,12.1C13,12.1,13,12.1,13,12.1
		z"/>
	<path class="st0" d="M17.1,17.5L17.1,17.5c-0.2,0.1-0.2,0.2-0.3,0.2c0,0-0.1,0-0.1,0.1c-0.1,0.1-0.2,0.1-0.2,0.2L16.4,18
		c-0.1,0.1-0.2,0.1-0.3,0.2l-0.1,0c-0.1,0.1-0.2,0.1-0.3,0.2l0,0c-0.4,0.2-0.7,0.4-1.1,0.5l0,0l1.5,1.1c0.9-0.4,1.7-1,2.4-1.7
		c1.7-1.6,2.7-3.8,2.7-6.3c0-2.4-1-4.7-2.7-6.3c-1.6-1.5-3.8-2.5-6.2-2.6c-0.1,0-0.2,0-0.2,0l0-2l0,0l0,0L8.3,3.9L12,6.6v0l0,0
		l0-1.8c0.1,0,0.2,0,0.2,0c2,0.1,3.8,0.9,5.1,2.1c1.4,1.3,2.2,3.1,2.2,5.2c0,2-0.8,3.8-2.2,5.2C17.3,17.3,17.2,17.4,17.1,17.5z"/>
</g>
</svg>
