<?xml version="1.0" encoding="utf-8"?>
<!-- Generator: Adobe Illustrator 23.0.4, SVG Export Plug-In . SVG Version: 6.00 Build 0)  -->
<svg version="1.1" id="Layer_1" xmlns="http://www.w3.org/2000/svg" xmlns:xlink="http://www.w3.org/1999/xlink" x="0px" y="0px"
	 viewBox="0 0 277.4 150" style="enable-background:new 0 0 277.4 150;" xml:space="preserve">
<style type="text/css">
	.st0{fill:#FFFFFF;stroke:#F1F1F1;stroke-width:0.4922;stroke-miterlimit:10;}
	.st1{fill:#FFFFFF;}
	.st2{fill:#010101;}
	.st3{fill:#FFFFFF;stroke:#F1F1F1;stroke-width:2.753;stroke-linecap:round;stroke-miterlimit:10;}
	.st4{fill:#E5E5E5;}
	.st5{fill:#FFFFFF;stroke:#F1F1F1;stroke-width:2.7394;stroke-linecap:round;stroke-miterlimit:10;}
	.st6{fill:#030303;}
	.st7{fill:#FDFDFD;}
	.st8{fill:#070707;}
	.st9{fill:#FCFCFC;}
	.st10{fill:#080808;}
	.st11{fill:#FEFEFE;}
</style>
<g>
	<path class="st5" d="M263.9,148.2H14.3c-6.6,0-11.9-5.3-11.9-11.9V13.7c0-6.6,5.3-11.9,11.9-11.9h249.6c6.6,0,11.9,5.3,11.9,11.9
		v122.6C275.7,142.8,270.4,148.2,263.9,148.2z"/>
	<g>
		<g>
			<g>
				<path d="M111.5,92c-0.2,0.1-0.2,0.4-0.3,0.6c-1.2,3.5-5.5,4.7-8.4,2.3c-0.2-0.2-0.5-0.4-0.7-0.7C93,85.2,83.9,76.1,74.8,66.9
					c-0.5-0.5-0.7-0.5-1.2,0c-9.2,9.2-18.4,18.4-27.5,27.5c-2.1,2.1-4.9,2.3-7,0.7c-2.4-1.8-2.8-5.4-0.7-7.6
					c0.1-0.1,0.2-0.2,0.3-0.3C49.2,76.6,59.8,66,70.4,55.5c1.9-1.9,4.5-2.2,6.6-0.8c0.4,0.3,0.8,0.6,1.1,0.9
					c10.5,10.5,21,21,31.5,31.5c0.9,0.9,1.4,1.9,1.8,3.1C111.5,90.7,111.5,91.4,111.5,92z"/>
			</g>
			<g>
				<path d="M241.2,58c-0.2-0.1-0.2-0.4-0.3-0.6c-1.2-3.5-5.5-4.7-8.4-2.3c-0.2,0.2-0.5,0.4-0.7,0.7c-9.1,9.1-18.2,18.2-27.3,27.3
					c-0.5,0.5-0.7,0.5-1.2,0c-9.2-9.2-18.4-18.4-27.5-27.5c-2.1-2.1-4.9-2.3-7-0.7c-2.4,1.8-2.8,5.4-0.7,7.6
					c0.1,0.1,0.2,0.2,0.3,0.3c10.6,10.6,21.2,21.2,31.8,31.7c1.9,1.9,4.5,2.2,6.6,0.8c0.4-0.3,0.8-0.6,1.1-0.9
					c10.5-10.5,21-21,31.5-31.5c0.9-0.9,1.4-1.9,1.8-3.1C241.2,59.3,241.2,58.6,241.2,58z"/>
			</g>
		</g>
		<g>
			<rect x="136.1" y="33" class="st4" width="5.9" height="84"/>
		</g>
	</g>
</g>
</svg>
