<?xml version="1.0" encoding="utf-8"?>
<!-- Generator: Adobe Illustrator 23.0.4, SVG Export Plug-In . SVG Version: 6.00 Build 0)  -->
<svg version="1.1" id="Layer_1" xmlns="http://www.w3.org/2000/svg" xmlns:xlink="http://www.w3.org/1999/xlink" x="0px" y="0px"
	 viewBox="0 0 277.4 150" style="enable-background:new 0 0 277.4 150;" xml:space="preserve">
<style type="text/css">
	.st0{fill:#FFFFFF;stroke:#F1F1F1;stroke-width:0.4922;stroke-miterlimit:10;}
	.st1{fill:#FFFFFF;}
	.st2{fill:#010101;}
	.st3{fill:#FFFFFF;stroke:#F1F1F1;stroke-width:2.753;stroke-linecap:round;stroke-miterlimit:10;}
	.st4{fill:#E5E5E5;}
	.st5{fill:#FFFFFF;stroke:#F1F1F1;stroke-width:2.7394;stroke-linecap:round;stroke-miterlimit:10;}
	.st6{fill:#030303;}
	.st7{fill:#FDFDFD;}
	.st8{fill:#070707;}
	.st9{fill:#FCFCFC;}
	.st10{fill:#080808;}
	.st11{fill:#FEFEFE;}
</style>
<g>
	<path class="st3" d="M264.1,148.4H13c-6.6,0-11.9-5.3-11.9-11.9v-123C1.1,6.8,6.4,1.5,13,1.5h251.1c6.6,0,11.9,5.3,11.9,11.9v123
		C276,143.1,270.7,148.4,264.1,148.4z"/>
	<g>
		<polygon points="112.9,70 78.3,70 78.3,35.5 68.4,35.5 68.4,70 33.8,70 33.8,79.9 68.4,79.9 68.4,114.4 78.3,114.4 78.3,79.9 
			112.9,79.9 		"/>
		<rect x="198.9" y="35.4" transform="matrix(4.491169e-11 -1 1 4.491169e-11 128.8567 278.7402)" width="9.9" height="79.1"/>
		<rect x="137.4" y="32.8" class="st4" width="5.9" height="84.3"/>
	</g>
</g>
</svg>
