<?xml version="1.0" encoding="UTF-8" standalone="no"?><svg version="1.1" id="Layer_1" xmlns="http://www.w3.org/2000/svg" x="0px" y="0px" viewBox="0 0 356.2 59.2" style="enable-background:new 0 0 356.2 59.2;" xml:space="preserve"><style type="text/css">.st0{fill:#1E3E79;}.st1{fill:#00ADEF;}</style><g id="text4313"></g><g><path class="st0" d="M143.6,0.2c3-1,6.5,1.2,6.9,4.3c0.6,3-1.8,6.1-4.8,6.3c-2.8,0.4-5.7-1.8-6-4.7C139.3,3.6,141,0.9,143.6,0.2L143.6,0.2z"/><path class="st0" d="M107.7,1.5c1.8,0,3.5,0,5.3,0c1.1,0,2.4,0.3,3.2,1.1c0.9,1,1,2.3,1,3.6c0,6.2,0,12.5,0,18.7c1.3-0.1,3,0.3,3.7-1c2.2-3.3,4.3-6.6,6.4-9.9c3.6,0,7.1,0,10.7,0c-2.8,4.3-5.7,8.5-8.6,12.7c-0.5,0.8-1.1,1.5-1.8,2.2c1.3,1.3,2,3,2.9,4.6c2.3,4.5,5,8.8,7.6,13.1c-2.8,0-5.7,0.1-8.5,0c-1.7,0-3.2-1-4-2.4c-1.9-3.4-3.6-6.9-5.5-10.3c-0.6-1-2-0.7-2.9-0.8c0,4.5,0,9.1,0,13.6c-3.2,0-6.3,0-9.5,0C107.7,31.6,107.7,16.5,107.7,1.5L107.7,1.5z"/><path class="st0" d="M164.7,17.6c2.1-2.4,5.1-4,8.3-4.3c3.4-0.3,7.1,0.2,9.8,2.5c2.4,2.1,3.3,5.3,3.5,8.4c0.1,7.5-0.1,14.9,0.1,22.4c-1.9,0-3.7,0.1-5.6-0.1c-1.3-0.1-2.6-0.7-3.3-1.9c-0.8-1.4-0.6-3.1-0.7-4.7c0-4.4,0-8.9,0-13.3c0-1.7-0.5-3.8-2.3-4.4c-2.5-0.7-5.2,0.1-7.1,1.9c-1.8,1.8-2.6,4.4-2.6,6.8c0,5.2,0,10.4,0,15.6c-3.1,0-6.3,0-9.4,0c0-10.9,0-21.8,0-32.6c2.3,0.1,4.7-0.4,6.9,0.5C163.7,14.9,164.3,16.3,164.7,17.6L164.7,17.6z"/><path class="st1" d="M242.1,18.4c4.6-4.6,11.8-6,17.9-4.4c2.4,0.7,4.9,1.8,6.2,4c1.3,2.2,0.6,4.9,0.8,7.3c-1.9,0-3.7,0.1-5.6-0.1c-1.3-0.1-2.2-1.3-2.6-2.4c-0.3-0.9-1.3-1.2-2.1-1.4c-3.3-0.8-7.1,0.6-8.9,3.6c-1.8,2.8-2,6.6-0.6,9.6c1.3,3,4.6,4.7,7.8,4.8c3.8,0.2,7.4-1.9,9.9-4.6c1.3,2.2,2.6,4.3,3.9,6.5c-6.4,7.5-19.1,8.3-26.3,1.6C235.8,36.6,235.6,24.8,242.1,18.4L242.1,18.4z"/><path class="st1" d="M315.9,18c1.9-2.3,4.6-4.2,7.7-4.6c3-0.4,6.3,0.1,8.6,2.2c1.1,0.9,1.7,2.1,2.5,3.3c2.2-3.1,5.7-5.2,9.4-5.5c3.4-0.3,7.1,0.5,9.4,3.2c2.2,2.6,2.6,6.1,2.7,9.4c0,6.9,0,13.8,0,20.7c-2.3-0.2-4.8,0.4-7.1-0.6c-1.7-0.8-2-2.9-2-4.6c0-5,0-10,0-15.1c-0.1-1.6-0.3-3.6-1.9-4.3c-2.1-0.8-4.5,0-6.1,1.5c-2,2-2.9,5-3,7.8c0,5.1,0,10.1,0,15.2c-3,0-6,0-9.1,0c0-6.4,0-12.8,0-19.2c0-1.6-0.2-3.4-1.3-4.6c-1.1-1.3-3-1.3-4.5-0.8c-2.1,0.8-3.4,2.7-4.2,4.6c-1,2.3-1.1,4.8-1.1,7.3c0,4.2,0,8.5,0,12.7c-3,0-5.9,0-8.9,0c0-10.8,0-21.7,0-32.6c2.3,0.1,4.8-0.4,7,0.7C315.2,15.4,315.6,16.8,315.9,18L315.9,18z"/><path class="st0" d="M140.7,13.9c2.3,0.1,4.7-0.3,6.9,0.4c1.7,0.6,2.5,2.4,2.5,4.1c0,9.4,0,18.8,0,28.2c-3.1,0-6.2,0-9.3,0C140.9,35.7,140.8,24.8,140.7,13.9L140.7,13.9z"/><path class="st0" d="M47.2,13.6c5.4-1,11.3,0.2,15.5,3.9c6.8,6,7.2,17.5,1.2,24.2c-6.5,7.3-19.5,7.3-25.9-0.1c-6.2-7-5.3-19.3,2.3-24.9C42.2,15.1,44.7,14.1,47.2,13.6L47.2,13.6z M48.6,21.6c-2,0.6-3.7,2.1-4.6,3.9c-2,4.2-1.2,10.1,3,12.6c3.3,1.9,8.1,1,10.2-2.3c2.3-3.6,2.1-8.7-0.6-12C54.7,21.6,51.4,20.8,48.6,21.6L48.6,21.6z"/><path class="st0" d="M83.4,13.7c4.7-0.9,9.9-0.2,13.9,2.5c3.4,2.2,5.8,5.9,6.7,9.8c1.2,5.3,0.1,11.3-3.5,15.4c-6.4,7.4-19.3,7.6-25.9,0.4c-5.9-6.4-5.7-17.5,0.5-23.6C77.3,15.8,80.3,14.3,83.4,13.7L83.4,13.7z M85.2,21.6c-2.7,0.7-4.7,3.1-5.3,5.8c-1,3.8,0,8.5,3.5,10.7c2.8,1.7,6.8,1.4,9.2-0.9c2.1-1.9,2.8-4.8,2.7-7.5c-0.1-2.6-1.1-5.2-3.2-6.8C90.2,21.3,87.5,20.9,85.2,21.6L85.2,21.6z"/><path class="st1" d="M283.2,13.6c5.4-0.9,11.3,0.3,15.3,4.1c6.6,6,7,17.5,1,24.1c-6.5,7.2-19.3,7.2-25.7,0c-5.9-6.5-5.6-17.8,0.8-23.8C277,15.6,280,14.2,283.2,13.6L283.2,13.6z M284.7,21.5c-2,0.5-3.8,2-4.7,3.8c-1.9,3.7-1.5,8.9,1.6,11.8c2.9,2.7,7.9,2.6,10.6-0.3c1.8-1.8,2.5-4.5,2.4-7c0-2.8-1.2-5.7-3.5-7.3C289.3,21.3,286.8,21,284.7,21.5L284.7,21.5z"/><path class="st0" d="M198.2,14.3c4.8-1.9,10.8-1.6,14.8,2c0.6-1.1,1.5-2,2.8-2.2c1.9-0.3,3.8-0.1,5.7-0.2c0,10,0,20,0,30c0,3.7-1.1,7.4-3.6,10.1c-3.3,3.6-8.2,5.1-13,5.2c-4.4,0.1-8.8-1-12.7-3.1c0.7-1.8,1.3-3.7,2.3-5.5c0.5-0.9,1.5-1.4,2.5-1.2c1.6,0.3,3,0.9,4.6,1.1c2.8,0.4,5.9,0.4,8.3-1.4c1.8-1.4,2.3-3.7,2.2-5.9c-3,2.5-7.1,2.9-10.8,2.3c-3.7-0.7-7.1-3-9.1-6.2c-2.7-4.3-3.2-9.7-2.2-14.6C190.9,20.3,193.8,16,198.2,14.3L198.2,14.3z M202.9,21.9c-2.1,0.8-3.3,3-3.6,5.1c-0.5,2.8-0.1,6,1.6,8.3c2.3,3.1,7.6,3.2,9.9,0.1c1.6-2.2,1.6-5.1,1.4-7.6c-0.2-2.2-1.1-4.6-3.2-5.6 C207.1,21.3,204.8,21.2,202.9,21.9L202.9,21.9z"/><path class="st0" d="M0,6.2c-0.2-2.5,2.2-4.8,4.7-4.8c3.8,0,7.7,0,11.5,0c3.8,0.1,7.8,1.2,10.4,4c4.1,4.2,3.9,11.8-0.4,15.9 c-0.5,0.5-1,0.9-1.5,1.3c2.2,1.1,4.2,2.7,5.3,4.9c2,4,1.7,9.1-0.8,12.9c-2.8,4.1-7.9,5.8-12.6,5.9c-5.5,0-11,0-16.5,0 C0,33,0,19.6,0,6.2L0,6.2z M9.6,9.6c-0.8,0.7-0.8,1.7-0.9,2.7c0,2.4,0,4.8,0,7.3c2.4,0,4.7,0,7.1,0c1.4,0,2.8-0.6,3.7-1.8 c1.7-2.3,1.6-6.2-0.8-8C17,8.6,14.8,9,12.9,8.9C11.8,8.9,10.4,8.8,9.6,9.6L9.6,9.6z M9.8,27.1c-0.9,0.6-1.1,1.8-1.1,2.8 c0,2.9,0,5.9,0,8.8c2.7,0,5.4,0,8.1,0c1.9,0,3.7-1,4.6-2.7c1.3-2.5,1.1-6.1-1.2-8c-1.8-1.5-4.4-1.4-6.7-1.4 C12.4,26.6,11,26.4,9.8,27.1L9.8,27.1z"/><path class="st1" d="M229.1,36.2c3.1-1,6.7,1.5,6.9,4.8c0.3,2.9-2,5.7-4.9,5.9c-2.9,0.4-5.7-1.9-6-4.8 C224.7,39.5,226.5,36.8,229.1,36.2L229.1,36.2z"/></g></svg>