<svg xmlns="http://www.w3.org/2000/svg" width="100" height="100" overflow="visible"><path fill="#fff" d="M19.878 99C9.469 99 1 90.531 1 80.122V2a1 1 0 0 1 1-1h78.122C90.531 1 99 9.468 99 19.877V98a1 1 0 0 1-1 1H19.878z"/><g fill="#0074a2"><path d="M80.122 2C89.98 2 98 10.02 98 19.877V98H19.878C10.02 98 2 89.98 2 80.122V2h78.122m0-2H2a2 2 0 0 0-2 2v78.122C0 91.083 8.917 100 19.878 100H98a2 2 0 0 0 2-2V19.877C100 8.917 91.083 0 80.122 0h0zM29.944 17.691h-15.31a2.961 2.961 0 0 1 0-5.922h15.31a2.961 2.961 0 1 1 0 5.922zm0 11.802h-15.31a2.961 2.961 0 1 1 0-5.922h15.31a2.961 2.961 0 1 1 0 5.922zm0 11.801h-15.31a2.961 2.961 0 1 1 0-5.922h15.31a2.961 2.961 0 1 1 0 5.922zm55.504 35.271H14.635a2.961 2.961 0 1 1 0-5.921h70.813a2.961 2.961 0 1 1 0 5.921zm0 11.802H14.635a2.961 2.961 0 1 1 0-5.922h70.813a2.961 2.961 0 1 1 0 5.922zm0-35.27h-58.97a2.961 2.961 0 1 1 0-5.921h58.97a2.96 2.96 0 0 1 2.961 2.96c0 1.634-1.326 2.961-2.961 2.961zm0 11.842h-58.97a2.961 2.961 0 1 1 0-5.921h58.97a2.961 2.961 0 1 1 0 5.921zM58.889 29.994c-.706 1.22-2.023 2.041-3.535 2.041a4.08 4.08 0 0 1-3.537-2.04l-1.188-2.062c-.706-1.22-2.026-2.042-3.538-2.042s-2.829.821-3.535 2.042l-4.18 7.239a4.08 4.08 0 0 0 3.537 6.124H84.32c1.408-.001 2.779-.732 3.534-2.041a4.08 4.08 0 0 0 .001-4.083L75.413 13.619a4.08 4.08 0 0 0-7.071.001l-9.453 16.374z"/><circle cx="47.091" cy="15.664" r="4.083"/><circle cx="14.635" cy="50.136" r="2.96"/><circle cx="14.635" cy="61.979" r="2.96"/></g></svg>