<svg xmlns="http://www.w3.org/2000/svg" width="100" height="100" overflow="visible"><path fill="#fff" d="M19.878 99C9.469 99 1 90.532 1 80.123V2a1 1 0 0 1 1-1h78.122C90.531 1 99 9.468 99 19.877V98a1 1 0 0 1-1 1H19.878z"/><path d="M80.122 2C89.98 2 98 10.021 98 19.877V98H19.878C10.02 98 2 89.981 2 80.123V2h78.122m0-2H2a2 2 0 0 0-2 2v78.123C0 91.083 8.917 100 19.878 100H98a2 2 0 0 0 2-2V19.877C100 8.917 91.083 0 80.122 0h0zM44.147 70.986h9.716L35.966 30.958h-9.147L8.976 70.986h9.493l3.565-8.576h18.561l3.552 8.576zM24.961 55.375l6.371-15.32 6.348 15.32H24.961zm54.581-26.818v14.888c-.711-.778-1.508-1.438-2.402-1.965-1.944-1.14-4.216-1.712-6.808-1.712-2.894 0-5.51.646-7.832 1.945-2.326 1.292-4.165 3.122-5.519 5.485s-2.029 5.166-2.029 8.409c0 3.201.675 5.984 2.029 8.347s3.192 4.204 5.519 5.516c2.322 1.317 4.938 1.974 7.832 1.974 2.708 0 5.021-.573 6.947-1.713 1.012-.602 1.897-1.374 2.661-2.307v3.562h8.521V28.557h-8.919zm-.89 31.591c-.707 1.281-1.647 2.262-2.83 2.946s-2.498 1.028-3.945 1.028c-1.484 0-2.821-.34-4.001-1.028s-2.128-1.665-2.83-2.946c-.708-1.274-1.061-2.792-1.061-4.541 0-1.791.353-3.318 1.061-4.579.702-1.256 1.646-2.229 2.83-2.913 1.18-.689 2.517-1.029 4.001-1.029 1.447 0 2.765.34 3.945 1.029s2.123 1.657 2.83 2.913c.708 1.261 1.056 2.788 1.056 4.579 0 1.749-.348 3.267-1.056 4.541z" fill="#0074a2"/></svg>