<svg xmlns="http://www.w3.org/2000/svg" width="100" height="100" overflow="visible"><path fill="#fff" d="M19.878 99C9.469 99 1 90.531 1 80.122V2a1 1 0 0 1 1-1h78.122C90.531 1 99 9.468 99 19.877V98a1 1 0 0 1-1 1H19.878z"/><path d="M80.122 2C89.98 2 98 10.02 98 19.877V98H19.878C10.02 98 2 89.98 2 80.122V2h78.122m0-2H2a2 2 0 0 0-2 2v78.122C0 91.083 8.917 100 19.878 100H98a2 2 0 0 0 2-2V19.877C100 8.917 91.083 0 80.122 0h0zm6.102 54.934L54.935 86.223c-2.854 2.854-7.486 2.854-10.341 0s-2.854-7.484 0-10.339l31.294-31.292c2.854-2.854 7.485-2.854 10.34 0s2.854 7.484-.004 10.342h0z" fill="#0074a2"/><circle fill="#3390b5" cx="49.763" cy="81.054" r="7.313"/><path fill="#0074a2" d="M60.477 29.184L44.828 44.828l10.34 10.34 15.649-15.645c2.854-2.855 2.854-7.485 0-10.339a7.31 7.31 0 0 0-10.34 0h0z"/><path fill="#66acc7" d="M39.523 70.815L55.168 55.17l-10.34-10.339-15.643 15.646c-2.854 2.855-2.854 7.484 0 10.339a7.31 7.31 0 0 0 10.338-.001h0z"/><circle fill="#3390b5" cx="50.034" cy="49.964" r="7.313"/><path fill="#66acc7" d="M55.406 24.113L24.112 55.405c-2.854 2.854-7.485 2.854-10.338 0s-2.855-7.485 0-10.339l31.291-31.293c2.854-2.854 7.486-2.854 10.341 0a7.31 7.31 0 0 1 0 10.34h0z"/><circle fill="#3390b5" cx="50.235" cy="18.944" r="7.312"/></svg>