<svg xmlns="http://www.w3.org/2000/svg" width="100" height="100" overflow="visible"><path fill="#fff" d="M19.878 99C9.469 99 1 90.531 1 80.121V2a1 1 0 0 1 1-1h78.122C90.531 1 99 9.468 99 19.876V98a1 1 0 0 1-1 1H19.878z"/><path d="M80.122 2C89.98 2 98 10.019 98 19.876V98H19.878C10.02 98 2 89.979 2 80.121V2h78.122m0-2H2a2 2 0 0 0-2 2v78.121C0 91.082 8.917 100 19.878 100H98a2 2 0 0 0 2-2V19.876C100 8.917 91.083 0 80.122 0h0zm7.343 24.343a2.96 2.96 0 0 0-2.094-.868l-39.13.001v-8.883a2.96 2.96 0 0 0-2.961-2.961H14.56a2.96 2.96 0 0 0-2.961 2.961v70.812a2.96 2.96 0 0 0 2.961 2.961h70.812a2.96 2.96 0 0 0 2.961-2.961v-58.97a2.96 2.96 0 0 0-.868-2.092zM46.232 78.035a.74.74 0 0 1-.74.74h-17.64a.74.74 0 0 1-.739-.74v-17.64a.74.74 0 0 1 .739-.74h8.821a.74.74 0 0 1 .741.74v2.211h8.078a.74.74 0 0 1 .74.739v14.69zm0-26.587a.74.74 0 0 1-.74.74h-17.64a.74.74 0 0 1-.739-.74v-17.64a.74.74 0 0 1 .739-.74h8.821a.74.74 0 0 1 .741.74v2.212l8.078-.002a.74.74 0 0 1 .74.74v14.69zM72.82 78.035a.74.74 0 0 1-.739.74H54.44a.74.74 0 0 1-.74-.74v-17.64a.74.74 0 0 1 .74-.74h8.819a.74.74 0 0 1 .74.74v2.211h8.081a.74.74 0 0 1 .739.739v14.69zm0-26.587a.74.74 0 0 1-.739.74H54.44a.74.74 0 0 1-.74-.74v-17.64a.74.74 0 0 1 .74-.74h8.819a.74.74 0 0 1 .74.74v2.212l8.081-.002a.74.74 0 0 1 .739.74v14.69z" fill="#0074a2"/></svg>