<svg xmlns="http://www.w3.org/2000/svg" width="100" height="100" overflow="visible"><path fill="#fff" d="M19.878 99C9.469 99 1 90.531 1 80.122V2a1 1 0 0 1 1-1h78.122C90.531 1 99 9.468 99 19.877V98a1 1 0 0 1-1 1H19.878z"/><path d="M80.122 2C89.98 2 98 10.02 98 19.877V98H19.878C10.02 98 2 89.98 2 80.122V2h78.122m0-2H2a2 2 0 0 0-2 2v78.122C0 91.083 8.917 100 19.878 100H98a2 2 0 0 0 2-2V19.877C100 8.917 91.083 0 80.122 0h0zM42.639 55.506a6.31 6.31 0 0 1-5.473 3.157 6.32 6.32 0 0 1-5.473-3.155l-1.84-3.193c-1.094-1.889-3.138-3.16-5.477-3.16s-4.38 1.269-5.474 3.16l-6.47 11.204c-1.088 1.891-1.17 4.295.002 6.32a6.32 6.32 0 0 0 5.474 3.159h64.093c2.181-.003 4.303-1.136 5.473-3.159s1.089-4.43.002-6.32L68.215 30.161c-1.091-1.887-3.132-3.158-5.471-3.158a6.32 6.32 0 0 0-5.475 3.159l-14.63 25.344zM30.482 31.689c.904 3.372-1.099 6.835-4.468 7.736-3.37.906-6.835-1.094-7.739-4.465a6.32 6.32 0 0 1 4.467-7.737c3.374-.907 6.838 1.094 7.74 4.466z" fill="#0074a2"/></svg>