<svg xmlns="http://www.w3.org/2000/svg" width="100" height="100" overflow="visible"><path fill="#fff" d="M19.875 99C9.467 99 1 90.532 1 80.125V2a1 1 0 0 1 1-1h78.125C90.532 1 99 9.467 99 19.875V98a1 1 0 0 1-1 1H19.875z"/><path d="M80.125 2C89.984 2 98 10.016 98 19.875V98H19.875C10.016 98 2 89.977 2 80.125V2h78.125m0-2H2a2 2 0 0 0-2 2v78.125C0 91.084 8.916 100 19.875 100H98a2 2 0 0 0 2-2V19.875C100 8.916 91.084 0 80.125 0h0zM32.227 62.234a3.02 3.02 0 0 1-1.523-.414l-15.906-9.172c-.945-.547-1.531-1.555-1.531-2.648a3.06 3.06 0 0 1 1.531-2.648l15.906-9.18a3.06 3.06 0 0 1 4.18 1.125c.844 1.461.344 3.328-1.117 4.172L22.445 50l11.32 6.523c1.461.852 1.961 2.719 1.117 4.18-.562.985-1.593 1.531-2.655 1.531zm35.539 0c-1.055 0-2.086-.547-2.648-1.531a3.05 3.05 0 0 1 1.117-4.18L77.547 50l-11.312-6.531a3.04 3.04 0 0 1-1.117-4.172c.844-1.469 2.711-1.969 4.18-1.125l15.906 9.18c.945.547 1.531 1.555 1.531 2.648a3.06 3.06 0 0 1-1.531 2.648L69.297 61.82c-.485.282-1.008.414-1.531.414zm-26.188 5.391c-.516 0-1.047-.133-1.531-.406-1.461-.844-1.961-2.719-1.117-4.18l16.836-29.133a3.06 3.06 0 0 1 4.18-1.125c1.461.844 1.969 2.719 1.125 4.18L44.234 66.094c-.57.984-1.593 1.531-2.656 1.531z" fill="#0074a2"/></svg>