<svg id="Ken_Icon" data-name="Ken Icon" xmlns="http://www.w3.org/2000/svg" xmlns:xlink="http://www.w3.org/1999/xlink" viewBox="0 0 800 800"><defs><style>.cls-1{fill:url(#linear-gradient);}.cls-2{opacity:0.07;}.cls-3{fill:#fff;}.cls-4{fill:#01767b;}.cls-5{fill:#bed3d2;}</style><linearGradient id="linear-gradient" x1="398.05" y1="5.13" x2="402.01" y2="807.13" gradientTransform="matrix(1, 0, 0, -1, 0, 799.54)" gradientUnits="userSpaceOnUse"><stop offset="0" stop-color="#01949a"/><stop offset="0.52" stop-color="#01b0a3"/><stop offset="1" stop-color="#00cdac"/></linearGradient></defs><title>AlertBox</title><g id="Alert_Box" data-name="Alert Box"><rect id="bg" class="cls-1" width="800" height="800"/><g id="Shadow" class="cls-2"><rect x="162.91" y="306.39" width="468.5" height="203.52" rx="21.51"/><path d="M628.27,280.28l-11.1-11.1a3.54,3.54,0,0,1,0-5l11.1-11.1a3.52,3.52,0,0,0,0-5l-8.35-8.35a3.51,3.51,0,0,0-5,0l-11.11,11.1a3.51,3.51,0,0,1-5,0l-11.1-11.1a3.52,3.52,0,0,0-5,0l-8.35,8.35a3.52,3.52,0,0,0,0,5l11.1,11.1a3.52,3.52,0,0,1,0,5l-11.1,11.1a3.51,3.51,0,0,0,0,5l8.35,8.35a3.52,3.52,0,0,0,5,0l11.1-11.1a3.53,3.53,0,0,1,5,0l11.11,11.1a3.51,3.51,0,0,0,5,0l8.35-8.35A3.51,3.51,0,0,0,628.27,280.28Z" transform="translate(0 -0.46)"/></g><rect class="cls-3" x="169.91" y="299.39" width="468.5" height="203.52" rx="21.51"/><path class="cls-3" d="M635.27,273.28l-11.1-11.1a3.54,3.54,0,0,1,0-5l11.1-11.1a3.52,3.52,0,0,0,0-5l-8.35-8.35a3.51,3.51,0,0,0-5,0l-11.11,11.1a3.51,3.51,0,0,1-5,0l-11.1-11.1a3.52,3.52,0,0,0-5,0l-8.35,8.35a3.52,3.52,0,0,0,0,5l11.1,11.1a3.52,3.52,0,0,1,0,5l-11.1,11.1a3.51,3.51,0,0,0,0,5l8.35,8.35a3.52,3.52,0,0,0,5,0l11.1-11.1a3.53,3.53,0,0,1,5,0l11.11,11.1a3.51,3.51,0,0,0,5,0l8.35-8.35A3.51,3.51,0,0,0,635.27,273.28Z" transform="translate(0 -0.46)"/><path class="cls-4" d="M258.84,356l-50.63,87.7a8.45,8.45,0,0,0,7.32,12.67H316.8a8.44,8.44,0,0,0,7.31-12.67L273.48,356A8.45,8.45,0,0,0,258.84,356Z" transform="translate(0 -0.46)"/><path class="cls-3" d="M266.18,421.4h0a6,6,0,0,1-6-5.47l-2.58-27.17a6,6,0,0,1,6-6.61h5.12a6,6,0,0,1,6,6.6l-2.53,27.17A6,6,0,0,1,266.18,421.4Z" transform="translate(0 -0.46)"/><circle class="cls-3" cx="266.31" cy="434.06" r="6.06"/><rect class="cls-4" x="351.87" y="354.49" width="127.89" height="33.72" rx="6.36"/><rect class="cls-5" x="351.87" y="403.87" width="239.56" height="17.91" rx="6.36"/><rect class="cls-5" x="351.87" y="431.54" width="205.3" height="17.91" rx="6.36"/></g></svg>