<svg width="30" height="28" viewBox="0 0 30 28" fill="none" xmlns="http://www.w3.org/2000/svg">
<path d="M15.1772 27.6666C13.9856 27.3793 12.7742 27.1566 11.6073 26.7892C9.93887 26.2643 8.49241 25.3146 7.18362 24.1523C6.3718 23.4324 6.24509 22.6279 6.83702 21.9504C7.41905 21.2842 8.2351 21.3066 9.05222 22.0119C14.8334 27.0005 23.4948 24.9874 26.218 17.9324C27.8737 13.6427 27.0796 9.64965 23.8757 6.37325C20.6238 3.04919 16.6106 2.20129 12.3055 3.90244C8.1525 5.54349 5.9073 8.78965 5.52115 13.2945C5.50492 13.4844 5.51903 13.6772 5.51903 13.9475C5.91294 13.9475 6.25568 13.9166 6.59065 13.9546C7.19492 14.0229 7.50553 14.5884 7.16704 15.0928C6.35099 16.3056 5.50599 17.5006 4.62287 18.6647C4.2699 19.1289 3.77574 19.0762 3.43195 18.6103C2.59437 17.4722 1.77056 16.3248 0.982036 15.1529C0.59201 14.5735 0.91144 14.0055 1.61455 13.9497C1.92939 13.9248 2.24777 13.9454 2.46378 13.9454C2.7571 12.4825 2.91345 11.0645 3.3303 9.73216C5.20843 3.72638 10.9296 -0.193779 17.1143 0.296685C23.7896 0.826628 28.8225 5.64484 29.7014 12.1048C29.7243 12.2738 29.7907 12.4363 29.8369 12.6027V15.2877C29.7907 15.4527 29.7275 15.6149 29.7007 15.7831C28.8941 20.8571 26.1777 24.4895 21.5002 26.5221C20.1678 27.1008 18.6716 27.2968 17.2502 27.6681L15.1772 27.6666Z" fill="#007FFF"/>
<path d="M17.0983 20.1536C16.9925 20.9361 17.3151 21.9422 16.1298 22.124C15.4747 22.2243 15.2368 21.7918 15.0272 20.287C14.3565 20.1547 13.6781 20.0508 13.0153 19.8808C12.1706 19.6642 11.7866 19.0706 11.9736 18.3674C12.1748 17.6109 12.7654 17.3876 13.6802 17.5707C14.4953 17.7356 15.324 17.8223 16.1552 17.8297C16.7994 17.8332 17.3938 17.5341 17.5223 16.8082C17.6529 16.0688 17.1386 15.6701 16.5629 15.3831C16.146 15.1739 15.6957 15.0334 15.2689 14.8424C14.6629 14.5714 14.0272 14.3445 13.4688 13.9906C11.2352 12.5786 11.3034 9.59245 13.5934 8.26261C14.0759 7.98235 14.6216 7.81233 15.1793 7.57368C15.2471 6.85453 15.012 5.89922 16.1506 5.75268C16.7747 5.6723 17.0016 6.06139 17.2409 7.45738C17.7884 7.5559 18.35 7.62028 18.8914 7.76326C19.6182 7.95496 19.9553 8.56564 19.7657 9.23856C19.5931 9.85137 19.0104 10.1203 18.2917 10.0032C17.5914 9.88943 16.8777 9.78984 16.1715 9.80016C15.5915 9.80727 15.0268 10.032 14.9008 10.7185C14.7843 11.353 15.2336 11.6863 15.7087 11.9135C16.6617 12.3706 17.6673 12.7266 18.603 13.2153C20.2419 14.0689 20.8779 15.4378 20.5091 17.16C20.262 18.3095 19.5518 19.1019 18.5257 19.6066C18.0895 19.8221 17.6137 19.9594 17.0983 20.1536Z" fill="#007FFF"/>
</svg>
