<svg width="31" height="30" viewBox="0 0 31 30" fill="none" xmlns="http://www.w3.org/2000/svg">
<path d="M5.7107 13.877C5.67788 14.1806 5.63362 14.4641 5.6165 14.7477C5.47089 16.9206 5.98068 19.0871 7.0795 20.9653C7.99843 22.5629 9.31374 23.8949 10.8976 24.8316C12.2839 25.6608 13.8408 26.1614 15.4493 26.2951C17.673 26.4942 19.9022 25.9792 21.8151 24.8245C23.459 23.8572 24.8262 22.4805 25.7845 20.8278C26.4282 19.7324 26.8293 18.5453 27.1547 17.3267C27.2875 16.8255 27.5201 16.7009 28.0111 16.8398C28.7562 17.0503 29.5027 17.2551 30.2463 17.4684C30.6288 17.5787 30.7658 17.8221 30.6745 18.1973C30.2021 20.0975 29.4941 21.8946 28.3737 23.5113C26.3469 26.434 23.6564 28.4674 20.2379 29.4197C15.5121 30.7342 11.1845 29.8034 7.34783 26.7705C4.69017 24.6684 3.03448 21.8861 2.29228 18.5696C1.88541 16.7756 1.84124 14.918 2.16238 13.1066C2.19521 12.9219 2.13955 12.856 1.96541 12.8116C1.46728 12.6842 0.974862 12.5367 0.482437 12.3949C-0.0442437 12.2446 -0.155576 11.8107 0.239791 11.4226C1.91737 9.77108 3.59732 8.12144 5.27965 6.47372C5.65075 6.10999 6.09322 6.22312 6.22168 6.72144C6.81639 9.02501 7.40683 11.3305 7.99298 13.6379C8.11573 14.1176 7.77888 14.4341 7.29502 14.3052C6.85684 14.1878 6.42008 14.0603 5.98189 13.9386C5.90339 13.9157 5.81918 13.9014 5.7107 13.877Z" fill="#007FFF" stroke="white" stroke-width="0.25"/>
<path d="M15.3779 0.976363C15.7818 0.962043 15.9873 1.14534 16.0259 1.54915C16.1001 2.3482 16.1762 3.14676 16.2543 3.94485C16.2971 4.37444 16.1115 4.61931 15.6748 4.66083C15.4735 4.68088 15.2723 4.70378 15.071 4.71523C14.6999 4.73814 14.4772 4.58206 14.4373 4.21834C14.3421 3.35343 14.2612 2.48757 14.1946 1.62075C14.1689 1.28997 14.3645 1.08948 14.6999 1.03793H14.7499L15.3779 0.976363Z" fill="#007FFF" stroke="white" stroke-width="0.25"/>
<path d="M27.0933 13.7468C27.0933 13.353 27.226 13.1554 27.5628 13.1052C28.4192 12.9811 29.2756 12.868 30.132 12.7659C30.2015 12.7546 30.2725 12.7578 30.3407 12.7753C30.4088 12.7929 30.4726 12.8243 30.5281 12.8677C30.5836 12.9111 30.6295 12.9656 30.663 13.0277C30.6966 13.0897 30.717 13.1581 30.7229 13.2284C30.7667 13.469 30.8009 13.711 30.8257 13.9544C30.8585 14.3081 30.7044 14.5272 30.3532 14.5845C29.5054 14.7086 28.6552 14.8212 27.8026 14.9224C27.4529 14.9639 27.2417 14.7936 27.1775 14.4413C27.1389 14.1936 27.1175 13.9401 27.0933 13.7468Z" fill="#007FFF" stroke="white" stroke-width="0.25"/>
<path d="M10.7946 6.13157C10.6648 6.02847 10.4692 5.94254 10.3878 5.79361C9.96964 5.03323 9.57428 4.25998 9.18462 3.48385C9.14825 3.42367 9.12484 3.35651 9.11591 3.28671C9.10697 3.2169 9.11271 3.146 9.13274 3.07855C9.15277 3.01111 9.18666 2.94859 9.23223 2.89508C9.27779 2.84157 9.33402 2.79825 9.39729 2.76786C9.62782 2.63048 9.86611 2.50664 10.1109 2.39697C10.1686 2.36445 10.2324 2.34421 10.2982 2.33747C10.3641 2.33072 10.4306 2.33763 10.4936 2.35778C10.5567 2.37792 10.6149 2.41085 10.6647 2.45455C10.7146 2.49824 10.7549 2.55176 10.7832 2.61176C11.2014 3.39219 11.6125 4.17548 11.9964 4.97309C12.0302 5.05609 12.0444 5.14581 12.038 5.23522C12.0315 5.32463 12.0046 5.41134 11.9593 5.48862C11.6781 5.8194 11.2571 5.94685 10.7946 6.13157Z" fill="#007FFF" stroke="white" stroke-width="0.25"/>
<path d="M29.3384 9.00152C29.23 9.14472 29.1457 9.32799 28.9987 9.41534C28.2622 9.85496 27.5129 10.2745 26.7593 10.687C26.7012 10.7253 26.6358 10.751 26.5672 10.7623C26.4987 10.7737 26.4285 10.7705 26.3612 10.753C26.2939 10.7354 26.2311 10.7039 26.1767 10.6605C26.1224 10.617 26.0777 10.5626 26.0456 10.5008C25.8996 10.274 25.7671 10.0387 25.6488 9.79624C25.6143 9.73954 25.5917 9.67636 25.5826 9.61056C25.5734 9.54477 25.5777 9.47777 25.5954 9.41374C25.6131 9.34971 25.6436 9.29 25.6852 9.23831C25.7268 9.18661 25.7786 9.14405 25.8372 9.11322C26.608 8.66215 27.383 8.22108 28.1709 7.80437C28.2492 7.77023 28.3344 7.7549 28.4196 7.75963C28.5048 7.76435 28.5878 7.78899 28.6619 7.83157C28.9945 8.11797 29.1586 8.52467 29.3384 9.00152Z" fill="#007FFF" stroke="white" stroke-width="0.25"/>
<path d="M26.0015 4.75569C25.9464 4.89555 25.878 5.02981 25.7974 5.15665C25.2788 5.82491 24.7555 6.48554 24.2274 7.13852C24.1871 7.19914 24.1345 7.25046 24.073 7.28913C24.0114 7.3278 23.9424 7.35291 23.8705 7.36279C23.7986 7.37267 23.7254 7.36711 23.6557 7.34646C23.5861 7.32582 23.5216 7.29058 23.4666 7.24305C23.2536 7.09142 23.0496 6.92743 22.8557 6.75189C22.7991 6.71003 22.7518 6.65659 22.7172 6.59513C22.6825 6.53368 22.6612 6.46557 22.6545 6.39526C22.6479 6.32496 22.6562 6.25405 22.6788 6.18718C22.7015 6.12031 22.7379 6.05899 22.7858 6.00724C23.3139 5.32848 23.8487 4.655 24.3901 3.98674C24.6156 3.7118 24.8868 3.68744 25.1708 3.89508C25.3715 4.03594 25.5623 4.19048 25.7418 4.3576C25.8419 4.48089 25.929 4.61431 26.0015 4.75569Z" fill="#007FFF" stroke="white" stroke-width="0.25"/>
<path d="M21.3013 2.23398C21.2599 2.37718 21.2057 2.57049 21.1486 2.76381C20.9559 3.41965 20.7675 4.07549 20.5662 4.72847C20.4235 5.17238 20.2022 5.28981 19.7626 5.15806C19.5528 5.09649 19.3344 5.04349 19.1346 4.9676C18.8277 4.85447 18.6964 4.62538 18.7864 4.30748C19.0233 3.46357 19.2716 2.62298 19.5314 1.78576C19.548 1.72148 19.5773 1.66125 19.6178 1.60868C19.6582 1.55611 19.7088 1.51231 19.7666 1.47992C19.8243 1.44753 19.888 1.4272 19.9538 1.42021C20.0197 1.41322 20.0862 1.4197 20.1494 1.43923C20.419 1.50216 20.6849 1.58006 20.9459 1.67262C21.1757 1.75568 21.297 1.92754 21.3013 2.23398Z" fill="#007FFF" stroke="white" stroke-width="0.25"/>
<path d="M15.4879 16.3247C16.565 17.401 17.813 18.431 18.3063 17.9378C19.0119 17.2323 19.4474 16.6173 21.0043 17.8684C22.5605 19.1188 21.3649 19.9528 20.6811 20.6359C19.8917 21.425 16.9495 20.678 14.0412 17.7711C11.1337 14.8634 10.3886 11.9218 11.1786 11.1326C11.8625 10.4482 12.6926 9.2536 13.9433 10.8095C15.1946 12.3653 14.5802 12.8007 13.8732 13.5069C13.3819 14.0001 14.4114 15.2478 15.4879 16.3247Z" fill="#007FFF" stroke="#007FFF" stroke-width="0.5"/>
</svg>
