<svg width="158" height="158" viewBox="0 0 158 158" fill="none" xmlns="http://www.w3.org/2000/svg">
<g clip-path="url(#clip0_404_210)">
<rect width="158" height="158" rx="20" fill="white"/>
<path d="M163.74 -5.9436H-6.76434V164.561H163.74V-5.9436Z" fill="white"/>
<path d="M264.851 226.121V195.249V47.065C264.851 21.49 267.511 0.757407 250.352 0.757407L30.2824 -3.10156C3.35616 -3.10156 -13.1428 4.61638 -3.37536 46.2932L-0.268441 349.608C-2.85755 408.265 13.6415 395.916 30.8002 395.916H128.149H136.951C154.11 395.916 168.02 375.183 168.02 349.608V318.736C168.02 293.161 181.93 272.429 199.089 272.429H216.436H233.782C250.941 272.429 264.851 251.696 264.851 226.121Z" fill="url(#paint0_radial_404_210)"/>
<g opacity="0.2">
<path opacity="0.2" d="M67.0327 81.043C67.0327 81.043 66.8414 84.7461 71.0259 85.9311C71.1842 85.9755 71.3449 86.0106 71.5073 86.036C73.4083 86.3755 85.9372 88.6035 85.9372 88.3196V84.2462H71.3592C71.3592 84.2462 67.724 84.1227 67.0327 81.043Z" fill="black"/>
</g>
<path d="M109.017 104.957H65.4022C64.6852 104.957 63.9753 104.816 63.3129 104.541C62.6506 104.267 62.0489 103.864 61.5423 103.357C61.0356 102.85 60.6339 102.247 60.3602 101.585C60.0864 100.922 59.946 100.212 59.9469 99.495V39.0853C59.946 38.3683 60.0864 37.6582 60.3602 36.9955C60.6339 36.3328 61.0356 35.7306 61.5423 35.2233C62.0489 34.716 62.6506 34.3136 63.3129 34.039C63.9753 33.7644 64.6852 33.623 65.4022 33.623H93.094L114.521 55.7073V99.495C114.521 100.216 114.378 100.929 114.101 101.595C113.824 102.26 113.418 102.864 112.906 103.372C112.394 103.88 111.787 104.281 111.12 104.553C110.452 104.825 109.738 104.963 109.017 104.957V104.957Z" fill="#37B0FF"/>
<path d="M93.0525 33.623V50.6535C93.0525 52.0012 93.5879 53.2937 94.5408 54.2466C95.4938 55.1996 96.7863 55.735 98.1339 55.735H114.479L93.0525 33.623Z" fill="#7DD1FF"/>
<path d="M89.3913 49.6706C89.3913 49.8852 84.8706 50.0652 79.2976 50.0652C73.7246 50.0652 69.2109 49.8575 69.2109 49.6706C69.2109 49.4837 73.7316 49.269 79.3115 49.269C84.8914 49.269 89.3913 49.4213 89.3913 49.6706Z" fill="#FAFAFA"/>
<path d="M102.44 59.252C102.44 59.4736 94.9976 59.6466 85.8247 59.6466C76.6518 59.6466 69.2096 59.4736 69.2096 59.252C69.2096 59.0305 76.6518 58.8574 85.8247 58.8574C94.9976 58.8574 102.44 59.0374 102.44 59.252Z" fill="#FAFAFA"/>
<path d="M105.444 67.3726C105.444 67.5873 97.3306 67.7673 87.327 67.7673C77.3233 67.7673 69.2096 67.5873 69.2096 67.3726C69.2096 67.158 77.3233 66.978 87.327 66.978C97.3306 66.978 105.444 67.1511 105.444 67.3726Z" fill="#FAFAFA"/>
<path d="M105.43 74.8563C105.43 75.0709 97.3168 75.2509 87.3131 75.2509C77.3094 75.2509 69.1957 75.0709 69.1957 74.8563C69.1957 74.6417 77.3094 74.4617 87.3131 74.4617C97.3168 74.4617 105.43 74.6347 105.43 74.8563Z" fill="#FAFAFA"/>
<path d="M105.43 82.43C105.43 82.6446 97.3168 82.8246 87.3131 82.8246C77.3094 82.8246 69.1957 82.6515 69.1957 82.43C69.1957 82.2085 77.3094 82.0354 87.3131 82.0354C97.3168 82.0354 105.43 82.2085 105.43 82.43Z" fill="#FAFAFA"/>
<path d="M105.43 90.0037C105.43 90.2253 97.3168 90.3983 87.3131 90.3983C77.3094 90.3983 69.1957 90.2253 69.1957 90.0037C69.1957 89.7822 77.3094 89.6091 87.3131 89.6091C97.3168 89.6091 105.43 89.7822 105.43 90.0037Z" fill="#FAFAFA"/>
<path d="M49.1331 39.5767L41.5179 46.4564H46.1168V56.1918H48.9597H49.3066H52.1495V46.4564H56.7484L49.1331 39.5767Z" fill="#37B0FF"/>
<path d="M126.077 23.4531L114.308 34.0594H121.416V55.4585H125.809H126.345H130.739V34.0594H137.846L126.077 23.4531Z" fill="#E3FAFC"/>
<path d="M70.0612 129.575H26.4466C25.7296 129.576 25.0195 129.435 24.3568 129.162C23.6941 128.888 23.0919 128.486 22.5846 127.98C22.0773 127.473 21.6749 126.871 21.4003 126.209C21.1257 125.547 20.9844 124.837 20.9844 124.12V63.71C20.9898 62.2709 21.563 60.8921 22.5793 59.8732C23.5956 58.8543 24.9729 58.2777 26.412 58.2686H54.1038L75.565 80.3528V124.147C75.5613 124.866 75.416 125.576 75.1372 126.238C74.8583 126.9 74.4516 127.5 73.9402 128.004C73.4289 128.508 72.823 128.907 72.1574 129.176C71.4917 129.446 70.7794 129.581 70.0612 129.575V129.575Z" fill="#E3FAFC"/>
<path d="M49.2523 77.3622C49.2523 77.5768 44.7316 77.7568 39.1586 77.7568C33.5856 77.7568 29.0718 77.5491 29.0718 77.3622C29.0718 77.1753 33.5925 76.9607 39.1724 76.9607C44.7523 76.9607 49.2523 77.113 49.2523 77.3622Z" fill="#172AB3"/>
<path d="M62.3009 86.9437C62.3009 87.1652 54.8587 87.3383 45.6858 87.3383C36.5129 87.3383 29.0707 87.1652 29.0707 86.9437C29.0707 86.7221 36.5129 86.5491 45.6858 86.5491C54.8587 86.5491 62.3009 86.7291 62.3009 86.9437Z" fill="#172AB3"/>
<path d="M65.3054 95.0643C65.3054 95.2789 57.1917 95.4589 47.1881 95.4589C37.1844 95.4589 29.0707 95.2789 29.0707 95.0643C29.0707 94.8497 37.1844 94.6697 47.1881 94.6697C57.1917 94.6697 65.3054 94.8428 65.3054 95.0643Z" fill="#172AB3"/>
<path d="M65.2914 102.548C65.2914 102.763 57.1777 102.943 47.174 102.943C37.1703 102.943 29.0566 102.763 29.0566 102.548C29.0566 102.333 37.1703 102.153 47.174 102.153C57.1777 102.153 65.2914 102.326 65.2914 102.548Z" fill="#172AB3"/>
<path d="M65.2914 110.122C65.2914 110.336 57.1777 110.516 47.174 110.516C37.1703 110.516 29.0566 110.343 29.0566 110.122C29.0566 109.9 37.1703 109.727 47.174 109.727C57.1777 109.727 65.2914 109.9 65.2914 110.122Z" fill="#172AB3"/>
<path d="M65.2914 117.695C65.2914 117.917 57.1777 118.09 47.174 118.09C37.1703 118.09 29.0566 117.917 29.0566 117.695C29.0566 117.474 37.1703 117.301 47.174 117.301C57.1777 117.301 65.2914 117.474 65.2914 117.695Z" fill="#172AB3"/>
<path d="M54.2008 58.2686V75.2713C54.2008 76.619 54.7362 77.9115 55.6891 78.8645C56.6421 79.8174 57.9346 80.3528 59.2823 80.3528H75.6274L54.2008 58.2686Z" fill="#C5EAFF"/>
</g>
<defs>
<radialGradient id="paint0_radial_404_210" cx="0" cy="0" r="1" gradientUnits="userSpaceOnUse" gradientTransform="translate(118 133) rotate(88.9292) scale(160.528 143.48)">
<stop stop-color="#6870B9"/>
<stop offset="1" stop-color="#172AB3"/>
</radialGradient>
<clipPath id="clip0_404_210">
<rect width="158" height="158" rx="20" fill="white"/>
</clipPath>
</defs>
</svg>
