<?xml version="1.0" encoding="utf-8"?>
<!-- Generator: Adobe Illustrator 25.2.0, SVG Export Plug-In . SVG Version: 6.00 Build 0)  -->
<svg version="1.1" id="Calque_1" xmlns="http://www.w3.org/2000/svg" xmlns:xlink="http://www.w3.org/1999/xlink" x="0px" y="0px"
	 width="17px" height="20px" viewBox="0 0 17 20" style="enable-background:new 0 0 17 20;" xml:space="preserve">
<style type="text/css">
	.st0{fill:#1D1D1B;}
	.st1{fill:#1D2327;}
</style>
<g>
	<path class="st0" d="M17,2.2C17,1,16,0,14.8,0c-2,0-4.1,0-6.1,0C8.2,0,8.5,0.9,8.4,1.3c0,0.2,0.1,0.4,0.4,0.4c1.9,0,3.9,0,5.9,0
		c0.5,0,0.7,0.2,0.7,0.7c0,0,0,15.2,0,15.2c0,0.4-0.2,0.7-0.6,0.7c-2.1,0.1-4.3-0.2-6.3,0.1c-0.2,0.4,0,0.8-0.1,1.2
		c0,0.1,0,0.2,0.1,0.3c1.5,0.3,3.1,0,4.6,0.1c0,0,1.7,0,1.7,0c1.3,0,2.3-1,2.3-2.3C17,13.9,17,5.9,17,2.2z"/>
	<path class="st1" d="M8.8,14.5c1.1-1.1,2.3-2.3,3.4-3.4c0.6-0.6,0.6-1.6,0-2.2c-0.7-0.7-1.4-1.4-2.1-2.1c-0.5-0.4-1-1.2-1.6-1.5
		c-0.1,0-0.2,0.1-0.3,0.1C8,5.8,7,6.3,7.5,6.8c0.7,0.8,1.5,1.5,2.3,2.3c-3.1,0-6.3,0-9.4,0C-0.2,9,0,9.7,0,10.1
		c0,0.4-0.1,0.8,0.5,0.8c0,0,9.3,0,9.3,0c-0.7,0.8-2,1.8-2.4,2.6c0.1,0.4,0.6,0.7,0.9,1c0.1,0.1,0.1,0.1,0.3,0.1
		C8.7,14.7,8.7,14.6,8.8,14.5z"/>
</g>
</svg>
