<?xml version="1.0" encoding="utf-8"?>
<!-- Generator: Adobe Illustrator 25.2.0, SVG Export Plug-In . SVG Version: 6.00 Build 0)  -->
<svg version="1.1" id="Calque_1" xmlns="http://www.w3.org/2000/svg" xmlns:xlink="http://www.w3.org/1999/xlink" x="0px" y="0px"
	 width="24px" height="24px" viewBox="0 0 24 24" style="enable-background:new 0 0 24 24;" xml:space="preserve">
<style type="text/css">
	.st0{opacity:0.6;fill:#FFFFFF;}
	.st1{fill:#FFFFFF;}
</style>
<path class="st0" d="M9.7,3.7c-0.4,6.7-6.4,6.1-6.4-0.3C3.3-0.2,10.2,0,9.7,3.7z"/>
<path class="st0" d="M7.9,13.8c0-1.2,0.5-2.5,2-2.7c0-0.1,0-1.1,0-1.1S9.8,9.8,8.3,9.5c-1.8-0.3-3.2-0.1-3.6,0
	C0.5,10.9,0.2,10.1,0,15c0,0.2,0,0.3,0.2,0.4c3,1.5,4.5,1.5,7.8,1L7.9,13.8z"/>
<path class="st1" d="M22.3,12.7h-0.4v-2.1c0-2.6-2.2-4.6-4.8-4.4c-2.4,0-4.4,2-4.4,4.4v2.1c-1.1-0.1-2.1,0.6-2.1,1.7
	c0,0,0,7.1,0,7.1c0,0.9,0.8,1.7,1.7,1.7h10c0.9,0,1.7-0.8,1.7-1.7v-7.1C24,13.5,23.2,12.7,22.3,12.7z M15,10.7
	c0-1.4,1.2-2.3,2.5-2.1c1.2,0,2.1,0.9,2.1,2.1v2.1H15V10.7z"/>
</svg>
