<?xml version="1.0" encoding="utf-8"?>
<!-- Generator: Adobe Illustrator 25.2.0, SVG Export Plug-In . SVG Version: 6.00 Build 0)  -->
<svg version="1.1" id="Calque_1" xmlns="http://www.w3.org/2000/svg" xmlns:xlink="http://www.w3.org/1999/xlink" x="0px" y="0px"
	 width="277px" height="300px" viewBox="0 0 277 300" style="enable-background:new 0 0 277 300;" xml:space="preserve">
<style type="text/css">
	.st0{fill:#FF6600;}
	.st1{fill:#FFFFFF;}
</style>
<g>
	<path class="st0" d="M72.6,0C32.5,0,0,32.4,0,72.8V300h204.4c40.1,0,72.6-32.6,72.6-72.8V0H72.6z"/>
	<path class="st1" d="M153.9,98c0,0,2-52,52-52h25.1v-23h-25.1c-75.1,0-75.1,74.9-75.1,74.9v42.3c0,0-2,52-52,52H53.9v23.1H79
		c21.6,0,37-6.3,48-15.2c-4,14.7-15.3,36.2-48,36.2H25.7v25.1H79c59.8,0,71.8-47.5,74.4-66.9c21.6,20.8,52.6,20.8,52.6,20.8H231
		v-24.9H206c0,0-52,0-52-50V98H153.9z"/>
</g>
</svg>
