<?xml version="1.0" encoding="utf-8"?>
<!-- Generator: Adobe Illustrator 25.2.0, SVG Export Plug-In . SVG Version: 6.00 Build 0)  -->
<svg version="1.1" id="Calque_1" xmlns="http://www.w3.org/2000/svg" xmlns:xlink="http://www.w3.org/1999/xlink" x="0px" y="0px"
	 width="101.9px" height="103.4px" viewBox="0 0 101.9 103.4" style="enable-background:new 0 0 101.9 103.4;" xml:space="preserve"
	>
<style type="text/css">
	.st0{fill:#FFFFFF;}
	.st1{fill:#0F4293;}
	.st2{fill:#FF6500;}
	.st3{fill:#D2E9FF;}
</style>
<g>
	<path class="st0" d="M53.8,44.2C53.8,44.2,53.7,44.2,53.8,44.2C53.7,44.2,53.7,44.2,53.8,44.2C53.8,44.2,53.8,44.2,53.8,44.2z"/>
	<path class="st0" d="M53.8,47.2c-2.1,0-3.8-1.7-3.8-3.8v-6.1h-5.4c-2.6,0-4.8-2.2-4.8-4.8v-17H4.9v71.4H55V47
		C54.6,47.1,54.2,47.2,53.8,47.2z"/>
</g>
<path class="st1" d="M54.9,54.4v26.3c0,1.1-0.9,2-2,2H8.3c-1.1,0-2-0.9-2-2v-63c0-1.1,0.9-2,2-2h25.8c0.5,0,1-0.4,1-1V9.9
	c0-0.5-0.4-1-1-1H2c-1.1,0-2,0.9-2,2v90.5c0,1.1,0.9,2,2,2h57.2c1.1,0,2-0.9,2-2V51.3c0-0.8-0.9-1.3-1.6-0.8l-4.3,3.1
	C55.1,53.8,54.9,54.1,54.9,54.4z"/>
<path class="st2" d="M42.8,1.8v30.7c0,1,0.8,1.8,1.8,1.8h7.5c0.5,0,0.9,0.4,0.9,0.9v8.2c0,0.6,0.7,1,1.2,0.6L68,34.5
	c0.3-0.2,0.6-0.3,1-0.3h31.1c1,0,1.8-0.8,1.8-1.8V1.8c0-1-0.8-1.8-1.8-1.8H44.5C43.6,0,42.8,0.8,42.8,1.8z"/>
<rect x="12.2" y="21.5" class="st3" width="23.2" height="13.1"/>
<rect x="12.2" y="63.8" class="st3" width="23.2" height="13.1"/>
<rect x="20.9" y="40.6" class="st3" width="28" height="17.2"/>
<circle class="st0" cx="30.6" cy="93.3" r="5"/>
<circle class="st0" cx="58.2" cy="17.2" r="4.9"/>
<circle class="st0" cx="72.5" cy="17.2" r="4.9"/>
<circle class="st0" cx="86.6" cy="17.2" r="4.9"/>
</svg>
