<?xml version="1.0" encoding="utf-8"?>
<!-- Generator: Adobe Illustrator 25.2.0, SVG Export Plug-In . SVG Version: 6.00 Build 0)  -->
<svg version="1.1" id="Layer_1" xmlns="http://www.w3.org/2000/svg" xmlns:xlink="http://www.w3.org/1999/xlink" x="0px" y="0px"
	 width="20px" height="20px" viewBox="0 0 20 20" style="enable-background:new 0 0 20 20;" xml:space="preserve">
<style type="text/css">
	.st0{fill:#FFFFFF;}
</style>
<path class="st0" d="M10,0C4.5,0,0,4.5,0,10s4.5,10,10,10c5.5,0,10-4.5,10-10S15.5,0,10,0z M6,17.9c-4.1-2-6-7.2-4.2-11.4
	c0,0,0,0,0,0C3.3,10.3,4.7,14.1,6,17.9L6,17.9z M7.5,18.5c0.9-2.5,1.8-5.1,2.6-7.7c0.9,2.5,1.8,5,2.7,7.5C11.1,18.9,9.3,19,7.5,18.5
	z M11.2,5.8c0.3,0,0.6,0,0.9-0.1c0.5,0,0.5-0.8,0-0.7C10.5,5.1,9,5.1,7.5,5C7.2,5,7,5.2,7.1,5.5c0,0.2,0.2,0.3,0.3,0.3
	c0.3,0,0.9,0.2,0.9,0.2c0.4,1.2,1.3,3.6,1.3,3.7c-0.6,1.8-1.8,5.6-1.9,5.7c-1.1-3.2-2.1-6.3-3.2-9.5C5,5.8,5.9,6,5.9,5.4
	C5.9,5.1,5.7,5,5.4,5c-0.9,0-2.7,0.1-2.8,0.1c2.9-4.5,9.3-5.2,13.3-1.7c-1.3,0.1-1.8,1.2-1.5,2.1C14.6,6,14.8,6.4,15,6.7
	c0.3,0.6,0.7,1.2,0.8,1.8c0.2,0.8,0.1,1.6-0.2,2.4c-0.4,1.4-1.2,4.1-1.3,4.3C13.3,12.1,12.3,9,11.2,5.8z M14.5,17.6
	c0-0.1,2-5.7,2.9-8.3c0.4-1.1,0.5-2.2,0.4-3.4C19.9,9.6,18.8,15.1,14.5,17.6z"/>
</svg>
