<svg xmlns="http://www.w3.org/2000/svg" width="380" height="792" viewbox="0 0 380 792" preserveAspectRatio="none"><rect x="0" y="0" width="100%" height="100%" fill="rgb(60, 157, 49)" /><path d="M0 72 C 66.5 0, 124 0, 190 72 S 314 144, 380 72 S 504 0, 570, 72" fill="none" stroke="#ddd" style="opacity:0.14133333333333;stroke-width:22px;" transform="translate(-95, -108)" /><path d="M0 72 C 66.5 0, 124 0, 190 72 S 314 144, 380 72 S 504 0, 570, 72" fill="none" stroke="#ddd" style="opacity:0.14133333333333;stroke-width:22px;" transform="translate(-95, 684)" /><path d="M0 72 C 66.5 0, 124 0, 190 72 S 314 144, 380 72 S 504 0, 570, 72" fill="none" stroke="#222" style="opacity:0.098;stroke-width:22px;" transform="translate(-95, -86)" /><path d="M0 72 C 66.5 0, 124 0, 190 72 S 314 144, 380 72 S 504 0, 570, 72" fill="none" stroke="#222" style="opacity:0.098;stroke-width:22px;" transform="translate(-95, 706)" /><path d="M0 72 C 66.5 0, 124 0, 190 72 S 314 144, 380 72 S 504 0, 570, 72" fill="none" stroke="#222" style="opacity:0.11533333333333;stroke-width:22px;" transform="translate(-95, -64)" /><path d="M0 72 C 66.5 0, 124 0, 190 72 S 314 144, 380 72 S 504 0, 570, 72" fill="none" stroke="#222" style="opacity:0.11533333333333;stroke-width:22px;" transform="translate(-95, 728)" /><path d="M0 72 C 66.5 0, 124 0, 190 72 S 314 144, 380 72 S 504 0, 570, 72" fill="none" stroke="#ddd" style="opacity:0.037333333333333;stroke-width:22px;" transform="translate(-95, -42)" /><path d="M0 72 C 66.5 0, 124 0, 190 72 S 314 144, 380 72 S 504 0, 570, 72" fill="none" stroke="#ddd" style="opacity:0.037333333333333;stroke-width:22px;" transform="translate(-95, 750)" /><path d="M0 72 C 66.5 0, 124 0, 190 72 S 314 144, 380 72 S 504 0, 570, 72" fill="none" stroke="#ddd" style="opacity:0.02;stroke-width:22px;" transform="translate(-95, -20)" /><path d="M0 72 C 66.5 0, 124 0, 190 72 S 314 144, 380 72 S 504 0, 570, 72" fill="none" stroke="#ddd" style="opacity:0.02;stroke-width:22px;" transform="translate(-95, 772)" /><path d="M0 72 C 66.5 0, 124 0, 190 72 S 314 144, 380 72 S 504 0, 570, 72" fill="none" stroke="#ddd" style="opacity:0.14133333333333;stroke-width:22px;" transform="translate(-95, 2)" /><path d="M0 72 C 66.5 0, 124 0, 190 72 S 314 144, 380 72 S 504 0, 570, 72" fill="none" stroke="#ddd" style="opacity:0.14133333333333;stroke-width:22px;" transform="translate(-95, 794)" /><path d="M0 72 C 66.5 0, 124 0, 190 72 S 314 144, 380 72 S 504 0, 570, 72" fill="none" stroke="#ddd" style="opacity:0.089333333333333;stroke-width:22px;" transform="translate(-95, 24)" /><path d="M0 72 C 66.5 0, 124 0, 190 72 S 314 144, 380 72 S 504 0, 570, 72" fill="none" stroke="#ddd" style="opacity:0.089333333333333;stroke-width:22px;" transform="translate(-95, 816)" /><path d="M0 72 C 66.5 0, 124 0, 190 72 S 314 144, 380 72 S 504 0, 570, 72" fill="none" stroke="#222" style="opacity:0.11533333333333;stroke-width:22px;" transform="translate(-95, 46)" /><path d="M0 72 C 66.5 0, 124 0, 190 72 S 314 144, 380 72 S 504 0, 570, 72" fill="none" stroke="#222" style="opacity:0.11533333333333;stroke-width:22px;" transform="translate(-95, 838)" /><path d="M0 72 C 66.5 0, 124 0, 190 72 S 314 144, 380 72 S 504 0, 570, 72" fill="none" stroke="#222" style="opacity:0.15;stroke-width:22px;" transform="translate(-95, 68)" /><path d="M0 72 C 66.5 0, 124 0, 190 72 S 314 144, 380 72 S 504 0, 570, 72" fill="none" stroke="#222" style="opacity:0.15;stroke-width:22px;" transform="translate(-95, 860)" /><path d="M0 72 C 66.5 0, 124 0, 190 72 S 314 144, 380 72 S 504 0, 570, 72" fill="none" stroke="#ddd" style="opacity:0.02;stroke-width:22px;" transform="translate(-95, 90)" /><path d="M0 72 C 66.5 0, 124 0, 190 72 S 314 144, 380 72 S 504 0, 570, 72" fill="none" stroke="#ddd" style="opacity:0.02;stroke-width:22px;" transform="translate(-95, 882)" /><path d="M0 72 C 66.5 0, 124 0, 190 72 S 314 144, 380 72 S 504 0, 570, 72" fill="none" stroke="#ddd" style="opacity:0.089333333333333;stroke-width:22px;" transform="translate(-95, 112)" /><path d="M0 72 C 66.5 0, 124 0, 190 72 S 314 144, 380 72 S 504 0, 570, 72" fill="none" stroke="#ddd" style="opacity:0.089333333333333;stroke-width:22px;" transform="translate(-95, 904)" /><path d="M0 72 C 66.5 0, 124 0, 190 72 S 314 144, 380 72 S 504 0, 570, 72" fill="none" stroke="#ddd" style="opacity:0.124;stroke-width:22px;" transform="translate(-95, 134)" /><path d="M0 72 C 66.5 0, 124 0, 190 72 S 314 144, 380 72 S 504 0, 570, 72" fill="none" stroke="#ddd" style="opacity:0.124;stroke-width:22px;" transform="translate(-95, 926)" /><path d="M0 72 C 66.5 0, 124 0, 190 72 S 314 144, 380 72 S 504 0, 570, 72" fill="none" stroke="#222" style="opacity:0.080666666666667;stroke-width:22px;" transform="translate(-95, 156)" /><path d="M0 72 C 66.5 0, 124 0, 190 72 S 314 144, 380 72 S 504 0, 570, 72" fill="none" stroke="#222" style="opacity:0.080666666666667;stroke-width:22px;" transform="translate(-95, 948)" /><path d="M0 72 C 66.5 0, 124 0, 190 72 S 314 144, 380 72 S 504 0, 570, 72" fill="none" stroke="#ddd" style="opacity:0.054666666666667;stroke-width:22px;" transform="translate(-95, 178)" /><path d="M0 72 C 66.5 0, 124 0, 190 72 S 314 144, 380 72 S 504 0, 570, 72" fill="none" stroke="#ddd" style="opacity:0.054666666666667;stroke-width:22px;" transform="translate(-95, 970)" /><path d="M0 72 C 66.5 0, 124 0, 190 72 S 314 144, 380 72 S 504 0, 570, 72" fill="none" stroke="#ddd" style="opacity:0.10666666666667;stroke-width:22px;" transform="translate(-95, 200)" /><path d="M0 72 C 66.5 0, 124 0, 190 72 S 314 144, 380 72 S 504 0, 570, 72" fill="none" stroke="#ddd" style="opacity:0.10666666666667;stroke-width:22px;" transform="translate(-95, 992)" /><path d="M0 72 C 66.5 0, 124 0, 190 72 S 314 144, 380 72 S 504 0, 570, 72" fill="none" stroke="#222" style="opacity:0.15;stroke-width:22px;" transform="translate(-95, 222)" /><path d="M0 72 C 66.5 0, 124 0, 190 72 S 314 144, 380 72 S 504 0, 570, 72" fill="none" stroke="#222" style="opacity:0.15;stroke-width:22px;" transform="translate(-95, 1014)" /><path d="M0 72 C 66.5 0, 124 0, 190 72 S 314 144, 380 72 S 504 0, 570, 72" fill="none" stroke="#222" style="opacity:0.098;stroke-width:22px;" transform="translate(-95, 244)" /><path d="M0 72 C 66.5 0, 124 0, 190 72 S 314 144, 380 72 S 504 0, 570, 72" fill="none" stroke="#222" style="opacity:0.098;stroke-width:22px;" transform="translate(-95, 1036)" /><path d="M0 72 C 66.5 0, 124 0, 190 72 S 314 144, 380 72 S 504 0, 570, 72" fill="none" stroke="#ddd" style="opacity:0.10666666666667;stroke-width:22px;" transform="translate(-95, 266)" /><path d="M0 72 C 66.5 0, 124 0, 190 72 S 314 144, 380 72 S 504 0, 570, 72" fill="none" stroke="#ddd" style="opacity:0.10666666666667;stroke-width:22px;" transform="translate(-95, 1058)" /><path d="M0 72 C 66.5 0, 124 0, 190 72 S 314 144, 380 72 S 504 0, 570, 72" fill="none" stroke="#222" style="opacity:0.098;stroke-width:22px;" transform="translate(-95, 288)" /><path d="M0 72 C 66.5 0, 124 0, 190 72 S 314 144, 380 72 S 504 0, 570, 72" fill="none" stroke="#222" style="opacity:0.098;stroke-width:22px;" transform="translate(-95, 1080)" /><path d="M0 72 C 66.5 0, 124 0, 190 72 S 314 144, 380 72 S 504 0, 570, 72" fill="none" stroke="#222" style="opacity:0.080666666666667;stroke-width:22px;" transform="translate(-95, 310)" /><path d="M0 72 C 66.5 0, 124 0, 190 72 S 314 144, 380 72 S 504 0, 570, 72" fill="none" stroke="#222" style="opacity:0.080666666666667;stroke-width:22px;" transform="translate(-95, 1102)" /><path d="M0 72 C 66.5 0, 124 0, 190 72 S 314 144, 380 72 S 504 0, 570, 72" fill="none" stroke="#ddd" style="opacity:0.054666666666667;stroke-width:22px;" transform="translate(-95, 332)" /><path d="M0 72 C 66.5 0, 124 0, 190 72 S 314 144, 380 72 S 504 0, 570, 72" fill="none" stroke="#ddd" style="opacity:0.054666666666667;stroke-width:22px;" transform="translate(-95, 1124)" /><path d="M0 72 C 66.5 0, 124 0, 190 72 S 314 144, 380 72 S 504 0, 570, 72" fill="none" stroke="#ddd" style="opacity:0.02;stroke-width:22px;" transform="translate(-95, 354)" /><path d="M0 72 C 66.5 0, 124 0, 190 72 S 314 144, 380 72 S 504 0, 570, 72" fill="none" stroke="#ddd" style="opacity:0.02;stroke-width:22px;" transform="translate(-95, 1146)" /><path d="M0 72 C 66.5 0, 124 0, 190 72 S 314 144, 380 72 S 504 0, 570, 72" fill="none" stroke="#ddd" style="opacity:0.037333333333333;stroke-width:22px;" transform="translate(-95, 376)" /><path d="M0 72 C 66.5 0, 124 0, 190 72 S 314 144, 380 72 S 504 0, 570, 72" fill="none" stroke="#ddd" style="opacity:0.037333333333333;stroke-width:22px;" transform="translate(-95, 1168)" /><path d="M0 72 C 66.5 0, 124 0, 190 72 S 314 144, 380 72 S 504 0, 570, 72" fill="none" stroke="#222" style="opacity:0.080666666666667;stroke-width:22px;" transform="translate(-95, 398)" /><path d="M0 72 C 66.5 0, 124 0, 190 72 S 314 144, 380 72 S 504 0, 570, 72" fill="none" stroke="#222" style="opacity:0.080666666666667;stroke-width:22px;" transform="translate(-95, 1190)" /><path d="M0 72 C 66.5 0, 124 0, 190 72 S 314 144, 380 72 S 504 0, 570, 72" fill="none" stroke="#ddd" style="opacity:0.124;stroke-width:22px;" transform="translate(-95, 420)" /><path d="M0 72 C 66.5 0, 124 0, 190 72 S 314 144, 380 72 S 504 0, 570, 72" fill="none" stroke="#ddd" style="opacity:0.124;stroke-width:22px;" transform="translate(-95, 1212)" /><path d="M0 72 C 66.5 0, 124 0, 190 72 S 314 144, 380 72 S 504 0, 570, 72" fill="none" stroke="#ddd" style="opacity:0.14133333333333;stroke-width:22px;" transform="translate(-95, 442)" /><path d="M0 72 C 66.5 0, 124 0, 190 72 S 314 144, 380 72 S 504 0, 570, 72" fill="none" stroke="#ddd" style="opacity:0.14133333333333;stroke-width:22px;" transform="translate(-95, 1234)" /><path d="M0 72 C 66.5 0, 124 0, 190 72 S 314 144, 380 72 S 504 0, 570, 72" fill="none" stroke="#222" style="opacity:0.063333333333333;stroke-width:22px;" transform="translate(-95, 464)" /><path d="M0 72 C 66.5 0, 124 0, 190 72 S 314 144, 380 72 S 504 0, 570, 72" fill="none" stroke="#222" style="opacity:0.063333333333333;stroke-width:22px;" transform="translate(-95, 1256)" /><path d="M0 72 C 66.5 0, 124 0, 190 72 S 314 144, 380 72 S 504 0, 570, 72" fill="none" stroke="#ddd" style="opacity:0.054666666666667;stroke-width:22px;" transform="translate(-95, 486)" /><path d="M0 72 C 66.5 0, 124 0, 190 72 S 314 144, 380 72 S 504 0, 570, 72" fill="none" stroke="#ddd" style="opacity:0.054666666666667;stroke-width:22px;" transform="translate(-95, 1278)" /><path d="M0 72 C 66.5 0, 124 0, 190 72 S 314 144, 380 72 S 504 0, 570, 72" fill="none" stroke="#ddd" style="opacity:0.02;stroke-width:22px;" transform="translate(-95, 508)" /><path d="M0 72 C 66.5 0, 124 0, 190 72 S 314 144, 380 72 S 504 0, 570, 72" fill="none" stroke="#ddd" style="opacity:0.02;stroke-width:22px;" transform="translate(-95, 1300)" /><path d="M0 72 C 66.5 0, 124 0, 190 72 S 314 144, 380 72 S 504 0, 570, 72" fill="none" stroke="#222" style="opacity:0.098;stroke-width:22px;" transform="translate(-95, 530)" /><path d="M0 72 C 66.5 0, 124 0, 190 72 S 314 144, 380 72 S 504 0, 570, 72" fill="none" stroke="#222" style="opacity:0.098;stroke-width:22px;" transform="translate(-95, 1322)" /><path d="M0 72 C 66.5 0, 124 0, 190 72 S 314 144, 380 72 S 504 0, 570, 72" fill="none" stroke="#ddd" style="opacity:0.124;stroke-width:22px;" transform="translate(-95, 552)" /><path d="M0 72 C 66.5 0, 124 0, 190 72 S 314 144, 380 72 S 504 0, 570, 72" fill="none" stroke="#ddd" style="opacity:0.124;stroke-width:22px;" transform="translate(-95, 1344)" /><path d="M0 72 C 66.5 0, 124 0, 190 72 S 314 144, 380 72 S 504 0, 570, 72" fill="none" stroke="#222" style="opacity:0.028666666666667;stroke-width:22px;" transform="translate(-95, 574)" /><path d="M0 72 C 66.5 0, 124 0, 190 72 S 314 144, 380 72 S 504 0, 570, 72" fill="none" stroke="#222" style="opacity:0.028666666666667;stroke-width:22px;" transform="translate(-95, 1366)" /><path d="M0 72 C 66.5 0, 124 0, 190 72 S 314 144, 380 72 S 504 0, 570, 72" fill="none" stroke="#ddd" style="opacity:0.10666666666667;stroke-width:22px;" transform="translate(-95, 596)" /><path d="M0 72 C 66.5 0, 124 0, 190 72 S 314 144, 380 72 S 504 0, 570, 72" fill="none" stroke="#ddd" style="opacity:0.10666666666667;stroke-width:22px;" transform="translate(-95, 1388)" /><path d="M0 72 C 66.5 0, 124 0, 190 72 S 314 144, 380 72 S 504 0, 570, 72" fill="none" stroke="#222" style="opacity:0.098;stroke-width:22px;" transform="translate(-95, 618)" /><path d="M0 72 C 66.5 0, 124 0, 190 72 S 314 144, 380 72 S 504 0, 570, 72" fill="none" stroke="#222" style="opacity:0.098;stroke-width:22px;" transform="translate(-95, 1410)" /><path d="M0 72 C 66.5 0, 124 0, 190 72 S 314 144, 380 72 S 504 0, 570, 72" fill="none" stroke="#222" style="opacity:0.063333333333333;stroke-width:22px;" transform="translate(-95, 640)" /><path d="M0 72 C 66.5 0, 124 0, 190 72 S 314 144, 380 72 S 504 0, 570, 72" fill="none" stroke="#222" style="opacity:0.063333333333333;stroke-width:22px;" transform="translate(-95, 1432)" /><path d="M0 72 C 66.5 0, 124 0, 190 72 S 314 144, 380 72 S 504 0, 570, 72" fill="none" stroke="#222" style="opacity:0.13266666666667;stroke-width:22px;" transform="translate(-95, 662)" /><path d="M0 72 C 66.5 0, 124 0, 190 72 S 314 144, 380 72 S 504 0, 570, 72" fill="none" stroke="#222" style="opacity:0.13266666666667;stroke-width:22px;" transform="translate(-95, 1454)" /></svg>