<?xml version="1.0" encoding="UTF-8" standalone="no"?>
<!DOCTYPE svg PUBLIC "-//W3C//DTD SVG 1.1//EN" "http://www.w3.org/Graphics/SVG/1.1/DTD/svg11.dtd">
<svg width="100%" height="100%" viewBox="0 0 70 70" version="1.1" xmlns="http://www.w3.org/2000/svg" xmlns:xlink="http://www.w3.org/1999/xlink" xml:space="preserve" xmlns:serif="http://www.serif.com/" style="fill-rule:evenodd;clip-rule:evenodd;stroke-linejoin:round;stroke-miterlimit:2;">
    <g transform="matrix(0.0851561,0,0,0.0882948,13.2,12.3965)">
        <g>
            <path d="M492.381,104.546C472.735,77.513 438.33,53.113 395.505,35.843C352.91,18.667 303.454,9.168 256.245,9.101C209.032,8.983 159.515,18.384 116.859,35.426C73.959,52.567 39.473,76.861 19.755,103.83C0.817,129.732 -4.641,157.651 3.97,184.569C9.557,202.03 25.852,213.78 44.528,213.807L108.479,213.867L108.543,213.867C121.295,213.866 133.276,208.284 141.418,198.545C149.474,188.91 152.81,176.318 150.574,163.996C150.508,163.634 150.429,163.275 150.338,162.918L146.973,149.836C165.607,140.945 207.827,123.767 256.048,124.04C304.234,124.287 346.425,141.455 365.081,150.35L361.662,163.358C361.565,163.727 361.482,164.097 361.414,164.47C359.143,176.785 362.444,189.386 370.471,199.044C378.6,208.824 390.589,214.442 403.374,214.461L467.325,214.521L467.389,214.521C486.03,214.52 502.33,202.825 507.958,185.4C516.651,158.489 511.265,130.531 492.381,104.546Z" style="fill:white;fill-rule:nonzero;"/>
        </g>
        <g>
            <path d="M400.596,279.807L352.906,229.732C350.022,226.704 346.024,224.991 341.843,224.991L311.023,224.991L311.023,204.168C311.023,195.731 304.183,188.89 295.745,188.89C287.307,188.89 280.467,195.73 280.467,204.168L280.467,224.991L231.545,224.991L231.545,204.168C231.545,195.731 224.705,188.89 216.267,188.89C207.829,188.89 200.989,195.73 200.989,204.168L200.989,224.991L170.17,224.991C165.989,224.991 161.99,226.705 159.107,229.732L111.417,279.807C74.025,319.069 53.432,370.551 53.432,424.769L53.432,487.622C53.432,496.06 60.272,502.9 68.71,502.9L443.302,502.9C451.74,502.9 458.58,496.06 458.58,487.622L458.58,424.769C458.581,370.551 437.988,319.07 400.596,279.807ZM256.006,447.054C211.916,447.054 176.047,411.184 176.047,367.094C176.047,323.005 211.917,287.135 256.006,287.135C300.095,287.135 335.965,323.005 335.965,367.094C335.965,411.184 300.095,447.054 256.006,447.054Z" style="fill:white;fill-rule:nonzero;"/>
        </g>
        <g>
            <path d="M256.006,317.691C228.764,317.691 206.603,339.853 206.603,367.094C206.603,394.336 228.765,416.498 256.006,416.498C283.247,416.498 305.409,394.336 305.409,367.094C305.409,339.854 283.247,317.691 256.006,317.691Z" style="fill:white;fill-rule:nonzero;"/>
        </g>
    </g>
</svg>
