<?xml version="1.0" encoding="UTF-8" standalone="no"?>
<!DOCTYPE svg PUBLIC "-//W3C//DTD SVG 1.1//EN" "http://www.w3.org/Graphics/SVG/1.1/DTD/svg11.dtd">
<svg width="100%" height="100%" viewBox="0 0 70 70" version="1.1" xmlns="http://www.w3.org/2000/svg" xmlns:xlink="http://www.w3.org/1999/xlink" xml:space="preserve" xmlns:serif="http://www.serif.com/" style="fill-rule:evenodd;clip-rule:evenodd;stroke-linejoin:round;stroke-miterlimit:2;">
    <g transform="matrix(0.0851563,0,0,0.0851563,13.2,13.2)">
        <g>
            <path d="M256,0C114.848,0 0,114.848 0,256L0,496C0,504.832 7.168,512 16,512L256,512C397.152,512 512,397.152 512,256C512,114.848 397.152,0 256,0ZM272,320L144,320C135.168,320 128,312.832 128,304C128,295.168 135.168,288 144,288L272,288C280.832,288 288,295.168 288,304C288,312.832 280.832,320 272,320ZM368,224L144,224C135.168,224 128,216.832 128,208C128,199.168 135.168,192 144,192L368,192C376.832,192 384,199.168 384,208C384,216.832 376.832,224 368,224Z" style="fill:white;fill-rule:nonzero;"/>
        </g>
    </g>
</svg>
