<?xml version="1.0" encoding="UTF-8" standalone="no"?>
<!DOCTYPE svg PUBLIC "-//W3C//DTD SVG 1.1//EN" "http://www.w3.org/Graphics/SVG/1.1/DTD/svg11.dtd">
<svg width="100%" height="100%" viewBox="0 0 70 70" version="1.1" xmlns="http://www.w3.org/2000/svg" xmlns:xlink="http://www.w3.org/1999/xlink" xml:space="preserve" xmlns:serif="http://www.serif.com/" style="fill-rule:evenodd;clip-rule:evenodd;stroke-linejoin:round;stroke-miterlimit:2;">
    <g transform="matrix(0.0996465,0,0,0.0996743,9.49049,9.45768)">
        <g id="Layer_2">
            <path d="M59.947,59.947C29.653,90.027 29.653,187.947 59.947,217.387C82.68,233.994 110.585,242.01 138.667,240C166.749,242.01 194.653,233.994 217.387,217.387C247.68,187.307 247.68,89.387 217.387,59.947C187.093,30.507 90.027,29.653 59.947,59.947Z" style="fill:white;fill-rule:nonzero;"/>
            <path d="M59.947,294.613C29.653,324.693 29.653,422.613 59.947,452.053C82.68,468.661 110.585,476.677 138.667,474.667C166.749,476.677 194.653,468.661 217.387,452.053C247.68,421.973 247.68,324.053 217.387,294.613C187.093,265.173 90.027,264.32 59.947,294.613Z" style="fill:white;fill-rule:nonzero;"/>
            <path d="M373.333,240C401.415,242.01 429.32,233.994 452.053,217.387C482.347,187.307 482.347,89.387 452.053,59.947C421.76,30.507 324.053,29.653 294.613,59.947C265.173,90.24 264.32,187.947 294.613,217.387C317.347,233.994 345.251,242.01 373.333,240Z" style="fill:white;fill-rule:nonzero;"/>
            <path d="M294.613,294.613C264.32,324.693 264.32,422.613 294.613,452.053C317.347,468.661 345.251,476.677 373.333,474.667C401.415,476.677 429.32,468.661 452.053,452.053C482.347,421.973 482.347,324.053 452.053,294.613C421.76,265.173 324.693,264.32 294.613,294.613Z" style="fill:white;fill-rule:nonzero;"/>
        </g>
    </g>
</svg>
