<?xml version="1.0" encoding="UTF-8" standalone="no"?>
<!DOCTYPE svg PUBLIC "-//W3C//DTD SVG 1.1//EN" "http://www.w3.org/Graphics/SVG/1.1/DTD/svg11.dtd">
<svg width="100%" height="100%" viewBox="0 0 70 70" version="1.1" xmlns="http://www.w3.org/2000/svg" xmlns:xlink="http://www.w3.org/1999/xlink" xml:space="preserve" xmlns:serif="http://www.serif.com/" style="fill-rule:evenodd;clip-rule:evenodd;stroke-linejoin:round;stroke-miterlimit:2;">
    <g transform="matrix(0.0851563,0,0,0.0903548,13.2,11.8692)">
        <path d="M307.66,465.229C307.66,447.533 293.314,433.187 275.618,433.187L236.382,433.187C227.884,433.187 219.734,436.563 213.725,442.572C207.716,448.581 204.34,456.731 204.34,465.229C204.34,482.925 218.686,497.271 236.382,497.271L275.618,497.271C293.314,497.271 307.66,482.925 307.66,465.229ZM67.361,382.606C72.713,383.015 79.188,383.25 85.692,382.869C89.157,400.441 97.765,416.739 110.614,429.589C127.672,446.646 150.807,456.229 174.93,456.229L187.156,456.229C186.617,459.179 186.34,462.19 186.34,465.229C186.34,468.302 186.617,471.311 187.148,474.229L174.93,474.229C146.033,474.229 118.319,462.75 97.886,442.317C81.585,426.015 70.982,405.08 67.361,382.606ZM58.205,363.453C43.994,361.057 30.77,354.301 20.447,343.977C7.355,330.885 0,313.128 0,294.613L0,252.07C0,233.555 7.355,215.798 20.447,202.706C33.539,189.614 51.296,182.258 69.811,182.258L74.458,182.258C81.886,88.502 160.328,14.729 256,14.729C351.672,14.729 430.114,88.502 437.542,182.258L442.189,182.258C460.704,182.258 478.461,189.614 491.553,202.706C504.645,215.798 512,233.555 512,252.07L512,294.613C512,313.128 504.645,330.885 491.553,343.977C478.461,357.07 460.704,364.425 442.189,364.425L421.588,364.425C413.044,364.425 406.118,357.498 406.118,348.955L406.118,196.847C406.118,113.939 338.908,46.729 256,46.729C173.092,46.729 105.882,113.939 105.882,196.847L105.882,348.955C105.882,354.987 102.429,360.214 97.391,362.765C83.523,367.577 62.016,364.096 58.205,363.453Z" style="fill:white;"/>
    </g>
</svg>
