<?xml version="1.0" encoding="UTF-8" standalone="no"?>
<!DOCTYPE svg PUBLIC "-//W3C//DTD SVG 1.1//EN" "http://www.w3.org/Graphics/SVG/1.1/DTD/svg11.dtd">
<svg width="100%" height="100%" viewBox="0 0 70 70" version="1.1" xmlns="http://www.w3.org/2000/svg" xmlns:xlink="http://www.w3.org/1999/xlink" xml:space="preserve" xmlns:serif="http://www.serif.com/" style="fill-rule:evenodd;clip-rule:evenodd;stroke-linejoin:round;stroke-miterlimit:2;">
    <g id="Layer_2" transform="matrix(0.117188,0,0,0.117188,5,5)">
        <g id="Color">
            <g id="_38.Messenger">
                <circle id="Background" cx="256" cy="256" r="256" style="fill:rgb(0,130,255);"/>
                <path id="Icon" d="M256,121.263C181.592,121.263 121.263,177.179 121.263,246.164C121.557,284.737 140.214,320.949 171.453,343.579L171.992,387.604C172.025,389.299 173.428,390.676 175.124,390.676C175.667,390.676 176.201,390.534 176.674,390.265L218.745,366.383C230.901,369.598 243.426,371.206 256,371.166C330.408,371.166 390.737,315.251 390.737,246.265C390.737,177.28 330.408,121.263 256,121.263ZM266.105,286.316L237.305,256.337C235.613,254.59 232.947,254.176 230.804,255.326L180.278,282.543C180.017,282.667 179.731,282.731 179.442,282.731C178.37,282.731 177.488,281.849 177.488,280.777C177.488,280.314 177.653,279.865 177.954,279.512L237.811,216.421C238.625,215.549 239.767,215.054 240.96,215.054C242.153,215.054 243.295,215.549 244.109,216.421L272.842,246.973C274.526,248.758 277.221,249.188 279.377,248.017L329.061,221.069C329.364,220.883 329.712,220.784 330.068,220.784C331.121,220.784 331.988,221.651 331.988,222.704C331.988,223.233 331.77,223.738 331.385,224.101L272.505,286.484C271.688,287.399 270.517,287.923 269.29,287.923C268.079,287.923 266.922,287.413 266.105,286.518L266.105,286.316Z" style="fill:white;fill-rule:nonzero;"/>
            </g>
        </g>
    </g>
</svg>
