<?xml version="1.0" encoding="UTF-8" standalone="no"?>
<!DOCTYPE svg PUBLIC "-//W3C//DTD SVG 1.1//EN" "http://www.w3.org/Graphics/SVG/1.1/DTD/svg11.dtd">
<svg width="100%" height="100%" viewBox="0 0 70 70" version="1.1" xmlns="http://www.w3.org/2000/svg" xmlns:xlink="http://www.w3.org/1999/xlink" xml:space="preserve" xmlns:serif="http://www.serif.com/" style="fill-rule:evenodd;clip-rule:evenodd;stroke-linejoin:round;stroke-miterlimit:2;">
    <g transform="matrix(0.117188,0,0,0.117188,4.99027,4.99027)">
        <path d="M256.082,0.083C397.466,0.083 512.082,114.67 512.082,256.118C512.082,397.495 397.466,512.082 256.082,512.082C114.698,512.082 0.083,397.5 0.083,256.118C0.083,114.67 114.706,0.083 256.082,0.083Z" style="fill:rgb(76,175,80);"/>
        <path d="M278.669,172.38C278.671,172.38 278.672,172.38 278.674,172.38C312.199,172.38 339.785,199.966 339.785,233.491C339.785,233.494 339.785,233.497 339.785,233.5C339.833,237.752 343.345,241.225 347.597,241.225C351.85,241.225 355.362,237.752 355.41,233.5C355.391,191.41 320.759,156.781 278.669,156.767C278.64,156.767 278.61,156.766 278.581,156.766C274.298,156.766 270.775,160.29 270.775,164.573C270.775,168.855 274.298,172.379 278.581,172.379C278.61,172.379 278.64,172.378 278.669,172.378L278.669,172.38ZM266.876,222.358C266.847,222.358 266.817,222.359 266.788,222.359C262.505,222.359 258.982,218.835 258.982,214.553C258.982,210.27 262.505,206.747 266.788,206.747C266.817,206.747 266.847,206.747 266.876,206.747C266.883,206.747 266.891,206.747 266.898,206.747C288.884,206.747 306.976,224.839 306.976,246.825C306.976,246.829 306.976,246.833 306.976,246.837C306.928,251.089 303.416,254.562 299.164,254.562C294.911,254.562 291.399,251.089 291.351,246.837C291.351,246.834 291.351,246.831 291.351,246.828C291.351,233.404 280.305,222.358 266.881,222.358L266.876,222.358ZM317.7,415.5C293.023,411.142 268.671,399.821 247.415,386.838C222.827,371.802 199.86,353.06 179.488,332.682C159.116,312.304 140.366,289.352 125.33,264.741C112.358,243.488 101.007,219.129 96.673,194.465C95.632,188.948 95.946,183.259 97.588,177.89C99.333,172.575 102.325,167.755 106.314,163.833L138.862,131.294C142.014,128.163 147.179,128.163 150.331,131.294L208.8,189.751C211.925,192.909 211.925,198.07 208.8,201.228L177.726,232.311C173.173,236.832 172.57,244.062 176.311,249.275C188.332,265.886 201.703,281.477 216.289,295.889C230.692,310.481 246.283,323.851 262.9,335.861C268.104,339.611 275.337,339.011 279.852,334.454L310.952,303.374C312.465,301.853 314.527,301.001 316.672,301.01C318.825,301.006 320.893,301.857 322.421,303.374L380.883,361.834C384.008,364.991 384.008,370.151 380.883,373.308L348.334,405.85C340.428,414.045 328.876,417.684 317.7,415.5ZM278.669,111.691C274.388,111.691 270.865,108.168 270.865,103.887C270.865,99.607 274.388,96.084 278.669,96.084C278.671,96.084 278.674,96.084 278.676,96.084C354.056,96.084 416.084,158.112 416.084,233.492C416.084,233.495 416.084,233.497 416.084,233.5C416.084,237.786 412.557,241.313 408.271,241.313C403.985,241.313 400.458,237.786 400.458,233.5C400.463,166.683 345.486,111.697 278.669,111.691Z" style="fill:white;"/>
    </g>
</svg>
