<?xml version="1.0" encoding="UTF-8" standalone="no"?>
<!DOCTYPE svg PUBLIC "-//W3C//DTD SVG 1.1//EN" "http://www.w3.org/Graphics/SVG/1.1/DTD/svg11.dtd">
<svg width="100%" height="100%" viewBox="0 0 70 70" version="1.1" xmlns="http://www.w3.org/2000/svg" xmlns:xlink="http://www.w3.org/1999/xlink" xml:space="preserve" xmlns:serif="http://www.serif.com/" style="fill-rule:evenodd;clip-rule:evenodd;stroke-linejoin:round;stroke-miterlimit:2;">
    <g id="Layer_2" transform="matrix(0.117188,0,0,0.117188,5,5)">
        <g id="_149.sms">
            <path id="background" d="M512,256C512,114.71 397.29,0 256,0C114.71,0 0,114.71 0,256C0,397.29 114.71,512 256,512C397.29,512 512,397.29 512,256Z" style="fill:rgb(0,39,217);"/>
            <path id="icon" d="M337.455,145.687L174.545,145.687C158.587,145.687 145.455,158.819 145.455,174.778L145.455,366.196L202.764,325.004L337.455,325.004C353.413,325.004 366.545,311.872 366.545,295.913L366.545,174.895C366.546,174.856 366.546,174.817 366.546,174.778C366.546,158.819 353.414,145.687 337.455,145.687ZM205.091,249.745C197.526,249.745 191.302,243.521 191.302,235.956C191.302,228.392 197.526,222.167 205.091,222.167C212.655,222.167 218.88,228.392 218.88,235.956C218.88,243.521 212.655,249.745 205.091,249.745ZM256,249.745C248.436,249.745 242.211,243.521 242.211,235.956C242.211,228.392 248.436,222.167 256,222.167C263.564,222.167 269.789,228.392 269.789,235.956C269.789,243.521 263.564,249.745 256,249.745ZM306.909,249.745C299.345,249.745 293.12,243.521 293.12,235.956C293.12,228.392 299.345,222.167 306.909,222.167C314.474,222.167 320.698,228.392 320.698,235.956C320.698,243.521 314.474,249.745 306.909,249.745Z" style="fill:white;fill-rule:nonzero;"/>
        </g>
    </g>
</svg>
