<?xml version="1.0" encoding="UTF-8" standalone="no"?>
<!DOCTYPE svg PUBLIC "-//W3C//DTD SVG 1.1//EN" "http://www.w3.org/Graphics/SVG/1.1/DTD/svg11.dtd">
<svg width="100%" height="100%" viewBox="0 0 70 70" version="1.1" xmlns="http://www.w3.org/2000/svg" xmlns:xlink="http://www.w3.org/1999/xlink" xml:space="preserve" xmlns:serif="http://www.serif.com/" style="fill-rule:evenodd;clip-rule:evenodd;stroke-linejoin:round;stroke-miterlimit:2;">
    <g id="Artboard" transform="matrix(0.117188,0,0,0.117188,5,5)">
        <circle id="Oval" cx="256" cy="256" r="256" style="fill:url(#_Linear1);"/>
        <path id="Path-3" d="M115.88,253.298C190.509,220.783 240.274,199.347 265.173,188.991C336.267,159.421 351.04,154.284 360.668,154.114C362.786,154.077 367.521,154.602 370.588,157.091C375.138,160.783 375.164,168.797 374.659,174.101C370.806,214.581 354.136,312.814 345.655,358.152C342.066,377.336 335,383.769 328.16,384.398C313.294,385.766 302.005,374.573 287.606,365.135C265.075,350.365 252.346,341.171 230.475,326.759C205.2,310.103 221.585,300.949 235.989,285.988C239.759,282.073 305.26,222.494 306.528,217.089C306.687,216.413 306.834,213.893 305.337,212.563C303.84,211.233 301.631,211.687 300.037,212.049C297.777,212.562 261.783,236.353 192.055,283.421C181.838,290.437 172.584,293.855 164.293,293.676C155.152,293.479 137.57,288.508 124.499,284.259C108.467,279.048 95.725,276.292 96.835,267.442C97.413,262.831 103.761,258.117 115.88,253.298Z" style="fill:white;"/>
    </g>
    <defs>
        <linearGradient id="_Linear1" x1="0" y1="0" x2="1" y2="0" gradientUnits="userSpaceOnUse" gradientTransform="matrix(3.1106e-14,508,-508,3.1106e-14,256,0)"><stop offset="0" style="stop-color:rgb(42,171,238);stop-opacity:1"/><stop offset="1" style="stop-color:rgb(34,158,217);stop-opacity:1"/></linearGradient>
    </defs>
</svg>
