<?xml version="1.0" encoding="UTF-8" standalone="no"?>
<!DOCTYPE svg PUBLIC "-//W3C//DTD SVG 1.1//EN" "http://www.w3.org/Graphics/SVG/1.1/DTD/svg11.dtd">
<svg width="100%" height="100%" viewBox="0 0 70 70" version="1.1" xmlns="http://www.w3.org/2000/svg" xmlns:xlink="http://www.w3.org/1999/xlink" xml:space="preserve" xmlns:serif="http://www.serif.com/" style="fill-rule:evenodd;clip-rule:evenodd;stroke-linejoin:round;stroke-miterlimit:2;">
    <g transform="matrix(0.117188,0,0,0.117188,5,5)">
        <g id="Layer_2">
            <g id="_09.whatsapp">
                <circle id="background" cx="256" cy="256" r="256" style="fill:rgb(41,167,26);"/>
                <g id="icon">
                    <path d="M368.873,143.127C339.069,113.026 298.424,96.072 256.064,96.072C168.977,96.072 97.315,167.734 97.315,254.821C97.315,279.829 103.225,304.487 114.56,326.778L97.716,408.553C97.363,410.197 97.711,411.917 98.676,413.295C100.106,415.409 102.711,416.421 105.193,415.825L185.338,396.829C207.289,407.739 231.471,413.418 255.983,413.418C343.054,413.418 414.703,341.769 414.703,254.698C414.703,212.941 398.225,172.827 368.873,143.127ZM343.884,342.575C306.191,380.161 248.354,389.561 200.698,365.847L189.527,360.32L140.393,371.956L140.538,371.345L150.72,321.891L145.251,311.098C120.893,263.259 130.159,204.798 168.116,166.836C216.333,118.635 295.667,118.635 343.884,166.836C344.082,167.064 344.296,167.278 344.524,167.476C392.13,215.79 391.842,294.611 343.884,342.575Z" style="fill:white;fill-rule:nonzero;"/>
                    <path d="M339.52,306.298C333.498,315.782 323.985,327.389 312.029,330.269C291.084,335.331 258.938,330.444 218.938,293.149L218.444,292.713C183.273,260.102 174.138,232.96 176.349,211.433C177.571,199.215 187.753,188.16 196.335,180.945C198.404,179.18 201.036,178.209 203.756,178.209C208.285,178.209 212.405,180.9 214.225,185.047L227.171,214.138C228.883,217.977 228.333,222.463 225.745,225.775L219.2,234.269C216.333,237.85 215.928,242.841 218.182,246.836C221.847,253.265 230.633,262.72 240.378,271.476C251.316,281.367 263.447,290.415 271.127,293.498C275.323,295.212 280.165,294.195 283.316,290.938L290.909,283.287C293.888,280.35 298.23,279.237 302.255,280.378L333.004,289.105C337.877,290.601 341.227,295.132 341.227,300.23C341.227,302.371 340.636,304.471 339.52,306.298Z" style="fill:white;fill-rule:nonzero;"/>
                </g>
            </g>
        </g>
    </g>
</svg>
