<svg width="70" height="70" viewBox="0 0 70 70" fill="none" xmlns="http://www.w3.org/2000/svg">
    <path d="M59.0624 40.4905V6.83605C59.0624 5.00225 58.3429 3.27782 57.0364 1.9805C55.7492 0.702185 54.0507 0 52.2585 0C52.2424 0 52.2262 0 52.2101 0.000136718H6.83591C3.06659 0.000136718 0 3.06673 0 6.83605V9.57028C0 10.3252 0.612087 10.9375 1.36718 10.9375H10.9375V57.6954C10.9375 61.4647 14.004 64.5313 17.7734 64.5313H43.3684C46.1291 67.8695 50.3008 70 54.961 70C63.2535 70 70 63.2535 70 54.961C70 48.0898 65.368 42.2801 59.0624 40.4905ZM10.9375 8.20309H2.73436V6.83605C2.73436 4.57445 4.57432 2.7345 6.83591 2.7345C9.0975 2.7345 10.9375 4.57445 10.9375 6.83605V8.20309ZM21.8749 57.6954C21.8749 59.957 20.035 61.7969 17.7734 61.7969C15.5118 61.7969 13.6718 59.957 13.6718 57.6954V6.83605C13.6718 5.29838 13.1615 3.87774 12.3014 2.7345H52.2197C52.2294 2.73436 52.2389 2.73436 52.2486 2.73436C53.3235 2.73436 54.3387 3.15505 55.1097 3.9208C55.8955 4.70092 56.328 5.73629 56.328 6.83605V39.9837C55.8777 39.9429 55.4216 39.922 54.9609 39.922C47.1291 39.922 40.6764 45.9395 39.9835 53.5939H23.242C22.8794 53.5939 22.5316 53.7381 22.2752 53.9944C22.0189 54.2509 21.8748 54.5986 21.8748 54.9611L21.8749 57.6954ZM23.2388 61.7969C24.0989 60.6537 24.6091 59.2329 24.6091 57.6954V56.3283H39.9835C40.1604 58.2822 40.7125 60.1292 41.5671 61.7969H23.2388ZM54.9609 67.2656C48.1761 67.2656 42.6562 61.7458 42.6562 54.961C42.6562 48.1762 48.1761 42.6564 54.9609 42.6564C61.7456 42.6564 67.2655 48.1762 67.2655 54.961C67.2655 61.7458 61.7458 67.2656 54.9609 67.2656Z"
          fill="#4F47EB"/>
    <path d="M59.1457 53.5934H56.3281V46.5908C56.3281 45.8359 55.716 45.2236 54.9609 45.2236C54.2058 45.2236 53.5937 45.8359 53.5937 46.5908V54.9606C53.5937 55.7156 54.2058 56.3278 54.9609 56.3278H59.1457C59.9008 56.3278 60.5129 55.7156 60.5129 54.9606C60.5129 54.2056 59.9008 53.5934 59.1457 53.5934Z"
          fill="#4F47EB"/>
    <path d="M45.8947 53.5938H45.8937C45.1386 53.5938 44.5269 54.206 44.5269 54.9609C44.5269 55.7159 45.1396 56.3281 45.8947 56.3281C46.6497 56.3281 47.2618 55.7159 47.2618 54.9609C47.2618 54.206 46.6497 53.5938 45.8947 53.5938Z"
          fill="#4F47EB"/>
    <path d="M54.9609 62.6602C54.2058 62.6602 53.5937 63.2724 53.5937 64.0273V64.0283C53.5937 64.7833 54.2058 65.3951 54.9609 65.3951C55.716 65.3951 56.3281 64.7824 56.3281 64.0273C56.3281 63.2722 55.716 62.6602 54.9609 62.6602Z"
          fill="#4F47EB"/>
    <path d="M64.0271 53.5938C63.272 53.5938 62.6599 54.206 62.6599 54.9609C62.6599 55.7159 63.272 56.3281 64.0271 56.3281H64.028C64.7831 56.3281 65.3948 55.7159 65.3948 54.9609C65.3948 54.206 64.7822 53.5938 64.0271 53.5938Z"
          fill="#4F47EB"/>
    <path d="M29.3262 17.5908H45.9374C46.6925 17.5908 47.3046 16.9786 47.3046 16.2236C47.3046 15.4687 46.6925 14.8564 45.9374 14.8564H29.3262C28.5711 14.8564 27.959 15.4687 27.959 16.2236C27.959 16.9786 28.5712 17.5908 29.3262 17.5908Z"
          fill="#4F47EB"/>
    <path d="M24.0626 24.2451H45.9376C46.6927 24.2451 47.3047 23.6329 47.3047 22.8779C47.3047 22.123 46.6927 21.5107 45.9376 21.5107H24.0626C23.3075 21.5107 22.6954 22.123 22.6954 22.8779C22.6954 23.6329 23.3075 24.2451 24.0626 24.2451Z"
          fill="#4F47EB"/>
    <path d="M24.0626 30.8984H45.9376C46.6927 30.8984 47.3047 30.2862 47.3047 29.5312C47.3047 28.7763 46.6927 28.1641 45.9376 28.1641H24.0626C23.3075 28.1641 22.6954 28.7763 22.6954 29.5312C22.6954 30.2862 23.3075 30.8984 24.0626 30.8984Z"
          fill="#4F47EB"/>
    <path d="M45.9374 34.8174H29.3262C28.5711 34.8174 27.959 35.4296 27.959 36.1846C27.959 36.9395 28.5711 37.5518 29.3262 37.5518H45.9374C46.6925 37.5518 47.3046 36.9395 47.3046 36.1846C47.3046 35.4296 46.6925 34.8174 45.9374 34.8174Z"
          fill="#4F47EB"/>
    <path d="M24.0626 44.2061H39.2383C39.9934 44.2061 40.6055 43.5938 40.6055 42.8389C40.6055 42.0839 39.9934 41.4717 39.2383 41.4717H24.0626C23.3075 41.4717 22.6954 42.0839 22.6954 42.8389C22.6954 43.5938 23.3075 44.2061 24.0626 44.2061Z"
          fill="#4F47EB"/>
</svg>
