<svg xmlns="http://www.w3.org/2000/svg" viewBox="0 0 512 512" xmlns:v="https://vecta.io/nano"><path d="M.35.78h510.22V511H.35z" stroke="#221f20" stroke-linejoin="round" stroke-width="1.78"/><path d="M23.87,20.55h99.79V118H23.87Zm242.36,0h99.69V118H266.23Zm121.13,0h99.7V118h-99.7ZM23.87,144.94h99.79v97.52H23.87Zm121.23,0h99.69v97.52H145.1Zm242.26,0h99.7v97.52h-99.7ZM145.1,269.43h99.69v97.42H145.1Zm121.13,0h99.69v97.42H266.23ZM23.87,393.83h99.79v97.42H23.87Zm242.36,0h99.69v97.42H266.23Zm121.13,0h99.7v97.42h-99.7Z" fill="#fff" fill-rule="evenodd"/></svg>