<?xml version="1.0" encoding="utf-8"?>
<!-- Generator: Adobe Illustrator 24.0.0, SVG Export Plug-In . SVG Version: 6.00 Build 0)  -->
<svg version="1.1" id="Calque_1" xmlns="http://www.w3.org/2000/svg" xmlns:xlink="http://www.w3.org/1999/xlink" x="0px" y="0px"
	 viewBox="0 0 30 30" style="enable-background:new 0 0 30 30;" xml:space="preserve">
<style type="text/css">
	.st0{opacity:0.7;fill:#FFFFFF;}
	.st1{fill:#DE3F3F;}
</style>
<path class="st0" d="M29.6,24.8L17.4,2.6C16.8,1.8,16,1.2,15,1.2s-1.8,0.6-2.2,1.4L0.4,24.8c-0.6,0.8-0.6,1.8,0,2.8
	c0.4,0.6,1.4,1.2,2.4,1.2h24.3c1,0,1.8-0.6,2.4-1.4C30.1,26.6,30.1,25.6,29.6,24.8z"/>
<g>
	<path class="st1" d="M15,19.8c0.6,0,1.2-0.3,1.2-1.1c0-1.2,0.1-2.7,0.2-4.1c0.1-1.5,0.2-2.8,0.2-4C16.6,9.6,16,9,15,9
		s-1.6,0.6-1.6,1.6c0.3,2.3,0.4,5.4,0.6,7.5C14,18.8,13.8,19.8,15,19.8z"/>
	<path class="st1" d="M15,21.4c-1,0-1.8,0.8-1.8,1.8S14,25,15,25s1.8-0.8,1.8-1.8C16.8,22.2,16,21.4,15,21.4z"/>
</g>
</svg>
