<?xml version="1.0" encoding="utf-8"?>
<!-- Generator: Adobe Illustrator 25.2.0, SVG Export Plug-In . SVG Version: 6.00 Build 0)  -->
<svg version="1.1" id="Calque_1" xmlns="http://www.w3.org/2000/svg" xmlns:xlink="http://www.w3.org/1999/xlink" x="0px" y="0px"
	 width="24px" height="24px" viewBox="0 0 24 24" style="enable-background:new 0 0 24 24;" xml:space="preserve">
<style type="text/css">
	.st0{display:none;fill:#C60000;}
	.st1{fill:#FFFFFF;}
	.st2{opacity:0.7;fill:#C0C3C9;}
	.st3{opacity:0.8;fill:#AEB2B7;}
	.st4{fill:#FF6600;}
	.st5{fill:#FF0000;}
	.st6{fill:#DFE1E5;}
	.st7{fill:#FF9831;}
	.st8{fill:#FF2424;}
</style>
<g>
	<g id="fusee">
		<g>
			<g>
				<path class="st0" d="M11.3,48.2c0,0-1.5-1.3-1.5-1.4l0,0c0,0-0.8,1.1-1,1.5c0.2-0.1,0.5-0.1,0.8-0.2c-0.6,0.8-1.1,1.5-1.6,2.3
					l0,0c0.5-0.4,1-0.8,1.5-1.1l0,0c-0.1,0.3-0.2,0.6-0.3,0.9c0,0,0.1,0,0.1-0.1c0.3-0.3,0.7-0.6,1-0.9c0.3-0.2,0.9-0.9,0.9-0.9
					C11.4,48.3,11.4,48.3,11.3,48.2z"/>
			</g>
		</g>
	</g>
</g>
<g>
	<g id="fond_1_">
		<path class="st1" d="M17.4,4.5l0.2-0.1C12-2.3,1,1.6,1,10.4c0,3,1.4,5.7,3.6,7.4c0.7-2.3,2.7-3.7,3.7-4.2l0.1-0.2
			c-0.8,0.2-1.8,0.6-1.8,0.6c2.1-5.7,6.3-4.9,6.3-4.9C14.1,6.6,16.8,4.8,17.4,4.5L17.4,4.5z"/>
		<path class="st2" d="M4.7,17.6c1-2.2,2.6-3.4,3.6-3.9l0.1-0.2c-0.8,0.2-1.8,0.6-1.8,0.6c0.6-1.7,1.4-2.8,2.2-3.5
			C6.2,9.7,3.2,10.4,1.1,12c0.4,2.4,1.7,4.4,3.5,5.8C4.7,17.7,4.7,17.7,4.7,17.6z"/>
		<path class="st3" d="M4.7,17.6c1-2.2,2.6-3.4,3.6-3.9l0.1-0.2c-0.8,0.2-1.8,0.6-1.8,0.6c0.2-0.5,0.4-0.9,0.6-1.3
			c-1.8,0.7-3.1,2.4-3.5,4.3c0.3,0.3,0.6,0.5,0.9,0.8C4.7,17.8,4.7,17.7,4.7,17.6z"/>
	</g>
	<g id="power_1_">
		<g>
			<path class="st4" d="M6.4,5.7C6.3,5.4,5.8,3.9,5.6,3.4c0-0.1,0-0.2,0.1-0.2C6.4,2.8,7,2.6,7.8,2.4c1-0.3,2-0.4,3.1-0.4
				c0.3,0,0.6,0,0.9,0.1c-0.1,0.2-1.2,2.6-1.7,3.6c0,0.1-0.1,0.1-0.2,0.1C8.7,5.4,7.6,5.4,6.4,5.7C6.5,5.7,6.4,5.7,6.4,5.7z"/>
			<path d="M5,3.6c0.2,0.5,0.6,1.7,0.8,2c0,0.1,0,0.1-0.1,0.2C5.4,6,5.1,6.2,4.8,6.3c0,0-0.1,0.1-0.2,0C4.3,5.9,4,5.5,3.6,5.1
				C4,4.5,4.4,4.1,5,3.6z"/>
			<path d="M3.2,5.5c0.2,0.2,0.9,1,1,1.1c0,0,0,0.1,0,0.2c-0.3,0.3-0.6,0.8-0.8,1c0,0-0.1,0-0.1,0C3,7.7,2.7,7.5,2.4,7.4
				c0,0,0,0,0-0.1C2.5,6.7,2.8,6.2,3.2,5.5z"/>
			<path d="M2.1,8.1C2.4,8.2,2.7,8.4,3,8.5c0,0,0,0.1,0,0.1C2.9,9,2.7,9.5,2.7,10c0,0.1,0,0.1-0.1,0.1c-0.2,0-0.4,0-0.6,0
				C1.9,9.4,2,8.8,2.1,8.1z"/>
			<path d="M2.1,12c0-0.5,0-0.8-0.1-1.3c0.1,0,0.4,0,0.6,0c0,0,0,0,0,0.1c0,0.4,0,0.6,0,1c0,0.1-0.1,0.1-0.1,0.1
				C2.4,11.9,2.2,12,2.1,12z"/>
		</g>
	</g>
	<g>
		<path class="st5" d="M14.7,3.2c-0.6-0.3-1.2-0.6-1.8-0.9c-0.1,0-0.1,0-0.2,0.1c-0.1,0.3-0.9,1.9-1.5,3L14.7,3.2z"/>
		<path class="st5" d="M15.8,4l-3.2,4.1c0.1,0.1,0.2,0.3,0.3,0.4c0,0.1,0.1,0.1,0.3,0.1c1-1.8,2.7-3.1,3.6-3.7
			C16.5,4.6,16.2,4.3,15.8,4z"/>
	</g>
	<g id="aiguille_1_">
		<path d="M16.1,3L8.9,8.4C8.1,7.9,7,8.6,7,9.6c0.1,1.9,3,1.6,2.6-0.3L16.1,3z"/>
		<path class="st6" d="M8.4,8.9c0.9,0,0.9,1.4,0,1.4C7.5,10.2,7.5,8.9,8.4,8.9z"/>
	</g>
	<g id="trait_3_1_">
		<polygon class="st7" points="18,21.5 22,17.6 22.5,18.1 18.5,22 		"/>
	</g>
	<g id="trait_2_1_">
		<polygon class="st7" points="19.9,14.8 22,12.7 22.5,13.2 20.4,15.3 		"/>
	</g>
	<g id="trait_1_1_">
		<polygon class="st7" points="2.4,21.5 4.5,19.3 5,19.8 2.9,21.9 		"/>
	</g>
	<g id="feu_1_">
		<path class="st8" d="M14.1,16.5c-0.3,1.3-3.7,2.8-4.3,3c-0.1,0,1.1-3.3,1.9-3.9c0.2-0.1,0.4-0.3,0.6-0.4c-0.5-0.1-1.3-0.1-2.6,0.3
			c-1.4,0.7-2.6,1.9-3.3,3.5c0.3-0.3,0.6-0.5,1-0.8c0.3-0.2,0.7-0.5,1.2-0.6c-1.2,1.7-1.9,3.4-2.5,5.4c2-0.6,3.7-1.3,5.4-2.4
			c-0.2,0.8-0.7,1.4-1.3,2c1.5-0.7,2.7-1.7,3.4-3.2l0,0c0.2-0.4,0.4-0.7,0.5-1.1C14.3,18.2,14.5,17.2,14.1,16.5z"/>
	</g>
	<g id="fusee_1_">
		<g>
			<g>
				<path class="st1" d="M13.8,11c-1,0-1.9,0.1-2.7,0.6c-0.6,0.3-1.1,0.8-1.5,1.4c-0.1,0.2-0.2,0.3-0.3,0.6c0,0,1-0.4,2.6-0.1
					c0.3,0,0.3,0.1,0.6,0.1C12.6,13.6,12.9,12.4,13.8,11z"/>
				<path class="st1" d="M17.8,14.7c0,0,0,0.2,0,0.3c0.2,1.6-0.4,3.1-1.6,4c-0.1,0.1-0.3,0.2-0.5,0.3c0,0,0.3-1.1-0.1-2.6
					c-0.1-0.3-0.1-0.3-0.2-0.6C15.4,16.1,16.5,15.8,17.8,14.7z"/>
				<path class="st0" d="M14.2,16.3c0,0-1.6-1.5-1.7-1.6l0,0c0,0-0.9,1.2-1.1,1.7c0.3-0.1,0.6-0.1,0.9-0.2c-0.6,0.9-1.2,1.7-1.8,2.6
					l0,0c0.6-0.4,1.1-0.9,1.7-1.3l0,0c-0.1,0.3-0.2,0.6-0.3,1c0,0,0.1,0,0.1-0.1c0.5-0.5,1.8-1.6,2.2-1.9
					C14.2,16.3,14.2,16.3,14.2,16.3z"/>
				<path class="st1" d="M19.4,6l2.9,2.7c0,0,0.9-1.9,0.6-3.6C22.9,5.1,21,5,19.4,6z"/>
				<path class="st1" d="M18.7,6.3c-1,0.6-1.6,1.2-2.3,2c-0.4,0.4-0.7,0.8-1.1,1.2l-0.7,1c-0.4,0.6-0.8,1.2-1.1,1.9
					c-0.1,0.3-0.6,1.2-0.6,1.3c0,0,0,0,0.2,0.2c0.7-1,1.2-1.7,1.5-2c0.1-0.1,0.3-0.2,0.5-0.3c0.4-0.1,1.1,0.4,1.5,0.9
					c0.3,0.5,0.2,1,0,1.3c-0.4,0.3-1.9,1.5-1.9,1.5c0.2,0.2,0.2,0.2,0.2,0.2c0,0,1.9-1.1,2.5-1.5c0.2-0.1,1-0.8,1.1-0.8
					c0.5-0.4,1-0.8,1.4-1.3c0.9-0.9,1.5-1.7,2-2.9L18.7,6.3z M19.6,10.9c-1.3,1.4-3.4-0.7-2.2-2c0.5-0.6,1.4-0.6,2,0
					C20.1,9.5,20.2,10.4,19.6,10.9z"/>
				<path class="st1" d="M16.1,13.6c0.5-0.5-0.4-1.2-0.8-1.1c-0.1,0-0.2,0-0.2,0.1c-0.4,0.4-2.9,4.1-2.9,4.1S16,13.7,16.1,13.6z"/>
			</g>
		</g>
	</g>
</g>
<path class="st1" d="M12.2,18.1c-0.6,0.3-1.2,0.6-1.8,0.8c0-0.2,0.1-0.4,0.1-0.6c0.3-1.2,0.8-2.4,1.9-3.2c-0.4,0.1-0.8,0.4-1.2,0.7
	c-0.3,0.3-0.6,0.7-0.8,1.1c-0.2,0.4-0.4,0.8-0.6,1.2c-0.2,0.6-0.3,1.3-0.4,1.9c1.5-0.5,3-1.1,4.1-2.3c0.3-0.4,0.6-0.8,0.6-1.2
	C13.7,17.3,12.9,17.7,12.2,18.1z"/>
</svg>
