<?xml version="1.0" encoding="utf-8"?>
<!-- Generator: Adobe Illustrator 25.2.0, SVG Export Plug-In . SVG Version: 6.00 Build 0)  -->
<svg version="1.1" id="Calque_1" xmlns="http://www.w3.org/2000/svg" xmlns:xlink="http://www.w3.org/1999/xlink" x="0px" y="0px"
	 width="1000px" height="260px" viewBox="0 0 1000 260" style="enable-background:new 0 0 1000 260;" xml:space="preserve">
<style type="text/css">
	.st0{fill:#FF6600;}
	.st1{fill:#FFFFFF;}
</style>
<path class="st0" d="M63.2,0C28.3,0,0,28.1,0,63v197h177.6c34.8,0,63.2-28.2,63.2-63V0H63.2z"/>
<path class="st1" d="M133.8,85c0,0,1.7-45,45.1-45h21.8V20h-21.8C113.7,20,113.7,85,113.7,85v36.7c0,0-1.7,45-45.1,45H46.8v20h21.8
	c18.8,0,32.2-5.4,41.7-13.2C106.8,186.4,97,205,68.6,205H22.4v21.7h46.2c51.9,0,62.4-41.2,64.6-57.9c18.8,18,45.7,18,45.7,18h21.8
	v-21.6h-21.8c0,0-45.1,0-45.1-43.3V85L133.8,85z"/>
<path class="st1" d="M298.1,0v148.6C298.1,260,408.9,260,408.9,260h36.9v-37.1h-36.9c0,0-73.9,0-73.9-74.3V0C335,0,298.1,0,298.1,0z
	"/>
<path class="st1" d="M889.2,37.1H1000V0H889.2C778.4,0,778.4,111.4,778.4,111.4v37.1l0,0l0,0h147.7v-37.1H815.3l0,0
	C815.3,111.4,815.3,37.1,889.2,37.1z"/>
<path class="st1" d="M778.4,260h110.8C1000,260,1000,148.6,1000,148.6v-37.1h-36.9v37.1c0,0,0,74.3-73.9,74.3H778.4V260z"/>
<path class="st1" d="M741.5,0h-36.9v185.7c0,37.1-36.9,37.1-36.9,37.1h-36.9V116.9h-36.9v105.9H557c0,0-36.9,0-36.9-37.1V54.1h-36.9
	v131.6c0,74.3,73.9,74.3,73.9,74.3h184.7v-74.3l0,0l0,0L741.5,0L741.5,0z"/>
</svg>
