<?xml version="1.0" encoding="utf-8"?>
<!-- Generator: Adobe Illustrator 25.2.0, SVG Export Plug-In . SVG Version: 6.00 Build 0)  -->
<svg version="1.1" id="Calque_1" xmlns="http://www.w3.org/2000/svg" xmlns:xlink="http://www.w3.org/1999/xlink" x="0px" y="0px"
	 viewBox="0 0 158 25" style="enable-background:new 0 0 158 25;" xml:space="preserve">
<style type="text/css">
	.st0{fill:#006EDC;}
</style>
<g>
	<path class="st0" d="M13.2,0.4l3.2,7.9L24.6,9c0.6,0.1,0.8,0.8,0.4,1.2l-6.2,5.6l1.9,8.3c0.1,0.6-0.5,1-1,0.7l-7-4.4l-7,4.4
		c-0.5,0.3-1.1-0.1-1-0.7l1.9-8.3l-6.2-5.6C-0.2,9.8,0,9.1,0.6,9l8.2-0.7L12,0.4C12.2-0.1,13-0.1,13.2,0.4z"/>
</g>
<g>
	<path class="st0" d="M46.4,0.4l3.2,7.9L57.8,9c0.6,0.1,0.8,0.8,0.4,1.2l-6.2,5.6l1.9,8.3c0.1,0.6-0.5,1-1,0.7l-7-4.4l-7,4.4
		c-0.5,0.3-1.1-0.1-1-0.7l1.9-8.3l-6.2-5.6C33,9.8,33.2,9.1,33.8,9l8.2-0.7l3.2-7.9C45.4-0.1,46.2-0.1,46.4,0.4z"/>
</g>
<g>
	<path class="st0" d="M79.6,0.4l3.2,7.9L91,9c0.6,0.1,0.8,0.8,0.4,1.2l-6.2,5.6l1.9,8.3c0.1,0.6-0.5,1-1,0.7l-7-4.4l-7,4.4
		c-0.5,0.3-1.1-0.1-1-0.7l1.9-8.3l-6.2-5.6C66.2,9.8,66.4,9.1,67,9l8.2-0.7l3.2-7.9C78.6-0.1,79.4-0.1,79.6,0.4z"/>
</g>
<g>
	<path class="st0" d="M112.8,0.4l3.2,7.9l8.2,0.7c0.6,0.1,0.8,0.8,0.4,1.2l-6.2,5.6l1.9,8.3c0.1,0.6-0.5,1-1,0.7l-7-4.4l-7,4.4
		c-0.5,0.3-1.1-0.1-1-0.7l1.9-8.3l-6.2-5.6c-0.4-0.4-0.2-1.1,0.4-1.2l8.2-0.7l3.2-7.9C111.8-0.1,112.6-0.1,112.8,0.4z"/>
</g>
<g>
	<path class="st0" d="M146,0.4l3.2,7.9l8.2,0.7c0.6,0.1,0.8,0.8,0.4,1.2l-6.2,5.6l1.9,8.3c0.1,0.6-0.5,1-1,0.7l-7-4.4l-7,4.4
		c-0.5,0.3-1.1-0.1-1-0.7l1.9-8.3l-6.2-5.6c-0.4-0.4-0.2-1.1,0.4-1.2l8.2-0.7l3.2-7.9C145-0.1,145.8-0.1,146,0.4z"/>
</g>
</svg>
