<?xml version="1.0" encoding="utf-8"?>
<!-- Generator: Adobe Illustrator 25.2.0, SVG Export Plug-In . SVG Version: 6.00 Build 0)  -->
<svg version="1.1" id="Calque_1" xmlns="http://www.w3.org/2000/svg" xmlns:xlink="http://www.w3.org/1999/xlink" x="0px" y="0px"
	 viewBox="0 0 266 109" style="enable-background:new 0 0 266 109;" xml:space="preserve">
<style type="text/css">
	.st0{fill:#FFBB00;}
	.st1{fill:#FFFFFF;}
	.st2{fill:#2B2B2B;}
</style>
<path class="st0" d="M41.1,44.1c0-0.3-0.3-0.6-0.6-0.6l-13.2-2c-0.1,0-0.3-0.1-0.3-0.2l-5.9-12.8c0-0.3-0.3-0.6-0.6-0.6
	c-0.3,0-0.6,0.3-0.6,0.6l-5.9,12.8c-0.1,0.1-0.2,0.2-0.3,0.2l-13.2,2c-0.3,0-0.6,0.3-0.6,0.6c0,0.3,0,0.6,0.3,0.8l9.4,10
	c0.1,0.1,0.1,0.2,0.1,0.3L7.6,69.6c0,0.3,0,0.6,0.3,0.8c0.3,0,0.6,0,0.9,0l11.6-6.7c0.1-0.1,0.3-0.1,0.4,0l11.6,6.7h0.3
	c0.3,0,0.3,0,0.6-0.3s0.3-0.6,0.3-0.8l-2.2-14.2c0-0.1,0-0.3,0.1-0.3l9.4-9.7C41.1,44.7,41.1,44.4,41.1,44.1z"/>
<path class="st0" d="M93.2,44.1c0-0.3-0.3-0.6-0.6-0.6l-13.2-2c-0.1,0-0.3-0.1-0.3-0.2l-5.9-12.8c0-0.3-0.3-0.6-0.6-0.6
	c-0.3,0-0.6,0.3-0.6,0.6l-5.9,12.8c-0.1,0.1-0.2,0.2-0.3,0.2l-13.2,2c-0.3,0-0.6,0.3-0.6,0.6c0,0.3,0,0.6,0.3,0.8l9.4,10
	c0.1,0.1,0.1,0.2,0.1,0.3l-2.2,14.2c0,0.3,0,0.6,0.3,0.8c0.3,0,0.6,0,0.9,0l11.6-6.7c0.1-0.1,0.3-0.1,0.4,0l11.6,6.7h0.3
	c0.3,0,0.3,0,0.6-0.3c0.3-0.3,0.3-0.6,0.3-0.8l-2.2-14.1c0-0.1,0-0.3,0.1-0.3l9.4-9.7C93.2,44.7,93.2,44.4,93.2,44.1z"/>
<path class="st0" d="M145.3,44.1c0-0.3-0.3-0.6-0.6-0.6l-13.2-2c-0.1,0-0.3-0.1-0.3-0.2l-5.9-12.8c0-0.3-0.3-0.6-0.6-0.6
	c-0.3,0-0.6,0.3-0.6,0.6l-5.9,12.8c-0.1,0.1-0.2,0.2-0.3,0.2l-13.2,2c-0.3,0-0.6,0.3-0.6,0.6c0,0.3,0,0.6,0.3,0.8l9.4,10
	c0.1,0.1,0.1,0.2,0.1,0.3l-2.2,14.2c0,0.3,0,0.6,0.3,0.8c0.3,0,0.6,0,0.9,0l11.6-6.7c0.1-0.1,0.3-0.1,0.4,0l11.6,6.7h0.3
	c0.3,0,0.3,0,0.6-0.3c0.3-0.3,0.3-0.6,0.3-0.8l-2.2-14.1c0-0.1,0-0.3,0.1-0.3l9.4-9.7C145.3,44.7,145.3,44.4,145.3,44.1z"/>
<path class="st0" d="M197.5,44.1c0-0.3-0.3-0.6-0.6-0.6l-13.2-2c-0.1,0-0.3-0.1-0.3-0.2l-5.9-12.8c0-0.3-0.3-0.6-0.6-0.6
	c-0.3,0-0.6,0.3-0.6,0.6l-5.9,12.8c-0.1,0.1-0.2,0.2-0.3,0.2l-13.2,2c-0.3,0-0.6,0.3-0.6,0.6c0,0.3,0,0.6,0.3,0.8l9.4,10
	c0.1,0.1,0.1,0.2,0.1,0.3L164,69.5c0,0.3,0,0.6,0.3,0.8c0.3,0,0.6,0,0.9,0l11.6-6.7c0.1-0.1,0.3-0.1,0.4,0l11.6,6.7h0.3
	c0.3,0,0.3,0,0.6-0.3c0.3-0.3,0.3-0.6,0.3-0.8l-2.2-14.1c0-0.1,0-0.3,0.1-0.3l9.4-9.7C197.5,44.7,197.5,44.4,197.5,44.1z"/>
<path class="st0" d="M266,42.1c0-0.4-0.4-0.8-0.8-0.8l-18.6-2.8c-0.1,0-0.3-0.1-0.3-0.2l-8.3-18c0-0.4-0.4-0.8-0.8-0.8
	s-0.8,0.4-0.8,0.8l-8.3,18c-0.1,0.1-0.2,0.2-0.3,0.2l-18.6,2.8c-0.4,0-0.8,0.4-0.8,0.8c0,0.4,0,0.8,0.4,1.2l13.3,14.1
	c0.1,0.1,0.1,0.2,0.1,0.3l-3.1,20c0,0,0,0,0,0c0.8,0.5,1,0.6,1.8,1l16-9.2c0.1-0.1,0.3-0.1,0.4,0l16.3,9.4h0.4c0.4,0,0.4,0,0.8-0.4
	c0.4-0.4,0.4-0.8,0.4-1.2l-3.1-20c0-0.1,0-0.3,0.1-0.3l13.3-13.7C266,42.9,266,42.5,266,42.1z"/>
<path class="st1" d="M237.3,12c-1.1,0-2-0.9-2-2V2c0-1.1,0.9-2,2-2s2,0.9,2,2v8C239.3,11.1,238.4,12,237.3,12z"/>
<path class="st1" d="M217,25.6c-0.5,0-1-0.2-1.4-0.6l-5.7-5.7c-0.8-0.8-0.8-2,0-2.8c0.8-0.8,2.1-0.8,2.8,0l5.7,5.7
	c0.8,0.8,0.8,2,0,2.8C218,25.4,217.5,25.6,217,25.6z"/>
<path class="st1" d="M257.6,25.6c-0.5,0-1-0.2-1.4-0.6c-0.8-0.8-0.8-2,0-2.8l5.7-5.7c0.8-0.8,2.1-0.8,2.8,0c0.8,0.8,0.8,2,0,2.8
	L259,25C258.6,25.4,258.1,25.6,257.6,25.6z"/>
<g>
	<path class="st1" d="M236.8,102.1c-1.6-1.8-2.8-3.8-3.9-5.7c-2.2-4-4.6-8-6.9-12c-0.9-1.5,0-3.4,1.8-3.4c0.4,0,0.8,0.1,1.1,0.4
		c1.6,1.3,3.3,2.6,4.8,4c0.6,0.6,1.2,1.2,1.9,1.6c0.2,0.1,0.6,0.4,0.8,0.2c0.2-0.1,0.5-0.5,0.5-0.7c0.2-2.8,0.5-5.6,0.7-8.4
		c0.6-6.2,1.1-12.4,1.6-18.5c0.1-0.8,0.1-1.6,0.2-2.5c0.1-1.5,1.2-2.5,2.8-2.3c0.9,0,1.8,0.4,2.2,1.2c0.2,0.5,0.4,0.9,0.4,1.4
		c-0.2,2.9-0.5,6-0.7,8.9c-0.4,3.6-0.6,7.2-0.9,10.8c0,0.2,0,0.6,0.2,0.8c0.1,0.1,0.5,0.2,0.7,0.1s0.5-0.4,0.5-0.6
		c0.1-0.7,0.1-1.3,0.2-2c0.1-1.6,1.2-2.5,2.8-2.3c1.8,0.1,2.7,1.1,2.6,2.8c0,0.7-0.1,1.3-0.1,2c0,0.5,0.1,0.8,0.6,0.8
		c0.5,0,0.7-0.2,0.7-0.7c0-0.4,0.1-0.8,0.1-1.2c0.1-1.5,1.3-2.3,3.2-2.1c1.4,0.1,2.4,1.3,2.2,2.7c0,0.4-0.1,0.7-0.1,1.1
		c0,0.5,0.1,0.8,0.7,0.8c0.5,0,0.7-0.2,0.7-0.7c0-0.1,0-0.4,0-0.5c0.1-1.4,0.7-2.1,2-2.1c1.3-0.1,2.5,0.7,2.7,1.9
		c0.1,0.4,0.1,0.8,0.1,1.2c-0.5,4.9-0.7,9.9-1.4,14.8c-0.8,6.6-6,11.7-12.7,12.3c-3.5,0.4-6.9-0.2-10-2.2
		C238.2,103.3,237.6,102.7,236.8,102.1z"/>
	<path class="st2" d="M242.1,54.6c0.1,0,0.1,0,0.2,0c0.9,0,1.8,0.4,2.2,1.2c0.2,0.5,0.4,0.9,0.4,1.4c-0.2,2.9-0.5,6-0.7,8.9
		c-0.4,3.6-0.6,7.2-0.9,10.8c0,0.2,0,0.6,0.2,0.8c0.1,0.1,0.4,0.2,0.5,0.2s0.1,0,0.1,0c0.2-0.1,0.5-0.4,0.5-0.6
		c0.1-0.7,0.1-1.3,0.2-2c0.1-1.5,1.1-2.5,2.6-2.5c0.1,0,0.2,0,0.2,0c1.8,0.1,2.7,1.1,2.6,2.8c0,0.7-0.1,1.3-0.1,2
		c0,0.5,0.1,0.8,0.6,0.8h0.1c0.5,0,0.6-0.4,0.7-0.7c0-0.4,0.1-0.8,0.1-1.2c0.1-1.4,1.1-2.1,2.7-2.1c0.1,0,0.4,0,0.5,0
		c1.4,0.1,2.4,1.3,2.2,2.7c0,0.4-0.1,0.7-0.1,1.1c0,0.5,0.1,0.8,0.7,0.8h0.1c0.5,0,0.6-0.4,0.6-0.7c0-0.1,0-0.4,0-0.5
		c0.1-1.4,0.7-2.1,2-2.1c0.1,0,0.1,0,0.2,0c1.2,0,2.2,0.7,2.6,1.9c0.1,0.4,0.1,0.8,0.1,1.2c-0.5,4.9-0.7,9.9-1.4,14.8
		c-0.8,6.6-6,11.7-12.7,12.3c-0.6,0.1-1.3,0.1-1.9,0.1c-2.8,0-5.6-0.7-8.1-2.2c-0.8-0.5-1.4-1.2-2.1-1.6c-1.6-1.8-2.8-3.8-3.9-5.7
		c-2.2-4-4.6-8-6.9-12c-0.9-1.5,0-3.4,1.8-3.4l0,0c0.4,0,0.8,0.1,1.1,0.4c1.6,1.3,3.3,2.6,4.8,4c0.6,0.6,1.2,1.2,1.9,1.6
		c0.1,0.1,0.5,0.2,0.7,0.2h0.1c0.2-0.1,0.5-0.5,0.5-0.7c0.2-2.8,0.5-5.6,0.7-8.4c0.6-6.2,1.1-12.4,1.6-18.5c0.1-0.8,0.1-1.6,0.2-2.5
		C239.6,55.4,240.6,54.6,242.1,54.6 M242.1,51.6c-2.9,0-5.3,2.1-5.5,5l-0.1,0.9c0,0.5-0.1,1.1-0.1,1.5l-0.7,7.6l-0.9,11l-0.2,2.5
		c0,0.6-0.1,1.2-0.1,1.9c-1.2-0.9-2.4-2-3.6-2.9c-0.8-0.6-1.9-0.9-2.9-0.9c-1.9,0-3.5,0.9-4.3,2.5c-0.9,1.6-0.9,3.6,0.1,5.3l0.5,0.8
		c2.1,3.6,4.3,7.4,6.3,11c1.2,2.1,2.5,4.3,4.3,6.3l0.1,0.1l0.1,0.1c0.2,0.1,0.4,0.4,0.6,0.5c0.5,0.5,1.1,0.9,1.8,1.4
		c2.8,1.8,6.1,2.7,9.8,2.7c0.7,0,1.4,0,2.1-0.1c8-0.7,14.3-6.9,15.4-14.9c0.5-3.5,0.7-7.2,1.1-10.7c0.1-1.4,0.2-2.8,0.4-4.2
		c0.1-0.7,0-1.4-0.1-2.1c-0.6-2.5-2.8-4.1-5.4-4.1c-0.1,0-0.2,0-0.5,0c-0.5,0-1.1,0.1-1.6,0.4c-0.8-0.9-2.1-1.5-3.5-1.6
		c-0.2,0-0.6,0-0.8,0c-0.8,0-1.6,0.1-2.2,0.4c-0.9-1.1-2.4-1.8-4.1-1.9c-0.1,0-0.4,0-0.5,0c-0.2,0-0.4,0-0.6,0
		c0-0.4,0.1-0.8,0.1-1.2l0.2-2.5l0.2-2.1c0.2-2.2,0.4-4.6,0.6-6.9c0.1-1.3-0.4-2.5-0.7-3c-0.9-1.6-2.5-2.6-4.7-2.7
		C242.3,51.6,242.2,51.6,242.1,51.6L242.1,51.6z"/>
</g>
</svg>
