<svg width="48" height="32" viewBox="0 0 48 32" fill="none" xmlns="http://www.w3.org/2000/svg"><rect width="48" height="32" rx="4" fill="#B2FCE4"/><path d="M6.485 15.916c0-.707-.529-1.203-1.18-1.203-.65 0-1.179.505-1.179 1.203 0 .69.53 1.203 1.18 1.203.651 0 1.18-.496 1.18-1.203Zm.01 2.103v-.546a1.76 1.76 0 0 1-1.37.613c-1.189 0-2.09-.925-2.09-2.17 0-1.236.936-2.178 2.116-2.178a1.75 1.75 0 0 1 1.344.605v-.53h1.067v4.206H6.495Zm6.249-.934c-.374 0-.477-.134-.477-.487V14.73h.685v-.917h-.685v-1.026h-1.094v1.026H9.765v-.256c0-.354.14-.488.52-.488h.24v-.816H10c-.902 0-1.326.286-1.326 1.16v.4h-.608v.917h.608v3.289h1.093V14.73h1.408v2.061c0 .858.338 1.229 1.223 1.229h.564v-.934h-.218Zm3.92-1.548c-.078-.546-.538-.874-1.075-.874-.538 0-.98.32-1.093.874h2.168Zm-2.177.657c.078.622.538.976 1.119.976.46 0 .816-.21 1.023-.547h1.12c-.26.891-1.085 1.463-2.17 1.463-1.309 0-2.228-.89-2.228-2.161 0-1.27.972-2.188 2.256-2.188 1.292 0 2.229.926 2.229 2.188 0 .092-.009.184-.026.269h-3.323Zm10.3-.278c0-.681-.53-1.203-1.18-1.203-.65 0-1.18.505-1.18 1.203 0 .69.53 1.203 1.18 1.203.65 0 1.18-.521 1.18-1.203Zm-3.436-2.103h1.067v.547c.32-.387.797-.622 1.37-.622 1.171 0 2.09.934 2.09 2.17 0 1.237-.936 2.179-2.116 2.179-.547 0-.998-.21-1.31-.564v2.227h-1.101v-5.937Zm8.372 2.103c0-.707-.528-1.203-1.18-1.203-.65 0-1.18.505-1.18 1.203 0 .69.53 1.203 1.18 1.203.652 0 1.18-.496 1.18-1.203Zm.01 2.103v-.546a1.76 1.76 0 0 1-1.37.613c-1.19 0-2.091-.925-2.091-2.17 0-1.236.936-2.178 2.116-2.178.555 0 1.024.236 1.345.605v-.53h1.066v4.206h-1.066Zm-10.305-3.793s.272-.488.937-.488c.284 0 .468.094.468.094v1.074s-.4-.24-.77-.192c-.368.048-.601.376-.6.816v2.49h-1.101v-4.206h1.067v.412Zm16.353-.413-2.693 5.924h-1.136l1.058-2.29-1.788-3.634h1.287l1.046 2.428 1.073-2.428h1.153Zm8.597-.095-2.67-1.495c-.783-.438-1.763.11-1.763.988v.153c0 .139.076.267.2.335l.504.283c.148.083.332-.02.332-.186v-.381c0-.191.213-.31.383-.215l2.313 1.295c.17.095.17.333 0 .428l-2.313 1.295c-.17.095-.382-.024-.382-.215V15.8c0-.878-.98-1.427-1.765-.987l-2.67 1.494a1.13 1.13 0 0 0-.588.988 1.122 1.122 0 0 0 .588.987l2.67 1.495c.784.438 1.765-.11 1.765-.988v-.153a.386.386 0 0 0-.2-.335l-.504-.284c-.148-.082-.333.021-.333.187v.381c0 .19-.213.31-.383.214l-2.313-1.294a.245.245 0 0 1-.093-.34.246.246 0 0 1 .093-.09l2.313-1.294c.17-.096.383.024.383.215v.202c0 .878.98 1.427 1.763.988l2.67-1.495a1.129 1.129 0 0 0 .587-.986 1.12 1.12 0 0 0-.587-.987Z" fill="#000"/></svg>