<svg width="48" height="32" viewBox="0 0 48 32" fill="none" xmlns="http://www.w3.org/2000/svg"><rect x=".5" y=".5" width="47" height="31" rx="3.5" fill="#FAFAFA" stroke="#E0E0E0"/><path fill-rule="evenodd" clip-rule="evenodd" d="M13.167 10.805c-.396.473-1.028.846-1.661.793-.08-.64.23-1.32.593-1.739.396-.486 1.088-.832 1.648-.859.066.666-.19 1.319-.58 1.805Zm.573.92c-.557-.033-1.066.169-1.477.332-.264.104-.488.193-.659.193-.19 0-.424-.093-.686-.198-.343-.138-.735-.295-1.146-.288-.943.013-1.82.553-2.301 1.412-.99 1.719-.257 4.263.699 5.661.468.693 1.028 1.452 1.766 1.426.325-.013.559-.113.8-.216.28-.12.568-.244 1.02-.244.436 0 .713.12.978.237.252.11.495.216.855.21.764-.014 1.246-.693 1.714-1.386a6.077 6.077 0 0 0 .76-1.579l.005-.013-.018-.008c-.17-.079-1.46-.676-1.472-2.276-.013-1.344 1.023-2.024 1.186-2.132a.498.498 0 0 0 .02-.013c-.66-.986-1.688-1.092-2.044-1.119Zm5.294 8.45V9.793h3.857c1.991 0 3.382 1.386 3.382 3.41 0 2.025-1.417 3.424-3.435 3.424H20.63v3.55h-1.596Zm1.595-9.024h1.84c1.384 0 2.175.746 2.175 2.058 0 1.312-.79 2.065-2.182 2.065h-1.833v-4.123Zm10.912 7.78c-.422.812-1.352 1.325-2.354 1.325-1.483 0-2.518-.892-2.518-2.238 0-1.332 1.002-2.098 2.854-2.211l1.991-.12v-.573c0-.846-.547-1.305-1.523-1.305-.804 0-1.39.42-1.51 1.059h-1.437c.046-1.346 1.3-2.325 2.993-2.325 1.826 0 3.013.966 3.013 2.465v5.168h-1.476v-1.245h-.034Zm-1.925.093c-.85 0-1.392-.413-1.392-1.046 0-.652.521-1.032 1.517-1.092l1.773-.113v.586c0 .972-.817 1.665-1.898 1.665Zm8.332 1.558C37.308 22.401 36.577 23 35.021 23c-.119 0-.514-.013-.606-.04v-1.245c.099.013.342.026.468.026.705 0 1.1-.3 1.345-1.079l.145-.46-2.703-7.559h1.667l1.88 6.134h.032l1.88-6.134h1.621l-2.802 7.94Z" fill="#000"/></svg>