<svg width="32" height="32" viewBox="0 0 32 32" fill="none" xmlns="http://www.w3.org/2000/svg"><g clip-path="url(#a)"><path d="M31.75 3v26c0 .961-.24 1.637-.677 2.073-.436.437-1.112.677-2.073.677H3c-.961 0-1.637-.24-2.073-.677C.49 30.637.25 29.962.25 29V3c0-.961.24-1.637.677-2.073C1.363.49 2.039.25 3 .25h26c.961 0 1.637.24 2.073.677.437.436.677 1.112.677 2.073Z" fill="#fff" stroke="#BDBDBD" stroke-width=".5"/><path d="M13.293 18.624H9.162a1.655 1.655 0 0 1-1.207-.457 3.993 3.993 0 0 1-.275-.333l.02-.03h4.598v-.034c0-.346 0-.695-.02-1.04a3.05 3.05 0 0 0-1.28-2.24 3.117 3.117 0 0 0-2.083-.611 3.173 3.173 0 0 0-2.88 2.41 3.2 3.2 0 0 0 2.413 3.871c.25.054.506.08.762.08h4.083c-.029.11-.066.216-.112.32a1.188 1.188 0 0 1-1.126.682h-5.85A1.234 1.234 0 0 1 4.96 19.98v-5.86a1.21 1.21 0 0 1 1.22-1.228h5.903a1.217 1.217 0 0 1 1.223 1.222v4.41a.834.834 0 0 0-.013.1Z" fill="#C80370"/><path d="M14.125 20.16v-3.024a3.102 3.102 0 0 1 .365-1.542 3.064 3.064 0 0 1 2.24-1.636 3.111 3.111 0 0 1 3.59 2.439 3.165 3.165 0 0 1-2.4 3.763 4.1 4.1 0 0 1-.742.07H15.83c-.16 0-.16 0-.16.163v3.117c0 .128 0 .128-.124.128h-1.3c-.096 0-.121-.029-.118-.121l-.003-3.357Zm2.406-1.507h.707c.09 0 .178-.007.266-.02a1.6 1.6 0 1 0-1.824-1.587v1.501c0 .08.029.102.106.102l.745.004Z" fill="#71706F"/><path d="M19.395 20.224c.141-.096.279-.176.404-.272.317-.265.577-.591.764-.96.045-.071.086-.145.122-.22.038-.106.109-.132.218-.129h4.096a.946.946 0 0 0 .163 0 .395.395 0 0 0 .336-.448.422.422 0 0 0-.397-.365h-2.032a1.958 1.958 0 0 1-.349-3.897 2.42 2.42 0 0 1 .403-.032h2.915c.096 0 .119.032.119.121v1.28c0 .09-.026.119-.115.119h-2.906a.7.7 0 0 0-.217.029.429.429 0 0 0-.279.496.419.419 0 0 0 .422.32h1.985a1.974 1.974 0 1 1-.023 3.948h-5.629v.01Z" fill="#71706F"/><path d="M7.12 11.882h-.464a.173.173 0 0 1-.189-.167 5.149 5.149 0 0 1 .064-1.312 2.56 2.56 0 0 1 2.11-1.987A2.666 2.666 0 0 1 11.394 9.6c.254.392.393.846.404 1.312v.771a.188.188 0 0 1-.212.212h-.905a.19.19 0 0 1-.208-.208v-.71a1.344 1.344 0 0 0-2.65-.283 2.201 2.201 0 0 0-.029.413v.548c0 .182-.07.227-.227.227H7.12Zm3.44 4.368H7.68c.093-.381.803-.845 1.325-.87.656-.02 1.385.377 1.555.87Z" fill="#C80370"/></g><defs><clipPath id="a"><path fill="#fff" d="M0 0h32v32H0z"/></clipPath></defs></svg>