<svg width="24" height="24" viewBox="0 0 24 24" fill="none" xmlns="http://www.w3.org/2000/svg"><path d="M6.75 9a.75.75 0 1 0 0-1.5.75.75 0 0 0 0 1.5ZM9 9a.75.75 0 1 0 0-1.5A.75.75 0 0 0 9 9Zm3-.75a.75.75 0 1 1-1.5 0 .75.75 0 0 1 1.5 0Z" fill="#000"/><path d="M17 3a2.5 2.5 0 0 1 2.5 2.5A2.5 2.5 0 0 1 22 8v10a2.5 2.5 0 0 1-2.5 2.5H7A2.5 2.5 0 0 1 4.5 18 2.5 2.5 0 0 1 2 15.5v-10A2.5 2.5 0 0 1 4.5 3H17ZM4.5 16.75V8A2.5 2.5 0 0 1 7 5.5h11.25A1.25 1.25 0 0 0 17 4.25H4.5A1.25 1.25 0 0 0 3.25 5.5v10a1.25 1.25 0 0 0 1.25 1.25Zm1.25-5V18A1.25 1.25 0 0 0 7 19.25h12.5A1.25 1.25 0 0 0 20.75 18v-6.25h-15Zm15-1.25V8a1.25 1.25 0 0 0-1.25-1.25H7A1.25 1.25 0 0 0 5.75 8v2.5h15Z" fill="#000"/></svg>