<svg width="48" height="32" viewBox="0 0 48 32" fill="none" xmlns="http://www.w3.org/2000/svg"><rect width="48" height="32" rx="4" fill="#008CFF"/><path d="M11.264 13c.258.41.374.833.374 1.367 0 1.704-1.506 3.917-2.728 5.471H6.12L5 13.373l2.444-.224.592 4.6c.552-.87 1.235-2.237 1.235-3.17 0-.51-.09-.858-.232-1.144L11.264 13Zm3.168 2.847c.45 0 1.581-.198 1.581-.82 0-.298-.218-.447-.476-.447-.45 0-1.041.521-1.105 1.267Zm-.052 1.231c0 .76.437 1.057 1.016 1.057.63 0 1.235-.149 2.02-.534l-.296 1.939c-.553.26-1.415.435-2.252.435-2.122 0-2.88-1.243-2.88-2.797 0-2.014 1.234-4.153 3.781-4.153 1.403 0 2.187.759 2.187 1.816 0 1.703-2.264 2.225-3.576 2.237Zm10.628-2.586c0 .249-.039.61-.078.845l-.733 4.476h-2.38l.67-4.103c.012-.111.05-.335.05-.46 0-.298-.192-.372-.424-.372-.308 0-.617.136-.823.236l-.759 4.7h-2.393l1.093-6.702h2.071l.027.535c.488-.31 1.132-.647 2.044-.647 1.21 0 1.635.597 1.635 1.492Zm7.064-.733c.682-.472 1.325-.734 2.213-.734 1.221 0 1.646.597 1.646 1.492 0 .25-.039.61-.077.845l-.733 4.476h-2.38l.682-4.19c.012-.111.039-.248.039-.335 0-.336-.193-.41-.426-.41-.295 0-.59.124-.81.236l-.758 4.7h-2.38l.682-4.19c.012-.112.038-.249.038-.336 0-.336-.193-.41-.425-.41-.308 0-.617.136-.823.236l-.759 4.7H25.41l1.093-6.702h2.046l.064.56c.476-.336 1.119-.672 1.98-.672.747 0 1.235.31 1.48.734Zm8.594 1.951c0-.547-.141-.92-.566-.92-.939 0-1.132 1.604-1.132 2.425 0 .622.18 1.007.605 1.007.888 0 1.093-1.691 1.093-2.512Zm-4.116 1.405c0-2.113 1.158-4.09 3.82-4.09 2.007 0 2.74 1.144 2.74 2.723 0 2.089-1.144 4.252-3.871 4.252-2.02 0-2.689-1.28-2.689-2.884Z" fill="#fff"/></svg>