<svg width="10" height="14" viewBox="0 0 10 14" fill="none" xmlns="http://www.w3.org/2000/svg"><path d="M2.2 7a.4.4 0 1 0 0 .8h5.6a.4.4 0 1 0 0-.8H2.2Zm0 1.6a.4.4 0 1 0 0 .8h5.6a.4.4 0 1 0 0-.8H2.2Zm0 1.6a.4.4 0 1 0 0 .8h5.6a.4.4 0 1 0 0-.8H2.2Zm-2-8A1.6 1.6 0 0 1 1.8.6h3.669a1.2 1.2 0 0 1 .848.352l3.132 3.131a1.2 1.2 0 0 1 .351.848v6.87a1.6 1.6 0 0 1-1.6 1.6H1.8a1.6 1.6 0 0 1-1.6-1.6V2.2Zm1.6-.8a.8.8 0 0 0-.8.8v9.6a.8.8 0 0 0 .8.8h6.4a.8.8 0 0 0 .8-.8V5.4H6.2A1.2 1.2 0 0 1 5 4.2V1.4H1.8Zm4.4 3.2h2.634L5.8 1.566V4.2a.4.4 0 0 0 .4.4Z" fill="#616161"/></svg>