<svg width="47" height="32" viewBox="0 0 47 32" fill="none" xmlns="http://www.w3.org/2000/svg"><rect width="46.345" height="32" rx="4" fill="#00D632"/><path d="M9.336 20.968a.22.22 0 0 1-.291-.057 1.691 1.691 0 0 0-1.438-.724c-1.095 0-1.767.866-1.767 2.104 0 1.237.685 2.12 1.78 2.12a1.673 1.673 0 0 0 1.44-.757.218.218 0 0 1 .287-.064l.52.301a.222.222 0 0 1 .081.326 2.707 2.707 0 0 1-2.327 1.203c-1.75 0-2.938-1.27-2.938-3.122 0-1.852 1.187-3.106 2.912-3.106a2.758 2.758 0 0 1 2.316 1.147.223.223 0 0 1-.06.32l-.515.31Z" fill="#fff"/><path fill-rule="evenodd" clip-rule="evenodd" d="M13.165 24.833v.252a.218.218 0 0 0 .141.205c.028.01.058.015.087.014h.572a.22.22 0 0 0 .22-.219v-2.861c0-1.036-.737-1.465-1.78-1.465a3.595 3.595 0 0 0-1.681.422.22.22 0 0 0-.09.29l.187.392a.218.218 0 0 0 .215.12.216.216 0 0 0 .083-.026 2.69 2.69 0 0 1 1.195-.302c.363 0 .792.1.792.47 0 .389-.47.455-1.047.536l-.14.02c-.597.084-1.565.27-1.565 1.355 0 .873.631 1.37 1.54 1.37.615 0 .997-.22 1.27-.573Zm-.898-1.475c.346-.06.66-.116.839-.251v.51c0 .665-.48.95-.993.95-.413 0-.7-.184-.7-.58 0-.43.33-.535.725-.606l.13-.023Z" fill="#fff"/><path d="M15.125 24.172a.219.219 0 0 1 .302-.029c.366.277.815.421 1.274.411.472 0 .82-.152.82-.522 0-.336-.32-.403-1.094-.539-.822-.137-1.607-.41-1.607-1.347 0-.976.841-1.388 1.801-1.388a2.696 2.696 0 0 1 1.669.547.219.219 0 0 1 .03.317l-.274.321a.22.22 0 0 1-.301.035 1.932 1.932 0 0 0-1.164-.373c-.403 0-.757.118-.757.437 0 .354.496.422.993.506 1.06.185 1.734.488 1.734 1.37 0 .925-.74 1.497-1.916 1.497a2.76 2.76 0 0 1-1.78-.58.22.22 0 0 1-.029-.315l.299-.348Zm4.077.915v-5.572a.22.22 0 0 1 .219-.22h.63a.22.22 0 0 1 .22.22v1.903a1.643 1.643 0 0 1 1.355-.657c.934 0 1.481.665 1.481 1.615v2.71a.22.22 0 0 1-.219.22h-.63a.22.22 0 0 1-.22-.22v-2.464c0-.472-.152-.9-.757-.9-.573 0-1.01.403-1.01 1.077v2.289a.22.22 0 0 1-.22.219h-.63a.22.22 0 0 1-.203-.136.218.218 0 0 1-.016-.084Z" fill="#fff"/><path fill-rule="evenodd" clip-rule="evenodd" d="m29.597 23.814.454 1.341a.219.219 0 0 0 .204.154h.782a.22.22 0 0 0 .207-.295l-2.06-5.571a.222.222 0 0 0-.207-.144h-1.012a.22.22 0 0 0-.205.137l-2.069 5.573a.218.218 0 0 0 .104.27.219.219 0 0 0 .101.024h.74a.219.219 0 0 0 .208-.148l.455-1.341h2.298Zm-2.02-.935.883-2.61.85 2.61h-1.734Zm5.253-1.456v-.345a.216.216 0 0 0-.06-.162.22.22 0 0 0-.159-.067h-.631a.219.219 0 0 0-.219.219v5.475c0 .121.098.22.219.22h.631a.22.22 0 0 0 .22-.22v-1.816a1.607 1.607 0 0 0 1.368.673c1.212 0 1.995-1.014 1.995-2.327s-.784-2.315-1.995-2.315a1.608 1.608 0 0 0-1.369.666Zm2.24 1.65c0 .765-.355 1.398-1.095 1.398-.755 0-1.145-.631-1.145-1.398 0-.767.411-1.381 1.145-1.381.733 0 1.095.616 1.095 1.381Zm2.853-1.65v-.345a.218.218 0 0 0-.22-.23h-.63a.219.219 0 0 0-.22.22v5.475c0 .121.099.22.22.22h.63a.22.22 0 0 0 .22-.22v-1.816a1.61 1.61 0 0 0 1.369.673c1.213 0 1.996-1.014 1.996-2.327s-.783-2.315-1.996-2.315a1.613 1.613 0 0 0-1.37.665Zm2.24 1.65c0 .765-.354 1.398-1.094 1.398-.75 0-1.146-.631-1.146-1.398 0-.767.412-1.381 1.146-1.381.733 0 1.095.616 1.095 1.381ZM24.788 5.352c1.194 0 1.78 0 2.425.203a2.51 2.51 0 0 1 1.506 1.506c.203.64.203 1.232.203 2.42v3.576c0 1.187 0 1.78-.203 2.42a2.511 2.511 0 0 1-1.506 1.506c-.639.203-1.232.203-2.42.203h-3.587c-1.186 0-1.78 0-2.42-.203a2.512 2.512 0 0 1-1.506-1.506c-.197-.64-.197-1.226-.197-2.42V9.476c0-1.187 0-1.78.203-2.42a2.511 2.511 0 0 1 1.506-1.506c.633-.198 1.228-.198 2.415-.198h3.58Z" fill="#fff"/><path d="M23.299 9.231c.582 0 1.144.207 1.588.583a.242.242 0 0 0 .332-.007l.458-.458a.235.235 0 0 0-.013-.344 3.625 3.625 0 0 0-1.222-.684l.137-.675a.238.238 0 0 0-.234-.286h-.88a.24.24 0 0 0-.235.187l-.123.604c-1.172.057-2.165.638-2.165 1.827 0 1.029.82 1.47 1.689 1.78.821.305 1.256.419 1.256.849s-.433.7-1.073.7c-.62.01-1.22-.224-1.669-.652a.238.238 0 0 0-.334 0l-.49.479a.235.235 0 0 0-.053.263.22.22 0 0 0 .053.078c.4.374.887.64 1.417.776l-.137.626a.245.245 0 0 0 .13.267.243.243 0 0 0 .103.025h.883a.24.24 0 0 0 .236-.188l.127-.593c1.404-.086 2.263-.842 2.263-1.948 0-1.019-.856-1.448-1.895-1.799-.594-.223-1.107-.37-1.107-.81 0-.441.479-.6.958-.6Z" fill="#00D632"/></svg>