<svg width="24" height="24" viewBox="0 0 24 24" fill="none" xmlns="http://www.w3.org/2000/svg"><path d="M21.71 20.29 18 16.61A9 9 0 1 0 16.61 18l3.68 3.68a1.002 1.002 0 0 0 1.42 0 1 1 0 0 0 0-1.39ZM11 18a7 7 0 1 1 0-14 7 7 0 0 1 0 14Z" fill="#000"/><path d="M11 11.5c.275 0 .51-.098.707-.294A.961.961 0 0 0 12 10.5a.963.963 0 0 0-.294-.707A.961.961 0 0 0 11 9.5a.963.963 0 0 0-.707.294.961.961 0 0 0-.293.706c0 .275.098.51.294.707A.961.961 0 0 0 11 11.5Zm0 5c-1.342-1.142-2.344-2.202-3.006-3.181C7.332 12.34 7 11.434 7 10.6c0-1.25.402-2.246 1.207-2.987C9.01 6.87 9.941 6.5 11 6.5s1.99.37 2.794 1.112C14.598 8.354 15 9.35 15 10.6c0 .833-.331 1.74-.994 2.719-.663.98-1.665 2.04-3.006 3.181Z" fill="#000"/></svg>