<svg width="456" height="85" viewBox="0 0 456 85" fill="none" xmlns="http://www.w3.org/2000/svg"><path fill-rule="evenodd" clip-rule="evenodd" d="M20.083 28.136c-2.947-1.731-5.154-3.852-6.436-5.502a13.971 13.971 0 0 1-.303-.404c.39-.298.777-.58 1.16-.85 2.721-1.91 5.253-3.11 7.614-3.762 5.041-1.393 9.307-.291 12.989 1.715a30.817 30.817 0 0 1 3.425 2.2c1.18.862 2.294 1.774 3.35 2.663.084.07.168.14.25.211l.789.668.42.358.101-.369.029-.101c.311-1.12.667-2.3 1.105-3.487.676-1.831 1.547-3.68 2.752-5.352 2.415-3.352 6.172-5.996 12.382-6.373 2.614-.158 5.662.085 9.228.847.245.052.492.107.742.164l-.043.11c-.865 2.248-1.772 4.6-3.087 6.854a22.888 22.888 0 0 1-1.338 2.043 20.383 20.383 0 0 1-1.239 1.525c-1.593 1.775-3.627 3.4-6.33 4.749.755.002 1.504.046 2.242.13 2.84.323 5.535 1.236 7.887 2.662l.91.765.268.223c4.393 3.692 6.438 8.505 6.438 14.095 0 3.47-.788 7.24-2.292 11.228-1.93 5.116-4.894 9.977-8.157 13.841-2.436 2.885-4.73 4.854-6.527 6.019-18.954-2.556-28.904-9.209-33.524-15.354-2.674-3.556-3.862-7.298-3.931-10.836a16.845 16.845 0 0 1 1.783-7.878l.859-1.783c1.967-3.26 4.85-6 8.042-7.846-4.08.038-7.67-1.087-10.609-2.643a24.54 24.54 0 0 1-.949-.53Zm-5.673 7.89a22.042 22.042 0 0 1-.08-.052c-4.073-2.573-7.063-5.655-8.78-8.04L0 20.224l7.54-5.744c9.092-6.924 18.002-8.566 26.253-6.153 1.997.584 3.867 1.393 5.59 2.31a24.992 24.992 0 0 1 4.2-4.633C50.46.133 59.968-1.42 71.812 1.292l10.886 2.493-4.043 10.493-.042.11-.128.333v.001c-.806 2.095-1.808 4.701-3.346 7.428l-.09.16.065.053v.002c6.861 5.766 9.691 13.072 9.875 20.662.01.4.012.8.008 1.2C84.788 61.863 70.78 80.661 60.188 85c-35.397-3.838-48.831-21.026-48.864-36.453v-.088a26.643 26.643 0 0 1 2.64-11.527v-.002c.146-.304.295-.605.446-.905Z" fill="#21105D"/><path d="M55.17 58.655c.177-6.608-1.34-16.55-7.78-22.534-1.307-1.215-1.804-3.108-1.004-4.583.837-1.542 2.69-2.055 3.955-1.044 6.81 5.443 11.62 16.595 10.71 29.133-.114 1.576-1.572 2.69-3.173 2.462-1.603-.227-2.755-1.74-2.709-3.434Z" fill="#21105D" stroke="#21105D"/><path d="M101 70.273V17.909h21.631c3.92 0 7.304.767 10.15 2.301 2.864 1.517 5.071 3.64 6.622 6.367 1.552 2.71 2.327 5.863 2.327 9.46 0 3.614-.792 6.776-2.378 9.486-1.568 2.693-3.809 4.78-6.724 6.264-2.915 1.483-6.375 2.224-10.381 2.224h-13.346V44.04h10.994c1.909 0 3.503-.333 4.781-.997 1.296-.665 2.276-1.594 2.941-2.787.664-1.21.997-2.617.997-4.22 0-1.618-.333-3.016-.997-4.192-.665-1.194-1.645-2.114-2.941-2.762-1.295-.647-2.889-.971-4.781-.971h-6.239v42.162H101Zm64.553.741c-4.108 0-7.653-.81-10.636-2.429-2.966-1.636-5.25-3.963-6.852-6.98-1.586-3.034-2.378-6.64-2.378-10.815 0-4.057.801-7.602 2.403-10.637 1.603-3.05 3.861-5.42 6.776-7.108 2.915-1.704 6.349-2.556 10.304-2.556 2.795 0 5.352.434 7.67 1.304 2.318.869 4.321 2.156 6.009 3.86 1.687 1.705 3 3.81 3.937 6.316.938 2.488 1.407 5.343 1.407 8.565v3.12h-34.134v-7.262h22.5c-.017-1.33-.332-2.514-.946-3.554a6.427 6.427 0 0 0-2.531-2.429c-1.057-.596-2.276-.895-3.657-.895-1.397 0-2.65.316-3.758.946a6.96 6.96 0 0 0-2.634 2.532c-.647 1.056-.988 2.258-1.022 3.605v7.389c0 1.602.315 3.008.946 4.219a6.816 6.816 0 0 0 2.684 2.787c1.159.664 2.54.997 4.142.997 1.108 0 2.114-.154 3.017-.46a6.442 6.442 0 0 0 2.327-1.356 5.593 5.593 0 0 0 1.458-2.199l11.48.333c-.478 2.574-1.526 4.815-3.145 6.724-1.602 1.892-3.708 3.367-6.316 4.423-2.607 1.04-5.625 1.56-9.051 1.56Zm39.369-.179c-2.898 0-5.531-.75-7.901-2.25-2.369-1.5-4.261-3.75-5.676-6.75s-2.122-6.724-2.122-11.173c0-4.62.733-8.42 2.199-11.404 1.466-2.983 3.383-5.19 5.753-6.622 2.386-1.432 4.951-2.147 7.696-2.147 2.062 0 3.827.358 5.292 1.073 1.466.7 2.677 1.603 3.631 2.71.955 1.109 1.679 2.26 2.173 3.452h.256V31h12.503v39.273h-12.375v-6.367h-.384c-.528 1.21-1.278 2.344-2.25 3.4-.971 1.058-2.19 1.91-3.656 2.558-1.449.647-3.162.971-5.139.971Zm4.347-9.741c1.517 0 2.812-.426 3.886-1.279 1.074-.869 1.9-2.088 2.48-3.656.58-1.568.869-3.409.869-5.523 0-2.147-.289-3.997-.869-5.548-.562-1.551-1.389-2.744-2.48-3.58-1.074-.835-2.369-1.252-3.886-1.252-1.552 0-2.864.426-3.938 1.278-1.074.852-1.892 2.054-2.455 3.605-.545 1.551-.818 3.384-.818 5.497 0 2.114.282 3.955.844 5.523.563 1.568 1.372 2.787 2.429 3.656 1.074.853 2.386 1.279 3.938 1.279Zm45.696 9.92c-4.142 0-7.696-.852-10.662-2.557-2.949-1.704-5.216-4.073-6.801-7.108-1.585-3.05-2.378-6.58-2.378-10.585 0-4.023.793-7.551 2.378-10.585 1.602-3.051 3.878-5.429 6.827-7.134 2.966-1.704 6.503-2.556 10.611-2.556 3.63 0 6.792.656 9.485 1.968 2.711 1.313 4.824 3.17 6.341 5.574 1.534 2.387 2.344 5.19 2.429 8.412h-11.684c-.239-2.011-.921-3.588-2.046-4.73-1.108-1.142-2.557-1.713-4.346-1.713-1.449 0-2.719.41-3.81 1.227-1.091.801-1.943 1.995-2.557 3.58-.596 1.568-.895 3.511-.895 5.83 0 2.318.299 4.278.895 5.88.614 1.585 1.466 2.787 2.557 3.605 1.091.801 2.361 1.202 3.81 1.202 1.159 0 2.181-.247 3.068-.742.903-.494 1.645-1.218 2.224-2.173.58-.971.946-2.148 1.1-3.528h11.684c-.119 3.238-.929 6.068-2.429 8.488-1.483 2.42-3.571 4.304-6.264 5.65-2.676 1.33-5.855 1.995-9.537 1.995Zm37.132-23.139v22.398h-12.503V17.909h12.094V38.21h.434c.887-2.42 2.335-4.312 4.347-5.676 2.028-1.364 4.508-2.045 7.44-2.045 2.762 0 5.165.613 7.21 1.84 2.046 1.21 3.631 2.924 4.756 5.14 1.142 2.216 1.705 4.806 1.688 7.773v25.03H305.06V47.697c.017-2.182-.529-3.886-1.637-5.114-1.108-1.227-2.667-1.84-4.679-1.84-1.312 0-2.471.29-3.477.869-.989.562-1.764 1.372-2.327 2.429-.545 1.057-.826 2.335-.843 3.835Zm33.27 22.398V17.909h21.631c3.92 0 7.304.767 10.151 2.301 2.863 1.517 5.071 3.64 6.622 6.367 1.551 2.71 2.326 5.863 2.326 9.46 0 3.614-.792 6.776-2.377 9.486-1.569 2.693-3.81 4.78-6.725 6.264-2.915 1.483-6.375 2.224-10.381 2.224h-13.346V44.04h10.994c1.909 0 3.503-.333 4.781-.997 1.296-.665 2.276-1.594 2.941-2.787.665-1.21.997-2.617.997-4.22 0-1.618-.332-3.016-.997-4.192-.665-1.194-1.645-2.114-2.941-2.762-1.295-.647-2.889-.971-4.781-.971h-6.238v42.162h-12.657Zm60.539.562c-2.897 0-5.531-.75-7.9-2.25-2.37-1.5-4.262-3.75-5.676-6.75-1.415-3-2.123-6.724-2.123-11.173 0-4.62.733-8.42 2.199-11.404 1.466-2.983 3.384-5.19 5.753-6.622 2.387-1.432 4.952-2.147 7.696-2.147 2.063 0 3.827.358 5.293 1.073 1.466.7 2.676 1.603 3.63 2.71.955 1.109 1.679 2.26 2.174 3.452h.255V31h12.503v39.273h-12.375v-6.367h-.383c-.529 1.21-1.279 2.344-2.25 3.4-.972 1.058-2.191 1.91-3.656 2.558-1.449.647-3.162.971-5.14.971Zm4.347-9.741c1.517 0 2.812-.426 3.886-1.279 1.074-.869 1.901-2.088 2.48-3.656.58-1.568.87-3.409.87-5.523 0-2.147-.29-3.997-.87-5.548-.562-1.551-1.389-2.744-2.48-3.58-1.074-.835-2.369-1.252-3.886-1.252-1.551 0-2.864.426-3.938 1.278-1.073.852-1.892 2.054-2.454 3.605-.546 1.551-.818 3.384-.818 5.497 0 2.114.281 3.955.843 5.523.563 1.568 1.373 2.787 2.429 3.656 1.074.853 2.387 1.279 3.938 1.279ZM425.262 85c-1.5 0-2.915-.12-4.244-.358-1.33-.222-2.472-.52-3.426-.895l2.761-9.077c1.227.41 2.335.648 3.324.716 1.006.069 1.866-.093 2.582-.486.733-.375 1.296-1.048 1.688-2.02l.486-1.175L414.472 31h13.091l7.236 28.023h.409L442.546 31h13.168L440.91 74.031c-.716 2.148-1.73 4.04-3.043 5.676-1.295 1.654-2.974 2.95-5.037 3.887-2.045.937-4.568 1.406-7.568 1.406Z" fill="#21105D"/></svg>