<svg width="24" height="24" viewBox="0 0 24 24" fill="none" xmlns="http://www.w3.org/2000/svg"><path d="M10.16 11.857c0-.469.388-.857.857-.857h1.428V9.57c0-.468.389-.857.857-.857.469 0 .857.389.857.857V11h1.429c.469 0 .857.388.857.857a.863.863 0 0 1-.857.857h-1.429v1.428a.863.863 0 0 1-.857.857.863.863 0 0 1-.857-.857v-1.428h-1.428a.863.863 0 0 1-.857-.857Zm.982 8.285c0 .949-.765 1.714-1.714 1.714a1.712 1.712 0 0 1-1.714-1.714c0-.948.766-1.714 1.714-1.714.949 0 1.714.765 1.714 1.714Zm7.429 0c0 .949-.766 1.714-1.715 1.714a1.712 1.712 0 0 1-1.714-1.714c0-.948.766-1.714 1.714-1.714.949 0 1.715.765 1.715 1.714Zm3.405-12.65-2.285 9.142a.857.857 0 0 1-.835.651H7.428a.867.867 0 0 1-.845-.709L4.423 4.714H2.857A.863.863 0 0 1 2 3.857C2 3.39 2.389 3 2.857 3h2.286c.411 0 .765.297.845.709l.492 2.72h14.662a.862.862 0 0 1 .834 1.062Zm-1.931.65H6.788l1.349 7.429h10.045l1.851-7.428h.012Z" fill="#616161"/></svg>