<svg width="32" height="32" viewBox="0 0 32 32" fill="none" xmlns="http://www.w3.org/2000/svg"><path d="M14.856 26.856a2.283 2.283 0 0 1-2.286 2.286 2.283 2.283 0 0 1-2.285-2.286 2.283 2.283 0 0 1 2.285-2.286 2.283 2.283 0 0 1 2.286 2.286Zm9.904 0a2.283 2.283 0 0 1-2.285 2.286 2.283 2.283 0 0 1-2.286-2.286 2.283 2.283 0 0 1 2.286-2.286 2.283 2.283 0 0 1 2.285 2.286ZM29.3 9.988l-3.047 12.19a1.143 1.143 0 0 1-1.112.869H9.904a1.156 1.156 0 0 1-1.128-.945L5.896 6.286H3.81a1.151 1.151 0 0 1-1.143-1.143A1.15 1.15 0 0 1 3.809 4h3.047c.549 0 1.021.396 1.128.945l.655 3.626h19.55A1.149 1.149 0 0 1 29.3 9.988Zm-2.574.869H9.05l1.798 9.904h13.394l2.469-9.904h.015Z" fill="#212121"/><path d="M16.472 13.529a.667.667 0 1 0-.944.944L17.057 16l-1.529 1.527a.668.668 0 0 0 .944.944l1.527-1.529 1.528 1.53a.667.667 0 1 0 .944-.945L18.94 16l1.53-1.527a.668.668 0 0 0-.944-.944l-1.528 1.529-1.527-1.53Z" fill="#212121"/></svg>