<svg width="24" height="24" viewBox="0 0 24 24" fill="none" xmlns="http://www.w3.org/2000/svg"><rect width="24" height="24" rx="4" fill="#4A4AF4"/><path d="M6.617 17.52a6.435 6.435 0 1 1 10.764 0h1.801a8 8 0 1 0-14.364 0h1.799Z" fill="#fff"/><path d="M12.107 10.198c-1.171 0-2.52.553-3.252 1.136l.667 1.408c.587-.537 1.537-.996 2.392-.996.814 0 1.262.27 1.262.82 0 .366-.297.576-.86.627-2.11.194-3.75.854-3.75 2.474 0 1.285.926 2.061 2.45 2.061a2.58 2.58 0 0 0 2.252-1.314v1.104h1.901v-4.63c0-1.912-1.33-2.685-3.062-2.685v-.005Zm-.555 6.045c-.61 0-.953-.263-.953-.696 0-.903 1.098-1.12 2.538-1.12 0 .945-.632 1.816-1.586 1.816Z" fill="#fff"/></svg>