<svg width="14" height="15" viewBox="0 0 14 15" fill="none" xmlns="http://www.w3.org/2000/svg"><path d="M13.667 10.335a4.001 4.001 0 0 1-3.142 3.906l-.426-1.275a2.67 2.67 0 0 0 1.878-1.3h-1.644A1.333 1.333 0 0 1 9 10.335V7.667a1.333 1.333 0 0 1 1.333-1.333h1.959a5.334 5.334 0 0 0-10.584 0h1.959A1.333 1.333 0 0 1 5 7.667v2.667a1.333 1.333 0 0 1-1.333 1.333h-2a1.333 1.333 0 0 1-1.334-1.333V7a6.667 6.667 0 1 1 13.334 0v3.335Zm-1.334-.002V7.668h-2v2.667h2ZM1.667 7.668v2.667h2V7.667h-2Z" fill="#616161"/></svg>