<svg width="37" height="32" viewBox="0 0 37 32" fill="none" xmlns="http://www.w3.org/2000/svg"><g clip-path="url(#a)"><path d="M0 2.372v27.256A2.38 2.38 0 0 0 2.372 32h16.285c12.311 0 17.648-6.891 17.648-16.036C36.305 6.867 30.968 0 18.657 0H2.372A2.38 2.38 0 0 0 0 2.372Z" fill="#fff"/><path d="M10.9 6.69v20.139h8.765c7.958 0 11.41-4.495 11.41-10.853 0-6.084-3.452-10.805-11.41-10.805h-7.247c-.842 0-1.518.688-1.518 1.518Z" fill="#C06"/><path d="M18.657 29.83H4.495a2.278 2.278 0 0 1-2.277-2.278V4.46a2.278 2.278 0 0 1 2.277-2.278h14.162c13.438 0 15.442 8.647 15.442 13.794 0 8.931-5.491 13.853-15.442 13.853ZM4.495 2.94c-.842 0-1.518.677-1.518 1.519v23.092c0 .842.676 1.518 1.518 1.518h14.162c9.465 0 14.683-4.649 14.683-13.094 0-11.338-9.204-13.035-14.683-13.035H4.495Z" fill="#000"/><path d="M13.984 13.26a2.6 2.6 0 0 1 .866.143c.272.094.498.249.7.438.189.202.343.451.462.736.107.296.166.64.166 1.043 0 .356-.048.677-.13.973a2.27 2.27 0 0 1-.404.77c-.178.214-.403.38-.676.51a2.39 2.39 0 0 1-.96.19h-2.076v-4.815h2.052v.012Zm-.072 3.926a1.5 1.5 0 0 0 .451-.071.884.884 0 0 0 .38-.25 1.38 1.38 0 0 0 .272-.45 1.88 1.88 0 0 0 .107-.676c0-.237-.023-.463-.07-.652a1.297 1.297 0 0 0-.238-.498 1.07 1.07 0 0 0-.427-.32 1.745 1.745 0 0 0-.652-.107h-.76v3.036h.938v-.012Zm6.548-3.926v.89h-2.54v1.032h2.337V16H17.92v1.174h2.598v.89h-3.653v-4.816h3.594v.012Zm3.629 0 1.803 4.816h-1.103l-.368-1.068h-1.803l-.38 1.068h-1.067l1.815-4.816h1.103Zm.06 2.954-.606-1.768h-.012l-.628 1.768h1.245Zm3.462-2.954v3.926h2.349v.89h-3.404V13.26h1.055Z" fill="#fff"/><path d="M6.939 17.886a2.218 2.218 0 1 0 0-4.436 2.218 2.218 0 0 0 0 4.436Zm1.671 8.943a3.353 3.353 0 0 1-3.356-3.357v-2.621a1.683 1.683 0 1 1 3.368 0v5.978h-.011Z" fill="#000"/></g><defs><clipPath id="a"><path fill="#fff" d="M0 0h36.305v32H0z"/></clipPath></defs></svg>