<svg aria-hidden="true" data-prefix="far" data-icon="purchase-order" class="svg-inline--fa fa-w-18" fill="currentColor" viewBox="0 0 32 32" xmlns="http://www.w3.org/2000/svg"><path d="M9.333 7a1.333 1.333 0 0 0 0 2.667h13.334a1.333 1.333 0 0 0 0-2.667H9.333ZM8 13.667a1.333 1.333 0 0 1 1.333-1.334h5.334a1.333 1.333 0 0 1 0 2.667H9.333A1.334 1.334 0 0 1 8 13.667Z"/><path fill-rule="evenodd" clip-rule="evenodd" d="M2.667 5.333a4 4 0 0 1 4-4h18.667a4 4 0 0 1 4 4v21.333a4 4 0 0 1-4 4H6.667a4 4 0 0 1-4-4V5.333Zm4-1.333h18.667a1.333 1.333 0 0 1 1.333 1.333v21.333A1.334 1.334 0 0 1 25.334 28H6.667a1.334 1.334 0 0 1-1.333-1.334V5.333A1.333 1.333 0 0 1 6.667 4Z"/><path d="M30.292 21.193h-14c.608.146.933.318 1.105.48a.607.607 0 0 1 .203.482c0 .115-.04.267-.178.392-.14.125-.409.253-.922.253-.385 0-.652-.069-.835-.17a.738.738 0 0 1-.347-.386c-.105-.27-.355-.494-.683-.494h-.14a.727.727 0 0 0-.677.994c.3.732.959 1.168 1.682 1.367v.139a.999.999 0 1 0 2 0v-.124c.44-.11.848-.3 1.16-.59.367-.34.59-.803.59-1.386 0-.797-.348-1.344-.849-1.722-.487-.367-1.116-.571-1.688-.72-.562-.146-.897-.286-1.09-.429a.574.574 0 0 1-.176-.192.544.544 0 0 1 .205-.674c.177-.125.46-.213.848-.213.326 0 .541.062.682.15a.63.63 0 0 1 .274.372c.085.283.332.528.674.528h.15a.724.724 0 0 0 .685-.97c-.22-.62-.713-1.135-1.465-1.374v-.156a.999.999 0 1 0-2 0v.134c-.946.266-1.75.942-1.75 2.001 0 .66.278 1.162.746 1.535.455.364 1.085.602 1.796.773Z"/></svg>