<svg width="48" height="32" viewBox="0 0 48 32" fill="none" xmlns="http://www.w3.org/2000/svg"><rect x=".5" y=".5" width="47" height="31" rx="3.5" fill="#FAFAFA" stroke="#E0E0E0"/><path d="M22.79 15.84v4.103h-1.311V9.81h3.477a3.163 3.163 0 0 1 2.251.877 2.822 2.822 0 0 1 .94 2.14 2.79 2.79 0 0 1-.94 2.15c-.608.576-1.358.863-2.252.863H22.79Zm0-4.783v3.537h2.198a1.742 1.742 0 0 0 1.297-.524 1.728 1.728 0 0 0 .527-1.238 1.717 1.717 0 0 0-.527-1.238 1.71 1.71 0 0 0-1.297-.538H22.79Zm8.378 1.726c.97 0 1.734.257 2.295.772.56.514.84 1.219.84 2.115v4.273H33.05v-.962h-.057c-.542.793-1.264 1.189-2.166 1.189-.769 0-1.412-.227-1.93-.68a2.172 2.172 0 0 1-.777-1.697c0-.718.273-1.289.82-1.712.545-.424 1.274-.636 2.186-.638.779 0 1.42.142 1.923.425v-.298a1.473 1.473 0 0 0-.54-1.152 1.864 1.864 0 0 0-1.266-.475c-.733 0-1.312.307-1.739.92l-1.154-.721c.635-.906 1.575-1.359 2.82-1.359Zm-1.696 5.038a1.035 1.035 0 0 0 .435.849c.29.226.65.346 1.019.34a2.1 2.1 0 0 0 1.474-.609c.435-.406.652-.882.652-1.428-.409-.324-.979-.486-1.71-.486-.533 0-.977.128-1.332.383-.36.259-.538.573-.538.95Zm12.029-4.811L37.124 23H35.77l1.625-3.496-2.879-6.495h1.425l2.08 4.982h.03l2.023-4.982H41.5Z" fill="#5F6368"/><path d="M17.492 14.955c0-.397-.033-.793-.1-1.184h-5.53v2.242h3.167a2.685 2.685 0 0 1-1.17 1.77v1.455h1.889c1.107-1.013 1.744-2.511 1.744-4.283Z" fill="#4285F4"/><path d="M11.862 20.645c1.582 0 2.915-.517 3.886-1.407l-1.89-1.455c-.526.354-1.203.557-1.996.557-1.529 0-2.827-1.024-3.29-2.403H6.623v1.5a5.837 5.837 0 0 0 2.161 2.341c.925.567 1.99.867 3.077.867Z" fill="#34A853"/><path d="M8.571 15.937a3.466 3.466 0 0 1 0-2.229v-1.5H6.624a5.79 5.79 0 0 0 0 5.229l1.947-1.5Z" fill="#FBBC04"/><path d="M11.862 11.305c.836-.014 1.644.3 2.25.873l1.673-1.662A5.655 5.655 0 0 0 11.862 9a5.89 5.89 0 0 0-3.077.867 5.837 5.837 0 0 0-2.16 2.341l1.946 1.5c.464-1.38 1.762-2.403 3.291-2.403Z" fill="#EA4335"/></svg>