<svg width="24" height="24" viewBox="0 0 24 24" fill="none" xmlns="http://www.w3.org/2000/svg"><path d="M3 4.926V18.44c0 .647.53 1.176 1.176 1.176h8.074c6.104 0 8.75-3.416 8.75-7.95 0-4.51-2.646-7.915-8.75-7.915H4.176A1.18 1.18 0 0 0 3 4.926Z" fill="#fff"/><path d="M8.404 7.067v9.985h4.346c3.945 0 5.657-2.23 5.657-5.381 0-3.017-1.712-5.357-5.657-5.357H9.157a.754.754 0 0 0-.753.753Z" fill="#C06"/><path d="M12.25 18.54H5.229a1.13 1.13 0 0 1-1.13-1.13V5.961a1.13 1.13 0 0 1 1.13-1.129h7.02c6.663 0 7.657 4.287 7.657 6.839 0 4.428-2.722 6.868-7.656 6.868ZM5.229 5.207a.75.75 0 0 0-.753.753v11.45a.75.75 0 0 0 .753.752h7.02c4.693 0 7.28-2.305 7.28-6.492 0-5.622-4.562-6.463-7.28-6.463H5.23Z" fill="#000"/><path d="M9.933 10.324c.153 0 .294.024.43.07a.965.965 0 0 1 .346.218c.094.1.17.224.23.365a1.77 1.77 0 0 1 .018 1 1.125 1.125 0 0 1-.2.382.971.971 0 0 1-.336.253 1.186 1.186 0 0 1-.476.094h-1.03v-2.388h1.018v.006Zm-.035 1.947a.736.736 0 0 0 .223-.036.439.439 0 0 0 .188-.123.71.71 0 0 0 .136-.223.932.932 0 0 0 .053-.336c0-.117-.012-.229-.036-.323a.642.642 0 0 0-.117-.247.53.53 0 0 0-.212-.159.867.867 0 0 0-.323-.053h-.377v1.506h.465v-.006Zm3.246-1.506h-1.259v.512h1.159v.406h-1.159v.582h1.288v.44h-1.811v-2.387h1.782v.447Zm1.799-.441.894 2.388h-.547l-.182-.53h-.894l-.188.53h-.53l.9-2.388h.547Zm.03 1.465-.3-.877h-.006l-.312.877h.617Zm1.717-1.465v1.947h1.164v.44h-1.688v-2.387h.524Z" fill="#fff"/><path d="M6.44 12.618a1.1 1.1 0 1 0 0-2.2 1.1 1.1 0 0 0 0 2.2Zm.83 4.434a1.663 1.663 0 0 1-1.665-1.665v-1.3a.834.834 0 1 1 1.67 0v2.965H7.27Z" fill="#000"/></svg>