<svg width="85" height="85" viewBox="0 0 85 85" fill="none" xmlns="http://www.w3.org/2000/svg"><path fill-rule="evenodd" clip-rule="evenodd" d="M20.083 28.136c-2.947-1.731-5.154-3.852-6.436-5.502a13.971 13.971 0 0 1-.303-.404c.39-.298.777-.58 1.16-.85 2.721-1.91 5.253-3.11 7.614-3.762 5.041-1.393 9.307-.291 12.989 1.715a30.817 30.817 0 0 1 3.425 2.2c1.18.862 2.294 1.774 3.35 2.663.084.07.168.14.25.211l.789.668.42.358.101-.369.029-.101c.311-1.12.667-2.3 1.105-3.487.676-1.831 1.547-3.68 2.752-5.352 2.415-3.352 6.172-5.996 12.382-6.373 2.614-.158 5.662.085 9.228.847.245.052.492.107.742.164l-.043.11c-.865 2.248-1.772 4.6-3.087 6.854a22.888 22.888 0 0 1-1.338 2.043 20.383 20.383 0 0 1-1.239 1.525c-1.593 1.775-3.627 3.4-6.33 4.749.755.002 1.504.046 2.242.13 2.84.323 5.535 1.236 7.887 2.662l.91.765.268.223c4.393 3.692 6.438 8.505 6.438 14.095 0 3.47-.788 7.24-2.292 11.228-1.93 5.116-4.894 9.977-8.157 13.841-2.436 2.885-4.73 4.854-6.527 6.019-18.954-2.556-28.904-9.209-33.524-15.354-2.674-3.556-3.862-7.298-3.931-10.836a16.845 16.845 0 0 1 1.783-7.878l.859-1.783c1.967-3.26 4.85-6 8.042-7.846-4.08.038-7.67-1.087-10.609-2.643a24.54 24.54 0 0 1-.949-.53Zm-5.673 7.89a22.042 22.042 0 0 1-.08-.052c-4.073-2.573-7.063-5.655-8.78-8.04L0 20.224l7.54-5.744c9.092-6.924 18.002-8.566 26.253-6.153 1.997.584 3.867 1.393 5.59 2.31a24.992 24.992 0 0 1 4.2-4.633C50.46.133 59.968-1.42 71.812 1.292l10.886 2.493-4.043 10.493-.042.11-.128.333v.001c-.806 2.095-1.808 4.701-3.346 7.428l-.09.16.065.053v.002c6.861 5.766 9.691 13.072 9.875 20.662.01.4.012.8.008 1.2C84.788 61.863 70.78 80.661 60.188 85c-35.397-3.838-48.831-21.026-48.864-36.453v-.088a26.643 26.643 0 0 1 2.64-11.527v-.002c.146-.304.295-.605.446-.905Z" fill="#21105D"/><path d="M55.17 58.655c.177-6.608-1.34-16.55-7.78-22.534-1.307-1.215-1.804-3.108-1.004-4.583.837-1.542 2.69-2.055 3.955-1.044 6.81 5.443 11.62 16.595 10.71 29.133-.114 1.576-1.572 2.69-3.173 2.462-1.603-.227-2.755-1.74-2.709-3.434Z" fill="#21105D" stroke="#21105D"/></svg>