<svg width="25" height="24" viewBox="0 0 25 24" fill="none" xmlns="http://www.w3.org/2000/svg"><g clip-path="url(#a)"><path d="M21.833 8.667h-5.334A1.333 1.333 0 0 0 15.166 10v10a1.333 1.333 0 0 0 1.333 1.334h5.334A1.333 1.333 0 0 0 23.166 20V10a1.333 1.333 0 0 0-1.333-1.333Zm0 1.333v8.667h-5.334V10h5.334Z" fill="#21105D"/><path d="M19.167 2.667h-16A1.333 1.333 0 0 0 1.834 4v10.667A1.333 1.333 0 0 0 3.167 16h5.334v1.334H6.714a.8.8 0 0 0-.88.666.8.8 0 0 0 .88.667h7.067v-.247h.053v-3.753H3.167V4h16v3.334h1.334V4a1.333 1.333 0 0 0-1.334-1.333Z" fill="#000"/></g><defs><clipPath id="a"><path fill="#fff" transform="translate(.5)" d="M0 0h24v24H0z"/></clipPath></defs></svg>