<svg width="48" height="32" viewBox="0 0 48 32" fill="none" xmlns="http://www.w3.org/2000/svg"><rect width="48" height="32" rx="4" fill="#FFC439"/><path fill-rule="evenodd" clip-rule="evenodd" d="M27.892 7.97c-.01.07-.023.14-.037.213-.477 2.46-2.11 3.31-4.195 3.31h-1.062a.516.516 0 0 0-.51.439l-.697 4.442a.272.272 0 0 0 .268.316h1.883a.454.454 0 0 0 .448-.384l.018-.096.355-2.259.023-.124a.453.453 0 0 1 .447-.384h.282c1.824 0 3.253-.744 3.67-2.896.174-.9.084-1.65-.377-2.178a1.8 1.8 0 0 0-.516-.399Z" fill="#298FC2"/><path fill-rule="evenodd" clip-rule="evenodd" d="M27.393 7.77a3.752 3.752 0 0 0-.464-.103 5.878 5.878 0 0 0-.936-.069h-2.837a.449.449 0 0 0-.447.384l-.603 3.838-.017.112a.516.516 0 0 1 .51-.439h1.061c2.085 0 3.718-.85 4.195-3.31.014-.073.027-.144.037-.213a2.539 2.539 0 0 0-.499-.2Z" fill="#22284F"/><path fill-rule="evenodd" clip-rule="evenodd" d="M22.71 7.982a.454.454 0 0 1 .446-.384h2.837c.336 0 .65.022.936.069a4.364 4.364 0 0 1 .464.103l.107.034c.14.047.271.102.392.166.142-.91 0-1.528-.49-2.089-.54-.617-1.514-.881-2.76-.881h-3.62a.518.518 0 0 0-.51.439l-1.508 9.593c-.03.19.116.361.307.361h2.234l1.164-7.41Z" fill="#28356A"/><path d="M9.598 19.979h2.26c.446 0 .806.127 1.08.38.273.25.41.603.41 1.059 0 .392-.122.734-.366 1.025-.244.29-.619.434-1.125.434h-1.579V25h-.68v-5.021Zm3.063 1.442c0-.369-.137-.62-.41-.752-.15-.07-.357-.105-.62-.105h-1.353v1.74h1.354c.305 0 .552-.066.742-.196.19-.13.287-.358.287-.687Zm1.93 2.605c0 .178.066.318.196.42.13.103.283.154.461.154.216 0 .426-.05.629-.15.342-.167.513-.439.513-.817v-.496a1.05 1.05 0 0 1-.29.12 2.48 2.48 0 0 1-.35.068l-.372.048c-.223.03-.39.076-.502.14-.19.107-.284.278-.284.513Zm1.491-1.244c.141-.018.236-.078.284-.178a.54.54 0 0 0 .04-.236c0-.21-.075-.361-.225-.454-.148-.096-.361-.144-.639-.144-.321 0-.55.087-.684.26-.075.095-.124.238-.147.427h-.574c.012-.451.157-.765.438-.94a1.8 1.8 0 0 1 .98-.267c.431 0 .781.082 1.05.247.267.164.4.419.4.765v2.11a.28.28 0 0 0 .038.153c.027.039.083.058.167.058l.092-.003.11-.017v.454a1.735 1.735 0 0 1-.22.051c-.05.007-.118.01-.204.01-.212 0-.366-.075-.462-.225a.869.869 0 0 1-.106-.338 1.565 1.565 0 0 1-.54.427 1.67 1.67 0 0 1-.776.181c-.339 0-.617-.103-.833-.308a1.036 1.036 0 0 1-.322-.775c0-.34.106-.603.318-.79.212-.187.49-.302.834-.345l.981-.123Zm4.221-1.443h.68c-.086.235-.279.77-.577 1.607-.223.629-.41 1.141-.56 1.538-.356.934-.607 1.504-.753 1.709-.146.205-.396.307-.752.307-.086 0-.154-.003-.201-.01a1.594 1.594 0 0 1-.171-.037v-.56c.107.029.184.047.232.054.048.007.09.01.127.01.114 0 .197-.02.25-.058a.488.488 0 0 0 .136-.137 17.102 17.102 0 0 0 .277-.656l-1.354-3.767h.697l.981 2.98.988-2.98Zm3.244-1.36h.68v4.423h2.543V25h-3.223v-5.021Zm4.286 4.047c0 .178.065.318.195.42a.72.72 0 0 0 .461.154c.217 0 .426-.05.63-.15.341-.167.512-.439.512-.817v-.496a1.052 1.052 0 0 1-.29.12 2.48 2.48 0 0 1-.35.068l-.372.048c-.223.03-.39.076-.502.14-.19.107-.284.278-.284.513Zm1.49-1.244c.142-.018.236-.078.284-.178a.54.54 0 0 0 .04-.236c0-.21-.074-.361-.225-.454-.148-.096-.36-.144-.639-.144-.321 0-.549.087-.683.26-.076.095-.125.238-.147.427h-.575c.012-.451.158-.765.438-.94.283-.178.61-.267.98-.267.431 0 .781.082 1.05.247.267.164.4.419.4.765v2.11a.28.28 0 0 0 .038.153c.027.039.083.058.167.058l.093-.003.109-.017v.454a1.735 1.735 0 0 1-.219.051 1.57 1.57 0 0 1-.205.01c-.212 0-.366-.075-.461-.225a.869.869 0 0 1-.106-.338 1.565 1.565 0 0 1-.54.427 1.67 1.67 0 0 1-.776.181c-.34 0-.618-.103-.834-.308a1.036 1.036 0 0 1-.322-.775c0-.34.106-.603.318-.79.212-.187.49-.302.834-.345l.981-.123Zm2.058-2.465h.622v1.022h.584v.503h-.584v2.389c0 .128.043.213.13.256a.552.552 0 0 0 .24.038h.095l.12-.01V25a1.42 1.42 0 0 1-.223.044c-.075.01-.157.014-.246.014-.287 0-.482-.073-.584-.219-.103-.148-.154-.34-.154-.574v-2.423h-.496v-.503h.496v-1.022Zm3.35.94c.26 0 .511.062.755.185.244.12.43.278.557.472.123.184.205.4.246.646.036.168.055.437.055.806H33.66c.011.372.099.67.263.896.164.223.418.335.762.335.321 0 .578-.106.77-.318.108-.123.186-.266.231-.427h.605a1.27 1.27 0 0 1-.16.45c-.089.165-.19.3-.3.404a1.435 1.435 0 0 1-.695.37 2.105 2.105 0 0 1-.502.054c-.456 0-.842-.165-1.159-.496-.317-.332-.475-.797-.475-1.394 0-.588.16-1.066.479-1.432.319-.367.736-.55 1.25-.55Zm.98 1.62c-.025-.266-.083-.48-.174-.639-.169-.296-.45-.444-.844-.444a.933.933 0 0 0-.711.308 1.149 1.149 0 0 0-.304.775h2.033Zm1.409-1.538h.584v.633c.048-.123.165-.273.352-.448a.91.91 0 0 1 .704-.263l.14.013v.65a.9.9 0 0 0-.201-.017c-.31 0-.548.1-.715.3-.166.199-.25.428-.25.688V25h-.614v-3.66Z" fill="#212121"/></svg>