<svg width="32" height="32" viewBox="0 0 32 32" fill="none" xmlns="http://www.w3.org/2000/svg"><path fill-rule="evenodd" clip-rule="evenodd" d="M0 11.469A2.475 2.475 0 0 1 2.481 9h27.038A2.474 2.474 0 0 1 32 11.469v8.823a2.475 2.475 0 0 1-2.48 2.469H2.48A2.475 2.475 0 0 1 0 20.292V11.47Z" fill="#000268"/><path fill-rule="evenodd" clip-rule="evenodd" d="M1.018 11.553v8.656c0 .852.695 1.542 1.551 1.542h14.166v-11.74H2.569c-.856 0-1.55.69-1.55 1.543Zm19.377 4.285c0 .55-.273.93-.724.93-.398 0-.73-.38-.73-.884 0-.518.292-.903.73-.903.465 0 .724.399.724.857Zm-2.65 3.16h1.195V17.12h.014c.226.412.678.564 1.096.564 1.029 0 1.58-.85 1.58-1.872 0-.836-.524-1.746-1.48-1.746-.545 0-1.05.219-1.29.704h-.013v-.624h-1.102v4.853Zm5.517-2.49c0-.331.318-.457.724-.457.179 0 .352.012.504.02 0 .404-.285.816-.737.816-.279 0-.491-.14-.491-.379Zm2.41 1.096a4.262 4.262 0 0 1-.066-.817V15.5c0-1.056-.764-1.434-1.647-1.434-.51 0-.956.073-1.38.246l.02.81c.33-.186.716-.26 1.101-.26.431 0 .783.127.79.599a3.487 3.487 0 0 0-.558-.047c-.636 0-1.785.126-1.785 1.182 0 .75.61 1.088 1.294 1.088.491 0 .824-.191 1.096-.624h.013c0 .18.02.359.027.545h1.095Zm.537 1.394c.246.054.492.08.744.08 1.096 0 1.354-.843 1.693-1.713l1.269-3.22h-1.196l-.71 2.257h-.014l-.743-2.257h-1.288l1.4 3.538c-.086.306-.311.479-.604.479-.166 0-.312-.02-.471-.073l-.08.91Z" fill="#fff"/><path fill-rule="evenodd" clip-rule="evenodd" d="M3.937 15.845c0-.472.233-.864.678-.864.537 0 .763.431.763.817 0 .53-.339.89-.763.89-.359 0-.678-.306-.678-.843Zm2.596-1.7H5.451v.624h-.013c-.253-.425-.665-.705-1.175-.705-1.076 0-1.56.771-1.56 1.8 0 1.023.59 1.74 1.54 1.74.478 0 .876-.186 1.162-.591h.013v.186c0 .677-.372 1.002-1.062 1.002-.498 0-.804-.106-1.169-.285l-.06.943c.279.1.75.22 1.322.22 1.394 0 2.084-.459 2.084-1.88v-3.054Zm2.02-1.441H7.358v.876h1.195v-.876Zm-1.194 4.9h1.194v-3.46H7.36v3.46Zm4.522-3.5c-.12-.02-.266-.04-.405-.04-.518 0-.816.28-1.022.718h-.014v-.637H9.352v3.459h1.194v-1.46c0-.678.313-1.083.87-1.083.14 0 .272 0 .405.04l.06-.997Zm2.058 2.743c-.551 0-.777-.458-.777-.97 0-.517.226-.976.777-.976.552 0 .777.459.777.977 0 .51-.225.969-.777.969Zm0 .836c1.142 0 2.012-.663 2.012-1.805 0-1.15-.87-1.814-2.012-1.814s-2.011.665-2.011 1.814c0 1.142.869 1.805 2.01 1.805Z" fill="#FF0007"/></svg>