<svg width="24" height="24" viewBox="0 0 24 24" fill="none" xmlns="http://www.w3.org/2000/svg"><rect width="24" height="24" rx="4" fill="#000"/><path fill-rule="evenodd" clip-rule="evenodd" d="M12.15 8.363c.759.064 1.517-.383 1.991-.95.466-.582.775-1.365.696-2.163-.672.032-1.502.447-1.976 1.03-.434.503-.806 1.317-.711 2.083Zm.908.55c.493-.195 1.103-.437 1.77-.398.428.032 1.66.16 2.45 1.341a.689.689 0 0 1-.023.016c-.196.129-1.437.944-1.423 2.555.015 1.918 1.562 2.634 1.765 2.727l.021.01a7.317 7.317 0 0 1-.916 1.909c-.561.83-1.138 1.644-2.055 1.66-.431.008-.722-.119-1.024-.25-.318-.14-.65-.285-1.172-.285-.542 0-.889.149-1.222.292-.29.124-.57.244-.96.26-.884.031-1.556-.879-2.117-1.71-1.146-1.675-2.023-4.725-.838-6.785.577-1.03 1.628-1.676 2.758-1.692.493-.01.963.18 1.374.345.314.126.594.238.823.238.204 0 .472-.107.79-.232Z" fill="#fff"/></svg>