<svg width="24" height="24" viewBox="0 0 24 24" fill="none" xmlns="http://www.w3.org/2000/svg"><path d="m3 18.023 1.249-7.036H7.47c.795 0 1.308.151 1.543.46.235.307.28.875.129 1.715-.151.84-.392 1.353-.745 1.644-.353.291-.94.44-1.77.44H4.286l-.493 2.771-.792.006Zm1.4-3.444h1.88c.787 0 1.305-.078 1.557-.24.252-.163.426-.533.53-1.12.122-.681.122-1.12 0-1.291-.124-.171-.457-.28-1.017-.28H4.923L4.4 14.579Z" fill="#E72242"/><path d="m14.3 17.365-.118.666h-4.95l.233-1.316c.129-.735.354-1.217.677-1.444.322-.23 1.025-.406 2.103-.527.862-.097 1.396-.226 1.602-.389.204-.165.366-.588.487-1.274.106-.599.078-.988-.087-1.167-.165-.18-.58-.28-1.24-.28-.826 0-1.358.072-1.602.218-.243.146-.412.504-.52 1.056l-.082.52h-.759l.068-.36c.148-.84.42-1.4.817-1.68.398-.28 1.12-.415 2.159-.415.933 0 1.53.15 1.789.448.26.299.315.884.168 1.755-.146.84-.395 1.4-.74 1.68-.344.28-1.027.47-2.038.56-.886.09-1.428.213-1.623.37-.196.157-.359.6-.488 1.333l-.042.235 4.186.01Zm6.512-6.314-.84 4.704H21l-.118.666h-1.016l-.28 1.61h-.781l.28-1.61h-3.841l.162-.926 4.2-4.444h1.206Zm-1.604 4.704.74-4.2h-.018l-3.92 4.2h3.198ZM6.455 8.4a11.124 11.124 0 0 1 2.089-.944l-.132-.764c-.932.292-1.834.676-2.69 1.145l.733.563Zm8.295-.412 2.582-1.4A14.077 14.077 0 0 0 13.194 6h-.017l-.593 1.185a7.26 7.26 0 0 1 2.167.803Zm-9.686.241c-.625.373-1.207.812-1.74 1.308h1.437c.35-.28.697-.518 1.033-.737l-.73-.571Zm7.276-2.217a15.47 15.47 0 0 0-3.36.523l.098.765a7.823 7.823 0 0 1 2.926-.219l.336-1.07Zm6.384 1.117-3.36 1.243c.166.118.324.247.473.386h4.976s-.563-.865-2.09-1.63Z" fill="#A9ABAA"/></svg>