<svg width="24" height="24" viewBox="0 0 24 24" fill="none" xmlns="http://www.w3.org/2000/svg"><path d="M11.365 12.02a6.411 6.411 0 0 1-.967-.118 3.708 3.708 0 0 1-.918-.302.602.602 0 0 1-.361-.566.6.6 0 0 1 .186-.44.6.6 0 0 1 .44-.186c.084 0 .172.02.263.059.43.189.879.286 1.348.293V8.62a4.427 4.427 0 0 1-.694-.312 2.88 2.88 0 0 1-.596-.44 1.936 1.936 0 0 1-.42-.596 1.787 1.787 0 0 1-.156-.752c0-.266.052-.507.156-.722.105-.215.245-.4.42-.557.176-.156.375-.29.596-.4a2.96 2.96 0 0 1 .693-.244c0-.19.053-.352.157-.489.104-.136.26-.208.468-.214.176 0 .323.058.44.175a.641.641 0 0 1 .185.45c.228.013.443.042.645.087.202.046.413.101.635.166l-.43 1.172a2.367 2.367 0 0 0-.42-.117 4.867 4.867 0 0 0-.43-.058v1.953c.222.078.443.182.665.312.22.13.423.283.605.46.182.175.329.373.44.595a1.6 1.6 0 0 1 .165.723 2.014 2.014 0 0 1-1.132 1.835 3.614 3.614 0 0 1-.743.274.7.7 0 0 1-.165.469.57.57 0 0 1-.46.195.59.59 0 0 1-.42-.166.604.604 0 0 1-.195-.4Zm1.24-1.397c.183-.072.332-.17.45-.293.117-.124.175-.293.175-.508a.463.463 0 0 0-.058-.224.739.739 0 0 0-.156-.196 2.52 2.52 0 0 0-.41-.302v1.523ZM10.74 6.521c0 .183.065.333.195.45.13.117.27.215.42.293V5.906l-.127.05c-.065.025-.104.048-.117.067a.583.583 0 0 0-.254.196.48.48 0 0 0-.117.302Zm7.276 3.428a6.235 6.235 0 0 1 3.691 3.926c.195.599.293 1.22.293 1.865a6.12 6.12 0 0 1-.225 1.66 6.465 6.465 0 0 1-.625 1.495 5.887 5.887 0 0 1-.976 1.26 6.912 6.912 0 0 1-1.27.986c-.462.28-.96.491-1.494.634a6.675 6.675 0 0 1-1.66.225 6.15 6.15 0 0 1-3.74-1.26c-.547.41-1.14.723-1.778.938A6.169 6.169 0 0 1 8.25 22a6.05 6.05 0 0 1-1.66-.225 6.713 6.713 0 0 1-1.494-.625 5.584 5.584 0 0 1-1.26-.976 7.156 7.156 0 0 1-.977-1.27 5.739 5.739 0 0 1-.634-1.494A6.71 6.71 0 0 1 2 15.74c0-.644.094-1.263.283-1.855a6.178 6.178 0 0 1 .81-1.65 6.339 6.339 0 0 1 1.26-1.348 6.224 6.224 0 0 1 1.631-.938 6.12 6.12 0 0 1-.234-1.69c0-.572.075-1.126.225-1.66.15-.533.358-1.031.625-1.494a5.89 5.89 0 0 1 .976-1.26 6.913 6.913 0 0 1 1.27-.986 5.74 5.74 0 0 1 1.494-.634A6.675 6.675 0 0 1 12 2a6.219 6.219 0 0 1 3.154.86 6.266 6.266 0 0 1 2.237 2.246c.273.468.485.966.634 1.494.15.527.225 1.08.225 1.66 0 .58-.078 1.142-.234 1.69ZM12 3.25c-.69 0-1.338.13-1.943.39a4.97 4.97 0 0 0-1.592 1.085A5.202 5.202 0 0 0 7.39 6.316 4.82 4.82 0 0 0 7 8.26c0 .69.13 1.338.39 1.943a5.147 5.147 0 0 0 1.065 1.592c.45.456.98.814 1.592 1.074.612.26 1.263.394 1.953.4.69 0 1.338-.13 1.943-.39a5.052 5.052 0 0 0 2.666-2.666A4.89 4.89 0 0 0 17 8.26c0-.69-.13-1.338-.39-1.944a5.134 5.134 0 0 0-1.065-1.591 4.906 4.906 0 0 0-1.592-1.075A5.06 5.06 0 0 0 12 3.25Zm-3.75 17.5c.69 0 1.338-.13 1.943-.39a5.052 5.052 0 0 0 2.666-2.667 4.89 4.89 0 0 0 .391-1.953 4.49 4.49 0 0 0-.195-1.308A6.405 6.405 0 0 1 12 14.52a6.171 6.171 0 0 1-1.982-.323 6.298 6.298 0 0 1-1.788-.947.39.39 0 0 1-.126.049c-.573.17-1.006.465-1.3.889-.292.423-.442.934-.449 1.533v.02h1.23a.6.6 0 0 1 .44.185.6.6 0 0 1 .186.44c0 .201-.055.344-.166.429a.975.975 0 0 1-.4.176 2.06 2.06 0 0 1-.499.039 29.456 29.456 0 0 1-.449-.02c.228.384.53.684.908.899a2.56 2.56 0 0 0 1.25.332c.19 0 .365-.02.528-.059.163-.039.332-.094.508-.166a.702.702 0 0 1 .254-.049c.169 0 .315.059.439.176a.58.58 0 0 1 .186.44.565.565 0 0 1-.215.459 1.554 1.554 0 0 1-.528.273c-.208.065-.42.11-.634.137a3.71 3.71 0 0 1-2.695-.645 3.894 3.894 0 0 1-.821-.781c-.234-.3-.42-.638-.557-1.016-.104 0-.205-.01-.302-.03a.63.63 0 0 1-.44-.283.508.508 0 0 1-.068-.312c0-.169.055-.312.166-.43a.633.633 0 0 1 .43-.195 4.05 4.05 0 0 1 .536-2.041c.176-.306.394-.58.655-.82.26-.241.566-.436.918-.586a7.375 7.375 0 0 1-.42-.586 9.85 9.85 0 0 1-.371-.625c-.482.189-.915.44-1.299.752-.384.313-.72.674-1.006 1.084-.286.41-.501.853-.644 1.328a5.386 5.386 0 0 0-.225 1.494c0 .69.13 1.338.39 1.944a5.143 5.143 0 0 0 1.065 1.591c.45.456.98.814 1.592 1.075a5.06 5.06 0 0 0 1.953.4Zm7.5 0c.69 0 1.338-.13 1.943-.39a5.052 5.052 0 0 0 2.666-2.667 4.89 4.89 0 0 0 .391-1.953 4.91 4.91 0 0 0-.225-1.484 5.018 5.018 0 0 0-.644-1.328 4.782 4.782 0 0 0-1.006-1.075 5.72 5.72 0 0 0-1.299-.761c-.247.482-.55.924-.908 1.328a6.237 6.237 0 0 1-1.211 1.055l.908 1.23 1.367-1.826a.586.586 0 0 1 .498-.254c.176 0 .326.062.45.185a.624.624 0 0 1 .059.82l-1.758 2.335v1.025h.4c.143 0 .28.013.41.04.13.025.238.084.322.175.085.091.13.228.137.41 0 .183-.042.316-.127.4a.75.75 0 0 1-.322.186c-.13.04-.267.055-.41.049a9.061 9.061 0 0 0-.41-.01v.4c0 .144-.014.28-.04.41a.583.583 0 0 1-.175.323c-.091.085-.228.13-.41.137-.183 0-.316-.043-.4-.127a.75.75 0 0 1-.186-.322 1.226 1.226 0 0 1-.05-.41c.007-.144.01-.28.01-.41h-.4c-.143 0-.277-.014-.4-.04a.632.632 0 0 1-.323-.176c-.09-.09-.133-.227-.127-.41 0-.182.043-.316.127-.4a.756.756 0 0 1 .313-.186c.124-.039.26-.055.41-.049.15.007.283.01.4.01v-1.025l-1.386-1.895-.059.02c.078.267.134.54.166.82.033.28.049.557.049.83 0 .769-.13 1.504-.39 2.207a6.038 6.038 0 0 1-1.163 1.924c.417.287.86.505 1.328.654.47.15.96.225 1.475.225Z" fill="#21105D"/></svg>