<svg width="20" height="20" viewBox="0 0 20 20" fill="none" xmlns="http://www.w3.org/2000/svg" style="margin-right:5px"><path fill-rule="evenodd" clip-rule="evenodd" d="m15.267 9.928-.367.234a3 3 0 0 1-4.107-.867L10 8.105l-.793 1.19a3 3 0 0 1-4.107.867l-.367-.234L5.542 13h8.916l.809-3.072ZM3.654 6.87c-.768-.488-1.736.219-1.504 1.099l1.654 6.285A1 1 0 0 0 4.77 15h10.458a1 1 0 0 0 .967-.745l1.654-6.286c.232-.88-.736-1.587-1.504-1.099l-2.52 1.604a1 1 0 0 1-1.37-.289l-1.624-2.437a1.001 1.001 0 0 0-1.664 0L7.543 8.185a1 1 0 0 1-1.37.29L3.654 6.87Z" fill="#EF6C00"/><path d="M11 3.5a1 1 0 1 1-2 0 1 1 0 0 1 2 0Zm8 2a1 1 0 1 1-2 0 1 1 0 0 1 2 0Zm-16 0a1 1 0 1 1-2 0 1 1 0 0 1 2 0Z" fill="#EF6C00"/><path fill-rule="evenodd" clip-rule="evenodd" d="M4.5 16.25a1 1 0 0 1 1-1h9.251a1 1 0 0 1 0 2H5.5a1 1 0 0 1-1-1Z" fill="#EF6C00"/></svg>