<svg width="24" height="24" viewBox="0 0 24 24" fill="none" xmlns="http://www.w3.org/2000/svg"><path d="M9.792 14.36H6.425a1.349 1.349 0 0 1-.984-.374 3.25 3.25 0 0 1-.224-.27l.016-.024H8.98v-.029c0-.282 0-.566-.015-.848a2.486 2.486 0 0 0-1.043-1.825 2.54 2.54 0 0 0-1.698-.498 2.587 2.587 0 0 0-2.347 1.963 2.608 2.608 0 0 0 1.966 3.156c.204.044.412.066.62.065h3.329c-.024.09-.054.177-.092.261a.968.968 0 0 1-.918.556H4.015A1.003 1.003 0 0 1 3 15.465V10.69a.985.985 0 0 1 .994-1.002h4.812a.994.994 0 0 1 .996.997v3.593a.68.68 0 0 0-.01.081Z" fill="#C80370"/><path d="M10.47 15.611v-2.465c-.012-.437.09-.87.297-1.257a2.497 2.497 0 0 1 1.826-1.332 2.535 2.535 0 0 1 2.926 1.987 2.58 2.58 0 0 1-1.956 3.067c-.2.038-.402.057-.605.057H11.86c-.13 0-.13 0-.13.134v2.54c0 .104 0 .104-.102.104h-1.06c-.077 0-.098-.023-.096-.099l-.002-2.736Zm1.96-1.228h.577c.073 0 .145-.005.217-.016a1.304 1.304 0 1 0-1.487-1.294v1.224c0 .065.024.083.086.083l.608.003Z" fill="#71706F"/><path d="M14.765 15.663c.115-.078.227-.143.329-.221.259-.216.47-.482.623-.783.037-.058.07-.118.1-.18.03-.086.088-.107.176-.104h3.339a.777.777 0 0 0 .133 0 .32.32 0 0 0 .274-.365.345.345 0 0 0-.324-.297H17.76a1.596 1.596 0 0 1-.284-3.177c.108-.018.218-.027.328-.026h2.376c.079 0 .097.026.097.099v1.043c0 .073-.02.097-.094.097h-2.368a.569.569 0 0 0-.177.023.35.35 0 0 0-.227.404.342.342 0 0 0 .344.261h1.617a1.609 1.609 0 1 1-.018 3.219h-4.588v.007Z" fill="#71706F"/><path d="M4.383 8.864a.14.14 0 0 1-.154-.135 4.196 4.196 0 0 1 .052-1.07A2.086 2.086 0 0 1 6 6.04a2.172 2.172 0 0 1 2.245.966c.207.319.32.689.329 1.069v.629a.154.154 0 0 1-.172.172h-.739a.154.154 0 0 1-.169-.17v-.579a1.095 1.095 0 0 0-2.16-.23 1.795 1.795 0 0 0-.023.337v.446c0 .149-.057.185-.185.185h-.743Zm3.181 3.56H5.217c.076-.31.655-.688 1.08-.71.534-.015 1.129.309 1.267.71Z" fill="#C80370"/></svg>