<svg width="16" height="16" viewBox="0 0 16 16" fill="none" xmlns="http://www.w3.org/2000/svg">
<path fill-rule="evenodd" clip-rule="evenodd" d="M8 16C12.4183 16 16 12.4183 16 8C16 3.58172 12.4183 0 8 0C3.58172 0 0 3.58172 0 8C0 12.4183 3.58172 16 8 16Z" fill="#EE3F3F"/>
<path fill-rule="evenodd" clip-rule="evenodd" d="M10.8063 5.19373C10.548 4.93542 10.1292 4.93542 9.87085 5.19373L8 7.06458L6.12915 5.19373C5.87084 4.93542 5.45204 4.93542 5.19373 5.19373C4.93542 5.45204 4.93542 5.87085 5.19373 6.12916L7.06458 8L5.19374 9.87085C4.93543 10.1292 4.93543 10.548 5.19374 10.8063C5.45205 11.0646 5.87085 11.0646 6.12916 10.8063L8 8.93543L9.87084 10.8063C10.1292 11.0646 10.548 11.0646 10.8063 10.8063C11.0646 10.548 11.0646 10.1292 10.8063 9.87085L8.93543 8L10.8063 6.12915C11.0646 5.87084 11.0646 5.45204 10.8063 5.19373Z" fill="white"/>
</svg>
