<svg width="24" height="25" viewBox="0 0 24 25" fill="none" class="" xmlns="http://www.w3.org/2000/svg"><path fill-rule="evenodd" clip-rule="evenodd" d="M15.9391 3.89039C15.6523 3.04628 14.9075 2.5 14.0639 2.5H9.93592L9.779 2.50633C8.9492 2.57349 8.24111 3.16897 8.02304 4.00533L7.77543 5.26813L7.74642 5.37929C7.62785 5.73928 7.29636 5.98913 6.91772 5.98913H3.73139L3.63214 5.99598C3.27515 6.04564 3 6.35945 3 6.73916C3 7.15338 3.32745 7.48918 3.73139 7.48918L6.91772 7.48918H17.0821L20.2686 7.48918L20.3679 7.48234C20.7248 7.43267 21 7.11887 21 6.73916C21 6.32493 20.6725 5.98913 20.2686 5.98913H17.0821L16.9701 5.98177C16.6025 5.9332 16.2987 5.64872 16.2243 5.26783L15.9874 4.05209L15.9391 3.89039ZM14.9143 5.98913C14.881 5.90445 14.8522 5.81721 14.8282 5.72768L14.79 5.56208L14.5636 4.3928C14.5107 4.18991 14.3473 4.04138 14.1502 4.00742L14.0639 4.00006H9.93592C9.73071 4.00006 9.54829 4.12322 9.47252 4.27803L9.44682 4.34604L9.20979 5.56238C9.18087 5.71048 9.13899 5.85311 9.08551 5.98913H14.9143ZM18.9784 9.22017C19.3475 9.25069 19.6304 9.55716 19.65 9.92605L19.6405 10.1317L19.326 13.983L18.9961 17.7414C18.9263 18.4917 18.8638 19.1245 18.8099 19.6227C18.6225 21.3588 17.4955 22.4323 15.7966 22.4641C13.1494 22.513 10.6048 22.5125 8.13373 22.4591C6.48398 22.4244 5.37366 21.3393 5.18955 19.6297L5.0623 18.3702L4.83994 15.927L4.61216 13.2461L4.35172 10.0279C4.31935 9.61498 4.61951 9.25335 5.02215 9.22016C5.39123 9.18973 5.7183 9.44584 5.79519 9.80677L5.82511 10.1017L6.06966 13.1187L6.33669 16.2459C6.45646 17.5996 6.56034 18.6952 6.64346 19.4648C6.74838 20.439 7.26138 20.9404 8.16411 20.9593C10.6159 21.0124 13.1415 21.0129 15.7701 20.9643C16.7277 20.9464 17.2489 20.4499 17.356 19.4574L17.4827 18.2046C17.5198 17.8185 17.5594 17.3923 17.6014 16.9293L17.8686 13.8538L18.1906 9.9075C18.2204 9.52902 18.5192 9.2389 18.879 9.21882L18.9784 9.22017Z" fill="#E1E8EE"></path></svg>