<svg width="12" height="13" viewBox="0 0 12 13" fill="none" xmlns="http://www.w3.org/2000/svg">
<path fill-rule="evenodd" clip-rule="evenodd" d="M2.83332 1.99996H9.16666V1.16663C9.16666 0.890484 9.39051 0.666626 9.66666 0.666626C9.9428 0.666626 10.1667 0.890484 10.1667 1.16663V2.00743C11.1011 2.09164 11.8333 2.87695 11.8333 3.83329V4.99996V5.99996V10.5C11.8333 11.5125 11.0125 12.3333 9.99999 12.3333H1.99999C0.987468 12.3333 0.166656 11.5125 0.166656 10.5V5.99996V4.99996V3.83329C0.166656 2.87695 0.898906 2.09164 1.83332 2.00743V1.16663C1.83332 0.890484 2.05718 0.666626 2.33332 0.666626C2.60947 0.666626 2.83332 0.890484 2.83332 1.16663V1.99996ZM2.33332 2.99996L2 2.99996C1.53976 2.99996 1.16667 3.37306 1.16667 3.83329V4.99996H10.8333V3.83329C10.8333 3.37306 10.4602 2.99996 10 2.99996L9.66666 2.99996H2.33332ZM1.16667 5.99996V10.5C1.16667 10.9602 1.53976 11.3333 2 11.3333H10C10.4602 11.3333 10.8333 10.9602 10.8333 10.5V5.99996H1.16667Z" fill="#5E6977"/>
</svg>
