<svg width="6" height="6" viewBox="0 0 6 6" fill="none" xmlns="http://www.w3.org/2000/svg">
<path d="M5.95203 4.3416C5.89443 4.2756 5.79772 4.2512 5.71262 4.2796C5.47408 4.3592 5.21533 4.4 4.94283 4.4C3.63921 4.4 2.57887 3.4128 2.57887 2.2C2.57887 1.47 2.96613 0.7904 3.61471 0.3816C3.68821 0.3352 3.72345 0.2516 3.70368 0.1712C3.68391 0.0908 3.61299 0.03 3.52488 0.018C3.42431 0.0044 3.32416 0 3.22358 0C1.44588 0 0 1.3456 0 3C0 4.6544 1.44588 6 3.22358 6C4.35184 6 5.37823 5.4664 5.96836 4.5728C6.01607 4.5004 6.00919 4.408 5.95203 4.3416Z" fill="#929EFF"/>
</svg>
