<svg width="8" height="8" viewBox="0 0 8 8" fill="none" xmlns="http://www.w3.org/2000/svg">
<path d="M3.99981 1.99629C2.89494 1.99629 1.99609 2.89532 1.99609 4.00019C1.99609 5.10506 2.89494 6.00409 3.99981 6.00409C5.10451 6.00409 6.00353 5.10524 6.00353 4.00019C6.00353 2.89514 5.10451 1.99629 3.99981 1.99629Z" fill="#E9CF73"/>
<path d="M4.00034 1.40726C3.7844 1.40726 3.60938 1.23224 3.60938 1.01647V0.390965C3.60938 0.175022 3.7844 0 4.00034 0C4.21628 0 4.39131 0.175022 4.39131 0.390965V1.01647C4.39131 1.23224 4.21611 1.40726 4.00034 1.40726Z" fill="#E9CF73"/>
<path d="M4.00034 6.59254C3.7844 6.59254 3.60938 6.76757 3.60938 6.98351V7.60884C3.60938 7.82496 3.7844 7.99998 4.00034 7.99998C4.21628 7.99998 4.39131 7.82496 4.39131 7.60884V6.98351C4.39131 6.76757 4.21611 6.59254 4.00034 6.59254Z" fill="#E9CF73"/>
<path d="M5.83314 2.16672C5.68062 2.01402 5.68062 1.76655 5.83314 1.61385L6.27548 1.17151C6.428 1.01898 6.67566 1.01898 6.82836 1.17151C6.98106 1.32421 6.98106 1.57186 6.82836 1.72439L6.38602 2.16672C6.2335 2.31943 5.98602 2.31943 5.83314 2.16672Z" fill="#E9CF73"/>
<path d="M2.16632 5.83347C2.01362 5.68059 1.76614 5.68059 1.61344 5.83347L1.1711 6.27563C1.01858 6.42816 1.0184 6.67599 1.1711 6.82851C1.3238 6.98104 1.57145 6.98104 1.72398 6.82851L2.16632 6.38599C2.31902 6.23347 2.31902 5.98582 2.16632 5.83347Z" fill="#E9CF73"/>
<path d="M6.59277 4C6.59277 3.78406 6.7678 3.60904 6.98374 3.60904H7.60925C7.82519 3.60904 8.00021 3.78406 8.00021 4C8.00021 4.21595 7.82519 4.39079 7.60925 4.39079H6.98374C6.7678 4.39079 6.59277 4.21595 6.59277 4Z" fill="#E9CF73"/>
<path d="M1.40726 4C1.40726 3.78406 1.23224 3.60904 1.0163 3.60904H0.390965C0.175022 3.60904 0 3.78406 0 4C0 4.21595 0.175022 4.39079 0.390965 4.39079H1.01647C1.23224 4.39079 1.40726 4.21595 1.40726 4Z" fill="#E9CF73"/>
<path d="M5.83328 5.83349C5.98598 5.68097 6.23363 5.68097 6.38616 5.83349L6.82849 6.27583C6.9812 6.42818 6.9812 6.67601 6.82849 6.82853C6.67579 6.98106 6.42832 6.98106 6.27561 6.82853L5.83328 6.3862C5.68057 6.23349 5.68057 5.98602 5.83328 5.83349Z" fill="#E9CF73"/>
<path d="M2.16638 2.16668C2.31909 2.01398 2.31909 1.7665 2.16638 1.6138L1.72405 1.17164C1.57134 1.01894 1.32387 1.01894 1.17117 1.17164C1.01847 1.32416 1.01847 1.57182 1.17117 1.72434L1.61351 2.16668C1.76621 2.31956 2.01368 2.31956 2.16638 2.16668Z" fill="#E9CF73"/>
</svg>
