<svg width="24" height="24" viewBox="0 0 24 24" fill="none" xmlns="http://www.w3.org/2000/svg">
    <path fill-rule="evenodd" clip-rule="evenodd" d="M9 2.25H19C20.5188 2.25 21.75 3.48122 21.75 5V15C21.75 16.5188 20.5188 17.75 19 17.75H17.75V19.1429C17.75 20.5827 16.5827 21.75 15.1429 21.75H6C3.92893 21.75 2.25 20.0711 2.25 18V8.85714C2.25 7.41726 3.41726 6.25 4.85714 6.25H6.25V5C6.25 3.48122 7.48122 2.25 9 2.25ZM6.25 7.75H4.85714C4.24568 7.75 3.75 8.24568 3.75 8.85714V18C3.75 19.2426 4.75736 20.25 6 20.25H15.1429C15.7543 20.25 16.25 19.7543 16.25 19.1429V17.75H9C7.48122 17.75 6.25 16.5188 6.25 15V7.75ZM9 3.75C8.30964 3.75 7.75 4.30964 7.75 5V15C7.75 15.6904 8.30964 16.25 9 16.25H19C19.6904 16.25 20.25 15.6904 20.25 15V5C20.25 4.30964 19.6904 3.75 19 3.75H9ZM13.25 12.5V10.75H11.5C11.0858 10.75 10.75 10.4142 10.75 10C10.75 9.58579 11.0858 9.25 11.5 9.25H13.25V7.5C13.25 7.08579 13.5858 6.75 14 6.75C14.4142 6.75 14.75 7.08579 14.75 7.5V9.25H16.5C16.9142 9.25 17.25 9.58579 17.25 10C17.25 10.4142 16.9142 10.75 16.5 10.75H14.75V12.5C14.75 12.9142 14.4142 13.25 14 13.25C13.5858 13.25 13.25 12.9142 13.25 12.5Z" fill="#3D50DF"/>
</svg>