<svg width="32" height="32" viewBox="0 0 32 32" fill="none" xmlns="http://www.w3.org/2000/svg">
<path d="M0 15.5151C0 6.94637 6.94637 0 15.5152 0V0C24.0839 0 31.0303 6.94637 31.0303 15.5151V16.4848C31.0303 25.0536 24.0839 32 15.5151 32V32V32C6.94637 32 0 25.0536 0 16.4849V15.5151Z" fill="#5E6977"/>
<path fill-rule="evenodd" clip-rule="evenodd" d="M15 24.5229C15 25.265 15.9624 25.5564 16.374 24.9389L22.2227 16.166C22.5549 15.6676 22.1976 15 21.5986 15H17V9.47708C17 8.73503 16.0376 8.44363 15.626 9.06106L9.77735 17.834C9.44507 18.3324 9.80237 19 10.4014 19H15V24.5229Z" fill="white"/>
</svg>
