<svg width="24" height="24" viewBox="0 0 24 24" fill="none" xmlns="http://www.w3.org/2000/svg">
<path opacity="0.3" d="M4 13.6C4 13.2 4.4 12.8 4.8 12.8C5.2 12.8 5.6 13.2 5.6 13.6C5.6 14 5.6 17.6 5.6 17.6C5.6 18.4837 6.31634 19.2 7.2 19.2H16.8C17.6837 19.2 18.4 18.4837 18.4 17.6V13.6C18.4 13.1582 18.7582 12.8 19.2 12.8C19.6418 12.8 20 13.1582 20 13.6V17.6C20 19.3674 18.5673 20.8 16.8 20.8H7.2C5.43269 20.8 4 19.3674 4 17.6C4 17.6 4 14 4 13.6Z" fill="#5E6977"/>
<rect opacity="0.3" x="13" y="15" width="2" height="11" rx="1" transform="rotate(-180 13 15)" fill="#5E6977"/>
<path d="M15.4343 10.6343C15.7467 10.3219 16.2533 10.3219 16.5657 10.6343C16.8781 10.9467 16.8781 11.4533 16.5657 11.7657L12.5657 15.7657C12.2648 16.0665 11.7811 16.0793 11.4648 15.7946L7.46482 12.1946C7.13641 11.8991 7.10979 11.3932 7.40535 11.0648C7.70092 10.7364 8.20675 10.7098 8.53516 11.0054L11.971 14.0976L15.4343 10.6343Z" fill="#5E6977"/>
</svg>
