<svg width="113" height="24" viewBox="0 0 113 24" fill="none" xmlns="http://www.w3.org/2000/svg">
<path fill-rule="evenodd" clip-rule="evenodd" d="M109.85 6.6469L106.506 12.1152L103.163 6.6469H100.347V18.9553H103.163V11.7979L106.348 17.0201H106.664L109.85 11.7979V18.9539L112.666 16.2318V6.6469H109.85ZM93.8381 14.0675H98.2378V11.3945H93.8381V9.35403H98.6782V6.64619H91.0221V18.9546H98.7657V16.2467H93.8381V14.0661V14.0675ZM80.6425 9.35403H83.8092V18.9539H86.6259V9.35475H89.7934V6.6469H80.6425V9.35475V9.35403ZM74.24 16.4573C72.2344 16.4573 70.65 14.9988 70.65 12.8004C70.65 10.6027 72.2344 9.14344 74.24 9.14344C76.2463 9.14344 77.8301 10.6027 77.8301 12.8004C77.8301 14.9988 76.2463 16.4573 74.24 16.4573ZM74.24 6.40002C70.7033 6.40002 67.8347 9.1783 67.8347 12.8004C67.8347 16.4225 70.7033 19.2 74.24 19.2C77.7781 19.2 80.6461 16.4225 80.6461 12.8004C80.6461 9.1783 77.7781 6.40002 74.24 6.40002ZM67.8368 6.64619H58.6859V9.35403H61.8541V18.9539H64.6694V9.35475H67.8368V6.6469V6.64619ZM54.5359 16.3172H52.1767V13.9622H54.5352C55.2389 13.9622 55.6963 14.4531 55.6963 15.1397C55.6963 15.8255 55.2389 16.3172 54.5352 16.3172H54.5359ZM52.1774 9.28431H54.1838C54.8348 9.28431 55.2574 9.74178 55.2574 10.3743C55.2574 11.0075 54.8177 11.465 54.1838 11.465H52.1774V9.28431ZM56.9998 12.5727C57.6685 11.9922 58.0734 11.1832 58.0734 10.1637C58.0734 8.0364 56.3303 6.6469 54.1838 6.6469H49.3622V18.9553H54.5359C56.7358 18.9553 58.513 17.5302 58.513 15.3503C58.513 14.1024 57.9147 13.1526 56.9998 12.5727ZM42.8537 14.0668H47.2534V11.3945H42.8537V9.35403H47.6931V6.64619H40.0377V18.9546H47.7799V16.2467H42.8529V14.0661L42.8537 14.0668ZM33.7255 15.2621L31.3492 6.6469H29.0619L26.6856 15.2628L24.5569 6.6469H21.6L24.9966 18.9553H28.1996L30.2059 11.6933L32.2122 18.9546H35.4153L38.8111 6.6469H35.855L33.7248 15.2628L33.7255 15.2621Z" fill="white"/>
<path fill-rule="evenodd" clip-rule="evenodd" d="M4.92933 1.36397H9.44973V0H4.92933V1.36397ZM4.92933 3.52331H9.44973V2.18182H4.92933V3.52331ZM12.958 15.6179L8.21838 20.4727L9.60545 21.8936L12.958 18.4575V15.6179ZM12.958 11.6033L9.62966 14.4774V16.8972L12.958 13.4869V11.6033ZM9.62966 9.55967V12.4159C10.5542 11.4856 12.7035 10.0423 12.7035 10.0423L12.8428 9.92529L9.62966 9.55967ZM12.958 5.8638H1.42436V8.47405L4.77165 8.09322V8.0919H6.21106V18.4172L7.17939 19.4089L8.19025 18.3722V8.09058H9.62966V8.09322L12.958 8.47207V5.8638ZM4.77165 12.3471V9.55901L1.50353 9.9319L1.70636 10.0033C1.70636 10.0033 3.82622 11.4155 4.77165 12.3471ZM1.42436 13.5121L4.77165 16.9421V14.4112L1.42436 11.5431V13.5121ZM1.42436 18.4807L4.75464 21.8922L6.13974 20.4727L1.42436 15.6423V18.4807ZM14.4 14.1408L14.3974 14.1428V19.0684H14.3581L14.3993 19.1114L9.62835 24L9.56292 23.9339L9.53937 23.957L7.17939 21.5385L4.77623 24L4.71211 23.9345L4.69052 23.9577L0.000654542 19.1517L0.0857107 19.0645H0.00392601V14.1864L0 14.1831L0.00392601 14.1785V10.1025H0V8.63471H0.00392601V4.40926H14.398V14.1369L14.3993 14.1402L14.4 14.1408Z" fill="white"/>
</svg>
