<svg width="12" height="12" viewBox="0 0 12 12" fill="none" xmlns="http://www.w3.org/2000/svg">
<path fill-rule="evenodd" clip-rule="evenodd" d="M2.83332 1.50002H9.16666V0.666687C9.16666 0.390545 9.39051 0.166687 9.66666 0.166687C9.9428 0.166687 10.1667 0.390545 10.1667 0.666687V1.50749C11.1011 1.5917 11.8333 2.37701 11.8333 3.33335V4.50002V5.50002V10C11.8333 11.0125 11.0125 11.8334 9.99999 11.8334H1.99999C0.987468 11.8334 0.166656 11.0125 0.166656 10V5.50002V4.50002V3.33335C0.166656 2.37701 0.898906 1.5917 1.83332 1.50749V0.666687C1.83332 0.390545 2.05718 0.166687 2.33332 0.166687C2.60947 0.166687 2.83332 0.390545 2.83332 0.666687V1.50002ZM2.33332 2.50002L2 2.50002C1.53976 2.50002 1.16667 2.87312 1.16667 3.33335V4.50002H10.8333V3.33335C10.8333 2.87312 10.4602 2.50002 10 2.50002L9.66666 2.50002H2.33332ZM1.16667 5.50002V10C1.16667 10.4603 1.53976 10.8334 2 10.8334H10C10.4602 10.8334 10.8333 10.4603 10.8333 10V5.50002H1.16667Z" fill="#F3F5F6"/>
</svg>
