<svg width="16" height="16" viewBox="0 0 16 16" fill="none" xmlns="http://www.w3.org/2000/svg">
<path opacity="0.3" fill-rule="evenodd" clip-rule="evenodd" d="M9 2.83331C9 2.28103 8.55228 1.83331 8 1.83331H7.33333C6.78105 1.83331 6.33333 2.28103 6.33333 2.83331H3.5C3.22386 2.83331 3 3.05717 3 3.33331C3 3.60946 3.22386 3.83331 3.5 3.83331H11.8333C12.1095 3.83331 12.3333 3.60946 12.3333 3.33331C12.3333 3.05717 12.1095 2.83331 11.8333 2.83331H9Z" fill="white"/>
<path d="M3.6665 4.83331V12.6666C3.6665 13.4951 4.33808 14.1666 5.1665 14.1666H10.1665C10.9949 14.1666 11.6665 13.4951 11.6665 12.6666V4.83331H3.6665Z" fill="white"/>
</svg>
