<svg width="113" height="24" viewBox="0 0 113 24" fill="none" xmlns="http://www.w3.org/2000/svg">
<path fill-rule="evenodd" clip-rule="evenodd" d="M109.85 6.64687L106.506 12.1152L103.163 6.64687H100.347V18.9552H103.163V11.7979L106.348 17.0201H106.664L109.85 11.7979V18.9538L112.666 16.2318V6.64687H109.85ZM93.8381 14.0675H98.2378V11.3945H93.8381V9.354H98.6782V6.64616H91.0221V18.9545H98.7657V16.2467H93.8381V14.066V14.0675ZM80.6425 9.354H83.8092V18.9538H86.6259V9.35472H89.7934V6.64687H80.6425V9.35472V9.354ZM74.24 16.4573C72.2344 16.4573 70.65 14.9988 70.65 12.8003C70.65 10.6026 72.2344 9.14341 74.24 9.14341C76.2463 9.14341 77.8301 10.6026 77.8301 12.8003C77.8301 14.9988 76.2463 16.4573 74.24 16.4573ZM74.24 6.39999C70.7033 6.39999 67.8347 9.17827 67.8347 12.8003C67.8347 16.4224 70.7033 19.2 74.24 19.2C77.7781 19.2 80.6461 16.4224 80.6461 12.8003C80.6461 9.17827 77.7781 6.39999 74.24 6.39999ZM67.8368 6.64616H58.6859V9.354H61.8541V18.9538H64.6694V9.35472H67.8368V6.64687V6.64616ZM54.5359 16.3171H52.1767V13.9622H54.5352C55.2389 13.9622 55.6963 14.4531 55.6963 15.1397C55.6963 15.8255 55.2389 16.3171 54.5352 16.3171H54.5359ZM52.1774 9.28428H54.1838C54.8348 9.28428 55.2574 9.74175 55.2574 10.3742C55.2574 11.0075 54.8177 11.4649 54.1838 11.4649H52.1774V9.28428ZM56.9998 12.5727C57.6685 11.9921 58.0734 11.1832 58.0734 10.1637C58.0734 8.03637 56.3303 6.64687 54.1838 6.64687H49.3622V18.9552H54.5359C56.7358 18.9552 58.513 17.5302 58.513 15.3502C58.513 14.1023 57.9147 13.1525 56.9998 12.5727ZM42.8537 14.0668H47.2534V11.3945H42.8537V9.354H47.6931V6.64616H40.0377V18.9545H47.7799V16.2467H42.8529V14.066L42.8537 14.0668ZM33.7255 15.262L31.3492 6.64687H29.0619L26.6856 15.2627L24.5569 6.64687H21.6L24.9966 18.9552H28.1996L30.2059 11.6933L32.2122 18.9545H35.4153L38.8111 6.64687H35.855L33.7248 15.2627L33.7255 15.262Z" fill="#1D293F"/>
<path fill-rule="evenodd" clip-rule="evenodd" d="M4.92933 1.36397H9.44973V0H4.92933V1.36397ZM4.92933 3.52331H9.44973V2.18182H4.92933V3.52331ZM12.958 15.6179L8.21838 20.4727L9.60545 21.8936L12.958 18.4575V15.6179ZM12.958 11.6033L9.62966 14.4774V16.8972L12.958 13.4869V11.6033ZM9.62966 9.55967V12.4159C10.5542 11.4856 12.7035 10.0423 12.7035 10.0423L12.8428 9.92529L9.62966 9.55967ZM12.958 5.8638H1.42436V8.47405L4.77165 8.09322V8.0919H6.21106V18.4172L7.17939 19.4089L8.19025 18.3722V8.09058H9.62966V8.09322L12.958 8.47207V5.8638ZM4.77165 12.3471V9.55901L1.50353 9.9319L1.70636 10.0033C1.70636 10.0033 3.82622 11.4155 4.77165 12.3471ZM1.42436 13.5121L4.77165 16.9421V14.4112L1.42436 11.5431V13.5121ZM1.42436 18.4807L4.75464 21.8922L6.13974 20.4727L1.42436 15.6423V18.4807ZM14.4 14.1408L14.3974 14.1428V19.0684H14.3581L14.3993 19.1114L9.62835 24L9.56292 23.9339L9.53937 23.957L7.17939 21.5385L4.77623 24L4.71211 23.9345L4.69052 23.9577L0.000654542 19.1517L0.0857107 19.0645H0.00392601V14.1864L0 14.1831L0.00392601 14.1785V10.1025H0V8.63471H0.00392601V4.40926H14.398V14.1369L14.3993 14.1402L14.4 14.1408Z" fill="#3D50DF"/>
</svg>
