<svg width="40" height="24" viewBox="0 0 40 24" fill="none" xmlns="http://www.w3.org/2000/svg">
<path opacity="0.7" fill-rule="evenodd" clip-rule="evenodd" d="M19.9697 20.6957C22.0675 22.6136 24.8851 23.7767 27.9495 23.7767C34.5302 23.7767 39.8569 18.4513 39.8569 11.9012C39.8569 5.33123 34.5302 0.0057373 27.9495 0.0057373C24.8851 0.0057373 22.0676 1.16868 19.9697 3.08677C17.5637 5.26983 16.0417 8.41235 16.0417 11.9012C16.0417 15.3904 17.5638 18.533 19.9697 20.6957Z" fill="#CCCCCC"/>
<path opacity="0.7" fill-rule="evenodd" clip-rule="evenodd" d="M23.8159 10.6364C23.7747 10.2079 23.6926 9.7998 23.6099 9.37131H16.3299C16.4122 8.94282 16.5353 8.53465 16.6587 8.12656H23.2606C23.1163 7.69835 22.9518 7.26968 22.7666 6.8616H17.173C17.3787 6.43339 17.6048 6.00472 17.8517 5.59663H22.0676C21.8002 5.16814 21.4919 4.73956 21.1626 4.35198H18.7564C19.1265 3.90318 19.538 3.47469 19.9696 3.08701C17.8517 1.18933 15.0546 0.00598145 11.9698 0.00598145C5.40951 0.00598145 0.0623779 5.33147 0.0623779 11.9014C0.0623779 18.4515 5.40951 23.7769 11.9698 23.7769C15.0547 23.7769 17.8517 22.6138 19.9696 20.6959C20.4018 20.3079 20.7924 19.9 21.1626 19.4511H18.7564C18.4273 19.0431 18.1394 18.635 17.8516 18.1861H22.0675C22.3348 17.7781 22.561 17.37 22.7666 16.921H17.1729C16.9875 16.513 16.8027 16.1049 16.6586 15.6762H23.2605C23.4044 15.2682 23.507 14.8398 23.6098 14.4112C23.6925 14.0032 23.7745 13.5745 23.8158 13.1462C23.8568 12.7381 23.8775 12.3301 23.8775 11.9013C23.8776 11.473 23.8569 11.0445 23.8159 10.6364Z" fill="#939393"/>
<path fill-rule="evenodd" clip-rule="evenodd" d="M26.8909 10.5438L27.1182 9.29307C27.0416 9.26897 26.9966 9.25229 26.9346 9.22932C26.8961 9.21504 26.851 9.19833 26.7877 9.1759L26.2716 9.05863C26.1062 9.01954 25.8996 9 25.6726 9C23.9588 9 22.7611 10.4461 22.7611 12.4981C22.7611 14.0422 23.6285 15 25.0326 15C25.3835 15 25.6932 14.9412 26.1682 14.8239L26.3952 13.5143C25.9822 13.7103 25.6105 13.8076 25.3008 13.8076C24.5369 13.8076 24.0825 13.2799 24.0825 12.4007C24.0825 11.1301 24.764 10.2311 25.7344 10.2311C26.1061 10.2311 26.4365 10.3289 26.8909 10.5438ZM22.8231 10.1529H22.9471L22.9883 10.1724C22.7817 10.5437 22.6165 10.9543 22.4926 11.5209H22.41C21.7905 11.5209 21.6666 12.0097 21.1917 14.8827H19.891L20.6963 10.192H21.873L21.7492 10.9153C22.1416 10.3483 22.3892 10.1529 22.8231 10.1529ZM15.4719 14.8238C15.1211 14.9411 14.8321 14.9801 14.543 14.9801C13.8821 14.9801 13.5103 14.6284 13.5103 13.9446C13.5103 13.8274 13.531 13.6706 13.5516 13.534L13.6343 13.065L13.6962 12.6934L14.254 9.48833H15.5341L15.3893 10.1919H16.05L15.8849 11.3452H15.2242L14.8734 13.2994C14.8526 13.3777 14.8526 13.436 14.8526 13.4949C14.8526 13.7295 14.9765 13.8274 15.2864 13.8274C15.4307 13.8274 15.5549 13.8274 15.6374 13.7883L15.4719 14.8238ZM11.4662 12.9869C11.0103 12.7776 10.7301 12.5247 10.5945 12.2046C10.6511 11.824 10.6663 11.6652 10.6663 11.4624C10.6663 11.2982 10.6466 11.1483 10.6079 11.013C10.8279 10.4752 11.3875 10.0942 12.4367 10.0941C12.7258 10.0941 13.2419 10.1333 13.5723 10.1919L13.3865 11.267C13.0562 11.2279 12.7051 11.2081 12.4574 11.2081C12.0444 11.2081 11.8172 11.3255 11.8172 11.5797C11.8172 11.7944 11.8792 11.8533 12.4367 12.0878C13.0768 12.3807 13.3453 12.7522 13.3453 13.3973C13.3453 14.4721 12.7052 14.9608 11.3424 14.9608C11.1771 14.9608 10.9294 14.9608 10.6403 14.9218C10.4751 14.9218 10.3718 14.902 10.2893 14.8827L10.182 14.8643L10.1992 14.7652L10.2194 14.5892L10.2397 14.3547L10.2804 14.0618L10.3273 13.7877C10.6809 13.8792 10.9955 13.9249 11.3424 13.9249C11.8587 13.9249 12.0857 13.7883 12.0857 13.4949C12.0857 13.2995 12.0031 13.2213 11.4662 12.9869ZM10.3273 13.7877C10.2809 13.7757 10.2339 13.7629 10.186 13.7493L10 14.8238L10.062 14.8437L10.182 14.8643L10.1788 14.8827H9.12285L9.14316 14.3938C8.81824 14.7847 8.3917 14.9608 7.80288 14.9608C7.11253 14.9608 6.64547 14.4528 6.64547 13.6902C6.64547 12.5369 7.45766 11.8726 8.87907 11.8726C9.00264 11.8726 9.15704 11.8875 9.32862 11.9041L9.40715 11.9116C9.44777 11.7554 9.44777 11.697 9.44777 11.6187C9.44777 11.3061 9.22448 11.1888 8.63548 11.1888C8.26995 11.1888 7.86381 11.2279 7.5796 11.3061L7.39683 11.3645L7.27499 11.3842L7.45775 10.3288C8.08719 10.1528 8.51382 10.0941 8.98079 10.0941C9.87705 10.0941 10.4342 10.4076 10.6079 11.013C10.5248 11.2161 10.4901 11.4416 10.4958 11.6773C10.4958 11.8714 10.5274 12.0462 10.5945 12.2046C10.5857 12.2641 10.5758 12.329 10.5648 12.4004L10.3273 13.7877ZM37.0088 14.8827H35.7906L35.8524 14.433C35.5015 14.7848 35.1297 14.9411 34.6549 14.9411C33.7048 14.9411 33.0854 14.1792 33.0854 13.0062C33.0854 11.4428 34.056 10.1138 35.1918 10.1138C35.708 10.1138 36.0797 10.3288 36.4306 10.759L36.7197 9.11691H38.0001L37.0088 14.8827ZM36.1208 12.2053C36.1208 13.1233 35.7077 13.7884 35.1089 13.7884C34.6547 13.7884 34.4274 13.4756 34.4274 12.8499C34.4274 11.9315 34.8612 11.2865 35.4395 11.2865C35.8936 11.2865 36.1208 11.5991 36.1208 12.2053ZM18.0942 14.9802C18.5695 14.9802 18.9824 14.9219 19.4366 14.7847L19.6432 13.6122C19.1888 13.8274 18.7758 13.9055 18.3008 13.9055C17.5575 13.9055 17.1651 13.632 17.1651 13.0842C17.1651 13.0452 17.1651 13.0061 17.1858 12.9478H19.7463C19.8701 12.4589 19.9115 12.1269 19.9115 11.7751C19.9115 10.7391 19.2301 10.0746 18.1565 10.0746C16.8554 10.0746 15.9057 11.2671 15.9057 12.8696C15.9057 14.2573 16.649 14.9802 18.0942 14.9802ZM18.7137 11.9899V11.7554C18.7137 11.3646 18.4869 11.1497 18.0943 11.1497C17.6814 11.1497 17.3923 11.4429 17.2684 11.9899H18.7137ZM6.09711 14.8827H4.83815L5.56912 10.4461L3.92424 14.8827H3.05094L2.94949 10.4851L2.17773 14.8827H1L1.99505 9.11691H3.8227L3.88362 12.6935L5.10196 9.11691H7.09216L6.09711 14.8827ZM9.08902 12.7808C9.13392 12.786 9.18097 12.7914 9.24469 12.7914C9.22447 13.495 8.85894 13.9641 8.33086 13.964C8.04656 13.964 7.8841 13.7883 7.8841 13.4949C7.8841 13.0259 8.24963 12.7715 8.96048 12.7715C9.00888 12.7715 9.04805 12.7761 9.08902 12.7808ZM29.349 12.7914C29.268 12.7914 29.2134 12.785 29.1664 12.7794C29.1308 12.7752 29.0997 12.7715 29.0647 12.7715C28.3337 12.7715 27.9682 13.0259 27.9682 13.4949C27.9682 13.7883 28.151 13.964 28.4353 13.964C28.9429 13.9641 29.3287 13.495 29.349 12.7914ZM29.227 14.8827H30.2829H30.283V14.7652L30.3034 14.5892L30.3439 14.3547L30.3847 14.0618L30.6484 12.4004C30.7502 11.8725 30.7502 11.6969 30.7502 11.4624C30.7502 10.5633 30.1815 10.0941 29.0849 10.0941C28.6179 10.0941 28.1915 10.1528 27.562 10.3288L27.3792 11.3842L27.5011 11.3645L27.6635 11.3061C27.9479 11.2279 28.3743 11.1888 28.7397 11.1888C29.3287 11.1888 29.552 11.3061 29.552 11.6187C29.552 11.6824 29.5386 11.7329 29.5117 11.8338C29.5056 11.8569 29.4987 11.8825 29.4912 11.9116L29.4757 11.91C29.298 11.8912 29.1215 11.8726 28.9834 11.8726C27.562 11.8726 26.7498 12.5369 26.7498 13.6902C26.7498 14.4528 27.2168 14.9608 27.9072 14.9608C28.496 14.9608 28.9225 14.7847 29.2473 14.3938L29.227 14.8827ZM33.5728 10.1529H33.6946L33.7353 10.1724C33.5322 10.5437 33.3698 10.9543 33.248 11.5209H33.1667C32.5575 11.5209 32.4357 12.0097 31.9686 14.8827H30.7094L31.4813 10.192H32.6385L32.5168 10.9153C32.9027 10.3484 33.1463 10.1529 33.5728 10.1529Z" fill="#F1F4F7"/>
</svg>
