<svg width="49" height="14" viewBox="0 0 49 14" fill="none" xmlns="http://www.w3.org/2000/svg">
<g clip-path="url(#clip0)">
<path fill-rule="evenodd" clip-rule="evenodd" d="M13.7851 7.93288C13.6421 8.70765 13.0695 9.04534 12.4113 9.07904C11.8387 9.1124 11.352 8.53915 11.7242 7.86548C12.0102 7.29258 12.8117 7.15778 13.2699 7.15778H13.9284C13.919 7.20181 13.9096 7.24496 13.9004 7.2875L13.9003 7.28791L13.9003 7.28792C13.853 7.50569 13.8092 7.70775 13.7851 7.93288ZM13.5851 2.00128C12.6345 2.00128 11.8372 2.22243 11.1939 2.4009C11.0042 2.4535 10.828 2.5024 10.6651 2.54083L10.4362 4.66361C10.7795 4.46141 11.9535 4.09104 12.9263 4.057C13.8999 4.0233 14.4725 4.25921 14.3003 5.20281C11.4095 5.20281 9.46315 5.87682 9.0624 8.00028C8.48982 11.6403 12.0103 11.5392 13.3841 9.9549L13.2129 10.8314H15.8174L16.9337 5.03431C17.3919 2.57385 15.3881 1.96792 13.5851 2.00128ZM18.472 2.15393H21.1606L21.5941 7.10366L24.225 2.15393H26.9999L20.6112 14H17.6045L19.5701 10.5172L18.472 2.15393ZM5.38241 4.90867C6.13394 4.90867 6.88548 4.26263 7.06568 3.45475C7.27598 2.6472 6.79522 2.00115 6.07377 2.00115H4.63119L4 4.90867H5.38241ZM7.22018 0H2.217L0 10.5057H2.93612L3.65523 7.02496H5.75197C7.75936 7.02496 9.43718 5.74776 9.8864 3.57618C10.3956 1.11756 8.68808 0 7.22018 0Z" fill="#A7A7A7"/>
<path fill-rule="evenodd" clip-rule="evenodd" d="M46.3086 0L44.1384 10.8357H46.803L49 0H46.3086ZM40.7844 7.93289C40.6413 8.70765 40.098 9.04534 39.4398 9.07904C38.8673 9.1124 38.3519 8.53915 38.724 7.86549C39.0107 7.29258 39.8119 7.15778 40.2983 7.15778H40.928C40.8987 7.29514 40.8766 7.42384 40.8546 7.55267L40.8546 7.55269C40.8334 7.6767 40.8122 7.80082 40.7844 7.93289ZM40.6129 2.00128C39.6782 2.00128 38.8923 2.21512 38.2424 2.39194C38.0366 2.44794 37.8444 2.50022 37.6655 2.54083L37.4361 4.66361C37.8083 4.46141 38.9813 4.09104 39.9547 4.057C40.928 4.0233 41.5001 4.25921 41.3001 5.20281C38.4095 5.20281 36.4631 5.87682 36.0625 8.00028C35.4897 11.6403 39.0107 11.5392 40.4129 9.9549L40.241 10.8314H42.8165L43.9332 5.03431C44.3905 2.57385 42.4156 1.96792 40.6129 2.00128ZM32.3143 5.18837C33.0447 5.18837 33.8044 4.53174 33.98 3.71062C34.155 2.88983 33.7171 2.2332 32.9867 2.2332H31.5845L31 5.18837H32.3143ZM34.0485 0.0325992H29.1646L27 10.8348H29.8369L30.5683 7.25586H32.5864C34.575 7.25586 36.2128 5.9426 36.6518 3.70973C37.1487 1.1817 35.4524 0.0325992 34.0485 0.0325992Z" fill="#BDBDBD"/>
</g>
<defs>
<clipPath id="clip0">
<rect width="49" height="14" fill="white"/>
</clipPath>
</defs>
</svg>
