<svg width="10px" height="10px" viewBox="0 0 10 10" xmlns="http://www.w3.org/2000/svg" class="svg-icon " xmlns:xlink="http://www.w3.org/1999/xlink"><path d="M4.6159 4.47942L4.6159 0.843524C4.61591 0.609209 4.8106 0.41926 5.05078 0.41926C5.29095 0.41926 5.48565 0.609209 5.48565 0.843524L5.48565 4.47942L9.21244 4.47942C9.45261 4.47942 9.64731 4.66937 9.64731 4.90369C9.64731 5.138 9.45261 5.32795 9.21244 5.32795L5.48565 5.32795L5.48565 8.96385C5.48565 9.19816 5.29095 9.38811 5.05078 9.38811C4.8106 9.38811 4.6159 9.19816 4.6159 8.96385L4.61591 5.32795L0.889109 5.32795C0.648936 5.32795 0.454238 5.138 0.454238 4.90369C0.454238 4.66937 0.648936 4.47942 0.889109 4.47942L4.6159 4.47942Z" fill="#FFFFFF"></path></svg>