<svg class="svg-icon" height="16px" viewBox="0 0 19 16" width="19px" xmlns="http://www.w3.org/2000/svg">
    <path clip-rule="evenodd" d="M9.5 1.99995C7.77349 1.99995 6.21873 2.76495 5.14473 3.99496C4.87248 4.30246 4.39847 4.33996 4.08647 4.06246C3.77522 3.79246 3.74372 3.31995 4.01597 3.00495C5.35923 1.47494 7.31674 0.499939 9.5 0.499939C13.5253 0.499939 16.7698 3.79246 16.8485 7.84998L17.2138 7.47497C17.5033 7.18247 17.978 7.17497 18.2743 7.46747C18.5705 7.75248 18.5758 8.22498 18.2863 8.52498L16.6363 10.2125C16.4953 10.355 16.3018 10.4375 16.1 10.4375C15.8983 10.4375 15.7048 10.355 15.5638 10.2125L13.9138 8.52498C13.6243 8.22498 13.6295 7.75248 13.9258 7.46747C14.222 7.17497 14.6968 7.18247 14.9863 7.47497L15.3478 7.84248C15.2683 4.58746 12.665 1.99995 9.5 1.99995ZM2.89997 5.56246C3.10172 5.56246 3.29522 5.64497 3.43622 5.78747L5.08623 7.47497C5.37573 7.77498 5.37048 8.24748 5.07423 8.53248C4.77798 8.82498 4.30322 8.81748 4.01372 8.52498L3.65222 8.15748C3.73172 11.4125 6.33498 14 9.5 14C11.2265 14 12.7813 13.235 13.8553 12.005C14.1275 11.6975 14.6015 11.66 14.9135 11.9375C15.2248 12.2075 15.2563 12.68 14.984 12.995C13.6408 14.525 11.6833 15.5 9.5 15.5C5.47473 15.5 2.23021 12.2075 2.15146 8.14998L1.78621 8.52498C1.49671 8.81748 1.02196 8.82498 0.725705 8.53248C0.429454 8.24748 0.424203 7.77498 0.713705 7.47497L2.36371 5.78747C2.50471 5.64497 2.69822 5.56246 2.89997 5.56246Z" fill="#3D50DF" fill-rule="evenodd"></path>
</svg>