<svg width="19" height="16" viewBox="0 0 19 16" fill="none" xmlns="http://www.w3.org/2000/svg">
<path fill-rule="evenodd" clip-rule="evenodd" d="M9.5 1.99998C7.77349 1.99998 6.21873 2.76498 5.14473 3.99499C4.87248 4.30249 4.39847 4.33999 4.08647 4.06249C3.77522 3.79249 3.74372 3.31998 4.01597 3.00498C5.35923 1.47497 7.31674 0.499969 9.5 0.499969C13.5253 0.499969 16.7698 3.79249 16.8485 7.85001L17.2138 7.47501C17.5033 7.1825 17.978 7.175 18.2743 7.4675C18.5705 7.75251 18.5758 8.22501 18.2863 8.52501L16.6363 10.2125C16.4953 10.355 16.3018 10.4375 16.1 10.4375C15.8983 10.4375 15.7048 10.355 15.5638 10.2125L13.9138 8.52501C13.6243 8.22501 13.6295 7.75251 13.9258 7.4675C14.222 7.175 14.6968 7.1825 14.9863 7.47501L15.3478 7.84251C15.2683 4.58749 12.665 1.99998 9.5 1.99998ZM2.89997 5.5625C3.10172 5.5625 3.29522 5.645 3.43622 5.7875L5.08623 7.47501C5.37573 7.77501 5.37048 8.24751 5.07423 8.53251C4.77798 8.82501 4.30322 8.81751 4.01372 8.52501L3.65222 8.15751C3.73172 11.4125 6.33498 14 9.5 14C11.2265 14 12.7813 13.235 13.8553 12.005C14.1275 11.6975 14.6015 11.66 14.9135 11.9375C15.2248 12.2075 15.2563 12.68 14.984 12.995C13.6408 14.525 11.6833 15.5 9.5 15.5C5.47473 15.5 2.23021 12.2075 2.15146 8.15001L1.78621 8.52501C1.49671 8.81751 1.02196 8.82501 0.725705 8.53251C0.429454 8.24751 0.424203 7.77501 0.713705 7.47501L2.36371 5.7875C2.50471 5.645 2.69822 5.5625 2.89997 5.5625Z" fill="white"/>
</svg>
