<svg width="18px" height="18px" viewBox="0 0 12 12" xmlns="http://www.w3.org/2000/svg" class="svg-icon " xmlns:xlink="http://www.w3.org/1999/xlink"><path d="M9.31125 4.875H9.375C9.99632 4.875 10.5 5.37868 10.5 6C10.5 6.62132 9.99632 7.125 9.375 7.125L9.34275 7.125C9.24559 7.12538 9.15795 7.18343 9.11968 7.27272C9.07784 7.36757 9.09715 7.47404 9.16392 7.54234L9.18627 7.56469C9.39752 7.7757 9.51622 8.06204 9.51622 8.36062C9.51622 8.65921 9.39752 8.94555 9.18656 9.15627C8.97555 9.36752 8.68921 9.48622 8.39062 9.48622C8.09204 9.48622 7.8057 9.36752 7.59483 9.15641L7.57528 9.13682C7.50404 9.06715 7.39757 9.04784 7.30272 9.08968C7.21343 9.12795 7.15538 9.21559 7.155 9.31125V9.375C7.155 9.99632 6.65132 10.5 6.03 10.5C5.40868 10.5 4.905 9.99632 4.905 9.375C4.90276 9.24996 4.83949 9.1615 4.72359 9.11807C4.63243 9.07784 4.52596 9.09715 4.45766 9.16392L4.43531 9.18627C4.2243 9.39752 3.93796 9.51622 3.63937 9.51622C3.34079 9.51622 3.05445 9.39752 2.84373 9.18656C2.63248 8.97555 2.51379 8.68921 2.51379 8.39062C2.51379 8.09204 2.63248 7.8057 2.84359 7.59483L2.86318 7.57528C2.93285 7.50404 2.95216 7.39757 2.91032 7.30272C2.87205 7.21343 2.78441 7.15538 2.68875 7.155H2.625C2.00368 7.155 1.5 6.65132 1.5 6.03C1.5 5.40868 2.00368 4.905 2.625 4.905C2.75004 4.90276 2.8385 4.83949 2.88193 4.72359C2.92216 4.63243 2.90285 4.52596 2.83608 4.45766L2.81373 4.43531C2.60248 4.2243 2.48379 3.93796 2.48379 3.63937C2.48379 3.34079 2.60248 3.05445 2.81344 2.84373C3.02445 2.63248 3.31079 2.51379 3.60938 2.51379C3.90796 2.51379 4.1943 2.63248 4.40516 2.84359L4.42472 2.86318C4.49596 2.93285 4.60243 2.95216 4.69359 2.91193L4.74742 2.90057C4.82521 2.85844 4.87465 2.77701 4.875 2.68875V2.625C4.875 2.00368 5.37868 1.5 6 1.5C6.62132 1.5 7.125 2.00368 7.125 2.625L7.125 2.65725C7.12538 2.75441 7.18343 2.84205 7.27641 2.88193C7.36757 2.92216 7.47404 2.90285 7.54234 2.83608L7.56469 2.81373C7.7757 2.60248 8.06204 2.48379 8.36062 2.48379C8.65921 2.48379 8.94555 2.60248 9.15627 2.81344C9.36752 3.02445 9.48622 3.31079 9.48622 3.60938C9.48622 3.90796 9.36752 4.1943 9.15641 4.40516L9.13682 4.42472C9.06715 4.49596 9.04784 4.60243 9.08807 4.69359L9.09943 4.74742C9.14156 4.82521 9.22299 4.87465 9.31125 4.875Z" fill="#5E6977"></path><path fill-rule="evenodd" clip-rule="evenodd" d="M6 7.5C6.82843 7.5 7.5 6.82843 7.5 6C7.5 5.17157 6.82843 4.5 6 4.5C5.17157 4.5 4.5 5.17157 4.5 6C4.5 6.82843 5.17157 7.5 6 7.5Z" fill="white"></path></svg>