<svg width="12" height="12" viewBox="0 0 12 12" fill="none" xmlns="http://www.w3.org/2000/svg">
<path fill-rule="evenodd" clip-rule="evenodd" d="M2.83333 1.5H9.16667V0.666662C9.16667 0.390519 9.39052 0.166662 9.66667 0.166662C9.94281 0.166662 10.1667 0.390519 10.1667 0.666662V1.50747C11.1011 1.59167 11.8333 2.37699 11.8333 3.33333V4.5V5.5V9.99999C11.8333 11.0125 11.0125 11.8333 10 11.8333H2C0.987478 11.8333 0.166667 11.0125 0.166667 9.99999V5.5V4.5V3.33333C0.166667 2.37699 0.898917 1.59167 1.83333 1.50747V0.666662C1.83333 0.390519 2.05719 0.166662 2.33333 0.166662C2.60948 0.166662 2.83333 0.390519 2.83333 0.666662V1.5ZM2.33333 2.49999L2.00001 2.5C1.53977 2.5 1.16668 2.87309 1.16668 3.33333V4.5H10.8333V3.33333C10.8333 2.87309 10.4602 2.5 10 2.5L9.66667 2.49999H2.33333ZM1.16668 5.5V10C1.16668 10.4602 1.53977 10.8333 2.00001 10.8333H10C10.4602 10.8333 10.8333 10.4602 10.8333 10V5.5H1.16668Z" fill="#5E6977"/>
</svg>
