<svg width="16" height="16" viewBox="0 0 16 16" fill="none" xmlns="http://www.w3.org/2000/svg">
<path d="M8.92309 1.47692C8.92309 0.661241 8.50981 0 8.00001 0C7.4902 0 7.07692 0.661241 7.07692 1.47692V2.21539C7.07692 3.03107 7.4902 3.69231 8.00001 3.69231C8.50981 3.69231 8.92309 3.03107 8.92309 2.21539V1.47692Z" fill="#3D50DF"/>
<path d="M12.061 2.81239C12.4689 2.10599 12.4416 1.3267 12.0001 1.0718C11.5586 0.816899 10.8701 1.18291 10.4622 1.88932L10.093 2.52884C9.68514 3.23524 9.71243 4.01453 10.1539 4.26944C10.5954 4.52434 11.284 4.15832 11.6918 3.45192L12.061 2.81239Z" fill="#3D50DF"/>
<path d="M14.1108 5.53791C14.8173 5.13006 15.1833 4.44154 14.9284 4.00003C14.6735 3.55853 13.8942 3.53125 13.1878 3.93909L12.5482 4.30832C11.8418 4.71616 11.4758 5.40469 11.7307 5.84619C11.9856 6.28769 12.7649 6.31498 13.4713 5.90714L14.1108 5.53791Z" fill="#3D50DF"/>
<path d="M14.5231 8.9231C15.3388 8.9231 16 8.50982 16 8.00002C16 7.49021 15.3388 7.07694 14.5231 7.07694H13.7846C12.9689 7.07694 12.3077 7.49021 12.3077 8.00002C12.3077 8.50982 12.9689 8.9231 13.7846 8.9231H14.5231Z" fill="#3D50DF"/>
<path d="M13.1878 12.061C13.8942 12.4688 14.6735 12.4415 14.9284 12C15.1833 11.5585 14.8173 10.87 14.1108 10.4621L13.4713 10.0929C12.7649 9.68508 11.9856 9.71236 11.7307 10.1539C11.4758 10.5954 11.8418 11.2839 12.5482 11.6917L13.1878 12.061Z" fill="#3D50DF"/>
<path d="M10.462 14.1107C10.8699 14.8171 11.5584 15.1831 11.9999 14.9282C12.4414 14.6733 12.4687 13.894 12.0608 13.1876L11.6916 12.5481C11.2838 11.8417 10.5952 11.4757 10.1537 11.7306C9.71223 11.9855 9.68494 12.7648 10.0928 13.4712L10.462 14.1107Z" fill="#3D50DF"/>
<path d="M7.07691 14.5231C7.07691 15.3388 7.49019 16 8 16C8.5098 16 8.92308 15.3388 8.92308 14.5231V13.7846C8.92308 12.9689 8.5098 12.3077 8 12.3077C7.49019 12.3077 7.07691 12.9689 7.07691 13.7846V14.5231Z" fill="#3D50DF"/>
<path d="M3.93895 13.1876C3.53111 13.894 3.5584 14.6733 3.9999 14.9282C4.4414 15.1831 5.12993 14.8171 5.53778 14.1107L5.90701 13.4712C6.31485 12.7648 6.28757 11.9855 5.84606 11.7306C5.40456 11.4757 4.71603 11.8417 4.30819 12.5481L3.93895 13.1876Z" fill="#3D50DF"/>
<path d="M1.88915 10.4621C1.18275 10.87 0.816732 11.5585 1.07163 12C1.32653 12.4415 2.10583 12.4688 2.81223 12.0609L3.45176 11.6917C4.15817 11.2839 4.52418 10.5953 4.26928 10.1538C4.01438 9.71233 3.23509 9.68505 2.52868 10.0929L1.88915 10.4621Z" fill="#3D50DF"/>
<path d="M1.47693 7.07694C0.661245 7.07694 0 7.49022 0 8.00002C0 8.50982 0.661245 8.9231 1.47693 8.9231H2.2154C3.03108 8.9231 3.69233 8.50982 3.69233 8.00002C3.69233 7.49022 3.03108 7.07694 2.2154 7.07694H1.47693Z" fill="#3D50DF"/>
<path d="M2.81223 3.93907C2.10583 3.53123 1.32654 3.55852 1.07163 4.00002C0.816733 4.44152 1.18275 5.13004 1.88915 5.53789L2.52868 5.90712C3.23509 6.31496 4.01438 6.28767 4.26928 5.84617C4.52418 5.40467 4.15817 4.71614 3.45176 4.3083L2.81223 3.93907Z" fill="#3D50DF"/>
<path d="M5.53798 1.88932C5.13013 1.18291 4.4416 0.816901 4.0001 1.0718C3.5586 1.3267 3.53131 2.10599 3.93915 2.8124L4.30838 3.45192C4.71623 4.15833 5.40476 4.52434 5.84626 4.26944C6.28776 4.01454 6.31505 3.23525 5.90721 2.52884L5.53798 1.88932Z" fill="#3D50DF"/>
</svg>
