<svg width="40" height="14" viewBox="0 0 40 14" fill="none" xmlns="http://www.w3.org/2000/svg">
<path fill-rule="evenodd" clip-rule="evenodd" d="M25.0553 0C26.4124 0 27.4992 0.294775 28.1924 0.569806L27.7186 3.50944L27.4033 3.35277C26.759 3.07774 25.9287 2.81402 24.7852 2.83313C23.4144 2.83313 22.78 3.43602 22.78 3.99963C22.7722 4.63518 23.5221 5.05354 24.746 5.6813C26.7649 6.64994 27.697 7.82381 27.6832 9.36567C27.6558 12.1819 25.2688 14 21.5894 14C20.0189 13.9836 18.5072 13.6557 17.6907 13.2773L18.1821 10.2407L18.6325 10.4559C19.782 10.9627 20.5262 11.1674 21.9262 11.1674C22.9328 11.1674 24.0116 10.7528 24.0214 9.84369C24.0272 9.24998 23.5691 8.82596 22.2062 8.16096C20.8785 7.51249 19.1201 6.42443 19.1396 4.47606C19.1612 1.8393 21.5972 0 25.0553 0ZM14.1874 0.235752L12 13.7986H15.4973L17.6886 0.235752H14.1874ZM37.1668 0.248779H34.4624C33.6243 0.248779 32.9978 0.490192 32.6296 1.37345L27.4325 13.8037H31.108C31.108 13.8037 31.7072 12.1324 31.8442 11.7653C32.0329 11.7653 32.9211 11.7667 33.8628 11.7681C34.9252 11.7698 36.0556 11.7716 36.3265 11.7716C36.4303 12.2462 36.7515 13.8037 36.7515 13.8037H40.0001L37.1668 0.248779ZM34.2452 5.19954C34.2452 5.19954 33.1406 8.20962 32.8509 8.99149H35.7568C35.6159 8.31197 34.9463 5.07436 34.9463 5.07436L34.7092 3.90475C34.6124 4.18454 34.476 4.55859 34.376 4.83291C34.2939 5.05794 34.2363 5.21585 34.2452 5.19954ZM5.2687 9.49513L8.73238 0.245576H12.4789L6.90939 13.783L3.16671 13.7882L0 1.92575C2.24639 3.10058 4.25534 5.44822 4.89861 7.61602L5.2687 9.49513Z" fill="#A7A7A7"/>
</svg>
