<svg width="12" height="12" viewBox="0 0 12 12" fill="none" xmlns="http://www.w3.org/2000/svg">
<path d="M11.5323 2.50242C11.0991 1.9875 10.2994 1.77747 8.77204 1.77747H3.22785C1.66556 1.77747 0.852271 2.00105 0.420736 2.54926C0 3.08376 0 3.87131 0 4.9613V7.03881C0 9.15046 0.4992 10.2226 3.22785 10.2226H8.77208C10.0966 10.2226 10.8305 10.0373 11.3053 9.58285C11.7922 9.11686 12 8.35602 12 7.03881V4.9613C12 3.81181 11.9674 3.01962 11.5323 2.50242ZM7.70404 6.28687L5.18644 7.60265C5.13016 7.63207 5.06861 7.64667 5.00714 7.64667C4.93754 7.64667 4.86809 7.62793 4.80658 7.59069C4.69076 7.52051 4.62004 7.39498 4.62004 7.25957V4.63645C4.62004 4.50127 4.69057 4.37585 4.80615 4.30563C4.92178 4.23541 5.06559 4.23061 5.18555 4.29294L7.70315 5.60024C7.83124 5.66674 7.91168 5.79898 7.91187 5.94325C7.91203 6.08763 7.83194 6.22006 7.70404 6.28687Z" fill="#5E6977"/>
</svg>
