<svg width="26" height="22" xmlns="http://www.w3.org/2000/svg" viewBox="0 0 500 500"><path d="M295.89,58.92c-15.67-7.66-34,11.44-26.23,27.38h0a15.62,15.62,0,0,0,8.78,7.26L351,116.68l87.39,27.14-.28.65c-171-50.7-355-88.34-412.44-97a5.21,5.21,0,0,0-5.39,6.94l66.7,156a41.4,41.4,0,0,0,16.42,17.21L241,285.72a71.29,71.29,0,0,0,21.13,5.48,6.44,6.44,0,0,0,1,.05c5.84-.08,63.87-.81,79.1-.33,0,0-102,5.39-189.65,22.58-8.38,2.26-13.53,8.77-10.24,15.59l24.47,55.55a9.8,9.8,0,0,0,5.7,5.16S237.38,408,276.92,424a.27.27,0,0,1,.15.34.22.22,0,0,1-.05.08s-8.66-2.39-17-3.76a74.25,74.25,0,0,0-14.51-1.07L221.74,443a1.8,1.8,0,0,0,.75,3.16,95.58,95.58,0,0,0,36.3-2.64C273.14,439.61,281,432,285,428.41l17.86-20.2a4.33,4.33,0,0,0,.8-4.64c-8.09-16.7-40.46-29.45-59.73-30.16l-49,6.44c56.89-15.17,108.92-24.17,108.92-24.17h0c51.86-9.06,55.55-16.57,79.26-51.35l9.24-13.64a1.83,1.83,0,0,0-.32-2.55l-.14-.1L246.92,223.23c-8.6-3.83-16.44-7-25.51-8l-83-3.84s66.42-3.74,147.15-1.55c55,1.49,107.2,5.09,134.87,7.23,12.49,1,25.24-5.67,32.74-17l26.42-40.13a2.12,2.12,0,0,0-.4-3l-.19-.12Z" style="fill:#fff"/></svg>
