<svg width="436" height="311" viewBox="0 0 436 311" fill="none" xmlns="http://www.w3.org/2000/svg">
<g filter="url(#filter0_d_10069_66898)">
<rect x="7" y="6" width="420" height="295" rx="10" fill="white"/>
<rect x="7.25" y="6.25" width="419.5" height="294.5" rx="9.75" stroke="#EBEFF1" stroke-width="0.5"/>
</g>
<path d="M55.4927 257.27C54.9287 257.27 54.4567 257.144 54.0767 256.892C53.7007 256.64 53.4007 256.304 53.1767 255.884C52.9527 255.46 52.7927 254.992 52.6967 254.48C52.6007 253.964 52.5527 253.446 52.5527 252.926C52.5527 252.558 52.5787 252.174 52.6307 251.774C52.6867 251.37 52.7787 250.98 52.9067 250.604C53.0347 250.224 53.2107 249.882 53.4347 249.578C53.6587 249.274 53.9387 249.032 54.2747 248.852C54.6147 248.672 55.0207 248.582 55.4927 248.582C56.0567 248.582 56.5267 248.71 56.9027 248.966C57.2827 249.218 57.5847 249.556 57.8087 249.98C58.0327 250.404 58.1927 250.872 58.2887 251.384C58.3847 251.896 58.4327 252.41 58.4327 252.926C58.4327 253.294 58.4047 253.68 58.3487 254.084C58.2927 254.484 58.1987 254.874 58.0667 255.254C57.9387 255.63 57.7627 255.97 57.5387 256.274C57.3147 256.578 57.0347 256.82 56.6987 257C56.3627 257.18 55.9607 257.27 55.4927 257.27ZM55.4927 256.286C55.8727 256.286 56.1827 256.184 56.4227 255.98C56.6627 255.772 56.8487 255.502 56.9807 255.17C57.1127 254.834 57.2027 254.47 57.2507 254.078C57.3027 253.686 57.3287 253.302 57.3287 252.926C57.3287 252.51 57.3007 252.104 57.2447 251.708C57.1887 251.308 57.0927 250.946 56.9567 250.622C56.8247 250.294 56.6387 250.034 56.3987 249.842C56.1627 249.65 55.8607 249.554 55.4927 249.554C55.1087 249.554 54.7947 249.658 54.5507 249.866C54.3067 250.07 54.1187 250.34 53.9867 250.676C53.8547 251.012 53.7627 251.378 53.7107 251.774C53.6587 252.166 53.6327 252.55 53.6327 252.926C53.6327 253.338 53.6607 253.744 53.7167 254.144C53.7727 254.544 53.8687 254.906 54.0047 255.23C54.1447 255.55 54.3347 255.806 54.5747 255.998C54.8187 256.19 55.1247 256.286 55.4927 256.286Z" fill="#002D4F" fill-opacity="0.5"/>
<path d="M37.5277 213.463C37.5277 212.911 37.6057 212.425 37.7617 212.005C37.9217 211.581 38.1337 211.209 38.3977 210.889C38.6657 210.565 38.9657 210.279 39.2977 210.031C39.6297 209.783 39.9677 209.559 40.3117 209.359C40.6117 209.183 40.8917 208.999 41.1517 208.807C41.4117 208.611 41.6217 208.393 41.7817 208.153C41.9457 207.913 42.0277 207.635 42.0277 207.319C42.0277 206.915 41.8797 206.577 41.5837 206.305C41.2877 206.029 40.8877 205.891 40.3837 205.891C39.8677 205.891 39.4697 206.005 39.1897 206.233C38.9137 206.457 38.7157 206.755 38.5957 207.127L37.6597 206.707C37.8237 206.191 38.1497 205.765 38.6377 205.429C39.1297 205.089 39.7237 204.919 40.4197 204.919C40.9797 204.919 41.4597 205.021 41.8597 205.225C42.2637 205.429 42.5717 205.713 42.7837 206.077C42.9997 206.441 43.1077 206.863 43.1077 207.343C43.1077 207.835 42.9997 208.253 42.7837 208.597C42.5677 208.937 42.2817 209.237 41.9257 209.497C41.5737 209.757 41.1917 210.007 40.7797 210.247C40.4357 210.447 40.1217 210.655 39.8377 210.871C39.5537 211.083 39.3157 211.317 39.1237 211.573C38.9317 211.829 38.8037 212.119 38.7397 212.443H43.1797V213.463H37.5277ZM47.8874 213.607C47.3234 213.607 46.8514 213.481 46.4714 213.229C46.0954 212.977 45.7954 212.641 45.5714 212.221C45.3474 211.797 45.1874 211.329 45.0914 210.817C44.9954 210.301 44.9474 209.783 44.9474 209.263C44.9474 208.895 44.9734 208.511 45.0254 208.111C45.0814 207.707 45.1734 207.317 45.3014 206.941C45.4294 206.561 45.6054 206.219 45.8294 205.915C46.0534 205.611 46.3334 205.369 46.6694 205.189C47.0094 205.009 47.4154 204.919 47.8874 204.919C48.4514 204.919 48.9214 205.047 49.2974 205.303C49.6774 205.555 49.9794 205.893 50.2034 206.317C50.4274 206.741 50.5874 207.209 50.6834 207.721C50.7794 208.233 50.8274 208.747 50.8274 209.263C50.8274 209.631 50.7994 210.017 50.7434 210.421C50.6874 210.821 50.5934 211.211 50.4614 211.591C50.3334 211.967 50.1574 212.307 49.9334 212.611C49.7094 212.915 49.4294 213.157 49.0934 213.337C48.7574 213.517 48.3554 213.607 47.8874 213.607ZM47.8874 212.623C48.2674 212.623 48.5774 212.521 48.8174 212.317C49.0574 212.109 49.2434 211.839 49.3754 211.507C49.5074 211.171 49.5974 210.807 49.6454 210.415C49.6974 210.023 49.7234 209.639 49.7234 209.263C49.7234 208.847 49.6954 208.441 49.6394 208.045C49.5834 207.645 49.4874 207.283 49.3514 206.959C49.2194 206.631 49.0334 206.371 48.7934 206.179C48.5574 205.987 48.2554 205.891 47.8874 205.891C47.5034 205.891 47.1894 205.995 46.9454 206.203C46.7014 206.407 46.5134 206.677 46.3814 207.013C46.2494 207.349 46.1574 207.715 46.1054 208.111C46.0534 208.503 46.0274 208.887 46.0274 209.263C46.0274 209.675 46.0554 210.081 46.1114 210.481C46.1674 210.881 46.2634 211.243 46.3994 211.567C46.5394 211.887 46.7294 212.143 46.9694 212.335C47.2134 212.527 47.5194 212.623 47.8874 212.623ZM55.4928 213.607C54.9288 213.607 54.4568 213.481 54.0768 213.229C53.7008 212.977 53.4008 212.641 53.1768 212.221C52.9528 211.797 52.7928 211.329 52.6968 210.817C52.6008 210.301 52.5528 209.783 52.5528 209.263C52.5528 208.895 52.5788 208.511 52.6308 208.111C52.6868 207.707 52.7788 207.317 52.9068 206.941C53.0348 206.561 53.2108 206.219 53.4348 205.915C53.6588 205.611 53.9388 205.369 54.2748 205.189C54.6148 205.009 55.0208 204.919 55.4928 204.919C56.0568 204.919 56.5268 205.047 56.9028 205.303C57.2828 205.555 57.5848 205.893 57.8088 206.317C58.0328 206.741 58.1928 207.209 58.2888 207.721C58.3848 208.233 58.4328 208.747 58.4328 209.263C58.4328 209.631 58.4048 210.017 58.3488 210.421C58.2928 210.821 58.1988 211.211 58.0668 211.591C57.9388 211.967 57.7628 212.307 57.5388 212.611C57.3148 212.915 57.0348 213.157 56.6988 213.337C56.3628 213.517 55.9608 213.607 55.4928 213.607ZM55.4928 212.623C55.8728 212.623 56.1828 212.521 56.4228 212.317C56.6628 212.109 56.8488 211.839 56.9808 211.507C57.1128 211.171 57.2028 210.807 57.2508 210.415C57.3028 210.023 57.3288 209.639 57.3288 209.263C57.3288 208.847 57.3008 208.441 57.2448 208.045C57.1888 207.645 57.0928 207.283 56.9568 206.959C56.8248 206.631 56.6388 206.371 56.3988 206.179C56.1628 205.987 55.8608 205.891 55.4928 205.891C55.1088 205.891 54.7948 205.995 54.5508 206.203C54.3068 206.407 54.1188 206.677 53.9868 207.013C53.8548 207.349 53.7628 207.715 53.7108 208.111C53.6588 208.503 53.6328 208.887 53.6328 209.263C53.6328 209.675 53.6608 210.081 53.7168 210.481C53.7728 210.881 53.8688 211.243 54.0048 211.567C54.1448 211.887 54.3348 212.143 54.5748 212.335C54.8188 212.527 55.1248 212.623 55.4928 212.623Z" fill="#002D4F" fill-opacity="0.5"/>
<path d="M41.1763 169.798V167.71H36.8803V167.086L41.2363 161.398H42.2203V166.774H43.4083V167.71H42.2203V169.798H41.1763ZM38.2483 166.774H41.1763V162.874L38.2483 166.774ZM47.8854 169.942C47.3214 169.942 46.8494 169.816 46.4694 169.564C46.0934 169.312 45.7934 168.976 45.5694 168.556C45.3454 168.132 45.1854 167.664 45.0894 167.152C44.9934 166.636 44.9454 166.118 44.9454 165.598C44.9454 165.23 44.9714 164.846 45.0234 164.446C45.0794 164.042 45.1714 163.652 45.2994 163.276C45.4274 162.896 45.6034 162.554 45.8274 162.25C46.0514 161.946 46.3314 161.704 46.6674 161.524C47.0074 161.344 47.4134 161.254 47.8854 161.254C48.4494 161.254 48.9194 161.382 49.2954 161.638C49.6754 161.89 49.9774 162.228 50.2014 162.652C50.4254 163.076 50.5854 163.544 50.6814 164.056C50.7774 164.568 50.8254 165.082 50.8254 165.598C50.8254 165.966 50.7974 166.352 50.7414 166.756C50.6854 167.156 50.5914 167.546 50.4594 167.926C50.3314 168.302 50.1554 168.642 49.9314 168.946C49.7074 169.25 49.4274 169.492 49.0914 169.672C48.7554 169.852 48.3534 169.942 47.8854 169.942ZM47.8854 168.958C48.2654 168.958 48.5754 168.856 48.8154 168.652C49.0554 168.444 49.2414 168.174 49.3734 167.842C49.5054 167.506 49.5954 167.142 49.6434 166.75C49.6954 166.358 49.7214 165.974 49.7214 165.598C49.7214 165.182 49.6934 164.776 49.6374 164.38C49.5814 163.98 49.4854 163.618 49.3494 163.294C49.2174 162.966 49.0314 162.706 48.7914 162.514C48.5554 162.322 48.2534 162.226 47.8854 162.226C47.5014 162.226 47.1874 162.33 46.9434 162.538C46.6994 162.742 46.5114 163.012 46.3794 163.348C46.2474 163.684 46.1554 164.05 46.1034 164.446C46.0514 164.838 46.0254 165.222 46.0254 165.598C46.0254 166.01 46.0534 166.416 46.1094 166.816C46.1654 167.216 46.2614 167.578 46.3974 167.902C46.5374 168.222 46.7274 168.478 46.9674 168.67C47.2114 168.862 47.5174 168.958 47.8854 168.958ZM55.4909 169.942C54.9269 169.942 54.4549 169.816 54.0749 169.564C53.6989 169.312 53.3989 168.976 53.1749 168.556C52.9509 168.132 52.7909 167.664 52.6949 167.152C52.5989 166.636 52.5509 166.118 52.5509 165.598C52.5509 165.23 52.5769 164.846 52.6289 164.446C52.6849 164.042 52.7769 163.652 52.9049 163.276C53.0329 162.896 53.2089 162.554 53.4329 162.25C53.6569 161.946 53.9369 161.704 54.2729 161.524C54.6129 161.344 55.0189 161.254 55.4909 161.254C56.0549 161.254 56.5249 161.382 56.9009 161.638C57.2809 161.89 57.5829 162.228 57.8069 162.652C58.0309 163.076 58.1909 163.544 58.2869 164.056C58.3829 164.568 58.4309 165.082 58.4309 165.598C58.4309 165.966 58.4029 166.352 58.3469 166.756C58.2909 167.156 58.1969 167.546 58.0649 167.926C57.9369 168.302 57.7609 168.642 57.5369 168.946C57.3129 169.25 57.0329 169.492 56.6969 169.672C56.3609 169.852 55.9589 169.942 55.4909 169.942ZM55.4909 168.958C55.8709 168.958 56.1809 168.856 56.4209 168.652C56.6609 168.444 56.8469 168.174 56.9789 167.842C57.1109 167.506 57.2009 167.142 57.2489 166.75C57.3009 166.358 57.3269 165.974 57.3269 165.598C57.3269 165.182 57.2989 164.776 57.2429 164.38C57.1869 163.98 57.0909 163.618 56.9549 163.294C56.8229 162.966 56.6369 162.706 56.3969 162.514C56.1609 162.322 55.8589 162.226 55.4909 162.226C55.1069 162.226 54.7929 162.33 54.5489 162.538C54.3049 162.742 54.1169 163.012 53.9849 163.348C53.8529 163.684 53.7609 164.05 53.7089 164.446C53.6569 164.838 53.6309 165.222 53.6309 165.598C53.6309 166.01 53.6589 166.416 53.7149 166.816C53.7709 167.216 53.8669 167.578 54.0029 167.902C54.1429 168.222 54.3329 168.478 54.5729 168.67C54.8169 168.862 55.1229 168.958 55.4909 168.958Z" fill="#002D4F" fill-opacity="0.5"/>
<path d="M40.4992 126.276C40.0272 126.276 39.6132 126.194 39.2572 126.03C38.9012 125.866 38.6032 125.636 38.3632 125.34C38.1272 125.044 37.9492 124.7 37.8292 124.308C37.7132 123.912 37.6552 123.484 37.6552 123.024C37.6552 122.16 37.8312 121.352 38.1832 120.6C38.5352 119.844 39.0412 119.202 39.7012 118.674C40.3652 118.142 41.1632 117.78 42.0952 117.588V118.512C41.5992 118.628 41.1312 118.83 40.6912 119.118C40.2512 119.402 39.8732 119.754 39.5572 120.174C39.2452 120.594 39.0312 121.06 38.9152 121.572C39.0952 121.368 39.3432 121.204 39.6592 121.08C39.9752 120.952 40.3392 120.888 40.7512 120.888C41.2352 120.888 41.6692 121.008 42.0532 121.248C42.4372 121.484 42.7392 121.802 42.9592 122.202C43.1832 122.602 43.2952 123.044 43.2952 123.528C43.2952 124.06 43.1732 124.534 42.9292 124.95C42.6852 125.362 42.3512 125.686 41.9272 125.922C41.5072 126.158 41.0312 126.276 40.4992 126.276ZM40.4872 125.292C40.8352 125.292 41.1412 125.222 41.4052 125.082C41.6732 124.938 41.8812 124.738 42.0292 124.482C42.1772 124.226 42.2512 123.928 42.2512 123.588C42.2512 123.064 42.0892 122.646 41.7652 122.334C41.4412 122.018 41.0152 121.86 40.4872 121.86C40.1432 121.86 39.8372 121.932 39.5692 122.076C39.3012 122.216 39.0912 122.416 38.9392 122.676C38.7872 122.936 38.7112 123.24 38.7112 123.588C38.7112 123.928 38.7892 124.226 38.9452 124.482C39.1012 124.738 39.3132 124.938 39.5812 125.082C39.8492 125.222 40.1512 125.292 40.4872 125.292ZM47.8874 126.276C47.3234 126.276 46.8514 126.15 46.4714 125.898C46.0954 125.646 45.7954 125.31 45.5714 124.89C45.3474 124.466 45.1874 123.998 45.0914 123.486C44.9954 122.97 44.9474 122.452 44.9474 121.932C44.9474 121.564 44.9734 121.18 45.0254 120.78C45.0814 120.376 45.1734 119.986 45.3014 119.61C45.4294 119.23 45.6054 118.888 45.8294 118.584C46.0534 118.28 46.3334 118.038 46.6694 117.858C47.0094 117.678 47.4154 117.588 47.8874 117.588C48.4514 117.588 48.9214 117.716 49.2974 117.972C49.6774 118.224 49.9794 118.562 50.2034 118.986C50.4274 119.41 50.5874 119.878 50.6834 120.39C50.7794 120.902 50.8274 121.416 50.8274 121.932C50.8274 122.3 50.7994 122.686 50.7434 123.09C50.6874 123.49 50.5934 123.88 50.4614 124.26C50.3334 124.636 50.1574 124.976 49.9334 125.28C49.7094 125.584 49.4294 125.826 49.0934 126.006C48.7574 126.186 48.3554 126.276 47.8874 126.276ZM47.8874 125.292C48.2674 125.292 48.5774 125.19 48.8174 124.986C49.0574 124.778 49.2434 124.508 49.3754 124.176C49.5074 123.84 49.5974 123.476 49.6454 123.084C49.6974 122.692 49.7234 122.308 49.7234 121.932C49.7234 121.516 49.6954 121.11 49.6394 120.714C49.5834 120.314 49.4874 119.952 49.3514 119.628C49.2194 119.3 49.0334 119.04 48.7934 118.848C48.5574 118.656 48.2554 118.56 47.8874 118.56C47.5034 118.56 47.1894 118.664 46.9454 118.872C46.7014 119.076 46.5134 119.346 46.3814 119.682C46.2494 120.018 46.1574 120.384 46.1054 120.78C46.0534 121.172 46.0274 121.556 46.0274 121.932C46.0274 122.344 46.0554 122.75 46.1114 123.15C46.1674 123.55 46.2634 123.912 46.3994 124.236C46.5394 124.556 46.7294 124.812 46.9694 125.004C47.2134 125.196 47.5194 125.292 47.8874 125.292ZM55.4928 126.276C54.9288 126.276 54.4568 126.15 54.0768 125.898C53.7008 125.646 53.4008 125.31 53.1768 124.89C52.9528 124.466 52.7928 123.998 52.6968 123.486C52.6008 122.97 52.5528 122.452 52.5528 121.932C52.5528 121.564 52.5788 121.18 52.6308 120.78C52.6868 120.376 52.7788 119.986 52.9068 119.61C53.0348 119.23 53.2108 118.888 53.4348 118.584C53.6588 118.28 53.9388 118.038 54.2748 117.858C54.6148 117.678 55.0208 117.588 55.4928 117.588C56.0568 117.588 56.5268 117.716 56.9028 117.972C57.2828 118.224 57.5848 118.562 57.8088 118.986C58.0328 119.41 58.1928 119.878 58.2888 120.39C58.3848 120.902 58.4328 121.416 58.4328 121.932C58.4328 122.3 58.4048 122.686 58.3488 123.09C58.2928 123.49 58.1988 123.88 58.0668 124.26C57.9388 124.636 57.7628 124.976 57.5388 125.28C57.3148 125.584 57.0348 125.826 56.6988 126.006C56.3628 126.186 55.9608 126.276 55.4928 126.276ZM55.4928 125.292C55.8728 125.292 56.1828 125.19 56.4228 124.986C56.6628 124.778 56.8488 124.508 56.9808 124.176C57.1128 123.84 57.2028 123.476 57.2508 123.084C57.3028 122.692 57.3288 122.308 57.3288 121.932C57.3288 121.516 57.3008 121.11 57.2448 120.714C57.1888 120.314 57.0928 119.952 56.9568 119.628C56.8248 119.3 56.6388 119.04 56.3988 118.848C56.1628 118.656 55.8608 118.56 55.4928 118.56C55.1088 118.56 54.7948 118.664 54.5508 118.872C54.3068 119.076 54.1188 119.346 53.9868 119.682C53.8548 120.018 53.7628 120.384 53.7108 120.78C53.6588 121.172 53.6328 121.556 53.6328 121.932C53.6328 122.344 53.6608 122.75 53.7168 123.15C53.7728 123.55 53.8688 123.912 54.0048 124.236C54.1448 124.556 54.3348 124.812 54.5748 125.004C54.8188 125.196 55.1248 125.292 55.4928 125.292Z" fill="#002D4F" fill-opacity="0.5"/>
<path d="M40.4747 82.611C39.9227 82.611 39.4347 82.501 39.0107 82.281C38.5867 82.057 38.2547 81.753 38.0147 81.369C37.7747 80.981 37.6547 80.543 37.6547 80.055C37.6547 79.531 37.7887 79.077 38.0567 78.693C38.3287 78.309 38.6747 78.027 39.0947 77.847C38.8667 77.731 38.6727 77.585 38.5127 77.409C38.3527 77.233 38.2307 77.035 38.1467 76.815C38.0667 76.595 38.0267 76.359 38.0267 76.107C38.0267 75.703 38.1307 75.337 38.3387 75.009C38.5467 74.677 38.8347 74.413 39.2027 74.217C39.5707 74.021 39.9947 73.923 40.4747 73.923C40.9587 73.923 41.3847 74.021 41.7527 74.217C42.1247 74.413 42.4147 74.677 42.6227 75.009C42.8307 75.337 42.9347 75.703 42.9347 76.107C42.9347 76.359 42.8927 76.595 42.8087 76.815C42.7287 77.035 42.6087 77.233 42.4487 77.409C42.2887 77.585 42.0907 77.731 41.8547 77.847C42.2867 78.031 42.6367 78.315 42.9047 78.699C43.1727 79.079 43.3067 79.531 43.3067 80.055C43.3067 80.543 43.1867 80.981 42.9467 81.369C42.7067 81.753 42.3727 82.057 41.9447 82.281C41.5207 82.501 41.0307 82.611 40.4747 82.611ZM40.4747 81.627C40.8107 81.627 41.1107 81.561 41.3747 81.429C41.6387 81.293 41.8467 81.101 41.9987 80.853C42.1507 80.605 42.2267 80.311 42.2267 79.971C42.2267 79.671 42.1527 79.395 42.0047 79.143C41.8567 78.887 41.6507 78.683 41.3867 78.531C41.1227 78.379 40.8187 78.303 40.4747 78.303C40.1307 78.303 39.8267 78.379 39.5627 78.531C39.3027 78.683 39.0987 78.887 38.9507 79.143C38.8067 79.395 38.7347 79.671 38.7347 79.971C38.7347 80.311 38.8087 80.605 38.9567 80.853C39.1087 81.101 39.3147 81.293 39.5747 81.429C39.8387 81.561 40.1387 81.627 40.4747 81.627ZM40.4747 77.427C40.8947 77.427 41.2327 77.309 41.4887 77.073C41.7487 76.833 41.8787 76.539 41.8787 76.191C41.8787 75.795 41.7467 75.481 41.4827 75.249C41.2187 75.013 40.8827 74.895 40.4747 74.895C40.0747 74.895 39.7427 75.013 39.4787 75.249C39.2147 75.481 39.0827 75.795 39.0827 76.191C39.0827 76.539 39.2087 76.833 39.4607 77.073C39.7167 77.309 40.0547 77.427 40.4747 77.427ZM47.8854 82.611C47.3214 82.611 46.8494 82.485 46.4694 82.233C46.0934 81.981 45.7934 81.645 45.5694 81.225C45.3454 80.801 45.1854 80.333 45.0894 79.821C44.9934 79.305 44.9454 78.787 44.9454 78.267C44.9454 77.899 44.9714 77.515 45.0234 77.115C45.0794 76.711 45.1714 76.321 45.2994 75.945C45.4274 75.565 45.6034 75.223 45.8274 74.919C46.0514 74.615 46.3314 74.373 46.6674 74.193C47.0074 74.013 47.4134 73.923 47.8854 73.923C48.4494 73.923 48.9194 74.051 49.2954 74.307C49.6754 74.559 49.9774 74.897 50.2014 75.321C50.4254 75.745 50.5854 76.213 50.6814 76.725C50.7774 77.237 50.8254 77.751 50.8254 78.267C50.8254 78.635 50.7974 79.021 50.7414 79.425C50.6854 79.825 50.5914 80.215 50.4594 80.595C50.3314 80.971 50.1554 81.311 49.9314 81.615C49.7074 81.919 49.4274 82.161 49.0914 82.341C48.7554 82.521 48.3534 82.611 47.8854 82.611ZM47.8854 81.627C48.2654 81.627 48.5754 81.525 48.8154 81.321C49.0554 81.113 49.2414 80.843 49.3734 80.511C49.5054 80.175 49.5954 79.811 49.6434 79.419C49.6954 79.027 49.7214 78.643 49.7214 78.267C49.7214 77.851 49.6934 77.445 49.6374 77.049C49.5814 76.649 49.4854 76.287 49.3494 75.963C49.2174 75.635 49.0314 75.375 48.7914 75.183C48.5554 74.991 48.2534 74.895 47.8854 74.895C47.5014 74.895 47.1874 74.999 46.9434 75.207C46.6994 75.411 46.5114 75.681 46.3794 76.017C46.2474 76.353 46.1554 76.719 46.1034 77.115C46.0514 77.507 46.0254 77.891 46.0254 78.267C46.0254 78.679 46.0534 79.085 46.1094 79.485C46.1654 79.885 46.2614 80.247 46.3974 80.571C46.5374 80.891 46.7274 81.147 46.9674 81.339C47.2114 81.531 47.5174 81.627 47.8854 81.627ZM55.4909 82.611C54.9269 82.611 54.4549 82.485 54.0749 82.233C53.6989 81.981 53.3989 81.645 53.1749 81.225C52.9509 80.801 52.7909 80.333 52.6949 79.821C52.5989 79.305 52.5509 78.787 52.5509 78.267C52.5509 77.899 52.5769 77.515 52.6289 77.115C52.6849 76.711 52.7769 76.321 52.9049 75.945C53.0329 75.565 53.2089 75.223 53.4329 74.919C53.6569 74.615 53.9369 74.373 54.2729 74.193C54.6129 74.013 55.0189 73.923 55.4909 73.923C56.0549 73.923 56.5249 74.051 56.9009 74.307C57.2809 74.559 57.5829 74.897 57.8069 75.321C58.0309 75.745 58.1909 76.213 58.2869 76.725C58.3829 77.237 58.4309 77.751 58.4309 78.267C58.4309 78.635 58.4029 79.021 58.3469 79.425C58.2909 79.825 58.1969 80.215 58.0649 80.595C57.9369 80.971 57.7609 81.311 57.5369 81.615C57.3129 81.919 57.0329 82.161 56.6969 82.341C56.3609 82.521 55.9589 82.611 55.4909 82.611ZM55.4909 81.627C55.8709 81.627 56.1809 81.525 56.4209 81.321C56.6609 81.113 56.8469 80.843 56.9789 80.511C57.1109 80.175 57.2009 79.811 57.2489 79.419C57.3009 79.027 57.3269 78.643 57.3269 78.267C57.3269 77.851 57.2989 77.445 57.2429 77.049C57.1869 76.649 57.0909 76.287 56.9549 75.963C56.8229 75.635 56.6369 75.375 56.3969 75.183C56.1609 74.991 55.8589 74.895 55.4909 74.895C55.1069 74.895 54.7929 74.999 54.5489 75.207C54.3049 75.411 54.1169 75.681 53.9849 76.017C53.8529 76.353 53.7609 76.719 53.7089 77.115C53.6569 77.507 53.6309 77.891 53.6309 78.267C53.6309 78.679 53.6589 79.085 53.7149 79.485C53.7709 79.885 53.8669 80.247 54.0029 80.571C54.1429 80.891 54.3329 81.147 54.5729 81.339C54.8169 81.531 55.1229 81.627 55.4909 81.627Z" fill="#002D4F" fill-opacity="0.5"/>
<path d="M33.8354 38.8018V32.1058H32.4314V31.3978C32.7074 31.3978 32.9574 31.3678 33.1814 31.3078C33.4054 31.2438 33.5974 31.1398 33.7574 30.9958C33.9174 30.8518 34.0394 30.6538 34.1234 30.4018H34.8794V38.8018H33.8354ZM40.28 38.9458C39.716 38.9458 39.244 38.8198 38.864 38.5678C38.488 38.3158 38.188 37.9798 37.964 37.5598C37.74 37.1358 37.58 36.6678 37.484 36.1558C37.388 35.6398 37.34 35.1218 37.34 34.6018C37.34 34.2338 37.366 33.8498 37.418 33.4498C37.474 33.0458 37.566 32.6558 37.694 32.2798C37.822 31.8998 37.998 31.5578 38.222 31.2538C38.446 30.9498 38.726 30.7078 39.062 30.5278C39.402 30.3478 39.808 30.2578 40.28 30.2578C40.844 30.2578 41.314 30.3858 41.69 30.6418C42.07 30.8938 42.372 31.2318 42.596 31.6558C42.82 32.0798 42.98 32.5478 43.076 33.0598C43.172 33.5718 43.22 34.0858 43.22 34.6018C43.22 34.9698 43.192 35.3558 43.136 35.7598C43.08 36.1598 42.986 36.5498 42.854 36.9298C42.726 37.3058 42.55 37.6458 42.326 37.9498C42.102 38.2538 41.822 38.4958 41.486 38.6758C41.15 38.8558 40.748 38.9458 40.28 38.9458ZM40.28 37.9618C40.66 37.9618 40.97 37.8598 41.21 37.6558C41.45 37.4478 41.636 37.1778 41.768 36.8458C41.9 36.5098 41.99 36.1458 42.038 35.7538C42.09 35.3618 42.116 34.9778 42.116 34.6018C42.116 34.1858 42.088 33.7798 42.032 33.3838C41.976 32.9838 41.88 32.6218 41.744 32.2978C41.612 31.9698 41.426 31.7098 41.186 31.5178C40.95 31.3258 40.648 31.2298 40.28 31.2298C39.896 31.2298 39.582 31.3338 39.338 31.5418C39.094 31.7458 38.906 32.0158 38.774 32.3518C38.642 32.6878 38.55 33.0538 38.498 33.4498C38.446 33.8418 38.42 34.2258 38.42 34.6018C38.42 35.0138 38.448 35.4198 38.504 35.8198C38.56 36.2198 38.656 36.5818 38.792 36.9058C38.932 37.2258 39.122 37.4818 39.362 37.6738C39.606 37.8658 39.912 37.9618 40.28 37.9618ZM47.8855 38.9458C47.3215 38.9458 46.8495 38.8198 46.4695 38.5678C46.0935 38.3158 45.7935 37.9798 45.5695 37.5598C45.3455 37.1358 45.1855 36.6678 45.0895 36.1558C44.9935 35.6398 44.9455 35.1218 44.9455 34.6018C44.9455 34.2338 44.9715 33.8498 45.0235 33.4498C45.0795 33.0458 45.1715 32.6558 45.2995 32.2798C45.4275 31.8998 45.6035 31.5578 45.8275 31.2538C46.0515 30.9498 46.3315 30.7078 46.6675 30.5278C47.0075 30.3478 47.4135 30.2578 47.8855 30.2578C48.4495 30.2578 48.9195 30.3858 49.2955 30.6418C49.6755 30.8938 49.9775 31.2318 50.2015 31.6558C50.4255 32.0798 50.5855 32.5478 50.6815 33.0598C50.7775 33.5718 50.8255 34.0858 50.8255 34.6018C50.8255 34.9698 50.7975 35.3558 50.7415 35.7598C50.6855 36.1598 50.5915 36.5498 50.4595 36.9298C50.3315 37.3058 50.1555 37.6458 49.9315 37.9498C49.7075 38.2538 49.4275 38.4958 49.0915 38.6758C48.7555 38.8558 48.3535 38.9458 47.8855 38.9458ZM47.8855 37.9618C48.2655 37.9618 48.5755 37.8598 48.8155 37.6558C49.0555 37.4478 49.2415 37.1778 49.3735 36.8458C49.5055 36.5098 49.5955 36.1458 49.6435 35.7538C49.6955 35.3618 49.7215 34.9778 49.7215 34.6018C49.7215 34.1858 49.6935 33.7798 49.6375 33.3838C49.5815 32.9838 49.4855 32.6218 49.3495 32.2978C49.2175 31.9698 49.0315 31.7098 48.7915 31.5178C48.5555 31.3258 48.2535 31.2298 47.8855 31.2298C47.5015 31.2298 47.1875 31.3338 46.9435 31.5418C46.6995 31.7458 46.5115 32.0158 46.3795 32.3518C46.2475 32.6878 46.1555 33.0538 46.1035 33.4498C46.0515 33.8418 46.0255 34.2258 46.0255 34.6018C46.0255 35.0138 46.0535 35.4198 46.1095 35.8198C46.1655 36.2198 46.2615 36.5818 46.3975 36.9058C46.5375 37.2258 46.7275 37.4818 46.9675 37.6738C47.2115 37.8658 47.5175 37.9618 47.8855 37.9618ZM55.4909 38.9458C54.9269 38.9458 54.4549 38.8198 54.0749 38.5678C53.6989 38.3158 53.3989 37.9798 53.1749 37.5598C52.9509 37.1358 52.7909 36.6678 52.6949 36.1558C52.5989 35.6398 52.5509 35.1218 52.5509 34.6018C52.5509 34.2338 52.5769 33.8498 52.6289 33.4498C52.6849 33.0458 52.7769 32.6558 52.9049 32.2798C53.0329 31.8998 53.2089 31.5578 53.4329 31.2538C53.6569 30.9498 53.9369 30.7078 54.2729 30.5278C54.6129 30.3478 55.0189 30.2578 55.4909 30.2578C56.0549 30.2578 56.5249 30.3858 56.9009 30.6418C57.2809 30.8938 57.5829 31.2318 57.8069 31.6558C58.0309 32.0798 58.1909 32.5478 58.2869 33.0598C58.3829 33.5718 58.4309 34.0858 58.4309 34.6018C58.4309 34.9698 58.4029 35.3558 58.3469 35.7598C58.2909 36.1598 58.1969 36.5498 58.0649 36.9298C57.9369 37.3058 57.7609 37.6458 57.5369 37.9498C57.3129 38.2538 57.0329 38.4958 56.6969 38.6758C56.3609 38.8558 55.9589 38.9458 55.4909 38.9458ZM55.4909 37.9618C55.8709 37.9618 56.1809 37.8598 56.4209 37.6558C56.6609 37.4478 56.8469 37.1778 56.9789 36.8458C57.1109 36.5098 57.2009 36.1458 57.2489 35.7538C57.3009 35.3618 57.3269 34.9778 57.3269 34.6018C57.3269 34.1858 57.2989 33.7798 57.2429 33.3838C57.1869 32.9838 57.0909 32.6218 56.9549 32.2978C56.8229 31.9698 56.6369 31.7098 56.3969 31.5178C56.1609 31.3258 55.8589 31.2298 55.4909 31.2298C55.1069 31.2298 54.7929 31.3338 54.5489 31.5418C54.3049 31.7458 54.1169 32.0158 53.9849 32.3518C53.8529 32.6878 53.7609 33.0538 53.7089 33.4498C53.6569 33.8418 53.6309 34.2258 53.6309 34.6018C53.6309 35.0138 53.6589 35.4198 53.7149 35.8198C53.7709 36.2198 53.8669 36.5818 54.0029 36.9058C54.1429 37.2258 54.3329 37.4818 54.5729 37.6738C54.8169 37.8658 55.1229 37.9618 55.4909 37.9618Z" fill="#002D4F" fill-opacity="0.5"/>
<path d="M110.975 274.228C110.411 274.228 109.939 274.102 109.559 273.85C109.183 273.598 108.883 273.262 108.659 272.842C108.435 272.418 108.275 271.95 108.179 271.438C108.083 270.922 108.035 270.404 108.035 269.884C108.035 269.516 108.061 269.132 108.113 268.732C108.169 268.328 108.261 267.938 108.389 267.562C108.517 267.182 108.693 266.84 108.917 266.536C109.141 266.232 109.421 265.99 109.757 265.81C110.097 265.63 110.503 265.54 110.975 265.54C111.539 265.54 112.009 265.668 112.385 265.924C112.765 266.176 113.067 266.514 113.291 266.938C113.515 267.362 113.675 267.83 113.771 268.342C113.867 268.854 113.915 269.368 113.915 269.884C113.915 270.252 113.887 270.638 113.831 271.042C113.775 271.442 113.681 271.832 113.549 272.212C113.421 272.588 113.245 272.928 113.021 273.232C112.797 273.536 112.517 273.778 112.181 273.958C111.845 274.138 111.443 274.228 110.975 274.228ZM110.975 273.244C111.355 273.244 111.665 273.142 111.905 272.938C112.145 272.73 112.331 272.46 112.463 272.128C112.595 271.792 112.685 271.428 112.733 271.036C112.785 270.644 112.811 270.26 112.811 269.884C112.811 269.468 112.783 269.062 112.727 268.666C112.671 268.266 112.575 267.904 112.439 267.58C112.307 267.252 112.121 266.992 111.881 266.8C111.645 266.608 111.343 266.512 110.975 266.512C110.591 266.512 110.277 266.616 110.033 266.824C109.789 267.028 109.601 267.298 109.469 267.634C109.337 267.97 109.245 268.336 109.193 268.732C109.141 269.124 109.115 269.508 109.115 269.884C109.115 270.296 109.143 270.702 109.199 271.102C109.255 271.502 109.351 271.864 109.487 272.188C109.627 272.508 109.817 272.764 110.057 272.956C110.301 273.148 110.607 273.244 110.975 273.244ZM119.419 274.084V271.996H115.123V271.372L119.479 265.684H120.463V271.06H121.651V271.996H120.463V274.084H119.419ZM116.491 271.06H119.419V267.16L116.491 271.06ZM122.18 275.644L126.908 265.54H127.94L123.224 275.644H122.18ZM130.042 274.084V267.388H128.638V266.68C128.914 266.68 129.164 266.65 129.388 266.59C129.612 266.526 129.804 266.422 129.964 266.278C130.124 266.134 130.246 265.936 130.33 265.684H131.086V274.084H130.042ZM133.475 274.084C133.475 273.532 133.553 273.046 133.709 272.626C133.869 272.202 134.081 271.83 134.345 271.51C134.613 271.186 134.913 270.9 135.245 270.652C135.577 270.404 135.915 270.18 136.259 269.98C136.559 269.804 136.839 269.62 137.099 269.428C137.359 269.232 137.569 269.014 137.729 268.774C137.893 268.534 137.975 268.256 137.975 267.94C137.975 267.536 137.827 267.198 137.531 266.926C137.235 266.65 136.835 266.512 136.331 266.512C135.815 266.512 135.417 266.626 135.137 266.854C134.861 267.078 134.663 267.376 134.543 267.748L133.607 267.328C133.771 266.812 134.097 266.386 134.585 266.05C135.077 265.71 135.671 265.54 136.367 265.54C136.927 265.54 137.407 265.642 137.807 265.846C138.211 266.05 138.519 266.334 138.731 266.698C138.947 267.062 139.055 267.484 139.055 267.964C139.055 268.456 138.947 268.874 138.731 269.218C138.515 269.558 138.229 269.858 137.873 270.118C137.521 270.378 137.139 270.628 136.727 270.868C136.383 271.068 136.069 271.276 135.785 271.492C135.501 271.704 135.263 271.938 135.071 272.194C134.879 272.45 134.751 272.74 134.687 273.064H139.127V274.084H133.475Z" fill="#002D4F" fill-opacity="0.5"/>
<path d="M222.796 274.084V267.388H221.392V266.68C221.668 266.68 221.918 266.65 222.142 266.59C222.366 266.526 222.558 266.422 222.718 266.278C222.878 266.134 223 265.936 223.084 265.684H223.84V274.084H222.796ZM227.273 274.084V267.388H225.869V266.68C226.145 266.68 226.395 266.65 226.619 266.59C226.843 266.526 227.035 266.422 227.195 266.278C227.355 266.134 227.477 265.936 227.561 265.684H228.317V274.084H227.273ZM229.769 275.644L234.497 265.54H235.529L230.813 275.644H229.769ZM237.632 274.084V267.388H236.228V266.68C236.504 266.68 236.754 266.65 236.978 266.59C237.202 266.526 237.394 266.422 237.554 266.278C237.714 266.134 237.836 265.936 237.92 265.684H238.676V274.084H237.632ZM241.065 274.084C241.065 273.532 241.143 273.046 241.299 272.626C241.459 272.202 241.671 271.83 241.935 271.51C242.203 271.186 242.503 270.9 242.835 270.652C243.167 270.404 243.505 270.18 243.849 269.98C244.149 269.804 244.429 269.62 244.689 269.428C244.949 269.232 245.159 269.014 245.319 268.774C245.483 268.534 245.565 268.256 245.565 267.94C245.565 267.536 245.417 267.198 245.121 266.926C244.825 266.65 244.425 266.512 243.921 266.512C243.405 266.512 243.007 266.626 242.727 266.854C242.451 267.078 242.253 267.376 242.133 267.748L241.197 267.328C241.361 266.812 241.687 266.386 242.175 266.05C242.667 265.71 243.261 265.54 243.957 265.54C244.517 265.54 244.997 265.642 245.397 265.846C245.801 266.05 246.109 266.334 246.321 266.698C246.537 267.062 246.645 267.484 246.645 267.964C246.645 268.456 246.537 268.874 246.321 269.218C246.105 269.558 245.819 269.858 245.463 270.118C245.111 270.378 244.729 270.628 244.317 270.868C243.973 271.068 243.659 271.276 243.375 271.492C243.091 271.704 242.853 271.938 242.661 272.194C242.469 272.45 242.341 272.74 242.277 273.064H246.717V274.084H241.065Z" fill="#002D4F" fill-opacity="0.5"/>
<path d="M334.306 274.085V267.389H332.902V266.681C333.178 266.681 333.428 266.651 333.652 266.591C333.876 266.527 334.068 266.423 334.228 266.279C334.388 266.135 334.51 265.937 334.594 265.685H335.35V274.085H334.306ZM340.559 274.229C340.007 274.229 339.519 274.119 339.095 273.899C338.671 273.675 338.339 273.371 338.099 272.987C337.859 272.599 337.739 272.161 337.739 271.673C337.739 271.149 337.873 270.695 338.141 270.311C338.413 269.927 338.759 269.645 339.179 269.465C338.951 269.349 338.757 269.203 338.597 269.027C338.437 268.851 338.315 268.653 338.231 268.433C338.151 268.213 338.111 267.977 338.111 267.725C338.111 267.321 338.215 266.955 338.423 266.627C338.631 266.295 338.919 266.031 339.287 265.835C339.655 265.639 340.079 265.541 340.559 265.541C341.043 265.541 341.469 265.639 341.837 265.835C342.209 266.031 342.499 266.295 342.707 266.627C342.915 266.955 343.019 267.321 343.019 267.725C343.019 267.977 342.977 268.213 342.893 268.433C342.813 268.653 342.693 268.851 342.533 269.027C342.373 269.203 342.175 269.349 341.939 269.465C342.371 269.649 342.721 269.933 342.989 270.317C343.257 270.697 343.391 271.149 343.391 271.673C343.391 272.161 343.271 272.599 343.031 272.987C342.791 273.371 342.457 273.675 342.029 273.899C341.605 274.119 341.115 274.229 340.559 274.229ZM340.559 273.245C340.895 273.245 341.195 273.179 341.459 273.047C341.723 272.911 341.931 272.719 342.083 272.471C342.235 272.223 342.311 271.929 342.311 271.589C342.311 271.289 342.237 271.013 342.089 270.761C341.941 270.505 341.735 270.301 341.471 270.149C341.207 269.997 340.903 269.921 340.559 269.921C340.215 269.921 339.911 269.997 339.647 270.149C339.387 270.301 339.183 270.505 339.035 270.761C338.891 271.013 338.819 271.289 338.819 271.589C338.819 271.929 338.893 272.223 339.041 272.471C339.193 272.719 339.399 272.911 339.659 273.047C339.923 273.179 340.223 273.245 340.559 273.245ZM340.559 269.045C340.979 269.045 341.317 268.927 341.573 268.691C341.833 268.451 341.963 268.157 341.963 267.809C341.963 267.413 341.831 267.099 341.567 266.867C341.303 266.631 340.967 266.513 340.559 266.513C340.159 266.513 339.827 266.631 339.563 266.867C339.299 267.099 339.167 267.413 339.167 267.809C339.167 268.157 339.293 268.451 339.545 268.691C339.801 268.927 340.139 269.045 340.559 269.045ZM343.776 275.645L348.504 265.541H349.536L344.82 275.645H343.776ZM351.638 274.085V267.389H350.234V266.681C350.51 266.681 350.76 266.651 350.984 266.591C351.208 266.527 351.4 266.423 351.56 266.279C351.72 266.135 351.842 265.937 351.926 265.685H352.682V274.085H351.638ZM355.071 274.085C355.071 273.533 355.149 273.047 355.305 272.627C355.465 272.203 355.677 271.831 355.941 271.511C356.209 271.187 356.509 270.901 356.841 270.653C357.173 270.405 357.511 270.181 357.855 269.981C358.155 269.805 358.435 269.621 358.695 269.429C358.955 269.233 359.165 269.015 359.325 268.775C359.489 268.535 359.571 268.257 359.571 267.941C359.571 267.537 359.423 267.199 359.127 266.927C358.831 266.651 358.431 266.513 357.927 266.513C357.411 266.513 357.013 266.627 356.733 266.855C356.457 267.079 356.259 267.377 356.139 267.749L355.203 267.329C355.367 266.813 355.693 266.387 356.181 266.051C356.673 265.711 357.267 265.541 357.963 265.541C358.523 265.541 359.003 265.643 359.403 265.847C359.807 266.051 360.115 266.335 360.327 266.699C360.543 267.063 360.651 267.485 360.651 267.965C360.651 268.457 360.543 268.875 360.327 269.219C360.111 269.559 359.825 269.859 359.469 270.119C359.117 270.379 358.735 270.629 358.323 270.869C357.979 271.069 357.665 271.277 357.381 271.493C357.097 271.705 356.859 271.939 356.667 272.195C356.475 272.451 356.347 272.741 356.283 273.065H360.723V274.085H355.071Z" fill="#002D4F" fill-opacity="0.5"/>
<rect x="75.9648" y="35.9275" width="100" height="218.756" rx="3" fill="#F9F9F9"/>
<rect x="297.345" y="35.9275" width="100" height="218.756" rx="3" fill="#F9F9F9"/>
<rect x="187" y="35.9275" width="100" height="218.756" rx="3" fill="white"/>
<rect x="187" y="35.9275" width="100" height="218.756" rx="3" fill="url(#paint0_linear_10069_66898)" fill-opacity="0.75"/>
<path d="M77.3438 198.723L99.3243 125.521L120.572 50.8916L142.553 116.594L164.533 119.094L190.91 152.66L207.762 207.65L229.742 197.652L251.723 122.665L272.971 101.597L294.951 182.654L316.199 122.665L338.18 148.375L360.161 209.793L382.141 199.08L397.344 152.66" stroke="#15D1D4" stroke-width="3" stroke-linecap="round" stroke-linejoin="round"/>
<path d="M237.345 173.526C239.742 173.526 241.603 171.532 241.603 169.176C241.603 166.82 239.742 164.826 237.345 164.826C234.947 164.826 233.086 166.82 233.086 169.176C233.086 171.532 234.947 173.526 237.345 173.526Z" fill="white"/>
<path d="M237.345 173.526C239.742 173.526 241.603 171.532 241.603 169.176C241.603 166.82 239.742 164.826 237.345 164.826C234.947 164.826 233.086 166.82 233.086 169.176C233.086 171.532 234.947 173.526 237.345 173.526Z" stroke="#15CFD2" stroke-width="3"/>
<path d="M237.345 173.526C239.742 173.526 241.603 171.532 241.603 169.176C241.603 166.82 239.742 164.826 237.345 164.826C234.947 164.826 233.086 166.82 233.086 169.176C233.086 171.532 234.947 173.526 237.345 173.526Z" stroke="white" stroke-opacity="0.1" stroke-width="3"/>
<rect x="7" y="6" width="420" height="295" rx="10" fill="#002D4F" fill-opacity="0.03"/>
<defs>
<filter id="filter0_d_10069_66898" x="0" y="0" width="436" height="311" filterUnits="userSpaceOnUse" color-interpolation-filters="sRGB">
<feFlood flood-opacity="0" result="BackgroundImageFix"/>
<feColorMatrix in="SourceAlpha" type="matrix" values="0 0 0 0 0 0 0 0 0 0 0 0 0 0 0 0 0 0 127 0" result="hardAlpha"/>
<feMorphology radius="2" operator="erode" in="SourceAlpha" result="effect1_dropShadow_10069_66898"/>
<feOffset dx="1" dy="2"/>
<feGaussianBlur stdDeviation="5"/>
<feColorMatrix type="matrix" values="0 0 0 0 0 0 0 0 0 0.176471 0 0 0 0 0.309804 0 0 0 0.1 0"/>
<feBlend mode="normal" in2="BackgroundImageFix" result="effect1_dropShadow_10069_66898"/>
<feBlend mode="normal" in="SourceGraphic" in2="effect1_dropShadow_10069_66898" result="shape"/>
</filter>
<linearGradient id="paint0_linear_10069_66898" x1="237" y1="35.9275" x2="237" y2="254.684" gradientUnits="userSpaceOnUse">
<stop stop-color="#C6E6FF"/>
<stop offset="1" stop-color="#FFBADD"/>
</linearGradient>
</defs>
</svg>
