<svg xmlns="http://www.w3.org/2000/svg" viewBox="0 0 374 438"><g fill="#D0D0D0"><path d="M34 72h-9c-2 0-3-1-3-3V38c0-2 1-3 3-3h9l2 2v32c0 2-1 3-2 3zM34 118h-9c-2 0-3-1-3-2V84c0-1 1-2 3-2h9l2 2v32l-2 2zM34 166h-9c-2 0-3-1-3-2v-32c0-1 1-2 3-2h9l2 2v32l-2 2zM34 215h-9c-2 0-3-1-3-3v-31c0-2 1-3 3-3h9c1 0 2 1 2 3v31c0 2-1 3-2 3zM34 263h-9c-2 0-3-1-3-2v-32c0-1 1-2 3-2h9l2 2v32l-2 2zM34 311h-9c-2 0-3-1-3-2v-32c0-1 1-2 3-2h9l2 2v32l-2 2zM34 355h-9c-2 0-3-1-3-2v-32c0-1 1-2 3-2h9l2 2v32l-2 2zM34 403h-9c-2 0-3-1-3-2v-32c0-1 1-2 3-2h9l2 2v32l-2 2z"/></g><path fill="#A2A2A2" d="M340 189L257 56c-8-13-22-21-38-21L36 36v367h189c16 0 30-9 38-23l78-132c10-18 10-41-1-59zM169 308a90 90 0 1 1 0-180 90 90 0 0 1 0 180z"/><path fill="#A2A2A2" d="M217 228h-37v39h-19v-39h-37v-17h37v-40h19v40h37v17z"/></svg>
