<?xml version="1.0" encoding="utf-8"?>
<!-- Generator: Adobe Illustrator 24.0.0, SVG Export Plug-In . SVG Version: 6.00 Build 0)  -->
<svg version="1.1" id="Layer_1" xmlns="http://www.w3.org/2000/svg" xmlns:xlink="http://www.w3.org/1999/xlink" x="0px" y="0px"
	 viewBox="0 0 512 512" style="enable-background:new 0 0 512 512;" xml:space="preserve">
<path d="M435.2,204.8h-12.8L335.4,96c-9.7-12.1-24.4-19.2-40-19.2H124.3c-20.9,0-39.8,12.7-47.5,32.2l-38.3,97.6
	C16.4,212.3,0,232.2,0,256v89.6c0,7.1,5.7,12.8,12.8,12.8h38.4c0,42.4,34.4,76.8,76.8,76.8s76.8-34.4,76.8-76.8h102.4
	c0,42.4,34.4,76.8,76.8,76.8s76.8-34.4,76.8-76.8h38.4c7.1,0,12.8-5.7,12.8-12.8v-64C512,239.2,477.6,204.8,435.2,204.8z M128,396.8
	c-21.2,0-38.4-17.2-38.4-38.4S106.8,320,128,320s38.4,17.2,38.4,38.4S149.2,396.8,128,396.8z M185.6,204.8H93.5l30.7-76.8h61.3
	V204.8z M224,204.8V128h71.4l61.4,76.8H224z M384,396.8c-21.2,0-38.4-17.2-38.4-38.4S362.8,320,384,320s38.4,17.2,38.4,38.4
	S405.2,396.8,384,396.8z"/>
</svg>
