<?xml version="1.0" encoding="utf-8"?>
<!-- Generator: Adobe Illustrator 25.0.0, SVG Export Plug-In . SVG Version: 6.00 Build 0)  -->
<svg version="1.1" id="Layer_1" xmlns="http://www.w3.org/2000/svg" xmlns:xlink="http://www.w3.org/1999/xlink" x="0px" y="0px"
	 viewBox="0 0 512 512" style="enable-background:new 0 0 512 512;" xml:space="preserve">
<path d="M126.2,94.4c-8.8-8.8-23-8.8-31.8,0c-8.8,8.8-8.8,23,0,31.8L224.2,256L94.4,385.8c-8.8,8.8-8.8,23,0,31.8
	c8.8,8.8,23,8.8,31.8,0L256,287.8l129.8,129.8c8.8,8.8,23,8.8,31.8,0c8.8-8.8,8.8-23,0-31.8L287.8,256l129.8-129.8
	c8.8-8.8,8.8-23,0-31.8c-8.8-8.8-23-8.8-31.8,0L256,224.2L126.2,94.4z"/>
</svg>
