<?xml version="1.0" encoding="utf-8"?>
<!-- Generator: Adobe Illustrator 24.0.0, SVG Export Plug-In . SVG Version: 6.00 Build 0)  -->
<svg version="1.1" id="Layer_1" xmlns="http://www.w3.org/2000/svg" xmlns:xlink="http://www.w3.org/1999/xlink" x="0px" y="0px"
	 viewBox="0 0 512 512" style="enable-background:new 0 0 512 512;" xml:space="preserve">
<path d="M173.9,397.4c0,2-2.3,3.6-5.2,3.6c-3.3,0.3-5.6-1.3-5.6-3.6c0-2,2.3-3.6,5.2-3.6C171.3,393.5,173.9,395.1,173.9,397.4z
	 M142.8,392.9c-0.7,2,1.3,4.3,4.3,4.9c2.6,1,5.6,0,6.2-2s-1.3-4.3-4.3-5.2C146.4,389.9,143.5,390.9,142.8,392.9L142.8,392.9z
	 M187,391.2c-2.9,0.7-4.9,2.6-4.6,4.9c0.3,2,2.9,3.3,5.9,2.6c2.9-0.7,4.9-2.6,4.6-4.6C192.6,392.2,189.9,390.9,187,391.2z M252.8,8
	C114.1,8,8,113.3,8,252c0,110.9,69.8,205.8,169.5,239.2c12.8,2.3,17.3-5.6,17.3-12.1c0-6.2-0.3-40.4-0.3-61.4c0,0-70,15-84.7-29.8
	c0,0-11.4-29.1-27.8-36.6c0,0-22.9-15.7,1.6-15.4c0,0,24.9,2,38.6,25.8c21.9,38.6,58.6,27.5,72.9,20.9c2.3-16,8.8-27.1,16-33.7
	c-55.9-6.2-112.3-14.3-112.3-110.5c0-27.5,7.6-41.3,23.6-58.9c-2.6-6.5-11.1-33.3,2.6-67.9c20.9-6.5,69,27,69,27
	c20-5.6,41.5-8.5,62.8-8.5c21.3,0,42.8,2.9,62.8,8.5c0,0,48.1-33.6,69-27c13.7,34.7,5.2,61.4,2.6,67.9c16,17.7,25.8,31.5,25.8,58.9
	c0,96.5-58.9,104.2-114.8,110.5c9.2,7.9,17,22.9,17,46.4c0,33.7-0.3,75.4-0.3,83.6c0,6.5,4.6,14.4,17.3,12.1
	C436.2,457.8,504,362.9,504,252C504,113.3,391.5,8,252.8,8z M105.2,352.9c-1.3,1-1,3.3,0.7,5.2c1.6,1.6,3.9,2.3,5.2,1
	c1.3-1,1-3.3-0.7-5.2C108.8,352.3,106.5,351.6,105.2,352.9z M94.4,344.8c-0.7,1.3,0.3,2.9,2.3,3.9c1.6,1,3.6,0.7,4.3-0.7
	c0.7-1.3-0.3-2.9-2.3-3.9C96.7,343.5,95.1,343.8,94.4,344.8z M126.8,380.4c-1.6,1.3-1,4.3,1.3,6.2c2.3,2.3,5.2,2.6,6.5,1
	c1.3-1.3,0.7-4.3-1.3-6.2C131.1,379.1,128.1,378.8,126.8,380.4z M115.4,365.7c-1.6,1-1.6,3.6,0,5.9s4.3,3.3,5.6,2.3
	c1.6-1.3,1.6-3.9,0-6.2C119.6,365.4,117,364.4,115.4,365.7L115.4,365.7z"/>
</svg>
