<?xml version="1.0" encoding="utf-8"?>
<!-- Generator: Adobe Illustrator 24.0.0, SVG Export Plug-In . SVG Version: 6.00 Build 0)  -->
<svg version="1.1" id="Layer_1" xmlns="http://www.w3.org/2000/svg" xmlns:xlink="http://www.w3.org/1999/xlink" x="0px" y="0px"
	 viewBox="0 0 512 512" style="enable-background:new 0 0 512 512;" xml:space="preserve">
<path d="M472.7,182.1l7.1-40c1.3-7.4-4.3-14.1-11.8-14.1h-74.8l14.6-81.9c1.3-7.4-4.3-14.1-11.8-14.1h-40.6
	c-5.8,0-10.8,4.2-11.8,9.9L328.2,128h-98.6l14.6-81.9c1.3-7.4-4.3-14.1-11.8-14.1h-40.6c-5.8,0-10.8,4.2-11.8,9.9L164.5,128H85.4
	c-5.8,0-10.8,4.2-11.8,9.9l-7.1,40c-1.3,7.4,4.3,14.1,11.8,14.1h74.8l-22.9,128H51.1c-5.8,0-10.8,4.2-11.8,9.9l-7.1,40
	C30.9,377.2,36.5,384,44,384h74.8l-14.6,81.9c-1.3,7.4,4.3,14.1,11.8,14.1h40.6c5.8,0,10.8-4.2,11.8-9.9l15.4-86.1h98.6l-14.6,81.9
	c-1.3,7.4,4.3,14.1,11.8,14.1h40.6c5.8,0,10.8-4.2,11.8-9.9l15.4-86.1h79.1c5.8,0,10.8-4.2,11.8-9.9l7.1-40
	c1.3-7.4-4.3-14.1-11.8-14.1h-74.8l22.9-128h79.1C466.7,192,471.6,187.8,472.7,182.1z M293.9,320h-98.6l22.9-128h98.6L293.9,320z"/>
</svg>
