<?xml version="1.0" encoding="utf-8"?>
<!-- Generator: Adobe Illustrator 24.0.0, SVG Export Plug-In . SVG Version: 6.00 Build 0)  -->
<svg version="1.1" id="Layer_1" xmlns="http://www.w3.org/2000/svg" xmlns:xlink="http://www.w3.org/1999/xlink" x="0px" y="0px"
	 viewBox="0 0 512 512" style="enable-background:new 0 0 512 512;" xml:space="preserve">
<path d="M104.9,108.7l66.2-15.3c7.2-1.7,14.6,2.1,17.5,8.8l30.6,71.3c2.7,6.2,0.9,13.6-4.4,17.8l-38.6,31.6
	c22.9,48.8,63,89.5,112.8,112.8l31.6-38.6c4.3-5.3,11.6-7.1,17.8-4.4l71.3,30.6c6.8,3,10.6,10.4,8.9,17.6l-15.3,66.2
	c-1.6,6.9-7.7,11.8-14.9,11.8C225.4,419,93,286.9,93,123.6C93,116.4,97.9,110.3,104.9,108.7z"/>
<g>
	<path d="M256,20c31.9,0,62.8,6.2,91.9,18.5c28.1,11.9,53.3,28.9,75,50.6c21.7,21.7,38.7,46.9,50.6,75c12.3,29.1,18.5,60,18.5,91.9
		s-6.2,62.8-18.5,91.9c-11.9,28.1-28.9,53.3-50.6,75c-21.7,21.7-46.9,38.7-75,50.6c-29.1,12.3-60,18.5-91.9,18.5
		s-62.8-6.2-91.9-18.5c-28.1-11.9-53.3-28.9-75-50.6c-21.7-21.7-38.7-46.9-50.6-75C26.2,318.8,20,287.9,20,256s6.2-62.8,18.5-91.9
		c11.9-28.1,28.9-53.3,50.6-75c21.7-21.7,46.9-38.7,75-50.6C193.2,26.2,224.1,20,256,20 M256,0C114.6,0,0,114.6,0,256
		s114.6,256,256,256s256-114.6,256-256S397.4,0,256,0L256,0z"/>
</g>
</svg>
