<?xml version="1.0" encoding="utf-8"?>
<!-- Generator: Adobe Illustrator 24.0.0, SVG Export Plug-In . SVG Version: 6.00 Build 0)  -->
<svg version="1.1" id="Layer_1" xmlns="http://www.w3.org/2000/svg" xmlns:xlink="http://www.w3.org/1999/xlink" x="0px" y="0px"
	 viewBox="0 0 512 512" style="enable-background:new 0 0 512 512;" xml:space="preserve">
<path d="M504,256c0,137-111,248-248,248c-25.6,0-50.2-3.9-73.4-11.1c10.1-16.5,25.2-43.5,30.8-65c3-11.6,15.4-59,15.4-59
	c8.1,15.4,31.7,28.5,56.8,28.5c74.8,0,128.7-68.8,128.7-154.3c0-81.9-66.9-143.2-152.9-143.2c-107,0-163.9,71.8-163.9,150.1
	c0,36.4,19.4,81.7,50.3,96.1c4.7,2.2,7.2,1.2,8.3-3.3c0.8-3.4,5-20.3,6.9-28.1c0.6-2.5,0.3-4.7-1.7-7.1
	C151.2,295.1,143,272.3,143,251c0-54.7,41.4-107.6,112-107.6c60.9,0,103.6,41.5,103.6,100.9c0,67.1-33.9,113.6-78,113.6
	c-24.3,0-42.6-20.1-36.7-44.8c7-29.5,20.5-61.3,20.5-82.6c0-19-10.2-34.9-31.4-34.9c-24.9,0-44.9,25.7-44.9,60.2
	c0,22,7.4,36.8,7.4,36.8s-24.5,103.8-29,123.2c-5,21.4-3,51.6-0.9,71.2C73.4,450.9,8,361.1,8,256C8,119,119,8,256,8S504,119,504,256
	z"/>
</svg>
