<?xml version="1.0" encoding="utf-8"?>
<!-- Generator: Adobe Illustrator 24.0.0, SVG Export Plug-In . SVG Version: 6.00 Build 0)  -->
<svg version="1.1" id="Layer_1" xmlns="http://www.w3.org/2000/svg" xmlns:xlink="http://www.w3.org/1999/xlink" x="0px" y="0px"
	 viewBox="0 0 512 512" style="enable-background:new 0 0 512 512;" xml:space="preserve">
<path d="M456.7,299.8c2.9-14,4.7-28.9,4.7-43.8c0-113.5-91.9-205.3-205.3-205.3c-14.9,0-29.7,1.7-43.8,4.7
	C193.3,40.7,169.7,32,144,32C82.2,32,32,82.2,32,144c0,25.7,8.7,49.3,23.3,68.2c-2.9,14-4.7,28.9-4.7,43.8
	c0,113.5,91.9,205.3,205.3,205.3c14.9,0,29.7-1.7,43.8-4.7c19,14.6,42.6,23.3,68.2,23.3c61.8,0,112-50.2,112-112
	C480,342.3,471.3,318.7,456.7,299.8L456.7,299.8z M262.1,391.3c-65.6,0-120.5-29.2-120.5-65c0-16,9-30.6,29.5-30.6
	c31.2,0,34.1,44.9,88.1,44.9c25.7,0,42.3-11.4,42.3-26.3c0-18.7-16-21.6-42-28c-62.5-15.4-117.8-22-117.8-87.2
	c0-59.2,58.6-81.1,109.1-81.1c55.1,0,110.8,21.9,110.8,55.4c0,16.9-11.4,31.8-30.3,31.8c-28.3,0-29.2-33.5-75-33.5
	c-25.7,0-42,7-42,22.5c0,19.8,20.8,21.8,69.1,33c41.4,9.3,90.7,26.8,90.7,77.6C374.1,363.9,317,391.3,262.1,391.3L262.1,391.3z"/>
</svg>
