<?xml version="1.0" encoding="utf-8"?>
<!-- Generator: Adobe Illustrator 24.0.0, SVG Export Plug-In . SVG Version: 6.00 Build 0)  -->
<svg version="1.1" id="Layer_1" xmlns="http://www.w3.org/2000/svg" xmlns:xlink="http://www.w3.org/1999/xlink" x="0px" y="0px"
	 viewBox="0 0 512 512" style="enable-background:new 0 0 512 512;" xml:space="preserve">
<path d="M126.1,315.1c0,25.9-21.2,47.1-47.1,47.1S32,341,32,315.1S53.2,268,79.1,268h47.1V315.1z M149.8,315.1
	c0-25.9,21.2-47.1,47.1-47.1s47.1,21.2,47.1,47.1v117.8c0,25.9-21.2,47.1-47.1,47.1s-47.1-21.2-47.1-47.1
	C149.8,432.9,149.8,315.1,149.8,315.1z M196.9,126.1c-25.9,0-47.1-21.2-47.1-47.1S171,32,196.9,32S244,53.2,244,79.1v47.1
	L196.9,126.1L196.9,126.1z M196.9,149.8c25.9,0,47.1,21.2,47.1,47.1S222.8,244,196.9,244H79.1C53.2,244,32,222.8,32,196.9
	s21.2-47.1,47.1-47.1L196.9,149.8L196.9,149.8z M385.9,196.9c0-25.9,21.2-47.1,47.1-47.1S480,171,480,196.9S458.8,244,432.9,244
	h-47.1V196.9L385.9,196.9z M362.2,196.9c0,25.9-21.2,47.1-47.1,47.1S268,222.8,268,196.9V79.1c0-25.9,21.2-47.1,47.1-47.1
	s47.1,21.2,47.1,47.1V196.9L362.2,196.9z M315.1,385.9c25.9,0,47.1,21.2,47.1,47.1S341,480,315.1,480S268,458.8,268,432.9v-47.1
	H315.1z M315.1,362.2c-25.9,0-47.1-21.2-47.1-47.1s21.2-47.1,47.1-47.1h117.8c25.9,0,47.1,21.2,47.1,47.1s-21.2,47.1-47.1,47.1
	H315.1z"/>
</svg>
