<?xml version="1.0" encoding="utf-8"?>
<!-- Generator: Adobe Illustrator 24.0.0, SVG Export Plug-In . SVG Version: 6.00 Build 0)  -->
<svg version="1.1" id="Layer_1" xmlns="http://www.w3.org/2000/svg" xmlns:xlink="http://www.w3.org/1999/xlink" x="0px" y="0px"
	 viewBox="0 0 512 512" style="enable-background:new 0 0 512 512;" xml:space="preserve">
<path d="M405.8,480.3c-13.6,14.5-50,31.7-97.4,31.7c-120.8,0-147-88.8-147-140.6v-144h-47.5c-5.5,0-10-4.5-10-10v-68
	c0-7.2,4.5-13.6,11.3-16c62-21.8,81.5-76,84.3-117.1C200.3,5.3,206,0,215.6,0h70.9c5.5,0,10,4.5,10,10v115.2h83c5.5,0,10,4.4,10,9.9
	v81.7c0,5.5-4.5,10-10,10h-83.4V360c0,34.2,23.7,53.6,68,35.8c4.8-1.9,9-3.2,12.7-2.2c3.5,0.9,5.8,3.4,7.4,7.9l22,64.3
	C408,470.8,409.5,476.4,405.8,480.3L405.8,480.3z"/>
</svg>
