<?xml version="1.0" encoding="utf-8"?>
<!-- Generator: Adobe Illustrator 24.0.0, SVG Export Plug-In . SVG Version: 6.00 Build 0)  -->
<svg version="1.1" id="Layer_1" xmlns="http://www.w3.org/2000/svg" xmlns:xlink="http://www.w3.org/1999/xlink" x="0px" y="0px"
	 viewBox="0 0 512 512" style="enable-background:new 0 0 512 512;" xml:space="preserve">
<path d="M76.8,230.4c28.2,0,51.2-23,51.2-51.2S105,128,76.8,128s-51.2,23-51.2,51.2S48.6,230.4,76.8,230.4z M435.2,230.4
	c28.2,0,51.2-23,51.2-51.2s-23-51.2-51.2-51.2S384,151,384,179.2S407,230.4,435.2,230.4z M460.8,256h-51.2
	c-14.1,0-26.8,5.7-36.1,14.9c32.2,17.7,55.1,49.6,60.1,87.5h52.8c14.2,0,25.6-11.4,25.6-25.6v-25.6C512,279,489,256,460.8,256z
	 M256,256c49.5,0,89.6-40.1,89.6-89.6S305.5,76.8,256,76.8s-89.6,40.1-89.6,89.6S206.5,256,256,256z M317.4,281.6h-6.6
	c-16.6,8-35.1,12.8-54.8,12.8s-38.1-4.8-54.8-12.8h-6.6c-50.9,0-92.2,41.3-92.2,92.2v23c0,21.2,17.2,38.4,38.4,38.4h230.4
	c21.2,0,38.4-17.2,38.4-38.4v-23C409.6,322.9,368.3,281.6,317.4,281.6z M138.5,270.9c-9.3-9.2-22-14.9-36.1-14.9H51.2
	C23,256,0,279,0,307.2v25.6c0,14.2,11.4,25.6,25.6,25.6h52.7C83.4,320.5,106.2,288.6,138.5,270.9L138.5,270.9z"/>
</svg>
