<?xml version="1.0" encoding="utf-8"?>
<!-- Generator: Adobe Illustrator 24.0.0, SVG Export Plug-In . SVG Version: 6.00 Build 0)  -->
<svg version="1.1" id="Layer_1" xmlns="http://www.w3.org/2000/svg" xmlns:xlink="http://www.w3.org/1999/xlink" x="0px" y="0px"
	 viewBox="0 0 512 512" style="enable-background:new 0 0 512 512;" xml:space="preserve">
<path d="M501.3,28.4h-70.2c-9.5,0-14.2,11.5-7.6,18.2l15,15L395.3,105c-19.7-12.4-43.1-19.6-68.2-19.6c-30,0-57.4,10.3-79.3,27.5
	c12.4,14.8,22.2,32,28.5,50.8c12.9-13.2,30.8-21.3,50.8-21.3c39.2,0,71.1,31.9,71.1,71.1s-31.9,71.1-71.1,71.1
	c-19.8,0-37.9-8.2-50.8-21.3c-6.3,18.8-16,35.9-28.5,50.8c21.8,17.2,49.3,27.5,79.3,27.5c70.7,0,128-57.3,128-128
	c0-25.1-7.2-48.4-19.6-68.2l43.3-43.3l15,15c2.1,2.1,4.8,3.1,7.5,3.1c5.5,0,10.8-4.3,10.8-10.7V39.1C512,33.2,507.2,28.4,501.3,28.4
	z M128,85.3c-70.7,0-128,57.3-128,128c0,60.9,42.6,111.9,99.6,124.8V384h-32c-5.9,0-10.7,4.8-10.7,10.7v35.6
	c0,5.9,4.8,10.7,10.7,10.7h32v32c0,5.9,4.8,10.7,10.7,10.7h35.6c5.9,0,10.7-4.8,10.7-10.7v-32h32c5.9,0,10.7-4.8,10.7-10.7v-35.6
	c0-5.9-4.8-10.7-10.7-10.7h-32v-45.9c57-13,99.6-63.9,99.6-124.8C256,142.7,198.7,85.3,128,85.3z M128,284.4
	c-39.2,0-71.1-31.9-71.1-71.1s31.9-71.1,71.1-71.1s71.1,31.9,71.1,71.1S167.2,284.4,128,284.4z"/>
</svg>
