<?xml version="1.0" encoding="utf-8"?>
<!-- Generator: Adobe Illustrator 24.0.0, SVG Export Plug-In . SVG Version: 6.00 Build 0)  -->
<svg version="1.1" id="Layer_1" xmlns="http://www.w3.org/2000/svg" xmlns:xlink="http://www.w3.org/1999/xlink" x="0px" y="0px"
	 viewBox="0 0 512 512" style="enable-background:new 0 0 512 512;" xml:space="preserve">
<path d="M479.8,153.6c-2,43.6-32.4,103.3-91.4,179.1C327.5,411.9,276,451.5,233.8,451.5c-26.1,0-48.2-24.1-66.3-72.3
	C132.3,250,117.3,174.3,88.2,174.3c-3.4,0-15.1,7.1-35.2,21.1l-21-27.2c51.6-45.3,100.9-95.7,131.8-98.5
	c34.9-3.4,56.3,20.5,64.4,71.5c28.7,181.5,41.4,208.9,93.6,126.7c18.7-29.6,28.8-52.1,30.2-67.6c4.8-45.9-35.8-42.8-63.3-31
	c22-72.1,64.1-107.1,126.2-105.1C460.7,65.4,482.4,95.3,479.8,153.6L479.8,153.6z"/>
</svg>
