<?xml version="1.0" encoding="utf-8"?>
<!-- Generator: Adobe Illustrator 24.0.0, SVG Export Plug-In . SVG Version: 6.00 Build 0)  -->
<svg version="1.1" id="Layer_1" xmlns="http://www.w3.org/2000/svg" xmlns:xlink="http://www.w3.org/1999/xlink" x="0px" y="0px"
	 viewBox="0 0 512 512" style="enable-background:new 0 0 512 512;" xml:space="preserve">
<path d="M501.3,132.3c-5.9-22.2-23.2-39.6-45.3-45.6C416.1,76,256,76,256,76S95.9,76,56,86.8c-22,5.9-39.4,23.4-45.3,45.6
	C0,172.5,0,256.4,0,256.4s0,83.8,10.7,124c5.9,22.2,23.2,38.9,45.3,44.8C95.9,436,256,436,256,436s160.1,0,200-10.8
	c22-5.9,39.4-22.7,45.3-44.8c10.7-40.2,10.7-124,10.7-124S512,172.5,501.3,132.3z M203.6,332.5V180.2l133.8,76.1L203.6,332.5
	L203.6,332.5z"/>
</svg>
