<svg xmlns="http://www.w3.org/2000/svg" xmlns:xlink="http://www.w3.org/1999/xlink" viewBox="0 0 250 209.7" xmlns:v="https://vecta.io/nano"><path d="M0 0h250v209.7H0z" fill="#f4f4f4"/><g fill="#8796a1"><path d="M80.9 29.6h54.2a1.58 1.58 0 0 0 1.6-1.6V10.5a1.58 1.58 0 0 0-1.6-1.6H80.9a1.58 1.58 0 0 0-1.6 1.6V28a1.58 1.58 0 0 0 1.6 1.6zm66.9 0H202a1.58 1.58 0 0 0 1.6-1.6V10.5a1.58 1.58 0 0 0-1.6-1.6h-54.2a1.58 1.58 0 0 0-1.6 1.6V28a1.58 1.58 0 0 0 1.6 1.6zm-134.2.5h20l5.7 5.7c.4.4.9.6 1.5.6s1.1-.2 1.5-.6l5.7-5.7h20c1.2 0 2.1-.9 2.1-2.1V10.5c0-1.2-.9-2.1-2.1-2.1H13.6c-1.2 0-2.1.9-2.1 2.1V28c0 1.2.9 2.1 2.1 2.1zm-1.1-19.6a1.11 1.11 0 0 1 1.1-1.1h54.2a1.11 1.11 0 0 1 1.1 1.1V28a1.11 1.11 0 0 1-1.1 1.1H47.4l-6 5.9a1.09 1.09 0 0 1-1.5 0L34 29.1H13.6a1.11 1.11 0 0 1-1.1-1.1V10.5z"/><circle cx="22.5" cy="19.2" r="4.7"/><path d="M38.5 21.2h21.2c1 0 1.9-.9 2-2 0-1.1-.9-2-2-2H38.5c-1.1 0-2 .9-2 2s.9 2 2 2zm196.7 19.4H14.8c-1.7 0-3 1.3-3 2.9v123.1c0 1.6 1.3 2.9 3 2.9h220.4c1.7 0 3-1.3 3-2.9V43.5c0-1.6-1.3-2.9-3-2.9zm2 126c0 1-.9 1.9-2 1.9H14.8c-1.1 0-2-.9-2-1.9V43.5c0-1 .9-1.9 2-1.9h220.4c1.1 0 2 .9 2 1.9v123.1z"/></g><g fill="#231f20"><path d="M67 187.3l-3.1 8.2h1.5l.7-1.9h3.2l.6 1.9h1.5l-3.1-8.2H67zm-.5 5.2l1.2-3.4 1.2 3.4h-2.4z"/><use xlink:href="#B"/><path d="M80.1 194.3c-.1-.1-.1-.3-.1-.5v-3.4h1v-1h-1v-1.5h-1.4v1.5h-1v1h1v3.5c0 1.1.6 1.7 1.6 1.7.3 0 .6 0 .9-.1v-1.1c-.2.1-.3.1-.5.1s-.4-.1-.5-.2zm2-4.9h1.4v6.1h-1.4zm.8-2.3c-.3 0-.5.1-.6.2s-.2.3-.2.5c0 .3.1.4.2.5.2.1.4.2.6.2.3 0 .5-.1.6-.2s.2-.3.2-.5-.1-.4-.2-.5c-.2-.1-.4-.2-.6-.2zm4.3 6.7l-1.3-4.4h-1.4l2.1 6.1h1.2l2.1-6.1h-1.4zm6-4.5c-.5 0-1 .2-1.4.4s-.7.7-1 1.1-.4 1-.4 1.6v.2c0 .9.3 1.7.8 2.2s1.2.8 2.1.8c.5 0 .9-.2 1.3-.4s.8-.4 1-.8l-.7-.7c-.4.5-.9.8-1.5.8-.4 0-.8-.1-1.1-.4s-.5-.7-.5-1.2h4v-.6c0-.9-.2-1.7-.7-2.2-.4-.5-1.1-.8-1.9-.8zm1.3 2.6h-2.6c0-.5.2-.8.4-1.1s.5-.4.9-.4.6.1.9.4c.2.2.4.5.4 1v.1zm10.9-4.5h-6.5v1.1h2.5v7h1.4v-7h2.6zm4.7 3.9c-.1-.6-.3-1.2-.7-1.5s-1-.5-1.7-.5c-.5 0-.9 0-1.3.2s-.7.4-.9.7-.3.6-.3.9h1.4c0-.2.1-.4.3-.6.2-.1.5-.2.8-.2.4 0 .6.1.8.3s.3.5.3.8v.4h-.8c-.9 0-1.6.2-2.1.5-.5.4-.7.9-.7 1.5 0 .5.2 1 .6 1.3s.9.5 1.5.5 1.2-.2 1.6-.7c.1.3.1.5.2.6l1.2-.1v-.1a4.44 4.44 0 0 1-.2-1.3v-2.7zm-1.2 2.5c-.1.2-.3.4-.5.5-.3.1-.5.2-.8.2s-.6 0-.6-.2c-.2-.1-.3-.3-.3-.6s.1-.5.4-.7c.2-.2.6-.3 1.1-.3h.7v1.1zm5.8-4.5c-.7 0-1.2.2-1.6.7v-3.1h-1.4v8.6h1.2l.1-.7c.4.5 1 .8 1.7.8s1.3-.2 1.7-.8.6-1.4.6-2.3c0-1-.2-1.8-.5-2.4-.5-.5-1.1-.8-1.8-.8zm1.1 3.3c0 .6-.2 1.1-.4 1.4s-.6.5-1 .5c-.6 0-1.1-.3-1.3-.8v-2.5c.2-.5.6-.8 1.2-.8.4 0 .8.2 1 .5s.3.8.3 1.5h.2v.2zm5.4-5.3h1.4v8.2h-1.4zm6.1 2c-.8 0-1.3.3-1.8.8v-.7-.1h-1.3v6.1h1.4v-4.3c.2-.5.6-.7 1.2-.7.4 0 .7.1.8.3s.2.5.2.9v3.9h1.4v-4c0-1.5-.6-2.2-1.9-2.2zm7.2.6c-.4-.5-1-.7-1.6-.7-.8 0-1.4.3-1.8.9-.5.6-.7 1.4-.7 2.3 0 1 .2 1.8.9 2.2.4.6 1 .9 1.7.9.6 0 1.2-.2 1.6-.7l.1.6h1.2v-8.6h-1.4v3.1zm-.1 3.8c-.2.5-.6.7-1.2.7-.4 0-.8-.2-1-.5-.3-.3-.4-.8-.4-1.4 0-.7.1-1.2.4-1.6.2-.3.6-.5 1-.5.5 0 .9.2 1.2.7v2.6zm2.8-4.3h1.4v6.1h-1.4zm.8-2.3c-.3 0-.5.1-.6.2s-.2.3-.2.5c0 .3 0 .4.2.5s.4.2.6.2c.3 0 .5-.1.6-.2s.2-.3.2-.5-.1-.4-.2-.5c-.2-.1-.4-.2-.6-.2z"/><use xlink:href="#B" x="67.9"/><path d="M150.8 191.3c-.1-.6-.3-1.2-.7-1.5s-1-.5-1.7-.5c-.5 0-.9 0-1.3.2s-.7.4-.9.7-.3.6-.3.9h1.4c0-.2.1-.4.3-.6.2-.1.5-.2.8-.2.4 0 .6.1.8.3s.3.5.3.8v.4h-.8c-.9 0-1.6.2-2.1.5-.5.4-.7.9-.7 1.5 0 .5.2 1 .6 1.3s.9.5 1.5.5 1.2-.2 1.6-.7c.1.3.1.5.2.6l1.2-.1v-.1a4.44 4.44 0 0 1-.2-1.3v-2.7zm-1.2 2.5c-.1.2-.3.4-.5.5-.3.1-.5.2-.8.2s-.5 0-.6-.2c-.2-.1-.3-.3-.3-.6s.1-.5.4-.7c.2-.2.6-.3 1.1-.3h.7v1.1zm4.5-5.9h-1.4v1.5h-1v1h1v3.5c0 1.1.6 1.7 1.6 1.7.3 0 .6 0 .9-.1v-1.1c-.2.1-.3.1-.5.1s-.4-.1-.5-.2-.1-.3-.1-.5v-3.4h1.1v-1h-1.1v-1.5zm4.6 1.4c-.6 0-1.1.1-1.5.4s-.7.6-1 1.1-.4 1-.4 1.6c0 1 .3 1.8.8 2.3.6.6 1.2.9 2.1.9.6 0 1.1-.1 1.5-.4s.8-.6 1-1.1.3-1 .3-1.6v-.3c0-.9-.3-1.6-.8-2.1s-1.2-.8-2-.8zm1.1 4.7c-.3.3-.6.5-1.1.5s-.8-.1-1.1-.5-.4-.9-.4-1.5c0-.7.1-1.3.4-1.6s.7-.5 1.1-.5c.5 0 .8.1 1.1.5s.4.9.4 1.5c0 .7-.1 1.3-.4 1.6z"/><use xlink:href="#C"/><path d="M172 187.3l-3.1 8.2h1.5l.7-1.9h3.2l.6 1.9h1.5l-3.1-8.2H172zm-.5 5.2l1.2-3.4 1.2 3.4h-2.4z"/><use xlink:href="#C" x="14.6"/><use xlink:href="#C" x="18.6"/><path d="M187.8 189.3c-.6 0-1.1.1-1.5.4s-.7.6-1 1.1-.4 1-.4 1.6c0 1 .2 1.8.8 2.3.6.6 1.2.9 2.1.9.6 0 1.1-.1 1.5-.4s.8-.6 1-1.1.3-1 .3-1.6v-.3c0-.9-.3-1.6-.8-2.1s-1.2-.8-2-.8zm1 4.7c-.3.3-.6.5-1.1.5s-.8-.1-1.1-.5-.4-.9-.4-1.5c0-.7.1-1.3.4-1.6s.7-.5 1.1-.5c.5 0 .8.1 1.1.5s.4.9.4 1.5c0 .7-.1 1.3-.4 1.6zm9.2-4.6l-1 4.2-1.4-4.2h-1l-1.2 4.2-1-4.2h-1.3l1.7 6.1h1.1l1.3-4.2 1.3 4.2h1.1l1.7-6.1z"/></g><g fill="#fff"><circle cx="90.7" cy="19.2" r="4.7"/><path d="M128 17.2h-21.3c-1.1 0-2 .9-2 2s.9 2 2 2H128c1 0 1.9-.9 2-2 0-1.1-.9-2-2-2z"/><circle cx="157.7" cy="19.2" r="4.7"/><path d="M194.9 17.2h-21.2c-1.1 0-2 .9-2 2s.9 2 2 2h21.2c1 0 1.9-.9 2-2 0-1.1-.9-2-2-2z"/></g><g fill="#adbcc4"><path d="M28.2 57.3h193.9c.6 0 1.1-.4 1-1 0-.5-.4-1-1-1H28.2c-.5 0-1 .4-1 1 0 .5.4 1 1 1zm193.9 9.5H28.2c-.5 0-1 .4-1 1 0 .5.4 1 1 1h193.9c.6 0 1.1-.4 1-1 0-.5-.4-1-1-1z"/><use xlink:href="#D"/><use xlink:href="#D" y="11.5"/><path d="M139.2 103.3c.6 0 1.1-.5 1-1 0-.5-.4-1-1-1h-111c-.5 0-1 .4-1 1 0 .5.4 1 1 1h111z"/><use xlink:href="#D" y="39.4"/><use xlink:href="#D" y="50.9"/><use xlink:href="#D" y="62.4"/><path d="M168.9 152.2H28.2c-.5 0-1 .4-1 1 0 .5.4 1 1 1h140.7a1.08 1.08 0 0 0 1-1c0-.5-.4-1-1-1z"/></g><g fill="#f21197"><path d="M47.9 29.2a.61.61 0 0 0-.8 0L41.3 35c-.6.5-1.1.2-1.2.1l-5.9-5.9a.61.61 0 0 0-.8 0 .61.61 0 0 0 0 .8l5.9 5.9c.3.2.8.5 1.3.5s1-.2 1.5-.6l5.8-5.8c.3-.2.3-.6 0-.8zm78.7 152.9L46.9 44l3.1-1.8-6.9-3.9v7.9l3.1-1.8L126 182.5c.1.1.2.2.3.2s.1 0 .2-.1c.2-.1.3-.3.1-.5z"/><circle cx="56" cy="191.4" r="4.5"/></g><defs ><path id="B" d="M73.6 191.1c.2-.3.6-.5 1-.5s.7.1.9.3c.3.3.4.6.4.9h1.3c0-.7-.2-1.3-.7-1.7s-1.1-.6-1.8-.6c-.8 0-1.5.2-2 .8-.5.5-.7 1.3-.7 2.2v.1c0 1 .2 1.7.7 2.3.5.5 1.1.8 2 .8.4 0 .8-.1 1.2-.3s.6-.4.9-.8.4-.7.4-1.1h-1.3c-.1.3-.2.5-.4.7s-.5.3-.8.3c-.4 0-.8.1-1.1-.2s-.4-.8-.4-1.5v-.2c0-.7.2-1.2.4-1.5z"/><path id="C" d="M165.2 189.4c-.6 0-1.1.3-1.4.8v-.7h-1.3v6.1h1.4v-4.2c.3-.5.7-.7 1.3-.7h.6l-.1-1.2c-.1-.1-.3-.1-.5-.1z"/><path id="D" d="M222.1 78.3H28.2c-.5 0-1 .4-1 1 0 .5.4 1 1 1h193.9c.6 0 1.1-.5 1-1 0-.5-.4-1-1-1z"/></defs></svg>