<svg xmlns="http://www.w3.org/2000/svg" xmlns:xlink="http://www.w3.org/1999/xlink" viewBox="0 0 250 209.7" xmlns:v="https://vecta.io/nano"><path d="M0 0h250v209.7H0z" fill="#f4f4f4"/><g fill="#231f20"><path d="M95.6 188.9c.3-.5.8-.7 1.4-.7.5 0 .9.1 1.2.4s.4.7.5 1.3h1.4c-.1-.9-.4-1.6-1-2.1s-1.3-.7-2.2-.7c-.7 0-1.3.2-1.8.5-.5.4-.9.9-1.2 1.4s-.4 1.2-.4 2v.8c0 .8.1 1.4.4 2a3.04 3.04 0 0 0 1.2 1.3c.5.3 1 .5 1.7.5.9 0 1.6-.2 2.2-.7.6-.4.9-1.1 1-2v-.3h-1.2c0 .6-.2 1-.5 1.3s-.7.4-1.3.4-1.1-.2-1.4-.7c-.3-.4-.5-1.1-.5-2v-.7c0-.9.2-1.5.5-2zm8.1.4c-.6 0-1.1.1-1.5.4s-.7.6-1 1.1-.4 1-.4 1.6c0 1 .3 1.8.8 2.3.6.6 1.2.9 2.1.9.6 0 1.1-.1 1.5-.4s.8-.6 1-1.1.3-1 .3-1.6v-.3c0-.9-.3-1.6-.8-2.1s-1.2-.8-2-.8zm1.1 4.7c-.3.3-.6.5-1.1.5s-.8-.1-1.1-.5-.4-.9-.4-1.5c0-.7.1-1.3.4-1.6s.7-.5 1.1-.5c.5 0 .8.1 1.1.5s.4.9.4 1.5c0 .7-.1 1.3-.4 1.6z"/><use xlink:href="#B"/><use xlink:href="#C"/><use xlink:href="#D"/><use xlink:href="#B" x="16.5"/><use xlink:href="#C" x="16.4"/><path d="M142.4 190.7h-3.7v-3.4h-1.4v8.2h1.4v-3.6h3.7v3.6h1.4v-8.2h-1.4z"/><use xlink:href="#D" x="27.5"/><path d="M151.6 189.4h1.4v6.1h-1.4zm.8-2.3c-.3 0-.5.1-.6.2s-.2.3-.2.5c0 .3 0 .4.2.5s.4.2.6.2c.3 0 .5-.1.6-.2s.2-.3.2-.5-.1-.4-.2-.5c-.2-.1-.4-.2-.6-.2zm6 2.9c-.4-.5-.9-.7-1.6-.7-.8 0-1.4.2-1.8.8-.5.6-.7 1.4-.7 2.3 0 1 .4 2 .8 2.5s1 .8 1.7.8 1.2-.3 1.6-.7v.3c0 .5-.1.8-.4 1.1s-.6.4-1.1.4c-.7 0-1.2-.2-1.6-.7l-.6.8c.3.3.6.5 1 .7a3.08 3.08 0 0 0 1.3.3c.8 0 1.5-.2 2-.7s.7-1.1.7-1.9v-5.9h-1.2l-.1.6zm-.2 3.7c-.2.5-.6.7-1.2.7-.4 0-.8-.1-1-.5-.3-.3-.4-.8-.4-1.4s.2-1.2.4-1.7c.2-.3.5-.5 1-.5s.9.2 1.2.7v2.7zm5.9-4.4c-.7 0-1.3.3-1.7.8v-3.3H161v8.6h1.4v-4.3c.2-.5.7-.7 1.2-.7.4 0 .6.1.8.3s.3.5.3.9v3.9h1.4v-4c0-1.5-.7-2.2-2-2.2zm6.2 1.1v-1h-1.1v-1.5h-1.4v1.5h-1v1h1v3.5c0 1.1.6 1.7 1.6 1.7.3 0 .6 0 .9-.1v-1.1c-.2.1-.3.1-.5.1s-.4-.1-.5-.2-.1-.3-.1-.5v-3.4h1.1z"/></g><g fill="#fff"><circle cx="90.7" cy="25.6" r="4.7"/><path d="M128 27.6h-21.3c-1.1 0-2-.9-2-2h0c0-1.1.9-2 2-2H128c1.1 0 2 .9 2 2h0c-.1 1.1-1 2-2 2z"/><circle cx="157.7" cy="25.6" r="4.7"/><path d="M194.9 27.6h-21.2c-1.1 0-2-.9-2-2h0c0-1.1.9-2 2-2h21.2c1.1 0 2 .9 2 2h0c-.1 1.1-1 2-2 2z"/></g><g fill="#8796a1"><path d="M235.7 35.4h-32.1V16.3a1.58 1.58 0 0 0-1.6-1.6h-54.2a1.58 1.58 0 0 0-1.6 1.6v19.1h-9.5V16.3a1.58 1.58 0 0 0-1.6-1.6H80.9a1.58 1.58 0 0 0-1.6 1.6v19.1h-7.7c-.7 0-1.3-.6-1.3-1.4V16.6c0-1.3-1.1-2.4-2.4-2.4H14.2c-1.3 0-2.4 1.1-2.4 2.4v150.5c0 1.3 1.1 2.4 2.4 2.4h221.5c1.3 0 2.4-1.1 2.4-2.4V37.8c0-1.3-1.1-2.4-2.4-2.4zm1.4 131.7c0 .9-.7 1.4-1.4 1.4H14.2c-.9 0-1.4-.7-1.4-1.4V16.6c0-.9.7-1.4 1.4-1.4h53.7c.9 0 1.4.7 1.4 1.4V34c0 1.4 1 2.4 2.3 2.4h7.7 57.4 9.5 57.4 32.1c.9 0 1.4.7 1.4 1.4v129.3z"/><circle cx="22.5" cy="25.6" r="4.7"/><path d="M59.7 23.6H38.5c-1.1 0-2 .9-2 2s.9 2 2 2h21.2c1 0 1.9-.9 2-2 0-1.1-.9-2-2-2z"/></g><g fill="#adbcc4"><path d="M28.2 52.3h193.9c.6 0 1.1-.4 1-1 0-.5-.4-1-1-1H28.2c-.5 0-1 .4-1 1 0 .5.4 1 1 1zm193.9 9.5H28.2c-.5 0-1 .4-1 1 0 .5.4 1 1 1h193.9c.6 0 1.1-.4 1-1 0-.5-.4-1-1-1z"/><use xlink:href="#E"/><use xlink:href="#E" y="11.5"/><path d="M139.2 98.3c.6 0 1.1-.5 1-1 0-.5-.4-1-1-1h-111c-.5 0-1 .4-1 1 0 .5.4 1 1 1h111z"/><use xlink:href="#E" y="44.4"/><use xlink:href="#E" y="55.9"/><use xlink:href="#E" y="67.4"/><path d="M168.9 152.2H28.2c-.5 0-1 .4-1 1 0 .5.4 1 1 1h140.7a1.08 1.08 0 0 0 1-1c0-.5-.4-1-1-1z"/></g><g fill="#f21197"><path d="M230.1 47.8h3.6l-4-6.9-3.9 6.9h3.5v108.5h-3.5l3.9 6.9 4-6.9h-3.6zm-205.9 0l-3.9-6.9-4 6.9h3.6v108.5h-3.6l4 6.9 3.9-6.9h-3.5V47.8z"/><circle cx="83.9" cy="191.6" r="4.5"/></g><defs ><path id="B" d="M110.7 189.3c-.8 0-1.3.3-1.8.8v-.7-.1h-1.3v6.1h1.4v-4.3c.2-.5.6-.7 1.2-.7.4 0 .7.1.8.3s.2.5.2.9v3.9h1.4v-4c0-1.5-.6-2.2-1.9-2.2z"/><path id="C" d="M115.8 187.9h-1.4v1.5h-1v1h1v3.5c0 1.1.6 1.7 1.6 1.7.3 0 .6 0 .9-.1v-1.1c-.2.1-.3.1-.5.1s-.4-.1-.5-.2-.1-.3-.1-.5v-3.4h1.1v-1h-1.1v-1.5z"/><path id="D" d="M120.5 189.3c-.5 0-1 .2-1.4.4s-.7.7-1 1.1-.4 1-.4 1.6v.2c0 .9.3 1.7.8 2.2s1.2.8 2.1.8c.5 0 .9-.2 1.3-.4s.8-.4 1-.8l-.7-.7c-.4.5-.9.8-1.5.8-.4 0-.8-.1-1.1-.4s-.5-.7-.5-1.2h4v-.6c0-.9-.2-1.7-.7-2.2-.4-.5-1.1-.8-1.9-.8zm1.2 2.6h-2.6c0-.5.2-.8.4-1.1s.5-.4.9-.4.7.1.9.4c.2.2.4.5.4 1v.1z"/><path id="E" d="M222.1 73.3H28.2c-.5 0-1 .4-1 1 0 .5.4 1 1 1h193.9c.6 0 1.1-.5 1-1 0-.5-.4-1-1-1z"/></defs></svg>