<svg xmlns="http://www.w3.org/2000/svg" xmlns:xlink="http://www.w3.org/1999/xlink" viewBox="0 0 250 209.7" xmlns:v="https://vecta.io/nano"><path d="M0 0h250v210H0z" fill="#f4f4f4"/><g enable-background="new" fill="#231f20"><path d="M80.4 195.5v-8.2h2.4c.7 0 1.4.2 1.9.5.6.3 1 .8 1.3 1.4s.5 1.3.5 2v.4c0 .8-.2 1.5-.5 2-.3.6-.8 1-1.3 1.4-.6.3-1.2.5-2 .5h-2.3 0zm1.5-7v5.9h.9c.7 0 1.3-.2 1.7-.7s.6-1.1.6-2v-.5c0-.9-.2-1.6-.6-2s-.9-.7-1.7-.7h-.9zm8.6 7.1c-.9 0-1.6-.3-2.1-.8s-.8-1.3-.8-2.2v-.2c0-.6.1-1.2.4-1.6s.6-.9 1-1.1.9-.4 1.4-.4c.8 0 1.5.3 1.9.8.5.5.7 1.3.7 2.2v.6h-4c0 .5.2.9.5 1.2s.7.4 1.1.4c.6 0 1.1-.3 1.5-.8l.7.7c-.2.4-.6.6-1 .8s-.8.4-1.3.4zm-.2-5.2c-.4 0-.7.1-.9.4s-.4.6-.4 1.1h2.6v-.1c0-.5-.2-.8-.4-1-.2-.3-.5-.4-.9-.4zm7.1 3.5c0-.2-.1-.4-.3-.6-.2-.1-.5-.2-1-.3s-.9-.2-1.2-.4c-.7-.3-1-.8-1-1.4 0-.5.2-1 .7-1.3.4-.4 1-.5 1.7-.5s1.3.2 1.8.5.7.8.7 1.4h-1.4c0-.3-.1-.5-.3-.7s-.5-.3-.8-.3-.5.1-.7.2-.3.3-.3.6a.55.55 0 0 0 .3.5c.2.1.5.2 1.1.4l1.3.4c.3.2.5.4.7.6.1.2.2.5.2.8 0 .5-.2 1-.7 1.3s-1 .5-1.8.5c-.5 0-.9-.1-1.3-.3s-.7-.4-.9-.7a1.93 1.93 0 0 1-.3-1h1.3c0 .3.1.6.4.7.2.2.5.3.9.3s.6-.1.8-.2.1-.3.1-.5zm5.1.6c.3 0 .6-.1.8-.3s.3-.4.4-.7h1.3c0 .4-.1.7-.4 1.1s-.5.6-.9.8-.8.3-1.2.3c-.9 0-1.5-.3-2-.8-.5-.6-.7-1.3-.7-2.3v-.1c0-.9.2-1.7.7-2.2.5-.6 1.2-.8 2-.8.7 0 1.3.2 1.8.6s.7 1 .7 1.7h-1.3c0-.3-.1-.6-.4-.9-.2-.2-.5-.3-.9-.3s-.8.2-1 .5-.4.8-.4 1.5v.2c0 .7.1 1.2.4 1.5s.6.2 1.1.2zm6.7-3.8h-.6c-.6 0-1 .2-1.3.7v4.2H106v-6.1h1.3v.7c.3-.5.8-.8 1.4-.8.2 0 .4 0 .5.1v1.2z"/><use xlink:href="#B"/><path d="M118.3 192.5c0 .9-.2 1.7-.6 2.3s-1 .8-1.7.8-1.2-.2-1.6-.7v2.9H113v-8.4h1.3l.1.6c.4-.5.9-.7 1.6-.7s1.3.3 1.7.8.6 1.4.6 2.4h0zm-1.3-.1c0-.6-.1-1.1-.4-1.4s-.6-.5-1-.5c-.6 0-1 .2-1.2.7v2.7c.2.5.7.7 1.2.7.4 0 .8-.2 1-.5.2-.4.4-1 .4-1.7zm4.2-4.5v1.5h1.1v1h-1.1v3.4c0 .2 0 .4.1.5s.3.2.5.2.3 0 .5-.1v1.1c-.3.1-.6.1-.9.1-1 0-1.6-.6-1.6-1.7v-3.5h-1v-1h1v-1.5h1.4z"/><use xlink:href="#B" x="13.3"/><path d="M126 192.4c0-.6.1-1.1.4-1.6s.6-.8 1-1.1.9-.4 1.5-.4c.8 0 1.5.3 2 .8s.8 1.2.8 2.1v.3c0 .6-.1 1.1-.3 1.6s-.6.8-1 1.1-.9.4-1.5.4c-.9 0-1.5-.3-2.1-.9-.5-.5-.8-1.3-.8-2.3h0zm1.4.1c0 .6.1 1.1.4 1.5s.6.5 1.1.5.8-.2 1.1-.5.4-.9.4-1.6c0-.6-.1-1.1-.4-1.5s-.6-.5-1.1-.5c-.4 0-.8.2-1.1.5s-.4.9-.4 1.6z"/><use xlink:href="#C"/><path d="M143.6 192.5v3h-1.4v-8.2h3.1c.9 0 1.6.2 2.2.7.5.5.8 1.1.8 1.9s-.3 1.4-.8 1.9c-.5.4-1.3.7-2.2.7h-1.7 0zm0-1.2h1.7c.5 0 .9-.1 1.2-.4.3-.2.4-.6.4-1s-.1-.8-.4-1.1-.6-.4-1.1-.4h-1.8v2.9h0zm9.4 4.2c-.1-.1-.1-.3-.2-.6-.4.5-1 .7-1.6.7s-1.1-.2-1.5-.5-.6-.8-.6-1.3c0-.6.2-1.1.7-1.5.5-.3 1.2-.5 2.1-.5h.8v-.4c0-.3-.1-.6-.3-.8s-.4-.3-.8-.3c-.3 0-.6.1-.8.2-.2.2-.3.4-.3.6h-1.4c0-.3.1-.6.3-.9s.5-.5.9-.7.8-.2 1.3-.2c.7 0 1.3.2 1.7.5s.6.9.7 1.5v2.7a4.44 4.44 0 0 0 .2 1.3v.1l-1.2.1h0zm-1.5-1c.3 0 .5-.1.8-.2.2-.1.4-.3.5-.5v-1.1h-.7c-.5 0-.9.1-1.1.3-.3.2-.4.4-.4.7s.1.5.3.6c.1.2.3.2.6.2zm3.9-2.1c0-.9.2-1.7.7-2.3.4-.6 1-.9 1.8-.9.6 0 1.2.2 1.6.7v-3.1h1.4v8.6h-1.2l-.1-.6c-.4.5-1 .7-1.6.7-.7 0-1.3-.3-1.7-.9-.7-.4-.9-1.2-.9-2.2zm1.3.1c0 .6.1 1.1.4 1.4.2.3.6.5 1 .5.6 0 1-.2 1.2-.7v-2.6c-.3-.5-.7-.7-1.2-.7-.4 0-.8.2-1 .5-.2.4-.4.9-.4 1.6zm5.2-.1c0-.9.2-1.7.7-2.3.4-.6 1-.9 1.8-.9.6 0 1.2.2 1.6.7v-3.1h1.4v8.6H166l-.1-.6c-.4.5-1 .7-1.6.7-.7 0-1.3-.3-1.7-.9-.5-.4-.7-1.2-.7-2.2zm1.3.1c0 .6.1 1.1.4 1.4.2.3.6.5 1 .5.6 0 1-.2 1.2-.7v-2.6c-.3-.5-.7-.7-1.2-.7-.4 0-.8.2-1 .5-.2.4-.4.9-.4 1.6z"/><use xlink:href="#B" x="58.6"/><use xlink:href="#C" x="38.8"/><path d="M177.8 192.4c0-.9.2-1.7.7-2.3.4-.6 1-.8 1.8-.8.7 0 1.2.2 1.6.7l.1-.6h1.2v5.9c0 .8-.2 1.4-.7 1.9s-1.2.7-2 .7a3.08 3.08 0 0 1-1.3-.3c-.4-.2-.7-.4-1-.7l.6-.8c.4.5.9.7 1.6.7.5 0 .8-.1 1.1-.4s.4-.6.4-1.1v-.3c-.4.4-.9.7-1.6.7s-1.3-.3-1.7-.8-.8-1.5-.8-2.5zm1.3.1c0 .6.1 1.1.4 1.4.2.4.6.5 1 .5.6 0 1-.2 1.2-.7V191c-.3-.5-.7-.7-1.2-.7s-.8.2-1 .5c-.3.5-.4 1.1-.4 1.7z"/></g><g fill="#8796a1"><path d="M235.8 35.4h-50V16a1.58 1.58 0 0 0-1.6-1.6h-80.5a1.58 1.58 0 0 0-1.6 1.6v19.4h-5.5V16.3c0-1.2-.9-2.1-2.1-2.1H14c-1.2 0-2.1.9-2.1 2.1v150.8c0 1.3 1.1 2.4 2.4 2.4h221.5c1.3 0 2.4-1.1 2.4-2.4V37.7c-.1-1.3-1.1-2.3-2.4-2.3zm1.4 131.7c0 .9-.7 1.4-1.4 1.4H14.3c-.9 0-1.4-.7-1.4-1.4V16.3a1.11 1.11 0 0 1 1.1-1.1h80.5a1.11 1.11 0 0 1 1.1 1.1v19.6a.47.47 0 0 0 .5.5h6 83.6 50c.7 0 1.3.6 1.4 1.4v129.3h.1z"/><circle cx="27.8" cy="25.8" r="4.7"/><path d="M83.6 23.7H43.1c-1.1 0-2 .9-2 2s.9 2 2 2h40.5c1 0 1.9-.9 2-2 0-1.1-.9-2-2-2z"/></g><g fill="#adbcc4"><path d="M222.1 52.3H28.2c-.6 0-1-.5-1-1h0c0-.6.5-1 1-1h193.9c.6 0 1 .5 1 1h0c.1.6-.4 1-1 1zm0 11.5H28.2c-.6 0-1-.5-1-1h0c0-.6.5-1 1-1h193.9c.6 0 1 .5 1 1h0c.1.6-.4 1-1 1z"/><use xlink:href="#D"/><use xlink:href="#D" y="11.5"/><path d="M139.2 98.3h-111c-.6 0-1-.5-1-1h0c0-.6.5-1 1-1h111c.6 0 1 .5 1 1h0c.1.5-.4 1-1 1z"/><use xlink:href="#D" y="44.4"/><use xlink:href="#D" y="55.9"/><use xlink:href="#D" y="67.4"/><path d="M168.9 154.2H28.2c-.6 0-1-.5-1-1h0c0-.6.5-1 1-1h140.7c.6 0 1 .5 1 1h0a1.08 1.08 0 0 1-1 1z"/></g><g fill="#fff"><circle cx="117.5" cy="25.8" r="4.7"/><path d="M173.2 27.7h-40.5c-1.1 0-2-.9-2-2h0c0-1.1.9-2 2-2h40.5c1.1 0 2 .9 2 2h0c0 1.1-.9 2-2 2z"/></g><g fill="#f21197"><path d="M122 173.4h2.8v10.8c0 .2.2.4.4.4s.4-.2.4-.4v-10.8h2.8l-3.2-5.5-3.2 5.5zM27.3 48.3h195.6v-10H27.3v10zm195.1-.5h-1.2l1.2-1v1zm0-1.7l-2 1.7H218l4.4-3.8v2.1zm0-2.7l-5.2 4.4h-2.4l7.5-6.5.1 2.1h0zm0-4.6v1.8l-8.3 7.2h-2.3l10.4-9h.2zm-1 0l-10.4 9h-2.4l10.4-9h2.4zm-3.2 0l-10.4 9h-2.4l10.4-9h2.4zm-3.1 0l-10.4 9h-2.4l10.4-9h2.4zm-3.2 0l-10.4 9h-2.3l10.4-9h2.3zm-3 0l-10.4 9h-2.4l10.4-9h2.4zm-3.2 0l-10.4 9h-2.4l10.4-9h2.4zm-3.2 0l-10.4 9h-2.3l10.4-9h2.3zm-3 0l-10.4 9h-2.4l10.4-9h2.4zm-3.2 0l-10.4 9h-2.4l10.4-9h2.4zm-3.1 0l-10.4 9h-2.3l10.4-9h2.3zm-3.1 0l-10.4 9h-2.4l10.4-9h2.4zm-3.2 0l-10.4 9h-2.4l10.4-9h2.4zm-3.1 0l-10.4 9h-2.3l10.4-9h2.3zm-3.1 0l-10.4 9H168l10.4-9h2.3zm-3.1 0l-10.4 9h-2.4l10.4-9h2.4zm-3.2 0l-10.4 9h-2.4l10.4-9h2.4zm-3.2 0l-10.4 9h-2.3l10.4-9h2.3zm-3 0l-10.4 9h-2.3l10.4-9h2.3zm-3.1 0l-10.4 9h-2.5l10.4-9h2.5zm-3.2 0l-10.4 9h-2.3l10.4-9h2.3zm-3.1 0l-10.4 9H146l10.4-9h2.4zm-3.2 0l-10.4 9h-2.4l10.4-9h2.4zm-3.1 0l-10.4 9h-2.3l10.4-9h2.3zm-3.1 0l-10.4 9h-2.4l10.4-9h2.4zm-3.1 0l-10.4 9h-2.4l10.4-9h2.4zm-3.2 0l-10.4 9h-2.4l10.4-9h2.4zm-3.1 0l-10.4 9h-2.3l10.4-9h2.3zm-3.1 0l-10.4 9h-2.4l10.4-9h2.4zm-3.2 0l-10.4 9H121l10.4-9h2.3zm-3.1 0l-10.4 9h-2.3l10.4-9h2.3zm-3.1 0l-10.4 9h-2.4l10.4-9h2.4zm-3.2 0l-10.4 9h-2.4l10.4-9h2.4zm-3.1 0l-10.4 9h-2.3l10.4-9h2.3zm-3.1 0l-10.4 9h-2.4l10.4-9h2.4zm-3.1 0l-10.4 9h-2.4l10.4-9h2.4zm-3.2 0l-10.4 9H99l10.4-9h2.4zm-3.1 0l-10.4 9H96l10.4-9h2.3zm-3.1 0l-10.4 9h-2.4l10.4-9h2.4zm-3.2 0l-10.4 9h-2.4l10.4-9h2.4zm-3.1 0l-10.4 9h-2.3l10.4-9h2.3zm-3.1 0l-10.4 9h-2.4l10.4-9h2.4zm-3.2 0l-10.4 9h-2.4l10.4-9H93zm-3.1 0l-10.4 9h-2.3l10.4-9h2.3zm-3.1 0l-10.4 9H74l10.4-9h2.4zm-3.1 0l-10.4 9h-2.4l10.4-9h2.4zm-3.2 0l-10.4 9h-2.4l10.4-9h2.4zm-3.1 0l-10.4 9h-2.3l10.4-9h2.3zm-3.1 0l-10.4 9h-2.4l10.4-9h2.4zm-3.2 0l-10.4 9h-2.4l10.4-9h2.4zm-3.1 0l-10.4 9h-2.3l10.4-9H68zm-3.1 0l-10.4 9H52l10.4-9h2.5zm-3.3 0l-10.4 9H49l10.4-9h2.2zm-3 0l-10.4 9h-2.3l10.4-9h2.3zm-3.1 0l-10.4 9h-2.6l10.4-9h2.6zm-3.3 0l-10.4 9h-2.3l10.4-9h2.3zm-3.1 0l-10.4 9h-2.4l10.4-9h2.4zm-3.2 0l-10.4 9h-2.4l10.4-9h2.4zm-3.1 0l-10.4 9h-2.3l10.4-9h2.3zm-15 .2l.2-.2h2.4L27.8 41v-2zm0 2.7l3.4-2.9h2.3l-5.6 4.9v-2h-.1zm0 2.7l6.4-5.5h2.4l-8.8 7.6v-2.1zm0 2.7l9.6-8.2h2.4l-10.4 9h-1.6v-.8zm-.5 119.5h195.6v-10H27.3v10zm195.1-.5h-1.2l1.2-1v1zm0-1.8l-2 1.7H218l4.4-3.8v2.1zm0-2.7l-5.2 4.4h-2.4l7.5-6.5.1 2.1h0zm0-4.5v1.8l-8.3 7.2h-2.3l10.4-9h.2zm-1 0l-10.4 9h-2.4l10.4-9h2.4zm-3.2 0l-10.4 9h-2.4l10.4-9h2.4zm-3.1 0l-10.4 9h-2.4l10.4-9h2.4zm-3.2 0l-10.4 9h-2.3l10.4-9h2.3zm-3 0l-10.4 9h-2.4l10.4-9h2.4zm-3.2 0l-10.4 9h-2.4l10.4-9h2.4zm-3.2 0l-10.4 9h-2.3l10.4-9h2.3zm-3 0l-10.4 9h-2.4l10.4-9h2.4zm-3.2 0l-10.4 9h-2.4l10.4-9h2.4zm-3.1 0l-10.4 9h-2.3l10.4-9h2.3zm-3.1 0l-10.4 9h-2.4l10.4-9h2.4zm-3.2 0l-10.4 9h-2.4l10.4-9h2.4zm-3.1 0l-10.4 9h-2.3l10.4-9h2.3zm-3.1 0l-10.4 9H168l10.4-9h2.3zm-3.1 0l-10.4 9h-2.4l10.4-9h2.4zm-3.2 0l-10.4 9h-2.4l10.4-9h2.4zm-3.2 0l-10.4 9h-2.3l10.4-9h2.3zm-3 0l-10.4 9h-2.3l10.4-9h2.3zm-3.1 0l-10.4 9h-2.5l10.4-9h2.5zm-3.2 0l-10.4 9h-2.3l10.4-9h2.3zm-3.1 0l-10.4 9H146l10.4-9h2.4zm-3.2 0l-10.4 9h-2.4l10.4-9h2.4zm-3.1 0l-10.4 9h-2.3l10.4-9h2.3zm-3.1 0l-10.4 9h-2.4l10.4-9h2.4zm-3.1 0l-10.4 9h-2.4l10.4-9h2.4zm-3.2 0l-10.4 9h-2.4l10.4-9h2.4zm-3.1 0l-10.4 9h-2.3l10.4-9h2.3zm-3.1 0l-10.4 9h-2.4l10.4-9h2.4zm-3.2 0l-10.4 9H121l10.4-9h2.3zm-3.1 0l-10.4 9h-2.3l10.4-9h2.3zm-3.1 0l-10.4 9h-2.4l10.4-9h2.4zm-3.2 0l-10.4 9h-2.4l10.4-9h2.4zm-3.1 0l-10.4 9h-2.3l10.4-9h2.3zm-3.1 0l-10.4 9h-2.4l10.4-9h2.4zm-3.1 0l-10.4 9h-2.4l10.4-9h2.4zm-3.2 0l-10.4 9H99l10.4-9h2.4zm-3.1 0l-10.4 9H96l10.4-9h2.3zm-3.1 0l-10.4 9h-2.4l10.4-9h2.4zm-3.2 0l-10.4 9h-2.4l10.4-9h2.4zm-3.1 0l-10.4 9h-2.3l10.4-9h2.3zm-3.1 0l-10.4 9h-2.4l10.4-9h2.4zm-3.2 0l-10.4 9h-2.4l10.4-9H93zm-3.1 0l-10.4 9h-2.3l10.4-9h2.3zm-3.1 0l-10.4 9H74l10.4-9h2.4zm-3.1 0l-10.4 9h-2.4l10.4-9h2.4zm-3.2 0l-10.4 9h-2.4l10.4-9h2.4zm-3.1 0l-10.4 9h-2.3l10.4-9h2.3zm-3.1 0l-10.4 9h-2.4l10.4-9h2.4zm-3.2 0l-10.4 9h-2.4l10.4-9h2.4zm-3.1 0l-10.4 9h-2.3l10.4-9H68zm-3.1 0l-10.4 9H52l10.4-9h2.5zm-3.3 0l-10.4 9H49l10.4-9h2.2zm-3 0l-10.4 9h-2.3l10.4-9h2.3zm-3.1 0l-10.4 9h-2.6l10.4-9h2.6zm-3.3 0l-10.4 9h-2.3l10.4-9h2.3zm-3.1 0l-10.4 9h-2.4l10.4-9h2.4zm-3.2 0l-10.4 9h-2.4l10.4-9h2.4zm-3.1 0l-10.4 9h-2.3l10.4-9h2.3zm-15 .2l.2-.2h2.4l-2.6 2.2v-2zm0 2.7l3.4-2.9h2.3l-5.6 4.9v-2h-.1zm0 2.6l6.4-5.5h2.4l-8.8 7.6v-2.1zm0 2.8l9.6-8.2h2.4l-10.4 9h-1.6v-.8zm47.8 23.8c-.3-.5-.6-.9-1.1-1.2-.1-.1-.3-.2-.5-.3-.5-.4-1.2-.6-1.8-.7-.3-.1-.5-.1-.8-.1-.2 0-.5 0-.7.1-2 .3-3.6 1.8-4 3.8h0c-.1.3-.1.5-.1.8v.2c0 .6.1 1.2.3 1.8.1.2.2.4.2.5a6.42 6.42 0 0 0 1 1.3l.4.4c.5.4 1.1.6 1.7.8.2.1.5.1.8.1h.3c2.4 0 4.4-1.8 4.8-4.1 0-.2.1-.5.1-.7v-.1c0-.7-.2-1.3-.4-1.9 0-.4-.1-.6-.2-.7zm-4.9-1.8l-3.2 2.6c.6-1.3 1.8-2.3 3.2-2.6zm-3.5 4.2c0-.2 0-.5.1-.7l4.4-3.6c.7 0 1.4.2 2 .6l-6.2 5c-.2-.4-.3-.8-.3-1.3zm.5 1.9l6.4-5.2c.4.3.8.8 1.1 1.2l-6.5 5.3c-.4-.3-.7-.8-1-1.3zm4.2 2.3l3.6-2.9c-.5 1.6-1.9 2.7-3.6 2.9zm3.8-3.8h0l-4.7 3.8h0c-.7-.1-1.3-.3-1.9-.7l6.3-5.1c.2.5.3 1 .3 1.5v.5z"/><path d="M225.1 50.3v102.9.5h.5.3.7 2.1.7 2.1.7 2 1.1v-.5V50.3h-10.2zm1.1 102.9l-.5-.6v-2.4l2.6 3h-2.1zm2.7 0l-3.3-3.8V147l5.4 6.2h-2.1zm2.8 0l-6.1-7v-2.3l8 9.3h-1.9zm3 0h-.3l-8.7-10.1v-2.4l9.1 10.5v2h-.1zm0-2.8l-9.1-10.5v-2.4l9.1 10.5v2.4zm0-3.2l-9.1-10.5v-2.3l9.1 10.5v2.3zm0-3.1l-9.1-10.5v-2.4l9.1 10.5v2.4zm0-3.2l-9.1-10.5V128l9.1 10.5v2.4zm0-3.2l-9.1-10.5v-2.4l9.1 10.5v2.4zm0-3.2l-9.1-10.5v-2.3l9.1 10.5v2.3zm0-3.1l-9.1-10.5v-2.4l9.1 10.5v2.4zm0-3.2l-9.1-10.5v-2.4l9.1 10.5v2.4zm0-3.2l-9.1-10.5v-2.3l9.1 10.5v2.3zm0-3.1l-9.1-10.5v-2.5l9.1 10.5v2.5zm0-3.3l-9.1-10.5v-2.3l9.1 10.5v2.3zm0-3.1l-9.1-10.5v-2.3l9.1 10.5v2.3zm0-3.1l-9.1-10.5v-2.4l9.1 10.5v2.4zm0-3.2l-9.1-10.5v-2.4l9.1 10.5v2.4zm0-3.2l-9.1-10.5V93l9.1 10.5v2.5zm0-3.2l-9.1-10.5V90l9.1 10.5v2.3zm0-3.1l-9.1-10.5v-2.4l9.1 10.5v2.4zm0-3.2L225.6 86v-2.4l9.1 10.5v2.4zm0-3.2l-9.1-10.5v-2.3l9.1 10.5v2.3zm0-3.1l-9.1-10.5v-2.4l9.1 10.5v2.4zm0-3.3l-9.1-10.5V74l9.1 10.5v2.4zm0-3.2l-9.1-10.5v-2.3l9.1 10.5v2.3zm0-3l-9.1-10.5v-2.4l9.1 10.5v2.4zm0-3.3l-9.1-10.5v-2.4l9.1 10.5v2.4zm0-3.2l-9.1-10.5v-2.3l9.1 10.5v2.3zm0-3.1l-9.1-10.5v-2.4l9.1 10.5v2.4zm0-3.2l-9.1-10.5V55l9.1 10.5v2.4zm0-3.1l-9.1-10.5v-2.4l9.1 10.5v2.4zm0-3.3L225.6 51v-.2h1.8l7.3 8.4v2.3h0zm0-3.1l-6.6-7.6h2.1l4.5 5.2v2.4zm0-3.2l-3.8-4.4h2.1l1.8 2v2.4h-.1zm0-3.2l-1.1-1.2h1.1V52zM14.8 153.2v.5h.5.3.7 2.1.7 2.1.7 2H25v-.5V50.3H14.8v102.9zm9.7-102.4V52l-1.1-1.2h1.1zm-1.8 0l1.8 2v2.4l-3.8-4.4h2zm-2.8 0l4.5 5.2v2.4l-6.6-7.6h2.1zm-4.5 0h1.8l7.3 8.4v2.3L15.4 51v-.2zm0 1l9.1 10.5v2.4l-9.1-10.5v-2.4zm0 3.2l9.1 10.5v2.4l-9.1-10.5V55zm0 3.2l9.1 10.5v2.4l-9.1-10.5v-2.4zm0 3.2l9.1 10.5v2.3l-9.1-10.5v-2.3zm0 3.1L24.5 75v2.4l-9.1-10.5v-2.4zm0 3.2l9.1 10.5v2.4l-9.1-10.5v-2.4zm0 3.2l9.1 10.5v2.3l-9.1-10.5v-2.3zm0 3.1l9.1 10.5v2.4l-9.1-10.5V74zm0 3.2l9.1 10.5v2.4l-9.1-10.5v-2.4zm0 3.2l9.1 10.5v2.3l-9.1-10.5v-2.3zm0 3.1L24.5 94v2.4l-9.1-10.5v-2.4zm0 3.2l9.1 10.5v2.4l-9.1-10.5v-2.4zm0 3.2l9.1 10.5v2.3l-9.1-10.5v-2.3zm0 3.1l9.1 10.5v2.4l-9.1-10.5V93zm0 3.2l9.1 10.5v2.4l-9.1-10.5v-2.4zm0 3.2l9.1 10.5v2.4l-9.1-10.5v-2.4zm0 3.2l9.1 10.5v2.3l-9.1-10.5v-2.3zm0 3.1l9.1 10.5v2.3L15.4 108v-2.3zm0 3.2l9.1 10.5v2.5l-9.1-10.5v-2.5zm0 3.3l9.1 10.5v2.3l-9.1-10.5v-2.3zm0 3l9.1 10.5v2.4l-9.1-10.5v-2.4zm0 3.3l9.1 10.5v2.4l-9.1-10.5v-2.4zm0 3.2l9.1 10.5v2.3L15.4 124v-2.3zm0 3l9.1 10.5v2.4l-9.1-10.5v-2.4zm0 3.3l9.1 10.5v2.4l-9.1-10.5V128zm0 3.2l9.1 10.5v2.4l-9.1-10.5v-2.4zm0 3.2l9.1 10.5v2.3l-9.1-10.5v-2.3zm0 3.1l9.1 10.5v2.4l-9.1-10.5v-2.4zm0 3.2l9.1 10.5v2h-.3l-8.7-10.1v-2.4h-.1zm0 3.2l8 9.3h-2l-6.1-7v-2.3h.1zm0 3.1l5.4 6.2h-2.1l-3.3-3.8V147zm0 3.2l2.6 3h-2.1l-.5-.6v-2.4z"/></g><defs ><path id="B" d="M110 187.8c0-.2.1-.4.2-.5s.3-.2.6-.2c.2 0 .4.1.6.2.1.1.2.3.2.5s-.1.4-.2.5-.3.2-.6.2c-.2 0-.4-.1-.6-.2-.1-.1-.2-.2-.2-.5zm1.5 7.7h-1.4v-6.1h1.4v6.1z"/><path id="C" d="M134.1 189.4v.7c.5-.5 1-.8 1.8-.8 1.3 0 1.9.7 1.9 2.2v4h-1.4v-3.9c0-.4-.1-.7-.2-.9s-.4-.3-.8-.3c-.6 0-1 .2-1.2.7v4.3h-1.4v-6.1h1.3v.1h0z"/><path id="D" d="M222.1 75.3H28.2c-.6 0-1-.5-1-1h0c0-.6.5-1 1-1h193.9c.6 0 1 .5 1 1h0c.1.5-.4 1-1 1z"/></defs></svg>