<svg xmlns="http://www.w3.org/2000/svg" xmlns:xlink="http://www.w3.org/1999/xlink" viewBox="0 0 250 209.7" xmlns:v="https://vecta.io/nano"><path d="M0 0h250v209.7H0z" fill="#f4f4f4"/><g fill="#8796a1"><path d="M237.5 49.2h-33.4V30a1.58 1.58 0 0 0-1.6-1.6h-54.2a1.58 1.58 0 0 0-1.6 1.6v19.2h-9.5V30c0-1.2-.9-2.1-2.1-2.1H80.9c-1.2 0-2.1.9-2.1 2.1v19.1H69V30a1.58 1.58 0 0 0-1.6-1.6H13.2a1.58 1.58 0 0 0-1.6 1.6v19.6.5 115.6a.47.47 0 0 0 .5.5h225.4a.47.47 0 0 0 .5-.5v-116a.47.47 0 0 0-.5-.5zm-.5 116H12.6V51.6v-1.5H69h10.3a.47.47 0 0 0 .5-.5V30a1.11 1.11 0 0 1 1.1-1.1h54.2a1.11 1.11 0 0 1 1.1 1.1v19.7a.47.47 0 0 0 .5.5h10 57.4H237v115z"/><circle cx="90.7" cy="39.4" r="4.7"/><path d="M128 37.3h-21.3c-1.1 0-2 .9-2 2s.9 2 2 2H128c1 0 1.9-.9 2-2 0-1.1-.9-2-2-2zm57.9 145h-.1-12.1 0-27.9-.1-12.1-.1c-1.1 0-1.9.8-1.9 1.9v.1 14.2.1c0 1.1.8 1.9 1.9 1.9h.1 12.1 28 12.1c.6 0 1.1-.2 1.5-.6.1-.1.2-.3.3-.4.1-.3.2-.6.2-.9v-14.2c0-.6-.2-1.1-.6-1.4-.4-.5-.8-.7-1.3-.7zm-40.7 17.2h-11.6a1.08 1.08 0 0 1-1-1v-14.2c0-.5.4-1 1-1h11.7l-.1 16.2h0zm28 0h-27v-16.2h27v16.2zm13.5-.6c-.2.3-.5.6-.9.6h-11.6v-16.2h11.6 0c.2 0 .5.1.6.3s.2.4.2.6v14.5c.1.1.1.2.1.2z"/></g><g fill="#f4f4f4"><circle cx="158.2" cy="39.4" r="4.7"/><path d="M195.4 37.3h-21.2c-1.1 0-2 .9-2 2s.9 2 2 2h21.2c1 0 1.9-.9 2-2 0-1.1-.9-2-2-2z"/><circle cx="22" cy="39.4" r="4.7"/><path d="M59.2 37.3H38c-1.1 0-2 .9-2 2s.9 2 2 2h21.2c1 0 1.9-.9 2-2 0-1.1-.9-2-2-2z"/></g><g fill="#adbcc4"><path d="M28.2 66.1h193.9c.6 0 1.1-.5 1-1 0-.5-.4-1-1-1H28.2c-.5 0-1 .4-1 1 0 .5.4 1 1 1zm193.9 9.5H28.2c-.5 0-1 .4-1 1 0 .5.4 1 1 1h193.9c.6 0 1.1-.5 1-1 0-.5-.4-1-1-1z"/><use xlink:href="#B"/><use xlink:href="#B" y="11.5"/><path d="M139.2 112c.6 0 1.1-.5 1-1 0-.5-.4-1-1-1h-111c-.5 0-1 .4-1 1 0 .5.4 1 1 1h111z"/><use xlink:href="#B" y="40"/><path d="M222.1 138.5H28.2c-.5 0-1 .4-1 1 0 .5.4 1 1 1h193.9c.6 0 1.1-.5 1-1 0-.5-.4-1-1-1zM168.9 150H28.2c-.5 0-1 .4-1 1 0 .5.4 1 1 1h140.7a1.08 1.08 0 0 0 1-1c0-.5-.4-1-1-1z"/></g><path d="M140.4 187.7l-3.4 3.5c-.1.1-.1.3 0 .4l3.4 3.5c.1.1.4 0 .4-.2v-7c0-.2-.2-.3-.4-.2zm42 3.5l-3.4-3.5c-.1-.1-.4 0-.4.2v7c0 .2.2.3.4.2l3.4-3.5c.1-.1.1-.3 0-.4z" fill="#231f20"/><path d="M162.5 194.8H157v-.9l2.7-3c.4-.4.7-.8.8-1.1.2-.3.2-.6.2-.9 0-.4-.1-.7-.3-.9s-.5-.4-.9-.4-.8.1-1 .4-.4.6-.4 1.1h-1.4c0-.5.1-.9.3-1.3s.6-.7 1-.9.9-.3 1.5-.3c.8 0 1.4.2 1.9.6s.7 1 .7 1.7c0 .4-.1.8-.3 1.3s-.6 1-1.1 1.5l-2 2.1h3.8v1z" enable-background="new"/><path d="M50 10.9H30.5c-1.1 0-1.9.9-1.9 1.9V21c0 1.1.9 1.9 1.9 1.9h5.8c.5 0 1 .2 1.4.6l1.3 1.3c.7.7 2 .7 2.7 0l1.3-1.3c.4-.4.8-.6 1.4-.6H50c1.1 0 1.9-.9 1.9-1.9v-8.1c.1-1.1-.8-2-1.9-2zm-13.1 9.6h-1.2v-5.7l-1.7.6v-1l2.8-1h.2l-.1 7.1zm6.2-.3c-.4.3-.9.4-1.5.4-.4 0-.8-.1-1.2-.2s-.6-.4-.8-.6-.3-.6-.3-.9h1.2c0 .3.1.5.3.6.2.2.5.2.8.2s.5-.1.7-.2c.1-.1.2-.2.2-.4a.55.55 0 0 0-.3-.5c-.2-.1-.5-.2-.9-.3l-1-.3c-.6-.3-.9-.7-.9-1.2s.2-.8.6-1.1.9-.5 1.5-.5 1.1.2 1.5.5.6.7.6 1.2h-1.2c0-.2-.1-.4-.3-.6-.1-.2-.4-.3-.6-.3-.3 0-.5.1-.6.2s-.2.3-.2.5.1.3.2.4.5.2.9.3c.5.1.8.2 1.1.4.3.1.5.3.6.5s.2.4.2.7c0 .5-.2.9-.6 1.2zm3.9-4h-.9v2.9c0 .2 0 .3.1.4s.2.1.4.1h.4v.9c-.3.1-.5.1-.8.1-.9 0-1.4-.5-1.4-1.5v-3h-.9v-.9H45V14h1.1v1.3h.9v.9zm66.8 3.6c.5 0 .8-.2 1.1-.6v-2.3c-.2-.4-.6-.6-1.1-.6-.4 0-.7.2-.9.5-.2.1-.3.5-.3 1.2 0 .5.1 1 .3 1.3s.5.5.9.5zm-1.8 3.1h5.8c1.1 0 1.9-.9 1.9-1.9v-8.1c-.2-1.1-1-2-2.1-2H98.1c-1.1 0-1.9.9-1.9 1.9V21c0 1.1.9 1.9 1.9 1.9h5.8c.5 0 1 .2 1.4.6l1.3 1.3c.7.7 2 .7 2.7 0l1.3-1.3c.4-.4.8-.6 1.4-.6zm0-7c.4-.5.9-.7 1.5-.7s1 .2 1.4.6V13h1.2v7.5H115l-.1-.5c-.4.4-.8.6-1.4.6s-1.1-.2-1.5-.7-.6-1.2-.6-2 .2-1.5.6-2zm-7 4.6h-4.7v-.8l2.4-2.6c.3-.4.6-.7.7-1s.2-.5.2-.8-.1-.6-.3-.8-.4-.3-.8-.3-.7.1-.9.4c-.2.2-.3.6-.3 1h-1.2c0-.4.1-.8.3-1.2.2-.3.5-.6.8-.8s.8-.3 1.3-.3c.7 0 1.2.2 1.6.5s.6.8.6 1.4c0 .4-.1.7-.3 1.1s-.5.8-1 1.3l-1.7 1.9h3.3v1zm5.3 0h-1.2v-3.4c0-.3-.1-.6-.2-.7-.1-.2-.4-.2-.7-.2-.5 0-.8.2-1.1.6v3.8H106v-5.3l1.1-.1v.6c.4-.5.9-.7 1.5-.7 1.1 0 1.7.6 1.7 1.9v3.5zm69.4-4.2c-.4 0-.7.2-.9.5-.2.1-.3.5-.3 1.2 0 .5.1 1 .3 1.3s.5.5.9.5c.5 0 .8-.2 1.1-.6v-2.3c-.2-.4-.6-.6-1.1-.6zm5.5-5.4h-19.5c-1.1 0-1.9.9-1.9 1.9V21c0 1.1.9 1.9 1.9 1.9h5.8c.5 0 1 .2 1.4.6l1.3 1.3c.7.7 2 .7 2.7 0l1.3-1.3c.4-.4.8-.6 1.4-.6h5.8c1.1 0 1.9-.9 1.9-1.9v-8.1c-.2-1.1-1.1-2-2.1-2zm-13 8.9c-.4.4-1 .6-1.7.6s-1.2-.2-1.7-.5c-.4-.4-.7-.8-.7-1.5h1.2c0 .3.1.6.3.8s.5.3.8.3c.4 0 .7-.1.9-.3s.3-.5.3-.8c0-.4-.1-.7-.3-.9s-.6-.3-1-.3h-.7v-.8h.8c.4 0 .7-.1.9-.3s.3-.5.3-.8-.1-.6-.3-.8-.4-.3-.8-.3c-.3 0-.6.1-.8.3s-.3.4-.3.7h-1.2a1.69 1.69 0 0 1 .3-1c.2-.3.5-.5.8-.7s.7-.3 1.2-.3c.7 0 1.3.2 1.7.5.4.4.6.9.6 1.5 0 .3-.1.6-.3.9s-.5.5-.8.6c.4.1.7.3.9.6a1.69 1.69 0 0 1 .3 1c0 .6-.2 1.1-.7 1.5zm4.2-3.5c-.5 0-.9.2-1.1.6v3.6h-1.2v-5.3h1.1v.6c.3-.5.7-.7 1.2-.7.2 0 .3 0 .4.1l.1 1.1h-.5zm5.6 4.2h-1.1l-.1-.5c-.4.4-.8.6-1.4.6s-1.1-.2-1.5-.7-.6-1.2-.6-2 .2-1.5.6-2 .9-.7 1.5-.7 1 .2 1.4.6V13h1.2v7.5h0zm-32.2 184.4h20.6v-27.1h-20.6v27.1zm1-26.1h18.6v25.1h-18.6v-25.1zm6.1-5.4l.8-.2-43.8-116.1 3.4-1.3-6.2-5-1.3 7.9 3.3-1.3z" fill="#f21197"/><path d="M13.5 195.8H12v-8.5h1.5v8.5zm3-6.3v.7c.5-.6 1.1-.8 1.8-.8 1.3 0 2 .8 2 2.3v4.2h-1.4v-4.1c0-.4-.1-.7-.3-.9s-.5-.3-.9-.3c-.6 0-1 .3-1.3.8v4.5H15v-6.3l1.5-.1h0zm5.3-1.7c0-.2.1-.4.2-.5s.3-.2.6-.2.5.1.6.2.2.3.2.5-.1.4-.2.5-.3.2-.6.2-.5-.1-.6-.2-.2-.3-.2-.5zm1.5 8h-1.4v-6.3h1.4v6.3zm3.4-7.9v1.5h1.1v1.1h-1.1v3.5c0 .2 0 .4.1.5s.3.2.5.2.3 0 .5-.1v1.1c-.3.1-.6.1-.9.1-1.1 0-1.6-.6-1.6-1.8v-3.6h-1v-1.1h1v-1.5h1.4v.1zm2.2-.1c0-.2.1-.4.2-.5s.3-.2.6-.2.5.1.6.2.2.3.2.5-.1.4-.2.5-.3.2-.6.2-.5-.1-.6-.2-.2-.3-.2-.5zm1.5 8H29v-6.3h1.4v6.3zm5.3 0c-.1-.1-.1-.3-.2-.6a2.19 2.19 0 0 1-1.7.7c-.6 0-1.2-.2-1.6-.5s-.6-.8-.6-1.3c0-.7.3-1.2.8-1.6s1.2-.5 2.2-.5h.9v-.4c0-.3-.1-.6-.3-.8s-.5-.3-.8-.3-.6.1-.8.2-.3.4-.3.6h-1.4a1.93 1.93 0 0 1 .3-1c.2-.3.5-.5.9-.7s.8-.3 1.3-.3c.7 0 1.3.2 1.8.6s.7.9.7 1.6v2.9c0 .6.1 1 .2 1.4v.1l-1.4-.1h0zm-1.5-1c.3 0 .5-.1.8-.2s.4-.3.6-.6v-1.2h-.8c-.5 0-.9.1-1.2.3s-.4.4-.4.8c0 .3.1.5.3.7s.4.2.7.2zm5.7 1h-1.4v-9h1.4v9zm11.5-4c0 .8-.1 1.6-.4 2.2s-.7 1.1-1.2 1.5-1.2.5-1.9.5-1.3-.2-1.8-.5-1-.8-1.3-1.4-.4-1.3-.4-2.2v-.5c0-.8.1-1.6.4-2.2s.7-1.1 1.2-1.5 1.2-.5 1.8-.5 1.3.2 1.8.5 1 .8 1.2 1.4.4 1.4.4 2.2v.5h.2zm-1.5-.5c0-.9-.2-1.7-.5-2.2s-.9-.8-1.5-.8-1.1.3-1.5.8-.5 1.2-.6 2.1v.5c0 .9.2 1.7.5 2.2s.9.8 1.5.8c.7 0 1.2-.2 1.5-.8s.5-1.2.5-2.2l.1-.4h0zm8.4 1.4c0 1-.2 1.8-.7 2.3s-1 .9-1.8.9c-.7 0-1.3-.2-1.7-.7v3h-1.4v-8.8H54l.1.6c.4-.5 1-.8 1.7-.8.8 0 1.4.3 1.8.9s.7 1.5.7 2.6h0zm-1.4-.1c0-.6-.1-1.1-.4-1.5s-.6-.6-1.1-.6c-.6 0-1 .2-1.3.7v2.8c.3.5.7.7 1.3.7.5 0 .8-.2 1.1-.5s.4-.9.4-1.6zm5.4 3.3c-.9 0-1.6-.3-2.2-.9s-.8-1.3-.8-2.3v-.2c0-.6.1-1.2.4-1.7s.6-.9 1-1.2.9-.4 1.5-.4c.9 0 1.5.3 2 .8s.7 1.3.7 2.3v.6h-4.1c0 .5.2.9.5 1.2s.7.5 1.2.5c.7 0 1.2-.3 1.6-.8l.8.7c-.3.4-.6.7-1 .9s-1.1.5-1.6.5zm-.2-5.4c-.4 0-.7.1-.9.4s-.4.7-.5 1.1h2.7v-.1c0-.5-.2-.8-.4-1.1s-.5-.3-.9-.3zm5.2-1v.7c.5-.6 1.1-.8 1.8-.8 1.3 0 2 .8 2 2.3v4.2h-1.4v-4.1c0-.4-.1-.7-.3-.9s-.5-.3-.9-.3c-.6 0-1 .3-1.3.8v4.5h-1.4v-6.3l1.5-.1h0zm14.3-1h-2.7v7.3h-1.5v-7.3h-2.6v-1.2h6.8v1.2zm3.8 7.3c-.1-.1-.1-.3-.2-.6a2.19 2.19 0 0 1-1.7.7c-.6 0-1.2-.2-1.6-.5s-.6-.8-.6-1.3c0-.7.3-1.2.8-1.6s1.2-.5 2.2-.5h.9v-.4c0-.3-.1-.6-.3-.8s-.5-.3-.8-.3-.6.1-.8.2-.3.4-.3.6h-1.4a1.93 1.93 0 0 1 .3-1c.2-.3.5-.5.9-.7s.8-.3 1.3-.3c.7 0 1.3.2 1.8.6s.7.9.7 1.6v2.9c0 .6.1 1 .2 1.4v.1l-1.4-.1h0zm-1.6-1c.3 0 .5-.1.8-.2s.4-.3.6-.6v-1.2h-.8c-.5 0-.9.1-1.2.3s-.4.4-.4.8c0 .3.1.5.3.7s.4.2.7.2zm9.8-2.1c0 1-.2 1.8-.7 2.3s-1 .9-1.8.9c-.7 0-1.3-.3-1.7-.8l-.1.7H88v-9h1.4v3.3c.4-.5 1-.7 1.7-.7.8 0 1.4.3 1.8.9s.7 1.3.7 2.4h0zm-1.4-.1c0-.7-.1-1.2-.4-1.5s-.6-.5-1.1-.5c-.6 0-1.1.3-1.3.8v2.6c.3.6.7.8 1.3.8.4 0 .8-.2 1-.5s.4-.8.4-1.5l.1-.2h0z" fill="#231f20"/><defs ><path id="B" d="M222.1 87H28.2c-.5 0-1 .4-1 1 0 .5.4 1 1 1h193.9c.6 0 1.1-.4 1-1 0-.5-.4-1-1-1z"/></defs></svg>