<svg xmlns="http://www.w3.org/2000/svg" xmlns:xlink="http://www.w3.org/1999/xlink" viewBox="0 0 250 209.7" xmlns:v="https://vecta.io/nano"><path d="M0 0h250v209.7H0z" fill="#f4f4f4"/><g fill="#8796a1"><path d="M80.9 29.6h54.2a1.58 1.58 0 0 0 1.6-1.6V10.5a1.58 1.58 0 0 0-1.6-1.6H80.9a1.58 1.58 0 0 0-1.6 1.6V28a1.58 1.58 0 0 0 1.6 1.6zm66.9 0H202a1.58 1.58 0 0 0 1.6-1.6V10.5a1.58 1.58 0 0 0-1.6-1.6h-54.2a1.58 1.58 0 0 0-1.6 1.6V28a1.58 1.58 0 0 0 1.6 1.6zm-134.2 0h20.2 13.8 20.2a1.58 1.58 0 0 0 1.6-1.6V10.5a1.58 1.58 0 0 0-1.6-1.6H13.6a1.58 1.58 0 0 0-1.6 1.6V28a1.58 1.58 0 0 0 1.6 1.6zM13 10.5a.65.65 0 0 1 .6-.6h54.2a.65.65 0 0 1 .6.6V28a.65.65 0 0 1-.6.6H47.6 33.8 13.6a.65.65 0 0 1-.6-.6V10.5z"/><circle cx="22.5" cy="19.2" r="4.7"/><path d="M38.5 21.2h21.2c1 0 1.9-.9 2-2 0-1.1-.9-2-2-2H38.5c-1.1 0-2 .9-2 2s.9 2 2 2zm196.7 19.4H14.8c-1.7 0-3 1.3-3 2.9v123.1c0 1.6 1.3 2.9 3 2.9h220.4c1.7 0 3-1.3 3-2.9V43.5c0-1.6-1.3-2.9-3-2.9zm2 126c0 1-.9 1.9-2 1.9H14.8c-1.1 0-2-.9-2-1.9V43.5c0-1 .9-1.9 2-1.9h220.4c1.1 0 2 .9 2 1.9v123.1z"/></g><g enable-background="new" fill="#231f20"><path d="M37 187.3l2.4 6.3 2.4-6.3h1.8v8.2h-1.4v-2.7l.1-3.6-2.4 6.3h-1l-2.4-6.3.1 3.6v2.7h-1.4v-8.2H37z"/><use xlink:href="#B"/><path d="M54.6 190.7H54c-.6 0-1 .2-1.3.7v4.2h-1.4v-6.1h1.3v.7c.3-.5.8-.8 1.4-.8.2 0 .4 0 .5.1l.1 1.2zm.5 1.7c0-.9.2-1.7.7-2.3.4-.6 1-.8 1.8-.8.7 0 1.2.2 1.6.7l.1-.6h1.2v5.9c0 .8-.2 1.4-.7 1.9s-1.2.7-2 .7a3.08 3.08 0 0 1-1.3-.3c-.4-.2-.7-.4-1-.7l.6-.8c.4.5.9.7 1.6.7.5 0 .8-.1 1.1-.4s.4-.6.4-1.1v-.3c-.4.4-.9.7-1.6.7s-1.3-.3-1.7-.8-.8-1.5-.8-2.5zm1.4.1c0 .6.1 1.1.4 1.4.2.4.6.5 1 .5.6 0 1-.2 1.2-.7V191c-.3-.5-.7-.7-1.2-.7s-.8.2-1 .5c-.3.5-.4 1.1-.4 1.7zm5.4-4.7c0-.2.1-.4.2-.5s.3-.2.6-.2c.2 0 .4.1.6.2.1.1.2.3.2.5s-.1.4-.2.5-.3.2-.6.2c-.2 0-.4-.1-.6-.2s-.2-.2-.2-.5zm1.4 7.7H62v-6.1h1.4v6.1h-.1zm2.8-6.1v.7c.5-.5 1-.8 1.8-.8 1.3 0 1.9.7 1.9 2.2v4h-1.4v-3.9c0-.4-.1-.7-.2-.9s-.4-.3-.8-.3c-.6 0-1 .2-1.2.7v4.3h-1.4v-6.1h1.3v.1zm8.1 6.1v-8.2H77c.9 0 1.6.2 2.1.6s.7.9.7 1.7a1.69 1.69 0 0 1-.3 1c-.2.3-.5.5-.9.7.4.1.8.3 1 .7s.4.7.4 1.2c0 .8-.2 1.4-.7 1.8s-1.2.6-2.1.6h-3v-.1zm1.4-4.7H77c.4 0 .8-.1 1-.3s.4-.5.4-.9-.1-.7-.3-.9-.6-.3-1.1-.3h-1.4v2.4zm0 1v2.6h1.6c.4 0 .8-.1 1-.3.3-.2.4-.5.4-.9 0-.9-.4-1.3-1.3-1.3h-1.7v-.1zm8.4 3.8c-.9 0-1.6-.3-2.1-.8s-.8-1.3-.8-2.2v-.2c0-.6.1-1.2.4-1.6s.6-.9 1-1.1.9-.4 1.4-.4c.8 0 1.5.3 1.9.8.5.5.7 1.3.7 2.2v.6h-4c0 .5.2.9.5 1.2s.7.4 1.1.4c.6 0 1.1-.3 1.5-.8l.7.7c-.2.4-.6.6-1 .8s-.8.4-1.3.4zm-.1-5.2c-.4 0-.7.1-.9.4s-.4.6-.4 1.1h2.6v-.1c0-.5-.2-.8-.4-1-.2-.3-.5-.4-.9-.4z"/><use xlink:href="#C"/><path d="M96.7 193.6l1-4.2H99l-1.7 6.1h-1.1l-1.3-4.2-1.3 4.2h-1.1l-1.7-6.1h1.3l1 4.2 1.2-4.2h1l1.4 4.2zm5.9 2c-.9 0-1.6-.3-2.1-.8s-.8-1.3-.8-2.2v-.2c0-.6.1-1.2.4-1.6s.6-.9 1-1.1.9-.4 1.4-.4c.8 0 1.5.3 1.9.8.5.5.7 1.3.7 2.2v.6h-4c0 .5.2.9.5 1.2s.7.4 1.1.4c.6 0 1.1-.3 1.5-.8l.7.7c-.2.4-.6.6-1 .8s-.8.4-1.3.4zm-.1-5.2c-.4 0-.7.1-.9.4s-.4.6-.4 1.1h2.6v-.1c0-.5-.2-.8-.4-1-.3-.3-.6-.4-.9-.4z"/><use xlink:href="#D"/><path d="M113.6 189.4v.7c.5-.5 1-.8 1.8-.8 1.3 0 1.9.7 1.9 2.2v4H116v-3.9c0-.4-.1-.7-.2-.9s-.4-.3-.8-.3c-.6 0-1 .2-1.2.7v4.3h-1.4v-6.1h1.2v.1zm13.7-.9h-2.6v7h-1.4v-7h-2.5v-1.1h6.5v1.1zm3.6 7c-.1-.1-.1-.3-.2-.6-.4.5-1 .7-1.6.7s-1.1-.2-1.5-.5-.6-.8-.6-1.3c0-.6.2-1.1.7-1.5.5-.3 1.2-.5 2.1-.5h.8v-.4c0-.3-.1-.6-.3-.8s-.4-.3-.8-.3c-.3 0-.6.1-.8.2-.2.2-.3.4-.3.6H127c0-.3.1-.6.3-.9s.5-.5.9-.7.8-.2 1.3-.2c.7 0 1.3.2 1.7.5s.6.9.7 1.5v2.7a4.44 4.44 0 0 0 .2 1.3v.1l-1.2.1h0zm-1.5-1c.3 0 .5-.1.8-.2.2-.1.4-.3.5-.5v-1.1h-.7c-.5 0-.9.1-1.1.3-.3.2-.4.4-.4.7s.1.5.3.6c.1.2.3.2.6.2zm9.5-2c0 .9-.2 1.7-.6 2.3s-1 .8-1.7.8-1.3-.3-1.7-.8l-.1.7h-1.2v-8.6h1.4v3.1c.4-.5.9-.7 1.6-.7s1.3.3 1.8.8c.3.6.5 1.4.5 2.4h0zm-1.4-.1c0-.7-.1-1.2-.3-1.5s-.6-.5-1-.5c-.6 0-1 .3-1.2.8v2.5c.2.5.7.8 1.3.8.4 0 .8-.2 1-.5s.4-.8.4-1.4v-.2h-.2 0zm5.9 1.5c0-.2-.1-.4-.3-.6-.2-.1-.5-.2-1-.3s-.9-.2-1.2-.4c-.7-.3-1-.8-1-1.4 0-.5.2-1 .7-1.3.4-.4 1-.5 1.7-.5s1.3.2 1.8.5.7.8.7 1.4h-1.4c0-.3-.1-.5-.3-.7s-.5-.3-.8-.3-.5.1-.7.2-.3.3-.3.6a.55.55 0 0 0 .3.5c.2.1.5.2 1.1.4l1.3.4c.3.2.5.4.7.6.1.2.2.5.2.8 0 .5-.2 1-.7 1.3s-1 .5-1.8.5c-.5 0-.9-.1-1.3-.3s-.7-.4-.9-.7a1.93 1.93 0 0 1-.3-1h1.3c0 .3.1.6.4.7.2.2.5.3.9.3s.6-.1.8-.2.1-.3.1-.5z"/><use xlink:href="#B" x="103.7"/><path d="M156.3 189.4v.7c.5-.5 1-.8 1.8-.8 1.3 0 1.9.7 1.9 2.2v4h-1.4v-3.9c0-.4-.1-.7-.2-.9s-.4-.3-.8-.3c-.6 0-1 .2-1.2.7v4.3H155v-6.1h1.3v.1zm4.9 3c0-.9.2-1.7.7-2.3.4-.6 1-.9 1.8-.9.6 0 1.2.2 1.6.7v-3.1h1.4v8.6h-1.2l-.1-.6c-.4.5-1 .7-1.6.7-.7 0-1.3-.3-1.7-.9-.6-.4-.9-1.2-.9-2.2zm1.4.1c0 .6.1 1.1.4 1.4.2.3.6.5 1 .5.6 0 1-.2 1.2-.7v-2.6c-.3-.5-.7-.7-1.2-.7-.4 0-.8.2-1 .5-.3.4-.4.9-.4 1.6zm8.4 3v-8.2h2.4c.7 0 1.4.2 1.9.5s1 .8 1.3 1.4.5 1.3.5 2v.4c0 .8-.2 1.5-.5 2s-.8 1-1.3 1.4c-.6.3-1.2.5-2 .5H171h0zm1.4-7v5.9h.9c.7 0 1.3-.2 1.7-.7s.6-1.1.6-2v-.5c0-.9-.2-1.6-.6-2-.4-.5-.9-.7-1.7-.7h-.9z"/><use xlink:href="#D" x="72.3"/><path d="M188 193.9c0-.2-.1-.4-.3-.6-.2-.1-.5-.2-1-.3s-.9-.2-1.2-.4c-.7-.3-1-.8-1-1.4 0-.5.2-1 .7-1.3.4-.4 1-.5 1.7-.5s1.3.2 1.8.5.7.8.7 1.4H188c0-.3-.1-.5-.3-.7s-.5-.3-.8-.3-.5.1-.7.2-.3.3-.3.6a.55.55 0 0 0 .3.5c.2.1.5.2 1.1.4l1.3.4c.3.2.5.4.7.6.1.2.2.5.2.8 0 .5-.2 1-.7 1.3s-1 .5-1.8.5c-.5 0-.9-.1-1.3-.3s-.7-.4-.9-.7a1.93 1.93 0 0 1-.3-1h1.3c0 .3.1.6.4.7.2.2.5.3.9.3s.6-.1.8-.2.1-.3.1-.5zm5 .6c.3 0 .6-.1.8-.3s.3-.4.4-.7h1.3c0 .4-.1.7-.4 1.1s-.5.6-.9.8-.8.3-1.2.3c-.9 0-1.5-.3-2-.8-.5-.6-.7-1.3-.7-2.3v-.1c0-.9.2-1.7.7-2.2.5-.6 1.2-.8 2-.8.7 0 1.3.2 1.8.6s.7 1 .7 1.7h-1.3c0-.3-.1-.6-.4-.9-.2-.2-.5-.3-.9-.3s-.8.2-1 .5-.4.8-.4 1.5v.2c0 .7.1 1.2.4 1.5s.7.2 1.1.2zm6.7-3.8h-.6c-.6 0-1 .2-1.3.7v4.2h-1.4v-6.1h1.3v.7c.3-.5.8-.8 1.4-.8.2 0 .4 0 .5.1l.1 1.2zm.9-2.9c0-.2.1-.4.2-.5s.3-.2.6-.2c.2 0 .4.1.6.2.1.1.2.3.2.5s-.1.4-.2.5-.3.2-.6.2c-.2 0-.4-.1-.6-.2-.1-.1-.2-.2-.2-.5zm1.5 7.7h-1.4v-6.1h1.4v6.1zm6.8-3c0 .9-.2 1.7-.6 2.3s-1 .8-1.7.8-1.2-.2-1.6-.7v2.9h-1.4v-8.4h1.3l.1.6c.4-.5.9-.7 1.6-.7s1.3.3 1.7.8.6 1.4.6 2.4h0zm-1.4-.1c0-.6-.1-1.1-.4-1.4s-.6-.5-1-.5c-.6 0-1 .2-1.2.7v2.7c.2.5.7.7 1.2.7.4 0 .8-.2 1-.5.3-.4.4-1 .4-1.7z"/><use xlink:href="#C" x="122.5"/><path d="M213.9 187.8c0-.2.1-.4.2-.5s.3-.2.6-.2c.2 0 .4.1.6.2.1.1.2.3.2.5s-.1.4-.2.5-.3.2-.6.2c-.2 0-.4-.1-.6-.2s-.2-.2-.2-.5zm1.4 7.7H214v-6.1h1.4l-.1 6.1h0zm1.3-3.1c0-.6.1-1.1.4-1.6s.6-.8 1-1.1.9-.4 1.5-.4c.8 0 1.5.3 2 .8s.8 1.2.8 2.1v.3c0 .6-.1 1.1-.3 1.6s-.6.8-1 1.1-.9.4-1.5.4c-.9 0-1.5-.3-2.1-.9-.6-.5-.8-1.3-.8-2.3h0zm1.3.1c0 .6.1 1.1.4 1.5s.6.5 1.1.5.8-.2 1.1-.5.4-.9.4-1.6c0-.6-.1-1.1-.4-1.5s-.6-.5-1.1-.5c-.4 0-.8.2-1.1.5s-.4.9-.4 1.6zm6.7-3.1v.7c.5-.5 1-.8 1.8-.8 1.3 0 1.9.7 1.9 2.2v4H227v-3.9c0-.4-.1-.7-.2-.9s-.4-.3-.8-.3c-.6 0-1 .2-1.2.7v4.3h-1.4v-6.1h1.2v.1z"/></g><g fill="#fff"><circle cx="90.7" cy="19.2" r="4.7"/><path d="M128 17.2h-21.3c-1.1 0-2 .9-2 2s.9 2 2 2H128c1 0 1.9-.9 2-2 0-1.1-.9-2-2-2z"/><circle cx="157.7" cy="19.2" r="4.7"/><path d="M194.9 17.2h-21.2c-1.1 0-2 .9-2 2s.9 2 2 2h21.2c1 0 1.9-.9 2-2 0-1.1-.9-2-2-2z"/></g><g fill="#adbcc4"><path d="M28.2 57.3h193.9c.6 0 1.1-.4 1-1 0-.5-.4-1-1-1H28.2c-.5 0-1 .4-1 1 0 .5.4 1 1 1zm193.9 9.5H28.2c-.5 0-1 .4-1 1 0 .5.4 1 1 1h193.9c.6 0 1.1-.4 1-1 0-.5-.4-1-1-1z"/><use xlink:href="#E"/><use xlink:href="#E" y="11.5"/><path d="M139.2 103.3c.6 0 1.1-.5 1-1 0-.5-.4-1-1-1h-111c-.5 0-1 .4-1 1 0 .5.4 1 1 1h111z"/><use xlink:href="#E" y="39.4"/><use xlink:href="#E" y="50.9"/><use xlink:href="#E" y="62.4"/><path d="M168.9 152.2H28.2c-.5 0-1 .4-1 1 0 .5.4 1 1 1h140.7a1.08 1.08 0 0 0 1-1c0-.5-.4-1-1-1z"/></g><path d="M120.6 48.4h3.7l-.4 135c0 .2.2.4.4.4s.4-.2.4-.4l.4-134.9h3.5l-3.9-6.9-4.1 6.8zM11.9 30.5v9.3h191.9v-9.3H11.9zm.5.6l.2-.2h2.3L12.4 33v-1.9zm0 2.5l3.3-2.7h2.2l-5.5 4.5v-1.8zm0 2.5l6.3-5.1H21l-8.6 7v-1.9zm0 3.1v-.7l9.4-7.6h2.3l-10.2 8.3h-1.5zm2.3 0L24.8 31H27l-10.2 8.3h-2.1zm3 0L27.8 31h2.3L20 39.2h-2.3zm3.1 0L30.9 31h2.3L23 39.3h-2.2zm3.1 0L34 31h2.2L26 39.3h-2.1zm3 0L37 31h2.5l-10.2 8.3h-2.4zm3.3 0L40.4 31h2.2l-10.2 8.3h-2.2zm3 0L43.4 31h2.2l-10.2 8.3h-2.2zm3 0L46.4 31h2.4l-10.2 8.3h-2.4zm3.2 0L49.6 31h2.2l-10.2 8.3h-2.2zm3 0L52.6 31h2.3l-10.2 8.3h-2.3zm3.1 0L55.7 31H58l-10.2 8.3h-2.3zm3 0L58.7 31H61l-10.2 8.3h-2.3zm3.1 0L61.8 31h2.3l-10.2 8.3h-2.3zm3.1 0L64.9 31h2.3L57 39.2h-2.3zm3 0L67.9 31h2.3L60 39.3h-2.3zm3.2 0L71.1 31h2.2l-10.2 8.3h-2.2zm3 0L74.1 31h2.3l-10.2 8.3h-2.3zm3 0L77.1 31h2.3l-10.2 8.3h-2.3zm3.2 0L80.3 31h2.2l-10.2 8.3h-2.2zm3 0L83.3 31h2.3l-10.2 8.3h-2.3zm3.1 0L86.4 31h2.3l-10.2 8.3h-2.3zm3.1 0L89.5 31h2.2l-10.2 8.3h-2.2zm3 0L92.5 31h2.3l-10.2 8.3h-2.3zm3.1 0L95.6 31h2.3l-10.2 8.3h-2.3zm3 0L98.6 31h2.3l-10.2 8.3h-2.3zm3.2 0l10.2-8.3h2.2l-10.2 8.3h-2.2zm3 0l10.2-8.3h2.3l-10.2 8.3h-2.3zm3 0l10.2-8.3h2.3L100 39.2h-2.4zm3.2 0L111 31h2.2L103 39.2h-2.2zm3 0L114 31h2.3l-10.2 8.3h-2.3zm3.1 0l10.2-8.3h2.3l-10.2 8.3h-2.3zm3.1 0l10.2-8.3h2.2l-10.2 8.3H110zm3 0l10.2-8.3h2.3l-10.2 8.3H113zm3.1 0l10.2-8.3h2.3l-10.2 8.3h-2.3zm3 0l10.2-8.3h2.3l-10.2 8.3h-2.3zm3.2 0l10.2-8.3h2.2l-10.2 8.3h-2.2zm3 0l10.2-8.3h2.3l-10.2 8.3h-2.3zm3 0l10.2-8.3h2.3l-10.2 8.3h-2.3zm3.2 0l10.2-8.3h2.2l-10.2 8.3h-2.2zm3 0l10.2-8.3h2.4l-10.2 8.3h-2.4zm3.1 0l10.2-8.3h2.2l-10.2 8.3h-2.2zm3.1 0l10.2-8.3h2.2l-10.2 8.3h-2.2zm3 0l10.2-8.3h2.3L146 39.2h-2.3zm3.1 0L157 31h2.3l-10.2 8.3h-2.3zm3.1 0l10.2-8.3h2.3l-10.2 8.3h-2.3zm3.1 0l10.2-8.3h2.2l-10.2 8.3H153zm3 0l10.2-8.3h2.3l-10.2 8.3H156zm3 0l10.2-8.3h2.3l-10.2 8.3H159zm3.2 0l10.2-8.3h2.2l-10.2 8.3h-2.2zm3 0l10.2-8.3h2.3l-10.2 8.3h-2.3zm3.1 0l10.2-8.3h2.3l-10.2 8.3h-2.3zm3.1 0l10.2-8.3h2.2l-10.2 8.3h-2.2zm3 0l10.2-8.3h2.3l-10.2 8.3h-2.3zm3.1 0l10.2-8.3h2.3l-10.2 8.3h-2.3zm3.1 0l10.2-8.3h2.2l-10.2 8.3h-2.2zm3 0l10.2-8.3h2.3l-10.2 8.3h-2.3zm3.1 0l10.2-8.3h2.3L189 39.2h-2.3zm3 0l10.2-8.3h2.3L192 39.2h-2.3zm13.5 0H202l1.2-1v1zm0-1.5l-2 1.6H199l4.3-3.5v1.9zm0-2.6l-5.1 4.1h-2.3l7.4-6v1.9zm0-2.5l-8.2 6.6h-2.2l10.2-8.3h.2v1.7zM31.9 189.3c-.3-.5-.6-.9-1.1-1.2-.1-.1-.3-.2-.5-.3-.5-.4-1.2-.6-1.8-.7-.3-.1-.5-.1-.8-.1-.2 0-.5 0-.7.1-2 .3-3.6 1.8-4 3.8-.1.3-.1.5-.1.8v.2c0 .6.1 1.2.3 1.8.1.2.2.4.2.5a6.42 6.42 0 0 0 1 1.3l.4.4c.5.4 1.1.6 1.7.8.2.1.5.1.8.1h.3c2.4 0 4.4-1.8 4.8-4.1 0-.2.1-.5.1-.7v-.1c0-.7-.2-1.3-.4-1.9 0-.4-.1-.5-.2-.7zm-5-1.7l-3.2 2.6c.6-1.4 1.8-2.4 3.2-2.6zm-3.4 4.1c0-.2 0-.5.1-.7l4.4-3.6c.7 0 1.4.2 2 .6l-6.2 5c-.2-.3-.3-.8-.3-1.3zm.4 2l6.4-5.2c.4.3.8.8 1.1 1.2l-6.5 5.3a6.42 6.42 0 0 1-1-1.3zm4.3 2.2l3.6-2.9c-.6 1.6-2 2.8-3.6 2.9zm3.7-3.8c0 .1 0 .1 0 0l-4.7 3.8c-.7-.1-1.3-.3-1.9-.7l6.3-5.1c.2.5.3 1 .3 1.5.1.3.1.4 0 .5z" fill="#f21197"/><defs ><path id="B" d="M48.8 195.5c-.1-.1-.1-.3-.2-.6-.4.5-1 .7-1.6.7s-1.1-.2-1.5-.5-.6-.8-.6-1.3c0-.6.2-1.1.7-1.5.5-.3 1.2-.5 2.1-.5h.8v-.4c0-.3-.1-.6-.3-.8s-.4-.3-.8-.3c-.3 0-.6.1-.8.2-.2.2-.3.4-.3.6h-1.4c0-.3.1-.6.3-.9s.5-.5.9-.7.8-.2 1.3-.2c.7 0 1.3.2 1.7.5s.6.9.7 1.5v2.7a4.44 4.44 0 0 0 .2 1.3v.1l-1.2.1h0zm-1.5-1c.3 0 .5-.1.8-.2.2-.1.4-.3.5-.5v-1.1h-.7c-.5 0-.9.1-1.1.3-.3.2-.4.4-.4.7s.1.5.3.6c.1.2.3.2.6.2z"/><path id="C" d="M89.3 187.9v1.5h1.1v1h-1.1v3.4c0 .2 0 .4.1.5s.3.2.5.2.3 0 .5-.1v1.1c-.3.1-.6.1-.9.1-1 0-1.6-.6-1.6-1.7v-3.5h-1v-1h1v-1.5h1.4z"/><path id="D" d="M108.8 195.6c-.9 0-1.6-.3-2.1-.8s-.8-1.3-.8-2.2v-.2c0-.6.1-1.2.4-1.6s.6-.9 1-1.1.9-.4 1.4-.4c.8 0 1.5.3 1.9.8.5.5.7 1.3.7 2.2v.6h-4c0 .5.2.9.5 1.2s.7.4 1.1.4c.6 0 1.1-.3 1.5-.8l.7.7c-.2.4-.6.6-1 .8s-.8.4-1.3.4zm-.2-5.2c-.4 0-.7.1-.9.4s-.4.6-.4 1.1h2.6v-.1c0-.5-.2-.8-.4-1-.2-.3-.5-.4-.9-.4z"/><path id="E" d="M222.1 78.3H28.2c-.5 0-1 .4-1 1 0 .5.4 1 1 1h193.9c.6 0 1.1-.5 1-1 0-.5-.4-1-1-1z"/></defs></svg>