<svg xmlns="http://www.w3.org/2000/svg" xmlns:xlink="http://www.w3.org/1999/xlink" viewBox="0 0 250 209.7" xmlns:v="https://vecta.io/nano"><path d="M0 0h250v209.7H0z" fill="#f4f4f4"/><path d="M104.4 188.5h-2.6v7h-1.4v-7h-2.5v-1.1h6.5v1.1zm.9-.7c0-.2.1-.4.2-.5s.3-.2.6-.2.4.1.6.2c.1.1.2.3.2.5s-.1.4-.2.5-.3.2-.6.2-.4-.1-.6-.2c-.1-.1-.2-.2-.2-.5zm1.5 7.7h-1.4v-6.1h1.4v6.1zm3.2-7.6v1.5h1.1v1H110v3.4c0 .2 0 .4.1.5s.3.2.5.2.3 0 .5-.1v1.1c-.3.1-.6.1-.9.1-1 0-1.6-.6-1.6-1.7v-3.5h-1v-1h1v-1.5h1.4zm3.5 7.6h-1.4v-8.6h1.4v8.6zm4.2.1c-.9 0-1.6-.3-2.1-.8s-.8-1.3-.8-2.2v-.2c0-.6.1-1.2.4-1.6s.6-.9 1-1.1.9-.4 1.4-.4c.8 0 1.5.3 1.9.8.5.5.7 1.3.7 2.2v.6h-4c0 .5.2.9.5 1.2s.7.4 1.1.4c.6 0 1.1-.3 1.5-.8l.7.7c-.2.4-.6.6-1 .8s-.8.4-1.3.4zm-.2-5.2c-.4 0-.7.1-.9.4s-.4.6-.4 1.1h2.6v-.1c0-.5-.2-.8-.4-1-.2-.3-.5-.4-.9-.4zm8.1 2.1v3h-1.4v-8.2h3.1c.9 0 1.6.2 2.2.7.5.5.8 1.1.8 1.9s-.3 1.4-.8 1.9c-.5.4-1.3.7-2.2.7h-1.7 0zm0-1.2h1.7c.5 0 .9-.1 1.2-.4.3-.2.4-.6.4-1s-.1-.8-.4-1.1-.6-.4-1.1-.4h-1.8v2.9zm9.4 4.2c-.1-.1-.1-.3-.2-.6-.4.5-1 .7-1.6.7s-1.1-.2-1.5-.5-.6-.8-.6-1.3c0-.6.2-1.1.7-1.5.5-.3 1.2-.5 2.1-.5h.8v-.4c0-.3-.1-.6-.3-.8s-.4-.3-.8-.3c-.3 0-.6.1-.8.2-.2.2-.3.4-.3.6h-1.4c0-.3.1-.6.3-.9s.5-.5.9-.7.8-.2 1.3-.2c.7 0 1.3.2 1.7.5s.6.9.7 1.5v2.7a4.44 4.44 0 0 0 .2 1.3v.1l-1.2.1h0zm-1.5-1c.3 0 .5-.1.8-.2.2-.1.4-.3.5-.5v-1.1h-.7c-.5 0-.9.1-1.1.3-.3.2-.4.4-.4.7s.1.5.3.6c.1.2.3.2.6.2zm3.9-2.1c0-.9.2-1.7.7-2.3.4-.6 1-.9 1.8-.9.6 0 1.2.2 1.6.7v-3.1h1.4v8.6h-1.2l-.1-.6c-.4.5-1 .7-1.6.7-.7 0-1.3-.3-1.7-.9-.7-.4-.9-1.2-.9-2.2zm1.3.1c0 .6.1 1.1.4 1.4.2.3.6.5 1 .5.6 0 1-.2 1.2-.7v-2.6c-.3-.5-.7-.7-1.2-.7-.4 0-.8.2-1 .5-.2.4-.4.9-.4 1.6zm5.2-.1c0-.9.2-1.7.7-2.3.4-.6 1-.9 1.8-.9.6 0 1.2.2 1.6.7v-3.1h1.4v8.6H148l-.1-.6c-.4.5-1 .7-1.6.7-.7 0-1.3-.3-1.7-.9-.5-.4-.7-1.2-.7-2.2zm1.3.1c0 .6.1 1.1.4 1.4.2.3.6.5 1 .5.6 0 1-.2 1.2-.7v-2.6c-.3-.5-.7-.7-1.2-.7-.4 0-.8.2-1 .5-.2.4-.4.9-.4 1.6zm5.4-4.7c0-.2.1-.4.2-.5s.3-.2.6-.2c.2 0 .4.1.6.2.1.1.2.3.2.5s-.1.4-.2.5-.3.2-.6.2c-.2 0-.4-.1-.6-.2-.1-.1-.2-.2-.2-.5zm1.5 7.7h-1.4v-6.1h1.4v6.1zm2.7-6.1v.7c.5-.5 1-.8 1.8-.8 1.3 0 1.9.7 1.9 2.2v4h-1.4v-3.9c0-.4-.1-.7-.2-.9s-.4-.3-.8-.3c-.6 0-1 .2-1.2.7v4.3h-1.4v-6.1h1.3v.1zm4.9 3c0-.9.2-1.7.7-2.3.4-.6 1-.8 1.8-.8.7 0 1.2.2 1.6.7l.1-.6h1.2v5.9c0 .8-.2 1.4-.7 1.9s-1.2.7-2 .7a3.08 3.08 0 0 1-1.3-.3c-.4-.2-.7-.4-1-.7l.6-.8c.4.5.9.7 1.6.7.5 0 .8-.1 1.1-.4s.4-.6.4-1.1v-.3c-.4.4-.9.7-1.6.7s-1.3-.3-1.7-.8-.8-1.5-.8-2.5zm1.4.1c0 .6.1 1.1.4 1.4.2.4.6.5 1 .5.6 0 1-.2 1.2-.7V191c-.3-.5-.7-.7-1.2-.7s-.8.2-1 .5c-.3.5-.4 1.1-.4 1.7z" enable-background="new" fill="#231f20"/><g fill="#8796a1"><path d="M235.8 35.4h-50V16a1.58 1.58 0 0 0-1.6-1.6h-80.5a1.58 1.58 0 0 0-1.6 1.6v19.4h-5.5V16.3c0-1.2-.9-2.1-2.1-2.1H14c-1.2 0-2.1.9-2.1 2.1v150.8c0 1.3 1.1 2.4 2.4 2.4h221.5c1.3 0 2.4-1.1 2.4-2.4V37.7c-.1-1.3-1.1-2.3-2.4-2.3zm1.4 131.7c0 .9-.7 1.4-1.4 1.4H14.3c-.9 0-1.4-.7-1.4-1.4V16.3a1.11 1.11 0 0 1 1.1-1.1h80.5a1.11 1.11 0 0 1 1.1 1.1v19.6a.47.47 0 0 0 .5.5h6 83.6 50c.7 0 1.3.6 1.4 1.4v129.3z"/><circle cx="27.8" cy="25.8" r="4.7"/><path d="M83.6 23.7H43.1c-1.1 0-2 .9-2 2s.9 2 2 2h40.5c1 0 1.9-.9 2-2 0-1.1-.9-2-2-2z"/></g><g fill="#adbcc4"><path d="M28.2 52.3h193.9c.6 0 1.1-.4 1-1 0-.5-.4-1-1-1H28.2c-.5 0-1 .4-1 1 0 .5.4 1 1 1zm193.9 9.5H28.2c-.5 0-1 .4-1 1 0 .5.4 1 1 1h193.9c.6 0 1.1-.4 1-1 0-.5-.4-1-1-1z"/><use xlink:href="#B"/><use xlink:href="#B" y="11.5"/><path d="M139.2 98.3c.6 0 1.1-.5 1-1 0-.5-.4-1-1-1h-111c-.5 0-1 .4-1 1 0 .5.4 1 1 1h111z"/><use xlink:href="#B" y="44.4"/><use xlink:href="#B" y="55.9"/><use xlink:href="#B" y="67.4"/><path d="M168.9 152.2H28.2c-.5 0-1 .4-1 1 0 .5.4 1 1 1h140.7a1.08 1.08 0 0 0 1-1c0-.5-.4-1-1-1z"/></g><g fill="#fff"><circle cx="117.5" cy="25.8" r="4.7"/><path d="M173.2 23.7h-40.5c-1.1 0-2 .9-2 2s.9 2 2 2h40.5c1.1 0 2-.9 2-2s-.9-2-2-2z"/></g><g fill="#f21197"><path d="M164.2 37.7l-5.6 5.7 3.4.9-36.4 138.8L84.8 44.5l3.5-1-5.8-5.5-1.9 7.7 3.4-1 41.2 140c0 .2.2.3.4.3s.3-.1.4-.3l36.8-140.2 3.5.9-2.1-7.7zM93.6 189c-.3-.5-.6-.9-1.1-1.2-.1-.1-.3-.2-.5-.3-.5-.4-1.2-.6-1.8-.7-.3-.1-.5-.1-.8-.1-.2 0-.5 0-.7.1-2 .3-3.6 1.8-4 3.8-.1.3-.1.5-.1.8v.2c0 .6.1 1.2.3 1.8.1.2.2.4.2.5a6.42 6.42 0 0 0 1 1.3l.4.4c.5.4 1.1.6 1.7.8.2.1.5.1.8.1h.3c2.4 0 4.4-1.8 4.8-4.1 0-.2.1-.5.1-.7v-.1c0-.7-.2-1.3-.4-1.9 0-.4-.1-.5-.2-.7zm-5-1.7l-3.2 2.6c.6-1.4 1.8-2.4 3.2-2.6zm-3.4 4.1c0-.2 0-.5.1-.7l4.4-3.6c.7 0 1.4.2 2 .6l-6.2 5c-.2-.3-.3-.8-.3-1.3zm.4 2l6.4-5.2c.4.3.8.8 1.1 1.2l-6.5 5.3a6.42 6.42 0 0 1-1-1.3zm4.3 2.2l3.6-2.9c-.6 1.6-2 2.8-3.6 2.9zm3.7-3.8l-4.7 3.8c-.7-.1-1.3-.3-1.9-.7l6.3-5.1c.2.5.3 1 .3 1.5.1.3.1.4 0 .5zm-67.8-171H28h.9H31h.8 2.3.7H37h.9H40h.8H43h.8 2.3.7H49h.8H52h.8H55h.7 2.2.9 2.1.8H64h.8H67h.8 2.1.8 2.2.8 2.2.8 2.1.8 2.2.8 1.6v-1.3-.6V17v-.7-.5h-1.6-.8-2.2-.8-2.2-.8-2.1-.7-2.2-.8-2.2-.8-2.1-.9-2.2-.8-2.2-.8-2.1-.9-2.2-.7-2.2-.9-2.2-.8-2.1-.9-2.1-.7-2.3-.9-2.1-.9-2.2-.7-2.2-.8H26h-.9-.9v.7.7V19v.6 1.1h.9.7zm58-.5h-.5l.5-.4v.4zm0-1.1l-1.3 1.1h-2.2l3.5-3v1.9zm-1.7-2.9h1.7v.4l-4.3 3.6h-2.1l4.7-4zm-3 0h2.2l-4.8 4h-2.2l4.8-4zm-3 0h2.2l-4.8 4h-2.2l4.8-4zm-3 0h2.1l-4.8 4h-2.1l4.8-4zm-3 0h2.2l-4.8 4h-2.2l4.8-4zm-3 0h2.2l-4.8 4h-2.2l4.8-4zm-2.9 0h2.1l-4.8 4h-2.1l4.8-4zm-3.1 0h2.2l-4.8 4h-2.2l4.8-4zm-3 0h2.2l-4.8 4h-2.2l4.8-4zm-2.9 0h2.1l-4.8 4h-2.1l4.8-4zm-3 0h2.2l-4.8 4h-2.2l4.8-4zm-2.9 0h2.3l-4.8 4h-2.3l4.8-4zm-3.1 0h2.2l-4.8 4h-2.2l4.8-4zm-3 0h2.1l-4.8 4h-2.1l4.8-4zm-3 0h2.1l-4.8 4h-2.1l4.8-4zm-3 0h2.3l-4.8 4h-2.3l4.8-4zm-2.9 0h2.1l-4.8 4h-2.1l4.8-4zm-3.1 0h2.2l-4.8 4h-2.2l4.8-4zm-6.5.6l.7-.6h2.1l-2.8 2.3v-1.7zm0 2.4l3.6-3h2.2l-4.8 4h-1v-1zm58 16.5h1.6v-1.3-.6V32v-.7-.5h-1.6-.8-2.2-.8-2.2-.8-2.1-.8-2.2-.8-2.2-.8-2.1-.9-2.2-.8-2.2-.8-2.1-.9-2.2-.7-2.2-.9-2.2-.8-2.1-.9-2.1-.7-2.3-.9-2.1-.9-2.2-.7-2.2-.8H26h-.9-.9v.7.7V34v.6 1.1h.9.7H28h.9H31h.8 2.3.7H37h.9H40h.8H43h.8 2.3.7H49h.8H52h.8H55h.7 2.2.9 2.1.8H64h.8H67h.8 2.1.8 2.2.8 2.2.8 2.1.8 2.2.9zm1.1-.5h-.5l.5-.4v.4zm-59.1-3.4l.7-.6h2.1l-2.8 2.3v-1.7zm1 3.4h-1v-1l3.6-3h2.2l-4.8 4zm2.9 0h-2.2l4.8-4h2.2l-4.8 4zm3 0h-2.1l4.8-4h2.1l-4.8 4zm3.2 0h-2.3l4.8-4h2.3l-4.8 4zm2.8 0h-2.1l4.8-4h2.1l-4.8 4zm3 0h-2.1l4.8-4h2.1l-4.8 4zm3 0h-2.2l4.8-4h2.2l-4.8 4zm3.2 0h-2.3l4.8-4h2.3l-4.8 4zm2.9 0h-2.2l4.8-4h2.2l-4.8 4zm2.9 0h-2.1l4.8-4h2.1l-4.8 4zm3 0h-2.2l4.8-4h2.2l-4.8 4zm2.9 0h-2.2l4.8-4h2.2l-4.8 4zm3 0h-2.1l4.8-4h2.1l-4.8 4zm3.1 0h-2.2l4.8-4h2.2l-4.8 4zm3 0h-2.2l4.8-4h2.2l-4.8 4zm2.9 0h-2.1l4.8-4h2.1l-4.8 4zm3 0h-2.2l4.8-4h2.2l-4.8 4zm3 0h-2.2l4.8-4h2.2l-4.8 4zm3 0h-2.1l4.8-4h1.7v.4l-4.4 3.6zm4.3-2.9v1.9l-1.3 1.1h-2.2l3.5-3zm87.8-16.6h-2.2-.8-2.2-.8-2.1-.8-2.2-.8-2.2-.8-2.1-.9-2.2-.7-2.2-.8-2.1-.8-2.2-.7-2.2-.9-2.2-.8-2.1-.9-2.1-.7-2.3-.8-2.1-.9-2.2-.7-2.2-.8-2.1-.9-.9v.7.7V19v.6 1.1h.9.7 2.2.9 2.1.8 2.3.7 2.1.9 2.1.8 2.2.8 2.3.7 2.2.8 2.1.8 2.2.7 2.2.9 2.1.8 2.2.8 2.2.8 2.1.8 2.2.8 2.2.8 2.1.8 2.2.8 1.6v-1.3-.6-1.9-.7-.5h-1.6-.7zm-57.3 1.1l.7-.6h2.1l-2.8 2.3v-1.7zm1 3.4h-1v-1l3.6-3h2.2l-4.8 4zm3 0H116l4.8-4h2.2l-4.7 4zm3 0h-2.1l4.8-4h2.1l-4.8 4zm3.1 0h-2.3l4.8-4h2.3l-4.8 4zm2.8 0h-2.1l4.8-4h2.1l-4.8 4zm3 0h-2.1l4.8-4h2.1l-4.8 4zm3.1 0H131l4.8-4h2.2l-4.7 4zm3.1 0h-2.3l4.8-4h2.3l-4.8 4zm2.9 0h-2.2l4.8-4h2.2l-4.8 4zm2.9 0h-2.1l4.8-4h2.1l-4.8 4zm3 0H143l4.8-4h2.2l-4.8 4zm3 0H146l4.8-4h2.2l-4.8 4zm3 0H149l4.8-4h2.1l-4.7 4zm3 0H152l4.8-4h2.2l-4.8 4zm3 0H155l4.8-4h2.2l-4.8 4zm2.9 0H158l4.8-4h2.1l-4.8 4zm3.1 0H161l4.8-4h2.2l-4.8 4zm3 0H164l4.8-4h2.2l-4.8 4zm7.2 0h-.5l.5-.4v.4zm0-1.1l-1.3 1.1h-2.2l3.5-3v1.9zm0-2.5l-4.3 3.6H167l4.8-4h1.7v.4z"/><path d="M171.6 30.8h-2.2-.8-2.2-.8-2.1-.8-2.2-.8-2.2-.8-2.1-.9-2.2-.7-2.2-.8-2.1-.8-2.2-.7-2.2-.9-2.2-.8-2.1-.9-2.1-.7-2.3-.8-2.1-.9-2.2-.7-2.2-.8-2.1-.9-.9v.7.7V34v.6 1.1h.9.7 2.2.9 2.1.8 2.3.7 2.1.9 2.1.8 2.2.8 2.3.7 2.2.8 2.1.8 2.2.7 2.2.9 2.1.8 2.2.8 2.2.8 2.1.8 2.2.8 2.2.8 2.1.8 2.2.8 1.6v-1.3-.6V32v-.7-.5h-1.6-.7zm-57.3 1.1l.7-.6h2.1l-2.8 2.3v-1.7zm1 3.4h-1v-1l3.6-3h2.2l-4.8 4zm3 0H116l4.8-4h2.2l-4.7 4zm3 0h-2.1l4.8-4h2.1l-4.8 4zm3.1 0h-2.3l4.8-4h2.3l-4.8 4zm2.8 0h-2.1l4.8-4h2.1l-4.8 4zm3 0h-2.1l4.8-4h2.1l-4.8 4zm3.1 0H131l4.8-4h2.2l-4.7 4zm3.1 0h-2.3l4.8-4h2.3l-4.8 4zm2.9 0h-2.2l4.8-4h2.2l-4.8 4zm2.9 0h-2.1l4.8-4h2.1l-4.8 4zm3 0H143l4.8-4h2.2l-4.8 4zm3 0H146l4.8-4h2.2l-4.8 4zm3 0H149l4.8-4h2.1l-4.7 4zm3 0H152l4.8-4h2.2l-4.8 4zm3 0H155l4.8-4h2.2l-4.8 4zm2.9 0H158l4.8-4h2.1l-4.8 4zm3.1 0H161l4.8-4h2.2l-4.8 4zm3 0H164l4.8-4h2.2l-4.8 4zm7.2 0h-.5l.5-.4v.4zm0-1.1l-1.3 1.1h-2.2l3.5-3v1.9zm0-2.5l-4.3 3.6H167l4.8-4h1.7v.4zm-160-10.5v1.7.7 2.1.7 2 .7 1.3.3h9.5v-.3-1.6-.7V26v-.6-2.1-.7-1.4-.2h-9.5v.2zm9 9.1h-1.1l1.1-1v1zm0-1.7l-1.9 1.7h-2.3l4.2-3.8v2.1zm0-2.7l-4.9 4.4h-2.3l7.2-6.5v2.1zm-8.5-4.3h1l-1 .9v-.9zm0 1.6l1.8-1.6H18l-4 3.7v-2.1zm0 2.8l4.8-4.4h2.2l-7 6.4v-2zm0 2.7l7.8-7.1h.7v1.5l-8 7.2h-.5v-1.6z"/><use xlink:href="#C"/><use xlink:href="#C" x="17"/><path d="M175.6 21.1v.2V23v.7 2.1.7 2 .7 1.3.3h9.5v-.3-1.6-.7-2.1-.6-2.1-.7-1.4-.2h-9.5zm.5.5h1l-1 .9v-.9zm0 1.6l1.8-1.6h2.3l-4 3.7v-2.1zm0 2.8l4.8-4.4h2.2l-7 6.4v-2zm8.5 4.3h-1.1l1.1-1v1zm0-1.7l-1.9 1.7h-2.3l4.2-3.8v2.1zm0-2.7l-4.9 4.4h-2.3l7.2-6.5v2.1zm0-2.8l-8 7.2h-.5v-1.6l7.8-7.1h.7v1.5z"/></g><defs ><path id="B" d="M222.1 73.3H28.2c-.5 0-1 .4-1 1 0 .5.4 1 1 1h193.9c.6 0 1.1-.5 1-1 0-.5-.4-1-1-1z"/><path id="C" d="M95.3 30.5v-1.6-.7-2.1-.6-2.1-.7-1.4-.2h-9.5v.2V23v.7 2.1.7 2 .7 1.3.3h9.5v-.3zm-9-8.9h1l-1 .9v-.9zm0 1.6l1.8-1.6h2.3l-4 3.7v-2.1zm0 2.8l4.8-4.4h2.2l-7 6.4v-2zm8.5 4.3h-1.1l1.1-1v1zm0-1.7l-1.9 1.7h-2.3l4.2-3.8v2.1zm0-2.7l-4.9 4.4h-2.3l7.2-6.5v2.1zm0-2.8l-8 7.2h-.5v-1.6l7.8-7.1h.7v1.5z"/></defs></svg>