<svg xmlns="http://www.w3.org/2000/svg" xmlns:xlink="http://www.w3.org/1999/xlink" viewBox="0 0 250 209.7" xmlns:v="https://vecta.io/nano"><path d="M0 0h250v209.7H0z" fill="#f4f4f4"/><g fill="#adbcc4"><path d="M28.2 52.3h193.9c.6 0 1.1-.4 1-1 0-.5-.4-1-1-1H28.2c-.5 0-1 .4-1 1 0 .5.4 1 1 1zm193.9 9.5H28.2c-.5 0-1 .4-1 1 0 .5.4 1 1 1h193.9c.6 0 1.1-.4 1-1 0-.5-.4-1-1-1z"/><use xlink:href="#F"/><use xlink:href="#F" y="11.5"/><path d="M139.2 98.3c.6 0 1.1-.5 1-1 0-.5-.4-1-1-1h-111c-.5 0-1 .4-1 1 0 .5.4 1 1 1h111z"/><use xlink:href="#F" y="44.4"/><use xlink:href="#F" y="55.9"/><use xlink:href="#F" y="67.4"/><path d="M168.9 152.2H28.2c-.5 0-1 .4-1 1 0 .5.4 1 1 1h140.7a1.08 1.08 0 0 0 1-1c0-.5-.4-1-1-1z"/></g><g enable-background="new" fill="#231f20"><path d="M70.2 195.6c-.6 0-1.2-.1-1.8-.3s-1-.4-1.4-.7l.5-1.2c.3.3.7.5 1.2.6.5.2 1 .3 1.5.3.4 0 .8 0 1-.1.3-.1.5-.2.6-.4s.2-.3.2-.5-.1-.4-.3-.6-.4-.3-.7-.4-.6-.2-.9-.2l-1-.3c-.3-.1-.7-.2-.9-.4-.3-.2-.5-.4-.7-.7s-.3-.6-.3-1.1a1.92 1.92 0 0 1 .4-1.2c.2-.4.6-.7 1.1-.9s1.1-.3 1.8-.3c.5 0 1 .1 1.4.2s.9.3 1.2.5l-.5 1.2c-.4-.2-.7-.4-1.1-.5s-.8-.2-1.1-.2c-.4 0-.8 0-1 .1s-.4.2-.6.4c-.1.2-.2.3-.2.6 0 .2.1.4.3.6.2.1.4.3.7.4s.6.2.9.2l1 .3c.3.1.7.2.9.4s.5.4.7.7a1.69 1.69 0 0 1 .3 1 1.92 1.92 0 0 1-.4 1.2c-.3.4-.6.7-1.1.9-.4.3-1 .4-1.7.4zm7.3 0c-.6 0-1.2-.1-1.7-.4s-.9-.6-1.2-1.1-.4-1-.4-1.6.1-1.2.4-1.6.7-.8 1.2-1.1 1.1-.4 1.7-.4 1.2.1 1.7.4.9.6 1.2 1.1.4 1 .4 1.6-.1 1.1-.4 1.6-.7.9-1.2 1.1c-.5.3-1 .4-1.7.4zm0-1.2c.4 0 .7-.1.9-.2.3-.2.5-.4.7-.7s.2-.6.2-1-.1-.7-.2-1c-.2-.3-.4-.5-.7-.7s-.6-.2-.9-.2c-.4 0-.7.1-.9.2-.3.2-.5.4-.7.7s-.2.6-.2 1 .1.7.2 1 .4.5.7.7.6.2.9.2zm4.7 1.1V187h1.4v8.6h-1.4v-.1zm4.1-7.2c-.3 0-.5-.1-.7-.3s-.3-.4-.3-.6.1-.5.3-.6c.2-.2.4-.2.7-.2s.5.1.7.2c.2.2.3.4.3.6 0 .3-.1.5-.3.6-.2.3-.5.3-.7.3zm-.8 7.2v-6.2H87v6.2h-1.5z"/><use xlink:href="#G"/></g><linearGradient id="A" gradientUnits="userSpaceOnUse" x1="146.2" y1="25.55" x2="203.6" y2="25.55"><stop offset="0" stop-color="#43cea2"/><stop offset="1" stop-color="#1f6c9e"/></linearGradient><path d="M203.6,36.4v-1V16.3c0-0.9-0.7-1.6-1.6-1.6h-54.2c-0.9,0-1.6,0.7-1.6,1.6v19.1v1H203.6z" fill="url(#A)"/><g fill="#f21197"><path d="M135.1 14.7H80.9a1.58 1.58 0 0 0-1.6 1.6v19.1 1h57.4v-1-19.1a1.58 1.58 0 0 0-1.6-1.6zM108 39.8l-5.4 5.9 3.5.8L76.9 181l.8.2 29.1-134.6 3.6.8z"/><circle cx="58.6" cy="191.8" r="4.5"/></g><g fill="#fff"><circle cx="90.7" cy="25.6" r="4.7"/><path d="M128 27.6h-21.3c-1.1 0-2-.9-2-2h0c0-1.1.9-2 2-2H128c1.1 0 2 .9 2 2h0c-.1 1.1-1 2-2 2z"/><circle cx="157.7" cy="25.6" r="4.7"/><path d="M194.9 27.6h-21.2c-1.1 0-2-.9-2-2h0c0-1.1.9-2 2-2h21.2c1.1 0 2 .9 2 2h0c-.1 1.1-1 2-2 2z"/></g><g fill="#8796a1"><path d="M235.7 35.4H71.6c-.7 0-1.3-.6-1.3-1.4V16.6c0-1.3-1.1-2.4-2.4-2.4H14.2c-1.3 0-2.4 1.1-2.4 2.4v150.5c0 1.3 1.1 2.4 2.4 2.4h221.5c1.3 0 2.4-1.1 2.4-2.4V37.8c0-1.3-1.1-2.4-2.4-2.4zm1.4 131.7c0 .9-.7 1.4-1.4 1.4H14.2c-.9 0-1.4-.7-1.4-1.4V16.6c0-.9.7-1.4 1.4-1.4h53.7c.9 0 1.4.7 1.4 1.4V34c0 1.3 1 2.4 2.3 2.4h164.1c.9 0 1.4.7 1.4 1.4v129.3z"/><circle cx="22.5" cy="25.6" r="4.7"/><path d="M59.7 23.6H38.5c-1.1 0-2 .9-2 2s.9 2 2 2h21.2c1 0 1.9-.9 2-2 0-1.1-.9-2-2-2z"/></g><linearGradient id="B" gradientUnits="userSpaceOnUse" x1="165.601" y1="113.35" x2="175.999" y2="113.35"><stop offset="0" stop-color="#43cea2"/><stop offset="1" stop-color="#1f6c9e"/></linearGradient><path d="M 166 181.1 L 175.6 45.6" fill="none" stroke="url(#B)" stroke-width=".8" stroke-miterlimit="10"/><linearGradient id="C" gradientUnits="userSpaceOnUse" x1="171.6" y1="43.4" x2="179.5" y2="43.4"><stop offset="0" stop-color="#43cea2"/><stop offset="1" stop-color="#1f6c9e"/></linearGradient><path d="M179.5 47l-3.5-7.2-4.4 6.6z" fill="url(#C)"/><g enable-background="new" fill="#231f20"><path d="M150.2 195.6c-.6 0-1.2-.1-1.7-.3s-1-.5-1.4-.9-.7-.8-.9-1.3-.3-1.1-.3-1.7.1-1.2.3-1.7.5-.9.9-1.3.9-.7 1.4-.9 1.1-.3 1.7-.3c.7 0 1.3.1 1.8.3s1 .5 1.4 1l-.9.9c-.3-.3-.7-.5-1-.7-.4-.2-.8-.2-1.2-.2s-.8.1-1.2.2-.7.3-.9.6c-.3.3-.5.6-.6.9s-.2.7-.2 1.1.1.8.2 1.1.3.6.6.9.6.5.9.6c.4.1.7.2 1.2.2.4 0 .8-.1 1.2-.2s.7-.3 1.1-.6l.9 1.1a5.3 5.3 0 0 1-1.5.8c-.7.3-1.2.4-1.8.4zm1.7-1.2v-3h1.4v3.2l-1.4-.2zm3.3 1.1v-6.2h1.4v1.7l-.2-.5a1.96 1.96 0 0 1 .9-.9c.4-.2.9-.3 1.5-.3v1.4h-.2-.2c-.5 0-1 .2-1.3.5s-.5.8-.5 1.4v3l-1.4-.1h0zm6.2.1a3.73 3.73 0 0 1-1.2-.2c-.3-.1-.6-.4-.8-.7a1.69 1.69 0 0 1-.3-1 2.39 2.39 0 0 1 .2-.9 1.85 1.85 0 0 1 .8-.7c.4-.2.9-.2 1.5-.2h1.8v1h-1.7c-.5 0-.8.1-1 .2-.2.2-.3.4-.3.6 0 .3.1.5.3.6.2.2.5.2.9.2s.7-.1 1-.2.5-.4.6-.7l.2.9c-.1.4-.4.6-.7.8s-.8.3-1.3.3zm1.9-.1v-1.2l-.1-.3v-2.2c0-.4-.1-.8-.4-1s-.6-.4-1.2-.4c-.3 0-.7.1-1 .2s-.6.3-.8.4l-.6-1c.3-.3.7-.4 1.2-.6s.9-.2 1.4-.2c.9 0 1.6.2 2.1.6s.7 1.1.7 2v3.6l-1.3.1h0z"/><use xlink:href="#G" x="77.7"/><path d="M175.2 188.3c-.3 0-.5-.1-.7-.3s-.3-.4-.3-.6.1-.5.3-.6c.2-.2.4-.2.7-.2s.5.1.7.2c.2.2.3.4.3.6 0 .3-.1.5-.3.6-.2.3-.4.3-.7.3zm-.7 7.2v-6.2h1.4v6.2h-1.4zm6.2.1c-.7 0-1.3-.1-1.8-.4s-.9-.6-1.2-1.1-.4-1-.4-1.6.1-1.2.4-1.6c.3-.5.6-.8 1.1-1.1s1-.4 1.6-.4 1.1.1 1.6.4.8.6 1.1 1.1.4 1 .4 1.7v.2.2h-5.1v-1h4.4l-.6.3c0-.4-.1-.7-.2-.9-.2-.3-.4-.5-.6-.6-.3-.2-.6-.2-.9-.2-.4 0-.7.1-.9.2-.3.2-.5.4-.6.6-.1.3-.2.6-.2 1v.2a1.69 1.69 0 0 0 .3 1c.2.3.4.5.7.7s.7.2 1.1.2a2.39 2.39 0 0 0 .9-.2c.3-.1.5-.3.7-.5l.8.9c-.3.3-.6.6-1 .7s-1.1.2-1.6.2zm7.8-6.3c.5 0 .9.1 1.3.3a1.96 1.96 0 0 1 .9.9c.2.4.3.9.3 1.5v3.5h-1.4v-3.3c0-.5-.1-1-.4-1.2-.3-.3-.6-.4-1.1-.4-.3 0-.6.1-.9.2a.9.9 0 0 0-.6.6c-.1.3-.2.6-.2 1v3.1H185v-6.2h1.4v1.7l-.2-.5a1.96 1.96 0 0 1 .9-.9c.4-.2.8-.3 1.4-.3zm3.5 1.3v-1.2h4.1v1.2H192zm3.2 5c-.7 0-1.2-.2-1.6-.5s-.6-.9-.6-1.6V188h1.4v5.5c0 .3.1.5.2.7s.4.2.6.2c.3 0 .6-.1.8-.3l.4 1-.6.3c-.1.2-.4.2-.6.2z"/></g><linearGradient id="D" gradientUnits="userSpaceOnUse" x1="135.756" y1="195.387" x2="138.981" y2="188.351"><stop offset="0" stop-color="#43cea2"/><stop offset="1" stop-color="#1f6c9e"/></linearGradient><circle cx="137.4" cy="191.8" r="4.5" fill="url(#D)"/><defs ><path id="F" d="M222.1 73.3H28.2c-.5 0-1 .4-1 1 0 .5.4 1 1 1h193.9c.6 0 1.1-.5 1-1 0-.5-.4-1-1-1z"/><path id="G" d="M91.5 195.6c-.6 0-1.1-.1-1.6-.4s-.8-.6-1.1-1.1-.4-1-.4-1.7.1-1.2.4-1.7.6-.8 1.1-1.1 1-.4 1.6-.4c.5 0 1 .1 1.4.3s.7.6 1 1 .4 1.1.4 1.8-.1 1.3-.3 1.8a1.65 1.65 0 0 1-1 1c-.5.4-1 .5-1.5.5zm.1-1.2a2.39 2.39 0 0 0 .9-.2c.3-.2.5-.4.7-.7s.2-.6.2-1-.1-.7-.2-1c-.2-.3-.4-.5-.7-.7s-.6-.2-.9-.2a2.39 2.39 0 0 0-.9.2c-.3.2-.5.4-.7.7s-.2.6-.2 1 .1.7.2 1 .4.5.7.7c.3.1.6.2.9.2zm1.9 1.1V194l.1-1.6-.1-1.6V187h1.4v8.6h-1.4v-.1z"/></defs></svg>