<?xml version="1.0" encoding="UTF-8"?><svg id="uuid-89cf51a6-f136-4179-9ca0-ad27c394ce37" xmlns="http://www.w3.org/2000/svg" viewBox="0 0 96 96"><rect width="96" height="96" fill="none"/><path d="m86.566,81.554c.53.53.541,1.412.011,1.953l-6.952,7.084c-.265.276-.607.408-.949.408-.353,0-.695-.132-.96-.408l-9.302-9.49c-.265-.276-.607-.408-.949-.408-.497,0-.982.276-1.214.783l-3.399,7.117c-.243.519-.728.772-1.203.772-.552,0-1.092-.331-1.291-.971l-5.01-16.452-4.039-13.241-1.048-3.454c-.276-.916.419-1.788,1.28-1.788.132,0,.276.022.408.066l15.989,5.076,16.53,5.241c1.159.375,1.291,1.997.199,2.549l-7.051,3.575c-.739.375-.971,1.313-.541,1.975.044.088.11.166.188.243l9.302,9.368ZM96,6.103v66.207c0,.618-.497,1.103-1.103,1.103h-11.421l3.189-1.622c2.108-1.059,3.343-3.277,3.145-5.628-.188-2.361-1.766-4.348-4.006-5.054l-12.855-4.083c.971-1.28,1.534-2.858,1.534-4.579,0-4.248-3.476-7.724-7.724-7.724H29.241c-2.119,0-4.061.872-5.451,2.273-1.401,1.401-2.273,3.321-2.273,5.451,0,4.248,3.476,7.724,7.724,7.724h17.457l4.028,13.241H1.103c-.607,0-1.103-.486-1.103-1.103V6.103c0-.607.497-1.103,1.103-1.103h93.793c.607,0,1.103.497,1.103,1.103Zm-14.897,21.514H14.897v6.621h66.207v-6.621Zm0-14.345H14.897v6.621h66.207v-6.621Z" fill="#fff"/></svg>