<?xml version="1.0" standalone="no"?>
<!DOCTYPE svg PUBLIC "-//W3C//DTD SVG 1.1//EN" "http://www.w3.org/Graphics/SVG/1.1/DTD/svg11.dtd" >
<svg xmlns="http://www.w3.org/2000/svg">
<metadata>Generated by IcoMoon</metadata>
<defs>
<font id="wpfs-admin" horiz-adv-x="1024">
<font-face units-per-em="1024" ascent="960" descent="-64" />
<missing-glyph horiz-adv-x="1024" />
<glyph unicode="&#x20;" horiz-adv-x="512" d="" />
<glyph unicode="&#xe900;" glyph-name="stripe" d="M440.32 652.8c0 46.080 35.84 61.44 97.28 61.44 87.040 0 194.56-25.6 276.48-71.68v266.24c-92.16 35.84-184.32 51.2-276.48 51.2-230.4 0-384-117.76-384-317.44 0-312.32 424.96-261.12 424.96-394.24 0-51.2-46.080-66.56-107.52-66.56-92.16 0-209.92 35.84-307.2 92.16v-266.24c102.4-46.080 209.92-66.56 307.2-66.56 235.52 0 394.24 117.76 394.24 317.44 0 327.68-424.96 271.36-424.96 394.24z" />
<glyph unicode="&#xe901;" glyph-name="spinner" d="M768 12.8c-12.8 21.333-4.267 42.667 12.8 59.733 93.867 76.8 157.867 196.267 157.867 332.8 0 234.667-192 426.667-426.667 426.667s-426.667-192-426.667-426.667c0-123.733 51.2-234.667 132.267-311.467 17.067-12.8 21.333-38.4 8.533-55.467-12.8-21.333-42.667-29.867-64-12.8-98.133 93.867-162.133 230.4-162.133 379.733 0 281.6 230.4 512 512 512s512-230.4 512-512c0-166.4-76.8-311.467-200.533-405.333-17.067-12.8-46.933-8.533-55.467 12.8z" />
<glyph unicode="&#xe902;" glyph-name="announcement" d="M286.72 268.8h-92.16c-51.2 0-102.4 20.48-138.24 56.32s-56.32 87.040-56.32 138.24c0 51.2 20.48 102.4 56.32 138.24s87.040 56.32 138.24 56.32h97.28c15.36 10.24 35.84-5.12 35.84-30.72v-322.56c0-15.36-20.48-35.84-40.96-35.84zM194.56 591.36c-30.72 0-61.44-15.36-87.040-35.84-20.48-20.48-35.84-51.2-35.84-87.040 0-30.72 10.24-61.44 35.84-87.040 20.48-20.48 51.2-35.84 87.040-35.84h56.32v245.76h-56.32zM865.28 79.36c-5.12 0-15.36 0-20.48 5.12l-46.080 30.72c-148.48 102.4-327.68 153.6-506.88 153.6-20.48 0-40.96 15.36-40.96 40.96v317.44c0 20.48 15.36 40.96 40.96 40.96 179.2 0 358.4 51.2 506.88 153.6l46.080 30.72c10.24 10.24 25.6 10.24 40.96 0 10.24-5.12 20.48-20.48 20.48-35.84v-701.44c0-15.36-10.24-25.6-20.48-35.84-10.24 0-15.36 0-20.48 0zM327.68 345.6c179.2-5.12 348.16-61.44 501.76-158.72v563.2c-148.48-97.28-322.56-153.6-501.76-158.72v-245.76zM993.28 366.080c-20.48 0-40.96 15.36-40.96 40.96v128c0 20.48 15.36 40.96 40.96 40.96s40.96-15.36 40.96-40.96v-128c-5.12-20.48-20.48-40.96-40.96-40.96zM384 48.64c-10.24 0-20.48 5.12-25.6 10.24-35.84 30.72-61.44 71.68-81.92 112.64s-25.6 92.16-25.6 138.24c0 20.48 15.36 40.96 40.96 40.96v0c20.48 0 40.96-15.36 35.84-40.96 0-35.84 5.12-71.68 20.48-107.52s35.84-61.44 61.44-87.040c15.36-15.36 15.36-40.96 0-56.32-5.12-10.24-15.36-10.24-25.6-10.24z" />
<glyph unicode="&#xe903;" glyph-name="cancel" d="M512-69.12c-286.72 0-517.12 230.4-517.12 517.12s230.4 517.12 517.12 517.12c286.72 0 517.12-230.4 517.12-517.12s-230.4-517.12-517.12-517.12zM512 888.32c-245.76 0-440.32-199.68-440.32-440.32 0-245.76 199.68-440.32 440.32-440.32 245.76 0 440.32 199.68 440.32 440.32 0 245.76-194.56 440.32-440.32 440.32zM317.44 217.6c-10.24 0-20.48 5.12-25.6 10.24-15.36 15.36-15.36 40.96 0 56.32l384 384c15.36 15.36 40.96 15.36 56.32 0s15.36-40.96 0-56.32l-384-384c-10.24-5.12-20.48-10.24-30.72-10.24zM701.44 217.6c-10.24 0-20.48 5.12-25.6 10.24l-384 384c-15.36 15.36-15.36 40.96 0 56.32s40.96 15.36 56.32 0l384-384c15.36-15.36 15.36-40.96 0-56.32-10.24-5.12-20.48-10.24-30.72-10.24z" />
<glyph unicode="&#xe904;" glyph-name="card" d="M-5.12 652.8h1034.24v-81.92h-1034.24v81.92zM926.72 58.88h-829.44c-56.32 0-102.4 46.080-102.4 102.4v573.44c0 56.32 46.080 102.4 102.4 102.4h829.44c56.32 0 102.4-46.080 102.4-102.4v-578.56c0-51.2-46.080-97.28-102.4-97.28zM97.28 760.32c-15.36 0-25.6-10.24-25.6-25.6v-578.56c0-15.36 10.24-25.6 25.6-25.6h829.44c15.36 0 25.6 10.24 25.6 25.6v578.56c0 15.36-10.24 25.6-25.6 25.6h-829.44zM573.44 376.32h-348.16c-20.48 0-40.96 15.36-40.96 35.84s15.36 40.96 40.96 40.96h353.28c20.48 0 40.96-15.36 40.96-40.96-5.12-15.36-20.48-35.84-46.080-35.84zM450.56 248.32h-225.28c-20.48 0-40.96 15.36-40.96 40.96s15.36 40.96 40.96 40.96h225.28c20.48 0 40.96-15.36 40.96-40.96s-20.48-40.96-40.96-40.96z" />
<glyph unicode="&#xe905;" glyph-name="check" d="M399.36 186.88c0 0-5.12 0 0 0-15.36 5.12-30.72 5.12-40.96 10.24s-20.48 15.36-30.72 25.6l-102.4 148.48c-10.24 15.36-10.24 40.96 10.24 51.2 15.36 10.24 40.96 10.24 51.2-10.24l107.52-153.6c0 0 5.12 5.12 5.12 5.12l332.8 424.96c15.36 15.36 35.84 20.48 56.32 5.12 15.36-15.36 20.48-35.84 5.12-56.32l-332.8-424.96c-5.12-10.24-20.48-20.48-30.72-25.6-10.24 5.12-20.48 0-30.72 0z" />
<glyph unicode="&#xe906;" glyph-name="checkmark" d="M512-69.12c-286.72 0-517.12 230.4-517.12 517.12s230.4 517.12 517.12 517.12 517.12-230.4 517.12-517.12c0-286.72-230.4-517.12-517.12-517.12zM512 888.32c-245.76 0-440.32-199.68-440.32-440.32 0-245.76 199.68-440.32 440.32-440.32s440.32 199.68 440.32 440.32c0 245.76-194.56 440.32-440.32 440.32zM399.36 186.88c0 0-5.12 0 0 0-15.36 5.12-30.72 5.12-40.96 10.24s-20.48 15.36-30.72 25.6l-102.4 148.48c-10.24 15.36-10.24 40.96 10.24 51.2 15.36 10.24 40.96 10.24 51.2-10.24l107.52-153.6c0 0 5.12 5.12 5.12 5.12l332.8 424.96c15.36 15.36 35.84 20.48 56.32 5.12 15.36-15.36 20.48-35.84 5.12-56.32l-332.8-424.96c-5.12-10.24-20.48-20.48-30.72-25.6-10.24 5.12-20.48 0-30.72 0z" />
<glyph unicode="&#xe907;" glyph-name="chevron" d="M491.52 284.16c-5.12 0-15.36 0-20.48 5.12s-15.36 5.12-20.48 10.24l-271.36 276.48c-15.36 15.36-15.36 40.96 0 56.32s40.96 15.36 56.32 0l261.12-261.12 261.12 261.12c15.36 15.36 40.96 15.36 56.32 0s15.36-40.96 0-56.32l-276.48-276.48c-5.12-5.12-10.24-10.24-20.48-10.24-10.24-5.12-15.36-5.12-25.6-5.12z" />
<glyph unicode="&#xe908;" glyph-name="close" d="M921.6-53.76c-10.24 0-20.48 5.12-25.6 10.24l-819.2 819.2c-15.36 15.36-15.36 40.96 0 56.32s40.96 15.36 56.32 0l819.2-819.2c15.36-15.36 15.36-40.96 0-56.32-10.24-5.12-20.48-10.24-30.72-10.24zM102.4-53.76c-10.24 0-20.48 5.12-25.6 10.24-15.36 15.36-15.36 40.96 0 56.32l819.2 819.2c15.36 15.36 40.96 15.36 56.32 0s15.36-40.96 0-56.32l-819.2-819.2c-10.24-5.12-20.48-10.24-30.72-10.24z" />
<glyph unicode="&#xe909;" glyph-name="donation" d="M512 371.2c-15.36 0-25.6 5.12-40.96 10.24s-25.6 15.36-35.84 20.48l-225.28 230.4c-30.72 25.6-51.2 66.56-56.32 107.52s5.12 81.92 20.48 117.76c15.36 25.6 35.84 51.2 61.44 71.68 25.6 15.36 56.32 30.72 87.040 35.84s61.44 0 92.16-5.12c30.72-10.24 56.32-30.72 81.92-51.2l15.36-15.36 15.36 15.36c20.48 20.48 51.2 35.84 81.92 46.080s61.44 10.24 92.16 5.12c30.72-5.12 61.44-15.36 87.040-35.84 25.6-15.36 46.080-35.84 61.44-66.56 20.48-35.84 25.6-81.92 20.48-117.76-5.12-40.96-25.6-76.8-56.32-107.52l-225.28-230.4c-10.24-10.24-20.48-15.36-35.84-20.48s-25.6-10.24-40.96-10.24zM558.080 432.64v0 0zM353.28 888.32c-5.12 0-15.36 0-20.48 0-20.48-5.12-35.84-10.24-51.2-20.48s-30.72-25.6-40.96-46.080c-10.24-20.48-10.24-46.080-10.24-71.68 5.12-20.48 15.36-46.080 35.84-61.44l230.4-230.4c0 0 5.12-5.12 10.24-5.12 5.12-5.12 15.36-5.12 20.48 0 5.12 0 5.12 5.12 10.24 5.12l225.28 230.4c20.48 15.36 30.72 40.96 35.84 66.56s0 51.2-10.24 71.68c-10.24 15.36-20.48 30.72-35.84 40.96s-35.84 20.48-51.2 20.48-40.96 0-56.32-5.12c-20.48-5.12-35.84-15.36-51.2-30.72l-46.080-40.96c-15.36-15.36-40.96-15.36-51.2 0l-56.32 40.96c-15.36 15.36-30.72 25.6-51.2 30.72-10.24 5.12-20.48 5.12-35.84 5.12zM158.72-69.12c-10.24 0-20.48 5.12-30.72 15.36l-87.040 102.4c-30.72 40.96-51.2 92.16-51.2 143.36v220.16c0 25.6 10.24 51.2 30.72 71.68 40.96 40.96 107.52 40.96 143.36 0 20.48-20.48 30.72-46.080 30.72-71.68v-158.72c0-20.48-15.36-40.96-40.96-40.96s-40.96 15.36-40.96 40.96v158.72c0 5.12-5.12 15.36-5.12 20.48-10.24 10.24-25.6 10.24-35.84 0-5.12-5.12-5.12-10.24-5.12-20.48v-220.16c0-35.84 10.24-66.56 35.84-97.28l87.040-102.4c15.36-15.36 10.24-40.96-5.12-56.32-5.12-5.12-15.36-5.12-25.6-5.12zM353.28-69.12c-20.48 0-40.96 15.36-40.96 40.96v128c0 30.72-10.24 61.44-25.6 87.040l-51.2 71.68c0 5.12-5.12 5.12-5.12 10.24 0 0-5.12 5.12-10.24 5.12s-5.12 0-10.24 0-5.12 0-10.24-5.12-5.12-5.12-10.24-10.24c0-5.12 0-10.24 0-15.36l66.56-102.4c10.24-20.48 5.12-40.96-15.36-51.2s-40.96-5.12-51.2 15.36l-56.32 97.28c-10.24 25.6-15.36 46.080-10.24 71.68s20.48 40.96 40.96 56.32c10.24 5.12 25.6 10.24 35.84 15.36 15.36 0 25.6 0 40.96 0 15.36-5.12 25.6-10.24 35.84-15.36 10.24-10.24 20.48-15.36 25.6-30.72l46.080-71.68c25.6-35.84 40.96-81.92 40.96-128v-128c0-25.6-15.36-40.96-35.84-40.96zM865.28-69.12c-10.24 0-15.36 5.12-25.6 10.24-15.36 15.36-20.48 35.84-5.12 56.32l87.040 102.4c20.48 25.6 30.72 61.44 30.72 97.28v220.16c0 5.12-5.12 15.36-5.12 20.48-10.24 10.24-25.6 10.24-35.84 0-5.12-5.12-5.12-10.24-5.12-20.48v-158.72c0-20.48-15.36-40.96-40.96-40.96s-40.96 15.36-40.96 40.96v158.72c0 25.6 10.24 51.2 30.72 71.68 35.84 35.84 107.52 35.84 143.36 0 20.48-20.48 30.72-46.080 30.72-71.68v-225.28c0-51.2-15.36-102.4-51.2-143.36l-87.040-102.4c-5.12-10.24-15.36-15.36-25.6-15.36zM670.72-69.12c-20.48 0-40.96 15.36-40.96 40.96v128c0 46.080 15.36 92.16 40.96 128l51.2 71.68c5.12 10.24 15.36 20.48 25.6 25.6 10.24 10.24 20.48 15.36 35.84 15.36 15.36 5.12 25.6 5.12 40.96 0 15.36 0 25.6-5.12 35.84-15.36 20.48-15.36 35.84-35.84 40.96-56.32s5.12-46.080-5.12-66.56l-61.44-97.28c-10.24-20.48-35.84-25.6-51.2-15.36-20.48 10.24-25.6 35.84-15.36 51.2l56.32 97.28c0 0 0 5.12 0 10.24s-5.12 10.24-10.24 10.24c0 0-5.12 5.12-10.24 5.12s-5.12 0-10.24 0-5.12 0-10.24-5.12c0 0-5.12-5.12-5.12-5.12l-51.2-76.8c-15.36-25.6-25.6-56.32-25.6-87.040v-128c10.24-15.36-10.24-30.72-30.72-30.72z" />
<glyph unicode="&#xe90a;" glyph-name="e-learning-monitor" d="M926.72 120.32h-829.44c-56.32 0-102.4 46.080-102.4 102.4v640c0 56.32 46.080 102.4 102.4 102.4h829.44c56.32 0 102.4-46.080 102.4-102.4v-640c0-56.32-46.080-102.4-102.4-102.4zM97.28 888.32c-15.36 0-25.6-10.24-25.6-25.6v-640c0-15.36 10.24-25.6 25.6-25.6h829.44c15.36 0 25.6 10.24 25.6 25.6v640c0 15.36-10.24 25.6-25.6 25.6h-829.44zM768-69.12h-512c-20.48 0-40.96 15.36-40.96 40.96s15.36 40.96 40.96 40.96h512c20.48 0 40.96-15.36 40.96-40.96s-20.48-40.96-40.96-40.96zM798.72 504.32c-20.48 0-40.96 15.36-40.96 40.96v92.16c0 20.48 15.36 40.96 40.96 40.96s40.96-15.36 40.96-40.96v-97.28c0-15.36-20.48-35.84-40.96-35.84zM512 314.88c-71.68 0-138.24 25.6-189.44 71.68-10.24 5.12-10.24 15.36-10.24 30.72v163.84c0 20.48 15.36 40.96 40.96 40.96s40.96-15.36 40.96-40.96v-148.48c35.84-25.6 76.8-40.96 122.88-40.96 40.96 0 87.040 15.36 122.88 40.96v148.48c0 20.48 15.36 40.96 40.96 40.96s40.96-15.36 40.96-40.96v-168.96c0-10.24-5.12-20.48-10.24-30.72-66.56-40.96-128-66.56-199.68-66.56zM512 473.6c-5.12 0-10.24 0-15.36 5.12l-286.72 128c-15.36 5.12-25.6 20.48-25.6 30.72s10.24 30.72 20.48 35.84l286.72 128c10.24 5.12 20.48 5.12 30.72 0l286.72-128c15.36-5.12 20.48-20.48 20.48-35.84s-10.24-30.72-20.48-35.84l-286.72-128c0 0-5.12 0-10.24 0zM317.44 637.44l194.56-81.92 194.56 87.040-194.56 81.92-194.56-87.040zM337.92 120.32h76.8l-15.36-107.52h-81.92zM609.28 120.32h66.56l20.48-107.52h-66.56z" />
<glyph unicode="&#xe90b;" glyph-name="email" d="M829.44 371.2c-20.48 0-40.96 15.36-40.96 40.96v450.56c0 5.12-5.12 15.36-5.12 20.48-5.12 5.12-10.24 5.12-20.48 5.12h-506.88c-5.12 0-15.36-5.12-20.48-5.12 0-5.12-5.12-10.24-5.12-20.48v-455.68c0-20.48-15.36-40.96-40.96-40.96s-35.84 25.6-35.84 46.080v450.56c0 25.6 10.24 51.2 30.72 71.68s46.080 30.72 71.68 30.72h512c25.6 0 51.2-10.24 71.68-30.72 20.48-15.36 30.72-40.96 30.72-71.68v-455.68c0-15.36-15.36-35.84-40.96-35.84zM896-69.12h-768c-25.6 0-51.2 10.24-71.68 30.72s-30.72 46.080-30.72 71.68v414.72c0 15.36 5.12 25.6 10.24 35.84s15.36 20.48 30.72 25.6c10.24 5.12 25.6 10.24 35.84 5.12 15.36 0 25.6-5.12 35.84-15.36l317.44-250.88c30.72-25.6 76.8-25.6 112.64 0l317.44 250.88c0 0 0 0 0 0 10.24 10.24 20.48 15.36 35.84 15.36s25.6 0 40.96-5.12c10.24-5.12 20.48-15.36 30.72-25.6 5.12-10.24 10.24-25.6 10.24-35.84v-414.72c0-25.6-10.24-51.2-30.72-71.68-25.6-20.48-51.2-30.72-76.8-30.72zM102.4 432.64v-399.36c0-5.12 5.12-15.36 5.12-20.48 5.12-5.12 10.24-5.12 20.48-5.12h768c5.12 0 15.36 5.12 20.48 5.12 5.12 5.12 5.12 10.24 5.12 20.48v399.36l-307.2-245.76c-56.32-46.080-148.48-46.080-204.8 0l-307.2 245.76zM92.16 442.88c0 0 0 0 0 0v0zM921.6 448v0 0 0zM506.88 422.4c-20.48 0-35.84 5.12-56.32 10.24-20.48 10.24-35.84 20.48-51.2 40.96-10.24 15.36-5.12 40.96 10.24 56.32 15.36 10.24 40.96 5.12 51.2-10.24 5.12-5.12 10.24-15.36 20.48-15.36s20.48-5.12 30.72-5.12c30.72 0 51.2 15.36 51.2 25.6s-20.48 25.6-51.2 25.6c-71.68 0-128 46.080-128 102.4s56.32 102.4 128 102.4c20.48 0 40.96-5.12 61.44-10.24 20.48-10.24 35.84-20.48 51.2-40.96 10.24-15.36 10.24-40.96-5.12-56.32-15.36-10.24-40.96-10.24-56.32 5.12-5.12 5.12-10.24 15.36-20.48 15.36-10.24 5.12-15.36 5.12-25.6 5.12-30.72 0-51.2-15.36-51.2-25.6s20.48-25.6 51.2-25.6c71.68 0 128-46.080 128-102.4-5.12-51.2-61.44-97.28-138.24-97.28 5.12 0 0 0 0 0zM512 376.32c-20.48 0-40.96 15.36-40.96 40.96v40.96c0 20.48 20.48 40.96 40.96 40.96s40.96-15.36 40.96-40.96v-46.080c0-15.36-20.48-35.84-40.96-35.84zM512 683.52c-20.48 0-40.96 20.48-40.96 40.96v46.080c0 20.48 20.48 35.84 40.96 35.84s40.96-15.36 40.96-40.96v-46.080c0-15.36-20.48-35.84-40.96-35.84z" />
<glyph unicode="&#xe90c;" glyph-name="error" d="M512 186.88c-5.12 0-5.12 0-10.24 0-10.24 0-20.48 5.12-25.6 15.36-10.24 5.12-15.36 15.36-15.36 25.6s0 20.48 5.12 30.72c5.12 10.24 10.24 20.48 20.48 25.6 20.48 15.36 51.2 10.24 66.56-5.12 10.24-10.24 15.36-25.6 15.36-40.96 0-10.24-5.12-20.48-10.24-30.72s-15.36-15.36-25.6-20.48c-5.12 0-15.36 0-20.48 0zM512 263.68c-5.12 0-5.12 0-10.24 0s-5.12-5.12-10.24-10.24c0-5.12-5.12-10.24-5.12-10.24 0-5.12 0-10.24 5.12-15.36s20.48-10.24 30.72-5.12c5.12 0 5.12 5.12 10.24 10.24 0 5.12 0 10.24 0 10.24 0 5.12-5.12 10.24-5.12 10.24-5.12 5.12-5.12 10.24-15.36 10.24 5.12 0 0 0 0 0zM512 345.6c-20.48 0-40.96 15.36-40.96 40.96v317.44c0 20.48 15.36 40.96 40.96 40.96s40.96-15.36 40.96-40.96v-322.56c0-20.48-20.48-35.84-40.96-35.84zM512-69.12c-30.72 0-61.44 10.24-81.92 35.84l-404.48 404.48c-20.48 20.48-35.84 51.2-35.84 81.92s10.24 61.44 35.84 81.92l404.48 404.48c10.24 5.12 25.6 10.24 35.84 20.48 25.6 10.24 61.44 10.24 87.040 0 15.36-5.12 25.6-15.36 35.84-25.6l404.48-404.48c20.48-20.48 35.84-51.2 35.84-81.92s-10.24-61.44-35.84-81.92l-404.48-404.48c-15.36-20.48-46.080-30.72-76.8-30.72zM81.92 422.4l404.48-404.48c15.36-15.36 40.96-15.36 56.32 0l404.48 404.48c5.12 5.12 10.24 15.36 10.24 25.6s-5.12 20.48-10.24 25.6l-404.48 404.48c-5.12 5.12-10.24 5.12-10.24 10.24-10.24 5.12-20.48 5.12-30.72 0-5.12 0-10.24-5.12-10.24-10.24l-409.6-404.48c-5.12-5.12-10.24-15.36-10.24-25.6s5.12-20.48 10.24-25.6v0z" />
<glyph unicode="&#xe90d;" glyph-name="flash" d="M872.279 564.514c-1.802 3.472-4.521 6.383-7.859 8.414-3.343 2.032-7.178 3.106-11.085 3.106h-314.711l79.529 358.144c1.085 4.806 0.471 9.839-1.736 14.244s-5.873 7.91-10.368 9.921c-4.5 2.010-9.554 2.402-14.31 1.108-4.751-1.294-8.914-4.193-11.771-8.206l-426.666-597.335c-2.319-3.19-3.709-6.958-4.014-10.89s0.486-7.875 2.285-11.382c1.799-3.512 4.536-6.456 7.907-8.504s7.243-3.118 11.187-3.098h314.71l-79.53-357.975c-1.083-4.808-0.468-9.841 1.738-14.244s5.871-7.91 10.369-9.923c4.498-2.007 9.553-2.401 14.307-1.106s8.913 4.193 11.772 8.207l426.665 597.332c2.278 3.195 3.635 6.957 3.912 10.871s-0.527 7.83-2.33 11.315z" />
<glyph unicode="&#xe90e;" glyph-name="form" d="M896-7.68h-768c-56.32 0-102.4 46.080-102.4 102.4v706.56c0 56.32 46.080 102.4 102.4 102.4h768c56.32 0 102.4-46.080 102.4-102.4v-706.56c0-56.32-46.080-102.4-102.4-102.4zM128 826.88c-15.36 0-25.6-10.24-25.6-25.6v-706.56c0-15.36 10.24-25.6 25.6-25.6h768c15.36 0 25.6 10.24 25.6 25.6v706.56c0 15.36-10.24 25.6-25.6 25.6h-768zM414.72 248.32h-189.44c-40.96 0-71.68 30.72-71.68 71.68v194.56c0 35.84 30.72 66.56 71.68 66.56h194.56c40.96 0 71.68-30.72 71.68-71.68v-194.56c-5.12-35.84-35.84-66.56-76.8-66.56zM230.4 325.12h179.2v179.2h-179.2v-179.2zM414.72 504.32v0 0zM450.56 120.32h-256c-25.6 0-40.96 20.48-40.96 40.96s15.36 40.96 40.96 40.96h256c20.48 0 40.96-15.36 40.96-40.96-5.12-20.48-20.48-40.96-40.96-40.96zM798.72 120.32h-194.56c-40.96 0-71.68 30.72-71.68 71.68v322.56c0 40.96 30.72 71.68 71.68 71.68h194.56c40.96-5.12 71.68-35.84 71.68-71.68v-322.56c0-40.96-30.72-71.68-71.68-71.68zM614.4 197.12h179.2v307.2h-179.2v-307.2zM798.72 504.32v0 0zM25.6 714.24h972.8v-81.92h-972.8v81.92zM532.48 396.8h337.92v-81.92h-337.92v81.92z" />
<glyph unicode="&#xe90f;" glyph-name="help" d="M512 314.88c-20.48 0-40.96 15.36-40.96 40.96v40.96c0 20.48 5.12 40.96 20.48 61.44 10.24 15.36 30.72 30.72 51.2 35.84 15.36 5.12 30.72 15.36 40.96 25.6s15.36 25.6 20.48 46.080c0 15.36 0 30.72-5.12 46.080s-15.36 25.6-30.72 35.84c-15.36 10.24-30.72 15.36-46.080 15.36s-30.72 0-46.080-10.24c-20.48-5.12-30.72-15.36-40.96-30.72s-15.36-30.72-15.36-46.080c0-20.48-15.36-40.96-40.96-40.96s-30.72 20.48-30.72 40.96c0 30.72 10.24 61.44 25.6 87.040 10.24 25.6 35.84 46.080 61.44 61.44s56.32 20.48 87.040 15.36c30.72 0 61.44-10.24 87.040-30.72 25.6-15.36 46.080-40.96 56.32-71.68 10.24-25.6 15.36-56.32 10.24-87.040s-15.36-56.32-35.84-81.92c-20.48-25.6-46.080-40.96-71.68-51.2-5.12 0-10.24-5.12-10.24-10.24-5.12-5.12-5.12-10.24-5.12-15.36v-40.96c0-20.48-20.48-35.84-40.96-35.84zM512 151.040c-5.12 0-5.12 0-10.24 0-10.24 0-20.48 5.12-25.6 15.36-10.24 10.24-15.36 20.48-15.36 30.72s0 20.48 5.12 30.72c5.12 10.24 10.24 20.48 20.48 25.6 20.48 15.36 51.2 10.24 66.56-5.12 10.24-10.24 15.36-25.6 15.36-40.96 0-10.24-5.12-20.48-10.24-30.72s-15.36-15.36-25.6-20.48c-5.12 0-15.36-5.12-20.48-5.12zM512 232.96c-5.12 0-5.12 0-10.24 0s-5.12-5.12-10.24-10.24c0-5.12-5.12-10.24-5.12-10.24 0-5.12 0-10.24 5.12-15.36s20.48-10.24 30.72-5.12c5.12 0 5.12 5.12 10.24 10.24 0 5.12 0 10.24 0 10.24 0 5.12-5.12 10.24-5.12 10.24-5.12 5.12-5.12 5.12-15.36 10.24 5.12-5.12 0 0 0 0zM512-69.12c-286.72 0-517.12 230.4-517.12 517.12s230.4 517.12 517.12 517.12 517.12-230.4 517.12-517.12c0-286.72-230.4-517.12-517.12-517.12zM512 888.32c-245.76 0-440.32-199.68-440.32-440.32 0-245.76 199.68-440.32 440.32-440.32s440.32 199.68 440.32 440.32c0 245.76-194.56 440.32-440.32 440.32z" />
<glyph unicode="&#xe910;" glyph-name="info" d="M609.28 217.6h-30.72c-25.6 0-51.2 10.24-71.68 30.72s-30.72 46.080-30.72 71.68v153.6h-25.6c-25.6 0-40.96 15.36-40.96 40.96s15.36 35.84 40.96 35.84h30.72c20.48 0 35.84-5.12 51.2-20.48s20.48-30.72 20.48-51.2v-158.72c0-5.12 5.12-15.36 5.12-20.48 5.12-5.12 10.24-5.12 20.48-5.12h30.72c20.48 0 40.96-15.36 40.96-40.96s-20.48-35.84-40.96-35.84zM496.64 601.6c-5.12 0-10.24 0-10.24 0-10.24 0-20.48 5.12-25.6 15.36-10.24 10.24-15.36 15.36-20.48 30.72 0 10.24 0 20.48 5.12 30.72s10.24 20.48 20.48 25.6c20.48 15.36 51.2 10.24 66.56-5.12 10.24-10.24 15.36-25.6 15.36-40.96 0-10.24-5.12-20.48-10.24-30.72s-15.36-15.36-25.6-20.48c0-5.12-10.24-5.12-15.36-5.12zM496.64 678.4c-5.12 0-5.12 0-10.24 0s-10.24-5.12-10.24-10.24-5.12-10.24-5.12-10.24c0-5.12 0-10.24 5.12-15.36s20.48-10.24 25.6-5.12c5.12 5.12 5.12 5.12 10.24 10.24 0 5.12 0 10.24 0 10.24 0 5.12-5.12 10.24-5.12 10.24 0 5.12 0 10.24-10.24 10.24 0 0 0 0 0 0zM512-69.12c-286.72 0-517.12 230.4-517.12 517.12s230.4 517.12 517.12 517.12 517.12-230.4 517.12-517.12c0-286.72-230.4-517.12-517.12-517.12zM512 888.32c-245.76 0-440.32-199.68-440.32-440.32 0-245.76 199.68-440.32 440.32-440.32s440.32 199.68 440.32 440.32c0 245.76-194.56 440.32-440.32 440.32z" />
<glyph unicode="&#xe911;" glyph-name="search" d="M419.84 115.2c-163.84 0-322.56 97.28-394.24 261.12-92.16 215.040 10.24 465.92 225.28 558.080 102.4 46.080 220.16 46.080 327.68 5.12s189.44-122.88 230.4-230.4 46.080-220.16 5.12-327.68c-40.96-107.52-122.88-189.44-230.4-230.4-51.2-25.6-107.52-35.84-163.84-35.84zM419.84 888.32c-46.080 0-92.16-10.24-138.24-25.6-179.2-76.8-261.12-281.6-184.32-455.68 35.84-87.040 102.4-153.6 189.44-184.32 87.040-35.84 179.2-35.84 266.24 0v0c87.040 35.84 153.6 102.4 184.32 189.44 35.84 87.040 35.84 179.2 0 266.24s-102.4 153.6-189.44 184.32c-40.96 20.48-87.040 25.6-128 25.6zM993.28-69.12c-10.24 0-20.48 5.12-25.6 10.24l-302.080 302.080c-15.36 15.36-15.36 40.96 0 56.32s40.96 15.36 56.32 0l302.080-302.080c15.36-15.36 15.36-40.96 0-56.32-10.24-10.24-20.48-10.24-30.72-10.24z" />
<glyph unicode="&#xe912;" glyph-name="security" d="M670.72 186.88h-317.44c-56.32 0-102.4 46.080-102.4 102.4v189.44c0 56.32 46.080 102.4 102.4 102.4h317.44c56.32 0 102.4-46.080 102.4-102.4v-194.56c0-51.2-46.080-97.28-102.4-97.28zM353.28 504.32c-15.36 0-25.6-10.24-25.6-25.6v-194.56c0-15.36 10.24-25.6 25.6-25.6h317.44c15.36 0 25.6 10.24 25.6 25.6v194.56c0 15.36-10.24 25.6-25.6 25.6h-317.44zM512 330.24c-5.12 0-5.12 0-10.24 0-10.24 0-20.48 5.12-25.6 15.36-10.24 10.24-15.36 15.36-15.36 25.6s0 20.48 5.12 30.72c5.12 10.24 10.24 20.48 20.48 25.6 15.36 10.24 35.84 10.24 51.2 5.12 5.12-5.12 10.24-5.12 15.36-10.24s10.24-10.24 10.24-15.36c5.12-5.12 5.12-15.36 5.12-20.48 0-10.24-5.12-20.48-10.24-30.72s-15.36-15.36-25.6-20.48c-5.12-5.12-15.36-5.12-20.48-5.12zM512 407.040c-5.12 0-5.12 0-10.24 0s-5.12-5.12-10.24-10.24c0-5.12-5.12-10.24-5.12-10.24 0-5.12 0-5.12 0-10.24s5.12-5.12 5.12-5.12c0 0 5.12-5.12 5.12-5.12 5.12-5.12 15.36 0 20.48 0s5.12 5.12 10.24 10.24c0 5.12 0 10.24 0 10.24 0 5.12-5.12 10.24-5.12 10.24 0 5.12 0 10.24-10.24 10.24 5.12 0 0 0 0 0zM670.72 504.32c-20.48 0-40.96 15.36-40.96 40.96v97.28c0 30.72-10.24 61.44-35.84 87.040-46.080 46.080-128 46.080-174.080 0-15.36-25.6-30.72-56.32-30.72-87.040v-97.28c0-20.48-15.36-40.96-40.96-40.96s-35.84 20.48-35.84 40.96v97.28c0 51.2 20.48 102.4 56.32 138.24 40.96 35.84 92.16 56.32 143.36 56.32s102.4-20.48 138.24-56.32c35.84-35.84 56.32-87.040 56.32-138.24v-97.28c5.12-20.48-15.36-40.96-35.84-40.96zM512-69.12c-5.12 0-5.12 0-10.24 0-332.8 87.040-506.88 291.84-506.88 583.68v414.72c0 20.48 15.36 40.96 40.96 40.96h962.56c20.48 0 40.96-15.36 40.96-40.96v-414.72c0-291.84-174.080-491.52-506.88-583.68-15.36 0-15.36 0-20.48 0zM71.68 888.32v-378.88c0-256 148.48-424.96 440.32-501.76 291.84 81.92 440.32 250.88 440.32 501.76v378.88h-880.64z" />
<glyph unicode="&#xe913;" glyph-name="book-open-bookmark" d="M512-53.76c-10.24 0-20.48 5.12-30.72 10.24 0 0-107.52 102.4-430.080 107.52-15.36 0-30.72 5.12-40.96 20.48-10.24 10.24-15.36 25.6-15.36 40.96v701.44c0 15.36 5.12 30.72 15.36 40.96 5.12 5.12 10.24 10.24 20.48 15.36 5.12 5.12 15.36 5.12 25.6 5.12 363.52-5.12 481.28-128 486.4-133.12s10.24-15.36 10.24-25.6v-742.4c0-15.36-10.24-30.72-25.6-35.84-5.12 0-10.24-5.12-15.36-5.12zM71.68 145.92c209.92-5.12 337.92-51.2 404.48-87.040v655.36c-35.84 20.48-148.48 92.16-404.48 97.28v-665.6zM71.68 130.56v0c0 0 0 0 0 0zM384 417.28c-5.12 0-10.24 0-10.24 0-71.68 25.6-143.36 35.84-215.040 40.96-20.48 0-35.84 20.48-35.84 40.96s20.48 35.84 40.96 35.84c81.92-5.12 158.72-20.48 235.52-46.080 20.48-5.12 30.72-30.72 25.6-51.2-10.24-10.24-25.6-20.48-40.96-20.48zM384 238.080c-5.12 0-10.24 0-10.24 0-71.68 25.6-143.36 35.84-215.040 40.96-20.48 0-35.84 20.48-35.84 40.96s20.48 35.84 40.96 35.84c81.92-5.12 158.72-20.48 235.52-46.080 20.48-5.12 30.72-30.72 25.6-46.080-10.24-15.36-25.6-25.6-40.96-25.6zM640 417.28c-15.36 0-30.72 10.24-35.84 25.6-5.12 20.48 5.12 40.96 25.6 51.2 76.8 25.6 153.6 40.96 235.52 46.080 20.48 0 40.96-15.36 40.96-35.84s-15.36-40.96-35.84-40.96c-71.68-5.12-143.36-20.48-215.040-40.96-5.12-5.12-10.24-5.12-15.36-5.12zM640 238.080c-15.36 0-30.72 10.24-35.84 25.6-5.12 20.48 5.12 40.96 25.6 46.080 76.8 25.6 153.6 40.96 235.52 46.080 20.48 0 40.96-15.36 40.96-35.84s-15.36-40.96-35.84-40.96c-71.68-5.12-143.36-20.48-215.040-40.96-5.12 0-10.24 0-15.36 0zM512-48.64c-10.24 0-20.48 5.12-25.6 10.24-15.36 15.36-15.36 35.84-5.12 51.2 5.12 5.12 117.76 122.88 471.040 133.12v665.6c-30.72 0-56.32 0-87.040-5.12-20.48 0-40.96 15.36-40.96 35.84s15.36 40.96 35.84 40.96c35.84 5.12 71.68 5.12 107.52 5.12 0 0 0 0 0 0 10.24 0 15.36 0 25.6-5.12 5.12-5.12 15.36-5.12 20.48-15.36 10.24-10.24 15.36-25.6 15.36-40.96v-696.32c0-15.36-5.12-30.72-15.36-40.96s-25.6-20.48-40.96-20.48c-327.68-5.12-430.080-107.52-430.080-107.52-10.24-10.24-20.48-10.24-30.72-10.24zM952.32 130.56c0 0 0 0 0 0v0zM512-53.76c-20.48 0-40.96 15.36-40.96 40.96v742.4c0 10.24 5.12 20.48 10.24 25.6s61.44 61.44 209.92 102.4c20.48 5.12 40.96-5.12 46.080-25.6s-5.12-40.96-25.6-46.080c-92.16-25.6-143.36-56.32-163.84-71.68v-727.040c5.12-20.48-15.36-40.96-35.84-40.96zM865.28 591.36c-10.24 0-15.36 5.12-25.6 10.24l-56.32 46.080-56.32-46.080c-10.24-10.24-25.6-10.24-40.96-5.12-10.24 0-20.48 15.36-20.48 30.72v256c0 15.36 10.24 30.72 30.72 35.84 56.32 15.36 112.64 20.48 163.84 25.6 10.24 0 20.48-5.12 30.72-10.24s10.24-15.36 10.24-30.72v-281.6c0-15.36-10.24-30.72-20.48-35.84-5.12 5.12-10.24 5.12-15.36 5.12zM783.36 729.6c10.24 0 15.36-5.12 25.6-10.24l15.36-15.36v163.84c-25.6-5.12-56.32-10.24-81.92-15.36v-143.36l15.36 15.36c10.24 0 15.36 5.12 25.6 5.12z" />
<glyph unicode="&#xe914;" glyph-name="arrow-left" d="M712.533-64c-8.533 0-17.067 4.267-21.333 8.533l-460.8 456.533c-4.267 4.267-8.533 12.8-12.8 21.333s-4.267 17.067-4.267 25.6c0 8.533 0 17.067 4.267 25.6s8.533 12.8 12.8 21.333l460.8 456.533c12.8 12.8 34.133 12.8 46.933 0s12.8-34.133 0-46.933l-460.8-456.533 456.533-456.533c12.8-12.8 12.8-34.133 0-46.933-4.267-4.267-12.8-8.533-21.333-8.533z" />
<glyph unicode="&#xe915;" glyph-name="subscription" d="M573.44-17.92c-20.48 0-40.96 15.36-40.96 40.96s15.36 40.96 40.96 40.96c76.8 0 148.48 20.48 209.92 61.44s112.64 102.4 138.24 168.96c30.72 71.68 35.84 143.36 20.48 220.16-15.36 71.68-51.2 138.24-102.4 194.56-51.2 51.2-117.76 87.040-194.56 102.4-71.68 15.36-148.48 5.12-220.16-20.48-61.44-35.84-122.88-81.92-163.84-143.36s-61.44-133.12-61.44-209.92v-30.72c0-20.48-15.36-40.96-40.96-40.96s-40.96 15.36-40.96 40.96v30.72c0 92.16 25.6 179.2 76.8 250.88 51.2 76.8 122.88 133.12 204.8 168.96s174.080 40.96 261.12 25.6c87.040-15.36 168.96-61.44 230.4-122.88s107.52-143.36 122.88-230.4c15.36-87.040 10.24-179.2-25.6-261.12s-92.16-153.6-168.96-204.8c-66.56-56.32-153.6-81.92-245.76-81.92zM158.72 366.080c-10.24 0-20.48 5.12-25.6 10.24l-128 128c-15.36 15.36-15.36 40.96 0 56.32s40.96 15.36 56.32 0l102.4-102.4 102.4 102.4c15.36 15.36 40.96 15.36 56.32 0s15.36-40.96 0-56.32l-128-128c-15.36-5.12-25.6-10.24-35.84-10.24zM768 366.080h-225.28c-20.48 0-40.96 15.36-40.96 40.96v286.72c0 20.48 15.36 40.96 40.96 40.96s40.96-15.36 40.96-40.96v-250.88h184.32c20.48 0 40.96-15.36 40.96-40.96 0-15.36-20.48-35.84-40.96-35.84z" />
<glyph unicode="&#xe916;" glyph-name="sync" d="M573.44-17.92c-20.48 0-40.96 15.36-40.96 40.96s15.36 40.96 40.96 40.96c76.8 0 148.48 20.48 209.92 61.44s112.64 102.4 138.24 168.96c30.72 71.68 35.84 143.36 20.48 220.16-15.36 71.68-51.2 138.24-102.4 194.56-51.2 51.2-117.76 87.040-194.56 102.4-71.68 15.36-148.48 5.12-220.16-20.48-61.44-35.84-122.88-81.92-163.84-143.36s-61.44-133.12-61.44-209.92v-30.72c0-20.48-15.36-40.96-40.96-40.96s-40.96 15.36-40.96 40.96v30.72c0 92.16 25.6 179.2 76.8 250.88 51.2 76.8 122.88 133.12 204.8 168.96s174.080 40.96 261.12 25.6c87.040-15.36 168.96-61.44 230.4-122.88s107.52-143.36 122.88-230.4c15.36-87.040 10.24-179.2-25.6-261.12s-92.16-153.6-168.96-204.8c-66.56-56.32-153.6-81.92-245.76-81.92zM158.72 366.080c-10.24 0-20.48 5.12-25.6 10.24l-128 128c-15.36 15.36-15.36 40.96 0 56.32s40.96 15.36 56.32 0l102.4-102.4 102.4 102.4c15.36 15.36 40.96 15.36 56.32 0s15.36-40.96 0-56.32l-128-128c-15.36-5.12-25.6-10.24-35.84-10.24z" />
<glyph unicode="&#xe917;" glyph-name="trash" d="M962.56 729.6h-901.12c-20.48 0-40.96 15.36-40.96 35.84s20.48 40.96 40.96 40.96h896c20.48 0 40.96-15.36 40.96-40.96s-15.36-35.84-35.84-35.84zM670.72 729.6h-317.44c-20.48 0-40.96 15.36-40.96 35.84v66.56c0 25.6 10.24 51.2 30.72 71.68s46.080 30.72 71.68 30.72h194.56c25.6 0 51.2-10.24 71.68-30.72s30.72-46.080 30.72-71.68v-61.44c0-25.6-20.48-40.96-40.96-40.96zM389.12 806.4h245.76v25.6c0 5.12-5.12 15.36-5.12 20.48-10.24 0-15.36 5.12-20.48 5.12h-194.56c-5.12 0-10.24-5.12-15.36-5.12-5.12-5.12-10.24-15.36-10.24-20.48v-25.6zM414.72 186.88c-20.48 0-40.96 15.36-40.96 40.96v317.44c0 20.48 15.36 40.96 40.96 40.96s40.96-15.36 40.96-40.96v-322.56c0-20.48-20.48-35.84-40.96-35.84zM609.28 186.88c-20.48 0-40.96 15.36-40.96 40.96v317.44c0 20.48 15.36 40.96 40.96 40.96s40.96-15.36 40.96-40.96v-322.56c-5.12-20.48-20.48-35.84-40.96-35.84zM742.4-38.4h-460.8c-25.6 0-51.2 10.24-71.68 25.6s-30.72 40.96-30.72 66.56l-56.32 711.68c0 10.24 5.12 20.48 10.24 30.72s15.36 10.24 25.6 10.24h706.56c10.24 0 20.48-5.12 30.72-10.24 5.12-10.24 10.24-20.48 10.24-30.72l-61.44-711.68c0-25.6-15.36-51.2-30.72-66.56-20.48-15.36-46.080-25.6-71.68-25.6zM199.68 729.6l56.32-665.6c0-5.12 5.12-10.24 10.24-15.36 5.12-10.24 10.24-10.24 15.36-10.24h455.68c5.12 0 10.24 0 15.36 5.12s10.24 10.24 10.24 15.36c0 0 0 0 0 0l56.32 665.6h-619.52z" />
<glyph unicode="&#xe918;" glyph-name="messages-bubble-square-text" d="M225.28-69.12c-5.12 0-10.24 0-15.36 5.12-15.36 5.12-20.48 20.48-20.48 35.84v153.6h-92.16c-25.6 0-51.2 10.24-71.68 30.72s-30.72 46.080-30.72 71.68v634.88c0 25.6 10.24 51.2 30.72 71.68s46.080 30.72 71.68 30.72h829.44c25.6 0 51.2-10.24 71.68-30.72s30.72-46.080 30.72-71.68v-640c0-25.6-10.24-51.2-30.72-71.68s-46.080-30.72-71.68-30.72h-435.2l-245.76-184.32c-5.12-5.12-15.36-5.12-20.48-5.12zM97.28 888.32c-5.12 0-15.36-5.12-20.48-5.12-5.12-5.12-5.12-10.24-5.12-20.48v-640c0-5.12 5.12-15.36 5.12-20.48 5.12-5.12 10.24-5.12 20.48-5.12h128c20.48 0 40.96-15.36 40.96-40.96v-112.64l189.44 148.48c5.12 5.12 15.36 10.24 25.6 10.24h450.56c5.12 0 15.36 5.12 20.48 5.12s5.12 10.24 5.12 20.48v634.88c0 5.12-5.12 15.36-5.12 20.48-5.12 5.12-10.24 5.12-20.48 5.12h-834.56zM798.72 601.6h-573.44c-20.48 0-40.96 15.36-40.96 40.96s20.48 35.84 40.96 35.84h573.44c20.48 0 40.96-15.36 40.96-40.96s-20.48-35.84-40.96-35.84zM670.72 412.16h-445.44c-20.48 0-40.96 15.36-40.96 40.96s20.48 35.84 40.96 35.84h450.56c20.48 0 40.96-15.36 40.96-40.96s-25.6-35.84-46.080-35.84z" />
<glyph unicode="&#xe919;" glyph-name="space-rocket-flying" d="M440.32 151.040c-10.24 0-20.48 5.12-25.6 10.24l-184.32 184.32c-15.36 15.36-15.36 40.96 0 56.32l419.84 419.84c56.32 56.32 133.12 92.16 215.040 102.4l92.16 10.24c10.24 0 25.6-5.12 30.72-10.24s10.24-20.48 10.24-30.72l-10.24-92.16c-10.24-81.92-46.080-158.72-102.4-215.040l-419.84-419.84c-5.12-10.24-15.36-15.36-25.6-15.36zM312.32 371.2l128-128 389.12 389.12c46.080 46.080 71.68 102.4 81.92 168.96l5.12 46.080-46.080-5.12c-61.44-5.12-122.88-35.84-168.96-81.92l-389.12-389.12zM256 335.36c-5.12 0-10.24 0-10.24 0l-153.6 51.2c-10.24 5.12-20.48 10.24-30.72 20.48s-15.36 20.48-15.36 30.72c-5.12 10.24 0 25.6 0 35.84 5.12 10.24 10.24 20.48 20.48 30.72l10.24 10.24c35.84 35.84 87.040 66.56 138.24 76.8s107.52 10.24 158.72-5.12l51.2-15.36c15.36-5.12 25.6-20.48 30.72-30.72 5.12-15.36 0-25.6-10.24-35.84l-158.72-158.72c-10.24-5.12-20.48-10.24-30.72-10.24zM128 458.24l122.88-40.96 97.28 97.28c-40.96 10.24-76.8 10.24-117.76 5.12-35.84-10.24-71.68-30.72-102.4-61.44v0zM522.24-23.040c-5.12 0-10.24 0-15.36 0-10.24 5.12-20.48 10.24-30.72 15.36-10.24 10.24-15.36 20.48-20.48 30.72l-51.2 153.6c-5.12 15.36 0 30.72 10.24 40.96l158.72 158.72c10.24 10.24 20.48 15.36 35.84 10.24s25.6-10.24 25.6-25.6l15.36-51.2c15.36-51.2 20.48-107.52 5.12-158.72-10.24-51.2-40.96-102.4-76.8-138.24l-10.24-10.24c-10.24-10.24-20.48-15.36-30.72-15.36-5.12-10.24-10.24-10.24-15.36-10.24zM527.36 48.64v0 0 0zM481.28 181.76l40.96-122.88 5.12 5.12c30.72 30.72 46.080 66.56 56.32 102.4s5.12 76.8-5.12 112.64l-97.28-97.28zM76.8-28.16c-10.24 0-20.48 5.12-25.6 10.24-10.24 10.24-15.36 25.6-10.24 35.84 15.36 46.080 61.44 199.68 102.4 240.64 20.48 25.6 51.2 35.84 87.040 40.96 20.48 0 40.96-15.36 40.96-35.84s-15.36-40.96-35.84-40.96c-15.36 0-25.6-5.12-35.84-15.36-15.36-15.36-35.84-76.8-61.44-143.36 66.56 20.48 128 46.080 143.36 61.44 5.12 5.12 10.24 10.24 10.24 20.48 5.12 5.12 5.12 15.36 5.12 20.48 0 20.48 15.36 40.96 35.84 40.96 0 0 0 0 0 0 20.48 0 35.84-15.36 40.96-35.84 0-15.36-5.12-35.84-10.24-51.2s-15.36-30.72-30.72-46.080c-40.96-40.96-194.56-87.040-240.64-102.4-5.12 0-10.24 0-15.36 0z" />
<glyph unicode="&#xe91a;" glyph-name="duplicate" d="M926.72 58.88h-701.44c-56.32 0-102.4 46.080-102.4 102.4v701.44c0 56.32 46.080 102.4 102.4 102.4h706.56c56.32 0 102.4-46.080 102.4-102.4v-706.56c-5.12-51.2-51.2-97.28-107.52-97.28zM225.28 888.32c-15.36 0-25.6-10.24-25.6-25.6v-706.56c0-15.36 10.24-25.6 25.6-25.6h706.56c15.36 0 25.6 10.24 25.6 25.6v706.56c0 15.36-10.24 25.6-25.6 25.6h-706.56zM865.28-69.12h-768c-25.6 0-51.2 10.24-71.68 30.72s-30.72 46.080-30.72 71.68v768c0 20.48 15.36 40.96 40.96 40.96s40.96-15.36 40.96-40.96v-768c0-5.12 5.12-15.36 5.12-20.48 5.12-5.12 10.24-5.12 20.48-5.12h768c20.48 0 40.96-15.36 40.96-40.96s-25.6-35.84-46.080-35.84zM798.72 632.32h-445.44c-20.48 0-40.96 20.48-40.96 40.96s15.36 40.96 40.96 40.96h450.56c20.48 0 40.96-15.36 40.96-40.96s-25.6-40.96-46.080-40.96zM798.72 504.32h-445.44c-20.48 0-40.96 15.36-40.96 40.96 0 20.48 15.36 40.96 40.96 40.96h450.56c20.48 0 40.96-15.36 40.96-40.96-5.12-20.48-25.6-40.96-46.080-40.96zM670.72 376.32h-317.44c-20.48 0-40.96 15.36-40.96 40.96s15.36 40.96 40.96 40.96h317.44c20.48 0 40.96-15.36 40.96-40.96s-20.48-40.96-40.96-40.96z" />
<glyph unicode="&#xe91b;" glyph-name="edit" d="M85.046 292.99l57.926 57.926 271.526-271.526-57.926-57.926-271.526 271.526zM30.72-69.12c-10.24 0-20.48 5.12-25.6 10.24-10.24 10.24-15.36 25.6-10.24 35.84l76.8 296.96c0 5.12 5.12 10.24 10.24 15.36l619.52 619.52c15.36 20.48 40.96 30.72 61.44 40.96 25.6 10.24 46.080 15.36 76.8 15.36 25.6 0 51.2-5.12 76.8-15.36 15.36-5.12 40.96-20.48 56.32-40.96v0c20.48-20.48 30.72-40.96 40.96-61.44 10.24-25.6 15.36-51.2 15.36-76.8s-5.12-51.2-15.36-76.8c-10.24-20.48-25.6-40.96-40.96-61.44l-619.52-614.4c-5.12-5.12-10.24-10.24-15.36-10.24l-296.96-76.8c-5.12 0-5.12 0-10.24 0zM143.36 243.2l-56.32-220.16 220.16 56.32 609.28 609.28c10.24 10.24 20.48 25.6 25.6 35.84 5.12 15.36 10.24 30.72 10.24 46.080s-5.12 30.72-10.24 46.080-10.24 25.6-20.48 40.96-25.6 20.48-35.84 25.6c-15.36 5.12-30.72 10.24-46.080 10.24s-30.72-5.12-46.080-10.24c-15.36-5.12-25.6-15.36-35.84-25.6l-614.4-614.4zM566.214 773.087l57.926 57.926 275.147-275.147-57.926-57.926-275.147 275.147zM651.911 863.514l57.926 57.926 275.147-275.147-57.926-57.926-275.147 275.147z" />
<glyph unicode="&#xe91c;" glyph-name="shortcode" d="M327.68 89.6c-10.24 0-20.48 5.12-25.6 10.24l-276.48 276.48c-20.48 20.48-30.72 46.080-30.72 71.68s10.24 51.2 30.72 71.68l276.48 276.48c15.36 15.36 40.96 15.36 56.32 0s15.36-40.96 0-56.32l-281.6-271.36c-5.12-5.12-5.12-15.36-5.12-20.48s5.12-15.36 5.12-20.48l276.48-276.48c15.36-15.36 15.36-40.96 0-56.32-10.24 0-20.48-5.12-25.6-5.12zM696.32 89.6c-10.24 0-20.48 5.12-25.6 10.24-15.36 15.36-15.36 40.96 0 56.32l276.48 276.48c5.12 5.12 5.12 10.24 5.12 20.48 0 5.12-5.12 15.36-5.12 20.48l-276.48 276.48c-15.36 15.36-15.36 40.96 0 56.32s40.96 15.36 56.32 0l276.48-276.48c20.48-20.48 30.72-46.080 30.72-71.68s-10.24-51.2-30.72-71.68l-276.48-276.48c-10.24-15.36-20.48-20.48-30.72-20.48z" />
<glyph unicode="&#xe91d;" glyph-name="add-circle" d="M512 217.6c-20.48 0-40.96 15.36-40.96 40.96v384c0 20.48 15.36 40.96 40.96 40.96s40.96-15.36 40.96-40.96v-384c0-25.6-20.48-40.96-40.96-40.96zM706.56 412.16h-389.12c-20.48 0-40.96 15.36-40.96 40.96s15.36 40.96 40.96 40.96h384c20.48 0 40.96-15.36 40.96-40.96s-15.36-40.96-35.84-40.96zM512-69.12c-286.72 0-517.12 230.4-517.12 517.12s230.4 517.12 517.12 517.12 517.12-230.4 517.12-517.12c0-286.72-230.4-517.12-517.12-517.12zM512 888.32c-245.76 0-440.32-199.68-440.32-440.32 0-245.76 199.68-440.32 440.32-440.32s440.32 199.68 440.32 440.32c0 245.76-194.56 440.32-440.32 440.32z" />
<glyph unicode="&#xe91e;" glyph-name="expand-vertical-left-right" d="M993.28 314.88h-962.56c-20.48 0-40.96 15.36-40.96 40.96s15.36 40.96 40.96 40.96h962.56c20.48 0 40.96-15.36 40.96-40.96s-20.48-40.96-40.96-40.96zM993.28 504.32h-962.56c-20.48 0-40.96 15.36-40.96 40.96 0 20.48 15.36 40.96 40.96 40.96h962.56c20.48 0 40.96-15.36 40.96-40.96-5.12-20.48-20.48-40.96-40.96-40.96zM512 504.32c-20.48 0-40.96 15.36-40.96 40.96v384c0 20.48 15.36 40.96 40.96 40.96s40.96-15.36 40.96-40.96v-384c0-20.48-20.48-40.96-40.96-40.96zM512-69.12c-20.48 0-40.96 15.36-40.96 40.96v384c0 20.48 15.36 40.96 40.96 40.96s40.96-15.36 40.96-40.96v-384c0-25.6-20.48-40.96-40.96-40.96zM670.72 729.6c-10.24 0-20.48 5.12-25.6 10.24l-133.12 133.12-133.12-133.12c-15.36-15.36-40.96-15.36-56.32 0s-15.36 40.96 0 56.32l158.72 158.72c15.36 15.36 40.96 15.36 56.32 0l158.72-158.72c15.36-15.36 15.36-40.96 0-56.32-5.12-5.12-15.36-10.24-25.6-10.24zM512-69.12c-10.24 0-20.48 5.12-25.6 10.24l-158.72 158.72c-15.36 15.36-15.36 40.96 0 56.32s40.96 15.36 56.32 0l133.12-133.12 133.12 133.12c15.36 15.36 40.96 15.36 56.32 0s15.36-40.96 0-56.32l-158.72-158.72c-15.36-10.24-25.6-10.24-35.84-10.24z" />
<glyph unicode="&#xe91f;" glyph-name="view" d="M506.88 120.32c-184.32 0-368.64 128-481.28 250.88-20.48 25.6-30.72 51.2-30.72 76.8s10.24 51.2 25.6 71.68c112.64 122.88 302.080 256 491.52 250.88 0 0 5.12 0 5.12 0 189.44 0 373.76-128 486.4-250.88 20.48-20.48 30.72-46.080 30.72-71.68s-10.24-51.2-25.6-71.68c-112.64-122.88-302.080-256-491.52-250.88-10.24-5.12-10.24-5.12-10.24-5.12zM506.88 698.88c-163.84 0-327.68-117.76-424.96-230.4-10.24-5.12-10.24-10.24-10.24-20.48s5.12-15.36 10.24-20.48c102.4-112.64 266.24-230.4 430.080-225.28 163.84-5.12 332.8 117.76 435.2 230.4 5.12 5.12 10.24 15.36 10.24 20.48s-5.12 15.36-10.24 20.48c-102.4 112.64-271.36 230.4-430.080 225.28 0 0 0 0 0 0-5.12 0-10.24 0-10.24 0zM512 248.32c-15.36 0-25.6 0-40.96 5.12-40.96 5.12-71.68 25.6-102.4 56.32-25.6 25.6-46.080 61.44-56.32 102.4-5.12 35.84 0 76.8 15.36 112.64s40.96 66.56 71.68 87.040c35.84 25.6 71.68 35.84 112.64 35.84 0 0 0 0 0 0 25.6 0 51.2-5.12 76.8-15.36s46.080-25.6 66.56-40.96c20.48-20.48 30.72-40.96 40.96-66.56s15.36-51.2 15.36-76.8c0-40.96-10.24-76.8-35.84-112.64-20.48-30.72-51.2-56.32-87.040-71.68-25.6-10.24-51.2-15.36-76.8-15.36zM512 570.88c0 0 0 0 0 0-25.6 0-46.080-10.24-66.56-20.48-20.48-15.36-35.84-35.84-46.080-56.32s-10.24-46.080-5.12-71.68c5.12-25.6 15.36-46.080 30.72-61.44s40.96-30.72 61.44-35.84c25.6-5.12 46.080 0 71.68 5.12 20.48 10.24 40.96 25.6 56.32 46.080s20.48 40.96 20.48 66.56c0 15.36-5.12 30.72-10.24 46.080s-15.36 25.6-25.6 40.96c-10.24 10.24-25.6 20.48-40.96 25.6-15.36 10.24-30.72 15.36-46.080 15.36z" />
<glyph unicode="&#xe920;" glyph-name="settings" d="M348.16-69.12c-15.36 0-30.72 5.12-46.080 10.24-25.6 10.24-40.96 25.6-56.32 46.080s-20.48 46.080-20.48 71.68l5.12 61.44c0 5.12 0 10.24-5.12 20.48 0 5.12-5.12 10.24-10.24 15.36s-10.24 10.24-15.36 10.24c-5.12 0-10.24 5.12-20.48 5.12l-61.44-5.12c-25.6 0-51.2 5.12-71.68 20.48s-35.84 30.72-46.080 56.32c-10.24 25.6-10.24 51.2-5.12 71.68 5.12 25.6 20.48 46.080 35.84 61.44l46.080 40.96c5.12 5.12 10.24 10.24 10.24 15.36s5.12 10.24 5.12 20.48c0 5.12 0 10.24-5.12 20.48 0 0-5.12 5.12-10.24 10.24l-40.96 35.84c-20.48 20.48-35.84 40.96-40.96 66.56s-5.12 51.2 5.12 71.68c15.36 25.6 30.72 40.96 51.2 56.32s46.080 20.48 71.68 20.48l61.44-5.12c5.12 0 10.24 0 20.48 5.12 5.12 0 10.24 5.12 15.36 10.24 0 5.12 5.12 10.24 5.12 15.36s5.12 10.24 5.12 20.48l-5.12 56.32c0 25.6 5.12 51.2 20.48 71.68 10.24 20.48 30.72 35.84 56.32 46.080s51.2 10.24 71.68 5.12c25.6 0 46.080-15.36 66.56-35.84l40.96-46.080c0 0 0 0 0 0 5.12-5.12 10.24-10.24 15.36-10.24 10.24-5.12 25.6-5.12 35.84 0 5.12 5.12 10.24 5.12 15.36 10.24l40.96 46.080c15.36 20.48 40.96 30.72 61.44 35.84 25.6 5.12 51.2 5.12 71.68-5.12 25.6-5.12 46.080-25.6 56.32-46.080 15.36-20.48 20.48-46.080 20.48-71.68l-5.12-61.44c0-5.12 0-10.24 5.12-20.48 0-5.12 5.12-10.24 10.24-15.36s10.24-10.24 15.36-10.24c5.12 0 10.24-5.12 20.48-5.12l61.44 5.12c25.6 0 51.2-5.12 71.68-20.48s35.84-30.72 46.080-56.32c10.24-25.6 10.24-51.2 5.12-71.68-5.12-25.6-20.48-46.080-35.84-61.44l-46.080-40.96c-5.12-5.12-10.24-10.24-10.24-15.36-5.12-5.12-5.12-10.24-5.12-20.48s0-10.24 5.12-20.48c0-5.12 5.12-10.24 10.24-15.36l46.080-40.96c20.48-15.36 30.72-40.96 35.84-61.44 5.12-25.6 5.12-51.2-5.12-71.68-10.24-25.6-25.6-40.96-46.080-56.32s-46.080-20.48-71.68-20.48l-61.44 5.12c-5.12 0-10.24 0-20.48-5.12-5.12 0-10.24-5.12-15.36-10.24s-10.24-10.24-10.24-15.36c0-5.12-5.12-10.24-5.12-20.48l5.12-61.44c0-25.6-5.12-51.2-20.48-71.68s-30.72-35.84-56.32-46.080c-25.6-10.24-46.080-10.24-71.68-5.12s-46.080 20.48-61.44 35.84l-40.96 46.080c-5.12 5.12-10.24 10.24-15.36 10.24-10.24 5.12-25.6 5.12-35.84 0-5.12 0-10.24-5.12-15.36-10.24l-40.96-46.080c-15.36-20.48-40.96-30.72-61.44-35.84-15.36 5.12-20.48 5.12-30.72 5.12zM184.32 243.2c15.36 0 30.72-5.12 46.080-10.24s30.72-15.36 40.96-25.6c10.24-10.24 20.48-25.6 25.6-40.96s10.24-30.72 10.24-51.2l-5.12-61.44c0-10.24 0-20.48 5.12-25.6 5.12-10.24 10.24-15.36 20.48-15.36 10.24-5.12 20.48-5.12 25.6 0 10.24 0 15.36 5.12 25.6 15.36l40.96 46.080c15.36 5.12 25.6 15.36 40.96 20.48 30.72 15.36 66.56 15.36 97.28 0 15.36-5.12 30.72-15.36 40.96-30.72l40.96-46.080c5.12-5.12 15.36-10.24 25.6-15.36 10.24 0 20.48 0 25.6 0 10.24 5.12 15.36 10.24 20.48 15.36 5.12 10.24 5.12 15.36 5.12 25.6v71.68c0 15.36 0 35.84 10.24 51.2 5.12 15.36 15.36 30.72 25.6 40.96s25.6 20.48 40.96 25.6c15.36 5.12 30.72 10.24 51.2 10.24l61.44-5.12c10.24 0 20.48 0 25.6 5.12 10.24 5.12 15.36 10.24 15.36 20.48 5.12 10.24 5.12 20.48 0 25.6s-5.12 15.36-15.36 25.6l-46.080 40.96c-15.36 10.24-20.48 25.6-30.72 40.96-5.12 15.36-10.24 30.72-10.24 51.2 0 15.36 5.12 35.84 10.24 51.2s15.36 30.72 30.72 40.96l46.080 40.96c5.12 5.12 10.24 15.36 15.36 25.6 0 10.24 0 20.48 0 25.6-5.12 10.24-10.24 15.36-15.36 20.48-10.24 5.12-15.36 5.12-25.6 5.12l-61.44-5.12c-15.36 0-35.84 0-51.2 10.24-15.36 5.12-30.72 15.36-40.96 25.6s-20.48 25.6-25.6 40.96c-5.12 15.36-10.24 30.72-10.24 51.2l5.12 61.44c0 10.24 0 20.48-5.12 25.6-5.12 10.24-10.24 15.36-20.48 15.36-10.24 5.12-20.48 5.12-25.6 0-10.24 0-15.36-5.12-25.6-15.36l-40.96-46.080c-15.36-5.12-25.6-15.36-40.96-20.48-30.72-15.36-66.56-15.36-97.28 0-20.48 5.12-30.72 15.36-46.080 30.72l-40.96 40.96c-5.12 10.24-10.24 15.36-20.48 15.36s-20.48 0-25.6 0c-10.24-5.12-15.36-10.24-20.48-20.48-5.12-5.12-10.24-15.36-10.24-25.6l5.12-61.44c0-15.36 0-35.84-10.24-51.2-5.12-15.36-15.36-25.6-25.6-40.96-15.36-10.24-25.6-20.48-46.080-25.6-15.36-5.12-30.72-10.24-46.080-10.24l-61.44 5.12c-10.24 0-20.48 0-25.6-5.12-10.24-5.12-15.36-15.36-20.48-25.6 0-5.12 0-15.36 0-25.6s5.12-15.36 15.36-25.6l46.080-40.96c10.24-10.24 20.48-20.48 25.6-35.84s10.24-30.72 10.24-51.2-5.12-35.84-10.24-51.2c-5.12-15.36-15.36-30.72-30.72-40.96l-46.080-40.96c-5.12-5.12-10.24-15.36-15.36-25.6s0-20.48 0-25.6 10.24-15.36 15.36-20.48 15.36-5.12 25.6-5.12l71.68 5.12c0 0 5.12 0 5.12 0zM512 217.6c-128 0-230.4 102.4-230.4 230.4s102.4 230.4 230.4 230.4 230.4-102.4 230.4-230.4c0-128-102.4-230.4-230.4-230.4zM512 601.6c-87.040 0-153.6-66.56-153.6-153.6s66.56-153.6 153.6-153.6 153.6 66.56 153.6 153.6c0 87.040-66.56 153.6-153.6 153.6z" />
<glyph unicode="&#xe921;" glyph-name="chevron-thick" d="M645.12 79.36c-20.48 0-40.96 10.24-51.2 20.48l-276.48 276.48c-10.24 10.24-20.48 20.48-20.48 30.72-10.24 10.24-10.24 30.72-10.24 40.96s0 30.72 10.24 40.96c0 10.24 10.24 20.48 20.48 30.72l276.48 266.24c30.72 30.72 81.92 30.72 112.64 0s30.72-81.92 0-112.64l-245.76-225.28 235.52-235.52c30.72-30.72 30.72-81.92 0-112.64-10.24-10.24-30.72-20.48-51.2-20.48zM419.84 488.96v0c10.24 0 0 0 0 0z" />
<glyph unicode="&#xe922;" glyph-name="add-ons" d="M538.5 960c-25.445 0-49.882-10.135-67.875-28.125l-99.125-99.125c-5.252 14.553-11.188 28.939-19.875 41.938-21.094 31.573-51.044 56.157-86.125 70.687s-73.696 18.345-110.938 10.938c-37.241-7.408-71.463-25.713-98.312-52.563s-45.155-61.071-52.563-98.312c-7.408-37.242-3.593-75.857 10.938-110.938s39.115-65.030 70.687-86.125c12.999-8.687 27.384-14.623 41.938-19.875l-99.125-99.125c-17.99-17.993-28.125-42.43-28.125-67.875 0-25.443 10.139-49.881 28.125-67.875 0-0.009 0-0.021 0-0.032s0-0.023 0-0.034v0.002l90.063-89.812c5.792-5.795 13.795-9.38 22.636-9.38 13.185 0 24.507 7.973 29.409 19.361l0.080 0.208c8.149 19.338 20.903 36.385 37.188 49.625 16.284 13.237 35.533 22.283 56.125 26.313 0.009 0 0.020 0 0.031 0s0.022 0 0.033 0h-0.002c20.59 4.032 41.802 2.934 61.875-3.188 20.071-6.121 38.349-17.099 53.188-31.937s25.816-33.117 31.937-53.188c6.122-20.074 7.219-41.284 3.188-61.875 0-0.009 0-0.021 0-0.032s0-0.023 0-0.034v0.002c-4.029-20.592-13.076-39.842-26.313-56.125-13.239-16.283-30.288-29.038-49.625-37.187-11.595-4.982-19.568-16.304-19.568-29.488 0-8.841 3.585-16.844 9.38-22.636v0l89.875-89.937c17.995-17.99 42.433-28.063 67.875-28.063 25.423 0 49.823 10.095 67.813 28.063l99.187 99.062c5.254-14.572 11.18-28.985 19.875-42 21.097-31.566 51.040-56.157 86.125-70.688 35.078-14.529 73.693-18.349 110.938-10.938 37.241 7.407 71.463 25.709 98.312 52.563 26.852 26.848 45.156 61.068 52.563 98.312 7.407 37.24 3.592 75.858-10.938 110.938s-39.116 65.027-70.688 86.125c-12.998 8.685-27.385 14.623-41.938 19.875l99.125 99.125c17.989 17.995 28.125 42.433 28.125 67.877 0 25.442-10.14 49.88-28.125 67.875 0 0.009 0 0.021 0 0.032s0 0.023 0 0.034v-0.002l-90.062 89.812c-5.792 5.796-13.796 9.38-22.637 9.38-13.184 0-24.507-7.973-29.409-19.36l-0.080-0.208c-8.148-19.335-20.906-36.385-37.187-49.625-16.283-13.236-35.533-22.283-56.125-26.313-0.009 0-0.021 0-0.032 0s-0.023 0-0.034 0h0.002c-20.591-4.032-41.801-2.935-61.875 3.188-20.069 6.12-38.348 17.098-53.186 31.936s-25.816 33.117-31.937 53.188c-6.123 20.069-7.217 41.342-3.188 61.937 4.038 20.573 13.088 39.856 26.313 56.125 13.24 16.284 30.286 29.038 49.625 37.188 11.595 4.982 19.568 16.304 19.568 29.488 0 8.841-3.585 16.844-9.38 22.636v0l-89.812 90.063c-0.009 0-0.021 0-0.032 0s-0.023 0-0.034 0h0.002c-17.993 17.986-42.43 28.125-67.874 28.125zM538.5 896c8.496 0 16.613-3.365 22.625-9.375l64.5-64.625c-13.154-9.646-28.509-16.376-38.875-29.125-19.851-24.42-33.39-53.364-39.437-84.25-6.044-30.886-4.373-62.769 4.812-92.875 9.181-30.105 25.619-57.494 47.875-79.75s49.645-38.694 79.75-47.875c30.102-9.18 61.985-10.861 92.875-4.812 30.889 6.044 59.829 19.586 84.25 39.437 0 0.009 0 0.021 0 0.032s0 0.023 0 0.034v-0.002c12.741 10.361 19.483 25.667 29.125 38.812l64.625-64.5c6.009-6.013 9.375-14.129 9.375-22.626 0-8.502-3.37-16.618-9.375-22.625l-141.25-141.25c-5.787-5.791-9.366-13.788-9.366-22.622 0-17.67 14.321-31.996 31.99-32.003h0.001c25.32 0 50.076-7.497 71.125-21.562 21.055-14.070 37.438-34.048 47.125-57.438s12.251-49.167 7.313-74c-4.939-24.835-17.159-47.6-35.062-65.5-17.899-17.902-40.668-30.124-65.5-35.062-0.009 0-0.021 0-0.032 0s-0.023 0-0.034 0h0.002c-24.828-4.941-50.543-2.376-73.936 7.313-23.391 9.687-43.366 26.071-57.438 47.125-14.066 21.054-21.562 45.805-21.562 71.125-0.007 17.669-14.333 31.991-32.003 31.991-8.834 0-16.831-3.579-22.622-9.366l-141.25-141.062c0-0.009 0-0.021 0-0.032s0-0.023 0-0.034v0.002c-6.006-6.006-14.123-9.313-22.625-9.313-8.497 0-16.614 3.365-22.625 9.375l-64.438 64.439c13.138 9.639 28.457 16.388 38.813 29.125 19.852 24.421 33.393 53.361 39.437 84.25 6.048 30.89 4.368 62.773-4.812 92.875-9.181 30.105-25.619 57.494-47.875 79.75s-49.645 38.694-79.75 47.875c-30.102 9.18-61.984 10.861-92.875 4.812-30.889-6.044-59.83-19.586-84.25-39.437-12.749-10.366-19.479-25.721-29.125-38.875l-64.625 64.5c-6.010 6.012-9.375 14.129-9.375 22.625 0 8.501 3.369 16.618 9.375 22.625l141.25 141.25c5.787 5.791 9.366 13.788 9.366 22.622 0 17.67-14.321 31.996-31.99 32.003h-0.001c-25.32 0-50.074 7.495-71.125 21.562-21.051 14.065-37.436 34.046-47.125 57.438s-12.252 49.167-7.312 74c4.94 24.832 17.16 47.597 35.062 65.5s40.668 30.123 65.5 35.062c24.833 4.94 50.608 2.377 74-7.312s43.373-26.074 57.438-47.125c14.068-21.051 21.562-45.805 21.562-71.125 0.007-17.669 14.333-31.991 32.003-31.991 8.834 0 16.831 3.579 22.622 9.366l141.25 141.25c6.007 6.006 14.124 9.375 22.625 9.375z" />
<glyph unicode="&#xe923;" glyph-name="warning" d="M496 235.5c-10.531 0-20.858-3.062-29.6-8.9-8.784-5.865-15.578-14.194-19.6-23.9-4.029-9.724-5.050-20.488-3-30.8 2.052-10.314 7.156-19.756 14.6-27.2 0-0.015 0-0.033 0-0.051s0-0.036 0-0.054v0.003c7.428-7.41 16.883-12.443 27.2-14.5 10.358-2.065 21.109-1.010 30.8 3 9.724 4.025 17.951 10.85 23.8 19.6 0.015 0 0.033 0 0.051 0s0.036 0 0.054 0h-0.003c5.815 8.717 8.9 19.080 8.9 29.6 0 14.102-5.621 27.621-15.6 37.6-9.976 9.974-23.504 15.603-37.602 15.603zM500.6 205.4c4.566-0.91 8.719-3.127 12-6.4h0.102c3.297-3.297 5.493-7.541 6.4-12.1 0.906-4.557 0.486-9.293-1.3-13.6-1.777-4.289-4.793-7.992-8.7-10.6-3.866-2.582-8.433-4-13.1-4-6.235 0-12.288 2.489-16.7 6.9-4.419 4.419-6.9 10.462-6.9 16.7 0 4.653 1.443 9.267 4 13.1 2.591 3.876 6.294 6.918 10.6 8.7 4.272 1.768 8.995 2.218 13.6 1.3zM496 650.7c-21.208 0-38.4-17.192-38.4-38.4v0-296.6c0-21.208 17.192-38.4 38.4-38.4v0c21.208 0 38.4 17.192 38.4 38.4v0 296.6c0 21.208-17.192 38.4-38.4 38.4v0zM496 947.2c-20.522 0-40.683-5.751-58.1-16.6-17.417-10.85-31.452-26.381-40.5-44.8l-374.5-763c-7.387-15.025-10.84-31.678-10-48.4s5.944-32.99 14.8-47.2c8.856-14.211 21.156-25.879 35.8-34 14.651-8.134 31.165-12.408 47.9-12.4h769.2c16.702-0.008 33.166 4.293 47.8 12.4 14.648 8.121 27.045 19.781 35.9 34 8.857 14.207 13.961 30.468 14.8 47.2 0.839 16.726-2.621 33.383-10 48.4l-374.5 763c-9.047 18.422-23.087 33.95-40.5 44.8-17.417 10.847-37.579 16.6-58.1 16.6zM496 870.4c6.139 0 12.176-1.768 17.4-5 5.238-3.263 9.481-7.963 12.2-13.5l374.6-762.9c0-0.015 0-0.033 0-0.051s0-0.036 0-0.054v0.003c1.633-3.323 2.385-6.918 2.2-10.6-0.184-3.687-1.343-7.261-3.3-10.4 0-0.015 0-0.033 0-0.051s0-0.036 0-0.054v0.003c-1.948-3.128-4.669-5.709-7.9-7.5-3.213-1.784-6.896-2.702-10.6-2.7h-769.2c-3.705 0.003-7.377 0.916-10.6 2.705-3.23 1.791-5.946 4.465-7.9 7.6s-3.114 6.704-3.3 10.4c-0.185 3.686 0.571 7.286 2.2 10.6 0 0.015 0 0.033 0 0.051s0 0.036 0 0.054v-0.003l374.6 762.998c2.722 5.51 6.883 10.15 12.1 13.4 5.24 3.264 11.328 5 17.5 5z" />
</font>
</defs>
</svg>
