<?xml version="1.0" encoding="UTF-8"?> <svg xmlns="http://www.w3.org/2000/svg" xmlns:xlink="http://www.w3.org/1999/xlink" width="1887px" height="533px" viewBox="0 0 1887 533" version="1.1"><!-- Generator: Sketch 60.1 (88133) - https://sketch.com --><title>Logo </title><desc>Created with Sketch.</desc><defs><linearGradient x1="-12.3982067%" y1="-10.4784219%" x2="85.5188112%" y2="99.2256363%" id="linearGradient-1"><stop stop-color="#6590FF" offset="0%"></stop><stop stop-color="#4DC9E2" offset="50.707348%"></stop><stop stop-color="#35FFC6" offset="100%"></stop></linearGradient></defs><g id="Logo-" stroke="none" stroke-width="1" fill="none" fill-rule="evenodd"><g id="Atom/Logos/Logo/Complete/Colored" fill-rule="nonzero"><path d="M870.590785,125.649648 L839.400586,125.649648 L839.400586,230.698028 L803.366112,230.698028 L803.366112,125.649648 L783.521912,125.649648 L783.521912,108.280986 L803.366112,98.5907042 L803.366112,88.9004225 C803.366112,73.8526056 807.072773,62.8662676 814.471028,55.9338732 C821.876817,49.0014789 833.727586,45.5352817 850.030869,45.5352817 C862.476813,45.5352817 873.536526,47.3814085 883.23261,51.0811972 L874.018693,77.5523944 C866.771116,75.2692254 860.07351,74.1314085 853.93341,74.1314085 C848.810382,74.1314085 845.111255,75.6459859 842.828494,78.6751408 C840.545733,81.711831 839.400586,85.5849296 839.400586,90.3170423 L839.400586,98.5907042 L870.590785,98.5907042 L870.590785,125.649648" id="Fill-3510" fill="#303C50"></path><path d="M944.196641,123.916549 C936.557303,123.916549 930.56788,126.335352 926.243442,131.188028 C921.903936,136.033169 919.425295,142.905282 918.799984,151.804366 L969.359749,151.804366 C969.201538,142.905282 966.873574,136.033169 962.390924,131.188028 C957.900741,126.335352 951.83598,123.916549 944.196641,123.916549 Z M949.282,235.22669 C928.0139,235.22669 911.394195,229.364296 899.407817,217.624437 C887.451574,205.884577 881.462151,189.261901 881.462151,167.756408 C881.462151,145.625493 886.999542,128.513028 898.059255,116.419014 C909.118968,104.317465 924.427781,98.2817606 943.963092,98.2817606 C962.632008,98.2817606 977.157299,103.594085 987.554032,114.226268 C997.950765,124.865986 1003.1416,139.552113 1003.1416,158.307254 L1003.1416,175.796479 L917.971259,175.796479 C918.36302,186.036831 921.3841,194.03169 927.064633,199.781056 C932.737633,205.530423 940.693394,208.408873 950.931916,208.408873 C958.887677,208.408873 966.414008,207.587535 973.488307,205.929789 C980.585207,204.272042 987.990996,201.634718 995.705673,198.010282 L995.705673,225.898099 C989.407363,229.047817 982.672088,231.391268 975.507382,232.928451 C968.335143,234.465634 959.595861,235.22669 949.282,235.22669 L949.282,235.22669 Z" id="Fill-3511" fill="#303C50"></path><path d="M1087.34007,123.916549 C1079.70073,123.916549 1073.71131,126.335352 1069.37933,131.188028 C1065.04736,136.033169 1062.56872,142.905282 1061.93588,151.804366 L1112.50318,151.804366 C1112.34496,142.905282 1110.02453,136.033169 1105.53435,131.188028 C1101.04417,126.335352 1094.97187,123.916549 1087.34007,123.916549 Z M1092.41789,235.22669 C1071.14979,235.22669 1054.53009,229.364296 1042.55878,217.624437 C1030.58747,205.884577 1024.60558,189.261901 1024.60558,167.756408 C1024.60558,145.625493 1030.13543,128.513028 1041.20268,116.419014 C1052.26993,104.317465 1067.56367,98.2817606 1087.09898,98.2817606 C1105.7679,98.2817606 1120.30073,103.594085 1130.69746,114.226268 C1141.09419,124.865986 1146.29256,139.552113 1146.29256,158.307254 L1146.29256,175.796479 L1061.10715,175.796479 C1061.50645,186.036831 1064.52753,194.03169 1070.20806,199.781056 C1075.87353,205.530423 1083.83682,208.408873 1094.06781,208.408873 C1102.0311,208.408873 1109.5499,207.587535 1116.63927,205.929789 C1123.72863,204.272042 1131.12689,201.634718 1138.8491,198.010282 L1138.8491,225.898099 C1132.54325,229.047817 1125.81551,231.391268 1118.65081,232.928451 C1111.47104,234.465634 1102.73175,235.22669 1092.41789,235.22669 L1092.41789,235.22669 Z" id="Fill-3512" fill="#303C50"></path><path d="M1230.24241,203.051338 C1239.46386,203.051338 1246.2142,200.368803 1250.50851,195.018803 C1254.78774,189.661268 1257.14584,180.566268 1257.5376,167.718732 L1257.5376,163.823028 C1257.5376,149.641761 1255.35278,139.484296 1250.98314,133.335563 C1246.6135,127.194366 1239.50153,124.12 1229.65477,124.12 C1221.62367,124.12 1215.3781,127.525915 1210.92558,134.337746 C1206.47307,141.149577 1204.25811,151.05838 1204.25811,164.05662 C1204.25811,177.054859 1206.49567,186.805423 1210.98585,193.300775 C1215.47604,199.796127 1221.89489,203.051338 1230.24241,203.051338 Z M1217.60059,231.760493 C1202.08836,231.760493 1189.89857,225.739859 1181.03874,213.683521 C1172.17892,201.627183 1167.749,184.93669 1167.749,163.589437 C1167.749,141.925704 1172.25425,125.046831 1181.27229,112.952817 C1190.29033,100.851268 1202.71367,94.8155634 1218.54985,94.8155634 C1235.16956,94.8155634 1247.84905,101.273239 1256.58833,114.188592 L1257.77869,114.188592 C1255.96302,104.34007 1255.05896,95.5540141 1255.05896,87.8379577 L1255.05896,45.5352817 L1291.21398,45.5352817 L1291.21398,229.401972 L1263.56469,229.401972 L1256.58833,212.274437 L1255.05896,212.274437 C1246.86212,225.265141 1234.3785,231.760493 1217.60059,231.760493 L1217.60059,231.760493 Z" id="Fill-3513" fill="#303C50"></path><path d="M1395.39979,123.645282 C1386.50229,123.645282 1380.00057,126.380563 1375.90968,131.858662 C1371.81126,137.329225 1369.68671,146.379014 1369.5285,158.970352 L1369.5285,162.873592 C1369.5285,177.054859 1371.63045,187.212324 1375.84188,193.361056 C1380.06084,199.502254 1386.73584,202.57662 1395.87442,202.57662 C1403.28021,202.57662 1409.16416,199.170704 1413.52627,192.358873 C1417.91098,185.547042 1420.0958,175.630704 1420.0958,162.64 C1420.0958,149.641761 1417.88837,139.891197 1413.48106,133.395845 C1409.06622,126.892958 1403.03913,123.645282 1395.39979,123.645282 Z M1406.97934,94.8155634 C1422.57444,94.8155634 1434.7793,100.896479 1443.60145,113.07338 C1452.42361,125.242746 1456.83845,141.925704 1456.83845,163.107183 C1456.83845,184.93669 1452.28047,201.830634 1443.18709,213.804085 C1434.09372,225.78507 1421.70804,231.760493 1406.03007,231.760493 C1390.51784,231.760493 1378.35065,226.13169 1369.5285,214.866549 L1367.04986,214.866549 L1361.02276,229.401972 L1333.49402,229.401972 L1333.49402,45.5352817 L1369.5285,45.5352817 L1369.5285,88.3126761 C1369.5285,93.7455634 1369.05386,102.448732 1368.11213,114.422183 L1369.5285,114.422183 C1377.95136,101.348592 1390.44251,94.8155634 1406.97934,94.8155634 L1406.97934,94.8155634 Z" id="Fill-3514" fill="#303C50"></path><path d="M1558.6285,171.900775 L1544.69085,172.367958 C1534.21124,172.684437 1526.41369,174.575775 1521.2982,178.041972 C1516.17517,181.508169 1513.62119,186.790352 1513.62119,193.880986 C1513.62119,204.045986 1519.44487,209.117183 1531.10729,209.117183 C1539.43975,209.117183 1546.12982,206.720986 1551.1323,201.913521 C1556.12725,197.113592 1558.6285,190.731268 1558.6285,182.766549 L1558.6285,171.900775 Z M1569.25878,233.109296 L1562.29749,215.145352 L1561.34822,215.145352 C1555.28346,222.793592 1549.03789,228.090845 1542.61904,231.044648 C1536.20018,233.990915 1527.83006,235.467817 1517.5162,235.467817 C1504.83671,235.467817 1494.8468,231.850915 1487.56909,224.602042 C1480.27631,217.353169 1476.63745,207.037465 1476.63745,193.647394 C1476.63745,179.616831 1481.542,169.278521 1491.35109,162.62493 C1501.15265,155.971338 1515.94162,152.28662 1535.71048,151.57831 L1558.6285,150.862465 L1558.6285,145.082958 C1558.6285,131.685352 1551.78022,124.994085 1538.07612,124.994085 C1527.5061,124.994085 1515.1129,128.173944 1500.85882,134.556268 L1488.92518,110.21 C1504.11345,102.260352 1520.98178,98.2817606 1539.49248,98.2817606 C1557.21213,98.2817606 1570.80322,102.139789 1580.25069,109.86338 C1589.70569,117.579437 1594.42942,129.326831 1594.42942,145.082958 L1594.42942,233.109296 L1569.25878,233.109296 L1569.25878,233.109296 Z" id="Fill-3515" fill="#303C50"></path><path d="M1681.45309,235.22669 C1640.33326,235.22669 1619.78088,212.658732 1619.78088,167.522817 C1619.78088,145.075423 1625.371,127.917746 1636.55126,116.057324 C1647.73905,104.204437 1663.77111,98.2817606 1684.63992,98.2817606 C1699.91859,98.2817606 1713.62269,101.273239 1725.75222,107.256197 L1715.1144,135.144014 C1709.44893,132.860845 1704.17523,130.992113 1699.28575,129.530282 C1694.4038,128.075986 1689.51433,127.34507 1684.63992,127.34507 C1665.89566,127.34507 1656.52353,140.659789 1656.52353,167.289225 C1656.52353,193.127465 1665.89566,206.042817 1684.63992,206.042817 C1691.56354,206.042817 1697.98992,205.115986 1703.89647,203.262324 C1709.80302,201.416197 1715.70957,198.522676 1721.61612,194.581761 L1721.61612,225.42338 C1715.78491,229.130704 1709.90096,231.685141 1703.95675,233.101761 C1697.99746,234.525915 1690.5088,235.22669 1681.45309,235.22669" id="Fill-3516" fill="#303C50"></path><polyline id="Fill-3517" fill="#303C50" points="1790.00101 157.561268 1805.70912 137.472394 1842.70039 97.2946479 1883.34559 97.2946479 1830.88729 154.59993 1886.53242 229.401972 1844.94549 229.401972 1806.907 175.879366 1791.42491 188.282324 1791.42491 229.401972 1755.39044 229.401972 1755.39044 45.5352817 1791.42491 45.5352817 1791.42491 127.540986 1789.53391 157.561268 1790.00101 157.561268"></polyline><path d="M850.015801,466.113099 C831.264012,466.113099 816.753789,460.341127 806.477598,448.804718 C796.193873,437.260775 791.055777,420.939507 791.055777,399.81831 C791.055777,378.162113 796.276745,361.418873 806.711147,349.603662 C817.14555,337.780915 832.002331,331.87331 851.311625,331.87331 C857.534598,331.87331 863.75757,332.543944 869.980542,333.885211 C876.19598,335.226479 881.085458,336.801338 884.626375,338.609789 L878.599283,355.270141 C874.267311,353.537042 869.543578,352.105352 864.428084,350.952465 C859.305056,349.814648 854.769669,349.249507 850.836992,349.249507 C824.528737,349.249507 811.37461,366.022887 811.37461,399.584718 C811.37461,415.499085 814.584036,427.706127 821.010422,436.21338 C827.429275,444.728169 836.937012,448.978028 849.541167,448.978028 C860.329661,448.978028 871.396908,446.657183 882.735375,442.000423 L882.735375,459.37662 C874.07143,463.867606 863.162394,466.113099 850.015801,466.113099" id="Fill-3518" fill="#303C50"></path><path d="M924.390112,398.876408 C924.390112,415.416197 927.705012,428.022606 934.319745,436.688099 C940.934478,445.353592 950.660697,449.686338 963.498402,449.686338 C976.336108,449.686338 986.084928,445.376197 992.744865,436.74838 C999.397267,428.120563 1002.72724,415.499085 1002.72724,398.876408 C1002.72724,382.411972 999.397267,369.903521 992.744865,361.351056 C986.084928,352.813662 976.260769,348.533662 963.264853,348.533662 C950.427147,348.533662 940.738598,352.75338 934.199203,361.177746 C927.659809,369.609648 924.390112,382.170845 924.390112,398.876408 Z M1023.04607,398.876408 C1023.04607,419.99007 1017.72716,436.469577 1007.09688,448.322465 C996.466594,460.190423 981.76049,466.113099 963.031303,466.113099 C951.451753,466.113099 941.168028,463.392887 932.187661,457.96 C923.214829,452.519577 916.283673,444.728169 911.401729,434.563169 C906.512251,424.405704 904.063745,412.50007 904.063745,398.876408 C904.063745,377.762746 909.352518,361.31338 919.907462,349.54338 C930.454873,337.765845 945.108239,331.87331 963.84496,331.87331 C981.971438,331.87331 996.36112,337.901479 1007.03661,349.957817 C1017.69702,362.00662 1023.04607,378.312817 1023.04607,398.876408 L1023.04607,398.876408 Z" id="Fill-3519" fill="#303C50"></path><path d="M1227.33434,463.747042 L1227.33434,379.495845 C1227.33434,369.172606 1225.12692,361.433944 1220.71961,356.279859 C1216.30476,351.118239 1209.45648,348.533662 1200.15969,348.533662 C1187.95483,348.533662 1178.92926,352.04507 1173.10558,359.052817 C1167.26684,366.060563 1164.35876,376.858521 1164.35876,391.43162 L1164.35876,463.747042 L1144.74812,463.747042 L1144.74812,379.495845 C1144.74812,369.172606 1142.54069,361.433944 1138.13338,356.279859 C1133.71854,351.118239 1126.83259,348.533662 1117.46046,348.533662 C1105.17273,348.533662 1096.16976,352.21838 1090.45909,359.587817 C1084.74842,366.957254 1081.88555,379.021127 1081.88555,395.802042 L1081.88555,463.747042 L1062.2749,463.747042 L1062.2749,334.239366 L1078.23163,334.239366 L1081.41845,351.962183 L1082.36772,351.962183 C1086.07438,345.655211 1091.28781,340.734718 1098.02309,337.193169 C1104.75836,333.65162 1112.29976,331.87331 1120.63975,331.87331 C1140.89078,331.87331 1154.12024,339.20507 1160.34322,353.853521 L1161.29248,353.853521 C1165.14982,347.079366 1170.73995,341.721831 1178.0704,337.780915 C1185.39331,333.847535 1193.74084,331.87331 1203.11296,331.87331 C1217.76633,331.87331 1228.7281,335.63338 1236.01335,343.153521 C1243.2986,350.681197 1246.94499,362.71493 1246.94499,379.254718 L1246.94499,463.747042 L1227.33434,463.747042" id="Fill-3520" fill="#303C50"></path><path d="M1345.71395,348.533662 C1332.47695,348.533662 1322.90894,352.20331 1317.00239,359.527535 C1311.09584,366.851761 1308.05216,378.516268 1307.90149,394.505986 L1307.90149,398.876408 C1307.90149,417.073944 1310.93763,430.087254 1317.00239,437.923873 C1323.06716,445.768028 1332.79337,449.686338 1346.18105,449.686338 C1357.36884,449.686338 1366.13073,445.157676 1372.47424,436.092817 C1378.81022,427.035493 1381.98198,414.549648 1381.98198,398.642817 C1381.98198,382.487324 1378.81022,370.099437 1372.47424,361.479155 C1366.13073,352.843803 1357.21063,348.533662 1345.71395,348.533662 Z M1348.54669,466.113099 C1340.11629,466.113099 1332.40915,464.560845 1325.44786,461.448803 C1318.47903,458.329225 1312.62522,453.551901 1307.90149,447.08669 L1306.48512,447.08669 C1307.42685,454.652042 1307.90149,461.818028 1307.90149,468.592183 L1307.90149,521.888732 L1288.29084,521.888732 L1288.29084,334.239366 L1304.24003,334.239366 L1306.95975,351.962183 L1307.90149,351.962183 C1312.94164,344.871549 1318.81052,339.755141 1325.50813,336.597887 C1332.20573,333.448169 1339.88274,331.87331 1348.54669,331.87331 C1365.71636,331.87331 1378.96843,337.750775 1388.30289,349.483099 C1397.63735,361.222958 1402.30081,377.679859 1402.30081,398.876408 C1402.30081,420.140775 1397.55447,436.665493 1388.06934,448.443028 C1378.57667,460.220563 1365.39994,466.113099 1348.54669,466.113099 L1348.54669,466.113099 Z" id="Fill-3521" fill="#303C50"></path><path d="M1468.92277,449.678803 C1481.12763,449.678803 1490.71824,446.333169 1497.68707,439.634366 C1504.66343,432.943099 1508.14407,423.561761 1508.14407,411.512958 L1508.14407,399.81831 L1488.53342,400.639648 C1472.93832,401.197254 1461.6978,403.616056 1454.80431,407.911127 C1447.91082,412.206197 1444.46785,418.874859 1444.46785,427.939718 C1444.46785,435.030352 1446.60747,440.425563 1450.90177,444.125352 C1455.19607,447.832676 1461.20056,449.678803 1468.92277,449.678803 Z M1513.2219,463.505915 L1509.32689,445.074789 L1508.37762,445.074789 C1501.9211,453.190211 1495.47965,458.68338 1489.06079,461.554296 C1482.64194,464.432746 1474.63344,465.871972 1465.02776,465.871972 C1452.18253,465.871972 1442.10975,462.564014 1434.83957,455.940563 C1427.54679,449.324648 1423.9004,439.913169 1423.9004,427.698592 C1423.9004,401.551408 1444.82194,387.837324 1486.64242,386.578944 L1508.61871,385.870634 L1508.61871,377.838099 C1508.61871,367.673099 1506.43388,360.168028 1502.05671,355.330423 C1497.68707,350.477746 1490.69564,348.058944 1481.08996,348.058944 C1470.30147,348.058944 1458.08908,351.366901 1444.46785,357.982817 L1438.44076,342.980211 C1444.82194,339.514014 1451.81337,336.793803 1459.39997,334.827113 C1467.00917,332.852887 1474.63344,331.87331 1482.27278,331.87331 C1497.70967,331.87331 1509.14608,335.301831 1516.58953,342.151338 C1524.03299,349.00838 1527.75472,359.994718 1527.75472,375.117887 L1527.75472,463.505915 L1513.2219,463.505915 L1513.2219,463.505915 Z" id="Fill-3522" fill="#303C50"></path><path d="M1655.64961,463.747042 L1655.64961,379.970563 C1655.64961,369.413732 1653.2463,361.539437 1648.44723,356.332606 C1643.64063,351.13331 1636.11429,348.533662 1625.88331,348.533662 C1612.32988,348.533662 1602.40778,352.20331 1596.10194,359.527535 C1589.80363,366.851761 1586.64694,378.945775 1586.64694,395.802042 L1586.64694,463.747042 L1567.04382,463.747042 L1567.04382,334.239366 L1582.99302,334.239366 L1586.17984,351.962183 L1587.12157,351.962183 C1591.14466,345.587394 1596.77245,340.636761 1604.02003,337.140423 C1611.26761,333.629014 1619.33638,331.87331 1628.23387,331.87331 C1643.83651,331.87331 1655.56673,335.63338 1663.44716,343.153521 C1671.32004,350.681197 1675.26025,362.71493 1675.26025,379.254718 L1675.26025,463.747042 L1655.64961,463.747042" id="Fill-3523" fill="#303C50"></path><path d="M1695.11952,339.408521 L1716.15407,339.408521 L1744.51154,413.261127 C1750.72698,430.12493 1754.58431,442.294296 1756.08355,449.776761 L1757.03282,449.776761 C1758.04989,445.760493 1760.20458,438.88838 1763.47427,429.152887 C1766.73644,419.42493 1777.42699,389.510141 1795.54594,339.408521 L1816.57295,339.408521 L1760.92783,486.880141 C1755.41304,501.453239 1748.97912,511.791549 1741.611,517.89507 C1734.25041,524.006127 1725.20224,527.057887 1714.49662,527.057887 C1708.51473,527.057887 1702.60065,526.387254 1696.77697,525.045986 L1696.77697,509.33507 C1701.10894,510.276972 1705.95322,510.75169 1711.3098,510.75169 C1724.78035,510.75169 1734.38602,503.186338 1740.12683,488.055634 L1747.34427,469.624507 L1695.11952,339.408521" id="Fill-3524" fill="#303C50"></path><g id="Atom/Logos/Logo/Mark/Colored" fill="url(#linearGradient-1)"><path d="M213.750805,226.380352 C223.00239,226.380352 230.498586,233.877887 230.498586,243.123592 C230.498586,252.376831 223.00239,259.874366 213.750805,259.874366 L185.845371,259.874366 C176.608853,259.874366 169.105124,267.386972 169.105124,276.617606 L169.105124,484.664789 L217.653347,452.466831 C220.395673,450.64331 223.612633,449.671268 226.904932,449.671268 L342.127857,449.671268 C351.356841,449.671268 358.868104,442.158662 358.868104,432.928028 L358.868104,352.022465 C358.868104,342.776761 366.364299,335.27169 375.608351,335.27169 C384.859936,335.27169 392.356131,342.776761 392.356131,352.022465 L392.356131,432.928028 C392.356131,460.627465 369.822343,483.165282 342.127857,483.165282 L231.952622,483.165282 L161.616462,529.830845 C158.821398,531.676972 155.589371,532.618873 152.357343,532.618873 C149.637618,532.618873 146.917892,531.955775 144.439251,530.629577 C139.007335,527.705915 135.609562,522.039437 135.609562,515.868099 L135.609562,276.617606 C135.609562,248.918169 158.150884,226.380352 185.845371,226.380352 L213.750805,226.380352 Z M212.809072,83.211338 C221.563422,83.211338 229.549319,89.5107746 230.415713,98.2214789 C231.425251,108.250845 223.574964,116.705352 213.765873,116.705352 L50.2282749,116.705352 C40.9842231,116.705352 33.4955618,124.202887 33.4955618,133.448592 L33.4955618,341.495775 L65.8233745,320.050563 C74.359243,314.384085 85.931259,317.646831 90.2632311,326.930211 C93.7589442,334.442817 91.2350996,343.379577 84.3340797,347.960986 L26.0069004,386.654296 C23.2118367,388.507958 19.9798088,389.442324 16.7477809,389.442324 C14.0280558,389.442324 11.3158645,388.786761 8.82968924,387.453028 C3.39777291,384.536901 5.13367127e-13,378.862887 5.13367127e-13,372.699085 L5.13367127e-13,133.448592 C5.13367127e-13,105.703944 22.4961195,83.211338 50.2282749,83.211338 L212.809072,83.211338 Z M514.043112,0.324014085 C541.745131,0.324014085 564.27892,22.861831 564.27892,50.5612676 L564.27892,324.971056 C564.27892,331.142394 560.888681,336.808873 555.456765,339.725 C552.963056,341.058732 550.250865,341.721831 547.531139,341.721831 C544.299112,341.721831 541.074618,340.77993 538.279554,338.926268 L458.330183,285.893451 L328.981263,285.893451 C301.294311,285.893451 278.752988,263.355634 278.752988,235.648662 L278.752988,50.5612676 C278.752988,22.861831 301.294311,0.324014085 328.981263,0.324014085 L514.043112,0.324014085 Z M514.043112,33.8180282 L328.981263,33.8180282 C319.759813,33.8180282 312.24855,41.3306338 312.24855,50.5612676 L312.24855,235.648662 C312.24855,244.886831 319.759813,252.399437 328.981263,252.399437 L463.377873,252.399437 C466.670171,252.399437 469.887131,253.371479 472.629458,255.195 L530.790892,293.767746 L530.790892,50.5612676 C530.790892,41.3306338 523.279629,33.8180282 514.043112,33.8180282 Z" id="Combined-Shape"></path></g></g></g></svg> 