<svg width="33" height="32" viewBox="0 0 33 32" fill="none" xmlns="http://www.w3.org/2000/svg">
<path fill-rule="evenodd" clip-rule="evenodd" d="M16.5 32C25.3366 32 32.5 24.8366 32.5 16C32.5 7.16344 25.3366 0 16.5 0C7.66344 0 0.5 7.16344 0.5 16C0.5 24.8366 7.66344 32 16.5 32ZM15 21.4141C15 20.5857 15.6716 19.9141 16.5 19.9141C17.3284 19.9141 18 20.5857 18 21.4141C18 22.2425 17.3284 22.9141 16.5 22.9141C15.6716 22.9141 15 22.2425 15 21.4141ZM16.5 18.4028C15.9872 18.4028 15.5645 18.0167 15.5067 17.5194L15.5 17.4028V10C15.5 9.44772 15.9477 9 16.5 9C17.0128 9 17.4355 9.38604 17.4933 9.88338L17.5 10V17.4028C17.5 17.955 17.0523 18.4028 16.5 18.4028Z" fill="#7C3711"/>
</svg>
