<svg height="246" viewBox="0 0 260 246" width="260" xmlns="http://www.w3.org/2000/svg" xmlns:xlink="http://www.w3.org/1999/xlink"><defs><path id="a" d="m38.5014035 56.6240933v-10.3409885c0-6.344771 5.1863776-11.4899872 11.5844931-11.4899872s11.5844931 5.1452162 11.5844931 11.4899872v10.3409885"/><filter id="b" height="113.7%" width="112.9%" x="-6.5%" y="-6.9%"><feMorphology in="SourceAlpha" operator="dilate" radius="1" result="shadowSpreadOuter1"/><feOffset dx="0" dy="0" in="shadowSpreadOuter1" result="shadowOffsetOuter1"/><feMorphology in="SourceAlpha" operator="erode" radius="1.5" result="shadowInner"/><feOffset dx="0" dy="0" in="shadowInner" result="shadowInner"/><feComposite in="shadowOffsetOuter1" in2="shadowInner" operator="out" result="shadowOffsetOuter1"/><feColorMatrix in="shadowOffsetOuter1" type="matrix" values="0 0 0 0 1   0 0 0 0 1   0 0 0 0 1  0 0 0 1 0"/></filter><path id="c" d="m68.144077 81.2284334c0 1.2934854-1.0379706 2.3432705-2.3168986 2.3432705h-30.1196821c-1.278928 0-2.3168986-1.0497851-2.3168986-2.3432705v-22.2610696c0-1.2934853 1.0379706-2.3432705 2.3168986-2.3432705h30.1196821c1.278928 0 2.3168986 1.0497852 2.3168986 2.3432705z"/><filter id="d" height="148.2%" width="137.4%" x="-18.7%" y="-24.1%"><feMorphology in="SourceAlpha" operator="dilate" radius="2.5" result="shadowSpreadOuter1"/><feOffset dx="0" dy="0" in="shadowSpreadOuter1" result="shadowOffsetOuter1"/><feComposite in="shadowOffsetOuter1" in2="SourceAlpha" operator="out" result="shadowOffsetOuter1"/><feColorMatrix in="shadowOffsetOuter1" type="matrix" values="0 0 0 0 1   0 0 0 0 1   0 0 0 0 1  0 0 0 1 0"/></filter><ellipse id="e" cx="14.146855" cy="14.162991" rx="14.146855" ry="14.162991"/><filter id="f" height="124.7%" width="124.7%" x="-12.4%" y="-12.4%"><feMorphology in="SourceAlpha" operator="dilate" radius="1.5" result="shadowSpreadOuter1"/><feOffset dx="0" dy="0" in="shadowSpreadOuter1" result="shadowOffsetOuter1"/><feComposite in="shadowOffsetOuter1" in2="SourceAlpha" operator="out" result="shadowOffsetOuter1"/><feColorMatrix in="shadowOffsetOuter1" type="matrix" values="0 0 0 0 1   0 0 0 0 1   0 0 0 0 1  0 0 0 1 0"/></filter><path id="g" d="m37.2095025 9.47681339c-.3524581-.60490298-1.0070231-1.05874825-1.7121071-1.15956541-.7550995-.10064914-1.4600156.10098519-2.0138783.55466243-.9064886.80636928-2.0643973 1.20980599-3.272825 1.20980599-2.7693134 0-5.0351153-2.26838621-5.0351153-5.04085821 0-.50425385.1008701-1.05874825.2517557-1.51225746.2015725-.70572015.1008702-1.4620169-.2517557-2.06691988-.4029771-.65531157-1.0575421-1.05874825-1.7621226-1.20980597-1.057542-.15122574-2.1654352-.25187488-3.2729928-.25187488-11.12777275 0-20.1404614 9.02296812-20.1404614 20.1634327 0 11.1401286 9.01268865 20.1634328 20.1404614 20.1634328 11.1277728 0 20.1404614-9.0233042 20.1404614-20.1634328 0-3.7806436-1.057542-7.4606381-3.0714203-10.68661931z"/><filter id="h" height="117.4%" width="117.4%" x="-8.7%" y="-8.7%"><feMorphology in="SourceAlpha" operator="dilate" radius="1.5" result="shadowSpreadOuter1"/><feOffset dx="0" dy="0" in="shadowSpreadOuter1" result="shadowOffsetOuter1"/><feComposite in="shadowOffsetOuter1" in2="SourceAlpha" operator="out" result="shadowOffsetOuter1"/><feColorMatrix in="shadowOffsetOuter1" type="matrix" values="0 0 0 0 1   0 0 0 0 1   0 0 0 0 1  0 0 0 1 0"/></filter><path id="i" d="m58.9989354 102.283243-16.3173509 16.382762v63.406889h16.3173509zm-9.4123273-42.4210493c6.5870096 0 11.924048-5.3096526 11.924048-11.850636 0-6.5424617-5.3370384-11.8462015-11.924048-11.8462015-6.5914265 0-11.928465 5.3037398-11.928465 11.8462015 0 6.5409834 5.3370385 11.850636 11.928465 11.850636zm49.5821911-11.1085855c0 12.0014113-4.3991919 22.9799162-11.7297062 31.478021l10.5312651 140.4973678h-94.14094101l10.20588971-138.042097c-8.68796237-8.7730478-14.0353068-20.7286352-14.0353068-33.9332918 0-26.9311136 22.1947184-48.7536082 49.5866081-48.7536082 27.3918896 0 49.5821911 21.8224946 49.5821911 48.7536082z"/><filter id="j" height="107.2%" width="116.1%" x="-8.1%" y="-3.6%"><feMorphology in="SourceAlpha" operator="dilate" radius="3" result="shadowSpreadOuter1"/><feOffset dx="0" dy="0" in="shadowSpreadOuter1" result="shadowOffsetOuter1"/><feComposite in="shadowOffsetOuter1" in2="SourceAlpha" operator="out" result="shadowOffsetOuter1"/><feColorMatrix in="shadowOffsetOuter1" type="matrix" values="0 0 0 0 1   0 0 0 0 1   0 0 0 0 1  0 0 0 1 0"/></filter></defs><g fill="none" fill-rule="evenodd" opacity=".304256" transform="translate(1.855204 .193051)"><g transform="matrix(.96592583 .25881905 -.25881905 .96592583 181.925426 14.961569)"><g stroke="#7e818d"><path d="m61.4432428 8.86883389h9.0858769v-1.77376678c0-3.91825081-3.2545611-7.09506711-7.2687016-7.09506711h-19.9889292"/><path d="m9.19945 18.078777h37.819963"/><path d="m9.19945 25.242066h37.819963"/><path d="m9.19945 32.405355h23.509707"/><path d="m14.310256 54.23633h9.199451"/><path d="m9.19945 54.23633h3.747925"/><path d="m34.430631 68.4121142h-34.430631v-61.21083903c0-3.97690421 3.24554-7.20127517 7.24855389-7.20127517h57.14759891c-4.3581931 0-8.2198602 3.1037496-8.2198602 7.42631502v22.45395068m0 38.5318485h-10.8728308"/></g><g stroke-linejoin="round"><use fill="#000" filter="url(#b)" xlink:href="#a"/><use stroke="#7e818d" xlink:href="#a"/></g><g stroke-linejoin="round"><use fill="#000" filter="url(#d)" xlink:href="#c"/><use fill="#fff" fill-rule="evenodd" stroke="#7e818d" xlink:href="#c"/></g><path d="m49.3640575 63.2367909c-1.5703869.389637-2.8484028 1.7380173-3.2304786 3.4063723-.5116493 2.2291961.4684582 4.254128 2.0776064 5.2530157v4.1974535c0 1.303513.9922897 2.3614366 2.2149322 2.3614366 1.2237501 0 2.2149323-1.0579236 2.2149323-2.3614366v-4.1974535c1.3189921-.8182378 2.2149322-2.3248343 2.2149322-4.0675745 0-2.9777716-2.5848259-5.3120517-5.4919245-4.5918135z" fill="#fff" stroke="#7e818d" stroke-linejoin="round"/></g><g transform="matrix(.96592583 -.25881905 .25881905 .96592583 160.136501 140.92058)"><g stroke="#7e818d"><path d="m0 63.1381306v11.94024c0 6.5934006 12.8843138 11.9402401 30.4093603 11.9402401 17.5250466 0 30.4093603-5.3468395 30.4093603-11.9402401v-11.94024" fill="#ededed"/><path d="m30.4093603 76.6491188c17.5250466 0 30.4093603-5.3468395 30.4093603-11.94024 0-6.5934006-12.8843137-11.9402401-30.4093603-11.9402401-17.5250465 0-30.4093603 5.3468395-30.4093603 11.9402401 0 6.5934005 12.8843138 11.94024 30.4093603 11.94024z" fill="#ededed"/><path d="m0 46.9552501v11.9402401c0 6.5934005 12.8843138 11.94024 30.4093603 11.94024 17.5250466 0 30.4093603-5.3468395 30.4093603-11.94024v-11.9402401" fill="#fff"/><path d="m30.4093603 58.9848823c17.5250466 0 30.4093603-5.3468395 30.4093603-11.94024s-12.8843137-11.94024-30.4093603-11.94024c-17.5250465 0-30.4093603 5.3468395-30.4093603 11.94024s12.8843138 11.94024 30.4093603 11.94024z" fill="#fff"/><path d="m0 29.4108829v11.5890565c0 6.399477 12.8843138 11.5890565 30.4093603 11.5890565 17.5250466 0 30.4093603-5.1895795 30.4093603-11.5890565v-11.5890565" fill="#ededed"/><path d="m30.4093603 41.3511229c17.5250466 0 30.4093603-5.1895795 30.4093603-11.5890565s-12.8843137-11.5890565-30.4093603-11.5890565c-17.5250465 0-30.4093603 5.1895795-30.4093603 11.5890565s12.8843138 11.5890565 30.4093603 11.5890565z" fill="#ededed"/><path d="m0 11.237873v11.5890565c0 6.399477 12.8843138 11.5890565 30.4093603 11.5890565 17.5250466 0 30.4093603-5.1895795 30.4093603-11.5890565v-11.5890565" fill="#fff"/><path d="m30.4093603 23.178113c17.5250466 0 30.4093603-5.1895795 30.4093603-11.5890565s-12.8843137-11.5890565-30.4093603-11.5890565c-17.5250465 0-30.4093603 5.1895795-30.4093603 11.5890565s12.8843138 11.5890565 30.4093603 11.5890565z" fill="#fff"/></g><ellipse cx="30.40936" cy="9.833139" fill="#d9d9d9" opacity=".428484" rx="16.972666" ry="5.618936"/><g stroke="#7e818d" transform="translate(23.337416 27.392315)"><path d="m4.94406275.5v2.4652131h-4.44406275v-2.4652131z"/><path d="m11.9893204.5v2.4652131h-4.44406272v-2.4652131z" fill="#d2ecfe"/></g><g stroke="#7e818d" transform="translate(25.458999 63.071382)"><path d="m.5 18.164237h4.42516v2.337038h-4.42516z"/><path d="m.5.5h4.42516v2.337038h-4.42516z"/></g><g stroke="#7e818d" transform="matrix(-1 0 0 1 40.310082 44.862958)"><path d="m4.94406275.5v2.42929374h-4.44406275v-2.42929374z"/><path d="m11.9893204.5v2.42929374h-4.44406272v-2.42929374z" fill="#fff"/></g><g transform="translate(45.819982 52.718845)"><use fill="#000" filter="url(#f)" xlink:href="#e"/><g stroke="#7e818d"><use fill="#fff" fill-rule="evenodd" xlink:href="#e"/><path d="m18.1529996 14.7191926-8.0305801.004507.0601772-4.4159772" stroke-linecap="round" transform="matrix(.64278761 -.76604444 .76604444 .64278761 -4.537426 15.300881)"/></g></g></g><g transform="matrix(.95105652 .30901699 -.30901699 .95105652 25.158661 139.696541)"><g stroke="#7e818d"><path d="m21.0904832 62.772951h-21.0904832v-62.772951h84.3619327v62.772951h-21.1120713" stroke-linejoin="round"/><path d="m0 11.032822h84.361933" stroke-linejoin="round"/><path d="m5.700131 5.706632h3.800087" stroke-linejoin="round"/><path d="m12.540287 5.706632h3.800087" stroke-linejoin="round"/><path d="m20.900479 5.706632h3.800087" stroke-linejoin="round"/><path d="m79.681837 15.7176851v12.6959166h-75.00174123v-12.6959166z" fill="#7e818d" opacity=".121525"/><path d="m69.874101 20.115878 4.275098 4.279973" stroke-linecap="square"/><path d="m.712516.713329 4.275098 4.279974" stroke-linecap="square" transform="matrix(1 0 0 -1 69.161584 25.10918)"/></g><g transform="translate(22.040505 38.805097)"><g fill-rule="nonzero"><use fill="#000" filter="url(#h)" xlink:href="#g"/><use fill="#fff" stroke="#7e818d" xlink:href="#g"/></g><path d="m25.5479053 22.520551-11.119416.0062407.0822313-4.1690006" stroke="#7e818d" stroke-linecap="round" transform="matrix(.64278761 -.76604444 .76604444 .64278761 -8.519672 22.614087)"/></g></g><g stroke="#7e818d" stroke-linejoin="round" transform="matrix(.96592583 -.25881905 .25881905 .96592583 16.356964 16.919922)"><path d="m54.8971969 92.0330519v-4.9364924c0-3.4494132-2.9380167-6.2451658-6.307078-6.2451658h-1.8258401v-4.1634438c0-3.4494133-.9047871-4.1634439-4.2738484-4.1634439h-1.8258401v-12.4903316l10.1661476-8.3268877v-22.8989413h-10.1661476v8.3268878h-8.1329181v-8.3268878h-10.1661475v8.3268878h-8.1329181v-8.3268878h-10.16614757v22.8989413l10.16614757 8.3268877v12.4903316h-1.8258401c-3.36906131 0-4.27384844.7140306-4.27384844 4.1634439v4.1634438h-1.82584011c-3.3690613 0-6.30707795 2.7957526-6.30707795 6.2451658v10.4086097h45.9540606" fill="#fff"/><path d="m7.685608 79.776957h19.76299"/><path d="m37.330094 79.776957h7.685607"/><path d="m3.293832 49.860598h24.154766"/><path d="m37.330094 49.860598h12.077383"/><path d="m43.2589911 15.512186h-15.8103927v-12.18814614h19.7629909v6.09407307" fill="#fff"/><path d="m43.9177575 19.9442391h19.7629909v-9.97211953h-19.7629909z" fill="#fff"/><path d="m27.448598 24.376292v-24.376292"/></g><g transform="translate(77.104615 17.844224)"><use fill="#000" filter="url(#j)" xlink:href="#i"/><use fill="#fff" fill-rule="evenodd" stroke="#7e818d" xlink:href="#i"/></g></g></svg>