<svg width="176" height="115" viewBox="0 0 176 115" fill="none" xmlns="http://www.w3.org/2000/svg">
<g clip-path="url(#clip0_19_378)">
<path fill-rule="evenodd" clip-rule="evenodd" d="M148.245 109.407C192.91 74.091 140.745 35.7178 118.701 59.2608C140.925 -16.6308 2.34795 -22.4233 33.7584 58.1439C33.7584 58.1439 -19.4225 59.9276 13.0777 106.734L148.245 109.41V109.407ZM21.799 38.7465C24.3352 51.2204 14.5669 57.5285 7.48031 57.7194C3.01838 57.8362 0.661888 55.3717 0.385157 52.4227C-0.139777 46.787 4.53896 44.6244 8.96095 43.4021C11.2433 42.7724 13.4828 41.892 14.3815 39.2764C16.35 33.4982 20.3954 31.8058 21.799 38.7465ZM153.032 107.697C153.032 107.697 169.528 98.6398 168.178 78.0229C168.178 78.0229 168.13 77.493 168.492 77.4702C168.855 77.4474 174.592 94.0868 162.438 106.418L153.032 107.697Z" fill="#F0EEF6"/>
<path d="M70.2669 54.6479H65.2743V103.623H70.2669V54.6479Z" fill="#6354A1"/>
<path fill-rule="evenodd" clip-rule="evenodd" d="M73.3309 105.489H62.2046C61.7095 105.488 61.235 105.291 60.8849 104.941C60.5348 104.591 60.3375 104.118 60.336 103.623C60.3375 103.129 60.5349 102.655 60.8851 102.306C61.2353 101.957 61.7097 101.76 62.2046 101.76H73.3309C73.8253 101.761 74.299 101.958 74.6486 102.307C74.9981 102.656 75.1952 103.129 75.1967 103.623C75.196 104.117 74.9992 104.591 74.6496 104.941C74.2999 105.291 73.8258 105.488 73.3309 105.489Z" fill="#7A72B3"/>
<path fill-rule="evenodd" clip-rule="evenodd" d="M76.2723 108.222H59.2661C58.6562 108.219 58.0719 107.976 57.6407 107.546C57.2094 107.115 56.9661 106.531 56.9638 105.922C56.9661 105.313 57.2094 104.73 57.6407 104.299C58.0719 103.868 58.6562 103.625 59.2661 103.623H76.2723C76.8824 103.625 77.4671 103.867 77.8985 104.298C78.33 104.729 78.573 105.313 78.5745 105.922C78.573 106.532 78.33 107.116 77.8985 107.547C77.4671 107.977 76.8824 108.22 76.2723 108.222Z" fill="#6354A1"/>
<path fill-rule="evenodd" clip-rule="evenodd" d="M89.7636 32.8515V14.739H45.5807C42.0021 14.7495 38.573 16.174 36.0425 18.7012C33.512 21.2285 32.0857 24.6531 32.0751 28.2272V53.853C32.0774 54.67 32.4033 55.4528 32.9817 56.0304C33.5602 56.6081 34.344 56.9336 35.162 56.9359H100.18C100.998 56.9336 101.781 56.6081 102.36 56.0304C102.938 55.4528 103.264 54.67 103.266 53.853V35.9343C103.264 35.1174 102.938 34.3346 102.36 33.7569C101.781 33.1793 100.998 32.8537 100.18 32.8515H89.7636Z" fill="#7A72B3"/>
<path fill-rule="evenodd" clip-rule="evenodd" d="M59.2205 14.739H45.5751C41.9964 14.7495 38.5673 16.174 36.0368 18.7012C33.5063 21.2285 32.08 24.6531 32.0694 28.2272V38.3248H57.2548C57.7762 38.3233 58.2757 38.1156 58.6441 37.7472C59.0125 37.3787 59.2197 36.8795 59.2205 36.3589V14.739Z" fill="#6354A1"/>
<path fill-rule="evenodd" clip-rule="evenodd" d="M68.889 58.8876H70.1214C70.1689 58.8847 70.2165 58.8847 70.264 58.8876V56.9302H65.2743V101.76H67.0089V60.7624C67.0112 60.2653 67.21 59.7894 67.5622 59.4382C67.9144 59.087 68.3913 58.8891 68.889 58.8876Z" fill="#242B5C"/>
<path fill-rule="evenodd" clip-rule="evenodd" d="M68.0958 50.1205H32.0751V53.853C32.0774 54.6699 32.4033 55.4527 32.9817 56.0304C33.5601 56.608 34.344 56.9336 35.162 56.9358H95.1042C95.9222 56.9336 96.706 56.608 97.2845 56.0304C97.8629 55.4527 98.1888 54.6699 98.1911 53.853V32.8514H89.7636V15.7333C88.1518 15.0751 86.4268 14.7373 84.6855 14.739C81.107 14.7495 77.6783 16.174 75.1482 18.7014C72.6181 21.2287 71.1925 24.6534 71.1827 28.2271V47.032C71.1819 47.8499 70.8566 48.6342 70.2781 49.213C69.6995 49.7919 68.9148 50.1182 68.0958 50.1205Z" fill="#6354A1"/>
<path fill-rule="evenodd" clip-rule="evenodd" d="M103.266 28.2272C103.257 24.6534 101.831 21.2287 99.3009 18.7014C96.7708 16.1741 93.342 14.7495 89.7636 14.739C86.185 14.7495 82.7558 16.174 80.2253 18.7012C77.6948 21.2285 76.2685 24.6531 76.258 28.2272V53.853C76.2602 54.67 76.5862 55.4528 77.1646 56.0304C77.743 56.6081 78.5269 56.9336 79.3448 56.9359H100.171C100.989 56.9336 101.773 56.6081 102.351 56.0304C102.93 55.4528 103.256 54.67 103.258 53.853L103.266 28.2272Z" fill="#242B5C"/>
<path fill-rule="evenodd" clip-rule="evenodd" d="M77.2451 23.1812C76.5921 24.7835 76.2568 26.4972 76.258 28.2271V53.853C76.2602 54.6699 76.5862 55.4527 77.1646 56.0304C77.743 56.6081 78.5269 56.9336 79.3448 56.9358H97.0043C97.7609 56.9358 98.4866 56.6357 99.0216 56.1013C99.5566 55.567 99.8572 54.8423 99.8572 54.0866V30.4182C99.8481 27.1172 98.5311 23.954 96.194 21.6199C93.8568 19.2858 90.6895 17.9704 87.3843 17.9614C85.4005 17.9639 83.4459 18.4388 81.6825 19.3465C79.9192 20.2543 78.398 21.5689 77.2451 23.1812Z" fill="#0C1332"/>
<path fill-rule="evenodd" clip-rule="evenodd" d="M146.308 36.7292C145.986 36.4034 145.561 36.1992 145.105 36.1515C144.649 36.1038 144.191 36.2154 143.809 36.4675C143.426 36.7195 143.143 37.0963 143.007 37.5336C142.872 37.9709 142.892 38.4415 143.066 38.8653C143.239 39.2891 143.554 39.6397 143.957 39.8574C144.36 40.0752 144.826 40.1464 145.276 40.0591C145.726 39.9718 146.132 39.7313 146.424 39.3787C146.716 39.026 146.877 38.5831 146.879 38.1253C146.881 37.603 146.675 37.1011 146.308 36.7292ZM145.88 34.7718C146.428 34.933 146.928 35.2265 147.335 35.6266C147.354 35.6443 147.379 35.6555 147.405 35.6585C147.431 35.6616 147.458 35.6564 147.481 35.6437L148.399 35.1137C148.451 35.0857 148.512 35.0789 148.569 35.0949C148.626 35.1108 148.675 35.1482 148.704 35.1992L149.352 36.3189C149.382 36.3707 149.39 36.4321 149.375 36.4899C149.359 36.5482 149.321 36.5982 149.269 36.6295L148.359 37.1566C148.336 37.1696 148.318 37.1897 148.308 37.2139C148.298 37.2381 148.296 37.265 148.302 37.2905C148.337 37.4274 148.363 37.5663 148.379 37.7065C148.414 37.9904 148.414 38.2774 148.379 38.5613C148.363 38.7015 148.337 38.8404 148.302 38.9773C148.296 39.0042 148.298 39.0325 148.31 39.0577C148.321 39.083 148.341 39.1038 148.365 39.1169L149.278 39.6411C149.329 39.6718 149.367 39.7206 149.383 39.7779C149.399 39.8366 149.391 39.8989 149.361 39.9517L148.71 41.0771C148.68 41.1288 148.631 41.1667 148.573 41.1825C148.514 41.1978 148.452 41.1896 148.399 41.1598L147.486 40.6327C147.463 40.6203 147.437 40.6154 147.411 40.6184C147.385 40.6215 147.36 40.6324 147.341 40.6497C146.933 41.0514 146.431 41.3452 145.88 41.5045C145.855 41.5123 145.833 41.5277 145.817 41.5487C145.801 41.5696 145.792 41.5951 145.792 41.6213V42.6812C145.791 42.7408 145.767 42.7978 145.726 42.8408C145.683 42.8824 145.626 42.9059 145.566 42.9063H144.265C144.205 42.9063 144.148 42.8827 144.105 42.8406C144.062 42.7984 144.038 42.7412 144.037 42.6812V41.6213C144.037 41.5941 144.028 41.5676 144.011 41.5464C143.994 41.5251 143.97 41.5104 143.943 41.5045C143.673 41.4262 143.413 41.3152 143.17 41.174C142.923 41.0312 142.694 40.859 142.488 40.6611C142.466 40.6447 142.44 40.6359 142.412 40.6359C142.385 40.6359 142.359 40.6447 142.337 40.6611L141.427 41.1883C141.374 41.2181 141.311 41.2263 141.253 41.211C141.224 41.2037 141.196 41.1906 141.172 41.1725C141.148 41.1543 141.128 41.1316 141.113 41.1056L140.465 39.9859C140.435 39.9331 140.427 39.8708 140.442 39.8121C140.458 39.7544 140.496 39.7053 140.548 39.6753L141.464 39.1454C141.487 39.1325 141.505 39.1125 141.516 39.0883C141.527 39.0642 141.53 39.0372 141.524 39.0114C141.489 38.8746 141.463 38.7356 141.447 38.5955C141.412 38.3116 141.412 38.0246 141.447 37.7407C141.463 37.6005 141.489 37.4616 141.524 37.3247C141.53 37.2975 141.528 37.2687 141.516 37.2433C141.504 37.2179 141.483 37.1973 141.458 37.1851L140.548 36.6608C140.522 36.6458 140.499 36.6257 140.481 36.6017C140.463 36.5777 140.45 36.5504 140.442 36.5212C140.427 36.4635 140.436 36.4021 140.465 36.3503L141.11 35.2305C141.125 35.2045 141.145 35.1818 141.169 35.1637C141.193 35.1456 141.221 35.1325 141.25 35.1251C141.309 35.1099 141.371 35.118 141.424 35.1479L142.345 35.6779C142.368 35.6911 142.395 35.6964 142.422 35.6928C142.448 35.6892 142.472 35.6769 142.491 35.6579C142.901 35.2634 143.401 34.9749 143.949 34.8174C143.974 34.81 143.996 34.7947 144.012 34.7736C144.028 34.7526 144.037 34.727 144.037 34.7006V33.6407C144.037 33.6109 144.043 33.5814 144.055 33.5539C144.067 33.5265 144.084 33.5018 144.106 33.4811C144.127 33.4602 144.152 33.4437 144.179 33.4325C144.206 33.4212 144.236 33.4155 144.265 33.4156H145.566C145.626 33.4156 145.683 33.4393 145.726 33.4815C145.768 33.5237 145.792 33.581 145.792 33.6407V34.7006C145.799 34.7188 145.811 34.7349 145.827 34.7473C145.842 34.7598 145.861 34.7682 145.88 34.7718Z" fill="#DCD7EB"/>
<path fill-rule="evenodd" clip-rule="evenodd" d="M168.615 35.4328C168.216 35.0358 167.743 34.7203 167.223 34.504C166.174 34.0748 164.999 34.0748 163.95 34.504C163.168 34.8277 162.499 35.376 162.029 36.0795C161.559 36.7829 161.308 37.61 161.309 38.4558C161.308 39.0159 161.417 39.5706 161.631 40.0884C161.848 40.6079 162.163 41.0802 162.561 41.4789C163.159 42.0766 163.921 42.4838 164.751 42.6492C165.581 42.8145 166.441 42.7305 167.223 42.4077C167.743 42.1914 168.216 41.8759 168.615 41.4789C169.013 41.0808 169.328 40.6083 169.542 40.0884C169.976 39.0421 169.976 37.8667 169.542 36.8204C169.327 36.3015 169.012 35.83 168.615 35.4328ZM167.074 34.863C167.547 35.0622 167.975 35.3527 168.335 35.7177C168.7 36.0779 168.991 36.5057 169.191 36.9771C169.583 37.928 169.583 38.995 169.191 39.946C168.991 40.4174 168.7 40.8452 168.335 41.2053C167.974 41.5653 167.546 41.8509 167.074 42.0459C166.122 42.4372 165.054 42.4372 164.102 42.0459C163.63 41.8509 163.202 41.5653 162.841 41.2053C162.476 40.845 162.185 40.4173 161.985 39.946C161.597 38.9943 161.597 37.9288 161.985 36.9771C162.185 36.5058 162.476 36.078 162.841 35.7177C163.2 35.3527 163.629 35.0622 164.102 34.863C165.054 34.4716 166.122 34.4716 167.074 34.863ZM167.548 31.7288C167.816 31.808 168.079 31.9031 168.335 32.0138C168.596 32.124 168.849 32.2506 169.094 32.3927C169.341 32.5354 169.58 32.6934 169.807 32.8657C170.036 33.0361 170.254 33.2217 170.458 33.4213C170.529 33.4874 170.619 33.5293 170.715 33.5409C170.813 33.5546 170.914 33.5346 171 33.484C171.628 33.1221 172.289 32.7631 172.906 32.387C172.934 32.3708 172.965 32.361 172.997 32.3585C173.032 32.3514 173.068 32.3514 173.102 32.3585C173.137 32.3689 173.17 32.3853 173.199 32.407C173.227 32.4288 173.251 32.4559 173.268 32.4867C173.727 33.1791 174.187 34.0738 174.612 34.806C174.629 34.8367 174.64 34.8707 174.643 34.9057C174.65 34.9415 174.65 34.9782 174.643 35.014C174.633 35.0489 174.616 35.0817 174.595 35.1109C174.573 35.1387 174.546 35.1619 174.515 35.1792C173.944 35.5525 173.222 35.9257 172.623 36.2705C172.538 36.3189 172.472 36.394 172.435 36.4842C172.421 36.5131 172.412 36.5438 172.406 36.5754L172.366 36.5896L172.409 36.7663C172.443 36.9059 172.475 37.0512 172.501 37.1822C172.526 37.3133 172.546 37.4672 172.563 37.6039C172.58 37.7407 172.595 37.8889 172.603 38.0285C172.612 38.1681 172.603 38.3134 172.603 38.4587C172.603 38.604 172.603 38.7436 172.603 38.8889C172.603 39.0342 172.58 39.1738 172.563 39.3135C172.546 39.4531 172.523 39.5984 172.501 39.7351C172.478 39.8719 172.443 40.0201 172.409 40.1511C172.387 40.2467 172.397 40.3468 172.438 40.436C172.479 40.5272 172.551 40.6016 172.64 40.6469L174.318 41.6128L174.515 41.7267C174.546 41.7433 174.573 41.7666 174.595 41.7951C174.616 41.8243 174.633 41.8571 174.643 41.892C174.65 41.9278 174.65 41.9645 174.643 42.0003C174.64 42.0353 174.629 42.0693 174.612 42.1L173.365 44.2654L173.265 44.4392C173.248 44.47 173.225 44.4972 173.197 44.519C173.168 44.5409 173.135 44.5564 173.1 44.5646C173.064 44.5731 173.027 44.5731 172.991 44.5646C172.957 44.5609 172.923 44.5492 172.894 44.5304C172.292 44.1543 171.616 43.7953 170.997 43.4391C170.911 43.3887 170.811 43.3687 170.712 43.3821C170.615 43.392 170.525 43.4341 170.455 43.5018C170.251 43.7014 170.034 43.887 169.805 44.0574C169.577 44.2297 169.339 44.3877 169.091 44.5304C168.844 44.6729 168.589 44.8004 168.327 44.9122C168.065 45.0229 167.798 45.118 167.525 45.1971C167.43 45.224 167.347 45.281 167.288 45.3595C167.23 45.4368 167.199 45.5308 167.2 45.6273V47.8127C167.2 47.849 167.192 47.8849 167.177 47.9181C167.163 47.9498 167.144 47.9788 167.12 48.0036C167.094 48.0302 167.063 48.0506 167.029 48.0634C166.997 48.0786 166.961 48.0864 166.926 48.0862H164.241C164.206 48.0861 164.171 48.0783 164.139 48.0634C164.107 48.0488 164.077 48.0296 164.05 48.0064C164.026 47.9803 164.006 47.9505 163.99 47.9181C163.978 47.8843 163.971 47.8487 163.97 47.8127V45.6273C163.971 45.5241 163.937 45.4236 163.873 45.3424C163.81 45.2634 163.723 45.2073 163.625 45.1828C163.085 45.0274 162.565 44.8063 162.079 44.5247C161.832 44.382 161.593 44.224 161.366 44.0517C161.136 43.8806 160.918 43.695 160.712 43.4961C160.638 43.4218 160.541 43.3761 160.436 43.3672C160.331 43.3583 160.227 43.3868 160.142 43.4477L158.267 44.5275C158.238 44.5447 158.205 44.5554 158.17 44.5589C158.135 44.5674 158.098 44.5674 158.062 44.5589C158.027 44.5514 157.993 44.5358 157.965 44.5133C157.937 44.4915 157.914 44.4643 157.897 44.4335C157.451 43.6585 156.998 42.8864 156.553 42.1114C156.536 42.0814 156.524 42.0486 156.519 42.0145C156.513 41.9787 156.513 41.9421 156.519 41.9062C156.529 41.8714 156.545 41.8386 156.567 41.8094C156.587 41.7809 156.613 41.7575 156.644 41.741L158.538 40.6469C158.623 40.5996 158.689 40.5254 158.727 40.436C158.737 40.413 158.746 40.3891 158.752 40.3648H158.801L158.752 40.1654C158.715 40.0258 158.687 39.8805 158.661 39.7494C158.635 39.6183 158.615 39.4645 158.598 39.3277C158.581 39.1909 158.567 39.0428 158.558 38.9032C158.55 38.7636 158.558 38.6183 158.558 38.4729C158.558 38.3276 158.558 38.188 158.558 38.0427C158.558 37.8974 158.578 37.7578 158.598 37.6182C158.618 37.4786 158.635 37.3333 158.661 37.1965C158.687 37.0597 158.715 36.9116 158.752 36.7805C158.772 36.6849 158.762 36.5854 158.724 36.4956C158.681 36.4063 158.609 36.3334 158.521 36.2876L156.644 35.2049C156.613 35.1884 156.587 35.165 156.567 35.1365C156.545 35.1073 156.529 35.0745 156.519 35.0396C156.513 35.0038 156.513 34.9672 156.519 34.9314C156.524 34.8965 156.536 34.8628 156.553 34.8316C157.012 34.1535 157.471 33.2446 157.897 32.5124C157.914 32.4815 157.937 32.4544 157.965 32.4326C157.994 32.4104 158.027 32.394 158.062 32.3842C158.098 32.3772 158.135 32.3772 158.17 32.3842C158.205 32.3878 158.238 32.3996 158.267 32.4184L160.165 33.5096C160.25 33.5608 160.351 33.581 160.45 33.5666C160.547 33.5533 160.637 33.5094 160.707 33.4412C160.912 33.2438 161.129 33.0592 161.357 32.8885C161.584 32.7168 161.821 32.5598 162.067 32.4184C162.314 32.2764 162.568 32.1489 162.829 32.0366C163.091 31.925 163.36 31.8299 163.634 31.7516C163.727 31.7246 163.81 31.6675 163.868 31.5892C163.927 31.5113 163.959 31.4163 163.959 31.3186V29.1332C163.96 29.0981 163.967 29.0635 163.979 29.0306C163.994 28.9983 164.014 28.9685 164.039 28.9423C164.064 28.918 164.095 28.8987 164.127 28.8853C164.159 28.8704 164.195 28.8626 164.23 28.8625H166.915C166.95 28.8623 166.985 28.8701 167.017 28.8853C167.068 28.9037 167.112 28.9375 167.143 28.9819C167.173 29.0264 167.189 29.0792 167.188 29.1332V31.3186C167.186 31.4215 167.22 31.5219 167.283 31.6035C167.347 31.6819 167.435 31.7378 167.534 31.763L167.548 31.7288ZM168.489 31.6462C168.765 31.7625 169.032 31.8957 169.291 32.0451C169.552 32.196 169.803 32.3625 170.044 32.5437C170.286 32.7238 170.516 32.9199 170.732 33.1307L170.763 33.1449C170.773 33.1478 170.784 33.1478 170.795 33.1449C171.434 32.7774 172.073 32.4127 172.709 32.0423C172.783 32.0023 172.864 31.9771 172.948 31.9682C173.032 31.9582 173.118 31.964 173.199 31.9853C173.284 32.009 173.364 32.0487 173.433 32.1021C173.503 32.1548 173.561 32.2206 173.605 32.2958C174.067 33.0423 174.506 33.8544 174.948 34.618C174.991 34.6947 175.019 34.7788 175.031 34.8658C175.042 34.9525 175.037 35.0407 175.014 35.1251C174.99 35.2097 174.95 35.289 174.897 35.3587C174.844 35.4279 174.778 35.486 174.703 35.5297C174.092 35.9058 173.431 36.2619 172.809 36.6209C172.799 36.6273 172.791 36.6362 172.786 36.6466C172.782 36.6576 172.782 36.6698 172.786 36.6808L172.829 36.8574L172.88 37.1196C172.908 37.2706 172.931 37.4187 172.948 37.5669C172.966 37.7151 172.98 37.8518 172.988 38.0142C172.997 38.1766 173.003 38.3191 173.003 38.4672C173.003 38.6154 173.003 38.7664 172.988 38.9203C172.974 39.0741 172.966 39.2223 172.948 39.3676C172.931 39.5129 172.908 39.6525 172.88 39.8149C172.851 39.9773 172.82 40.0998 172.786 40.2537C172.782 40.2647 172.782 40.2769 172.786 40.2879C172.791 40.2982 172.799 40.3071 172.809 40.3135C173.505 40.6839 174.212 41.1227 174.903 41.5187L174.877 41.5501L174.897 41.5757C174.95 41.6455 174.99 41.7248 175.014 41.8094C175.037 41.8942 175.043 41.9828 175.031 42.0698C175.019 42.1569 174.99 42.2408 174.945 42.3165L173.519 44.8124L173.49 44.7953L173.448 44.8324C173.378 44.886 173.299 44.9248 173.214 44.9464C173.129 44.9687 173.041 44.9755 172.954 44.9663C172.869 44.9549 172.787 44.9279 172.712 44.8865C172.081 44.5503 171.434 44.1486 170.809 43.7867H170.777C170.766 43.7895 170.755 43.7954 170.746 43.8038C170.315 44.2199 169.836 44.5833 169.32 44.8865C169.06 45.0374 168.792 45.1716 168.515 45.2883C168.236 45.406 167.95 45.5069 167.659 45.5903C167.648 45.5932 167.638 45.5991 167.631 45.6074C167.629 45.6177 167.629 45.6284 167.631 45.6387V47.8241C167.632 47.9122 167.616 47.9997 167.582 48.0811C167.548 48.1625 167.498 48.236 167.434 48.297C167.309 48.4212 167.139 48.4908 166.963 48.4908H164.278C164.191 48.4911 164.105 48.4736 164.025 48.4395C163.944 48.4063 163.87 48.3579 163.808 48.297C163.747 48.234 163.698 48.1607 163.662 48.0805C163.629 47.999 163.612 47.912 163.611 47.8241V45.6387C163.614 45.6285 163.614 45.6176 163.611 45.6074C163.603 45.5976 163.592 45.5906 163.58 45.5874C163.288 45.5066 163.002 45.4067 162.724 45.2883C162.45 45.1714 162.183 45.0382 161.925 44.8894C161.664 44.7391 161.412 44.5726 161.172 44.3908C160.929 44.21 160.699 44.014 160.481 43.8038C160.473 43.7952 160.462 43.79 160.45 43.7896C160.44 43.7866 160.429 43.7866 160.418 43.7896L158.521 44.8808C158.446 44.9256 158.363 44.9547 158.276 44.9663C158.189 44.9755 158.101 44.9687 158.016 44.9464C157.931 44.9248 157.852 44.886 157.782 44.8324C157.715 44.781 157.658 44.7172 157.614 44.6443C157.115 43.8437 156.647 42.969 156.171 42.1484L156.196 42.1313C156.195 42.1105 156.195 42.0895 156.196 42.0687C156.185 41.9819 156.19 41.8938 156.213 41.8094C156.237 41.7248 156.277 41.6455 156.33 41.5757C156.383 41.5066 156.449 41.4485 156.524 41.4048L158.419 40.3107C158.419 40.3107 158.436 40.3107 158.441 40.2879C158.444 40.2767 158.444 40.2649 158.441 40.2537L158.39 40.0543C158.39 39.9773 158.359 39.8976 158.344 39.8178C158.316 39.6668 158.293 39.5186 158.276 39.3704C158.259 39.2223 158.245 39.0855 158.233 38.9231C158.222 38.7607 158.233 38.6183 158.233 38.4701C158.233 38.3219 158.233 38.1709 158.233 38.0171C158.233 37.8632 158.256 37.7122 158.276 37.5669C158.296 37.4216 158.316 37.282 158.344 37.1224C158.373 36.9629 158.402 36.8375 158.439 36.6836C158.443 36.6726 158.443 36.6605 158.439 36.6494C158.437 36.6437 158.434 36.6385 158.43 36.634C158.426 36.6296 158.421 36.6261 158.416 36.6238L156.524 35.5326C156.448 35.4889 156.381 35.4308 156.327 35.3616C156.275 35.2917 156.236 35.2124 156.213 35.128C156.19 35.0435 156.185 34.9554 156.196 34.8687C156.208 34.7837 156.235 34.7016 156.276 34.6265C156.727 33.7917 157.243 32.9512 157.723 32.1249L157.748 32.142L157.794 32.1049C157.864 32.0515 157.943 32.0119 158.028 31.9881C158.113 31.9667 158.201 31.9609 158.287 31.971C158.374 31.9829 158.457 32.011 158.533 32.0537L158.673 32.1334L160.43 33.1449C160.441 33.1475 160.453 33.1475 160.464 33.1449C160.476 33.1421 160.487 33.1362 160.496 33.1278C160.713 32.9195 160.942 32.7245 161.183 32.5437C161.422 32.3622 161.673 32.1966 161.933 32.048C162.193 31.8971 162.461 31.7629 162.738 31.6462C163.017 31.528 163.303 31.4271 163.594 31.3442C163.605 31.3413 163.615 31.3354 163.622 31.3271C163.626 31.316 163.626 31.304 163.622 31.2929V29.1076C163.623 29.0206 163.641 28.9346 163.674 28.854C163.708 28.7734 163.758 28.7 163.819 28.6374C163.882 28.5766 163.956 28.5274 164.036 28.4921C164.117 28.4593 164.203 28.4419 164.29 28.4409H166.974C167.063 28.4416 167.15 28.459 167.231 28.4921C167.312 28.5274 167.385 28.5766 167.448 28.6374C167.572 28.7626 167.642 28.9315 167.642 29.1076V31.2929C167.639 31.3041 167.639 31.316 167.642 31.3271C167.65 31.336 167.661 31.342 167.673 31.3442C167.95 31.4284 168.222 31.5292 168.487 31.6462H168.489Z" fill="#DCD7EB"/>
<path fill-rule="evenodd" clip-rule="evenodd" d="M149.204 64.472C151.347 64.472 153.403 65.3225 154.919 66.8362C156.435 68.35 157.286 70.4031 157.286 72.5439C157.286 74.6846 156.435 76.7378 154.919 78.2515C153.403 79.7653 151.347 80.6157 149.204 80.6157H132.763C132.006 80.6172 131.258 80.4543 130.571 80.1384C129.884 79.8225 129.274 79.3611 128.783 78.7862C128.293 78.2113 127.933 77.5367 127.729 76.8092C127.526 76.0816 127.483 75.3185 127.604 74.5729C127.726 73.8272 128.008 73.1168 128.431 72.4909C128.855 71.865 129.41 71.3386 130.057 70.9482C130.705 70.5579 131.43 70.3129 132.182 70.2302C132.933 70.1476 133.694 70.2293 134.411 70.4696C134.703 69.7335 135.163 69.0758 135.754 68.5494C136.346 68.0229 137.053 67.6423 137.819 67.4381C138.584 67.2339 139.387 67.2118 140.163 67.3736C140.939 67.5354 141.666 67.8766 142.285 68.3698C143.005 67.18 144.02 66.1961 145.232 65.5132C146.444 64.8303 147.812 64.4717 149.204 64.472Z" fill="#DCD7EB"/>
<path d="M134.874 82.5902H133.593C133.358 82.5902 133.168 82.7803 133.168 83.0147V84.294C133.168 84.5285 133.358 84.7186 133.593 84.7186H134.874C135.108 84.7186 135.299 84.5285 135.299 84.294V83.0147C135.299 82.7803 135.108 82.5902 134.874 82.5902Z" fill="#DCD7EB"/>
<path d="M139.244 82.5902H137.963C137.729 82.5902 137.538 82.7803 137.538 83.0147V84.294C137.538 84.5285 137.729 84.7186 137.963 84.7186H139.244C139.479 84.7186 139.669 84.5285 139.669 84.294V83.0147C139.669 82.7803 139.479 82.5902 139.244 82.5902Z" fill="#DCD7EB"/>
<path d="M143.612 82.5902H142.331C142.096 82.5902 141.906 82.7803 141.906 83.0147V84.294C141.906 84.5285 142.096 84.7186 142.331 84.7186H143.612C143.847 84.7186 144.037 84.5285 144.037 84.294V83.0147C144.037 82.7803 143.847 82.5902 143.612 82.5902Z" fill="#DCD7EB"/>
<path d="M147.98 82.5902H146.699C146.464 82.5902 146.274 82.7803 146.274 83.0147V84.294C146.274 84.5285 146.464 84.7186 146.699 84.7186H147.98C148.215 84.7186 148.405 84.5285 148.405 84.294V83.0147C148.405 82.7803 148.215 82.5902 147.98 82.5902Z" fill="#DCD7EB"/>
<path d="M45.4153 61.4006H44.1343C43.8996 61.4006 43.7093 61.5906 43.7093 61.8251V63.1044C43.7093 63.3389 43.8996 63.5289 44.1343 63.5289H45.4153C45.6501 63.5289 45.8404 63.3389 45.8404 63.1044V61.8251C45.8404 61.5906 45.6501 61.4006 45.4153 61.4006Z" fill="#DCD7EB"/>
<path d="M49.7831 61.4006H48.5021C48.2674 61.4006 48.0771 61.5906 48.0771 61.8251V63.1044C48.0771 63.3389 48.2674 63.5289 48.5021 63.5289H49.7831C50.0179 63.5289 50.2082 63.3389 50.2082 63.1044V61.8251C50.2082 61.5906 50.0179 61.4006 49.7831 61.4006Z" fill="#DCD7EB"/>
<path d="M54.1509 61.4006H52.8699C52.6352 61.4006 52.4448 61.5906 52.4448 61.8251V63.1044C52.4448 63.3389 52.6352 63.5289 52.8699 63.5289H54.1509C54.3856 63.5289 54.576 63.3389 54.576 63.1044V61.8251C54.576 61.5906 54.3856 61.4006 54.1509 61.4006Z" fill="#DCD7EB"/>
<path d="M58.5215 61.4006H57.2406C57.0058 61.4006 56.8155 61.5906 56.8155 61.8251V63.1044C56.8155 63.3389 57.0058 63.5289 57.2406 63.5289H58.5215C58.7563 63.5289 58.9466 63.3389 58.9466 63.1044V61.8251C58.9466 61.5906 58.7563 61.4006 58.5215 61.4006Z" fill="#DCD7EB"/>
<path fill-rule="evenodd" clip-rule="evenodd" d="M26.88 57.1011C21.0287 51.152 16.6752 58.7109 17.2828 66.2984C17.8534 73.4898 24.067 98.1726 22.9173 108.555H25.2938C31.108 95.2407 34.3689 64.7199 26.88 57.1011Z" fill="#E85D96"/>
<path fill-rule="evenodd" clip-rule="evenodd" d="M24.4151 108.555C30.0752 87.5678 22.9088 58.5599 22.8831 58.4602C22.8727 58.4175 22.854 58.3772 22.828 58.3417C22.802 58.3062 22.7692 58.2762 22.7316 58.2535C22.6939 58.2307 22.6521 58.2156 22.6086 58.209C22.5651 58.2024 22.5207 58.2045 22.478 58.2151C22.3914 58.2361 22.3167 58.2904 22.2702 58.3663C22.2237 58.4421 22.2091 58.5332 22.2298 58.6197C22.2554 58.7166 29.4305 87.7615 23.7247 108.555H24.4151Z" fill="#DD4586"/>
<path fill-rule="evenodd" clip-rule="evenodd" d="M12.4329 70.216C6.26498 66.9537 4.71014 74.071 7.11514 79.9604C9.11217 84.8411 17.9077 99.278 21.237 108.555H24.3752C24.6491 95.7365 19.7221 74.0653 12.4329 70.216Z" fill="#EF92A3"/>
<path fill-rule="evenodd" clip-rule="evenodd" d="M23.2369 108.555C21.197 91.2176 9.65134 72.37 9.6114 72.3045C9.56745 72.255 9.50759 72.2223 9.44212 72.212C9.37665 72.2017 9.30963 72.2146 9.2526 72.2483C9.19556 72.282 9.15207 72.3345 9.12956 72.3967C9.10705 72.459 9.10696 72.5271 9.12928 72.5894C9.17207 72.6578 20.6436 91.38 22.6805 108.549L23.2369 108.555Z" fill="#F3C4D2"/>
<path fill-rule="evenodd" clip-rule="evenodd" d="M38.5056 78.456C44.4796 75.8489 45.4267 82.5902 42.7849 87.9097C40.9876 91.5111 34.5115 100.731 30.1551 108.566H25.1797C26.8686 96.6909 32.3262 81.1399 38.5056 78.456Z" fill="#F3C4D2"/>
<path fill-rule="evenodd" clip-rule="evenodd" d="M26.9428 108.555C31.1879 94.1865 40.9591 80.6328 40.999 80.59C41.0178 80.5591 41.0427 80.5324 41.0723 80.5116C41.1019 80.4908 41.1355 80.4763 41.1709 80.4691C41.2064 80.4618 41.243 80.462 41.2784 80.4695C41.3137 80.4771 41.3472 80.4919 41.3766 80.513C41.406 80.534 41.4307 80.561 41.4492 80.5921C41.4676 80.6231 41.4795 80.6577 41.484 80.6936C41.4884 80.7294 41.4854 80.7658 41.4751 80.8005C41.4648 80.8351 41.4474 80.8673 41.4241 80.8949C41.387 80.9491 31.7242 94.3489 27.4848 108.555H26.9428Z" fill="#EF92A3"/>
<path fill-rule="evenodd" clip-rule="evenodd" d="M92.0773 72.3501C97.1925 68.3014 100.662 73.7177 99.9342 79.0401C99.2438 84.086 93.3012 101.301 93.983 108.629L91.986 108.575C87.4271 99.0757 85.527 77.5328 92.0773 72.3501Z" fill="#E85D96"/>
<path fill-rule="evenodd" clip-rule="evenodd" d="M92.7107 108.595C88.514 93.7021 95.3895 73.467 95.4123 73.3986C95.4392 73.332 95.4903 73.2779 95.5553 73.2472C95.6204 73.2166 95.6947 73.2116 95.7633 73.2334C95.7954 73.2381 95.8263 73.2494 95.8539 73.2665C95.8815 73.2837 95.9053 73.3063 95.9238 73.333C95.9422 73.3598 95.955 73.39 95.9613 73.4219C95.9675 73.4537 95.9671 73.4866 95.9601 73.5183C95.9373 73.5867 89.0533 93.8446 93.2927 108.601L92.7107 108.595Z" fill="#DD4586"/>
<path fill-rule="evenodd" clip-rule="evenodd" d="M103.917 81.9092C109.22 79.7581 110.336 84.8012 108.139 88.887C106.316 92.2747 98.4678 102.221 95.3924 108.669L92.742 108.595C92.8847 99.5744 97.6519 84.4393 103.917 81.9092Z" fill="#EF92A3"/>
<path fill-rule="evenodd" clip-rule="evenodd" d="M93.712 108.621C95.923 96.4773 106.216 83.4905 106.265 83.4449C106.305 83.3999 106.359 83.3698 106.419 83.3594C106.478 83.3491 106.54 83.3591 106.593 83.388C106.62 83.3981 106.644 83.4147 106.663 83.4364C106.683 83.458 106.696 83.4841 106.703 83.5122C106.71 83.5404 106.709 83.5697 106.702 83.5977C106.695 83.6258 106.681 83.6516 106.661 83.6729C106.627 83.7185 96.3909 96.6197 94.1942 108.646L93.712 108.621Z" fill="#F3C4D2"/>
<path fill-rule="evenodd" clip-rule="evenodd" d="M81.6471 87.0891C76.666 85.1146 75.676 89.8357 77.77 93.6423C79.1965 96.2066 84.4059 102.848 87.8722 108.458L92.0802 108.575C90.9733 100.195 86.7937 89.1291 81.6471 87.0891Z" fill="#F3C4D2"/>
<path fill-rule="evenodd" clip-rule="evenodd" d="M90.5767 108.535C87.3929 98.3321 79.5103 88.5906 79.4789 88.5393C79.4409 88.4973 79.3897 88.4693 79.3338 88.46C79.2778 88.4507 79.2204 88.4606 79.1708 88.4881C79.1477 88.4986 79.1272 88.5143 79.111 88.5338C79.0948 88.5534 79.0832 88.5764 79.0772 88.6011C79.0711 88.6258 79.0708 88.6515 79.0761 88.6763C79.0815 88.7012 79.0924 88.7245 79.108 88.7445C79.1394 88.7844 86.9393 98.4318 90.1202 108.524L90.5767 108.535Z" fill="#EF92A3"/>
<path fill-rule="evenodd" clip-rule="evenodd" d="M2.01986 105.922H171.339C171.874 105.925 172.386 106.138 172.764 106.516C173.142 106.894 173.355 107.406 173.356 107.94C173.355 108.474 173.142 108.985 172.764 109.363C172.386 109.741 171.874 109.955 171.339 109.957H164.524C164.227 109.958 163.942 110.076 163.732 110.286C163.522 110.495 163.403 110.78 163.403 111.077C163.403 111.373 163.522 111.658 163.732 111.868C163.942 112.077 164.227 112.196 164.524 112.196H167.017C167.389 112.198 167.745 112.346 168.008 112.609C168.271 112.871 168.419 113.227 168.421 113.598C168.419 113.969 168.271 114.325 168.008 114.588C167.745 114.85 167.389 114.998 167.017 115H6.56454C6.19274 114.998 5.83659 114.85 5.57369 114.588C5.31078 114.325 5.1624 113.969 5.1609 113.598C5.1624 113.227 5.31078 112.871 5.57369 112.609C5.83659 112.346 6.19274 112.198 6.56454 112.196H8.52734C8.82446 112.196 9.1092 112.077 9.3193 111.868C9.5294 111.658 9.64775 111.373 9.64851 111.077C9.64775 110.78 9.5294 110.495 9.3193 110.286C9.1092 110.076 8.82446 109.958 8.52734 109.957H2.01986C1.48485 109.955 0.972411 109.741 0.594102 109.364C0.215794 108.986 0.00226794 108.474 1.52588e-05 107.94C0.00226794 107.405 0.215794 106.894 0.594102 106.516C0.972411 106.138 1.48485 105.925 2.01986 105.922ZM3.06974 115C3.42641 114.998 3.76802 114.856 4.02023 114.604C4.27243 114.353 4.4148 114.011 4.4163 113.655V113.541C4.4148 113.185 4.27243 112.844 4.02023 112.592C3.76802 112.34 3.42641 112.198 3.06974 112.196C2.71333 112.198 2.37197 112.34 2.12022 112.592C1.86847 112.844 1.72675 113.185 1.726 113.541V113.655C1.72675 114.011 1.86847 114.352 2.12022 114.604C2.37197 114.856 2.71333 114.998 3.06974 115Z" fill="#0C1332"/>
<path fill-rule="evenodd" clip-rule="evenodd" d="M70.8632 6.00899C70.8632 5.96214 70.8818 5.91721 70.915 5.88408C70.9481 5.85095 70.9931 5.83234 71.0401 5.83234C71.087 5.83234 71.1319 5.85095 71.1651 5.88408C71.1983 5.91721 71.2169 5.96214 71.2169 6.00899V6.80392C71.2169 6.85077 71.1983 6.8957 71.1651 6.92883C71.1319 6.96196 71.087 6.98057 71.0401 6.98057C70.9931 6.98057 70.9481 6.96196 70.915 6.92883C70.8818 6.8957 70.8632 6.85077 70.8632 6.80392V6.00899ZM69.6621 6.65576C69.6452 6.63979 69.6319 6.62057 69.6227 6.59926C69.6135 6.57795 69.6088 6.55501 69.6088 6.53182C69.6088 6.50863 69.6135 6.48569 69.6227 6.46438C69.6319 6.44307 69.6452 6.42385 69.6621 6.40788C69.6952 6.37534 69.7398 6.3571 69.7862 6.3571C69.8326 6.3571 69.8772 6.37534 69.9103 6.40788L70.4809 6.97772C70.5134 7.01077 70.5317 7.05528 70.5317 7.10166C70.5317 7.14804 70.5134 7.19256 70.4809 7.2256C70.4473 7.25832 70.4023 7.27663 70.3554 7.27663C70.3084 7.27663 70.2634 7.25832 70.2298 7.2256L69.6592 6.65576H69.6621ZM69.2655 7.9607C69.2406 7.96388 69.2153 7.96172 69.1913 7.95437C69.1673 7.94702 69.1451 7.93464 69.1262 7.91806C69.1074 7.90149 69.0923 7.88109 69.0819 7.85822C69.0716 7.83536 69.0663 7.81056 69.0663 7.78547C69.0663 7.76038 69.0716 7.73558 69.0819 7.71272C69.0923 7.68986 69.1074 7.66946 69.1262 7.65288C69.1451 7.6363 69.1673 7.62393 69.1913 7.61657C69.2153 7.60922 69.2406 7.60707 69.2655 7.61025H70.0615C70.0864 7.60707 70.1117 7.60922 70.1357 7.61657C70.1598 7.62393 70.1819 7.6363 70.2008 7.65288C70.2197 7.66946 70.2347 7.68986 70.2451 7.71272C70.2554 7.73558 70.2608 7.76038 70.2608 7.78547C70.2608 7.81056 70.2554 7.83536 70.2451 7.85822C70.2347 7.88109 70.2197 7.90149 70.2008 7.91806C70.1819 7.93464 70.1598 7.94702 70.1357 7.95437C70.1117 7.96172 70.0864 7.96388 70.0615 7.9607H69.2655ZM69.9103 9.16307C69.8772 9.19561 69.8326 9.21384 69.7862 9.21384C69.7398 9.21384 69.6952 9.19561 69.6621 9.16307C69.6452 9.1471 69.6319 9.12788 69.6227 9.10657C69.6135 9.08526 69.6088 9.06232 69.6088 9.03913C69.6088 9.01594 69.6135 8.993 69.6227 8.97169C69.6319 8.95038 69.6452 8.93115 69.6621 8.91518L70.2327 8.34534C70.2662 8.31262 70.3113 8.29431 70.3582 8.29431C70.4051 8.29431 70.4501 8.31262 70.4837 8.34534C70.5163 8.37839 70.5346 8.42291 70.5346 8.46929C70.5346 8.51566 70.5163 8.56018 70.4837 8.59323L69.9131 9.16307H69.9103ZM71.2169 9.55911C71.2169 9.60596 71.1983 9.65089 71.1651 9.68402C71.1319 9.71715 71.087 9.73576 71.0401 9.73576C70.9931 9.73576 70.9481 9.71715 70.915 9.68402C70.8818 9.65089 70.8632 9.60596 70.8632 9.55911V8.76418C70.8632 8.71733 70.8818 8.6724 70.915 8.63927C70.9481 8.60614 70.9931 8.58753 71.0401 8.58753C71.087 8.58753 71.1319 8.60614 71.1651 8.63927C71.1983 8.6724 71.2169 8.71733 71.2169 8.76418V9.55911ZM72.4208 8.91518C72.4534 8.94823 72.4717 8.99275 72.4717 9.03913C72.4717 9.08551 72.4534 9.13002 72.4208 9.16307C72.3873 9.19579 72.3422 9.2141 72.2953 9.2141C72.2484 9.2141 72.2034 9.19579 72.1698 9.16307L71.5992 8.59323C71.5666 8.56018 71.5484 8.51566 71.5484 8.46929C71.5484 8.42291 71.5666 8.37839 71.5992 8.34534C71.6328 8.31262 71.6778 8.29431 71.7247 8.29431C71.7716 8.29431 71.8167 8.31262 71.8503 8.34534L72.4208 8.91518ZM72.8145 7.61025C72.8395 7.60707 72.8648 7.60922 72.8888 7.61657C72.9128 7.62393 72.935 7.6363 72.9539 7.65288C72.9727 7.66946 72.9878 7.68986 72.9981 7.71272C73.0085 7.73558 73.0139 7.76038 73.0139 7.78547C73.0139 7.81056 73.0085 7.83536 72.9981 7.85822C72.9878 7.88109 72.9727 7.90149 72.9539 7.91806C72.935 7.93464 72.9128 7.94702 72.8888 7.95437C72.8648 7.96172 72.8395 7.96388 72.8145 7.9607H72.0214C71.9965 7.96388 71.9712 7.96172 71.9472 7.95437C71.9232 7.94702 71.901 7.93464 71.8821 7.91806C71.8633 7.90149 71.8482 7.88109 71.8378 7.85822C71.8275 7.83536 71.8221 7.81056 71.8221 7.78547C71.8221 7.76038 71.8275 7.73558 71.8378 7.71272C71.8482 7.68986 71.8633 7.66946 71.8821 7.65288C71.901 7.6363 71.9232 7.62393 71.9472 7.61657C71.9712 7.60922 71.9965 7.60707 72.0214 7.61025H72.8145ZM72.1698 6.40788C72.2034 6.37516 72.2484 6.35684 72.2953 6.35684C72.3422 6.35684 72.3873 6.37516 72.4208 6.40788C72.4534 6.44093 72.4717 6.48544 72.4717 6.53182C72.4717 6.5782 72.4534 6.62271 72.4208 6.65576L71.8503 7.2256C71.8167 7.25832 71.7716 7.27663 71.7247 7.27663C71.6778 7.27663 71.6328 7.25832 71.5992 7.2256C71.5666 7.19256 71.5484 7.14804 71.5484 7.10166C71.5484 7.05528 71.5666 7.01077 71.5992 6.97772L72.1698 6.40788Z" fill="#7A72B3"/>
<path fill-rule="evenodd" clip-rule="evenodd" d="M146.981 24.073C146.819 24.073 146.696 23.885 146.696 23.6542C146.696 23.4234 146.824 23.2382 146.981 23.2382H160.675C160.838 23.2382 160.961 23.4263 160.961 23.6542C160.961 23.8821 160.829 24.073 160.675 24.073H146.981ZM145.127 23.2382C145.287 23.2382 145.412 23.4263 145.412 23.6542C145.412 23.8821 145.281 24.073 145.127 24.073H143.986C143.823 24.073 143.701 23.885 143.701 23.6542C143.701 23.4234 143.832 23.2382 143.986 23.2382H145.127Z" fill="#7A72B3"/>
<path fill-rule="evenodd" clip-rule="evenodd" d="M8.35899 24.489C8.19638 24.489 8.0737 24.3009 8.0737 24.073C8.0737 23.8451 8.20494 23.6542 8.35899 23.6542H22.0529C22.2127 23.6542 22.3382 23.8422 22.3382 24.073C22.3382 24.3038 22.207 24.489 22.0529 24.489H8.35899ZM6.50175 23.6542C6.66437 23.6542 6.78704 23.8422 6.78704 24.073C6.78704 24.3038 6.65581 24.489 6.50175 24.489H5.36059C5.19798 24.489 5.0753 24.3009 5.0753 24.073C5.0753 23.8451 5.20654 23.6542 5.36059 23.6542H6.50175Z" fill="#7A72B3"/>
<path fill-rule="evenodd" clip-rule="evenodd" d="M92.4995 64.2299C92.4964 64.205 92.4985 64.1797 92.5059 64.1557C92.5132 64.1317 92.5256 64.1096 92.5422 64.0907C92.5588 64.0719 92.5793 64.0568 92.6021 64.0465C92.625 64.0362 92.6499 64.0308 92.675 64.0308C92.7001 64.0308 92.725 64.0362 92.7479 64.0465C92.7707 64.0568 92.7912 64.0719 92.8078 64.0907C92.8244 64.1096 92.8368 64.1317 92.8441 64.1557C92.8515 64.1797 92.8536 64.205 92.8505 64.2299V65.0219C92.8536 65.0468 92.8515 65.0721 92.8441 65.0961C92.8368 65.1201 92.8244 65.1422 92.8078 65.1611C92.7912 65.1799 92.7707 65.195 92.7479 65.2053C92.725 65.2156 92.7001 65.221 92.675 65.221C92.6499 65.221 92.625 65.2156 92.6021 65.2053C92.5793 65.195 92.5588 65.1799 92.5422 65.1611C92.5256 65.1422 92.5132 65.1201 92.5059 65.0961C92.4985 65.0721 92.4964 65.0468 92.4995 65.0219V64.2299ZM91.2956 64.8738C91.2631 64.8407 91.2448 64.7962 91.2448 64.7498C91.2448 64.7035 91.2631 64.6589 91.2956 64.6259C91.3116 64.6091 91.3309 64.5957 91.3522 64.5866C91.3735 64.5774 91.3965 64.5727 91.4197 64.5727C91.4429 64.5727 91.4659 64.5774 91.4872 64.5866C91.5086 64.5957 91.5278 64.6091 91.5438 64.6259L92.1144 65.1957C92.1472 65.2293 92.1655 65.2743 92.1655 65.3211C92.1655 65.368 92.1472 65.4129 92.1144 65.4465C92.0813 65.479 92.0367 65.4973 91.9903 65.4973C91.9439 65.4973 91.8993 65.479 91.8662 65.4465L91.2956 64.8766V64.8738ZM90.8991 66.1787C90.8522 66.1787 90.8072 66.1601 90.774 66.127C90.7408 66.0939 90.7222 66.0489 90.7222 66.0021C90.7222 65.9552 90.7408 65.9103 90.774 65.8772C90.8072 65.844 90.8522 65.8254 90.8991 65.8254H91.695C91.7419 65.8254 91.7869 65.844 91.8201 65.8772C91.8533 65.9103 91.8719 65.9552 91.8719 66.0021C91.8719 66.0489 91.8533 66.0939 91.8201 66.127C91.7869 66.1601 91.7419 66.1787 91.695 66.1787H90.8991ZM91.5438 67.3811C91.5107 67.4136 91.4662 67.4319 91.4197 67.4319C91.3733 67.4319 91.3287 67.4136 91.2956 67.3811C91.2629 67.3476 91.2445 67.3026 91.2445 67.2557C91.2445 67.2089 91.2629 67.1639 91.2956 67.1304L91.8662 66.5605C91.8822 66.5437 91.9014 66.5303 91.9228 66.5212C91.9441 66.512 91.9671 66.5073 91.9903 66.5073C92.0135 66.5073 92.0365 66.512 92.0578 66.5212C92.0792 66.5303 92.0984 66.5437 92.1144 66.5605C92.147 66.5936 92.1653 66.6381 92.1653 66.6845C92.1653 66.7308 92.147 66.7754 92.1144 66.8084L91.5438 67.3782V67.3811ZM92.8505 67.7743C92.8536 67.7992 92.8515 67.8245 92.8441 67.8484C92.8368 67.8724 92.8244 67.8946 92.8078 67.9134C92.7912 67.9322 92.7707 67.9473 92.7479 67.9576C92.725 67.968 92.7001 67.9733 92.675 67.9733C92.6499 67.9733 92.625 67.968 92.6021 67.9576C92.5793 67.9473 92.5588 67.9322 92.5422 67.9134C92.5256 67.8946 92.5132 67.8724 92.5059 67.8484C92.4985 67.8245 92.4964 67.7992 92.4995 67.7743V66.9822C92.4964 66.9573 92.4985 66.932 92.5059 66.9081C92.5132 66.8841 92.5256 66.8619 92.5422 66.8431C92.5588 66.8243 92.5793 66.8092 92.6021 66.7988C92.625 66.7885 92.6499 66.7832 92.675 66.7832C92.7001 66.7832 92.725 66.7885 92.7479 66.7988C92.7707 66.8092 92.7912 66.8243 92.8078 66.8431C92.8244 66.8619 92.8368 66.8841 92.8441 66.9081C92.8515 66.932 92.8536 66.9573 92.8505 66.9822V67.7743ZM94.0544 67.1304C94.0871 67.1639 94.1055 67.2089 94.1055 67.2557C94.1055 67.3026 94.0871 67.3476 94.0544 67.3811C94.0213 67.4136 93.9767 67.4319 93.9303 67.4319C93.8838 67.4319 93.8393 67.4136 93.8062 67.3811L93.2356 66.8113C93.203 66.7782 93.1847 66.7337 93.1847 66.6873C93.1847 66.6409 93.203 66.5964 93.2356 66.5634C93.2516 66.5466 93.2708 66.5332 93.2922 66.524C93.3135 66.5149 93.3365 66.5102 93.3597 66.5102C93.3829 66.5102 93.4059 66.5149 93.4272 66.524C93.4486 66.5332 93.4678 66.5466 93.4838 66.5634L94.0544 67.1332V67.1304ZM94.4509 65.8254C94.4978 65.8254 94.5428 65.844 94.576 65.8772C94.6092 65.9103 94.6278 65.9552 94.6278 66.0021C94.6278 66.0489 94.6092 66.0939 94.576 66.127C94.5428 66.1601 94.4978 66.1787 94.4509 66.1787H93.655C93.608 66.1787 93.5631 66.1601 93.5299 66.127C93.4967 66.0939 93.4781 66.0489 93.4781 66.0021C93.4781 65.9552 93.4967 65.9103 93.5299 65.8772C93.5631 65.844 93.608 65.8254 93.655 65.8254H94.4509ZM93.8062 64.6259C93.8222 64.6091 93.8414 64.5957 93.8628 64.5866C93.8841 64.5774 93.9071 64.5727 93.9303 64.5727C93.9535 64.5727 93.9765 64.5774 93.9978 64.5866C94.0191 64.5957 94.0384 64.6091 94.0544 64.6259C94.0869 64.6589 94.1052 64.7035 94.1052 64.7498C94.1052 64.7962 94.0869 64.8407 94.0544 64.8738L93.4838 65.4436C93.4507 65.4762 93.4061 65.4944 93.3597 65.4944C93.3133 65.4944 93.2687 65.4762 93.2356 65.4436C93.2028 65.4101 93.1845 65.3651 93.1845 65.3183C93.1845 65.2714 93.2028 65.2264 93.2356 65.1929L93.8062 64.6259Z" fill="#7A72B3"/>
<path fill-rule="evenodd" clip-rule="evenodd" d="M13.0035 45.7327C13.0003 45.7078 13.0025 45.6826 13.0099 45.6586C13.0172 45.6346 13.0296 45.6124 13.0462 45.5936C13.0628 45.5748 13.0832 45.5597 13.1061 45.5494C13.129 45.539 13.1538 45.5337 13.179 45.5337C13.2041 45.5337 13.2289 45.539 13.2518 45.5494C13.2747 45.5597 13.2951 45.5748 13.3117 45.5936C13.3283 45.6124 13.3407 45.6346 13.3481 45.6586C13.3554 45.6826 13.3576 45.7078 13.3544 45.7327V46.5248C13.3576 46.5497 13.3554 46.575 13.3481 46.599C13.3407 46.623 13.3283 46.6451 13.3117 46.6639C13.2951 46.6828 13.2747 46.6978 13.2518 46.7082C13.2289 46.7185 13.2041 46.7239 13.179 46.7239C13.1538 46.7239 13.129 46.7185 13.1061 46.7082C13.0832 46.6978 13.0628 46.6828 13.0462 46.6639C13.0296 46.6451 13.0172 46.623 13.0099 46.599C13.0025 46.575 13.0003 46.5497 13.0035 46.5248V45.7327ZM11.7996 46.3767C11.7668 46.3431 11.7485 46.2981 11.7485 46.2513C11.7485 46.2044 11.7668 46.1595 11.7996 46.1259C11.8327 46.0934 11.8772 46.0751 11.9237 46.0751C11.9701 46.0751 12.0147 46.0934 12.0478 46.1259L12.6184 46.6958C12.6511 46.7293 12.6695 46.7743 12.6695 46.8211C12.6695 46.868 12.6511 46.913 12.6184 46.9465C12.5853 46.979 12.5407 46.9973 12.4943 46.9973C12.4478 46.9973 12.4033 46.979 12.3702 46.9465L11.7996 46.3767ZM11.4059 47.6816C11.359 47.6816 11.314 47.663 11.2808 47.6299C11.2476 47.5967 11.229 47.5518 11.229 47.5049C11.229 47.4581 11.2476 47.4132 11.2808 47.38C11.314 47.3469 11.359 47.3283 11.4059 47.3283H12.199C12.2459 47.3283 12.2909 47.3469 12.3241 47.38C12.3572 47.4132 12.3759 47.4581 12.3759 47.5049C12.3759 47.5518 12.3572 47.5967 12.3241 47.6299C12.2909 47.663 12.2459 47.6816 12.199 47.6816H11.4059ZM12.0478 48.884C12.0147 48.9165 11.9701 48.9347 11.9237 48.9347C11.8772 48.9347 11.8327 48.9165 11.7996 48.884C11.7668 48.8504 11.7485 48.8054 11.7485 48.7586C11.7485 48.7117 11.7668 48.6668 11.7996 48.6332L12.3702 48.0634C12.4033 48.0308 12.4478 48.0126 12.4943 48.0126C12.5407 48.0126 12.5853 48.0308 12.6184 48.0634C12.6511 48.0969 12.6695 48.1419 12.6695 48.1888C12.6695 48.2356 12.6511 48.2806 12.6184 48.3141L12.0478 48.884ZM13.3544 49.2772C13.3576 49.302 13.3554 49.3273 13.3481 49.3513C13.3407 49.3753 13.3283 49.3974 13.3117 49.4163C13.2951 49.4351 13.2747 49.4502 13.2518 49.4605C13.2289 49.4708 13.2041 49.4762 13.179 49.4762C13.1538 49.4762 13.129 49.4708 13.1061 49.4605C13.0832 49.4502 13.0628 49.4351 13.0462 49.4163C13.0296 49.3974 13.0172 49.3753 13.0099 49.3513C13.0025 49.3273 13.0003 49.302 13.0035 49.2772V48.4851C13.0003 48.4602 13.0025 48.4349 13.0099 48.4109C13.0172 48.3869 13.0296 48.3648 13.0462 48.346C13.0628 48.3271 13.0832 48.312 13.1061 48.3017C13.129 48.2914 13.1538 48.286 13.179 48.286C13.2041 48.286 13.2289 48.2914 13.2518 48.3017C13.2747 48.312 13.2951 48.3271 13.3117 48.346C13.3283 48.3648 13.3407 48.3869 13.3481 48.4109C13.3554 48.4349 13.3576 48.4602 13.3544 48.4851V49.2772ZM14.5583 48.6332C14.5911 48.6668 14.6095 48.7117 14.6095 48.7586C14.6095 48.8054 14.5911 48.8504 14.5583 48.884C14.5252 48.9165 14.4807 48.9347 14.4342 48.9347C14.3878 48.9347 14.3432 48.9165 14.3101 48.884L13.7395 48.3141C13.7068 48.2806 13.6885 48.2356 13.6885 48.1888C13.6885 48.1419 13.7068 48.0969 13.7395 48.0634C13.7726 48.0308 13.8172 48.0126 13.8637 48.0126C13.9101 48.0126 13.9547 48.0308 13.9878 48.0634L14.5583 48.6332ZM14.9549 47.3283C15.0018 47.3283 15.0468 47.3469 15.08 47.38C15.1132 47.4132 15.1318 47.4581 15.1318 47.5049C15.1318 47.5518 15.1132 47.5967 15.08 47.6299C15.0468 47.663 15.0018 47.6816 14.9549 47.6816H14.159C14.112 47.6816 14.067 47.663 14.0339 47.6299C14.0007 47.5967 13.9821 47.5518 13.9821 47.5049C13.9821 47.4581 14.0007 47.4132 14.0339 47.38C14.067 47.3469 14.112 47.3283 14.159 47.3283H14.9549ZM14.3101 46.1259C14.3432 46.0934 14.3878 46.0751 14.4342 46.0751C14.4807 46.0751 14.5252 46.0934 14.5583 46.1259C14.5911 46.1595 14.6095 46.2044 14.6095 46.2513C14.6095 46.2981 14.5911 46.3431 14.5583 46.3767L13.9878 46.9465C13.9547 46.979 13.9101 46.9973 13.8637 46.9973C13.8172 46.9973 13.7726 46.979 13.7395 46.9465C13.7068 46.913 13.6885 46.868 13.6885 46.8211C13.6885 46.7743 13.7068 46.7293 13.7395 46.6958L14.3101 46.1259Z" fill="#7A72B3"/>
<path fill-rule="evenodd" clip-rule="evenodd" d="M55.8997 77.4616C55.8997 77.4148 55.9184 77.3698 55.9515 77.3367C55.9847 77.3036 56.0297 77.285 56.0766 77.285C56.1235 77.285 56.1685 77.3036 56.2017 77.3367C56.2349 77.3698 56.2535 77.4148 56.2535 77.4616V78.2537C56.2535 78.3006 56.2349 78.3455 56.2017 78.3786C56.1685 78.4117 56.1235 78.4304 56.0766 78.4304C56.0297 78.4304 55.9847 78.4117 55.9515 78.3786C55.9184 78.3455 55.8997 78.3006 55.8997 78.2537V77.4616ZM54.6958 78.1055C54.6793 78.0891 54.6662 78.0695 54.6573 78.048C54.6484 78.0265 54.6438 78.0035 54.6438 77.9802C54.6438 77.9569 54.6484 77.9338 54.6573 77.9123C54.6662 77.8908 54.6793 77.8713 54.6958 77.8548C54.7123 77.8384 54.7319 77.8253 54.7534 77.8164C54.7749 77.8075 54.798 77.8029 54.8213 77.8029C54.8446 77.8029 54.8677 77.8075 54.8892 77.8164C54.9108 77.8253 54.9304 77.8384 54.9468 77.8548L55.5174 78.4247C55.5357 78.4405 55.5505 78.4599 55.5609 78.4817C55.5714 78.5035 55.5772 78.5272 55.5781 78.5513C55.579 78.5754 55.575 78.5995 55.5662 78.622C55.5575 78.6445 55.5441 78.665 55.5271 78.6822C55.5101 78.6993 55.4898 78.7128 55.4674 78.7219C55.445 78.7309 55.4209 78.7352 55.3967 78.7346C55.3726 78.7339 55.3488 78.7283 55.3268 78.7182C55.3049 78.708 55.2853 78.6934 55.2692 78.6754L54.6986 78.1055H54.6958ZM54.3021 79.4105C54.2552 79.4105 54.2102 79.3919 54.177 79.3587C54.1438 79.3256 54.1252 79.2807 54.1252 79.2338C54.1252 79.187 54.1438 79.142 54.177 79.1089C54.2102 79.0758 54.2552 79.0572 54.3021 79.0572H55.0952C55.1421 79.0572 55.1871 79.0758 55.2203 79.1089C55.2534 79.142 55.2721 79.187 55.2721 79.2338C55.2721 79.2807 55.2534 79.3256 55.2203 79.3587C55.1871 79.3919 55.1421 79.4105 55.0952 79.4105H54.3021ZM54.9468 80.61C54.931 80.6282 54.9115 80.643 54.8897 80.6534C54.8679 80.6639 54.8442 80.6697 54.82 80.6706C54.7959 80.6715 54.7718 80.6675 54.7493 80.6587C54.7267 80.65 54.7062 80.6367 54.689 80.6197C54.6718 80.6027 54.6583 80.5824 54.6493 80.56C54.6402 80.5376 54.6359 80.5136 54.6366 80.4895C54.6372 80.4653 54.6428 80.4416 54.653 80.4197C54.6631 80.3978 54.6777 80.3782 54.6958 80.3621L55.2664 79.7923C55.2824 79.7742 55.302 79.7597 55.324 79.7495C55.3459 79.7393 55.3697 79.7337 55.3939 79.7331C55.418 79.7325 55.4421 79.7368 55.4645 79.7458C55.487 79.7548 55.5073 79.7683 55.5243 79.7855C55.5413 79.8027 55.5546 79.8232 55.5634 79.8457C55.5721 79.8682 55.5762 79.8922 55.5753 79.9164C55.5744 79.9405 55.5685 79.9642 55.5581 79.986C55.5476 80.0077 55.5328 80.0272 55.5146 80.043L54.944 80.6129L54.9468 80.61ZM56.2535 81.006C56.2535 81.0529 56.2349 81.0978 56.2017 81.131C56.1685 81.1641 56.1235 81.1827 56.0766 81.1827C56.0297 81.1827 55.9847 81.1641 55.9515 81.131C55.9184 81.0978 55.8997 81.0529 55.8997 81.006V80.214C55.8997 80.1671 55.9184 80.1222 55.9515 80.0891C55.9847 80.0559 56.0297 80.0373 56.0766 80.0373C56.1235 80.0373 56.1685 80.0559 56.2017 80.0891C56.2349 80.1222 56.2535 80.1671 56.2535 80.214V81.0203V81.006ZM57.4546 80.3621C57.4871 80.3952 57.5054 80.4397 57.5054 80.4861C57.5054 80.5324 57.4871 80.577 57.4546 80.61C57.4386 80.6268 57.4193 80.6402 57.398 80.6493C57.3766 80.6585 57.3537 80.6632 57.3304 80.6632C57.3072 80.6632 57.2842 80.6585 57.2629 80.6493C57.2416 80.6402 57.2223 80.6268 57.2063 80.61L56.6357 80.0402C56.6193 80.0237 56.6062 80.0042 56.5973 79.9826C56.5883 79.9611 56.5837 79.9381 56.5837 79.9148C56.5837 79.8678 56.6025 79.8227 56.6357 79.7894C56.669 79.7562 56.7142 79.7375 56.7613 79.7375C56.8084 79.7375 56.8535 79.7562 56.8868 79.7894L57.4574 80.3593L57.4546 80.3621ZM57.8511 79.0572C57.898 79.0572 57.943 79.0758 57.9762 79.1089C58.0093 79.142 58.028 79.187 58.028 79.2338C58.028 79.2807 58.0093 79.3256 57.9762 79.3587C57.943 79.3919 57.898 79.4105 57.8511 79.4105H57.0551C57.0082 79.4105 56.9632 79.3919 56.9301 79.3587C56.8969 79.3256 56.8783 79.2807 56.8783 79.2338C56.8783 79.187 56.8969 79.142 56.9301 79.1089C56.9632 79.0758 57.0082 79.0572 57.0551 79.0572H57.8511ZM57.2063 77.8548C57.2394 77.8223 57.284 77.804 57.3304 77.804C57.3769 77.804 57.4215 77.8223 57.4546 77.8548C57.4873 77.8883 57.5056 77.9333 57.5056 77.9802C57.5056 78.027 57.4873 78.072 57.4546 78.1055L56.884 78.6754C56.8675 78.6918 56.8479 78.7049 56.8264 78.7138C56.8048 78.7227 56.7817 78.7273 56.7584 78.7273C56.7351 78.7273 56.712 78.7227 56.6905 78.7138C56.669 78.7049 56.6494 78.6918 56.6329 78.6754C56.6164 78.6589 56.6034 78.6394 56.5944 78.6179C56.5855 78.5964 56.5809 78.5733 56.5809 78.55C56.5809 78.5267 56.5855 78.5037 56.5944 78.4822C56.6034 78.4607 56.6164 78.4411 56.6329 78.4247L57.2063 77.8548Z" fill="#7A72B3"/>
<path d="M136.3 25.207H99.5291C98.965 25.207 98.5078 25.6637 98.5078 26.2271V48.8641C98.5078 49.4274 98.965 49.8841 99.5291 49.8841H136.3C136.864 49.8841 137.321 49.4274 137.321 48.8641V26.2271C137.321 25.6637 136.864 25.207 136.3 25.207Z" fill="#6154A1"/>
<path fill-rule="evenodd" clip-rule="evenodd" d="M135.005 25.2042H99.5291C99.2585 25.2049 98.9991 25.3126 98.8077 25.5037C98.6163 25.6949 98.5085 25.9539 98.5077 26.2242V46.7015H133.984C134.254 46.7007 134.514 46.593 134.705 46.4019C134.896 46.2108 135.004 45.9518 135.005 45.6815V25.2042Z" fill="#746AAE"/>
<path fill-rule="evenodd" clip-rule="evenodd" d="M136.3 25.2042H99.5291C99.2585 25.2049 98.9991 25.3126 98.8077 25.5037C98.6163 25.6949 98.5085 25.9539 98.5077 26.2242V27.096L115.46 42.7325C118.198 45.2598 117.388 45.482 120.059 43.0174L137.321 27.096V26.2242C137.321 25.9539 137.213 25.6949 137.021 25.5037C136.83 25.3126 136.571 25.2049 136.3 25.2042Z" fill="#3C2C86"/>
<path fill-rule="evenodd" clip-rule="evenodd" d="M98.5077 47.8839V48.8612C98.5085 49.1315 98.6163 49.3905 98.8077 49.5816C98.9991 49.7728 99.2585 49.8805 99.5291 49.8812H136.3C136.571 49.8805 136.83 49.7728 137.021 49.5816C137.213 49.3905 137.321 49.1315 137.321 48.8612V47.8839L119.919 33.1734C117.414 31.0536 118.173 31.2445 115.602 33.4185L98.5077 47.8839Z" fill="#3C2C86"/>
<path fill-rule="evenodd" clip-rule="evenodd" d="M98.5306 49.0806C98.5821 49.307 98.7088 49.5094 98.8901 49.6547C99.0714 49.8001 99.2966 49.8799 99.5291 49.8812H136.3C136.532 49.8803 136.757 49.8006 136.938 49.6551C137.119 49.5096 137.245 49.307 137.296 49.0806L119.733 34.2276C117.468 32.313 118.156 32.4868 115.833 34.4499L98.5306 49.0806Z" fill="#6154A1"/>
<path fill-rule="evenodd" clip-rule="evenodd" d="M134.386 46.6189L119.733 34.2276C117.468 32.313 118.156 32.4868 115.833 34.4499L101.346 46.7015H133.984C134.122 46.7022 134.259 46.674 134.386 46.6189Z" fill="#746AAE"/>
<path fill-rule="evenodd" clip-rule="evenodd" d="M124.874 38.567L119.739 34.2191C117.474 32.3044 118.161 32.4782 115.839 34.4413L110.955 38.567L115.46 42.724C118.198 45.2512 117.388 45.4735 120.059 43.0089L124.874 38.567Z" fill="#3C2C86"/>
<path fill-rule="evenodd" clip-rule="evenodd" d="M136.3 25.2042H99.5291C99.3682 25.2048 99.2096 25.2433 99.0664 25.3166C98.9231 25.3899 98.7992 25.4958 98.7046 25.6258L115.822 41.4276C118.144 43.5674 117.457 43.7583 119.722 41.6698L137.125 25.6258C137.03 25.4958 136.906 25.3899 136.763 25.3166C136.62 25.2433 136.461 25.2048 136.3 25.2042Z" fill="#7A72B3"/>
<path fill-rule="evenodd" clip-rule="evenodd" d="M129.513 29.2871L127.895 30.7801L122.732 35.544L122.041 36.1793L117.659 40.2252C116.803 41.0031 116.381 41.4646 116.047 41.627C118.113 43.5787 117.542 43.6899 119.733 41.6698L123.941 37.7863L124.632 37.1509L128.683 33.4127L129 33.1278L134.235 28.3013L135.005 27.589L137.125 25.6344C137.03 25.5043 136.906 25.3984 136.763 25.3251C136.62 25.2519 136.461 25.2134 136.3 25.2127H133.941L133.35 25.7569L129.513 29.2871Z" fill="#695FA7"/>
</g>
<defs>
<clipPath id="clip0_19_378">
<rect width="175.037" height="115" fill="white"/>
</clipPath>
</defs>
</svg>
