<svg width="24" height="23" viewBox="0 0 24 23" fill="none" xmlns="http://www.w3.org/2000/svg">
<path d="M12.1697 23.0007H10.819C10.4341 22.9529 10.0469 22.918 9.66475 22.8539C7.26221 22.4522 5.16808 21.4189 3.44483 19.6976C0.862758 17.1157 -0.275198 13.9757 0.0579726 10.3436C0.279711 7.90454 1.23476 5.74843 2.86628 3.91689C5.03358 1.48403 7.76254 0.173373 11.0143 0.0147444C13.2835 -0.097758 15.4176 0.433254 17.3598 1.6179C20.3425 3.43819 22.1783 6.07581 22.8227 9.5212C22.9038 9.95208 22.9432 10.3908 23.0023 10.8262V12.1763C22.9835 12.3383 22.9647 12.4999 22.946 12.6611C22.6708 15.1362 21.7253 17.3193 20.0566 19.17C18.285 21.1354 16.0901 22.3622 13.4782 22.8263C13.0443 22.8989 12.6081 22.9422 12.1697 23.0007ZM21.1327 11.5102C21.1529 6.22263 16.8358 1.89747 11.509 1.86597C6.23231 1.83503 1.89941 6.15006 1.85664 11.4793C1.81387 16.7545 6.17604 21.1264 11.4899 21.1343C16.7908 21.1427 21.113 16.8282 21.1327 11.5102Z" fill="#246D00"/>
<path d="M10.0255 13.2733C10.1549 13.1512 10.3238 12.992 10.4915 12.8339L15.838 7.76458C16.2702 7.35507 16.7947 7.3202 17.1853 7.67345C17.3605 7.8295 17.4697 8.04642 17.4906 8.28008C17.5115 8.51373 17.4426 8.74658 17.2978 8.93123C17.2412 9.00095 17.1797 9.06655 17.1138 9.12755C14.9673 11.1627 12.8207 13.1971 10.6738 15.2308C10.1814 15.6971 9.66756 15.6904 9.1965 15.2083C8.08744 14.0724 6.97931 12.9359 5.87212 11.7989C5.64025 11.5621 5.49167 11.2927 5.53895 10.9552C5.59073 10.5833 5.79446 10.3161 6.15183 10.1929C6.52552 10.0653 6.86319 10.1485 7.1412 10.4303C7.69274 10.9928 8.23302 11.5621 8.7913 12.1151C9.18187 12.5054 9.59665 12.8733 10.0255 13.2733Z" fill="#246D00"/>
</svg>
