<svg width="14" height="14" viewBox="0 0 14 14" fill="none" xmlns="http://www.w3.org/2000/svg">
    <path 
    d="M13.9983 7.40916C13.9622 7.67875 13.9348 7.95008 13.8878 8.21793C13.7211 9.17181 13.3549 10.0797 12.8131 10.882C12.7742 10.9427 12.7235 10.9949 12.664 11.0356C12.6046 11.0763 12.5376 11.1047 12.467 11.1191C12.3964 11.1334 12.3236 11.1335 12.253 11.1193C12.1824 11.1051 12.1153 11.0768 12.0558 11.0362C11.9954 10.9969 11.9435 10.9459 11.9032 10.8861C11.8629 10.8264 11.8349 10.7592 11.821 10.6884C11.8071 10.6177 11.8075 10.5449 11.8222 10.4743C11.8368 10.4037 11.8655 10.3368 11.9065 10.2775C12.3466 9.60203 12.6721 8.87731 12.7992 8.07987C13.1801 5.68448 12.404 3.72461 10.4885 2.24601C9.3895 1.3976 8.11206 1.04395 6.72667 1.09883C4.02075 1.20597 1.69089 3.23857 1.20167 5.91182C0.661531 8.86164 2.36682 11.7287 5.22464 12.6272C6.88249 13.1498 8.47853 12.9538 9.9897 12.0924C10.1325 12.0109 10.2757 11.9513 10.4428 11.9861C10.5509 12.0075 10.6501 12.0608 10.7277 12.1391C10.8053 12.2174 10.8576 12.3172 10.878 12.4255C10.898 12.5363 10.8832 12.6505 10.8357 12.7525C10.7881 12.8546 10.7102 12.9393 10.6125 12.9952C10.0244 13.3524 9.38561 13.6186 8.71792 13.7848C6.95193 14.2334 5.08069 13.9747 3.50246 13.0637C1.92422 12.1526 0.763611 10.6613 0.267631 8.90693C-0.831799 5.07692 1.56597 1.03089 5.44705 0.17421C5.77479 0.101913 6.11211 0.0731673 6.44463 0.0235174C6.48468 0.0178556 6.52428 0.00827498 6.56389 0H7.4383C7.47355 0.00783946 7.50837 0.0174192 7.54363 0.0226455C7.90271 0.0783928 8.26701 0.109752 8.62042 0.192502C11.3155 0.80877 13.436 3.06697 13.8921 5.79379C13.9356 6.04858 13.9631 6.30641 13.9979 6.56293L13.9983 7.40916Z" fill="#FF0000"/>
    <path d="M5.84092 4.22803C6.02808 4.29118 6.23046 4.32689 6.39934 4.42227C7.31771 4.94142 8.23172 5.46971 9.14138 6.00715C9.31609 6.10769 9.46115 6.25263 9.56188 6.4273C9.6626 6.60198 9.71542 6.80018 9.71498 7.00185C9.71453 7.20351 9.66085 7.40148 9.55936 7.57571C9.45787 7.74994 9.31218 7.89425 9.13703 7.99402C8.23259 8.52826 7.32366 9.05496 6.41022 9.5741C5.62156 10.0218 4.68535 9.47306 4.6823 8.5676C4.67882 7.51537 4.67882 6.46329 4.6823 5.41135C4.68236 5.26059 4.71211 5.11132 4.76986 4.97208C4.82761 4.83283 4.91221 4.70634 5.01885 4.59984C5.12548 4.49334 5.25206 4.40891 5.39132 4.35139C5.53059 4.29387 5.67981 4.26438 5.83048 4.26461L5.84092 4.22803ZM5.77259 6.99884C5.77259 7.4997 5.77259 8.00055 5.77259 8.5014C5.77259 8.65166 5.7974 8.66603 5.92754 8.59069C6.78961 8.09216 7.6514 7.59319 8.51289 7.09379C8.65043 7.01408 8.65043 6.9836 8.51289 6.9039C7.65169 6.40478 6.7899 5.90596 5.92754 5.40743C5.79696 5.33208 5.77259 5.34602 5.77259 5.49454C5.77085 5.99655 5.77085 6.49799 5.77259 6.99884V6.99884Z" fill="#FF0000"/>
</svg>