<svg width="8" height="8" viewBox="0 0 8 8" fill="none" xmlns="http://www.w3.org/2000/svg">
<path d="M1 1.25786C1.00401 1.25176 1.00744 1.24529 1.01024 1.23853C1.08211 0.993028 1.35531 0.919956 1.53673 1.10012C1.86493 1.42605 2.19216 1.75313 2.51843 2.08137L3.95107 3.51439C3.96595 3.52947 3.9816 3.54378 4.01406 3.57471C4.02464 3.55274 4.0376 3.53199 4.0527 3.51285C4.84988 2.71382 5.64738 1.91551 6.4452 1.11791C6.53582 1.02724 6.63706 0.978916 6.76632 1.01139C6.81535 1.02341 6.86066 1.04735 6.89822 1.08109C6.93579 1.11484 6.96444 1.15734 6.98165 1.20483C6.99885 1.25231 7.00407 1.30332 6.99684 1.35331C6.98961 1.4033 6.97016 1.45073 6.9402 1.49139C6.92103 1.51599 6.90004 1.53912 6.87741 1.56059C6.08049 2.35691 5.28376 3.15329 4.48723 3.94973C4.46465 3.96936 4.44437 3.99147 4.42675 4.01565C4.4484 4.02488 4.46879 4.03683 4.48742 4.05122C5.28717 4.85024 6.08661 5.64927 6.88572 6.44829C6.95508 6.51749 7.0001 6.59501 6.99836 6.69592C6.9976 6.7567 6.97884 6.81588 6.94444 6.86599C6.91005 6.91609 6.86158 6.95486 6.80515 6.97738C6.78757 6.98434 6.77037 6.99227 6.75279 6.99961H6.63571C6.54702 6.97371 6.48114 6.91688 6.41584 6.85231C5.62845 6.06424 4.8408 5.27604 4.05289 4.48772C4.0382 4.46942 4.02575 4.44943 4.0158 4.42818L3.98759 4.43282C3.97559 4.45322 3.96196 4.47262 3.94682 4.49081C3.16072 5.27708 2.37481 6.06366 1.58909 6.85057C1.5234 6.91649 1.45578 6.97564 1.36381 7H1.24653C1.18653 6.98245 1.1322 6.94939 1.08903 6.90415C1.04585 6.85891 1.01534 6.8031 1.00058 6.74231V6.63677C1.02879 6.54011 1.09409 6.46975 1.16365 6.40035C1.94576 5.61975 2.72722 4.83871 3.50804 4.05721C3.52747 4.04089 3.54836 4.02639 3.57045 4.01391V3.98549C3.54826 3.97322 3.5273 3.95885 3.50785 3.94258C2.72613 3.16121 1.94486 2.38023 1.16403 1.59964C1.09448 1.53024 1.02879 1.46046 1.00058 1.36341L1 1.25786Z" fill="white" stroke="white" stroke-width="0.5"/>
</svg>
