<?xml version="1.0" encoding="UTF-8"?>
<svg id="Layer_1" data-name="Layer 1" xmlns="http://www.w3.org/2000/svg" viewBox="0 0 994.02 157.68">
  <defs>
    <style>
      .cls-1 {
        fill: #172351;
      }

      .cls-2 {
        fill: #6e55ff;
      }

      .cls-3 {
        fill: #845de2;
      }
    </style>
  </defs>
  <path class="cls-3" d="m92.67,4.7H8.34c-2.52,0-4.56,2.04-4.56,4.56v17.94c0,2.52,2.04,4.56,4.56,4.56h84.33c2.52,0,4.56-2.04,4.56-4.56V9.27c0-2.52-2.04-4.56-4.56-4.56Z"/>
  <path class="cls-2" d="m140.65,46.73H38.66c-2.52,0-4.56,2.04-4.56,4.56v17.94c0,2.52,2.04,4.56,4.56,4.56h101.99c2.52,0,4.56-2.04,4.56-4.56v-17.94c0-2.52-2.04-4.56-4.56-4.56Z"/>
  <path class="cls-2" d="m140.66,88.75h-23.7c-2.52,0-4.56,2.04-4.56,4.56v17.94c0,2.52,2.04,4.56,4.56,4.56h23.7c2.52,0,4.56-2.04,4.56-4.56v-17.94c0-2.52-2.04-4.56-4.56-4.56Z"/>
  <path class="cls-2" d="m92.67,88.75h-23.69c-2.52,0-4.56,2.04-4.56,4.56v17.94c0,2.52,2.04,4.56,4.56,4.56h23.69c2.52,0,4.56-2.04,4.56-4.56v-17.94c0-2.52-2.04-4.56-4.56-4.56Z"/>
  <path class="cls-2" d="m140.66,4.7h-23.7c-2.52,0-4.56,2.04-4.56,4.56v17.94c0,2.52,2.04,4.56,4.56,4.56h23.7c2.52,0,4.56-2.04,4.56-4.56V9.27c0-2.52-2.04-4.56-4.56-4.56Z"/>
  <path class="cls-1" d="m265.6,10.95h20.18c1.09,0,1.98.89,1.98,1.98v34.3c4.8-6.78,13.41-11.44,24.28-11.44,17.93,0,29.93,12.42,29.93,33.6v44.05c0,1.09-.89,1.98-1.98,1.98h-20.04c-1.09,0-1.98-.89-1.98-1.98v-40.8c0-10.73-5.93-16.66-15.11-16.66s-15.11,5.93-15.11,16.66v40.8c0,1.09-.89,1.98-1.98,1.98h-20.18c-1.09,0-1.98-.89-1.98-1.98V12.93c0-1.09.89-1.98,1.98-1.98Z"/>
  <path class="cls-1" d="m393.79,115.28c-23.16,0-39.82-15.53-39.82-40.52s16.38-40.52,39.82-40.52,39.25,15.25,39.25,39.25c0,1.7-.08,3.48-.24,5.28-.09,1.01-.96,1.78-1.97,1.78h-52.85c.85,10.31,7.2,15.11,14.97,15.11,5.33,0,8.82-2.09,11.03-5.04,1.18-1.57,2.96-2.58,4.93-2.58h19.66c1.35,0,2.32,1.32,1.89,2.6-4.68,14.11-18.16,24.65-36.66,24.65Zm-15.67-48.15h30.21c0-8.61-6.78-13.55-14.82-13.55s-13.98,4.8-15.39,13.55Z"/>
  <path class="cls-1" d="m554.31,72.65c0-10.31-5.93-15.95-15.11-15.95s-15.11,5.65-15.11,15.95v40.8c0,1.09-.89,1.98-1.98,1.98h-20.04c-1.09,0-1.98-.89-1.98-1.98v-40.8c0-10.31-5.93-15.95-15.11-15.95s-15.11,5.65-15.11,15.95v40.8c0,1.09-.89,1.98-1.98,1.98h-20.18c-1.09,0-1.98-.89-1.98-1.98V38.63c0-1.09.89-1.98,1.98-1.98h20.18c1.09,0,1.98.89,1.98,1.98v7.9c4.66-6.35,12.71-10.73,23.01-10.73,11.86,0,21.46,5.22,26.83,14.68,5.23-8.33,15.11-14.68,26.54-14.68,19.48,0,32.05,12.42,32.05,33.6v44.05c0,1.09-.89,1.98-1.98,1.98h-20.04c-1.09,0-1.98-.89-1.98-1.98v-40.8Z"/>
  <path class="cls-1" d="m631.26,115.28c-23.16,0-39.82-15.53-39.82-40.52s16.38-40.52,39.82-40.52,39.25,15.25,39.25,39.25c0,1.7-.08,3.48-.24,5.28-.09,1.01-.96,1.78-1.97,1.78h-52.85c.85,10.31,7.2,15.11,14.97,15.11,6.25,0,9.98-2.88,12.07-6.65.34-.61,1-.97,1.7-.97h21.85c1.35,0,2.32,1.32,1.89,2.6-4.68,14.11-18.16,24.65-36.66,24.65Zm-15.67-48.15h30.21c0-8.61-6.78-13.55-14.82-13.55s-13.98,4.8-15.39,13.55Z"/>
  <path class="cls-1" d="m685.2,10.95h20.18c1.09,0,1.98.89,1.98,1.98v34.3c4.8-6.78,13.41-11.44,24.28-11.44,17.93,0,29.93,12.42,29.93,33.6v44.05c0,1.09-.89,1.98-1.98,1.98h-20.04c-1.09,0-1.98-.89-1.98-1.98v-40.8c0-10.73-5.93-16.66-15.11-16.66s-15.11,5.93-15.11,16.66v40.8c0,1.09-.89,1.98-1.98,1.98h-20.18c-1.09,0-1.98-.89-1.98-1.98V12.93c0-1.09.89-1.98,1.98-1.98Z"/>
  <rect class="cls-1" x="774.37" y="36.65" width="24.15" height="78.79" rx="1.98" ry="1.98"/>
  <path class="cls-1" d="m845.95,34.24c11.58,0,20.05,5.23,24.28,12.28v-9.17c0-1.09.89-1.98,1.98-1.98h20.18c1.09,0,1.98.89,1.98,1.98v76.66c0,21.04-12.14,38.97-39.39,38.97-22.45,0-37.38-10.88-40.47-28.29-.22-1.22.72-2.34,1.96-2.34h20.14c.81,0,1.54.49,1.83,1.24,2.01,5.22,7.68,8.5,15.41,8.5,9.18,0,16.38-4.8,16.38-18.07v-11.15c-4.38,6.92-12.71,12.43-24.28,12.43-19.34,0-34.73-15.81-34.73-40.66s15.39-40.38,34.73-40.38Zm7.06,21.04c-9.04,0-17.23,6.78-17.23,19.34s8.19,19.63,17.23,19.63,17.23-6.92,17.23-19.48-8.05-19.49-17.23-19.49Z"/>
  <path class="cls-1" d="m909.86,10.95h20.18c1.09,0,1.98.89,1.98,1.98v34.3c4.8-6.78,13.41-11.44,24.28-11.44,17.93,0,29.93,12.42,29.93,33.6v44.05c0,1.09-.89,1.98-1.98,1.98h-20.04c-1.09,0-1.98-.89-1.98-1.98v-40.8c0-10.73-5.93-16.66-15.11-16.66s-15.11,5.93-15.11,16.66v40.8c0,1.09-.89,1.98-1.98,1.98h-20.18c-1.09,0-1.98-.89-1.98-1.98V12.93c0-1.09.89-1.98,1.98-1.98Z"/>
  <path class="cls-1" d="m247.21,96.94v16.52c0,1.09-.89,1.98-1.98,1.98h-10.31c-16.38,0-27.82-6.93-27.82-27.39V12.93c0-1.09.89-1.98,1.98-1.98h20.18c1.09,0,1.98.89,1.98,1.98v18.5h-.02v27.25h.02v29.65c0,4.64,1.98,6.63,7.34,6.63h6.64c1.09,0,1.98.89,1.98,1.98Z"/>
  <path class="cls-1" d="m796.78,4.78h-20.67c-1.41,0-2.55,1.14-2.55,2.55v16.15c0,1.41,1.14,2.55,2.55,2.55h20.67c1.41,0,2.55-1.14,2.55-2.55V7.33c0-1.41-1.14-2.55-2.55-2.55Z"/>
  <path class="cls-1" d="m249.83,42.87h-13.96c-.95,0-1.72,1.01-1.72,2.25v14.27c0,1.24.77,2.25,1.72,2.25h13.96c.95,0,1.72-1.01,1.72-2.25v-14.27c0-1.24-.77-2.25-1.72-2.25Z"/>
</svg>