<svg id="svg" fill="#0c71c3" xmlns="http://www.w3.org/2000/svg" xmlns:xlink="http://www.w3.org/1999/xlink" viewBox="0, 0, 400,38.76953125"><g id="svgg"><path id="path0" d="M0.000 19.385 L 0.000 38.770 3.247 38.770 L 6.494 38.770 6.506 31.238 L 6.519 23.706 19.678 23.676 C 26.915 23.659,32.892 23.643,32.959 23.640 C 33.607 23.612,35.314 23.222,35.849 22.979 C 37.069 22.426,37.571 22.048,38.194 21.217 C 38.735 20.497,39.246 19.238,39.326 18.433 C 39.336 18.325,39.375 18.051,39.411 17.822 C 39.504 17.243,39.509 6.524,39.417 5.933 C 39.384 5.718,39.344 5.432,39.329 5.298 C 39.229 4.396,38.672 3.070,38.084 2.332 C 37.785 1.957,37.594 1.784,36.854 1.219 C 36.431 0.896,35.231 0.468,34.038 0.215 C 33.226 0.043,32.678 0.037,16.272 0.018 L 0.000 -0.000 0.000 19.385 M268.994 19.385 L 268.994 38.770 272.266 38.770 L 275.537 38.770 275.537 31.227 L 275.537 23.685 288.806 23.669 C 303.412 23.650,302.390 23.672,303.589 23.358 C 303.857 23.288,304.165 23.210,304.272 23.184 C 305.704 22.848,307.275 21.527,307.775 20.239 C 307.827 20.105,307.913 19.901,307.965 19.786 C 308.062 19.574,308.252 18.794,308.379 18.091 C 308.507 17.379,308.543 16.034,308.543 11.865 C 308.543 6.665,308.520 6.216,308.179 4.639 C 307.878 3.249,306.957 1.897,305.864 1.241 C 305.660 1.119,305.460 0.999,305.420 0.975 C 304.784 0.591,302.830 0.098,301.950 0.098 C 301.740 0.098,301.555 0.076,301.538 0.049 C 301.518 0.016,296.036 0.000,285.251 0.000 L 268.994 0.000 268.994 19.385 M30.469 5.209 C 32.000 5.644,32.643 6.412,32.862 8.066 C 32.968 8.873,32.898 15.626,32.779 16.064 C 32.372 17.558,31.825 18.093,30.363 18.428 C 29.620 18.598,28.904 18.608,17.627 18.593 L 6.519 18.579 6.506 11.828 L 6.494 5.076 18.298 5.091 L 30.103 5.105 30.469 5.209 M299.123 5.150 C 300.918 5.498,301.632 6.271,301.833 8.081 C 301.933 8.985,301.933 14.637,301.833 15.552 C 301.665 17.086,301.091 17.889,299.879 18.284 C 298.926 18.595,299.762 18.575,287.073 18.591 L 275.537 18.606 275.537 11.842 L 275.537 5.078 287.148 5.078 C 297.085 5.079,298.811 5.089,299.123 5.150 M56.368 6.978 C 56.357 6.990,56.348 14.147,56.348 22.884 L 56.348 38.770 72.559 38.770 L 88.770 38.770 88.770 36.426 L 88.770 34.082 75.598 34.082 L 62.427 34.083 62.414 29.346 L 62.402 24.609 70.263 24.609 L 78.125 24.609 78.125 22.241 L 78.125 19.873 70.276 19.861 L 62.427 19.849 62.414 15.759 L 62.402 11.670 75.439 11.670 L 88.477 11.670 88.477 9.314 L 88.477 6.958 72.432 6.958 C 63.608 6.958,56.379 6.967,56.368 6.978 M103.809 22.864 L 103.809 38.770 106.592 38.770 L 109.375 38.770 109.375 28.479 C 109.375 16.769,109.379 16.938,108.992 13.783 C 108.972 13.616,108.963 13.488,108.973 13.497 C 108.983 13.507,109.093 13.669,109.219 13.858 C 110.135 15.228,111.712 16.916,113.745 18.701 C 114.470 19.338,115.151 19.943,115.259 20.045 C 115.366 20.148,116.234 20.913,117.188 21.746 C 118.141 22.578,119.064 23.396,119.238 23.563 C 119.413 23.730,120.281 24.498,121.167 25.269 C 122.053 26.040,122.921 26.807,123.096 26.973 C 123.270 27.139,124.127 27.897,125.000 28.658 C 125.873 29.420,126.730 30.178,126.904 30.343 C 127.079 30.509,128.002 31.326,128.955 32.159 C 129.908 32.992,130.765 33.750,130.859 33.844 C 130.953 33.937,131.821 34.704,132.788 35.548 C 133.755 36.392,134.613 37.149,134.694 37.230 C 134.775 37.312,135.199 37.691,135.636 38.074 L 136.429 38.770 138.527 38.770 L 140.625 38.770 140.613 22.875 L 140.601 6.981 137.830 6.969 L 135.059 6.958 135.060 16.943 C 135.061 24.875,135.075 27.215,135.130 28.320 C 135.200 29.715,135.345 31.001,135.525 31.824 C 135.560 31.987,135.489 31.956,135.356 31.750 C 134.400 30.274,133.064 28.843,130.762 26.829 C 129.969 26.136,129.156 25.413,128.955 25.223 C 128.754 25.033,127.765 24.152,126.758 23.267 C 125.751 22.381,124.762 21.501,124.561 21.311 C 124.359 21.121,123.458 20.320,122.559 19.531 C 121.659 18.742,120.747 17.930,120.532 17.727 C 120.317 17.524,119.405 16.713,118.505 15.924 C 117.606 15.134,116.705 14.332,116.503 14.141 C 116.302 13.950,115.335 13.088,114.355 12.226 C 113.375 11.363,112.474 10.561,112.353 10.443 C 112.231 10.326,111.506 9.681,110.741 9.011 C 109.976 8.341,109.151 7.611,108.907 7.389 L 108.462 6.984 106.135 6.971 L 103.809 6.958 103.809 22.864 M165.551 6.989 C 164.898 7.027,164.399 7.101,163.721 7.261 C 163.439 7.328,163.166 7.391,163.115 7.401 C 162.179 7.586,161.071 8.310,160.550 9.078 C 160.276 9.481,159.726 10.735,159.793 10.802 C 159.805 10.814,159.782 10.931,159.743 11.063 C 159.435 12.111,159.361 13.235,159.389 16.479 C 159.415 19.507,159.437 19.775,159.787 21.189 C 159.905 21.664,160.370 22.803,160.446 22.803 C 160.465 22.803,160.527 22.885,160.584 22.986 C 160.884 23.516,162.085 24.355,162.730 24.486 C 162.778 24.495,163.012 24.560,163.251 24.630 C 163.489 24.699,163.873 24.788,164.105 24.826 C 165.278 25.020,165.290 25.021,176.648 25.036 L 187.646 25.052 187.646 29.518 L 187.646 33.984 175.635 33.984 L 163.623 33.984 163.623 31.611 C 163.623 29.530,163.614 29.241,163.550 29.265 C 163.510 29.281,163.362 29.307,163.221 29.325 C 163.079 29.342,162.535 29.450,162.012 29.565 C 161.488 29.679,160.873 29.808,160.645 29.850 C 160.416 29.892,159.933 29.991,159.570 30.071 C 159.208 30.150,158.757 30.242,158.569 30.275 C 158.381 30.309,158.197 30.347,158.161 30.361 C 158.105 30.382,158.098 30.616,158.120 31.709 C 158.197 35.637,159.238 37.619,161.561 38.263 C 163.467 38.791,162.169 38.745,175.269 38.745 C 188.888 38.745,187.726 38.772,189.063 38.420 C 189.371 38.339,189.657 38.265,189.697 38.257 C 190.959 37.989,192.175 36.712,192.580 35.229 C 193.004 33.681,192.982 33.963,193.005 29.688 C 193.028 25.334,193.011 25.078,192.603 23.593 C 192.092 21.728,190.872 20.662,188.770 20.241 C 187.218 19.930,188.306 19.956,175.988 19.937 L 164.843 19.919 164.856 15.807 L 164.868 11.694 176.038 11.682 L 187.207 11.670 187.207 13.769 C 187.207 15.824,187.209 15.869,187.303 15.869 C 187.356 15.869,187.762 15.782,188.205 15.675 C 188.648 15.568,189.101 15.469,189.211 15.455 C 189.321 15.441,189.657 15.372,189.957 15.302 C 190.257 15.231,190.635 15.143,190.796 15.105 C 190.957 15.067,191.177 15.025,191.284 15.011 C 191.392 14.998,191.743 14.925,192.065 14.850 L 192.651 14.713 192.668 14.058 C 192.783 9.353,190.943 7.231,186.548 7.003 C 185.795 6.964,166.208 6.951,165.551 6.989 M228.662 6.983 C 214.345 7.011,215.475 6.987,214.258 7.282 C 214.030 7.337,213.801 7.391,213.749 7.401 C 211.425 7.859,210.175 9.849,210.007 13.354 C 209.950 14.541,209.970 32.937,210.028 33.276 C 210.047 33.384,210.085 33.625,210.114 33.813 C 210.143 34.001,210.210 34.331,210.263 34.546 C 210.317 34.761,210.392 35.065,210.431 35.223 C 210.782 36.632,212.148 38.040,213.376 38.256 C 213.459 38.271,213.627 38.317,213.749 38.358 C 214.269 38.535,215.130 38.675,215.991 38.724 C 216.681 38.763,242.294 38.766,242.847 38.727 C 243.317 38.694,244.234 38.522,244.719 38.375 C 244.890 38.323,245.082 38.272,245.147 38.260 C 246.731 37.973,248.195 36.078,248.414 34.033 C 248.430 33.885,248.464 33.611,248.490 33.423 C 248.612 32.538,248.631 31.136,248.631 22.900 C 248.631 14.665,248.612 13.262,248.490 12.378 C 248.464 12.190,248.430 11.915,248.414 11.768 C 248.285 10.558,247.540 8.974,246.843 8.423 C 246.204 7.918,245.355 7.490,244.804 7.394 C 244.721 7.380,244.489 7.327,244.287 7.277 C 243.600 7.105,242.823 7.002,241.968 6.968 C 241.833 6.962,235.846 6.969,228.662 6.983 M333.032 7.056 C 332.873 7.318,332.520 7.958,332.520 7.984 C 332.520 8.001,332.467 8.084,332.403 8.170 C 332.339 8.255,332.225 8.446,332.151 8.594 C 332.076 8.741,331.967 8.928,331.908 9.009 C 331.849 9.089,331.751 9.254,331.690 9.375 C 331.629 9.496,331.430 9.847,331.248 10.156 C 331.065 10.465,330.865 10.809,330.802 10.921 C 330.582 11.315,330.305 11.796,330.077 12.183 C 329.555 13.066,329.157 13.758,329.053 13.965 C 328.992 14.086,328.926 14.196,328.907 14.209 C 328.888 14.222,328.763 14.431,328.629 14.673 C 328.495 14.915,328.151 15.512,327.865 16.000 C 327.578 16.489,327.344 16.902,327.344 16.918 C 327.344 16.935,327.249 17.096,327.133 17.276 C 327.017 17.455,326.861 17.722,326.786 17.868 C 326.711 18.014,326.611 18.189,326.564 18.258 C 326.470 18.397,325.761 19.623,325.574 19.971 C 325.509 20.092,325.406 20.267,325.346 20.361 C 325.285 20.455,325.142 20.697,325.029 20.898 C 324.915 21.100,324.698 21.479,324.545 21.740 C 324.392 22.002,324.268 22.236,324.268 22.261 C 324.268 22.286,324.249 22.314,324.226 22.323 C 324.204 22.332,324.075 22.537,323.940 22.778 C 323.806 23.020,323.490 23.569,323.240 23.999 C 322.639 25.028,322.455 25.348,322.232 25.748 C 322.129 25.931,321.964 26.210,321.863 26.368 C 321.762 26.527,321.680 26.667,321.680 26.681 C 321.680 26.695,321.550 26.923,321.392 27.188 C 321.234 27.453,321.023 27.822,320.923 28.007 C 320.824 28.193,320.714 28.378,320.680 28.418 C 320.646 28.458,320.526 28.667,320.412 28.882 C 320.298 29.097,320.177 29.305,320.143 29.346 C 320.108 29.386,320.032 29.514,319.974 29.630 C 319.915 29.746,319.741 30.054,319.586 30.314 C 319.431 30.573,319.233 30.917,319.145 31.077 C 319.058 31.237,318.948 31.424,318.901 31.492 C 318.854 31.560,318.711 31.803,318.584 32.031 C 318.457 32.260,318.250 32.624,318.124 32.840 C 317.998 33.057,317.766 33.463,317.608 33.743 C 317.450 34.024,317.281 34.311,317.233 34.381 C 317.184 34.452,317.048 34.683,316.929 34.894 C 316.420 35.804,316.038 36.467,315.892 36.694 C 315.806 36.829,315.675 37.059,315.600 37.207 C 315.526 37.355,315.451 37.487,315.432 37.500 C 315.414 37.513,315.296 37.711,315.170 37.939 C 315.044 38.168,314.884 38.448,314.814 38.562 L 314.687 38.770 317.731 38.758 L 320.775 38.745 321.396 37.622 C 321.737 37.004,322.017 36.475,322.019 36.445 C 322.020 36.415,322.063 36.337,322.115 36.272 C 322.166 36.207,322.300 35.978,322.412 35.765 C 322.525 35.551,322.743 35.145,322.897 34.863 C 323.052 34.581,323.261 34.197,323.363 34.009 C 323.465 33.821,323.787 33.234,324.079 32.705 C 324.371 32.176,324.609 31.729,324.609 31.712 C 324.609 31.694,324.655 31.616,324.710 31.538 L 324.811 31.396 335.807 31.397 L 346.802 31.397 346.935 31.628 C 347.009 31.756,347.101 31.915,347.140 31.982 C 347.178 32.050,347.374 32.401,347.573 32.764 C 348.131 33.777,348.168 33.841,348.358 34.163 C 348.455 34.329,348.535 34.477,348.535 34.492 C 348.535 34.507,348.625 34.666,348.735 34.845 C 348.844 35.025,348.953 35.222,348.977 35.284 C 349.000 35.346,349.108 35.537,349.217 35.709 C 349.325 35.881,349.414 36.036,349.414 36.054 C 349.414 36.072,349.652 36.509,349.943 37.025 C 350.234 37.541,350.555 38.118,350.656 38.306 C 350.758 38.494,350.867 38.675,350.898 38.709 C 350.944 38.757,351.652 38.768,354.233 38.758 L 357.509 38.745 357.290 38.403 C 357.170 38.215,356.867 37.710,356.616 37.280 C 356.366 36.851,356.081 36.367,355.983 36.206 C 355.884 36.045,355.617 35.594,355.388 35.205 C 355.159 34.816,354.904 34.387,354.821 34.253 C 354.739 34.119,354.564 33.822,354.433 33.594 C 354.301 33.365,354.094 33.014,353.972 32.813 C 353.850 32.611,353.700 32.358,353.639 32.251 C 353.499 32.003,353.271 31.623,352.970 31.137 C 352.841 30.927,352.734 30.746,352.734 30.736 C 352.734 30.726,352.548 30.406,352.319 30.026 C 352.091 29.647,351.904 29.325,351.904 29.313 C 351.904 29.300,351.805 29.137,351.685 28.950 C 351.564 28.763,351.465 28.601,351.465 28.590 C 351.465 28.578,351.313 28.317,351.127 28.010 C 350.942 27.703,350.731 27.345,350.658 27.215 C 350.586 27.084,350.451 26.857,350.358 26.709 C 350.266 26.561,349.973 26.067,349.707 25.610 C 349.441 25.154,349.193 24.736,349.155 24.683 C 349.117 24.629,348.973 24.387,348.833 24.146 C 348.694 23.904,348.416 23.431,348.217 23.096 C 348.017 22.760,347.740 22.288,347.601 22.046 C 347.463 21.804,347.297 21.538,347.234 21.455 C 347.171 21.372,347.119 21.286,347.119 21.265 C 347.119 21.243,346.957 20.959,346.759 20.635 C 346.560 20.310,346.360 19.967,346.313 19.873 C 346.267 19.779,346.143 19.576,346.039 19.422 C 345.935 19.268,345.850 19.128,345.850 19.112 C 345.850 19.095,345.655 18.760,345.417 18.367 C 345.179 17.973,344.945 17.574,344.897 17.480 C 344.850 17.386,344.794 17.299,344.774 17.285 C 344.754 17.272,344.667 17.129,344.580 16.968 C 344.398 16.630,343.681 15.418,343.552 15.230 C 343.504 15.160,343.351 14.896,343.211 14.644 C 343.071 14.391,342.941 14.174,342.923 14.160 C 342.905 14.147,342.809 13.990,342.711 13.812 C 342.551 13.525,342.413 13.291,341.721 12.134 C 341.625 11.973,341.339 11.489,341.087 11.060 C 340.835 10.630,340.567 10.179,340.493 10.059 C 340.418 9.938,340.294 9.729,340.217 9.595 C 339.926 9.086,339.234 7.924,339.078 7.682 C 338.989 7.543,338.916 7.417,338.916 7.401 C 338.916 7.386,338.856 7.279,338.782 7.165 L 338.647 6.958 335.870 6.958 C 333.144 6.958,333.091 6.960,333.032 7.056 M361.054 7.178 C 361.170 7.299,361.776 7.958,362.402 8.643 C 363.028 9.327,363.895 10.261,364.329 10.718 C 364.763 11.174,366.004 12.515,367.087 13.696 C 368.170 14.878,369.280 16.075,369.554 16.357 C 369.827 16.639,370.948 17.848,372.045 19.043 C 373.142 20.238,374.374 21.567,374.783 21.997 C 375.191 22.427,375.968 23.262,376.508 23.852 L 377.490 24.926 377.490 31.848 L 377.490 38.770 380.493 38.770 L 383.496 38.770 383.496 31.831 L 383.496 24.893 384.265 24.055 C 384.688 23.595,385.233 23.009,385.476 22.754 C 386.147 22.051,386.423 21.752,388.135 19.873 C 389.004 18.920,389.947 17.898,390.232 17.603 C 390.517 17.307,391.571 16.165,392.575 15.063 C 393.580 13.962,394.735 12.710,395.142 12.280 C 395.549 11.851,396.363 10.972,396.951 10.327 C 399.125 7.942,399.493 7.541,399.744 7.281 C 399.885 7.135,399.993 7.008,399.985 7.000 C 399.976 6.991,398.380 6.983,396.437 6.982 L 392.906 6.980 391.906 8.141 C 391.355 8.779,390.712 9.511,390.476 9.768 C 390.088 10.190,389.716 10.614,388.215 12.357 C 387.950 12.664,387.620 13.036,387.480 13.184 C 387.192 13.490,386.481 14.299,385.594 15.332 C 385.260 15.721,384.699 16.359,384.349 16.748 C 383.999 17.137,383.275 17.961,382.741 18.579 C 381.703 19.779,380.907 20.654,380.854 20.654 C 380.837 20.654,380.268 20.049,379.591 19.309 C 378.914 18.569,378.256 17.861,378.127 17.734 C 377.999 17.608,377.086 16.615,376.098 15.527 C 375.110 14.440,373.979 13.209,373.585 12.793 C 373.191 12.377,372.069 11.157,371.090 10.083 C 370.112 9.009,369.064 7.872,368.761 7.556 L 368.210 6.981 364.527 6.970 L 360.843 6.958 361.054 7.178 M242.578 22.827 L 242.578 33.985 229.285 33.972 L 215.991 33.960 215.979 22.876 C 215.972 16.780,215.977 11.765,215.989 11.731 C 216.008 11.682,218.714 11.670,229.295 11.670 L 242.578 11.670 242.578 22.827 M335.959 12.006 C 336.052 12.190,336.195 12.441,336.277 12.562 C 336.359 12.683,336.426 12.803,336.426 12.827 C 336.426 12.851,336.525 13.031,336.646 13.227 C 336.766 13.423,336.865 13.595,336.865 13.608 C 336.865 13.622,337.052 13.962,337.280 14.364 C 337.509 14.766,337.695 15.104,337.695 15.115 C 337.695 15.126,337.785 15.282,337.895 15.461 C 338.004 15.640,338.114 15.839,338.138 15.902 C 338.162 15.966,338.255 16.133,338.344 16.273 C 338.433 16.413,338.579 16.671,338.669 16.846 C 338.759 17.020,338.873 17.215,338.923 17.280 C 338.973 17.344,339.014 17.413,339.014 17.434 C 339.014 17.471,339.752 18.807,340.064 19.336 C 340.151 19.484,340.292 19.736,340.377 19.897 C 340.462 20.059,340.571 20.256,340.619 20.337 C 340.668 20.417,340.830 20.703,340.979 20.972 C 341.128 21.240,341.428 21.775,341.645 22.160 C 341.863 22.544,342.041 22.868,342.041 22.879 C 342.041 22.890,342.131 23.045,342.240 23.224 C 342.350 23.404,342.460 23.602,342.484 23.666 C 342.508 23.729,342.607 23.905,342.703 24.056 C 342.800 24.207,342.897 24.377,342.919 24.433 C 342.941 24.490,343.234 25.019,343.570 25.610 C 343.906 26.200,344.170 26.700,344.158 26.721 C 344.128 26.769,327.454 26.769,327.427 26.721 C 327.416 26.701,327.527 26.465,327.674 26.196 C 327.822 25.928,328.030 25.543,328.138 25.342 C 328.246 25.140,328.375 24.917,328.425 24.846 C 328.475 24.775,328.516 24.705,328.516 24.690 C 328.516 24.676,328.688 24.361,328.899 23.990 C 329.110 23.619,329.342 23.206,329.414 23.071 C 329.486 22.937,329.664 22.618,329.808 22.363 C 329.953 22.108,330.172 21.713,330.294 21.484 C 330.416 21.256,330.573 20.970,330.643 20.850 C 330.713 20.729,330.947 20.311,331.163 19.922 C 331.380 19.532,331.639 19.071,331.739 18.896 C 331.994 18.454,332.190 18.099,332.400 17.700 C 332.499 17.512,332.652 17.238,332.740 17.090 C 332.827 16.942,333.125 16.415,333.401 15.918 C 333.678 15.421,334.008 14.828,334.136 14.600 C 334.264 14.371,334.460 14.011,334.571 13.798 C 334.683 13.586,334.824 13.333,334.885 13.237 C 334.946 13.140,335.167 12.748,335.378 12.366 C 335.828 11.547,335.752 11.594,335.959 12.006 "></path></g></svg>