<svg width="36" height="36" viewBox="0 0 36 36" fill="none" xmlns="http://www.w3.org/2000/svg">
<path fill-rule="evenodd" clip-rule="evenodd" d="M10.4702 4.44598C6.58699 4.44598 3.439 7.59398 3.439 11.4772V20.0048H1.95282L4.83744 24.1875L7.72205 20.0048H6.2515V11.4772C6.2515 9.14728 8.14029 7.25848 10.4702 7.25848H25.0434C27.1488 7.25848 28.8555 8.96521 28.8555 11.0706H31.668C31.668 7.41191 28.7021 4.44598 25.0434 4.44598H10.4702ZM19.9817 25.0529H22.5057C22.8663 25.0529 23.0826 24.7644 23.0826 24.4759V12.7211C23.0826 12.3606 22.7942 12.1442 22.5057 12.1442H19.9817C19.6211 12.1442 19.4047 12.4327 19.4047 12.7211V24.4759C19.4047 24.7644 19.6932 25.0529 19.9817 25.0529ZM12.4817 25.0529H15.0057C15.3663 25.0529 15.5827 24.7644 15.5827 24.4759V16.9759C15.5827 16.6154 15.2942 16.399 15.0057 16.399H12.4817C12.1211 16.399 11.9048 16.6875 11.9048 16.9759V24.4038C11.9048 24.7644 12.1932 25.0529 12.4817 25.0529ZM27.3849 17.1112H28.8555V25.6388C28.8555 27.9687 26.9667 29.8575 24.6367 29.8575H10.0636C7.95822 29.8575 6.2515 28.1508 6.2515 26.0454H3.439C3.439 29.7041 6.40492 32.67 10.0636 32.67H24.6367C28.52 32.67 31.668 29.522 31.668 25.6388V17.1112H33.1542L30.2696 12.9285L27.3849 17.1112Z" fill="#9DA1A7"/>
</svg>
