<svg width="147" height="147" viewBox="0 0 147 147" fill="none" xmlns="http://www.w3.org/2000/svg">
<path d="M12.3008 54.3066C12.3008 41.0518 23.0459 30.3066 36.3008 30.3066H91.687C104.942 30.3066 115.687 41.0518 115.687 54.3066V109.693C115.687 122.948 104.942 133.693 91.687 133.693H36.3008C23.0459 133.693 12.3008 122.948 12.3008 109.693V54.3066Z" fill="white"/>
<path fill-rule="evenodd" clip-rule="evenodd" d="M33.969 26C19.7003 26 8.29991 37.7744 8.29991 51.8462L8 112.154C8 126.513 19.7003 138 33.6836 138H93.8974C108.166 138 120 126.226 120 112.154L119.889 50.2056C119.038 36.6221 107.629 26 94.1827 26H33.969ZM108.721 51.1634C108.362 43.4504 101.954 37.4872 94.4681 37.4872H33.6836C25.9785 37.2 19.4149 43.8051 19.4149 51.8462L19.3983 112.154H19.4149C19.4149 120.195 25.9785 126.513 33.6836 126.513H93.8974C101.888 126.513 108.585 119.908 108.585 112.154L108.721 51.1634Z" fill="#EDF2F7"/>
<path d="M95.6768 87.528C95.6768 86.1591 95.6768 85.4746 95.501 84.8905C95.1856 83.8432 94.4689 82.9632 93.5071 82.4424C92.9707 82.152 92.3004 82.0134 90.9598 81.7363L79.9684 79.4644C75.3631 78.5125 73.0604 78.0366 71.5341 79.2796C70.0078 80.5227 70.0078 82.874 70.0078 87.5767V90.0677C70.0078 93.6196 70.0078 95.3956 71.0741 96.5777C72.1404 97.7599 73.9069 97.9425 77.44 98.3076L83.0795 98.8904C86.5562 99.2498 88.2946 99.4294 89.6955 99.0641C92.2149 98.4071 94.2569 96.5652 95.1694 94.1268C95.6768 92.7708 95.6768 91.0232 95.6768 87.528Z" fill="#CBD5E0"/>
<path fill-rule="evenodd" clip-rule="evenodd" d="M87.9978 93.0438C90.0348 93.0438 91.6861 91.3924 91.6861 89.3554C91.6861 87.3183 90.0348 85.667 87.9978 85.667C85.9607 85.667 84.3094 87.3183 84.3094 89.3554C84.3094 91.3924 85.9607 93.0438 87.9978 93.0438ZM83.2638 95.9748C84.1969 95.9748 84.9533 95.2183 84.9533 94.2852C84.9533 93.3521 84.1969 92.5957 83.2638 92.5957C82.3307 92.5957 81.5742 93.3521 81.5742 94.2852C81.5742 95.2183 82.3307 95.9748 83.2638 95.9748Z" fill="white"/>
<path d="M32.3164 87.528C32.3164 86.1591 32.3164 85.4746 32.4923 84.8905C32.8076 83.8432 33.5243 82.9632 34.4861 82.4424C35.0225 82.152 35.6928 82.0134 37.0334 81.7363L48.0248 79.4644C52.6302 78.5125 54.9328 78.0366 56.4591 79.2796C57.9854 80.5227 57.9854 82.874 57.9854 87.5767V90.0677C57.9854 93.6196 57.9854 95.3956 56.9191 96.5777C55.8529 97.7599 54.0863 97.9425 50.5532 98.3076L44.9137 98.8904C41.437 99.2498 39.6987 99.4294 38.2977 99.0641C35.7784 98.4071 33.7363 96.5652 32.8238 94.1268C32.3164 92.7708 32.3164 91.0232 32.3164 87.528Z" fill="#CBD5E0"/>
<path fill-rule="evenodd" clip-rule="evenodd" d="M42.6735 93.0438C44.7106 93.0438 46.3619 91.3924 46.3619 89.3554C46.3619 87.3183 44.7106 85.667 42.6735 85.667C40.6365 85.667 38.9852 87.3183 38.9852 89.3554C38.9852 91.3924 40.6365 93.0438 42.6735 93.0438ZM37.9395 95.9748C38.8726 95.9748 39.6291 95.2183 39.6291 94.2852C39.6291 93.3521 38.8726 92.5957 37.9395 92.5957C37.0064 92.5957 36.25 93.3521 36.25 94.2852C36.25 95.2183 37.0064 95.9748 37.9395 95.9748Z" fill="white"/>
<path d="M131.68 48.2541V47.6373C131.68 45.4616 133.337 43.6574 135.474 43.5085L142.044 43.0504C144.398 42.8863 146.395 44.7822 146.395 47.1793V48.7122C146.395 51.1093 144.397 53.0051 142.044 52.841L135.474 52.383C133.338 52.2342 131.68 50.43 131.68 48.2541Z" fill="#E2E8F0"/>
<path d="M126.425 28.7547L126.114 28.2325C125.017 26.3909 125.579 24.0407 127.399 22.854L132.997 19.2038C135.002 17.8963 137.729 18.5087 138.938 20.5375L139.71 21.835C140.919 23.8638 140.102 26.4605 137.931 27.4903L131.872 30.3652C129.902 31.3 127.522 30.5962 126.425 28.7547Z" fill="#E2E8F0"/>
<path d="M112.154 14.2764L111.632 13.9655C109.791 12.8689 109.087 10.4888 110.022 8.5188L112.897 2.45916C113.926 0.288738 116.523 -0.528125 118.552 0.67998L119.849 1.45258C121.878 2.6609 122.491 5.38864 121.183 7.39384L117.533 12.9918C116.346 14.8116 113.996 15.373 112.154 14.2764Z" fill="#E2E8F0"/>
</svg>
