<svg width="25" height="22" viewBox="0 0 25 22" fill="currentColor" xmlns="http://www.w3.org/2000/svg">
<path fill-rule="evenodd" clip-rule="evenodd" d="M3.88492 5.11644V10.445V11.5668V12.1277H5.00671L3.88492 13.7543L2.76312 15.3809L1.64133 13.7543L0.519531 12.1277H1.69742V11.5668V10.445V5.11644C1.69742 2.36804 3.94101 0.0683594 6.74549 0.0683594H18.5804C21.3288 0.0683594 23.6285 2.31195 23.6285 5.11644H21.441C21.441 3.54592 20.1509 2.31195 18.6365 2.31195H6.6894C5.17498 2.25586 3.88492 3.54592 3.88492 5.11644ZM22.4506 6.63086L23.5724 8.25746L24.6942 9.88406H23.5724V10.445V10.9498V16.8953C23.5724 19.6437 21.3288 21.9434 18.5243 21.9434H6.6894C3.94101 21.9434 1.64133 19.6998 1.64133 16.8953H3.88492C3.88492 18.4658 5.17498 19.6998 6.6894 19.6998H18.5243C20.0949 19.6998 21.3288 18.4097 21.3288 16.8953V11.0059V10.5011V9.94016H20.207L21.3288 8.31355L22.4506 6.63086ZM10.6718 16.0539H8.70867C8.48431 16.0539 8.25995 15.8296 8.25995 15.5491V9.77187C8.25995 9.54751 8.42822 9.32315 8.70867 9.32315H10.6718C10.8962 9.32315 11.1205 9.49142 11.1205 9.77187V15.6052C11.1205 15.8296 10.9523 16.0539 10.6718 16.0539ZM14.542 16.0539H16.5051C16.7856 16.0539 16.9538 15.8296 16.9538 15.6052V6.46258C16.9538 6.18213 16.7295 6.01386 16.5051 6.01386H14.542C14.2615 6.01386 14.0932 6.23822 14.0932 6.46258V15.6052C14.0932 15.8296 14.3176 16.0539 14.542 16.0539Z" fill="url(#paint0_linear_4446_775)"/>
<defs>
<linearGradient id="paint0_linear_4446_775" x1="0.519531" y1="21.9434" x2="28.026" y2="16.2957" gradientUnits="userSpaceOnUse">
<stop stop-color="#FF4087"/>
<stop offset="1" stop-color="#FFC056"/>
</linearGradient>
</defs>
</svg>
