<?xml version="1.0" encoding="UTF-8"?>
<svg width="20" height="20" viewBox="0 0 128 128" version="1.1" xmlns="http://www.w3.org/2000/svg" xmlns:xlink="http://www.w3.org/1999/xlink" id="svg_resize">
    <title>icon-128x128</title>
    <g id="icon-128x128" stroke="none" stroke-width="1" fill="none" fill-rule="evenodd">
        <g id="symbol" transform="translate(22.000000, 22.000000)" fill-rule="nonzero">
            <path d="M82.8220823,28.4658217 C82.4960881,27.99127 81.9536962,27.7478385 81.4068312,27.7478385 L50.2662706,27.7478385 L65.7948928,2.92677468 C66.1946972,2.28937575 66.2170639,1.41693948 65.7317072,0.717423543 C65.4023577,0.24231232 64.8543742,0 64.3052724,0 L37.4893084,0 C34.7969199,0 32.2812283,1.44380089 30.7731553,3.854053 L0.297444109,52.5694618 C-0.10124185,53.2074206 -0.118016855,54.0798566 0.362307462,54.7793728 C0.687742563,55.2533646 1.2301344,55.4962366 1.77755874,55.4962366 L32.9024626,55.4962366 L17.3721628,80.3234561 C17.0925794,80.7711464 17.0070268,81.3346764 17.1345169,81.8719045 C17.3307844,82.7040488 18.0677663,83.2502308 18.8623424,83.2502308 L45.66265,83.2502308 C48.3751682,83.2502308 50.9098716,81.7952377 52.4285686,79.367078 L67.3577643,55.4962366 L67.3583235,55.4962366 L82.8858274,30.6751729 C83.2850726,30.0377739 83.3018474,29.1642184 82.8220823,28.4658217" id="Fill-1" fill="#4E48E0"></path>
            <path d="M67.3613198,55.4906965 L52.4287691,79.3665743 C50.9100721,81.7952937 48.3748096,83.2497271 45.6628502,83.2497271 L18.8625428,83.2497271 C18.0679667,83.2497271 17.3309848,82.7041048 17.1347173,81.8719605 C17.0072272,81.3347324 17.0927798,80.7712024 17.3723632,80.3235121 L32.9054589,55.4906965 L67.3613198,55.4906965 Z" id="Fill-3" fill="#4E48E0"></path>
            <path d="M50.2461173,27.7477825 L81.4068077,27.7477825 C81.9536729,27.7477825 82.4960648,27.9912141 82.822059,28.465206 C83.3023834,29.1641624 83.2844902,30.0371582 82.8863633,30.6751169 L67.3588594,55.4961806 L32.8895784,55.4961806 L50.2461173,27.7477825 Z" id="Fill-5" fill="#1C81C1"></path>
            <path d="M1.77742364,55.4961246 C1.23055847,55.4961246 0.688166632,55.2532529 0.36273153,54.7792608 C-0.118151954,54.0797449 -0.101376948,53.2073086 0.297868178,52.5699096 L30.7735795,3.85394108 C32.281093,1.44368897 34.7973438,-0.00011192255 37.4891731,-0.00011192255 L64.3051374,-0.00011192255 C64.8542392,-0.00011192255 65.4027819,0.24276001 65.7321311,0.717311622 C66.2169287,1.41682755 66.194562,2.28926383 65.795317,2.92722237 L32.9056826,55.4961246 L1.77742364,55.4961246 Z" id="Fill-7" fill="#5CC4CD"></path>
        </g>
    </g>
</svg>
