<?xml version="1.0" encoding="utf-8"?>
<!-- Generator: Adobe Illustrator 21.0.2, SVG Export Plug-In . SVG Version: 6.00 Build 0)  -->
<svg version="1.1" id="Layer_1" xmlns="http://www.w3.org/2000/svg" xmlns:xlink="http://www.w3.org/1999/xlink" x="0px" y="0px"
   viewBox="0 0 352 288" style="enable-background:new 0 0 352 288;" xml:space="preserve">
<style type="text/css">
  .st0{fill:#256DB3;}
  .st1{fill:#514A4B;}
  .st2{fill:#276EB2;}
</style>
<g>
  <path class="st0" d="M266.3,162.7c-4.1-0.2-7.9,0.5-11.5,1.8l0,0c-7.2,2.9-24.5,6.4-40.3,5.7c-15.2-0.7-31.2-4.9-38.8-8.6
    c-0.3-0.1-0.6-0.3-0.9-0.4c0,0-0.1,0-0.1-0.1l0,0c-3.5-1.6-7.3-2.6-11.4-2.7c-16.7-0.7-30.8,12.3-31.5,29
    c-0.7,16.7,12.3,30.8,29,31.5c4.1,0.2,8-0.5,11.5-1.8l0,0c0.1,0,0.1,0,0.2-0.1c0.2-0.1,0.5-0.2,0.7-0.3c7.7-3.1,24.2-6,39.5-5.4
    c15.9,0.7,32.7,5.6,39.7,9.1l0,0c3.5,1.6,7.3,2.6,11.3,2.7c16.7,0.7,30.8-12.3,31.5-29C296,177.6,283,163.4,266.3,162.7z"/>
</g>
<g>
  <path class="st0" d="M114.7,203.8c2.2-3.4,3.6-7.1,4.2-10.9l0,0c1.1-7.7,6.7-24.4,15.2-37.8c8.2-12.8,19.8-24.6,26.8-29.3
    c0.3-0.2,0.5-0.3,0.8-0.5c0,0,0.1-0.1,0.1-0.1l0,0c3.1-2.2,5.9-5,8-8.5c9-14.1,4.8-32.8-9.3-41.8c-14.1-9-32.8-4.8-41.8,9.3
    c-2.2,3.4-3.6,7.1-4.2,10.9l0,0c0,0.1,0,0.1,0,0.2c0,0.2-0.1,0.5-0.1,0.7c-1.2,8.2-6.9,24-15.1,36.9c-8.5,13.4-21.2,25.5-27.7,29.8
    l0,0c-3.1,2.2-5.9,5-8,8.5c-9,14.1-4.8,32.8,9.3,41.8C87,222.1,105.7,217.9,114.7,203.8z"/>
</g>
<g>
  <path class="st1" d="M156.4,56.3c2,3.5,4.7,6.5,7.7,8.8l0,0c6.3,4.6,18.5,17.2,26.4,31c7.6,13.2,12.6,29,13.5,37.3
    c0,0.3,0,0.6,0.1,1c0,0,0,0.1,0,0.1l0,0c0.5,3.8,1.7,7.5,3.8,11.1c8.3,14.5,26.9,19.5,41.4,11.1c14.5-8.3,19.5-26.9,11.1-41.4
    c-2-3.5-4.7-6.5-7.7-8.8l0,0c0,0-0.1-0.1-0.2-0.1c-0.2-0.2-0.4-0.3-0.6-0.4c-6.7-4.9-18-17.2-25.7-30.5
    c-7.9-13.8-12.8-30.7-13.6-38.4l0,0c-0.5-3.8-1.7-7.5-3.8-11.1C200.5,11.6,182,6.6,167.5,15C153,23.3,148.1,41.8,156.4,56.3z"/>
</g>
<g>
  <polygon class="st2" points="238.8,278.5 238.8,278.8 244.3,278.8 244.4,233.2 244.4,232.9 238.8,232.9   "/>
  <polygon class="st2" points="323.2,249.7 341.4,233 333.2,233 304.1,259.6 304.1,233 298.5,233 298.5,278.7 304.1,278.7 
    304.1,267.1 319,253.5 337.2,278.6 337.3,278.7 344.1,278.7   "/>
  <polygon class="st2" points="288.5,267.3 248.9,232.6 248.9,278.9 254.4,278.9 254.4,244.5 294.1,279.1 294.1,233 288.5,233   "/>
  <path class="st2" d="M210.9,271.4V233h-5.5v38.4c0,4.1,3.3,7.4,7.4,7.4H234v-5.5h-21.3C211.7,273.3,210.9,272.4,210.9,271.4z"/>
  <g>
    <polygon class="st1" points="75.1,233.7 58.3,266.8 41.5,233.9 41.4,233.7 35.2,233.7 58.3,279 81.4,233.7     "/>
    <polygon class="st1" points="153.8,267.2 114.2,232.6 114.2,278.8 119.7,278.8 119.7,244.4 159.4,279.1 159.4,233 153.8,232.9     
      "/>
    <polygon class="st1" points="163.5,233 163.5,238.6 179.5,238.6 179.5,278.8 185.1,278.8 185.1,238.6 201.1,238.6 201.1,233     "/>
    <g>
      <path class="st1" d="M87.4,233.4l-23.1,45.3h6.2l5.8-11.4h22.1l5.8,11.4h6.2L87.4,233.4z M79.1,261.9l8.3-16.2l8.3,16.2H79.1z"/>
      <path class="st1" d="M6.9,278.7h6.2l5.8-11.4H41l5.8,11.4h6.2L30,233.4L6.9,278.7z M21.7,261.9l8.3-16.2l8.3,16.2H21.7z"/>
    </g>
  </g>
</g>
</svg>
