<?xml version="1.0" encoding="UTF-8"?><svg id="a" xmlns="http://www.w3.org/2000/svg" viewBox="0 0 999.3 288.52"><path d="m234.02,237.56c-10.96,0-23.8-2.97-33.94-10.39-9.7-7.1-15.52-17.39-16.83-29.74-3.71-34.93,26.79-49.43,43.43-52.22h0c14.25-2.38,30.77,1.42,42.11,9.7,9.48,6.93,15.39,16.82,17.07,28.59,4.27,29.82-18.48,48.43-41.43,53.09-3.12.64-6.65.98-10.41.98Zm-6.63-88.18c-15.28,2.56-43.29,15.81-39.92,47.6,1.2,11.3,6.29,20.3,15.12,26.77,12.56,9.2,29.64,10.99,41,8.68,16.24-3.3,42.54-17.2,38.08-48.34-1.54-10.76-6.71-19.43-15.37-25.77-10.45-7.64-25.72-11.15-38.91-8.94h0Z"/><path d="m197.17,198.98c1.3,18.93,20.82,30.28,45.79,25.41,27.87-5.43,32.54-24.68,30.63-36.9-1.91-12.22-16.36-26.55-41.96-22.64-24.34,3.72-35.58,17.86-34.47,34.13Z"/><path d="m220.82,191.91c2.11,2.86,4.2,14.93-1.87,13.85-1.06-.26-1.76-1.06-2.11-2.01-1.17-3.38-1.83-7.05-1.48-10.64.31-2.72,4.07-3.5,5.45-1.19h0Z" fill="#fff"/><path d="m253.67,186.04c2.09,3.57,2.53,7.73,1.68,11.74-.61,2.66-4.47,2.95-5.49.45-1.32-3.46-1.97-7.28-1.63-11,.3-2.72,4.07-3.5,5.45-1.19h0Z" fill="#fff"/><path d="m231.13,195.71c2.2,1.62,5.31,1.87,7.46.1.74-.55,1.35-1.31,1.76-2.11.55-1.06,2.2-.48,1.98.68-.74,4.18-5.65,6.53-9.48,5.02-1.21-.45-4.57-2.14-3.07-3.7.41-.32.97-.29,1.35.02h0Z" fill="#ef3e2f"/><path d="m203.16,136.16c.04,2.57,16.79,6.76,19.8,6.41l-1.59-14.72s-18.24,5.36-18.21,8.31Z" fill="#ef3e2f"/><path d="m190.56,197.3c.95,5.57.21,10.34-3.29,10.94-3.5.6-8.45-3.21-9.39-8.78-.95-5.57,2.45-10.8,5.95-11.39,3.5-.6,5.77,3.66,6.73,9.23Z"/><path d="m228.2,154.35c-1.3-.13-2.38-1.15-2.53-2.51l-2.64-24.46c-.17-1.55.95-2.94,2.51-3.11s2.94.95,3.11,2.51l2.64,24.46c.17,1.55-.95,2.94-2.51,3.11-.2.02-.39.02-.58,0Z"/><ellipse cx="238.92" cy="260.14" rx="30.17" ry="3.61" fill="#868d93"/><path d="m276.58,181.9c-1.3-6.69-.54-12.46,3.66-13.28,4.2-.82,10.26,3.63,11.56,10.32s-2.66,13.08-6.86,13.9c-4.2.82-7.06-4.25-8.36-10.94Z"/><path d="m298.38,157.25c1.66-.33,3.35.62,3.9,2.27,1.43,4.32.44,10.72-2.52,16.31-2.6,4.91-6.25,8.24-10.28,9.38-1.81.52-3.69-.54-4.2-2.35-.51-1.81.54-3.69,2.35-4.2,2.19-.62,4.41-2.81,6.12-6.02,2.31-4.35,2.79-8.82,2.07-10.98-.59-1.79.38-3.71,2.16-4.3.14-.05.27-.08.41-.11Z"/><path d="m291.74,149.92c.2-.04.4-.06.61-.07,1.88-.03,3.43,1.46,3.47,3.34.03,1.94,1.64,3.5,3.59,3.46,1.94-.02,3.5-1.65,3.46-3.59-.03-1.88,1.47-3.43,3.34-3.47,1.88-.03,3.43,1.46,3.47,3.34.1,5.69-4.45,10.4-10.15,10.52-5.7.1-10.42-4.45-10.52-10.15-.03-1.67,1.15-3.08,2.73-3.4Z"/><path d="m346.16,176.61h-3.22v-16.92h-5.79v-2.76h14.8v2.76h-5.79v16.92Z"/><path d="m365.91,169.14c0,2.43-.62,4.33-1.87,5.7-1.25,1.36-2.98,2.05-5.21,2.05-1.39,0-2.62-.31-3.69-.94-1.07-.63-1.89-1.53-2.46-2.71-.58-1.18-.86-2.54-.86-4.09,0-2.42.62-4.3,1.86-5.66s2.98-2.03,5.24-2.03,3.86.69,5.12,2.08c1.26,1.39,1.88,3.26,1.88,5.61Zm-10.84,0c0,3.44,1.27,5.16,3.81,5.16s3.77-1.72,3.77-5.16-1.27-5.1-3.8-5.1c-1.33,0-2.29.44-2.89,1.32-.6.88-.9,2.14-.9,3.78Z"/><path d="m389.29,161.72v1.74l-2.54.47c.23.31.43.7.58,1.16.15.46.23.94.23,1.45,0,1.54-.53,2.74-1.59,3.62-1.06.88-2.52,1.32-4.38,1.32-.48,0-.91-.04-1.29-.11-.68.42-1.02.92-1.02,1.48,0,.34.16.6.48.77.32.17.9.26,1.76.26h2.6c1.64,0,2.89.35,3.74,1.05.85.7,1.28,1.71,1.28,3.03,0,1.69-.7,2.99-2.09,3.9-1.39.92-3.4,1.37-6.03,1.37-2.03,0-3.58-.36-4.65-1.08-1.07-.72-1.6-1.74-1.6-3.07,0-.92.29-1.69.87-2.31.58-.62,1.39-1.06,2.43-1.3-.42-.18-.77-.47-1.04-.87-.27-.4-.41-.82-.41-1.26,0-.56.16-1.03.47-1.41.31-.39.78-.77,1.4-1.14-.77-.33-1.4-.87-1.88-1.62-.48-.75-.72-1.63-.72-2.63,0-1.62.51-2.87,1.53-3.76s2.47-1.33,4.36-1.33c.42,0,.86.03,1.33.09.46.06.81.12,1.04.18h5.16Zm-11.7,17.21c0,.68.31,1.21.92,1.58.61.37,1.48.55,2.59.55,1.72,0,3.01-.25,3.85-.74.84-.49,1.27-1.15,1.27-1.97,0-.65-.23-1.11-.69-1.38-.46-.27-1.32-.41-2.58-.41h-2.4c-.91,0-1.63.21-2.16.64-.53.43-.8,1-.8,1.73Zm1.36-12.39c0,.93.24,1.65.72,2.15.48.5,1.17.75,2.07.75,1.83,0,2.75-.98,2.75-2.94,0-.97-.23-1.72-.68-2.24-.45-.53-1.14-.79-2.07-.79s-1.61.26-2.08.78c-.47.52-.71,1.28-.71,2.28Z"/><path d="m398.55,176.88c-2.32,0-4.13-.68-5.43-2.03-1.31-1.35-1.96-3.21-1.96-5.58s.61-4.34,1.82-5.74c1.21-1.39,2.88-2.09,5-2.09,1.97,0,3.52.6,4.66,1.79,1.14,1.19,1.71,2.84,1.71,4.93v1.71h-9.92c.04,1.45.44,2.56,1.17,3.33.74.78,1.77,1.16,3.11,1.16.88,0,1.7-.08,2.46-.25.76-.17,1.57-.44,2.44-.83v2.57c-.77.37-1.55.63-2.34.78-.79.15-1.69.23-2.71.23Zm-.58-13.03c-1.01,0-1.81.32-2.42.96-.61.64-.97,1.57-1.08,2.79h6.76c-.02-1.23-.31-2.16-.89-2.79-.57-.63-1.36-.95-2.37-.95Z"/><path d="m413.48,174.33c.77,0,1.54-.12,2.32-.36v2.38c-.35.15-.8.28-1.35.38-.55.1-1.12.16-1.72.16-3,0-4.5-1.58-4.5-4.74v-8.03h-2.03v-1.4l2.18-1.16,1.08-3.15h1.95v3.31h4.24v2.4h-4.24v7.97c0,.76.19,1.33.57,1.69.38.36.88.54,1.5.54Z"/><path d="m435.94,172.37c0,1.45-.53,2.57-1.59,3.35-1.06.78-2.58,1.17-4.55,1.17s-3.58-.3-4.78-.9v-2.73c1.75.81,3.38,1.21,4.89,1.21,1.95,0,2.92-.59,2.92-1.76,0-.38-.11-.69-.32-.94-.22-.25-.57-.51-1.06-.78-.49-.27-1.18-.57-2.06-.92-1.71-.66-2.88-1.33-3.48-1.99-.61-.66-.91-1.53-.91-2.58,0-1.27.51-2.26,1.54-2.97,1.03-.71,2.43-1.06,4.19-1.06s3.41.35,4.97,1.06l-1.02,2.38c-1.61-.66-2.96-1-4.05-1-1.67,0-2.5.48-2.5,1.43,0,.47.22.86.65,1.18.43.32,1.38.77,2.85,1.33,1.23.48,2.12.91,2.68,1.31.56.39.97.85,1.24,1.37.27.52.4,1.13.4,1.85Z"/><path d="m444.91,174.33c.77,0,1.54-.12,2.32-.36v2.38c-.35.15-.8.28-1.35.38-.55.1-1.12.16-1.72.16-3,0-4.5-1.58-4.5-4.74v-8.03h-2.03v-1.4l2.18-1.16,1.08-3.15h1.95v3.31h4.24v2.4h-4.24v7.97c0,.76.19,1.33.57,1.69.38.36.88.54,1.5.54Z"/><path d="m459.52,176.61l-.63-2.07h-.11c-.72.91-1.44,1.52-2.17,1.85-.73.33-1.66.49-2.8.49-1.46,0-2.61-.4-3.43-1.19-.82-.79-1.23-1.91-1.23-3.35,0-1.53.57-2.69,1.71-3.47,1.14-.78,2.88-1.21,5.21-1.28l2.57-.08v-.79c0-.95-.22-1.66-.67-2.13-.44-.47-1.13-.71-2.07-.71-.76,0-1.49.11-2.19.34s-1.37.49-2.02.79l-1.02-2.26c.81-.42,1.69-.74,2.65-.96.96-.22,1.87-.33,2.72-.33,1.89,0,3.32.41,4.29,1.24.96.83,1.45,2.12,1.45,3.89v10.03h-2.26Zm-4.71-2.15c1.15,0,2.07-.32,2.77-.96s1.04-1.54,1.04-2.7v-1.29l-1.91.08c-1.49.05-2.57.3-3.25.75s-1.02,1.12-1.02,2.04c0,.66.2,1.18.59,1.54.39.36.99.54,1.78.54Z"/><path d="m473.75,161.45c.64,0,1.16.04,1.58.13l-.31,2.95c-.45-.11-.92-.16-1.4-.16-1.27,0-2.29.41-3.08,1.24-.79.83-1.18,1.9-1.18,3.22v7.78h-3.16v-14.89h2.48l.42,2.63h.16c.49-.89,1.14-1.59,1.93-2.11.79-.52,1.65-.78,2.56-.78Z"/><path d="m483.63,174.33c.77,0,1.54-.12,2.32-.36v2.38c-.35.15-.8.28-1.35.38-.55.1-1.12.16-1.72.16-3,0-4.5-1.58-4.5-4.74v-8.03h-2.03v-1.4l2.18-1.16,1.08-3.15h1.95v3.31h4.24v2.4h-4.24v7.97c0,.76.19,1.33.57,1.69.38.36.88.54,1.5.54Z"/><path d="m495.43,176.88c-2.32,0-4.13-.68-5.43-2.03-1.31-1.35-1.96-3.21-1.96-5.58s.61-4.34,1.82-5.74c1.21-1.39,2.88-2.09,5-2.09,1.97,0,3.52.6,4.66,1.79,1.14,1.19,1.71,2.84,1.71,4.93v1.71h-9.92c.04,1.45.44,2.56,1.17,3.33.74.78,1.77,1.16,3.11,1.16.88,0,1.7-.08,2.46-.25.76-.17,1.57-.44,2.44-.83v2.57c-.77.37-1.55.63-2.34.78-.79.15-1.69.23-2.71.23Zm-.58-13.03c-1.01,0-1.81.32-2.42.96-.61.64-.97,1.57-1.08,2.79h6.76c-.02-1.23-.31-2.16-.89-2.79-.57-.63-1.36-.95-2.37-.95Z"/><path d="m509.84,176.88c-1.86,0-3.31-.67-4.35-2.02-1.04-1.35-1.56-3.24-1.56-5.67s.53-4.34,1.58-5.7c1.05-1.36,2.52-2.04,4.38-2.04s3.45.72,4.47,2.17h.16c-.15-1.07-.23-1.91-.23-2.53v-5.43h3.18v20.95h-2.48l-.55-1.95h-.15c-1.01,1.48-2.5,2.22-4.46,2.22Zm.85-2.56c1.3,0,2.25-.37,2.84-1.1.59-.73.9-1.92.92-3.56v-.44c0-1.88-.3-3.21-.92-4s-1.57-1.19-2.87-1.19c-1.11,0-1.97.45-2.57,1.35-.6.9-.9,2.19-.9,3.86s.29,2.91.88,3.78c.58.87,1.46,1.3,2.63,1.3Z"/><path d="m525.28,173.72c-.43,1.67-1.22,3.82-2.37,6.45h-2.33c.62-2.42,1.08-4.68,1.39-6.76h3.11l.2.31Z"/><path d="m356.29,204.88c-3.29,0-5.88,1.17-7.76,3.5s-2.83,5.55-2.83,9.66.91,7.55,2.72,9.75c1.81,2.2,4.44,3.31,7.87,3.31,1.49,0,2.92-.15,4.31-.44s2.83-.67,4.34-1.14v4.91c-2.75,1.04-5.86,1.56-9.34,1.56-5.13,0-9.06-1.55-11.81-4.66-2.75-3.11-4.12-7.55-4.12-13.33,0-3.64.67-6.83,2-9.56s3.26-4.82,5.79-6.28c2.52-1.45,5.49-2.18,8.89-2.18,3.58,0,6.88.75,9.92,2.25l-2.06,4.77c-1.18-.56-2.43-1.05-3.75-1.47-1.32-.42-2.7-.63-4.16-.63Z"/><path d="m377.52,235.5h-5.63v-37.28h5.63v37.28Z"/><path d="m385.23,201.98c0-1.01.28-1.78.83-2.32.55-.54,1.34-.81,2.36-.81s1.76.27,2.31.81c.55.54.83,1.32.83,2.32s-.28,1.71-.83,2.26c-.55.55-1.32.83-2.31.83s-1.81-.28-2.36-.83-.83-1.31-.83-2.26Zm5.97,33.52h-5.63v-26.5h5.63v26.5Z"/><path d="m409.94,235.98c-4.01,0-7.06-1.17-9.14-3.51-2.08-2.34-3.13-5.7-3.13-10.07s1.09-7.88,3.27-10.28c2.18-2.4,5.33-3.59,9.45-3.59,2.79,0,5.31.52,7.55,1.56l-1.7,4.53c-2.38-.93-4.34-1.39-5.89-1.39-4.58,0-6.88,3.04-6.88,9.13,0,2.97.57,5.2,1.71,6.7,1.14,1.49,2.82,2.24,5.02,2.24,2.51,0,4.88-.62,7.12-1.87v4.91c-1.01.59-2.08,1.01-3.22,1.27-1.14.26-2.53.38-4.16.38Z"/><path d="m428.98,221.51l3.19-3.98,8-8.53h6.49l-10.66,11.38,11.33,15.12h-6.61l-8.51-11.62-3.09,2.54v9.08h-5.58v-37.28h5.58v18.19l-.29,5.1h.14Z"/><path d="m472.16,220.33h-9.54v-4.27h9.54v-9.78h4.31v9.78h9.56v4.27h-9.56v9.73h-4.31v-9.73Z" fill="#785afa"/><path d="m514.98,231.42c1.37,0,2.75-.22,4.12-.65v4.24c-.62.27-1.43.5-2.41.68-.98.18-2,.28-3.05.28-5.33,0-8-2.81-8-8.43v-14.28h-3.62v-2.49l3.88-2.06,1.92-5.61h3.47v5.89h7.55v4.26h-7.55v14.18c0,1.36.34,2.36,1.02,3.01.68.65,1.57.97,2.67.97Z"/><path d="m547.9,222.2c0,4.33-1.11,7.71-3.33,10.13-2.22,2.43-5.31,3.64-9.27,3.64-2.48,0-4.66-.56-6.56-1.68-1.9-1.12-3.36-2.72-4.38-4.82-1.02-2.09-1.53-4.52-1.53-7.28,0-4.3,1.1-7.65,3.31-10.06s5.31-3.62,9.32-3.62,6.87,1.23,9.1,3.7,3.35,5.79,3.35,9.98Zm-19.29,0c0,6.12,2.26,9.18,6.78,9.18s6.71-3.06,6.71-9.18-2.25-9.08-6.76-9.08c-2.36,0-4.08.78-5.14,2.35s-1.59,3.81-1.59,6.73Z"/><path d="m583.69,235.5l-1.13-3.69h-.19c-1.28,1.61-2.56,2.71-3.86,3.29s-2.96.88-4.98.88c-2.6,0-4.64-.7-6.1-2.11s-2.19-3.39-2.19-5.97c0-2.73,1.01-4.79,3.04-6.18s5.12-2.15,9.27-2.28l4.58-.14v-1.41c0-1.69-.4-2.96-1.19-3.8-.79-.84-2.02-1.26-3.68-1.26-1.36,0-2.66.2-3.91.6-1.25.4-2.44.87-3.59,1.41l-1.82-4.03c1.44-.75,3.01-1.32,4.72-1.71,1.71-.39,3.32-.59,4.84-.59,3.37,0,5.91.74,7.63,2.2,1.72,1.47,2.58,3.78,2.58,6.92v17.85h-4.03Zm-8.39-3.83c2.04,0,3.69-.57,4.92-1.71,1.24-1.14,1.86-2.74,1.86-4.8v-2.3l-3.4.14c-2.65.1-4.58.54-5.79,1.33-1.21.79-1.81,2-1.81,3.63,0,1.18.35,2.1,1.05,2.74.7.65,1.76.97,3.16.97Z"/><path d="m604.51,235.98c-3.31,0-5.89-1.2-7.74-3.59-1.85-2.4-2.78-5.76-2.78-10.09s.94-7.73,2.81-10.15,4.48-3.63,7.8-3.63,6.13,1.29,7.96,3.86h.29c-.27-1.9-.41-3.4-.41-4.5v-9.66h5.65v37.28h-4.41l-.98-3.47h-.26c-1.8,2.64-4.45,3.95-7.93,3.95Zm1.51-4.55c2.32,0,4-.65,5.06-1.95,1.05-1.3,1.6-3.42,1.63-6.34v-.79c0-3.34-.54-5.71-1.63-7.12-1.09-1.41-2.79-2.11-5.1-2.11-1.98,0-3.51.8-4.58,2.41-1.07,1.61-1.61,3.89-1.61,6.87s.52,5.18,1.56,6.72c1.04,1.54,2.59,2.31,4.67,2.31Z"/><path d="m635.08,235.98c-3.31,0-5.89-1.2-7.74-3.59-1.85-2.4-2.78-5.76-2.78-10.09s.94-7.73,2.81-10.15,4.48-3.63,7.8-3.63,6.13,1.29,7.96,3.86h.29c-.27-1.9-.41-3.4-.41-4.5v-9.66h5.65v37.28h-4.41l-.98-3.47h-.26c-1.8,2.64-4.45,3.95-7.93,3.95Zm1.51-4.55c2.32,0,4-.65,5.06-1.95,1.05-1.3,1.6-3.42,1.63-6.34v-.79c0-3.34-.54-5.71-1.63-7.12-1.09-1.41-2.79-2.11-5.1-2.11-1.98,0-3.51.8-4.58,2.41-1.07,1.61-1.61,3.89-1.61,6.87s.52,5.18,1.56,6.72c1.04,1.54,2.59,2.31,4.67,2.31Z"/><path d="m686.05,235.5l-1.13-3.69h-.19c-1.28,1.61-2.56,2.71-3.86,3.29s-2.96.88-4.98.88c-2.6,0-4.64-.7-6.1-2.11s-2.19-3.39-2.19-5.97c0-2.73,1.01-4.79,3.04-6.18s5.12-2.15,9.27-2.28l4.58-.14v-1.41c0-1.69-.4-2.96-1.19-3.8-.79-.84-2.02-1.26-3.68-1.26-1.36,0-2.66.2-3.91.6-1.25.4-2.44.87-3.59,1.41l-1.82-4.03c1.44-.75,3.01-1.32,4.72-1.71,1.71-.39,3.32-.59,4.84-.59,3.37,0,5.91.74,7.63,2.2,1.72,1.47,2.58,3.78,2.58,6.92v17.85h-4.03Zm-8.39-3.83c2.04,0,3.69-.57,4.92-1.71,1.24-1.14,1.86-2.74,1.86-4.8v-2.3l-3.4.14c-2.65.1-4.58.54-5.79,1.33-1.21.79-1.81,2-1.81,3.63,0,1.18.35,2.1,1.05,2.74.7.65,1.76.97,3.16.97Z"/><path d="m721.24,235.5h-5.65v-16.29c0-2.04-.41-3.57-1.23-4.58-.82-1.01-2.13-1.51-3.92-1.51-2.38,0-4.12.7-5.22,2.11-1.1,1.41-1.65,3.76-1.65,7.07v13.2h-5.63v-26.5h4.41l.79,3.47h.29c.8-1.26,1.93-2.24,3.4-2.92,1.47-.69,3.1-1.03,4.89-1.03,6.36,0,9.54,3.23,9.54,9.7v17.27Z"/><path d="m753.4,235.98c-4.12,0-7.34-1.2-9.67-3.61-2.32-2.4-3.49-5.71-3.49-9.93s1.08-7.73,3.23-10.21,5.12-3.71,8.89-3.71c3.5,0,6.26,1.06,8.29,3.19,2.03,2.12,3.04,5.05,3.04,8.77v3.04h-17.66c.08,2.57.77,4.55,2.08,5.93s3.16,2.07,5.54,2.07c1.57,0,3.02-.15,4.37-.44,1.35-.29,2.8-.79,4.35-1.47v4.58c-1.37.65-2.76,1.12-4.17,1.39-1.41.27-3.01.41-4.82.41Zm-1.03-23.19c-1.79,0-3.22.57-4.3,1.7-1.08,1.13-1.72,2.79-1.93,4.96h12.03c-.03-2.19-.56-3.85-1.58-4.97s-2.43-1.69-4.22-1.69Z"/><path d="m775.15,235.5l-10.06-26.5h5.94l5.39,15.41c.93,2.59,1.49,4.68,1.68,6.28h.19c.14-1.15.7-3.24,1.68-6.28l5.39-15.41h5.99l-10.11,26.5h-6.08Z"/><path d="m806.95,235.98c-4.12,0-7.34-1.2-9.67-3.61-2.32-2.4-3.49-5.71-3.49-9.93s1.08-7.73,3.23-10.21,5.12-3.71,8.89-3.71c3.5,0,6.26,1.06,8.29,3.19,2.03,2.12,3.04,5.05,3.04,8.77v3.04h-17.66c.08,2.57.77,4.55,2.08,5.93s3.16,2.07,5.54,2.07c1.57,0,3.02-.15,4.37-.44,1.35-.29,2.8-.79,4.35-1.47v4.58c-1.37.65-2.76,1.12-4.17,1.39-1.41.27-3.01.41-4.82.41Zm-1.03-23.19c-1.79,0-3.22.57-4.3,1.7-1.08,1.13-1.72,2.79-1.93,4.96h12.03c-.03-2.19-.56-3.85-1.58-4.97s-2.43-1.69-4.22-1.69Z"/><path d="m846.96,235.5h-5.65v-16.29c0-2.04-.41-3.57-1.23-4.58-.82-1.01-2.13-1.51-3.92-1.51-2.38,0-4.12.7-5.22,2.11-1.1,1.41-1.65,3.76-1.65,7.07v13.2h-5.63v-26.5h4.41l.79,3.47h.29c.8-1.26,1.93-2.24,3.4-2.92,1.47-.69,3.1-1.03,4.89-1.03,6.36,0,9.54,3.23,9.54,9.7v17.27Z"/><path d="m864.66,231.42c1.37,0,2.75-.22,4.12-.65v4.24c-.62.27-1.43.5-2.41.68-.98.18-2,.28-3.05.28-5.33,0-8-2.81-8-8.43v-14.28h-3.62v-2.49l3.88-2.06,1.92-5.61h3.47v5.89h7.55v4.26h-7.55v14.18c0,1.36.34,2.36,1.02,3.01.68.65,1.57.97,2.67.97Z"/><path d="m736.35,11.98l-17.91,38.05,17.65-4.23,16.39,8.25-13.62-41.81c-.25-1.28-2.01-1.46-2.51-.26Z" fill="#785afa"/><path d="m247.48,123.25c1.39,7.58,6.33,11.65,15.12,12.45,7.57.69,16.75.96,24.73.73l9.6,9.44c.39.38.92.59,1.45.59.21,0,.42-.03.63-.1.73-.24,1.28-.85,1.41-1.61l1.76-9.85c5.25-1.61,8.31-5.34,9.33-11.35,1.33-7.83,2.14-16.15,2.17-22.26.04-6.83-5.27-12.24-12.92-13.16-7.47-.9-22.29-2.5-37.68-3.15-10.09-.46-16.3,4.76-16.91,14.25-.39,6.25.25,18.36,1.29,24.02Zm37.09,4.03c-.24,1.25-.93,2.09-2.05,2.52-.85.32-1.73.35-2.64.07-.99-.31-1.65-.91-1.98-1.79-.38-1.02-.44-2.07-.17-3.17.32-1.33,1.08-2.23,2.29-2.69,1.02-.38,1.95-.3,2.81.25.69.46,1.19,1.11,1.51,1.97.35.91.42,1.86.23,2.84Zm2.63-17.69c-.08.11-.98,1.45-2.72,4-1.12,1.62-1.9,3.02-2.36,4.2-.42,1.07-1.06,1.76-1.93,2.09s-1.72.29-2.6-.08c-.88-.38-1.47-.97-1.77-1.78-.45-1.2,0-2.9,1.38-5.11,1.31-1.93,2.61-3.87,3.91-5.81,1.38-2.19,1.84-3.88,1.39-5.07-.53-1.39-1.72-2.43-3.6-3.11-1.87-.69-3.58-.74-5.1-.16-.81.31-1.74,1.18-2.8,2.64-1.06,1.45-1.88,2.29-2.46,2.51-.88.33-1.75.29-2.6-.13-.85-.42-1.43-1.03-1.73-1.82-.57-1.5.23-3.36,2.38-5.59,1.81-1.9,3.45-3.13,4.92-3.68,3.25-1.23,6.64-1.14,10.17.26,3.53,1.4,5.88,3.65,7.05,6.75s.65,6.37-1.52,9.91Z"/><path d="m543.14,171.38s72.51-.19,96.74-34.41c22.15-31.27-23.54-38.65-21.62-12.63s115.29,38,117.85-84.01" fill="none" stroke="#785afa" stroke-dasharray="0 0 3 8" stroke-linecap="round" stroke-miterlimit="10" stroke-width="4"/></svg>