<?xml version="1.0" encoding="UTF-8"?><svg id="a" xmlns="http://www.w3.org/2000/svg" viewBox="0 0 999.3 511.36"><path d="m561.49,493.1l17.87-64.01-20.77,7.81-21.13-7.52,20.95,63.78c.5,1.51,2.66,1.47,3.08-.07Z" fill="#785afa"/><path d="m562.48,459.77c2.05-19.93,1.21-39.87-1.4-59.44-2.62-19.59-7.12-38.84-13.13-57.6-6.03-18.75-13.55-37.05-23.06-54.48-4.77-8.7-10.05-17.19-16.11-25.26-6.04-8.07-12.93-15.73-21.4-22.25l-8.66,11.54c3.41,2.64,6.69,5.62,9.78,8.9.79.79,1.51,1.68,2.27,2.52.74.86,1.53,1.66,2.23,2.57,1.43,1.79,2.91,3.52,4.26,5.4,5.53,7.36,10.48,15.29,14.98,23.5,8.98,16.45,16.2,34,21.98,51.96,5.76,17.98,10.08,36.45,12.57,55.11,2.49,18.64,3.26,37.52,1.35,56.01l14.35,1.51Z" fill="none"/><path d="m485.17,249.33c.08.21.24.34.45.42-.16-.13-.22-.36-.45-.42Z" fill="#785afa" fill-rule="evenodd"/><path d="m485.81,249.47c.18.11.22.36.45.42-.13-.16-.19-.39-.45-.42Z" fill="#785afa" fill-rule="evenodd"/><path d="m486.65,250.94c.11.2.18.14.44.34-.03-.13-.12-.2-.18-.3-.13-.06-.12.02-.26-.04Z" fill="#785afa" fill-rule="evenodd"/><path d="m489.13,256.99l.09.27c.18.03.21.17.37.22-.06-.23-.22-.4-.46-.49Z" fill="#785afa" fill-rule="evenodd"/><path d="m486.67,250.27c-.14-.01.13.37.28.39.08-.08-.09-.14-.14-.34-.05.02-.1.03-.15-.06Z" fill="#785afa" fill-rule="evenodd"/><path d="m489.73,257.71c.18.19.1.26.13.4.15.02.19-.09.14-.28l-.28-.12Z" fill="#785afa" fill-rule="evenodd"/><path d="m489.08,253.63c-.14.01.18.37.4.38-.03-.21-.35-.18-.4-.38Z" fill="#785afa" fill-rule="evenodd"/><path d="m491.27,259.72c.06.08.22.2.11.17.03.14.25.15.36.24-.02.15.09.35.22.58.19-.15.47.21.76.44-.12-.16-.29-.29-.32-.51-.13.1-.15-.03-.41-.2.02-.04.04-.08,0-.17-.17-.09-.29-.23-.35-.41-.17-.09-.33-.17-.39-.13Z" fill="#785afa" fill-rule="evenodd"/><path d="m489.64,254.32l.1.28s.15-.02.21.09c.14.02-.12-.36-.31-.37Z" fill="#785afa" fill-rule="evenodd"/><path d="m490.85,254.4c.12.17.28.3.5.4-.13-.17-.37-.49-.5-.4Z" fill="#785afa" fill-rule="evenodd"/><path d="m494.37,264.4c.04.21.28.46.38.39-.12-.14-.21-.29-.38-.39Z" fill="#785afa" fill-rule="evenodd"/><path d="m492.23,255.95c.14.18.18.44.47.5-.13-.19-.25-.38-.47-.5Z" fill="#785afa" fill-rule="evenodd"/><path d="m495.39,262.5c.15.26.24.14.52.39-.05-.08-.1-.15-.12-.25-.23.04-.32-.32-.39-.14Z" fill="#785afa" fill-rule="evenodd"/><path d="m494.16,257.42c.13,0-.18-.37-.17-.56-.25-.07.09.37.17.56Z" fill="#785afa" fill-rule="evenodd"/><path d="m495.56,259.4c.16.17.27.37.5.49-.14-.24-.33-.45-.44-.7-.2-.15.15.35-.06.21Z" fill="#785afa" fill-rule="evenodd"/><path d="m497.65,267.33c-.21.03.22.33.28.46.18-.02-.21-.34-.28-.46Z" fill="#785afa" fill-rule="evenodd"/><path d="m498.47,267.37c0-.19-.25-.21-.22-.42-.14-.05-.21-.01-.2.13.24.07.3.38.42.3Z" fill="#785afa" fill-rule="evenodd"/><path d="m499.29,271.45c.08.24.18.47.41.62-.13-.21-.22-.44-.41-.62Z" fill="#785afa" fill-rule="evenodd"/><path d="m495.82,257.08c0,.17.15.23.18.39.23.14.18-.04.1-.25l-.28-.14Z" fill="#785afa" fill-rule="evenodd"/><path d="m496.43,258.96c.02.21.17.34.26.49.13.01-.05-.46-.26-.49Z" fill="#785afa" fill-rule="evenodd"/><path d="m496.7,258.26c0,.05.05.08.09.11.24.51.73.86.99,1.35.28.18.24-.03.43.05-.13-.29-.25-.13-.39-.32-.11-.25.07-.15-.1-.35-.14.09-.37-.25-.58-.36-.01-.19-.15-.29-.2-.46-.25-.21.01.2-.24,0Z" fill="#785afa" fill-rule="evenodd"/><path d="m500.18,270.14c-.05-.13.24.16.28.23.22.04-.17-.2-.12-.32-.22-.19-.18-.01-.3-.06.05.18.14.34.21.5.19.1.04-.21-.07-.35Z" fill="#785afa" fill-rule="evenodd"/><path d="m495.57,252.95c.11.22.17.47.45.56-.14-.19-.22-.43-.45-.56Z" fill="#785afa" fill-rule="evenodd"/><path d="m495.69,252.77c-.16-.02.17.34.32.39.02-.22-.24-.24-.32-.39Z" fill="#785afa" fill-rule="evenodd"/><path d="m496.19,253.65c.19.1.19,0,.32.03-.06-.11-.17-.17-.22-.28-.13-.02-.13.1-.09.25Z" fill="#785afa" fill-rule="evenodd"/><path d="m500.71,270.78c-.17.08.27.47.3.68.28.05-.15-.5-.3-.68Z" fill="#785afa" fill-rule="evenodd"/><path d="m495.89,250.51c.13.18.42.37.82.57-.27-.19-.47-.44-.82-.57Z" fill="#785afa" fill-rule="evenodd"/><path d="m502.04,272.97c.09-.05,0-.4-.2-.51-.08.04-.02.4.2.51Z" fill="#785afa" fill-rule="evenodd"/><path d="m498.35,257.45c.06.25.66.8.54.4-.27-.07-.35-.28-.54-.4Z" fill="#785afa" fill-rule="evenodd"/><path d="m499.88,262.34c-.1.13.29.64.6.77-.05-.14.02-.1.1-.06-.08-.34-.58-.4-.7-.71Z" fill="#785afa" fill-rule="evenodd"/><path d="m497.81,253.97c.07.31.26.52.52.7-.22-.2-.24-.54-.52-.7Z" fill="#785afa" fill-rule="evenodd"/><path d="m502.68,274.1c.05.09.1.18.02.14.36.29.43.74.79,1.04-.37-.52-.24-.95-.81-1.18Z" fill="#785afa" fill-rule="evenodd"/><path d="m500.26,259.92c0,.2.24.24.38.34-.05-.08-.1-.16-.12-.26-.05.02-.14-.01-.26-.09Z" fill="#785afa" fill-rule="evenodd"/><path d="m503.56,275.39c-.18-.08.08.19.04.28.09-.2.14.19.39.33.05-.21-.29-.21-.23-.41-.09-.05-.18-.11-.2-.2Z" fill="#785afa" fill-rule="evenodd"/><path d="m503.96,276.1c.2.39.05.58.36.81-.14-.4.24,0,.11-.37-.19.09-.25-.32-.47-.44Z" fill="#785afa" fill-rule="evenodd"/><path d="m501.46,259.39c.18.28.54.6.48.28-.25-.16-.29-.26-.48-.28Z" fill="#785afa" fill-rule="evenodd"/><path d="m505.23,278.03c.02.29.27.47.37.73.01.15-.14.04-.29-.08.18.44.43.28.73.85.04-.18-.02-.16-.05-.43-.26-.2.02.11-.03.24-.27-.42-.36-.93-.73-1.31Z" fill="#785afa" fill-rule="evenodd"/><path d="m504.99,270.23c.11.29.4.52.56.56-.15-.26-.35-.55-.56-.56Z" fill="#785afa" fill-rule="evenodd"/><path d="m504.18,265.46c.14.22.01.09.06.29.13.06.15-.03.22-.05-.04-.11-.18-.17-.28-.24Z" fill="#785afa" fill-rule="evenodd"/><path d="m507.58,270.95c.15.27.3.53.58.72-.21-.22-.41-.74-.58-.72Z" fill="#785afa" fill-rule="evenodd"/><path d="m508.09,265.56c.03.18.16.3.21.45.2.17-.12-.38.07-.2-.04-.11-.18-.17-.29-.25Z" fill="#785afa" fill-rule="evenodd"/><path d="m507.29,261.69c.11.27.33.47.61.65-.19-.21-.47-.67-.61-.65Z" fill="#785afa" fill-rule="evenodd"/><path d="m510.73,277.5l.04.29c.05,0,.1,0,.13.09.15.07-.02-.34-.16-.38Z" fill="#785afa" fill-rule="evenodd"/><path d="m509.67,266.65c.1.3.38.5.4.84.13.07.1-.11.14-.16.16.14.24.45.36.38-.05-.16-.27-.24-.25-.44-.25,0-.33-.43-.65-.63Z" fill="#785afa" fill-rule="evenodd"/><path d="m512.04,278.33c.06.1.06.23.16.31.19.15.19-.09.08-.27-.22-.24-.02.2-.23-.04Z" fill="#785afa" fill-rule="evenodd"/><path d="m512.09,270.06c-.12.09.37.9.56.84-.21-.27-.47-.51-.56-.84Z" fill="#785afa" fill-rule="evenodd"/><path d="m512.66,269.03c.05.24.21.43.45.58-.16-.19-.24-.42-.45-.58Z" fill="#785afa" fill-rule="evenodd"/><path d="m513.62,273.29c.1.21.16.45.37.61-.09-.22-.18-.44-.37-.61Z" fill="#785afa" fill-rule="evenodd"/><path d="m514.75,275.59c.04.16.19.27.23.44.08.04.03-.14.02-.25l-.26-.19Z" fill="#785afa" fill-rule="evenodd"/><path d="m515.39,276.47c0,.21.2.32.24.51.11.05-.04-.45-.24-.51Z" fill="#785afa" fill-rule="evenodd"/><path d="m516.8,287.11c.05.06.05.02.06-.02.07.07.06.18.08.27.11.13.23,0,.3.25.21.17-.15-.35.04-.17-.12-.19-.53-.72-.48-.33Z" fill="#785afa" fill-rule="evenodd"/><path d="m517.35,287.71c-.01.11.06.18.13.25.01.11.03.22-.04.17.03.12.16.19.25.27l-.03-.37c-.17-.08-.16-.23-.31-.32Z" fill="#785afa" fill-rule="evenodd"/><path d="m517.59,289.35c.05.18.17.33.32.47.01-.21-.15-.34-.32-.47Z" fill="#785afa" fill-rule="evenodd"/><path d="m517.05,280.01c.12.28.3.17.29.02-.18-.31-.18-.01-.29-.02Z" fill="#785afa" fill-rule="evenodd"/><path d="m517.09,279.36c.14.34.33.84.61.89-.23-.28-.24-.67-.61-.89Z" fill="#785afa" fill-rule="evenodd"/><path d="m517.32,280.43c.14.19.21.42.41.59-.09-.22-.24-.41-.3-.64-.07-.04-.03.11-.11.05Z" fill="#785afa" fill-rule="evenodd"/><path d="m517.46,281.69c.36.52.35.69.42.2-.23-.22-.29-.15-.42-.2Z" fill="#785afa" fill-rule="evenodd"/><path d="m518.63,291.18c.03.24.14.44.33.62-.09-.21-.12-.45-.33-.62Z" fill="#785afa" fill-rule="evenodd"/><path d="m519.94,294.32c.45.52.58,1.09.96,1.34-.24-.46-.48-.91-.79-1.33,0-.08.1.03.17.08-.11-.47-.34-.39-.34-.09Z" fill="#785afa" fill-rule="evenodd"/><path d="m519.83,285.28c.1.36.27.02.3.25.19-.06-.3-.39-.3-.25Z" fill="#785afa" fill-rule="evenodd"/><path d="m520.08,285.55c.06.2.17.39.38.53-.07-.2-.2-.38-.38-.53Z" fill="#785afa" fill-rule="evenodd"/><path d="m521.59,297.11v.29c.12.1.13.02.25.14-.1-.14-.1-.31-.25-.43Z" fill="#785afa" fill-rule="evenodd"/><path d="m521.62,290.03c.11.07.09-.12.29.11-.13-.31-.52-.57-.29-.11Z" fill="#785afa" fill-rule="evenodd"/><path d="m528.48,297.85c-.02.38.29.55.41.53-.09-.19-.26-.36-.41-.53Z" fill="#785afa" fill-rule="evenodd"/><path d="m531.4,304.41c.02.32.25.2.28.58-.05.17-.18-.23-.28-.28.05.29.23.48.4.54-.06-.17-.06-.25,0-.3.27.23.17.59.45.82-.06-.15-.16-.3-.11-.49-.3-.32-.39-.68-.4-.91-.11.03-.08.37-.34.04Z" fill="#785afa" fill-rule="evenodd"/><path d="m532.53,306.87v.3c.21.22.16.24.34.34,0-.27-.41-.55-.11-.41,0-.19-.19-.21-.23-.22Z" fill="#785afa" fill-rule="evenodd"/><path d="m532.81,307.89c.07-.03.25.17.4.32v-.22c-.07-.05-.1-.12-.11-.19-.11.03-.05.09-.23-.15,0,.14-.07.09-.06.24Z" fill="#785afa" fill-rule="evenodd"/><path d="m533.15,308.97c.2.18.21.43.4.62-.06-.3-.31-.54-.28-.87-.18-.08-.03.12-.11.26Z" fill="#785afa" fill-rule="evenodd"/><path d="m533.89,309.93c-.15-.17-.24-.22-.23,0,.05.08.09.17.17.24.04-.02.06-.11.06-.24Z" fill="#785afa" fill-rule="evenodd"/><path d="m533.88,310.15c0,.14-.07.09-.06.24.09.11.15.02.16.17.08.05.05-.14.06-.24l-.17-.17Z" fill="#785afa" fill-rule="evenodd"/><path d="m534.27,310.47c-.07-.02-.04.55.15.69-.04-.24-.03-.48-.15-.69Z" fill="#785afa" fill-rule="evenodd"/><path d="m535.53,314.38c.17.12.2.28.33.42.05-.19-.15-.3-.1-.49-.13-.11-.26-.22-.23.07Z" fill="#785afa" fill-rule="evenodd"/><path d="m536.44,316.39c0,.2.07.37.21.53v-.3s-.21-.23-.21-.23Z" fill="#785afa" fill-rule="evenodd"/><path d="m536.91,317.65c.07.28.16.54.24.81.15.2-.02-.45.13-.26-.03-.17-.1-.12-.16-.17-.08-.12-.03-.28-.21-.38Z" fill="#785afa" fill-rule="evenodd"/><path d="m537.55,318.43c0,.17.2.29.2.46.09-.06.04-.25-.03-.51-.1-.1-.05.21-.17.05Z" fill="#785afa" fill-rule="evenodd"/><path d="m537.69,320.07c.32.35.3.8.45,1.19.28.21.01-.55.1-.76-.19-.01-.16.09-.38-.34.02-.32.12-.31-.02-.65-.18,0-.16.16-.14.55Z" fill="#785afa" fill-rule="evenodd"/><path d="m538.09,320.04c.07.3.25.57.3.87.07-.05-.03-.67-.3-.87Z" fill="#785afa" fill-rule="evenodd"/><path d="m538.76,321.39c-.01.13.06.23.04.35.16.16.11-.21.29,0-.03-.14-.11-.26-.21-.38.01.31.08.29-.12.03Z" fill="#785afa" fill-rule="evenodd"/><path d="m539.52,323.31c-.03.13.03.24.04.36.05-.07.18.08.18-.12-.11,0-.07-.08-.22-.23Z" fill="#785afa" fill-rule="evenodd"/><path d="m546.55,346.73c0,.36.19.68.38,1-.03-.31-.04-.61-.11-.91-.11-.09-.18-.05-.28-.09Z" fill="#785afa" fill-rule="evenodd"/><path d="m548.93,353.24c-.08.18.1.32.1.48.11.09.06-.38-.1-.48Z" fill="#785afa" fill-rule="evenodd"/><path d="m550.59,360.26c-.12.02.03.61.2.82-.02-.28-.14-.55-.2-.82Z" fill="#785afa" fill-rule="evenodd"/><path d="m551.38,363.62c.16.31.3.92.44,1.01-.07-.33-.24-.93-.44-1.01Z" fill="#785afa" fill-rule="evenodd"/><path d="m553.18,370.35c-.01.26.11.51.14.76.1,0,.04-.57-.14-.76Z" fill="#785afa" fill-rule="evenodd"/><path d="m554.27,377.6c.07.02.18.18.25.19,0-.14-.06-.28-.14-.41-.02.14-.09.07-.11.22Z" fill="#785afa" fill-rule="evenodd"/><path d="m548.15,402.37c-.01.54.33,1.08.31,1.63.19-.28-.15-1.13-.31-1.63Z" fill="#785afa" fill-rule="evenodd"/><path d="m548.56,404.06c-.07.23-.01.45.14.68,0-.23-.05-.45-.14-.68Z" fill="#785afa" fill-rule="evenodd"/><path d="m557.14,390.6c.06.05.11.05.14-.08.07.47.07.59.22,1.12,0-.47-.06-.94-.2-1.4-.03.27-.11.19-.16.36Z" fill="#785afa" fill-rule="evenodd"/><path d="m557.05,392.86c.09-.01.22.3.28.06-.04-.28-.22-.28-.28-.06Z" fill="#785afa" fill-rule="evenodd"/><path d="m557.52,392.2c-.06-.07-.08.12-.12.22.09.18.16.25.22.27.03-.17-.17-.32-.1-.49Z" fill="#785afa" fill-rule="evenodd"/><path d="m560.21,408.96c-.03.27.12.38.19.5,0-.14-.03-.28-.1-.43-.02.07-.06-.03-.1-.07Z" fill="#785afa" fill-rule="evenodd"/><path d="m560.7,410.03c-.04.19.17.43.22.43-.02-.3-.11-.43-.22-.43Z" fill="#785afa" fill-rule="evenodd"/><path d="m560.63,411.3c-.02.61.1,1.23.18,1.85.13-.14.13.25.24.5-.07-.86-.28-1.42-.42-2.35Z" fill="#785afa" fill-rule="evenodd"/><path d="m560.89,413.43c-.06.26.09.52.14.78.04-.26.02-.52-.14-.78Z" fill="#785afa" fill-rule="evenodd"/><path d="m561.05,414.5c.02.28-.03.57.05.85.1-.05.12-.57-.05-.85Z" fill="#785afa" fill-rule="evenodd"/><path d="m560.89,415.27c.02.35-.04.49-.08.71.14.2.16.34.31.15-.21-.06-.11-.58-.23-.86Z" fill="#785afa" fill-rule="evenodd"/><path d="m562.58,415.76c-.14-.09-.04.42.03.57.07-.12.04-.24.07-.35-.05-.14-.13-.07-.1-.22Z" fill="#785afa" fill-rule="evenodd"/><path d="m561.68,419.06c-.02-.07-.04-.04-.06,0l-.05.14c.16.2.07.93.27,1.37.03-.09.06-.11.09-.07-.09-.34-.09-.67-.22-1.01.12-.35.12.17.25.15.09-.16-.21-.34-.12-.5-.04-.11-.19.31-.15-.08Z" fill="#785afa" fill-rule="evenodd"/><path d="m562.72,417.04c.02.45.07.91.23,1.36-.03-.45-.12-.91-.23-1.36Z" fill="#785afa" fill-rule="evenodd"/><path d="m561.88,420.92c.02.23-.18.22-.16.56.11-.12.19-.06.25.3.06-.28-.02-.57-.09-.86Z" fill="#785afa" fill-rule="evenodd"/><path d="m562.11,421.43c-.06.33.06.67.15,1.01.03-.49-.07-.58-.15-1.01Z" fill="#785afa" fill-rule="evenodd"/><path d="m562.24,424.64c.05.09.09-.18.15-.06,0-.48-.32-.97-.16-1.44-.33,0,.11,1.04.02,1.5Z" fill="#785afa" fill-rule="evenodd"/><path d="m562.33,423.01c-.07.49.14,1.01.26,1.51.09-.49-.15-1.01-.26-1.51Z" fill="#785afa" fill-rule="evenodd"/><path d="m562.85,424.18c-.16-.05.03.52.08.72.07-.23-.13-.48-.08-.72Z" fill="#785afa" fill-rule="evenodd"/><path d="m562.68,424.46c-.03.4-.11.8.13,1.22-.15-.41.03-.81-.13-1.22Z" fill="#785afa" fill-rule="evenodd"/><path d="m562.53,426.52c.13-.41.27.1.22.37-.11.19-.16-.18-.22-.37-.14.18.08.38-.04.57.28.14.59,1.11.71,1.56.21,0-.17-.98-.3-1.03.17-.04.02-.54.2-.34-.21-.55-.45-1.01-.77-1.77-.08.33.05.67.21,1.01Z" fill="#785afa" fill-rule="evenodd"/><path d="m562.9,428.47c-.05-.08-.1.11-.15.2.02.19.14.39.12.58.05.03.1-.08.15.08.02-.15.04-.27.06-.42-.08-.2-.26-.06-.18-.45Z" fill="#785afa" fill-rule="evenodd"/><path d="m562.66,429.31c.02.22.1.72.21.38-.07-.28-.14-.2-.21-.38Z" fill="#785afa" fill-rule="evenodd"/><path d="m563.02,429.77c-.14-.14-.01.32-.12.42.11.07.12,0,.18.3.09-.23-.07-.48-.06-.72Z" fill="#785afa" fill-rule="evenodd"/><path d="m483.13,247.07c-.03-.12.26.04.09-.2-.13-.03-.2-.13-.33-.16.42.37-.54.24.16.33.44.4.94.75,1.3,1.24.3.08.34.17.35.33.07,0-.01-.11.09-.08.24.12-.02.13.16.33.15-.06.24.04.68.11-.16-.2-.45-.27-.69-.39-.04-.25-.28-.31-.46-.42-.16-.49-.8-.82-.9-1.06-.33-.11.12.39.23.46-.31-.08-.36-.42-.68-.49Z" fill="#785afa" fill-rule="evenodd"/><path d="m486.86,251.76c.21.3.49.53.79.76-.14-.21.03-.13-.06-.31-.28.08-.43-.3-.73-.45Z" fill="#785afa" fill-rule="evenodd"/><path d="m488.07,252.96c.14.14.25.14.16-.05.09.04.11.15.15.23.24.13.24.03.41.1.29.29.56.6.93.82.11.56.66.76.94,1.18-.21.13-.59-.51-.8-.41.59.5.74.96,1.5,1.43.04.23.04.4.42.54.02.21-.16.24-.4.05.01.13.17.16.21.27-.01-.16.37.1.24-.18.2.44.71.66,1.01,1.03-.53-.38-.91-.59-1.01-.69-.03.29.76.67,1.1.96-.1.12.24.45.42.63.07.02,0-.11.1-.07.06.04.09.11.16.14-.02.05-.14,0-.08.14.37.44.84.8,1.23,1.22,0,.05-.05.03-.03.1-.45-.43-.66-.52-1.08-.91.2.44.61.74.86,1.15.19.06-.11-.18-.08-.28.14.04.2.14.3.21.13.29-.14.21.07.45.13.07.12-.01.25.07-.02-.07-.1-.1-.16-.14-.05-.16.17-.27-.08-.28-.13-.4.24-.08.39.14-.3-.21.17.36-.11.24.07.17.37.19.45.35.04.22-.35-.11-.48-.25-.17-.08-.02.22-.2.14.1.23.38.35.46.59-.12.07-.25-.15-.46-.18.02.29.37.35.41.62.17.03-.16-.26-.12-.41.13.16.28.3.37.48-.1-.3.07-.22.23-.24.06.04.09.1.16.14.15.27-.21-.06-.06.2.35.12,1.21,1.47.95,1.5.2.08.3.3.4.23.15.33-.08.19-.02.42-.18-.29-.5-.49-.65-.79.02.24.49.87.8,1.18.03.14-.16-.01-.07.2.25.18.52.36.65.79.15-.05.31.19.34-.05.02.23.34.33.45.68.06-.27.42.39.54.31.23.44-.33-.13-.19.19.23.1.36.26.44.45-.04.06-.14.04-.22.05-.48-.53-.81-1.11-1.26-1.45,0,.19.25.22.22.42.84.51.91,1.51,1.66,2.09.25.86,1.44,1.99,1.41,2.48.14.23.3.46.42.7.28,0,.42.46.65.72-.03.05-.13-.02-.09.13.15-.06.42.35.29.38.57.54.76,1.29,1.27,1.87-.05-.22.21.07.31.14,0,.14-.28-.17-.3-.07.22.6.74,1.04,1.1,1.57-.21.09.2.74.41.78-.02.16.12.24.12.4.47.14.79,1.55,1.45,2.09.02.66,1.08,1.36,1.03,1.92-.08-.19-.23-.34-.35-.51-.07.21.5.68.71,1.17.09.2.33.94.5.89.13.09.05.28.1.41.34.37.49.83.85,1.19.18.54.81,1.58,1.24,2.35,5.38,10.17,10.19,20.68,14.67,31.35,4.45,10.69,8.52,21.58,11.96,32.68-.01.21-.13.06-.22-.03-.27-1.71-1.19-3.3-1.52-5-.16-.09-.17-.18-.28-.43.04-.08.06.1.15.18-.01-.28-.31-.5-.24-.79-.14-.18-.14.08-.27-.08.05-.78-.37-1.88-.83-2.76-.2-.75-.36-1.51-.77-2.21,0-.09.02-.11.07-.09-.56-1.11-.89-2.79-1.37-3.47.02-.2.1-.05.03-.29-.06-.06-.06.08-.07.16-.3-1.53-1.12-2.57-1.43-4.15-.24-.08-.33-.87-.46-1.22-.22-.6-.56-.96-.51-1.28-.31-.48-.5-1-.55-1.55-.17-.27-.06.19-.22-.08-.09-.04-.06-.43.02-.29-.28-.3-.28-.68-.5-1-.01-.14.05-.09.12-.03-.33-.41-.39-.88-.65-1.31.2-.11,0-.04-.03-.42-.08.02-.2-.12-.26-.28.05-.02.07-.1.07-.23-.33-.23-.28-.95-.75-1.49,0-.13.05-.15.12-.11-.35-.73-.99-2.5-1.21-2.63-.19-.37-.16-.81-.52-1.13-.01-.4-.2-1.05-.4-1.16-.44-1.21-.93-2.34-1.42-3.49-.52-1.13-1.04-2.27-1.54-3.51-.09-.11-.1-.02-.17-.09,0-.22-.06-.28-.1-.61-.75-1.24-1.24-3.18-2.23-4.56,0-.14.07-.09.05-.24-.3-.57-.65-1.12-.86-1.72-.07.06-.24.29-.57-.23.03-.21.16-.09.05-.45.04-.13.35.25.29.4.24.17,0-.49-.12-.39-.16-.86-.82-1.54-1-2.39-.28-.09-.48-.64-.49-1.05-.1-.11-.11-.04-.11.04-.25-.73-.67-1.39-.92-2.12-.08-.04-.09.05-.17,0-.41-1.03-1.27-2.33-1.43-3.17-.06-.05-.04.05-.05.09-.53-1.1-1.21-2.15-1.62-3.3-.54-.71-1.08-2.05-1.63-3-.19-.2-.1.11-.29-.09-.06-.07-.12-.15-.14-.24.43.09-.28-.8-.39-1.16-.21-.04.13.28.09.4-.05.16-.24-.23-.31-.31.12-.56-.55-1.25-.74-1.9-.19-.2-.1.11-.29-.09-.07-.07-.05-.17-.13-.24,0-.08.15.06.24.11-.03-.21-.13-.39-.33-.52-.06.02,0,.25-.16.08.01.14.17.22.15.38-.22-.15-.19-.41-.45-.54.05-.27-.14-.43-.23-.64.1-.12.19.4.38.49-.04-.47.16.13.3.23-.14-.66-.32-.51-.51-1.11-.11-.07,0,.21-.09.19-.06-.05-.06-.12-.08-.19-.12-.05-.12.02-.04.17-.33-.22-.45-.54-.78-.75-.06-.21-.11-.31.02-.31-.16-.25-.53-.39-.6-.69-.03-.16.22.13.3.15-.04-.23-.28-.32-.31-.22-.19-.13-.1-.4-.29-.54.01-.09.19.08.09-.2-.37-.16-.96-1.02-.76-1.13-.17-.24-.23-.54-.54-.71.02-.43-.51-.77-.41-1.01-.51-.13-.53-1.14-1.09-1.49-.24-.51-.64-.94-.86-1.46-.03-.2.2.28.1-.06-.75-.62-.9-1.57-1.56-2.24.01.12.11.2.12.32,0,.07-.12-.04-.1.06-.21-.35-.32-.75-.55-1.08-.11-.02.01.12.04.21-.02.15-.16-.26-.34-.27.06-.06.04-.13-.05-.28-.5-.11-.53-.93-1.05-1.26-.07-.24,0-.28.2-.12-.01-.2-.21-.29-.26-.47-.08-.03-.02.14,0,.24-.21-.08-.29-.25-.42-.38,0-.11.08-.09.23.02-.37-.33-.56-.77-.85-1.14,0-.09.19.06.07-.2-.41-.07-1.12-1.3-1.52-1.59.03-.2-.33-.6.04-.34-.15-.25-.24-.22-.33-.19-.19-.21.02-.44-.33-.67,0,.16.17.21.2.35-.08-.05-.11-.05-.12,0-.41-.54-.68-1.17-1.29-1.57.15-.08.1-.11.08-.38-.2-.11-.11.15-.1.31-.42-.15-.32-.66-.72-.81-.18-.38.29,0,.23-.24-.25-.13-.25.04-.4.03-.26-.13-.08-.27-.21-.34,0-.08.15.03.25.07-.12-.2-.43-.43-.43-.27-.14-.48-.28-.36-.33-.75-.38-.27-.37-.33-.61-.72-.1,0,0,.24-.28.04l.1.34c.16.19.2,0,.26.31.12.08.11.01.1-.07.26.32,1.16,1.27.76,1.26.03.14.25.15.36.24.05.24-.15.16-.35,0,.06.13.52.64.45.34.23.19.29.5.62.63.02.14-.29-.14-.3-.04.04.25.66.67.33.67.05.17.22.14.18.04.16.19.3.39.38.63.08.02.08-.07.17-.03.14.1.17.26.31.36-.03.04-.1.04-.17.03.46.39.81.86,1.12,1.35.02.17-.14-.16-.27-.15.05.2.29.29.29.53-.22-.18-.39-.39-.44-.67-.33-.02-.53-.75-.92-1,.48.75,1.02,1.33,1.43,1.94.19.07-.1-.18-.06-.28.41.25.05.49.46.74-.07-.12-.13-.22-.2-.35.24.06.19.3.43.36.06.17-.06.08-.17.03.06.09.17.16.17.29.24-.02.81.99,1.08,1.47-.05.17-.12-.28-.29-.3.58.72,1.12,1.47,1.58,2.27,0,.08-.15-.04-.25-.09.04.31.34.38.4.31.26.31-.15.09.03.45.28.27-.03-.29.14-.16.32.46.8.83.93,1.4.29.07.35.33.6.59.08.23-.06.12,0,.31.35.3.56.67.79,1.03-.04.14-.26-.26-.34-.35.05.3.4.68.71.92.08.25-.15.02-.07.27-.19-.11-.28-.39-.39-.33.46.72.84,1.15,1.4,1.69.13.36-.29-.12-.2.18.41.59.81,1.2,1.03,1.9.36.22.35.5.42.69.12.09.06-.14.23.04.1.54,1.03,1.43.82,1.62.47.7.93,1.78,1.38,2.25.06.44.44.74.45,1.21.3.18.31.5.63.68.07.24-.07.12-.03.31.77,1.38,1.65,2.71,2.2,4.19.09,0,.23.13.1-.12.52,1.2,1.06,2.39,1.79,3.5.22.25.16.61.33.88.06.03.03-.11.11-.05.14.38.29.87.67,1.33v.43c.78,1.18,1.29,2.46,1.83,3.72.05.03.06-.02.11.03.95,2.19,2.05,4.35,3,6.55.34.26.86,1.83,1.27,2.79.23.52.51.88.54,1.32l.22.21c-.1.33.43.78.43,1.29.66.97,1.08,2.57,1.75,3.78v.29c.85,1.56,1.27,3.25,2.15,4.81.1.77.66,1.42.76,2.19.33.38.29.86.59,1.24.34,1.22.86,2.39,1.4,3.56.88,2.68,2.09,5.27,2.94,7.95l.2.23c.07.11-.01.13-.07.09.57,1.4.9,2.44,1.49,3.85l-.03.28c.11.26.25.05.28.49-.03.08-.06-.1-.15-.18.02.19.15.46.23.44,3.49,10.55,6.97,20.8,9.62,31.59l.13.19c.23,1.48.84,2.93.99,4.42.09.25.34.45.16.53.13.19.32.79.3,1.2l.17.26c.1.51.16,1.03.37,1.54.32,2.5,1.2,4.97,1.36,7.48l.16.26c-.08.43.09,1.16.26,1.35-.03.13-.09.07-.12.21.25.15.15.4.12.61.29.63.37,1.42.51,2.29-.03.12-.08.13-.14.08,0,.21.25.21.18.61.04.06.06-.03.08-.07.09.2,0,.41.18.61-.02.14-.07.08-.12,0,.12.23.28.67.34,1.08-.12.2-.12-.22-.24-.4.28.8.45,1.62.67,2.43l-.11.35c-.14-.05.1.19.1-.14.2.36.21.71.38,1.22-.12.1,0,.58-.15.28-.02.23.2.21.08.68.16.31.07-.18.09-.28.22.47.14.95.38,1.42-.03.07-.09-.07-.14-.13-.02.14.1.27-.01.41.15-.14.1.23.27.47-.06,1.2.73,2.47.49,3.54.29.2.32.94.42,1.36-.19,0-.11-.59-.25-.82-.05.11,0,.23-.06.34-.12-.39-.34-.77-.43-1.16.31.01-.11-1.02-.17-1.22-.07.8.18,2.08.52,2.79-.04.07-.11-.11-.17-.2.08.42.18,1.29.44,1.29.08.26-.1.18-.12.34.27.77.32,1.26.64,2.12.12,1.05.21,2.09.59,3.15,0,.61.22,1.6.45,1.99-.04,1.34.96,3.6.58,5.36.36-.44.26,1.02.59.92-.01.37.36.75.15,1.11.4,1.46.5,2.92.28,4.34.1.19.2.39.3.3.04.23,0,.46-.12.68.14.22.08.42.09.63.16.1.14.29.3.44.08-.13-.05-.28,0-.41.22.91.25,2.41-.03,3.51.22.14.28.54.24.99.46.88.72,2.01.84,3.13l-.19.39c.19-.11.13.62.24.93-.04.03-.08.05-.12-.01.07,1,.1,1.94.35,2.75.05,1.05.13,2.47.41,3.33-.07.71.22,2.05.32,2.64.18.99.32,1.87.59,2.63.02-.27.12-.26.21-.39.08.2,0,.38.08.58.08-.34-.03-.5.11-.69-.19-.36.13-.93-.08-1.07-.05-.17.14-.31.18-.46-.02-.45-.02-.9,0-1.34.12.42.12.61.34,1.18,0-1.67.11-3.94-.28-5.88-.03-.19.01-.37.08-.55-.05-.02-.1,0-.15.05,0-.21-.04-.43-.07-.64.28-.29-.15-1.12-.34-1.51.11-.19.19.11.29.32-.03-.2.06-.49.16-.47.12.35,0,.41.19.65.09-.15-.18-.35-.01-.49-.05-.26-.12-.1-.17-.3-.01-.09-.02-.19,0-.28.1,0,.19.32.29.32.02.07,0,.14.02.21-.18-.17-.05.43-.02.7-.05.13-.1.05-.15.19.08.62.38.76.43,1.32-.11.05-.2-.49-.3-.67,0,.25.04.79.19.66-.12.66.13,1.37.26,2.07.1-.41-.12-.86-.19-1.29.28.27.35,1.13.18,1.57.13.56.23,1.12.1,1.64.31,1.72.1,3.36.34,5.08.16-.35.08-.74.31-1.08-.04-.41,0-.8.17-1.18-.03-.14-.07-.07-.11-.16.22-.27.05-.61.15-.9.08-.13.14.05.19.24.14-.36.02-.75.08-1.12.09-.28.13.16.21-.04.12-.54-.09-.86-.1-1.51.17-.17.26.57.33.83.01-.12.05-.23.11-.34-.02-.07-.06.02-.09.06-.06-.29.08-.44-.08-.58.06-.13.1-.05.16-.19-.07-.49-.02-.95.01-1.42-.07-.18-.15-.19-.24-.03-.07-.15-.1-.3-.1-.44.12-.14.24-.18.36-.23.02.57.25,1.44.47,1.63.02.88.06,1.77-.09,2.63.25-.2.13.45.09.8-.13.09.03-.37-.05-.51-.15.36.08.77.1,1.16-.1.26-.14-.18-.16.19.2.11.15,1.08.07,1.59.16.44.05.93.1,1.52.2.08.07-.51.11-.7.11.5.23,1.73-.06,2.58.19.63-.24,2.63.26,2.87-.12.51.13.75,0,1.16-.1,0-.04-.29-.18-.26.1,1.17.3,2.34.69,2.47.12-.25.25-.72.39-.57.19-.59.24-1.57.63-1.69-.14-.31-.02-.83-.2-.92-.04.09,0,.2.03.3-.13.12-.07-.04-.12-.24.13-.17.18-.35.18-.55.09-.2.15-.11.2.11.04-.18.03-.36-.05-.37.25-.42.16-1.45.11-2.16.34-.76.05-1.64-.13-2.49l.07-.13c.3.37.27,1.17.43,1.6.1-.13.04-.28.16-.41-.25-1.27-.1-2.01-.25-3.23.03-.04.06,0,.09-.06.01.44.12,1.11.27,1.35.1-.18,0-.39.1-.56-.13.07-.15-.12-.06-.37-.08.05-.16.04-.24-.04.09-.41.03-1.36-.22-1.19-.08-.18.19-.06.11-.34.06-.04.04.29.17.17.04-.29-.18-.57-.27-.48-.03-.2.16-.14.23-.32-.06-.39-.17-.16-.24-.4-.06-.19.11-.24.13-.12.07-.29-.12-.24-.16-.31.02-.09.11-.37.21-.4.1.18.05.35.11.52.13-.41-.07-.63-.2-.61,0-.51.01-.97-.21-1.33.1-.36.15.06.25-.11.03.29.04.58.06.87.14-.26.25-.24.35.05.07-.18.01-.36-.06-.37.14-.02.03-.34.21-.4-.13-.41-.12-.77-.12-1.31.09-.1.14.4.01.5.02.08.04.04.06,0l.05.15c.11-.27.01-.57-.03-.87.12-.13.24.04.36-.09-.12-.16-.06-.17-.16-.46.08-.26.14-.17.22-.33-.04-.19-.09-.15-.14-.23.07-.2.12,0,.19-.26-.06-.44-.03-.87-.02-1.3.14-.18.07.18.19.38.09-.2-.09-.44.05-.64-.05,0-.09-.17-.15-.09.14-1.04-.12-2.13-.01-3.17-.04-.08-.08.06-.12.13-.07-.18-.14-.35-.13-.52.49-.25-.13-1.41-.05-2.01.43.21.32.97.51,1.56.09-.3-.12-.68.09-.78l-.18-.45c.05-.17.1-.13.15-.2,0,.19.13.4.06.58.13-.1.08.18.21.24.23-.31-.3-.7-.06-1.01-.17-.33-.34-.68-.5-.98.08-.28.16-.13.24.02.15-.22.04-.47.06-.71-.08.04-.16-.03-.24-.31-.03.14.07.29-.06.42-.07-.25-.07-.49,0-.72l-.27-.67c.17-.11.14.14.15-.34.08-.34.16.17.24-.12-.29-.12-.2-.51-.45-.97.04-.43.04-.86.12-1.28-.29-.34-.34-.76-.52-1.25.07-.32.17.25.24.16-.05-.65-.48-1.32-.71-1.62-.04.67.36.88.46,1.31-.05.12-.1.12-.15.06-.05.18.15.47.19.3-.21.59.5,1.78.19,2.59-.35-.51-.38-1.6-.36-2.32-.43-.46-.44-1.47-.52-2.38.19.26.33.41.55.47-.13-.2-.08-.38-.2-.58.3-.63-.21-.88.04-1.49-.17-.67-.12-.45-.24-1.08-.04.19-.1-.04-.15.06-.05-.19-.02-.38-.14-.58.1-.32.18.08.19.29.13-.07-.07-.88-.21-.86,0-.28-.13-.58.03-.85,0-.4-.32-.82-.25-1.22.15-.26.35.17.52.38-.04-.52-.32-.73-.32-1.43.1-.25.13-.12.09-.42-.13-.23,0,.44-.14.21,0,.21,0,.42.07.64-.15.1-.14.04-.09.42-.04.07-.08-.07-.13-.15-.07-.19.13-.37.08-.56-.05,0-.11-.16-.15-.08-.06-.24-.02-.47-.04-.71.07-.11.11-.04.13.15.04.14-.05.06-.08.21.09.04.19.14.26-.06-.54-.97-.6-1.91-.89-2.86.03-.11.07-.21.11-.14-.1-.08-.32-.8-.38-1.28.15-.07.28.7.37.65-.12.2-.03.38.03.07-.2-.79-.33-1.52-.37-2.13.18-.24.19.74.4.72-.03-.27.03-.37-.12-.5.11-.94-.55-2.59-.71-3.54.06-.21.21.55.25.14-.18-.12-.27-.47-.34-.78-.01.21-.04.42.03.64-.03.04-.06,0-.08.07-.15-.42.02-.85-.23-1.27.04-.13.09-.06.13-.21-.17-.33-.11-.66-.21-.99.04-.12.09-.13.14-.07.03-.16-.12-.33-.01-.49-.05-.15-.09-.08-.12,0-.12-1.31-.23-2.18-.49-3.46.05-.11.12-.04.2.14-.01-.21-.11-.42-.1-.63-.12-.34-.14.16-.26-.14.08-.33-.01-.66-.18-.98.04-.2.12-.03.15-.29-.08-.12-.13.06-.22-.07.12-.4-.06-.32-.16-.84.04-.2.12-.03.15-.29-.06-.05-.11-.05-.14.07-.14-.44-.07-1.41.13-1.41-.2-.65-.11.55-.34.15-.03-.24.06-.18.09-.5-.16-.32-.1-.72-.34-.84-.04-.31-.11-.66.06-.78l-.19-.35c-.13.27.14.08.01.35-.24-.17-.22-1.22-.48-1.81.13.09.22.02.32.34.09-.5-.32-.55-.42-1.04.14-.33-.08-.65-.2-.98.11-.4-.03-.8-.14-1.19.11-.11.1.36.22.48.07-.15.21.18.28.06-.24-.37-.35-.92-.6-1.24.04-.12-.04-.28-.02-.56.15-.17.16.83.28.27.15.2.03.42.18.63.11-.22-.23-.78-.02-.78-.14-.22-.13-.47-.3-.83.24,0-.06-.4.04-.78-.24-.41-.25-.83-.42-1.25-.12,0-.16.37-.04.57-.21-.01-.19-.64-.22-.9.08-.08.21.1.24.2.09-.06.06-.26.2-.3-.27,0-.15-.4-.4-.75-.13.17.08.32,0,.49-.06-.23-.21-.46-.12-.7.04-.08.05.12.13.2.04-.11-.02-.3.05-.21.04-.27-.21-.07-.09-.35-.09.08-.16.23-.3.02-.06-.33.1-.03.13-.29-.1-.18-.16-.1-.22-.06-.03-.12,0-.24-.09-.35.07-.38.29.18.38-.1-.09-.07-.19-.18-.26-.12-.17-.22.05-.47-.18-.69.02-.27.11-.19.15-.36-.18-.29-.15-.6-.19-.91-.23-.14-.27-.67-.33-1.03.03-.2.18.35.18-.01-.24-.29-.21-.65-.31-1.11-.12-.28-.12.15-.22-.05-.1-.4.16-.1.17-.44-.04-.18-.08-.25-.17-.27.21-.73-.43-1.38-.39-2.09-.25-.21-.25-.37-.46-.8-.03-.12.07-.23,0-.49.13-.1.16.4.29.54,0-.44-.18-.74-.35-1.03-.02-.35.08-.2.16-.44-.1-.27-.05-.44-.23-.54l.06-.29c-.13.15-.35-.58-.21-.9-.26-.18-.21-.39-.24-.75-.16-.27-.03.04-.09.15-.11-.15-.07-.32-.13-.48.09-.29.12-.1.24-.03-.06-.3-.09-.61.03-.93.05.06.07.13.07.21.1-.06-.09-.7-.13-.98.06.74-.15.65-.07,1.35-.38-.61.02-.77-.13-1.26-.12.04-.15.58-.29.53.07-.2-.04-.68.07-.86-.17-.17-.3-.15-.46-.3.23.04.14-.3.17-.59.05-.15.22.27.24-.03-.12-.1-.14-.17-.27-.11-.05-.18,0-.46-.12-.27-.04-.21,0-.42.01-.64.09-.03.15.63.32.46-.19-.35-.83-1.96-.41-1.72-.04-.21-.23-.4-.17-.62-.35-.24-.3-1.02-.69-1.48.17-.16-.06-.56.15-.44,0-.24-.19-.15-.31-.46-.11-.53-.14-1.07-.44-1.58.15-.09-.01-.53-.13-.55.11-.23-.05-.42,0-.64-.08.08-.05.19-.17.31-.09-.26-.05-.59,0-.71-.06-.37-.22-.15-.17-.68-.06-.02-.08.1-.16-.05.11.29.14.59.13.9-.12-.5-.23-1.01-.37-1.51.02-.05.06,0,.07-.08.11.22.1.68.29.67,0-.38-.31-.64-.26-1.17-.07-.09-.13-.17-.13-.27-.06-.05-.11-.04-.13.09-.18-.28-.14-.6-.31-.88,0-.26.1-.1.11-.3-.14-.25-.11.18-.2-.18.01-.27.18.13.1-.23-.1-.18-.09.05-.16-.05.07-1.13-.59-2.35-.67-3.24.03-.13.17.17.21.11-.05-.4-.42-.74-.29-1.16-.06-.05-.11-.04-.13.09-.14-.12-.11-.27-.23-.39,0-.19.09-.05.17.04.02-.22-.13-.41-.14-.62-.06-.06-.06.08-.08.16-.14-.12-.07-.27-.17-.4.04-.03.12.07.13-.09l-.19-.25c0-.2.11-.04.1-.3-.23-.65-.46-1.3-.63-1.96l-.03.22c-.05-.18-.23-.34-.21-.53,0-.19.09-.05.17.04-.04-.42-.39-1.1-.5-1.27.09-.13.07-.3-.09-.56-.02.38-.11.06-.21-.1.23.61.14.91.4,1.57.07.06,0-.07.02-.15.17.11,0,.29.17.4-.08.25-.04.24-.09.59-.1-.82-.65-1.85-.61-2.46-.04-.04-.06.01-.11-.05-.14-.25.13.04.09-.23-.36-.36-.34-.79-.42-1.21-.19-.08-.27-.36-.32-.65.15.07.33.28.39.07.1.19.16.54.28.52-.1-.26-.07-.27,0-.43-.16-.08-.19-.27-.31-.3-.11-.22-.07-.46-.26-.67.13-.32-.17-.9-.4-1.35.17-.06.08-.29-.15-.62.03-.06.08-.07.17.04-.05-.47-.39-.88-.46-1.34-.09-.11-.06.2-.17.04-.12-.12.07-.3-.12-.41.01-.13.06-.15.13-.1-.04-.22-.16.05-.19-.32,0-.18.05-.26.13-.17-.19-.32-.22-.98-.45-1.06,0-.2.11-.05.09-.31-.18.04-.14-.34-.14-.33-.18-.47-.46-.56-.46-1.13-.2-.05-.3-.62-.42-.92.04-.03.12.06.12-.1-.26-.16-.18-.53-.49-.83-.16-.07-.04.39.06.49.02.13-.23-.27-.25-.38-.18-.09.07.31.07.42-.03.08-.13-.09-.21-.17-.05-.1.05-.43-.22-.67.01-.19.03-.37.14-.25.02-.27-.21-.48-.15-.76-.1-.04-.17.06-.26-.23.26.09.58.56.87,1.03-.05-.23-.06-.47-.1-.7-.09-.08-.22-.08-.2-.32-.07-.06-.09.03-.17-.03-.18-.28.01-.19,0-.5-.22.12-.65-1.06-.44-1.27-.14.04-.09-.29-.3-.44-.03.25.19.44.16.69-.11.02-.19-.58-.27-.8-.07,0-.15-.06-.27-.23-.12-.14.03-.18.12-.03-.04-.25-.24-.21-.23-.02.1.15.08.32.25.45-.04.08-.09.1-.13.18-.19-.29-.13-.64-.33-.93.09-.1.49.37.35-.08-.13.12-.11-.07-.26-.3.16-.09.16.21.08-.31-.12,0-.17-.01-.32-.29.18-.17-.25-.48-.16-.83.32.8.72,1.38.9,2.32.08-.39.3.59.48.39.02-.13-.05-.23-.02-.36-.23-.07-.29-.67-.22-.82-.1.24-.26-.27-.34,0-.05-.18-.21-.34-.19-.54.04-.16.18.54.17.03.18.1.02.29.2.39,0-.14.08-.08.08-.24-.33-.34-.22-.49-.12-.62-.24.06-.39-.84-.59-1.24-.16-.11-.07.04-.08.24-.35-.39-.43-1.18-.69-1.35-.03-.29.15,0,.18-.12.13.35.3.7.37,1.07.12.1.2.08.23-.06-.09-.07-.09-.17-.09-.27-.05-.02-.1-.04-.12.03.04-.42-.49-1.38-.74-1.56.35.08-.03-.53.11-.76-.09-.1-.13-.21-.15-.33-.2-.08.08.31.03.43-.08.15-.29-.21-.59-.51.05-.35.26.24.38.19,0-.37-.11-.26-.3-.58-.03.13-.12.08-.18.12-.1-.15-.02-.34-.19-.46-.01.32.33.55.22.89.24.3.46.61.55.95-.03.14-.15-.29-.2-.39-.15-.1.02.38.09.27-.54.26-.75-1.89-1.34-2.86,0,.11,0,.22-.07.16-.03.18.21.29.15.47-.07.06-.37-.43-.31-.65-.08.18-.48-.33-.42-.62,0-.09.27.36.26.51.13-.14.22.09.39.12-.04-.31.03-.23-.03-.58.24.45.23.77.67,1.28.03-.32.14-.02.08-.46-.09.04-.09.32-.34-.06-.17-.44-.28-.9-.5-1.33,0,.19-.03.26-.12.18.05.21.12.41.2.6-.09.01-.23-.23-.32-.35-.01-.15.05-.09.12-.03-.07-.4-.2-.05-.32-.5.08-.05.22.09.29,0-.39-.4-.52-1.36-.93-1.79.03-.12.16.03.13-.25-.16-.22-.17-.49-.42-.69,0,.19-.02.28-.07.31-.19-.29-.25-.61-.46-.9.06-.19.41.12.37.48.03-.18.21.05.23-.14-.3-.21-.34-.54-.68-1.05-.06.19.17.29.15.47-.14.03-.17-.38-.37-.56,0-.14.07-.08.07-.24-.36-.05-.28-.78-.58-1.08.13-.25.36.45.5.44,0-.07-.06-.13-.11-.19-.06-.31.18.13.12-.18-.18-.21-.23-.59-.33-.42-.22-.18-.12-.45-.27-.66.05-.08.21,0,.22.23.18-.11-.5-.79-.26-.95l-.33-.34c.02.18-.04.16-.06.24-.17-.23-.07-.27-.04-.43-.39-.33-.34-.79-.53-1.54-.32-.33-.44-1.27-.8-1.82-.14.04.08.29.1.49-.19-.04-.42-.71-.54-1.02.1-.16.17.41.28.28-.02-.23-.04-.4.01-.45-.12-.14-.41-.37-.61-.55-.17-.28.05-.28,0-.52-.05-.16-.43-.6-.23-.59-.37-.45-.55-.96-.73-1.47-.05-.33.27.18.23-.15-.25-.35-.12.17-.34-.11-.21-.26,0-.37,0-.6-.13-.15-.13-.35-.23-.52.1.02.15-.06.11-.33-.05,0-.16-.04-.17-.17-.15-.13.08.21,0,.3-.18-.14-.16-.34-.23-.52-.13-.11,0,.28.06.35-.06.05-.15,0-.23,0-.12-.25-.02-.29-.23-.37,0-.33.13.03.23,0-.04-.3-.17-.22-.28-.28-.18-.29-.24-.62-.4-.91.08-.05.25.13.34.11-.08-.3.02-.66-.23-.97.06-.32.12-.41-.13-1,.02.19.12.41,0,.45-.17-.17-.22-.37-.3-.57-.12-.11-.07.13-.23-.07.13.24.2.77.36.77-.05.06-.08.15-.23,0-.12-.22.09-.21-.24-.44-.08-.31.19.12.11-.19-.15.11-.3-.24-.35-.55-.18-.12-.09.13,0,.3-.1-.09-.13-.21-.23-.29.03-.1-.08-.5.05-.39-.04-.12-.41-.49-.18-.46-.05-.23-.4-.23-.47-.59.02-.08.14.08.23.14-.13-.33-.25-.98-.48-1.03-.07-.09-.23-.56,0-.3-.29-.56-.81-1.23-1.22-1.29-.08-.15-.12-.31-.24-.44-.03-.29.29.16.22-.23.25.26.18.29.24.51.23.27.35.29.34.03-.06-.05-.04.05-.05.1-.14-.18-.3-.34-.3-.57,0-.18.1.2.23.22.04-.21-.24-.32-.18-.54-.32-.01-.47-.8-.56-1.3-.2-.17-.48-.26-.28.18.09-.16.17.12.25.36-.02.09-.1-.09-.12-.18-.07.15.34.78.44,1.12-.67-.96-1.33-2.58-2.05-3.77,0-.08.11.03.17.08-.04-.19-.11-.36-.31-.49.13-.18-.1-.27-.14-.55-.03-.21.34.37.23-.01-.3-.16-.26-.33-.44-.82-.24-.13-.45-.34-.44-.74-.23-.16-.25-.41-.48-.57.03-.83-.9-1.91-1.33-3.14-.11.08-.36-.16-.26-.36-.2-.23-.23-.13-.29-.11-.06-.08-.11-.16-.13-.25.1,0,.14-.12.35.09-.09-.41-.28,0-.32-.48-.25-.01-.24-.15-.44-.51,0-.16.14-.03.29.11-.47-.54-.83-1.52-1.4-1.8-.23-.27-.14-.31-.23-.52-.02-.21.25.09.21-.17-.2-.19-.25-.11-.29-.03-.14-.32-.19-.2-.39-.45.04-.25.45.06.61.35-.03-.15.04-.1.05-.02-.09-.49-.26-1.17-.93-1.69-.06-.26.31.22.22-.1-.28-.15-.46-.84-.71-1.25-.11-.1-.12-.01-.24-.13.03-.04.14.04.1-.12-.14-.22-.08-.06-.25-.2,0-.07.12.05.11-.05-.04-.32-.29-.55-.39-.45,0-.08-.03-.14-.08-.2,0-.08.11.03.18.07-.33-.58-.64-1.59-1.09-1.86-.2-.63-.3-.39-.4-.76-.4-.21-.49-.42-.86-.78.02.18.13.31.18.47-.21-.14-.18-.39-.37-.54,0-.08.11.02.18.07-.23-.39-.35-.84-.58-1.23,0-.08.11.03.18.07-.1-.19-.18-.39-.37-.54-.41-.05-.76-1.48-1.33-1.99.4.74.82,1.46,1.19,2.21-.22-.21-.31-.49-.45-.74-.18-.03.17.33.18.47l-.39-.29c-.03-.14.06-.1.02-.25-.38-.48-.61-.32-.89-1,.06-.1.36.35.52.46.05-.05.02-.23.15-.15-.12-.1-.62-.24-.82-.79,0-.12.08-.09.24.04-.07-.3-.54-.35-.72-.76-.1-.29.25.09.13-.23-.06-.05-.06-.02-.05.03-.06.05-.23-.32-.32-.16-.05-.12-.28-.54-.36-.38-.07-.15-.23-.26-.25-.43.09-.07.46.3.49.15-.13-.13-.31-.32-.49-.47-.06-.2.09-.08,0-.32-.28-.34-.48-.72-.72-1.09-.02-.16.18.21.33.23-.23-.51-.65-.41-.76-.98-.1-.11-.33-.15-.34-.31-.17-.1.11.19.05.3l-.2-.14c-.14-.42-.48-.72-.63-1.13.12-.09.49.38.48.64.17.13.32.26.42.43-.14-.19-.25-.78-.65-.96-.09-.28.2-.02.11-.31-.35-.12-.83-.83-1.24-1.38,0-.19.16.17.27.18-.18-.25-.01-.19-.1-.44-.3-.27-.46-.63-.78-.89-.15-.53-.34-.41-.97-.94.2.25.44.47.58.75.12.1.12.03.1-.06.15.14.26.29.34.47.05.16-.2-.14-.22-.21-.02.13.16.85.52,1.04-.02.28.47.93.81,1.28.02.18-.09.15.18.31.27.7.63,1.35,1.13,1.93-.16.12.4.68.11.59.12.07.25.27.44.5-.02-.13-.11-.21-.12-.34.1.12.19.21.29.33-.01.07-.06.09-.17.01.02.2.19.33.21.54.11.1.1,0,.19.06.02.18.04.35.25.43.03.12.02.26.12.34.06.19-.31-.25-.16.08.36.12.96,1.21.96,1.52.08.25.13.03.27.19.05.05.08.12.14.17.08.26-.08.14,0,.4.41.31.75,1.18,1.06,1.79.19.09.24.25.4.36-.07-.37-.24-.19-.36-.54.17.11.13.08.15-.15.41.31.54.7.47.88-.2-.11-.08-.39-.3-.49.16.27.09.48-.13.3.24.39.4.81.63,1.2-.22-.04-.12-.01-.01.32-.16-.19-.24-.41-.27-.66-.12-.08,0,.21-.16.08.18.2.23.47.38.68.16.11.09-.15.07-.35.25.33.38.71.72,1,.1.01.1-.15.22-.1.26.34-.14.07,0,.39-.01.09-.09-.09-.19-.14.04.45.65,1.2.68,1.72.46.42.62.96.9,1.46-.04.24-.31-.28-.48-.25.11.43.45.38.24.59.15.07.24.03.27-.12.31.4.53.85.71,1.31.28.04.45.5.6.82,0,.08-.11-.03-.18-.08-.09-.09-.07-.23-.09-.35-.07-.07-.11-.07-.12-.03l-.13-.1c.06.26.35.41.31.72-.16-.11-.17-.29-.27-.42-.19,0,.14.4.17.54-.46-.3.23.5.32.86.07-.06.27-.06.42.2-.24-.11-.05.22-.2.32.07.05.11.11.13.18.09-.18.29.25.47.26.07.18.2.78.54,1.08.05.26-.14.08-.22.09.12.38.28.72.3.95l.24.2-.02-.3c-.28-.17-.22-.47-.34-.7.27.24.26.61.52.85-.34.14.22.74.33,1.32-.06-.2-.24-.36-.27-.57-.15.04.18.53.28.72.1.02.16-.03.29.03.22.32-.05.23-.03.39.1.06.12.15.13.25.18-.06.33.23.33.63.08-.27.11.07.42.29.04.42-.37-.39-.28.11.26.02.33.28.54.39.03.36-.32-.3-.36-.16.16.31.2.37.43.51.03.34-.17-.18-.23-.06.08.64.4.71.74,1.23,0,.18-.09.13-.04.39.27.22.28.55.49.79-.03.11-.17,0-.22.09-.1-.06-.11-.16-.18-.23-.05-.24.12-.03.17-.07-.22-.37-.37-.45-.56-.92.09.29.13.61.33.86.03.25-.18-.34-.18-.08-.09-.32-.27-.6-.38-.91-.06-.04-.03.11-.11.04-.18-.22.07-.12-.02-.37-.1-.09-.16-.19-.19-.31-.35.12-.23-.65-.63-.89-.05-.26.2-.02.03-.32-.21-.13-.19.15-.4.01,0,.2.2.32.21.52.07.05.04-.09.04-.17.21.17.24.41.33.63-.08.08-.15-.18-.3-.18-.15-.24-.24-.51-.45-.73-.05-.26.2-.02.03-.32-.62-.23-1.05-1.71-1.5-2.5.05-.07.28.18.29.03.36.77.66,1.56,1.09,2.29.16.07-.05-.32-.2-.37,0-.23-.17-.48.09-.27-.13-.2-.27-.4-.39-.6.04-.08.24.11.15-.22-.26-.13-.24-.22-.38-.53-.06-.27.16,0,.09-.27-.19-.46-.59-.97-.83-1.18.05-.02.02-.17.1-.12.17.14-.13.08.13.25-.09-.42-.39-.76-.49-1.17l-.43-.36c0-.16.08-.2.01-.47-.33-.17-.09.24-.13.37-.22-.19-.07-.53-.36-.69-.06-.34.36.15.26-.27-.06-.05-.04.05-.05.1-.37-.43-.55-.94-.78-1.43-.26-.2-.15.26,0,.47-.18-.2-.57-.31-.58-.59.04-.16.18.24.24.12.05-.18-.21-.22-.16-.39-.18-.09-.13.09-.37-.22-.03-.17.03-.19.16-.07-.08-.39-.39-.2-.46-.57.03-.13.35.26.28-.05-.2-.2-.22-.1-.37-.22-.06-.08-.12-.15-.14-.25.08-.05.28.29.36.15-.19-.31-.06-.28-.13-.64-.23-.63-.72-1.17-.97-1.58.41.25-.49-1.03-.67-1.49.16-.04.33.58.62.73-.17-.56-.72-.85-.76-1.29-.07-.04-.04.09-.03.17-.23-.1-.21-.32-.41-.43-.02-.59-.63-1.06-.61-1.44-.46-.49-.52-.9-.98-1.26.13.23,0,.09.04.3-.58-.58-.4-.93-.21-1.09-.2-.1-.23.08-.39.04-.14-.28-.32-.53-.43-.82.01-.13.27.28.41.35-.02.09-.5-.96-.66-1.1-.07-.15.07-.23.11-.06.12-.08-.16-.24-.24-.36-.08-.04-.03.1-.03.17-.33-.48-.52-1.41-1.11-2l-.07-.37c-.13-.09-.12-.26-.29-.33-.07-.67-.68-1.04-.78-1.7-.51-.45-.79-1.04-1-1.66.31.27.38.26.63.47-.43-.58-1.03-1.07-1.08-1.46-.21.15-.61-.21-.74.09-.18-.31-.32-.64-.5-.95-.21.17.69,1.12.39,1.27-.14-.08-.09-.28-.15-.41-.19.05-.35-.47-.66-.61.11-.01.22-.04.09-.39-.11.1-.26-.07-.52-.27-.03-.24-.15-.66-.3-.57-.09-.25.08-.19-.11-.44,0-.18.08-.02.26.09-.17-.26-.34-.53-.6-.73-.07-.25.33.1.26-.16-.12-.08-.38-.03-.44-.32-.09,0-.25-.1-.13.17-.31-.29-.25-.25-.49-.29-.18-.06-.04-.32-.22-.38-.3-.2.01.21.03.32-.14-.14-.19-.34-.35-.46-.02-.16.32.15.2-.13-.16,0-.36-.37-.2-.3-.46-.21-.83-.86-1.04-1.48-.07.02-.24-.08-.31-.06.14.28.05.17.12.44.16.12.1-.03.08-.14.41.45.63,1.02.94,1.54-.4-.34-.51-.87-.91-1.21.13.23.27.46.36.71-.24-.19-.28-.5-.63-.62-.02-.16.2,0,.11-.24-.12-.06-.17-.18-.3-.24-.07-.18.06-.08.17-.02-.04-.15-.21-.2-.22-.37-.19.04-.39-.39-.55-.33-.17-.36.17-.1.06-.39-.27-.17-.61-.75-.56-.84-.38-.28-.23-.39-.57-.67-.02-.19.18.15.29.15-.16-.39-.54-.63-.73-1-.18-.07-.22-.07-.36-.01-.13-.2-.48-.52-.62-.45-.16-.28.21.07.05-.21-.11-.19-.34-.29-.4-.52-.24-.16-.18.02-.36-.19-.08-.24.38.14.43.05.18.08.06.37.31.41.07-.13-.32-.56-.59-.74-.12-.24.04-.14-.05-.33-.32-.22-.95-.69-.92-.87-.06-.11-.13-.07-.12,0-.2-.18-.42-.36-.48-.64-.21-.06-.27-.23-.47-.29.3.17.27.59.63.71.03.25-.23.06.06.5-.45-.18-.36-.41-.43-.5-.31-.12.11.28.01.36.18.05.28.16.3.32.22.07.28.24.37.18-.11-.22-.32-.32-.13-.36.16.09.13.32.33.39,0,.16-.26-.05-.02.28.06-.23.22.24.39.43,0,.06-.19.1-.26-.08.13.15.28.62.56.84-.03.36.4.6.34.91.28.25.36.14.62.45,0,.09-.16-.04-.26-.08.05.35.34.52.49.8.14.04.12-.03,0-.18.25.07.33.39.45.3,0,.03-.09.18.09.29,0,.18-.08.02-.26-.08.16.35.53.57.6.98.34-.08.23.49.66.59-.2.05.13.28.05.4-.18-.2-.38-.38-.42-.66-.36-.04-.63-.67-.81-1.1-.09.03-.18.06-.46-.12.68.37,1.01,1.8,1.85,2.03.25.38.57.71.76,1.12.13.04.12-.03.01-.18l.42.24c.1.1.17.23.21.37-.21-.12-.26-.35-.52-.43.06.21.21.38.27.59l.28.16c.08.09.14.19.19.3.03.15-.13.05-.31-.06.28.45.42.07.68.58.08.02.12,0,.08-.14.13.09.24.18.32.31-.39-.08.23.83.36,1.2-.32-.29-.81-1.22-.98-1.07-.27-.34-.44-.73-.74-1.05-.17.06.28.44.34.63-.28-.22-.22-.26-.5-.36.11-.28-.23-.35-.1-.61-.31-.22-.3-.03-.32.12-.21-.19-.06-.3-.11-.44-.16-.09-.24-.24-.43-.31-.11-.24.05-.13-.03-.32-.32-.17-.12-.14-.28-.41-.28-.21-.42-.52-.73-.71-.13-.26.14-.05.13-.17.28.23.55.82.71.64-.1-.16-.31-.25-.46-.38.02-.04.04-.08,0-.18-.31-.16-.36-.21-.44-.48-.36-.25-.15.16-.51-.09-.06-.04-.09-.11-.16-.15-.1-.24.12-.11.2-.13,0-.23-.24-.3-.27-.51-.13-.09-.12-.01-.1.07-.34-.29-.39-.78-.89-.95-.42-.66-.91-1.03-1.16-1.64-.27-.1-.34-.34-.53-.5-.17.03-.13.12-.36,0,.13.33.16.31.2.56.22.03.1-.05.38.08.24.21.35.51.68.66.03.2-.38-.11-.5-.08.05.18.48.52.3.58.27.39.76.63.88,1.12-.26-.16-.4-.41-.65-.58.1.16.25.29.27.5.15-.01.2.04.18.22.53.3.62.9,1.04,1.27.14.25-.12.04-.24,0,.03.2.25.29.32.47,0-.16.1-.22-.05-.56.03-.04.1-.04.17-.03.12.12.2.27.3.4,0,.1-.2-.06-.06.21.16.11.17.05.26.08.08.06.09.17.19.22,0,.2-.16-.08-.24,0-.2-.12-.19-.38-.44-.47,1.31,1.77,2.62,3.53,3.81,5.37.31-.02.6.63.53.83.2.05.17-.2.37-.14.29.3.06.4.38.68,0,.08-.11-.02-.19-.05.18.31.5.52.64.85-.52-.18.34.78.46,1.36.22.2.08-.09.07-.2.32.47.15.28.39.75.09.05-.02-.2.09-.13.1.1.16.23.19.37.06-.01.16.02.32.14.26.21,0,.26.33.46.01.12-.08.09-.24-.03.42.73.25.68.91,1.5-.01.07-.06.09-.17.01.52.46.73,1.09,1.19,1.59-.02.05-.03.09-.11.06.14.22.36.39.61.55.07.22.02.24-.16.08.53.67.7,1.53,1.45,2.09.08.26-.15.01-.08.27-.13-.09-.11-.26-.28-.33.4.53.98,1.16,1.3,1.93.17.03-.21-.51.14-.22.08.37.15.67.35.92.28.09-.14-.26-.18-.46.25.16.32.42.49.62-.09.05-.21.04-.34.01.41.58.88.93,1.2,1.67,0,.07-.12-.04-.11.05,0,.12.1.21.1.34.24.17.17.05.38.28-.04.05-.06.13-.02.32.24.27.38.59.56.9.01.17-.2-.14-.19-.22-.03.31.46.73.71.83.11.35-.12.1-.29-.02.24.43.71.75.87,1.22.04.16-.27-.11-.19-.22-.07.13.02.38.18.68-.06-.09-.25-.35-.18-.07-.1-.11-.08-.27-.26-.34.01.25.23.4.29.63.03-.11.26-.01.31.24.09.04-.03-.11-.02-.22.19.22.34.46.64.63.09.32-.22-.07-.15.22.19.14.37.45.5.39.26.53.53,1.16.78,1.49.07-.02.09-.12.29.1-.05.27-.32-.05-.08.49-.2-.12-.21-.32-.32-.47-.13.09.33.56.4.82.06,0,.05-.12.17,0,.05.22.16.34.1.57.19.21.17.02.36.23.12.18-.05.47.33.69.04.2-.1.07-.03.32-.15-.11-.2-.27-.26-.42.22,1.04,1.26,2.39,1.79,3.56-.07.04-.2-.04-.35-.16.09.24.3.43.33.69.15.14.18.05.23-.02.28.55.52,1.68,1.17,2.09-.03.24-.21-.18-.29-.11.19.41.25.49.38.82.08.04.09-.05.17,0,.26.39.28,1.21.62,1.33,0,.17-.09.13-.04.39.13.18.35.31.31.55.43.18.47,1.1.91,1.51-.08-.03,0,.28-.11.19.21.29.46.57.41.96.13.1.22.22.29.34-.03.03-.06.06-.05.17.12.03.28.37.12.25.17.17.31.51.41.89.08-.13.17.04.29.27,0,.08-.1-.04-.17-.09.1.33.31.63.41.96-.25-.2-.13-.34-.35-.39.06.2.1.4.24.58-.02.08-.14-.07-.23-.14-.11-.23-.03-.53-.29-.71.17.27-.11.23.06.49-.09.13-.21-.11-.34-.32.01-.14.15,0,.23,0-.04-.27-.22-.31-.35-.39-.1-.21-.24-.4-.24-.65.19.48.34.28.46.65.16.08-.14-.42.17-.06.2.21-.2.01,0,.22.27.29.09.02.11-.19.05.08.1.16.12.25-.02-.31-.57-1.07-.71-1.59-.1.19-.14-.23-.29-.19.14.29.3.58.52.85-.3.29-.67-.79-.92-1.07-.08-.52.27-.13.27-.47-.19.05-.15-.44-.41-.59.12.19.31.77.07.64.02-.42-.25-.29-.35-.83-.04-.29.2,0,.16-.28l-.3-.26c0,.11.02.22-.05.17-.43-.53-.66-1.13-1.04-1.69-.04.24.15.39.19.59-.27-.31-.65-.91-.5-1.14.06.17.17.33.36.46.14.03-.12-.31.05-.24-.22-.38-.61-.63-.5-1-.19-.1-.19-.27-.25-.43-.04.02-.16-.1-.17,0-.13-.5-.72-1.21-.63-1.54-.15-.27-.33-.52-.49-.78.04-.03.1-.02.17,0-.06-.26-.18-.12-.3-.25-.04-.29.13-.18.28-.11-.1-.3-.35-.62-.23-.81-.15-.04-.14.25-.4.01.12.42.32.04.44.57-.07.13-.18.06-.35-.16-.3-.45-.28-1.03-.62-1.47.06-.24.2.16.36.3-.03-.24-.23-.41-.38-.59-.03.03-.05.07-.04.17-.12-.15-.06-.25-.19-.22-.07-.4-.55-.62-.47-1.08-.15.01-.44-.5-.33-.62-.34-.1-.64-.69-.76-1.11-.1-.1-.1-.02-.18-.08-.08-.36-.35-.68-.17-.76l-.43-.34c-.14-.45.25.04.21-.24-.26-.21-.39-.49-.48-.78-.11,0-.35-.21-.48-.24.01-.22.38.19.33-.15-.27.12-.7-.67-.79-1.09-.23-.29-.37-.17-.51-.53.1-.03.35.15.09-.2.04-.1.22.03.42.19,0-.05-.03-.09-.07-.12v-.15c-.2-.16-.19.02-.37-.14-.26-.27-.02-.33-.13-.71-.23-.17-.21-.47-.41-.66-.01.31.16.54.36.75-.06.03-.04.2-.02.39-.12-.28-.23-.19-.28-.56-.21-.25-.02.2-.23-.05-.02-.33-.38-.88-.59-1.34-.11-.04.12.4.22.51-.16.18-.47-.43-.59-.72.02-.24.26.41.25.19-.05-.37-.24-.19-.36-.52.47.22-.6-.89-.59-1.41-.19-.08-.53-.5-.84-.75.25-.09-.54-.95-.71-1.04-.02-.11-.04-.21.03-.17-.14-.05-.2-.35-.47-.54.08-.29-.25-.42-.56-.81,0-.12.16,0,.08-.27-.62-.65-.75-1.11-1.34-1.81.01-.12.17,0,.02-.25-.22.1-.35-.36-.33-.61-.08.21-.45-.11-.6-.47.06-.17.24.37.32.22-.01-.12-.11-.21-.11-.33-.13-.05-.09.13-.25-.1,0-.09.19.11.17-.01-.18-.41-.33-.49-.41-.41-.24-.27.17-.09-.06-.36-.1.11-.31-.12-.52-.35.09-.19-.12-.18-.14-.48-.11.06-.29-.24-.37-.43.05-.06.12.1.17-.02-.23,0-.68-.99-.84-.72-.08-.25-.46-.33-.52-.58,0-.23.21.14.45.22-.11-.23-.31-.41-.42-.64-.39.1-.79-.77-1-.95.11-.04.35.21.47.29.05.14-.02.1-.1.06.12.28.2.13.43.4-.24-.4-.34-.47-.36-.92-.23-.2-.1.1-.22.05-.06-.45-1.2-1.66-1.5-2.19-.07-.06-.45-.4-.39-.17-.33-.22-.32-.61-.53-.49-.06-.21.15-.07.2-.13.1.08.1.21.14.32.24.11.06-.23.38.1-.22-.29-.32-.28-.67-.57.02-.04.04-.07.01-.17-.23-.13.03.16-.13.17-.18-.14-.21-.36-.46-.45.53.93,1.2,1.76,1.79,2.66.13.28-.2-.08-.07.21.15.21.17.11.33.21.06.29-.3-.02-.55-.16-.33-.49-.49-1.17-1.13-1.67-.13-.16-.16-.39-.31-.54,0,.23-.01.17-.22-.19-.2-.16-.1.06-.24-.01-.13-.54-.35-.54-.63-.91-.07-.19.09-.08-.02-.32-.09.09-.3-.03-.42-.3-.07-.19.32.22.15-.1-.11-.04-.14-.13-.17-.22-.05.02-.13-.01-.25-.08-.31-.51-.47-.76-.66-1.23-.28.05-.25-.39-.57-.54,0-.17.2.18.35.18-.17-.19-.36-.37-.47-.6-.11-.09-.34-.11-.37-.25-.07.16-.11.08-.45-.11.37.39.36.67.74.92.06.27-.2-.07-.13.17.26.17.34.13.36,0,.14.1.22.24.39.32-.15.12.2.42.38.58,0,.21-.28-.17-.44-.13.14.23.19.2.36.26.01.1.04.32.28.65.06-.05.28.1.46.2-.03.12-.18.1-.08.38.19.1.22.3.34.44-.11-.02-.06.15-.13.17.5.55.91,1.17,1.31,1.79.42.23.45.69.8.97.16.76,1.19,1.36,1.15,1.97.18.06.19.21.35.28,0,.21.11.36.17.54-.23-.19-.26-.44-.49-.43.21.01-.03-.18-.14-.4-.21-.07-.03.12.06.28-.31-.19-.43-.49-.61-.76-.02-.13.27.2.29.31.06-.17-.49-.67-.66-.97,0,.19.21.25.2.44-.34-.54-.6-.66-.97-1.11-.06-.2.38.3.22-.05l-.26-.16c-.27-.54-.79-1.05-1.14-1.32.38.22-.06-.27-.26-.57-.09,0-.26-.09-.08.13-.48-.25-.24-.5-.64-.73-.05-.21.09-.18.18-.2-.08-.18-.43-.3-.47-.27-.24-.18-.35-.76-.58-.69-.07-.1-.29-.51-.17-.47-.27-.14-.79-.7-1.1-1.25.29.24.24.22.58.36-.1-.22-.2-.41-.3-.63-.16-.13-.04.28-.17.03-.21,0,.21.24.27.32-.12.16-.76-.38-.82-.78-.29-.36-.91-.48-1.04-.95l-.28-.14c-.1-.21.1-.06.15-.1-.14-.24-.51-.31-.59-.6,0-.18.23.16.34.18-.57-.54-1.12-1.03-1.29-1.53-.16-.16-.3-.35-.57-.43.07.15.06.21-.07.14-.07-.29-.74-.72-.94-1.18.17.07.34.14.4.3-.01-.16-.52-.7-.76-.98-.33-.14.16.18.12.35-.24-.11-.32-.33-.57-.43,0,.07-.04.1-.16.04.06.19.17.19.1.28-.07-.06-.14-.12-.23-.16-.06-.4-.18-.43-.4-.82.27.07.25.39.52.47-.02-.19-.19-.26-.22-.45,0,.18-.5-.22-.68-.42-.02-.07.11,0,.19.02-.01-.23-.25-.26-.3-.46-.13-.04.05.21-.04.21-.43-.26-.66-.69-1.07-.98-.12.1.27.23.35.42,0,.05-.05.04-.02.11-.21-.28-.37-.27-.69-.49-.11.12.17.32.37.31.17.27-.36-.09-.04.21-.22-.08-.59-.39-.45-.06Zm15.2,20.96c.25.15.27.42.39.64-.22-.16-.31-.4-.39-.64Zm9.7,18.41c-.22-.13-.34-.59-.35-.22-.26-.31-.4-.67-.52-1.04.2.12.15.19.41.27.02.12,0,.25.08.34.08.06.05-.08.11-.05.07.24.33.4.27.7Zm45.59,149.67c.08.25.21.2.07.5-.09,0-.17-.32-.07-.5Zm3.22-.12c.06.45.09.5.27.9-.13.15-.07.33.01.5-.13.22-.14.26-.31.39.11.38.23.14.36.05-.09.58-.38.5-.51.14.23-.47-.15-1.03-.04-1.51.14-.24.06.28.17.17-.06-.23-.06-.65.05-.64Zm-3.79-43.91c-.14-.26-.03-.52-.12-.77.15.26.16.51.12.77Zm-4.2-21.87c.08-.13-.04-.6.11-.51-.1.21.11.69-.11.51Zm-3.68-16.41c.02.19.17.36.08.56-.13-.13-.22-.62-.08-.56Zm-38.29-91.1c-.18-.26-.36-.52-.44-.83.14.23.55.73.44.83Zm1.59,6.01c-.13.04-.76-1.05-.48-.95.05.37.44.58.48.95Zm-14.59-20.63c.09.03.1-.03.26.08.03.13.13.2.16.33-.2-.1-.39-.2-.43-.41Zm15,29.38c-.33-.55-.46-.8-.7-1.29.33.38.55.82.7,1.29Zm-7.11-11.44c-.1-.19-.46-.64-.34-.68.12.18.49.63.34.68Zm-3.78-5.78s-.36-.06-.35-.28c0-.14.35.16.35.28Zm-12.83-11.82c-.07-.13-.09-.03-.21-.09,0-.27-.36-.24-.36-.5.3.05.65.53.57.6Zm5.84,7.67c-.13-.13-.33-.22-.35-.42.32.14.34.38.35.42Zm4.89,8.03c-.11.04-.36-.31-.4-.55.24.12.31.35.4.55Zm1.12,1.63c-.2-.15-.49-.65-.37-.73.09.26.35.42.37.73Zm-3.55-14.73c.29.37.68.68.93,1.09-.42-.25-.88-.86-.93-1.09Zm5.08,20.68c-.14.03-.39-.36-.44-.61.28.13.37.36.44.61Zm-1.68-9.58c-.13-.19-.35-.33-.4-.56.18.11.56.52.4.56Zm-2.96-11.41c0-.13-.4-.4-.18-.4.1.17.46.45.18.4Zm.4.33c-.06.19.11.19.25.43-.12-.06.02.18-.08.14-.21-.28-.06-.27-.37-.44l-.07-.22c.09.03.1-.03.26.08Zm.56,1.26c-.17-.17-.41-.29-.46-.55.28.1.4.3.46.55Zm2.99,8.75c.13.09.23.19.29.31-.27-.2-.39.11-.58-.3.05-.17.35.25.29,0Zm-1.52-7.08l-.28-.16-.06-.22c.2.06.24.24.33.38Zm-1.29-4.4c.09-.21-.2-.22-.33-.48.13-.15.78.74.33.48Zm3.76,12.7c.15.43.72.73.63,1.08.18-.06.45.33.52.58-.42-.53-.54-.32-1.03-.77.05-.34-.17-.19-.09-.43-.24-.26-.77-.78-.71-.95.02.06.26.35.21.2-.17-.17-.29-.37-.35-.6.2.1.24.29.27.48.2.13.4.48.54.41Zm1.13,8.01c-.14.06-.32-.28-.42-.47.11-.05.36.26.42.47Zm-1.66-9.48l.06.29c-.15-.07-.25-.17-.29-.31.23.22,0-.2.23.02Zm-1.8-9.15c-.25-.09-.17-.41-.45-.48-.08-.22.19-.1-.06-.39.5.26.25.53.51.87Zm1.18,4.26c-.21-.12-.44-.22-.47-.46.14.16.43.23.47.46Zm-.8-2.87c-.02-.3.6.16.71.48-.09.06-.29-.05-.4-.17.12-.09-.13-.26-.32-.31Zm4,13.01c.13-.08-.1-.26-.28-.32-.09-.16-.11-.23-.05-.29-.39-.34-.47-.85-.9-1.16-.07-.22.24-.11-.12-.33-.06-.24.14-.37.29,0-.08-.04-.15-.08-.1.06.32-.13.71.58,1.04.93l.06.36c.17.22.47.37.51.67-.24-.02-.62-.53-.77-.85,0,.08-.06,0-.13-.09.12.2.14.45.28.64.34.21.65.44.71.8-.31-.47-.34-.28-.53-.42Zm-2.81-9.79c.13.07-.01-.21.15-.09-.03.18.24.19.21.37-.22-.12-.26-.02-.52-.18l-.06-.22.21.12Zm3.93,21.34c-.03.13-.38-.21-.33-.36.12.12.36.17.33.36Zm.07-3.65c-.27-.04-.41-.79-.29-.54.08.19.29.31.29.54Zm-3.54-18.9l-.28-.16c-.01-.08-.07-.21.01-.18.05.14.22.05.27.34Zm1.11,2.5c-.12-.09-.14-.03-.09.14l-.34-.21c-.11-.18-.17-.39-.27-.59.2.24.48.43.69.66Zm-.97-2.42c.16.06.2-.03.27-.09.04.15.21.21.21.37-.53-.34.23.47,0,.43-.1-.28-.68-.69-.52-.86l.04.15Zm1.35,3.68c.12-.21-.27-.39-.38-.68.34,0,.69.73.38.68Zm.28.49c.13.23-.11.16.06.29.13.07.09-.11.22-.05l.06.29c-.1-.06-.24-.16-.17.02-.16-.09-.32-.19-.37-.36.08.04.15.08.1-.06-.2-.18-.15,0-.32-.14-.1-.32.27,0,.41,0Zm.48,2.01c-.29-.19-.46-.44-.51-.76.26.2.4.47.51.76Zm-1.43-5.34c.28.25.34.63.64.87-.29-.17-.39-.34-.65-.69.08.04.05-.07.01-.18Zm2.78,11.38l-.26-.18c0-.21-.09-.37-.31-.46l-.04-.22c.29.24.42.56.6.86Zm-2.02-10c-.07-.21-.25-.35-.31-.56.2.08.46.55.31.56Zm3.58,19.59c-.26-.27-.33-.64-.57-.93.24.02.45.61.57.93Zm-3.83-21.28c.03-.07.2.03.31.06.14.14.26.29.36.46-.03.11-.17.07-.27.08.39.15.53.46.76.72,0,.36.19.57.4,1.01-.26-.1-.61-.79-.84-1.17.03.13-.01.16-.09.14-.25-.35-.29-.47-.09-.37-.23-.24-.96-1-.89-1.39.15.32.18.19.35.46Zm1.05,3.78c-.19-.01-.34-.07-.5-.45.27.39.24.05.5.45Zm-.73-2.8c.07.15.19.27.22.45-.2-.11-.47-.55-.22-.45Zm2.49,11.52c.04.11.11.2.22.28l.06.36c.39.32.34.48.72.87-.13-.09-.05.14-.24-.03-.05-.29-.26-.49-.46-.7-.03.14-.1.21-.34.02-.08-.19-.18-.37-.21-.59.2.13.25.34.48.45.04-.15-.31-.57-.22-.66Zm-.02.24c-.21-.15-.31-.36-.33-.61.19.16.23.4.33.61Zm-1.59-10.13c.13.29-.21-.08-.07.21-.17-.12-.28-.27-.33-.47.06-.05.3.1.4.26Zm3.37,21.55c-.16-.13-.31-.25-.32-.45.19.11.26.28.32.45Zm-3.41-22.02c.05.15-.04.11,0,.25-.17-.09-.24-.24-.27-.42l.27.17Zm1.7,6.29c.03.13.02.22-.01.25-.2-.24-.43-.46-.48-.78.25.13.23.4.49.53Zm-1.23-5.16c.12.37.49.6.61.96-.2-.32-.61-.52-.72-.9.09.06.03-.09.1-.06Zm.43,1.72l.27.17c-.01.11.03.28-.06.28,0-.19-.21-.26-.21-.45Zm-.35-2.18c.12.04-.14-.46.12-.24.21.29-.11.07.03.4l-.34-.22c.01-.1-.26-.43-.08-.37.13.12.16.29.27.42Zm2.37,11.92c-.1-.29-.25-.17-.36-.52.2.09.53.5.36.52Zm-.97-8.13c-.17-.2-.37-.39-.48-.62.28.14.35.4.48.62Zm2.78,20.17c-.12-.12-.26-.23-.26-.4.1-.05.29.19.26.4Zm-2.12-18.11c-.11-.24-.3-.42-.35-.69.22.13.45.66.35.69Zm1.11,7.38c.19.27.31.57.45.86-.27-.19-.73-.88-.45-.86Zm-.89-11.32c-.26-.18-.01.04-.02.18-.2-.08-.15-.3-.32-.4,0,.28.19.44.26.67-.01.08-.03.39-.22.04.19.07-.13-.24-.08-.37-.32-.15-.31-.48-.55-.67,0-.25-.05-.38-.26-.67-.11-.07,0,.18-.09.13-.23-.6.09-.37.47-.27.05.16-.06.09-.09.13.11.07.08.23.18.31-.03-.13-.04-.22,0-.25.23.17.26.37.34.22.1.14.22.26.22.46-.11-.05-.2-.22-.2-.13.14.19.26.4.37.62Zm.34,2.26c.09-.06.2.16.34.3-.09.19.25.47.37.77-.34-.19.17.26.08.44-.23-.23-.28-.55-.48-.79-.46-.38-.67-.08-.92-.63.32.29.9.52.61-.09Zm2.84,21.75c-.04.08-.29-.25-.22.02.26.29.25.1.41.19,0,.13.08.21.08.34-.3-.09-.48-.31-.76-.41-.02-.53-.08-.6-.24-1.08.24.21.54.51.74.94Zm-1.42-11.27c-.17-.04-.32-.22-.41-.49.16.15.28.33.41.49Zm-2.44-14.25c-.13-.07,0,.21-.16.09-.23-.26,0-.39.16-.09Zm1.42,5.09l-.52-.36c-.02-.1-.1-.16-.1-.27.08-.12.52.31.63.63Zm1.25,9.67c.03.19.15.32-.03.24-.02-.14-.18-.22-.16-.38l.19.14Zm-.37-5.19c.09.38-.36-.12-.41-.34.19.08.21.26.41.34Zm-1.51-7.46c.09.12.14.42-.06.28-.05-.19-.09-.36.06-.28Zm2.25,12.93s-.07-.04-.05.03c.11.08.17.17.21.28-.21-.16-.35-.34-.42-.57.1.08.23.15.26.26Zm.4-.42c-.03-.24-.34-.35-.36-.6.19.12.52.56.36.6Zm-2.45-15.35c-.19-.04.12.27.15.16.05.19-.05.16-.14.16-.16-.28-.2-.18-.42-.59.14.03.28.1.41.27Zm4.87,30.43c-.18-.12-.18-.32-.26-.48.18.12.27.28.26.48Zm-1.33-16.39c-.16-.1-.22-.26-.23-.43.16.1.22.26.23.43Zm.8,6.47c.08.32-.27.05-.25-.19.17.14.11-.02.25.19Zm-.31-5.38c.27.21.59.8.47.94,0-.33-.34-.51-.5-.77.14.07-.09-.17.03-.17Zm2.27,18.46c-.17-.25-.34-.5-.37-.81.2.22.49.69.37.81Zm-3.1-28.03c-.04-.15-.31-.58-.16-.57.13.1.3.59.16.57Zm1.75,5.84c-.01.27.17.44.21.69-.23-.17-.22-.47-.54-.6,0-.16-.14-.25-.12-.42.26.23.2.18.45.33Zm1.41,10.57c.05.27.02.4-.21.17-.09-.2.02-.32-.17-.61.22.1.19.32.39.44Zm-.58-11.93c-.23-.18-.45-.36-.55-.61.23.18.51.33.55.61Zm.69,6.43c-.16-.11-.21-.26-.22-.44.16.11.21.26.22.44Zm-.05-2.32c-.22-.18-.41-.38-.44-.66.22.19.31.43.44.66Zm.45,1.82c.08.38.42.64.56.99-.31-.11-.45-.53-.73-.98-.08-.05-.11.02-.13-.17.07,0,.16.03.3.17Zm1.04,6.15c-.29-.25-.45-.56-.6-.88.3.25.45.57.6.88Zm-1.03-10.79c-.17-.13-.25-.3-.35-.46.16.07.16-.12.34,0,.09.3-.05.21.01.47Zm-.71-.93c.07-.17-.08-.28-.14-.57.28.41.78.59.71.93-.26-.33-.35-.25-.57-.36Zm.5,1.11c.03-.18-.38-.54-.19-.54.14.22.32.43.33.71-.12-.1-.14-.04-.1.13-.19-.17-.34-.37-.43-.59.11.06.35.45.39.29Zm.99,5.03c-.04-.19-.23-.31-.23-.52.16.09.35.56.23.52Zm-.42-.74c.17.15.02-.25.23-.03.11.29-.13.28-.23.03Zm.29,1.65c.19.12.25.3.39.44-.02.22.1.37.17.54-.21-.24-.14-.12-.37-.3.04-.16.04-.26-.22-.44-.02-.13-.01-.22.03-.24Zm1.37,11.56c-.21-.12-.3-.41-.42-.35v-.15s-.08-.07-.08-.12c.18.05.43.32.5.62Zm.01,9.55c.03.18.17.3.06.34-.19-.12-.22-.48-.06-.34Zm-1.77-26.57c-.12-.18-.21-.37-.26-.59.23.08.34.62.26.59Zm1.99,15.28c-.2-.22-.33-.46-.39-.74.2.22.33.47.39.74Zm-.73-12.8c-.04-.15-.08-.05-.19-.15-.13-.28.02-.37-.31-.64-.11.02.16.39-.08.27-.15-.24-.19-.41-.14-.57.36.25.82.88.71,1.08Zm.74,10.54c.1.28.41.49.4.82-.23-.18-.3-.43-.5-.62-.03-.18,0-.26.1-.19Zm-.23-5.93c.06.13.1.26.1.42-.22-.11-.29-.56-.1-.42Zm0-3.66c-.09-.07-.13-.07-.18-.07-.06-.13-.1-.27-.1-.42.16.14.25.3.28.5Zm.65,4.91c-.11-.18-.39-.29-.4-.52.19.15.33.32.4.52Zm.52,2c-.26-.19-.15-.34-.37-.38-.01-.13,0-.22.04-.25.22.16.33.37.33.63Zm-.68-1.39c.03.29.38.45.35.77-.27-.14-.48-.7-.35-.77Zm-.31-4.51c-.24-.1-.21-.32-.23-.52.19.12.16.35.23.52Zm.85,4.81c-.2-.12-.21-.32-.33-.47.13-.06.33.25.33.47Zm.62.66c-.29-.27-.37-.41-.54-.38-.12-.23,0-.19.03-.32.19.12.24.3.38.45-.02-.1-.12-.26-.02-.22.26.35.25.57.3.87-.08-.05-.11,0-.24-.13-.07-.28.08-.15.09-.27Zm.2,1.07c-.33-.37-.54-.79-.72-1.23.29-.06.58.76.72,1.23Zm-.93-7.1c-.23-.29-.34-.63-.51-.95.24.28.44.58.51.95Zm.25,2.23c-.08.01-.24.05-.31-.25.03-.01.28.06.31.25Zm.38-.71c.13.37-.27-.19-.23.02.04.19.3.28.28.5-.32-.27-.45-.63-.62-.97.16.03.31.39.56.45Zm.24,6.22c.39.33.37.88.12.79,0-.24.08-.22-.12-.79Zm.39-.09l-.3-.25c0-.08-.03-.22.04-.17,0,.18.34.22.26.43Zm-.02-3.07c.03.21-.11.09-.23.02-.01-.1-.09-.17-.09-.27l.31.25Zm.03-1.33c-.02.18-.12.22-.34.07-.07-.34.19-.29.34-.07Zm.12,3.96c.22.13.24.51.16.55-.29-.25-.09-.23-.16-.55Zm.5-2.91c0,.13.03.24.09.35-.23-.28-.15-.39-.44-.51.12-.17-.14-.32-.18-.62.25.22.28.55.54.77Zm.66,1.88c-.02-.48-.67-1.1-.57-1.38.18.37.89,1.3.57,1.38Zm-.2-.38c-.12-.1-.06.14-.23-.05-.03-.12-.1-.22-.09-.35.19.26.22.11.32.4Zm1.26,2.17c-.03.19.18.28.15.48-.15-.15-.27-.3-.32-.48.09.06.09-.03.17,0Zm1.08,6.41c-.12-.21-.57-.81-.26-.73-.02.24.39.7.26.73Zm.2,7.53c.06.32-.28.03-.29-.19.14.16.12-.02.29.19Zm-.15-7.77c-.16-.12-.16-.29-.19-.45.13.15.31.06.35.24-.1-.03-.1.16-.16.21Zm.35.09c.08.35-.26.15-.29-.12.07-.02.1-.12.29.12Zm.01-3.12c-.06.25.24.36.2.61-.25-.28-.4-.6-.56-.92l.36.32Zm.21,3.03l-.24-.21v-.22c.18.1.18.28.24.43Zm0,1.35c.3.27.05.32.2.67-.15-.2-.3-.61-.2-.67Zm.27.87v.29c-.15-.09-.41-.53-.24-.51.02.19.2.2.24.21Zm.3,7.54c-.09-.14-.09-.31-.12-.47.45.87.9,1.74,1.17,2.68-.32-.19-.13-.54-.4-.74,0,.19.11.33-.05.24-.13-.28.04-.2,0-.51-.27-.22-.18-.57-.47-.79.05.18.16.33.12.55-.14-.1-.13-.25-.29-.34-.06-.24.24-.03.05-.31-.15-.16-.04.24-.23,0-.08-.12-.11-.26-.12-.4.09-.02.3.21.34.1Zm-.18-8.56c0,.35.27.6.33.93-.2-.12-.18.14-.41-.22-.08-.33.11-.13.16-.21-.13-.18-.19-.38-.37-.54-.04-.26.12-.12.29.04Zm.03-2.74c-.2-.18-.42-.34-.43-.59.15.19.41.35.43.59Zm.1,5.61l-.24-.21v-.22c.14.12.25.25.24.43Zm1.56,1.67c.07.1.12.21.12.33-.36-.41-.12-.78-.19-1.05l-.29-.27c-.06-.55-.31-1.04-.61-1.5-.16,0-.36-.14-.47-.28.2-.12-.19-.21-.19-.53.35.34.59.63.89.79-.04.5.56,1.14.84,1.64-.08-.04-.3-.37-.29-.2.19.21.27.45.47.65-.01-.1-.11-.26,0-.22.02.27.47.78.3.86-.07-.34-.51-.74-.52-.41.22-.04.5.84.42.9-.1-.24-.34-.96-.47-.73Zm.4.16c.06-.03.27.22.35.4-.14-.08.11.3.07.42-.23-.24-.31-.54-.41-.82Zm-2.11-7.41c.2.3.33.63.45.97-.21-.28-.56-.81-.45-.97Zm.32,2.98c-.03-.14-.19-.23-.13-.4.19.04.26.49.13.4Zm.51,1.24c-.15-.12-.43-.58-.26-.58.05.21.21.37.26.58Zm-.07-2.69c-.08.03-.31-.27-.31-.49.19.13.25.31.31.49Zm.71,12.69c-.15,0-.19-.38-.34-.25-.06-.35.34.03.34.25Zm.33.69c-.12.04-.23-.3-.45-.44v-.22c.2.2.43.39.45.66Zm-.18-8.97c-.09-.15-.42-.59-.24-.59.06.2.23.37.24.59Zm.3-1.54c-.16-.12-.26-.26-.25-.43.16.12.26.26.25.43Zm.61,4.27c.07.17.17.34.24.51-.19-.17-.3-.14-.41-.45.11.1.03-.21.17-.06Zm.37,1.43c0,.12.02.24.06.35l-.12-.11s0,.08-.06.02c-.04-.4-.16-.05-.29-.2-.03-.16-.17-.29-.12-.48.23.27.33.24.52.41Zm.15-.94c0,.1.03.29-.05.24-.09-.32-.39-.56-.36-.92.24.3.2.53.41.68Zm-.47,21.83c0,.25-.13.11-.28-.06,0-.1-.01-.18-.04-.27.07-.03.26.17.32.34Zm.54-13.24c.15.19.22.42.22.66-.19-.16-.41-.11-.45-.51.2.15.35.25.23-.15Zm.37-6.15c-.12-.24-.05-.33.05-.31-.34-.4-.65-1.21-.54-1.52.12.59.49,1.19.77,1.52-.11-.06-.15.05-.17.21.13-.02.15,0,.29.27.02.16-.08.07-.11.11.21.08.11.12.23.37.04-.23.23.16.22.37-.09.04-.19-.25-.39-.39-.16-.46-.1-.52-.34-.62Zm.16-5.73c.04.38.42.53.53.71-.02.33-.18-.08-.4-.16.05-.17-.13-.25-.24-.37-.02-.19,0-.27.11-.19Zm.29,5.43c.08.29.2.57.29.87-.14-.17-.26-.36-.34-.55.1.1-.22-.53.05-.31Zm.34-2.95c-.07.03-.34-.2-.35-.4.1.14.34.23.35.4Zm.38-.58c-.18-.11-.17-.29-.35-.4.01.19.12.34-.05.24-.06-.21-.36-.72-.19-.76.21.24.49.47.59.92Zm-.32,5.18c-.08.16.32.53.11.48-.11-.17-.37-.61-.11-.48Zm.45-1.71c-.16-.24-.26-.51-.41-.75.09,0,.54.68.41.75Zm-.06-2.74c-.08-.08-.13-.08-.17-.09-.02-.17-.27-.65-.13-.63.03.26.31.44.3.72Zm.84,7.15c-.26-.37-.54-1.01-.79-1.51-.02.12-.02.3-.17.13.2-.16-.06-.29-.11-.7.21.2.3.39.45.22-.13.54.46,1.21.61,1.87Zm-1.4,19.51c-.03-.23-.29-.39-.24-.64.11.16.39.64.24.64Zm.89-12.84c-.04.16.01.29.16.39-.07.31-.55-.3-.6-.69.27.34.27.32.44.3Zm.22-12.51c-.25-.36-.35-.78-.54-1.16l.17.16c.07.35.29.65.36,1Zm-.16,7.24c-.1-.26-.42-.84-.28-.94.04.28.46.83.28.94Zm.29-.83c.03.38.28.69.33,1.07-.29-.33-.53-1.06-.5-1.24.01.13.12.17.17.17Zm.17-5.92c-.1-.09-.03.18-.11.11-.02-.19-.21-.33-.18-.53.14.13.28.25.29.42Zm.47,1.26c-.21-.18-.29-.4-.34-.63.13.2.31.39.34.63Zm-.24,4.6c.29.33.18.44.17.76-.1-.1-.18-.16-.23-.15v-.15c.19.08.16-.12.06-.46Zm.35-5.39c.12.36.39.66.4,1.06-.17-.33-.31-.16-.45-.44-.09-.37.26-.08.11-.34-.11-.07-.1.11-.28-.13,0-.21.13-.15.23-.15Zm.28,1.7c-.07,0-.15-.05-.28-.2.06-.22-.14-.35-.11-.56l.11.11c-.03.23.17.32.28.65Zm.26,5.91c-.13-.31-.76-1.06-.45-1.03.03.38.43.65.45,1.03Zm.34,2.09c-.13-.16-.23-.32-.27-.5.08-.03.28.28.27.5Zm.34-.03c-.1-.42-.72-1.34-.41-1.41.02.46.5,1.16.41,1.41Zm.21,2.5c-.17-.14-.22-.32-.27-.5.09-.03.25.3.27.5Zm.24-.58c-.09.44.26.75.31,1.15-.26-.16-.41-.93-.58-1.36.13.17.12-.01.28.21Zm.17.1c0,.43.39.35.43.82-.24-.32-.14-.16-.33-.27-.09-.19-.33-.7-.1-.56Zm.84,2.23c-.2-.16-.28-.36-.32-.56.11-.02.39.32.32.56Zm.38-5.02c-.24-.17-.24-.42-.32-.64.12.21.3.4.32.64Zm.06-.17c-.14-.11-.31-.59-.16-.54,0,.2.23.32.16.54Zm.08,1.08c-.1-.09-.04.22-.12.18-.14-.13-.24-.27-.21-.45.14.19.24-.09.33.27Zm.57-.25c-.06-.02-.26-.24-.34-.12.12.14.11.31.1.49-.21-.31-.52-.58-.54-.94.34.45.66-.09.78.58Zm-.64,6.91c-.17-.08-.29-.54-.14-.47.01.17.2.28.14.47Zm.6-5.8c-.15-.13-.24-.27-.21-.45.14.13.24.27.21.45Zm-.27,4.83c.14.3.4.87.29,1.01.18.21.2.71.42.68l-.02.29c-.17-.14-.16-.32-.27-.29-.07-.4-.14-.59-.36-.62-.05-.3.09-.09.12-.18l-.27-.29c.04-.37.25-.07.09-.61Zm.72,2.42c-.03.41-.46-.35-.42-.61.08.06.1-.02.17.03.18.42-.09.36.25.58Zm.47.67c.02.35-.21.05-.39-.11,0-.12-.13-.2-.1-.34.28.18.22.35.49.45Zm-.05,1.82c-.13-.18-.27-.36-.25-.58.18.17.25.36.25.58Zm-.46,20.62c.11.14.31.63.15.6.02-.19-.16-.39-.23-.37.01-.13.04-.21.09-.23Zm2.23-17.18c-.04.43-.61-.53-.35-.56.03.31.21.22.35.56Zm-1.86,18.22c.16.34.48,1.02.29,1.19-.05-.49-.21-.17-.35-.35.03-.27.17-.2.26-.26-.2-.18-.37-.54-.21-.59Zm.64,2.03c-.03-.18-.16-.34-.16-.53.17-.08.37.74.16.53Zm3.49-21.05c-.15-.2-.23-.43-.23-.67.21.19.22.43.23.67Zm.59,1.16c.29.12.12.32.19.53.09-.21.32.09.44.18-.01.36-.39-.33-.4.03.07.06.11,0,.22.16.04.1.08.54-.03.44-.03-.41-1.06-1.67-.51-1.47-.09-.27-.44-.85-.27-.95.17.13.47.88.37,1.07Zm.43.33c-.22-.31-.32-.65-.44-.98.2.31.42.62.44.98Zm-2.79,23.82c0,.3.44.89.24,1-.07-.31-.44-.86-.24-1Zm3.32-22.65c-.02.1,0,.29-.07.24-.03-.36-.11-.49-.3-.58.09-.25.23.12.37.34Zm.12,1.35c-.06.18.17.3.08.49-.13-.17-.26-.66-.08-.49Zm.45-.69c0,.19-.03.26-.13.18,0-.1.03-.2-.04-.28-.04-.06-.1-.12-.1-.19l.26.3Zm-2.94,25.29c-.07-.06-.11-.02-.2-.17.08-.18-.04-.32-.04-.48.15.21.28.42.24.65Zm3.37-22.21c-.07-.03.03.31.02.36.07.07.1-.02.17.03.14.35.02.5-.2.26-.09-.37-.24-.72-.29-1.09.15.24.26.32.3.44Zm-3.28,23.44l.05-.28c.19.18.13.58-.05.28Zm3.73-21.66c.11.19.2.39.17.61-.16-.18-.21-.39-.23-.6.03.03.06.06.06-.01Zm-2.49,24.51c0,.16.07.31.03.48-.06-.09-.19.1-.2-.18.11.12.14-.05.04-.21-.04.07-.1.08-.18.03.03-.14-.11-.26-.04-.41.17.32.18-.03.35.29Zm3.44-22.55c.04.31.36.93.24,1.03-.02-.21-.16-.4-.22-.6-.03.13.04.23.02.36-.11-.17-.25-.46-.36-.43.09-.18.2-.29.32-.36Zm-3.11,23.89c-.09-.09-.14,0-.26-.17.04-.17.26-.17.26.17Zm3.42-22.44c-.02.36-.16.36-.31.28.01-.1,0-.19-.03-.28.16.12.13-.32.34,0Zm-3.42,23.07c-.12-.14-.19-.29-.14-.46.12.14.19.29.14.46Zm3.79-22.21c-.15-.35-.31-.7-.35-1.08.16.38.23.44.33.72-.04-.03-.07,0-.07.09.06.08.12.17.09.27Zm.06.56c-.07-.07-.07.09-.12.1-.25-.35-.35-.74-.4-1.14.15.2.17.02.32.22.04.28.17.54.2.82Zm-3.23,23.28c-.15-.23-.28-.39-.35-.29.03-.21-.11-.4-.12-.6.28.35.07-.21.24-.04-.04.33.2.61.23.93Zm3.7-22.88c0,.15-.08.09-.09.23.05.06.07.01.11.05.02.31-.1.16-.22-.03,0-.1.04-.2-.02-.28-.02.07-.09-.02-.16-.11l.02-.22c.24.33.19.28.36.35Zm-.13,1.03c.14.21.13.45.2.68-.21-.2-.37-.62-.2-.68Zm.68,1.44c.08.2.21.39.21.6-.19-.15-.14-.36-.22-.53-.02.04-.02.14-.07.09.01-.1.04-.13.08-.16Zm.26,1.6c0-.24-.18-.44-.14-.69.13.17.3.7.14.69Zm-.1-.12c0,.07.03.14.09.2,0,.18-.05.26-.14.17,0-.12-.07-.23-.07-.34.06.08.06-.07.12-.02Zm.43,1.56c-.25-.33-.34-.7-.38-1.07.24.33.22.72.38,1.07Zm.38.14c-.24-.09-.34-.52-.41-.85.22.27.4.54.41.85Zm.12,1.76c-.03.08-.09.05-.09.23-.2-.27-.34-.55-.29-.87.12.35.3.65.38.64Zm1.55,3.94c-.13-.15.05.21-.04.29-.13-.1-.16-.58-.04-.49,0,.15.09.06.09.2Zm6.92,28.32c-.01.19.05.37-.02.57-.19-.27-.25-.54-.32-.82l.05-.22c.15.38.1.33.3.47Zm.25,2.31c.09-.32-.23-.7.04-.64-.04.17.13.69-.04.64Zm-4.95,27.6c-.27-.63,0,.67-.36,0,.11-.23.12-.17.11-.48.09.05.31.16.25.48Zm-.42-.68c.02-.09.07-.18.04-.27-.07-.1-.27.05-.26-.27.06-.05.15.11.2-.07.06.36.31.32.36.68-.1.08-.2.22-.33-.07Zm6.8-20.1c.12.21.1.42.12.63-.1.01-.12-.29-.28-.48.02-.25.12,0,.16-.15Zm-6.26,21.81c-.08.19-.19.07-.29.13.04-.18-.16-.36-.05-.55.17.19.15.23.34.41Zm6.38-20.34c0-.35-.18-.24-.14-.56.06-.07.35.63.14.56Zm-6.4,20.54c.08.14.1.27.04.41-.08-.07-.14-.14-.14-.27.05.07.08-.03.11-.13Zm9.71.04c.07-.26-.14-.52-.1-.78.18.22.26.8.1.78Zm.16,1.13c-.02-.35-.13-.71-.06-1.06.15.35.19.71.06,1.06Zm.18.5l-.14-.29.08-.21c.13.17.07.33.06.5Zm-3.86,22.5c-.1.22-.2.05-.3-.17-.08-.34-.07-.82-.21-1.34.04-.07.08-.2.12-.13.15.35.29,1.09.39,1.64Zm0,1.89c-.06.11-.12.17-.18.12-.01-.47-.1-.94-.09-1.41.12.43.17.85.27,1.29Zm5.14-11.43c-.12-.06-.26-.6-.21-.87.17.3.16.58.21.87Zm-4.92,13.56c-.14-.62-.19-1.14-.43-1.45l.13-.26c.05.42.43.94.3,1.72Zm5.95-8.49c.05.12.09.25.09.37-.14.36-.28-.26-.42.25-.03-.26-.17-.54-.03-.79,0,.47.2.61.36.17Zm-6.19,13.64c-.09.2-.16-.05-.24-.03.06-.16-.02-.33.11-.48.06.17.03.33.13.51Zm2.5-2.53c-.04.19.16.35.22.45-.07.29-.12.04-.18.12.01.07,0,.14-.04.21-.02-.35.01-.66-.19-.52,0-.17.11-.28.19-.26Zm2.91-2.54c.09-.16-.08-.34.05-.5.13.14.06.62-.05.5Zm-.07,2c-.08-.37-.16-.74-.05-1.08,0,.36.16.74.05,1.08Zm-.11,1.42c-.05-.2-.11-.4.02-.57.07.2.06.39-.02.57Zm.6-.06c-.1.18-.1.25,0,.29-.11.31-.21-.34-.1-.44.04.11.08.13.11.16Zm-1.96,12.58c-.11-.02-.14-.4-.12-.6.08.01.22.41.12.6Z" fill="#785afa" fill-rule="evenodd"/><path d="m525.96,293.41c-.09-.06.06.18-.05.1.62.6.76,1.38,1.24,2.03-.19-.63-.51-1.22-.83-1.81-.07-.05-.04.09-.05.17-.09-.17-.25-.31-.31-.49Z" fill="#785afa" fill-rule="evenodd"/><path d="m490.92,259.16c.09.21.36.28.5.46-.13-.18-.25-.37-.5-.46Z" fill="#785afa" fill-rule="evenodd"/><path d="m499.17,268.21c-.14-.11-.16-.06-.25-.09.04.11.17.16.27.23-.02.03-.04.07-.02.17.19.08.05-.14,0-.31Z" fill="#785afa" fill-rule="evenodd"/><path d="m496.34,257.65c-.22-.2.27.35.13.42.14.05.14-.04.22-.07-.13-.29-.22-.07-.34-.36Z" fill="#785afa" fill-rule="evenodd"/><path d="m497.81,262.2c-.15-.1-.2-.06-.15.1.07-.04.19.07.29.22.15.07-.12-.23-.14-.32Z" fill="#785afa" fill-rule="evenodd"/><path d="m497.9,261.15s.14.01.08-.14c-.17-.11-.26-.13-.33-.11.05.13.25.17.26.32.07.03.02-.05-.02-.07Z" fill="#785afa" fill-rule="evenodd"/><path d="m500.3,271.33c.02.27.16.1.26.16.17.12-.07.07.05.28.36.21.54.52.68.85.09.02.14,0,.23.02-.25-.2-.65-.69-.85-1.14-.21-.05-.29-.22-.38-.17Z" fill="#785afa" fill-rule="evenodd"/><path d="m498.05,260.21c.59.62.88,1.11,1.54,1.66-.02-.11-.16-.25-.05-.22-.14-.27-.15-.12-.38-.34.16-.04-.62-.85-.35-.69-.01-.21-.55-.4-.76-.41Z" fill="#785afa" fill-rule="evenodd"/><path d="m501.47,274.76c.01.23.46.87.75,1.2l-.75-1.2Z" fill="#785afa" fill-rule="evenodd"/><path d="m495.65,250.04c-.08.07-.21-.15-.44-.21.28.38.35.3.52.43.1.02-.06-.11-.08-.22Z" fill="#785afa" fill-rule="evenodd"/><path d="m499.18,261.64c.19.18.28.43.55.56-.04-.28-.37-.37-.55-.56Z" fill="#785afa" fill-rule="evenodd"/><path d="m502.37,273.26c-.15-.13-.07.08-.17.02.04.16.19.26.29.38.15.06-.21-.24-.12-.4Z" fill="#785afa" fill-rule="evenodd"/><path d="m499.39,256.56c.07.03.03-.06.03-.11.16.06.2.21.38.26-.15-.24-.29-.5-.61-.62.13.25.25.28.2.47Z" fill="#785afa" fill-rule="evenodd"/><path d="m502.92,263.74c.29.25.14.28.38.59.21.06.2.03.37.11-.24-.22-.6-.69-.75-.7Z" fill="#785afa" fill-rule="evenodd"/><path d="m506.15,279.93c.03-.16.23.28.3.15,0-.17-.25-.23-.22-.42-.08.11-.32-.18-.32.16.15.13.28.27.34.44.14.09-.09-.24-.1-.33Z" fill="#785afa" fill-rule="evenodd"/><path d="m506.68,281.03c.08.31.45.48.44.84.21.14-.03-.2.1-.12-.19-.24-.32-.5-.54-.71Z" fill="#785afa" fill-rule="evenodd"/><path d="m507.56,282.18c-.02-.13.06-.09.03-.24-.27-.3-.45-.64-.58-1-.19.17.33.64.29.99.26.13.29.36.3.61.25.32.31.29.58.55-.06-.13-.1-.24-.16-.37-.14-.14-.07.07-.17,0-.05-.05-.07-.12-.13-.16.01-.09.19.08.09-.19-.1-.15-.17-.2-.25-.18Z" fill="#785afa" fill-rule="evenodd"/><path d="m506.62,260.4c-.08-.03-.02.05.02.07.03.11.07.21-.01.18.05.11.19.17.3.24-.08-.18-.21-.33-.31-.49Z" fill="#785afa" fill-rule="evenodd"/><path d="m510.05,266.52c-.13-.06.34.89.67,1.11-.04-.1-.38-.43-.19-.39-.1-.27-.45-.41-.49-.72Z" fill="#785afa" fill-rule="evenodd"/><path d="m511.69,269.79c.12.28,0,.5.37.78.16-.18-.4-.68-.13-.74-.23-.24,0,.2-.24-.04Z" fill="#785afa" fill-rule="evenodd"/><path d="m514.99,283.65c-.18-.08.09.25.09.34.11.1.15,0,.19.15.05.06.06.02.05-.02v-.15c-.02.09-.38-.2-.2-.15-.03-.13-.1-.02-.13-.17Z" fill="#785afa" fill-rule="evenodd"/><path d="m515.78,276.76c-.1.05.25.56.34.78-.2,0,0,.56.05.76.14-.09.19-.33.27-.52-.3.09-.2-.41-.46-.81-.08.01-.15-.04-.2-.22Z" fill="#785afa" fill-rule="evenodd"/><path d="m516.49,279.02c-.06.14.34.73.46,1.04.2.14-.2-.45.02-.32-.1-.09-.4-.4-.48-.72Z" fill="#785afa" fill-rule="evenodd"/><path d="m516.56,278.2c-.22-.21-.08.07.02.15.02.13-.02.16-.1.12.03.11.12.2.15.32-.02-.14.11-.31.19.15.08.04.03-.15.03-.25-.16-.13-.25-.3-.29-.49Z" fill="#785afa" fill-rule="evenodd"/><path d="m518.23,281.42c-.03-.12-.12-.2-.15-.32-.2-.21-.1.11-.3-.1.12.2.19.17.45.42Z" fill="#785afa" fill-rule="evenodd"/><path d="m520.99,283.62c-.11.02-.08-.07-.25-.2.07.27-.21-.08-.09.27l.19.15c0-.15.02-.29.18.08.16.11-.09-.2-.03-.3Z" fill="#785afa" fill-rule="evenodd"/><path d="m521.55,289.07c-.05-.18-.09,0,0,.07-.03.06-.12.03-.23-.06.08.22.41.4.35.16-.07-.05-.11-.11-.13-.18Z" fill="#785afa" fill-rule="evenodd"/><path d="m521.78,297.7c.01.09.06.09.06.05.19.15.04.43.31.55.04-.26-.17-.43-.25-.65-.06-.04-.03.11-.11.04Z" fill="#785afa" fill-rule="evenodd"/><path d="m524.78,290.29c-.01-.3-.15-.55-.34-.78,0,.36.2.63.23.98.26.06.38.54.61.83-.04-.06-.32-1.02-.51-1.02Z" fill="#785afa" fill-rule="evenodd"/><path d="m524.99,291.2c.15.35.46.64.51,1.02.34-.06.43,1.03.81,1.44.05-.01.03-.17.11-.12-.16-.27-.44-.49-.39-.84-.31-.36-.43-.8-.63-1.2-.08-.05-.04.14-.04.25-.15-.17-.14-.4-.37-.54Z" fill="#785afa" fill-rule="evenodd"/><path d="m525.28,290.24c-.25.21.5,1.66.78,1.91-.28-.6-.84-1.42-.78-1.91Z" fill="#785afa" fill-rule="evenodd"/><path d="m527.36,295.16c.09.27.21.53.32.79.11-.05-.19-.58-.32-.79Z" fill="#785afa" fill-rule="evenodd"/><path d="m528.9,298.68c.08.45.52,1.42.84,2.03.03-.33-.27-.53-.13-.71-.23.03-.21-.54-.47-.74-.04-.27.28.11.11-.26-.09.17-.21,0-.35-.33Z" fill="#785afa" fill-rule="evenodd"/><path d="m529.12,298.45c-.15.06.23.57.3.8.17.1-.08-.26,0-.37-.22-.18-.22-.11-.29-.42Z" fill="#785afa" fill-rule="evenodd"/><path d="m529.81,300.84c.12.48.31.94.54,1.39.25-.33-.29-.98-.54-1.39Z" fill="#785afa" fill-rule="evenodd"/><path d="m532.7,307.93c.06.2.18.38.34.71v-.22c-.21-.13-.16-.34-.34-.48Z" fill="#785afa" fill-rule="evenodd"/><path d="m534.7,311.53l-.33-.34c.09.35.32.28.38.7.13.12-.06-.26-.05-.36Z" fill="#785afa" fill-rule="evenodd"/><path d="m536.13,315.38c-.22.2.3.35.15.77.05,0,.09.02.17.1.01-.32-.22-.57-.32-.86Z" fill="#785afa" fill-rule="evenodd"/><path d="m538.64,321.65c-.03-.18-.09-.01,0,.07-.02.14-.15,0-.23-.01.07.22.29.41.25.66.39.19.34.6.52.96.17.28.05-.19.22.09-.22-.35-.24-.76-.51-1.11,0-.14.07-.08.07-.24-.09.03-.25-.24-.32-.42Z" fill="#785afa" fill-rule="evenodd"/><path d="m542.42,332.55c-.01.39.39.68.35,1.08.07.06.06-.14.08-.23-.27-.25-.16-.59-.43-.84Z" fill="#785afa" fill-rule="evenodd"/><path d="m544.91,339.58c-.11.03.14.89.23.89-.07-.3-.22-.58-.23-.89Z" fill="#785afa" fill-rule="evenodd"/><path d="m546.35,346.48c.11.09.18.05.28.09-.02-.19-.11-.36-.22-.53-.06.15.08.27.12.41-.02.14-.19-.42-.18.03Z" fill="#785afa" fill-rule="evenodd"/><path d="m553.71,372.78c-.17-.02.06.51.02.71.03.07.05.03.06,0l.03-.14c-.12-.18-.06-.37-.11-.56Z" fill="#785afa" fill-rule="evenodd"/><path d="m547.38,398.1c.02.38.12.77.11,1.15.2.15.17.66.21,1.01.03.04.06,0,.1.07.01-.07.04-.04.06,0-.22-.74-.24-1.49-.47-2.23Z" fill="#785afa" fill-rule="evenodd"/><path d="m561.14,413.58c.1.38.15-.08.26.29.01-.07,0-.14.02-.21l-.07-.14c-.05.37-.16-.31-.2.06Z" fill="#785afa" fill-rule="evenodd"/><path d="m561.19,416.77c-.15.4.23-.04.17.36.12.13.09-.32-.03-.43-.04.16-.09.2-.15.07Z" fill="#785afa" fill-rule="evenodd"/><path d="m211.1,225.06c-11.7,0-25.39-3.17-36.2-11.09-10.35-7.57-16.55-18.55-17.95-31.73-3.96-37.26,28.57-52.73,46.32-55.71h0c15.2-2.54,32.83,1.51,44.92,10.35,10.12,7.4,16.41,17.94,18.21,30.49,4.55,31.81-19.72,51.66-44.19,56.63-3.33.68-7.1,1.05-11.1,1.05Zm-7.08-94.06c-16.3,2.73-46.18,16.87-42.58,50.77,1.28,12.05,6.71,21.66,16.13,28.55,13.4,9.82,31.61,11.72,43.74,9.26,17.32-3.53,45.37-18.35,40.62-51.57-1.64-11.48-7.16-20.73-16.4-27.49-11.15-8.14-27.43-11.89-41.5-9.53h0Z"/><path d="m171.79,183.9c1.39,20.19,22.21,32.3,48.85,27.11,29.73-5.79,34.71-26.33,32.68-39.37-2.04-13.04-17.46-28.33-44.76-24.15-25.97,3.97-37.95,19.05-36.76,36.4Z"/><path d="m197.03,176.36c2.25,3.05,4.48,15.92-1.99,14.77-1.13-.28-1.88-1.13-2.25-2.14-1.24-3.6-1.95-7.52-1.58-11.36.33-2.9,4.34-3.73,5.82-1.27h0Z" fill="#fff"/><path d="m232.07,170.1c2.23,3.81,2.7,8.25,1.79,12.52-.66,2.84-4.77,3.15-5.86.48-1.41-3.69-2.1-7.77-1.74-11.74.32-2.9,4.34-3.73,5.81-1.27h0Z" fill="#fff"/><path d="m208.01,180.41c2.35,1.72,5.67,1.99,7.95.1.79-.59,1.43-1.4,1.88-2.25.58-1.13,2.35-.51,2.12.72-.79,4.46-6.03,6.97-10.12,5.35-1.29-.48-4.87-2.28-3.28-3.95.43-.34,1.04-.31,1.44.03h0Z" fill="#ef3e2f"/><path d="m178.18,116.89c.04,2.74,17.91,7.21,21.12,6.84l-1.7-15.71s-19.46,5.72-19.42,8.87Z" fill="#ef3e2f"/><path d="m164.74,182.11c1.02,5.94.23,11.03-3.51,11.67-3.73.64-9.01-3.42-10.02-9.36-1.02-5.94,2.61-11.52,6.35-12.15,3.73-.64,6.16,3.91,7.17,9.85Z"/><path d="m204.89,136.29c-1.39-.14-2.54-1.23-2.7-2.67l-2.82-26.09c-.18-1.66,1.02-3.14,2.67-3.32s3.14,1.02,3.32,2.67l2.82,26.09c.18,1.66-1.02,3.14-2.67,3.32-.21.02-.42.02-.62,0Z"/><ellipse cx="216.33" cy="249.14" rx="32.18" ry="3.85" fill="#868d93"/><path d="m226.77,108.97c1.48,8.08,6.76,12.43,16.13,13.28,8.07.74,17.86,1.02,26.38.78l10.24,10.08c.42.41.98.63,1.55.63.22,0,.45-.03.67-.11.78-.25,1.36-.91,1.51-1.72l1.88-10.51c5.61-1.72,8.87-5.7,9.95-12.1,1.42-8.35,2.28-17.23,2.32-23.74.04-7.29-5.62-13.06-13.78-14.04-7.97-.96-23.78-2.67-40.19-3.36-10.77-.49-17.39,5.08-18.03,15.2-.42,6.66.27,19.59,1.37,25.62Zm39.57,4.3c-.26,1.34-.99,2.23-2.19,2.69-.91.34-1.85.37-2.82.08-1.06-.33-1.76-.97-2.12-1.91-.41-1.09-.47-2.21-.18-3.38.34-1.42,1.15-2.38,2.45-2.87,1.08-.41,2.09-.32,3,.26.73.49,1.27,1.19,1.61,2.1.37.97.45,1.98.24,3.03Zm2.8-18.87c-.08.12-1.05,1.55-2.9,4.27-1.19,1.73-2.03,3.22-2.52,4.48-.45,1.14-1.13,1.88-2.06,2.23s-1.83.31-2.77-.09c-.94-.4-1.57-1.04-1.89-1.9-.48-1.28,0-3.09,1.47-5.45,1.39-2.06,2.78-4.12,4.17-6.2,1.47-2.34,1.96-4.14,1.49-5.4-.56-1.48-1.84-2.59-3.84-3.32s-3.81-.79-5.44-.18c-.86.33-1.86,1.26-2.99,2.81-1.13,1.55-2.01,2.44-2.63,2.68-.94.36-1.87.31-2.78-.14-.91-.45-1.52-1.1-1.84-1.94-.6-1.6.24-3.58,2.54-5.96,1.93-2.03,3.68-3.33,5.25-3.92,3.46-1.31,7.08-1.21,10.85.28,3.76,1.5,6.27,3.9,7.52,7.2,1.24,3.27.7,6.8-1.62,10.57Z"/><path d="m256.5,165.68c-1.39-7.13-.58-13.29,3.9-14.16s10.95,3.88,12.33,11.01c1.39,7.13-2.83,13.95-7.32,14.82-4.48.87-7.53-4.54-8.92-11.67Z"/><path d="m279.76,139.38c1.77-.36,3.57.66,4.16,2.42,1.53,4.61.47,11.44-2.69,17.4-2.78,5.24-6.67,8.79-10.96,10.01-1.93.55-3.94-.58-4.48-2.51-.55-1.93.58-3.94,2.51-4.48,2.33-.66,4.71-3,6.52-6.42,2.46-4.64,2.97-9.4,2.21-11.71-.63-1.91.4-3.96,2.3-4.59.15-.05.29-.09.43-.12Z"/><path d="m272.68,131.56c.21-.04.43-.07.65-.07,2.01-.03,3.66,1.56,3.7,3.57.04,2.07,1.75,3.73,3.83,3.69,2.07-.03,3.73-1.76,3.69-3.83-.03-2.01,1.56-3.66,3.57-3.7,2.01-.03,3.66,1.56,3.7,3.57.1,6.07-4.74,11.1-10.83,11.22-6.08.11-11.11-4.75-11.22-10.83-.03-1.78,1.22-3.29,2.91-3.62Z"/><path d="m330.73,160.04h-3.43v-18.05h-6.18v-2.94h15.78v2.94h-6.18v18.05Z"/><path d="m351.8,152.07c0,2.6-.67,4.62-2,6.08-1.33,1.46-3.18,2.18-5.56,2.18-1.48,0-2.8-.33-3.94-1-1.14-.67-2.02-1.63-2.63-2.89-.61-1.25-.92-2.71-.92-4.37,0-2.58.66-4.59,1.98-6.03,1.32-1.45,3.18-2.17,5.59-2.17s4.12.74,5.46,2.22c1.34,1.48,2.01,3.47,2.01,5.98Zm-11.56,0c0,3.67,1.36,5.5,4.06,5.5s4.02-1.83,4.02-5.5-1.35-5.44-4.05-5.44c-1.42,0-2.44.47-3.08,1.41s-.96,2.28-.96,4.04Z"/><path d="m376.73,144.16v1.85l-2.71.5c.25.33.45.75.62,1.24.16.49.24,1,.24,1.55,0,1.64-.56,2.92-1.69,3.86s-2.69,1.41-4.67,1.41c-.51,0-.97-.04-1.38-.12-.73.45-1.09.98-1.09,1.58,0,.36.17.64.51.82s.96.27,1.88.27h2.77c1.75,0,3.08.37,3.99,1.12.91.75,1.36,1.82,1.36,3.23,0,1.8-.74,3.19-2.23,4.17s-3.63,1.46-6.43,1.46c-2.16,0-3.82-.38-4.96-1.15-1.14-.77-1.71-1.86-1.71-3.27,0-.98.31-1.8.93-2.46.62-.67,1.48-1.13,2.59-1.39-.45-.19-.82-.5-1.11-.93s-.44-.87-.44-1.34c0-.59.17-1.1.5-1.51.33-.41.83-.82,1.49-1.22-.82-.35-1.49-.93-2-1.73-.51-.8-.77-1.74-.77-2.81,0-1.72.54-3.06,1.63-4.01,1.09-.95,2.64-1.42,4.65-1.42.45,0,.92.03,1.42.09s.86.13,1.11.19h5.5Zm-12.48,18.36c0,.73.33,1.29.98,1.68.66.39,1.58.59,2.76.59,1.84,0,3.21-.26,4.11-.79.9-.53,1.35-1.23,1.35-2.1,0-.69-.25-1.18-.74-1.47s-1.41-.44-2.75-.44h-2.56c-.97,0-1.74.23-2.3.68-.57.45-.85,1.07-.85,1.85Zm1.45-13.21c0,1,.26,1.76.77,2.3.51.54,1.25.8,2.21.8,1.95,0,2.93-1.04,2.93-3.13,0-1.03-.24-1.83-.73-2.39-.48-.56-1.22-.84-2.2-.84s-1.72.28-2.22.83c-.5.56-.75,1.37-.75,2.43Z"/><path d="m386.61,160.33c-2.47,0-4.4-.72-5.79-2.16-1.39-1.44-2.09-3.43-2.09-5.95s.65-4.63,1.94-6.12c1.29-1.48,3.07-2.23,5.33-2.23,2.1,0,3.75.64,4.97,1.91,1.22,1.27,1.82,3.03,1.82,5.26v1.82h-10.59c.05,1.54.46,2.73,1.25,3.55.79.83,1.89,1.24,3.32,1.24.94,0,1.81-.09,2.62-.27.81-.18,1.68-.47,2.61-.88v2.74c-.82.39-1.66.67-2.5.83-.84.16-1.81.24-2.89.24Zm-.62-13.9c-1.07,0-1.93.34-2.58,1.02s-1.03,1.67-1.16,2.97h7.21c-.02-1.31-.33-2.3-.95-2.98-.61-.67-1.46-1.01-2.53-1.01Z"/><path d="m402.54,157.6c.82,0,1.65-.13,2.47-.39v2.54c-.37.16-.85.3-1.44.41s-1.2.17-1.83.17c-3.2,0-4.8-1.68-4.8-5.06v-8.56h-2.17v-1.49l2.33-1.24,1.15-3.36h2.08v3.53h4.52v2.56h-4.52v8.5c0,.81.2,1.42.61,1.8.41.39.94.58,1.6.58Z"/><path d="m426.49,155.52c0,1.55-.56,2.74-1.69,3.57s-2.75,1.24-4.85,1.24-3.82-.32-5.1-.96v-2.92c1.87.86,3.6,1.29,5.21,1.29,2.08,0,3.12-.63,3.12-1.88,0-.4-.12-.74-.34-1-.23-.27-.61-.55-1.13-.83-.53-.29-1.26-.61-2.2-.98-1.83-.71-3.07-1.42-3.71-2.13s-.97-1.63-.97-2.76c0-1.36.55-2.42,1.64-3.17s2.59-1.13,4.47-1.13,3.63.38,5.3,1.13l-1.09,2.54c-1.71-.71-3.16-1.06-4.32-1.06-1.78,0-2.67.51-2.67,1.52,0,.5.23.92.7,1.26.46.34,1.48.82,3.04,1.42,1.31.51,2.26.97,2.86,1.39.59.42,1.03.91,1.32,1.46s.43,1.21.43,1.97Z"/><path d="m436.06,157.6c.82,0,1.65-.13,2.47-.39v2.54c-.37.16-.85.3-1.44.41s-1.2.17-1.83.17c-3.2,0-4.8-1.68-4.8-5.06v-8.56h-2.17v-1.49l2.33-1.24,1.15-3.36h2.08v3.53h4.52v2.56h-4.52v8.5c0,.81.2,1.42.61,1.8.41.39.94.58,1.6.58Z"/><path d="m451.64,160.04l-.67-2.21h-.12c-.77.97-1.54,1.63-2.31,1.97-.78.35-1.77.52-2.99.52-1.56,0-2.78-.42-3.66-1.26-.88-.84-1.31-2.03-1.31-3.58,0-1.64.61-2.87,1.82-3.71,1.22-.83,3.07-1.29,5.56-1.36l2.74-.09v-.85c0-1.01-.24-1.77-.71-2.28-.47-.5-1.21-.75-2.2-.75-.81,0-1.59.12-2.34.36-.75.24-1.46.52-2.15.85l-1.09-2.41c.86-.45,1.8-.79,2.83-1.03s1.99-.35,2.9-.35c2.02,0,3.54.44,4.57,1.32s1.54,2.26,1.54,4.15v10.7h-2.41Zm-5.03-2.3c1.23,0,2.21-.34,2.95-1.03s1.11-1.64,1.11-2.88v-1.38l-2.04.09c-1.59.06-2.75.32-3.47.8-.72.47-1.08,1.2-1.08,2.18,0,.71.21,1.26.63,1.64.42.39,1.05.58,1.9.58Z"/><path d="m466.83,143.87c.68,0,1.24.05,1.68.14l-.33,3.15c-.48-.12-.98-.17-1.49-.17-1.35,0-2.44.44-3.28,1.32s-1.26,2.03-1.26,3.43v8.3h-3.38v-15.88h2.64l.45,2.8h.17c.53-.95,1.21-1.7,2.06-2.25.85-.56,1.76-.83,2.74-.83Z"/><path d="m477.37,157.6c.82,0,1.65-.13,2.47-.39v2.54c-.37.16-.85.3-1.44.41s-1.2.17-1.83.17c-3.2,0-4.8-1.68-4.8-5.06v-8.56h-2.17v-1.49l2.33-1.24,1.15-3.36h2.08v3.53h4.52v2.56h-4.52v8.5c0,.81.2,1.42.61,1.8.41.39.94.58,1.6.58Z"/><path d="m489.95,160.33c-2.47,0-4.4-.72-5.79-2.16-1.39-1.44-2.09-3.43-2.09-5.95s.65-4.63,1.94-6.12c1.29-1.48,3.07-2.23,5.33-2.23,2.1,0,3.75.64,4.97,1.91,1.22,1.27,1.82,3.03,1.82,5.26v1.82h-10.59c.05,1.54.46,2.73,1.25,3.55.79.83,1.89,1.24,3.32,1.24.94,0,1.81-.09,2.62-.27.81-.18,1.68-.47,2.61-.88v2.74c-.82.39-1.66.67-2.5.83-.84.16-1.81.24-2.89.24Zm-.62-13.9c-1.07,0-1.93.34-2.58,1.02s-1.03,1.67-1.16,2.97h7.21c-.02-1.31-.33-2.3-.95-2.98-.61-.67-1.46-1.01-2.53-1.01Z"/><path d="m505.32,160.33c-1.98,0-3.53-.72-4.64-2.15s-1.67-3.45-1.67-6.05.56-4.63,1.69-6.08c1.12-1.45,2.68-2.18,4.67-2.18s3.68.77,4.77,2.31h.17c-.16-1.14-.24-2.04-.24-2.7v-5.79h3.39v22.35h-2.64l-.59-2.08h-.16c-1.08,1.58-2.67,2.37-4.75,2.37Zm.9-2.73c1.39,0,2.4-.39,3.03-1.17.63-.78.96-2.05.98-3.8v-.47c0-2-.33-3.42-.98-4.27-.65-.84-1.67-1.26-3.06-1.26-1.19,0-2.1.48-2.74,1.44-.64.96-.96,2.33-.96,4.12s.31,3.1.93,4.03c.62.92,1.56,1.39,2.8,1.39Z"/><path d="m521.79,156.95c-.46,1.78-1.3,4.07-2.53,6.88h-2.48c.66-2.59,1.15-4.99,1.48-7.21h3.32l.21.33Z"/><path d="m341.53,190.19c-3.51,0-6.27,1.24-8.28,3.73-2.01,2.49-3.02,5.92-3.02,10.3s.97,8.05,2.9,10.4,4.73,3.53,8.4,3.53c1.58,0,3.12-.16,4.6-.47,1.48-.31,3.02-.72,4.63-1.21v5.24c-2.93,1.11-6.25,1.66-9.97,1.66-5.47,0-9.67-1.66-12.6-4.97-2.93-3.31-4.4-8.05-4.4-14.22,0-3.88.71-7.28,2.13-10.2,1.42-2.91,3.48-5.15,6.17-6.7,2.69-1.55,5.85-2.33,9.48-2.33,3.82,0,7.34.8,10.58,2.4l-2.2,5.09c-1.26-.6-2.59-1.12-4-1.57-1.41-.45-2.88-.68-4.43-.68Z"/><path d="m364.17,222.85h-6.01v-39.77h6.01v39.77Z"/><path d="m372.4,187.1c0-1.07.29-1.9.88-2.48s1.43-.87,2.52-.87,1.88.29,2.47.87.88,1.41.88,2.48-.29,1.83-.88,2.42c-.59.59-1.41.88-2.47.88s-1.93-.29-2.52-.88c-.59-.59-.88-1.39-.88-2.42Zm6.36,35.76h-6.01v-28.27h6.01v28.27Z"/><path d="m398.75,223.36c-4.28,0-7.53-1.25-9.75-3.74-2.22-2.5-3.34-6.08-3.34-10.75s1.16-8.41,3.49-10.96c2.33-2.56,5.69-3.83,10.08-3.83,2.98,0,5.67.55,8.05,1.66l-1.81,4.83c-2.54-.99-4.63-1.48-6.29-1.48-4.89,0-7.33,3.25-7.33,9.74,0,3.17.61,5.55,1.83,7.14s3,2.39,5.35,2.39c2.67,0,5.21-.67,7.59-1.99v5.24c-1.07.63-2.22,1.08-3.44,1.35-1.22.27-2.7.41-4.43.41Z"/><path d="m419.07,207.93l3.4-4.24,8.54-9.1h6.93l-11.37,12.14,12.09,16.13h-7.05l-9.07-12.4-3.3,2.71v9.69h-5.96v-39.77h5.96v19.4l-.31,5.44h.15Z"/><path d="m465.13,206.68h-10.17v-4.55h10.17v-10.43h4.6v10.43h10.2v4.55h-10.2v10.38h-4.6v-10.38Z" fill="#785afa"/><path d="m510.8,218.51c1.47,0,2.93-.23,4.4-.69v4.52c-.67.29-1.52.53-2.57.73-1.05.2-2.13.29-3.26.29-5.69,0-8.54-3-8.54-9v-15.23h-3.86v-2.66l4.14-2.2,2.04-5.98h3.71v6.29h8.05v4.55h-8.05v15.13c0,1.45.36,2.52,1.09,3.21s1.67,1.04,2.85,1.04Z"/><path d="m545.92,208.67c0,4.62-1.18,8.22-3.55,10.81-2.37,2.59-5.67,3.88-9.89,3.88-2.64,0-4.98-.6-7-1.79-2.03-1.19-3.59-2.9-4.68-5.14-1.09-2.23-1.64-4.82-1.64-7.77,0-4.58,1.18-8.16,3.53-10.73,2.35-2.57,5.67-3.86,9.94-3.86s7.33,1.32,9.71,3.95c2.38,2.63,3.58,6.18,3.58,10.64Zm-20.57,0c0,6.53,2.41,9.79,7.23,9.79s7.16-3.26,7.16-9.79-2.4-9.69-7.21-9.69c-2.52,0-4.35.83-5.48,2.5s-1.7,4.06-1.7,7.18Z"/><path d="m584.1,222.85l-1.2-3.94h-.2c-1.36,1.72-2.73,2.89-4.12,3.51-1.38.62-3.15.93-5.32.93-2.78,0-4.95-.75-6.5-2.25-1.56-1.5-2.34-3.62-2.34-6.36,0-2.91,1.08-5.11,3.25-6.59,2.16-1.48,5.46-2.29,9.89-2.43l4.88-.15v-1.51c0-1.81-.42-3.16-1.26-4.05-.84-.89-2.15-1.34-3.92-1.34-1.45,0-2.84.21-4.17.64-1.33.43-2.61.93-3.83,1.51l-1.94-4.29c1.53-.8,3.21-1.41,5.04-1.83,1.82-.42,3.54-.63,5.16-.63,3.59,0,6.31.78,8.14,2.35,1.83,1.57,2.75,4.03,2.75,7.39v19.04h-4.29Zm-8.95-4.09c2.18,0,3.93-.61,5.25-1.83,1.32-1.22,1.98-2.93,1.98-5.12v-2.45l-3.63.15c-2.83.1-4.89.57-6.17,1.42s-1.93,2.13-1.93,3.87c0,1.26.38,2.24,1.12,2.93.75.69,1.87,1.04,3.37,1.04Z"/><path d="m606.31,223.36c-3.53,0-6.28-1.28-8.26-3.83s-2.96-6.14-2.96-10.76,1-8.24,3-10.82c2-2.58,4.77-3.87,8.32-3.87s6.54,1.37,8.49,4.12h.31c-.29-2.03-.43-3.63-.43-4.81v-10.3h6.03v39.77h-4.7l-1.05-3.71h-.28c-1.92,2.81-4.75,4.22-8.46,4.22Zm1.61-4.86c2.47,0,4.27-.69,5.39-2.08,1.12-1.39,1.7-3.64,1.74-6.76v-.84c0-3.56-.58-6.09-1.74-7.59-1.16-1.5-2.97-2.25-5.44-2.25-2.11,0-3.74.86-4.88,2.57-1.14,1.71-1.71,4.15-1.71,7.32s.55,5.53,1.66,7.17c1.11,1.64,2.77,2.47,4.98,2.47Z"/><path d="m638.92,223.36c-3.53,0-6.28-1.28-8.26-3.83s-2.96-6.14-2.96-10.76,1-8.24,3-10.82c2-2.58,4.77-3.87,8.32-3.87s6.54,1.37,8.49,4.12h.31c-.29-2.03-.43-3.63-.43-4.81v-10.3h6.03v39.77h-4.7l-1.05-3.71h-.28c-1.92,2.81-4.75,4.22-8.46,4.22Zm1.61-4.86c2.47,0,4.27-.69,5.39-2.08,1.12-1.39,1.7-3.64,1.74-6.76v-.84c0-3.56-.58-6.09-1.74-7.59-1.16-1.5-2.97-2.25-5.44-2.25-2.11,0-3.74.86-4.88,2.57-1.14,1.71-1.71,4.15-1.71,7.32s.55,5.53,1.66,7.17c1.11,1.64,2.77,2.47,4.98,2.47Z"/><path d="m687.94,223.36c-4.4,0-7.83-1.28-10.31-3.85-2.48-2.56-3.72-6.1-3.72-10.59s1.15-8.25,3.45-10.89c2.3-2.64,5.46-3.96,9.48-3.96,3.73,0,6.68,1.13,8.84,3.4,2.16,2.27,3.25,5.38,3.25,9.35v3.25h-18.84c.08,2.74.83,4.85,2.22,6.33,1.4,1.47,3.36,2.21,5.9,2.21,1.67,0,3.22-.16,4.67-.47,1.44-.31,2.99-.84,4.64-1.57v4.88c-1.47.7-2.95,1.19-4.45,1.48-1.5.29-3.21.43-5.14.43Zm-1.1-24.74c-1.91,0-3.44.6-4.59,1.81-1.15,1.21-1.84,2.97-2.06,5.29h12.83c-.04-2.33-.6-4.1-1.69-5.3-1.09-1.2-2.59-1.8-4.5-1.8Z"/><path d="m711.15,222.85l-10.73-28.27h6.34l5.75,16.43c.99,2.76,1.58,4.99,1.79,6.7h.2c.15-1.23.75-3.46,1.79-6.7l5.75-16.43h6.39l-10.79,28.27h-6.49Z"/><path d="m745.06,223.36c-4.4,0-7.83-1.28-10.31-3.85-2.48-2.56-3.72-6.1-3.72-10.59s1.15-8.25,3.45-10.89c2.3-2.64,5.46-3.96,9.48-3.96,3.73,0,6.68,1.13,8.84,3.4,2.16,2.27,3.25,5.38,3.25,9.35v3.25h-18.84c.08,2.74.83,4.85,2.22,6.33,1.4,1.47,3.36,2.21,5.9,2.21,1.67,0,3.22-.16,4.67-.47,1.44-.31,2.99-.84,4.64-1.57v4.88c-1.47.7-2.95,1.19-4.45,1.48-1.5.29-3.21.43-5.14.43Zm-1.1-24.74c-1.91,0-3.44.6-4.59,1.81-1.15,1.21-1.84,2.97-2.06,5.29h12.83c-.04-2.33-.6-4.1-1.69-5.3-1.09-1.2-2.59-1.8-4.5-1.8Z"/><path d="m787.74,222.85h-6.03v-17.38c0-2.18-.44-3.81-1.32-4.88s-2.27-1.61-4.18-1.61c-2.54,0-4.4.75-5.57,2.25-1.18,1.5-1.76,4.01-1.76,7.54v14.08h-6.01v-28.27h4.7l.84,3.71h.31c.85-1.35,2.06-2.38,3.63-3.12,1.57-.73,3.31-1.1,5.21-1.1,6.78,0,10.17,3.45,10.17,10.35v18.43Z"/><path d="m806.63,218.51c1.47,0,2.93-.23,4.4-.69v4.52c-.67.29-1.52.53-2.57.73-1.05.2-2.13.29-3.26.29-5.69,0-8.54-3-8.54-9v-15.23h-3.86v-2.66l4.14-2.2,2.04-5.98h3.71v6.29h8.05v4.55h-8.05v15.13c0,1.45.36,2.52,1.09,3.21s1.67,1.04,2.85,1.04Z"/><path d="m835.67,214.8c0,2.76-1.01,4.88-3.02,6.35-2.01,1.47-4.89,2.21-8.64,2.21s-6.79-.57-9.07-1.71v-5.19c3.32,1.53,6.42,2.3,9.28,2.3,3.7,0,5.55-1.12,5.55-3.35,0-.72-.2-1.31-.61-1.79-.41-.48-1.08-.97-2.02-1.48-.94-.51-2.24-1.09-3.91-1.74-3.25-1.26-5.46-2.52-6.61-3.78-1.15-1.26-1.72-2.9-1.72-4.91,0-2.42.97-4.3,2.93-5.63,1.95-1.34,4.6-2.01,7.96-2.01s6.47.67,9.43,2.02l-1.94,4.52c-3.05-1.26-5.61-1.89-7.69-1.89-3.17,0-4.75.9-4.75,2.71,0,.89.41,1.64,1.24,2.25.83.61,2.63,1.46,5.41,2.53,2.33.9,4.03,1.73,5.09,2.48,1.06.75,1.84,1.61,2.35,2.59.51.98.77,2.15.77,3.51Z"/></svg>