<?xml version="1.0" encoding="UTF-8"?>
<svg id="Layer_1" data-name="Layer 1" xmlns="http://www.w3.org/2000/svg" viewBox="0 0 146.6 145.43">
  <defs>
    <style>
      .cls-1 {
        fill: #f7f7f7;
      }

      .cls-2 {
        fill: #ef3e2f;
      }

      .cls-3 {
        fill: #868d93;
      }
    </style>
  </defs>
  <ellipse class="cls-3" cx="90.01" cy="140.09" rx="25.91" ry="1.63"/>
  <g>
    <path class="cls-1" d="m108.94,45.57c.54.37,25.12,16.6,25.02,16.84-1.94,3.43-2.85,4.89-4.81,4.35-8.14-8.63-18.83-14.7-21.85-14.66-1.7-1.42,1.38-6.64,1.64-6.53h0Z"/>
    <path class="cls-1" d="m109.03,44.21s2.47-6.61,3.6-7.41c11.01-7.98,25.58.52,25.66,14.84.04,2.99-3.73,9.62-4.05,9.2-.41-.45-22.56-15.1-25.21-16.64h0Z"/>
    <path class="cls-1" d="m35.52,83.75c.01-.28,6.05-.81,6.6,1.33-1.33,2.71-.45,14.97,3.83,26.03-.36,2.01-2.07,2.2-6,2.47-.26-.01-4.33-29.18-4.43-29.83h0Z"/>
    <path class="cls-1" d="m34.25,83.25c.24,3.05,3.93,29.35,4.17,29.91.24.47-7.37,1.02-10.05-.3-12.89-6.24-14.3-23.04-2.36-29.55,1.21-.68,8.23-.06,8.23-.06h0Z"/>
  </g>
  <path class="cls-1" d="m32.67,15.86C15.18,28.52-5.51,59.64,19.13,98.75l4.57-2.92C1.28,60.23,25.92,43.5,41.95,31.82c13.83-10.09,33.38-14.6,49.82-11.52,13.63,2.56,24.62,9.86,32.67,21.69l4.46-3.08c-8.8-12.93-60.05-49.23-96.22-23.05Z"/>
  <g>
    <path class="cls-1" d="m130.06,89.03c-1.35-9.43-6.08-17.35-13.68-22.91-8.26-6.04-19.97-9.09-30.61-8.16l.36,3.37c9.84-.86,20.64,1.96,28.25,7.52,6.94,5.08,11.09,12.03,12.32,20.65,3.57,24.96-17.5,36.09-30.51,38.74-9.11,1.85-22.79.42-32.86-6.96-7.08-5.18-11.16-12.4-12.12-21.45-2.59-24.43,17.94-35.19,30.43-37.84l-.37-3.39c-13.56,2.77-36.32,14.53-33.44,41.6,1.05,9.9,5.72,18.14,13.49,23.83,8.12,5.95,18.41,8.33,27.2,8.33,3.01,0,5.84-.28,8.34-.79,18.39-3.74,36.62-18.65,33.2-42.55Z"/>
    <path class="cls-2" d="m58.99,101.44c1.04,15.17,16.68,24.26,36.7,20.36,22.33-4.35,26.08-19.78,24.55-29.57-1.53-9.8-13.11-21.28-33.63-18.14-19.51,2.98-28.51,14.31-27.62,27.35Zm28.23-6.94c.29-.19.66-.22.98-.08l10.13,4.99c.3.16.5.46.52.79.03.34-.12.66-.39.87v.06s-9.17,6.59-9.17,6.59c-.14.1-.31.17-.49.18-.17.01-.34-.01-.49-.08-.32-.16-.54-.49-.56-.85l-.96-11.58c-.03-.35.13-.68.41-.89Zm-14.93,14.66c-.85-.21-1.41-.85-1.69-1.61-.94-2.71-1.47-5.65-1.19-8.53.25-2.18,3.26-2.81,4.37-.95,1.69,2.29,3.37,11.96-1.5,11.1Zm38.17-8.39c-.49,2.13-3.58,2.36-4.4.36-1.06-2.77-1.58-5.84-1.31-8.82.24-2.18,3.26-2.81,4.37-.95,1.67,2.86,2.03,6.2,1.34,9.41Z"/>
    <path class="cls-2" d="m79.66,56.24l-1.27-11.8s-15.5,6.11-15.47,8.47c.03,2.06,14.34,3.6,16.74,3.33Z"/>
    <path class="cls-1" d="m81.83,63.67c.12,1.08.98,1.91,2.03,2.01.15.01.31.01.47,0,1.25-.14,2.14-1.25,2.01-2.5l-2.12-19.6c-.14-1.25-1.25-2.15-2.5-2.01-1.25.14-2.14,1.25-2.01,2.5l2.12,19.6Z"/>
  </g>
</svg>