<?xml version="1.0" encoding="UTF-8"?>
<svg id="Layer_1" data-name="Layer 1" xmlns="http://www.w3.org/2000/svg" viewBox="0 0 128 128">
  <defs>
    <style>
      .cls-1 {
        fill: #f7f7f7;
      }

      .cls-2 {
        fill: #ef3e2f;
      }
    </style>
  </defs>
  <g>
    <path class="cls-1" d="m57.32,119.4c-7.37-.92-15.75-3.99-21.95-9.82-5.93-5.58-8.98-12.99-8.83-21.4.42-23.79,22.14-31,33.56-31.48h0c9.78-.41,20.57,3.52,27.5,10.04,5.8,5.45,8.94,12.59,9.09,20.64.38,20.41-16.47,31.01-32.29,32.23-2.15.17-4.55.11-7.08-.21Zm2.9-59.84c-10.49.45-30.42,7.01-30.81,28.67-.14,7.69,2.53,14.17,7.93,19.26,7.68,7.23,19.01,9.86,26.84,9.26,11.19-.87,30.03-8.01,29.63-29.32-.14-7.36-2.89-13.63-8.18-18.61-6.39-6.01-16.36-9.64-25.41-9.26h0Z"/>
    <path class="cls-1" d="m88.11,89.03c-.26-8.38-8.78-19.22-26.32-18.72-16.68.47-25.41,9.03-26.02,20.07-.71,12.84,11.47,22.09,28.66,20.91,19.19-1.32,23.94-13.88,23.68-22.25Zm-38.26,7.72c-.69-.26-1.1-.86-1.25-1.53-.5-2.37-.64-4.89-.11-7.28.43-1.8,3.03-2.01,3.77-.35,1.18,2.1,1.58,10.39-2.41,9.15Zm25.13-2.33c-.64,1.74-3.25,1.61-3.73-.15-.6-2.44-.72-5.06-.18-7.53.43-1.8,3.03-2.01,3.76-.35,1.11,2.58,1.06,5.41.15,8.03Z"/>
    <path class="cls-2" d="m58.87,91.02c1.34,1.27,3.42,1.7,5.01.69.55-.31,1.01-.77,1.36-1.27.46-.66,1.52-.14,1.28.62-.84,2.75-4.34,3.92-6.79,2.58-.78-.4-2.89-1.82-1.76-2.75.3-.18.68-.12.91.13h0Z"/>
    <path class="cls-2" d="m46.72,47.44c-.19,1.73,10.73,5.94,12.77,5.96l.16-10.03s-12.71,2.08-12.93,4.07Z"/>
    <path class="cls-1" d="m60.36,62.96c-.86-.2-1.51-.98-1.49-1.9l.27-16.66c.02-1.06.89-1.9,1.94-1.88s1.9.89,1.88,1.94l-.27,16.66c-.02,1.06-.89,1.9-1.94,1.88-.13,0-.27-.02-.39-.05Z"/>
  </g>
  <g>
    <path class="cls-1" d="m93.67,40.46c-4.01.5-8.85,0-12.9-2.24-3.88-2.15-6.48-5.65-7.53-10.11-2.97-12.61,7.53-19.33,13.49-21.11h0c5.11-1.53,11.33-.9,15.86,1.61,3.79,2.1,6.41,5.45,7.56,9.68,2.94,10.72-4.54,18.58-12.72,21.34-1.11.38-2.39.67-3.76.84Zm-6.49-31.97c-5.48,1.64-15.12,7.78-12.42,19.26.96,4.08,3.24,7.14,6.77,9.1,5.02,2.79,11.35,2.66,15.41,1.29,5.79-1.96,14.78-8.25,11.71-19.45-1.06-3.87-3.35-6.81-6.81-8.72-4.18-2.31-9.93-2.9-14.65-1.48h0Z"/>
    <path class="cls-1" d="m89.45,13.95c-8.74,2.48-12.2,8.17-11.05,14.08,1.35,6.87,9.01,10.12,17.93,7.19,9.95-3.27,10.78-10.53,9.51-14.92-1.26-4.39-7.21-8.97-16.4-6.35Zm-5.86,13.11c.05-.4.31-.69.64-.86,1.18-.58,2.49-.99,3.83-1.03,1.01-.01,1.47,1.33.69,1.94-.95.9-5.27,2.22-5.15-.05Zm9.96.26c-1.57-.08-2.65-1.77-2.27-3.24.11-.46.57-1.77,1.21-1.29.14.13.15.34.05.5-.49.88-.44,2.03.31,2.73.24.25.54.43.85.55.41.15.28.78-.16.76Zm6.4-5.77c1,.1,1.29,1.5.42,1.99-1.21.64-2.58,1.06-3.95,1.1-1.01.02-1.47-1.33-.69-1.94,1.21-.93,2.71-1.28,4.22-1.15Z"/>
    <path class="cls-1" d="m75.91,27.72c.6,2,.55,3.78-.7,4.16-1.25.38-3.24-.78-3.84-2.78-.6-2,.4-4.07,1.65-4.44s2.28,1.07,2.89,3.07Z"/>
    <path class="cls-1" d="m107.31,18.21c.64,1.98,1.7,3.42,2.95,3.01,1.25-.41,2.21-2.5,1.56-4.48-.64-1.98-2.65-3.11-3.9-2.7-1.24.41-1.26,2.19-.61,4.17Z"/>
  </g>
  <g>
    <path class="cls-1" d="m24.72,41.73c-3.91-1.04-8.2-3.33-11.11-6.94-2.78-3.45-3.87-7.68-3.17-12.2,2-12.8,14.26-15.07,20.45-14.48h0c5.31.51,10.83,3.44,14.08,7.47,2.72,3.38,3.88,7.46,3.36,11.82-1.32,11.04-11.2,15.5-19.82,14.98-1.17-.07-2.46-.28-3.8-.64Zm6.04-32.06c-5.69-.54-16.94,1.51-18.76,13.16-.65,4.14.31,7.83,2.84,10.98,3.6,4.48,9.52,6.74,13.79,7,6.1.37,16.8-2.08,18.18-13.6.48-3.98-.54-7.57-3.03-10.65-3-3.72-8.1-6.42-13.02-6.89h0Z"/>
    <path class="cls-1" d="m30.8,15.59c-9.03-.99-14.38,2.98-15.54,8.88-1.34,6.87,4.54,12.77,13.9,13.42,10.45.72,13.95-5.7,14.43-10.24.48-4.54-3.3-11.02-12.8-12.06Zm-8.42,13.37c-.35-.19-.53-.54-.56-.92-.09-1.32.02-2.69.49-3.94.37-.94,1.78-.86,2.06.09.48,1.22.08,5.72-1.98,4.76Zm13.73.62c-.47.89-1.87.62-2-.36-.14-1.36,0-2.78.47-4.08.37-.94,1.78-.86,2.06.09.4,1.47.17,3-.52,4.34Zm-6.92,4.64c-.47.89-1.87.62-2-.36-.14-1.36,0-2.78.47-4.08.37-.94,1.78-.86,2.06.09.4,1.47.17,3-.52,4.34Z"/>
    <path class="cls-1" d="m13.07,23.24c-.19,2.08-.91,3.71-2.21,3.59-1.3-.12-2.7-1.95-2.51-4.02.19-2.08,1.9-3.62,3.21-3.49s1.71,1.85,1.52,3.93Z"/>
    <path class="cls-1" d="m45.75,26.27c-.15,2.08.29,3.81,1.6,3.9,1.31.09,2.99-1.48,3.13-3.56.15-2.08-1.29-3.88-2.59-3.97-1.31-.09-1.99,1.55-2.14,3.63Z"/>
  </g>
  <g>
    <path class="cls-1" d="m98.07,51c1.31-.57,2.87-.08,3.62,1.18,1.95,3.31,2.26,8.77.8,13.91-1.28,4.51-3.7,7.91-6.82,9.56-1.4.75-3.14.21-3.88-1.2-.74-1.4-.21-3.14,1.2-3.88,1.7-.89,3.15-3.1,3.98-6.05,1.14-4,.74-7.77-.23-9.43-.8-1.37-.35-3.13,1.02-3.93.1-.06.21-.12.32-.16Z"/>
    <path class="cls-1" d="m87.82,76.74c1.51,3.57,3.7,6.06,5.95,5.11,2.25-.95,3.7-4.98,2.18-8.55-1.51-3.57-5.41-5.34-7.66-4.39-2.24.95-1.98,4.25-.47,7.83Z"/>
    <path class="cls-1" d="m90.16,43.96c.16-.07.32-.12.49-.16,1.55-.36,3.09.6,3.45,2.15.37,1.6,1.97,2.6,3.57,2.22,1.59-.36,2.6-1.98,2.22-3.57-.36-1.55.6-3.09,2.15-3.45,1.55-.36,3.09.6,3.45,2.15,1.09,4.68-1.83,9.37-6.52,10.47-4.68,1.09-9.38-1.83-10.47-6.52-.32-1.37.4-2.74,1.65-3.29Z"/>
  </g>
  <g>
    <path class="cls-1" d="m113.02,108.6c.89,1.12.83,2.75-.19,3.8-2.69,2.75-7.87,4.48-13.21,4.42-4.69-.05-8.6-1.5-11.01-4.08-1.09-1.15-1.02-2.98.14-4.06,1.16-1.08,2.98-1.02,4.06.14,1.31,1.4,3.82,2.22,6.88,2.26,4.15.05,7.69-1.32,9.04-2.69,1.11-1.14,2.93-1.15,4.06-.04.09.08.17.17.24.26Z"/>
    <path class="cls-1" d="m85.49,105.46c-3.05,2.39-4.88,5.16-3.37,7.08,1.51,1.92,5.77,2.26,8.83-.14,3.05-2.39,3.73-6.62,2.22-8.54-1.5-1.91-4.63-.8-7.68,1.6Z"/>
    <path class="cls-1" d="m117.74,99.13c.11.13.2.28.29.43.75,1.4.23,3.14-1.17,3.89-1.45.78-1.99,2.59-1.21,4.03.77,1.44,2.59,1.99,4.03,1.21,1.4-.75,3.14-.23,3.89,1.17.75,1.4.23,3.14-1.17,3.89-4.23,2.28-9.53.69-11.82-3.54-2.28-4.23-.69-9.53,3.54-11.82,1.24-.67,2.75-.33,3.6.73Z"/>
  </g>
  <g>
    <path class="cls-1" d="m22.92,52.61c1.37.8,1.83,2.56,1.02,3.93-.97,1.66-1.37,5.43-.23,9.43.84,2.95,2.29,5.15,3.98,6.05,1.4.74,1.94,2.48,1.2,3.88-.74,1.4-2.48,1.94-3.88,1.2-3.12-1.65-5.54-5.05-6.82-9.56-1.46-5.14-1.14-10.59.8-13.91.74-1.26,2.3-1.75,3.62-1.18.11.05.21.1.32.16Z"/>
    <path class="cls-1" d="m32.86,78.19c-1.51,3.57-3.7,6.06-5.95,5.11-2.25-.95-3.7-4.98-2.18-8.55,1.51-3.57,5.41-5.34,7.66-4.39,2.24.95,1.98,4.25.47,7.83Z"/>
    <path class="cls-1" d="m32.17,48.7c-1.09,4.68-5.79,7.61-10.47,6.52-4.69-1.1-7.6-5.79-6.52-10.47.36-1.54,1.91-2.51,3.45-2.15,1.54.36,2.51,1.91,2.15,3.45-.37,1.6.63,3.21,2.22,3.57,1.6.37,3.2-.62,3.57-2.22.36-1.55,1.91-2.51,3.45-2.15.17.04.34.09.49.16,1.25.54,1.97,1.91,1.65,3.29Z"/>
  </g>
</svg>