<?xml version="1.0" encoding="UTF-8"?>
<svg id="Layer_1" data-name="Layer 1" xmlns="http://www.w3.org/2000/svg" viewBox="0 0 139.35 118.05">
  <defs>
    <style>
      .cls-1 {
        fill: #f7f7f7;
      }

      .cls-2 {
        fill: #ef3e2f;
      }
    </style>
  </defs>
  <g>
    <path class="cls-1" d="m72.27,82.85c-7.53,0-16.34-2.04-23.3-7.14-6.66-4.87-10.65-11.94-11.55-20.42-2.55-23.98,18.39-33.94,29.81-35.85h0c9.78-1.64,21.13.97,28.91,6.66,6.51,4.76,10.56,11.55,11.72,19.63,2.93,20.47-12.69,33.25-28.44,36.45-2.14.44-4.57.67-7.14.67Zm-4.55-60.54c-10.49,1.76-29.72,10.85-27.41,32.68.82,7.76,4.32,13.94,10.38,18.38,8.62,6.32,20.35,7.54,28.15,5.96,11.15-2.27,29.2-11.81,26.14-33.19-1.06-7.39-4.61-13.34-10.56-17.69-7.18-5.24-17.66-7.65-26.71-6.14h0Z"/>
    <path class="cls-1" d="m98.84,45.51c-1.31-8.39-11.23-18.23-28.81-15.54-16.71,2.56-24.43,12.26-23.66,23.43.89,13,14.29,20.79,31.44,17.45,19.13-3.73,22.34-16.94,21.03-25.34Zm-37.51,12.55c-.73-.18-1.21-.73-1.45-1.38-.8-2.32-1.26-4.84-1.02-7.31.21-1.87,2.8-2.4,3.74-.82,1.45,1.97,2.88,10.25-1.28,9.51Zm24.99-5.48c-.42,1.83-3.07,2.02-3.77.31-.91-2.37-1.35-5-1.12-7.55.21-1.87,2.79-2.4,3.74-.82,1.43,2.45,1.74,5.31,1.15,8.06Z"/>
    <path class="cls-2" d="m70.28,54.11c1.51,1.11,3.65,1.28,5.12.07.51-.38.92-.9,1.21-1.45.38-.73,1.51-.33,1.36.46-.51,2.87-3.88,4.48-6.51,3.45-.83-.31-3.14-1.47-2.11-2.54.28-.22.67-.2.93.02h0Z"/>
    <path class="cls-2" d="m52.62,11.81c.03,1.76,11.53,4.64,13.59,4.4l-1.09-10.11s-12.52,3.68-12.5,5.71Z"/>
    <path class="cls-1" d="m68.27,25.72c-.89-.09-1.64-.79-1.74-1.72l-1.81-16.79c-.11-1.07.65-2.02,1.72-2.14s2.02.65,2.14,1.72l1.81,16.79c.11,1.07-.65,2.02-1.72,2.14-.13.01-.27.01-.4,0Z"/>
  </g>
  <g>
    <path class="cls-1" d="m118.04,21.92c1.4-.28,2.83.52,3.29,1.91,1.21,3.65.37,9.05-2.13,13.77-2.2,4.14-5.28,6.96-8.67,7.92-1.52.44-3.12-.46-3.55-1.98-.43-1.53.46-3.12,1.98-3.55,1.84-.52,3.73-2.37,5.16-5.08,1.95-3.67,2.35-7.44,1.75-9.27-.5-1.51.32-3.13,1.82-3.63.12-.04.23-.07.34-.09Z"/>
    <path class="cls-1" d="m102.63,44.94c.73,3.81,2.35,6.7,4.75,6.24,2.4-.46,4.66-4.09,3.92-7.91-.73-3.81-4.17-6.35-6.57-5.89-2.39.46-2.83,3.74-2.1,7.56Z"/>
    <path class="cls-1" d="m111.78,13.38c.17-.03.34-.05.52-.06,1.59-.03,2.9,1.24,2.93,2.82.03,1.64,1.39,2.95,3.03,2.92,1.63-.02,2.95-1.39,2.92-3.03-.03-1.59,1.24-2.89,2.82-2.93,1.59-.03,2.9,1.24,2.93,2.82.08,4.81-3.75,8.78-8.57,8.88-4.81.09-8.79-3.76-8.88-8.57-.03-1.41.97-2.6,2.3-2.87Z"/>
  </g>
  <g>
    <path class="cls-1" d="m125.76,64.99c1.01,1.01,1.13,2.64.23,3.8-2.37,3.03-7.32,5.33-12.64,5.87-4.67.47-8.72-.53-11.4-2.83-1.21-1.03-1.35-2.85-.32-4.05,1.03-1.21,2.85-1.35,4.05-.32,1.46,1.25,4.04,1.78,7.09,1.48,4.13-.42,7.5-2.17,8.68-3.69.98-1.25,2.78-1.47,4.03-.5.1.07.19.15.27.23Z"/>
    <path class="cls-1" d="m98.05,64.94c-2.76,2.72-4.27,5.67-2.56,7.41,1.71,1.74,5.99,1.6,8.75-1.12,2.76-2.72,2.97-7,1.26-8.73-1.71-1.73-4.69-.28-7.45,2.44Z"/>
    <path class="cls-1" d="m129.4,55.05c.12.12.23.25.33.4.9,1.31.58,3.1-.73,4-1.35.93-1.69,2.79-.75,4.14.92,1.35,2.79,1.69,4.14.75,1.31-.9,3.09-.58,4,.73.9,1.31.58,3.1-.73,4-3.95,2.73-9.39,1.75-12.14-2.2-2.74-3.95-1.75-9.4,2.2-12.14,1.16-.8,2.7-.64,3.66.33Z"/>
  </g>
  <g>
    <path class="cls-1" d="m69.08,102.57c-.28-1.56.75-3.06,2.31-3.34,1.89-.34,5.01-2.51,7.3-5.97,1.69-2.56,2.41-5.1,1.99-6.96-.35-1.55.62-3.09,2.16-3.44,1.55-.35,3.09.62,3.44,2.16.78,3.44-.21,7.49-2.8,11.41-2.94,4.45-7.28,7.78-11.07,8.46-1.44.26-2.83-.6-3.26-1.97-.03-.11-.06-.22-.08-.34Z"/>
    <path class="cls-1" d="m81.99,78.36c3.69-1.18,7.01-1.14,7.75,1.18.74,2.32-1.36,6.05-5.06,7.23-3.69,1.18-7.57-.62-8.32-2.95-.74-2.32,1.93-4.28,5.63-5.46Z"/>
    <path class="cls-1" d="m60.08,98.12c4.26-2.23,9.54-.57,11.77,3.69,2.22,4.27.57,9.54-3.69,11.77-1.41.73-3.14.19-3.88-1.22-.73-1.41-.19-3.14,1.22-3.88,1.45-.76,2.02-2.57,1.26-4.02-.76-1.46-2.56-2.02-4.01-1.26-1.41.74-3.14.19-3.88-1.22-.08-.16-.15-.32-.2-.48-.4-1.3.17-2.74,1.41-3.4Z"/>
  </g>
  <g>
    <path class="cls-1" d="m39,90.36c-1.17.82-2.8.65-3.78-.44-2.57-2.86-3.96-8.15-3.56-13.47.36-4.68,2.06-8.49,4.78-10.73,1.22-1.01,3.04-.83,4.04.4,1.01,1.23.83,3.04-.4,4.04-1.48,1.21-2.47,3.66-2.7,6.72-.32,4.14.82,7.76,2.1,9.19,1.06,1.18.96,3-.22,4.06-.09.08-.18.16-.28.22Z"/>
    <path class="cls-1" d="m43.91,63.09c-2.19-3.2-4.84-5.2-6.85-3.82-2.01,1.38-2.63,5.61-.43,8.82,2.19,3.2,6.37,4.15,8.38,2.77,2.01-1.38,1.1-4.56-1.1-7.77Z"/>
    <path class="cls-1" d="m48.15,95.68c-.14.1-.29.18-.45.26-1.44.66-3.15.03-3.81-1.42-.68-1.49-2.45-2.15-3.94-1.47-1.49.67-2.15,2.45-1.47,3.94.66,1.44.02,3.15-1.42,3.81-1.44.66-3.15.03-3.81-1.42-2-4.37-.07-9.55,4.3-11.56,4.37-2,9.56-.07,11.56,4.3.59,1.28.15,2.77-.96,3.55Z"/>
  </g>
  <g>
    <path class="cls-1" d="m14.77,53.9c-1.16-.84-1.53-2.44-.82-3.72,1.87-3.36,6.41-6.4,11.58-7.75,4.54-1.19,8.69-.82,11.7,1.03,1.35.83,1.77,2.6.94,3.95-.83,1.35-2.6,1.77-3.95.94-1.63-1.01-4.27-1.14-7.23-.36-4.02,1.05-7.07,3.3-8,4.98-.77,1.39-2.52,1.89-3.91,1.12-.11-.06-.21-.12-.3-.19Z"/>
    <path class="cls-1" d="m43.08,46.16c.47-3.85-.2-7.1-2.62-7.39-2.42-.29-5.68,2.48-6.14,6.34-.47,3.85,2.04,7.32,4.46,7.61,2.42.29,3.84-2.7,4.3-6.56Z"/>
    <path class="cls-1" d="m12.72,64.29c-.14-.1-.27-.21-.39-.34-1.09-1.15-1.05-2.97.1-4.06,1.19-1.13,1.24-3.02.1-4.21-1.12-1.19-3.02-1.23-4.21-.1-1.15,1.09-2.97,1.05-4.06-.1-1.09-1.15-1.05-2.97.1-4.06,3.48-3.31,9-3.18,12.33.3,3.32,3.48,3.18,9.01-.3,12.33-1.02.97-2.57,1.05-3.67.25Z"/>
  </g>
</svg>