<?xml version="1.0" encoding="UTF-8"?><svg id="a" xmlns="http://www.w3.org/2000/svg" viewBox="0 0 144 140.67"><path d="m110.89,3.49c-1.23-1.26-3.77.39-2.42,2.37.88,1.29,1.54,2.06,2.16,2.93.35.48.45,1.08.3,1.65-1.88,7.07-3.43,12.38-5.58,19.5-.47,1.57.9,2.64,1.47,2.93l21.62,10.73c1.62.86,3.19-2.55,1.55-3.36l-19.39-9.99c-.5-.25-.92-.62-.78-1.16l.28-.91,21.88,11.13c.57.29,1.26.14,1.66-.35l6.53-9.98c.55-.67.34-1.68-.43-2.07-9.25-4.71-16.4-9.12-25.65-13.83l.93-3.45c.14-.52.16-1.43-.18-1.84l-3.95-4.28Zm-3.32,31.18c-1.77-.9-3.97-.18-4.87,1.59s-.18,3.97,1.58,4.87c1.77.9,3.97.18,4.87-1.59s.18-3.97-1.58-4.87Zm18.46,8.89c-1.77-.9-3.97-.18-4.87,1.59s-.18,3.97,1.58,4.87c1.77.9,3.97.18,4.87-1.59s.18-3.97-1.58-4.87Z" fill="#ef3e2f" stroke-width="0"/><path d="m70.59,120.8c-9.02,0-19.59-2.45-27.93-8.55-7.98-5.84-12.77-14.31-13.85-24.48-3.05-28.74,22.04-40.68,35.74-42.98h0c11.73-1.96,25.32,1.17,34.65,7.98,7.8,5.71,12.66,13.84,14.05,23.53,3.51,24.54-15.21,39.85-34.09,43.69-2.57.53-5.47.81-8.56.81Zm-5.46-72.57c-12.58,2.11-35.63,13.01-32.85,39.17.99,9.3,5.18,16.71,12.44,22.03,10.34,7.57,24.39,9.04,33.74,7.14,13.36-2.72,35-14.15,31.33-39.78-1.27-8.86-5.52-15.99-12.65-21.2-8.6-6.28-21.16-9.17-32.02-7.35h0Z" fill="#f8f8f8" stroke-width="0"/><path d="m103.16,79.59c-1.57-10.06-13.47-21.85-34.53-18.63-20.03,3.06-29.28,14.69-28.36,28.08,1.07,15.58,17.13,24.92,37.68,20.91,22.93-4.47,26.78-20.31,25.21-30.37Zm-44.96,15.04c-.87-.21-1.45-.87-1.73-1.65-.96-2.78-1.51-5.8-1.22-8.76.25-2.24,3.35-2.88,4.49-.98,1.73,2.36,3.46,12.28-1.54,11.39Zm29.95-6.57c-.51,2.19-3.68,2.43-4.52.37-1.09-2.85-1.62-5.99-1.34-9.05.25-2.24,3.35-2.88,4.48-.98,1.72,2.94,2.08,6.36,1.38,9.66Z" fill="#f8f8f8" stroke-width="0"/><path d="m68.21,86.36c1.81,1.33,4.37,1.54,6.14.08.61-.45,1.11-1.08,1.45-1.74.45-.87,1.81-.39,1.63.56-.61,3.44-4.65,5.37-7.8,4.13-1-.37-3.76-1.76-2.53-3.05.33-.26.8-.24,1.11.02h0Z" fill="#ef3e2f" stroke-width="0"/><path d="m45.19,37.35c.03,2.11,13.82,5.56,16.29,5.28l-1.31-12.12s-15.01,4.41-14.98,6.84Z" fill="#ef3e2f" stroke-width="0"/><path d="m34.83,87.67c.78,4.58.18,8.51-2.7,9-2.88.49-6.95-2.64-7.73-7.22-.78-4.58,2.02-8.89,4.9-9.38s4.75,3.01,5.54,7.6Z" fill="#f8f8f8" stroke-width="0"/><path d="m65.8,52.32c-1.07-.11-1.96-.95-2.08-2.06l-2.17-20.13c-.14-1.28.78-2.42,2.06-2.56s2.42.78,2.56,2.06l2.17,20.13c.14,1.28-.78,2.42-2.06,2.56-.16.02-.32.02-.48,0Z" fill="#f8f8f8" stroke-width="0"/><ellipse cx="72.53" cy="133.12" rx="24.83" ry="2.97" fill="#e4eaef" stroke-width="0"/><path d="m105.61,75c-1.07-5.5-.45-10.25,3.01-10.92s8.44,2.99,9.51,8.49c1.07,5.5-2.18,10.76-5.64,11.44-3.46.67-5.81-3.5-6.88-9Z" fill="#f8f8f8" stroke-width="0"/><path d="m123.56,54.71c1.37-.27,2.76.51,3.21,1.87,1.18,3.56.36,8.82-2.07,13.42-2.14,4.04-5.15,6.78-8.46,7.72-1.49.43-3.04-.44-3.46-1.93-.42-1.49.44-3.04,1.93-3.46,1.8-.51,3.63-2.31,5.03-4.95,1.9-3.58,2.29-7.25,1.7-9.03-.49-1.47.31-3.05,1.78-3.54.11-.04.22-.07.33-.09Z" fill="#f8f8f8" stroke-width="0"/><path d="m17.41,68.49c-1.37-.27-2.76.51-3.21,1.87-1.18,3.56-.36,8.82,2.07,13.42,2.14,4.04,5.15,6.78,8.46,7.72,1.49.43,3.04-.44,3.46-1.93.42-1.49-.44-3.04-1.93-3.46-1.8-.51-3.63-2.31-5.03-4.95-1.9-3.58-2.29-7.25-1.7-9.03.49-1.47-.31-3.05-1.78-3.54-.11-.04-.22-.07-.33-.09Z" fill="#f8f8f8" stroke-width="0"/><path d="m20.63,36.74c-.17-.37-.69-.45-.92-.12l-12.25,17.19c-.5.71-.05,1.67.81,1.64l6.64-.24-.49,5.54c-.2,1.55.9,2.98,2.45,3.18s2.98-.9,3.18-2.45l.49-5.54,6.36,1.92c.83.25,1.51-.57,1.2-1.38l-7.48-19.75h0Z" fill="#ef3e2f" stroke-width="0"/><path d="m20.59,25.22c.08-.58.6-.98,1.18-.91.58.07.98.6.91,1.18l-.82,6.39c-.08.58-.6.98-1.18.91-.58-.07-.98-.6-.91-1.18l.82-6.39Z" fill="#ef3e2f" stroke-width="0"/><path d="m10.85,28.69c-.35-.46-.27-1.12.19-1.47s1.12-.27,1.47.19l3.93,5.1c.35.46.27,1.12-.19,1.47s-1.12.27-1.47-.19l-3.93-5.1Z" fill="#ef3e2f" stroke-width="0"/><path d="m6.42,38.03c-.58-.07-.98-.6-.91-1.18.07-.58.6-.98,1.18-.91l6.39.83c.58.07.98.6.91,1.18-.08.58-.6.98-1.18.91l-6.39-.83Z" fill="#ef3e2f" stroke-width="0"/><path d="m33.4,39.4c.58.07.98.6.91,1.18-.07.58-.6.98-1.18.91l-6.39-.83c-.58-.07-.98-.6-.91-1.18.07-.58.6-.98,1.18-.91l6.39.83h0Z" fill="#ef3e2f" stroke-width="0"/><path d="m29.93,29.66c.46-.35,1.12-.27,1.47.19s.27,1.12-.19,1.47l-5.1,3.93c-.46.35-1.12.27-1.47-.19s-.27-1.12.19-1.47l5.1-3.93Z" fill="#ef3e2f" stroke-width="0"/><path d="m16.6,73.96c-5.73-.11-10.32-4.87-10.22-10.6.03-1.49,1.27-2.71,2.76-2.71,1.57.03,2.78,1.29,2.76,2.81-.02,1.31.47,2.55,1.39,3.5.91.94,2.13,1.47,3.42,1.48h0c2.73,0,4.92-2.15,4.97-4.8.03-1.5,1.26-2.71,2.76-2.71.22,0,.38.02.54.05,1.31.26,2.24,1.42,2.21,2.75-.1,5.64-4.77,10.23-10.41,10.23,0,0-.19,0-.19,0Z" fill="#f8f8f8" stroke-width="0"/><path d="m124.15,58.18c-5.73-.11-10.32-4.87-10.22-10.6.03-1.49,1.27-2.71,2.76-2.71,1.57.03,2.78,1.29,2.76,2.81-.02,1.31.47,2.55,1.39,3.5.91.94,2.13,1.47,3.42,1.48h0c2.73,0,4.92-2.15,4.97-4.8.03-1.5,1.26-2.71,2.76-2.71.22,0,.38.02.54.05,1.31.26,2.24,1.42,2.21,2.75-.1,5.64-4.77,10.23-10.41,10.23,0,0-.19,0-.19,0Z" fill="#f8f8f8" stroke-width="0"/></svg>