<?xml version="1.0" encoding="UTF-8"?>
<svg id="Layer_1" data-name="Layer 1" xmlns="http://www.w3.org/2000/svg" viewBox="0 0 265.32 148.24">
  <defs>
    <style>
      .cls-1 {
        fill: #fff;
      }

      .cls-2 {
        fill: #ffd400;
      }

      .cls-3 {
        fill: #ef3e2f;
      }

      .cls-4 {
        fill: #868d93;
      }
    </style>
  </defs>
  <g>
    <g>
      <ellipse class="cls-4" cx="52" cy="141.59" rx="16.55" ry="1.98"/>
      <g>
        <path class="cls-1" d="m64.47,51.35c-13.18-3.42-40.09-2.61-48.68,23.81-8.58,26.4,15.47,44.65,31.95,48.32,16.94,3.78,40.57-.82,47.49-25.08,7.02-24.59-13.96-42.69-30.76-47.06Z"/>
        <path d="m58.42,126.43c-3.75,0-7.49-.42-11.06-1.22-10.19-2.27-23.58-10.03-30.55-22.24-4.96-8.7-5.9-18.51-2.7-28.35,9.05-27.84,37.19-28.51,50.8-24.98h0c11.65,3.03,22.94,11.54,28.74,21.69,4.86,8.5,5.99,18.03,3.27,27.56-5.6,19.62-22.26,27.54-38.52,27.54Zm-5.87-74.76c-12.91,0-28.91,5.09-35.07,24.05-2.93,9-2.12,17.59,2.4,25.51,6.43,11.27,18.82,18.44,28.25,20.54,13.48,3.01,38.22,1.37,45.41-23.84,2.49-8.71,1.5-17.07-2.94-24.84-5.36-9.37-15.79-17.23-26.56-20.03h0c-3.15-.82-7.14-1.39-11.48-1.39Z"/>
      </g>
      <path d="m24.18,80.53c-5.45,14.85,5.49,30.37,26.21,34.9,22.18,4.85,33.15-7.72,35.86-17.67,2.7-9.95-3.43-25.77-24.23-31.49-19.79-5.44-33.15,1.5-37.83,14.26Z"/>
      <path d="m20.08,81.09c-1.17,4.56-3.35,7.94-6.22,7.21s-5.34-5.31-4.17-9.87,5.53-7.38,8.4-6.65c2.87.73,3.15,4.75,1.98,9.31Z"/>
      <path class="cls-3" d="m51.09,39.36c-1.01,1.89,9.52,11.7,11.85,12.66l5.4-11.29s-16.1-3.54-17.26-1.37Z"/>
      <path d="m62.31,60.12c-.27,0-.54-.05-.81-.15-1.22-.45-1.85-1.8-1.4-3.02l5.96-16.21c.45-1.22,1.8-1.85,3.02-1.4,1.22.45,1.85,1.8,1.4,3.02l-5.96,16.21c-.35.95-1.25,1.54-2.21,1.54Z"/>
      <path class="cls-3" d="m50.94,89.54c1.14,1.97,3.44,3.19,5.67,2.55.76-.18,1.46-.56,2.05-1.03.75-.64,1.85.38,1.3,1.18-1.95,2.95-6.49,3.12-8.92.69-.77-.72-2.78-3.19-1.12-3.85.42-.11.84.09,1.03.46h0Z"/>
      <path d="m88.99,44.97c-3.45-1.06-5.46-3.51-6.13-7.45-.87-5.15-1.95-20.08,13.77-24.58S233.84-.08,249.58,5.03s21.47,55.09-4.7,59.24c-18.17,2.88-136.92-17.64-142.17-17.79,0,0-9.85,14.3-12.29,14.82-.9.19-1.44-16.33-1.44-16.33Z"/>
      <path d="m91.84,96.55c-1.08,4.59-1.52,8.34,1.36,9.01,2.88.68,7.19-2.23,8.26-6.82,1.08-4.59-1.49-9.11-4.37-9.79-2.88-.68-4.18,3-5.25,7.59Z"/>
    </g>
    <g>
      <polygon class="cls-2" points="99.01 18.72 101.16 26.88 110.04 27.43 102.48 31.92 104.63 40.07 97.81 34.69 90.25 39.18 93.6 31.37 86.77 25.99 95.66 26.54 99.01 18.72"/>
      <polygon class="cls-2" points="138.04 44.07 131.03 36.71 121.56 41.11 126.7 32.16 119.69 24.8 129.88 26.62 135.01 17.67 136.17 27.75 146.36 29.58 136.89 33.98 138.04 44.07"/>
      <polygon class="cls-2" points="171.45 48.06 164.26 38.72 152.88 43.04 159.81 32.95 152.61 23.61 164.09 26.71 171.02 16.62 171.19 28.63 182.67 31.73 171.29 36.05 171.45 48.06"/>
      <polygon class="cls-2" points="205.63 52.05 198.24 40.73 184.95 44.96 193.68 33.73 186.29 22.41 199.07 26.79 207.8 15.56 206.97 29.49 219.75 33.87 206.46 38.11 205.63 52.05"/>
      <polygon class="cls-2" points="239.8 56.08 232.23 42.78 217.03 46.93 227.55 34.56 219.97 21.26 234.05 26.91 244.57 14.54 242.75 30.41 256.82 36.06 241.62 40.21 239.8 56.08"/>
    </g>
  </g>
  <path class="cls-1" d="m79.95,93.02c-1.24-2.53-6.24-.5-6.24-.5,0,0,2.67-4.62.28-6.11-2.38-1.49-8.27-.52-6.57,11.91,12.19,2.98,13.76-2.78,12.52-5.3h0Z"/>
  <path class="cls-1" d="m40.01,75.45c-2.81.2-2.79,5.6-2.79,5.6,0,0-3.29-4.2-5.56-2.54-2.28,1.65-3.57,7.48,8.6,10.54,7.31-10.2,2.56-13.8-.25-13.6h0Z"/>
</svg>