<?xml version="1.0" encoding="UTF-8"?>
<svg id="Layer_1" data-name="Layer 1" xmlns="http://www.w3.org/2000/svg" viewBox="0 0 182.63 158.22">
  <defs>
    <style>
      .cls-1 {
        fill: #fff;
      }

      .cls-2 {
        fill: #ffd400;
      }

      .cls-3 {
        fill: #ef3e2f;
      }

      .cls-4 {
        fill: #868d93;
      }
    </style>
  </defs>
  <g>
    <g>
      <ellipse class="cls-4" cx="79.26" cy="149.24" rx="16.55" ry="1.98"/>
      <g>
        <path class="cls-1" d="m91.74,59c-13.18-3.42-40.09-2.61-48.68,23.81-8.58,26.4,15.47,44.65,31.95,48.32,16.94,3.78,40.57-.82,47.49-25.08,7.02-24.59-13.96-42.69-30.76-47.06Z"/>
        <path d="m85.68,134.07c-3.75,0-7.49-.42-11.06-1.22-10.19-2.27-23.58-10.03-30.55-22.24-4.96-8.7-5.9-18.51-2.7-28.35,9.05-27.84,37.19-28.51,50.8-24.98h0c11.65,3.03,22.94,11.54,28.74,21.69,4.86,8.5,5.99,18.03,3.27,27.56-5.6,19.62-22.26,27.54-38.52,27.54Zm-5.87-74.76c-12.91,0-28.91,5.09-35.07,24.05-2.93,9-2.12,17.59,2.4,25.51,6.43,11.27,18.82,18.44,28.25,20.54,13.48,3.01,38.22,1.37,45.41-23.84,2.49-8.71,1.5-17.07-2.94-24.84-5.36-9.37-15.79-17.23-26.56-20.03h0c-3.15-.82-7.14-1.39-11.48-1.39Z"/>
      </g>
      <path d="m51.44,88.17c-5.45,14.85,5.49,30.37,26.21,34.9,22.18,4.85,33.15-7.72,35.86-17.67,2.7-9.95-3.43-25.77-24.23-31.49-19.79-5.44-33.15,1.5-37.83,14.26Z"/>
      <path d="m47.35,88.73c-1.17,4.56-3.35,7.94-6.22,7.21s-5.34-5.31-4.17-9.87,5.53-7.38,8.4-6.65c2.87.73,3.15,4.75,1.98,9.31Z"/>
      <path class="cls-3" d="m78.36,47c-1.01,1.89,9.52,11.7,11.85,12.66l5.4-11.29s-16.1-3.54-17.26-1.37Z"/>
      <path d="m89.57,67.76c-.27,0-.54-.05-.81-.15-1.22-.45-1.85-1.8-1.4-3.02l5.96-16.21c.45-1.22,1.8-1.85,3.02-1.4,1.22.45,1.85,1.8,1.4,3.02l-5.96,16.21c-.35.95-1.25,1.54-2.21,1.54Z"/>
      <path class="cls-1" d="m75.51,103.04c1.14,1.97,3.44,3.19,5.67,2.55.76-.18,1.46-.56,2.05-1.03.75-.64,1.85.38,1.3,1.18-1.95,2.95-6.49,3.12-8.92.69-.77-.72-2.78-3.19-1.12-3.85.42-.11.84.09,1.03.46h0Z"/>
      <path d="m119.1,104.2c-1.08,4.59-1.52,8.34,1.36,9.01,2.88.68,7.19-2.23,8.26-6.82,1.08-4.59-1.49-9.11-4.37-9.79-2.88-.68-4.18,3-5.25,7.59Z"/>
    </g>
    <polygon class="cls-2" points="42.48 68.88 30.78 61.69 20.32 70.59 23.55 57.24 11.85 50.04 25.54 48.98 28.77 35.63 34.01 48.33 47.71 47.28 37.25 56.18 42.48 68.88"/>
    <polygon class="cls-2" points="62.31 37.43 54.18 32.43 46.91 38.61 49.16 29.34 41.03 24.33 50.54 23.6 52.79 14.32 56.43 23.15 65.95 22.41 58.68 28.6 62.31 37.43"/>
    <polygon class="cls-2" points="127.33 71 125.34 61.66 115.84 60.67 124.11 55.89 122.12 46.56 129.21 52.94 137.48 48.16 133.6 56.89 140.7 63.27 131.2 62.28 127.33 71"/>
    <polygon class="cls-2" points="104.06 45.42 97.85 36.17 87.13 39.22 94.01 30.45 87.8 21.2 98.26 25.03 105.15 16.27 104.73 27.4 115.19 31.24 104.47 34.29 104.06 45.42"/>
    <polygon class="cls-2" points="143.76 110.45 146.15 89.62 127.09 80.92 147.63 76.75 150.02 55.93 160.33 74.18 180.87 70.02 166.7 85.46 177.01 103.72 157.94 95.01 143.76 110.45"/>
    <polygon class="cls-2" points="79.14 16.59 77.45 12.19 72.75 12.45 76.4 9.48 74.71 5.09 78.66 7.64 82.31 4.67 81.1 9.22 85.06 11.78 80.35 12.04 79.14 16.59"/>
    <polygon class="cls-2" points="32.23 96.96 25.88 96.92 23.88 102.95 21.95 96.89 15.6 96.85 20.76 93.15 18.84 87.09 23.95 90.86 29.12 87.16 27.12 93.19 32.23 96.96"/>
    <polygon class="cls-2" points="162.54 58.61 162.04 49.08 152.82 46.61 161.73 43.19 161.22 33.65 167.23 41.07 176.15 37.64 170.95 45.65 176.96 53.07 167.74 50.6 162.54 58.61"/>
    <polygon class="cls-2" points="126.87 141.91 122.6 139.29 118.79 142.53 119.97 137.66 115.7 135.04 120.69 134.65 121.87 129.78 123.78 134.42 128.78 134.03 124.96 137.28 126.87 141.91"/>
  </g>
  <path class="cls-3" d="m71.85,88.74c-2.42-1.43-4.73.52-4.73.52,0,0-1.06-2.83-3.87-2.77-2.81.06-7.2,4.11,1.06,13.56,11.82-4.21,9.97-9.88,7.55-11.31h0Z"/>
  <path class="cls-3" d="m105.67,99.56c-2.13-1.84-4.75-.34-4.75-.34,0,0-.54-2.98-3.32-3.42-2.78-.44-7.82,2.75-1.39,13.53,12.38-2.02,11.58-7.94,9.45-9.77h0Z"/>
  <path class="cls-3" d="m143.6,19.49c-1.85-2.12-5.16-.87-5.16-.87,0,0,.38-3.15-2.31-3.97-2.69-.83-8.12,1.64-3.26,13.2,12.54-.28,12.57-6.25,10.72-8.36h0Z"/>
  <path class="cls-3" d="m155.91,130.36c1.01-2.63-1.65-4.96-1.65-4.96,0,0,2.96-1.14,2.43-3.9-.53-2.76-5.26-6.41-13.19,3.31,6.13,10.95,11.41,8.18,12.42,5.55h0Z"/>
  <path class="cls-3" d="m21.69,13.31c-2.54,1.22-.54,6.24-.54,6.24,0,0-4.6-2.7-6.1-.32-1.51,2.37-.58,8.27,11.87,6.65,3.06-12.17-2.69-13.78-5.22-12.56h0Z"/>
</svg>