<svg width="20" height="20" xmlns="http://www.w3.org/2000/svg" viewBox="0 0 178.07 151.18"><defs><style>.cls-1,.cls-3,.cls-5{fill:none;stroke-miterlimit:10;}.cls-1,.cls-3{stroke:#f9f9f9;}.cls-1{stroke-width:9px;}.cls-2{fill:#f9f9f9;}.cls-3{stroke-width:14px;}.cls-4{fill:#fff;}.cls-5{stroke:#26d1ff;stroke-width:8px;}.cls-6{fill:#26d1ff;}</style></defs><title>Asset 5</title><g id="Layer_2" data-name="Layer 2"><g id="Layer_1-2" data-name="Layer 1"><line class="cls-1" y1="29.46" x2="159.08" y2="29.46"/><path class="cls-2" d="M150,9a.1.1,0,0,1,.1.1V122.48a.1.1,0,0,1-.1.11H9.1a.11.11,0,0,1-.1-.11V9.1A.11.11,0,0,1,9.1,9H150m0-9H9.1A9.11,9.11,0,0,0,0,9.1V122.48a9.11,9.11,0,0,0,9.1,9.11H150a9.1,9.1,0,0,0,9.1-9.11V9.1A9.1,9.1,0,0,0,150,0Z"/><line class="cls-3" x1="159.08" y1="44.55" x2="173.57" y2="44.55"/><path class="cls-1" d="M159.08,15.09h5.39a9.1,9.1,0,0,1,9.1,9.11V137.58a9.09,9.09,0,0,1-9.1,9.1H23.59a9.1,9.1,0,0,1-9.1-9.1v-6"/><circle class="cls-4" cx="16.53" cy="16.54" r="4.54"/><circle class="cls-4" cx="29.82" cy="16.54" r="4.54"/><circle class="cls-4" cx="43.11" cy="16.54" r="4.54"/><polyline class="cls-5" points="37.22 60.62 20.76 77.42 37.22 92.86"/><polyline class="cls-5" points="121.59 60.62 138.05 77.42 121.59 92.86"/><path class="cls-6" d="M62.6,88.33l0-14-6.85,11.5H53.29l-6.82-11.2V88.33h-5V65.06h4.46l8.71,14.46,8.58-14.46h4.42l.06,23.27Z"/><path class="cls-6" d="M88.62,66.09A8,8,0,0,1,92.13,69a8.77,8.77,0,0,1,0,9,7.81,7.81,0,0,1-3.51,2.92,13.06,13.06,0,0,1-5.37,1H78.56v6.41H73.17V65.06H83.25A12.9,12.9,0,0,1,88.62,66.09Zm-2,10.39a4.18,4.18,0,0,0,0-6,5.64,5.64,0,0,0-3.69-1H78.56v8.08H83A5.64,5.64,0,0,0,86.64,76.48Z"/><path class="cls-6" d="M113.24,76.33h4.92v9.45A14.12,14.12,0,0,1,113.77,88a17,17,0,0,1-5,.76,13.64,13.64,0,0,1-6.52-1.54A11.48,11.48,0,0,1,97.7,82.9a12.47,12.47,0,0,1,0-12.4,11.39,11.39,0,0,1,4.57-4.29,13.86,13.86,0,0,1,6.58-1.55,14.33,14.33,0,0,1,5.55,1,11.05,11.05,0,0,1,4.19,3l-3.46,3.2a8,8,0,0,0-6-2.63,8.21,8.21,0,0,0-4,.93,6.68,6.68,0,0,0-2.69,2.63,8.2,8.2,0,0,0,0,7.74,6.74,6.74,0,0,0,2.67,2.65,8,8,0,0,0,3.91.94,8.79,8.79,0,0,0,4.19-1Z"/></g></g></svg>