<svg width="30" height="30" viewBox="0 0 30 30" fill="none" xmlns="http://www.w3.org/2000/svg">
<path d="M5.28442 22.1321C4.57706 22.1321 4 21.555 4 20.8477C4 20.1403 4.57706 19.5632 5.28442 19.5632C5.99178 19.5632 6.56884 20.1403 6.56884 20.8477C6.56884 21.555 6.00109 22.1321 5.28442 22.1321V22.1321ZM5.28442 20.2706C4.96797 20.2706 4.70736 20.5312 4.70736 20.8477C4.70736 21.1641 4.96797 21.4247 5.28442 21.4247C5.60087 21.4247 5.86148 21.1641 5.86148 20.8477C5.86148 20.5312 5.60087 20.2706 5.28442 20.2706Z" fill="white"/>
<path d="M23.5344 4.56884C22.8271 4.56884 22.25 3.99178 22.25 3.28442C22.25 2.57706 22.8271 2 23.5344 2C24.2418 2 24.8188 2.57706 24.8188 3.28442C24.8188 3.99178 24.2418 4.56884 23.5344 4.56884ZM23.5344 2.70736C23.218 2.70736 22.9574 2.96797 22.9574 3.28442C22.9574 3.60087 23.218 3.86148 23.5344 3.86148C23.8509 3.86148 24.1115 3.60087 24.1115 3.28442C24.1115 2.96797 23.8509 2.70736 23.5344 2.70736Z" fill="white"/>
<path d="M23.6377 27H10.4026C9.36019 27 8.50391 26.1437 8.50391 25.1012V8.15249C8.50391 7.10076 9.36019 6.25378 10.4026 6.25378H23.6377C24.6802 6.25378 25.5364 7.11006 25.5364 8.15249V25.1012C25.5364 26.153 24.6802 27 23.6377 27ZM10.4026 6.97045C9.7511 6.97045 9.22058 7.50097 9.22058 8.15249V25.1012C9.22058 25.7528 9.7511 26.2833 10.4026 26.2833H23.6377C24.2892 26.2833 24.8198 25.7528 24.8198 25.1012V8.15249C24.8198 7.50097 24.2892 6.97045 23.6377 6.97045H10.4026Z" fill="white"/>
<path d="M12.8125 8.36646H21.2264V9.08312H12.8125V8.36646Z" fill="white"/>
<path d="M12.8125 10.1626H18.8437V10.6373H12.8125V10.1626Z" fill="white"/>
<path d="M12.8125 11.8383H21.2264V12.3129H12.8125V11.8383Z" fill="white"/>
<path d="M12.8125 14.7885H21.2264V15.5051H12.8125V14.7885Z" fill="white"/>
<path d="M12.8125 16.5851H18.8437V17.0598H12.8125V16.5851Z" fill="white"/>
<path d="M12.8125 18.2603H21.2264V18.7349H12.8125V18.2603Z" fill="white"/>
<path d="M12.8125 20.913H21.2264V21.6296H12.8125V20.913Z" fill="white"/>
<path d="M12.8125 22.7089H18.8437V23.1835H12.8125V22.7089Z" fill="white"/>
<path d="M12.8125 24.3842H21.2264V24.8588H12.8125V24.3842Z" fill="white"/>
</svg>
