<svg width="25" height="20" viewBox="0 0 25 20" fill="none" xmlns="http://www.w3.org/2000/svg">
<path d="M12.7843 -0.000244141C13.1824 -0.000244141 13.5058 0.313954 13.5058 0.701811V3.64814C13.5058 4.12001 13.9086 4.51132 14.3943 4.51132C14.8919 4.51132 15.2829 4.12001 15.2829 3.64814V0.701811C15.2829 0.313954 15.6063 -0.000244141 16.0056 -0.000244141H19.8677C22.4267 -0.000244141 24.5 2.01385 24.5 4.49981V7.40011C24.5 7.63029 24.4052 7.84896 24.2394 8.01009C24.0735 8.17122 23.8484 8.26329 23.6115 8.26329C22.7348 8.26329 22.0239 8.95384 22.0239 9.794C22.0239 10.6399 22.7265 11.327 23.5949 11.3362C24.0842 11.3408 24.5 11.6723 24.5 12.1476V15.0997C24.5 17.5845 22.4267 19.5998 19.8677 19.5998H16.0056C15.6063 19.5998 15.2829 19.2856 15.2829 18.8977V16.4117C15.2829 15.9284 14.8919 15.5486 14.3943 15.5486C13.9086 15.5486 13.5058 15.9284 13.5058 16.4117V18.8977C13.5058 19.2856 13.1824 19.5998 12.7843 19.5998H4.63225C2.08511 19.5998 0 17.5857 0 15.0997V12.1476C0 11.6723 0.415837 11.3408 0.905126 11.3362C1.77471 11.327 2.47606 10.6399 2.47606 9.794C2.47606 8.97686 1.78893 8.35536 0.88854 8.35536C0.651596 8.35536 0.426499 8.26329 0.260638 8.10216C0.0947776 7.94104 0 7.72236 0 7.49218V4.51132C0 2.02996 2.08985 -0.000244141 4.6441 -0.000244141H12.7843ZM14.3943 6.98578C13.9086 6.98578 13.5058 7.37709 13.5058 7.84896V12.4526C13.5058 12.9245 13.9086 13.3158 14.3943 13.3158C14.8919 13.3158 15.2829 12.9245 15.2829 12.4526V7.84896C15.2829 7.37709 14.8919 6.98578 14.3943 6.98578Z" fill="#5B9AF8"/>
</svg>
