<svg xmlns="http://www.w3.org/2000/svg" width="31" height="31" viewBox="0 0 31 31" fill="none">
  <path d="M4.89306 26.4791C4.56228 26.4791 4.28501 26.3673 4.06123 26.1435C3.83747 25.9197 3.72559 25.6424 3.72559 25.3117V13.4435C3.72559 13.1072 3.83747 12.8277 4.06123 12.605C4.28501 12.3822 4.56228 12.2709 4.89306 12.2709H8.79286C9.12363 12.2709 9.4009 12.3828 9.62466 12.6065C9.84842 12.8303 9.9603 13.1076 9.9603 13.4383V25.3065C9.9603 25.6428 9.84842 25.9223 9.62466 26.145C9.4009 26.3678 9.12363 26.4791 8.79286 26.4791H4.89306ZM13.4294 26.4791C13.0939 26.4791 12.8148 26.3673 12.5921 26.1435C12.3693 25.9197 12.258 25.6424 12.258 25.3117V5.68835C12.258 5.35757 12.3699 5.08031 12.5936 4.85655C12.8174 4.63277 13.0947 4.52087 13.4255 4.52087H17.5697C17.9052 4.52087 18.1843 4.63277 18.407 4.85655C18.6298 5.08031 18.7411 5.35757 18.7411 5.68835V25.3117C18.7411 25.6424 18.6292 25.9197 18.4055 26.1435C18.1817 26.3673 17.9044 26.4791 17.5736 26.4791H13.4294ZM22.2062 26.4791C21.8755 26.4791 21.5982 26.3677 21.3744 26.1449C21.1507 25.9221 21.0388 25.646 21.0388 25.3166V16.0165C21.0388 15.6871 21.1507 15.4111 21.3744 15.1883C21.5982 14.9656 21.8755 14.8542 22.2062 14.8542H26.106C26.4368 14.8542 26.7141 14.9656 26.9379 15.1885C27.1616 15.4113 27.2735 15.6874 27.2735 16.0167V25.3169C27.2735 25.6462 27.1616 25.9223 26.9379 26.145C26.7141 26.3678 26.4368 26.4791 26.106 26.4791H22.2062Z" fill="#5B9AF8"/>
</svg>