<svg width="20" height="24" viewBox="0 0 20 24" fill="none" xmlns="http://www.w3.org/2000/svg">
<path d="M19.4989 23.9992H2.56437C2.54214 23.9915 2.51991 23.981 2.49647 23.9757C0.971555 23.6514 0.00421027 22.4862 0.00421027 20.9663C0.00360944 14.9884 0.0102186 9.01114 4.42799e-06 3.03387C-0.00299975 1.24297 1.52312 -0.0072515 3.09551 -0.000214586C8.42852 0.0232418 13.7615 0.00858155 19.0939 0.00916796C19.7374 0.00916796 19.9958 0.260151 19.9958 0.885263C19.9958 8.30627 19.9946 15.7273 20 23.1483C20 23.5435 19.8654 23.8279 19.4983 23.9998L19.4989 23.9992ZM10.5993 19.5202C9.55989 19.5202 8.52045 19.5202 7.4816 19.5202C6.00235 19.5202 4.52369 19.5114 3.04444 19.5243C1.85358 19.5343 1.12597 20.7927 1.7208 21.799C2.06087 22.3748 2.61544 22.5748 3.26014 22.5748C8.23265 22.5777 13.2052 22.5765 18.1783 22.576C18.4697 22.576 18.4859 22.5601 18.4865 22.2657C18.4877 21.47 18.4877 20.6742 18.4865 19.8779C18.4865 19.5202 18.4853 19.5196 18.1068 19.5196C15.6043 19.5196 13.1024 19.5196 10.5999 19.5196L10.5993 19.5202ZM10.0243 4.58257C8.48139 4.58257 6.93845 4.58023 5.3955 4.58433C5.00857 4.58551 4.72497 4.83766 4.69433 5.1854C4.66489 5.51496 4.8902 5.82166 5.22847 5.89261C5.33602 5.91548 5.45078 5.9102 5.56254 5.9102C8.52045 5.91079 11.4784 5.91079 14.4357 5.9102C14.5234 5.9102 14.6123 5.9149 14.6994 5.90493C15.1741 5.85215 15.4493 5.35487 15.23 4.94146C15.0906 4.67757 14.8551 4.57964 14.557 4.58023C13.0459 4.58375 11.5354 4.58199 10.0243 4.58257V4.58257Z" fill="#5B9AF8"/>
</svg>
