<svg width="25" height="25" viewBox="0 0 25 25" fill="none" xmlns="http://www.w3.org/2000/svg">
<path d="M24.4827 6.84918C24.4827 8.41152 24.4821 9.97364 24.4836 11.536C24.4836 11.7101 24.4962 11.8843 24.4996 12.0584C24.5024 12.2097 24.4949 12.2201 24.3454 12.2144C23.5704 12.1847 22.795 12.199 22.0198 12.1986C19.5653 12.1971 17.1111 12.1996 14.6567 12.2016C14.4967 12.2016 14.337 12.2107 14.177 12.2137C14.1429 12.2144 14.095 12.2268 14.0805 12.1889C14.0662 12.1516 14.1113 12.1293 14.1354 12.1054C14.7712 11.4682 15.4078 10.8317 16.044 10.195C16.4062 9.83262 16.7669 9.46875 17.1318 9.10936C17.1961 9.0459 17.2091 9.0021 17.1538 8.9224C16.1527 7.47779 14.7927 6.60475 13.0499 6.34685C12.8079 6.31096 12.5689 6.25092 12.3231 6.24194C12.1897 6.23703 12.1867 6.24237 12.1867 6.37847C12.1873 7.39275 12.1828 8.40703 12.1924 9.4211C12.1952 9.71617 12.2025 10.0112 12.204 10.3065C12.204 10.3465 12.2253 10.4042 12.1777 10.4217C12.1395 10.4358 12.1143 10.3841 12.0876 10.3574C11.096 9.3664 10.1041 8.37584 9.11613 7.38164C9.03669 7.30152 8.98437 7.2996 8.89446 7.3622C7.47728 8.34742 6.62348 9.68925 6.34543 11.3935C6.30827 11.621 6.28008 11.8505 6.24313 12.0785C6.219 12.2268 6.23053 12.2394 6.37917 12.2394C7.67739 12.2385 8.97582 12.237 10.274 12.2374C10.3208 12.2374 10.3904 12.2101 10.4097 12.2618C10.4274 12.3099 10.3601 12.3409 10.3264 12.3746C9.34378 13.3594 8.36099 14.344 7.37499 15.3254C7.30024 15.3999 7.29191 15.4491 7.35321 15.5378C8.19698 16.7606 9.33118 17.5738 10.7648 17.9644C11.0807 18.0505 11.4065 18.0857 11.729 18.1385C11.9838 18.1802 12.2356 18.2037 12.4916 18.1945C13.6303 18.1537 14.6723 17.8276 15.594 17.143C15.8913 16.9221 16.1845 16.6963 16.4459 16.4339C16.8241 16.0542 17.1483 15.6313 17.4127 15.1641C17.4784 15.048 17.4797 15.0467 17.5756 15.1433C18.467 16.0429 19.3631 16.9379 20.2479 17.8443C20.7871 18.3966 21.3347 18.9408 21.8786 19.4887C21.9544 19.565 21.9602 19.6143 21.8927 19.7006C21.1044 20.7087 20.1849 21.5756 19.1299 22.2999C17.9141 23.1347 16.5896 23.7251 15.1603 24.0806C14.5211 24.2396 13.8725 24.3428 13.215 24.3936C12.7925 24.4263 12.3701 24.44 11.9473 24.431C10.8752 24.4079 9.82386 24.2451 8.79494 23.9439C7.61204 23.5975 6.50773 23.0806 5.48009 22.4001C5.31415 22.2903 5.15975 22.1623 4.99061 22.0576C4.36125 21.6687 3.84508 21.1497 3.33446 20.625C3.15871 20.4442 2.99811 20.2487 2.83132 20.0592C2.74526 19.9613 2.74568 19.9605 2.64809 20.0581C1.82055 20.8859 0.993224 21.714 0.165045 22.5411C0.128526 22.5777 0.0922216 22.6516 0.0456659 22.633C-0.0111407 22.6104 0.0191846 22.5315 0.0191846 22.4781C0.0179033 19.2928 0.0183304 16.1072 0.017049 12.9218C0.017049 12.6731 -0.00302545 12.4242 0.000391483 12.1755C0.0245236 10.383 0.394193 8.66878 1.16065 7.04341C1.6433 6.01994 2.25258 5.08045 2.99533 4.22706C3.41647 3.74331 3.86708 3.2897 4.36125 2.88031C4.38581 2.86001 4.40674 2.83459 4.43301 2.81664C4.49088 2.77668 4.47935 2.74378 4.43429 2.69934C4.21881 2.48716 4.00589 2.27221 3.79212 2.05833C3.1508 1.41669 2.50928 0.775047 1.86839 0.132976C1.84148 0.106054 1.78852 0.0793454 1.80048 0.0449449C1.81692 -0.00184826 1.87522 0.0218688 1.91452 0.0218688C5.11939 0.0208005 8.32426 0.0218688 11.5291 0.0188775C11.8345 0.0186638 12.1397 -0.00526694 12.4457 0.000715751C14.1495 0.0340479 15.7798 0.392155 17.3326 1.09918C18.3523 1.56348 19.2898 2.15812 20.146 2.87988C20.6852 3.33457 21.1837 3.83177 21.6347 4.37513C21.7381 4.4997 21.7374 4.50034 21.8502 4.38774C22.6852 3.5523 23.5202 2.71686 24.3552 1.88142C24.3753 1.86133 24.3945 1.83996 24.4163 1.8218C24.4291 1.81112 24.4477 1.79723 24.4607 1.7998C24.4872 1.80514 24.4814 1.83313 24.4823 1.85321C24.4838 1.88526 24.4829 1.91731 24.4829 1.94936C24.4829 3.58285 24.4829 5.21634 24.4829 6.84961L24.4827 6.84918Z" fill="#5B9AF8"/>
</svg>
