<svg width="25" height="26" viewBox="0 0 25 26" fill="none" xmlns="http://www.w3.org/2000/svg">
<path d="M10.4573 1.86963C11.9646 1.86963 13.4712 1.87037 14.9785 1.8689C15.1825 1.8689 15.3829 1.88658 15.5752 1.95436C16.1727 2.16579 16.4688 2.71464 16.3487 3.42336C15.8699 6.2457 17.7713 8.74168 20.4301 9.17192C20.9495 9.25591 21.4718 9.2618 21.9912 9.17413C23.0204 8.99953 23.6341 9.50639 23.6348 10.5452C23.6363 12.3464 23.6429 14.1477 23.6334 15.9489C23.6179 18.7948 21.7032 21.1545 18.9236 21.7667C18.4918 21.8618 18.0535 21.9016 17.6122 21.906C17.0884 21.9119 16.5646 21.92 16.0408 21.9038C15.5767 21.8898 15.2326 22.0673 14.9586 22.4386C14.3869 23.2151 13.8019 23.9828 13.2192 24.7519C12.4773 25.731 11.1645 25.7273 10.4226 24.7445C9.87968 24.0262 9.32788 23.3138 8.80187 22.583C8.46225 22.1108 8.04527 21.8831 7.44927 21.8979C6.51512 21.9215 5.57507 21.9583 4.6505 21.7505C2.23482 21.2083 0.383465 19.189 0.0725731 16.7468C0.0379476 16.4742 0.0158463 16.1979 0.0158463 15.9231C0.011426 13.2305 0.00700574 10.5378 0.0158463 7.84584C0.0232134 4.99108 1.95045 2.61298 4.73448 2.00592C5.15662 1.91384 5.58686 1.87184 6.01857 1.87111C7.49789 1.86816 8.97795 1.86963 10.4573 1.86963ZM11.8172 11.3762C11.1866 11.3784 10.6775 11.8896 10.6849 12.5129C10.6923 13.1317 11.2109 13.646 11.832 13.6526C12.4331 13.6585 12.9702 13.1111 12.9636 12.4982C12.9569 11.8683 12.4515 11.374 11.8165 11.3762H11.8172ZM5.99205 12.5055C5.99279 13.1362 6.50186 13.6541 7.11996 13.6526C7.7248 13.6519 8.27217 13.1008 8.2626 12.5033C8.25228 11.8683 7.75132 11.374 7.11922 11.3762C6.47312 11.3776 5.99132 11.8609 5.99205 12.5055V12.5055ZM17.6579 12.4923C17.6549 11.855 17.1613 11.3717 16.5167 11.3762C15.8979 11.3798 15.3859 11.8852 15.3873 12.4893C15.3888 13.1177 15.9259 13.6585 16.5425 13.6526C17.1591 13.6467 17.6601 13.1251 17.6571 12.4923H17.6579Z" fill="#5B9AF8"/>
<path d="M21.239 7.52091C19.4134 7.52091 18.0137 6.09685 17.971 4.28159C17.9378 2.87668 19.0244 1.03343 21.2353 0.993646C23.0204 0.961967 24.5483 2.49654 24.51 4.27938C24.4636 6.43426 22.6844 7.59458 21.239 7.52091Z" fill="#5B9AF8"/>
</svg>
