<svg width="25" height="26" viewBox="0 0 25 26" fill="none" xmlns="http://www.w3.org/2000/svg">
<path d="M0 21.4752C0.192134 20.3262 0.96067 19.5794 1.78346 18.8498C3.40415 17.4136 4.99995 15.9499 6.60596 14.4971C8.32368 12.9428 10.0401 11.3859 11.761 9.83545C11.8861 9.72246 11.9104 9.62927 11.8593 9.46841C10.6752 5.76425 12.9177 1.91838 16.7291 1.12622C17.6591 0.932813 18.5942 0.957069 19.523 1.16708C19.8351 1.23729 20.1019 1.37325 20.2028 1.69752C20.3075 2.03519 20.1868 2.31541 19.9398 2.56053C19.1815 3.31119 18.4321 4.07079 17.6731 4.82081C17.5346 4.95741 17.4867 5.08635 17.5308 5.28551C17.677 5.94489 17.8046 6.60874 17.9285 7.27323C17.961 7.44941 18.0395 7.52792 18.217 7.56112C18.8891 7.68495 19.56 7.81708 20.2277 7.96198C20.4077 8.00092 20.5271 7.95943 20.6515 7.83368C21.3964 7.0811 22.1465 6.33363 22.8971 5.58616C23.0612 5.42275 23.2297 5.26827 23.485 5.25551C23.8916 5.23508 24.1827 5.4336 24.2874 5.8517C24.6059 7.1194 24.5785 8.38327 24.124 9.60884C23.2271 12.0268 21.4769 13.4464 18.9415 13.8779C17.9553 14.0458 16.9735 13.9488 16.0212 13.6303C15.8603 13.5766 15.7665 13.6034 15.6535 13.7292C13.2483 16.3948 10.8387 19.0566 8.42964 21.7197C7.64451 22.5878 6.85554 23.4521 6.07488 24.324C5.51763 24.9464 4.82441 25.3198 4.01375 25.4902H2.86733C2.30497 25.3606 1.77836 25.1545 1.31749 24.7951C0.602573 24.2372 0.190857 23.498 0.000638319 22.6235V21.4771L0 21.4752ZM3.53629 22.6171C3.91736 22.6191 4.23014 22.321 4.23333 21.9527C4.23588 21.5952 3.90906 21.2594 3.55352 21.255C3.18521 21.2505 2.87626 21.5594 2.87243 21.9361C2.86797 22.3293 3.14691 22.6152 3.53692 22.6171H3.53629Z" fill="#5B9AF8"/>
</svg>
