<svg xmlns="http://www.w3.org/2000/svg" width="31" height="31" viewBox="0 0 31 31" fill="none">
  <path d="M18.2802 11.625C17.9484 11.625 17.6711 11.5136 17.4483 11.2909C17.2256 11.0682 17.1143 10.7884 17.1143 10.4514V5.69448C17.1143 5.35755 17.2265 5.07772 17.451 4.855C17.6755 4.63225 17.9536 4.52087 18.2855 4.52087H25.3128C25.6446 4.52087 25.9219 4.63225 26.1447 4.855C26.3674 5.07772 26.4788 5.35755 26.4788 5.69448V10.4514C26.4788 10.7884 26.3665 11.0682 26.142 11.2909C25.9175 11.5136 25.6394 11.625 25.3075 11.625H18.2802ZM5.68646 16.1458C5.35463 16.1458 5.07736 16.0344 4.85463 15.8116C4.63188 15.5887 4.52051 15.3127 4.52051 14.9833V5.68315C4.52051 5.35377 4.63275 5.07772 4.85725 4.855C5.08174 4.63225 5.35991 4.52087 5.69176 4.52087H12.7191C13.0509 4.52087 13.3282 4.63229 13.5509 4.85513C13.7737 5.07794 13.885 5.35403 13.885 5.68341V14.9835C13.885 15.3129 13.7728 15.589 13.5483 15.8117C13.3238 16.0344 13.0457 16.1458 12.7138 16.1458H5.68646ZM18.2802 26.4791C17.9484 26.4791 17.6711 26.3677 17.4483 26.1449C17.2256 25.9221 17.1143 25.646 17.1143 25.3166V16.0165C17.1143 15.6871 17.2265 15.4111 17.451 15.1883C17.6755 14.9656 17.9536 14.8542 18.2855 14.8542H25.3128C25.6446 14.8542 25.9219 14.9656 26.1447 15.1885C26.3674 15.4113 26.4788 15.6874 26.4788 16.0167V25.3169C26.4788 25.6462 26.3665 25.9223 26.142 26.145C25.9175 26.3678 25.6394 26.4791 25.3075 26.4791H18.2802ZM5.68646 26.4791C5.35463 26.4791 5.07736 26.3678 4.85463 26.145C4.63188 25.9223 4.52051 25.6425 4.52051 25.3055V20.5486C4.52051 20.2117 4.63275 19.9318 4.85725 19.7091C5.08174 19.4864 5.35991 19.375 5.69176 19.375H12.7191C13.0509 19.375 13.3282 19.4864 13.5509 19.7091C13.7737 19.9318 13.885 20.2117 13.885 20.5486V25.3055C13.885 25.6425 13.7728 25.9223 13.5483 26.145C13.3238 26.3678 13.0457 26.4791 12.7138 26.4791H5.68646Z" fill="#5B9AF8"/>
</svg>