<svg width="18px" height="18px" viewBox="0 0 13 9" xmlns="http://www.w3.org/2000/svg" class="svg-icon " xmlns:xlink="http://www.w3.org/1999/xlink"><path d="M9.28555 7.14307V8.21449C9.28555 8.41174 9.12566 8.57163 8.92841 8.57163H3.92843C3.73118 8.57163 3.57129 8.41174 3.57129 8.21449V7.14307H9.28555Z" fill="#5E6977"></path><path d="M11.4287 1.42871H1.42871V5.71441H4.28584C4.68034 5.71441 5.00012 6.03419 5.00012 6.42869V7.14297H7.85725V6.42869C7.85725 6.03419 8.17704 5.71441 8.57154 5.71441H11.4287V1.42871Z" fill="white" fill-opacity="0.6"></path><path d="M11.3445 0H1.5126C0.677215 0 0 0.639604 0 1.42857V5.71426C0 6.50322 0.677215 7.14283 1.5126 7.14283H4.99998V6.42854C4.99998 6.03405 4.68019 5.71426 4.2857 5.71426H1.42857V1.42857H2.85713V2.14285C2.85713 2.53735 3.17692 2.85713 3.57141 2.85713C3.96591 2.85713 4.2857 2.53735 4.2857 2.14285V1.42857H5.71426V2.14285C5.71426 2.53735 6.03405 2.85713 6.42854 2.85713C6.82304 2.85713 7.14283 2.53735 7.14283 2.14285V1.42857H8.57139V2.14285C8.57139 2.53735 8.89118 2.85713 9.28568 2.85713C9.68017 2.85713 9.99996 2.53735 9.99996 2.14285V1.42857H11.4285V5.71426H8.57139C8.1769 5.71426 7.85711 6.03405 7.85711 6.42854V7.14283H11.3445C12.1799 7.14283 12.8571 6.50322 12.8571 5.71426V1.42857C12.8571 0.639604 12.1799 0 11.3445 0Z" fill="#5E6977"></path></svg>