<?xml version="1.0" encoding="UTF-8" standalone="no"?>
<svg
   xmlns:dc="http://purl.org/dc/elements/1.1/"
   xmlns:cc="http://creativecommons.org/ns#"
   xmlns:rdf="http://www.w3.org/1999/02/22-rdf-syntax-ns#"
   xmlns:svg="http://www.w3.org/2000/svg"
   xmlns="http://www.w3.org/2000/svg"
   xmlns:sodipodi="http://sodipodi.sourceforge.net/DTD/sodipodi-0.dtd"
   xmlns:inkscape="http://www.inkscape.org/namespaces/inkscape"
   version="1.1"
   x="0px"
   y="0px"
   viewBox="0 0 16 16"
   enable-background="new 0 0 80 80"
   xml:space="preserve"
   id="svg30"
   sodipodi:docname="divi-ultimate-carousel-logo-blue.svg"
   width="16"
   height="16"
   style="margin-top: 5px;"
   inkscape:version="0.92.5 (2060ec1f9f, 2020-04-08)"><metadata
     id="metadata36"><rdf:RDF><cc:Work
         rdf:about=""><dc:format>image/svg+xml</dc:format><dc:type
           rdf:resource="http://purl.org/dc/dcmitype/StillImage" /><dc:title></dc:title></cc:Work></rdf:RDF></metadata><defs
     id="defs34" /><sodipodi:namedview
     pagecolor="#ffffff"
     bordercolor="#666666"
     borderopacity="1"
     objecttolerance="10"
     gridtolerance="10"
     guidetolerance="10"
     inkscape:pageopacity="0"
     inkscape:pageshadow="2"
     inkscape:window-width="3744"
     inkscape:window-height="2038"
     id="namedview32"
     showgrid="false"
     inkscape:zoom="5.6568542"
     inkscape:cx="92.326896"
     inkscape:cy="-84.979415"
     inkscape:window-x="96"
     inkscape:window-y="54"
     inkscape:window-maximized="1"
     inkscape:current-layer="svg30" /><g
     id="g4"
     transform="matrix(0.31126432,0,0,0.31066902,-4.2949406,-4.2714263)"
     style="fill:#2b87da;fill-opacity:1;stroke:#2b87da;stroke-width:1.42780641;stroke-miterlimit:4;stroke-dasharray:none;stroke-opacity:1;"><path
       d="M 64,52 H 15 V 15 H 64 Z M 17,50 H 62 V 17 H 17 Z"
       id="path2"
       inkscape:connector-curvature="0"
       style="fill:#2b87da;fill-opacity:1;stroke:#2b87da;stroke-width:1.42780641;stroke-miterlimit:4;stroke-dasharray:none;stroke-opacity:1" /></g><g
     id="g8"
     transform="matrix(0.31126432,0,0,0.31066902,-4.2949406,-4.2714263)"
     style="fill:#2b87da;fill-opacity:1;stroke:#2b87da;stroke-width:1.42780641;stroke-miterlimit:4;stroke-dasharray:none;stroke-opacity:1"><path
       d="M 48.8,43 H 30.2 c -0.8,0 -1.5,-0.4 -1.8,-1.2 -0.3,-0.7 -0.2,-1.5 0.3,-2.1 l 3.6,-4.1 c 0.7,-0.8 2.1,-0.9 2.9,-0.1 l 1.7,1.7 0.1,-0.1 4.6,-4.6 c 0.8,-1 2.4,-0.9 3.1,0.1 l 5.6,7.2 c 0.5,0.6 0.5,1.4 0.2,2.1 -0.3,0.7 -1,1.1 -1.7,1.1 z m -15,-6.1 -3.6,4.1 h 18.6 l -5.6,-7.2 -0.1,0.1 -4.6,4.6 c -0.7,0.9 -2.1,0.9 -2.9,0.1 z"
       id="path6"
       inkscape:connector-curvature="0"
       style="fill:#2b87da;fill-opacity:1;stroke:#2b87da;stroke-width:1.42780641;stroke-miterlimit:4;stroke-dasharray:none;stroke-opacity:1" /></g><g
     id="g12"
     transform="matrix(0.31126432,0,0,0.31066902,-4.2949406,-4.2714263)"
     style="fill:#2b87da;fill-opacity:1;stroke:#2b87da;stroke-width:1.42780641;stroke-miterlimit:4;stroke-dasharray:none;stroke-opacity:1"><path
       d="m 33,32 c -2.2,0 -4,-1.8 -4,-4 0,-2.2 1.8,-4 4,-4 2.2,0 4,1.8 4,4 0,2.2 -1.8,4 -4,4 z m 0,-6 c -1.1,0 -2,0.9 -2,2 0,1.1 0.9,2 2,2 1.1,0 2,-0.9 2,-2 0,-1.1 -0.9,-2 -2,-2 z"
       id="path10"
       inkscape:connector-curvature="0"
       style="fill:#2b87da;fill-opacity:1;stroke:#2b87da;stroke-width:1.42780641;stroke-miterlimit:4;stroke-dasharray:none;stroke-opacity:1" /></g><g
     id="g16"
     transform="matrix(0.31126432,0,0,0.31066902,-4.2949406,-4.2714263)"
     style="fill:#2b87da;fill-opacity:1;stroke:#2b87da;stroke-width:1.42780641;stroke-miterlimit:4;stroke-dasharray:none;stroke-opacity:1"><path
       d="m 28,64 c -2.2,0 -4,-1.8 -4,-4 0,-2.2 1.8,-4 4,-4 2.2,0 4,1.8 4,4 0,2.2 -1.8,4 -4,4 z m 0,-6 c -1.1,0 -2,0.9 -2,2 0,1.1 0.9,2 2,2 1.1,0 2,-0.9 2,-2 0,-1.1 -0.9,-2 -2,-2 z"
       id="path14"
       inkscape:connector-curvature="0"
       style="fill:#2b87da;fill-opacity:1;stroke:#2b87da;stroke-width:1.42780641;stroke-miterlimit:4;stroke-dasharray:none;stroke-opacity:1" /></g><g
     id="g20"
     transform="matrix(0.31126432,0,0,0.31066902,-4.2949406,-4.2714263)"
     style="fill:#2b87da;fill-opacity:1;stroke:#2b87da;stroke-width:1.42780641;stroke-miterlimit:4;stroke-dasharray:none;stroke-opacity:1"><path
       d="m 50,64 c -2.2,0 -4,-1.8 -4,-4 0,-2.2 1.8,-4 4,-4 2.2,0 4,1.8 4,4 0,2.2 -1.8,4 -4,4 z m 0,-6 c -1.1,0 -2,0.9 -2,2 0,1.1 0.9,2 2,2 1.1,0 2,-0.9 2,-2 0,-1.1 -0.9,-2 -2,-2 z"
       id="path18"
       inkscape:connector-curvature="0"
       style="fill:#2b87da;fill-opacity:1;stroke:#2b87da;stroke-width:1.42780641;stroke-miterlimit:4;stroke-dasharray:none;stroke-opacity:1" /></g><g
     id="g24"
     transform="matrix(0.31126432,0,0,0.31066902,-4.2949406,-4.2714263)"
     style="fill:#2b87da;fill-opacity:1;stroke:#2b87da;stroke-width:1.42780641;stroke-miterlimit:4;stroke-dasharray:none;stroke-opacity:1"><circle
       cx="39"
       cy="60"
       r="4"
       id="circle22"
       style="fill:#2b87da;fill-opacity:1;stroke:#2b87da;stroke-width:1.42780641;stroke-miterlimit:4;stroke-dasharray:none;stroke-opacity:1" /></g></svg>