<svg width="85" height="85" viewBox="0 0 85 85" fill="none" xmlns="http://www.w3.org/2000/svg">
<circle cx="42.5" cy="42.5" r="42.5" fill="#FEF7FA"/>
<path d="M42.3524 61L19 35.0936L27.1127 23H57.2321L65.3291 35.0705L42.3524 61Z" fill="#FF3997"/>
<path d="M42.3582 60.9934L65.329 35.0705L57.2321 23H42.3582V60.9934Z" fill="#D6298C"/>
<path d="M19 35.0938L42.3524 61.0001L65.264 35.1445L19 35.0938Z" fill="#FF5CA8"/>
<path d="M42.358 35.1191V60.9933L65.264 35.1442L42.358 35.1191Z" fill="#FF3997"/>
<path d="M42.3523 61.0002L32.7462 35.1445H51.6386L42.3523 61.0002Z" fill="#FF3997"/>
<path d="M51.6387 35.1443H32.7462L42.3586 23L51.6387 35.1443Z" fill="#D6298C"/>
<path d="M19 35.0936L32.7463 35.1443L27.1127 23L19 35.0936Z" fill="#D6298C"/>
<path d="M65.3849 35.0936L51.6387 35.1443L57.2724 23L65.3849 35.0936Z" fill="#FF5CA8"/>
<path d="M42.3582 35.1445V60.9841L51.6388 35.1445H42.3582Z" fill="#D6298C"/>
<path d="M42.3582 23.001V35.1443H51.6388L42.3582 23.001Z" fill="#BF1B81"/>
<path d="M65.385 35.0936L51.6388 35.1443L57.2725 23L65.385 35.0936Z" fill="#BF1B81"/>
</svg>
