<?xml version="1.0" encoding="UTF-8"?>
<svg data-name="Layer 2" xmlns="http://www.w3.org/2000/svg" viewBox="0 0 43.03 39.12">
  <defs>
  </defs>
  <g>
    <path style="fill: #fc915c;" d="m15.09,26.02c-.2.08-.35.19-.49.33-.14.14-.23.29-.31.47s-.12.37-.12.57c0,.39.16.76.43,1.04.14.14.31.23.49.31.18.08.35.12.55.12s.39-.04.57-.12.33-.18.47-.31c.29-.28.43-.65.43-1.04s-.16-.76-.43-1.04c-.39-.41-1.06-.55-1.58-.33Zm7.45.33c-.12-.14-.29-.25-.47-.31-.35-.16-.76-.16-1.11,0-.18.06-.35.18-.49.31-.12.12-.23.29-.31.47s-.12.37-.12.57c0,.39.16.74.43,1.04.14.14.31.23.49.31.18.08.37.12.55.12.41,0,.76-.16,1.04-.43.29-.29.43-.65.43-1.04,0-.2-.04-.39-.1-.57-.08-.18-.19-.35-.33-.47Zm4.83,2.5c.41,0,.76-.16,1.04-.43.29-.29.45-.65.45-1.04s-.18-.76-.45-1.04c-.12-.14-.29-.25-.47-.33-.35-.14-.76-.14-1.11,0-.18.08-.35.19-.49.33-.28.28-.43.65-.43,1.04s.16.74.43,1.04c.29.27.65.43,1.04.43ZM15.65,0h-3.91C7.42,0,3.91,3.51,3.91,7.82v8.14c0,.91-.74,1.64-1.64,1.64h-.32c-1.08,0-1.96.87-1.96,1.96s.87,1.96,1.96,1.96h.32c.9,0,1.64.74,1.64,1.64v8.14c0,4.31,3.51,7.82,7.82,7.82h3.91c1.08,0,1.96-.87,1.96-1.96s-.87-1.96-1.96-1.96h-3.91c-2.16,0-3.91-1.76-3.91-3.91v-8.14c0-1.38-.52-2.62-1.36-3.59.83-.97,1.36-2.22,1.36-3.6V7.82c0-2.16,1.76-3.91,3.91-3.91h3.91c1.08,0,1.96-.87,1.96-1.96s-.87-1.96-1.96-1.96Zm25.43,17.6h-.32c-.9,0-1.64-.74-1.64-1.64V7.82c0-4.31-3.51-7.82-7.82-7.82h-3.91c-1.08,0-1.96.87-1.96,1.96s.87,1.96,1.96,1.96h3.91c2.16,0,3.91,1.76,3.91,3.91v8.14c0,1.38.52,2.62,1.36,3.6-.83.97-1.36,2.22-1.36,3.59v8.14c0,2.16-1.76,3.91-3.91,3.91h-3.91c-1.08,0-1.96.87-1.96,1.96s.87,1.96,1.96,1.96h3.91c4.31,0,7.82-3.51,7.82-7.82v-8.14c0-.9.74-1.64,1.64-1.64h.32c1.08,0,1.96-.87,1.96-1.96s-.87-1.96-1.96-1.96Z"/>
  </g>
</svg>