<?xml version="1.0" encoding="utf-8"?>
<!-- Generator: Adobe Illustrator 27.0.1, SVG Export Plug-In . SVG Version: 6.00 Build 0)  -->
<svg version="1.1" id="Warstwa_1" xmlns="http://www.w3.org/2000/svg" xmlns:xlink="http://www.w3.org/1999/xlink" x="0px" y="0px"
	 viewBox="0 0 117 100" style="enable-background:new 0 0 117 100;" xml:space="preserve">
<style type="text/css">
	.st0{fill:url(#SVGID_1_);}
	.st1{fill:#3A3A3A;}
	.st2{fill:none;stroke:#FFFFFF;stroke-width:0.25;stroke-miterlimit:10;}
	.st3{fill:url(#SVGID_00000109741907482853208030000003034084373618176909_);}
	.st4{fill:#A43DFF;}
	.st5{fill:#FD925C;}
	.st6{fill:#1D1D1B;}
	.st7{fill:url(#SVGID_00000177453492731050956160000002377821081934701460_);}
	.st8{fill:#FFFFFF;}
	.st9{fill:url(#SVGID_00000163778557540255731370000015408306780752029604_);}
</style>
<linearGradient id="SVGID_1_" gradientUnits="userSpaceOnUse" x1="1229.0848389" y1="619.4233398" x2="1229.0848389" y2="577.897583" gradientTransform="matrix(-1 0 0 -1 1300.7589111 636.0043945)">
	<stop  offset="0" style="stop-color:#992FEC"/>
	<stop  offset="0.4060246" style="stop-color:#972EEA"/>
	<stop  offset="0.6005542" style="stop-color:#8F2CE2"/>
	<stop  offset="0.7501129" style="stop-color:#8227D5"/>
	<stop  offset="0.8758316" style="stop-color:#7021C3"/>
	<stop  offset="0.9868209" style="stop-color:#5819AB"/>
	<stop  offset="1" style="stop-color:#5518A8"/>
</linearGradient>
<path class="st0" d="M58.4387436,53.882534c-0.0041504,0-0.0093422,0-0.0145302,0
	c-2.2220802-0.003437-4.32584-0.7305298-6.0634956-2.0525818c4.5157738,3.8410263,9.014843,6.9919243,15.3533707,6.1351624
	c4.71595-0.6374474,10.4583206-3.9978638,13.6480865-7.0579567l3.9285965-3.9287262
	c6.4944687-6.492981,7.4820023-16.7032833,2.725708-24.3091183l0.0451431,0.0311356c0,0-0.0788727-0.1123486-0.2110748-0.2996197
	c-0.2746429-0.4234505-0.5714722-0.8351612-0.882576-1.2405796c-0.9216309-1.2876072-2.2630768-3.1372204-3.3813782-4.5792103
	l0.3688278,2.3248272c0.7010803,5.8834248-0.2368927,12.16189-4.116188,17.5921535
	c-0.1995316,0.2545395-0.7239151,0.9129372-1.1580048,1.3715439L65.5606079,50.9323921
	C63.6571541,52.8353233,61.1289024,53.882534,58.4387436,53.882534z"/>
<g>
	<path class="st1" d="M17.5370083,85.6690521c0.1556816,0,0.2989063,0.0487823,0.429678,0.147377
		c0.129734,0.0975571,0.1951199,0.2438965,0.1951199,0.4390182c0,0.0788803-0.012455,0.1639862-0.0384007,0.2542801
		l-4.320652,12.512558c-0.0394392,0.1172791-0.1110525,0.2086105-0.2158775,0.2739944
		c-0.1037865,0.0653915-0.2086115,0.0975647-0.3123989,0.0975647c-0.1307716,0-0.2480507-0.0290604-0.3518372-0.0882187
		c-0.104825-0.0581207-0.1826658-0.1525726-0.2345591-0.2833405l-3.4602585-8.5634613l0.1556807,0.0394363l-3.460258,8.524025
		c-0.0518932,0.1307678-0.1338849,0.2252197-0.2438993,0.2833405c-0.111052,0.0591583-0.2252178,0.0882187-0.3424969,0.0882187
		c-0.104825,0-0.208612-0.0321732-0.3123989-0.0975647c-0.104825-0.0653839-0.1764379-0.1567154-0.214839-0.2739944
		l-4.3206525-12.512558c-0.0269846-0.0902939-0.0394391-0.1691742-0.0394391-0.2345581
		c0-0.1951218,0.071613-0.344574,0.2148391-0.4494019c0.143226-0.1037827,0.2864521-0.1567154,0.4296781-0.1567154
		c0.1307716,0,0.2480509,0.0332108,0.3528757,0.0985947c0.1037871,0.0653915,0.1754,0.1556854,0.2148391,0.2729645
		l3.9293752,11.4570465l-0.214839,0.0197144l3.4011002-8.4856186c0.0394382-0.1172867,0.1079378-0.211731,0.2054977-0.2833405
		c0.0975599-0.0716171,0.2117252-0.1006775,0.3424969-0.0882187c0.129734-0.0124588,0.2438993,0.0166016,0.3424969,0.0882187
		c0.0975599,0.0716095,0.172287,0.1660538,0.2241802,0.2833405l3.3429785,8.4461823l-0.1951189,0.0778427l3.9096546-11.5151672
		c0.0394402-0.1172791,0.1110535-0.2075729,0.2158775-0.2729645C17.2692375,85.7022629,17.3927441,85.6690521,17.5370083,85.6690521
		z"/>
	<path class="st1" d="M32.6483955,85.7084885c0.7306595,0,1.3751755,0.1660614,1.935627,0.4981766
		c0.5604477,0.3331604,1.0036201,0.7919006,1.3295097,1.3782959s0.4888382,1.2651596,0.4888382,2.0331879
		c0,0.7431107-0.1629486,1.4177246-0.4888382,2.0238419s-0.769062,1.0856171-1.3295097,1.4374542
		c-0.5604515,0.3518372-1.2049675,0.5272369-1.935627,0.5272369H28.504179l0.0975609-0.1753998v5.3761673
		c0,0.1567154-0.0581207,0.2926788-0.1753998,0.4099579s-0.2542782,0.1764374-0.4109974,0.1764374
		c-0.1826649,0-0.3258915-0.0591583-0.429678-0.1764374c-0.1048241-0.1172791-0.1567192-0.2532425-0.1567192-0.4099579V86.2948837
		c0-0.1567154,0.0550079-0.2926788,0.1660595-0.4099579c0.1110535-0.1172791,0.2511654-0.1764374,0.4203377-0.1764374H32.6483955z
		 M32.6483955,92.4733276c0.5085564,0,0.951725-0.1276627,1.3295097-0.3819351
		c0.3777847-0.2542801,0.674614-0.5988541,0.8894539-1.0357971c0.2158775-0.4369431,0.3227768-0.9153976,0.3227768-1.4374466
		c0-0.5469589-0.1068993-1.0264587-0.3227768-1.4364166c-0.2148399-0.4109955-0.5116692-0.7327347-0.8894539-0.9683304
		c-0.3777847-0.2345581-0.8209534-0.3518372-1.3295097-0.3518372H28.504179l0.0975609-0.1556778v5.8847198l-0.1172791-0.1172791
		H32.6483955z"/>
	<path class="st1" d="M54.7986145,85.7084885c0.287487,0,0.5708275,0.1048279,0.8510513,0.3124008
		c0.2802238,0.2086105,0.4203377,0.4888382,0.4203377,0.8406754c0,0.2480469-0.0913315,0.4961014-0.2739983,0.7431107
		l-7.4871941,9.6189804l-0.2345581-0.0778427h6.5292397c0.3393822,0,0.6227226,0.1006775,0.8510551,0.3030624
		c0.2272911,0.2023849,0.3414574,0.472229,0.3414574,0.8105774c0,0.3258896-0.1141663,0.5967712-0.3414574,0.811615
		c-0.2283325,0.2148361-0.511673,0.3227768-0.8510551,0.3227768H46.021347c-0.3393822,0-0.6330986-0.1203918-0.8801117-0.3611832
		c-0.2480545-0.2418213-0.3715591-0.5054398-0.3715591-0.791893c0-0.2480469,0.0913315-0.4950638,0.2739983-0.7431107
		l7.5069122-9.6584167l0.1764374,0.1172791h-5.92416c-0.339386,0-0.6227226-0.1037903-0.8500175-0.3124008
		c-0.2283287-0.2086105-0.342495-0.4826126-0.342495-0.8209534c0-0.339386,0.1141663-0.60923,0.342495-0.811615
		c0.2272949-0.2023849,0.5106316-0.3030624,0.8500175-0.3030624H54.7986145z"/>
	<path class="st1" d="M77.5559845,92.5511703c0,0.9776688-0.1629486,1.8899536-0.4888382,2.7368622
		c-0.3258896,0.8479385-0.7856674,1.5931244-1.3782883,2.2386856c-0.5936661,0.6455536-1.2973404,1.1509933-2.1110306,1.5152893
		c-0.8147278,0.3642883-1.7052155,0.5469513-2.6693954,0.5469513c-0.9641876,0-1.8505249-0.182663-2.6590271-0.5469513
		c-0.8074646-0.364296-1.5080261-0.8697357-2.1016846-1.5152893c-0.5926208-0.6455612-1.0523987-1.3907471-1.3772507-2.2386856
		c-0.3258972-0.8469086-0.4888382-1.7591934-0.4888382-2.7368622c0-0.9776764,0.162941-1.8899612,0.4888382-2.7368698
		c0.324852-0.8469009,0.7846298-1.5931244,1.3772507-2.2386856c0.5936584-0.6455536,1.29422-1.1499557,2.1016846-1.5152893
		c0.8085022-0.3642883,1.6948395-0.5469513,2.6590271-0.5469513c0.96418,0,1.8546677,0.182663,2.6693954,0.5469513
		c0.8136902,0.3653336,1.5173645,0.8697357,2.1110306,1.5152893c0.5926208,0.6455612,1.0523987,1.3917847,1.3782883,2.2386856
		C77.3930359,90.6612091,77.5559845,91.573494,77.5559845,92.5511703z M75.0142441,92.5511703
		c0-0.8728561-0.1753998-1.6647491-0.5282745-2.3756866c-0.3518448-0.7099075-0.8334122-1.273468-1.445755-1.6906891
		c-0.6133804-0.4172287-1.323288-0.6258392-2.1317825-0.6258392c-0.8085022,0-1.5184097,0.2086105-2.1307526,0.6258392
		c-0.6123428,0.4172211-1.091835,0.9776688-1.4374466,1.6813507c-0.344574,0.7036743-0.5178986,1.4986801-0.5178986,2.385025
		c0,0.8728485,0.1733246,1.6647415,0.5178986,2.375679c0.3456116,0.7099075,0.8251038,1.273468,1.4374466,1.6906891
		c0.6123428,0.4172287,1.3222504,0.6258392,2.1307526,0.6258392c0.8084946,0,1.5184021-0.2086105,2.1317825-0.6258392
		c0.6123428-0.4172211,1.0939102-0.9807816,1.445755-1.6906891C74.8388443,94.2159119,75.0142441,93.4240189,75.0142441,92.5511703z
		"/>
	<path class="st1" d="M97.0274582,85.7084885c0.3134384,0,0.5677185,0.1048279,0.7628403,0.3124008
		c0.1951141,0.2086105,0.2937164,0.4691162,0.2937164,0.7825546v11.3978882c0,0.3393784-0.1152039,0.6227188-0.3424988,0.8500137
		c-0.2283325,0.2283325-0.511673,0.3424988-0.8510513,0.3424988c-0.1691742,0-0.3414612-0.0290604-0.5178986-0.0882187
		c-0.1753998-0.0581207-0.309288-0.1401138-0.4006195-0.2439041l-7.6833496-9.7559738l0.5085602-0.3124008v9.305542
		c0,0.3134384-0.1017151,0.5739441-0.3030624,0.7825546c-0.2023849,0.2086105-0.4660034,0.3124008-0.791893,0.3124008
		c-0.3124008,0-0.5666809-0.1037903-0.7628326-0.3124008c-0.1951218-0.2086105-0.2926788-0.4691162-0.2926788-0.7825546V86.901001
		c0-0.3383408,0.1141663-0.6216812,0.3414536-0.8500137c0.2283325-0.2283325,0.511673-0.3424988,0.851059-0.3424988
		c0.182663,0,0.3715515,0.0363312,0.5666733,0.1079407s0.339386,0.1785126,0.4307175,0.3217392l7.4477539,9.5017014
		l-0.3321228,0.2345581v-9.0709839c0-0.3134384,0.0975647-0.5739441,0.2937241-0.7825546
		C96.4410629,85.8133163,96.7015686,85.7084885,97.0274582,85.7084885z"/>
	<path class="st1" d="M109.0511856,85.7084885h6.5489578c0.339386,0,0.6227188,0.1079407,0.8510513,0.3227768
		c0.2272949,0.2148438,0.3414612,0.491951,0.3414612,0.8302994c0,0.3258896-0.1141663,0.5905457-0.3414612,0.791893
		c-0.2283325,0.2023849-0.5116653,0.3030624-0.8510513,0.3030624h-5.4737244l0.1753998-0.3321228v3.8120956l-0.1556854-0.1556778
		h4.5749359c0.3383408,0,0.6216812,0.1069031,0.8500137,0.3217392c0.2283325,0.2158737,0.3424988,0.4929886,0.3424988,0.8313293
		c0,0.3258972-0.1141663,0.5895157-0.3424988,0.7919006s-0.511673,0.3030548-0.8500137,0.3030548h-4.5168152l0.0975647-0.1567154
		v3.9490891l-0.1556854-0.1753998h5.45401c0.339386,0,0.6227188,0.1141663,0.8510513,0.3414612
		c0.2272949,0.2283325,0.3414612,0.4929886,0.3414612,0.791893c0,0.3258972-0.1141663,0.5936661-0.3414612,0.8022766
		c-0.2283325,0.2086105-0.5116653,0.3124008-0.8510513,0.3124008h-6.5489578c-0.339386,0-0.6227264-0.1141663-0.8510513-0.3424988
		c-0.2272949-0.2272949-0.3414612-0.5106354-0.3414612-0.8500137V86.901001c0-0.3383408,0.1141663-0.6216812,0.3414612-0.8500137
		C108.4284592,85.8226547,108.7117996,85.7084885,109.0511856,85.7084885z"/>
</g>
<linearGradient id="SVGID_00000135657907041835873490000011637200349657247114_" gradientUnits="userSpaceOnUse" x1="45.3118973" y1="48.7779007" x2="45.3118973" y2="7.583396">
	<stop  offset="0" style="stop-color:#EC8444"/>
	<stop  offset="0.2770093" style="stop-color:#E98243"/>
	<stop  offset="0.5039416" style="stop-color:#DF7B3F"/>
	<stop  offset="0.7131113" style="stop-color:#CD6E38"/>
	<stop  offset="0.9105464" style="stop-color:#B65E2E"/>
	<stop  offset="1" style="stop-color:#A85429"/>
</linearGradient>
<path style="fill:url(#SVGID_00000135657907041835873490000011637200349657247114_);" d="M58.5472221,11.4764051
	c0.0041542,0,0.0093422,0,0.0145302,0c2.2220802,0.003438,4.3258438,0.7305307,6.0634995,2.0525827
	C60.109478,9.6879606,54.5651779,6.8814096,48.2266464,7.7381711c-4.7159538,0.6374469-9.4130898,3.6535182-12.6028557,6.713613
	l-3.9285965,3.9287262c-6.4944706,6.492979-7.4820042,16.7032833-2.7257061,24.3091183l-0.0451469-0.0311356
	c0,0,0.0788784,0.1123466,0.2110767,0.2996178c0.2746468,0.4234505,0.5714779,0.8351631,0.8825798,1.2405815
	c0.921627,1.2876053,2.263073,3.1372185,3.3813782,4.5792084l-0.3688316-2.3248253
	C32.329464,40.5696487,33.267437,34.2911835,37.1467361,28.86092c0.1995316-0.2545376,0.7239151-0.9129353,1.1580048-1.3715439
	l13.1206207-13.0628252C53.3288116,12.5236158,55.8570633,11.4764051,58.5472221,11.4764051z"/>
<path class="st4" d="M43.3823662,58.7797241c4.0072136,4.0300484,9.3429031,6.253685,15.0262794,6.2619858
	c0.0103798,0,0.0207558,0,0.0311356,0c5.6698837,0,11.0003815-2.208065,15.0107117-6.2183952l7.4055939-7.4059143
	l-0.0020752-0.0019455l0.5081635-0.508297c-3.1897659,3.0600929-7.3360519,5.180851-12.052002,5.8182983
	c-6.3385315,0.8567619-12.4336815-1.0544777-16.9494553-4.895504c0.0002594,0.0001297,0.0005188,0.0003242,0.0006485,0.0004539
	c-0.3711662-0.2823639-0.7315674-0.5822449-1.0662804-0.9187737c-3.9034271-3.9267807-3.8940887-10.3070869,0.0207558-14.2224503
	l11.0221786-11.0221767c2.1795273-2.1790085,2.1795273-5.711916,0-7.8909245
	c-1.088726-1.0892448-2.5168343-1.6341267-3.9449425-1.6341267s-2.8562164,0.5448818-3.9449425,1.6341267L43.4259567,28.7982597
	C35.1717758,37.0524368,35.1520576,50.5016747,43.3823662,58.7797241z"/>
<path class="st5" d="M73.6035995,6.5792165c-4.0072174-4.0300484-9.3429031-6.253685-15.0262794-6.2619877
	c-0.010376,0-0.0207558,0-0.0311356,0c-5.6698837,0-11.0003815,2.2080679-15.0107117,6.2183971l-7.4055901,7.4059148
	l0.0020752,0.0019464l-0.5081673,0.508297c3.1897659-3.0600948,7.3360558-5.1808519,12.0520058-5.8182993
	c6.3385315-0.856761,12.4336815,1.0544758,16.9494553,4.895503c-0.0002594-0.0001297-0.0005188-0.0003242-0.0006485-0.0004539
	c0.3711624,0.2823648,0.7315674,0.5822449,1.0662766,0.9187737c3.9034271,3.9267807,3.8940887,10.307085-0.020752,14.2224503
	L54.6479454,39.6919365c-2.1795273,2.1790085-2.1795273,5.7119141,0,7.8909225
	c1.088726,1.0892448,2.5168343,1.6341286,3.9449425,1.6341286c1.428112,0,2.8562202-0.5448837,3.9449463-1.6341286
	l11.0221786-11.0221786C81.8141861,28.3065033,81.8339081,14.8572664,73.6035995,6.5792165z"/>
</svg>
