<svg width="180" height="48" viewBox="0 0 180 48" fill="none" xmlns="http://www.w3.org/2000/svg">
<path d="M47.8787 34.6876C47.6968 34.6876 47.541 34.6096 47.4112 34.4798C47.2813 34.3239 47.2034 34.1421 47.2034 33.9344V17.7275C47.2034 17.4938 47.2813 17.286 47.4112 17.1561C47.541 17.0263 47.6968 16.9484 47.8787 16.9484H53.8004C56.008 16.9484 57.6183 17.312 58.5793 17.9873C59.4883 18.6625 59.9558 19.8313 59.9558 21.4935V21.7013C59.9558 23.1818 59.5143 24.2986 58.6312 24.9739C58.4754 25.1037 58.3715 25.2596 58.3975 25.4414C58.3975 25.6232 58.5014 25.779 58.7092 25.9089C59.8779 26.6361 60.4753 27.9347 60.4753 29.7788V30.0385C60.4753 31.7267 60.0078 32.9474 59.0728 33.6487C58.1118 34.3499 56.5015 34.7135 54.2679 34.7135H47.8787V34.6876ZM50.7096 26.7919C50.2421 26.7919 49.9564 27.1036 49.9564 27.5711V31.2332C49.9564 31.7267 50.2421 32.0124 50.7096 32.0124H54.5016C55.6964 32.0124 56.5015 31.8306 56.943 31.441C57.4105 31.0514 57.6183 30.3761 57.6183 29.4931V29.2333C57.6183 28.4022 57.3586 27.8049 56.8911 27.3893C56.4236 26.9997 55.6184 26.7919 54.5016 26.7919H50.7096ZM50.7096 19.6235C50.2421 19.6235 49.9564 19.9092 49.9564 20.3767V23.7532C49.9564 24.2466 50.2421 24.5323 50.7096 24.5323H54.112C55.2288 24.5323 55.982 24.3505 56.4495 23.9609C56.9171 23.5713 57.1508 22.974 57.1508 22.1948V21.9611C57.1508 21.1299 56.9171 20.5326 56.4495 20.143C56.008 19.7794 55.2029 19.5976 54.0081 19.5976H50.7096V19.6235Z" fill="#303042"/>
<path d="M68.1893 34.8174C66.1375 34.8174 64.6571 34.3499 63.8519 33.4409C63.0208 32.5318 62.6052 30.7657 62.6052 28.1944V27.675C62.6052 25.1297 63.0208 23.3636 63.8259 22.4545C64.6311 21.5455 66.0596 21.1039 68.1114 21.1039H68.3451C70.371 21.1039 71.7995 21.4676 72.6306 22.2208C73.4357 22.948 73.8253 24.3245 73.8253 26.3504V27.0257C73.8253 27.7269 73.6955 28.1944 73.4098 28.4801C73.15 28.7398 72.7085 28.8957 72.1111 28.8957H66.0596C65.5921 28.8957 65.3323 29.2074 65.3323 29.6749C65.3323 30.6618 65.5401 31.3371 65.9816 31.7527C66.3972 32.1682 67.1244 32.35 68.1893 32.35H68.5529C69.3581 32.35 70.2931 32.2202 71.28 31.9864C72.5786 31.6747 72.7864 31.6488 72.8124 31.6488C73.15 31.6488 73.3838 31.7786 73.3838 32.35V33.3629C73.3838 33.6746 73.3318 33.9084 73.202 34.0382C73.0721 34.1681 72.8384 34.298 72.5527 34.3759C71.28 34.7135 69.9295 34.8693 68.5269 34.8693H68.1893V34.8174ZM68.0335 23.4415C67.0205 23.4415 66.3453 23.6492 65.9557 24.0908C65.5661 24.5063 65.3583 25.2336 65.3583 26.2725C65.3583 26.5322 65.4102 26.714 65.5141 26.8439C65.618 26.9737 65.7998 27.0257 66.0596 27.0257H70.397C70.8645 27.0257 71.1242 26.74 71.1242 26.2725C71.1242 25.1816 70.9424 24.4284 70.5788 24.0388C70.1892 23.6233 69.4879 23.4415 68.3711 23.4415H68.0335Z" fill="#303042"/>
<path d="M81.5138 34.8174C79.9035 34.8174 78.7608 34.3759 78.1374 33.5448C77.4621 32.6617 77.1245 30.9735 77.1245 28.5061V24.6622C77.1245 24.1687 76.8388 23.883 76.3973 23.883H76.0856C75.8778 23.883 75.722 23.8311 75.6181 23.7012C75.4882 23.5713 75.4363 23.3895 75.4363 23.1298V22.013C75.4363 21.7792 75.4882 21.5715 75.6181 21.4156C75.748 21.2858 75.8778 21.2078 76.0856 21.2078H76.4232C76.8648 21.2078 77.1505 20.9222 77.1505 20.4546V18.9223C77.1505 18.6885 77.2024 18.4807 77.3323 18.3249C77.4621 18.195 77.618 18.1171 77.8257 18.1171H79.1763C79.3841 18.1171 79.5399 18.195 79.6698 18.3249C79.7996 18.4807 79.8776 18.6625 79.8776 18.8963V20.4287C79.8776 20.6884 79.9295 20.8702 80.0334 21.0001C80.1373 21.1299 80.3191 21.1819 80.5788 21.1819H83.228C83.4098 21.1819 83.5656 21.2598 83.6955 21.3897C83.8254 21.5455 83.9033 21.7273 83.9033 21.9611V23.0779C83.9033 23.3116 83.8513 23.4934 83.7215 23.6493C83.5916 23.7791 83.4358 23.857 83.254 23.857H80.6048C80.1633 23.857 79.8776 24.1687 79.8776 24.6362V28.9476C79.8776 30.0645 80.0074 30.8436 80.2671 31.3371C80.5528 31.8566 81.0463 32.1423 81.7216 32.1423H81.7995C82.2151 32.1423 82.6306 32.0903 83.0462 31.9605C83.5397 31.8046 83.6955 31.8046 83.7475 31.8046C84.0331 31.8046 84.3188 31.8566 84.3188 32.5578V33.5967C84.3188 34.1421 84.0851 34.4538 83.5916 34.5837C83.0462 34.7395 82.3969 34.8174 81.6956 34.8174H81.5138Z" fill="#303042"/>
<path d="M91.6909 34.8174C90.0806 34.8174 88.9378 34.3759 88.3145 33.5448C87.6392 32.6617 87.3016 30.9735 87.3016 28.5061V24.6622C87.3016 24.1687 87.0159 23.883 86.5744 23.883H86.2367C86.0289 23.883 85.8731 23.8311 85.7692 23.7012C85.6394 23.5713 85.5874 23.3895 85.5874 23.1298V22.013C85.5874 21.7792 85.6394 21.5715 85.7692 21.4156C85.8991 21.2858 86.0289 21.2078 86.2367 21.2078H86.5744C87.0159 21.2078 87.3016 20.9222 87.3016 20.4546V18.9223C87.3016 18.6885 87.3535 18.4807 87.4834 18.3249C87.6133 18.195 87.7691 18.1171 87.9769 18.1171H89.3274C89.5352 18.1171 89.6911 18.195 89.8209 18.3249C89.9508 18.4807 90.0287 18.6625 90.0287 18.8963V20.4287C90.0287 20.6884 90.0806 20.8702 90.1845 21.0001C90.2884 21.1299 90.4702 21.1819 90.73 21.1819H93.3791C93.5609 21.1819 93.7168 21.2598 93.8466 21.3897C93.9765 21.5455 94.0544 21.7273 94.0544 21.9611V23.0779C94.0544 23.3116 94.0025 23.4934 93.8726 23.6493C93.7427 23.7791 93.5869 23.857 93.4051 23.857H90.7559C90.3144 23.857 90.0287 24.1687 90.0287 24.6362V28.9476C90.0287 30.0645 90.1586 30.8436 90.4183 31.3371C90.704 31.8566 91.1974 32.1423 91.8727 32.1423H91.9506C92.3662 32.1423 92.7818 32.0903 93.1973 31.9605C93.6908 31.8046 93.8466 31.8046 93.8986 31.8046C94.1843 31.8046 94.47 31.8566 94.47 32.5578V33.5967C94.47 34.1421 94.2362 34.4538 93.7427 34.5837C93.1973 34.7395 92.548 34.8174 91.8468 34.8174H91.6909Z" fill="#303042"/>
<path d="M101.54 34.8174C99.4885 34.8174 98.0081 34.3499 97.203 33.4409C96.3719 32.5318 95.9563 30.7657 95.9563 28.1944V27.675C95.9563 25.1297 96.3719 23.3636 97.177 22.4545C97.9822 21.5455 99.4106 21.1039 101.462 21.1039H101.696C103.722 21.1039 105.151 21.4676 105.982 22.2208C106.787 22.948 107.176 24.3245 107.176 26.3504V27.0257C107.176 27.7269 107.047 28.1944 106.761 28.4801C106.501 28.7398 106.06 28.8957 105.462 28.8957H99.4106C98.9431 28.8957 98.6834 29.2074 98.6834 29.6749C98.6834 30.6618 98.8912 31.3371 99.3327 31.7527C99.7483 32.1682 100.476 32.35 101.54 32.35H101.904C102.709 32.35 103.644 32.2202 104.631 31.9864C105.93 31.6747 106.137 31.6488 106.163 31.6488C106.501 31.6488 106.735 31.7786 106.735 32.35V33.3629C106.735 33.6746 106.683 33.9084 106.553 34.0382C106.423 34.1681 106.189 34.298 105.904 34.3759C104.631 34.7135 103.281 34.8693 101.878 34.8693H101.54V34.8174ZM101.385 23.4415C100.372 23.4415 99.6963 23.6492 99.3067 24.0908C98.9172 24.5063 98.7094 25.2336 98.7094 26.2725C98.7094 26.5322 98.7613 26.714 98.8652 26.8439C98.9691 26.9737 99.1509 27.0257 99.4106 27.0257H103.748C104.216 27.0257 104.475 26.74 104.475 26.2725C104.475 25.1816 104.293 24.4284 103.93 24.0388C103.54 23.6233 102.839 23.4415 101.722 23.4415H101.385Z" fill="#303042"/>
<path d="M110.262 34.6875C110.054 34.6875 109.898 34.6095 109.768 34.4797C109.638 34.3238 109.56 34.142 109.56 33.9342V24.2206C109.56 22.87 109.768 22.3246 109.924 22.1168C110.158 21.8051 110.677 21.5454 111.482 21.3376C112.158 21.1558 112.911 21.0779 113.742 21.0779H113.898C115.04 21.0779 115.95 21.1558 116.625 21.3116C116.885 21.3896 117.066 21.4934 117.17 21.6233C117.248 21.7012 117.326 21.909 117.326 22.3246V23.3375C117.326 23.8829 117.144 24.0907 116.651 24.0907C116.625 24.0907 116.443 24.0907 115.794 23.9349C115.3 23.805 114.781 23.753 114.287 23.753H114.209C114.131 23.753 113.95 23.753 113.144 23.8569H113.119C112.781 23.9608 112.547 24.1167 112.443 24.3504C112.339 24.5582 112.313 24.8439 112.313 25.2335V33.9083C112.313 34.142 112.235 34.2979 112.106 34.4537C111.976 34.6095 111.82 34.6615 111.612 34.6615H110.262V34.6875Z" fill="#303042"/>
<path d="M124.682 34.6876C122.812 34.6876 121.461 34.2201 120.708 33.285C119.929 32.3241 119.539 30.48 119.539 27.7789V17.7275C119.539 17.4938 119.617 17.286 119.747 17.1561C119.877 17.0263 120.033 16.9484 120.214 16.9484H121.669C121.877 16.9484 122.032 17.0263 122.162 17.1561C122.292 17.312 122.37 17.4938 122.37 17.7275V28.1425C122.37 29.7268 122.578 30.7397 122.967 31.2332C123.383 31.7527 124.266 31.9864 125.643 31.9864H129.694C129.902 31.9864 130.058 32.0643 130.188 32.1942C130.318 32.35 130.396 32.5318 130.396 32.7656V33.9344C130.396 34.1681 130.318 34.3499 130.188 34.4798C130.058 34.6096 129.902 34.6876 129.694 34.6876H124.682Z" fill="#303042"/>
<path d="M133.199 34.6875C133.017 34.6875 132.861 34.6096 132.731 34.4797C132.601 34.3239 132.523 34.1421 132.523 33.9343V22.0129C132.523 21.7792 132.601 21.5974 132.731 21.4416C132.861 21.2857 133.017 21.2338 133.199 21.2338H134.575C134.783 21.2338 134.939 21.3117 135.069 21.4416C135.199 21.5974 135.277 21.7792 135.277 22.0129V33.9343C135.277 34.1681 135.199 34.3499 135.069 34.4797C134.939 34.6096 134.783 34.6875 134.575 34.6875H133.199ZM133.199 19.3378C133.017 19.3378 132.861 19.2599 132.731 19.13C132.601 18.9742 132.523 18.7924 132.523 18.5586V17.234C132.523 17.0003 132.601 16.7925 132.731 16.6626C132.861 16.5327 133.017 16.4548 133.199 16.4548H134.575C134.783 16.4548 134.939 16.5327 135.069 16.6626C135.199 16.8184 135.277 17.0003 135.277 17.234V18.5586C135.277 18.7924 135.199 19.0001 135.069 19.13C134.939 19.2599 134.783 19.3378 134.575 19.3378H133.199Z" fill="#303042"/>
<path d="M146.52 34.6875C146.312 34.6875 146.157 34.6096 146.027 34.4798C145.897 34.3239 145.819 34.1421 145.819 33.9343V27.2854C145.819 25.9348 145.637 25.0258 145.274 24.5323C144.884 24.0129 144.209 23.7531 143.248 23.7531C142.962 23.7531 142.469 23.8051 141.715 23.883C141.352 23.9349 141.092 24.0908 140.936 24.3245C140.806 24.5323 140.754 24.844 140.754 25.2595V33.9343C140.754 34.1681 140.676 34.3239 140.547 34.4798C140.417 34.6356 140.261 34.6875 140.053 34.6875H138.677C138.469 34.6875 138.313 34.6096 138.183 34.4798C138.053 34.3239 137.975 34.1421 137.975 33.9343V23.9349C137.975 23.1298 138.105 22.5584 138.313 22.1948C138.547 21.8571 138.936 21.6234 139.534 21.4935C140.702 21.2338 141.949 21.1039 143.248 21.1039C145.274 21.1039 146.676 21.5195 147.429 22.3247C148.183 23.1298 148.572 24.7661 148.572 27.1555V33.9603C148.572 34.1941 148.494 34.3759 148.364 34.5057C148.234 34.6356 148.079 34.7135 147.897 34.7135H146.52V34.6875Z" fill="#303042"/>
<path d="M160.107 34.6874C159.484 34.6874 159.016 34.3238 158.678 33.5446L156.497 29.441C156.263 28.9995 155.899 28.7397 155.432 28.7397H154.783C154.341 28.7397 154.055 29.0514 154.055 29.5189V33.9083C154.055 34.142 153.977 34.3238 153.848 34.4537C153.718 34.5835 153.562 34.6615 153.354 34.6615H151.978C151.796 34.6615 151.64 34.5835 151.51 34.4537C151.38 34.2978 151.302 34.116 151.302 33.9083V17.4417C151.302 17.208 151.38 17.0002 151.51 16.8703C151.64 16.7405 151.796 16.6625 151.978 16.6625H153.354C153.562 16.6625 153.718 16.7405 153.848 16.8703C153.977 17.0262 154.055 17.208 154.055 17.4417V25.2075C154.055 25.4672 154.107 25.649 154.211 25.7789C154.341 25.9087 154.497 25.9607 154.757 25.9607H155.406C155.821 25.9607 156.159 25.7789 156.367 25.4153L158.289 22.4025C158.549 21.909 158.782 21.5713 158.99 21.4155C159.172 21.2597 159.406 21.1818 159.691 21.1818H161.613C161.847 21.1818 161.951 21.2597 162.003 21.4415C162.081 21.6493 162.003 21.9609 161.769 22.2986L158.938 26.2464C158.704 26.584 158.601 26.8957 158.601 27.1554C158.601 27.4151 158.73 27.7528 159.016 28.2463L162.107 33.4927C162.289 33.8303 162.341 34.116 162.289 34.3498C162.237 34.5316 162.133 34.6095 161.925 34.6095H160.107V34.6874Z" fill="#303042"/>
<path d="M168.702 34.8173C167.118 34.8173 165.742 34.6615 164.599 34.3238C164.287 34.2459 164.079 34.1161 163.975 33.9862C163.898 33.8823 163.82 33.6745 163.82 33.233V32.1422C163.82 31.9084 163.872 31.7266 164.001 31.5708C164.131 31.4409 164.261 31.363 164.469 31.363C164.521 31.363 164.781 31.389 166.105 31.7785C167.118 32.0902 168.053 32.2201 168.91 32.2201C169.793 32.2201 170.417 32.0902 170.754 31.8565C171.144 31.5967 171.326 31.1812 171.326 30.6358C171.326 30.1163 171.092 29.7267 170.65 29.5189C170.287 29.3371 169.508 29.1293 168.287 28.8956C166.469 28.532 165.248 28.0904 164.703 27.571C164.183 27.0775 163.897 26.1945 163.897 24.9997C163.897 23.6232 164.261 22.6362 165.014 22.0129C165.768 21.3896 167.014 21.0779 168.754 21.0779C170.443 21.0779 171.819 21.2597 172.858 21.6233C173.144 21.7272 173.351 21.8571 173.455 21.9869C173.533 22.0648 173.611 22.2726 173.611 22.6882V23.779C173.611 24.0128 173.559 24.2206 173.429 24.3504C173.325 24.4803 173.17 24.5322 172.962 24.5322C172.936 24.5322 172.702 24.5062 171.429 24.1167C170.494 23.805 169.585 23.6751 168.754 23.6751C168.001 23.6751 167.482 23.779 167.17 23.9608C166.806 24.1686 166.651 24.5582 166.651 25.0776C166.651 25.4932 166.806 25.8308 167.144 26.0386C167.43 26.2204 167.975 26.4022 168.832 26.61C171.04 27.0516 172.494 27.545 173.144 28.0385C173.741 28.506 174.053 29.3371 174.053 30.5059C174.053 31.9863 173.637 33.0772 172.858 33.7524C172.105 34.4797 170.702 34.8173 168.702 34.8173Z" fill="#303042"/>
<path d="M28.7612 25.9606C28.7353 25.9606 28.6833 25.9606 28.6573 25.9606C27.8782 25.9346 27.125 25.4931 26.7354 24.7139C26.2679 23.7789 26.5276 22.6621 27.2808 22.0388C25.5926 22.8958 18.2684 26.506 16.6321 27.2852C16.5282 27.3371 16.4503 27.3631 16.3984 27.3891C15.3854 27.8566 14.866 29.0513 15.3075 30.1681C15.4114 30.4019 15.5413 30.6097 15.7231 30.8175C16.3204 31.4408 17.2035 31.6745 17.9827 31.4148C18.0346 31.3888 18.0866 31.3629 18.1645 31.3629L18.4762 31.233L19.1255 30.9733C19.2553 30.9213 29.4105 25.9346 29.4105 25.9346C29.5144 25.8827 29.5924 25.8567 29.6962 25.8048C29.4105 25.8827 29.0729 25.9606 28.7612 25.9606Z" fill="#FF1F1F"/>
<path d="M35.0715 16.2729C34.9936 14.8703 34.7339 13.5717 34.2923 12.377C34.0586 11.7537 33.7469 11.1563 33.3573 10.6109C32.9937 10.0914 32.6041 9.62391 32.1626 9.1564C30.8899 7.8318 29.3576 6.87082 27.5914 6.29943C25.4877 5.62414 23.332 5.62415 21.1763 6.27346C21.0983 6.29943 21.0204 6.3254 20.9165 6.35138C19.8776 6.68902 18.8907 7.23444 17.9297 7.9357C16.735 8.84473 15.7221 9.98752 14.9688 11.3381C14.4754 12.2212 14.1637 13.2081 14.0598 14.299C14.2156 13.7016 14.6312 13.1562 15.2286 12.8445C16.3454 12.2991 17.6959 12.7406 18.2414 13.8574C18.3712 14.1171 18.4492 14.3769 18.4751 14.6366C18.4751 14.5587 18.5011 14.4808 18.5011 14.4028C18.6829 13.1562 19.4361 12.1173 20.7867 11.2342C21.3061 10.8966 21.8515 10.6368 22.397 10.455C23.8254 9.98752 25.3318 10.0654 26.8382 10.6888C29.2277 11.6757 30.838 14.247 30.6822 16.8183C30.6043 17.987 30.3445 18.8961 29.8511 19.6753C29.3576 20.4804 28.7342 21.1297 28.007 21.5972C29.0459 21.2596 30.1887 21.7271 30.6822 22.74C31.2276 23.8309 30.7861 25.1554 29.6952 25.7268C31.9029 24.61 33.5911 22.6621 34.3703 20.2986C34.5001 19.9609 34.604 19.6493 34.6819 19.3116C35.0196 18.2987 35.1235 17.2858 35.0715 16.2729Z" fill="#AA02D3"/>
<path d="M30.7341 22.7398C30.2406 21.7269 29.0978 21.2854 28.0589 21.5971C27.955 21.623 27.8511 21.675 27.7472 21.7269C27.5914 21.8048 27.4356 21.9087 27.2797 22.0386C26.5265 22.6879 26.2668 23.7787 26.7343 24.7138C27.0979 25.467 27.8511 25.9345 28.6563 25.9604C28.6823 25.9604 28.7342 25.9604 28.7602 25.9604C29.0718 25.9604 29.4095 25.8825 29.7212 25.7267C29.7212 25.7267 29.7471 25.7267 29.7471 25.7007C30.838 25.1553 31.2795 23.8307 30.7341 22.7398Z" fill="#EF726C"/>
<path d="M18.4774 14.6626C18.4515 14.3249 18.3216 13.9873 18.1138 13.6756C17.5424 12.7926 16.3996 12.4289 15.4387 12.7926C14.7114 13.0783 14.2439 13.6497 14.0621 14.3249C13.9842 14.6366 13.9582 14.9743 14.0102 15.2859C14.0362 15.4937 14.1141 15.7015 14.218 15.9093C14.4517 16.3508 14.7894 16.6884 15.2049 16.9222C15.8283 17.2339 16.5814 17.2598 17.2308 16.9482C18.1138 16.4807 18.5813 15.5716 18.4774 14.6626Z" fill="#FF7878"/>
<path d="M25.725 17.6755C25.1796 16.5847 23.8809 16.1432 22.7901 16.6886C22.7122 16.7405 22.6083 16.7925 22.5304 16.8444L21.8811 17.1041C21.7512 17.1561 11.596 22.1428 11.596 22.1428C11.4921 22.1947 11.4142 22.2207 11.3103 22.2727C11.622 22.1168 11.9336 22.0389 12.2713 22.0389C12.2972 22.0389 12.3492 22.0389 12.3752 22.0389C13.1543 22.0649 13.9075 22.5064 14.2971 23.2856C14.7646 24.2206 14.5049 25.3374 13.7517 25.9608C15.4399 25.1037 22.7641 21.4935 24.3744 20.7143C24.5043 20.6883 24.6082 20.6364 24.7121 20.5844C25.8029 20.065 26.2444 18.7404 25.725 17.6755Z" fill="#2D2F54"/>
<path d="M5.95967 31.7266C6.03759 33.1291 6.29731 34.4277 6.73884 35.6224C6.97259 36.2458 7.28426 36.8431 7.67385 37.3886C8.03746 37.908 8.42705 38.3755 8.86858 38.843C10.1412 40.1676 11.6736 41.1286 13.4397 41.7C15.5435 42.3753 17.6992 42.3753 19.8549 41.726C19.9328 41.7 20.0108 41.674 20.1146 41.648C21.1535 41.3104 22.1405 40.765 23.1015 40.0637C24.2962 39.1547 25.3091 38.0119 26.0623 36.6613C26.5558 35.7783 26.8675 34.7913 26.9714 33.7005C26.8155 34.2978 26.4 34.8433 25.8026 35.1549C24.6858 35.7004 23.3352 35.2588 22.7898 34.142C22.6599 33.8823 22.582 33.6226 22.5561 33.3628C22.5561 33.4407 22.5301 33.5187 22.5301 33.5966C22.3483 34.8433 21.5951 35.8822 20.2445 36.7652C19.7251 37.1029 19.1796 37.3626 18.6342 37.5444C17.2057 38.0119 15.6993 37.934 14.1929 37.3106C11.8035 36.3237 10.1932 33.7524 10.349 31.1811C10.4269 30.0124 10.6867 29.1033 11.1801 28.3242C11.6736 27.519 12.2969 26.8697 13.0242 26.4022C11.9853 26.7398 10.8425 26.2723 10.349 25.2594C9.80359 24.1686 10.2451 22.844 11.336 22.2726C9.12831 23.3894 7.4401 25.3373 6.66093 27.7008C6.53106 28.0385 6.42717 28.3501 6.34925 28.6878C6.01161 29.7007 5.90772 30.7136 5.95967 31.7266Z" fill="#0847F9"/>
<path d="M14.2992 23.2856C13.9356 22.5324 13.1824 22.0649 12.3772 22.0389C12.3512 22.0389 12.2993 22.0389 12.2733 22.0389C11.9616 22.0389 11.624 22.1169 11.3123 22.2727C11.3123 22.2727 11.2864 22.2727 11.2864 22.2987C10.1955 22.8441 9.754 24.1687 10.2994 25.2855C10.7929 26.2984 11.9357 26.74 12.9746 26.4283C13.0785 26.4023 13.1824 26.3504 13.2862 26.2984C13.4421 26.2205 13.5979 26.1166 13.7537 25.9868C14.5069 25.3374 14.7667 24.2206 14.2992 23.2856Z" fill="#8761FF"/>
<path d="M27.0252 32.7395C26.9993 32.5317 26.9213 32.3239 26.8174 32.1161C26.5837 31.6746 26.2461 31.337 25.8305 31.1032C25.2072 30.7916 24.454 30.7656 23.8046 31.0772C22.9476 31.5188 22.48 32.4278 22.558 33.3369C22.5839 33.6745 22.7138 34.0121 22.9216 34.3238C23.493 35.2069 24.6358 35.5705 25.5967 35.2069C26.324 34.9212 26.7915 34.3498 26.9733 33.6745C27.0512 33.3888 27.0772 33.0512 27.0252 32.7395Z" fill="#25BF88"/>
<path opacity="0.12" d="M27.0252 32.7395C26.9993 32.5317 26.9213 32.3239 26.8174 32.1161C26.5837 31.6746 26.2461 31.337 25.8305 31.1032C25.2072 30.7916 24.454 30.7656 23.8046 31.0772C22.9476 31.5188 22.48 32.4278 22.558 33.3369C22.5839 33.6745 22.7138 34.0121 22.9216 34.3238C23.493 35.2069 24.6358 35.5705 25.5967 35.2069C26.324 34.9212 26.7915 34.3498 26.9733 33.6745C27.0512 33.3888 27.0772 33.0512 27.0252 32.7395Z" fill="#0847F9"/>
</svg>
