<svg xmlns="http://www.w3.org/2000/svg" viewBox="0 0 213.791 298.878"><defs><style>.cls-1,.cls-6,.cls-7{fill:none;}.cls-1,.cls-2,.cls-3{stroke:#3a4353;}.cls-1,.cls-3,.cls-4,.cls-7{stroke-linecap:round;}.cls-1,.cls-2,.cls-3,.cls-4,.cls-6,.cls-7{stroke-miterlimit:10;}.cls-1,.cls-2,.cls-3,.cls-4,.cls-7{stroke-width:9px;}.cls-2{fill:#f9b429;}.cls-3,.cls-4,.cls-5{fill:#fff;}.cls-4,.cls-7{stroke:#83d2d1;}.cls-6{stroke:#fff;stroke-width:0.75px;}</style></defs><title>ChurchTitheWPIconPackNoBKG</title><g id="Wallet"><rect class="cls-1" x="-53.835" y="124.251" width="269.643" height="30.141" transform="translate(-58.335 220.308) rotate(-90)"/><rect class="cls-1" x="-28.989" y="55.414" width="269.643" height="168.628" rx="29.932" transform="translate(-33.896 245.561) rotate(-90)"/><circle class="cls-2" cx="143.713" cy="223.228" r="20.773"/><circle class="cls-3" cx="143.713" cy="199.604" r="20.773"/><ellipse class="cls-3" cx="144.12" cy="208.972" rx="17.085" ry="8.961"/><rect class="cls-4" x="4.5" y="59.372" width="204.791" height="235.006" rx="33.505"/><path class="cls-1" d="M22.471,141.954H57.721a0,0,0,0,1,0,0v56.717a13.785,13.785,0,0,1-13.785,13.785H36.255a13.785,13.785,0,0,1-13.785-13.785V141.954a0,0,0,0,1,0,0Z" transform="translate(-137.109 217.301) rotate(-90)"/><circle class="cls-4" cx="56.197" cy="177.755" r="2.956"/><path class="cls-5" d="M41.077,177.275c0,.557-1.3,1-2.872,1l-18.436-.106c-1.576-.009-2.863-.472-2.86-1.03s1.3-1,2.872-1l18.436.106C39.793,176.254,41.08,176.717,41.077,177.275Z"/><path class="cls-6" d="M41.077,177.275c0,.557-1.3,1-2.872,1l-18.436-.106c-1.576-.009-2.863-.472-2.86-1.03s1.3-1,2.872-1l18.436.106C39.793,176.254,41.08,176.717,41.077,177.275Z"/><rect class="cls-7" x="4.5" y="59.372" width="204.791" height="235.006" rx="33.505"/></g></svg>