<svg xmlns="http://www.w3.org/2000/svg" width="153" height="26" viewBox="0 0 153 26">
  <g id="Group_104040" data-name="Group 104040" transform="translate(-283 -4)">
    <g id="Group_102709" data-name="Group 102709" transform="translate(283 4)">
      <text id="_10Web_Photo_Gallery" data-name="10Web Photo Gallery" transform="translate(30 4)" fill="#323a45" font-size="12" font-family="OpenSans-Semibold, Open Sans" font-weight="600" letter-spacing="0.008em"><tspan x="0" y="13">10Web Photo Gallery</tspan></text>
      <g id="Group_104230" data-name="Group 104230">
        <rect id="Rectangle_51703" data-name="Rectangle 51703" width="26" height="26" fill="none"/>
        <g id="Group_103299" data-name="Group 103299" transform="translate(3.001 4.626)">
          <g id="Group_103300" data-name="Group 103300" transform="translate(0 0)">
            <path id="Path_171200" data-name="Path 171200" d="M14.186,7.053v.122a6.967,6.967,0,0,1-7.069,7.008A6.959,6.959,0,0,1,0,7.037,7.027,7.027,0,0,1,7.147,0,6.991,6.991,0,0,1,13.455,3.96H8.991a2.6,2.6,0,0,0-1.828-.624,3.741,3.741,0,1,0,.015,7.481,3.3,3.3,0,0,0,3.017-1.555H7.132V6.215h7.086c.015,0-.015.136,0,.274C14.232,6.717,14.186,6.824,14.186,7.053Z" transform="translate(5.429 2.547)" fill="#1fa334"/>
            <path id="Path_171201" data-name="Path 171201" d="M19.073,4.851A8.105,8.105,0,0,0,7.046,3.787a8.271,8.271,0,0,0,.165,11.854L6.37,15.61H1.724A1.579,1.579,0,0,1,0,13.833V5.656a2.792,2.792,0,0,1,2.375-2.9c.286-.061.543-.061.526-.471-.015-.289.226-.259.421-.259H5.243c.346,0,.722-.106.737.5.015.289.887.289,1.142-.045A13.082,13.082,0,0,0,8.129.976,1.837,1.837,0,0,1,9.858-.012C11.677,0,13.631,0,15.5-.012a1.63,1.63,0,0,1,1.669.957C17.675,2.191,19.178,4.958,19.073,4.851Z" transform="translate(0.008 0.022)" fill="#1fa334"/>
          </g>
        </g>
      </g>
    </g>
  </g>
</svg>
