<svg xmlns="http://www.w3.org/2000/svg" xmlns:xlink="http://www.w3.org/1999/xlink" viewBox="0 0 800 400" xmlns:v="https://vecta.io/nano"><style><![CDATA[.G{fill:#c8417d}.H{fill:#e77a9c}.I{enable-background:new}.J{fill:#f5f5f5}.K{fill:#fce0e7}.L{stroke:#e77a9c}.M{stroke-width:.562}.N{stroke-miterlimit:10}]]></style><path d="M.4 0h800v400H.4z" fill="#f1f0f0"/><path d="M271.9 295.4H138.4c-8.3 0-14.8-6.5-14.8-14.8V115.8c0-8.3 6.5-14.8 14.8-14.8h133.5c8.3 0 14.8 6.5 14.8 14.8v164.7c0 7.9-6.5 14.9-14.8 14.9z" opacity=".73" class="I K L M N"/><path d="M286.7 207.4H123.6v-91.6c0-8.3 6.5-14.8 14.8-14.8h133.5c8.3 0 14.8 6.5 14.8 14.8v91.6h0z" opacity=".5" class="H I"/><path d="M157 174h-.9v4.3s54.1 4 75.4.2c21.1-3.8 22.7-10.8 22.7-10.8v-4.5h-.9L157 174z" class="G"/><path d="M253.3 165.2c-5.4 7.4-22.4 9.4-43.5 9.6-8.5 0-18 0-27.8-.2l-24.9-.9c-.9-6.3 1.3-17.7 3.1-24 .7-2 1.1-3.4 1.3-4.3h.2c2.9 4 9.6 6.3 13.7 6.3 6.5 0 14.4-4.9 12.1-10.5-.2-.9-.7-1.3-.9-2-1.8-5.8 2.9-5.8 10.1-1.1 12.6 8.1 23.6 10.8 32.5 12.3 1.8.2 3.8.7 5.2.9 13 1.3 20 1.3 18.9 13.9z" class="H"/><path d="M252.6 165.2c-5.4 7.4-22.4 9.4-43.5 9.6-.7-3.1-1.1-11.2 9.6-13.2 8.3-1.3 12.8-7 15.5-10.8 12.6 1.8 19.5 1.8 18.4 14.4zm-23.1-15c-1.8 2.5-4 2.5-6.5 2.5-21.5-1.3-32.3-10.1-36.1-13.7-1.8-5.8 2.9-5.8 10.1-1.1 12.5 7.8 23.5 10.7 32.5 12.3z" class="G"/><path d="M203.9 175.8c-10.8 0-22-.7-31-1.1-8.1-.7-14.1-.9-16.6-.7h-.2v-.9h.2c2.5-.2 9 0 16.8.7 25.1 1.3 71.8 4 79.9-10.8l.2-.2.9.2-.2.2c-5.6 10.3-27.5 12.6-50 12.6z" class="J"/><path d="M244.3 231.6h-79c-3.1 0-5.8 2.5-5.8 5.8v26.3c0 3.1 2.5 5.8 5.8 5.8h79c3.1 0 5.8-2.5 5.8-5.8v-26.3c0-3.1-2.7-5.8-5.8-5.8z" class="G"/><g class="J"><path d="M172.9 254.5l2.5-.7v.7.7c0 .5 0 .2.2.7 0 .2.2.2.2.2s.2.2.7.2c.7 0 .9-.2.9-.9 0-.9-.7-1.8-1.3-2.5l-.9-.7c-.2-.2-.7-.2-.7-.7 0-.2-.2-.2-.7-.7-.2-.2-.2-.7-.7-.7 0-.2-.2-.7-.2-.9v-.9c0-1.1.2-1.8.9-2.2.7-.7 1.3-.9 2.5-.9.9 0 1.8.2 2.2.9.7.7.9 1.3.9 2.2h0v.2l-2.5.2v-.2-.2-.7-.7c0-.2 0-.2-.2-.2h-.2c-.2 0-.7 0-.7.2s-.2.7-.2.9v.9c0 .2.2.7.2.7l.7.7.7.7c.2.2.2.2.7.2l.9.9c.2.2.7.7.7.9.2.2.2.9.7 1.1 0 .2.2.9.2 1.3 0 .9-.2 1.8-.9 2.2s-1.3.9-2.2.9c-.7 0-1.1 0-1.3-.2-.7-.2-.9-.7-1.1-.9s-.7-.9-.7-1.1c-.4.2-1.3-.9-1.3-1.6zm8.1 3.8v-12.6h2.5v5.2h1.8v-5.2h2.5v12.6h-2.5v-5.8h-1.8v5.8H181zm8.6-4.2v-4.3c0-2.9 1.1-4.5 3.8-4.5 2.5 0 3.8 1.3 3.8 4.5v4.3 1.3c0 .2-.2.9-.2 1.1-.2.2-.2.7-.7.9-.2.2-.7.7-1.1.7s-.9.2-1.3.2c-.7 0-1.1 0-1.3-.2s-.9-.2-1.1-.7c-.2-.2-.7-.7-.7-.9-.2-.2-.2-.9-.2-1.1-.8-.2-1-.9-1-1.3zm4.9.4v-5.4c0-1.1-.2-1.8-1.1-1.8-.2 0-.2 0-.7.2-.2.2-.2 0-.2.2s0 .2-.2.7v.7 5.4c0 1.1.2 1.8 1.1 1.8.6.2 1.1-.2 1.1-1.8zm4.3 3.8v-12.6h3.1c1.1 0 2 .2 2.2.9.7.7.9 1.3.9 2.5 0 .7 0 1.1-.2 1.3 0 .2-.2.9-.7 1.1-.2.2-.7.7-.9.7s-.7.2-.9.2h-1.1v5.4h-2.5l.1.5h0zm2.4-7.1h.2.2.2l.2-.2v-.2-.2-.2-.4-.2h0v-.2-.2-.2-.2s0-.2-.2-.2h-.2-.7v2.7h.3zm8.3 7.1v-12.6h1.8l2.9 6.5v-6.5h2v12.6h-1.8l-2.9-7v7h-2zm8.3-4.2v-4.3c0-2.9 1.1-4.5 3.8-4.5 2.5 0 3.8 1.3 3.8 4.5v4.3 1.3c0 .2-.2.9-.2 1.1-.2.2-.2.7-.7.9-.2.2-.7.7-1.1.7s-.9.2-1.3.2c-.7 0-1.1 0-1.3-.2s-.9-.2-1.1-.7c-.2-.2-.7-.7-.7-.9-.2-.2-.2-.9-.2-1.1-1-.2-1-.9-1-1.3zm5 .4v-5.4c0-1.1-.2-1.8-1.1-1.8-.2 0-.2 0-.7.2-.2.2-.2.2-.2.7s0 .2-.2.7v.7 5.4c0 1.1.2 1.8 1.1 1.8.4-.3 1.1-.7 1.1-2.3z"/><use xlink:href="#B"/></g><path d="M460.4 293.6H326.9c-8.3 0-14.8-6.5-14.8-14.8V114c0-8.3 6.5-14.8 14.8-14.8h133.5c8.3 0 14.8 6.5 14.8 14.8v164.7c.2 7.9-6.5 14.9-14.8 14.9z" opacity=".73" class="I K L M N"/><path d="M475.4 205.4H312.3V114c0-8.3 6.5-14.8 14.8-14.8h133.5c8.3 0 14.8 6.5 14.8 14.8v91.4h0z" opacity=".5" class="H I"/><path d="M433 230.1h-79c-3.1 0-5.8 2.5-5.8 5.8v26.3c0 3.1 2.5 5.8 5.8 5.8h79c3.1 0 5.8-2.5 5.8-5.8v-26.3c-.2-3.4-2.6-5.8-5.8-5.8z" class="G"/><g class="J"><path d="M361.7 253l2.5-.7v.7.7c0 .5 0 .2.2.7 0 .2.2.2.2.2s.2.2.7.2c.7 0 .9-.2.9-.9 0-.9-.7-1.8-1.3-2.5l-1.1-.7c-.2-.2-.7-.2-.7-.7 0-.2-.2-.2-.7-.7s-.2-.7-.7-.7c0-.2-.2-.7-.2-.9v-.9c0-1.1.2-1.8.9-2.2.7-.7 1.3-.9 2.5-.9.9 0 1.8.2 2.2.9.7.7.9 1.3.9 2.2h0v.2l-2.5.2v-.2-.2-.7-.7c0-.2 0-.2-.2-.2h-.3c-.2 0-.7 0-.7.2s-.2.7-.2.9v.9c0 .2.2.7.2.7l.7.7.7.7c.2.2.2.2.7.2l.9.9c.2.2.7.7.7.9.2.2.2.9.7 1.1 0 .2.2.9.2 1.3 0 .9-.2 1.8-.9 2.2-.7.7-1.3.9-2.2.9-.7 0-1.1 0-1.3-.2-.7-.2-.9-.7-1.1-.9s-.7-.9-.7-1.1c-.1-.1-1-1.2-1-1.6zm8.3 3.5V244h2.5v5.2h1.8V244h2.5v12.6h-2.5v-5.8h-1.8v5.8H370zm8.5-4.2V248c0-2.9 1.1-4.5 3.8-4.5s3.8 1.3 3.8 4.5v4.3 1.3c0 .2-.2.9-.2 1.1-.2.2-.2.7-.7.9-.2.2-.7.7-1.1.7s-.9.2-1.3.2-1.1 0-1.3-.2-.9-.2-1.1-.7c-.2-.2-.7-.7-.7-.9-.2-.2-.2-.9-.2-1.1-1-.4-1-.6-1-1.3zm4.9.7v-5.4c0-1.1-.2-1.8-1.1-1.8-.2 0-.2 0-.7.2-.2.2-.2.2-.2.7s0 .2-.2.7v.7 5.4c0 1.1.2 1.8 1.1 1.8.5-.3 1.1-1.2 1.1-2.3z"/><use xlink:href="#C"/><path d="M398.2 256.5V244h1.8l2.9 6.5V244h2v12.6h-1.8l-2.9-7v7h-2zm8.3-4.2V248c0-2.9 1.1-4.5 3.8-4.5s3.8 1.3 3.8 4.5v4.3 1.3c0 .2-.2.9-.2 1.1-.2.2-.2.7-.7.9-.2.2-.7.7-1.1.7s-.9.2-1.3.2c-.7 0-1.1 0-1.3-.2s-.9-.2-1.1-.7c-.2-.2-.7-.7-.7-.9-.2-.2-.2-.9-.2-1.1-.5-.4-1-.6-1-1.3zm5 .7v-5.4c0-1.1-.2-1.8-1.1-1.8-.2 0-.2 0-.7.2-.2.2-.2.2-.2.7s0 .2-.2.7v.7 5.4c0 1.1.2 1.8 1.1 1.8.9-.3 1.1-1.2 1.1-2.3z"/><use xlink:href="#B" x="189" y="-1.8"/></g><path d="M370 162.1l2.5 14.1c.2 1.3 1.8 2.5 3.1 2.5l-3.8-20c-.9.5-2.1 2-1.8 3.4zm6.3 16.6l5.4-1.1-3.8-20-5.4 1.1h-.2l3.8 20c-.1 0-.1 0 .2 0z" class="G"/><path d="M383.2 179.6h0c-1.8.2-3.4-.9-3.8-2.5l-3.4-18c-.2-1.8.9-3.4 2.5-3.8h0c1.8-.2 3.4.9 3.8 2.5l3.4 18c.2 1.8-.9 3.5-2.5 3.8z" class="H"/><g class="G"><path d="M417.1 172.4l-2-.7s3.4-14.6 3.8-20c.2-6.5-1.8-12.3-5.8-16.8-4.9-5.2-12.1-8.1-19.7-8.1s-14.4 2.5-18.8 7.4c-4 4.3-6.1 10.3-5.8 17.5.2 5.4 3.1 19.5 3.1 19.5l-2 .2c0-.7-2.9-14.4-3.1-19.7-.2-7.4 1.8-14.1 6.3-18.8 4.9-5.2 12.1-8.1 20.4-8.1s15.9 3.1 21.1 8.5c4.5 4.9 7 11.2 6.3 18.4-.2 6.1-3.8 20.2-3.8 20.7z"/><path d="M417.1 162.7l-2.9 14.1c-.2 1.3-1.8 2.5-3.1 2.2l4-19.7c1.5.3 2.4 1.9 2 3.4z"/><path d="M410.8 179.1l-5.4-1.1 4.3-19.7 5.4 1.1h.2l-4 19.7h-.5z"/></g><path d="M403.9 179.6h0c1.8.2 3.4-.7 3.8-2.5l3.8-18c.2-1.8-.9-3.4-2.2-3.8h0c-1.8-.2-3.4.7-3.8 2.5l-3.8 18c-.8 1.8.4 3.5 2.2 3.8z" class="H"/><path d="M649.1 293.6H515.6c-8.3 0-14.8-6.5-14.8-14.8V114c0-8.3 6.5-14.8 14.8-14.8h133.5c8.3 0 14.8 6.5 14.8 14.8v164.7c0 7.9-6.5 14.9-14.8 14.9z" opacity=".73" class="I K L M N"/><path d="M663.9 205.4H500.8V114c0-8.3 6.5-14.8 14.8-14.8h133.5c8.3 0 14.8 6.5 14.8 14.8v91.4h0z" opacity=".5" class="H I"/><path d="M621.5 230.1h-79c-3.1 0-5.8 2.5-5.8 5.8v26.3c0 3.1 2.5 5.8 5.8 5.8h79c3.1 0 5.8-2.5 5.8-5.8v-26.3c.1-3.4-2.6-5.8-5.8-5.8z" class="G"/><g class="J"><path d="M550.2 253l2.5-.7v.7.7c0 .5 0 .2.2.7 0 .2.2.2.2.2s.2.2.7.2c.7 0 .9-.2.9-.9 0-.9-.7-1.8-1.3-2.5l-1.1-.7c-.2-.2-.7-.2-.7-.7 0-.2-.2-.2-.7-.7-.2-.2-.2-.7-.7-.7 0-.2-.2-.7-.2-.9v-.9c0-1.1.2-1.8.9-2.2.7-.7 1.3-.9 2.5-.9.9 0 1.8.2 2.2.9.7.7.9 1.3.9 2.2h0v.2l-2.5.2v-.2-.2-.7-.7c0-.5 0-.2-.2-.2h-.2c-.2 0-.7 0-.7.2s-.2.7-.2.9v.9c0 .2.2.7.2.7l.7.7.7.7c.2.2.2.2.7.2l.9.9c.2.2.7.7.7.9.2.2.2.9.7 1.1 0 .2.2.9.2 1.3 0 .9-.2 1.8-.9 2.2-.7.7-1.3.9-2.2.9-.7 0-1.1 0-1.3-.2-.7-.2-.9-.7-1.1-.9s-.7-.9-.7-1.1c-.2-.1-1.1-1.2-1.1-1.6zm8.3 3.5V244h2.5v5.2h1.8V244h2.5v12.6h-2.5v-5.8H561v5.8h-2.5zm8.7-4.2V248c0-2.9 1.1-4.5 3.8-4.5 2.5 0 3.8 1.3 3.8 4.5v4.3 1.3c0 .2-.2.9-.2 1.1-.2.2-.2.7-.7.9-.2.2-.7.7-1.1.7s-.9.2-1.3.2c-.7 0-1.1 0-1.3-.2s-.9-.2-1.1-.7c-.2-.2-.7-.7-.7-.9-.2-.2-.2-.9-.2-1.1-1-.4-1-.6-1-1.3zm4.7.7v-5.4c0-1.1-.2-1.8-1.1-1.8-.2 0-.2 0-.7.2-.2.2-.2.2-.2.7s0 .2-.2.7v.7 5.4c0 1.1.2 1.8 1.1 1.8.7-.3 1.1-1.2 1.1-2.3z"/><use xlink:href="#C" x="188.5"/><path d="M587 256.5V244h1.8l2.9 6.5V244h2v12.6h-1.8l-2.9-6.7v7h-2v-.4zm8.3-4.2V248c0-2.9 1.1-4.5 3.8-4.5s3.8 1.3 3.8 4.5v4.3 1.3c0 .2-.2.9-.2 1.1-.2.2-.2.7-.7.9-.2.2-.7.7-1.1.7-.7 0-.9.2-1.3.2s-1.1 0-1.3-.2-.9-.2-1.1-.7c-.2-.2-.7-.7-.7-.9-.2-.2-.2-.9-.2-1.1-.8-.4-1-.6-1-1.3zm4.7.7v-5.4c0-1.1-.2-1.8-1.1-1.8-.2 0-.2 0-.7.2-.2.2-.2.2-.2.7s0 .2-.2.7v.7 5.4c0 1.1.2 1.8 1.1 1.8s1.1-1.2 1.1-2.3z"/><use xlink:href="#B" x="377.7" y="-1.8"/></g><path d="M611.2 180.7c-4.5-20.9-16.2-35.9-19.5-39.9-.7-.7-.9-1.1-.9-1.1.2-.7.4-1.1.7-1.6 6.1-17.1-.7-19.3-.7-19.3-7.6 8.1-8.3 11.4-8.3 12.1 0-.7-.7-3.8-8.3-12.1 0 0-6.5 2.2-.7 19.3.2.4.4 1.1.7 1.6 0 0-.4.4-.9 1.1-3.4 4-15 19.1-19.5 39.9 0 0 11.4 5.2 28.9 5.2h0 0c17.1 0 28.5-5.2 28.5-5.2zm-28.9-49.8h0 0 0 0z" class="H"/><path d="M591.7 140.7c-2.7.7-6.1 1.1-9.4 1.1h0c-3.4 0-6.5-.4-9.4-1.1.7-.7.9-1.1.9-1.1-.2-.7-.4-1.1-.7-1.6 2.5.7 5.6 1.1 9 1.1h0c3.4 0 6.5-.4 9-1.1-.2.4-.4 1.1-.7 1.6.4 0 .6.5 1.3 1.1z" class="G"/><defs ><path id="B" d="M227.9 258.3l-1.8-12.6h2.2l.9 8.3 1.1-8.3h2l1.1 8.3.9-8.3h2.2l-1.8 12.6h-2.2l-1.1-8.3-1.1 8.3h-2.4z"/><path id="C" d="M387.7 256.5V244h3.1c1.1 0 2 .2 2.2.9.7.7.9 1.3.9 2.5 0 .7 0 1.1-.2 1.3 0 .2-.2.9-.7 1.1-.2.2-.7.7-.9.7s-.7.2-.9.2h-1.1v5.4h-2.5v.4zm2.7-7.4h.2.2.2l.2-.2v-.2-.2-.2-.3-.4h0v-.2-.2-.2-.2s0-.2-.2-.2h-.2-.7v2.7h.3z"/></defs></svg>