<?xml version="1.0" encoding="UTF-8"?>
<svg fill="none" version="1.1" viewBox="0 0 40 40" xmlns="http://www.w3.org/2000/svg">
	<title>cogicon</title>
	<g id="cogicon">
		<path id="cogicon__cog" d="m20.002 0c-1.3231 0-2.6464 0.15454-2.6496 0.15491l-1.1226 4.8043a15.412 15.412 0 0 0-4.1968 1.7383l-4.1907-2.6034s-1.0463 0.82704-1.9837 1.7644c-0.93634 0.93737-1.7644 1.9817-1.7644 1.9817l2.6034 4.1927a15.412 15.412 0 0 0-1.7383 4.1947l-4.8043 1.1226s-0.15491 1.327-0.15491 2.6516 0.15491 2.6476 0.15491 2.6476l4.8043 1.1226a15.412 15.412 0 0 0 1.7383 4.1968l-2.6034 4.1907s0.82704 1.0463 1.7644 1.9837c0.93737 0.93634 1.9817 1.7644 1.9817 1.7644l4.1927-2.6054a15.413 15.413 0 0 0 4.1947 1.7403l1.1226 4.8043s1.327 0.1529 2.6516 0.1529 2.6476-0.1529 2.6476-0.1529l1.1226-4.8043a15.411 15.411 0 0 0 4.1968-1.7403l4.1907 2.6054s1.0463-0.82704 1.9837-1.7644c0.93634-0.93737 1.7644-1.9817 1.7644-1.9817l-2.6054-4.1927a15.411 15.411 0 0 0 1.7403-4.1968l4.8043-1.1226s0.1529-1.3229 0.1529-2.6476-0.1529-2.6496-0.1529-2.6496l-4.8043-1.1226a15.411 15.411 0 0 0-1.7403-4.1968l2.6054-4.1907a26.133 26.133 0 0 0-1.7644-1.9837c-0.93737-0.93634-1.9817-1.7644-1.9817-1.7644l-4.1927 2.6034c-1.2886-0.77359-2.7001-1.3643-4.1968-1.7383l-1.1226-4.8043s-1.3229-0.15491-2.6476-0.15491zm-0.09053 8.6832a10.861 10.861 0 0 1 6.1422 1.8851 11.066 11.066 0 0 1 3.9714 4.8245c0.08344 0.2225 0.16805 0.41728 0.25148 0.63978l-5.6976 1.4687c-0.11125-0.24928-0.24923-0.4716-0.38829-0.6941a5.1009 5.1009 0 0 0-2.2493-1.857c-0.61186-0.25031-1.2808-0.38829-2.0018-0.38829a5.3646 5.3646 0 0 0-2.8629 0.88723 5.0958 5.0958 0 0 0-1.861 2.2473c-0.25031 0.60981-0.38829 1.2747-0.38829 1.9958a5.3399 5.3399 0 0 0 0.88925 2.8569 5.4306 5.4306 0 0 0 2.2774 1.8851 5.2472 5.2472 0 0 0 1.9998 0.38829 5.3636 5.3636 0 0 0 2.8629-0.88724 5.1885 5.1885 0 0 0 1.8067-2.1346l5.6956 1.525c-0.33272 0.91574-0.75014 1.7462-1.2775 2.5229a11.078 11.078 0 0 1-4.8365 3.9654c-1.3329 0.55521-2.7764 0.85907-4.2772 0.85907-2.2775 0-4.3891-0.69229-6.1402-1.8851a11.066 11.066 0 0 1-3.9734-4.8245c-0.55521-1.3309-0.86108-2.7735-0.86108-4.2712a10.812 10.812 0 0 1 1.8891-6.1282 11.077 11.077 0 0 1 4.8345-3.9674c1.3051-0.55418 2.7496-0.85776 4.1948-0.91339z" fill="#000" />
	</g>
</svg>

