<svg width="141" height="144" viewBox="0 0 141 144" fill="none" xmlns="http://www.w3.org/2000/svg">
<path d="M87.73 128.392C88.6026 128.392 89.31 129.099 89.31 129.972C89.31 130.844 88.6026 131.552 87.73 131.552C86.8575 131.552 86.1501 130.844 86.1501 129.972C86.1501 129.099 86.8575 128.392 87.73 128.392Z" fill="#44A2A7"/>
<path d="M53.2708 128.392C54.1434 128.392 54.8507 129.099 54.8507 129.972C54.8507 130.845 54.1434 131.552 53.2708 131.552C52.3983 131.552 51.6909 130.845 51.6909 129.972C51.6909 129.099 52.3983 128.392 53.2708 128.392Z" fill="#44A2A7"/>
<path d="M70.5007 140.064C71.3732 140.064 72.0806 140.771 72.0806 141.644C72.0806 142.516 71.3732 143.224 70.5007 143.224C69.6281 143.224 68.9208 142.516 68.9208 141.644C68.9208 140.771 69.6281 140.064 70.5007 140.064Z" fill="#44A2A7"/>
<path d="M70.5004 0C71.373 -3.87661e-08 72.0803 0.707346 72.0803 1.5799C72.0803 2.45246 71.373 3.1598 70.5004 3.1598C69.6279 3.1598 68.9205 2.45246 68.9205 1.5799C68.9205 0.707346 69.6279 3.87661e-08 70.5004 0Z" fill="#44A2A7"/>
<path d="M87.7299 105.048C88.6025 105.048 89.3098 105.755 89.3098 106.628C89.3098 107.5 88.6025 108.208 87.7299 108.208C86.8574 108.208 86.15 107.5 86.15 106.628C86.15 105.755 86.8574 105.048 87.7299 105.048Z" fill="#44A2A7"/>
<path d="M53.2707 105.048C54.1433 105.048 54.8506 105.755 54.8506 106.628C54.8506 107.5 54.1433 108.208 53.2707 108.208C52.3981 108.208 51.6908 107.5 51.6908 106.628C51.6908 105.755 52.3981 105.048 53.2707 105.048Z" fill="#44A2A7"/>
<path d="M18.81 105.048C19.6826 105.048 20.3899 105.755 20.3899 106.628C20.3899 107.5 19.6826 108.208 18.81 108.208C17.9374 108.208 17.2301 107.5 17.2301 106.628C17.2301 105.755 17.9374 105.048 18.81 105.048Z" fill="#44A2A7"/>
<path d="M122.191 105.048C123.064 105.048 123.771 105.755 123.771 106.628C123.771 107.5 123.064 108.208 122.191 108.208C121.319 108.208 120.611 107.5 120.611 106.628C120.611 105.755 121.319 105.048 122.191 105.048Z" fill="#44A2A7"/>
<path d="M70.5006 116.72C71.3731 116.72 72.0805 117.428 72.0805 118.3C72.0805 119.173 71.3731 119.88 70.5006 119.88C69.628 119.88 68.9207 119.173 68.9207 118.3C68.9207 117.428 69.628 116.72 70.5006 116.72Z" fill="#44A2A7"/>
<path d="M36.0399 116.72C36.9124 116.72 37.6198 117.427 37.6198 118.3C37.6198 119.173 36.9124 119.88 36.0399 119.88C35.1673 119.88 34.46 119.173 34.46 118.3C34.46 117.427 35.1673 116.72 36.0399 116.72Z" fill="#44A2A7"/>
<path d="M104.961 116.72C105.833 116.72 106.541 117.428 106.541 118.3C106.541 119.173 105.833 119.88 104.961 119.88C104.088 119.88 103.381 119.173 103.381 118.3C103.381 117.428 104.088 116.72 104.961 116.72Z" fill="#44A2A7"/>
<path d="M87.7302 81.7041C88.6027 81.7041 89.3101 82.4115 89.3101 83.284C89.3101 84.1566 88.6027 84.8639 87.7302 84.8639C86.8576 84.8639 86.1503 84.1566 86.1503 83.284C86.1503 82.4115 86.8576 81.7041 87.7302 81.7041Z" fill="#44A2A7"/>
<path d="M53.2706 81.7041C54.1431 81.7041 54.8505 82.4114 54.8505 83.284C54.8505 84.1565 54.1431 84.8639 53.2706 84.8639C52.398 84.8639 51.6907 84.1565 51.6907 83.284C51.6907 82.4114 52.398 81.7041 53.2706 81.7041Z" fill="#44A2A7"/>
<path d="M18.8104 81.7041C19.6829 81.7041 20.3903 82.4114 20.3903 83.284C20.3903 84.1566 19.6829 84.8639 18.8104 84.8639C17.9378 84.8639 17.2305 84.1566 17.2305 83.284C17.2305 82.4114 17.9378 81.7041 18.8104 81.7041Z" fill="#44A2A7"/>
<path d="M122.191 81.7042C123.063 81.7042 123.771 82.4115 123.771 83.2841C123.771 84.1566 123.063 84.864 122.191 84.864C121.318 84.864 120.611 84.1566 120.611 83.2841C120.611 82.4115 121.318 81.7042 122.191 81.7042Z" fill="#44A2A7"/>
<path d="M70.5004 93.3761C71.373 93.3761 72.0803 94.0835 72.0803 94.956C72.0803 95.8286 71.373 96.5359 70.5004 96.5359C69.6279 96.5359 68.9205 95.8286 68.9205 94.956C68.9205 94.0835 69.6279 93.3761 70.5004 93.3761Z" fill="#44A2A7"/>
<path d="M36.0402 93.3761C36.9128 93.3761 37.6201 94.0835 37.6201 94.956C37.6201 95.8286 36.9128 96.5359 36.0402 96.5359C35.1677 96.5359 34.4603 95.8286 34.4603 94.956C34.4603 94.0835 35.1677 93.3761 36.0402 93.3761Z" fill="#44A2A7"/>
<path d="M104.961 93.3761C105.833 93.3761 106.541 94.0834 106.541 94.956C106.541 95.8286 105.833 96.5359 104.961 96.5359C104.088 96.5359 103.381 95.8286 103.381 94.956C103.381 94.0834 104.088 93.3761 104.961 93.3761Z" fill="#44A2A7"/>
<path d="M139.42 93.3762C140.293 93.3762 141 94.0835 141 94.9561C141 95.8286 140.293 96.536 139.42 96.536C138.548 96.536 137.84 95.8286 137.84 94.9561C137.84 94.0835 138.548 93.3762 139.42 93.3762Z" fill="#44A2A7"/>
<path d="M1.58002 93.3762C2.45258 93.3762 3.15992 94.0835 3.15992 94.9561C3.15992 95.8286 2.45258 96.536 1.58002 96.536C0.707468 96.536 0.000122109 95.8286 0.00012207 94.9561C0.000122032 94.0835 0.707468 93.3762 1.58002 93.3762Z" fill="#44A2A7"/>
<path d="M87.73 58.3601C88.6026 58.3601 89.31 59.0674 89.31 59.94C89.31 60.8125 88.6026 61.5199 87.73 61.5199C86.8575 61.5199 86.1501 60.8125 86.1501 59.94C86.1501 59.0674 86.8575 58.3601 87.73 58.3601Z" fill="#44A2A7"/>
<path d="M53.2703 58.3602C54.1429 58.3602 54.8502 59.0675 54.8502 59.9401C54.8502 60.8126 54.1429 61.52 53.2703 61.52C52.3978 61.52 51.6904 60.8126 51.6904 59.9401C51.6904 59.0675 52.3978 58.3602 53.2703 58.3602Z" fill="#44A2A7"/>
<path d="M18.8101 58.3602C19.6827 58.3602 20.39 59.0675 20.39 59.9401C20.39 60.8126 19.6827 61.52 18.8101 61.52C17.9376 61.52 17.2302 60.8126 17.2302 59.9401C17.2302 59.0675 17.9376 58.3602 18.8101 58.3602Z" fill="#44A2A7"/>
<path d="M122.191 58.3601C123.063 58.3601 123.771 59.0675 123.771 59.94C123.771 60.8126 123.063 61.5199 122.191 61.5199C121.318 61.5199 120.611 60.8126 120.611 59.94C120.611 59.0675 121.318 58.3601 122.191 58.3601Z" fill="#44A2A7"/>
<path d="M70.5008 70.032C71.3734 70.032 72.0807 70.7394 72.0807 71.6119C72.0807 72.4845 71.3734 73.1918 70.5008 73.1918C69.6282 73.1918 68.9209 72.4845 68.9209 71.6119C68.9209 70.7394 69.6282 70.032 70.5008 70.032Z" fill="#44A2A7"/>
<path d="M36.0401 70.032C36.9127 70.032 37.62 70.7393 37.62 71.6119C37.62 72.4844 36.9127 73.1918 36.0401 73.1918C35.1676 73.1918 34.4602 72.4844 34.4602 71.6119C34.4602 70.7393 35.1676 70.032 36.0401 70.032Z" fill="#44A2A7"/>
<path d="M104.961 70.0321C105.833 70.0321 106.54 70.7394 106.54 71.612C106.54 72.4845 105.833 73.1919 104.961 73.1919C104.088 73.1919 103.381 72.4845 103.381 71.612C103.381 70.7394 104.088 70.0321 104.961 70.0321Z" fill="#44A2A7"/>
<path d="M139.421 70.032C140.293 70.032 141.001 70.7394 141.001 71.6119C141.001 72.4845 140.293 73.1918 139.421 73.1918C138.548 73.1918 137.841 72.4845 137.841 71.6119C137.841 70.7394 138.548 70.032 139.421 70.032Z" fill="#44A2A7"/>
<path d="M1.5799 70.032C2.45246 70.032 3.1598 70.7393 3.1598 71.6119C3.1598 72.4844 2.45246 73.1918 1.5799 73.1918C0.707346 73.1918 3.87661e-08 72.4844 0 71.6119C-3.87661e-08 70.7393 0.707346 70.032 1.5799 70.032Z" fill="#44A2A7"/>
<path d="M87.7299 35.0161C88.6025 35.0161 89.3098 35.7234 89.3098 36.596C89.3098 37.4685 88.6025 38.1759 87.7299 38.1759C86.8574 38.1759 86.15 37.4685 86.15 36.596C86.15 35.7234 86.8574 35.0161 87.7299 35.0161Z" fill="#44A2A7"/>
<path d="M53.2707 35.0161C54.1433 35.0161 54.8506 35.7234 54.8506 36.596C54.8506 37.4685 54.1433 38.1759 53.2707 38.1759C52.3981 38.1759 51.6908 37.4685 51.6908 36.596C51.6908 35.7234 52.3981 35.0161 53.2707 35.0161Z" fill="#44A2A7"/>
<path d="M18.81 35.016C19.6826 35.016 20.3899 35.7234 20.3899 36.5959C20.3899 37.4685 19.6826 38.1758 18.81 38.1758C17.9374 38.1758 17.2301 37.4685 17.2301 36.5959C17.2301 35.7234 17.9374 35.016 18.81 35.016Z" fill="#44A2A7"/>
<path d="M122.191 35.016C123.064 35.016 123.771 35.7234 123.771 36.5959C123.771 37.4685 123.064 38.1758 122.191 38.1758C121.319 38.1758 120.611 37.4685 120.611 36.5959C120.611 35.7234 121.319 35.016 122.191 35.016Z" fill="#44A2A7"/>
<path d="M70.5007 46.6881C71.3732 46.6881 72.0806 47.3955 72.0806 48.268C72.0806 49.1406 71.3732 49.8479 70.5007 49.8479C69.6281 49.8479 68.9208 49.1406 68.9208 48.268C68.9208 47.3955 69.6281 46.6881 70.5007 46.6881Z" fill="#44A2A7"/>
<path d="M36.04 46.6882C36.9125 46.6882 37.6199 47.3955 37.6199 48.2681C37.6199 49.1406 36.9125 49.848 36.04 49.848C35.1674 49.848 34.4601 49.1406 34.4601 48.2681C34.4601 47.3955 35.1674 46.6882 36.04 46.6882Z" fill="#44A2A7"/>
<path d="M104.96 46.6881C105.833 46.6881 106.54 47.3955 106.54 48.268C106.54 49.1406 105.833 49.8479 104.96 49.8479C104.088 49.8479 103.38 49.1406 103.38 48.268C103.38 47.3955 104.088 46.6881 104.96 46.6881Z" fill="#44A2A7"/>
<path d="M139.42 46.6881C140.293 46.6881 141 47.3955 141 48.268C141 49.1406 140.293 49.8479 139.42 49.8479C138.548 49.8479 137.841 49.1406 137.841 48.268C137.841 47.3955 138.548 46.6881 139.42 46.6881Z" fill="#44A2A7"/>
<path d="M1.58027 46.6881C2.45282 46.6881 3.16017 47.3955 3.16017 48.268C3.16017 49.1406 2.45282 49.8479 1.58027 49.8479C0.707712 49.8479 0.00036625 49.1406 0.000366211 48.268C0.000366172 47.3955 0.707712 46.6881 1.58027 46.6881Z" fill="#44A2A7"/>
<path d="M87.7303 11.6722C88.6028 11.6722 89.3102 12.3795 89.3102 13.2521C89.3102 14.1246 88.6028 14.832 87.7303 14.832C86.8577 14.832 86.1504 14.1246 86.1504 13.2521C86.1504 12.3795 86.8577 11.6722 87.7303 11.6722Z" fill="#44A2A7"/>
<path d="M53.2706 11.6721C54.1431 11.6721 54.8505 12.3795 54.8505 13.252C54.8505 14.1246 54.1431 14.8319 53.2706 14.8319C52.398 14.8319 51.6907 14.1246 51.6907 13.252C51.6907 12.3795 52.398 11.6721 53.2706 11.6721Z" fill="#44A2A7"/>
<path d="M70.5006 23.3442C71.3731 23.3442 72.0805 24.0515 72.0805 24.9241C72.0805 25.7966 71.3731 26.504 70.5006 26.504C69.628 26.504 68.9207 25.7966 68.9207 24.9241C68.9207 24.0515 69.628 23.3442 70.5006 23.3442Z" fill="#44A2A7"/>
<path d="M36.0404 23.3442C36.9129 23.3442 37.6203 24.0515 37.6203 24.9241C37.6203 25.7966 36.9129 26.504 36.0404 26.504C35.1678 26.504 34.4604 25.7966 34.4604 24.9241C34.4604 24.0515 35.1678 23.3442 36.0404 23.3442Z" fill="#44A2A7"/>
<path d="M104.961 23.3441C105.833 23.3441 106.541 24.0515 106.541 24.924C106.541 25.7966 105.833 26.5039 104.961 26.5039C104.088 26.5039 103.381 25.7966 103.381 24.924C103.381 24.0515 104.088 23.3441 104.961 23.3441Z" fill="#44A2A7"/>
</svg>
