<svg width="191" height="32" viewBox="0 0 191 32" fill="none" xmlns="http://www.w3.org/2000/svg">
<path d="M47.8458 6.39307H55.2941L61.6784 26.4919H55.5898L54.5256 22.7381H47.8754L46.8112 26.4919H41.4318L47.8458 6.39307ZM48.9686 18.8071H53.3727L51.1857 11.0631L48.9686 18.8071Z" fill="#2D2D2D"/>
<path d="M63.3925 15.2304H61.5303V11.8017H63.3925V10.6786C63.3925 7.01348 65.6387 5.29919 69.1267 5.29919C70.0428 5.29919 70.7229 5.4174 71.3729 5.59473V9.2894C71.0185 9.17119 70.5748 9.08249 70.0131 9.08249C68.8903 9.08249 68.3878 9.76233 68.3878 10.6786V11.8017H72.6734V10.5012C72.6734 6.83614 74.9493 5.09229 78.4373 5.09229C79.3533 5.09229 80.0038 5.21049 80.6539 5.38783V9.08249C80.299 8.96429 79.915 8.90516 79.3237 8.90516C78.1712 8.90516 77.6984 9.55543 77.6984 10.5012V11.8017H80.6539V15.2304H77.6984V26.4916H72.6734V15.2304H68.3878V26.4916H63.3925V15.2304Z" fill="#2D2D2D"/>
<path d="M81.834 7.81221C81.834 6.33438 83.0161 5.21118 84.5827 5.21118C86.1493 5.21118 87.361 6.33438 87.361 7.81221C87.361 9.29008 86.1493 10.4132 84.5827 10.4132C83.0161 10.3837 81.834 9.29008 81.834 7.81221ZM82.1001 11.8024H87.1246V26.4923H82.1001V11.8024Z" fill="#2D2D2D"/>
<path d="M94.8117 5.33008H89.8163V26.493H94.8117V5.33008Z" fill="#2D2D2D"/>
<path d="M97.2643 7.81221C97.2643 6.33438 98.4468 5.21118 100.013 5.21118C101.58 5.21118 102.792 6.33438 102.792 7.81221C102.792 9.29008 101.58 10.4132 100.013 10.4132C98.4468 10.3837 97.2643 9.29008 97.2643 7.81221ZM97.5303 11.8024H102.555V26.4923H97.5303V11.8024Z" fill="#2D2D2D"/>
<path d="M104.356 22.4096C104.356 18.9514 107.282 17.5918 112.159 17.5918H113.578V17.2667C113.578 15.8479 113.252 14.9316 111.627 14.9316C110.238 14.9316 109.735 15.7592 109.617 16.6755H104.888C105.124 13.1286 107.903 11.3848 111.922 11.3848C115.972 11.3848 118.543 13.04 118.543 16.9415V26.4885H113.637V24.7741C112.928 25.8382 111.627 26.8136 109.292 26.8136C106.691 26.8432 104.356 25.5426 104.356 22.4096ZM113.578 21.3455V20.4588H112.247C110.238 20.4588 109.322 20.8431 109.322 22.0549C109.322 22.9121 109.883 23.4441 111.065 23.4441C112.513 23.4441 113.578 22.6165 113.578 21.3455Z" fill="#2D2D2D"/>
<path d="M121.593 21.7947V15.233H119.819V11.8044H121.593V8.73047H126.617V11.8044H129.514V15.233H126.617V21.2922C126.617 22.3563 127.149 22.8292 128.096 22.8292C128.657 22.8292 129.071 22.7405 129.544 22.5632V26.3761C128.893 26.5534 127.947 26.7899 126.765 26.7899C123.425 26.849 121.593 25.2529 121.593 21.7947Z" fill="#2D2D2D"/>
<path d="M130.397 19.3356V19.0992C130.397 14.37 133.914 11.3848 138.348 11.3848C142.368 11.3848 145.826 13.6902 145.826 18.9809V20.311H135.481C135.628 22.2618 136.752 23.385 138.555 23.385C140.21 23.385 140.919 22.6165 141.126 21.6411H145.856C145.412 24.9515 142.84 26.8432 138.407 26.8432C133.766 26.8432 130.397 24.1239 130.397 19.3356ZM140.919 17.4736C140.831 15.7001 139.973 14.7247 138.318 14.7247C136.811 14.7247 135.747 15.7001 135.51 17.4736H140.919Z" fill="#2D2D2D"/>
<path d="M145.768 6.39307H151.591L154.192 18.9253L156.882 6.39307H161.995L164.921 19.0435L167.64 6.39307H172.99L168.29 26.4919H162.261L159.157 13.7232L156.084 26.4919H150.468L145.768 6.39307Z" fill="#2D2D2D"/>
<path d="M174.675 6.39307H182.33C187.828 6.39307 190.399 8.84632 190.399 13.1026V13.2208C190.399 17.4474 187.562 19.7233 182.596 19.7233H180.409V26.4919H174.675V6.39307ZM182.064 15.7922C183.926 15.7922 184.902 14.9351 184.902 13.2503V13.1321C184.902 11.4178 183.897 10.7084 182.094 10.7084H180.409V15.7627H182.064V15.7922Z" fill="#2D2D2D"/>
<path d="M27.0346 18.5983C26.7391 18.5983 26.4435 18.6279 26.1479 18.6574L21.8917 11.0021C22.8375 9.87893 23.3991 8.43067 23.3991 6.8641C23.3991 3.28771 20.5025 0.391113 16.9261 0.391113C13.3497 0.391113 10.4531 3.31727 10.4531 6.8641C10.4531 8.4011 10.9851 9.81985 11.9014 10.943L7.46779 18.687C7.14268 18.6279 6.81757 18.5983 6.49241 18.5983C2.91601 18.5983 0.0194092 21.4949 0.0194092 25.0713C0.0194092 28.6477 2.91601 31.5443 6.49241 31.5443C10.0688 31.5443 12.9654 28.6477 12.9654 25.0713C12.9654 23.5343 12.4334 22.1156 11.5171 20.9924L15.9507 13.2485C16.2758 13.3076 16.601 13.3371 16.9261 13.3371C17.2217 13.3371 17.5172 13.3076 17.8128 13.278L22.069 20.9333C21.1232 22.0565 20.5616 23.5048 20.5616 25.0713C20.5616 28.6477 23.4582 31.5443 27.0346 31.5443C30.6111 31.5443 33.5076 28.6477 33.5076 25.0713C33.5076 21.4949 30.6111 18.5983 27.0346 18.5983ZM16.9261 4.64734C18.1379 4.64734 19.1429 5.6523 19.1429 6.8641C19.1429 8.07594 18.1379 9.08089 16.9261 9.08089C15.7142 9.08089 14.7093 8.07594 14.7093 6.8641C14.7093 5.6523 15.7142 4.64734 16.9261 4.64734ZM6.49241 27.2881C5.28057 27.2881 4.27563 26.2831 4.27563 25.0713C4.27563 23.8595 5.28057 22.8545 6.49241 22.8545C7.70426 22.8545 8.7092 23.8595 8.7092 25.0713C8.7092 26.2831 7.70426 27.2881 6.49241 27.2881ZM27.0346 27.2881C25.8228 27.2881 24.8179 26.2831 24.8179 25.0713C24.8179 23.8595 25.8228 22.8545 27.0346 22.8545C28.2465 22.8545 29.2514 23.8595 29.2514 25.0713C29.2514 26.2831 28.276 27.2881 27.0346 27.2881Z" fill="#E34F43"/>
</svg>
