<svg width="25" height="29" viewBox="0 0 25 29" fill="none" xmlns="http://www.w3.org/2000/svg">
<path d="M20.0048 27.3348C18.4599 28.8341 16.7554 28.6004 15.1307 27.8935C13.4034 27.1724 11.8243 27.1268 10.0001 27.8935C7.72834 28.874 6.52264 28.589 5.15447 27.3348C-2.57 19.3824 -1.42985 7.26839 7.34924 6.81233C9.47846 6.92635 10.9692 7.98953 12.2234 8.07789C14.0875 7.69879 15.8718 6.61281 17.8671 6.75533C20.2642 6.94915 22.0571 7.89547 23.2542 9.59713C18.3231 12.5615 19.4918 19.0603 24.021 20.8845C23.1146 23.2646 21.9516 25.6161 20.002 27.3548L20.0048 27.3348ZM12.0523 6.72682C11.8215 3.19239 14.6861 0.285035 17.9811 0C18.4343 4.076 14.2756 7.12587 12.0523 6.72682Z" fill="black"/>
</svg>
