<svg width="40" height="26" viewBox="0 0 40 26" fill="none" xmlns="http://www.w3.org/2000/svg">
<rect width="40" height="25.9459" rx="4" fill="white"/>
<path d="M37.6834 20.7156C37.6834 23.5985 35.3589 25.9459 32.5042 25.9459H4.32434V5.23037C4.32434 2.34749 6.64887 0 9.50356 0H37.6834V20.7156Z" fill="white"/>
<path d="M28.5076 15.403H30.6486C30.7098 15.403 30.8525 15.3824 30.9137 15.3824C31.3215 15.3 31.6681 14.9294 31.6681 14.4146C31.6681 13.9204 31.3215 13.5497 30.9137 13.4467C30.8525 13.4261 30.7301 13.4261 30.6486 13.4261H28.5076V15.403Z" fill="url(#paint0_linear)"/>
<path d="M30.404 1.75024C28.3649 1.75024 26.6929 3.4182 26.6929 5.49799V9.38988H31.9333C32.0556 9.38988 32.1983 9.38988 32.3003 9.41048C33.483 9.47225 34.3598 10.09 34.3598 11.1608C34.3598 12.0051 33.7684 12.7258 32.6673 12.8699V12.9111C33.8704 12.9935 34.788 13.673 34.788 14.7232C34.788 15.8558 33.7684 16.5971 32.4226 16.5971H26.6725V24.2161H32.1168C34.1558 24.2161 35.8279 22.5482 35.8279 20.4684V1.75024H30.404Z" fill="url(#paint1_linear)"/>
<path d="M31.403 11.4082C31.403 10.914 31.0564 10.5846 30.6486 10.5228C30.6078 10.5228 30.5058 10.5022 30.4447 10.5022H28.5076V12.3143H30.4447C30.5058 12.3143 30.6282 12.3143 30.6486 12.2937C31.0564 12.2319 31.403 11.9025 31.403 11.4082Z" fill="url(#paint2_linear)"/>
<path d="M9.89091 1.75024C7.85185 1.75024 6.17981 3.4182 6.17981 5.49799V14.7438C7.21974 15.2586 8.30044 15.5881 9.38114 15.5881C10.6658 15.5881 11.359 14.8056 11.359 13.7348V9.36929H14.54V13.7142C14.54 15.4028 13.5 16.7824 9.97247 16.7824C7.83146 16.7824 6.15942 16.3088 6.15942 16.3088V24.1955H11.6037C13.6428 24.1955 15.3148 22.5276 15.3148 20.4478V1.75024H9.89091Z" fill="url(#paint3_linear)"/>
<path d="M20.1476 1.75024C18.1086 1.75024 16.4365 3.4182 16.4365 5.49799V10.3989C17.3745 9.5958 19.0057 9.081 21.6361 9.20456C23.0431 9.26633 24.552 9.65758 24.552 9.65758V11.2432C23.7975 10.8519 22.9004 10.5019 21.7381 10.4195C19.7398 10.2753 18.5368 11.2638 18.5368 12.9935C18.5368 14.7438 19.7398 15.7322 21.7381 15.5675C22.9004 15.4851 23.7975 15.1145 24.552 14.7438V16.3294C24.552 16.3294 23.0635 16.7206 21.6361 16.7824C19.0057 16.906 17.3745 16.3912 16.4365 15.5881V24.2367H21.8808C23.9199 24.2367 25.5919 22.5688 25.5919 20.489V1.75024H20.1476Z" fill="url(#paint4_linear)"/>
<defs>
<linearGradient id="paint0_linear" x1="26.6894" y1="14.417" x2="35.8524" y2="14.417" gradientUnits="userSpaceOnUse">
<stop stop-color="#007940"/>
<stop offset="0.2285" stop-color="#00873F"/>
<stop offset="0.7433" stop-color="#40A737"/>
<stop offset="1" stop-color="#5CB531"/>
</linearGradient>
<linearGradient id="paint1_linear" x1="26.6892" y1="12.9742" x2="35.8529" y2="12.9742" gradientUnits="userSpaceOnUse">
<stop stop-color="#007940"/>
<stop offset="0.2285" stop-color="#00873F"/>
<stop offset="0.7433" stop-color="#40A737"/>
<stop offset="1" stop-color="#5CB531"/>
</linearGradient>
<linearGradient id="paint2_linear" x1="26.6892" y1="11.4057" x2="35.8525" y2="11.4057" gradientUnits="userSpaceOnUse">
<stop stop-color="#007940"/>
<stop offset="0.2285" stop-color="#00873F"/>
<stop offset="0.7433" stop-color="#40A737"/>
<stop offset="1" stop-color="#5CB531"/>
</linearGradient>
<linearGradient id="paint3_linear" x1="6.1755" y1="12.9742" x2="15.4804" y2="12.9742" gradientUnits="userSpaceOnUse">
<stop stop-color="#1F286F"/>
<stop offset="0.4751" stop-color="#004E94"/>
<stop offset="0.8261" stop-color="#0066B1"/>
<stop offset="1" stop-color="#006FBC"/>
</linearGradient>
<linearGradient id="paint4_linear" x1="16.3838" y1="12.9742" x2="25.421" y2="12.9742" gradientUnits="userSpaceOnUse">
<stop stop-color="#6C2C2F"/>
<stop offset="0.1735" stop-color="#882730"/>
<stop offset="0.5731" stop-color="#BE1833"/>
<stop offset="0.8585" stop-color="#DC0436"/>
<stop offset="1" stop-color="#E60039"/>
</linearGradient>
</defs>
</svg>
