<svg width="40" height="24" viewBox="0 0 40 24" fill="none" xmlns="http://www.w3.org/2000/svg">
<rect width="40" height="24" rx="4" fill="#003058"/>
<path d="M32.1979 16.5828V16.3054H32.1202L32.0303 16.4959L31.9409 16.3054H31.8627V16.5828H31.9179V16.3736L32.002 16.5541H32.0591L32.1432 16.3731V16.5828H32.1979ZM31.7048 16.5828V16.3527H31.8045V16.3058H31.5504V16.3527H31.6501V16.5828H31.7048Z" fill="#F79410"/>
<path d="M23.3622 17.7758H16.637V6.53003H23.3622V17.7758Z" fill="#FF5F00"/>
<path d="M17.0679 12.1521C17.0679 9.87086 18.2158 7.83878 20.0035 6.52922C18.6962 5.57161 17.0464 5.00004 15.2533 5.00004C11.0085 5.00004 7.56763 8.20209 7.56763 12.1521C7.56763 16.1022 11.0085 19.3042 15.2533 19.3042C17.0464 19.3042 18.6962 18.7326 20.0035 17.775C18.2158 16.4655 17.0679 14.4334 17.0679 12.1521Z" fill="#EB001B"/>
<path d="M32.4325 12.1521C32.4325 16.1022 28.9916 19.3042 24.7468 19.3042C22.9538 19.3042 21.304 18.7326 19.9962 17.775C21.7844 16.4655 22.9323 14.4334 22.9323 12.1521C22.9323 9.87086 21.7844 7.83878 19.9962 6.52922C21.304 5.57161 22.9538 5.00004 24.7468 5.00004C28.9916 5.00004 32.4325 8.20209 32.4325 12.1521Z" fill="#F79E1B"/>
</svg>
