<svg width="40" height="25" viewBox="0 0 40 25" fill="none" xmlns="http://www.w3.org/2000/svg">
<g clip-path="url(#clip0)">
<path d="M7.81921 0.000610352H17.7846C19.1757 0.000610352 20.0409 1.13446 19.7164 2.53016L15.0768 22.4498C14.7494 23.8406 13.3566 24.9754 11.9645 24.9754H2.00009C0.610954 24.9754 -0.256194 23.8406 0.0683182 22.4498L4.70987 2.53016C5.03438 1.13446 6.42643 0.000610352 7.81921 0.000610352Z" fill="#E21836"/>
<path d="M16.9552 0.00012207H28.4151C29.806 0.00012207 29.1788 1.13397 28.8516 2.52967L24.2128 22.4493C23.8873 23.8401 23.9888 24.975 22.595 24.975H11.1351C9.74134 24.975 8.87881 23.8401 9.20623 22.4493L13.8449 2.52967C14.1742 1.13397 15.5634 0.00012207 16.9552 0.00012207Z" fill="#00447C"/>
<path d="M27.9606 0.00012207H37.926C39.319 0.00012207 40.1842 1.13397 39.857 2.52967L35.2181 22.4493C34.8907 23.8401 33.497 24.975 32.1042 24.975H22.1434C20.7496 24.975 19.8852 23.8401 20.2116 22.4493L24.8512 2.52967C25.1757 1.13397 26.5668 0.00012207 27.9606 0.00012207Z" fill="#007B84"/>
<path d="M10.4217 6.3838C9.39689 6.39425 9.09424 6.3838 8.99756 6.36097C8.9604 6.53756 8.26887 9.72755 8.26692 9.73022C8.11803 10.3756 8.00969 10.8356 7.6417 11.1327C7.43281 11.3054 7.18894 11.3887 6.9062 11.3887C6.45174 11.3887 6.18698 11.1631 6.14253 10.7351L6.13403 10.5881C6.13403 10.5881 6.27248 9.72366 6.27248 9.7188C6.27248 9.7188 6.99826 6.81179 7.12821 6.42753C7.13501 6.40567 7.13696 6.39425 7.13866 6.3838C5.72596 6.39619 5.47553 6.3838 5.45829 6.36097C5.44881 6.39231 5.41383 6.57254 5.41383 6.57254L4.67275 9.849L4.60911 10.1269L4.48596 11.0358C4.48596 11.3054 4.53891 11.5255 4.64433 11.7115C4.98196 12.3015 5.94505 12.39 6.48988 12.39C7.19185 12.39 7.85035 12.2408 8.29534 11.9685C9.06776 11.5121 9.26985 10.7987 9.45008 10.1648L9.53364 9.83952C9.53364 9.83952 10.2813 6.82029 10.4083 6.42753C10.4132 6.40567 10.4151 6.39425 10.4217 6.3838ZM12.9655 8.81945C12.7853 8.81945 12.4559 8.86317 12.16 9.00818C12.0527 9.06332 11.9511 9.12696 11.844 9.19035L11.9407 8.84131L11.8877 8.78253C11.2603 8.90956 11.1199 8.92656 10.5404 9.00818L10.4918 9.04048C10.4245 9.59842 10.3648 10.0179 10.1153 11.1146C10.0203 11.5188 9.92172 11.9268 9.82286 12.3301L9.84958 12.3813C10.4435 12.35 10.6237 12.35 11.1399 12.3585L11.1816 12.3131C11.2472 11.9771 11.2557 11.8984 11.401 11.2181C11.4692 10.8955 11.6116 10.1867 11.6818 9.93435C11.8107 9.8746 11.938 9.81582 12.0595 9.81582C12.3488 9.81582 12.3135 10.0682 12.3024 10.1687C12.29 10.3376 12.1846 10.8889 12.0765 11.3624L12.0043 11.6679C11.9541 11.8936 11.8989 12.1129 11.8486 12.3366L11.8705 12.3813C12.4559 12.35 12.6344 12.35 13.1343 12.3585L13.1931 12.3131C13.2834 11.7884 13.3099 11.648 13.4702 10.8841L13.5509 10.5331C13.7075 9.84618 13.7862 9.49786 13.6677 9.21416C13.5424 8.8962 13.2417 8.81945 12.9655 8.81945ZM15.8072 9.53864C15.496 9.5984 15.2976 9.63823 15.1004 9.66398C14.9048 9.69531 14.7142 9.72373 14.4134 9.76551L14.3896 9.78713L14.3678 9.80438C14.3365 10.0283 14.3146 10.2219 14.2731 10.4495C14.2378 10.6849 14.1837 10.9523 14.0955 11.3366C14.0272 11.6307 13.992 11.7332 13.9532 11.8367C13.9153 11.9402 13.8735 12.0407 13.7967 12.33L13.8147 12.3568L13.8298 12.3813C14.1108 12.3679 14.2947 12.3585 14.4836 12.3568C14.6724 12.35 14.8679 12.3568 15.1706 12.3585L15.197 12.3368L15.2255 12.313C15.2692 12.0522 15.2757 11.982 15.3025 11.8547C15.3289 11.7182 15.3746 11.5292 15.4866 11.0245C15.5395 10.7874 15.5986 10.551 15.6534 10.3091C15.7105 10.0682 15.7703 9.83085 15.8271 9.59378L15.8186 9.56512L15.8072 9.53864ZM15.8138 8.56894C15.5311 8.40207 15.0349 8.45502 14.7009 8.68554C14.3679 8.91143 14.33 9.23206 14.6117 9.40112C14.8896 9.56337 15.3878 9.51503 15.7189 9.28258C16.0511 9.05183 16.0927 8.73412 15.8138 8.56894ZM17.5237 12.4336C18.0957 12.4336 18.6821 12.2759 19.1234 11.8081C19.463 11.4287 19.6187 10.8642 19.6726 10.6318C19.8483 9.86129 19.7115 9.50155 19.5398 9.28246C19.2789 8.94847 18.8179 8.84136 18.3396 8.84136C18.052 8.84136 17.367 8.86977 16.8319 9.3631C16.4477 9.71895 16.2701 10.2018 16.163 10.6648C16.0549 11.1365 15.9305 11.9857 16.7115 12.3017C16.9524 12.4052 17.2998 12.4336 17.5237 12.4336ZM17.479 10.7C17.6109 10.1166 17.7666 9.62689 18.164 9.62689C18.4754 9.62689 18.498 9.99124 18.3595 10.5766C18.3348 10.7066 18.2211 11.1897 18.0673 11.3954C17.96 11.5472 17.8329 11.6393 17.6925 11.6393C17.6508 11.6393 17.4023 11.6393 17.3984 11.2703C17.3964 11.0882 17.4336 10.9021 17.479 10.7ZM21.1026 12.3586L21.1473 12.3131C21.2107 11.9772 21.2211 11.8983 21.3615 11.2181C21.4317 10.8956 21.577 10.1868 21.6452 9.93442C21.7744 9.87443 21.8995 9.81565 22.0249 9.81565C22.3122 9.81565 22.2772 10.068 22.2658 10.1686C22.2554 10.3376 22.15 10.8888 22.0399 11.3622L21.9717 11.6677C21.9195 11.8936 21.8626 12.1127 21.8123 12.3367L21.8342 12.3814C22.4215 12.3501 22.5933 12.35 23.0961 12.3586L23.1568 12.3131C23.245 11.7882 23.2688 11.6478 23.4339 10.8842L23.5126 10.5329C23.67 9.84601 23.7497 9.49793 23.6331 9.21423C23.5041 8.89627 23.2015 8.81952 22.9292 8.81952C22.7487 8.81952 22.4176 8.863 22.1235 9.00825C22.0183 9.06339 21.9129 9.12679 21.8094 9.19043L21.8995 8.84138L21.8512 8.78236C21.224 8.90963 21.0807 8.92664 20.5019 9.00825L20.4574 9.04056C20.3873 9.59849 20.3302 10.0177 20.0807 11.1147C19.9857 11.5189 19.8871 11.9269 19.7885 12.3301L19.815 12.3814C20.4098 12.3501 20.5874 12.35 21.1026 12.3586ZM25.4178 12.3813C25.4547 12.201 25.6741 11.1328 25.676 11.1328C25.676 11.1328 25.8628 10.3489 25.8742 10.3205C25.8742 10.3205 25.933 10.2389 25.9918 10.2066H26.0782C26.8941 10.2066 27.8155 10.2066 28.5376 9.67537C29.029 9.31102 29.3649 8.773 29.5148 8.11912C29.5536 7.95881 29.5823 7.76813 29.5823 7.57746C29.5823 7.32703 29.532 7.07927 29.3868 6.88568C29.0185 6.37049 28.2852 6.36102 27.4387 6.35713C27.436 6.35713 27.0214 6.36102 27.0214 6.36102C25.9379 6.37438 25.5033 6.37049 25.3248 6.34863C25.3097 6.42757 25.2813 6.56797 25.2813 6.56797C25.2813 6.56797 24.8931 8.36688 24.8931 8.36979C24.8931 8.36979 23.9643 12.1945 23.9206 12.3747C24.8667 12.3633 25.2546 12.3633 25.4178 12.3813ZM26.137 9.18569C26.137 9.18569 26.5497 7.39042 26.5478 7.39723L26.5611 7.30517L26.567 7.23497L26.7319 7.25197C26.7319 7.25197 27.583 7.32508 27.6029 7.32703C27.9388 7.45698 28.0773 7.79194 27.9806 8.22915C27.8925 8.62872 27.6333 8.96465 27.3003 9.12691C27.026 9.26439 26.6901 9.2758 26.344 9.2758H26.12L26.137 9.18569ZM28.7065 10.7333C28.5974 11.1982 28.4721 12.0473 29.2491 12.35C29.4969 12.4554 29.7189 12.4868 29.9446 12.4753C30.1828 12.4625 30.4036 12.343 30.6082 12.171C30.5897 12.2417 30.5712 12.3124 30.5528 12.3833L30.588 12.4287C31.1469 12.4051 31.3203 12.4051 31.9259 12.4098L31.9808 12.368C32.0692 11.8482 32.1525 11.3434 32.3823 10.349C32.4943 9.87268 32.606 9.40097 32.7209 8.92659L32.7029 8.87437C32.0777 8.99023 31.9106 9.015 31.3092 9.10026L31.2635 9.13742C31.2574 9.18576 31.2511 9.23216 31.2453 9.27855C31.1518 9.12747 31.0162 8.99849 30.8071 8.91809C30.5397 8.81291 29.9115 8.94845 29.3716 9.44008C28.9922 9.79106 28.81 10.272 28.7065 10.7333ZM30.0196 10.7617C30.1535 10.1887 30.3072 9.70386 30.7056 9.70386C30.9574 9.70386 31.0901 9.93632 31.0631 10.3327C31.0417 10.4316 31.0187 10.5358 30.9912 10.6536C30.9514 10.8239 30.9081 10.9927 30.8661 11.1617C30.8234 11.2774 30.7736 11.3864 30.7189 11.459C30.6164 11.6043 30.3725 11.6944 30.2322 11.6944C30.1923 11.6944 29.9465 11.6944 29.938 11.332C29.9361 11.1515 29.9732 10.9657 30.0196 10.7617ZM36.8768 8.86973L36.8284 8.81459C36.2098 8.93992 36.0978 8.95984 35.5294 9.0366L35.4876 9.07838C35.4857 9.08518 35.484 9.09562 35.4811 9.10509L35.4791 9.09562C35.056 10.0718 35.0684 9.86124 34.724 10.6298C34.722 10.5948 34.722 10.5729 34.7201 10.5358L34.6338 8.86973L34.5797 8.81459C33.9316 8.93992 33.9163 8.95984 33.3178 9.0366L33.2712 9.07838C33.2646 9.09829 33.2646 9.12015 33.2607 9.14396L33.2646 9.15246C33.3394 9.53478 33.3215 9.44953 33.3965 10.0529C33.4315 10.349 33.4781 10.6468 33.5131 10.9392C33.5721 11.4287 33.6052 11.6696 33.6773 12.4165C33.2731 13.0835 33.1774 13.3359 32.7883 13.9213L32.791 13.9271L32.517 14.3604C32.4856 14.4061 32.4572 14.4374 32.4174 14.4508C32.3737 14.4724 32.3168 14.4763 32.2379 14.4763H32.0861L31.8604 15.2269L32.6345 15.2402C33.089 15.2383 33.3747 15.0257 33.5284 14.7401L34.0152 13.906H34.0074L34.0587 13.8472C34.3861 13.1423 36.8768 8.86973 36.8768 8.86973ZM28.7065 18.7272H28.3781L29.5935 14.7069H29.9968L30.1248 14.2928L30.1372 14.7533C30.1221 15.038 30.3461 15.2904 30.9344 15.2486H31.6147L31.8489 14.4745H31.5928C31.4457 14.4745 31.3774 14.4373 31.3859 14.3577L31.3735 13.8891H30.1136V13.8915C29.7063 13.9 28.4898 13.9306 28.2435 13.9962C27.9455 14.073 27.6314 14.2989 27.6314 14.2989L27.7548 13.8842H26.5763L26.3307 14.7069L25.099 18.7886H24.8599L24.6255 19.5571H26.9729L26.8942 19.8134H28.0509L28.1277 19.5571H28.4522L28.7065 18.7272ZM27.7434 15.5238C27.5547 15.576 27.2034 15.7344 27.2034 15.7344L27.5158 14.7069H28.4522L28.2263 15.4556C28.2263 15.4556 27.937 15.4726 27.7434 15.5238ZM27.7614 16.9916C27.7614 16.9916 27.4672 17.0286 27.2736 17.0723C27.0829 17.1301 26.7254 17.3123 26.7254 17.3123L27.048 16.243H27.9892L27.7614 16.9916ZM27.2367 18.7366H26.2974L26.5697 17.8343H27.5061L27.2367 18.7366ZM29.4987 16.243H30.8526L30.6581 16.8731H29.2862L29.0802 17.562H30.2806L29.3717 18.8418C29.308 18.9358 29.251 18.9691 29.1876 18.9956C29.1239 19.0279 29.0404 19.0658 28.9437 19.0658H28.6107L28.3819 19.8202H29.2529C29.7057 19.8202 29.9731 19.6142 30.1706 19.3439L30.7939 18.4908L30.9277 19.357C30.9561 19.5193 31.0727 19.6142 31.1516 19.6511C31.2388 19.6949 31.329 19.7699 31.4562 19.7811C31.5928 19.7869 31.6914 19.7915 31.7569 19.7915H32.1849L32.4419 18.9472H32.2731C32.1762 18.9472 32.0093 18.931 31.9809 18.9006C31.9525 18.8637 31.9525 18.8068 31.9372 18.7204L31.8014 17.8522H31.2454L31.4893 17.562H32.8585L33.0691 16.8731H31.8014L31.9989 16.243H33.2627L33.4971 15.466H29.7292L29.4987 16.243ZM18.0635 18.9121L18.3795 17.8608H19.6783L19.9156 17.0789H18.6156L18.814 16.4318H20.0844L20.3198 15.6747H17.1412L16.9107 16.4318H17.6328L17.4402 17.0789H16.7161L16.4761 17.8742H17.198L16.7769 19.265C16.72 19.4491 16.8036 19.5193 16.8565 19.6048C16.9107 19.6881 16.9656 19.7433 17.089 19.7746C17.2163 19.803 17.3035 19.82 17.422 19.82H18.8862L19.1471 18.9539L18.498 19.043C18.3727 19.043 18.0256 19.0279 18.0635 18.9121ZM18.2125 13.8795L17.8833 14.4744C17.8129 14.6043 17.7495 14.685 17.6924 14.7221C17.6421 14.7535 17.5425 14.7666 17.3983 14.7666H17.2265L16.997 15.5276H17.5673C17.8416 15.5276 18.0521 15.427 18.1527 15.3767C18.2608 15.3189 18.2892 15.352 18.3728 15.2713L18.5654 15.1044H20.3463L20.5827 14.3121H19.279L19.5066 13.8795H18.2125ZM20.8417 18.9274C20.8113 18.8836 20.8332 18.8066 20.8796 18.6463L21.3664 17.0352H23.098C23.3503 17.0315 23.5325 17.0286 23.6511 17.0201C23.7783 17.0068 23.9168 16.9613 24.0676 16.8797C24.2233 16.7942 24.303 16.7041 24.3703 16.6006C24.4453 16.4974 24.5658 16.2715 24.6693 15.9232L25.2811 13.8843L23.4842 13.8947C23.4842 13.8947 22.9309 13.9764 22.6872 14.0665C22.4414 14.167 22.0902 14.4478 22.0902 14.4478L22.2524 13.8889H21.1424L19.5883 19.043C19.5332 19.2431 19.4963 19.3884 19.4878 19.4756C19.4849 19.5696 19.6063 19.6626 19.685 19.7328C19.778 19.803 19.9155 19.7916 20.0474 19.803C20.1861 19.8135 20.3833 19.82 20.6556 19.82H21.5087L21.7705 18.9359L21.0069 19.008C20.9252 19.008 20.8662 18.9643 20.8417 18.9274ZM21.6804 15.947H23.4992L23.3836 16.3094C23.3674 16.3179 23.3285 16.2914 23.1434 16.3133H21.5684L21.6804 15.947ZM22.0448 14.7315H23.8789L23.747 15.168C23.747 15.168 22.8825 15.1595 22.7441 15.185C22.1349 15.2904 21.779 15.6159 21.779 15.6159L22.0448 14.7315ZM23.4243 17.523C23.4093 17.5772 23.3855 17.6102 23.3522 17.635C23.3153 17.6588 23.2555 17.6673 23.1664 17.6673H22.9072L22.9225 17.2259H21.8445L21.8008 19.3836C21.7991 19.5393 21.8142 19.6294 21.9281 19.7015C22.042 19.7917 22.393 19.8031 22.8654 19.8031H23.5409L23.7848 18.9954L23.1967 19.0277L23.0012 19.0392C22.9745 19.0277 22.949 19.0173 22.9206 18.9889C22.8958 18.9644 22.854 18.9794 22.8608 18.8237L22.8654 18.2706L23.4821 18.2451C23.8152 18.2451 23.9575 18.1368 24.0789 18.0336C24.1948 17.9347 24.2327 17.821 24.2764 17.6673L24.3799 17.1776H23.5324L23.4243 17.523Z" fill="#FEFEFE"/>
</g>
<defs>
<clipPath id="clip0">
<rect width="40" height="25" fill="white"/>
</clipPath>
</defs>
</svg>
