<svg width="40" height="14" viewBox="0 0 40 14" fill="none" xmlns="http://www.w3.org/2000/svg">
<path d="M17.3333 12.8186H14.093L16.1197 0.228271H19.3598L17.3333 12.8186Z" fill="#00579F"/>
<path d="M29.0796 0.536018C28.4404 0.281272 27.4267 0 26.1733 0C22.9734 0 20.7201 1.71433 20.7063 4.16531C20.6797 5.97364 22.3196 6.97802 23.5461 7.58098C24.7997 8.1971 25.2259 8.59925 25.2259 9.14844C25.2131 9.9919 24.2129 10.3807 23.28 10.3807C21.9863 10.3807 21.2931 10.1802 20.2397 9.71099L19.813 9.50982L19.3596 12.3361C20.1196 12.6839 21.5197 12.9926 22.9734 13.0061C26.3733 13.0061 28.5868 11.3183 28.613 8.70642C28.626 7.27318 27.76 6.17498 25.8932 5.27758C24.7598 4.70151 24.0658 4.31307 24.0658 3.72364C24.0791 3.1878 24.6528 2.63897 25.9321 2.63897C26.9855 2.61209 27.7595 2.86648 28.3458 3.12104L28.6389 3.25474L29.0796 0.536018Z" fill="#00579F"/>
<path d="M33.3862 8.35826C33.653 7.63497 34.6798 4.8356 34.6798 4.8356C34.6664 4.86249 34.9462 4.09896 35.1062 3.63023L35.3326 4.71509C35.3326 4.71509 35.9462 7.72878 36.0795 8.35826C35.5731 8.35826 34.0262 8.35826 33.3862 8.35826ZM37.3859 0.228271H34.8795C34.1066 0.228271 33.5194 0.455781 33.1859 1.27289L28.3729 12.8184H31.7729C31.7729 12.8184 32.3326 11.2644 32.4529 10.9298C32.8259 10.9298 36.1333 10.9298 36.6132 10.9298C36.7062 11.3718 36.9998 12.8184 36.9998 12.8184H40L37.3859 0.228271Z" fill="#00579F"/>
<path d="M11.3866 0.228271L8.21326 8.81364L7.8665 7.07243C7.27982 5.06329 5.43988 2.88041 3.3866 1.79502L6.29323 12.8052H9.71973L14.8129 0.228271H11.3866Z" fill="#00579F"/>
<path d="M5.26663 0.228271H0.0533341L0 0.482662C4.06669 1.52746 6.75999 4.04591 7.86654 7.07296L6.73323 1.2866C6.54665 0.482484 5.97326 0.254796 5.26663 0.228271Z" fill="#FAA61A"/>
</svg>
