<?xml version="1.0" encoding="utf-8"?>
<!-- Generator: Adobe Illustrator 24.3.0, SVG Export Plug-In . SVG Version: 6.00 Build 0)  -->
<svg version="1.1" id="Layer_1" xmlns="http://www.w3.org/2000/svg" xmlns:xlink="http://www.w3.org/1999/xlink" x="0px" y="0px"
	 viewBox="0 0 135 75" style="enable-background:new 0 0 135 75;" xml:space="preserve">
<style type="text/css">
	.st0{fill:#7368AF;}
</style>
<g>
	<path class="st0" d="M11.8,58.5c-0.2,0.4-0.5,0.7-0.7,1L86.2,59v-1L11.8,58.5z"/>
	<path class="st0" d="M85.8,22.1v-1.4c-19,3.8-37.9,7.6-56.9,11.3c-6.7,8.8-13.3,17.7-20,26.6h2.9C18.2,50,24.6,41.5,31,32.9
		C49.2,29.3,67.5,25.7,85.8,22.1z"/>
	<path class="st0" d="M72.1,40.1c0-0.1-0.1-0.3,0-0.5l0.1-2.5c0-0.2,0-0.4,0.1-0.5c0-0.1,0.1-0.2,0.1-0.2l0,0l0,0h-0.5
		c-0.2-0.8-0.6-1.4-1.1-1.7c-0.5-0.4-1-0.5-1.5-0.5s-0.9,0.1-1.3,0.4c-0.4,0.3-0.7,0.7-1,1.3c-0.2,0.6-0.4,1.3-0.4,2.1
		c0,0.3,0,0.5,0.1,0.7c0.1,0.2,0.1,0.4,0.3,0.7s0.3,0.4,0.4,0.4c0.1,0.1,0.3,0.2,0.6,0.2c0.1,0,0.2,0,0.4,0.1l-0.4-0.4l1.5-1.8
		l1.7,1.5L69.5,41l-1-0.8c-0.8,0.3-1.6,0.6-2.5,0.9l1.1,1.9c0.2-0.5,0.5-0.9,0.9-1.2c0.4-0.3,0.8-0.4,1.3-0.4c0.4,0,0.9,0.1,1.3,0.4
		c0.1,0.1,0.2,0.1,0.3,0.2c0.4-0.6,0.7-1.2,0.9-1.8h0.5C72.2,40.3,72.1,40.2,72.1,40.1z M69.4,37.5c-0.1,0-0.4,0-0.8-0.1
		c0-0.3,0.1-0.4,0.1-0.6c0.1-0.1,0.2-0.1,0.4-0.1c0.1,0,0.3,0.1,0.4,0.2c0.1,0.1,0.1,0.3,0.1,0.6C69.7,37.5,69.6,37.6,69.4,37.5z"/>
	<polygon class="st0" points="77.1,28.2 75.5,26.7 73.9,28.5 75.6,29.9 	"/>
	<path class="st0" d="M77.9,32c-0.3-0.6-0.7-1-1.1-1.3c-0.4-0.2-0.9-0.4-1.3-0.4c-0.5,0-0.9,0.1-1.3,0.4c-0.4,0.3-0.7,0.7-1,1.3
		c-0.2,0.6-0.4,1.3-0.4,2.1c0,0.3,0,0.5,0.1,0.7c0.1,0.2,0.1,0.4,0.3,0.7c0.1,0.2,0.3,0.4,0.4,0.4c0.1,0.1,0.3,0.2,0.6,0.2
		c0.2,0.1,0.6,0.1,1,0.1c0.3,0,0.5,0,0.7,0v0.1c-0.1,0.1-0.4,0.1-0.9,0.1s-1.4,0-2.6,0c0.1,0,0.1,0.1,0.1,0.2c0,0.1,0.1,0.3,0,0.5
		l-0.1,2.5c0,0.2,0,0.4-0.1,0.5c0,0.1-0.1,0.2-0.1,0.2l0,0l0,0c1.3,0,2.4,0,3.2-0.1c0.8-0.1,1.4-0.4,1.8-0.7
		c0.4-0.3,0.7-0.9,0.8-1.7c0.1-0.9,0.2-2,0.3-3.4C78.3,33.3,78.2,32.6,77.9,32z M75.8,33.7c-0.1,0-0.4,0-0.8-0.1
		c0-0.3,0.1-0.4,0.1-0.6c0.1-0.1,0.2-0.1,0.4-0.1s0.3,0.1,0.4,0.2c0.1,0.1,0.1,0.3,0.1,0.6C76.1,33.7,75.9,33.7,75.8,33.7z"/>
	<path class="st0" d="M52.6,39.3c0,0.7,0,1.3,0,2l0,0c0.7,0.2,1.7,0.4,2.8,0.4c0.5,0,1,0,1.5-0.1c0.4-0.1,0.7-0.1,1-0.2
		c0.1-0.1,0.3-0.1,0.4-0.3c0.1-0.1,0.2-0.3,0.4-0.4c0.4,0.7,1.1,1,2.3,1.1c-0.1,0-0.1-0.1-0.1-0.2c0-0.1-0.1-0.3,0-0.5l0.1-2.5
		c0-0.2,0-0.4,0.1-0.5c0-0.1,0.1-0.2,0.1-0.2c-0.4,0-0.7,0-0.7,0v-1.6l-2.6,0.3l0.2,1.3c-0.6,0.1-1.3,0.1-2.2,0.1
		c-0.7,0-1.3-0.1-1.8-0.1s-0.7-0.3-0.7-0.4c0-0.3,0.1-0.8,0.2-1.5l-2.2-0.4v0.1c0.7,1,1.2,2.1,1.4,3.5
		C52.5,38.9,52.5,39.1,52.6,39.3z"/>
	<polygon class="st0" points="56,34.7 57.3,35.9 58.7,34.3 57.2,32.9 56,34.3 54.7,33.1 53.3,34.6 54.8,36 	"/>
	<polygon class="st0" points="64.9,33.4 63.2,31.8 61.7,33.6 63.4,35.1 	"/>
	<path class="st0" d="M61,38c0,0.1,0.1,0.3,0.1,0.5L61,41c0,0.2,0,0.4-0.1,0.5c0,0.1-0.1,0.2-0.1,0.2c1,0,1.7,0,2.2-0.1
		c0.4-0.1,0.9-0.3,1.2-0.5c0.3-0.2,0.6-0.6,0.7-1c0.1-0.4,0.3-0.9,0.3-1.3s0-1.2-0.1-2.2L65,35.4L62.3,36l0.3,1.9
		c-0.4-0.1-1-0.1-1.8-0.1C60.9,37.8,61,37.9,61,38z"/>
	<path class="st0" d="M47.5,51c0-0.1-0.1-0.3,0-0.5v-2.3c-0.7,0.4-1.5,0.6-2.4,0.7c-0.2,0.1-0.5,0-0.7,0.1c-0.1,0-0.3,0-0.5,0
		l-0.2,1.3c0.4,0.1,0.8,0.2,1.3,0.4c-0.3,0-0.7,0.1-1.2,0.1s-1,0-1.3,0c-0.4,0-0.6-0.1-0.8-0.1c-0.1-0.1-0.3-0.1-0.3-0.2
		c0-0.1-0.1-0.2-0.1-0.4c0-0.1,0.1-0.6,0.1-1.3c-0.8-0.2-1.5-0.5-2.2-0.8C39.1,49,39,49.7,39,50.2c-0.1,0.7-0.1,1.3-0.1,1.8
		c0,0.8,0.3,1.5,0.9,1.9c0.6,0.4,1.5,0.7,2.9,0.7c0.9,0,1.6-0.1,2.4-0.4c0.7-0.3,1.3-0.7,1.7-1.3s0.7-1,0.7-1.6h0.3
		C47.6,51.2,47.6,51.1,47.5,51z"/>
	<path class="st0" d="M57,50.1c0.3-0.4,0.4-1.1,0.4-1.8c0-0.4,0-1-0.1-2.1l-0.1-1.3l-2.6,0.5l0.3,1.9c-0.2,0-0.4,0-0.5,0
		c-0.1,0-0.3,0-0.4-0.1v-1.5l-2.4,0.1l0.1,1.3c-0.1,0.1-0.2,0.1-0.4,0.1c-0.1,0-0.2-0.1-0.3-0.1c-0.1-0.1-0.1-0.1-0.1-0.3V46h-0.8
		c-0.7,0.7-1.5,1.3-2.4,1.8l-0.1,2.4c0,0.2,0,0.4-0.1,0.5c0,0.1-0.1,0.2-0.1,0.2c0.8,0,1.4-0.2,1.7-0.7c0.1,0.2,0.4,0.4,0.7,0.5
		c0.3,0.1,0.7,0.2,1,0.2c1,0,1.5-0.2,1.8-0.7c0.3,0.5,1,0.8,2,0.8c0.4,0,0.7-0.1,1.1-0.3C56.4,50.9,56.7,50.5,57,50.1z"/>
	<path class="st0" d="M61.4,46.8L61.3,46l-2.8,0.6l0.7,3.8c-0.2,0.3-0.5,0.6-1,0.9s-1.3,0.6-2.4,1l1.8,3.2c1-0.5,1.8-1,2.4-1.5
		c0.6-0.5,1-1,1.3-1.6c0.3-0.6,0.4-1.3,0.4-2.2c0-0.4,0-0.9-0.1-1.4C61.6,48.3,61.5,47.6,61.4,46.8z"/>
	<path class="st0" d="M65.8,51.3c0-0.1-0.1-0.3,0-0.5l0.1-2.5c0-0.2,0-0.4,0.1-0.5c0-0.1,0.1-0.2,0.1-0.2h-0.2
		c-0.3,0-0.4-0.1-0.5-0.1c-0.1-0.1-0.1-0.3-0.1-0.6l0.2-5l-3,0.4l0.1,5.4c0,1,0.1,1.7,0.3,2.2c0.2,0.6,0.5,1,0.9,1.3
		c0.4,0.3,1,0.4,1.6,0.4h0.4C65.9,51.5,65.8,51.4,65.8,51.3z"/>
	<path class="st0" d="M68.8,40.1c-0.2,0-0.4,0-0.7,0l0.3,0.3c0.2-0.1,0.4-0.1,0.6-0.2L68.8,40.1z"/>
	<path class="st0" d="M67.7,44.4L67,43.1c0,0,0,0.1-0.1,0.1c-0.2,0.6-0.4,1.3-0.4,2.1c0,0.3,0,0.5,0.1,0.7c0.1,0.2,0.1,0.4,0.3,0.7
		c0.1,0.2,0.3,0.4,0.4,0.4c0.1,0.1,0.3,0.2,0.6,0.2c0.2,0.1,0.6,0.1,1,0.1c0.3,0,0.5,0,0.7,0v0.1c-0.1,0.1-0.4,0.1-0.9,0.1
		s-1.4,0-2.6,0c0.1,0,0.1,0.1,0.1,0.2c0,0.1,0.1,0.3,0.1,0.5l-0.1,2.5c0,0.2,0,0.4-0.1,0.5c0,0.1-0.1,0.2-0.1,0.2
		c1.3,0,2.4,0,3.2-0.1c0.8-0.1,1.4-0.4,1.8-0.7c0.4-0.3,0.7-0.9,0.8-1.7c0.1-0.9,0.2-2,0.3-3.4c0-1-0.1-1.8-0.4-2.4
		c-0.2-0.4-0.5-0.8-0.8-1c-0.1,0.1-0.2,0.3-0.4,0.4C69.9,43.2,69,43.8,67.7,44.4z M69.5,44.9c-0.1,0-0.4,0-0.8-0.1
		c0-0.3,0.1-0.4,0.1-0.6c0.1-0.1,0.2-0.1,0.4-0.1c0.1,0,0.3,0.1,0.4,0.2c0.1,0.1,0.1,0.3,0.1,0.6C69.8,44.9,69.7,44.9,69.5,44.9z"/>
	<path class="st0" d="M41.9,47.5c-0.1,0.5-0.1,1-0.2,1.4c0.2,0.1,0.4,0.1,0.7,0.1c0.1,0,0.2,0,0.3,0.1c0.4,0,1,0,1.4,0l0.3-1.8
		l3.5,0.1c0.4,0,0.8,0,1-0.1v-1h1.5c1.1-1.3,1.9-2.8,2.2-4.6c0-0.1,0-0.2,0.1-0.3c-0.3-0.1-0.6-0.2-0.8-0.3
		c-0.9-0.4-1.3-1.3-1.3-2.4c0-0.1,0.1-0.4,0.1-0.9c0.1-0.4,0.2-1.3,0.5-2.6c-1.4-2.1-3.6-3.5-6.3-3.8c-4.9-0.7-9.4,2.9-10,7.7
		c-0.4,3.8,1.4,7.2,4.6,8.9c0.1-0.3,0.1-0.6,0.1-0.9L41.9,47.5z M45.6,46.7c-1.3,0.4-2.5,0.4-3.8,0c-0.1,0-0.1-0.1-0.1-0.2
		c0.7-1.8,1.3-3.8,2.1-5.7c0.7,1.9,1.3,3.8,2,5.7C45.8,46.5,45.8,46.6,45.6,46.7z M49.7,37.2c0.9,1.8,1,3.8,0.2,5.7
		c-0.6,1.4-1.5,2.4-2.8,3.2c0,0-0.1,0-0.1-0.1c0.1-0.5,0.4-1,0.5-1.5c0.6-1.5,1.2-3.1,1.7-4.7C49.6,39,49.7,38.1,49.7,37.2z
		 M42,33.7c2.4-0.6,4.4-0.1,6.3,1.5l-0.1,0.1c-0.8,0.1-1.4,0.9-1,1.9c0.1,0.2,0.2,0.4,0.4,0.7c0.7,1.1,0.8,2.3,0.4,3.5
		c-0.4,1-0.7,1.9-1,2.9c0,0,0,0.1-0.1,0.1c-0.1-0.4-0.2-0.7-0.3-1c-0.7-2-1.3-4-1.9-6c-0.1-0.3-0.1-0.4,0.2-0.4c0.1,0,0.3,0,0.4,0
		c0.1,0,0.3-0.1,0.3-0.3s-0.1-0.2-0.3-0.2c-0.4,0-0.9,0-1.3,0.1c-0.7,0-1.4-0.1-2.1-0.1c-0.2,0-0.4,0-0.4,0.2s0.1,0.3,0.4,0.3
		c0.5-0.1,0.7,0.2,0.8,0.7c0.2,0.7,0.4,1.4,0.7,2.1c0.1,0.1,0.1,0.2,0,0.4c-0.5,1.4-1,2.8-1.5,4.2h-0.1c-0.4-1.1-0.7-2.3-1.1-3.4
		c-0.4-1.2-0.7-2.4-1.2-3.6c-0.1-0.2,0-0.3,0.2-0.3c0.1,0,0.2,0,0.4,0s0.4-0.1,0.4-0.3c0-0.2-0.1-0.2-0.4-0.2c-0.6,0-1.2,0-1.8,0.1
		c-0.1,0-0.2,0-0.4,0C39.1,35,40.4,34,42,33.7z M37.6,37.4c1,2.9,2.1,5.9,3.1,8.8C37.4,44.7,36,40.4,37.6,37.4z"/>
	<path class="st0" d="M47.8,47.5c0-0.1-0.1-0.2-0.1-0.2s-0.1,0.1-0.1,0.2c0,0.1-0.1,0.3-0.1,0.5v0.2c0.1-0.1,0.2-0.1,0.4-0.1l0,0
		C47.9,47.8,47.9,47.6,47.8,47.5z"/>
	<path class="st0" d="M126.1,66.3c-1.1-3.3-4-57.4-4-57.4L85.5,3.4l0.2,17.2c3.5-0.7,6.9-1.4,10.4-2.1v1.4c0.7-0.1,1.4-0.3,2.1-0.4
		l0.3,39.3l-12.3,0.1l0.1,12.7C86.3,71.6,127.3,69.6,126.1,66.3z"/>
	<path class="st0" d="M86.1,58l10.2-0.1L96.1,20c-3.5,0.7-6.9,1.4-10.4,2.1L86.1,58z"/>
</g>
</svg>
