<?xml version="1.0" encoding="utf-8"?>
<!-- Generator: Adobe Illustrator 24.3.0, SVG Export Plug-In . SVG Version: 6.00 Build 0)  -->
<svg version="1.1" id="Layer_1" xmlns="http://www.w3.org/2000/svg" xmlns:xlink="http://www.w3.org/1999/xlink" x="0px" y="0px"
	 viewBox="0 0 70 70" style="enable-background:new 0 0 70 70;" xml:space="preserve">
<style type="text/css">
	.st0{fill:#7C68DD;}
</style>
<path d="M207.1,100.8"/>
<g>
	<path class="st0" d="M-25.8,58.1c-0.3,0.5-0.7,0.9-1,1.4l102.2-0.7l0-1.4L-25.8,58.1z"/>
	<path class="st0" d="M74.8,8.6l0-1.9C49,11.8,23.2,17-2.6,22.1c-9.1,12-18.1,24.1-27.2,36.1l3.9,0C-17.1,46.6-8.4,35,0.3,23.4
		C25.1,18.5,50,13.6,74.8,8.6z"/>
	<path class="st0" d="M56.2,33.1c0-0.2-0.1-0.4,0-0.7l0.1-3.4c0-0.3,0-0.5,0.1-0.7c0-0.2,0.1-0.3,0.2-0.3c0,0,0,0,0,0h0l-0.7,0
		c-0.3-1.1-0.8-1.9-1.5-2.3c-0.7-0.5-1.4-0.7-2.1-0.7c-0.7,0-1.2,0.2-1.8,0.5c-0.5,0.4-1,0.9-1.3,1.7c-0.3,0.8-0.5,1.8-0.5,2.9
		c0,0.4,0,0.7,0.1,0.9c0.1,0.3,0.2,0.6,0.4,0.9c0.2,0.3,0.4,0.5,0.5,0.6c0.2,0.1,0.4,0.3,0.8,0.3c0.1,0,0.3,0,0.5,0.1l-0.6-0.5
		l2-2.4l2.3,2l-2,2.4l-1.3-1.1c-1.1,0.4-2.2,0.8-3.4,1.2l1.5,2.6c0.3-0.7,0.7-1.2,1.2-1.6c0.5-0.4,1.1-0.5,1.8-0.5
		c0.6,0,1.2,0.2,1.8,0.5c0.1,0.1,0.3,0.2,0.4,0.3c0.6-0.8,1-1.6,1.2-2.5l0.7,0C56.3,33.4,56.2,33.3,56.2,33.1z M52.6,29.6
		c-0.2,0-0.5,0-1.1-0.1c0-0.4,0.1-0.6,0.2-0.8c0.1-0.2,0.3-0.2,0.5-0.2c0.2,0,0.4,0.1,0.6,0.3c0.2,0.2,0.2,0.4,0.2,0.8
		C52.9,29.6,52.8,29.7,52.6,29.6z"/>
	<polygon class="st0" points="63,16.9 60.8,14.9 58.7,17.3 61,19.3 	"/>
	<path class="st0" d="M64.1,22.1c-0.4-0.8-0.9-1.4-1.5-1.7c-0.6-0.3-1.2-0.5-1.8-0.5c-0.7,0-1.2,0.2-1.8,0.5c-0.5,0.4-1,0.9-1.3,1.7
		c-0.3,0.8-0.5,1.8-0.5,2.9c0,0.4,0,0.7,0.1,0.9c0.1,0.3,0.2,0.6,0.4,0.9c0.2,0.3,0.4,0.5,0.5,0.6c0.2,0.1,0.4,0.3,0.8,0.3
		c0.3,0.1,0.8,0.1,1.3,0.1c0.4,0,0.7,0,1,0l0,0.1c-0.2,0.1-0.6,0.1-1.2,0.1c-0.6,0-1.9,0-3.6,0c0.1,0,0.1,0.1,0.2,0.3
		c0,0.2,0.1,0.4,0,0.7l-0.1,3.4c0,0.3,0,0.5-0.1,0.7c0,0.2-0.1,0.3-0.2,0.3l0,0h0c1.8,0,3.2,0,4.3-0.2c1.1-0.2,1.9-0.5,2.5-0.9
		c0.5-0.4,0.9-1.2,1.1-2.3c0.2-1.2,0.3-2.7,0.4-4.6C64.7,23.9,64.5,22.9,64.1,22.1z M61.2,24.5c-0.2,0-0.5,0-1.1-0.1
		c0-0.4,0.1-0.6,0.2-0.8c0.1-0.2,0.3-0.2,0.5-0.2c0.2,0,0.4,0.1,0.6,0.3c0.2,0.2,0.2,0.4,0.2,0.8C61.6,24.5,61.4,24.5,61.2,24.5z"/>
	<path class="st0" d="M29.7,32.1c0,0.9,0,1.8,0,2.7c0,0,0,0,0,0c1,0.3,2.3,0.5,3.8,0.5c0.7,0,1.4,0,2-0.1c0.6-0.1,1-0.2,1.3-0.3
		c0.2-0.1,0.4-0.2,0.6-0.4c0.2-0.2,0.3-0.4,0.5-0.6c0.5,0.9,1.5,1.4,3.1,1.5c-0.1,0-0.1-0.1-0.2-0.3c0-0.2-0.1-0.4,0-0.7l0.1-3.4
		c0-0.3,0-0.5,0.1-0.7c0-0.2,0.1-0.3,0.2-0.3c-0.5,0-0.9,0-1,0l0-2.2l-3.6,0.4l0.3,1.7c-0.8,0.1-1.8,0.1-3,0.1c-1,0-1.8-0.1-2.4-0.2
		c-0.6-0.1-0.9-0.4-0.9-0.6c0-0.4,0.1-1.1,0.3-2.1l-3-0.6c0,0,0,0.1,0,0.1c0.9,1.4,1.6,2.9,1.9,4.7C29.6,31.5,29.6,31.8,29.7,32.1z"
		/>
	<polygon class="st0" points="34.3,25.8 36.1,27.4 38,25.3 35.9,23.4 34.3,25.2 32.5,23.6 30.6,25.7 32.7,27.5 	"/>
	<polygon class="st0" points="46.4,24 44.1,21.9 42.1,24.3 44.4,26.3 	"/>
	<path class="st0" d="M41.1,30.3c0,0.2,0.1,0.4,0.1,0.7l-0.1,3.4c0,0.3,0,0.5-0.1,0.7c0,0.2-0.1,0.3-0.2,0.3c1.3,0,2.3,0,3-0.2
		c0.6-0.1,1.2-0.4,1.6-0.7c0.4-0.3,0.8-0.8,1-1.3c0.2-0.5,0.4-1.2,0.4-1.8c0-0.6,0-1.6-0.1-3l-0.1-1.6l-3.7,0.7l0.4,2.6
		C42.8,30,42,30,40.9,30C41,30,41.1,30.1,41.1,30.3z"/>
	<path class="st0" d="M22.8,48c0-0.2-0.1-0.4,0-0.7l0-3.1c-1,0.5-2,0.8-3.2,1c-0.3,0.1-0.7,0-1,0.2c-0.2,0-0.4,0-0.7,0l-0.3,1.8
		c0.5,0.1,1.1,0.3,1.8,0.5c-0.4,0-0.9,0.1-1.6,0.1c-0.7,0-1.3,0-1.8,0c-0.5,0-0.8-0.1-1.1-0.1c-0.2-0.1-0.4-0.2-0.4-0.3
		c0-0.1-0.1-0.3-0.1-0.5c0-0.2,0.1-0.8,0.2-1.8c-1.1-0.3-2-0.7-3-1.1c-0.2,1.2-0.4,2.2-0.4,2.9c-0.1,1-0.2,1.8-0.2,2.4
		c0,1.1,0.4,2,1.2,2.6c0.8,0.6,2.1,0.9,3.9,1c1.2,0,2.2-0.2,3.2-0.6c1-0.4,1.7-1,2.3-1.7c0.6-0.7,0.9-1.4,0.9-2.2l0.4,0
		C22.9,48.2,22.9,48.1,22.8,48z"/>
	<path class="st0" d="M35.7,46.7c0.4-0.6,0.6-1.5,0.6-2.5c0-0.5,0-1.4-0.1-2.8l-0.1-1.7l-3.6,0.7l0.4,2.6C32.6,43,32.4,43,32.2,43
		c-0.2,0-0.4,0-0.5-0.1l0-2l-3.2,0.1l0.1,1.7c-0.2,0.1-0.3,0.1-0.5,0.1c-0.2,0-0.3-0.1-0.4-0.2c-0.1-0.1-0.1-0.2-0.1-0.4l0-1l-1.1,0
		c-0.9,1-2,1.8-3.2,2.5l-0.1,3.3c0,0.3,0,0.5-0.1,0.7c0,0.2-0.1,0.3-0.2,0.3c1.1,0,1.9-0.3,2.3-0.9c0.2,0.3,0.5,0.5,0.9,0.7
		c0.4,0.2,0.9,0.3,1.4,0.3c1.3,0,2.1-0.3,2.5-1c0.4,0.7,1.3,1.1,2.7,1.1c0.5,0,1-0.1,1.5-0.4C34.9,47.8,35.3,47.3,35.7,46.7z"/>
	<path class="st0" d="M41.7,42.2l-0.1-1L37.8,42l0.9,5.2c-0.3,0.4-0.7,0.8-1.4,1.2c-0.7,0.4-1.8,0.8-3.3,1.4l2.5,4.4
		c1.4-0.7,2.4-1.3,3.2-2c0.8-0.7,1.3-1.4,1.7-2.2c0.4-0.8,0.5-1.8,0.6-3c0-0.6,0-1.2-0.1-1.9C41.9,44.3,41.8,43.4,41.7,42.2z"/>
	<path class="st0" d="M47.7,48.3c0-0.2-0.1-0.4,0-0.7l0.1-3.4c0-0.3,0-0.5,0.1-0.7c0-0.2,0.1-0.3,0.2-0.3l-0.3,0
		c-0.4,0-0.6-0.1-0.7-0.2c-0.1-0.1-0.1-0.4-0.1-0.8l0.3-6.8L43.2,36l0.1,7.4c0,1.3,0.2,2.3,0.4,3c0.3,0.8,0.7,1.3,1.2,1.7
		c0.6,0.4,1.3,0.5,2.2,0.6l0.6,0C47.8,48.6,47.7,48.5,47.7,48.3z"/>
	<path class="st0" d="M51.7,33.1c-0.3,0-0.6,0-0.9,0l0.4,0.4c0.3-0.1,0.5-0.2,0.8-0.3L51.7,33.1z"/>
	<path class="st0" d="M50.3,39l-1-1.8c0,0,0,0.1-0.1,0.1c-0.3,0.8-0.5,1.8-0.5,2.9c0,0.4,0,0.7,0.1,0.9c0.1,0.3,0.2,0.6,0.4,0.9
		c0.2,0.3,0.4,0.5,0.5,0.6c0.2,0.1,0.4,0.3,0.8,0.3c0.3,0.1,0.8,0.1,1.3,0.1c0.4,0,0.7,0,1,0l0,0.1c-0.2,0.1-0.6,0.1-1.2,0.1
		c-0.6,0-1.9,0-3.6,0c0.1,0,0.1,0.1,0.2,0.3c0,0.2,0.1,0.4,0.1,0.7l-0.1,3.4c0,0.3,0,0.5-0.1,0.7c0,0.2-0.1,0.3-0.2,0.3
		c1.8,0,3.2,0,4.3-0.2c1.1-0.2,1.9-0.5,2.5-0.9c0.5-0.4,0.9-1.2,1.1-2.3c0.2-1.2,0.3-2.7,0.4-4.6c0-1.4-0.2-2.4-0.6-3.2
		c-0.3-0.6-0.7-1.1-1.1-1.4c-0.1,0.2-0.3,0.4-0.5,0.6C53.2,37.4,52,38.2,50.3,39z M52.7,39.7c-0.2,0-0.5,0-1.1-0.1
		c0-0.4,0.1-0.6,0.2-0.8c0.2-0.2,0.3-0.2,0.5-0.2c0.2,0,0.4,0.1,0.6,0.3c0.2,0.2,0.2,0.4,0.2,0.8C53.1,39.7,52.9,39.7,52.7,39.7z"/>
	<path class="st0" d="M15.1,43.2c-0.1,0.7-0.2,1.3-0.3,1.9c0.3,0.1,0.6,0.1,0.9,0.2c0.1,0,0.3,0,0.4,0.1c0.6,0,1.3,0,1.9,0l0.4-2.5
		l4.7,0.1c0.6,0,1.1,0,1.3-0.1l0-1.3l2.1,0c1.5-1.7,2.6-3.8,3-6.2c0-0.1,0-0.3,0.1-0.4c-0.4-0.1-0.8-0.3-1.1-0.4
		c-1.2-0.6-1.8-1.7-1.8-3.2c0-0.2,0.1-0.6,0.2-1.2c0.1-0.6,0.3-1.7,0.7-3.5c-1.9-2.8-4.9-4.8-8.5-5.2c-6.6-0.9-12.8,3.9-13.6,10.5
		c-0.6,5.1,1.9,9.8,6.2,12.1c0.1-0.4,0.1-0.8,0.2-1.2L15.1,43.2z M20.2,42.1c-1.7,0.5-3.4,0.5-5.1,0C15,42.1,14.9,42,15,41.8
		c0.9-2.5,1.8-5.1,2.8-7.7c0.9,2.6,1.8,5.1,2.7,7.7C20.5,41.9,20.5,42,20.2,42.1z M25.8,29.2c1.2,2.5,1.3,5.1,0.3,7.7
		c-0.8,1.9-2.1,3.3-3.8,4.3c0,0-0.1,0-0.1-0.1c0.2-0.7,0.5-1.3,0.7-2c0.8-2.1,1.6-4.2,2.3-6.4C25.6,31.6,25.8,30.4,25.8,29.2z
		 M15.3,24.4c3.2-0.8,6-0.1,8.5,2.1c0,0-0.1,0.1-0.1,0.1c-1.1,0.1-1.9,1.2-1.3,2.6c0.1,0.3,0.3,0.6,0.5,0.9c1,1.5,1.1,3.1,0.5,4.7
		c-0.5,1.3-0.9,2.6-1.3,3.9c0,0,0,0.1-0.1,0.2c-0.2-0.5-0.3-0.9-0.4-1.3c-0.9-2.7-1.7-5.4-2.6-8.1c-0.1-0.4-0.1-0.5,0.3-0.5
		c0.2,0,0.4,0,0.6,0c0.2,0,0.4-0.1,0.4-0.4c0-0.3-0.2-0.3-0.4-0.3c-0.6,0-1.2,0-1.8,0.1c-1,0-1.9-0.1-2.9-0.1c-0.3,0-0.5,0-0.5,0.3
		c0,0.3,0.2,0.4,0.5,0.4c0.7-0.1,0.9,0.3,1.1,0.9c0.3,1,0.6,1.9,1,2.8c0.1,0.1,0.1,0.3,0,0.5c-0.7,1.9-1.3,3.8-2,5.7
		c0,0-0.1,0-0.1,0c-0.5-1.5-1-3.1-1.5-4.6c-0.5-1.6-1-3.3-1.6-4.9c-0.1-0.3,0-0.4,0.3-0.4c0.2,0,0.3,0,0.5,0c0.2,0,0.5-0.1,0.5-0.4
		c0-0.3-0.2-0.3-0.5-0.3c-0.8,0-1.6,0-2.4,0.1c-0.1,0-0.3,0-0.5,0C11.3,26.2,13.1,24.9,15.3,24.4z M9.3,29.4c1.4,4,2.8,8,4.2,11.9
		C9,39.4,7.2,33.5,9.3,29.4z"/>
	<path class="st0" d="M23.2,43.2c0-0.2-0.1-0.3-0.2-0.3c-0.1,0-0.1,0.1-0.2,0.3c0,0.2-0.1,0.4-0.1,0.7l0,0.3
		c0.2-0.1,0.3-0.1,0.5-0.2l0,0C23.3,43.6,23.3,43.4,23.2,43.2z"/>
	<path class="st0" d="M129.7,68.8c-1.5-4.5-5.4-78.1-5.4-78.1l-49.9-7.5l0.3,23.4c4.7-0.9,9.4-1.9,14.1-2.8l0,1.9
		c1-0.2,1.9-0.4,2.9-0.6l0.4,53.5l-16.7,0.1L75.5,76C75.5,76,131.3,73.2,129.7,68.8z"/>
	<path class="st0" d="M75.3,57.5l13.9-0.1L88.8,5.8c-4.7,0.9-9.4,1.9-14.1,2.8L75.3,57.5z"/>
</g>
</svg>
