<svg width="30" height="30" viewBox="0 0 30 30" fill="none" xmlns="http://www.w3.org/2000/svg">
<path d="M22.8571 25.4569H5.3638C4.61633 25.4569 4 24.8406 4 24.0931V23.044C4 22.2966 4.61633 21.6802 5.3638 21.6802H22.8571C23.6046 21.6802 24.2209 22.2966 24.2209 23.044V24.0931C24.2078 24.8537 23.6046 25.4569 22.8571 25.4569ZM5.3638 22.69C5.1671 22.69 5.00974 22.8473 5.00974 23.044V24.0931C5.00974 24.2898 5.1671 24.4472 5.3638 24.4472H22.8571C23.0538 24.4472 23.2112 24.2898 23.2112 24.0931V23.044C23.2112 22.8473 23.0538 22.69 22.8571 22.69H5.3638Z" fill="white"/>
<path d="M10.1495 20.4083C9.15288 20.4083 8.33984 19.5952 8.33984 18.5986C8.33984 17.602 9.15288 16.7889 10.1495 16.7889C11.1461 16.7889 11.9592 17.602 11.9592 18.5986C11.9592 19.5952 11.1461 20.4083 10.1495 20.4083V20.4083ZM10.1495 17.7856C9.70364 17.7856 9.33647 18.1527 9.33647 18.5986C9.33647 19.0445 9.70364 19.4116 10.1495 19.4116C10.5954 19.4116 10.9625 19.0445 10.9625 18.5986C10.9625 18.1527 10.5954 17.7856 10.1495 17.7856V17.7856Z" fill="white"/>
<path d="M23.9854 8.61931C22.9888 8.61931 22.1758 7.80628 22.1758 6.80966C22.1758 5.81303 22.9888 5 23.9854 5C24.9821 5 25.7951 5.81303 25.7951 6.80966C25.7951 7.80628 24.9821 8.61931 23.9854 8.61931ZM23.9854 6.00973C23.5396 6.00973 23.1724 6.37691 23.1724 6.82277C23.1724 7.26863 23.5396 7.6358 23.9854 7.6358C24.4313 7.6358 24.7985 7.26863 24.7985 6.82277C24.7854 6.3638 24.4313 6.00973 23.9854 6.00973Z" fill="white"/>
<path d="M17.5814 19.4905C15.6012 19.4905 13.9883 17.8775 13.9883 15.8974C13.9883 13.9173 15.6012 12.3043 17.5814 12.3043C19.5615 12.3043 21.1744 13.9173 21.1744 15.8974C21.1613 17.8906 19.5484 19.4905 17.5814 19.4905V19.4905ZM17.5814 13.3272C16.152 13.3272 14.998 14.4812 14.998 15.9105C14.998 17.3399 16.152 18.4939 17.5814 18.4939C19.0107 18.4939 20.1647 17.3399 20.1647 15.9105C20.1516 14.4812 18.9976 13.3272 17.5814 13.3272Z" fill="white"/>
<path d="M9.62043 13.655C7.6403 13.655 6.02734 12.0421 6.02734 10.062C6.02734 8.08183 7.6403 6.46887 9.62043 6.46887C11.6006 6.46887 13.2135 8.08183 13.2135 10.062C13.2004 12.0421 11.5874 13.655 9.62043 13.655ZM9.62043 7.49172C8.19106 7.49172 7.03708 8.6457 7.03708 10.0751C7.03708 11.5044 8.19106 12.6584 9.62043 12.6584C11.0498 12.6584 12.2038 11.5044 12.2038 10.0751C12.2038 8.6457 11.0367 7.49172 9.62043 7.49172Z" fill="white"/>
</svg>
