<svg id="Layer_1" data-name="Layer 1" xmlns="http://www.w3.org/2000/svg" viewBox="0 0 1200 1200"><defs><style>.cls-1{fill:#fff;fill-rule:evenodd;}</style></defs><path class="cls-1" d="M1154.68,162.74v328l-.06-.05c-28.42-68.67-94.1-118-171.88-122.75a193.27,193.27,0,0,0-64.45,6.17L137.57,583.44A70.3,70.3,0,0,1,122.08,586a62.79,62.79,0,0,1-10.77.94A66.34,66.34,0,0,1,45,521.43a73.54,73.54,0,0,1-.61-9.28v-111c0-.16,0-.33,0-.5s0-.27,0-.39c0-1.27.16-2.49.22-3.77s.05-2.39.17-3.55c.16-2.06.44-4.06.72-6.06.11-.55.16-1.16.27-1.72.34-1.94.73-3.83,1.23-5.71.16-.84.33-1.56.55-2.34.45-1.55.89-3.05,1.33-4.55s1.06-3,1.61-4.55c.28-.61.5-1.28.78-1.94a92.91,92.91,0,0,1,62.12-54.85L1028.49,66.08a100.17,100.17,0,0,1,18.82-3.44,94.46,94.46,0,0,1,14.21-1.89c1.39,0,2.72-.11,4.11-.11a88.59,88.59,0,0,1,88.55,88.61c0,.55-.06,1.16-.06,1.77A102.6,102.6,0,0,1,1154.68,162.74Z"/><path class="cls-1" d="M943.32,498.86c-2.07,0-4.08.05-6.09.15-2.12-.1-4.29-.15-6.46-.15a139.56,139.56,0,0,0-35.94,4.71l-121.22,32.5L118.06,711.86A86,86,0,0,0,89.43,722c-.38.16-.69.37-1,.53a88.53,88.53,0,0,0-44,76.59v335.42a3.68,3.68,0,0,0,6.93,1.76,400,400,0,0,1,128.84-142,1.75,1.75,0,0,1,.32-.21A321.92,321.92,0,0,1,257.12,954a.22.22,0,0,1,.11,0q12.61-4.61,25.72-8.1l46.43-12.44,626.16-167.8,13-3.5a121.56,121.56,0,0,0,18.58-5,132.87,132.87,0,0,0-43.77-258.32Z"/></svg>