<svg width="96" height="96" viewBox="0 0 96 96" fill="none" xmlns="http://www.w3.org/2000/svg">
<g filter="url(#filter0_d_3716_28948)">
<g clip-path="url(#clip0_3716_28948)">
<rect x="18" y="15" width="60" height="60" rx="30" fill="white"/>
<path fill-rule="evenodd" clip-rule="evenodd" d="M40.9893 43.3938V43.4054C41.0565 45.2874 41.7075 47.1019 42.8522 48.5975L42.857 48.6037C44.1978 50.3943 45.8432 51.9349 47.718 53.1552C47.7465 53.1738 47.7737 53.1942 47.7995 53.2165C47.8673 53.2751 47.9678 53.2751 48.0356 53.2165C48.062 53.1936 48.09 53.1726 48.1194 53.1537C49.3771 52.3418 50.5366 51.3873 51.5751 50.3092C53.3982 48.3847 54.7962 46.0113 54.8458 43.5243V43.4446L54.8458 43.4421C54.8588 39.6157 51.7674 36.5033 47.9411 36.4903C44.1151 36.4773 41.0029 39.568 40.9893 43.3938ZM39.4893 43.3899C39.5051 38.7351 43.2914 34.9745 47.9462 34.9903C52.6006 35.0061 56.361 38.7918 56.3458 43.446V43.5316L56.3456 43.5458C56.2884 46.5684 54.6101 49.2872 52.6619 51.3431L52.6578 51.3475C51.549 52.4989 50.3121 53.5194 48.9711 54.3892C48.3561 54.8846 47.4773 54.8843 46.8627 54.3882C44.8569 53.0765 43.0957 51.4243 41.6587 49.506C40.3233 47.76 39.5652 45.6412 39.4897 43.4443C39.4894 43.4357 39.4893 43.4271 39.4893 43.4185L39.4893 43.3899Z" fill="#E5401F"/>
<path fill-rule="evenodd" clip-rule="evenodd" d="M47.9179 41.8281C46.973 41.8281 46.207 42.5941 46.207 43.539C46.207 44.4839 46.973 45.2499 47.9179 45.2499C48.8628 45.2499 49.6288 44.4839 49.6288 43.539C49.6288 42.5941 48.8628 41.8281 47.9179 41.8281ZM44.707 43.539C44.707 41.7657 46.1446 40.3281 47.9179 40.3281C49.6912 40.3281 51.1288 41.7657 51.1288 43.539C51.1288 45.3123 49.6912 46.7499 47.9179 46.7499C46.1446 46.7499 44.707 45.3123 44.707 43.539Z" fill="#E5401F"/>
<g filter="url(#filter1_d_3716_28948)">
<rect x="18" y="15" width="60" height="60" rx="30" fill="white"/>
<path d="M48 52.5C52.1421 52.5 55.5 49.1421 55.5 45C55.5 40.8579 52.1421 37.5 48 37.5C43.8579 37.5 40.5 40.8579 40.5 45C40.5 49.1421 43.8579 52.5 48 52.5Z" stroke="#1D1D1B" stroke-width="1.5" stroke-linecap="round" stroke-linejoin="round"/>
<path d="M48 48C49.6569 48 51 46.6569 51 45C51 43.3431 49.6569 42 48 42C46.3431 42 45 43.3431 45 45C45 46.6569 46.3431 48 48 48Z" stroke="#1D1D1B" stroke-width="1.5" stroke-linecap="round" stroke-linejoin="round"/>
<path d="M48 37V35" stroke="#1D1D1B" stroke-width="1.5" stroke-linecap="round" stroke-linejoin="round"/>
<path d="M40 45H38" stroke="#1D1D1B" stroke-width="1.5" stroke-linecap="round" stroke-linejoin="round"/>
<path d="M48 53V55" stroke="#1D1D1B" stroke-width="1.5" stroke-linecap="round" stroke-linejoin="round"/>
<path d="M56 45H58" stroke="#1D1D1B" stroke-width="1.5" stroke-linecap="round" stroke-linejoin="round"/>
</g>
</g>
</g>
<defs>
<filter id="filter0_d_3716_28948" x="-1.90735e-06" y="-1.66893e-06" width="96" height="96" filterUnits="userSpaceOnUse" color-interpolation-filters="sRGB">
<feFlood flood-opacity="0" result="BackgroundImageFix"/>
<feColorMatrix in="SourceAlpha" type="matrix" values="0 0 0 0 0 0 0 0 0 0 0 0 0 0 0 0 0 0 127 0" result="hardAlpha"/>
<feOffset dy="3"/>
<feGaussianBlur stdDeviation="9"/>
<feColorMatrix type="matrix" values="0 0 0 0 0.0823529 0 0 0 0 0.0823529 0 0 0 0 0.0823529 0 0 0 0.06 0"/>
<feBlend mode="normal" in2="BackgroundImageFix" result="effect1_dropShadow_3716_28948"/>
<feBlend mode="normal" in="SourceGraphic" in2="effect1_dropShadow_3716_28948" result="shape"/>
</filter>
<filter id="filter1_d_3716_28948" x="-1.90735e-06" y="-1.66893e-06" width="96" height="96" filterUnits="userSpaceOnUse" color-interpolation-filters="sRGB">
<feFlood flood-opacity="0" result="BackgroundImageFix"/>
<feColorMatrix in="SourceAlpha" type="matrix" values="0 0 0 0 0 0 0 0 0 0 0 0 0 0 0 0 0 0 127 0" result="hardAlpha"/>
<feOffset dy="3"/>
<feGaussianBlur stdDeviation="9"/>
<feColorMatrix type="matrix" values="0 0 0 0 0.0823529 0 0 0 0 0.0823529 0 0 0 0 0.0823529 0 0 0 0.06 0"/>
<feBlend mode="normal" in2="BackgroundImageFix" result="effect1_dropShadow_3716_28948"/>
<feBlend mode="normal" in="SourceGraphic" in2="effect1_dropShadow_3716_28948" result="shape"/>
</filter>
<clipPath id="clip0_3716_28948">
<rect x="18" y="15" width="60" height="60" rx="30" fill="white"/>
</clipPath>
</defs>
</svg>
