<svg width="30" height="30" viewBox="0 0 30 30" fill="none" xmlns="http://www.w3.org/2000/svg">
<path d="M8.49005 19.8683C7.66944 19.8683 7 19.1988 7 18.3782C7 17.5576 7.66944 16.8882 8.49005 16.8882C9.31066 16.8882 9.9801 17.5576 9.9801 18.3782C9.9801 19.1988 9.31066 19.8683 8.49005 19.8683ZM8.49005 17.7088C8.12294 17.7088 7.82061 18.0111 7.82061 18.3782C7.82061 18.7453 8.12294 19.0477 8.49005 19.0477C8.85717 19.0477 9.15949 18.7453 9.15949 18.3782C9.15949 18.0111 8.85717 17.7088 8.49005 17.7088Z" fill="white"/>
<path d="M21.8768 10.2909C21.0562 10.2909 20.3867 9.62145 20.3867 8.80084C20.3867 7.98023 21.0562 7.31079 21.8768 7.31079C22.6974 7.31079 23.3668 7.98023 23.3668 8.80084C23.3668 9.62145 22.6974 10.2909 21.8768 10.2909ZM21.8768 8.1314C21.5097 8.1314 21.2073 8.43373 21.2073 8.80084C21.2073 9.16796 21.5097 9.47029 21.8768 9.47029C22.2439 9.47029 22.5462 9.16796 22.5462 8.80084C22.5462 8.43373 22.2439 8.1314 21.8768 8.1314V8.1314Z" fill="white"/>
<path d="M18.6263 18.5184C18.3672 17.6978 17.6114 17.1471 16.7476 17.1471C16.3157 17.1471 15.9594 16.7908 15.9594 16.3589C15.9594 15.927 16.3157 15.5707 16.7476 15.5707C17.1795 15.5707 17.5358 15.927 17.5358 16.3589C17.5358 16.6828 17.8057 16.942 18.1188 16.942C18.432 16.942 18.7019 16.672 18.7019 16.3589C18.7019 15.4951 18.1404 14.7393 17.3306 14.4801V14.221C17.3306 13.8971 17.0607 13.6379 16.7476 13.6379C16.4236 13.6379 16.1645 13.9079 16.1645 14.221V14.4801C15.1279 14.8041 14.5557 15.9054 14.8796 16.942C15.1387 17.7626 15.8946 18.3132 16.7584 18.3132C17.1903 18.3132 17.5466 18.6696 17.5466 19.1015C17.5466 19.5334 17.1903 19.8897 16.7584 19.8897C16.3265 19.8897 15.9701 19.5334 15.9701 19.1015C15.9701 18.7775 15.7002 18.5184 15.3871 18.5184C15.0632 18.5184 14.804 18.7883 14.804 19.1015C14.804 19.9653 15.3655 20.7211 16.1753 20.9802V21.2718C16.1753 21.5957 16.4452 21.8548 16.7584 21.8548C17.0823 21.8548 17.3414 21.5849 17.3414 21.2718V20.9802C18.378 20.6563 18.9503 19.555 18.6263 18.5184V18.5184Z" fill="white"/>
<path d="M17.9351 7.99095C17.8703 7.93697 17.8055 7.89378 17.7408 7.85059V8.91954L22.0921 12.7418V23.3881C22.0921 23.928 21.6494 24.3707 21.1096 24.3707H12.396C11.8561 24.3707 11.4134 23.928 11.4134 23.3881V12.7418L15.7648 8.91954V7.85059C15.7 7.89378 15.6352 7.93697 15.5705 7.99095L10.582 12.3747V23.3989C10.582 24.3923 11.3918 25.2021 12.3852 25.2021H21.0988C22.0921 25.2021 22.9019 24.3923 22.9019 23.3989V12.3639L17.9351 7.99095Z" fill="white"/>
<path d="M16.7591 12.6014C15.9817 12.6014 15.3555 11.9752 15.3555 11.1977V6.40367C15.3555 5.62625 15.9817 5 16.7591 5C17.5366 5 18.1628 5.62625 18.1628 6.40367V11.2085C18.152 11.9752 17.5258 12.6014 16.7591 12.6014V12.6014ZM16.7591 5.82061C16.446 5.82061 16.1869 6.07975 16.1869 6.39287V11.1977C16.1869 11.5109 16.446 11.77 16.7591 11.77C17.0723 11.77 17.3314 11.5109 17.3314 11.1977V6.40367C17.3314 6.07975 17.0723 5.82061 16.7591 5.82061V5.82061Z" fill="white"/>
</svg>
