<svg width="14" height="14" viewBox="0 0 14 14" fill="none" xmlns="http://www.w3.org/2000/svg">
<path d="M1.75 0C1.28587 0 0.840752 0.184374 0.512563 0.512563C0.184374 0.840752 0 1.28587 0 1.75L0 12.25C0 12.7141 0.184374 13.1592 0.512563 13.4874C0.840752 13.8156 1.28587 14 1.75 14H12.25C12.7141 14 13.1592 13.8156 13.4874 13.4874C13.8156 13.1592 14 12.7141 14 12.25V1.75C14 1.28587 13.8156 0.840752 13.4874 0.512563C13.1592 0.184374 12.7141 0 12.25 0L1.75 0ZM7.4375 3.9375V9.00638L9.31525 7.12775C9.35593 7.08707 9.40422 7.05481 9.45736 7.03279C9.51051 7.01078 9.56747 6.99945 9.625 6.99945C9.68253 6.99945 9.73949 7.01078 9.79264 7.03279C9.84578 7.05481 9.89407 7.08707 9.93475 7.12775C9.97543 7.16843 10.0077 7.21672 10.0297 7.26986C10.0517 7.32301 10.0631 7.37997 10.0631 7.4375C10.0631 7.49503 10.0517 7.55199 10.0297 7.60514C10.0077 7.65828 9.97543 7.70657 9.93475 7.74725L7.30975 10.3722C7.26911 10.413 7.22083 10.4453 7.16768 10.4674C7.11453 10.4894 7.05755 10.5008 7 10.5008C6.94245 10.5008 6.88547 10.4894 6.83232 10.4674C6.77917 10.4453 6.73089 10.413 6.69025 10.3722L4.06525 7.74725C4.02457 7.70657 3.99231 7.65828 3.97029 7.60514C3.94828 7.55199 3.93695 7.49503 3.93695 7.4375C3.93695 7.37997 3.94828 7.32301 3.97029 7.26986C3.99231 7.21672 4.02457 7.16843 4.06525 7.12775C4.1474 7.0456 4.25882 6.99945 4.375 6.99945C4.43253 6.99945 4.48949 7.01078 4.54264 7.03279C4.59578 7.05481 4.64407 7.08707 4.68475 7.12775L6.5625 9.00638V3.9375C6.5625 3.82147 6.60859 3.71019 6.69064 3.62814C6.77269 3.54609 6.88397 3.5 7 3.5C7.11603 3.5 7.22731 3.54609 7.30936 3.62814C7.39141 3.71019 7.4375 3.82147 7.4375 3.9375Z" fill="#C30052"/>
</svg>
