<svg xmlns="http://www.w3.org/2000/svg" width="941" height="691" stroke="#000" stroke-linecap="round" stroke-linejoin="round" fill="#fff" fill-rule="evenodd"><style><![CDATA[.B{stroke:none}.C{fill:#ff5a5f}.D{fill:none}.E{stroke-width:15}.F{stroke:#fff}]]></style><path d="M0 0h266.0377v300.7059H0z" class="B C"/><path d="M53.2075 246.0321h133.0189M53.2075 191.3583h168.4898" class="D E F"/><path d="M336.9811 0h266.0377v300.7059H336.9811z" class="B C"/><path d="M390.1887 246.0321h133.0189m-133.0189-54.6738h168.4898" class="D E F"/><path d="M673.9623 0H940v300.7059H673.9623z" class="B C"/><path d="M727.1698 246.0321h133.0189m-133.0189-54.6738h168.4898" class="D E F"/><path d="M0 389.2941h266.0377V690H0z" class="B C"/><path d="M53.2075 635.3263h133.0189M53.2075 580.6525h168.4898" class="D E F"/><path d="M336.9811 389.2941h266.0377V690H336.9811z" class="B C"/><path d="M390.1887 635.3263h133.0189m-133.0189-54.6738h168.4898" class="D E F"/><path d="M673.9623 389.2941H940V690H673.9623z" class="B C"/><path d="M727.1698 635.3263h133.0189m-133.0189-54.6738h168.4898" class="D E F"/></svg>