<svg width="12" height="12" viewBox="0 0 12 12" fill="none" xmlns="http://www.w3.org/2000/svg">
<mask id="mask0_96_1347" style="mask-type:alpha" maskUnits="userSpaceOnUse" x="0" y="0" width="12" height="12">
<rect width="12" height="12" transform="matrix(-1 0 0 1 12 0)" fill="#D9D9D9"/>
</mask>
<g mask="url(#mask0_96_1347)">
<rect x="8.66602" y="1.33301" width="1.33333" height="9.33333" rx="0.666667" fill="white"/>
<path d="M3.10508 10.5502L7.31758 6.3502C7.36758 6.3002 7.40291 6.24603 7.42358 6.1877C7.44458 6.12936 7.45508 6.06686 7.45508 6.0002C7.45508 5.93353 7.44458 5.87103 7.42358 5.8127C7.40291 5.75436 7.36758 5.7002 7.31758 5.6502L3.10508 1.4377C2.98841 1.32103 2.84258 1.2627 2.66758 1.2627C2.49258 1.2627 2.34258 1.3252 2.21758 1.4502C2.09258 1.5752 2.03008 1.72103 2.03008 1.8877C2.03008 2.05436 2.09258 2.2002 2.21758 2.3252L5.89258 6.0002L2.21758 9.6752C2.10091 9.79186 2.04258 9.93553 2.04258 10.1062C2.04258 10.2772 2.10508 10.4252 2.23008 10.5502C2.35508 10.6752 2.50091 10.7377 2.66758 10.7377C2.83424 10.7377 2.98008 10.6752 3.10508 10.5502Z" fill="white"/>
</g>
</svg>
