<svg width="12" height="12" viewBox="0 0 12 12" fill="none" xmlns="http://www.w3.org/2000/svg">
<mask id="mask0_96_1340" style="mask-type:alpha" maskUnits="userSpaceOnUse" x="0" y="0" width="12" height="12">
<rect width="12" height="12" transform="matrix(-1 0 0 1 12 0)" fill="#D9D9D9"/>
</mask>
<g mask="url(#mask0_96_1340)">
<path d="M4.43711 10.5502L8.64961 6.3502C8.69961 6.3002 8.73494 6.24603 8.75561 6.1877C8.77661 6.12936 8.78711 6.06686 8.78711 6.0002C8.78711 5.93353 8.77661 5.87103 8.75561 5.8127C8.73494 5.75436 8.69961 5.7002 8.64961 5.6502L4.43711 1.4377C4.32044 1.32103 4.17461 1.2627 3.99961 1.2627C3.82461 1.2627 3.67461 1.3252 3.54961 1.4502C3.42461 1.5752 3.36211 1.72103 3.36211 1.8877C3.36211 2.05436 3.42461 2.2002 3.54961 2.3252L7.22461 6.0002L3.54961 9.6752C3.43294 9.79186 3.37461 9.93553 3.37461 10.1062C3.37461 10.2772 3.43711 10.4252 3.56211 10.5502C3.68711 10.6752 3.83294 10.7377 3.99961 10.7377C4.16628 10.7377 4.31211 10.6752 4.43711 10.5502Z" fill="white"/>
</g>
</svg>
