<svg width="24" height="24" viewBox="0 0 24 24" fill="none" xmlns="http://www.w3.org/2000/svg">
<rect width="24" height="24" rx="4" fill="#00D632"/>
<path d="M12.1862 8.8754C13.0797 8.87678 13.944 9.19416 14.6261 9.77141C14.6965 9.83524 14.7887 9.86971 14.8837 9.86776C14.9788 9.86581 15.0695 9.82758 15.1372 9.76091L15.8398 9.05629C15.875 9.02134 15.9026 8.97947 15.9209 8.93332C15.9392 8.88717 15.9477 8.83774 15.9459 8.78814C15.9441 8.73854 15.9321 8.68984 15.9106 8.64512C15.889 8.6004 15.8585 8.56061 15.8208 8.52828C15.2691 8.05892 14.631 7.70171 13.9425 7.47665L14.1529 6.43961C14.1638 6.38632 14.1627 6.33127 14.1496 6.27845C14.1366 6.22564 14.112 6.17639 14.0775 6.13429C14.0431 6.09219 13.9997 6.05829 13.9505 6.03506C13.9013 6.01183 13.8476 5.99986 13.7932 6H12.4407C12.3569 5.99992 12.2756 6.02844 12.2101 6.08084C12.1447 6.13325 12.0992 6.2064 12.081 6.28821L11.8917 7.21579C10.0912 7.30418 8.56409 8.19599 8.56409 10.0238C8.56409 11.6035 9.82615 12.2829 11.1597 12.7583C12.4217 13.2273 13.0906 13.402 13.0906 14.0624C13.0906 14.7228 12.4238 15.1393 11.4416 15.1393C10.4883 15.1546 9.56731 14.7942 8.87751 14.1361C8.80906 14.0688 8.7169 14.0311 8.62089 14.0311C8.52489 14.0311 8.43273 14.0688 8.36428 14.1361L7.61124 14.8722C7.57606 14.9061 7.54808 14.9468 7.52896 14.9918C7.50985 15.0368 7.5 15.0851 7.5 15.134C7.5 15.1829 7.50985 15.2313 7.52896 15.2763C7.54808 15.3213 7.57606 15.362 7.61124 15.3959C8.22479 15.9706 8.97365 16.3808 9.78824 16.5885L9.57793 17.5498C9.5668 17.6035 9.56761 17.659 9.5803 17.7124C9.59299 17.7657 9.61725 17.8156 9.65136 17.8586C9.68547 17.9015 9.7286 17.9365 9.7777 17.9609C9.8268 17.9853 9.88066 17.9987 9.93549 18H11.2922C11.3766 18.0005 11.4587 17.9719 11.5246 17.919C11.5904 17.8662 11.6361 17.7923 11.654 17.7097L11.8496 16.7989C14.0077 16.6664 15.3265 15.5054 15.3265 13.8058C15.3265 12.2408 14.0119 11.5804 12.4154 11.0419C11.5026 10.699 10.7137 10.474 10.7137 9.79669C10.7137 9.11941 11.4499 8.8754 12.1862 8.8754Z" fill="white"/>
</svg>
