<svg width="25" height="25" viewBox="0 0 25 25" fill="none" xmlns="http://www.w3.org/2000/svg">
<g clip-path="url(#clip0)">
<path d="M24.5406 18.4282L14.9655 3.42486C14.4255 2.57867 13.5038 2.07346 12.5 2.07346C11.4961 2.07346 10.5743 2.57867 10.0345 3.42486L0.459355 18.4281C-0.115361 19.3288 -0.153487 20.4704 0.360177 21.4076C0.873842 22.3445 1.85661 22.9265 2.92496 22.9265H22.0751C23.1434 22.9265 24.1262 22.3445 24.64 21.4074C25.1535 20.4704 25.1153 19.3288 24.5406 18.4282ZM12.5 20.401C11.6194 20.401 10.9057 19.6873 10.9057 18.8068C10.9057 17.9263 11.6195 17.2125 12.5 17.2125C13.3805 17.2125 14.0942 17.9263 14.0942 18.8068C14.0942 19.6873 13.3804 20.401 12.5 20.401ZM14.7097 9.32251L13.9245 14.6093C13.8089 15.3875 13.0844 15.9247 12.3062 15.8091C11.6775 15.7157 11.2062 15.2228 11.1092 14.6273L10.2565 9.35099C10.058 8.12249 10.893 6.96565 12.1215 6.76714C13.35 6.56862 14.5068 7.40355 14.7053 8.63205C14.7426 8.86338 14.7413 9.1022 14.7097 9.32251Z" fill="white"/>
</g>
<defs>
<clipPath id="clip0">
<rect width="25" height="25" fill="white"/>
</clipPath>
</defs>
</svg>
