<svg width="25" height="25" viewBox="0 0 25 25" fill="none" xmlns="http://www.w3.org/2000/svg">
<path d="M12.5 0C5.6075 0 0 5.6075 0 12.5C0 19.3925 5.6075 25 12.5 25C19.3925 25 25 19.3925 25 12.5C25 5.6075 19.3925 0 12.5 0ZM12.5 22.7273C6.86061 22.7273 2.27273 18.1393 2.27273 12.5C2.27273 6.86068 6.86061 2.27273 12.5 2.27273C18.1394 2.27273 22.7273 6.86068 22.7273 12.5C22.7273 18.1393 18.1393 22.7273 12.5 22.7273Z" fill="white"/>
<path d="M17.1872 8.08061L10.7589 14.5089L7.81269 11.5626C7.36898 11.1189 6.64943 11.1188 6.20564 11.5625C5.76186 12.0063 5.76186 12.7258 6.20564 13.1695L9.95534 16.9194C10.1684 17.1325 10.4575 17.2523 10.7588 17.2523C10.7589 17.2523 10.7588 17.2523 10.7589 17.2523C11.0603 17.2523 11.3493 17.1325 11.5624 16.9195L18.7943 9.68773C19.2381 9.24394 19.2381 8.52447 18.7943 8.08068C18.3505 7.63689 17.631 7.63682 17.1872 8.08061Z" fill="white"/>
</svg>
