<svg width="18" height="15" viewBox="0 0 61 50" fill="none" xmlns="http://www.w3.org/2000/svg">
<rect width="11.6489" height="41.81" rx="5.82443" transform="matrix(0.94023 -0.340541 0.374275 0.927318 0 11.2285)" fill="white"/>
<rect width="11.6489" height="41.81" rx="5.82443" transform="matrix(0.94023 -0.340541 0.374275 0.927318 0 11.2285)" fill="white"/>
<rect width="11.6489" height="41.81" rx="5.82443" transform="matrix(0.94023 -0.340541 0.374275 0.927318 0 11.2285)" fill="white"/>
<rect width="11.6489" height="41.8099" rx="5.82444" transform="matrix(0.940251 0.340481 -0.374211 0.927344 42.1832 7.2616)" fill="white"/>
<rect width="11.6489" height="41.8099" rx="5.82444" transform="matrix(0.940251 0.340481 -0.374211 0.927344 42.1832 7.2616)" fill="white"/>
<rect width="11.6489" height="41.8099" rx="5.82444" transform="matrix(0.940251 0.340481 -0.374211 0.927344 42.1832 7.2616)" fill="white"/>
<rect width="12.6934" height="34.9452" rx="6.34668" transform="matrix(0.961292 0.275532 -0.304263 0.952588 21.7412 13.1078)" fill="white"/>
<rect width="12.6934" height="34.9452" rx="6.34668" transform="matrix(0.961292 0.275532 -0.304263 0.952588 21.7412 13.1078)" fill="white"/>
<rect width="12.6934" height="34.9452" rx="6.34668" transform="matrix(0.961292 0.275532 -0.304263 0.952588 21.7412 13.1078)" fill="white"/>
<rect width="12.6757" height="34.9982" rx="6.33787" transform="matrix(0.948438 -0.316963 0.348999 0.937123 17.8973 17.1256)" fill="white"/>
<rect width="12.6757" height="34.9982" rx="6.33787" transform="matrix(0.948438 -0.316963 0.348999 0.937123 17.8973 17.1256)" fill="white"/>
<rect width="12.6757" height="34.9982" rx="6.33787" transform="matrix(0.948438 -0.316963 0.348999 0.937123 17.8973 17.1256)" fill="white"/>
<path d="M54.6146 9.07437C56.4815 9.07437 58.2686 7.63976 58.2686 5.54558C58.2686 3.4514 56.4815 2.01678 54.6146 2.01678C52.7477 2.01678 50.9606 3.4514 50.9606 5.54558C50.9606 7.63976 52.7477 9.07437 54.6146 9.07437Z" stroke="white" stroke-width="4"/>
</svg>
