<?xml version="1.0" encoding="UTF-8" standalone="no"?><svg xmlns:svg="http://www.w3.org/2000/svg" xmlns="http://www.w3.org/2000/svg" width="100" height="100" viewBox="0 0 26.4584 26.4584"><defs><filter height="1.1330864" y="-.06654318" width="1.1330864" x="-.06654318" id="a" color-interpolation-filters="sRGB"><feGaussianBlur stdDeviation=".30330522"/></filter></defs><g><path fill="#f0f0f0" d="M 0,0 H 26.5096 V 26.4584 H 0 Z" stroke-width=".4"/></g><g/><g><g transform="matrix(1.1953663,0,0,1.1953663,-53.634847,-56.428806)"><g transform="translate(0,0.73786887)"><path d="m 60.2998,60.838078 a 5.469625,5.469625 0 0 1 -7.661009,1.066435 5.469625,5.469625 0 0 1 -1.067107,-7.660916 5.469625,5.469625 0 0 1 7.660822,-1.067778 5.469625,5.469625 0 0 1 1.068451,7.660728" fill-opacity=".0843374" stroke-width=".196473" stroke-linecap="round" stroke-linejoin="round" filter="url(#a)"/><g transform="translate(0,-0.73786883)"><path d="m 60.2998,60.838078 a 5.469625,5.469625 0 0 1 -7.661009,1.066435 5.469625,5.469625 0 0 1 -1.067107,-7.660916 5.469625,5.469625 0 0 1 7.660822,-1.067778 5.469625,5.469625 0 0 1 1.068451,7.660728" fill="#db483b" stroke-width=".196473" stroke-linecap="round" stroke-linejoin="round"/><g transform="translate(18.806985,0.29984353)"><rect width=".51568121" height="4.1254497" x="36.871208" y="55.177887" ry=".25784054" fill="#fff" stroke-width=".264584" stroke-linecap="round" stroke-linejoin="round"/><rect ry=".25784054" y="-39.191772" x="56.982773" height="4.1254497" width=".51568121" transform="rotate(90)" fill="#fff" stroke-width=".264584" stroke-linecap="round" stroke-linejoin="round"/></g></g></g></g><g transform="translate(-8.1660079,-10.114489)"><g transform="matrix(-0.02852362,0,0,0.02852362,-42.095614,11.192761)"><g transform="rotate(79.973121,-730.52728,489.02095)"><path d="m -693.7063,427.20436 c 4.94461,0 8.9533,-4.00869 8.9533,-8.9533 v -53.71977 c 0,-4.94461 -4.00869,-8.9533 -8.9533,-8.9533 -4.94461,0 -8.9533,4.00869 -8.9533,8.9533 v 53.71977 c 0,4.94461 4.00869,8.9533 8.9533,8.9533 z" stroke-width=".596886"/><path d="m -763.34683,389.66857 c -3.49596,-3.49657 -9.16519,-3.49657 -12.66175,0 -3.49656,3.49655 -3.49656,9.16518 0,12.66174 l 37.98585,37.98585 c 3.49597,3.49656 9.16579,3.49656 12.66175,0 3.49656,-3.49656 3.49656,-9.16519 0,-12.66175 z" stroke-width=".596886"/><path d="m -738.02273,503.62552 -37.98585,37.98585 c -3.49656,3.49656 -3.49656,9.16519 0,12.66175 3.49597,3.49656 9.16579,3.49656 12.66175,0 l 37.98585,-37.98585 c 3.49656,-3.49656 3.49656,-9.16519 0,-12.66175 -3.49656,-3.49656 -9.16578,-3.49656 -12.66175,0 z" stroke-width=".596886"/><path d="m -649.38987,440.31616 37.98585,-37.98585 c 3.49656,-3.49656 3.49656,-9.16519 0,-12.66174 -3.49596,-3.49657 -9.16519,-3.49657 -12.66175,0 l -37.98585,37.98584 c -3.49656,3.49656 -3.49656,9.16519 0,12.66175 3.49596,3.49656 9.16578,3.49656 12.66175,0 z" stroke-width=".596886"/><path d="m -738.47278,471.97085 c 0,-4.94461 -4.00869,-8.95331 -8.9533,-8.95331 h -53.71977 c -4.94461,0 -8.9533,4.0087 -8.9533,8.95331 0,4.9446 4.00869,8.95329 8.9533,8.95329 h 53.71977 c 4.94461,0 8.9533,-4.00869 8.9533,-8.95329 z" stroke-width=".596886"/></g></g><g transform="matrix(0.41498555,-0.12905199,0.12905199,0.41498555,20.08377,25.187762)"><polygon points="12.6 16.6 8.2 20.9 8.2 4.9 19.8 16.5 13 16.5" fill="#fff"/><polygon points="13.7 23.1 9 12 12.7 10.5 17.3 21.6" fill="#fff"/><rect height="8" width="2" transform="matrix(0.9221,-0.3871,0.3871,0.9221,-5.7605,6.5909)" y="13.6" x="12.5"/><polygon points="17.4 15.5 9.2 7.3 9.2 18.5 12.2 15.6 12.6 15.5"/></g></g></g></svg>