<?xml version="1.0" encoding="UTF-8" standalone="no"?><svg xmlns:svg="http://www.w3.org/2000/svg" xmlns="http://www.w3.org/2000/svg" viewBox="0 0 26.4584 26.4584" height="100" width="100"><g><path fill="#f0f0f0" d="M 0,0 H 26.4584 V 26.407299 H 0 Z" stroke-width=".399227"/></g><g/><g><rect y="-3.6e-7" x="20.989712" height="26.458401" width="5.4686885" fill="#dedede" stroke-width=".245403" stroke-linecap="round" stroke-linejoin="round"/><rect ry="0" width="5.4686885" height="11.817075" x="20.989712" y="7.3206625" fill="#8a8a8a" stroke-width=".164005" stroke-linecap="round" stroke-linejoin="round"/><g transform="matrix(-1,0,0,1,40.156145,-11.879244)"><g transform="matrix(0.41498555,-0.12905199,0.12905199,0.41498555,20.08377,25.187762)"><polygon fill="#fff" points="12.6 16.6 8.2 20.9 8.2 4.9 19.8 16.5 13 16.5"/><polygon fill="#fff" points="13.7 23.1 9 12 12.7 10.5 17.3 21.6"/><rect x="4.645318" y="17.531731" transform="rotate(-22.772792)" width="2.0001149" height="8.0004597" stroke-width="1.00006"/><polygon points="17.4 15.5 9.2 7.3 9.2 18.5 12.2 15.6 12.6 15.5"/></g></g><g transform="translate(1.0313513,-0.35545233)"><g transform="translate(-0.14036843,0.09991303)"><rect ry=".21003234" y="13.274707" x="21.313744" height=".42006469" width="3.0386591" fill="#dedede" stroke-width=".247805" stroke-linecap="round" stroke-linejoin="round"/><rect width="3.0386591" height=".42006469" x="21.313744" y="14.862211" ry=".21003234" fill="#dedede" stroke-width=".247805" stroke-linecap="round" stroke-linejoin="round"/><rect ry=".21003234" y="11.687202" x="21.313744" height=".42006469" width="3.0386591" fill="#dedede" stroke-width=".247805" stroke-linecap="round" stroke-linejoin="round"/></g></g></g></svg>