<?xml version="1.0" encoding="UTF-8" standalone="no"?><svg xmlns:svg="http://www.w3.org/2000/svg" xmlns="http://www.w3.org/2000/svg" viewBox="0 0 66.146 66.146" height="250" width="250"><defs><filter height="1.0379854" y="-.01899272" width="1.0379854" x="-.01899272" id="b" color-interpolation-filters="sRGB"><feGaussianBlur stdDeviation=".34850982"/></filter><filter height="1.1330864" y="-.06654318" width="1.1330864" x="-.06654318" id="a" color-interpolation-filters="sRGB"><feGaussianBlur stdDeviation=".30330522"/></filter></defs><g><path fill="#f0f0f0" d="M 0,0 H 66.274 V 66.146 H 0 Z"/></g><g><g transform="matrix(0.71715728,0,0,0.71715728,18.933479,17.782854)"><g transform="translate(0,0.73786887)"><path d="m 60.2998,60.838078 a 5.469625,5.469625 0 0 1 -7.661009,1.066435 5.469625,5.469625 0 0 1 -1.067107,-7.660916 5.469625,5.469625 0 0 1 7.660822,-1.067778 5.469625,5.469625 0 0 1 1.068451,7.660728" fill-opacity=".0843374" stroke-width=".196473" stroke-linecap="round" stroke-linejoin="round" filter="url(#a)"/><g transform="translate(0,-0.73786883)"><path d="m 60.2998,60.838078 a 5.469625,5.469625 0 0 1 -7.661009,1.066435 5.469625,5.469625 0 0 1 -1.067107,-7.660916 5.469625,5.469625 0 0 1 7.660822,-1.067778 5.469625,5.469625 0 0 1 1.068451,7.660728" fill="#db483b" stroke-width=".196473" stroke-linecap="round" stroke-linejoin="round"/><g transform="translate(18.806985,0.29984353)"><rect width=".51568121" height="4.1254497" x="36.871208" y="55.177887" ry=".25784054" fill="#fff" stroke-width=".264584" stroke-linecap="round" stroke-linejoin="round"/><rect ry=".25784054" y="-39.191772" x="56.982773" height="4.1254497" width=".51568121" transform="rotate(90)" fill="#fff" stroke-width=".264584" stroke-linecap="round" stroke-linejoin="round"/></g></g></g></g><g transform="translate(0,2.116672)"><rect ry="2.4357951" y="6.2040396" x="18.616093" height="44.039177" width="44.039177" fill-opacity=".100402" stroke-width=".4999" stroke-linecap="round" stroke-linejoin="round" filter="url(#b)"/><rect width="44.039177" height="44.039177" x="18.616093" y="5.6748705" ry="2.4357951" fill="#fff" stroke-width=".4999" stroke-linecap="round" stroke-linejoin="round"/></g><rect ry="0" y="12.89203" x="22.071156" height="3.7129054" width="33.106735" fill="#f0f0f0" stroke-width=".354977" stroke-linecap="round" stroke-linejoin="round"/><rect width="24.752699" height="3.7129052" x="22.071156" y="19.506626" ry="0" fill="#f0f0f0" stroke-width=".306939" stroke-linecap="round" stroke-linejoin="round"/><rect ry="0" y="26.121225" x="22.071156" height="3.7129052" width="24.752699" fill="#f0f0f0" stroke-width=".306939" stroke-linecap="round" stroke-linejoin="round"/></g><g><path d="M 0.13163801,0.13163799 H 66.014362 V 66.014362 H 0.13163801 Z" fill="none" stroke="#ccc" stroke-width=".263276"/></g></svg>