<svg width="106" height="29" viewBox="0 0 106 29" fill="none" xmlns="http://www.w3.org/2000/svg">
<g filter="url(#filter0_d_1_6)">
<rect x="8" y="10" width="97" height="18" rx="2" fill="white"/>
</g>
<path d="M36.1406 22.6484C35.5195 22.9766 34.7461 23.1406 33.8203 23.1406C32.625 23.1406 31.668 22.7559 30.9492 21.9863C30.2305 21.2168 29.8711 20.207 29.8711 18.957C29.8711 17.6133 30.2754 16.5273 31.084 15.6992C31.8926 14.8711 32.918 14.457 34.1602 14.457C34.957 14.457 35.6172 14.5723 36.1406 14.8027V15.8516C35.5391 15.5156 34.875 15.3477 34.1484 15.3477C33.1836 15.3477 32.4004 15.6699 31.7988 16.3145C31.2012 16.959 30.9023 17.8203 30.9023 18.8984C30.9023 19.9219 31.1816 20.7383 31.7402 21.3477C32.3027 21.9531 33.0391 22.2559 33.9492 22.2559C34.793 22.2559 35.5234 22.0684 36.1406 21.6934V22.6484ZM38.6836 23H37.7227V14.1172H38.6836V23ZM41.1211 15.4766C40.9492 15.4766 40.8027 15.418 40.6816 15.3008C40.5605 15.1836 40.5 15.0352 40.5 14.8555C40.5 14.6758 40.5605 14.5273 40.6816 14.4102C40.8027 14.2891 40.9492 14.2285 41.1211 14.2285C41.2969 14.2285 41.4453 14.2891 41.5664 14.4102C41.6914 14.5273 41.7539 14.6758 41.7539 14.8555C41.7539 15.0273 41.6914 15.1738 41.5664 15.2949C41.4453 15.416 41.2969 15.4766 41.1211 15.4766ZM41.5898 23H40.6289V17H41.5898V23ZM47.625 22.7246C47.1641 23.002 46.6172 23.1406 45.9844 23.1406C45.1289 23.1406 44.4375 22.8633 43.9102 22.3086C43.3867 21.75 43.125 21.0273 43.125 20.1406C43.125 19.1523 43.4082 18.3594 43.9746 17.7617C44.541 17.1602 45.2969 16.8594 46.2422 16.8594C46.7695 16.8594 47.2344 16.957 47.6367 17.1523V18.1367C47.1914 17.8242 46.7148 17.668 46.207 17.668C45.5938 17.668 45.0898 17.8887 44.6953 18.3301C44.3047 18.7676 44.1094 19.3438 44.1094 20.0586C44.1094 20.7617 44.293 21.3164 44.6602 21.7227C45.0312 22.1289 45.5273 22.332 46.1484 22.332C46.6719 22.332 47.1641 22.1582 47.625 21.8105V22.7246ZM54.0586 23H52.7109L50.0625 20.1172H50.0391V23H49.0781V14.1172H50.0391V19.748H50.0625L52.582 17H53.8418L51.0586 19.8945L54.0586 23ZM61.1191 22.9414C60.8926 23.0664 60.5938 23.1289 60.2227 23.1289C59.1719 23.1289 58.6465 22.543 58.6465 21.3711V17.8203H57.6152V17H58.6465V15.5352L59.6074 15.2246V17H61.1191V17.8203H59.6074V21.2012C59.6074 21.6035 59.6758 21.8906 59.8125 22.0625C59.9492 22.2344 60.1758 22.3203 60.4922 22.3203C60.7344 22.3203 60.9434 22.2539 61.1191 22.1211V22.9414ZM64.9102 23.1406C64.0234 23.1406 63.3145 22.8613 62.7832 22.3027C62.2559 21.7402 61.9922 20.9961 61.9922 20.0703C61.9922 19.0625 62.2676 18.2754 62.8184 17.709C63.3691 17.1426 64.1133 16.8594 65.0508 16.8594C65.9453 16.8594 66.6426 17.1348 67.1426 17.6855C67.6465 18.2363 67.8984 19 67.8984 19.9766C67.8984 20.9336 67.627 21.7012 67.084 22.2793C66.5449 22.8535 65.8203 23.1406 64.9102 23.1406ZM64.9805 17.668C64.3633 17.668 63.875 17.8789 63.5156 18.3008C63.1562 18.7188 62.9766 19.2969 62.9766 20.0352C62.9766 20.7461 63.1582 21.3066 63.5215 21.7168C63.8848 22.127 64.3711 22.332 64.9805 22.332C65.6016 22.332 66.0781 22.1309 66.4102 21.7285C66.7461 21.3262 66.9141 20.7539 66.9141 20.0117C66.9141 19.2617 66.7461 18.6836 66.4102 18.2773C66.0781 17.8711 65.6016 17.668 64.9805 17.668ZM72.3633 22.7832V21.752C72.8867 22.1387 73.4629 22.332 74.0918 22.332C74.9355 22.332 75.3574 22.0508 75.3574 21.4883C75.3574 21.3281 75.3203 21.1934 75.2461 21.084C75.1758 20.9707 75.0781 20.8711 74.9531 20.7852C74.832 20.6992 74.6875 20.623 74.5195 20.5566C74.3555 20.4863 74.1777 20.4141 73.9863 20.3398C73.7207 20.2344 73.4863 20.1289 73.2832 20.0234C73.084 19.9141 72.916 19.793 72.7793 19.6602C72.6465 19.5234 72.5449 19.3691 72.4746 19.1973C72.4082 19.0254 72.375 18.8242 72.375 18.5938C72.375 18.3125 72.4395 18.0645 72.5684 17.8496C72.6973 17.6309 72.8691 17.4492 73.084 17.3047C73.2988 17.1562 73.543 17.0449 73.8164 16.9707C74.0938 16.8965 74.3789 16.8594 74.6719 16.8594C75.1914 16.8594 75.6562 16.9492 76.0664 17.1289V18.1016C75.625 17.8125 75.1172 17.668 74.543 17.668C74.3633 17.668 74.2012 17.6895 74.0566 17.7324C73.9121 17.7715 73.7871 17.8281 73.6816 17.9023C73.5801 17.9766 73.5 18.0664 73.4414 18.1719C73.3867 18.2734 73.3594 18.3867 73.3594 18.5117C73.3594 18.668 73.3867 18.7988 73.4414 18.9043C73.5 19.0098 73.584 19.1035 73.6934 19.1855C73.8027 19.2676 73.9355 19.3418 74.0918 19.4082C74.248 19.4746 74.4258 19.5469 74.625 19.625C74.8906 19.7266 75.1289 19.832 75.3398 19.9414C75.5508 20.0469 75.7305 20.168 75.8789 20.3047C76.0273 20.4375 76.1406 20.5918 76.2188 20.7676C76.3008 20.9434 76.3418 21.1523 76.3418 21.3945C76.3418 21.6914 76.2754 21.9492 76.1426 22.168C76.0137 22.3867 75.8398 22.5684 75.6211 22.7129C75.4023 22.8574 75.1504 22.9648 74.8652 23.0352C74.5801 23.1055 74.2812 23.1406 73.9688 23.1406C73.3516 23.1406 72.8164 23.0215 72.3633 22.7832ZM82.8047 23H81.8438V19.543C81.8438 18.293 81.3789 17.668 80.4492 17.668C79.9805 17.668 79.5859 17.8496 79.2656 18.2129C78.9453 18.5723 78.7852 19.0352 78.7852 19.6016V23H77.8242V14.1172H78.7852V17.9961H78.8086C79.2695 17.2383 79.9258 16.8594 80.7773 16.8594C82.1289 16.8594 82.8047 17.6738 82.8047 19.3027V23ZM87.1289 23.1406C86.2422 23.1406 85.5332 22.8613 85.002 22.3027C84.4746 21.7402 84.2109 20.9961 84.2109 20.0703C84.2109 19.0625 84.4863 18.2754 85.0371 17.709C85.5879 17.1426 86.332 16.8594 87.2695 16.8594C88.1641 16.8594 88.8613 17.1348 89.3613 17.6855C89.8652 18.2363 90.1172 19 90.1172 19.9766C90.1172 20.9336 89.8457 21.7012 89.3027 22.2793C88.7637 22.8535 88.0391 23.1406 87.1289 23.1406ZM87.1992 17.668C86.582 17.668 86.0938 17.8789 85.7344 18.3008C85.375 18.7188 85.1953 19.2969 85.1953 20.0352C85.1953 20.7461 85.377 21.3066 85.7402 21.7168C86.1035 22.127 86.5898 22.332 87.1992 22.332C87.8203 22.332 88.2969 22.1309 88.6289 21.7285C88.9648 21.3262 89.1328 20.7539 89.1328 20.0117C89.1328 19.2617 88.9648 18.6836 88.6289 18.2773C88.2969 17.8711 87.8203 17.668 87.1992 17.668ZM99.2109 17L97.4121 23H96.416L95.1797 18.7051C95.1328 18.541 95.1016 18.3555 95.0859 18.1484H95.0625C95.0508 18.2891 95.0098 18.4707 94.9395 18.6934L93.5977 23H92.6367L90.8203 17H91.8281L93.0703 21.5117C93.1094 21.6484 93.1367 21.8281 93.1523 22.0508H93.1992C93.2109 21.8789 93.2461 21.6953 93.3047 21.5L94.6875 17H95.5664L96.8086 21.5234C96.8477 21.668 96.877 21.8477 96.8965 22.0625H96.9434C96.9512 21.9102 96.9844 21.7305 97.043 21.5234L98.2617 17H99.2109Z" fill="#FA8C3B"/>
<path d="M19 17.4C18.566 17.4 18.1498 17.5686 17.8429 17.8686C17.536 18.1687 17.3636 18.5757 17.3636 19C17.3636 19.4243 17.536 19.8313 17.8429 20.1314C18.1498 20.4314 18.566 20.6 19 20.6C19.434 20.6 19.8502 20.4314 20.1571 20.1314C20.464 19.8313 20.6364 19.4243 20.6364 19C20.6364 18.5757 20.464 18.1687 20.1571 17.8686C19.8502 17.5686 19.434 17.4 19 17.4ZM19 21.6667C18.2767 21.6667 17.583 21.3857 17.0715 20.8856C16.5601 20.3855 16.2727 19.7072 16.2727 19C16.2727 18.2928 16.5601 17.6145 17.0715 17.1144C17.583 16.6143 18.2767 16.3333 19 16.3333C19.7233 16.3333 20.417 16.6143 20.9285 17.1144C21.4399 17.6145 21.7273 18.2928 21.7273 19C21.7273 19.7072 21.4399 20.3855 20.9285 20.8856C20.417 21.3857 19.7233 21.6667 19 21.6667ZM19 15C16.2727 15 13.9436 16.6587 13 19C13.9436 21.3413 16.2727 23 19 23C21.7273 23 24.0564 21.3413 25 19C24.0564 16.6587 21.7273 15 19 15Z" fill="#FA8C3B"/>
<path d="M13.5612 5.09317L13.5612 5.09311L0.609228 0.267047L0.608799 0.266887C0.56122 0.249059 0.509525 0.245252 0.459847 0.255919C0.41017 0.266585 0.364594 0.291277 0.328526 0.327065C0.292459 0.362853 0.267413 0.408235 0.25636 0.457828C0.245362 0.507177 0.248679 0.558635 0.265912 0.606156C0.265998 0.606391 0.266083 0.606626 0.266169 0.606861L5.11732 13.5776L13.5612 5.09317ZM13.5612 5.09317L13.5667 5.09509M13.5612 5.09317L13.5667 5.09509M13.5667 5.09509C13.6189 5.11315 13.6642 5.14704 13.6962 5.19202C13.7283 5.23701 13.7455 5.29086 13.7455 5.34609C13.7455 5.40132 13.7283 5.45517 13.6962 5.50015C13.6649 5.5442 13.6208 5.5776 13.57 5.59593L9.12495 6.97117L8.72317 7.09547L9.02434 7.38903L13.7095 11.9557C13.7583 12.0053 13.7856 12.0721 13.7856 12.1418C13.7856 12.2119 13.7579 12.2791 13.7085 12.3289C13.7085 12.3289 13.7084 12.329 13.7084 12.329L12.4978 13.5396C12.4977 13.5397 12.4976 13.5398 12.4975 13.5399C12.4478 13.5892 12.3806 13.6169 12.3105 13.6169C12.2403 13.6169 12.173 13.5891 12.1233 13.5396L12.1216 13.538L7.4193 8.94913L7.12612 8.66301M13.5667 5.09509L7.12612 8.66301M7.12612 8.66301L7.00574 9.05459M7.12612 8.66301L7.00574 9.05459M7.00574 9.05459L5.61932 13.5643C5.61924 13.5646 5.61915 13.5649 5.61907 13.5651C5.60236 13.6175 5.5698 13.6634 5.52587 13.6965C5.48173 13.7298 5.42831 13.7484 5.37305 13.7499C5.3178 13.7514 5.26347 13.7356 5.21763 13.7047C5.17184 13.6738 5.1368 13.6295 5.11739 13.5778L7.00574 9.05459Z" fill="white" stroke="black" stroke-width="0.5"/>
<defs>
<filter id="filter0_d_1_6" x="7" y="9" width="99" height="20" filterUnits="userSpaceOnUse" color-interpolation-filters="sRGB">
<feFlood flood-opacity="0" result="BackgroundImageFix"/>
<feColorMatrix in="SourceAlpha" type="matrix" values="0 0 0 0 0 0 0 0 0 0 0 0 0 0 0 0 0 0 127 0" result="hardAlpha"/>
<feOffset/>
<feGaussianBlur stdDeviation="0.5"/>
<feComposite in2="hardAlpha" operator="out"/>
<feColorMatrix type="matrix" values="0 0 0 0 0 0 0 0 0 0 0 0 0 0 0 0 0 0 0.25 0"/>
<feBlend mode="normal" in2="BackgroundImageFix" result="effect1_dropShadow_1_6"/>
<feBlend mode="normal" in="SourceGraphic" in2="effect1_dropShadow_1_6" result="shape"/>
</filter>
</defs>
</svg>
