<svg width="99" height="34" viewBox="0 0 99 34" fill="none" xmlns="http://www.w3.org/2000/svg">
<path d="M36.6965 20.0328L49.6485 24.8588C49.7498 24.8939 49.8377 24.9597 49.8999 25.047C49.9621 25.1343 49.9955 25.2389 49.9955 25.3461C49.9955 25.4533 49.9621 25.5578 49.8999 25.6452C49.8377 25.7325 49.7498 25.7983 49.6485 25.8333L36.6965 20.0328ZM36.6965 20.0328C36.6042 19.9982 36.5038 19.9908 36.4074 20.0115C36.3109 20.0322 36.2225 20.0801 36.1524 20.1496C36.0824 20.2191 36.0338 20.3072 36.0123 20.4034C35.9909 20.4997 35.9975 20.6001 36.0314 20.6928L36.6965 20.0328ZM49.5612 25.0931L49.5612 25.0932L49.5667 25.0951C49.6189 25.1132 49.6642 25.147 49.6962 25.192C49.7283 25.237 49.7455 25.2909 49.7455 25.3461C49.7455 25.4013 49.7283 25.4552 49.6962 25.5002C49.6649 25.5442 49.6208 25.5776 49.57 25.5959L45.125 26.9712L44.7232 27.0955L45.0243 27.389L49.7096 31.9557C49.7583 32.0054 49.7856 32.0722 49.7856 32.1418C49.7856 32.2118 49.758 32.2789 49.7087 32.3286C49.7086 32.3288 49.7085 32.3289 49.7084 32.329L48.4978 33.5396C48.4977 33.5397 48.4976 33.5398 48.4975 33.5399C48.4478 33.5892 48.3806 33.6169 48.3105 33.6169C48.2403 33.6169 48.173 33.5891 48.1233 33.5396L48.1216 33.538L43.4193 28.9491L43.1261 28.663L43.0057 29.0546L41.6193 33.5643C41.6192 33.5646 41.6192 33.5648 41.6191 33.5651C41.6024 33.6175 41.5698 33.6634 41.5259 33.6965C41.4817 33.7298 41.4283 33.7484 41.3731 33.7499C41.3178 33.7514 41.2635 33.7356 41.2176 33.7047C41.1718 33.6738 41.1367 33.6294 41.1173 33.5776L36.2662 20.6069C36.2661 20.6066 36.266 20.6064 36.2659 20.6062C36.2487 20.5586 36.2454 20.5072 36.2564 20.4578C36.2674 20.4082 36.2925 20.3629 36.3285 20.3271C36.3646 20.2913 36.4102 20.2666 36.4598 20.2559C36.5095 20.2453 36.5612 20.2491 36.6088 20.2669L36.6092 20.267L49.5612 25.0931Z" fill="white" stroke="black" stroke-width="0.5"/>
<g filter="url(#filter0_d_4542_954)">
<rect x="1" y="1" width="97" height="18" rx="2" fill="white"/>
</g>
<path d="M29.1406 13.6484C28.5195 13.9766 27.7461 14.1406 26.8203 14.1406C25.625 14.1406 24.668 13.7559 23.9492 12.9863C23.2305 12.2168 22.8711 11.207 22.8711 9.95703C22.8711 8.61328 23.2754 7.52734 24.084 6.69922C24.8926 5.87109 25.918 5.45703 27.1602 5.45703C27.957 5.45703 28.6172 5.57227 29.1406 5.80273V6.85156C28.5391 6.51562 27.875 6.34766 27.1484 6.34766C26.1836 6.34766 25.4004 6.66992 24.7988 7.31445C24.2012 7.95898 23.9023 8.82031 23.9023 9.89844C23.9023 10.9219 24.1816 11.7383 24.7402 12.3477C25.3027 12.9531 26.0391 13.2559 26.9492 13.2559C27.793 13.2559 28.5234 13.0684 29.1406 12.6934V13.6484ZM31.6836 14H30.7227V5.11719H31.6836V14ZM34.1211 6.47656C33.9492 6.47656 33.8027 6.41797 33.6816 6.30078C33.5605 6.18359 33.5 6.03516 33.5 5.85547C33.5 5.67578 33.5605 5.52734 33.6816 5.41016C33.8027 5.28906 33.9492 5.22852 34.1211 5.22852C34.2969 5.22852 34.4453 5.28906 34.5664 5.41016C34.6914 5.52734 34.7539 5.67578 34.7539 5.85547C34.7539 6.02734 34.6914 6.17383 34.5664 6.29492C34.4453 6.41602 34.2969 6.47656 34.1211 6.47656ZM34.5898 14H33.6289V8H34.5898V14ZM40.625 13.7246C40.1641 14.002 39.6172 14.1406 38.9844 14.1406C38.1289 14.1406 37.4375 13.8633 36.9102 13.3086C36.3867 12.75 36.125 12.0273 36.125 11.1406C36.125 10.1523 36.4082 9.35938 36.9746 8.76172C37.541 8.16016 38.2969 7.85938 39.2422 7.85938C39.7695 7.85938 40.2344 7.95703 40.6367 8.15234V9.13672C40.1914 8.82422 39.7148 8.66797 39.207 8.66797C38.5938 8.66797 38.0898 8.88867 37.6953 9.33008C37.3047 9.76758 37.1094 10.3438 37.1094 11.0586C37.1094 11.7617 37.293 12.3164 37.6602 12.7227C38.0312 13.1289 38.5273 13.332 39.1484 13.332C39.6719 13.332 40.1641 13.1582 40.625 12.8105V13.7246ZM47.0586 14H45.7109L43.0625 11.1172H43.0391V14H42.0781V5.11719H43.0391V10.748H43.0625L45.582 8H46.8418L44.0586 10.8945L47.0586 14ZM54.1191 13.9414C53.8926 14.0664 53.5938 14.1289 53.2227 14.1289C52.1719 14.1289 51.6465 13.543 51.6465 12.3711V8.82031H50.6152V8H51.6465V6.53516L52.6074 6.22461V8H54.1191V8.82031H52.6074V12.2012C52.6074 12.6035 52.6758 12.8906 52.8125 13.0625C52.9492 13.2344 53.1758 13.3203 53.4922 13.3203C53.7344 13.3203 53.9434 13.2539 54.1191 13.1211V13.9414ZM57.9102 14.1406C57.0234 14.1406 56.3145 13.8613 55.7832 13.3027C55.2559 12.7402 54.9922 11.9961 54.9922 11.0703C54.9922 10.0625 55.2676 9.27539 55.8184 8.70898C56.3691 8.14258 57.1133 7.85938 58.0508 7.85938C58.9453 7.85938 59.6426 8.13477 60.1426 8.68555C60.6465 9.23633 60.8984 10 60.8984 10.9766C60.8984 11.9336 60.627 12.7012 60.084 13.2793C59.5449 13.8535 58.8203 14.1406 57.9102 14.1406ZM57.9805 8.66797C57.3633 8.66797 56.875 8.87891 56.5156 9.30078C56.1562 9.71875 55.9766 10.2969 55.9766 11.0352C55.9766 11.7461 56.1582 12.3066 56.5215 12.7168C56.8848 13.127 57.3711 13.332 57.9805 13.332C58.6016 13.332 59.0781 13.1309 59.4102 12.7285C59.7461 12.3262 59.9141 11.7539 59.9141 11.0117C59.9141 10.2617 59.7461 9.68359 59.4102 9.27734C59.0781 8.87109 58.6016 8.66797 57.9805 8.66797ZM65.3633 13.7832V12.752C65.8867 13.1387 66.4629 13.332 67.0918 13.332C67.9355 13.332 68.3574 13.0508 68.3574 12.4883C68.3574 12.3281 68.3203 12.1934 68.2461 12.084C68.1758 11.9707 68.0781 11.8711 67.9531 11.7852C67.832 11.6992 67.6875 11.623 67.5195 11.5566C67.3555 11.4863 67.1777 11.4141 66.9863 11.3398C66.7207 11.2344 66.4863 11.1289 66.2832 11.0234C66.084 10.9141 65.916 10.793 65.7793 10.6602C65.6465 10.5234 65.5449 10.3691 65.4746 10.1973C65.4082 10.0254 65.375 9.82422 65.375 9.59375C65.375 9.3125 65.4395 9.06445 65.5684 8.84961C65.6973 8.63086 65.8691 8.44922 66.084 8.30469C66.2988 8.15625 66.543 8.04492 66.8164 7.9707C67.0938 7.89648 67.3789 7.85938 67.6719 7.85938C68.1914 7.85938 68.6562 7.94922 69.0664 8.12891V9.10156C68.625 8.8125 68.1172 8.66797 67.543 8.66797C67.3633 8.66797 67.2012 8.68945 67.0566 8.73242C66.9121 8.77148 66.7871 8.82812 66.6816 8.90234C66.5801 8.97656 66.5 9.06641 66.4414 9.17188C66.3867 9.27344 66.3594 9.38672 66.3594 9.51172C66.3594 9.66797 66.3867 9.79883 66.4414 9.9043C66.5 10.0098 66.584 10.1035 66.6934 10.1855C66.8027 10.2676 66.9355 10.3418 67.0918 10.4082C67.248 10.4746 67.4258 10.5469 67.625 10.625C67.8906 10.7266 68.1289 10.832 68.3398 10.9414C68.5508 11.0469 68.7305 11.168 68.8789 11.3047C69.0273 11.4375 69.1406 11.5918 69.2188 11.7676C69.3008 11.9434 69.3418 12.1523 69.3418 12.3945C69.3418 12.6914 69.2754 12.9492 69.1426 13.168C69.0137 13.3867 68.8398 13.5684 68.6211 13.7129C68.4023 13.8574 68.1504 13.9648 67.8652 14.0352C67.5801 14.1055 67.2812 14.1406 66.9688 14.1406C66.3516 14.1406 65.8164 14.0215 65.3633 13.7832ZM75.8047 14H74.8438V10.543C74.8438 9.29297 74.3789 8.66797 73.4492 8.66797C72.9805 8.66797 72.5859 8.84961 72.2656 9.21289C71.9453 9.57227 71.7852 10.0352 71.7852 10.6016V14H70.8242V5.11719H71.7852V8.99609H71.8086C72.2695 8.23828 72.9258 7.85938 73.7773 7.85938C75.1289 7.85938 75.8047 8.67383 75.8047 10.3027V14ZM80.1289 14.1406C79.2422 14.1406 78.5332 13.8613 78.002 13.3027C77.4746 12.7402 77.2109 11.9961 77.2109 11.0703C77.2109 10.0625 77.4863 9.27539 78.0371 8.70898C78.5879 8.14258 79.332 7.85938 80.2695 7.85938C81.1641 7.85938 81.8613 8.13477 82.3613 8.68555C82.8652 9.23633 83.1172 10 83.1172 10.9766C83.1172 11.9336 82.8457 12.7012 82.3027 13.2793C81.7637 13.8535 81.0391 14.1406 80.1289 14.1406ZM80.1992 8.66797C79.582 8.66797 79.0938 8.87891 78.7344 9.30078C78.375 9.71875 78.1953 10.2969 78.1953 11.0352C78.1953 11.7461 78.377 12.3066 78.7402 12.7168C79.1035 13.127 79.5898 13.332 80.1992 13.332C80.8203 13.332 81.2969 13.1309 81.6289 12.7285C81.9648 12.3262 82.1328 11.7539 82.1328 11.0117C82.1328 10.2617 81.9648 9.68359 81.6289 9.27734C81.2969 8.87109 80.8203 8.66797 80.1992 8.66797ZM92.2109 8L90.4121 14H89.416L88.1797 9.70508C88.1328 9.54102 88.1016 9.35547 88.0859 9.14844H88.0625C88.0508 9.28906 88.0098 9.4707 87.9395 9.69336L86.5977 14H85.6367L83.8203 8H84.8281L86.0703 12.5117C86.1094 12.6484 86.1367 12.8281 86.1523 13.0508H86.1992C86.2109 12.8789 86.2461 12.6953 86.3047 12.5L87.6875 8H88.5664L89.8086 12.5234C89.8477 12.668 89.877 12.8477 89.8965 13.0625H89.9434C89.9512 12.9102 89.9844 12.7305 90.043 12.5234L91.2617 8H92.2109Z" fill="#FA8C3B"/>
<path d="M12 8.4C11.566 8.4 11.1498 8.56857 10.8429 8.86863C10.536 9.16869 10.3636 9.57565 10.3636 10C10.3636 10.4243 10.536 10.8313 10.8429 11.1314C11.1498 11.4314 11.566 11.6 12 11.6C12.434 11.6 12.8502 11.4314 13.1571 11.1314C13.464 10.8313 13.6364 10.4243 13.6364 10C13.6364 9.57565 13.464 9.16869 13.1571 8.86863C12.8502 8.56857 12.434 8.4 12 8.4ZM12 12.6667C11.2767 12.6667 10.583 12.3857 10.0715 11.8856C9.56006 11.3855 9.27273 10.7072 9.27273 10C9.27273 9.29276 9.56006 8.61448 10.0715 8.11438C10.583 7.61428 11.2767 7.33333 12 7.33333C12.7233 7.33333 13.417 7.61428 13.9285 8.11438C14.4399 8.61448 14.7273 9.29276 14.7273 10C14.7273 10.7072 14.4399 11.3855 13.9285 11.8856C13.417 12.3857 12.7233 12.6667 12 12.6667ZM12 6C9.27273 6 6.94364 7.65867 6 10C6.94364 12.3413 9.27273 14 12 14C14.7273 14 17.0564 12.3413 18 10C17.0564 7.65867 14.7273 6 12 6Z" fill="#FA8C3B"/>
<defs>
<filter id="filter0_d_4542_954" x="0" y="0" width="99" height="20" filterUnits="userSpaceOnUse" color-interpolation-filters="sRGB">
<feFlood flood-opacity="0" result="BackgroundImageFix"/>
<feColorMatrix in="SourceAlpha" type="matrix" values="0 0 0 0 0 0 0 0 0 0 0 0 0 0 0 0 0 0 127 0" result="hardAlpha"/>
<feOffset/>
<feGaussianBlur stdDeviation="0.5"/>
<feComposite in2="hardAlpha" operator="out"/>
<feColorMatrix type="matrix" values="0 0 0 0 0 0 0 0 0 0 0 0 0 0 0 0 0 0 0.25 0"/>
<feBlend mode="normal" in2="BackgroundImageFix" result="effect1_dropShadow_4542_954"/>
<feBlend mode="normal" in="SourceGraphic" in2="effect1_dropShadow_4542_954" result="shape"/>
</filter>
</defs>
</svg>

