<svg width="193" height="78" viewBox="0 0 193 78" fill="none" xmlns="http://www.w3.org/2000/svg">
<mask id="mask0_284_628" style="mask-type:alpha" maskUnits="userSpaceOnUse" x="0" y="0" width="193" height="78">
<path d="M183 0H10C4.47715 0 0 4.47715 0 10V68C0 73.5229 4.47715 78 10 78H183C188.523 78 193 73.5229 193 68V10C193 4.47715 188.523 0 183 0Z" fill="white"/>
</mask>
<g mask="url(#mask0_284_628)">
<path d="M450.087 40.6599C397.769 66.9691 295.275 105.815 230.134 60.7661C175.544 23.0142 3.99326 -6.68449 -120.495 -19.9172C-170.183 -6.94179 -216.378 -3.71359 -251.456 -18.1378C-281.547 -30.5116 -214.415 -29.9005 -120.495 -19.9172C26.6452 -58.3408 204.419 -182.238 214.858 -186.333C228.823 -191.809 448.065 -203.845 455.336 -181.197C460.605 -164.785 464.873 -55.5748 466.798 11.9336C467.141 23.9718 460.847 35.2493 450.087 40.6599Z" fill="url(#paint0_linear_284_628)"/>
</g>
<defs>
<linearGradient id="paint0_linear_284_628" x1="71.9963" y1="-17.9998" x2="455.996" y2="186.5" gradientUnits="userSpaceOnUse">
<stop stop-color="#20DF59"/>
<stop offset="1" stop-color="#34A853"/>
</linearGradient>
</defs>
</svg>
