<svg width="6" height="9" viewBox="0 0 6 9" fill="none" xmlns="http://www.w3.org/2000/svg">
<path d="M5.77056 8.8019C5.91747 8.67501 6 8.50294 6 8.32353C6 8.14411 5.91747 7.97205 5.77056 7.84516L1.89154 4.49592L5.77056 1.14667C5.91331 1.01906 5.99229 0.848143 5.99051 0.670736C5.98872 0.49333 5.90631 0.323626 5.76101 0.198175C5.61572 0.0727263 5.41917 0.00156787 5.21371 2.57836e-05C5.00824 -0.00151535 4.81029 0.0666838 4.66249 0.189935L0.229439 4.01755C0.0825293 4.14443 -2.04722e-07 4.3165 -1.9688e-07 4.49592C-1.89037e-07 4.67533 0.0825294 4.8474 0.229439 4.97428L4.66249 8.8019C4.80945 8.92874 5.00873 9 5.21653 9C5.42432 9 5.62361 8.92874 5.77056 8.8019Z" fill="#A4A4A4"/>
</svg>
