<svg xmlns="http://www.w3.org/2000/svg" viewBox="0 0 343.95 77.89"><path d="M143.33 17.34v43.2h-7.5V26.67h-.12L122.3 60.54h-4.97l-13.74-33.86h-.09v33.86h-6.93v-43.2h10.75l12.41 32.02h.18l13.1-32.02h10.32zm6.27 3.28c0-1.21.44-2.21 1.31-3.03.87-.81 1.91-1.22 3.12-1.22 1.29 0 2.35.42 3.19 1.25.84.83 1.27 1.83 1.27 3 0 1.18-.43 2.18-1.3 2.98-.86.8-1.92 1.21-3.16 1.21s-2.29-.41-3.15-1.22c-.86-.82-1.28-1.81-1.28-2.97zm8.04 8.95v30.97h-7.29V29.57h7.29zm22.11 25.66c1.08 0 2.28-.25 3.58-.75 1.31-.5 2.51-1.16 3.62-1.99v6.78c-1.16.66-2.49 1.17-3.96 1.51-1.48.34-3.1.51-4.87.51-4.56 0-8.26-1.44-11.12-4.32-2.85-2.88-4.28-6.56-4.28-11.04 0-4.98 1.46-9.08 4.37-12.31 2.91-3.22 7.04-4.83 12.38-4.83 1.37 0 2.75.18 4.14.53 1.4.35 2.5.76 3.33 1.22v6.99c-1.13-.82-2.27-1.46-3.45-1.91a9.995 9.995 0 0 0-3.6-.68c-2.87 0-5.19.93-6.96 2.8-1.77 1.87-2.65 4.39-2.65 7.56 0 3.13.85 5.57 2.55 7.32 1.71 1.74 4.01 2.61 6.92 2.61zm27.96-26.18c.58 0 1.1.04 1.57.12.46.08.85.18 1.18.3v7.38c-.38-.28-.94-.55-1.67-.8s-1.62-.38-2.67-.38c-1.79 0-3.3.75-4.53 2.26-1.23 1.51-1.85 3.83-1.85 6.96v15.64h-7.29V29.57h7.29v4.88h.12c.66-1.69 1.67-3.01 3.01-3.96 1.34-.96 2.95-1.44 4.84-1.44zm3.14 16.45c0-5.12 1.45-9.18 4.34-12.17 2.89-2.99 6.91-4.49 12.05-4.49 4.84 0 8.62 1.44 11.34 4.32 2.72 2.88 4.08 6.77 4.08 11.67 0 5.02-1.45 9.02-4.34 11.99-2.89 2.97-6.83 4.46-11.81 4.46-4.8 0-8.61-1.41-11.43-4.23-2.82-2.81-4.23-6.67-4.23-11.55zm7.59-.24c0 3.23.73 5.7 2.2 7.41 1.47 1.71 3.56 2.56 6.3 2.56 2.65 0 4.67-.85 6.06-2.56 1.39-1.71 2.08-4.24 2.08-7.59 0-3.33-.72-5.85-2.15-7.55-1.44-1.7-3.45-2.55-6.04-2.55-2.67 0-4.74.89-6.22 2.67-1.49 1.78-2.23 4.32-2.23 7.61zm35.06-7.56c0 1.04.33 1.86.99 2.46.66.59 2.13 1.34 4.4 2.24 2.91 1.17 4.96 2.48 6.13 3.93 1.18 1.46 1.76 3.22 1.76 5.29 0 2.91-1.12 5.25-3.36 7.02-2.24 1.77-5.27 2.65-9.08 2.65-1.29 0-2.71-.16-4.26-.47-1.56-.31-2.88-.71-3.96-1.19v-7.17c1.33.92 2.75 1.66 4.28 2.2 1.53.54 2.91.81 4.16.81 1.65 0 2.86-.23 3.65-.69s1.17-1.24 1.17-2.32c0-1-.41-1.85-1.22-2.55s-2.36-1.49-4.62-2.4c-2.69-1.12-4.6-2.39-5.72-3.8-1.13-1.41-1.69-3.19-1.69-5.36 0-2.79 1.11-5.09 3.33-6.88 2.22-1.8 5.1-2.7 8.63-2.7 1.08 0 2.3.12 3.64.36 1.35.24 2.47.55 3.37.93v6.93c-.96-.64-2.09-1.19-3.37-1.66-1.29-.46-2.56-.69-3.83-.69-1.39 0-2.47.27-3.24.81-.77.56-1.16 1.31-1.16 2.25zm16.42 7.8c0-5.12 1.45-9.18 4.34-12.17 2.89-2.99 6.91-4.49 12.05-4.49 4.84 0 8.62 1.44 11.34 4.32 2.72 2.88 4.08 6.77 4.08 11.67 0 5.02-1.45 9.02-4.34 11.99-2.89 2.97-6.83 4.46-11.81 4.46-4.8 0-8.61-1.41-11.43-4.23-2.82-2.81-4.23-6.67-4.23-11.55zm7.59-.24c0 3.23.73 5.7 2.2 7.41 1.47 1.71 3.56 2.56 6.3 2.56 2.65 0 4.67-.85 6.06-2.56 1.39-1.71 2.08-4.24 2.08-7.59 0-3.33-.72-5.85-2.15-7.55-1.44-1.7-3.45-2.55-6.04-2.55-2.67 0-4.74.89-6.22 2.67-1.49 1.78-2.23 4.32-2.23 7.61zm48.41-9.73h-10.86v25h-7.38v-25h-5.18v-5.96h5.18v-4.31c0-3.25 1.06-5.92 3.18-8s4.83-3.12 8.15-3.12c.88 0 1.67.05 2.35.14.68.09 1.29.23 1.81.41v6.3c-.24-.14-.66-.31-1.27-.51-.6-.2-1.3-.3-2.08-.3-1.53 0-2.7.48-3.53 1.43-.82.95-1.23 2.36-1.23 4.23v3.74h10.86v-6.96l7.32-2.23v9.19h7.38v5.96h-7.38v14.49c0 1.91.35 3.25 1.04 4.04.69.78 1.78 1.18 3.27 1.18.42 0 .93-.1 1.52-.3.59-.2 1.11-.44 1.55-.72v6.03c-.46.26-1.23.5-2.3.72s-2.13.33-3.18.33c-3.07 0-5.38-.82-6.91-2.45-1.54-1.64-2.3-4.1-2.3-7.4V35.53z" fill="#737373"/><path fill="#f25022" d="M2.97 2.94h34.22v34.22H2.97z"/><path fill="#7fba00" d="M40.75 2.94h34.22v34.22H40.75z"/><path fill="#00a4ef" d="M2.97 40.72h34.22v34.22H2.97z"/><path fill="#ffb900" d="M40.75 40.72h34.22v34.22H40.75z"/></svg>