<svg width="30" height="30" viewBox="0 0 30 30" fill="none" xmlns="http://www.w3.org/2000/svg">
<path d="M4.3329 20.1012C3.59884 20.1012 3 19.5024 3 18.7683C3 18.0343 3.59884 17.4354 4.3329 17.4354C5.06695 17.4354 5.66579 18.0343 5.66579 18.7683C5.66579 19.5024 5.06695 20.1012 4.3329 20.1012ZM4.3329 18.1791C4.0045 18.1791 3.73406 18.4496 3.73406 18.778C3.73406 19.1064 4.0045 19.3768 4.3329 19.3768C4.66129 19.3768 4.93173 19.1064 4.93173 18.778C4.93173 18.4496 4.66129 18.1791 4.3329 18.1791Z" fill="white"/>
<path d="M26.7782 6.66579C26.0442 6.66579 25.4453 6.06695 25.4453 5.3329C25.4453 4.59884 26.0442 4 26.7782 4C27.5123 4 28.1111 4.59884 28.1111 5.3329C28.1111 6.06695 27.5123 6.66579 26.7782 6.66579ZM26.7782 4.73406C26.4498 4.73406 26.1794 5.0045 26.1794 5.3329C26.1794 5.66129 26.4498 5.93173 26.7782 5.93173C27.1066 5.93173 27.377 5.66129 27.377 5.3329C27.377 5.0045 27.1066 4.73406 26.7782 4.73406Z" fill="white"/>
<path d="M22.1301 25.6603H9.62247C8.62854 25.6603 7.82812 24.8365 7.82812 23.8336V7.52751C7.82812 6.51566 8.63734 5.70081 9.62247 5.70081H22.1301C23.1241 5.70081 23.9245 6.52462 23.9245 7.52751V23.8336C23.9245 24.8454 23.1153 25.6603 22.1301 25.6603ZM9.62247 6.3903C9.00677 6.3903 8.5054 6.9007 8.5054 7.52751V23.8336C8.5054 24.4604 9.00677 24.9708 9.62247 24.9708H22.1301C22.7458 24.9708 23.2472 24.4604 23.2472 23.8336V7.52751C23.2472 6.9007 22.7458 6.3903 22.1301 6.3903H9.62247Z" fill="white"/>
<path d="M10.082 15.6805H21.6714V16.3244H10.082V15.6805Z" fill="white"/>
<path d="M14.8918 9.96423C14.8632 9.93764 14.8157 9.92877 14.7777 9.9465C14.7397 9.96423 14.7017 9.9731 14.6637 9.98196C14.7302 9.91104 14.7682 9.82239 14.8062 9.73375C14.8157 9.68942 14.7872 9.6451 14.7397 9.62737C14.7112 9.6185 14.6827 9.62737 14.6637 9.63623C14.5212 9.70715 14.3787 9.76034 14.2266 9.7958C13.9131 9.52099 13.438 9.48553 13.0769 9.71602C12.8014 9.89331 12.6493 10.1859 12.6873 10.4961C12.0887 10.4518 11.5471 10.177 11.1766 9.73375C11.1481 9.71602 11.1196 9.70715 11.0911 9.70715C11.0626 9.70715 11.034 9.72488 11.015 9.75148C10.8915 9.9465 10.8535 10.177 10.92 10.3897C10.9485 10.505 11.0055 10.6025 11.0721 10.7C11.0435 10.6823 11.015 10.6646 10.9865 10.6468C10.9485 10.6114 10.8915 10.6202 10.8535 10.6557C10.844 10.6734 10.8345 10.6911 10.8345 10.7089C10.844 11.0191 11.0245 11.3117 11.3191 11.4624C11.2811 11.4624 11.2431 11.4535 11.2051 11.4447C11.1576 11.4269 11.1101 11.4535 11.0911 11.4978C11.0816 11.5156 11.0816 11.5422 11.0911 11.5599C11.2146 11.8258 11.4711 12.0209 11.7847 12.0829C11.4901 12.2336 11.1576 12.3045 10.825 12.2691C10.7775 12.2602 10.7395 12.2868 10.73 12.3311C10.7205 12.3666 10.73 12.4109 10.768 12.4286C11.1766 12.6591 11.6422 12.7744 12.1172 12.7832C12.5733 12.7832 13.0199 12.6591 13.3905 12.4198C14.1126 11.9765 14.5592 11.1698 14.5022 10.4518C14.6542 10.3454 14.7872 10.2124 14.9013 10.0706C14.9203 10.0351 14.9108 9.99083 14.8918 9.96423V9.96423Z" fill="white"/>
<path d="M14.6103 13.987H10.4475C9.77135 13.987 9.23047 13.4365 9.23047 12.77V8.59748C9.23047 7.92138 9.78101 7.38049 10.4475 7.38049H14.6103C15.2865 7.38049 15.8273 7.93104 15.8273 8.59748V12.7604C15.8273 13.4365 15.2865 13.987 14.6103 13.987ZM10.4475 7.87308C10.0515 7.87308 9.72306 8.20148 9.72306 8.59748V12.7604C9.72306 13.1564 10.0515 13.4848 10.4475 13.4848H14.6103C15.0064 13.4848 15.3347 13.1564 15.3347 12.7604V8.59748C15.3347 8.20148 15.0064 7.87308 14.6103 7.87308H10.4475Z" fill="white"/>
<path d="M9.77344 19.0675H22.2041V19.5601H9.77344V19.0675Z" fill="white"/>
<path d="M10.082 21.4752H21.6714V22.1191H10.082V21.4752Z" fill="white"/>
<path d="M9.77344 23.8196H22.2041V24.3122H9.77344V23.8196Z" fill="white"/>
<path d="M16.8438 8.59814H21.6727V8.92007H16.8438V8.59814Z" fill="white"/>
<path d="M16.8438 10.2078H21.6727V10.8516H16.8438V10.2078Z" fill="white"/>
<path d="M16.8438 11.8174H21.6727V12.4612H16.8438V11.8174Z" fill="white"/>
<path d="M16.8438 13.749H21.6727V14.071H16.8438V13.749Z" fill="white"/>
</svg>
