<svg width="36" height="24" xmlns="http://www.w3.org/2000/svg" version="1.1">
 <g id="Layer_1">
  <path id="svg_1" fill="#1977C6" d="m32.98707,0.01321l-30,0c-1.65685,0 -3,1.34315 -3,3l0,18c0,1.6569 1.34315,3 3,3l30,0c1.6569,0 3,-1.3431 3,-3l0,-18c0,-1.65685 -1.3431,-3 -3,-3z"/>
  <path id="svg_2" fill="white" d="m33.09357,20.17891l2.8935,0l0,-0.9618l0,-6.7165l0,-0.9747l-1.8124,0l0,-4.7113l-1.726,4.7113l-1.6109,0l-1.726,-4.7016l0,4.7016l-1.8123,0l0,-6.7165l2.867,0l1.4958,4.1832l1.5056,-4.1832l2.8192,0l0,-0.9619l-3.5344,0l-0.7968,2.2329l-0.7917,-2.2329l-4.5594,0l0,2.963l-1.3149,-2.963l-3.6834,0l-3.8194,8.6492l3.0792,0l0,7.6822l9.5402,0l1.4973,-1.6483l1.4898,1.6483zm-5.7941,-8.653l-2.9628,-6.7165l-2.3589,0l-2.9631,6.7165l2.0137,0l0.5562,-1.3433l3.0875,0l0.5658,1.3433l2.0616,0zm8.6876,0.9747l-3.183,3.3391l3.183,3.3774l-2.4062,0l-1.9657,-2.1685l-1.9753,2.1685l-2.3398,0l3.1644,-3.3583l-3.1644,-3.3582l2.4068,0l1.9467,2.1493l1.9656,-2.1493l2.3679,0zm-8.687,0l-5.7149,0l0,6.7165l5.7149,0l0,-1.5543l-3.8834,0l0,-1.046l3.7874,0l0,-1.516l-3.7874,0l0,-1.0458l3.8834,0l0,-1.5544zm6.8437,3.342l1.8433,1.9621l0,-3.908l-1.8433,1.9459zm-11.0154,-9.3638l-0.911,2.1973l1.822,0l-0.911,-2.1973z" clip-rule="evenodd" fill-rule="evenodd"/>
  <path id="svg_3" fill-opacity="0.07" fill="black" d="m32.98707,1.01321l-30,0c-1.10457,0 -2,0.89543 -2,2l0,18c0,1.1046 0.89543,2 2,2l30,0c1.1046,0 2,-0.8954 2,-2l0,-18c0,-1.10457 -0.8954,-2 -2,-2zm-30,-1l30,0c1.6569,0 3,1.34315 3,3l0,18c0,1.6569 -1.3431,3 -3,3l-30,0c-1.65685,0 -3,-1.3431 -3,-3l0,-18c0,-1.65685 1.34315,-3 3,-3z" clip-rule="evenodd" fill-rule="evenodd"/>
 </g>
</svg>