<svg width="36" height="24" viewBox="0 0 36 24" fill="none" xmlns="http://www.w3.org/2000/svg">
<rect width="36" height="24" rx="3" fill="white"/>
<path d="M33 0H3C1.34315 0 0 1.34315 0 3V21C0 22.6569 1.34315 24 3 24H33C34.6569 24 36 22.6569 36 21V3C36 1.34315 34.6569 0 33 0Z" fill="white"/>
<path fill-rule="evenodd" clip-rule="evenodd" d="M15.1603 17.0447H20.8385V6.9554H15.1603V17.0447Z" fill="#FF5F00"/>
<path fill-rule="evenodd" clip-rule="evenodd" d="M15.5208 12.0001C15.5214 11.0257 15.7451 10.0644 16.1749 9.18997C16.6046 8.3155 17.229 7.5511 18 6.9554C17.0448 6.21204 15.9011 5.74992 14.6976 5.621C13.4941 5.49207 12.2785 5.70147 11.1875 6.22563C10.0965 6.74979 9.17342 7.56794 8.52198 8.58805C7.87053 9.60817 7.51661 10.7898 7.5 12.0001C7.51661 13.2103 7.87053 14.392 8.52198 15.4121C9.17342 16.4322 10.0965 17.2503 11.1875 17.7745C12.2785 18.2987 13.4941 18.5081 14.6976 18.3791C15.9011 18.2502 17.0448 17.7881 18 17.0447C17.229 16.449 16.6046 15.6846 16.1749 14.8102C15.7451 13.9357 15.5214 12.9744 15.5208 12.0001Z" fill="#EB001B"/>
<path fill-rule="evenodd" clip-rule="evenodd" d="M28.297 15.9761V15.7276H28.227L28.1512 15.8991L28.0753 15.7276H28.01V15.9761H28.0567V15.7882L28.1278 15.9504H28.1757L28.2468 15.7882V15.9761H28.297ZM27.8805 15.9761V15.7696H27.9645V15.7276H27.7498V15.7696H27.8338V15.9761H27.8805ZM28.5 12.0001C28.4834 13.2103 28.1295 14.392 27.478 15.4121C26.8266 16.4322 25.9035 17.2503 24.8125 17.7745C23.7215 18.2987 22.5059 18.5081 21.3024 18.3791C20.0989 18.2502 18.9552 17.7881 18 17.0447C18.7714 16.4494 19.396 15.685 19.8258 14.8105C20.2555 13.936 20.479 12.9745 20.479 12.0001C20.479 11.0256 20.2555 10.0642 19.8258 9.18964C19.396 8.31509 18.7714 7.55076 18 6.9554C18.9552 6.21204 20.0989 5.74992 21.3024 5.621C22.5059 5.49207 23.7215 5.70147 24.8125 6.22563C25.9035 6.74979 26.8266 7.56794 27.478 8.58805C28.1295 9.60817 28.4834 10.7898 28.5 12.0001Z" fill="#F79E1B"/>
<path fill-rule="evenodd" clip-rule="evenodd" d="M33 1H3C1.89543 1 1 1.89543 1 3V21C1 22.1046 1.89543 23 3 23H33C34.1046 23 35 22.1046 35 21V3C35 1.89543 34.1046 1 33 1ZM3 0H33C34.6569 0 36 1.34315 36 3V21C36 22.6569 34.6569 24 33 24H3C1.34315 24 0 22.6569 0 21V3C0 1.34315 1.34315 0 3 0Z" fill="black" fill-opacity="0.07"/>
<rect x="0.5" y="0.5" width="35" height="23" rx="2.5" stroke="black" stroke-opacity="0.07"/>
</svg>
