<svg width="52" height="32" viewBox="0 0 52 32" fill="none" xmlns="http://www.w3.org/2000/svg">
<rect width="52" height="32" fill="white"/>
<path d="M6.5 12.1111C6.5 10.3929 7.89289 9 9.61111 9H17.3889C19.1071 9 20.5 10.3929 20.5 12.1111V19.8889C20.5 21.6071 19.1071 23 17.3889 23H9.61111C7.89289 23 6.5 21.6071 6.5 19.8889V12.1111Z" fill="#191C1F"/>
<path fill-rule="evenodd" clip-rule="evenodd" d="M14.1055 10.8093C15.1321 10.8632 15.779 10.9855 16.4563 11.3666C16.9818 11.662 17.3827 12.1108 17.6667 12.6605C17.817 12.9528 17.8929 13.2467 17.9491 13.6134C17.9947 13.9126 18.0053 14.2163 17.978 14.5155C17.9628 14.7068 17.9355 14.8807 17.8929 15.0523C17.8064 15.3993 17.656 15.7281 17.4541 16.0295C17.2551 16.3249 17.0122 16.5876 16.7282 16.8306L16.6264 16.9133L16.6963 17.1153C16.9545 17.8442 17.1944 18.3834 17.4814 18.8625L17.5923 19.0394L17.6849 19.1814C17.978 19.6111 18.0266 20.028 17.6849 20.419C17.4298 20.7121 16.9134 21.1115 15.1898 21.2034C14.4776 21.2414 13.9051 20.9202 13.5133 20.419C13.4505 20.3297 13.3134 20.3369 13.2456 20.4225C13.0798 20.6317 12.8445 20.8104 12.5672 20.9217L12.4275 20.9726L12.2787 21.0189C12.0099 21.0948 11.6805 21.1775 11.2749 21.192C8.72282 21.2836 9.01758 19.2467 9.01758 19.2467H9.01303L9.46925 16.5792C9.46925 16.5792 9.56615 15.9774 9.62567 15.5914C9.68662 15.1961 9.77753 14.5785 9.77753 14.5785L9.85498 14.0432L9.94609 13.2687L9.99469 12.7744C10.0053 12.5519 10.0053 12.3704 9.99469 12.2034L10.0615 11.8693L10.0964 11.7159C10.1374 11.5618 10.1784 11.4881 10.2604 11.4L10.3424 11.3188L10.3926 11.2717C10.5748 11.113 10.7084 11.0606 10.8998 11.0098C10.9636 10.9931 11.0273 10.9794 11.0987 10.9672L11.3113 10.9369L11.776 10.8875C12.5368 10.7987 13.3645 10.7698 14.1055 10.8093ZM11.8711 12.0277L11.8711 12.0277L11.9081 12.0242C12.5929 11.9444 13.3568 11.9148 14.0447 11.952C14.6795 11.9854 15.331 12.0462 15.8959 12.3636C16.2315 12.5526 16.476 12.8472 16.6507 13.1851C16.7433 13.3658 16.7888 13.5883 16.8192 13.7888C16.8511 13.9968 16.8587 14.2087 16.8405 14.419L16.8253 14.5557C16.8162 14.6301 16.8025 14.7037 16.7843 14.7759C16.7296 14.9968 16.6324 15.2041 16.5064 15.3932C16.3287 15.6559 16.0994 15.8791 15.8504 16.0728C15.6696 16.214 15.4768 16.3408 15.2778 16.4562C15.6879 17.7812 16.1189 18.6212 16.6962 19.7273C16.6051 19.8313 15.9855 20.0181 15.129 20.0637C14.8997 20.0758 14.722 19.9976 14.5854 19.8898C14.3242 19.6832 14.2209 19.3666 14.2209 19.3666L13.4669 17.1832C13.4301 17.0767 13.3298 17.0052 13.2171 17.0052H12.6248C12.432 18.2421 12.3515 18.9484 12.3515 19.7273C12.3515 19.7273 12.2604 19.9482 11.1639 20.0561C10.8617 20.0857 10.4305 20.05 10.2619 19.7546C10.1024 19.476 10.1753 19.1176 10.2391 18.804L10.2771 18.6111L10.3168 18.3876C10.4343 17.7274 10.5516 17.0679 10.6567 16.4053C10.7691 15.6954 10.886 14.9103 10.9893 14.1988C10.9935 14.1614 11.0001 14.1056 11.0081 14.0374L11.0139 13.9883C11.0562 13.6297 11.1293 13.0103 11.1366 12.826C11.1472 12.6005 11.1503 12.3689 11.1366 12.1441C11.1352 12.0981 11.6371 12.0501 11.8711 12.0277ZM12.804 15.8542C12.804 15.8542 13.0219 14.817 13.2198 13.1048C14.0447 12.9696 14.9407 13.1328 14.7296 14.4525C14.5005 15.8797 13.5374 15.864 12.9754 15.8549L12.9741 15.8549L12.804 15.8542Z" fill="white"/>
<path d="M25.118 20.5V16.944H27.512C29.486 16.944 30.746 15.67 30.746 13.794C30.746 11.974 29.514 10.7 27.512 10.7H23.9V20.5H25.118ZM25.118 11.806H27.358C28.674 11.806 29.486 12.534 29.486 13.794C29.486 15.11 28.716 15.824 27.358 15.824H25.118V11.806ZM34.1604 20.626C35.1684 20.626 35.9664 20.22 36.4004 19.492H36.4564L36.5404 20.5H37.5344V15.684C37.5344 14.326 36.5684 13.22 34.7344 13.22C33.1664 13.22 32.0184 14.13 32.0184 15.502H33.1524C33.1664 14.816 33.6844 14.228 34.7344 14.228C35.8964 14.228 36.3864 14.914 36.3864 15.712V16.426C35.9384 16.3 35.3784 16.174 34.6224 16.174C32.5224 16.174 31.6684 17.21 31.6684 18.414C31.6684 19.66 32.6064 20.626 34.1604 20.626ZM34.3704 19.646C33.3344 19.646 32.8584 19.114 32.8584 18.4C32.8584 17.56 33.4604 17.112 34.6224 17.112C35.2524 17.112 35.7984 17.182 36.3864 17.364V17.728C36.3864 18.764 35.5884 19.646 34.3704 19.646ZM41.3012 23.706L45.2632 13.486V13.346H44.0312L41.9312 18.96H41.8752L39.7052 13.346H38.4452V13.486L41.3152 20.416L41.3292 20.444L40.1112 23.566V23.706H41.3012Z" fill="#191C1F"/>
</svg>
