<svg width="36" height="24" viewBox="0 0 36 24" fill="none" xmlns="http://www.w3.org/2000/svg">
<rect width="36" height="24" rx="3" fill="white"/>
<path d="M33 0H3C1.34315 0 0 1.34315 0 3V21C0 22.6569 1.34315 24 3 24H33C34.6569 24 36 22.6569 36 21V3C36 1.34315 34.6569 0 33 0Z" fill="white"/>
<g clip-path="url(#clip0_601_24744)">
<path fill-rule="evenodd" clip-rule="evenodd" d="M24.1966 9H23.0973V14.9496H24.1966V9ZM31.9994 10.5833V11.5066H30.8628V13.5831C30.8628 13.7563 30.901 13.9067 30.9599 13.9662C31.024 14.0312 31.1349 14.0642 31.2893 14.0642H31.9994V14.9874H31.029C30.6016 14.9874 30.2804 14.8845 30.0742 14.6815C29.868 14.4786 29.7635 14.1713 29.7635 13.7681V9.37959H30.8628V10.5833H31.9994ZM15.6303 13.7916L16.7669 10.5832H17.9217L16.2809 14.9496H14.9796L13.3388 10.5832H14.4937L15.6303 13.7916ZM27.8434 13.4854C27.9285 13.2875 27.9717 13.047 27.9717 12.7706V10.5833H29.071V14.9496H28.1062L28.0077 14.4406C27.8777 14.5836 27.7119 14.7112 27.5138 14.8203C27.2968 14.9395 27.0123 15 26.6686 15C26.4301 15 26.2014 14.9671 25.9887 14.9022C25.7749 14.8369 25.5833 14.726 25.4193 14.5725C25.2551 14.4189 25.1231 14.2118 25.0271 13.9573C24.9311 13.7036 24.8825 13.3836 24.8825 13.0063V10.5833H25.9818V12.8885C25.9818 13.2855 26.0603 13.588 26.2153 13.7876C26.3687 13.9851 26.6059 14.0853 26.9202 14.0853C27.1398 14.0853 27.3294 14.0343 27.4836 13.9336C27.6379 13.833 27.7589 13.6822 27.8434 13.4854ZM21.4169 10.8136C21.0705 10.6273 20.6591 10.5329 20.1944 10.5329C19.7354 10.5329 19.3255 10.6273 18.9762 10.8135C18.6265 11.0003 18.3518 11.264 18.1595 11.5973C17.9676 11.9304 17.8703 12.3252 17.8703 12.7706C17.8703 13.2106 17.9676 13.6026 18.1595 13.9357C18.3516 14.2689 18.6265 14.5326 18.9762 14.7193C19.3255 14.9055 19.7354 14.9999 20.1944 14.9999C20.6591 14.9999 21.0704 14.9055 21.4169 14.7192C21.7637 14.5326 22.037 14.2689 22.2292 13.9356C22.4212 13.6024 22.5186 13.2104 22.5186 12.7706C22.5186 12.3253 22.4212 11.9306 22.2292 11.5973C22.0369 11.2639 21.7636 11.0002 21.4169 10.8136ZM20.8361 13.9334C20.659 14.0453 20.4431 14.102 20.1944 14.102C19.9514 14.102 19.7369 14.0453 19.5569 13.9334C19.3765 13.8213 19.235 13.6632 19.1363 13.4633C19.0372 13.2632 18.9869 13.0302 18.9869 12.7706C18.9869 12.5057 19.0372 12.2713 19.1363 12.074C19.235 11.8768 19.3766 11.7186 19.5571 11.6037C19.7371 11.489 19.9516 11.4308 20.1944 11.4308C20.443 11.4308 20.6588 11.489 20.8359 11.6036C21.0136 11.7185 21.1537 11.8768 21.2526 12.074C21.3517 12.2719 21.402 12.5063 21.402 12.7706C21.402 13.0296 21.3517 13.2627 21.2526 13.4633C21.1538 13.6632 21.0136 13.8214 20.8361 13.9334ZM4 10.4683H5.14242V14.9496H4V10.4683ZM8.725 10.7246C8.725 9.7737 7.92677 9.00006 6.94556 9.00006H4V9.95708H6.80551C7.24956 9.95708 7.61739 10.2955 7.62551 10.7114C7.62957 10.9197 7.549 11.1162 7.39864 11.2649C7.24822 11.4135 7.04724 11.4955 6.83273 11.4955H5.73985C5.70104 11.4955 5.66946 11.5261 5.66946 11.5637V12.4143C5.66946 12.4287 5.67407 12.4426 5.68274 12.4542L7.53699 14.9497H8.89434L7.03578 12.4474C7.97175 12.4018 8.725 11.6389 8.725 10.7246ZM11.0765 10.5329C11.518 10.5329 11.9088 10.6187 12.2379 10.7882C12.5669 10.9576 12.8286 11.2014 13.0156 11.5127C13.2019 11.8237 13.2994 12.1958 13.3053 12.6188C13.3053 12.6814 13.3037 12.7434 13.301 12.8054C13.2977 12.8691 13.2903 12.9325 13.2788 12.9939L13.2751 13.0135H9.97302V13.0486C9.98435 13.2728 10.0373 13.4704 10.1305 13.6346C10.2232 13.7982 10.3572 13.9267 10.5284 14.0165C10.7006 14.1068 10.8996 14.1526 11.12 14.1526C11.38 14.1526 11.6045 14.0917 11.7872 13.9716C11.9574 13.8599 12.0742 13.702 12.1344 13.5021L12.1396 13.485H13.2328L13.2268 13.5135C13.171 13.7815 13.057 14.0278 12.888 14.2456C12.7101 14.4747 12.4722 14.6598 12.1807 14.7957C11.8892 14.9313 11.5498 15 11.1719 15C10.6955 15 10.2769 14.907 9.92803 14.7236C9.57845 14.5401 9.30501 14.2778 9.11543 13.9439C8.92627 13.6108 8.83042 13.2189 8.83042 12.7791C8.83042 12.3279 8.92482 11.9303 9.11107 11.5976C9.2975 11.264 9.56348 11.0003 9.90154 10.8137C10.2391 10.6273 10.6344 10.5329 11.0765 10.5329ZM12.1848 12.2585C12.1419 11.9817 12.0251 11.7638 11.8373 11.6105C11.6432 11.4521 11.3901 11.3718 11.0851 11.3718C10.9047 11.3718 10.7346 11.4093 10.5797 11.4831C10.425 11.5567 10.2952 11.6619 10.1939 11.7957C10.0973 11.9233 10.0358 12.0789 10.011 12.2585H12.1848Z" fill="#191C1F"/>
</g>
<path fill-rule="evenodd" clip-rule="evenodd" d="M33 1H3C1.89543 1 1 1.89543 1 3V21C1 22.1046 1.89543 23 3 23H33C34.1046 23 35 22.1046 35 21V3C35 1.89543 34.1046 1 33 1ZM3 0H33C34.6569 0 36 1.34315 36 3V21C36 22.6569 34.6569 24 33 24H3C1.34315 24 0 22.6569 0 21V3C0 1.34315 1.34315 0 3 0Z" fill="black" fill-opacity="0.07"/>
<defs>
<clipPath id="clip0_601_24744">
<rect width="28" height="6" fill="white" transform="translate(4 9)"/>
</clipPath>
</defs>
</svg>
