<svg id="Revolut_Logos" data-name="Revolut Logos" xmlns="http://www.w3.org/2000/svg" viewBox="0 0 1200 1200"><defs><style>.cls-1,.cls-2{fill:#191c1f;}.cls-2{fill-rule:evenodd;}</style></defs><g id="Symbol"><path class="cls-1" d="M564.35,590c36,.72,98.91,1.8,109-89.92,9.71-85.6-44.24-92.43-93.15-89.2-1.8,11.51-3.24,22.3-5,33.45-6.47,43.52-12.59,86.32-21.94,145.66Z"/><path class="cls-2" d="M657.5,273.46c108.26,2.16,161.85,51.43,187.74,92.79a209.05,209.05,0,0,1,30.93,111.14v9.35h0c-1.8,34.89-5,101.06-83.08,165.8,48.91,114.73,59,136,68.7,154.29,14.75,28.77,7.55,64-17.62,84.16-30.21,24.1-59.7,33.81-112.93,37.4-4.32.36-9,.36-13.31.36a155.88,155.88,0,0,1-130.2-65.1,66.75,66.75,0,0,1-21.58,29.13c-30.93,23.74-59.7,32.37-112.93,34.17-4.68.36-9.35.36-13.67.36-48.55,0-75.53-21.22-90.28-38.84-36.69-44.6-25.54-105.38-16.54-153.93v-.36c2.52-13.67,4.68-28,6.11-42.44v-1.8c1.08-11.15,4.68-32,10.79-70.49l.72-4.68c9.71-59.34,34.53-212.92,32-247.09a67.69,67.69,0,0,1,8.27-51.43,65.57,65.57,0,0,1,42.44-29.85,603.62,603.62,0,0,1,143.86-15.11C600,270.94,626.21,271.66,657.5,273.46ZM447.1,352.22C500,340.71,540.61,335,655.34,340.71,806.4,343.59,810,456.88,810,478.1c0,1.8-.36,3.6-.36,5.39-1.8,34.17-4.32,89.56-99.27,145.3,73.37,201.77,80.2,204.65,91.71,209.68.36,0,.36.36.72.36-5.75,6.83-25.54,16.54-79.13,19.78-76.61,5.39-94.95-57.91-94.95-57.91L583.75,664H541c-2.16,14.75-4.68,29.13-6.83,42.8C523,776.24,515.06,826.6,525.49,839.54c-17.62,9-29.49,10.79-66.18,16.18-3.24.36-6.83,1.08-10.43,1.44-73,10.43-62.22-50-51.43-110.06,3.24-17.26,6.11-34.53,7.19-50,1.08-10.07,5.39-36.33,10.79-70.49,10.07-61.5,24.1-147.46,30.21-207.88C449.26,386.75,450.34,362.29,447.1,352.22Z"/></g></svg>