<svg width="36" height="24" viewBox="0 0 36 24" fill="none" xmlns="http://www.w3.org/2000/svg">
<rect width="36" height="24" rx="3" fill="white"/>
<path d="M33 0H3C1.34315 0 0 1.34315 0 3V21C0 22.6569 1.34315 24 3 24H33C34.6569 24 36 22.6569 36 21V3C36 1.34315 34.6569 0 33 0Z" fill="white"/>
<path d="M17.2985 7.65897L15.4366 16.3633H13.1846L15.0466 7.65897H17.2985ZM26.7724 13.2795L27.9577 10.0106L28.6397 13.2795H26.7724ZM29.286 16.3633H31.3681L29.5489 7.65897H27.6284C27.1953 7.65897 26.8304 7.90995 26.6689 8.297L23.29 16.3633H25.6549L26.1244 15.0634H29.0131L29.286 16.3633ZM23.4072 13.5215C23.417 11.2244 20.2316 11.0972 20.2529 10.0707C20.2598 9.75886 20.5573 9.42663 21.2077 9.34166C21.5301 9.29996 22.4199 9.26648 23.4286 9.73125L23.8231 7.8845C23.2814 7.68873 22.5842 7.5 21.7167 7.5C19.4906 7.5 17.9246 8.68248 17.912 10.3771C17.8977 11.6303 19.0309 12.329 19.8825 12.7462C20.7608 13.1728 21.055 13.4465 21.0507 13.8277C21.0446 14.4117 20.3504 14.6703 19.7042 14.6799C18.5712 14.6977 17.9146 14.3739 17.3913 14.1297L16.9825 16.038C17.5095 16.2792 18.4806 16.4892 19.4861 16.5C21.8528 16.5 23.4002 15.3312 23.4072 13.5215ZM14.0807 7.65897L10.432 16.3633H8.05198L6.25632 9.41664C6.14747 8.98946 6.05252 8.83245 5.72147 8.65194C5.17995 8.35769 4.28604 8.08263 3.5 7.91152L3.55325 7.65897H7.38497C7.87304 7.65897 8.31216 7.98376 8.42395 8.54583L9.37248 13.5831L11.7149 7.65897H14.0807Z" fill="#1434CB"/>
<path fill-rule="evenodd" clip-rule="evenodd" d="M33 1H3C1.89543 1 1 1.89543 1 3V21C1 22.1046 1.89543 23 3 23H33C34.1046 23 35 22.1046 35 21V3C35 1.89543 34.1046 1 33 1ZM3 0H33C34.6569 0 36 1.34315 36 3V21C36 22.6569 34.6569 24 33 24H3C1.34315 24 0 22.6569 0 21V3C0 1.34315 1.34315 0 3 0Z" fill="black" fill-opacity="0.07"/>
</svg>
