<?xml version="1.0" encoding="utf-8"?>
<!DOCTYPE svg PUBLIC "-//W3C//DTD SVG 1.1//EN" "http://www.w3.org/Graphics/SVG/1.1/DTD/svg11.dtd">
<svg version="1.1"
	 xmlns="http://www.w3.org/2000/svg" xmlns:xlink="http://www.w3.org/1999/xlink" x="0px" y="0px" width="30px" height="30px" viewBox="0 0 30 30" overflow="visible" enable-background="new 0 0 30 30" xml:space="preserve">
<path class="background" fill="#F2FCFE" d="M0,27.001C0,28.656,1.344,30,3,30h24c1.656,0,3-1.344,3-2.999V3c0-1.657-1.344-3-3-3H3C1.344,0,0,1.343,0,3
	V27.001z"/>
<path fill="#66ACC7" d="M25.501,5.25H4.5c-0.414,0-0.75-0.335-0.75-0.75S4.086,3.75,4.5,3.75h21.001c0.414,0,0.75,0.335,0.75,0.75
	S25.915,5.25,25.501,5.25z"/>
<path fill="#66ACC7" d="M25.501,8.25H4.5c-0.414,0-0.75-0.335-0.75-0.75S4.086,6.75,4.5,6.75h21.001c0.414,0,0.75,0.335,0.75,0.75
	S25.915,8.25,25.501,8.25z"/>
<path fill="#66ACC7" d="M25.5,26.25H4.499c-0.414,0-0.75-0.336-0.75-0.75c0-0.415,0.336-0.75,0.75-0.75H25.5
	c0.414,0,0.75,0.335,0.75,0.75C26.25,25.914,25.914,26.25,25.5,26.25z"/>
<path fill="#66ACC7" d="M25.5,23.249H4.499c-0.414,0-0.75-0.336-0.75-0.751c0-0.414,0.336-0.75,0.75-0.75H25.5
	c0.414,0,0.75,0.336,0.75,0.75C26.25,22.913,25.914,23.249,25.5,23.249z"/>
<path fill="#0074A2" d="M19.5,9.75h-9c-0.415,0-0.75,0.335-0.75,0.75v9c0,0.415,0.335,0.751,0.75,0.751h9
	c0.415,0,0.75-0.336,0.75-0.751v-9C20.25,10.086,19.915,9.75,19.5,9.75z M15,18c-1.654,0-3-1.345-3-3s1.346-3,3-3
	s3.001,1.346,3.001,3S16.654,18,15,18z"/>
</svg>
