<svg xmlns="http://www.w3.org/2000/svg" width="100" height="100" overflow="visible"><path fill="#fff" d="M19.878 99C9.469 99 1 90.532 1 80.123V2a1 1 0 0 1 1-1h78.122C90.531 1 99 9.469 99 19.878V98a1 1 0 0 1-1 1H19.878z"/><path d="M80.122 2C89.98 2 98 10.02 98 19.878V98H19.878C10.019 98 2 89.98 2 80.123V2h78.122m0-2H2a2 2 0 0 0-2 2v78.123C0 91.083 8.917 100 19.878 100H98a2 2 0 0 0 2-2V19.878C100 8.917 91.083 0 80.122 0h0zM34.065 47.149H19.381c-.811 0-1.467-.657-1.467-1.467V31c0-.81.656-1.467 1.467-1.467h14.685c.811 0 1.467.657 1.467 1.467v14.683a1.47 1.47 0 0 1-1.468 1.466zm46.637 0H66.019c-.811 0-1.467-.657-1.467-1.467V31c0-.81.656-1.467 1.467-1.467h14.684c.811 0 1.467.657 1.467 1.467v14.683a1.47 1.47 0 0 1-1.468 1.466zm-23.318 0H42.699c-.811 0-1.467-.657-1.467-1.467V31c0-.81.656-1.467 1.467-1.467h14.685c.811 0 1.467.657 1.467 1.467v14.683c0 .81-.657 1.466-1.467 1.466zM34.065 70.467H19.381c-.811 0-1.467-.656-1.467-1.467V54.317c0-.811.656-1.467 1.467-1.467h14.685c.811 0 1.467.656 1.467 1.467V69a1.47 1.47 0 0 1-1.468 1.467zm46.637 0H66.019c-.811 0-1.467-.656-1.467-1.467V54.317c0-.811.656-1.467 1.467-1.467h14.684c.811 0 1.467.656 1.467 1.467V69a1.47 1.47 0 0 1-1.468 1.467zm-23.318 0H42.699c-.811 0-1.467-.656-1.467-1.467V54.317c0-.811.656-1.467 1.467-1.467h14.685c.811 0 1.467.656 1.467 1.467V69c0 .811-.657 1.467-1.467 1.467z" fill="#0074a2"/></svg>