<svg xmlns="http://www.w3.org/2000/svg" width="100" height="100" overflow="visible"><path fill="#fff" d="M19.878 99C9.469 99 1 90.532 1 80.123V2a1 1 0 0 1 1-1h78.122C90.531 1 99 9.469 99 19.878V98a1 1 0 0 1-1 1H19.878z"/><path d="M80.122 2C89.98 2 98 10.02 98 19.878V98H19.878C10.019 98 2 89.98 2 80.123V2h78.122m0-2H2a2 2 0 0 0-2 2v78.123C0 91.083 8.917 100 19.878 100H98a2 2 0 0 0 2-2V19.878C100 8.917 91.083 0 80.122 0h0zM34.064 45.483H19.38c-.811 0-1.467-.657-1.467-1.467V29.333c0-.81.656-1.467 1.467-1.467h14.685c.811 0 1.467.657 1.467 1.467v14.683a1.47 1.47 0 0 1-1.468 1.467zm46.638 0H66.017c-.811 0-1.467-.657-1.467-1.467V29.333c0-.81.656-1.467 1.467-1.467h14.686c.811 0 1.467.657 1.467 1.467v14.683a1.47 1.47 0 0 1-1.468 1.467zM67.483 42.55h11.752V30.8H67.483v11.75zm-10.1 2.933H42.698c-.811 0-1.467-.657-1.467-1.467V29.333c0-.81.656-1.467 1.467-1.467h14.685c.811 0 1.467.657 1.467 1.467v14.683c0 .811-.657 1.467-1.467 1.467zM44.165 42.55h11.751V30.8H44.165v11.75zm-1.901 11.877c-.23 0-.461.06-.667.179-.412.238-.667.679-.667 1.155v14.682c0 .477.255.917.667 1.155.206.119.437.179.667.179s.46-.06.667-.179l12.718-7.34c.412-.238.667-.679.667-1.155s-.255-.917-.667-1.155l-12.718-7.342c-.206-.12-.437-.179-.667-.179h0zm15.553 17.482c-.811 0-1.467-.656-1.467-1.467V55.761c0-.811.656-1.467 1.467-1.467s1.467.656 1.467 1.467v14.682c0 .81-.656 1.466-1.467 1.466z" fill="#0074a2"/></svg>