<svg xmlns="http://www.w3.org/2000/svg" width="100" height="100" overflow="visible"><path fill="#fff" d="M19.878 99C9.469 99 1 90.532 1 80.123V2a1 1 0 0 1 1-1h78.122C90.531 1 99 9.469 99 19.878V98a1 1 0 0 1-1 1H19.878z"/><path d="M80.122 2C89.98 2 98 10.02 98 19.878V98H19.878C10.019 98 2 89.98 2 80.123V2h78.122m0-2H2a2 2 0 0 0-2 2v78.123C0 91.083 8.917 100 19.878 100H98a2 2 0 0 0 2-2V19.878C100 8.917 91.083 0 80.122 0h0zM34.064 45.483H19.38a1.47 1.47 0 0 1-1.467-1.467V29.333a1.47 1.47 0 0 1 1.467-1.467h14.684a1.47 1.47 0 0 1 1.467 1.467v14.683c0 .811-.657 1.467-1.467 1.467zM20.847 42.55h11.75V30.8h-11.75v11.75zm59.854 2.933H66.018c-.811 0-1.467-.657-1.467-1.467V29.333c0-.81.656-1.467 1.467-1.467h14.684c.811 0 1.467.657 1.467 1.467v14.683a1.47 1.47 0 0 1-1.468 1.467zm-23.318 0H42.699a1.47 1.47 0 0 1-1.467-1.467V29.333a1.47 1.47 0 0 1 1.467-1.467h14.684c.811 0 1.467.657 1.467 1.467v14.683c0 .811-.657 1.467-1.467 1.467zM44.166 42.55h11.75V30.8h-11.75v11.75zm22.896 27.259l-8.193-4.729c-.227-.133-.505-.133-.733 0a.73.73 0 0 0-.366.635v3.263h-1.016c-1.571-.002-3.046-.613-4.154-1.721l-4.154-4.154 4.154-4.154c1.109-1.109 2.584-1.72 4.152-1.72h1.018v3.263c0 .262.14.504.366.635a.73.73 0 0 0 .367.099c.127 0 .253-.032.366-.099l8.193-4.729a.73.73 0 0 0 .367-.635c0-.262-.14-.504-.367-.635l-8.193-4.73c-.227-.131-.505-.131-.733 0a.73.73 0 0 0-.366.635v3.263h-1.018a8.75 8.75 0 0 0-6.227 2.578l-4.154 4.154-4.155-4.155a8.75 8.75 0 0 0-6.225-2.577h-1.688c-.81 0-1.467.656-1.467 1.467s.657 1.467 1.467 1.467h1.688a5.83 5.83 0 0 1 4.15 1.719l4.155 4.155-4.154 4.154c-1.108 1.107-2.583 1.719-4.15 1.721h-1.688c-.81 0-1.467.656-1.467 1.467s.657 1.467 1.467 1.467h1.689c2.352-.002 4.562-.919 6.223-2.58l4.154-4.154 4.154 4.154c1.661 1.661 3.872 2.578 6.227 2.58h1.018v3.263c0 .262.14.504.366.635a.73.73 0 0 0 .367.099c.127 0 .253-.032.366-.099l8.193-4.729a.73.73 0 0 0 .367-.635c0-.262-.139-.508-.366-.638z" fill="#0074a2"/></svg>