<svg xmlns="http://www.w3.org/2000/svg" width="100" height="100" overflow="visible"><path fill="#fff" d="M19.878 99C9.469 99 1 90.532 1 80.123V2a1 1 0 0 1 1-1h78.122C90.531 1 99 9.469 99 19.878V98a1 1 0 0 1-1 1H19.878z"/><path d="M80.122 2C89.98 2 98 10.02 98 19.878V98H19.878C10.019 98 2 89.98 2 80.123V2h78.122m0-2H2a2 2 0 0 0-2 2v78.123C0 91.083 8.917 100 19.878 100H98a2 2 0 0 0 2-2V19.878C100 8.917 91.083 0 80.122 0h0zm.579 31.367H67.484V24.2c0-.81-.656-1.467-1.467-1.467H34.064c-.811 0-1.467.657-1.467 1.467v7.167H19.38c-.811 0-1.467.657-1.467 1.467v14.683c0 .81.656 1.467 1.467 1.467h13.218v7.167c0 .811.656 1.467 1.467 1.467h31.953c.811 0 1.467-.656 1.467-1.467v-7.167h13.217c.811 0 1.467-.657 1.467-1.467V32.834a1.47 1.47 0 0 0-1.468-1.467zM20.847 46.05V34.3h11.751v11.75H20.847zm58.387 0h-11.75V34.3h11.75v11.75zM50 65.25c-3.235 0-5.867 2.632-5.867 5.867s2.632 5.868 5.867 5.868 5.866-2.632 5.866-5.868S53.234 65.25 50 65.25h0zm17.603 2.934c1.621 0 2.934 1.313 2.934 2.934s-1.312 2.935-2.934 2.935-2.933-1.313-2.933-2.935a2.93 2.93 0 0 1 2.933-2.934m0-2.934c-3.234 0-5.866 2.632-5.866 5.867s2.632 5.868 5.866 5.868 5.867-2.632 5.867-5.868-2.632-5.867-5.867-5.867h0zm-35.207 2.934c1.62 0 2.933 1.313 2.933 2.934s-1.312 2.935-2.933 2.935-2.934-1.313-2.934-2.935 1.313-2.934 2.934-2.934m0-2.934c-3.235 0-5.867 2.632-5.867 5.867s2.632 5.868 5.867 5.868 5.866-2.632 5.866-5.868-2.631-5.867-5.866-5.867h0z" fill="#0074a2"/></svg>