<?xml version="1.0" encoding="UTF-8" standalone="no"?>
<!DOCTYPE svg PUBLIC "-//W3C//DTD SVG 1.1//EN" "http://www.w3.org/Graphics/SVG/1.1/DTD/svg11.dtd">
<svg xmlns="http://www.w3.org/2000/svg" version="1.1" viewBox="0.00 0.00 175.00 112.00">
<g stroke-width="2.00" fill="none" stroke-linecap="butt">
<path stroke="#eec78a" vector-effect="non-scaling-stroke" d="
  M 169.9442 18.2461
  A 7.39 7.39 0.0 0 0 162.5413 10.8690
  L 12.3016 11.1312
  A 7.39 7.39 0.0 0 0 4.9245 18.5341
  L 5.0558 93.7539
  A 7.39 7.39 0.0 0 0 12.4587 101.1310
  L 162.6984 100.8688
  A 7.39 7.39 0.0 0 0 170.0755 93.4659
  L 169.9442 18.2461"
/>
<path stroke="#bccbe4" vector-effect="non-scaling-stroke" d="
  M 96.25 18.15
  Q 96.35 18.14 96.44 18.14
  Q 96.80 18.13 96.49 17.94
  Q 96.41 17.89 96.32 17.92
  Q 96.23 17.95 96.14 17.94
  Q 85.00 17.21 74.77 18.61
  C 58.36 20.86 52.76 31.52 51.78 47.02
  A 0.25 0.25 0.0 0 0 52.03 47.29
  L 75.20 47.31
  A 0.44 0.44 0.0 0 0 75.65 46.88
  Q 75.89 41.34 76.75 35.43
  Q 78.50 23.29 90.30 19.53
  Q 93.18 18.61 96.25 18.15"
/>
<path stroke="#bccbe4" vector-effect="non-scaling-stroke" d="
  M 104.14 36.37
  C 96.97 36.05 91.43 38.54 91.19 46.67
  Q 91.17 47.31 91.81 47.31
  L 104.53 47.29
  A 0.49 0.49 0.0 0 1 105.02 47.78
  L 104.99 59.50
  A 0.48 0.48 0.0 0 1 104.50 59.98
  L 91.87 59.88
  A 0.47 0.47 0.0 0 0 91.40 60.36
  Q 91.61 67.13 91.32 73.24
  C 90.90 82.13 86.15 90.72 77.44 93.14
  Q 75.45 93.69 77.50 93.89
  Q 90.22 95.17 102.35 93.14
  Q 119.15 90.34 122.51 73.41
  Q 125.11 60.35 123.29 43.37
  C 122.09 32.06 117.43 22.86 105.51 19.65
  A 0.41 0.41 0.0 0 0 104.99 20.04
  L 105.01 35.54
  Q 105.01 36.41 104.14 36.37"
/>
<path stroke="#bccbe4" vector-effect="non-scaling-stroke" d="
  M 67.36 77.72
  Q 72.58 77.18 74.76 72.18
  C 76.16 68.99 75.53 64.16 75.63 60.48
  A 0.58 0.58 0.0 0 0 75.05 59.88
  L 52.02 59.88
  Q 51.49 59.88 51.49 60.41
  Q 51.57 68.30 53.62 76.10
  Q 56.37 86.58 66.04 91.16
  A 0.49 0.49 0.0 0 0 66.74 90.71
  L 66.70 78.45
  Q 66.70 77.79 67.36 77.72"
/>
</g>
<path fill="#dc8f14" d="
  M 175.00 16.66
  L 175.00 95.45
  Q 173.41 102.09 168.30 104.60
  Q 165.45 106.01 157.99 106.01
  Q 85.24 105.98 12.50 106.01
  Q 2.48 106.02 0.00 95.33
  L 0.00 16.55
  Q 1.54 10.05 6.55 7.48
  Q 9.47 5.98 14.14 5.98
  Q 88.22 6.04 161.23 5.94
  C 168.38 5.93 173.34 9.37 175.00 16.66
  Z
  M 169.9442 18.2461
  A 7.39 7.39 0.0 0 0 162.5413 10.8690
  L 12.3016 11.1312
  A 7.39 7.39 0.0 0 0 4.9245 18.5341
  L 5.0558 93.7539
  A 7.39 7.39 0.0 0 0 12.4587 101.1310
  L 162.6984 100.8688
  A 7.39 7.39 0.0 0 0 170.0755 93.4659
  L 169.9442 18.2461
  Z"
/>
<path fill="#ffffff" d="
  M 170.0755 93.4659
  A 7.39 7.39 0.0 0 1 162.6984 100.8688
  L 12.4587 101.1310
  A 7.39 7.39 0.0 0 1 5.0558 93.7539
  L 4.9245 18.5341
  A 7.39 7.39 0.0 0 1 12.3016 11.1312
  L 162.5413 10.8690
  A 7.39 7.39 0.0 0 1 169.9442 18.2461
  L 170.0755 93.4659
  Z
  M 96.25 18.15
  Q 96.35 18.14 96.44 18.14
  Q 96.80 18.13 96.49 17.94
  Q 96.41 17.89 96.32 17.92
  Q 96.23 17.95 96.14 17.94
  Q 85.00 17.21 74.77 18.61
  C 58.36 20.86 52.76 31.52 51.78 47.02
  A 0.25 0.25 0.0 0 0 52.03 47.29
  L 75.20 47.31
  A 0.44 0.44 0.0 0 0 75.65 46.88
  Q 75.89 41.34 76.75 35.43
  Q 78.50 23.29 90.30 19.53
  Q 93.18 18.61 96.25 18.15
  Z
  M 104.14 36.37
  C 96.97 36.05 91.43 38.54 91.19 46.67
  Q 91.17 47.31 91.81 47.31
  L 104.53 47.29
  A 0.49 0.49 0.0 0 1 105.02 47.78
  L 104.99 59.50
  A 0.48 0.48 0.0 0 1 104.50 59.98
  L 91.87 59.88
  A 0.47 0.47 0.0 0 0 91.40 60.36
  Q 91.61 67.13 91.32 73.24
  C 90.90 82.13 86.15 90.72 77.44 93.14
  Q 75.45 93.69 77.50 93.89
  Q 90.22 95.17 102.35 93.14
  Q 119.15 90.34 122.51 73.41
  Q 125.11 60.35 123.29 43.37
  C 122.09 32.06 117.43 22.86 105.51 19.65
  A 0.41 0.41 0.0 0 0 104.99 20.04
  L 105.01 35.54
  Q 105.01 36.41 104.14 36.37
  Z
  M 67.36 77.72
  Q 72.58 77.18 74.76 72.18
  C 76.16 68.99 75.53 64.16 75.63 60.48
  A 0.58 0.58 0.0 0 0 75.05 59.88
  L 52.02 59.88
  Q 51.49 59.88 51.49 60.41
  Q 51.57 68.30 53.62 76.10
  Q 56.37 86.58 66.04 91.16
  A 0.49 0.49 0.0 0 0 66.74 90.71
  L 66.70 78.45
  Q 66.70 77.79 67.36 77.72
  Z"
/>
<path fill="#7996c9" d="
  M 96.25 18.15
  Q 93.18 18.61 90.30 19.53
  Q 78.50 23.29 76.75 35.43
  Q 75.89 41.34 75.65 46.88
  A 0.44 0.44 0.0 0 1 75.20 47.31
  L 52.03 47.29
  A 0.25 0.25 0.0 0 1 51.78 47.02
  C 52.76 31.52 58.36 20.86 74.77 18.61
  Q 85.00 17.21 96.14 17.94
  Q 96.23 17.95 96.32 17.92
  Q 96.41 17.89 96.49 17.94
  Q 96.80 18.13 96.44 18.14
  Q 96.35 18.14 96.25 18.15
  Z"
/>
<path fill="#7996c9" d="
  M 105.01 35.54
  L 104.99 20.04
  A 0.41 0.41 0.0 0 1 105.51 19.65
  C 117.43 22.86 122.09 32.06 123.29 43.37
  Q 125.11 60.35 122.51 73.41
  Q 119.15 90.34 102.35 93.14
  Q 90.22 95.17 77.50 93.89
  Q 75.45 93.69 77.44 93.14
  C 86.15 90.72 90.90 82.13 91.32 73.24
  Q 91.61 67.13 91.40 60.36
  A 0.47 0.47 0.0 0 1 91.87 59.88
  L 104.50 59.98
  A 0.48 0.48 0.0 0 0 104.99 59.50
  L 105.02 47.78
  A 0.49 0.49 0.0 0 0 104.53 47.29
  L 91.81 47.31
  Q 91.17 47.31 91.19 46.67
  C 91.43 38.54 96.97 36.05 104.14 36.37
  Q 105.01 36.41 105.01 35.54
  Z"
/>
<path fill="#7996c9" d="
  M 66.70 78.45
  L 66.74 90.71
  A 0.49 0.49 0.0 0 1 66.04 91.16
  Q 56.37 86.58 53.62 76.10
  Q 51.57 68.30 51.49 60.41
  Q 51.49 59.88 52.02 59.88
  L 75.05 59.88
  A 0.58 0.58 0.0 0 1 75.63 60.48
  C 75.53 64.16 76.16 68.99 74.76 72.18
  Q 72.58 77.18 67.36 77.72
  Q 66.70 77.79 66.70 78.45
  Z"
/>
</svg>
