<svg height="72" viewBox="0 0 68 72" width="68" xmlns="http://www.w3.org/2000/svg"><g fill="none" fill-rule="evenodd" transform="translate(8 8)"><g stroke="#7e818d"><path d="m0 42.4926047v3.5677401c0 4.4509224 8.69539032 8.0603449 20.5227273 8.0603449 4.6844816 0 8.8776442-.5662222 12.2338134-1.5266866.786734-.2251466 1.5274752-.4719568 2.2177708-.7382153"/><path d="m0 30.8886346v5.1717102c0 4.4509224 8.69539032 8.0603449 20.5227273 8.0603449 3.1147823 0 6.0123466-.2503337 8.591076-.7004445" fill="#fff"/><path d="m0 21.0668787v4.2995006c0 4.3200129 8.69539032 7.8232759 20.5227273 7.8232759 11.8273369 0 20.5227272-3.503263 20.5227272-7.8232759v-4.2995006"/><path d="m0 7.5862069v7.8232759c0 4.3200129 8.69539032 7.8232758 20.5227273 7.8232758 11.8273369 0 20.5227272-3.5032629 20.5227272-7.8232758v-7.8232759" fill="#ededed"/><path d="m20.5227273 15.6465517c11.8273369 0 20.5227272-3.5032629 20.5227272-7.82327584 0-4.32001293-8.6953903-7.82327586-20.5227272-7.82327586-11.82733698 0-20.5227273 3.50326293-20.5227273 7.82327586 0 4.32001294 8.69539032 7.82327584 20.5227273 7.82327584z" fill="#ededed"/></g><circle cx="42.510876" cy="41.510876" fill="#d2ecfe" r="9.510876"/><circle cx="42.510876" cy="41.510876" r="9.510876" stroke="#7e818d"/><path d="m46.3060892 42.5050534h-7.2727273l.0522533-4" stroke="#7e818d" stroke-linecap="round" transform="matrix(.64278761 -.76604444 .76604444 .64278761 -15.786516 47.155813)"/></g></svg>