<svg height="72" viewBox="0 0 68 72" width="68" xmlns="http://www.w3.org/2000/svg"><g fill="none" fill-rule="evenodd" transform="translate(3 8)"><g stroke="#7e818d" stroke-linejoin="round"><path d="m10.3863636 45.3291667h-10.3863636v-45.3291667h61v45.3291667h-11" fill="#fff"/><path d="m0 8h61"/><path d="m4 4h2.772727"/><path d="m9 4h2.772727"/><path d="m14 4h2.772727"/></g><path d="m3 11h55v12h-55z" fill="#efefef"/><g stroke="#bdbdbd" stroke-linecap="square" transform="translate(49 15)"><path d="m.5.5 3 3"/><path d="m.5.5 3 3" transform="matrix(1 0 0 -1 0 4)"/></g><g transform="translate(16 28)"><path d="m26.78875 6.815c-.25375-.435-.725-.76137083-1.2326208-.83387083-.5436292-.07237917-1.0511292.07262083-1.4498792.39887083-.6526208.57987917-1.48625.87-2.35625.87-1.99375 0-3.625-1.63125-3.625-3.625 0-.36262083.0726208-.76137083.18125-1.0875.1451208-.5075.0726208-1.05137083-.18125-1.48637083-.2901208-.47125-.7613708-.76137084-1.2686292-.87-.7613708-.10875-1.5589916-.18112917-2.3563708-.18112917-8.01137083 0-14.5 6.48862917-14.5 14.5 0 8.0111292 6.48862917 14.5 14.5 14.5 8.0113708 0 14.5-6.4888708 14.5-14.5 0-2.71875-.7613708-5.36512083-2.21125-7.685z" fill="#d2ecfe" fill-rule="nonzero"/><g stroke="#7e818d"><path d="m26.78875 6.815c-.25375-.435-.725-.76137083-1.2326208-.83387083-.5436292-.07237917-1.0511292.07262083-1.4498792.39887083-.6526208.57987917-1.48625.87-2.35625.87-1.99375 0-3.625-1.63125-3.625-3.625 0-.36262083.0726208-.76137083.18125-1.0875.1451208-.5075.0726208-1.05137083-.18125-1.48637083-.2901208-.47125-.7613708-.76137084-1.2686292-.87-.7613708-.10875-1.5589916-.18112917-2.3563708-.18112917-8.01137083 0-14.5 6.48862917-14.5 14.5 0 8.0111292 6.48862917 14.5 14.5 14.5 8.0113708 0 14.5-6.4888708 14.5-14.5 0-2.71875-.7613708-5.36512083-2.21125-7.685z" fill-rule="nonzero"/><path d="m19 16h-8l.0574786-3" stroke-linecap="round" transform="matrix(.64278761 -.76604444 .76604444 .64278761 -5.749459 16.670246)"/></g></g></g></svg>