<svg xmlns="http://www.w3.org/2000/svg" xmlns:xlink="http://www.w3.org/1999/xlink" width="250" height="148" fill="none" xmlns:v="https://vecta.io/nano"><style><![CDATA[.B{fill:#fff}.C{fill:#718491}.D{stroke:#718491}.E{stroke-width:.406}.F{stroke:#f21197}.G{stroke:#32383c}.H{stroke-width:.5}.I{fill:#32383c}.J{stroke-width:.552}]]></style><path d="M0 0h250v148H0z" class="B"/><rect x="26.5" y="116.5" width="11" height="11" rx="5.5" fill="#ffd9f1" class="F"/><path d="M46.207 119.264l-2.432 7.236H42.07l3.188-8.531h1.09l-.141 1.295zm2.033 7.236l-2.443-7.236-.147-1.295h1.096l3.205 8.531H48.24zm-.111-3.17v1.272h-4.576v-1.272h4.576zm2.66-3.17h1.559v6.809c0 .449-.082.83-.246 1.142s-.393.549-.697.709-.678.241-1.119.241c-.137 0-.274-.008-.41-.024a2.91 2.91 0 0 1-.404-.076l.006-1.195.264.035a2.22 2.22 0 0 0 .27.017c.168 0 .309-.029.422-.088a.56.56 0 0 0 .264-.275c.063-.125.094-.287.094-.486v-6.809zm-.129-1.658c0-.231.078-.422.234-.574s.375-.229.645-.229.482.076.639.229.24.343.24.574a.75.75 0 0 1-.24.568c-.156.153-.369.229-.639.229s-.484-.076-.645-.229a.76.76 0 0 1-.234-.568zm6.615 6.65v-2.923c0-.215-.037-.401-.111-.557s-.187-.277-.34-.363-.346-.129-.58-.129c-.207 0-.389.035-.545.105a.8.8 0 0 0-.351.299c-.082.125-.123.27-.123.434h-1.553c0-.262.063-.51.188-.745s.303-.449.533-.632c.234-.188.514-.334.838-.44s.695-.158 1.102-.158c.48 0 .908.082 1.283.246s.676.402.891.727.328.732.328 1.224v2.766a4.86 4.86 0 0 0 .059.814c.043.223.105.416.188.58v.1h-1.576a2.33 2.33 0 0 1-.17-.609c-.039-.25-.059-.496-.059-.739zm.217-2.513l.012.92h-.979c-.242 0-.455.025-.639.076s-.334.117-.451.211-.205.199-.264.328-.088.267-.088.428a.84.84 0 0 0 .105.421c.074.125.18.225.316.299s.305.106.492.106a1.49 1.49 0 0 0 .715-.164c.203-.114.361-.25.475-.41s.174-.313.182-.458l.445.668c-.055.161-.137.331-.246.51s-.25.348-.422.504-.379.285-.621.387-.523.152-.844.152c-.41 0-.777-.082-1.102-.246s-.58-.389-.768-.674-.281-.609-.281-.972a2.02 2.02 0 0 1 .188-.891 1.7 1.7 0 0 1 .557-.65c.246-.18.551-.315.914-.405s.787-.14 1.26-.14h1.043zm3.949-2.479l1.131 2.016 1.148-2.016h1.682l-1.863 3.106 1.939 3.234h-1.682l-1.213-2.115-1.219 2.115h-1.682l1.934-3.234-1.852-3.106h1.676zm14.818-2.191v8.531h-1.617l-3.627-5.918v5.918h-1.611v-8.531h1.611l3.639 5.924v-5.924h1.605zm5.297 7.025v-4.834h1.559v6.34H81.65l-.094-1.506zm.199-1.312l.48-.012a4.66 4.66 0 0 1-.141 1.178c-.094.359-.24.672-.439.937a2.03 2.03 0 0 1-.744.615c-.301.145-.656.217-1.066.217a2.69 2.69 0 0 1-.855-.129c-.258-.09-.48-.228-.668-.416s-.326-.435-.428-.732-.152-.662-.152-1.084v-4.096h1.547v4.108c0 .211.023.386.07.527s.119.256.205.346.193.148.311.187.25.053.387.053c.375 0 .67-.074.885-.223a1.25 1.25 0 0 0 .469-.609c.094-.258.141-.547.141-.867zm4.271-2.221v5.039h-1.547v-6.34h1.459l.088 1.301zm-.228 1.641h-.475c0-.442.053-.848.158-1.219s.27-.694.481-.967a2.19 2.19 0 0 1 .779-.645c.313-.152.674-.228 1.084-.228.285 0 .547.043.785.129a1.53 1.53 0 0 1 .615.392c.176.176.31.407.404.692s.141.619.141 1.014v4.23h-1.547v-4.072c0-.297-.043-.53-.129-.698s-.201-.285-.357-.351a1.37 1.37 0 0 0-.562-.106c-.242 0-.451.049-.627.147a1.22 1.22 0 0 0-.428.392 1.9 1.9 0 0 0-.246.581c-.051.218-.076.455-.076.709zm3.856-.288l-.639.118c.004-.399.059-.772.164-1.12s.26-.658.463-.919c.207-.266.463-.473.768-.622s.664-.228 1.066-.228a2.48 2.48 0 0 1 .844.135 1.56 1.56 0 0 1 .65.416c.18.187.316.431.41.732s.146.668.146 1.102v4.072h-1.558v-4.078c0-.309-.043-.545-.129-.709s-.201-.277-.357-.34-.34-.1-.551-.1a1.22 1.22 0 0 0-.562.123 1.16 1.16 0 0 0-.398.329 1.51 1.51 0 0 0-.24.492 2.23 2.23 0 0 0-.076.597zm5.256-5.314h1.553v7.6l-.152 1.4h-1.4v-9zm5.631 5.766v.123c0 .472-.053.906-.158 1.3s-.256.737-.463 1.026a2.19 2.19 0 0 1-.773.668c-.305.156-.662.234-1.072.234-.391 0-.73-.076-1.02-.228s-.525-.368-.721-.645a3.57 3.57 0 0 1-.469-.99c-.117-.383-.205-.801-.264-1.254v-.334a7.46 7.46 0 0 1 .264-1.254 3.57 3.57 0 0 1 .469-.99c.195-.281.435-.498.721-.651s.621-.228 1.008-.228c.414 0 .775.08 1.084.24s.57.379.773.668.361.625.463 1.02c.105.39.158.822.158 1.295zm-1.553.123v-.123c0-.27-.021-.524-.064-.762s-.113-.455-.211-.639-.231-.328-.398-.433-.379-.159-.633-.159c-.242 0-.449.041-.621.123a1.21 1.21 0 0 0-.422.34 1.7 1.7 0 0 0-.258.51c-.059.195-.098.406-.117.633v.914a2.73 2.73 0 0 0 .193.814c.102.239.252.428.451.569s.465.211.785.211c.25 0 .459-.049.627-.147s.301-.242.398-.422.166-.396.205-.638a4.53 4.53 0 0 0 .064-.791zm5.526 3.228c-.481 0-.912-.078-1.295-.234s-.709-.373-.979-.651c-.265-.281-.47-.607-.615-.978a3.4 3.4 0 0 1-.211-1.207v-.235c0-.488.07-.931.211-1.33s.34-.748.598-1.037.566-.511.925-.668a2.96 2.96 0 0 1 1.19-.234c.449 0 .846.076 1.189.228s.631.36.862.633a2.77 2.77 0 0 1 .521.985c.117.379.176.799.176 1.259v.651h-4.969v-1.067h3.445v-.117c-.007-.246-.054-.47-.14-.674s-.219-.371-.399-.492-.412-.187-.697-.187a1.16 1.16 0 0 0-.603.152 1.21 1.21 0 0 0-.422.422 2.06 2.06 0 0 0-.246.644c-.055.25-.082.528-.082.832v.235a2.49 2.49 0 0 0 .105.738 1.77 1.77 0 0 0 .322.592c.145.164.317.293.516.387a1.69 1.69 0 0 0 .691.134 2.01 2.01 0 0 0 .879-.187c.266-.129.496-.318.692-.568l.779.808c-.133.195-.312.383-.539.563a2.76 2.76 0 0 1-.809.439c-.316.109-.681.164-1.095.164zm5.156-5.162v5.045h-1.547v-6.34h1.465l.082 1.295zm1.928-1.336l-.024 1.442c-.086-.016-.183-.028-.293-.036l-.299-.011c-.238 0-.447.033-.627.099s-.33.155-.451.276-.207.269-.269.445a1.9 1.9 0 0 0-.106.586l-.334-.041a4.82 4.82 0 0 1 .123-1.119c.082-.344.202-.645.358-.903a1.71 1.71 0 0 1 .586-.597c.238-.145.511-.217.82-.217a1.81 1.81 0 0 1 .275.023c.102.012.182.03.241.053z" fill="#546069"/><rect x="141.5" y="116.5" width="11" height="11" rx="5.5" fill="#ffd9f1" class="F"/><path d="M163.229 125.234v1.266h-4.29v-1.266h4.29zm-3.803-7.265v8.531h-1.612v-8.531h1.612zm4.488 5.426v-.124c0-.464.066-.892.199-1.283s.326-.736.58-1.025.565-.514.932-.674.785-.246 1.254-.246c.476 0 .898.082 1.266.246a2.6 2.6 0 0 1 .937.674c.254.289.447.631.58 1.025s.199.819.199 1.283v.124c0 .46-.066.888-.199 1.283s-.326.732-.58 1.025-.564.514-.932.674-.787.24-1.259.24-.889-.08-1.26-.24-.684-.385-.938-.674-.447-.635-.58-1.025-.199-.823-.199-1.283zm1.547-.124v.124c0 .277.027.537.082.779s.139.455.252.638.26.329.439.434.403.152.657.152.464-.05.644-.152a1.26 1.26 0 0 0 .44-.434c.117-.183.203-.396.257-.638s.082-.502.082-.779v-.124c0-.273-.027-.529-.082-.767s-.14-.455-.257-.639-.262-.334-.446-.439-.396-.164-.65-.164-.465.054-.645.164-.326.252-.439.439-.197.397-.252.639-.082.494-.082.767zm9.018 1.881v-2.923a1.29 1.29 0 0 0-.112-.557.8.8 0 0 0-.34-.363c-.152-.086-.345-.129-.58-.129-.207 0-.388.035-.545.105a.8.8 0 0 0-.351.299c-.082.125-.123.27-.123.434h-1.553c0-.262.063-.51.187-.745s.303-.449.534-.632c.234-.188.513-.334.838-.44a3.6 3.6 0 0 1 1.101-.158c.481 0 .908.082 1.283.246s.676.402.891.727.328.732.328 1.224v2.766c0 .316.02.588.059.814s.105.416.187.58v.1h-1.576c-.074-.16-.131-.363-.17-.609s-.058-.496-.058-.739zm.216-2.513l.012.92h-.978c-.243 0-.456.025-.639.076s-.334.117-.451.211a.85.85 0 0 0-.264.328.99.99 0 0 0-.088.428c0 .156.035.296.106.421a.8.8 0 0 0 .316.299 1.08 1.08 0 0 0 .492.106c.274 0 .512-.055.715-.164s.361-.25.475-.41.173-.313.181-.458l.446.668a2.57 2.57 0 0 1-.247.51c-.109.18-.25.348-.421.504s-.379.285-.621.387-.524.152-.844.152c-.41 0-.778-.082-1.102-.246a1.95 1.95 0 0 1-.767-.674c-.188-.285-.282-.609-.282-.972a2.02 2.02 0 0 1 .188-.891c.125-.258.31-.475.557-.65s.55-.315.914-.405.787-.14 1.259-.14h1.043zm6.539 2.513V117.5h1.559v9h-1.406l-.153-1.348zm-4.072-1.746v-.123c0-.484.055-.924.164-1.318.113-.399.278-.74.492-1.026s.475-.505.78-.662.658-.234 1.048-.234c.379 0 .709.076.991.228s.527.37.726.651.366.615.487 1.002.209.805.263 1.265v.334c-.054.45-.142.862-.263 1.237s-.284.703-.487.984-.441.492-.726.645-.619.228-1.002.228a2.23 2.23 0 0 1-1.043-.24c-.305-.16-.565-.385-.78-.674s-.373-.629-.486-1.019-.164-.817-.164-1.278zm1.553-.123v.123c0 .274.023.53.07.768s.123.449.229.633.24.32.404.422.371.152.609.152c.305 0 .555-.067.75-.199a1.35 1.35 0 0 0 .463-.557c.11-.238.18-.506.211-.803v-.92a2.54 2.54 0 0 0-.123-.65c-.062-.199-.152-.371-.269-.516a1.22 1.22 0 0 0-.422-.34 1.35 1.35 0 0 0-.598-.123c-.238 0-.441.053-.609.159a1.16 1.16 0 0 0-.41.427c-.106.184-.184.397-.235.639s-.07.504-.07.785zm9.287-5.314h1.394l2.333 6.422 2.326-6.422h1.4l-3.17 8.531h-1.119l-3.164-8.531zm-.703 0h1.365l.246 5.9v2.631h-1.611v-8.531zm7.488 0h1.371v8.531h-1.611v-2.631l.24-5.9zm2.619 5.426v-.124a3.99 3.99 0 0 1 .199-1.283c.133-.394.327-.736.581-1.025a2.6 2.6 0 0 1 .931-.674c.367-.164.785-.246 1.254-.246.477 0 .899.082 1.266.246a2.6 2.6 0 0 1 .937.674c.254.289.447.631.58 1.025s.2.819.2 1.283v.124c0 .46-.067.888-.2 1.283s-.326.732-.58 1.025a2.61 2.61 0 0 1-.931.674c-.368.16-.788.24-1.26.24s-.889-.08-1.26-.24a2.59 2.59 0 0 1-.937-.674 3.05 3.05 0 0 1-.581-1.025c-.132-.395-.199-.823-.199-1.283zm1.547-.124v.124c0 .277.027.537.082.779s.139.455.252.638a1.25 1.25 0 0 0 .44.434c.183.102.402.152.656.152s.465-.05.644-.152a1.25 1.25 0 0 0 .44-.434c.117-.183.203-.396.258-.638s.082-.502.082-.779v-.124c0-.273-.028-.529-.082-.767a2.01 2.01 0 0 0-.258-.639c-.113-.187-.262-.334-.446-.439-.179-.11-.396-.164-.65-.164s-.465.054-.644.164a1.24 1.24 0 0 0-.44.439c-.113.184-.197.397-.252.639s-.082.494-.082.767zm7.072-1.816v5.045h-1.546v-6.34h1.464l.082 1.295zm1.928-1.336l-.023 1.442c-.086-.016-.184-.028-.293-.036l-.299-.011c-.238 0-.447.033-.627.099s-.33.155-.451.276-.207.269-.27.445a1.93 1.93 0 0 0-.105.586l-.334-.041a4.82 4.82 0 0 1 .123-1.119c.082-.344.201-.645.357-.903s.352-.457.586-.597c.238-.145.512-.217.821-.217a1.83 1.83 0 0 1 .275.023c.101.012.182.03.24.053zm3.58 6.498c-.48 0-.912-.078-1.295-.234s-.709-.373-.978-.651a2.97 2.97 0 0 1-.615-.978 3.4 3.4 0 0 1-.211-1.207v-.235c0-.488.07-.931.211-1.33s.339-.748.597-1.037.567-.511.926-.668.756-.234 1.189-.234c.45 0 .846.076 1.19.228s.631.36.861.633.404.602.522.985.175.799.175 1.259v.651h-4.968v-1.067h3.445v-.117c-.008-.246-.055-.47-.141-.674s-.218-.371-.398-.492-.412-.187-.697-.187a1.16 1.16 0 0 0-.604.152c-.168.098-.308.238-.422.422a2.11 2.11 0 0 0-.246.644 3.95 3.95 0 0 0-.082.832v.235c0 .265.035.512.106.738s.181.424.322.592.316.293.516.387.433.134.691.134c.324 0 .617-.062.879-.187a1.96 1.96 0 0 0 .691-.568l.78.808a2.62 2.62 0 0 1-.539.563c-.223.179-.493.326-.809.439s-.682.164-1.096.164z" fill="#546069"/><rect x="127.276" y="20.276" width="110.448" height="87.448" rx="1.933" class="B"/><rect x="127.276" y="20.276" width="110.448" height="87.448" rx="1.933" stroke="#bbc2c7" class="J"/><rect x="154.5" y="87.5" width="57" height="17" rx=".5" class="F"/><rect x="132.173" y="24.559" width="22.788" height="27.372" rx="1.535" class="B D E"/><path d="M131.97 26.094a1.74 1.74 0 0 1 1.737-1.737h19.72a1.74 1.74 0 0 1 1.737 1.737v15.842H131.97V26.094z" class="C"/><path d="M150.513 31.218l-3.329-3.058-1.666-.288c0 .953-.844 1.728-1.93 1.728s-1.93-.776-1.93-1.728l-1.665.288-3.379 2.969 2.293 2.105 1.11-1.019v6.204h7.167v-6.094l1.061.975 2.268-2.083z" class="B"/><g class="C"><rect x="134.88" y="44.347" width="17.374" height="2.207" rx="1.104"/><rect x="140.093" y="47.659" width="6.95" height="2.207" rx="1.104"/></g><rect x="158.128" y="24.559" width="22.788" height="27.372" rx="1.535" class="B D E"/><path d="M157.925 26.094a1.74 1.74 0 0 1 1.738-1.737h19.719a1.74 1.74 0 0 1 1.737 1.737v15.842h-23.194V26.094z" class="C"/><use xlink:href="#B" class="B"/><g class="C"><rect x="160.836" y="44.347" width="17.374" height="2.207" rx="1.104"/><rect x="166.048" y="47.659" width="6.95" height="2.207" rx="1.104"/></g><rect x="184.083" y="24.559" width="22.788" height="27.372" rx="1.535" class="B D E"/><path d="M183.88 26.094a1.74 1.74 0 0 1 1.738-1.737h19.719a1.74 1.74 0 0 1 1.738 1.737v15.842H183.88V26.094z" class="C"/><use xlink:href="#C" class="B"/><g class="C"><rect x="186.791" y="44.347" width="17.374" height="2.207" rx="1.104"/><rect x="192.003" y="47.659" width="6.95" height="2.207" rx="1.104"/></g><rect x="210.039" y="24.559" width="22.788" height="27.372" rx="1.535" class="B D E"/><path d="M209.836 26.094a1.74 1.74 0 0 1 1.737-1.737h19.719a1.74 1.74 0 0 1 1.738 1.737v15.842h-23.194V26.094z" class="C"/><use xlink:href="#D" class="B"/><g class="C"><rect x="212.746" y="44.347" width="17.374" height="2.207" rx="1.104"/><rect x="217.958" y="47.659" width="6.95" height="2.207" rx="1.104"/></g><rect x="132.173" y="56.337" width="22.788" height="27.372" rx="1.535" class="B D E"/><path d="M131.97 57.872a1.74 1.74 0 0 1 1.737-1.737h19.72a1.74 1.74 0 0 1 1.737 1.737v15.842H131.97V57.872z" class="C"/><path d="M150.513 62.996l-3.329-3.058-1.666-.288c0 .953-.844 1.728-1.93 1.728s-1.93-.776-1.93-1.728l-1.665.288-3.379 2.969 2.293 2.105 1.11-1.019v6.205h7.167v-6.094l1.061.975 2.268-2.083z" class="B"/><g class="C"><rect x="134.88" y="76.125" width="17.374" height="2.207" rx="1.104"/><rect x="140.093" y="79.437" width="6.95" height="2.207" rx="1.104"/></g><rect x="158.128" y="56.337" width="22.788" height="27.372" rx="1.535" class="B D E"/><path d="M157.925 57.872a1.74 1.74 0 0 1 1.738-1.737h19.719a1.74 1.74 0 0 1 1.737 1.737v15.842h-23.194V57.872z" class="C"/><use xlink:href="#B" y="31.778" class="B"/><g class="C"><rect x="160.836" y="76.125" width="17.374" height="2.207" rx="1.104"/><rect x="166.048" y="79.437" width="6.95" height="2.207" rx="1.104"/></g><rect x="184.083" y="56.337" width="22.788" height="27.372" rx="1.535" class="B D E"/><path d="M183.88 57.872a1.74 1.74 0 0 1 1.738-1.737h19.719a1.74 1.74 0 0 1 1.738 1.737v15.842H183.88V57.872z" class="C"/><use xlink:href="#C" y="31.778" class="B"/><g class="C"><rect x="186.791" y="76.125" width="17.374" height="2.207" rx="1.104"/><rect x="192.003" y="79.437" width="6.95" height="2.207" rx="1.104"/></g><rect x="210.039" y="56.337" width="22.788" height="27.372" rx="1.535" class="B D E"/><path d="M209.836 57.872a1.74 1.74 0 0 1 1.737-1.737h19.719a1.74 1.74 0 0 1 1.738 1.737v15.842h-23.194V57.872z" class="C"/><use xlink:href="#D" y="31.778" class="B"/><g class="C"><rect x="212.746" y="76.125" width="17.374" height="2.207" rx="1.104"/><rect x="217.958" y="79.437" width="6.95" height="2.207" rx="1.104"/></g><rect x="158.25" y="90.25" width="49.5" height="11.5" rx=".75" class="G H"/><path d="M167.114 97.367V98h-2.144v-.633h2.144zm-1.901-3.633V98h-.806v-4.266h.806zm2.244 2.713v-.062c0-.232.033-.446.1-.642a1.48 1.48 0 0 1 .29-.513 1.31 1.31 0 0 1 .465-.337c.184-.082.393-.123.627-.123.239 0 .45.041.633.123s.342.192.469.337a1.48 1.48 0 0 1 .29.513c.066.195.1.409.1.642v.062a2.01 2.01 0 0 1-.1.642c-.066.195-.163.366-.29.513s-.282.257-.466.337-.393.12-.63.12-.444-.04-.63-.12-.341-.192-.468-.337-.224-.317-.29-.513-.1-.411-.1-.642zm.773-.062v.062c0 .139.014.269.041.39a1.07 1.07 0 0 0 .126.319c.057.092.13.164.22.217s.201.076.328.076.233-.025.323-.076a.63.63 0 0 0 .219-.217.98.98 0 0 0 .129-.319 1.73 1.73 0 0 0 .041-.39v-.062c0-.137-.013-.265-.041-.384a.98.98 0 0 0-.129-.319c-.056-.094-.131-.167-.222-.22s-.199-.082-.326-.082-.232.027-.322.082-.163.126-.22.22-.098.198-.126.319-.041.247-.041.384zm4.509.941v-1.462c0-.108-.018-.2-.055-.278a.41.41 0 0 0-.17-.182c-.076-.043-.173-.065-.29-.065a.66.66 0 0 0-.273.053c-.076.035-.135.085-.176.149s-.061.135-.061.217h-.776c0-.131.031-.255.093-.372s.152-.225.267-.316.257-.167.419-.22.347-.079.551-.079c.24 0 .454.041.641.123a.97.97 0 0 1 .445.363c.11.162.165.366.165.612v1.383a2.39 2.39 0 0 0 .029.407c.021.111.053.208.094.29V98h-.788c-.038-.08-.066-.182-.085-.305s-.03-.248-.03-.369zm.109-1.257l.006.46h-.49a1.2 1.2 0 0 0-.319.038c-.092.023-.167.059-.226.105a.43.43 0 0 0-.131.164.49.49 0 0 0-.044.214c0 .078.017.148.052.211s.09.112.158.149a.55.55 0 0 0 .247.053c.136 0 .255-.027.357-.082s.181-.125.237-.205a.44.44 0 0 0 .091-.229l.223.334a1.39 1.39 0 0 1-.123.255c-.055.09-.125.174-.211.252a1.08 1.08 0 0 1-.733.269 1.2 1.2 0 0 1-.55-.123.97.97 0 0 1-.384-.337c-.094-.142-.141-.305-.141-.486 0-.168.031-.316.094-.445a.85.85 0 0 1 .278-.325 1.3 1.3 0 0 1 .457-.202c.184-.047.394-.07.63-.07h.522zm3.269 1.257V93.5h.779V98h-.703l-.076-.674zm-2.036-.873v-.062c0-.242.027-.462.082-.659a1.56 1.56 0 0 1 .246-.513 1.13 1.13 0 0 1 .39-.331c.154-.078.329-.117.524-.117a1.02 1.02 0 0 1 .495.114 1.05 1.05 0 0 1 .364.325 1.76 1.76 0 0 1 .243.501c.06.191.104.402.132.633v.167c-.028.225-.072.431-.132.618s-.142.351-.243.492a1.06 1.06 0 0 1-.364.322c-.142.076-.309.114-.501.114s-.367-.04-.521-.12-.282-.192-.39-.337-.186-.315-.243-.51a2.35 2.35 0 0 1-.082-.639zm.776-.062v.062c0 .137.012.265.036.384a1.01 1.01 0 0 0 .114.316.6.6 0 0 0 .202.211.58.58 0 0 0 .305.076c.152 0 .277-.033.375-.1a.68.68 0 0 0 .231-.278c.055-.119.09-.253.106-.401v-.46c-.008-.117-.029-.226-.062-.325a.76.76 0 0 0-.135-.258c-.056-.072-.127-.129-.211-.17a.67.67 0 0 0-.298-.061.56.56 0 0 0-.305.079.58.58 0 0 0-.205.214c-.053.092-.092.198-.117.319a2.02 2.02 0 0 0-.036.393zm4.644-2.657h.697l1.166 3.211 1.163-3.211h.701L181.643 98h-.56l-1.582-4.266zm-.352 0h.683l.123 2.95V98h-.806v-4.266zm3.745 0h.685V98h-.806v-1.315l.121-2.95zm1.309 2.713v-.062c0-.232.033-.446.1-.642a1.48 1.48 0 0 1 .29-.513c.127-.144.282-.257.466-.337s.392-.123.627-.123.449.041.632.123.342.192.469.337a1.48 1.48 0 0 1 .29.513c.067.195.1.409.1.642v.062c0 .23-.033.444-.1.642s-.163.366-.29.513-.282.257-.466.337-.393.12-.63.12a1.57 1.57 0 0 1-.629-.12c-.186-.08-.342-.192-.469-.337s-.224-.317-.29-.513-.1-.411-.1-.642zm.774-.062v.062a1.73 1.73 0 0 0 .041.39 1.02 1.02 0 0 0 .126.319.62.62 0 0 0 .219.217c.092.051.201.076.328.076s.233-.025.323-.076a.62.62 0 0 0 .219-.217.98.98 0 0 0 .129-.319 1.73 1.73 0 0 0 .041-.39v-.062c0-.137-.013-.265-.041-.384a.98.98 0 0 0-.129-.319c-.056-.094-.13-.167-.222-.22s-.199-.082-.325-.082a.61.61 0 0 0-.323.082c-.09.053-.163.126-.219.22s-.099.198-.126.319-.041.247-.041.384zm3.536-.908V98h-.774v-3.17h.733l.041.647zm.964-.668l-.012.721c-.043-.008-.092-.014-.147-.018l-.149-.006c-.119 0-.224.017-.314.05s-.165.077-.225.138a.6.6 0 0 0-.135.223c-.031.086-.049.184-.053.293l-.167-.02a2.41 2.41 0 0 1 .062-.56 1.57 1.57 0 0 1 .179-.451.85.85 0 0 1 .293-.299c.119-.072.255-.108.41-.108a.86.86 0 0 1 .137.012.5.5 0 0 1 .121.026zm1.79 3.249c-.241 0-.456-.039-.648-.117s-.354-.186-.489-.325-.235-.304-.308-.489a1.71 1.71 0 0 1-.105-.604v-.117c0-.244.035-.466.105-.665s.17-.374.299-.519.283-.256.463-.334.378-.117.595-.117c.224 0 .423.038.594.114a1.15 1.15 0 0 1 .431.316 1.39 1.39 0 0 1 .261.492c.058.189.088.4.088.63v.325h-2.485v-.533h1.723v-.059c-.004-.123-.027-.235-.07-.337a.54.54 0 0 0-.2-.246c-.089-.062-.206-.094-.348-.094-.115 0-.216.025-.302.076a.61.61 0 0 0-.211.211 1.03 1.03 0 0 0-.123.322c-.027.125-.041.264-.041.416v.117c0 .133.018.256.053.369s.091.212.161.296a.78.78 0 0 0 .258.193c.101.045.217.067.345.067.163 0 .309-.031.44-.094a.98.98 0 0 0 .346-.284l.389.404c-.066.098-.156.191-.269.281a1.38 1.38 0 0 1-.405.22 1.67 1.67 0 0 1-.547.082zm3.322-1.737v-.056c0-.414.044-.79.132-1.128s.207-.638.351-.894a2.95 2.95 0 0 1 .469-.636c.17-.17.335-.292.495-.366l.152.425c-.111.084-.222.199-.334.346s-.208.323-.298.536-.162.461-.217.744-.079.605-.079.967v.067c0 .361.026.685.079.97s.127.531.217.744.189.394.298.542.223.266.334.352l-.152.413c-.16-.076-.325-.198-.495-.366s-.324-.38-.469-.636a3.81 3.81 0 0 1-.351-.891c-.088-.34-.132-.718-.132-1.134zm2.789-.284l-.618-.149.237-2.153h2.347v.642h-1.705l-.112.996a1.29 1.29 0 0 1 .264-.111 1.25 1.25 0 0 1 .396-.059c.203 0 .384.033.544.1a1.09 1.09 0 0 1 .408.281c.113.123.198.273.255.451s.087.375.087.598a1.71 1.71 0 0 1-.087.551 1.31 1.31 0 0 1-.261.454c-.117.131-.265.234-.443.311s-.386.111-.627.111a1.74 1.74 0 0 1-.524-.079c-.166-.055-.315-.134-.448-.237s-.239-.234-.32-.387-.121-.327-.128-.524h.764c.014.131.049.242.106.334s.131.162.222.211a.7.7 0 0 0 .326.073c.111 0 .207-.02.287-.062a.56.56 0 0 0 .202-.179c.053-.076.092-.166.117-.27s.038-.217.038-.34a1.14 1.14 0 0 0-.044-.325c-.029-.1-.074-.186-.135-.258a.59.59 0 0 0-.228-.167.79.79 0 0 0-.317-.059c-.162 0-.287.024-.375.073s-.162.106-.228.173zm4.104.229v.056c0 .406-.045.778-.137 1.116s-.209.636-.358.894-.306.473-.48.644-.341.296-.507.372l-.152-.413c.111-.084.221-.199.331-.346s.209-.327.299-.542a3.57 3.57 0 0 0 .216-.75c.055-.285.082-.608.082-.97v-.067c0-.361-.028-.685-.085-.97s-.128-.534-.219-.747-.193-.396-.302-.542a1.75 1.75 0 0 0-.322-.346l.152-.413a1.72 1.72 0 0 1 .507.372 2.9 2.9 0 0 1 .48.647c.149.258.268.556.358.894s.137.706.137 1.11z" class="I"/><rect x="12.276" y="20.276" width="110.448" height="87.448" rx="1.933" class="B"/><rect x="12.276" y="20.276" width="110.448" height="87.448" rx="1.933" stroke="#bbc2c7" class="J"/><rect x="40.5" y="87.5" width="54" height="17" rx=".5" class="F"/><rect x="17.173" y="24.559" width="22.788" height="27.372" rx="1.535" class="B D E"/><path d="M16.97 26.094a1.74 1.74 0 0 1 1.737-1.737h19.719a1.74 1.74 0 0 1 1.737 1.737v15.842H16.97V26.094z" class="C"/><path d="M35.514 31.218l-3.33-3.058-1.665-.288c0 .953-.845 1.728-1.93 1.728s-1.931-.776-1.931-1.728l-1.665.288-3.378 2.969 2.292 2.105 1.11-1.019v6.204h7.167v-6.094l1.062.975 2.268-2.083z" class="B"/><g class="C"><rect x="19.88" y="44.347" width="17.374" height="2.207" rx="1.104"/><rect x="25.093" y="47.659" width="6.95" height="2.207" rx="1.104"/></g><rect x="43.128" y="24.559" width="22.788" height="27.372" rx="1.535" class="B D E"/><path d="M42.925 26.094a1.74 1.74 0 0 1 1.737-1.737h19.719a1.74 1.74 0 0 1 1.737 1.737v15.842H42.925V26.094z" class="C"/><use xlink:href="#E" class="B"/><g class="C"><rect x="45.836" y="44.347" width="17.374" height="2.207" rx="1.104"/><rect x="51.048" y="47.659" width="6.95" height="2.207" rx="1.104"/></g><rect x="69.083" y="24.559" width="22.788" height="27.372" rx="1.535" class="B D E"/><path d="M68.881 26.094a1.74 1.74 0 0 1 1.737-1.737h19.719a1.74 1.74 0 0 1 1.737 1.737v15.842H68.881V26.094z" class="C"/><use xlink:href="#E" x="25.955" class="B"/><g class="C"><rect x="71.791" y="44.347" width="17.374" height="2.207" rx="1.104"/><rect x="77.003" y="47.659" width="6.95" height="2.207" rx="1.104"/></g><rect x="95.039" y="24.559" width="22.788" height="27.372" rx="1.535" class="B D E"/><path d="M94.836 26.094a1.74 1.74 0 0 1 1.737-1.737h19.719a1.74 1.74 0 0 1 1.738 1.737v15.842H94.836V26.094z" class="C"/><use xlink:href="#D" x="-115" class="B"/><g class="C"><rect x="97.746" y="44.347" width="17.374" height="2.207" rx="1.104"/><rect x="102.958" y="47.659" width="6.95" height="2.207" rx="1.104"/></g><rect x="17.173" y="56.337" width="22.788" height="27.372" rx="1.535" class="B D E"/><path d="M16.97 57.872a1.74 1.74 0 0 1 1.737-1.737h19.719a1.74 1.74 0 0 1 1.737 1.737v15.842H16.97V57.872z" class="C"/><use xlink:href="#E" x="-25.955" y="31.778" class="B"/><g class="C"><rect x="19.88" y="76.125" width="17.374" height="2.207" rx="1.104"/><rect x="25.093" y="79.437" width="6.95" height="2.207" rx="1.104"/></g><rect x="43.128" y="56.337" width="22.788" height="27.372" rx="1.535" class="B D E"/><path d="M42.925 57.872a1.74 1.74 0 0 1 1.737-1.737h19.719a1.74 1.74 0 0 1 1.737 1.737v15.842H42.925V57.872z" class="C"/><use xlink:href="#E" y="31.778" class="B"/><g class="C"><rect x="45.836" y="76.125" width="17.374" height="2.207" rx="1.104"/><rect x="51.048" y="79.437" width="6.95" height="2.207" rx="1.104"/></g><rect x="69.083" y="56.337" width="22.788" height="27.372" rx="1.535" class="B D E"/><path d="M68.881 57.872a1.74 1.74 0 0 1 1.737-1.737h19.719a1.74 1.74 0 0 1 1.737 1.737v15.842H68.881V57.872z" class="C"/><use xlink:href="#E" x="25.955" y="31.778" class="B"/><g class="C"><rect x="71.791" y="76.125" width="17.374" height="2.207" rx="1.104"/><rect x="77.003" y="79.437" width="6.95" height="2.207" rx="1.104"/></g><rect x="95.039" y="56.337" width="22.788" height="27.372" rx="1.535" class="B D E"/><path d="M94.836 57.872a1.74 1.74 0 0 1 1.737-1.737h19.719a1.74 1.74 0 0 1 1.738 1.737v15.842H94.836V57.872z" class="C"/><use xlink:href="#D" x="-115" y="31.778" class="B"/><g class="C"><rect x="97.746" y="76.125" width="17.374" height="2.207" rx="1.104"/><rect x="102.958" y="79.437" width="6.95" height="2.207" rx="1.104"/></g><rect x="46.75" y="90.25" width="11.5" height="11.5" rx=".75" class="I"/><rect x="46.75" y="90.25" width="11.5" height="11.5" rx=".75" class="G H"/><path d="M53.825 92.86v6.28h-1.14v-4.951l-1.51.499v-.921l2.521-.908h.129z" class="B"/><rect x="61.75" y="90.25" width="11.5" height="11.5" rx=".75" class="G H"/><path d="M69.658 98.256v.884h-4.192v-.757l2.011-2.173.498-.621c.122-.176.208-.334.259-.476a1.18 1.18 0 0 0 .081-.413c0-.19-.034-.356-.102-.497s-.167-.257-.298-.336-.285-.119-.472-.119a.95.95 0 0 0-.531.145c-.145.094-.255.224-.332.391a1.41 1.41 0 0 0-.111.574h-1.127c0-.366.085-.699.255-.999s.414-.546.731-.727.695-.272 1.131-.272c.425 0 .785.071 1.08.213a1.5 1.5 0 0 1 .672.595c.153.258.23.566.23.923a1.82 1.82 0 0 1-.098.587c-.065.193-.157.384-.276.574a4.99 4.99 0 0 1-.417.57l-.54.591-1.207 1.344h2.755z" class="I"/><rect x="76.75" y="90.25" width="11.5" height="11.5" rx=".75" class="G H"/><path d="M80.1 99l3-3-3-3 .6-1.2 4.2 4.2-4.2 4.2-.6-1.2z" class="I"/><path d="M216 123a4 4 0 1 0 8 0 4 4 0 1 0-8 0zm24 0v.75a.75.75 0 0 0 .75-.75H240zm0-27h.75a.75.75 0 0 0-.75-.75V96zm-27.5 0l7.5 4.33v-8.66L212.5 96zm7.5 27.75h20v-1.5h-20v1.5zm20.75-.75V96h-1.5v27h1.5zM240 95.25h-20.75v1.5H240v-1.5zM25 122a4 4 0 1 1-8 0 4 4 0 1 1 8 0zm-18 0v.75a.75.75 0 0 1-.75-.75H7zm0-25h-.75a.75.75 0 0 1 .75-.75V97zm31.5 0l-7.5 4.33v-8.66L38.5 97zM21 122.75H7v-1.5h14v1.5zM6.25 122V97h1.5v25h-1.5zM7 96.25h24.75v1.5H7v-1.5z" fill="#f21197"/><defs ><path id="B" d="M176.469 31.218l-3.33-3.058-1.665-.288c0 .953-.845 1.728-1.931 1.728s-1.93-.776-1.93-1.728l-1.665.288-3.378 2.969 2.292 2.105 1.11-1.019v6.205h7.167v-6.094l1.061.975 2.269-2.083z"/><path id="C" d="M202.424 31.218l-3.33-3.058-1.665-.288c0 .953-.845 1.728-1.931 1.728s-1.93-.776-1.93-1.728l-1.665.288-3.378 2.969 2.292 2.105 1.11-1.019v6.205h7.167v-6.094l1.062.975 2.268-2.083z"/><path id="D" d="M228.379 31.218l-3.33-3.058-1.665-.288c0 .953-.844 1.728-1.93 1.728s-1.931-.776-1.931-1.728l-1.665.288-3.378 2.969 2.292 2.105 1.11-1.019v6.205h7.167v-6.094l1.062.975 2.268-2.083z"/><path id="E" d="M61.469 31.218l-3.33-3.058-1.665-.288c0 .953-.845 1.728-1.93 1.728s-1.931-.776-1.931-1.728l-1.665.288-3.378 2.969 2.292 2.105 1.11-1.019v6.205h7.167v-6.094l1.062.975 2.268-2.083z"/></defs></svg>