<svg xmlns="http://www.w3.org/2000/svg" width="250" height="180" fill="none" xmlns:v="https://vecta.io/nano"><style><![CDATA[.B{fill:#fff}.C{fill:#718491}.D{stroke:#f21197}.E{fill-opacity:.5}.F{stroke:#fff}.G{stroke-width:1.65}.H{stroke-width:1.281}.I{stroke-width:.607}]]></style><path d="M0 0h250v180H0z" class="B"/><rect x="60.5" y="158.5" width="11" height="11" rx="5.5" fill="#ffd9f1" class="D"/><path d="M80.207 161.264l-2.432 7.236H76.07l3.188-8.531h1.09l-.141 1.295zm2.033 7.236l-2.443-7.236-.146-1.295h1.096l3.205 8.531H82.24zm-.111-3.17v1.272h-4.576v-1.272h4.576zm4.225-5.83v9h-1.553v-9h1.553zm3.24 7.477l1.389-4.817h.984l-.293 1.664-1.4 4.676h-.85l.17-1.523zm-.768-4.817l1.043 4.828.094 1.512h-.979l-1.664-6.34h1.506zm4.43 4.758l1.02-4.758h1.5l-1.652 6.34h-.979l.111-1.582zm-1.137-4.758l1.377 4.77.182 1.57h-.85l-1.412-4.676-.287-1.664h.99zm8.063 4.992v-2.923c0-.215-.037-.401-.112-.557s-.187-.277-.339-.363-.346-.129-.58-.129c-.207 0-.389.035-.545.105a.8.8 0 0 0-.352.299c-.082.125-.123.27-.123.434h-1.553c0-.262.063-.51.188-.745s.303-.449.533-.632a2.63 2.63 0 0 1 .838-.44c.328-.105.695-.158 1.102-.158.481 0 .908.082 1.283.246s.676.402.891.727.328.732.328 1.224v2.766c0 .316.02.588.059.814s.105.416.187.58v.1h-1.576c-.074-.16-.131-.363-.17-.609s-.058-.496-.058-.739zm.216-2.513l.012.92h-.978c-.242 0-.455.025-.639.076s-.334.117-.451.211-.205.199-.264.328-.088.267-.088.428.035.296.105.421.18.225.316.299.305.106.492.106a1.49 1.49 0 0 0 .715-.164 1.42 1.42 0 0 0 .475-.41c.113-.161.174-.313.181-.458l.446.668a2.62 2.62 0 0 1-.246.51 2.3 2.3 0 0 1-.422.504 2.17 2.17 0 0 1-.621.387c-.242.101-.523.152-.844.152-.41 0-.777-.082-1.102-.246s-.58-.389-.767-.674-.281-.609-.281-.972a2.02 2.02 0 0 1 .188-.891 1.7 1.7 0 0 1 .557-.65c.246-.18.551-.315.914-.405s.787-.14 1.26-.14h1.042zm4.5 3.158l1.7-5.637h1.658l-2.543 7.301a5.08 5.08 0 0 1-.229.51 2.16 2.16 0 0 1-.363.521c-.152.168-.344.305-.574.41s-.502.159-.826.159c-.141 0-.266-.01-.375-.03l-.346-.076v-1.16a1.34 1.34 0 0 0 .135.006l.14.006c.227 0 .414-.028.563-.082s.267-.135.357-.252.172-.262.235-.446l.468-1.23zm-.837-5.637l1.435 4.67.252 1.635-1.066.193-2.291-6.498h1.67zm8.431 4.606c0-.133-.035-.252-.105-.358s-.203-.201-.399-.287-.472-.174-.843-.252c-.329-.07-.631-.158-.909-.264s-.515-.232-.715-.38-.355-.33-.468-.534-.164-.445-.164-.714c0-.262.056-.508.17-.739s.277-.439.492-.615.476-.32.785-.422.656-.158 1.043-.158c.539 0 1.002.088 1.389.264s.689.418.896.726.311.649.311 1.031h-1.547c0-.168-.039-.32-.117-.457s-.19-.246-.346-.328-.354-.129-.592-.129c-.215 0-.396.036-.545.106s-.254.162-.328.275-.111.239-.111.375c0 .102.019.194.058.276a.67.67 0 0 0 .205.216c.094.067.221.127.381.182a5.42 5.42 0 0 0 .604.158c.472.094.884.219 1.236.375s.633.356.832.61.299.578.299.972c0 .282-.061.539-.182.774a1.8 1.8 0 0 1-.527.603c-.231.172-.506.307-.826.405-.321.093-.682.14-1.084.14-.582 0-1.074-.103-1.477-.31s-.707-.477-.914-.797-.31-.66-.31-1.008h1.482c.012.246.078.443.199.592s.274.256.457.322a1.85 1.85 0 0 0 .592.094c.234 0 .432-.031.592-.094s.281-.154.363-.264a.64.64 0 0 0 .123-.386z" fill="#546069"/><rect x="125.5" y="158.5" width="11" height="11" rx="5.5" fill="#ffd9f1" class="D"/><path d="M148.723 164.018v.439c0 .645-.086 1.225-.258 1.74s-.416.948-.733 1.307-.693.635-1.13.826-.924.287-1.459.287c-.528 0-1.012-.096-1.454-.287a3.25 3.25 0 0 1-1.136-.826c-.321-.359-.569-.795-.744-1.307s-.264-1.095-.264-1.74v-.439c0-.649.088-1.229.264-1.741s.421-.947.738-1.306.693-.641 1.131-.832.926-.287 1.453-.287c.535 0 1.021.095 1.459.287a3.16 3.16 0 0 1 1.131.832c.32.359.566.795.738 1.306s.264 1.092.264 1.741zm-1.629.439v-.451c0-.465-.043-.873-.129-1.225s-.213-.654-.381-.896-.375-.424-.621-.545-.524-.188-.832-.188-.59.063-.832.188-.442.303-.61.545a2.74 2.74 0 0 0-.386.896c-.086.352-.129.76-.129 1.225v.451a5.24 5.24 0 0 0 .129 1.225c.09.355.218.656.386.902s.379.426.622.551.519.187.832.187.589-.062.832-.187.445-.309.609-.551.295-.547.381-.902a5.24 5.24 0 0 0 .129-1.225zm4.394-.943v4.986h-1.547v-6.34h1.454l.093 1.354zm-.246 1.588h-.457a4.19 4.19 0 0 1 .188-1.254c.121-.375.291-.698.509-.967a2.29 2.29 0 0 1 .791-.621c.305-.145.645-.217 1.02-.217a2.49 2.49 0 0 1 .826.129c.246.086.457.223.633.41s.316.434.41.738.147.672.147 1.114v4.066h-1.559v-4.078c0-.289-.043-.518-.129-.686s-.203-.287-.363-.357-.35-.106-.58-.106c-.239 0-.448.049-.627.147s-.324.225-.446.392c-.117.168-.207.362-.269.581a2.55 2.55 0 0 0-.094.709zm14.197-1.612v1.266h-4.488v-1.266h4.488zm-4.048-3.521v8.531h-1.612v-8.531h1.612zm5.244 0v8.531h-1.612v-8.531h1.612zm1.248 5.426v-.124c0-.464.066-.892.199-1.283s.326-.736.58-1.025.565-.514.932-.674.785-.246 1.254-.246c.476 0 .898.082 1.265.246s.684.385.938.674.447.631.58 1.025.199.819.199 1.283v.124c0 .46-.066.888-.199 1.283s-.326.732-.58 1.025-.565.514-.932.674-.787.24-1.26.24-.888-.08-1.259-.24-.684-.385-.938-.674-.447-.635-.58-1.025-.199-.823-.199-1.283zm1.547-.124v.124c0 .277.027.537.082.779s.138.455.252.638a1.25 1.25 0 0 0 .439.434 1.33 1.33 0 0 0 .656.152c.25 0 .465-.05.645-.152a1.25 1.25 0 0 0 .439-.434c.118-.183.203-.396.258-.638s.082-.502.082-.779v-.124c0-.273-.027-.529-.082-.767s-.14-.455-.258-.639-.261-.334-.445-.439-.396-.164-.65-.164-.465.054-.645.164a1.24 1.24 0 0 0-.439.439c-.114.184-.198.397-.252.639s-.082.494-.082.767zm7.535 2.057l1.476-5.168h1.618l-2.174 6.34h-.985l.065-1.172zm-1.078-5.168l1.494 5.18.053 1.16h-.991l-2.179-6.34h1.623zm7.752 6.457c-.481 0-.912-.078-1.295-.234s-.709-.373-.979-.651-.47-.607-.615-.978a3.4 3.4 0 0 1-.211-1.207v-.235c0-.488.07-.931.211-1.33s.34-.748.598-1.037.566-.511.925-.668a2.96 2.96 0 0 1 1.19-.234c.449 0 .846.076 1.189.228s.631.36.862.633a2.77 2.77 0 0 1 .521.985c.117.379.176.799.176 1.259v.651h-4.969v-1.067h3.446v-.117c-.008-.246-.055-.47-.141-.674s-.219-.371-.399-.492-.412-.187-.697-.187a1.16 1.16 0 0 0-.603.152 1.21 1.21 0 0 0-.422.422 2.06 2.06 0 0 0-.246.644c-.055.25-.082.528-.082.832v.235a2.49 2.49 0 0 0 .105.738 1.77 1.77 0 0 0 .322.592c.145.164.317.293.516.387a1.69 1.69 0 0 0 .691.134 2.01 2.01 0 0 0 .879-.187c.266-.129.496-.318.692-.568l.779.808c-.133.195-.312.383-.539.563a2.76 2.76 0 0 1-.809.439c-.316.109-.681.164-1.095.164zm5.156-5.162v5.045h-1.547v-6.34h1.465l.082 1.295zm1.928-1.336l-.024 1.442c-.086-.016-.183-.028-.293-.036l-.299-.011c-.238 0-.447.033-.627.099s-.33.155-.451.276-.207.269-.269.445a1.9 1.9 0 0 0-.106.586l-.334-.041a4.82 4.82 0 0 1 .123-1.119c.082-.344.202-.645.358-.903a1.71 1.71 0 0 1 .586-.597c.238-.145.511-.217.82-.217a1.81 1.81 0 0 1 .275.023c.102.012.182.03.241.053z" fill="#546069"/><rect x="57.304" y="84.304" width="138.393" height="65.393" rx="2.125" class="B"/><rect x="57.304" y="84.304" width="138.393" height="65.393" rx="2.125" stroke="#bbc2c7" class="I"/><rect x="65.5" y="90.5" width="122" height="53" rx=".5" class="D"/><rect x="68.218" y="93.976" width="36.4" height="47.35" rx="3" fill="#d8dadb"/><path d="M101.461 113.961l-7.092-6.127-3.546-.577c0 1.909-1.799 3.463-4.112 3.463s-4.112-1.554-4.112-3.463l-3.546.577-7.195 5.949 4.882 4.218 2.364-2.042v12.431h15.264v-12.209l2.261 1.953 4.831-4.173z" class="C"/><rect x="108.3" y="93.976" width="36.4" height="47.35" rx="3" fill="#d8dadb"/><path d="M141.543 113.961l-7.092-6.127-3.546-.577c0 1.909-1.799 3.463-4.112 3.463s-4.112-1.554-4.112-3.463l-3.546.577-7.195 5.949 4.883 4.218 2.364-2.042v12.431h15.264v-12.209l2.261 1.953 4.831-4.173zm40.082 0l-7.092-6.127-3.547-.577c0 1.909-1.798 3.463-4.111 3.463s-4.112-1.554-4.112-3.463l-3.546.577-7.195 5.949 4.882 4.218 2.364-2.042v12.431h15.265v-12.209l2.261 1.953 4.831-4.173z" class="C"/><rect x="148.382" y="93.976" width="36.4" height="47.35" rx="3" fill="#000" class="E"/><g class="B F"><g class="G"><rect x="154.407" y="108.431" width="24.35" height="1.65" rx=".825"/><rect x="162.207" y="114.231" width="8.75" height="1.65" rx=".825"/></g><rect x="156.222" y="122.347" width="20.719" height="4.719" rx="1.359" class="H"/></g><rect x="161.582" y="123.706" width="10" height="2" rx="1" class="C"/><g class="B"><path d="M178.224 139.762h-2.971c-.315 0-.535-.141-.645-.393-.078-.188-.078-.392-.078-.55v-.094c-.362-.189-1.195-.754-1.195-2.059 0-.597-.157-1.65-.503-2.138-.424-.581-.11-.911 0-1.006.315-.267.896-.251 1.179.048.094.094.189.235.283.393v-2.767c0-.267.11-.534.283-.723.157-.157.346-.236.534-.236.503 0 .834.488.834.959v1.525a.67.67 0 0 1 .345-.094c.378 0 .66.282.786.613a.7.7 0 0 1 .409-.126c.456 0 .786.408.849.817.11-.063.22-.094.361-.094.503 0 .849.503.849.959v2.09c0 1.1 0 1.163-.424 1.713l-.063.079v.157c0 .252-.016.927-.833.927zm-4.826-5.941a.43.43 0 0 0-.251.079c-.095.078-.016.251.078.361.44.598.598 1.808.598 2.421 0 1.273.99 1.666 1.037 1.682.094.031.157.125.157.22v.235c0 .126 0 .268.047.362.016.063.063.11.205.11h2.97c.315 0 .346-.126.362-.456v-.251c0-.048.016-.095.047-.142l.11-.141c.33-.425.33-.425.314-1.431v-2.09c0-.189-.157-.472-.361-.472s-.346.283-.346.472c0 .126-.11.236-.236.236s-.235-.11-.235-.236v-.707c0-.189-.158-.472-.378-.472-.173 0-.345.267-.345.472 0 .125-.11.235-.236.235s-.236-.11-.236-.235v-.472c0-.189-.157-.471-.362-.471-.188 0-.345.267-.345.471 0 .126-.11.236-.236.236s-.236-.11-.236-.236v-2.389c0-.22-.157-.472-.361-.472-.079 0-.142.032-.205.095a.55.55 0 0 0-.157.377v4.291c0 .126-.094.236-.22.236-.094 0-.22-.032-.251-.236-.252-1.132-.503-1.478-.613-1.572-.095-.078-.205-.11-.315-.11z"/><path d="M173.398 133.821a.43.43 0 0 0-.251.079c-.095.078-.016.251.078.361.44.598.598 1.808.598 2.421 0 1.273.99 1.666 1.037 1.682.094.031.157.125.157.22v.235c0 .126 0 .268.047.362.016.063.063.11.205.11h2.97c.315 0 .346-.126.362-.456v-.251c0-.048.016-.095.047-.142l.11-.141c.33-.425.33-.425.314-1.431v-2.09c0-.189-.157-.472-.361-.472s-.346.283-.346.472c0 .126-.11.236-.236.236s-.235-.11-.235-.236v-.707c0-.189-.158-.472-.378-.472-.173 0-.345.267-.345.472 0 .125-.11.235-.236.235s-.236-.11-.236-.235v-.472c0-.189-.157-.471-.362-.471-.188 0-.345.267-.345.471 0 .126-.11.236-.236.236s-.236-.11-.236-.236v-2.389c0-.22-.157-.472-.361-.472-.079 0-.142.032-.205.095a.55.55 0 0 0-.157.377v4.291c0 .126-.094.236-.22.236-.094 0-.22-.032-.251-.236-.252-1.132-.503-1.478-.613-1.572-.095-.078-.205-.11-.315-.11z"/><rect x="57.304" y="10.304" width="138.393" height="65.393" rx="2.125"/></g><rect x="57.304" y="10.304" width="138.393" height="65.393" rx="2.125" stroke="#bbc2c7" class="I"/><rect x="65.5" y="16.5" width="122" height="53" rx=".5" class="D"/><path d="M101.461 39.961l-7.092-6.127-3.546-.577c0 1.909-1.799 3.463-4.112 3.463S82.6 35.166 82.6 33.257l-3.546.577-7.195 5.949 4.882 4.218 2.364-2.042V54.39h15.264V42.181l2.261 1.953 4.831-4.173z" class="C"/><rect x="68.218" y="19.976" width="36.4" height="47.35" rx="3" fill="#000" class="E"/><g class="B F"><g class="G"><rect x="74.243" y="34.431" width="24.35" height="1.65" rx=".825"/><rect x="82.043" y="40.231" width="8.75" height="1.65" rx=".825"/></g><rect x="76.059" y="48.347" width="20.719" height="4.719" rx="1.359" class="H"/></g><g class="C"><rect x="81.418" y="49.706" width="10" height="2" rx="1"/><path d="M141.543 39.961l-7.092-6.127-3.546-.577c0 1.909-1.799 3.463-4.112 3.463s-4.112-1.554-4.112-3.463l-3.546.577-7.195 5.949 4.883 4.218 2.364-2.042V54.39h15.264V42.181l2.261 1.953 4.831-4.173z"/></g><rect x="108.3" y="19.976" width="36.4" height="47.35" rx="3" fill="#000" class="E"/><g class="B F"><g class="G"><rect x="114.325" y="34.431" width="24.35" height="1.65" rx=".825"/><rect x="122.125" y="40.231" width="8.75" height="1.65" rx=".825"/></g><rect x="116.141" y="48.347" width="20.719" height="4.719" rx="1.359" class="H"/></g><g class="C"><rect x="121.5" y="49.706" width="10" height="2" rx="1"/><path d="M181.625 39.961l-7.092-6.127-3.547-.577c0 1.909-1.798 3.463-4.111 3.463s-4.112-1.554-4.112-3.463l-3.546.577-7.195 5.949 4.882 4.218 2.364-2.042V54.39h15.265V42.181l2.261 1.953 4.831-4.173z"/></g><rect x="148.382" y="19.976" width="36.4" height="47.35" rx="3" fill="#000" class="E"/><g class="B F"><g class="G"><rect x="154.407" y="34.431" width="24.35" height="1.65" rx=".825"/><rect x="162.207" y="40.231" width="8.75" height="1.65" rx=".825"/></g><rect x="156.222" y="48.347" width="20.719" height="4.719" rx="1.359" class="H"/></g><rect x="161.582" y="49.706" width="10" height="2" rx="1" class="C"/><path d="M193 164a4 4 0 1 0 8 0 4 4 0 1 0-8 0zm42 0v.75a.75.75 0 0 0 .75-.75H235zm0-54h.75a.75.75 0 0 0-.75-.75v.75zm-49.5 0l7.5 4.33v-8.66l-7.5 4.33zm11.5 54.75h38v-1.5h-38v1.5zm38.75-.75v-54h-1.5v54h1.5zm-.75-54.75h-42.75v1.5H235v-1.5zM58.5 164a4 4 0 1 1-8 0 4 4 0 1 1 8 0zm-41 0v.75a.75.75 0 0 1-.75-.75h.75zm0-118h-.75a.75.75 0 0 1 .75-.75V46zM67 46l-7.5 4.33v-8.66L67 46zM54.5 164.75h-37v-1.5h37v1.5zM16.75 164V46h1.5v118h-1.5zm.75-118.75h42.75v1.5H17.5v-1.5z" fill="#f21197"/></svg>