<svg xmlns="http://www.w3.org/2000/svg" width="250" height="161" fill="none" xmlns:v="https://vecta.io/nano"><style><![CDATA[.B{fill:#fff}.C{fill:#718491}.D{stroke:#718491}.E{stroke-width:.813}]]></style><path d="M0 0h250v161H0z" class="B"/><rect x="87" y="130.5" width="11" height="11" rx="5.5" fill="#ffd9f1" stroke="#f21197"/><path d="M107.779 138.285c0-.164-.025-.31-.076-.439s-.135-.252-.264-.358-.302-.215-.533-.316-.519-.215-.879-.328c-.398-.125-.769-.266-1.113-.422s-.646-.338-.908-.545-.459-.445-.604-.715-.216-.59-.216-.949c0-.352.074-.672.222-.961a2.21 2.21 0 0 1 .645-.744 3.07 3.07 0 0 1 .978-.487c.379-.113.797-.169 1.254-.169.633 0 1.18.115 1.641.345s.824.543 1.078.938.381.838.381 1.33h-1.606a1.41 1.41 0 0 0-.17-.703c-.109-.203-.277-.364-.504-.481s-.503-.176-.843-.176c-.328 0-.602.049-.821.147a1.11 1.11 0 0 0-.486.398 1.04 1.04 0 0 0-.158.563c0 .156.037.297.111.422s.186.236.334.345a2.92 2.92 0 0 0 .551.299l.773.27c.469.14.879.297 1.231.469s.65.367.885.586.416.464.533.738.181.584.181.931c0 .368-.072.696-.216.985a2.09 2.09 0 0 1-.621.738 2.88 2.88 0 0 1-.973.463 4.67 4.67 0 0 1-1.26.158c-.414 0-.824-.055-1.23-.164a3.72 3.72 0 0 1-1.096-.504 2.56 2.56 0 0 1-.785-.855c-.195-.348-.293-.754-.293-1.219h1.617c0 .27.043.5.129.691s.215.342.375.463.355.203.574.258.455.082.709.082c.328 0 .598-.045.809-.135s.375-.222.48-.386c.11-.164.164-.352.164-.563zm6.235.867v-2.923c0-.215-.037-.401-.112-.557a.8.8 0 0 0-.34-.363c-.152-.086-.345-.129-.58-.129-.207 0-.388.035-.544.105a.8.8 0 0 0-.352.299c-.082.125-.123.27-.123.434h-1.553c0-.262.063-.51.188-.745s.302-.449.533-.632.514-.334.838-.44a3.6 3.6 0 0 1 1.101-.158c.481 0 .909.082 1.284.246a1.95 1.95 0 0 1 .89.727c.219.324.328.732.328 1.224v2.766c0 .316.02.588.059.814s.105.416.187.58v.1h-1.576c-.074-.16-.131-.363-.17-.609s-.058-.496-.058-.739zm.216-2.513l.012.92h-.978c-.243 0-.455.025-.639.076s-.334.117-.451.211a.86.86 0 0 0-.264.328c-.058.125-.088.267-.088.428s.035.296.106.421a.8.8 0 0 0 .316.299 1.08 1.08 0 0 0 .492.106c.274 0 .512-.055.715-.164.203-.114.361-.25.475-.41s.174-.313.181-.458l.446.668a2.62 2.62 0 0 1-.246.51 2.3 2.3 0 0 1-.422.504c-.172.156-.379.285-.621.387s-.524.152-.844.152a2.41 2.41 0 0 1-1.102-.246 1.95 1.95 0 0 1-.767-.674c-.188-.285-.281-.609-.281-.972a2.02 2.02 0 0 1 .187-.891 1.7 1.7 0 0 1 .557-.65c.246-.18.55-.315.914-.405s.787-.14 1.26-.14h1.042zm4.377-5.139v9h-1.552v-9h1.552zm4.325 9.117c-.481 0-.912-.078-1.295-.234s-.709-.373-.979-.651-.47-.607-.615-.978a3.4 3.4 0 0 1-.211-1.207v-.235c0-.488.07-.931.211-1.33s.34-.748.598-1.037.566-.511.925-.668a2.96 2.96 0 0 1 1.19-.234c.449 0 .846.076 1.189.228s.631.36.862.633a2.77 2.77 0 0 1 .521.985c.117.379.176.799.176 1.259v.651h-4.969v-1.067h3.445v-.117c-.007-.246-.054-.47-.14-.674s-.219-.371-.399-.492-.412-.187-.697-.187c-.23 0-.432.05-.603.152a1.21 1.21 0 0 0-.422.422 2.06 2.06 0 0 0-.246.644c-.055.25-.082.528-.082.832v.235a2.49 2.49 0 0 0 .105.738 1.77 1.77 0 0 0 .322.592c.145.164.317.293.516.387a1.69 1.69 0 0 0 .691.134 2.01 2.01 0 0 0 .879-.187c.266-.129.496-.318.692-.568l.779.808a2.62 2.62 0 0 1-.539.563 2.76 2.76 0 0 1-.809.439c-.316.109-.681.164-1.095.164zm9.984-3.92h-2.18l-.011-1.136h1.869c.32 0 .588-.045.802-.135a1.03 1.03 0 0 0 .487-.393c.113-.172.17-.381.17-.627 0-.273-.053-.496-.158-.668s-.262-.297-.481-.375-.496-.123-.832-.123h-1.324v7.26h-1.612v-8.531h2.936c.484 0 .916.047 1.295.14s.707.231.973.422.466.432.603.721.211.633.211 1.031a1.98 1.98 0 0 1-.246.973c-.16.293-.408.531-.744.715s-.754.289-1.266.316l-.492.41zm-.07 3.803h-2.584l.674-1.266h1.91c.32 0 .584-.052.791-.158a1.05 1.05 0 0 0 .468-.433 1.29 1.29 0 0 0 .159-.645c0-.266-.047-.496-.141-.691a.95.95 0 0 0-.434-.452c-.195-.105-.453-.158-.773-.158h-1.676l.012-1.136h2.133l.369.439c.492.004.892.102 1.201.293s.543.437.691.738a2.16 2.16 0 0 1 .223.973c0 .547-.119 1.006-.357 1.377s-.578.65-1.032.838c-.449.187-.994.281-1.634.281zm7.793-1.348v-2.923c0-.215-.037-.401-.112-.557s-.187-.277-.339-.363-.346-.129-.581-.129c-.207 0-.388.035-.545.105a.8.8 0 0 0-.351.299c-.082.125-.123.27-.123.434h-1.553c0-.262.063-.51.188-.745s.302-.449.533-.632.514-.334.838-.44a3.6 3.6 0 0 1 1.101-.158c.481 0 .909.082 1.284.246a1.95 1.95 0 0 1 .89.727c.219.324.328.732.328 1.224v2.766c0 .316.02.588.059.814s.105.416.187.58v.1h-1.576c-.074-.16-.131-.363-.17-.609s-.058-.496-.058-.739zm.216-2.513l.012.92h-.978c-.243 0-.455.025-.639.076s-.334.117-.451.211a.86.86 0 0 0-.264.328c-.058.125-.088.267-.088.428s.035.296.106.421a.8.8 0 0 0 .316.299 1.08 1.08 0 0 0 .492.106c.274 0 .512-.055.715-.164.203-.114.362-.25.475-.41s.174-.313.181-.458l.446.668a2.62 2.62 0 0 1-.246.51 2.3 2.3 0 0 1-.422.504c-.172.156-.379.285-.621.387s-.524.152-.844.152a2.41 2.41 0 0 1-1.102-.246 1.95 1.95 0 0 1-.767-.674c-.188-.285-.281-.609-.281-.972a2.02 2.02 0 0 1 .187-.891 1.7 1.7 0 0 1 .557-.65c.246-.18.55-.315.914-.405s.787-.14 1.259-.14h1.043zm6.54 2.513V131.5h1.558v9h-1.406l-.152-1.348zm-4.073-1.746v-.123c0-.484.055-.924.164-1.318.114-.399.278-.74.493-1.026s.474-.505.779-.662a2.29 2.29 0 0 1 1.049-.234 2.05 2.05 0 0 1 .99.228c.285.153.527.37.726.651.204.281.366.615.487 1.002s.209.805.263 1.265v.334c-.054.45-.142.862-.263 1.237a3.48 3.48 0 0 1-.487.984c-.199.277-.441.492-.726.645s-.619.228-1.002.228-.734-.08-1.043-.24a2.29 2.29 0 0 1-.779-.674c-.211-.289-.373-.629-.487-1.019-.109-.391-.164-.817-.164-1.278zm1.553-.123v.123c0 .274.023.53.07.768s.123.449.229.633.24.32.404.422.371.152.61.152c.304 0 .554-.067.75-.199s.353-.323.462-.557.18-.506.211-.803v-.92a2.54 2.54 0 0 0-.123-.65c-.062-.199-.152-.371-.269-.516a1.22 1.22 0 0 0-.422-.34 1.35 1.35 0 0 0-.598-.123c-.238 0-.441.053-.609.159a1.16 1.16 0 0 0-.41.427c-.106.184-.184.397-.235.639s-.07.504-.07.785zm9.51-3.123h1.406v6.147c0 .574-.125 1.06-.375 1.459s-.592.707-1.037.914-.963.316-1.553.316c-.254 0-.529-.035-.826-.105a3.39 3.39 0 0 1-.85-.334 2.11 2.11 0 0 1-.673-.58l.697-.915a2.13 2.13 0 0 0 .715.557 1.94 1.94 0 0 0 .861.193c.312 0 .578-.058.797-.175s.392-.282.51-.504.181-.488.181-.809v-4.717l.147-1.447zm-4.283 3.246v-.123c0-.484.058-.924.175-1.318s.285-.74.504-1.026.49-.505.803-.662.672-.234 1.066-.234c.418 0 .77.076 1.055.228s.527.37.715.651.34.615.445 1.002.194.805.252 1.265v.334c-.055.45-.142.862-.263 1.237s-.274.703-.469.984-.438.492-.727.645-.629.228-1.019.228a2.28 2.28 0 0 1-1.055-.24c-.313-.16-.58-.385-.803-.674s-.386-.629-.504-1.019-.175-.817-.175-1.278zm1.546-.123v.123c0 .274.028.53.082.768s.139.449.252.633.256.32.428.422.377.152.615.152c.321 0 .582-.067.786-.199a1.28 1.28 0 0 0 .468-.557c.11-.238.18-.506.211-.803v-.92c-.019-.234-.062-.451-.129-.65a1.61 1.61 0 0 0-.263-.516 1.19 1.19 0 0 0-.434-.34c-.176-.082-.385-.123-.627-.123-.234 0-.439.053-.615.159a1.23 1.23 0 0 0-.434.427c-.113.184-.199.397-.258.639s-.082.504-.082.785zm8.385 3.334c-.48 0-.912-.078-1.295-.234s-.709-.373-.978-.651a2.97 2.97 0 0 1-.615-.978 3.4 3.4 0 0 1-.211-1.207v-.235c0-.488.07-.931.211-1.33s.339-.748.597-1.037.567-.511.926-.668.756-.234 1.189-.234c.45 0 .846.076 1.19.228s.631.36.861.633.404.602.522.985.175.799.175 1.259v.651h-4.968v-1.067h3.445v-.117c-.008-.246-.055-.47-.141-.674s-.218-.371-.398-.492-.412-.187-.697-.187a1.16 1.16 0 0 0-.604.152c-.168.098-.308.238-.422.422a2.11 2.11 0 0 0-.246.644 3.95 3.95 0 0 0-.082.832v.235c0 .265.035.512.106.738s.181.424.322.592.316.293.516.387.433.134.691.134c.324 0 .617-.062.879-.187a1.96 1.96 0 0 0 .691-.568l.78.808a2.62 2.62 0 0 1-.539.563c-.223.179-.493.326-.809.439s-.682.164-1.096.164z" fill="#546069"/><rect x="19.5" y="20.5" width="211" height="97" rx="3.5" class="B"/><rect x="19.5" y="20.5" width="211" height="97" rx="3.5" stroke="#bbc2c7"/><rect x="29.402" y="31.501" width="59.147" height="74.997" rx="3.074" class="B D E"/><path d="M28.995 34.576a3.48 3.48 0 0 1 3.481-3.481h52.999a3.48 3.48 0 0 1 3.481 3.481v41.965h-59.96V34.576z" class="C"/><mask id="A" maskUnits="userSpaceOnUse" x="28" y="31" width="61" height="46" mask-type="alpha"><path d="M28.995 34.576a3.48 3.48 0 0 1 3.481-3.481h52.999a3.48 3.48 0 0 1 3.481 3.481v41.965h-59.96V34.576z" class="C"/></mask><g mask="url(#A)"><path d="M46.01 22.188a3.48 3.48 0 0 1 4.904-.429l1.229 1.031a3.48 3.48 0 0 1 .429 4.904L25.444 60.023l-6.562-5.506 27.128-32.33z" fill="#32383c"/></g><path d="M76.933 48.834l-8.608-7.905-4.304-.745c0 2.463-2.183 4.468-4.991 4.468s-4.99-2.005-4.99-4.468l-4.304.745-8.733 7.676 5.926 5.442 2.869-2.635v16.04h18.527V51.698l2.745 2.52 5.864-5.385z" class="B"/><g class="C"><rect x="37.776" y="84.774" width="42.4" height="5" rx="2.5"/><rect x="50.476" y="93.774" width="17" height="5" rx="2.5"/></g><g class="B"><path d="M32.108 45.359l.108.092c.173.148.308.305.406.469a1.35 1.35 0 0 1 .182.5c.023.168.009.333-.042.495s-.136.314-.26.458-.26.252-.413.327a1.16 1.16 0 0 1-.483.118c-.171.003-.346-.03-.525-.1s-.353-.181-.526-.329l-.108-.092c-.174-.149-.309-.306-.406-.469s-.158-.331-.182-.5-.009-.335.04-.497.137-.315.259-.458.261-.253.413-.327a1.12 1.12 0 0 1 .484-.116 1.33 1.33 0 0 1 .523.101c.178.069.353.178.527.327zm-.298.566l-.111-.095c-.121-.104-.237-.184-.347-.24a.91.91 0 0 0-.314-.101.55.55 0 0 0-.274.036c-.085.034-.161.09-.229.169s-.112.163-.132.253-.018.179.008.275.077.193.15.294a1.82 1.82 0 0 0 .291.306l.111.095c.12.103.236.183.347.24s.216.091.316.103a.57.57 0 0 0 .276-.035c.085-.034.161-.09.229-.169a.59.59 0 0 0 .132-.252c.02-.089.017-.181-.01-.277s-.078-.194-.151-.295-.171-.203-.291-.306zm1.089-3.685l2.276 1.949-.402.469-2.309-.392 1.526 1.307-.402.469-2.276-1.949.402-.469 2.312.392-1.527-1.308.4-.467zm3.727-.951c-.041-.035-.082-.06-.125-.075s-.092-.021-.147-.012-.122.03-.199.065-.17.087-.279.154c-.122.075-.243.141-.364.197s-.238.096-.354.119a.86.86 0 0 1-.337-.002.71.71 0 0 1-.309-.161.7.7 0 0 1-.204-.283.78.78 0 0 1-.05-.346c.008-.123.041-.249.098-.377a1.59 1.59 0 0 1 .245-.378c.144-.168.299-.288.467-.362s.333-.099.498-.078a.84.84 0 0 1 .451.205l-.399.466c-.067-.057-.137-.093-.211-.108s-.15-.009-.227.022-.151.088-.223.172a.64.64 0 0 0-.137.235c-.023.075-.024.144-.006.206a.32.32 0 0 0 .103.159c.038.033.081.053.129.061s.102.003.163-.012.126-.041.199-.077a2.7 2.7 0 0 0 .238-.135 2.74 2.74 0 0 1 .406-.218c.128-.055.249-.089.361-.102s.22-.005.322.026.199.087.293.167a.78.78 0 0 1 .216.285c.045.105.064.218.055.337s-.042.242-.1.367-.141.25-.248.375c-.096.113-.206.211-.329.295a1.33 1.33 0 0 1-.392.182c-.136.037-.274.042-.413.015s-.273-.096-.401-.206l.403-.471a.58.58 0 0 0 .208.121c.068.02.134.023.198.01s.128-.044.189-.088.121-.1.178-.167c.07-.081.115-.158.137-.23s.024-.139.005-.199-.053-.113-.104-.157zm.176-2.819l1.357 2.235-.427.499-1.552-2.795.272-.317.35.379zm2.327 1.102l-2.418-.995-.432-.283.275-.32 3.004 1.099-.428.5zm-.871-.697l.367.315-1.03 1.202-.367-.315 1.03-1.202zm2.368-1.79l.366.313-.981 1.146-.366-.313.981-1.146zm-2.762-.642l2.276 1.949-.402.469-2.276-1.949.402-.469zm4.3-1.154l.366.313-1.038 1.211-.366-.313 1.038-1.212zm-2.817-.578l2.276 1.949-.402.469-2.276-1.949.402-.469zm1.698-.106l.356.305-.902 1.054-.356-.305.902-1.054zm-.793-.95l.367.315-1.036 1.21-.367-.315 1.036-1.21zm.647-.755l1.536 1.405-.321.375-1.626-1.3.411-.48zm1.648 2.265c-.067-.057-.102-.127-.107-.211s.026-.166.091-.242.141-.119.225-.127.158.016.225.073a.29.29 0 0 1 .105.209c.006.084-.025.165-.091.242s-.14.118-.225.127a.29.29 0 0 1-.223-.072z"/><rect x="95.426" y="31.501" width="59.147" height="74.997" rx="3.074" class="D E"/></g><path d="M95.02 34.576a3.48 3.48 0 0 1 3.481-3.481h52.998a3.48 3.48 0 0 1 3.481 3.481v41.965H95.02V34.576z" class="C"/><path d="M142.958 48.834l-8.609-7.905-4.304-.745c0 2.463-2.184 4.468-4.991 4.468s-4.99-2.005-4.99-4.468l-4.304.745-8.734 7.676 5.926 5.442 2.87-2.635v16.04h18.527V51.698l2.745 2.52 5.864-5.385z" class="B"/><g class="C"><rect x="103.801" y="84.774" width="42.4" height="5" rx="2.5"/><rect x="116.501" y="93.774" width="17" height="5" rx="2.5"/></g><rect x="161.451" y="31.501" width="59.147" height="74.997" rx="3.074" class="B D E"/><path d="M161.045 34.576a3.48 3.48 0 0 1 3.481-3.481h52.998a3.48 3.48 0 0 1 3.481 3.481v41.965h-59.96V34.576z" class="C"/><mask id="B" maskUnits="userSpaceOnUse" x="161" y="31" width="61" height="46" mask-type="alpha"><path d="M221.005 34.576a3.48 3.48 0 0 0-3.481-3.481h-52.998a3.48 3.48 0 0 0-3.481 3.481v41.965h59.96V34.576z" class="C"/></mask><g mask="url(#B)"><path d="M203.99 22.188a3.48 3.48 0 0 0-4.904-.429l-1.229 1.031a3.48 3.48 0 0 0-.429 4.904l27.128 32.329 6.561-5.506-27.127-32.33z" fill="#32383c"/></g><path d="M208.982 48.834l-8.608-7.905-4.304-.745c0 2.463-2.184 4.468-4.991 4.468s-4.99-2.005-4.99-4.468l-4.305.745-8.733 7.676 5.926 5.442 2.87-2.635v16.04h18.527V51.698l2.745 2.52 5.863-5.385z" class="B"/><g class="C"><rect x="169.825" y="84.774" width="42.4" height="5" rx="2.5"/><rect x="182.525" y="93.774" width="17" height="5" rx="2.5"/></g><path d="M208.449 34.237l-.084.073c-.142.124-.287.216-.435.276a1.09 1.09 0 0 1-.435.087.96.96 0 0 1-.406-.094c-.128-.061-.244-.151-.348-.27s-.178-.247-.223-.382-.057-.276-.04-.418.064-.282.143-.42.189-.27.332-.394l.083-.073a1.56 1.56 0 0 1 .435-.276c.149-.06.294-.09.436-.088a.96.96 0 0 1 .407.096c.129.061.246.151.35.271s.178.247.221.383a.94.94 0 0 1 .04.415 1.12 1.12 0 0 1-.144.421c-.079.139-.19.27-.332.394zm-.454-.35l.086-.075c.096-.083.172-.165.23-.246a.75.75 0 0 0 .12-.237.43.43 0 0 0 .006-.219.45.45 0 0 0-.288-.329c-.066-.025-.138-.033-.216-.022s-.161.041-.249.089a1.51 1.51 0 0 0-.274.196l-.086.075a1.51 1.51 0 0 0-.231.245.78.78 0 0 0-.12.237c-.022.077-.026.15-.01.22s.052.138.107.201a.45.45 0 0 0 .181.128c.068.026.141.033.22.021a.75.75 0 0 0 .249-.089c.089-.047.181-.112.275-.195zm2.471.85l.366.419-1.23 1.075c-.146.127-.295.204-.449.229s-.302.007-.448-.058-.281-.169-.406-.312a1.19 1.19 0 0 1-.257-.447.78.78 0 0 1 0-.454c.046-.149.141-.287.287-.414l1.23-1.075.368.421-1.23 1.075a.63.63 0 0 0-.167.209c-.029.069-.035.137-.018.205s.054.133.111.198a.48.48 0 0 0 .18.136c.064.025.132.027.203.006s.149-.067.23-.137l1.23-1.075zm1.391 1.592l-1.874 1.637-.365-.418 1.873-1.637.366.418zm.498.57l-.325.285-1.352-1.547.325-.285 1.352 1.547zm.161 2.968a.32.32 0 0 0 .073-.088c.018-.032.026-.07.026-.113a.63.63 0 0 0-.028-.162c-.018-.065-.047-.144-.088-.238a3.38 3.38 0 0 1-.118-.322c-.031-.106-.049-.209-.054-.309s.008-.194.039-.282.09-.167.173-.239.167-.115.262-.136.193-.02.294.004.202.067.301.132.195.148.285.25a1.12 1.12 0 0 1 .243.426.76.76 0 0 1 .01.422c-.036.134-.111.251-.226.352l-.364-.417c.05-.044.086-.094.105-.149s.025-.114.01-.176-.05-.124-.105-.187a.51.51 0 0 0-.164-.131c-.054-.026-.107-.035-.157-.029s-.094.027-.131.06a.21.21 0 0 0-.063.095c-.009.037-.012.08-.007.129s.02.104.04.165.047.128.08.2c.056.128.098.248.127.359s.043.216.041.312-.023.184-.062.265-.095.156-.173.224c-.084.073-.172.121-.265.145s-.187.026-.286.005a.85.85 0 0 1-.29-.127 1.38 1.38 0 0 1-.281-.251 1.43 1.43 0 0 1-.208-.311c-.056-.113-.091-.23-.105-.349s-.002-.233.038-.346a.75.75 0 0 1 .223-.311l.366.419c-.056.05-.097.1-.122.15s-.036.101-.034.152a.38.38 0 0 0 .047.157.82.82 0 0 0 .113.16c.054.063.107.106.158.129s.102.032.15.023.09-.029.127-.062zm2.724.332l-1.874 1.638-.365-.418 1.873-1.638.366.418zm.498.57l-.325.285-1.352-1.547.325-.284 1.352 1.547zm.619 2.516l-.083.073a1.56 1.56 0 0 1-.435.276 1.09 1.09 0 0 1-.435.087.96.96 0 0 1-.407-.094c-.127-.061-.243-.151-.347-.27a1.08 1.08 0 0 1-.223-.382c-.043-.136-.057-.276-.041-.418s.065-.282.143-.42.19-.27.332-.394l.084-.073c.142-.124.287-.216.435-.276s.294-.09.436-.088.278.034.406.096.246.151.35.271.178.247.222.383.057.273.04.414-.065.282-.145.422-.189.27-.332.394zm-.453-.35l.086-.075c.095-.083.172-.165.23-.246s.098-.16.12-.237a.43.43 0 0 0 .006-.219.45.45 0 0 0-.104-.197c-.056-.064-.117-.108-.184-.132s-.138-.033-.216-.022a.79.79 0 0 0-.25.089c-.087.047-.178.113-.273.196l-.087.075c-.094.082-.171.164-.231.245s-.097.16-.12.236-.025.15-.01.22.053.138.108.201a.44.44 0 0 0 .401.149c.079-.012.162-.041.249-.089a1.5 1.5 0 0 0 .275-.195zm1.27 1.99l.364.417a.91.91 0 0 1-.433.193c-.153.023-.306.003-.459-.06s-.295-.172-.43-.326c-.107-.123-.182-.251-.225-.385s-.054-.268-.035-.404a1.1 1.1 0 0 1 .149-.403c.081-.133.191-.26.331-.382l.115-.1c.139-.122.281-.214.425-.274s.285-.091.424-.091.271.029.397.088a1.05 1.05 0 0 1 .344.267c.14.16.229.319.267.479a.83.83 0 0 1-.014.462c-.047.149-.129.285-.248.41l-.365-.418a.63.63 0 0 0 .148-.202c.029-.068.035-.139.018-.211a.58.58 0 0 0-.135-.232.47.47 0 0 0-.172-.129c-.061-.025-.128-.032-.202-.021s-.152.043-.237.092-.177.116-.277.203l-.117.102a1.94 1.94 0 0 0-.239.243c-.061.076-.102.148-.125.218s-.024.138-.008.204.054.131.111.196c.065.075.131.127.198.156s.136.036.208.02.145-.053.222-.112zm2.18-.019l-1.874 1.638-.366-.419 1.873-1.638.367.419zm.978 1.119l-1.578.085-.836-.022.323-.417.651-.071.99-.09.45.515zm-2.298 1.151l.403-1.265.527.102-.496 1.66-.434-.497z" class="B"/><path d="M83 136a4 4 0 1 1-8 0 4 4 0 1 1 8 0zm-67 0v.75a.75.75 0 0 1-.75-.741L16 136zm-1-87l-.75.009a.75.75 0 0 1 .75-.759V49zm13.5 0L21 53.33v-8.66L28.5 49zM79 136.75H16v-1.5h63v1.5zm-63.75-.741l-1-87 1.5-.017 1 87-1.5.018zM15 48.25h6.75v1.5H15v-1.5z" fill="#f21197"/></svg>