<svg xmlns="http://www.w3.org/2000/svg" width="250" height="180" fill="none" xmlns:v="https://vecta.io/nano"><style><![CDATA[.B{fill:#fff}.C{fill:#718491}.D{stroke-width:.607}.E{stroke:#718491}]]></style><path d="M0 0h250v180H0z" class="B"/><rect x="49.5" y="152.5" width="11" height="11" rx="5.5" fill="#ffd9f1" stroke="#f21197"/><path d="M71.469 161.234v1.266h-4.535v-1.266h4.535zm-4.043-7.265v8.531h-1.611v-8.531h1.611zm3.451 3.521v1.237h-3.943v-1.237h3.943zm.574-3.521v1.271h-4.518v-1.271h4.518zm4.699 10.969v-7.5l.188-1.278h1.371v8.778H76.15zm-4.066-5.543v-.124c0-.484.055-.923.164-1.318s.27-.738.48-1.019.477-.504.785-.657.662-.234 1.061-.234c.391 0 .728.076 1.014.228s.527.37.727.651.357.607.475.99.211.807.269 1.272v.334a7.11 7.11 0 0 1-.269 1.236c-.117.375-.275.703-.475.984s-.437.494-.727.651c-.289.152-.631.228-1.025.228s-.746-.08-1.055-.24-.564-.391-.779-.68-.371-.629-.48-1.019-.164-.823-.164-1.283zm1.553-.124v.124c0 .277.023.537.07.779a2.18 2.18 0 0 0 .234.633c.105.183.24.328.404.433s.371.158.609.158c.32 0 .58-.07.779-.21s.355-.331.457-.569.174-.512.205-.808v-.915a3.01 3.01 0 0 0-.123-.656 1.6 1.6 0 0 0-.264-.515c-.109-.145-.25-.258-.422-.34s-.379-.123-.621-.123-.441.052-.609.158a1.16 1.16 0 0 0-.41.428c-.105.183-.184.396-.234.638a3.83 3.83 0 0 0-.076.785zm9.275 1.723v-4.834h1.559v6.34h-1.465l-.094-1.506zm.199-1.312l.481-.012c0 .426-.047.818-.141 1.178a2.66 2.66 0 0 1-.439.937 2.03 2.03 0 0 1-.744.615c-.301.145-.656.217-1.066.217a2.69 2.69 0 0 1-.856-.129c-.258-.09-.48-.228-.668-.416s-.326-.435-.428-.732-.152-.662-.152-1.084v-4.096h1.547v4.108a1.69 1.69 0 0 0 .07.527c.051.141.119.256.205.346s.193.148.311.187.25.053.387.053c.375 0 .67-.074.885-.223a1.25 1.25 0 0 0 .469-.609c.094-.258.141-.547.141-.867zm6.223 1.47v-2.923c0-.215-.037-.401-.111-.557s-.187-.277-.34-.363-.346-.129-.58-.129c-.207 0-.389.035-.545.105a.8.8 0 0 0-.352.299c-.082.125-.123.27-.123.434h-1.553c0-.262.063-.51.188-.745s.303-.449.533-.632.514-.334.838-.44.695-.158 1.102-.158c.48 0 .908.082 1.283.246s.676.402.891.727.328.732.328 1.224v2.766a4.86 4.86 0 0 0 .059.814c.043.223.105.416.188.58v.1h-1.576a2.33 2.33 0 0 1-.17-.609c-.039-.25-.059-.496-.059-.739zm.217-2.513l.012.92h-.978c-.242 0-.455.025-.639.076s-.334.117-.451.211-.205.199-.264.328-.088.267-.088.428.035.296.105.421.18.225.316.299.305.106.492.106a1.49 1.49 0 0 0 .715-.164c.203-.114.361-.25.475-.41s.174-.313.182-.458l.445.668a2.58 2.58 0 0 1-.246.51c-.109.18-.25.348-.422.504s-.379.285-.621.387a2.18 2.18 0 0 1-.844.152c-.41 0-.777-.082-1.102-.246s-.58-.389-.768-.674-.281-.609-.281-.972a2.02 2.02 0 0 1 .188-.891 1.7 1.7 0 0 1 .557-.65c.246-.18.551-.315.914-.405a5.15 5.15 0 0 1 1.26-.14h1.043zm4.377-5.139v9h-1.553v-9h1.553zm3.117 2.66v6.34h-1.553v-6.34h1.553zm-1.658-1.658c0-.231.078-.422.234-.574s.375-.229.645-.229.482.076.639.229.24.343.24.574a.75.75 0 0 1-.24.568c-.156.153-.369.229-.639.229s-.484-.076-.645-.229a.76.76 0 0 1-.234-.568zm8.103 6.779v1.219h-4.769v-1.219h4.769zm-.111-4.195l-4.078 5.414h-1.02v-.955l4.055-5.385h1.043v.926zm-.568-.926v1.225h-4.448v-1.225h4.448zm4.535 6.457c-.481 0-.912-.078-1.295-.234s-.709-.373-.979-.651-.47-.607-.615-.978a3.4 3.4 0 0 1-.211-1.207v-.235c0-.488.07-.931.211-1.33s.34-.748.598-1.037.566-.511.925-.668a2.96 2.96 0 0 1 1.19-.234c.449 0 .846.076 1.189.228s.631.36.862.633a2.77 2.77 0 0 1 .521.985c.117.379.176.799.176 1.259v.651h-4.969v-1.067h3.446v-.117c-.008-.246-.055-.47-.141-.674s-.219-.371-.399-.492-.412-.187-.697-.187a1.16 1.16 0 0 0-.603.152 1.21 1.21 0 0 0-.422.422 2.06 2.06 0 0 0-.246.644c-.055.25-.082.528-.082.832v.235a2.49 2.49 0 0 0 .105.738 1.77 1.77 0 0 0 .322.592c.145.164.317.293.516.387a1.69 1.69 0 0 0 .691.134 2.01 2.01 0 0 0 .879-.187c.266-.129.496-.318.692-.568l.779.808c-.133.195-.312.383-.539.563a2.76 2.76 0 0 1-.809.439c-.316.109-.681.164-1.095.164zm9.996-3.228h-2.197v-1.266h2.197c.359 0 .65-.059.873-.176a1.15 1.15 0 0 0 .498-.492c.105-.211.158-.451.158-.721 0-.261-.053-.505-.158-.732a1.28 1.28 0 0 0-.498-.551c-.223-.14-.514-.211-.873-.211h-1.67v7.26h-1.611v-8.531h3.281c.664 0 1.23.119 1.699.357s.832.561 1.078.979.375.886.375 1.418c0 .55-.125 1.025-.375 1.423s-.605.706-1.078.92-1.035.323-1.699.323zm5.847-1.934v5.045h-1.546v-6.34h1.464l.082 1.295zm1.928-1.336l-.023 1.442c-.086-.016-.184-.028-.293-.036l-.299-.011c-.238 0-.447.033-.627.099s-.33.155-.451.276-.207.269-.27.445a1.93 1.93 0 0 0-.105.586l-.334-.041a4.82 4.82 0 0 1 .123-1.119c.082-.344.201-.645.357-.903s.352-.457.586-.597a1.55 1.55 0 0 1 .821-.217 1.82 1.82 0 0 1 .275.023c.102.012.182.03.24.053zm.41 3.276v-.124c0-.464.067-.892.2-1.283s.326-.736.58-1.025a2.61 2.61 0 0 1 .931-.674c.367-.164.785-.246 1.254-.246.477 0 .899.082 1.266.246a2.6 2.6 0 0 1 .937.674c.254.289.448.631.58 1.025s.2.819.2 1.283v.124c0 .46-.067.888-.2 1.283a3.03 3.03 0 0 1-.58 1.025 2.61 2.61 0 0 1-.931.674c-.368.16-.787.24-1.26.24s-.889-.08-1.26-.24a2.6 2.6 0 0 1-.937-.674 3.03 3.03 0 0 1-.58-1.025c-.133-.395-.2-.823-.2-1.283zm1.547-.124v.124c0 .277.028.537.082.779s.139.455.252.638a1.25 1.25 0 0 0 .44.434c.183.102.402.152.656.152s.465-.05.644-.152a1.25 1.25 0 0 0 .44-.434c.117-.183.203-.396.258-.638s.082-.502.082-.779v-.124c0-.273-.028-.529-.082-.767a2.01 2.01 0 0 0-.258-.639 1.23 1.23 0 0 0-.445-.439c-.18-.11-.397-.164-.651-.164s-.465.054-.644.164a1.24 1.24 0 0 0-.44.439c-.113.184-.197.397-.252.639s-.082.494-.082.767zm9.328 1.881V153.5h1.559v9h-1.406l-.153-1.348zm-4.072-1.746v-.123c0-.484.055-.924.164-1.318s.277-.74.492-1.026.475-.505.78-.662.658-.234 1.048-.234c.379 0 .709.076.991.228s.527.37.726.651.365.615.487 1.002.209.805.263 1.265v.334c-.054.45-.142.862-.263 1.237s-.284.703-.487.984-.441.492-.726.645-.619.228-1.002.228a2.23 2.23 0 0 1-1.043-.24c-.305-.16-.565-.385-.78-.674-.21-.289-.373-.629-.486-1.019s-.164-.817-.164-1.278zm1.553-.123v.123c0 .274.023.53.07.768s.123.449.229.633.24.32.404.422.371.152.609.152c.305 0 .555-.067.75-.199a1.35 1.35 0 0 0 .463-.557c.11-.238.18-.506.211-.803v-.92c-.015-.234-.057-.451-.123-.65s-.152-.371-.269-.516a1.22 1.22 0 0 0-.422-.34 1.35 1.35 0 0 0-.598-.123c-.238 0-.441.053-.609.159a1.16 1.16 0 0 0-.41.427c-.106.184-.184.397-.235.639s-.07.504-.07.785zm9.252 1.711v-4.834h1.558v6.34h-1.464l-.094-1.506zm.199-1.312l.48-.012c0 .426-.046.818-.14 1.178s-.24.672-.44.937-.443.467-.744.615-.656.217-1.066.217c-.313 0-.598-.043-.856-.129s-.48-.228-.668-.416-.326-.435-.427-.732-.153-.662-.153-1.084v-4.096h1.547v4.108c0 .211.024.386.071.527s.119.256.205.346a.81.81 0 0 0 .31.187c.121.035.25.053.387.053.375 0 .67-.074.885-.223a1.25 1.25 0 0 0 .468-.609 2.52 2.52 0 0 0 .141-.867zm5.332 1.716c.219 0 .414-.043.586-.128s.309-.208.41-.364a1.02 1.02 0 0 0 .17-.545h1.459a2.06 2.06 0 0 1-.363 1.155c-.235.339-.547.609-.938.808s-.82.293-1.301.293c-.488 0-.914-.082-1.277-.246s-.666-.392-.908-.685-.418-.633-.539-1.02a4.27 4.27 0 0 1-.176-1.242v-.188a4.27 4.27 0 0 1 .176-1.242c.121-.387.301-.726.539-1.019s.545-.522.908-.686.787-.246 1.272-.246c.511 0 .961.1 1.347.299s.696.48.914.844c.223.363.338.791.346 1.283h-1.459a1.42 1.42 0 0 0-.152-.61 1.12 1.12 0 0 0-.399-.433c-.172-.11-.381-.164-.627-.164-.261 0-.48.054-.656.164s-.307.26-.404.451-.16.398-.199.633-.053.472-.053.726v.188c0 .258.017.504.053.738s.105.445.199.633a1.14 1.14 0 0 0 .404.439c.176.11.398.164.668.164zm6.656-5.238v1.113h-3.633v-1.113h3.633zm-2.66-1.558h1.553v6.07c0 .187.025.332.076.433s.127.17.229.206.222.052.363.052a2.22 2.22 0 0 0 .281-.017l.217-.035.006 1.16c-.129.043-.276.078-.44.105s-.342.041-.545.041c-.347 0-.652-.058-.914-.176s-.465-.314-.609-.58-.217-.625-.217-1.066v-6.193zm7.178 6.164c0-.133-.035-.252-.106-.358s-.203-.201-.398-.287-.473-.174-.844-.252a6.11 6.11 0 0 1-.908-.264 2.94 2.94 0 0 1-.715-.38c-.199-.153-.355-.33-.469-.534a1.51 1.51 0 0 1-.164-.714 1.66 1.66 0 0 1 .17-.739 1.83 1.83 0 0 1 .492-.615c.215-.18.477-.32.786-.422s.656-.158 1.043-.158c.539 0 1.002.088 1.388.264s.69.418.897.726.31.649.31 1.031h-1.547c0-.168-.039-.32-.117-.457s-.189-.246-.346-.328-.353-.129-.591-.129a1.27 1.27 0 0 0-.545.106.79.79 0 0 0-.328.275.67.67 0 0 0-.112.375c0 .102.02.194.059.276a.66.66 0 0 0 .205.216c.094.067.221.127.381.182s.365.108.603.158c.473.094.885.219 1.237.375s.633.356.832.61.299.578.299.972c0 .282-.061.539-.182.774a1.8 1.8 0 0 1-.527.603 2.68 2.68 0 0 1-.827.405c-.32.093-.681.14-1.084.14-.582 0-1.074-.103-1.476-.31s-.707-.477-.914-.797-.311-.66-.311-1.008h1.483c.011.246.078.443.199.592s.273.256.457.322.385.094.592.094a1.63 1.63 0 0 0 .592-.094c.16-.066.281-.154.363-.264a.64.64 0 0 0 .123-.386zm11.455-3.276v1.266h-4.488v-1.266h4.488zm-4.049-3.521v8.531h-1.611v-8.531h1.611zm5.244 0v8.531h-1.611v-8.531h1.611zm4.371 8.648c-.48 0-.912-.078-1.295-.234s-.709-.373-.978-.651a2.97 2.97 0 0 1-.615-.978 3.4 3.4 0 0 1-.211-1.207v-.235c0-.488.07-.931.211-1.33s.339-.748.597-1.037.567-.511.926-.668.756-.234 1.19-.234c.449 0 .845.076 1.189.228s.631.36.861.633.405.602.522.985.176.799.176 1.259v.651h-4.969v-1.067h3.445v-.117c-.008-.246-.055-.47-.14-.674s-.219-.371-.399-.492-.412-.187-.697-.187a1.16 1.16 0 0 0-.604.152c-.168.098-.308.238-.422.422a2.11 2.11 0 0 0-.246.644 3.95 3.95 0 0 0-.082.832v.235c0 .265.035.512.106.738s.181.424.322.592.316.293.516.387.433.134.691.134c.324 0 .617-.062.879-.187a1.95 1.95 0 0 0 .691-.568l.78.808a2.62 2.62 0 0 1-.539.563c-.223.179-.493.326-.809.439a3.36 3.36 0 0 1-1.096.164zm5.25-6.457v6.34h-1.552v-6.34h1.552zm-1.658-1.658c0-.231.078-.422.235-.574s.374-.229.644-.229.482.076.639.229.24.343.24.574a.75.75 0 0 1-.24.568c-.157.153-.369.229-.639.229s-.484-.076-.644-.229-.235-.341-.235-.568zm7.166 1.658h1.406v6.147c0 .574-.125 1.06-.375 1.459s-.591.707-1.037.914-.963.316-1.552.316c-.254 0-.53-.035-.827-.105a3.37 3.37 0 0 1-.849-.334c-.27-.149-.494-.342-.674-.58l.697-.915a2.13 2.13 0 0 0 .715.557c.266.129.553.193.861.193a1.67 1.67 0 0 0 .797-.175 1.16 1.16 0 0 0 .51-.504c.121-.219.182-.488.182-.809v-4.717l.146-1.447zm-4.283 3.246v-.123c0-.484.059-.924.176-1.318s.285-.74.504-1.026a2.34 2.34 0 0 1 .802-.662c.317-.156.672-.234 1.067-.234.418 0 .769.076 1.054.228a1.93 1.93 0 0 1 .715.651c.192.281.34.615.446 1.002s.193.805.252 1.265v.334c-.055.45-.143.862-.264 1.237a3.59 3.59 0 0 1-.469.984c-.195.277-.437.492-.726.645s-.629.228-1.02.228-.742-.08-1.055-.24-.58-.385-.802-.674-.387-.629-.504-1.019a4.44 4.44 0 0 1-.176-1.278zm1.547-.123v.123c0 .274.027.53.082.768s.139.449.252.633a1.27 1.27 0 0 0 .428.422c.171.101.376.152.615.152.32 0 .582-.067.785-.199a1.29 1.29 0 0 0 .469-.557c.109-.238.179-.506.211-.803v-.92c-.02-.234-.063-.451-.129-.65a1.63 1.63 0 0 0-.264-.516c-.113-.144-.258-.257-.434-.34s-.384-.123-.627-.123c-.234 0-.439.053-.615.159a1.22 1.22 0 0 0-.433.427 2.16 2.16 0 0 0-.258.639 3.54 3.54 0 0 0-.082.785zm7.055-5.783v9h-1.553v-9h1.553zm-.247 5.602h-.457c0-.442.059-.848.176-1.219a3.01 3.01 0 0 1 .498-.967c.215-.277.471-.492.768-.645s.633-.228.996-.228c.312 0 .596.045.849.135.258.086.479.224.663.416s.324.441.421.75c.102.304.153.676.153 1.113v4.043h-1.559v-4.055c0-.293-.043-.523-.129-.691a.77.77 0 0 0-.369-.369c-.156-.074-.349-.112-.58-.112-.25 0-.465.049-.644.147s-.329.225-.446.392-.199.362-.258.581-.082.455-.082.709zm8.432-2.942v1.113h-3.633v-1.113h3.633zm-2.66-1.558h1.553v6.07c0 .187.025.332.076.433s.127.17.228.206.223.052.364.052a2.22 2.22 0 0 0 .281-.017l.217-.035.006 1.16c-.129.043-.276.078-.44.105s-.342.041-.545.041c-.348 0-.652-.058-.914-.176a1.3 1.3 0 0 1-.609-.58c-.145-.269-.217-.625-.217-1.066v-6.193z" fill="#546069"/><rect x="61.454" y="82.209" width="128.093" height="58.886" rx="2.125" class="B"/><rect x="61.454" y="82.209" width="128.093" height="58.886" rx="2.125" stroke="#bbc2c7" class="D"/><rect x="64.5" y="85.5" width="122" height="53" rx=".5" stroke="#f21197"/><rect x="67.524" y="88.28" width="35.791" height="46.745" rx="2.296" class="B D E"/><path d="M67.221 90.576a2.6 2.6 0 0 1 2.6-2.6h31.198a2.6 2.6 0 0 1 2.6 2.6v23.707H67.221V90.576z" class="C"/><path d="M95.82 98.244l-4.983-4.576-2.492-.431c0 1.426-1.264 2.587-2.889 2.587s-2.889-1.161-2.889-2.587l-2.492.431-5.055 4.443 3.43 3.15 1.661-1.525v9.284h10.725v-9.119l1.589 1.459 3.394-3.117z" class="B"/><g class="C"><rect x="72.421" y="119.544" width="25.999" height="3.303" rx="1.651"/><rect x="80.22" y="125.447" width="10.4" height="3.303" rx="1.651"/></g><rect x="107.604" y="88.28" width="35.791" height="46.745" rx="2.296" class="B D E"/><path d="M107.301 90.576a2.6 2.6 0 0 1 2.6-2.6h31.198a2.6 2.6 0 0 1 2.6 2.6v23.707h-36.398V90.576z" class="C"/><path d="M135.9 98.244l-4.983-4.576-2.492-.431c0 1.426-1.264 2.586-2.889 2.586s-2.888-1.16-2.888-2.586l-2.492.431-5.055 4.443 3.43 3.15 1.661-1.525v9.284h10.725v-9.118l1.589 1.459 3.394-3.117z" class="B"/><g class="C"><rect x="112.501" y="119.544" width="25.999" height="3.303" rx="1.651"/><rect x="120.3" y="125.447" width="10.4" height="3.303" rx="1.651"/></g><rect x="147.685" y="88.28" width="35.791" height="46.745" rx="2.296" class="B D E"/><path d="M147.381 90.576a2.6 2.6 0 0 1 2.6-2.6h31.198a2.6 2.6 0 0 1 2.6 2.6v23.707h-36.398V90.576z" class="C"/><path d="M175.98 98.244l-4.983-4.576-2.492-.431c0 1.426-1.263 2.586-2.888 2.586s-2.889-1.16-2.889-2.586l-2.492.431-5.055 4.443 3.43 3.15 1.661-1.525v9.284h10.725v-9.118l1.589 1.459 3.394-3.117z" class="B"/><g class="C"><rect x="152.581" y="119.544" width="25.999" height="3.303" rx="1.651"/><rect x="160.381" y="125.447" width="10.4" height="3.303" rx="1.651"/></g><rect x="61.454" y="16.009" width="128.093" height="58.886" rx="2.125" class="B"/><g class="D"><rect x="61.454" y="16.009" width="128.093" height="58.886" rx="2.125" stroke="#bbc2c7"/><rect x="67.524" y="22.079" width="35.791" height="46.745" rx="2.296" class="B E"/></g><path d="M67.221 24.376a2.6 2.6 0 0 1 2.6-2.6h31.198a2.6 2.6 0 0 1 2.6 2.6v23.707H67.221V24.376z" class="C"/><path d="M95.82 32.044l-4.983-4.576-2.492-.431c0 1.426-1.264 2.587-2.889 2.587s-2.889-1.161-2.889-2.587l-2.492.431-5.055 4.443 3.43 3.15 1.661-1.525v9.285h10.725v-9.119l1.589 1.459 3.394-3.117z" class="B"/><g class="C"><rect x="72.421" y="53.344" width="25.999" height="3.303" rx="1.651"/><rect x="80.22" y="59.247" width="10.4" height="3.303" rx="1.651"/></g><rect x="107.604" y="22.079" width="35.791" height="42.822" rx="2.296" class="B D E"/><path d="M107.301 24.376a2.6 2.6 0 0 1 2.6-2.6h31.198a2.6 2.6 0 0 1 2.6 2.6v21.528h-36.398V24.376z" class="C"/><path d="M135.9 31.194l-4.983-4.197-2.492-.395c0 1.308-1.264 2.372-2.889 2.372s-2.888-1.065-2.888-2.372l-2.492.395-5.055 4.075 3.43 2.889 1.661-1.399v8.516h10.725v-8.364l1.589 1.338 3.394-2.859z" class="B"/><g class="C"><rect x="112.501" y="50.729" width="25.999" height="3.303" rx="1.651"/><rect x="120.3" y="56.631" width="10.4" height="3.303" rx="1.651"/></g><rect x="147.685" y="22.079" width="35.791" height="46.745" rx="2.296" class="B D E"/><path d="M147.381 24.376a2.6 2.6 0 0 1 2.6-2.6h31.198a2.6 2.6 0 0 1 2.6 2.6v23.707h-36.398V24.376z" class="C"/><path d="M175.98 32.044l-4.983-4.576-2.492-.431c0 1.426-1.263 2.587-2.888 2.587s-2.889-1.161-2.889-2.587l-2.492.431-5.055 4.443 3.43 3.15 1.661-1.525v9.285h10.725v-9.119l1.589 1.459 3.394-3.117z" class="B"/><g class="C"><rect x="152.581" y="53.344" width="25.999" height="3.303" rx="1.651"/><rect x="160.381" y="59.247" width="10.4" height="3.303" rx="1.651"/></g><path d="M202 159a4 4 0 1 0 8 0 4 4 0 1 0-8 0zm33 0v.75a.75.75 0 0 0 .75-.75H235zm0-48h.75a.75.75 0 0 0-.75-.75v.75zm-47.5 0l7.5 4.33v-8.66l-7.5 4.33zm18.5 48.75h29v-1.5h-29v1.5zm29.75-.75v-48h-1.5v48h1.5zm-.75-48.75h-40.75v1.5H235v-1.5z" fill="#f21197"/></svg>