<svg xmlns="http://www.w3.org/2000/svg" width="250" height="161" fill="none" xmlns:v="https://vecta.io/nano"><path fill="#fff" d="M0 0h250v161H0z"/><rect x="72.5" y="130.5" width="11" height="11" rx="5.5" fill="#ffd9f1" stroke="#f21197"/><path d="M93.807 137.693h1.611c-.043.571-.201 1.077-.475 1.518s-.654.781-1.143 1.031-1.08.375-1.775.375c-.535 0-1.018-.094-1.447-.281s-.791-.463-1.096-.815-.531-.781-.691-1.277-.24-1.06-.24-1.682v-.65c0-.621.082-1.182.246-1.682s.398-.925.703-1.277.678-.629 1.107-.82.918-.287 1.453-.287c.695 0 1.283.129 1.764.386s.853.604 1.119 1.049.426.957.48 1.535h-1.611a2.53 2.53 0 0 0-.234-.914 1.23 1.23 0 0 0-.551-.568c-.242-.133-.564-.199-.967-.199-.312 0-.588.058-.826.176s-.43.293-.586.527-.273.519-.352.867-.117.742-.117 1.195v.662a5.85 5.85 0 0 0 .106 1.167c.07.343.18.634.328.873s.34.419.574.544.514.188.838.188c.394 0 .715-.063.961-.188a1.27 1.27 0 0 0 .568-.55c.133-.242.217-.543.252-.903zm2.467-.298v-.124c0-.464.066-.892.199-1.283a2.97 2.97 0 0 1 .58-1.025 2.61 2.61 0 0 1 .932-.674c.367-.164.785-.246 1.254-.246.477 0 .899.082 1.266.246a2.59 2.59 0 0 1 .937.674c.254.289.448.631.58 1.025s.2.819.2 1.283v.124c0 .46-.067.888-.2 1.283a3.03 3.03 0 0 1-.58 1.025 2.6 2.6 0 0 1-.931.674c-.367.16-.787.24-1.26.24s-.889-.08-1.26-.24a2.6 2.6 0 0 1-.937-.674c-.254-.293-.447-.635-.58-1.025a4 4 0 0 1-.199-1.283zm1.547-.124v.124c0 .277.027.537.082.779a2.07 2.07 0 0 0 .252.638c.113.184.26.329.439.434a1.33 1.33 0 0 0 .656.152c.25 0 .465-.05.644-.152s.327-.25.44-.434.203-.396.258-.638.082-.502.082-.779v-.124c0-.273-.028-.529-.082-.767a2.01 2.01 0 0 0-.258-.639 1.23 1.23 0 0 0-.445-.439c-.18-.11-.397-.164-.65-.164a1.21 1.21 0 0 0-.644.164c-.18.105-.326.252-.439.439s-.197.397-.252.639-.082.494-.082.767zm7.043-1.757v4.986h-1.547v-6.34h1.454l.093 1.354zm-.246 1.588h-.457a4.19 4.19 0 0 1 .188-1.254c.121-.375.291-.698.509-.967a2.29 2.29 0 0 1 .791-.621c.305-.145.645-.217 1.02-.217a2.49 2.49 0 0 1 .826.129c.246.086.457.223.633.41s.316.434.41.738.147.672.147 1.114v4.066h-1.559v-4.078c0-.289-.043-.518-.129-.686s-.203-.287-.363-.357-.35-.106-.58-.106c-.239 0-.448.049-.627.147s-.324.225-.446.392-.207.362-.269.581a2.55 2.55 0 0 0-.094.709zm8.432-2.942v1.113h-3.633v-1.113h3.633zm-2.66-1.558h1.552v6.07c0 .187.026.332.077.433s.127.17.228.206.223.052.363.052c.102 0 .196-.006.282-.017l.216-.035.006 1.16c-.129.043-.275.078-.439.105s-.342.041-.545.041c-.348 0-.652-.058-.914-.176s-.465-.314-.61-.58-.216-.625-.216-1.066v-6.193zm6.539 8.015c-.481 0-.912-.078-1.295-.234s-.709-.373-.979-.651c-.265-.281-.47-.607-.615-.978a3.4 3.4 0 0 1-.211-1.207v-.235c0-.488.07-.931.211-1.33s.34-.748.598-1.037.566-.511.925-.668a2.96 2.96 0 0 1 1.19-.234c.449 0 .846.076 1.189.228s.631.36.862.633a2.77 2.77 0 0 1 .521.985c.117.379.176.799.176 1.259v.651h-4.969v-1.067h3.446v-.117c-.008-.246-.055-.47-.141-.674a1.08 1.08 0 0 0-.398-.492c-.18-.125-.413-.187-.698-.187a1.16 1.16 0 0 0-.603.152 1.21 1.21 0 0 0-.422.422 2.06 2.06 0 0 0-.246.644c-.055.25-.082.528-.082.832v.235a2.49 2.49 0 0 0 .105.738 1.77 1.77 0 0 0 .322.592c.145.164.317.293.516.387a1.69 1.69 0 0 0 .691.134 2.01 2.01 0 0 0 .879-.187c.266-.129.496-.318.692-.568l.779.808c-.133.195-.312.383-.539.563a2.76 2.76 0 0 1-.809.439c-.316.109-.681.164-1.095.164zm5.127-5.103v4.986h-1.547v-6.34h1.453l.094 1.354zm-.246 1.588h-.457c.003-.461.066-.879.187-1.254a2.95 2.95 0 0 1 .51-.967 2.27 2.27 0 0 1 .791-.621 2.34 2.34 0 0 1 1.019-.217 2.5 2.5 0 0 1 .827.129c.246.086.457.223.632.41.18.188.317.434.411.738s.146.672.146 1.114v4.066h-1.559v-4.078c0-.289-.043-.518-.128-.686s-.204-.287-.364-.357-.349-.106-.58-.106a1.29 1.29 0 0 0-.627.147c-.176.094-.324.225-.445.392s-.207.362-.27.581-.093.455-.093.709zm8.431-2.942v1.113h-3.633v-1.113h3.633zm-2.66-1.558h1.553v6.07c0 .187.025.332.076.433s.127.17.229.206.222.052.363.052a2.22 2.22 0 0 0 .281-.017l.217-.035.006 1.16c-.129.043-.276.078-.44.105s-.342.041-.545.041c-.347 0-.652-.058-.914-.176s-.465-.314-.609-.58-.217-.625-.217-1.066v-6.193zm10.078 4.787h-2.197v-1.266h2.197c.36 0 .651-.059.873-.176s.393-.285.498-.492.159-.451.159-.721a1.71 1.71 0 0 0-.159-.732c-.105-.227-.271-.41-.498-.551s-.513-.211-.873-.211h-1.67v7.26h-1.611v-8.531h3.281c.664 0 1.231.119 1.699.357.473.235.832.561 1.079.979s.375.886.375 1.418c0 .55-.125 1.025-.375 1.423s-.606.706-1.079.92c-.468.215-1.035.323-1.699.323zm7.723 1.763v-2.923a1.29 1.29 0 0 0-.111-.557.81.81 0 0 0-.34-.363c-.153-.086-.346-.129-.58-.129-.207 0-.389.035-.545.105a.8.8 0 0 0-.352.299c-.082.125-.123.27-.123.434h-1.553c0-.262.063-.51.188-.745a1.99 1.99 0 0 1 .533-.632c.234-.188.514-.334.838-.44s.695-.158 1.102-.158c.48 0 .908.082 1.283.246s.675.402.89.727.328.732.328 1.224v2.766c0 .316.02.588.059.814s.106.416.188.58v.1h-1.577c-.074-.16-.13-.363-.17-.609s-.058-.496-.058-.739zm.217-2.513l.011.92h-.978c-.242 0-.455.025-.639.076a1.18 1.18 0 0 0-.451.211.86.86 0 0 0-.264.328c-.058.125-.088.267-.088.428s.036.296.106.421.18.225.316.299c.141.071.305.106.493.106.273 0 .511-.055.714-.164.203-.114.362-.25.475-.41s.174-.313.182-.458l.445.668a2.62 2.62 0 0 1-.246.51 2.3 2.3 0 0 1-.422.504c-.172.156-.379.285-.621.387a2.18 2.18 0 0 1-.844.152c-.41 0-.777-.082-1.101-.246s-.581-.389-.768-.674-.281-.609-.281-.972a2.02 2.02 0 0 1 .187-.891 1.7 1.7 0 0 1 .557-.65c.246-.18.551-.315.914-.405s.787-.14 1.26-.14h1.043zm6.539 2.513V131.5h1.558v9h-1.406l-.152-1.348zm-4.073-1.746v-.123c0-.484.055-.924.165-1.318s.277-.74.492-1.026.474-.505.779-.662.658-.234 1.049-.234a2.05 2.05 0 0 1 .99.228c.285.153.527.37.727.651a3.46 3.46 0 0 1 .486 1.002c.121.383.209.805.264 1.265v.334c-.055.45-.143.862-.264 1.237s-.283.703-.486.984-.442.492-.727.645-.619.228-1.002.228-.734-.08-1.043-.24a2.29 2.29 0 0 1-.779-.674c-.211-.289-.373-.629-.486-1.019s-.165-.817-.165-1.278zm1.553-.123v.123c0 .274.024.53.071.768s.123.449.228.633.24.32.404.422.371.152.61.152c.304 0 .554-.067.75-.199s.353-.323.463-.557.179-.506.211-.803v-.92c-.016-.234-.057-.451-.124-.65-.062-.199-.152-.371-.269-.516a1.21 1.21 0 0 0-.422-.34 1.35 1.35 0 0 0-.598-.123c-.238 0-.441.053-.609.159a1.16 1.16 0 0 0-.41.427 2.14 2.14 0 0 0-.234.639 4.12 4.12 0 0 0-.071.785zm9.281 1.869V131.5h1.559v9h-1.406l-.153-1.348zm-4.072-1.746v-.123c0-.484.055-.924.164-1.318s.278-.74.492-1.026.475-.505.78-.662a2.29 2.29 0 0 1 1.049-.234c.378 0 .709.076.99.228s.527.37.726.651.366.615.487 1.002.209.805.263 1.265v.334c-.054.45-.142.862-.263 1.237s-.284.703-.487.984-.441.492-.726.645-.619.228-1.002.228a2.23 2.23 0 0 1-1.043-.24 2.28 2.28 0 0 1-.779-.674c-.211-.289-.373-.629-.487-1.019s-.164-.817-.164-1.278zm1.553-.123v.123c0 .274.023.53.07.768s.123.449.229.633.24.32.404.422.371.152.609.152c.305 0 .555-.067.75-.199a1.35 1.35 0 0 0 .463-.557c.11-.238.18-.506.211-.803v-.92a2.54 2.54 0 0 0-.123-.65c-.062-.199-.152-.371-.269-.516a1.22 1.22 0 0 0-.422-.34 1.35 1.35 0 0 0-.598-.123c-.238 0-.441.053-.609.159a1.16 1.16 0 0 0-.41.427c-.106.184-.184.397-.235.639s-.07.504-.07.785zm7.119-3.123v6.34h-1.553v-6.34h1.553zm-1.658-1.658c0-.231.078-.422.234-.574s.375-.229.645-.229.482.076.638.229.241.343.241.574-.08.416-.241.568-.369.229-.638.229-.485-.076-.645-.229a.76.76 0 0 1-.234-.568zm4.652 3.012v4.986h-1.547v-6.34h1.453l.094 1.354zm-.246 1.588h-.457c.004-.461.066-.879.188-1.254s.291-.698.509-.967a2.29 2.29 0 0 1 .791-.621c.305-.145.645-.217 1.02-.217a2.49 2.49 0 0 1 .826.129c.246.086.457.223.633.41s.316.434.41.738.146.672.146 1.114v4.066h-1.558v-4.078c0-.289-.043-.518-.129-.686s-.203-.287-.363-.357a1.42 1.42 0 0 0-.58-.106c-.239 0-.448.049-.627.147s-.325.225-.446.392-.207.362-.269.581a2.55 2.55 0 0 0-.094.709zm9.463-2.942h1.406v6.147c0 .574-.125 1.06-.375 1.459s-.592.707-1.037.914-.963.316-1.553.316c-.254 0-.529-.035-.826-.105a3.37 3.37 0 0 1-.849-.334 2.1 2.1 0 0 1-.674-.58l.697-.915a2.13 2.13 0 0 0 .715.557c.266.129.553.193.861.193a1.67 1.67 0 0 0 .797-.175 1.16 1.16 0 0 0 .51-.504c.121-.219.181-.488.181-.809v-4.717l.147-1.447zm-4.283 3.246v-.123a4.59 4.59 0 0 1 .176-1.318c.117-.399.285-.74.503-1.026.223-.285.491-.505.803-.662.317-.156.672-.234 1.067-.234.418 0 .769.076 1.054.228a1.94 1.94 0 0 1 .715.651c.192.281.34.615.445 1.002.11.383.194.805.252 1.265v.334c-.054.45-.142.862-.263 1.237a3.59 3.59 0 0 1-.469.984 2.06 2.06 0 0 1-.727.645c-.289.152-.628.228-1.019.228s-.742-.08-1.055-.24-.58-.385-.803-.674c-.218-.289-.386-.629-.503-1.019s-.176-.817-.176-1.278zm1.547-.123v.123c0 .274.027.53.082.768s.138.449.252.633.255.32.427.422.377.152.616.152c.32 0 .582-.067.785-.199a1.29 1.29 0 0 0 .469-.557c.109-.238.179-.506.21-.803v-.92c-.019-.234-.062-.451-.128-.65a1.63 1.63 0 0 0-.264-.516c-.113-.144-.258-.257-.434-.34a1.47 1.47 0 0 0-.627-.123c-.234 0-.439.053-.615.159a1.23 1.23 0 0 0-.434.427c-.113.184-.199.397-.257.639a3.54 3.54 0 0 0-.082.785z" fill="#546069"/><rect x="19.5" y="20.5" width="211" height="97" rx="3.5" fill="#fff"/><rect x="19.5" y="20.5" width="211" height="97" rx="3.5" stroke="#bbc2c7"/><rect x="29.5" y="30.5" width="58.957" height="77" rx="3.783" fill="#fff" stroke="#718491"/><path d="M29 34.283C29 31.917 30.917 30 33.283 30h51.391c2.365 0 4.283 1.917 4.283 4.283v39.051H29V34.283z" fill="#718491"/><path d="M76.109 46.915l-8.208-7.538-4.104-.71c0 2.349-2.082 4.261-4.758 4.261s-4.759-1.912-4.759-4.261l-4.104.71-8.327 7.319 5.651 5.189 2.736-2.513v15.294h17.666V49.646l2.617 2.403 5.591-5.135z" fill="#fff"/><g fill="#718491"><rect x="37.565" y="82" width="42.826" height="5.44" rx="2.72"/><rect x="50.413" y="91.723" width="17.131" height="5.44" rx="2.72"/></g><rect x="95.522" y="30.5" width="58.957" height="77" rx="3.783" fill="#fff" stroke="#718491"/><path d="M95.022 34.283c0-2.365 1.917-4.283 4.283-4.283h51.392c2.365 0 4.282 1.917 4.282 4.283v39.051H95.022V34.283z" fill="#718491"/><path d="M142.131 46.914l-8.209-7.538-4.104-.71c0 2.349-2.082 4.261-4.758 4.261s-4.759-1.912-4.759-4.26l-4.104.71-8.327 7.319 5.65 5.189 2.736-2.513v15.294h17.666V49.646l2.617 2.403 5.592-5.135z" fill="#fff"/><g fill="#718491"><rect x="103.587" y="82" width="42.826" height="5.44" rx="2.72"/><rect x="116.435" y="91.723" width="17.131" height="5.44" rx="2.72"/></g><rect x="161.543" y="30.5" width="58.957" height="77" rx="2.22" fill="#fff" stroke="#718491"/><path d="M161.043 34.283c0-2.365 1.918-4.283 4.283-4.283h51.391c2.366 0 4.283 1.917 4.283 4.283v38.806h-59.957V34.283z" fill="#718491"/><path d="M208.152 46.819l-8.208-7.495-4.104-.706c0 2.335-2.082 4.236-4.759 4.236s-4.758-1.901-4.758-4.236l-4.104.706-8.328 7.278 5.651 5.16 2.736-2.498v15.208h17.666V49.535l2.617 2.39 5.591-5.105z" fill="#fff"/><g fill="#718491"><rect x="170.677" y="82.706" width="40.803" height="5.44" rx="2.72"/><rect x="182.513" y="92.227" width="17.131" height="5.44" rx="2.72"/></g><path d="M179 138a4 4 0 1 0 8 0 4 4 0 1 0-8 0zm59 0v.75a.75.75 0 0 0 .75-.75H238zm0-55h.75a.75.75 0 0 0-.75-.75V83zm-18.5 0l7.5 4.33v-8.66L219.5 83zM183 138.75h55v-1.5h-55v1.5zm55.75-.75V83h-1.5v55h1.5zM238 82.25h-11.75v1.5H238v-1.5z" fill="#f21197"/><g fill="#ffd9f1" stroke="#f21197"><path d="M170.5 74.5h41v5h-41zm0 26h41v5h-41z"/><path transform="rotate(90 168.5 74.5)" d="M168.5 74.5h31v5h-31z"/><path transform="rotate(90 218.5 74.5)" d="M218.5 74.5h31v5h-31z"/></g></svg>