<svg xmlns="http://www.w3.org/2000/svg" width="250" height="161" fill="none"><path fill="#fff" d="M0 0h250v161H0z"/><rect x="80" y="130.5" width="11" height="11" rx="5.5" fill="#ffd9f1" stroke="#f21197"/><path d="M98.031 131.969v8.531H96.42v-8.531h1.611zm3.141 3.545v4.986h-1.547v-6.34h1.453l.094 1.354zm-.246 1.588h-.457a4.19 4.19 0 0 1 .187-1.254 2.95 2.95 0 0 1 .51-.967 2.28 2.28 0 0 1 .791-.621c.305-.145.645-.217 1.02-.217.304 0 .58.043.826.129s.457.223.633.41.316.434.41.738.146.672.146 1.114v4.066h-1.558v-4.078c0-.289-.043-.518-.129-.686s-.203-.287-.364-.357-.349-.106-.58-.106a1.29 1.29 0 0 0-.627.147c-.175.094-.324.225-.445.392s-.207.362-.269.581a2.55 2.55 0 0 0-.094.709zm6.949-1.588v4.986h-1.547v-6.34h1.453l.094 1.354zm-.246 1.588h-.457a4.19 4.19 0 0 1 .187-1.254 2.95 2.95 0 0 1 .51-.967 2.28 2.28 0 0 1 .791-.621c.305-.145.645-.217 1.02-.217.304 0 .58.043.826.129s.457.223.633.41.316.434.41.738.146.672.146 1.114v4.066h-1.558v-4.078c0-.289-.043-.518-.129-.686s-.203-.287-.363-.357-.35-.106-.581-.106c-.238 0-.447.049-.626.147s-.325.225-.446.392-.207.362-.269.581a2.55 2.55 0 0 0-.094.709zm8.279 3.515c-.48 0-.912-.078-1.295-.234s-.709-.373-.978-.651a2.97 2.97 0 0 1-.615-.978 3.4 3.4 0 0 1-.211-1.207v-.235c0-.488.07-.931.211-1.33s.339-.748.597-1.037.567-.511.926-.668.756-.234 1.189-.234c.45 0 .846.076 1.19.228s.631.36.861.633.405.602.522.985.175.799.175 1.259v.651h-4.968v-1.067h3.445v-.117c-.008-.246-.055-.47-.141-.674s-.218-.371-.398-.492-.412-.187-.697-.187a1.16 1.16 0 0 0-.604.152c-.168.098-.308.238-.422.422a2.11 2.11 0 0 0-.246.644 3.95 3.95 0 0 0-.082.832v.235c0 .265.035.512.106.738s.181.424.322.592.316.293.516.387.433.134.691.134c.324 0 .617-.062.879-.187a1.96 1.96 0 0 0 .691-.568l.78.808a2.6 2.6 0 0 1-.54.563c-.222.179-.492.326-.808.439a3.36 3.36 0 0 1-1.096.164zm5.156-5.162v5.045h-1.546v-6.34h1.464l.082 1.295zm1.928-1.336l-.023 1.442c-.086-.016-.184-.028-.293-.036l-.299-.011c-.238 0-.447.033-.627.099s-.33.155-.451.276-.207.269-.27.445a1.93 1.93 0 0 0-.105.586l-.334-.041a4.82 4.82 0 0 1 .123-1.119c.082-.344.201-.645.357-.903s.352-.457.586-.597a1.55 1.55 0 0 1 .821-.217 1.83 1.83 0 0 1 .275.023c.102.012.182.03.24.053zm7.237 3.27h-2.198v-1.266h2.198c.359 0 .65-.059.873-.176a1.15 1.15 0 0 0 .498-.492c.105-.211.158-.451.158-.721 0-.261-.053-.505-.158-.732a1.28 1.28 0 0 0-.498-.551c-.223-.14-.514-.211-.873-.211h-1.67v7.26h-1.612v-8.531h3.282c.664 0 1.23.119 1.699.357s.832.561 1.078.979.375.886.375 1.418c0 .55-.125 1.025-.375 1.423s-.606.706-1.078.92-1.035.323-1.699.323zm7.722 1.763v-2.923a1.29 1.29 0 0 0-.111-.557c-.074-.156-.188-.277-.34-.363s-.346-.129-.58-.129c-.207 0-.389.035-.545.105s-.27.17-.352.299-.123.27-.123.434h-1.552c0-.262.062-.51.187-.745a1.99 1.99 0 0 1 .533-.632 2.64 2.64 0 0 1 .838-.44c.328-.105.696-.158 1.102-.158.48 0 .908.082 1.283.246s.676.402.891.727.328.732.328 1.224v2.766c0 .316.019.588.058.814s.106.416.188.58v.1h-1.576a2.3 2.3 0 0 1-.17-.609c-.039-.25-.059-.496-.059-.739zm.217-2.513l.012.92h-.979c-.242 0-.455.025-.639.076s-.333.117-.451.211a.85.85 0 0 0-.263.328.99.99 0 0 0-.088.428c0 .156.035.296.105.421s.18.225.317.299.304.106.492.106c.273 0 .512-.055.715-.164.203-.114.361-.25.474-.41s.174-.313.182-.458l.445.668a2.51 2.51 0 0 1-.246.51 2.27 2.27 0 0 1-.422.504c-.172.156-.379.285-.621.387s-.523.152-.844.152c-.41 0-.777-.082-1.101-.246a1.96 1.96 0 0 1-.768-.674c-.187-.285-.281-.609-.281-.972a2.02 2.02 0 0 1 .188-.891 1.7 1.7 0 0 1 .556-.65c.246-.18.551-.315.914-.405s.787-.14 1.26-.14h1.043zm6.539 2.513V131.5h1.559v9h-1.407l-.152-1.348zm-4.072-1.746v-.123c0-.484.054-.924.164-1.318s.277-.74.492-1.026.475-.505.779-.662.659-.234 1.049-.234a2.05 2.05 0 0 1 .99.228c.286.153.528.37.727.651a3.46 3.46 0 0 1 .486 1.002c.121.383.209.805.264 1.265v.334c-.055.45-.143.862-.264 1.237s-.283.703-.486.984a2.12 2.12 0 0 1-.727.645c-.285.152-.619.228-1.002.228s-.734-.08-1.043-.24a2.3 2.3 0 0 1-.779-.674c-.211-.289-.373-.629-.486-1.019s-.164-.817-.164-1.278zm1.553-.123v.123c0 .274.023.53.07.768s.123.449.228.633.241.32.405.422.371.152.609.152c.305 0 .555-.067.75-.199s.354-.323.463-.557.18-.506.211-.803v-.92a2.63 2.63 0 0 0-.123-.65c-.063-.199-.153-.371-.27-.516a1.21 1.21 0 0 0-.422-.34c-.168-.082-.367-.123-.597-.123a1.12 1.12 0 0 0-.61.159 1.17 1.17 0 0 0-.41.427c-.105.184-.183.397-.234.639s-.07.504-.07.785zm9.281 1.869V131.5h1.558v9h-1.406l-.152-1.348zm-4.073-1.746v-.123c0-.484.055-.924.165-1.318s.277-.74.492-1.026.474-.505.779-.662.658-.234 1.049-.234a2.05 2.05 0 0 1 .99.228c.285.153.527.37.727.651a3.46 3.46 0 0 1 .486 1.002c.121.383.209.805.264 1.265v.334c-.055.45-.143.862-.264 1.237s-.283.703-.486.984-.442.492-.727.645-.619.228-1.002.228-.734-.08-1.043-.24a2.29 2.29 0 0 1-.779-.674c-.211-.289-.373-.629-.486-1.019s-.165-.817-.165-1.278zm1.553-.123v.123c0 .274.024.53.071.768s.123.449.228.633.24.32.404.422.371.152.61.152c.304 0 .554-.067.75-.199s.353-.323.463-.557.179-.506.211-.803v-.92c-.016-.234-.057-.451-.124-.65s-.152-.371-.269-.516a1.21 1.21 0 0 0-.422-.34 1.35 1.35 0 0 0-.598-.123c-.238 0-.441.053-.609.159a1.16 1.16 0 0 0-.41.427 2.14 2.14 0 0 0-.234.639 4.12 4.12 0 0 0-.071.785zm7.119-3.123v6.34h-1.552v-6.34h1.552zm-1.658-1.658c0-.231.078-.422.235-.574s.375-.229.644-.229.482.076.639.229.24.343.24.574a.75.75 0 0 1-.24.568c-.157.153-.369.229-.639.229s-.484-.076-.644-.229-.235-.341-.235-.568zm4.652 3.012v4.986h-1.546v-6.34h1.453l.093 1.354zm-.246 1.588h-.457a4.19 4.19 0 0 1 .188-1.254 2.95 2.95 0 0 1 .51-.967 2.27 2.27 0 0 1 .791-.621c.304-.145.644-.217 1.019-.217a2.49 2.49 0 0 1 .826.129c.246.086.457.223.633.41s.317.434.41.738c.098.301.147.672.147 1.114v4.066h-1.559v-4.078c0-.289-.043-.518-.129-.686s-.203-.287-.363-.357-.35-.106-.58-.106a1.29 1.29 0 0 0-.627.147c-.176.094-.324.225-.445.392a1.93 1.93 0 0 0-.27.581c-.062.218-.094.455-.094.709zm9.463-2.942h1.407v6.147c0 .574-.125 1.06-.375 1.459s-.592.707-1.038.914-.962.316-1.552.316c-.254 0-.53-.035-.826-.105s-.577-.182-.85-.334-.494-.342-.674-.58l.697-.915c.211.247.45.432.715.557s.553.193.862.193.578-.058.796-.175a1.16 1.16 0 0 0 .51-.504c.121-.219.182-.488.182-.809v-4.717l.146-1.447zm-4.283 3.246v-.123c0-.484.059-.924.176-1.318s.285-.74.504-1.026.49-.505.803-.662.671-.234 1.066-.234c.418 0 .769.076 1.055.228s.527.37.714.651c.192.281.34.615.446 1.002s.193.805.252 1.265v.334c-.055.45-.143.862-.264 1.237a3.56 3.56 0 0 1-.469.984c-.195.277-.437.492-.726.645s-.629.228-1.02.228-.742-.08-1.054-.24a2.36 2.36 0 0 1-.803-.674c-.219-.289-.387-.629-.504-1.019a4.44 4.44 0 0 1-.176-1.278zm1.547-.123v.123c0 .274.027.53.082.768s.139.449.252.633a1.27 1.27 0 0 0 .428.422c.172.101.377.152.615.152.32 0 .582-.067.785-.199a1.29 1.29 0 0 0 .469-.557c.109-.238.18-.506.211-.803v-.92c-.02-.234-.063-.451-.129-.65a1.63 1.63 0 0 0-.264-.516c-.113-.144-.258-.257-.433-.34s-.385-.123-.627-.123a1.17 1.17 0 0 0-.616.159 1.23 1.23 0 0 0-.433.427c-.113.184-.199.397-.258.639a3.54 3.54 0 0 0-.082.785z" fill="#546069"/><rect x="19.5" y="20.5" width="211" height="97" rx="3.5" fill="#fff"/><rect x="19.5" y="20.5" width="211" height="97" rx="3.5" stroke="#bbc2c7"/><rect x="29.5" y="30.5" width="58.957" height="77" rx="1.5" fill="#fff" stroke="#718491"/><rect x="36" y="37" width="45.96" height="43.333" rx="2" fill="#718491"/><path d="M76.109 54.248l-8.208-7.538-4.104-.71c0 2.349-2.082 4.261-4.758 4.261S54.28 48.349 54.28 46l-4.104.71-8.327 7.319 5.651 5.189 2.736-2.513V72h17.666V56.979l2.617 2.403 5.591-5.135z" fill="#fff"/><g fill="#718491"><rect x="37.565" y="88" width="42.826" height="5.44" rx="2.72"/><rect x="50.413" y="97.723" width="17.131" height="5.44" rx="2.72"/></g><rect x="95.522" y="30.5" width="58.957" height="77" rx="1.5" fill="#fff" stroke="#718491"/><rect x="102.022" y="37" width="45.96" height="43.333" rx="2" fill="#718491"/><path d="M142.131 54.248l-8.208-7.538-4.105-.71c0 2.349-2.081 4.261-4.758 4.261s-4.758-1.912-4.758-4.26l-4.105.71-8.327 7.319 5.651 5.189 2.736-2.513V72h17.666V56.979l2.617 2.403 5.591-5.135z" fill="#fff"/><g fill="#718491"><rect x="103.587" y="88" width="42.826" height="5.44" rx="2.72"/><rect x="116.435" y="97.723" width="17.131" height="5.44" rx="2.72"/></g><rect x="161.543" y="30.5" width="58.957" height="77" rx="1.5" fill="#fff" stroke="#718491"/><rect x="168.043" y="37" width="45.96" height="43.333" rx="2" fill="#718491"/><path d="M208.153 54.248l-8.209-7.538-4.104-.71c0 2.349-2.082 4.261-4.758 4.261s-4.759-1.912-4.759-4.26l-4.104.71-8.327 7.319 5.65 5.189 2.736-2.513V72h17.666V56.979l2.617 2.403 5.592-5.135z" fill="#fff"/><g fill="#718491"><rect x="169.609" y="84" width="42.826" height="5.44" rx="2.72"/><rect x="182.457" y="93.723" width="17.131" height="5.44" rx="2.72"/></g><g fill="#ffd9f1" stroke="#f21197"><path d="M168.543 32h45v4h-45zm0 69.5h45v4h-45z"/><path transform="rotate(90 167.043 32)" d="M167.043 32h73.5v4h-73.5z"/><path transform="rotate(90 219.043 32)" d="M219.043 32h73.5v4h-73.5z"/></g><path d="M172 138a4 4 0 1 0 8 0 4 4 0 1 0-8 0zm66 0v.75a.75.75 0 0 0 .75-.75H238zm0-67h.75a.75.75 0 0 0-.75-.75V71zm-17.5 0l7.5 4.33v-8.66L220.5 71zM176 138.75h62v-1.5h-62v1.5zm62.75-.75V71h-1.5v67h1.5zM238 70.25h-10.75v1.5H238v-1.5z" fill="#f21197"/></svg>