<svg xmlns="http://www.w3.org/2000/svg" xmlns:xlink="http://www.w3.org/1999/xlink" width="375" height="65" viewBox="0 0 375 65">
  <defs>
    <clipPath id="clip-path">
      <rect id="Rectangle_5" data-name="Rectangle 5" width="375" height="65" transform="translate(61 828)" fill="#464646"/>
    </clipPath>
  </defs>
  <g id="Mask_Group_1" data-name="Mask Group 1" transform="translate(-61 -828)" clip-path="url(#clip-path)">
    <g id="Group_14" data-name="Group 14" transform="translate(7)">
      <path id="Path_22" data-name="Path 22" d="M1438.9,397.691s18.919,35.4,146.468,76.286H1877.7V759.311s-438.794,46.446-438.794,0Z" transform="translate(-1411.79 415.414)" fill="#fff" opacity="0.3"/>
      <path id="Path_21" data-name="Path 21" d="M1438.9,454.32s52.485-87.881,190.409-11.6c0,1.831,58.587,17.7,58.587,17.7s106.8-76.9,195.291-17.7c1.22,0,0,323.547,0,323.547H1438.9Z" transform="translate(-1411.79 421.034)" fill="#fff" opacity="0.2"/>
      <path id="Path_20" data-name="Path 20" d="M1426.3,425.5s98.866,49.433,205.055,12.206c-.61.61,50.044-25.632,120.226,4.882s139.755,0,139.755,0V754.539H1426.3Z" transform="translate(-1416.888 426.663)" fill="#fff"/>
    </g>
  </g>
</svg>
