<?xml version="1.0" encoding="utf-8"?>
<!-- Generator: Adobe Illustrator 25.1.0, SVG Export Plug-In . SVG Version: 6.00 Build 0)  -->
<svg version="1.1" id="Layer_1" xmlns="http://www.w3.org/2000/svg" xmlns:xlink="http://www.w3.org/1999/xlink" x="0px" y="0px"
	 viewBox="0 0 144 144" style="enable-background:new 0 0 144 144;" xml:space="preserve">
<style type="text/css">
	.st0{fill-rule:evenodd;clip-rule:evenodd;}
</style>
<g>
	<path d="M72,2C42.7,2,18.9,25.8,18.9,55.1c0,11.5,3.7,22.7,10.6,31.9L70.1,141c0.8,1.1,2.3,1.3,3.4,0.5c0.2-0.1,0.3-0.3,0.5-0.5
		L114.5,87c17.6-23.5,12.8-56.7-10.6-74.3C94.7,5.7,83.5,2,72,2z M72,98.6c-24,0-43.4-19.4-43.4-43.4S48,11.7,72,11.7
		s43.4,19.4,43.4,43.4S96,98.6,72,98.6z"/>
	<g>
		<g>
			<g>
				<path d="M96.3,36.6c-0.8-4.2-5.2-5.7-8.2-6.3c0.2,0.6,0.2,1.2,0.2,1.9c0,1.3-0.3,2.6-0.9,3.7c1.7,0.4,3.2,1.1,3.4,1.8
					c0.1,0.4,0,0.6-0.2,0.8c-1,1.2-4.2,2-6.6,2h-7.5c-2.4,0-5.6-0.8-6.6-2c-0.2-0.2-0.3-0.4-0.2-0.8c0.1-0.7,1.7-1.4,3.4-1.8
					c-0.6-1.1-0.9-2.3-0.9-3.7c0-0.6,0.1-1.3,0.2-1.9c-3,0.6-7.4,2.1-8.2,6.3c-0.4,2,0.1,3.9,1.4,5.4c1.9,2.3,5.2,3.3,7.7,3.7
					c-0.7,2.1-2.2,6.3-3.2,9.9c-3-0.1-8.1-0.2-10.1-0.1c-1.1,0-2.1,0.4-2.9,1.3c-1.8,1.8-2.7,6.6-2.7,14.2l-5.1,2.6
					c-1.6,0.8-2.2,2.8-1.4,4.4c0.6,1.1,1.7,1.8,2.9,1.8c0.5,0,1-0.1,1.5-0.4l23.2-12.1c3-1.3,4.6-3.1,5.3-4.8
					c1.3-3.1,4.4-12.9,5.5-16.6c2.5-0.3,6.4-1.2,8.6-3.8C96.2,40.5,96.7,38.6,96.3,36.6z M61,67.6c0.1-2.3,0.3-4.3,0.6-5.6
					c3,0.1,8,0.1,9.7,0.2L61,67.6z"/>
				<circle cx="80.3" cy="32.2" r="6.6"/>
			</g>
		</g>
	</g>
</g>
</svg>
