<?xml version="1.0" encoding="utf-8"?>
<!-- Generator: Adobe Illustrator 25.1.0, SVG Export Plug-In . SVG Version: 6.00 Build 0)  -->
<svg version="1.1" id="Layer_1" xmlns="http://www.w3.org/2000/svg" xmlns:xlink="http://www.w3.org/1999/xlink" x="0px" y="0px"
	 viewBox="0 0 144 144" style="enable-background:new 0 0 144 144;" xml:space="preserve">
<style type="text/css">
	.st0{fill-rule:evenodd;clip-rule:evenodd;}
</style>
<g>
	<path d="M72,2C42.7,2,18.9,25.8,18.9,55.1c0,11.5,3.7,22.7,10.6,31.9L70.1,141c0.8,1.1,2.3,1.3,3.4,0.5c0.2-0.1,0.3-0.3,0.5-0.5
		L114.5,87c17.6-23.5,12.8-56.7-10.6-74.3C94.7,5.7,83.5,2,72,2z M72,98.6c-24,0-43.4-19.4-43.4-43.4S48,11.7,72,11.7
		s43.4,19.4,43.4,43.4S96,98.6,72,98.6z"/>
	<g>
		<path d="M78.7,79.8c1.4,0,2.5-1.1,2.5-2.5V65.5c0-1.4-1.1-2.5-2.5-2.5H65.3c-1.4,0-2.5,1.1-2.5,2.5v11.8c0,1.4,1.1,2.5,2.5,2.5
			c1.4,0,2.5-1.1,2.5-2.5V68h8.4v9.3C76.2,78.7,77.3,79.8,78.7,79.8z"/>
		<path d="M40.4,61.8H48v16.9c0,1.4,1.1,2.5,2.5,2.5S53,80,53,78.6V59.3c0-1.4-1.1-2.5-2.5-2.5h-3.8L72,33l8.6,8.1
			c1,0.9,2.6,0.9,3.5-0.1c0.4-0.5,0.7-1.1,0.7-1.7v-4.6h3.9v13c0,0.7,0.3,1.4,0.8,1.8l7.8,7.2h-3.7c-1.4,0-2.5,1.1-2.5,2.5v17
			c0,1.4,1.1,2.5,2.5,2.5c1.4,0,2.5-1.1,2.5-2.5V61.8h7.6c1.4,0,2.5-1.1,2.5-2.5c0-0.7-0.3-1.4-0.8-1.8L93.7,46.6V32.1
			c0-1.4-1.1-2.5-2.5-2.5h-8.9c-1.4,0-2.5,1.1-2.5,2.5v1.4l-6.1-5.7c-1-0.9-2.5-0.9-3.4,0L38.7,57.4c-1,0.9-1.1,2.5-0.1,3.5
			C39,61.5,39.7,61.8,40.4,61.8L40.4,61.8z"/>
	</g>
</g>
</svg>
