<?xml version="1.0" encoding="utf-8"?>
<!-- Generator: Adobe Illustrator 25.1.0, SVG Export Plug-In . SVG Version: 6.00 Build 0)  -->
<svg version="1.1" id="Layer_1" xmlns="http://www.w3.org/2000/svg" xmlns:xlink="http://www.w3.org/1999/xlink" x="0px" y="0px"
	 viewBox="0 0 144 144" style="enable-background:new 0 0 144 144;" xml:space="preserve">
<style type="text/css">
	.st0{fill-rule:evenodd;clip-rule:evenodd;}
</style>
<g>
	<path d="M72,2C42.7,2,18.9,25.8,18.9,55.1c0,11.5,3.7,22.7,10.6,31.9L70.1,141c0.8,1.1,2.3,1.3,3.4,0.5c0.2-0.1,0.3-0.3,0.5-0.5
		L114.5,87c17.6-23.5,12.8-56.7-10.6-74.3C94.7,5.7,83.5,2,72,2z M72,98.6c-24,0-43.4-19.4-43.4-43.4S48,11.7,72,11.7
		s43.4,19.4,43.4,43.4S96,98.6,72,98.6z"/>
	<g>
		<circle cx="72" cy="50.5" r="7.3"/>
		<path d="M72,59.8c-6.5,0-12.1,4.6-13.4,11c-0.2,0.8,0.4,1.7,1.2,1.8c0.1,0,0.2,0,0.3,0h23.8c0.8,0,1.5-0.7,1.5-1.5
			c0-0.1,0-0.2,0-0.3C84.1,64.4,78.5,59.8,72,59.8z"/>
		<circle cx="89.6" cy="42.9" r="8.9"/>
		<path d="M89.6,54.5c-3.8,0-7.6,1.4-10.5,3.8c4.6,2.1,7.9,6.2,9.1,11.1h15.9c0.8,0,1.5-0.7,1.5-1.5c0-0.1,0-0.2,0-0.3
			C104.1,60,97.4,54.5,89.6,54.5z"/>
		<circle cx="54.4" cy="42.9" r="8.9"/>
		<path d="M54.4,54.5c3.8,0,7.6,1.4,10.5,3.8c-4.6,2.1-7.9,6.2-9.1,11.1H39.8c-0.8,0-1.5-0.7-1.5-1.5c0-0.1,0-0.2,0-0.3
			C39.9,60,46.6,54.5,54.4,54.5z"/>
	</g>
</g>
</svg>
