<?xml version="1.0" encoding="utf-8"?>
<!-- Generator: Adobe Illustrator 25.2.0, SVG Export Plug-In . SVG Version: 6.00 Build 0)  -->
<svg version="1.1" id="Layer_1" xmlns="http://www.w3.org/2000/svg" xmlns:xlink="http://www.w3.org/1999/xlink" x="0px" y="0px"
	 viewBox="0 0 144 144" style="enable-background:new 0 0 144 144;" xml:space="preserve">
<style type="text/css">
	.st0{fill:#FFFFFF;}
</style>
<g>
	<path d="M119.2,140.5H24.8c-0.7,0-1.2-0.5-1.2-1.2V4.7c0-0.7,0.5-1.2,1.2-1.2h94.5c0.7,0,1.2,0.5,1.2,1.2v134.6
		C120.4,140,119.9,140.5,119.2,140.5z"/>
	<path class="st0" d="M112.2,9.3H31.8h-3.2v3.2v119v3.2h3.2h80.5h3.2v-3.2v-119V9.3H112.2z M73.9,18.9l6.4-6.4h24.5l7.4,7.4v25.6
		l-5.9,5.9H78.8l-4.9-4.9V18.9z M73.9,59.5l4.9-4.9h27.6l5.9,5.9v25.6l-5.9,5.9H78.8l-4.9-4.9V59.5z M31.8,20.5l8-8h24.5l6.4,6.4
		v27.6l-4.9,4.9H38.2L31.8,45V20.5z M31.8,61.1l6.4-6.4h27.6l4.9,4.9v27.6L65.8,92H38.2l-6.4-6.4V61.1z M70.7,127.7l-3.8,3.8H37.1
		l-5.3-5.3v-24.5l6.4-6.4h27.6l4.9,4.9V127.7z M112.2,126.8l-4.7,4.7H77.7l-3.8-3.8v-27.6l4.9-4.9h27.6l5.9,5.9V126.8z"/>
</g>
</svg>
