<?xml version="1.0" encoding="utf-8"?>
<!-- Generator: Adobe Illustrator 25.2.0, SVG Export Plug-In . SVG Version: 6.00 Build 0)  -->
<svg version="1.1" id="Layer_1" xmlns="http://www.w3.org/2000/svg" xmlns:xlink="http://www.w3.org/1999/xlink" x="0px" y="0px"
	 viewBox="0 0 208 144" style="enable-background:new 0 0 208 144;" xml:space="preserve">
<style type="text/css">
	.st0{fill:#FFFFFF;}
</style>
<g>
	<g>
		<path d="M99.2,140.5H4.7c-0.7,0-1.2-0.5-1.2-1.2V4.7c0-0.7,0.5-1.2,1.2-1.2h94.5c0.7,0,1.2,0.5,1.2,1.2v134.6
			C100.4,140,99.8,140.5,99.2,140.5z"/>
		<path class="st0" d="M92.2,9.3H11.7H8.5v3.2v119v3.2h3.2h80.5h3.2v-3.2v-119V9.3H92.2z M53.9,18.9l6.4-6.4h24.5l7.4,7.4v25.6
			l-5.9,5.9H58.7l-4.9-4.9V18.9z M53.9,59.5l4.9-4.9h27.6l5.9,5.9v25.6L86.3,92H58.7l-4.9-4.9V59.5z M11.7,20.5l8-8h24.5l6.4,6.4
			v27.6l-4.9,4.9H18.1L11.7,45V20.5z M11.7,61.1l6.4-6.4h27.6l4.9,4.9v27.6L45.8,92H18.1l-6.4-6.4V61.1z M50.6,127.7l-3.8,3.8H17
			l-5.3-5.3v-24.5l6.4-6.4h27.6l4.9,4.9V127.7z M92.2,126.8l-4.7,4.7H57.6l-3.8-3.8v-27.6l4.9-4.9h27.6l5.9,5.9V126.8z"/>
	</g>
	<path d="M194.3,113.1h-24.9c-5.6,0-10.2-4.6-10.2-10.2V47.1c0-5.6,4.6-10.2,10.2-10.2h24.9c5.6,0,10.2,4.6,10.2,10.2v55.8
		C204.5,108.5,199.9,113.1,194.3,113.1z M190.8,34.8h-17l0-2c0-2.6,2.1-4.7,4.7-4.7h7.6c2.6,0,4.7,2.1,4.7,4.7L190.8,34.8z
		 M200.9,63.8V48c0-4.1-3.3-7.4-7.4-7.4h-23.4c-4.1,0-7.4,3.3-7.4,7.4v15.8H200.9L200.9,63.8z M174.7,103.7l22.9-22.9l-16.1,4.2
		l8.5-17L167.9,91l14.4-2.5L174.7,103.7z"/>
	<g>
		<polygon points="127.3,75.4 117.8,75.4 117.8,68.6 127.3,68.6 127.3,59.3 134.1,59.3 134.1,68.6 143.5,68.6 143.5,75.4 
			134.1,75.4 134.1,84.5 127.3,84.5 		"/>
	</g>
</g>
</svg>
