<?xml version="1.0" encoding="utf-8"?>
<!-- Generator: Adobe Illustrator 25.1.0, SVG Export Plug-In . SVG Version: 6.00 Build 0)  -->
<svg version="1.1" id="Layer_1" xmlns="http://www.w3.org/2000/svg" xmlns:xlink="http://www.w3.org/1999/xlink" x="0px" y="0px"
	 viewBox="0 0 144 144" style="enable-background:new 0 0 144 144;" xml:space="preserve">
<style type="text/css">
	.st0{fill-rule:evenodd;clip-rule:evenodd;}
</style>
<path d="M127,37.5l-1.4-6.8l-7.3,0.3c-4.6,0-28.8-0.8-39.6-18.4L71.9,2l-6.8,10.6C54.3,29.9,30.4,31,25.8,31l-7.3-0.3l-1.4,6.8
	c-0.3,1.9-3.5,19.5,1.1,40.2c4.3,20.3,16.6,47.5,50.7,62.7l3.3,1.6l3.3-1.4c34.2-14.9,46.7-42.3,50.7-62.7
	C130.2,56.5,127.2,39.4,127,37.5z M104.6,65.8l-38.5,38.1l-1.3-1.3L41.3,79l12.9-12.9l12.3,12.3l26.9-26.9l12.9,12.9L104.6,65.8z"/>
</svg>
