<?xml version="1.0" encoding="utf-8"?>
<!-- Generator: Adobe Illustrator 25.1.0, SVG Export Plug-In . SVG Version: 6.00 Build 0)  -->
<svg version="1.1" id="Layer_1" xmlns="http://www.w3.org/2000/svg" xmlns:xlink="http://www.w3.org/1999/xlink" x="0px" y="0px"
	 viewBox="0 0 144 144" style="enable-background:new 0 0 144 144;" xml:space="preserve">
<style type="text/css">
	.st0{fill-rule:evenodd;clip-rule:evenodd;}
</style>
<g>
	<path d="M103.2,32.1c0.6,0.6,1.6,0.6,2.6,0.6c0.6,0,1.3,0,2-0.3c0.6-0.3,1.3-1,1.6-1.6l9.5-13.7c0.6-1,1-2.3,0.6-3.3
		c-0.3-1.3-1-2.3-2-2.9l0,0c-1.3-1-2.6-1-4.3-0.6H113c-0.6,0.3-1.3,1-1.6,1.6l-9.2,14.1c-0.6,1-1,2.3-0.6,3.3
		C101.6,30.5,102.2,31.5,103.2,32.1z"/>
	<path d="M34.9,31.1c0.3,0.6,1,1,2,1.3c0.6,0.3,1,0.3,1.6,0.3c1,0,2-0.3,2.6-1c1-0.6,1.6-1.6,1.6-2.9c0-1.3-0.3-2.3-1-3.3L31.6,12.2
		c-0.6-0.6-1-1-2-1.3h-0.3c-1.3-0.3-2.9-0.3-4.3,0.6c-0.6,0.6-1.3,2-1.3,2.9c0,1.3,0,2.3,1,3.3L34.9,31.1z"/>
	<path d="M135.9,73.7l-28.8-31.7c-1-1-2-1.6-3.3-1.6H40.4c0,0-0.3,0-0.6,0c-1,0-2.3,0.6-2.9,1.6L8.1,73.7c-1.6,1.6-1.6,4.6,0,6.2
		l60.8,60.8c0.6,0.6,2,1.3,3.3,1.3c1.3,0,2.3-0.3,3.3-1.3l60.8-60.8C137.5,78.2,137.5,75.3,135.9,73.7z M122.5,72h-21.6L90.1,49.1
		h11.8L122.5,72z M91.1,81.2l-19.3,44.8L52.5,81.2H91.1z M52.8,72l10.8-22.9h16L90.5,72H52.8z M43,81.2l15.7,36.3L22.1,81.2H43z
		 M53.8,49.4L43,72.3H21.4L42,49.4H53.8z M121.5,81.2l-36.3,36.3l15.7-36.3H121.5z"/>
	<path d="M71.8,27.9L71.8,27.9c1.6,0,2.9-1,3.9-2.3c0.3-0.6,0.6-1.3,0.6-2.3l0.3-16.7c0-1.3-0.3-2.3-1.3-3.3c-1-1-2-1.3-3.3-1.3l0,0
		c-1.3,0-2.9,0.6-3.6,2v0.3c-0.3,0.6-0.6,1.3-0.6,2.3l-0.3,16.7c0,1.3,0.3,2.3,1.3,3.3C69.5,27.5,70.8,27.9,71.8,27.9z"/>
</g>
</svg>
