<?xml version="1.0" encoding="utf-8"?>
<!-- Generator: Adobe Illustrator 25.1.0, SVG Export Plug-In . SVG Version: 6.00 Build 0)  -->
<svg version="1.1" id="Layer_1" xmlns="http://www.w3.org/2000/svg" xmlns:xlink="http://www.w3.org/1999/xlink" x="0px" y="0px"
	 viewBox="0 0 144 144" style="enable-background:new 0 0 144 144;" xml:space="preserve">
<style type="text/css">
	.st0{fill-rule:evenodd;clip-rule:evenodd;}
</style>
<g>
	<g>
		<g>
			<path d="M129.9,60.5c-5.1,0-9.5,3.5-10.9,8.2h-17.4V56.1h10.7c1.8,0,3.3-1.5,3.3-3.3V34.9c1.8-0.6,3.5-1.4,4.8-2.9
				c2.1-2.1,3.3-5,3.3-8c0-6.3-5.1-11.5-11.5-11.5s-11.5,5.1-11.5,11.5c0,5.1,3.5,9.5,8.2,10.9v14.5h-8.5c-1.8-4.4-6.2-7.6-11.3-7.6
				H74.7V24.7c4.7-1.4,8.2-5.7,8.2-10.9c0-6.3-5.1-11.5-11.5-11.5S59.9,7.5,59.9,13.8c0,5.1,3.5,9.5,8.2,10.9v17.2H53.6
				c-5.1,0-9.5,3.2-11.3,7.6h-8.5V35c4.7-1.4,8.2-5.7,8.2-10.9c0-6.3-5.1-11.5-11.5-11.5S19,17.7,19,24.1c0,5.1,3.5,9.5,8.2,10.9
				v17.8c0,1.8,1.5,3.3,3.3,3.3h10.7v12.5H24.4c-1.4-4.7-5.7-8.2-10.9-8.2C7.1,60.5,2,65.7,2,72s5.1,11.5,11.5,11.5
				c5.1,0,9.5-3.5,10.9-8.2h17.4v12.5H31.1c-1.8,0-3.3,1.5-3.3,3.3v18c-4.7,1.4-8.2,5.7-8.2,10.9c0,6.3,5.1,11.5,11.5,11.5
				s11.5-5.1,11.5-11.5c0-5.1-3.5-9.5-8.2-10.9V94.5h8.5c1.8,4.4,6.2,7.6,11.3,7.6h14.5v17.2c-4.7,1.4-8.2,5.7-8.2,10.9
				c0,6.3,5.1,11.5,11.5,11.5s11.5-5.1,11.5-11.5c0-5.1-3.5-9.5-8.2-10.9v-17.2h14.5c5.1,0,9.5-3.2,11.3-7.6h8.5v14.7
				c-4.7,1.4-8.2,5.7-8.2,10.9c0,6.3,5.1,11.5,11.5,11.5s11.5-5.1,11.5-11.5c0-5.1-3.5-9.5-8.2-10.9v-18c0-1.8-1.5-3.3-3.3-3.3
				h-10.7V75.3h17.4c1.4,4.7,5.7,8.2,10.9,8.2c6.3,0,11.5-5.1,11.5-11.5C141.4,65.5,136.2,60.5,129.9,60.5z M107.5,24.1
				c0-2.7,2.3-4.8,4.8-4.8c2.7,0,4.8,2.3,4.8,4.8c0,1.4-0.6,2.6-1.4,3.5c-0.9,0.9-2.1,1.4-3.5,1.4C109.8,28.9,107.5,26.8,107.5,24.1
				z M66.9,13.8c0-2.7,2.3-4.8,4.8-4.8c2.7,0,4.8,2.3,4.8,4.8c0,2.7-2.3,4.8-4.8,4.8C69,18.8,66.9,16.6,66.9,13.8z M26.1,24.1
				c0-2.7,2.3-4.8,4.8-4.8c2.7,0,4.8,2.3,4.8,4.8c0,2.7-2.3,4.8-4.8,4.8C28.4,28.9,26.1,26.8,26.1,24.1z M13.5,76.8
				c-2.7,0-4.8-2.3-4.8-4.8c0-2.6,2.3-4.8,4.8-4.8s4.8,2.3,4.8,4.8S16.1,76.8,13.5,76.8z M35.9,119.7c0,2.7-2.3,4.8-4.8,4.8
				c-2.7,0-4.8-2.3-4.8-4.8c0-2.7,2.3-4.8,4.8-4.8S35.9,117.2,35.9,119.7z M76.5,129.8c0,2.7-2.3,4.8-4.8,4.8
				c-2.7,0-4.8-2.1-4.8-4.8c0-2.7,2.3-4.8,4.8-4.8C74.4,124.8,76.5,127.1,76.5,129.8z M117.3,119.7c0,2.7-2.3,4.8-4.8,4.8
				c-2.7,0-4.8-2.3-4.8-4.8c0-2.7,2.3-4.8,4.8-4.8C115,114.9,117.3,117.2,117.3,119.7z M95.1,89.5c0,3.2-2.6,5.7-5.7,5.7H54
				c-3.2,0-5.7-2.6-5.7-5.7V54.1c0-3.2,2.6-5.7,5.7-5.7h35.5c3.2,0,5.7,2.6,5.7,5.7v35.3H95.1z M129.9,76.8c-2.7,0-4.8-2.3-4.8-4.8
				c0-2.6,2.3-4.8,4.8-4.8c2.7,0,4.8,2.3,4.8,4.8S132.6,76.8,129.9,76.8z"/>
			<path d="M68.4,83.4c-1.1,0-2.3-0.5-3.1-1.3l-7.4-7.9c-1.6-1.8-1.5-4.5,0.2-6.1c0.9-0.8,2-1.2,3.2-1.1c1.1,0.1,2.1,0.6,2.9,1.4
				l4.4,4.5l10.6-11.2c1.6-1.6,4.4-1.7,6-0.2c1.7,1.7,1.8,4.2,0.2,6.1L71.6,82C70.8,82.9,69.7,83.4,68.4,83.4z"/>
		</g>
	</g>
</g>
</svg>
