<?xml version="1.0" encoding="utf-8"?>
<!-- Generator: Adobe Illustrator 25.0.0, SVG Export Plug-In . SVG Version: 6.00 Build 0)  -->
<svg version="1.1" id="Layer_1" xmlns="http://www.w3.org/2000/svg" xmlns:xlink="http://www.w3.org/1999/xlink" x="0px" y="0px"
	 viewBox="0 0 144 144" style="enable-background:new 0 0 144 144;" xml:space="preserve">
<g>
	<path d="M70.89,47.49l14.19,8.19L69.72,71.04L63,64.32c-2.21-2.21-5.8-2.21-8.01,0s-2.21,5.8,0,8.01l10.73,10.72
		c2.21,2.21,5.8,2.21,8.01,0l18.09-18.09v18.75c0,0.71-0.38,1.38-1,1.73l-19.92,11.5c-0.62,0.36-1.38,0.36-2,0l-19.92-11.5
		c-0.62-0.36-1-1.02-1-1.73v-23c0-0.71,0.38-1.38,1-1.73l19.92-11.5C69.51,47.13,70.27,47.13,70.89,47.49z M61.22,66.1
		c-1.23-1.23-3.22-1.23-4.45,0c-1.23,1.23-1.23,3.22,0,4.45L67.5,81.27c1.23,1.23,3.22,1.23,4.45,0l22.62-22.62
		c1.23-1.23,1.23-3.22,0-4.45c-1.23-1.23-3.22-1.23-4.44,0l-20.4,20.4L61.22,66.1z"/>
</g>
</svg>
