<svg id="Layer_1" data-name="Layer 1" xmlns="http://www.w3.org/2000/svg" viewBox="0 0 200 100"><defs><style>.cls-1{fill:#231f20;}</style></defs><path class="cls-1" d="M100,4.46A45.54,45.54,0,1,0,145.54,50,45.59,45.59,0,0,0,100,4.46Zm0,87.08A41.54,41.54,0,1,1,141.54,50,41.58,41.58,0,0,1,100,91.54Z"/><path class="cls-1" d="M94.8,42.1q0,7.78-2.8,11.71t-8.25,3.91a9.16,9.16,0,0,1-8-4q-2.83-4.05-2.83-11.57,0-15.5,10.81-15.49a9.45,9.45,0,0,1,8.18,4Q94.8,34.64,94.8,42.1Zm-15.25.06a21.54,21.54,0,0,0,1,7.53,3.35,3.35,0,0,0,3.22,2.47q4.47,0,4.47-10t-4.47-10a3.35,3.35,0,0,0-3.22,2.47A21.51,21.51,0,0,0,79.55,42.16ZM117,27.32,89.51,76.87H82.94l27.48-49.55ZM127.06,62q0,7.79-2.81,11.69a9.48,9.48,0,0,1-8.2,3.9,9.24,9.24,0,0,1-8-4q-2.85-4-2.85-11.57,0-15.49,10.85-15.49a9.42,9.42,0,0,1,8.11,4Q127.07,54.46,127.06,62Zm-15.25,0a21.46,21.46,0,0,0,1,7.55A3.39,3.39,0,0,0,116.05,72q4.44,0,4.44-10.06T116.05,52a3.38,3.38,0,0,0-3.24,2.44A20.86,20.86,0,0,0,111.81,62Z"/></svg>