<svg id="Layer_1" data-name="Layer 1" xmlns="http://www.w3.org/2000/svg" viewBox="0 0 200 100"><defs><style>.cls-1{fill:#231f20;}</style></defs><path class="cls-1" d="M158,33H148V29a4,4,0,0,0-4-4h-4a4,4,0,0,0-4,4v4H108V29a4,4,0,0,0-4-4h-4a4,4,0,0,0-4,4v4H86a2,2,0,0,0-2,2V93a2,2,0,0,0,2,2h72a2,2,0,0,0,2-2V35A2,2,0,0,0,158,33Zm-18-4h4v6h-4Zm-40,0h4v6h-4Zm-3.44,8A4,4,0,0,0,100,39h4a4,4,0,0,0,3.44-2h29.12A4,4,0,0,0,140,39h4a4,4,0,0,0,3.44-2H156v6H88V37ZM88,91V47h68V91Z"/><path class="cls-1" d="M106,51H94a2,2,0,0,0-2,2V65a2,2,0,0,0,2,2h12a2,2,0,0,0,2-2V53A2,2,0,0,0,106,51Zm-2,12H96V55h8Z"/><path class="cls-1" d="M106,71H94a2,2,0,0,0-2,2V85a2,2,0,0,0,2,2h12a2,2,0,0,0,2-2V73A2,2,0,0,0,106,71Zm-2,12H96V75h8Z"/><path class="cls-1" d="M128,51H116a2,2,0,0,0-2,2V65a2,2,0,0,0,2,2h12a2,2,0,0,0,2-2V53A2,2,0,0,0,128,51Zm-2,12h-8V55h8Z"/><path class="cls-1" d="M128,71H116a2,2,0,0,0-2,2V85a2,2,0,0,0,2,2h12a2,2,0,0,0,2-2V73A2,2,0,0,0,128,71Zm-2,12h-8V75h8Z"/><path class="cls-1" d="M150,51H138a2,2,0,0,0-2,2V65a2,2,0,0,0,2,2h12a2,2,0,0,0,2-2V53A2,2,0,0,0,150,51Zm-2,12h-8V55h8Z"/><path class="cls-1" d="M150,71H138a2,2,0,0,0-2,2V85a2,2,0,0,0,2,2h12a2,2,0,0,0,2-2V73A2,2,0,0,0,150,71Zm-2,12h-8V75h8Z"/><path class="cls-1" d="M92.52,22,96,20A30,30,0,1,0,70,65a29.77,29.77,0,0,0,10.71-2l-1.43-3.74A25.66,25.66,0,0,1,70,61,26,26,0,1,1,92.52,22Z"/><path class="cls-1" d="M68,33.76,57.11,39.21l1.79,3.58,12-6A2,2,0,0,0,72,35V15H68Z"/></svg>