<?xml version="1.0" encoding="utf-8"?>
<!-- Generator: Adobe Illustrator 25.1.0, SVG Export Plug-In . SVG Version: 6.00 Build 0)  -->
<svg version="1.1" id="Layer_1" xmlns="http://www.w3.org/2000/svg" xmlns:xlink="http://www.w3.org/1999/xlink" x="0px" y="0px"
	 viewBox="0 0 144 144" style="enable-background:new 0 0 144 144;" xml:space="preserve">
<style type="text/css">
	.st0{fill-rule:evenodd;clip-rule:evenodd;}
</style>
<g>
	<g>
		<path d="M43.6,72.8c-0.4,0.8-0.3,1.7,0.2,2.4l13.6,18.1c0.4,0.6,1.1,0.9,1.9,0.9h25.1c0.9,0,1.7-0.5,2.1-1.3
			c0.4-0.8,0.3-1.7-0.2-2.4L72.7,72.4c-0.4-0.6-1.1-0.9-1.9-0.9H45.7C44.8,71.5,44,72,43.6,72.8z M56.7,84.5h7.5l3.8,5.1h-7.5
			L56.7,84.5z M72.2,89.6l-3.8-5.1H76l3.8,5.1H72.2z M73.4,81.2h-7.5l-3.8-5.1h7.5L73.4,81.2z M57.9,76.2l3.8,5.1h-7.5l-3.8-5.1
			H57.9z"/>
		<g>
			<path d="M93.2,140.8H12.9c-1.7,0-3.1-1.4-3.1-3.1v-35.2H5.1c-1.2,0-2.3-0.7-2.8-1.7c-0.5-1.1-0.4-2.3,0.3-3.3l24.8-32.9
				c0.1-0.1,0.2-0.2,0.2-0.3l0-0.1l0.2-0.2c0.1-0.1,0.2-0.2,0.4-0.2l0.1-0.1c0.1-0.1,0.3-0.1,0.4-0.2c0.1,0,0.1,0,0.2-0.1
				c0.1,0,0.3-0.1,0.4-0.1l0.1,0c0.1,0,0.2,0,0.3,0h45.6c1,0,1.9,0.5,2.5,1.2l24.8,32.9c0.7,0.9,0.8,2.2,0.3,3.3
				c-0.5,1.1-1.6,1.7-2.8,1.7H54.7c-1,0-1.9-0.5-2.5-1.2L29.9,71.6L11.4,96.2h1.7L29.8,74l2.2,3.2l-16,22c0,0,0,0.1,0,0.1v35.2h39.1
				v-29.2h6.3v29.2h28.7v-29.2h6.3v32.3C96.3,139.4,94.9,140.8,93.2,140.8z M56.3,96.2H94L73.9,69.6h-3.5l0,0H36.2L56.3,96.2z"/>
		</g>
	</g>
	<path class="st0" d="M114.2,3.2L98.5,14.9l16.7,10.4l-0.2-5.7c4.1,1.4,7.8,3.8,10.8,6.8c5.1,5.1,8.3,12.2,8.3,20.1
		c0,7.8-3.2,14.9-8.3,20.1c-5.1,5.1-12.2,8.3-20.1,8.3c-4.9,0-13.5-1.2-17.5-3.4l7.2,10c0,0,5.5,1.4,10.3,1.4
		c10,0,19.1-4.1,25.7-10.6c6.6-6.6,10.6-15.7,10.6-25.7s-4.1-19.1-10.6-25.7c-4.6-4.6-10.3-7.9-16.8-9.5L114.2,3.2z"/>
	<path class="st0" d="M106.7,31.7c1.7,0.5,3.3,1.4,4.5,2.8c1.5,1.7,2.2,4,2.3,6.3c0,0.2,0,0.4,0,0.6v0l-6-0.2v-0.1
		c0-0.1,0-0.2,0-0.3c0-0.9-0.3-1.8-0.8-2.4c-0.6-0.7-1.6-1-2.5-1.1c-0.1,0-0.3,0-0.4,0c-1,0-1.9,0.3-2.6,1c-0.4,0.4-0.7,1-0.9,1.5
		c-0.1,0.5-0.2,1.1,0,1.6c0.1,0.4,0.3,0.8,0.7,1l4.1,2.3l4.3,2.3l0.1,0.1c1.8,1.1,3,2.7,3.6,4.7c0.4,1.6,0.4,3.2,0,4.8
		c-0.5,1.6-1.3,3.1-2.5,4.3c-1,1-2.3,1.7-3.7,2.1v4.4h-6V63c-1.7-0.5-3.3-1.4-4.5-2.8c-1.5-1.7-2.2-4-2.3-6.3c0-0.2,0-0.4,0-0.6
		l6-0.2l0,0.5c0,0.1,0,0.2,0,0.3c0,0.9,0.3,1.8,0.8,2.4c0.6,0.7,1.6,1,2.5,1.1c0.1,0,0.3,0,0.4,0c1,0,1.9-0.3,2.6-1
		c0.4-0.4,0.8-1,0.9-1.5c0.1-0.5,0.2-1.1,0-1.6c-0.1-0.4-0.3-0.8-0.7-1.1l-4.3-2.3l0,0L98,47.6l-0.1,0c-1.8-1-3-2.7-3.5-4.7
		c-0.4-1.6-0.4-3.2,0-4.8c0.5-1.6,1.3-3.1,2.5-4.3c1.1-1,2.3-1.7,3.7-2.1v-4.4h6L106.7,31.7L106.7,31.7z"/>
</g>
</svg>
