<?xml version="1.0" encoding="utf-8"?>
<!-- Generator: Adobe Illustrator 25.1.0, SVG Export Plug-In . SVG Version: 6.00 Build 0)  -->
<svg version="1.1" id="Layer_1" xmlns="http://www.w3.org/2000/svg" xmlns:xlink="http://www.w3.org/1999/xlink" x="0px" y="0px"
	 viewBox="0 0 144 144" style="enable-background:new 0 0 144 144;" xml:space="preserve">
<style type="text/css">
	.st0{fill-rule:evenodd;clip-rule:evenodd;}
</style>
<g>
	<rect x="2" y="38.3" width="4.7" height="4.7"/>
	<path d="M9,140.7h65.3V136H9c-1.3,0-2.3-1-2.3-2.3v-86H2v86C2,137.5,5.1,140.7,9,140.7z"/>
	<path d="M81.3,24c0-1.3-1-2.3-2.3-2.3H18.3c-1.3,0-2.3,1-2.3,2.3v23.3c0,1.3,1,2.3,2.3,2.3H79c1.3,0,2.3-1,2.3-2.3V24z M76.7,45
		h-56V26.3h56V45z"/>
	<path d="M16,75.7c0,1.3,1,2.3,2.3,2.3h14c1.3,0,2.3-1,2.3-2.3v-14c0-1.3-1-2.3-2.3-2.3h-14c-1.3,0-2.3,1-2.3,2.3V75.7z M20.7,64H30
		v9.3h-9.3V64z"/>
	<path d="M58,61.7c0-1.3-1-2.3-2.3-2.3h-14c-1.3,0-2.3,1-2.3,2.3v14c0,1.3,1,2.3,2.3,2.3h14c1.3,0,2.3-1,2.3-2.3V61.7z M53.3,73.3
		H44V64h9.3V73.3z"/>
	<path d="M16,99c0,1.3,1,2.3,2.3,2.3h14c1.3,0,2.3-1,2.3-2.3V85c0-1.3-1-2.3-2.3-2.3h-14c-1.3,0-2.3,1-2.3,2.3V99z M20.7,87.3H30
		v9.3h-9.3V87.3z"/>
	<path d="M58,85c0-1.3-1-2.3-2.3-2.3h-14c-1.3,0-2.3,1-2.3,2.3v14c0,1.3,1,2.3,2.3,2.3h14c1.3,0,2.3-1,2.3-2.3V85z M53.3,96.7H44
		v-9.3h9.3V96.7z"/>
	<path d="M79,82.7H65c-1.3,0-2.3,1-2.3,2.3v37.3c0,1.3,1,2.3,2.3,2.3h14c1.3,0,2.3-1,2.3-2.3V85C81.3,83.7,80.3,82.7,79,82.7z
		 M76.7,120h-9.3V87.3h9.3V120z"/>
	<path d="M16,122.3c0,1.3,1,2.3,2.3,2.3h14c1.3,0,2.3-1,2.3-2.3v-14c0-1.3-1-2.3-2.3-2.3h-14c-1.3,0-2.3,1-2.3,2.3V122.3z
		 M20.7,110.7H30v9.3h-9.3V110.7z"/>
	<path d="M55.7,106h-14c-1.3,0-2.3,1-2.3,2.3v14c0,1.3,1,2.3,2.3,2.3h14c1.3,0,2.3-1,2.3-2.3v-14C58,107,57,106,55.7,106z M53.3,120
		H44v-9.3h9.3V120z"/>
	<path d="M81.3,61.7c0-1.3-1-2.3-2.3-2.3H65c-1.3,0-2.3,1-2.3,2.3v14c0,1.3,1,2.3,2.3,2.3h14c1.3,0,2.3-1,2.3-2.3V61.7z M76.7,73.3
		h-9.3V64h9.3V73.3z"/>
	<rect x="67.3" y="35.7" width="4.7" height="4.7"/>
	<rect x="58" y="35.7" width="4.7" height="4.7"/>
	<rect x="48.7" y="35.7" width="4.7" height="4.7"/>
	<path d="M142,57c0-14.2-11.5-25.6-25.6-25.7c-8.4,0-16.2,4.1-21,11V10.7c0-3.9-3.1-7-7-7H9c-3.9,0-7,3.1-7,7v23h4.7v-23
		c0-1.3,1-2.3,2.3-2.3h79.3c1.3,0,2.3,1,2.3,2.3v123c0,1.3-1,2.3-2.3,2.3H79v4.7h9.3c1,0,2.1-0.2,3-0.7c0.4,0.4,1,0.7,1.7,0.7h37.3
		c1.3,0,2.3-1,2.3-2.3v-13.7h7c1.3,0,2.3-1,2.3-2.3v-28c0-1.3-1-2.3-2.3-2.3h-7V80.3c0-1.1-0.7-2-1.8-2.2
		C137.8,73.3,142,65.4,142,57z M95.3,78v-6.3c1.7,2.4,3.9,4.6,6.3,6.3H95.3z M100,108.3V120h-4.7V96.7h4.7V108.3z M128,136H95.3
		v-11.3h4.7v4.7h4.7v-4.7h4.7v4.7h4.7v-4.7h4.7v4.7h4.7v-4.7h4.7V136z M137.3,120h-32.7v-9.3h4.7v4.7h4.7v-4.7h4.7v4.7h4.7v-4.7h4.7
		v4.7h4.7v-4.7h4.7V120z M137.3,106h-32.7v-9.3h4.7v4.7h4.7v-4.7h4.7v4.7h4.7v-4.7h4.7v4.7h4.7v-4.7h4.7V106z M102.3,92h-7v-9.3h4.7
		v4.7h4.7v-4.7h4.7v4.7h4.7v-4.7h4.7v4.7h4.7v-4.7h4.7V92H102.3z M116.3,78c-11.6,0-21-9.4-21-21s9.4-21,21-21s21,9.4,21,21
		C137.3,68.6,127.9,78,116.3,78z"/>
	<path d="M118.7,40.7H114v4.7c-3.9,0-7,3.1-7,7s3.1,7,7,7h4.7c1.3,0,2.3,1,2.3,2.3s-1,2.3-2.3,2.3H107v4.7h7v4.7h4.7v-4.7
		c3.9,0,7-3.1,7-7s-3.1-7-7-7H114c-1.3,0-2.3-1-2.3-2.3c0-1.3,1-2.3,2.3-2.3h11.7v-4.7h-7V40.7z"/>
</g>
</svg>
