<?xml version="1.0" encoding="utf-8"?>
<!-- Generator: Adobe Illustrator 25.1.0, SVG Export Plug-In . SVG Version: 6.00 Build 0)  -->
<svg version="1.1" id="Layer_1" xmlns="http://www.w3.org/2000/svg" xmlns:xlink="http://www.w3.org/1999/xlink" x="0px" y="0px"
	 viewBox="0 0 144 144" style="enable-background:new 0 0 144 144;" xml:space="preserve">
<style type="text/css">
	.st0{fill-rule:evenodd;clip-rule:evenodd;}
</style>
<path d="M118.7,69.3c0-0.2,0-0.5,0-0.7c0-0.8,0.3-1.7,1-2.3c0.2-0.2,0.3-0.3,0.5-0.3c0.2,0,0.3-0.2,0.5-0.3c0.2,0,0.3-0.2,0.7-0.2
	c0.3,0,0.8,0,1.3,0c0.2,0,0.3,0.2,0.7,0.2c0.2,0.2,0.3,0.2,0.5,0.3c0.2,0.2,0.3,0.3,0.5,0.3c0.2,0.2,0.3,0.3,0.3,0.5
	c0.2,0.2,0.2,0.3,0.3,0.5s0.2,0.3,0.2,0.7c0,0.2,0,0.5,0,0.7s0,0.5,0,0.7c0,0.2-0.2,0.3-0.2,0.7c0,0.2-0.2,0.3-0.3,0.5
	s-0.2,0.3-0.3,0.5s-0.3,0.3-0.5,0.3c-0.2,0-0.3,0.2-0.5,0.3c-0.2,0-0.3,0.2-0.7,0.2c-0.2,0-0.5,0-0.7,0c-0.8,0-1.7-0.3-2.3-1
	c-0.2-0.2-0.3-0.3-0.3-0.5c-0.2-0.2-0.2-0.3-0.3-0.5C118.8,69.7,118.8,69.5,118.7,69.3z M105.3,72c0.8,0,1.7-0.3,2.3-1
	c0.7-0.7,1-1.5,1-2.3c0-0.8-0.3-1.7-1-2.3c-1.2-1.2-3.5-1.2-4.7,0c-0.7,0.7-1,1.5-1,2.3c0,0.8,0.3,1.7,1,2.3
	C103.7,71.7,104.5,72,105.3,72z M85.7,70c0,0.2,0.2,0.3,0.3,0.5c0.2,0.2,0.2,0.3,0.3,0.5c0.7,0.7,1.5,1,2.3,1c0.8,0,1.7-0.3,2.3-1
	c0.2-0.2,0.3-0.3,0.3-0.5c0.2-0.2,0.2-0.3,0.3-0.5c0.2-0.2,0.2-0.3,0.2-0.7c0-0.2,0-0.5,0-0.7s0-0.5,0-0.7s-0.2-0.3-0.2-0.7
	c0-0.2-0.2-0.3-0.3-0.5c-0.2-0.2-0.2-0.3-0.3-0.5c-1.2-1.3-3.5-1.3-4.7,0c-0.2,0.2-0.3,0.3-0.3,0.5c-0.2,0.2-0.2,0.3-0.3,0.5
	c-0.2,0.2-0.2,0.3-0.2,0.7c0,0.2,0,0.5,0,0.7s0,0.5,0,0.7C85.5,69.5,85.5,69.7,85.7,70z M119,86.7c0,0.2,0.2,0.3,0.3,0.5
	s0.2,0.3,0.3,0.5c0.3,0.3,0.7,0.5,1,0.7c0.5,0.3,0.8,0.3,1.3,0.3c0.2,0,0.5,0,0.7,0s0.5-0.2,0.7-0.2s0.3-0.2,0.5-0.3
	c0.2-0.2,0.3-0.2,0.5-0.3c0.2-0.2,0.3-0.3,0.3-0.5c0.2-0.2,0.2-0.3,0.3-0.5s0.2-0.3,0.2-0.7c0-0.2,0-0.5,0-0.7c0-0.8-0.3-1.7-1-2.3
	c-0.2-0.2-0.3-0.3-0.5-0.3c-0.2,0-0.3-0.2-0.5-0.3c-0.2,0-0.3-0.2-0.7-0.2c-1.2-0.2-2.2,0.2-3,0.8c-0.2,0.2-0.3,0.3-0.3,0.5
	c-0.2,0.2-0.2,0.3-0.3,0.5s-0.2,0.3-0.2,0.7c0,0.2,0,0.5,0,0.7s0,0.5,0,0.7C118.8,86.2,118.8,86.3,119,86.7z M102.3,86.7
	c0,0.2,0.2,0.3,0.3,0.5s0.3,0.3,0.5,0.5c0.5,0.7,1.3,1,2.2,1c0.2,0,0.5,0,0.7,0s0.5-0.2,0.7-0.2s0.3-0.2,0.5-0.3
	c0.2-0.2,0.3-0.2,0.5-0.3c0.2-0.2,0.3-0.3,0.3-0.5c0.2-0.2,0.2-0.3,0.3-0.5s0.2-0.3,0.2-0.7c0-0.2,0-0.5,0-0.7c0-0.8-0.3-1.7-1-2.3
	c-1.2-1.3-3.5-1.3-4.7,0c-0.5,0.5-0.8,1.3-0.8,2.2c0,0.2,0,0.5,0,0.7C102.2,86.2,102.2,86.3,102.3,86.7z M88.7,88.7
	c0.8,0,1.7-0.3,2.3-1c0.7-0.7,1-1.5,1-2.3c0-0.8-0.3-1.7-1-2.3c-1.2-1.3-3.5-1.3-4.7,0c-0.7,0.7-1,1.5-1,2.3c0,0.8,0.3,1.7,1,2.3
	C87,88.3,87.8,88.7,88.7,88.7z M119.7,104.3c0.3,0.3,0.7,0.5,1,0.7c0.5,0.3,0.8,0.3,1.3,0.3c0.2,0,0.5,0,0.7,0s0.5-0.2,0.7-0.2
	s0.3-0.2,0.5-0.3c0.2-0.2,0.3-0.2,0.5-0.3c0.3-0.3,0.5-0.7,0.7-1c0.3-0.7,0.3-1,0.3-1.5c0-0.8-0.3-1.7-1-2.3
	c-0.2-0.2-0.3-0.3-0.5-0.3c-0.2,0-0.3-0.2-0.5-0.3c-0.2,0-0.3-0.2-0.7-0.2c-1.2-0.2-2.2,0.2-3,0.8c-0.7,0.7-1,1.5-1,2.3
	c0,0.5,0,0.8,0.3,1.3C119,103.7,119.3,104,119.7,104.3z M103,104.3c0.7,0.7,1.5,1,2.3,1c0.2,0,0.5,0,0.7,0s0.5-0.2,0.7-0.2
	s0.3-0.2,0.5-0.3c0.2-0.2,0.3-0.2,0.5-0.3c0.3-0.3,0.5-0.7,0.7-1c0.3-0.7,0.3-1,0.3-1.5c0-0.8-0.3-1.7-1-2.3
	c-0.2-0.2-0.3-0.3-0.5-0.3s-0.3-0.2-0.5-0.3c-0.2,0-0.3-0.2-0.7-0.2c-1.2-0.2-2.2,0.2-3,0.8c-0.7,0.7-1,1.5-1,2.3
	c0,0.5,0,0.8,0.3,1.3C102.3,103.7,102.7,104,103,104.3z M87.3,105c0.5,0.3,0.8,0.3,1.3,0.3c0.2,0,0.5,0,0.7,0c0.2,0,0.5-0.2,0.7-0.2
	c0.2,0,0.3-0.2,0.5-0.3c0.2-0.2,0.3-0.2,0.5-0.3c0.7-0.8,1-1.7,1-2.5s-0.3-1.7-1-2.3c-1.2-1.3-3.5-1.3-4.7,0c-0.7,0.7-1,1.5-1,2.3
	s0.3,1.7,1,2.3C86.7,104.7,87,105,87.3,105z M120.7,121.7c0.5,0.3,0.8,0.3,1.3,0.3c0.2,0,0.5,0,0.7,0s0.5-0.2,0.7-0.2
	s0.3-0.2,0.5-0.3c0.2-0.2,0.3-0.3,0.5-0.5c0.7-0.7,1-1.5,1-2.3c0-0.2,0-0.5,0-0.7s-0.2-0.5-0.2-0.7s-0.2-0.3-0.3-0.5
	c-0.2-0.2-0.2-0.3-0.3-0.5c-0.2-0.2-0.3-0.3-0.5-0.3s-0.3-0.2-0.5-0.3c-0.2,0-0.3-0.2-0.7-0.2c-0.5,0-0.8,0-1.3,0
	c-0.2,0-0.5,0.2-0.7,0.2c-0.2,0.2-0.3,0.2-0.5,0.3s-0.3,0.3-0.5,0.3c-0.2,0.2-0.3,0.3-0.3,0.5c-0.2,0.2-0.2,0.3-0.3,0.5
	c-0.2,0.2-0.2,0.3-0.2,0.7c0,0.2,0,0.5,0,0.7c0,0.8,0.3,1.7,1,2.3C120,121.3,120.3,121.7,120.7,121.7z M105.3,122
	c0.8,0,1.7-0.3,2.3-1c0.7-0.7,1-1.5,1-2.3c0-0.2,0-0.5,0-0.7s-0.2-0.5-0.2-0.7s-0.2-0.3-0.3-0.5c-0.2-0.2-0.2-0.3-0.3-0.5
	c-1.2-1.3-3.5-1.3-4.7,0c-0.2,0.2-0.3,0.3-0.3,0.5c-0.2,0.2-0.2,0.3-0.3,0.5c-0.2,0.2-0.2,0.3-0.2,0.7c0,0.2,0,0.5,0,0.7
	c0,0.8,0.3,1.7,1,2.3C103.7,121.7,104.5,122,105.3,122z M87.3,121.7c0.5,0.3,0.8,0.3,1.3,0.3c0.5,0,0.8,0,1.3-0.3
	c0.3-0.2,0.8-0.3,1-0.7c0.7-0.7,1-1.5,1-2.3c0-0.2,0-0.5,0-0.7s-0.2-0.5-0.2-0.7s-0.2-0.3-0.3-0.5c-0.2-0.2-0.2-0.3-0.3-0.5
	c-1.2-1.3-3.5-1.3-4.7,0c-0.2,0.2-0.3,0.3-0.3,0.5c-0.2,0.2-0.2,0.3-0.3,0.5c-0.2,0.2-0.2,0.3-0.2,0.7c0,0.2,0,0.5,0,0.7
	c0,0.8,0.3,1.7,1,2.3C86.7,121.3,87,121.7,87.3,121.7z M27,113.7c-5.3-5.3-8.3-12.5-8.3-20s3-14.7,8.3-20c11-11,29-11,40,0
	c5.3,5.3,8.3,12.5,8.3,20s-3,14.7-8.3,20S54.5,122,47,122S32.3,119,27,113.7z M25.3,93.7c0,5.8,2.2,11.2,6.3,15.3
	c4.2,4.2,9.5,6.3,15.3,6.3s11.2-2.3,15.3-6.3c4.2-4.2,6.3-9.5,6.3-15.3c0-5.8-2.2-11.2-6.3-15.3S52.5,72,47,72s-11.2,2.2-15.3,6.3
	C27.5,82.5,25.3,87.8,25.3,93.7z M142,32v93.3c0,7.3-6,13.3-13.3,13.3H15.3c-7.3,0-13.3-6-13.3-13.3V32c0-7.3,6-13.3,13.3-13.3h3.3
	V17c0-6.5,5.2-11.7,11.7-11.7S42,10.5,42,17v1.7h18.3V17c0-6.5,5.2-11.7,11.7-11.7S83.7,10.5,83.7,17v1.7H102V17
	c0-6.5,5.2-11.7,11.7-11.7c6.5,0,11.7,5.2,11.7,11.7v1.7h3.3C136,18.7,142,24.7,142,32z M108.7,27c0,2.7,2.2,5,5,5s5-2.3,5-5V17
	c0-2.8-2.2-5-5-5s-5,2.2-5,5V27z M67,27c0,2.7,2.2,5,5,5s5-2.3,5-5V17c0-2.8-2.2-5-5-5s-5,2.2-5,5V27z M25.3,27c0,2.7,2.2,5,5,5
	s5-2.3,5-5V17c0-2.8-2.2-5-5-5s-5,2.2-5,5V27z M135.3,55.3H8.7v70c0,3.7,3,6.7,6.7,6.7h113.3c3.7,0,6.7-3,6.7-6.7V55.3z M135.3,32
	c0-3.7-3-6.7-6.7-6.7h-3.3V27c0,6.5-5.2,11.7-11.7,11.7c-6.5,0-11.7-5.2-11.7-11.7v-1.7H83.7V27c0,6.5-5.2,11.7-11.7,11.7
	S60.3,33.5,60.3,27v-1.7H42V27c0,6.5-5.2,11.7-11.7,11.7S18.7,33.5,18.7,27v-1.7h-3.3c-3.7,0-6.7,3-6.7,6.7v16.7h126.7V32z
	 M43.8,94.7c0,0.2,0,0.2,0.2,0.3c0,0.2,0.2,0.2,0.2,0.3c0,0,0,0.2,0.2,0.3s0.2,0.3,0.3,0.5l0,0l5.8,5.8c0.7,0.7,1.5,1,2.3,1
	c0.8,0,1.7-0.3,2.3-1c1.3-1.3,1.3-3.5,0-4.7l-5-5v-7c0-1.8-1.5-3.3-3.3-3.3c-1.8,0-3.3,1.5-3.3,3.3v8.3c0,0.2,0,0.5,0,0.7
	C43.7,94.5,43.8,94.5,43.8,94.7z"/>
</svg>
