<?xml version="1.0" encoding="utf-8"?>
<!-- Generator: Adobe Illustrator 25.1.0, SVG Export Plug-In . SVG Version: 6.00 Build 0)  -->
<svg version="1.1" id="Layer_1" xmlns="http://www.w3.org/2000/svg" xmlns:xlink="http://www.w3.org/1999/xlink" x="0px" y="0px"
	 viewBox="0 0 144 144" style="enable-background:new 0 0 144 144;" xml:space="preserve">
<style type="text/css">
	.st0{fill-rule:evenodd;clip-rule:evenodd;}
</style>
<g>
	<path d="M75,50.4c-9.8,0-17.7-8-17.7-17.7c0-9.8,8-17.7,17.7-17.7c4.7,0,9.2,1.9,12.5,5.2c3.3,3.3,5.2,7.8,5.2,12.5
		c0,4.7-1.8,9.2-5.2,12.5C84.2,48.5,79.7,50.4,75,50.4z M75,20.2c-6.9,0-12.4,5.6-12.4,12.4S68.1,45.1,75,45.1
		c6.9,0,12.4-5.6,12.4-12.4c0-3.3-1.3-6.4-3.6-8.8C81.5,21.6,78.3,20.3,75,20.2L75,20.2z"/>
	<path d="M126.6,97.8c-0.6,0-1.2-0.2-1.7-0.7l-8.1-8.1c-0.9-0.9-0.9-2.4,0-3.3c0.9-0.9,2.4-0.9,3.3,0l4.1,4.1V79.7h-47v10.1l4.1-4.1
		c0.9-0.9,2.4-0.9,3.3,0c0.9,0.9,0.9,2.4,0,3.3l-8.1,8.1c-0.9,0.9-2.4,0.9-3.3,0l-8.1-8.1c-0.9-0.9-0.9-2.4,0-3.3
		c0.9-0.9,2.4-0.9,3.3,0l4.1,4.1V79.6h-47v10.1l4.1-4.1c0.9-0.9,2.4-0.9,3.3,0c0.4,0.4,0.7,1,0.7,1.7c0,0.6-0.2,1.2-0.7,1.7
		l-8.1,8.1c-0.9,0.9-2.4,0.9-3.3,0l-8.1-8.1c-0.4-0.4-0.7-1-0.7-1.7c0-0.6,0.2-1.2,0.7-1.7c0.9-0.9,2.4-0.9,3.3,0l4.1,4.1V77.3
		c0-1.3,1-2.3,2.3-2.3h49.3v-8.3l4.7,0V75h49.4c1.3,0,2.3,1,2.3,2.3v12.4l4.1-4.1c0.9-0.9,2.4-0.9,3.3,0c0.4,0.4,0.7,1,0.7,1.7
		c0,0.6-0.2,1.2-0.7,1.7l-8.1,8.1C127.8,97.5,127.2,97.8,126.6,97.8z"/>
	<path d="M58.2,18.6c-0.7,0-1.4-0.3-1.9-0.8l-3-3c-0.5-0.5-0.8-1.2-0.7-1.9c0-0.7,0.3-1.4,0.8-1.9c1-1,2.6-1,3.7,0l3.1,3.1
		c1,1,1,2.7,0,3.7C59.6,18.3,58.9,18.6,58.2,18.6z"/>
	<path d="M94.8,55.1c-0.7,0-1.4-0.3-1.9-0.8l-3-3c-0.5-0.5-0.8-1.2-0.8-1.9c0-0.7,0.3-1.4,0.8-1.9c1-1,2.7-1,3.7,0l3,3.1
		c0.5,0.5,0.8,1.2,0.8,1.9c0,0.7-0.3,1.4-0.8,1.9S95.5,55.1,94.8,55.1z"/>
	<path d="M55.2,55.1c-1.5,0-2.7-1.2-2.7-2.7c0-0.7,0.3-1.4,0.8-1.9l3-3c0.5-0.5,1.2-0.8,1.9-0.8c0.7,0,1.4,0.3,1.9,0.7
		c0.5,0.5,0.8,1.2,0.8,1.9c0,0.7-0.3,1.4-0.7,1.9l-3.1,3.1C56.6,54.9,55.9,55.1,55.2,55.1z"/>
	<path d="M91.8,18.6c-1.5,0-2.7-1.2-2.7-2.7c0-0.7,0.3-1.4,0.8-1.9l3-3c1-1,2.7-1.1,3.7-0.1c1,1,1.1,2.7,0.1,3.7l-3.1,3.1
		C93.2,18.3,92.5,18.6,91.8,18.6z"/>
	<path d="M75,11.6c-1.5,0-2.7-1.2-2.7-2.7V4.7C72.3,3.2,73.5,2,75,2s2.7,1.2,2.7,2.7V9C77.6,10.4,76.5,11.6,75,11.6z"/>
	<path d="M51.3,35.3H47c-1.5,0-2.7-1.2-2.7-2.7c0-1.5,1.2-2.7,2.7-2.7h4.3c1.5,0,2.7,1.2,2.7,2.7C54,34.1,52.8,35.3,51.3,35.3z"/>
	<path d="M103,35.3h-4.3c-1.5,0-2.7-1.2-2.7-2.7c0-1.5,1.2-2.7,2.7-2.7h4.3c1.5,0,2.7,1.2,2.7,2.7C105.7,34.1,104.5,35.3,103,35.3z"
		/>
	<path d="M75,63.3c-1.5,0-2.7-1.2-2.7-2.6l0-4.3c0-1.5,1.2-2.7,2.6-2.7c1.5,0,2.7,1.2,2.7,2.6l0,4.3C77.7,62.1,76.5,63.3,75,63.3z"
		/>
	<path d="M17,142c-0.1,0-0.2,0-0.2,0c-0.3-0.1-0.5-0.4-0.5-0.8l0.9-14.9H7.7c-0.3,0-0.5-0.2-0.7-0.4c-0.1-0.2-0.1-0.5,0-0.8l16.7-24
		c0.2-0.3,0.6-0.4,0.9-0.3c0.3,0.2,0.5,0.5,0.4,0.9l-3.8,15l10.7-0.3c0.3,0,0.5,0.1,0.7,0.4c0.1,0.2,0.1,0.5,0,0.8l-15,24
		C17.5,141.9,17.3,142,17,142z"/>
	<path d="M69.5,142c-0.1,0-0.2,0-0.2,0c-0.3-0.1-0.5-0.4-0.5-0.8l0.9-14.9h-9.5c-0.3,0-0.5-0.2-0.7-0.4s-0.1-0.5,0-0.8l16.7-24
		c0.2-0.3,0.6-0.4,0.9-0.3c0.3,0.2,0.5,0.5,0.4,0.9l-3.8,15l10.7-0.3c0.3,0,0.5,0.1,0.7,0.4c0.1,0.2,0.1,0.5,0,0.8l-15,24
		C70,141.9,69.7,142,69.5,142z"/>
	<path d="M120.6,142c-0.1,0-0.2,0-0.2,0c-0.3-0.1-0.5-0.4-0.5-0.8l0.9-14.9h-9.5c-0.3,0-0.5-0.2-0.7-0.4c-0.1-0.2-0.1-0.5,0-0.8
		l16.7-24c0.2-0.3,0.6-0.4,0.9-0.3c0.3,0.2,0.5,0.5,0.4,0.9l-3.8,15l10.7-0.3c0.3,0,0.5,0.1,0.7,0.4c0.1,0.2,0.1,0.5,0,0.8l-15,24
		C121.1,141.9,120.9,142,120.6,142z"/>
</g>
</svg>
