<?xml version="1.0" encoding="utf-8"?>
<!-- Generator: Adobe Illustrator 25.1.0, SVG Export Plug-In . SVG Version: 6.00 Build 0)  -->
<svg version="1.1" id="Layer_1" xmlns="http://www.w3.org/2000/svg" xmlns:xlink="http://www.w3.org/1999/xlink" x="0px" y="0px"
	 viewBox="0 0 144 144" style="enable-background:new 0 0 144 144;" xml:space="preserve">
<style type="text/css">
	.st0{fill-rule:evenodd;clip-rule:evenodd;}
</style>
<g>
	<path d="M54.6,48c-1.8-0.4-3.7,0.7-4.1,2.6c-1.6,6.9-8.6,11.2-15.5,9.6c-1.9-0.4-3.8,0.8-4.2,2.7c-0.4,1.9,0.8,3.8,2.7,4.2
		c1.5,0.4,3,0.5,4.5,0.6c9.2,0,17.3-6.3,19.4-15.3c0.5-1.8-0.5-3.7-2.3-4.3C54.8,48,54.7,48,54.6,48z"/>
	<path d="M108.3,60.2c-6.9,1.7-14-2.5-15.7-9.5c0-0.1,0-0.1,0-0.2c-0.5-1.9-2.4-3-4.3-2.6c-1.9,0.5-3,2.4-2.6,4.3
		c2.5,10.6,13.1,17.3,23.7,14.8c0,0,0,0,0.1,0c1.9-0.4,3.1-2.3,2.7-4.2c-0.4-1.9-2.3-3.1-4.2-2.7L108.3,60.2z"/>
	<path d="M71.9,105.4c-5.1,0.1-9.7,2.9-12.2,7.3c-0.9,1.7-0.3,3.8,1.3,4.7c0.5,0.3,1.1,0.5,1.7,0.5c1.2,0,2.4-0.7,3-1.7
		c1.2-2.3,3.6-3.7,6.2-3.8l0,0c2.6,0.1,4.9,1.5,6.2,3.7c1,1.7,3.1,2.2,4.7,1.3c1.7-1,2.2-3.1,1.3-4.7
		C81.6,108.1,77,105.4,71.9,105.4z"/>
	<circle cx="92.3" cy="82.8" r="5.2"/>
	<circle cx="51" cy="82.8" r="5.2"/>
	<path d="M125,38.5c1.3-2.2,2-4.8,2-7.4c0-6.4-9-21.6-10.9-24.5L113.2,2l-2.9,4.6c0,0-4.1,6.5-6.9,12.8C71.8,2,32.1,13.6,14.7,45.2
		s-5.8,71.4,25.9,88.7s71.4,5.8,88.7-25.9c5.3-9.7,8.1-20.5,8.1-31.6C137.3,62.9,133,49.6,125,38.5z M113.2,15.2
		c3.1,4.9,5.4,10.3,6.9,16c0,1.9-0.8,3.7-2.1,5l0,0c-2.8,2.6-7.1,2.5-9.7-0.2c-1.2-1.3-1.9-3.1-1.9-4.9c0.3-2,0.9-3.9,1.8-5.7l0,0
		C109.6,22,111.3,18.6,113.2,15.2z M71.9,135c-32.4,0.3-58.8-25.8-59-58.1s25.8-58.8,58.1-59c10.3-0.1,20.5,2.6,29.5,7.7l0,0
		c-0.3,0.8-0.6,1.7-0.8,2.6v0.7c-0.1,0.7-0.1,1.5,0,2.2c-0.2,7.6,5.7,14,13.3,14.2c1.3,0,2.6-0.1,3.9-0.4h1L120,44h0.6
		c6.7,9.7,10.3,21.2,10.3,33C130.5,109.2,104.1,135.2,71.9,135z"/>
</g>
</svg>
