<?xml version="1.0" encoding="utf-8"?>
<!-- Generator: Adobe Illustrator 25.1.0, SVG Export Plug-In . SVG Version: 6.00 Build 0)  -->
<svg version="1.1" id="Layer_1" xmlns="http://www.w3.org/2000/svg" xmlns:xlink="http://www.w3.org/1999/xlink" x="0px" y="0px"
	 viewBox="0 0 144 144" style="enable-background:new 0 0 144 144;" xml:space="preserve">
<style type="text/css">
	.st0{fill-rule:evenodd;clip-rule:evenodd;}
</style>
<path d="M124.8,142H13.5C7.2,142,2,136.9,2,130.6V34c0-6.3,5.1-11.4,11.5-11.4h42.7l33.2-19C91,2.6,92.9,2,94.8,2
	c4.2-0.1,8.1,2.1,10.2,5.7l8.6,14.9h11.2c6.3,0,11.5,5.1,11.5,11.4v33h1.6c2.3,0,4.1,1.8,4.1,4.1v27.8c0,2.2-1.8,4.1-4.1,4.1h-1.6
	v27.7C136.3,136.9,131.1,142,124.8,142z M13.5,30.7c-1.9,0-3.3,1.4-3.3,3.3v96.6c0,1.9,1.4,3.2,3.3,3.2h111.3c1.9,0,3.3-1.4,3.3-3.2
	V103h-18.5c-10,0-18.1-8.1-18.1-18s8.1-18,18.1-18h18.5V44.2H17.7c-2.7,0-4.1-2.1-4.1-4.1c0-2,1.4-4.1,4.1-4.1h14.8l9.3-5.4H13.5z
	 M109.6,75.1c-5.6,0-9.9,4.3-9.9,9.8s4.4,9.8,9.9,9.8h24.2V75.1H109.6z M111.1,79.8c-2.9,0-5.2,2.3-5.2,5.2c0,2.9,2.3,5.2,5.2,5.2
	c2.9,0,5.2-2.3,5.2-5.2c0-1.4-0.5-2.7-1.5-3.6C113.8,80.3,112.5,79.8,111.1,79.8z M121.5,36.1h6.6V34c0-1.9-1.4-3.2-3.3-3.2h-6.4
	L121.5,36.1z M49,36.1h63.1L97.9,11.8c-0.6-1-1.5-1.6-2.6-1.6l0,0c-0.6,0-1.3,0.1-1.9,0.4L49,36.1z"/>
</svg>
