<?xml version="1.0" encoding="utf-8"?>
<!-- Generator: Adobe Illustrator 25.1.0, SVG Export Plug-In . SVG Version: 6.00 Build 0)  -->
<svg version="1.1" id="Layer_1" xmlns="http://www.w3.org/2000/svg" xmlns:xlink="http://www.w3.org/1999/xlink" x="0px" y="0px"
	 viewBox="0 0 144 144" style="enable-background:new 0 0 144 144;" xml:space="preserve">
<style type="text/css">
	.st0{fill-rule:evenodd;clip-rule:evenodd;}
</style>
<g>
	<path d="M140.5,38.6L73.2,3c-0.7-0.3-1.5-0.3-2.2,0L3.5,38.6c-1.1,0.5-1.7,1.8-1.5,3c0.3,1.2,1.3,2.1,2.6,2.1h134.7
		c1.2,0,2.3-0.9,2.6-2.1C142.2,40.3,141.6,39.1,140.5,38.6z"/>
	<path d="M139.8,139.9c0,0.7-0.6,1.3-1.3,1.3H5.5c-0.7,0-1.3-0.6-1.3-1.3v-9.2c0-0.7,0.6-1.3,1.3-1.3h132.9c0.7,0,1.3,0.6,1.3,1.3
		L139.8,139.9L139.8,139.9z"/>
	<g>
		<path d="M46,121.7h-2.6V51.4H23.1v70.2h-2.6c-1.5,0-2.6,1.2-2.6,2.6c0,1.5,1.2,2.6,2.6,2.6h5.3h15H46c1.5,0,2.6-1.2,2.6-2.6
			C48.6,122.8,47.5,121.7,46,121.7z"/>
		<path d="M123.6,121.7h-2.6V51.4h-20.3v70.2H98c-1.5,0-2.6,1.2-2.6,2.6c0,1.5,1.2,2.6,2.6,2.6h5.3h15h5.3c1.5,0,2.6-1.2,2.6-2.6
			C126.2,122.8,125,121.7,123.6,121.7z"/>
		<path d="M84.8,121.7h-2.6V51.4H61.9v70.2h-2.6c-1.5,0-2.6,1.2-2.6,2.6c0,1.5,1.2,2.6,2.6,2.6h5.3h15h5.3c1.5,0,2.6-1.2,2.6-2.6
			C87.4,122.8,86.2,121.7,84.8,121.7z"/>
	</g>
	<path d="M133.3,48.3c0,0.4-0.5,0.7-1.2,0.7H14.5c-0.7,0-1.2-0.3-1.2-0.7v-4.7c0-0.4,0.5-0.7,1.2-0.7h117.6c0.7,0,1.2,0.3,1.2,0.7
		L133.3,48.3L133.3,48.3z"/>
</g>
</svg>
