<?xml version="1.0" encoding="utf-8"?>
<!-- Generator: Adobe Illustrator 25.1.0, SVG Export Plug-In . SVG Version: 6.00 Build 0)  -->
<svg version="1.1" id="Layer_1" xmlns="http://www.w3.org/2000/svg" xmlns:xlink="http://www.w3.org/1999/xlink" x="0px" y="0px"
	 viewBox="0 0 144 144" style="enable-background:new 0 0 144 144;" xml:space="preserve">
<style type="text/css">
	.st0{fill-rule:evenodd;clip-rule:evenodd;}
</style>
<g>
	<path d="M68.8,48.9h-3.1c-0.7,0-1.5-0.6-1.6-1.3c-0.1-0.7-0.7-1.2-1.5-1.2h-3.5c-0.4,0-0.9,0.1-1.2,0.6c-0.3,0.3-0.4,0.7-0.4,1.2
		c0.4,3.7,3.2,6.6,6.9,7.4v2.8c0,0.9,0.7,1.6,1.6,1.6h3.5c0.9,0,1.6-0.7,1.6-1.6v-2.9c4-1,6.9-4.3,7.4-8.1c0.3-2.7-0.6-5.2-2.4-7.2
		c-1.8-1.9-4.3-3.1-6.9-3.1h-2.7c-0.7,0-1.5-0.3-2.1-0.9c-0.4-0.6-0.7-1.3-0.7-2.1c0.1-1.3,1.5-2.4,2.9-2.4h3.1
		c0.7,0,1.5,0.6,1.6,1.3c0.1,0.7,0.7,1.2,1.5,1.2h3.5c0.4,0,0.9-0.1,1.2-0.6c0.3-0.3,0.4-0.7,0.4-1.2c-0.4-3.7-3.2-6.6-6.9-7.2v-2.8
		c0-0.9-0.7-1.6-1.6-1.6H66c-0.9,0-1.6,0.7-1.6,1.6v2.8c-4.6,1-7.8,5.3-7.4,10c0.4,4.7,4.7,8.4,9.7,8.4h2.4c0.7,0,1.5,0.3,1.9,0.9
		c0.6,0.6,0.7,1.3,0.7,2.1C71.6,47.8,70.3,48.9,68.8,48.9z"/>
	<path d="M103,88.9H76.3c-2.2,0-4,1.8-4,4c0,2.2,1.8,4,4,4h26.8c2.2,0,4-1.8,4-4S105.2,88.9,103,88.9z"/>
	<path d="M103,70.5H61.6c-2.2,0-4,1.8-4,4c0,2.2,1.8,4,4,4h41.6c2.2,0,4-1.8,4-4C107.1,72.3,105.2,70.5,103,70.5z"/>
	<path d="M103,52.1H89c-2.2,0-4,1.8-4,4s1.8,4.1,4,4.1h14.1c2.2,0,4-1.8,4-4C107.1,54,105.2,52.1,103,52.1z"/>
	<path d="M127.8,33.2L97.7,3.2C97,2.4,95.9,2,94.9,2H39.8c-2.2,0-4,1.8-4,4v78.5c-14,1.9-24.9,14-24.9,28.6c0,15.9,13,28.9,29,28.9
		c14,0,25.6-9.9,28.3-23.1h56.9c2.2,0,4-1.8,4-4V36C128.9,35,128.5,34,127.8,33.2z M98.9,15.7l16.4,16.4H98.9V15.7z M39.8,134
		c-11.5,0-20.9-9.4-20.9-20.9s9.4-20.9,20.9-20.9s20.9,9.3,20.9,20.9S51.3,134,39.8,134z M68.5,110.9c-1-13.6-11.3-24.5-24.8-26.4
		V10h47.1V36c0,2.2,1.8,4,4,4H121v70.9L68.5,110.9L68.5,110.9z"/>
	<path d="M45.2,104.4l-8.3,9.4l-3.8-3.8c-1.6-1.6-4.1-1.6-5.6,0c-1.6,1.6-1.6,4.1,0,5.6l6.8,6.8c0.7,0.7,1.8,1.2,2.8,1.2h0.1
		c1.2,0,2.2-0.6,2.9-1.3l11.1-12.5c1.5-1.6,1.3-4.1-0.3-5.6C49.2,102.6,46.7,102.8,45.2,104.4z"/>
</g>
</svg>
