<?xml version="1.0" encoding="utf-8"?>
<!-- Generator: Adobe Illustrator 25.1.0, SVG Export Plug-In . SVG Version: 6.00 Build 0)  -->
<svg version="1.1" id="Layer_1" xmlns="http://www.w3.org/2000/svg" xmlns:xlink="http://www.w3.org/1999/xlink" x="0px" y="0px"
	 viewBox="0 0 144 144" style="enable-background:new 0 0 144 144;" xml:space="preserve">
<style type="text/css">
	.st0{fill-rule:evenodd;clip-rule:evenodd;}
</style>
<g>
	<g>
		<g>
			<path d="M37.1,56.7h18.7v37.8c0,2.7,2.1,4.7,4.7,4.7h23c2.7,0,4.7-2.1,4.7-4.7V56.7h18.7c4,0,6.2-4.6,3.9-7.6l-35-45.2
				c-1.9-2.5-5.6-2.5-7.5,0L33.3,49.1C30.9,52.1,33.1,56.7,37.1,56.7z"/>
			<path d="M129,90.9h-18.2c-1.9,0-3.4,1.4-3.4,3.4v21.6c0,0.6-0.4,1-1,1H37.7c-0.6,0-1-0.4-1-1V94.3c0-1.9-1.4-3.4-3.4-3.4H15
				c-1.9,0-3.4,1.4-3.4,3.4v44.3c0,1.9,1.4,3.4,3.4,3.4H129c1.9,0,3.4-1.4,3.4-3.4V94.3C132.4,92.3,130.8,90.9,129,90.9z"/>
		</g>
	</g>
</g>
</svg>
