<?xml version="1.0" encoding="utf-8"?>
<!-- Generator: Adobe Illustrator 25.4.1, SVG Export Plug-In . SVG Version: 6.00 Build 0)  -->
<svg version="1.1" id="Layer_1" xmlns="http://www.w3.org/2000/svg" xmlns:xlink="http://www.w3.org/1999/xlink" x="0px" y="0px"
	 viewBox="0 0 61.8 61.5" style="enable-background:new 0 0 61.8 61.5;" xml:space="preserve">
<style type="text/css">
	.st0{fill:#A8A8A8;}
	.st1{fill:#DBDBDB;}
</style>
<g>
	<path class="st0" d="M30.9,9.5C31.5,9.5,32,9,32,8.4l0-5.6c0-0.6-0.5-1.1-1.1-1.1c-0.6,0-1.1,0.5-1.1,1.1l0,5.6
		C29.8,9,30.3,9.5,30.9,9.5z"/>
	<path class="st0" d="M30.9,52c-0.6,0-1.1,0.5-1.1,1.1v5.6c0,0.6,0.5,1.1,1.1,1.1c0.6,0,1.1-0.5,1.1-1.1v-5.6
		C32,52.5,31.5,52,30.9,52z"/>
	<path class="st0" d="M30.9,16.3c1.3-1.1,2.7-2,4.3-2.6c4.9-1.9,10.3-0.6,13.7,3.2c2.2,2.5,3.1,5.5,3,8.8c-0.2,3.6-1.6,6.7-4.2,9.3
		c-3.8,3.7-7.5,7.5-11.2,11.2c-3.3,3.3-7.8,3.3-11.1,0c-4-4-8-7.9-12-12c-4.4-4.5-4.7-12.1-0.8-17c2.7-3.3,6.3-4.6,10.5-4.3
		C26.1,13.2,28.6,14.4,30.9,16.3z M49,25.1c0-0.2,0-0.5-0.1-0.8c-0.3-4.8-4.1-8.4-9-8.4c-3.1,0-5.7,1.1-7.8,3.4
		c-0.8,0.8-1.7,0.8-2.5,0c-2-2.1-4.5-3.2-7.4-3.4c-4-0.2-7.6,2.1-8.8,5.9c-1.4,4.1-0.5,7.7,2.5,10.8c3.8,3.9,7.7,7.8,11.6,11.6
		c0.3,0.3,0.6,0.6,1,0.8c1.9,1.2,4.1,0.9,5.8-0.8c3.9-3.9,7.7-7.7,11.6-11.6C47.9,30.6,48.9,28.1,49,25.1z"/>
	<path class="st1" d="M40,15.9c-3.1,0-5.7,1.1-7.8,3.4c-0.8,0.8-1.7,0.8-2.5,0c-2-2.1-4.5-3.2-7.4-3.4c-4-0.2-7.6,2.1-8.8,5.9
		c-1.4,4.1-0.5,7.7,2.5,10.8c3.8,3.9,7.7,7.8,11.6,11.6c0.3,0.3,0.6,0.6,1,0.8c1.9,1.2,4.1,0.9,5.8-0.8c3.9-3.9,7.7-7.7,11.6-11.6
		c2-2.1,3.1-4.6,3.1-7.6c0-0.2,0-0.5-0.1-0.8C48.6,19.4,44.8,15.9,40,15.9z"/>
	<g>
		<path class="st0" d="M53.6,30.8c0,0.6,0.5,1.1,1.1,1.1l5.6,0c0.6,0,1.1-0.5,1.1-1.1c0-0.6-0.5-1.1-1.1-1.1l-5.6,0
			C54.1,29.7,53.6,30.2,53.6,30.8z"/>
		<path class="st0" d="M8.2,30.8c0-0.6-0.5-1.1-1.1-1.1H1.5c-0.6,0-1.1,0.5-1.1,1.1c0,0.6,0.5,1.1,1.1,1.1H7
			C7.7,31.9,8.2,31.4,8.2,30.8z"/>
	</g>
	<g>
		<path class="st0" d="M49.2,11.4c0.4,0.4,1.1,0.4,1.6,0l3.9-3.9c0.4-0.4,0.4-1.1,0-1.6c-0.4-0.4-1.1-0.4-1.6,0l-3.9,3.9
			C48.7,10.3,48.7,11,49.2,11.4z"/>
		<path class="st0" d="M17,43.6c-0.4-0.4-1.1-0.4-1.6,0l-3.9,3.9c-0.4,0.4-0.4,1.1,0,1.6c0.4,0.4,1.1,0.4,1.6,0l3.9-3.9
			C17.5,44.7,17.5,44,17,43.6z"/>
	</g>
	<g>
		<g>
			<g>
				<path class="st0" d="M45.7,42.8c-0.4,0.5-0.3,1.2,0.2,1.6l4.3,3.5c0.5,0.4,1.2,0.3,1.6-0.2c0.4-0.5,0.3-1.2-0.2-1.6l-4.3-3.5
					C46.8,42.3,46.1,42.4,45.7,42.8z"/>
			</g>
			<g>
				<path class="st0" d="M10.5,14c0.4-0.5,0.3-1.2-0.2-1.6L6.1,8.9C5.6,8.5,4.9,8.6,4.5,9.1c-0.4,0.5-0.3,1.2,0.2,1.6L9,14.2
					C9.4,14.6,10.2,14.5,10.5,14z"/>
			</g>
		</g>
	</g>
</g>
</svg>
