<svg id="Layer_1" data-name="Layer 1" xmlns="http://www.w3.org/2000/svg" viewBox="0 0 11 11"><defs><style>.cls-1{fill:#3d6ad5;}</style></defs><path class="cls-1" d="M4.2241,8.4326c0-.7031-.0019-1.4062.0021-2.1092.0006-.099-.0215-.1338-.1275-.1319-.3732.0066-.7465.0043-1.12.002-.3109-.002-.3652-.0581-.3654-.3643q0-.742,0-1.4842c0-.2771.068-.3448.3472-.3457.369-.0012.7381-.0078,1.1067.0036.1385.0043.1594-.0415.16-.1664.002-.4727-.0209-.9455.0191-1.4181A2.36,2.36,0,0,1,6.4733.1865C7.0235.1411,7.575.1714,8.1259.17,8.2968.1689,8.38.246,8.382.416q.01.7875,0,1.5752c-.0019.1629-.0693.229-.2347.2352-.36.0135-.72.0147-1.08.021-.4145.0072-.5766.1668-.58.577-.0032.3515.0011.7032-.0058,1.0546-.0019.0995.03.1232.1251.1221.447-.0048.8941-.0023,1.3411-.0018a1.0613,1.0613,0,0,1,.1428.0065c.16.0217.2223.0852.2231.2482q.0041.8463,0,1.6925c-.0008.1639-.0634.2339-.228.2369-.4816.0086-.9634.0132-1.4449.0071-.1335-.0016-.1646.0352-.1641.1659.0051,1.35.0032,2.6994.0031,4.0491,0,.392-.041.433-.43.433q-.7487,0-1.4974,0c-.258-.0005-.3268-.0683-.3271-.3225Q4.2234,9.4741,4.2241,8.4326Z"/></svg>