<?xml version="1.0" encoding="utf-8"?>
<!-- Generator: Adobe Illustrator 24.2.1, SVG Export Plug-In . SVG Version: 6.00 Build 0)  -->
<svg version="1.1" id="Layer_1" xmlns="http://www.w3.org/2000/svg" xmlns:xlink="http://www.w3.org/1999/xlink" x="0px" y="0px"
	 viewBox="0 0 50 50" style="enable-background:new 0 0 50 50;" xml:space="preserve">
<style type="text/css">
	.st0{fill:#4486C6;}
</style>
<g>
	<g>
		<g>
			<path class="st0" d="M13.96,31.65c-1.69,0-3.06,1.37-3.06,3.06c0,1.69,1.37,3.06,3.06,3.06s3.06-1.37,3.06-3.06
				C17.01,33.02,15.64,31.65,13.96,31.65z M13.96,36.24c-0.84,0-1.53-0.69-1.53-1.53c0-0.84,0.69-1.53,1.53-1.53
				c0.84,0,1.53,0.69,1.53,1.53C15.48,35.55,14.8,36.24,13.96,36.24z"/>
			<path class="st0" d="M22.36,32.42h-0.32c-0.18-0.63-0.43-1.23-0.75-1.81l0.23-0.23c0.89-0.89,0.89-2.35,0-3.24
				c-0.43-0.43-1.01-0.67-1.62-0.67c0,0,0,0,0,0c-0.61,0-1.19,0.24-1.62,0.67l-0.23,0.23c-0.57-0.32-1.18-0.57-1.81-0.75V26.3
				c0-1.26-1.03-2.29-2.29-2.29s-2.29,1.03-2.29,2.29v0.32c-0.63,0.18-1.23,0.43-1.81,0.75l-0.23-0.23c-0.89-0.89-2.35-0.89-3.24,0
				c-0.43,0.43-0.67,1.01-0.67,1.62c0,0.61,0.24,1.19,0.67,1.62l0.23,0.23c-0.32,0.57-0.57,1.18-0.75,1.81H5.55
				c-1.26,0-2.29,1.03-2.29,2.29S4.28,37,5.55,37h0.32c0.18,0.63,0.43,1.23,0.75,1.81l-0.23,0.23c-0.89,0.89-0.89,2.35,0,3.24
				c0.43,0.43,1.01,0.67,1.62,0.67c0,0,0,0,0,0c0.61,0,1.19-0.24,1.62-0.67l0.23-0.23c0.57,0.32,1.18,0.57,1.81,0.75v0.32
				c0,1.26,1.03,2.29,2.29,2.29s2.29-1.03,2.29-2.29V42.8c0.63-0.18,1.23-0.43,1.81-0.75l0.23,0.23c0.89,0.89,2.35,0.89,3.24,0
				c0.43-0.43,0.67-1.01,0.67-1.62c0-0.61-0.24-1.19-0.67-1.62l-0.23-0.23c0.32-0.57,0.57-1.18,0.75-1.81h0.32
				c1.26,0,2.29-1.03,2.29-2.29S23.63,32.42,22.36,32.42z M22.36,35.47h-0.92c-0.36,0-0.68,0.26-0.75,0.61
				c-0.17,0.86-0.51,1.68-1,2.42c-0.2,0.3-0.16,0.71,0.1,0.96l0.65,0.65c0.14,0.14,0.22,0.34,0.22,0.54c0,0.2-0.08,0.4-0.23,0.54
				c-0.3,0.3-0.78,0.3-1.08,0l-0.65-0.65c-0.26-0.26-0.66-0.3-0.96-0.1c-0.74,0.49-1.55,0.83-2.42,1c-0.36,0.07-0.61,0.39-0.61,0.75
				v0.92c0,0.43-0.34,0.76-0.76,0.76c-0.42,0-0.76-0.34-0.76-0.76V42.2c0-0.36-0.26-0.68-0.61-0.75c-0.86-0.18-1.68-0.51-2.42-1
				c-0.13-0.09-0.28-0.13-0.42-0.13c-0.2,0-0.39,0.08-0.54,0.22L8.55,41.2c-0.14,0.14-0.34,0.22-0.54,0.22c0,0,0,0,0,0
				c-0.2,0-0.39-0.08-0.54-0.23c-0.3-0.3-0.3-0.78,0-1.08l0.65-0.65c0.26-0.26,0.3-0.66,0.1-0.96c-0.49-0.74-0.83-1.55-1-2.42
				c-0.07-0.36-0.39-0.61-0.75-0.61H5.55c-0.42,0-0.76-0.34-0.76-0.76c0-0.42,0.34-0.76,0.76-0.76h0.92c0.36,0,0.68-0.26,0.75-0.61
				c0.17-0.86,0.51-1.68,1-2.42c0.2-0.3,0.16-0.71-0.1-0.96L7.47,29.3c-0.14-0.14-0.22-0.34-0.22-0.54c0-0.2,0.08-0.4,0.23-0.54
				c0.3-0.3,0.78-0.3,1.08,0l0.65,0.65c0.26,0.26,0.66,0.3,0.96,0.1c0.74-0.49,1.55-0.83,2.42-1c0.36-0.07,0.61-0.39,0.61-0.75V26.3
				c0-0.43,0.34-0.76,0.76-0.76c0.42,0,0.76,0.34,0.76,0.76v0.92c0,0.36,0.26,0.68,0.61,0.75c0.86,0.18,1.68,0.51,2.42,1
				c0.3,0.2,0.7,0.16,0.96-0.1l0.65-0.65C19.51,28.08,19.7,28,19.9,28c0,0,0,0,0,0c0.2,0,0.39,0.08,0.54,0.23
				c0.3,0.3,0.3,0.78,0,1.08l-0.65,0.65c-0.26,0.26-0.3,0.66-0.1,0.96c0.49,0.74,0.83,1.55,1,2.42c0.07,0.36,0.39,0.61,0.75,0.61
				h0.92c0.42,0,0.76,0.34,0.76,0.76C23.13,35.13,22.78,35.47,22.36,35.47z"/>
			<path class="st0" d="M37.43,23.47c-0.73-0.44-1.58-0.57-2.4-0.36c-0.82,0.21-1.52,0.72-1.95,1.45c-0.44,0.73-0.56,1.58-0.36,2.4
				c0.36,1.44,1.66,2.41,3.08,2.41c0.25,0,0.51-0.03,0.77-0.09c1.7-0.42,2.74-2.15,2.31-3.85C38.67,24.6,38.15,23.91,37.43,23.47z
				 M37.2,27.04c-0.23,0.38-0.59,0.64-1.01,0.75c-0.88,0.22-1.78-0.32-2-1.2c-0.11-0.43-0.04-0.87,0.19-1.25
				c0.23-0.38,0.59-0.64,1.01-0.75c0.13-0.03,0.27-0.05,0.4-0.05c0.29,0,0.59,0.08,0.84,0.24c0.38,0.23,0.64,0.59,0.75,1.01
				C37.5,26.22,37.43,26.66,37.2,27.04z"/>
			<path class="st0" d="M44.95,26.35c1.27-0.32,2.04-1.61,1.73-2.88c-0.32-1.27-1.61-2.04-2.87-1.73l-0.35,0.09
				c-0.35-0.61-0.77-1.18-1.25-1.69l0.19-0.31c0.33-0.54,0.42-1.18,0.27-1.79c-0.15-0.61-0.54-1.13-1.08-1.46
				c-0.55-0.33-1.18-0.43-1.8-0.27c-0.61,0.15-1.13,0.54-1.46,1.08l-0.19,0.31c-0.68-0.19-1.38-0.29-2.08-0.31l-0.09-0.36
				c-0.32-1.27-1.6-2.04-2.87-1.72c-1.27,0.32-2.04,1.61-1.73,2.87l0.09,0.35c-0.61,0.35-1.18,0.77-1.69,1.25l-0.31-0.19
				c-0.54-0.33-1.18-0.42-1.79-0.27c-0.61,0.15-1.13,0.54-1.46,1.08c-0.33,0.55-0.42,1.18-0.27,1.8c0.15,0.61,0.54,1.13,1.08,1.46
				l0.31,0.19c-0.19,0.68-0.29,1.38-0.31,2.08l-0.36,0.09c-0.61,0.15-1.13,0.54-1.46,1.08c-0.33,0.54-0.42,1.18-0.27,1.8
				c0.32,1.27,1.61,2.04,2.87,1.73l0.35-0.09c0.35,0.61,0.77,1.18,1.25,1.69l-0.19,0.31c-0.33,0.54-0.42,1.18-0.27,1.79
				c0.15,0.61,0.54,1.13,1.08,1.46c0.55,0.33,1.18,0.42,1.8,0.27c0.61-0.15,1.13-0.54,1.46-1.08l0.19-0.31
				c0.68,0.19,1.38,0.29,2.08,0.31l0.09,0.35c0.15,0.61,0.54,1.13,1.08,1.46c0.37,0.22,0.79,0.34,1.22,0.34
				c0.19,0,0.39-0.02,0.58-0.07c0.62-0.15,1.14-0.54,1.46-1.08c0.33-0.54,0.42-1.18,0.27-1.79l-0.09-0.35
				c0.61-0.35,1.18-0.77,1.69-1.25l0.31,0.19c0.54,0.33,1.18,0.42,1.79,0.27c0.61-0.15,1.13-0.54,1.46-1.08
				c0.33-0.55,0.42-1.18,0.27-1.8c-0.15-0.61-0.54-1.13-1.08-1.46l-0.31-0.19c0.19-0.68,0.29-1.38,0.31-2.08L44.95,26.35z
				 M43.64,25.11c-0.35,0.09-0.59,0.41-0.58,0.78c0.04,0.93-0.1,1.85-0.41,2.74c-0.12,0.34,0.01,0.72,0.33,0.91l0.83,0.5
				c0.19,0.12,0.33,0.3,0.38,0.52c0.05,0.22,0.02,0.44-0.1,0.64c-0.12,0.19-0.3,0.33-0.52,0.38c-0.22,0.06-0.44,0.02-0.64-0.09
				l-0.83-0.5c-0.31-0.19-0.71-0.13-0.96,0.14c-0.63,0.69-1.38,1.24-2.22,1.65c-0.33,0.16-0.5,0.52-0.41,0.87l0.23,0.94
				c0.05,0.22,0.02,0.44-0.09,0.64c-0.12,0.19-0.3,0.33-0.52,0.38c-0.22,0.06-0.44,0.02-0.64-0.1c-0.19-0.12-0.33-0.3-0.38-0.52
				l-0.23-0.94c-0.09-0.34-0.39-0.58-0.74-0.58c-0.01,0-0.02,0-0.03,0c-0.93,0.04-1.85-0.1-2.74-0.41
				c-0.34-0.12-0.72,0.01-0.91,0.33l-0.5,0.83c-0.12,0.19-0.3,0.33-0.52,0.38c-0.22,0.06-0.44,0.02-0.64-0.1
				c-0.19-0.12-0.33-0.3-0.38-0.52c-0.05-0.22-0.02-0.44,0.09-0.64l0.5-0.83c0.19-0.31,0.13-0.71-0.14-0.96
				c-0.69-0.63-1.24-1.38-1.65-2.22c-0.16-0.33-0.52-0.5-0.87-0.41l-0.94,0.23c-0.46,0.11-0.91-0.16-1.02-0.62
				c-0.06-0.22-0.02-0.45,0.09-0.64c0.12-0.19,0.3-0.33,0.52-0.38l0.94-0.23c0.35-0.09,0.59-0.41,0.58-0.78
				c-0.04-0.93,0.1-1.85,0.41-2.74c0.12-0.34-0.01-0.72-0.33-0.91l-0.83-0.5c-0.19-0.12-0.33-0.3-0.38-0.52
				c-0.05-0.22-0.02-0.44,0.1-0.64c0.12-0.19,0.3-0.33,0.52-0.38c0.22-0.05,0.44-0.02,0.64,0.09l0.83,0.5
				c0.31,0.19,0.71,0.13,0.96-0.14c0.63-0.69,1.38-1.24,2.22-1.65c0.33-0.16,0.5-0.52,0.41-0.88l-0.23-0.94
				c-0.11-0.45,0.16-0.91,0.62-1.02c0.45-0.11,0.91,0.16,1.02,0.61l0.23,0.94c0.09,0.35,0.42,0.59,0.78,0.58
				c0.94-0.04,1.85,0.1,2.74,0.41c0.34,0.12,0.72-0.01,0.91-0.33l0.5-0.83c0.12-0.19,0.3-0.33,0.52-0.38
				c0.22-0.05,0.45-0.02,0.64,0.1c0.19,0.12,0.33,0.3,0.38,0.52c0.05,0.22,0.02,0.44-0.09,0.64l-0.5,0.83
				c-0.19,0.31-0.13,0.71,0.14,0.96c0.69,0.63,1.24,1.38,1.65,2.22c0.16,0.33,0.52,0.5,0.87,0.41l0.94-0.23
				c0.46-0.11,0.91,0.16,1.02,0.62c0.11,0.45-0.16,0.91-0.61,1.02L43.64,25.11z"/>
			<path class="st0" d="M19,11.49c-1.21-0.88-2.9-0.61-3.78,0.6c-0.42,0.58-0.6,1.3-0.48,2.01c0.11,0.71,0.5,1.34,1.08,1.77
				c0.48,0.35,1.03,0.52,1.59,0.52c0.84,0,1.66-0.39,2.19-1.11l0,0C20.48,14.06,20.21,12.36,19,11.49z M18.36,14.37
				c-0.38,0.52-1.12,0.64-1.64,0.26c-0.25-0.18-0.42-0.46-0.47-0.77c-0.05-0.31,0.03-0.62,0.21-0.88c0.23-0.32,0.59-0.48,0.95-0.48
				c0.24,0,0.48,0.07,0.69,0.22C18.63,13.1,18.74,13.84,18.36,14.37z"/>
			<path class="st0" d="M25.2,17.53c-0.09-0.54-0.38-1.02-0.82-1.34l-0.15-0.11c0.17-0.47,0.29-0.96,0.35-1.46l0.18-0.03
				c0.54-0.09,1.02-0.38,1.34-0.82c0.32-0.44,0.45-0.99,0.37-1.53c-0.18-1.12-1.24-1.89-2.35-1.71l-0.18,0.03
				c-0.22-0.46-0.48-0.88-0.79-1.28l0.11-0.15c0.32-0.44,0.45-0.99,0.37-1.53c-0.09-0.54-0.38-1.02-0.82-1.34
				c-0.45-0.32-0.99-0.46-1.53-0.37c-0.54,0.09-1.02,0.38-1.34,0.82l-0.11,0.15c-0.47-0.17-0.96-0.29-1.46-0.35l-0.03-0.18
				c-0.18-1.12-1.24-1.89-2.35-1.71C15.43,4.7,14.96,5,14.63,5.44c-0.32,0.44-0.45,0.99-0.37,1.53l0.03,0.18
				c-0.46,0.22-0.88,0.48-1.28,0.79l-0.15-0.11c-0.92-0.67-2.2-0.46-2.87,0.46C9.67,8.73,9.54,9.27,9.62,9.82
				c0.09,0.54,0.38,1.02,0.82,1.34l0.15,0.11c-0.17,0.47-0.29,0.96-0.35,1.46l-0.18,0.03c-1.12,0.18-1.89,1.23-1.71,2.35
				c0.18,1.12,1.24,1.89,2.35,1.71l0.18-0.03c0.22,0.45,0.48,0.88,0.79,1.28l-0.11,0.15c-0.67,0.92-0.46,2.21,0.46,2.87
				c0.92,0.67,2.21,0.46,2.87-0.45L15,20.49c0.47,0.17,0.96,0.29,1.46,0.35l0.03,0.18c0.09,0.54,0.38,1.02,0.82,1.34
				c0.35,0.26,0.77,0.39,1.2,0.39c0.11,0,0.22-0.01,0.33-0.03c1.12-0.18,1.89-1.23,1.71-2.35l-0.03-0.18
				c0.46-0.22,0.88-0.48,1.28-0.79l0.15,0.11c0.44,0.32,0.99,0.45,1.53,0.37c0.54-0.09,1.02-0.38,1.34-0.82
				C25.16,18.62,25.29,18.07,25.2,17.53z M22.85,16.97l0.63,0.46c0.11,0.08,0.19,0.21,0.21,0.34c0.02,0.14-0.01,0.28-0.1,0.39
				c-0.08,0.11-0.21,0.19-0.35,0.21c-0.14,0.02-0.28-0.01-0.39-0.09l-0.63-0.46c-0.29-0.21-0.7-0.19-0.97,0.06
				c-0.54,0.49-1.16,0.88-1.85,1.13c-0.34,0.13-0.54,0.48-0.49,0.84l0.12,0.77c0.05,0.29-0.15,0.56-0.44,0.6
				c-0.14,0.02-0.28-0.01-0.39-0.09c-0.11-0.08-0.19-0.2-0.21-0.34l-0.12-0.77c-0.06-0.36-0.36-0.63-0.72-0.64
				c-0.73-0.03-1.44-0.2-2.11-0.51c-0.1-0.05-0.21-0.07-0.32-0.07c-0.24,0-0.47,0.11-0.62,0.31l-0.46,0.63
				c-0.17,0.24-0.5,0.29-0.74,0.12c-0.24-0.17-0.29-0.5-0.12-0.74l0.46-0.63c0.21-0.29,0.19-0.7-0.05-0.97
				c-0.5-0.54-0.88-1.16-1.13-1.85c-0.13-0.34-0.48-0.54-0.84-0.49l-0.77,0.12c-0.29,0.05-0.56-0.15-0.6-0.44
				c-0.05-0.29,0.15-0.56,0.44-0.61l0.77-0.12c0.36-0.06,0.63-0.36,0.64-0.72c0.03-0.73,0.2-1.44,0.51-2.11
				c0.15-0.33,0.05-0.72-0.25-0.94l-0.63-0.46c-0.12-0.08-0.19-0.21-0.21-0.34c-0.02-0.14,0.01-0.28,0.1-0.39
				c0.17-0.24,0.5-0.29,0.74-0.12l0.63,0.46c0.29,0.21,0.7,0.19,0.97-0.06c0.54-0.49,1.16-0.88,1.85-1.13
				c0.34-0.13,0.54-0.48,0.49-0.84l-0.12-0.77c-0.02-0.14,0.01-0.28,0.09-0.39c0.08-0.11,0.21-0.19,0.35-0.21
				c0.29-0.05,0.56,0.15,0.61,0.44l0.12,0.77C17,7.69,17.3,7.96,17.67,7.98c0.73,0.03,1.44,0.2,2.11,0.51
				c0.33,0.15,0.72,0.05,0.94-0.25l0.46-0.63c0.08-0.11,0.2-0.19,0.34-0.21c0.14-0.02,0.28,0.01,0.39,0.1
				c0.11,0.08,0.19,0.21,0.21,0.35c0.02,0.14-0.01,0.28-0.09,0.39l-0.46,0.63c-0.21,0.29-0.19,0.7,0.06,0.97
				c0.49,0.54,0.88,1.16,1.13,1.85c0.13,0.34,0.48,0.55,0.84,0.49l0.77-0.12c0.29-0.05,0.56,0.15,0.6,0.44
				c0.02,0.14-0.01,0.28-0.09,0.39c-0.08,0.11-0.2,0.19-0.34,0.21l-0.77,0.12c-0.36,0.06-0.63,0.36-0.64,0.72
				c-0.03,0.73-0.2,1.44-0.51,2.11C22.45,16.37,22.56,16.76,22.85,16.97z"/>
		</g>
	</g>
</g>
</svg>
