<?xml version="1.0" encoding="utf-8"?>
<!-- Generator: Adobe Illustrator 25.4.1, SVG Export Plug-In . SVG Version: 6.00 Build 0)  -->
<svg version="1.1" id="Layer_1" xmlns="http://www.w3.org/2000/svg" xmlns:xlink="http://www.w3.org/1999/xlink" x="0px" y="0px"
	 viewBox="0 0 61.8 61.5" style="enable-background:new 0 0 61.8 61.5;" xml:space="preserve">
<style type="text/css">
	.st0{fill:#DBDBDB;}
	.st1{fill:#A8A8A8;}
</style>
<g>
	<polygon class="st0" points="23.4,45.1 26.1,43.3 40,43.3 41.9,39.4 50.3,39.4 52.6,42 53,46.1 52.3,51.3 50.3,53.1 43.6,53.3 
		41.3,51.6 40.2,49.9 29.4,49.9 24,48.8 	"/>
	<path class="st1" d="M18.4,52.7c-1.2,0-2.5,0-3.7,0c-1,0-2,0-3.1,0c-0.9,0-1.7-0.3-2.1-0.9c-0.5-0.6-0.6-1.4-0.4-2.3
		c0.7-2.9,1.8-5.5,3.5-7.8c3.1-4.4,7.4-7.4,12.6-8.9c3-0.8,6-1,8.9-0.5c1.3,0.2,2.6,0.6,3.9,0.9l0.8,0.2c1.1,0.3,2-0.1,2.3-1
		c0.3-0.9-0.2-1.7-1.2-2.1l-1.4-0.5l0.5-0.4c2.1-1.6,3.6-3.6,4.5-6c0.9-2.4,1.1-4.9,0.5-7.5c-0.6-2.5-1.8-4.7-3.6-6.5
		c-5.2-5.1-13.4-5.1-18.6,0c-2.6,2.6-3.9,5.7-3.9,9.3c0,4.3,1.8,7.9,5.3,10.7l0.4,0.4L22.7,30c-0.1,0-0.2,0.1-0.3,0.1
		c-4.2,1.5-7.8,3.9-10.7,7.2c-2.2,2.4-3.8,5.1-4.8,8.1c-0.3,1-0.6,2-0.9,2.9c-0.1,0.4-0.2,0.9-0.4,1.3V51c0.1,0.2,0.1,0.4,0.2,0.6
		c0.1,0.5,0.3,0.9,0.5,1.3c0.9,1.6,2.2,2.6,4.1,3c0.1,0,0.2,0.1,0.2,0.1h8.1l0.2-0.1c0.1-0.1,0.3-0.1,0.4-0.2
		c0.6-0.4,0.8-1.1,0.6-1.8C19.8,53.2,19.2,52.7,18.4,52.7z M21,18.8c0-2.6,1-5.1,2.9-7c1.9-1.9,4.4-2.9,7-3c0,0,0,0,0,0
		c2.6,0,5.1,1,7,2.9c1.9,1.9,2.9,4.4,2.9,7c0,5.4-4.5,9.9-9.7,9.9c0,0,0,0,0,0C25.4,28.7,21,24.4,21,18.8z"/>
	<path class="st1" d="M54.9,40.4c-1-2.5-2.6-3.6-5.3-3.6h-5.4c-2.6,0-4.3,1.2-5.2,3.6c-0.2,0.5-0.5,0.8-1,0.8c0,0,0,0,0,0
		c-4.1,0-8.2,0-12.3,0c0,0,0,0,0,0c-0.6,0-1.1,0.2-1.5,0.6L23,42.9c-0.7,0.8-1.5,1.5-2.2,2.3c-0.7,0.7-0.7,1.6,0,2.3
		c0.9,0.9,1.7,1.8,2.6,2.7l0.8,0.8c0.4,0.4,0.8,0.5,1.3,0.5c0,0,0,0,0,0l1.9,0c1.5,0,3,0,4.5,0c0.3,0,0.7-0.1,1-0.3
		c0.6-0.3,0.8-1.1,0.6-1.8c-0.2-0.7-0.8-1.2-1.6-1.2c-0.9,0-1.8,0-2.8,0c-0.8,0-1.7,0-2.5,0c-0.1,0-0.5,0-0.8-0.2
		c-0.4-0.3-0.7-0.6-1.1-1L24,46.3l0.7-0.6c0.3-0.3,0.6-0.5,0.9-0.8c0.3-0.3,0.6-0.4,1-0.4c0,0,0,0,0,0c4.4,0,8.8,0,13.1,0
		c0.9,0,1.5-0.4,1.8-1.3l0.1-0.3c0.1-0.5,0.3-1,0.5-1.4c0.3-0.9,0.9-1.3,1.8-1.3c1.5,0,3,0,4.5,0l1.5,0c0.8,0,1.4,0.4,1.8,1.2
		c1.5,3.3,1.5,6.8,0,10.2c-0.3,0.8-1,1.2-1.8,1.2l-2.6,0c-1.1,0-2.3,0-3.4,0c-0.9,0-1.5-0.4-1.8-1.3c-0.1-0.4-0.2-0.7-0.3-1.1
		c-0.1-0.3-0.2-0.6-0.3-0.9c-0.3-0.9-1.1-1.3-2-1.1c-0.9,0.2-1.4,1.1-1.2,2c0.1,0.4,0.2,0.9,0.3,1.3c0.4,1.3,0.9,2.6,2.2,3.4
		c0.5,0.3,1,0.5,1.6,0.7c0.2,0.1,0.5,0.2,0.7,0.3l7.5,0c0.1,0,0.2-0.1,0.3-0.1c1.7-0.3,3-1.3,3.7-2.8c0.9-2,1.4-4,1.5-6.1
		C56.2,44.8,55.8,42.7,54.9,40.4z"/>
	<path class="st1" d="M50,46.3c0-0.9-0.7-1.6-1.6-1.6c0,0,0,0,0,0c-0.4,0-0.8,0.2-1.2,0.5c-0.3,0.3-0.5,0.7-0.5,1.2s0.2,0.9,0.5,1.2
		c0.3,0.3,0.7,0.5,1.2,0.5c0,0,0,0,0,0c0.4,0,0.9-0.2,1.2-0.5C49.9,47.2,50,46.8,50,46.3z"/>
</g>
</svg>
