<svg id="Layer_1" data-name="Layer 1" xmlns="http://www.w3.org/2000/svg" viewBox="0 0 14.2765 11"><defs><style>.cls-1{fill:#f34336;}.cls-2{fill:#ebeef0;}.cls-3{fill:#ced7db;}</style></defs><path class="cls-1" d="M13.961,1.5032V9.5251c-.0241.0117-.021.0353-.026.0563a1.2577,1.2577,0,0,1-.9151.9842,2.534,2.534,0,0,1-.7633.0484V2.6461c-.0541.0376-.0867.0583-.1172.0818q-1.8528,1.425-3.7051,2.8509c-.4251.3275-.8474.6587-1.2709.9882-.0607.0023-.0943-.0452-.1351-.0766Q4.5848,4.6129,2.1421,2.7345c-.0331-.0254-.06-.0648-.1206-.0663v.1453q0,3.1691,0,6.3381c0,.4882-.0018.9763-.0028,1.4645-.1331.0005-.2663.0039-.3994.001a1.3043,1.3043,0,0,1-.7933-.2624,1.2865,1.2865,0,0,1-.51-1.0758q-.0014-1.3983,0-2.7964,0-2.3769,0-4.7537a1.2711,1.2711,0,0,1,.9685-1.3A2.591,2.591,0,0,1,2.039.3879c.0259.0239.05.05.078.0713q2.4608,1.944,4.9206,3.8891a.1337.1337,0,0,0,.2016,0q1.8363-1.4562,3.6769-2.907c.4419-.35.8812-.7021,1.3217-1.0533.1506-.0011.3013-.008.4516-.0024a1.2854,1.2854,0,0,1,1.0249.5273A1.69,1.69,0,0,1,13.961,1.5032Z"/><path class="cls-2" d="M12.2071,10.611c-.0487.0022-.0975.0064-.1462.0064q-4.9812,0-9.9625,0c-.0266,0-.0532-.0009-.08-.0014.001-.4882.0028-.9763.0028-1.4645q0-3.1691,0-6.3381V2.6682c.06.0015.0875.0409.1206.0663Q4.5856,4.6121,7.0283,6.49c.0408.0314.0744.0789.1351.0766a.471.471,0,0,0,.1589.1568c.39.3073.7811.6124,1.1705.92Q10.12,8.9293,11.745,10.2174A2.2875,2.2875,0,0,1,12.2071,10.611Z"/><path class="cls-2" d="M2.039.3879C2.1011.3866,2.1632.384,2.2253.384q4.9131,0,9.8262,0c.0621,0,.1242.0026.1863.0039-.4405.3512-.88.7038-1.3217,1.0533Q9.0779,2.8949,7.2392,4.3482a.1337.1337,0,0,1-.2016,0Q4.5793,2.4011,2.117.4592C2.0894.4375,2.0649.4118,2.039.3879Z"/><path class="cls-3" d="M12.2071,10.611a2.2875,2.2875,0,0,0-.4621-.3936q-1.6234-1.29-3.2522-2.5735c-.3894-.3077-.7808-.6128-1.1705-.92a.471.471,0,0,1-.1589-.1568c.4235-.33.8458-.6607,1.2709-.9882q1.8516-1.4268,3.7051-2.8509c.03-.0235.0631-.0442.1172-.0818V10.614Z"/></svg>