<?xml version="1.0" encoding="utf-8"?>
<!-- Generator: Adobe Illustrator 24.2.1, SVG Export Plug-In . SVG Version: 6.00 Build 0)  -->
<svg version="1.1" id="Layer_1" xmlns="http://www.w3.org/2000/svg" xmlns:xlink="http://www.w3.org/1999/xlink" x="0px" y="0px"
	 viewBox="0 0 50 50" style="enable-background:new 0 0 50 50;" xml:space="preserve">
<style type="text/css">
	.st0{fill:#4486C6;}
</style>
<g>
	<path class="st0" d="M39.99,16.39c0-0.12-0.03-0.25-0.08-0.36c-0.11-0.23-0.32-0.39-0.56-0.44l-14.01-6.8
		c-0.23-0.11-0.5-0.11-0.72,0l-14.15,6.86c-0.28,0.13-0.45,0.41-0.47,0.72v0.01c0,0.01,0,0.01,0,0.03v17.21
		c0,0.32,0.18,0.61,0.47,0.74l14.15,6.86c0.01,0,0.01,0,0.01,0.01c0.02,0.01,0.04,0.01,0.06,0.03c0.01,0,0.01,0.01,0.03,0.01
		c0.02,0.01,0.04,0.01,0.06,0.02c0.01,0,0.01,0.01,0.02,0.01c0.02,0.01,0.05,0.01,0.07,0.01c0.01,0,0.01,0,0.02,0
		c0.03,0,0.06,0.01,0.09,0.01c0.03,0,0.06,0,0.09-0.01c0.01,0,0.01,0,0.02,0c0.02,0,0.05-0.01,0.07-0.01c0.01,0,0.01-0.01,0.02-0.01
		c0.02-0.01,0.04-0.01,0.06-0.02c0.01,0,0.01-0.01,0.03-0.01c0.02-0.01,0.04-0.01,0.06-0.03c0.01,0,0.01,0,0.01-0.01l14.19-6.88
		C39.82,34.19,40,33.9,40,33.58V16.41C39.99,16.4,39.99,16.39,39.99,16.39z M24.97,10.44l12.27,5.95l-4.52,2.19l-12.27-5.95
		L24.97,10.44z M24.97,22.34L12.7,16.39l5.86-2.84l12.27,5.95L24.97,22.34z M11.65,17.72l12.5,6.06v15.36l-12.5-6.06V17.72z
		 M25.8,39.14V23.78l5.87-2.85v4.02c0,0.45,0.37,0.83,0.83,0.83s0.83-0.37,0.83-0.83v-4.82l5.02-2.44v15.36L25.8,39.14z"/>
</g>
</svg>
