<?xml version="1.0" encoding="utf-8"?>
<!-- Generator: Adobe Illustrator 24.2.1, SVG Export Plug-In . SVG Version: 6.00 Build 0)  -->
<svg version="1.1" id="Layer_1" xmlns="http://www.w3.org/2000/svg" xmlns:xlink="http://www.w3.org/1999/xlink" x="0px" y="0px"
	 viewBox="0 0 50 50" style="enable-background:new 0 0 50 50;" xml:space="preserve">
<style type="text/css">
	.st0{fill:#4486C6;}
</style>
<g>
	<path class="st0" d="M35.1,18.73c-2.88,0-5.22-2.34-5.22-5.22s2.34-5.22,5.22-5.22c2.88,0,5.22,2.34,5.22,5.22
		S37.98,18.73,35.1,18.73z M35.1,10.38c-1.73,0-3.13,1.41-3.13,3.13s1.41,3.13,3.13,3.13c1.73,0,3.13-1.41,3.13-3.13
		S36.82,10.38,35.1,10.38z"/>
	<path class="st0" d="M35.1,41.71c-2.88,0-5.22-2.34-5.22-5.22c0-2.88,2.34-5.22,5.22-5.22c2.88,0,5.22,2.34,5.22,5.22
		C40.32,39.37,37.98,41.71,35.1,41.71z M35.1,33.36c-1.73,0-3.13,1.41-3.13,3.13c0,1.73,1.41,3.13,3.13,3.13
		c1.73,0,3.13-1.41,3.13-3.13C38.23,34.76,36.82,33.36,35.1,33.36z"/>
	<path class="st0" d="M14.9,30.22c-2.88,0-5.22-2.34-5.22-5.22s2.34-5.22,5.22-5.22s5.22,2.34,5.22,5.22S17.78,30.22,14.9,30.22z
		 M14.9,21.87c-1.73,0-3.13,1.41-3.13,3.13s1.41,3.13,3.13,3.13s3.13-1.41,3.13-3.13S16.63,21.87,14.9,21.87z"/>
	<path class="st0" d="M18.54,23.98c-0.36,0-0.72-0.19-0.91-0.53c-0.29-0.5-0.11-1.14,0.39-1.42l12.92-7.37
		c0.5-0.29,1.14-0.11,1.42,0.39c0.29,0.5,0.11,1.14-0.39,1.42l-12.92,7.37C18.89,23.94,18.72,23.98,18.54,23.98z"/>
	<path class="st0" d="M31.46,35.47c-0.18,0-0.35-0.04-0.52-0.14l-12.92-7.37c-0.5-0.29-0.68-0.92-0.39-1.42
		c0.28-0.5,0.92-0.68,1.42-0.39l12.92,7.37c0.5,0.29,0.68,0.92,0.39,1.42C32.18,35.28,31.82,35.47,31.46,35.47z"/>
</g>
</svg>
