<?xml version="1.0" encoding="utf-8"?>
<!-- Generator: Adobe Illustrator 24.2.1, SVG Export Plug-In . SVG Version: 6.00 Build 0)  -->
<svg version="1.1" id="Layer_1" xmlns="http://www.w3.org/2000/svg" xmlns:xlink="http://www.w3.org/1999/xlink" x="0px" y="0px"
	 viewBox="0 0 50 50" style="enable-background:new 0 0 50 50;" xml:space="preserve">
<style type="text/css">
	.st0{fill:#4486C6;stroke:#4486C6;stroke-width:0.7;stroke-miterlimit:10;}
</style>
<g>
	<g>
		<path class="st0" d="M37.04,11.81H12.96c-0.63,0-1.15,0.51-1.15,1.15v24.09c0,0.63,0.51,1.15,1.15,1.15h24.09
			c0.63,0,1.15-0.51,1.15-1.15V12.96C38.19,12.32,37.68,11.81,37.04,11.81z M20.99,30.16v-5.73h8.03v5.73H20.99z M29.01,31.31v5.73
			h-8.03v-5.73H29.01z M29.01,17.54v5.73h-8.03v-5.73H29.01z M37.04,17.54v5.73h-6.88v-5.73H37.04z M19.84,23.28h-6.88v-5.73h6.88
			V23.28z M12.96,24.43h6.88v5.73h-6.88V24.43z M30.16,24.43h6.88v5.73h-6.88V24.43z M37.04,12.96v3.44H12.96v-3.44H37.04z
			 M12.96,31.31h6.88v5.73h-6.88V31.31z M30.16,37.04v-5.73h6.88v5.73H30.16z"/>
	</g>
</g>
</svg>
