<svg id="Layer_1" data-name="Layer 1" xmlns="http://www.w3.org/2000/svg" viewBox="0 0 11 11"><defs><style>.cls-1{fill:#04a9f3;}</style></defs><path class="cls-1" d="M10.9305,2.1513a4.0818,4.0818,0,0,1-.983,1.0409.2231.2231,0,0,0-.0985.2122,6.3545,6.3545,0,0,1-.6456,2.9494A6.2389,6.2389,0,0,1,6.8366,9.0221a6.096,6.096,0,0,1-2.4341.8558,6.6663,6.6663,0,0,1-1.84-.004A6.2182,6.2182,0,0,1,.0913,8.9646.1744.1744,0,0,1,.07,8.94,4.5671,4.5671,0,0,0,3.3505,8.01a2.697,2.697,0,0,1-.4458-.0573,2.2474,2.2474,0,0,1-1.603-1.3884c-.0462-.1111-.0381-.1169.0843-.1a2.2777,2.2777,0,0,0,.795-.0344.3.3,0,0,0,.0524-.0226A2.2283,2.2283,0,0,1,.49,4.1945a2.2519,2.2519,0,0,0,.9868.2621A2.2575,2.2575,0,0,1,.55,3.0861,2.223,2.223,0,0,1,.7919,1.4839c.0419.01.0561.0409.0761.0645A6.3426,6.3426,0,0,0,4.39,3.6769a6.9687,6.9687,0,0,0,.95.1323c.0792.0067.0742-.0216.0647-.0837A2.21,2.21,0,0,1,6.142,1.61a2.2337,2.2337,0,0,1,3.0385.1.131.131,0,0,0,.14.04,4.5763,4.5763,0,0,0,1.232-.4638c.0274-.0152.0561-.0281.1051-.0526A2.2661,2.2661,0,0,1,9.7083,2.448a1.9649,1.9649,0,0,0,.4264-.0671c.1309-.032.2616-.0665.39-.107.1319-.0416.2611-.0918.3915-.1382Z"/></svg>