<svg id="Layer_1" data-name="Layer 1" xmlns="http://www.w3.org/2000/svg" viewBox="0 0 11 11"><defs><style>.cls-1{fill:#4cae50;}</style></defs><path class="cls-1" d="M.1628,5.9173V5.104c.04-.04.0189-.0918.0241-.1377A5.34,5.34,0,1,1,6.2715,10.782a2.105,2.105,0,0,0-.3743.0567H5.084c-.0137-.029-.0415-.02-.0639-.0224a5.8638,5.8638,0,0,1-.7289-.1178,5.1864,5.1864,0,0,1-1.64-.6921.1934.1934,0,0,0-.1837-.021c-.3786.1247-.7585.2456-1.1382.3671-.2657.085-.5318.1689-.8117.2578.0144-.0457.0231-.0748.0327-.1035.1886-.5619.3726-1.1255.5695-1.6845a.3545.3545,0,0,0-.0478-.36A5.1413,5.1413,0,0,1,.2175,6.24,1.08,1.08,0,0,0,.1628,5.9173ZM7.2691,8.4858a1.1207,1.1207,0,0,0,.4169-.0672A1.2669,1.2669,0,0,0,8.7179,7.0962a.2238.2238,0,0,0-.1387-.2318c-.3937-.19-.7812-.3923-1.1822-.5666a.3294.3294,0,0,0-.4745.1346c-.0985.1344-.1961.27-.299.4006a.3681.3681,0,0,1-.5319.1386,4.2036,4.2036,0,0,1-2.01-1.76c-.11-.1788-.1055-.2416.0311-.3983.1-.1152.2066-.2257.3017-.3451a.3536.3536,0,0,0,.1021-.3713c-.1855-.4412-.3565-.8885-.5585-1.3226a.2088.2088,0,0,0-.1351-.1355.9549.9549,0,0,0-.8089.108,1.4551,1.4551,0,0,0-.4956.6815A1.9971,1.9971,0,0,0,2.6039,4.967a5.1627,5.1627,0,0,0,.6232,1.0071A7.7331,7.7331,0,0,0,4.43,7.27,5.7081,5.7081,0,0,0,6.511,8.3515,2.4819,2.4819,0,0,0,7.2691,8.4858Z"/></svg>