<?xml version="1.0" encoding="utf-8"?>
<!-- Generator: Adobe Illustrator 24.2.1, SVG Export Plug-In . SVG Version: 6.00 Build 0)  -->
<svg version="1.1" id="Layer_1" xmlns="http://www.w3.org/2000/svg" xmlns:xlink="http://www.w3.org/1999/xlink" x="0px" y="0px"
	 viewBox="0 0 50 50" style="enable-background:new 0 0 50 50;" xml:space="preserve">
<style type="text/css">
	.st0{fill:#4486C6;}
</style>
<g>
	<path class="st0" d="M37.19,20.79c0.04-0.31,0.05-0.62,0.05-0.94c0-4.48-3.65-8.13-8.13-8.13c-2.47,0-4.79,1.13-6.31,3.01
		c-1.53-1.89-3.84-3.01-6.31-3.01c-4.48,0-8.13,3.65-8.13,8.13c0,2,0.74,3.93,2.07,5.42c1.33,1.49,12.37,11.94,12.37,11.94
		s2.06-1.88,3.9-3.65c2.11,2.04,4.99,4.71,4.99,4.71s3.9-3.57,4.26-3.92c2.44-2.35,3.86-3.75,4.24-4.17
		c0.94-1.05,1.46-2.4,1.46-3.81C41.64,23.65,39.74,21.37,37.19,20.79L37.19,20.79z M31.73,35.7c-2.15-2.06-6.37-6.11-7-6.82
		c-0.62-0.69-0.96-1.58-0.96-2.51c0-2.08,1.69-3.77,3.77-3.77c1.38,0,2.64,0.75,3.31,1.96l0.28,0.51h1.21l0.28-0.51
		c0.66-1.21,1.93-1.96,3.31-1.96c2.08,0,3.77,1.69,3.77,3.77c0,0.93-0.34,1.82-0.96,2.51C38.09,29.6,33.71,33.81,31.73,35.7z
		 M11.88,23.97c-1.01-1.13-1.57-2.6-1.57-4.12c0-3.41,2.77-6.18,6.18-6.18c2.25,0,4.33,1.23,5.42,3.21l0.28,0.51h1.24l0.28-0.51
		c1.09-1.98,3.16-3.21,5.42-3.21c3.41,0,6.18,2.77,6.18,6.18c0,0.28-0.02,0.56-0.06,0.84c-1.35,0.16-2.59,0.8-3.5,1.78
		c-1.07-1.15-2.58-1.83-4.19-1.83c-3.15,0-5.72,2.57-5.72,5.72c0,1.41,0.52,2.76,1.46,3.81c0.26,0.29,1.04,1.07,2.02,2.02
		c-1.04,0.99-1.93,1.85-2.5,2.39C20.49,32.39,12.96,25.18,11.88,23.97L11.88,23.97z"/>
</g>
</svg>
