<svg xmlns="http://www.w3.org/2000/svg" viewBox="0 0 1200 600"><path fill="#0042e4" d="M0 0h1200v600H0z"/><path d="M339 237l22.8 62.9 23.9-62.9h34l-58.1 145.7H328l17.2-45.2L303.9 237H339zm358.6-2.3c30.7 0 53 23.8 53 56.3s-22.4 56.4-53 56.4c-11.3 0-20.8-3-28.1-8.8l-.5-.4-.4-.3v44.7h-32.7V237h28.9v10.9l.2-.2c7.1-8.1 17.9-12.6 31.2-12.9h.7l.7-.1zm-218.3 0c33.8 0 57.7 23.3 57.7 56.3 0 32.9-24 56.4-57.7 56.4-33.9 0-57.9-23.4-57.9-56.4-.1-33 23.9-56.3 57.9-56.3zM591.4 213v24h26.9v28.3h-26.9v39c0 8.7 4.2 13.5 12 13.8h.8c5.2 0 9.2-1.4 12.7-4.8l.3-.3.9-.9h.2v31.2l-1 .5c-5.4 2.6-8.7 3.7-17.9 3.7-25.9 0-40.2-14.1-40.7-40.5v-41.7h-11.8V237h12.7v-24h31.8zm230.7 21.7c33.8 0 57.7 23.3 57.7 56.3 0 32.9-24 56.4-57.7 56.4-33.9 0-57.9-23.4-57.9-56.4s23.9-56.3 57.9-56.3zm84.3 76.9c9.9 0 17.9 8 17.9 17.9 0 9.9-8 17.9-17.9 17.9-9.9 0-17.9-8-17.9-17.9s8-17.9 17.9-17.9zm-213.7-47.5c-14.7 0-24.8 10.9-24.8 27s10 27 24.8 27c14.9 0 25-10.9 25-27-.1-16.1-10.1-27-25-27zm-213.5 0c-14.8 0-25 11-25 27s10.2 27 25 27c14.6 0 24.8-11 24.8-27s-10.1-27-24.8-27zm342.9 0c-14.8 0-25 11-25 27s10.2 27 25 27c14.6 0 24.8-11 24.8-27-.1-16-10.2-27-24.8-27z" fill-rule="evenodd" clip-rule="evenodd" fill="#fff"/></svg>