<?xml version="1.0" encoding="UTF-8" standalone="no"?>
<svg
   id="wpforms"
   viewBox="0 0 92.395554 72"
   version="1.1"
   sodipodi:docname="icon-wpf.svg"
   width="92.395554"
   height="72"
   inkscape:version="1.1.1 (3bf5ae0d25, 2021-09-20)"
   xmlns:inkscape="http://www.inkscape.org/namespaces/inkscape"
   xmlns:sodipodi="http://sodipodi.sourceforge.net/DTD/sodipodi-0.dtd"
   xmlns="http://www.w3.org/2000/svg"
   xmlns:svg="http://www.w3.org/2000/svg">
  <sodipodi:namedview
     id="namedview143"
     pagecolor="#ffffff"
     bordercolor="#666666"
     borderopacity="1.0"
     inkscape:pageshadow="2"
     inkscape:pageopacity="0.0"
     inkscape:pagecheckerboard="0"
     showgrid="false"
     inkscape:zoom="4.4943396"
     inkscape:cx="79.099496"
     inkscape:cy="35.934089"
     inkscape:window-width="1920"
     inkscape:window-height="1017"
     inkscape:window-x="-8"
     inkscape:window-y="-8"
     inkscape:window-maximized="1"
     inkscape:current-layer="wpforms" />
  <defs
     id="defs4">
    <style
       id="style2">.cls-1{fill:#5e5d5d;}.cls-2{fill:#b85a1b;}.cls-3{fill:#7eaaba;}.cls-4{fill:#d3e8ef;}.cls-5{fill:#fff;}.cls-6{fill:#7f3e13;}.cls-7{fill:#e1762f;}.cls-8{fill:#63300f;}.cls-9{fill:#4f2800;}.cls-10{fill:#e5895b;}.cls-11{fill:#fad395;}.cls-12{fill:#ad6151;}.cls-13{fill:#1b1d23;}.cls-14{fill:#036aab;}.cls-15{fill:#0399ed;}</style>
  </defs>
  <g
     id="sullie"
     transform="translate(0.00181549)">
    <path
       class="cls-3"
       d="m 10.46,44.49 c 5.13,0.69 9.62,-0.47 13.27,-3.75 l 6.11,0.32 -3.33,9.81 c -3.7,5.87 -9.07,7.12 -14.57,6.75 z"
       id="path23" />
    <path
       class="cls-4"
       d="m 12.73,46.71 1,9 c 4.58,0 8.23,-1.53 11,-5.69 l 2.41,-7 -2.68,-0.14 a 17.06,17.06 0 0 1 -11.7,3.89 z"
       id="path25" />
    <path
       class="cls-5"
       d="m 12.73,46.71 0.6,5.31 c 6.29,-0.74 11.19,-3.33 13.73,-9.06 l -2.68,-0.14 a 16.92,16.92 0 0 1 -11.65,3.89"
       id="path27" />
    <path
       class="cls-3"
       d="m 11.94,36.81 a 10.41,10.41 0 1 1 -10.4,10.4 10.42,10.42 0 0 1 10.4,-10.4"
       id="path29" />
    <path
       class="cls-4"
       d="m 11.94,38.84 a 8.33,8.33 0 1 0 8.32,8.33 8.32,8.32 0 0 0 -8.32,-8.33"
       id="path31" />
    <path
       class="cls-5"
       d="m 11.94,38.84 a 8.27,8.27 0 0 0 -6.84,3.56 8.38,8.38 0 0 0 8.32,7.82 8.27,8.27 0 0 0 6.84,-3.56 8.34,8.34 0 0 0 -8.32,-7.82"
       id="path33" />
    <path
       class="cls-3"
       d="m 10.88,38.34 a 7.77,7.77 0 1 1 -7.77,7.72 7.75,7.75 0 0 1 7.77,-7.72"
       id="path35" />
    <path
       class="cls-6"
       d="M 10.32,36.25 A 7.8,7.8 0 1 1 2.51,44 7.83,7.83 0 0 1 10.32,36.23"
       id="path37" />
    <path
       class="cls-2"
       d="m 11.06,39.21 a 6.2,6.2 0 1 0 6.2,6.2 6.21,6.21 0 0 0 -6.2,-6.2"
       id="path39" />
    <path
       class="cls-6"
       d="m 6.39,30 a 3.4,3.4 0 0 1 6.8,0 c 1.89,-3.2 7.86,-1.44 6,3.56 a 9.77,9.77 0 0 1 0.23,1.2 c 3.24,0.18 4.3,5.22 -0.14,6.8 a 9.65,9.65 0 0 1 -1.75,3.56 c -3.8,3.28 -5,0.6 -7.08,-1.62 -2,0 -7.4,-1.34 -5.87,3.74 C 1.12,45 -1.1,40.51 0.56,33.94 c -2.31,-5.32 3.84,-7.3 5.83,-4 z"
       id="path41" />
    <path
       class="cls-2"
       d="m 2.65,34.68 c -0.79,3.19 -0.84,6.8 1.43,9.39 3.19,3.65 9.66,3.47 12.16,-1.11 1.34,-2.5 1.25,-5.6 0.69,-8.32 a 36.13,36.13 0 0 0 -14.28,0 z"
       id="path43" />
    <path
       class="cls-7"
       d="m 2.65,34.68 c -0.79,3.19 -0.84,6.8 1.43,9.39 a 7.77,7.77 0 0 0 5.73,2.54 V 33.94 a 37.83,37.83 0 0 0 -7.16,0.74"
       id="path45" />
    <path
       class="cls-6"
       d="m 5.79,37.13 a 5.59,5.59 0 0 0 0.83,5.23 4.18,4.18 0 0 0 6.75,-0.65 6.85,6.85 0 0 0 0.37,-4.62 19.89,19.89 0 0 0 -7.95,0"
       id="path47" />
    <path
       class="cls-2"
       d="m 9.77,32.23 a 1.81,1.81 0 0 0 0,-3.61 z M 16.29,30 a 1.8,1.8 0 1 1 -1.81,1.8 1.81,1.81 0 0 1 1.81,-1.8"
       id="path49" />
    <path
       class="cls-7"
       d="m 3.62,30.15 a 1.81,1.81 0 0 1 0,3.61 A 1.85,1.85 0 0 1 1.81,32 1.81,1.81 0 0 1 3.62,30.2 m 6.15,2.08 V 28.67 A 1.84,1.84 0 0 0 8,30.47 1.77,1.77 0 0 0 9.81,32.23 Z"
       id="path51" />
    <path
       class="cls-2"
       d="m 18.32,36.49 a 1.8,1.8 0 1 1 -1.8,1.8 1.77,1.77 0 0 1 1.8,-1.8"
       id="path53" />
    <path
       class="cls-3"
       d="m 80.19,57.76 c -0.41,-5.41 -2.86,-9.3 -7.67,-11.38 l 1,-3.74 7.77,-2.09 c 6.75,2 9.34,6.39 10.63,11.8 l -11.7,5.41 z"
       id="path55" />
    <path
       class="cls-5"
       d="m 81.81,54.8 7.73,-3.61 c -1.35,-4.53 -3.61,-7.44 -8.37,-8.6 l -6.06,1.62 -0.28,1 a 14.41,14.41 0 0 1 7,9.57 z"
       id="path57" />
    <path
       class="cls-3"
       d="M 72.7,58.68 A 10.1,10.1 0 1 1 85.47,65.11 10.08,10.08 0 0 1 72.7,58.68"
       id="path59" />
    <path
       class="cls-4"
       d="M 74.37,58.13 A 8.35,8.35 0 1 0 79.69,47.58 8.34,8.34 0 0 0 74.37,58.13"
       id="path61" />
    <path
       class="cls-5"
       d="m 90.55,54.38 a 7.84,7.84 0 0 0 -0.32,-1.48 8.34,8.34 0 0 0 -10.54,-5.32 9.11,9.11 0 0 0 -3.43,2.13 8.74,8.74 0 0 0 0.33,1.48 8.36,8.36 0 0 0 10.54,5.32 7.83,7.83 0 0 0 3.42,-2.13"
       id="path63" />
    <path
       class="cls-6"
       d="m 70.81,61.27 a 9.52,9.52 0 1 1 12,6.06 9.49,9.49 0 0 1 -12,-6.06"
       id="path65" />
    <path
       class="cls-2"
       d="m 72.75,60.67 a 7.5,7.5 0 1 1 9.48,4.76 7.51,7.51 0 0 1 -9.48,-4.76"
       id="path67" />
    <path
       class="cls-7"
       d="m 72.43,57.11 a 7.62,7.62 0 0 1 5.08,-6 7.51,7.51 0 0 1 9.49,4.8 8.09,8.09 0 0 1 0.37,1.85 13.08,13.08 0 0 1 -14.93,-0.65 z"
       id="path69" />
    <path
       class="cls-6"
       d="M 37.84,0 A 7.11,7.11 0 0 1 44.73,7.26 7.06,7.06 0 0 1 37.84,14.52 7.1,7.1 0 0 1 31,7.26 7.1,7.1 0 0 1 37.84,0"
       id="path71" />
    <path
       class="cls-2"
       d="M 37.84,2 A 5.08,5.08 0 0 0 33,7.26 5.1,5.1 0 0 0 37.86,12.53 5.07,5.07 0 0 0 42.71,7.26 5.12,5.12 0 0 0 37.84,2"
       id="path73" />
    <path
       class="cls-8"
       d="M 37.84,4 A 3.08,3.08 0 0 0 35,7.31 3.14,3.14 0 0 0 37.87,10.59 3.07,3.07 0 0 0 40.7,7.31 3.13,3.13 0 0 0 37.84,4"
       id="path75" />
    <path
       class="cls-6"
       d="M 67.06,0 A 7.11,7.11 0 0 1 74,7.26 6.9,6.9 0 1 1 60.22,7.26 7.11,7.11 0 0 1 67.06,0"
       id="path77" />
    <path
       class="cls-2"
       d="m 67.06,2 a 5.07,5.07 0 0 0 -4.85,5.27 4.87,4.87 0 1 0 9.71,0 A 5.13,5.13 0 0 0 67.06,2"
       id="path79" />
    <path
       class="cls-9"
       d="M 67.06,4 A 3.08,3.08 0 0 0 64.19,7.29 3.14,3.14 0 0 0 67.06,10.57 3.07,3.07 0 0 0 69.93,7.29 3.14,3.14 0 0 0 67.06,4"
       id="path81" />
    <path
       class="cls-6"
       d="M 78,26.08 H 77.87 V 12.49 C 77.87,8.4 68.27,6.1 57.42,5.56 A 2.1608332,2.1608332 0 0 0 53.1,5.44 H 51.83 A 2.17,2.17 0 0 0 47.5,5.56 C 36.66,6.08 27.06,8.38 27.06,12.44 V 26 h -0.14 a 5,5 0 0 0 -3.23,4.72 v 9.94 L 52.45,50 81.21,40.52 V 30.8 A 5,5 0 0 0 78,26.08 Z"
       id="path83" />
    <path
       class="cls-2"
       d="m 29.37,13 v 14.61 l -1.2,0.46 A 3.3,3.3 0 0 0 26,31.21 V 41.48 L 52.49,50 79,41.29 V 31.21 a 3.33,3.33 0 0 0 -2.13,-3.14 l -1.2,-0.46 V 13 C 75.62,6.07 29.47,6.07 29.42,13 Z"
       id="path85" />
    <path
       class="cls-7"
       d="m 29.37,13 v 14.61 l -1.2,0.46 A 3.3,3.3 0 0 0 26,31.21 V 41.48 L 52.49,50 v -5.56 c -9.15,0.05 -18.31,-6 -15.9,-17.85 h 15.9 V 7.82 C 40.93,7.82 29.37,9.57 29.37,13 Z"
       id="path87" />
    <path
       class="cls-10"
       d="M 35.34,23.49 H 69.7 c 4.85,25.8 -39.63,25.62 -34.36,0"
       id="path89" />
    <path
       class="cls-10"
       d="m 37,25.53 c -0.46,4 0.37,7.81 3.33,10.82 3.15,3.14 7.86,4.48 12.21,4.44 4.35,-0.04 8.65,-1.34 11.75,-4.3 a 12.79,12.79 0 0 0 3.65,-11 z"
       id="path91" />
    <path
       class="cls-11"
       d="m 58.23,37.55 c 2.31,3 9.06,1.76 7,-4.58 z"
       id="path93" />
    <path
       class="cls-9"
       d="m 56.1,36.9 c 2.59,3.33 11,1.34 9.07,-5.87 z"
       id="path95" />
    <path
       class="cls-5"
       d="m 63.87,31.35 a 1,1 0 0 1 1.2,0.74 1,1 0 1 1 -1.85,0.51 1,1 0 0 1 0.65,-1.25 m -5.5,3.84 a 1,1 0 0 1 1.2,0.74 1,1 0 0 1 -0.65,1.25 1,1 0 0 1 -1.2,-0.74 1,1 0 0 1 0.65,-1.25"
       id="path97" />
    <path
       class="cls-12"
       d="m 61.74,38.2 a 5.19,5.19 0 0 0 3.7,-4.44 c -1.48,-0.23 -4.07,2 -3.7,4.44"
       id="path99" />
    <path
       class="cls-11"
       d="m 38.85,23.49 h 27.24 c 3.88,18.45 -31.4,18.27 -27.24,0"
       id="path101" />
    <path
       class="cls-9"
       d="m 52.45,34 a 6.82,6.82 0 0 1 1.29,-3.05 c 3.29,-0.51 6.11,-3 5.23,-7.45 a 19.66,19.66 0 0 0 -6.48,-1.11 l -1.34,4.21 z"
       id="path103" />
    <path
       class="cls-8"
       d="m 52.45,34 a 6.84,6.84 0 0 0 -1.3,-3.05 c -3.28,-0.51 -6.1,-3 -5.22,-7.45 a 19.65,19.65 0 0 1 6.47,-1.11 z"
       id="path105" />
    <path
       class="cls-12"
       d="m 47.64,24.14 a 19,19 0 0 1 9.66,0 c 1.35,3.37 -11.14,3.33 -9.66,0"
       id="path107" />
    <path
       class="cls-5"
       d="m 47.27,14.75 a 3.66,3.66 0 1 1 -3.65,3.65 3.66,3.66 0 0 1 3.65,-3.65"
       id="path109" />
    <path
       class="cls-13"
       d="m 47.55,16.05 a 2.73,2.73 0 1 1 -2.73,2.72 2.7,2.7 0 0 1 2.73,-2.72"
       id="path111" />
    <path
       class="cls-5"
       d="m 57.72,14.75 a 3.66,3.66 0 1 0 3.65,3.65 3.66,3.66 0 0 0 -3.65,-3.65"
       id="path113" />
    <path
       class="cls-13"
       d="m 57.49,16.05 a 2.73,2.73 0 1 0 2.73,2.72 2.76,2.76 0 0 0 -2.73,-2.72"
       id="path115" />
    <path
       class="cls-8"
       d="m 49.91,13.6 a 9.9,9.9 0 0 0 -7.54,1.34 c -0.79,-4.49 6.75,-5.83 7.54,-1.34"
       id="path117" />
    <path
       class="cls-9"
       d="m 54.34,11.33 a 9.9,9.9 0 0 1 7.54,1.34 c 0.79,-4.49 -6.7,-5.78 -7.54,-1.34"
       id="path119" />
    <path
       class="cls-3"
       d="m 81.17,40.55 v 28 A 3.45,3.45 0 0 1 77.74,72 H 27.06 A 3.44,3.44 0 0 1 23.64,68.58 V 40.83 l 28.76,6.89 z"
       id="path121" />
    <path
       class="cls-4"
       d="M 78.9,43.47 52.45,50 26,43.7 V 68 a 1.68,1.68 0 0 0 1.71,1.71 H 77.23 A 1.68,1.68 0 0 0 79,68 V 43.47 Z"
       id="path123" />
    <path
       class="cls-5"
       d="M 52.45,50 26,43.7 V 68 a 1.68,1.68 0 0 0 1.72,1.71 H 52.49 V 50 Z"
       id="path125" />
    <path
       class="cls-14"
       d="m 52.49,63 h 22.16 v 3 H 52.5 v -3 z m 0,-6.15 h 22.16 v 3 H 52.5 v -3 z"
       id="path127" />
    <path
       class="cls-15"
       d="M 52.49,66 V 63 H 30.25 v 3 z M 30.25,56.88 h 22.24 v 3 H 30.25 Z"
       id="path129" />
    <polygon
       class="cls-5"
       points="42.04,68.53 39.27,68.53 39.27,54.94 42.04,54.94 "
       id="polygon131" />
    <path
       class="cls-3"
       d="m 31.45,42.64 c 7,1.66 14,3.37 21,5 L 45,54.75 c -4.86,-2.87 -9.67,-6 -13.51,-12.11"
       id="path133" />
    <path
       class="cls-5"
       d="m 37.37,46.43 a 38.17,38.17 0 0 0 7.26,5.45 l 3.15,-3 C 44.36,48.09 40.84,47.21 37.37,46.43"
       id="path135" />
    <path
       class="cls-3"
       d="m 73.44,42.64 c -7,1.66 -14,3.37 -21,5 l 7.49,7.07 c 4.86,-2.87 9.66,-6 13.5,-12.11"
       id="path137" />
    <path
       class="cls-5"
       d="m 67.52,46.43 a 37.55,37.55 0 0 1 -7.26,5.45 l -3.14,-3 c 3.47,-0.79 6.94,-1.67 10.4,-2.45"
       id="path139" />
  </g>
</svg>
