<svg width="30" height="38" viewBox="0 0 30 38" fill="none" xmlns="http://www.w3.org/2000/svg">
<path d="M2.68049 1.46973H24.144C25.3038 1.46972 26.4162 1.93413 27.2373 2.76109C28.0584 3.58804 28.5211 4.71002 28.5239 5.88094V34.7738C28.5239 35.4968 28.2394 36.1902 27.733 36.7015C27.2267 37.2127 26.5398 37.5 25.8237 37.5H3.49906C2.83454 37.4943 2.19914 37.2238 1.73123 36.7474C1.26333 36.271 1.0008 35.6272 1.00082 34.9563V3.16552C1.00082 2.71577 1.17779 2.28444 1.49279 1.96641C1.80778 1.64839 2.23501 1.46973 2.68049 1.46973V1.46973Z" fill="#0088F7"/>
<path d="M28.4526 7.5111H25.1851C24.3157 7.5111 23.4819 7.16476 22.8672 6.54829C22.2524 5.93181 21.907 5.09569 21.907 4.22386V0.947266C23.6422 0.950079 25.3054 1.64253 26.5324 2.87287C27.7593 4.10322 28.4498 5.77112 28.4526 7.5111V7.5111Z" fill="white"/>
<path d="M18.6396 6.52161H10.7891C10.5465 6.54694 10.3218 6.66154 10.1584 6.84328C9.9951 7.02501 9.9047 7.26099 9.9047 7.50565C9.9047 7.75031 9.9951 7.98629 10.1584 8.16802C10.3218 8.34976 10.5465 8.46436 10.7891 8.48969H18.6396C18.8823 8.46436 19.107 8.34976 19.2703 8.16802C19.4336 7.98629 19.524 7.75031 19.524 7.50565C19.524 7.26099 19.4336 7.02501 19.2703 6.84328C19.107 6.66154 18.8823 6.54694 18.6396 6.52161ZM16.974 24.6165H7.52165C7.26139 24.6165 7.01179 24.7201 6.82776 24.9047C6.64373 25.0892 6.54034 25.3395 6.54034 25.6005C6.54034 25.8615 6.64373 26.1118 6.82776 26.2963C7.01179 26.4809 7.26139 26.5845 7.52165 26.5845H16.974C17.2343 26.5845 17.4839 26.4809 17.6679 26.2963C17.852 26.1118 17.9553 25.8615 17.9553 25.6005C17.9553 25.3395 17.852 25.0892 17.6679 24.9047C17.4839 24.7201 17.2343 24.6165 16.974 24.6165ZM21.8753 20.5314H7.52165C7.27899 20.5567 7.05429 20.6713 6.89095 20.853C6.72761 21.0348 6.63721 21.2707 6.63721 21.5154C6.63721 21.7601 6.72761 21.996 6.89095 22.1778C7.05429 22.3595 7.27899 22.4741 7.52165 22.4994H21.9071C22.1498 22.4741 22.3745 22.3595 22.5378 22.1778C22.7011 21.996 22.7915 21.7601 22.7915 21.5154C22.7915 21.2707 22.7011 21.0348 22.5378 20.853C22.3745 20.6713 22.1498 20.5567 21.9071 20.5314H21.8753ZM21.8753 16.3292H7.52165C7.27899 16.3546 7.05429 16.4692 6.89095 16.6509C6.72761 16.8326 6.63721 17.0686 6.63721 17.3133C6.63721 17.5579 6.72761 17.7939 6.89095 17.9756C7.05429 18.1574 7.27899 18.272 7.52165 18.2973H21.9071C22.1498 18.272 22.3745 18.1574 22.5378 17.9756C22.7011 17.7939 22.7915 17.5579 22.7915 17.3133C22.7915 17.0686 22.7011 16.8326 22.5378 16.6509C22.3745 16.4692 22.1498 16.3546 21.9071 16.3292H21.8753Z" fill="#E9EEF4"/>
<path d="M25.1851 8.47872H28.4526C28.6442 8.47135 28.8302 8.41206 28.9908 8.30716C29.1515 8.20227 29.2808 8.05568 29.365 7.88298C29.4283 7.76154 29.4611 7.62641 29.4604 7.48936V7.41489C29.4183 5.84835 28.896 4.33284 27.9646 3.07447V3L27.7843 2.7766C27.6357 2.59574 27.466 2.41489 27.2963 2.23404C26.6047 1.52658 25.7794 0.964593 24.8686 0.580984C23.9578 0.197376 22.9798 -0.000141449 21.9919 7.59998e-08H4.24349C3.12354 -3.15109e-05 2.04899 0.443912 1.25409 1.23505C0.459186 2.02619 0.00839964 3.10036 0 4.2234L0 33.7447C0 36.1383 1.93079 38 3.59636 38H24.4637C27.3069 38 29.365 36.2021 29.365 33.7447V22.4043V11.766C29.3664 11.6388 29.3428 11.5127 29.2956 11.3947C29.2483 11.2767 29.1784 11.1692 29.0897 11.0783C29.0011 10.9874 28.8954 10.9149 28.7788 10.865C28.6622 10.815 28.537 10.7886 28.4102 10.7872V10.7872C28.2816 10.7858 28.1541 10.8102 28.035 10.8588C27.916 10.9075 27.8078 10.9796 27.7169 11.0707C27.626 11.1619 27.5541 11.2703 27.5056 11.3897C27.457 11.5091 27.4328 11.637 27.4342 11.766V22.4043V33.734C27.4342 35.1064 26.2566 36.0213 24.4956 36.0213H3.59636C3.11358 35.8692 2.69318 35.5639 2.39851 35.1513C2.10383 34.7388 1.95085 34.2414 1.96262 33.734V4.2234C1.96121 3.92265 2.01925 3.62459 2.13338 3.34645C2.2475 3.06832 2.41546 2.81562 2.62754 2.60294C2.83962 2.39027 3.09162 2.22185 3.36898 2.10741C3.64634 1.99296 3.94357 1.93476 4.24349 1.93617H20.931V4.2234C20.931 4.78312 21.0411 5.33733 21.2551 5.85431C21.469 6.37128 21.7825 6.84085 22.1777 7.23614C22.5728 7.63142 23.0419 7.94464 23.558 8.15786C24.074 8.37109 24.627 8.48012 25.1851 8.47872V8.47872ZM25.1851 6.51064C24.8843 6.51346 24.5859 6.45631 24.3074 6.34249C24.0288 6.22868 23.7755 6.06048 23.5623 5.84767C23.3491 5.63486 23.1802 5.38168 23.0654 5.10284C22.9506 4.824 22.8922 4.52506 22.8936 4.2234V2.03191C24.008 2.23167 25.0345 2.76908 25.835 3.57176C26.6354 4.37444 27.1713 5.40383 27.3705 6.52128L25.1851 6.51064Z" fill="#2E3B50"/>
</svg>
