<svg width="24" height="24" viewBox="0 0 24 24" fill="none" xmlns="http://www.w3.org/2000/svg">
<g clip-path="url(#clip0_655_2972)">
<rect width="24" height="24" rx="4" fill="#253B80"/>
<g opacity="0.64">
<mask id="mask0_655_2972" style="mask-type:luminance" maskUnits="userSpaceOnUse" x="6" y="4" width="13" height="16">
<path d="M6 4H19V19.3107H6V4Z" fill="white"/>
</mask>
<g mask="url(#mask0_655_2972)">
<path d="M17.693 7.89025C17.8796 6.69906 17.6914 5.88892 17.0474 5.15476C16.3381 4.34659 15.0567 4.00056 13.4175 4.00056H8.65906C8.32407 4.00056 8.03867 4.24424 7.9867 4.5749L6.00505 17.1399C5.96608 17.3879 6.1574 17.6123 6.40855 17.6123H9.34638L9.14365 18.898C9.1094 19.1149 9.27671 19.3109 9.49636 19.3109H11.9724C12.2657 19.3109 12.5153 19.0976 12.561 18.8082L12.585 18.6823L13.0514 15.7243L13.0818 15.561C13.1274 15.2712 13.377 15.0583 13.6699 15.0583H14.0403C16.4392 15.0583 18.3177 14.0836 18.8665 11.265C19.0956 10.0872 18.9771 9.10428 18.3709 8.41302C18.1874 8.20399 17.9591 8.03118 17.693 7.89025Z" fill="white"/>
</g>
</g>
<path d="M17.693 7.8903C17.8796 6.6991 17.6914 5.88896 17.0474 5.1548C16.3381 4.34663 15.0567 4.00061 13.4175 4.00061H8.65906C8.32407 4.00061 8.03867 4.24428 7.98671 4.57495L6.00505 17.14C5.96608 17.388 6.1574 17.6123 6.40855 17.6123H9.34638L10.0841 12.933L10.0613 13.0794C10.1136 12.7488 10.3963 12.5047 10.7313 12.5047H12.1275C14.8697 12.5047 17.0167 11.3907 17.6442 8.169C17.6627 8.07374 17.6788 7.98123 17.693 7.8903Z" fill="white" fill-opacity="0.64"/>
<path d="M10.8769 7.90604C10.9084 7.70685 11.0359 7.54388 11.208 7.46161C11.2863 7.42421 11.3737 7.40335 11.465 7.40335H15.1953C15.6374 7.40335 16.0491 7.43208 16.4258 7.49271C16.5333 7.51003 16.6384 7.5301 16.74 7.55294C16.8419 7.57537 16.9403 7.60057 17.036 7.62852C17.084 7.6423 17.1309 7.65725 17.1773 7.67261C17.3623 7.73402 17.5344 7.80645 17.693 7.8903C17.8796 6.6991 17.6914 5.88896 17.0474 5.1548C16.3381 4.34663 15.0567 4.00061 13.4175 4.00061H8.65906C8.32407 4.00061 8.03867 4.24428 7.9867 4.57495L6.00505 17.14C5.96608 17.388 6.1574 17.6123 6.40855 17.6123H9.34638L10.0841 12.933L10.8769 7.90604Z" fill="white"/>
</g>
<defs>
<clipPath id="clip0_655_2972">
<rect width="24" height="24" fill="white"/>
</clipPath>
</defs>
</svg>