<svg width="24" height="24" viewBox="0 0 24 24" fill="none" xmlns="http://www.w3.org/2000/svg">
<g clip-path="url(#clip0_655_2969)">
<rect width="24" height="24" rx="4" fill="#FFC439"/>
<path fill-rule="evenodd" clip-rule="evenodd" d="M17.7148 7.91268C17.7008 8.00402 17.6844 8.09736 17.6662 8.19328C17.0375 11.4344 14.8864 12.5541 12.1393 12.5541H10.7405C10.4045 12.5541 10.1213 12.799 10.0691 13.1318L9.15008 18.9847C9.11605 19.2032 9.28377 19.4001 9.5033 19.4001H11.9842C12.2779 19.4001 12.5275 19.1858 12.5738 18.8949L12.5981 18.7684L13.0652 15.7921L13.0953 15.6289C13.141 15.337 13.3911 15.1226 13.6848 15.1226H14.0558C16.4594 15.1226 18.3411 14.1428 18.8911 11.3073C19.1207 10.1229 19.0019 9.13386 18.3939 8.43829C18.21 8.22859 17.9818 8.05448 17.7148 7.91268Z" fill="#298FC2"/>
<path fill-rule="evenodd" clip-rule="evenodd" d="M17.0569 7.64922C16.9608 7.62106 16.8617 7.59562 16.76 7.5726C16.6578 7.55016 16.5532 7.53029 16.4454 7.51285C16.0683 7.45167 15.655 7.42265 15.2124 7.42265H11.4756C11.3835 7.42265 11.2961 7.44352 11.2179 7.48126C11.0455 7.56445 10.9175 7.72827 10.8865 7.92882L10.0915 12.9842L10.0691 13.1318C10.1213 12.799 10.4045 12.5541 10.7405 12.5541H12.1393C14.8864 12.5541 17.0375 11.4344 17.6662 8.19328C17.6844 8.09736 17.7008 8.00402 17.7148 7.91268C17.5558 7.82791 17.3832 7.75529 17.1977 7.69353C17.1518 7.67824 17.1046 7.66352 17.0569 7.64922Z" fill="#22284F"/>
<path fill-rule="evenodd" clip-rule="evenodd" d="M10.8865 7.92882C10.9175 7.72827 11.0455 7.56445 11.2179 7.48126C11.2961 7.44352 11.3835 7.42265 11.4756 7.42265H15.2124C15.655 7.42265 16.0683 7.45167 16.4454 7.51285C16.5532 7.53029 16.6578 7.55016 16.76 7.5726C16.8617 7.59562 16.9608 7.62106 17.0569 7.64922C17.1046 7.66352 17.1518 7.67824 17.1977 7.69353C17.3832 7.75529 17.5558 7.82791 17.7148 7.91268C17.9019 6.71494 17.7135 5.89946 17.0686 5.161C16.3574 4.34793 15.0741 4 13.4319 4H8.66425C8.32883 4 8.04266 4.24487 7.99084 4.57821L6.00508 17.2165C5.96593 17.4665 6.15799 17.692 6.40912 17.692H9.35246L10.8865 7.92882Z" fill="#28356A"/>
</g>
<defs>
<clipPath id="clip0_655_2969">
<rect width="24" height="24" fill="white"/>
</clipPath>
</defs>
</svg>