<svg width="32" height="32" viewBox="0 0 32 32" fill="none" xmlns="http://www.w3.org/2000/svg">
<rect x="0.5" y="0.5" width="31" height="31" rx="3.5" fill="#FAFAFA" stroke="#E0E0E0"/>
<path fill-rule="evenodd" clip-rule="evenodd" d="M21.5047 12.0651C21.4901 12.16 21.4731 12.257 21.4541 12.3566C20.8009 15.7241 18.5661 16.8874 15.7119 16.8874H14.2587C13.9096 16.8874 13.6154 17.1418 13.5611 17.4875L12.6063 23.5684C12.5709 23.7955 12.7452 24 12.9733 24H15.5508C15.856 24 16.1153 23.7774 16.1634 23.4752L16.1887 23.3437L16.674 20.2515L16.7052 20.0819C16.7527 19.7786 17.0125 19.5559 17.3177 19.5559H17.7032C20.2004 19.5559 22.1554 18.538 22.7268 15.592C22.9654 14.3614 22.8419 13.3339 22.2103 12.6112C22.0192 12.3933 21.7821 12.2124 21.5047 12.0651Z" fill="#298FC2"/>
<path fill-rule="evenodd" clip-rule="evenodd" d="M20.8211 11.7914C20.7213 11.7621 20.6183 11.7357 20.5127 11.7118C20.4065 11.6885 20.2978 11.6678 20.1858 11.6497C19.794 11.5861 19.3646 11.556 18.9047 11.556H15.0224C14.9267 11.556 14.8359 11.5777 14.7547 11.6169C14.5756 11.7033 14.4426 11.8735 14.4103 12.0819L13.5844 17.3342L13.5611 17.4875C13.6154 17.1418 13.9096 16.8874 14.2587 16.8874H15.7119C18.5661 16.8874 20.8009 15.7241 21.4541 12.3566C21.4731 12.257 21.4901 12.16 21.5047 12.0651C21.3395 11.977 21.1602 11.9016 20.9674 11.8374C20.9198 11.8215 20.8707 11.8062 20.8211 11.7914Z" fill="#22284F"/>
<path fill-rule="evenodd" clip-rule="evenodd" d="M14.4103 12.0819C14.4426 11.8735 14.5756 11.7033 14.7547 11.6169C14.8359 11.5777 14.9267 11.556 15.0224 11.556H18.9047C19.3646 11.556 19.794 11.5861 20.1858 11.6497C20.2978 11.6678 20.4065 11.6885 20.5127 11.7118C20.6183 11.7357 20.7213 11.7621 20.8211 11.7914C20.8707 11.8062 20.9198 11.8215 20.9674 11.8374C21.1602 11.9016 21.3395 11.977 21.5047 12.0651C21.6991 10.8207 21.5033 9.97346 20.8333 9.20623C20.0944 8.36148 18.7611 8 17.0549 8H12.1015C11.753 8 11.4557 8.25441 11.4019 8.60074L9.33878 21.7313C9.2981 21.9911 9.49764 22.2254 9.75856 22.2254H12.8166L14.4103 12.0819Z" fill="#28356A"/>
</svg>
