<svg xmlns="http://www.w3.org/2000/svg" width="120" height="41" viewBox="0 0 120 41">
  <g fill="gray">
    <path d="M14.9345455 17.1054545C14.8705352 16.2381242 15.335573 15.4177133 16.1126174 15.0271224 16.8896617 14.6365315 17.8255162 14.7527667 18.4834006 15.3215789 19.141285 15.890391 19.3914957 16.7996373 19.1172547 17.6249561 18.8430137 18.4502749 18.0983885 19.0289523 17.2309091 19.0909091 16.048996 19.1753233 15.0217574 18.2871645 14.9345455 17.1054545M40.1236364 17.1054545C40.1876466 16.2381242 39.7226088 15.4177133 38.9455645 15.0271224 38.1685201 14.6365315 37.2326656 14.7527667 36.5747812 15.3215789 35.9168968 15.890391 35.6666862 16.7996373 35.9409271 17.6249561 36.2151681 18.4502749 36.9597933 19.0289523 37.8272727 19.0909091 39.0081648 19.1722569 40.0335377 18.2857112 40.1236364 17.1054545"/>
    <path d="M47.1927273,20.4709091 C46.9363636,19.5381818 45.6545455,19.38 44.52,19.6909091 C43.6254545,19.9254545 40.5163636,20.7818182 37.7563636,20.5909091 C35.7709091,20.4436364 33.8290909,18.7909091 32.6236364,17.6618182 C33.8236364,16.2818182 35.3509091,14.7981818 35.7218182,14.3890909 C36.2345455,13.7890909 36.3218182,12.8509091 35.8963636,12.4254545 C35.4709091,12 34.6963636,12.2563636 33.9327273,12.7690909 C33.1690909,13.2818182 30.2618182,16.2 27.4909091,16.2 C24.72,16.2 21.7254545,13.2763636 20.9454545,12.7690909 C20.1654545,12.2618182 19.0690909,12.3381818 18.6381818,12.7690909 C18.2072727,13.2 18.6381818,13.7890909 19.1509091,14.4054545 C19.5163636,14.8309091 21.12,16.3690909 22.3309091,17.7763636 C21.1145455,18.9 19.2272727,20.4709091 17.2909091,20.6127273 C14.5309091,20.8090909 11.4163636,19.9472727 10.5272727,19.7127273 C9.39272727,19.4181818 8.11090909,19.56 7.85454545,20.4927273 C7.69636364,21.0709091 8.19272727,21.7145455 8.85272727,22.1290909 C9.51272727,22.5436364 12.9381818,23.22 13.8981818,24.6981818 C14.8581818,26.1763636 14.9890909,37.5490909 15.9054545,37.9309091 C16.6863115,38.2158684 17.5449219,38.2022705 18.3163636,37.8927273 C19.1836364,37.4563636 20.6509091,25.0363636 21.3872727,23.4436364 C22.0543372,22.2620423 22.8441602,21.1540962 23.7436364,20.1381818 C24.5345455,23.8472727 25.38,37.6581818 26.2363636,37.9472727 C27.0177317,38.1658307 27.8440864,38.1658307 28.6254545,37.9472727 C29.4490909,37.5927273 30.3490909,23.4109091 31.1563636,19.9745455 C32.1107224,21.0434694 32.9498929,22.2098981 33.66,23.4545455 C34.3963636,25.0472727 35.8418182,37.4672727 36.7309091,37.9036364 C37.5023508,38.2131796 38.3609613,38.2267775 39.1418182,37.9418182 C40.0363636,37.56 40.1836364,26.1818182 41.1490909,24.7090909 C42.1145455,23.2363636 45.5127273,22.5709091 46.1890909,22.14 C46.8654545,21.7090909 47.3509091,21.0490909 47.1927273,20.5036364"/>
    <path d="M25.379993,12.5454545 C25.3777926,11.6757354 25.8999999,10.8904264 26.7028829,10.5560687 C27.5057659,10.2217109 28.4310214,10.4042292 29.0467886,11.0184335 C29.6625558,11.6326379 29.8474248,12.5574266 29.5151085,13.3611567 C29.1827922,14.1648868 28.3988128,14.6890909 27.5290909,14.6890909 C26.3443076,14.6890909 25.3830071,13.730234 25.379993,12.5454545"/>
    <path d="M47.6181818 12.7036364C48.66 14.34 46.4781818 14.9781818 44.8090909 14.5963636 43.4127273 14.28 29.7109091 6.96 27.6545455 6.76363636 25.5981818 6.56727273 13.2872727 14.1818182 11.9290909 14.88 10.1989514 15.8920575 8.05741226 15.8920575 6.32727273 14.88 5.71636364 14.5636364 1.02545455 12.0872727 0 11.3945455 1.02545455 10.4454545 15.2727273 1.89272727 16.9090909 1.09090909 18.84.103636364 19.9745455-.398181818 22.0745455.387272727 23.5309091.932727273 47.1654545 12.0163636 47.6181818 12.7036364M5.40545455 23.3290909C6.79883328 23.7805805 8.15402929 24.3423576 9.45818182 25.0090909 11.8527273 26.2418182 12 27.4690909 12.2509091 29.4545455 12.5454545 31.5818182 12.7963636 35.5527273 12.8345455 37.0527273 11.8309091 36.6218182 7.92545455 33.3327273 6.96545455 32.5254545 6.24 31.8927273 5.42727273 31.4345455 5.42727273 30.4690909 5.42727273 30.0981818 5.25818182 24.2290909 5.42727273 23.3127273M117.878182 29.3181818C118.60715 29.3248923 119.260092 29.7706283 119.531858 30.4470772 119.803625 31.1235261 119.640546 31.8971017 119.118837 32.4062772 118.597128 32.9154527 117.819816 33.0596753 117.150175 32.7715432 116.480533 32.4834111 116.050804 31.8198252 116.061818 31.0909091 116.061783 30.6111616 116.253842 30.151374 116.595119 29.8141972 116.936395 29.4770204 117.39847 29.2905308 117.878182 29.2963636M117.878182 32.6181818C118.499569 32.6359429 119.06972 32.2753068 119.319922 31.7062408 119.570125 31.1371748 119.45045 30.4732411 119.017299 30.0273508 118.584149 29.5814605 117.923962 29.4425951 117.347884 29.6762015 116.771807 29.909808 116.394799 30.4692681 116.394545 31.0909091 116.379639 31.492764 116.529704 31.8832376 116.809904 32.1716781 117.090103 32.4601186 117.476064 32.621437 117.878182 32.6181818M117.490909 32.1818182L117.185455 32.1818182 117.185455 30.0545455 117.987273 30.0545455C118.478182 30.0545455 118.718182 30.2509091 118.718182 30.6490909 118.727213 30.7993366 118.673758 30.9466361 118.57047 31.0561211 118.467182 31.1656061 118.323244 31.2275439 118.172727 31.2272727L118.778182 32.1545455 118.445455 32.1545455 117.872727 31.2381818 117.490909 31.2381818 117.490909 32.1818182zM117.490909 31.0145455L117.981818 31.0145455C118.314545 31.0145455 118.418182 30.8945455 118.418182 30.66 118.41903 30.565084 118.378627 30.4744756 118.307453 30.4116746 118.236278 30.3488737 118.141344 30.3200675 118.047273 30.3327273L117.501818 30.3327273 117.490909 31.0145455zM57.1418182 11.6781818C57.0545455 12.7309091 57.0327273 13.9581818 57.0327273 15.2727273L57.0327273 17.7490909C57.5072727 17.7490909 57.9763636 17.7927273 58.6690909 17.7927273 59.3618182 17.7927273 59.8309091 17.7927273 60.3054545 17.7490909L60.3054545 15.2727273C60.3054545 13.9581818 60.3054545 12.7309091 60.2018182 11.6781818L64.2654545 11.6781818C64.0657843 14.2348157 63.9947855 16.799872 64.0527273 19.3636364 63.9948581 21.9255837 64.0658568 24.4888205 64.2654545 27.0436364L60.2018182 27.0436364C60.2890909 25.9909091 60.3054545 24.7636364 60.3054545 23.4490909L60.3054545 20.3072727C59.8363636 20.3072727 59.3618182 20.2636364 58.6690909 20.2636364 57.9763636 20.2636364 57.5072727 20.2636364 57.0327273 20.3072727L57.0327273 23.4545455C57.0327273 24.7690909 57.0327273 25.9963636 57.1418182 27.0490909L53.0727273 27.0490909C53.272325 24.4942751 53.3433238 21.9310383 53.2854545 19.3690909 53.3433963 16.8053265 53.2723976 14.2402702 53.0727273 11.6836364L57.1418182 11.6781818zM66.1363636 16.1127273C66.8852731 16.0127274 67.6391644 15.9544557 68.3945455 15.9381818 72.8509091 15.9381818 74.2036364 17.6836364 74.2036364 20.5636364L74.2036364 23.2581818C74.1461981 24.5430535 74.3312408 25.82725 74.7490909 27.0436364L71.3454545 27.0436364C71.1837483 26.8452873 71.0581984 26.620036 70.9745455 26.3781818 70.28626 26.9132118 69.4408452 27.206519 68.5690909 27.2127273 66.48 27.2127273 65.1218182 25.7727273 65.1218182 23.94 65.1218182 21.96 66.6927273 20.6236364 68.7381818 19.9581818L70.5272727 19.3745455C70.5230297 18.9831273 70.3546877 18.6114626 70.0632681 18.3501184 69.7718486 18.0887741 69.3841134 17.9617503 68.9945455 18 67.9520426 18.0811755 66.9571912 18.4703827 66.1363636 19.1181818L66.1363636 16.1127273zM70.8054545 21.4472727C69.4472727 21.7909091 68.6236364 22.6309091 68.6236364 23.7054545 68.5902663 24.0399076 68.696776 24.373261 68.9178889 24.6264043 69.1390018 24.8795476 69.4550063 25.0299137 69.7909091 25.0418182 70.1856172 25.0340206 70.5592113 24.8620487 70.8218182 24.5672727L70.8054545 21.4472727zM79.5490909 11.6781818L79.5490909 16.5436364C80.1815336 16.1649092 80.9012362 15.956327 81.6381818 15.9381818 83.6836364 15.9381818 85.5981818 17.4436364 85.5981818 21.36 85.5981818 24.3981818 83.9618182 27.3 80.8854545 27.3 79.8623421 27.2652154 78.8822147 26.8800967 78.1090909 26.2090909L76.9090909 27.2727273 75.8781818 26.6509091C76.0396528 25.2022946 76.1034333 23.7444541 76.0690909 22.2872727L76.0690909 16.0690909C76.0690909 15.2727273 76.0690909 14.3890909 75.8563636 11.7054545L79.5490909 11.6781818zM79.5490909 24.0327273C79.5490909 24.6545455 79.7890909 25.1236364 80.4763636 25.1236364 81.36 25.1236364 81.9818182 24.2181818 81.9818182 21.66 81.9818182 19.8272727 81.5072727 18.2563636 80.4327273 18.2563636 80.1927714 18.2362592 79.9561431 18.3228779 79.7858741 18.4931469 79.6156052 18.6634158 79.5289864 18.9000441 79.5490909 19.14L79.5490909 24.0327273zM88.6636364 11.5254232C89.4495211 11.523247 90.1592508 11.9949536 90.4615267 12.7203838 90.7638027 13.445814 90.599018 14.2819177 90.0440935 14.8384053 89.489169 15.394893 88.6535322 15.5620289 87.9272546 15.2617947 87.200977 14.9615606 86.7272758 14.2531606 86.7272727 13.4672727 86.7228841 12.9518846 86.9253072 12.456252 87.2892419 12.0912921 87.6531767 11.7263322 88.1482379 11.5225157 88.6636364 11.5254232M90.4527273 16.2C90.4090909 17.3181818 90.4090909 18.9545455 90.4090909 21.2781818 90.3466269 23.202107 90.4104001 25.1280577 90.6 27.0436364L86.7272727 27.0436364C86.8933404 25.5953646 86.9589518 24.137334 86.9236364 22.68L86.9236364 20.5854545C86.9592143 19.1281179 86.8936021 17.670069 86.7272727 16.2218182L90.4527273 16.2zM96.3927273 12.9054545C96.3490909 13.5709091 96.3272727 14.8418182 96.3272727 16.1781818L97.9636364 16.1781818 97.9636364 18.24 96.3272727 18.24 96.3272727 23.6945455C96.3272727 24.5727273 96.6490909 25.0690909 97.5109091 25.0690909 97.6616714 25.0785035 97.812874 25.0785035 97.9636364 25.0690909L97.9636364 27.0054545C97.2583008 27.2289206 96.5216352 27.3375788 95.7818182 27.3272727 94.8897969 27.3600535 94.0324897 26.9796988 93.4581818 26.2963636 93.0054545 25.7509091 92.8363636 24.8563636 92.8363636 23.7545455L92.8363636 18.3 91.5872727 18.3 91.5872727 16.2 92.8363636 16.2C92.8363636 14.8418182 92.8363636 13.5709091 92.7709091 12.9272727L96.3927273 12.9054545zM100.052727 16.1127273C100.803494 16.013015 101.559185 15.9547448 102.316364 15.9381818 106.767273 15.9381818 108.125455 17.6836364 108.125455 20.5636364L108.125455 23.2581818C108.070854 24.5429122 108.255821 25.8265844 108.670909 27.0436364L105.272727 27.0436364C105.11139 26.8459319 104.987537 26.6204098 104.907273 26.3781818 104.216724 26.9128989 103.369711 27.2060959 102.496364 27.2127273 100.412727 27.2127273 99.0545455 25.7727273 99.0545455 23.94 99.0545455 21.96 100.625455 20.6236364 102.670909 19.9581818L104.454545 19.3745455C104.457997 18.9798175 104.293564 18.6022145 104.002232 18.3358541 103.7109 18.0694936 103.320113 17.9394664 102.927273 17.9781818 101.883243 18.0599141 100.886801 18.449001 100.063636 19.0963636L100.052727 16.1127273zM104.727273 21.4472727C103.369091 21.7909091 102.545455 22.6309091 102.545455 23.7054545 102.512118 24.0389971 102.617904 24.3715124 102.837833 24.6244816 103.057761 24.8774509 103.372335 25.0284484 103.707273 25.0418182 104.10152 25.0254676 104.471131 24.8456035 104.727273 24.5454545L104.727273 21.4472727zM113.950909 12.9054545C113.907273 13.5709091 113.885455 14.8418182 113.885455 16.1781818L115.521818 16.1781818 115.521818 18.24 113.885455 18.24 113.885455 23.6945455C113.885455 24.5727273 114.207273 25.0690909 115.069091 25.0690909 115.219853 25.0785035 115.371056 25.0785035 115.521818 25.0690909L115.521818 27.0054545C114.816633 27.2295712 114.079861 27.338245 113.34 27.3272727 112.446251 27.3609285 111.586917 26.9805674 111.010909 26.2963636 110.563636 25.7509091 110.389091 24.8563636 110.389091 23.7545455L110.389091 18.3 109.14 18.3 109.14 16.2 110.389091 16.2C110.389091 14.8418182 110.389091 13.5709091 110.323636 12.9272727L113.950909 12.9054545zM56.5745455 30.78C56.4384737 30.6974348 56.2807831 30.6575372 56.1218182 30.6654545 55.9200564 30.6600669 55.7255594 30.7409143 55.5870673 30.8877366 55.4485753 31.034559 55.3792135 31.2334417 55.3963636 31.4345455 55.4003084 31.6347954 55.4409826 31.8326197 55.5163636 32.0181818L56.3890909 32.0181818 56.3890909 33.1090909 55.5054545 33.1090909 55.5054545 35.4872727C55.4861784 36.2814315 55.5208033 37.0759832 55.6090909 37.8654545L53.5090909 37.8654545C53.5973785 37.0759832 53.6320034 36.2814315 53.6127273 35.4872727L53.6127273 33.1363636 52.9745455 33.1363636 52.9745455 32.0454545 53.6127273 32.0454545 53.6127273 31.5927273C53.5441537 30.9777683 53.7952832 30.3705289 54.2781818 29.9836364 54.726163 29.6441709 55.2763007 29.4672036 55.8381818 29.4818182 56.0875801 29.4770789 56.3361435 29.5120619 56.5745455 29.5854545L56.5745455 30.78zM61.9527273 34.9527273C61.9527273 36.9381818 60.6490909 38.0345455 59.2254545 38.0345455 57.8018182 38.0345455 56.4981818 36.9436364 56.4981818 34.9527273 56.4981818 32.9618182 57.8018182 31.8763636 59.2254545 31.8763636 60.6490909 31.8763636 61.9527273 32.9672727 61.9527273 34.9527273M58.5709091 34.9527273C58.5709091 36.3654545 58.8763636 36.8672727 59.2254545 36.8672727 59.5745455 36.8672727 59.88 36.3654545 59.88 34.9527273 59.88 33.54 59.5745455 33.0436364 59.2254545 33.0436364 58.8763636 33.0436364 58.5709091 33.5454545 58.5709091 34.9527273M64.4127273 32.0181818C64.4936914 32.2719312 64.5485215 32.5332879 64.5763636 32.7981818 64.8946097 32.2734704 65.4433281 31.9312808 66.0545455 31.8763636 66.1418266 31.8683078 66.2297636 31.8814048 66.3109091 31.9145455L66.3109091 33.4636364C66.1970401 33.4328175 66.0797706 33.4163265 65.9618182 33.4145455 65.0781818 33.4145455 64.6909091 34.2327273 64.6909091 35.5145455 64.6706381 36.3088586 64.7070944 37.1036057 64.8 37.8927273L62.6181818 37.8927273C62.7064694 37.1032559 62.7410943 36.3087042 62.7218182 35.5145455L62.7218182 34.4236364C62.7580362 33.6257791 62.6920461 32.8265661 62.5254545 32.0454545L64.4127273 32.0181818zM72.5454545 29.5690909C72.4963636 30.1145455 72.4854545 30.8072727 72.4854545 31.5163636L72.4854545 32.8581818C72.7418182 32.8581818 72.9981818 32.8581818 73.3690909 32.8581818 73.74 32.8581818 74.0018182 32.8581818 74.2581818 32.8581818L74.2581818 31.5163636C74.2581818 30.8072727 74.2581818 30.1418182 74.1981818 29.5690909L76.38 29.5690909C76.2654545 30.7690909 76.2654545 31.7509091 76.2654545 33.7309091 76.2654545 35.7109091 76.2654545 36.6927273 76.38 37.8927273L74.1981818 37.8927273C74.2472727 37.3472727 74.2581818 36.66 74.2581818 35.9454545L74.2581818 34.2436364C74.0018182 34.2436364 73.7454545 34.2436364 73.3690909 34.2436364 72.9927273 34.2436364 72.7418182 34.2436364 72.4854545 34.2436364L72.4854545 35.9454545C72.4854545 36.66 72.4854545 37.32 72.5454545 37.8927273L70.3636364 37.8927273C70.4781818 36.6927273 70.4781818 35.7109091 70.4781818 33.7309091 70.4781818 31.7509091 70.4781818 30.7690909 70.3636364 29.5690909L72.5454545 29.5690909zM80.64 37.8927273C80.5616285 37.7179989 80.5030815 37.5350394 80.4654545 37.3472727 80.0869801 37.7653755 79.5512009 38.006575 78.9872727 38.0127273 77.9945455 38.0127273 77.3509091 37.2872727 77.3509091 36.1690909L77.3509091 34.3963636C77.3701853 33.6022049 77.3355603 32.8076532 77.2472727 32.0181818L79.2381818 32.0181818 79.2381818 35.9236364C79.2381818 36.3872727 79.4236364 36.66 79.7836364 36.66 79.9471054 36.6616723 80.1040506 36.5959612 80.2175644 36.4783197 80.3310782 36.3606781 80.3911439 36.2014869 80.3836364 36.0381818L80.3836364 34.4018182C80.4039073 33.607505 80.367451 32.812758 80.2745455 32.0236364L82.3636364 32.0236364C82.2707308 32.812758 82.2342745 33.607505 82.2545455 34.4018182L82.2545455 35.4927273C82.2342745 36.2870405 82.2707308 37.0817875 82.3636364 37.8709091L80.64 37.8927273zM85.0909091 32.0181818C85.1692806 32.1929102 85.2278276 32.3758697 85.2654545 32.5636364 85.674792 32.1541213 86.2248985 31.916132 86.8036364 31.8981818 87.3385366 31.908984 87.8314474 32.190354 88.1127273 32.6454545 88.5375392 32.1892703 89.1261365 31.9204775 89.7490909 31.8981818 90.8890909 31.8981818 91.3254545 32.7054545 91.3254545 33.8563636L91.3254545 35.5363636C91.3061784 36.3305224 91.3408033 37.1250741 91.4290909 37.9145455L89.3290909 37.9145455C89.4173785 37.1250741 89.4520034 36.3305224 89.4327273 35.5363636L89.4327273 33.9C89.4327273 33.4909091 89.3181818 33.1909091 88.9581818 33.1909091 88.7775714 33.1909366 88.6057371 33.2688127 88.4866564 33.4046064 88.3675758 33.5404001 88.3128057 33.7209325 88.3363636 33.9L88.3363636 35.5363636C88.3160927 36.3306768 88.352549 37.1254239 88.4454545 37.9145455L86.3454545 37.9145455C86.4337421 37.1250741 86.4683671 36.3305224 86.4490909 35.5363636L86.4490909 33.9C86.4490909 33.5127273 86.3345455 33.2127273 85.9745455 33.2127273 85.809613 33.2083298 85.6496944 33.2696612 85.5299994 33.383218 85.4103044 33.4967748 85.3406469 33.6532464 85.3363636 33.8181818L85.3363636 35.5309091C85.3160927 36.3252223 85.352549 37.1199693 85.4454545 37.9090909L83.3454545 37.9090909C83.4337421 37.1196195 83.4683671 36.3250679 83.4490909 35.5309091L83.4490909 34.44C83.4683671 33.6458412 83.4337421 32.8512896 83.3454545 32.0618182L85.0909091 32.0181818zM92.5418182 31.9690909C92.9490081 31.9167613 93.3586609 31.8858097 93.7690909 31.8763636 96.18 31.8763636 96.9163636 32.82 96.9163636 34.3854545L96.9163636 35.8418182C96.8885528 36.5381307 96.990277 37.233554 97.2163636 37.8927273L95.3672727 37.8927273C95.2767946 37.7881728 95.2098298 37.6654039 95.1709091 37.5327273 94.7953045 37.8218238 94.3357733 37.9807451 93.8618182 37.9854545 93.3760385 38.0173199 92.8989231 37.8454988 92.5449959 37.5112343 92.1910687 37.1769697 91.9922865 36.710443 91.9963636 36.2236364 91.9963636 35.1327273 92.8472727 34.4290909 93.9545455 34.0690909L94.92 33.7527273C94.9224981 33.5392299 94.8342107 33.3347161 94.6771221 33.1901114 94.5200334 33.0455066 94.3089248 32.9744174 94.0963636 32.9945455 93.5292119 33.0401504 92.9882767 33.2527285 92.5418182 33.6054545L92.5418182 31.9690909zM95.0727273 34.86C94.3418182 35.0509091 93.8836364 35.5036364 93.8836364 36.0872727 93.8653828 36.268163 93.9231882 36.4484956 94.0432029 36.5850641 94.1632176 36.7216325 94.3346275 36.8021311 94.5163636 36.8072727 94.7257949 36.8008596 94.923235 36.7080628 95.0618182 36.5509091L95.0727273 34.86zM99.4527273 32.0181818C99.5310988 32.1929102 99.5896458 32.3758697 99.6272727 32.5636364 100.00703 32.1441459 100.545077 31.9028162 101.110909 31.8981818 102.098182 31.8981818 102.747273 32.6236364 102.747273 33.7418182L102.747273 35.5363636C102.727002 36.3306768 102.763458 37.1254239 102.856364 37.9145455L100.756364 37.9145455C100.844651 37.1250741 100.879276 36.3305224 100.86 35.5363636L100.86 33.9C100.86 33.54 100.707273 33.2509091 100.358182 33.2509091 100.039743 33.2381467 99.7678767 33.4787366 99.7418182 33.7963636L99.7418182 35.4981818C99.722542 36.2923406 99.757167 37.0868923 99.8454545 37.8763636L97.7509091 37.8763636C97.8391967 37.0868923 97.8738216 36.2923406 97.8545455 35.4981818L97.8545455 34.4072727C97.8738216 33.6131139 97.8391967 32.8185623 97.7509091 32.0290909L99.4527273 32.0181818zM104.596364 29.4872584C105.177757 29.4842681 105.651507 29.9531424 105.654532 30.5345362 105.657527 31.1159299 105.188657 31.5896841 104.607263 31.5927135 104.025869 31.5957141 103.552111 31.1268482 103.549077 30.5454545 103.547631 30.2672554 103.657499 30.0000281 103.854218 29.8033089 104.050937 29.6065897 104.318165 29.4967214 104.596364 29.4981818M105.561818 32.0290909C105.561818 32.6345455 105.561818 33.5236364 105.561818 34.7563636 105.527913 35.7993272 105.562533 36.8433916 105.665455 37.8818182L103.570909 37.8818182C103.659197 37.0923468 103.693822 36.2977951 103.674545 35.5036364L103.674545 34.4127273C103.693822 33.6185685 103.659197 32.8240168 103.570909 32.0345455L105.561818 32.0290909zM108.883636 30.2345455C108.883636 30.5945455 108.850909 31.2818182 108.850909 32.0181818L109.723636 32.0181818 109.723636 33.1090909 108.850909 33.1090909 108.850909 36.0490909C108.850909 36.5236364 109.025455 36.7909091 109.489091 36.7909091 109.57084 36.79567 109.652797 36.79567 109.734545 36.7909091L109.734545 37.8436364C109.353572 37.9639845 108.955866 38.022904 108.556364 38.0181818 108.076048 38.0417046 107.612208 37.8400349 107.301818 37.4727273 107.039462 37.0648627 106.920469 36.5812149 106.963636 36.0981818L106.963636 33.1363636 106.287273 33.1363636 106.287273 32.0454545 106.963636 32.0454545C106.963636 31.3090909 106.963636 30.6218182 106.925455 30.2618182L108.883636 30.2345455zM112.303636 32.0181818C112.518998 33.139295 112.793933 34.248139 113.127273 35.34L113.127273 35.34C113.421585 34.2478695 113.647478 33.1384421 113.803636 32.0181818L115.472727 32.0181818C114.980517 34.1911366 114.311002 36.3200845 113.470909 38.3836364 113.080421 39.4556749 112.041865 40.1524556 110.901818 40.1072727 110.718169 40.1109671 110.534818 40.0907984 110.356364 40.0472727L110.356364 38.5581818C110.555204 38.6685532 110.778075 38.7284848 111.005455 38.7327273 111.538444 38.7426076 111.985135 38.3319394 112.02 37.8 112.02 37.5763636 111.976364 37.44 111.507273 36.2018182 110.981225 34.8438138 110.568898 33.4444565 110.274545 32.0181818L112.303636 32.0181818z"/>
  </g>
</svg>
