<svg xmlns="http://www.w3.org/2000/svg" xmlns:xlink="http://www.w3.org/1999/xlink" width="71" height="35" viewBox="0 0 71 35">
  <defs>
    <polygon id="ucla-a" points="0 0 70.599 0 70.599 34.309 0 34.309"/>
  </defs>
  <g fill="none" fill-rule="evenodd">
    <mask id="ucla-b" fill="#fff">
      <use xlink:href="#ucla-a"/>
    </mask>
    <path fill="gray" d="M57.041925,20.9948 C55.811925,23.2348 54.751925,25.7673 55.081925,28.3723 C55.301925,29.2998 56.596925,29.1273 57.081925,28.5123 C58.601925,26.9473 58.889425,24.6573 59.794425,22.7448 C60.411925,21.5423 60.849425,19.7373 59.466925,18.8898 C58.496925,19.3723 57.566925,20.0223 57.041925,20.9948 M49.881925,8.3223 C49.041925,9.8273 48.594425,11.5023 47.894425,13.0698 C47.661925,13.5773 47.529425,14.1223 47.451925,14.6748 C48.454425,13.9598 48.924425,12.7873 49.646925,11.8348 C50.646925,10.4823 51.266925,8.9073 52.029425,7.4223 C52.494425,6.4798 52.834425,5.4498 52.759425,4.3873 C51.191925,5.1648 50.689425,6.9098 49.881925,8.3223 M49.181925,0.6248 C50.916925,-0.2352 53.276925,-0.3177 54.761925,1.0823 C55.749425,1.9848 55.641925,3.4373 55.544425,4.6498 C55.271925,6.2598 54.751925,7.8298 54.071925,9.3123 C53.151925,10.8973 52.476925,12.6173 51.401925,14.1098 C49.944425,16.7273 48.029425,19.0448 46.171925,21.3823 C45.684425,21.9648 45.049425,22.4273 44.654425,23.0848 C44.021925,24.8073 43.579425,26.6548 43.849425,28.4998 C44.259425,29.3123 45.344425,29.0598 46.016925,28.7623 C47.101925,28.2298 48.144425,27.5123 48.896925,26.5573 C49.139425,25.6573 49.029425,24.6848 49.359425,23.7948 C50.099425,21.6448 51.071925,19.5148 52.711925,17.8948 C54.039425,16.3423 55.911925,15.2873 57.946925,15.0398 C58.684425,14.9873 59.384425,15.2948 60.056925,15.5623 C60.941925,15.8998 61.479425,16.7223 62.156925,17.3373 C63.074425,15.7698 64.956925,14.6973 66.786925,15.0898 C67.271925,15.3448 67.689425,15.7273 67.994425,16.1848 C68.161925,16.7273 68.119425,17.3198 68.039425,17.8748 C67.216925,20.7748 65.844425,23.4723 64.881925,26.3198 C64.529425,27.2023 64.139425,28.1373 64.379425,29.1048 C65.856925,28.7373 66.911925,27.5823 68.219425,26.8873 C68.896925,26.6223 69.926925,26.5273 70.306925,27.3048 C71.059425,28.4123 70.221925,29.7748 69.326925,30.5123 C67.861925,32.0373 66.079425,33.2198 64.129425,34.0248 C62.964425,34.4098 61.586925,34.4498 60.519425,33.7673 C59.741925,33.2823 59.364425,32.4048 58.999425,31.6048 C58.121925,32.5148 57.174425,33.4198 56.014425,33.9573 C54.809425,34.1398 53.386925,34.2973 52.389425,33.4373 C51.406925,32.8223 50.734425,31.8598 50.226925,30.8423 C49.551925,31.3523 48.976925,31.9923 48.256925,32.4398 C46.201925,33.5773 43.859425,34.6948 41.449425,34.1198 C39.791925,33.8323 38.566925,32.4273 38.141925,30.8473 C37.281925,31.2748 36.659425,32.0423 35.804425,32.4723 C34.846925,32.9573 33.896925,33.4673 32.881925,33.8273 C31.861925,34.1948 30.759425,34.0448 29.696925,34.0798 C27.484425,34.1823 25.651925,32.5373 24.496925,30.8023 C23.261925,32.2648 21.609425,33.3623 19.806925,33.9898 C18.404425,34.3673 16.721925,34.2773 15.619425,33.2248 C14.789425,32.5998 14.386925,31.6098 13.954425,30.6998 C12.566925,32.8673 10.119425,34.4273 7.491925,34.3023 C5.554425,34.3723 3.761925,33.1948 2.769425,31.5848 C2.101925,30.3898 1.969425,28.9923 2.001925,27.6498 C1.964425,25.4173 2.479425,23.2223 3.109425,21.0973 C3.811925,18.4748 4.291925,15.7898 5.229425,13.2348 C5.806925,10.9073 6.814425,8.5898 6.524425,6.1423 C6.471925,5.5673 5.939425,5.2123 5.441925,5.0348 C4.616925,5.0223 3.916925,5.7273 3.761925,6.5098 C3.424425,7.5673 3.851925,8.8748 3.071925,9.7748 C2.166925,10.7123 0.499425,10.0973 0.194425,8.9023 C-0.300575,6.8898 0.146925,4.5723 1.566925,3.0223 C2.806925,1.3398 5.046925,0.8423 7.019425,0.7273 C9.041925,0.5673 11.256925,1.5273 12.136925,3.4298 C12.939425,5.1623 13.339425,7.1648 12.854425,9.0423 C12.331925,11.3773 11.879425,13.7398 11.079425,15.9998 C10.311925,18.3048 9.891925,20.7123 9.111925,23.0148 C8.604425,24.6548 8.336925,26.4223 8.634425,28.1273 C9.091925,28.9373 10.301925,29.0248 10.956925,28.4098 C12.104425,27.4748 12.574425,25.9898 13.234425,24.7123 C14.349425,21.7123 14.929425,18.5473 15.776925,15.4673 C16.389425,12.0223 17.651925,8.7498 18.379425,5.3348 C18.724425,3.8723 18.984425,2.1873 20.289425,1.2423 C21.794425,0.2473 24.041925,0.1323 25.416925,1.4148 C25.921925,1.9223 25.894425,2.7098 25.661925,3.3398 C24.804425,5.9223 24.349425,8.6173 23.534425,11.2123 C22.769425,13.5673 22.331925,16.0073 21.696925,18.3973 C20.794425,21.1523 20.276925,24.0198 19.911925,26.8923 C19.774425,27.6123 20.104425,28.2973 20.171925,29.0048 C21.506925,29.2398 22.566925,28.2223 23.259425,27.2098 C23.809425,26.4773 23.726925,25.5098 23.834425,24.6473 C24.171925,21.0548 26.511925,17.8048 29.681925,16.1523 C31.716925,15.2273 34.181925,14.8623 36.256925,15.8698 C38.706925,17.2423 39.066925,21.0848 37.006925,22.9548 C35.811925,24.4573 32.876925,24.4048 32.096925,22.5173 C31.904425,21.8198 32.066925,21.0898 32.111925,20.3848 C30.881925,21.9523 30.349425,23.9373 30.116925,25.8848 C30.076925,26.9998 30.304425,28.4098 31.404425,28.9698 C32.274425,29.1598 33.209425,29.0773 34.024425,28.7098 C35.359425,28.0923 36.769425,27.5273 37.854425,26.5023 C38.114425,26.0848 38.134425,25.5723 38.251925,25.1048 C38.589425,23.1723 39.031925,21.2573 39.649425,19.3948 C40.189425,17.7173 40.546925,15.9873 41.139425,14.3248 C42.251925,11.5123 43.021925,8.5598 44.441925,5.8748 C45.356925,3.6623 46.904425,1.5598 49.181925,0.6248" mask="url(#ucla-b)"/>
  </g>
</svg>
