<svg width="48" height="32" viewBox="0 0 48 32" fill="none" xmlns="http://www.w3.org/2000/svg">
<rect x="0.5" y="0.5" width="47" height="31" rx="3.5" fill="#FAFAFA" stroke="#E0E0E0"/>
<path fill-rule="evenodd" clip-rule="evenodd" d="M13.1671 10.8049C12.7715 11.2778 12.1387 11.6508 11.5058 11.5975C11.4267 10.9581 11.7365 10.2788 12.0991 9.85918C12.4947 9.37298 13.1869 9.02664 13.7472 9C13.8132 9.66603 13.5561 10.3187 13.1671 10.8049ZM13.7404 11.7242C13.1828 11.6917 12.674 11.8936 12.2631 12.0566C11.9987 12.1615 11.7747 12.2503 11.6044 12.2503C11.4132 12.2503 11.18 12.1567 10.9182 12.0517C10.5751 11.914 10.1829 11.7566 9.77162 11.7641C8.82888 11.7774 7.95206 12.3169 7.4708 13.1761C6.48191 14.8945 7.21369 17.4387 8.16962 18.8374C8.63769 19.5301 9.19806 20.2893 9.93643 20.2627C10.2613 20.2503 10.4949 20.1501 10.7368 20.0465C11.0152 19.9271 11.3044 19.8031 11.756 19.8031C12.1919 19.8031 12.4685 19.9239 12.734 20.0398C12.9864 20.15 13.2289 20.2559 13.5887 20.2494C14.3535 20.2361 14.8347 19.5567 15.3028 18.864C15.8079 18.1206 16.0299 17.3951 16.0636 17.285L16.0676 17.2722C16.0668 17.2714 16.0606 17.2685 16.0496 17.2635L16.0496 17.2635L16.0495 17.2634L16.0495 17.2634C15.8806 17.1853 14.59 16.5884 14.5776 14.9877C14.5652 13.6442 15.6013 12.9635 15.7644 12.8563C15.7744 12.8498 15.781 12.8454 15.7841 12.8431C15.1248 11.8574 14.0964 11.7508 13.7404 11.7242ZM19.0344 20.1759V9.79244H22.8911C24.882 9.79244 26.2731 11.1778 26.2731 13.2025C26.2731 15.2273 24.8557 16.6259 22.8383 16.6259H20.6298V20.1759H19.0344ZM20.6293 11.1512H22.4686C23.8531 11.1512 24.6442 11.8972 24.6442 13.2093C24.6442 14.5213 23.8531 15.274 22.462 15.274H20.6293V11.1512ZM31.5405 18.9306C31.1186 19.7432 30.189 20.256 29.1869 20.256C27.7036 20.256 26.6686 19.3636 26.6686 18.0182C26.6686 16.6861 27.6706 15.9202 29.5232 15.8069L31.5141 15.6871V15.1143C31.5141 14.2684 30.9669 13.8088 29.9912 13.8088C29.1869 13.8088 28.6002 14.2284 28.4815 14.8678H27.0443C27.0905 13.5224 28.3431 12.5434 30.0374 12.5434C31.8635 12.5434 33.0502 13.5091 33.0502 15.0077V20.1761H31.5735V18.9306H31.5405ZM29.6156 19.0239C28.7651 19.0239 28.2245 18.611 28.2245 17.9782C28.2245 17.3255 28.7453 16.9459 29.7408 16.8859L31.5142 16.7727V17.3588C31.5142 18.3312 30.6968 19.0239 29.6156 19.0239ZM37.9482 20.5824C37.3087 22.4007 36.577 23.0001 35.0211 23.0001C34.9024 23.0001 34.5069 22.9868 34.4146 22.9601V21.7147C34.5135 21.728 34.7574 21.7413 34.8827 21.7413C35.5881 21.7413 35.9836 21.4416 36.2276 20.6623L36.3726 20.2028L33.6696 12.6433H35.3375L37.2164 18.7774H37.2494L39.1283 12.6433H40.7501L37.9482 20.5824Z" fill="black"/>
</svg>
