<svg width="32" height="32" viewBox="0 0 32 32" fill="none" xmlns="http://www.w3.org/2000/svg">
<rect x="0.5" y="0.5" width="31" height="31" rx="3.5" fill="#FAFAFA" stroke="#E0E0E0"/>
<path fill-rule="evenodd" clip-rule="evenodd" d="M16.2 11.1511C17.2114 11.2363 18.2229 10.6402 18.855 9.88451C19.4766 9.1075 19.8875 8.0644 19.7822 7C18.8866 7.04258 17.7804 7.59606 17.1482 8.37307C16.5688 9.04364 16.0736 10.1293 16.2 11.1511ZM17.4111 11.8847C18.0678 11.6242 18.8808 11.3016 19.7719 11.3534C20.3408 11.396 21.9844 11.5663 23.0379 13.1416C23.0331 13.1453 23.0224 13.1523 23.0066 13.1627C22.7459 13.334 21.09 14.4219 21.1099 16.569C21.1297 19.127 23.1923 20.081 23.4621 20.2058C23.4797 20.2139 23.4897 20.2185 23.491 20.2199C23.4898 20.2233 23.4878 20.2301 23.4847 20.2402C23.4308 20.4162 23.0761 21.5757 22.2688 22.7638C21.5208 23.8707 20.7517 24.9564 19.5296 24.9777C18.9544 24.9881 18.567 24.8189 18.1636 24.6428C17.7393 24.4575 17.2973 24.2646 16.6006 24.2646C15.8789 24.2646 15.4167 24.4627 14.9718 24.6534C14.5853 24.8191 14.2119 24.9792 13.6928 24.999C12.5128 25.0416 11.6172 23.8282 10.8692 22.7212C9.3415 20.486 8.17203 16.42 9.75239 13.6738C10.5215 12.3008 11.9228 11.4386 13.4294 11.4173C14.0867 11.4052 14.7135 11.6568 15.2617 11.8768C15.6801 12.0448 16.0528 12.1943 16.3583 12.1943C16.6306 12.1943 16.9884 12.0523 17.4111 11.8847Z" fill="black"/>
</svg>
