<svg width="24" height="24" viewBox="0 0 24 24" fill="none" xmlns="http://www.w3.org/2000/svg">
<rect width="24" height="24" rx="4" fill="black"/>
<path fill-rule="evenodd" clip-rule="evenodd" d="M12.15 8.36336C12.9086 8.42722 13.6671 7.98017 14.1413 7.41338C14.6075 6.83063 14.9156 6.0483 14.8366 5.25C14.165 5.28193 13.3353 5.69705 12.8612 6.2798C12.4266 6.78273 12.0552 7.59699 12.15 8.36336ZM13.0583 8.91352C13.5508 8.71813 14.1606 8.47622 14.8289 8.51508C15.2556 8.54701 16.4883 8.67474 17.2785 9.85622C17.2748 9.85897 17.2668 9.86424 17.2549 9.87205C17.0594 10.0005 15.8175 10.8164 15.8324 12.4267C15.8473 14.3453 17.3942 15.0607 17.5966 15.1543C17.6098 15.1605 17.6173 15.1639 17.6182 15.1649C17.6174 15.1675 17.6158 15.1726 17.6135 15.1802C17.5731 15.3121 17.3071 16.1818 16.7016 17.0728C16.1406 17.903 15.5638 18.7173 14.6472 18.7333C14.2158 18.7411 13.9253 18.6142 13.6227 18.4821C13.3045 18.3432 12.973 18.1984 12.4505 18.1984C11.9092 18.1984 11.5625 18.347 11.2288 18.4901C10.939 18.6143 10.6589 18.7344 10.2696 18.7492C9.38457 18.7812 8.71291 17.8711 8.15189 17.0409C7.00612 15.3645 6.12903 12.315 7.31429 10.2554C7.89113 9.22556 8.94207 8.57894 10.072 8.56298C10.565 8.55392 11.0351 8.74259 11.4463 8.90762C11.7601 9.03356 12.0396 9.14573 12.2687 9.14573C12.4729 9.14573 12.7413 9.03926 13.0583 8.91352Z" fill="white"/>
</svg>
