<svg width="47" height="32" viewBox="0 0 47 32" fill="none" xmlns="http://www.w3.org/2000/svg">
<rect x="0.25" y="0.25" width="22" height="14.5" rx="3.75" fill="#FAFAFA" stroke="#E0E0E0" stroke-width="0.5"/>
<path d="M15.2179 4.91791C14.7913 4.76247 14.3404 4.68448 13.8864 4.68759C12.4183 4.68759 11.3814 5.42718 11.374 6.48885C11.3649 7.26881 12.1109 7.70834 12.6752 7.96894C13.2542 8.23688 13.4478 8.40572 13.446 8.64521C13.4423 9.0095 12.9835 9.17467 12.5568 9.17467C11.9705 9.17467 11.6502 9.093 11.1575 8.88838L10.9749 8.80304L10.7666 10.0253C11.1235 10.1739 11.7668 10.3015 12.4311 10.3125C13.992 10.3125 15.0123 9.5775 15.0243 8.44793C15.0371 7.82488 14.6334 7.35415 13.7837 6.96508C13.267 6.71274 12.9468 6.5439 12.9468 6.28789C12.9468 6.06124 13.2212 5.81899 13.7947 5.81899C14.1764 5.80976 14.5557 5.88137 14.9077 6.02913L15.0454 6.09061L15.2537 4.90965L15.2179 4.91791ZM19.0278 4.78669H17.8808C17.5238 4.78669 17.255 4.88487 17.099 5.23907L14.893 10.2363H16.4539L16.7659 9.41692L18.6708 9.41875C18.7158 9.61053 18.8534 10.2363 18.8534 10.2363H20.2298L19.0278 4.78669ZM9.26263 4.74081H10.7501L9.81961 10.1932H8.33401L9.26263 4.73898V4.74081ZM5.48669 7.74596L5.64085 8.50299L7.09433 4.78669H8.66986L6.32905 10.229H4.75719L3.47255 5.62079C3.45174 5.54481 3.40288 5.47955 3.33583 5.43819C2.8728 5.199 2.3822 5.01749 1.875 4.89772L1.89519 4.78302H4.28922C4.61405 4.79587 4.87556 4.89772 4.96274 5.24457L5.48577 7.74872V7.74596H5.48669ZM17.1926 8.30203L17.7853 6.77697C17.778 6.79349 17.9074 6.46223 17.9826 6.25761L18.0845 6.72834L18.4286 8.30111H17.1916V8.30203H17.1926Z" fill="#0032BF"/>
<rect x="24.75" y="0.25" width="22" height="14.5" rx="3.75" fill="#FAFAFA" stroke="#E0E0E0" stroke-width="0.5"/>
<path d="M37.4103 10.4487H34.1087V4.55226H37.4103V10.4487Z" fill="#FF5F00"/>
<path d="M34.3202 7.5C34.3202 6.30388 34.8838 5.23841 35.7614 4.55178C35.1196 4.04969 34.3097 3.75 33.4294 3.75C31.3455 3.75 29.6562 5.42891 29.6562 7.5C29.6562 9.57109 31.3455 11.25 33.4294 11.25C34.3097 11.25 35.1196 10.9503 35.7614 10.4482C34.8838 9.76159 34.3202 8.69612 34.3202 7.5Z" fill="#EB001B"/>
<path d="M41.8632 7.5C41.8632 9.57109 40.1739 11.25 38.09 11.25C37.2098 11.25 36.3998 10.9503 35.7578 10.4482C36.6356 9.76159 37.1992 8.69612 37.1992 7.5C37.1992 6.30388 36.6356 5.23841 35.7578 4.55178C36.3998 4.04969 37.2098 3.75 38.09 3.75C40.1739 3.75 41.8632 5.42891 41.8632 7.5Z" fill="#F79E1B"/>
<rect y="17" width="22.5" height="15" rx="4" fill="#016FD0"/>
<path d="M4.36774 28.9317V25.3903H8.10798L8.50928 25.9148L8.92385 25.3903H22.5V28.6875C22.5 28.6875 22.145 28.9281 21.7343 28.9317H14.2169L13.7645 28.3734V28.9317H12.2819V27.9787C12.2819 27.9787 12.0794 28.1118 11.6415 28.1118H11.1369V28.9317H8.89212L8.49139 28.396L8.08452 28.9317L4.36774 28.9317ZM0 22.7213L0.843437 20.75H2.30209L2.78073 21.8542V20.75H4.59396L4.87891 21.5481L5.15515 20.75H13.2947V21.1512C13.2947 21.1512 13.7226 20.75 14.4258 20.75L17.0667 20.7593L17.5371 21.849V20.75H19.0545L19.4721 21.376V20.75H21.0035V24.2913H19.4721L19.0719 23.6633V24.2913H16.8425L16.6183 23.7331H16.019L15.7984 24.2913H14.2865C13.6815 24.2913 13.2947 23.8983 13.2947 23.8983V24.2913H11.0151L10.5626 23.7331V24.2913H2.086L1.86195 23.7331H1.26449L1.04209 24.2913H0V22.7213Z" fill="white"/>
<path d="M1.13794 21.0406L0.00292969 23.6861H0.741882L0.951308 23.1563H2.16879L2.37712 23.6861H3.13236L1.99839 21.0406H1.13794ZM1.55787 21.6562L1.92896 22.582H1.18569L1.55787 21.6562ZM3.21047 23.6857V21.0401L4.26055 21.044L4.87132 22.7497L5.46746 21.0401H6.50916V23.6857H5.84942V21.7363L5.15008 23.6857H4.57149L3.87021 21.7363V23.6857H3.21047ZM6.96055 23.6857V21.0401H9.11339V21.6319H7.62724V22.0844H9.07866V22.6414H7.62724V23.1113H9.11339V23.6857H6.96055ZM9.49535 21.0406V23.6861H10.1551V22.7462H10.4329L11.2239 23.6861H12.0301L11.162 22.7114C11.5183 22.6813 11.8858 22.3747 11.8858 21.8988C11.8858 21.3421 11.4499 21.0406 10.9635 21.0406H9.49535ZM10.1551 21.6323H10.9092C11.0901 21.6323 11.2217 21.7742 11.2217 21.9108C11.2217 22.0865 11.0512 22.1893 10.919 22.1893H10.1551V21.6323ZM12.8288 23.6857H12.1551V21.0401H12.8288V23.6857ZM14.426 23.6857H14.2806C13.5771 23.6857 13.1499 23.13 13.1499 22.3738C13.1499 21.5988 13.5723 21.0401 14.4607 21.0401H15.1899V21.6667H14.4341C14.0734 21.6667 13.8184 21.9488 13.8184 22.3803C13.8184 22.8926 14.11 23.1078 14.5302 23.1078H14.7038L14.426 23.6857ZM15.8616 21.0406L14.7266 23.6861H15.4656L15.675 23.1563H16.8924L17.1008 23.6861H17.856L16.7221 21.0406H15.8616ZM16.2815 21.6562L16.6526 22.582H15.9093L16.2815 21.6562ZM17.933 23.6857V21.0401H18.7718L19.8428 22.7023V21.0401H20.5026V23.6857H19.6909L18.5928 21.98V23.6857H17.933ZM4.80774 28.3154V25.6698H6.96055V26.2616H5.47441V26.7141H6.92583V27.2711H5.47441V27.741H6.96055V28.3154H4.80774ZM15.3566 28.3154V25.6698H17.5094V26.2616H16.0233V26.7141H17.4678V27.2711H16.0233V27.741H17.5094V28.3154H15.3566ZM7.04411 28.3154L8.09232 27.0089L7.01915 25.6698H7.85035L8.48947 26.4976L9.13078 25.6698H9.92942L8.87036 26.9926L9.92048 28.3154H9.08944L8.46886 27.5006L7.86338 28.3154H7.04411ZM9.99884 25.6703V28.3158H10.6759V27.4804H11.3704C11.958 27.4804 12.4034 27.1679 12.4034 26.5601C12.4034 26.0566 12.0541 25.6703 11.4561 25.6703H9.99884ZM10.6759 26.2686H11.4073C11.5971 26.2686 11.7328 26.3852 11.7328 26.5731C11.7328 26.7497 11.5978 26.8777 11.4051 26.8777H10.6759V26.2686ZM12.6899 25.6698V28.3154H13.3496V27.3755H13.6274L14.4184 28.3154H15.2246L14.3566 27.3407C14.7128 27.3106 15.0803 27.004 15.0803 26.5281C15.0803 25.9714 14.6445 25.6698 14.158 25.6698H12.6899ZM13.3496 26.2616H14.1037C14.2847 26.2616 14.4163 26.4034 14.4163 26.5401C14.4163 26.7158 14.2457 26.8185 14.1135 26.8185H13.3496V26.2616ZM17.815 28.3154V27.741H19.1353C19.3307 27.741 19.4153 27.6352 19.4153 27.5191C19.4153 27.4079 19.331 27.2954 19.1353 27.2954H18.5387C18.0201 27.2954 17.7312 26.9787 17.7312 26.5031C17.7312 26.0789 17.9957 25.6698 18.7664 25.6698H20.0511L19.7734 26.2651H18.6622C18.4498 26.2651 18.3845 26.3768 18.3845 26.4835C18.3845 26.5931 18.4652 26.7141 18.6275 26.7141H19.2525C19.8307 26.7141 20.0815 27.0429 20.0815 27.4734C20.0815 27.9363 19.802 28.3154 19.2211 28.3154H17.815ZM20.2364 28.3154V27.741H21.5567C21.7521 27.741 21.8367 27.6352 21.8367 27.5191C21.8367 27.4079 21.7524 27.2954 21.5567 27.2954H20.9601C20.4414 27.2954 20.1526 26.9787 20.1526 26.5031C20.1526 26.0789 20.4171 25.6698 21.1878 25.6698H22.4725L22.1948 26.2651H21.0836C20.8712 26.2651 20.8058 26.3768 20.8058 26.4835C20.8058 26.5931 20.8866 26.7141 21.0489 26.7141H21.6739C22.2521 26.7141 22.5029 27.0429 22.5029 27.4734C22.5029 27.9363 22.2234 28.3154 21.6425 28.3154H20.2364Z" fill="#016FD0"/>
<rect x="24.5" y="17" width="22.5" height="15" rx="4" fill="#0079BE"/>
<path d="M29.6787 27.2578C31.073 27.2645 32.3456 26.1207 32.3456 24.7292C32.3456 23.2075 31.073 22.1557 29.6787 22.1563H28.4787C27.0677 22.1557 25.9062 23.2078 25.9062 24.7292C25.9062 26.121 27.0677 27.2645 28.4787 27.2578H29.6787Z" fill="white"/>
<path d="M28.4844 22.3671C27.195 22.3675 26.1502 23.4126 26.1499 24.7025C26.1502 25.9921 27.195 27.0371 28.4844 27.0375C29.774 27.0371 30.819 25.9921 30.8192 24.7025C30.819 23.4126 29.774 22.3675 28.4844 22.3671ZM27.0046 24.7025C27.0058 24.0722 27.3995 23.5347 27.9546 23.3211V26.0835C27.3995 25.8701 27.0058 25.3329 27.0046 24.7025ZM29.0139 26.0841V23.321C29.5692 23.5341 29.9635 24.0719 29.9645 24.7025C29.9635 25.3333 29.5692 25.8707 29.0139 26.0841Z" fill="#0079BE"/>
<path d="M33.1633 23.2538C33.1633 23.0125 33.0375 23.0284 32.9168 23.0257V22.956C33.0214 22.9612 33.1286 22.9612 33.2334 22.9612C33.346 22.9612 33.499 22.956 33.6976 22.956C34.3921 22.956 34.7704 23.42 34.7704 23.8951C34.7704 24.1608 34.6149 24.8288 33.6653 24.8288C33.5285 24.8288 33.4023 24.8235 33.2763 24.8235C33.1556 24.8235 33.0375 24.8262 32.9168 24.8288V24.7591C33.0777 24.7429 33.1556 24.7376 33.1633 24.5551L33.1633 23.2538ZM33.4263 24.5123C33.4263 24.7189 33.574 24.743 33.7054 24.743C34.285 24.743 34.4752 24.3056 34.4752 23.9058C34.4752 23.4042 34.1533 23.042 33.6356 23.042C33.5255 23.042 33.4749 23.0499 33.4263 23.0528L33.4263 24.5123Z" fill="white"/>
<path d="M34.8645 24.7592H34.9153C34.9904 24.7592 35.0441 24.7592 35.0441 24.6704V23.9434C35.0441 23.8255 35.0039 23.8091 34.9046 23.7558V23.7127C35.0306 23.6749 35.1811 23.6243 35.1916 23.6162C35.2105 23.6054 35.2265 23.6026 35.24 23.6026C35.2532 23.6026 35.2588 23.6188 35.2588 23.6404V24.6704C35.2588 24.7592 35.3178 24.7592 35.3929 24.7592H35.4385V24.8289C35.3472 24.8289 35.2532 24.8235 35.1569 24.8235C35.0603 24.8235 34.9636 24.8262 34.8645 24.8289L34.8645 24.7592ZM35.1515 23.1895C35.0817 23.1895 35.0201 23.1251 35.0201 23.0554C35.0201 22.9882 35.0845 22.9263 35.1515 22.9263C35.221 22.9263 35.283 22.9829 35.283 23.0554C35.283 23.1279 35.2238 23.1895 35.1515 23.1895Z" fill="white"/>
<path d="M35.6933 23.9594C35.6933 23.8602 35.6637 23.8335 35.5378 23.7825V23.7316C35.6531 23.694 35.763 23.6591 35.8918 23.6026C35.8998 23.6026 35.9077 23.6081 35.9077 23.6294V23.8039C36.0609 23.694 36.1923 23.6026 36.3723 23.6026C36.6 23.6026 36.6805 23.769 36.6805 23.9782V24.6704C36.6805 24.7592 36.7395 24.7592 36.8147 24.7592H36.863V24.8289C36.7689 24.8289 36.6751 24.8235 36.5787 24.8235C36.482 24.8235 36.3853 24.8262 36.2889 24.8289V24.7592H36.3371C36.4124 24.7592 36.4657 24.7592 36.4657 24.6704V23.9757C36.4657 23.8226 36.3723 23.7475 36.2191 23.7475C36.1334 23.7475 35.9966 23.8173 35.9077 23.8764V24.6704C35.9077 24.7591 35.967 24.7591 36.0422 24.7591H36.0904V24.8289C35.9966 24.8289 35.9025 24.8235 35.806 24.8235C35.7095 24.8235 35.6127 24.8262 35.5163 24.8289V24.7591H35.5646C35.6398 24.7591 35.6933 24.7591 35.6933 24.6704L35.6933 23.9594Z" fill="white"/>
<path d="M37.067 24.0884C37.0614 24.1126 37.0614 24.1527 37.067 24.244C37.0828 24.4988 37.2469 24.708 37.4611 24.708C37.6088 24.708 37.7244 24.6276 37.8235 24.5284L37.8609 24.566C37.7375 24.7296 37.5846 24.8691 37.3648 24.8691C36.9381 24.8691 36.8523 24.4558 36.8523 24.2842C36.8523 23.7583 37.2063 23.6026 37.394 23.6026C37.6114 23.6026 37.845 23.7394 37.8475 24.0238C37.8475 24.0401 37.8475 24.056 37.845 24.0723L37.8207 24.0884H37.067ZM37.5419 24.0024C37.6088 24.0024 37.6167 23.9675 37.6167 23.9354C37.6167 23.7986 37.5336 23.6885 37.3833 23.6885C37.2198 23.6885 37.1072 23.8091 37.075 24.0024H37.5419Z" fill="white"/>
<path d="M37.9093 24.7592H37.9817C38.0566 24.7592 38.1103 24.7592 38.1103 24.6704V23.9166C38.1103 23.8335 38.0112 23.8173 37.9708 23.7958V23.7557C38.1667 23.6724 38.274 23.6026 38.2984 23.6026C38.3143 23.6026 38.3222 23.6107 38.3222 23.6376V23.879H38.3279C38.3948 23.7745 38.5077 23.6026 38.6711 23.6026C38.7382 23.6026 38.824 23.6481 38.824 23.7448C38.824 23.8173 38.7732 23.8819 38.6981 23.8819C38.6146 23.8819 38.6146 23.8173 38.5208 23.8173C38.4752 23.8173 38.3251 23.879 38.3251 24.0401V24.6704C38.3251 24.7591 38.3786 24.7591 38.4538 24.7591H38.6039V24.8289C38.4564 24.8262 38.3441 24.8235 38.2285 24.8235C38.1186 24.8235 38.0058 24.8262 37.9093 24.8289L37.9093 24.7592Z" fill="white"/>
<path d="M38.9421 24.4558C38.977 24.6329 39.0842 24.7832 39.2802 24.7832C39.4381 24.7832 39.4972 24.6867 39.4972 24.5928C39.4972 24.2761 38.9125 24.3781 38.9125 23.9462C38.9125 23.7958 39.0334 23.6026 39.3284 23.6026C39.4141 23.6026 39.5294 23.6269 39.6339 23.6806L39.653 23.9541H39.5911C39.5644 23.7852 39.4706 23.6886 39.2987 23.6886C39.1914 23.6886 39.0896 23.7503 39.0896 23.8656C39.0896 24.1798 39.7119 24.0829 39.7119 24.5041C39.7119 24.6811 39.5697 24.8691 39.2504 24.8691C39.1431 24.8691 39.0171 24.8315 38.9233 24.778L38.8937 24.4694L38.9421 24.4558Z" fill="white"/>
<path d="M42.1342 23.4417H42.0673C42.0163 23.1279 41.7936 23.0016 41.4933 23.0016C41.1846 23.0016 40.7366 23.2081 40.7366 23.852C40.7366 24.3943 41.1231 24.7832 41.5361 24.7832C41.8016 24.7832 42.0217 24.6008 42.0754 24.319L42.1369 24.335L42.0754 24.7267C41.9627 24.7967 41.6596 24.8691 41.4823 24.8691C40.8548 24.8691 40.4579 24.4639 40.4579 23.8602C40.4579 23.3102 40.9487 22.9156 41.4744 22.9156C41.6917 22.9156 41.9009 22.9857 42.1075 23.0581L42.1342 23.4417Z" fill="white"/>
<path d="M42.2818 24.7592C42.357 24.7592 42.4109 24.7592 42.4109 24.6704V23.1762C42.4109 23.0017 42.3706 22.9963 42.2685 22.9668V22.9239C42.3758 22.8891 42.4885 22.8407 42.5449 22.8084C42.5741 22.7924 42.5958 22.7789 42.6037 22.7789C42.6201 22.7789 42.6254 22.7951 42.6254 22.8166V24.6704C42.6254 24.7592 42.6844 24.7592 42.7596 24.7592H42.8048V24.8289C42.714 24.8289 42.6201 24.8235 42.5234 24.8235C42.427 24.8235 42.3304 24.8262 42.231 24.8289V24.7592H42.2818Z" fill="white"/>
<path d="M43.9534 24.6811C43.9534 24.7296 43.9828 24.7322 44.0283 24.7322C44.0606 24.7322 44.1007 24.7296 44.1357 24.7296V24.7861C44.0202 24.7967 43.8003 24.8531 43.7493 24.8691L43.7358 24.861V24.6439C43.5751 24.7752 43.4515 24.8691 43.2609 24.8691C43.116 24.8691 42.9658 24.7752 42.9658 24.55V23.8629C42.9658 23.7932 42.9552 23.7261 42.8052 23.7127V23.6617C42.9019 23.6591 43.116 23.643 43.1511 23.643C43.1808 23.643 43.1808 23.6617 43.1808 23.7207V24.4128C43.1808 24.4934 43.1808 24.7241 43.414 24.7241C43.5052 24.7241 43.6259 24.6544 43.7384 24.5607V23.8386C43.7384 23.7852 43.6098 23.7557 43.5134 23.7288V23.6805C43.7545 23.6643 43.905 23.643 43.9317 23.643C43.9534 23.643 43.9534 23.6617 43.9534 23.6913L43.9534 24.6811Z" fill="white"/>
<path d="M44.4872 23.7958C44.5944 23.7046 44.7392 23.6026 44.8869 23.6026C45.1982 23.6026 45.3857 23.8739 45.3857 24.1661C45.3857 24.5175 45.1283 24.8691 44.7445 24.8691C44.5461 24.8691 44.4415 24.8046 44.3717 24.7752L44.2913 24.8368L44.2352 24.8074C44.2589 24.6491 44.2726 24.4934 44.2726 24.3299V23.1762C44.2726 23.0017 44.2321 22.9963 44.1303 22.9668V22.9239C44.2379 22.8891 44.3502 22.8407 44.4066 22.8084C44.4362 22.7924 44.4575 22.7789 44.4658 22.7789C44.4818 22.7789 44.4872 22.7951 44.4872 22.8166L44.4872 23.7958ZM44.4872 24.5255C44.4872 24.6276 44.5837 24.7994 44.7634 24.7994C45.0505 24.7994 45.1711 24.5175 45.1711 24.2787C45.1711 23.989 44.9514 23.7476 44.7421 23.7476C44.6426 23.7476 44.5596 23.812 44.4872 23.8739L44.4872 24.5255Z" fill="white"/>
<path d="M32.9138 26.3888H32.9343C32.9868 26.3888 33.0422 26.3817 33.0422 26.3057V25.5409C33.0422 25.4648 32.9868 25.4576 32.9343 25.4576H32.9138V25.4137C32.9708 25.4137 33.0583 25.4195 33.1301 25.4195C33.203 25.4195 33.2904 25.4137 33.359 25.4137V25.4576H33.3385C33.2862 25.4576 33.2306 25.4648 33.2306 25.5409V26.3057C33.2306 26.3817 33.2862 26.3888 33.3385 26.3888H33.359V26.4328C33.289 26.4328 33.2012 26.4271 33.1285 26.4271C33.0569 26.4271 32.9708 26.4328 32.9138 26.4328V26.3888Z" fill="white"/>
<path d="M33.3591 26.439C33.2885 26.439 33.2011 26.4332 33.1284 26.4332C33.057 26.4332 32.9712 26.439 32.9138 26.439H32.9075V26.3825H32.9343C32.9872 26.3813 33.0354 26.3771 33.0359 26.3057V25.5409C33.0354 25.4695 32.9872 25.4648 32.9343 25.4637H32.9075V25.4073H32.9138C32.9712 25.4073 33.0587 25.413 33.13 25.413C33.2027 25.413 33.2901 25.4073 33.3591 25.4073H33.3656V25.4637H33.3386C33.2857 25.4648 33.2372 25.4695 33.2369 25.5409V26.3057C33.2372 26.3771 33.2857 26.3813 33.3386 26.3825H33.3656V26.439H33.3591ZM33.3528 26.4266V26.3954H33.3386C33.2865 26.3954 33.2245 26.3864 33.2242 26.3057V25.5409C33.2245 25.4602 33.2865 25.4511 33.3386 25.4511H33.3528V25.4201C33.2854 25.4201 33.2009 25.4258 33.13 25.4258C33.0607 25.4258 32.9768 25.4205 32.9203 25.4201V25.4511H32.9343C32.9863 25.4511 33.0485 25.4602 33.0485 25.5409V26.3057C33.0485 26.3864 32.9863 26.3954 32.9343 26.3954H32.9203V26.4266C32.9768 26.426 33.0593 26.4207 33.1284 26.4207C33.1995 26.4207 33.284 26.4262 33.3528 26.4266Z" fill="white"/>
<path d="M34.3619 26.1451L34.3648 26.1422V25.5948C34.3648 25.475 34.2815 25.4576 34.2378 25.4576H34.2056V25.4137C34.2743 25.4137 34.3414 25.4195 34.41 25.4195C34.4698 25.4195 34.5299 25.4137 34.5896 25.4137V25.4576H34.5678C34.5063 25.4576 34.4377 25.4692 34.4377 25.6429V26.3073C34.4377 26.3584 34.4392 26.4094 34.4464 26.4546H34.3908L33.6393 25.6166V26.2182C33.6393 26.3452 33.6638 26.3888 33.7764 26.3888H33.8011V26.4328C33.7384 26.4328 33.6758 26.4271 33.6129 26.4271C33.5474 26.4271 33.4802 26.4328 33.4144 26.4328V26.3888H33.4349C33.5356 26.3888 33.5662 26.3204 33.5662 26.2037V25.5888C33.5662 25.5071 33.4989 25.4576 33.4335 25.4576H33.4145V25.4138C33.4699 25.4138 33.5268 25.4195 33.5822 25.4195C33.626 25.4195 33.6684 25.4138 33.7121 25.4138L34.3619 26.1451Z" fill="white"/>
<path d="M34.4463 26.461L34.3861 26.4588L33.6454 25.6331V26.2182C33.6471 26.3451 33.6664 26.3811 33.7764 26.3825H33.8076V26.439H33.8012C33.738 26.439 33.6751 26.4332 33.6129 26.4332C33.5475 26.4332 33.4805 26.439 33.4143 26.439H33.4079V26.3825H33.4348C33.5313 26.382 33.5588 26.3201 33.5599 26.2037V25.5889C33.5597 25.5111 33.496 25.464 33.4334 25.4638H33.4079V25.4075H33.4143C33.4701 25.4075 33.5272 25.413 33.582 25.413C33.6254 25.413 33.6677 25.4075 33.7169 25.4096L34.3585 26.1318V25.595C34.3577 25.4787 34.2802 25.4648 34.2377 25.4638H34.199V25.4075H34.2055C34.2745 25.4075 34.3417 25.413 34.4099 25.413C34.4693 25.413 34.5291 25.4075 34.5895 25.4075H34.5958V25.4637H34.5677C34.5075 25.4655 34.4456 25.4707 34.4439 25.6429V26.3072C34.4439 26.3582 34.4454 26.4093 34.4525 26.4535L34.4539 26.461L34.4463 26.461ZM34.3909 26.4481H34.4392C34.4326 26.4043 34.4315 26.3557 34.4315 26.3072V25.6429C34.4315 25.4677 34.5049 25.4511 34.5677 25.4511H34.5831V25.4201C34.5256 25.4205 34.4679 25.4258 34.4099 25.4258C34.3431 25.4258 34.2781 25.4205 34.212 25.4201L34.2119 25.4511H34.2378C34.2826 25.4511 34.3712 25.4711 34.3712 25.5949L34.3691 26.1466L34.3662 26.1496L34.3613 26.1542L33.7121 25.4201C33.6688 25.4201 33.6265 25.4258 33.582 25.4258C33.5285 25.4258 33.4737 25.4205 33.4208 25.4201L33.4205 25.4511H33.4335C33.502 25.4511 33.5723 25.5034 33.5723 25.5889V26.2037C33.5723 26.3204 33.5398 26.3951 33.4349 26.3955L33.4208 26.3951V26.4266C33.4841 26.4259 33.549 26.4207 33.6129 26.4207C33.6739 26.4207 33.7345 26.426 33.7948 26.4266V26.3955H33.7764C33.6615 26.3951 33.633 26.3451 33.6328 26.2181V25.6002L34.3909 26.4481ZM34.3585 26.1421V26.1416L34.3573 26.1406L34.3585 26.1421Z" fill="white"/>
<path d="M34.8081 25.4866C34.6985 25.4866 34.6944 25.513 34.6725 25.6194H34.6287C34.6344 25.5786 34.6417 25.5378 34.6462 25.4953C34.652 25.4544 34.6549 25.4137 34.6549 25.3714H34.69C34.7017 25.4153 34.7382 25.4137 34.7778 25.4137H35.5307C35.5702 25.4137 35.6067 25.4123 35.6097 25.3684L35.6445 25.3743C35.6388 25.4137 35.633 25.4531 35.6285 25.4926C35.6259 25.532 35.6259 25.5714 35.6259 25.6107L35.5819 25.627C35.5789 25.5731 35.5716 25.4866 35.4739 25.4866H35.2346V26.2634C35.2346 26.376 35.2857 26.3888 35.3555 26.3888H35.3834V26.4328C35.3265 26.4328 35.2241 26.4271 35.1455 26.4271C35.0579 26.4271 34.9556 26.4328 34.8986 26.4328V26.3888H34.9264C35.0069 26.3888 35.0476 26.3816 35.0476 26.2664V25.4866H34.8081Z" fill="white"/>
<path d="M35.3836 26.439C35.3261 26.439 35.2239 26.4332 35.1455 26.4332C35.058 26.4332 34.9559 26.439 34.8986 26.439H34.8926V26.3825H34.9265C35.0069 26.3806 35.0393 26.3796 35.0411 26.2664V25.493H34.8081V25.4801H35.0538V26.2664C35.0538 26.3835 35.0066 26.3954 34.9265 26.3955H34.905V26.4263C34.9626 26.426 35.0608 26.4207 35.1455 26.4207C35.2216 26.4207 35.3192 26.426 35.3769 26.4263V26.3955H35.3555C35.285 26.3954 35.2282 26.3781 35.2282 26.2634V25.4801H35.474C35.572 25.4806 35.5847 25.5639 35.5879 25.618L35.6194 25.6064C35.6194 25.5683 35.6196 25.5301 35.6223 25.4917C35.6265 25.4541 35.6319 25.4169 35.6373 25.3796L35.6151 25.3759C35.6083 25.4184 35.5673 25.4205 35.5305 25.4201H34.7702C34.7359 25.4201 34.6983 25.4185 34.6853 25.3777H34.6612C34.6609 25.4181 34.6581 25.4573 34.6525 25.4961C34.6483 25.5362 34.6416 25.5748 34.6361 25.6134H34.6674C34.6867 25.5116 34.6992 25.4786 34.8081 25.4801V25.493C34.7002 25.4949 34.7025 25.5132 34.6787 25.6211L34.6776 25.626H34.6214L34.6222 25.6184C34.6281 25.5775 34.6355 25.5368 34.6398 25.4943C34.6459 25.4538 34.6487 25.4133 34.6487 25.3714V25.3651H34.695L34.696 25.3696C34.706 25.4065 34.733 25.4067 34.7702 25.4073H35.5305C35.5712 25.4067 35.6008 25.4061 35.6033 25.3679L35.6039 25.361L35.6105 25.3624L35.6517 25.3689L35.6508 25.3753C35.6449 25.4144 35.6392 25.4538 35.6349 25.493C35.632 25.5319 35.632 25.5713 35.632 25.6107V25.6153L35.6279 25.6169L35.5762 25.6357L35.5758 25.6272C35.5719 25.5723 35.5662 25.493 35.474 25.493H35.241V26.2634C35.2423 26.3735 35.286 26.3811 35.3555 26.3825H35.3897V26.439L35.3836 26.439Z" fill="white"/>
<path d="M35.6912 26.3888H35.7117C35.7642 26.3888 35.8197 26.3817 35.8197 26.3057V25.5409C35.8197 25.4648 35.7642 25.4576 35.7117 25.4576H35.6912V25.4137C35.7801 25.4137 35.9321 25.4195 36.0545 25.4195C36.1774 25.4195 36.3289 25.4137 36.4281 25.4137C36.4257 25.4764 36.427 25.573 36.4313 25.637L36.3873 25.6488C36.3803 25.5539 36.3628 25.4781 36.2094 25.4781H36.0067V25.8604H36.1802C36.2677 25.8604 36.2869 25.8109 36.2955 25.7319H36.3392C36.3364 25.7891 36.3349 25.846 36.3349 25.9029C36.3349 25.9584 36.3364 26.0138 36.3392 26.0693L36.2955 26.078C36.2869 25.9904 36.2824 25.9335 36.1816 25.9335H36.0067V26.2735C36.0067 26.3686 36.091 26.3686 36.1846 26.3686C36.3598 26.3686 36.437 26.3567 36.4808 26.1905L36.5217 26.2005C36.5026 26.2781 36.4852 26.3553 36.4722 26.4328C36.3787 26.4328 36.2108 26.4271 36.0796 26.4271C35.948 26.4271 35.7744 26.4328 35.6912 26.4328V26.3888Z" fill="white"/>
<path d="M36.4721 26.439C36.3784 26.439 36.2105 26.433 36.0795 26.433C35.948 26.433 35.7745 26.439 35.6912 26.439H35.685V26.3825H35.7116C35.7646 26.3817 35.8125 26.3771 35.8132 26.3057V25.5409C35.8125 25.4696 35.7646 25.4649 35.7116 25.4637H35.685V25.4075H35.6912C35.7802 25.4075 35.9321 25.413 36.0544 25.413C36.1772 25.413 36.3287 25.4075 36.4281 25.4075H36.4346L36.4343 25.414C36.4333 25.4359 36.4329 25.4618 36.4329 25.4894C36.4329 25.5399 36.4343 25.595 36.4373 25.6366L36.4375 25.6419L36.4326 25.6433L36.3813 25.6567L36.381 25.6492C36.3724 25.5545 36.3597 25.4857 36.2094 25.4843H36.0128L36.0126 25.8539H36.1802C36.2642 25.8531 36.2793 25.81 36.2892 25.7314L36.2897 25.7256H36.3457L36.3456 25.7322C36.3428 25.7891 36.3409 25.846 36.3409 25.9029C36.3409 25.9581 36.3428 26.0135 36.3456 26.0691L36.3457 26.0742L36.3404 26.0754L36.2897 26.0856L36.2892 26.0787C36.2792 25.9896 36.2785 25.9408 36.1815 25.9397L36.0128 25.9396V26.2735C36.0129 26.3622 36.0894 26.3617 36.1845 26.3622C36.3602 26.3612 36.4307 26.3527 36.4747 26.1887L36.4762 26.1828L36.4823 26.1839L36.5291 26.196L36.5277 26.2021C36.5089 26.2794 36.4913 26.3565 36.4783 26.4339L36.4771 26.439H36.4721ZM36.4667 26.4263C36.4794 26.3527 36.4961 26.2788 36.514 26.2053L36.4852 26.198C36.4414 26.3614 36.3568 26.376 36.1845 26.3748C36.0926 26.3748 36.0005 26.3748 36.0001 26.2735V25.9271H36.1815C36.2834 25.926 36.2938 25.9876 36.301 26.0707L36.3326 26.0641C36.3298 26.0103 36.3285 25.9564 36.3285 25.9028C36.3285 25.8479 36.3298 25.7932 36.3326 25.7383H36.301C36.2929 25.8143 36.2691 25.8677 36.1802 25.8667H36.0001V25.4715H36.2094C36.3613 25.4705 36.3865 25.5489 36.3929 25.6407L36.4244 25.6322C36.4219 25.591 36.4202 25.5381 36.4202 25.4894C36.4202 25.4644 36.4208 25.4408 36.4216 25.4201C36.3224 25.4205 36.1746 25.4258 36.0545 25.4258C35.9345 25.4258 35.7868 25.4205 35.6975 25.4201V25.4511H35.7116C35.7636 25.4511 35.8258 25.4602 35.826 25.5409V26.3057C35.8258 26.3862 35.7636 26.3951 35.7116 26.3955H35.6975V26.4263C35.7826 26.4262 35.9512 26.4207 36.0794 26.4207C36.2082 26.4207 36.3726 26.4262 36.4667 26.4263Z" fill="white"/>
<path d="M36.7187 25.5684C36.7187 25.4619 36.6604 25.4576 36.6149 25.4576H36.5887V25.4136C36.6355 25.4136 36.7259 25.4195 36.815 25.4195C36.9025 25.4195 36.9727 25.4136 37.0499 25.4136C37.2337 25.4136 37.3974 25.4633 37.3974 25.6708C37.3974 25.8019 37.3098 25.8823 37.1945 25.9277L37.4441 26.3013C37.4849 26.363 37.514 26.3803 37.5857 26.3888V26.4328C37.5375 26.4328 37.4907 26.4271 37.4426 26.4271C37.3974 26.4271 37.3505 26.4328 37.3055 26.4328C37.1931 26.2854 37.0965 26.1277 37.0017 25.9596H36.9057V26.2722C36.9057 26.3848 36.958 26.3888 37.0251 26.3888H37.0514V26.4328C36.968 26.4328 36.8837 26.4271 36.8004 26.4271C36.7302 26.4271 36.6616 26.4328 36.5887 26.4328V26.3888H36.6149C36.6692 26.3888 36.7187 26.3643 36.7187 26.3102V25.5684ZM36.9769 25.9071C37.123 25.9071 37.2016 25.8516 37.2016 25.6793C37.2016 25.5496 37.1185 25.4663 36.9884 25.4663C36.9446 25.4663 36.926 25.4708 36.9056 25.4722V25.9071H36.9769Z" fill="white"/>
<path d="M37.5857 26.439C37.5368 26.439 37.4903 26.4332 37.4423 26.4332C37.3978 26.4332 37.3512 26.439 37.3003 26.4366C37.1884 26.2897 37.0924 26.1329 36.9981 25.9661H36.9118V26.272C36.9133 26.3818 36.9575 26.3809 37.025 26.3826H37.0577V26.439H37.0512C36.9678 26.439 36.8831 26.4332 36.8002 26.4332C36.7304 26.4332 36.662 26.439 36.5887 26.439H36.5823V26.3826H36.6149C36.6676 26.3822 36.7119 26.3594 36.7121 26.3102V25.5684C36.711 25.4648 36.6603 25.4654 36.6149 25.4639H36.5823V25.4073H36.5887C36.636 25.4073 36.7261 25.4131 36.815 25.4131C36.9021 25.4131 36.9723 25.4073 37.05 25.4073C37.2339 25.4077 37.4034 25.4585 37.4039 25.6705C37.4039 25.8024 37.3167 25.8846 37.204 25.9306L37.4493 26.2978C37.4901 26.3584 37.5155 26.3735 37.5866 26.3826L37.5919 26.3834V26.439L37.5857 26.439ZM37.0053 25.9534L37.007 25.9566C37.1021 26.1243 37.198 26.2818 37.3055 26.4266C37.35 26.4266 37.3969 26.4206 37.4423 26.4206C37.489 26.4206 37.5339 26.4257 37.5794 26.4264V26.3944C37.5108 26.3859 37.4788 26.3654 37.4389 26.3048L37.1849 25.9247L37.1921 25.9218C37.3063 25.8768 37.3908 25.7988 37.3909 25.6704C37.3908 25.4679 37.2335 25.4209 37.05 25.4201C36.973 25.4201 36.9029 25.4259 36.815 25.4259C36.7292 25.4259 36.6427 25.4205 36.5949 25.4201V25.4511H36.6149C36.6603 25.4512 36.7249 25.4587 36.7249 25.5684V26.3102C36.7249 26.3688 36.6699 26.3955 36.6149 26.3956H36.5949V26.4264C36.6652 26.4261 36.7316 26.4206 36.8002 26.4206C36.8818 26.4206 36.9642 26.4262 37.0449 26.4264V26.3956H37.025C36.9584 26.3955 36.8991 26.3872 36.8991 26.272V25.9534H37.0053ZM36.9055 25.9133H36.8991V25.4663L36.9046 25.4658C36.9246 25.4643 36.9443 25.4601 36.9885 25.4601C37.1215 25.4601 37.2079 25.5465 37.2081 25.6796C37.2077 25.8539 37.1241 25.9132 36.9769 25.9133L36.9055 25.9133ZM36.9769 25.9007C37.1214 25.8995 37.1941 25.8493 37.1957 25.6797C37.1948 25.5521 37.1156 25.473 36.9884 25.4725C36.949 25.4725 36.9304 25.4761 36.9118 25.4777V25.9007H36.9769Z" fill="white"/>
<path d="M38.5767 26.1451L38.5793 26.1422V25.5948C38.5793 25.475 38.4963 25.4576 38.4525 25.4576H38.4205V25.4137C38.4891 25.4137 38.5561 25.4195 38.6248 25.4195C38.6847 25.4195 38.7444 25.4137 38.8046 25.4137V25.4576H38.7826C38.7213 25.4576 38.6526 25.4692 38.6526 25.6429V26.3073C38.6526 26.3584 38.6541 26.4094 38.6612 26.4546H38.6059L37.8542 25.6166V26.2182C37.8542 26.3452 37.879 26.3888 37.9914 26.3888H38.0162V26.4328C37.9535 26.4328 37.8907 26.4271 37.828 26.4271C37.7621 26.4271 37.695 26.4328 37.6294 26.4328V26.3888H37.6496C37.7505 26.3888 37.7811 26.3204 37.7811 26.2037V25.5888C37.7811 25.5071 37.714 25.4576 37.6484 25.4576H37.6294V25.4138C37.6847 25.4138 37.7419 25.4195 37.7972 25.4195C37.8408 25.4195 37.8833 25.4138 37.9271 25.4138L38.5767 26.1451Z" fill="white"/>
<path d="M38.6613 26.4609L38.6012 26.4589L37.8604 25.6331V26.2181C37.8621 26.3451 37.8813 26.3811 37.9914 26.3825H38.0223V26.439H38.0159C37.9528 26.439 37.8902 26.433 37.8276 26.433C37.7625 26.433 37.695 26.439 37.6294 26.439H37.6228V26.3825H37.6496C37.746 26.3821 37.7736 26.3201 37.7745 26.2033V25.5888C37.7744 25.511 37.7107 25.4639 37.6484 25.4637H37.6228V25.4073H37.6294C37.685 25.4073 37.7421 25.413 37.7972 25.413C37.8401 25.413 37.8824 25.4073 37.9314 25.4093L38.573 26.1318V25.5947C38.5726 25.4787 38.4949 25.4644 38.4525 25.4638H38.4139V25.4073H38.4203C38.4893 25.4073 38.5565 25.413 38.6248 25.413C38.6843 25.413 38.7441 25.4073 38.8042 25.4073H38.8106V25.4638H38.7826C38.7223 25.4654 38.6603 25.4707 38.6588 25.6429V26.3072C38.6588 26.3582 38.6601 26.4088 38.6675 26.4538L38.6683 26.4609H38.6613ZM38.6058 26.4481H38.6538C38.6474 26.4043 38.646 26.3557 38.646 26.3072V25.6429C38.6461 25.4677 38.72 25.4515 38.7826 25.451H38.7978V25.4201C38.7405 25.4205 38.6828 25.4258 38.6248 25.4258C38.5578 25.4258 38.4926 25.4205 38.4266 25.4201V25.451H38.4525C38.4974 25.4515 38.5859 25.4711 38.5859 25.5947L38.5839 26.1466L38.581 26.1496L38.5766 26.1543L37.927 25.4201C37.8836 25.4201 37.8413 25.4258 37.7972 25.4258C37.7431 25.4258 37.6886 25.4205 37.6354 25.4201V25.451H37.6484C37.7169 25.4515 37.7873 25.5032 37.7873 25.5888V26.2033C37.7873 26.3205 37.7543 26.3951 37.6496 26.3955L37.6354 26.3954V26.4263C37.6985 26.426 37.7636 26.4207 37.8277 26.4207C37.8889 26.4207 37.9495 26.426 38.0099 26.4263V26.3955H37.9914C37.8765 26.3954 37.8477 26.3451 37.8475 26.218V25.6004L38.6058 26.4481ZM38.573 26.1422V26.1417L38.5719 26.1406L38.573 26.1422Z" fill="white"/>
<path d="M39.0393 26.224C39.0245 26.2735 39.0069 26.3118 39.0069 26.3378C39.0069 26.3817 39.0683 26.3888 39.1163 26.3888H39.1326V26.4328C39.0741 26.4297 39.0145 26.4271 38.9557 26.4271C38.9032 26.4271 38.8509 26.4297 38.7983 26.4328V26.3888H38.8071C38.864 26.3888 38.9123 26.3553 38.9338 26.2939L39.1676 25.624C39.1865 25.5699 39.213 25.4969 39.2218 25.4428C39.2683 25.4269 39.3268 25.3978 39.3544 25.3801C39.359 25.3786 39.3615 25.3771 39.3661 25.3771C39.3704 25.3771 39.3732 25.3771 39.3765 25.3817C39.3807 25.3932 39.385 25.4065 39.3896 25.4181L39.6582 26.1817C39.6757 26.2327 39.693 26.2867 39.7119 26.3306C39.7295 26.3715 39.7603 26.3888 39.8086 26.3888H39.8172V26.4328C39.7515 26.4297 39.6857 26.4271 39.6159 26.4271C39.5443 26.4271 39.4711 26.4297 39.3967 26.4328V26.3888H39.4129C39.4463 26.3888 39.5034 26.3831 39.5034 26.3466C39.5034 26.3277 39.4903 26.2883 39.474 26.2414L39.4172 26.0721H39.0859L39.0393 26.224ZM39.2523 25.5772H39.2493L39.1136 25.9904H39.3864L39.2523 25.5772Z" fill="white"/>
<path d="M39.8168 26.439C39.7511 26.4361 39.6854 26.433 39.6158 26.433C39.5443 26.433 39.4716 26.4361 39.3969 26.439L39.3903 26.4394V26.3823H39.4128C39.4466 26.3823 39.4968 26.3746 39.4968 26.3466C39.4972 26.33 39.484 26.2899 39.468 26.2435L39.4124 26.0784H39.0904L39.0451 26.2259C39.0303 26.2757 39.0128 26.3142 39.0129 26.338C39.0134 26.3736 39.0679 26.3823 39.1163 26.3823H39.1388V26.4394L39.1322 26.439C39.0738 26.4361 39.0142 26.433 38.956 26.433C38.9037 26.433 38.851 26.4361 38.7987 26.439L38.7919 26.4394V26.3823H38.807C38.8613 26.3821 38.9067 26.3513 38.9278 26.2919L39.1615 25.6219C39.1806 25.5677 39.2069 25.4949 39.2196 25.4367C39.2653 25.4213 39.3239 25.3919 39.3521 25.3741C39.3561 25.3728 39.3602 25.3707 39.3662 25.3707C39.3697 25.3706 39.3776 25.3716 39.3823 25.3793C39.3864 25.3913 39.3909 25.4043 39.3954 25.4161L39.6643 26.1796C39.6815 26.2308 39.6989 26.2848 39.7179 26.3279C39.7348 26.3669 39.7616 26.3822 39.8086 26.3824H39.8235V26.4394L39.8168 26.439ZM39.4031 26.426C39.4754 26.4234 39.5461 26.4206 39.6158 26.4206C39.6837 26.4206 39.7471 26.4234 39.8106 26.426V26.3955H39.8086C39.7586 26.3958 39.724 26.3762 39.7061 26.3331C39.6871 26.2888 39.6693 26.2347 39.6522 26.1835L39.3834 25.4201C39.379 25.4085 39.3747 25.3952 39.3709 25.3849C39.3697 25.3835 39.37 25.3835 39.3688 25.3835H39.3661C39.3631 25.3835 39.3614 25.3844 39.3576 25.3854C39.3295 25.4037 39.2709 25.4324 39.2276 25.4438C39.2186 25.4991 39.1924 25.572 39.1734 25.626L38.9398 26.2961C38.9175 26.3595 38.8664 26.3956 38.807 26.3955H38.8047V26.426C38.8547 26.4234 38.9053 26.4206 38.956 26.4206C39.0124 26.4206 39.0701 26.4234 39.1257 26.426V26.3955H39.1163C39.0689 26.3949 39.0024 26.3895 39.0006 26.338C39.0007 26.3088 39.0186 26.2715 39.0329 26.2222L39.081 26.0659H39.4213L39.4799 26.2394C39.4963 26.2863 39.5095 26.3251 39.5095 26.3466C39.5075 26.3914 39.4459 26.3946 39.4128 26.3955H39.4031L39.4031 26.426ZM39.1047 25.9967L39.2445 25.5708H39.2524H39.2567L39.3953 25.9967H39.1047ZM39.1222 25.984H39.3777L39.2506 25.5928L39.1222 25.984Z" fill="white"/>
<path d="M39.8814 25.4866C39.7718 25.4866 39.7675 25.513 39.7455 25.6194H39.7017C39.7074 25.5786 39.7148 25.5378 39.7194 25.4953C39.7253 25.4544 39.7279 25.4137 39.7279 25.3714H39.7631C39.7748 25.4153 39.8114 25.4137 39.8506 25.4137H40.604C40.6432 25.4137 40.6796 25.4123 40.6826 25.3684L40.7175 25.3743C40.712 25.4137 40.7062 25.4531 40.7017 25.4926C40.6986 25.532 40.6986 25.5714 40.6986 25.6107L40.6549 25.627C40.6521 25.5731 40.6449 25.4866 40.547 25.4866H40.3076V26.2634C40.3076 26.376 40.3588 26.3888 40.4287 26.3888H40.4564V26.4328C40.3995 26.4328 40.2975 26.4271 40.2185 26.4271C40.1311 26.4271 40.0287 26.4328 39.9719 26.4328V26.3888H39.9995C40.0799 26.3888 40.1208 26.3816 40.1208 26.2664V25.4866H39.8814Z" fill="white"/>
<path d="M40.4564 26.439C40.3991 26.439 40.2969 26.4332 40.2185 26.4332C40.1313 26.4332 40.029 26.439 39.9718 26.439H39.9654V26.3825H39.9995C40.0799 26.3806 40.1122 26.3796 40.1143 26.2664L40.1141 25.493H39.8814L39.8814 25.4866L39.8814 25.4801H40.1269V26.2664C40.1269 26.3835 40.0796 26.3951 39.9995 26.3954H39.978V26.4266C40.0358 26.4259 40.1338 26.4207 40.2185 26.4207C40.2947 26.4207 40.3923 26.426 40.45 26.4266V26.3954H40.4285C40.3583 26.3951 40.3014 26.3782 40.3012 26.2634V25.4801H40.547C40.645 25.4806 40.6578 25.5639 40.6606 25.618L40.6924 25.6064C40.6924 25.5683 40.6925 25.5301 40.6954 25.4919C40.6994 25.4543 40.7049 25.4169 40.7103 25.3796L40.6882 25.3759C40.6815 25.4184 40.6403 25.4207 40.604 25.4201H39.8432C39.8088 25.4205 39.7715 25.4185 39.7583 25.3775H39.7344C39.734 25.418 39.7312 25.4573 39.7255 25.4961C39.7216 25.5363 39.7144 25.575 39.709 25.6134H39.7402C39.7596 25.5116 39.7722 25.4786 39.8814 25.4801L39.8814 25.4866L39.8814 25.493C39.7732 25.4948 39.7756 25.5131 39.7517 25.621L39.7506 25.626H39.6943L39.6952 25.6187C39.7013 25.5775 39.7085 25.5368 39.7128 25.4946C39.7188 25.4538 39.7216 25.4133 39.7216 25.3714V25.365H39.7677L39.769 25.3696C39.7792 25.4064 39.8058 25.4066 39.8432 25.4073L39.8505 25.4075H40.604C40.6442 25.4067 40.6737 25.406 40.6762 25.368L40.6766 25.361L40.6835 25.3624L40.7249 25.3689L40.7238 25.3753C40.7178 25.4144 40.7123 25.4538 40.7078 25.493C40.7049 25.5319 40.7049 25.5715 40.7049 25.6107V25.6153L40.7007 25.6169L40.649 25.6357L40.6487 25.6272C40.645 25.5724 40.6392 25.493 40.547 25.493H40.3139V26.2634C40.3154 26.3735 40.359 26.3811 40.4285 26.3825H40.4627V26.439L40.4564 26.439Z" fill="white"/>
<path d="M40.7714 26.3888H40.7919C40.8446 26.3888 40.8998 26.3817 40.8998 26.3057V25.5409C40.8998 25.4648 40.8446 25.4576 40.7919 25.4576H40.7714V25.4137C40.8284 25.4137 40.9159 25.4195 40.9873 25.4195C41.0605 25.4195 41.1481 25.4137 41.2167 25.4137V25.4576H41.1963C41.1437 25.4576 41.0881 25.4648 41.0881 25.5409V26.3057C41.0881 26.3817 41.1437 26.3888 41.1963 26.3888H41.2167V26.4328C41.1466 26.4328 41.0589 26.4271 40.9861 26.4271C40.9145 26.4271 40.8284 26.4328 40.7714 26.4328V26.3888Z" fill="white"/>
<path d="M41.2168 26.439C41.1462 26.439 41.0589 26.433 40.9861 26.433C40.9147 26.433 40.8285 26.439 40.7715 26.439H40.7651V26.3825H40.792C40.8447 26.3817 40.8931 26.3772 40.8933 26.3057V25.5409C40.8931 25.4696 40.8447 25.4648 40.792 25.4637H40.7651V25.4075H40.7715C40.8285 25.4075 40.9162 25.413 40.9873 25.413C41.0601 25.413 41.1476 25.4075 41.2168 25.4075H41.223V25.4637H41.1963C41.143 25.4648 41.0951 25.4696 41.0944 25.5409V26.3057C41.0951 26.3772 41.143 26.3817 41.1963 26.3825H41.223V26.439H41.2168ZM41.2102 26.4263V26.3954H41.1963C41.144 26.3954 41.0821 26.3862 41.0821 26.3057V25.5409C41.0821 25.4602 41.144 25.4511 41.1963 25.4511H41.2102V25.4201C41.1428 25.4205 41.0585 25.4258 40.9873 25.4258C40.9182 25.4258 40.8345 25.4205 40.7779 25.4201V25.4511H40.792C40.8439 25.4511 40.906 25.4602 40.9062 25.5409V26.3057C40.906 26.3862 40.8439 26.3954 40.792 26.3954H40.7779V26.4263C40.8342 26.4257 40.9168 26.4207 40.9861 26.4207C41.0568 26.4207 41.1414 26.426 41.2102 26.4263Z" fill="white"/>
<path d="M41.7988 25.3919C42.11 25.3919 42.358 25.5848 42.358 25.8957C42.358 26.2315 42.1172 26.4547 41.8064 26.4547C41.4967 26.4547 41.2605 26.2445 41.2605 25.9306C41.2605 25.627 41.4953 25.3919 41.7988 25.3919ZM41.8209 26.3904C42.1041 26.3904 42.1534 26.1406 42.1534 25.9277C42.1534 25.7144 42.0384 25.4561 41.796 25.4561C41.5405 25.4561 41.4647 25.6838 41.4647 25.8793C41.4647 26.1406 41.5844 26.3904 41.8209 26.3904Z" fill="white"/>
<path d="M41.2539 25.9306C41.2545 25.6235 41.4922 25.3859 41.7988 25.3855V25.398C41.4988 25.398 41.2666 25.6302 41.2663 25.9306C41.267 26.2409 41.4999 26.448 41.8064 26.4481C42.1141 26.448 42.3515 26.228 42.352 25.8954C42.3517 25.5885 42.1074 25.3985 41.7988 25.398V25.3855C42.1124 25.3857 42.3637 25.5806 42.3643 25.8954C42.364 26.2347 42.1201 26.4603 41.8064 26.4609C41.4942 26.4603 41.2545 26.2479 41.2539 25.9306ZM41.4584 25.8793C41.4588 25.6829 41.5355 25.4495 41.7961 25.4495C42.0438 25.4501 42.1595 25.7133 42.1599 25.9277C42.1595 26.1406 42.1094 26.3965 41.821 26.3965V26.3842C42.0985 26.3838 42.1466 26.1406 42.1473 25.9277C42.1473 25.7161 42.0333 25.4627 41.7961 25.4624C41.5456 25.4627 41.4715 25.6848 41.471 25.8793C41.4712 26.1393 41.5898 26.3835 41.821 26.3842V26.3965C41.5786 26.3962 41.4588 26.1421 41.4584 25.8793Z" fill="white"/>
<path d="M43.3417 26.1451L43.3446 26.1422V25.5948C43.3446 25.475 43.2612 25.4576 43.2174 25.4576H43.1858V25.4137C43.2542 25.4137 43.3213 25.4195 43.3897 25.4195C43.4498 25.4195 43.5096 25.4137 43.5695 25.4137V25.4576H43.5474C43.4863 25.4576 43.4176 25.4692 43.4176 25.6429V26.3073C43.4176 26.3584 43.419 26.4094 43.4264 26.4546H43.371L42.6191 25.6166V26.2182C42.6191 26.3452 42.6438 26.3888 42.7562 26.3888H42.7812V26.4328C42.7183 26.4328 42.6557 26.4271 42.5929 26.4271C42.5272 26.4271 42.4599 26.4328 42.3942 26.4328V26.3888H42.4148C42.5157 26.3888 42.546 26.3204 42.546 26.2037V25.5888C42.546 25.5071 42.4791 25.4576 42.4132 25.4576H42.3942V25.4138C42.4497 25.4138 42.5067 25.4195 42.562 25.4195C42.6059 25.4195 42.6481 25.4138 42.692 25.4138L43.3417 26.1451Z" fill="white"/>
<path d="M43.4265 26.4609L43.3661 26.4588L42.6254 25.6331V26.2182C42.627 26.3451 42.6464 26.381 42.756 26.3823H42.7876V26.439H42.7812C42.7179 26.439 42.6553 26.4332 42.5929 26.4332C42.5274 26.4332 42.4604 26.439 42.3941 26.439H42.388V26.3823H42.4148C42.511 26.382 42.5387 26.3201 42.5399 26.2037V25.5888C42.5397 25.511 42.476 25.4639 42.4132 25.4638H42.388V25.4075H42.3941C42.4501 25.4075 42.507 25.4131 42.562 25.4131C42.6054 25.4131 42.6475 25.4075 42.6969 25.4096L43.3382 26.1318V25.595C43.3378 25.4788 43.2601 25.4648 43.2173 25.4638H43.179V25.4075H43.1856C43.2543 25.4075 43.3216 25.4131 43.3895 25.4131C43.4494 25.4131 43.509 25.4075 43.5695 25.4075H43.5758V25.4638H43.5474C43.4874 25.4655 43.4253 25.471 43.424 25.6429V26.3072C43.424 26.3583 43.4251 26.4092 43.4322 26.4538L43.4334 26.4609L43.4265 26.4609ZM43.371 26.4481H43.4188C43.4124 26.4043 43.4113 26.3557 43.4113 26.3072V25.6429C43.4113 25.4674 43.4849 25.4515 43.5475 25.451H43.5632V25.4201C43.5057 25.4205 43.448 25.4258 43.3896 25.4258C43.3232 25.4258 43.2579 25.4205 43.1918 25.4201V25.451H43.2174C43.2626 25.4515 43.3507 25.4715 43.3507 25.5949L43.3491 26.1466L43.3463 26.1496L43.3417 26.1543L42.6921 25.4201C42.649 25.4201 42.6064 25.4258 42.5621 25.4258C42.5083 25.4258 42.4536 25.4205 42.4004 25.4201V25.451H42.4133C42.4818 25.4515 42.5524 25.5032 42.5524 25.5888V26.2037C42.5524 26.3204 42.5198 26.3951 42.4148 26.3955L42.4004 26.3954V26.4263C42.4638 26.426 42.5288 26.4207 42.593 26.4207C42.6538 26.4207 42.7142 26.426 42.7749 26.4263V26.3955H42.756C42.6415 26.3954 42.6128 26.3451 42.6128 26.2181V25.6002L43.371 26.4481ZM43.3382 26.1422V26.1417L43.337 26.1406L43.3382 26.1422Z" fill="white"/>
<path d="M43.8041 26.224C43.7898 26.2735 43.7721 26.3118 43.7721 26.3378C43.7721 26.3817 43.8335 26.3888 43.8814 26.3888H43.8977V26.4328C43.8393 26.4297 43.7794 26.4271 43.721 26.4271C43.6682 26.4271 43.6159 26.4297 43.5636 26.4328V26.3888H43.5719C43.6291 26.3888 43.6774 26.3553 43.699 26.2939L43.9328 25.624C43.9517 25.5699 43.9781 25.4969 43.9866 25.4428C44.0333 25.4269 44.0916 25.3978 44.1197 25.3801C44.1238 25.3786 44.1268 25.3771 44.1312 25.3771C44.1356 25.3771 44.1383 25.3771 44.1412 25.3817C44.1457 25.3932 44.1503 25.4065 44.1546 25.4181L44.423 26.1817C44.4406 26.2327 44.458 26.2867 44.4772 26.3306C44.4947 26.3715 44.5255 26.3888 44.5735 26.3888H44.5824V26.4328C44.5166 26.4297 44.4509 26.4271 44.3807 26.4271C44.3094 26.4271 44.2363 26.4297 44.1618 26.4328V26.3888H44.178C44.2113 26.3888 44.2686 26.3831 44.2686 26.3466C44.2686 26.3277 44.2553 26.2883 44.239 26.2414L44.1824 26.0721H43.851L43.8041 26.224ZM44.0174 25.5772H44.0145L43.8786 25.9904H44.1518L44.0174 25.5772Z" fill="white"/>
<path d="M44.5818 26.439C44.5161 26.4364 44.4505 26.4332 44.3807 26.4332C44.3096 26.4332 44.2365 26.4364 44.162 26.439L44.1555 26.4394V26.3825H44.1777C44.2117 26.3825 44.262 26.3746 44.2621 26.3466C44.2624 26.33 44.2492 26.2902 44.233 26.2435L44.1775 26.0784H43.8553L43.8101 26.2258C43.7956 26.2758 43.7782 26.3142 43.7785 26.3378C43.7785 26.3736 43.8331 26.3825 43.8814 26.3825H43.9037V26.4394L43.8972 26.439C43.8388 26.4364 43.7791 26.4332 43.721 26.4332C43.6686 26.4332 43.6162 26.4364 43.5636 26.439L43.5572 26.4394V26.3825H43.5719C43.6263 26.3823 43.6719 26.3511 43.6931 26.2918L43.9268 25.6219C43.9454 25.5677 43.9717 25.4949 43.9846 25.4369C44.0305 25.421 44.0891 25.3919 44.1175 25.3741C44.1213 25.3728 44.1252 25.371 44.1312 25.371C44.1351 25.3706 44.1425 25.3715 44.1472 25.3795C44.1516 25.391 44.1558 25.4042 44.1607 25.4161L44.4291 26.1796C44.4465 26.2308 44.464 26.2848 44.483 26.3282C44.5 26.3669 44.5267 26.3821 44.5732 26.3825H44.5884V26.4394L44.5818 26.439ZM44.1681 26.4262C44.2402 26.4234 44.3113 26.4206 44.3807 26.4206C44.4486 26.4206 44.5123 26.4234 44.5759 26.426L44.5757 26.3955H44.5732C44.5238 26.3956 44.4893 26.3762 44.4712 26.3331C44.452 26.2888 44.4346 26.2346 44.4172 26.1837L44.1485 25.4201C44.1442 25.4085 44.1397 25.3952 44.1362 25.3853C44.135 25.3835 44.1351 25.3835 44.1339 25.3835H44.1312C44.1282 25.3835 44.1265 25.3845 44.123 25.3855C44.0946 25.4034 44.036 25.4326 43.9928 25.4438C43.9838 25.4991 43.9573 25.5719 43.9385 25.626L43.7048 26.2961C43.6826 26.3595 43.6316 26.3956 43.5719 26.3955H43.5697V26.426C43.6199 26.4234 43.6701 26.4206 43.721 26.4206C43.7775 26.4206 43.8351 26.4234 43.8913 26.426V26.3955H43.8814C43.8339 26.3949 43.7673 26.3897 43.7656 26.3378C43.7659 26.3088 43.784 26.2717 43.7981 26.2222L43.8462 26.0659H44.1866L44.2451 26.2394C44.2612 26.2864 44.2744 26.3251 44.2744 26.3466C44.2723 26.3914 44.2111 26.3946 44.1777 26.3955H44.1681L44.1681 26.4262ZM43.8699 25.9966L44.0099 25.5708H44.0174H44.022L44.16 25.9966H43.8699ZM43.8874 25.984H44.1427L44.0157 25.593L43.8874 25.984Z" fill="white"/>
<path d="M44.9502 26.2897C44.9502 26.3481 44.9907 26.3655 45.0374 26.3715C45.0973 26.376 45.163 26.376 45.2304 26.3686C45.2915 26.3612 45.3441 26.3262 45.3702 26.2897C45.3935 26.2575 45.4067 26.2166 45.4155 26.1845H45.4578C45.4418 26.2677 45.4214 26.3497 45.4038 26.4328C45.2756 26.4328 45.1469 26.4271 45.0186 26.4271C44.89 26.4271 44.7617 26.4328 44.6333 26.4328V26.3888H44.6533C44.7062 26.3888 44.7632 26.3817 44.7632 26.2911V25.5409C44.7632 25.4648 44.7061 25.4576 44.6533 25.4576H44.6333V25.4137C44.7104 25.4137 44.7864 25.4195 44.8637 25.4195C44.9383 25.4195 45.0112 25.4137 45.0857 25.4137V25.4576H45.049C44.9937 25.4576 44.9502 25.4592 44.9502 25.5363V26.2897Z" fill="white"/>
<path d="M45.4038 26.439C45.2751 26.439 45.1467 26.4332 45.0186 26.4332C44.8901 26.4332 44.7616 26.439 44.633 26.439H44.6268V26.3825H44.6533C44.7063 26.3813 44.7563 26.3777 44.7569 26.2911V25.5406C44.7562 25.4696 44.7065 25.4648 44.6533 25.4638H44.6268V25.4075H44.633C44.7106 25.4075 44.7866 25.4131 44.8637 25.4131C44.9378 25.4131 45.0107 25.4075 45.0857 25.4075H45.0917V25.4638H45.0491C44.9925 25.4654 44.9573 25.4627 44.9562 25.5363V26.2897C44.9566 26.3441 44.9922 26.3588 45.0378 26.3651C45.0636 26.367 45.0906 26.3681 45.1187 26.3681C45.1545 26.3681 45.1916 26.3664 45.2293 26.3623C45.2888 26.3553 45.34 26.321 45.3651 26.2862C45.3876 26.255 45.4005 26.2149 45.4092 26.183L45.4106 26.1782H45.4655L45.4642 26.1859C45.4477 26.2694 45.4277 26.351 45.41 26.4341L45.4087 26.439L45.4038 26.439ZM45.3985 26.4263C45.4154 26.3471 45.4345 26.2697 45.4502 26.1907H45.4203C45.4111 26.2225 45.3982 26.2617 45.3752 26.2936C45.348 26.3314 45.2939 26.367 45.2307 26.3748C45.1924 26.3788 45.1546 26.3808 45.1187 26.3808C45.0905 26.3808 45.0631 26.3795 45.0366 26.3777C44.9892 26.3724 44.9431 26.3522 44.9433 26.2897V25.5363C44.9433 25.4552 44.9946 25.4511 45.0491 25.4511H45.0792V25.4201C45.0073 25.4205 44.9364 25.4259 44.8637 25.4259C44.7881 25.4259 44.7142 25.4205 44.6393 25.4201V25.4511H44.6533C44.7054 25.4511 44.7692 25.4602 44.7692 25.5406V26.2911C44.7692 26.3856 44.7057 26.3954 44.6533 26.3954H44.6393V26.4263C44.7656 26.4262 44.8918 26.4207 45.0186 26.4207C45.1454 26.4207 45.2722 26.4262 45.3985 26.4263Z" fill="white"/>
<path d="M45.4401 25.3722C45.528 25.3722 45.5938 25.4399 45.5938 25.5265C45.5938 25.6127 45.5281 25.6798 45.4401 25.6798C45.3521 25.6798 45.2863 25.6127 45.2863 25.5265C45.2863 25.4399 45.3521 25.3722 45.4401 25.3722ZM45.4401 25.6511C45.5088 25.6511 45.5617 25.5924 45.5617 25.5265C45.5617 25.4602 45.5096 25.401 45.4401 25.401C45.371 25.401 45.3181 25.4602 45.3181 25.5265C45.3181 25.5924 45.371 25.6511 45.4401 25.6511ZM45.3636 25.6075V25.5999C45.3825 25.5973 45.3859 25.5979 45.3859 25.5861V25.4724C45.3859 25.4564 45.3842 25.4509 45.3643 25.4517V25.4439H45.4429C45.47 25.4439 45.4948 25.4568 45.4948 25.4847C45.4948 25.5076 45.4797 25.5245 45.4585 25.5311L45.4837 25.5663C45.4955 25.5823 45.5088 25.5973 45.5176 25.6025V25.6075H45.4877C45.4733 25.6075 45.4607 25.5772 45.4324 25.5366H45.4154V25.5877C45.4154 25.5979 45.4189 25.5972 45.4379 25.5999V25.6075L45.3636 25.6075ZM45.4154 25.5265H45.4335C45.4533 25.5265 45.4626 25.5114 45.4626 25.4872C45.4626 25.4627 45.4483 25.4541 45.4325 25.4541H45.4154V25.5265Z" fill="white"/>
<path d="M29.6787 27.2578C31.073 27.2645 32.3456 26.1207 32.3456 24.7292C32.3456 23.2075 31.073 22.1557 29.6787 22.1563H28.4787C27.0677 22.1557 25.9062 23.2078 25.9062 24.7292C25.9062 26.121 27.0677 27.2645 28.4787 27.2578H29.6787Z" fill="white"/>
<path d="M28.4844 22.3671C27.195 22.3675 26.1502 23.4126 26.1499 24.7025C26.1502 25.9921 27.195 27.0371 28.4844 27.0375C29.774 27.0371 30.819 25.9921 30.8192 24.7025C30.819 23.4126 29.774 22.3675 28.4844 22.3671ZM27.0046 24.7025C27.0058 24.0722 27.3995 23.5347 27.9546 23.3211V26.0835C27.3995 25.8701 27.0058 25.3329 27.0046 24.7025ZM29.0139 26.0841V23.321C29.5692 23.5341 29.9635 24.0719 29.9645 24.7025C29.9635 25.3333 29.5692 25.8707 29.0139 26.0841Z" fill="#0079BE"/>
<path d="M33.1633 23.2538C33.1633 23.0125 33.0375 23.0284 32.9168 23.0257V22.956C33.0214 22.9612 33.1286 22.9612 33.2334 22.9612C33.346 22.9612 33.499 22.956 33.6976 22.956C34.3921 22.956 34.7704 23.42 34.7704 23.8951C34.7704 24.1608 34.6149 24.8288 33.6653 24.8288C33.5285 24.8288 33.4023 24.8235 33.2763 24.8235C33.1556 24.8235 33.0375 24.8262 32.9168 24.8288V24.7591C33.0777 24.7429 33.1556 24.7376 33.1633 24.5551L33.1633 23.2538ZM33.4263 24.5123C33.4263 24.7189 33.574 24.743 33.7054 24.743C34.285 24.743 34.4752 24.3056 34.4752 23.9058C34.4752 23.4042 34.1533 23.042 33.6356 23.042C33.5255 23.042 33.4749 23.0499 33.4263 23.0528L33.4263 24.5123Z" fill="white"/>
<path d="M34.8645 24.7592H34.9153C34.9904 24.7592 35.0441 24.7592 35.0441 24.6704V23.9434C35.0441 23.8255 35.0039 23.8091 34.9046 23.7558V23.7127C35.0306 23.6749 35.1811 23.6243 35.1916 23.6162C35.2105 23.6054 35.2265 23.6026 35.24 23.6026C35.2532 23.6026 35.2588 23.6188 35.2588 23.6404V24.6704C35.2588 24.7592 35.3178 24.7592 35.3929 24.7592H35.4385V24.8289C35.3472 24.8289 35.2532 24.8235 35.1569 24.8235C35.0603 24.8235 34.9636 24.8262 34.8645 24.8289L34.8645 24.7592ZM35.1515 23.1895C35.0817 23.1895 35.0201 23.1251 35.0201 23.0554C35.0201 22.9882 35.0845 22.9263 35.1515 22.9263C35.221 22.9263 35.283 22.9829 35.283 23.0554C35.283 23.1279 35.2238 23.1895 35.1515 23.1895Z" fill="white"/>
<path d="M35.6933 23.9594C35.6933 23.8602 35.6637 23.8335 35.5378 23.7825V23.7316C35.6531 23.694 35.763 23.6591 35.8918 23.6026C35.8998 23.6026 35.9077 23.6081 35.9077 23.6294V23.8039C36.0609 23.694 36.1923 23.6026 36.3723 23.6026C36.6 23.6026 36.6805 23.769 36.6805 23.9782V24.6704C36.6805 24.7592 36.7395 24.7592 36.8147 24.7592H36.863V24.8289C36.7689 24.8289 36.6751 24.8235 36.5787 24.8235C36.482 24.8235 36.3853 24.8262 36.2889 24.8289V24.7592H36.3371C36.4124 24.7592 36.4657 24.7592 36.4657 24.6704V23.9757C36.4657 23.8226 36.3723 23.7475 36.2191 23.7475C36.1334 23.7475 35.9966 23.8173 35.9077 23.8764V24.6704C35.9077 24.7591 35.967 24.7591 36.0422 24.7591H36.0904V24.8289C35.9966 24.8289 35.9025 24.8235 35.806 24.8235C35.7095 24.8235 35.6127 24.8262 35.5163 24.8289V24.7591H35.5646C35.6398 24.7591 35.6933 24.7591 35.6933 24.6704L35.6933 23.9594Z" fill="white"/>
<path d="M37.067 24.0884C37.0614 24.1126 37.0614 24.1527 37.067 24.244C37.0828 24.4988 37.2469 24.708 37.4611 24.708C37.6088 24.708 37.7244 24.6276 37.8235 24.5284L37.8609 24.566C37.7375 24.7296 37.5846 24.8691 37.3648 24.8691C36.9381 24.8691 36.8523 24.4558 36.8523 24.2842C36.8523 23.7583 37.2063 23.6026 37.394 23.6026C37.6114 23.6026 37.845 23.7394 37.8475 24.0238C37.8475 24.0401 37.8475 24.056 37.845 24.0723L37.8207 24.0884H37.067ZM37.5419 24.0024C37.6088 24.0024 37.6167 23.9675 37.6167 23.9354C37.6167 23.7986 37.5336 23.6885 37.3833 23.6885C37.2198 23.6885 37.1072 23.8091 37.075 24.0024H37.5419Z" fill="white"/>
<path d="M37.9093 24.7592H37.9817C38.0566 24.7592 38.1103 24.7592 38.1103 24.6704V23.9166C38.1103 23.8335 38.0112 23.8173 37.9708 23.7958V23.7557C38.1667 23.6724 38.274 23.6026 38.2984 23.6026C38.3143 23.6026 38.3222 23.6107 38.3222 23.6376V23.879H38.3279C38.3948 23.7745 38.5077 23.6026 38.6711 23.6026C38.7382 23.6026 38.824 23.6481 38.824 23.7448C38.824 23.8173 38.7732 23.8819 38.6981 23.8819C38.6146 23.8819 38.6146 23.8173 38.5208 23.8173C38.4752 23.8173 38.3251 23.879 38.3251 24.0401V24.6704C38.3251 24.7591 38.3786 24.7591 38.4538 24.7591H38.6039V24.8289C38.4564 24.8262 38.3441 24.8235 38.2285 24.8235C38.1186 24.8235 38.0058 24.8262 37.9093 24.8289L37.9093 24.7592Z" fill="white"/>
<path d="M38.9421 24.4558C38.977 24.6329 39.0842 24.7832 39.2802 24.7832C39.4381 24.7832 39.4972 24.6867 39.4972 24.5928C39.4972 24.2761 38.9125 24.3781 38.9125 23.9462C38.9125 23.7958 39.0334 23.6026 39.3284 23.6026C39.4141 23.6026 39.5294 23.6269 39.6339 23.6806L39.653 23.9541H39.5911C39.5644 23.7852 39.4706 23.6886 39.2987 23.6886C39.1914 23.6886 39.0896 23.7503 39.0896 23.8656C39.0896 24.1798 39.7119 24.0829 39.7119 24.5041C39.7119 24.6811 39.5697 24.8691 39.2504 24.8691C39.1431 24.8691 39.0171 24.8315 38.9233 24.778L38.8937 24.4694L38.9421 24.4558Z" fill="white"/>
<path d="M42.1342 23.4417H42.0673C42.0163 23.1279 41.7936 23.0016 41.4933 23.0016C41.1846 23.0016 40.7366 23.2081 40.7366 23.852C40.7366 24.3943 41.1231 24.7832 41.5361 24.7832C41.8016 24.7832 42.0217 24.6008 42.0754 24.319L42.1369 24.335L42.0754 24.7267C41.9627 24.7967 41.6596 24.8691 41.4823 24.8691C40.8548 24.8691 40.4579 24.4639 40.4579 23.8602C40.4579 23.3102 40.9487 22.9156 41.4744 22.9156C41.6917 22.9156 41.9009 22.9857 42.1075 23.0581L42.1342 23.4417Z" fill="white"/>
<path d="M42.2818 24.7592C42.357 24.7592 42.4109 24.7592 42.4109 24.6704V23.1762C42.4109 23.0017 42.3706 22.9963 42.2685 22.9668V22.9239C42.3758 22.8891 42.4885 22.8407 42.5449 22.8084C42.5741 22.7924 42.5958 22.7789 42.6037 22.7789C42.6201 22.7789 42.6254 22.7951 42.6254 22.8166V24.6704C42.6254 24.7592 42.6844 24.7592 42.7596 24.7592H42.8048V24.8289C42.714 24.8289 42.6201 24.8235 42.5234 24.8235C42.427 24.8235 42.3304 24.8262 42.231 24.8289V24.7592H42.2818Z" fill="white"/>
<path d="M43.9534 24.6811C43.9534 24.7296 43.9828 24.7322 44.0283 24.7322C44.0606 24.7322 44.1007 24.7296 44.1357 24.7296V24.7861C44.0202 24.7967 43.8003 24.8531 43.7493 24.8691L43.7358 24.861V24.6439C43.5751 24.7752 43.4515 24.8691 43.2609 24.8691C43.116 24.8691 42.9658 24.7752 42.9658 24.55V23.8629C42.9658 23.7932 42.9552 23.7261 42.8052 23.7127V23.6617C42.9019 23.6591 43.116 23.643 43.1511 23.643C43.1808 23.643 43.1808 23.6617 43.1808 23.7207V24.4128C43.1808 24.4934 43.1808 24.7241 43.414 24.7241C43.5052 24.7241 43.6259 24.6544 43.7384 24.5607V23.8386C43.7384 23.7852 43.6098 23.7557 43.5134 23.7288V23.6805C43.7545 23.6643 43.905 23.643 43.9317 23.643C43.9534 23.643 43.9534 23.6617 43.9534 23.6913L43.9534 24.6811Z" fill="white"/>
<path d="M44.4872 23.7958C44.5944 23.7046 44.7392 23.6026 44.8869 23.6026C45.1982 23.6026 45.3857 23.8739 45.3857 24.1661C45.3857 24.5175 45.1283 24.8691 44.7445 24.8691C44.5461 24.8691 44.4415 24.8046 44.3717 24.7752L44.2913 24.8368L44.2352 24.8074C44.2589 24.6491 44.2726 24.4934 44.2726 24.3299V23.1762C44.2726 23.0017 44.2321 22.9963 44.1303 22.9668V22.9239C44.2379 22.8891 44.3502 22.8407 44.4066 22.8084C44.4362 22.7924 44.4575 22.7789 44.4658 22.7789C44.4818 22.7789 44.4872 22.7951 44.4872 22.8166L44.4872 23.7958ZM44.4872 24.5255C44.4872 24.6276 44.5837 24.7994 44.7634 24.7994C45.0505 24.7994 45.1711 24.5175 45.1711 24.2787C45.1711 23.989 44.9514 23.7476 44.7421 23.7476C44.6426 23.7476 44.5596 23.812 44.4872 23.8739L44.4872 24.5255Z" fill="white"/>
<path d="M32.9138 26.3888H32.9343C32.9868 26.3888 33.0422 26.3817 33.0422 26.3057V25.5409C33.0422 25.4648 32.9868 25.4576 32.9343 25.4576H32.9138V25.4137C32.9708 25.4137 33.0583 25.4195 33.1301 25.4195C33.203 25.4195 33.2904 25.4137 33.359 25.4137V25.4576H33.3385C33.2862 25.4576 33.2306 25.4648 33.2306 25.5409V26.3057C33.2306 26.3817 33.2862 26.3888 33.3385 26.3888H33.359V26.4328C33.289 26.4328 33.2012 26.4271 33.1285 26.4271C33.0569 26.4271 32.9708 26.4328 32.9138 26.4328V26.3888Z" fill="white"/>
<path d="M33.3591 26.439C33.2885 26.439 33.2011 26.4332 33.1284 26.4332C33.057 26.4332 32.9712 26.439 32.9138 26.439H32.9075V26.3825H32.9343C32.9872 26.3813 33.0354 26.3771 33.0359 26.3057V25.5409C33.0354 25.4695 32.9872 25.4648 32.9343 25.4637H32.9075V25.4073H32.9138C32.9712 25.4073 33.0587 25.413 33.13 25.413C33.2027 25.413 33.2901 25.4073 33.3591 25.4073H33.3656V25.4637H33.3386C33.2857 25.4648 33.2372 25.4695 33.2369 25.5409V26.3057C33.2372 26.3771 33.2857 26.3813 33.3386 26.3825H33.3656V26.439H33.3591ZM33.3528 26.4266V26.3954H33.3386C33.2865 26.3954 33.2245 26.3864 33.2242 26.3057V25.5409C33.2245 25.4602 33.2865 25.4511 33.3386 25.4511H33.3528V25.4201C33.2854 25.4201 33.2009 25.4258 33.13 25.4258C33.0607 25.4258 32.9768 25.4205 32.9203 25.4201V25.4511H32.9343C32.9863 25.4511 33.0485 25.4602 33.0485 25.5409V26.3057C33.0485 26.3864 32.9863 26.3954 32.9343 26.3954H32.9203V26.4266C32.9768 26.426 33.0593 26.4207 33.1284 26.4207C33.1995 26.4207 33.284 26.4262 33.3528 26.4266Z" fill="white"/>
<path d="M34.3619 26.1451L34.3648 26.1422V25.5948C34.3648 25.475 34.2815 25.4576 34.2378 25.4576H34.2056V25.4137C34.2743 25.4137 34.3414 25.4195 34.41 25.4195C34.4698 25.4195 34.5299 25.4137 34.5896 25.4137V25.4576H34.5678C34.5063 25.4576 34.4377 25.4692 34.4377 25.6429V26.3073C34.4377 26.3584 34.4392 26.4094 34.4464 26.4546H34.3908L33.6393 25.6166V26.2182C33.6393 26.3452 33.6638 26.3888 33.7764 26.3888H33.8011V26.4328C33.7384 26.4328 33.6758 26.4271 33.6129 26.4271C33.5474 26.4271 33.4802 26.4328 33.4144 26.4328V26.3888H33.4349C33.5356 26.3888 33.5662 26.3204 33.5662 26.2037V25.5888C33.5662 25.5071 33.4989 25.4576 33.4335 25.4576H33.4145V25.4138C33.4699 25.4138 33.5268 25.4195 33.5822 25.4195C33.626 25.4195 33.6684 25.4138 33.7121 25.4138L34.3619 26.1451Z" fill="white"/>
<path d="M34.4463 26.461L34.3861 26.4588L33.6454 25.6331V26.2182C33.6471 26.3451 33.6664 26.3811 33.7764 26.3825H33.8076V26.439H33.8012C33.738 26.439 33.6751 26.4332 33.6129 26.4332C33.5475 26.4332 33.4805 26.439 33.4143 26.439H33.4079V26.3825H33.4348C33.5313 26.382 33.5588 26.3201 33.5599 26.2037V25.5889C33.5597 25.5111 33.496 25.464 33.4334 25.4638H33.4079V25.4075H33.4143C33.4701 25.4075 33.5272 25.413 33.582 25.413C33.6254 25.413 33.6677 25.4075 33.7169 25.4096L34.3585 26.1318V25.595C34.3577 25.4787 34.2802 25.4648 34.2377 25.4638H34.199V25.4075H34.2055C34.2745 25.4075 34.3417 25.413 34.4099 25.413C34.4693 25.413 34.5291 25.4075 34.5895 25.4075H34.5958V25.4637H34.5677C34.5075 25.4655 34.4456 25.4707 34.4439 25.6429V26.3072C34.4439 26.3582 34.4454 26.4093 34.4525 26.4535L34.4539 26.461L34.4463 26.461ZM34.3909 26.4481H34.4392C34.4326 26.4043 34.4315 26.3557 34.4315 26.3072V25.6429C34.4315 25.4677 34.5049 25.4511 34.5677 25.4511H34.5831V25.4201C34.5256 25.4205 34.4679 25.4258 34.4099 25.4258C34.3431 25.4258 34.2781 25.4205 34.212 25.4201L34.2119 25.4511H34.2378C34.2826 25.4511 34.3712 25.4711 34.3712 25.5949L34.3691 26.1466L34.3662 26.1496L34.3613 26.1542L33.7121 25.4201C33.6688 25.4201 33.6265 25.4258 33.582 25.4258C33.5285 25.4258 33.4737 25.4205 33.4208 25.4201L33.4205 25.4511H33.4335C33.502 25.4511 33.5723 25.5034 33.5723 25.5889V26.2037C33.5723 26.3204 33.5398 26.3951 33.4349 26.3955L33.4208 26.3951V26.4266C33.4841 26.4259 33.549 26.4207 33.6129 26.4207C33.6739 26.4207 33.7345 26.426 33.7948 26.4266V26.3955H33.7764C33.6615 26.3951 33.633 26.3451 33.6328 26.2181V25.6002L34.3909 26.4481ZM34.3585 26.1421V26.1416L34.3573 26.1406L34.3585 26.1421Z" fill="white"/>
<path d="M34.8081 25.4866C34.6985 25.4866 34.6944 25.513 34.6725 25.6194H34.6287C34.6344 25.5786 34.6417 25.5378 34.6462 25.4953C34.652 25.4544 34.6549 25.4137 34.6549 25.3714H34.69C34.7017 25.4153 34.7382 25.4137 34.7778 25.4137H35.5307C35.5702 25.4137 35.6067 25.4123 35.6097 25.3684L35.6445 25.3743C35.6388 25.4137 35.633 25.4531 35.6285 25.4926C35.6259 25.532 35.6259 25.5714 35.6259 25.6107L35.5819 25.627C35.5789 25.5731 35.5716 25.4866 35.4739 25.4866H35.2346V26.2634C35.2346 26.376 35.2857 26.3888 35.3555 26.3888H35.3834V26.4328C35.3265 26.4328 35.2241 26.4271 35.1455 26.4271C35.0579 26.4271 34.9556 26.4328 34.8986 26.4328V26.3888H34.9264C35.0069 26.3888 35.0476 26.3816 35.0476 26.2664V25.4866H34.8081Z" fill="white"/>
<path d="M35.3836 26.439C35.3261 26.439 35.2239 26.4332 35.1455 26.4332C35.058 26.4332 34.9559 26.439 34.8986 26.439H34.8926V26.3825H34.9265C35.0069 26.3806 35.0393 26.3796 35.0411 26.2664V25.493H34.8081V25.4801H35.0538V26.2664C35.0538 26.3835 35.0066 26.3954 34.9265 26.3955H34.905V26.4263C34.9626 26.426 35.0608 26.4207 35.1455 26.4207C35.2216 26.4207 35.3192 26.426 35.3769 26.4263V26.3955H35.3555C35.285 26.3954 35.2282 26.3781 35.2282 26.2634V25.4801H35.474C35.572 25.4806 35.5847 25.5639 35.5879 25.618L35.6194 25.6064C35.6194 25.5683 35.6196 25.5301 35.6223 25.4917C35.6265 25.4541 35.6319 25.4169 35.6373 25.3796L35.6151 25.3759C35.6083 25.4184 35.5673 25.4205 35.5305 25.4201H34.7702C34.7359 25.4201 34.6983 25.4185 34.6853 25.3777H34.6612C34.6609 25.4181 34.6581 25.4573 34.6525 25.4961C34.6483 25.5362 34.6416 25.5748 34.6361 25.6134H34.6674C34.6867 25.5116 34.6992 25.4786 34.8081 25.4801V25.493C34.7002 25.4949 34.7025 25.5132 34.6787 25.6211L34.6776 25.626H34.6214L34.6222 25.6184C34.6281 25.5775 34.6355 25.5368 34.6398 25.4943C34.6459 25.4538 34.6487 25.4133 34.6487 25.3714V25.3651H34.695L34.696 25.3696C34.706 25.4065 34.733 25.4067 34.7702 25.4073H35.5305C35.5712 25.4067 35.6008 25.4061 35.6033 25.3679L35.6039 25.361L35.6105 25.3624L35.6517 25.3689L35.6508 25.3753C35.6449 25.4144 35.6392 25.4538 35.6349 25.493C35.632 25.5319 35.632 25.5713 35.632 25.6107V25.6153L35.6279 25.6169L35.5762 25.6357L35.5758 25.6272C35.5719 25.5723 35.5662 25.493 35.474 25.493H35.241V26.2634C35.2423 26.3735 35.286 26.3811 35.3555 26.3825H35.3897V26.439L35.3836 26.439Z" fill="white"/>
<path d="M35.6912 26.3888H35.7117C35.7642 26.3888 35.8197 26.3817 35.8197 26.3057V25.5409C35.8197 25.4648 35.7642 25.4576 35.7117 25.4576H35.6912V25.4137C35.7801 25.4137 35.9321 25.4195 36.0545 25.4195C36.1774 25.4195 36.3289 25.4137 36.4281 25.4137C36.4257 25.4764 36.427 25.573 36.4313 25.637L36.3873 25.6488C36.3803 25.5539 36.3628 25.4781 36.2094 25.4781H36.0067V25.8604H36.1802C36.2677 25.8604 36.2869 25.8109 36.2955 25.7319H36.3392C36.3364 25.7891 36.3349 25.846 36.3349 25.9029C36.3349 25.9584 36.3364 26.0138 36.3392 26.0693L36.2955 26.078C36.2869 25.9904 36.2824 25.9335 36.1816 25.9335H36.0067V26.2735C36.0067 26.3686 36.091 26.3686 36.1846 26.3686C36.3598 26.3686 36.437 26.3567 36.4808 26.1905L36.5217 26.2005C36.5026 26.2781 36.4852 26.3553 36.4722 26.4328C36.3787 26.4328 36.2108 26.4271 36.0796 26.4271C35.948 26.4271 35.7744 26.4328 35.6912 26.4328V26.3888Z" fill="white"/>
<path d="M36.4721 26.439C36.3784 26.439 36.2105 26.433 36.0795 26.433C35.948 26.433 35.7745 26.439 35.6912 26.439H35.685V26.3825H35.7116C35.7646 26.3817 35.8125 26.3771 35.8132 26.3057V25.5409C35.8125 25.4696 35.7646 25.4649 35.7116 25.4637H35.685V25.4075H35.6912C35.7802 25.4075 35.9321 25.413 36.0544 25.413C36.1772 25.413 36.3287 25.4075 36.4281 25.4075H36.4346L36.4343 25.414C36.4333 25.4359 36.4329 25.4618 36.4329 25.4894C36.4329 25.5399 36.4343 25.595 36.4373 25.6366L36.4375 25.6419L36.4326 25.6433L36.3813 25.6567L36.381 25.6492C36.3724 25.5545 36.3597 25.4857 36.2094 25.4843H36.0128L36.0126 25.8539H36.1802C36.2642 25.8531 36.2793 25.81 36.2892 25.7314L36.2897 25.7256H36.3457L36.3456 25.7322C36.3428 25.7891 36.3409 25.846 36.3409 25.9029C36.3409 25.9581 36.3428 26.0135 36.3456 26.0691L36.3457 26.0742L36.3404 26.0754L36.2897 26.0856L36.2892 26.0787C36.2792 25.9896 36.2785 25.9408 36.1815 25.9397L36.0128 25.9396V26.2735C36.0129 26.3622 36.0894 26.3617 36.1845 26.3622C36.3602 26.3612 36.4307 26.3527 36.4747 26.1887L36.4762 26.1828L36.4823 26.1839L36.5291 26.196L36.5277 26.2021C36.5089 26.2794 36.4913 26.3565 36.4783 26.4339L36.4771 26.439H36.4721ZM36.4667 26.4263C36.4794 26.3527 36.4961 26.2788 36.514 26.2053L36.4852 26.198C36.4414 26.3614 36.3568 26.376 36.1845 26.3748C36.0926 26.3748 36.0005 26.3748 36.0001 26.2735V25.9271H36.1815C36.2834 25.926 36.2938 25.9876 36.301 26.0707L36.3326 26.0641C36.3298 26.0103 36.3285 25.9564 36.3285 25.9028C36.3285 25.8479 36.3298 25.7932 36.3326 25.7383H36.301C36.2929 25.8143 36.2691 25.8677 36.1802 25.8667H36.0001V25.4715H36.2094C36.3613 25.4705 36.3865 25.5489 36.3929 25.6407L36.4244 25.6322C36.4219 25.591 36.4202 25.5381 36.4202 25.4894C36.4202 25.4644 36.4208 25.4408 36.4216 25.4201C36.3224 25.4205 36.1746 25.4258 36.0545 25.4258C35.9345 25.4258 35.7868 25.4205 35.6975 25.4201V25.4511H35.7116C35.7636 25.4511 35.8258 25.4602 35.826 25.5409V26.3057C35.8258 26.3862 35.7636 26.3951 35.7116 26.3955H35.6975V26.4263C35.7826 26.4262 35.9512 26.4207 36.0794 26.4207C36.2082 26.4207 36.3726 26.4262 36.4667 26.4263Z" fill="white"/>
<path d="M36.7187 25.5684C36.7187 25.4619 36.6604 25.4576 36.6149 25.4576H36.5887V25.4136C36.6355 25.4136 36.7259 25.4195 36.815 25.4195C36.9025 25.4195 36.9727 25.4136 37.0499 25.4136C37.2337 25.4136 37.3974 25.4633 37.3974 25.6708C37.3974 25.8019 37.3098 25.8823 37.1945 25.9277L37.4441 26.3013C37.4849 26.363 37.514 26.3803 37.5857 26.3888V26.4328C37.5375 26.4328 37.4907 26.4271 37.4426 26.4271C37.3974 26.4271 37.3505 26.4328 37.3055 26.4328C37.1931 26.2854 37.0965 26.1277 37.0017 25.9596H36.9057V26.2722C36.9057 26.3848 36.958 26.3888 37.0251 26.3888H37.0514V26.4328C36.968 26.4328 36.8837 26.4271 36.8004 26.4271C36.7302 26.4271 36.6616 26.4328 36.5887 26.4328V26.3888H36.6149C36.6692 26.3888 36.7187 26.3643 36.7187 26.3102V25.5684ZM36.9769 25.9071C37.123 25.9071 37.2016 25.8516 37.2016 25.6793C37.2016 25.5496 37.1185 25.4663 36.9884 25.4663C36.9446 25.4663 36.926 25.4708 36.9056 25.4722V25.9071H36.9769Z" fill="white"/>
<path d="M37.5857 26.439C37.5368 26.439 37.4903 26.4332 37.4423 26.4332C37.3978 26.4332 37.3512 26.439 37.3003 26.4366C37.1884 26.2897 37.0924 26.1329 36.9981 25.9661H36.9118V26.272C36.9133 26.3818 36.9575 26.3809 37.025 26.3826H37.0577V26.439H37.0512C36.9678 26.439 36.8831 26.4332 36.8002 26.4332C36.7304 26.4332 36.662 26.439 36.5887 26.439H36.5823V26.3826H36.6149C36.6676 26.3822 36.7119 26.3594 36.7121 26.3102V25.5684C36.711 25.4648 36.6603 25.4654 36.6149 25.4639H36.5823V25.4073H36.5887C36.636 25.4073 36.7261 25.4131 36.815 25.4131C36.9021 25.4131 36.9723 25.4073 37.05 25.4073C37.2339 25.4077 37.4034 25.4585 37.4039 25.6705C37.4039 25.8024 37.3167 25.8846 37.204 25.9306L37.4493 26.2978C37.4901 26.3584 37.5155 26.3735 37.5866 26.3826L37.5919 26.3834V26.439L37.5857 26.439ZM37.0053 25.9534L37.007 25.9566C37.1021 26.1243 37.198 26.2818 37.3055 26.4266C37.35 26.4266 37.3969 26.4206 37.4423 26.4206C37.489 26.4206 37.5339 26.4257 37.5794 26.4264V26.3944C37.5108 26.3859 37.4788 26.3654 37.4389 26.3048L37.1849 25.9247L37.1921 25.9218C37.3063 25.8768 37.3908 25.7988 37.3909 25.6704C37.3908 25.4679 37.2335 25.4209 37.05 25.4201C36.973 25.4201 36.9029 25.4259 36.815 25.4259C36.7292 25.4259 36.6427 25.4205 36.5949 25.4201V25.4511H36.6149C36.6603 25.4512 36.7249 25.4587 36.7249 25.5684V26.3102C36.7249 26.3688 36.6699 26.3955 36.6149 26.3956H36.5949V26.4264C36.6652 26.4261 36.7316 26.4206 36.8002 26.4206C36.8818 26.4206 36.9642 26.4262 37.0449 26.4264V26.3956H37.025C36.9584 26.3955 36.8991 26.3872 36.8991 26.272V25.9534H37.0053ZM36.9055 25.9133H36.8991V25.4663L36.9046 25.4658C36.9246 25.4643 36.9443 25.4601 36.9885 25.4601C37.1215 25.4601 37.2079 25.5465 37.2081 25.6796C37.2077 25.8539 37.1241 25.9132 36.9769 25.9133L36.9055 25.9133ZM36.9769 25.9007C37.1214 25.8995 37.1941 25.8493 37.1957 25.6797C37.1948 25.5521 37.1156 25.473 36.9884 25.4725C36.949 25.4725 36.9304 25.4761 36.9118 25.4777V25.9007H36.9769Z" fill="white"/>
<path d="M38.5767 26.1451L38.5793 26.1422V25.5948C38.5793 25.475 38.4963 25.4576 38.4525 25.4576H38.4205V25.4137C38.4891 25.4137 38.5561 25.4195 38.6248 25.4195C38.6847 25.4195 38.7444 25.4137 38.8046 25.4137V25.4576H38.7826C38.7213 25.4576 38.6526 25.4692 38.6526 25.6429V26.3073C38.6526 26.3584 38.6541 26.4094 38.6612 26.4546H38.6059L37.8542 25.6166V26.2182C37.8542 26.3452 37.879 26.3888 37.9914 26.3888H38.0162V26.4328C37.9535 26.4328 37.8907 26.4271 37.828 26.4271C37.7621 26.4271 37.695 26.4328 37.6294 26.4328V26.3888H37.6496C37.7505 26.3888 37.7811 26.3204 37.7811 26.2037V25.5888C37.7811 25.5071 37.714 25.4576 37.6484 25.4576H37.6294V25.4138C37.6847 25.4138 37.7419 25.4195 37.7972 25.4195C37.8408 25.4195 37.8833 25.4138 37.9271 25.4138L38.5767 26.1451Z" fill="white"/>
<path d="M38.6613 26.4609L38.6012 26.4589L37.8604 25.6331V26.2181C37.8621 26.3451 37.8813 26.3811 37.9914 26.3825H38.0223V26.439H38.0159C37.9528 26.439 37.8902 26.433 37.8276 26.433C37.7625 26.433 37.695 26.439 37.6294 26.439H37.6228V26.3825H37.6496C37.746 26.3821 37.7736 26.3201 37.7745 26.2033V25.5888C37.7744 25.511 37.7107 25.4639 37.6484 25.4637H37.6228V25.4073H37.6294C37.685 25.4073 37.7421 25.413 37.7972 25.413C37.8401 25.413 37.8824 25.4073 37.9314 25.4093L38.573 26.1318V25.5947C38.5726 25.4787 38.4949 25.4644 38.4525 25.4638H38.4139V25.4073H38.4203C38.4893 25.4073 38.5565 25.413 38.6248 25.413C38.6843 25.413 38.7441 25.4073 38.8042 25.4073H38.8106V25.4638H38.7826C38.7223 25.4654 38.6603 25.4707 38.6588 25.6429V26.3072C38.6588 26.3582 38.6601 26.4088 38.6675 26.4538L38.6683 26.4609H38.6613ZM38.6058 26.4481H38.6538C38.6474 26.4043 38.646 26.3557 38.646 26.3072V25.6429C38.6461 25.4677 38.72 25.4515 38.7826 25.451H38.7978V25.4201C38.7405 25.4205 38.6828 25.4258 38.6248 25.4258C38.5578 25.4258 38.4926 25.4205 38.4266 25.4201V25.451H38.4525C38.4974 25.4515 38.5859 25.4711 38.5859 25.5947L38.5839 26.1466L38.581 26.1496L38.5766 26.1543L37.927 25.4201C37.8836 25.4201 37.8413 25.4258 37.7972 25.4258C37.7431 25.4258 37.6886 25.4205 37.6354 25.4201V25.451H37.6484C37.7169 25.4515 37.7873 25.5032 37.7873 25.5888V26.2033C37.7873 26.3205 37.7543 26.3951 37.6496 26.3955L37.6354 26.3954V26.4263C37.6985 26.426 37.7636 26.4207 37.8277 26.4207C37.8889 26.4207 37.9495 26.426 38.0099 26.4263V26.3955H37.9914C37.8765 26.3954 37.8477 26.3451 37.8475 26.218V25.6004L38.6058 26.4481ZM38.573 26.1422V26.1417L38.5719 26.1406L38.573 26.1422Z" fill="white"/>
<path d="M39.0393 26.224C39.0245 26.2735 39.0069 26.3118 39.0069 26.3378C39.0069 26.3817 39.0683 26.3888 39.1163 26.3888H39.1326V26.4328C39.0741 26.4297 39.0145 26.4271 38.9557 26.4271C38.9032 26.4271 38.8509 26.4297 38.7983 26.4328V26.3888H38.8071C38.864 26.3888 38.9123 26.3553 38.9338 26.2939L39.1676 25.624C39.1865 25.5699 39.213 25.4969 39.2218 25.4428C39.2683 25.4269 39.3268 25.3978 39.3544 25.3801C39.359 25.3786 39.3615 25.3771 39.3661 25.3771C39.3704 25.3771 39.3732 25.3771 39.3765 25.3817C39.3807 25.3932 39.385 25.4065 39.3896 25.4181L39.6582 26.1817C39.6757 26.2327 39.693 26.2867 39.7119 26.3306C39.7295 26.3715 39.7603 26.3888 39.8086 26.3888H39.8172V26.4328C39.7515 26.4297 39.6857 26.4271 39.6159 26.4271C39.5443 26.4271 39.4711 26.4297 39.3967 26.4328V26.3888H39.4129C39.4463 26.3888 39.5034 26.3831 39.5034 26.3466C39.5034 26.3277 39.4903 26.2883 39.474 26.2414L39.4172 26.0721H39.0859L39.0393 26.224ZM39.2523 25.5772H39.2493L39.1136 25.9904H39.3864L39.2523 25.5772Z" fill="white"/>
<path d="M39.8168 26.439C39.7511 26.4361 39.6854 26.433 39.6158 26.433C39.5443 26.433 39.4716 26.4361 39.3969 26.439L39.3903 26.4394V26.3823H39.4128C39.4466 26.3823 39.4968 26.3746 39.4968 26.3466C39.4972 26.33 39.484 26.2899 39.468 26.2435L39.4124 26.0784H39.0904L39.0451 26.2259C39.0303 26.2757 39.0128 26.3142 39.0129 26.338C39.0134 26.3736 39.0679 26.3823 39.1163 26.3823H39.1388V26.4394L39.1322 26.439C39.0738 26.4361 39.0142 26.433 38.956 26.433C38.9037 26.433 38.851 26.4361 38.7987 26.439L38.7919 26.4394V26.3823H38.807C38.8613 26.3821 38.9067 26.3513 38.9278 26.2919L39.1615 25.6219C39.1806 25.5677 39.2069 25.4949 39.2196 25.4367C39.2653 25.4213 39.3239 25.3919 39.3521 25.3741C39.3561 25.3728 39.3602 25.3707 39.3662 25.3707C39.3697 25.3706 39.3776 25.3716 39.3823 25.3793C39.3864 25.3913 39.3909 25.4043 39.3954 25.4161L39.6643 26.1796C39.6815 26.2308 39.6989 26.2848 39.7179 26.3279C39.7348 26.3669 39.7616 26.3822 39.8086 26.3824H39.8235V26.4394L39.8168 26.439ZM39.4031 26.426C39.4754 26.4234 39.5461 26.4206 39.6158 26.4206C39.6837 26.4206 39.7471 26.4234 39.8106 26.426V26.3955H39.8086C39.7586 26.3958 39.724 26.3762 39.7061 26.3331C39.6871 26.2888 39.6693 26.2347 39.6522 26.1835L39.3834 25.4201C39.379 25.4085 39.3747 25.3952 39.3709 25.3849C39.3697 25.3835 39.37 25.3835 39.3688 25.3835H39.3661C39.3631 25.3835 39.3614 25.3844 39.3576 25.3854C39.3295 25.4037 39.2709 25.4324 39.2276 25.4438C39.2186 25.4991 39.1924 25.572 39.1734 25.626L38.9398 26.2961C38.9175 26.3595 38.8664 26.3956 38.807 26.3955H38.8047V26.426C38.8547 26.4234 38.9053 26.4206 38.956 26.4206C39.0124 26.4206 39.0701 26.4234 39.1257 26.426V26.3955H39.1163C39.0689 26.3949 39.0024 26.3895 39.0006 26.338C39.0007 26.3088 39.0186 26.2715 39.0329 26.2222L39.081 26.0659H39.4213L39.4799 26.2394C39.4963 26.2863 39.5095 26.3251 39.5095 26.3466C39.5075 26.3914 39.4459 26.3946 39.4128 26.3955H39.4031L39.4031 26.426ZM39.1047 25.9967L39.2445 25.5708H39.2524H39.2567L39.3953 25.9967H39.1047ZM39.1222 25.984H39.3777L39.2506 25.5928L39.1222 25.984Z" fill="white"/>
<path d="M39.8814 25.4866C39.7718 25.4866 39.7675 25.513 39.7455 25.6194H39.7017C39.7074 25.5786 39.7148 25.5378 39.7194 25.4953C39.7253 25.4544 39.7279 25.4137 39.7279 25.3714H39.7631C39.7748 25.4153 39.8114 25.4137 39.8506 25.4137H40.604C40.6432 25.4137 40.6796 25.4123 40.6826 25.3684L40.7175 25.3743C40.712 25.4137 40.7062 25.4531 40.7017 25.4926C40.6986 25.532 40.6986 25.5714 40.6986 25.6107L40.6549 25.627C40.6521 25.5731 40.6449 25.4866 40.547 25.4866H40.3076V26.2634C40.3076 26.376 40.3588 26.3888 40.4287 26.3888H40.4564V26.4328C40.3995 26.4328 40.2975 26.4271 40.2185 26.4271C40.1311 26.4271 40.0287 26.4328 39.9719 26.4328V26.3888H39.9995C40.0799 26.3888 40.1208 26.3816 40.1208 26.2664V25.4866H39.8814Z" fill="white"/>
<path d="M40.4564 26.439C40.3991 26.439 40.2969 26.4332 40.2185 26.4332C40.1313 26.4332 40.029 26.439 39.9718 26.439H39.9654V26.3825H39.9995C40.0799 26.3806 40.1122 26.3796 40.1143 26.2664L40.1141 25.493H39.8814L39.8814 25.4866L39.8814 25.4801H40.1269V26.2664C40.1269 26.3835 40.0796 26.3951 39.9995 26.3954H39.978V26.4266C40.0358 26.4259 40.1338 26.4207 40.2185 26.4207C40.2947 26.4207 40.3923 26.426 40.45 26.4266V26.3954H40.4285C40.3583 26.3951 40.3014 26.3782 40.3012 26.2634V25.4801H40.547C40.645 25.4806 40.6578 25.5639 40.6606 25.618L40.6924 25.6064C40.6924 25.5683 40.6925 25.5301 40.6954 25.4919C40.6994 25.4543 40.7049 25.4169 40.7103 25.3796L40.6882 25.3759C40.6815 25.4184 40.6403 25.4207 40.604 25.4201H39.8432C39.8088 25.4205 39.7715 25.4185 39.7583 25.3775H39.7344C39.734 25.418 39.7312 25.4573 39.7255 25.4961C39.7216 25.5363 39.7144 25.575 39.709 25.6134H39.7402C39.7596 25.5116 39.7722 25.4786 39.8814 25.4801L39.8814 25.4866L39.8814 25.493C39.7732 25.4948 39.7756 25.5131 39.7517 25.621L39.7506 25.626H39.6943L39.6952 25.6187C39.7013 25.5775 39.7085 25.5368 39.7128 25.4946C39.7188 25.4538 39.7216 25.4133 39.7216 25.3714V25.365H39.7677L39.769 25.3696C39.7792 25.4064 39.8058 25.4066 39.8432 25.4073L39.8505 25.4075H40.604C40.6442 25.4067 40.6737 25.406 40.6762 25.368L40.6766 25.361L40.6835 25.3624L40.7249 25.3689L40.7238 25.3753C40.7178 25.4144 40.7123 25.4538 40.7078 25.493C40.7049 25.5319 40.7049 25.5715 40.7049 25.6107V25.6153L40.7007 25.6169L40.649 25.6357L40.6487 25.6272C40.645 25.5724 40.6392 25.493 40.547 25.493H40.3139V26.2634C40.3154 26.3735 40.359 26.3811 40.4285 26.3825H40.4627V26.439L40.4564 26.439Z" fill="white"/>
<path d="M40.7714 26.3888H40.7919C40.8446 26.3888 40.8998 26.3817 40.8998 26.3057V25.5409C40.8998 25.4648 40.8446 25.4576 40.7919 25.4576H40.7714V25.4137C40.8284 25.4137 40.9159 25.4195 40.9873 25.4195C41.0605 25.4195 41.1481 25.4137 41.2167 25.4137V25.4576H41.1963C41.1437 25.4576 41.0881 25.4648 41.0881 25.5409V26.3057C41.0881 26.3817 41.1437 26.3888 41.1963 26.3888H41.2167V26.4328C41.1466 26.4328 41.0589 26.4271 40.9861 26.4271C40.9145 26.4271 40.8284 26.4328 40.7714 26.4328V26.3888Z" fill="white"/>
<path d="M41.2168 26.439C41.1462 26.439 41.0589 26.433 40.9861 26.433C40.9147 26.433 40.8285 26.439 40.7715 26.439H40.7651V26.3825H40.792C40.8447 26.3817 40.8931 26.3772 40.8933 26.3057V25.5409C40.8931 25.4696 40.8447 25.4648 40.792 25.4637H40.7651V25.4075H40.7715C40.8285 25.4075 40.9162 25.413 40.9873 25.413C41.0601 25.413 41.1476 25.4075 41.2168 25.4075H41.223V25.4637H41.1963C41.143 25.4648 41.0951 25.4696 41.0944 25.5409V26.3057C41.0951 26.3772 41.143 26.3817 41.1963 26.3825H41.223V26.439H41.2168ZM41.2102 26.4263V26.3954H41.1963C41.144 26.3954 41.0821 26.3862 41.0821 26.3057V25.5409C41.0821 25.4602 41.144 25.4511 41.1963 25.4511H41.2102V25.4201C41.1428 25.4205 41.0585 25.4258 40.9873 25.4258C40.9182 25.4258 40.8345 25.4205 40.7779 25.4201V25.4511H40.792C40.8439 25.4511 40.906 25.4602 40.9062 25.5409V26.3057C40.906 26.3862 40.8439 26.3954 40.792 26.3954H40.7779V26.4263C40.8342 26.4257 40.9168 26.4207 40.9861 26.4207C41.0568 26.4207 41.1414 26.426 41.2102 26.4263Z" fill="white"/>
<path d="M41.7988 25.3919C42.11 25.3919 42.358 25.5848 42.358 25.8957C42.358 26.2315 42.1172 26.4547 41.8064 26.4547C41.4967 26.4547 41.2605 26.2445 41.2605 25.9306C41.2605 25.627 41.4953 25.3919 41.7988 25.3919ZM41.8209 26.3904C42.1041 26.3904 42.1534 26.1406 42.1534 25.9277C42.1534 25.7144 42.0384 25.4561 41.796 25.4561C41.5405 25.4561 41.4647 25.6838 41.4647 25.8793C41.4647 26.1406 41.5844 26.3904 41.8209 26.3904Z" fill="white"/>
<path d="M41.2539 25.9306C41.2545 25.6235 41.4922 25.3859 41.7988 25.3855V25.398C41.4988 25.398 41.2666 25.6302 41.2663 25.9306C41.267 26.2409 41.4999 26.448 41.8064 26.4481C42.1141 26.448 42.3515 26.228 42.352 25.8954C42.3517 25.5885 42.1074 25.3985 41.7988 25.398V25.3855C42.1124 25.3857 42.3637 25.5806 42.3643 25.8954C42.364 26.2347 42.1201 26.4603 41.8064 26.4609C41.4942 26.4603 41.2545 26.2479 41.2539 25.9306ZM41.4584 25.8793C41.4588 25.6829 41.5355 25.4495 41.7961 25.4495C42.0438 25.4501 42.1595 25.7133 42.1599 25.9277C42.1595 26.1406 42.1094 26.3965 41.821 26.3965V26.3842C42.0985 26.3838 42.1466 26.1406 42.1473 25.9277C42.1473 25.7161 42.0333 25.4627 41.7961 25.4624C41.5456 25.4627 41.4715 25.6848 41.471 25.8793C41.4712 26.1393 41.5898 26.3835 41.821 26.3842V26.3965C41.5786 26.3962 41.4588 26.1421 41.4584 25.8793Z" fill="white"/>
<path d="M43.3417 26.1451L43.3446 26.1422V25.5948C43.3446 25.475 43.2612 25.4576 43.2174 25.4576H43.1858V25.4137C43.2542 25.4137 43.3213 25.4195 43.3897 25.4195C43.4498 25.4195 43.5096 25.4137 43.5695 25.4137V25.4576H43.5474C43.4863 25.4576 43.4176 25.4692 43.4176 25.6429V26.3073C43.4176 26.3584 43.419 26.4094 43.4264 26.4546H43.371L42.6191 25.6166V26.2182C42.6191 26.3452 42.6438 26.3888 42.7562 26.3888H42.7812V26.4328C42.7183 26.4328 42.6557 26.4271 42.5929 26.4271C42.5272 26.4271 42.4599 26.4328 42.3942 26.4328V26.3888H42.4148C42.5157 26.3888 42.546 26.3204 42.546 26.2037V25.5888C42.546 25.5071 42.4791 25.4576 42.4132 25.4576H42.3942V25.4138C42.4497 25.4138 42.5067 25.4195 42.562 25.4195C42.6059 25.4195 42.6481 25.4138 42.692 25.4138L43.3417 26.1451Z" fill="white"/>
<path d="M43.4265 26.4609L43.3661 26.4588L42.6254 25.6331V26.2182C42.627 26.3451 42.6464 26.381 42.756 26.3823H42.7876V26.439H42.7812C42.7179 26.439 42.6553 26.4332 42.5929 26.4332C42.5274 26.4332 42.4604 26.439 42.3941 26.439H42.388V26.3823H42.4148C42.511 26.382 42.5387 26.3201 42.5399 26.2037V25.5888C42.5397 25.511 42.476 25.4639 42.4132 25.4638H42.388V25.4075H42.3941C42.4501 25.4075 42.507 25.4131 42.562 25.4131C42.6054 25.4131 42.6475 25.4075 42.6969 25.4096L43.3382 26.1318V25.595C43.3378 25.4788 43.2601 25.4648 43.2173 25.4638H43.179V25.4075H43.1856C43.2543 25.4075 43.3216 25.4131 43.3895 25.4131C43.4494 25.4131 43.509 25.4075 43.5695 25.4075H43.5758V25.4638H43.5474C43.4874 25.4655 43.4253 25.471 43.424 25.6429V26.3072C43.424 26.3583 43.4251 26.4092 43.4322 26.4538L43.4334 26.4609L43.4265 26.4609ZM43.371 26.4481H43.4188C43.4124 26.4043 43.4113 26.3557 43.4113 26.3072V25.6429C43.4113 25.4674 43.4849 25.4515 43.5475 25.451H43.5632V25.4201C43.5057 25.4205 43.448 25.4258 43.3896 25.4258C43.3232 25.4258 43.2579 25.4205 43.1918 25.4201V25.451H43.2174C43.2626 25.4515 43.3507 25.4715 43.3507 25.5949L43.3491 26.1466L43.3463 26.1496L43.3417 26.1543L42.6921 25.4201C42.649 25.4201 42.6064 25.4258 42.5621 25.4258C42.5083 25.4258 42.4536 25.4205 42.4004 25.4201V25.451H42.4133C42.4818 25.4515 42.5524 25.5032 42.5524 25.5888V26.2037C42.5524 26.3204 42.5198 26.3951 42.4148 26.3955L42.4004 26.3954V26.4263C42.4638 26.426 42.5288 26.4207 42.593 26.4207C42.6538 26.4207 42.7142 26.426 42.7749 26.4263V26.3955H42.756C42.6415 26.3954 42.6128 26.3451 42.6128 26.2181V25.6002L43.371 26.4481ZM43.3382 26.1422V26.1417L43.337 26.1406L43.3382 26.1422Z" fill="white"/>
<path d="M43.8041 26.224C43.7898 26.2735 43.7721 26.3118 43.7721 26.3378C43.7721 26.3817 43.8335 26.3888 43.8814 26.3888H43.8977V26.4328C43.8393 26.4297 43.7794 26.4271 43.721 26.4271C43.6682 26.4271 43.6159 26.4297 43.5636 26.4328V26.3888H43.5719C43.6291 26.3888 43.6774 26.3553 43.699 26.2939L43.9328 25.624C43.9517 25.5699 43.9781 25.4969 43.9866 25.4428C44.0333 25.4269 44.0916 25.3978 44.1197 25.3801C44.1238 25.3786 44.1268 25.3771 44.1312 25.3771C44.1356 25.3771 44.1383 25.3771 44.1412 25.3817C44.1457 25.3932 44.1503 25.4065 44.1546 25.4181L44.423 26.1817C44.4406 26.2327 44.458 26.2867 44.4772 26.3306C44.4947 26.3715 44.5255 26.3888 44.5735 26.3888H44.5824V26.4328C44.5166 26.4297 44.4509 26.4271 44.3807 26.4271C44.3094 26.4271 44.2363 26.4297 44.1618 26.4328V26.3888H44.178C44.2113 26.3888 44.2686 26.3831 44.2686 26.3466C44.2686 26.3277 44.2553 26.2883 44.239 26.2414L44.1824 26.0721H43.851L43.8041 26.224ZM44.0174 25.5772H44.0145L43.8786 25.9904H44.1518L44.0174 25.5772Z" fill="white"/>
<path d="M44.5818 26.439C44.5161 26.4364 44.4505 26.4332 44.3807 26.4332C44.3096 26.4332 44.2365 26.4364 44.162 26.439L44.1555 26.4394V26.3825H44.1777C44.2117 26.3825 44.262 26.3746 44.2621 26.3466C44.2624 26.33 44.2492 26.2902 44.233 26.2435L44.1775 26.0784H43.8553L43.8101 26.2258C43.7956 26.2758 43.7782 26.3142 43.7785 26.3378C43.7785 26.3736 43.8331 26.3825 43.8814 26.3825H43.9037V26.4394L43.8972 26.439C43.8388 26.4364 43.7791 26.4332 43.721 26.4332C43.6686 26.4332 43.6162 26.4364 43.5636 26.439L43.5572 26.4394V26.3825H43.5719C43.6263 26.3823 43.6719 26.3511 43.6931 26.2918L43.9268 25.6219C43.9454 25.5677 43.9717 25.4949 43.9846 25.4369C44.0305 25.421 44.0891 25.3919 44.1175 25.3741C44.1213 25.3728 44.1252 25.371 44.1312 25.371C44.1351 25.3706 44.1425 25.3715 44.1472 25.3795C44.1516 25.391 44.1558 25.4042 44.1607 25.4161L44.4291 26.1796C44.4465 26.2308 44.464 26.2848 44.483 26.3282C44.5 26.3669 44.5267 26.3821 44.5732 26.3825H44.5884V26.4394L44.5818 26.439ZM44.1681 26.4262C44.2402 26.4234 44.3113 26.4206 44.3807 26.4206C44.4486 26.4206 44.5123 26.4234 44.5759 26.426L44.5757 26.3955H44.5732C44.5238 26.3956 44.4893 26.3762 44.4712 26.3331C44.452 26.2888 44.4346 26.2346 44.4172 26.1837L44.1485 25.4201C44.1442 25.4085 44.1397 25.3952 44.1362 25.3853C44.135 25.3835 44.1351 25.3835 44.1339 25.3835H44.1312C44.1282 25.3835 44.1265 25.3845 44.123 25.3855C44.0946 25.4034 44.036 25.4326 43.9928 25.4438C43.9838 25.4991 43.9573 25.5719 43.9385 25.626L43.7048 26.2961C43.6826 26.3595 43.6316 26.3956 43.5719 26.3955H43.5697V26.426C43.6199 26.4234 43.6701 26.4206 43.721 26.4206C43.7775 26.4206 43.8351 26.4234 43.8913 26.426V26.3955H43.8814C43.8339 26.3949 43.7673 26.3897 43.7656 26.3378C43.7659 26.3088 43.784 26.2717 43.7981 26.2222L43.8462 26.0659H44.1866L44.2451 26.2394C44.2612 26.2864 44.2744 26.3251 44.2744 26.3466C44.2723 26.3914 44.2111 26.3946 44.1777 26.3955H44.1681L44.1681 26.4262ZM43.8699 25.9966L44.0099 25.5708H44.0174H44.022L44.16 25.9966H43.8699ZM43.8874 25.984H44.1427L44.0157 25.593L43.8874 25.984Z" fill="white"/>
<path d="M44.9502 26.2897C44.9502 26.3481 44.9907 26.3655 45.0374 26.3715C45.0973 26.376 45.163 26.376 45.2304 26.3686C45.2915 26.3612 45.3441 26.3262 45.3702 26.2897C45.3935 26.2575 45.4067 26.2166 45.4155 26.1845H45.4578C45.4418 26.2677 45.4214 26.3497 45.4038 26.4328C45.2756 26.4328 45.1469 26.4271 45.0186 26.4271C44.89 26.4271 44.7617 26.4328 44.6333 26.4328V26.3888H44.6533C44.7062 26.3888 44.7632 26.3817 44.7632 26.2911V25.5409C44.7632 25.4648 44.7061 25.4576 44.6533 25.4576H44.6333V25.4137C44.7104 25.4137 44.7864 25.4195 44.8637 25.4195C44.9383 25.4195 45.0112 25.4137 45.0857 25.4137V25.4576H45.049C44.9937 25.4576 44.9502 25.4592 44.9502 25.5363V26.2897Z" fill="white"/>
<path d="M45.4038 26.439C45.2751 26.439 45.1467 26.4332 45.0186 26.4332C44.8901 26.4332 44.7616 26.439 44.633 26.439H44.6268V26.3825H44.6533C44.7063 26.3813 44.7563 26.3777 44.7569 26.2911V25.5406C44.7562 25.4696 44.7065 25.4648 44.6533 25.4638H44.6268V25.4075H44.633C44.7106 25.4075 44.7866 25.4131 44.8637 25.4131C44.9378 25.4131 45.0107 25.4075 45.0857 25.4075H45.0917V25.4638H45.0491C44.9925 25.4654 44.9573 25.4627 44.9562 25.5363V26.2897C44.9566 26.3441 44.9922 26.3588 45.0378 26.3651C45.0636 26.367 45.0906 26.3681 45.1187 26.3681C45.1545 26.3681 45.1916 26.3664 45.2293 26.3623C45.2888 26.3553 45.34 26.321 45.3651 26.2862C45.3876 26.255 45.4005 26.2149 45.4092 26.183L45.4106 26.1782H45.4655L45.4642 26.1859C45.4477 26.2694 45.4277 26.351 45.41 26.4341L45.4087 26.439L45.4038 26.439ZM45.3985 26.4263C45.4154 26.3471 45.4345 26.2697 45.4502 26.1907H45.4203C45.4111 26.2225 45.3982 26.2617 45.3752 26.2936C45.348 26.3314 45.2939 26.367 45.2307 26.3748C45.1924 26.3788 45.1546 26.3808 45.1187 26.3808C45.0905 26.3808 45.0631 26.3795 45.0366 26.3777C44.9892 26.3724 44.9431 26.3522 44.9433 26.2897V25.5363C44.9433 25.4552 44.9946 25.4511 45.0491 25.4511H45.0792V25.4201C45.0073 25.4205 44.9364 25.4259 44.8637 25.4259C44.7881 25.4259 44.7142 25.4205 44.6393 25.4201V25.4511H44.6533C44.7054 25.4511 44.7692 25.4602 44.7692 25.5406V26.2911C44.7692 26.3856 44.7057 26.3954 44.6533 26.3954H44.6393V26.4263C44.7656 26.4262 44.8918 26.4207 45.0186 26.4207C45.1454 26.4207 45.2722 26.4262 45.3985 26.4263Z" fill="white"/>
<path d="M45.4401 25.3722C45.528 25.3722 45.5938 25.4399 45.5938 25.5265C45.5938 25.6127 45.5281 25.6798 45.4401 25.6798C45.3521 25.6798 45.2863 25.6127 45.2863 25.5265C45.2863 25.4399 45.3521 25.3722 45.4401 25.3722ZM45.4401 25.6511C45.5088 25.6511 45.5617 25.5924 45.5617 25.5265C45.5617 25.4602 45.5096 25.401 45.4401 25.401C45.371 25.401 45.3181 25.4602 45.3181 25.5265C45.3181 25.5924 45.371 25.6511 45.4401 25.6511ZM45.3636 25.6075V25.5999C45.3825 25.5973 45.3859 25.5979 45.3859 25.5861V25.4724C45.3859 25.4564 45.3842 25.4509 45.3643 25.4517V25.4439H45.4429C45.47 25.4439 45.4948 25.4568 45.4948 25.4847C45.4948 25.5076 45.4797 25.5245 45.4585 25.5311L45.4837 25.5663C45.4955 25.5823 45.5088 25.5973 45.5176 25.6025V25.6075H45.4877C45.4733 25.6075 45.4607 25.5772 45.4324 25.5366H45.4154V25.5877C45.4154 25.5979 45.4189 25.5972 45.4379 25.5999V25.6075L45.3636 25.6075ZM45.4154 25.5265H45.4335C45.4533 25.5265 45.4626 25.5114 45.4626 25.4872C45.4626 25.4627 45.4483 25.4541 45.4325 25.4541H45.4154V25.5265Z" fill="white"/>
</svg>
