<svg width="47" height="32" viewBox="0 0 47 32" fill="none" xmlns="http://www.w3.org/2000/svg">
<rect width="46.3448" height="32" rx="4" fill="#00D632"/>
<path d="M9.33642 20.9684C9.2894 20.9969 9.23343 21.0068 9.17948 20.9962C9.12553 20.9855 9.0775 20.9551 9.04483 20.9109C8.88422 20.6803 8.66871 20.4934 8.41776 20.367C8.16681 20.2405 7.88832 20.1786 7.60744 20.1867C6.5123 20.1867 5.84011 21.0533 5.84011 22.2908C5.84011 23.5283 6.52462 24.4113 7.61975 24.4113C7.90439 24.4181 8.18604 24.3522 8.43806 24.2197C8.69007 24.0872 8.9041 23.8926 9.05989 23.6543C9.09102 23.6095 9.13785 23.578 9.1911 23.5661C9.24435 23.5542 9.30012 23.5627 9.34739 23.59L9.8676 23.8911C9.89601 23.9055 9.92098 23.9259 9.94082 23.9508C9.96065 23.9757 9.97489 24.0046 9.98255 24.0355C9.99021 24.0665 9.99112 24.0987 9.98522 24.13C9.97931 24.1613 9.96673 24.1909 9.94834 24.2169C9.69403 24.5981 9.34709 24.9085 8.94005 25.119C8.53301 25.3294 8.0792 25.4331 7.62114 25.4202C5.87023 25.4202 4.68335 24.1499 4.68335 22.2977C4.68335 20.4455 5.87023 19.1915 7.59512 19.1915C8.04554 19.179 8.49216 19.277 8.89594 19.477C9.29972 19.677 9.64836 19.9728 9.91139 20.3387C9.92948 20.3633 9.94233 20.3914 9.94911 20.4212C9.9559 20.451 9.95649 20.4819 9.95084 20.5119C9.94519 20.542 9.93343 20.5705 9.91628 20.5958C9.89913 20.6211 9.87696 20.6426 9.85115 20.659L9.33642 20.9684Z" fill="white"/>
<path fill-rule="evenodd" clip-rule="evenodd" d="M13.1645 24.8333V25.0852C13.1644 25.1147 13.1704 25.144 13.182 25.1712C13.1936 25.1984 13.2106 25.223 13.232 25.2435C13.2534 25.264 13.2786 25.2799 13.3063 25.2903C13.334 25.3008 13.3635 25.3055 13.3931 25.3042H13.9653C13.9941 25.3042 14.0225 25.2985 14.0491 25.2875C14.0757 25.2765 14.0998 25.2604 14.1202 25.24C14.1405 25.2197 14.1567 25.1956 14.1677 25.169C14.1787 25.1424 14.1843 25.1139 14.1843 25.0852V22.224C14.1843 21.1877 13.4479 20.7593 12.4047 20.7593C11.8183 20.7606 11.2412 20.9054 10.7236 21.1809C10.6742 21.2084 10.6372 21.2539 10.6204 21.308C10.6036 21.362 10.6082 21.4204 10.6333 21.4711L10.8208 21.8626C10.8337 21.8889 10.8518 21.9123 10.8739 21.9314C10.8961 21.9505 10.9219 21.9649 10.9498 21.9737C10.9777 21.9826 11.0071 21.9857 11.0362 21.9828C11.0654 21.9799 11.0936 21.9712 11.1192 21.9571C11.4888 21.7651 11.8979 21.6615 12.3143 21.6546C12.6771 21.6546 13.1056 21.7546 13.1056 22.1255C13.1056 22.5136 12.6369 22.5797 12.0585 22.6614C12.0119 22.6679 11.9653 22.6746 11.9187 22.6813C11.3219 22.7648 10.354 22.951 10.354 24.0365C10.354 24.9086 10.9851 25.4055 11.8941 25.4055C12.5088 25.4055 12.8907 25.1865 13.1645 24.8333ZM12.2673 23.3579C12.613 23.2973 12.9265 23.2423 13.1056 23.107V23.6163C13.1056 24.2816 12.6265 24.5677 12.1131 24.5677C11.6997 24.5677 11.4136 24.3829 11.4136 23.9873C11.4136 23.5574 11.7421 23.452 12.1378 23.3808C12.1813 23.373 12.2245 23.3654 12.2673 23.3579V23.3579Z" fill="white"/>
<path d="M15.1249 24.172C15.1618 24.129 15.2139 24.102 15.2703 24.0967C15.3268 24.0913 15.3831 24.108 15.4274 24.1433C15.7934 24.4197 16.242 24.5644 16.7005 24.554C17.1728 24.554 17.5219 24.402 17.5219 24.0324C17.5219 23.6956 17.2016 23.6286 16.4268 23.493C15.6054 23.3561 14.8196 23.0823 14.8196 22.146C14.8196 21.1699 15.6615 20.7579 16.6211 20.7579C17.2229 20.749 17.8103 20.9417 18.2899 21.3054C18.3133 21.3237 18.3327 21.3466 18.347 21.3727C18.3612 21.3988 18.37 21.4275 18.3729 21.4571C18.3757 21.4867 18.3724 21.5165 18.3634 21.5448C18.3543 21.5731 18.3395 21.5992 18.32 21.6217L18.0462 21.9434C18.0099 21.9865 17.9585 22.0141 17.9024 22.0205C17.8464 22.0269 17.7901 22.0115 17.745 21.9776C17.4077 21.7309 16.9994 21.6002 16.5814 21.6052C16.1776 21.6052 15.8244 21.723 15.8244 22.0419C15.8244 22.3965 16.32 22.4636 16.8169 22.5484C17.8778 22.7333 18.5514 23.0358 18.5514 23.9174C18.5514 24.8428 17.8107 25.415 16.6348 25.415C15.9921 25.4347 15.3627 25.2294 14.8552 24.8346C14.8324 24.816 14.8136 24.793 14.7998 24.767C14.786 24.741 14.7775 24.7125 14.7748 24.6832C14.7722 24.6539 14.7753 24.6244 14.7842 24.5963C14.7931 24.5682 14.8074 24.5422 14.8264 24.5198L15.1249 24.172ZM19.2016 25.0865V19.5148C19.2016 19.4861 19.2073 19.4576 19.2183 19.431C19.2293 19.4044 19.2454 19.3803 19.2657 19.3599C19.2861 19.3396 19.3102 19.3235 19.3368 19.3125C19.3634 19.3014 19.3918 19.2958 19.4206 19.2958H20.0517C20.1727 19.2958 20.2708 19.3938 20.2708 19.5148V21.4177C20.4279 21.208 20.6329 21.0389 20.8686 20.9246C21.1044 20.8103 21.3641 20.7541 21.626 20.7605C22.5597 20.7605 23.1072 21.4259 23.1072 22.3759V25.0865C23.1072 25.1152 23.1015 25.1437 23.0905 25.1703C23.0795 25.1969 23.0634 25.221 23.0431 25.2413C23.0227 25.2617 22.9986 25.2778 22.972 25.2888C22.9454 25.2998 22.917 25.3055 22.8882 25.3055H22.2571C22.199 25.3055 22.1433 25.2824 22.1022 25.2413C22.0611 25.2003 22.038 25.1446 22.038 25.0865V22.6223C22.038 22.1501 21.8861 21.7216 21.281 21.7216C20.7075 21.7216 20.2708 22.1255 20.2708 22.7989V25.0878C20.2708 25.1459 20.2477 25.2016 20.2066 25.2427C20.1655 25.2838 20.1098 25.3069 20.0517 25.3069H19.4206C19.3917 25.307 19.363 25.3014 19.3363 25.2904C19.3095 25.2794 19.2853 25.2631 19.2649 25.2426C19.2445 25.2221 19.2284 25.1977 19.2175 25.1709C19.2067 25.1441 19.2012 25.1154 19.2016 25.0865V25.0865Z" fill="white"/>
<path fill-rule="evenodd" clip-rule="evenodd" d="M29.5968 23.8136L30.0513 25.1552C30.065 25.1989 30.092 25.2372 30.1286 25.2647C30.1651 25.2922 30.2094 25.3075 30.2551 25.3086H31.037C31.0723 25.3087 31.1071 25.3003 31.1384 25.2841C31.1698 25.2679 31.1967 25.2443 31.2169 25.2154C31.2373 25.1865 31.2504 25.1531 31.255 25.1181C31.2597 25.0831 31.2557 25.0474 31.2436 25.0142L29.1833 19.4426C29.1675 19.4005 29.1393 19.3643 29.1024 19.3386C29.0655 19.3129 29.0217 19.2991 28.9767 19.2988H27.9651C27.921 19.2983 27.8779 19.3111 27.8412 19.3355C27.8046 19.36 27.7761 19.3949 27.7597 19.4358L25.6911 25.0088C25.679 25.0418 25.675 25.0773 25.6796 25.1122C25.6841 25.1472 25.697 25.1805 25.7171 25.2094C25.7373 25.2382 25.7641 25.2618 25.7953 25.2781C25.8265 25.2945 25.8612 25.303 25.8964 25.3031H26.6369C26.6825 25.3032 26.727 25.289 26.7642 25.2625C26.8013 25.236 26.8292 25.1985 26.8438 25.1552L27.2994 23.8136H29.5968ZM27.5763 22.8787L28.4605 20.2695L29.3107 22.8787H27.5763ZM32.8301 21.4235V21.0785C32.8317 21.0488 32.8272 21.0191 32.8168 20.9913C32.8064 20.9634 32.7905 20.938 32.7699 20.9165C32.7494 20.895 32.7248 20.8779 32.6975 20.8662C32.6703 20.8545 32.6409 20.8485 32.6112 20.8486H31.9799C31.8591 20.8486 31.761 20.9466 31.761 21.0676V26.5434C31.761 26.6643 31.8591 26.7624 31.9799 26.7624H32.6112C32.7321 26.7624 32.8301 26.6643 32.8301 26.5434V24.7268C32.9846 24.9438 33.1906 25.1189 33.4296 25.2365C33.6686 25.3541 33.9331 25.4104 34.1993 25.4003C35.4105 25.4003 36.1936 24.3859 36.1936 23.0731C36.1936 21.7603 35.4105 20.7582 34.1993 20.7582C33.9339 20.7474 33.67 20.8026 33.4311 20.9187C33.1921 21.0347 32.9857 21.2082 32.8301 21.4235V21.4235ZM35.0696 23.0731C35.0696 23.8384 34.7152 24.4708 33.9746 24.4708C33.2205 24.4708 32.8301 23.8397 32.8301 23.0731C32.8301 22.3064 33.241 21.6918 33.9746 21.6918C34.7082 21.6918 35.0696 22.3078 35.0696 23.0731ZM37.9226 21.4234V21.0784C37.9243 21.0487 37.9199 21.019 37.9097 20.9911C37.8995 20.9631 37.8836 20.9376 37.8631 20.916C37.8426 20.8945 37.8178 20.8774 37.7904 20.8657C37.763 20.8541 37.7335 20.8482 37.7037 20.8485H37.0724C37.0143 20.8485 36.9586 20.8716 36.9176 20.9126C36.8765 20.9537 36.8535 21.0094 36.8535 21.0675V26.5434C36.8535 26.6643 36.9515 26.7623 37.0724 26.7623H37.7037C37.8245 26.7623 37.9226 26.6643 37.9226 26.5433V24.7267C38.0773 24.9435 38.2833 25.1185 38.5223 25.2361C38.7612 25.3536 39.0256 25.41 39.2918 25.4002C40.5046 25.4002 41.2876 24.3858 41.2876 23.073C41.2876 21.7602 40.5046 20.7581 39.2918 20.7581C39.0264 20.7476 38.7626 20.8029 38.5237 20.9189C38.2848 21.035 38.0783 21.2083 37.9226 21.4234V21.4234ZM40.1636 23.073C40.1636 23.8383 39.8092 24.4707 39.0686 24.4707C38.3184 24.4707 37.9226 23.8396 37.9226 23.073C37.9226 22.3064 38.3346 21.6918 39.0686 21.6918C39.8022 21.6918 40.1636 22.3078 40.1636 23.073Z" fill="white"/>
<path fill-rule="evenodd" clip-rule="evenodd" d="M24.7877 5.35242C25.9815 5.35242 26.5687 5.35242 27.2135 5.55501C27.5595 5.68031 27.8738 5.88015 28.134 6.14037C28.3942 6.40059 28.5941 6.71484 28.7194 7.06086C28.922 7.70019 28.922 8.29295 28.922 9.48118V13.0569C28.922 14.2438 28.922 14.8365 28.7194 15.4772C28.5941 15.8232 28.3942 16.1375 28.134 16.3977C27.8738 16.6579 27.5595 16.8577 27.2135 16.9831C26.5742 17.1856 25.9815 17.1856 24.7932 17.1856H21.2065C20.0197 17.1856 19.4269 17.1856 18.7862 16.9831C18.4402 16.8577 18.1259 16.6579 17.8657 16.3977C17.6055 16.1375 17.4057 15.8232 17.2804 15.4772C17.0833 14.8379 17.0833 14.2506 17.0833 13.0569V9.47574C17.0833 8.28882 17.0833 7.69614 17.2858 7.05538C17.4111 6.70935 17.611 6.39511 17.8712 6.13488C18.1314 5.87466 18.4457 5.67483 18.7917 5.54953C19.4255 5.35242 20.0197 5.35242 21.2066 5.35242H24.7877Z" fill="white"/>
<path d="M23.2989 9.231C23.8805 9.2319 24.443 9.43847 24.8869 9.81415C24.9327 9.85569 24.9927 9.87813 25.0546 9.87686C25.1164 9.87559 25.1754 9.85071 25.2195 9.80732L25.6768 9.34873C25.6997 9.32598 25.7177 9.29874 25.7296 9.2687C25.7414 9.23866 25.747 9.20649 25.7458 9.17421C25.7447 9.14193 25.7368 9.11024 25.7228 9.08113C25.7088 9.05203 25.6889 9.02613 25.6644 9.00509C25.3053 8.69962 24.8901 8.46713 24.442 8.32066L24.5789 7.64573C24.586 7.61105 24.5853 7.57522 24.5768 7.54084C24.5683 7.50647 24.5523 7.47442 24.5299 7.44702C24.5074 7.41962 24.4792 7.39756 24.4472 7.38244C24.4152 7.36732 24.3802 7.35953 24.3448 7.35962H23.4646C23.41 7.35957 23.3571 7.37813 23.3145 7.41223C23.2719 7.44634 23.2423 7.49395 23.2305 7.54719L23.1072 8.15089C21.9354 8.20842 20.9416 8.78882 20.9416 9.97845C20.9416 11.0065 21.7629 11.4487 22.6309 11.7581C23.4522 12.0634 23.8875 12.177 23.8875 12.6068C23.8875 13.0367 23.4536 13.3077 22.8143 13.3077C22.1939 13.3176 21.5945 13.0831 21.1455 12.6548C21.101 12.611 21.041 12.5864 20.9785 12.5864C20.916 12.5864 20.8561 12.611 20.8115 12.6548L20.3214 13.1339C20.2985 13.1559 20.2803 13.1824 20.2679 13.2117C20.2554 13.241 20.249 13.2725 20.249 13.3043C20.249 13.3361 20.2554 13.3676 20.2679 13.3969C20.2803 13.4262 20.2985 13.4526 20.3214 13.4747C20.7207 13.8487 21.2081 14.1157 21.7383 14.2509L21.6014 14.8765C21.5942 14.9115 21.5947 14.9476 21.6029 14.9823C21.6112 15.0171 21.627 15.0495 21.6492 15.0775C21.6714 15.1054 21.6995 15.1282 21.7314 15.1441C21.7634 15.16 21.7984 15.1687 21.8341 15.1695H22.7171C22.772 15.1698 22.8254 15.1512 22.8683 15.1168C22.9112 15.0824 22.9409 15.0343 22.9526 14.9806L23.0799 14.3878C24.4844 14.3016 25.3427 13.546 25.3427 12.4398C25.3427 11.4213 24.4871 10.9915 23.4481 10.641C22.854 10.4179 22.3406 10.2714 22.3406 9.8306C22.3406 9.38981 22.8197 9.231 23.2989 9.231V9.231Z" fill="#00D632"/>
</svg>
