<svg width="47" height="32" viewBox="0 0 47 32" fill="none" xmlns="http://www.w3.org/2000/svg">
<rect width="46.3448" height="32" rx="4" fill="#00D632"/>
<path d="M23.8103 10.7923C25.2996 10.7946 26.74 11.3236 27.8769 12.2857C27.9942 12.3921 28.1479 12.4495 28.3062 12.4463C28.4646 12.443 28.6158 12.3793 28.7287 12.2682L29.8996 11.0938C29.9583 11.0356 30.0044 10.9658 30.0348 10.8889C30.0653 10.8119 30.0794 10.7296 30.0765 10.6469C30.0735 10.5642 30.0535 10.4831 30.0176 10.4085C29.9817 10.334 29.9308 10.2677 29.8681 10.2138C28.9484 9.43153 27.8851 8.83618 26.7375 8.46108L27.0881 6.73269C27.1063 6.64387 27.1045 6.55211 27.0827 6.46409C27.061 6.37606 27.02 6.29398 26.9625 6.22382C26.9051 6.15365 26.8328 6.09715 26.7508 6.05844C26.6688 6.01972 26.5793 5.99976 26.4886 6H24.2345C24.0948 5.99987 23.9593 6.0474 23.8502 6.13474C23.7412 6.22208 23.6653 6.344 23.635 6.48035L23.3195 8.02631C20.3186 8.17364 17.7735 9.65998 17.7735 12.7064C17.7735 15.3391 19.8769 16.4715 22.0995 17.2638C24.2028 18.0455 25.3177 18.3366 25.3177 19.4373C25.3177 20.5381 24.2064 21.2322 22.5693 21.2322C20.9805 21.2576 19.4455 20.657 18.2959 19.5602C18.1818 19.448 18.0282 19.3851 17.8682 19.3851C17.7081 19.3851 17.5545 19.448 17.4405 19.5602L16.1854 20.7869C16.1268 20.8435 16.0801 20.9113 16.0483 20.9863C16.0164 21.0613 16 21.1419 16 21.2234C16 21.3049 16.0164 21.3855 16.0483 21.4605C16.0801 21.5355 16.1268 21.6033 16.1854 21.6598C17.208 22.6176 18.4561 23.3014 19.8137 23.6476L19.4632 25.2497C19.4447 25.3392 19.446 25.4317 19.4672 25.5206C19.4883 25.6095 19.5288 25.6927 19.5856 25.7643C19.6425 25.8359 19.7143 25.8941 19.7962 25.9348C19.878 25.9755 19.9678 25.9978 20.0591 26H22.3203C22.4611 26.0007 22.5978 25.9531 22.7076 25.865C22.8174 25.7769 22.8936 25.6538 22.9234 25.5162L23.2494 23.9982C26.8461 23.7773 29.0442 21.8423 29.0442 19.0096C29.0442 16.4014 26.8532 15.3007 24.1924 14.4032C22.6709 13.8317 21.3562 13.4566 21.3562 12.3278C21.3562 11.199 22.5832 10.7923 23.8103 10.7923V10.7923Z" fill="white"/>
</svg>
