<svg width="48" height="32" viewBox="0 0 48 32" fill="none" xmlns="http://www.w3.org/2000/svg">
<rect x="0.5" y="0.5" width="47" height="31" rx="3.5" fill="#FAFAFA" stroke="#E0E0E0"/>
<path d="M22.7896 15.8397V19.9434H21.4787V9.80899H24.9555C25.3706 9.80038 25.7832 9.87348 26.1696 10.0241C26.556 10.1746 26.9086 10.3997 27.207 10.6863C27.5083 10.9555 27.7482 11.2857 27.9104 11.6546C28.0726 12.0235 28.1534 12.4226 28.1474 12.8251C28.156 13.2298 28.0765 13.6315 27.9141 14.0028C27.7518 14.374 27.5106 14.7061 27.207 14.9761C26.599 15.5518 25.8485 15.8394 24.9555 15.8389L22.7896 15.8397ZM22.7896 11.0567V14.5944H24.9881C25.2291 14.6015 25.469 14.5586 25.6923 14.4683C25.9157 14.3781 26.1176 14.2426 26.2852 14.0704C26.4519 13.9094 26.5845 13.7169 26.675 13.5042C26.7654 13.2915 26.8121 13.0629 26.8121 12.832C26.8121 12.6011 26.7654 12.3725 26.675 12.1598C26.5845 11.9471 26.4519 11.7546 26.2852 11.5936C26.1197 11.4178 25.9185 11.279 25.6949 11.1863C25.4713 11.0936 25.2303 11.0491 24.9881 11.0559L22.7896 11.0567Z" fill="#5F6368"/>
<path d="M31.1684 12.7831C32.1374 12.7831 32.9022 13.0402 33.463 13.5545C34.0237 14.0688 34.3038 14.7739 34.3033 15.6698V19.9434H33.0494V18.9811H32.9924C32.4495 19.7736 31.7275 20.1698 30.8264 20.1698C30.0572 20.1698 29.4137 19.9434 28.8958 19.4906C28.6473 19.2827 28.4486 19.0224 28.3142 18.7287C28.1799 18.4349 28.1132 18.1151 28.119 17.7925C28.119 17.075 28.3921 16.5043 28.9382 16.0806C29.4843 15.6569 30.2133 15.4445 31.1253 15.4434C31.9037 15.4434 32.5448 15.5849 33.0485 15.868V15.5704C33.05 15.3505 33.0022 15.133 32.9085 14.9337C32.8149 14.7344 32.6777 14.5582 32.5071 14.4181C32.1604 14.1075 31.7086 13.938 31.2417 13.9434C30.5094 13.9434 29.9299 14.2502 29.5033 14.8637L28.3487 14.1416C28.9838 13.2359 29.9237 12.7831 31.1684 12.7831ZM29.4723 17.8208C29.4715 17.9865 29.5105 18.15 29.5861 18.2976C29.6617 18.4453 29.7718 18.5729 29.9071 18.6698C30.1971 18.8963 30.557 19.0163 30.9258 19.0094C31.479 19.0085 32.0093 18.7899 32.4004 18.4014C32.8347 17.9954 33.0518 17.5192 33.0518 16.9725C32.643 16.6491 32.0731 16.4874 31.3419 16.4874C30.8093 16.4874 30.3653 16.6149 30.0097 16.8698C29.6507 17.1286 29.4723 17.4431 29.4723 17.8208Z" fill="#5F6368"/>
<path d="M41.5011 13.0095L37.1237 23H35.7704L37.3948 19.5043L34.5164 13.0095H35.9414L38.0218 17.9906H38.0503L40.0737 13.0095H41.5011Z" fill="#5F6368"/>
<path d="M17.4921 14.955C17.4926 14.5583 17.4588 14.1622 17.3911 13.7712H11.8623V16.0135H15.029C14.9642 16.3717 14.827 16.713 14.6258 17.0171C14.4245 17.3212 14.1634 17.5816 13.8581 17.7828V19.2383H15.7479C16.8545 18.2251 17.4921 16.7267 17.4921 14.955Z" fill="#4285F4"/>
<path d="M11.8624 20.6445C13.4444 20.6445 14.7765 20.1278 15.7479 19.2383L13.8581 17.7828C13.3321 18.137 12.6546 18.34 11.8624 18.34C10.3332 18.34 9.03527 17.3163 8.57114 15.9368H6.62426V17.4367C7.11222 18.401 7.86044 19.2116 8.7854 19.778C9.71037 20.3445 10.7757 20.6445 11.8624 20.6445Z" fill="#34A853"/>
<path d="M8.57114 15.9368C8.32577 15.2139 8.32578 14.4311 8.57114 13.7082V12.2082H6.62427C6.21378 13.0194 6 13.9146 6 14.8225C6 15.7303 6.21378 16.6256 6.62426 17.4367L8.57114 15.9368Z" fill="#FBBC04"/>
<path d="M11.8624 11.3049C12.6984 11.2914 13.5063 11.6051 14.1113 12.1783L15.7846 10.5165C14.7236 9.52685 13.3179 8.9835 11.8624 9.00038C10.7757 9.00043 9.71037 9.30042 8.7854 9.86687C7.86044 10.4333 7.11222 11.2439 6.62427 12.2082L8.57114 13.7082C9.03527 12.3287 10.3332 11.3049 11.8624 11.3049Z" fill="#EA4335"/>
</svg>
