<svg width="48" height="32" viewBox="0 0 48 32" fill="none" xmlns="http://www.w3.org/2000/svg">
<rect x="0.5" y="0.5" width="47" height="31" rx="3.5" fill="white"/>
<path d="M21.3333 21.9001H18.093L20.1197 10.1378H23.3598L21.3333 21.9001Z" fill="#172B85"/>
<path d="M33.0793 10.4253C32.4402 10.1873 31.4265 9.92456 30.1731 9.92456C26.9732 9.92456 24.7198 11.5262 24.706 13.816C24.6794 15.5054 26.3193 16.4437 27.5459 17.007C28.7995 17.5826 29.2256 17.9583 29.2256 18.4714C29.2129 19.2594 28.2126 19.6226 27.2797 19.6226C25.986 19.6226 25.2929 19.4354 24.2395 18.997L23.8128 18.809L23.3594 21.4494C24.1193 21.7744 25.5195 22.0628 26.9732 22.0754C30.3731 22.0754 32.5866 20.4986 32.6128 18.0585C32.6257 16.7195 31.7598 15.6935 29.8929 14.8551C28.7596 14.3169 28.0656 13.954 28.0656 13.4033C28.0788 12.9027 28.6526 12.39 29.9319 12.39C30.9853 12.3649 31.7593 12.6025 32.3456 12.8404L32.6387 12.9653L33.0793 10.4253V10.4253V10.4253Z" fill="#172B85"/>
<path fill-rule="evenodd" clip-rule="evenodd" d="M38.8797 10.1378H41.386L44.0001 21.9H40.9999C40.9999 21.9 40.7063 20.5485 40.6133 20.1356H36.453C36.3327 20.4482 35.773 21.9 35.773 21.9H32.373L37.1861 11.1137C37.5195 10.3503 38.1067 10.1378 38.8797 10.1378ZM38.6799 14.4421C38.6799 14.4421 37.6531 17.0574 37.3862 17.7331H40.0795C39.9463 17.145 39.3327 14.3295 39.3327 14.3295L39.1062 13.316C39.0109 13.577 38.873 13.9358 38.7799 14.1778C38.7169 14.3419 38.6745 14.4523 38.6799 14.4421Z" fill="#172B85"/>
<path fill-rule="evenodd" clip-rule="evenodd" d="M12.2133 18.1586L15.3866 10.1378H18.8129L13.7198 21.8877H10.2933L7.40521 11.6672C6.40875 11.1204 5.27151 10.6806 4 10.3754L4.05333 10.1378H9.26663C9.97326 10.1626 10.5467 10.3753 10.7332 11.1265L11.8662 16.5308C11.8663 16.5312 11.8664 16.5315 11.8665 16.5319L12.2133 18.1586Z" fill="#172B85"/>
<rect x="0.5" y="0.5" width="47" height="31" rx="3.5" stroke="#E0E0E0"/>
</svg>
