<svg width="145" height="64" viewBox="0 0 145 64" fill="none" xmlns="http://www.w3.org/2000/svg">
<rect x="0.5" y="0.5" width="144" height="63" rx="3.5" fill="#FAFAFA"/>
<path fill-rule="evenodd" clip-rule="evenodd" d="M61.818 10.318C60.9741 11.1619 60.5 12.3065 60.5 13.5V25.5C60.5 26.6935 60.9741 27.8381 61.818 28.682C62.6619 29.5259 63.8065 30 65 30H70.4C69.6067 28.4472 69.3259 26.6829 69.5978 24.9606C69.8696 23.2382 70.6803 21.6462 71.9132 20.4132C73.1462 19.1803 74.7382 18.3696 76.4606 18.0978C78.1829 17.8259 79.9472 18.1067 81.5 18.9V13.5C81.5 12.3065 81.0259 11.1619 80.182 10.318C79.3381 9.47411 78.1935 9 77 9H65C63.8065 9 62.6619 9.47411 61.818 10.318ZM69.7874 13.9309C69.8786 13.9687 69.9613 14.0242 70.031 14.094H70.0295C70.1701 14.2346 70.2491 14.4254 70.2491 14.6242C70.2491 14.8231 70.1701 15.0139 70.0295 15.1545L67.4045 17.7795C67.2681 17.9157 67.0845 17.9943 66.8918 17.9987C66.6991 18.0032 66.512 17.9333 66.3695 17.8035L65.2445 16.776C65.1052 16.6401 65.0241 16.4553 65.0185 16.2608C65.0129 16.0662 65.0831 15.8771 65.2144 15.7333C65.3457 15.5896 65.5277 15.5026 65.7219 15.4905C65.9162 15.4785 66.1075 15.5425 66.2555 15.669L66.851 16.212L68.969 14.094C69.0387 14.0242 69.1214 13.9687 69.2126 13.9309C69.3037 13.8931 69.4013 13.8737 69.5 13.8737C69.5987 13.8737 69.6963 13.8931 69.7874 13.9309ZM70.2509 22.125C70.2509 22.3242 70.1718 22.5152 70.031 22.656H70.0295L67.4045 25.281C67.2679 25.417 67.0842 25.4953 66.8915 25.4995C66.6988 25.5037 66.5119 25.4335 66.3695 25.3035L65.2445 24.276C65.1052 24.1401 65.0241 23.9553 65.0185 23.7608C65.0129 23.5662 65.0831 23.3771 65.2144 23.2333C65.3457 23.0896 65.5277 23.0026 65.7219 22.9906C65.9162 22.9785 66.1075 23.0425 66.2555 23.169L66.851 23.712L68.969 21.594C69.1098 21.4532 69.3008 21.3741 69.5 21.3741C69.6992 21.3741 69.8902 21.4532 70.031 21.594C70.1718 21.7348 70.2509 21.9258 70.2509 22.125ZM71.9697 15.2197C72.1103 15.079 72.3011 15 72.5 15H76.25C76.4489 15 76.6397 15.079 76.7803 15.2197C76.921 15.3603 77 15.5511 77 15.75C77 15.9489 76.921 16.1397 76.7803 16.2803C76.6397 16.421 76.4489 16.5 76.25 16.5H72.5C72.3011 16.5 72.1103 16.421 71.9697 16.2803C71.829 16.1397 71.75 15.9489 71.75 15.75C71.75 15.5511 71.829 15.3603 71.9697 15.2197Z" fill="#21105D"/>
<path fill-rule="evenodd" clip-rule="evenodd" d="M82.523 21.477C83.7888 22.7429 84.5 24.4598 84.5 26.25C84.5 28.0402 83.7888 29.7571 82.523 31.023C81.2571 32.2888 79.5402 33 77.75 33C75.9598 33 74.2429 32.2888 72.977 31.023C71.7112 29.7571 71 28.0402 71 26.25C71 24.4598 71.7112 22.7429 72.977 21.477C74.2429 20.2112 75.9598 19.5 77.75 19.5C79.5402 19.5 81.2571 20.2112 82.523 21.477ZM80.9765 24.6747L80.6247 26.6041C80.5957 26.7635 80.5117 26.9076 80.3873 27.0114C80.2629 27.1153 80.1061 27.1722 79.9441 27.1722H76.5986L76.7255 27.8644H79.8258C79.9627 27.8644 80.0965 27.905 80.2104 27.981C80.3242 28.0571 80.4129 28.1652 80.4653 28.2917C80.5177 28.4181 80.5314 28.5573 80.5047 28.6916C80.478 28.8259 80.4121 28.9492 80.3153 29.046C80.2185 29.1428 80.0951 29.2087 79.9609 29.2354C79.8266 29.2621 79.6874 29.2484 79.561 29.196C79.4345 29.1436 79.3264 29.0549 79.2503 28.9411C79.1743 28.8273 79.1337 28.6934 79.1337 28.5566C79.1337 28.4779 79.1474 28.3998 79.174 28.3258H77.4783C77.5049 28.3998 77.5186 28.4779 77.5186 28.5566C77.5188 28.6682 77.492 28.7783 77.4405 28.8774C77.3889 28.9764 77.3142 29.0615 77.2226 29.1255C77.131 29.1894 77.0253 29.2302 76.9146 29.2444C76.8038 29.2586 76.6912 29.2458 76.5865 29.2071C76.4817 29.1683 76.3879 29.1048 76.313 29.022C76.2381 28.9392 76.1844 28.8394 76.1564 28.7313C76.1284 28.6232 76.127 28.5099 76.1523 28.4012C76.1776 28.2924 76.2288 28.1913 76.3016 28.1066L75.5027 23.7114H74.9807C74.9195 23.7114 74.8608 23.6871 74.8176 23.6439C74.7743 23.6006 74.75 23.5419 74.75 23.4807C74.75 23.4195 74.7743 23.3608 74.8176 23.3176C74.8608 23.2743 74.9195 23.25 74.9807 23.25H75.5027C75.6104 23.2502 75.7146 23.2881 75.7973 23.3571C75.88 23.4261 75.936 23.5219 75.9555 23.6278L76.0968 24.4036H80.7487C80.7824 24.4037 80.8156 24.4112 80.8461 24.4257C80.8765 24.4401 80.9033 24.4612 80.9246 24.4872C80.9469 24.5125 80.9632 24.5425 80.9722 24.575C80.9812 24.6075 80.9827 24.6416 80.9765 24.6747Z" fill="#21105D"/>
<path d="M16.7585 50V41.2727H20.2017C20.8636 41.2727 21.4276 41.3991 21.8935 41.652C22.3594 41.902 22.7145 42.25 22.9588 42.696C23.206 43.1392 23.3295 43.6506 23.3295 44.2301C23.3295 44.8097 23.2045 45.321 22.9545 45.7642C22.7045 46.2074 22.3423 46.5526 21.8679 46.7997C21.3963 47.0469 20.8253 47.1705 20.1548 47.1705H17.9602V45.6918H19.8565C20.2116 45.6918 20.5043 45.6307 20.7344 45.5085C20.9673 45.3835 21.1406 45.2116 21.2543 44.9929C21.3707 44.7713 21.429 44.517 21.429 44.2301C21.429 43.9403 21.3707 43.6875 21.2543 43.4716C21.1406 43.2528 20.9673 43.0838 20.7344 42.9645C20.5014 42.8423 20.206 42.7812 19.848 42.7812H18.6037V50H16.7585ZM30.1187 41.2727H31.9638V46.9403C31.9638 47.5767 31.8119 48.1335 31.5079 48.6108C31.2067 49.0881 30.7849 49.4602 30.2423 49.7273C29.6996 49.9915 29.0675 50.1236 28.346 50.1236C27.6215 50.1236 26.988 49.9915 26.4454 49.7273C25.9028 49.4602 25.4809 49.0881 25.1798 48.6108C24.8786 48.1335 24.7281 47.5767 24.7281 46.9403V41.2727H26.5732V46.7827C26.5732 47.1151 26.6457 47.4105 26.7906 47.669C26.9383 47.9276 27.1457 48.1307 27.4127 48.2784C27.6798 48.4261 27.9908 48.5 28.346 48.5C28.7039 48.5 29.015 48.4261 29.2792 48.2784C29.5462 48.1307 29.7522 47.9276 29.8971 47.669C30.0448 47.4105 30.1187 47.1151 30.1187 46.7827V41.2727ZM33.682 50V41.2727H37.1251C37.7842 41.2727 38.3467 41.3906 38.8126 41.6264C39.2814 41.8594 39.6379 42.1903 39.8822 42.6193C40.1294 43.0455 40.253 43.5469 40.253 44.1236C40.253 44.7031 40.128 45.2017 39.878 45.6193C39.628 46.0341 39.2658 46.3523 38.7913 46.5739C38.3197 46.7955 37.7487 46.9062 37.0783 46.9062H34.7729V45.4233H36.78C37.1322 45.4233 37.4249 45.375 37.6578 45.2784C37.8908 45.1818 38.0641 45.0369 38.1777 44.8438C38.2942 44.6506 38.3524 44.4105 38.3524 44.1236C38.3524 43.8338 38.2942 43.5895 38.1777 43.3906C38.0641 43.1918 37.8893 43.0412 37.6536 42.9389C37.4206 42.8338 37.1266 42.7812 36.7714 42.7812H35.5271V50H33.682ZM38.395 46.0284L40.5641 50H38.5271L36.405 46.0284H38.395ZM49.4572 44.3281H47.5908C47.5567 44.0866 47.4871 43.8722 47.382 43.6847C47.2768 43.4943 47.1419 43.3324 46.9771 43.1989C46.8124 43.0653 46.622 42.9631 46.4061 42.892C46.193 42.821 45.9615 42.7855 45.7115 42.7855C45.2598 42.7855 44.8663 42.8977 44.5311 43.1222C44.1959 43.3437 43.9359 43.6676 43.7513 44.0938C43.5666 44.517 43.4743 45.0312 43.4743 45.6364C43.4743 46.2585 43.5666 46.7812 43.7513 47.2045C43.9388 47.6278 44.2001 47.9474 44.5354 48.1634C44.8706 48.3793 45.2584 48.4872 45.6987 48.4872C45.9459 48.4872 46.1746 48.4545 46.3848 48.3892C46.5979 48.3239 46.7868 48.2287 46.9516 48.1037C47.1163 47.9759 47.2527 47.821 47.3607 47.6392C47.4714 47.4574 47.5482 47.25 47.5908 47.017L49.4572 47.0256C49.4089 47.4261 49.2882 47.8125 49.095 48.1847C48.9047 48.554 48.6476 48.8849 48.3237 49.1776C48.0027 49.4673 47.6192 49.6974 47.1732 49.8679C46.73 50.0355 46.2286 50.1193 45.6689 50.1193C44.8905 50.1193 44.1945 49.9432 43.5808 49.5909C42.97 49.2386 42.4871 48.7287 42.132 48.0611C41.7797 47.3935 41.6036 46.5852 41.6036 45.6364C41.6036 44.6847 41.7825 43.875 42.1405 43.2074C42.4984 42.5398 42.9842 42.0312 43.5979 41.6818C44.2115 41.3295 44.9018 41.1534 45.6689 41.1534C46.1746 41.1534 46.6433 41.2244 47.0751 41.3665C47.5098 41.5085 47.8947 41.7159 48.23 41.9886C48.5652 42.2585 48.8379 42.5895 49.0482 42.9815C49.2612 43.3736 49.3976 43.8224 49.4572 44.3281ZM50.9804 50V41.2727H52.8256V44.8736H56.5713V41.2727H58.4122V50H56.5713V46.3949H52.8256V50H50.9804ZM61.6378 50H59.6605L62.6733 41.2727H65.0511L68.0597 50H66.0824L63.8963 43.267H63.8281L61.6378 50ZM61.5142 46.5696H66.1847V48.0099H61.5142V46.5696ZM73.8452 43.7827C73.8112 43.4389 73.6648 43.1719 73.4063 42.9815C73.1478 42.7912 72.7969 42.696 72.3538 42.696C72.0526 42.696 71.7984 42.7386 71.591 42.8239C71.3836 42.9062 71.2245 43.0213 71.1137 43.169C71.0058 43.3168 70.9518 43.4844 70.9518 43.6719C70.9461 43.8281 70.9788 43.9645 71.0498 44.081C71.1237 44.1974 71.2245 44.2983 71.3523 44.3835C71.4802 44.4659 71.6279 44.5384 71.7955 44.6009C71.9631 44.6605 72.1421 44.7116 72.3325 44.7543L73.1165 44.9418C73.4972 45.027 73.8467 45.1406 74.1648 45.2827C74.483 45.4247 74.7586 45.5994 74.9915 45.8068C75.2245 46.0142 75.4049 46.2585 75.5327 46.5398C75.6634 46.821 75.7302 47.1435 75.733 47.5071C75.7302 48.0412 75.5938 48.5043 75.3239 48.8963C75.0569 49.2855 74.6705 49.5881 74.1648 49.804C73.662 50.017 73.0555 50.1236 72.3452 50.1236C71.6407 50.1236 71.0271 50.0156 70.5043 49.7997C69.9844 49.5838 69.5782 49.2642 69.2856 48.8409C68.9958 48.4148 68.8438 47.8878 68.8296 47.2599H70.6151C70.635 47.5526 70.7188 47.7969 70.8665 47.9929C71.0171 48.1861 71.2174 48.3324 71.4674 48.4318C71.7202 48.5284 72.0058 48.5767 72.3239 48.5767C72.6364 48.5767 72.9077 48.5312 73.1379 48.4403C73.3708 48.3494 73.5512 48.223 73.679 48.0611C73.8069 47.8991 73.8708 47.7131 73.8708 47.5028C73.8708 47.3068 73.8126 47.142 73.6961 47.0085C73.5825 46.875 73.4148 46.7614 73.1933 46.6676C72.9745 46.5739 72.706 46.4886 72.3879 46.4119L71.4376 46.1733C70.7018 45.9943 70.1208 45.7145 69.6947 45.3338C69.2685 44.9531 69.0569 44.4403 69.0597 43.7955C69.0569 43.267 69.1975 42.8054 69.4816 42.4105C69.7685 42.0156 70.162 41.7074 70.662 41.4858C71.162 41.2642 71.7302 41.1534 72.3665 41.1534C73.0143 41.1534 73.5796 41.2642 74.0626 41.4858C74.5484 41.7074 74.9262 42.0156 75.1961 42.4105C75.466 42.8054 75.6052 43.2628 75.6137 43.7827H73.8452ZM77.1741 50V41.2727H83.0548V42.794H79.0193V44.8736H82.7523V46.3949H79.0193V48.4787H83.0719V50H77.1741ZM95.719 45.6364C95.719 46.5881 95.5386 47.3977 95.1778 48.0653C94.8199 48.733 94.3313 49.2429 93.7119 49.5952C93.0955 49.9446 92.4023 50.1193 91.6324 50.1193C90.8568 50.1193 90.1608 49.9432 89.5443 49.5909C88.9278 49.2386 88.4406 48.7287 88.0827 48.0611C87.7247 47.3935 87.5457 46.5852 87.5457 45.6364C87.5457 44.6847 87.7247 43.875 88.0827 43.2074C88.4406 42.5398 88.9278 42.0312 89.5443 41.6818C90.1608 41.3295 90.8568 41.1534 91.6324 41.1534C92.4023 41.1534 93.0955 41.3295 93.7119 41.6818C94.3313 42.0312 94.8199 42.5398 95.1778 43.2074C95.5386 43.875 95.719 44.6847 95.719 45.6364ZM93.8483 45.6364C93.8483 45.0199 93.756 44.5 93.5713 44.0767C93.3895 43.6534 93.1324 43.3324 92.8 43.1136C92.4676 42.8949 92.0784 42.7855 91.6324 42.7855C91.1864 42.7855 90.7972 42.8949 90.4648 43.1136C90.1324 43.3324 89.8739 43.6534 89.6892 44.0767C89.5074 44.5 89.4165 45.0199 89.4165 45.6364C89.4165 46.2528 89.5074 46.7727 89.6892 47.196C89.8739 47.6193 90.1324 47.9403 90.4648 48.1591C90.7972 48.3778 91.1864 48.4872 91.6324 48.4872C92.0784 48.4872 92.4676 48.3778 92.8 48.1591C93.1324 47.9403 93.3895 47.6193 93.5713 47.196C93.756 46.7727 93.8483 46.2528 93.8483 45.6364ZM97.2859 50V41.2727H100.729C101.388 41.2727 101.951 41.3906 102.417 41.6264C102.885 41.8594 103.242 42.1903 103.486 42.6193C103.733 43.0455 103.857 43.5469 103.857 44.1236C103.857 44.7031 103.732 45.2017 103.482 45.6193C103.232 46.0341 102.87 46.3523 102.395 46.5739C101.924 46.7955 101.353 46.9062 100.682 46.9062H98.3768V45.4233H100.384C100.736 45.4233 101.029 45.375 101.262 45.2784C101.495 45.1818 101.668 45.0369 101.782 44.8438C101.898 44.6506 101.956 44.4105 101.956 44.1236C101.956 43.8338 101.898 43.5895 101.782 43.3906C101.668 43.1918 101.493 43.0412 101.257 42.9389C101.025 42.8338 100.73 42.7812 100.375 42.7812H99.131V50H97.2859ZM101.999 46.0284L104.168 50H102.131L100.009 46.0284H101.999ZM108.455 50H105.361V41.2727H108.48C109.358 41.2727 110.114 41.4474 110.747 41.7969C111.381 42.1435 111.868 42.642 112.209 43.2926C112.553 43.9432 112.725 44.7216 112.725 45.6278C112.725 46.5369 112.553 47.3182 112.209 47.9716C111.868 48.625 111.378 49.1264 110.739 49.4759C110.102 49.8253 109.341 50 108.455 50ZM107.206 48.419H108.378C108.923 48.419 109.382 48.3224 109.754 48.1293C110.129 47.9332 110.411 47.6307 110.598 47.2216C110.788 46.8097 110.884 46.2784 110.884 45.6278C110.884 44.983 110.788 44.456 110.598 44.0469C110.411 43.6378 110.131 43.3366 109.759 43.1435C109.386 42.9503 108.928 42.8537 108.382 42.8537H107.206V48.419ZM114.291 50V41.2727H120.172V42.794H116.137V44.8736H119.869V46.3949H116.137V48.4787H120.189V50H114.291ZM121.839 50V41.2727H125.282C125.941 41.2727 126.504 41.3906 126.97 41.6264C127.438 41.8594 127.795 42.1903 128.039 42.6193C128.286 43.0455 128.41 43.5469 128.41 44.1236C128.41 44.7031 128.285 45.2017 128.035 45.6193C127.785 46.0341 127.423 46.3523 126.948 46.5739C126.477 46.7955 125.906 46.9062 125.235 46.9062H122.93V45.4233H124.937C125.289 45.4233 125.582 45.375 125.815 45.2784C126.048 45.1818 126.221 45.0369 126.335 44.8438C126.451 44.6506 126.509 44.4105 126.509 44.1236C126.509 43.8338 126.451 43.5895 126.335 43.3906C126.221 43.1918 126.046 43.0412 125.811 42.9389C125.578 42.8338 125.284 42.7812 124.928 42.7812H123.684V50H121.839ZM126.552 46.0284L128.721 50H126.684L124.562 46.0284H126.552Z" fill="#21105D"/>
<rect x="0.5" y="0.5" width="144" height="63" rx="3.5" stroke="#E0E0E0"/>
</svg>
