<svg width="96" height="64" viewBox="0 0 96 64" fill="none" xmlns="http://www.w3.org/2000/svg">
<rect width="96" height="64" rx="4" fill="black"/>
<path fill-rule="evenodd" clip-rule="evenodd" d="M38.6787 8H57.3213C58.5624 7.99964 59.7529 8.49241 60.6305 9.36987C61.5082 10.2473 62.0014 11.4376 62.0014 12.6787V31.3199C62.0014 33.9047 59.906 36 57.3213 36H38.6787C36.0945 35.9992 34 33.9042 34 31.3199V12.6787C34 10.0947 36.0947 8 38.6787 8ZM55.4371 30.9097C56.2526 30.9097 56.9138 30.2485 56.9138 29.433L56.9097 14.5683C56.9097 13.7528 56.2485 13.0916 55.433 13.0916H40.5697C40.1778 13.0916 39.802 13.2474 39.525 13.5246C39.2481 13.8019 39.0927 14.1778 39.093 14.5697V29.433C39.093 30.2485 39.7541 30.9097 40.5697 30.9097H55.4371Z" fill="white"/>
<path d="M45.0296 25.7963C44.5641 25.7926 44.1887 25.4142 44.1887 24.9487V19.0147C44.1877 18.7892 44.2765 18.5725 44.4356 18.4127C44.5947 18.2528 44.8109 18.1629 45.0364 18.1629H50.9786C51.204 18.1633 51.4199 18.2533 51.579 18.4131C51.738 18.5729 51.827 18.7893 51.8262 19.0147V24.9473C51.827 25.1727 51.738 25.3891 51.579 25.5489C51.4199 25.7087 51.204 25.7987 50.9786 25.7991L45.0296 25.7963Z" fill="white"/>
<path d="M23.1611 44.068C22.4827 43.883 21.8405 43.7087 21.3418 43.4864C20.4189 43.0739 19.9894 42.5019 19.9894 41.6874C19.9894 40.1478 21.4779 39.4545 22.9601 39.4545C24.3689 39.4545 25.5991 40.0372 26.4253 41.0941L26.4816 41.1664L27.6724 40.235L27.6151 40.1627C26.5167 38.7655 24.8899 38 23.0324 38C21.7959 38 20.6624 38.3339 19.8426 38.941C18.9197 39.6162 18.4327 40.5954 18.4327 41.7639C18.4327 44.4806 20.9909 45.143 23.0473 45.6757C25.1281 46.2244 26.403 46.6411 26.403 48.2275C26.403 49.7894 25.1398 50.7985 23.1855 50.7985C22.219 50.7985 20.4296 50.5423 19.3046 48.8241L19.2525 48.7432L18 49.6502L18.0489 49.7236C19.1122 51.3333 20.9474 52.2573 23.0898 52.2573C25.9999 52.2573 27.9563 50.6145 27.9563 48.1712C27.9563 45.3748 25.2961 44.6507 23.1611 44.068Z" fill="white"/>
<path fill-rule="evenodd" clip-rule="evenodd" d="M37.4492 43.5034V42.033H38.8494V56H37.4492V50.5433C36.6496 51.6395 35.4502 52.2392 34.0403 52.2392C31.378 52.2392 29.5172 50.1074 29.5172 47.0292C29.5172 43.9511 31.3821 41.8022 34.0403 41.8022C35.4407 41.8022 36.64 42.4051 37.4492 43.5034ZM30.9931 47.0122C30.9931 49.8617 32.6251 50.8772 34.153 50.8772L34.1562 50.8782C36.1562 50.8782 37.4492 49.3471 37.4492 47.0122C37.4492 44.6773 36.1541 43.1674 34.153 43.1674C31.8234 43.1674 30.9931 45.1536 30.9931 47.0122Z" fill="white"/>
<path d="M48.1073 42.033V47.5459C48.1073 49.4758 46.7856 50.8772 44.9653 50.8772C43.4534 50.8772 42.7176 49.9798 42.7176 48.135V42.033H41.3173V48.421C41.3173 50.8133 42.6176 52.2413 44.7952 52.2413C46.1519 52.2413 47.3173 51.6661 48.1083 50.6145V52.0138H49.5087V42.033H48.1073Z" fill="white"/>
<path fill-rule="evenodd" clip-rule="evenodd" d="M52.1456 43.0813C53.178 42.2701 54.5794 41.8054 55.9882 41.8054C58.2137 41.8054 59.5416 42.9123 59.5374 44.7687V52.016H58.1361V50.9091C57.4289 51.7947 56.4061 52.2435 55.0898 52.2435C52.9451 52.2435 51.6118 51.0706 51.6118 49.1845C51.6118 46.7315 53.9233 46.3466 54.908 46.1828C55.0685 46.1563 55.2343 46.1308 55.4001 46.1052L55.4063 46.1043C56.7515 45.8972 58.1402 45.6836 58.1402 44.5423C58.1402 43.2504 56.4634 43.1504 55.9499 43.1504C55.043 43.1504 53.7617 43.4194 52.8909 44.1743L52.8112 44.2434L52.0797 43.1334L52.1456 43.0813ZM53.0738 49.1058C53.0738 50.705 54.5794 50.8782 55.2269 50.8782C56.6348 50.8782 58.1424 50.1276 58.1392 48.0181V46.5741C57.4562 47.0055 56.4841 47.1741 55.6169 47.3244L55.6023 47.327L55.1674 47.4046C53.7788 47.6619 53.0738 47.9936 53.0738 49.1058Z" fill="white"/>
<path d="M67.6501 42.2211C67.3173 41.984 66.7931 41.8426 66.2466 41.8426C65.1235 41.8574 64.0727 42.3988 63.4087 43.3046V42.0287H62.0084V52.0085H63.4087V46.6709C63.4087 44.3041 64.7389 43.244 66.0562 43.244C66.4418 43.2388 66.8235 43.3199 67.1738 43.4811L67.2684 43.5311L67.7118 42.2616L67.6501 42.2211Z" fill="white"/>
<path fill-rule="evenodd" clip-rule="evenodd" d="M68.0605 47.0504C68.0605 43.9628 69.9861 41.8054 72.7389 41.8054C75.3906 41.8054 77.2439 43.7203 77.2386 46.4667C77.2378 46.7055 77.2246 46.944 77.1992 47.1812L77.1907 47.2631H69.5352C69.5703 49.4609 70.893 50.8782 72.9227 50.8782C74.086 50.8782 75.0939 50.4051 75.7606 49.5449L75.8212 49.4663L76.8356 50.37L76.7793 50.438C76.1051 51.2599 74.876 52.2403 72.8451 52.2403C69.985 52.2403 68.0605 50.1552 68.0605 47.0504ZM72.7005 43.1494C70.9897 43.1494 69.7766 44.2753 69.5873 46.0287H75.7585C75.6373 44.6188 74.776 43.1494 72.7005 43.1494Z" fill="white"/>
</svg>
