<svg width="48" height="32" viewBox="0 0 48 32" fill="none" xmlns="http://www.w3.org/2000/svg">
<rect x="0.5" y="0.5" width="47" height="31" rx="3.5" fill="#FAFAFA" stroke="#E0E0E0"/>
<path d="M23.5369 7.30974C23.6722 7.21374 23.834 7.16217 23.9998 7.16217C24.1657 7.16217 24.3275 7.21374 24.4627 7.30974L27.9739 9.80093C28.4101 10.1105 28.1917 10.7981 27.6571 10.7993H20.3443C19.8079 10.7993 19.5883 10.1111 20.0263 9.80093L23.5369 7.30974ZM20.7001 11.3999V13.7999H21.9001V11.3999H20.7001ZM19.8001 15.6995C19.8001 14.9813 20.3821 14.3993 21.0997 14.3993H26.8999C27.2447 14.3995 27.5754 14.5365 27.8191 14.7803C28.0629 15.0242 28.2 15.3548 28.2001 15.6995V15.8993C28.2001 15.9789 28.1685 16.0552 28.1123 16.1115C28.056 16.1678 27.9797 16.1993 27.9001 16.1993H20.1001C20.0206 16.1993 19.9443 16.1678 19.888 16.1115C19.8317 16.0552 19.8001 15.9789 19.8001 15.8993V15.6995ZM27.3001 11.3993V13.7993H26.1001V11.3999H27.3001V11.3993ZM25.5001 11.3993V13.7993H24.3001V11.3999H25.5001V11.3993ZM23.7001 11.3993V13.7993H22.5001V11.3999H23.7001V11.3993Z" fill="black"/>
<path d="M13.1811 19.6364H13.9716V22.4872C13.9716 22.7997 13.8977 23.0746 13.75 23.3118C13.6037 23.549 13.3977 23.7344 13.1321 23.8679C12.8665 24 12.5561 24.0661 12.201 24.0661C11.8445 24.0661 11.5334 24 11.2678 23.8679C11.0021 23.7344 10.7962 23.549 10.6499 23.3118C10.5036 23.0746 10.4304 22.7997 10.4304 22.4872V19.6364H11.2209V22.4212C11.2209 22.603 11.2607 22.7649 11.3402 22.907C11.4212 23.049 11.5348 23.1605 11.6811 23.2415C11.8274 23.321 12.0007 23.3608 12.201 23.3608C12.4013 23.3608 12.5746 23.321 12.7209 23.2415C12.8686 23.1605 12.9822 23.049 13.0618 22.907C13.1413 22.7649 13.1811 22.603 13.1811 22.4212V19.6364ZM17.2022 20.8359C17.1824 20.6499 17.0985 20.505 16.9508 20.4013C16.8045 20.2976 16.6142 20.2457 16.3798 20.2457C16.215 20.2457 16.0737 20.2706 15.9558 20.3203C15.8379 20.37 15.7477 20.4375 15.6852 20.5227C15.6227 20.608 15.5907 20.7053 15.5893 20.8146C15.5893 20.9055 15.6099 20.9844 15.6511 21.0511C15.6937 21.1179 15.7512 21.1747 15.8237 21.2216C15.8961 21.267 15.9764 21.3054 16.0645 21.3366C16.1525 21.3679 16.2413 21.3942 16.3308 21.4155L16.7399 21.5178C16.9047 21.5561 17.063 21.608 17.215 21.6733C17.3684 21.7386 17.5055 21.821 17.6262 21.9205C17.7484 22.0199 17.845 22.1399 17.916 22.2805C17.987 22.4212 18.0225 22.5859 18.0225 22.7749C18.0225 23.0305 17.9572 23.2557 17.8265 23.4503C17.6958 23.6435 17.5069 23.7947 17.2598 23.9041C17.014 24.0121 16.7164 24.0661 16.367 24.0661C16.0275 24.0661 15.7328 24.0135 15.4828 23.9084C15.2342 23.8033 15.0396 23.6499 14.899 23.4482C14.7598 23.2464 14.6845 23.0007 14.6731 22.7109H15.4508C15.4622 22.8629 15.5091 22.9893 15.5914 23.0902C15.6738 23.1911 15.7811 23.2663 15.9132 23.3161C16.0467 23.3658 16.1958 23.3906 16.3606 23.3906C16.5325 23.3906 16.6831 23.3651 16.8123 23.3139C16.943 23.2614 17.0453 23.1889 17.1191 23.0966C17.193 23.0028 17.2306 22.8935 17.2321 22.7685C17.2306 22.6548 17.1973 22.5611 17.1319 22.4872C17.0666 22.4119 16.975 22.3494 16.8571 22.2997C16.7406 22.2486 16.6042 22.2031 16.448 22.1634L15.9515 22.0355C15.5922 21.9432 15.3081 21.8033 15.0993 21.6158C14.8919 21.4268 14.7882 21.1761 14.7882 20.8636C14.7882 20.6065 14.8578 20.3814 14.997 20.1882C15.1376 19.995 15.3287 19.8452 15.5701 19.7386C15.8116 19.6307 16.085 19.5767 16.3904 19.5767C16.7001 19.5767 16.9714 19.6307 17.2044 19.7386C17.4387 19.8452 17.6227 19.9936 17.7562 20.1839C17.8897 20.3729 17.9586 20.5902 17.9629 20.8359H17.2022ZM20.2156 24V19.6364H21.886C22.2013 19.6364 22.4634 19.6861 22.6722 19.7855C22.8825 19.8835 23.0394 20.0178 23.1431 20.1882C23.2482 20.3587 23.3008 20.5518 23.3008 20.7678C23.3008 20.9453 23.2667 21.0973 23.1985 21.2237C23.1303 21.3487 23.0387 21.4503 22.9237 21.5284C22.8086 21.6065 22.68 21.6626 22.538 21.6967V21.7393C22.6928 21.7479 22.8413 21.7955 22.9833 21.8821C23.1268 21.9673 23.244 22.0881 23.3349 22.2443C23.4258 22.4006 23.4712 22.5895 23.4712 22.8111C23.4712 23.0369 23.4165 23.2401 23.3072 23.4205C23.1978 23.5994 23.033 23.7408 22.8129 23.8445C22.5927 23.9482 22.3157 24 21.9819 24H20.2156ZM21.006 23.3395H21.8562C22.1431 23.3395 22.3498 23.2848 22.4762 23.1754C22.604 23.0646 22.668 22.9226 22.668 22.7493C22.668 22.62 22.636 22.5036 22.5721 22.3999C22.5082 22.2947 22.4173 22.2124 22.2994 22.1527C22.1815 22.0916 22.0408 22.0611 21.8775 22.0611H21.006V23.3395ZM21.006 21.4922H21.788C21.9244 21.4922 22.0472 21.4673 22.1566 21.4176C22.266 21.3665 22.3519 21.2947 22.4144 21.2024C22.4783 21.1087 22.5103 20.9979 22.5103 20.87C22.5103 20.701 22.4506 20.5618 22.3313 20.4524C22.2134 20.343 22.038 20.2884 21.805 20.2884H21.006V21.4922ZM25.3393 24.0575C25.0822 24.0575 24.8521 23.9915 24.649 23.8594C24.4458 23.7273 24.2853 23.5355 24.1674 23.2841C24.0495 23.0327 23.9906 22.7273 23.9906 22.3679C23.9906 22.0043 24.0502 21.6974 24.1696 21.4474C24.2903 21.196 24.4529 21.0064 24.6575 20.8786C24.862 20.7493 25.09 20.6847 25.3414 20.6847C25.5332 20.6847 25.6909 20.7173 25.8145 20.7827C25.938 20.8466 26.036 20.924 26.1085 21.0149C26.1809 21.1044 26.237 21.1889 26.2768 21.2685H26.3088V20.7273H27.0822V24H26.3237V23.4844H26.2768C26.237 23.5639 26.1795 23.6484 26.1042 23.7379C26.0289 23.826 25.9295 23.9013 25.8059 23.9638C25.6824 24.0263 25.5268 24.0575 25.3393 24.0575ZM25.5545 23.4247C25.7179 23.4247 25.8571 23.3807 25.9721 23.2926C26.0872 23.2031 26.1745 23.0788 26.2342 22.9197C26.2939 22.7607 26.3237 22.5753 26.3237 22.3636C26.3237 22.152 26.2939 21.968 26.2342 21.8118C26.176 21.6555 26.0893 21.5341 25.9743 21.4474C25.8606 21.3608 25.7207 21.3175 25.5545 21.3175C25.3826 21.3175 25.2392 21.3622 25.1241 21.4517C25.0091 21.5412 24.9224 21.6648 24.8642 21.8224C24.8059 21.9801 24.7768 22.1605 24.7768 22.3636C24.7768 22.5682 24.8059 22.7507 24.8642 22.9112C24.9238 23.0703 25.0112 23.196 25.1262 23.2884C25.2427 23.3793 25.3855 23.4247 25.5545 23.4247ZM28.6754 22.0824V24H27.9041V20.7273H28.6413V21.2834H28.6797C28.755 21.1001 28.875 20.9545 29.0398 20.8466C29.206 20.7386 29.4112 20.6847 29.6555 20.6847C29.8814 20.6847 30.0781 20.733 30.2457 20.8295C30.4148 20.9261 30.5455 21.0661 30.6378 21.2493C30.7315 21.4325 30.7777 21.6548 30.7763 21.9162V24H30.005V22.0355C30.005 21.8168 29.9482 21.6456 29.8345 21.522C29.7223 21.3984 29.5668 21.3366 29.3679 21.3366C29.233 21.3366 29.1129 21.3665 29.0078 21.4261C28.9041 21.4844 28.8224 21.5689 28.7628 21.6797C28.7045 21.7905 28.6754 21.9247 28.6754 22.0824ZM32.2635 22.973L32.2614 22.0419H32.3849L33.5611 20.7273H34.4624L33.0156 22.3381H32.8558L32.2635 22.973ZM31.5604 24V19.6364H32.3317V24H31.5604ZM33.6143 24L32.549 22.5107L33.0689 21.9673L34.5369 24H33.6143ZM37.563 21.5923L36.8599 21.669C36.84 21.598 36.8052 21.5312 36.7555 21.4688C36.7072 21.4062 36.6419 21.3558 36.5595 21.3175C36.4771 21.2791 36.3762 21.2599 36.2569 21.2599C36.0964 21.2599 35.9615 21.2947 35.8521 21.3643C35.7441 21.4339 35.6909 21.5241 35.6923 21.6349C35.6909 21.7301 35.7257 21.8075 35.7967 21.8672C35.8691 21.9268 35.9885 21.9759 36.1547 22.0142L36.7129 22.1335C37.0225 22.2003 37.2527 22.3061 37.4032 22.451C37.5552 22.5959 37.6319 22.7855 37.6333 23.0199C37.6319 23.2259 37.5716 23.4077 37.4522 23.5653C37.3343 23.7216 37.1703 23.8437 36.96 23.9318C36.7498 24.0199 36.5083 24.0639 36.2356 24.0639C35.835 24.0639 35.5126 23.9801 35.2683 23.8125C35.024 23.6435 34.8784 23.4084 34.8315 23.1072L35.5836 23.0348C35.6177 23.1825 35.6902 23.294 35.801 23.3693C35.9118 23.4446 36.0559 23.4822 36.2335 23.4822C36.4167 23.4822 36.5637 23.4446 36.6745 23.3693C36.7868 23.294 36.8429 23.201 36.8429 23.0902C36.8429 22.9964 36.8066 22.919 36.7342 22.858C36.6632 22.7969 36.5524 22.75 36.4018 22.7173L35.8436 22.6001C35.5297 22.5348 35.2974 22.4247 35.1468 22.2699C34.9963 22.1136 34.9217 21.9162 34.9231 21.6776C34.9217 21.4759 34.9764 21.3011 35.0872 21.1534C35.1994 21.0043 35.3549 20.8892 35.5538 20.8082C35.7541 20.7259 35.9849 20.6847 36.2463 20.6847C36.6298 20.6847 36.9316 20.7663 37.1518 20.9297C37.3734 21.093 37.5105 21.3139 37.563 21.5923Z" fill="black"/>
</svg>
