<svg width="24" height="24" viewBox="0 0 24 24" fill="none" xmlns="http://www.w3.org/2000/svg">
<path d="M11.0739 2.61936C11.3444 2.42736 11.6679 2.32422 11.9997 2.32422C12.3314 2.32422 12.655 2.42736 12.9255 2.61936L19.9479 7.60176C20.8202 8.22096 20.3834 9.59616 19.3143 9.59856H4.68868C3.61588 9.59856 3.17668 8.22216 4.05268 7.60176L11.0739 2.61936ZM5.40028 10.7998V15.5998H7.80028V10.7998H5.40028ZM3.60028 19.399C3.60028 17.9626 4.76428 16.7986 6.19948 16.7986H17.7999C18.4895 16.7989 19.1507 17.0729 19.6383 17.5606C20.1258 18.0482 20.4 18.7094 20.4002 19.399V19.7986C20.4002 19.9577 20.337 20.1104 20.2246 20.2228C20.112 20.3354 19.9594 20.3986 19.8003 20.3986H4.20028C4.04116 20.3986 3.88854 20.3354 3.77602 20.2228C3.6635 20.1104 3.60028 19.9577 3.60028 19.7986V19.399ZM18.6003 10.7986V15.5986H16.2003V10.7998L18.6003 10.7986ZM15.0003 10.7986V15.5986H12.6003V10.7998L15.0003 10.7986ZM11.4003 10.7986V15.5986H9.00028V10.7998L11.4003 10.7986Z" fill="black"/>
</svg>
