<svg width="48" height="32" viewBox="0 0 48 32" fill="none" xmlns="http://www.w3.org/2000/svg">
<rect width="48" height="32" rx="4" fill="#008CFF"/>
<path d="M11.2643 13C11.5216 13.4105 11.6376 13.8333 11.6376 14.3675C11.6376 16.071 10.1321 18.2841 8.91019 19.8381H6.1193L5 13.373L7.44373 13.1489L8.03551 17.7492C8.58847 16.879 9.27083 15.5116 9.27083 14.5793C9.27083 14.0689 9.18033 13.7213 9.03888 13.4351L11.2643 13Z" fill="white"/>
<path d="M14.4316 15.8472C14.8813 15.8472 16.0134 15.6485 16.0134 15.027C16.0134 14.7285 15.7949 14.5796 15.5375 14.5796C15.0871 14.5796 14.496 15.1014 14.4316 15.8472ZM14.3801 17.0782C14.3801 17.8371 14.8169 18.1349 15.3961 18.1349C16.0268 18.1349 16.6307 17.986 17.4156 17.6007L17.1199 19.5399C16.5669 19.8009 15.7051 19.975 14.8685 19.975C12.7465 19.975 11.9871 18.7319 11.9871 17.1779C11.9871 15.1637 13.2224 13.0249 15.7693 13.0249C17.1716 13.0249 17.9557 13.7838 17.9557 14.8405C17.9558 16.544 15.6924 17.0659 14.3801 17.0782V17.0782Z" fill="white"/>
<path d="M25.008 14.4924C25.008 14.741 24.969 15.1016 24.9301 15.3373L24.1969 19.8133H21.8174L22.4862 15.7102C22.4989 15.599 22.5379 15.3749 22.5379 15.2506C22.5379 14.9521 22.3449 14.8777 22.1128 14.8777C21.8045 14.8777 21.4956 15.0143 21.2898 15.114L20.5311 19.8134H18.1382L19.2314 13.112H21.3025L21.3287 13.6469C21.8173 13.3361 22.4607 13 23.3735 13C24.583 12.9999 25.008 13.5969 25.008 14.4924V14.4924Z" fill="white"/>
<path d="M32.0723 13.7586C32.7539 13.2866 33.3974 13.0249 34.2846 13.0249C35.5064 13.0249 35.9314 13.6219 35.9314 14.5175C35.9314 14.7661 35.8924 15.1267 35.8537 15.3624L35.1212 19.8384H32.741L33.4227 15.6486C33.4352 15.5366 33.4617 15.4 33.4617 15.3133C33.4617 14.9773 33.2686 14.9027 33.0365 14.9027C32.741 14.9027 32.4455 15.027 32.2261 15.1391L31.4676 19.8385H29.0881L29.7697 15.6486C29.7822 15.5366 29.8079 15.4 29.8079 15.3134C29.8079 14.9773 29.6146 14.9028 29.3834 14.9028C29.0745 14.9028 28.7662 15.0394 28.5604 15.1392L27.8011 19.8385H25.4089L26.5021 13.1371H28.5479L28.6122 13.6966C29.0881 13.3613 29.7309 13.0252 30.5927 13.0252C31.3389 13.0249 31.8274 13.3358 32.0723 13.7586V13.7586Z" fill="white"/>
<path d="M40.6663 15.7105C40.6663 15.1634 40.5246 14.7905 40.1005 14.7905C39.1615 14.7905 38.9685 16.3941 38.9685 17.2145C38.9685 17.8369 39.1488 18.2221 39.5729 18.2221C40.4605 18.2221 40.6663 16.5308 40.6663 15.7105V15.7105ZM36.5503 17.1155C36.5503 15.0022 37.7078 13.0247 40.3708 13.0247C42.3774 13.0247 43.1109 14.1688 43.1109 15.748C43.1109 17.8368 41.966 20 39.2387 20C37.2192 20 36.5503 18.7193 36.5503 17.1155Z" fill="white"/>
</svg>
