<svg clip-rule="evenodd" fill-rule="evenodd" stroke-linejoin="round" stroke-miterlimit="2" viewBox="0 0 512 512" xmlns="http://www.w3.org/2000/svg"><path d="m62.29450912 159.3218089h394.14500878v306.98772275h-394.14500878z" fill="#00356b" stroke-width=".930909"/><path d="m537.916 171.008h-156.475v-20c0-16.557-13.443-30-30-30-16.558 0-30 13.443-30 30v20.933c-61.764 7.564-109.668 60.266-109.668 124.067v250c0 68.989 56.011 125 125 125h250c68.99 0 125-56.011 125-125v-250c0-65.236-50.082-118.868-113.857-124.509v-20.491c0-16.557-13.443-30-30-30-16.558 0-30 13.443-30 30zm-278.238 370.849c0 43.684 35.467 79.151 79.152 79.151h241.697c43.685 0 79.151-35.467 79.151-79.151v-220.844h-400z" fill="#0072e6" transform="matrix(.930909 0 0 .930909 -173.869 -112.647)"/><g fill="#fff" fill-rule="nonzero"><path d="m.054-.564h.15v-.146h-.15zm0 .564h.15v-.51h-.15z" transform="matrix(271.5154353 0 0 271.5154353 87.272524 420.189507)"/><path d="m.265.015c.134 0 .222-.084.222-.212v-.015h-.151v.019c0 .046-.029.073-.071.073-.053 0-.079-.03-.079-.087v-.096c0-.057.027-.087.079-.087.042 0 .071.027.071.073v.019h.151v-.015c0-.128-.088-.212-.223-.212-.142 0-.228.086-.228.221v.098c0 .135.086.221.229.221z" transform="matrix(271.5154353 0 0 271.5154353 150.807063 420.189507)"/><path d="m.238.015c.111 0 .215-.055.215-.171 0-.189-.273-.142-.273-.206 0-.018.021-.035.057-.035.033 0 .058.015.058.04v.01h.148v-.01c0-.097-.083-.168-.205-.168-.121 0-.206.07-.206.173 0 .185.272.134.272.205 0 .021-.025.034-.06.034-.038 0-.07-.016-.07-.045v-.012h-.149v.012c0 .1.085.173.213.173z" transform="matrix(271.5154353 0 0 271.5154353 286.022527 420.189507)"/></g></svg>