<?xml version="1.0" encoding="utf-8"?>
<!-- Generator: Adobe Illustrator 27.0.0, SVG Export Plug-In . SVG Version: 6.00 Build 0)  -->
<svg version="1.1" id="Layer_1" xmlns="http://www.w3.org/2000/svg" xmlns:xlink="http://www.w3.org/1999/xlink" x="0px" y="0px"
	 viewBox="0 0 39.4 64" style="enable-background:new 0 0 39.4 64;" xml:space="preserve">
<path d="M38.4,1.4C38.5,1.4,38.4,1.4,38.4,1.4C38.6,1.1,37.9,1,37.7,1c-0.3,0.1,0.2,0.2,0.4,0.2l-0.4,0.2h-0.3c0,0-0.1,0-0.1-0.1
	c-0.1-0.1,0-0.3-0.2-0.3c-0.7,0,0,0.3-0.6,0.3c0,0,0,0,0,0.1H36c-0.1-0.1-0.2-0.2,0-0.4c-0.2,0-0.3-0.2-0.6-0.1
	c-0.8,0.3-1.1-0.1-1.8,0c0.1,0,0,0.1-0.1,0.2c-1-0.1,0.3-0.8-1-0.6c-0.2,0-0.4,0.1-0.3,0.2c0.2,0.1,0.3,0.2,0.6,0.1
	c0,0.1,0.4,0.1,0.2,0.2c-0.6-0.1-0.9,0.2-1.4,0.2l-0.2,0.1c-0.1,0-0.4,0.1-0.6,0.1h-0.1c-0.1,0-0.1,0-0.2,0
	c-0.8-0.1,0.1-0.3,0.1-0.4L30,0.9c-0.7,0.3-1.2-0.4-1.8-0.1l0.1-0.1c0.4-0.1-0.1-0.3-0.4-0.3l-0.2,0.1c-0.3,0.3-1.2,0.1-1.9,0.2
	c-0.1,0-0.2-0.1-0.1-0.1L25,0.5c-0.2,0.3-0.5,0-0.9,0.1c-0.3,0.1-0.4,0.3-0.7,0.4c-0.9-0.2-1.5,0.1-2.3-0.2C21,1,20.5,1.1,20.9,1.4
	C19.8,1.2,19,1,18.1,0.9C18,0.9,18,1,17.9,1c0,0.1-0.1,0.3-0.2,0.4h-2.2c0,0,0,0-0.1-0.1c-0.8-0.5-1.7-0.8-2.8-1
	c-0.2,0.1-0.4,0.2-0.7,0.3l-0.7-0.2c-0.7,0-1.5,0.1-1.9,0.4C9.1,0.8,9.1,0.7,9,0.7c-0.2,0.1-0.7,0-1,0.2C7.9,0.7,7.9,0.6,7.7,0.4
	C7,0.5,6.2,0.2,5.5,0.4C5.2,0,4.4,0.7,4.1,0.3c-0.8-0.2-1.5,0-1.7,0.3c0-0.1,0.2-0.3-0.1-0.4c-0.1,0-0.2,0-0.2,0.1
	c-0.1,0-0.6-0.1-0.8,0c-0.1,0-0.1,0.1-0.1,0.1c0.5,0.2,0,0.6-0.6,1H0v62.8h39.4V1.4H38.4z"/>
</svg>
