<?xml version="1.0" encoding="utf-8"?>
<!-- Generator: Adobe Illustrator 27.0.0, SVG Export Plug-In . SVG Version: 6.00 Build 0)  -->
<svg version="1.1" id="Layer_1" xmlns="http://www.w3.org/2000/svg" xmlns:xlink="http://www.w3.org/1999/xlink" x="0px" y="0px"
	 viewBox="0 0 39.4 64" style="enable-background:new 0 0 39.4 64;" xml:space="preserve">
<style type="text/css">
	.st0{opacity:0.2;enable-background:new    ;}
</style>
<path d="M0,1.2c0,0,13.6,0.3,17.8-0.4s9.3-1,14.6-0.4s3.1,0.4,7,1H0V1.2z"/>
<path class="st0" d="M20.1,0.9C15.9,0,10.7-0.3,5.5,0.4C1.2,1,1.9,0.9,0,1.3v0.3h38V1.4C38,1.4,24.3,1.8,20.1,0.9z"/>
<polygon points="0,1.4 0,64.2 39.4,64.2 39.4,61.3 39.4,1.4 "/>
<polygon points="39.4,1.4 39.4,5.1 0,5.1 0,1.2 "/>
</svg>
