<?xml version="1.0" encoding="utf-8"?>
<!-- Generator: Adobe Illustrator 23.0.3, SVG Export Plug-In . SVG Version: 6.00 Build 0)  -->
<svg version="1.1" id="Lager_1" xmlns="http://www.w3.org/2000/svg" xmlns:xlink="http://www.w3.org/1999/xlink" x="0px" y="0px"
	 viewBox="0 0 607.8 182" style="enable-background:new 0 0 607.8 182;" xml:space="preserve">
<style type="text/css">
	.st0{fill:#3FAF2A;}
	.st1{fill:#FFFFFF;}
	.st2{fill:#1A171B;}
</style>
<g>
	<g>
		<path class="st0" d="M153.6,143H24.8c-4.3,0-7.7-3.5-7.7-7.7V48.8C17,44.5,20.5,41,24.8,41h128.8c4.3,0,7.7,3.5,7.7,7.7v86.5
			C161.4,139.6,157.9,143,153.6,143z"/>
		<path class="st1" d="M128.2,90.8c2.8,0,5.3,0.5,7.6,2c3.2,2,5.1,5.4,6.3,8.7c1.8,4.9,0.5,10.9-2.4,15.2c-3,4.2-7.3,6.6-12.7,6.7
			c-4.5,0-9.1,0-13.4,0.1c-7.9,0.1-15.8,0.2-23.6,0.2c-8.4,0-16.5,0-24.7-0.1c-2.9,0-5.8-0.1-8.7-0.3c-0.9,0-1.9-0.1-3-0.2
			c-0.5,0-1.2-0.1-1.6-0.2c-7.1-2.2-12.2-7.5-14.5-14.5c-1-3.2-1.2-6.5-0.9-9.8c0.3-3.3,1.4-6.4,3.2-9.3c3.6-5.8,9.6-9,16.4-9.5
			c0.2-5,2.1-9.7,5.6-13.3c3.7-4.1,8.9-6.9,14.3-8.3c8.4-2.2,18.3-1.2,25.2,4.6c2,1.8,3.9,3.7,5.5,5.9c1.5,2.1,2.8,4.7,3.9,7
			l0.2,0.6l-1.1,0.5l-0.4-0.5c-3.5-5.4-9.1-9.3-15.4-10.9c-5.9-1.5-12.4-1.2-17.8,1.6c-3.2,1.7-5.7,4.1-7.4,7.1
			c-2.1,3.7-2.9,7.9-3,12v0.8L65,87c-4.5-0.9-8.8,0-12.1,3.1c-2.2,2-3.7,5-4.2,7.9c-0.6,3.3-0.1,6.6,1.5,9.5
			c2.3,4.5,7.8,7.1,12.9,7.2l62.3-0.4c2.4-0.4,4.5-1.9,5.7-4c1.1-2.4,1.2-5.2,0.1-7.7c-0.9-2.1-2.8-4.2-5.1-4.9
			c-2-0.6-4.2-0.3-6,0.7l-0.8,1.1l-1-0.6l0.2-0.5c2.4-5.3,1.6-8.5-3.1-12.1c-2.6-2-5.7-3.2-9.1-3c-6.2,0.5-11.7,5.6-15,10.5
			c-0.3,0.4-0.5,0.9-0.8,1.3L89,98l-1.2-0.5l0.2-0.6c1.2-3.5,2.5-7,4.7-10.1c2.4-3.6,5.6-6.1,9.7-7.9c3.9-1.6,8.3-2.1,12.4-1.1
			C121.5,79.5,126.1,84.5,128.2,90.8"/>
	</g>
	<g>
		<path class="st2" d="M515.5,77.2c0,2.1-0.9,3.1-2.6,3.1h-17.7c-1.9,0-2.9-1.1-2.9-3.5v-9.5c0-2.4,1.2-3.7,3.7-3.7h16.2
			c2.3,0,3.5,1.2,3.5,3.5v10.1C515.7,77.2,515.5,77.2,515.5,77.2z M522.4,54.5h-37.1c-5,0-8.5,2.8-8.5,6.7v21.5
			c0,4.2,3.2,6.9,7.6,6.9h38.4c4.4,0,7.6-2.3,7.6-6.3V61.2C530.6,57.1,527.2,54.5,522.4,54.5"/>
	</g>
	<g>
		<path class="st2" d="M277.8,77.2c0,2.1-0.8,3.1-2.6,3.1h-17.8c-1.9,0-2.9-1.1-2.9-3.5v-9.5c0-2.4,1.2-3.7,3.7-3.7h16.2
			c2.3,0,3.5,1.2,3.5,3.5v10.1C277.9,77.2,277.8,77.2,277.8,77.2z M284.7,54.5h-37.1c-5,0-8.5,2.8-8.5,6.7v21.5
			c0,4.2,3.2,6.9,7.6,6.9h38.4c4.4,0,7.6-2.3,7.6-6.3V61.2C293,57.1,289.5,54.5,284.7,54.5"/>
	</g>
	<g>
		<path class="st2" d="M231.9,54.5h-42.7c-5.1,0-8.9,2.8-8.9,7.6v11.6v2.6v10.2c0,2,1.1,3.1,2.9,3.1h8.9c1.8,0,2.6-0.9,2.6-2.9v-8.3
			c0-1.6,0.8-2.5,2.3-2.5h34.6c1.6,0,2.5-0.7,2.5-2v-3.8c0-1.5-0.8-2.3-2.5-2.3h-34.4c-1.6,0-2.5-0.7-2.5-2.1c0-1.6,0.8-2.4,2.5-2.4
			h34.6c1.5,0,2.3-0.7,2.3-2.2v-4.6C234.2,55.2,233.4,54.5,231.9,54.5"/>
	</g>
	<g>
		<path class="st2" d="M407.6,54.5h-46.8c-1.5,0-2.3,0.8-2.3,2.1v5.1c0,1.4,0.8,2.2,2.3,2.2H377v22.6c0,2,1.1,3.1,2.9,3.1h8.9
			c1.8,0,2.6-0.9,2.6-2.9V64h16.2c1.5,0,2.3-0.7,2.3-2.2v-5.2C409.9,55.3,409.1,54.5,407.6,54.5"/>
	</g>
	<g>
		<path class="st2" d="M336.5,67.9h-20c-1.3,0-1.9-0.7-1.9-2.1c0-1.6,0.6-2.4,1.9-2.4h20c1.7,0,2.9,0.8,2.9,2.4
			C339.3,67.4,338.3,67.9,336.5,67.9 M355.3,87.2l-13-11.1h2.9c5.9,0,8.9-1.9,8.9-5.8v-9.6c0-4.1-2.9-6.1-8.7-6.1H309
			c-5.1,0-8.9,2.9-8.9,7.6v24.7c0,1.9,0.9,2.9,2.3,2.9h10c1.4,0,2.1-0.8,2.1-2.5v-8.7c0-1.6,0.7-2.5,2.3-2.5h8.3l8.5,7.8l6.2,5.8h15
			C356.5,89.7,356.8,88.4,355.3,87.2"/>
	</g>
	<g>
		<path class="st2" d="M467.4,54.5h-8.7c-2.2,0-3.3,1.7-3.3,3.7v16.5l-0.8-0.7l-14.2-13.2c-4.5-4.2-8.9-6.3-13.1-6.3h-5.5
			c-5.3,0-7.8,2.1-7.8,6.4v22.6c0,4.1,1.9,6.2,6.3,6.2h20.5c1.4,0,1.8-0.7,0.6-1.9l-5.8-5.4c-1.1-1.1-2.3-1.6-3.5-1.7h-3.4
			c-1.8,0-2.3-0.8-2.3-2.5V67.5c0-1.6,0.8-2.3,2.1-1.1l24.9,23.3h14.4c1.9,0,3.1-0.7,3.1-3.2v-3.8V57.8
			C470.8,55.9,469.5,54.5,467.4,54.5"/>
	</g>
	<g>
		<path class="st2" d="M580.8,74.2c-1-1.3-1-2.6,0-4.1l9.1-12.3c1.1-1.7,0.4-3.3-3.1-3.3h-9.4c-1.7,0-3,1.2-3.9,2.3l-8.3,9.8
			c-0.7,0.8-1.6,1.2-2.6,1.2c-0.9,0-1.8-0.4-2.6-1.2l-8.3-9.8c-0.9-1-2.1-2.3-3.9-2.3h-9.4c-3.5,0-4.2,1.5-3.1,3.3l9.1,12.3
			c1,1.4,1,2.8,0,4.1l-8.7,11.6c-1.7,2.6-0.5,4,2.2,4h9.7c2,0,3.4-1.3,4.5-2.9l7.8-9.8c0.7-0.9,1.7-1.3,2.6-1.3s1.9,0.4,2.6,1.3
			l7.8,9.8c1.1,1.5,2.4,2.9,4.5,2.9h9.7c2.8,0,4-1.3,2.2-4L580.8,74.2z"/>
	</g>
	<g>
		<path d="M183.1,119.4c0.3,0.6,0.7,1.2,1.3,1.6s1.2,0.7,2,0.8c0.8,0.2,1.6,0.2,2.4,0.2c0.5,0,1-0.1,1.6-0.2s1.1-0.4,1.6-0.7
			c0.5-0.3,0.9-0.7,1.2-1.2s0.5-1.1,0.5-1.7c0-0.5-0.1-1-0.4-1.4c-0.2-0.4-0.5-0.7-0.9-1s-0.8-0.5-1.2-0.6c-0.5-0.2-0.9-0.3-1.3-0.4
			l-4.3-1c-0.5-0.1-1.1-0.3-1.6-0.5s-1-0.5-1.4-0.8c-0.4-0.4-0.7-0.8-0.9-1.3s-0.4-1.1-0.4-1.9c0-0.5,0.1-1,0.3-1.6s0.5-1.2,1-1.7
			s1.1-1,2-1.4c0.8-0.4,1.9-0.6,3.3-0.6c0.9,0,1.8,0.1,2.8,0.4c0.8,0.2,1.6,0.6,2.2,1.1s1.1,1.1,1.5,1.8c0.4,0.7,0.6,1.6,0.6,2.5
			h-1.8c0-0.7-0.2-1.3-0.5-1.9c-0.3-0.5-0.7-1-1.1-1.3c-0.5-0.4-1-0.6-1.6-0.8c-0.6-0.2-1.2-0.3-1.9-0.3c-0.6,0-1.2,0.1-1.8,0.2
			s-1.1,0.3-1.5,0.6c-0.4,0.3-0.8,0.7-1,1.1c-0.3,0.5-0.4,1.1-0.4,1.8c0,0.4,0.1,0.8,0.2,1.1c0.1,0.3,0.4,0.6,0.6,0.8
			c0.3,0.2,0.6,0.4,0.9,0.6c0.3,0.1,0.7,0.3,1.1,0.3l4.7,1.1c0.7,0.2,1.3,0.4,1.9,0.6c0.6,0.3,1.1,0.6,1.6,0.9
			c0.4,0.4,0.8,0.8,1.1,1.4c0.3,0.5,0.4,1.2,0.4,2c0,0.2,0,0.5-0.1,0.8c0,0.4-0.1,0.7-0.3,1.1s-0.4,0.8-0.7,1.2
			c-0.3,0.4-0.7,0.8-1.3,1.1c-0.5,0.3-1.2,0.6-2,0.8c-0.8,0.2-1.7,0.3-2.9,0.3s-2.1-0.1-3.2-0.4c-0.9-0.3-1.8-0.6-2.4-1.2
			c-0.7-0.5-1.2-1.2-1.5-2c-0.4-0.8-0.5-1.8-0.5-3.1h1.8C182.6,118,182.8,118.8,183.1,119.4z"/>
		<path d="M199.9,109.4v2.3h0.1c0.4-0.8,1-1.5,1.7-2s1.6-0.7,2.8-0.7c0.9,0,1.7,0.2,2.4,0.7c0.7,0.4,1.2,1.1,1.5,2
			c0.4-0.9,1-1.6,1.8-2s1.6-0.7,2.5-0.7c3.1,0,4.6,1.6,4.6,4.9v9.4h-1.7V114c0-1.1-0.2-2-0.7-2.6s-1.3-0.9-2.5-0.9
			c-0.7,0-1.3,0.1-1.8,0.4s-0.9,0.6-1.1,1.1c-0.3,0.5-0.5,1-0.6,1.6s-0.2,1.2-0.2,1.8v7.8H207v-9.4c0-0.5,0-0.9-0.1-1.3
			s-0.3-0.8-0.5-1.1c-0.2-0.3-0.5-0.5-0.9-0.7s-0.8-0.3-1.3-0.3c-0.7,0-1.3,0.1-1.8,0.4s-0.9,0.6-1.3,1.1c-0.3,0.4-0.6,1-0.7,1.6
			c-0.2,0.6-0.2,1.3-0.2,2v7.7h-1.7v-14h1.4V109.4z"/>
		<path d="M221,111.5c0.3-0.6,0.7-1.1,1.1-1.4c0.5-0.4,1-0.6,1.7-0.8c0.6-0.2,1.4-0.3,2.2-0.3c0.6,0,1.2,0.1,1.8,0.2
			s1.1,0.3,1.6,0.6c0.5,0.3,0.9,0.8,1.2,1.3c0.3,0.6,0.4,1.3,0.4,2.2v7.3c0,0.7,0.3,1,1,1c0.2,0,0.4,0,0.5-0.1v1.5
			c-0.2,0-0.4,0.1-0.5,0.1s-0.3,0-0.6,0c-0.4,0-0.8-0.1-1-0.2c-0.3-0.1-0.5-0.3-0.6-0.5s-0.2-0.5-0.3-0.7c0-0.3-0.1-0.6-0.1-1h0
			c-0.3,0.4-0.6,0.8-0.9,1.2c-0.3,0.3-0.6,0.6-1,0.9c-0.4,0.2-0.8,0.4-1.3,0.5s-1.1,0.2-1.7,0.2s-1.2-0.1-1.8-0.2s-1-0.4-1.4-0.7
			c-0.4-0.3-0.7-0.7-1-1.2c-0.2-0.5-0.4-1.1-0.4-1.8c0-0.9,0.2-1.7,0.6-2.2c0.4-0.5,1-0.9,1.7-1.2c0.7-0.3,1.5-0.5,2.3-0.6
			c0.9-0.1,1.7-0.2,2.6-0.3c0.4,0,0.7-0.1,0.9-0.1c0.3-0.1,0.5-0.1,0.7-0.3c0.2-0.1,0.3-0.3,0.4-0.5c0.1-0.2,0.1-0.5,0.1-0.9
			c0-0.6-0.1-1-0.3-1.4s-0.4-0.6-0.8-0.9c-0.3-0.2-0.7-0.4-1.1-0.4c-0.4-0.1-0.9-0.1-1.4-0.1c-1.1,0-1.9,0.2-2.6,0.7
			c-0.7,0.5-1,1.3-1.1,2.4h-1.7C220.6,112.9,220.7,112.1,221,111.5z M229.4,115.7c-0.1,0.2-0.3,0.3-0.6,0.4s-0.6,0.1-0.8,0.2
			c-0.7,0.1-1.4,0.2-2.2,0.3c-0.7,0.1-1.4,0.2-2,0.4c-0.6,0.2-1.1,0.5-1.5,0.8c-0.4,0.4-0.6,0.9-0.6,1.5c0,0.4,0.1,0.8,0.2,1.1
			c0.2,0.3,0.4,0.6,0.7,0.8c0.3,0.2,0.6,0.4,1,0.5s0.7,0.2,1.1,0.2c0.6,0,1.2-0.1,1.8-0.3c0.6-0.2,1.1-0.5,1.5-0.8
			c0.4-0.4,0.8-0.8,1-1.3c0.3-0.5,0.4-1.1,0.4-1.8L229.4,115.7L229.4,115.7z M223.3,104c0.1-0.3,0.4-0.6,0.6-0.9
			c0.3-0.3,0.6-0.5,0.9-0.6s0.7-0.2,1.1-0.2c0.4,0,0.7,0.1,1.1,0.2c0.3,0.1,0.6,0.4,0.9,0.6c0.3,0.3,0.5,0.6,0.6,0.9
			s0.2,0.7,0.2,1.1s-0.1,0.7-0.2,1.1c-0.1,0.3-0.4,0.6-0.6,0.9c-0.3,0.3-0.6,0.5-0.9,0.6c-0.3,0.1-0.7,0.2-1.1,0.2
			c-0.4,0-0.7-0.1-1.1-0.2c-0.3-0.1-0.6-0.4-0.9-0.6c-0.3-0.3-0.5-0.6-0.6-0.9s-0.2-0.7-0.2-1.1S223.2,104.3,223.3,104z
			 M224.7,106.3c0.3,0.3,0.8,0.5,1.3,0.5s0.9-0.2,1.3-0.5c0.3-0.3,0.5-0.8,0.5-1.3s-0.2-0.9-0.5-1.3c-0.3-0.3-0.8-0.5-1.3-0.5
			s-0.9,0.2-1.3,0.5c-0.3,0.3-0.5,0.8-0.5,1.3C224.1,105.6,224.3,106,224.7,106.3z"/>
		<path d="M237.2,110.8v12.4h-1.8v-12.4h-2.3v-1.4h2.3v-1.2c0-0.6,0-1.1,0.1-1.6s0.3-0.9,0.5-1.3s0.6-0.6,1-0.8
			c0.4-0.2,1-0.3,1.6-0.3c0.2,0,0.5,0,0.7,0s0.4,0,0.7,0.1v1.4c-0.2,0-0.4-0.1-0.6-0.1c-0.2,0-0.4,0-0.6,0c-0.5,0-0.8,0.1-1.1,0.2
			c-0.2,0.1-0.4,0.3-0.5,0.6c-0.1,0.2-0.2,0.5-0.2,0.8s0,0.7,0,1v1.2h2.8v1.4C239.8,110.8,237.2,110.8,237.2,110.8z"/>
		<path d="M250.1,109.6c0.8,0.4,1.5,0.9,2,1.6c0.5,0.6,1,1.4,1.2,2.3c0.3,0.9,0.4,1.8,0.4,2.9c0,1-0.1,1.9-0.4,2.9
			c-0.3,0.9-0.7,1.6-1.2,2.3c-0.5,0.6-1.2,1.2-2,1.5c-0.8,0.4-1.7,0.6-2.8,0.6c-1,0-2-0.2-2.8-0.6s-1.5-0.9-2-1.5s-1-1.4-1.2-2.3
			c-0.3-0.9-0.4-1.8-0.4-2.9c0-1,0.1-1.9,0.4-2.9c0.3-0.9,0.7-1.6,1.2-2.3c0.5-0.6,1.2-1.2,2-1.6s1.7-0.6,2.8-0.6
			S249.3,109.2,250.1,109.6z M245.2,110.9c-0.6,0.3-1.1,0.8-1.5,1.3s-0.7,1.2-0.9,1.9c-0.2,0.7-0.3,1.4-0.3,2.1s0.1,1.4,0.3,2.1
			s0.5,1.3,0.9,1.9c0.4,0.5,0.9,1,1.5,1.3s1.3,0.5,2.1,0.5s1.5-0.2,2.1-0.5s1.1-0.8,1.5-1.3s0.7-1.2,0.9-1.9
			c0.2-0.7,0.3-1.4,0.3-2.1s-0.1-1.4-0.3-2.1s-0.5-1.3-0.9-1.9c-0.4-0.5-0.9-1-1.5-1.3s-1.3-0.5-2.1-0.5S245.8,110.6,245.2,110.9z
			 M244.1,104.3h1.8v2.8h-1.8V104.3z M248.8,104.3h1.8v2.8h-1.8V104.3z"/>
		<path d="M257.9,109.4v3.3h0.1c0.4-1.1,1.1-2,2-2.6s1.9-0.9,3.3-0.8v1.7c-0.8,0-1.4,0.1-2.1,0.3c-0.6,0.2-1.1,0.6-1.6,1
			c-0.4,0.4-0.8,1-1,1.6c-0.2,0.6-0.4,1.3-0.4,2v7.3h-1.8v-13.8H257.9z"/>
		<path d="M265.6,118.7c0.2,0.6,0.4,1.2,0.8,1.7s0.8,0.9,1.4,1.3c0.6,0.3,1.2,0.5,2,0.5c1.2,0,2.2-0.3,2.9-0.9
			c0.7-0.6,1.2-1.5,1.4-2.5h1.7c-0.4,1.5-1,2.8-1.9,3.7c-0.9,0.8-2.3,1.3-4.1,1.3c-1.1,0-2-0.2-2.9-0.6c-0.8-0.4-1.4-0.9-1.9-1.6
			s-0.9-1.4-1.1-2.3c-0.2-0.9-0.4-1.8-0.4-2.8c0-0.9,0.1-1.8,0.4-2.6c0.2-0.9,0.6-1.6,1.1-2.3c0.5-0.7,1.1-1.2,1.9-1.6
			c0.8-0.4,1.7-0.6,2.9-0.6c1.1,0,2,0.2,2.9,0.7c0.8,0.4,1.4,1,1.9,1.7s0.8,1.5,1,2.4s0.3,1.9,0.3,2.9h-10.5
			C265.3,117.3,265.4,118,265.6,118.7z M273.9,113.5c-0.2-0.6-0.5-1.1-0.9-1.5s-0.8-0.8-1.3-1.1c-0.5-0.3-1.1-0.4-1.8-0.4
			c-0.7,0-1.3,0.1-1.8,0.4s-1,0.6-1.3,1.1c-0.4,0.4-0.7,1-0.9,1.6c-0.2,0.6-0.4,1.2-0.4,1.8h9C274.2,114.7,274.1,114.1,273.9,113.5z
			"/>
		<path d="M283.7,109.4v1.4h-2.9v9.4c0,0.5,0.1,1,0.2,1.3s0.5,0.5,1.1,0.5c0.5,0,0.9,0,1.4-0.1v1.4c-0.2,0-0.5,0-0.7,0s-0.5,0-0.7,0
			c-1.1,0-1.9-0.2-2.3-0.6s-0.6-1.2-0.6-2.4v-9.5h-2.4v-1.4h2.4v-4.2h1.7v4.2C280.9,109.4,283.7,109.4,283.7,109.4z"/>
		<path d="M286.6,111.5c0.3-0.6,0.7-1.1,1.1-1.4c0.5-0.4,1-0.6,1.7-0.8c0.6-0.2,1.4-0.3,2.2-0.3c0.6,0,1.2,0.1,1.8,0.2
			c0.6,0.1,1.1,0.3,1.6,0.6s0.9,0.8,1.2,1.3c0.3,0.6,0.4,1.3,0.4,2.2v7.3c0,0.7,0.3,1,1,1c0.2,0,0.4,0,0.5-0.1v1.5
			c-0.2,0-0.4,0.1-0.5,0.1s-0.3,0-0.6,0c-0.4,0-0.8-0.1-1-0.2c-0.3-0.1-0.5-0.3-0.6-0.5s-0.2-0.5-0.3-0.7c0-0.3-0.1-0.6-0.1-1h-0.1
			c-0.3,0.4-0.6,0.8-0.9,1.2c-0.3,0.3-0.6,0.6-1,0.9c-0.4,0.2-0.8,0.4-1.3,0.5s-1.1,0.2-1.7,0.2s-1.2-0.1-1.8-0.2
			c-0.6-0.1-1-0.4-1.4-0.7c-0.4-0.3-0.7-0.7-1-1.2c-0.2-0.5-0.4-1.1-0.4-1.8c0-0.9,0.2-1.7,0.6-2.2s1-0.9,1.7-1.2
			c0.7-0.3,1.5-0.5,2.3-0.6c0.9-0.1,1.7-0.2,2.6-0.3c0.4,0,0.7-0.1,0.9-0.1c0.3-0.1,0.5-0.1,0.7-0.3c0.2-0.1,0.3-0.3,0.4-0.5
			s0.1-0.5,0.1-0.9c0-0.6-0.1-1-0.3-1.4s-0.4-0.6-0.8-0.9c-0.3-0.2-0.7-0.4-1.1-0.4c-0.2-0.2-0.7-0.2-1.2-0.2
			c-1.1,0-1.9,0.2-2.6,0.7s-1,1.3-1.1,2.4h-1.7C286.1,112.9,286.3,112.1,286.6,111.5z M294.9,115.7c-0.1,0.2-0.3,0.3-0.6,0.4
			c-0.3,0.1-0.6,0.1-0.8,0.2c-0.7,0.1-1.4,0.2-2.2,0.3c-0.7,0.1-1.4,0.2-2,0.4c-0.6,0.2-1.1,0.5-1.5,0.8c-0.4,0.4-0.6,0.9-0.6,1.5
			c0,0.4,0.1,0.8,0.2,1.1c0.2,0.3,0.4,0.6,0.7,0.8c0.3,0.2,0.6,0.4,1,0.5s0.7,0.2,1.1,0.2c0.6,0,1.2-0.1,1.8-0.3
			c0.6-0.2,1.1-0.5,1.5-0.8c0.4-0.4,0.8-0.8,1-1.3c0.3-0.5,0.4-1.1,0.4-1.8V115.7L294.9,115.7z"/>
		<path d="M311.4,124.9c-0.2,0.8-0.6,1.5-1,2.1c-0.5,0.6-1.1,1-1.9,1.3s-1.7,0.4-2.9,0.4c-0.7,0-1.4-0.1-2-0.2
			c-0.6-0.2-1.2-0.4-1.7-0.7c-0.5-0.3-0.9-0.8-1.3-1.3c-0.3-0.5-0.5-1.1-0.6-1.9h1.7c0.1,0.5,0.3,0.9,0.5,1.3
			c0.3,0.3,0.6,0.6,0.9,0.8c0.4,0.2,0.8,0.4,1.2,0.5c0.4,0.1,0.9,0.1,1.3,0.1c1.5,0,2.8-0.4,3.4-1.3c0.7-0.9,1-2.1,1-3.9v-1.8h-0.1
			c-0.4,0.8-1,1.5-1.7,2s-1.6,0.8-2.6,0.8c-1.1,0-2-0.2-2.9-0.5c-0.8-0.4-1.4-0.9-1.9-1.5s-0.9-1.4-1.1-2.2
			c-0.2-0.9-0.3-1.8-0.3-2.8c0-0.9,0.1-1.8,0.4-2.6c0.3-0.8,0.7-1.6,1.2-2.2s1.2-1.1,1.9-1.5c0.8-0.4,1.6-0.5,2.6-0.5
			c0.5,0,1,0.1,1.4,0.2s0.9,0.3,1.2,0.6c0.4,0.3,0.7,0.5,1,0.9c0.3,0.3,0.5,0.7,0.7,1.1h0.1v-2.6h1.7v12.7
			C311.7,123.2,311.6,124.1,311.4,124.9z M307.6,121.2c0.5-0.3,1-0.7,1.4-1.2s0.6-1.1,0.8-1.7c0.2-0.6,0.3-1.3,0.3-2s-0.1-1.3-0.2-2
			c-0.2-0.7-0.4-1.3-0.8-1.8s-0.8-1-1.4-1.3s-1.2-0.5-2-0.5s-1.5,0.2-2,0.5c-0.6,0.3-1,0.7-1.4,1.3c-0.4,0.5-0.6,1.1-0.8,1.8
			c-0.2,0.7-0.2,1.4-0.2,2.1s0.1,1.4,0.3,2c0.2,0.6,0.4,1.2,0.8,1.7s0.8,0.9,1.4,1.2c0.6,0.3,1.2,0.5,2,0.5
			C306.3,121.6,307,121.5,307.6,121.2z"/>
		<path d="M316.2,118.7c0.2,0.6,0.4,1.2,0.8,1.7s0.8,0.9,1.4,1.3c0.6,0.3,1.2,0.5,2,0.5c1.2,0,2.2-0.3,2.9-0.9
			c0.6-0.6,1.2-1.5,1.4-2.5h1.7c-0.4,1.5-1,2.8-1.9,3.7c-0.9,0.8-2.3,1.3-4.1,1.3c-1.1,0-2-0.2-2.9-0.6c-0.8-0.4-1.4-0.9-1.9-1.6
			s-0.9-1.4-1.1-2.3s-0.4-1.8-0.4-2.8c0-0.9,0.1-1.8,0.4-2.6c0.2-0.9,0.6-1.6,1.1-2.3c0.5-0.7,1.1-1.2,1.9-1.6s1.7-0.6,2.9-0.6
			c1.1,0,2,0.2,2.9,0.7c0.8,0.4,1.4,1,1.9,1.7s0.8,1.5,1,2.4s0.3,1.9,0.3,2.9h-10.6C316,117.3,316,118,316.2,118.7z M324.6,113.5
			c-0.2-0.6-0.5-1.1-0.9-1.5s-0.8-0.8-1.3-1.1c-0.5-0.3-1.1-0.4-1.8-0.4c-0.7,0-1.3,0.1-1.8,0.4s-1,0.6-1.3,1.1
			c-0.4,0.4-0.7,1-0.9,1.6c-0.2,0.6-0.4,1.2-0.4,1.8h9C324.9,114.7,324.8,114.1,324.6,113.5z"/>
		<path d="M330.6,109.4v2.3h0.1c0.3-0.8,0.9-1.5,1.7-2s1.7-0.7,2.8-0.7c0.9,0,1.7,0.1,2.4,0.4c0.6,0.2,1.2,0.6,1.5,1
			c0.4,0.4,0.7,1,0.8,1.6c0.2,0.6,0.2,1.4,0.2,2.2v8.9h-1.7v-8.7c0-0.6-0.1-1.1-0.2-1.6s-0.3-0.9-0.6-1.3c-0.3-0.4-0.6-0.7-1.1-0.9
			c-0.4-0.2-1-0.3-1.7-0.3s-1.3,0.1-1.8,0.4c-0.5,0.2-1,0.6-1.3,1c-0.4,0.4-0.6,0.9-0.8,1.5c-0.2,0.6-0.3,1.2-0.3,1.9v8h-1.7v-13.7
			H330.6z"/>
		<path d="M351.3,112c-0.2-0.4-0.5-0.7-0.8-0.9c-0.3-0.2-0.7-0.4-1.1-0.5s-0.9-0.2-1.3-0.2s-0.7,0-1.1,0.1s-0.7,0.2-1,0.4
			c-0.3,0.2-0.6,0.4-0.8,0.7c-0.2,0.3-0.3,0.7-0.3,1.1s0.1,0.7,0.3,0.9c0.2,0.3,0.4,0.5,0.7,0.6c0.3,0.2,0.6,0.3,0.9,0.4
			s0.6,0.2,0.9,0.3l2.2,0.5c0.5,0.1,0.9,0.2,1.4,0.4c0.5,0.2,0.9,0.4,1.2,0.7c0.4,0.3,0.7,0.7,0.9,1.1c0.2,0.4,0.3,1,0.3,1.6
			c0,0.7-0.2,1.4-0.5,1.9s-0.8,0.9-1.3,1.3c-0.5,0.3-1.1,0.6-1.7,0.7s-1.3,0.2-1.9,0.2c-1.6,0-3-0.4-4-1.1c-1-0.8-1.6-2-1.7-3.7h1.7
			c0.1,1.1,0.5,2,1.2,2.5c0.7,0.6,1.7,0.9,2.9,0.9c0.4,0,0.8,0,1.2-0.1c0.4-0.1,0.8-0.2,1.2-0.4c0.4-0.2,0.7-0.5,0.9-0.8
			c0.2-0.3,0.4-0.7,0.4-1.2c0-0.4-0.1-0.7-0.2-1c-0.2-0.3-0.4-0.5-0.7-0.7c-0.3-0.2-0.6-0.3-1-0.5c-0.4-0.1-0.7-0.2-1.1-0.3
			l-2.1-0.5c-0.5-0.1-1-0.3-1.5-0.5s-0.9-0.4-1.2-0.7c-0.3-0.3-0.6-0.6-0.8-1c-0.2-0.4-0.3-0.9-0.3-1.5c0-0.7,0.2-1.3,0.5-1.8
			s0.7-0.9,1.2-1.2c0.5-0.3,1-0.5,1.6-0.7c0.6-0.1,1.2-0.2,1.8-0.2c0.7,0,1.3,0.1,1.9,0.3c0.6,0.2,1.1,0.4,1.6,0.8
			c0.4,0.4,0.8,0.8,1.1,1.4c0.3,0.5,0.4,1.2,0.4,1.9h-1.7C351.6,113,351.5,112.5,351.3,112z"/>
		<path d="M365.3,104.1v7.9h0.1c0.2-0.5,0.4-0.9,0.7-1.3c0.3-0.4,0.7-0.7,1.1-0.9c0.4-0.3,0.9-0.4,1.4-0.6c0.5-0.1,1-0.2,1.5-0.2
			c1,0,1.9,0.2,2.8,0.6c0.8,0.4,1.4,0.9,1.9,1.6s0.9,1.4,1.1,2.3s0.4,1.8,0.4,2.8s-0.1,1.9-0.4,2.8c-0.2,0.9-0.6,1.6-1.1,2.3
			c-0.5,0.7-1.1,1.2-1.9,1.6s-1.7,0.6-2.8,0.6c-1.1,0-2.1-0.3-3.1-0.8c-0.9-0.5-1.5-1.2-1.9-2.2H365v2.6h-1.5v-19.1H365.3z
			 M374.4,114.2c-0.2-0.7-0.4-1.3-0.8-1.9c-0.4-0.5-0.8-1-1.4-1.3s-1.2-0.5-2-0.5c-0.9,0-1.6,0.2-2.2,0.5s-1.1,0.8-1.5,1.3
			s-0.6,1.2-0.8,1.9c-0.2,0.7-0.2,1.4-0.2,2.1s0.1,1.4,0.2,2.1c0.2,0.7,0.4,1.3,0.8,1.9c0.4,0.5,0.9,1,1.5,1.3s1.3,0.5,2.2,0.5
			c0.8,0,1.5-0.2,2-0.5c0.6-0.3,1-0.8,1.4-1.3s0.6-1.2,0.8-1.9c0.2-0.7,0.2-1.4,0.2-2.1C374.7,115.6,374.6,114.9,374.4,114.2z"/>
		<path d="M379.4,111.5c0.3-0.6,0.7-1.1,1.1-1.4c0.5-0.4,1-0.6,1.7-0.8c0.6-0.2,1.4-0.3,2.2-0.3c0.6,0,1.2,0.1,1.8,0.2
			c0.6,0.1,1.1,0.3,1.6,0.6c0.5,0.3,0.9,0.8,1.2,1.3c0.3,0.6,0.4,1.3,0.4,2.2v7.3c0,0.7,0.3,1,1,1c0.2,0,0.4,0,0.5-0.1v1.5
			c-0.2,0-0.4,0.1-0.5,0.1s-0.3,0-0.6,0c-0.4,0-0.8-0.1-1-0.2c-0.3-0.1-0.5-0.3-0.6-0.5s-0.2-0.5-0.3-0.7c0-0.3-0.1-0.6-0.1-1h-0.1
			c-0.3,0.4-0.6,0.8-0.9,1.2c-0.3,0.3-0.6,0.6-1,0.9c-0.4,0.2-0.8,0.4-1.3,0.5s-1.1,0.2-1.7,0.2s-1.2-0.1-1.8-0.2
			c-0.6-0.1-1-0.4-1.4-0.7c-0.4-0.3-0.7-0.7-1-1.2c-0.2-0.5-0.4-1.1-0.4-1.8c0-0.9,0.2-1.7,0.6-2.2s1-0.9,1.7-1.2
			c0.7-0.3,1.5-0.5,2.3-0.6c0.9-0.1,1.7-0.2,2.6-0.3c0.4,0,0.7-0.1,0.9-0.1c0.3-0.1,0.5-0.1,0.7-0.3c0.2-0.1,0.3-0.3,0.4-0.5
			s0.1-0.5,0.1-0.9c0-0.6-0.1-1-0.3-1.4c-0.2-0.4-0.4-0.6-0.8-0.9c-0.3-0.2-0.7-0.4-1.1-0.4c-0.4-0.1-0.9-0.1-1.4-0.1
			c-1.1,0-1.9,0.2-2.6,0.7s-1,1.3-1.1,2.4h-1.8C378.9,112.9,379.1,112.1,379.4,111.5z M387.8,115.7c-0.1,0.2-0.3,0.3-0.6,0.4
			c-0.3,0.1-0.6,0.1-0.8,0.2c-0.7,0.1-1.4,0.2-2.2,0.3c-0.7,0.1-1.4,0.2-2,0.4c-0.6,0.2-1.1,0.5-1.5,0.8c-0.4,0.4-0.6,0.9-0.6,1.5
			c0,0.4,0.1,0.8,0.2,1.1c0.2,0.3,0.4,0.6,0.7,0.8c0.3,0.2,0.6,0.4,1,0.5s0.7,0.2,1.1,0.2c0.6,0,1.2-0.1,1.8-0.3
			c0.6-0.2,1.1-0.5,1.5-0.8c0.4-0.4,0.8-0.8,1-1.3c0.3-0.5,0.4-1.1,0.4-1.8V115.7L387.8,115.7z M381.1,104.3h1.8v2.8h-1.8V104.3z
			 M385.8,104.3h1.8v2.8h-1.8V104.3z"/>
		<path d="M400.9,112c-0.2-0.4-0.5-0.7-0.8-0.9c-0.3-0.2-0.7-0.4-1.1-0.5s-0.9-0.2-1.3-0.2s-0.7,0-1.1,0.1s-0.7,0.2-1,0.4
			c-0.3,0.2-0.6,0.4-0.8,0.7c-0.2,0.3-0.3,0.7-0.3,1.1s0.1,0.7,0.3,0.9c0.2,0.3,0.4,0.5,0.7,0.6c0.3,0.2,0.6,0.3,0.9,0.4
			s0.6,0.2,0.9,0.3l2.2,0.5c0.5,0.1,0.9,0.2,1.4,0.4c0.5,0.2,0.9,0.4,1.2,0.7c0.4,0.3,0.7,0.7,0.9,1.1c0.2,0.4,0.3,1,0.3,1.6
			c0,0.7-0.2,1.4-0.5,1.9s-0.8,0.9-1.3,1.3c-0.5,0.3-1.1,0.6-1.7,0.7s-1.3,0.2-1.9,0.2c-1.6,0-3-0.4-4-1.1c-1-0.8-1.6-2-1.7-3.7h1.7
			c0.1,1.1,0.5,2,1.2,2.5c0.7,0.6,1.7,0.9,2.9,0.9c0.4,0,0.8,0,1.2-0.1c0.4-0.1,0.8-0.2,1.2-0.4c0.4-0.2,0.7-0.5,0.9-0.8
			c0.2-0.3,0.4-0.7,0.4-1.2c0-0.4-0.1-0.7-0.2-1c-0.2-0.3-0.4-0.5-0.7-0.7c-0.3-0.2-0.6-0.3-1-0.5c-0.4-0.1-0.7-0.2-1.1-0.3
			l-2.1-0.5c-0.5-0.1-1-0.3-1.5-0.5s-0.9-0.4-1.2-0.7c-0.3-0.3-0.6-0.6-0.8-1c-0.2-0.4-0.3-0.9-0.3-1.5c0-0.7,0.2-1.3,0.5-1.8
			s0.7-0.9,1.2-1.2c0.5-0.3,1-0.5,1.6-0.7c0.6-0.1,1.2-0.2,1.8-0.2c0.7,0,1.3,0.1,1.9,0.3c0.6,0.2,1.1,0.4,1.6,0.8
			c0.4,0.4,0.8,0.8,1.1,1.4c0.3,0.5,0.4,1.2,0.4,1.9h-1.7C401.2,113,401.1,112.5,400.9,112z"/>
		<path d="M411.2,109.4v1.4h-2.8v9.4c0,0.5,0.1,1,0.2,1.3s0.5,0.5,1.1,0.5c0.5,0,0.9,0,1.4-0.1v1.4c-0.2,0-0.5,0-0.7,0s-0.5,0-0.7,0
			c-1.1,0-1.9-0.2-2.3-0.6s-0.6-1.2-0.6-2.4v-9.5h-2.4v-1.4h2.4v-4.2h1.7v4.2C408.5,109.4,411.2,109.4,411.2,109.4z"/>
		<path d="M414.1,111.5c0.3-0.6,0.7-1.1,1.1-1.4c0.5-0.4,1-0.6,1.7-0.8c0.6-0.2,1.4-0.3,2.2-0.3c0.6,0,1.2,0.1,1.8,0.2
			c0.6,0.1,1.1,0.3,1.6,0.6c0.5,0.3,0.9,0.8,1.2,1.3c0.3,0.6,0.4,1.3,0.4,2.2v7.3c0,0.7,0.3,1,1,1c0.2,0,0.4,0,0.5-0.1v1.5
			c-0.2,0-0.4,0.1-0.5,0.1s-0.3,0-0.6,0c-0.4,0-0.8-0.1-1-0.2c-0.3-0.1-0.5-0.3-0.6-0.5s-0.2-0.5-0.3-0.7c0-0.3-0.1-0.6-0.1-1h-0.1
			c-0.3,0.4-0.6,0.8-0.9,1.2c-0.3,0.3-0.6,0.6-1,0.9c-0.4,0.2-0.8,0.4-1.3,0.5s-1.1,0.2-1.7,0.2s-1.2-0.1-1.8-0.2
			c-0.6-0.1-1-0.4-1.4-0.7c-0.4-0.3-0.7-0.7-1-1.2c-0.2-0.5-0.4-1.1-0.4-1.8c0-0.9,0.2-1.7,0.6-2.2s1-0.9,1.7-1.2
			c0.7-0.3,1.5-0.5,2.3-0.6c0.9-0.1,1.7-0.2,2.6-0.3c0.4,0,0.7-0.1,0.9-0.1c0.3-0.1,0.5-0.1,0.7-0.3c0.2-0.1,0.3-0.3,0.4-0.5
			s0.1-0.5,0.1-0.9c0-0.6-0.1-1-0.3-1.4s-0.4-0.6-0.8-0.9c-0.3-0.2-0.7-0.4-1.1-0.4c-0.4-0.1-0.9-0.1-1.4-0.1
			c-1.1,0-1.9,0.2-2.6,0.7s-1,1.3-1.1,2.4h-1.3C413.6,112.9,413.8,112.1,414.1,111.5z M422.5,115.7c-0.1,0.2-0.3,0.3-0.6,0.4
			c-0.3,0.1-0.6,0.1-0.8,0.2c-0.7,0.1-1.4,0.2-2.2,0.3c-0.7,0.1-1.4,0.2-2,0.4c-0.6,0.2-1.1,0.5-1.5,0.8c-0.4,0.4-0.6,0.9-0.6,1.5
			c0,0.4,0.1,0.8,0.2,1.1c0.2,0.3,0.4,0.6,0.7,0.8c0.3,0.2,0.6,0.4,1,0.5s0.7,0.2,1.1,0.2c0.6,0,1.2-0.1,1.8-0.3
			c0.6-0.2,1.1-0.5,1.5-0.8c0.4-0.4,0.8-0.8,1-1.3c0.3-0.5,0.4-1.1,0.4-1.8V115.7L422.5,115.7z"/>
		<path d="M435.4,109.4l4.4,12.1h0.1l4.3-12.1h1.7l-5.2,13.9h-1.8l-5.3-13.9H435.4z"/>
		<path d="M447.8,111.5c0.3-0.6,0.7-1.1,1.1-1.4c0.5-0.4,1-0.6,1.7-0.8c0.6-0.2,1.4-0.3,2.2-0.3c0.6,0,1.2,0.1,1.8,0.2
			c0.6,0.1,1.1,0.3,1.6,0.6c0.5,0.3,0.9,0.8,1.2,1.3c0.3,0.6,0.4,1.3,0.4,2.2v7.3c0,0.7,0.3,1,1,1c0.2,0,0.4,0,0.5-0.1v1.5
			c-0.2,0-0.4,0.1-0.5,0.1s-0.3,0-0.6,0c-0.4,0-0.8-0.1-1-0.2c-0.3-0.1-0.5-0.3-0.6-0.5s-0.2-0.5-0.3-0.7c0-0.3-0.1-0.6-0.1-1l0,0
			c-0.3,0.4-0.6,0.8-0.9,1.2c-0.3,0.3-0.6,0.6-1,0.9c-0.4,0.2-0.8,0.4-1.3,0.5s-1.1,0.2-1.7,0.2s-1.2-0.1-1.8-0.2
			c-0.6-0.1-1-0.4-1.4-0.7c-0.4-0.3-0.7-0.7-1-1.2c-0.2-0.5-0.4-1.1-0.4-1.8c0-0.9,0.2-1.7,0.6-2.2s1-0.9,1.7-1.2
			c0.7-0.3,1.5-0.5,2.3-0.6c0.9-0.1,1.7-0.2,2.6-0.3c0.4,0,0.7-0.1,0.9-0.1c0.3-0.1,0.5-0.1,0.7-0.3c0.2-0.1,0.3-0.3,0.4-0.5
			s0.1-0.5,0.1-0.9c0-0.6-0.1-1-0.3-1.4c-0.2-0.4-0.4-0.6-0.8-0.9c-0.3-0.2-0.7-0.4-1.1-0.4c-0.4-0.1-0.9-0.1-1.4-0.1
			c-1.1,0-1.9,0.2-2.6,0.7s-1,1.3-1.1,2.4H447C447.4,112.9,447.5,112.1,447.8,111.5z M456.3,115.7c-0.1,0.2-0.3,0.3-0.6,0.4
			c-0.3,0.1-0.6,0.1-0.8,0.2c-0.7,0.1-1.4,0.2-2.2,0.3c-0.7,0.1-1.4,0.2-2,0.4c-0.6,0.2-1.1,0.5-1.5,0.8c-0.4,0.4-0.6,0.9-0.6,1.5
			c0,0.4,0.1,0.8,0.2,1.1c0.2,0.3,0.4,0.6,0.7,0.8c0.3,0.2,0.6,0.4,1,0.5s0.7,0.2,1.1,0.2c0.6,0,1.2-0.1,1.8-0.3
			c0.6-0.2,1.1-0.5,1.5-0.8c0.4-0.4,0.8-0.8,1-1.3c0.3-0.5,0.4-1.1,0.4-1.8V115.7L456.3,115.7z M449.6,104.3h1.8v2.8h-1.8V104.3z
			 M454.2,104.3h1.8v2.8h-1.8V104.3z"/>
		<path d="M463,109.4v2.3h0.1c0.3-0.8,0.9-1.5,1.7-2c0.8-0.5,1.7-0.7,2.8-0.7c0.9,0,1.7,0.1,2.4,0.4c0.6,0.2,1.2,0.6,1.5,1
			c0.4,0.4,0.7,1,0.8,1.6c0.2,0.6,0.2,1.4,0.2,2.2v8.9h-1.7v-8.7c0-0.6-0.1-1.1-0.2-1.6s-0.3-0.9-0.6-1.3c-0.3-0.4-0.6-0.7-1.1-0.9
			c-0.4-0.2-1-0.3-1.7-0.3s-1.3,0.1-1.8,0.4c-0.5,0.2-1,0.6-1.3,1c-0.4,0.4-0.6,0.9-0.8,1.5c-0.2,0.6-0.3,1.2-0.3,1.9v8h-1.7v-13.7
			H463z"/>
	</g>
</g>
</svg>
