<svg xmlns="http://www.w3.org/2000/svg" viewBox="0 0 640 512"><path d="M512 96c17.7 0 32 14.3 32 32c0 23.5 0 47.1 0 70.6c11.2 3.2 21.9 7.4 32 12.6c0-27.7 0-55.5 0-83.2c0-35.3-28.7-64-64-64c-149.4 0-298.7 0-448 0C28.7 64 0 92.7 0 128c0 85.4 0 170.7 0 256c0 35.3 28.7 64 64 64c32 0 63.9 0 95.9 0c.1 0 .2 0 .3 0c59.6 0 119.3 0 179 0c-5.2-10.1-9.4-20.8-12.6-32c-44.4 0-88.9 0-133.3 0c21-26.3 42-52.5 63-78.8c31.9-39.9 63.8-79.7 95.7-119.6c6.7 8.4 13.5 16.9 20.2 25.3c7.6-7.5 15.9-14.3 24.7-20.4c-6.6-8.3-13.3-16.6-19.9-24.9c-12.8-16-37.2-16-50 0c-27.5 34.4-55.1 68.9-82.6 103.3c-9.1-12.5-18.2-25-27.3-37.5c-12.3-17-37.4-17.7-50.6-1.4c-40.4 49.3-80.8 98.7-121.2 148c-8-5.8-13.3-15.3-13.3-26c0-85.4 0-170.7 0-256c0-17.7 14.3-32 32-32c149.4 0 298.7 0 448 0zM152.3 416l-70.5 0c36.5-44.6 73-89.2 109.5-133.8c10.8 14.9 21.6 29.7 32.4 44.6c-23.8 29.7-47.6 59.5-71.4 89.2zM144 160c8.8 0 16 7.2 16 16s-7.2 16-16 16s-16-7.2-16-16s7.2-16 16-16zm0 64c17.1 0 33-9.1 41.6-24s8.6-33.1 0-48s-24.4-24-41.6-24s-33 9.1-41.6 24s-8.6 33.1 0 48s24.4 24 41.6 24zM516.4 356l35.6 0c5.2 0 9.8 3.3 11.4 8.2s-.1 10.3-4.2 13.4c-32 24-64 48-96 72c-4.5 3.4-10.8 3.2-15.1-.6s-5.4-9.9-2.6-14.9c10-18.1 20.1-36.1 30.1-54.2c-11.9 0-23.7 0-35.6 0c-5.2 0-9.8-3.3-11.4-8.2s.1-10.3 4.2-13.4c32-24 64-48 96-72c4.5-3.4 10.8-3.2 15.1 .6s5.4 9.9 2.6 14.9c-10 18.1-20.1 36.1-30.1 54.2zM352 368c0-79.5 64.5-144 144-144s144 64.5 144 144s-64.5 144-144 144s-144-64.5-144-144zM496 480c61.9 0 112-50.1 112-112s-50.1-112-112-112s-112 50.1-112 112s50.1 112 112 112z"/></svg>