<svg xmlns="http://www.w3.org/2000/svg" viewBox="0 0 640 512"><path d="M64 48C37.5 48 16 69.5 16 96c0 86.9 0 173.8 0 260.7c29.8-29.8 59.6-59.6 89.4-89.4c12.5-12.5 32.8-12.5 45.3 0c24.4 24.5 48.9 48.9 73.3 73.4c45.8-45.8 91.6-91.6 137.4-137.4c12.5-12.5 32.8-12.5 45.3 0c2.8 2.8 5.6 5.6 8.4 8.4c-4.9 2.6-9.7 5.3-14.4 8.3c-1.8-1.8-3.6-3.6-5.4-5.4c-6.2-6.2-16.4-6.2-22.6 0C289.6 297.7 206.4 380.9 123.3 464c75.1 0 150.1 0 225.2 0c3.6 5.6 7.6 10.9 11.8 16c-98.8 0-197.5 0-296.3 0c-35.3 0-64-28.7-64-64C0 309.3 0 202.7 0 96C0 60.7 28.7 32 64 32c128 0 256 0 384 0c35.3 0 64 28.7 64 64c0 32.2 0 64.5 0 96.7c-5.3-.5-10.6-.7-16-.7c0-32 0-64 0-96c0-26.5-21.5-48-48-48c-128 0-256 0-384 0zM16 379.3L16 416c0 26.5 21.5 48 48 48c12.2 0 24.5 0 36.7 0c37.3-37.3 74.7-74.7 112-112c-24.5-24.5-48.9-48.9-73.4-73.4c-6.2-6.2-16.4-6.2-22.6 0C83.1 312.2 49.6 345.7 16 379.3zM168 160c0-14.3-7.6-27.5-20-34.6s-27.6-7.1-40 0s-20 20.4-20 34.6s7.6 27.5 20 34.6s27.6 7.1 40 0s20-20.4 20-34.6zm-96 0c0-20 10.7-38.5 28-48.5s38.7-10 56 0s28 28.5 28 48.5s-10.7 38.5-28 48.5s-38.7 10-56 0S72 180 72 160zM557.7 306.3c3.1 3.1 3.1 8.2 0 11.3c-16.8 16.8-33.6 33.6-50.3 50.3c16.8 16.8 33.6 33.6 50.3 50.3c3.1 3.1 3.1 8.2 0 11.3s-8.2 3.1-11.3 0c-16.8-16.8-33.6-33.6-50.3-50.3c-16.8 16.8-33.6 33.6-50.3 50.3c-3.1 3.1-8.2 3.1-11.3 0s-3.1-8.2 0-11.3c16.8-16.8 33.6-33.6 50.3-50.3c-16.8-16.8-33.6-33.6-50.3-50.3c-3.1-3.1-3.1-8.2 0-11.3s8.2-3.1 11.3 0c16.8 16.8 33.6 33.6 50.3 50.3c16.8-16.8 33.6-33.6 50.3-50.3c3.1-3.1 8.2-3.1 11.3 0zM352 368c0-79.5 64.5-144 144-144s144 64.5 144 144s-64.5 144-144 144s-144-64.5-144-144zM496 496c70.7 0 128-57.3 128-128s-57.3-128-128-128s-128 57.3-128 128s57.3 128 128 128z"/></svg>