<svg width="106" height="27" viewBox="0 0 106 27" fill="none" xmlns="http://www.w3.org/2000/svg">
<path d="M42.9055 10.5295C42.9055 10.3957 42.794 10.2873 42.6565 10.2873H40.3122C40.1747 10.2873 40.0632 10.1789 40.0632 10.0452V9.37266C40.0632 8.61707 40.4721 8.2194 41.2696 8.2194H42.636C42.7735 8.2194 42.885 8.11098 42.885 7.97725V6.17491C42.885 6.04118 42.7735 5.93276 42.636 5.93276H40.6766C38.3455 5.93276 37.1595 7.24509 37.1595 9.31301V10.0452C37.1595 10.1789 37.048 10.2873 36.9105 10.2873H35.4864C35.3489 10.2873 35.2374 10.3957 35.2374 10.5295V12.4312C35.2374 12.565 35.3489 12.6734 35.4864 12.6734H36.89C37.0276 12.6734 37.1391 12.7818 37.1391 12.9155V20.6234C37.1391 20.7571 37.2506 20.8655 37.3881 20.8655H39.8755C40.013 20.8655 40.1245 20.7571 40.1245 20.6234V12.9155C40.1245 12.7818 40.236 12.6734 40.3735 12.6734H42.6565C42.794 12.6734 42.9055 12.565 42.9055 12.4312V10.5295Z" fill="white"/>
<path d="M44.6444 8.45446C44.6444 8.5882 44.7559 8.69661 44.8934 8.69661H47.3604C47.4979 8.69661 47.6094 8.5882 47.6094 8.45446V6.17481C47.6094 6.04107 47.4979 5.93266 47.3604 5.93266H44.8934C44.7559 5.93266 44.6444 6.04107 44.6444 6.17481V8.45446ZM44.6444 20.6234C44.6444 20.7571 44.7559 20.8655 44.8934 20.8655H47.3808C47.5183 20.8655 47.6298 20.7571 47.6298 20.6234V10.3704C47.6298 10.2367 47.5183 10.1282 47.3808 10.1282H44.8934C44.7559 10.1282 44.6444 10.2367 44.6444 10.3704V20.6234Z" fill="white"/>
<path d="M55.6246 10.0686C54.3592 10.0686 53.4453 10.4105 52.6994 11.1492C52.5655 11.2818 52.3283 11.2451 52.2591 11.0718L51.9442 10.2828C51.9071 10.1896 51.8148 10.1282 51.7121 10.1282H50.2299C50.0924 10.1282 49.9809 10.2367 49.9809 10.3704V20.6234C49.9809 20.7571 50.0924 20.8655 50.2299 20.8655H52.7173C52.8548 20.8655 52.9663 20.7571 52.9663 20.6234V15.298C52.9663 13.5483 53.6207 12.8126 55.2974 12.8126H56.3571C56.4946 12.8126 56.6061 12.7041 56.6061 12.5704V10.3107C56.6061 10.177 56.4946 10.0686 56.3571 10.0686H55.6246Z" fill="white"/>
<path d="M68.5506 15.477C68.5506 12.3751 66.2195 9.82999 62.825 9.82999C59.5533 9.82999 57.0995 12.2757 57.0995 15.4969C57.0995 18.7181 59.5738 21.1836 62.825 21.1836C65.2841 21.1836 67.3148 19.8252 68.1881 17.6615C68.2501 17.5078 68.1303 17.3461 67.9606 17.3461H65.322C65.2322 17.3461 65.1501 17.3937 65.1014 17.4672C64.6349 18.1709 63.8125 18.5987 62.825 18.5987C61.4688 18.5987 60.523 17.8874 60.1876 16.5943C60.1498 16.4483 60.2677 16.3121 60.4225 16.3121H68.2732C68.3972 16.3121 68.5028 16.2235 68.516 16.1037C68.539 15.8948 68.5506 15.6859 68.5506 15.477ZM62.825 12.3155C64.0637 12.3155 64.9751 12.9185 65.4486 14.0323C65.5129 14.1837 65.3931 14.3436 65.2245 14.3436H60.5315C60.368 14.3436 60.2486 14.1924 60.3043 14.043C60.7112 12.9529 61.6042 12.3155 62.825 12.3155Z" fill="white"/>
<path d="M76.314 9.82999C75.3472 9.82999 74.4534 10.0567 73.6939 10.4744C73.518 10.5711 73.2876 10.4533 73.2876 10.2569V6.17477C73.2876 6.04103 73.1761 5.93262 73.0386 5.93262H70.5512C70.4137 5.93262 70.3022 6.04103 70.3022 6.17477V20.6432C70.3022 20.777 70.4137 20.8854 70.5512 20.8854H72.3202C72.4227 20.8854 72.5147 20.8243 72.5521 20.7315L72.7297 20.2901C72.7924 20.1343 72.995 20.0857 73.1325 20.1861C74.0093 20.8267 75.0949 21.1836 76.314 21.1836C79.6675 21.1836 82.1213 18.7578 82.1213 15.5168C82.1213 12.2558 79.6675 9.82999 76.314 9.82999ZM76.0686 18.4397C74.3305 18.4397 73.0627 17.1671 73.0627 15.4969C73.0627 13.8266 74.3305 12.5541 76.0686 12.5541C77.8067 12.5541 79.0745 13.8266 79.0745 15.4969C79.0745 17.1671 77.8067 18.4397 76.0686 18.4397Z" fill="white"/>
<path d="M89.3708 21.1836C92.7856 21.1836 95.3417 18.7379 95.3417 15.4969C95.3417 12.2558 92.7856 9.82999 89.3708 9.82999C85.9559 9.82999 83.3999 12.2558 83.3999 15.4969C83.3999 18.7379 85.9559 21.1836 89.3708 21.1836ZM89.3708 18.4397C87.6531 18.4397 86.4262 17.2467 86.4262 15.4969C86.4262 13.767 87.6531 12.5541 89.3708 12.5541C91.0884 12.5541 92.3153 13.767 92.3153 15.4969C92.3153 17.2467 91.0884 18.4397 89.3708 18.4397Z" fill="white"/>
<path d="M105.751 20.8655C105.948 20.8655 106.067 20.6523 105.959 20.4912L102.517 15.3535C102.463 15.2717 102.464 15.166 102.52 15.0852L105.721 10.5065C105.833 10.3457 105.715 10.1282 105.515 10.1282H102.849C102.765 10.1282 102.686 10.1701 102.64 10.2394L100.866 12.9202C100.766 13.0717 100.537 13.0676 100.443 12.9126L98.8187 10.247C98.7738 10.1734 98.6924 10.1282 98.6044 10.1282H95.8313C95.6337 10.1282 95.5148 10.3413 95.6226 10.5024L98.7801 15.2246C98.8341 15.3054 98.8337 15.4097 98.7791 15.4901L95.3822 20.4899C95.2728 20.6509 95.3916 20.8655 95.59 20.8655H98.2797C98.3663 20.8655 98.4468 20.8217 98.492 20.7498L100.434 17.6666C100.531 17.5115 100.763 17.5125 100.86 17.6683L102.763 20.7481C102.808 20.8209 102.889 20.8655 102.977 20.8655H105.751Z" fill="white"/>
<path d="M0 5.69058C0 2.54776 2.62009 0 5.85213 0H21.9143C25.1464 0 27.7665 2.54776 27.7665 5.69058V21.3094C27.7665 24.4522 25.1464 27 21.9143 27H5.85213C2.62009 27 0 24.4522 0 21.3094V5.69058Z" fill="white"/>
<path fill-rule="evenodd" clip-rule="evenodd" d="M6.4748 7.50664C6.4748 6.83795 7.03227 6.29587 7.71994 6.29587H20.0468C20.7344 6.29587 21.2919 6.83795 21.2919 7.50663V19.4932C21.2919 20.1619 20.7344 20.7039 20.0468 20.7039H7.71994C7.03227 20.7039 6.4748 20.1619 6.4748 19.4932V7.50664ZM12.4762 11.4051C12.0636 11.4051 11.7291 11.7304 11.7291 12.1316V14.8682C11.7291 15.2695 12.0636 15.5947 12.4762 15.5947H15.2905C15.7031 15.5947 16.0376 15.2695 16.0376 14.8682V12.1316C16.0376 11.7304 15.7031 11.4051 15.2905 11.4051H12.4762Z" fill="#101315"/>
</svg>