<svg width="40" height="40" viewBox="0 0 40 40" fill="none" xmlns="http://www.w3.org/2000/svg">
<path fill-rule="evenodd" clip-rule="evenodd" d="M8.43049 0C3.77446 0 0 3.77446 0 8.43049V31.5695C0 36.2255 3.77446 40 8.43049 40H31.5695C36.2255 40 40 36.2255 40 31.5695V8.43049C40 3.77446 36.2255 0 31.5695 0H8.43049ZM11.1211 9.32735C10.1304 9.32735 9.32735 10.1304 9.32735 11.1211V28.8789C9.32735 29.8696 10.1304 30.6726 11.1211 30.6726H28.8789C29.8696 30.6726 30.6726 29.8696 30.6726 28.8789V11.1211C30.6726 10.1304 29.8696 9.32735 28.8789 9.32735H11.1211ZM16.8966 17.9728C16.8966 17.3785 17.3785 16.8966 17.9728 16.8966H22.0272C22.6215 16.8966 23.1034 17.3785 23.1034 17.9728V22.0272C23.1034 22.6215 22.6215 23.1034 22.0272 23.1034H17.9728C17.3785 23.1034 16.8966 22.6215 16.8966 22.0272V17.9728Z" fill="#2438E9"/>
</svg>
