<?xml version="1.0" standalone="no"?>
<!DOCTYPE svg PUBLIC "-//W3C//DTD SVG 1.0//EN" "http://www.w3.org/TR/2001/REC-SVG-20010904/DTD/svg10.dtd">
<svg xmlns="http://www.w3.org/2000/svg" xmlns:xlink="http://www.w3.org/1999/xlink" id="body_1" width="26" height="26">

<g transform="matrix(0.05078125 0 0 0.05078125 0 0)">
    <path d="M0 64C 0 28.653776 28.653776 0 64 0L64 0L448 0C 483.34622 0 512 28.653776 512 64L512 64L512 448C 512 483.34622 483.34622 512 448 512L448 512L64 512C 28.653776 512 0 483.34622 0 448L0 448L0 64z" stroke="none" fill="#3B5998" fill-rule="nonzero" />
    <path d="M286.96783 455.99973L286.96783 273.53754L348.21182 273.53754L357.3817 202.43488L286.96924 202.43488L286.96924 157.03995C 286.96924 136.45166 292.6899 122.42053 322.2042 122.42053L322.2042 122.42053L359.8596 122.40933L359.8596 58.807915C 353.34988 57.934105 331.0025 55.999973 304.9921 55.999973C 250.70407 55.999973 213.54214 89.14583 213.54214 149.9981L213.54214 149.9981L213.54214 202.43518L152.14034 202.43518L152.14034 273.53784L213.54073 273.53784L213.54073 456.00003L286.9678 456.00003L286.96783 455.99973z" stroke="none" fill="#FFFFFF" fill-rule="nonzero" />
</g>
</svg>