<?xml version="1.0" standalone="no"?>
<!DOCTYPE svg PUBLIC "-//W3C//DTD SVG 1.0//EN" "http://www.w3.org/TR/2001/REC-SVG-20010904/DTD/svg10.dtd">
<svg xmlns="http://www.w3.org/2000/svg" xmlns:xlink="http://www.w3.org/1999/xlink" id="body_1" width="26" height="26">

<g transform="matrix(0.05078125 0 0 0.05078125 0 0)">
    <path d="M0 64C 0 28.653776 28.653776 0 64 0L64 0L448 0C 483.34622 0 512 28.653776 512 64L512 64L512 448C 512 483.34622 483.34622 512 448 512L448 512L64 512C 28.653776 512 0 483.34622 0 448L0 448L0 64z" stroke="none" fill="#00ABF1" fill-rule="nonzero" />
    <path d="M456 131.94144C 441.2832 138.47214 425.47278 142.87938 408.87225 144.86525C 425.80756 134.7089 438.82214 118.62186 444.95285 99.468056C 429.09702 108.87261 411.52908 115.69411 392.83203 119.376495C 377.87128 103.42421 356.53583 93.46219 332.93933 93.46219C 287.61447 93.46219 250.86722 130.20946 250.86722 175.52864C 250.86722 181.95863 251.5949 188.21841 252.99637 194.23279C 184.78851 190.80147 124.32559 158.13802 83.84912 108.4797C 76.783646 120.600655 72.73813 134.6933 72.73813 149.742C 72.73813 178.21384 87.22086 203.32811 109.24284 218.04489C 95.79703 217.61652 83.14555 213.92845 72.07286 207.78357C 72.0686 208.12117 72.0686 208.46729 72.0686 208.81339C 72.0686 248.5721 100.35887 281.7377 137.89624 289.2897C 131.00949 291.155 123.75678 292.16498 116.281364 292.16498C 110.98616 292.16498 105.84982 291.6359 100.843994 290.68832C 111.28404 323.2851 141.59424 347.01495 177.4975 347.67737C 149.41858 369.69226 114.03165 382.81323 75.57368 382.81323C 68.95644 382.81323 62.42432 382.42316 56 381.65576C 92.32598 404.95013 135.4607 418.53778 181.8026 418.53778C 332.74643 418.53778 415.29373 293.4898 415.29373 185.04665C 415.29373 181.48058 415.21146 177.94429 415.0597 174.4222C 431.08148 162.84877 445.0039 148.4015 456 131.9414L456 131.9414L456 131.94144z" stroke="none" fill="#FFFFFF" fill-rule="nonzero" />
</g>
</svg>