<?xml version="1.0" encoding="UTF-8"?><svg id="Layer_1" xmlns="http://www.w3.org/2000/svg" viewBox="0 0 80 80"><path d="M55.69,31.14c.1,.06,.2,.12,.31,.17,.83,.41,1.24,1.24,1.04,2.11-.2,.86-.97,1.45-1.86,1.43-.86-.02-1.58-.63-1.77-1.49-.18-.85,.27-1.71,1.1-2.08,.11-.05,.22-.1,.33-.15h.85Z"/><path d="M12.79,48.58h-2.78c0-.31,0-.58,0-.86,0-1.82,0-3.64,0-5.46,0-2.22,.98-3.9,3.01-4.84,2.05-.95,3.97-.59,5.68,.88,.08,.07,.16,.13,.27,.21,.74-.71,1.58-1.22,2.57-1.45,3.02-.72,6.09,1.36,6.32,4.46,.17,2.3,.04,4.63,.05,6.94,0,.03-.03,.06-.07,.15-.8,0-1.63,0-2.46,0-.38,0-.29-.28-.29-.49,0-1.93,0-3.85-.01-5.78,0-.41-.07-.86-.23-1.23-.44-1.01-1.53-1.52-2.59-1.29-1.07,.23-1.87,1.23-1.88,2.4-.01,1.93,0,3.85,0,5.78,0,.19,0,.38,0,.59h-2.85c0-.22,0-.42,0-.63,0-1.93,.01-3.85,0-5.78-.02-1.63-1.43-2.74-2.94-2.34-1.02,.27-1.76,1.29-1.77,2.44-.01,1.89,0,3.78,0,5.67,0,.19,0,.39,0,.62Z"/><path d="M69.92,43.93h-8.6c.41,1.21,1.16,1.97,2.31,2.24,1.57,.36,2.77-.24,3.66-1.62l2.27,1.12c-.8,1.99-3.86,3.93-7.04,2.9-3.03-.98-4.77-4.19-3.92-7.32,.8-2.94,3.96-4.86,6.89-4.2,2.72,.61,4.98,3.17,4.42,6.9Zm-2.88-2.39c-.39-1.31-1.72-2.15-3.12-2.02-1.16,.11-2.34,1.07-2.45,2.02h5.57Z"/><path d="M41.34,42.93c-.02,3.3-2.72,5.96-6.02,5.93-3.25-.03-5.94-2.75-5.92-6,.02-3.26,2.71-5.92,5.99-5.92,3.31,0,5.97,2.68,5.95,5.99Zm-5.95,3.09c1.74,0,3.14-1.4,3.14-3.13,0-1.71-1.43-3.14-3.15-3.13-1.73,0-3.13,1.41-3.13,3.14,0,1.75,1.38,3.12,3.13,3.12Z"/><path d="M51.17,48.6h-2.8V31.48h2.8v17.12Z"/><path d="M45.71,48.6h-2.78V31.47h2.78v17.13Z"/><path d="M53.83,37.24h2.77v11.34h-2.77v-11.34Z"/></svg>