<?xml version="1.0" encoding="UTF-8"?><svg id="Layer_1" xmlns="http://www.w3.org/2000/svg" viewBox="0 0 80 80"><defs><style>.cls-1{fill:#fff;}.cls-2{fill:#3458a0;}</style></defs><path class="cls-2" d="M76.22,33.9c-4.4-.06-8.8-.12-13.19-.16-6.63-.07-13.26-.12-19.88-.18-7.45-.06-14.9-.12-22.35-.17-1.91-.01-3.81,0-5.72-.03-3.61-.04-7.21-.14-10.82-.13-1.91,0-3.78,.64-3.59,3.53,.17,2.55,.17,5.11,.28,7.66,.1,2.21,1.52,3.52,3.73,3.53,1.2,0,2.41,0,3.61,0l64.91-.91h0c.24,0,.48,0,.71-.01,.81-.01,1.64-.15,2.41-.39,1-.31,1.68-.98,1.85-2.1,.35-2.35,.79-4.69,1.14-7.04,.3-1.99-1.1-3.59-3.1-3.61Z"/><g><polygon class="cls-1" points="69.26 37.65 69.26 38.63 72.04 38.63 71.33 39.34 70.82 38.82 70.82 41.02 73.28 41.02 72.75 40.5 74.62 38.64 74.62 37.65 69.26 37.65"/><polygon class="cls-1" points="71.6 41.43 70.53 41.43 70.53 40.44 68.62 42.36 69.24 42.98 74.35 42.98 74.35 41.7 71.6 41.7 71.6 41.43"/><polygon class="cls-1" points="64.96 38.1 64.52 37.67 63.45 37.67 63.45 38.81 64.07 38.81 64.07 42.98 65.56 42.98 65.56 39.33 65.99 38.9 66.56 38.9 66.56 39.33 68.59 39.33 68.59 37.65 65.41 37.65 64.96 38.1"/><path class="cls-1" d="M57.4,42.98h5.42v-1.95h-1.68v.69h-2.25v-1.27h3.93v-2.8h-5.42v5.33Zm1.68-4.4h2.14v1.01h-2.14v-1.01Z"/><polygon class="cls-1" points="52.34 38.09 51.87 37.62 49.48 37.62 49 38.1 48.53 37.62 47.53 37.62 47.53 38.85 48.27 38.85 48.27 42.98 49.83 42.98 49.83 39.08 51.43 39.08 51.43 42.98 53.19 42.98 53.19 39.08 54.91 39.08 54.91 43.02 56.44 42.98 56.44 37.65 52.78 37.65 52.34 38.09"/><polygon class="cls-1" points="42.4 38.09 41.94 37.62 39.54 37.62 39.07 38.1 38.59 37.62 37.59 37.62 37.59 38.85 38.34 38.85 38.34 42.98 39.89 42.98 39.89 39.08 41.49 39.08 41.49 42.98 43.26 42.98 43.26 39.08 44.98 39.08 44.98 43.02 46.51 42.98 46.51 37.65 42.84 37.65 42.4 38.09"/><path class="cls-1" d="M31.33,43.02h5.52v-5.4h-5.52v5.4Zm1.49-3.94h2.54v2.48h-2.54v-2.48Z"/><polygon class="cls-1" points="24.88 43.02 30.41 43.02 30.41 41.02 28.92 41.02 28.92 41.56 26.37 41.56 26.37 39.08 28.92 39.08 28.92 39.33 30.41 39.33 30.41 37.62 24.88 37.62 24.88 43.02"/><polygon class="cls-1" points="22.38 41.56 21 41.56 21 37.62 19.06 37.62 19.06 43.02 24.28 43.02 24.28 41.02 22.38 41.02 22.38 41.56"/><polygon class="cls-1" points="12.2 40.85 16.14 40.85 16.14 41.56 12.2 41.56 12.2 42.98 18.09 42.98 18.09 39.78 14.09 39.78 14.09 38.71 18.31 38.71 18.31 37.65 12.2 37.65 12.2 40.85"/><polygon class="cls-1" points="5.11 40.85 9.06 40.85 9.06 41.56 5.11 41.56 5.11 42.98 11.01 42.98 11.01 39.78 7.01 39.78 7.01 38.71 11.22 38.71 11.22 37.65 5.11 37.65 5.11 40.85"/></g></svg>