<svg width="20" height="20" viewBox="0 0 20 20" fill="none" xmlns="http://www.w3.org/2000/svg">
<path fill-rule="evenodd" clip-rule="evenodd" d="M20 0H0V20H20V0ZM7.02858 3.60039H10.6141L9.87782 4.86211H7.75746L7.75742 4.86217L7.75739 4.86211L7.71623 4.93336L4.79043 9.98967L7.71606 15.0457L7.75739 15.1172L7.75742 15.1172L7.75746 15.1172L7.02858 16.3716L3.33268 9.98967L7.02858 3.60039ZM7.75742 15.1172L12.9699 6.12383L12.2411 4.86211L7.02852 13.8555L7.71606 15.0457L7.75742 15.1172ZM7.71623 4.93336L7.02852 6.12383L8.08869 7.93571L8.81757 6.68133L7.75742 4.86217L7.71623 4.93336ZM9.39206 16.3716L10.1136 15.1099H12.2412L12.2412 15.1099L12.2412 15.1099H12.2413L12.2475 15.0992L12.9701 13.8702L12.9649 13.8612L15.2083 9.98967L12.2413 4.86211L12.9702 3.60039L16.6661 9.98967L12.9702 16.3716H9.39206ZM12.9649 13.8612L11.8951 12.0143L11.1663 13.2687L12.2412 15.1099H12.2412L12.2475 15.0992L12.9649 13.8612Z" fill="#5B9BF8"/>
</svg>
