<svg viewBox="0 0 1913 1913" xmlns="http://www.w3.org/2000/svg" fill="currentColor" style="fill-rule:evenodd;"><path d="M1112.586 804.257c0 98.2 2.311 179.822-47.108 267.102-40.014 71.02-103.7 114.62-174.242 114.62-96.766 0-153.2-73.65-153.2-182.69 0-214.575 192.496-253.632 374.63-253.632v54.6h-.08Zm253.95 614.152c-16.659 15.065-40.81 16.022-59.383 5.899-83.853-69.506-98.678-101.708-144.59-167.866-138.215 140.844-236.096 183.09-415.2 183.09-212.025 0-377.1-130.801-377.1-392.563 0-204.452 110.873-343.464 268.616-411.614 136.7-60.1 327.601-71.02 473.627-87.28v-32.681c0-60.02 4.782-130.881-30.528-182.851-30.688-46.151-89.593-65.36-141.483-65.36-96.048 0-181.495 49.259-202.459 151.206-4.304 22.717-20.804 45.194-43.76 46.39L450.29 438.236c-20.644-4.463-43.68-21.202-37.622-52.607C468.782 89.433 736.283 0 975.886 0c122.511 0 282.725 32.68 379.252 125.46 122.591 114.462 110.954 267.183 110.954 433.455v392.404c0 118.048 49.1 169.778 95.012 233.465 16.26 22.876 19.688 50.216-.797 66.875-51.571 43.123-142.997 122.512-193.133 167.308l-.638-.558Zm283.682 158.46c-219.038 117.33-457.127 173.844-673.774 173.844-320.986 0-631.848-111.034-883.248-295.399-22.08-16.1-38.34 12.275-20.007 33.159 233.147 265.11 540.9 424.526 882.85 424.526 243.987 0 527.19-96.766 722.635-278.5 32.361-30.05 4.623-75.325-28.456-57.63Zm53.405 176.634c-7.254 18.094 8.29 25.507 24.71 11.717 106.729-89.273 134.308-276.269 112.468-303.21-21.681-26.782-208.199-49.898-322.022 30.05-17.536 12.275-14.507 29.253 4.942 26.861 64.165-7.652 206.843-24.869 232.19 7.812 25.427 32.68-28.296 166.909-52.288 226.77Z"/></svg>