<svg viewBox="0 0 2009 2013" xmlns="http://www.w3.org/2000/svg" fill="currentColor" style="fill-rule:evenodd;clip-rule:evenodd;stroke-linejoin:round;stroke-miterlimit:2"><path d="M1764.58 730.98c16.71-13.08 20.34-36.938 8.23-54.499-141.33-202.373-355.82-208.428-415.64-208.428-92.53 0-175.25 33.183-243.92 60.312-37.54 14.896-69.63 28.46-96.28 28.46-35.847 0-77.145-20.225-124.257-38.997-57.042-22.768-120.503-44.81-189.656-44.81-258.205 0-524.039 210.73-524.039 614.142 0 242.34 93.254 497.52 208.55 662.11.12.11.12.24.242.24 49.897 70 96.766 133.34 146.542 179.36 56.073 51.83 116.143 82.6 186.266 82.6 53.893 0 95.797-13.69 137.216-30.77 51.108-20.95 101.126-48.08 182.996-48.08 68.3 0 110.09 17.69 149.69 34.88 48.32 21.08 94.1 41.42 166.77 41.42 75.93 0 139.52-33.18 195.47-84.77 50.26-46.39 94.46-108.15 137.46-170.04.12 0 .12-.12.24-.12 97.37-142.31 137.46-282.19 138.79-288.73 4-19.86-7.51-39.48-26.64-45.78-6.79-2.3-231.56-94.46-231.56-352.3 0-227.081 183.11-328.207 193.53-336.2Zm-81.75-40.33c-62.49 47.112-191.72 167.131-191.72 376.53 0 248.76 173.43 369.99 250.46 411.28-15.99 45.18-53.29 136.98-117.12 230.11-39.48 56.92-79.69 114.09-125.95 156.72-40.69 37.54-85.99 63.7-141.21 63.7-58.86 0-95.68-17.8-134.8-34.88-47.96-20.83-98.82-41.42-181.66-41.42-80.538 0-135.28 21.08-186.024 42.51-41.903 17.68-80.416 36.33-134.188 36.33-50.14 0-91.922-24.34-131.888-61.28-46.264-42.75-89.379-101.97-135.642-167.01-107.303-153.2-194.138-390.69-194.138-616.08 0-347.097 221.993-534.088 444.107-534.088 71.09 0 134.794 28.944 190.746 51.35 45.416 18.287 86.836 32.457 123.167 32.457 34.52 0 77.03-14.897 125.71-34.153 60.56-23.859 132.98-54.741 214.49-54.741 46.99 0 207.82 3.512 325.66 142.666v-.001Zm-363.57-315.972c65.64-78.116 111.78-186.266 111.78-294.416 0-16.835-1.69-33.669-4.72-47.475-4.24-18.893-21.32-31.973-40.57-31.246-107.3 4.117-235.56 70.727-312.58 159.985-60.56 68.91-116.148 177.788-116.148 287.755 0 19.135 3.27 38.27 4.966 44.689 3.633 15.017 15.744 26.523 30.883 29.55 8.119 1.575 21.199 3.27 34.149 3.27 97.62 0 221.03-64.308 292.24-152.112Zm31.61-288.724c-1.46 87.44-39.85 174.276-93.01 237.494-.24.122-.37.364-.49.606-54.01 66.61-144.84 118.202-220.42 122.441.97-89.136 47.36-176.577 96.41-232.287.12 0 .12-.121.24-.242 54.26-62.856 138.91-112.995 217.27-128.012Z"/></svg>