<svg viewBox="0 0 2009 2013" xmlns="http://www.w3.org/2000/svg" fill="currentColor" style="fill-rule:evenodd;clip-rule:evenodd;stroke-linejoin:round;stroke-miterlimit:2"><path d="M1557.25 63.018c-1.28 5.516-3.92 18.19-7.68 34.385-2.56 11.383-5.12 23.94-7.68 40.252l-.24 2.112c-7.12 32.624-15.68 74.989-25.04 122.869-31.77 151.502-85.85 405.924-132.81 625.256 3.35-183.54 7.68-401.699 10.32-458.146 2.08-43.42-11.04-74.05-29.37-94.82-27.76-31.451-69.6-41.661-105.77-34.972-26.08 4.929-48.64 18.542-62.56 37.2-6 8.098-19.52 37.084-36.25 79.566-49.84 126.859-141.45 388.087-190.733 514.476-23.363-62.667-48.965-157.605-57.926-246.794-7.44-74.284-38.003-99.398-62.006-105.97-20.801-5.75-44.964-.234-67.526 15.022-32.483 22.062-62.486 65.365-62.486 65.365-.72 1.057-1.36 2.113-2 3.169 0 0-70.406 128.032-120.33 210.649-.801-5.868-1.601-11.266-2.401-15.843-3.68-21.006-10.721-37.553-18.402-46.941-18.802-23.47-47.044-45.885-82.487-40.722-26.323 3.756-65.607 26.64-109.29 106.674-12.402 22.65-23.763 36.145-36.404 41.543-10.96 4.694-21.682.939-31.523-3.286-18.242-7.862-34.643-19.832-48.004-27.108-26.323-14.787-47.925-14.67-64.806-8.802-17.762 6.103-32.563 19.715-42.644 40.252l-1.36 2.934c-13.762-15.725-32.083-23.823-50.325-26.991-24.722-4.107-48.164 1.643-48.164 1.643-1.68.352-3.36.939-4.96 1.525-27.763 10.797-51.926 45.416-51.926 87.546 0 20.189 5.44 39.549 14.482 54.809.4.7.8 1.28 1.28 1.99 25.682 37.67 58.085 35.79 96.569 33.8h.08c9.76-.47 19.441-3.64 28.242-9.51 1.52 2.94 3.44 5.64 5.6 8.1 31.604 35.09 87.769 83.32 140.494 90.36h.08c55.525 7.28 100.41-14.67 134.892-44.01 7.761-6.45 14.882-13.37 21.362-20.3 4.24 31.69 8.801 69.83 14.482 105.97 7.84 50.46 18.241 97.17 30.722 122.05a42.125 42.125 0 0 0 5.281 7.98c14.401 16.9 34.483 23 49.845 20.54l-.4.11c32.643-5.04 68.726-32.97 101.289-76.04 42.804-56.57 83.128-140.12 113.45-194.57 9.281 42.71 22.002 103.74 34.324 163.94.16.59.24 1.17.4 1.64 15.041 60.44 28.482 120.88 37.203 162.77 2.4 11.5 3.12 25.35 5.44 37.91.4 1.87.88 3.75 1.52 5.63l.96 2.93c.24 1.29.56 2.58.96 3.76 10.402 34.97 47.045 50.69 72.328 55.04 2.24.35 4.56.58 6.8.58 8.24 0 14.322-.58 22.562-3.64 10.481-3.87 18.882-11.85 23.202-22.17 0 0 86.164-207.25 151.054-364.85 3.28 221.21 8.64 592.39 9.6 682.05v.82c.48 13.61 11.92 44.95 32.96 78.28 28.01 44.12 71.53 92.94 108.17 109.49.64.23 1.2.47 1.76.7 19.53 7.75 36.97 6.57 52.33.24 17.68-7.28 33.84-23.59 45.04-47.53.4-.82.8-1.65 1.12-2.58 7.52-19.6 19.37-60.09 31.93-111.61 10.4-42.48 90.41-393.13 94.41-409.56.08-.35.08-.59.15-.82 9.32-41.69 18.57-83.39 27.77-125.1l2.56 2.93c34.24 38.15 124.97 115.6 170.57 136.84.16.12.4.23.64.23 19.37 8.69 38.17 6.93 56.17-4.69 13.28-8.45 27.44-25.58 39.28-49.29 17.44-34.74 32.89-86.02 46.01-126.74 4.48-13.85 10.64-29.46 14-38.02 31.12-9.63 83.29-30.04 113.05-33.92 18.88-2.34 33.44-17.84 34.88-36.73 0 0 5.2-72.99 2.16-130.61-1.6-29.928-6.24-56.098-12.88-70.767-2.16-4.812-5.28-9.154-9.12-12.674-12.96-12.088-35.92-23.706-62.97-28.87a40.17 40.17 0 0 0-7.52-.703c-41.52 0-95.29 17.25-132.97 47.293 7.36-186.474 20.48-481.382 36.01-656.238 10.55-119.817-1.84-186.709-18.57-224.027-.8-1.76-1.68-3.52-2.72-5.163-1.76-4.93-4.32-9.271-7.6-13.027-3.12-4.928-5.92-8.566-8.56-11.5-2.16-2.7-4.4-4.812-6.56-6.455-13.28-13.378-27.68-19.363-42.08-21.123-32.17-12.205-66.33-16.782-94.97-13.378-16.48.352-32.09 3.286-46.01 14.903-16.64 10.797-26.96 25.231-30.48 43.304l.72-2.817Zm157.78 37.318c.8.94 1.68 1.76 2.64 2.582.4.822.96 1.76 1.44 2.582a47.143 47.143 0 0 0 2.32 3.755c.64 1.174 1.28 2.465 1.92 3.638 13.12 31.099 19.52 86.02 11.04 182.367-24.08 271.79-42.57 831.91-42.57 831.91l.32-3.16c-.24 2.46-.56 7.86-.08 11.61a40.83 40.83 0 0 0 5.76 16.32c4.96 8.09 11.6 13.14 18.73 16.07 9.6 3.99 26.08 9.28 44.24-8.8 1.84-1.87 5.52-5.63 9.68-13.96 4.08-8.22 13.6-31.92 34.48-94.47.32-1.06.64-2 .88-3.05 1.92-2.23 3.92-4.81 6.24-8.22.73-1.06 1.39-2.15 2-3.28 16.25-29.46 60.97-43.893 93.29-44.95 4.8 1.057 9.36 2.348 13.12 3.99 1.76 8.8 2.48 20.54 3.12 33.33 1.69 30.86.72 66.66-.4 91.06-37.12 10.57-82.24 28.17-101.2 31.69-.57.12-1.2.24-1.76.35-9.36 2.23-22.81 9.27-33.13 26.88-10.72 18.19-23.84 61.49-38.24 105.61-9.84 30.05-19.76 60.91-31.68 79.57-41.69-26.76-114.41-95.64-132.9-113.48 1.92-39.67 9.36-160.54 11.44-195.75.08-.82.08-1.52.08-2.34v-7.87c1.28-17.6.96-30.98-.08-37.31-1.68-9.51-5.36-15.847-8.24-19.602-8.16-11.031-18.48-15.256-28.64-16.312-9.36-.94-21.68.234-33.52 12.087-3.36 3.403-10.56 13.026-17.12 33.097-8.88 27.22-46.97 203.6-89.77 395.36-5.04 21-83.93 367.08-94.25 409.09h-.08c-11.12 45.77-21.36 81.91-28.24 100.34l-1.2 2.11c-23.45-14.79-47.93-47.17-65.53-75.1-9.84-15.38-19.12-36.39-20.56-39.91-1.44-135.77 2.88-781.57-13.68-862.657-7.04-34.385-33.13-40.018-41.37-40.37-9.44-.352-31.04 1.526-41.6 29.69-20.48 53.396-146.574 357.337-197.058 478.917-.64-5.28-1.36-10.44-2.32-15.14 0-.11 0-.11-.08-.23-8.802-42.37-22.483-103.62-37.684-164.88-22.082-107.73-45.924-217.46-50.005-229.43l.4 1.18c-9.76-31.69-28.562-39.552-41.044-41.782-9.92-1.878-20.401-.587-30.962 4.929-7.921 4.224-17.362 12.791-25.843 24.057-26.482 33.096-70.646 130.966-119.61 207.246-14.482 22.65-29.364 43.18-44.485 58.56a228.728 228.728 0 0 1-8.48 8.21c-17.282-60.9-26.003-172.51-35.204-224.85-3.2-18.07-7.12-31.09-10.321-37.55-3.36-6.805-7.36-11.498-10.801-14.55-13.281-11.852-41.604-20.654-69.766 10.21-11.522 12.67-29.123 38.61-54.165 59.85-18.802 15.96-42.564 29.69-72.727 25.7-29.843-3.99-59.366-30.39-80.648-52.69.72-16.31 1.76-36.029 4.88-54.101 1.12-6.454 3.841-14.67 5.921-20.42 15.362 8.567 34.484 21.828 55.285 30.395 19.762 8.215 40.804 12.676 62.326 10.327 33.763-3.755 71.847-23.353 105.29-84.729 11.841-21.71 22.482-37.905 32.243-49.523 5.52-6.572 13.361-12.557 16.721-15.021 2.32 2.112 6.561 6.22 9.201 9.27.8 5.047 6.56 41.661 8.641 63.606 1.68 18.19 3.92 34.737 7.2 45.885 3.041 10.21 7.441 17.955 11.762 23.236 10.08 12.205 22.562 17.135 35.843 17.015 10.241 0 25.363-3.28 40.164-20.887 31.923-37.553 157.134-262.167 169.856-285.05 2.64-3.639 10.48-14.318 20.722-25.232 4.56-4.811 12.32-11.031 18.321-15.49 2.32 7.745 5.28 19.01 6.48 30.511 8.242 82.852 29.844 170.28 51.686 236.115 19.521 58.793 41.123 101.513 53.765 114.773 17.121 18.19 35.203 17.95 47.124 14.43 5.28-1.52 12.881-4.69 20.162-13.02 3.2-3.64 9.04-12.8 15.68-27.35 37.61-82.848 155.06-420.942 214.26-571.272 12.72-32.389 21.44-55.038 26.08-61.258 2.96-4.107 8.8-5.633 14.57-6.454 10.56-1.526 22.88 1.056 30.48 10.679 6.56 8.332 9.2 20.654 8.48 36.966-4.72 100.102-14.8 708.109-15.28 733.809-.64 10.91-5.44 94.82-2.32 114.89 1.44 9.62 4.8 15.96 7.12 19.48 6.96 10.44 15.92 15.02 23.92 17.13 10.64 2.7 22.64 2.11 34.8-7.16 3.52-2.58 8.56-7.15 12.8-15.84 2.24-4.58 6-15.61 10.08-35.79 7.93-39.32 16.57-74.05 26.81-115.71.16-.35.24-.71.32-1.06 51.2-238.342 138.41-646.848 182.41-856.91.08-.234.08-.352.16-.586 9.53-48.937 18.25-92.005 25.37-124.63.48-1.877.72-3.872.88-5.75 2.08-13.143 4.16-23.353 6.32-32.624 2.48-11.03 4.8-22.18 5.92-27.578h2.24c1.92 0 3.76-.117 5.6-.469 18.56-2.582 41.2 1.526 62.16 10.21 3.68 1.525 7.53 2.581 11.45 2.933ZM536.916 1277.5c-2.48.36-4.8.94-6.88 1.53 1.68-.47 3.44-.94 5.12-1.17l1.76-.36ZM98.797 996.796c-2.16.117-4.32.352-6.48.352-1.84.117-3.92 1.526-5.441.235-1.68-3.52-2.4-7.863-2.4-12.322 0-3.873 1.76-9.154 2.88-12.205 1.6-.117 3.36-.117 5.2 0 2.08.117 5.12-1.173 6.641.704 3.12 5.398 1.28 16.43-.4 23.236ZM1735.51 112.424c2.96.704 6 1.056 9.12 1.056 0 0-3.44.352-9.12-1.056Zm-19.92-11.97h.08l1.36 1.525.08.118c-.56-.587-1.04-1.174-1.52-1.643Zm.32 0h-.24 1.36l.64.117h-1.12c-.24 0-.4 0-.64-.117Zm3.04.117h.08-.08Zm-3.36-.235c-.8-.938-1.6-1.995-2.4-3.168.72 1.056 1.6 2.23 2.4 3.168Zm-81.61-14.551.32-1.409s-.48 1.526-.64 1.995c.64-1.76 1.04-3.52 1.44-5.28-.32 1.643-.56 3.285-1.12 4.694Zm158.57-13.026-.48-.705.48.705Z"/></svg>