<svg viewBox="0 0 2009 2013" xmlns="http://www.w3.org/2000/svg" fill="currentColor" style="fill-rule:evenodd;clip-rule:evenodd;stroke-linejoin:round;stroke-miterlimit:2"><path d="M1908.243 1011.958c-7.9-57.098-48.19-87.932-103.39-87.932-51.71 0-124.41 28.11-124.41 170.403 0 77.951 33.28 160.448 120.03 160.448 57.81 0 98.1-39.934 107.77-107.004h99.86c-18.41 121.444-91.1 188.524-207.63 188.524-141.94 0-219.9-104.207-219.9-241.968 0-141.377 74.47-251.948 223.41-251.948 105.12 0 194.51 54.37 204.12 169.477h-99.86Zm-816.92-335.017v-.333h99.87v239.247h1.77c27.16-45.304 84.1-73.407 134.92-73.407 142.79 0 212.02 112.415 212.02 249.279 0 125.933-61.32 244.66-195.39 244.66-61.32 0-127.03-15.37-156.83-77.02h-1.73v64.38h-94.63V728.634l-329.47 607.763L0 1335.667l356.851-658.726h734.472Zm-373.108 584.406L994.55 751.264H401.116L124.79 1261.347h593.425Zm596.498-337.333h.02-.03.01c-84.07.013-127.02 66.186-127.02 165.862 0 94.233 46.46 164.961 127.04 164.961 91.12 0 125.29-83.388 125.29-164.961-.06-85.173-43-165.862-125.31-165.862Z"/></svg>