<svg viewBox="0 0 2009 2013" xmlns="http://www.w3.org/2000/svg" fill="currentColor" style="fill-rule:evenodd;clip-rule:evenodd;stroke-linejoin:round;stroke-miterlimit:2"><path d="M1094.97 677.598v-.002h99.57v238.532h1.76c27.08-45.169 83.84-73.188 134.51-73.188 142.36 0 211.39 112.079 211.39 248.533 0 125.557-61.13 243.932-194.8 243.932-61.14 0-126.65-15.33-156.37-76.793h-1.72v64.185h-94.35V678.812l-348.117 642.58v-.003H0l348.762-643.791h746.208Zm814.47 334.343c-7.87-56.927-48.04-87.669-103.08-87.669-51.56 0-124.04 28.026-124.04 169.893 0 77.718 33.18 159.963 119.67 159.963 57.64 0 97.81-39.809 107.45-106.679H2009c-18.35 121.084-90.83 187.956-207.01 187.956-141.51 0-219.24-103.894-219.24-241.24 0-140.954 74.24-251.196 222.74-251.196 104.81 0 193.93 54.209 203.51 168.972h-99.56Zm-591.76-87.679c-83.81.014-126.64 65.988-126.64 165.366 0 93.951 46.32 164.471 126.66 164.471 90.85 0 124.92-83.141 124.92-164.471-.06-84.918-42.87-165.366-124.94-165.366h.02-.03.01Z"/></svg>