<svg width="100%" height="100%" viewBox="0 0 1913 1913" version="1.1" xmlns="http://www.w3.org/2000/svg" fill="currentColor" style="fill-rule:evenodd;">
    <g transform="matrix(21.7046,0,0,21.7046,219.628,38.3944)">
        <path d="M69.611,61.769L69.669,61.769L69.669,58.231L69.611,58.231C68.722,44.669 57.687,33.731 43.3,33.731C39.985,33.731 36.774,34.352 33.817,35.491C35.651,31.822 36.569,27.744 36.569,23.3C36.569,23.3 36.569,0 36.569,0C36.569,-0.977 35.777,-1.769 34.8,-1.769L22.5,-1.769C21.523,-1.769 20.731,-0.977 20.731,0L20.731,23.2C20.731,26.408 19.62,29.276 17.454,31.445C17.156,31.739 -1.244,49.942 -1.244,49.942C-1.938,50.629 -1.945,51.749 -1.258,52.444L7.442,61.244C7.773,61.579 8.224,61.768 8.695,61.769C9.166,61.77 9.618,61.584 9.951,61.251L18.014,53.187C17.441,55.349 17.131,57.631 17.131,60C17.131,74.904 28.718,86.369 43.3,86.369C57.489,86.369 68.719,75.52 69.611,61.769ZM66.131,60C66.131,47.566 56.291,37.269 43.3,37.269C37.461,37.269 31.99,39.488 28.005,43.195C27.73,43.45 26.857,44.317 26.61,44.588C22.99,48.581 20.669,53.965 20.669,60C20.669,72.896 30.682,82.831 43.3,82.831C56.108,82.831 66.131,72.622 66.131,60ZM58.459,61.769L58.569,61.769L58.569,58.231L58.463,58.231C57.578,50.794 51.177,45.031 43.4,45.031C34.903,45.031 28.231,52.069 28.231,60C28.231,68.158 34.916,75.069 43.3,75.069C51.362,75.069 57.573,68.957 58.459,61.769ZM43.096,48.573C36.739,48.736 31.769,54.026 31.769,60C31.769,66.242 36.884,71.531 43.3,71.531C49.984,71.531 55.031,66.076 55.031,60L55.027,59.704C54.868,53.513 49.716,48.569 43.4,48.569L43.096,48.573ZM8.707,57.491L26.049,40.149C26.053,40.145 26.058,40.141 26.062,40.137C30.712,35.579 33.031,29.903 33.031,23.3C33.031,23.3 33.031,1.769 33.031,1.769C33.031,1.769 24.269,1.769 24.269,1.769C24.269,1.769 24.269,23.2 24.269,23.2C24.269,27.39 22.782,31.12 19.951,33.951C19.949,33.953 19.946,33.955 19.944,33.958C19.944,33.958 6.695,47.065 2.501,51.214C2.501,51.214 8.707,57.491 8.707,57.491Z"/>
    </g>
</svg>
