<svg viewBox="0 0 1913 1913" xmlns="http://www.w3.org/2000/svg" fill="currentColor" style="fill-rule:evenodd;clip-rule:evenodd;stroke-linejoin:round;stroke-miterlimit:2"><path d="M0 1280.32V1.427h435.191c131.462 0 234.262 26.157 308.4 78.473 74.139 52.316 111.246 125.52 111.321 219.613a275.738 275.738 0 0 1-65.133 181.162A357.55 357.55 0 0 1 614.335 592.78v2.578c90.356 11.584 162.178 45.216 215.465 100.895 53.225 55.45 82.035 130.001 79.931 206.833 0 114.644-41.105 206.164-123.315 274.544-82.211 68.39-192.26 102.58-330.149 102.58L0 1280.32Zm1003.16 0V1.427h435.19c131.46 0 234.26 26.157 308.4 78.473 74.14 52.316 111.25 125.52 111.32 219.613a275.683 275.683 0 0 1-65.13 181.162A357.544 357.544 0 0 1 1617.5 592.78v2.578c90.35 11.584 162.17 45.216 215.46 100.895 53.23 55.45 82.04 130.001 79.93 206.833 0 114.644-41.1 206.164-123.31 274.544-82.21 68.39-192.26 102.58-330.15 102.58l-456.27.11ZM247.528 718.674v371.856h170.175c72.943 0 129.705-16.82 170.287-50.45 40.582-33.63 60.836-80.269 60.761-139.909 0-121.073-79.931-181.61-239.793-181.61l-161.43.113Zm1003.162 0v371.856h170.17c72.95 0 129.71-16.82 170.29-50.45 40.58-33.63 60.84-80.269 60.76-139.909 0-121.073-79.93-181.61-239.79-181.61l-161.43.113ZM247.528 191.781v335.305h134.525c66.591 0 118.906-15.769 156.947-47.308s56.725-76.007 56.053-133.405c0-103.061-73.579-154.592-220.735-154.592h-126.79Zm1003.162 0v335.305h134.52c66.6 0 118.91-15.769 156.95-47.308 38.04-31.539 56.73-76.007 56.05-133.405 0-103.061-73.57-154.592-220.73-154.592h-126.79Z"  transform="translate(0 315.627)"/></svg>