<svg viewBox="0 0 1913 1913" xmlns="http://www.w3.org/2000/svg" fill="currentColor" style="fill-rule:evenodd;clip-rule:evenodd;stroke-linejoin:round;stroke-miterlimit:2"><path d="m1382.69 511.304-10.53-53.093c-9.44-47.637-30.87-92.649-79.77-109.866-15.68-5.507-33.46-7.875-45.48-19.276-12.01-11.401-15.57-29.107-18.35-45.526-5.14-30.137-9.98-60.299-15.26-90.384-4.55-25.865-8.16-54.92-20.02-78.648-15.44-31.861-47.48-50.493-79.35-62.821a456.47 456.47 0 0 0-49.89-15.441C984.432 15.248 900.744 7.527 818.852 3.127a2058.467 2058.467 0 0 0-294.904 4.889c-72.99 6.64-149.865 14.67-219.219 39.917-25.349 9.239-51.471 20.331-70.748 39.915-23.651 24.063-31.371 61.277-14.102 91.285 12.276 21.309 33.069 36.364 55.125 46.325a447.273 447.273 0 0 0 89.506 29.132c85.706 18.941 174.467 26.379 262.015 29.544a1995.388 1995.388 0 0 0 290.82-9.495 1656.086 1656.086 0 0 0 71.514-9.446c28.021-4.297 46.021-40.946 37.761-66.475-9.89-30.522-36.445-42.361-66.478-37.754a1168.07 1168.07 0 0 1-13.258 1.981l-3.191.464a1853.853 1853.853 0 0 1-30.52 3.603 1617.345 1617.345 0 0 1-63.211 5.558c-47.296 3.295-94.727 4.813-142.135 4.89-46.578 0-93.188-1.312-139.67-4.375a1776.239 1776.239 0 0 1-63.458-5.302c-9.604-1.003-19.177-2.059-28.749-3.242l-9.11-1.158-1.986-.283-9.445-1.364c-19.297-2.909-38.601-6.254-57.698-10.295a8.673 8.673 0 0 1-4.882-3.039 8.667 8.667 0 0 1-1.915-5.427 8.67 8.67 0 0 1 1.915-5.429 8.677 8.677 0 0 1 4.882-3.038h.359c16.552-3.526 33.224-6.537 49.952-9.163a2499.14 2499.14 0 0 1 16.784-2.573h.151c10.474-.695 21.004-2.573 31.422-3.809a1998.535 1998.535 0 0 1 273.031-9.625c44.241 1.286 88.458 3.886 132.491 8.364 9.469.978 18.89 2.008 28.311 3.166 3.597.437 7.227.951 10.857 1.389l7.307 1.055a1012.973 1012.973 0 0 1 63.594 11.556c31.24 6.794 71.37 9.007 85.27 43.235 4.42 10.861 6.42 22.931 8.87 34.332l3.12 14.541c.08.26.14.527.18.797 7.35 34.314 14.72 68.629 22.1 102.943.55 2.535.55 5.154.04 7.694a18.885 18.885 0 0 1-3.04 7.069 18.876 18.876 0 0 1-5.6 5.268 18.872 18.872 0 0 1-7.25 2.591h-.21l-4.5.617-4.45.592a2522.099 2522.099 0 0 1-42.36 5.148 2733.709 2733.709 0 0 1-83.673 8.235 2926.177 2926.177 0 0 1-166.84 9.085 3004.785 3004.785 0 0 1-85.163 1.055 2955.431 2955.431 0 0 1-338.012-19.662c-12.142-1.441-24.291-2.986-36.44-4.556 9.421 1.21-6.844-.926-10.139-1.389a2167.338 2167.338 0 0 1-23.162-3.371c-25.916-3.887-51.678-8.674-77.542-12.868-31.269-5.148-61.173-2.574-89.457 12.868a130.121 130.121 0 0 0-53.865 55.846c-12.199 25.221-15.827 52.681-21.283 79.781-5.456 27.099-13.948 56.258-10.732 84.078 6.923 60.043 48.898 108.839 109.274 119.752 56.799 10.29 113.906 18.626 171.171 25.734a3163.484 3163.484 0 0 0 677.823 9.827c18.37-1.715 36.72-3.581 55.05-5.608 5.72-.63 11.51.032 16.95 1.931a38.446 38.446 0 0 1 14.46 9.046 38.538 38.538 0 0 1 9.16 14.398 38.536 38.536 0 0 1 2.05 16.936l-5.71 55.536c-11.51 112.221-23.03 224.441-34.54 336.651-12.01 117.83-24.1 235.66-36.27 353.48l-10.29 99.52c-3.29 32.66-3.76 66.34-9.96 98.61-9.78 50.76-44.14 81.92-94.267 93.32a657.958 657.958 0 0 1-139.95 16.37c-52.218.28-104.412-2.03-156.63-1.75-55.744.31-124.019-4.83-167.048-46.32-37.811-36.44-43.036-93.5-48.181-142.83-6.86-65.33-13.665-130.64-20.405-195.94l-37.836-363.1-24.473-234.936c-.407-3.885-.822-7.722-1.205-11.631-2.935-28.031-22.779-55.465-54.048-54.045-26.765 1.181-57.185 23.932-54.045 54.045l18.144 174.179 37.522 360.288c10.689 102.35 21.352 204.71 31.989 307.09 2.059 19.61 3.989 39.27 6.151 58.88 11.758 107.16 93.603 164.92 194.952 181.18 59.19 9.52 119.823 11.48 179.891 12.45 77.002 1.24 154.771 4.2 230.513-9.75 112.226-20.59 196.436-95.53 208.456-211.78 3.43-33.56 6.86-67.13 10.3-100.7 11.41-111.04 22.8-222.09 34.17-333.15l37.22-362.873 17.06-166.306a38.598 38.598 0 0 1 9.93-22.112 38.632 38.632 0 0 1 21.16-11.83c32.09-6.254 62.77-16.936 85.6-41.361 36.33-38.881 43.57-89.583 30.72-140.694ZM730.174 1788.94a9.283 9.283 0 0 0-4.634-2.16c1.388.67 2.784 1.34 3.709 1.85l.925.31Zm-.115-14.77a11.344 11.344 0 0 0-4.404 3.4l1.364-.88c.934-.84 2.242-1.85 3.04-2.52Zm41.496-890.455c-68.714 29.412-146.69 62.772-247.759 62.772a469.14 469.14 0 0 1-125.073-17.246l69.895 717.639c2.473 30 16.138 57.96 38.282 78.35a119.916 119.916 0 0 0 81.239 31.69s99.107 5.15 132.18 5.15c35.585 0 142.318-5.15 142.318-5.15 30.09 0 59.079-11.31 81.215-31.7a119.888 119.888 0 0 0 38.274-78.34l74.864-793.023c-33.46-11.423-67.222-19.017-105.289-19.017-65.826-.024-118.866 22.647-180.146 48.875Zm493.315-310.874c-11.52 10.961-28.9 16.058-46.06 18.603-192.51 28.566-387.809 43.028-582.425 36.646-139.28-4.762-277.1-20.229-414.988-39.709-13.511-1.907-28.155-4.372-37.445-14.335-17.5-18.786-8.905-56.618-4.349-79.316 4.168-20.795 12.146-48.512 36.878-51.471 38.604-4.53 83.436 11.761 121.625 17.551a2302.63 2302.63 0 0 0 138.458 16.857c197.704 18.015 398.726 15.21 595.556-11.143a2487.178 2487.178 0 0 0 107.24-16.806c31.72-5.687 66.91-16.368 86.08 16.497 13.15 22.39 14.9 52.346 12.87 77.644a43.308 43.308 0 0 1-13.46 28.982h.02Zm-538.904 8.576 2.21-1.261.83-.463.742-.797a12.7 12.7 0 0 0-3.782 2.521ZM187.761 580.3h.179c0 .183.283.359.386.542a3.858 3.858 0 0 0-.565-.542Zm539.118-2.76 1.184 1.108.772.463a11.942 11.942 0 0 0-1.956-1.571Zm-545.244-2.234c.277.471.521.898.706 1.225.185.328.309.556.346.63.074.147-.202-.323-1.052-1.855Zm-3.062-4.036c.257-.184 1.03.845 1.827 2.082-1.21-1.133-1.981-1.979-1.853-2.082h.026Zm-3.115-24.091c.245-.116.142.875-.07 2.139-.213 1.264-.534 2.802-.727 3.78-.077-2.96.077-5.585.797-5.919Z" transform="translate(228.643)"/></svg>