<svg xmlns="http://www.w3.org/2000/svg" fill="currentColor" style="fill-rule:evenodd;" viewBox="0 0 2009 2013"><path d="M11.42 20.408H9.63c-.018 0-.126-.011-.144-.013-.518-.116-.838-.517-.838-.985 0-.06.006-.118.016-.174l.007-.036.18-.813a6.988 6.988 0 0 1-2.638-1.558.503.503 0 0 1-.087-.108.984.984 0 0 1 .078-1.297l.006-.006 1-.97a1.016 1.016 0 0 1 1.366 0 4.294 4.294 0 0 0 3.035 1.181c.778 0 1.678-.241 1.678-.921 0-.394-.354-.568-1.754-1.082l-.461-.17c-1.854-.664-3.755-1.668-3.755-4.07 0-2.35 1.704-3.928 4.476-4.184l.174-.857a.983.983 0 0 1 .96-.781l1.941.013c.592.133.926.657.807 1.179l-.185.934c.811.32 1.564.77 2.23 1.333.246.253.346.508.339.773a.952.952 0 0 1-.299.67l-.919.92a1.023 1.023 0 0 1-1.354.034 4.484 4.484 0 0 0-2.892-1.058c-.239 0-1.438.034-1.438.71 0 .429.517.666 1.612 1.07l.304.112c2.154.718 4.164 1.718 4.164 4.11 0 2.414-1.819 4.119-4.67 4.419l-.182.838a.985.985 0 0 1-.967.787Z"  transform="translate(-428.398 -425.928) scale(119.508)"/></svg>