<svg viewBox="0 0 1984 1984" xmlns="http://www.w3.org/2000/svg" fill="currentColor" style="fill-rule:evenodd;"><path d="M988.815 1366.39v-40H497.113v320.88h491.702v-280.88Zm498.075 280.88v-320.88H995.185v320.88h491.705Zm-995.188 0v-320.88H0v320.88h491.702Zm1492.298 0v-320.88h-491.7v320.88H1984ZM908.815 1406.39v160.88H577.113v-160.88h331.702Zm-497.113 0v160.88H80v-160.88h331.702Zm995.188 0v160.88h-331.71v-160.88h331.71Zm497.11 0v160.88h-331.7v-160.88H1904Zm-915.185-373.97v-39.999H497.113V1313.3h491.702v-280.88Zm498.075 280.88V992.421H995.185V1313.3h491.705Zm497.11 0V992.421h-491.7V1313.3H1984ZM908.815 1072.42v160.88H577.113v-160.88h331.702Zm498.075 0v160.88h-331.71v-160.88h331.71Zm497.11 0v160.88h-331.7v-160.88H1904ZM988.815 698.454v-40H497.113v320.879h491.702V698.454ZM1984 979.333V658.454h-491.7v320.879H1984ZM908.815 738.454v160.879H577.113V738.454h331.702Zm995.185 0v160.879h-331.7V738.454H1904Zm80-93.089V324.486h-491.7v320.879H1984Zm-80-240.879v160.879h-331.7V404.486H1904Z"/></svg>