<svg viewBox="0 0 50 50" xmlns="http://www.w3.org/2000/svg" fill="currentColor" style="fill-rule:evenodd;clip-rule:evenodd;stroke-linejoin:round;stroke-miterlimit:2"><path d="M17.444 38.336c2.127.497 4.635.834 7.527.834 2.893 0 5.401-.337 7.527-.834l2.65 3.643c.212.29.553.457.913.446 1.333-.043 4.889-.642 8.152-2.239 2.253-1.103 4.355-2.681 5.573-4.819.093-.164.142-.349.142-.537 0-7.434-2.257-15.725-4.31-20.673-.947-2.283-1.894-3.882-2.55-4.487a.853.853 0 0 0-.056-.049c-4.339-3.487-11.443-4.085-11.443-4.085a1.085 1.085 0 0 0-1.077.638s-.365.807-.605 1.951a31.998 31.998 0 0 0-4.916-.422c-1.004 0-2.782.078-4.916.422a10.361 10.361 0 0 0-.604-1.951 1.086 1.086 0 0 0-1.078-.638s-7.104.598-11.443 4.085a.853.853 0 0 0-.056.049c-.656.605-1.603 2.204-2.55 4.487C2.272 19.105.015 27.396.015 34.83c0 .188.049.373.142.537 1.217 2.138 3.319 3.716 5.573 4.819 3.263 1.597 6.819 2.196 8.152 2.239.359.011.7-.156.912-.446l2.65-3.643Zm.481-29.796a8.431 8.431 0 0 0-.193-.748c-1.837.246-6.373 1.073-9.416 3.501-.534.519-1.224 1.857-1.987 3.695-1.943 4.684-4.084 12.487-4.143 19.546 1.026 1.642 2.72 2.833 4.498 3.703 2.534 1.239 5.261 1.822 6.71 1.977l1.816-2.496c-4.462-1.436-6.677-3.422-6.677-3.422A1.085 1.085 0 0 1 9.97 32.67S14.952 37 24.971 37c10.02 0 15.001-4.33 15.001-4.33a1.085 1.085 0 0 1 1.437 1.626s-2.214 1.986-6.677 3.422l1.816 2.496c1.449-.155 4.177-.737 6.711-1.977 1.777-.87 3.471-2.06 4.497-3.705-.059-7.058-2.2-14.86-4.143-19.544-.764-1.843-1.457-3.184-1.998-3.705-3.037-2.419-7.569-3.246-9.405-3.491a8.522 8.522 0 0 0-.193.748c2.475.567 5.206 1.506 7.687 3.046a1.085 1.085 0 1 1-1.144 1.844c-5.112-3.171-11.38-3.557-13.589-3.557-2.209 0-8.477.386-13.589 3.557a1.086 1.086 0 0 1-1.144-1.844c2.481-1.54 5.213-2.479 7.687-3.046Zm-.007 12.184c-2.637 0-4.883 2.412-4.883 5.425 0 3.014 2.246 5.425 4.883 5.425s4.883-2.411 4.883-5.425c0-3.013-2.246-5.425-4.883-5.425Zm14.106 0c-2.637 0-4.883 2.412-4.883 5.425 0 3.014 2.246 5.425 4.883 5.425s4.883-2.411 4.883-5.425c0-3.013-2.246-5.425-4.883-5.425Zm-14.106 2.17c1.531 0 2.713 1.506 2.713 3.255 0 1.75-1.182 3.255-2.713 3.255-1.53 0-2.712-1.505-2.712-3.255 0-1.749 1.182-3.255 2.712-3.255Zm14.106 0c1.531 0 2.713 1.506 2.713 3.255 0 1.75-1.182 3.255-2.713 3.255-1.531 0-2.713-1.505-2.713-3.255 0-1.749 1.182-3.255 2.713-3.255Z"/></svg>