<svg fill="currentColor" xmlns="http://www.w3.org/2000/svg" viewBox="0 0 1984 1984"><path d="M712.26,990.17c.13-155.51,126.31-281.46,281.82-281.33,155.32,.13,281.2,126.01,281.33,281.33-.13,155.51-126.31,281.46-281.82,281.33-155.32-.13-281.2-126.01-281.33-281.33Zm12.8,0c0,148.1,120.67,268.77,268.77,268.77s268.77-120.67,268.77-268.77-120.67-268.77-268.77-268.77-268.77,120.67-268.77,268.77Z"/><path d="M1037.71,990.17c0,23.77-20.11,43.88-43.88,43.88s-43.88-20.11-43.88-43.88,20.11-43.88,43.88-43.88,43.88,20.11,43.88,43.88Z"/><path d="M485.53,990.17c0,144.44,60.34,272.43,155.41,365.68l95.08-104.22,1.83,1.83c-69.48-65.82-111.53-159.07-111.53-263.29,0-202.95,164.56-367.51,367.51-367.51,67.65,0,129.82,18.28,182.84,49.37l67.65-124.33c-74.96-42.05-159.07-65.82-250.49-65.82-279.74,0-508.29,228.55-508.29,508.29h0Zm873.97,0c0,202.95-164.56,367.51-365.68,367.51-62.17,0-118.85-14.63-170.04-42.05l-69.48,122.5c71.31,38.4,153.59,60.34,239.52,60.34,279.74,0,508.29-228.55,508.29-508.29,0-138.96-56.68-265.12-146.27-356.54l-96.9,104.22c62.17,65.82,100.56,153.59,100.56,252.32h0Z"/><path d="M324.64,990.17c0,190.15,80.45,362.02,208.44,484.52l96.91-104.22c-100.56-95.08-162.73-230.38-162.73-378.48,0-290.82,235.76-526.58,526.58-526.58,95.08,0,182.84,25.6,259.63,69.48l69.48-124.33c-96.9-54.85-208.44-85.93-329.11-85.93-366.75-2.83-666.35,292.19-669.17,658.93-.02,2.2-.02,4.4-.02,6.6h0Zm1193.94,0c.14,290.82-235.51,526.69-526.33,526.82-86.85,.04-172.35-21.4-248.91-62.41l-69.48,124.33c325.49,175.5,731.62,53.92,907.12-271.57,52.55-97.47,80.11-206.44,80.21-317.17,0-184.67-74.96-352.88-197.47-473.55l-96.9,104.22c95.08,95.08,151.76,224.89,151.76,369.34h0Z"/><path d="M1679.48,990.17c-1.01,380.49-310.27,688.12-690.76,687.11-113.09-.3-224.36-28.43-324-81.91l-71.31,126.16c118.85,63.99,254.15,102.39,398.59,102.39,458.93,0,830.09-372.99,830.09-830.09,0-232.21-95.08-442.47-248.66-592.4l-96.9,106.05c126.16,118.85,202.95,292.54,202.95,482.7Zm-1517.57,0c0,237.69,100.56,451.61,259.63,603.37l96.91-106.05c-136.78-129.22-214.18-309.16-213.92-497.32,0-378.48,309-687.48,687.48-687.48,122.5,0,237.69,32.91,336.42,89.59l69.48-126.16c-120.67-67.65-259.63-106.05-405.9-106.05-457.1-1.83-830.09,371.16-830.09,830.09h0Z"/><path d="M1683.13,280.75l-95.08,102.39c157.24,153.59,255.98,369.34,255.98,605.2,0,468.07-380.31,848.38-848.38,848.38-148.1,0-285.23-38.4-405.9-104.22l-71.31,126.16c140.79,76.79,303.51,122.5,475.38,122.5,546.69,0,990.99-444.3,990.99-990.99-1.83-277.92-117.02-528.41-301.69-709.42h0ZM143.62,990.17c0-468.07,380.31-848.38,848.38-848.38,149.93,0,292.54,40.22,415.05,109.7l67.65-122.5C1335.74,50.38,1176.67,4.67,1006.63,2.84h-16.46C445.31,2.84,4.67,441.65-.82,984.69v9.14c0,283.4,120.67,539.38,312.66,720.39l98.73-106.05c-164.56-157.24-266.95-374.82-266.95-618h0Z"/></svg>