<svg viewBox="0 0 2009 2013" xmlns="http://www.w3.org/2000/svg" fill="currentColor" style="fill-rule:evenodd;clip-rule:evenodd;stroke-linejoin:round;stroke-miterlimit:2"><path d="M1908.48 333.616H100.515c-50.546 0-91.667 41.125-91.667 91.666v1162.437c0 50.54 41.121 91.66 91.667 91.66H1908.48c50.55 0 91.67-41.12 91.67-91.66V425.282c0-50.541-41.12-91.666-91.67-91.666Zm0 1262.433H100.515c-4.517 0-8.334-3.82-8.334-8.33V456.687l888.23 629.275a41.65 41.65 0 0 0 24.088 7.663 41.67 41.67 0 0 0 24.09-7.663l888.23-629.275v1131.032c0 4.51-3.82 8.33-8.34 8.33Zm-79.73-1179.1-824.25 583.946-824.255-583.946H1828.75Z"/></svg>