<svg viewBox="0 0 1913 1913" xmlns="http://www.w3.org/2000/svg" fill="currentColor" style="fill-rule:evenodd;clip-rule:evenodd;stroke-linejoin:round;stroke-miterlimit:2"><path d="M1570.96.492H231.629C167.718.492 115.121 53.088 115.121 117v73c0 63.912 52.597 116.508 116.508 116.508h109.5c16.17 0 29.492 13.323 29.492 29.492v1241c0 16.17-13.322 29.492-29.492 29.492h-109.5c-63.911 0-116.508 52.597-116.508 116.508v73c0 63.911 52.597 116.508 116.508 116.508h1329.987c69.97 0 131.473-47.997 148.446-115.887.292-1.096.547-2.227.766-3.322 0 0 79.059-384.82 84.06-409.129a116.514 116.514 0 0 0 2.993-26.17c0-63.911-52.597-116.508-116.509-116.508h-73c-47.96 0-91.067 29.638-108.441 73.949l-97.419 206.48c-1.752 3.65-3.175 7.447-4.343 11.315-12.885 43.326-52.962 73.256-98.185 73.256H852.129c-16.17 0-29.492-13.322-29.492-29.492v-467.492h211.992c56.246 0 102.492 46.245 102.492 102.492v36.5c0 44.165 35.843 80.008 80.008 80.008h109.5c44.165 0 80.008-35.843 80.008-80.008V628c0-44.165-35.843-80.008-80.008-80.008h-109.5c-44.165 0-80.008 35.843-80.008 80.008v73c0 56.246-46.246 102.492-102.492 102.492H822.637V336c0-16.17 13.322-29.492 29.492-29.492h438c56.246 0 102.492 46.245 102.492 102.492v146c0 63.911 52.596 116.508 116.508 116.508h41.355c57.743 0 107.2-42.924 115.34-100.083 0 .037 56.611-396.28 56.611-396.28a153.368 153.368 0 0 0 1.533-21.645c0-83.95-69.058-153.008-153.008-153.008Zm0 80.008H231.629c-20.038 0-36.5 16.462-36.5 36.5v73c0 20.039 16.462 36.5 36.5 36.5h109.5c60.079 0 109.5 49.421 109.5 109.5v1241c0 60.079-49.421 109.5-109.5 109.5h-109.5c-20.038 0-36.5 16.462-36.5 36.5v73c0 20.038 16.462 36.5 36.5 36.5h1329.987c33.398 0 62.743-22.886 70.846-55.298l84.315-410.332a36.216 36.216 0 0 0 1.095-8.87c0-20.038-16.461-36.5-36.5-36.5h-73c-15.658 0-29.674 10.11-34.638 24.966l-98.879 209.583c-22.958 77.125-94.352 130.415-174.835 130.451H852.13c-60.079 0-109.5-49.421-109.5-109.5v-547.5h292c100.12 0 182.5 82.38 182.5 182.5v36.5h109.5V628h-109.5v73c0 100.12-82.38 182.5-182.5 182.5h-292V336c0-60.079 49.421-109.5 109.5-109.5h438c100.12 0 182.5 82.38 182.5 182.5v146c0 20.038 16.462 36.5 36.5 36.5h41.355c18.103 0 33.58-13.432 36.134-31.354l56.612-396.316c.474-3.431.73-6.863.73-10.33 0-40.04-32.96-73-73-73Z"/></svg>