<svg viewBox="0 0 1913 1913" xmlns="http://www.w3.org/2000/svg"  fill="currentColor" style="fill-rule:evenodd;clip-rule:evenodd;stroke-linejoin:round;stroke-miterlimit:2"><path d="M1623.08 1110.46c10.69 1.86 22.05-.82 30.98-8.16 54.25-44.57 105.15-99.17 151.31-152.099l.33-.392c135.99-160.22 143.14-412.062 19.03-581.133-81.29-118.134-218.38-191.842-360.39-203.433a38.988 38.988 0 0 0-3.13-.127h-64.88c-1.44 0-2.88.081-4.3.243-105 11.852-208.24 52.073-286.32 124.58-.23.213-.46.428-.68.646-51.39 50.11-102.52 100.487-153.551 151.032a37.937 37.937 0 0 0-5.136-8.728c-103.728-132.443-245.25-257.82-422.344-267.713-.713-.04-1.427-.06-2.142-.06h-40.669c-.543 0-1.086.012-1.628.035-114.915 4.875-231.371 41.931-317.659 120.26C62.711 372.168 14.664 503.072.242 630.93A38.476 38.476 0 0 0 0 635.236v37.71c0 .63.015 1.26.046 1.888C5.526 786.116 53.359 892.935 131.2 972.32c.024.03.049.05.073.08 215.04 218.13 432.272 434.07 649.373 650.01.047.05.095.1.143.14 42.992 42.32 83.159 88.75 135.644 119.94a38.39 38.39 0 0 0 19.622 5.39h37.068c4.264 0 8.498-.71 12.528-2.1 59.809-20.64 98.069-73.56 143.139-114.41.56-.51 1.1-1.03 1.63-1.57 159.94-163.17 326.84-319.51 482.92-486.28 8.59-9.19 11.83-21.52 9.74-33.06ZM482.016 241.93h38.74c142.119 8.385 255.541 105.623 343.229 211.173L758.754 553.04c-28.178-26.572-54.55-57.065-83.215-83.746-43.513-40.5-91.941-72.575-154.055-79.49-131.218-21.083-264.471 75.82-289.556 205.172-18.08 86.793 14.224 178.41 76.196 240.08l.004.004c50.117 49.86 100.113 99.715 150.487 149.32 14.885 14.65 38.753 14.72 53.727.16C729.378 773.421 941.535 557.3 1158.31 345.917c65.52-60.673 152.25-93.69 240.22-103.987h61.08c119.04 10.157 234.13 71.568 302.15 170.733.24.353.49.702.74 1.047 104.05 141.312 98.48 352.064-15.19 486.19-36.01 41.283-74.97 83.74-116.31 120.92-28.97-27.61-76.36-72.766-106.01-101.033 26.33-27.532 55.95-53.49 81.99-81.642 39.95-43.18 71.79-91.19 79.85-152.574 26.28-144.709-95.36-294.792-242.47-297.626-72.41-5.474-143.81 23.502-195 74.161-53.75 51.951-106.12 105.608-159 158.62-14.95 14.984-14.96 39.24-.02 54.233l441.48 443.06c-148.03 156.03-304.85 303.59-455.48 457.22-20.58 18.79-39.37 40.61-59.79 60.17-15.03 14.41-30.923 27.68-50.388 35.66h-19.144c-42.848-27.89-76.086-67.56-112.269-103.18-216.887-215.73-433.906-431.46-648.735-649.38-64.536-65.833-104.418-154.267-109.2-246.515l-.001-34.569c12.599-108.71 51.515-220.748 135.896-294.405.197-.172.392-.346.585-.522 72.825-66.236 171.629-96.304 268.7-100.568h.022Zm479.565 616.712h-.036c-17.704-.192-35.521 1.58-53.14 5.464-97.037 16.888-179.488 94.631-201.933 190.503-38.105 145.57 74.704 313.13 228.368 319.91 157.48 20.01 306.15-133.5 282.33-289.99-13.38-125.974-131.72-224.54-255.589-225.887Zm-.45 76.81-.411-.002c87.03.933 171.14 69.27 180.14 157.89.07.69.16 1.39.27 2.08 17.23 109.73-87.37 217.74-197.849 202.73a40.605 40.605 0 0 0-3.816-.33c-107.74-3.8-185.514-122.34-158.579-224.16.102-.39.198-.78.288-1.16 15.512-67.01 73.237-121.335 141.088-132.836a39.359 39.359 0 0 0 2.014-.397c12.078-2.719 24.3-3.948 36.441-3.817l.414.002ZM956.5 973.84c-77.802 0-141.822 64.02-141.824 141.83.002 77.8 64.022 141.82 141.824 141.82 77.8 0 141.82-64.02 141.82-141.82 0-21.15-4.72-42.03-13.83-61.11a60.517 60.517 0 0 1-34.81 11.16h-.01c-33.2 0-60.532-27.33-60.532-60.54.084-9 2.171-17.86 6.109-25.95a142.191 142.191 0 0 0-38.746-5.39h-.001Zm4.632-38.387h15.721-15.722.001Zm473.518-23.78a37.958 37.958 0 0 1 7.24-13.964c31.95-39.146 73.42-73.579 108.71-111.725 29.31-31.69 54.47-65.982 60.17-111.153.09-.752.21-1.5.35-2.245 18.89-101.129-66.16-206.482-169.09-207.854-.86-.012-1.73-.053-2.6-.123-50.63-4.114-100.38 16.751-136.14 52.198-.12.114-.24.227-.35.34-44.34 42.85-87.7 86.85-131.2 130.68l262.91 263.846ZM749.911 642.077a38.231 38.231 0 0 1-14.058-7.107c-39.596-31.664-74.265-73.724-112.649-109.45-31.592-29.405-65.729-54.652-110.946-59.455a37.782 37.782 0 0 1-2.223-.3c-92.019-15.25-185.266 53.29-202.738 144.04-.04.206-.082.413-.125.62-12.927 61.644 11.119 126.38 55.135 170.182 41.13 40.92 82.178 81.836 123.422 122.611 88.592-86.494 176.433-173.756 264.182-261.14Z"/></svg>