<svg viewBox="0 0 2009 2013" xmlns="http://www.w3.org/2000/svg" fill="currentColor" style="fill-rule:evenodd;clip-rule:evenodd;stroke-linejoin:round;stroke-miterlimit:2"><path d="M1712.61 296.188C1523.1 106.246 1271.17 1.642 1003.23 1.642c-267.95 0-519.88 104.604-709.388 294.546C104.354 486.105 0 738.571 0 1007.08 0 1561.47 450.046 2012.5 1003.23 2012.5c553.17 0 1003.22-451.03 1003.22-1005.42 0-268.509-104.36-520.975-293.84-710.892ZM782.667 1902.31v-255.66c0-103.89 80.95-243.08 163.734-243.08H1068.8c79.85 0 155.02 136.94 155.02 243.08v255.65c-70.7 17.51-144.57 26.87-220.59 26.87-76.013 0-149.871-9.36-220.563-26.86ZM97.663 1169.69c67.145-12.77 180.196-28.59 334.675-30.63 26.158 52.31 63.904 98.05 112.654 135.84 68.992 53.48 157.45 89.86 264.209 108.83-14.2 14.22-27.684 30.69-40.275 49.33l-2.496-2.18c-.313.36-8.15 8.88-46.525 13.41-29.513 3.48-65.563 3.28-97.392 3.09-7.321-.05-14.475-.09-21.379-.09-48.138 0-76.834-24.06-115.634-71.44-40.862-55.76-106.446-96.95-144.112-103.24l-3.404-.57h-3.45c-34.509 0-59.717 15.14-67.442 40.48-6.558 21.54 2.2 44.19 22.412 57.76 45.325 30.28 64.434 81 82.917 130.06 8.125 21.57 15.804 41.96 25.625 60.35 32.417 64.41 100.029 101.32 185.621 101.32h115.667v215.39c-308.867-108.68-542.93-378.11-601.671-707.71Zm1209.487 707.69v-230.73c0-86.11-38.87-197.45-105.73-265.32 101-19.55 185.1-55.12 251.3-106.43 48.66-37.71 86.35-83.34 112.51-135.51 157.89 1.24 274 16.97 343.62 29.95-58.64 329.74-292.74 599.32-601.7 708.04Zm-600.27-298.7H583.667c-53.079 0-93.658-20.32-111.337-55.76l-.584-1.12c-7.337-13.66-14.137-31.71-21.341-50.83-1.83-4.86-3.7-9.83-5.63-14.86 36.9 39.69 84.017 74.51 156.359 74.51 6.746 0 13.733.04 20.891.09 32.688.19 67.209.39 99.246-2.79-5.962 16.84-10.791 33.87-14.391 50.76ZM472.334 945.713c0-66.012 24.15-136.871 66.246-194.412l12.15-16.596-5.792-19.734c-25.204-85.945-36.175-191.346-11.796-235.154 95.113 5.721 161.246 52.338 193.221 80.85l19.488 17.375 24.137-9.962c72.404-29.884 150.879-45.034 233.242-45.034 82.55 0 161.4 15.446 228.01 44.675l24.49 10.746 19.97-17.792c32.04-28.545 98.35-75.245 193.62-80.879 27.57 45.871 14.32 150.08-11.99 234.509l-6.25 20.058 12.42 16.95c44.8 61.179 65.65 125.809 61.97 192.088l-.07 2.312c0 235.227-191.92 370.147-526.549 370.147-334.609 0-526.517-134.92-526.517-370.147ZM84.846 1059.45c66.35-6.3 173.125-11.77 316.825-4.37a407.56 407.56 0 0 0 12.146 40.52c-147.075 3-256.163 18.23-322.792 30.81-2.862-22.08-4.912-44.42-6.179-66.96Zm1510.924-3.19c147.78-8.06 257.83-2.5 325.78 3.91-1.26 22.18-3.27 44.16-6.08 65.89-69.03-12.78-181.13-27.95-331.64-30.23 4.6-12.87 8.6-26.05 11.94-39.57ZM1003.23 84.975c507.22 0 919.88 413.65 919.88 922.105 0 3.1-.08 6.17-.11 9.26-68.1-6.28-175.79-11.61-318.77-4.37 2.92-21.065 4.45-42.782 4.51-65.111 4.07-78.087-18.68-156.325-65.97-227.529 23.06-81.5 53.36-238.025-25.9-312.184l-12.01-11.242h-16.46c-114.93 0-199.22 47.884-247.77 85.617-71.55-27.408-153.04-41.808-237.4-41.808-84.479 0-165.554 14.154-241.388 42.104-48.471-37.783-132.854-85.913-248.129-85.913h-16.388l-11.995 11.159c-77.701 72.296-45.1 238.621-25.763 311.921C413.934 787.88 389 867.638 389 945.713c0 22.338 1.479 44.059 4.35 65.137-138.933-6.64-243.429-1.41-309.912 4.77-.021-2.85-.105-5.69-.105-8.54 0-508.455 412.663-922.105 919.897-922.105Z"/></svg>