<svg viewBox="0 0 1913 1913" xmlns="http://www.w3.org/2000/svg" fill="currentColor" style="fill-rule:evenodd;clip-rule:evenodd;stroke-linejoin:round;stroke-miterlimit:2"><path d="M1341.91 1202.529v94.836c0 122.352-27.233 215.488-89.9 276.673-63.297 61.789-159.56 88.545-286.16 88.545-96.806 0-175.5-20.054-234.885-64.44-60.69-45.85-90.864-113.07-94.423-199.842-1.759-42.869-37.026-76.712-79.933-76.712h-46.82a80.005 80.005 0 0 0-57.258 24.123 80.016 80.016 0 0 0-22.717 57.838c3.8 154.787 62.119 273.408 171.54 357.509.121.091.242.192.363.283 93.565 71.061 215.323 108.663 366.488 108.663 185.165 0 326.51-51.538 426.284-148.047 100.387-97.105 154.166-237.773 154.166-424.593V108.405c0-44.183-35.81-80-79.996-80h-46.746c-44.185 0-80.004 35.817-80.004 80v43.368c-13.168-12.346-27.104-24.194-41.808-35.567h-.01C1199.862 38.692 1086.864 0 961.142 0h-.002C770.825.001 620.845 70.797 510.252 210.356c-.168.212-.335.426-.502.64-95.82 123.48-145.407 279.991-145.407 470.565 0 187.419 48.006 340.695 140.484 460.898 105.779 138.382 252.083 208.812 439.969 208.812 125.671 0 241.055-36.239 346.078-108.946 18.161-12.573 35.179-25.833 51.035-39.796Zm126.75 94.836c0 161.033-43.263 283.394-129.787 367.093C1252.35 1748.156 1128.79 1790 968.205 1790c-130.99 0-237.023-30.79-318.1-92.368-90.403-69.488-137.175-168.165-140.315-296.05h46.819c4.663 113.666 46.748 200.5 126.255 260.488 71.704 53.677 166.033 80.516 282.986 80.516 304.038 0 456.063-148.404 456.063-445.222v-371.87h-4.709c-23.364 104.223-80.654 187.913-171.869 251.055-91.206 63.142-191.392 94.717-300.54 94.717-160.585 0-286.102-59.192-376.552-177.584-82.6-107.353-123.9-244.728-123.9-412.122 0-170.525 42.87-311.03 128.61-421.519C668.066 140.016 797.463 80.001 961.139 80c107.581 0 204.247 33.164 290.021 99.49 85.756 66.326 141.107 151.577 166.044 255.751h4.71V108.405h46.745v1188.96Zm-49.106-615.804c0-149.997-38.205-277.084-114.616-381.26-85.747-115.258-200.344-172.886-343.799-172.887-149.641 0-267.355 56.04-353.143 168.116C530.059 396.574 491.09 525.25 491.09 681.56c0 153.18 36.637 278.7 109.911 376.56 82.648 110.537 196.461 165.806 341.44 165.806 148.116 0 266.618-53.678 355.502-161.033 81.074-101.042 121.611-228.154 121.611-381.333Zm-79.995 0c-.01 132.63-33.56 243.2-103.624 330.774-73.347 88.325-171.44 131.596-293.495 131.596-117.61 0-210.322-44.039-277.368-133.709-.01-.018-.02-.027-.032-.046-63.842-85.265-93.95-195.153-93.95-328.615 0-136.32 32.283-249.05 100.252-337.171l.18-.235c70.249-91.776 167.08-136.74 289.617-136.742 116.57.002 209.706 46.812 279.423 140.388 66.772 91.146 98.988 202.62 98.997 333.76Z"/></svg>