<svg viewBox="0 0 2013 2013" xmlns="http://www.w3.org/2000/svg" fill="currentColor" style="fill-rule:evenodd;clip-rule:evenodd;stroke-linejoin:round;stroke-miterlimit:2"><path d="M1006.38 2012.77c-267.084 0-519.334-105.16-710.28-296.1C105.154 1525.72 0 1273.48 0 1006.38c0-267.084 105.154-519.334 296.1-710.276C487.046 105.158 739.296 0 1006.38 0c267.1 0 519.35 105.158 710.29 296.104 190.94 190.942 296.1 443.192 296.1 710.276 0 267.1-105.16 519.34-296.1 710.29-190.94 190.94-443.19 296.1-710.29 296.1Zm0-1929.437c-508.967 0-923.047 414.08-923.047 923.047 0 508.98 414.08 923.05 923.047 923.05 508.98 0 923.05-414.07 923.05-923.05 0-508.967-414.07-923.047-923.05-923.047ZM605.825 1609.79h-4.42c-97.855 0-182.23-68.26-196.263-158.79-13.642-91.78 42.988-180.82 131.692-207.32l1.771-.47 12.512-3.01 150.913-38.44a10.514 10.514 0 0 0 7.937-10.19V609.805c0-45.292 32.317-83.875 76.879-91.834L1377.1 406.163l.23-.229 10.38-1.809a78.091 78.091 0 0 1 13.37-1.179c42.54 0 77.14 34.604 77.14 77.146v739.658c0 142.5-115.95 258.43-258.47 258.43h-4.42c-97.91 0-182.29-68.27-196.26-158.8-13.64-91.77 42.99-180.8 131.69-207.3l1.77-.47 12.52-3.01 150.9-38.45c4.65-1.18 7.9-5.37 7.9-10.18V789.684c0-5.663-4.9-10.563-10.48-10.563-.5 0-1.04.05-1.66.15l-424.543 82.68c-13.25 2.321-22.866 13.787-22.866 27.262v462.137c0 142.5-115.95 258.44-258.476 258.44Zm-50.733-301.98c-56.671 17.37-92.762 74.47-84.033 133.19 9.008 58.13 65.058 102.12 130.346 102.12h4.42c105.763 0 191.809-86.03 191.809-191.77V889.213c0-45.808 32.65-84.808 77.683-92.867l424.663-82.708c4.5-.783 9-1.183 13.39-1.183 42.54 0 77.15 34.608 77.15 77.15v270.365c0 35.32-23.9 66.08-58.12 74.79l-151.58 38.62-11.81 2.83c-56.66 17.37-92.75 74.46-84.03 133.18 8.98 58.14 65.03 102.13 130.35 102.13h4.42c105.76 0 191.81-86.03 191.81-191.77V480.13c0-5.625-4.9-10.521-10.48-10.521-.34 0-.7.021-1.09.066l-.38.075-600.968 113.834c-12.546 2.208-22.008 13.479-22.008 26.221v581.765c0 35.32-23.913 66.07-58.15 74.79l-151.592 38.62-11.8 2.83Z"/></svg>