<svg viewBox="0 0 1971 1971" xmlns="http://www.w3.org/2000/svg" fill="currentColor" style="fill-rule:evenodd;clip-rule:evenodd;stroke-linejoin:round;stroke-miterlimit:2"><path d="M1413.297 1194.247c-.038 120.604-99.25 219.817-219.85 219.858h-4.338c-76.437 0-147.87-52.012-159.57-127.5-10.955-73.683 34.395-144.954 105.791-166.27l12.45-3.034 147.596-37.588c18.988-4.845 32.267-21.95 32.267-41.529V774.201c0-26.638-24.038-46.809-50.28-42.159l-414.412 80.692c-28.367 5.004-49.25 29.904-49.25 58.704v451.255c0 120.604-99.25 219.858-219.855 219.9h-4.333c-76.438 0-147.833-52.013-159.533-127.504-10.955-73.68 34.395-144.955 105.791-166.267l12.409-3.038 147.633-37.587c18.95-4.846 32.23-21.946 32.23-41.53V598.514c0-28.446 20.412-52.796 48.424-57.725l586.555-111.108a42.914 42.914 0 0 1 7.446-.671c23.487 0 42.829 19.346 42.829 42.833v722.405ZM985.013.808C441.875.808 0 442.642 0 985.822c0 543.175 441.875 985.013 985.013 985.013s985.018-441.838 985.018-985.013c0-543.18-441.88-985.014-985.018-985.014Z"/></svg>