<svg viewBox="0 0 179 179" xmlns="http://www.w3.org/2000/svg" fill="currentColor" style="fill-rule:evenodd;clip-rule:evenodd;stroke-linejoin:round;stroke-miterlimit:2"><path d="M89.517 178.544c49.177-.009 89.036-39.883 89.026-89.06C178.535 40.306 138.662.447 89.483.456 40.307.465.449 40.339.458 89.516c.004 22.239 13.569 24.524 22.271 25.989 1.865.314 3.508.591 4.745 1.018 16.59 6.733 28.266 17.648 33.83 33.818.886 1.936 1.384 4.386 1.92 7.03 1.898 9.369 4.29 21.173 26.294 21.173Zm-16.12-55.899c12.572 5.574 54.867-16.453 54.866-32.786 0-15.844-41.603-39.268-55.472-32.483-12.602 4.898-12.52 59.924-.65 64.755.132.053.968.386 1.255.514Z"/></svg>