<svg viewBox="0 0 1913 1913" xmlns="http://www.w3.org/2000/svg" fill="currentColor" style="fill-rule:evenodd;clip-rule:evenodd;stroke-linejoin:round;stroke-miterlimit:2"><path d="M1886.74 1180.29c123.6-513.767-192.69-1030.441-706.45-1154.032C666.523-97.334 149.849 218.96 26.258 732.718-97.334 1246.48 218.959 1763.15 732.718 1886.74c513.762 123.6 1030.432-192.69 1154.022-706.45Zm-1079.974-30.31a.334.334 0 0 0 .068-.08l149.642-233.34 149.644 233.07c.02.03.04.06.07.08l406.36 406.38c-151.81 140.85-348.82 218.39-556.074 218.39-207.248 0-404.269-77.54-556.077-218.39l406.367-406.11ZM138.379 956.387c0-450.991 367.106-818.097 818.097-818.097 451.264 0 818.094 367.106 818.094 818.097 0 181.343-58.14 352.443-167.96 496.113l-409.89-409.88c10.21-28.02 15.31-57.13 15.31-86.502 0-140.894-114.66-255.551-255.554-255.551-140.893 0-255.551 114.657-255.551 255.551 0 29.372 5.104 58.482 15.303 86.502-10.656 10.66-395.672 395.67-409.883 409.88-109.826-143.4-167.966-314.77-167.966-496.113Z"/></svg>