<svg viewBox="0 0 1913 1913" xmlns="http://www.w3.org/2000/svg" fill="currentColor" style="fill-rule:evenodd;clip-rule:evenodd;stroke-linejoin:round;stroke-miterlimit:2"><path d="m798.138 311.194.009-.003-.249-2.051a1.063 1.063 0 0 0-.01-.097 1.35 1.35 0 0 0-.011-.086l-.928-7.711-.642-5.325-.195-1.603-.396.049c-9.759-55.498-36.565-108.167-78.083-153.138-41.323-44.755-95.011-80.092-155.258-102.191-51.619-18.933-106.388-28.535-162.782-28.535-76.135 0-150.076 17.906-213.827 51.78C62.831 127.602-9.672 247.664 1.044 368.157c5.547 62.351 29.974 121.702 70.642 171.642 38.277 47.006 90.058 84.938 149.741 109.696 36.696 15.222 72.98 22.396 111.398 29.99l4.498.891c10.578 2.093 13.422 4.969 14.155 6.108 1.357 2.115.648 6.283.103 8.579-.502 2.118-1.02 4.23-1.538 6.345-4.125 16.822-8.39 34.218-5.039 53.397 3.852 22.047 17.619 34.692 37.773 34.695h.005c21.678 0 46.35-14.542 62.675-24.162l2.18-1.282c38.946-22.873 75.638-48.673 103.251-68.594 60.424-43.595 128.913-93.01 180.259-156.936 51.705-64.385 76.062-147.121 66.991-227.332ZM249.131 433.176h-69.017c-10.43 0-18.885-8.455-18.885-18.885V269.425c0-10.43 8.455-18.885 18.885-18.885 10.43 0 18.885 8.455 18.885 18.885v125.98h50.13c10.43 0 18.885 8.456 18.885 18.886.003 10.43-8.453 18.885-18.883 18.885Zm71.999-19.398c0 10.43-8.455 18.885-18.885 18.885-10.43 0-18.886-8.455-18.886-18.885V268.912c0-10.43 8.456-18.885 18.886-18.885s18.885 8.455 18.885 18.885v144.866Zm170.706 0a18.886 18.886 0 0 1-34.169 11.097l-68.005-93.663v82.569c0 10.43-8.456 18.885-18.886 18.885s-18.885-8.455-18.885-18.885V273.059a18.886 18.886 0 0 1 34.169-11.097l68.006 93.663v-86.713c0-10.43 8.455-18.885 18.885-18.885 10.43 0 18.885 8.455 18.885 18.885v144.866Zm137.611 15.912h-93.468c-10.43 0-18.885-8.455-18.885-18.885V265.939c0-10.43 8.455-18.885 18.885-18.885h90.568c10.43 0 18.885 8.455 18.885 18.885 0 10.43-8.455 18.885-18.885 18.885h-71.683v34.666h58.172c10.43 0 18.885 8.455 18.885 18.885 0 10.43-8.455 18.885-18.885 18.885h-58.172v34.66h74.583c10.431 0 18.886 8.455 18.886 18.885 0 10.43-8.455 18.885-18.886 18.885Z" transform="translate(0 -.004) scale(2.39125)"/></svg>