<svg viewBox="0 0 1984 1984" xmlns="http://www.w3.org/2000/svg" fill="currentColor" style="fill-rule:evenodd;clip-rule:evenodd;stroke-linejoin:round;stroke-miterlimit:2"><path d="M1748.2 1983.34H231.279C103.75 1983.34 0 1879.59 0 1752.05V235.138C0 107.608 103.75 3.854 231.279 3.854H1748.2c127.53 0 231.28 103.754 231.28 231.284V1752.05c0 127.54-103.75 231.29-231.28 231.29ZM231.279 87.188c-81.579 0-147.946 66.37-147.946 147.95V1752.05c0 81.58 66.367 147.95 147.946 147.95H1748.2c81.58 0 147.95-66.37 147.95-147.95V235.138c0-81.58-66.37-147.95-147.95-147.95H231.279ZM610.513 1698.91H326.088c-23.013 0-41.667-18.65-41.667-41.66V756.576c0-23.013 18.654-41.667 41.667-41.667h284.425c23.013 0 41.667 18.654 41.667 41.667v900.674c0 23.01-18.654 41.66-41.667 41.66Zm1042.877 0h-284.42c-23.01 0-41.66-18.65-41.66-41.66v-474.04c0-34.68-9.02-148-124.97-150.01-33.48-.55-60.89 9.28-81.28 29.32-26.85 26.38-42.25 70.37-42.25 120.69v474.04c0 23.01-18.65 41.66-41.66 41.66H752.721c-23.012 0-41.666-18.65-41.666-41.66V756.576c0-23.013 18.654-41.667 41.666-41.667h284.429c23.01 0 41.66 18.654 41.66 41.667v28.641c51.37-34.941 129.22-70.308 233.91-70.308 107.35 0 203.62 39.212 271.07 110.417 72.8 76.841 111.27 188.484 111.27 322.844v509.08c0 23.01-18.65 41.66-41.67 41.66Zm-1285.636-83.33h201.092V798.242H367.754v817.338Zm1042.886 0h201.09v-467.41c0-215.844-114.58-349.928-299.01-349.928-159.6 0-239.13 100.705-242.44 104.992-10.79 14.304-29.43 20.021-46.42 14.342-17-5.688-28.38-21.692-28.38-39.604v-79.73H794.388v817.338H995.48v-432.37c0-72.53 24.48-138.18 67.16-180.13 36.41-35.779 85.21-54.188 141.15-53.2 67.69 1.175 123.05 28.087 160.09 77.83 30.15 40.49 46.76 95.72 46.76 155.5v432.37ZM468.305 656.034c-104.834 0-183.884-69.542-183.884-161.759 0-91.896 77.333-158.591 183.884-158.591 103.295 0 178.883 64.3 183.816 156.362.038.742.059 1.484.059 2.229 0 93.73-77.334 161.759-183.875 161.759Zm0-237.017c-59.205 0-100.551 30.946-100.551 75.258 0 45.442 42.288 78.425 100.551 78.425 59.662 0 99.904-31.016 100.533-77.316-3.083-46.438-42.408-76.367-100.533-76.367Z"/></svg>