<svg viewBox="0 0 1913 1913" xmlns="http://www.w3.org/2000/svg" fill="currentColor" style="fill-rule:evenodd;clip-rule:evenodd;stroke-linejoin:round;stroke-miterlimit:2"><path d="M1591.555 1594.172h-272.837v-454.709c0-90.97-45.45-181.904-159.146-183.737h-3.625c-110.071 0-155.517 93.704-155.517 183.737v454.71H727.588V730.204h272.842v116.387s87.738-116.387 264.184-116.387c180.545 0 326.941 124.142 326.941 375.583v488.384ZM318.325 478.722c0-63.647 54.567-112.33 136.421-112.33 81.854 0 133.225 48.683 136.421 112.33 0 63.653-50.942 115.062-136.42 115.062-81.855 0-136.422-51.409-136.422-115.063Zm272.842 251.483v863.967H318.325V730.205h272.842ZM1682.531 2.62H227.35C102.662 2.658.037 105.283 0 229.97v1455.176c.038 124.688 102.663 227.317 227.35 227.359h1455.18c124.688-.042 227.317-102.671 227.35-227.359V229.971c-.033-124.688-102.662-227.313-227.35-227.35Z"/></svg>