<svg xmlns="http://www.w3.org/2000/svg" fill="currentColor" viewBox="0 0 1913 1913"><path d="M951.814.023 951.8.022l-.004.001h-.168c-237.636 1.021-473.36 32.339-596.233 88.868-2.724 1.212-280.151 125.636-280.151 551.413 0 289.097.958 622.44 94.378 868.233 65.993 173.632 177.16 304.836 360.651 354.431.02 0 .039.01.058.01 168.013 45.15 312.478 54.808 428.642 48.11 217.371-12.274 324.563-80.19 324.563-80.19a40.019 40.019 0 0 0 18.895-35.817l-6.89-151.182a39.995 39.995 0 0 0-53.245-35.903s-126.097 44.192-282.187 39.113c-143.17-5.04-298.863-7.474-322.373-186.193-.037-.288-.074-.566-.11-.853 328.53 70.254 602.81 25.631 681.19 16.145h.029c143.919-17.487 276.521-78.906 365.43-154.698 63.797-54.387 105.19-116.755 116.66-175.932 0-.019.009-.029.009-.048 39.305-203.968 36.833-496.087 36.746-505.443-.086-424.965-276.215-549.608-279.74-551.18C1428.47 28.567 1189.328-.91 951.813.023Zm.118 80c224.327-.882 450.362 24.51 572.472 81.508l.317.148s232.962 110.274 232.962 478.625c0 .15.01.3.01.448 0 0 3.373 288.89-35.3 489.62-8.604 44.383-42.17 89.465-90.02 130.255-78.572 66.986-195.987 120.712-323.176 136.167-79.27 9.591-367.302 57.28-705.08-26.57a40.034 40.034 0 0 0-34.217 7.263 40.018 40.018 0 0 0-15.42 31.4c-.084 20.811 1.25 41.7 3.925 62.348l.01.077c29.901 227.52 216.695 249.328 398.936 255.748a.4.4 0 0 0 .106.01c109.09 3.554 204.88-14.881 260.473-28.88l3.411 74.872c-37.139 17.017-125.905 50.2-266.898 58.152h-.049c-109.294 6.305-245.19-3.009-403.27-45.485-198.183-53.581-294.43-221.11-343.906-428.153-52.462-219.539-51.973-483.374-51.973-717.272 0-368.345 233.326-478.616 233.326-478.616l.154-.07c115.931-53.39 338.82-80.626 563.207-81.596Zm354.745 1068.353h187.152l1.715-1.341c7.656-6.008 38.28-30.547 38.28-38.816 0-248.778 5.26-391.145-1.361-485.24-7.369-104.88-28.842-155.665-82.174-217.733-.144-.156-.278-.311-.412-.465-118.93-134.157-368.88-143.786-480.4 29.593-.295.462-.583.929-.86 1.402l-11.978 20.42-12.047-20.47a39.01 39.01 0 0 0-.848-1.377c-55.864-86.707-146.35-128.17-238.126-130.654-90.848-2.457-182.547 33.837-242.236 101.062-.128.144-.255.29-.38.435-53.143 61.625-74.653 112.318-82.084 217.31-6.664 94.155-1.505 236.74-1.505 485.717 0 22.095 17.908 40.004 40 40.004h187.609c22.092 0 40-17.909 40-40.004V677.774c0-71.571 41.186-112.327 86.784-110.513 48.226 1.918 89.964 49.468 89.964 138.577v249.443c0 22.091 17.908 40 40 40h186.009c22.086 0 39.995-17.909 39.995-40V705.839c0-89.095 41.767-136.611 90.02-138.5 45.639-1.786 86.879 38.994 86.879 110.588v430.445c0 22.096 17.908 40.004 40.004 40.004Zm147.148-40.157 39.295 39.295.565.69c-2.597-.278-39.86-4.887-39.86-39.985Zm.057-39.851h-107.201v-390.44c0-129.993-87.147-193.772-170.02-190.528-80.295 3.143-166.886 70.166-166.886 218.44v209.44H903.77V705.838c0-148.26-86.548-215.324-166.784-218.514-82.835-3.293-169.964 60.434-169.964 190.45v390.44H459.367c-.504-221.57-4.87-352.167 1.351-440.064 5.81-82.095 21.2-122.325 62.672-170.485 44.34-49.793 112.692-75.821 180.064-73.998h.001c66.304 1.793 132.068 30.938 172.607 93.344l46.16 78.436a40.002 40.002 0 0 0 68.976-.05l45.99-78.405c82.126-126.648 265.235-117.603 352.602-19.398 41.68 48.581 57.098 88.91 62.875 170.997 6.171 87.863 1.716 218.309 1.217 439.777ZM951.802 80.022Z"/></svg>