<svg viewBox="0 0 1913 1913" xmlns="http://www.w3.org/2000/svg" fill="currentColor" style="fill-rule:evenodd;clip-rule:evenodd;stroke-linejoin:round;stroke-miterlimit:2"><path d="M956.5-.02C427.45-.02-.02 398.732-.02 888.603c0 273.04 132.51 517.44 341.548 680.577V1873c0 14.13 7.485 27.19 19.629 34.445 12.144 7.18 27.266 7.409 39.639.611l298.015-163.519c81.95 21.233 168.407 32.689 257.689 32.689 529.05 0 956.52-398.678 956.52-888.623C1913.02 398.733 1485.55-.02 956.5-.02Zm0 80.04c483.225 0 876.48 361.178 876.48 808.583 0 447.48-393.255 808.582-876.48 808.582-87.678 0-172.378-11.915-252.267-33.987a39.934 39.934 0 0 0-29.862 3.513L421.57 1805.408V1549.4a40.007 40.007 0 0 0-16.116-32.077C207.261 1369.307 80.02 1142.779 80.02 888.602 80.02 441.199 473.275 80.02 956.5 80.02Zm61.94 1130.121c7.561 8.096 18.101 12.679 29.099 12.679a40.096 40.096 0 0 0 29.175-12.602l500.944-531.8c13.518-14.358 14.588-36.354 2.52-51.934-12.143-15.58-33.758-20.01-51.018-10.464 0 0-325.816 180.322-422.812 234.013L888.603 623.276a40.49 40.49 0 0 0-29.1-12.296c-10.92.076-21.384 4.582-28.869 12.601l-500.944 531.8c-13.518 14.282-14.587 36.278-2.52 51.858 11.99 15.58 33.529 20.087 50.79 10.693l428.234-234.09 212.246 226.3Zm29.252-85.769c-62.628-66.752-204.303-217.821-204.303-217.821-12.45-13.29-32.383-16.497-48.346-7.79l-234.471 128.157S779.921 794.05 860.038 709.045l209.879 218.585c12.602 13.06 32.383 16.039 48.269 7.256l225.612-124.873-296.106 314.36Z"/></svg>