<svg viewBox="0 0 1913 1913" xmlns="http://www.w3.org/2000/svg" fill="currentColor" style="fill-rule:evenodd;clip-rule:evenodd;stroke-linejoin:round;stroke-miterlimit:2"><path d="M22 9.761c0 .536-.065 1.084-.169 1.627-.847 4.419-3.746 5.946-7.449 5.946h-.572a.923.923 0 0 0-.908.789l-.803 5.09a.924.924 0 0 1-.908.787H8.455a.635.635 0 0 1-.628-.732l1.386-8.88.062-.056h2.155c5.235 0 8.509-2.618 9.473-7.568C21.715 7.578 22 8.64 22 9.761ZM7.784 14.013c.116-.826.459-1.177 1.385-1.179l2.26-.002c4.574 0 7.198-2.09 8.023-6.39C20.252 2.308 17.35 0 13.421 0H6.077c-.517 0-.958.382-1.038.901-2.304 14.835-2.97 18.607-3.038 19.758a.637.637 0 0 0 .635.672h3.989l1.159-7.318Z"  transform="translate(.003) scale(79.7083)"/></svg>