<svg viewBox="0 0 1913 1913" xmlns="http://www.w3.org/2000/svg" style="fill-rule:evenodd;" fill="currentColor"><path d="M1725.35 1735.83c100.73-81.11 1.46-254.03-53.5-329.83-66.16-91.09-154.71-165.76-260.89-205.35-70.69-26.19-169.03-33.78-225.31 24.69-23.12 24-34.02 56.86-34.85 89.62-1.12 46.88-7.84 86.51-39 123.85-53.11 63.34-182.558-95.9-213.033-129.88C790.155 1188 697.268 1053.05 619.035 910.7a2025.672 2025.672 0 0 1-64.602-127.793 1543.755 1543.755 0 0 0-7.303-16.308c-1.363-3.067-7.253-19.181-2.58-5.794-4.138-11.732-9.055-23.659-5.112-36.22 10.613-34.078 63.678-46.979 93.861-53.94 7.935-1.802 15.968-3.359 23.952-4.771 1.349-.223 2.295-.381 2.932-.489 39.42-5.471 75.696-14.454 112.495-30.376 113.431-48.78 150.236-159.047 107.346-271.651-23.027-60.123-62.704-113.431-96.83-167.518-41.332-65.576-84.027-168.102-165.668-190.301-100.969-27.409-204.955 51.847-275.059 114.94-86.704 77.942-153.107 178.034-182.512 291.513-26.094 100.579-16.309 198.14 6.378 298.573 64.261 285.671 231.243 543.935 413.123 768.945 120.003 148.34 258.263 313.57 437.854 388.68 222.04 92.84 474.66 32.62 666.52-101.11 3.66-2.55 43.08-30.59 41.52-31.25Zm-51.45-51.51c34.95-28.28 16.4-89.97 2.23-125.8-43.52-109.87-132.9-209.38-236.74-265.42-51.46-27.84-127.89-57-184.9-28.96-12.26 6.08-22.59 18.06-25.75 25.56-5.74 13.72-4.92 12.8-5.06 24.24-.68 48.93-5.7 91.72-30.82 135.1-20.49 35.53-50.19 73.85-93.86 78.33-49.71 4.91-97.37-24.93-135.29-53.65-108.222-81.98-194.683-199.6-272.332-309.58a2207.308 2207.308 0 0 1-187.916-318.967c-28.626-59.977-61.925-126.673-8.13-185.044 62.849-68.205 162.162-56.229 241.223-88.311 189.134-76.821 22.833-277.151-42.938-381.381-16.309-25.948-31.692-52.87-49.121-78.039-26.873-38.606-63.823-45.519-107.248-31.985-71.564 22.248-135.095 78.867-185.58 132.758-82.322 87.776-137.675 207.876-135.825 329.681 1.753 116.742 39.044 235.625 82.42 342.971C394.85 1125.2 550.392 1341.98 721.026 1534.09c131.297 148.04 280.214 293.26 489.794 306.06 114.56 7.06 228.67-22.54 330.71-73.51 34.22-17.13 100.77-60.8 132.37-82.32Z"/></svg>