<svg viewBox="0 0 2025 2025" xmlns="http://www.w3.org/2000/svg" fill="currentColor" style="fill-rule:evenodd;clip-rule:evenodd;stroke-linejoin:round;stroke-miterlimit:2"><path d="M1724.56 300.438C1532.74 108.613 1279.33 2.971 1011.01 2.971c-268.314 0-521.722 105.642-713.547 297.467C105.642 492.259 0 745.667 0 1013.98c0 268.32 105.642 521.73 297.463 713.56C489.288 1919.36 742.701 2025 1011.01 2025c268.32 0 521.73-105.64 713.55-297.46 191.82-191.83 297.47-445.24 297.47-713.56 0-268.313-105.65-521.721-297.47-713.542ZM1011.01 1941.67c-511.522 0-927.677-416.16-927.677-927.69 0-511.521 416.155-927.676 927.677-927.676 511.53 0 927.69 416.155 927.69 927.676 0 511.53-416.16 927.69-927.69 927.69Zm25.17-1544.553c-336.85 0-553.905 238.821-553.905 469.205 0 224.808 124.4 277.558 150.534 292.658 26.008 15.27 44.546 4.57 50.362-16.15l15.634-62.81s7.271-16.68-7.15-34.09c-17.771-21.4-56.1-60.463-56.1-157.6 0-173.267 136.796-361.925 384.755-361.925 243.38 0 326.75 158.446 326.75 289.587 0 163.175-78.12 407.008-243.07 407.008-102.47 0-131.952-79.05-131.952-117.74-.687-13.08 2.342-26.25 3.638-32.5 1.291-6.23 42.934-138.83 56.184-186.122 29.77-105.942 4.32-194.112-93.101-194.112-137.325 0-186.763 193.221-126.504 316.894l-98.021 401.31s-13.533 65.67-16.158 104.45c-4.08 59.53 4.362 147.62 7.27 173.88 2.142 19.02 2.142 28.15 10.825 29.88 8.684 1.62 23.467-13.04 35.421-30.7 14.946-22.21 65.917-94.18 86.596-139.98 18.496-40.8 21.729-41.85 40.875-114.14 19.104-72.34 44.992-174.08 44.992-174.08s53.721 94.22 198.955 94.22c206.6 0 416.75-179.93 416.75-516.293 0-272.629-236.16-440.85-503.58-440.85Z"/></svg>