<svg viewBox="0 0 1913 1913" xmlns="http://www.w3.org/2000/svg" fill="currentColor"><path d="M19.706 0v.919c0 .585-.042 1.044-.042 1.337 0 2.715-.167 4.887-.543 6.474-.502 2.339-1.546 4.219-3.05 5.723-.125.125-.125.251.042.418 1.211 1.504 1.88 3.007 1.88 4.511 0 1.922-.251 3.467-.669 4.595-.125.251-.292.501-.543.668-.877.585-2.464 1.253-4.636 2.047-.167.042-.251-.042-.251-.167 0-.042.042-.418.126-1.086 0-.167-.042-.251-.084-.292-.084-.042-.251 0-.46.125-1.879 1.002-2.84 1.504-2.84 1.504a2.302 2.302 0 0 1-.418-1.337c0-.585.167-1.044.46-1.378-1.504-.335-2.715-.878-3.634-1.546-1.003-.794-1.504-1.713-1.504-2.715 0-1.504.859-2.988 2.631-4.386 1.215-.959 3.217-1.569 5.431-1.755-1.17-.334-2.632-.919-4.386-1.754-1.253-.585-2.507-1.629-3.76-3.133C2.078 7.185 1.201 5.681.825 4.177.574 3.3.407 2.256.282 1.044c1.587.877 2.798 1.546 3.634 2.047 1.002.585 2.088 1.462 3.258 2.506 1.253 1.128 2.172 2.131 2.882 3.05a224.717 224.717 0 0 0 3.76 4.971v-2.674c0-4.344 1.963-7.978 5.89-10.944Zm-8.605 29.7c.01.334-.084.375-.251.125-.167-.209-.501-.543-1.044-.961-.543-.418-.919-.626-1.086-.626-.126 0-.502.167-1.045.501-.585.292-.877.501-.96.501-.042-.083-.126-.543-.209-1.295-.126-.793-.209-1.295-.209-1.462 0-.209.083-.209.25-.125.084.083.46.292 1.128.585.669.292 1.045.459 1.17.459.042 0 .418-.167 1.044-.543.627-.334 1.003-.543 1.044-.543 0 .042.088 1.608.057 1.082-.002-.033.026.34.069 1.132.036.668.031.816.042 1.169Zm5.806-3.3c0 .334-.084.543-.209.668-.919.292-1.754.501-2.506.752-1.379.376-2.089.626-2.214.626-.084 0-.126-.083-.126-.208 0-.293.042-.502.168-.627.793-.292 1.545-.501 2.213-.71 1.295-.46 2.131-.71 2.507-.71.125 0 .167.083.167.209ZM7.882 16.123a1.129 1.129 0 1 0 0 2.258 1.129 1.129 0 0 0 0-2.258Z" transform="translate(318.942) scale(63.7966)"/></svg>