<svg viewBox="0 0 1913 1913" xmlns="http://www.w3.org/2000/svg" fill="currentColor"><path d="M1109.513 659.872a16836.434 16836.434 0 0 1-89.886-120.79c-.354-.471-.648-.942-1.001-1.413-44.09-56.981-101.012-119.26-178.713-189.25-.059-.059-.177-.118-.235-.176C766.803 283.138 698.815 228.747 636.3 192.25c-49.681-29.785-121.614-69.519-215.797-121.555-24.017-13.303-53.508-12.126-76.406 3.06-22.958 15.13-35.555 41.795-32.73 69.108 7.83 75.7 18.484 140.98 34.083 195.96 24.724 97.715 80.586 196.078 170.001 299.209 81.763 97.95 164.291 165.115 246.054 203.318 13.068 6.24 25.9 12.244 38.439 18.013-44.325 17.836-83.058 39.263-114.138 63.81-126.56 99.833-183.01 208.733-183.01 316.16 0 79.762 36.731 154.52 116.493 217.682.824.648 1.589 1.236 2.413 1.825 43.207 31.434 96.008 58.982 158.581 80.291-.706 5.416-1.295 10.95-1.59 16.6-26.665-10.89-48.268-7.417-62.042-2.237-21.545 8.065-51.566 25.37-51.566 79.232 0 11.067 4.71 43.972 12.95 95.95 6.534 57.98 16.188 92.829 19.426 99.363 12.479 25.017 38.026 40.793 66.046 40.793 7.593 0 19.778-1 35.319-8.182 8.358-3.826 25.606-14.775 54.214-29.138a65.709 65.709 0 0 0 5.65-3.12c6.77-4.18 14.246-8.3 20.78-11.714 6.534 4.238 14.186 9.477 20.956 14.716 23.781 18.307 39.321 32.788 47.445 42.5 36.967 51.919 83.764 40.323 102.6 31.14 14.364-7.005 46.68-29.315 44.973-85.236l-.059-2.355c23.782-6.063 65.929-17.954 127.619-34.789 1.354-.353 2.649-.765 3.944-1.177 43.972-14.716 92.83-26.901 146.573-43.972 11.243-3.59 21.485-9.772 29.785-18.13 17.483-17.483 33.965-44.973 33.965-91.535 0-24.958-8.594-43.972-20.544-57.746 15.835-15.07 28.02-33.258 37.32-51.919 1.178-2.354 2.296-4.826 3.18-7.299 26.96-72.756 43.971-172.238 43.971-296.148 0-91.534-34.024-183.951-99.54-275.662 79.35-91.24 135.388-201.612 164.114-335.117 23.016-97.538 33.789-230.808 33.789-397.336 0-17.247 2.472-44.266 2.472-78.702V73.816c0-28.02-15.893-53.626-40.97-66.105-25.017-12.48-55.038-9.654-77.348 7.181-234.222 176.888-357.955 391.685-374.202 644.98Zm-94.066 1030.954c.589 8.418 1.943 29.138 3.768 62.397 2.119 39.321 1.824 48.033 2.472 68.813.589 19.72-4.945 22.133-14.775 7.416-9.83-12.302-29.491-31.963-61.455-56.568-31.963-24.606-54.096-36.85-63.927-36.85-7.417 0-29.55 9.83-61.513 29.492-34.436 17.188-51.624 29.49-56.51 29.49-2.473-4.885-7.417-31.963-12.303-76.229-7.417-46.68-12.303-76.23-12.303-86.06 0-12.303 4.886-12.303 14.717-7.358 4.944 4.886 27.077 17.188 66.399 34.436 39.38 17.188 61.513 27.019 68.871 27.019 2.473 0 24.606-9.83 61.455-31.964 36.908-19.66 59.041-31.963 61.455-31.963 0 1.883 3.06 56.392 3.65 67.93Zm348.008-62.985c0 19.661-4.945 31.964-12.303 39.322-54.096 17.188-103.248 29.491-147.515 44.266-81.174 22.133-122.968 36.85-130.326 36.85-4.944 0-7.417-4.887-7.417-12.245 0-17.247 2.473-29.55 9.89-36.908 46.68-17.188 90.945-29.49 130.267-41.794 76.23-27.077 125.44-41.793 147.573-41.793 7.358 0 9.83 4.885 9.83 12.302Zm-348.008 62.985-.294-4.238c.412 7.24.47 7.77.294 4.238Zm512.77-1617.01v54.096c0 34.436-2.473 61.455-2.473 78.702 0 159.818-9.83 287.672-31.963 381.09-29.55 137.684-91.005 248.35-179.537 336.882-7.358 7.358-7.358 14.775 2.472 24.605 71.285 88.533 110.666 177.006 110.666 265.538 0 113.138-14.775 204.084-39.38 270.483-7.359 14.775-17.19 29.491-31.964 39.322-51.624 34.436-145.043 73.757-272.896 120.496-9.83 2.472-14.775-2.473-14.775-9.83 0-2.473 2.472-24.606 7.416-63.928 0-9.83-2.472-14.775-4.944-17.188-4.945-2.472-14.775 0-27.078 7.358-110.606 58.982-167.175 88.532-167.175 88.532a135.527 135.527 0 0 1-24.606-78.702c0-34.435 9.83-61.454 27.078-81.115-88.532-19.72-159.817-51.683-213.914-91.005-59.041-46.738-88.532-100.835-88.532-159.817 0-88.532 50.564-175.888 154.872-258.18 71.52-56.451 189.368-92.359 319.694-103.308-68.871-19.66-154.932-54.096-258.18-103.248-73.757-34.436-147.574-95.89-221.33-184.423-81.116-93.418-132.74-181.95-154.874-270.483-14.775-51.624-24.605-113.079-31.963-184.423 93.418 51.625 164.703 91.005 213.914 120.496 58.982 34.436 122.91 86.06 191.78 147.515 73.758 66.4 127.855 125.44 169.648 179.537 95.89 130.326 169.648 226.217 221.331 292.616V718.03c0-255.708 115.552-469.622 346.713-644.214ZM832.202 1022.89c-36.732 0-66.458 29.785-66.458 66.458 0 36.731 29.726 66.458 66.458 66.458 36.672 0 66.458-29.727 66.458-66.458 0-36.673-29.786-66.458-66.458-66.458Zm0 73.816a7.36 7.36 0 0 1-7.358-7.358 7.36 7.36 0 0 1 7.358-7.358 7.36 7.36 0 0 1 7.358 7.358 7.36 7.36 0 0 1-7.358 7.358Z"/></svg>