<svg viewBox="0 0 1850 1871" xmlns="http://www.w3.org/2000/svg" fill="currentColor" style="fill-rule:evenodd;clip-rule:evenodd;stroke-linejoin:round;stroke-miterlimit:2"><path d="M291.144 1870.01C130.756 1870.01.273 1739.52.273 1579.14c0-160.39 130.483-290.87 290.871-290.87 160.387 0 290.871 130.48 290.871 290.87 0 160.38-130.484 290.87-290.871 290.87Zm927.766 0H882.798c-20.987 0-37.891-17.22-37.491-38.21.05-3.05 2.662-311.71-207.234-548.43-215.092-242.57-597.688-258.1-601.525-258.23h-.029c-20.2-.68-36.23-17.24-36.246-37.446V642.519c0-20.209 16.016-36.784 36.216-37.475 5.205-.175 129.009-3.85 299.251 39.783 157.054 40.246 384.854 130.292 578.213 330.688C1098.02 1166.27 1181.3 1388.99 1218.76 1542.23c40.59 166.03 37.78 286.28 37.63 291.32-.56 20.3-17.18 36.46-37.48 36.46Zm593.39 0h-353.11c-20.72 0-37.5-16.79-37.5-37.5 0-46.65-2.71-74.39-5.58-103.75-.89-9.09-1.78-18.31-2.62-28.2-41.51-488.92-302.83-896.149-716.954-1117.27C506.194 481.656 278.398 427.939 37.773 427.939c-20.104 0-36.634-15.85-37.467-35.937L.273 43.085C-.531 23.639-.819 6.739 18.485 4.264c7.271-.933 181.042-22.133 436.534 39.504 149.367 36.034 295.992 93.146 435.8 169.746 174.161 95.425 338.151 221.521 487.421 374.784 11 10.354 117.48 113.15 227.35 311.929 104.14 188.423 231.05 502.913 244.19 931.133.65 21.15-16.32 38.65-37.48 38.65ZM291.144 1363.27c-119.034 0-215.871 96.84-215.871 215.87s96.837 215.87 215.871 215.87c119.033 0 215.871-96.84 215.871-215.87s-96.838-215.87-215.871-215.87Zm628.075 431.74h261.451c-2.1-46.25-9.56-132.7-35.35-237.35-35.38-143.57-113.6-352.08-285.338-530.07-180.409-186.975-393.417-271.488-540.346-309.467-107.967-27.904-197.205-35.533-244.363-37.529v272.154c41.492 3.925 114.783 13.659 200.833 37.396 175.121 48.316 319.692 132.506 418.084 243.476 186.763 210.62 219.471 465.75 225.029 561.39Zm576.861 0h277.22c-18.82-393.52-136.36-683.01-233.35-858.499-107.79-195.009-212.4-292.938-213.44-293.905l-1.4-1.366C1000.1 307.269 664.957 172.118 441.036 117.552 261.981 73.918 135.015 74.177 73.831 76.989l-.071 276.338c239.655 5.125 466.492 61.496 658.101 163.804C951.694 634.51 1130.25 800.344 1262.55 1010.01c126.68 200.77 204.72 437.36 225.67 684.2.81 9.57 1.68 18.48 2.54 27.27 2.21 22.57 4.32 44.25 5.32 73.53Z"/></svg>