<svg viewBox="0 0 1913 1913" xmlns="http://www.w3.org/2000/svg" fill="currentColor" style="fill-rule:evenodd;clip-rule:evenodd;stroke-linejoin:round;stroke-miterlimit:2"><path d="M23.3 19.5c1.2-.95 1.2-2.8 0-3.78a27.47 27.47 0 0 0-5.58-3.59c-1.38-.66-2.92.26-3.14 1.83-.34 2.4-.4 4.82-.18 7.12.15 1.59 1.67 2.54 3.07 1.93a25.402 25.402 0 0 0 5.83-3.5v-.01Zm8.97-6.99c2.62 2.868 2.629 7.312.02 10.19a33.839 33.839 0 0 1-16.96 10.13c-3.453.864-7.016-1.203-7.98-4.63-1.97-6.73-1.68-14.34.22-21.1 1-3.55 4.34-5.78 7.78-4.96 6.37 1.52 12.35 5.43 16.92 10.37Z"  transform="translate(-279.554 -114.035) scale(61.1794)"/></svg>