<svg viewBox="0 0 1871 1984" xmlns="http://www.w3.org/2000/svg" fill="currentColor" style="fill-rule:evenodd;clip-rule:evenodd;stroke-linejoin:round;stroke-miterlimit:2"><path d="M382.334 1983.34c-21.68.04-40.109-16.57-42.288-38.13L325.5 1803.49l84.534-8.68 8.525 83.5 10.462-4.63 34.442 77.63-63.929 28.34c-5.392 2.46-11.255 3.69-17.2 3.69Zm124.325-144.06 194.192-86.08 34.441 77.67-194.196 86.09-34.437-77.68Zm306.312-42.97-34.479-77.67 43.038-19.03c6.816-3.01 14.429-4.12 21.521-3.45a917.729 917.729 0 0 0 157.699 2.26l6.18 84.69a989.128 989.128 0 0 1-161.183-1.38l-32.776 14.58Zm282.059-23.7-13.92-83.81a880.638 880.638 0 0 0 194.2-55.81l32.74 78.39c-68.4 28.54-139.9 49.07-213.02 61.23Zm-778.209-53.62-17.517-170.93a901.927 901.927 0 0 1-137.4-152.3l69.117-49.34c39.192 54.85 85.008 104.62 136.408 148.26 8.325 7.13 13.596 17.12 14.705 28.06l19.262 187.62-84.575 8.6v.03Zm235.413-18.15c-23.3 0-42.484-19.18-42.484-42.48v-215.08c-186.666-127.89-297.316-331.64-297.316-549.496 0-374.754 323.908-679.675 722.088-679.675 398.178.037 722.088 304.921 722.088 679.675 0 374.716-323.91 679.596-722.088 679.596-43.675 0-87.509-3.72-130.388-11.09l-230.696 132.84c-6.421 3.77-13.754 5.71-21.204 5.71Zm836.226-27.54-39.95-74.98a856.981 856.981 0 0 0 165.66-115.09l56.4 63.48a942.243 942.243 0 0 1-182.11 126.59ZM934.522 299.075c-351.334 0-637.159 266.759-637.159 594.709 0 196.226 103.833 379.756 277.742 490.916 12.204 7.85 19.616 21.28 19.616 35.79v164.39l180.48-104c8.841-5.1 19.262-6.81 29.25-4.87 42.641 8.25 86.437 12.44 130.071 12.44 351.338 0 637.158-266.75 637.158-594.666 0-327.95-285.82-594.667-637.158-594.667v-.042ZM1634.19 1484.52l-62.31-57.77a812.112 812.112 0 0 0 117.7-163.28l74.59 40.66c-35.71 65.26-79.33 125.86-129.98 180.39l.02.02h-.03l.01-.02ZM113.788 1320.58a864.648 864.648 0 0 1-84.73-205.93l82.038-21.95c17.437 64.95 43.117 127.37 76.487 185.75l-73.795 42.13Zm1689.062-96.9-78.43-32.78a768.202 768.202 0 0 0 52.71-193.595l84.13 11.375c-9.94 73.91-29.6 146.2-58.41 215ZM10.508 1027.26a856.052 856.052 0 0 1-5.866-222.726l84.458 8.837a774.945 774.945 0 0 0 5.308 200.659l-83.9 13.23ZM1868.64 919.626l-84.98-2.575a769.883 769.883 0 0 0-20-199.546l82.7-19.459a855.428 855.428 0 0 1 22.28 221.58ZM101.742 733.992l-83.146-17.637a857.27 857.27 0 0 1 74.308-210.046L168.6 544.75a771.146 771.146 0 0 0-66.858 189.242ZM1741.1 640.263a790.718 790.718 0 0 0-89.96-179.533l70.47-47.355a879.386 879.386 0 0 1 99.75 198.867l-80.26 28.021ZM208.69 474.806l-71.515-45.939c40.263-62.496 88.021-119.842 142.275-170.692l58.096 61.946A821.618 821.618 0 0 0 208.69 474.806l.056.036h-.079l.023-.036Zm1394.06-78.71a841.263 841.263 0 0 0-146.36-138.671l50.61-68.208c59.68 44.229 113.82 95.554 161.22 152.742l-65.47 54.095v.042ZM399.059 267.688l-51.917-67.217A944.577 944.577 0 0 1 537.334 86.375l34.875 77.442c-61.588 27.7-119.725 62.537-173.15 103.833v.038Zm990.201-55.344c-57.81-34.947-119.55-62.998-183.9-83.602l25.84-80.85c70.74 22.629 138.75 53.504 202.05 91.787l-43.99 72.665.03.019h-.04l.01-.019Zm-741.751-78.215-27.425-80.45A966.577 966.577 0 0 1 836.63 6.633l8.442 84.538c-67.413 6.737-133.876 21.2-197.563 43v-.042Zm479.621-26.471a891.548 891.548 0 0 0-192.608-20.925h-8.68l-.554-84.891 9.234-.079c71.098 0 142.078 7.729 210.958 22.945l-18.35 82.95Z"/></svg>