<svg viewBox="0 0 1875 1988" xmlns="http://www.w3.org/2000/svg" fill="currentColor" style="fill-rule:evenodd;clip-rule:evenodd;stroke-linejoin:round;stroke-miterlimit:2"><path d="M383.125 1987.5c-21.725.04-40.191-16.6-42.375-38.2l-14.575-142.02 84.709-8.69 8.541 83.67 10.484-4.65 34.512 77.8-64.062 28.4c-5.4 2.46-11.275 3.69-17.234 3.69Zm124.58-144.36 194.6-86.25 34.508 77.83-194.596 86.27-34.512-77.85Zm306.946-43.04-34.55-77.84 43.133-19.07c6.787-3.02 14.454-4.13 21.563-3.45a921.492 921.492 0 0 0 158.023 2.26l6.19 84.87a993.179 993.179 0 0 1-161.513-1.39l-32.846 14.62Zm282.649-23.75-13.94-84c66.79-11.12 132.08-29.86 194.59-55.92l32.81 78.56c-68.55 28.59-140.19 49.16-213.46 61.36Zm-779.821-53.74-17.554-171.28a903.816 903.816 0 0 1-137.687-152.62l69.258-49.44a821.414 821.414 0 0 0 136.696 148.57c8.342 7.15 13.583 17.15 14.733 28.11l19.304 188.01-84.75 8.61v.04Zm235.896-18.18c-23.35 0-42.57-19.22-42.57-42.58v-215.52c-187.051-128.16-297.93-332.32-297.93-550.633 0-375.53 324.58-681.084 723.576-681.084 398.999.037 723.589 305.554 723.589 681.084 0 375.493-324.59 681.013-723.589 681.013-43.763 0-87.684-3.74-130.655-11.12l-231.171 133.12c-6.433 3.77-13.783 5.72-21.25 5.72Zm837.955-27.61-40.03-75.13a859.389 859.389 0 0 0 166.01-115.33l56.51 63.62a944.162 944.162 0 0 1-182.49 126.84Zm246.23-189.15-62.43-57.9a813.83 813.83 0 0 0 117.95-163.63l74.74 40.75a901.15 901.15 0 0 1-130.26 180.78Zm-1523.577-164.3a868.046 868.046 0 0 1-84.866-206.35l82.208-22c17.475 65.09 43.208 127.64 76.646 186.14l-73.988 42.21Zm1692.597-97.1-78.59-32.84a768.239 768.239 0 0 0 52.77-194l84.35 11.4c-9.96 74.06-29.66 146.5-58.53 215.44ZM10.533 1029.45a857.442 857.442 0 0 1-5.879-223.187l84.629 8.854a776.632 776.632 0 0 0 5.321 201.073l-84.071 13.26ZM1872.5 921.592l-85.14-2.583a771.777 771.777 0 0 0-20.06-199.958l82.88-19.5a857.229 857.229 0 0 1 22.32 222.041ZM101.913 735.571l-83.238-17.712A859.312 859.312 0 0 1 93.138 507.38l75.85 38.52a772.89 772.89 0 0 0-67.034 189.634l-.041.037Zm1642.797-93.92a792.301 792.301 0 0 0-90.15-179.901l70.6-47.458a880.248 880.248 0 0 1 99.97 199.279l-80.42 28.08ZM209.138 475.884l-71.68-46.067c40.346-62.625 88.205-120.092 142.567-171.042l58.263 62.071a823.21 823.21 0 0 0-129.15 155.038Zm1396.922-78.909a841.98 841.98 0 0 0-146.66-138.954l50.68-68.35c59.8 44.321 114.09 95.713 161.59 153.058l-65.61 54.209v.037ZM399.884 268.304l-52.025-67.354A946.557 946.557 0 0 1 538.446 86.617l34.946 77.6c-61.712 27.758-119.971 62.667-173.508 104.05v.037Zm992.256-55.452a867.789 867.789 0 0 0-184.28-83.785l25.89-81.013c70.89 22.675 139 53.613 202.46 91.975l-44.07 72.823.02.015h-.03l.01-.015Zm-743.289-78.381-27.484-80.617c70.292-23.946 143.092-39.796 216.955-47.141l8.5 84.708c-67.555 6.75-134.192 21.246-197.971 43.092v-.042Zm480.569-26.538a893.843 893.843 0 0 0-192.969-20.962h-8.696l-.592-85.063 9.288-.083c71.249 0 142.379 7.746 211.359 22.996l-18.39 83.112.04.009h-.04v-.009Z"/></svg>