<svg viewBox="0 0 1888 1888" xmlns="http://www.w3.org/2000/svg" fill="currentColor" style="fill-rule:evenodd;clip-rule:evenodd;stroke-linejoin:round;stroke-miterlimit:2"><path d="M1622.5 855.502c-21.25 0-42.19 2.51-62.62 7.485-11.52-92.883-53.99-178.655-121.84-244.691-77.39-75.315-179.51-116.795-287.52-116.795h-.2c-66.09 0-131.96 16.201-190.497 46.849A29.5 29.5 0 0 0 944 574.485v782.521c0 16.291 13.21 29.494 29.504 29.494H1622.5c146.4 0 265.5-119.101 265.5-265.499 0-146.399-119.1-265.499-265.5-265.499ZM265.502 914.503c-16.294 0-29.5 13.207-29.5 29.497v413.006c0 16.291 13.206 29.494 29.5 29.494 16.291 0 29.498-13.203 29.498-29.494V944c0-16.29-13.207-29.497-29.498-29.497Zm117.999-117.999c-16.29 0-29.5 13.206-29.5 29.501v531.001c0 16.291 13.21 29.494 29.5 29.494 16.291 0 29.498-13.203 29.498-29.494V826.005c0-16.295-13.207-29.501-29.498-29.501Zm118-88.502c-16.291 0-29.501 13.21-29.501 29.501v619.503c0 16.291 13.21 29.494 29.501 29.494 16.29 0 29.5-13.203 29.5-29.494V737.503c0-16.291-13.21-29.501-29.5-29.501Zm235.998 0c-16.291 0-29.501 13.21-29.501 29.501v619.503c0 16.291 13.21 29.494 29.501 29.494 16.294 0 29.501-13.203 29.501-29.494V737.503c0-16.291-13.207-29.501-29.501-29.501ZM619.5 678.501c-16.291 0-29.501 13.21-29.501 29.501v649.004c0 16.291 13.21 29.494 29.501 29.494 16.294 0 29.5-13.203 29.5-29.494V708.002c0-16.291-13.206-29.501-29.5-29.501Zm236.001-88.498c-16.294 0-29.5 13.206-29.5 29.5v737.503c0 16.291 13.206 29.494 29.5 29.494 16.291 0 29.501-13.203 29.501-29.494V619.503c0-16.294-13.21-29.5-29.501-29.5ZM147.5 914.503c-16.291 0-29.498 13.207-29.498 29.497v383.499c0 16.294 13.207 29.507 29.498 29.507 16.294 0 29.5-13.213 29.5-29.507V944c0-16.29-13.206-29.497-29.5-29.497Zm-118.003 88.492c-16.291 0-29.497 13.213-29.497 29.504v236.005c0 16.294 13.206 29.501 29.497 29.501 16.294 0 29.501-13.207 29.501-29.501v-236.005c0-16.291-13.207-29.504-29.501-29.504Z"/></svg>