<svg viewBox="0 0 1871 1984" xmlns="http://www.w3.org/2000/svg" fill="currentColor" style="fill-rule:evenodd;clip-rule:evenodd;stroke-linejoin:round;stroke-miterlimit:2"><path d="M1601.235 1435.43H964.449c-21.1 0-38.204-17.104-38.204-38.196v-767.8a38.204 38.204 0 0 1 20.488-33.845c58.762-30.761 124.88-47.023 191.204-47.023h.198c108.409 0 210.897 41.634 288.573 117.224 65.637 63.88 107.6 146.15 120.9 235.494 17.577-3.578 35.491-5.377 53.627-5.377 148.751 0 269.765 121.013 269.765 269.765 0 148.745-121.014 269.759-269.765 269.759Zm-1331.474 0c-21.096 0-38.199-17.104-38.199-38.196V992c0-21.098 17.103-38.203 38.2-38.203 21.1 0 38.203 17.105 38.203 38.203v405.234c0 21.092-17.103 38.197-38.204 38.197Zm115.783 0c-21.1 0-38.202-17.104-38.202-38.196V876.221c0-21.098 17.102-38.2 38.202-38.2 21.098 0 38.2 17.102 38.2 38.2v521.013c0 21.092-17.102 38.197-38.2 38.197Zm115.78 0c-21.097 0-38.2-17.104-38.2-38.196v-607.85c0-21.097 17.103-38.199 38.2-38.199 21.1 0 38.203 17.102 38.203 38.2v607.85c0 21.091-17.103 38.196-38.204 38.196Zm115.782 0c-21.1 0-38.202-17.104-38.202-38.196V760.438c0-21.098 17.102-38.203 38.202-38.203 21.098 0 38.2 17.105 38.2 38.203v636.796c0 21.092-17.102 38.197-38.2 38.197Zm115.78 0c-21.1 0-38.203-17.104-38.203-38.196v-607.85c0-21.097 17.103-38.199 38.202-38.199 21.098 0 38.199 17.102 38.199 38.2v607.85c0 21.091-17.101 38.196-38.199 38.196Zm115.782 0c-21.1 0-38.204-17.104-38.204-38.196v-723.63c0-21.1 17.105-38.202 38.204-38.202 21.1 0 38.197 17.102 38.197 38.203v723.63c0 21.091-17.097 38.196-38.197 38.196Zm-694.686-28.945c-21.1 0-38.203-17.104-38.203-38.196V992c0-21.097 17.103-38.202 38.203-38.202 21.098 0 38.2 17.105 38.2 38.203v376.29c0 21.091-17.102 38.195-38.2 38.195Zm848.67-47.455h598.583c106.62 0 193.365-86.739 193.365-193.358 0-106.622-86.744-193.362-193.365-193.362-25.133 0-49.686 4.831-72.986 14.355a38.207 38.207 0 0 1-52.642-34.182c-5.676-183.648-153.916-327.511-337.487-327.511h-.168c-46.47 0-92.794 9.79-135.3 28.462v705.596ZM38.2 1348.595c-21.096 0-38.199-17.104-38.199-38.2v-231.562c0-21.097 17.103-38.2 38.2-38.2 21.1 0 38.203 17.103 38.203 38.2v231.562c0 21.096-17.103 38.2-38.204 38.2Z"/></svg>