<svg viewBox="0 0 1950 1950" xmlns="http://www.w3.org/2000/svg" fill="currentColor" style="fill-rule:evenodd;clip-rule:evenodd;stroke-linejoin:round;stroke-miterlimit:2"><path d="M426.459 739.567a73.434 73.434 0 0 1-17.538 2.138c-32.812.091-61.675-22.404-69.612-54.238-9.967-40.412 15.316-87.354 51.933-96.575 142.404-34.98 288.017-52.717 432.804-52.717 280.292 0 548.726 63.017 797.939 187.338a71.408 71.408 0 0 1 36.345 41.496c6.138 18.242 4.78 37.875-3.783 55.22-11.67 23.36-36.892 48.51-64.687 48.51a75.042 75.042 0 0 1-31.467-7.092C1329.468 749.113 1082.4 691.038 824.055 691.038c-132.767.008-266.534 16.33-397.596 48.53Zm10.883 234.534a1474.473 1474.473 0 0 1 386.713-51.584c234.97 0 468.296 56.855 674.909 164.5 14.479 7.355 25.154 19.813 30.041 35.088 4.959 15.475 3.467 32.108-4.275 46.954-18.437 36.084-39.987 60.334-53.641 60.334-9.675 0-19.013-2.321-28.309-6.967-191.854-99.908-400.02-150.558-618.734-150.558-121.65 0-241.004 16-354.633 47.512a60.729 60.729 0 0 1-16.008 2.15c-27.342 0-51.48-18.442-58.659-44.812-9.133-34.288 11.733-94.226 42.596-102.617Zm42.504 358.97c112.954-34.387 228.767-51.82 344.2-51.82 196.055 0 389.605 49.683 559.813 143.733 10.125 5.517 19.325 23.755 23.455 46.467 4.129 22.7 2.483 46.046-4.142 58.188-8.367 15.583-25.338 25.658-43.254 25.658a49.761 49.761 0 0 1-24.484-6.217c-156.25-85.883-333.083-131.283-511.388-131.283-107.72 0-213.47 15.946-314.229 47.35a51.585 51.585 0 0 1-15.004 2.25c-22.063.008-41.213-14.046-47.633-34.9-8.675-28.513 9.266-91.775 32.666-99.425ZM974.267.718C437.055.717 0 437.805 0 975.059c0 537.584 437.055 974.943 974.267 974.943 537.622 0 975.018-437.36 975.018-974.943 0-537.254-437.396-974.342-975.018-974.342Z"/></svg>