<svg viewBox="0 0 1913 1913" xmlns="http://www.w3.org/2000/svg" fill="currentColor" style="fill-rule:evenodd;clip-rule:evenodd;stroke-linejoin:round;stroke-miterlimit:2"><path d="M1425.761 832.87c-14.168-124.944-58.422-223.785-126.03-294.215-77.564-80.81-186.758-126.36-324.649-127.243h-.018c-1.195-.01-2.382-.01-3.577-.01-164.352 0-300.422 71.378-384.552 199.035-22.15 33.606-13.304 78.742 19.879 101.507l126.691 86.907a73.481 73.481 0 0 0 20.182 9.71C621.654 876.847 548.042 999.714 555.894 1147c6.06 113.783 62.477 211.824 159.332 275.772h.01c77.179 50.947 176.37 76.701 279.679 71.056h.018c138.038-7.567 245.586-61.742 321.128-158.036 31.464-40.107 56.712-86.86 75.405-140.989a167.653 167.653 0 0 1 7.061 14.51s.01 0 .01.008c29.293 68.297 28.677 180.02-62.91 271.524-90.888 90.796-201.066 127.445-366.043 128.733-183.293-1.462-323.28-57.098-413.441-171.717-88.084-111.971-130.756-274.448-132.53-481.353 1.774-206.922 44.446-369.399 132.53-481.37 90.161-114.619 230.139-170.255 413.404-171.726 185.463 1.49 328.383 57.925 422.415 173.61 46.561 57.292 81.151 129.598 104.294 213.6 10.767 39.085 51.039 62.172 90.207 51.718l148.464-39.61a73.829 73.829 0 0 0 44.943-34.48 73.866 73.866 0 0 0 7.273-56.178c-34.516-127.225-89.178-236.685-163.083-327.6C1473.5 99.23 1254.31 1.97 970.595.002h-2.059c-283.79 1.967-500.9 99.99-647.507 286.354-127.362 161.906-195.512 386.464-197.737 668.838l-.01.542v1.526l.01.543c2.225 282.373 70.375 506.931 197.737 668.838 146.607 186.364 363.718 284.396 647.507 286.354H970.595c252.455-1.747 429.606-69.961 576.203-216.42 201.176-200.984 193.619-453.227 127.317-607.888-.01 0-.01-.01-.01-.01-45.981-107.198-131.141-195.898-248.344-255.81Zm-46.818 59.158a614.41 614.41 0 0 0-23.152-10.51c-13.626-251.074-150.818-394.812-381.178-396.283-1.048-.01-2.078-.01-3.126-.01-137.789 0-252.38 58.818-322.912 165.842l126.692 86.907c52.694-79.947 135.38-96.984 196.285-96.984h2.105c75.846.487 133.082 22.545 170.126 65.548 26.959 31.307 44.99 74.577 53.917 129.183-67.249-11.429-139.977-14.941-217.726-10.491-219.014 12.615-359.819 140.354-350.358 317.846 4.8 90.033 49.65 167.487 126.287 218.085 64.794 42.773 148.253 63.69 234.985 58.955 114.545-6.28 204.403-49.981 267.092-129.891 47.609-60.684 77.72-139.325 91.016-238.414 54.588 32.944 95.044 76.296 117.387 128.41 37.992 88.59 40.207 234.167-78.577 352.85-104.073 103.972-229.173 148.951-418.24 150.34-209.718-1.554-368.324-68.812-471.45-199.908-96.56-122.756-146.469-300.063-148.335-527.003 1.866-226.94 51.774-404.246 148.335-527.003 103.126-131.095 261.732-198.353 471.45-199.907 211.244 1.563 372.617 69.143 479.687 200.873 52.501 64.6 92.084 145.834 118.178 240.547l148.464-39.61c-31.63-116.587-81.4-217.046-149.126-300.367-137.265-168.876-338.019-255.415-596.68-257.208h-1.038C710.914 75.61 512.404 162.48 379.047 332 260.382 482.853 199.165 692.764 197.115 955.884l-.01.616.01.626c2.05 263.11 63.267 473.021 181.932 623.876 133.357 169.52 331.867 256.39 590.004 258.173h1.039c229.495-1.59 391.264-61.677 524.53-194.823 174.355-174.19 169.105-392.533 111.64-526.57-41.23-96.12-119.833-174.19-227.317-225.754Zm-396.248 372.553c-95.99 5.407-195.724-37.679-200.634-129.964-3.65-68.426 48.695-144.777 206.519-153.87a919.25 919.25 0 0 1 53.236-1.555c57.328 0 110.96 5.572 159.718 16.229-18.186 227.123-124.861 264.002-218.839 269.16Zm-4.054-73.712h-.102c-33.284 1.876-67.423-3.604-93.462-18.6-15.75-9.076-28.264-22.224-29.294-41.578-2.225-41.67 40.934-70.706 137.045-76.241h.009a844.535 844.535 0 0 1 48.98-1.435c26.58 0 52.288 1.306 76.957 3.88-10.086 48.777-26.425 81.51-48.804 102.556-26.72 25.12-60.473 29.726-91.33 31.418Zm105.084-440.611c-24.835-25.322-62.753-35.133-110.546-35.436-.064 0-.138 0-.211-.01h-1.416c-40.337 0-95.725 8.892-131.703 59.508 41.532-12.183 86.98-19.97 135.877-22.793h.018c37.073-2.124 73.078-2.538 107.98-1.27Z"/></svg>