<svg xmlns="http://www.w3.org/2000/svg" fill="currentColor" style="fill-rule:evenodd;clip-rule:evenodd;stroke-linejoin:round;stroke-miterlimit:2" viewBox="0 0 1984 1984"><path d="m674.343 732.235 260.28 260.288-288.564 288.56c-15.621 15.62-15.621 40.945-.001 56.563l316.846 316.86a40 40 0 0 0 28.285 11.718 40.005 40.005 0 0 0 28.284-11.718l316.831-316.86c15.618-15.618 15.618-40.943 0-56.563l-288.555-288.56 260.24-260.257 288.565 288.569a40.005 40.005 0 0 0 56.57-.002l316.822-316.86a40 40 0 0 0 11.718-28.284 39.998 39.998 0 0 0-11.718-28.285l-316.821-316.78c-15.628-15.619-40.943-15.619-56.57-.002l-288.546 288.476-288.536-288.476c-15.627-15.617-40.944-15.617-56.564 0l-288.59 288.506-288.567-288.506c-15.62-15.617-40.943-15.617-56.563 0L12.357 647.404a40.004 40.004 0 0 0-.003 56.57l316.831 316.86a40.003 40.003 0 0 0 56.571 0l288.587-288.599Zm577.105 577.133a9524649.564 9524649.564 0 0 0-260.26 260.291c-60.144-60.154-200.135-200.144-260.277-260.291l260.277-260.273 260.26 260.273Zm-633.7-633.674L357.472 935.981 97.209 675.694l260.263-260.221 260.276 260.221Zm746.803 0 260.288-260.221 260.25 260.221c-60.134 60.145-200.114 200.14-260.25 260.287l-260.288-260.287Zm-113.103-.024-260.26 260.28-260.273-260.28 260.273-260.2 260.26 260.2Z"/></svg>