<svg viewBox="0 0 2009 2013" xmlns="http://www.w3.org/2000/svg" fill="currentColor" style="fill-rule:evenodd;clip-rule:evenodd;stroke-linejoin:round;stroke-miterlimit:2"><path d="M834.542 1423.25c-13.616-12.61-84.23-79.68-89.407-85.81-45.744-54.35-54.691-124.91-82.092-187.31-24.926-56.72-45.52-115.51-65.213-174.313-6.583-19.637-15.079-25.151-34.041-21.775-89.238 15.811-178.42 31.734-267.828 46.418-59.079 9.68-118.271 19.92-177.857 25.27-63.412 5.62-96.553-18.01-111.52-80.071-23.013-95.203 16.148-203.515 97.453-244.927 96.947-49.402 198.282-56.773 303.388-23.97a585.05 585.05 0 0 1 180.671 91.602c17.893 13.56 26.67 13.447 36.742-8.103 67.238-143.873 174.594-245.433 324.938-298.042 66.454-23.238 134.474-42.988 205.714-46.645 78.2-3.995 151.24 15.53 218.93 52.89 24.14 13.279 31.56 6.696 41.3-14.854 49.9-111.295 120.86-203.909 234.85-256.687 151.64-70.164 271.94-39.667 344.58 109.101 33.64 68.982 4.78 120.972-76.3 153.944-129.02 52.44-257.64 105.724-389.14 151.581-9.56 3.32-16.15 7.821-11.98 18.737 39.33 102.461 77.87 205.26 119 306.989 9.4 23.294 8.5 45.069 7.48 68.425-6.41 145.05-16.76 290.1-16.88 435.27 0 71.68-213.3 168.35-228.94 176.45-81.48 42.26-194.29 55.99-213.7 67.75-19.7 58.63-70.05 113.85-83.56 129.97-15.62 9.91-36.19 19.47-48.67 23.86-114.388 40.29-210.209-19.75-268.557-84.57-51.372-57.11-58.292-103.42-12.66-165.08 16.823-22.79 43.493-42.71 64.312-62.12 53.734-46.48 58.798-48.45-1.013-103.98Zm177.388 337.73-.1.03.1-.03.45-.14-.45.14Zm8.21-2.83c-.57.23-1.15.44-1.74.65l.58-.21c.39-.14.78-.29 1.16-.44Zm2.52-.98c-.55.22-1.11.44-1.66.66.55-.22 1.11-.44 1.66-.66Zm7.71-3.37-.45.22.45-.22.56-.26-.56.26Zm17.99-10.13.01-.01-.01.01Zm-157.144-12.18.149.12-.149-.12-.128-.09.128.09Zm185.594-13.28.45-.57-.33.41-.12.16Zm2.05-2.64-.29.39.29-.39Zm9.31-15.7c-.12.27-.24.55-.37.82.12-.27.25-.55.37-.82Zm2.78-7.84-.02.08.02-.08.01-.01-.01.01Zm.43-1.93c-.08.44-.17.9-.28 1.36.13-.54.23-1.06.31-1.57l-.03.21Zm.26-2.57c-.01.31-.03.62-.05.94.02-.32.04-.63.05-.94Zm-.05-1.72.01.18-.01-.18-.01-.07.01.07Zm-.09-.81.03.26-.03-.26Zm-.11-.63.06.35-.06-.35Zm-.35-1.44c.03.09.06.18.08.27-.02-.09-.05-.18-.08-.27Zm-.5-1.44c.04.09.07.18.11.28-.04-.1-.07-.19-.11-.28Zm-250.569-.46.071.14-.071-.14-.075-.16.075.16Zm-.382-.82.013.03-.013-.03-.056-.13.056.13Zm242.691-9.39c2.93 2.87 5.47 5.55 7.17 8.47-1.7-2.92-4.24-5.6-7.17-8.47Zm-127.398-117.74c-3.125.6-6.297 2.25-9.551 5.04-34.661 29.59-71.346 57-99.31 93.79-5.899 7.75-9.144 15.4-8.015 22.93-1.129-7.53 2.116-15.18 8.015-22.93 27.964-36.79 64.649-64.2 99.31-93.79 3.254-2.79 6.426-4.44 9.551-5.04Zm11.506 2.56c1.924 1.21 3.849 2.81 5.782 4.78-1.864-1.89-3.719-3.45-5.576-4.65l-.206-.13Zm-3.303-1.7.207.08c-.069-.03-.138-.06-.207-.08Zm-1.655-.57.207.06-.207-.06Zm-.829-.2.208.04.134.04c-.114-.03-.228-.06-.342-.08Zm-1.453-.25.208.03-.208-.03Zm-1.041-.08.208.01h.066c-.092 0-.183-.01-.274-.01Zm274.993-65.05.5.01.77.01c-.42 0-.85-.01-1.27-.02Zm-4.94-.17.78.03-.78-.03-.24-.02.24.02Zm27.79-.39-.85.06.85-.06Zm-37.49-.28-.56-.05-.8-.07 1.36.12Zm49.16-.83c-1.05.12-2.11.24-3.18.36.85-.09 1.69-.19 2.52-.28l.66-.08Zm-61.66-.7c1.02.16 2.04.31 3.07.46-1.02-.15-2.05-.3-3.07-.46Zm-3.74-.61c.94.16 1.88.32 2.82.47-.94-.15-1.89-.31-2.82-.47Zm80.22-.94-.57.11c.26-.05.52-.1.77-.15l-.2.04Zm1.13-.21h-.04.04l.3-.06-.3.06Zm2.76-.55-.17.03.17-.03.32-.07-.32.07Zm1.6-.34c-.29.06-.58.12-.86.18.46-.09.93-.19 1.38-.29l-.52.11Zm2.07-.45-.34.07.34-.07.2-.05-.2.05Zm3.91-.94c-.26.06-.52.13-.78.19.42-.1.83-.2 1.24-.31l-.46.12Zm9.88-2.92c-1.84.65-3.94 1.31-6.3 1.97l.43-.12c2.18-.62 4.15-1.24 5.87-1.85Zm-121.8 1.53.07.02-.07-.02-.33-.1.33.1Zm125.21-2.84c-.09.04-.17.07-.26.11l.26-.11Zm-133.89-.11-.69-.26-.78-.3c.49.19.98.37 1.47.56Zm135.57-.62.65-.29.68-.3c-.44.19-.89.39-1.33.59Zm-140.25-1.23c.56.23 1.12.46 1.67.68l-.76-.31c-.31-.12-.61-.25-.91-.37Zm-3.85-1.68-.57-.26-.76-.35c.44.21.89.41 1.33.61Zm-2.83-1.32.4.19-.4-.19-.27-.13.27.13Zm173.94-9.38c-.25.14-.5.28-.74.42l.11-.06.63-.36Zm2.51-1.46c-.51.3-1.01.59-1.52.89.3-.18.6-.35.9-.52l.62-.37Zm-194.09.44.09.07-.09-.07-.19-.13.19.13Zm196.58-1.92-.29.17.29-.17.56-.34-.56.34Zm-201.32-1.65.22.18-.22-.18-.13-.1.13.1Zm211.05-4.53-.17.11.17-.11.25-.17-.25.17Zm-217.95-3.44c-.02-.05-.03-.11-.05-.16l.05.16Zm-.23-.85.12.48-.12-.48Zm-.22-1.21.02.17.03.18c-.02-.12-.04-.23-.05-.35Zm233.18-5.2.22-.17.55-.44c-.25.2-.51.4-.77.61Zm4.62-3.73-.54.45.54-.45Zm-234.1-1.04c-.39.36-.76.74-1.1 1.15.3-.35.62-.69.96-1.01l.14-.14Zm2.14-1.52-.04.02.04-.02Zm15.26-7.19c-2.65 1.26-5.31 2.51-7.97 3.76 1.96-.92 3.91-1.84 5.88-2.77l2.09-.99Zm16.68-7.95c-2.35 1.12-4.69 2.25-7.04 3.37 1.66-.79 3.31-1.58 4.96-2.38l2.08-.99Zm235.08-18.94c-.7.93-1.4 1.85-2.11 2.76.85-1.09 1.7-2.2 2.53-3.32l-.42.56Zm9.75-14.12-.93 1.44.15-.23c.13-.2.26-.4.39-.61l.39-.6Zm5.21-8.71.36-.63-.36.63Zm4.2-7.73c-1.02 1.97-2.06 3.91-3.12 5.82.94-1.7 1.87-3.42 2.78-5.16l.34-.66Zm-145.57-3.23c-2.11 1-4.23 2-6.33 3.01 2.11-1.01 4.22-2.01 6.33-3.01Zm8.21-3.86c-.68.32-1.37.64-2.05.96.68-.32 1.37-.64 2.05-.96Zm141.92-2.25c-.5 1.08-1 2.14-1.51 3.21.61-1.29 1.22-2.58 1.82-3.89l-.31.68Zm-133.69-1.58c-.89.41-1.78.82-2.66 1.23 1.57-.73 3.15-1.46 4.72-2.18l-2.06.95Zm135.83-3.22c-.37.84-.73 1.67-1.11 2.51.37-.83.74-1.67 1.11-2.51Zm-123.45-2.45c-.69.31-1.38.63-2.07.94.69-.31 1.38-.63 2.07-.94Zm127.64-7.83c-.26.64-.5 1.25-.73 1.84l.17-.44c.18-.45.37-.92.56-1.4Zm-94.29-6.83 2.06-.87-2.06.87Zm23.29-9.59c-6.83 2.72-13.61 5.51-20.35 8.35 6.04-2.54 12.11-5.04 18.22-7.5l2.13-.85Zm76.08 2.98-.18.61.09-.3c.03-.11.06-.21.09-.31Zm1.39-5.76c-.04.2-.07.4-.11.6l.06-.3c.03-.2.07-.4.1-.6l-.05.3Zm.26-1.89c-.02.23-.05.46-.08.69l-.04.3c.05-.33.09-.66.12-.99Zm.16-2.13c-.01.27-.02.55-.04.83.02-.28.03-.56.04-.83Zm-53.73-2.51c-1.37.51-2.74 1.02-4.1 1.53 1.36-.51 2.73-1.02 4.1-1.53Zm53.24-2.58c.02.08.05.17.07.26l-.07-.26c-.02-.09-.04-.18-.07-.26l.07.26Zm-.2-.74c-.03-.1-.06-.2-.09-.29l.08.25.01.04Zm-40.42-1.26-.6.21.6-.21.85-.3-.85.3Zm39.07-1.73-.04-.08-.07-.11c.03.06.07.12.11.19Zm-29.97-1.51c-.77.27-1.49.52-2.15.77.66-.24 1.38-.5 2.15-.77Zm1.22-.41-.41.13.41-.13.44-.15-.44.15Zm26.1-1.02-.08-.05-.11-.08c.07.05.13.09.19.13Zm-18.88-1.09-.19.05.19-.05.04-.01-.04.01Zm1.24-.29-.23.06.23-.06.18-.03-.18.03Zm1.89-.38c-.5.1-.99.19-1.49.3.5-.11.99-.2 1.49-.3Zm11.97-.02.26.07-.26-.07-.17-.05.17.05Zm-1.08-.26.28.05-.28-.05-.1-.02.1.02Zm-5.88-.34c-.1.01-.2.01-.31.02.11-.01.21-.01.31-.02Zm2.73-.03.3.02.2.01-.5-.03Zm-.89-.02h-.08.08Zm-15.79-59.21h.17-.17Zm47.08-21.56v.01c0 11.82 9.72 21.55 21.55 21.55h.01c-11.82-.01-21.55-9.74-21.56-21.56Zm-47.36 21.55h.17-.17Zm-.12 0h.02l-.18-.01.16.01Zm-.28-.01h.02l-.17-.01.15.01Zm-.27-.01h.01l-.17-.01.16.01Zm-.28-.02h.02l-.17-.01.15.01Zm-.27-.02h.02l-.18-.01.16.01Zm-.27-.02h.02l-.19-.02.17.02Zm-.27-.03h.02l-.19-.02.17.02Zm-.27-.03h.02l-.19-.02.17.02Zm-.27-.03h.02l-.2-.03.18.03Zm-.27-.04h.02l-.2-.03.18.03Zm-.26-.04h.02l-.21-.03.19.03Zm-.27-.04h.02l-.21-.04.19.04Zm-.26-.05h.02l-.22-.04.2.04Zm-.27-.05.02.01-.22-.05.2.04Zm-.26-.05h.02l-.23-.05.21.05Zm-.26-.06.02.01-.24-.06.22.05Zm-.26-.06.02.01-.24-.06.22.05Zm-.26-.06.02.01-.25-.07.23.06Zm-.26-.06h.02l-.25-.07.23.07Zm-14.48-12.52c2.58 6.04 7.83 10.7 14.25 12.45-6.41-1.75-11.67-6.41-14.25-12.45Zm-.01-.01h.01l-.1-.22.09.22Zm-.1-.25.01.01-.09-.22.08.21Zm-.09-.24v.01l-.08-.21.08.2Zm-.1-.24-.07-.2.07.2Zm-.09-.25-.07-.18.07.18Zm-.09-.25v.01l-.06-.18.06.17Zm-.09-.25v.01l-.05-.17.05.16Zm-.08-.25v.01l-.05-.16.05.15Zm-.08-.25-.05-.14.05.14Zm-.08-.25-.04-.13.04.13Zm-.08-.26-.03-.11.03.11Zm-.07-.25-.03-.11.03.11Zm-.09-.35.02.09-.02-.09Zm-.06-.24.02.07-.02-.07Zm-.06-.25.02.06-.02-.06Zm-.05-.24.01.04-.01-.04Zm-.05-.25v.03-.03Zm-.05-.24v.01-.01Zm42.77-4.23v.17-.17Zm-21.7-21.4c-11.74.06-21.39 9.71-21.46 21.46.08-11.74 9.72-21.39 21.46-21.46Zm21.69 21.12v.17-.17Zm-.01-.28.01.17v-.01l-.01-.16Zm-.01-.27.01.17v-.02l-.01-.15Zm-.01-.28.01.17v-.01l-.01-.16Zm-.02-.28.01.18v-.02l-.01-.16Zm-.02-.27.01.18v-.02l-.01-.16Zm-.03-.28.02.19v-.02l-.02-.17Zm-.03-.27.02.19v-.02l-.02-.17Zm-.03-.27.02.19v-.02l-.02-.17Zm-.04-.28.03.2v-.02l-.03-.18Zm-.04-.27.03.2v-.02l-.03-.18Zm-.04-.27.03.2v-.02l-.03-.18Zm-.04-.27.03.21v-.02l-.03-.19Zm-.05-.27.04.21-.01-.02-.03-.19Zm-.06-.27.05.22-.01-.02-.04-.2Zm-.05-.27.04.23v-.02l-.04-.21Zm-.06-.27.05.24-.01-.02-.04-.22Zm-.07-.26.06.24v-.02l-.06-.22Zm-.07-.27.07.25-.01-.02-.06-.23Zm-.07-.26.07.25v-.02l-.07-.23Zm-12.45-14.25c6.04 2.57 10.7 7.83 12.45 14.24-1.75-6.41-6.41-11.67-12.45-14.24Zm-.23-.1.22.1v-.01l-.22-.09Zm-.23-.09.21.08h-.01l-.2-.08Zm-.24-.09.21.08-.01-.01-.2-.07Zm-.23-.09.19.07-.19-.07Zm-.24-.09.18.07-.18-.07Zm-.24-.08.18.06h-.01l-.17-.06Zm-.24-.09.17.06h-.01l-.16-.06Zm-.24-.07.16.05-.01-.01-.15-.04Zm-.24-.08.14.05-.14-.05Zm-.24-.07.13.04-.13-.04Zm-.24-.07.11.03-.11-.03Zm-.24-.07.1.03-.1-.03Zm-.25-.06.09.02-.09-.02Zm-.24-.06.07.02-.07-.02Zm-.25-.06.06.01-.06-.01Zm-.24-.05.04.01-.04-.01Zm-.24-.05h.02-.02Zm-.25-.05h.01-.01ZM762.465 1060.1c0 77.88 64.083 141.96 141.96 141.96h.014c-77.88-.01-141.958-64.08-141.974-141.96Zm197.607 0c0-30.52-25.12-55.64-55.647-55.64-30.527 0-55.647 25.12-55.647 55.64 0 30.53 25.12 55.65 55.647 55.65h.021c30.516 0 55.626-25.11 55.626-55.63v-.02Zm238.008-153.378c0 77.877 64.08 141.958 141.96 141.958h.01c-77.88-.01-141.96-64.084-141.97-141.958Zm144.09 55.607c-.7.027-1.42.041-2.13.041h.02c.71 0 1.41-.014 2.11-.041Zm53.52-55.607v.021-.021Zm-309.5-166.26c1.32.254 2.67.387 4.05.387h.12-.12c-1.38 0-2.73-.133-4.05-.387Zm-.01-.002v.001l-.23-.047.23.046Zm-.26-.052-.22-.046.22.046Zm-.26-.056v.001l-.2-.046.2.045Zm-.26-.059-.19-.044.19.044Zm-.26-.062-.17-.042.17.042Zm-.26-.066v.001l-.15-.041.15.04Zm-.26-.068-.13-.039.13.039Zm-.25-.072v.001l-.13-.037.13.036Zm-.26-.075v.001l-.11-.034.11.033Zm-.25-.078v.001l-.1-.031.1.03Zm-.25-.08-.09-.028.09.028Zm-.33-.109.08.025-.08-.025Zm-.23-.084.06.022-.06-.022Zm-.24-.086.05.019-.05-.019Zm-.24-.089.04.015-.04-.015Zm-.23-.092.03.011-.03-.011Zm-.23-.095.01.007-.01-.007Zm-.24-.097.01.003-.01-.003Zm-12.45-14.247v.002-.002Zm-.07-.264v.009-.009Zm-.07-.266.01.018-.01-.018Zm-.06-.266v.025-.025Zm-.06-.268v.033-.033Zm-.06-.268.01.04-.01-.04Zm-.04-.227v.004l-.01-.046.01.042Zm-.05-.264v.005l-.01-.054.01.049Zm-.05-.265v.006l-.01-.061.01.055Zm-.04-.266v.006l-.01-.066.01.06Zm-.04-.267v.007l-.01-.073.01.066Zm-.04-.268v.007l-.01-.078.01.071Zm-.03-.27v.008l-.01-.083.01.075Zm-.03-.27v.009l-.01-.088.01.079Zm-.03-.354v.092-.092Zm-.02-.189v.01l-.01-.096.01.086Zm-.02-.273v.01l-.01-.099.01.089Zm-.02-.365v.102-.102Zm-.01-.277v.104-.104Zm-.01-.276v.105-.105Zm0-.277v.106-.106Zm42.76-4.235c.26 1.314.39 2.67.39 4.053v.115-.115c0-1.384-.13-2.739-.39-4.053Zm-21.18-17.525h-.01c-11.83 0-21.57 9.741-21.57 21.578v.01c0-11.84 9.74-21.582 21.58-21.588Zm21.14 17.282.04.237v-.004l-.04-.233Zm-.05-.245.04.219v-.004l-.04-.215Zm-.06-.244.05.201v-.003l-.05-.198Zm-.06-.244.05.184v-.003l-.05-.181Zm-.06-.244.04.169v-.003l-.04-.166Zm-.06-.243.04.153v-.003l-.04-.15Zm-.07-.243.04.139v-.003l-.04-.136Zm-.07-.242.04.125v-.003l-.04-.122Zm-.07-.242.03.112v-.002l-.03-.11Zm-.07-.24.03.098v-.002l-.03-.096Zm-.08-.24.03.086v-.002l-.03-.084Zm-.08-.238.02.073-.02-.073Zm-.09-.238.03.062-.03-.062Zm-.08-.237.02.05-.02-.05Zm-.09-.235.01.038-.01-.038Zm-.09-.235.01.028-.01-.028Zm-.1-.233.01.017-.01-.017Zm-.1-.233.01.007-.01-.007Zm-14.51-12.524.01.003-.01-.003Zm-.26-.067.01.004-.01-.004Zm-.27-.063.03.005-.03-.005Zm-.27-.061.04.007-.04-.007Zm-.27-.056.04.008-.04-.008Zm-.26-.054.04.009v-.001l-.04-.008Zm-.28-.05.06.01-.01-.001-.05-.009Zm-.27-.046.06.01v-.001l-.06-.009Zm-.27-.043.07.01-.01-.001-.06-.009Zm-.27-.04.07.01v-.001l-.07-.009Zm-.27-.036.07.01v-.001l-.07-.009Zm-.28-.032.08.009v-.001l-.08-.008Zm-.27-.029.09.008-.01-.001-.08-.007Zm-.28-.026.09.008v-.001l-.09-.007Zm-.27-.022.09.007h-.01l-.08-.007Zm-.28-.018.1.006-.01-.001-.09-.005Zm-.27-.015.1.005-.01-.001-.09-.004Zm-.28-.011.1.004-.01-.001-.09-.003Zm-.28-.008.11.003-.01-.001-.1-.002Zm-.27-.004.1.001h-.01l-.09-.001Zm-50.1-13.292-3.51-8.321-8.44-19.996c3.8 8.993 7.79 18.455 11.95 28.317Zm3.02-29.809c0 11.822 9.72 21.55 21.55 21.55h.01c-11.82-.008-21.55-9.728-21.56-21.55Zm-34.44-69.383v.007c0 11.822 9.73 21.55 21.55 21.55h.02c-11.83-.008-21.56-9.734-21.57-21.557Zm82.59 1104.09c-.02.13-.03.26-.05.38l.03-.2.02-.18Zm-125.937-134.16.206.12-.206-.12Zm307.237-69.7c-1.27.18-2.55.35-3.86.52l.65-.08c1.3-.17 2.58-.34 3.84-.53l-.63.09Zm35.9-8.95-.55.25-.69.3c.42-.18.84-.37 1.24-.55Zm59.13-35.44c-.36.3-.73.59-1.1.89l.55-.44 1.1-.89-.55.44Zm-230.8-3.71c-.28.2-.55.4-.8.62l.15-.13c.26-.21.53-.41.81-.6l-.16.11Zm43.33-20.78c-1.38.67-2.76 1.33-4.14 2l4.14-2c1.37-.67 2.75-1.33 4.13-2l-4.13 2Zm259.28-80.55c-1.26 3.81-2.81 7.49-4.1 10.65l.41-1.02c1.21-2.91 2.57-6.22 3.69-9.63Zm1.17-3.93c-.13.5-.27 1.01-.42 1.52l.09-.31c.14-.5.28-1.01.41-1.52l-.08.31Zm-72.4-2.56c-.71.28-1.43.57-2.14.85l2.14-.85Z"/><path d="M1082.28 1670.82c6.59 6.47 11.26 11.93 8.61 21.44-10.07 36.23-63.24 75.22-116.357 74.27-46.195-3.55-91.771-35.28-130.313-79.28-10.128-11.48-7.371-23.3 1.801-35.34 27.964-36.79 64.649-64.2 99.31-93.79 9.34-7.99 18.005-6.7 26.839 2.3 36.4 37.08 73.11 73.88 110.11 110.4Zm356.79-356.5c-7.26-8.9-27.29-.85-33.76 1.46-94.02 32.86-176.62 78.77-266.7 120.63a11.514 11.514 0 0 0-6.48 10.35c0 3.84 1.93 7.44 5.13 9.57 55.87 46.93 148.42 30.16 170.2 20.71 58.91-25.6 103.31-66.62 126.94-127.56 3.65-9.39 12.09-26.11 4.67-35.16Zm-4.67-84.91v.03c0 11.84-9.74 21.58-21.58 21.58-11.84 0-21.58-9.74-21.58-21.58 0-11.83 9.72-21.56 21.55-21.58 11.83 0 21.57 9.72 21.61 21.55Zm68.42 0c0 11.82-9.73 21.55-21.55 21.55-11.83 0-21.55-9.73-21.55-21.55s9.72-21.55 21.55-21.55c11.82.01 21.54 9.73 21.55 21.55ZM904.425 918.088h.028c77.892 0 141.987 64.096 141.987 141.992 0 77.89-64.095 141.98-141.987 141.98-77.882 0-141.972-64.07-141.988-141.96v-.05c0-77.874 64.082-141.959 141.96-141.962Zm435.615-153.382h.03c77.89 0 141.99 64.096 141.99 141.988 0 77.893-64.1 141.986-141.99 141.986-77.89 0-141.98-64.076-141.99-141.958v-.05c0-77.878 64.08-141.963 141.96-141.966Zm-228.22-45.407c-.01 11.827-9.75 21.55-21.58 21.55-11.83 0-21.57-9.74-21.57-21.578 0-11.837 9.74-21.578 21.57-21.578h.03c11.84.021 21.56 9.771 21.55 21.606Zm-25.37-64.706c-.03 11.801-9.75 21.494-21.55 21.494-11.83 0-21.55-9.728-21.55-21.55 0-11.822 9.72-21.55 21.55-21.55 11.82.001 21.55 9.729 21.55 21.552v.054Zm-34.44-69.432c0 11.822-9.73 21.55-21.55 21.55s-21.55-9.728-21.55-21.55c0-11.822 9.73-21.55 21.55-21.55 11.82.007 21.54 9.73 21.55 21.55Z" style="fill:#fff;fill-rule:nonzero"/></svg>