<svg viewBox="0 0 2009 2013" xmlns="http://www.w3.org/2000/svg" fill="currentColor" style="fill-rule:evenodd;clip-rule:evenodd;stroke-linejoin:round;stroke-miterlimit:2"><path d="M1039.46 1843.17c-108.634 31.53-199.431-26.39-255.556-88.74-51.372-57.11-58.292-103.42-12.66-165.09 16.823-22.78 43.493-42.7 64.312-62.11 53.734-46.48 58.798-48.45-1.013-103.98-13.616-12.61-84.23-79.68-89.407-85.81-45.744-54.35-54.691-124.91-82.092-187.31-24.926-56.72-45.52-115.52-65.213-174.314-6.583-19.637-15.079-25.151-34.041-21.775-89.239 15.811-178.421 31.734-267.828 46.419-59.079 9.68-118.272 19.92-177.858 25.26-63.412 5.63-96.553-18-111.519-80.063-23.013-95.202 16.148-203.515 97.453-244.927 96.947-49.402 198.282-56.772 303.388-23.969a585.222 585.222 0 0 1 180.671 91.601c17.892 13.56 26.67 13.448 36.742-8.102 67.238-143.873 174.594-245.434 324.938-298.043 66.453-23.238 134.473-42.987 205.713-46.644 78.21-3.995 151.24 15.529 218.93 52.89 24.14 13.279 31.56 6.696 41.3-14.854 49.91-111.295 120.86-203.909 234.85-256.687 151.64-70.164 271.94-39.668 344.58 109.1 33.65 68.983 4.78 120.973-76.3 153.945-129.02 52.44-257.64 105.724-389.14 151.581-9.56 3.32-16.14 7.821-11.98 18.737 39.33 102.461 77.87 205.259 119 306.989 9.4 23.294 8.5 45.069 7.49 68.416-6.42 145.06-16.77 290.11-16.88 435.28 0 71.68-213.31 168.35-228.95 176.45-81.48 42.26-194.29 55.99-213.7 67.74-16.37 48.75-145.23 158.01-145.23 158.01Zm-67.289-282.75c-5.633-5.74-11.203-8.35-16.92-7.4l-.365.06c-3.129.6-6.297 2.25-9.554 5.04l-2.11 1.8-1.261 1.07c-3.066 2.6-6.15 5.18-9.239 7.76-8.209 6.86-16.463 13.67-24.611 20.59-21.876 18.58-43.038 37.92-60.812 60.91l-.619.8-.658.86-.428.57-.822 1.13-.393.56a50.84 50.84 0 0 0-2.189 3.42c-1.187 2.03-2.155 4.05-2.881 6.06a25.46 25.46 0 0 0-1.328 5.31c-.574 4.09.101 8.25 1.936 11.95.674 1.4 1.48 2.73 2.408 3.98l.202.27c.518.7 1.081 1.4 1.694 2.09 4.036 4.61 8.19 9.13 12.457 13.53l.602.62c3.708 3.81 7.507 7.52 11.394 11.15l1.396 1.29c1.851 1.7 3.713 3.38 5.593 5.02l.641.55.079.08c11.242 9.76 22.866 18.34 34.756 25.41l.675.4c20.362 12 41.474 19.6 62.72 21.23 5.108.08 10.215-.19 15.287-.8l.934-.11c.856-.11 1.705-.23 2.549-.36l1.069-.16 1.227-.21c2.863-.49 5.71-1.08 8.53-1.76l1.21-.29c.7-.19 1.41-.36 2.1-.56 4.62-1.24 9.16-2.74 13.62-4.47l.82-.33.71-.28c3.57-1.44 7.09-3.02 10.54-4.74l1.1-.55.51-.27c12.93-6.65 24.55-15.09 33.92-24.41 2.86-2.83 5.56-5.82 8.09-8.95 1.52-1.88 2.93-3.78 4.26-5.69 1.84-2.66 3.48-5.36 4.91-8.06l.62-1.19.21-.43.36-.72.37-.79c.3-.64.58-1.27.85-1.9l.18-.43c.93-2.22 1.73-4.5 2.38-6.81.35-1.26.59-2.54.7-3.84l.03-.35.01-.27c.07-1.36-.06-2.73-.37-4.06l-.06-.26c-.1-.37-.21-.73-.32-1.09a17.76 17.76 0 0 0-2.29-4.46c-.71-1.01-1.47-1.98-2.27-2.91l-.13-.14c-.83-.94-1.69-1.85-2.58-2.74l-1.33-1.32-6.93-6.85a9866.159 9866.159 0 0 1-103.179-103.55Zm570.479-352.56c.02-.23.02-.47.02-.7 0-6.97-5.72-12.72-12.69-12.75h-.32c-26.56-.51-100.83-1.97-125.48-3.66-115.4 0-157.6 17-427.283 216.4-15.811 11.65-9.228 24.25 4.276 37.31a5992.174 5992.174 0 0 1 141.677 141.17 51.845 51.845 0 0 0 44.17 17.22c123.45-7.04 226.98-63.86 327.75-128.51 29.71-19.08 45.24-41.87 44.23-79.23-1.41-53.68 3.65-156.47 3.65-187.25Zm-103.58 106.46c-7.26-8.89-27.29-.85-33.76 1.46-94.02 32.86-176.62 78.77-266.7 120.63a11.545 11.545 0 0 0-6.47 10.35c0 3.84 1.92 7.44 5.12 9.57 55.87 46.93 148.43 30.16 170.2 20.71 58.91-25.6 103.31-66.62 126.94-127.56 3.66-9.39 12.1-26.1 4.67-35.16Zm-247.35-99.2c18.29-12.21 22.96-19.92 16.6-34.44-17.16-39.16-35.28-77.87-51.48-117.37a112631.543 112631.543 0 0 1-194.066-475.788c-6.752-16.542-9.228-32.915-35.56-20.087-90.645 44.113-164.748 82.43-270.191 321.45 1.744 11.14 119.847 335.005 142.973 367.755 24.813 35.22 56.491 67.86 83.78 102.01 18.737 23.52 30.947 45.97 73.259 14.35 86.425-64.71 140.445-94.98 234.685-157.88Zm289.55-7.26h.03c11.81.05 21.52 9.76 21.57 21.58-.05 11.82-9.76 21.52-21.57 21.58-11.82-.06-21.53-9.76-21.58-21.58v-.03c.05-11.8 9.75-21.5 21.55-21.55Zm-68.48 0h.03c11.82.05 21.52 9.76 21.58 21.58-.06 11.82-9.76 21.52-21.58 21.58-11.82-.06-21.52-9.76-21.58-21.58v-.03c.09-11.79 9.76-21.47 21.55-21.55ZM904.426 918.089h.028c77.895 0 141.986 64.092 141.986 141.991 0 77.89-64.091 141.99-141.986 141.99-77.884 0-141.971-64.08-141.988-141.96v-.06c0-77.874 64.082-141.956 141.96-141.961Zm641.834 229.001c-.12-15.36 5.51-159.627 1.8-181.852-8.05-23.069-69.89-195.188-104.21-284.482-11.81-30.778-14.12-67.407-40.91-89.858-38.54-32.24-88.56-61.893-137.17-75.396-85.69-23.857-164.24-8.947-248.36 12.547-43.889 11.197-29.654 31.79-29.654 31.79s204.924 484.851 255.224 608.971c7.37 18.17 17.89 8.83 33.65 3.54 36.63-12.37 114.61-23.57 254.43-10.41 13.11 1.19 15.31-3.99 15.2-14.85Zm-586.187-86.98c0-30.53-25.123-55.65-55.647-55.65-30.525 0-55.647 25.12-55.647 55.65 0 30.52 25.122 55.64 55.647 55.64h.022c30.514 0 55.625-25.11 55.625-55.62v-.02Zm379.967-295.403h.03c77.89 0 141.99 64.093 141.99 141.988s-64.1 141.985-141.99 141.985c-77.89 0-141.97-64.073-141.99-141.957v-.051c0-77.878 64.08-141.96 141.96-141.965Zm55.65 142.016c0-30.525-25.13-55.648-55.65-55.648s-55.65 25.123-55.65 55.648c0 30.524 25.13 55.647 55.65 55.647h.02c30.52 0 55.63-25.112 55.63-55.625v-.022Zm-858.908-41.02c4.895-.9 12.66 2.588 13.616-5.12.338-2.926-5.289-6.921-8.665-9.847-73.033-64.143-158.671-95.878-255.449-98.803-9.34 0-18.793-.732-28.077.112-95.427 8.271-171.893 33.085-163.341 155.576 1.407 19.919 7.54 26.22 26.783 24.926 48.558-3.207 96.328-12.716 144.548-18.455 90.814-10.747 180.503-31.565 270.585-48.389Zm553.488-168.01c11.81.071 21.5 9.773 21.55 21.579-.05 11.816-9.76 21.523-21.57 21.578-11.81-.055-21.51-9.744-21.58-21.55v-.006c.05-11.829 9.77-21.545 21.6-21.601Zm-25.37-64.706h.03c11.81.055 21.52 9.762 21.57 21.578-.05 11.817-9.76 21.523-21.57 21.578-11.81-.054-21.51-9.744-21.58-21.55v-.045c0-11.821 9.73-21.555 21.55-21.561Zm-34.44-63.75h.03c11.82.055 21.52 9.761 21.58 21.578-.06 11.816-9.76 21.523-21.58 21.578-11.82-.055-21.52-9.762-21.58-21.578v-.028c.06-11.801 9.75-21.495 21.55-21.55Zm491.1-50.978s394.65-156.139 394.59-152.707c-.73-46.983-64.71-118.441-115.74-119.679-51.03-1.237-85.81 14.967-125.25 35.054-132.62 67.464-200.87 227.485-191.64 239.92 7.82 10.522 38.04-2.588 38.04-2.588Z"/></svg>