<svg viewBox="0 0 2009 2013" xmlns="http://www.w3.org/2000/svg" fill="currentColor" style="fill-rule:evenodd;clip-rule:evenodd;stroke-linejoin:round;stroke-miterlimit:2"><path d="M1011.613-93.485c603.831 3.829 1092.891 495.244 1092.891 1099.987 0 607.113-492.889 1100.002-1100.002 1100.002C397.39 2106.504-95.5 1613.615-95.5 1006.502-95.5 399.39 397.39-93.5 1004.502-93.5m0 2200.004C398.286 2106.504-95.5 1612.72-95.5 1006.502-95.5 400.286 398.286-93.5 1004.502-93.5c606.217 0 1100.002 493.786 1100.002 1100.002 0 606.217-493.785 1100.002-1100.002 1100.002Zm0-2089.092c-545.443 0-989.09 443.647-989.09 989.09s443.647 989.09 989.09 989.09 989.09-443.647 989.09-989.09-443.647-989.09-989.09-989.09Zm-651.797 1587.71c161.05 176.244 393.51 285.636 651.797 285.636 132.183 0 256.769-28.867 369.2-80.525l-613.814-612.294-407.183 407.183ZM756.85 827.22l-464.918 463.399-62.293-62.293 1060.5-1060.5c-89.642-30.386-185.36-47.1-285.637-47.1-489.227 0-885.775 396.549-885.775 885.776 0 199.034 65.332 382.874 177.763 531.77l463.398-463.4 31.907 30.387 663.951 663.952c13.674-7.597 25.829-15.194 37.984-24.31l-733.842-733.84-445.166 445.166-62.293-62.293 507.46-507.46 31.906 30.387 774.863 773.344c12.155-9.116 22.79-19.751 33.425-28.867L764.446 825.7l-7.596 1.519Zm905.526 771.825c141.299-156.492 227.901-364.642 227.901-592.543 0-355.525-209.669-660.913-510.498-802.211L822.181 760.369l840.195 838.676Zm-625.968-677.626-62.293-62.293 439.09-439.09 62.293 62.294-439.09 439.09Zm416.3-603.178-505.94 505.94-62.294-62.293 505.94-505.94 62.293 62.293Z"/></svg>