<svg xmlns="http://www.w3.org/2000/svg" viewBox="0 0 1984 1984" fill="currentColor"><path d="M1608.98,1507.41c-12.33-6.65-27.35-6.01-39.06,1.7-88.67,58.28-178.56,87.84-267.2,87.84-47.63,0-88.55-10.64-125.27-32.62-24.95-14.77-48.13-40.6-56.44-63.05-8.07-21.34-7.97-78.8-7.85-158.32l.04-484.88h402.86c21.08,0,38.15-17.09,38.15-38.15V479.23c0-21.07-17.08-38.15-38.15-38.15h-402.86V38.15c0-21.07-17.08-38.15-38.15-38.15h-271.39c-19.29,0-35.54,14.4-37.88,33.55-11.34,93.32-32.49,170.8-62.93,230.42-29.68,58.76-69.84,109.89-119.43,152.04-39.73,33.88-107.73,66.66-202.14,97.44-15.7,5.12-26.33,19.76-26.33,36.28v270.2c0,21.07,17.08,38.15,38.15,38.15h220.93v630.8c0,92.95,9.86,162.89,30.16,213.86,20.68,51.77,57.39,100.53,109.14,144.93,50.9,43.62,112.86,77.73,184.34,101.47,69.3,22.6,124.5,34.85,217.56,34.85,78.67,0,153.66-8.16,222.92-24.26,68.07-15.89,145.11-43.96,228.98-83.43,13.38-6.3,21.91-19.74,21.91-34.52v-300.78c-.02-14.03-7.71-26.93-20.06-33.59Z"/></svg>