<svg viewBox="0 0 1967 1600" xmlns="http://www.w3.org/2000/svg" fill="currentColor" fill="currentColor"><path d="M1965.414 191.888a809.19 809.19 0 0 1-231.67 63.525c84.19-50.35 147.283-129.68 177.362-223.046A808.001 808.001 0 0 1 1655 130.125c-76.15-81.367-182.812-127.483-294.258-127.33-222.734 0-403.267 180.543-403.267 403.197 0 31.563 3.604 62.308 10.546 91.875-335.117-16.82-632.28-177.363-831.21-421.309-35.804 61.567-54.662 131.563-54.545 202.813 0 139.875 71.054 263.238 179.362 335.663A400.977 400.977 0 0 1 79.013 564.53v5.137c0 195.438 138.975 358.175 323.312 395.43-33.72 9.254-69.366 14.112-106.15 14.112-26.033 0-51.329-2.504-75.996-7.292 51.488 160.03 200.305 276.85 376.73 280.105-142.817 112.033-319.242 172.808-500.759 172.496-32.667 0-64.667-1.88-96.15-5.642 184.338 118.5 398.954 181.4 618.084 181.121 741.721 0 1147.384-614.396 1147.384-1147.067 0-17.571-.43-35.059-1.175-52.234a818.45 818.45 0 0 0 201.121-208.808Z"/></svg>