<svg xmlns="http://www.w3.org/2000/svg" fill="currentColor" style="fill-rule:evenodd;" viewBox="0 0 1913 1913"><path d="M487.4 340.2c25.2 0 42-16.9 42-42 0-25.4-16.8-41.9-42-41.9s-50.6 16.4-50.6 41.9c.1 25.2 25.4 42 50.6 42Zm-235.2-83.8c-25.2 0-50.7 16.4-50.7 41.9 0 25.1 25.5 42 50.7 42 25.1 0 41.9-16.9 41.9-42 0-25.5-16.8-41.9-41.9-41.9ZM990 609.2c0-132.9-123.3-246.1-274.6-257.9.2-1.7.3-3.4-.1-5.1C684.9 204.7 532.8 98 361.4 98 167.6 98 10 233.1 10 399.1c0 89.1 45.5 169.3 131.7 232.6l-30 90.3c-1.9 5.9-.2 12.3 4.5 16.4 2.8 2.4 6.4 3.7 10 3.7 2.3 0 4.7-.6 6.9-1.6l112.8-56.4 13.9 2.8c34.7 7.1 64.7 13.3 101.6 13.3 10.9 0 21.9-.5 32.7-1.4 4.4-.4 8.1-2.6 10.6-5.8 40.7 101.8 152.8 175.2 284.7 175.2 33.8 0 68-8.1 98.7-15.8l86.9 47.5c2.3 1.3 4.8 1.9 7.3 1.9 3.4 0 6.9-1.2 9.6-3.4 4.8-3.9 6.8-10.4 5-16.3l-22.2-73.8C949.2 749.6 990 679.2 990 609.2Zm-598.5 59.2c-10 .9-20.1 1.3-30.1 1.3-33.8 0-62.4-5.8-95.5-12.7l-19.2-3.9c-3.3-.7-6.8-.2-9.8 1.3l-84.5 42.3 22-66c2.1-6.5-.2-13.5-5.8-17.4-84.9-59.1-128-131.2-128-214.2 0-149.1 143.9-270.5 320.7-270.5 156.3 0 294.8 95.1 323.3 221.6C520.7 352.3 388 467.6 388 609.1c0 20.6 3.1 40.5 8.4 59.7-1.5-.3-3.2-.6-4.9-.4Zm456.3 122.1c-5.1 3.9-7.3 10.5-5.5 16.6l14.5 48.2-59.4-32.5c-2.3-1.3-4.8-1.9-7.4-1.9-1.3 0-2.5.2-3.7.5-31.9 8.1-64.9 16.4-97 16.4-149.2 0-270.6-102.5-270.6-228.5s121.4-228.5 270.6-228.5c146.4 0 270 104.6 270 228.5.1 62.7-39.5 127.1-111.5 181.2ZM596.7 500c-16.8 0-33.6 16.9-33.6 33.7 0 16.9 16.8 33.6 33.6 33.6 25.3 0 42-16.7 42-33.6-.1-16.8-16.8-33.7-42-33.7Zm184.7 0c-16.6 0-33.4 16.9-33.4 33.7 0 16.9 16.8 33.6 33.4 33.6 25.2 0 42.2-16.7 42.2-33.6 0-16.8-17-33.7-42.2-33.7Z"  transform="translate(-19.52 -19.325) scale(1.95204)"/></svg>