<svg xmlns="http://www.w3.org/2000/svg" width="28" height="28" fill="none" xmlns:v="https://vecta.io/nano"><path d="M18.895 23.47l-2.551-2.766c-1.561-.09-3.125-.09-4.686 0L9.107 23.47a.88.88 0 0 0-.152.942.88.88 0 0 0 .795.527h8.502a.88.88 0 0 0 .795-.527.88.88 0 0 0-.152-.942z" fill="#596c76"/><path d="M25.813 3.063H2.188c-.348 0-.682.139-.928.385s-.384.58-.385.928v13.563h26.25V4.375c0-.348-.139-.682-.385-.928s-.58-.384-.928-.385z" fill="#8ac9fe"/><path d="M26.25 17.063H.875v3.063c0 .348.139.682.385.928s.58.384.928.385h23.625c.348 0 .682-.139.928-.385s.384-.58.385-.928v-3.062h-.875z" fill="#788d96"/><path d="M14.875 19.25c0 .232-.092.455-.256.619s-.387.256-.619.256-.455-.092-.619-.256-.256-.387-.256-.619.092-.455.256-.619.387-.256.619-.256.455.092.619.256.256.387.256.619z" fill="#596c76"/></svg>