<svg xmlns="http://www.w3.org/2000/svg" xmlns:xlink="http://www.w3.org/1999/xlink" width="28" height="28" fill="none" xmlns:v="https://vecta.io/nano"><path d="M24.734 21.766v3.901c0 .495-.197.97-.547 1.32s-.825.547-1.32.547H5.134c-.495 0-.97-.197-1.32-.547s-.547-.825-.547-1.32V2.333c0-.495.197-.97.547-1.32s.825-.547 1.32-.547h17.733c.495 0 .97.197 1.32.547s.547.825.547 1.32v19.432z" fill="#707070"/><path d="M22.401 2.334h-16.8c-.258 0-.467.209-.467.467v22.4c0 .258.209.467.467.467h16.8c.258 0 .467-.209.467-.467v-22.4c0-.258-.209-.467-.467-.467z" fill="#2dbbff"/><path d="M22.868 7.569V25.2c0 .124-.049.242-.137.33s-.206.137-.33.137h-16.8c-.124 0-.242-.049-.33-.137s-.137-.206-.137-.33v-7.28A17.27 17.27 0 0 1 21.001 7.467a16.44 16.44 0 0 1 1.867.103z" fill="#0ab0ff"/><g fill="#8edaff"><use xlink:href="#B"/><use xlink:href="#B" x="4.199"/><use xlink:href="#B" y="4.199"/><use xlink:href="#B" x="4.199" y="4.199"/><use xlink:href="#B" x="8.398"/></g><path d="M27.124 23.641c-.206.138-.457.189-.701.142s-.458-.189-.597-.394l-.779-1.162 1.549-1.045.779 1.162c.138.206.189.458.142.701s-.189.458-.394.597z" fill="#35495e"/><path d="M26.596 21.183l-1.549 1.045-6.51-9.683 1.549-1.041 6.51 9.679z" fill="#3f5c6c"/><path d="M20.085 11.504l-1.549 1.041-.518-.775-.546-1.68c-.031-.097-.03-.201.003-.297s.097-.179.182-.235.185-.084.287-.078.198.045.276.111l1.344 1.139.523.775z" fill="#35495e"/><defs ><path id="B" d="M9.334 6.066v-1.4c0-.258-.209-.467-.467-.467h-1.4c-.258 0-.467.209-.467.467v1.4c0 .258.209.467.467.467h1.4c.258 0 .467-.209.467-.467z"/></defs></svg>