<?xml version="1.0" encoding="UTF-8"?>
<svg width="25px" height="16px" viewBox="0 0 15 16" version="1.1" xmlns="http://www.w3.org/2000/svg" xmlns:xlink="http://www.w3.org/1999/xlink">
    <!-- Generator: Sketch 62 (91390) - https://sketch.com -->
    <title>Bosta English Logo</title>
    <desc>Created with Sketch.</desc>
    <g id="Page-1" stroke="none" stroke-width="1" fill="none" fill-rule="evenodd">
        <g id="Bosta-English-Logo" fill-rule="nonzero">
            <polygon id="Fill-9-Copy" fill="#FF0000" points="17.9905647 15.1638066 0 15.1638066 0 0 17.9905647 0"></polygon>
            <g id="Group-2" transform="translate(3.369735, 1.965679)" fill="#FFFFFF">
                <path d="M3.73879322,5.59385998 L1.02126516,7.06557295 L1.02126516,4.12158422 L3.73879322,5.59385998 Z M4.75417631,6.15973026 L5.29130813,6.45138174 C5.49498986,6.56222616 5.74052784,6.56320957 5.94546945,6.45138174 L6.48260128,6.15973026 L9.76264707,7.94068681 L5.61803882,10.1907302 L1.4741865,7.94068681 L4.75417631,6.15973026 Z M1.4741865,3.28374973 L5.61803882,1.04171909 L9.76264707,3.28374973 L5.61803882,5.52564038 L1.4741865,3.28374973 Z M10.2155684,4.16687635 L10.2155684,7.06557295 L7.54333249,5.61629448 L10.2155684,4.16687635 Z M10.8593892,2.74212294 L5.98795574,0.105960967 L5.97631904,0.100491752 C5.75311861,-0.0321717888 5.46374318,-0.0331534429 5.23815933,0.0955834811 L0.332152273,2.75025665 C0.1148403,2.86805514 -0.0204539278,3.09257346 -0.0204539278,3.33630415 L-0.0204539278,7.89314251 C-0.0204539278,8.13729391 0.115401106,8.3625134 0.333273884,8.48129355 L5.25526389,11.1443809 C5.36195706,11.2015973 5.48182915,11.2324493 5.60282285,11.2324493 C5.72437735,11.2324493 5.84495044,11.2015973 5.950522,11.1443809 L10.85995,8.48788466 C11.0767011,8.3702264 11.2119954,8.14514714 11.2119954,7.90197739 L11.2119954,3.32803021 C11.2119954,3.08429952 11.0767011,2.85992144 10.8593892,2.74212294 L10.8593892,2.74212294 Z" id="Fill-33"></path>
            </g>
        </g>
    </g>
</svg>