<svg xmlns="http://www.w3.org/2000/svg" width="100" height="116" viewbox="0 0 100 116" preserveAspectRatio="none"><rect x="0" y="0" width="100%" height="100%" fill="rgb(68, 51, 155)" /><rect x="-10.666666666667" y="-10.666666666667" width="21.333333333333" height="21.333333333333" stroke="#000" stroke-opacity="0.02" fill="#222" fill-opacity="0.080666666666667" stroke-width="1" /><rect x="90.283750561469" y="-10.666666666667" width="21.333333333333" height="21.333333333333" stroke="#000" stroke-opacity="0.02" fill="#222" fill-opacity="0.080666666666667" stroke-width="1" /><rect x="-10.666666666667" y="105.90083445627" width="21.333333333333" height="21.333333333333" stroke="#000" stroke-opacity="0.02" fill="#222" fill-opacity="0.080666666666667" stroke-width="1" /><rect x="90.283750561469" y="105.90083445627" width="21.333333333333" height="21.333333333333" stroke="#000" stroke-opacity="0.02" fill="#222" fill-opacity="0.080666666666667" stroke-width="1" /><rect x="39.808541947401" y="18.475208614068" width="21.333333333333" height="21.333333333333" stroke="#000" stroke-opacity="0.02" fill="#222" fill-opacity="0.13266666666667" stroke-width="1" /><rect x="-10.666666666667" y="47.617083894803" width="21.333333333333" height="21.333333333333" stroke="#000" stroke-opacity="0.02" fill="#ddd" fill-opacity="0.089333333333333" stroke-width="1" /><rect x="90.283750561469" y="47.617083894803" width="21.333333333333" height="21.333333333333" stroke="#000" stroke-opacity="0.02" fill="#ddd" fill-opacity="0.089333333333333" stroke-width="1" /><rect x="39.808541947401" y="76.758959175537" width="21.333333333333" height="21.333333333333" stroke="#000" stroke-opacity="0.02" fill="#222" fill-opacity="0.15" stroke-width="1" /><polyline points="0, 0, 18.475208614068, 10.666666666667, 0, 21.333333333333, 0, 0" stroke="#000" stroke-opacity="0.02" fill="#ddd" fill-opacity="0.124" stroke-width="1" transform="translate(10.666666666667, -10.666666666667) rotate(0, 10.666666666667, 9.237604307034)" /><polyline points="0, 0, 18.475208614068, 10.666666666667, 0, 21.333333333333, 0, 0" stroke="#000" stroke-opacity="0.02" fill="#ddd" fill-opacity="0.124" stroke-width="1" transform="translate(10.666666666667, 127.23416778961) rotate(0, 10.666666666667, 9.237604307034) scale(1, -1)" /><polyline points="0, 0, 18.475208614068, 10.666666666667, 0, 21.333333333333, 0, 0" stroke="#000" stroke-opacity="0.02" fill="#222" fill-opacity="0.098" stroke-width="1" transform="translate(90.283750561469, -10.666666666667) rotate(0, 10.666666666667, 9.237604307034) scale(-1, 1)" /><polyline points="0, 0, 18.475208614068, 10.666666666667, 0, 21.333333333333, 0, 0" stroke="#000" stroke-opacity="0.02" fill="#222" fill-opacity="0.098" stroke-width="1" transform="translate(90.283750561469, 127.23416778961) rotate(0, 10.666666666667, 9.237604307034) scale(-1, -1)" /><polyline points="0, 0, 18.475208614068, 10.666666666667, 0, 21.333333333333, 0, 0" stroke="#000" stroke-opacity="0.02" fill="#222" fill-opacity="0.15" stroke-width="1" transform="translate(61.141875280735, 18.475208614068)" /><polyline points="0, 0, 18.475208614068, 10.666666666667, 0, 21.333333333333, 0, 0" stroke="#000" stroke-opacity="0.02" fill="#222" fill-opacity="0.080666666666667" stroke-width="1" transform="translate(39.808541947401, 18.475208614068) scale(-1, 1)" /><polyline points="0, 0, 18.475208614068, 10.666666666667, 0, 21.333333333333, 0, 0" stroke="#000" stroke-opacity="0.02" fill="#222" fill-opacity="0.028666666666667" stroke-width="1" transform="translate(61.141875280735, 98.092292508871) scale(1, -1)" /><polyline points="0, 0, 18.475208614068, 10.666666666667, 0, 21.333333333333, 0, 0" stroke="#000" stroke-opacity="0.02" fill="#222" fill-opacity="0.15" stroke-width="1" transform="translate(39.808541947401, 98.092292508871) scale(-1, -1)" /><polyline points="0, 0, 18.475208614068, 10.666666666667, 0, 21.333333333333, 0, 0" stroke="#000" stroke-opacity="0.02" fill="#222" fill-opacity="0.11533333333333" stroke-width="1" transform="translate(10.666666666667, 47.617083894803)" /><polyline points="0, 0, 18.475208614068, 10.666666666667, 0, 21.333333333333, 0, 0" stroke="#000" stroke-opacity="0.02" fill="#222" fill-opacity="0.11533333333333" stroke-width="1" transform="translate(90.283750561469, 47.617083894803) scale(-1, 1)" /><rect x="0" y="0" width="21.333333333333" height="21.333333333333" stroke="#000" stroke-opacity="0.02" fill="#222" fill-opacity="0.098" stroke-width="1" transform="translate(10.666666666667, 10.666666666667) rotate(-30, 0, 0)" /><rect x="0" y="0" width="21.333333333333" height="21.333333333333" stroke="#000" stroke-opacity="0.02" fill="#222" fill-opacity="0.098" stroke-width="1" transform="scale(-1, 1) translate(-90.283750561469, 10.666666666667) rotate(-30, 0, 0)" /><rect x="0" y="0" width="21.333333333333" height="21.333333333333" stroke="#000" stroke-opacity="0.02" fill="#ddd" fill-opacity="0.054666666666667" stroke-width="1" transform="translate(10.666666666667, 26.283750561469) rotate(30, 0, 21.333333333333)" /><rect x="0" y="0" width="21.333333333333" height="21.333333333333" stroke="#000" stroke-opacity="0.02" fill="#ddd" fill-opacity="0.14133333333333" stroke-width="1" transform="scale(-1, 1) translate(-90.283750561469, 26.283750561469) rotate(30, 0, 21.333333333333)" /><rect x="0" y="0" width="21.333333333333" height="21.333333333333" stroke="#000" stroke-opacity="0.02" fill="#222" fill-opacity="0.098" stroke-width="1" transform="scale(1, -1) translate(10.666666666667, -90.283750561469) rotate(30, 0, 21.333333333333)" /><rect x="0" y="0" width="21.333333333333" height="21.333333333333" stroke="#000" stroke-opacity="0.02" fill="#ddd" fill-opacity="0.089333333333333" stroke-width="1" transform="scale(-1, -1) translate(-90.283750561469, -90.283750561469) rotate(30, 0, 21.333333333333)" /><rect x="0" y="0" width="21.333333333333" height="21.333333333333" stroke="#000" stroke-opacity="0.02" fill="#ddd" fill-opacity="0.072" stroke-width="1" transform="scale(1, -1) translate(10.666666666667, -105.90083445627) rotate(-30, 0, 0)" /><rect x="0" y="0" width="21.333333333333" height="21.333333333333" stroke="#000" stroke-opacity="0.02" fill="#222" fill-opacity="0.046" stroke-width="1" transform="scale(-1, -1) translate(-90.283750561469, -105.90083445627) rotate(-30, 0, 0)" /></svg>