<?xml version="1.0" encoding="utf-8"?>
<svg version="1.1"
	xmlns="http://www.w3.org/2000/svg"
	viewBox="0 0 40 40"
	width="20"
	height="20"
>
<path
	d="M 20 2.5 C 10.335017 2.5 2.5 10.335017 2.5 20 C 2.5 29.664983 10.335017
	37.5 20 37.5 C 25.532271 37.5 30.457175 34.925969 33.664062 30.917969 L
	30.693359 28.632812 C 28.172688 31.751359 24.322179 33.75 20 33.75 C
	12.406085 33.75 6.25 27.593915 6.25 20 C 6.25 12.406085 12.406085 6.25 20
	6.25 C 23.146297 6.25 26.035925 7.3186609 28.351562 9.0976562 L 19.722656
	17.726562 L 14.855469 12.859375 L 12.570312 15.144531 L 17.4375 20.011719 L
	19.722656 22.296875 L 22.007812 20.011719 L 30.675781 11.34375 L 33.335938
	8.6835938 C 32.983151 8.2683011 32.607346 7.8732045 32.214844 7.4960938 C
	31.832582 7.1222738 31.428655 6.7734428 31.013672 6.4355469 C 28.005188
	3.9859195 24.182336 2.5 20 2.5 z M 34.427734 12.097656 A 1.8855933 1.8855933
	0 0 0 32.542969 13.982422 A 1.8855933 1.8855933 0 0 0 34.427734 15.869141 A
	1.8855933 1.8855933 0 0 0 36.314453 13.982422 A 1.8855933 1.8855933 0 0 0
	34.427734 12.097656 z M 35.615234 18.115234 A 1.8855933 1.8855933 0 0 0
	33.728516 20 A 1.8855933 1.8855933 0 0 0 35.615234 21.884766 A 1.8855933
	1.8855933 0 0 0 37.5 20 A 1.8855933 1.8855933 0 0 0 35.615234 18.115234 z M
	34.40625 24.216797 A 1.8855933 1.8855933 0 0 0 32.521484 26.101562 A
	1.8855933 1.8855933 0 0 0 34.40625 27.986328 A 1.8855933 1.8855933 0 0 0
	36.292969 26.101562 A 1.8855933 1.8855933 0 0 0 34.40625 24.216797 z "
	fill="inherit"
/>
</svg>
