<svg xmlns="http://www.w3.org/2000/svg" viewBox="0 0 121.59 112.64"><defs><style>.cls-1{fill:#0347ff;}</style></defs><g id="Layer_2" data-name="Layer 2"><g id="Layer_2-2" data-name="Layer 2"><path class="cls-1" d="M118,72.71,83.91,13.37a26.66,26.66,0,0,0-46.23,0L3.58,72.71A26.65,26.65,0,0,0,26.7,112.64H44.56a19.19,19.19,0,0,1-9.31-27.29l24.53-42.7a19.18,19.18,0,0,1,33.27,0l24.54,42.7a19,19,0,0,1,2.56,9.19A26.31,26.31,0,0,0,118,72.71Z"/><path class="cls-1" d="M101.42,69a7.49,7.49,0,0,0-13,0L79.62,84.29a8.37,8.37,0,0,0,7.26,12.53H103a8.35,8.35,0,0,0,7.25-12.53Z"/></g></g></svg>