<svg xmlns="http://www.w3.org/2000/svg" viewBox="0 0 10.58 13.72" xmlns:v="https://vecta.io/nano"><path d="M8.69 13.72H1.88A1.88 1.88 0 0 1 0 11.84V2.31A1.88 1.88 0 0 1 1.88.43a.16.16 0 1 1 0 .32A1.56 1.56 0 0 0 .32 2.31v9.53a1.56 1.56 0 0 0 1.56 1.56h6.81a1.56 1.56 0 0 0 1.56-1.56V4.07L6.8.75h-3a.16.16 0 0 1 0-.32h3.13l3.65 3.51v7.9a1.89 1.89 0 0 1-1.89 1.88z"/><path d="M2.75 1.15V2.8a.17.17 0 0 0 .16.2.17.17 0 0 0 .18-.16V.57a.38.38 0 0 0-.75 0v.31 2a2.81 2.81 0 0 1 0 .29.66.66 0 0 0 .19.55.58.58 0 0 0 .88-.12.62.62 0 0 0 .08-.33V2v-.52-.33h.2V3.3a.79.79 0 0 1-.51.7.75.75 0 0 1-.76-.14.73.73 0 0 1-.27-.47 1.93 1.93 0 0 1 0-.24V.55A.55.55 0 0 1 2.21.3.58.58 0 0 1 2.85 0a.52.52 0 0 1 .33.21.66.66 0 0 1 .12.35v.33.32.33.34.35.28.41a.28.28 0 0 1-.12.19.39.39 0 0 1-.35.07.36.36 0 0 1-.25-.18.66.66 0 0 1 0-.28V2.6a.48.48 0 0 0 0-.12v-.79a.65.65 0 0 0 0-.14V1.2v-.05zm5.62 11.62H2.2a1.06 1.06 0 0 1-1.05-1V3a1 1 0 0 1 .31-.74l.11.11a.91.91 0 0 0-.25.63v8.69a.88.88 0 0 0 .88.89h6.17a.89.89 0 0 0 .89-.89V8.55h.16v3.17a1 1 0 0 1-1.05 1.05z"/><path d="M9.26 7.04h.16v1.25h-.16zm0-.69h.16v.46h-.16zm-7.35.93h3.84v.16H1.91zm0 1.21H4.3v.16H1.91zm4.28 2.26h2.39v.16H6.19zM1.91 9.62h3.03v.16H1.91zm3.23 0h1.82v.16H5.14zm-.56-1.13h4v.16h-4zm-2.67 2.26h4v.16h-4zm5.33-1.13h1.42v.16H7.24zM10.46 4h-2a1.57 1.57 0 0 1-1.59-1.56V.54zM7 .92v1.52a1.41 1.41 0 0 0 1.44 1.41h1.62z"/></svg>