<svg width="100" height="100" viewBox="0 0 100 100" fill="none" xmlns="http://www.w3.org/2000/svg">
<path d="M49.9999 0C22.3857 0 0 22.3857 0 49.9999C0 77.6141 22.3857 99.9998 49.9999 99.9998C77.6141 99.9998 99.9998 77.6141 99.9998 49.9999C99.9705 22.3981 77.6019 0.0295061 49.9999 0ZM71.0568 51.593C70.7107 52.2874 70.148 52.8503 69.4534 53.1964V53.2142L40.8821 67.5C39.1176 68.3816 36.9726 67.6661 36.0908 65.9016C35.8401 65.4 35.711 64.8463 35.7141 64.2857V35.7143C35.7133 33.7418 37.3114 32.1422 39.2839 32.1412C39.8387 32.1409 40.3859 32.2699 40.8821 32.5178L69.4534 46.8036C71.2188 47.6833 71.9368 49.8277 71.0568 51.593Z" fill="#4367FF"/>
</svg>
