<svg width="20" height="20" viewBox="0 0 20 20" fill="none" xmlns="http://www.w3.org/2000/svg">
<rect width="20" height="20" rx="4" fill="white"/>
<path d="M14.2417 5.75831C11.8975 3.41408 8.10288 3.41371 5.75832 5.75831C3.41407 8.10254 3.41372 11.8971 5.75832 14.2417C8.1025 16.5859 11.8971 16.5863 14.2417 14.2417C16.5859 11.8975 16.5863 8.10289 14.2417 5.75831ZM13.991 13.3866C13.7107 13.136 13.4109 12.9142 13.0949 12.723C13.3038 12.0015 13.4275 11.2076 13.4567 10.3823H15.2204C15.1406 11.4947 14.7132 12.5383 13.991 13.3866ZM4.77962 10.3823H6.54324C6.57248 11.2076 6.69623 12.0015 6.9051 12.723C6.58909 12.9142 6.28929 13.136 6.00901 13.3866C5.28679 12.5383 4.85938 11.4947 4.77962 10.3823V10.3823ZM6.00904 6.61341C6.28931 6.86403 6.58911 7.08583 6.90512 7.27697C6.69625 7.99847 6.57251 8.79242 6.54326 9.61773H4.77962C4.85938 8.50531 5.28679 7.46177 6.00904 6.61341V6.61341ZM9.61774 7.35599C8.9943 7.3114 8.39317 7.15784 7.83588 6.90453C8.15999 6.06992 8.75749 5.0689 9.61774 4.82083V7.35599ZM9.61774 8.12195V9.61776H7.3081C7.33457 8.91961 7.43349 8.24921 7.598 7.63581C8.2313 7.91266 8.9124 8.078 9.61774 8.12195V8.12195ZM9.61774 10.3823V11.8781C8.9124 11.922 8.2313 12.0874 7.598 12.3642C7.43349 11.7508 7.33457 11.0804 7.3081 10.3823H9.61774ZM9.61774 12.644V15.1792C8.75754 14.9311 8.16004 13.9302 7.83588 13.0955C8.39317 12.8422 8.9943 12.6886 9.61774 12.644ZM10.3823 12.644C11.0057 12.6886 11.6068 12.8422 12.1641 13.0955C11.84 13.9301 11.2425 14.9311 10.3823 15.1792V12.644ZM10.3823 11.8781V10.3823H12.6919C12.6654 11.0804 12.5665 11.7508 12.402 12.3642C11.7687 12.0874 11.0876 11.922 10.3823 11.8781ZM10.3823 9.61776V8.12195C11.0876 8.078 11.7687 7.91266 12.402 7.63581C12.5665 8.24921 12.6654 8.91961 12.6919 9.61776H10.3823ZM10.3823 7.35599V4.82085C11.2425 5.06892 11.84 6.06994 12.1641 6.90455C11.6068 7.15784 11.0057 7.3114 10.3823 7.35599ZM12.0993 5.2025C12.5886 5.41678 13.0451 5.70733 13.4544 6.06783C13.2596 6.23958 13.054 6.39532 12.8394 6.53458C12.6488 6.06266 12.4053 5.60403 12.0993 5.2025V5.2025ZM7.16057 6.53458C6.94594 6.39532 6.74042 6.23958 6.5456 6.06783C6.95484 5.70733 7.41136 5.41678 7.90068 5.2025C7.59465 5.60408 7.35117 6.0627 7.16057 6.53458V6.53458ZM7.16059 13.4654C7.35117 13.9374 7.5947 14.396 7.90071 14.7975C7.41138 14.5833 6.95486 14.2927 6.54562 13.9322C6.74042 13.7604 6.94596 13.6047 7.16059 13.4654V13.4654ZM12.8394 13.4654C13.054 13.6047 13.2596 13.7604 13.4544 13.9322C13.0451 14.2927 12.5886 14.5832 12.0993 14.7975C12.4053 14.396 12.6488 13.9374 12.8394 13.4654ZM13.4568 9.61776C13.4275 8.79245 13.3038 7.99847 13.0949 7.277C13.4109 7.08585 13.7107 6.86406 13.991 6.61343C14.7132 7.46177 15.1406 8.50531 15.2204 9.61776H13.4568Z" fill="#4367FF"/>
</svg>
