<svg width="20" height="20" viewBox="0 0 20 20" fill="none" xmlns="http://www.w3.org/2000/svg">
<rect width="20" height="20" rx="4" fill="white"/>
<path d="M4.00098 10.0002C4.00098 12.3747 5.38083 14.4274 7.38257 15.4005L4.5203 7.55855C4.18835 8.30419 4.00098 9.13002 4.00098 10.0002ZM14.0513 9.69677C14.0513 8.95537 13.7853 8.44183 13.5566 8.04241C13.2532 7.54737 12.9675 7.13022 12.9675 6.63557C12.9675 6.08463 13.3862 5.5707 13.975 5.5707C14.0012 5.5707 14.0266 5.57378 14.0532 5.57494C12.9853 4.5972 11.563 4 10.0016 4C7.90498 4 6.06131 5.07566 4.98835 6.70496C5.12907 6.7092 6.20396 6.66872 6.20396 6.66872L8.50989 13.6856L9.82305 9.74805L8.75278 6.63557H10.7368L12.9957 13.6362L13.5952 11.636C13.8986 10.8565 14.0513 10.2107 14.0513 9.69677ZM10.106 10.5253L8.30556 15.7556C8.84377 15.9133 9.41168 16 10.0012 16C10.6994 16 11.3698 15.8789 11.9933 15.6603C11.9775 15.6345 11.9617 15.6067 11.9497 15.5774L10.106 10.5253ZM15.2654 7.12135C15.2916 7.31258 15.3058 7.5173 15.3058 7.73899C15.3058 8.34737 15.1913 9.03171 14.8486 9.88723L13.0165 15.1857C14.8004 14.1455 15.9994 12.2136 15.9994 10.0002C16.0006 8.95653 15.7338 7.97571 15.2654 7.12135Z" fill="#4367FF"/>
</svg>
