<svg xmlns="http://www.w3.org/2000/svg" xmlns:xlink="http://www.w3.org/1999/xlink" viewBox="0 0 65.56 57.11"><defs><style>.cls-1{isolation:isolate;}.cls-2{fill:#fff;}.cls-3{fill:url(#linear-gradient);}.cls-4{fill:#1a485e;}.cls-5{fill:#276c8d;}.cls-6{fill:#7f8c8d;opacity:0.15;}.cls-12,.cls-15,.cls-6,.cls-9{mix-blend-mode:screen;}.cls-7{fill:#1e546e;}.cls-8{fill:#0a8bc9;}.cls-9{fill:#9aaaab;}.cls-12,.cls-9{opacity:0.1;}.cls-10{fill:#205a75;}.cls-11{fill:#1981b3;}.cls-12{fill:#8a9899;}.cls-13{fill:#007dc4;}.cls-14{fill:#00a2ff;}.cls-15{fill:#b8d9ff;opacity:0.2;}</style><linearGradient id="linear-gradient" x1="3.8" y1="58.15" x2="52.34" y2="9.6" gradientUnits="userSpaceOnUse"><stop offset="0" stop-color="#e6e6e6"/><stop offset="1" stop-color="#fafafa"/></linearGradient></defs><g class="cls-1"><g id="Layer_2" data-name="Layer 2"><g id="icons"><g id="snow2"><path class="cls-2" d="M64.67,16.26a8.43,8.43,0,0,0-1.06-2.07A8.9,8.9,0,0,0,58.84,4.07a8.89,8.89,0,0,0-6-.61,8.13,8.13,0,0,0-3-.57,8.34,8.34,0,0,0-5.91,2.49A11.05,11.05,0,0,0,41.73,5,11.12,11.12,0,0,0,34.36.55,10,10,0,0,0,32.23.44a11,11,0,0,0-9.51,6.23,12,12,0,0,0-6.63,4c-5.44.4-9.92,3.5-11.64,7.69a9.85,9.85,0,0,0-2.29,2,9.17,9.17,0,0,0-2.15,6,9.61,9.61,0,0,0,.13,2.07c.74,4.22,4.48,7.37,10,8.83a5,5,0,0,0-.14,1.39l0,.4c0,.11,0,.22,0,.33l-.09.26q-.1.16-.21.36a5.86,5.86,0,0,0-.42,4.11,5.06,5.06,0,0,0,2.86,3.18l.34.25c.09.13.2.24.3.36a5.08,5.08,0,0,0,3.37,2.57,5.27,5.27,0,0,0,1.12.13,5,5,0,0,0,3.07-1l.36-.15c.15,0,.29-.05.43-.09h.22a4.87,4.87,0,0,0,1-.1.64.64,0,0,1,0,.07,5.3,5.3,0,0,0,3.23,3.42,4.58,4.58,0,0,0,.75.56A4.41,4.41,0,0,0,27,54a4.71,4.71,0,0,0,.32.58A5.3,5.3,0,0,0,30.67,57a5.94,5.94,0,0,0,1.19.13,5.32,5.32,0,0,0,3.41-1.22,5.23,5.23,0,0,0,.84-.37,4.78,4.78,0,0,0,.93-.18,5.37,5.37,0,0,0,4.37-1.68,6.09,6.09,0,0,0,1.43-4.84,1.43,1.43,0,0,0,0-.22,5,5,0,0,0,2.84,1.78,5.33,5.33,0,0,0,1.12.12,5,5,0,0,0,3.07-1l.37-.16.42-.08h.22a5,5,0,0,0,3.71-1.61A5.6,5.6,0,0,0,56,43.33c0-.1,0-.21,0-.31s.07-.2.1-.3a5.19,5.19,0,0,0-2.23-7.64l-.34-.26-.29-.33c-.06-.11-.12-.22-.19-.33a5.77,5.77,0,0,0-.6-.78,11.93,11.93,0,0,0,.84-1,11.05,11.05,0,0,0,6.15-3.42,11.52,11.52,0,0,0,2-3.08,8.24,8.24,0,0,0,3.19-9.58Z"/><path class="cls-3" d="M65.1,15.83A8.29,8.29,0,0,0,64,13.76,8.88,8.88,0,0,0,53.23,3,8.28,8.28,0,0,0,44.32,5a10.35,10.35,0,0,0-2.16-.34A11.09,11.09,0,0,0,34.78.12,11.46,11.46,0,0,0,32.66,0a11,11,0,0,0-9.51,6.23,12.08,12.08,0,0,0-6.63,4c-5.45.4-9.92,3.51-11.64,7.69a9.93,9.93,0,0,0-2.3,2A9.24,9.24,0,0,0,.44,26,8.92,8.92,0,0,0,.56,28c.75,4.22,4.49,7.37,10,8.83a5.41,5.41,0,0,0-.14,1.4l0,.39,0,.33a2.67,2.67,0,0,0-.09.26c-.08.12-.15.24-.22.36a5.22,5.22,0,0,0-.5,1.47,5.08,5.08,0,0,0,.09,2.65,5,5,0,0,0,2.85,3.17,3.85,3.85,0,0,0,.34.26c.1.12.2.24.31.35a5.07,5.07,0,0,0,3.36,2.58,5.33,5.33,0,0,0,1.12.12,5.06,5.06,0,0,0,3.08-1l.36-.16.42-.08h.22a5.78,5.78,0,0,0,1-.1s0,0,0,.06a5.36,5.36,0,0,0,3.23,3.43,6.1,6.1,0,0,0,.75.56,6.22,6.22,0,0,0,.63.73c.1.19.2.39.32.58a5.31,5.31,0,0,0,3.33,2.35,5.2,5.2,0,0,0,1.18.13,5.32,5.32,0,0,0,3.41-1.22,6.24,6.24,0,0,0,.84-.36,7,7,0,0,0,.93-.18,5.44,5.44,0,0,0,4.38-1.68,5.31,5.31,0,0,0,1.36-2.8,5.39,5.39,0,0,0,.07-2,1.7,1.7,0,0,0,0-.22A5,5,0,0,0,46.15,50a4.64,4.64,0,0,0,1.12.13,5.14,5.14,0,0,0,3.07-1l.36-.16a3,3,0,0,0,.43-.09h.22a5.09,5.09,0,0,0,5-4.22,4.86,4.86,0,0,0,.09-1.7c0-.1,0-.2,0-.3l.1-.3a5,5,0,0,0,.67-1.67,5,5,0,0,0-2.9-6A2.78,2.78,0,0,0,54,34.4a3.18,3.18,0,0,0-.3-.33,2.27,2.27,0,0,0-.19-.34,4.91,4.91,0,0,0-.59-.77,12.36,12.36,0,0,0,.83-1.05,11,11,0,0,0,6.16-3.42,11.31,11.31,0,0,0,2-3.07,8.41,8.41,0,0,0,2.83-3.25A8.26,8.26,0,0,0,65.1,15.83Z"/><g id="snow_2"><path class="cls-4" d="M17.19,15.16a12.57,12.57,0,0,1,1.74,0,7.42,7.42,0,0,1,6.58-4.3,6.55,6.55,0,0,1,1,0A6.68,6.68,0,0,1,39.59,9.85a7.22,7.22,0,0,1,1.68-.3,6.7,6.7,0,0,1,6.92,5.74A6.69,6.69,0,1,1,52,27.67a6.45,6.45,0,0,1-1,0A6.68,6.68,0,0,1,45,32.22a6.61,6.61,0,0,1-2.67-.43A11.5,11.5,0,0,1,34.47,35c-4.39.19-8.19-1.66-9.5-4.36a6.69,6.69,0,0,1-10.32-2.38c-3.45-.8-6.11-2-6.11-6C8.54,18.54,12.25,15.37,17.19,15.16Z"/><path class="cls-5" d="M17.19,14.63a14.33,14.33,0,0,1,1.74,0,7.42,7.42,0,0,1,6.58-4.3,8.18,8.18,0,0,1,1,0A6.68,6.68,0,0,1,39.59,9.33,7.22,7.22,0,0,1,41.27,9a6.7,6.7,0,0,1,6.92,5.74A6.69,6.69,0,1,1,52,27.15a6.45,6.45,0,0,1-1,0A6.68,6.68,0,0,1,45,31.7a6.61,6.61,0,0,1-2.67-.43,11.5,11.5,0,0,1-7.82,3.2c-4.39.19-8.19-1.66-9.5-4.36a6.69,6.69,0,0,1-10.32-2.38c-3.45-.8-6.11-2-6.11-6C8.54,18,12.25,14.85,17.19,14.63Z"/><path class="cls-6" d="M33.48,20a123.5,123.5,0,0,1,24.68,2.29,6.7,6.7,0,0,0-10-7.49A6.7,6.7,0,0,0,41.27,9a7.22,7.22,0,0,0-1.68.3A6.68,6.68,0,0,0,26.5,10.4a8.18,8.18,0,0,0-1,0,7.42,7.42,0,0,0-6.58,4.3,14.33,14.33,0,0,0-1.74,0c-4.94.22-8.65,3.39-8.65,7.09,0,.2,0,.4,0,.59A122.93,122.93,0,0,1,33.48,20Z"/><path class="cls-7" d="M49,23.8A3.86,3.86,0,0,0,54.15,22a3.73,3.73,0,0,0,.29-.83,4,4,0,0,0,1.17.87A3.85,3.85,0,0,0,59,15.1a2.54,2.54,0,0,0-.52-.2A4.45,4.45,0,0,0,52.89,8a3.66,3.66,0,0,0-1-.69,3.85,3.85,0,0,0-4.56,6,3.85,3.85,0,0,0-.91,7.25l.42.17A3.84,3.84,0,0,0,49,23.8Z"/><path class="cls-8" d="M49,23.27a3.85,3.85,0,0,0,5.15-1.8,3.73,3.73,0,0,0,.29-.83,3.81,3.81,0,0,0,1.17.87A3.85,3.85,0,0,0,59,14.57a2.54,2.54,0,0,0-.52-.2,4.45,4.45,0,0,0-5.55-6.93,3.85,3.85,0,0,0-5.55,5.34A3.84,3.84,0,0,0,46.43,20a3.69,3.69,0,0,0,.42.17A3.86,3.86,0,0,0,49,23.27Z"/><path class="cls-9" d="M52.69,15a65.89,65.89,0,0,1,7.41.4A3.83,3.83,0,0,0,59,14.57a2.54,2.54,0,0,0-.52-.2,4.45,4.45,0,0,0-5.55-6.93,3.85,3.85,0,0,0-5.55,5.34,3.86,3.86,0,0,0-2.71,2.09,4.27,4.27,0,0,0-.24.65A64.31,64.31,0,0,1,52.69,15Z"/><path class="cls-10" d="M31.36,25.79a5,5,0,0,0-7.26-3.7,6.26,6.26,0,0,0-12.28-.46,6.39,6.39,0,0,0-1.58-.2,5.13,5.13,0,0,0-5.32,5.83C6.42,35.71,32.27,35.48,31.36,25.79Z"/><path class="cls-11" d="M31.36,25.19A5,5,0,0,0,24.1,21.5,6.25,6.25,0,0,0,11.82,21a6.4,6.4,0,0,0-1.58-.21,5.14,5.14,0,0,0-5.32,5.83C6.42,35.11,32.27,34.89,31.36,25.19Z"/><path class="cls-12" d="M18,25.06A91.56,91.56,0,0,1,31.37,26a6.82,6.82,0,0,0,0-.78A5,5,0,0,0,24.1,21.5,6.25,6.25,0,0,0,11.82,21a6.4,6.4,0,0,0-1.58-.21,5.2,5.2,0,0,0-5.39,5.11A93.1,93.1,0,0,1,18,25.06Z"/><path class="cls-13" d="M22.26,43.38,22,43.1l.08,0a.65.65,0,1,0-.38-1.25l-.46.14-.35.11L20,41.25l1.16-.36.27.25.41.39h0a.63.63,0,0,0,.85-.09.64.64,0,0,0,0-.85h0l-.13-.12.4-.13a.65.65,0,0,0-.38-1.24l-.41.12,0-.09a.65.65,0,0,0-1.27-.29l-.11.47-.08.36L19.57,40l.27-1.18.34-.1.55-.17h0a.65.65,0,0,0-.38-1.23h0l-.17.05.09-.41a.64.64,0,0,0-.49-.78.65.65,0,0,0-.78.49l-.09.42L18.83,37a.65.65,0,0,0-.89,1l.35.32.28.25-.27,1.18-.89-.82.08-.35.13-.56h0a.65.65,0,0,0-1.26-.29h0l0,.18L16,37.58a.65.65,0,1,0-.88,1l.3.29-.08,0a.65.65,0,0,0-.43.82.65.65,0,0,0,.81.43l.46-.14.35-.11.89.82L16.25,41,16,40.78l-.42-.39h0a.65.65,0,0,0-.88,1h0l.14.12-.41.13a.65.65,0,1,0,.39,1.24l.4-.12,0,.09a.65.65,0,1,0,1.27.29l.11-.47.08-.35,1.16-.36-.27,1.18-.35.1-.55.17h0A.65.65,0,0,0,17,44.61h0l.17,0L17.1,45a.65.65,0,0,0,1.27.29l.09-.42.07.07a.65.65,0,1,0,.89-1l-.35-.32-.27-.25.27-1.18L20,43l-.08.35-.12.56h0a.66.66,0,0,0,.51.7.65.65,0,0,0,.75-.41h0l0-.18.31.29a.65.65,0,0,0,.92,0A.66.66,0,0,0,22.26,43.38Z"/><path class="cls-14" d="M22.31,43.14,22,42.85l.09,0a.64.64,0,0,0,.43-.81.65.65,0,0,0-.81-.44l-.46.15-.35.11L20,41l1.15-.35.27.24.42.39h0a.65.65,0,0,0,.87-1h0l-.14-.13.41-.12a.65.65,0,0,0-.39-1.25l-.4.12,0-.09A.65.65,0,0,0,21,38.57l-.11.47-.08.36-1.16.36.27-1.18.35-.11.54-.17h0a.65.65,0,0,0-.38-1.24h0l-.17,0,.09-.42a.65.65,0,1,0-1.27-.28l-.1.41-.06-.06a.66.66,0,0,0-.93,0,.65.65,0,0,0,0,.92l.35.33.27.25-.27,1.18-.89-.82.09-.36.12-.56h0a.64.64,0,0,0-.5-.69.63.63,0,0,0-.75.41h0l0,.17-.31-.29a.65.65,0,0,0-.89,1l.31.29-.09,0a.65.65,0,1,0,.39,1.24l.46-.14.35-.11.88.82-1.15.36L16,40.53l-.41-.38h0a.65.65,0,0,0-.88,1h0l.13.13-.4.12a.67.67,0,0,0-.44.82.66.66,0,0,0,.82.43l.4-.13v.1a.64.64,0,0,0,.49.78.66.66,0,0,0,.78-.5l.1-.46.08-.36,1.16-.36-.27,1.18-.35.11-.54.17h0a.65.65,0,0,0,.38,1.24h0l.18,0-.1.41a.66.66,0,0,0,1.28.29l.09-.41.07.06a.65.65,0,0,0,.92,0,.66.66,0,0,0,0-.92l-.36-.33-.27-.25L19.12,42l.89.82-.08.36-.13.55h0a.64.64,0,0,0,.5.69.65.65,0,0,0,.76-.41h0l0-.17.32.29a.65.65,0,0,0,.88-1Z"/><path class="cls-15" d="M15.16,38.29l.31.29-.09,0a.65.65,0,1,0,.39,1.24l.46-.14.35-.11.6.56q.8.12,1.62.3c.54.13,1.07.27,1.58.43l.78-.24.27.24.42.39h0a.65.65,0,0,0,.87-1h0l-.14-.13.41-.12a.65.65,0,0,0-.39-1.25l-.4.12,0-.09A.65.65,0,0,0,21,38.57l-.11.47-.08.36-1.16.36.27-1.18.35-.11.54-.17h0a.65.65,0,0,0-.38-1.24h0l-.17,0,.09-.42a.65.65,0,1,0-1.27-.28l-.1.41-.06-.06a.66.66,0,0,0-.93,0,.65.65,0,0,0,0,.92l.35.33.27.25-.27,1.18-.89-.82.09-.36.12-.56h0a.64.64,0,0,0-.5-.69.63.63,0,0,0-.75.41h0l0,.17-.31-.29a.65.65,0,0,0-.89,1Z"/><path class="cls-13" d="M51.79,43.26,51.48,43l.09,0a.66.66,0,0,0,.43-.82.65.65,0,0,0-.82-.43l-.45.14-.36.11-.88-.82,1.15-.36.27.25.42.39h0a.65.65,0,0,0,.88-.95h0l-.13-.12.41-.13A.65.65,0,0,0,52.1,39l-.4.13,0-.09a.67.67,0,0,0-.49-.79.66.66,0,0,0-.78.5l-.11.46-.08.36-1.16.36.27-1.18.35-.11.54-.16h0a.65.65,0,0,0,.35-.78.64.64,0,0,0-.73-.45h0l-.17,0,.09-.41a.65.65,0,1,0-1.27-.29l-.1.41-.07-.06a.65.65,0,1,0-.88,1l.35.32.27.25-.27,1.18-.89-.82.08-.36.13-.55h0a.65.65,0,0,0-.5-.7.67.67,0,0,0-.76.41h0l0,.18-.31-.29a.66.66,0,0,0-.93,0,.65.65,0,0,0,0,.92l.31.29-.09,0a.66.66,0,0,0-.43.82.66.66,0,0,0,.82.43l.46-.15.35-.1.88.82-1.15.35-.27-.24-.42-.39h0a.67.67,0,0,0-.86.09.65.65,0,0,0,0,.86h0l.13.12-.41.13a.65.65,0,1,0,.39,1.24l.4-.12,0,.09A.66.66,0,0,0,46,43l.1-.47.08-.36,1.16-.35L47.06,43l-.35.11-.54.17h0a.66.66,0,0,0-.35.79.65.65,0,0,0,.73.45h0l.18-.06-.1.41a.66.66,0,0,0,.49.79.67.67,0,0,0,.79-.49l.09-.42.07.07a.66.66,0,0,0,.92,0,.65.65,0,0,0,0-.92l-.35-.33-.27-.25.27-1.18.89.83-.08.35-.13.55h0a.65.65,0,0,0,1.26.28h0l0-.17.32.29a.64.64,0,0,0,.91,0A.65.65,0,0,0,51.79,43.26Z"/><path class="cls-14" d="M51.85,43l-.31-.28.09,0a.65.65,0,1,0-.39-1.25l-.46.14-.35.11-.89-.82,1.16-.35.27.24.41.39h0a.64.64,0,0,0,.85-.08.65.65,0,0,0,0-.86h0l-.13-.12.4-.13a.65.65,0,1,0-.38-1.24l-.41.12,0-.09a.65.65,0,0,0-1.27-.29l-.1.47-.09.36-1.15.36.27-1.18.34-.11.55-.17h0a.65.65,0,0,0-.38-1.23h0l-.17.06.09-.42a.64.64,0,0,0-.49-.78.65.65,0,0,0-.78.49l-.09.42-.07-.07a.65.65,0,1,0-.89,1l.36.33.26.25-.26,1.18L47,38.52l.08-.35.13-.56h0a.65.65,0,0,0-1.26-.29h0l0,.18-.31-.29a.65.65,0,0,0-.92,0,.64.64,0,0,0,0,.92l.31.29-.09,0a.64.64,0,0,0-.43.81.65.65,0,0,0,.81.43l.46-.14.35-.11.89.82-1.16.36-.26-.25L45.16,40h0a.64.64,0,0,0-.85.09.65.65,0,0,0,0,.86h0l.13.12-.4.13a.65.65,0,0,0,.38,1.25l.41-.13,0,.09a.65.65,0,0,0,1.27.29l.11-.47.08-.36,1.16-.35-.27,1.18-.35.11-.55.16h0a.65.65,0,0,0,.38,1.23h0l.17,0-.09.41A.65.65,0,1,0,48,44.9l.1-.41.06.06a.66.66,0,0,0,.93,0,.67.67,0,0,0,0-.93l-.35-.32L48.39,43l.27-1.18.88.82-.08.36-.12.55h0a.65.65,0,0,0,1.26.29h0l0-.18L51,44a.65.65,0,0,0,.92,0A.66.66,0,0,0,51.85,43Z"/><path class="cls-15" d="M44.7,38.17l.31.29-.09,0a.64.64,0,0,0-.43.81.65.65,0,0,0,.81.43l.46-.14.35-.11.61.56c.52.08,1.06.18,1.61.3s1.07.27,1.58.43l.79-.24.27.24.41.39h0a.64.64,0,0,0,.85-.08.65.65,0,0,0,0-.86h0l-.13-.12.4-.13a.65.65,0,1,0-.38-1.24l-.41.12,0-.09a.65.65,0,0,0-1.27-.29l-.1.47-.09.36-1.15.36.27-1.18.34-.11.55-.17h0a.65.65,0,0,0-.38-1.23h0l-.17.06.09-.42a.64.64,0,0,0-.49-.78.65.65,0,0,0-.78.49l-.09.42-.07-.07a.65.65,0,1,0-.89,1l.36.33.26.25-.26,1.18L47,38.52l.08-.35.13-.56h0a.65.65,0,0,0-1.26-.29h0l0,.18-.31-.29a.65.65,0,0,0-.92,0A.64.64,0,0,0,44.7,38.17Z"/><path class="cls-13" d="M38.55,48.94l-.43-.4.12,0a.9.9,0,1,0-.53-1.73l-.64.2-.48.15L35.36,46l1.6-.49.37.34.58.54h0a.89.89,0,0,0,1.18-.12.91.91,0,0,0,0-1.19h0L39,44.87l.56-.17a.92.92,0,0,0,.6-1.14A.91.91,0,0,0,39,43l-.57.17,0-.13a.9.9,0,1,0-1.76-.4l-.15.65-.11.5-1.61.49.38-1.63.48-.15.75-.24h0a.9.9,0,0,0-.53-1.71h0l-.24.07.13-.57A.9.9,0,1,0,34,39.6l-.13.58-.1-.09a.91.91,0,1,0-1.23,1.33l.49.45.37.35-.37,1.63-1.23-1.14.11-.49.18-.77h0a.9.9,0,0,0-1.75-.4h0l-.05.24-.43-.4a.91.91,0,0,0-1.28,0,.9.9,0,0,0,.05,1.28l.43.4-.13,0a.91.91,0,0,0,.54,1.73l.63-.2L30.6,44l1.23,1.14-1.6.49-.37-.34-.58-.54h0a.9.9,0,0,0-1.22,1.31h0l.18.17-.56.17a.9.9,0,1,0,.53,1.73l.57-.17,0,.12a.9.9,0,1,0,1.76.41l.15-.65.11-.5,1.6-.49L32,48.54l-.48.15-.76.24h0a.91.91,0,0,0,.53,1.72h0l.24-.07-.13.57a.9.9,0,0,0,1.76.4l.13-.57.1.09a.91.91,0,1,0,1.23-1.33l-.49-.45-.37-.35.37-1.63,1.23,1.14-.11.49-.18.77h0a.9.9,0,0,0,1.75.4h0l0-.24.43.4a.91.91,0,0,0,1.28-.05A.9.9,0,0,0,38.55,48.94Z"/><path class="cls-14" d="M38.63,48.6l-.43-.4.12,0a.9.9,0,0,0-.53-1.73l-.64.2-.48.15-1.23-1.14,1.6-.49.37.34L38,46h0a.91.91,0,0,0,1.22-1.32h0L39,44.53l.56-.18a.9.9,0,1,0-.54-1.72l-.56.17,0-.13a.91.91,0,0,0-1.77-.4l-.14.65-.12.5-1.6.49.37-1.63.49-.15.75-.24h0A.91.91,0,0,0,37,40.8a.89.89,0,0,0-1-.62h0l-.24.07.13-.57a.91.91,0,1,0-1.77-.4l-.13.57-.09-.09a.91.91,0,1,0-1.23,1.33l.49.45.37.35-.37,1.63-1.23-1.14.11-.49.17-.77h0a.9.9,0,0,0-1.75-.4h0l-.05.24-.44-.4a.9.9,0,1,0-1.22,1.33l.43.4-.13,0A.9.9,0,1,0,29.56,44l.63-.19.49-.15,1.23,1.14-1.6.5L29.93,45l-.57-.54h0a.9.9,0,0,0-1.22,1.31h0l.18.17-.56.17a.9.9,0,1,0,.53,1.73l.57-.17,0,.12a.91.91,0,0,0,.68,1.09.9.9,0,0,0,1.08-.68l.15-.65.11-.5,1.6-.49-.37,1.63-.48.15-.76.23h0a.92.92,0,0,0-.48,1.09.89.89,0,0,0,1,.62h0l.24-.07-.13.57a.9.9,0,0,0,1.76.4l.13-.57.1.09a.9.9,0,0,0,1.28,0,.92.92,0,0,0,0-1.28L34.21,49l-.38-.35L34.21,47l1.23,1.14-.12.49-.17.77h0a.91.91,0,0,0,.7,1,.89.89,0,0,0,1-.57h0l.06-.24.43.4a.91.91,0,0,0,1.28,0A.9.9,0,0,0,38.63,48.6Z"/><path class="cls-15" d="M28.72,41.88l.43.4-.13,0A.9.9,0,1,0,29.56,44l.63-.19.49-.15.83.77c.74.11,1.49.25,2.24.42s1.49.37,2.2.59L37,45.15l.37.34L38,46h0a.91.91,0,0,0,1.22-1.32h0L39,44.53l.56-.18a.9.9,0,1,0-.54-1.72l-.56.17,0-.13a.91.91,0,0,0-1.77-.4l-.14.65-.12.5-1.6.49.37-1.63.49-.15.75-.24h0A.91.91,0,0,0,37,40.8a.89.89,0,0,0-1-.62h0l-.24.07.13-.57a.91.91,0,1,0-1.77-.4l-.13.57-.09-.09a.91.91,0,1,0-1.23,1.33l.49.45.37.35-.37,1.63-1.23-1.14.11-.49.17-.77h0a.9.9,0,0,0-1.75-.4h0l-.05.24-.44-.4a.9.9,0,1,0-1.22,1.33Z"/></g></g></g></g></g></svg>