<svg xmlns="http://www.w3.org/2000/svg" xmlns:xlink="http://www.w3.org/1999/xlink" viewBox="0 0 56.9 56.95"><defs><style>.cls-1{isolation:isolate;}.cls-2{fill:url(#linear-gradient);}.cls-3{fill:#e69100;}.cls-4,.cls-5{fill:#fb0;}.cls-5{opacity:0.2;mix-blend-mode:screen;}</style><linearGradient id="linear-gradient" x1="5.07" y1="51.79" x2="47.74" y2="9.13" gradientUnits="userSpaceOnUse"><stop offset="0" stop-color="#e6e6e6"/><stop offset="1" stop-color="#fafafa"/></linearGradient></defs><g class="cls-1"><g id="Layer_2" data-name="Layer 2"><g id="icons"><g id="sun"><path class="cls-2" d="M55.25,25l-.19-.15,0,0-6.22-5,.86-7.92A4.41,4.41,0,0,0,44.81,7l-7.92.86-5-6.21a4.43,4.43,0,0,0-6.9,0L20,7.86,12.08,7A4.43,4.43,0,0,0,7.2,11.88l.86,7.92-6,4.79-.24.19L1.65,25a4.43,4.43,0,0,0,0,6.89L8,37,7.2,44.61a1.09,1.09,0,0,0,0,.18l0,.17a4.42,4.42,0,0,0,4.88,4.87l7.8-.84L25,55.32A4.43,4.43,0,0,0,28.44,57h0a4.41,4.41,0,0,0,3.43-1.64L37,49l7.79.86a4.42,4.42,0,0,0,4.9-4.57,3.64,3.64,0,0,0,0-.66L48.86,37l6.39-5.14a4.43,4.43,0,0,0,0-6.9Z"/><g id="sun-2" data-name="sun"><path class="cls-3" d="M28.44,14.23A14.36,14.36,0,1,0,42.8,28.59,14.35,14.35,0,0,0,28.44,14.23Z"/><path class="cls-3" d="M44.16,35.11l8.32-6.69-.22-.17-8.18-6.44,1-10.23L34.91,12.64,28.44,4.77,22,12.65,11.73,11.53,12.8,21.81,4.64,28.23l-.21.17,8.29,6.7-1.11,10,0,.35,10.2-1.1,6.67,8.19,6.66-8.21,10.19,1.13ZM35,43.94a21.79,21.79,0,0,1-6.52,1.24A21.44,21.44,0,0,1,22,43.89a20,20,0,0,1-5.26-3.57A21,21,0,0,1,12.87,35a21.07,21.07,0,0,1,0-12.89A21.11,21.11,0,0,1,22,13a21.07,21.07,0,0,1,12.89,0A21,21,0,0,1,44,22.15,20.87,20.87,0,0,1,44,35a21.15,21.15,0,0,1-3.84,5.28A20.08,20.08,0,0,1,35,43.94Z"/><path class="cls-4" d="M42.8,28.25A14.36,14.36,0,1,1,28.44,13.89,14.35,14.35,0,0,1,42.8,28.25Z"/><path class="cls-4" d="M44.16,34.76l8.1-6.51-8.1-6.51L45.29,11.4,35,12.53l-6.51-8.1-6.51,8.1L11.6,11.4l1.12,10.33-8.1,6.52,8.1,6.51L11.6,45.09,21.93,44l6.51,8.11L35,44l10.34,1.12Zm-9.27,9.06a21.07,21.07,0,0,1-12.89,0,21.11,21.11,0,0,1-9.13-9.13,21.07,21.07,0,0,1,0-12.89A21,21,0,0,1,22,12.68a20.87,20.87,0,0,1,12.89,0A20.93,20.93,0,0,1,44,21.8a20.87,20.87,0,0,1,0,12.89,21,21,0,0,1-9.12,9.13Z"/><path class="cls-5" d="M28.44,28.24A130.34,130.34,0,0,1,42.78,29c0-.25,0-.51,0-.77a14.36,14.36,0,1,0-28.71,0c0,.26,0,.52,0,.77A130,130,0,0,1,28.44,28.24Z"/><path class="cls-5" d="M6.9,30.08c1.61-.29,3.28-.56,5-.79,0-.34,0-.69,0-1a21.13,21.13,0,0,1,1-6.45A21,21,0,0,1,22,12.68a20.87,20.87,0,0,1,12.89,0A20.93,20.93,0,0,1,44,21.8a21.09,21.09,0,0,1,1,6.45c0,.35,0,.7-.05,1,1.73.23,3.4.5,5,.79l2.28-1.83-8.1-6.51L45.29,11.4,35,12.53l-6.51-8.1-6.51,8.1L11.6,11.4l1.12,10.33-8.1,6.52Z"/></g></g></g></g></g></svg>