<svg xmlns="http://www.w3.org/2000/svg" xmlns:xlink="http://www.w3.org/1999/xlink" viewBox="0 0 72.61 55.81"><defs><style>.cls-1{isolation:isolate;}.cls-2{fill:#fff;}.cls-3{fill:url(#linear-gradient);}.cls-4{fill:#d89f00;}.cls-5,.cls-6{fill:#fb0;}.cls-6,.cls-9{opacity:0.2;mix-blend-mode:screen;}.cls-7{fill:#a3bad4;}.cls-8,.cls-9{fill:#b8d9ff;}</style><linearGradient id="linear-gradient" x1="15.48" y1="55" x2="52.67" y2="17.81" gradientUnits="userSpaceOnUse"><stop offset="0" stop-color="#e6e6e6"/><stop offset="1" stop-color="#fafafa"/></linearGradient></defs><g class="cls-1"><g id="Layer_2" data-name="Layer 2"><g id="icons"><g id="moon_cloud"><path class="cls-2" d="M72.19,37.64c0-5.4-4.58-9.9-10.53-10.71-.4-.05-.8-.09-1.21-.11a11.12,11.12,0,0,0-6-3.5,10.68,10.68,0,0,0-4.68-4.56A26.06,26.06,0,0,0,28.71.48,4.43,4.43,0,0,0,24,6.71,17.24,17.24,0,0,1,25.61,14c0,.3,0,.6,0,.89V15A17.39,17.39,0,0,1,8.24,31.37a17.93,17.93,0,0,1-2.73-.21l-.2,0-.2,0A4.43,4.43,0,0,0,.37,37.26,27,27,0,0,0,24.76,53.14a25.47,25.47,0,0,0,6-.73A10,10,0,0,0,35.5,53.6a10.39,10.39,0,0,0,1.37-.09A15,15,0,0,0,45,55.81a14.53,14.53,0,0,0,9.75-3.54,10.09,10.09,0,0,0,2.2.24,10.28,10.28,0,0,0,8.73-4.9,10.72,10.72,0,0,0,6.5-9.53c0-.06,0-.12,0-.18S72.19,37.73,72.19,37.64Z"/><path class="cls-3" d="M72.61,37.22c0-5.41-4.57-9.9-10.52-10.71-.4-.06-.81-.09-1.22-.11a11.07,11.07,0,0,0-6-3.51,10.84,10.84,0,0,0-4.68-4.56A26.09,26.09,0,0,0,29.14.05a4.43,4.43,0,0,0-4.71,6.23A17.14,17.14,0,0,1,26,13.57c0,.3,0,.59,0,.89v.07A17.4,17.4,0,0,1,8.66,31a17.81,17.81,0,0,1-2.72-.22h-.2l-.21,0A4.42,4.42,0,0,0,.8,36.84,27,27,0,0,0,25.18,52.71a25.34,25.34,0,0,0,6-.73,10,10,0,0,0,4.74,1.2,10.54,10.54,0,0,0,1.38-.09,15.07,15.07,0,0,0,8.14,2.29,14.59,14.59,0,0,0,9.75-3.53,10,10,0,0,0,2.2.24,10.29,10.29,0,0,0,8.73-4.9,10.73,10.73,0,0,0,6.49-9.53c0-.06,0-.12,0-.18S72.61,37.3,72.61,37.22Z"/><g id="moon_cloud-2" data-name="moon_cloud"><path class="cls-4" d="M29,4.84A22.73,22.73,0,0,1,30.9,14.2c0,12-10.2,21.94-22.24,21.94-1,0-2.43-.89-3.41-1l-.4-.06A22.42,22.42,0,0,0,25.18,48.29,21.83,21.83,0,0,0,46.85,26.73C46.85,15.84,39.43,6.47,29,4.84Z"/><path class="cls-5" d="M28.45,4.43a21.64,21.64,0,0,1,2,9.14,21.8,21.8,0,0,1-21.8,21.8,22.53,22.53,0,0,1-3.41-.26A21.8,21.8,0,1,0,28.45,4.43Z"/><path class="cls-6" d="M24,29.07a40,40,0,0,1,5-.32A32.88,32.88,0,0,1,45.7,33,21.8,21.8,0,0,0,28.45,4.43a21.64,21.64,0,0,1,2,9.14A21.74,21.74,0,0,1,24,29.07Z"/><path class="cls-7" d="M60.15,31.24a11.45,11.45,0,0,0-1.56.12,6.63,6.63,0,0,0-6.07-3.84,8.48,8.48,0,0,0-.88.06,5.95,5.95,0,0,0-11.79-.47,5.74,5.74,0,0,0-1.51-.21,6.18,6.18,0,0,0-6,5.79,5.59,5.59,0,0,0-2.94-.83,6.23,6.23,0,0,0-6,6.42,6.22,6.22,0,0,0,6,6.41,5.17,5.17,0,0,0,.89-.08,6,6,0,0,0,5.61,4.14,5.56,5.56,0,0,0,2.38-.52A9.94,9.94,0,0,0,45.44,51c4,0,7.28-1.92,8.35-4.57a5.77,5.77,0,0,0,3.6,1.28,6,6,0,0,0,5.56-4c3.06-.91,5.24-3.26,5.24-6C68.19,34.11,64.59,31.24,60.15,31.24Z"/><path class="cls-8" d="M60.15,30.8a10.05,10.05,0,0,0-1.56.13,6.62,6.62,0,0,0-6.07-3.85,8.48,8.48,0,0,0-.88.06,5.95,5.95,0,0,0-11.79-.47,5.74,5.74,0,0,0-1.51-.21,6.18,6.18,0,0,0-6,5.79,5.59,5.59,0,0,0-2.94-.83,6.23,6.23,0,0,0-6,6.42,6.22,6.22,0,0,0,6,6.41,5.17,5.17,0,0,0,.89-.08,6,6,0,0,0,5.61,4.14,5.71,5.71,0,0,0,2.38-.52,9.94,9.94,0,0,0,7.14,2.72c4,0,7.28-1.92,8.35-4.57a5.77,5.77,0,0,0,3.6,1.28,6,6,0,0,0,5.56-4c3.06-.9,5.24-3.26,5.24-6C68.19,33.68,64.59,30.8,60.15,30.8Z"/><path class="cls-9" d="M45.8,36.06a84.89,84.89,0,0,1,22.14,2.71,5,5,0,0,0,.25-1.55c0-3.54-3.6-6.42-8-6.42a10.05,10.05,0,0,0-1.56.13,6.62,6.62,0,0,0-6.07-3.85,8.48,8.48,0,0,0-.88.06,5.95,5.95,0,0,0-11.79-.47,5.74,5.74,0,0,0-1.51-.21,6.18,6.18,0,0,0-6,5.79,5.59,5.59,0,0,0-2.94-.83,6.23,6.23,0,0,0-6,6.42,6.37,6.37,0,0,0,.08,1A84.59,84.59,0,0,1,45.8,36.06Z"/></g></g></g></g></g></svg>