<svg xmlns="http://www.w3.org/2000/svg" xmlns:xlink="http://www.w3.org/1999/xlink" viewBox="0 0 65.56 53.12"><defs><style>.cls-1{isolation:isolate;}.cls-2{fill:#fff;}.cls-3{fill:url(#linear-gradient);}.cls-4{fill:#1a485e;}.cls-5{fill:#276c8d;}.cls-15,.cls-6{fill:#7f8c8d;}.cls-6{opacity:0.15;}.cls-12,.cls-15,.cls-6,.cls-9{mix-blend-mode:screen;}.cls-7{fill:#1e546e;}.cls-8{fill:#0a8bc9;}.cls-9{fill:#9aaaab;}.cls-12,.cls-9{opacity:0.1;}.cls-10{fill:#205a75;}.cls-11{fill:#1981b3;}.cls-12{fill:#8a9899;}.cls-13{fill:#007dc4;}.cls-14{fill:#00a2ff;}.cls-15{opacity:0.2;}</style><linearGradient id="linear-gradient" x1="11.64" y1="48.68" x2="50.4" y2="9.92" gradientUnits="userSpaceOnUse"><stop offset="0" stop-color="#e6e6e6"/><stop offset="1" stop-color="#fafafa"/></linearGradient></defs><g class="cls-1"><g id="Layer_2" data-name="Layer 2"><g id="icons"><g id="rain2"><path class="cls-2" d="M65.13,18.61a8.19,8.19,0,0,0-.46-2.88,8.1,8.1,0,0,0-1-2,9.09,9.09,0,0,0,.16-2,8.87,8.87,0,0,0-5-8.23A8.72,8.72,0,0,0,55,2.66a8.86,8.86,0,0,0-2.18.27,8.13,8.13,0,0,0-3-.57,8.33,8.33,0,0,0-6.3,2.92A11.46,11.46,0,0,0,41.74,5a11.13,11.13,0,0,0-19,1.63,12,12,0,0,0-6.63,4c-5.44.4-9.92,3.5-11.63,7.69a9.7,9.7,0,0,0-2.3,2A9.18,9.18,0,0,0,0,26.4a9.55,9.55,0,0,0,.13,2.06C1,33.59,6.37,37.15,14.05,38l-.2.31-.08.14a1.19,1.19,0,0,0-.09.15l0,.1a6.83,6.83,0,0,0-.53,1.22.53.53,0,0,1,0,.12s0,.07,0,.11a8.37,8.37,0,0,0,.28,5.8,7.36,7.36,0,0,0,4.55,4.14,6.94,6.94,0,0,0,2.12.32,7.67,7.67,0,0,0,5.44-2.35l.09.25a8,8,0,0,0,4.9,4.47,7.75,7.75,0,0,0,2.29.34,8.64,8.64,0,0,0,7.6-5,7.22,7.22,0,0,0,3.09,1.94,7,7,0,0,0,2.13.32A8,8,0,0,0,53,44.63s0-.07,0-.11a.61.61,0,0,1,0-.12,7.6,7.6,0,0,0,.25-1.31.36.36,0,0,0,0-.1,1.09,1.09,0,0,0,0-.18.86.86,0,0,0,0-.16c0-.13,0-.26,0-.4a2.81,2.81,0,0,0,0-.3,1,1,0,0,1,0-.18A23.59,23.59,0,0,0,52,35.05a1.59,1.59,0,0,1-.07-.2l0-.1a4.83,4.83,0,0,0-.23-.52,11.25,11.25,0,0,0,1.69-1.89,11.07,11.07,0,0,0,8.14-6.5,8.11,8.11,0,0,0,2.83-3.25A8.26,8.26,0,0,0,65.13,18.61Z"/><path class="cls-3" d="M65.55,18.19a8.15,8.15,0,0,0-.45-2.88,8.69,8.69,0,0,0-1-2,9.09,9.09,0,0,0,.16-2,8.91,8.91,0,0,0-5-8.24,8.89,8.89,0,0,0-6-.61,8.29,8.29,0,0,0-9.31,2.36,10.22,10.22,0,0,0-1.76-.24,11.12,11.12,0,0,0-19,1.62,12.08,12.08,0,0,0-6.63,4c-5.45.4-9.92,3.51-11.64,7.7a9.58,9.58,0,0,0-2.29,2A9.2,9.2,0,0,0,.44,26,9,9,0,0,0,.56,28c.91,5.14,6.23,8.69,13.92,9.54a2.8,2.8,0,0,0-.2.32L14.2,38l-.1.16,0,.09a6.52,6.52,0,0,0-.53,1.23l0,.11s0,.08,0,.11a8.4,8.4,0,0,0,.28,5.81,7.39,7.39,0,0,0,4.55,4.14,7.21,7.21,0,0,0,2.12.32,7.69,7.69,0,0,0,5.43-2.35,2.44,2.44,0,0,0,.1.24,7.91,7.91,0,0,0,4.9,4.47,7.69,7.69,0,0,0,2.28.35,8.66,8.66,0,0,0,7.61-5,7.19,7.19,0,0,0,3.09,2,7.26,7.26,0,0,0,2.12.32,8.05,8.05,0,0,0,7.49-5.79l0-.1s0-.08,0-.12a6.76,6.76,0,0,0,.26-1.31s0-.07,0-.1,0-.12,0-.18a1,1,0,0,1,0-.17c0-.13,0-.26,0-.39v-.48a23.59,23.59,0,0,0-1.41-6.73l-.06-.19a.69.69,0,0,1,0-.1,4.77,4.77,0,0,0-.22-.52,11.6,11.6,0,0,0,1.68-1.89,11.09,11.09,0,0,0,6.16-3.43,11.31,11.31,0,0,0,2-3.07,8.37,8.37,0,0,0,2.83-3.26A8.19,8.19,0,0,0,65.55,18.19Z"/><g id="rain_2"><path class="cls-4" d="M17.19,15.15a14.27,14.27,0,0,1,1.74,0,7.42,7.42,0,0,1,6.58-4.3,6.52,6.52,0,0,1,1,0A6.68,6.68,0,0,1,39.59,9.85a7.22,7.22,0,0,1,1.68-.3,6.7,6.7,0,0,1,6.92,5.74A6.69,6.69,0,1,1,52,27.67a8.11,8.11,0,0,1-1,0A6.68,6.68,0,0,1,45,32.22a6.61,6.61,0,0,1-2.67-.43A11.5,11.5,0,0,1,34.47,35c-4.39.19-8.19-1.66-9.51-4.36a6.68,6.68,0,0,1-10.31-2.38c-3.45-.8-6.11-2-6.11-6C8.54,18.54,12.25,15.37,17.19,15.15Z"/><path class="cls-5" d="M17.19,14.63a14.27,14.27,0,0,1,1.74,0,7.42,7.42,0,0,1,6.58-4.3,8.14,8.14,0,0,1,1,0A6.68,6.68,0,0,1,39.59,9.33,7.22,7.22,0,0,1,41.27,9a6.7,6.7,0,0,1,6.92,5.74A6.69,6.69,0,1,1,52,27.15a8.11,8.11,0,0,1-1,0A6.68,6.68,0,0,1,45,31.7a6.44,6.44,0,0,1-2.67-.43,11.5,11.5,0,0,1-7.82,3.2c-4.39.19-8.19-1.66-9.51-4.36a6.68,6.68,0,0,1-10.31-2.38c-3.45-.8-6.11-2-6.11-6C8.54,18,12.25,14.85,17.19,14.63Z"/><path class="cls-6" d="M33.48,20a123.5,123.5,0,0,1,24.68,2.29,6.34,6.34,0,0,0,.24-2.09,6.7,6.7,0,0,0-10.21-5.4A6.7,6.7,0,0,0,41.27,9a7.22,7.22,0,0,0-1.68.3A6.68,6.68,0,0,0,26.5,10.4a8.14,8.14,0,0,0-1,0,7.42,7.42,0,0,0-6.58,4.3,14.27,14.27,0,0,0-1.74,0c-4.94.22-8.65,3.39-8.65,7.08,0,.21,0,.41,0,.6A122.93,122.93,0,0,1,33.48,20Z"/><path class="cls-7" d="M49,23.8A3.85,3.85,0,0,0,54.15,22a4.31,4.31,0,0,0,.29-.83,3.81,3.81,0,0,0,1.17.87A3.85,3.85,0,0,0,59,15.1a2.69,2.69,0,0,0-.51-.2,4.61,4.61,0,0,0,1-1.32A4.45,4.45,0,0,0,52.89,8a3.51,3.51,0,0,0-1-.69,3.85,3.85,0,0,0-4.56,6,3.9,3.9,0,0,0-2.71,2.1,3.86,3.86,0,0,0,1.8,5.15l.42.17A3.85,3.85,0,0,0,49,23.8Z"/><path class="cls-8" d="M49,23.27a3.85,3.85,0,0,0,5.14-1.8,4.31,4.31,0,0,0,.29-.83,3.81,3.81,0,0,0,1.17.87A3.85,3.85,0,0,0,59,14.57a3.59,3.59,0,0,0-.51-.2,4.61,4.61,0,0,0,1-1.32,4.45,4.45,0,0,0-6.53-5.61,3.51,3.51,0,0,0-1-.69,3.85,3.85,0,0,0-4.56,6A3.84,3.84,0,0,0,46.43,20a3.69,3.69,0,0,0,.42.17A3.84,3.84,0,0,0,49,23.27Z"/><path class="cls-9" d="M52.69,15a65.76,65.76,0,0,1,7.41.4A3.83,3.83,0,0,0,59,14.57a3.59,3.59,0,0,0-.51-.2,4.61,4.61,0,0,0,1-1.32,4.45,4.45,0,0,0-6.53-5.61,3.51,3.51,0,0,0-1-.69,3.85,3.85,0,0,0-4.56,6,3.86,3.86,0,0,0-2.71,2.09,4.27,4.27,0,0,0-.24.65A64.31,64.31,0,0,1,52.69,15Z"/><path class="cls-10" d="M31.36,25.79a5,5,0,0,0-7.26-3.7,6.26,6.26,0,0,0-12.28-.46,6.39,6.39,0,0,0-1.58-.2,5.13,5.13,0,0,0-5.32,5.83C6.42,35.71,32.27,35.48,31.36,25.79Z"/><path class="cls-11" d="M31.36,25.19A5,5,0,0,0,24.1,21.5,6.25,6.25,0,0,0,11.82,21a6.4,6.4,0,0,0-1.58-.21,5.14,5.14,0,0,0-5.32,5.83C6.42,35.11,32.27,34.89,31.36,25.19Z"/><path class="cls-12" d="M18,25.06A91.56,91.56,0,0,1,31.37,26a6.8,6.8,0,0,0,0-.78A5,5,0,0,0,24.1,21.5,6.25,6.25,0,0,0,11.82,21a6.4,6.4,0,0,0-1.58-.21A5.19,5.19,0,0,0,4.86,26,91.3,91.3,0,0,1,18,25.06Z"/><path class="cls-13" d="M23.67,42.89a3.42,3.42,0,0,1-4.07,2.55A3.41,3.41,0,0,1,17.69,41c.59-1.92,4.83-5,4.83-5S24.27,41,23.67,42.89Z"/><path class="cls-14" d="M23.74,42.67a3.41,3.41,0,0,1-4.07,2.54,3.41,3.41,0,0,1-1.91-4.4c.59-1.92,4.83-5,4.83-5S24.34,40.75,23.74,42.67Z"/><path class="cls-15" d="M21,41a16.8,16.8,0,0,1,2.85,1.17c.21-2.17-1.25-6.34-1.25-6.34S19,38.4,18,40.31A16.62,16.62,0,0,1,21,41Z"/><path class="cls-13" d="M49.2,42.89a3.42,3.42,0,0,1-4.07,2.55A3.41,3.41,0,0,1,43.22,41c.59-1.92,4.83-5,4.83-5S49.8,41,49.2,42.89Z"/><path class="cls-14" d="M49.27,42.67a3.41,3.41,0,0,1-4.07,2.54,3.41,3.41,0,0,1-1.91-4.4c.59-1.92,4.83-5,4.83-5S49.87,40.75,49.27,42.67Z"/><path class="cls-15" d="M46.52,41a16.46,16.46,0,0,1,2.85,1.17c.22-2.17-1.25-6.34-1.25-6.34s-3.56,2.61-4.6,4.52A16.7,16.7,0,0,1,46.52,41Z"/><path class="cls-13" d="M37,45.07c-.72,2.3-2.9,3.67-4.88,3.06s-3-3-2.29-5.28,5.79-6,5.79-6S37.74,42.78,37,45.07Z"/><path class="cls-14" d="M37.11,44.8c-.71,2.3-2.9,3.67-4.87,3.06A4.09,4.09,0,0,1,30,42.58c.71-2.3,5.79-6,5.79-6S37.82,42.5,37.11,44.8Z"/><path class="cls-15" d="M33.82,42.76a19.91,19.91,0,0,1,3.41,1.4c.26-2.6-1.49-7.59-1.49-7.59S31.47,39.69,30.21,42A20.2,20.2,0,0,1,33.82,42.76Z"/></g></g></g></g></g></svg>