<svg xmlns="http://www.w3.org/2000/svg" xmlns:xlink="http://www.w3.org/1999/xlink" viewBox="0 0 54.21 58.52"><defs><style>.cls-1{isolation:isolate;}.cls-2{fill:#fff;}.cls-3{fill:url(#linear-gradient);}.cls-4{fill:#1a485e;}.cls-5{fill:#276c8d;}.cls-6{fill:#9aaaab;opacity:0.1;mix-blend-mode:screen;}</style><linearGradient id="linear-gradient" x1="3.25" y1="47.91" x2="41.85" y2="9.32" gradientUnits="userSpaceOnUse"><stop offset="0" stop-color="#e6e6e6"/><stop offset="1" stop-color="#fafafa"/></linearGradient></defs><g class="cls-1"><g id="Layer_2" data-name="Layer 2"><g id="icons"><g id="tornado"><path class="cls-2" d="M53.78,22.53a7.09,7.09,0,0,0-3-5.64A6.86,6.86,0,0,0,52.92,12c0-.11,0-.21,0-.32a3,3,0,0,0,0-.31C52.92,3.29,39.3.42,27.63.42S2.35,3.29,2.35,11.37c0,.11,0,.21,0,.31s0,.21,0,.32,0,.24,0,.36A6.74,6.74,0,0,0,0,17.46c0,.11,0,.21,0,.32S0,18,0,18.1c0,2.83,1.67,5,4.35,6.56a6.75,6.75,0,0,0,1.36,2.73,6.71,6.71,0,0,0-.18,1.51c0,.1,0,.21,0,.31s0,.21,0,.32c0,3.62,2.82,6.06,7,7.59a6.36,6.36,0,0,0,1.63,2.64c0,.14,0,.28,0,.43s0,.21,0,.32,0,.2,0,.31,0,.22,0,.32A5.31,5.31,0,0,0,13.3,44c0,.11,0,.21,0,.31s0,.21,0,.32c0,2.91,2.09,5,5.8,6.15l.19.24a5.64,5.64,0,0,0,1.81,3.54c.95,2.41,3.73,4,7.41,4,3,0,5.46-1.07,6.75-2.8A6.18,6.18,0,0,0,38.67,51a5.83,5.83,0,0,0,1.39-3.78c0-.1,0-.21,0-.31s0-.21,0-.32a1.1,1.1,0,0,0,0-.18,6.85,6.85,0,0,0,3.59-3.89c3.9-1.4,6.61-3.7,6.61-7.18a3,3,0,0,0,0-.31c0-.11,0-.21,0-.32a6,6,0,0,0-1.83-4.35c3.26-1.68,5.37-4,5.37-7.2,0-.1,0-.21,0-.31S53.78,22.64,53.78,22.53Z"/><path class="cls-3" d="M54.21,22.11a7.15,7.15,0,0,0-3-5.65,6.84,6.84,0,0,0,2.09-4.88c0-.11,0-.21,0-.32s0-.21,0-.32C53.35,2.87,39.72,0,28.06,0S2.77,2.87,2.77,10.94c0,.11,0,.21,0,.32s0,.21,0,.32,0,.24,0,.36A6.76,6.76,0,0,0,.42,17c0,.11,0,.21,0,.32s0,.2,0,.31c0,2.83,1.68,5,4.36,6.56A6.73,6.73,0,0,0,6.14,27,6,6,0,0,0,6,28.47c0,.11,0,.21,0,.32s0,.2,0,.31c0,3.63,2.82,6.07,6.94,7.6a6.35,6.35,0,0,0,1.64,2.63c0,.15,0,.29,0,.43s0,.21,0,.32,0,.21,0,.32,0,.21,0,.32a5.27,5.27,0,0,0-.8,2.83c0,.11,0,.21,0,.32s0,.21,0,.31c0,2.91,2.09,5,5.8,6.16l.19.24a5.72,5.72,0,0,0,1.8,3.54c.95,2.41,3.73,4,7.41,4,3,0,5.46-1.07,6.75-2.81a6.14,6.14,0,0,0,3.41-4.71,5.85,5.85,0,0,0,1.39-3.78c0-.11,0-.21,0-.32s0-.21,0-.31,0-.12,0-.18a6.86,6.86,0,0,0,3.58-3.89c3.91-1.4,6.61-3.71,6.61-7.18,0-.11,0-.21,0-.32s0-.21,0-.31a6.06,6.06,0,0,0-1.82-4.35c3.25-1.69,5.37-4,5.37-7.2,0-.11,0-.21,0-.32S54.21,22.21,54.21,22.11Z"/><g id="tornado-2" data-name="tornado"><path class="cls-4" d="M32.28,52.2c0,.81-1.5,1.47-3.35,1.47S25.59,53,25.59,52.2s1.49-1.47,3.34-1.47S32.28,51.39,32.28,52.2Z"/><path class="cls-5" d="M32.28,51.88c0,.81-1.5,1.47-3.35,1.47s-3.34-.66-3.34-1.47,1.49-1.47,3.34-1.47S32.28,51.07,32.28,51.88Z"/><path class="cls-4" d="M34.7,50c0,1.29-2.37,2.33-5.29,2.33s-5.3-1-5.3-2.33,2.37-2.32,5.3-2.32S34.7,48.69,34.7,50Z"/><path class="cls-5" d="M34.7,49.47c0,1.28-2.37,2.33-5.29,2.33s-5.3-1-5.3-2.33,2.37-2.33,5.3-2.33S34.7,48.18,34.7,49.47Z"/><path class="cls-4" d="M36.06,46.8c0,1.61-3,2.92-6.65,2.92s-6.65-1.31-6.65-2.92,3-2.92,6.65-2.92S36.06,45.19,36.06,46.8Z"/><path class="cls-5" d="M36.06,46.17c0,1.61-3,2.92-6.65,2.92s-6.65-1.31-6.65-2.92,3-2.92,6.65-2.92S36.06,44.55,36.06,46.17Z"/><path class="cls-4" d="M34.89,44.18c0,1.45-3.75,2.62-8.37,2.62s-8.37-1.17-8.37-2.62,3.75-2.61,8.37-2.61S34.89,42.74,34.89,44.18Z"/><path class="cls-5" d="M34.89,43.55c0,1.45-3.75,2.62-8.37,2.62S18.15,45,18.15,43.55s3.75-2.61,8.37-2.61S34.89,42.11,34.89,43.55Z"/><path class="cls-4" d="M39.88,40.4c0,1.8-4.69,3.27-10.47,3.27S18.93,42.2,18.93,40.4s4.69-3.28,10.48-3.28S39.88,38.59,39.88,40.4Z"/><path class="cls-5" d="M39.88,39.76c0,1.81-4.69,3.28-10.47,3.28s-10.48-1.47-10.48-3.28,4.69-3.27,10.48-3.27S39.88,38,39.88,39.76Z"/><path class="cls-4" d="M46.24,34.92c0,2.51-6.53,4.55-14.59,4.55s-14.58-2-14.58-4.55,6.53-4.56,14.58-4.56S46.24,32.4,46.24,34.92Z"/><path class="cls-5" d="M46.24,34.29c0,2.51-6.53,4.55-14.59,4.55s-14.58-2-14.58-4.55,6.53-4.56,14.58-4.56S46.24,31.77,46.24,34.29Z"/><path class="cls-4" d="M44.28,29.1c0,2.93-7.59,5.3-17,5.3S10.38,32,10.38,29.1,18,23.81,27.33,23.81,44.28,26.18,44.28,29.1Z"/><path class="cls-5" d="M44.28,28.47c0,2.93-7.59,5.29-17,5.29S10.38,31.4,10.38,28.47s7.59-5.3,16.95-5.3S44.28,25.55,44.28,28.47Z"/><path class="cls-4" d="M49.78,22.74c0,3.51-9.12,6.36-20.37,6.36S9,26.25,9,22.74s9.11-6.37,20.37-6.37S49.78,19.22,49.78,22.74Z"/><path class="cls-5" d="M49.78,22.11c0,3.51-9.12,6.36-20.37,6.36S9,25.62,9,22.11s9.11-6.37,20.37-6.37S49.78,18.59,49.78,22.11Z"/><path class="cls-4" d="M42.16,17.67c0,3.22-8.35,5.83-18.65,5.83S4.85,20.89,4.85,17.67s8.35-5.83,18.66-5.83S42.16,14.45,42.16,17.67Z"/><ellipse class="cls-5" cx="23.51" cy="17.04" rx="18.65" ry="5.83"/><path class="cls-4" d="M48.92,11.58c0,3.6-9.34,6.51-20.86,6.51S7.2,15.18,7.2,11.58s9.34-6.52,20.86-6.52S48.92,8,48.92,11.58Z"/><path class="cls-5" d="M48.92,10.94c0,3.6-9.34,6.52-20.86,6.52S7.2,14.54,7.2,10.94s9.34-6.52,20.86-6.52S48.92,7.34,48.92,10.94Z"/><path class="cls-6" d="M9.16,21.4a2.16,2.16,0,0,0-.12.71,1.62,1.62,0,0,0,0,.31,1.72,1.72,0,0,0,0,.32c0,1.24,1.14,2.4,3.11,3.38-1.13.71-1.77,1.51-1.77,2.35a1.73,1.73,0,0,0,0,.32,1.63,1.63,0,0,0,0,.31c0,.85.64,1.65,1.78,2.36A105.88,105.88,0,0,1,29.41,30.1a109.48,109.48,0,0,1,13.8.85,2.54,2.54,0,0,0,1.07-1.85,1.65,1.65,0,0,0,0-.31,1.75,1.75,0,0,0,0-.32,2,2,0,0,0-.47-1.23c3.69-1.15,6-2.74,6-4.5a1.73,1.73,0,0,0,0-.32,1.63,1.63,0,0,0,0-.31c0-2-3-3.8-7.63-5,0,0,0-.06,0-.1a2,2,0,0,0-.11-.63c4.22-1.19,6.87-2.92,6.87-4.83a1.73,1.73,0,0,0,0-.32,1.66,1.66,0,0,0,0-.32c0-3.6-9.34-6.52-20.86-6.52S7.2,7.34,7.2,10.94c0,.11,0,.22,0,.32s0,.21,0,.32a2.92,2.92,0,0,0,1.1,2.09c-2.17.95-3.45,2.11-3.45,3.37a1.73,1.73,0,0,0,0,.32,1.63,1.63,0,0,0,0,.31C4.85,19.09,6.47,20.39,9.16,21.4Z"/></g></g></g></g></g></svg>