<svg xmlns="http://www.w3.org/2000/svg" xmlns:xlink="http://www.w3.org/1999/xlink" viewBox="0 0 75.22 58.69"><defs><style>.cls-1{isolation:isolate;}.cls-2{fill:url(#linear-gradient);}.cls-3{fill:#e69100;}.cls-4,.cls-5{fill:#fb0;}.cls-5,.cls-8{opacity:0.2;mix-blend-mode:screen;}.cls-6{fill:#a3bad4;}.cls-7,.cls-8{fill:#b8d9ff;}</style><linearGradient id="linear-gradient" x1="13.15" y1="55.3" x2="64.21" y2="4.24" gradientUnits="userSpaceOnUse"><stop offset="0" stop-color="#e6e6e6"/><stop offset="1" stop-color="#fafafa"/></linearGradient></defs><g class="cls-1"><g id="Layer_2" data-name="Layer 2"><g id="icons"><g id="sun_cloud"><path class="cls-2" d="M75.22,40.4c0-5.8-5.24-10.56-11.82-10.88A11.09,11.09,0,0,0,57.3,26a10.61,10.61,0,0,0-7.7-5.55l-.78-.63.87-7.92A4.44,4.44,0,0,0,44.81,7l-7.93.87-5-6.22a4.43,4.43,0,0,0-6.9,0L20,7.87,12.08,7A4.47,4.47,0,0,0,8.47,8.27,4.41,4.41,0,0,0,7.2,11.88l.86,7.92L2.13,24.57l-.26.21L1.65,25a4.43,4.43,0,0,0,0,6.89L8,37,7.2,44.61a1.09,1.09,0,0,0,0,.18l0,.16A4.42,4.42,0,0,0,12,49.83L19.86,49,25,55.32A4.43,4.43,0,0,0,28.44,57h0a4.41,4.41,0,0,0,3.43-1.64l.55-.68a10.2,10.2,0,0,0,5.81,1.84,9.19,9.19,0,0,0,1.39-.1,15.16,15.16,0,0,0,8.21,2.32,14.69,14.69,0,0,0,9.83-3.57,10.25,10.25,0,0,0,11-4.69,10.79,10.79,0,0,0,6.53-9.59V40.4Z"/><g id="sun_cloud-2" data-name="sun_cloud"><path class="cls-3" d="M28.44,14.23A14.36,14.36,0,1,0,42.8,28.59,14.36,14.36,0,0,0,28.44,14.23Z"/><path class="cls-3" d="M44.16,35.11l8.32-6.69-.22-.17-8.19-6.44,1-10.23L34.91,12.64,28.44,4.77,22,12.65,11.73,11.53,12.8,21.81,4.64,28.23l-.21.17,8.29,6.71-1.11,10,0,.35,10.2-1.1,6.67,8.19,6.66-8.21,10.19,1.13ZM35,43.94a21.79,21.79,0,0,1-6.52,1.24A21.44,21.44,0,0,1,22,43.89a20.18,20.18,0,0,1-5.27-3.57A21.15,21.15,0,0,1,12.87,35a21.07,21.07,0,0,1,0-12.89A21,21,0,0,1,22,13a21.07,21.07,0,0,1,12.89,0A21,21,0,0,1,44,22.15,20.87,20.87,0,0,1,44,35a21.15,21.15,0,0,1-3.84,5.28A19.92,19.92,0,0,1,35,43.94Z"/><path class="cls-4" d="M42.8,28.25A14.36,14.36,0,1,1,28.44,13.89,14.36,14.36,0,0,1,42.8,28.25Z"/><path class="cls-4" d="M44.16,34.76l8.1-6.51-8.1-6.51L45.29,11.4,35,12.53l-6.51-8.1-6.51,8.1L11.6,11.4l1.12,10.33-8.1,6.52,8.1,6.51L11.6,45.09,21.93,44l6.51,8.1L35,44l10.34,1.12Zm-9.27,9.06a21.07,21.07,0,0,1-12.89,0,21,21,0,0,1-9.13-9.13,21.07,21.07,0,0,1,0-12.89A20.88,20.88,0,0,1,22,12.68a20.84,20.84,0,0,1,12.88,0A20.88,20.88,0,0,1,44,21.8a20.9,20.9,0,0,1,0,12.9,21.07,21.07,0,0,1-9.12,9.12Z"/><path class="cls-5" d="M28.44,28.24A127.85,127.85,0,0,1,42.78,29c0-.26,0-.52,0-.78a14.36,14.36,0,0,0-28.72,0q0,.39,0,.78A127.54,127.54,0,0,1,28.44,28.24Z"/><path class="cls-5" d="M6.9,30.08c1.61-.29,3.28-.56,5-.78,0-.35,0-.7,0-1.05a21.18,21.18,0,0,1,1-6.45A20.88,20.88,0,0,1,22,12.68a20.84,20.84,0,0,1,12.88,0A20.88,20.88,0,0,1,44,21.8a21.14,21.14,0,0,1,1,6.45c0,.35,0,.7-.05,1.05,1.73.22,3.4.49,5,.78l2.28-1.83-8.1-6.51L45.29,11.4,35,12.53l-6.51-8.1-6.51,8.1L11.6,11.4l1.12,10.33-8.1,6.52Z"/><path class="cls-6" d="M62.69,34.37a10.09,10.09,0,0,0-1.57.12A6.7,6.7,0,0,0,55,30.61a6.54,6.54,0,0,0-.89.07,6,6,0,0,0-11.89-.48A5.55,5.55,0,0,0,40.68,30a6.24,6.24,0,0,0-6,5.84,5.75,5.75,0,0,0-3-.82,6.48,6.48,0,0,0,0,12.94,5.29,5.29,0,0,0,.9-.08A6.09,6.09,0,0,0,38.24,52a5.66,5.66,0,0,0,2.4-.53,10.05,10.05,0,0,0,7.2,2.75c4,0,7.35-1.94,8.44-4.61a5.81,5.81,0,0,0,3.62,1.29,6.07,6.07,0,0,0,5.61-4c3.09-.91,5.29-3.29,5.29-6.07C70.8,37.27,67.17,34.37,62.69,34.37Z"/><path class="cls-7" d="M62.69,33.93a10.09,10.09,0,0,0-1.57.12A6.69,6.69,0,0,0,55,30.17a6.54,6.54,0,0,0-.89.06,6,6,0,0,0-11.89-.47,5.55,5.55,0,0,0-1.53-.22,6.23,6.23,0,0,0-6,5.84,5.75,5.75,0,0,0-3-.83,6.49,6.49,0,0,0,0,13,6.55,6.55,0,0,0,.9-.08,6.09,6.09,0,0,0,5.66,4.18,5.66,5.66,0,0,0,2.4-.53,10.05,10.05,0,0,0,7.2,2.75c4,0,7.35-2,8.44-4.62a5.76,5.76,0,0,0,3.62,1.29,6.06,6.06,0,0,0,5.61-4c3.09-.92,5.29-3.29,5.29-6.07C70.8,36.82,67.17,33.93,62.69,33.93Z"/><path class="cls-8" d="M48.21,39.23A85.64,85.64,0,0,1,70.56,42a5.48,5.48,0,0,0,.24-1.57c0-3.58-3.63-6.47-8.11-6.47a10.09,10.09,0,0,0-1.57.12A6.69,6.69,0,0,0,55,30.17a6.54,6.54,0,0,0-.89.06,6,6,0,0,0-11.89-.47,5.55,5.55,0,0,0-1.53-.22,6.23,6.23,0,0,0-6,5.84,5.75,5.75,0,0,0-3-.83A6.28,6.28,0,0,0,25.62,41a6.63,6.63,0,0,0,.08,1A85.18,85.18,0,0,1,48.21,39.23Z"/></g></g></g></g></g></svg>