<svg xmlns="http://www.w3.org/2000/svg" xmlns:xlink="http://www.w3.org/1999/xlink" viewBox="0 0 51.27 53.14"><defs><style>.cls-1{isolation:isolate;}.cls-2{fill:#fff;}.cls-3{fill:url(#linear-gradient);}.cls-4{fill:#d89f00;}.cls-5,.cls-6{fill:#fb0;}.cls-6{opacity:0.2;mix-blend-mode:screen;}</style><linearGradient id="linear-gradient" x1="7.45" y1="50.13" x2="47.3" y2="10.28" gradientUnits="userSpaceOnUse"><stop offset="0" stop-color="#e6e6e6"/><stop offset="1" stop-color="#fafafa"/></linearGradient></defs><g class="cls-1"><g id="Layer_2" data-name="Layer 2"><g id="icons"><g id="moon"><path class="cls-2" d="M50.85,26.39A26.09,26.09,0,0,0,28.71.48,4.43,4.43,0,0,0,24,6.71,17.29,17.29,0,0,1,25.61,14c0,.29,0,.59,0,.88,0,0,0,.06,0,.09A17.4,17.4,0,0,1,8.23,31.37a17.67,17.67,0,0,1-2.71-.21l-.2,0-.21,0A4.43,4.43,0,0,0,.37,37.26,27,27,0,0,0,24.76,53.14a26.39,26.39,0,0,0,26.09-26c0-.12,0-.25,0-.37S50.85,26.52,50.85,26.39Z"/><path class="cls-3" d="M51.27,26A26.1,26.1,0,0,0,29.14.05a4.43,4.43,0,0,0-4.71,6.23A17.14,17.14,0,0,1,26,13.57c0,.3,0,.6,0,.89v.09A17.4,17.4,0,0,1,8.66,31a17.8,17.8,0,0,1-2.72-.21,1.36,1.36,0,0,0-.2,0l-.21,0A4.42,4.42,0,0,0,.8,36.84,27,27,0,0,0,25.18,52.71a26.38,26.38,0,0,0,26.09-26V26Z"/><g id="moon-2" data-name="moon"><path class="cls-4" d="M29,4.84A22.73,22.73,0,0,1,30.9,14.2c0,12-10.2,21.94-22.24,21.94-1,0-2.43-.88-3.41-1l-.4-.06A22.42,22.42,0,0,0,25.18,48.29,21.83,21.83,0,0,0,46.85,26.73C46.85,15.84,39.43,6.47,29,4.84Z"/><path class="cls-5" d="M28.45,4.43a21.64,21.64,0,0,1,2,9.14,21.8,21.8,0,0,1-21.8,21.8,22.53,22.53,0,0,1-3.41-.26A21.8,21.8,0,1,0,28.45,4.43Z"/><path class="cls-6" d="M24,29.07a40.33,40.33,0,0,1,5-.32A32.91,32.91,0,0,1,45.7,33,21.8,21.8,0,0,0,28.45,4.43,21.78,21.78,0,0,1,24,29.07Z"/></g></g></g></g></g></svg>