<svg xmlns="http://www.w3.org/2000/svg" xmlns:xlink="http://www.w3.org/1999/xlink" width="20px" height="20px" viewBox="0 0 237.355 237.355">
  <defs>
    <linearGradient id="linear-gradient" x1="0.164" y1="0.113" x2="0.951" y2="1.037" gradientUnits="objectBoundingBox">
      <stop offset="0.121" stop-color="#5f95fc"/>
      <stop offset="0.603" stop-color="#3d5dff"/>
    </linearGradient>
    <linearGradient id="linear-gradient-2" x1="0.226" y1="0.079" x2="0.918" y2="1.146" gradientUnits="objectBoundingBox">
      <stop offset="0.205" stop-color="#5f95fc"/>
      <stop offset="0.893" stop-color="#3d5dff"/>
    </linearGradient>
  </defs>
  <g id="Group_4" data-name="Group 4" transform="translate(-181.992 -482.796)">
    <rect id="Rectangle_1" data-name="Rectangle 1" width="237.355" height="237.355" rx="54.642" transform="translate(181.992 482.796)" fill="url(#linear-gradient)"/>
    <g id="Group_3" data-name="Group 3">
      <path id="Path_14" data-name="Path 14" d="M241.806,612.407c.01,2.1-.09,4.12-.09,5.98,0,2.71.02,5.05,0,6.75-.02,1.2,0,2.46,0,3.73-.01.86-.05,1.72,0,2.58.03.4-.04.8,0,1.21a17.656,17.656,0,0,0,.81,3.22,11.248,11.248,0,0,0,1.03,2.33,9.447,9.447,0,0,0,1.99,2.38,10.751,10.751,0,0,0,7.12,2.69h63.81l7.14,9.07,6.73,8.56h-77.69a28.743,28.743,0,0,1-17.27-5.84,29.043,29.043,0,0,1-5.89-6.03c-.31-.43-.59-.85-.87-1.29a25.981,25.981,0,0,1-1.75-3.34,29.9,29.9,0,0,1-1.59-4.91c-.11-.48-.21-.97-.3-1.45-.03-.18-.07-.36-.1-.54a2.556,2.556,0,0,1-.05-.27,47.942,47.942,0,0,1-.71-5.76v-.04c-.04-.85.02-1.71,0-2.57-.04-1.76-.02-3.52-.01-5.28,0-.91.01-1.81.01-2.71v-1.04c-.01-1.36-.03-2.86-.05-4.47-.02-1.2-.03-2.46-.04-3.76-.01-.92-.02-1.85-.03-2.81-.02-1.92-.04-3.92-.06-5.96-.11-10.55-.16-22.09.18-29.57a28.576,28.576,0,0,1,28.53-27.23h31.07l7.5,9.52,6.22,7.9.17.22,7.94,10.2H282.6l-8.19-10.2h-21.74a10.794,10.794,0,0,0-7.12,2.68c-3.2,2.8-3.75,6.68-3.83,10.64-.1,4.88.05,7.17,0,12.05-.01,1.48.04,3.46.05,5.72l62.34.06a28.719,28.719,0,0,1,6.34.63,28.244,28.244,0,0,1,15.9,9.96l43.54,55.49h-22.96l-35.49-44.57c-.19-.24-.38-.46-.59-.68a10.7,10.7,0,0,0-7.82-3.18Z" fill="#fff"/>
      <path id="Path_15" data-name="Path 15" d="M369.89,660.91H359.54l-36.7-46.78a28.268,28.268,0,0,0-15.91-9.96,29.324,29.324,0,0,0-6.34-.62H241.759v-8.79l62.351.07a28.715,28.715,0,0,1,6.34.63,28.244,28.244,0,0,1,15.9,9.96Z" opacity="0.2" fill="url(#linear-gradient-2)"/>
      <path id="Path_16" data-name="Path 16" d="M381.05,587.09a36.59,36.59,0,0,1-24.48,29.56,35.047,35.047,0,0,1-6.55,1.52l-6.23-7.78-7.65-9.55h9.02a18.6,18.6,0,0,0,10.88-3.53,18.193,18.193,0,0,0,5.61-6.67c5.86-12.06-2.89-26.94-16.49-26.94H314.19l-7.23-9.03-6.92-8.63h46.25a35.13,35.13,0,0,1,13.27,2.6C374.64,554.8,383.19,571.1,381.05,587.09Z" fill="#fff"/>
      <path id="Path_17" data-name="Path 17" d="M381.05,587.09a36.59,36.59,0,0,1-24.48,29.56,35.047,35.047,0,0,1-6.55,1.52l-6.23-7.78h.31a27.86,27.86,0,0,0,0-55.72H306.96l-6.92-8.63h46.25a35.13,35.13,0,0,1,13.27,2.6C374.64,554.8,383.19,571.1,381.05,587.09Z" opacity="0.2" fill="url(#linear-gradient-2)"/>
      <path id="Path_18" data-name="Path 18" d="M323.606,652.347h-70.12A20.483,20.483,0,0,1,233,631.867v-55.83a20.483,20.483,0,0,1,20.49-20.48h26.1l14.37,18.32h11.6l-7.94-10.2-.17-.22-6.22-7.9-7.5-9.52h-31.07a28.49,28.49,0,0,0-28.48,27.23c-.34,7.48-.32,19.02-.23,29.57.02,2.04.04,4.04.06,5.96.01.96.02,1.89.03,2.81.01,1.3.02,2.56.04,3.76.01,1.61.03,3.1.04,4.47,0,.34,0,.69.01,1.04,0,.9-.01,1.8-.01,2.71,0,1.76-.01,3.52.03,5.28.02.86.05,1.72.09,2.57v.04a49.953,49.953,0,0,0,.6,5.76,2.556,2.556,0,0,0,.05.27c.02.18.06.36.09.54.09.48.19.97.31,1.45a28.113,28.113,0,0,0,1.59,4.91,24.781,24.781,0,0,0,1.75,3.34c.27.44.56.86.86,1.29a28.361,28.361,0,0,0,5.9,6.03,28.743,28.743,0,0,0,17.27,5.84h77.68Z" opacity="0.2" fill="url(#linear-gradient-2)"/>
    </g>
  </g>
</svg>
