<?xml version="1.0" encoding="iso-8859-1"?>
<!-- Generator: Adobe Illustrator 16.0.4, SVG Export Plug-In . SVG Version: 6.00 Build 0)  -->
<!DOCTYPE svg PUBLIC "-//W3C//DTD SVG 1.1//EN" "http://www.w3.org/Graphics/SVG/1.1/DTD/svg11.dtd">
<svg version="1.1" id="Layer_1" xmlns="http://www.w3.org/2000/svg" xmlns:xlink="http://www.w3.org/1999/xlink" x="0px" y="0px"
	 width="512px" height="512px" viewBox="0 0 512 512" style="enable-background:new 0 0 512 512;" xml:space="preserve">
<rect id="background_1_" style="opacity:0;fill:#808080;" width="512" height="512"/>
<path id="inner_1_" style="fill:#FFF200;" d="M255.725,324.881c-37.958,0-68.84-30.882-68.84-68.84s30.881-68.839,68.84-68.839
	c37.958,0,68.839,30.881,68.839,68.839S293.683,324.881,255.725,324.881z"/>
<path id="sun" style="fill:#FFB200;" d="M128.363,195.126l11.058-19.152l34.855,20.125c-4.398,5.948-8.128,12.354-11.126,19.111
	L128.363,195.126z M267,115h-22v40.574c3-0.383,7.158-0.577,10.739-0.577c3.759,0,8.261,0.212,11.261,0.633V115z M196.093,174.419
	c5.982-4.368,12.412-8.059,19.18-11.011l-20.202-34.99l-19.152,11.058L196.093,174.419z M383.61,195.126l-11.058-19.152
	L337.33,196.31c4.384,5.96,8.097,12.377,11.076,19.142L383.61,195.126z M155.064,267c-0.387-4-0.583-7.198-0.583-10.8
	c0-3.736,0.21-7.2,0.626-11.2H115v22H155.064z M336.055,139.475l-19.153-11.058l-20.307,35.176
	c6.763,2.987,13.176,6.705,19.13,11.092L336.055,139.475z M316.9,383.665l19.153-11.059l-20.169-34.932
	c-5.949,4.399-12.354,8.132-19.109,11.131L316.9,383.665z M139.421,336.108l34.649-20.005c-4.38-5.965-8.087-12.385-11.062-19.148
	l-34.646,20.001L139.421,336.108z M397,267v-22h-40.659c0.415,4,0.626,7.464,0.626,11.2c0,3.602-0.196,6.8-0.583,10.8H397z
	 M372.552,336.108l11.058-19.152l-35.062-20.243c-2.955,6.768-6.646,13.196-11.016,19.177L372.552,336.108z M195.072,383.665
	l20.019-34.674c-6.766-2.968-13.188-6.671-19.159-11.046l-20.012,34.661L195.072,383.665z M267,397v-40.149
	c-3,0.42-7.504,0.632-11.261,0.632c-3.581,0-7.739-0.193-10.739-0.577V397H267z M335.66,256.041
	c0-44.077-35.859-79.936-79.936-79.936c-44.077,0-79.937,35.859-79.937,79.936c0,44.077,35.859,79.937,79.937,79.937
	C299.801,335.978,335.66,300.118,335.66,256.041z M312.563,256.041c0,31.342-25.498,56.84-56.839,56.84
	c-31.342,0-56.84-25.498-56.84-56.84c0-31.341,25.498-56.839,56.84-56.839C287.065,199.202,312.563,224.7,312.563,256.041z"/>
</svg>
