<svg width="22" height="20" viewBox="0 0 22 20" fill="none" xmlns="http://www.w3.org/2000/svg">
<g id="elements">
<path id="Rectangle 2104" d="M1 14C1 16.2109 1 17.3164 1.70187 18.0544C1.81413 18.1725 1.93785 18.2817 2.07164 18.3807C2.90809 19 4.16095 19 6.66667 19H7.33333C9.83905 19 11.0919 19 11.9284 18.3807C12.0621 18.2817 12.1859 18.1725 12.2981 18.0544C13 17.3164 13 16.2109 13 14C13 11.7891 13 10.6836 12.2981 9.94556C12.1859 9.82752 12.0621 9.71835 11.9284 9.61929C11.0919 9 9.83905 9 7.33333 9H6.66667C4.16095 9 2.90809 9 2.07164 9.61929C1.93785 9.71835 1.81413 9.82752 1.70187 9.94556C1 10.6836 1 11.7891 1 14Z" stroke="#4B2AA5" stroke-width="1.5" stroke-linecap="round" stroke-linejoin="round"/>
<path id="Rectangle 2105" d="M9 5.99999C9 3.78907 9 2.6836 9.70187 1.94556C9.81413 1.82751 9.93785 1.71834 10.0716 1.61929C10.9081 0.999993 12.1609 0.999993 14.6667 0.999993H15.3333C17.8391 0.999993 19.0919 0.999993 19.9284 1.61929C20.0621 1.71834 20.1859 1.82751 20.2981 1.94556C21 2.6836 21 3.78907 21 5.99999C21 8.21092 21 9.31639 20.2981 10.0544C20.1859 10.1725 20.0621 10.2816 19.9284 10.3807C19.1696 10.9425 18.0683 10.9946 16 10.9995" stroke="#4B2AA5" stroke-width="1.5" stroke-linecap="round" stroke-linejoin="round"/>
<path id="Vector 4524" d="M1 13L13 13" stroke="#4B2AA5" stroke-width="1.5" stroke-linecap="round"/>
<path id="Vector 4525" d="M9 5L21 5" stroke="#4B2AA5" stroke-width="1.5" stroke-linecap="round"/>
<path id="Vector" d="M1 7C1 3.68286 3.68286 1 7 1L6.14286 2.71429" stroke="#4B2AA5" stroke-width="1.5" stroke-linecap="round" stroke-linejoin="round"/>
<path id="Vector_2" d="M21 13C21 16.3171 18.3171 19 15 19L15.8571 17.2857" stroke="#4B2AA5" stroke-width="1.5" stroke-linecap="round" stroke-linejoin="round"/>
</g>
</svg>
