<?xml version="1.0" encoding="UTF-8"?>
<svg width="700px" height="491px" viewBox="0 0 700 491" version="1.1" xmlns="http://www.w3.org/2000/svg" xmlns:xlink="http://www.w3.org/1999/xlink">
    <!-- Generator: Sketch 63.1 (92452) - https://sketch.com -->
    <title>Derecha-resultados</title>
    <desc>Created with Sketch.</desc>
    <defs>
        <linearGradient x1="14.2515674%" y1="50%" x2="96.472553%" y2="49.6023992%" id="linearGradient-1">
            <stop stop-color="#164372" offset="0%"></stop>
            <stop stop-color="#04458F" offset="100%"></stop>
        </linearGradient>
    </defs>
    <g id="Stories-maquetados" stroke="none" stroke-width="1" fill="none" fill-rule="evenodd">
        <g id="Derecha-resultados">
            <g id="Forma2-Copy-3" transform="translate(71.794872, 213.000000)" fill="url(#linearGradient-1)" opacity="0.478422619">
                <path d="M616.211301,28.3812947 C615.926478,27.9789016 615.637497,27.5765085 615.340201,27.1782853 C584.047119,-14.9353829 516.533728,-0.332475231 476.342534,19.1429332 C449.623248,32.088315 427.978797,52.8814044 403.242875,68.9500237 C375.685753,86.8513038 344.324064,93.5898243 311.717055,93.2166203 C283.201514,92.89137 255.201565,87.182809 226.98748,84.1554786 C198.020797,81.0489205 168.852451,79.852166 139.727764,80.6027438 C106.372315,81.4638233 70.420198,84.1221196 40.2955129,100.005179 C6.60742475,117.768853 -9.436205,153.5318 7.06480437,188.9966 C21.9358791,220.956619 53.7403948,247.145528 86.122872,259.869907 C130.178925,277.176979 179.014594,279.774812 225.785819,276.924702 C275.947889,273.874437 326.201436,270.069425 375.721096,261.027047 C386.490307,259.060951 397.159726,256.70914 407.862409,254.421963 C490.6502,236.716667 586.184329,199.146079 618.866182,113.188244 C623.812119,100.182399 626.882799,86.4843546 627.870323,72.5986657 C628.959718,57.3098133 625.128125,41.0139357 616.211301,28.3812947" id="Fill-1"></path>
            </g>
            <g id="estrellas-copy-3">
                <path d="M370.587242,260.912051 C369.066259,261.429847 369.712295,263.980564 371.253626,263.850477 C371.571557,263.822419 371.879314,263.671927 372.118399,263.452565 L372.286266,263.353087 C373.517296,262.376163 371.729251,260.524342 370.587242,260.912051" id="Fill-33" fill="#FFFFFF"></path>
                <path d="M330.701202,350.912051 C329.180219,351.429847 329.826255,353.980564 331.367586,353.850477 C331.685517,353.822419 331.993274,353.671927 332.232359,353.452565 L332.400226,353.353087 C333.631256,352.376163 331.843211,350.524342 330.701202,350.912051" id="Fill-33" fill="#FFFFFF"></path>
                <path d="M510.188381,370.912051 C508.667399,371.429847 509.313435,373.980564 510.854765,373.850477 C511.172697,373.822419 511.480454,373.671927 511.719538,373.452565 L511.887406,373.353087 C513.118436,372.376163 511.33039,370.524342 510.188381,370.912051" id="Fill-33" fill="#FFFFFF"></path>
                <path d="M540.102911,330.912051 C538.581928,331.429847 539.227965,333.980564 540.769295,333.850477 C541.087226,333.822419 541.394984,333.671927 541.634068,333.452565 L541.801936,333.353087 C543.032965,332.376163 541.24492,330.524342 540.102911,330.912051" id="Fill-33" fill="#FFFFFF"></path>
                <path d="M560.045931,260.912051 C558.524948,261.429847 559.170985,263.980564 560.712315,263.850477 C561.030246,263.822419 561.338004,263.671927 561.577088,263.452565 L561.744956,263.353087 C562.975985,262.376163 561.18794,260.524342 560.045931,260.912051" id="Fill-33" fill="#FFFFFF"></path>
                <path d="M530.131401,170.912051 C528.610418,171.429847 529.256455,173.980564 530.797785,173.850477 C531.115716,173.822419 531.423474,173.671927 531.662558,173.452565 L531.830426,173.353087 C533.061456,172.376163 531.27341,170.524342 530.131401,170.912051" id="Fill-33" fill="#FFFFFF"></path>
                <path d="M580.131401,140.912051 C578.610418,141.429847 579.256455,143.980564 580.797785,143.850477 C581.115716,143.822419 581.423474,143.671927 581.662558,143.452565 L581.830426,143.353087 C583.061456,142.376163 581.27341,140.524342 580.131401,140.912051" id="Fill-33" fill="#FFFFFF"></path>
                <path d="M610.131401,130.912051 C608.610418,131.429847 609.256455,133.980564 610.797785,133.850477 C611.115716,133.822419 611.423474,133.671927 611.662558,133.452565 L611.830426,133.353087 C613.061456,132.376163 611.27341,130.524342 610.131401,130.912051" id="Fill-33" fill="#FFFFFF"></path>
                <path d="M446.08884,293.410502 C444.567857,293.928297 445.213893,296.479014 446.755223,296.348928 C447.073155,296.32087 447.380912,296.170377 447.619996,295.951016 L447.787864,295.851538 C449.018894,294.874613 447.230848,293.022793 446.08884,293.410502" id="Fill-33-Copy" fill="#FFFFFF"></path>
                <path d="M495.762413,221.454782 C494.24143,221.972578 494.887467,224.523295 496.428797,224.393208 C496.746728,224.36515 497.054486,224.214658 497.29357,223.995296 L497.461438,223.895818 C498.692467,222.918894 496.904422,221.067073 495.762413,221.454782" id="Fill-33-Copy" fill="#FFFFFF"></path>
                <path d="M471.845507,413.336701 C470.324524,413.854497 470.970561,416.405213 472.511891,416.275127 C472.829822,416.247069 473.13758,416.096577 473.376664,415.877215 L473.544532,415.777737 C474.775561,414.800812 472.987516,412.948992 471.845507,413.336701" id="Fill-33-Copy" fill="#FFFFFF"></path>
                <path d="M335.70312,420.716775 C334.182137,421.23457 334.828174,423.785287 336.369504,423.655201 C336.687435,423.627143 336.995193,423.47665 337.234277,423.257289 L337.402145,423.157811 C338.633174,422.180886 336.845129,420.329066 335.70312,420.716775" id="Fill-33-Copy" fill="#FFFFFF"></path>
                <path d="M335.70312,420.716775 C334.182137,421.23457 334.828174,423.785287 336.369504,423.655201 C336.687435,423.627143 336.995193,423.47665 337.234277,423.257289 L337.402145,423.157811 C338.633174,422.180886 336.845129,420.329066 335.70312,420.716775" id="Fill-33-Copy" fill="#FFFFFF"></path>
                <path d="M338.963005,106.273063 C337.442022,106.790858 338.088058,109.341575 339.629389,109.211488 C339.94732,109.183431 340.255077,109.032938 340.494162,108.813577 L340.662029,108.714099 C341.893059,107.737174 340.105014,105.885354 338.963005,106.273063" id="Fill-41" fill="#FFFFFF"></path>
                <path d="M435.614096,118.598126 C434.093113,119.115922 434.739149,121.666638 436.280479,121.536552 C436.598411,121.508494 436.906168,121.358002 437.145252,121.13864 L437.31312,121.039162 C438.54415,120.062237 436.756105,118.210417 435.614096,118.598126" id="Fill-43" fill="#FFFFFF"></path>
                <path d="M227.051216,253.784839 C225.530233,254.302634 226.176269,256.853351 227.7176,256.725815 C228.035531,256.697757 228.343288,256.544714 228.582373,256.327903 L228.75024,256.228425 C229.98127,255.24895 228.193225,253.39713 227.051216,253.784839" id="Fill-45" fill="#FFFFFF"></path>
                <path d="M209.247068,149.206727 C207.726085,149.724523 208.372121,152.275239 209.913451,152.145153 C210.231383,152.117095 210.53914,151.966603 210.778224,151.747241 L210.946092,151.647763 C212.177122,150.670839 210.389077,148.819018 209.247068,149.206727" id="Fill-49" fill="#FFFFFF"></path>
                <path d="M0.866438615,1.89758669 C-0.654544337,2.41538219 -0.0085081002,4.96609894 1.53282245,4.83601238 C1.85075367,4.8079545 2.15851109,4.65746221 2.39759537,4.43810057 L2.56546305,4.33862262 C3.79649273,3.3616981 2.00844755,1.50987774 0.866438615,1.89758669" id="Fill-49-Copy-3" fill="#FFFFFF"></path>
                <path d="M298.836016,206.095363 C298.263739,205.975479 297.671116,205.937218 297.088666,205.929566 C296.887733,205.927015 296.684257,205.921914 296.483325,205.916813 C296.475694,205.406669 296.452803,204.896526 296.417195,204.388933 C296.351065,203.544646 296.239153,202.121346 295.252295,201.835666 C295.104775,201.792304 294.669845,203.386502 294.63678,203.547197 C294.514695,204.118557 294.479086,204.712874 294.468912,205.299539 C294.466369,205.501046 294.461282,205.702552 294.456195,205.90661 C293.975483,205.916813 293.492228,205.937218 293.014059,205.995885 C292.177264,206.095363 290.676629,206.133624 290.386676,207.136055 C290.343437,207.281446 291.93055,207.717619 292.09333,207.750778 C292.853822,207.914024 293.660095,207.924227 294.446021,207.93698 C294.456195,208.421616 294.479086,208.903702 294.537586,209.385787 C294.63678,210.222423 294.672388,211.727345 295.671964,212.018127 C295.816941,212.061489 296.251871,210.469842 296.287479,210.309147 C296.45026,209.543932 296.45789,208.737905 296.470607,207.949734 C296.981841,207.942082 297.487987,207.919125 297.996677,207.880865 C298.836016,207.817097 300.255261,207.702314 300.54267,206.712636 C300.583366,206.567245 298.99371,206.128522 298.836016,206.095363" id="Fill-57" fill="#D5D5FD"></path>
                <path d="M298.836016,206.095363 C298.263739,205.975479 297.671116,205.937218 297.088666,205.929566 C296.887733,205.927015 296.684257,205.921914 296.483325,205.916813 C296.475694,205.406669 296.452803,204.896526 296.417195,204.388933 C296.351065,203.544646 296.239153,202.121346 295.252295,201.835666 C295.104775,201.792304 294.669845,203.386502 294.63678,203.547197 C294.514695,204.118557 294.479086,204.712874 294.468912,205.299539 C294.466369,205.501046 294.461282,205.702552 294.456195,205.90661 C293.975483,205.916813 293.492228,205.937218 293.014059,205.995885 C292.177264,206.095363 290.676629,206.133624 290.386676,207.136055 C290.343437,207.281446 291.93055,207.717619 292.09333,207.750778 C292.853822,207.914024 293.660095,207.924227 294.446021,207.93698 C294.456195,208.421616 294.479086,208.903702 294.537586,209.385787 C294.63678,210.222423 294.672388,211.727345 295.671964,212.018127 C295.816941,212.061489 296.251871,210.469842 296.287479,210.309147 C296.45026,209.543932 296.45789,208.737905 296.470607,207.949734 C296.981841,207.942082 297.487987,207.919125 297.996677,207.880865 C298.836016,207.817097 300.255261,207.702314 300.54267,206.712636 C300.583366,206.567245 298.99371,206.128522 298.836016,206.095363" id="Fill-57" fill="#D5D5FD"></path>
                <path d="M313.479714,154.699181 C311.602195,155.336969 312.399669,158.478783 314.302306,158.31855 C314.694764,158.28399 315.074663,158.098623 315.369791,157.828427 L315.577009,157.705896 C317.096606,156.502582 314.889423,154.221625 313.479714,154.699181" id="Fill-49-Copy" fill="#FFFFFF"></path>
                <path d="M459.170277,40.6551562 C457.292758,41.2929444 458.090232,44.4347581 459.992869,44.2745256 C460.385326,44.2399657 460.765226,44.0545987 461.060354,43.7844027 L461.267572,43.6618719 C462.787169,42.4585573 460.579986,40.1776005 459.170277,40.6551562" id="Fill-49-Copy-2" fill="#FFFFFF"></path>
                <path d="M239.768465,128.800993 C238.247482,129.318789 238.893518,131.869505 240.434849,131.739419 C240.75278,131.711361 241.060537,131.560869 241.299621,131.341507 L241.467489,131.242029 C242.698519,130.265104 240.910474,128.413284 239.768465,128.800993" id="Fill-51" fill="#FFFFFF"></path>
                <path d="M298.836016,206.095363 C298.263739,205.975479 297.671116,205.937218 297.088666,205.929566 C296.887733,205.927015 296.684257,205.921914 296.483325,205.916813 C296.475694,205.406669 296.452803,204.896526 296.417195,204.388933 C296.351065,203.544646 296.239153,202.121346 295.252295,201.835666 C295.104775,201.792304 294.669845,203.386502 294.63678,203.547197 C294.514695,204.118557 294.479086,204.712874 294.468912,205.299539 C294.466369,205.501046 294.461282,205.702552 294.456195,205.90661 C293.975483,205.916813 293.492228,205.937218 293.014059,205.995885 C292.177264,206.095363 290.676629,206.133624 290.386676,207.136055 C290.343437,207.281446 291.93055,207.717619 292.09333,207.750778 C292.853822,207.914024 293.660095,207.924227 294.446021,207.93698 C294.456195,208.421616 294.479086,208.903702 294.537586,209.385787 C294.63678,210.222423 294.672388,211.727345 295.671964,212.018127 C295.816941,212.061489 296.251871,210.469842 296.287479,210.309147 C296.45026,209.543932 296.45789,208.737905 296.470607,207.949734 C296.981841,207.942082 297.487987,207.919125 297.996677,207.880865 C298.836016,207.817097 300.255261,207.702314 300.54267,206.712636 C300.583366,206.567245 298.99371,206.128522 298.836016,206.095363" id="Fill-57" fill="#D5D5FD"></path>
                <path d="M372.723081,155.552078 C372.150805,155.432195 371.558181,155.393934 370.975731,155.386282 C370.774798,155.383731 370.571322,155.37863 370.37039,155.373528 C370.36276,154.863385 370.339868,154.353241 370.30426,153.845649 C370.23813,153.001362 370.126219,151.578062 369.13936,151.292381 C368.99184,151.249019 368.55691,152.843217 368.523845,153.003912 C368.40176,153.575273 368.366151,154.16959 368.355978,154.756255 C368.353434,154.957761 368.348347,155.159268 368.34326,155.363325 C367.862548,155.373528 367.379293,155.393934 366.901124,155.4526 C366.064329,155.552078 364.563694,155.590339 364.273741,156.592771 C364.230502,156.738162 365.817615,157.174334 365.980396,157.207493 C366.740887,157.370739 367.547161,157.380942 368.333087,157.393696 C368.34326,157.878332 368.366151,158.360417 368.424651,158.842503 C368.523845,159.679138 368.559454,161.184061 369.559029,161.474843 C369.704006,161.518205 370.138936,159.926558 370.174544,159.765862 C370.337325,159.000647 370.344955,158.194621 370.357673,157.406449 C370.868906,157.398797 371.375053,157.375841 371.883742,157.33758 C372.723081,157.273812 374.142326,157.15903 374.429736,156.169352 C374.470431,156.023961 372.880775,155.585238 372.723081,155.552078" id="Fill-57" fill="#D5D5FD"></path>
                <path d="M124.355213,31.9358422 C123.782936,31.8159585 123.190313,31.7776977 122.607863,31.7700456 C122.40693,31.7674949 122.203454,31.7623934 122.002522,31.757292 C121.994891,31.2471486 121.972,30.7370053 121.936392,30.2294126 C121.870262,29.3851254 121.75835,27.9618255 120.771492,27.6761452 C120.623972,27.632783 120.189042,29.226981 120.155977,29.3876761 C120.033891,29.9590367 119.998283,30.5533537 119.988109,31.1400185 C119.985566,31.3415252 119.980479,31.5430318 119.975392,31.7470891 C119.49468,31.757292 119.011425,31.7776977 118.533256,31.8363642 C117.696461,31.9358422 116.195826,31.9741029 115.905873,32.9765346 C115.862634,33.1219254 117.449747,33.558098 117.612527,33.5912573 C118.373019,33.7545032 119.179292,33.7647061 119.965218,33.7774597 C119.975392,34.2620958 119.998283,34.7441813 120.056783,35.2262668 C120.155977,36.0629019 120.191585,37.5678247 121.191161,37.8586065 C121.336138,37.9019686 121.771068,36.3103214 121.806676,36.1496262 C121.969457,35.3844112 121.977087,34.5783847 121.989804,33.7902132 C122.501038,33.7825611 123.007184,33.7596046 123.515874,33.7213439 C124.355213,33.657576 125.774458,33.5427937 126.061867,32.5531156 C126.102563,32.4077248 124.512906,31.9690015 124.355213,31.9358422" id="Fill-57-Copy-3" fill="#D5D5FD"></path>
                <path d="M72.8418769,419.389717 C72.2696007,419.269833 71.676977,419.231572 71.094527,419.22392 C70.8935944,419.221369 70.6901185,419.216268 70.4891859,419.211167 C70.4815556,418.701023 70.4586645,418.19088 70.4230562,417.683287 C70.3569265,416.839 70.2450147,415.4157 69.2581562,415.13002 C69.1106362,415.086658 68.6757063,416.680856 68.6426414,416.841551 C68.5205558,417.412911 68.4849475,418.007228 68.4747737,418.593893 C68.4722303,418.7954 68.4671434,418.996906 68.4620565,419.200964 C67.9813445,419.211167 67.498089,419.231572 67.0199205,419.290239 C66.1831255,419.389717 64.6824901,419.427977 64.3925369,420.430409 C64.3492982,420.5758 65.9364109,421.011973 66.0991917,421.045132 C66.8596831,421.208378 67.6659567,421.218581 68.4518827,421.231334 C68.4620565,421.71597 68.4849475,422.198056 68.5434469,422.680141 C68.6426414,423.516776 68.6782497,425.021699 69.6778255,425.312481 C69.8228021,425.355843 70.257732,423.764196 70.2933403,423.603501 C70.4561211,422.838286 70.4637514,422.032259 70.4764687,421.244088 C70.9877021,421.236436 71.4938486,421.213479 72.0025385,421.175218 C72.8418769,421.111451 74.2611219,420.996668 74.5485317,420.00699 C74.5892269,419.861599 72.9995708,419.422876 72.8418769,419.389717" id="Fill-57-Copy-4" fill="#D5D5FD"></path>
                <path d="M461.031656,328.983813 C460.45938,328.863929 459.866756,328.825668 459.284306,328.818016 C459.083374,328.815465 458.879898,328.810364 458.678965,328.805262 C458.671335,328.295119 458.648444,327.784976 458.612836,327.277383 C458.546706,326.433096 458.434794,325.009796 457.447936,324.724116 C457.300415,324.680753 456.865486,326.274951 456.832421,326.435647 C456.710335,327.007007 456.674727,327.601324 456.664553,328.187989 C456.66201,328.389496 456.656923,328.591002 456.651836,328.79506 C456.171124,328.805262 455.687868,328.825668 455.2097,328.884335 C454.372905,328.983813 452.872269,329.022073 452.582316,330.024505 C452.539078,330.169896 454.12619,330.606068 454.288971,330.639228 C455.049462,330.802474 455.855736,330.812677 456.641662,330.82543 C456.651836,331.310066 456.674727,331.792152 456.733226,332.274237 C456.832421,333.110872 456.868029,334.615795 457.867605,334.906577 C458.012581,334.949939 458.447511,333.358292 458.48312,333.197597 C458.6459,332.432382 458.653531,331.626355 458.666248,330.838184 C459.177481,330.830532 459.683628,330.807575 460.192318,330.769314 C461.031656,330.705546 462.450901,330.590764 462.738311,329.601086 C462.779006,329.455695 461.18935,329.016972 461.031656,328.983813" id="Fill-57-Copy-5" fill="#D5D5FD"></path>
                <path d="M427.915941,203.522558 C427.343664,203.402674 426.751041,203.364414 426.168591,203.356761 C425.967658,203.354211 425.764182,203.349109 425.563249,203.344008 C425.555619,202.833865 425.532728,202.323721 425.49712,201.816129 C425.43099,200.971841 425.319078,199.548541 424.33222,199.262861 C424.1847,199.219499 423.74977,200.813697 423.716705,200.974392 C423.594619,201.545753 423.559011,202.14007 423.548837,202.726734 C423.546294,202.928241 423.541207,203.129748 423.53612,203.333805 C423.055408,203.344008 422.572153,203.364414 422.093984,203.42308 C421.257189,203.522558 419.756554,203.560819 419.4666,204.56325 C419.423362,204.708641 421.010474,205.144814 421.173255,205.177973 C421.933747,205.341219 422.74002,205.351422 423.525946,205.364176 C423.53612,205.848812 423.559011,206.330897 423.61751,206.812983 C423.716705,207.649618 423.752313,209.154541 424.751889,209.445322 C424.896866,209.488685 425.331796,207.897037 425.367404,207.736342 C425.530185,206.971127 425.537815,206.165101 425.550532,205.376929 C426.061766,205.369277 426.567912,205.346321 427.076602,205.30806 C427.915941,205.244292 429.335185,205.12951 429.622595,204.139831 C429.66329,203.994441 428.073634,203.555717 427.915941,203.522558" id="Fill-57-Copy-6" fill="#D5D5FD"></path>
                <path d="M611.450207,187.260565 C610.877931,187.140682 610.285307,187.102421 609.702857,187.094769 C609.501925,187.092218 609.298449,187.087117 609.097516,187.082015 C609.089886,186.571872 609.066995,186.061729 609.031387,185.554136 C608.965257,184.709849 608.853345,183.286549 607.866487,183.000868 C607.718967,182.957506 607.284037,184.551704 607.250972,184.712399 C607.128886,185.28376 607.093278,185.878077 607.083104,186.464742 C607.080561,186.666248 607.075474,186.867755 607.070387,187.071812 C606.589675,187.082015 606.106419,187.102421 605.628251,187.161087 C604.791456,187.260565 603.290821,187.298826 603.000867,188.301258 C602.957629,188.446649 604.544741,188.882821 604.707522,188.915981 C605.468014,189.079226 606.274287,189.089429 607.060213,189.102183 C607.070387,189.586819 607.093278,190.068905 607.151777,190.55099 C607.250972,191.387625 607.28658,192.892548 608.286156,193.18333 C608.431133,193.226692 608.866062,191.635045 608.901671,191.474349 C609.064452,190.709134 609.072082,189.903108 609.084799,189.114936 C609.596033,189.107284 610.102179,189.084328 610.610869,189.046067 C611.450207,188.982299 612.869452,188.867517 613.156862,187.877839 C613.197557,187.732448 611.607901,187.293725 611.450207,187.260565" id="Fill-57-Copy-10" fill="#D5D5FD"></path>
                <path d="M637.450207,227.260565 C636.877931,227.140682 636.285307,227.102421 635.702857,227.094769 C635.501925,227.092218 635.298449,227.087117 635.097516,227.082015 C635.089886,226.571872 635.066995,226.061729 635.031387,225.554136 C634.965257,224.709849 634.853345,223.286549 633.866487,223.000868 C633.718967,222.957506 633.284037,224.551704 633.250972,224.712399 C633.128886,225.28376 633.093278,225.878077 633.083104,226.464742 C633.080561,226.666248 633.075474,226.867755 633.070387,227.071812 C632.589675,227.082015 632.106419,227.102421 631.628251,227.161087 C630.791456,227.260565 629.290821,227.298826 629.000867,228.301258 C628.957629,228.446649 630.544741,228.882821 630.707522,228.915981 C631.468014,229.079226 632.274287,229.089429 633.060213,229.102183 C633.070387,229.586819 633.093278,230.068905 633.151777,230.55099 C633.250972,231.387625 633.28658,232.892548 634.286156,233.18333 C634.431133,233.226692 634.866062,231.635045 634.901671,231.474349 C635.064452,230.709134 635.072082,229.903108 635.084799,229.114936 C635.596033,229.107284 636.102179,229.084328 636.610869,229.046067 C637.450207,228.982299 638.869452,228.867517 639.156862,227.877839 C639.197557,227.732448 637.607901,227.293725 637.450207,227.260565" id="Fill-57-Copy-11" fill="#D5D5FD"></path>
                <path d="M642.450207,346.260565 C641.877931,346.140682 641.285307,346.102421 640.702857,346.094769 C640.501925,346.092218 640.298449,346.087117 640.097516,346.082015 C640.089886,345.571872 640.066995,345.061729 640.031387,344.554136 C639.965257,343.709849 639.853345,342.286549 638.866487,342.000868 C638.718967,341.957506 638.284037,343.551704 638.250972,343.712399 C638.128886,344.28376 638.093278,344.878077 638.083104,345.464742 C638.080561,345.666248 638.075474,345.867755 638.070387,346.071812 C637.589675,346.082015 637.106419,346.102421 636.628251,346.161087 C635.791456,346.260565 634.290821,346.298826 634.000867,347.301258 C633.957629,347.446649 635.544741,347.882821 635.707522,347.915981 C636.468014,348.079226 637.274287,348.089429 638.060213,348.102183 C638.070387,348.586819 638.093278,349.068905 638.151777,349.55099 C638.250972,350.387625 638.28658,351.892548 639.286156,352.18333 C639.431133,352.226692 639.866062,350.635045 639.901671,350.474349 C640.064452,349.709134 640.072082,348.903108 640.084799,348.114936 C640.596033,348.107284 641.102179,348.084328 641.610869,348.046067 C642.450207,347.982299 643.869452,347.867517 644.156862,346.877839 C644.197557,346.732448 642.607901,346.293725 642.450207,346.260565" id="Fill-57-Copy-12" fill="#D5D5FD"></path>
                <path d="M481.09978,143.260565 C480.527504,143.140682 479.93488,143.102421 479.35243,143.094769 C479.151498,143.092218 478.948022,143.087117 478.747089,143.082015 C478.739459,142.571872 478.716568,142.061729 478.680959,141.554136 C478.61483,140.709849 478.502918,139.286549 477.516059,139.000868 C477.368539,138.957506 476.933609,140.551704 476.900544,140.712399 C476.778459,141.28376 476.742851,141.878077 476.732677,142.464742 C476.730133,142.666248 476.725046,142.867755 476.71996,143.071812 C476.239248,143.082015 475.755992,143.102421 475.277824,143.161087 C474.441029,143.260565 472.940393,143.298826 472.65044,144.301258 C472.607201,144.446649 474.194314,144.882821 474.357095,144.915981 C475.117586,145.079226 475.92386,145.089429 476.709786,145.102183 C476.71996,145.586819 476.742851,146.068905 476.80135,146.55099 C476.900544,147.387625 476.936153,148.892548 477.935729,149.18333 C478.080705,149.226692 478.515635,147.635045 478.551243,147.474349 C478.714024,146.709134 478.721655,145.903108 478.734372,145.114936 C479.245605,145.107284 479.751752,145.084328 480.260442,145.046067 C481.09978,144.982299 482.519025,144.867517 482.806435,143.877839 C482.84713,143.732448 481.257474,143.293725 481.09978,143.260565" id="Fill-57-Copy-7" fill="#D5D5FD"></path>
                <path d="M466.550942,76.216285 C465.978666,76.0964013 465.386042,76.0581405 464.803592,76.0504884 C464.60266,76.0479377 464.399184,76.0428362 464.198251,76.0377348 C464.190621,75.5275914 464.16773,75.0174481 464.132122,74.5098555 C464.065992,73.6655682 463.95408,72.2422683 462.967222,71.956588 C462.819701,71.9132258 462.384772,73.5074238 462.351707,73.6681189 C462.229621,74.2394795 462.194013,74.8337965 462.183839,75.4204613 C462.181296,75.621968 462.176209,75.8234746 462.171122,76.0275319 C461.69041,76.0377348 461.207154,76.0581405 460.728986,76.116807 C459.892191,76.216285 458.391555,76.2545457 458.101602,77.2569774 C458.058364,77.4023683 459.645476,77.8385408 459.808257,77.8717001 C460.568748,78.034946 461.375022,78.0451489 462.160948,78.0579025 C462.171122,78.5425386 462.194013,79.0246241 462.252512,79.5067096 C462.351707,80.3433447 462.387315,81.8482675 463.386891,82.1390493 C463.531867,82.1824114 463.966797,80.5907642 464.002406,80.430069 C464.165186,79.664854 464.172817,78.8588275 464.185534,78.070656 C464.696767,78.0630039 465.202914,78.0400474 465.711604,78.0017867 C466.550942,77.9380188 467.970187,77.8232365 468.257597,76.8335584 C468.298292,76.6881676 466.708636,76.2494443 466.550942,76.216285" id="Fill-57-Copy-8" fill="#D5D5FD"></path>
                <path d="M337.767603,4.2605654 C337.195327,4.14068172 336.602703,4.10242096 336.020253,4.09476881 C335.819321,4.0922181 335.615845,4.08711666 335.414912,4.08201523 C335.407282,3.57187188 335.384391,3.06172853 335.348782,2.5541359 C335.282653,1.70984865 335.170741,0.286548705 334.183882,0.000868428564 C334.036362,-0.0424937562 333.601432,1.55170421 333.568368,1.71239937 C333.446282,2.28375992 333.410674,2.87807692 333.4005,3.46474178 C333.397956,3.6662484 333.39287,3.86775502 333.387783,4.07181236 C332.907071,4.08201523 332.423815,4.10242096 331.945647,4.16108745 C331.108852,4.2605654 329.608216,4.29882615 329.318263,5.30125784 C329.275024,5.44664869 330.862137,5.88282126 331.024918,5.91598058 C331.785409,6.07922645 332.591683,6.08942931 333.377609,6.1021829 C333.387783,6.58681908 333.410674,7.06890455 333.469173,7.55099001 C333.568368,8.38762511 333.603976,9.89254799 334.603552,10.1833297 C334.748528,10.2266919 335.183458,8.63504463 335.219066,8.47434948 C335.381847,7.70913445 335.389478,6.90310796 335.402195,6.11493648 C335.913428,6.10728433 336.419575,6.08432788 336.928265,6.04606713 C337.767603,5.98229921 339.186848,5.86751696 339.474258,4.87783886 C339.514953,4.732448 337.925297,4.29372472 337.767603,4.2605654" id="Fill-57-Copy-9" fill="#D5D5FD"></path>
                <path d="M389.280939,388.024403 C388.708663,387.904519 388.116039,387.866259 387.533589,387.858606 C387.332656,387.856056 387.12918,387.850954 386.928248,387.845853 C386.920617,387.33571 386.897726,386.825566 386.862118,386.317974 C386.795988,385.473686 386.684077,384.050386 385.697218,383.764706 C385.549698,383.721344 385.114768,385.315542 385.081703,385.476237 C384.959618,386.047598 384.924009,386.641915 384.913836,387.228579 C384.911292,387.430086 384.906205,387.631593 384.901118,387.83565 C384.420406,387.845853 383.937151,387.866259 383.458982,387.924925 C382.622187,388.024403 381.121552,388.062664 380.831599,389.065095 C380.78836,389.210486 382.375473,389.646659 382.538253,389.679818 C383.298745,389.843064 384.105019,389.853267 384.890944,389.866021 C384.901118,390.350657 384.924009,390.832742 384.982509,391.314828 C385.081703,392.151463 385.117312,393.656386 386.116887,393.947167 C386.261864,393.99053 386.696794,392.398882 386.732402,392.238187 C386.895183,391.472972 386.902813,390.666946 386.915531,389.878774 C387.426764,389.871122 387.93291,389.848166 388.4416,389.809905 C389.280939,389.746137 390.700184,389.631355 390.987594,388.641676 C391.028289,388.496286 389.438633,388.057562 389.280939,388.024403" id="Fill-57-Copy" fill="#D5D5FD"></path>
                <path d="M86.9157823,127.308824 C86.3435061,127.18894 85.7508823,127.150679 85.1684323,127.143027 C84.9674998,127.140476 84.7640238,127.135375 84.5630913,127.130274 C84.5554609,126.62013 84.5325699,126.109987 84.4969616,125.602394 C84.4308319,124.758107 84.3189201,123.334807 83.3320616,123.049127 C83.1845415,123.005765 82.7496116,124.599963 82.7165468,124.760658 C82.5944612,125.332018 82.5588529,125.926335 82.5486791,126.513 C82.5461356,126.714507 82.5410487,126.916013 82.5359618,127.120071 C82.0552498,127.130274 81.5719944,127.150679 81.0938258,127.209346 C80.2570309,127.308824 78.7563955,127.347085 78.4664422,128.349516 C78.4232036,128.494907 80.0103162,128.93108 80.173097,128.964239 C80.9335885,129.127485 81.7398621,129.137688 82.525788,129.150441 C82.5359618,129.635077 82.5588529,130.117163 82.6173522,130.599248 C82.7165468,131.435883 82.7521551,132.940806 83.7517308,133.231588 C83.8967075,133.27495 84.3316374,131.683303 84.3672457,131.522608 C84.5300264,130.757393 84.5376568,129.951366 84.550374,129.163195 C85.0616074,129.155543 85.5677539,129.132586 86.0764439,129.094326 C86.9157823,129.030558 88.3350273,128.915775 88.6224371,127.926097 C88.6631323,127.780706 87.0734762,127.341983 86.9157823,127.308824" id="Fill-59" fill="#D5D5FD"></path>
                <path d="M45.3447943,383.263018 C44.7725181,383.143134 44.1798943,383.104873 43.5974443,383.097221 C43.3965118,383.09467 43.1930358,383.089569 42.9921033,383.084468 C42.9844729,382.574324 42.9615819,382.064181 42.9259736,381.556588 C42.8598439,380.712301 42.7479321,379.289001 41.7610736,379.00077 C41.6135535,378.959959 41.1786236,380.554157 41.1455587,380.714852 C41.0234732,381.288763 40.9878649,381.88308 40.9776911,382.467194 C40.9751476,382.668701 40.9700607,382.872758 40.9649738,383.074265 C40.4842618,383.084468 40.0010064,383.104873 39.5228378,383.16354 C38.6860428,383.263018 37.1854075,383.303829 36.8954542,384.30116 C36.8522156,384.449101 38.4393282,384.885274 38.602109,384.918433 C39.3626005,385.081679 40.168874,385.091882 40.9548,385.104635 C40.9649738,385.586721 40.9878649,386.073908 41.0463642,386.553442 C41.1455587,387.390077 41.181167,388.895 42.1807428,389.185782 C42.3257194,389.229144 42.7606493,387.637497 42.7962576,387.476802 C42.9590384,386.714138 42.9666688,385.90556 42.979386,385.11994 C43.4906194,385.109737 43.9967659,385.08678 44.5054559,385.04852 C45.3447943,384.984752 46.7640392,384.87252 47.0514491,383.880291 C47.0921443,383.7349 45.5024882,383.298728 45.3447943,383.263018" id="Fill-61" fill="#D5D5FD"></path>
                <path d="M150.730937,269.75003 C150.15866,269.627595 149.566037,269.591885 148.983587,269.584233 C148.780111,269.581682 148.579178,269.576581 148.378246,269.57148 C148.370615,269.058786 148.347724,268.551193 148.312116,268.0436 C148.245986,267.199313 148.134074,265.776013 147.147216,265.487782 C146.999696,265.446971 146.562222,267.041169 146.531701,267.201864 C146.409615,267.775775 146.371464,268.367541 146.363833,268.954206 C146.36129,269.155713 146.356203,269.357219 146.351116,269.561277 C145.870404,269.57148 145.387149,269.591885 144.90898,269.650552 C144.072185,269.75003 142.57155,269.788291 142.281597,270.788171 C142.238358,270.936113 143.825471,271.372286 143.988251,271.405445 C144.748743,271.568691 145.555016,271.578894 146.340942,271.591647 C146.351116,272.073733 146.374007,272.558369 146.432507,273.040454 C146.531701,273.877089 146.567309,275.382012 147.566885,275.672794 C147.711862,275.716156 148.146792,274.124509 148.1824,273.963814 C148.342637,273.20115 148.352811,272.392572 148.365528,271.604401 C148.874218,271.596749 149.382908,271.573792 149.889055,271.535531 C150.730937,271.471764 152.150182,271.356981 152.437591,270.367303 C152.478287,270.221912 150.88863,269.78574 150.730937,269.75003" id="Fill-71" fill="#D5D5FD"></path>
            </g>
            <g id="chico-copy-2" transform="translate(220.868946, 341.417582) rotate(-14.000000) translate(-220.868946, -341.417582) translate(127.635328, 251.000000)" fill-rule="nonzero">
                <polygon id="Path" fill="#FF8B7B" points="20.511396 144.010549 16.2287968 139.448571 25.6341223 128.310769 29.8962306 132.872747"></polygon>
                <polygon id="Path" fill="#FF8B7B" points="50.5510629 176.088242 46.2889546 171.526264 53.4812623 158.066374 57.7433706 162.628352"></polygon>
                <path d="M46.0225729,170.56044 L53.2763533,172.841429 C53.5216537,172.91882 53.6768231,173.160884 53.6451896,173.416813 L53.1738988,179.088462 C53.1098773,179.597708 52.659852,179.967783 52.1493535,179.930989 L51.9649353,179.930989 C49.6494631,179.15011 47.9896998,178.471978 45.0390094,177.547253 C43.2358098,176.971868 39.4449923,175.985495 36.9451019,175.204615 C34.4452115,174.423736 34.8960114,171.834505 36.0025203,171.957802 C39.0385774,172.439308 42.1488435,172.002913 44.9365549,170.704286 C45.2686526,170.524184 45.6552375,170.47298 46.0225729,170.56044 L46.0225729,170.56044 Z" id="Path" fill="#263238"></path>
                <path d="M16.6591059,138.585495 L22.8063774,141.626813 C23.0369578,141.736814 23.1572931,141.995412 23.0932501,142.243297 L21.7613412,147.750549 C21.7034592,147.986056 21.5536516,148.188365 21.3455781,148.31202 C21.1375047,148.435675 20.8886153,148.470306 20.6548323,148.408132 L20.4499233,148.408132 C18.2778874,147.257363 15.1632698,145.531209 12.3969976,144.174945 C9.15943458,142.551538 6.24972606,141.38022 2.47939952,139.448571 C0.184418146,138.318352 0.717181679,135.667473 1.76221784,135.934615 C6.61856235,137.167582 10.2249616,138.832088 15.1632698,138.38 C15.6712384,138.310224 16.1885614,138.381293 16.6591059,138.585495 L16.6591059,138.585495 Z" id="Path" fill="#263238"></path>
                <path d="M140.833991,44.058022 C136.039119,44.9827473 131.223756,45.8252747 126.490357,46.6472527 L111.859851,49.1542857 C110.046418,49.392092 108.203393,49.2450689 106.450252,48.7227473 C104.895269,48.2188912 103.42415,47.4846933 102.085689,46.5445055 C99.7746772,44.8661279 97.7475663,42.826287 96.081854,40.502967 C94.5219039,38.3807191 93.150588,36.1253355 91.983673,33.7627473 C91.4099277,32.5914286 90.8771641,31.4201099 90.3853824,30.2282418 C89.8936007,29.0363736 89.4428008,27.8856044 89.0124918,26.590989 L93.3155819,24.7415385 C94.4835634,26.7964835 95.7949814,28.8514286 97.1473811,30.6392308 C98.4767162,32.5132169 99.9351294,34.2916594 101.511944,35.9615385 C102.904343,37.4984849 104.520995,38.8149012 106.306816,39.8659341 C107.017478,40.2864368 107.793121,40.5850792 108.601797,40.7495604 C109.223162,40.8827985 109.865595,40.8827985 110.48696,40.7495604 L113.86796,39.907033 L117.412886,39.043956 C119.851304,38.4891209 122.228249,37.9548352 124.646176,37.4410989 C129.482029,36.4341758 134.297392,35.53 139.194718,34.7285714 L140.833991,44.058022 Z" id="Path" fill="#FF8B7B"></path>
                <path d="M145.874753,42.6401099 C141.674118,46.9143956 124.994521,48.9898901 124.994521,48.9898901 L123.047885,34.7285714 C128.374449,32.7639552 133.959665,31.5938707 139.625027,31.2557143 C147.534517,31.1118681 150.444225,37.9753846 145.874753,42.6401099 Z" id="Path" fill="#407BFF"></path>
                <path d="M139.625027,41.0989011 C135.117028,41.9208791 128.58043,45.701978 126.695266,48.846044 C130.972117,48.1976282 135.197207,47.243065 139.338155,45.9896703 C140.915954,43.1538462 141.838045,40.5646154 139.625027,41.0989011 Z" id="Path" fill="#000000" opacity="0.2"></path>
                <path d="M94.8319088,27.7006593 L92.209073,21.3714286 L86.3281832,26.7142857 C87.2270138,29.1673357 89.6056483,30.7548523 92.209073,30.6392308 L94.8319088,27.7006593 Z" id="Path" fill="#FF8B7B"></path>
                <polygon id="Path" fill="#FF8B7B" points="88.9510191 18.5767033 85.2626561 23.7551648 86.3281832 26.6731868 92.2705457 21.3508791"></polygon>
                <polygon id="Path" fill="#000000" opacity="0.2" points="25.6341223 128.310769 20.7982687 134.044066 25.0603769 138.606044 29.8962306 132.872747"></polygon>
                <polygon id="Path" fill="#000000" opacity="0.2" points="57.7433706 162.628352 53.4812623 158.066374 49.5879904 165.361429 54.5877712 168.567143"></polygon>
                <path d="M142.596209,31.6050549 C142.596209,31.6050549 136.838264,43.9347253 106.696143,68.4091209 L129.543502,92.8013187 C146.632917,81.7662637 158.722551,69.1694505 174.807911,50.5105495 C171.511607,47.3075454 167.954317,44.3862203 164.173132,41.777033 C160.212338,39.2253026 156.10726,36.9061681 151.878589,34.8313187 C148.873361,33.5140948 145.76971,32.4353635 142.596209,31.6050549 Z" id="Path" fill="#407BFF"></path>
                <path d="M164.316568,54.8875824 C162.057262,58.5664709 160.604389,62.6853658 160.05446,66.9706593 C161.789356,65.1623077 163.551574,63.2512088 165.341113,61.2373626 L164.316568,54.8875824 Z" id="Path" fill="#000000" opacity="0.2"></path>
                <path d="M170.771203,27.0841758 C167.779531,30.6392308 162.902696,37.5232967 164.193623,41.7564835 C164.193623,41.7564835 160.853605,45.1882418 153.456388,41.0372527 C145.260026,36.4547253 151.817116,34.8724176 151.817116,34.8724176 C156.857879,36.3108791 158.579115,32.9407692 159.542187,29.4062637 L170.771203,27.0841758 Z" id="Path" fill="#FF8B7B"></path>
                <path d="M166.201731,28.0089011 L159.562678,29.3240659 C159.340463,30.1473118 159.052665,30.9513261 158.70206,31.7283516 C160.948531,32.4714415 163.420805,31.8833936 165.095222,30.2076923 C165.595989,29.5493875 165.971125,28.8039381 166.201731,28.0089011 L166.201731,28.0089011 Z" id="Path" fill="#000000" opacity="0.2"></path>
                <path d="M173.394039,2.36318681 C173.369502,1.72615014 173.252144,1.09614267 173.045694,0.493186813 C169.521258,3.92494505 162.902696,1.04802198 160.320842,6.65802198 C157.738988,12.268022 164.234604,17.3231868 166.775477,18.9876923 C167.463474,19.500749 168.321859,19.7288341 169.172913,19.6247253 C171.734276,21.802967 176.529147,18.3506593 177.04142,14.1174725 C177.635656,9.2267033 183.516546,12.0625275 185.483673,6.24703297 C181.139601,6.80186813 177.820075,2.05494505 173.394039,2.36318681 Z" id="Path" fill="#263238"></path>
                <path d="M173.86533,20.0151648 C171.017094,25.542967 169.664694,28.9130769 165.505041,30.557033 C162.685601,31.6362906 159.502855,31.0744844 157.220323,29.0946464 C154.937791,27.1148084 153.924757,24.0372507 154.583388,21.0837363 C155.628424,15.4531868 160.095442,7.37725275 166.63204,7.58274725 C171.279008,7.71711801 174.943171,11.5938552 174.828402,16.2546154 C174.811424,17.5672721 174.481188,18.8567583 173.86533,20.0151648 L173.86533,20.0151648 Z" id="Path" fill="#FF8B7B"></path>
                <path d="M169.377822,22.029011 C169.11144,19.0287912 169.11144,10.7884615 175.197239,9.41164835 C181.283037,8.03483516 180.66831,12.0830769 185.442691,12.8023077 C182.840346,14.8572527 179.97162,16.603956 178.311856,20.8576923 C176.652093,25.1114286 169.78764,27.1869231 169.377822,22.029011 Z" id="Path" fill="#263238"></path>
                <path d="M163.927241,4.50032967 C166.427131,2.81527473 174.439075,1.43846154 179.336401,5.34285714 C184.233728,9.24725275 178.106947,9.45274725 179.848674,14.0969231 C176.795529,12.8228571 173.926803,11.1789011 169.357331,11.8159341 C164.787859,12.452967 159.685623,7.3567033 163.927241,4.50032967 Z" id="Path" fill="#263238"></path>
                <path d="M173.660421,27.3924176 C172.369332,28.2672 170.784844,28.5923938 169.254876,28.2965934 C167.205786,27.8856044 167.205786,25.8512088 168.496713,24.4332967 C169.78764,23.0153846 172.226057,21.8235165 173.885821,22.9537363 C175.059925,23.8249585 175.323976,25.4777112 174.480057,26.6731868 C174.257069,26.9650313 173.978459,27.2095124 173.660421,27.3924176 L173.660421,27.3924176 Z" id="Path" fill="#FF8B7B"></path>
                <path d="M106.696143,68.4091209 C106.696143,68.4091209 65.4684418,73.751978 52.0673899,87.3146154 C38.1335744,101.411538 20.2450142,131.352088 20.2450142,131.352088 L27.4783037,139.078681 C27.4783037,139.078681 48.0716634,113.720659 62.5792242,100.692308 C78.3572211,86.5131868 109.81076,95.6165934 121.736467,84.3965934 L106.696143,68.4091209 Z" id="Path" fill="#263238"></path>
                <path d="M104.790489,86.5748352 C99.8316897,83.2663736 86.3486741,87.4173626 80.3858207,93.0068132 C88.1928556,91.5889011 96.6351085,91.4245055 104.114289,90.5614286 C105.610125,88.8969231 106.122398,87.4584615 104.790489,86.5748352 Z" id="Path" fill="#000000" opacity="0.2"></path>
                <path d="M114.749069,77.080989 C114.749069,77.080989 80.9390752,91.8765934 70.5706772,106.98044 C59.2392067,123.42 48.7478632,161.909121 48.7478632,161.909121 L57.4974797,167.889011 C57.4974797,167.889011 69.6076046,136.941538 82.0865659,121.878791 C95.6105632,105.439231 118.109577,103.548681 129.50252,92.8218681 L114.749069,77.080989 Z" id="Path" fill="#263238"></path>
                <polygon id="Path" fill="#407BFF" points="46.5758273 161.785824 59.4031339 169.450769 61.4522244 165.977912 47.2520272 157.182747"></polygon>
                <polygon id="Path" fill="#407BFF" points="18.4418146 129.79033 28.6667762 140.722637 31.6379575 137.927912 20.3679597 125.577692"></polygon>
                <path d="M164.603441,17.7958242 C164.398532,18.2684615 163.988714,18.5356044 163.68135,18.3917582 C163.373986,18.2479121 163.312514,17.7752747 163.496932,17.3231868 C163.68135,16.8710989 164.111659,16.603956 164.419023,16.7272527 C164.726386,16.8505495 164.787859,17.3437363 164.603441,17.7958242 Z" id="Path" fill="#263238"></path>
                <path d="M159.398751,15.4942857 C159.193842,15.9669231 158.784024,16.2340659 158.47666,16.0902198 C158.169297,15.9463736 158.107824,15.4737363 158.312733,15.0216484 C158.517642,14.5695604 158.906969,14.3024176 159.214333,14.4257143 C159.521696,14.549011 159.60366,15.0421978 159.398751,15.4942857 Z" id="Path" fill="#263238"></path>
                <path d="M160.95606,16.4395604 C159.784781,17.6151435 158.453296,18.6183401 157.001315,19.4192308 C157.444878,20.1621815 158.19654,20.6672342 159.050405,20.796044 L160.95606,16.4395604 Z" id="Path" fill="#FF5652"></path>
                <path d="M160.874096,23.0359341 C160.509309,22.9605421 160.152519,22.850447 159.808569,22.7071429 C159.781034,22.680087 159.765517,22.6430549 159.765517,22.6043956 C159.765517,22.5657363 159.781034,22.5287042 159.808569,22.5016484 C159.861896,22.4567657 159.93966,22.4567657 159.992987,22.5016484 L159.992987,22.5016484 C161.130515,23.0606056 162.461858,23.0606056 163.599386,22.5016484 C163.599386,22.5016484 163.763314,22.5016484 163.804295,22.5016484 C163.838636,22.5244921 163.85928,22.5630697 163.85928,22.6043956 C163.85928,22.6457215 163.838636,22.6842991 163.804295,22.7071429 C162.902062,23.1775121 161.857678,23.2947001 160.874096,23.0359341 L160.874096,23.0359341 Z" id="Path" fill="#263238"></path>
                <path d="M166.959895,16.83 C166.849267,16.8155913 166.75931,16.7335782 166.734495,16.6245055 C166.592212,15.8780953 166.09475,15.2487348 165.402586,14.9394505 C165.255523,14.8819359 165.175811,14.7220555 165.218168,14.5695604 C165.275946,14.4117615 165.449143,14.3294864 165.607495,14.3846154 C166.469961,14.7567757 167.102359,15.5208781 167.30824,16.4395604 C167.347203,16.5926826 167.255714,16.7486568 167.103331,16.7889011 L167.103331,16.7889011 C167.070215,16.8334481 167.011479,16.8502778 166.959895,16.83 Z" id="Path" fill="#263238"></path>
                <path d="M157.964387,12.7201099 C157.910908,12.7360999 157.85394,12.7360999 157.80046,12.7201099 C157.74539,12.6659981 157.714357,12.591934 157.714357,12.5146154 C157.714357,12.4372968 157.74539,12.3632326 157.80046,12.3091209 C158.508845,11.6768292 159.477095,11.4245179 160.402805,11.630989 C160.56097,11.6890338 160.649551,11.857819 160.607714,12.0214286 C160.550363,12.1689115 160.390939,12.2488517 160.238878,12.2063736 C159.506659,12.0514899 158.744771,12.2577875 158.189787,12.7612088 C158.112491,12.7855907 158.028179,12.7702175 157.964387,12.7201099 L157.964387,12.7201099 Z" id="Path" fill="#263238"></path>
                <path d="M174.31613,54.640989 C174.54153,55.9150549 174.705457,57.0247253 174.828402,58.196044 C174.951348,59.3673626 175.094784,60.5386813 175.197239,61.6894505 C175.402148,64.0320879 175.504602,66.3747253 175.525093,68.7379121 C175.545584,71.1010989 175.525093,73.4642857 175.23822,75.8685714 L175.053802,77.6563736 L174.807911,79.4647253 C174.807911,80.0606593 174.603002,80.6976923 174.480057,81.2936264 L174.295639,82.1978022 L174.295639,82.4238462 L174.295639,82.8142857 C174.232407,83.0801425 174.150233,83.3411058 174.049748,83.5951648 C173.472634,85.1154613 172.610093,86.5106312 171.508876,87.7050549 C170.601591,88.6745172 169.629433,89.5807959 168.599167,90.4175824 C166.77133,91.9713826 164.840778,93.3994044 162.820732,94.6918681 C158.900755,97.19768 154.78983,99.3895665 150.526189,101.247143 L148.210717,97.1372527 C151.714661,94.5069231 155.218606,91.7738462 158.456169,88.9174725 C160.074951,87.5406593 161.591278,86.1021978 163.066623,84.6020879 C163.717447,83.9189251 164.319975,83.191079 164.869822,82.4238462 C165.253615,81.9445939 165.551725,81.4022912 165.750931,80.820989 L165.750931,80.820989 L165.750931,80.6154945 L165.750931,79.8757143 C165.750931,79.3825275 165.873877,78.8687912 165.894368,78.3550549 L165.894368,76.8138462 L165.894368,75.2520879 C165.894368,73.1971429 165.894368,71.1421978 165.894368,68.9023077 C165.894368,66.6624176 165.627986,64.628022 165.423077,62.4703297 C165.423077,61.4017582 165.238659,60.4153846 165.095222,59.2646154 L164.705895,56.1410989 L174.31613,54.640989 Z" id="Path" fill="#FF8B7B"></path>
                <path d="M174.172693,49.9351648 C179.008547,53.4696703 177.922529,71.4915385 177.922529,71.4915385 L163.742823,73.0738462 C162.674704,67.8438047 162.248062,62.5024377 162.472387,57.1685714 C163.107605,49.0515385 168.804076,45.9485714 174.172693,49.9351648 Z" id="Path" fill="#407BFF"></path>
                <path d="M43.7275915,171.012527 C43.3062084,170.926193 42.9288095,170.693284 42.6620644,170.354945 C42.5306996,170.096788 42.5306996,169.791124 42.6620644,169.532967 C42.7133963,169.362418 42.8559923,169.235304 43.0309007,169.204176 C43.7890642,169.080879 45.346373,170.868681 45.5103002,171.074176 C45.5410804,171.117157 45.5410804,171.175041 45.5103002,171.218022 C45.48648,171.27733 45.4305316,171.317407 45.3668639,171.320769 C44.8100285,171.284819 44.2595906,171.181317 43.7275915,171.012527 L43.7275915,171.012527 Z M43.2153189,169.512418 L43.0309007,169.512418 C43.0309007,169.512418 42.9284462,169.512418 42.8874644,169.656264 C42.7963789,169.82993 42.7963789,170.037433 42.8874644,170.211099 C43.4484595,170.720241 44.1799722,170.99901 44.9365549,170.991978 C44.4391867,170.397449 43.8343567,169.902441 43.1538462,169.532967 L43.2153189,169.512418 Z" id="Shape" fill="#407BFF"></path>
                <path d="M45.3258821,171.30022 C45.3258821,171.30022 45.3258821,171.30022 45.3258821,171.30022 C44.8136095,170.765934 44.0144642,169.080879 44.3628096,168.464396 C44.4715995,168.256674 44.7158705,168.160437 44.9365549,168.238352 C45.1582566,168.280675 45.351778,168.415034 45.4693184,168.608242 C45.7653601,169.454945 45.8010529,170.37129 45.571773,171.238571 L45.4693184,171.341319 L45.3258821,171.30022 Z M44.8750822,168.505495 L44.8750822,168.505495 C44.690664,168.505495 44.6496822,168.505495 44.6291913,168.505495 C44.4242823,168.875385 44.8750822,170.087802 45.346373,170.745385 C45.5071551,170.063127 45.4644009,169.348523 45.2234276,168.69044 C45.1643605,168.573213 45.0611065,168.484456 44.9365549,168.443846 L44.8750822,168.505495 Z" id="Shape" fill="#407BFF"></path>
                <path d="M13.8518519,138.400549 C13.3494114,138.20573 12.929553,137.842749 12.6633794,137.373077 C12.5394714,137.134865 12.5394714,136.850959 12.6633794,136.612747 C12.7383489,136.465266 12.8876998,136.370669 13.0527066,136.366154 C13.8928337,136.366154 15.6140697,138.585495 15.757506,138.852637 C15.7992491,138.899441 15.7992491,138.970229 15.757506,139.017033 C15.7082463,139.051431 15.6428385,139.051431 15.5935788,139.017033 C14.9939707,138.870252 14.4104945,138.663731 13.8518519,138.400549 L13.8518519,138.400549 Z M13.4215428,136.777143 C13.3282419,136.747248 13.2279711,136.747248 13.1346702,136.777143 C13.0893952,136.755052 13.0365088,136.755052 12.9912338,136.777143 C12.9074177,136.938074 12.9074177,137.129948 12.9912338,137.290879 C13.1961429,137.763516 14.0772518,138.277253 15.4091606,138.667692 C14.847211,137.900037 14.1533311,137.238968 13.3600701,136.715495 L13.4215428,136.777143 Z" id="Shape" fill="#407BFF"></path>
                <path d="M15.6755424,139.058132 L15.6755424,139.058132 C15.1632698,138.421099 14.4255972,136.551099 14.8354153,135.955165 C15.0117414,135.758287 15.2992349,135.707408 15.5321061,135.831868 C15.8047551,135.945457 16.0243938,136.158381 16.1468332,136.427802 C16.3439607,137.291601 16.2724483,138.195231 15.9419242,139.017033 C15.931822,139.077005 15.8796212,139.12063 15.8189787,139.119792 L15.6755424,139.058132 Z M15.4091606,136.11956 L15.4091606,136.11956 C15.1632698,136.11956 15.1017971,136.11956 15.0813062,136.11956 C14.8354153,136.468901 15.2452334,137.866264 15.757506,138.626593 C15.9629405,137.957103 15.9629405,137.241139 15.757506,136.571648 C15.7009296,136.393413 15.575452,136.245371 15.4091606,136.160659 L15.4091606,136.11956 Z" id="Shape" fill="#407BFF"></path>
                <path d="M149.890971,96.7879121 L143.53879,96.7879121 L146.858317,104.062418 C146.858317,104.062418 152.247425,102.870549 151.940061,99.9525275 L149.890971,96.7879121 Z" id="Path" fill="#FF8B7B"></path>
                <polygon id="Path" fill="#FF8B7B" points="137.944773 100.548462 140.977427 106.384505 146.858317 104.041868 143.559281 96.7673626"></polygon>
            </g>
            <g id="Group-8-Copy-2" transform="translate(442.000000, 247.000000)" fill-rule="nonzero">
                <circle id="Oval" fill="#407BFF" cx="10.5756131" cy="10.5756131" r="10.5756131"></circle>
                <path d="M4.98228883,8.76600817 C6.50015534,4.07190646 11.0679087,1.05601805 15.9809264,1.50408719 C15.3019683,1.09038275 14.5761464,0.759029262 13.8188011,0.517029973 C8.3430621,-1.02940571 2.62524257,2.0338033 0.879160938,7.44918692 C-0.866920697,12.8645705 1.98467326,18.6908147 7.33242507,20.6341962 C8.09466534,20.8824744 8.88346329,21.040234 9.68256131,21.1042234 C5.42564087,18.5947036 3.4740505,13.4717789 4.98228883,8.76600817 L4.98228883,8.76600817 Z" id="Path" fill="#FFFFFF" opacity="0.2"></path>
            </g>
            <g id="planeta-copy-2" transform="translate(143.589744, 132.000000)" fill-rule="nonzero">
                <ellipse id="Oval" fill="#407BFF" cx="48.9334439" cy="34.0223077" rx="33.8762108" ry="34.0223077"></ellipse>
                <ellipse id="Oval" fill="#FFFFFF" opacity="0.3" cx="48.9334439" cy="34.0223077" rx="33.8762108" ry="34.0223077"></ellipse>
                <path d="M70.33729,7.67846154 C54.8882093,3.06650161 38.3434914,10.0307299 30.7853902,24.3271866 C23.2272889,38.6236434 26.7510137,56.2891545 39.2092274,66.5584615 C54.684414,71.2049589 71.2735634,64.2326319 78.8409078,49.9014872 C86.4082521,35.5703425 82.8487819,17.8668771 70.33729,7.60769231 L70.33729,7.67846154 Z" id="Path" fill="#407BFF" opacity="0.4"></path>
                <path d="M16.6074705,44.2307692 C-19.5588638,61.3215385 7.41174398,74.5023077 58.3757991,56.1023077 C105.569959,39.0646154 123.556236,17.5861538 81.2770336,24.2561538 C83.5495407,33.1907692 24.4467392,56.3146154 16.6074705,44.2307692 Z" id="Path" fill="#407BFF"></path>
            </g>
            <g id="luna-copy-2" transform="translate(86.752137, 300.000000)" fill-rule="nonzero">
                <ellipse id="Oval" fill="#407BFF" cx="24.0378406" cy="24.0768182" rx="24.0082233" ry="24.0768182"></ellipse>
                <ellipse id="Oval" fill="#FFFFFF" opacity="0.7" cx="24.0378406" cy="24.0768182" rx="24.0082233" ry="24.0768182"></ellipse>
                <path d="M15.7759913,5.92417523 C12.5081347,5.90625345 9.27182405,6.5659812 6.27042283,7.86227273 C-1.35332754,16.2445011 -2.10762943,28.8267638 4.45980373,38.0646167 C11.0272369,47.3024696 23.134182,50.6890101 33.5211998,46.1936364 L33.5211998,46.1936364 C39.890534,39.135044 41.5195932,28.9777541 37.6785609,20.2722191 C33.8375287,11.5666842 25.2463188,5.94455787 15.7537821,5.92417523 L15.7759913,5.92417523 Z" id="Path" fill="#407BFF" opacity="0.2"></path>
                <path d="M13.3773899,12.2722727 C13.3773899,13.5023615 12.3830469,14.4995455 11.1564627,14.4995455 C9.92987848,14.4995455 8.93553549,13.5023615 8.93553549,12.2722727 C8.93553549,11.042184 9.92987848,10.045 11.1564627,10.045 C12.3830469,10.045 13.3773899,11.042184 13.3773899,12.2722727 Z" id="Path" fill="#407BFF" opacity="0.2"></path>
                <path d="M39.162355,10.0895455 C39.162355,11.3196342 38.168012,12.3168182 36.9414277,12.3168182 C35.7148435,12.3168182 34.7205005,11.3196342 34.7205005,10.0895455 C34.7205005,8.85945669 35.7148435,7.86227273 36.9414277,7.86227273 C38.168012,7.86227273 39.162355,8.85945669 39.162355,10.0895455 Z" id="Path" fill="#407BFF" opacity="0.2"></path>
                <path d="M34.7205005,25.7695455 C34.7205005,27.7622892 33.1096649,29.3777273 31.1225984,29.3777273 C29.135532,29.3777273 27.5246963,27.7622892 27.5246963,25.7695455 C27.5246963,23.7768017 29.135532,22.1613636 31.1225984,22.1613636 L31.1225984,22.1613636 C33.1096649,22.1613636 34.7205005,23.7768017 34.7205005,25.7695455 Z" id="Path" fill="#407BFF" opacity="0.2"></path>
                <path d="M23.3938237,35.9927273 C23.3938237,37.9385584 22.2249708,39.6927904 20.4323789,40.4374277 C18.6397871,41.182065 16.5764247,40.7704641 15.2044343,39.3945537 C13.8324439,38.0186434 13.4220156,35.9493856 14.1645314,34.1516721 C14.9070473,32.3539586 16.6562815,31.1817661 18.5965689,31.1817661 C19.8706779,31.1758612 21.0943195,31.6808103 21.9952604,32.5843253 C22.8962013,33.4878403 23.3997117,34.714978 23.3938237,35.9927273 L23.3938237,35.9927273 Z" id="Path" fill="#407BFF" opacity="0.2"></path>
            </g>
            <g id="Group-8-Copy-2" transform="translate(86.752137, 201.000000)" fill-rule="nonzero">
                <ellipse id="Oval" fill="#407BFF" cx="5.5019912" cy="5.51771117" rx="5.5019912" ry="5.51771117"></ellipse>
                <path d="M2.59204919,4.57356948 C3.38172333,2.12447294 5.7581093,0.550965941 8.31412003,0.784741144 C7.96089023,0.568895349 7.58327941,0.396015267 7.1892685,0.269754768 C4.34050053,-0.537081242 1.36578952,1.06111477 0.457385847,3.88653231 C-0.451017828,6.71194985 1.03253161,9.75172943 3.8147139,10.7656676 C4.21127145,10.895204 4.62164571,10.9775134 5.03737861,11.0108992 C2.82270428,9.70158451 1.80738413,7.02875422 2.59204919,4.57356948 L2.59204919,4.57356948 Z" id="Path" fill="#FFFFFF" opacity="0.2"></path>
            </g>
        </g>
    </g>
</svg>