<?xml version="1.0" encoding="utf-8"?>
<!-- Generator: Adobe Illustrator 26.0.1, SVG Export Plug-In . SVG Version: 6.00 Build 0)  -->
<svg version="1.1" id="Layer_1" xmlns="http://www.w3.org/2000/svg" xmlns:xlink="http://www.w3.org/1999/xlink" x="0px" y="0px"
	 viewBox="0 0 100 100" style="enable-background:new 0 0 100 100;" xml:space="preserve">
<g id="Guides">
	<g>
		<polygon points="5.5,57.8 5.7,57.9 5.7,57.7 		"/>
		<polygon points="5.5,68.1 5.7,68.2 5.7,68 		"/>
		<polygon points="41.1,47.5 41.1,47.5 41.2,47.5 		"/>
		<path d="M41.1,88.7L41.1,88.7L41.1,88.7z"/>
		<polygon points="32.2,73.2 32.3,73.3 32.3,73.2 		"/>
		<polygon points="50.1,62.9 50.1,62.9 50.1,62.9 		"/>
		<polygon points="50.1,83.5 50.1,83.5 50.1,83.5 		"/>
		<polygon points="67.9,61.3 59,66.4 50.1,71.6 50.1,71.6 50.1,81.9 50.1,81.9 59,76.7 67.9,71.6 76.8,66.4 94.5,56.2 94.5,45.9 		
			"/>
		<polygon points="94.5,28.9 50.1,54.5 50.1,54.6 50.1,54.6 50.1,64.8 59,59.7 94.5,39.2 94.5,28.9 		"/>
		<polygon points="76.8,73.1 67.9,78.3 59,83.4 50.1,88.6 50.1,88.6 41.1,83.4 41.1,83.4 41.1,83.4 33.7,79.1 32.2,78.3 23.3,73.1 
			14.4,68 5.7,62.9 5.7,73 5.6,73 14.6,78.2 23.5,83.3 32.4,88.5 33.7,89.2 41.1,93.5 41.3,93.6 50.1,98.7 50.1,98.7 50.1,98.7 
			58.8,93.6 67.7,88.5 76.7,83.3 85.6,78.2 94.5,73 94.5,73 94.5,73 94.5,62.9 85.7,68 		"/>
		<polygon points="50.1,52.6 50.1,52.6 50.1,52.6 		"/>
		<polygon points="5.7,27.6 43.7,49.7 43.7,78.1 5.7,56 		"/>
		<g>
			<polygon points="50.1,1.3 50.1,1.3 10.9,23.9 19.8,29.1 59,6.5 			"/>
			<polygon points="80.5,18.6 44.9,39.1 41,41.3 49.9,46.5 89.4,23.7 			"/>
			<polygon points="65.1,9.8 25.8,32.5 34.6,37.7 74,15 			"/>
		</g>
	</g>
</g>
</svg>
