<?xml version="1.0" encoding="utf-8"?>
<!-- Generator: Adobe Illustrator 26.0.1, SVG Export Plug-In . SVG Version: 6.00 Build 0)  -->
<svg version="1.1" id="Layer_1" xmlns="http://www.w3.org/2000/svg" xmlns:xlink="http://www.w3.org/1999/xlink" x="0px" y="0px"
	 viewBox="0 0 100 100" style="enable-background:new 0 0 100 100;" xml:space="preserve">
<g id="Guides_00000086659322022142271200000009132900787763767193_">
	<g>
		<g>
			<polygon points="60.5,7.4 50,1.3 39.5,7.4 28.9,13.5 18.4,19.6 18.4,19.6 7.8,25.7 7.8,37.8 7.8,37.8 18.4,43.9 18.4,43.9 
				18.4,31.7 28.9,25.7 39.5,19.6 50,13.5 60.5,19.6 60.5,31.7 60.5,31.7 60.5,31.7 60.5,43.9 60.5,56.1 60.5,56.1 71.1,62.2 
				71.1,50 71.1,37.8 71.1,25.7 71.1,25.7 71.1,13.5 			"/>
			<polygon points="92.2,62.2 92.2,50 92.2,50 92.2,37.8 92.2,37.8 92.2,37.8 92.2,25.7 81.6,19.6 81.6,19.6 71.1,25.7 81.6,31.7 
				81.6,43.9 81.6,43.9 81.6,43.9 81.6,56.1 81.6,68.3 81.6,68.3 81.6,68.3 71.1,74.3 60.5,68.3 50,62.2 39.5,56.1 39.5,56.1 
				28.9,62.2 39.5,68.3 39.5,68.3 50,74.3 60.5,80.4 71.1,86.5 71.1,86.5 81.6,80.4 92.2,74.3 92.2,74.3 92.2,74.3 			"/>
			<polygon points="60.5,80.4 50,86.5 50,86.5 39.5,80.4 28.9,74.3 18.4,68.3 18.4,68.3 18.4,56.1 28.9,50 39.5,43.9 50,37.8 
				50,25.7 39.5,31.7 39.5,31.7 39.5,31.7 28.9,37.8 18.4,43.9 18.4,43.9 18.4,43.9 7.8,50 7.8,50 7.8,62.2 7.8,74.3 18.4,80.4 
				28.9,86.5 39.5,92.6 50,98.7 60.5,92.6 60.5,92.6 60.5,92.6 			"/>
		</g>
	</g>
</g>
</svg>
