<?xml version="1.0" encoding="utf-8"?>
<!-- Generator: Adobe Illustrator 26.0.1, SVG Export Plug-In . SVG Version: 6.00 Build 0)  -->
<svg version="1.1" id="Layer_1" xmlns="http://www.w3.org/2000/svg" xmlns:xlink="http://www.w3.org/1999/xlink" x="0px" y="0px"
	 viewBox="0 0 100 100" style="enable-background:new 0 0 100 100;" xml:space="preserve">
<style type="text/css">
	.st0{fill-rule:evenodd;clip-rule:evenodd;}
</style>
<g id="Guides">
	<g>
		<g>
			<g id="XMLID_70_">
				<g>
					<path class="st0" d="M51,0.1c-27,0-49,21.8-49,48.7c0,8.7,2.3,17.2,6.7,24.6L0.2,98.2c-0.2,0.5,0,1,0.3,1.4
						c0.3,0.3,0.6,0.4,1,0.4c0.1,0,0.3,0,0.4-0.1l25.9-8.2c7.1,3.8,15.1,5.8,23.2,5.8c27,0,49-21.8,49-48.7C100,22,78,0.1,51,0.1z
						 M51,87.3c-7.6,0-15-2.2-21.3-6.4c-0.2-0.1-0.5-0.2-0.7-0.2c-0.1,0-0.3,0-0.4,0.1l-12.9,4.1l4.2-12.2c0.1-0.4,0.1-0.9-0.2-1.2
						c-4.8-6.6-7.4-14.4-7.4-22.5c0-21.2,17.4-38.4,38.8-38.4c21.4,0,38.7,17.2,38.7,38.4C89.7,70,72.3,87.3,51,87.3z"/>
				</g>
			</g>
			<g id="XMLID_67_">
				<g>
					<path class="st0" d="M51,19.9c-16.1,0-29.2,13.1-29.2,29.2S34.9,78.3,51,78.3s29.2-13.1,29.2-29.2S67.2,19.9,51,19.9z M51,68.8
						c-10.9,0-19.7-8.8-19.7-19.7c0-10.9,8.8-19.7,19.7-19.7c10.9,0,19.7,8.8,19.7,19.7C70.7,60,61.9,68.8,51,68.8z"/>
				</g>
			</g>
			<g id="XMLID_65_">
				<g>
					<path class="st0" d="M51,38.7c-5.7,0-10.4,4.7-10.4,10.4c0,5.7,4.7,10.4,10.4,10.4s10.4-4.7,10.4-10.4
						C61.4,43.4,56.8,38.7,51,38.7z"/>
				</g>
			</g>
		</g>
	</g>
</g>
</svg>
