<?xml version="1.0" encoding="utf-8"?>
<!-- Generator: Adobe Illustrator 26.0.1, SVG Export Plug-In . SVG Version: 6.00 Build 0)  -->
<svg version="1.1" id="Layer_1" xmlns="http://www.w3.org/2000/svg" xmlns:xlink="http://www.w3.org/1999/xlink" x="0px" y="0px"
	 viewBox="0 0 100 100" style="enable-background:new 0 0 100 100;" xml:space="preserve">
<g id="Guides">
	<g>
		<g>
			<g>
				<path d="M0.5,72.9c0,0,13.8-9.9,41.3-2.4c27.5,7.5,36-2.4,40.8-12.3c0,0-12.8,11.1-43.7,3.2S0.5,72.9,0.5,72.9z"/>
			</g>
			<g>
				<path d="M17.4,41.5c0,0,13.8-9.9,41.3-2.4s36-2.4,40.8-12.3c0,0-12.8,11.1-43.7,3.2S17.4,41.5,17.4,41.5z"/>
			</g>
			<g>
				<path d="M27.9,55c0,0,7.8-4.2,23.2,0c15.5,4.2,20.3-2.7,23-8.3c0,0-7.2,4.2-24.6-0.3S27.9,55,27.9,55z"/>
			</g>
		</g>
	</g>
</g>
</svg>
