<?xml version="1.0" encoding="utf-8"?>
<!-- Generator: Adobe Illustrator 13.0.0, SVG Export Plug-In . SVG Version: 6.00 Build 14948)  -->
<!DOCTYPE svg PUBLIC "-//W3C//DTD SVG 1.1//EN" "http://www.w3.org/Graphics/SVG/1.1/DTD/svg11.dtd">
<svg version="1.1" id="Layer_1" xmlns="http://www.w3.org/2000/svg" xmlns:xlink="http://www.w3.org/1999/xlink" x="0px" y="0px"
	 width="30px" height="22.465px" viewBox="0 0 30 22.465" enable-background="new 0 0 30 22.465" xml:space="preserve">
<path fill="#476AD8" d="M25.586,17.364c-0.18,0.643-0.031,0.959,0.449,0.959c0.6,0,1.35-0.533,2.246-1.613
	c0.063-0.065,0.121-0.103,0.184-0.103c0.211,0,0.439,0.146,0.695,0.433c0.254,0.283,0.381,0.528,0.381,0.729
	c0,0.068-0.016,0.115-0.043,0.15c-2.277,3.027-4.467,4.543-6.563,4.543c-1.142,0-1.711-0.738-1.711-2.221
	c0-1.01,0.314-2.254,0.944-3.734l-0.271-0.148c-1.229,1.715-2.603,3.16-4.115,4.34c-1.514,1.179-2.777,1.767-3.798,1.767
	c-1.079,0-1.933-0.452-2.562-1.36s-0.943-2.037-0.943-3.386c0-3.362,1.289-6.917,3.867-10.651c2.758-4.038,5.694-6.057,8.813-6.057
	c0.928,0,1.709,0.251,2.338,0.757l0.449-1.212C26.064,0.185,26.502,0,27.252,0c0.629,0,1.258,0.119,1.887,0.354
	c0.631,0.235,0.914,0.472,0.854,0.707L25.586,17.364z M22.566,3.078c-1.944,0-3.715,1.936-5.301,5.806
	c-1.287,3.231-1.93,5.906-1.93,8.027c0,0.537,0.097,1.032,0.291,1.487c0.195,0.455,0.441,0.681,0.742,0.681
	c1.049,0,2.354-1.158,3.912-3.481c1.559-2.32,2.695-4.792,3.418-7.417l1.063-3.944C24.316,3.464,23.581,3.078,22.566,3.078z
	 M5.223,7.487c-0.391,0-0.707-0.268-0.707-0.599V5.08c0-0.332,0.316-0.6,0.707-0.6h7.6c0.363,0,0.66,0.235,0.7,0.535
	c-0.925,0.624-1.846,1.463-2.703,2.472H5.223z M5.252,10.485h5.246c-0.484,0.67-0.917,1.473-1.266,2.361
	c-0.104,0.199-0.202,0.4-0.293,0.605H5.252c-0.41,0-0.745-0.264-0.745-0.592v-1.782C4.509,10.752,4.843,10.485,5.252,10.485z
	 M2.417,13.452H0.605c-0.332,0-0.604-0.263-0.604-0.591v-1.782c0-0.327,0.272-0.594,0.604-0.594h1.812
	c0.332,0,0.604,0.267,0.604,0.594v1.782C3.021,13.191,2.749,13.452,2.417,13.452z M2.405,7.487H0.602C0.271,7.487,0,7.217,0,6.888
	V5.08c0-0.332,0.271-0.6,0.602-0.6h1.803c0.332,0,0.6,0.27,0.6,0.6v1.808C3.005,7.218,2.737,7.487,2.405,7.487z M0.605,16.452h1.809
	c0.333,0,0.604,0.271,0.604,0.6v1.81c0,0.33-0.271,0.6-0.604,0.6H0.605c-0.333,0.002-0.604-0.268-0.604-0.6v-1.81
	C0.001,16.721,0.272,16.452,0.605,16.452z M5.346,16.452h3.311c-0.122,1.078,0.004,2.103,0.341,3.008H5.346
	c-0.458,0-0.83-0.271-0.83-0.601v-1.811C4.517,16.721,4.888,16.452,5.346,16.452z"/>
</svg>
