<?xml version="1.0" encoding="utf-8"?>
<!-- Generator: Adobe Illustrator 13.0.0, SVG Export Plug-In . SVG Version: 6.00 Build 14948)  -->
<!DOCTYPE svg PUBLIC "-//W3C//DTD SVG 1.1//EN" "http://www.w3.org/Graphics/SVG/1.1/DTD/svg11.dtd">
<svg version="1.1" id="Layer_1" xmlns="http://www.w3.org/2000/svg" xmlns:xlink="http://www.w3.org/1999/xlink" width="30px" height="30px" viewBox="0 0 32 32" class="arfsvgposition">
	<path fill="#3f74e7" d="M12.269,6.24c0-2.977-2.413-5.39-5.39-5.39S1.489,3.263,1.489,6.24s2.414,5.391,5.391,5.391    S12.269,9.216,12.269,6.24z M6.879,10.283c-2.229,0-4.043-1.813-4.043-4.043S4.65,2.197,6.879,2.197s4.042,1.813,4.042,4.043    S9.109,10.283,6.879,10.283z M15.145,12.671l-3.173-3.173c-0.474,0.735-1.1,1.36-1.834,1.833l3.174,3.174    c0.506,0.507,1.327,0.507,1.833,0C15.652,14,15.652,13.178,15.145,12.671z" />
</svg>