<?xml version="1.0" encoding="utf-8"?>
<!-- Generator: Adobe Illustrator 27.3.1, SVG Export Plug-In . SVG Version: 6.00 Build 0)  -->
<svg version="1.1" id="Layer_1" xmlns="http://www.w3.org/2000/svg" xmlns:xlink="http://www.w3.org/1999/xlink" x="0px" y="0px"
	 viewBox="0 0 795.3 851" style="enable-background:new 0 0 795.3 851;" xml:space="preserve">
<style type="text/css">
	.st0{fill:#5A9FF2;}
</style>
<g>
	<path class="st0" d="M680.4,723.3c-10.1-9.6-8.8-21.1-8.4-34.1c1.3-19.9,5.2-42.8,6.6-64.6c0.1-1.7,0.7-10.3,0.7-11.9
		c0.1-12.9-2.4-27.1-5.8-38.5c-13-40.8-38-74-69.8-99.5l75.9-39.2c7.2-3.7,9.7-12.7,5.6-19.6L440.3,6.8c-7.3-12.2-26-7-26,7.2v261.5
		c19.9,6.9,34.2,25.8,34.2,48c0,28.1-22.8,50.8-50.9,50.8s-50.9-22.8-50.9-50.8c0-22.2,14.3-41.1,34.2-48V14
		c0-14.2-18.7-19.4-26-7.2L110.2,416c-4.1,6.9-1.6,15.9,5.6,19.6l75.9,39.2c-19.1,15.4-35.9,33.7-49.5,55.1
		c-14.7,23.4-25.8,52-26.2,81.2c0.6,25.7,5.8,54,7.3,78.1c0.2,9.6,1.2,17.5-2.5,26c-10.4,17.5-30.8,27.2-54.4,34.7
		c-20.2,6-42.5,9.1-66.5,9.5c60.3,45.9,171.9,44.2,200.7-38.3c12.2-33.7,11.4-68.6,17-102c1-4.2,2.4-6.3,4.1-9.1
		c11.8-18.5,27.8-32.4,46.4-42.6c-0.2,2.2-0.3,4.4-0.3,6.5c-1.1,37.1,5.9,73,7.5,108.4c1.7,26.6,2.5,50.9-0.8,75.4
		c-1.5,10.2-3.4,19.6-8.2,28.1c-21.2,27-78,31.2-112.7,32.2c9.7,7.2,20.3,13.2,31.6,18.2c37.9,16,81.3,22.8,120.1,0.6
		c47.7-29.5,56-102.4,61.8-152.6c2.2-24.1,3.5-47.8,4.7-70.1c2.6-20.5,7.1-44.9,22.3-58.4c1.2-1,2.4-1.9,3.7-2.7
		c5.2,3.6,9.6,8.3,13.2,14.6c7.3,12.8,11,30.8,12.8,46.5c1.1,22.3,2.4,46.1,4.7,70.1c9.2,91.6,31.4,185,146.1,163.5
		c24.5-5.1,47.3-15.1,67.3-29.6c-34.9-1-91.4-5.2-112.7-32.2c-6.9-12.4-8.4-27.3-9.7-41.8c-2.8-41.5,2.7-85.1,6.4-128.3
		c1.5-13,2.4-27,1.8-41.7c-0.1-2.2-0.2-4.4-0.3-6.5c18.7,10.2,35.2,23.8,46.4,42.6c0.9,1.4,2.5,3.6,3.8,7.2
		c2.2,14.1,3.6,27.1,5.2,42.4c2.9,27.3,7,60.3,24,84.9c26.1,38.9,77.8,50.5,120.8,43c25.3-4.2,48.6-14,68-28.3
		C754.8,758.4,707.4,750.3,680.4,723.3z M300.9,508.9c-28.1,0-50.8-22.8-50.8-50.8c0-28.1,22.8-50.9,50.8-50.9
		c28.1,0,50.9,22.8,50.9,50.9C351.8,486.1,329,508.9,300.9,508.9z M494.4,508.9c-28.1,0-50.9-22.8-50.9-50.8
		c0-28.1,22.8-50.9,50.9-50.9s50.9,22.8,50.9,50.9C545.2,486.1,522.5,508.9,494.4,508.9z"/>
</g>
</svg>
