<svg width="18" height="18" viewBox="0 0 18 18" fill="none" xmlns="http://www.w3.org/2000/svg">
<path fill-rule="evenodd" clip-rule="evenodd" d="M17.8242 7.34051H17.1V7.30577H9V10.694H14.0871C13.3436 12.6661 11.3502 14.0822 9 14.0822C6.01699 14.0822 3.6 11.8074 3.6 8.99989C3.6 6.19235 6.01699 3.91753 9 3.91753C10.3764 3.91753 11.6297 4.40558 12.5824 5.20466L15.1277 2.80908C13.5211 1.39952 11.3713 0.529297 9 0.529297C4.02891 0.529297 0 4.32121 0 8.99989C0 13.6786 4.02891 17.4705 9 17.4705C13.9711 17.4705 18 13.6786 18 8.99989C18 8.43242 17.9385 7.87819 17.8242 7.34051Z" fill="#FFC107"/>
<path fill-rule="evenodd" clip-rule="evenodd" d="M1.03809 5.05742L3.99648 7.09897C4.79629 5.23444 6.7334 3.91753 9.00098 3.91753C10.3773 3.91753 11.6307 4.40558 12.5834 5.20466L15.1287 2.80908C13.5221 1.39952 11.3723 0.529297 9.00098 0.529297C5.54336 0.529297 2.54629 2.36569 1.03809 5.05742Z" fill="#FF3D00"/>
<path fill-rule="evenodd" clip-rule="evenodd" d="M9.00063 17.4711C11.3245 17.4711 13.4374 16.6339 15.0352 15.2724L12.2491 13.0538C11.3456 13.6974 10.2223 14.0828 9.00063 14.0828C6.65923 14.0828 4.6729 12.6783 3.92407 10.7178L0.988525 12.8453C2.47739 15.5884 5.50259 17.4711 9.00063 17.4711Z" fill="#4CAF50"/>
<path fill-rule="evenodd" clip-rule="evenodd" d="M17.8242 7.34163H17.1V7.30688H9V10.6951H14.0871C13.7303 11.6431 13.0816 12.4587 12.2467 13.0543C12.2484 13.0543 12.2484 13.0543 12.2484 13.0543L15.0346 15.2729C14.8377 15.44 18 13.2363 18 9.001C18 8.43354 17.9385 7.87931 17.8242 7.34163Z" fill="#1976D2"/>
</svg>
