<?xml version="1.0" encoding="utf-8"?>
<!-- Generator: Adobe Illustrator 16.0.0, SVG Export Plug-In . SVG Version: 6.00 Build 0)  -->
<!DOCTYPE svg PUBLIC "-//W3C//DTD SVG 1.1//EN" "http://www.w3.org/Graphics/SVG/1.1/DTD/svg11.dtd">
<svg version="1.1" id="Layer_1" xmlns="http://www.w3.org/2000/svg" xmlns:xlink="http://www.w3.org/1999/xlink" x="0px" y="0px"
	 width="36px" height="36px" viewBox="0 0 36 36" enable-background="new 0 0 36 36" xml:space="preserve">
<polygon fill="#1E1E1E" points="31.092,12.477 29.648,13.861 32.56,16.896 19,16.896 19,3.868 22.005,6.998 23.448,5.613 
	18.127,0.069 12.581,5.392 13.966,6.835 17,3.923 17,16.896 3.384,16.896 6.515,13.891 5.13,12.447 -0.414,17.768 4.908,23.314 
	6.352,21.93 3.44,18.896 17,18.896 17,33.101 13.995,29.969 12.552,31.354 17.871,36.897 23.419,31.575 22.034,30.132 19,33.043 
	19,18.896 32.616,18.896 29.485,21.9 30.87,23.344 36.414,18.023 "/>
</svg>
