<?xml version="1.0" encoding="utf-8"?>
<!-- Generator: Adobe Illustrator 19.1.0, SVG Export Plug-In . SVG Version: 6.00 Build 0)  -->
<svg version="1.1" id="Layer_1" xmlns="http://www.w3.org/2000/svg" xmlns:xlink="http://www.w3.org/1999/xlink" x="0px" y="0px"
	 viewBox="0 0 64 64" enable-background="new 0 0 64 64" xml:space="preserve">
<g id="Right-arrow">
	<path d="M29.7070007,17.2929993c-0.3906002-0.3906994-1.0234013-0.3906994-1.4140015,0
		c-0.3906994,0.3906002-0.3906994,1.0234013,0,1.4140015L41.5858994,32L28.2929993,45.2929993
		c-0.3906994,0.3906021-0.3906994,1.0233994,0,1.4140015C28.4883003,46.9023018,28.7441006,47,29,47
		c0.2558002,0,0.5116997-0.0976982,0.7070007-0.2929993l14-14c0.3905983-0.3906021,0.3905983-1.0234013,0-1.4140015
		L29.7070007,17.2929993z"/>
	<path d="M32,0C14.3268995,0,0,14.3268003,0,32c0,17.6730995,14.3268995,32,32,32s32-14.3269005,32-32
		C64,14.3268003,49.6730995,0,32,0z M32,62C15.4579,62,2,48.542099,2,32S15.4579,2,32,2c16.5419998,0,30,13.4579,30,30
		S48.5419998,62,32,62z"/>
</g>
<g>
</g>
<g>
</g>
<g>
</g>
<g>
</g>
<g>
</g>
<g>
</g>
<g>
</g>
<g>
</g>
<g>
</g>
<g>
</g>
<g>
</g>
<g>
</g>
<g>
</g>
<g>
</g>
<g>
</g>
</svg>
