<?xml version="1.0" encoding="utf-8"?>
<!-- Generator: Adobe Illustrator 16.0.0, SVG Export Plug-In . SVG Version: 6.00 Build 0)  -->
<!DOCTYPE svg PUBLIC "-//W3C//DTD SVG 1.1//EN" "http://www.w3.org/Graphics/SVG/1.1/DTD/svg11.dtd">
<svg version="1.1" id="Layer_1" xmlns="http://www.w3.org/2000/svg" xmlns:xlink="http://www.w3.org/1999/xlink" x="0px" y="0px"
	 width="36px" height="36px" viewBox="0 0 36 36" enable-background="new 0 0 36 36" xml:space="preserve">
<g>
	<path fill="#ffffff" d="M33.3,8.5H30.9H5.1H2.7v2H5.1v19.4c0,4.19,2.281,6.1,4.4,6.1h17c2.119,0,4.4-1.909,4.4-6.1V10.5H33.3V8.5z
		 M28.9,29.9c0,2.691-1.208,4.1-2.4,4.1h-17c-1.192,0-2.4-1.408-2.4-4.1V10.5H28.9V29.9z"/>
	<rect x="20.4" y="14.6" fill="#ffffff" width="2" height="15.301"/>
	<rect x="13.6" y="14.6" fill="#ffffff" width="2" height="15.301"/>
	<polygon fill="#ffffff" points="13.05,2 22.95,2 22.95,6.1 24.95,6.1 24.95,0 11.05,0 11.05,6.1 13.05,6.1 	"/>
</g>
</svg>
