<?xml version="1.0" encoding="utf-8"?>
<!-- Generator: Adobe Illustrator 24.2.0, SVG Export Plug-In . SVG Version: 6.00 Build 0)  -->
<svg version="1.1" id="Layer_1" xmlns="http://www.w3.org/2000/svg" xmlns:xlink="http://www.w3.org/1999/xlink" x="0px" y="0px"
	 viewBox="0 0 20 20" style="enable-background:new 0 0 20 20;" xml:space="preserve">
<style type="text/css">
	.st0{fill:#4C81EB;}
</style>
<g>
	<path class="st0" d="M8.3,8.4c0-0.6-0.6-0.8-1.1-0.8H6v1.6h1.2C7.8,9.2,8.3,9,8.3,8.4z"/>
	<path class="st0" d="M7.3,10.7H6l0,1.7h1.5c0.5,0,1.1-0.2,1.1-0.9C8.7,10.8,7.9,10.7,7.3,10.7z"/>
	<path class="st0" d="M10,0.2c-5.4,0-9.8,4.4-9.8,9.8s4.4,9.8,9.8,9.8s9.8-4.4,9.8-9.8S15.4,0.2,10,0.2z M7.5,13.8H4.4V6.2h2.8
		c1.3,0,2.8,0.3,2.8,1.9C10,9,9.5,9.6,8.7,9.8v0c1,0.1,1.7,0.9,1.7,1.9C10.4,13.3,8.8,13.8,7.5,13.8z M15.6,13.8H11v-1.6l2.7-2.3H11
		V8.6h4.5v1.6l-2.8,2.4h2.9V13.8z"/>
</g>
</svg>
