<svg width="35" height="35" viewBox="0 0 35 35" fill="none" xmlns="http://www.w3.org/2000/svg">
<circle cx="17.5" cy="17.5" r="17.5" fill="#5A9CF8"/>
<path d="M13.75 13.75V10.75C13.75 10.5511 13.829 10.3603 13.9697 10.2197C14.1103 10.079 14.3011 10 14.5 10H24.25C24.4489 10 24.6397 10.079 24.7803 10.2197C24.921 10.3603 25 10.5511 25 10.75V20.5C25 20.6989 24.921 20.8897 24.7803 21.0303C24.6397 21.171 24.4489 21.25 24.25 21.25H21.25V24.2448C21.25 24.6618 20.9133 25 20.4948 25H10.7553C10.656 25.0001 10.5578 24.9806 10.4661 24.9427C10.3744 24.9048 10.2911 24.8492 10.221 24.779C10.1508 24.7089 10.0952 24.6256 10.0573 24.5339C10.0194 24.4422 9.9999 24.344 10 24.2448L10.0023 14.5052C10.0023 14.0882 10.339 13.75 10.7575 13.75H13.75ZM15.25 13.75H20.4948C20.9118 13.75 21.25 14.0867 21.25 14.5052V19.75H23.5V11.5H15.25V13.75ZM14.8773 22L19.1193 17.7573L18.0588 16.6967L14.8773 19.879L13.285 18.2875L12.2245 19.348L14.8773 22Z" fill="white"/>
</svg>
