
<svg width="64" height="64" viewBox="0 0 64 64" fill="none" xmlns="http://www.w3.org/2000/svg">
<g clip-path="url(#clip0_2018_3100)">
<path d="M0 17.5192C0 14.0927 0.981818 11.1764 3.09091 9.09863L6.72727 12.7439C2.69091 16.7902 6.21818 29.3664 17.7455 40.922C29.2727 52.4775 41.8182 56.0134 45.8545 51.9672L49.4909 55.6125C42.6545 62.4656 27.1273 57.5809 14.1091 44.5672C5.09091 35.4905 0 25.2472 0 17.5192Z" fill="#009A46"/>
<path d="M22.9449 58.7471C19.5267 58.7471 16.6176 57.7629 14.5449 55.6486L18.1813 52.0033C22.2176 56.0496 34.7631 52.5136 46.2904 40.9581C57.8177 29.4025 61.3449 16.8263 57.3086 12.78L60.9449 9.13477C67.7813 15.9879 62.9086 31.5533 49.9267 44.6034C40.8722 53.6437 30.6176 58.7471 22.9449 58.7471Z" fill="#FF5805"/>
<path d="M51.0902 39.3907C48.872 33.0115 44.3629 26.1948 38.3993 20.2165C25.3811 7.16641 9.85385 2.31818 3.01748 9.13486C2.54476 9.6452 2.98112 10.8481 3.96294 11.8324C4.94476 12.8166 6.18112 13.254 6.65385 12.7801C10.6902 8.73388 23.2357 12.2698 34.7629 23.8254C40.2175 29.2933 44.2902 35.4174 46.2538 41.0675C47.9629 46.0251 47.8175 50.0349 45.8175 52.0399C45.3448 52.5137 45.7448 53.7167 46.7629 54.7374C47.7811 55.758 48.9811 56.159 49.4538 55.6851C52.9448 52.1492 53.5266 46.3532 51.0902 39.3907Z" fill="#F5AFCB"/>
<path d="M60.9097 9.13493C57.4188 5.63546 51.637 5.05221 44.6915 7.4581C38.3279 9.68172 31.5279 14.2019 25.5643 20.1801C12.5461 33.2303 7.70973 48.7956 14.5461 55.6488C15.0188 56.1226 16.2552 55.7217 17.237 54.701C18.2188 53.6803 18.6552 52.4774 18.1825 52.0035C14.1461 47.9572 17.6734 35.381 29.2006 23.8254C34.6552 18.3575 40.7643 14.2748 46.3643 12.3063C51.3097 10.593 55.3097 10.7389 57.3097 12.7438C57.7825 13.2176 58.9825 12.8167 60.0006 11.796C61.0188 10.7753 61.4188 9.64527 60.9097 9.13493Z" fill="#FF9B00"/>
</g>
<defs>
<clipPath id="clip0_2018_3100">
<rect width="64" height="52.7473" fill="white" transform="translate(0 6)"/>
</clipPath>
</defs>
</svg>
