<svg width="35" height="35" viewBox="0 0 35 35" fill="none" xmlns="http://www.w3.org/2000/svg">
<circle cx="17.5" cy="17.5" r="17.5" fill="#5A9CF8"/>
<path d="M10 10V25H25V10H10ZM22.45 20.7325H20.8675V17.125C20.8655 16.7822 20.7279 16.4541 20.4848 16.2124C20.2417 15.9707 19.9128 15.835 19.57 15.835H19.4425C19.1175 15.8763 18.8182 16.0332 18.5993 16.2769C18.3804 16.5206 18.2564 16.835 18.25 17.1625V20.7325H16.69V17.1325C16.688 16.7897 16.5504 16.4616 16.3073 16.2199C16.0642 15.9782 15.7353 15.8425 15.3925 15.8425H15.25C14.9318 15.892 14.6414 16.0524 14.43 16.2953C14.2187 16.5382 14.1 16.848 14.095 17.17V20.7325H12.595V17.125C12.602 16.5596 12.7766 16.009 13.0967 15.5429C13.4168 15.0768 13.868 14.7161 14.3931 14.5066C14.9183 14.297 15.4938 14.2479 16.0469 14.3656C16.5999 14.4832 17.1056 14.7623 17.5 15.1675C17.7681 14.8837 18.0913 14.6574 18.4498 14.5027C18.8083 14.348 19.1945 14.2679 19.585 14.2675H19.84C20.5635 14.3428 21.2299 14.6949 21.7 15.25C22.1808 15.7889 22.4476 16.4853 22.45 17.2075V20.7325Z" fill="white"/>
</svg>
