<svg width="35" height="35" viewBox="0 0 35 35" fill="none" xmlns="http://www.w3.org/2000/svg">
<circle cx="17.5" cy="17.5" r="17.5" fill="#5A9CF8"/>
<path d="M15.88 16.3975H14.5V20.5H15.85L15.88 16.3975Z" fill="white"/>
<path d="M20.4995 16.3975H19.1045V20.5H20.4995V16.3975Z" fill="white"/>
<path d="M18.1824 16.3975H16.8174V20.5H18.1824V16.3975Z" fill="white"/>
<path d="M10 10V25H25V10H10ZM12.7225 14.65C13 14.5 13.2925 14.395 13.5775 14.2675L17.2375 12.61C17.3174 12.573 17.4044 12.5539 17.4925 12.5539C17.5806 12.5539 17.6676 12.573 17.7475 12.61L22.2475 14.635C22.3197 14.6678 22.3836 14.7166 22.4342 14.7777C22.4849 14.8387 22.521 14.9105 22.54 14.9875V15.16V15.2275C22.5098 15.3114 22.455 15.3842 22.3827 15.4364C22.3105 15.4886 22.2241 15.5177 22.135 15.52H13C12.8992 15.5226 12.7991 15.5021 12.7075 15.46C12.6303 15.4259 12.5656 15.3686 12.5226 15.296C12.4796 15.2233 12.4603 15.1391 12.4675 15.055C12.4658 14.97 12.489 14.8863 12.5343 14.8143C12.5796 14.7423 12.6451 14.6852 12.7225 14.65ZM13.4725 16.39C13.4154 16.3881 13.3612 16.3646 13.3208 16.3242C13.2804 16.2838 13.2569 16.2296 13.255 16.1725C13.2528 16.1152 13.2725 16.0593 13.3102 16.0161C13.3478 15.9729 13.4005 15.9457 13.4575 15.94H21.5125C21.5715 15.9438 21.6269 15.97 21.6673 16.0132C21.7077 16.0564 21.7301 16.1133 21.73 16.1725C21.73 16.2322 21.7063 16.2894 21.6641 16.3316C21.6219 16.3738 21.5647 16.3975 21.505 16.3975H21.4V20.5H21.5275C21.6442 20.5039 21.7549 20.553 21.836 20.637C21.9172 20.721 21.9626 20.8332 21.9625 20.95C21.9628 21.0663 21.9187 21.1784 21.8393 21.2633C21.7599 21.3483 21.6511 21.3999 21.535 21.4075H13.57C13.4778 21.4115 13.3859 21.3962 13.3 21.3625C13.2064 21.3244 13.1291 21.2549 13.0812 21.1659C13.0333 21.077 13.0178 20.9741 13.0375 20.875C13.0533 20.7722 13.1049 20.6783 13.183 20.6097C13.2612 20.5412 13.361 20.5023 13.465 20.5H13.5925V16.3975L13.4725 16.39ZM22.2925 22.45H12.7C12.5946 22.45 12.4935 22.4081 12.4189 22.3336C12.3444 22.259 12.3025 22.1579 12.3025 22.0525C12.3025 21.9471 12.3444 21.846 12.4189 21.7714C12.4935 21.6969 12.5946 21.655 12.7 21.655H22.2925C22.3979 21.655 22.499 21.6969 22.5736 21.7714C22.6481 21.846 22.69 21.9471 22.69 22.0525C22.69 22.1579 22.6481 22.259 22.5736 22.3336C22.499 22.4081 22.3979 22.45 22.2925 22.45Z" fill="white"/>
</svg>
