<svg width="35" height="35" viewBox="0 0 35 35" fill="none" xmlns="http://www.w3.org/2000/svg">
<circle cx="17.5" cy="17.5" r="17.5" fill="#5A9CF8"/>
<path d="M10 10V25H25V10H10ZM19.8175 21.8725C19.0153 22.2956 18.1131 22.4926 17.2075 22.4425C16.6742 22.411 16.1496 22.2919 15.655 22.09C15.6232 22.0812 15.5958 22.0611 15.5778 22.0335C15.5599 22.0058 15.5526 21.9726 15.5575 21.94V19.8325C15.5544 19.7951 15.5544 19.7574 15.5575 19.72L15.7075 19.8475C16.1688 20.2195 16.7299 20.4465 17.32 20.5C18.0239 20.5639 18.7272 20.3715 19.3005 19.958C19.8737 19.5446 20.2784 18.9381 20.44 18.25C20.5815 17.7241 20.5826 17.1703 20.4431 16.6438C20.3036 16.1174 20.0284 15.6368 19.645 15.25C19.1604 14.7309 18.494 14.4192 17.785 14.38C17.3963 14.3509 17.0057 14.4025 16.6379 14.5316C16.27 14.6607 15.9328 14.8644 15.6475 15.13L15.5575 15.1975V14.5375H14.62V21.5125L14.5 21.4375C13.49 20.6924 12.8138 19.5797 12.6175 18.34C12.4949 17.668 12.5178 16.9775 12.6847 16.315C12.8516 15.6526 13.1586 15.0337 13.585 14.5C13.9688 13.9918 14.4494 13.5644 14.999 13.2427C15.5486 12.9209 16.1564 12.711 16.7875 12.625C17.9389 12.4633 19.1104 12.7127 20.0961 13.3294C21.0818 13.946 21.8185 14.8904 22.1768 15.9966C22.535 17.1027 22.4919 18.2997 22.0549 19.3771C21.6179 20.4546 20.815 21.3434 19.7875 21.8875L19.8175 21.8725ZM15.5875 17.4325C15.5631 16.8786 15.7594 16.3377 16.1335 15.9285C16.5075 15.5193 17.0287 15.2753 17.5825 15.25C18.1363 15.2753 18.6575 15.5193 19.0315 15.9285C19.4056 16.3377 19.6019 16.8786 19.5775 17.4325C19.6019 17.9864 19.4056 18.5273 19.0315 18.9365C18.6575 19.3457 18.1363 19.5897 17.5825 19.615C17.0287 19.5897 16.5075 19.3457 16.1335 18.9365C15.7594 18.5273 15.5631 17.9864 15.5875 17.4325Z" fill="white"/>
</svg>
