<svg width="35" height="35" viewBox="0 0 35 35" fill="none" xmlns="http://www.w3.org/2000/svg">
<circle cx="17.5" cy="17.5" r="17.5" fill="#5A9CF8"/>
<path d="M10 10V25H25V10H10ZM12.5575 13.105C12.5565 13.0361 12.5691 12.9676 12.5946 12.9035C12.62 12.8394 12.6579 12.781 12.7059 12.7316C12.754 12.6821 12.8113 12.6426 12.8747 12.6153C12.938 12.588 13.0061 12.5735 13.075 12.5725H21.4075C21.4781 12.5725 21.5479 12.5865 21.613 12.6137C21.6781 12.641 21.7372 12.6809 21.7867 12.7311C21.8363 12.7814 21.8753 12.8409 21.9016 12.9064C21.928 12.9719 21.941 13.0419 21.94 13.1125V14.05C21.9361 14.1893 21.8786 14.3217 21.7793 14.4196C21.6801 14.5174 21.5469 14.5731 21.4075 14.575H13.075C12.9371 14.573 12.8054 14.5168 12.7086 14.4186C12.6118 14.3204 12.5575 14.1879 12.5575 14.05V13.105ZM18.25 21.91C18.2481 22.0466 18.1929 22.1772 18.0963 22.2738C17.9997 22.3704 17.8691 22.4256 17.7325 22.4275H13.075C13.0061 22.4265 12.938 22.412 12.8747 22.3847C12.8113 22.3574 12.754 22.3179 12.7059 22.2684C12.6579 22.219 12.62 22.1606 12.5946 22.0965C12.5691 22.0324 12.5565 21.9639 12.5575 21.895V20.95C12.559 20.8129 12.6127 20.6815 12.7075 20.5825C12.7547 20.5325 12.8117 20.4927 12.8749 20.4656C12.9381 20.4385 13.0062 20.4247 13.075 20.425H17.77C17.8399 20.4238 17.9093 20.4371 17.9737 20.4642C18.0382 20.4913 18.0962 20.5316 18.1442 20.5824C18.1922 20.6332 18.2291 20.6935 18.2525 20.7594C18.2759 20.8253 18.2852 20.8953 18.28 20.965L18.25 21.91ZM21.91 19.285C21.908 19.4249 21.8511 19.5584 21.7514 19.6567C21.6518 19.7549 21.5174 19.81 21.3775 19.81H13.075C13.0064 19.81 12.9385 19.7964 12.8752 19.7699C12.8119 19.7434 12.7545 19.7046 12.7064 19.6558C12.6582 19.6069 12.6203 19.549 12.5947 19.4853C12.5692 19.4217 12.5565 19.3536 12.5575 19.285V18.34C12.5557 18.2706 12.568 18.2015 12.5938 18.137C12.6196 18.0725 12.6583 18.014 12.7075 17.965C12.7547 17.915 12.8117 17.8752 12.8749 17.8481C12.9381 17.821 13.0062 17.8072 13.075 17.8075H21.4075C21.5481 17.8094 21.6824 17.8662 21.7819 17.9656C21.8813 18.0651 21.9381 18.1994 21.94 18.34L21.91 19.285ZM22.4125 16.66C22.4135 16.7289 22.4009 16.7974 22.3754 16.8615C22.35 16.9256 22.3121 16.984 22.2641 17.0334C22.216 17.0829 22.1587 17.1224 22.0953 17.1497C22.032 17.177 21.9639 17.1915 21.895 17.1925H13.075C13.0061 17.1915 12.938 17.177 12.8747 17.1497C12.8113 17.1224 12.754 17.0829 12.7059 17.0334C12.6579 16.984 12.62 16.9256 12.5946 16.8615C12.5691 16.7974 12.5565 16.7289 12.5575 16.66V15.715C12.5607 15.576 12.614 15.4429 12.7075 15.34C12.8056 15.2438 12.9376 15.19 13.075 15.19H21.94C22.0076 15.191 22.0744 15.2054 22.1364 15.2324C22.1984 15.2594 22.2544 15.2984 22.3012 15.3473C22.3479 15.3962 22.3845 15.4538 22.4088 15.517C22.433 15.5801 22.4445 15.6474 22.4425 15.715L22.4125 16.66Z" fill="white"/>
</svg>
