<svg width="35" height="35" viewBox="0 0 35 35" fill="none" xmlns="http://www.w3.org/2000/svg">
<circle cx="17.5" cy="17.5" r="17.5" fill="#5A9CF8"/>
<path d="M10 10V25H17.5H25V10H10ZM22.45 20.7925C22.45 21.0098 22.4071 21.225 22.3237 21.4257C22.2403 21.6263 22.1181 21.8086 21.9641 21.9619C21.8101 22.1152 21.6273 22.2366 21.4262 22.3191C21.2252 22.4015 21.0098 22.4435 20.7925 22.4425H14.2075C13.9905 22.4435 13.7755 22.4015 13.5749 22.3189C13.3743 22.2364 13.192 22.1149 13.0386 21.9614C12.8851 21.808 12.7636 21.6257 12.6811 21.4251C12.5985 21.2245 12.5565 21.0095 12.5575 20.7925V14.2075C12.5565 13.9905 12.5985 13.7755 12.6811 13.5749C12.7636 13.3743 12.8851 13.192 13.0386 13.0386C13.192 12.8851 13.3743 12.7636 13.5749 12.6811C13.7755 12.5985 13.9905 12.5565 14.2075 12.5575H20.7925C21.0098 12.5565 21.2252 12.5985 21.4262 12.6809C21.6273 12.7634 21.8101 12.8848 21.9641 13.0381C22.1181 13.1914 22.2403 13.3737 22.3237 13.5743C22.4071 13.775 22.45 13.9902 22.45 14.2075V20.7925Z" fill="white"/>
<path d="M20.1246 14.35H14.8746C14.7366 14.3538 14.6052 14.4103 14.5076 14.508C14.4099 14.6056 14.3534 14.737 14.3496 14.875V20.125C14.3496 20.2642 14.4049 20.3978 14.5034 20.4962C14.6018 20.5947 14.7354 20.65 14.8746 20.65H20.1246C20.2638 20.65 20.3974 20.5947 20.4958 20.4962C20.5943 20.3978 20.6496 20.2642 20.6496 20.125V14.875C20.6496 14.7358 20.5943 14.6022 20.4958 14.5038C20.3974 14.4053 20.2638 14.35 20.1246 14.35V14.35ZM18.8496 18.55C18.8499 18.5893 18.8421 18.6283 18.8266 18.6644C18.8111 18.7006 18.7883 18.7331 18.7596 18.76C18.7333 18.7894 18.7009 18.8128 18.6646 18.8283C18.6283 18.8439 18.5891 18.8513 18.5496 18.85H16.4496C16.37 18.85 16.2937 18.8184 16.2375 18.7621C16.1812 18.7059 16.1496 18.6296 16.1496 18.55V16.45C16.1493 16.4107 16.1572 16.3717 16.1726 16.3356C16.1881 16.2995 16.2109 16.2669 16.2396 16.24C16.2659 16.2106 16.2983 16.1872 16.3346 16.1717C16.3709 16.1561 16.4102 16.1487 16.4496 16.15H18.5496C18.5891 16.1487 18.6283 16.1561 18.6646 16.1717C18.7009 16.1872 18.7333 16.2106 18.7596 16.24C18.7883 16.2669 18.8111 16.2995 18.8266 16.3356C18.8421 16.3717 18.8499 16.4107 18.8496 16.45V18.55Z" fill="white"/>
</svg>
