<svg width="35" height="35" viewBox="0 0 35 35" fill="none" xmlns="http://www.w3.org/2000/svg">
<circle cx="17.5" cy="17.5" r="17.5" fill="#5A9CF8"/>
<path d="M10 10V25H25V10H10ZM21.1 22.165H13.75C13.5759 22.1783 13.4011 22.1507 13.2395 22.0843C13.078 22.0178 12.9343 21.9145 12.82 21.7825C12.6569 21.6133 12.5657 21.3875 12.5657 21.1525C12.5657 20.9175 12.6569 20.6917 12.82 20.5225C13.7275 19.555 14.65 18.6025 15.5725 17.65C15.6163 17.6237 15.6646 17.6059 15.715 17.5975V19.375H17.5L16.8775 20.035H21.4225C22.0825 20.035 22.2925 20.2525 22.3 20.92C22.3375 22.045 22.2175 22.165 21.1 22.165ZM22.0375 14.74C21.085 15.7075 20.1475 16.6825 19.21 17.6575L19 17.8975L19.9975 18.8725L16 19.0825V15.0475L17.0575 16L18.055 14.9575H17.5675C16.4275 14.9575 15.3175 14.9575 14.155 14.9575C13.9853 14.9762 13.8148 14.9313 13.6762 14.8316C13.5377 14.7319 13.4411 14.5843 13.405 14.4175C13.329 14.1444 13.3011 13.8602 13.3225 13.5775C13.375 13.0225 13.6375 12.8275 14.1925 12.8275H21.1975C21.4454 12.815 21.691 12.8807 21.8996 13.0152C22.1081 13.1498 22.2692 13.3465 22.36 13.5775C22.4393 13.7801 22.4507 14.0029 22.3926 14.2125C22.3344 14.4221 22.2098 14.6072 22.0375 14.74V14.74Z" fill="white"/>
</svg>
