<svg width="35" height="35" viewBox="0 0 35 35" fill="none" xmlns="http://www.w3.org/2000/svg">
<circle cx="17.5" cy="17.5" r="17.5" fill="#5A9CF8"/>
<path d="M10 10V25H25V10H10ZM20.965 19.6225C20.9324 20.0339 20.806 20.4325 20.5954 20.7874C20.3847 21.1423 20.0955 21.4443 19.75 21.67C19.3642 21.9279 18.9347 22.1134 18.4825 22.2175C18.2875 22.2625 18.085 22.3 17.875 22.33C17.5058 22.3637 17.1342 22.3637 16.765 22.33H16.405H16.1275L15.5275 22.225C15.295 22.1725 15.055 22.1125 14.83 22.0375L14.2 21.775H14.14C14.14 21.775 14.14 21.775 14.14 21.7375V19.2025L14.335 19.3C14.7214 19.484 15.1229 19.6345 15.535 19.75C15.8626 19.8566 16.1989 19.9344 16.54 19.9825C16.809 20.0161 17.081 20.0161 17.35 19.9825C17.5095 19.9777 17.667 19.9447 17.815 19.885C17.9036 19.8535 17.9826 19.7996 18.0443 19.7287C18.106 19.6577 18.1485 19.5721 18.1675 19.48C18.1942 19.3656 18.1872 19.2459 18.1472 19.1354C18.1073 19.0249 18.0362 18.9284 17.9425 18.8575C17.8216 18.7635 17.6909 18.683 17.5525 18.6175C17.2075 18.4525 16.8025 18.34 16.4875 18.205C16.1725 18.07 15.985 18.025 15.7375 17.9125C15.3978 17.7649 15.0819 17.5677 14.8 17.3275C14.5661 17.1177 14.3772 16.8625 14.245 16.5775C14.1581 16.3938 14.0951 16.1997 14.0575 16C14.0237 15.7511 14.0237 15.4989 14.0575 15.25C14.0575 15.1675 14.0575 15.0775 14.0575 14.995C14.0996 14.7018 14.1909 14.4178 14.3275 14.155C14.5089 13.8123 14.7653 13.515 15.0775 13.285C15.3533 13.0556 15.665 12.8732 16 12.745C16.2431 12.6594 16.4945 12.5991 16.75 12.565L17.125 12.5125C17.3435 12.4813 17.5643 12.4688 17.785 12.475C18.025 12.475 18.2575 12.475 18.4975 12.475C19.0071 12.519 19.5102 12.6196 19.9975 12.775L20.4325 12.925C20.4775 12.925 20.4775 12.925 20.4775 12.985V15.5275H20.425C19.9744 15.2888 19.4957 15.1074 19 14.9875L18.76 14.95C18.6959 14.9315 18.6308 14.9164 18.565 14.905H18.295L17.845 14.86C17.6173 14.8432 17.3885 14.8686 17.17 14.935C17.099 14.954 17.0328 14.9879 16.9759 15.0344C16.919 15.081 16.8727 15.1391 16.84 15.205C16.7961 15.2988 16.7805 15.4035 16.7951 15.5061C16.8098 15.6086 16.8541 15.7047 16.9225 15.7825C17.0222 15.8731 17.1363 15.9466 17.26 16C17.4422 16.0897 17.6301 16.1673 17.8225 16.2325C18.1825 16.3525 18.5725 16.4725 18.91 16.615C19.2405 16.7371 19.5552 16.8982 19.8475 17.095C20.1041 17.263 20.3278 17.4765 20.5075 17.725C20.7104 18.0008 20.8488 18.3186 20.9125 18.655C20.9785 18.973 20.9962 19.2992 20.965 19.6225V19.6225Z" fill="white"/>
</svg>
