<svg xmlns="http://www.w3.org/2000/svg" width="18" height="18" fill="none"><path fill="#fff" d="M17 6.7c-.6 0-2 .7-2 .7l-4-1.6v-.1l3.6 1.1.2-.1s1.7-1 2-1.4c.3-.2.6-1.1.6-1.1l-1.2.1c-.5.2-1.8 1.2-1.8 1.2L13 5.1l1.2-.2v-.5c0-3-1.5-4.2-1.6-4.2-.3-.2-1.2-.2-1.2-.2s.2.8.4 1c0 .1 1 .8 1.2 3l-1.9.3a2.3 2.3 0 00-2-1.5c-1 0-2 .7-2.2 1.5L5 4c.1-2 1.2-2.8 1.2-2.8L6.6 0s-.9 0-1.1.2c-.1 0-1.7 1.1-1.7 4.2v.5L5 5l-1.4.4s-1.3-1-1.8-1.2L.6 4.2s.3.9.6 1c.4.6 2 1.5 2 1.5l.3.1L7 5.7 3 7.5s-1.4-.6-2-.7L0 7l.7.8c.4.4 2 .8 2 .8H3l2.5-1-.2.2-3.5 2.4-.1.3s-.4 3.8.5 6.4c0 .3.9.8.9.8l.2-1.2c-.5-2.8-.7-4.9-.6-5.5L5 9.6c.2 2.2 2 5.6 4.1 5.6 2.2 0 4-3.4 4.1-5.6l2.2 1.4c.1.6 0 2.7-.6 5.5l.3 1.2s.8-.5.8-.8c1-2.6.6-6.4.6-6.4v-.2l-.2-.2-3.5-2.3-.2-.1 2.5 1 .2-.2s1.7-.4 2.1-.7L18 7l-1-.3z"/></svg>