<svg width="580" height="431" viewBox="0 0 580 431" fill="none" xmlns="http://www.w3.org/2000/svg">
<g id="Frame 7">
<g id="replace string" opacity="0.8">
<rect id="Rectangle 513" x="50" y="35" width="520" height="371" rx="10" fill="#F6FAFD"/>
<g id="bg" filter="url(#filter0_d)">
<path d="M30 25C30 19.4772 34.4772 15 40 15H540C545.523 15 550 19.4772 550 25V376C550 381.523 545.523 386 540 386H40C34.4772 386 30 381.523 30 376V25Z" fill="white"/>
</g>
<g id="fields">
<g id="form">
<g id="button">
<g id="Group 2159">
<g id="Group 2158">
<rect id="Rectangle 479" x="70" y="250.804" width="119" height="32" rx="5" fill="url(#paint0_linear)"/>
<path id="Add New Row" d="M92.612 268.704H88.148L87.224 270.804H85.988L89.792 262.404H90.98L94.796 270.804H93.536L92.612 268.704ZM92.192 267.744L90.38 263.628L88.568 267.744H92.192ZM101.822 261.9V270.804H100.718V269.796C100.462 270.148 100.138 270.416 99.7465 270.6C99.3545 270.784 98.9225 270.876 98.4505 270.876C97.8345 270.876 97.2825 270.74 96.7945 270.468C96.3065 270.196 95.9225 269.816 95.6425 269.328C95.3705 268.832 95.2345 268.264 95.2345 267.624C95.2345 266.984 95.3705 266.42 95.6425 265.932C95.9225 265.444 96.3065 265.064 96.7945 264.792C97.2825 264.52 97.8345 264.384 98.4505 264.384C98.9065 264.384 99.3265 264.472 99.7105 264.648C100.094 264.816 100.414 265.068 100.67 265.404V261.9H101.822ZM98.5465 269.868C98.9465 269.868 99.3105 269.776 99.6385 269.592C99.9665 269.4 100.222 269.136 100.406 268.8C100.59 268.456 100.682 268.064 100.682 267.624C100.682 267.184 100.59 266.796 100.406 266.46C100.222 266.116 99.9665 265.852 99.6385 265.668C99.3105 265.484 98.9465 265.392 98.5465 265.392C98.1385 265.392 97.7705 265.484 97.4425 265.668C97.1225 265.852 96.8665 266.116 96.6745 266.46C96.4905 266.796 96.3985 267.184 96.3985 267.624C96.3985 268.064 96.4905 268.456 96.6745 268.8C96.8665 269.136 97.1225 269.4 97.4425 269.592C97.7705 269.776 98.1385 269.868 98.5465 269.868ZM110.002 261.9V270.804H108.898V269.796C108.642 270.148 108.318 270.416 107.926 270.6C107.534 270.784 107.102 270.876 106.63 270.876C106.014 270.876 105.462 270.74 104.974 270.468C104.486 270.196 104.102 269.816 103.822 269.328C103.55 268.832 103.414 268.264 103.414 267.624C103.414 266.984 103.55 266.42 103.822 265.932C104.102 265.444 104.486 265.064 104.974 264.792C105.462 264.52 106.014 264.384 106.63 264.384C107.086 264.384 107.506 264.472 107.89 264.648C108.274 264.816 108.594 265.068 108.85 265.404V261.9H110.002ZM106.726 269.868C107.126 269.868 107.49 269.776 107.818 269.592C108.146 269.4 108.402 269.136 108.586 268.8C108.77 268.456 108.862 268.064 108.862 267.624C108.862 267.184 108.77 266.796 108.586 266.46C108.402 266.116 108.146 265.852 107.818 265.668C107.49 265.484 107.126 265.392 106.726 265.392C106.318 265.392 105.95 265.484 105.622 265.668C105.302 265.852 105.046 266.116 104.854 266.46C104.67 266.796 104.578 267.184 104.578 267.624C104.578 268.064 104.67 268.456 104.854 268.8C105.046 269.136 105.302 269.4 105.622 269.592C105.95 269.776 106.318 269.868 106.726 269.868ZM122.797 262.404V270.804H121.812L116.773 264.54V270.804H115.573V262.404H116.557L121.597 268.668V262.404H122.797ZM130.891 267.66C130.891 267.748 130.883 267.864 130.867 268.008H125.707C125.779 268.568 126.023 269.02 126.439 269.364C126.863 269.7 127.387 269.868 128.011 269.868C128.771 269.868 129.383 269.612 129.847 269.1L130.483 269.844C130.195 270.18 129.835 270.436 129.403 270.612C128.979 270.788 128.503 270.876 127.975 270.876C127.303 270.876 126.707 270.74 126.187 270.468C125.667 270.188 125.263 269.8 124.975 269.304C124.695 268.808 124.555 268.248 124.555 267.624C124.555 267.008 124.691 266.452 124.963 265.956C125.243 265.46 125.623 265.076 126.103 264.804C126.591 264.524 127.139 264.384 127.747 264.384C128.355 264.384 128.895 264.524 129.367 264.804C129.847 265.076 130.219 265.46 130.483 265.956C130.755 266.452 130.891 267.02 130.891 267.66ZM127.747 265.356C127.195 265.356 126.731 265.524 126.355 265.86C125.987 266.196 125.771 266.636 125.707 267.18H129.787C129.723 266.644 129.503 266.208 129.127 265.872C128.759 265.528 128.299 265.356 127.747 265.356ZM141.997 264.444L139.621 270.804H138.517L136.681 265.98L134.821 270.804H133.717L131.353 264.444H132.445L134.293 269.508L136.213 264.444H137.185L139.069 269.532L140.965 264.444H141.997ZM152.173 270.804L150.361 268.224C150.137 268.24 149.961 268.248 149.833 268.248H147.757V270.804H146.557V262.404H149.833C150.921 262.404 151.777 262.664 152.401 263.184C153.025 263.704 153.337 264.42 153.337 265.332C153.337 265.98 153.177 266.532 152.857 266.988C152.537 267.444 152.081 267.776 151.489 267.984L153.481 270.804H152.173ZM149.797 267.228C150.557 267.228 151.137 267.064 151.537 266.736C151.937 266.408 152.137 265.94 152.137 265.332C152.137 264.724 151.937 264.26 151.537 263.94C151.137 263.612 150.557 263.448 149.797 263.448H147.757V267.228H149.797ZM157.832 270.876C157.2 270.876 156.632 270.736 156.128 270.456C155.624 270.176 155.228 269.792 154.94 269.304C154.66 268.808 154.52 268.248 154.52 267.624C154.52 267 154.66 266.444 154.94 265.956C155.228 265.46 155.624 265.076 156.128 264.804C156.632 264.524 157.2 264.384 157.832 264.384C158.464 264.384 159.028 264.524 159.524 264.804C160.028 265.076 160.42 265.46 160.7 265.956C160.988 266.444 161.132 267 161.132 267.624C161.132 268.248 160.988 268.808 160.7 269.304C160.42 269.792 160.028 270.176 159.524 270.456C159.028 270.736 158.464 270.876 157.832 270.876ZM157.832 269.868C158.24 269.868 158.604 269.776 158.924 269.592C159.252 269.4 159.508 269.136 159.692 268.8C159.876 268.456 159.968 268.064 159.968 267.624C159.968 267.184 159.876 266.796 159.692 266.46C159.508 266.116 159.252 265.852 158.924 265.668C158.604 265.484 158.24 265.392 157.832 265.392C157.424 265.392 157.056 265.484 156.728 265.668C156.408 265.852 156.152 266.116 155.96 266.46C155.776 266.796 155.684 267.184 155.684 267.624C155.684 268.064 155.776 268.456 155.96 268.8C156.152 269.136 156.408 269.4 156.728 269.592C157.056 269.776 157.424 269.868 157.832 269.868ZM172.173 264.444L169.797 270.804H168.693L166.857 265.98L164.997 270.804H163.893L161.529 264.444H162.621L164.469 269.508L166.389 264.444H167.361L169.245 269.532L171.141 264.444H172.173Z" fill="white"/>
</g>
<rect id="Rectangle 480" x="132" y="245.046" width="6" height="2" rx="1" transform="rotate(-45 132 245.046)" fill="url(#paint1_linear)"/>
<rect id="Rectangle 481" x="128" y="234.804" width="6" height="2" rx="1" transform="rotate(90 128 234.804)" fill="url(#paint2_linear)"/>
<rect id="Rectangle 482" x="122.242" y="245.461" width="6" height="2" rx="1" transform="rotate(-135 122.242 245.461)" fill="url(#paint3_linear)"/>
</g>
<path id="Vector" d="M140.217 284.976L140.217 284.976L135.857 285.933C135.124 286.094 134.444 286.563 133.923 287.154C133.4 287.748 133.002 288.504 132.867 289.292C132.867 289.292 132.867 289.292 132.867 289.292L131.871 295.106C131.842 295.278 131.809 295.416 131.775 295.525C131.729 295.428 131.679 295.304 131.628 295.149L131.153 295.308L131.628 295.149L125.624 277.146C125.624 277.146 125.624 277.146 125.624 277.146C125.527 276.855 125.496 276.637 125.5 276.488C125.504 276.368 125.529 276.321 125.537 276.309C125.546 276.306 125.569 276.302 125.612 276.305C125.712 276.311 125.879 276.356 126.118 276.488L126.118 276.488L140.266 284.319C140.266 284.319 140.266 284.319 140.266 284.319C140.508 284.453 140.652 284.575 140.727 284.666C140.756 284.701 140.77 284.726 140.777 284.741C140.768 284.751 140.752 284.766 140.727 284.784C140.64 284.845 140.48 284.919 140.217 284.976ZM125.531 276.313C125.53 276.312 125.532 276.311 125.535 276.31C125.532 276.312 125.531 276.313 125.531 276.313ZM140.784 284.761C140.784 284.761 140.784 284.76 140.784 284.758L140.784 284.761ZM140.788 284.728C140.789 284.726 140.79 284.725 140.79 284.725C140.79 284.725 140.789 284.726 140.788 284.728Z" fill="#6B7581" stroke="white"/>
</g>
<g id="Group 2210">
<g id="Group 2201">
<circle id="Ellipse 83" cx="506" cy="161.804" r="7.75" transform="rotate(90 506 161.804)" fill="white" stroke="#465361" stroke-width="0.5"/>
<line id="Line 107" x1="503.349" y1="158.799" x2="509.005" y2="164.456" stroke="#465361" stroke-width="0.5"/>
<line id="Line 108" x1="509.005" y1="159.152" x2="503.348" y2="164.809" stroke="#465361" stroke-width="0.5"/>
</g>
<g id="Group 2149">
<g id="input text">
<rect id="bg_2" x="237.25" y="146.054" width="111.5" height="31.5" rx="4.75" fill="#F9FAFD" stroke="#E5EAEF" stroke-width="0.5"/>
<path id="abc" d="M250.408 159.384C251.288 159.384 251.96 159.6 252.424 160.032C252.896 160.464 253.132 161.108 253.132 161.964V165.804H252.04V164.964C251.848 165.26 251.572 165.488 251.212 165.648C250.86 165.8 250.44 165.876 249.952 165.876C249.24 165.876 248.668 165.704 248.236 165.36C247.812 165.016 247.6 164.564 247.6 164.004C247.6 163.444 247.804 162.996 248.212 162.66C248.62 162.316 249.268 162.144 250.156 162.144H251.98V161.916C251.98 161.42 251.836 161.04 251.548 160.776C251.26 160.512 250.836 160.38 250.276 160.38C249.9 160.38 249.532 160.444 249.172 160.572C248.812 160.692 248.508 160.856 248.26 161.064L247.78 160.2C248.108 159.936 248.5 159.736 248.956 159.6C249.412 159.456 249.896 159.384 250.408 159.384ZM250.144 164.988C250.584 164.988 250.964 164.892 251.284 164.7C251.604 164.5 251.836 164.22 251.98 163.86V162.972H250.204C249.228 162.972 248.74 163.3 248.74 163.956C248.74 164.276 248.864 164.528 249.112 164.712C249.36 164.896 249.704 164.988 250.144 164.988ZM258.636 159.384C259.252 159.384 259.804 159.52 260.292 159.792C260.78 160.064 261.16 160.444 261.432 160.932C261.712 161.42 261.852 161.984 261.852 162.624C261.852 163.264 261.712 163.832 261.432 164.328C261.16 164.816 260.78 165.196 260.292 165.468C259.804 165.74 259.252 165.876 258.636 165.876C258.164 165.876 257.732 165.784 257.34 165.6C256.948 165.416 256.624 165.148 256.368 164.796V165.804H255.264V156.9H256.416V160.404C256.672 160.068 256.992 159.816 257.376 159.648C257.76 159.472 258.18 159.384 258.636 159.384ZM258.54 164.868C258.948 164.868 259.312 164.776 259.632 164.592C259.96 164.4 260.216 164.136 260.4 163.8C260.592 163.456 260.688 163.064 260.688 162.624C260.688 162.184 260.592 161.796 260.4 161.46C260.216 161.116 259.96 160.852 259.632 160.668C259.312 160.484 258.948 160.392 258.54 160.392C258.14 160.392 257.776 160.484 257.448 160.668C257.12 160.852 256.864 161.116 256.68 161.46C256.496 161.796 256.404 162.184 256.404 162.624C256.404 163.064 256.496 163.456 256.68 163.8C256.864 164.136 257.12 164.4 257.448 164.592C257.776 164.776 258.14 164.868 258.54 164.868ZM266.216 165.876C265.568 165.876 264.988 165.736 264.476 165.456C263.972 165.176 263.576 164.792 263.288 164.304C263 163.808 262.856 163.248 262.856 162.624C262.856 162 263 161.444 263.288 160.956C263.576 160.46 263.972 160.076 264.476 159.804C264.988 159.524 265.568 159.384 266.216 159.384C266.792 159.384 267.304 159.5 267.752 159.732C268.208 159.964 268.56 160.3 268.808 160.74L267.932 161.304C267.732 161 267.484 160.772 267.188 160.62C266.892 160.468 266.564 160.392 266.204 160.392C265.788 160.392 265.412 160.484 265.076 160.668C264.748 160.852 264.488 161.116 264.296 161.46C264.112 161.796 264.02 162.184 264.02 162.624C264.02 163.072 264.112 163.468 264.296 163.812C264.488 164.148 264.748 164.408 265.076 164.592C265.412 164.776 265.788 164.868 266.204 164.868C266.564 164.868 266.892 164.792 267.188 164.64C267.484 164.488 267.732 164.26 267.932 163.956L268.808 164.508C268.56 164.948 268.208 165.288 267.752 165.528C267.304 165.76 266.792 165.876 266.216 165.876Z" fill="#465361"/>
</g>
<g id="input text_2">
<rect id="bg_3" x="365.25" y="146.054" width="124.5" height="31.5" rx="4.75" fill="#F9FAFD" stroke="#E5EAEF" stroke-width="0.5"/>
<path id="xyz" d="M380.148 165.804L378.312 163.368L376.452 165.804H375.168L377.676 162.552L375.288 159.444H376.572L378.324 161.736L380.064 159.444H381.324L378.924 162.552L381.456 165.804H380.148ZM387.978 159.444L384.894 166.44C384.622 167.088 384.302 167.544 383.934 167.808C383.574 168.072 383.138 168.204 382.626 168.204C382.314 168.204 382.01 168.152 381.714 168.048C381.426 167.952 381.186 167.808 380.994 167.616L381.486 166.752C381.814 167.064 382.194 167.22 382.626 167.22C382.906 167.22 383.138 167.144 383.322 166.992C383.514 166.848 383.686 166.596 383.838 166.236L384.042 165.792L381.234 159.444H382.434L384.654 164.532L386.85 159.444H387.978ZM393.652 164.856V165.804H388.324V165.06L392.08 160.392H388.396V159.444H393.556V160.2L389.8 164.856H393.652Z" fill="#465361"/>
</g>
<g id="input text_3">
<rect id="bg_4" x="72.25" y="146.054" width="148.5" height="31.5" rx="4.75" fill="#F9FAFD" stroke="#E5EAEF" stroke-width="0.5"/>
<g id="select control">
<path id="Polygon 1" d="M208 166.804L205 162.804L211 162.804L208 166.804Z" fill="#465361"/>
<path id="Polygon 2" d="M208 156.804L211 160.804H205L208 156.804Z" fill="#465361"/>
</g>
<path id="Product Category" d="M91.536 157.404C92.624 157.404 93.48 157.664 94.104 158.184C94.728 158.704 95.04 159.42 95.04 160.332C95.04 161.244 94.728 161.96 94.104 162.48C93.48 163 92.624 163.26 91.536 163.26H89.46V165.804H88.26V157.404H91.536ZM91.5 162.216C92.26 162.216 92.84 162.056 93.24 161.736C93.64 161.408 93.84 160.94 93.84 160.332C93.84 159.724 93.64 159.26 93.24 158.94C92.84 158.612 92.26 158.448 91.5 158.448H89.46V162.216H91.5ZM97.6335 160.512C97.8335 160.144 98.1295 159.864 98.5215 159.672C98.9135 159.48 99.3895 159.384 99.9495 159.384V160.5C99.8855 160.492 99.7975 160.488 99.6855 160.488C99.0615 160.488 98.5695 160.676 98.2095 161.052C97.8575 161.42 97.6815 161.948 97.6815 162.636V165.804H96.5295V159.444H97.6335V160.512ZM104.035 165.876C103.403 165.876 102.835 165.736 102.331 165.456C101.827 165.176 101.431 164.792 101.143 164.304C100.863 163.808 100.723 163.248 100.723 162.624C100.723 162 100.863 161.444 101.143 160.956C101.431 160.46 101.827 160.076 102.331 159.804C102.835 159.524 103.403 159.384 104.035 159.384C104.667 159.384 105.231 159.524 105.727 159.804C106.231 160.076 106.623 160.46 106.903 160.956C107.191 161.444 107.335 162 107.335 162.624C107.335 163.248 107.191 163.808 106.903 164.304C106.623 164.792 106.231 165.176 105.727 165.456C105.231 165.736 104.667 165.876 104.035 165.876ZM104.035 164.868C104.443 164.868 104.807 164.776 105.127 164.592C105.455 164.4 105.711 164.136 105.895 163.8C106.079 163.456 106.171 163.064 106.171 162.624C106.171 162.184 106.079 161.796 105.895 161.46C105.711 161.116 105.455 160.852 105.127 160.668C104.807 160.484 104.443 160.392 104.035 160.392C103.627 160.392 103.259 160.484 102.931 160.668C102.611 160.852 102.355 161.116 102.163 161.46C101.979 161.796 101.887 162.184 101.887 162.624C101.887 163.064 101.979 163.456 102.163 163.8C102.355 164.136 102.611 164.4 102.931 164.592C103.259 164.776 103.627 164.868 104.035 164.868ZM114.928 156.9V165.804H113.824V164.796C113.568 165.148 113.244 165.416 112.852 165.6C112.46 165.784 112.028 165.876 111.556 165.876C110.94 165.876 110.388 165.74 109.9 165.468C109.412 165.196 109.028 164.816 108.748 164.328C108.476 163.832 108.34 163.264 108.34 162.624C108.34 161.984 108.476 161.42 108.748 160.932C109.028 160.444 109.412 160.064 109.9 159.792C110.388 159.52 110.94 159.384 111.556 159.384C112.012 159.384 112.432 159.472 112.816 159.648C113.2 159.816 113.52 160.068 113.776 160.404V156.9H114.928ZM111.652 164.868C112.052 164.868 112.416 164.776 112.744 164.592C113.072 164.4 113.328 164.136 113.512 163.8C113.696 163.456 113.788 163.064 113.788 162.624C113.788 162.184 113.696 161.796 113.512 161.46C113.328 161.116 113.072 160.852 112.744 160.668C112.416 160.484 112.052 160.392 111.652 160.392C111.244 160.392 110.876 160.484 110.548 160.668C110.228 160.852 109.972 161.116 109.78 161.46C109.596 161.796 109.504 162.184 109.504 162.624C109.504 163.064 109.596 163.456 109.78 163.8C109.972 164.136 110.228 164.4 110.548 164.592C110.876 164.776 111.244 164.868 111.652 164.868ZM123.036 159.444V165.804H121.944V164.844C121.712 165.172 121.404 165.428 121.02 165.612C120.644 165.788 120.232 165.876 119.784 165.876C118.936 165.876 118.268 165.644 117.78 165.18C117.292 164.708 117.048 164.016 117.048 163.104V159.444H118.2V162.972C118.2 163.588 118.348 164.056 118.644 164.376C118.94 164.688 119.364 164.844 119.916 164.844C120.524 164.844 121.004 164.66 121.356 164.292C121.708 163.924 121.884 163.404 121.884 162.732V159.444H123.036ZM128.001 165.876C127.353 165.876 126.773 165.736 126.261 165.456C125.757 165.176 125.361 164.792 125.073 164.304C124.785 163.808 124.641 163.248 124.641 162.624C124.641 162 124.785 161.444 125.073 160.956C125.361 160.46 125.757 160.076 126.261 159.804C126.773 159.524 127.353 159.384 128.001 159.384C128.577 159.384 129.089 159.5 129.537 159.732C129.993 159.964 130.345 160.3 130.593 160.74L129.717 161.304C129.517 161 129.269 160.772 128.973 160.62C128.677 160.468 128.349 160.392 127.989 160.392C127.573 160.392 127.197 160.484 126.861 160.668C126.533 160.852 126.273 161.116 126.081 161.46C125.897 161.796 125.805 162.184 125.805 162.624C125.805 163.072 125.897 163.468 126.081 163.812C126.273 164.148 126.533 164.408 126.861 164.592C127.197 164.776 127.573 164.868 127.989 164.868C128.349 164.868 128.677 164.792 128.973 164.64C129.269 164.488 129.517 164.26 129.717 163.956L130.593 164.508C130.345 164.948 129.993 165.288 129.537 165.528C129.089 165.76 128.577 165.876 128.001 165.876ZM135.742 165.432C135.574 165.576 135.366 165.688 135.118 165.768C134.87 165.84 134.614 165.876 134.35 165.876C133.71 165.876 133.214 165.704 132.862 165.36C132.51 165.016 132.334 164.524 132.334 163.884V160.392H131.254V159.444H132.334V158.052H133.486V159.444H135.31V160.392H133.486V163.836C133.486 164.18 133.57 164.444 133.738 164.628C133.914 164.812 134.162 164.904 134.482 164.904C134.834 164.904 135.134 164.804 135.382 164.604L135.742 165.432ZM144.282 165.9C143.442 165.9 142.682 165.716 142.002 165.348C141.33 164.972 140.802 164.46 140.418 163.812C140.034 163.156 139.842 162.42 139.842 161.604C139.842 160.788 140.034 160.056 140.418 159.408C140.802 158.752 141.334 158.24 142.014 157.872C142.694 157.496 143.454 157.308 144.294 157.308C144.95 157.308 145.55 157.42 146.094 157.644C146.638 157.86 147.102 158.184 147.486 158.616L146.706 159.372C146.074 158.708 145.286 158.376 144.342 158.376C143.718 158.376 143.154 158.516 142.65 158.796C142.146 159.076 141.75 159.464 141.462 159.96C141.182 160.448 141.042 160.996 141.042 161.604C141.042 162.212 141.182 162.764 141.462 163.26C141.75 163.748 142.146 164.132 142.65 164.412C143.154 164.692 143.718 164.832 144.342 164.832C145.278 164.832 146.066 164.496 146.706 163.824L147.486 164.58C147.102 165.012 146.634 165.34 146.082 165.564C145.538 165.788 144.938 165.9 144.282 165.9ZM151.263 159.384C152.143 159.384 152.815 159.6 153.279 160.032C153.751 160.464 153.987 161.108 153.987 161.964V165.804H152.895V164.964C152.703 165.26 152.427 165.488 152.067 165.648C151.715 165.8 151.295 165.876 150.807 165.876C150.095 165.876 149.523 165.704 149.091 165.36C148.667 165.016 148.455 164.564 148.455 164.004C148.455 163.444 148.659 162.996 149.067 162.66C149.475 162.316 150.123 162.144 151.011 162.144H152.835V161.916C152.835 161.42 152.691 161.04 152.403 160.776C152.115 160.512 151.691 160.38 151.131 160.38C150.755 160.38 150.387 160.444 150.027 160.572C149.667 160.692 149.363 160.856 149.115 161.064L148.635 160.2C148.963 159.936 149.355 159.736 149.811 159.6C150.267 159.456 150.751 159.384 151.263 159.384ZM150.999 164.988C151.439 164.988 151.819 164.892 152.139 164.7C152.459 164.5 152.691 164.22 152.835 163.86V162.972H151.059C150.083 162.972 149.595 163.3 149.595 163.956C149.595 164.276 149.719 164.528 149.967 164.712C150.215 164.896 150.559 164.988 150.999 164.988ZM159.695 165.432C159.527 165.576 159.319 165.688 159.071 165.768C158.823 165.84 158.567 165.876 158.303 165.876C157.663 165.876 157.167 165.704 156.815 165.36C156.463 165.016 156.287 164.524 156.287 163.884V160.392H155.207V159.444H156.287V158.052H157.439V159.444H159.263V160.392H157.439V163.836C157.439 164.18 157.523 164.444 157.691 164.628C157.867 164.812 158.115 164.904 158.435 164.904C158.787 164.904 159.087 164.804 159.335 164.604L159.695 165.432ZM166.625 162.66C166.625 162.748 166.617 162.864 166.601 163.008H161.441C161.513 163.568 161.757 164.02 162.173 164.364C162.597 164.7 163.121 164.868 163.745 164.868C164.505 164.868 165.117 164.612 165.581 164.1L166.217 164.844C165.929 165.18 165.569 165.436 165.137 165.612C164.713 165.788 164.237 165.876 163.709 165.876C163.037 165.876 162.441 165.74 161.921 165.468C161.401 165.188 160.997 164.8 160.709 164.304C160.429 163.808 160.289 163.248 160.289 162.624C160.289 162.008 160.425 161.452 160.697 160.956C160.977 160.46 161.357 160.076 161.837 159.804C162.325 159.524 162.873 159.384 163.481 159.384C164.089 159.384 164.629 159.524 165.101 159.804C165.581 160.076 165.953 160.46 166.217 160.956C166.489 161.452 166.625 162.02 166.625 162.66ZM163.481 160.356C162.929 160.356 162.465 160.524 162.089 160.86C161.721 161.196 161.505 161.636 161.441 162.18H165.521C165.457 161.644 165.237 161.208 164.861 160.872C164.493 160.528 164.033 160.356 163.481 160.356ZM174.309 159.444V164.94C174.309 166.052 174.033 166.872 173.481 167.4C172.929 167.936 172.105 168.204 171.009 168.204C170.409 168.204 169.837 168.12 169.293 167.952C168.749 167.792 168.309 167.56 167.973 167.256L168.525 166.368C168.821 166.624 169.185 166.824 169.617 166.968C170.057 167.12 170.509 167.196 170.973 167.196C171.717 167.196 172.265 167.02 172.617 166.668C172.977 166.316 173.157 165.78 173.157 165.06V164.556C172.885 164.884 172.549 165.132 172.149 165.3C171.757 165.46 171.329 165.54 170.865 165.54C170.257 165.54 169.705 165.412 169.209 165.156C168.721 164.892 168.337 164.528 168.057 164.064C167.777 163.592 167.637 163.056 167.637 162.456C167.637 161.856 167.777 161.324 168.057 160.86C168.337 160.388 168.721 160.024 169.209 159.768C169.705 159.512 170.257 159.384 170.865 159.384C171.345 159.384 171.789 159.472 172.197 159.648C172.613 159.824 172.953 160.084 173.217 160.428V159.444H174.309ZM170.997 164.532C171.413 164.532 171.785 164.444 172.113 164.268C172.449 164.092 172.709 163.848 172.893 163.536C173.085 163.216 173.181 162.856 173.181 162.456C173.181 161.84 172.977 161.344 172.569 160.968C172.161 160.584 171.637 160.392 170.997 160.392C170.349 160.392 169.821 160.584 169.413 160.968C169.005 161.344 168.801 161.84 168.801 162.456C168.801 162.856 168.893 163.216 169.077 163.536C169.269 163.848 169.529 164.092 169.857 164.268C170.193 164.444 170.573 164.532 170.997 164.532ZM179.234 165.876C178.602 165.876 178.034 165.736 177.53 165.456C177.026 165.176 176.63 164.792 176.342 164.304C176.062 163.808 175.922 163.248 175.922 162.624C175.922 162 176.062 161.444 176.342 160.956C176.63 160.46 177.026 160.076 177.53 159.804C178.034 159.524 178.602 159.384 179.234 159.384C179.866 159.384 180.43 159.524 180.926 159.804C181.43 160.076 181.822 160.46 182.102 160.956C182.39 161.444 182.534 162 182.534 162.624C182.534 163.248 182.39 163.808 182.102 164.304C181.822 164.792 181.43 165.176 180.926 165.456C180.43 165.736 179.866 165.876 179.234 165.876ZM179.234 164.868C179.642 164.868 180.006 164.776 180.326 164.592C180.654 164.4 180.91 164.136 181.094 163.8C181.278 163.456 181.37 163.064 181.37 162.624C181.37 162.184 181.278 161.796 181.094 161.46C180.91 161.116 180.654 160.852 180.326 160.668C180.006 160.484 179.642 160.392 179.234 160.392C178.826 160.392 178.458 160.484 178.13 160.668C177.81 160.852 177.554 161.116 177.362 161.46C177.178 161.796 177.086 162.184 177.086 162.624C177.086 163.064 177.178 163.456 177.362 163.8C177.554 164.136 177.81 164.4 178.13 164.592C178.458 164.776 178.826 164.868 179.234 164.868ZM185.231 160.512C185.431 160.144 185.727 159.864 186.119 159.672C186.511 159.48 186.987 159.384 187.547 159.384V160.5C187.483 160.492 187.395 160.488 187.283 160.488C186.659 160.488 186.167 160.676 185.807 161.052C185.455 161.42 185.279 161.948 185.279 162.636V165.804H184.127V159.444H185.231V160.512ZM194.853 159.444L191.769 166.44C191.497 167.088 191.177 167.544 190.809 167.808C190.449 168.072 190.013 168.204 189.501 168.204C189.189 168.204 188.885 168.152 188.589 168.048C188.301 167.952 188.061 167.808 187.869 167.616L188.361 166.752C188.689 167.064 189.069 167.22 189.501 167.22C189.781 167.22 190.013 167.144 190.197 166.992C190.389 166.848 190.561 166.596 190.713 166.236L190.917 165.792L188.109 159.444H189.309L191.529 164.532L193.725 159.444H194.853Z" fill="#465361"/>
</g>
</g>
</g>
<g id="Group 2211">
<g id="Group 2201_2">
<circle id="Ellipse 83_2" cx="508" cy="208.804" r="7.75" transform="rotate(90 508 208.804)" fill="white" stroke="#465361" stroke-width="0.5"/>
<line id="Line 107_2" x1="505.349" y1="205.799" x2="511.005" y2="211.456" stroke="#465361" stroke-width="0.5"/>
<line id="Line 108_2" x1="511.005" y1="206.152" x2="505.348" y2="211.809" stroke="#465361" stroke-width="0.5"/>
</g>
<g id="Group 2149_2">
<g id="input text_4">
<rect id="bg_5" x="237.25" y="193.054" width="111.5" height="31.5" rx="4.75" fill="#F9FAFD" stroke="#E5EAEF" stroke-width="0.5"/>
<path id="in stock" d="M248.092 206.444H249.244V212.804H248.092V206.444ZM248.668 205.22C248.444 205.22 248.256 205.148 248.104 205.004C247.96 204.86 247.888 204.684 247.888 204.476C247.888 204.268 247.96 204.092 248.104 203.948C248.256 203.796 248.444 203.72 248.668 203.72C248.892 203.72 249.076 203.792 249.22 203.936C249.372 204.072 249.448 204.244 249.448 204.452C249.448 204.668 249.372 204.852 249.22 205.004C249.076 205.148 248.892 205.22 248.668 205.22ZM254.84 206.384C255.648 206.384 256.288 206.62 256.76 207.092C257.24 207.556 257.48 208.24 257.48 209.144V212.804H256.328V209.276C256.328 208.66 256.18 208.196 255.884 207.884C255.588 207.572 255.164 207.416 254.612 207.416C253.988 207.416 253.496 207.6 253.136 207.968C252.776 208.328 252.596 208.848 252.596 209.528V212.804H251.444V206.444H252.548V207.404C252.78 207.076 253.092 206.824 253.484 206.648C253.884 206.472 254.336 206.384 254.84 206.384ZM264.658 212.876C264.138 212.876 263.638 212.808 263.158 212.672C262.678 212.528 262.302 212.348 262.03 212.132L262.51 211.22C262.79 211.42 263.13 211.58 263.53 211.7C263.93 211.82 264.334 211.88 264.742 211.88C265.75 211.88 266.254 211.592 266.254 211.016C266.254 210.824 266.186 210.672 266.05 210.56C265.914 210.448 265.742 210.368 265.534 210.32C265.334 210.264 265.046 210.204 264.67 210.14C264.158 210.06 263.738 209.968 263.41 209.864C263.09 209.76 262.814 209.584 262.582 209.336C262.35 209.088 262.234 208.74 262.234 208.292C262.234 207.716 262.474 207.256 262.954 206.912C263.434 206.56 264.078 206.384 264.886 206.384C265.31 206.384 265.734 206.436 266.158 206.54C266.582 206.644 266.93 206.784 267.202 206.96L266.71 207.872C266.19 207.536 265.578 207.368 264.874 207.368C264.386 207.368 264.014 207.448 263.758 207.608C263.502 207.768 263.374 207.98 263.374 208.244C263.374 208.452 263.446 208.616 263.59 208.736C263.734 208.856 263.91 208.944 264.118 209C264.334 209.056 264.634 209.12 265.018 209.192C265.53 209.28 265.942 209.376 266.254 209.48C266.574 209.576 266.846 209.744 267.07 209.984C267.294 210.224 267.406 210.56 267.406 210.992C267.406 211.568 267.158 212.028 266.662 212.372C266.174 212.708 265.506 212.876 264.658 212.876ZM272.422 212.432C272.254 212.576 272.046 212.688 271.798 212.768C271.55 212.84 271.294 212.876 271.03 212.876C270.39 212.876 269.894 212.704 269.542 212.36C269.19 212.016 269.014 211.524 269.014 210.884V207.392H267.934V206.444H269.014V205.052H270.166V206.444H271.99V207.392H270.166V210.836C270.166 211.18 270.25 211.444 270.418 211.628C270.594 211.812 270.842 211.904 271.162 211.904C271.514 211.904 271.814 211.804 272.062 211.604L272.422 212.432ZM276.328 212.876C275.696 212.876 275.128 212.736 274.624 212.456C274.12 212.176 273.724 211.792 273.436 211.304C273.156 210.808 273.016 210.248 273.016 209.624C273.016 209 273.156 208.444 273.436 207.956C273.724 207.46 274.12 207.076 274.624 206.804C275.128 206.524 275.696 206.384 276.328 206.384C276.96 206.384 277.524 206.524 278.02 206.804C278.524 207.076 278.916 207.46 279.196 207.956C279.484 208.444 279.628 209 279.628 209.624C279.628 210.248 279.484 210.808 279.196 211.304C278.916 211.792 278.524 212.176 278.02 212.456C277.524 212.736 276.96 212.876 276.328 212.876ZM276.328 211.868C276.736 211.868 277.1 211.776 277.42 211.592C277.748 211.4 278.004 211.136 278.188 210.8C278.372 210.456 278.464 210.064 278.464 209.624C278.464 209.184 278.372 208.796 278.188 208.46C278.004 208.116 277.748 207.852 277.42 207.668C277.1 207.484 276.736 207.392 276.328 207.392C275.92 207.392 275.552 207.484 275.224 207.668C274.904 207.852 274.648 208.116 274.456 208.46C274.272 208.796 274.18 209.184 274.18 209.624C274.18 210.064 274.272 210.456 274.456 210.8C274.648 211.136 274.904 211.4 275.224 211.592C275.552 211.776 275.92 211.868 276.328 211.868ZM283.993 212.876C283.345 212.876 282.765 212.736 282.253 212.456C281.749 212.176 281.353 211.792 281.065 211.304C280.777 210.808 280.633 210.248 280.633 209.624C280.633 209 280.777 208.444 281.065 207.956C281.353 207.46 281.749 207.076 282.253 206.804C282.765 206.524 283.345 206.384 283.993 206.384C284.569 206.384 285.081 206.5 285.529 206.732C285.985 206.964 286.337 207.3 286.585 207.74L285.709 208.304C285.509 208 285.261 207.772 284.965 207.62C284.669 207.468 284.341 207.392 283.981 207.392C283.565 207.392 283.189 207.484 282.853 207.668C282.525 207.852 282.265 208.116 282.073 208.46C281.889 208.796 281.797 209.184 281.797 209.624C281.797 210.072 281.889 210.468 282.073 210.812C282.265 211.148 282.525 211.408 282.853 211.592C283.189 211.776 283.565 211.868 283.981 211.868C284.341 211.868 284.669 211.792 284.965 211.64C285.261 211.488 285.509 211.26 285.709 210.956L286.585 211.508C286.337 211.948 285.985 212.288 285.529 212.528C285.081 212.76 284.569 212.876 283.993 212.876ZM290.466 209.84L289.146 211.064V212.804H287.994V203.9H289.146V209.612L292.614 206.444H294.006L291.33 209.072L294.27 212.804H292.854L290.466 209.84Z" fill="#465361"/>
</g>
<g id="input text_5">
<rect id="bg_6" x="365.25" y="193.054" width="124.5" height="31.5" rx="4.75" fill="#F9FAFD" stroke="#E5EAEF" stroke-width="0.5"/>
<path id="yes" d="M381.72 206.444L378.636 213.44C378.364 214.088 378.044 214.544 377.676 214.808C377.316 215.072 376.88 215.204 376.368 215.204C376.056 215.204 375.752 215.152 375.456 215.048C375.168 214.952 374.928 214.808 374.736 214.616L375.228 213.752C375.556 214.064 375.936 214.22 376.368 214.22C376.648 214.22 376.88 214.144 377.064 213.992C377.256 213.848 377.428 213.596 377.58 213.236L377.784 212.792L374.976 206.444H376.176L378.396 211.532L380.592 206.444H381.72ZM388.367 209.66C388.367 209.748 388.359 209.864 388.343 210.008H383.183C383.255 210.568 383.499 211.02 383.915 211.364C384.339 211.7 384.863 211.868 385.487 211.868C386.247 211.868 386.859 211.612 387.323 211.1L387.959 211.844C387.671 212.18 387.311 212.436 386.879 212.612C386.455 212.788 385.979 212.876 385.451 212.876C384.779 212.876 384.183 212.74 383.663 212.468C383.143 212.188 382.739 211.8 382.451 211.304C382.171 210.808 382.031 210.248 382.031 209.624C382.031 209.008 382.167 208.452 382.439 207.956C382.719 207.46 383.099 207.076 383.579 206.804C384.067 206.524 384.615 206.384 385.223 206.384C385.831 206.384 386.371 206.524 386.843 206.804C387.323 207.076 387.695 207.46 387.959 207.956C388.231 208.452 388.367 209.02 388.367 209.66ZM385.223 207.356C384.671 207.356 384.207 207.524 383.831 207.86C383.463 208.196 383.247 208.636 383.183 209.18H387.263C387.199 208.644 386.979 208.208 386.603 207.872C386.235 207.528 385.775 207.356 385.223 207.356ZM391.791 212.876C391.271 212.876 390.771 212.808 390.291 212.672C389.811 212.528 389.435 212.348 389.163 212.132L389.643 211.22C389.923 211.42 390.263 211.58 390.663 211.7C391.063 211.82 391.467 211.88 391.875 211.88C392.883 211.88 393.387 211.592 393.387 211.016C393.387 210.824 393.319 210.672 393.183 210.56C393.047 210.448 392.875 210.368 392.667 210.32C392.467 210.264 392.179 210.204 391.803 210.14C391.291 210.06 390.871 209.968 390.543 209.864C390.223 209.76 389.947 209.584 389.715 209.336C389.483 209.088 389.367 208.74 389.367 208.292C389.367 207.716 389.607 207.256 390.087 206.912C390.567 206.56 391.211 206.384 392.019 206.384C392.443 206.384 392.867 206.436 393.291 206.54C393.715 206.644 394.063 206.784 394.335 206.96L393.843 207.872C393.323 207.536 392.711 207.368 392.007 207.368C391.519 207.368 391.147 207.448 390.891 207.608C390.635 207.768 390.507 207.98 390.507 208.244C390.507 208.452 390.579 208.616 390.723 208.736C390.867 208.856 391.043 208.944 391.251 209C391.467 209.056 391.767 209.12 392.151 209.192C392.663 209.28 393.075 209.376 393.387 209.48C393.707 209.576 393.979 209.744 394.203 209.984C394.427 210.224 394.539 210.56 394.539 210.992C394.539 211.568 394.291 212.028 393.795 212.372C393.307 212.708 392.639 212.876 391.791 212.876Z" fill="#465361"/>
</g>
<g id="input text_6">
<rect id="bg_7" x="72.25" y="193.054" width="148.5" height="31.5" rx="4.75" fill="#F9FAFD" stroke="#E5EAEF" stroke-width="0.5"/>
<g id="select control_2">
<path id="Polygon 1_2" d="M208 213.804L205 209.804L211 209.804L208 213.804Z" fill="#465361"/>
<path id="Polygon 2_2" d="M208 203.804L211 207.804H205L208 203.804Z" fill="#465361"/>
</g>
<path id="Stock status" d="M90.708 212.9C90.076 212.9 89.464 212.804 88.872 212.612C88.288 212.412 87.828 212.156 87.492 211.844L87.936 210.908C88.256 211.196 88.664 211.432 89.16 211.616C89.664 211.792 90.18 211.88 90.708 211.88C91.404 211.88 91.924 211.764 92.268 211.532C92.612 211.292 92.784 210.976 92.784 210.584C92.784 210.296 92.688 210.064 92.496 209.888C92.312 209.704 92.08 209.564 91.8 209.468C91.528 209.372 91.14 209.264 90.636 209.144C90.004 208.992 89.492 208.84 89.1 208.688C88.716 208.536 88.384 208.304 88.104 207.992C87.832 207.672 87.696 207.244 87.696 206.708C87.696 206.26 87.812 205.856 88.044 205.496C88.284 205.136 88.644 204.848 89.124 204.632C89.604 204.416 90.2 204.308 90.912 204.308C91.408 204.308 91.896 204.372 92.376 204.5C92.856 204.628 93.268 204.812 93.612 205.052L93.216 206.012C92.864 205.788 92.488 205.62 92.088 205.508C91.688 205.388 91.296 205.328 90.912 205.328C90.232 205.328 89.72 205.452 89.376 205.7C89.04 205.948 88.872 206.268 88.872 206.66C88.872 206.948 88.968 207.184 89.16 207.368C89.352 207.544 89.588 207.684 89.868 207.788C90.156 207.884 90.544 207.988 91.032 208.1C91.664 208.252 92.172 208.404 92.556 208.556C92.94 208.708 93.268 208.94 93.54 209.252C93.82 209.564 93.96 209.984 93.96 210.512C93.96 210.952 93.84 211.356 93.6 211.724C93.36 212.084 92.996 212.372 92.508 212.588C92.02 212.796 91.42 212.9 90.708 212.9ZM99.1211 212.432C98.9531 212.576 98.7451 212.688 98.4971 212.768C98.2491 212.84 97.9931 212.876 97.7291 212.876C97.0891 212.876 96.5931 212.704 96.2411 212.36C95.8891 212.016 95.7131 211.524 95.7131 210.884V207.392H94.6331V206.444H95.7131V205.052H96.8651V206.444H98.6891V207.392H96.8651V210.836C96.8651 211.18 96.9491 211.444 97.1171 211.628C97.2931 211.812 97.5411 211.904 97.8611 211.904C98.2131 211.904 98.5131 211.804 98.7611 211.604L99.1211 212.432ZM103.027 212.876C102.395 212.876 101.827 212.736 101.323 212.456C100.819 212.176 100.423 211.792 100.135 211.304C99.8549 210.808 99.7149 210.248 99.7149 209.624C99.7149 209 99.8549 208.444 100.135 207.956C100.423 207.46 100.819 207.076 101.323 206.804C101.827 206.524 102.395 206.384 103.027 206.384C103.659 206.384 104.223 206.524 104.719 206.804C105.223 207.076 105.615 207.46 105.895 207.956C106.183 208.444 106.327 209 106.327 209.624C106.327 210.248 106.183 210.808 105.895 211.304C105.615 211.792 105.223 212.176 104.719 212.456C104.223 212.736 103.659 212.876 103.027 212.876ZM103.027 211.868C103.435 211.868 103.799 211.776 104.119 211.592C104.447 211.4 104.703 211.136 104.887 210.8C105.071 210.456 105.163 210.064 105.163 209.624C105.163 209.184 105.071 208.796 104.887 208.46C104.703 208.116 104.447 207.852 104.119 207.668C103.799 207.484 103.435 207.392 103.027 207.392C102.619 207.392 102.251 207.484 101.923 207.668C101.603 207.852 101.347 208.116 101.155 208.46C100.971 208.796 100.879 209.184 100.879 209.624C100.879 210.064 100.971 210.456 101.155 210.8C101.347 211.136 101.603 211.4 101.923 211.592C102.251 211.776 102.619 211.868 103.027 211.868ZM110.692 212.876C110.044 212.876 109.464 212.736 108.952 212.456C108.448 212.176 108.052 211.792 107.764 211.304C107.476 210.808 107.332 210.248 107.332 209.624C107.332 209 107.476 208.444 107.764 207.956C108.052 207.46 108.448 207.076 108.952 206.804C109.464 206.524 110.044 206.384 110.692 206.384C111.268 206.384 111.78 206.5 112.228 206.732C112.684 206.964 113.036 207.3 113.284 207.74L112.408 208.304C112.208 208 111.96 207.772 111.664 207.62C111.368 207.468 111.04 207.392 110.68 207.392C110.264 207.392 109.888 207.484 109.552 207.668C109.224 207.852 108.964 208.116 108.772 208.46C108.588 208.796 108.496 209.184 108.496 209.624C108.496 210.072 108.588 210.468 108.772 210.812C108.964 211.148 109.224 211.408 109.552 211.592C109.888 211.776 110.264 211.868 110.68 211.868C111.04 211.868 111.368 211.792 111.664 211.64C111.96 211.488 112.208 211.26 112.408 210.956L113.284 211.508C113.036 211.948 112.684 212.288 112.228 212.528C111.78 212.76 111.268 212.876 110.692 212.876ZM117.166 209.84L115.846 211.064V212.804H114.694V203.9H115.846V209.612L119.314 206.444H120.706L118.03 209.072L120.97 212.804H119.554L117.166 209.84ZM127.135 212.876C126.615 212.876 126.115 212.808 125.635 212.672C125.155 212.528 124.779 212.348 124.507 212.132L124.987 211.22C125.267 211.42 125.607 211.58 126.007 211.7C126.407 211.82 126.811 211.88 127.219 211.88C128.227 211.88 128.731 211.592 128.731 211.016C128.731 210.824 128.663 210.672 128.527 210.56C128.391 210.448 128.219 210.368 128.011 210.32C127.811 210.264 127.523 210.204 127.147 210.14C126.635 210.06 126.215 209.968 125.887 209.864C125.567 209.76 125.291 209.584 125.059 209.336C124.827 209.088 124.711 208.74 124.711 208.292C124.711 207.716 124.951 207.256 125.431 206.912C125.911 206.56 126.555 206.384 127.363 206.384C127.787 206.384 128.211 206.436 128.635 206.54C129.059 206.644 129.407 206.784 129.679 206.96L129.187 207.872C128.667 207.536 128.055 207.368 127.351 207.368C126.863 207.368 126.491 207.448 126.235 207.608C125.979 207.768 125.851 207.98 125.851 208.244C125.851 208.452 125.923 208.616 126.067 208.736C126.211 208.856 126.387 208.944 126.595 209C126.811 209.056 127.111 209.12 127.495 209.192C128.007 209.28 128.419 209.376 128.731 209.48C129.051 209.576 129.323 209.744 129.547 209.984C129.771 210.224 129.883 210.56 129.883 210.992C129.883 211.568 129.635 212.028 129.139 212.372C128.651 212.708 127.983 212.876 127.135 212.876ZM134.898 212.432C134.73 212.576 134.522 212.688 134.274 212.768C134.026 212.84 133.77 212.876 133.506 212.876C132.866 212.876 132.37 212.704 132.018 212.36C131.666 212.016 131.49 211.524 131.49 210.884V207.392H130.41V206.444H131.49V205.052H132.642V206.444H134.466V207.392H132.642V210.836C132.642 211.18 132.726 211.444 132.894 211.628C133.07 211.812 133.318 211.904 133.638 211.904C133.99 211.904 134.29 211.804 134.538 211.604L134.898 212.432ZM138.607 206.384C139.487 206.384 140.159 206.6 140.623 207.032C141.095 207.464 141.331 208.108 141.331 208.964V212.804H140.239V211.964C140.047 212.26 139.771 212.488 139.411 212.648C139.059 212.8 138.639 212.876 138.151 212.876C137.439 212.876 136.867 212.704 136.435 212.36C136.011 212.016 135.799 211.564 135.799 211.004C135.799 210.444 136.003 209.996 136.411 209.66C136.819 209.316 137.467 209.144 138.355 209.144H140.179V208.916C140.179 208.42 140.035 208.04 139.747 207.776C139.459 207.512 139.035 207.38 138.475 207.38C138.099 207.38 137.731 207.444 137.371 207.572C137.011 207.692 136.707 207.856 136.459 208.064L135.979 207.2C136.307 206.936 136.699 206.736 137.155 206.6C137.611 206.456 138.095 206.384 138.607 206.384ZM138.343 211.988C138.783 211.988 139.163 211.892 139.483 211.7C139.803 211.5 140.035 211.22 140.179 210.86V209.972H138.403C137.427 209.972 136.939 210.3 136.939 210.956C136.939 211.276 137.063 211.528 137.311 211.712C137.559 211.896 137.903 211.988 138.343 211.988ZM147.039 212.432C146.871 212.576 146.663 212.688 146.415 212.768C146.167 212.84 145.911 212.876 145.647 212.876C145.007 212.876 144.511 212.704 144.159 212.36C143.807 212.016 143.631 211.524 143.631 210.884V207.392H142.551V206.444H143.631V205.052H144.783V206.444H146.607V207.392H144.783V210.836C144.783 211.18 144.867 211.444 145.035 211.628C145.211 211.812 145.459 211.904 145.779 211.904C146.131 211.904 146.431 211.804 146.679 211.604L147.039 212.432ZM154.36 206.444V212.804H153.268V211.844C153.036 212.172 152.728 212.428 152.344 212.612C151.968 212.788 151.556 212.876 151.108 212.876C150.26 212.876 149.592 212.644 149.104 212.18C148.616 211.708 148.372 211.016 148.372 210.104V206.444H149.524V209.972C149.524 210.588 149.672 211.056 149.968 211.376C150.264 211.688 150.688 211.844 151.24 211.844C151.848 211.844 152.328 211.66 152.68 211.292C153.032 210.924 153.208 210.404 153.208 209.732V206.444H154.36ZM158.377 212.876C157.857 212.876 157.357 212.808 156.877 212.672C156.397 212.528 156.021 212.348 155.749 212.132L156.229 211.22C156.509 211.42 156.849 211.58 157.249 211.7C157.649 211.82 158.053 211.88 158.461 211.88C159.469 211.88 159.973 211.592 159.973 211.016C159.973 210.824 159.905 210.672 159.769 210.56C159.633 210.448 159.461 210.368 159.253 210.32C159.053 210.264 158.765 210.204 158.389 210.14C157.877 210.06 157.457 209.968 157.129 209.864C156.809 209.76 156.533 209.584 156.301 209.336C156.069 209.088 155.953 208.74 155.953 208.292C155.953 207.716 156.193 207.256 156.673 206.912C157.153 206.56 157.797 206.384 158.605 206.384C159.029 206.384 159.453 206.436 159.877 206.54C160.301 206.644 160.649 206.784 160.921 206.96L160.429 207.872C159.909 207.536 159.297 207.368 158.593 207.368C158.105 207.368 157.733 207.448 157.477 207.608C157.221 207.768 157.093 207.98 157.093 208.244C157.093 208.452 157.165 208.616 157.309 208.736C157.453 208.856 157.629 208.944 157.837 209C158.053 209.056 158.353 209.12 158.737 209.192C159.249 209.28 159.661 209.376 159.973 209.48C160.293 209.576 160.565 209.744 160.789 209.984C161.013 210.224 161.125 210.56 161.125 210.992C161.125 211.568 160.877 212.028 160.381 212.372C159.893 212.708 159.225 212.876 158.377 212.876Z" fill="#465361"/>
</g>
</g>
</g>
<g id="Group 2199" opacity="0.5">
<rect id="Rectangle 507" x="72" y="126.804" width="444" height="2" fill="#E5EAEF"/>
<rect id="Rectangle 508" x="72" y="129.804" width="444" height="1" fill="#E5EAEF"/>
</g>
<g id="heading">
<g id="input text_7">
<path id="String Replace" d="M75.708 114.096C75.076 114.096 74.464 114 73.872 113.808C73.288 113.608 72.828 113.352 72.492 113.04L72.936 112.104C73.256 112.392 73.664 112.628 74.16 112.812C74.664 112.988 75.18 113.076 75.708 113.076C76.404 113.076 76.924 112.96 77.268 112.728C77.612 112.488 77.784 112.172 77.784 111.78C77.784 111.492 77.688 111.26 77.496 111.084C77.312 110.9 77.08 110.76 76.8 110.664C76.528 110.568 76.14 110.46 75.636 110.34C75.004 110.188 74.492 110.036 74.1 109.884C73.716 109.732 73.384 109.5 73.104 109.188C72.832 108.868 72.696 108.44 72.696 107.904C72.696 107.456 72.812 107.052 73.044 106.692C73.284 106.332 73.644 106.044 74.124 105.828C74.604 105.612 75.2 105.504 75.912 105.504C76.408 105.504 76.896 105.568 77.376 105.696C77.856 105.824 78.268 106.008 78.612 106.248L78.216 107.208C77.864 106.984 77.488 106.816 77.088 106.704C76.688 106.584 76.296 106.524 75.912 106.524C75.232 106.524 74.72 106.648 74.376 106.896C74.04 107.144 73.872 107.464 73.872 107.856C73.872 108.144 73.968 108.38 74.16 108.564C74.352 108.74 74.588 108.88 74.868 108.984C75.156 109.08 75.544 109.184 76.032 109.296C76.664 109.448 77.172 109.6 77.556 109.752C77.94 109.904 78.268 110.136 78.54 110.448C78.82 110.76 78.96 111.18 78.96 111.708C78.96 112.148 78.84 112.552 78.6 112.92C78.36 113.28 77.996 113.568 77.508 113.784C77.02 113.992 76.42 114.096 75.708 114.096ZM84.1211 113.628C83.9531 113.772 83.7451 113.884 83.4971 113.964C83.2491 114.036 82.9931 114.072 82.7291 114.072C82.0891 114.072 81.5931 113.9 81.2411 113.556C80.8891 113.212 80.7131 112.72 80.7131 112.08V108.588H79.6331V107.64H80.7131V106.248H81.8651V107.64H83.6891V108.588H81.8651V112.032C81.8651 112.376 81.9491 112.64 82.1171 112.824C82.2931 113.008 82.5411 113.1 82.8611 113.1C83.2131 113.1 83.5131 113 83.7611 112.8L84.1211 113.628ZM86.6179 108.708C86.8179 108.34 87.1139 108.06 87.5059 107.868C87.8979 107.676 88.3739 107.58 88.9339 107.58V108.696C88.8699 108.688 88.7819 108.684 88.6699 108.684C88.0459 108.684 87.5539 108.872 87.1939 109.248C86.8419 109.616 86.6659 110.144 86.6659 110.832V114H85.5139V107.64H86.6179V108.708ZM90.3537 107.64H91.5057V114H90.3537V107.64ZM90.9297 106.416C90.7057 106.416 90.5177 106.344 90.3657 106.2C90.2217 106.056 90.1497 105.88 90.1497 105.672C90.1497 105.464 90.2217 105.288 90.3657 105.144C90.5177 104.992 90.7057 104.916 90.9297 104.916C91.1537 104.916 91.3377 104.988 91.4817 105.132C91.6337 105.268 91.7097 105.44 91.7097 105.648C91.7097 105.864 91.6337 106.048 91.4817 106.2C91.3377 106.344 91.1537 106.416 90.9297 106.416ZM97.1013 107.58C97.9093 107.58 98.5493 107.816 99.0213 108.288C99.5013 108.752 99.7413 109.436 99.7413 110.34V114H98.5893V110.472C98.5893 109.856 98.4413 109.392 98.1453 109.08C97.8493 108.768 97.4253 108.612 96.8733 108.612C96.2493 108.612 95.7573 108.796 95.3973 109.164C95.0373 109.524 94.8573 110.044 94.8573 110.724V114H93.7053V107.64H94.8093V108.6C95.0413 108.272 95.3533 108.02 95.7453 107.844C96.1453 107.668 96.5973 107.58 97.1013 107.58ZM107.992 107.64V113.136C107.992 114.248 107.716 115.068 107.164 115.596C106.612 116.132 105.788 116.4 104.692 116.4C104.092 116.4 103.52 116.316 102.976 116.148C102.432 115.988 101.992 115.756 101.656 115.452L102.208 114.564C102.504 114.82 102.868 115.02 103.3 115.164C103.74 115.316 104.192 115.392 104.656 115.392C105.4 115.392 105.948 115.216 106.3 114.864C106.66 114.512 106.84 113.976 106.84 113.256V112.752C106.568 113.08 106.232 113.328 105.832 113.496C105.44 113.656 105.012 113.736 104.548 113.736C103.94 113.736 103.388 113.608 102.892 113.352C102.404 113.088 102.02 112.724 101.74 112.26C101.46 111.788 101.32 111.252 101.32 110.652C101.32 110.052 101.46 109.52 101.74 109.056C102.02 108.584 102.404 108.22 102.892 107.964C103.388 107.708 103.94 107.58 104.548 107.58C105.028 107.58 105.472 107.668 105.88 107.844C106.296 108.02 106.636 108.28 106.9 108.624V107.64H107.992ZM104.68 112.728C105.096 112.728 105.468 112.64 105.796 112.464C106.132 112.288 106.392 112.044 106.576 111.732C106.768 111.412 106.864 111.052 106.864 110.652C106.864 110.036 106.66 109.54 106.252 109.164C105.844 108.78 105.32 108.588 104.68 108.588C104.032 108.588 103.504 108.78 103.096 109.164C102.688 109.54 102.484 110.036 102.484 110.652C102.484 111.052 102.576 111.412 102.76 111.732C102.952 112.044 103.212 112.288 103.54 112.464C103.876 112.64 104.256 112.728 104.68 112.728ZM119.2 114L117.388 111.42C117.164 111.436 116.988 111.444 116.86 111.444H114.784V114H113.584V105.6H116.86C117.948 105.6 118.804 105.86 119.428 106.38C120.052 106.9 120.364 107.616 120.364 108.528C120.364 109.176 120.204 109.728 119.884 110.184C119.564 110.64 119.108 110.972 118.516 111.18L120.508 114H119.2ZM116.824 110.424C117.584 110.424 118.164 110.26 118.564 109.932C118.964 109.604 119.164 109.136 119.164 108.528C119.164 107.92 118.964 107.456 118.564 107.136C118.164 106.808 117.584 106.644 116.824 106.644H114.784V110.424H116.824ZM127.883 110.856C127.883 110.944 127.875 111.06 127.859 111.204H122.699C122.771 111.764 123.015 112.216 123.431 112.56C123.855 112.896 124.379 113.064 125.003 113.064C125.763 113.064 126.375 112.808 126.839 112.296L127.475 113.04C127.187 113.376 126.827 113.632 126.395 113.808C125.971 113.984 125.495 114.072 124.967 114.072C124.295 114.072 123.699 113.936 123.179 113.664C122.659 113.384 122.255 112.996 121.967 112.5C121.687 112.004 121.547 111.444 121.547 110.82C121.547 110.204 121.683 109.648 121.955 109.152C122.235 108.656 122.615 108.272 123.095 108C123.583 107.72 124.131 107.58 124.739 107.58C125.347 107.58 125.887 107.72 126.359 108C126.839 108.272 127.211 108.656 127.475 109.152C127.747 109.648 127.883 110.216 127.883 110.856ZM124.739 108.552C124.187 108.552 123.723 108.72 123.347 109.056C122.979 109.392 122.763 109.832 122.699 110.376H126.779C126.715 109.84 126.495 109.404 126.119 109.068C125.751 108.724 125.291 108.552 124.739 108.552ZM132.855 107.58C133.471 107.58 134.023 107.716 134.511 107.988C134.999 108.26 135.379 108.64 135.651 109.128C135.931 109.616 136.071 110.18 136.071 110.82C136.071 111.46 135.931 112.028 135.651 112.524C135.379 113.012 134.999 113.392 134.511 113.664C134.023 113.936 133.471 114.072 132.855 114.072C132.399 114.072 131.979 113.984 131.595 113.808C131.219 113.632 130.899 113.376 130.635 113.04V116.328H129.483V107.64H130.587V108.648C130.843 108.296 131.167 108.032 131.559 107.856C131.951 107.672 132.383 107.58 132.855 107.58ZM132.759 113.064C133.167 113.064 133.531 112.972 133.851 112.788C134.179 112.596 134.435 112.332 134.619 111.996C134.811 111.652 134.907 111.26 134.907 110.82C134.907 110.38 134.811 109.992 134.619 109.656C134.435 109.312 134.179 109.048 133.851 108.864C133.531 108.68 133.167 108.588 132.759 108.588C132.359 108.588 131.995 108.684 131.667 108.876C131.347 109.06 131.091 109.32 130.899 109.656C130.715 109.992 130.623 110.38 130.623 110.82C130.623 111.26 130.715 111.652 130.899 111.996C131.083 112.332 131.339 112.596 131.667 112.788C131.995 112.972 132.359 113.064 132.759 113.064ZM137.662 105.096H138.814V114H137.662V105.096ZM143.33 107.58C144.21 107.58 144.882 107.796 145.346 108.228C145.818 108.66 146.054 109.304 146.054 110.16V114H144.962V113.16C144.77 113.456 144.494 113.684 144.134 113.844C143.782 113.996 143.362 114.072 142.874 114.072C142.162 114.072 141.59 113.9 141.158 113.556C140.734 113.212 140.522 112.76 140.522 112.2C140.522 111.64 140.726 111.192 141.134 110.856C141.542 110.512 142.19 110.34 143.078 110.34H144.902V110.112C144.902 109.616 144.758 109.236 144.47 108.972C144.182 108.708 143.758 108.576 143.198 108.576C142.822 108.576 142.454 108.64 142.094 108.768C141.734 108.888 141.43 109.052 141.182 109.26L140.702 108.396C141.03 108.132 141.422 107.932 141.878 107.796C142.334 107.652 142.818 107.58 143.33 107.58ZM143.066 113.184C143.506 113.184 143.886 113.088 144.206 112.896C144.526 112.696 144.758 112.416 144.902 112.056V111.168H143.126C142.15 111.168 141.662 111.496 141.662 112.152C141.662 112.472 141.786 112.724 142.034 112.908C142.282 113.092 142.626 113.184 143.066 113.184ZM150.993 114.072C150.345 114.072 149.765 113.932 149.253 113.652C148.749 113.372 148.353 112.988 148.065 112.5C147.777 112.004 147.633 111.444 147.633 110.82C147.633 110.196 147.777 109.64 148.065 109.152C148.353 108.656 148.749 108.272 149.253 108C149.765 107.72 150.345 107.58 150.993 107.58C151.569 107.58 152.081 107.696 152.529 107.928C152.985 108.16 153.337 108.496 153.585 108.936L152.709 109.5C152.509 109.196 152.261 108.968 151.965 108.816C151.669 108.664 151.341 108.588 150.981 108.588C150.565 108.588 150.189 108.68 149.853 108.864C149.525 109.048 149.265 109.312 149.073 109.656C148.889 109.992 148.797 110.38 148.797 110.82C148.797 111.268 148.889 111.664 149.073 112.008C149.265 112.344 149.525 112.604 149.853 112.788C150.189 112.972 150.565 113.064 150.981 113.064C151.341 113.064 151.669 112.988 151.965 112.836C152.261 112.684 152.509 112.456 152.709 112.152L153.585 112.704C153.337 113.144 152.985 113.484 152.529 113.724C152.081 113.956 151.569 114.072 150.993 114.072ZM160.731 110.856C160.731 110.944 160.723 111.06 160.707 111.204H155.547C155.619 111.764 155.863 112.216 156.279 112.56C156.703 112.896 157.227 113.064 157.851 113.064C158.611 113.064 159.223 112.808 159.687 112.296L160.323 113.04C160.035 113.376 159.675 113.632 159.243 113.808C158.819 113.984 158.343 114.072 157.815 114.072C157.143 114.072 156.547 113.936 156.027 113.664C155.507 113.384 155.103 112.996 154.815 112.5C154.535 112.004 154.395 111.444 154.395 110.82C154.395 110.204 154.531 109.648 154.803 109.152C155.083 108.656 155.463 108.272 155.943 108C156.431 107.72 156.979 107.58 157.587 107.58C158.195 107.58 158.735 107.72 159.207 108C159.687 108.272 160.059 108.656 160.323 109.152C160.595 109.648 160.731 110.216 160.731 110.856ZM157.587 108.552C157.035 108.552 156.571 108.72 156.195 109.056C155.827 109.392 155.611 109.832 155.547 110.376H159.627C159.563 109.84 159.343 109.404 158.967 109.068C158.599 108.724 158.139 108.552 157.587 108.552Z" fill="#465361"/>
</g>
</g>
</g>
</g>
<g id="top">
<path id="top bg" d="M30 26C30 20.4772 34.4772 16 40 16H540C545.523 16 550 20.4772 550 26V54H30V26Z" fill="#F6F8FB"/>
<g id="tabs">
<g id="Group 2153">
<g id="Group 2153_2">
<path id="Rectangle 478" d="M71.7458 37.0506C73.2341 32.544 77.445 29.5 82.191 29.5H149.106C153.852 29.5 158.063 32.5439 159.551 37.0506L165.148 54H66.1484L71.7458 37.0506Z" fill="#E5EAEF"/>
<path id="Feed Config" d="M80.6944 38.644V41.572H84.9064V42.604H80.6944V46H79.4944V37.6H85.4224V38.644H80.6944ZM92.4923 42.856C92.4923 42.944 92.4843 43.06 92.4683 43.204H87.3083C87.3803 43.764 87.6243 44.216 88.0403 44.56C88.4643 44.896 88.9883 45.064 89.6123 45.064C90.3723 45.064 90.9843 44.808 91.4483 44.296L92.0843 45.04C91.7963 45.376 91.4363 45.632 91.0043 45.808C90.5803 45.984 90.1043 46.072 89.5763 46.072C88.9043 46.072 88.3083 45.936 87.7883 45.664C87.2683 45.384 86.8643 44.996 86.5763 44.5C86.2963 44.004 86.1563 43.444 86.1563 42.82C86.1563 42.204 86.2923 41.648 86.5643 41.152C86.8443 40.656 87.2243 40.272 87.7043 40C88.1923 39.72 88.7403 39.58 89.3483 39.58C89.9563 39.58 90.4963 39.72 90.9683 40C91.4483 40.272 91.8203 40.656 92.0843 41.152C92.3563 41.648 92.4923 42.216 92.4923 42.856ZM89.3483 40.552C88.7963 40.552 88.3323 40.72 87.9563 41.056C87.5883 41.392 87.3723 41.832 87.3083 42.376H91.3883C91.3243 41.84 91.1043 41.404 90.7283 41.068C90.3603 40.724 89.9003 40.552 89.3483 40.552ZM99.84 42.856C99.84 42.944 99.832 43.06 99.816 43.204H94.656C94.728 43.764 94.972 44.216 95.388 44.56C95.812 44.896 96.336 45.064 96.96 45.064C97.72 45.064 98.332 44.808 98.796 44.296L99.432 45.04C99.144 45.376 98.784 45.632 98.352 45.808C97.928 45.984 97.452 46.072 96.924 46.072C96.252 46.072 95.656 45.936 95.136 45.664C94.616 45.384 94.212 44.996 93.924 44.5C93.644 44.004 93.504 43.444 93.504 42.82C93.504 42.204 93.64 41.648 93.912 41.152C94.192 40.656 94.572 40.272 95.052 40C95.54 39.72 96.088 39.58 96.696 39.58C97.304 39.58 97.844 39.72 98.316 40C98.796 40.272 99.168 40.656 99.432 41.152C99.704 41.648 99.84 42.216 99.84 42.856ZM96.696 40.552C96.144 40.552 95.68 40.72 95.304 41.056C94.936 41.392 94.72 41.832 94.656 42.376H98.736C98.672 41.84 98.452 41.404 98.076 41.068C97.708 40.724 97.248 40.552 96.696 40.552ZM107.44 37.096V46H106.336V44.992C106.08 45.344 105.756 45.612 105.364 45.796C104.972 45.98 104.54 46.072 104.068 46.072C103.452 46.072 102.9 45.936 102.412 45.664C101.924 45.392 101.54 45.012 101.26 44.524C100.988 44.028 100.852 43.46 100.852 42.82C100.852 42.18 100.988 41.616 101.26 41.128C101.54 40.64 101.924 40.26 102.412 39.988C102.9 39.716 103.452 39.58 104.068 39.58C104.524 39.58 104.944 39.668 105.328 39.844C105.712 40.012 106.032 40.264 106.288 40.6V37.096H107.44ZM104.164 45.064C104.564 45.064 104.928 44.972 105.256 44.788C105.584 44.596 105.84 44.332 106.024 43.996C106.208 43.652 106.3 43.26 106.3 42.82C106.3 42.38 106.208 41.992 106.024 41.656C105.84 41.312 105.584 41.048 105.256 40.864C104.928 40.68 104.564 40.588 104.164 40.588C103.756 40.588 103.388 40.68 103.06 40.864C102.74 41.048 102.484 41.312 102.292 41.656C102.108 41.992 102.016 42.38 102.016 42.82C102.016 43.26 102.108 43.652 102.292 43.996C102.484 44.332 102.74 44.596 103.06 44.788C103.388 44.972 103.756 45.064 104.164 45.064ZM116.766 46.096C115.926 46.096 115.166 45.912 114.486 45.544C113.814 45.168 113.286 44.656 112.902 44.008C112.518 43.352 112.326 42.616 112.326 41.8C112.326 40.984 112.518 40.252 112.902 39.604C113.286 38.948 113.818 38.436 114.498 38.068C115.178 37.692 115.938 37.504 116.778 37.504C117.434 37.504 118.034 37.616 118.578 37.84C119.122 38.056 119.586 38.38 119.97 38.812L119.19 39.568C118.558 38.904 117.77 38.572 116.826 38.572C116.202 38.572 115.638 38.712 115.134 38.992C114.63 39.272 114.234 39.66 113.946 40.156C113.666 40.644 113.526 41.192 113.526 41.8C113.526 42.408 113.666 42.96 113.946 43.456C114.234 43.944 114.63 44.328 115.134 44.608C115.638 44.888 116.202 45.028 116.826 45.028C117.762 45.028 118.55 44.692 119.19 44.02L119.97 44.776C119.586 45.208 119.118 45.536 118.566 45.76C118.022 45.984 117.422 46.096 116.766 46.096ZM123.968 46.072C123.336 46.072 122.768 45.932 122.264 45.652C121.76 45.372 121.364 44.988 121.076 44.5C120.796 44.004 120.656 43.444 120.656 42.82C120.656 42.196 120.796 41.64 121.076 41.152C121.364 40.656 121.76 40.272 122.264 40C122.768 39.72 123.336 39.58 123.968 39.58C124.6 39.58 125.164 39.72 125.66 40C126.164 40.272 126.556 40.656 126.836 41.152C127.124 41.64 127.268 42.196 127.268 42.82C127.268 43.444 127.124 44.004 126.836 44.5C126.556 44.988 126.164 45.372 125.66 45.652C125.164 45.932 124.6 46.072 123.968 46.072ZM123.968 45.064C124.376 45.064 124.74 44.972 125.06 44.788C125.388 44.596 125.644 44.332 125.828 43.996C126.012 43.652 126.104 43.26 126.104 42.82C126.104 42.38 126.012 41.992 125.828 41.656C125.644 41.312 125.388 41.048 125.06 40.864C124.74 40.68 124.376 40.588 123.968 40.588C123.56 40.588 123.192 40.68 122.864 40.864C122.544 41.048 122.288 41.312 122.096 41.656C121.912 41.992 121.82 42.38 121.82 42.82C121.82 43.26 121.912 43.652 122.096 43.996C122.288 44.332 122.544 44.596 122.864 44.788C123.192 44.972 123.56 45.064 123.968 45.064ZM132.258 39.58C133.066 39.58 133.706 39.816 134.178 40.288C134.658 40.752 134.898 41.436 134.898 42.34V46H133.746V42.472C133.746 41.856 133.598 41.392 133.302 41.08C133.006 40.768 132.582 40.612 132.03 40.612C131.406 40.612 130.914 40.796 130.554 41.164C130.194 41.524 130.014 42.044 130.014 42.724V46H128.862V39.64H129.966V40.6C130.198 40.272 130.51 40.02 130.902 39.844C131.302 39.668 131.754 39.58 132.258 39.58ZM139.358 37.972C138.67 37.972 138.326 38.344 138.326 39.088V39.64H140.174V40.588H138.35V46H137.198V40.588H136.118V39.64H137.198V39.076C137.198 38.444 137.382 37.944 137.75 37.576C138.118 37.208 138.634 37.024 139.298 37.024C139.554 37.024 139.794 37.056 140.018 37.12C140.242 37.184 140.434 37.276 140.594 37.396L140.246 38.272C139.982 38.072 139.686 37.972 139.358 37.972ZM142.226 39.64H143.378V46H142.226V39.64ZM142.802 38.416C142.578 38.416 142.39 38.344 142.238 38.2C142.094 38.056 142.022 37.88 142.022 37.672C142.022 37.464 142.094 37.288 142.238 37.144C142.39 36.992 142.578 36.916 142.802 36.916C143.026 36.916 143.21 36.988 143.354 37.132C143.506 37.268 143.582 37.44 143.582 37.648C143.582 37.864 143.506 38.048 143.354 38.2C143.21 38.344 143.026 38.416 142.802 38.416ZM151.656 39.64V45.136C151.656 46.248 151.38 47.068 150.828 47.596C150.276 48.132 149.452 48.4 148.356 48.4C147.756 48.4 147.184 48.316 146.64 48.148C146.096 47.988 145.656 47.756 145.32 47.452L145.872 46.564C146.168 46.82 146.532 47.02 146.964 47.164C147.404 47.316 147.856 47.392 148.32 47.392C149.064 47.392 149.612 47.216 149.964 46.864C150.324 46.512 150.504 45.976 150.504 45.256V44.752C150.232 45.08 149.896 45.328 149.496 45.496C149.104 45.656 148.676 45.736 148.212 45.736C147.604 45.736 147.052 45.608 146.556 45.352C146.068 45.088 145.684 44.724 145.404 44.26C145.124 43.788 144.984 43.252 144.984 42.652C144.984 42.052 145.124 41.52 145.404 41.056C145.684 40.584 146.068 40.22 146.556 39.964C147.052 39.708 147.604 39.58 148.212 39.58C148.692 39.58 149.136 39.668 149.544 39.844C149.96 40.02 150.3 40.28 150.564 40.624V39.64H151.656ZM148.344 44.728C148.76 44.728 149.132 44.64 149.46 44.464C149.796 44.288 150.056 44.044 150.24 43.732C150.432 43.412 150.528 43.052 150.528 42.652C150.528 42.036 150.324 41.54 149.916 41.164C149.508 40.78 148.984 40.588 148.344 40.588C147.696 40.588 147.168 40.78 146.76 41.164C146.352 41.54 146.148 42.036 146.148 42.652C146.148 43.052 146.24 43.412 146.424 43.732C146.616 44.044 146.876 44.288 147.204 44.464C147.54 44.64 147.92 44.728 148.344 44.728Z" fill="#465361"/>
</g>
</g>
<g id="Group 2151">
<g id="Group 2153_3">
<path id="Rectangle 478_2" d="M170.746 37.0506C172.234 32.544 176.445 29.5 181.191 29.5H245.106C249.852 29.5 254.063 32.5439 255.551 37.0506L261.148 54H165.148L170.746 37.0506Z" fill="#E5EAEF"/>
<path id="Rectangle 476" d="M171.944 38.4544C173.461 33.997 177.648 31 182.357 31H243.944C248.653 31 252.839 33.997 254.357 38.4544L259.65 54H166.65L171.944 38.4544Z" fill="white"/>
</g>
<path id="Filter" d="M199.917 39.144V42.072H204.129V43.104H199.917V46.5H198.717V38.1H204.645V39.144H199.917ZM206.049 40.14H207.201V46.5H206.049V40.14ZM206.625 38.916C206.401 38.916 206.213 38.844 206.061 38.7C205.917 38.556 205.845 38.38 205.845 38.172C205.845 37.964 205.917 37.788 206.061 37.644C206.213 37.492 206.401 37.416 206.625 37.416C206.849 37.416 207.033 37.488 207.177 37.632C207.329 37.768 207.405 37.94 207.405 38.148C207.405 38.364 207.329 38.548 207.177 38.7C207.033 38.844 206.849 38.916 206.625 38.916ZM209.401 37.596H210.553V46.5H209.401V37.596ZM216.481 46.128C216.313 46.272 216.105 46.384 215.857 46.464C215.609 46.536 215.353 46.572 215.089 46.572C214.449 46.572 213.953 46.4 213.601 46.056C213.249 45.712 213.073 45.22 213.073 44.58V41.088H211.993V40.14H213.073V38.748H214.225V40.14H216.049V41.088H214.225V44.532C214.225 44.876 214.309 45.14 214.477 45.324C214.653 45.508 214.901 45.6 215.221 45.6C215.573 45.6 215.873 45.5 216.121 45.3L216.481 46.128ZM223.41 43.356C223.41 43.444 223.402 43.56 223.386 43.704H218.226C218.298 44.264 218.542 44.716 218.958 45.06C219.382 45.396 219.906 45.564 220.53 45.564C221.29 45.564 221.902 45.308 222.366 44.796L223.002 45.54C222.714 45.876 222.354 46.132 221.922 46.308C221.498 46.484 221.022 46.572 220.494 46.572C219.822 46.572 219.226 46.436 218.706 46.164C218.186 45.884 217.782 45.496 217.494 45C217.214 44.504 217.074 43.944 217.074 43.32C217.074 42.704 217.21 42.148 217.482 41.652C217.762 41.156 218.142 40.772 218.622 40.5C219.11 40.22 219.658 40.08 220.266 40.08C220.874 40.08 221.414 40.22 221.886 40.5C222.366 40.772 222.738 41.156 223.002 41.652C223.274 42.148 223.41 42.716 223.41 43.356ZM220.266 41.052C219.714 41.052 219.25 41.22 218.874 41.556C218.506 41.892 218.29 42.332 218.226 42.876H222.306C222.242 42.34 222.022 41.904 221.646 41.568C221.278 41.224 220.818 41.052 220.266 41.052ZM226.114 41.208C226.314 40.84 226.61 40.56 227.002 40.368C227.394 40.176 227.87 40.08 228.43 40.08V41.196C228.366 41.188 228.278 41.184 228.166 41.184C227.542 41.184 227.05 41.372 226.69 41.748C226.338 42.116 226.162 42.644 226.162 43.332V46.5H225.01V40.14H226.114V41.208Z" fill="#465361"/>
</g>
<g id="Group 2154">
<g id="Group 2153_4">
<path id="Rectangle 478_3" d="M266.597 37.0506C268.086 32.544 272.297 29.5 277.043 29.5H364.957C369.703 29.5 373.914 32.5439 375.403 37.0506L381 54H261L266.597 37.0506Z" fill="#E5EAEF"/>
<path id="Advanced Filter" d="M279.622 43.9H275.158L274.234 46H272.998L276.802 37.6H277.99L281.806 46H280.546L279.622 43.9ZM279.202 42.94L277.39 38.824L275.578 42.94H279.202ZM288.832 37.096V46H287.728V44.992C287.472 45.344 287.148 45.612 286.756 45.796C286.364 45.98 285.932 46.072 285.46 46.072C284.844 46.072 284.292 45.936 283.804 45.664C283.316 45.392 282.932 45.012 282.652 44.524C282.38 44.028 282.244 43.46 282.244 42.82C282.244 42.18 282.38 41.616 282.652 41.128C282.932 40.64 283.316 40.26 283.804 39.988C284.292 39.716 284.844 39.58 285.46 39.58C285.916 39.58 286.336 39.668 286.72 39.844C287.104 40.012 287.424 40.264 287.68 40.6V37.096H288.832ZM285.556 45.064C285.956 45.064 286.32 44.972 286.648 44.788C286.976 44.596 287.232 44.332 287.416 43.996C287.6 43.652 287.692 43.26 287.692 42.82C287.692 42.38 287.6 41.992 287.416 41.656C287.232 41.312 286.976 41.048 286.648 40.864C286.32 40.68 285.956 40.588 285.556 40.588C285.148 40.588 284.78 40.68 284.452 40.864C284.132 41.048 283.876 41.312 283.684 41.656C283.5 41.992 283.408 42.38 283.408 42.82C283.408 43.26 283.5 43.652 283.684 43.996C283.876 44.332 284.132 44.596 284.452 44.788C284.78 44.972 285.148 45.064 285.556 45.064ZM296.64 39.64L293.856 46H292.68L289.896 39.64H291.096L293.28 44.74L295.512 39.64H296.64ZM299.832 39.58C300.712 39.58 301.384 39.796 301.848 40.228C302.32 40.66 302.556 41.304 302.556 42.16V46H301.464V45.16C301.272 45.456 300.996 45.684 300.636 45.844C300.284 45.996 299.864 46.072 299.376 46.072C298.664 46.072 298.092 45.9 297.66 45.556C297.236 45.212 297.024 44.76 297.024 44.2C297.024 43.64 297.228 43.192 297.636 42.856C298.044 42.512 298.692 42.34 299.58 42.34H301.404V42.112C301.404 41.616 301.26 41.236 300.972 40.972C300.684 40.708 300.26 40.576 299.7 40.576C299.324 40.576 298.956 40.64 298.596 40.768C298.236 40.888 297.932 41.052 297.684 41.26L297.204 40.396C297.532 40.132 297.924 39.932 298.38 39.796C298.836 39.652 299.32 39.58 299.832 39.58ZM299.568 45.184C300.008 45.184 300.388 45.088 300.708 44.896C301.028 44.696 301.26 44.416 301.404 44.056V43.168H299.628C298.652 43.168 298.164 43.496 298.164 44.152C298.164 44.472 298.288 44.724 298.536 44.908C298.784 45.092 299.128 45.184 299.568 45.184ZM308.084 39.58C308.892 39.58 309.532 39.816 310.004 40.288C310.484 40.752 310.724 41.436 310.724 42.34V46H309.572V42.472C309.572 41.856 309.424 41.392 309.128 41.08C308.832 40.768 308.408 40.612 307.856 40.612C307.232 40.612 306.74 40.796 306.38 41.164C306.02 41.524 305.84 42.044 305.84 42.724V46H304.688V39.64H305.792V40.6C306.024 40.272 306.336 40.02 306.728 39.844C307.128 39.668 307.58 39.58 308.084 39.58ZM315.663 46.072C315.015 46.072 314.435 45.932 313.923 45.652C313.419 45.372 313.023 44.988 312.735 44.5C312.447 44.004 312.303 43.444 312.303 42.82C312.303 42.196 312.447 41.64 312.735 41.152C313.023 40.656 313.419 40.272 313.923 40C314.435 39.72 315.015 39.58 315.663 39.58C316.239 39.58 316.751 39.696 317.199 39.928C317.655 40.16 318.007 40.496 318.255 40.936L317.379 41.5C317.179 41.196 316.931 40.968 316.635 40.816C316.339 40.664 316.011 40.588 315.651 40.588C315.235 40.588 314.859 40.68 314.523 40.864C314.195 41.048 313.935 41.312 313.743 41.656C313.559 41.992 313.467 42.38 313.467 42.82C313.467 43.268 313.559 43.664 313.743 44.008C313.935 44.344 314.195 44.604 314.523 44.788C314.859 44.972 315.235 45.064 315.651 45.064C316.011 45.064 316.339 44.988 316.635 44.836C316.931 44.684 317.179 44.456 317.379 44.152L318.255 44.704C318.007 45.144 317.655 45.484 317.199 45.724C316.751 45.956 316.239 46.072 315.663 46.072ZM325.401 42.856C325.401 42.944 325.393 43.06 325.377 43.204H320.217C320.289 43.764 320.533 44.216 320.949 44.56C321.373 44.896 321.897 45.064 322.521 45.064C323.281 45.064 323.893 44.808 324.357 44.296L324.993 45.04C324.705 45.376 324.345 45.632 323.913 45.808C323.489 45.984 323.013 46.072 322.485 46.072C321.813 46.072 321.217 45.936 320.697 45.664C320.177 45.384 319.773 44.996 319.485 44.5C319.205 44.004 319.065 43.444 319.065 42.82C319.065 42.204 319.201 41.648 319.473 41.152C319.753 40.656 320.133 40.272 320.613 40C321.101 39.72 321.649 39.58 322.257 39.58C322.865 39.58 323.405 39.72 323.877 40C324.357 40.272 324.729 40.656 324.993 41.152C325.265 41.648 325.401 42.216 325.401 42.856ZM322.257 40.552C321.705 40.552 321.241 40.72 320.865 41.056C320.497 41.392 320.281 41.832 320.217 42.376H324.297C324.233 41.84 324.013 41.404 323.637 41.068C323.269 40.724 322.809 40.552 322.257 40.552ZM333 37.096V46H331.896V44.992C331.64 45.344 331.316 45.612 330.924 45.796C330.532 45.98 330.1 46.072 329.628 46.072C329.012 46.072 328.46 45.936 327.972 45.664C327.484 45.392 327.1 45.012 326.82 44.524C326.548 44.028 326.412 43.46 326.412 42.82C326.412 42.18 326.548 41.616 326.82 41.128C327.1 40.64 327.484 40.26 327.972 39.988C328.46 39.716 329.012 39.58 329.628 39.58C330.084 39.58 330.504 39.668 330.888 39.844C331.272 40.012 331.592 40.264 331.848 40.6V37.096H333ZM329.724 45.064C330.124 45.064 330.488 44.972 330.816 44.788C331.144 44.596 331.4 44.332 331.584 43.996C331.768 43.652 331.86 43.26 331.86 42.82C331.86 42.38 331.768 41.992 331.584 41.656C331.4 41.312 331.144 41.048 330.816 40.864C330.488 40.68 330.124 40.588 329.724 40.588C329.316 40.588 328.948 40.68 328.62 40.864C328.3 41.048 328.044 41.312 327.852 41.656C327.668 41.992 327.576 42.38 327.576 42.82C327.576 43.26 327.668 43.652 327.852 43.996C328.044 44.332 328.3 44.596 328.62 44.788C328.948 44.972 329.316 45.064 329.724 45.064ZM339.771 38.644V41.572H343.983V42.604H339.771V46H338.571V37.6H344.499V38.644H339.771ZM345.903 39.64H347.055V46H345.903V39.64ZM346.479 38.416C346.255 38.416 346.067 38.344 345.915 38.2C345.771 38.056 345.699 37.88 345.699 37.672C345.699 37.464 345.771 37.288 345.915 37.144C346.067 36.992 346.255 36.916 346.479 36.916C346.703 36.916 346.887 36.988 347.031 37.132C347.183 37.268 347.259 37.44 347.259 37.648C347.259 37.864 347.183 38.048 347.031 38.2C346.887 38.344 346.703 38.416 346.479 38.416ZM349.254 37.096H350.406V46H349.254V37.096ZM356.334 45.628C356.166 45.772 355.958 45.884 355.71 45.964C355.462 46.036 355.206 46.072 354.942 46.072C354.302 46.072 353.806 45.9 353.454 45.556C353.102 45.212 352.926 44.72 352.926 44.08V40.588H351.846V39.64H352.926V38.248H354.078V39.64H355.902V40.588H354.078V44.032C354.078 44.376 354.162 44.64 354.33 44.824C354.506 45.008 354.754 45.1 355.074 45.1C355.426 45.1 355.726 45 355.974 44.8L356.334 45.628ZM363.264 42.856C363.264 42.944 363.256 43.06 363.24 43.204H358.08C358.152 43.764 358.396 44.216 358.812 44.56C359.236 44.896 359.76 45.064 360.384 45.064C361.144 45.064 361.756 44.808 362.22 44.296L362.856 45.04C362.568 45.376 362.208 45.632 361.776 45.808C361.352 45.984 360.876 46.072 360.348 46.072C359.676 46.072 359.08 45.936 358.56 45.664C358.04 45.384 357.636 44.996 357.348 44.5C357.068 44.004 356.928 43.444 356.928 42.82C356.928 42.204 357.064 41.648 357.336 41.152C357.616 40.656 357.996 40.272 358.476 40C358.964 39.72 359.512 39.58 360.12 39.58C360.728 39.58 361.268 39.72 361.74 40C362.22 40.272 362.592 40.656 362.856 41.152C363.128 41.648 363.264 42.216 363.264 42.856ZM360.12 40.552C359.568 40.552 359.104 40.72 358.728 41.056C358.36 41.392 358.144 41.832 358.08 42.376H362.16C362.096 41.84 361.876 41.404 361.5 41.068C361.132 40.724 360.672 40.552 360.12 40.552ZM365.967 40.708C366.167 40.34 366.463 40.06 366.855 39.868C367.247 39.676 367.723 39.58 368.283 39.58V40.696C368.219 40.688 368.131 40.684 368.019 40.684C367.395 40.684 366.903 40.872 366.543 41.248C366.191 41.616 366.015 42.144 366.015 42.832V46H364.863V39.64H365.967V40.708Z" fill="#465361"/>
</g>
</g>
<g id="Group 2155">
<g id="Group 2153_5">
<path id="Rectangle 478_4" d="M386.597 37.0506C388.086 32.544 392.297 29.5 397.043 29.5H448.957C453.703 29.5 457.914 32.5439 459.403 37.0506L465 54H381L386.597 37.0506Z" fill="#E5EAEF"/>
<path id="FTP/SFTP" d="M400.388 39.87V42.31H403.898V43.17H400.388V46H399.388V39H404.328V39.87H400.388ZM407.174 39.87H404.774V39H410.564V39.87H408.164V46H407.174V39.87ZM414.384 39C415.29 39 416.004 39.2167 416.524 39.65C417.044 40.0833 417.304 40.68 417.304 41.44C417.304 42.2 417.044 42.7967 416.524 43.23C416.004 43.6633 415.29 43.88 414.384 43.88H412.654V46H411.654V39H414.384ZM414.354 43.01C414.987 43.01 415.47 42.8767 415.804 42.61C416.137 42.3367 416.304 41.9467 416.304 41.44C416.304 40.9333 416.137 40.5467 415.804 40.28C415.47 40.0067 414.987 39.87 414.354 39.87H412.654V43.01H414.354ZM420.372 37.58H421.242L417.942 47H417.072L420.372 37.58ZM423.762 46.08C423.235 46.08 422.725 46 422.232 45.84C421.745 45.6733 421.362 45.46 421.082 45.2L421.452 44.42C421.719 44.66 422.059 44.8567 422.472 45.01C422.892 45.1567 423.322 45.23 423.762 45.23C424.342 45.23 424.775 45.1333 425.062 44.94C425.349 44.74 425.492 44.4767 425.492 44.15C425.492 43.91 425.412 43.7167 425.252 43.57C425.099 43.4167 424.905 43.3 424.672 43.22C424.445 43.14 424.122 43.05 423.702 42.95C423.175 42.8233 422.749 42.6967 422.422 42.57C422.102 42.4433 421.825 42.25 421.592 41.99C421.365 41.7233 421.252 41.3667 421.252 40.92C421.252 40.5467 421.349 40.21 421.542 39.91C421.742 39.61 422.042 39.37 422.442 39.19C422.842 39.01 423.339 38.92 423.932 38.92C424.345 38.92 424.752 38.9733 425.152 39.08C425.552 39.1867 425.895 39.34 426.182 39.54L425.852 40.34C425.559 40.1533 425.245 40.0133 424.912 39.92C424.579 39.82 424.252 39.77 423.932 39.77C423.365 39.77 422.939 39.8733 422.652 40.08C422.372 40.2867 422.232 40.5533 422.232 40.88C422.232 41.12 422.312 41.3167 422.472 41.47C422.632 41.6167 422.829 41.7333 423.062 41.82C423.302 41.9 423.625 41.9867 424.032 42.08C424.559 42.2067 424.982 42.3333 425.302 42.46C425.622 42.5867 425.895 42.78 426.122 43.04C426.355 43.3 426.472 43.65 426.472 44.09C426.472 44.4567 426.372 44.7933 426.172 45.1C425.972 45.4 425.669 45.64 425.262 45.82C424.855 45.9933 424.355 46.08 423.762 46.08ZM428.933 39.87V42.31H432.443V43.17H428.933V46H427.933V39H432.873V39.87H428.933ZM435.719 39.87H433.319V39H439.109V39.87H436.709V46H435.719V39.87ZM442.928 39C443.835 39 444.548 39.2167 445.068 39.65C445.588 40.0833 445.848 40.68 445.848 41.44C445.848 42.2 445.588 42.7967 445.068 43.23C444.548 43.6633 443.835 43.88 442.928 43.88H441.198V46H440.198V39H442.928ZM442.898 43.01C443.532 43.01 444.015 42.8767 444.348 42.61C444.682 42.3367 444.848 41.9467 444.848 41.44C444.848 40.9333 444.682 40.5467 444.348 40.28C444.015 40.0067 443.532 39.87 442.898 39.87H441.198V43.01H442.898Z" fill="#465361"/>
</g>
</g>
</g>
</g>
</g>
</g>
<defs>
<filter id="filter0_d" x="0" y="0" width="580" height="431" filterUnits="userSpaceOnUse" color-interpolation-filters="sRGB">
<feFlood flood-opacity="0" result="BackgroundImageFix"/>
<feColorMatrix in="SourceAlpha" type="matrix" values="0 0 0 0 0 0 0 0 0 0 0 0 0 0 0 0 0 0 127 0"/>
<feOffset dy="15"/>
<feGaussianBlur stdDeviation="15"/>
<feColorMatrix type="matrix" values="0 0 0 0 0.788235 0 0 0 0 0.788235 0 0 0 0 0.788235 0 0 0 0.3 0"/>
<feBlend mode="normal" in2="BackgroundImageFix" result="effect1_dropShadow"/>
<feBlend mode="normal" in="SourceGraphic" in2="effect1_dropShadow" result="shape"/>
</filter>
<linearGradient id="paint0_linear" x1="75.2117" y1="282.804" x2="105.852" y2="235.278" gradientUnits="userSpaceOnUse">
<stop stop-color="#3D41DA"/>
<stop offset="1" stop-color="#0088F7"/>
</linearGradient>
<linearGradient id="paint1_linear" x1="132.263" y1="247.046" x2="134.314" y2="244.48" gradientUnits="userSpaceOnUse">
<stop stop-color="#3D41DA"/>
<stop offset="1" stop-color="#0088F7"/>
</linearGradient>
<linearGradient id="paint2_linear" x1="128.263" y1="236.804" x2="130.314" y2="234.238" gradientUnits="userSpaceOnUse">
<stop stop-color="#3D41DA"/>
<stop offset="1" stop-color="#0088F7"/>
</linearGradient>
<linearGradient id="paint3_linear" x1="122.505" y1="247.461" x2="124.556" y2="244.894" gradientUnits="userSpaceOnUse">
<stop stop-color="#3D41DA"/>
<stop offset="1" stop-color="#0088F7"/>
</linearGradient>
</defs>
</svg>
