<svg width="580" height="430" viewBox="0 0 580 430" fill="none" xmlns="http://www.w3.org/2000/svg">
<g id="Frame 7">
<g id="smart filter" opacity="0.8">
<rect id="Rectangle 512" x="50" y="35" width="520" height="370" rx="10" fill="#F6FAFD"/>
<g id="bg" filter="url(#filter0_d)">
<path d="M30 25C30 19.4771 34.4772 15 40 15H540C545.523 15 550 19.4772 550 25V375C550 380.523 545.523 385 540 385H40C34.4772 385 30 380.523 30 375V25Z" fill="white"/>
</g>
<g id="fields">
<g id="form">
<g id="Group 2067">
<g id="Group 2071">
<path id="Yes" d="M390.798 117.096V120H389.61V117.072L386.274 111.6H387.558L390.246 116.028L392.946 111.6H394.134L390.798 117.096ZM400.217 116.856C400.217 116.944 400.209 117.06 400.193 117.204H395.033C395.105 117.764 395.349 118.216 395.765 118.56C396.189 118.896 396.713 119.064 397.337 119.064C398.097 119.064 398.709 118.808 399.173 118.296L399.809 119.04C399.521 119.376 399.161 119.632 398.729 119.808C398.305 119.984 397.829 120.072 397.301 120.072C396.629 120.072 396.033 119.936 395.513 119.664C394.993 119.384 394.589 118.996 394.301 118.5C394.021 118.004 393.881 117.444 393.881 116.82C393.881 116.204 394.017 115.648 394.289 115.152C394.569 114.656 394.949 114.272 395.429 114C395.917 113.72 396.465 113.58 397.073 113.58C397.681 113.58 398.221 113.72 398.693 114C399.173 114.272 399.545 114.656 399.809 115.152C400.081 115.648 400.217 116.216 400.217 116.856ZM397.073 114.552C396.521 114.552 396.057 114.72 395.681 115.056C395.313 115.392 395.097 115.832 395.033 116.376H399.113C399.049 115.84 398.829 115.404 398.453 115.068C398.085 114.724 397.625 114.552 397.073 114.552ZM403.641 120.072C403.121 120.072 402.621 120.004 402.141 119.868C401.661 119.724 401.285 119.544 401.013 119.328L401.493 118.416C401.773 118.616 402.113 118.776 402.513 118.896C402.913 119.016 403.317 119.076 403.725 119.076C404.733 119.076 405.237 118.788 405.237 118.212C405.237 118.02 405.169 117.868 405.033 117.756C404.897 117.644 404.725 117.564 404.517 117.516C404.317 117.46 404.029 117.4 403.653 117.336C403.141 117.256 402.721 117.164 402.393 117.06C402.073 116.956 401.797 116.78 401.565 116.532C401.333 116.284 401.217 115.936 401.217 115.488C401.217 114.912 401.457 114.452 401.937 114.108C402.417 113.756 403.061 113.58 403.869 113.58C404.293 113.58 404.717 113.632 405.141 113.736C405.565 113.84 405.913 113.98 406.185 114.156L405.693 115.068C405.173 114.732 404.561 114.564 403.857 114.564C403.369 114.564 402.997 114.644 402.741 114.804C402.485 114.964 402.357 115.176 402.357 115.44C402.357 115.648 402.429 115.812 402.573 115.932C402.717 116.052 402.893 116.14 403.101 116.196C403.317 116.252 403.617 116.316 404.001 116.388C404.513 116.476 404.925 116.572 405.237 116.676C405.557 116.772 405.829 116.94 406.053 117.18C406.277 117.42 406.389 117.756 406.389 118.188C406.389 118.764 406.141 119.224 405.645 119.568C405.157 119.904 404.489 120.072 403.641 120.072Z" fill="#465361"/>
<g id="Group 2065">
<circle id="Ellipse 78" cx="374" cy="116" r="7.5" stroke="#E5EAEF"/>
<circle id="Ellipse 79" cx="374.001" cy="116" r="4.66667" fill="#E5EAEF"/>
</g>
</g>
<g id="Group 2066">
<circle id="Ellipse 78_2" cx="427.961" cy="116" r="7.5" stroke="#E5EAEF"/>
<path id="No" d="M448.767 111.6V120H447.783L442.743 113.736V120H441.543V111.6H442.527L447.567 117.864V111.6H448.767ZM453.837 120.072C453.205 120.072 452.637 119.932 452.133 119.652C451.629 119.372 451.233 118.988 450.945 118.5C450.665 118.004 450.525 117.444 450.525 116.82C450.525 116.196 450.665 115.64 450.945 115.152C451.233 114.656 451.629 114.272 452.133 114C452.637 113.72 453.205 113.58 453.837 113.58C454.469 113.58 455.033 113.72 455.529 114C456.033 114.272 456.425 114.656 456.705 115.152C456.993 115.64 457.137 116.196 457.137 116.82C457.137 117.444 456.993 118.004 456.705 118.5C456.425 118.988 456.033 119.372 455.529 119.652C455.033 119.932 454.469 120.072 453.837 120.072ZM453.837 119.064C454.245 119.064 454.609 118.972 454.929 118.788C455.257 118.596 455.513 118.332 455.697 117.996C455.881 117.652 455.973 117.26 455.973 116.82C455.973 116.38 455.881 115.992 455.697 115.656C455.513 115.312 455.257 115.048 454.929 114.864C454.609 114.68 454.245 114.588 453.837 114.588C453.429 114.588 453.061 114.68 452.733 114.864C452.413 115.048 452.157 115.312 451.965 115.656C451.781 115.992 451.689 116.38 451.689 116.82C451.689 117.26 451.781 117.652 451.965 117.996C452.157 118.332 452.413 118.596 452.733 118.788C453.061 118.972 453.429 119.064 453.837 119.064Z" fill="#465361"/>
</g>
</g>
<path id="Remove Out of Stock Products" d="M128.876 118L127.064 115.42C126.84 115.436 126.664 115.444 126.536 115.444H124.46V118H123.26V109.6H126.536C127.624 109.6 128.48 109.86 129.104 110.38C129.728 110.9 130.04 111.616 130.04 112.528C130.04 113.176 129.88 113.728 129.56 114.184C129.24 114.64 128.784 114.972 128.192 115.18L130.184 118H128.876ZM126.5 114.424C127.26 114.424 127.84 114.26 128.24 113.932C128.64 113.604 128.84 113.136 128.84 112.528C128.84 111.92 128.64 111.456 128.24 111.136C127.84 110.808 127.26 110.644 126.5 110.644H124.46V114.424H126.5ZM137.559 114.856C137.559 114.944 137.551 115.06 137.535 115.204H132.375C132.447 115.764 132.691 116.216 133.107 116.56C133.531 116.896 134.055 117.064 134.679 117.064C135.439 117.064 136.051 116.808 136.515 116.296L137.151 117.04C136.863 117.376 136.503 117.632 136.071 117.808C135.647 117.984 135.171 118.072 134.643 118.072C133.971 118.072 133.375 117.936 132.855 117.664C132.335 117.384 131.931 116.996 131.643 116.5C131.363 116.004 131.223 115.444 131.223 114.82C131.223 114.204 131.359 113.648 131.631 113.152C131.911 112.656 132.291 112.272 132.771 112C133.259 111.72 133.807 111.58 134.415 111.58C135.023 111.58 135.563 111.72 136.035 112C136.515 112.272 136.887 112.656 137.151 113.152C137.423 113.648 137.559 114.216 137.559 114.856ZM134.415 112.552C133.863 112.552 133.399 112.72 133.023 113.056C132.655 113.392 132.439 113.832 132.375 114.376H136.455C136.391 113.84 136.171 113.404 135.795 113.068C135.427 112.724 134.967 112.552 134.415 112.552ZM147.114 111.58C147.914 111.58 148.546 111.812 149.01 112.276C149.482 112.74 149.718 113.428 149.718 114.34V118H148.566V114.472C148.566 113.856 148.422 113.392 148.134 113.08C147.854 112.768 147.45 112.612 146.922 112.612C146.338 112.612 145.874 112.796 145.53 113.164C145.186 113.524 145.014 114.044 145.014 114.724V118H143.862V114.472C143.862 113.856 143.718 113.392 143.43 113.08C143.15 112.768 142.746 112.612 142.218 112.612C141.634 112.612 141.17 112.796 140.826 113.164C140.482 113.524 140.31 114.044 140.31 114.724V118H139.158V111.64H140.262V112.588C140.494 112.26 140.798 112.012 141.174 111.844C141.55 111.668 141.978 111.58 142.458 111.58C142.954 111.58 143.394 111.68 143.778 111.88C144.162 112.08 144.458 112.372 144.666 112.756C144.906 112.388 145.238 112.1 145.662 111.892C146.094 111.684 146.578 111.58 147.114 111.58ZM154.597 118.072C153.965 118.072 153.397 117.932 152.893 117.652C152.389 117.372 151.993 116.988 151.705 116.5C151.425 116.004 151.285 115.444 151.285 114.82C151.285 114.196 151.425 113.64 151.705 113.152C151.993 112.656 152.389 112.272 152.893 112C153.397 111.72 153.965 111.58 154.597 111.58C155.229 111.58 155.793 111.72 156.289 112C156.793 112.272 157.185 112.656 157.465 113.152C157.753 113.64 157.897 114.196 157.897 114.82C157.897 115.444 157.753 116.004 157.465 116.5C157.185 116.988 156.793 117.372 156.289 117.652C155.793 117.932 155.229 118.072 154.597 118.072ZM154.597 117.064C155.005 117.064 155.369 116.972 155.689 116.788C156.017 116.596 156.273 116.332 156.457 115.996C156.641 115.652 156.733 115.26 156.733 114.82C156.733 114.38 156.641 113.992 156.457 113.656C156.273 113.312 156.017 113.048 155.689 112.864C155.369 112.68 155.005 112.588 154.597 112.588C154.189 112.588 153.821 112.68 153.493 112.864C153.173 113.048 152.917 113.312 152.725 113.656C152.541 113.992 152.449 114.38 152.449 114.82C152.449 115.26 152.541 115.652 152.725 115.996C152.917 116.332 153.173 116.596 153.493 116.788C153.821 116.972 154.189 117.064 154.597 117.064ZM164.943 111.64L162.159 118H160.983L158.199 111.64H159.399L161.583 116.74L163.815 111.64H164.943ZM171.59 114.856C171.59 114.944 171.582 115.06 171.566 115.204H166.406C166.478 115.764 166.722 116.216 167.138 116.56C167.562 116.896 168.086 117.064 168.71 117.064C169.47 117.064 170.082 116.808 170.546 116.296L171.182 117.04C170.894 117.376 170.534 117.632 170.102 117.808C169.678 117.984 169.202 118.072 168.674 118.072C168.002 118.072 167.406 117.936 166.886 117.664C166.366 117.384 165.962 116.996 165.674 116.5C165.394 116.004 165.254 115.444 165.254 114.82C165.254 114.204 165.39 113.648 165.662 113.152C165.942 112.656 166.322 112.272 166.802 112C167.29 111.72 167.838 111.58 168.446 111.58C169.054 111.58 169.594 111.72 170.066 112C170.546 112.272 170.918 112.656 171.182 113.152C171.454 113.648 171.59 114.216 171.59 114.856ZM168.446 112.552C167.894 112.552 167.43 112.72 167.054 113.056C166.686 113.392 166.47 113.832 166.406 114.376H170.486C170.422 113.84 170.202 113.404 169.826 113.068C169.458 112.724 168.998 112.552 168.446 112.552ZM180.372 118.096C179.524 118.096 178.76 117.912 178.08 117.544C177.4 117.168 176.864 116.652 176.472 115.996C176.088 115.34 175.896 114.608 175.896 113.8C175.896 112.992 176.088 112.26 176.472 111.604C176.864 110.948 177.4 110.436 178.08 110.068C178.76 109.692 179.524 109.504 180.372 109.504C181.212 109.504 181.972 109.692 182.652 110.068C183.332 110.436 183.864 110.948 184.248 111.604C184.632 112.252 184.824 112.984 184.824 113.8C184.824 114.616 184.632 115.352 184.248 116.008C183.864 116.656 183.332 117.168 182.652 117.544C181.972 117.912 181.212 118.096 180.372 118.096ZM180.372 117.028C180.988 117.028 181.54 116.888 182.028 116.608C182.524 116.328 182.912 115.944 183.192 115.456C183.48 114.96 183.624 114.408 183.624 113.8C183.624 113.192 183.48 112.644 183.192 112.156C182.912 111.66 182.524 111.272 182.028 110.992C181.54 110.712 180.988 110.572 180.372 110.572C179.756 110.572 179.196 110.712 178.692 110.992C178.196 111.272 177.804 111.66 177.516 112.156C177.236 112.644 177.096 113.192 177.096 113.8C177.096 114.408 177.236 114.96 177.516 115.456C177.804 115.944 178.196 116.328 178.692 116.608C179.196 116.888 179.756 117.028 180.372 117.028ZM192.418 111.64V118H191.326V117.04C191.094 117.368 190.786 117.624 190.402 117.808C190.026 117.984 189.614 118.072 189.166 118.072C188.318 118.072 187.65 117.84 187.162 117.376C186.674 116.904 186.43 116.212 186.43 115.3V111.64H187.582V115.168C187.582 115.784 187.73 116.252 188.026 116.572C188.322 116.884 188.746 117.04 189.298 117.04C189.906 117.04 190.386 116.856 190.738 116.488C191.09 116.12 191.266 115.6 191.266 114.928V111.64H192.418ZM198.188 117.628C198.02 117.772 197.812 117.884 197.564 117.964C197.316 118.036 197.06 118.072 196.796 118.072C196.156 118.072 195.66 117.9 195.308 117.556C194.956 117.212 194.78 116.72 194.78 116.08V112.588H193.7V111.64H194.78V110.248H195.932V111.64H197.756V112.588H195.932V116.032C195.932 116.376 196.016 116.64 196.184 116.824C196.36 117.008 196.608 117.1 196.928 117.1C197.28 117.1 197.58 117 197.828 116.8L198.188 117.628ZM205.527 118.072C204.895 118.072 204.327 117.932 203.823 117.652C203.319 117.372 202.923 116.988 202.635 116.5C202.355 116.004 202.215 115.444 202.215 114.82C202.215 114.196 202.355 113.64 202.635 113.152C202.923 112.656 203.319 112.272 203.823 112C204.327 111.72 204.895 111.58 205.527 111.58C206.159 111.58 206.723 111.72 207.219 112C207.723 112.272 208.115 112.656 208.395 113.152C208.683 113.64 208.827 114.196 208.827 114.82C208.827 115.444 208.683 116.004 208.395 116.5C208.115 116.988 207.723 117.372 207.219 117.652C206.723 117.932 206.159 118.072 205.527 118.072ZM205.527 117.064C205.935 117.064 206.299 116.972 206.619 116.788C206.947 116.596 207.203 116.332 207.387 115.996C207.571 115.652 207.663 115.26 207.663 114.82C207.663 114.38 207.571 113.992 207.387 113.656C207.203 113.312 206.947 113.048 206.619 112.864C206.299 112.68 205.935 112.588 205.527 112.588C205.119 112.588 204.751 112.68 204.423 112.864C204.103 113.048 203.847 113.312 203.655 113.656C203.471 113.992 203.379 114.38 203.379 114.82C203.379 115.26 203.471 115.652 203.655 115.996C203.847 116.332 204.103 116.596 204.423 116.788C204.751 116.972 205.119 117.064 205.527 117.064ZM212.748 109.972C212.06 109.972 211.716 110.344 211.716 111.088V111.64H213.564V112.588H211.74V118H210.588V112.588H209.508V111.64H210.588V111.076C210.588 110.444 210.772 109.944 211.14 109.576C211.508 109.208 212.024 109.024 212.688 109.024C212.944 109.024 213.184 109.056 213.408 109.12C213.632 109.184 213.824 109.276 213.984 109.396L213.636 110.272C213.372 110.072 213.076 109.972 212.748 109.972ZM220.489 118.096C219.857 118.096 219.245 118 218.653 117.808C218.069 117.608 217.609 117.352 217.273 117.04L217.717 116.104C218.037 116.392 218.445 116.628 218.941 116.812C219.445 116.988 219.961 117.076 220.489 117.076C221.185 117.076 221.705 116.96 222.049 116.728C222.393 116.488 222.565 116.172 222.565 115.78C222.565 115.492 222.469 115.26 222.277 115.084C222.093 114.9 221.861 114.76 221.581 114.664C221.309 114.568 220.921 114.46 220.417 114.34C219.785 114.188 219.273 114.036 218.881 113.884C218.497 113.732 218.165 113.5 217.885 113.188C217.613 112.868 217.477 112.44 217.477 111.904C217.477 111.456 217.593 111.052 217.825 110.692C218.065 110.332 218.425 110.044 218.905 109.828C219.385 109.612 219.981 109.504 220.693 109.504C221.189 109.504 221.677 109.568 222.157 109.696C222.637 109.824 223.049 110.008 223.393 110.248L222.997 111.208C222.645 110.984 222.269 110.816 221.869 110.704C221.469 110.584 221.077 110.524 220.693 110.524C220.013 110.524 219.501 110.648 219.157 110.896C218.821 111.144 218.653 111.464 218.653 111.856C218.653 112.144 218.749 112.38 218.941 112.564C219.133 112.74 219.369 112.88 219.649 112.984C219.937 113.08 220.325 113.184 220.813 113.296C221.445 113.448 221.953 113.6 222.337 113.752C222.721 113.904 223.049 114.136 223.321 114.448C223.601 114.76 223.741 115.18 223.741 115.708C223.741 116.148 223.621 116.552 223.381 116.92C223.141 117.28 222.777 117.568 222.289 117.784C221.801 117.992 221.201 118.096 220.489 118.096ZM228.902 117.628C228.734 117.772 228.526 117.884 228.278 117.964C228.03 118.036 227.774 118.072 227.51 118.072C226.87 118.072 226.374 117.9 226.022 117.556C225.67 117.212 225.494 116.72 225.494 116.08V112.588H224.414V111.64H225.494V110.248H226.646V111.64H228.47V112.588H226.646V116.032C226.646 116.376 226.73 116.64 226.898 116.824C227.074 117.008 227.322 117.1 227.642 117.1C227.994 117.1 228.294 117 228.542 116.8L228.902 117.628ZM232.808 118.072C232.176 118.072 231.608 117.932 231.104 117.652C230.6 117.372 230.204 116.988 229.916 116.5C229.636 116.004 229.496 115.444 229.496 114.82C229.496 114.196 229.636 113.64 229.916 113.152C230.204 112.656 230.6 112.272 231.104 112C231.608 111.72 232.176 111.58 232.808 111.58C233.44 111.58 234.004 111.72 234.5 112C235.004 112.272 235.396 112.656 235.676 113.152C235.964 113.64 236.108 114.196 236.108 114.82C236.108 115.444 235.964 116.004 235.676 116.5C235.396 116.988 235.004 117.372 234.5 117.652C234.004 117.932 233.44 118.072 232.808 118.072ZM232.808 117.064C233.216 117.064 233.58 116.972 233.9 116.788C234.228 116.596 234.484 116.332 234.668 115.996C234.852 115.652 234.944 115.26 234.944 114.82C234.944 114.38 234.852 113.992 234.668 113.656C234.484 113.312 234.228 113.048 233.9 112.864C233.58 112.68 233.216 112.588 232.808 112.588C232.4 112.588 232.032 112.68 231.704 112.864C231.384 113.048 231.128 113.312 230.936 113.656C230.752 113.992 230.66 114.38 230.66 114.82C230.66 115.26 230.752 115.652 230.936 115.996C231.128 116.332 231.384 116.596 231.704 116.788C232.032 116.972 232.4 117.064 232.808 117.064ZM240.473 118.072C239.825 118.072 239.245 117.932 238.733 117.652C238.229 117.372 237.833 116.988 237.545 116.5C237.257 116.004 237.113 115.444 237.113 114.82C237.113 114.196 237.257 113.64 237.545 113.152C237.833 112.656 238.229 112.272 238.733 112C239.245 111.72 239.825 111.58 240.473 111.58C241.049 111.58 241.561 111.696 242.009 111.928C242.465 112.16 242.817 112.496 243.065 112.936L242.189 113.5C241.989 113.196 241.741 112.968 241.445 112.816C241.149 112.664 240.821 112.588 240.461 112.588C240.045 112.588 239.669 112.68 239.333 112.864C239.005 113.048 238.745 113.312 238.553 113.656C238.369 113.992 238.277 114.38 238.277 114.82C238.277 115.268 238.369 115.664 238.553 116.008C238.745 116.344 239.005 116.604 239.333 116.788C239.669 116.972 240.045 117.064 240.461 117.064C240.821 117.064 241.149 116.988 241.445 116.836C241.741 116.684 241.989 116.456 242.189 116.152L243.065 116.704C242.817 117.144 242.465 117.484 242.009 117.724C241.561 117.956 241.049 118.072 240.473 118.072ZM246.947 115.036L245.627 116.26V118H244.475V109.096H245.627V114.808L249.095 111.64H250.487L247.811 114.268L250.751 118H249.335L246.947 115.036ZM258.536 109.6C259.624 109.6 260.48 109.86 261.104 110.38C261.728 110.9 262.04 111.616 262.04 112.528C262.04 113.44 261.728 114.156 261.104 114.676C260.48 115.196 259.624 115.456 258.536 115.456H256.46V118H255.26V109.6H258.536ZM258.5 114.412C259.26 114.412 259.84 114.252 260.24 113.932C260.64 113.604 260.84 113.136 260.84 112.528C260.84 111.92 260.64 111.456 260.24 111.136C259.84 110.808 259.26 110.644 258.5 110.644H256.46V114.412H258.5ZM264.634 112.708C264.834 112.34 265.13 112.06 265.521 111.868C265.914 111.676 266.39 111.58 266.95 111.58V112.696C266.886 112.688 266.798 112.684 266.686 112.684C266.062 112.684 265.57 112.872 265.21 113.248C264.858 113.616 264.682 114.144 264.682 114.832V118H263.53V111.64H264.634V112.708ZM271.035 118.072C270.403 118.072 269.835 117.932 269.331 117.652C268.827 117.372 268.431 116.988 268.143 116.5C267.863 116.004 267.723 115.444 267.723 114.82C267.723 114.196 267.863 113.64 268.143 113.152C268.431 112.656 268.827 112.272 269.331 112C269.835 111.72 270.403 111.58 271.035 111.58C271.667 111.58 272.231 111.72 272.727 112C273.231 112.272 273.623 112.656 273.903 113.152C274.191 113.64 274.335 114.196 274.335 114.82C274.335 115.444 274.191 116.004 273.903 116.5C273.623 116.988 273.231 117.372 272.727 117.652C272.231 117.932 271.667 118.072 271.035 118.072ZM271.035 117.064C271.443 117.064 271.807 116.972 272.127 116.788C272.455 116.596 272.711 116.332 272.895 115.996C273.079 115.652 273.171 115.26 273.171 114.82C273.171 114.38 273.079 113.992 272.895 113.656C272.711 113.312 272.455 113.048 272.127 112.864C271.807 112.68 271.443 112.588 271.035 112.588C270.627 112.588 270.259 112.68 269.931 112.864C269.611 113.048 269.355 113.312 269.163 113.656C268.979 113.992 268.887 114.38 268.887 114.82C268.887 115.26 268.979 115.652 269.163 115.996C269.355 116.332 269.611 116.596 269.931 116.788C270.259 116.972 270.627 117.064 271.035 117.064ZM281.928 109.096V118H280.824V116.992C280.568 117.344 280.244 117.612 279.852 117.796C279.46 117.98 279.028 118.072 278.556 118.072C277.94 118.072 277.388 117.936 276.9 117.664C276.412 117.392 276.028 117.012 275.748 116.524C275.476 116.028 275.34 115.46 275.34 114.82C275.34 114.18 275.476 113.616 275.748 113.128C276.028 112.64 276.412 112.26 276.9 111.988C277.388 111.716 277.94 111.58 278.556 111.58C279.012 111.58 279.432 111.668 279.816 111.844C280.2 112.012 280.52 112.264 280.776 112.6V109.096H281.928ZM278.652 117.064C279.052 117.064 279.416 116.972 279.744 116.788C280.072 116.596 280.328 116.332 280.512 115.996C280.696 115.652 280.788 115.26 280.788 114.82C280.788 114.38 280.696 113.992 280.512 113.656C280.328 113.312 280.072 113.048 279.744 112.864C279.416 112.68 279.052 112.588 278.652 112.588C278.244 112.588 277.876 112.68 277.548 112.864C277.228 113.048 276.972 113.312 276.78 113.656C276.596 113.992 276.504 114.38 276.504 114.82C276.504 115.26 276.596 115.652 276.78 115.996C276.972 116.332 277.228 116.596 277.548 116.788C277.876 116.972 278.244 117.064 278.652 117.064ZM290.036 111.64V118H288.944V117.04C288.712 117.368 288.404 117.624 288.02 117.808C287.644 117.984 287.232 118.072 286.784 118.072C285.936 118.072 285.268 117.84 284.78 117.376C284.292 116.904 284.048 116.212 284.048 115.3V111.64H285.2V115.168C285.2 115.784 285.348 116.252 285.644 116.572C285.94 116.884 286.364 117.04 286.916 117.04C287.524 117.04 288.004 116.856 288.356 116.488C288.708 116.12 288.884 115.6 288.884 114.928V111.64H290.036ZM295.001 118.072C294.353 118.072 293.773 117.932 293.261 117.652C292.757 117.372 292.361 116.988 292.073 116.5C291.785 116.004 291.641 115.444 291.641 114.82C291.641 114.196 291.785 113.64 292.073 113.152C292.361 112.656 292.757 112.272 293.261 112C293.773 111.72 294.353 111.58 295.001 111.58C295.577 111.58 296.089 111.696 296.537 111.928C296.993 112.16 297.345 112.496 297.593 112.936L296.717 113.5C296.517 113.196 296.269 112.968 295.973 112.816C295.677 112.664 295.349 112.588 294.989 112.588C294.573 112.588 294.197 112.68 293.861 112.864C293.533 113.048 293.273 113.312 293.081 113.656C292.897 113.992 292.805 114.38 292.805 114.82C292.805 115.268 292.897 115.664 293.081 116.008C293.273 116.344 293.533 116.604 293.861 116.788C294.197 116.972 294.573 117.064 294.989 117.064C295.349 117.064 295.677 116.988 295.973 116.836C296.269 116.684 296.517 116.456 296.717 116.152L297.593 116.704C297.345 117.144 296.993 117.484 296.537 117.724C296.089 117.956 295.577 118.072 295.001 118.072ZM302.742 117.628C302.574 117.772 302.366 117.884 302.118 117.964C301.87 118.036 301.614 118.072 301.35 118.072C300.71 118.072 300.214 117.9 299.862 117.556C299.51 117.212 299.334 116.72 299.334 116.08V112.588H298.254V111.64H299.334V110.248H300.486V111.64H302.31V112.588H300.486V116.032C300.486 116.376 300.57 116.64 300.738 116.824C300.914 117.008 301.162 117.1 301.482 117.1C301.834 117.1 302.134 117 302.382 116.8L302.742 117.628ZM305.959 118.072C305.439 118.072 304.939 118.004 304.459 117.868C303.979 117.724 303.603 117.544 303.331 117.328L303.811 116.416C304.091 116.616 304.431 116.776 304.831 116.896C305.231 117.016 305.635 117.076 306.043 117.076C307.051 117.076 307.555 116.788 307.555 116.212C307.555 116.02 307.487 115.868 307.351 115.756C307.215 115.644 307.043 115.564 306.835 115.516C306.635 115.46 306.347 115.4 305.971 115.336C305.459 115.256 305.039 115.164 304.711 115.06C304.391 114.956 304.115 114.78 303.883 114.532C303.651 114.284 303.535 113.936 303.535 113.488C303.535 112.912 303.775 112.452 304.255 112.108C304.735 111.756 305.379 111.58 306.187 111.58C306.611 111.58 307.035 111.632 307.459 111.736C307.883 111.84 308.231 111.98 308.503 112.156L308.011 113.068C307.491 112.732 306.879 112.564 306.175 112.564C305.687 112.564 305.315 112.644 305.059 112.804C304.803 112.964 304.675 113.176 304.675 113.44C304.675 113.648 304.747 113.812 304.891 113.932C305.035 114.052 305.211 114.14 305.419 114.196C305.635 114.252 305.935 114.316 306.319 114.388C306.831 114.476 307.243 114.572 307.555 114.676C307.875 114.772 308.147 114.94 308.371 115.18C308.595 115.42 308.707 115.756 308.707 116.188C308.707 116.764 308.459 117.224 307.963 117.568C307.475 117.904 306.807 118.072 305.959 118.072Z" fill="#465361"/>
</g>
<g id="form_2">
<g id="Group 2067_2">
<g id="Group 2071_2">
<path id="No_2" d="M449.129 152.6V161H448.145L443.105 154.736V161H441.905V152.6H442.889L447.929 158.864V152.6H449.129ZM454.199 161.072C453.567 161.072 452.999 160.932 452.495 160.652C451.991 160.372 451.595 159.988 451.307 159.5C451.027 159.004 450.887 158.444 450.887 157.82C450.887 157.196 451.027 156.64 451.307 156.152C451.595 155.656 451.991 155.272 452.495 155C452.999 154.72 453.567 154.58 454.199 154.58C454.831 154.58 455.395 154.72 455.891 155C456.395 155.272 456.787 155.656 457.067 156.152C457.355 156.64 457.499 157.196 457.499 157.82C457.499 158.444 457.355 159.004 457.067 159.5C456.787 159.988 456.395 160.372 455.891 160.652C455.395 160.932 454.831 161.072 454.199 161.072ZM454.199 160.064C454.607 160.064 454.971 159.972 455.291 159.788C455.619 159.596 455.875 159.332 456.059 158.996C456.243 158.652 456.335 158.26 456.335 157.82C456.335 157.38 456.243 156.992 456.059 156.656C455.875 156.312 455.619 156.048 455.291 155.864C454.971 155.68 454.607 155.588 454.199 155.588C453.791 155.588 453.423 155.68 453.095 155.864C452.775 156.048 452.519 156.312 452.327 156.656C452.143 156.992 452.051 157.38 452.051 157.82C452.051 158.26 452.143 158.652 452.327 158.996C452.519 159.332 452.775 159.596 453.095 159.788C453.423 159.972 453.791 160.064 454.199 160.064Z" fill="#465361"/>
<g id="Group 2065_2">
<circle id="Ellipse 78_3" cx="428.322" cy="157" r="7.5" stroke="#E5EAEF"/>
<circle id="Ellipse 79_2" cx="428.323" cy="157" r="4.66667" fill="#E5EAEF"/>
</g>
</g>
<g id="Group 2066_2">
<circle id="Ellipse 78_4" cx="374" cy="157" r="7.5" stroke="#E5EAEF"/>
<path id="Yes_2" d="M390.798 158.096V161H389.61V158.072L386.274 152.6H387.558L390.246 157.028L392.946 152.6H394.134L390.798 158.096ZM400.217 157.856C400.217 157.944 400.209 158.06 400.193 158.204H395.033C395.105 158.764 395.349 159.216 395.765 159.56C396.189 159.896 396.713 160.064 397.337 160.064C398.097 160.064 398.709 159.808 399.173 159.296L399.809 160.04C399.521 160.376 399.161 160.632 398.729 160.808C398.305 160.984 397.829 161.072 397.301 161.072C396.629 161.072 396.033 160.936 395.513 160.664C394.993 160.384 394.589 159.996 394.301 159.5C394.021 159.004 393.881 158.444 393.881 157.82C393.881 157.204 394.017 156.648 394.289 156.152C394.569 155.656 394.949 155.272 395.429 155C395.917 154.72 396.465 154.58 397.073 154.58C397.681 154.58 398.221 154.72 398.693 155C399.173 155.272 399.545 155.656 399.809 156.152C400.081 156.648 400.217 157.216 400.217 157.856ZM397.073 155.552C396.521 155.552 396.057 155.72 395.681 156.056C395.313 156.392 395.097 156.832 395.033 157.376H399.113C399.049 156.84 398.829 156.404 398.453 156.068C398.085 155.724 397.625 155.552 397.073 155.552ZM403.641 161.072C403.121 161.072 402.621 161.004 402.141 160.868C401.661 160.724 401.285 160.544 401.013 160.328L401.493 159.416C401.773 159.616 402.113 159.776 402.513 159.896C402.913 160.016 403.317 160.076 403.725 160.076C404.733 160.076 405.237 159.788 405.237 159.212C405.237 159.02 405.169 158.868 405.033 158.756C404.897 158.644 404.725 158.564 404.517 158.516C404.317 158.46 404.029 158.4 403.653 158.336C403.141 158.256 402.721 158.164 402.393 158.06C402.073 157.956 401.797 157.78 401.565 157.532C401.333 157.284 401.217 156.936 401.217 156.488C401.217 155.912 401.457 155.452 401.937 155.108C402.417 154.756 403.061 154.58 403.869 154.58C404.293 154.58 404.717 154.632 405.141 154.736C405.565 154.84 405.913 154.98 406.185 155.156L405.693 156.068C405.173 155.732 404.561 155.564 403.857 155.564C403.369 155.564 402.997 155.644 402.741 155.804C402.485 155.964 402.357 156.176 402.357 156.44C402.357 156.648 402.429 156.812 402.573 156.932C402.717 157.052 402.893 157.14 403.101 157.196C403.317 157.252 403.617 157.316 404.001 157.388C404.513 157.476 404.925 157.572 405.237 157.676C405.557 157.772 405.829 157.94 406.053 158.18C406.277 158.42 406.389 158.756 406.389 159.188C406.389 159.764 406.141 160.224 405.645 160.568C405.157 160.904 404.489 161.072 403.641 161.072Z" fill="#465361"/>
</g>
</g>
<path id="Remove On backorder Products" d="M128.876 161L127.064 158.42C126.84 158.436 126.664 158.444 126.536 158.444H124.46V161H123.26V152.6H126.536C127.624 152.6 128.48 152.86 129.104 153.38C129.728 153.9 130.04 154.616 130.04 155.528C130.04 156.176 129.88 156.728 129.56 157.184C129.24 157.64 128.784 157.972 128.192 158.18L130.184 161H128.876ZM126.5 157.424C127.26 157.424 127.84 157.26 128.24 156.932C128.64 156.604 128.84 156.136 128.84 155.528C128.84 154.92 128.64 154.456 128.24 154.136C127.84 153.808 127.26 153.644 126.5 153.644H124.46V157.424H126.5ZM137.559 157.856C137.559 157.944 137.551 158.06 137.535 158.204H132.375C132.447 158.764 132.691 159.216 133.107 159.56C133.531 159.896 134.055 160.064 134.679 160.064C135.439 160.064 136.051 159.808 136.515 159.296L137.151 160.04C136.863 160.376 136.503 160.632 136.071 160.808C135.647 160.984 135.171 161.072 134.643 161.072C133.971 161.072 133.375 160.936 132.855 160.664C132.335 160.384 131.931 159.996 131.643 159.5C131.363 159.004 131.223 158.444 131.223 157.82C131.223 157.204 131.359 156.648 131.631 156.152C131.911 155.656 132.291 155.272 132.771 155C133.259 154.72 133.807 154.58 134.415 154.58C135.023 154.58 135.563 154.72 136.035 155C136.515 155.272 136.887 155.656 137.151 156.152C137.423 156.648 137.559 157.216 137.559 157.856ZM134.415 155.552C133.863 155.552 133.399 155.72 133.023 156.056C132.655 156.392 132.439 156.832 132.375 157.376H136.455C136.391 156.84 136.171 156.404 135.795 156.068C135.427 155.724 134.967 155.552 134.415 155.552ZM147.114 154.58C147.914 154.58 148.546 154.812 149.01 155.276C149.482 155.74 149.718 156.428 149.718 157.34V161H148.566V157.472C148.566 156.856 148.422 156.392 148.134 156.08C147.854 155.768 147.45 155.612 146.922 155.612C146.338 155.612 145.874 155.796 145.53 156.164C145.186 156.524 145.014 157.044 145.014 157.724V161H143.862V157.472C143.862 156.856 143.718 156.392 143.43 156.08C143.15 155.768 142.746 155.612 142.218 155.612C141.634 155.612 141.17 155.796 140.826 156.164C140.482 156.524 140.31 157.044 140.31 157.724V161H139.158V154.64H140.262V155.588C140.494 155.26 140.798 155.012 141.174 154.844C141.55 154.668 141.978 154.58 142.458 154.58C142.954 154.58 143.394 154.68 143.778 154.88C144.162 155.08 144.458 155.372 144.666 155.756C144.906 155.388 145.238 155.1 145.662 154.892C146.094 154.684 146.578 154.58 147.114 154.58ZM154.597 161.072C153.965 161.072 153.397 160.932 152.893 160.652C152.389 160.372 151.993 159.988 151.705 159.5C151.425 159.004 151.285 158.444 151.285 157.82C151.285 157.196 151.425 156.64 151.705 156.152C151.993 155.656 152.389 155.272 152.893 155C153.397 154.72 153.965 154.58 154.597 154.58C155.229 154.58 155.793 154.72 156.289 155C156.793 155.272 157.185 155.656 157.465 156.152C157.753 156.64 157.897 157.196 157.897 157.82C157.897 158.444 157.753 159.004 157.465 159.5C157.185 159.988 156.793 160.372 156.289 160.652C155.793 160.932 155.229 161.072 154.597 161.072ZM154.597 160.064C155.005 160.064 155.369 159.972 155.689 159.788C156.017 159.596 156.273 159.332 156.457 158.996C156.641 158.652 156.733 158.26 156.733 157.82C156.733 157.38 156.641 156.992 156.457 156.656C156.273 156.312 156.017 156.048 155.689 155.864C155.369 155.68 155.005 155.588 154.597 155.588C154.189 155.588 153.821 155.68 153.493 155.864C153.173 156.048 152.917 156.312 152.725 156.656C152.541 156.992 152.449 157.38 152.449 157.82C152.449 158.26 152.541 158.652 152.725 158.996C152.917 159.332 153.173 159.596 153.493 159.788C153.821 159.972 154.189 160.064 154.597 160.064ZM164.943 154.64L162.159 161H160.983L158.199 154.64H159.399L161.583 159.74L163.815 154.64H164.943ZM171.59 157.856C171.59 157.944 171.582 158.06 171.566 158.204H166.406C166.478 158.764 166.722 159.216 167.138 159.56C167.562 159.896 168.086 160.064 168.71 160.064C169.47 160.064 170.082 159.808 170.546 159.296L171.182 160.04C170.894 160.376 170.534 160.632 170.102 160.808C169.678 160.984 169.202 161.072 168.674 161.072C168.002 161.072 167.406 160.936 166.886 160.664C166.366 160.384 165.962 159.996 165.674 159.5C165.394 159.004 165.254 158.444 165.254 157.82C165.254 157.204 165.39 156.648 165.662 156.152C165.942 155.656 166.322 155.272 166.802 155C167.29 154.72 167.838 154.58 168.446 154.58C169.054 154.58 169.594 154.72 170.066 155C170.546 155.272 170.918 155.656 171.182 156.152C171.454 156.648 171.59 157.216 171.59 157.856ZM168.446 155.552C167.894 155.552 167.43 155.72 167.054 156.056C166.686 156.392 166.47 156.832 166.406 157.376H170.486C170.422 156.84 170.202 156.404 169.826 156.068C169.458 155.724 168.998 155.552 168.446 155.552ZM180.372 161.096C179.524 161.096 178.76 160.912 178.08 160.544C177.4 160.168 176.864 159.652 176.472 158.996C176.088 158.34 175.896 157.608 175.896 156.8C175.896 155.992 176.088 155.26 176.472 154.604C176.864 153.948 177.4 153.436 178.08 153.068C178.76 152.692 179.524 152.504 180.372 152.504C181.212 152.504 181.972 152.692 182.652 153.068C183.332 153.436 183.864 153.948 184.248 154.604C184.632 155.252 184.824 155.984 184.824 156.8C184.824 157.616 184.632 158.352 184.248 159.008C183.864 159.656 183.332 160.168 182.652 160.544C181.972 160.912 181.212 161.096 180.372 161.096ZM180.372 160.028C180.988 160.028 181.54 159.888 182.028 159.608C182.524 159.328 182.912 158.944 183.192 158.456C183.48 157.96 183.624 157.408 183.624 156.8C183.624 156.192 183.48 155.644 183.192 155.156C182.912 154.66 182.524 154.272 182.028 153.992C181.54 153.712 180.988 153.572 180.372 153.572C179.756 153.572 179.196 153.712 178.692 153.992C178.196 154.272 177.804 154.66 177.516 155.156C177.236 155.644 177.096 156.192 177.096 156.8C177.096 157.408 177.236 157.96 177.516 158.456C177.804 158.944 178.196 159.328 178.692 159.608C179.196 159.888 179.756 160.028 180.372 160.028ZM189.886 154.58C190.694 154.58 191.334 154.816 191.806 155.288C192.286 155.752 192.526 156.436 192.526 157.34V161H191.374V157.472C191.374 156.856 191.226 156.392 190.93 156.08C190.634 155.768 190.21 155.612 189.658 155.612C189.034 155.612 188.542 155.796 188.182 156.164C187.822 156.524 187.642 157.044 187.642 157.724V161H186.49V154.64H187.594V155.6C187.826 155.272 188.138 155.02 188.53 154.844C188.93 154.668 189.382 154.58 189.886 154.58ZM201.253 154.58C201.869 154.58 202.421 154.716 202.909 154.988C203.397 155.26 203.777 155.64 204.049 156.128C204.329 156.616 204.469 157.18 204.469 157.82C204.469 158.46 204.329 159.028 204.049 159.524C203.777 160.012 203.397 160.392 202.909 160.664C202.421 160.936 201.869 161.072 201.253 161.072C200.781 161.072 200.349 160.98 199.957 160.796C199.565 160.612 199.241 160.344 198.985 159.992V161H197.881V152.096H199.033V155.6C199.289 155.264 199.609 155.012 199.993 154.844C200.377 154.668 200.797 154.58 201.253 154.58ZM201.157 160.064C201.565 160.064 201.929 159.972 202.249 159.788C202.577 159.596 202.833 159.332 203.017 158.996C203.209 158.652 203.305 158.26 203.305 157.82C203.305 157.38 203.209 156.992 203.017 156.656C202.833 156.312 202.577 156.048 202.249 155.864C201.929 155.68 201.565 155.588 201.157 155.588C200.757 155.588 200.393 155.68 200.065 155.864C199.737 156.048 199.481 156.312 199.297 156.656C199.113 156.992 199.021 157.38 199.021 157.82C199.021 158.26 199.113 158.652 199.297 158.996C199.481 159.332 199.737 159.596 200.065 159.788C200.393 159.972 200.757 160.064 201.157 160.064ZM208.318 154.58C209.198 154.58 209.87 154.796 210.334 155.228C210.806 155.66 211.042 156.304 211.042 157.16V161H209.95V160.16C209.758 160.456 209.482 160.684 209.122 160.844C208.77 160.996 208.35 161.072 207.862 161.072C207.15 161.072 206.578 160.9 206.146 160.556C205.722 160.212 205.51 159.76 205.51 159.2C205.51 158.64 205.714 158.192 206.122 157.856C206.53 157.512 207.178 157.34 208.066 157.34H209.89V157.112C209.89 156.616 209.746 156.236 209.458 155.972C209.17 155.708 208.746 155.576 208.186 155.576C207.81 155.576 207.442 155.64 207.082 155.768C206.722 155.888 206.418 156.052 206.17 156.26L205.69 155.396C206.018 155.132 206.41 154.932 206.866 154.796C207.322 154.652 207.806 154.58 208.318 154.58ZM208.054 160.184C208.494 160.184 208.874 160.088 209.194 159.896C209.514 159.696 209.746 159.416 209.89 159.056V158.168H208.114C207.138 158.168 206.65 158.496 206.65 159.152C206.65 159.472 206.774 159.724 207.022 159.908C207.27 160.092 207.614 160.184 208.054 160.184ZM215.981 161.072C215.333 161.072 214.753 160.932 214.241 160.652C213.737 160.372 213.341 159.988 213.053 159.5C212.765 159.004 212.621 158.444 212.621 157.82C212.621 157.196 212.765 156.64 213.053 156.152C213.341 155.656 213.737 155.272 214.241 155C214.753 154.72 215.333 154.58 215.981 154.58C216.557 154.58 217.069 154.696 217.517 154.928C217.973 155.16 218.325 155.496 218.573 155.936L217.697 156.5C217.497 156.196 217.249 155.968 216.953 155.816C216.657 155.664 216.329 155.588 215.969 155.588C215.553 155.588 215.177 155.68 214.841 155.864C214.513 156.048 214.253 156.312 214.061 156.656C213.877 156.992 213.785 157.38 213.785 157.82C213.785 158.268 213.877 158.664 214.061 159.008C214.253 159.344 214.513 159.604 214.841 159.788C215.177 159.972 215.553 160.064 215.969 160.064C216.329 160.064 216.657 159.988 216.953 159.836C217.249 159.684 217.497 159.456 217.697 159.152L218.573 159.704C218.325 160.144 217.973 160.484 217.517 160.724C217.069 160.956 216.557 161.072 215.981 161.072ZM222.455 158.036L221.135 159.26V161H219.983V152.096H221.135V157.808L224.603 154.64H225.995L223.319 157.268L226.259 161H224.843L222.455 158.036ZM229.832 161.072C229.2 161.072 228.632 160.932 228.128 160.652C227.624 160.372 227.228 159.988 226.94 159.5C226.66 159.004 226.52 158.444 226.52 157.82C226.52 157.196 226.66 156.64 226.94 156.152C227.228 155.656 227.624 155.272 228.128 155C228.632 154.72 229.2 154.58 229.832 154.58C230.464 154.58 231.028 154.72 231.524 155C232.028 155.272 232.42 155.656 232.7 156.152C232.988 156.64 233.132 157.196 233.132 157.82C233.132 158.444 232.988 159.004 232.7 159.5C232.42 159.988 232.028 160.372 231.524 160.652C231.028 160.932 230.464 161.072 229.832 161.072ZM229.832 160.064C230.24 160.064 230.604 159.972 230.924 159.788C231.252 159.596 231.508 159.332 231.692 158.996C231.876 158.652 231.968 158.26 231.968 157.82C231.968 157.38 231.876 156.992 231.692 156.656C231.508 156.312 231.252 156.048 230.924 155.864C230.604 155.68 230.24 155.588 229.832 155.588C229.424 155.588 229.056 155.68 228.728 155.864C228.408 156.048 228.152 156.312 227.96 156.656C227.776 156.992 227.684 157.38 227.684 157.82C227.684 158.26 227.776 158.652 227.96 158.996C228.152 159.332 228.408 159.596 228.728 159.788C229.056 159.972 229.424 160.064 229.832 160.064ZM235.829 155.708C236.029 155.34 236.325 155.06 236.717 154.868C237.109 154.676 237.585 154.58 238.145 154.58V155.696C238.081 155.688 237.993 155.684 237.881 155.684C237.257 155.684 236.765 155.872 236.405 156.248C236.053 156.616 235.877 157.144 235.877 157.832V161H234.725V154.64H235.829V155.708ZM245.506 152.096V161H244.402V159.992C244.146 160.344 243.822 160.612 243.43 160.796C243.038 160.98 242.606 161.072 242.134 161.072C241.518 161.072 240.966 160.936 240.478 160.664C239.99 160.392 239.606 160.012 239.326 159.524C239.054 159.028 238.918 158.46 238.918 157.82C238.918 157.18 239.054 156.616 239.326 156.128C239.606 155.64 239.99 155.26 240.478 154.988C240.966 154.716 241.518 154.58 242.134 154.58C242.59 154.58 243.01 154.668 243.394 154.844C243.778 155.012 244.098 155.264 244.354 155.6V152.096H245.506ZM242.23 160.064C242.63 160.064 242.994 159.972 243.322 159.788C243.65 159.596 243.906 159.332 244.09 158.996C244.274 158.652 244.366 158.26 244.366 157.82C244.366 157.38 244.274 156.992 244.09 156.656C243.906 156.312 243.65 156.048 243.322 155.864C242.994 155.68 242.63 155.588 242.23 155.588C241.822 155.588 241.454 155.68 241.126 155.864C240.806 156.048 240.55 156.312 240.358 156.656C240.174 156.992 240.082 157.38 240.082 157.82C240.082 158.26 240.174 158.652 240.358 158.996C240.55 159.332 240.806 159.596 241.126 159.788C241.454 159.972 241.822 160.064 242.23 160.064ZM253.434 157.856C253.434 157.944 253.426 158.06 253.41 158.204H248.25C248.322 158.764 248.566 159.216 248.982 159.56C249.406 159.896 249.93 160.064 250.554 160.064C251.314 160.064 251.926 159.808 252.39 159.296L253.026 160.04C252.738 160.376 252.378 160.632 251.946 160.808C251.522 160.984 251.046 161.072 250.518 161.072C249.846 161.072 249.25 160.936 248.73 160.664C248.21 160.384 247.806 159.996 247.518 159.5C247.238 159.004 247.098 158.444 247.098 157.82C247.098 157.204 247.234 156.648 247.506 156.152C247.786 155.656 248.166 155.272 248.646 155C249.134 154.72 249.682 154.58 250.29 154.58C250.898 154.58 251.438 154.72 251.91 155C252.39 155.272 252.762 155.656 253.026 156.152C253.298 156.648 253.434 157.216 253.434 157.856ZM250.29 155.552C249.738 155.552 249.274 155.72 248.898 156.056C248.53 156.392 248.314 156.832 248.25 157.376H252.33C252.266 156.84 252.046 156.404 251.67 156.068C251.302 155.724 250.842 155.552 250.29 155.552ZM256.137 155.708C256.337 155.34 256.633 155.06 257.025 154.868C257.417 154.676 257.893 154.58 258.453 154.58V155.696C258.389 155.688 258.301 155.684 258.189 155.684C257.565 155.684 257.073 155.872 256.713 156.248C256.361 156.616 256.185 157.144 256.185 157.832V161H255.033V154.64H256.137V155.708ZM266.622 152.6C267.71 152.6 268.566 152.86 269.19 153.38C269.814 153.9 270.126 154.616 270.126 155.528C270.126 156.44 269.814 157.156 269.19 157.676C268.566 158.196 267.71 158.456 266.622 158.456H264.546V161H263.346V152.6H266.622ZM266.586 157.412C267.346 157.412 267.926 157.252 268.326 156.932C268.726 156.604 268.926 156.136 268.926 155.528C268.926 154.92 268.726 154.456 268.326 154.136C267.926 153.808 267.346 153.644 266.586 153.644H264.546V157.412H266.586ZM272.719 155.708C272.919 155.34 273.215 155.06 273.607 154.868C273.999 154.676 274.475 154.58 275.035 154.58V155.696C274.971 155.688 274.883 155.684 274.771 155.684C274.147 155.684 273.655 155.872 273.295 156.248C272.943 156.616 272.767 157.144 272.767 157.832V161H271.615V154.64H272.719V155.708ZM279.121 161.072C278.489 161.072 277.921 160.932 277.417 160.652C276.913 160.372 276.517 159.988 276.229 159.5C275.949 159.004 275.809 158.444 275.809 157.82C275.809 157.196 275.949 156.64 276.229 156.152C276.517 155.656 276.913 155.272 277.417 155C277.921 154.72 278.489 154.58 279.121 154.58C279.753 154.58 280.317 154.72 280.813 155C281.317 155.272 281.709 155.656 281.989 156.152C282.277 156.64 282.421 157.196 282.421 157.82C282.421 158.444 282.277 159.004 281.989 159.5C281.709 159.988 281.317 160.372 280.813 160.652C280.317 160.932 279.753 161.072 279.121 161.072ZM279.121 160.064C279.529 160.064 279.893 159.972 280.213 159.788C280.541 159.596 280.797 159.332 280.981 158.996C281.165 158.652 281.257 158.26 281.257 157.82C281.257 157.38 281.165 156.992 280.981 156.656C280.797 156.312 280.541 156.048 280.213 155.864C279.893 155.68 279.529 155.588 279.121 155.588C278.713 155.588 278.345 155.68 278.017 155.864C277.697 156.048 277.441 156.312 277.249 156.656C277.065 156.992 276.973 157.38 276.973 157.82C276.973 158.26 277.065 158.652 277.249 158.996C277.441 159.332 277.697 159.596 278.017 159.788C278.345 159.972 278.713 160.064 279.121 160.064ZM290.014 152.096V161H288.91V159.992C288.654 160.344 288.33 160.612 287.938 160.796C287.546 160.98 287.114 161.072 286.642 161.072C286.026 161.072 285.474 160.936 284.986 160.664C284.498 160.392 284.114 160.012 283.834 159.524C283.562 159.028 283.426 158.46 283.426 157.82C283.426 157.18 283.562 156.616 283.834 156.128C284.114 155.64 284.498 155.26 284.986 154.988C285.474 154.716 286.026 154.58 286.642 154.58C287.098 154.58 287.518 154.668 287.902 154.844C288.286 155.012 288.606 155.264 288.862 155.6V152.096H290.014ZM286.738 160.064C287.138 160.064 287.502 159.972 287.83 159.788C288.158 159.596 288.414 159.332 288.598 158.996C288.782 158.652 288.874 158.26 288.874 157.82C288.874 157.38 288.782 156.992 288.598 156.656C288.414 156.312 288.158 156.048 287.83 155.864C287.502 155.68 287.138 155.588 286.738 155.588C286.33 155.588 285.962 155.68 285.634 155.864C285.314 156.048 285.058 156.312 284.866 156.656C284.682 156.992 284.59 157.38 284.59 157.82C284.59 158.26 284.682 158.652 284.866 158.996C285.058 159.332 285.314 159.596 285.634 159.788C285.962 159.972 286.33 160.064 286.738 160.064ZM298.122 154.64V161H297.03V160.04C296.798 160.368 296.49 160.624 296.106 160.808C295.73 160.984 295.318 161.072 294.87 161.072C294.022 161.072 293.354 160.84 292.866 160.376C292.378 159.904 292.134 159.212 292.134 158.3V154.64H293.286V158.168C293.286 158.784 293.434 159.252 293.73 159.572C294.026 159.884 294.45 160.04 295.002 160.04C295.61 160.04 296.09 159.856 296.442 159.488C296.794 159.12 296.97 158.6 296.97 157.928V154.64H298.122ZM303.087 161.072C302.439 161.072 301.859 160.932 301.347 160.652C300.843 160.372 300.447 159.988 300.159 159.5C299.871 159.004 299.727 158.444 299.727 157.82C299.727 157.196 299.871 156.64 300.159 156.152C300.447 155.656 300.843 155.272 301.347 155C301.859 154.72 302.439 154.58 303.087 154.58C303.663 154.58 304.175 154.696 304.623 154.928C305.079 155.16 305.431 155.496 305.679 155.936L304.803 156.5C304.603 156.196 304.355 155.968 304.059 155.816C303.763 155.664 303.435 155.588 303.075 155.588C302.659 155.588 302.283 155.68 301.947 155.864C301.619 156.048 301.359 156.312 301.167 156.656C300.983 156.992 300.891 157.38 300.891 157.82C300.891 158.268 300.983 158.664 301.167 159.008C301.359 159.344 301.619 159.604 301.947 159.788C302.283 159.972 302.659 160.064 303.075 160.064C303.435 160.064 303.763 159.988 304.059 159.836C304.355 159.684 304.603 159.456 304.803 159.152L305.679 159.704C305.431 160.144 305.079 160.484 304.623 160.724C304.175 160.956 303.663 161.072 303.087 161.072ZM310.828 160.628C310.66 160.772 310.452 160.884 310.204 160.964C309.956 161.036 309.7 161.072 309.436 161.072C308.796 161.072 308.3 160.9 307.948 160.556C307.596 160.212 307.42 159.72 307.42 159.08V155.588H306.34V154.64H307.42V153.248H308.572V154.64H310.396V155.588H308.572V159.032C308.572 159.376 308.656 159.64 308.824 159.824C309 160.008 309.248 160.1 309.568 160.1C309.92 160.1 310.22 160 310.468 159.8L310.828 160.628ZM314.045 161.072C313.525 161.072 313.025 161.004 312.545 160.868C312.065 160.724 311.689 160.544 311.417 160.328L311.897 159.416C312.177 159.616 312.517 159.776 312.917 159.896C313.317 160.016 313.721 160.076 314.129 160.076C315.137 160.076 315.641 159.788 315.641 159.212C315.641 159.02 315.573 158.868 315.437 158.756C315.301 158.644 315.129 158.564 314.921 158.516C314.721 158.46 314.433 158.4 314.057 158.336C313.545 158.256 313.125 158.164 312.797 158.06C312.477 157.956 312.201 157.78 311.969 157.532C311.737 157.284 311.621 156.936 311.621 156.488C311.621 155.912 311.861 155.452 312.341 155.108C312.821 154.756 313.465 154.58 314.273 154.58C314.697 154.58 315.121 154.632 315.545 154.736C315.969 154.84 316.317 154.98 316.589 155.156L316.097 156.068C315.577 155.732 314.965 155.564 314.261 155.564C313.773 155.564 313.401 155.644 313.145 155.804C312.889 155.964 312.761 156.176 312.761 156.44C312.761 156.648 312.833 156.812 312.977 156.932C313.121 157.052 313.297 157.14 313.505 157.196C313.721 157.252 314.021 157.316 314.405 157.388C314.917 157.476 315.329 157.572 315.641 157.676C315.961 157.772 316.233 157.94 316.457 158.18C316.681 158.42 316.793 158.756 316.793 159.188C316.793 159.764 316.545 160.224 316.049 160.568C315.561 160.904 314.893 161.072 314.045 161.072Z" fill="#465361"/>
</g>
<g id="form_3">
<g id="Group 2067_3">
<g id="Group 2071_3">
<path id="No_3" d="M449.129 193.6V202H448.145L443.105 195.736V202H441.905V193.6H442.889L447.929 199.864V193.6H449.129ZM454.199 202.072C453.567 202.072 452.999 201.932 452.495 201.652C451.991 201.372 451.595 200.988 451.307 200.5C451.027 200.004 450.887 199.444 450.887 198.82C450.887 198.196 451.027 197.64 451.307 197.152C451.595 196.656 451.991 196.272 452.495 196C452.999 195.72 453.567 195.58 454.199 195.58C454.831 195.58 455.395 195.72 455.891 196C456.395 196.272 456.787 196.656 457.067 197.152C457.355 197.64 457.499 198.196 457.499 198.82C457.499 199.444 457.355 200.004 457.067 200.5C456.787 200.988 456.395 201.372 455.891 201.652C455.395 201.932 454.831 202.072 454.199 202.072ZM454.199 201.064C454.607 201.064 454.971 200.972 455.291 200.788C455.619 200.596 455.875 200.332 456.059 199.996C456.243 199.652 456.335 199.26 456.335 198.82C456.335 198.38 456.243 197.992 456.059 197.656C455.875 197.312 455.619 197.048 455.291 196.864C454.971 196.68 454.607 196.588 454.199 196.588C453.791 196.588 453.423 196.68 453.095 196.864C452.775 197.048 452.519 197.312 452.327 197.656C452.143 197.992 452.051 198.38 452.051 198.82C452.051 199.26 452.143 199.652 452.327 199.996C452.519 200.332 452.775 200.596 453.095 200.788C453.423 200.972 453.791 201.064 454.199 201.064Z" fill="#465361"/>
<g id="Group 2065_3">
<circle id="Ellipse 78_5" cx="428.322" cy="198" r="7.5" stroke="#E5EAEF"/>
<circle id="Ellipse 79_3" cx="428.323" cy="198" r="4.66667" fill="#E5EAEF"/>
</g>
</g>
<g id="Group 2066_3">
<circle id="Ellipse 78_6" cx="374" cy="198" r="7.5" stroke="#E5EAEF"/>
<path id="Yes_3" d="M390.798 199.096V202H389.61V199.072L386.274 193.6H387.558L390.246 198.028L392.946 193.6H394.134L390.798 199.096ZM400.217 198.856C400.217 198.944 400.209 199.06 400.193 199.204H395.033C395.105 199.764 395.349 200.216 395.765 200.56C396.189 200.896 396.713 201.064 397.337 201.064C398.097 201.064 398.709 200.808 399.173 200.296L399.809 201.04C399.521 201.376 399.161 201.632 398.729 201.808C398.305 201.984 397.829 202.072 397.301 202.072C396.629 202.072 396.033 201.936 395.513 201.664C394.993 201.384 394.589 200.996 394.301 200.5C394.021 200.004 393.881 199.444 393.881 198.82C393.881 198.204 394.017 197.648 394.289 197.152C394.569 196.656 394.949 196.272 395.429 196C395.917 195.72 396.465 195.58 397.073 195.58C397.681 195.58 398.221 195.72 398.693 196C399.173 196.272 399.545 196.656 399.809 197.152C400.081 197.648 400.217 198.216 400.217 198.856ZM397.073 196.552C396.521 196.552 396.057 196.72 395.681 197.056C395.313 197.392 395.097 197.832 395.033 198.376H399.113C399.049 197.84 398.829 197.404 398.453 197.068C398.085 196.724 397.625 196.552 397.073 196.552ZM403.641 202.072C403.121 202.072 402.621 202.004 402.141 201.868C401.661 201.724 401.285 201.544 401.013 201.328L401.493 200.416C401.773 200.616 402.113 200.776 402.513 200.896C402.913 201.016 403.317 201.076 403.725 201.076C404.733 201.076 405.237 200.788 405.237 200.212C405.237 200.02 405.169 199.868 405.033 199.756C404.897 199.644 404.725 199.564 404.517 199.516C404.317 199.46 404.029 199.4 403.653 199.336C403.141 199.256 402.721 199.164 402.393 199.06C402.073 198.956 401.797 198.78 401.565 198.532C401.333 198.284 401.217 197.936 401.217 197.488C401.217 196.912 401.457 196.452 401.937 196.108C402.417 195.756 403.061 195.58 403.869 195.58C404.293 195.58 404.717 195.632 405.141 195.736C405.565 195.84 405.913 195.98 406.185 196.156L405.693 197.068C405.173 196.732 404.561 196.564 403.857 196.564C403.369 196.564 402.997 196.644 402.741 196.804C402.485 196.964 402.357 197.176 402.357 197.44C402.357 197.648 402.429 197.812 402.573 197.932C402.717 198.052 402.893 198.14 403.101 198.196C403.317 198.252 403.617 198.316 404.001 198.388C404.513 198.476 404.925 198.572 405.237 198.676C405.557 198.772 405.829 198.94 406.053 199.18C406.277 199.42 406.389 199.756 406.389 200.188C406.389 200.764 406.141 201.224 405.645 201.568C405.157 201.904 404.489 202.072 403.641 202.072Z" fill="#465361"/>
</g>
</g>
<path id="Include Hidden Products" d="M123.26 193.6H124.46V202H123.26V193.6ZM130.203 195.58C131.011 195.58 131.651 195.816 132.123 196.288C132.603 196.752 132.843 197.436 132.843 198.34V202H131.691V198.472C131.691 197.856 131.543 197.392 131.247 197.08C130.951 196.768 130.527 196.612 129.975 196.612C129.351 196.612 128.859 196.796 128.499 197.164C128.139 197.524 127.959 198.044 127.959 198.724V202H126.807V195.64H127.911V196.6C128.143 196.272 128.455 196.02 128.847 195.844C129.247 195.668 129.699 195.58 130.203 195.58ZM137.782 202.072C137.134 202.072 136.554 201.932 136.042 201.652C135.538 201.372 135.142 200.988 134.854 200.5C134.566 200.004 134.422 199.444 134.422 198.82C134.422 198.196 134.566 197.64 134.854 197.152C135.142 196.656 135.538 196.272 136.042 196C136.554 195.72 137.134 195.58 137.782 195.58C138.358 195.58 138.87 195.696 139.318 195.928C139.774 196.16 140.126 196.496 140.374 196.936L139.498 197.5C139.298 197.196 139.05 196.968 138.754 196.816C138.458 196.664 138.13 196.588 137.77 196.588C137.354 196.588 136.978 196.68 136.642 196.864C136.314 197.048 136.054 197.312 135.862 197.656C135.678 197.992 135.586 198.38 135.586 198.82C135.586 199.268 135.678 199.664 135.862 200.008C136.054 200.344 136.314 200.604 136.642 200.788C136.978 200.972 137.354 201.064 137.77 201.064C138.13 201.064 138.458 200.988 138.754 200.836C139.05 200.684 139.298 200.456 139.498 200.152L140.374 200.704C140.126 201.144 139.774 201.484 139.318 201.724C138.87 201.956 138.358 202.072 137.782 202.072ZM141.783 193.096H142.935V202H141.783V193.096ZM151.063 195.64V202H149.971V201.04C149.739 201.368 149.431 201.624 149.047 201.808C148.671 201.984 148.259 202.072 147.811 202.072C146.963 202.072 146.295 201.84 145.807 201.376C145.319 200.904 145.075 200.212 145.075 199.3V195.64H146.227V199.168C146.227 199.784 146.375 200.252 146.671 200.572C146.967 200.884 147.391 201.04 147.943 201.04C148.551 201.04 149.031 200.856 149.383 200.488C149.735 200.12 149.911 199.6 149.911 198.928V195.64H151.063ZM159.256 193.096V202H158.152V200.992C157.896 201.344 157.572 201.612 157.18 201.796C156.788 201.98 156.356 202.072 155.884 202.072C155.268 202.072 154.716 201.936 154.228 201.664C153.74 201.392 153.356 201.012 153.076 200.524C152.804 200.028 152.668 199.46 152.668 198.82C152.668 198.18 152.804 197.616 153.076 197.128C153.356 196.64 153.74 196.26 154.228 195.988C154.716 195.716 155.268 195.58 155.884 195.58C156.34 195.58 156.76 195.668 157.144 195.844C157.528 196.012 157.848 196.264 158.104 196.6V193.096H159.256ZM155.98 201.064C156.38 201.064 156.744 200.972 157.072 200.788C157.4 200.596 157.656 200.332 157.84 199.996C158.024 199.652 158.116 199.26 158.116 198.82C158.116 198.38 158.024 197.992 157.84 197.656C157.656 197.312 157.4 197.048 157.072 196.864C156.744 196.68 156.38 196.588 155.98 196.588C155.572 196.588 155.204 196.68 154.876 196.864C154.556 197.048 154.3 197.312 154.108 197.656C153.924 197.992 153.832 198.38 153.832 198.82C153.832 199.26 153.924 199.652 154.108 199.996C154.3 200.332 154.556 200.596 154.876 200.788C155.204 200.972 155.572 201.064 155.98 201.064ZM167.184 198.856C167.184 198.944 167.176 199.06 167.16 199.204H162C162.072 199.764 162.316 200.216 162.732 200.56C163.156 200.896 163.68 201.064 164.304 201.064C165.064 201.064 165.676 200.808 166.14 200.296L166.776 201.04C166.488 201.376 166.128 201.632 165.696 201.808C165.272 201.984 164.796 202.072 164.268 202.072C163.596 202.072 163 201.936 162.48 201.664C161.96 201.384 161.556 200.996 161.268 200.5C160.988 200.004 160.848 199.444 160.848 198.82C160.848 198.204 160.984 197.648 161.256 197.152C161.536 196.656 161.916 196.272 162.396 196C162.884 195.72 163.432 195.58 164.04 195.58C164.648 195.58 165.188 195.72 165.66 196C166.14 196.272 166.512 196.656 166.776 197.152C167.048 197.648 167.184 198.216 167.184 198.856ZM164.04 196.552C163.488 196.552 163.024 196.72 162.648 197.056C162.28 197.392 162.064 197.832 162 198.376H166.08C166.016 197.84 165.796 197.404 165.42 197.068C165.052 196.724 164.592 196.552 164.04 196.552ZM179.398 193.6V202H178.198V198.256H173.374V202H172.174V193.6H173.374V197.212H178.198V193.6H179.398ZM181.744 195.64H182.896V202H181.744V195.64ZM182.32 194.416C182.096 194.416 181.908 194.344 181.756 194.2C181.612 194.056 181.54 193.88 181.54 193.672C181.54 193.464 181.612 193.288 181.756 193.144C181.908 192.992 182.096 192.916 182.32 192.916C182.544 192.916 182.728 192.988 182.872 193.132C183.024 193.268 183.1 193.44 183.1 193.648C183.1 193.864 183.024 194.048 182.872 194.2C182.728 194.344 182.544 194.416 182.32 194.416ZM191.096 193.096V202H189.992V200.992C189.736 201.344 189.412 201.612 189.02 201.796C188.628 201.98 188.196 202.072 187.724 202.072C187.108 202.072 186.556 201.936 186.068 201.664C185.58 201.392 185.196 201.012 184.916 200.524C184.644 200.028 184.508 199.46 184.508 198.82C184.508 198.18 184.644 197.616 184.916 197.128C185.196 196.64 185.58 196.26 186.068 195.988C186.556 195.716 187.108 195.58 187.724 195.58C188.18 195.58 188.6 195.668 188.984 195.844C189.368 196.012 189.688 196.264 189.944 196.6V193.096H191.096ZM187.82 201.064C188.22 201.064 188.584 200.972 188.912 200.788C189.24 200.596 189.496 200.332 189.68 199.996C189.864 199.652 189.956 199.26 189.956 198.82C189.956 198.38 189.864 197.992 189.68 197.656C189.496 197.312 189.24 197.048 188.912 196.864C188.584 196.68 188.22 196.588 187.82 196.588C187.412 196.588 187.044 196.68 186.716 196.864C186.396 197.048 186.14 197.312 185.948 197.656C185.764 197.992 185.672 198.38 185.672 198.82C185.672 199.26 185.764 199.652 185.948 199.996C186.14 200.332 186.396 200.596 186.716 200.788C187.044 200.972 187.412 201.064 187.82 201.064ZM199.276 193.096V202H198.172V200.992C197.916 201.344 197.592 201.612 197.2 201.796C196.808 201.98 196.376 202.072 195.904 202.072C195.288 202.072 194.736 201.936 194.248 201.664C193.76 201.392 193.376 201.012 193.096 200.524C192.824 200.028 192.688 199.46 192.688 198.82C192.688 198.18 192.824 197.616 193.096 197.128C193.376 196.64 193.76 196.26 194.248 195.988C194.736 195.716 195.288 195.58 195.904 195.58C196.36 195.58 196.78 195.668 197.164 195.844C197.548 196.012 197.868 196.264 198.124 196.6V193.096H199.276ZM196 201.064C196.4 201.064 196.764 200.972 197.092 200.788C197.42 200.596 197.676 200.332 197.86 199.996C198.044 199.652 198.136 199.26 198.136 198.82C198.136 198.38 198.044 197.992 197.86 197.656C197.676 197.312 197.42 197.048 197.092 196.864C196.764 196.68 196.4 196.588 196 196.588C195.592 196.588 195.224 196.68 194.896 196.864C194.576 197.048 194.32 197.312 194.128 197.656C193.944 197.992 193.852 198.38 193.852 198.82C193.852 199.26 193.944 199.652 194.128 199.996C194.32 200.332 194.576 200.596 194.896 200.788C195.224 200.972 195.592 201.064 196 201.064ZM207.203 198.856C207.203 198.944 207.195 199.06 207.179 199.204H202.019C202.091 199.764 202.335 200.216 202.751 200.56C203.175 200.896 203.699 201.064 204.323 201.064C205.083 201.064 205.695 200.808 206.159 200.296L206.795 201.04C206.507 201.376 206.147 201.632 205.715 201.808C205.291 201.984 204.815 202.072 204.287 202.072C203.615 202.072 203.019 201.936 202.499 201.664C201.979 201.384 201.575 200.996 201.287 200.5C201.007 200.004 200.867 199.444 200.867 198.82C200.867 198.204 201.003 197.648 201.275 197.152C201.555 196.656 201.935 196.272 202.415 196C202.903 195.72 203.451 195.58 204.059 195.58C204.667 195.58 205.207 195.72 205.679 196C206.159 196.272 206.531 196.656 206.795 197.152C207.067 197.648 207.203 198.216 207.203 198.856ZM204.059 196.552C203.507 196.552 203.043 196.72 202.667 197.056C202.299 197.392 202.083 197.832 202.019 198.376H206.099C206.035 197.84 205.815 197.404 205.439 197.068C205.071 196.724 204.611 196.552 204.059 196.552ZM212.199 195.58C213.007 195.58 213.647 195.816 214.119 196.288C214.599 196.752 214.839 197.436 214.839 198.34V202H213.687V198.472C213.687 197.856 213.539 197.392 213.243 197.08C212.947 196.768 212.523 196.612 211.971 196.612C211.347 196.612 210.855 196.796 210.495 197.164C210.135 197.524 209.955 198.044 209.955 198.724V202H208.803V195.64H209.907V196.6C210.139 196.272 210.451 196.02 210.843 195.844C211.243 195.668 211.695 195.58 212.199 195.58ZM223.638 193.6C224.726 193.6 225.582 193.86 226.206 194.38C226.83 194.9 227.142 195.616 227.142 196.528C227.142 197.44 226.83 198.156 226.206 198.676C225.582 199.196 224.726 199.456 223.638 199.456H221.562V202H220.362V193.6H223.638ZM223.602 198.412C224.362 198.412 224.942 198.252 225.342 197.932C225.742 197.604 225.942 197.136 225.942 196.528C225.942 195.92 225.742 195.456 225.342 195.136C224.942 194.808 224.362 194.644 223.602 194.644H221.562V198.412H223.602ZM229.735 196.708C229.935 196.34 230.231 196.06 230.623 195.868C231.015 195.676 231.491 195.58 232.051 195.58V196.696C231.987 196.688 231.899 196.684 231.787 196.684C231.163 196.684 230.671 196.872 230.311 197.248C229.959 197.616 229.783 198.144 229.783 198.832V202H228.631V195.64H229.735V196.708ZM236.136 202.072C235.504 202.072 234.936 201.932 234.432 201.652C233.928 201.372 233.532 200.988 233.244 200.5C232.964 200.004 232.824 199.444 232.824 198.82C232.824 198.196 232.964 197.64 233.244 197.152C233.532 196.656 233.928 196.272 234.432 196C234.936 195.72 235.504 195.58 236.136 195.58C236.768 195.58 237.332 195.72 237.828 196C238.332 196.272 238.724 196.656 239.004 197.152C239.292 197.64 239.436 198.196 239.436 198.82C239.436 199.444 239.292 200.004 239.004 200.5C238.724 200.988 238.332 201.372 237.828 201.652C237.332 201.932 236.768 202.072 236.136 202.072ZM236.136 201.064C236.544 201.064 236.908 200.972 237.228 200.788C237.556 200.596 237.812 200.332 237.996 199.996C238.18 199.652 238.272 199.26 238.272 198.82C238.272 198.38 238.18 197.992 237.996 197.656C237.812 197.312 237.556 197.048 237.228 196.864C236.908 196.68 236.544 196.588 236.136 196.588C235.728 196.588 235.36 196.68 235.032 196.864C234.712 197.048 234.456 197.312 234.264 197.656C234.08 197.992 233.988 198.38 233.988 198.82C233.988 199.26 234.08 199.652 234.264 199.996C234.456 200.332 234.712 200.596 235.032 200.788C235.36 200.972 235.728 201.064 236.136 201.064ZM247.03 193.096V202H245.926V200.992C245.67 201.344 245.346 201.612 244.954 201.796C244.562 201.98 244.13 202.072 243.658 202.072C243.042 202.072 242.49 201.936 242.002 201.664C241.514 201.392 241.13 201.012 240.85 200.524C240.578 200.028 240.442 199.46 240.442 198.82C240.442 198.18 240.578 197.616 240.85 197.128C241.13 196.64 241.514 196.26 242.002 195.988C242.49 195.716 243.042 195.58 243.658 195.58C244.114 195.58 244.534 195.668 244.918 195.844C245.302 196.012 245.622 196.264 245.878 196.6V193.096H247.03ZM243.754 201.064C244.154 201.064 244.518 200.972 244.846 200.788C245.174 200.596 245.43 200.332 245.614 199.996C245.798 199.652 245.89 199.26 245.89 198.82C245.89 198.38 245.798 197.992 245.614 197.656C245.43 197.312 245.174 197.048 244.846 196.864C244.518 196.68 244.154 196.588 243.754 196.588C243.346 196.588 242.978 196.68 242.65 196.864C242.33 197.048 242.074 197.312 241.882 197.656C241.698 197.992 241.606 198.38 241.606 198.82C241.606 199.26 241.698 199.652 241.882 199.996C242.074 200.332 242.33 200.596 242.65 200.788C242.978 200.972 243.346 201.064 243.754 201.064ZM255.137 195.64V202H254.045V201.04C253.813 201.368 253.505 201.624 253.121 201.808C252.745 201.984 252.333 202.072 251.885 202.072C251.037 202.072 250.369 201.84 249.881 201.376C249.393 200.904 249.149 200.212 249.149 199.3V195.64H250.301V199.168C250.301 199.784 250.449 200.252 250.745 200.572C251.041 200.884 251.465 201.04 252.017 201.04C252.625 201.04 253.105 200.856 253.457 200.488C253.809 200.12 253.985 199.6 253.985 198.928V195.64H255.137ZM260.102 202.072C259.454 202.072 258.874 201.932 258.362 201.652C257.858 201.372 257.462 200.988 257.174 200.5C256.886 200.004 256.742 199.444 256.742 198.82C256.742 198.196 256.886 197.64 257.174 197.152C257.462 196.656 257.858 196.272 258.362 196C258.874 195.72 259.454 195.58 260.102 195.58C260.678 195.58 261.19 195.696 261.638 195.928C262.094 196.16 262.446 196.496 262.694 196.936L261.818 197.5C261.618 197.196 261.37 196.968 261.074 196.816C260.778 196.664 260.45 196.588 260.09 196.588C259.674 196.588 259.298 196.68 258.962 196.864C258.634 197.048 258.374 197.312 258.182 197.656C257.998 197.992 257.906 198.38 257.906 198.82C257.906 199.268 257.998 199.664 258.182 200.008C258.374 200.344 258.634 200.604 258.962 200.788C259.298 200.972 259.674 201.064 260.09 201.064C260.45 201.064 260.778 200.988 261.074 200.836C261.37 200.684 261.618 200.456 261.818 200.152L262.694 200.704C262.446 201.144 262.094 201.484 261.638 201.724C261.19 201.956 260.678 202.072 260.102 202.072ZM267.844 201.628C267.676 201.772 267.468 201.884 267.22 201.964C266.972 202.036 266.716 202.072 266.452 202.072C265.812 202.072 265.316 201.9 264.964 201.556C264.612 201.212 264.436 200.72 264.436 200.08V196.588H263.356V195.64H264.436V194.248H265.588V195.64H267.412V196.588H265.588V200.032C265.588 200.376 265.672 200.64 265.84 200.824C266.016 201.008 266.264 201.1 266.584 201.1C266.936 201.1 267.236 201 267.484 200.8L267.844 201.628ZM271.061 202.072C270.541 202.072 270.041 202.004 269.561 201.868C269.081 201.724 268.705 201.544 268.433 201.328L268.913 200.416C269.193 200.616 269.533 200.776 269.933 200.896C270.333 201.016 270.737 201.076 271.145 201.076C272.153 201.076 272.657 200.788 272.657 200.212C272.657 200.02 272.589 199.868 272.453 199.756C272.317 199.644 272.145 199.564 271.937 199.516C271.737 199.46 271.449 199.4 271.073 199.336C270.561 199.256 270.141 199.164 269.813 199.06C269.493 198.956 269.217 198.78 268.985 198.532C268.753 198.284 268.637 197.936 268.637 197.488C268.637 196.912 268.877 196.452 269.357 196.108C269.837 195.756 270.481 195.58 271.289 195.58C271.713 195.58 272.137 195.632 272.561 195.736C272.985 195.84 273.333 195.98 273.605 196.156L273.113 197.068C272.593 196.732 271.981 196.564 271.277 196.564C270.789 196.564 270.417 196.644 270.161 196.804C269.905 196.964 269.777 197.176 269.777 197.44C269.777 197.648 269.849 197.812 269.993 197.932C270.137 198.052 270.313 198.14 270.521 198.196C270.737 198.252 271.037 198.316 271.421 198.388C271.933 198.476 272.345 198.572 272.657 198.676C272.977 198.772 273.249 198.94 273.473 199.18C273.697 199.42 273.809 199.756 273.809 200.188C273.809 200.764 273.561 201.224 273.065 201.568C272.577 201.904 271.909 202.072 271.061 202.072Z" fill="#465361"/>
</g>
</g>
<g id="top">
<path id="top bg" d="M30 25C30 19.4772 34.4772 15 40 15H540C545.523 15 550 19.4772 550 25V53H30V25Z" fill="#F6F8FB"/>
<g id="tabs">
<g id="Group 2153">
<g id="Group 2153_2">
<path id="Rectangle 478" d="M71.7458 36.0506C73.2341 31.544 77.445 28.5 82.191 28.5H149.106C153.852 28.5 158.063 31.5439 159.551 36.0506L165.148 53H66.1484L71.7458 36.0506Z" fill="#E5EAEF"/>
<path id="Feed Config" d="M80.6944 37.644V40.572H84.9064V41.604H80.6944V45H79.4944V36.6H85.4224V37.644H80.6944ZM92.4923 41.856C92.4923 41.944 92.4843 42.06 92.4683 42.204H87.3083C87.3803 42.764 87.6243 43.216 88.0403 43.56C88.4643 43.896 88.9883 44.064 89.6123 44.064C90.3723 44.064 90.9843 43.808 91.4483 43.296L92.0843 44.04C91.7963 44.376 91.4363 44.632 91.0043 44.808C90.5803 44.984 90.1043 45.072 89.5763 45.072C88.9043 45.072 88.3083 44.936 87.7883 44.664C87.2683 44.384 86.8643 43.996 86.5763 43.5C86.2963 43.004 86.1563 42.444 86.1563 41.82C86.1563 41.204 86.2923 40.648 86.5643 40.152C86.8443 39.656 87.2243 39.272 87.7043 39C88.1923 38.72 88.7403 38.58 89.3483 38.58C89.9563 38.58 90.4963 38.72 90.9683 39C91.4483 39.272 91.8203 39.656 92.0843 40.152C92.3563 40.648 92.4923 41.216 92.4923 41.856ZM89.3483 39.552C88.7963 39.552 88.3323 39.72 87.9563 40.056C87.5883 40.392 87.3723 40.832 87.3083 41.376H91.3883C91.3243 40.84 91.1043 40.404 90.7283 40.068C90.3603 39.724 89.9003 39.552 89.3483 39.552ZM99.84 41.856C99.84 41.944 99.832 42.06 99.816 42.204H94.656C94.728 42.764 94.972 43.216 95.388 43.56C95.812 43.896 96.336 44.064 96.96 44.064C97.72 44.064 98.332 43.808 98.796 43.296L99.432 44.04C99.144 44.376 98.784 44.632 98.352 44.808C97.928 44.984 97.452 45.072 96.924 45.072C96.252 45.072 95.656 44.936 95.136 44.664C94.616 44.384 94.212 43.996 93.924 43.5C93.644 43.004 93.504 42.444 93.504 41.82C93.504 41.204 93.64 40.648 93.912 40.152C94.192 39.656 94.572 39.272 95.052 39C95.54 38.72 96.088 38.58 96.696 38.58C97.304 38.58 97.844 38.72 98.316 39C98.796 39.272 99.168 39.656 99.432 40.152C99.704 40.648 99.84 41.216 99.84 41.856ZM96.696 39.552C96.144 39.552 95.68 39.72 95.304 40.056C94.936 40.392 94.72 40.832 94.656 41.376H98.736C98.672 40.84 98.452 40.404 98.076 40.068C97.708 39.724 97.248 39.552 96.696 39.552ZM107.44 36.096V45H106.336V43.992C106.08 44.344 105.756 44.612 105.364 44.796C104.972 44.98 104.54 45.072 104.068 45.072C103.452 45.072 102.9 44.936 102.412 44.664C101.924 44.392 101.54 44.012 101.26 43.524C100.988 43.028 100.852 42.46 100.852 41.82C100.852 41.18 100.988 40.616 101.26 40.128C101.54 39.64 101.924 39.26 102.412 38.988C102.9 38.716 103.452 38.58 104.068 38.58C104.524 38.58 104.944 38.668 105.328 38.844C105.712 39.012 106.032 39.264 106.288 39.6V36.096H107.44ZM104.164 44.064C104.564 44.064 104.928 43.972 105.256 43.788C105.584 43.596 105.84 43.332 106.024 42.996C106.208 42.652 106.3 42.26 106.3 41.82C106.3 41.38 106.208 40.992 106.024 40.656C105.84 40.312 105.584 40.048 105.256 39.864C104.928 39.68 104.564 39.588 104.164 39.588C103.756 39.588 103.388 39.68 103.06 39.864C102.74 40.048 102.484 40.312 102.292 40.656C102.108 40.992 102.016 41.38 102.016 41.82C102.016 42.26 102.108 42.652 102.292 42.996C102.484 43.332 102.74 43.596 103.06 43.788C103.388 43.972 103.756 44.064 104.164 44.064ZM116.766 45.096C115.926 45.096 115.166 44.912 114.486 44.544C113.814 44.168 113.286 43.656 112.902 43.008C112.518 42.352 112.326 41.616 112.326 40.8C112.326 39.984 112.518 39.252 112.902 38.604C113.286 37.948 113.818 37.436 114.498 37.068C115.178 36.692 115.938 36.504 116.778 36.504C117.434 36.504 118.034 36.616 118.578 36.84C119.122 37.056 119.586 37.38 119.97 37.812L119.19 38.568C118.558 37.904 117.77 37.572 116.826 37.572C116.202 37.572 115.638 37.712 115.134 37.992C114.63 38.272 114.234 38.66 113.946 39.156C113.666 39.644 113.526 40.192 113.526 40.8C113.526 41.408 113.666 41.96 113.946 42.456C114.234 42.944 114.63 43.328 115.134 43.608C115.638 43.888 116.202 44.028 116.826 44.028C117.762 44.028 118.55 43.692 119.19 43.02L119.97 43.776C119.586 44.208 119.118 44.536 118.566 44.76C118.022 44.984 117.422 45.096 116.766 45.096ZM123.968 45.072C123.336 45.072 122.768 44.932 122.264 44.652C121.76 44.372 121.364 43.988 121.076 43.5C120.796 43.004 120.656 42.444 120.656 41.82C120.656 41.196 120.796 40.64 121.076 40.152C121.364 39.656 121.76 39.272 122.264 39C122.768 38.72 123.336 38.58 123.968 38.58C124.6 38.58 125.164 38.72 125.66 39C126.164 39.272 126.556 39.656 126.836 40.152C127.124 40.64 127.268 41.196 127.268 41.82C127.268 42.444 127.124 43.004 126.836 43.5C126.556 43.988 126.164 44.372 125.66 44.652C125.164 44.932 124.6 45.072 123.968 45.072ZM123.968 44.064C124.376 44.064 124.74 43.972 125.06 43.788C125.388 43.596 125.644 43.332 125.828 42.996C126.012 42.652 126.104 42.26 126.104 41.82C126.104 41.38 126.012 40.992 125.828 40.656C125.644 40.312 125.388 40.048 125.06 39.864C124.74 39.68 124.376 39.588 123.968 39.588C123.56 39.588 123.192 39.68 122.864 39.864C122.544 40.048 122.288 40.312 122.096 40.656C121.912 40.992 121.82 41.38 121.82 41.82C121.82 42.26 121.912 42.652 122.096 42.996C122.288 43.332 122.544 43.596 122.864 43.788C123.192 43.972 123.56 44.064 123.968 44.064ZM132.258 38.58C133.066 38.58 133.706 38.816 134.178 39.288C134.658 39.752 134.898 40.436 134.898 41.34V45H133.746V41.472C133.746 40.856 133.598 40.392 133.302 40.08C133.006 39.768 132.582 39.612 132.03 39.612C131.406 39.612 130.914 39.796 130.554 40.164C130.194 40.524 130.014 41.044 130.014 41.724V45H128.862V38.64H129.966V39.6C130.198 39.272 130.51 39.02 130.902 38.844C131.302 38.668 131.754 38.58 132.258 38.58ZM139.358 36.972C138.67 36.972 138.326 37.344 138.326 38.088V38.64H140.174V39.588H138.35V45H137.198V39.588H136.118V38.64H137.198V38.076C137.198 37.444 137.382 36.944 137.75 36.576C138.118 36.208 138.634 36.024 139.298 36.024C139.554 36.024 139.794 36.056 140.018 36.12C140.242 36.184 140.434 36.276 140.594 36.396L140.246 37.272C139.982 37.072 139.686 36.972 139.358 36.972ZM142.226 38.64H143.378V45H142.226V38.64ZM142.802 37.416C142.578 37.416 142.39 37.344 142.238 37.2C142.094 37.056 142.022 36.88 142.022 36.672C142.022 36.464 142.094 36.288 142.238 36.144C142.39 35.992 142.578 35.916 142.802 35.916C143.026 35.916 143.21 35.988 143.354 36.132C143.506 36.268 143.582 36.44 143.582 36.648C143.582 36.864 143.506 37.048 143.354 37.2C143.21 37.344 143.026 37.416 142.802 37.416ZM151.656 38.64V44.136C151.656 45.248 151.38 46.068 150.828 46.596C150.276 47.132 149.452 47.4 148.356 47.4C147.756 47.4 147.184 47.316 146.64 47.148C146.096 46.988 145.656 46.756 145.32 46.452L145.872 45.564C146.168 45.82 146.532 46.02 146.964 46.164C147.404 46.316 147.856 46.392 148.32 46.392C149.064 46.392 149.612 46.216 149.964 45.864C150.324 45.512 150.504 44.976 150.504 44.256V43.752C150.232 44.08 149.896 44.328 149.496 44.496C149.104 44.656 148.676 44.736 148.212 44.736C147.604 44.736 147.052 44.608 146.556 44.352C146.068 44.088 145.684 43.724 145.404 43.26C145.124 42.788 144.984 42.252 144.984 41.652C144.984 41.052 145.124 40.52 145.404 40.056C145.684 39.584 146.068 39.22 146.556 38.964C147.052 38.708 147.604 38.58 148.212 38.58C148.692 38.58 149.136 38.668 149.544 38.844C149.96 39.02 150.3 39.28 150.564 39.624V38.64H151.656ZM148.344 43.728C148.76 43.728 149.132 43.64 149.46 43.464C149.796 43.288 150.056 43.044 150.24 42.732C150.432 42.412 150.528 42.052 150.528 41.652C150.528 41.036 150.324 40.54 149.916 40.164C149.508 39.78 148.984 39.588 148.344 39.588C147.696 39.588 147.168 39.78 146.76 40.164C146.352 40.54 146.148 41.036 146.148 41.652C146.148 42.052 146.24 42.412 146.424 42.732C146.616 43.044 146.876 43.288 147.204 43.464C147.54 43.64 147.92 43.728 148.344 43.728Z" fill="#465361"/>
</g>
</g>
<g id="Group 2151">
<g id="Group 2153_3">
<path id="Rectangle 478_2" d="M170.746 36.0506C172.234 31.544 176.445 28.5 181.191 28.5H245.106C249.852 28.5 254.063 31.5439 255.551 36.0506L261.148 53H165.148L170.746 36.0506Z" fill="#E5EAEF"/>
<path id="Rectangle 476" d="M171.944 37.4544C173.461 32.997 177.648 30 182.357 30H243.944C248.653 30 252.839 32.997 254.357 37.4544L259.65 53H166.65L171.944 37.4544Z" fill="white"/>
</g>
<path id="Filter" d="M199.917 38.144V41.072H204.129V42.104H199.917V45.5H198.717V37.1H204.645V38.144H199.917ZM206.049 39.14H207.201V45.5H206.049V39.14ZM206.625 37.916C206.401 37.916 206.213 37.844 206.061 37.7C205.917 37.556 205.845 37.38 205.845 37.172C205.845 36.964 205.917 36.788 206.061 36.644C206.213 36.492 206.401 36.416 206.625 36.416C206.849 36.416 207.033 36.488 207.177 36.632C207.329 36.768 207.405 36.94 207.405 37.148C207.405 37.364 207.329 37.548 207.177 37.7C207.033 37.844 206.849 37.916 206.625 37.916ZM209.401 36.596H210.553V45.5H209.401V36.596ZM216.481 45.128C216.313 45.272 216.105 45.384 215.857 45.464C215.609 45.536 215.353 45.572 215.089 45.572C214.449 45.572 213.953 45.4 213.601 45.056C213.249 44.712 213.073 44.22 213.073 43.58V40.088H211.993V39.14H213.073V37.748H214.225V39.14H216.049V40.088H214.225V43.532C214.225 43.876 214.309 44.14 214.477 44.324C214.653 44.508 214.901 44.6 215.221 44.6C215.573 44.6 215.873 44.5 216.121 44.3L216.481 45.128ZM223.41 42.356C223.41 42.444 223.402 42.56 223.386 42.704H218.226C218.298 43.264 218.542 43.716 218.958 44.06C219.382 44.396 219.906 44.564 220.53 44.564C221.29 44.564 221.902 44.308 222.366 43.796L223.002 44.54C222.714 44.876 222.354 45.132 221.922 45.308C221.498 45.484 221.022 45.572 220.494 45.572C219.822 45.572 219.226 45.436 218.706 45.164C218.186 44.884 217.782 44.496 217.494 44C217.214 43.504 217.074 42.944 217.074 42.32C217.074 41.704 217.21 41.148 217.482 40.652C217.762 40.156 218.142 39.772 218.622 39.5C219.11 39.22 219.658 39.08 220.266 39.08C220.874 39.08 221.414 39.22 221.886 39.5C222.366 39.772 222.738 40.156 223.002 40.652C223.274 41.148 223.41 41.716 223.41 42.356ZM220.266 40.052C219.714 40.052 219.25 40.22 218.874 40.556C218.506 40.892 218.29 41.332 218.226 41.876H222.306C222.242 41.34 222.022 40.904 221.646 40.568C221.278 40.224 220.818 40.052 220.266 40.052ZM226.114 40.208C226.314 39.84 226.61 39.56 227.002 39.368C227.394 39.176 227.87 39.08 228.43 39.08V40.196C228.366 40.188 228.278 40.184 228.166 40.184C227.542 40.184 227.05 40.372 226.69 40.748C226.338 41.116 226.162 41.644 226.162 42.332V45.5H225.01V39.14H226.114V40.208Z" fill="#465361"/>
</g>
<g id="Group 2154">
<g id="Group 2153_4">
<path id="Rectangle 478_3" d="M266.597 36.0506C268.086 31.544 272.297 28.5 277.043 28.5H364.957C369.703 28.5 373.914 31.5439 375.403 36.0506L381 53H261L266.597 36.0506Z" fill="#E5EAEF"/>
<path id="Advanced Filter" d="M279.622 42.9H275.158L274.234 45H272.998L276.802 36.6H277.99L281.806 45H280.546L279.622 42.9ZM279.202 41.94L277.39 37.824L275.578 41.94H279.202ZM288.832 36.096V45H287.728V43.992C287.472 44.344 287.148 44.612 286.756 44.796C286.364 44.98 285.932 45.072 285.46 45.072C284.844 45.072 284.292 44.936 283.804 44.664C283.316 44.392 282.932 44.012 282.652 43.524C282.38 43.028 282.244 42.46 282.244 41.82C282.244 41.18 282.38 40.616 282.652 40.128C282.932 39.64 283.316 39.26 283.804 38.988C284.292 38.716 284.844 38.58 285.46 38.58C285.916 38.58 286.336 38.668 286.72 38.844C287.104 39.012 287.424 39.264 287.68 39.6V36.096H288.832ZM285.556 44.064C285.956 44.064 286.32 43.972 286.648 43.788C286.976 43.596 287.232 43.332 287.416 42.996C287.6 42.652 287.692 42.26 287.692 41.82C287.692 41.38 287.6 40.992 287.416 40.656C287.232 40.312 286.976 40.048 286.648 39.864C286.32 39.68 285.956 39.588 285.556 39.588C285.148 39.588 284.78 39.68 284.452 39.864C284.132 40.048 283.876 40.312 283.684 40.656C283.5 40.992 283.408 41.38 283.408 41.82C283.408 42.26 283.5 42.652 283.684 42.996C283.876 43.332 284.132 43.596 284.452 43.788C284.78 43.972 285.148 44.064 285.556 44.064ZM296.64 38.64L293.856 45H292.68L289.896 38.64H291.096L293.28 43.74L295.512 38.64H296.64ZM299.832 38.58C300.712 38.58 301.384 38.796 301.848 39.228C302.32 39.66 302.556 40.304 302.556 41.16V45H301.464V44.16C301.272 44.456 300.996 44.684 300.636 44.844C300.284 44.996 299.864 45.072 299.376 45.072C298.664 45.072 298.092 44.9 297.66 44.556C297.236 44.212 297.024 43.76 297.024 43.2C297.024 42.64 297.228 42.192 297.636 41.856C298.044 41.512 298.692 41.34 299.58 41.34H301.404V41.112C301.404 40.616 301.26 40.236 300.972 39.972C300.684 39.708 300.26 39.576 299.7 39.576C299.324 39.576 298.956 39.64 298.596 39.768C298.236 39.888 297.932 40.052 297.684 40.26L297.204 39.396C297.532 39.132 297.924 38.932 298.38 38.796C298.836 38.652 299.32 38.58 299.832 38.58ZM299.568 44.184C300.008 44.184 300.388 44.088 300.708 43.896C301.028 43.696 301.26 43.416 301.404 43.056V42.168H299.628C298.652 42.168 298.164 42.496 298.164 43.152C298.164 43.472 298.288 43.724 298.536 43.908C298.784 44.092 299.128 44.184 299.568 44.184ZM308.084 38.58C308.892 38.58 309.532 38.816 310.004 39.288C310.484 39.752 310.724 40.436 310.724 41.34V45H309.572V41.472C309.572 40.856 309.424 40.392 309.128 40.08C308.832 39.768 308.408 39.612 307.856 39.612C307.232 39.612 306.74 39.796 306.38 40.164C306.02 40.524 305.84 41.044 305.84 41.724V45H304.688V38.64H305.792V39.6C306.024 39.272 306.336 39.02 306.728 38.844C307.128 38.668 307.58 38.58 308.084 38.58ZM315.663 45.072C315.015 45.072 314.435 44.932 313.923 44.652C313.419 44.372 313.023 43.988 312.735 43.5C312.447 43.004 312.303 42.444 312.303 41.82C312.303 41.196 312.447 40.64 312.735 40.152C313.023 39.656 313.419 39.272 313.923 39C314.435 38.72 315.015 38.58 315.663 38.58C316.239 38.58 316.751 38.696 317.199 38.928C317.655 39.16 318.007 39.496 318.255 39.936L317.379 40.5C317.179 40.196 316.931 39.968 316.635 39.816C316.339 39.664 316.011 39.588 315.651 39.588C315.235 39.588 314.859 39.68 314.523 39.864C314.195 40.048 313.935 40.312 313.743 40.656C313.559 40.992 313.467 41.38 313.467 41.82C313.467 42.268 313.559 42.664 313.743 43.008C313.935 43.344 314.195 43.604 314.523 43.788C314.859 43.972 315.235 44.064 315.651 44.064C316.011 44.064 316.339 43.988 316.635 43.836C316.931 43.684 317.179 43.456 317.379 43.152L318.255 43.704C318.007 44.144 317.655 44.484 317.199 44.724C316.751 44.956 316.239 45.072 315.663 45.072ZM325.401 41.856C325.401 41.944 325.393 42.06 325.377 42.204H320.217C320.289 42.764 320.533 43.216 320.949 43.56C321.373 43.896 321.897 44.064 322.521 44.064C323.281 44.064 323.893 43.808 324.357 43.296L324.993 44.04C324.705 44.376 324.345 44.632 323.913 44.808C323.489 44.984 323.013 45.072 322.485 45.072C321.813 45.072 321.217 44.936 320.697 44.664C320.177 44.384 319.773 43.996 319.485 43.5C319.205 43.004 319.065 42.444 319.065 41.82C319.065 41.204 319.201 40.648 319.473 40.152C319.753 39.656 320.133 39.272 320.613 39C321.101 38.72 321.649 38.58 322.257 38.58C322.865 38.58 323.405 38.72 323.877 39C324.357 39.272 324.729 39.656 324.993 40.152C325.265 40.648 325.401 41.216 325.401 41.856ZM322.257 39.552C321.705 39.552 321.241 39.72 320.865 40.056C320.497 40.392 320.281 40.832 320.217 41.376H324.297C324.233 40.84 324.013 40.404 323.637 40.068C323.269 39.724 322.809 39.552 322.257 39.552ZM333 36.096V45H331.896V43.992C331.64 44.344 331.316 44.612 330.924 44.796C330.532 44.98 330.1 45.072 329.628 45.072C329.012 45.072 328.46 44.936 327.972 44.664C327.484 44.392 327.1 44.012 326.82 43.524C326.548 43.028 326.412 42.46 326.412 41.82C326.412 41.18 326.548 40.616 326.82 40.128C327.1 39.64 327.484 39.26 327.972 38.988C328.46 38.716 329.012 38.58 329.628 38.58C330.084 38.58 330.504 38.668 330.888 38.844C331.272 39.012 331.592 39.264 331.848 39.6V36.096H333ZM329.724 44.064C330.124 44.064 330.488 43.972 330.816 43.788C331.144 43.596 331.4 43.332 331.584 42.996C331.768 42.652 331.86 42.26 331.86 41.82C331.86 41.38 331.768 40.992 331.584 40.656C331.4 40.312 331.144 40.048 330.816 39.864C330.488 39.68 330.124 39.588 329.724 39.588C329.316 39.588 328.948 39.68 328.62 39.864C328.3 40.048 328.044 40.312 327.852 40.656C327.668 40.992 327.576 41.38 327.576 41.82C327.576 42.26 327.668 42.652 327.852 42.996C328.044 43.332 328.3 43.596 328.62 43.788C328.948 43.972 329.316 44.064 329.724 44.064ZM339.771 37.644V40.572H343.983V41.604H339.771V45H338.571V36.6H344.499V37.644H339.771ZM345.903 38.64H347.055V45H345.903V38.64ZM346.479 37.416C346.255 37.416 346.067 37.344 345.915 37.2C345.771 37.056 345.699 36.88 345.699 36.672C345.699 36.464 345.771 36.288 345.915 36.144C346.067 35.992 346.255 35.916 346.479 35.916C346.703 35.916 346.887 35.988 347.031 36.132C347.183 36.268 347.259 36.44 347.259 36.648C347.259 36.864 347.183 37.048 347.031 37.2C346.887 37.344 346.703 37.416 346.479 37.416ZM349.254 36.096H350.406V45H349.254V36.096ZM356.334 44.628C356.166 44.772 355.958 44.884 355.71 44.964C355.462 45.036 355.206 45.072 354.942 45.072C354.302 45.072 353.806 44.9 353.454 44.556C353.102 44.212 352.926 43.72 352.926 43.08V39.588H351.846V38.64H352.926V37.248H354.078V38.64H355.902V39.588H354.078V43.032C354.078 43.376 354.162 43.64 354.33 43.824C354.506 44.008 354.754 44.1 355.074 44.1C355.426 44.1 355.726 44 355.974 43.8L356.334 44.628ZM363.264 41.856C363.264 41.944 363.256 42.06 363.24 42.204H358.08C358.152 42.764 358.396 43.216 358.812 43.56C359.236 43.896 359.76 44.064 360.384 44.064C361.144 44.064 361.756 43.808 362.22 43.296L362.856 44.04C362.568 44.376 362.208 44.632 361.776 44.808C361.352 44.984 360.876 45.072 360.348 45.072C359.676 45.072 359.08 44.936 358.56 44.664C358.04 44.384 357.636 43.996 357.348 43.5C357.068 43.004 356.928 42.444 356.928 41.82C356.928 41.204 357.064 40.648 357.336 40.152C357.616 39.656 357.996 39.272 358.476 39C358.964 38.72 359.512 38.58 360.12 38.58C360.728 38.58 361.268 38.72 361.74 39C362.22 39.272 362.592 39.656 362.856 40.152C363.128 40.648 363.264 41.216 363.264 41.856ZM360.12 39.552C359.568 39.552 359.104 39.72 358.728 40.056C358.36 40.392 358.144 40.832 358.08 41.376H362.16C362.096 40.84 361.876 40.404 361.5 40.068C361.132 39.724 360.672 39.552 360.12 39.552ZM365.967 39.708C366.167 39.34 366.463 39.06 366.855 38.868C367.247 38.676 367.723 38.58 368.283 38.58V39.696C368.219 39.688 368.131 39.684 368.019 39.684C367.395 39.684 366.903 39.872 366.543 40.248C366.191 40.616 366.015 41.144 366.015 41.832V45H364.863V38.64H365.967V39.708Z" fill="#465361"/>
</g>
</g>
<g id="Group 2155">
<g id="Group 2153_5">
<path id="Rectangle 478_4" d="M386.597 36.0506C388.086 31.544 392.297 28.5 397.043 28.5H448.957C453.703 28.5 457.914 31.5439 459.403 36.0506L465 53H381L386.597 36.0506Z" fill="#E5EAEF"/>
<path id="FTP/SFTP" d="M400.388 38.87V41.31H403.898V42.17H400.388V45H399.388V38H404.328V38.87H400.388ZM407.174 38.87H404.774V38H410.564V38.87H408.164V45H407.174V38.87ZM414.384 38C415.29 38 416.004 38.2167 416.524 38.65C417.044 39.0833 417.304 39.68 417.304 40.44C417.304 41.2 417.044 41.7967 416.524 42.23C416.004 42.6633 415.29 42.88 414.384 42.88H412.654V45H411.654V38H414.384ZM414.354 42.01C414.987 42.01 415.47 41.8767 415.804 41.61C416.137 41.3367 416.304 40.9467 416.304 40.44C416.304 39.9333 416.137 39.5467 415.804 39.28C415.47 39.0067 414.987 38.87 414.354 38.87H412.654V42.01H414.354ZM420.372 36.58H421.242L417.942 46H417.072L420.372 36.58ZM423.762 45.08C423.235 45.08 422.725 45 422.232 44.84C421.745 44.6733 421.362 44.46 421.082 44.2L421.452 43.42C421.719 43.66 422.059 43.8567 422.472 44.01C422.892 44.1567 423.322 44.23 423.762 44.23C424.342 44.23 424.775 44.1333 425.062 43.94C425.349 43.74 425.492 43.4767 425.492 43.15C425.492 42.91 425.412 42.7167 425.252 42.57C425.099 42.4167 424.905 42.3 424.672 42.22C424.445 42.14 424.122 42.05 423.702 41.95C423.175 41.8233 422.749 41.6967 422.422 41.57C422.102 41.4433 421.825 41.25 421.592 40.99C421.365 40.7233 421.252 40.3667 421.252 39.92C421.252 39.5467 421.349 39.21 421.542 38.91C421.742 38.61 422.042 38.37 422.442 38.19C422.842 38.01 423.339 37.92 423.932 37.92C424.345 37.92 424.752 37.9733 425.152 38.08C425.552 38.1867 425.895 38.34 426.182 38.54L425.852 39.34C425.559 39.1533 425.245 39.0133 424.912 38.92C424.579 38.82 424.252 38.77 423.932 38.77C423.365 38.77 422.939 38.8733 422.652 39.08C422.372 39.2867 422.232 39.5533 422.232 39.88C422.232 40.12 422.312 40.3167 422.472 40.47C422.632 40.6167 422.829 40.7333 423.062 40.82C423.302 40.9 423.625 40.9867 424.032 41.08C424.559 41.2067 424.982 41.3333 425.302 41.46C425.622 41.5867 425.895 41.78 426.122 42.04C426.355 42.3 426.472 42.65 426.472 43.09C426.472 43.4567 426.372 43.7933 426.172 44.1C425.972 44.4 425.669 44.64 425.262 44.82C424.855 44.9933 424.355 45.08 423.762 45.08ZM428.933 38.87V41.31H432.443V42.17H428.933V45H427.933V38H432.873V38.87H428.933ZM435.719 38.87H433.319V38H439.109V38.87H436.709V45H435.719V38.87ZM442.928 38C443.835 38 444.548 38.2167 445.068 38.65C445.588 39.0833 445.848 39.68 445.848 40.44C445.848 41.2 445.588 41.7967 445.068 42.23C444.548 42.6633 443.835 42.88 442.928 42.88H441.198V45H440.198V38H442.928ZM442.898 42.01C443.532 42.01 444.015 41.8767 444.348 41.61C444.682 41.3367 444.848 40.9467 444.848 40.44C444.848 39.9333 444.682 39.5467 444.348 39.28C444.015 39.0067 443.532 38.87 442.898 38.87H441.198V42.01H442.898Z" fill="#465361"/>
</g>
</g>
</g>
</g>
</g>
</g>
<defs>
<filter id="filter0_d" x="0" y="0" width="580" height="430" filterUnits="userSpaceOnUse" color-interpolation-filters="sRGB">
<feFlood flood-opacity="0" result="BackgroundImageFix"/>
<feColorMatrix in="SourceAlpha" type="matrix" values="0 0 0 0 0 0 0 0 0 0 0 0 0 0 0 0 0 0 127 0"/>
<feOffset dy="15"/>
<feGaussianBlur stdDeviation="15"/>
<feColorMatrix type="matrix" values="0 0 0 0 0.788235 0 0 0 0 0.788235 0 0 0 0 0.788235 0 0 0 0.3 0"/>
<feBlend mode="normal" in2="BackgroundImageFix" result="effect1_dropShadow"/>
<feBlend mode="normal" in="SourceGraphic" in2="effect1_dropShadow" result="shape"/>
</filter>
</defs>
</svg>
