<svg width="580" height="431" viewBox="0 0 580 431" fill="none" xmlns="http://www.w3.org/2000/svg">
<g opacity="0.8">
<rect x="50" y="35" width="520" height="371" rx="10" fill="#F6FAFD"/>
<g filter="url(#filter0_d)">
<path d="M30 25C30 19.4772 34.4772 15 40 15H540C545.523 15 550 19.4772 550 25V376C550 381.523 545.523 386 540 386H40C34.4772 386 30 381.523 30 376V25Z" fill="white"/>
</g>
<path d="M92.306 339.758C92.6247 340.48 92.5852 341.56 93.055 342.132C93.0942 342.164 93.1359 342.193 93.1811 342.22C95.9498 342.057 96.0978 338.911 94.7534 337.447C94.14 336.881 93.2656 336.642 92.216 337.094C86.7181 339.456 81.4675 337.947 78.2871 334.692C76.5516 332.977 75.4005 330.755 75.1156 328.345C74.2069 320.67 80.5125 315.832 84.8432 315.301C88.7436 314.824 92.3408 316.17 94.8104 318.692C97.4869 321.33 98.9015 325.317 98.052 329.879C97.6594 331.979 96.4086 334.594 93.6051 334.597C92.4621 334.599 91.3576 334.104 90.5715 333.281C89.8507 332.598 89.3609 331.655 89.2896 330.566C89.0201 326.425 94.3668 325.287 94.0143 321.127C93.9515 320.385 93.6265 319.74 93.112 319.201C91.4817 317.657 88.2365 317.06 85.2669 317.664C81.6117 318.408 78.0987 321.724 77.485 325.713C76.989 328.941 78.1279 332.629 80.5405 335.102C82.6761 337.203 85.7631 338.367 89.5684 337.5C90.7935 337.22 91.7226 336.073 93.7376 336.39C94.4581 336.503 95.0281 336.832 95.4492 337.284C97.0541 338.777 96.7979 341.928 94.7178 342.642C93.6333 343.014 91.6717 342.717 90.8075 341.768L90.7841 341.747C90.6747 341.687 90.5755 341.603 90.4883 341.499C90.1467 341.217 89.9356 340.679 89.9753 340.078C90.0333 339.221 90.5806 338.558 91.1961 338.6C91.4466 338.616 91.6702 338.747 91.8434 338.953C92.0616 339.134 92.2261 339.419 92.3062 339.758" fill="#524F54"/>
<path d="M128.596 328.246C128.819 327.931 128.963 327.603 129.037 327.266C129.111 326.927 129.144 326.624 129.144 326.354C129.144 325.982 129.098 325.598 129.012 325.208C128.926 324.818 128.77 324.48 128.552 324.188C128.323 323.884 128.018 323.643 127.644 323.471C127.265 323.299 126.794 323.213 126.237 323.213H124.842V329.404H125.852C126.564 329.404 127.144 329.294 127.585 329.071C128.028 328.853 128.366 328.578 128.59 328.246L128.596 328.246ZM131.593 325.861C131.593 326.589 131.449 327.237 131.168 327.799C130.881 328.36 130.484 328.825 129.973 329.197C129.474 329.564 128.923 329.833 128.326 330.005C127.723 330.177 127.086 330.263 126.415 330.263H124.841V334.51C124.841 334.739 124.882 334.94 124.956 335.112C125.031 335.29 125.192 335.422 125.427 335.514C125.549 335.559 125.755 335.599 126.053 335.639C126.352 335.68 126.628 335.708 126.879 335.714V336.413H120.859V335.714C121.015 335.697 121.245 335.674 121.549 335.639C121.848 335.611 122.054 335.565 122.174 335.513C122.375 335.427 122.519 335.307 122.604 335.141C122.689 334.975 122.736 334.768 122.736 334.51V324.4C122.736 324.165 122.703 323.958 122.64 323.775C122.577 323.592 122.422 323.454 122.174 323.362C121.92 323.276 121.673 323.213 121.427 323.173C121.18 323.139 120.967 323.116 120.789 323.104V322.405H127.195C128.497 322.405 129.56 322.72 130.374 323.345C131.184 323.976 131.591 324.812 131.591 325.861H131.593ZM120.183 323.104C120.016 323.11 119.827 323.15 119.615 323.219C119.397 323.288 119.196 323.38 119.006 323.488C118.777 323.632 118.593 323.798 118.449 323.987C118.307 324.178 118.186 324.434 118.077 324.775C117.611 326.293 117.066 328.071 116.446 330.1C115.826 332.134 115.16 334.296 114.443 336.594H113.53L109.989 325.813L106.304 336.594H105.432C104.783 334.291 104.106 331.901 103.411 329.42C102.711 326.943 102.241 325.288 102.005 324.444C101.942 324.239 101.856 324.055 101.741 323.895C101.626 323.74 101.472 323.598 101.271 323.466C101.104 323.356 100.915 323.271 100.697 323.214C100.473 323.157 100.272 323.123 100.094 323.111V322.41H105.816V323.109C105.315 323.138 104.89 323.183 104.542 323.258C104.186 323.333 104.008 323.453 104.008 323.625C104.008 323.689 104.018 323.774 104.041 323.883C104.058 323.992 104.075 324.084 104.087 324.147C104.242 324.726 104.511 325.678 104.895 327.014C105.28 328.349 105.848 330.344 106.606 333.004L110.113 322.601H111.083L114.613 333.228C115.09 331.595 115.497 330.162 115.842 328.941C116.181 327.72 116.467 326.677 116.691 325.812C116.846 325.198 116.95 324.78 116.99 324.551C117.03 324.327 117.047 324.133 117.047 323.978C117.047 323.754 116.892 323.565 116.588 323.41C116.278 323.261 115.777 323.158 115.095 323.106V322.407H120.187V323.106L120.183 323.104Z" fill="#33879E"/>
<path d="M161.344 332.246L161.045 336.413H150.082V335.714C150.237 335.697 150.467 335.674 150.771 335.64C151.07 335.611 151.276 335.565 151.397 335.514C151.598 335.427 151.741 335.307 151.827 335.141C151.913 334.975 151.959 334.769 151.959 334.511V324.474C151.959 324.251 151.919 324.056 151.845 323.884C151.77 323.712 151.621 323.574 151.397 323.471C151.242 323.39 151.029 323.309 150.76 323.235C150.484 323.159 150.26 323.113 150.082 323.103V322.404H156.006V323.103C155.816 323.108 155.581 323.143 155.288 323.199C154.996 323.263 154.783 323.314 154.651 323.359C154.425 323.433 154.272 323.57 154.191 323.761C154.105 323.949 154.064 324.154 154.064 324.373V333.785C154.064 334.214 154.087 334.552 154.127 334.793C154.168 335.034 154.27 335.222 154.43 335.354C154.578 335.474 154.801 335.55 155.107 335.583C155.404 335.622 155.824 335.639 156.363 335.639C156.61 335.639 156.861 335.634 157.126 335.617C157.39 335.605 157.642 335.576 157.877 335.537C158.107 335.496 158.32 335.445 158.515 335.376C158.71 335.307 158.854 335.221 158.945 335.112C159.215 334.808 159.53 334.349 159.892 333.735C160.248 333.122 160.495 332.624 160.633 332.239H161.338L161.344 332.246ZM149.497 336.413H143.298V335.714C143.522 335.708 143.809 335.679 144.164 335.639C144.515 335.599 144.756 335.548 144.888 335.473C145.094 335.353 145.241 335.209 145.34 335.043C145.437 334.883 145.483 334.682 145.483 334.436V324.251H145.333L140.546 336.184H140.053L135.495 324.004H135.363V332.367C135.363 333.175 135.414 333.794 135.518 334.212C135.62 334.631 135.775 334.935 135.989 335.118C136.131 335.26 136.436 335.392 136.889 335.512C137.342 335.636 137.639 335.707 137.779 335.712V336.411H132.115L132.336 335.71C132.629 335.679 132.723 335.634 133.051 335.56C133.377 335.484 133.623 335.375 133.801 335.232C134.035 335.049 134.191 334.767 134.277 334.384C134.362 334 134.403 333.363 134.403 332.469V325.305C134.403 324.893 134.357 324.554 134.259 324.291C134.162 324.027 134.018 323.815 133.829 323.649C133.628 323.471 133.376 323.334 133.083 323.247C132.785 323.161 132.492 323.115 132.199 323.104V322.405H136.986L140.999 332.905L144.433 324.118C144.559 323.797 144.668 323.459 144.754 323.11C144.84 322.76 144.892 322.526 144.898 322.405H149.472V323.106C149.288 323.111 149.054 323.141 148.766 323.192C148.479 323.243 148.273 323.296 148.141 323.342C147.917 323.423 147.762 323.555 147.688 323.738C147.606 323.921 147.566 324.122 147.566 324.34V334.435C147.566 334.67 147.606 334.865 147.685 335.02C147.759 335.175 147.914 335.312 148.138 335.433C148.257 335.501 148.464 335.565 148.769 335.616C149.071 335.673 149.313 335.707 149.491 335.714V336.413H149.497Z" fill="#C9471F"/>
<path d="M240.965 327.883C240.965 328.398 240.874 328.877 240.691 329.32C240.514 329.758 240.264 330.138 239.941 330.461C239.54 330.862 239.066 331.164 238.52 331.367C237.973 331.565 237.283 331.664 236.449 331.664H234.902V336H233.355V324.367H236.512C237.21 324.367 237.801 324.427 238.285 324.547C238.77 324.661 239.199 324.844 239.574 325.094C240.017 325.39 240.358 325.76 240.598 326.203C240.842 326.646 240.965 327.205 240.965 327.883ZM239.355 327.922C239.355 327.521 239.285 327.172 239.145 326.875C239.004 326.578 238.79 326.336 238.504 326.148C238.254 325.987 237.967 325.872 237.645 325.804C237.327 325.732 236.923 325.695 236.434 325.695H234.902V330.344H236.207C236.832 330.344 237.34 330.289 237.73 330.179C238.121 330.065 238.439 329.885 238.684 329.64C238.928 329.39 239.1 329.127 239.199 328.851C239.303 328.575 239.355 328.265 239.355 327.922Z" fill="#757276"/>
<path d="M251.684 325.703C252.158 326.224 252.52 326.862 252.77 327.617C253.025 328.372 253.152 329.229 253.152 330.187C253.152 331.146 253.022 332.005 252.762 332.765C252.507 333.521 252.147 334.151 251.684 334.656C251.204 335.182 250.637 335.578 249.98 335.844C249.329 336.109 248.585 336.242 247.746 336.242C246.928 336.242 246.184 336.107 245.512 335.836C244.845 335.565 244.277 335.172 243.809 334.656C243.34 334.14 242.978 333.508 242.723 332.758C242.473 332.008 242.348 331.151 242.348 330.187C242.348 329.239 242.473 328.39 242.723 327.64C242.973 326.885 243.337 326.239 243.816 325.703C244.275 325.192 244.842 324.802 245.52 324.531C246.202 324.26 246.944 324.125 247.746 324.125C248.579 324.125 249.327 324.263 249.988 324.539C250.655 324.81 251.22 325.198 251.684 325.703ZM251.543 330.187C251.543 328.677 251.204 327.513 250.527 326.695C249.85 325.872 248.926 325.461 247.754 325.461C246.572 325.461 245.642 325.872 244.965 326.695C244.293 327.513 243.957 328.677 243.957 330.187C243.957 331.713 244.301 332.883 244.988 333.695C245.676 334.502 246.598 334.906 247.754 334.906C248.91 334.906 249.829 334.502 250.512 333.695C251.199 332.883 251.543 331.713 251.543 330.187Z" fill="#757276"/>
<path d="M262.965 336H255.605V324.367H257.152V334.625H262.965V336Z" fill="#757276"/>
<path d="M271.496 324.367L267.402 330.898V336H265.855V331.062L261.746 324.367H263.457L266.637 329.57L269.848 324.367H271.496Z" fill="#757276"/>
<path d="M280.465 336H273.105V324.367H274.652V334.625H280.465V336Z" fill="#757276"/>
<path d="M291.184 336H289.535L288.395 332.758H283.363L282.223 336H280.652L284.887 324.367H286.949L291.184 336ZM287.918 331.429L285.879 325.719L283.832 331.429H287.918Z" fill="#757276"/>
<path d="M301.824 336H299.91L294.395 325.594V336H292.949V324.367H295.348L300.379 333.867V324.367H301.824V336Z" fill="#757276"/>
<path d="M314.621 335.14C313.986 335.432 313.29 335.687 312.535 335.906C311.785 336.12 311.059 336.226 310.355 336.226C309.449 336.226 308.618 336.101 307.863 335.851C307.108 335.601 306.465 335.226 305.934 334.726C305.397 334.221 304.983 333.591 304.691 332.836C304.4 332.075 304.254 331.187 304.254 330.172C304.254 328.312 304.796 326.846 305.879 325.773C306.967 324.695 308.46 324.156 310.355 324.156C311.017 324.156 311.691 324.237 312.379 324.398C313.072 324.554 313.816 324.823 314.613 325.203V327.039H314.473C314.311 326.914 314.077 326.75 313.77 326.547C313.462 326.344 313.16 326.174 312.863 326.039C312.504 325.877 312.095 325.745 311.637 325.64C311.184 325.531 310.668 325.476 310.09 325.476C308.788 325.476 307.757 325.896 306.996 326.734C306.241 327.567 305.863 328.698 305.863 330.125C305.863 331.63 306.259 332.802 307.051 333.64C307.842 334.474 308.921 334.89 310.285 334.89C310.785 334.89 311.283 334.841 311.777 334.742C312.277 334.643 312.715 334.515 313.09 334.359V331.508H309.973V330.148H314.621V335.14Z" fill="#757276"/>
<path d="M216.915 340.605C216.942 341.987 216.928 343.368 216.994 344.75C217.047 345.947 216.479 346.25 215.343 346.237C204.586 346.092 196.578 335.368 199.671 325.131C201.494 319.079 205.538 315.263 211.629 313.566C212.145 313.421 213.07 313.243 213.189 313.241C215.078 313 216.202 313 217.734 313C218.963 314.539 217.88 315.816 217.232 317.131C214.669 317.487 212.198 318.118 210.097 319.723C206.212 322.684 204.652 327.566 205.974 332.316C207.137 336.526 211.431 340.631 216.915 340.605Z" fill="#F2675E"/>
<path d="M229.323 331.279C229.323 331.279 228.914 332.292 228.213 332.608C227.262 330.844 226.839 328.805 225.134 327.594C225.703 326.686 224.963 326.121 224.421 325.818C222.214 324.542 219.928 323.371 217.298 324.752C217.272 323.028 217.312 321.305 217.219 319.581C217.14 318.028 217.827 317.423 219.307 317.542C221.553 317.713 223.377 318.805 225.068 320.16C227.328 321.976 228.464 324.463 229.323 327.121C229.323 327.121 230.05 328.649 229.323 331.279Z" fill="#D2D2D2"/>
<path d="M217.551 317.12C218.158 317.147 218.78 317.16 219.308 317.541C217.828 317.423 217.128 318.028 217.22 319.581C217.313 321.305 217.286 323.028 217.3 324.752C217.445 325.805 216.996 326.91 217.63 327.91C217.048 329.147 217.247 330.397 217.643 331.633C216.982 332.16 217.233 332.897 217.22 333.554C217.181 335.897 217.194 338.239 217.194 340.594L217.247 340.62C211.763 340.647 207.455 336.541 206.292 332.318C204.984 327.568 206.53 322.686 210.415 319.726C212.516 318.107 214.987 317.476 217.551 317.12ZM212.265 321.094C209.82 321.055 207.627 323.133 207.64 325.476C207.653 327.805 209.86 329.989 212.199 330.002C214.445 330.002 216.705 327.857 216.745 325.686C216.784 323.331 214.657 321.147 212.265 321.094Z" fill="#EEEEEE"/>
<path d="M217.18 340.581C217.18 338.239 217.166 335.897 217.206 333.542C217.219 332.884 216.968 332.147 217.629 331.621C218.858 331.621 219.994 331.963 220.813 332.858C222.069 334.226 223.522 334.581 225.293 334.213C226.086 334.055 226.932 334.108 227.764 334.068C226.839 337.739 221.897 340.752 217.18 340.581Z" fill="#676668"/>
<path d="M217.617 327.909C216.982 326.909 217.432 325.804 217.286 324.751C219.916 323.37 222.202 324.541 224.409 325.817C224.95 326.133 225.69 326.686 225.122 327.594C223.933 326.515 222.4 326.225 220.933 325.883C219.295 325.488 218.489 326.844 217.617 327.909Z" fill="#676668"/>
<path d="M212.264 321.094C214.642 321.133 216.783 323.331 216.743 325.686C216.704 327.858 214.444 330.003 212.198 330.003C209.859 330.003 207.652 327.818 207.639 325.476C207.626 323.133 209.819 321.054 212.264 321.094ZM213.215 322.528C211.735 322.515 210.559 323.62 210.506 325.055C210.467 326.529 211.748 327.858 213.215 327.871C214.616 327.884 215.884 326.673 215.937 325.292C216.003 323.804 214.748 322.541 213.215 322.528Z" fill="#FDFDFD"/>
<path d="M213.216 322.528C214.748 322.541 215.991 323.804 215.938 325.291C215.885 326.673 214.603 327.883 213.216 327.87C211.749 327.857 210.467 326.528 210.507 325.054C210.56 323.62 211.736 322.515 213.216 322.528Z" fill="#333333"/>
<circle cx="214.226" cy="324.907" r="1.36639" fill="white"/>
<path d="M375.122 313.9V337.15H373.54V341.377H369.321V342.961H346.121V319.711H351.922V313.9H375.122Z" fill="#2F87BA"/>
<path d="M373.538 317.333H350.338V337.148H373.538V317.333Z" fill="#2776A2"/>
<path d="M369.321 319.711H349.283V341.376H369.321V319.711Z" fill="#2776A2"/>
<path d="M371.429 316.012H348.229V339.126H371.429V316.012Z" fill="#EC6352"/>
<path d="M364.978 324.569H354.754V325.817H364.978V324.569Z" fill="white"/>
<path d="M360.49 325.44V322.872H359.245V325.44H360.49Z" fill="white"/>
<path d="M364.848 332.561C360.907 332.082 357.72 329.197 356.844 325.321H358.198C359.033 328.42 361.685 330.774 364.848 331.224V332.561Z" fill="white"/>
<path d="M355.227 331.224C358.39 330.774 361.042 328.422 361.877 325.321H363.231C362.355 329.197 359.168 332.08 355.227 332.561V331.224Z" fill="white"/>
<path d="M391.231 323.788H387.168V335.018H384.921V323.788H380.895V321.959H391.231V323.788Z" fill="#EC6352"/>
<path d="M397.218 327.304C396.932 327.257 396.637 327.232 396.332 327.232C395.337 327.232 394.665 327.615 394.319 328.38V335.018H392.145V325.312H394.221L394.276 326.397C394.801 325.554 395.528 325.133 396.459 325.133C396.769 325.133 397.026 325.174 397.229 325.258L397.218 327.304Z" fill="#EC6352"/>
<path d="M404.11 335.018C404.014 334.832 403.931 334.529 403.86 334.112C403.168 334.836 402.321 335.197 401.318 335.197C400.346 335.197 399.553 334.92 398.937 334.363C398.323 333.807 398.016 333.12 398.016 332.3C398.016 331.265 398.399 330.471 399.165 329.919C399.931 329.366 401.028 329.09 402.455 329.09H403.789V328.453C403.789 327.95 403.65 327.549 403.369 327.246C403.089 326.945 402.661 326.793 402.089 326.793C401.593 326.793 401.188 326.916 400.873 327.165C400.556 327.413 400.398 327.729 400.398 328.11H398.224C398.224 327.578 398.399 327.079 398.753 326.617C399.104 326.154 399.584 325.789 400.188 325.526C400.793 325.263 401.47 325.133 402.216 325.133C403.349 325.133 404.253 325.417 404.928 325.989C405.602 326.561 405.948 327.362 405.966 328.397V332.773C405.966 333.646 406.087 334.343 406.333 334.863V335.016H404.11V335.018ZM401.72 333.448C402.149 333.448 402.553 333.343 402.933 333.134C403.311 332.926 403.598 332.644 403.788 332.29V330.462H402.614C401.809 330.462 401.204 330.601 400.798 330.882C400.393 331.164 400.19 331.561 400.19 332.075C400.19 332.494 400.33 332.826 400.607 333.074C400.884 333.323 401.255 333.448 401.72 333.448Z" fill="#EC6352"/>
<path d="M410.259 325.312L410.322 326.434C411.037 325.566 411.977 325.133 413.141 325.133C415.158 325.133 416.184 326.29 416.219 328.604V335.016H414.044V328.731C414.044 328.115 413.912 327.658 413.646 327.362C413.38 327.067 412.947 326.918 412.344 326.918C411.468 326.918 410.814 327.315 410.383 328.11V335.016H408.209V325.312H410.259Z" fill="#EC6352"/>
<path d="M423.86 332.38C423.86 331.991 423.701 331.696 423.382 331.492C423.063 331.289 422.533 331.11 421.794 330.955C421.054 330.799 420.436 330.603 419.942 330.364C418.856 329.838 418.312 329.076 418.312 328.078C418.312 327.241 418.664 326.541 419.368 325.978C420.072 325.416 420.967 325.135 422.053 325.135C423.21 325.135 424.146 325.421 424.859 325.996C425.573 326.572 425.929 327.316 425.929 328.23H423.755C423.755 327.811 423.599 327.463 423.29 327.185C422.98 326.907 422.567 326.768 422.055 326.768C421.577 326.768 421.188 326.878 420.887 327.1C420.586 327.321 420.434 327.617 420.434 327.987C420.434 328.323 420.574 328.582 420.854 328.767C421.135 328.952 421.702 329.139 422.554 329.328C423.407 329.516 424.077 329.74 424.564 330.001C425.051 330.262 425.412 330.574 425.647 330.939C425.882 331.304 426 331.746 426 332.265C426 333.138 425.64 333.846 424.917 334.386C424.195 334.927 423.25 335.197 422.08 335.197C421.287 335.197 420.579 335.054 419.958 334.767C419.337 334.481 418.854 334.085 418.508 333.583C418.162 333.08 417.988 332.539 417.988 331.959H420.101C420.13 332.472 420.326 332.87 420.682 333.147C421.041 333.425 421.515 333.564 422.105 333.564C422.678 333.564 423.114 333.456 423.413 333.238C423.711 333.018 423.86 332.733 423.86 332.38Z" fill="#EC6352"/>
<path d="M430.206 335.018H428.031V321.241H430.206V335.018Z" fill="#EC6352"/>
<path d="M438.36 335.018C438.264 334.832 438.181 334.529 438.11 334.112C437.418 334.836 436.571 335.197 435.568 335.197C434.596 335.197 433.803 334.92 433.187 334.363C432.573 333.807 432.266 333.12 432.266 332.3C432.266 331.265 432.649 330.471 433.415 329.919C434.181 329.366 435.278 329.09 436.705 329.09H438.039V328.453C438.039 327.95 437.9 327.549 437.619 327.246C437.339 326.945 436.911 326.793 436.339 326.793C435.843 326.793 435.438 326.916 435.123 327.165C434.806 327.413 434.648 327.729 434.648 328.11H432.474C432.474 327.578 432.649 327.079 433.003 326.617C433.354 326.154 433.834 325.789 434.438 325.526C435.043 325.263 435.72 325.133 436.466 325.133C437.599 325.133 438.503 325.417 439.178 325.989C439.852 326.561 440.199 327.362 440.216 328.397V332.773C440.216 333.646 440.337 334.343 440.583 334.863V335.016H438.36V335.018ZM435.97 333.448C436.399 333.448 436.805 333.343 437.183 333.134C437.561 332.926 437.848 332.644 438.038 332.29V330.462H436.864C436.059 330.462 435.454 330.601 435.048 330.882C434.643 331.164 434.44 331.561 434.44 332.075C434.44 332.494 434.58 332.826 434.857 333.074C435.134 333.323 435.505 333.448 435.97 333.448Z" fill="#EC6352"/>
<path d="M445.215 322.954V325.312H446.924V326.927H445.215V332.345C445.215 332.715 445.287 332.984 445.434 333.147C445.581 333.312 445.841 333.394 446.218 333.394C446.468 333.394 446.721 333.365 446.978 333.305V334.991C446.482 335.129 446.006 335.197 445.546 335.197C443.875 335.197 443.041 334.274 443.041 332.427V326.929H441.447V325.314H443.041V322.956H445.215V322.954Z" fill="#EC6352"/>
<path d="M452.85 335.197C451.472 335.197 450.355 334.762 449.499 333.893C448.642 333.024 448.215 331.864 448.215 330.418V330.149C448.215 329.181 448.401 328.315 448.774 327.553C449.147 326.791 449.671 326.198 450.344 325.773C451.018 325.349 451.771 325.136 452.6 325.136C453.918 325.136 454.937 325.557 455.656 326.401C456.375 327.245 456.735 328.437 456.735 329.979V330.857H450.407C450.473 331.659 450.741 332.292 451.208 332.759C451.677 333.225 452.265 333.459 452.975 333.459C453.971 333.459 454.784 333.056 455.41 332.249L456.583 333.37C456.196 333.951 455.678 334.401 455.03 334.72C454.382 335.036 453.656 335.197 452.85 335.197ZM452.591 326.882C451.993 326.882 451.512 327.09 451.146 327.509C450.779 327.929 450.545 328.511 450.444 329.259H454.588V329.097C454.541 328.368 454.347 327.816 454.007 327.442C453.665 327.069 453.192 326.882 452.591 326.882Z" fill="#EC6352"/>
<path d="M460.537 329.905V335.018H458.818V321.959H463.624C465.05 321.959 466.167 322.324 466.975 323.053C467.782 323.783 468.188 324.748 468.188 325.951C468.188 327.219 467.793 328.196 467.002 328.88C466.211 329.564 465.079 329.907 463.605 329.907H460.537V329.905ZM460.537 328.497H463.624C464.542 328.497 465.246 328.279 465.736 327.845C466.225 327.412 466.47 326.784 466.47 325.964C466.47 325.185 466.225 324.563 465.736 324.095C465.248 323.627 464.576 323.385 463.723 323.367H460.537V328.497V328.497Z" fill="#BDE4F4"/>
<path d="M474.801 326.802C474.551 326.76 474.28 326.738 473.986 326.738C472.9 326.738 472.163 327.201 471.776 328.128V335.016H470.119V325.312H471.731L471.758 326.434C472.301 325.566 473.07 325.133 474.066 325.133C474.388 325.133 474.633 325.174 474.799 325.258V326.802H474.801Z" fill="#BDE4F4"/>
<path d="M480.172 335.197C478.859 335.197 477.791 334.765 476.967 333.902C476.143 333.038 475.732 331.882 475.732 330.436V330.131C475.732 329.168 475.915 328.31 476.283 327.553C476.65 326.796 477.163 326.205 477.822 325.777C478.481 325.349 479.196 325.136 479.965 325.136C481.224 325.136 482.203 325.552 482.9 326.383C483.599 327.214 483.947 328.404 483.947 329.952V330.643H477.387C477.411 331.599 477.69 332.372 478.224 332.962C478.758 333.552 479.437 333.845 480.261 333.845C480.845 333.845 481.34 333.726 481.747 333.486C482.153 333.247 482.508 332.931 482.812 332.535L483.824 333.325C483.013 334.571 481.796 335.197 480.172 335.197ZM479.967 326.497C479.299 326.497 478.738 326.74 478.285 327.228C477.833 327.716 477.552 328.399 477.443 329.279H482.294V329.153C482.247 328.31 482.019 327.656 481.613 327.194C481.208 326.729 480.659 326.497 479.967 326.497Z" fill="#BDE4F4"/>
<path d="M491.503 332.443C491.503 331.995 491.334 331.647 490.998 331.398C490.661 331.149 490.073 330.935 489.234 330.758C488.396 330.578 487.732 330.364 487.239 330.112C486.747 329.861 486.383 329.562 486.147 329.215C485.912 328.869 485.794 328.457 485.794 327.978C485.794 327.183 486.129 326.51 486.801 325.96C487.473 325.41 488.329 325.135 489.374 325.135C490.471 325.135 491.362 325.42 492.044 325.987C492.727 326.555 493.069 327.283 493.069 328.167H491.405C491.405 327.713 491.213 327.321 490.828 326.991C490.442 326.662 489.958 326.497 489.374 326.497C488.771 326.497 488.3 326.63 487.96 326.891C487.619 327.154 487.449 327.499 487.449 327.922C487.449 328.323 487.607 328.624 487.923 328.827C488.24 329.03 488.811 329.224 489.638 329.409C490.464 329.594 491.134 329.816 491.648 330.074C492.16 330.331 492.54 330.64 492.788 331.002C493.036 331.364 493.16 331.804 493.16 332.325C493.16 333.192 492.814 333.887 492.122 334.41C491.43 334.933 490.532 335.196 489.428 335.196C488.653 335.196 487.967 335.058 487.369 334.784C486.772 334.508 486.307 334.125 485.968 333.632C485.631 333.138 485.463 332.605 485.463 332.031H487.118C487.147 332.588 487.369 333.029 487.784 333.354C488.199 333.681 488.745 333.842 489.426 333.842C490.053 333.842 490.556 333.715 490.934 333.461C491.315 333.207 491.503 332.868 491.503 332.443Z" fill="#BDE4F4"/>
<path d="M500.954 332.443C500.954 331.995 500.786 331.647 500.449 331.398C500.112 331.149 499.524 330.935 498.685 330.758C497.847 330.578 497.183 330.364 496.69 330.112C496.198 329.861 495.834 329.562 495.598 329.215C495.363 328.869 495.245 328.457 495.245 327.978C495.245 327.183 495.58 326.51 496.252 325.96C496.924 325.41 497.78 325.135 498.825 325.135C499.922 325.135 500.813 325.42 501.495 325.987C502.178 326.555 502.52 327.283 502.52 328.167H500.856C500.856 327.713 500.664 327.321 500.279 326.991C499.893 326.662 499.41 326.497 498.825 326.497C498.222 326.497 497.751 326.63 497.411 326.891C497.07 327.154 496.9 327.499 496.9 327.922C496.9 328.323 497.058 328.624 497.375 328.827C497.691 329.03 498.262 329.224 499.089 329.409C499.915 329.594 500.585 329.816 501.099 330.074C501.611 330.331 501.991 330.64 502.24 331.002C502.488 331.364 502.611 331.804 502.611 332.325C502.611 333.192 502.265 333.887 501.573 334.41C500.882 334.933 499.984 335.196 498.879 335.196C498.104 335.196 497.418 335.058 496.821 334.784C496.223 334.508 495.758 334.125 495.419 333.632C495.082 333.138 494.914 332.605 494.914 332.031H496.569C496.598 332.588 496.821 333.029 497.235 333.354C497.65 333.681 498.197 333.842 498.877 333.842C499.504 333.842 500.007 333.715 500.386 333.461C500.766 333.207 500.954 332.868 500.954 332.443Z" fill="#BDE4F4"/>
<path d="M257.5 190.5H492.5V286C492.5 288.485 490.485 290.5 488 290.5H262C259.515 290.5 257.5 288.485 257.5 286V190.5Z" fill="white" stroke="#E5EAEF"/>
<rect x="257" y="240" width="236" height="24" fill="#E5EAEF"/>
<path d="M281.356 229.956V231H275.26V222.6H281.188V223.644H276.46V226.224H280.672V227.244H276.46V229.956H281.356ZM286.527 224.58C287.335 224.58 287.975 224.816 288.447 225.288C288.927 225.752 289.167 226.436 289.167 227.34V231H288.015V227.472C288.015 226.856 287.867 226.392 287.571 226.08C287.275 225.768 286.851 225.612 286.299 225.612C285.675 225.612 285.183 225.796 284.823 226.164C284.463 226.524 284.283 227.044 284.283 227.724V231H283.131V224.64H284.235V225.6C284.467 225.272 284.779 225.02 285.171 224.844C285.571 224.668 286.023 224.58 286.527 224.58ZM297.418 224.64V230.136C297.418 231.248 297.142 232.068 296.59 232.596C296.038 233.132 295.214 233.4 294.118 233.4C293.518 233.4 292.946 233.316 292.402 233.148C291.858 232.988 291.418 232.756 291.082 232.452L291.634 231.564C291.93 231.82 292.294 232.02 292.726 232.164C293.166 232.316 293.618 232.392 294.082 232.392C294.826 232.392 295.374 232.216 295.726 231.864C296.086 231.512 296.266 230.976 296.266 230.256V229.752C295.994 230.08 295.658 230.328 295.258 230.496C294.866 230.656 294.438 230.736 293.974 230.736C293.366 230.736 292.814 230.608 292.318 230.352C291.83 230.088 291.446 229.724 291.166 229.26C290.886 228.788 290.746 228.252 290.746 227.652C290.746 227.052 290.886 226.52 291.166 226.056C291.446 225.584 291.83 225.22 292.318 224.964C292.814 224.708 293.366 224.58 293.974 224.58C294.454 224.58 294.898 224.668 295.306 224.844C295.722 225.02 296.062 225.28 296.326 225.624V224.64H297.418ZM294.106 229.728C294.522 229.728 294.894 229.64 295.222 229.464C295.558 229.288 295.818 229.044 296.002 228.732C296.194 228.412 296.29 228.052 296.29 227.652C296.29 227.036 296.086 226.54 295.678 226.164C295.27 225.78 294.746 225.588 294.106 225.588C293.458 225.588 292.93 225.78 292.522 226.164C292.114 226.54 291.91 227.036 291.91 227.652C291.91 228.052 292.002 228.412 292.186 228.732C292.378 229.044 292.638 229.288 292.966 229.464C293.302 229.64 293.682 229.728 294.106 229.728ZM299.619 222.096H300.771V231H299.619V222.096ZM302.971 224.64H304.123V231H302.971V224.64ZM303.547 223.416C303.323 223.416 303.135 223.344 302.983 223.2C302.839 223.056 302.767 222.88 302.767 222.672C302.767 222.464 302.839 222.288 302.983 222.144C303.135 221.992 303.323 221.916 303.547 221.916C303.771 221.916 303.955 221.988 304.099 222.132C304.251 222.268 304.327 222.44 304.327 222.648C304.327 222.864 304.251 223.048 304.099 223.2C303.955 223.344 303.771 223.416 303.547 223.416ZM308.146 231.072C307.626 231.072 307.126 231.004 306.646 230.868C306.166 230.724 305.79 230.544 305.518 230.328L305.998 229.416C306.278 229.616 306.618 229.776 307.018 229.896C307.418 230.016 307.822 230.076 308.23 230.076C309.238 230.076 309.742 229.788 309.742 229.212C309.742 229.02 309.674 228.868 309.538 228.756C309.402 228.644 309.23 228.564 309.022 228.516C308.822 228.46 308.534 228.4 308.158 228.336C307.646 228.256 307.226 228.164 306.898 228.06C306.578 227.956 306.302 227.78 306.07 227.532C305.838 227.284 305.722 226.936 305.722 226.488C305.722 225.912 305.962 225.452 306.442 225.108C306.922 224.756 307.566 224.58 308.374 224.58C308.798 224.58 309.222 224.632 309.646 224.736C310.07 224.84 310.418 224.98 310.69 225.156L310.198 226.068C309.678 225.732 309.066 225.564 308.362 225.564C307.874 225.564 307.502 225.644 307.246 225.804C306.99 225.964 306.862 226.176 306.862 226.44C306.862 226.648 306.934 226.812 307.078 226.932C307.222 227.052 307.398 227.14 307.606 227.196C307.822 227.252 308.122 227.316 308.506 227.388C309.018 227.476 309.43 227.572 309.742 227.676C310.062 227.772 310.334 227.94 310.558 228.18C310.782 228.42 310.894 228.756 310.894 229.188C310.894 229.764 310.646 230.224 310.15 230.568C309.662 230.904 308.994 231.072 308.146 231.072ZM315.73 224.58C316.538 224.58 317.178 224.816 317.65 225.288C318.13 225.752 318.37 226.436 318.37 227.34V231H317.218V227.472C317.218 226.856 317.07 226.392 316.774 226.08C316.478 225.768 316.054 225.612 315.502 225.612C314.878 225.612 314.386 225.796 314.026 226.164C313.666 226.524 313.486 227.044 313.486 227.724V231H312.334V222.096H313.486V225.54C313.726 225.236 314.038 225 314.422 224.832C314.814 224.664 315.25 224.58 315.73 224.58ZM276.46 247.644V250.572H280.672V251.604H276.46V255H275.26V246.6H281.188V247.644H276.46ZM283.696 249.708C283.896 249.34 284.192 249.06 284.584 248.868C284.976 248.676 285.452 248.58 286.012 248.58V249.696C285.948 249.688 285.86 249.684 285.748 249.684C285.124 249.684 284.632 249.872 284.272 250.248C283.92 250.616 283.744 251.144 283.744 251.832V255H282.592V248.64H283.696V249.708ZM289.736 248.58C290.616 248.58 291.288 248.796 291.752 249.228C292.224 249.66 292.46 250.304 292.46 251.16V255H291.368V254.16C291.176 254.456 290.9 254.684 290.54 254.844C290.188 254.996 289.768 255.072 289.28 255.072C288.568 255.072 287.996 254.9 287.564 254.556C287.14 254.212 286.928 253.76 286.928 253.2C286.928 252.64 287.132 252.192 287.54 251.856C287.948 251.512 288.596 251.34 289.484 251.34H291.308V251.112C291.308 250.616 291.164 250.236 290.876 249.972C290.588 249.708 290.164 249.576 289.604 249.576C289.228 249.576 288.86 249.64 288.5 249.768C288.14 249.888 287.836 250.052 287.588 250.26L287.108 249.396C287.436 249.132 287.828 248.932 288.284 248.796C288.74 248.652 289.224 248.58 289.736 248.58ZM289.472 254.184C289.912 254.184 290.292 254.088 290.612 253.896C290.932 253.696 291.164 253.416 291.308 253.056V252.168H289.532C288.556 252.168 288.068 252.496 288.068 253.152C288.068 253.472 288.192 253.724 288.44 253.908C288.688 254.092 289.032 254.184 289.472 254.184ZM297.988 248.58C298.796 248.58 299.436 248.816 299.908 249.288C300.388 249.752 300.628 250.436 300.628 251.34V255H299.476V251.472C299.476 250.856 299.328 250.392 299.032 250.08C298.736 249.768 298.312 249.612 297.76 249.612C297.136 249.612 296.644 249.796 296.284 250.164C295.924 250.524 295.744 251.044 295.744 251.724V255H294.592V248.64H295.696V249.6C295.928 249.272 296.24 249.02 296.632 248.844C297.032 248.668 297.484 248.58 297.988 248.58ZM305.567 255.072C304.919 255.072 304.339 254.932 303.827 254.652C303.323 254.372 302.927 253.988 302.639 253.5C302.351 253.004 302.207 252.444 302.207 251.82C302.207 251.196 302.351 250.64 302.639 250.152C302.927 249.656 303.323 249.272 303.827 249C304.339 248.72 304.919 248.58 305.567 248.58C306.143 248.58 306.655 248.696 307.103 248.928C307.559 249.16 307.911 249.496 308.159 249.936L307.283 250.5C307.083 250.196 306.835 249.968 306.539 249.816C306.243 249.664 305.915 249.588 305.555 249.588C305.139 249.588 304.763 249.68 304.427 249.864C304.099 250.048 303.839 250.312 303.647 250.656C303.463 250.992 303.371 251.38 303.371 251.82C303.371 252.268 303.463 252.664 303.647 253.008C303.839 253.344 304.099 253.604 304.427 253.788C304.763 253.972 305.139 254.064 305.555 254.064C305.915 254.064 306.243 253.988 306.539 253.836C306.835 253.684 307.083 253.456 307.283 253.152L308.159 253.704C307.911 254.144 307.559 254.484 307.103 254.724C306.655 254.956 306.143 255.072 305.567 255.072ZM305.003 257.688C304.587 257.688 304.231 257.6 303.935 257.424L304.187 256.836C304.427 256.972 304.699 257.04 305.003 257.04C305.451 257.04 305.675 256.88 305.675 256.56C305.675 256.416 305.619 256.3 305.507 256.212C305.395 256.132 305.223 256.092 304.991 256.092H304.667L304.967 254.916H305.627L305.447 255.6C305.783 255.632 306.039 255.736 306.215 255.912C306.399 256.096 306.491 256.324 306.491 256.596C306.491 256.932 306.355 257.196 306.083 257.388C305.811 257.588 305.451 257.688 305.003 257.688ZM311.967 248.58C312.847 248.58 313.519 248.796 313.983 249.228C314.455 249.66 314.691 250.304 314.691 251.16V255H313.599V254.16C313.407 254.456 313.131 254.684 312.771 254.844C312.419 254.996 311.999 255.072 311.511 255.072C310.799 255.072 310.227 254.9 309.795 254.556C309.371 254.212 309.159 253.76 309.159 253.2C309.159 252.64 309.363 252.192 309.771 251.856C310.179 251.512 310.827 251.34 311.715 251.34H313.539V251.112C313.539 250.616 313.395 250.236 313.107 249.972C312.819 249.708 312.395 249.576 311.835 249.576C311.459 249.576 311.091 249.64 310.731 249.768C310.371 249.888 310.067 250.052 309.819 250.26L309.339 249.396C309.667 249.132 310.059 248.932 310.515 248.796C310.971 248.652 311.455 248.58 311.967 248.58ZM311.703 254.184C312.143 254.184 312.523 254.088 312.843 253.896C313.163 253.696 313.395 253.416 313.539 253.056V252.168H311.763C310.787 252.168 310.299 252.496 310.299 253.152C310.299 253.472 310.423 253.724 310.671 253.908C310.919 254.092 311.263 254.184 311.703 254.184ZM316.822 248.64H317.974V255H316.822V248.64ZM317.398 247.416C317.174 247.416 316.986 247.344 316.834 247.2C316.69 247.056 316.618 246.88 316.618 246.672C316.618 246.464 316.69 246.288 316.834 246.144C316.986 245.992 317.174 245.916 317.398 245.916C317.622 245.916 317.806 245.988 317.95 246.132C318.102 246.268 318.178 246.44 318.178 246.648C318.178 246.864 318.102 247.048 317.95 247.2C317.806 247.344 317.622 247.416 317.398 247.416ZM321.998 255.072C321.478 255.072 320.978 255.004 320.498 254.868C320.018 254.724 319.642 254.544 319.37 254.328L319.85 253.416C320.13 253.616 320.47 253.776 320.87 253.896C321.27 254.016 321.674 254.076 322.082 254.076C323.09 254.076 323.594 253.788 323.594 253.212C323.594 253.02 323.526 252.868 323.39 252.756C323.254 252.644 323.082 252.564 322.874 252.516C322.674 252.46 322.386 252.4 322.01 252.336C321.498 252.256 321.078 252.164 320.75 252.06C320.43 251.956 320.154 251.78 319.922 251.532C319.69 251.284 319.574 250.936 319.574 250.488C319.574 249.912 319.814 249.452 320.294 249.108C320.774 248.756 321.418 248.58 322.226 248.58C322.65 248.58 323.074 248.632 323.498 248.736C323.922 248.84 324.27 248.98 324.542 249.156L324.05 250.068C323.53 249.732 322.918 249.564 322.214 249.564C321.726 249.564 321.354 249.644 321.098 249.804C320.842 249.964 320.714 250.176 320.714 250.44C320.714 250.648 320.786 250.812 320.93 250.932C321.074 251.052 321.25 251.14 321.458 251.196C321.674 251.252 321.974 251.316 322.358 251.388C322.87 251.476 323.282 251.572 323.594 251.676C323.914 251.772 324.186 251.94 324.41 252.18C324.634 252.42 324.746 252.756 324.746 253.188C324.746 253.764 324.498 254.224 324.002 254.568C323.514 254.904 322.846 255.072 321.998 255.072ZM282.484 270.6V279H281.5L276.46 272.736V279H275.26V270.6H276.244L281.284 276.864V270.6H282.484ZM290.578 275.856C290.578 275.944 290.57 276.06 290.554 276.204H285.394C285.466 276.764 285.71 277.216 286.126 277.56C286.55 277.896 287.074 278.064 287.698 278.064C288.458 278.064 289.07 277.808 289.534 277.296L290.17 278.04C289.882 278.376 289.522 278.632 289.09 278.808C288.666 278.984 288.19 279.072 287.662 279.072C286.99 279.072 286.394 278.936 285.874 278.664C285.354 278.384 284.95 277.996 284.662 277.5C284.382 277.004 284.242 276.444 284.242 275.82C284.242 275.204 284.378 274.648 284.65 274.152C284.93 273.656 285.31 273.272 285.79 273C286.278 272.72 286.826 272.58 287.434 272.58C288.042 272.58 288.582 272.72 289.054 273C289.534 273.272 289.906 273.656 290.17 274.152C290.442 274.648 290.578 275.216 290.578 275.856ZM287.434 273.552C286.882 273.552 286.418 273.72 286.042 274.056C285.674 274.392 285.458 274.832 285.394 275.376H289.474C289.41 274.84 289.19 274.404 288.814 274.068C288.446 273.724 287.986 273.552 287.434 273.552ZM295.754 278.628C295.586 278.772 295.378 278.884 295.13 278.964C294.882 279.036 294.626 279.072 294.362 279.072C293.722 279.072 293.226 278.9 292.874 278.556C292.522 278.212 292.346 277.72 292.346 277.08V273.588H291.266V272.64H292.346V271.248H293.498V272.64H295.322V273.588H293.498V277.032C293.498 277.376 293.582 277.64 293.75 277.824C293.926 278.008 294.174 278.1 294.494 278.1C294.846 278.1 295.146 278 295.394 277.8L295.754 278.628ZM300.543 272.58C301.351 272.58 301.991 272.816 302.463 273.288C302.943 273.752 303.183 274.436 303.183 275.34V279H302.031V275.472C302.031 274.856 301.883 274.392 301.587 274.08C301.291 273.768 300.867 273.612 300.315 273.612C299.691 273.612 299.199 273.796 298.839 274.164C298.479 274.524 298.299 275.044 298.299 275.724V279H297.147V270.096H298.299V273.54C298.539 273.236 298.851 273 299.235 272.832C299.627 272.664 300.063 272.58 300.543 272.58ZM311.098 275.856C311.098 275.944 311.09 276.06 311.074 276.204H305.914C305.986 276.764 306.23 277.216 306.646 277.56C307.07 277.896 307.594 278.064 308.218 278.064C308.978 278.064 309.59 277.808 310.054 277.296L310.69 278.04C310.402 278.376 310.042 278.632 309.61 278.808C309.186 278.984 308.71 279.072 308.182 279.072C307.51 279.072 306.914 278.936 306.394 278.664C305.874 278.384 305.47 277.996 305.182 277.5C304.902 277.004 304.762 276.444 304.762 275.82C304.762 275.204 304.898 274.648 305.17 274.152C305.45 273.656 305.83 273.272 306.31 273C306.798 272.72 307.346 272.58 307.954 272.58C308.562 272.58 309.102 272.72 309.574 273C310.054 273.272 310.426 273.656 310.69 274.152C310.962 274.648 311.098 275.216 311.098 275.856ZM307.954 273.552C307.402 273.552 306.938 273.72 306.562 274.056C306.194 274.392 305.978 274.832 305.914 275.376H309.994C309.93 274.84 309.71 274.404 309.334 274.068C308.966 273.724 308.506 273.552 307.954 273.552ZM313.801 273.708C314.001 273.34 314.297 273.06 314.689 272.868C315.081 272.676 315.557 272.58 316.117 272.58V273.696C316.053 273.688 315.965 273.684 315.853 273.684C315.229 273.684 314.737 273.872 314.377 274.248C314.025 274.616 313.849 275.144 313.849 275.832V279H312.697V272.64H313.801V273.708ZM317.537 270.096H318.689V279H317.537V270.096ZM323.205 272.58C324.085 272.58 324.757 272.796 325.221 273.228C325.693 273.66 325.929 274.304 325.929 275.16V279H324.837V278.16C324.645 278.456 324.369 278.684 324.009 278.844C323.657 278.996 323.237 279.072 322.749 279.072C322.037 279.072 321.465 278.9 321.033 278.556C320.609 278.212 320.397 277.76 320.397 277.2C320.397 276.64 320.601 276.192 321.009 275.856C321.417 275.512 322.065 275.34 322.953 275.34H324.777V275.112C324.777 274.616 324.633 274.236 324.345 273.972C324.057 273.708 323.633 273.576 323.073 273.576C322.697 273.576 322.329 273.64 321.969 273.768C321.609 273.888 321.305 274.052 321.057 274.26L320.577 273.396C320.905 273.132 321.297 272.932 321.753 272.796C322.209 272.652 322.693 272.58 323.205 272.58ZM322.941 278.184C323.381 278.184 323.761 278.088 324.081 277.896C324.401 277.696 324.633 277.416 324.777 277.056V276.168H323.001C322.025 276.168 321.537 276.496 321.537 277.152C321.537 277.472 321.661 277.724 321.909 277.908C322.157 278.092 322.501 278.184 322.941 278.184ZM331.457 272.58C332.265 272.58 332.905 272.816 333.377 273.288C333.857 273.752 334.097 274.436 334.097 275.34V279H332.945V275.472C332.945 274.856 332.797 274.392 332.501 274.08C332.205 273.768 331.781 273.612 331.229 273.612C330.605 273.612 330.113 273.796 329.753 274.164C329.393 274.524 329.213 275.044 329.213 275.724V279H328.061V272.64H329.165V273.6C329.397 273.272 329.709 273.02 330.101 272.844C330.501 272.668 330.953 272.58 331.457 272.58ZM342.264 270.096V279H341.16V277.992C340.904 278.344 340.58 278.612 340.188 278.796C339.796 278.98 339.364 279.072 338.892 279.072C338.276 279.072 337.724 278.936 337.236 278.664C336.748 278.392 336.364 278.012 336.084 277.524C335.812 277.028 335.676 276.46 335.676 275.82C335.676 275.18 335.812 274.616 336.084 274.128C336.364 273.64 336.748 273.26 337.236 272.988C337.724 272.716 338.276 272.58 338.892 272.58C339.348 272.58 339.768 272.668 340.152 272.844C340.536 273.012 340.856 273.264 341.112 273.6V270.096H342.264ZM338.988 278.064C339.388 278.064 339.752 277.972 340.08 277.788C340.408 277.596 340.664 277.332 340.848 276.996C341.032 276.652 341.124 276.26 341.124 275.82C341.124 275.38 341.032 274.992 340.848 274.656C340.664 274.312 340.408 274.048 340.08 273.864C339.752 273.68 339.388 273.588 338.988 273.588C338.58 273.588 338.212 273.68 337.884 273.864C337.564 274.048 337.308 274.312 337.116 274.656C336.932 274.992 336.84 275.38 336.84 275.82C336.84 276.26 336.932 276.652 337.116 276.996C337.308 277.332 337.564 277.596 337.884 277.788C338.212 277.972 338.58 278.064 338.988 278.064ZM346.268 279.072C345.748 279.072 345.248 279.004 344.768 278.868C344.288 278.724 343.912 278.544 343.64 278.328L344.12 277.416C344.4 277.616 344.74 277.776 345.14 277.896C345.54 278.016 345.944 278.076 346.352 278.076C347.36 278.076 347.864 277.788 347.864 277.212C347.864 277.02 347.796 276.868 347.66 276.756C347.524 276.644 347.352 276.564 347.144 276.516C346.944 276.46 346.656 276.4 346.28 276.336C345.768 276.256 345.348 276.164 345.02 276.06C344.7 275.956 344.424 275.78 344.192 275.532C343.96 275.284 343.844 274.936 343.844 274.488C343.844 273.912 344.084 273.452 344.564 273.108C345.044 272.756 345.688 272.58 346.496 272.58C346.92 272.58 347.344 272.632 347.768 272.736C348.192 272.84 348.54 272.98 348.812 273.156L348.32 274.068C347.8 273.732 347.188 273.564 346.484 273.564C345.996 273.564 345.624 273.644 345.368 273.804C345.112 273.964 344.984 274.176 344.984 274.44C344.984 274.648 345.056 274.812 345.2 274.932C345.344 275.052 345.52 275.14 345.728 275.196C345.944 275.252 346.244 275.316 346.628 275.388C347.14 275.476 347.552 275.572 347.864 275.676C348.184 275.772 348.456 275.94 348.68 276.18C348.904 276.42 349.016 276.756 349.016 277.188C349.016 277.764 348.768 278.224 348.272 278.568C347.784 278.904 347.116 279.072 346.268 279.072Z" fill="#465361"/>
<rect x="257.5" y="177.5" width="235" height="31" rx="4.5" fill="#F9FAFD" stroke="#E5EAEF"/>
<path d="M474 198L471 194L477 194L474 198Z" fill="#62699F"/>
<path d="M474 188L477 192H471L474 188Z" fill="#62699F"/>
<path d="M275.46 189.644V192.572H279.672V193.604H275.46V197H274.26V188.6H280.188V189.644H275.46ZM282.696 191.708C282.896 191.34 283.192 191.06 283.584 190.868C283.976 190.676 284.452 190.58 285.012 190.58V191.696C284.948 191.688 284.86 191.684 284.748 191.684C284.124 191.684 283.632 191.872 283.272 192.248C282.92 192.616 282.744 193.144 282.744 193.832V197H281.592V190.64H282.696V191.708ZM288.736 190.58C289.616 190.58 290.288 190.796 290.752 191.228C291.224 191.66 291.46 192.304 291.46 193.16V197H290.368V196.16C290.176 196.456 289.9 196.684 289.54 196.844C289.188 196.996 288.768 197.072 288.28 197.072C287.568 197.072 286.996 196.9 286.564 196.556C286.14 196.212 285.928 195.76 285.928 195.2C285.928 194.64 286.132 194.192 286.54 193.856C286.948 193.512 287.596 193.34 288.484 193.34H290.308V193.112C290.308 192.616 290.164 192.236 289.876 191.972C289.588 191.708 289.164 191.576 288.604 191.576C288.228 191.576 287.86 191.64 287.5 191.768C287.14 191.888 286.836 192.052 286.588 192.26L286.108 191.396C286.436 191.132 286.828 190.932 287.284 190.796C287.74 190.652 288.224 190.58 288.736 190.58ZM288.472 196.184C288.912 196.184 289.292 196.088 289.612 195.896C289.932 195.696 290.164 195.416 290.308 195.056V194.168H288.532C287.556 194.168 287.068 194.496 287.068 195.152C287.068 195.472 287.192 195.724 287.44 195.908C287.688 196.092 288.032 196.184 288.472 196.184ZM296.988 190.58C297.796 190.58 298.436 190.816 298.908 191.288C299.388 191.752 299.628 192.436 299.628 193.34V197H298.476V193.472C298.476 192.856 298.328 192.392 298.032 192.08C297.736 191.768 297.312 191.612 296.76 191.612C296.136 191.612 295.644 191.796 295.284 192.164C294.924 192.524 294.744 193.044 294.744 193.724V197H293.592V190.64H294.696V191.6C294.928 191.272 295.24 191.02 295.632 190.844C296.032 190.668 296.484 190.58 296.988 190.58ZM304.567 197.072C303.919 197.072 303.339 196.932 302.827 196.652C302.323 196.372 301.927 195.988 301.639 195.5C301.351 195.004 301.207 194.444 301.207 193.82C301.207 193.196 301.351 192.64 301.639 192.152C301.927 191.656 302.323 191.272 302.827 191C303.339 190.72 303.919 190.58 304.567 190.58C305.143 190.58 305.655 190.696 306.103 190.928C306.559 191.16 306.911 191.496 307.159 191.936L306.283 192.5C306.083 192.196 305.835 191.968 305.539 191.816C305.243 191.664 304.915 191.588 304.555 191.588C304.139 191.588 303.763 191.68 303.427 191.864C303.099 192.048 302.839 192.312 302.647 192.656C302.463 192.992 302.371 193.38 302.371 193.82C302.371 194.268 302.463 194.664 302.647 195.008C302.839 195.344 303.099 195.604 303.427 195.788C303.763 195.972 304.139 196.064 304.555 196.064C304.915 196.064 305.243 195.988 305.539 195.836C305.835 195.684 306.083 195.456 306.283 195.152L307.159 195.704C306.911 196.144 306.559 196.484 306.103 196.724C305.655 196.956 305.143 197.072 304.567 197.072ZM304.003 199.688C303.587 199.688 303.231 199.6 302.935 199.424L303.187 198.836C303.427 198.972 303.699 199.04 304.003 199.04C304.451 199.04 304.675 198.88 304.675 198.56C304.675 198.416 304.619 198.3 304.507 198.212C304.395 198.132 304.223 198.092 303.991 198.092H303.667L303.967 196.916H304.627L304.447 197.6C304.783 197.632 305.039 197.736 305.215 197.912C305.399 198.096 305.491 198.324 305.491 198.596C305.491 198.932 305.355 199.196 305.083 199.388C304.811 199.588 304.451 199.688 304.003 199.688ZM310.967 190.58C311.847 190.58 312.519 190.796 312.983 191.228C313.455 191.66 313.691 192.304 313.691 193.16V197H312.599V196.16C312.407 196.456 312.131 196.684 311.771 196.844C311.419 196.996 310.999 197.072 310.511 197.072C309.799 197.072 309.227 196.9 308.795 196.556C308.371 196.212 308.159 195.76 308.159 195.2C308.159 194.64 308.363 194.192 308.771 193.856C309.179 193.512 309.827 193.34 310.715 193.34H312.539V193.112C312.539 192.616 312.395 192.236 312.107 191.972C311.819 191.708 311.395 191.576 310.835 191.576C310.459 191.576 310.091 191.64 309.731 191.768C309.371 191.888 309.067 192.052 308.819 192.26L308.339 191.396C308.667 191.132 309.059 190.932 309.515 190.796C309.971 190.652 310.455 190.58 310.967 190.58ZM310.703 196.184C311.143 196.184 311.523 196.088 311.843 195.896C312.163 195.696 312.395 195.416 312.539 195.056V194.168H310.763C309.787 194.168 309.299 194.496 309.299 195.152C309.299 195.472 309.423 195.724 309.671 195.908C309.919 196.092 310.263 196.184 310.703 196.184ZM315.822 190.64H316.974V197H315.822V190.64ZM316.398 189.416C316.174 189.416 315.986 189.344 315.834 189.2C315.69 189.056 315.618 188.88 315.618 188.672C315.618 188.464 315.69 188.288 315.834 188.144C315.986 187.992 316.174 187.916 316.398 187.916C316.622 187.916 316.806 187.988 316.95 188.132C317.102 188.268 317.178 188.44 317.178 188.648C317.178 188.864 317.102 189.048 316.95 189.2C316.806 189.344 316.622 189.416 316.398 189.416ZM320.998 197.072C320.478 197.072 319.978 197.004 319.498 196.868C319.018 196.724 318.642 196.544 318.37 196.328L318.85 195.416C319.13 195.616 319.47 195.776 319.87 195.896C320.27 196.016 320.674 196.076 321.082 196.076C322.09 196.076 322.594 195.788 322.594 195.212C322.594 195.02 322.526 194.868 322.39 194.756C322.254 194.644 322.082 194.564 321.874 194.516C321.674 194.46 321.386 194.4 321.01 194.336C320.498 194.256 320.078 194.164 319.75 194.06C319.43 193.956 319.154 193.78 318.922 193.532C318.69 193.284 318.574 192.936 318.574 192.488C318.574 191.912 318.814 191.452 319.294 191.108C319.774 190.756 320.418 190.58 321.226 190.58C321.65 190.58 322.074 190.632 322.498 190.736C322.922 190.84 323.27 190.98 323.542 191.156L323.05 192.068C322.53 191.732 321.918 191.564 321.214 191.564C320.726 191.564 320.354 191.644 320.098 191.804C319.842 191.964 319.714 192.176 319.714 192.44C319.714 192.648 319.786 192.812 319.93 192.932C320.074 193.052 320.25 193.14 320.458 193.196C320.674 193.252 320.974 193.316 321.358 193.388C321.87 193.476 322.282 193.572 322.594 193.676C322.914 193.772 323.186 193.94 323.41 194.18C323.634 194.42 323.746 194.756 323.746 195.188C323.746 195.764 323.498 196.224 323.002 196.568C322.514 196.904 321.846 197.072 320.998 197.072Z" fill="#465361"/>
<path d="M89.26 188.6H90.46V195.956H95.008V197H89.26V188.6ZM98.5682 190.58C99.4482 190.58 100.12 190.796 100.584 191.228C101.056 191.66 101.292 192.304 101.292 193.16V197H100.2V196.16C100.008 196.456 99.7322 196.684 99.3722 196.844C99.0202 196.996 98.6002 197.072 98.1122 197.072C97.4002 197.072 96.8282 196.9 96.3962 196.556C95.9722 196.212 95.7602 195.76 95.7602 195.2C95.7602 194.64 95.9642 194.192 96.3722 193.856C96.7802 193.512 97.4282 193.34 98.3162 193.34H100.14V193.112C100.14 192.616 99.9962 192.236 99.7082 191.972C99.4202 191.708 98.9962 191.576 98.4362 191.576C98.0602 191.576 97.6922 191.64 97.3322 191.768C96.9722 191.888 96.6682 192.052 96.4202 192.26L95.9402 191.396C96.2682 191.132 96.6602 190.932 97.1162 190.796C97.5722 190.652 98.0562 190.58 98.5682 190.58ZM98.3042 196.184C98.7442 196.184 99.1242 196.088 99.4442 195.896C99.7642 195.696 99.9962 195.416 100.14 195.056V194.168H98.3642C97.3882 194.168 96.9002 194.496 96.9002 195.152C96.9002 195.472 97.0242 195.724 97.2722 195.908C97.5202 196.092 97.8642 196.184 98.3042 196.184ZM106.82 190.58C107.628 190.58 108.268 190.816 108.74 191.288C109.22 191.752 109.46 192.436 109.46 193.34V197H108.308V193.472C108.308 192.856 108.16 192.392 107.864 192.08C107.568 191.768 107.144 191.612 106.592 191.612C105.968 191.612 105.476 191.796 105.116 192.164C104.756 192.524 104.576 193.044 104.576 193.724V197H103.424V190.64H104.528V191.6C104.76 191.272 105.072 191.02 105.464 190.844C105.864 190.668 106.316 190.58 106.82 190.58ZM117.711 190.64V196.136C117.711 197.248 117.435 198.068 116.883 198.596C116.331 199.132 115.507 199.4 114.411 199.4C113.811 199.4 113.239 199.316 112.695 199.148C112.151 198.988 111.711 198.756 111.375 198.452L111.927 197.564C112.223 197.82 112.587 198.02 113.019 198.164C113.459 198.316 113.911 198.392 114.375 198.392C115.119 198.392 115.667 198.216 116.019 197.864C116.379 197.512 116.559 196.976 116.559 196.256V195.752C116.287 196.08 115.951 196.328 115.551 196.496C115.159 196.656 114.731 196.736 114.267 196.736C113.659 196.736 113.107 196.608 112.611 196.352C112.123 196.088 111.739 195.724 111.459 195.26C111.179 194.788 111.039 194.252 111.039 193.652C111.039 193.052 111.179 192.52 111.459 192.056C111.739 191.584 112.123 191.22 112.611 190.964C113.107 190.708 113.659 190.58 114.267 190.58C114.747 190.58 115.191 190.668 115.599 190.844C116.015 191.02 116.355 191.28 116.619 191.624V190.64H117.711ZM114.399 195.728C114.815 195.728 115.187 195.64 115.515 195.464C115.851 195.288 116.111 195.044 116.295 194.732C116.487 194.412 116.583 194.052 116.583 193.652C116.583 193.036 116.379 192.54 115.971 192.164C115.563 191.78 115.039 191.588 114.399 191.588C113.751 191.588 113.223 191.78 112.815 192.164C112.407 192.54 112.203 193.036 112.203 193.652C112.203 194.052 112.295 194.412 112.479 194.732C112.671 195.044 112.931 195.288 113.259 195.464C113.595 195.64 113.975 195.728 114.399 195.728ZM125.84 190.64V197H124.748V196.04C124.516 196.368 124.208 196.624 123.824 196.808C123.448 196.984 123.036 197.072 122.588 197.072C121.74 197.072 121.072 196.84 120.584 196.376C120.096 195.904 119.852 195.212 119.852 194.3V190.64H121.004V194.168C121.004 194.784 121.152 195.252 121.448 195.572C121.744 195.884 122.168 196.04 122.72 196.04C123.328 196.04 123.808 195.856 124.16 195.488C124.512 195.12 124.688 194.6 124.688 193.928V190.64H125.84ZM130.349 190.58C131.229 190.58 131.901 190.796 132.365 191.228C132.837 191.66 133.073 192.304 133.073 193.16V197H131.981V196.16C131.789 196.456 131.513 196.684 131.153 196.844C130.801 196.996 130.381 197.072 129.893 197.072C129.181 197.072 128.609 196.9 128.177 196.556C127.753 196.212 127.541 195.76 127.541 195.2C127.541 194.64 127.745 194.192 128.153 193.856C128.561 193.512 129.209 193.34 130.097 193.34H131.921V193.112C131.921 192.616 131.777 192.236 131.489 191.972C131.201 191.708 130.777 191.576 130.217 191.576C129.841 191.576 129.473 191.64 129.113 191.768C128.753 191.888 128.449 192.052 128.201 192.26L127.721 191.396C128.049 191.132 128.441 190.932 128.897 190.796C129.353 190.652 129.837 190.58 130.349 190.58ZM130.085 196.184C130.525 196.184 130.905 196.088 131.225 195.896C131.545 195.696 131.777 195.416 131.921 195.056V194.168H130.145C129.169 194.168 128.681 194.496 128.681 195.152C128.681 195.472 128.805 195.724 129.053 195.908C129.301 196.092 129.645 196.184 130.085 196.184ZM141.324 190.64V196.136C141.324 197.248 141.048 198.068 140.496 198.596C139.944 199.132 139.12 199.4 138.024 199.4C137.424 199.4 136.852 199.316 136.308 199.148C135.764 198.988 135.324 198.756 134.988 198.452L135.54 197.564C135.836 197.82 136.2 198.02 136.632 198.164C137.072 198.316 137.524 198.392 137.988 198.392C138.732 198.392 139.28 198.216 139.632 197.864C139.992 197.512 140.172 196.976 140.172 196.256V195.752C139.9 196.08 139.564 196.328 139.164 196.496C138.772 196.656 138.344 196.736 137.88 196.736C137.272 196.736 136.72 196.608 136.224 196.352C135.736 196.088 135.352 195.724 135.072 195.26C134.792 194.788 134.652 194.252 134.652 193.652C134.652 193.052 134.792 192.52 135.072 192.056C135.352 191.584 135.736 191.22 136.224 190.964C136.72 190.708 137.272 190.58 137.88 190.58C138.36 190.58 138.804 190.668 139.212 190.844C139.628 191.02 139.968 191.28 140.232 191.624V190.64H141.324ZM138.012 195.728C138.428 195.728 138.8 195.64 139.128 195.464C139.464 195.288 139.724 195.044 139.908 194.732C140.1 194.412 140.196 194.052 140.196 193.652C140.196 193.036 139.992 192.54 139.584 192.164C139.176 191.78 138.652 191.588 138.012 191.588C137.364 191.588 136.836 191.78 136.428 192.164C136.02 192.54 135.816 193.036 135.816 193.652C135.816 194.052 135.908 194.412 136.092 194.732C136.284 195.044 136.544 195.288 136.872 195.464C137.208 195.64 137.588 195.728 138.012 195.728ZM149.274 193.856C149.274 193.944 149.266 194.06 149.25 194.204H144.09C144.162 194.764 144.406 195.216 144.822 195.56C145.246 195.896 145.77 196.064 146.394 196.064C147.154 196.064 147.766 195.808 148.23 195.296L148.866 196.04C148.578 196.376 148.218 196.632 147.786 196.808C147.362 196.984 146.886 197.072 146.358 197.072C145.686 197.072 145.09 196.936 144.57 196.664C144.05 196.384 143.646 195.996 143.358 195.5C143.078 195.004 142.938 194.444 142.938 193.82C142.938 193.204 143.074 192.648 143.346 192.152C143.626 191.656 144.006 191.272 144.486 191C144.974 190.72 145.522 190.58 146.13 190.58C146.738 190.58 147.278 190.72 147.75 191C148.23 191.272 148.602 191.656 148.866 192.152C149.138 192.648 149.274 193.216 149.274 193.856ZM146.13 191.552C145.578 191.552 145.114 191.72 144.738 192.056C144.37 192.392 144.154 192.832 144.09 193.376H148.17C148.106 192.84 147.886 192.404 147.51 192.068C147.142 191.724 146.682 191.552 146.13 191.552Z" fill="#465361"/>
<path d="M89.46 142.644V145.572H93.672V146.604H89.46V150H88.26V141.6H94.188V142.644H89.46ZM95.592 143.64H96.744V150H95.592V143.64ZM96.168 142.416C95.944 142.416 95.756 142.344 95.604 142.2C95.46 142.056 95.388 141.88 95.388 141.672C95.388 141.464 95.46 141.288 95.604 141.144C95.756 140.992 95.944 140.916 96.168 140.916C96.392 140.916 96.576 140.988 96.72 141.132C96.872 141.268 96.948 141.44 96.948 141.648C96.948 141.864 96.872 142.048 96.72 142.2C96.576 142.344 96.392 142.416 96.168 142.416ZM98.9436 141.096H100.096V150H98.9436V141.096ZM108.043 146.856C108.043 146.944 108.035 147.06 108.019 147.204H102.859C102.931 147.764 103.175 148.216 103.591 148.56C104.015 148.896 104.539 149.064 105.163 149.064C105.923 149.064 106.535 148.808 106.999 148.296L107.635 149.04C107.347 149.376 106.987 149.632 106.555 149.808C106.131 149.984 105.655 150.072 105.127 150.072C104.455 150.072 103.859 149.936 103.339 149.664C102.819 149.384 102.415 148.996 102.127 148.5C101.847 148.004 101.707 147.444 101.707 146.82C101.707 146.204 101.843 145.648 102.115 145.152C102.395 144.656 102.775 144.272 103.255 144C103.743 143.72 104.291 143.58 104.899 143.58C105.507 143.58 106.047 143.72 106.519 144C106.999 144.272 107.371 144.656 107.635 145.152C107.907 145.648 108.043 146.216 108.043 146.856ZM104.899 144.552C104.347 144.552 103.883 144.72 103.507 145.056C103.139 145.392 102.923 145.832 102.859 146.376H106.939C106.875 145.84 106.655 145.404 106.279 145.068C105.911 144.724 105.451 144.552 104.899 144.552ZM120.257 141.6V150H119.273L114.233 143.736V150H113.033V141.6H114.017L119.057 147.864V141.6H120.257ZM124.92 143.58C125.8 143.58 126.472 143.796 126.936 144.228C127.408 144.66 127.644 145.304 127.644 146.16V150H126.552V149.16C126.36 149.456 126.084 149.684 125.724 149.844C125.372 149.996 124.952 150.072 124.464 150.072C123.752 150.072 123.18 149.9 122.748 149.556C122.324 149.212 122.112 148.76 122.112 148.2C122.112 147.64 122.316 147.192 122.724 146.856C123.132 146.512 123.78 146.34 124.668 146.34H126.492V146.112C126.492 145.616 126.348 145.236 126.06 144.972C125.772 144.708 125.348 144.576 124.788 144.576C124.412 144.576 124.044 144.64 123.684 144.768C123.324 144.888 123.02 145.052 122.772 145.26L122.292 144.396C122.62 144.132 123.012 143.932 123.468 143.796C123.924 143.652 124.408 143.58 124.92 143.58ZM124.656 149.184C125.096 149.184 125.476 149.088 125.796 148.896C126.116 148.696 126.348 148.416 126.492 148.056V147.168H124.716C123.74 147.168 123.252 147.496 123.252 148.152C123.252 148.472 123.376 148.724 123.624 148.908C123.872 149.092 124.216 149.184 124.656 149.184ZM137.732 143.58C138.532 143.58 139.164 143.812 139.628 144.276C140.1 144.74 140.336 145.428 140.336 146.34V150H139.184V146.472C139.184 145.856 139.04 145.392 138.752 145.08C138.472 144.768 138.068 144.612 137.54 144.612C136.956 144.612 136.492 144.796 136.148 145.164C135.804 145.524 135.632 146.044 135.632 146.724V150H134.48V146.472C134.48 145.856 134.336 145.392 134.048 145.08C133.768 144.768 133.364 144.612 132.836 144.612C132.252 144.612 131.788 144.796 131.444 145.164C131.1 145.524 130.928 146.044 130.928 146.724V150H129.776V143.64H130.88V144.588C131.112 144.26 131.416 144.012 131.792 143.844C132.168 143.668 132.596 143.58 133.076 143.58C133.572 143.58 134.012 143.68 134.396 143.88C134.78 144.08 135.076 144.372 135.284 144.756C135.524 144.388 135.856 144.1 136.28 143.892C136.712 143.684 137.196 143.58 137.732 143.58ZM148.238 146.856C148.238 146.944 148.23 147.06 148.214 147.204H143.054C143.126 147.764 143.37 148.216 143.786 148.56C144.21 148.896 144.734 149.064 145.358 149.064C146.118 149.064 146.73 148.808 147.194 148.296L147.83 149.04C147.542 149.376 147.182 149.632 146.75 149.808C146.326 149.984 145.85 150.072 145.322 150.072C144.65 150.072 144.054 149.936 143.534 149.664C143.014 149.384 142.61 148.996 142.322 148.5C142.042 148.004 141.902 147.444 141.902 146.82C141.902 146.204 142.038 145.648 142.31 145.152C142.59 144.656 142.97 144.272 143.45 144C143.938 143.72 144.486 143.58 145.094 143.58C145.702 143.58 146.242 143.72 146.714 144C147.194 144.272 147.566 144.656 147.83 145.152C148.102 145.648 148.238 146.216 148.238 146.856ZM145.094 144.552C144.542 144.552 144.078 144.72 143.702 145.056C143.334 145.392 143.118 145.832 143.054 146.376H147.134C147.07 145.84 146.85 145.404 146.474 145.068C146.106 144.724 145.646 144.552 145.094 144.552Z" fill="#465361"/>
<rect x="257.5" y="130.5" width="235" height="31" rx="4.5" fill="#F9FAFD" stroke="#E5EAEF"/>
<path d="M280.08 145.752H281.232V149.028C280.816 149.372 280.332 149.636 279.78 149.82C279.228 150.004 278.652 150.096 278.052 150.096C277.204 150.096 276.44 149.912 275.76 149.544C275.08 149.168 274.544 148.656 274.152 148.008C273.768 147.352 273.576 146.616 273.576 145.8C273.576 144.984 273.768 144.248 274.152 143.592C274.544 142.936 275.08 142.424 275.76 142.056C276.448 141.688 277.22 141.504 278.076 141.504C278.748 141.504 279.356 141.616 279.9 141.84C280.452 142.056 280.92 142.376 281.304 142.8L280.56 143.544C279.888 142.896 279.076 142.572 278.124 142.572C277.484 142.572 276.908 142.712 276.396 142.992C275.892 143.264 275.496 143.648 275.208 144.144C274.92 144.632 274.776 145.184 274.776 145.8C274.776 146.408 274.92 146.96 275.208 147.456C275.496 147.944 275.892 148.328 276.396 148.608C276.908 148.888 277.48 149.028 278.112 149.028C278.864 149.028 279.52 148.848 280.08 148.488V145.752ZM286.086 150.072C285.454 150.072 284.886 149.932 284.382 149.652C283.878 149.372 283.482 148.988 283.194 148.5C282.914 148.004 282.774 147.444 282.774 146.82C282.774 146.196 282.914 145.64 283.194 145.152C283.482 144.656 283.878 144.272 284.382 144C284.886 143.72 285.454 143.58 286.086 143.58C286.718 143.58 287.282 143.72 287.778 144C288.282 144.272 288.674 144.656 288.954 145.152C289.242 145.64 289.386 146.196 289.386 146.82C289.386 147.444 289.242 148.004 288.954 148.5C288.674 148.988 288.282 149.372 287.778 149.652C287.282 149.932 286.718 150.072 286.086 150.072ZM286.086 149.064C286.494 149.064 286.858 148.972 287.178 148.788C287.506 148.596 287.762 148.332 287.946 147.996C288.13 147.652 288.222 147.26 288.222 146.82C288.222 146.38 288.13 145.992 287.946 145.656C287.762 145.312 287.506 145.048 287.178 144.864C286.858 144.68 286.494 144.588 286.086 144.588C285.678 144.588 285.31 144.68 284.982 144.864C284.662 145.048 284.406 145.312 284.214 145.656C284.03 145.992 283.938 146.38 283.938 146.82C283.938 147.26 284.03 147.652 284.214 147.996C284.406 148.332 284.662 148.596 284.982 148.788C285.31 148.972 285.678 149.064 286.086 149.064ZM293.703 150.072C293.071 150.072 292.503 149.932 291.999 149.652C291.495 149.372 291.099 148.988 290.811 148.5C290.531 148.004 290.391 147.444 290.391 146.82C290.391 146.196 290.531 145.64 290.811 145.152C291.099 144.656 291.495 144.272 291.999 144C292.503 143.72 293.071 143.58 293.703 143.58C294.335 143.58 294.899 143.72 295.395 144C295.899 144.272 296.291 144.656 296.571 145.152C296.859 145.64 297.003 146.196 297.003 146.82C297.003 147.444 296.859 148.004 296.571 148.5C296.291 148.988 295.899 149.372 295.395 149.652C294.899 149.932 294.335 150.072 293.703 150.072ZM293.703 149.064C294.111 149.064 294.475 148.972 294.795 148.788C295.123 148.596 295.379 148.332 295.563 147.996C295.747 147.652 295.839 147.26 295.839 146.82C295.839 146.38 295.747 145.992 295.563 145.656C295.379 145.312 295.123 145.048 294.795 144.864C294.475 144.68 294.111 144.588 293.703 144.588C293.295 144.588 292.927 144.68 292.599 144.864C292.279 145.048 292.023 145.312 291.831 145.656C291.647 145.992 291.555 146.38 291.555 146.82C291.555 147.26 291.647 147.652 291.831 147.996C292.023 148.332 292.279 148.596 292.599 148.788C292.927 148.972 293.295 149.064 293.703 149.064ZM304.68 143.64V149.136C304.68 150.248 304.404 151.068 303.852 151.596C303.3 152.132 302.476 152.4 301.38 152.4C300.78 152.4 300.208 152.316 299.664 152.148C299.12 151.988 298.68 151.756 298.344 151.452L298.896 150.564C299.192 150.82 299.556 151.02 299.988 151.164C300.428 151.316 300.88 151.392 301.344 151.392C302.088 151.392 302.636 151.216 302.988 150.864C303.348 150.512 303.528 149.976 303.528 149.256V148.752C303.256 149.08 302.92 149.328 302.52 149.496C302.128 149.656 301.7 149.736 301.236 149.736C300.628 149.736 300.076 149.608 299.58 149.352C299.092 149.088 298.708 148.724 298.428 148.26C298.148 147.788 298.008 147.252 298.008 146.652C298.008 146.052 298.148 145.52 298.428 145.056C298.708 144.584 299.092 144.22 299.58 143.964C300.076 143.708 300.628 143.58 301.236 143.58C301.716 143.58 302.16 143.668 302.568 143.844C302.984 144.02 303.324 144.28 303.588 144.624V143.64H304.68ZM301.368 148.728C301.784 148.728 302.156 148.64 302.484 148.464C302.82 148.288 303.08 148.044 303.264 147.732C303.456 147.412 303.552 147.052 303.552 146.652C303.552 146.036 303.348 145.54 302.94 145.164C302.532 144.78 302.008 144.588 301.368 144.588C300.72 144.588 300.192 144.78 299.784 145.164C299.376 145.54 299.172 146.036 299.172 146.652C299.172 147.052 299.264 147.412 299.448 147.732C299.64 148.044 299.9 148.288 300.228 148.464C300.564 148.64 300.944 148.728 301.368 148.728ZM306.881 141.096H308.033V150H306.881V141.096ZM315.981 146.856C315.981 146.944 315.973 147.06 315.957 147.204H310.797C310.869 147.764 311.113 148.216 311.529 148.56C311.953 148.896 312.477 149.064 313.101 149.064C313.861 149.064 314.473 148.808 314.937 148.296L315.573 149.04C315.285 149.376 314.925 149.632 314.493 149.808C314.069 149.984 313.593 150.072 313.065 150.072C312.393 150.072 311.797 149.936 311.277 149.664C310.757 149.384 310.353 148.996 310.065 148.5C309.785 148.004 309.645 147.444 309.645 146.82C309.645 146.204 309.781 145.648 310.053 145.152C310.333 144.656 310.713 144.272 311.193 144C311.681 143.72 312.229 143.58 312.837 143.58C313.445 143.58 313.985 143.72 314.457 144C314.937 144.272 315.309 144.656 315.573 145.152C315.845 145.648 315.981 146.216 315.981 146.856ZM312.837 144.552C312.285 144.552 311.821 144.72 311.445 145.056C311.077 145.392 310.861 145.832 310.797 146.376H314.877C314.813 145.84 314.593 145.404 314.217 145.068C313.849 144.724 313.389 144.552 312.837 144.552ZM322.171 142.644V145.572H326.383V146.604H322.171V150H320.971V141.6H326.899V142.644H322.171ZM333.969 146.856C333.969 146.944 333.961 147.06 333.945 147.204H328.785C328.857 147.764 329.101 148.216 329.517 148.56C329.941 148.896 330.465 149.064 331.089 149.064C331.849 149.064 332.461 148.808 332.925 148.296L333.561 149.04C333.273 149.376 332.913 149.632 332.481 149.808C332.057 149.984 331.581 150.072 331.053 150.072C330.381 150.072 329.785 149.936 329.265 149.664C328.745 149.384 328.341 148.996 328.053 148.5C327.773 148.004 327.633 147.444 327.633 146.82C327.633 146.204 327.769 145.648 328.041 145.152C328.321 144.656 328.701 144.272 329.181 144C329.669 143.72 330.217 143.58 330.825 143.58C331.433 143.58 331.973 143.72 332.445 144C332.925 144.272 333.297 144.656 333.561 145.152C333.833 145.648 333.969 146.216 333.969 146.856ZM330.825 144.552C330.273 144.552 329.809 144.72 329.433 145.056C329.065 145.392 328.849 145.832 328.785 146.376H332.865C332.801 145.84 332.581 145.404 332.205 145.068C331.837 144.724 331.377 144.552 330.825 144.552ZM341.317 146.856C341.317 146.944 341.309 147.06 341.293 147.204H336.133C336.205 147.764 336.449 148.216 336.865 148.56C337.289 148.896 337.813 149.064 338.437 149.064C339.197 149.064 339.809 148.808 340.273 148.296L340.909 149.04C340.621 149.376 340.261 149.632 339.829 149.808C339.405 149.984 338.929 150.072 338.401 150.072C337.729 150.072 337.133 149.936 336.613 149.664C336.093 149.384 335.689 148.996 335.401 148.5C335.121 148.004 334.981 147.444 334.981 146.82C334.981 146.204 335.117 145.648 335.389 145.152C335.669 144.656 336.049 144.272 336.529 144C337.017 143.72 337.565 143.58 338.173 143.58C338.781 143.58 339.321 143.72 339.793 144C340.273 144.272 340.645 144.656 340.909 145.152C341.181 145.648 341.317 146.216 341.317 146.856ZM338.173 144.552C337.621 144.552 337.157 144.72 336.781 145.056C336.413 145.392 336.197 145.832 336.133 146.376H340.213C340.149 145.84 339.929 145.404 339.553 145.068C339.185 144.724 338.725 144.552 338.173 144.552ZM348.916 141.096V150H347.812V148.992C347.556 149.344 347.232 149.612 346.84 149.796C346.448 149.98 346.016 150.072 345.544 150.072C344.928 150.072 344.376 149.936 343.888 149.664C343.4 149.392 343.016 149.012 342.736 148.524C342.464 148.028 342.328 147.46 342.328 146.82C342.328 146.18 342.464 145.616 342.736 145.128C343.016 144.64 343.4 144.26 343.888 143.988C344.376 143.716 344.928 143.58 345.544 143.58C346 143.58 346.42 143.668 346.804 143.844C347.188 144.012 347.508 144.264 347.764 144.6V141.096H348.916ZM345.64 149.064C346.04 149.064 346.404 148.972 346.732 148.788C347.06 148.596 347.316 148.332 347.5 147.996C347.684 147.652 347.776 147.26 347.776 146.82C347.776 146.38 347.684 145.992 347.5 145.656C347.316 145.312 347.06 145.048 346.732 144.864C346.404 144.68 346.04 144.588 345.64 144.588C345.232 144.588 344.864 144.68 344.536 144.864C344.216 145.048 343.96 145.312 343.768 145.656C343.584 145.992 343.492 146.38 343.492 146.82C343.492 147.26 343.584 147.652 343.768 147.996C343.96 148.332 344.216 148.596 344.536 148.788C344.864 148.972 345.232 149.064 345.64 149.064Z" fill="#465361"/>
<rect x="257.5" y="83.5" width="235" height="31" rx="4.5" fill="#F9FAFD" stroke="#E5EAEF"/>
<path d="M474 104L471 100L477 100L474 104Z" fill="#465361"/>
<path d="M474 94L477 98H471L474 94Z" fill="#465361"/>
<path d="M280.08 98.752H281.232V102.028C280.816 102.372 280.332 102.636 279.78 102.82C279.228 103.004 278.652 103.096 278.052 103.096C277.204 103.096 276.44 102.912 275.76 102.544C275.08 102.168 274.544 101.656 274.152 101.008C273.768 100.352 273.576 99.616 273.576 98.8C273.576 97.984 273.768 97.248 274.152 96.592C274.544 95.936 275.08 95.424 275.76 95.056C276.448 94.688 277.22 94.504 278.076 94.504C278.748 94.504 279.356 94.616 279.9 94.84C280.452 95.056 280.92 95.376 281.304 95.8L280.56 96.544C279.888 95.896 279.076 95.572 278.124 95.572C277.484 95.572 276.908 95.712 276.396 95.992C275.892 96.264 275.496 96.648 275.208 97.144C274.92 97.632 274.776 98.184 274.776 98.8C274.776 99.408 274.92 99.96 275.208 100.456C275.496 100.944 275.892 101.328 276.396 101.608C276.908 101.888 277.48 102.028 278.112 102.028C278.864 102.028 279.52 101.848 280.08 101.488V98.752ZM286.086 103.072C285.454 103.072 284.886 102.932 284.382 102.652C283.878 102.372 283.482 101.988 283.194 101.5C282.914 101.004 282.774 100.444 282.774 99.82C282.774 99.196 282.914 98.64 283.194 98.152C283.482 97.656 283.878 97.272 284.382 97C284.886 96.72 285.454 96.58 286.086 96.58C286.718 96.58 287.282 96.72 287.778 97C288.282 97.272 288.674 97.656 288.954 98.152C289.242 98.64 289.386 99.196 289.386 99.82C289.386 100.444 289.242 101.004 288.954 101.5C288.674 101.988 288.282 102.372 287.778 102.652C287.282 102.932 286.718 103.072 286.086 103.072ZM286.086 102.064C286.494 102.064 286.858 101.972 287.178 101.788C287.506 101.596 287.762 101.332 287.946 100.996C288.13 100.652 288.222 100.26 288.222 99.82C288.222 99.38 288.13 98.992 287.946 98.656C287.762 98.312 287.506 98.048 287.178 97.864C286.858 97.68 286.494 97.588 286.086 97.588C285.678 97.588 285.31 97.68 284.982 97.864C284.662 98.048 284.406 98.312 284.214 98.656C284.03 98.992 283.938 99.38 283.938 99.82C283.938 100.26 284.03 100.652 284.214 100.996C284.406 101.332 284.662 101.596 284.982 101.788C285.31 101.972 285.678 102.064 286.086 102.064ZM293.703 103.072C293.071 103.072 292.503 102.932 291.999 102.652C291.495 102.372 291.099 101.988 290.811 101.5C290.531 101.004 290.391 100.444 290.391 99.82C290.391 99.196 290.531 98.64 290.811 98.152C291.099 97.656 291.495 97.272 291.999 97C292.503 96.72 293.071 96.58 293.703 96.58C294.335 96.58 294.899 96.72 295.395 97C295.899 97.272 296.291 97.656 296.571 98.152C296.859 98.64 297.003 99.196 297.003 99.82C297.003 100.444 296.859 101.004 296.571 101.5C296.291 101.988 295.899 102.372 295.395 102.652C294.899 102.932 294.335 103.072 293.703 103.072ZM293.703 102.064C294.111 102.064 294.475 101.972 294.795 101.788C295.123 101.596 295.379 101.332 295.563 100.996C295.747 100.652 295.839 100.26 295.839 99.82C295.839 99.38 295.747 98.992 295.563 98.656C295.379 98.312 295.123 98.048 294.795 97.864C294.475 97.68 294.111 97.588 293.703 97.588C293.295 97.588 292.927 97.68 292.599 97.864C292.279 98.048 292.023 98.312 291.831 98.656C291.647 98.992 291.555 99.38 291.555 99.82C291.555 100.26 291.647 100.652 291.831 100.996C292.023 101.332 292.279 101.596 292.599 101.788C292.927 101.972 293.295 102.064 293.703 102.064ZM304.68 96.64V102.136C304.68 103.248 304.404 104.068 303.852 104.596C303.3 105.132 302.476 105.4 301.38 105.4C300.78 105.4 300.208 105.316 299.664 105.148C299.12 104.988 298.68 104.756 298.344 104.452L298.896 103.564C299.192 103.82 299.556 104.02 299.988 104.164C300.428 104.316 300.88 104.392 301.344 104.392C302.088 104.392 302.636 104.216 302.988 103.864C303.348 103.512 303.528 102.976 303.528 102.256V101.752C303.256 102.08 302.92 102.328 302.52 102.496C302.128 102.656 301.7 102.736 301.236 102.736C300.628 102.736 300.076 102.608 299.58 102.352C299.092 102.088 298.708 101.724 298.428 101.26C298.148 100.788 298.008 100.252 298.008 99.652C298.008 99.052 298.148 98.52 298.428 98.056C298.708 97.584 299.092 97.22 299.58 96.964C300.076 96.708 300.628 96.58 301.236 96.58C301.716 96.58 302.16 96.668 302.568 96.844C302.984 97.02 303.324 97.28 303.588 97.624V96.64H304.68ZM301.368 101.728C301.784 101.728 302.156 101.64 302.484 101.464C302.82 101.288 303.08 101.044 303.264 100.732C303.456 100.412 303.552 100.052 303.552 99.652C303.552 99.036 303.348 98.54 302.94 98.164C302.532 97.78 302.008 97.588 301.368 97.588C300.72 97.588 300.192 97.78 299.784 98.164C299.376 98.54 299.172 99.036 299.172 99.652C299.172 100.052 299.264 100.412 299.448 100.732C299.64 101.044 299.9 101.288 300.228 101.464C300.564 101.64 300.944 101.728 301.368 101.728ZM306.881 94.096H308.033V103H306.881V94.096ZM315.981 99.856C315.981 99.944 315.973 100.06 315.957 100.204H310.797C310.869 100.764 311.113 101.216 311.529 101.56C311.953 101.896 312.477 102.064 313.101 102.064C313.861 102.064 314.473 101.808 314.937 101.296L315.573 102.04C315.285 102.376 314.925 102.632 314.493 102.808C314.069 102.984 313.593 103.072 313.065 103.072C312.393 103.072 311.797 102.936 311.277 102.664C310.757 102.384 310.353 101.996 310.065 101.5C309.785 101.004 309.645 100.444 309.645 99.82C309.645 99.204 309.781 98.648 310.053 98.152C310.333 97.656 310.713 97.272 311.193 97C311.681 96.72 312.229 96.58 312.837 96.58C313.445 96.58 313.985 96.72 314.457 97C314.937 97.272 315.309 97.656 315.573 98.152C315.845 98.648 315.981 99.216 315.981 99.856ZM312.837 97.552C312.285 97.552 311.821 97.72 311.445 98.056C311.077 98.392 310.861 98.832 310.797 99.376H314.877C314.813 98.84 314.593 98.404 314.217 98.068C313.849 97.724 313.389 97.552 312.837 97.552ZM323.419 103.096C322.787 103.096 322.175 103 321.583 102.808C320.999 102.608 320.539 102.352 320.203 102.04L320.647 101.104C320.967 101.392 321.375 101.628 321.871 101.812C322.375 101.988 322.891 102.076 323.419 102.076C324.115 102.076 324.635 101.96 324.979 101.728C325.323 101.488 325.495 101.172 325.495 100.78C325.495 100.492 325.399 100.26 325.207 100.084C325.023 99.9 324.791 99.76 324.511 99.664C324.239 99.568 323.851 99.46 323.347 99.34C322.715 99.188 322.203 99.036 321.811 98.884C321.427 98.732 321.095 98.5 320.815 98.188C320.543 97.868 320.407 97.44 320.407 96.904C320.407 96.456 320.523 96.052 320.755 95.692C320.995 95.332 321.355 95.044 321.835 94.828C322.315 94.612 322.911 94.504 323.623 94.504C324.119 94.504 324.607 94.568 325.087 94.696C325.567 94.824 325.979 95.008 326.323 95.248L325.927 96.208C325.575 95.984 325.199 95.816 324.799 95.704C324.399 95.584 324.007 95.524 323.623 95.524C322.943 95.524 322.431 95.648 322.087 95.896C321.751 96.144 321.583 96.464 321.583 96.856C321.583 97.144 321.679 97.38 321.871 97.564C322.063 97.74 322.299 97.88 322.579 97.984C322.867 98.08 323.255 98.184 323.743 98.296C324.375 98.448 324.883 98.6 325.267 98.752C325.651 98.904 325.979 99.136 326.251 99.448C326.531 99.76 326.671 100.18 326.671 100.708C326.671 101.148 326.551 101.552 326.311 101.92C326.071 102.28 325.707 102.568 325.219 102.784C324.731 102.992 324.131 103.096 323.419 103.096ZM331.652 96.58C332.46 96.58 333.1 96.816 333.572 97.288C334.052 97.752 334.292 98.436 334.292 99.34V103H333.14V99.472C333.14 98.856 332.992 98.392 332.696 98.08C332.4 97.768 331.976 97.612 331.424 97.612C330.8 97.612 330.308 97.796 329.948 98.164C329.588 98.524 329.408 99.044 329.408 99.724V103H328.256V94.096H329.408V97.54C329.648 97.236 329.96 97 330.344 96.832C330.736 96.664 331.172 96.58 331.652 96.58ZM339.183 103.072C338.551 103.072 337.983 102.932 337.479 102.652C336.975 102.372 336.579 101.988 336.291 101.5C336.011 101.004 335.871 100.444 335.871 99.82C335.871 99.196 336.011 98.64 336.291 98.152C336.579 97.656 336.975 97.272 337.479 97C337.983 96.72 338.551 96.58 339.183 96.58C339.815 96.58 340.379 96.72 340.875 97C341.379 97.272 341.771 97.656 342.051 98.152C342.339 98.64 342.483 99.196 342.483 99.82C342.483 100.444 342.339 101.004 342.051 101.5C341.771 101.988 341.379 102.372 340.875 102.652C340.379 102.932 339.815 103.072 339.183 103.072ZM339.183 102.064C339.591 102.064 339.955 101.972 340.275 101.788C340.603 101.596 340.859 101.332 341.043 100.996C341.227 100.652 341.319 100.26 341.319 99.82C341.319 99.38 341.227 98.992 341.043 98.656C340.859 98.312 340.603 98.048 340.275 97.864C339.955 97.68 339.591 97.588 339.183 97.588C338.775 97.588 338.407 97.68 338.079 97.864C337.759 98.048 337.503 98.312 337.311 98.656C337.127 98.992 337.035 99.38 337.035 99.82C337.035 100.26 337.127 100.652 337.311 100.996C337.503 101.332 337.759 101.596 338.079 101.788C338.407 101.972 338.775 102.064 339.183 102.064ZM347.448 96.58C348.064 96.58 348.616 96.716 349.104 96.988C349.592 97.26 349.972 97.64 350.244 98.128C350.524 98.616 350.664 99.18 350.664 99.82C350.664 100.46 350.524 101.028 350.244 101.524C349.972 102.012 349.592 102.392 349.104 102.664C348.616 102.936 348.064 103.072 347.448 103.072C346.992 103.072 346.572 102.984 346.188 102.808C345.812 102.632 345.492 102.376 345.228 102.04V105.328H344.076V96.64H345.18V97.648C345.436 97.296 345.76 97.032 346.152 96.856C346.544 96.672 346.976 96.58 347.448 96.58ZM347.352 102.064C347.76 102.064 348.124 101.972 348.444 101.788C348.772 101.596 349.028 101.332 349.212 100.996C349.404 100.652 349.5 100.26 349.5 99.82C349.5 99.38 349.404 98.992 349.212 98.656C349.028 98.312 348.772 98.048 348.444 97.864C348.124 97.68 347.76 97.588 347.352 97.588C346.952 97.588 346.588 97.684 346.26 97.876C345.94 98.06 345.684 98.32 345.492 98.656C345.308 98.992 345.216 99.38 345.216 99.82C345.216 100.26 345.308 100.652 345.492 100.996C345.676 101.332 345.932 101.596 346.26 101.788C346.588 101.972 346.952 102.064 347.352 102.064ZM355.628 96.58C356.244 96.58 356.796 96.716 357.284 96.988C357.772 97.26 358.152 97.64 358.424 98.128C358.704 98.616 358.844 99.18 358.844 99.82C358.844 100.46 358.704 101.028 358.424 101.524C358.152 102.012 357.772 102.392 357.284 102.664C356.796 102.936 356.244 103.072 355.628 103.072C355.172 103.072 354.752 102.984 354.368 102.808C353.992 102.632 353.672 102.376 353.408 102.04V105.328H352.256V96.64H353.36V97.648C353.616 97.296 353.94 97.032 354.332 96.856C354.724 96.672 355.156 96.58 355.628 96.58ZM355.532 102.064C355.94 102.064 356.304 101.972 356.624 101.788C356.952 101.596 357.208 101.332 357.392 100.996C357.584 100.652 357.68 100.26 357.68 99.82C357.68 99.38 357.584 98.992 357.392 98.656C357.208 98.312 356.952 98.048 356.624 97.864C356.304 97.68 355.94 97.588 355.532 97.588C355.132 97.588 354.768 97.684 354.44 97.876C354.12 98.06 353.864 98.32 353.672 98.656C353.488 98.992 353.396 99.38 353.396 99.82C353.396 100.26 353.488 100.652 353.672 100.996C353.856 101.332 354.112 101.596 354.44 101.788C354.768 101.972 355.132 102.064 355.532 102.064ZM360.436 96.64H361.588V103H360.436V96.64ZM361.012 95.416C360.788 95.416 360.6 95.344 360.448 95.2C360.304 95.056 360.232 94.88 360.232 94.672C360.232 94.464 360.304 94.288 360.448 94.144C360.6 93.992 360.788 93.916 361.012 93.916C361.236 93.916 361.42 93.988 361.564 94.132C361.716 94.268 361.792 94.44 361.792 94.648C361.792 94.864 361.716 95.048 361.564 95.2C361.42 95.344 361.236 95.416 361.012 95.416ZM367.183 96.58C367.991 96.58 368.631 96.816 369.103 97.288C369.583 97.752 369.823 98.436 369.823 99.34V103H368.671V99.472C368.671 98.856 368.523 98.392 368.227 98.08C367.931 97.768 367.507 97.612 366.955 97.612C366.331 97.612 365.839 97.796 365.479 98.164C365.119 98.524 364.939 99.044 364.939 99.724V103H363.787V96.64H364.891V97.6C365.123 97.272 365.435 97.02 365.827 96.844C366.227 96.668 366.679 96.58 367.183 96.58ZM378.074 96.64V102.136C378.074 103.248 377.798 104.068 377.246 104.596C376.694 105.132 375.87 105.4 374.774 105.4C374.174 105.4 373.602 105.316 373.058 105.148C372.514 104.988 372.074 104.756 371.738 104.452L372.29 103.564C372.586 103.82 372.95 104.02 373.382 104.164C373.822 104.316 374.274 104.392 374.738 104.392C375.482 104.392 376.03 104.216 376.382 103.864C376.742 103.512 376.922 102.976 376.922 102.256V101.752C376.65 102.08 376.314 102.328 375.914 102.496C375.522 102.656 375.094 102.736 374.63 102.736C374.022 102.736 373.47 102.608 372.974 102.352C372.486 102.088 372.102 101.724 371.822 101.26C371.542 100.788 371.402 100.252 371.402 99.652C371.402 99.052 371.542 98.52 371.822 98.056C372.102 97.584 372.486 97.22 372.974 96.964C373.47 96.708 374.022 96.58 374.63 96.58C375.11 96.58 375.554 96.668 375.962 96.844C376.378 97.02 376.718 97.28 376.982 97.624V96.64H378.074ZM374.762 101.728C375.178 101.728 375.55 101.64 375.878 101.464C376.214 101.288 376.474 101.044 376.658 100.732C376.85 100.412 376.946 100.052 376.946 99.652C376.946 99.036 376.742 98.54 376.334 98.164C375.926 97.78 375.402 97.588 374.762 97.588C374.114 97.588 373.586 97.78 373.178 98.164C372.77 98.54 372.566 99.036 372.566 99.652C372.566 100.052 372.658 100.412 372.842 100.732C373.034 101.044 373.294 101.288 373.622 101.464C373.958 101.64 374.338 101.728 374.762 101.728Z" fill="#465361"/>
<path d="M89.928 95.644H87.048V94.6H93.996V95.644H91.116V103H89.928V95.644ZM100.227 99.856C100.227 99.944 100.219 100.06 100.203 100.204H95.0427C95.1147 100.764 95.3587 101.216 95.7747 101.56C96.1987 101.896 96.7227 102.064 97.3467 102.064C98.1067 102.064 98.7187 101.808 99.1827 101.296L99.8187 102.04C99.5307 102.376 99.1707 102.632 98.7387 102.808C98.3147 102.984 97.8387 103.072 97.3107 103.072C96.6387 103.072 96.0427 102.936 95.5227 102.664C95.0027 102.384 94.5987 101.996 94.3107 101.5C94.0307 101.004 93.8907 100.444 93.8907 99.82C93.8907 99.204 94.0267 98.648 94.2987 98.152C94.5787 97.656 94.9587 97.272 95.4387 97C95.9267 96.72 96.4747 96.58 97.0827 96.58C97.6907 96.58 98.2307 96.72 98.7027 97C99.1827 97.272 99.5547 97.656 99.8187 98.152C100.091 98.648 100.227 99.216 100.227 99.856ZM97.0827 97.552C96.5307 97.552 96.0667 97.72 95.6907 98.056C95.3227 98.392 95.1067 98.832 95.0427 99.376H99.1227C99.0587 98.84 98.8387 98.404 98.4627 98.068C98.0947 97.724 97.6347 97.552 97.0827 97.552ZM109.782 96.58C110.582 96.58 111.214 96.812 111.678 97.276C112.15 97.74 112.386 98.428 112.386 99.34V103H111.234V99.472C111.234 98.856 111.09 98.392 110.802 98.08C110.522 97.768 110.118 97.612 109.59 97.612C109.006 97.612 108.542 97.796 108.198 98.164C107.854 98.524 107.682 99.044 107.682 99.724V103H106.53V99.472C106.53 98.856 106.386 98.392 106.098 98.08C105.818 97.768 105.414 97.612 104.886 97.612C104.302 97.612 103.838 97.796 103.494 98.164C103.15 98.524 102.978 99.044 102.978 99.724V103H101.826V96.64H102.93V97.588C103.162 97.26 103.466 97.012 103.842 96.844C104.218 96.668 104.646 96.58 105.126 96.58C105.622 96.58 106.062 96.68 106.446 96.88C106.83 97.08 107.126 97.372 107.334 97.756C107.574 97.388 107.906 97.1 108.33 96.892C108.762 96.684 109.246 96.58 109.782 96.58ZM117.878 96.58C118.494 96.58 119.046 96.716 119.534 96.988C120.022 97.26 120.402 97.64 120.674 98.128C120.954 98.616 121.094 99.18 121.094 99.82C121.094 100.46 120.954 101.028 120.674 101.524C120.402 102.012 120.022 102.392 119.534 102.664C119.046 102.936 118.494 103.072 117.878 103.072C117.422 103.072 117.002 102.984 116.618 102.808C116.242 102.632 115.922 102.376 115.658 102.04V105.328H114.506V96.64H115.61V97.648C115.866 97.296 116.19 97.032 116.582 96.856C116.974 96.672 117.406 96.58 117.878 96.58ZM117.782 102.064C118.19 102.064 118.554 101.972 118.874 101.788C119.202 101.596 119.458 101.332 119.642 100.996C119.834 100.652 119.93 100.26 119.93 99.82C119.93 99.38 119.834 98.992 119.642 98.656C119.458 98.312 119.202 98.048 118.874 97.864C118.554 97.68 118.19 97.588 117.782 97.588C117.382 97.588 117.018 97.684 116.69 97.876C116.37 98.06 116.114 98.32 115.922 98.656C115.738 98.992 115.646 99.38 115.646 99.82C115.646 100.26 115.738 100.652 115.922 100.996C116.106 101.332 116.362 101.596 116.69 101.788C117.018 101.972 117.382 102.064 117.782 102.064ZM122.686 94.096H123.838V103H122.686V94.096ZM128.353 96.58C129.233 96.58 129.905 96.796 130.369 97.228C130.841 97.66 131.077 98.304 131.077 99.16V103H129.985V102.16C129.793 102.456 129.517 102.684 129.157 102.844C128.805 102.996 128.385 103.072 127.897 103.072C127.185 103.072 126.613 102.9 126.181 102.556C125.757 102.212 125.545 101.76 125.545 101.2C125.545 100.64 125.749 100.192 126.157 99.856C126.565 99.512 127.213 99.34 128.101 99.34H129.925V99.112C129.925 98.616 129.781 98.236 129.493 97.972C129.205 97.708 128.781 97.576 128.221 97.576C127.845 97.576 127.477 97.64 127.117 97.768C126.757 97.888 126.453 98.052 126.205 98.26L125.725 97.396C126.053 97.132 126.445 96.932 126.901 96.796C127.357 96.652 127.841 96.58 128.353 96.58ZM128.089 102.184C128.529 102.184 128.909 102.088 129.229 101.896C129.549 101.696 129.781 101.416 129.925 101.056V100.168H128.149C127.173 100.168 126.685 100.496 126.685 101.152C126.685 101.472 126.809 101.724 127.057 101.908C127.305 102.092 127.649 102.184 128.089 102.184ZM136.785 102.628C136.617 102.772 136.409 102.884 136.161 102.964C135.913 103.036 135.657 103.072 135.393 103.072C134.753 103.072 134.257 102.9 133.905 102.556C133.553 102.212 133.377 101.72 133.377 101.08V97.588H132.297V96.64H133.377V95.248H134.529V96.64H136.353V97.588H134.529V101.032C134.529 101.376 134.613 101.64 134.781 101.824C134.957 102.008 135.205 102.1 135.525 102.1C135.877 102.1 136.177 102 136.425 101.8L136.785 102.628ZM143.715 99.856C143.715 99.944 143.707 100.06 143.691 100.204H138.531C138.603 100.764 138.847 101.216 139.263 101.56C139.687 101.896 140.211 102.064 140.835 102.064C141.595 102.064 142.207 101.808 142.671 101.296L143.307 102.04C143.019 102.376 142.659 102.632 142.227 102.808C141.803 102.984 141.327 103.072 140.799 103.072C140.127 103.072 139.531 102.936 139.011 102.664C138.491 102.384 138.087 101.996 137.799 101.5C137.519 101.004 137.379 100.444 137.379 99.82C137.379 99.204 137.515 98.648 137.787 98.152C138.067 97.656 138.447 97.272 138.927 97C139.415 96.72 139.963 96.58 140.571 96.58C141.179 96.58 141.719 96.72 142.191 97C142.671 97.272 143.043 97.656 143.307 98.152C143.579 98.648 143.715 99.216 143.715 99.856ZM140.571 97.552C140.019 97.552 139.555 97.72 139.179 98.056C138.811 98.392 138.595 98.832 138.531 99.376H142.611C142.547 98.84 142.327 98.404 141.951 98.068C141.583 97.724 141.123 97.552 140.571 97.552Z" fill="#465361"/>
<path d="M30 25C30 19.4772 34.4772 15 40 15H540C545.523 15 550 19.4772 550 25V53H30V25Z" fill="#F6F8FB"/>
<path d="M81.1559 34.5693C81.1559 37.4833 78.8453 39.8193 76.0271 39.8193C73.209 39.8193 70.8984 37.4833 70.8984 34.5693C70.8984 31.6553 73.209 29.3193 76.0271 29.3193C78.8453 29.3193 81.1559 31.6553 81.1559 34.5693Z" stroke="#EB5757" stroke-width="1.5"/>
<path d="M97.0055 34.5693C97.0055 37.4833 94.6949 39.8193 91.8768 39.8193C89.0586 39.8193 86.748 37.4833 86.748 34.5693C86.748 31.6553 89.0586 29.3193 91.8768 29.3193C94.6949 29.3193 97.0055 31.6553 97.0055 34.5693Z" stroke="#F2994A" stroke-width="1.5"/>
<path d="M112.853 34.5693C112.853 37.4833 110.543 39.8193 107.724 39.8193C104.906 39.8193 102.596 37.4833 102.596 34.5693C102.596 31.6553 104.906 29.3193 107.724 29.3193C110.543 29.3193 112.853 31.6553 112.853 34.5693Z" stroke="#219653" stroke-width="1.5"/>
<rect x="255.5" y="23.5" width="128" height="21" rx="9.5" fill="white" stroke="#E5EAEF"/>
<path d="M295.237 38L295.225 31.88L292.189 36.98H291.637L288.601 31.916V38H287.449V29.6H288.433L291.937 35.504L295.393 29.6H296.377L296.389 38H295.237ZM301.058 31.58C301.938 31.58 302.61 31.796 303.074 32.228C303.546 32.66 303.782 33.304 303.782 34.16V38H302.69V37.16C302.498 37.456 302.222 37.684 301.862 37.844C301.51 37.996 301.09 38.072 300.602 38.072C299.89 38.072 299.318 37.9 298.886 37.556C298.462 37.212 298.25 36.76 298.25 36.2C298.25 35.64 298.454 35.192 298.862 34.856C299.27 34.512 299.918 34.34 300.806 34.34H302.63V34.112C302.63 33.616 302.486 33.236 302.198 32.972C301.91 32.708 301.486 32.576 300.926 32.576C300.55 32.576 300.182 32.64 299.822 32.768C299.462 32.888 299.158 33.052 298.91 33.26L298.43 32.396C298.758 32.132 299.15 31.932 299.606 31.796C300.062 31.652 300.546 31.58 301.058 31.58ZM300.794 37.184C301.234 37.184 301.614 37.088 301.934 36.896C302.254 36.696 302.486 36.416 302.63 36.056V35.168H300.854C299.878 35.168 299.39 35.496 299.39 36.152C299.39 36.472 299.514 36.724 299.762 36.908C300.01 37.092 300.354 37.184 300.794 37.184ZM308.386 35.036L307.066 36.26V38H305.914V29.096H307.066V34.808L310.534 31.64H311.926L309.25 34.268L312.19 38H310.774L308.386 35.036ZM318.787 34.856C318.787 34.944 318.779 35.06 318.763 35.204H313.603C313.675 35.764 313.919 36.216 314.335 36.56C314.759 36.896 315.283 37.064 315.907 37.064C316.667 37.064 317.279 36.808 317.743 36.296L318.379 37.04C318.091 37.376 317.731 37.632 317.299 37.808C316.875 37.984 316.399 38.072 315.871 38.072C315.199 38.072 314.603 37.936 314.083 37.664C313.563 37.384 313.159 36.996 312.871 36.5C312.591 36.004 312.451 35.444 312.451 34.82C312.451 34.204 312.587 33.648 312.859 33.152C313.139 32.656 313.519 32.272 313.999 32C314.487 31.72 315.035 31.58 315.643 31.58C316.251 31.58 316.791 31.72 317.263 32C317.743 32.272 318.115 32.656 318.379 33.152C318.651 33.648 318.787 34.216 318.787 34.856ZM315.643 32.552C315.091 32.552 314.627 32.72 314.251 33.056C313.883 33.392 313.667 33.832 313.603 34.376H317.683C317.619 33.84 317.399 33.404 317.023 33.068C316.655 32.724 316.195 32.552 315.643 32.552ZM324.978 30.644V33.572H329.19V34.604H324.978V38H323.778V29.6H329.706V30.644H324.978ZM336.776 34.856C336.776 34.944 336.768 35.06 336.752 35.204H331.592C331.664 35.764 331.908 36.216 332.324 36.56C332.748 36.896 333.272 37.064 333.896 37.064C334.656 37.064 335.268 36.808 335.732 36.296L336.368 37.04C336.08 37.376 335.72 37.632 335.288 37.808C334.864 37.984 334.388 38.072 333.86 38.072C333.188 38.072 332.592 37.936 332.072 37.664C331.552 37.384 331.148 36.996 330.86 36.5C330.58 36.004 330.44 35.444 330.44 34.82C330.44 34.204 330.576 33.648 330.848 33.152C331.128 32.656 331.508 32.272 331.988 32C332.476 31.72 333.024 31.58 333.632 31.58C334.24 31.58 334.78 31.72 335.252 32C335.732 32.272 336.104 32.656 336.368 33.152C336.64 33.648 336.776 34.216 336.776 34.856ZM333.632 32.552C333.08 32.552 332.616 32.72 332.24 33.056C331.872 33.392 331.656 33.832 331.592 34.376H335.672C335.608 33.84 335.388 33.404 335.012 33.068C334.644 32.724 334.184 32.552 333.632 32.552ZM344.123 34.856C344.123 34.944 344.115 35.06 344.099 35.204H338.939C339.011 35.764 339.255 36.216 339.671 36.56C340.095 36.896 340.619 37.064 341.243 37.064C342.003 37.064 342.615 36.808 343.079 36.296L343.715 37.04C343.427 37.376 343.067 37.632 342.635 37.808C342.211 37.984 341.735 38.072 341.207 38.072C340.535 38.072 339.939 37.936 339.419 37.664C338.899 37.384 338.495 36.996 338.207 36.5C337.927 36.004 337.787 35.444 337.787 34.82C337.787 34.204 337.923 33.648 338.195 33.152C338.475 32.656 338.855 32.272 339.335 32C339.823 31.72 340.371 31.58 340.979 31.58C341.587 31.58 342.127 31.72 342.599 32C343.079 32.272 343.451 32.656 343.715 33.152C343.987 33.648 344.123 34.216 344.123 34.856ZM340.979 32.552C340.427 32.552 339.963 32.72 339.587 33.056C339.219 33.392 339.003 33.832 338.939 34.376H343.019C342.955 33.84 342.735 33.404 342.359 33.068C341.991 32.724 341.531 32.552 340.979 32.552ZM351.723 29.096V38H350.619V36.992C350.363 37.344 350.039 37.612 349.647 37.796C349.255 37.98 348.823 38.072 348.351 38.072C347.735 38.072 347.183 37.936 346.695 37.664C346.207 37.392 345.823 37.012 345.543 36.524C345.271 36.028 345.135 35.46 345.135 34.82C345.135 34.18 345.271 33.616 345.543 33.128C345.823 32.64 346.207 32.26 346.695 31.988C347.183 31.716 347.735 31.58 348.351 31.58C348.807 31.58 349.227 31.668 349.611 31.844C349.995 32.012 350.315 32.264 350.571 32.6V29.096H351.723ZM348.447 37.064C348.847 37.064 349.211 36.972 349.539 36.788C349.867 36.596 350.123 36.332 350.307 35.996C350.491 35.652 350.583 35.26 350.583 34.82C350.583 34.38 350.491 33.992 350.307 33.656C350.123 33.312 349.867 33.048 349.539 32.864C349.211 32.68 348.847 32.588 348.447 32.588C348.039 32.588 347.671 32.68 347.343 32.864C347.023 33.048 346.767 33.312 346.575 33.656C346.391 33.992 346.299 34.38 346.299 34.82C346.299 35.26 346.391 35.652 346.575 35.996C346.767 36.332 347.023 36.596 347.343 36.788C347.671 36.972 348.039 37.064 348.447 37.064Z" fill="#465361"/>
</g>
<defs>
<filter id="filter0_d" x="0" y="0" width="580" height="431" filterUnits="userSpaceOnUse" color-interpolation-filters="sRGB">
<feFlood flood-opacity="0" result="BackgroundImageFix"/>
<feColorMatrix in="SourceAlpha" type="matrix" values="0 0 0 0 0 0 0 0 0 0 0 0 0 0 0 0 0 0 127 0"/>
<feOffset dy="15"/>
<feGaussianBlur stdDeviation="15"/>
<feColorMatrix type="matrix" values="0 0 0 0 0.788235 0 0 0 0 0.788235 0 0 0 0 0.788235 0 0 0 0.3 0"/>
<feBlend mode="normal" in2="BackgroundImageFix" result="effect1_dropShadow"/>
<feBlend mode="normal" in="SourceGraphic" in2="effect1_dropShadow" result="shape"/>
</filter>
</defs>
</svg>
