<svg width="546" height="225" viewBox="0 0 546 225" fill="none" xmlns="http://www.w3.org/2000/svg">
<g id="Frame 7">
<g id="include exclude products" opacity="0.8">
<g id="Rectangle 513" filter="url(#filter0_d)">
<rect x="20.002" y="20" width="520" height="200" rx="10" fill="#F6FAFD"/>
</g>
<path id="bg" d="M10 0.5H510C515.247 0.5 519.5 4.7533 519.5 10V190C519.5 195.247 515.247 199.5 510 199.5H10C4.7533 199.5 0.5 195.247 0.5 190V10C0.5 4.7533 4.7533 0.5 10 0.5Z" fill="white" stroke="#E5EAEF"/>
<g id="form">
<g id="Group 2074">
<path id="Categories" d="M35.016 99.096C34.176 99.096 33.416 98.912 32.736 98.544C32.064 98.168 31.536 97.656 31.152 97.008C30.768 96.352 30.576 95.616 30.576 94.8C30.576 93.984 30.768 93.252 31.152 92.604C31.536 91.948 32.068 91.436 32.748 91.068C33.428 90.692 34.188 90.504 35.028 90.504C35.684 90.504 36.284 90.616 36.828 90.84C37.372 91.056 37.836 91.38 38.22 91.812L37.44 92.568C36.808 91.904 36.02 91.572 35.076 91.572C34.452 91.572 33.888 91.712 33.384 91.992C32.88 92.272 32.484 92.66 32.196 93.156C31.916 93.644 31.776 94.192 31.776 94.8C31.776 95.408 31.916 95.96 32.196 96.456C32.484 96.944 32.88 97.328 33.384 97.608C33.888 97.888 34.452 98.028 35.076 98.028C36.012 98.028 36.8 97.692 37.44 97.02L38.22 97.776C37.836 98.208 37.368 98.536 36.816 98.76C36.272 98.984 35.672 99.096 35.016 99.096ZM41.9978 92.58C42.8778 92.58 43.5498 92.796 44.0138 93.228C44.4858 93.66 44.7218 94.304 44.7218 95.16V99H43.6298V98.16C43.4378 98.456 43.1618 98.684 42.8018 98.844C42.4498 98.996 42.0298 99.072 41.5418 99.072C40.8298 99.072 40.2578 98.9 39.8258 98.556C39.4018 98.212 39.1898 97.76 39.1898 97.2C39.1898 96.64 39.3938 96.192 39.8018 95.856C40.2098 95.512 40.8578 95.34 41.7458 95.34H43.5698V95.112C43.5698 94.616 43.4258 94.236 43.1378 93.972C42.8498 93.708 42.4258 93.576 41.8658 93.576C41.4898 93.576 41.1218 93.64 40.7618 93.768C40.4018 93.888 40.0978 94.052 39.8498 94.26L39.3698 93.396C39.6978 93.132 40.0898 92.932 40.5458 92.796C41.0018 92.652 41.4858 92.58 41.9978 92.58ZM41.7338 98.184C42.1738 98.184 42.5538 98.088 42.8738 97.896C43.1938 97.696 43.4258 97.416 43.5698 97.056V96.168H41.7938C40.8178 96.168 40.3298 96.496 40.3298 97.152C40.3298 97.472 40.4538 97.724 40.7018 97.908C40.9498 98.092 41.2938 98.184 41.7338 98.184ZM50.4297 98.628C50.2617 98.772 50.0537 98.884 49.8057 98.964C49.5577 99.036 49.3017 99.072 49.0377 99.072C48.3977 99.072 47.9017 98.9 47.5497 98.556C47.1977 98.212 47.0217 97.72 47.0217 97.08V93.588H45.9417V92.64H47.0217V91.248H48.1737V92.64H49.9977V93.588H48.1737V97.032C48.1737 97.376 48.2577 97.64 48.4257 97.824C48.6017 98.008 48.8497 98.1 49.1697 98.1C49.5217 98.1 49.8217 98 50.0697 97.8L50.4297 98.628ZM57.3595 95.856C57.3595 95.944 57.3515 96.06 57.3355 96.204H52.1755C52.2475 96.764 52.4915 97.216 52.9075 97.56C53.3315 97.896 53.8555 98.064 54.4795 98.064C55.2395 98.064 55.8515 97.808 56.3155 97.296L56.9515 98.04C56.6635 98.376 56.3035 98.632 55.8715 98.808C55.4475 98.984 54.9715 99.072 54.4435 99.072C53.7715 99.072 53.1755 98.936 52.6555 98.664C52.1355 98.384 51.7315 97.996 51.4435 97.5C51.1635 97.004 51.0235 96.444 51.0235 95.82C51.0235 95.204 51.1595 94.648 51.4315 94.152C51.7115 93.656 52.0915 93.272 52.5715 93C53.0595 92.72 53.6075 92.58 54.2155 92.58C54.8235 92.58 55.3635 92.72 55.8355 93C56.3155 93.272 56.6875 93.656 56.9515 94.152C57.2235 94.648 57.3595 95.216 57.3595 95.856ZM54.2155 93.552C53.6635 93.552 53.1995 93.72 52.8235 94.056C52.4555 94.392 52.2395 94.832 52.1755 95.376H56.2555C56.1915 94.84 55.9715 94.404 55.5955 94.068C55.2275 93.724 54.7675 93.552 54.2155 93.552ZM65.0432 92.64V98.136C65.0432 99.248 64.7672 100.068 64.2152 100.596C63.6632 101.132 62.8392 101.4 61.7432 101.4C61.1432 101.4 60.5712 101.316 60.0272 101.148C59.4832 100.988 59.0432 100.756 58.7072 100.452L59.2592 99.564C59.5552 99.82 59.9192 100.02 60.3512 100.164C60.7912 100.316 61.2432 100.392 61.7072 100.392C62.4512 100.392 62.9992 100.216 63.3512 99.864C63.7112 99.512 63.8912 98.976 63.8912 98.256V97.752C63.6192 98.08 63.2832 98.328 62.8832 98.496C62.4912 98.656 62.0632 98.736 61.5992 98.736C60.9912 98.736 60.4392 98.608 59.9432 98.352C59.4552 98.088 59.0712 97.724 58.7912 97.26C58.5112 96.788 58.3712 96.252 58.3712 95.652C58.3712 95.052 58.5112 94.52 58.7912 94.056C59.0712 93.584 59.4552 93.22 59.9432 92.964C60.4392 92.708 60.9912 92.58 61.5992 92.58C62.0792 92.58 62.5232 92.668 62.9312 92.844C63.3472 93.02 63.6872 93.28 63.9512 93.624V92.64H65.0432ZM61.7312 97.728C62.1472 97.728 62.5192 97.64 62.8472 97.464C63.1832 97.288 63.4432 97.044 63.6272 96.732C63.8192 96.412 63.9152 96.052 63.9152 95.652C63.9152 95.036 63.7112 94.54 63.3032 94.164C62.8952 93.78 62.3712 93.588 61.7312 93.588C61.0832 93.588 60.5552 93.78 60.1472 94.164C59.7392 94.54 59.5352 95.036 59.5352 95.652C59.5352 96.052 59.6272 96.412 59.8112 96.732C60.0032 97.044 60.2632 97.288 60.5912 97.464C60.9272 97.64 61.3072 97.728 61.7312 97.728ZM69.9683 99.072C69.3363 99.072 68.7683 98.932 68.2643 98.652C67.7603 98.372 67.3643 97.988 67.0763 97.5C66.7963 97.004 66.6563 96.444 66.6563 95.82C66.6563 95.196 66.7963 94.64 67.0763 94.152C67.3643 93.656 67.7603 93.272 68.2643 93C68.7683 92.72 69.3363 92.58 69.9683 92.58C70.6003 92.58 71.1643 92.72 71.6603 93C72.1643 93.272 72.5563 93.656 72.8363 94.152C73.1243 94.64 73.2683 95.196 73.2683 95.82C73.2683 96.444 73.1243 97.004 72.8363 97.5C72.5563 97.988 72.1643 98.372 71.6603 98.652C71.1643 98.932 70.6003 99.072 69.9683 99.072ZM69.9683 98.064C70.3763 98.064 70.7403 97.972 71.0603 97.788C71.3883 97.596 71.6443 97.332 71.8283 96.996C72.0123 96.652 72.1043 96.26 72.1043 95.82C72.1043 95.38 72.0123 94.992 71.8283 94.656C71.6443 94.312 71.3883 94.048 71.0603 93.864C70.7403 93.68 70.3763 93.588 69.9683 93.588C69.5603 93.588 69.1923 93.68 68.8643 93.864C68.5443 94.048 68.2883 94.312 68.0963 94.656C67.9123 94.992 67.8203 95.38 67.8203 95.82C67.8203 96.26 67.9123 96.652 68.0963 96.996C68.2883 97.332 68.5443 97.596 68.8643 97.788C69.1923 97.972 69.5603 98.064 69.9683 98.064ZM75.9655 93.708C76.1655 93.34 76.4615 93.06 76.8535 92.868C77.2455 92.676 77.7215 92.58 78.2815 92.58V93.696C78.2175 93.688 78.1295 93.684 78.0175 93.684C77.3935 93.684 76.9015 93.872 76.5415 94.248C76.1895 94.616 76.0135 95.144 76.0135 95.832V99H74.8615V92.64H75.9655V93.708ZM79.7014 92.64H80.8534V99H79.7014V92.64ZM80.2774 91.416C80.0534 91.416 79.8654 91.344 79.7134 91.2C79.5694 91.056 79.4974 90.88 79.4974 90.672C79.4974 90.464 79.5694 90.288 79.7134 90.144C79.8654 89.992 80.0534 89.916 80.2774 89.916C80.5014 89.916 80.6854 89.988 80.8294 90.132C80.9814 90.268 81.0574 90.44 81.0574 90.648C81.0574 90.864 80.9814 91.048 80.8294 91.2C80.6854 91.344 80.5014 91.416 80.2774 91.416ZM88.8009 95.856C88.8009 95.944 88.7929 96.06 88.7769 96.204H83.6169C83.6889 96.764 83.9329 97.216 84.3489 97.56C84.7729 97.896 85.2969 98.064 85.9209 98.064C86.6809 98.064 87.2929 97.808 87.7569 97.296L88.3929 98.04C88.1049 98.376 87.7449 98.632 87.3129 98.808C86.8889 98.984 86.4129 99.072 85.8849 99.072C85.2129 99.072 84.6169 98.936 84.0969 98.664C83.5769 98.384 83.1729 97.996 82.8849 97.5C82.6049 97.004 82.4649 96.444 82.4649 95.82C82.4649 95.204 82.6009 94.648 82.8729 94.152C83.1529 93.656 83.5329 93.272 84.0129 93C84.5009 92.72 85.0489 92.58 85.6569 92.58C86.2649 92.58 86.8049 92.72 87.2769 93C87.7569 93.272 88.1289 93.656 88.3929 94.152C88.6649 94.648 88.8009 95.216 88.8009 95.856ZM85.6569 93.552C85.1049 93.552 84.6409 93.72 84.2649 94.056C83.8969 94.392 83.6809 94.832 83.6169 95.376H87.6969C87.6329 94.84 87.4129 94.404 87.0369 94.068C86.6689 93.724 86.2089 93.552 85.6569 93.552ZM92.2246 99.072C91.7046 99.072 91.2046 99.004 90.7246 98.868C90.2446 98.724 89.8686 98.544 89.5966 98.328L90.0766 97.416C90.3566 97.616 90.6966 97.776 91.0966 97.896C91.4966 98.016 91.9006 98.076 92.3086 98.076C93.3166 98.076 93.8206 97.788 93.8206 97.212C93.8206 97.02 93.7526 96.868 93.6166 96.756C93.4806 96.644 93.3086 96.564 93.1006 96.516C92.9006 96.46 92.6126 96.4 92.2366 96.336C91.7246 96.256 91.3046 96.164 90.9766 96.06C90.6566 95.956 90.3806 95.78 90.1486 95.532C89.9166 95.284 89.8006 94.936 89.8006 94.488C89.8006 93.912 90.0406 93.452 90.5206 93.108C91.0006 92.756 91.6446 92.58 92.4526 92.58C92.8766 92.58 93.3006 92.632 93.7246 92.736C94.1486 92.84 94.4966 92.98 94.7686 93.156L94.2766 94.068C93.7566 93.732 93.1446 93.564 92.4406 93.564C91.9526 93.564 91.5806 93.644 91.3246 93.804C91.0686 93.964 90.9406 94.176 90.9406 94.44C90.9406 94.648 91.0126 94.812 91.1566 94.932C91.3006 95.052 91.4766 95.14 91.6846 95.196C91.9006 95.252 92.2006 95.316 92.5846 95.388C93.0966 95.476 93.5086 95.572 93.8206 95.676C94.1406 95.772 94.4126 95.94 94.6366 96.18C94.8606 96.42 94.9726 96.756 94.9726 97.188C94.9726 97.764 94.7246 98.224 94.2286 98.568C93.7406 98.904 93.0726 99.072 92.2246 99.072Z" fill="#465361"/>
</g>
<g id="input text">
<rect id="bg_2" x="122.25" y="79.25" width="237.5" height="31.5" rx="4.75" fill="#F9FAFD" stroke="#E5EAEF" stroke-width="0.5"/>
<g id="Group 2146">
<rect id="Rectangle 474" x="132" y="87" width="54" height="16" rx="2" fill="#E5EAEF"/>
<path id="Music" d="M145.048 99L145.036 92.88L142 97.98H141.448L138.412 92.916V99H137.26V90.6H138.244L141.748 96.504L145.204 90.6H146.188L146.2 99H145.048ZM154.481 92.64V99H153.389V98.04C153.157 98.368 152.849 98.624 152.465 98.808C152.089 98.984 151.677 99.072 151.229 99.072C150.381 99.072 149.713 98.84 149.225 98.376C148.737 97.904 148.493 97.212 148.493 96.3V92.64H149.645V96.168C149.645 96.784 149.793 97.252 150.089 97.572C150.385 97.884 150.809 98.04 151.361 98.04C151.969 98.04 152.449 97.856 152.801 97.488C153.153 97.12 153.329 96.6 153.329 95.928V92.64H154.481ZM158.498 99.072C157.978 99.072 157.478 99.004 156.998 98.868C156.518 98.724 156.142 98.544 155.87 98.328L156.35 97.416C156.63 97.616 156.97 97.776 157.37 97.896C157.77 98.016 158.174 98.076 158.582 98.076C159.59 98.076 160.094 97.788 160.094 97.212C160.094 97.02 160.026 96.868 159.89 96.756C159.754 96.644 159.582 96.564 159.374 96.516C159.174 96.46 158.886 96.4 158.51 96.336C157.998 96.256 157.578 96.164 157.25 96.06C156.93 95.956 156.654 95.78 156.422 95.532C156.19 95.284 156.074 94.936 156.074 94.488C156.074 93.912 156.314 93.452 156.794 93.108C157.274 92.756 157.918 92.58 158.726 92.58C159.15 92.58 159.574 92.632 159.998 92.736C160.422 92.84 160.77 92.98 161.042 93.156L160.55 94.068C160.03 93.732 159.418 93.564 158.714 93.564C158.226 93.564 157.854 93.644 157.598 93.804C157.342 93.964 157.214 94.176 157.214 94.44C157.214 94.648 157.286 94.812 157.43 94.932C157.574 95.052 157.75 95.14 157.958 95.196C158.174 95.252 158.474 95.316 158.858 95.388C159.37 95.476 159.782 95.572 160.094 95.676C160.414 95.772 160.686 95.94 160.91 96.18C161.134 96.42 161.246 96.756 161.246 97.188C161.246 97.764 160.998 98.224 160.502 98.568C160.014 98.904 159.346 99.072 158.498 99.072ZM162.686 92.64H163.838V99H162.686V92.64ZM163.262 91.416C163.038 91.416 162.85 91.344 162.698 91.2C162.554 91.056 162.482 90.88 162.482 90.672C162.482 90.464 162.554 90.288 162.698 90.144C162.85 89.992 163.038 89.916 163.262 89.916C163.486 89.916 163.67 89.988 163.814 90.132C163.966 90.268 164.042 90.44 164.042 90.648C164.042 90.864 163.966 91.048 163.814 91.2C163.67 91.344 163.486 91.416 163.262 91.416ZM168.809 99.072C168.161 99.072 167.581 98.932 167.069 98.652C166.565 98.372 166.169 97.988 165.881 97.5C165.593 97.004 165.449 96.444 165.449 95.82C165.449 95.196 165.593 94.64 165.881 94.152C166.169 93.656 166.565 93.272 167.069 93C167.581 92.72 168.161 92.58 168.809 92.58C169.385 92.58 169.897 92.696 170.345 92.928C170.801 93.16 171.153 93.496 171.401 93.936L170.525 94.5C170.325 94.196 170.077 93.968 169.781 93.816C169.485 93.664 169.157 93.588 168.797 93.588C168.381 93.588 168.005 93.68 167.669 93.864C167.341 94.048 167.081 94.312 166.889 94.656C166.705 94.992 166.613 95.38 166.613 95.82C166.613 96.268 166.705 96.664 166.889 97.008C167.081 97.344 167.341 97.604 167.669 97.788C168.005 97.972 168.381 98.064 168.797 98.064C169.157 98.064 169.485 97.988 169.781 97.836C170.077 97.684 170.325 97.456 170.525 97.152L171.401 97.704C171.153 98.144 170.801 98.484 170.345 98.724C169.897 98.956 169.385 99.072 168.809 99.072Z" fill="#465361"/>
<g id="Group 2145">
<line id="Line 105" x1="176.265" y1="92.1741" x2="181.536" y2="97.4448" stroke="#465361" stroke-width="0.75"/>
<line id="Line 106" x1="181.976" y1="92.2652" x2="176.705" y2="97.5359" stroke="#465361" stroke-width="0.75"/>
</g>
</g>
<g id="Group 2147">
<rect id="Rectangle 474_2" x="190" y="87" width="68" height="16" rx="2" fill="#E5EAEF"/>
<path id="Hoodies" d="M202.484 90.6V99H201.284V95.256H196.46V99H195.26V90.6H196.46V94.212H201.284V90.6H202.484ZM207.554 99.072C206.922 99.072 206.354 98.932 205.85 98.652C205.346 98.372 204.95 97.988 204.662 97.5C204.382 97.004 204.242 96.444 204.242 95.82C204.242 95.196 204.382 94.64 204.662 94.152C204.95 93.656 205.346 93.272 205.85 93C206.354 92.72 206.922 92.58 207.554 92.58C208.186 92.58 208.75 92.72 209.246 93C209.75 93.272 210.142 93.656 210.422 94.152C210.71 94.64 210.854 95.196 210.854 95.82C210.854 96.444 210.71 97.004 210.422 97.5C210.142 97.988 209.75 98.372 209.246 98.652C208.75 98.932 208.186 99.072 207.554 99.072ZM207.554 98.064C207.962 98.064 208.326 97.972 208.646 97.788C208.974 97.596 209.23 97.332 209.414 96.996C209.598 96.652 209.69 96.26 209.69 95.82C209.69 95.38 209.598 94.992 209.414 94.656C209.23 94.312 208.974 94.048 208.646 93.864C208.326 93.68 207.962 93.588 207.554 93.588C207.146 93.588 206.778 93.68 206.45 93.864C206.13 94.048 205.874 94.312 205.682 94.656C205.498 94.992 205.406 95.38 205.406 95.82C205.406 96.26 205.498 96.652 205.682 96.996C205.874 97.332 206.13 97.596 206.45 97.788C206.778 97.972 207.146 98.064 207.554 98.064ZM215.171 99.072C214.539 99.072 213.971 98.932 213.467 98.652C212.963 98.372 212.567 97.988 212.279 97.5C211.999 97.004 211.859 96.444 211.859 95.82C211.859 95.196 211.999 94.64 212.279 94.152C212.567 93.656 212.963 93.272 213.467 93C213.971 92.72 214.539 92.58 215.171 92.58C215.803 92.58 216.367 92.72 216.863 93C217.367 93.272 217.759 93.656 218.039 94.152C218.327 94.64 218.471 95.196 218.471 95.82C218.471 96.444 218.327 97.004 218.039 97.5C217.759 97.988 217.367 98.372 216.863 98.652C216.367 98.932 215.803 99.072 215.171 99.072ZM215.171 98.064C215.579 98.064 215.943 97.972 216.263 97.788C216.591 97.596 216.847 97.332 217.031 96.996C217.215 96.652 217.307 96.26 217.307 95.82C217.307 95.38 217.215 94.992 217.031 94.656C216.847 94.312 216.591 94.048 216.263 93.864C215.943 93.68 215.579 93.588 215.171 93.588C214.763 93.588 214.395 93.68 214.067 93.864C213.747 94.048 213.491 94.312 213.299 94.656C213.115 94.992 213.023 95.38 213.023 95.82C213.023 96.26 213.115 96.652 213.299 96.996C213.491 97.332 213.747 97.596 214.067 97.788C214.395 97.972 214.763 98.064 215.171 98.064ZM226.065 90.096V99H224.961V97.992C224.705 98.344 224.381 98.612 223.989 98.796C223.597 98.98 223.165 99.072 222.693 99.072C222.077 99.072 221.525 98.936 221.037 98.664C220.549 98.392 220.165 98.012 219.885 97.524C219.613 97.028 219.477 96.46 219.477 95.82C219.477 95.18 219.613 94.616 219.885 94.128C220.165 93.64 220.549 93.26 221.037 92.988C221.525 92.716 222.077 92.58 222.693 92.58C223.149 92.58 223.569 92.668 223.953 92.844C224.337 93.012 224.657 93.264 224.913 93.6V90.096H226.065ZM222.789 98.064C223.189 98.064 223.553 97.972 223.881 97.788C224.209 97.596 224.465 97.332 224.649 96.996C224.833 96.652 224.925 96.26 224.925 95.82C224.925 95.38 224.833 94.992 224.649 94.656C224.465 94.312 224.209 94.048 223.881 93.864C223.553 93.68 223.189 93.588 222.789 93.588C222.381 93.588 222.013 93.68 221.685 93.864C221.365 94.048 221.109 94.312 220.917 94.656C220.733 94.992 220.641 95.38 220.641 95.82C220.641 96.26 220.733 96.652 220.917 96.996C221.109 97.332 221.365 97.596 221.685 97.788C222.013 97.972 222.381 98.064 222.789 98.064ZM228.244 92.64H229.396V99H228.244V92.64ZM228.82 91.416C228.596 91.416 228.408 91.344 228.256 91.2C228.112 91.056 228.04 90.88 228.04 90.672C228.04 90.464 228.112 90.288 228.256 90.144C228.408 89.992 228.596 89.916 228.82 89.916C229.044 89.916 229.228 89.988 229.372 90.132C229.524 90.268 229.6 90.44 229.6 90.648C229.6 90.864 229.524 91.048 229.372 91.2C229.228 91.344 229.044 91.416 228.82 91.416ZM237.344 95.856C237.344 95.944 237.336 96.06 237.32 96.204H232.16C232.232 96.764 232.476 97.216 232.892 97.56C233.316 97.896 233.84 98.064 234.464 98.064C235.224 98.064 235.836 97.808 236.3 97.296L236.936 98.04C236.648 98.376 236.288 98.632 235.856 98.808C235.432 98.984 234.956 99.072 234.428 99.072C233.756 99.072 233.16 98.936 232.64 98.664C232.12 98.384 231.716 97.996 231.428 97.5C231.148 97.004 231.008 96.444 231.008 95.82C231.008 95.204 231.144 94.648 231.416 94.152C231.696 93.656 232.076 93.272 232.556 93C233.044 92.72 233.592 92.58 234.2 92.58C234.808 92.58 235.348 92.72 235.82 93C236.3 93.272 236.672 93.656 236.936 94.152C237.208 94.648 237.344 95.216 237.344 95.856ZM234.2 93.552C233.648 93.552 233.184 93.72 232.808 94.056C232.44 94.392 232.224 94.832 232.16 95.376H236.24C236.176 94.84 235.956 94.404 235.58 94.068C235.212 93.724 234.752 93.552 234.2 93.552ZM240.768 99.072C240.248 99.072 239.748 99.004 239.268 98.868C238.788 98.724 238.412 98.544 238.14 98.328L238.62 97.416C238.9 97.616 239.24 97.776 239.64 97.896C240.04 98.016 240.444 98.076 240.852 98.076C241.86 98.076 242.364 97.788 242.364 97.212C242.364 97.02 242.296 96.868 242.16 96.756C242.024 96.644 241.852 96.564 241.644 96.516C241.444 96.46 241.156 96.4 240.78 96.336C240.268 96.256 239.848 96.164 239.52 96.06C239.2 95.956 238.924 95.78 238.692 95.532C238.46 95.284 238.344 94.936 238.344 94.488C238.344 93.912 238.584 93.452 239.064 93.108C239.544 92.756 240.188 92.58 240.996 92.58C241.42 92.58 241.844 92.632 242.268 92.736C242.692 92.84 243.04 92.98 243.312 93.156L242.82 94.068C242.3 93.732 241.688 93.564 240.984 93.564C240.496 93.564 240.124 93.644 239.868 93.804C239.612 93.964 239.484 94.176 239.484 94.44C239.484 94.648 239.556 94.812 239.7 94.932C239.844 95.052 240.02 95.14 240.228 95.196C240.444 95.252 240.744 95.316 241.128 95.388C241.64 95.476 242.052 95.572 242.364 95.676C242.684 95.772 242.956 95.94 243.18 96.18C243.404 96.42 243.516 96.756 243.516 97.188C243.516 97.764 243.268 98.224 242.772 98.568C242.284 98.904 241.616 99.072 240.768 99.072Z" fill="#465361"/>
<g id="Group 2145_2">
<line id="Line 105_2" x1="248.265" y1="92.1741" x2="253.536" y2="97.4448" stroke="#465361" stroke-width="0.75"/>
<line id="Line 106_2" x1="253.976" y1="92.2652" x2="248.705" y2="97.5359" stroke="#465361" stroke-width="0.75"/>
</g>
</g>
<g id="Group 2148">
<rect id="Rectangle 474_3" x="262" y="87" width="88" height="16" rx="2" fill="#E5EAEF"/>
<path id="Accessories" d="M272.612 96.9H268.148L267.224 99H265.988L269.792 90.6H270.98L274.796 99H273.536L272.612 96.9ZM272.192 95.94L270.38 91.824L268.568 95.94H272.192ZM278.594 99.072C277.946 99.072 277.366 98.932 276.854 98.652C276.35 98.372 275.954 97.988 275.666 97.5C275.378 97.004 275.234 96.444 275.234 95.82C275.234 95.196 275.378 94.64 275.666 94.152C275.954 93.656 276.35 93.272 276.854 93C277.366 92.72 277.946 92.58 278.594 92.58C279.17 92.58 279.682 92.696 280.13 92.928C280.586 93.16 280.938 93.496 281.186 93.936L280.31 94.5C280.11 94.196 279.862 93.968 279.566 93.816C279.27 93.664 278.942 93.588 278.582 93.588C278.166 93.588 277.79 93.68 277.454 93.864C277.126 94.048 276.866 94.312 276.674 94.656C276.49 94.992 276.398 95.38 276.398 95.82C276.398 96.268 276.49 96.664 276.674 97.008C276.866 97.344 277.126 97.604 277.454 97.788C277.79 97.972 278.166 98.064 278.582 98.064C278.942 98.064 279.27 97.988 279.566 97.836C279.862 97.684 280.11 97.456 280.31 97.152L281.186 97.704C280.938 98.144 280.586 98.484 280.13 98.724C279.682 98.956 279.17 99.072 278.594 99.072ZM285.356 99.072C284.708 99.072 284.128 98.932 283.616 98.652C283.112 98.372 282.716 97.988 282.428 97.5C282.14 97.004 281.996 96.444 281.996 95.82C281.996 95.196 282.14 94.64 282.428 94.152C282.716 93.656 283.112 93.272 283.616 93C284.128 92.72 284.708 92.58 285.356 92.58C285.932 92.58 286.444 92.696 286.892 92.928C287.348 93.16 287.7 93.496 287.948 93.936L287.072 94.5C286.872 94.196 286.624 93.968 286.328 93.816C286.032 93.664 285.704 93.588 285.344 93.588C284.928 93.588 284.552 93.68 284.216 93.864C283.888 94.048 283.628 94.312 283.436 94.656C283.252 94.992 283.16 95.38 283.16 95.82C283.16 96.268 283.252 96.664 283.436 97.008C283.628 97.344 283.888 97.604 284.216 97.788C284.552 97.972 284.928 98.064 285.344 98.064C285.704 98.064 286.032 97.988 286.328 97.836C286.624 97.684 286.872 97.456 287.072 97.152L287.948 97.704C287.7 98.144 287.348 98.484 286.892 98.724C286.444 98.956 285.932 99.072 285.356 99.072ZM295.094 95.856C295.094 95.944 295.086 96.06 295.07 96.204H289.91C289.982 96.764 290.226 97.216 290.642 97.56C291.066 97.896 291.59 98.064 292.214 98.064C292.974 98.064 293.586 97.808 294.05 97.296L294.686 98.04C294.398 98.376 294.038 98.632 293.606 98.808C293.182 98.984 292.706 99.072 292.178 99.072C291.506 99.072 290.91 98.936 290.39 98.664C289.87 98.384 289.466 97.996 289.178 97.5C288.898 97.004 288.758 96.444 288.758 95.82C288.758 95.204 288.894 94.648 289.166 94.152C289.446 93.656 289.826 93.272 290.306 93C290.794 92.72 291.342 92.58 291.95 92.58C292.558 92.58 293.098 92.72 293.57 93C294.05 93.272 294.422 93.656 294.686 94.152C294.958 94.648 295.094 95.216 295.094 95.856ZM291.95 93.552C291.398 93.552 290.934 93.72 290.558 94.056C290.19 94.392 289.974 94.832 289.91 95.376H293.99C293.926 94.84 293.706 94.404 293.33 94.068C292.962 93.724 292.502 93.552 291.95 93.552ZM298.518 99.072C297.998 99.072 297.498 99.004 297.018 98.868C296.538 98.724 296.162 98.544 295.89 98.328L296.37 97.416C296.65 97.616 296.99 97.776 297.39 97.896C297.79 98.016 298.194 98.076 298.602 98.076C299.61 98.076 300.114 97.788 300.114 97.212C300.114 97.02 300.046 96.868 299.91 96.756C299.774 96.644 299.602 96.564 299.394 96.516C299.194 96.46 298.906 96.4 298.53 96.336C298.018 96.256 297.598 96.164 297.27 96.06C296.95 95.956 296.674 95.78 296.442 95.532C296.21 95.284 296.094 94.936 296.094 94.488C296.094 93.912 296.334 93.452 296.814 93.108C297.294 92.756 297.938 92.58 298.746 92.58C299.17 92.58 299.594 92.632 300.018 92.736C300.442 92.84 300.79 92.98 301.062 93.156L300.57 94.068C300.05 93.732 299.438 93.564 298.734 93.564C298.246 93.564 297.874 93.644 297.618 93.804C297.362 93.964 297.234 94.176 297.234 94.44C297.234 94.648 297.306 94.812 297.45 94.932C297.594 95.052 297.77 95.14 297.978 95.196C298.194 95.252 298.494 95.316 298.878 95.388C299.39 95.476 299.802 95.572 300.114 95.676C300.434 95.772 300.706 95.94 300.93 96.18C301.154 96.42 301.266 96.756 301.266 97.188C301.266 97.764 301.018 98.224 300.522 98.568C300.034 98.904 299.366 99.072 298.518 99.072ZM304.529 99.072C304.009 99.072 303.509 99.004 303.029 98.868C302.549 98.724 302.173 98.544 301.901 98.328L302.381 97.416C302.661 97.616 303.001 97.776 303.401 97.896C303.801 98.016 304.205 98.076 304.613 98.076C305.621 98.076 306.125 97.788 306.125 97.212C306.125 97.02 306.057 96.868 305.921 96.756C305.785 96.644 305.613 96.564 305.405 96.516C305.205 96.46 304.917 96.4 304.541 96.336C304.029 96.256 303.609 96.164 303.281 96.06C302.961 95.956 302.685 95.78 302.453 95.532C302.221 95.284 302.105 94.936 302.105 94.488C302.105 93.912 302.345 93.452 302.825 93.108C303.305 92.756 303.949 92.58 304.757 92.58C305.181 92.58 305.605 92.632 306.029 92.736C306.453 92.84 306.801 92.98 307.073 93.156L306.581 94.068C306.061 93.732 305.449 93.564 304.745 93.564C304.257 93.564 303.885 93.644 303.629 93.804C303.373 93.964 303.245 94.176 303.245 94.44C303.245 94.648 303.317 94.812 303.461 94.932C303.605 95.052 303.781 95.14 303.989 95.196C304.205 95.252 304.505 95.316 304.889 95.388C305.401 95.476 305.813 95.572 306.125 95.676C306.445 95.772 306.717 95.94 306.941 96.18C307.165 96.42 307.277 96.756 307.277 97.188C307.277 97.764 307.029 98.224 306.533 98.568C306.045 98.904 305.377 99.072 304.529 99.072ZM311.441 99.072C310.809 99.072 310.241 98.932 309.737 98.652C309.233 98.372 308.837 97.988 308.549 97.5C308.269 97.004 308.129 96.444 308.129 95.82C308.129 95.196 308.269 94.64 308.549 94.152C308.837 93.656 309.233 93.272 309.737 93C310.241 92.72 310.809 92.58 311.441 92.58C312.073 92.58 312.637 92.72 313.133 93C313.637 93.272 314.029 93.656 314.309 94.152C314.597 94.64 314.741 95.196 314.741 95.82C314.741 96.444 314.597 97.004 314.309 97.5C314.029 97.988 313.637 98.372 313.133 98.652C312.637 98.932 312.073 99.072 311.441 99.072ZM311.441 98.064C311.849 98.064 312.213 97.972 312.533 97.788C312.861 97.596 313.117 97.332 313.301 96.996C313.485 96.652 313.577 96.26 313.577 95.82C313.577 95.38 313.485 94.992 313.301 94.656C313.117 94.312 312.861 94.048 312.533 93.864C312.213 93.68 311.849 93.588 311.441 93.588C311.033 93.588 310.665 93.68 310.337 93.864C310.017 94.048 309.761 94.312 309.569 94.656C309.385 94.992 309.293 95.38 309.293 95.82C309.293 96.26 309.385 96.652 309.569 96.996C309.761 97.332 310.017 97.596 310.337 97.788C310.665 97.972 311.033 98.064 311.441 98.064ZM317.438 93.708C317.638 93.34 317.934 93.06 318.326 92.868C318.718 92.676 319.194 92.58 319.754 92.58V93.696C319.69 93.688 319.602 93.684 319.49 93.684C318.866 93.684 318.374 93.872 318.014 94.248C317.662 94.616 317.486 95.144 317.486 95.832V99H316.334V92.64H317.438V93.708ZM321.174 92.64H322.326V99H321.174V92.64ZM321.75 91.416C321.526 91.416 321.338 91.344 321.186 91.2C321.042 91.056 320.97 90.88 320.97 90.672C320.97 90.464 321.042 90.288 321.186 90.144C321.338 89.992 321.526 89.916 321.75 89.916C321.974 89.916 322.158 89.988 322.302 90.132C322.454 90.268 322.53 90.44 322.53 90.648C322.53 90.864 322.454 91.048 322.302 91.2C322.158 91.344 321.974 91.416 321.75 91.416ZM330.274 95.856C330.274 95.944 330.266 96.06 330.25 96.204H325.09C325.162 96.764 325.406 97.216 325.822 97.56C326.246 97.896 326.77 98.064 327.394 98.064C328.154 98.064 328.766 97.808 329.23 97.296L329.866 98.04C329.578 98.376 329.218 98.632 328.786 98.808C328.362 98.984 327.886 99.072 327.358 99.072C326.686 99.072 326.09 98.936 325.57 98.664C325.05 98.384 324.646 97.996 324.358 97.5C324.078 97.004 323.938 96.444 323.938 95.82C323.938 95.204 324.074 94.648 324.346 94.152C324.626 93.656 325.006 93.272 325.486 93C325.974 92.72 326.522 92.58 327.13 92.58C327.738 92.58 328.278 92.72 328.75 93C329.23 93.272 329.602 93.656 329.866 94.152C330.138 94.648 330.274 95.216 330.274 95.856ZM327.13 93.552C326.578 93.552 326.114 93.72 325.738 94.056C325.37 94.392 325.154 94.832 325.09 95.376H329.17C329.106 94.84 328.886 94.404 328.51 94.068C328.142 93.724 327.682 93.552 327.13 93.552ZM333.697 99.072C333.177 99.072 332.677 99.004 332.197 98.868C331.717 98.724 331.341 98.544 331.069 98.328L331.549 97.416C331.829 97.616 332.169 97.776 332.569 97.896C332.969 98.016 333.373 98.076 333.781 98.076C334.789 98.076 335.293 97.788 335.293 97.212C335.293 97.02 335.225 96.868 335.089 96.756C334.953 96.644 334.781 96.564 334.573 96.516C334.373 96.46 334.085 96.4 333.709 96.336C333.197 96.256 332.777 96.164 332.449 96.06C332.129 95.956 331.853 95.78 331.621 95.532C331.389 95.284 331.273 94.936 331.273 94.488C331.273 93.912 331.513 93.452 331.993 93.108C332.473 92.756 333.117 92.58 333.925 92.58C334.349 92.58 334.773 92.632 335.197 92.736C335.621 92.84 335.969 92.98 336.241 93.156L335.749 94.068C335.229 93.732 334.617 93.564 333.913 93.564C333.425 93.564 333.053 93.644 332.797 93.804C332.541 93.964 332.413 94.176 332.413 94.44C332.413 94.648 332.485 94.812 332.629 94.932C332.773 95.052 332.949 95.14 333.157 95.196C333.373 95.252 333.673 95.316 334.057 95.388C334.569 95.476 334.981 95.572 335.293 95.676C335.613 95.772 335.885 95.94 336.109 96.18C336.333 96.42 336.445 96.756 336.445 97.188C336.445 97.764 336.197 98.224 335.701 98.568C335.213 98.904 334.545 99.072 333.697 99.072Z" fill="#465361"/>
<g id="Group 2145_3">
<line id="Line 105_3" x1="340.265" y1="92.1741" x2="345.536" y2="97.4448" stroke="#465361" stroke-width="0.75"/>
<line id="Line 106_3" x1="345.976" y1="92.2652" x2="340.705" y2="97.5359" stroke="#465361" stroke-width="0.75"/>
</g>
</g>
</g>
<g id="Group 2149">
<g id="input text_2">
<g id="Group 2175">
<path id="Rectangle 488" d="M380.5 85.5H489.5V154C489.5 156.485 487.485 158.5 485 158.5H385C382.515 158.5 380.5 156.485 380.5 154V85.5Z" fill="white" stroke="#E5EAEF"/>
<path id="Rectangle 489" d="M380 135H490V154C490 156.761 487.761 159 485 159H385C382.239 159 380 156.761 380 154V135Z" fill="#E5EAEF"/>
<path id="Include Exclude" d="M397.26 118.6H398.46V127H397.26V118.6ZM404.203 120.58C405.011 120.58 405.651 120.816 406.123 121.288C406.603 121.752 406.843 122.436 406.843 123.34V127H405.691V123.472C405.691 122.856 405.543 122.392 405.247 122.08C404.951 121.768 404.527 121.612 403.975 121.612C403.351 121.612 402.859 121.796 402.499 122.164C402.139 122.524 401.959 123.044 401.959 123.724V127H400.807V120.64H401.911V121.6C402.143 121.272 402.455 121.02 402.847 120.844C403.247 120.668 403.699 120.58 404.203 120.58ZM411.782 127.072C411.134 127.072 410.554 126.932 410.042 126.652C409.538 126.372 409.142 125.988 408.854 125.5C408.566 125.004 408.422 124.444 408.422 123.82C408.422 123.196 408.566 122.64 408.854 122.152C409.142 121.656 409.538 121.272 410.042 121C410.554 120.72 411.134 120.58 411.782 120.58C412.358 120.58 412.87 120.696 413.318 120.928C413.774 121.16 414.126 121.496 414.374 121.936L413.498 122.5C413.298 122.196 413.05 121.968 412.754 121.816C412.458 121.664 412.13 121.588 411.77 121.588C411.354 121.588 410.978 121.68 410.642 121.864C410.314 122.048 410.054 122.312 409.862 122.656C409.678 122.992 409.586 123.38 409.586 123.82C409.586 124.268 409.678 124.664 409.862 125.008C410.054 125.344 410.314 125.604 410.642 125.788C410.978 125.972 411.354 126.064 411.77 126.064C412.13 126.064 412.458 125.988 412.754 125.836C413.05 125.684 413.298 125.456 413.498 125.152L414.374 125.704C414.126 126.144 413.774 126.484 413.318 126.724C412.87 126.956 412.358 127.072 411.782 127.072ZM415.783 118.096H416.935V127H415.783V118.096ZM425.063 120.64V127H423.971V126.04C423.739 126.368 423.431 126.624 423.047 126.808C422.671 126.984 422.259 127.072 421.811 127.072C420.963 127.072 420.295 126.84 419.807 126.376C419.319 125.904 419.075 125.212 419.075 124.3V120.64H420.227V124.168C420.227 124.784 420.375 125.252 420.671 125.572C420.967 125.884 421.391 126.04 421.943 126.04C422.551 126.04 423.031 125.856 423.383 125.488C423.735 125.12 423.911 124.6 423.911 123.928V120.64H425.063ZM433.256 118.096V127H432.152V125.992C431.896 126.344 431.572 126.612 431.18 126.796C430.788 126.98 430.356 127.072 429.884 127.072C429.268 127.072 428.716 126.936 428.228 126.664C427.74 126.392 427.356 126.012 427.076 125.524C426.804 125.028 426.668 124.46 426.668 123.82C426.668 123.18 426.804 122.616 427.076 122.128C427.356 121.64 427.74 121.26 428.228 120.988C428.716 120.716 429.268 120.58 429.884 120.58C430.34 120.58 430.76 120.668 431.144 120.844C431.528 121.012 431.848 121.264 432.104 121.6V118.096H433.256ZM429.98 126.064C430.38 126.064 430.744 125.972 431.072 125.788C431.4 125.596 431.656 125.332 431.84 124.996C432.024 124.652 432.116 124.26 432.116 123.82C432.116 123.38 432.024 122.992 431.84 122.656C431.656 122.312 431.4 122.048 431.072 121.864C430.744 121.68 430.38 121.588 429.98 121.588C429.572 121.588 429.204 121.68 428.876 121.864C428.556 122.048 428.3 122.312 428.108 122.656C427.924 122.992 427.832 123.38 427.832 123.82C427.832 124.26 427.924 124.652 428.108 124.996C428.3 125.332 428.556 125.596 428.876 125.788C429.204 125.972 429.572 126.064 429.98 126.064ZM441.184 123.856C441.184 123.944 441.176 124.06 441.16 124.204H436C436.072 124.764 436.316 125.216 436.732 125.56C437.156 125.896 437.68 126.064 438.304 126.064C439.064 126.064 439.676 125.808 440.14 125.296L440.776 126.04C440.488 126.376 440.128 126.632 439.696 126.808C439.272 126.984 438.796 127.072 438.268 127.072C437.596 127.072 437 126.936 436.48 126.664C435.96 126.384 435.556 125.996 435.268 125.5C434.988 125.004 434.848 124.444 434.848 123.82C434.848 123.204 434.984 122.648 435.256 122.152C435.536 121.656 435.916 121.272 436.396 121C436.884 120.72 437.432 120.58 438.04 120.58C438.648 120.58 439.188 120.72 439.66 121C440.14 121.272 440.512 121.656 440.776 122.152C441.048 122.648 441.184 123.216 441.184 123.856ZM438.04 121.552C437.488 121.552 437.024 121.72 436.648 122.056C436.28 122.392 436.064 122.832 436 123.376H440.08C440.016 122.84 439.796 122.404 439.42 122.068C439.052 121.724 438.592 121.552 438.04 121.552ZM403.356 149.956V151H397.26V142.6H403.188V143.644H398.46V146.224H402.672V147.244H398.46V149.956H403.356ZM409.046 151L407.21 148.564L405.35 151H404.066L406.574 147.748L404.186 144.64H405.47L407.222 146.932L408.962 144.64H410.222L407.822 147.748L410.354 151H409.046ZM414.173 151.072C413.525 151.072 412.945 150.932 412.433 150.652C411.929 150.372 411.533 149.988 411.245 149.5C410.957 149.004 410.813 148.444 410.813 147.82C410.813 147.196 410.957 146.64 411.245 146.152C411.533 145.656 411.929 145.272 412.433 145C412.945 144.72 413.525 144.58 414.173 144.58C414.749 144.58 415.261 144.696 415.709 144.928C416.165 145.16 416.517 145.496 416.765 145.936L415.889 146.5C415.689 146.196 415.441 145.968 415.145 145.816C414.849 145.664 414.521 145.588 414.161 145.588C413.745 145.588 413.369 145.68 413.033 145.864C412.705 146.048 412.445 146.312 412.253 146.656C412.069 146.992 411.977 147.38 411.977 147.82C411.977 148.268 412.069 148.664 412.253 149.008C412.445 149.344 412.705 149.604 413.033 149.788C413.369 149.972 413.745 150.064 414.161 150.064C414.521 150.064 414.849 149.988 415.145 149.836C415.441 149.684 415.689 149.456 415.889 149.152L416.765 149.704C416.517 150.144 416.165 150.484 415.709 150.724C415.261 150.956 414.749 151.072 414.173 151.072ZM418.174 142.096H419.326V151H418.174V142.096ZM427.454 144.64V151H426.362V150.04C426.13 150.368 425.822 150.624 425.438 150.808C425.062 150.984 424.65 151.072 424.202 151.072C423.354 151.072 422.686 150.84 422.198 150.376C421.71 149.904 421.466 149.212 421.466 148.3V144.64H422.618V148.168C422.618 148.784 422.766 149.252 423.062 149.572C423.358 149.884 423.782 150.04 424.334 150.04C424.942 150.04 425.422 149.856 425.774 149.488C426.126 149.12 426.302 148.6 426.302 147.928V144.64H427.454ZM435.647 142.096V151H434.543V149.992C434.287 150.344 433.963 150.612 433.571 150.796C433.179 150.98 432.747 151.072 432.275 151.072C431.659 151.072 431.107 150.936 430.619 150.664C430.131 150.392 429.747 150.012 429.467 149.524C429.195 149.028 429.059 148.46 429.059 147.82C429.059 147.18 429.195 146.616 429.467 146.128C429.747 145.64 430.131 145.26 430.619 144.988C431.107 144.716 431.659 144.58 432.275 144.58C432.731 144.58 433.151 144.668 433.535 144.844C433.919 145.012 434.239 145.264 434.495 145.6V142.096H435.647ZM432.371 150.064C432.771 150.064 433.135 149.972 433.463 149.788C433.791 149.596 434.047 149.332 434.231 148.996C434.415 148.652 434.507 148.26 434.507 147.82C434.507 147.38 434.415 146.992 434.231 146.656C434.047 146.312 433.791 146.048 433.463 145.864C433.135 145.68 432.771 145.588 432.371 145.588C431.963 145.588 431.595 145.68 431.267 145.864C430.947 146.048 430.691 146.312 430.499 146.656C430.315 146.992 430.223 147.38 430.223 147.82C430.223 148.26 430.315 148.652 430.499 148.996C430.691 149.332 430.947 149.596 431.267 149.788C431.595 149.972 431.963 150.064 432.371 150.064ZM443.574 147.856C443.574 147.944 443.566 148.06 443.55 148.204H438.39C438.462 148.764 438.706 149.216 439.122 149.56C439.546 149.896 440.07 150.064 440.694 150.064C441.454 150.064 442.066 149.808 442.53 149.296L443.166 150.04C442.878 150.376 442.518 150.632 442.086 150.808C441.662 150.984 441.186 151.072 440.658 151.072C439.986 151.072 439.39 150.936 438.87 150.664C438.35 150.384 437.946 149.996 437.658 149.5C437.378 149.004 437.238 148.444 437.238 147.82C437.238 147.204 437.374 146.648 437.646 146.152C437.926 145.656 438.306 145.272 438.786 145C439.274 144.72 439.822 144.58 440.43 144.58C441.038 144.58 441.578 144.72 442.05 145C442.53 145.272 442.902 145.656 443.166 146.152C443.438 146.648 443.574 147.216 443.574 147.856ZM440.43 145.552C439.878 145.552 439.414 145.72 439.038 146.056C438.67 146.392 438.454 146.832 438.39 147.376H442.47C442.406 146.84 442.186 146.404 441.81 146.068C441.442 145.724 440.982 145.552 440.43 145.552Z" fill="#465361"/>
</g>
<rect id="bg_3" x="380.25" y="79.25" width="109.5" height="31.5" rx="4.75" fill="#F9FAFD" stroke="#E5EAEF" stroke-width="0.5"/>
<g id="select control">
<path id="Polygon 1" d="M471 100L468 96L474 96L471 100Z" fill="#465361"/>
<path id="Polygon 2" d="M471 90L474 94H468L471 90Z" fill="#465361"/>
</g>
<path id="Exclude" d="M403.356 97.956V99H397.26V90.6H403.188V91.644H398.46V94.224H402.672V95.244H398.46V97.956H403.356ZM409.046 99L407.21 96.564L405.35 99H404.066L406.574 95.748L404.186 92.64H405.47L407.222 94.932L408.962 92.64H410.222L407.822 95.748L410.354 99H409.046ZM414.173 99.072C413.525 99.072 412.945 98.932 412.433 98.652C411.929 98.372 411.533 97.988 411.245 97.5C410.957 97.004 410.813 96.444 410.813 95.82C410.813 95.196 410.957 94.64 411.245 94.152C411.533 93.656 411.929 93.272 412.433 93C412.945 92.72 413.525 92.58 414.173 92.58C414.749 92.58 415.261 92.696 415.709 92.928C416.165 93.16 416.517 93.496 416.765 93.936L415.889 94.5C415.689 94.196 415.441 93.968 415.145 93.816C414.849 93.664 414.521 93.588 414.161 93.588C413.745 93.588 413.369 93.68 413.033 93.864C412.705 94.048 412.445 94.312 412.253 94.656C412.069 94.992 411.977 95.38 411.977 95.82C411.977 96.268 412.069 96.664 412.253 97.008C412.445 97.344 412.705 97.604 413.033 97.788C413.369 97.972 413.745 98.064 414.161 98.064C414.521 98.064 414.849 97.988 415.145 97.836C415.441 97.684 415.689 97.456 415.889 97.152L416.765 97.704C416.517 98.144 416.165 98.484 415.709 98.724C415.261 98.956 414.749 99.072 414.173 99.072ZM418.174 90.096H419.326V99H418.174V90.096ZM427.454 92.64V99H426.362V98.04C426.13 98.368 425.822 98.624 425.438 98.808C425.062 98.984 424.65 99.072 424.202 99.072C423.354 99.072 422.686 98.84 422.198 98.376C421.71 97.904 421.466 97.212 421.466 96.3V92.64H422.618V96.168C422.618 96.784 422.766 97.252 423.062 97.572C423.358 97.884 423.782 98.04 424.334 98.04C424.942 98.04 425.422 97.856 425.774 97.488C426.126 97.12 426.302 96.6 426.302 95.928V92.64H427.454ZM435.647 90.096V99H434.543V97.992C434.287 98.344 433.963 98.612 433.571 98.796C433.179 98.98 432.747 99.072 432.275 99.072C431.659 99.072 431.107 98.936 430.619 98.664C430.131 98.392 429.747 98.012 429.467 97.524C429.195 97.028 429.059 96.46 429.059 95.82C429.059 95.18 429.195 94.616 429.467 94.128C429.747 93.64 430.131 93.26 430.619 92.988C431.107 92.716 431.659 92.58 432.275 92.58C432.731 92.58 433.151 92.668 433.535 92.844C433.919 93.012 434.239 93.264 434.495 93.6V90.096H435.647ZM432.371 98.064C432.771 98.064 433.135 97.972 433.463 97.788C433.791 97.596 434.047 97.332 434.231 96.996C434.415 96.652 434.507 96.26 434.507 95.82C434.507 95.38 434.415 94.992 434.231 94.656C434.047 94.312 433.791 94.048 433.463 93.864C433.135 93.68 432.771 93.588 432.371 93.588C431.963 93.588 431.595 93.68 431.267 93.864C430.947 94.048 430.691 94.312 430.499 94.656C430.315 94.992 430.223 95.38 430.223 95.82C430.223 96.26 430.315 96.652 430.499 96.996C430.691 97.332 430.947 97.596 431.267 97.788C431.595 97.972 431.963 98.064 432.371 98.064ZM443.574 95.856C443.574 95.944 443.566 96.06 443.55 96.204H438.39C438.462 96.764 438.706 97.216 439.122 97.56C439.546 97.896 440.07 98.064 440.694 98.064C441.454 98.064 442.066 97.808 442.53 97.296L443.166 98.04C442.878 98.376 442.518 98.632 442.086 98.808C441.662 98.984 441.186 99.072 440.658 99.072C439.986 99.072 439.39 98.936 438.87 98.664C438.35 98.384 437.946 97.996 437.658 97.5C437.378 97.004 437.238 96.444 437.238 95.82C437.238 95.204 437.374 94.648 437.646 94.152C437.926 93.656 438.306 93.272 438.786 93C439.274 92.72 439.822 92.58 440.43 92.58C441.038 92.58 441.578 92.72 442.05 93C442.53 93.272 442.902 93.656 443.166 94.152C443.438 94.648 443.574 95.216 443.574 95.856ZM440.43 93.552C439.878 93.552 439.414 93.72 439.038 94.056C438.67 94.392 438.454 94.832 438.39 95.376H442.47C442.406 94.84 442.186 94.404 441.81 94.068C441.442 93.724 440.982 93.552 440.43 93.552Z" fill="#465361"/>
</g>
</g>
</g>
<g id="top">
<path id="top bg" d="M1 11C1 5.47715 5.47715 1 11 1H511C516.523 1 521 5.47715 521 11V39H1V11Z" fill="#F6F8FB"/>
<g id="tabs">
<g id="Group 2153">
<g id="Group 2153_2">
<path id="Rectangle 478" d="M42.7458 22.0506C44.2341 17.544 48.445 14.5 53.191 14.5H120.106C124.852 14.5 129.063 17.5439 130.551 22.0506L136.148 39H37.1484L42.7458 22.0506Z" fill="#E5EAEF"/>
<path id="Feed Config" d="M51.6944 23.644V26.572H55.9064V27.604H51.6944V31H50.4944V22.6H56.4224V23.644H51.6944ZM63.4923 27.856C63.4923 27.944 63.4843 28.06 63.4683 28.204H58.3083C58.3803 28.764 58.6243 29.216 59.0403 29.56C59.4643 29.896 59.9883 30.064 60.6123 30.064C61.3723 30.064 61.9843 29.808 62.4483 29.296L63.0843 30.04C62.7963 30.376 62.4363 30.632 62.0043 30.808C61.5803 30.984 61.1043 31.072 60.5763 31.072C59.9043 31.072 59.3083 30.936 58.7883 30.664C58.2683 30.384 57.8643 29.996 57.5763 29.5C57.2963 29.004 57.1563 28.444 57.1563 27.82C57.1563 27.204 57.2923 26.648 57.5643 26.152C57.8443 25.656 58.2243 25.272 58.7043 25C59.1923 24.72 59.7403 24.58 60.3483 24.58C60.9563 24.58 61.4963 24.72 61.9683 25C62.4483 25.272 62.8203 25.656 63.0843 26.152C63.3563 26.648 63.4923 27.216 63.4923 27.856ZM60.3483 25.552C59.7963 25.552 59.3323 25.72 58.9563 26.056C58.5883 26.392 58.3723 26.832 58.3083 27.376H62.3883C62.3243 26.84 62.1043 26.404 61.7283 26.068C61.3603 25.724 60.9003 25.552 60.3483 25.552ZM70.84 27.856C70.84 27.944 70.832 28.06 70.816 28.204H65.656C65.728 28.764 65.972 29.216 66.388 29.56C66.812 29.896 67.336 30.064 67.96 30.064C68.72 30.064 69.332 29.808 69.796 29.296L70.432 30.04C70.144 30.376 69.784 30.632 69.352 30.808C68.928 30.984 68.452 31.072 67.924 31.072C67.252 31.072 66.656 30.936 66.136 30.664C65.616 30.384 65.212 29.996 64.924 29.5C64.644 29.004 64.504 28.444 64.504 27.82C64.504 27.204 64.64 26.648 64.912 26.152C65.192 25.656 65.572 25.272 66.052 25C66.54 24.72 67.088 24.58 67.696 24.58C68.304 24.58 68.844 24.72 69.316 25C69.796 25.272 70.168 25.656 70.432 26.152C70.704 26.648 70.84 27.216 70.84 27.856ZM67.696 25.552C67.144 25.552 66.68 25.72 66.304 26.056C65.936 26.392 65.72 26.832 65.656 27.376H69.736C69.672 26.84 69.452 26.404 69.076 26.068C68.708 25.724 68.248 25.552 67.696 25.552ZM78.4397 22.096V31H77.3357V29.992C77.0797 30.344 76.7557 30.612 76.3637 30.796C75.9717 30.98 75.5397 31.072 75.0677 31.072C74.4517 31.072 73.8997 30.936 73.4117 30.664C72.9237 30.392 72.5397 30.012 72.2597 29.524C71.9877 29.028 71.8517 28.46 71.8517 27.82C71.8517 27.18 71.9877 26.616 72.2597 26.128C72.5397 25.64 72.9237 25.26 73.4117 24.988C73.8997 24.716 74.4517 24.58 75.0677 24.58C75.5237 24.58 75.9437 24.668 76.3277 24.844C76.7117 25.012 77.0317 25.264 77.2877 25.6V22.096H78.4397ZM75.1637 30.064C75.5637 30.064 75.9277 29.972 76.2557 29.788C76.5837 29.596 76.8397 29.332 77.0237 28.996C77.2077 28.652 77.2997 28.26 77.2997 27.82C77.2997 27.38 77.2077 26.992 77.0237 26.656C76.8397 26.312 76.5837 26.048 76.2557 25.864C75.9277 25.68 75.5637 25.588 75.1637 25.588C74.7557 25.588 74.3877 25.68 74.0597 25.864C73.7397 26.048 73.4837 26.312 73.2917 26.656C73.1077 26.992 73.0157 27.38 73.0157 27.82C73.0157 28.26 73.1077 28.652 73.2917 28.996C73.4837 29.332 73.7397 29.596 74.0597 29.788C74.3877 29.972 74.7557 30.064 75.1637 30.064ZM87.766 31.096C86.926 31.096 86.166 30.912 85.486 30.544C84.814 30.168 84.286 29.656 83.902 29.008C83.518 28.352 83.326 27.616 83.326 26.8C83.326 25.984 83.518 25.252 83.902 24.604C84.286 23.948 84.818 23.436 85.498 23.068C86.178 22.692 86.938 22.504 87.778 22.504C88.434 22.504 89.034 22.616 89.578 22.84C90.122 23.056 90.586 23.38 90.97 23.812L90.19 24.568C89.558 23.904 88.77 23.572 87.826 23.572C87.202 23.572 86.638 23.712 86.134 23.992C85.63 24.272 85.234 24.66 84.946 25.156C84.666 25.644 84.526 26.192 84.526 26.8C84.526 27.408 84.666 27.96 84.946 28.456C85.234 28.944 85.63 29.328 86.134 29.608C86.638 29.888 87.202 30.028 87.826 30.028C88.762 30.028 89.55 29.692 90.19 29.02L90.97 29.776C90.586 30.208 90.118 30.536 89.566 30.76C89.022 30.984 88.422 31.096 87.766 31.096ZM94.9683 31.072C94.3363 31.072 93.7683 30.932 93.2643 30.652C92.7603 30.372 92.3643 29.988 92.0763 29.5C91.7963 29.004 91.6563 28.444 91.6563 27.82C91.6563 27.196 91.7963 26.64 92.0763 26.152C92.3643 25.656 92.7603 25.272 93.2643 25C93.7683 24.72 94.3363 24.58 94.9683 24.58C95.6003 24.58 96.1643 24.72 96.6603 25C97.1643 25.272 97.5563 25.656 97.8363 26.152C98.1243 26.64 98.2683 27.196 98.2683 27.82C98.2683 28.444 98.1243 29.004 97.8363 29.5C97.5563 29.988 97.1643 30.372 96.6603 30.652C96.1643 30.932 95.6003 31.072 94.9683 31.072ZM94.9683 30.064C95.3763 30.064 95.7403 29.972 96.0603 29.788C96.3883 29.596 96.6443 29.332 96.8283 28.996C97.0123 28.652 97.1043 28.26 97.1043 27.82C97.1043 27.38 97.0123 26.992 96.8283 26.656C96.6443 26.312 96.3883 26.048 96.0603 25.864C95.7403 25.68 95.3763 25.588 94.9683 25.588C94.5603 25.588 94.1923 25.68 93.8643 25.864C93.5443 26.048 93.2883 26.312 93.0963 26.656C92.9123 26.992 92.8203 27.38 92.8203 27.82C92.8203 28.26 92.9123 28.652 93.0963 28.996C93.2883 29.332 93.5443 29.596 93.8643 29.788C94.1923 29.972 94.5603 30.064 94.9683 30.064ZM103.258 24.58C104.066 24.58 104.706 24.816 105.178 25.288C105.658 25.752 105.898 26.436 105.898 27.34V31H104.746V27.472C104.746 26.856 104.598 26.392 104.302 26.08C104.006 25.768 103.582 25.612 103.03 25.612C102.406 25.612 101.914 25.796 101.554 26.164C101.194 26.524 101.014 27.044 101.014 27.724V31H99.8615V24.64H100.966V25.6C101.198 25.272 101.51 25.02 101.902 24.844C102.302 24.668 102.754 24.58 103.258 24.58ZM110.358 22.972C109.67 22.972 109.326 23.344 109.326 24.088V24.64H111.174V25.588H109.35V31H108.198V25.588H107.118V24.64H108.198V24.076C108.198 23.444 108.382 22.944 108.75 22.576C109.118 22.208 109.634 22.024 110.298 22.024C110.554 22.024 110.794 22.056 111.018 22.12C111.242 22.184 111.434 22.276 111.594 22.396L111.246 23.272C110.982 23.072 110.686 22.972 110.358 22.972ZM113.226 24.64H114.378V31H113.226V24.64ZM113.802 23.416C113.578 23.416 113.39 23.344 113.238 23.2C113.094 23.056 113.022 22.88 113.022 22.672C113.022 22.464 113.094 22.288 113.238 22.144C113.39 21.992 113.578 21.916 113.802 21.916C114.026 21.916 114.21 21.988 114.354 22.132C114.506 22.268 114.582 22.44 114.582 22.648C114.582 22.864 114.506 23.048 114.354 23.2C114.21 23.344 114.026 23.416 113.802 23.416ZM122.656 24.64V30.136C122.656 31.248 122.38 32.068 121.828 32.596C121.276 33.132 120.452 33.4 119.356 33.4C118.756 33.4 118.184 33.316 117.64 33.148C117.096 32.988 116.656 32.756 116.32 32.452L116.872 31.564C117.168 31.82 117.532 32.02 117.964 32.164C118.404 32.316 118.856 32.392 119.32 32.392C120.064 32.392 120.612 32.216 120.964 31.864C121.324 31.512 121.504 30.976 121.504 30.256V29.752C121.232 30.08 120.896 30.328 120.496 30.496C120.104 30.656 119.676 30.736 119.212 30.736C118.604 30.736 118.052 30.608 117.556 30.352C117.068 30.088 116.684 29.724 116.404 29.26C116.124 28.788 115.984 28.252 115.984 27.652C115.984 27.052 116.124 26.52 116.404 26.056C116.684 25.584 117.068 25.22 117.556 24.964C118.052 24.708 118.604 24.58 119.212 24.58C119.692 24.58 120.136 24.668 120.544 24.844C120.96 25.02 121.3 25.28 121.564 25.624V24.64H122.656ZM119.344 29.728C119.76 29.728 120.132 29.64 120.46 29.464C120.796 29.288 121.056 29.044 121.24 28.732C121.432 28.412 121.528 28.052 121.528 27.652C121.528 27.036 121.324 26.54 120.916 26.164C120.508 25.78 119.984 25.588 119.344 25.588C118.696 25.588 118.168 25.78 117.76 26.164C117.352 26.54 117.148 27.036 117.148 27.652C117.148 28.052 117.24 28.412 117.424 28.732C117.616 29.044 117.876 29.288 118.204 29.464C118.54 29.64 118.92 29.728 119.344 29.728Z" fill="#465361"/>
</g>
</g>
<g id="Group 2151">
<g id="Group 2153_3">
<path id="Rectangle 478_2" d="M141.746 22.0506C143.234 17.544 147.445 14.5 152.191 14.5H216.106C220.852 14.5 225.063 17.5439 226.551 22.0506L232.148 39H136.148L141.746 22.0506Z" fill="#E5EAEF"/>
<path id="Rectangle 476" d="M142.944 23.4544C144.461 18.997 148.648 16 153.357 16H214.944C219.653 16 223.839 18.997 225.357 23.4544L230.65 39H137.65L142.944 23.4544Z" fill="white"/>
</g>
<path id="Filter" d="M170.917 24.144V27.072H175.129V28.104H170.917V31.5H169.717V23.1H175.645V24.144H170.917ZM177.049 25.14H178.201V31.5H177.049V25.14ZM177.625 23.916C177.401 23.916 177.213 23.844 177.061 23.7C176.917 23.556 176.845 23.38 176.845 23.172C176.845 22.964 176.917 22.788 177.061 22.644C177.213 22.492 177.401 22.416 177.625 22.416C177.849 22.416 178.033 22.488 178.177 22.632C178.329 22.768 178.405 22.94 178.405 23.148C178.405 23.364 178.329 23.548 178.177 23.7C178.033 23.844 177.849 23.916 177.625 23.916ZM180.401 22.596H181.553V31.5H180.401V22.596ZM187.481 31.128C187.313 31.272 187.105 31.384 186.857 31.464C186.609 31.536 186.353 31.572 186.089 31.572C185.449 31.572 184.953 31.4 184.601 31.056C184.249 30.712 184.073 30.22 184.073 29.58V26.088H182.993V25.14H184.073V23.748H185.225V25.14H187.049V26.088H185.225V29.532C185.225 29.876 185.309 30.14 185.477 30.324C185.653 30.508 185.901 30.6 186.221 30.6C186.573 30.6 186.873 30.5 187.121 30.3L187.481 31.128ZM194.41 28.356C194.41 28.444 194.402 28.56 194.386 28.704H189.226C189.298 29.264 189.542 29.716 189.958 30.06C190.382 30.396 190.906 30.564 191.53 30.564C192.29 30.564 192.902 30.308 193.366 29.796L194.002 30.54C193.714 30.876 193.354 31.132 192.922 31.308C192.498 31.484 192.022 31.572 191.494 31.572C190.822 31.572 190.226 31.436 189.706 31.164C189.186 30.884 188.782 30.496 188.494 30C188.214 29.504 188.074 28.944 188.074 28.32C188.074 27.704 188.21 27.148 188.482 26.652C188.762 26.156 189.142 25.772 189.622 25.5C190.11 25.22 190.658 25.08 191.266 25.08C191.874 25.08 192.414 25.22 192.886 25.5C193.366 25.772 193.738 26.156 194.002 26.652C194.274 27.148 194.41 27.716 194.41 28.356ZM191.266 26.052C190.714 26.052 190.25 26.22 189.874 26.556C189.506 26.892 189.29 27.332 189.226 27.876H193.306C193.242 27.34 193.022 26.904 192.646 26.568C192.278 26.224 191.818 26.052 191.266 26.052ZM197.114 26.208C197.314 25.84 197.61 25.56 198.002 25.368C198.394 25.176 198.87 25.08 199.43 25.08V26.196C199.366 26.188 199.278 26.184 199.166 26.184C198.542 26.184 198.05 26.372 197.69 26.748C197.338 27.116 197.162 27.644 197.162 28.332V31.5H196.01V25.14H197.114V26.208Z" fill="#465361"/>
</g>
<g id="Group 2154">
<g id="Group 2153_4">
<path id="Rectangle 478_3" d="M237.597 22.0506C239.086 17.544 243.297 14.5 248.043 14.5H335.957C340.703 14.5 344.914 17.5439 346.403 22.0506L352 39H232L237.597 22.0506Z" fill="#E5EAEF"/>
<path id="Advanced Filter" d="M250.622 28.9H246.158L245.234 31H243.998L247.802 22.6H248.99L252.806 31H251.546L250.622 28.9ZM250.202 27.94L248.39 23.824L246.578 27.94H250.202ZM259.832 22.096V31H258.728V29.992C258.472 30.344 258.148 30.612 257.756 30.796C257.364 30.98 256.932 31.072 256.46 31.072C255.844 31.072 255.292 30.936 254.804 30.664C254.316 30.392 253.932 30.012 253.652 29.524C253.38 29.028 253.244 28.46 253.244 27.82C253.244 27.18 253.38 26.616 253.652 26.128C253.932 25.64 254.316 25.26 254.804 24.988C255.292 24.716 255.844 24.58 256.46 24.58C256.916 24.58 257.336 24.668 257.72 24.844C258.104 25.012 258.424 25.264 258.68 25.6V22.096H259.832ZM256.556 30.064C256.956 30.064 257.32 29.972 257.648 29.788C257.976 29.596 258.232 29.332 258.416 28.996C258.6 28.652 258.692 28.26 258.692 27.82C258.692 27.38 258.6 26.992 258.416 26.656C258.232 26.312 257.976 26.048 257.648 25.864C257.32 25.68 256.956 25.588 256.556 25.588C256.148 25.588 255.78 25.68 255.452 25.864C255.132 26.048 254.876 26.312 254.684 26.656C254.5 26.992 254.408 27.38 254.408 27.82C254.408 28.26 254.5 28.652 254.684 28.996C254.876 29.332 255.132 29.596 255.452 29.788C255.78 29.972 256.148 30.064 256.556 30.064ZM267.64 24.64L264.856 31H263.68L260.896 24.64H262.096L264.28 29.74L266.512 24.64H267.64ZM270.832 24.58C271.712 24.58 272.384 24.796 272.848 25.228C273.32 25.66 273.556 26.304 273.556 27.16V31H272.464V30.16C272.272 30.456 271.996 30.684 271.636 30.844C271.284 30.996 270.864 31.072 270.376 31.072C269.664 31.072 269.092 30.9 268.66 30.556C268.236 30.212 268.024 29.76 268.024 29.2C268.024 28.64 268.228 28.192 268.636 27.856C269.044 27.512 269.692 27.34 270.58 27.34H272.404V27.112C272.404 26.616 272.26 26.236 271.972 25.972C271.684 25.708 271.26 25.576 270.7 25.576C270.324 25.576 269.956 25.64 269.596 25.768C269.236 25.888 268.932 26.052 268.684 26.26L268.204 25.396C268.532 25.132 268.924 24.932 269.38 24.796C269.836 24.652 270.32 24.58 270.832 24.58ZM270.568 30.184C271.008 30.184 271.388 30.088 271.708 29.896C272.028 29.696 272.26 29.416 272.404 29.056V28.168H270.628C269.652 28.168 269.164 28.496 269.164 29.152C269.164 29.472 269.288 29.724 269.536 29.908C269.784 30.092 270.128 30.184 270.568 30.184ZM279.084 24.58C279.892 24.58 280.532 24.816 281.004 25.288C281.484 25.752 281.724 26.436 281.724 27.34V31H280.572V27.472C280.572 26.856 280.424 26.392 280.128 26.08C279.832 25.768 279.408 25.612 278.856 25.612C278.232 25.612 277.74 25.796 277.38 26.164C277.02 26.524 276.84 27.044 276.84 27.724V31H275.688V24.64H276.792V25.6C277.024 25.272 277.336 25.02 277.728 24.844C278.128 24.668 278.58 24.58 279.084 24.58ZM286.663 31.072C286.015 31.072 285.435 30.932 284.923 30.652C284.419 30.372 284.023 29.988 283.735 29.5C283.447 29.004 283.303 28.444 283.303 27.82C283.303 27.196 283.447 26.64 283.735 26.152C284.023 25.656 284.419 25.272 284.923 25C285.435 24.72 286.015 24.58 286.663 24.58C287.239 24.58 287.751 24.696 288.199 24.928C288.655 25.16 289.007 25.496 289.255 25.936L288.379 26.5C288.179 26.196 287.931 25.968 287.635 25.816C287.339 25.664 287.011 25.588 286.651 25.588C286.235 25.588 285.859 25.68 285.523 25.864C285.195 26.048 284.935 26.312 284.743 26.656C284.559 26.992 284.467 27.38 284.467 27.82C284.467 28.268 284.559 28.664 284.743 29.008C284.935 29.344 285.195 29.604 285.523 29.788C285.859 29.972 286.235 30.064 286.651 30.064C287.011 30.064 287.339 29.988 287.635 29.836C287.931 29.684 288.179 29.456 288.379 29.152L289.255 29.704C289.007 30.144 288.655 30.484 288.199 30.724C287.751 30.956 287.239 31.072 286.663 31.072ZM296.401 27.856C296.401 27.944 296.393 28.06 296.377 28.204H291.217C291.289 28.764 291.533 29.216 291.949 29.56C292.373 29.896 292.897 30.064 293.521 30.064C294.281 30.064 294.893 29.808 295.357 29.296L295.993 30.04C295.705 30.376 295.345 30.632 294.913 30.808C294.489 30.984 294.013 31.072 293.485 31.072C292.813 31.072 292.217 30.936 291.697 30.664C291.177 30.384 290.773 29.996 290.485 29.5C290.205 29.004 290.065 28.444 290.065 27.82C290.065 27.204 290.201 26.648 290.473 26.152C290.753 25.656 291.133 25.272 291.613 25C292.101 24.72 292.649 24.58 293.257 24.58C293.865 24.58 294.405 24.72 294.877 25C295.357 25.272 295.729 25.656 295.993 26.152C296.265 26.648 296.401 27.216 296.401 27.856ZM293.257 25.552C292.705 25.552 292.241 25.72 291.865 26.056C291.497 26.392 291.281 26.832 291.217 27.376H295.297C295.233 26.84 295.013 26.404 294.637 26.068C294.269 25.724 293.809 25.552 293.257 25.552ZM304 22.096V31H302.896V29.992C302.64 30.344 302.316 30.612 301.924 30.796C301.532 30.98 301.1 31.072 300.628 31.072C300.012 31.072 299.46 30.936 298.972 30.664C298.484 30.392 298.1 30.012 297.82 29.524C297.548 29.028 297.412 28.46 297.412 27.82C297.412 27.18 297.548 26.616 297.82 26.128C298.1 25.64 298.484 25.26 298.972 24.988C299.46 24.716 300.012 24.58 300.628 24.58C301.084 24.58 301.504 24.668 301.888 24.844C302.272 25.012 302.592 25.264 302.848 25.6V22.096H304ZM300.724 30.064C301.124 30.064 301.488 29.972 301.816 29.788C302.144 29.596 302.4 29.332 302.584 28.996C302.768 28.652 302.86 28.26 302.86 27.82C302.86 27.38 302.768 26.992 302.584 26.656C302.4 26.312 302.144 26.048 301.816 25.864C301.488 25.68 301.124 25.588 300.724 25.588C300.316 25.588 299.948 25.68 299.62 25.864C299.3 26.048 299.044 26.312 298.852 26.656C298.668 26.992 298.576 27.38 298.576 27.82C298.576 28.26 298.668 28.652 298.852 28.996C299.044 29.332 299.3 29.596 299.62 29.788C299.948 29.972 300.316 30.064 300.724 30.064ZM310.771 23.644V26.572H314.983V27.604H310.771V31H309.571V22.6H315.499V23.644H310.771ZM316.903 24.64H318.055V31H316.903V24.64ZM317.479 23.416C317.255 23.416 317.067 23.344 316.915 23.2C316.771 23.056 316.699 22.88 316.699 22.672C316.699 22.464 316.771 22.288 316.915 22.144C317.067 21.992 317.255 21.916 317.479 21.916C317.703 21.916 317.887 21.988 318.031 22.132C318.183 22.268 318.259 22.44 318.259 22.648C318.259 22.864 318.183 23.048 318.031 23.2C317.887 23.344 317.703 23.416 317.479 23.416ZM320.254 22.096H321.406V31H320.254V22.096ZM327.334 30.628C327.166 30.772 326.958 30.884 326.71 30.964C326.462 31.036 326.206 31.072 325.942 31.072C325.302 31.072 324.806 30.9 324.454 30.556C324.102 30.212 323.926 29.72 323.926 29.08V25.588H322.846V24.64H323.926V23.248H325.078V24.64H326.902V25.588H325.078V29.032C325.078 29.376 325.162 29.64 325.33 29.824C325.506 30.008 325.754 30.1 326.074 30.1C326.426 30.1 326.726 30 326.974 29.8L327.334 30.628ZM334.264 27.856C334.264 27.944 334.256 28.06 334.24 28.204H329.08C329.152 28.764 329.396 29.216 329.812 29.56C330.236 29.896 330.76 30.064 331.384 30.064C332.144 30.064 332.756 29.808 333.22 29.296L333.856 30.04C333.568 30.376 333.208 30.632 332.776 30.808C332.352 30.984 331.876 31.072 331.348 31.072C330.676 31.072 330.08 30.936 329.56 30.664C329.04 30.384 328.636 29.996 328.348 29.5C328.068 29.004 327.928 28.444 327.928 27.82C327.928 27.204 328.064 26.648 328.336 26.152C328.616 25.656 328.996 25.272 329.476 25C329.964 24.72 330.512 24.58 331.12 24.58C331.728 24.58 332.268 24.72 332.74 25C333.22 25.272 333.592 25.656 333.856 26.152C334.128 26.648 334.264 27.216 334.264 27.856ZM331.12 25.552C330.568 25.552 330.104 25.72 329.728 26.056C329.36 26.392 329.144 26.832 329.08 27.376H333.16C333.096 26.84 332.876 26.404 332.5 26.068C332.132 25.724 331.672 25.552 331.12 25.552ZM336.967 25.708C337.167 25.34 337.463 25.06 337.855 24.868C338.247 24.676 338.723 24.58 339.283 24.58V25.696C339.219 25.688 339.131 25.684 339.019 25.684C338.395 25.684 337.903 25.872 337.543 26.248C337.191 26.616 337.015 27.144 337.015 27.832V31H335.863V24.64H336.967V25.708Z" fill="#465361"/>
</g>
</g>
<g id="Group 2155">
<g id="Group 2153_5">
<path id="Rectangle 478_4" d="M357.597 22.0506C359.086 17.544 363.297 14.5 368.043 14.5H419.957C424.703 14.5 428.914 17.5439 430.403 22.0506L436 39H352L357.597 22.0506Z" fill="#E5EAEF"/>
<path id="FTP/SFTP" d="M371.388 24.87V27.31H374.898V28.17H371.388V31H370.388V24H375.328V24.87H371.388ZM378.174 24.87H375.774V24H381.564V24.87H379.164V31H378.174V24.87ZM385.384 24C386.29 24 387.004 24.2167 387.524 24.65C388.044 25.0833 388.304 25.68 388.304 26.44C388.304 27.2 388.044 27.7967 387.524 28.23C387.004 28.6633 386.29 28.88 385.384 28.88H383.654V31H382.654V24H385.384ZM385.354 28.01C385.987 28.01 386.47 27.8767 386.804 27.61C387.137 27.3367 387.304 26.9467 387.304 26.44C387.304 25.9333 387.137 25.5467 386.804 25.28C386.47 25.0067 385.987 24.87 385.354 24.87H383.654V28.01H385.354ZM391.372 22.58H392.242L388.942 32H388.072L391.372 22.58ZM394.762 31.08C394.235 31.08 393.725 31 393.232 30.84C392.745 30.6733 392.362 30.46 392.082 30.2L392.452 29.42C392.719 29.66 393.059 29.8567 393.472 30.01C393.892 30.1567 394.322 30.23 394.762 30.23C395.342 30.23 395.775 30.1333 396.062 29.94C396.349 29.74 396.492 29.4767 396.492 29.15C396.492 28.91 396.412 28.7167 396.252 28.57C396.099 28.4167 395.905 28.3 395.672 28.22C395.445 28.14 395.122 28.05 394.702 27.95C394.175 27.8233 393.749 27.6967 393.422 27.57C393.102 27.4433 392.825 27.25 392.592 26.99C392.365 26.7233 392.252 26.3667 392.252 25.92C392.252 25.5467 392.349 25.21 392.542 24.91C392.742 24.61 393.042 24.37 393.442 24.19C393.842 24.01 394.339 23.92 394.932 23.92C395.345 23.92 395.752 23.9733 396.152 24.08C396.552 24.1867 396.895 24.34 397.182 24.54L396.852 25.34C396.559 25.1533 396.245 25.0133 395.912 24.92C395.579 24.82 395.252 24.77 394.932 24.77C394.365 24.77 393.939 24.8733 393.652 25.08C393.372 25.2867 393.232 25.5533 393.232 25.88C393.232 26.12 393.312 26.3167 393.472 26.47C393.632 26.6167 393.829 26.7333 394.062 26.82C394.302 26.9 394.625 26.9867 395.032 27.08C395.559 27.2067 395.982 27.3333 396.302 27.46C396.622 27.5867 396.895 27.78 397.122 28.04C397.355 28.3 397.472 28.65 397.472 29.09C397.472 29.4567 397.372 29.7933 397.172 30.1C396.972 30.4 396.669 30.64 396.262 30.82C395.855 30.9933 395.355 31.08 394.762 31.08ZM399.933 24.87V27.31H403.443V28.17H399.933V31H398.933V24H403.873V24.87H399.933ZM406.719 24.87H404.319V24H410.109V24.87H407.709V31H406.719V24.87ZM413.928 24C414.835 24 415.548 24.2167 416.068 24.65C416.588 25.0833 416.848 25.68 416.848 26.44C416.848 27.2 416.588 27.7967 416.068 28.23C415.548 28.6633 414.835 28.88 413.928 28.88H412.198V31H411.198V24H413.928ZM413.898 28.01C414.532 28.01 415.015 27.8767 415.348 27.61C415.682 27.3367 415.848 26.9467 415.848 26.44C415.848 25.9333 415.682 25.5467 415.348 25.28C415.015 25.0067 414.532 24.87 413.898 24.87H412.198V28.01H413.898Z" fill="#465361"/>
</g>
</g>
</g>
</g>
</g>
</g>
<defs>
<filter id="filter0_d" x="15.002" y="15" width="530" height="210" filterUnits="userSpaceOnUse" color-interpolation-filters="sRGB">
<feFlood flood-opacity="0" result="BackgroundImageFix"/>
<feColorMatrix in="SourceAlpha" type="matrix" values="0 0 0 0 0 0 0 0 0 0 0 0 0 0 0 0 0 0 127 0"/>
<feOffset/>
<feGaussianBlur stdDeviation="2.5"/>
<feColorMatrix type="matrix" values="0 0 0 0 0 0 0 0 0 0.447059 0 0 0 0 0.815686 0 0 0 0.02 0"/>
<feBlend mode="normal" in2="BackgroundImageFix" result="effect1_dropShadow"/>
<feBlend mode="normal" in="SourceGraphic" in2="effect1_dropShadow" result="shape"/>
</filter>
</defs>
</svg>
