<svg width="580" height="346" viewBox="0 0 580 346" fill="none" xmlns="http://www.w3.org/2000/svg">
<g id="Frame 7">
<g id="number format" opacity="0.8">
<g id="Rectangle 512" filter="url(#filter0_d)">
<rect x="50" y="34" width="520" height="287" rx="10" fill="#F6FAFD"/>
</g>
<g id="bg" filter="url(#filter1_d)">
<path d="M30 25C30 19.4772 34.4772 15 40 15H540C545.523 15 550 19.4772 550 25V291C550 296.523 545.523 301 540 301H40C34.4772 301 30 296.523 30 291V25Z" fill="white"/>
</g>
<g id="fields">
<g id="form">
<g id="Group 2149">
<g id="input text">
<rect id="bg_2" x="315.25" y="229.25" width="194.5" height="31.5" rx="4.75" fill="#F9FAFD" stroke="#E5EAEF" stroke-width="0.5"/>
<g id="select control">
<path id="Polygon 1" d="M497 250L494 246L500 246L497 250Z" fill="#465361"/>
<path id="Polygon 2" d="M497 240L500 244H494L497 240Z" fill="#465361"/>
</g>
</g>
<path id="2" d="M336.48 247.956V249H330.444V248.184L333.864 244.884C334.28 244.484 334.56 244.14 334.704 243.852C334.848 243.556 334.92 243.26 334.92 242.964C334.92 242.524 334.764 242.184 334.452 241.944C334.148 241.696 333.708 241.572 333.132 241.572C332.204 241.572 331.488 241.876 330.984 242.484L330.168 241.776C330.496 241.376 330.924 241.064 331.452 240.84C331.988 240.616 332.584 240.504 333.24 240.504C334.12 240.504 334.82 240.716 335.34 241.14C335.86 241.556 336.12 242.124 336.12 242.844C336.12 243.292 336.024 243.716 335.832 244.116C335.64 244.516 335.276 244.972 334.74 245.484L332.172 247.956H336.48Z" fill="#465361"/>
<path id="Number of decimal" d="M77.484 240.6V249H76.5L71.46 242.736V249H70.26V240.6H71.244L76.284 246.864V240.6H77.484ZM85.7583 242.64V249H84.6663V248.04C84.4343 248.368 84.1263 248.624 83.7423 248.808C83.3663 248.984 82.9543 249.072 82.5063 249.072C81.6583 249.072 80.9903 248.84 80.5023 248.376C80.0143 247.904 79.7703 247.212 79.7703 246.3V242.64H80.9223V246.168C80.9223 246.784 81.0703 247.252 81.3663 247.572C81.6623 247.884 82.0863 248.04 82.6383 248.04C83.2463 248.04 83.7263 247.856 84.0783 247.488C84.4303 247.12 84.6063 246.6 84.6063 245.928V242.64H85.7583ZM95.9074 242.58C96.7074 242.58 97.3394 242.812 97.8034 243.276C98.2754 243.74 98.5114 244.428 98.5114 245.34V249H97.3594V245.472C97.3594 244.856 97.2154 244.392 96.9274 244.08C96.6474 243.768 96.2434 243.612 95.7154 243.612C95.1314 243.612 94.6674 243.796 94.3234 244.164C93.9794 244.524 93.8074 245.044 93.8074 245.724V249H92.6554V245.472C92.6554 244.856 92.5114 244.392 92.2234 244.08C91.9434 243.768 91.5394 243.612 91.0114 243.612C90.4274 243.612 89.9634 243.796 89.6194 244.164C89.2754 244.524 89.1034 245.044 89.1034 245.724V249H87.9514V242.64H89.0554V243.588C89.2874 243.26 89.5914 243.012 89.9674 242.844C90.3434 242.668 90.7714 242.58 91.2514 242.58C91.7474 242.58 92.1874 242.68 92.5714 242.88C92.9554 243.08 93.2514 243.372 93.4594 243.756C93.6994 243.388 94.0314 243.1 94.4554 242.892C94.8874 242.684 95.3714 242.58 95.9074 242.58ZM104.003 242.58C104.619 242.58 105.171 242.716 105.659 242.988C106.147 243.26 106.527 243.64 106.799 244.128C107.079 244.616 107.219 245.18 107.219 245.82C107.219 246.46 107.079 247.028 106.799 247.524C106.527 248.012 106.147 248.392 105.659 248.664C105.171 248.936 104.619 249.072 104.003 249.072C103.531 249.072 103.099 248.98 102.707 248.796C102.315 248.612 101.991 248.344 101.735 247.992V249H100.631V240.096H101.783V243.6C102.039 243.264 102.359 243.012 102.743 242.844C103.127 242.668 103.547 242.58 104.003 242.58ZM103.907 248.064C104.315 248.064 104.679 247.972 104.999 247.788C105.327 247.596 105.583 247.332 105.767 246.996C105.959 246.652 106.055 246.26 106.055 245.82C106.055 245.38 105.959 244.992 105.767 244.656C105.583 244.312 105.327 244.048 104.999 243.864C104.679 243.68 104.315 243.588 103.907 243.588C103.507 243.588 103.143 243.68 102.815 243.864C102.487 244.048 102.231 244.312 102.047 244.656C101.863 244.992 101.771 245.38 101.771 245.82C101.771 246.26 101.863 246.652 102.047 246.996C102.231 247.332 102.487 247.596 102.815 247.788C103.143 247.972 103.507 248.064 103.907 248.064ZM114.559 245.856C114.559 245.944 114.551 246.06 114.535 246.204H109.375C109.447 246.764 109.691 247.216 110.107 247.56C110.531 247.896 111.055 248.064 111.679 248.064C112.439 248.064 113.051 247.808 113.515 247.296L114.151 248.04C113.863 248.376 113.503 248.632 113.071 248.808C112.647 248.984 112.171 249.072 111.643 249.072C110.971 249.072 110.375 248.936 109.855 248.664C109.335 248.384 108.931 247.996 108.643 247.5C108.363 247.004 108.223 246.444 108.223 245.82C108.223 245.204 108.359 244.648 108.631 244.152C108.911 243.656 109.291 243.272 109.771 243C110.259 242.72 110.807 242.58 111.415 242.58C112.023 242.58 112.563 242.72 113.035 243C113.515 243.272 113.887 243.656 114.151 244.152C114.423 244.648 114.559 245.216 114.559 245.856ZM111.415 243.552C110.863 243.552 110.399 243.72 110.023 244.056C109.655 244.392 109.439 244.832 109.375 245.376H113.455C113.391 244.84 113.171 244.404 112.795 244.068C112.427 243.724 111.967 243.552 111.415 243.552ZM117.262 243.708C117.462 243.34 117.758 243.06 118.15 242.868C118.542 242.676 119.018 242.58 119.578 242.58V243.696C119.514 243.688 119.426 243.684 119.314 243.684C118.69 243.684 118.198 243.872 117.838 244.248C117.486 244.616 117.31 245.144 117.31 245.832V249H116.158V242.64H117.262V243.708ZM127.027 249.072C126.395 249.072 125.827 248.932 125.323 248.652C124.819 248.372 124.423 247.988 124.135 247.5C123.855 247.004 123.715 246.444 123.715 245.82C123.715 245.196 123.855 244.64 124.135 244.152C124.423 243.656 124.819 243.272 125.323 243C125.827 242.72 126.395 242.58 127.027 242.58C127.659 242.58 128.223 242.72 128.719 243C129.223 243.272 129.615 243.656 129.895 244.152C130.183 244.64 130.327 245.196 130.327 245.82C130.327 246.444 130.183 247.004 129.895 247.5C129.615 247.988 129.223 248.372 128.719 248.652C128.223 248.932 127.659 249.072 127.027 249.072ZM127.027 248.064C127.435 248.064 127.799 247.972 128.119 247.788C128.447 247.596 128.703 247.332 128.887 246.996C129.071 246.652 129.163 246.26 129.163 245.82C129.163 245.38 129.071 244.992 128.887 244.656C128.703 244.312 128.447 244.048 128.119 243.864C127.799 243.68 127.435 243.588 127.027 243.588C126.619 243.588 126.251 243.68 125.923 243.864C125.603 244.048 125.347 244.312 125.155 244.656C124.971 244.992 124.879 245.38 124.879 245.82C124.879 246.26 124.971 246.652 125.155 246.996C125.347 247.332 125.603 247.596 125.923 247.788C126.251 247.972 126.619 248.064 127.027 248.064ZM134.248 240.972C133.56 240.972 133.216 241.344 133.216 242.088V242.64H135.064V243.588H133.24V249H132.088V243.588H131.008V242.64H132.088V242.076C132.088 241.444 132.272 240.944 132.64 240.576C133.008 240.208 133.524 240.024 134.188 240.024C134.444 240.024 134.684 240.056 134.908 240.12C135.132 240.184 135.324 240.276 135.484 240.396L135.136 241.272C134.872 241.072 134.576 240.972 134.248 240.972ZM145.373 240.096V249H144.269V247.992C144.013 248.344 143.689 248.612 143.297 248.796C142.905 248.98 142.473 249.072 142.001 249.072C141.385 249.072 140.833 248.936 140.345 248.664C139.857 248.392 139.473 248.012 139.193 247.524C138.921 247.028 138.785 246.46 138.785 245.82C138.785 245.18 138.921 244.616 139.193 244.128C139.473 243.64 139.857 243.26 140.345 242.988C140.833 242.716 141.385 242.58 142.001 242.58C142.457 242.58 142.877 242.668 143.261 242.844C143.645 243.012 143.965 243.264 144.221 243.6V240.096H145.373ZM142.097 248.064C142.497 248.064 142.861 247.972 143.189 247.788C143.517 247.596 143.773 247.332 143.957 246.996C144.141 246.652 144.233 246.26 144.233 245.82C144.233 245.38 144.141 244.992 143.957 244.656C143.773 244.312 143.517 244.048 143.189 243.864C142.861 243.68 142.497 243.588 142.097 243.588C141.689 243.588 141.321 243.68 140.993 243.864C140.673 244.048 140.417 244.312 140.225 244.656C140.041 244.992 139.949 245.38 139.949 245.82C139.949 246.26 140.041 246.652 140.225 246.996C140.417 247.332 140.673 247.596 140.993 247.788C141.321 247.972 141.689 248.064 142.097 248.064ZM153.301 245.856C153.301 245.944 153.293 246.06 153.277 246.204H148.117C148.189 246.764 148.433 247.216 148.849 247.56C149.273 247.896 149.797 248.064 150.421 248.064C151.181 248.064 151.793 247.808 152.257 247.296L152.893 248.04C152.605 248.376 152.245 248.632 151.813 248.808C151.389 248.984 150.913 249.072 150.385 249.072C149.713 249.072 149.117 248.936 148.597 248.664C148.077 248.384 147.673 247.996 147.385 247.5C147.105 247.004 146.965 246.444 146.965 245.82C146.965 245.204 147.101 244.648 147.373 244.152C147.653 243.656 148.033 243.272 148.513 243C149.001 242.72 149.549 242.58 150.157 242.58C150.765 242.58 151.305 242.72 151.777 243C152.257 243.272 152.629 243.656 152.893 244.152C153.165 244.648 153.301 245.216 153.301 245.856ZM150.157 243.552C149.605 243.552 149.141 243.72 148.765 244.056C148.397 244.392 148.181 244.832 148.117 245.376H152.197C152.133 244.84 151.913 244.404 151.537 244.068C151.169 243.724 150.709 243.552 150.157 243.552ZM157.673 249.072C157.025 249.072 156.445 248.932 155.933 248.652C155.429 248.372 155.033 247.988 154.745 247.5C154.457 247.004 154.313 246.444 154.313 245.82C154.313 245.196 154.457 244.64 154.745 244.152C155.033 243.656 155.429 243.272 155.933 243C156.445 242.72 157.025 242.58 157.673 242.58C158.249 242.58 158.761 242.696 159.209 242.928C159.665 243.16 160.017 243.496 160.265 243.936L159.389 244.5C159.189 244.196 158.941 243.968 158.645 243.816C158.349 243.664 158.021 243.588 157.661 243.588C157.245 243.588 156.869 243.68 156.533 243.864C156.205 244.048 155.945 244.312 155.753 244.656C155.569 244.992 155.477 245.38 155.477 245.82C155.477 246.268 155.569 246.664 155.753 247.008C155.945 247.344 156.205 247.604 156.533 247.788C156.869 247.972 157.245 248.064 157.661 248.064C158.021 248.064 158.349 247.988 158.645 247.836C158.941 247.684 159.189 247.456 159.389 247.152L160.265 247.704C160.017 248.144 159.665 248.484 159.209 248.724C158.761 248.956 158.249 249.072 157.673 249.072ZM161.756 242.64H162.908V249H161.756V242.64ZM162.332 241.416C162.108 241.416 161.92 241.344 161.768 241.2C161.624 241.056 161.552 240.88 161.552 240.672C161.552 240.464 161.624 240.288 161.768 240.144C161.92 239.992 162.108 239.916 162.332 239.916C162.556 239.916 162.74 239.988 162.884 240.132C163.036 240.268 163.112 240.44 163.112 240.648C163.112 240.864 163.036 241.048 162.884 241.2C162.74 241.344 162.556 241.416 162.332 241.416ZM173.064 242.58C173.864 242.58 174.496 242.812 174.96 243.276C175.432 243.74 175.668 244.428 175.668 245.34V249H174.516V245.472C174.516 244.856 174.372 244.392 174.084 244.08C173.804 243.768 173.4 243.612 172.872 243.612C172.288 243.612 171.824 243.796 171.48 244.164C171.136 244.524 170.964 245.044 170.964 245.724V249H169.812V245.472C169.812 244.856 169.668 244.392 169.38 244.08C169.1 243.768 168.696 243.612 168.168 243.612C167.584 243.612 167.12 243.796 166.776 244.164C166.432 244.524 166.26 245.044 166.26 245.724V249H165.108V242.64H166.212V243.588C166.444 243.26 166.748 243.012 167.124 242.844C167.5 242.668 167.928 242.58 168.408 242.58C168.904 242.58 169.344 242.68 169.728 242.88C170.112 243.08 170.408 243.372 170.616 243.756C170.856 243.388 171.188 243.1 171.612 242.892C172.044 242.684 172.528 242.58 173.064 242.58ZM180.103 242.58C180.983 242.58 181.655 242.796 182.119 243.228C182.591 243.66 182.827 244.304 182.827 245.16V249H181.735V248.16C181.543 248.456 181.267 248.684 180.907 248.844C180.555 248.996 180.135 249.072 179.647 249.072C178.935 249.072 178.363 248.9 177.931 248.556C177.507 248.212 177.295 247.76 177.295 247.2C177.295 246.64 177.499 246.192 177.907 245.856C178.315 245.512 178.963 245.34 179.851 245.34H181.675V245.112C181.675 244.616 181.531 244.236 181.243 243.972C180.955 243.708 180.531 243.576 179.971 243.576C179.595 243.576 179.227 243.64 178.867 243.768C178.507 243.888 178.203 244.052 177.955 244.26L177.475 243.396C177.803 243.132 178.195 242.932 178.651 242.796C179.107 242.652 179.591 242.58 180.103 242.58ZM179.839 248.184C180.279 248.184 180.659 248.088 180.979 247.896C181.299 247.696 181.531 247.416 181.675 247.056V246.168H179.899C178.923 246.168 178.435 246.496 178.435 247.152C178.435 247.472 178.559 247.724 178.807 247.908C179.055 248.092 179.399 248.184 179.839 248.184ZM184.959 240.096H186.111V249H184.959V240.096Z" fill="#465361"/>
</g>
</g>
<g id="form_2">
<g id="Group 2199">
<rect id="Rectangle 507" x="70" y="116" width="440" height="2" fill="#E5EAEF"/>
<rect id="Rectangle 508" x="70" y="119" width="440" height="1" fill="#E5EAEF"/>
</g>
<g id="heading">
<g id="input text_2">
<path id="Number Format" d="M78.484 94.7963V103.196H77.5L72.46 96.9323V103.196H71.26V94.7963H72.244L77.284 101.06V94.7963H78.484ZM86.7583 96.8363V103.196H85.6663V102.236C85.4343 102.564 85.1263 102.82 84.7423 103.004C84.3663 103.18 83.9543 103.268 83.5063 103.268C82.6583 103.268 81.9903 103.036 81.5023 102.572C81.0143 102.1 80.7703 101.408 80.7703 100.496V96.8363H81.9223V100.364C81.9223 100.98 82.0703 101.448 82.3663 101.768C82.6623 102.08 83.0863 102.236 83.6383 102.236C84.2463 102.236 84.7263 102.052 85.0783 101.684C85.4303 101.316 85.6063 100.796 85.6063 100.124V96.8363H86.7583ZM96.9074 96.7763C97.7074 96.7763 98.3394 97.0083 98.8034 97.4723C99.2754 97.9363 99.5114 98.6243 99.5114 99.5363V103.196H98.3594V99.6683C98.3594 99.0523 98.2154 98.5883 97.9274 98.2763C97.6474 97.9643 97.2434 97.8083 96.7154 97.8083C96.1314 97.8083 95.6674 97.9923 95.3234 98.3603C94.9794 98.7203 94.8074 99.2403 94.8074 99.9203V103.196H93.6554V99.6683C93.6554 99.0523 93.5114 98.5883 93.2234 98.2763C92.9434 97.9643 92.5394 97.8083 92.0114 97.8083C91.4274 97.8083 90.9634 97.9923 90.6194 98.3603C90.2754 98.7203 90.1034 99.2403 90.1034 99.9203V103.196H88.9514V96.8363H90.0554V97.7843C90.2874 97.4563 90.5914 97.2083 90.9674 97.0403C91.3434 96.8643 91.7714 96.7763 92.2514 96.7763C92.7474 96.7763 93.1874 96.8763 93.5714 97.0763C93.9554 97.2763 94.2514 97.5683 94.4594 97.9523C94.6994 97.5843 95.0314 97.2963 95.4554 97.0883C95.8874 96.8803 96.3714 96.7763 96.9074 96.7763ZM105.003 96.7763C105.619 96.7763 106.171 96.9123 106.659 97.1843C107.147 97.4563 107.527 97.8363 107.799 98.3243C108.079 98.8123 108.219 99.3763 108.219 100.016C108.219 100.656 108.079 101.224 107.799 101.72C107.527 102.208 107.147 102.588 106.659 102.86C106.171 103.132 105.619 103.268 105.003 103.268C104.531 103.268 104.099 103.176 103.707 102.992C103.315 102.808 102.991 102.54 102.735 102.188V103.196H101.631V94.2923H102.783V97.7963C103.039 97.4603 103.359 97.2083 103.743 97.0403C104.127 96.8643 104.547 96.7763 105.003 96.7763ZM104.907 102.26C105.315 102.26 105.679 102.168 105.999 101.984C106.327 101.792 106.583 101.528 106.767 101.192C106.959 100.848 107.055 100.456 107.055 100.016C107.055 99.5763 106.959 99.1883 106.767 98.8523C106.583 98.5083 106.327 98.2443 105.999 98.0603C105.679 97.8763 105.315 97.7843 104.907 97.7843C104.507 97.7843 104.143 97.8763 103.815 98.0603C103.487 98.2443 103.231 98.5083 103.047 98.8523C102.863 99.1883 102.771 99.5763 102.771 100.016C102.771 100.456 102.863 100.848 103.047 101.192C103.231 101.528 103.487 101.792 103.815 101.984C104.143 102.168 104.507 102.26 104.907 102.26ZM115.559 100.052C115.559 100.14 115.551 100.256 115.535 100.4H110.375C110.447 100.96 110.691 101.412 111.107 101.756C111.531 102.092 112.055 102.26 112.679 102.26C113.439 102.26 114.051 102.004 114.515 101.492L115.151 102.236C114.863 102.572 114.503 102.828 114.071 103.004C113.647 103.18 113.171 103.268 112.643 103.268C111.971 103.268 111.375 103.132 110.855 102.86C110.335 102.58 109.931 102.192 109.643 101.696C109.363 101.2 109.223 100.64 109.223 100.016C109.223 99.4003 109.359 98.8443 109.631 98.3483C109.911 97.8523 110.291 97.4683 110.771 97.1963C111.259 96.9163 111.807 96.7763 112.415 96.7763C113.023 96.7763 113.563 96.9163 114.035 97.1963C114.515 97.4683 114.887 97.8523 115.151 98.3483C115.423 98.8443 115.559 99.4123 115.559 100.052ZM112.415 97.7483C111.863 97.7483 111.399 97.9163 111.023 98.2523C110.655 98.5883 110.439 99.0283 110.375 99.5723H114.455C114.391 99.0363 114.171 98.6003 113.795 98.2643C113.427 97.9203 112.967 97.7483 112.415 97.7483ZM118.262 97.9043C118.462 97.5363 118.758 97.2563 119.15 97.0643C119.542 96.8723 120.018 96.7763 120.578 96.7763V97.8923C120.514 97.8843 120.426 97.8803 120.314 97.8803C119.69 97.8803 119.198 98.0683 118.838 98.4443C118.486 98.8123 118.31 99.3403 118.31 100.028V103.196H117.158V96.8363H118.262V97.9043ZM126.671 95.8403V98.7683H130.883V99.8003H126.671V103.196H125.471V94.7963H131.399V95.8403H126.671ZM135.445 103.268C134.813 103.268 134.245 103.128 133.741 102.848C133.237 102.568 132.841 102.184 132.553 101.696C132.273 101.2 132.133 100.64 132.133 100.016C132.133 99.3923 132.273 98.8363 132.553 98.3483C132.841 97.8523 133.237 97.4683 133.741 97.1963C134.245 96.9163 134.813 96.7763 135.445 96.7763C136.077 96.7763 136.641 96.9163 137.137 97.1963C137.641 97.4683 138.033 97.8523 138.313 98.3483C138.601 98.8363 138.745 99.3923 138.745 100.016C138.745 100.64 138.601 101.2 138.313 101.696C138.033 102.184 137.641 102.568 137.137 102.848C136.641 103.128 136.077 103.268 135.445 103.268ZM135.445 102.26C135.853 102.26 136.217 102.168 136.537 101.984C136.865 101.792 137.121 101.528 137.305 101.192C137.489 100.848 137.581 100.456 137.581 100.016C137.581 99.5763 137.489 99.1883 137.305 98.8523C137.121 98.5083 136.865 98.2443 136.537 98.0603C136.217 97.8763 135.853 97.7843 135.445 97.7843C135.037 97.7843 134.669 97.8763 134.341 98.0603C134.021 98.2443 133.765 98.5083 133.573 98.8523C133.389 99.1883 133.297 99.5763 133.297 100.016C133.297 100.456 133.389 100.848 133.573 101.192C133.765 101.528 134.021 101.792 134.341 101.984C134.669 102.168 135.037 102.26 135.445 102.26ZM141.442 97.9043C141.642 97.5363 141.938 97.2563 142.33 97.0643C142.722 96.8723 143.198 96.7763 143.758 96.7763V97.8923C143.694 97.8843 143.606 97.8803 143.494 97.8803C142.87 97.8803 142.378 98.0683 142.018 98.4443C141.666 98.8123 141.49 99.3403 141.49 100.028V103.196H140.338V96.8363H141.442V97.9043ZM153.134 96.7763C153.934 96.7763 154.566 97.0083 155.03 97.4723C155.502 97.9363 155.738 98.6243 155.738 99.5363V103.196H154.586V99.6683C154.586 99.0523 154.442 98.5883 154.154 98.2763C153.874 97.9643 153.47 97.8083 152.942 97.8083C152.358 97.8083 151.894 97.9923 151.55 98.3603C151.206 98.7203 151.034 99.2403 151.034 99.9203V103.196H149.882V99.6683C149.882 99.0523 149.738 98.5883 149.45 98.2763C149.17 97.9643 148.766 97.8083 148.238 97.8083C147.654 97.8083 147.19 97.9923 146.846 98.3603C146.502 98.7203 146.33 99.2403 146.33 99.9203V103.196H145.178V96.8363H146.282V97.7843C146.514 97.4563 146.818 97.2083 147.194 97.0403C147.57 96.8643 147.998 96.7763 148.478 96.7763C148.974 96.7763 149.414 96.8763 149.798 97.0763C150.182 97.2763 150.478 97.5683 150.686 97.9523C150.926 97.5843 151.258 97.2963 151.682 97.0883C152.114 96.8803 152.598 96.7763 153.134 96.7763ZM160.174 96.7763C161.054 96.7763 161.726 96.9923 162.19 97.4243C162.662 97.8563 162.898 98.5003 162.898 99.3563V103.196H161.806V102.356C161.614 102.652 161.338 102.88 160.978 103.04C160.626 103.192 160.206 103.268 159.718 103.268C159.006 103.268 158.434 103.096 158.002 102.752C157.578 102.408 157.366 101.956 157.366 101.396C157.366 100.836 157.57 100.388 157.978 100.052C158.386 99.7083 159.034 99.5363 159.922 99.5363H161.746V99.3083C161.746 98.8123 161.602 98.4323 161.314 98.1683C161.026 97.9043 160.602 97.7723 160.042 97.7723C159.666 97.7723 159.298 97.8363 158.938 97.9643C158.578 98.0843 158.274 98.2483 158.026 98.4563L157.546 97.5923C157.874 97.3283 158.266 97.1283 158.722 96.9923C159.178 96.8483 159.662 96.7763 160.174 96.7763ZM159.91 102.38C160.35 102.38 160.73 102.284 161.05 102.092C161.37 101.892 161.602 101.612 161.746 101.252V100.364H159.97C158.994 100.364 158.506 100.692 158.506 101.348C158.506 101.668 158.63 101.92 158.878 102.104C159.126 102.288 159.47 102.38 159.91 102.38ZM168.606 102.824C168.438 102.968 168.23 103.08 167.982 103.16C167.734 103.232 167.478 103.268 167.214 103.268C166.574 103.268 166.078 103.096 165.726 102.752C165.374 102.408 165.198 101.916 165.198 101.276V97.7843H164.118V96.8363H165.198V95.4443H166.35V96.8363H168.174V97.7843H166.35V101.228C166.35 101.572 166.434 101.836 166.602 102.02C166.778 102.204 167.026 102.296 167.346 102.296C167.698 102.296 167.998 102.196 168.246 101.996L168.606 102.824Z" fill="#465361"/>
</g>
</g>
</g>
<g id="form_3">
<g id="Group 2149_2">
<g id="input text_3">
<rect id="bg_3" x="315.25" y="135.25" width="194.5" height="30.2575" rx="4.75" fill="#F9FAFD" stroke="#E5EAEF" stroke-width="0.5"/>
</g>
<path id="," d="M331.38 153.428C331.604 153.428 331.788 153.508 331.932 153.668C332.084 153.82 332.16 154.012 332.16 154.244C332.16 154.364 332.144 154.48 332.112 154.592C332.088 154.704 332.036 154.876 331.956 155.108L331.392 156.776H330.636L331.08 154.988C330.928 154.932 330.804 154.84 330.708 154.712C330.62 154.576 330.576 154.42 330.576 154.244C330.576 154.004 330.652 153.808 330.804 153.656C330.956 153.504 331.148 153.428 331.38 153.428Z" fill="#465361"/>
<path id="Thousand Separator" d="M72.928 147.644H70.048V146.6H76.996V147.644H74.116V155H72.928V147.644ZM81.531 148.58C82.339 148.58 82.979 148.816 83.451 149.288C83.931 149.752 84.171 150.436 84.171 151.34V155H83.019V151.472C83.019 150.856 82.871 150.392 82.575 150.08C82.279 149.768 81.855 149.612 81.303 149.612C80.679 149.612 80.187 149.796 79.827 150.164C79.467 150.524 79.287 151.044 79.287 151.724V155H78.135V146.096H79.287V149.54C79.527 149.236 79.839 149 80.223 148.832C80.615 148.664 81.051 148.58 81.531 148.58ZM89.0621 155.072C88.4301 155.072 87.8621 154.932 87.3581 154.652C86.8541 154.372 86.4581 153.988 86.1701 153.5C85.8901 153.004 85.7501 152.444 85.7501 151.82C85.7501 151.196 85.8901 150.64 86.1701 150.152C86.4581 149.656 86.8541 149.272 87.3581 149C87.8621 148.72 88.4301 148.58 89.0621 148.58C89.6941 148.58 90.2581 148.72 90.7541 149C91.2581 149.272 91.6501 149.656 91.9301 150.152C92.2181 150.64 92.3621 151.196 92.3621 151.82C92.3621 152.444 92.2181 153.004 91.9301 153.5C91.6501 153.988 91.2581 154.372 90.7541 154.652C90.2581 154.932 89.6941 155.072 89.0621 155.072ZM89.0621 154.064C89.4701 154.064 89.8341 153.972 90.1541 153.788C90.4821 153.596 90.7381 153.332 90.9221 152.996C91.1061 152.652 91.1981 152.26 91.1981 151.82C91.1981 151.38 91.1061 150.992 90.9221 150.656C90.7381 150.312 90.4821 150.048 90.1541 149.864C89.8341 149.68 89.4701 149.588 89.0621 149.588C88.6541 149.588 88.2861 149.68 87.9581 149.864C87.6381 150.048 87.3821 150.312 87.1901 150.656C87.0061 150.992 86.9141 151.38 86.9141 151.82C86.9141 152.26 87.0061 152.652 87.1901 152.996C87.3821 153.332 87.6381 153.596 87.9581 153.788C88.2861 153.972 88.6541 154.064 89.0621 154.064ZM99.8833 148.64V155H98.7913V154.04C98.5593 154.368 98.2513 154.624 97.8673 154.808C97.4913 154.984 97.0793 155.072 96.6313 155.072C95.7833 155.072 95.1153 154.84 94.6273 154.376C94.1393 153.904 93.8953 153.212 93.8953 152.3V148.64H95.0473V152.168C95.0473 152.784 95.1953 153.252 95.4913 153.572C95.7873 153.884 96.2113 154.04 96.7633 154.04C97.3713 154.04 97.8513 153.856 98.2033 153.488C98.5553 153.12 98.7313 152.6 98.7313 151.928V148.64H99.8833ZM103.9 155.072C103.38 155.072 102.88 155.004 102.4 154.868C101.92 154.724 101.544 154.544 101.272 154.328L101.752 153.416C102.032 153.616 102.372 153.776 102.772 153.896C103.172 154.016 103.576 154.076 103.984 154.076C104.992 154.076 105.496 153.788 105.496 153.212C105.496 153.02 105.428 152.868 105.292 152.756C105.156 152.644 104.984 152.564 104.776 152.516C104.576 152.46 104.288 152.4 103.912 152.336C103.4 152.256 102.98 152.164 102.652 152.06C102.332 151.956 102.056 151.78 101.824 151.532C101.592 151.284 101.476 150.936 101.476 150.488C101.476 149.912 101.716 149.452 102.196 149.108C102.676 148.756 103.32 148.58 104.128 148.58C104.552 148.58 104.976 148.632 105.4 148.736C105.824 148.84 106.172 148.98 106.444 149.156L105.952 150.068C105.432 149.732 104.82 149.564 104.116 149.564C103.628 149.564 103.256 149.644 103 149.804C102.744 149.964 102.616 150.176 102.616 150.44C102.616 150.648 102.688 150.812 102.832 150.932C102.976 151.052 103.152 151.14 103.36 151.196C103.576 151.252 103.876 151.316 104.26 151.388C104.772 151.476 105.184 151.572 105.496 151.676C105.816 151.772 106.088 151.94 106.312 152.18C106.536 152.42 106.648 152.756 106.648 153.188C106.648 153.764 106.4 154.224 105.904 154.568C105.416 154.904 104.748 155.072 103.9 155.072ZM110.404 148.58C111.284 148.58 111.956 148.796 112.42 149.228C112.892 149.66 113.128 150.304 113.128 151.16V155H112.036V154.16C111.844 154.456 111.568 154.684 111.208 154.844C110.856 154.996 110.436 155.072 109.948 155.072C109.236 155.072 108.664 154.9 108.232 154.556C107.808 154.212 107.596 153.76 107.596 153.2C107.596 152.64 107.8 152.192 108.208 151.856C108.616 151.512 109.264 151.34 110.152 151.34H111.976V151.112C111.976 150.616 111.832 150.236 111.544 149.972C111.256 149.708 110.832 149.576 110.272 149.576C109.896 149.576 109.528 149.64 109.168 149.768C108.808 149.888 108.504 150.052 108.256 150.26L107.776 149.396C108.104 149.132 108.496 148.932 108.952 148.796C109.408 148.652 109.892 148.58 110.404 148.58ZM110.14 154.184C110.58 154.184 110.96 154.088 111.28 153.896C111.6 153.696 111.832 153.416 111.976 153.056V152.168H110.2C109.224 152.168 108.736 152.496 108.736 153.152C108.736 153.472 108.86 153.724 109.108 153.908C109.356 154.092 109.7 154.184 110.14 154.184ZM118.656 148.58C119.464 148.58 120.104 148.816 120.576 149.288C121.056 149.752 121.296 150.436 121.296 151.34V155H120.144V151.472C120.144 150.856 119.996 150.392 119.7 150.08C119.404 149.768 118.98 149.612 118.428 149.612C117.804 149.612 117.312 149.796 116.952 150.164C116.592 150.524 116.412 151.044 116.412 151.724V155H115.26V148.64H116.364V149.6C116.596 149.272 116.908 149.02 117.3 148.844C117.7 148.668 118.152 148.58 118.656 148.58ZM129.463 146.096V155H128.359V153.992C128.103 154.344 127.779 154.612 127.387 154.796C126.995 154.98 126.563 155.072 126.091 155.072C125.475 155.072 124.923 154.936 124.435 154.664C123.947 154.392 123.563 154.012 123.283 153.524C123.011 153.028 122.875 152.46 122.875 151.82C122.875 151.18 123.011 150.616 123.283 150.128C123.563 149.64 123.947 149.26 124.435 148.988C124.923 148.716 125.475 148.58 126.091 148.58C126.547 148.58 126.967 148.668 127.351 148.844C127.735 149.012 128.055 149.264 128.311 149.6V146.096H129.463ZM126.187 154.064C126.587 154.064 126.951 153.972 127.279 153.788C127.607 153.596 127.863 153.332 128.047 152.996C128.231 152.652 128.323 152.26 128.323 151.82C128.323 151.38 128.231 150.992 128.047 150.656C127.863 150.312 127.607 150.048 127.279 149.864C126.951 149.68 126.587 149.588 126.187 149.588C125.779 149.588 125.411 149.68 125.083 149.864C124.763 150.048 124.507 150.312 124.315 150.656C124.131 150.992 124.039 151.38 124.039 151.82C124.039 152.26 124.131 152.652 124.315 152.996C124.507 153.332 124.763 153.596 125.083 153.788C125.411 153.972 125.779 154.064 126.187 154.064ZM137.481 155.096C136.849 155.096 136.237 155 135.645 154.808C135.061 154.608 134.601 154.352 134.265 154.04L134.709 153.104C135.029 153.392 135.437 153.628 135.933 153.812C136.437 153.988 136.953 154.076 137.481 154.076C138.177 154.076 138.697 153.96 139.041 153.728C139.385 153.488 139.557 153.172 139.557 152.78C139.557 152.492 139.461 152.26 139.269 152.084C139.085 151.9 138.853 151.76 138.573 151.664C138.301 151.568 137.913 151.46 137.409 151.34C136.777 151.188 136.265 151.036 135.873 150.884C135.489 150.732 135.157 150.5 134.877 150.188C134.605 149.868 134.469 149.44 134.469 148.904C134.469 148.456 134.585 148.052 134.817 147.692C135.057 147.332 135.417 147.044 135.897 146.828C136.377 146.612 136.973 146.504 137.685 146.504C138.181 146.504 138.669 146.568 139.149 146.696C139.629 146.824 140.041 147.008 140.385 147.248L139.989 148.208C139.637 147.984 139.261 147.816 138.861 147.704C138.461 147.584 138.069 147.524 137.685 147.524C137.005 147.524 136.493 147.648 136.149 147.896C135.813 148.144 135.645 148.464 135.645 148.856C135.645 149.144 135.741 149.38 135.933 149.564C136.125 149.74 136.361 149.88 136.641 149.984C136.929 150.08 137.317 150.184 137.805 150.296C138.437 150.448 138.945 150.6 139.329 150.752C139.713 150.904 140.041 151.136 140.313 151.448C140.593 151.76 140.733 152.18 140.733 152.708C140.733 153.148 140.613 153.552 140.373 153.92C140.133 154.28 139.769 154.568 139.281 154.784C138.793 154.992 138.193 155.096 137.481 155.096ZM148.067 151.856C148.067 151.944 148.059 152.06 148.043 152.204H142.883C142.955 152.764 143.199 153.216 143.615 153.56C144.039 153.896 144.563 154.064 145.187 154.064C145.947 154.064 146.559 153.808 147.023 153.296L147.659 154.04C147.371 154.376 147.011 154.632 146.579 154.808C146.155 154.984 145.679 155.072 145.151 155.072C144.479 155.072 143.883 154.936 143.363 154.664C142.843 154.384 142.439 153.996 142.151 153.5C141.871 153.004 141.731 152.444 141.731 151.82C141.731 151.204 141.867 150.648 142.139 150.152C142.419 149.656 142.799 149.272 143.279 149C143.767 148.72 144.315 148.58 144.923 148.58C145.531 148.58 146.071 148.72 146.543 149C147.023 149.272 147.395 149.656 147.659 150.152C147.931 150.648 148.067 151.216 148.067 151.856ZM144.923 149.552C144.371 149.552 143.907 149.72 143.531 150.056C143.163 150.392 142.947 150.832 142.883 151.376H146.963C146.899 150.84 146.679 150.404 146.303 150.068C145.935 149.724 145.475 149.552 144.923 149.552ZM153.038 148.58C153.654 148.58 154.206 148.716 154.694 148.988C155.182 149.26 155.562 149.64 155.834 150.128C156.114 150.616 156.254 151.18 156.254 151.82C156.254 152.46 156.114 153.028 155.834 153.524C155.562 154.012 155.182 154.392 154.694 154.664C154.206 154.936 153.654 155.072 153.038 155.072C152.582 155.072 152.162 154.984 151.778 154.808C151.402 154.632 151.082 154.376 150.818 154.04V157.328H149.666V148.64H150.77V149.648C151.026 149.296 151.35 149.032 151.742 148.856C152.134 148.672 152.566 148.58 153.038 148.58ZM152.942 154.064C153.35 154.064 153.714 153.972 154.034 153.788C154.362 153.596 154.618 153.332 154.802 152.996C154.994 152.652 155.09 152.26 155.09 151.82C155.09 151.38 154.994 150.992 154.802 150.656C154.618 150.312 154.362 150.048 154.034 149.864C153.714 149.68 153.35 149.588 152.942 149.588C152.542 149.588 152.178 149.684 151.85 149.876C151.53 150.06 151.274 150.32 151.082 150.656C150.898 150.992 150.806 151.38 150.806 151.82C150.806 152.26 150.898 152.652 151.082 152.996C151.266 153.332 151.522 153.596 151.85 153.788C152.178 153.972 152.542 154.064 152.942 154.064ZM160.103 148.58C160.983 148.58 161.655 148.796 162.119 149.228C162.591 149.66 162.827 150.304 162.827 151.16V155H161.735V154.16C161.543 154.456 161.267 154.684 160.907 154.844C160.555 154.996 160.135 155.072 159.647 155.072C158.935 155.072 158.363 154.9 157.931 154.556C157.507 154.212 157.295 153.76 157.295 153.2C157.295 152.64 157.499 152.192 157.907 151.856C158.315 151.512 158.963 151.34 159.851 151.34H161.675V151.112C161.675 150.616 161.531 150.236 161.243 149.972C160.955 149.708 160.531 149.576 159.971 149.576C159.595 149.576 159.227 149.64 158.867 149.768C158.507 149.888 158.203 150.052 157.955 150.26L157.475 149.396C157.803 149.132 158.195 148.932 158.651 148.796C159.107 148.652 159.591 148.58 160.103 148.58ZM159.839 154.184C160.279 154.184 160.659 154.088 160.979 153.896C161.299 153.696 161.531 153.416 161.675 153.056V152.168H159.899C158.923 152.168 158.435 152.496 158.435 153.152C158.435 153.472 158.559 153.724 158.807 153.908C159.055 154.092 159.399 154.184 159.839 154.184ZM166.063 149.708C166.263 149.34 166.559 149.06 166.951 148.868C167.343 148.676 167.819 148.58 168.379 148.58V149.696C168.315 149.688 168.227 149.684 168.115 149.684C167.491 149.684 166.999 149.872 166.639 150.248C166.287 150.616 166.111 151.144 166.111 151.832V155H164.959V148.64H166.063V149.708ZM172.103 148.58C172.983 148.58 173.655 148.796 174.119 149.228C174.591 149.66 174.827 150.304 174.827 151.16V155H173.735V154.16C173.543 154.456 173.267 154.684 172.907 154.844C172.555 154.996 172.135 155.072 171.647 155.072C170.935 155.072 170.363 154.9 169.931 154.556C169.507 154.212 169.295 153.76 169.295 153.2C169.295 152.64 169.499 152.192 169.907 151.856C170.315 151.512 170.963 151.34 171.851 151.34H173.675V151.112C173.675 150.616 173.531 150.236 173.243 149.972C172.955 149.708 172.531 149.576 171.971 149.576C171.595 149.576 171.227 149.64 170.867 149.768C170.507 149.888 170.203 150.052 169.955 150.26L169.475 149.396C169.803 149.132 170.195 148.932 170.651 148.796C171.107 148.652 171.591 148.58 172.103 148.58ZM171.839 154.184C172.279 154.184 172.659 154.088 172.979 153.896C173.299 153.696 173.531 153.416 173.675 153.056V152.168H171.899C170.923 152.168 170.435 152.496 170.435 153.152C170.435 153.472 170.559 153.724 170.807 153.908C171.055 154.092 171.399 154.184 171.839 154.184ZM180.535 154.628C180.367 154.772 180.159 154.884 179.911 154.964C179.663 155.036 179.407 155.072 179.143 155.072C178.503 155.072 178.007 154.9 177.655 154.556C177.303 154.212 177.127 153.72 177.127 153.08V149.588H176.047V148.64H177.127V147.248H178.279V148.64H180.103V149.588H178.279V153.032C178.279 153.376 178.363 153.64 178.531 153.824C178.707 154.008 178.955 154.1 179.275 154.1C179.627 154.1 179.927 154 180.175 153.8L180.535 154.628ZM184.441 155.072C183.809 155.072 183.241 154.932 182.737 154.652C182.233 154.372 181.837 153.988 181.549 153.5C181.269 153.004 181.129 152.444 181.129 151.82C181.129 151.196 181.269 150.64 181.549 150.152C181.837 149.656 182.233 149.272 182.737 149C183.241 148.72 183.809 148.58 184.441 148.58C185.073 148.58 185.637 148.72 186.133 149C186.637 149.272 187.029 149.656 187.309 150.152C187.597 150.64 187.741 151.196 187.741 151.82C187.741 152.444 187.597 153.004 187.309 153.5C187.029 153.988 186.637 154.372 186.133 154.652C185.637 154.932 185.073 155.072 184.441 155.072ZM184.441 154.064C184.849 154.064 185.213 153.972 185.533 153.788C185.861 153.596 186.117 153.332 186.301 152.996C186.485 152.652 186.577 152.26 186.577 151.82C186.577 151.38 186.485 150.992 186.301 150.656C186.117 150.312 185.861 150.048 185.533 149.864C185.213 149.68 184.849 149.588 184.441 149.588C184.033 149.588 183.665 149.68 183.337 149.864C183.017 150.048 182.761 150.312 182.569 150.656C182.385 150.992 182.293 151.38 182.293 151.82C182.293 152.26 182.385 152.652 182.569 152.996C182.761 153.332 183.017 153.596 183.337 153.788C183.665 153.972 184.033 154.064 184.441 154.064ZM190.438 149.708C190.638 149.34 190.934 149.06 191.326 148.868C191.718 148.676 192.194 148.58 192.754 148.58V149.696C192.69 149.688 192.602 149.684 192.49 149.684C191.866 149.684 191.374 149.872 191.014 150.248C190.662 150.616 190.486 151.144 190.486 151.832V155H189.334V148.64H190.438V149.708Z" fill="#465361"/>
</g>
</g>
<g id="form_4">
<g id="Group 2149_3">
<g id="input text_4">
<rect id="bg_4" x="315.25" y="182.25" width="194.5" height="25.9407" rx="4.75" fill="#F9FAFD" stroke="#E5EAEF" stroke-width="0.5"/>
</g>
<path id="." d="M331.368 202.072C331.144 202.072 330.952 201.996 330.792 201.844C330.632 201.684 330.552 201.484 330.552 201.244C330.552 201.012 330.632 200.82 330.792 200.668C330.952 200.508 331.144 200.428 331.368 200.428C331.592 200.428 331.78 200.504 331.932 200.656C332.084 200.808 332.16 201.004 332.16 201.244C332.16 201.484 332.08 201.684 331.92 201.844C331.768 201.996 331.584 202.072 331.368 202.072Z" fill="#465361"/>
<path id="Decimal Separator" d="M71.26 193.6H74.8C75.688 193.6 76.476 193.776 77.164 194.128C77.852 194.48 78.384 194.976 78.76 195.616C79.144 196.248 79.336 196.976 79.336 197.8C79.336 198.624 79.144 199.356 78.76 199.996C78.384 200.628 77.852 201.12 77.164 201.472C76.476 201.824 75.688 202 74.8 202H71.26V193.6ZM74.728 200.956C75.408 200.956 76.004 200.824 76.516 200.56C77.036 200.296 77.436 199.928 77.716 199.456C77.996 198.976 78.136 198.424 78.136 197.8C78.136 197.176 77.996 196.628 77.716 196.156C77.436 195.676 77.036 195.304 76.516 195.04C76.004 194.776 75.408 194.644 74.728 194.644H72.46V200.956H74.728ZM86.7541 198.856C86.7541 198.944 86.7461 199.06 86.7301 199.204H81.5701C81.6421 199.764 81.8861 200.216 82.3021 200.56C82.7261 200.896 83.2501 201.064 83.8741 201.064C84.6341 201.064 85.2461 200.808 85.7101 200.296L86.3461 201.04C86.0581 201.376 85.6981 201.632 85.2661 201.808C84.8421 201.984 84.3661 202.072 83.8381 202.072C83.1661 202.072 82.5701 201.936 82.0501 201.664C81.5301 201.384 81.1261 200.996 80.8381 200.5C80.5581 200.004 80.4181 199.444 80.4181 198.82C80.4181 198.204 80.5541 197.648 80.8261 197.152C81.1061 196.656 81.4861 196.272 81.9661 196C82.4541 195.72 83.0021 195.58 83.6101 195.58C84.2181 195.58 84.7581 195.72 85.2301 196C85.7101 196.272 86.0821 196.656 86.3461 197.152C86.6181 197.648 86.7541 198.216 86.7541 198.856ZM83.6101 196.552C83.0581 196.552 82.5941 196.72 82.2181 197.056C81.8501 197.392 81.6341 197.832 81.5701 198.376H85.6501C85.5861 197.84 85.3661 197.404 84.9901 197.068C84.6221 196.724 84.1621 196.552 83.6101 196.552ZM91.1257 202.072C90.4777 202.072 89.8977 201.932 89.3857 201.652C88.8817 201.372 88.4857 200.988 88.1977 200.5C87.9097 200.004 87.7657 199.444 87.7657 198.82C87.7657 198.196 87.9097 197.64 88.1977 197.152C88.4857 196.656 88.8817 196.272 89.3857 196C89.8977 195.72 90.4777 195.58 91.1257 195.58C91.7017 195.58 92.2137 195.696 92.6617 195.928C93.1177 196.16 93.4697 196.496 93.7177 196.936L92.8417 197.5C92.6417 197.196 92.3937 196.968 92.0977 196.816C91.8017 196.664 91.4737 196.588 91.1137 196.588C90.6977 196.588 90.3217 196.68 89.9857 196.864C89.6577 197.048 89.3977 197.312 89.2057 197.656C89.0217 197.992 88.9297 198.38 88.9297 198.82C88.9297 199.268 89.0217 199.664 89.2057 200.008C89.3977 200.344 89.6577 200.604 89.9857 200.788C90.3217 200.972 90.6977 201.064 91.1137 201.064C91.4737 201.064 91.8017 200.988 92.0977 200.836C92.3937 200.684 92.6417 200.456 92.8417 200.152L93.7177 200.704C93.4697 201.144 93.1177 201.484 92.6617 201.724C92.2137 201.956 91.7017 202.072 91.1257 202.072ZM95.2092 195.64H96.3612V202H95.2092V195.64ZM95.7852 194.416C95.5612 194.416 95.3732 194.344 95.2212 194.2C95.0772 194.056 95.0052 193.88 95.0052 193.672C95.0052 193.464 95.0772 193.288 95.2212 193.144C95.3732 192.992 95.5612 192.916 95.7852 192.916C96.0092 192.916 96.1932 192.988 96.3372 193.132C96.4892 193.268 96.5652 193.44 96.5652 193.648C96.5652 193.864 96.4892 194.048 96.3372 194.2C96.1932 194.344 96.0092 194.416 95.7852 194.416ZM106.517 195.58C107.317 195.58 107.949 195.812 108.413 196.276C108.885 196.74 109.121 197.428 109.121 198.34V202H107.969V198.472C107.969 197.856 107.825 197.392 107.537 197.08C107.257 196.768 106.853 196.612 106.325 196.612C105.741 196.612 105.277 196.796 104.933 197.164C104.589 197.524 104.417 198.044 104.417 198.724V202H103.265V198.472C103.265 197.856 103.121 197.392 102.833 197.08C102.553 196.768 102.149 196.612 101.621 196.612C101.037 196.612 100.573 196.796 100.229 197.164C99.8848 197.524 99.7128 198.044 99.7128 198.724V202H98.5608V195.64H99.6648V196.588C99.8968 196.26 100.201 196.012 100.577 195.844C100.953 195.668 101.381 195.58 101.861 195.58C102.357 195.58 102.797 195.68 103.181 195.88C103.565 196.08 103.861 196.372 104.069 196.756C104.309 196.388 104.641 196.1 105.065 195.892C105.497 195.684 105.981 195.58 106.517 195.58ZM113.556 195.58C114.436 195.58 115.108 195.796 115.572 196.228C116.044 196.66 116.28 197.304 116.28 198.16V202H115.188V201.16C114.996 201.456 114.72 201.684 114.36 201.844C114.008 201.996 113.588 202.072 113.1 202.072C112.388 202.072 111.816 201.9 111.384 201.556C110.96 201.212 110.748 200.76 110.748 200.2C110.748 199.64 110.952 199.192 111.36 198.856C111.768 198.512 112.416 198.34 113.304 198.34H115.128V198.112C115.128 197.616 114.984 197.236 114.696 196.972C114.408 196.708 113.984 196.576 113.424 196.576C113.048 196.576 112.68 196.64 112.32 196.768C111.96 196.888 111.656 197.052 111.408 197.26L110.928 196.396C111.256 196.132 111.648 195.932 112.104 195.796C112.56 195.652 113.044 195.58 113.556 195.58ZM113.292 201.184C113.732 201.184 114.112 201.088 114.432 200.896C114.752 200.696 114.984 200.416 115.128 200.056V199.168H113.352C112.376 199.168 111.888 199.496 111.888 200.152C111.888 200.472 112.012 200.724 112.26 200.908C112.508 201.092 112.852 201.184 113.292 201.184ZM118.412 193.096H119.564V202H118.412V193.096ZM127.603 202.096C126.971 202.096 126.359 202 125.767 201.808C125.183 201.608 124.723 201.352 124.387 201.04L124.831 200.104C125.151 200.392 125.559 200.628 126.055 200.812C126.559 200.988 127.075 201.076 127.603 201.076C128.299 201.076 128.819 200.96 129.163 200.728C129.507 200.488 129.679 200.172 129.679 199.78C129.679 199.492 129.583 199.26 129.391 199.084C129.207 198.9 128.975 198.76 128.695 198.664C128.423 198.568 128.035 198.46 127.531 198.34C126.899 198.188 126.387 198.036 125.995 197.884C125.611 197.732 125.279 197.5 124.999 197.188C124.727 196.868 124.591 196.44 124.591 195.904C124.591 195.456 124.707 195.052 124.939 194.692C125.179 194.332 125.539 194.044 126.019 193.828C126.499 193.612 127.095 193.504 127.807 193.504C128.303 193.504 128.791 193.568 129.271 193.696C129.751 193.824 130.163 194.008 130.507 194.248L130.111 195.208C129.759 194.984 129.383 194.816 128.983 194.704C128.583 194.584 128.191 194.524 127.807 194.524C127.127 194.524 126.615 194.648 126.271 194.896C125.935 195.144 125.767 195.464 125.767 195.856C125.767 196.144 125.863 196.38 126.055 196.564C126.247 196.74 126.483 196.88 126.763 196.984C127.051 197.08 127.439 197.184 127.927 197.296C128.559 197.448 129.067 197.6 129.451 197.752C129.835 197.904 130.163 198.136 130.435 198.448C130.715 198.76 130.855 199.18 130.855 199.708C130.855 200.148 130.735 200.552 130.495 200.92C130.255 201.28 129.891 201.568 129.403 201.784C128.915 201.992 128.315 202.096 127.603 202.096ZM138.188 198.856C138.188 198.944 138.18 199.06 138.164 199.204H133.004C133.076 199.764 133.32 200.216 133.736 200.56C134.16 200.896 134.684 201.064 135.308 201.064C136.068 201.064 136.68 200.808 137.144 200.296L137.78 201.04C137.492 201.376 137.132 201.632 136.7 201.808C136.276 201.984 135.8 202.072 135.272 202.072C134.6 202.072 134.004 201.936 133.484 201.664C132.964 201.384 132.56 200.996 132.272 200.5C131.992 200.004 131.852 199.444 131.852 198.82C131.852 198.204 131.988 197.648 132.26 197.152C132.54 196.656 132.92 196.272 133.4 196C133.888 195.72 134.436 195.58 135.044 195.58C135.652 195.58 136.192 195.72 136.664 196C137.144 196.272 137.516 196.656 137.78 197.152C138.052 197.648 138.188 198.216 138.188 198.856ZM135.044 196.552C134.492 196.552 134.028 196.72 133.652 197.056C133.284 197.392 133.068 197.832 133.004 198.376H137.084C137.02 197.84 136.8 197.404 136.424 197.068C136.056 196.724 135.596 196.552 135.044 196.552ZM143.159 195.58C143.775 195.58 144.327 195.716 144.815 195.988C145.303 196.26 145.683 196.64 145.955 197.128C146.235 197.616 146.375 198.18 146.375 198.82C146.375 199.46 146.235 200.028 145.955 200.524C145.683 201.012 145.303 201.392 144.815 201.664C144.327 201.936 143.775 202.072 143.159 202.072C142.703 202.072 142.283 201.984 141.899 201.808C141.523 201.632 141.203 201.376 140.939 201.04V204.328H139.787V195.64H140.891V196.648C141.147 196.296 141.471 196.032 141.863 195.856C142.255 195.672 142.687 195.58 143.159 195.58ZM143.063 201.064C143.471 201.064 143.835 200.972 144.155 200.788C144.483 200.596 144.739 200.332 144.923 199.996C145.115 199.652 145.211 199.26 145.211 198.82C145.211 198.38 145.115 197.992 144.923 197.656C144.739 197.312 144.483 197.048 144.155 196.864C143.835 196.68 143.471 196.588 143.063 196.588C142.663 196.588 142.299 196.684 141.971 196.876C141.651 197.06 141.395 197.32 141.203 197.656C141.019 197.992 140.927 198.38 140.927 198.82C140.927 199.26 141.019 199.652 141.203 199.996C141.387 200.332 141.643 200.596 141.971 200.788C142.299 200.972 142.663 201.064 143.063 201.064ZM150.224 195.58C151.104 195.58 151.776 195.796 152.24 196.228C152.712 196.66 152.948 197.304 152.948 198.16V202H151.856V201.16C151.664 201.456 151.388 201.684 151.028 201.844C150.676 201.996 150.256 202.072 149.768 202.072C149.056 202.072 148.484 201.9 148.052 201.556C147.628 201.212 147.416 200.76 147.416 200.2C147.416 199.64 147.62 199.192 148.028 198.856C148.436 198.512 149.084 198.34 149.972 198.34H151.796V198.112C151.796 197.616 151.652 197.236 151.364 196.972C151.076 196.708 150.652 196.576 150.092 196.576C149.716 196.576 149.348 196.64 148.988 196.768C148.628 196.888 148.324 197.052 148.076 197.26L147.596 196.396C147.924 196.132 148.316 195.932 148.772 195.796C149.228 195.652 149.712 195.58 150.224 195.58ZM149.96 201.184C150.4 201.184 150.78 201.088 151.1 200.896C151.42 200.696 151.652 200.416 151.796 200.056V199.168H150.02C149.044 199.168 148.556 199.496 148.556 200.152C148.556 200.472 148.68 200.724 148.928 200.908C149.176 201.092 149.52 201.184 149.96 201.184ZM156.184 196.708C156.384 196.34 156.68 196.06 157.072 195.868C157.464 195.676 157.94 195.58 158.5 195.58V196.696C158.436 196.688 158.348 196.684 158.236 196.684C157.612 196.684 157.12 196.872 156.76 197.248C156.408 197.616 156.232 198.144 156.232 198.832V202H155.08V195.64H156.184V196.708ZM162.224 195.58C163.104 195.58 163.776 195.796 164.24 196.228C164.712 196.66 164.948 197.304 164.948 198.16V202H163.856V201.16C163.664 201.456 163.388 201.684 163.028 201.844C162.676 201.996 162.256 202.072 161.768 202.072C161.056 202.072 160.484 201.9 160.052 201.556C159.628 201.212 159.416 200.76 159.416 200.2C159.416 199.64 159.62 199.192 160.028 198.856C160.436 198.512 161.084 198.34 161.972 198.34H163.796V198.112C163.796 197.616 163.652 197.236 163.364 196.972C163.076 196.708 162.652 196.576 162.092 196.576C161.716 196.576 161.348 196.64 160.988 196.768C160.628 196.888 160.324 197.052 160.076 197.26L159.596 196.396C159.924 196.132 160.316 195.932 160.772 195.796C161.228 195.652 161.712 195.58 162.224 195.58ZM161.96 201.184C162.4 201.184 162.78 201.088 163.1 200.896C163.42 200.696 163.652 200.416 163.796 200.056V199.168H162.02C161.044 199.168 160.556 199.496 160.556 200.152C160.556 200.472 160.68 200.724 160.928 200.908C161.176 201.092 161.52 201.184 161.96 201.184ZM170.656 201.628C170.488 201.772 170.28 201.884 170.032 201.964C169.784 202.036 169.528 202.072 169.264 202.072C168.624 202.072 168.128 201.9 167.776 201.556C167.424 201.212 167.248 200.72 167.248 200.08V196.588H166.168V195.64H167.248V194.248H168.4V195.64H170.224V196.588H168.4V200.032C168.4 200.376 168.484 200.64 168.652 200.824C168.828 201.008 169.076 201.1 169.396 201.1C169.748 201.1 170.048 201 170.296 200.8L170.656 201.628ZM174.562 202.072C173.93 202.072 173.362 201.932 172.858 201.652C172.354 201.372 171.958 200.988 171.67 200.5C171.39 200.004 171.25 199.444 171.25 198.82C171.25 198.196 171.39 197.64 171.67 197.152C171.958 196.656 172.354 196.272 172.858 196C173.362 195.72 173.93 195.58 174.562 195.58C175.194 195.58 175.758 195.72 176.254 196C176.758 196.272 177.15 196.656 177.43 197.152C177.718 197.64 177.862 198.196 177.862 198.82C177.862 199.444 177.718 200.004 177.43 200.5C177.15 200.988 176.758 201.372 176.254 201.652C175.758 201.932 175.194 202.072 174.562 202.072ZM174.562 201.064C174.97 201.064 175.334 200.972 175.654 200.788C175.982 200.596 176.238 200.332 176.422 199.996C176.606 199.652 176.698 199.26 176.698 198.82C176.698 198.38 176.606 197.992 176.422 197.656C176.238 197.312 175.982 197.048 175.654 196.864C175.334 196.68 174.97 196.588 174.562 196.588C174.154 196.588 173.786 196.68 173.458 196.864C173.138 197.048 172.882 197.312 172.69 197.656C172.506 197.992 172.414 198.38 172.414 198.82C172.414 199.26 172.506 199.652 172.69 199.996C172.882 200.332 173.138 200.596 173.458 200.788C173.786 200.972 174.154 201.064 174.562 201.064ZM180.559 196.708C180.759 196.34 181.055 196.06 181.447 195.868C181.839 195.676 182.315 195.58 182.875 195.58V196.696C182.811 196.688 182.723 196.684 182.611 196.684C181.987 196.684 181.495 196.872 181.135 197.248C180.783 197.616 180.607 198.144 180.607 198.832V202H179.455V195.64H180.559V196.708Z" fill="#465361"/>
</g>
</g>
</g>
<g id="top">
<path id="top bg" d="M31 26C31 20.4772 35.4772 16 41 16H541C546.523 16 551 20.4772 551 26V54H31V26Z" fill="#F6F8FB"/>
<g id="tabs">
<g id="Group 2153">
<g id="Group 2153_2">
<path id="Rectangle 478" d="M72.7458 37.0506C74.2341 32.544 78.445 29.5 83.191 29.5H150.106C154.852 29.5 159.063 32.5439 160.551 37.0506L166.148 54H67.1484L72.7458 37.0506Z" fill="#E5EAEF"/>
<path id="Feed Config" d="M81.6944 38.644V41.572H85.9064V42.604H81.6944V46H80.4944V37.6H86.4224V38.644H81.6944ZM93.4923 42.856C93.4923 42.944 93.4843 43.06 93.4683 43.204H88.3083C88.3803 43.764 88.6243 44.216 89.0403 44.56C89.4643 44.896 89.9883 45.064 90.6123 45.064C91.3723 45.064 91.9843 44.808 92.4483 44.296L93.0843 45.04C92.7963 45.376 92.4363 45.632 92.0043 45.808C91.5803 45.984 91.1043 46.072 90.5763 46.072C89.9043 46.072 89.3083 45.936 88.7883 45.664C88.2683 45.384 87.8643 44.996 87.5763 44.5C87.2963 44.004 87.1563 43.444 87.1563 42.82C87.1563 42.204 87.2923 41.648 87.5643 41.152C87.8443 40.656 88.2243 40.272 88.7043 40C89.1923 39.72 89.7403 39.58 90.3483 39.58C90.9563 39.58 91.4963 39.72 91.9683 40C92.4483 40.272 92.8203 40.656 93.0843 41.152C93.3563 41.648 93.4923 42.216 93.4923 42.856ZM90.3483 40.552C89.7963 40.552 89.3323 40.72 88.9563 41.056C88.5883 41.392 88.3723 41.832 88.3083 42.376H92.3883C92.3243 41.84 92.1043 41.404 91.7283 41.068C91.3603 40.724 90.9003 40.552 90.3483 40.552ZM100.84 42.856C100.84 42.944 100.832 43.06 100.816 43.204H95.656C95.728 43.764 95.972 44.216 96.388 44.56C96.812 44.896 97.336 45.064 97.96 45.064C98.72 45.064 99.332 44.808 99.796 44.296L100.432 45.04C100.144 45.376 99.784 45.632 99.352 45.808C98.928 45.984 98.452 46.072 97.924 46.072C97.252 46.072 96.656 45.936 96.136 45.664C95.616 45.384 95.212 44.996 94.924 44.5C94.644 44.004 94.504 43.444 94.504 42.82C94.504 42.204 94.64 41.648 94.912 41.152C95.192 40.656 95.572 40.272 96.052 40C96.54 39.72 97.088 39.58 97.696 39.58C98.304 39.58 98.844 39.72 99.316 40C99.796 40.272 100.168 40.656 100.432 41.152C100.704 41.648 100.84 42.216 100.84 42.856ZM97.696 40.552C97.144 40.552 96.68 40.72 96.304 41.056C95.936 41.392 95.72 41.832 95.656 42.376H99.736C99.672 41.84 99.452 41.404 99.076 41.068C98.708 40.724 98.248 40.552 97.696 40.552ZM108.44 37.096V46H107.336V44.992C107.08 45.344 106.756 45.612 106.364 45.796C105.972 45.98 105.54 46.072 105.068 46.072C104.452 46.072 103.9 45.936 103.412 45.664C102.924 45.392 102.54 45.012 102.26 44.524C101.988 44.028 101.852 43.46 101.852 42.82C101.852 42.18 101.988 41.616 102.26 41.128C102.54 40.64 102.924 40.26 103.412 39.988C103.9 39.716 104.452 39.58 105.068 39.58C105.524 39.58 105.944 39.668 106.328 39.844C106.712 40.012 107.032 40.264 107.288 40.6V37.096H108.44ZM105.164 45.064C105.564 45.064 105.928 44.972 106.256 44.788C106.584 44.596 106.84 44.332 107.024 43.996C107.208 43.652 107.3 43.26 107.3 42.82C107.3 42.38 107.208 41.992 107.024 41.656C106.84 41.312 106.584 41.048 106.256 40.864C105.928 40.68 105.564 40.588 105.164 40.588C104.756 40.588 104.388 40.68 104.06 40.864C103.74 41.048 103.484 41.312 103.292 41.656C103.108 41.992 103.016 42.38 103.016 42.82C103.016 43.26 103.108 43.652 103.292 43.996C103.484 44.332 103.74 44.596 104.06 44.788C104.388 44.972 104.756 45.064 105.164 45.064ZM117.766 46.096C116.926 46.096 116.166 45.912 115.486 45.544C114.814 45.168 114.286 44.656 113.902 44.008C113.518 43.352 113.326 42.616 113.326 41.8C113.326 40.984 113.518 40.252 113.902 39.604C114.286 38.948 114.818 38.436 115.498 38.068C116.178 37.692 116.938 37.504 117.778 37.504C118.434 37.504 119.034 37.616 119.578 37.84C120.122 38.056 120.586 38.38 120.97 38.812L120.19 39.568C119.558 38.904 118.77 38.572 117.826 38.572C117.202 38.572 116.638 38.712 116.134 38.992C115.63 39.272 115.234 39.66 114.946 40.156C114.666 40.644 114.526 41.192 114.526 41.8C114.526 42.408 114.666 42.96 114.946 43.456C115.234 43.944 115.63 44.328 116.134 44.608C116.638 44.888 117.202 45.028 117.826 45.028C118.762 45.028 119.55 44.692 120.19 44.02L120.97 44.776C120.586 45.208 120.118 45.536 119.566 45.76C119.022 45.984 118.422 46.096 117.766 46.096ZM124.968 46.072C124.336 46.072 123.768 45.932 123.264 45.652C122.76 45.372 122.364 44.988 122.076 44.5C121.796 44.004 121.656 43.444 121.656 42.82C121.656 42.196 121.796 41.64 122.076 41.152C122.364 40.656 122.76 40.272 123.264 40C123.768 39.72 124.336 39.58 124.968 39.58C125.6 39.58 126.164 39.72 126.66 40C127.164 40.272 127.556 40.656 127.836 41.152C128.124 41.64 128.268 42.196 128.268 42.82C128.268 43.444 128.124 44.004 127.836 44.5C127.556 44.988 127.164 45.372 126.66 45.652C126.164 45.932 125.6 46.072 124.968 46.072ZM124.968 45.064C125.376 45.064 125.74 44.972 126.06 44.788C126.388 44.596 126.644 44.332 126.828 43.996C127.012 43.652 127.104 43.26 127.104 42.82C127.104 42.38 127.012 41.992 126.828 41.656C126.644 41.312 126.388 41.048 126.06 40.864C125.74 40.68 125.376 40.588 124.968 40.588C124.56 40.588 124.192 40.68 123.864 40.864C123.544 41.048 123.288 41.312 123.096 41.656C122.912 41.992 122.82 42.38 122.82 42.82C122.82 43.26 122.912 43.652 123.096 43.996C123.288 44.332 123.544 44.596 123.864 44.788C124.192 44.972 124.56 45.064 124.968 45.064ZM133.258 39.58C134.066 39.58 134.706 39.816 135.178 40.288C135.658 40.752 135.898 41.436 135.898 42.34V46H134.746V42.472C134.746 41.856 134.598 41.392 134.302 41.08C134.006 40.768 133.582 40.612 133.03 40.612C132.406 40.612 131.914 40.796 131.554 41.164C131.194 41.524 131.014 42.044 131.014 42.724V46H129.862V39.64H130.966V40.6C131.198 40.272 131.51 40.02 131.902 39.844C132.302 39.668 132.754 39.58 133.258 39.58ZM140.358 37.972C139.67 37.972 139.326 38.344 139.326 39.088V39.64H141.174V40.588H139.35V46H138.198V40.588H137.118V39.64H138.198V39.076C138.198 38.444 138.382 37.944 138.75 37.576C139.118 37.208 139.634 37.024 140.298 37.024C140.554 37.024 140.794 37.056 141.018 37.12C141.242 37.184 141.434 37.276 141.594 37.396L141.246 38.272C140.982 38.072 140.686 37.972 140.358 37.972ZM143.226 39.64H144.378V46H143.226V39.64ZM143.802 38.416C143.578 38.416 143.39 38.344 143.238 38.2C143.094 38.056 143.022 37.88 143.022 37.672C143.022 37.464 143.094 37.288 143.238 37.144C143.39 36.992 143.578 36.916 143.802 36.916C144.026 36.916 144.21 36.988 144.354 37.132C144.506 37.268 144.582 37.44 144.582 37.648C144.582 37.864 144.506 38.048 144.354 38.2C144.21 38.344 144.026 38.416 143.802 38.416ZM152.656 39.64V45.136C152.656 46.248 152.38 47.068 151.828 47.596C151.276 48.132 150.452 48.4 149.356 48.4C148.756 48.4 148.184 48.316 147.64 48.148C147.096 47.988 146.656 47.756 146.32 47.452L146.872 46.564C147.168 46.82 147.532 47.02 147.964 47.164C148.404 47.316 148.856 47.392 149.32 47.392C150.064 47.392 150.612 47.216 150.964 46.864C151.324 46.512 151.504 45.976 151.504 45.256V44.752C151.232 45.08 150.896 45.328 150.496 45.496C150.104 45.656 149.676 45.736 149.212 45.736C148.604 45.736 148.052 45.608 147.556 45.352C147.068 45.088 146.684 44.724 146.404 44.26C146.124 43.788 145.984 43.252 145.984 42.652C145.984 42.052 146.124 41.52 146.404 41.056C146.684 40.584 147.068 40.22 147.556 39.964C148.052 39.708 148.604 39.58 149.212 39.58C149.692 39.58 150.136 39.668 150.544 39.844C150.96 40.02 151.3 40.28 151.564 40.624V39.64H152.656ZM149.344 44.728C149.76 44.728 150.132 44.64 150.46 44.464C150.796 44.288 151.056 44.044 151.24 43.732C151.432 43.412 151.528 43.052 151.528 42.652C151.528 42.036 151.324 41.54 150.916 41.164C150.508 40.78 149.984 40.588 149.344 40.588C148.696 40.588 148.168 40.78 147.76 41.164C147.352 41.54 147.148 42.036 147.148 42.652C147.148 43.052 147.24 43.412 147.424 43.732C147.616 44.044 147.876 44.288 148.204 44.464C148.54 44.64 148.92 44.728 149.344 44.728Z" fill="#465361"/>
</g>
</g>
<g id="Group 2151">
<g id="Group 2153_3">
<path id="Rectangle 478_2" d="M171.746 37.0506C173.234 32.544 177.445 29.5 182.191 29.5H246.106C250.852 29.5 255.063 32.5439 256.551 37.0506L262.148 54H166.148L171.746 37.0506Z" fill="#E5EAEF"/>
<path id="Rectangle 476" d="M172.944 38.4544C174.461 33.997 178.648 31 183.357 31H244.944C249.653 31 253.839 33.997 255.357 38.4544L260.65 54H167.65L172.944 38.4544Z" fill="white"/>
</g>
<path id="Filter" d="M200.917 39.144V42.072H205.129V43.104H200.917V46.5H199.717V38.1H205.645V39.144H200.917ZM207.049 40.14H208.201V46.5H207.049V40.14ZM207.625 38.916C207.401 38.916 207.213 38.844 207.061 38.7C206.917 38.556 206.845 38.38 206.845 38.172C206.845 37.964 206.917 37.788 207.061 37.644C207.213 37.492 207.401 37.416 207.625 37.416C207.849 37.416 208.033 37.488 208.177 37.632C208.329 37.768 208.405 37.94 208.405 38.148C208.405 38.364 208.329 38.548 208.177 38.7C208.033 38.844 207.849 38.916 207.625 38.916ZM210.401 37.596H211.553V46.5H210.401V37.596ZM217.481 46.128C217.313 46.272 217.105 46.384 216.857 46.464C216.609 46.536 216.353 46.572 216.089 46.572C215.449 46.572 214.953 46.4 214.601 46.056C214.249 45.712 214.073 45.22 214.073 44.58V41.088H212.993V40.14H214.073V38.748H215.225V40.14H217.049V41.088H215.225V44.532C215.225 44.876 215.309 45.14 215.477 45.324C215.653 45.508 215.901 45.6 216.221 45.6C216.573 45.6 216.873 45.5 217.121 45.3L217.481 46.128ZM224.41 43.356C224.41 43.444 224.402 43.56 224.386 43.704H219.226C219.298 44.264 219.542 44.716 219.958 45.06C220.382 45.396 220.906 45.564 221.53 45.564C222.29 45.564 222.902 45.308 223.366 44.796L224.002 45.54C223.714 45.876 223.354 46.132 222.922 46.308C222.498 46.484 222.022 46.572 221.494 46.572C220.822 46.572 220.226 46.436 219.706 46.164C219.186 45.884 218.782 45.496 218.494 45C218.214 44.504 218.074 43.944 218.074 43.32C218.074 42.704 218.21 42.148 218.482 41.652C218.762 41.156 219.142 40.772 219.622 40.5C220.11 40.22 220.658 40.08 221.266 40.08C221.874 40.08 222.414 40.22 222.886 40.5C223.366 40.772 223.738 41.156 224.002 41.652C224.274 42.148 224.41 42.716 224.41 43.356ZM221.266 41.052C220.714 41.052 220.25 41.22 219.874 41.556C219.506 41.892 219.29 42.332 219.226 42.876H223.306C223.242 42.34 223.022 41.904 222.646 41.568C222.278 41.224 221.818 41.052 221.266 41.052ZM227.114 41.208C227.314 40.84 227.61 40.56 228.002 40.368C228.394 40.176 228.87 40.08 229.43 40.08V41.196C229.366 41.188 229.278 41.184 229.166 41.184C228.542 41.184 228.05 41.372 227.69 41.748C227.338 42.116 227.162 42.644 227.162 43.332V46.5H226.01V40.14H227.114V41.208Z" fill="#465361"/>
</g>
<g id="Group 2154">
<g id="Group 2153_4">
<path id="Rectangle 478_3" d="M267.597 37.0506C269.086 32.544 273.297 29.5 278.043 29.5H365.957C370.703 29.5 374.914 32.5439 376.403 37.0506L382 54H262L267.597 37.0506Z" fill="#E5EAEF"/>
<path id="Advanced Filter" d="M280.622 43.9H276.158L275.234 46H273.998L277.802 37.6H278.99L282.806 46H281.546L280.622 43.9ZM280.202 42.94L278.39 38.824L276.578 42.94H280.202ZM289.832 37.096V46H288.728V44.992C288.472 45.344 288.148 45.612 287.756 45.796C287.364 45.98 286.932 46.072 286.46 46.072C285.844 46.072 285.292 45.936 284.804 45.664C284.316 45.392 283.932 45.012 283.652 44.524C283.38 44.028 283.244 43.46 283.244 42.82C283.244 42.18 283.38 41.616 283.652 41.128C283.932 40.64 284.316 40.26 284.804 39.988C285.292 39.716 285.844 39.58 286.46 39.58C286.916 39.58 287.336 39.668 287.72 39.844C288.104 40.012 288.424 40.264 288.68 40.6V37.096H289.832ZM286.556 45.064C286.956 45.064 287.32 44.972 287.648 44.788C287.976 44.596 288.232 44.332 288.416 43.996C288.6 43.652 288.692 43.26 288.692 42.82C288.692 42.38 288.6 41.992 288.416 41.656C288.232 41.312 287.976 41.048 287.648 40.864C287.32 40.68 286.956 40.588 286.556 40.588C286.148 40.588 285.78 40.68 285.452 40.864C285.132 41.048 284.876 41.312 284.684 41.656C284.5 41.992 284.408 42.38 284.408 42.82C284.408 43.26 284.5 43.652 284.684 43.996C284.876 44.332 285.132 44.596 285.452 44.788C285.78 44.972 286.148 45.064 286.556 45.064ZM297.64 39.64L294.856 46H293.68L290.896 39.64H292.096L294.28 44.74L296.512 39.64H297.64ZM300.832 39.58C301.712 39.58 302.384 39.796 302.848 40.228C303.32 40.66 303.556 41.304 303.556 42.16V46H302.464V45.16C302.272 45.456 301.996 45.684 301.636 45.844C301.284 45.996 300.864 46.072 300.376 46.072C299.664 46.072 299.092 45.9 298.66 45.556C298.236 45.212 298.024 44.76 298.024 44.2C298.024 43.64 298.228 43.192 298.636 42.856C299.044 42.512 299.692 42.34 300.58 42.34H302.404V42.112C302.404 41.616 302.26 41.236 301.972 40.972C301.684 40.708 301.26 40.576 300.7 40.576C300.324 40.576 299.956 40.64 299.596 40.768C299.236 40.888 298.932 41.052 298.684 41.26L298.204 40.396C298.532 40.132 298.924 39.932 299.38 39.796C299.836 39.652 300.32 39.58 300.832 39.58ZM300.568 45.184C301.008 45.184 301.388 45.088 301.708 44.896C302.028 44.696 302.26 44.416 302.404 44.056V43.168H300.628C299.652 43.168 299.164 43.496 299.164 44.152C299.164 44.472 299.288 44.724 299.536 44.908C299.784 45.092 300.128 45.184 300.568 45.184ZM309.084 39.58C309.892 39.58 310.532 39.816 311.004 40.288C311.484 40.752 311.724 41.436 311.724 42.34V46H310.572V42.472C310.572 41.856 310.424 41.392 310.128 41.08C309.832 40.768 309.408 40.612 308.856 40.612C308.232 40.612 307.74 40.796 307.38 41.164C307.02 41.524 306.84 42.044 306.84 42.724V46H305.688V39.64H306.792V40.6C307.024 40.272 307.336 40.02 307.728 39.844C308.128 39.668 308.58 39.58 309.084 39.58ZM316.663 46.072C316.015 46.072 315.435 45.932 314.923 45.652C314.419 45.372 314.023 44.988 313.735 44.5C313.447 44.004 313.303 43.444 313.303 42.82C313.303 42.196 313.447 41.64 313.735 41.152C314.023 40.656 314.419 40.272 314.923 40C315.435 39.72 316.015 39.58 316.663 39.58C317.239 39.58 317.751 39.696 318.199 39.928C318.655 40.16 319.007 40.496 319.255 40.936L318.379 41.5C318.179 41.196 317.931 40.968 317.635 40.816C317.339 40.664 317.011 40.588 316.651 40.588C316.235 40.588 315.859 40.68 315.523 40.864C315.195 41.048 314.935 41.312 314.743 41.656C314.559 41.992 314.467 42.38 314.467 42.82C314.467 43.268 314.559 43.664 314.743 44.008C314.935 44.344 315.195 44.604 315.523 44.788C315.859 44.972 316.235 45.064 316.651 45.064C317.011 45.064 317.339 44.988 317.635 44.836C317.931 44.684 318.179 44.456 318.379 44.152L319.255 44.704C319.007 45.144 318.655 45.484 318.199 45.724C317.751 45.956 317.239 46.072 316.663 46.072ZM326.401 42.856C326.401 42.944 326.393 43.06 326.377 43.204H321.217C321.289 43.764 321.533 44.216 321.949 44.56C322.373 44.896 322.897 45.064 323.521 45.064C324.281 45.064 324.893 44.808 325.357 44.296L325.993 45.04C325.705 45.376 325.345 45.632 324.913 45.808C324.489 45.984 324.013 46.072 323.485 46.072C322.813 46.072 322.217 45.936 321.697 45.664C321.177 45.384 320.773 44.996 320.485 44.5C320.205 44.004 320.065 43.444 320.065 42.82C320.065 42.204 320.201 41.648 320.473 41.152C320.753 40.656 321.133 40.272 321.613 40C322.101 39.72 322.649 39.58 323.257 39.58C323.865 39.58 324.405 39.72 324.877 40C325.357 40.272 325.729 40.656 325.993 41.152C326.265 41.648 326.401 42.216 326.401 42.856ZM323.257 40.552C322.705 40.552 322.241 40.72 321.865 41.056C321.497 41.392 321.281 41.832 321.217 42.376H325.297C325.233 41.84 325.013 41.404 324.637 41.068C324.269 40.724 323.809 40.552 323.257 40.552ZM334 37.096V46H332.896V44.992C332.64 45.344 332.316 45.612 331.924 45.796C331.532 45.98 331.1 46.072 330.628 46.072C330.012 46.072 329.46 45.936 328.972 45.664C328.484 45.392 328.1 45.012 327.82 44.524C327.548 44.028 327.412 43.46 327.412 42.82C327.412 42.18 327.548 41.616 327.82 41.128C328.1 40.64 328.484 40.26 328.972 39.988C329.46 39.716 330.012 39.58 330.628 39.58C331.084 39.58 331.504 39.668 331.888 39.844C332.272 40.012 332.592 40.264 332.848 40.6V37.096H334ZM330.724 45.064C331.124 45.064 331.488 44.972 331.816 44.788C332.144 44.596 332.4 44.332 332.584 43.996C332.768 43.652 332.86 43.26 332.86 42.82C332.86 42.38 332.768 41.992 332.584 41.656C332.4 41.312 332.144 41.048 331.816 40.864C331.488 40.68 331.124 40.588 330.724 40.588C330.316 40.588 329.948 40.68 329.62 40.864C329.3 41.048 329.044 41.312 328.852 41.656C328.668 41.992 328.576 42.38 328.576 42.82C328.576 43.26 328.668 43.652 328.852 43.996C329.044 44.332 329.3 44.596 329.62 44.788C329.948 44.972 330.316 45.064 330.724 45.064ZM340.771 38.644V41.572H344.983V42.604H340.771V46H339.571V37.6H345.499V38.644H340.771ZM346.903 39.64H348.055V46H346.903V39.64ZM347.479 38.416C347.255 38.416 347.067 38.344 346.915 38.2C346.771 38.056 346.699 37.88 346.699 37.672C346.699 37.464 346.771 37.288 346.915 37.144C347.067 36.992 347.255 36.916 347.479 36.916C347.703 36.916 347.887 36.988 348.031 37.132C348.183 37.268 348.259 37.44 348.259 37.648C348.259 37.864 348.183 38.048 348.031 38.2C347.887 38.344 347.703 38.416 347.479 38.416ZM350.254 37.096H351.406V46H350.254V37.096ZM357.334 45.628C357.166 45.772 356.958 45.884 356.71 45.964C356.462 46.036 356.206 46.072 355.942 46.072C355.302 46.072 354.806 45.9 354.454 45.556C354.102 45.212 353.926 44.72 353.926 44.08V40.588H352.846V39.64H353.926V38.248H355.078V39.64H356.902V40.588H355.078V44.032C355.078 44.376 355.162 44.64 355.33 44.824C355.506 45.008 355.754 45.1 356.074 45.1C356.426 45.1 356.726 45 356.974 44.8L357.334 45.628ZM364.264 42.856C364.264 42.944 364.256 43.06 364.24 43.204H359.08C359.152 43.764 359.396 44.216 359.812 44.56C360.236 44.896 360.76 45.064 361.384 45.064C362.144 45.064 362.756 44.808 363.22 44.296L363.856 45.04C363.568 45.376 363.208 45.632 362.776 45.808C362.352 45.984 361.876 46.072 361.348 46.072C360.676 46.072 360.08 45.936 359.56 45.664C359.04 45.384 358.636 44.996 358.348 44.5C358.068 44.004 357.928 43.444 357.928 42.82C357.928 42.204 358.064 41.648 358.336 41.152C358.616 40.656 358.996 40.272 359.476 40C359.964 39.72 360.512 39.58 361.12 39.58C361.728 39.58 362.268 39.72 362.74 40C363.22 40.272 363.592 40.656 363.856 41.152C364.128 41.648 364.264 42.216 364.264 42.856ZM361.12 40.552C360.568 40.552 360.104 40.72 359.728 41.056C359.36 41.392 359.144 41.832 359.08 42.376H363.16C363.096 41.84 362.876 41.404 362.5 41.068C362.132 40.724 361.672 40.552 361.12 40.552ZM366.967 40.708C367.167 40.34 367.463 40.06 367.855 39.868C368.247 39.676 368.723 39.58 369.283 39.58V40.696C369.219 40.688 369.131 40.684 369.019 40.684C368.395 40.684 367.903 40.872 367.543 41.248C367.191 41.616 367.015 42.144 367.015 42.832V46H365.863V39.64H366.967V40.708Z" fill="#465361"/>
</g>
</g>
<g id="Group 2155">
<g id="Group 2153_5">
<path id="Rectangle 478_4" d="M387.597 37.0506C389.086 32.544 393.297 29.5 398.043 29.5H449.957C454.703 29.5 458.914 32.5439 460.403 37.0506L466 54H382L387.597 37.0506Z" fill="#E5EAEF"/>
<path id="FTP/SFTP" d="M401.388 39.87V42.31H404.898V43.17H401.388V46H400.388V39H405.328V39.87H401.388ZM408.174 39.87H405.774V39H411.564V39.87H409.164V46H408.174V39.87ZM415.384 39C416.29 39 417.004 39.2167 417.524 39.65C418.044 40.0833 418.304 40.68 418.304 41.44C418.304 42.2 418.044 42.7967 417.524 43.23C417.004 43.6633 416.29 43.88 415.384 43.88H413.654V46H412.654V39H415.384ZM415.354 43.01C415.987 43.01 416.47 42.8767 416.804 42.61C417.137 42.3367 417.304 41.9467 417.304 41.44C417.304 40.9333 417.137 40.5467 416.804 40.28C416.47 40.0067 415.987 39.87 415.354 39.87H413.654V43.01H415.354ZM421.372 37.58H422.242L418.942 47H418.072L421.372 37.58ZM424.762 46.08C424.235 46.08 423.725 46 423.232 45.84C422.745 45.6733 422.362 45.46 422.082 45.2L422.452 44.42C422.719 44.66 423.059 44.8567 423.472 45.01C423.892 45.1567 424.322 45.23 424.762 45.23C425.342 45.23 425.775 45.1333 426.062 44.94C426.349 44.74 426.492 44.4767 426.492 44.15C426.492 43.91 426.412 43.7167 426.252 43.57C426.099 43.4167 425.905 43.3 425.672 43.22C425.445 43.14 425.122 43.05 424.702 42.95C424.175 42.8233 423.749 42.6967 423.422 42.57C423.102 42.4433 422.825 42.25 422.592 41.99C422.365 41.7233 422.252 41.3667 422.252 40.92C422.252 40.5467 422.349 40.21 422.542 39.91C422.742 39.61 423.042 39.37 423.442 39.19C423.842 39.01 424.339 38.92 424.932 38.92C425.345 38.92 425.752 38.9733 426.152 39.08C426.552 39.1867 426.895 39.34 427.182 39.54L426.852 40.34C426.559 40.1533 426.245 40.0133 425.912 39.92C425.579 39.82 425.252 39.77 424.932 39.77C424.365 39.77 423.939 39.8733 423.652 40.08C423.372 40.2867 423.232 40.5533 423.232 40.88C423.232 41.12 423.312 41.3167 423.472 41.47C423.632 41.6167 423.829 41.7333 424.062 41.82C424.302 41.9 424.625 41.9867 425.032 42.08C425.559 42.2067 425.982 42.3333 426.302 42.46C426.622 42.5867 426.895 42.78 427.122 43.04C427.355 43.3 427.472 43.65 427.472 44.09C427.472 44.4567 427.372 44.7933 427.172 45.1C426.972 45.4 426.669 45.64 426.262 45.82C425.855 45.9933 425.355 46.08 424.762 46.08ZM429.933 39.87V42.31H433.443V43.17H429.933V46H428.933V39H433.873V39.87H429.933ZM436.719 39.87H434.319V39H440.109V39.87H437.709V46H436.719V39.87ZM443.928 39C444.835 39 445.548 39.2167 446.068 39.65C446.588 40.0833 446.848 40.68 446.848 41.44C446.848 42.2 446.588 42.7967 446.068 43.23C445.548 43.6633 444.835 43.88 443.928 43.88H442.198V46H441.198V39H443.928ZM443.898 43.01C444.532 43.01 445.015 42.8767 445.348 42.61C445.682 42.3367 445.848 41.9467 445.848 41.44C445.848 40.9333 445.682 40.5467 445.348 40.28C445.015 40.0067 444.532 39.87 443.898 39.87H442.198V43.01H443.898Z" fill="#465361"/>
</g>
</g>
</g>
</g>
</g>
</g>
<defs>
<filter id="filter0_d" x="45" y="29" width="530" height="297" filterUnits="userSpaceOnUse" color-interpolation-filters="sRGB">
<feFlood flood-opacity="0" result="BackgroundImageFix"/>
<feColorMatrix in="SourceAlpha" type="matrix" values="0 0 0 0 0 0 0 0 0 0 0 0 0 0 0 0 0 0 127 0"/>
<feOffset/>
<feGaussianBlur stdDeviation="2.5"/>
<feColorMatrix type="matrix" values="0 0 0 0 0 0 0 0 0 0.447059 0 0 0 0 0.815686 0 0 0 0.02 0"/>
<feBlend mode="normal" in2="BackgroundImageFix" result="effect1_dropShadow"/>
<feBlend mode="normal" in="SourceGraphic" in2="effect1_dropShadow" result="shape"/>
</filter>
<filter id="filter1_d" x="0" y="0" width="580" height="346" filterUnits="userSpaceOnUse" color-interpolation-filters="sRGB">
<feFlood flood-opacity="0" result="BackgroundImageFix"/>
<feColorMatrix in="SourceAlpha" type="matrix" values="0 0 0 0 0 0 0 0 0 0 0 0 0 0 0 0 0 0 127 0"/>
<feOffset dy="15"/>
<feGaussianBlur stdDeviation="15"/>
<feColorMatrix type="matrix" values="0 0 0 0 0.788235 0 0 0 0 0.788235 0 0 0 0 0.788235 0 0 0 0.3 0"/>
<feBlend mode="normal" in2="BackgroundImageFix" result="effect1_dropShadow"/>
<feBlend mode="normal" in="SourceGraphic" in2="effect1_dropShadow" result="shape"/>
</filter>
</defs>
</svg>
