<svg width="545" height="227" viewBox="0 0 545 227" fill="none" xmlns="http://www.w3.org/2000/svg">
<g id="Frame 7">
<g id="include exclude products" opacity="0.8">
<g id="Rectangle 512" filter="url(#filter0_d)">
<rect x="20" y="22" width="520" height="200" rx="10" fill="#F6FAFD"/>
</g>
<path id="bg" d="M10 0.5H510C515.247 0.5 519.5 4.7533 519.5 10V190C519.5 195.247 515.247 199.5 510 199.5H10C4.7533 199.5 0.5 195.247 0.5 190V10C0.5 4.7533 4.7533 0.5 10 0.5Z" fill="white" stroke="#E5EAEF"/>
<g id="top">
<path id="top bg" d="M1 11C1 5.47715 5.47715 1 11 1H511C516.523 1 521 5.47715 521 11V39H1V11Z" fill="#F6F8FB"/>
<g id="tabs">
<g id="Group 2153">
<g id="Group 2153_2">
<path id="Rectangle 478" d="M42.7458 22.0506C44.2341 17.544 48.445 14.5 53.191 14.5H120.106C124.852 14.5 129.063 17.5439 130.551 22.0506L136.148 39H37.1484L42.7458 22.0506Z" fill="#E5EAEF"/>
<path id="Feed Config" d="M51.6944 23.644V26.572H55.9064V27.604H51.6944V31H50.4944V22.6H56.4224V23.644H51.6944ZM63.4923 27.856C63.4923 27.944 63.4843 28.06 63.4683 28.204H58.3083C58.3803 28.764 58.6243 29.216 59.0403 29.56C59.4643 29.896 59.9883 30.064 60.6123 30.064C61.3723 30.064 61.9843 29.808 62.4483 29.296L63.0843 30.04C62.7963 30.376 62.4363 30.632 62.0043 30.808C61.5803 30.984 61.1043 31.072 60.5763 31.072C59.9043 31.072 59.3083 30.936 58.7883 30.664C58.2683 30.384 57.8643 29.996 57.5763 29.5C57.2963 29.004 57.1563 28.444 57.1563 27.82C57.1563 27.204 57.2923 26.648 57.5643 26.152C57.8443 25.656 58.2243 25.272 58.7043 25C59.1923 24.72 59.7403 24.58 60.3483 24.58C60.9563 24.58 61.4963 24.72 61.9683 25C62.4483 25.272 62.8203 25.656 63.0843 26.152C63.3563 26.648 63.4923 27.216 63.4923 27.856ZM60.3483 25.552C59.7963 25.552 59.3323 25.72 58.9563 26.056C58.5883 26.392 58.3723 26.832 58.3083 27.376H62.3883C62.3243 26.84 62.1043 26.404 61.7283 26.068C61.3603 25.724 60.9003 25.552 60.3483 25.552ZM70.84 27.856C70.84 27.944 70.832 28.06 70.816 28.204H65.656C65.728 28.764 65.972 29.216 66.388 29.56C66.812 29.896 67.336 30.064 67.96 30.064C68.72 30.064 69.332 29.808 69.796 29.296L70.432 30.04C70.144 30.376 69.784 30.632 69.352 30.808C68.928 30.984 68.452 31.072 67.924 31.072C67.252 31.072 66.656 30.936 66.136 30.664C65.616 30.384 65.212 29.996 64.924 29.5C64.644 29.004 64.504 28.444 64.504 27.82C64.504 27.204 64.64 26.648 64.912 26.152C65.192 25.656 65.572 25.272 66.052 25C66.54 24.72 67.088 24.58 67.696 24.58C68.304 24.58 68.844 24.72 69.316 25C69.796 25.272 70.168 25.656 70.432 26.152C70.704 26.648 70.84 27.216 70.84 27.856ZM67.696 25.552C67.144 25.552 66.68 25.72 66.304 26.056C65.936 26.392 65.72 26.832 65.656 27.376H69.736C69.672 26.84 69.452 26.404 69.076 26.068C68.708 25.724 68.248 25.552 67.696 25.552ZM78.4397 22.096V31H77.3357V29.992C77.0797 30.344 76.7557 30.612 76.3637 30.796C75.9717 30.98 75.5397 31.072 75.0677 31.072C74.4517 31.072 73.8997 30.936 73.4117 30.664C72.9237 30.392 72.5397 30.012 72.2597 29.524C71.9877 29.028 71.8517 28.46 71.8517 27.82C71.8517 27.18 71.9877 26.616 72.2597 26.128C72.5397 25.64 72.9237 25.26 73.4117 24.988C73.8997 24.716 74.4517 24.58 75.0677 24.58C75.5237 24.58 75.9437 24.668 76.3277 24.844C76.7117 25.012 77.0317 25.264 77.2877 25.6V22.096H78.4397ZM75.1637 30.064C75.5637 30.064 75.9277 29.972 76.2557 29.788C76.5837 29.596 76.8397 29.332 77.0237 28.996C77.2077 28.652 77.2997 28.26 77.2997 27.82C77.2997 27.38 77.2077 26.992 77.0237 26.656C76.8397 26.312 76.5837 26.048 76.2557 25.864C75.9277 25.68 75.5637 25.588 75.1637 25.588C74.7557 25.588 74.3877 25.68 74.0597 25.864C73.7397 26.048 73.4837 26.312 73.2917 26.656C73.1077 26.992 73.0157 27.38 73.0157 27.82C73.0157 28.26 73.1077 28.652 73.2917 28.996C73.4837 29.332 73.7397 29.596 74.0597 29.788C74.3877 29.972 74.7557 30.064 75.1637 30.064ZM87.766 31.096C86.926 31.096 86.166 30.912 85.486 30.544C84.814 30.168 84.286 29.656 83.902 29.008C83.518 28.352 83.326 27.616 83.326 26.8C83.326 25.984 83.518 25.252 83.902 24.604C84.286 23.948 84.818 23.436 85.498 23.068C86.178 22.692 86.938 22.504 87.778 22.504C88.434 22.504 89.034 22.616 89.578 22.84C90.122 23.056 90.586 23.38 90.97 23.812L90.19 24.568C89.558 23.904 88.77 23.572 87.826 23.572C87.202 23.572 86.638 23.712 86.134 23.992C85.63 24.272 85.234 24.66 84.946 25.156C84.666 25.644 84.526 26.192 84.526 26.8C84.526 27.408 84.666 27.96 84.946 28.456C85.234 28.944 85.63 29.328 86.134 29.608C86.638 29.888 87.202 30.028 87.826 30.028C88.762 30.028 89.55 29.692 90.19 29.02L90.97 29.776C90.586 30.208 90.118 30.536 89.566 30.76C89.022 30.984 88.422 31.096 87.766 31.096ZM94.9683 31.072C94.3363 31.072 93.7683 30.932 93.2643 30.652C92.7603 30.372 92.3643 29.988 92.0763 29.5C91.7963 29.004 91.6563 28.444 91.6563 27.82C91.6563 27.196 91.7963 26.64 92.0763 26.152C92.3643 25.656 92.7603 25.272 93.2643 25C93.7683 24.72 94.3363 24.58 94.9683 24.58C95.6003 24.58 96.1643 24.72 96.6603 25C97.1643 25.272 97.5563 25.656 97.8363 26.152C98.1243 26.64 98.2683 27.196 98.2683 27.82C98.2683 28.444 98.1243 29.004 97.8363 29.5C97.5563 29.988 97.1643 30.372 96.6603 30.652C96.1643 30.932 95.6003 31.072 94.9683 31.072ZM94.9683 30.064C95.3763 30.064 95.7403 29.972 96.0603 29.788C96.3883 29.596 96.6443 29.332 96.8283 28.996C97.0123 28.652 97.1043 28.26 97.1043 27.82C97.1043 27.38 97.0123 26.992 96.8283 26.656C96.6443 26.312 96.3883 26.048 96.0603 25.864C95.7403 25.68 95.3763 25.588 94.9683 25.588C94.5603 25.588 94.1923 25.68 93.8643 25.864C93.5443 26.048 93.2883 26.312 93.0963 26.656C92.9123 26.992 92.8203 27.38 92.8203 27.82C92.8203 28.26 92.9123 28.652 93.0963 28.996C93.2883 29.332 93.5443 29.596 93.8643 29.788C94.1923 29.972 94.5603 30.064 94.9683 30.064ZM103.258 24.58C104.066 24.58 104.706 24.816 105.178 25.288C105.658 25.752 105.898 26.436 105.898 27.34V31H104.746V27.472C104.746 26.856 104.598 26.392 104.302 26.08C104.006 25.768 103.582 25.612 103.03 25.612C102.406 25.612 101.914 25.796 101.554 26.164C101.194 26.524 101.014 27.044 101.014 27.724V31H99.8615V24.64H100.966V25.6C101.198 25.272 101.51 25.02 101.902 24.844C102.302 24.668 102.754 24.58 103.258 24.58ZM110.358 22.972C109.67 22.972 109.326 23.344 109.326 24.088V24.64H111.174V25.588H109.35V31H108.198V25.588H107.118V24.64H108.198V24.076C108.198 23.444 108.382 22.944 108.75 22.576C109.118 22.208 109.634 22.024 110.298 22.024C110.554 22.024 110.794 22.056 111.018 22.12C111.242 22.184 111.434 22.276 111.594 22.396L111.246 23.272C110.982 23.072 110.686 22.972 110.358 22.972ZM113.226 24.64H114.378V31H113.226V24.64ZM113.802 23.416C113.578 23.416 113.39 23.344 113.238 23.2C113.094 23.056 113.022 22.88 113.022 22.672C113.022 22.464 113.094 22.288 113.238 22.144C113.39 21.992 113.578 21.916 113.802 21.916C114.026 21.916 114.21 21.988 114.354 22.132C114.506 22.268 114.582 22.44 114.582 22.648C114.582 22.864 114.506 23.048 114.354 23.2C114.21 23.344 114.026 23.416 113.802 23.416ZM122.656 24.64V30.136C122.656 31.248 122.38 32.068 121.828 32.596C121.276 33.132 120.452 33.4 119.356 33.4C118.756 33.4 118.184 33.316 117.64 33.148C117.096 32.988 116.656 32.756 116.32 32.452L116.872 31.564C117.168 31.82 117.532 32.02 117.964 32.164C118.404 32.316 118.856 32.392 119.32 32.392C120.064 32.392 120.612 32.216 120.964 31.864C121.324 31.512 121.504 30.976 121.504 30.256V29.752C121.232 30.08 120.896 30.328 120.496 30.496C120.104 30.656 119.676 30.736 119.212 30.736C118.604 30.736 118.052 30.608 117.556 30.352C117.068 30.088 116.684 29.724 116.404 29.26C116.124 28.788 115.984 28.252 115.984 27.652C115.984 27.052 116.124 26.52 116.404 26.056C116.684 25.584 117.068 25.22 117.556 24.964C118.052 24.708 118.604 24.58 119.212 24.58C119.692 24.58 120.136 24.668 120.544 24.844C120.96 25.02 121.3 25.28 121.564 25.624V24.64H122.656ZM119.344 29.728C119.76 29.728 120.132 29.64 120.46 29.464C120.796 29.288 121.056 29.044 121.24 28.732C121.432 28.412 121.528 28.052 121.528 27.652C121.528 27.036 121.324 26.54 120.916 26.164C120.508 25.78 119.984 25.588 119.344 25.588C118.696 25.588 118.168 25.78 117.76 26.164C117.352 26.54 117.148 27.036 117.148 27.652C117.148 28.052 117.24 28.412 117.424 28.732C117.616 29.044 117.876 29.288 118.204 29.464C118.54 29.64 118.92 29.728 119.344 29.728Z" fill="#465361"/>
</g>
</g>
<g id="Group 2151">
<g id="Group 2153_3">
<path id="Rectangle 478_2" d="M141.746 22.0506C143.234 17.544 147.445 14.5 152.191 14.5H216.106C220.852 14.5 225.063 17.5439 226.551 22.0506L232.148 39H136.148L141.746 22.0506Z" fill="#E5EAEF"/>
<path id="Rectangle 476" d="M142.944 23.4544C144.461 18.997 148.648 16 153.357 16H214.944C219.653 16 223.839 18.997 225.357 23.4544L230.65 39H137.65L142.944 23.4544Z" fill="white"/>
</g>
<path id="Filter" d="M170.917 24.144V27.072H175.129V28.104H170.917V31.5H169.717V23.1H175.645V24.144H170.917ZM177.049 25.14H178.201V31.5H177.049V25.14ZM177.625 23.916C177.401 23.916 177.213 23.844 177.061 23.7C176.917 23.556 176.845 23.38 176.845 23.172C176.845 22.964 176.917 22.788 177.061 22.644C177.213 22.492 177.401 22.416 177.625 22.416C177.849 22.416 178.033 22.488 178.177 22.632C178.329 22.768 178.405 22.94 178.405 23.148C178.405 23.364 178.329 23.548 178.177 23.7C178.033 23.844 177.849 23.916 177.625 23.916ZM180.401 22.596H181.553V31.5H180.401V22.596ZM187.481 31.128C187.313 31.272 187.105 31.384 186.857 31.464C186.609 31.536 186.353 31.572 186.089 31.572C185.449 31.572 184.953 31.4 184.601 31.056C184.249 30.712 184.073 30.22 184.073 29.58V26.088H182.993V25.14H184.073V23.748H185.225V25.14H187.049V26.088H185.225V29.532C185.225 29.876 185.309 30.14 185.477 30.324C185.653 30.508 185.901 30.6 186.221 30.6C186.573 30.6 186.873 30.5 187.121 30.3L187.481 31.128ZM194.41 28.356C194.41 28.444 194.402 28.56 194.386 28.704H189.226C189.298 29.264 189.542 29.716 189.958 30.06C190.382 30.396 190.906 30.564 191.53 30.564C192.29 30.564 192.902 30.308 193.366 29.796L194.002 30.54C193.714 30.876 193.354 31.132 192.922 31.308C192.498 31.484 192.022 31.572 191.494 31.572C190.822 31.572 190.226 31.436 189.706 31.164C189.186 30.884 188.782 30.496 188.494 30C188.214 29.504 188.074 28.944 188.074 28.32C188.074 27.704 188.21 27.148 188.482 26.652C188.762 26.156 189.142 25.772 189.622 25.5C190.11 25.22 190.658 25.08 191.266 25.08C191.874 25.08 192.414 25.22 192.886 25.5C193.366 25.772 193.738 26.156 194.002 26.652C194.274 27.148 194.41 27.716 194.41 28.356ZM191.266 26.052C190.714 26.052 190.25 26.22 189.874 26.556C189.506 26.892 189.29 27.332 189.226 27.876H193.306C193.242 27.34 193.022 26.904 192.646 26.568C192.278 26.224 191.818 26.052 191.266 26.052ZM197.114 26.208C197.314 25.84 197.61 25.56 198.002 25.368C198.394 25.176 198.87 25.08 199.43 25.08V26.196C199.366 26.188 199.278 26.184 199.166 26.184C198.542 26.184 198.05 26.372 197.69 26.748C197.338 27.116 197.162 27.644 197.162 28.332V31.5H196.01V25.14H197.114V26.208Z" fill="#465361"/>
</g>
<g id="Group 2154">
<g id="Group 2153_4">
<path id="Rectangle 478_3" d="M237.597 22.0506C239.086 17.544 243.297 14.5 248.043 14.5H335.957C340.703 14.5 344.914 17.5439 346.403 22.0506L352 39H232L237.597 22.0506Z" fill="#E5EAEF"/>
<path id="Advanced Filter" d="M250.622 28.9H246.158L245.234 31H243.998L247.802 22.6H248.99L252.806 31H251.546L250.622 28.9ZM250.202 27.94L248.39 23.824L246.578 27.94H250.202ZM259.832 22.096V31H258.728V29.992C258.472 30.344 258.148 30.612 257.756 30.796C257.364 30.98 256.932 31.072 256.46 31.072C255.844 31.072 255.292 30.936 254.804 30.664C254.316 30.392 253.932 30.012 253.652 29.524C253.38 29.028 253.244 28.46 253.244 27.82C253.244 27.18 253.38 26.616 253.652 26.128C253.932 25.64 254.316 25.26 254.804 24.988C255.292 24.716 255.844 24.58 256.46 24.58C256.916 24.58 257.336 24.668 257.72 24.844C258.104 25.012 258.424 25.264 258.68 25.6V22.096H259.832ZM256.556 30.064C256.956 30.064 257.32 29.972 257.648 29.788C257.976 29.596 258.232 29.332 258.416 28.996C258.6 28.652 258.692 28.26 258.692 27.82C258.692 27.38 258.6 26.992 258.416 26.656C258.232 26.312 257.976 26.048 257.648 25.864C257.32 25.68 256.956 25.588 256.556 25.588C256.148 25.588 255.78 25.68 255.452 25.864C255.132 26.048 254.876 26.312 254.684 26.656C254.5 26.992 254.408 27.38 254.408 27.82C254.408 28.26 254.5 28.652 254.684 28.996C254.876 29.332 255.132 29.596 255.452 29.788C255.78 29.972 256.148 30.064 256.556 30.064ZM267.64 24.64L264.856 31H263.68L260.896 24.64H262.096L264.28 29.74L266.512 24.64H267.64ZM270.832 24.58C271.712 24.58 272.384 24.796 272.848 25.228C273.32 25.66 273.556 26.304 273.556 27.16V31H272.464V30.16C272.272 30.456 271.996 30.684 271.636 30.844C271.284 30.996 270.864 31.072 270.376 31.072C269.664 31.072 269.092 30.9 268.66 30.556C268.236 30.212 268.024 29.76 268.024 29.2C268.024 28.64 268.228 28.192 268.636 27.856C269.044 27.512 269.692 27.34 270.58 27.34H272.404V27.112C272.404 26.616 272.26 26.236 271.972 25.972C271.684 25.708 271.26 25.576 270.7 25.576C270.324 25.576 269.956 25.64 269.596 25.768C269.236 25.888 268.932 26.052 268.684 26.26L268.204 25.396C268.532 25.132 268.924 24.932 269.38 24.796C269.836 24.652 270.32 24.58 270.832 24.58ZM270.568 30.184C271.008 30.184 271.388 30.088 271.708 29.896C272.028 29.696 272.26 29.416 272.404 29.056V28.168H270.628C269.652 28.168 269.164 28.496 269.164 29.152C269.164 29.472 269.288 29.724 269.536 29.908C269.784 30.092 270.128 30.184 270.568 30.184ZM279.084 24.58C279.892 24.58 280.532 24.816 281.004 25.288C281.484 25.752 281.724 26.436 281.724 27.34V31H280.572V27.472C280.572 26.856 280.424 26.392 280.128 26.08C279.832 25.768 279.408 25.612 278.856 25.612C278.232 25.612 277.74 25.796 277.38 26.164C277.02 26.524 276.84 27.044 276.84 27.724V31H275.688V24.64H276.792V25.6C277.024 25.272 277.336 25.02 277.728 24.844C278.128 24.668 278.58 24.58 279.084 24.58ZM286.663 31.072C286.015 31.072 285.435 30.932 284.923 30.652C284.419 30.372 284.023 29.988 283.735 29.5C283.447 29.004 283.303 28.444 283.303 27.82C283.303 27.196 283.447 26.64 283.735 26.152C284.023 25.656 284.419 25.272 284.923 25C285.435 24.72 286.015 24.58 286.663 24.58C287.239 24.58 287.751 24.696 288.199 24.928C288.655 25.16 289.007 25.496 289.255 25.936L288.379 26.5C288.179 26.196 287.931 25.968 287.635 25.816C287.339 25.664 287.011 25.588 286.651 25.588C286.235 25.588 285.859 25.68 285.523 25.864C285.195 26.048 284.935 26.312 284.743 26.656C284.559 26.992 284.467 27.38 284.467 27.82C284.467 28.268 284.559 28.664 284.743 29.008C284.935 29.344 285.195 29.604 285.523 29.788C285.859 29.972 286.235 30.064 286.651 30.064C287.011 30.064 287.339 29.988 287.635 29.836C287.931 29.684 288.179 29.456 288.379 29.152L289.255 29.704C289.007 30.144 288.655 30.484 288.199 30.724C287.751 30.956 287.239 31.072 286.663 31.072ZM296.401 27.856C296.401 27.944 296.393 28.06 296.377 28.204H291.217C291.289 28.764 291.533 29.216 291.949 29.56C292.373 29.896 292.897 30.064 293.521 30.064C294.281 30.064 294.893 29.808 295.357 29.296L295.993 30.04C295.705 30.376 295.345 30.632 294.913 30.808C294.489 30.984 294.013 31.072 293.485 31.072C292.813 31.072 292.217 30.936 291.697 30.664C291.177 30.384 290.773 29.996 290.485 29.5C290.205 29.004 290.065 28.444 290.065 27.82C290.065 27.204 290.201 26.648 290.473 26.152C290.753 25.656 291.133 25.272 291.613 25C292.101 24.72 292.649 24.58 293.257 24.58C293.865 24.58 294.405 24.72 294.877 25C295.357 25.272 295.729 25.656 295.993 26.152C296.265 26.648 296.401 27.216 296.401 27.856ZM293.257 25.552C292.705 25.552 292.241 25.72 291.865 26.056C291.497 26.392 291.281 26.832 291.217 27.376H295.297C295.233 26.84 295.013 26.404 294.637 26.068C294.269 25.724 293.809 25.552 293.257 25.552ZM304 22.096V31H302.896V29.992C302.64 30.344 302.316 30.612 301.924 30.796C301.532 30.98 301.1 31.072 300.628 31.072C300.012 31.072 299.46 30.936 298.972 30.664C298.484 30.392 298.1 30.012 297.82 29.524C297.548 29.028 297.412 28.46 297.412 27.82C297.412 27.18 297.548 26.616 297.82 26.128C298.1 25.64 298.484 25.26 298.972 24.988C299.46 24.716 300.012 24.58 300.628 24.58C301.084 24.58 301.504 24.668 301.888 24.844C302.272 25.012 302.592 25.264 302.848 25.6V22.096H304ZM300.724 30.064C301.124 30.064 301.488 29.972 301.816 29.788C302.144 29.596 302.4 29.332 302.584 28.996C302.768 28.652 302.86 28.26 302.86 27.82C302.86 27.38 302.768 26.992 302.584 26.656C302.4 26.312 302.144 26.048 301.816 25.864C301.488 25.68 301.124 25.588 300.724 25.588C300.316 25.588 299.948 25.68 299.62 25.864C299.3 26.048 299.044 26.312 298.852 26.656C298.668 26.992 298.576 27.38 298.576 27.82C298.576 28.26 298.668 28.652 298.852 28.996C299.044 29.332 299.3 29.596 299.62 29.788C299.948 29.972 300.316 30.064 300.724 30.064ZM310.771 23.644V26.572H314.983V27.604H310.771V31H309.571V22.6H315.499V23.644H310.771ZM316.903 24.64H318.055V31H316.903V24.64ZM317.479 23.416C317.255 23.416 317.067 23.344 316.915 23.2C316.771 23.056 316.699 22.88 316.699 22.672C316.699 22.464 316.771 22.288 316.915 22.144C317.067 21.992 317.255 21.916 317.479 21.916C317.703 21.916 317.887 21.988 318.031 22.132C318.183 22.268 318.259 22.44 318.259 22.648C318.259 22.864 318.183 23.048 318.031 23.2C317.887 23.344 317.703 23.416 317.479 23.416ZM320.254 22.096H321.406V31H320.254V22.096ZM327.334 30.628C327.166 30.772 326.958 30.884 326.71 30.964C326.462 31.036 326.206 31.072 325.942 31.072C325.302 31.072 324.806 30.9 324.454 30.556C324.102 30.212 323.926 29.72 323.926 29.08V25.588H322.846V24.64H323.926V23.248H325.078V24.64H326.902V25.588H325.078V29.032C325.078 29.376 325.162 29.64 325.33 29.824C325.506 30.008 325.754 30.1 326.074 30.1C326.426 30.1 326.726 30 326.974 29.8L327.334 30.628ZM334.264 27.856C334.264 27.944 334.256 28.06 334.24 28.204H329.08C329.152 28.764 329.396 29.216 329.812 29.56C330.236 29.896 330.76 30.064 331.384 30.064C332.144 30.064 332.756 29.808 333.22 29.296L333.856 30.04C333.568 30.376 333.208 30.632 332.776 30.808C332.352 30.984 331.876 31.072 331.348 31.072C330.676 31.072 330.08 30.936 329.56 30.664C329.04 30.384 328.636 29.996 328.348 29.5C328.068 29.004 327.928 28.444 327.928 27.82C327.928 27.204 328.064 26.648 328.336 26.152C328.616 25.656 328.996 25.272 329.476 25C329.964 24.72 330.512 24.58 331.12 24.58C331.728 24.58 332.268 24.72 332.74 25C333.22 25.272 333.592 25.656 333.856 26.152C334.128 26.648 334.264 27.216 334.264 27.856ZM331.12 25.552C330.568 25.552 330.104 25.72 329.728 26.056C329.36 26.392 329.144 26.832 329.08 27.376H333.16C333.096 26.84 332.876 26.404 332.5 26.068C332.132 25.724 331.672 25.552 331.12 25.552ZM336.967 25.708C337.167 25.34 337.463 25.06 337.855 24.868C338.247 24.676 338.723 24.58 339.283 24.58V25.696C339.219 25.688 339.131 25.684 339.019 25.684C338.395 25.684 337.903 25.872 337.543 26.248C337.191 26.616 337.015 27.144 337.015 27.832V31H335.863V24.64H336.967V25.708Z" fill="#465361"/>
</g>
</g>
<g id="Group 2155">
<g id="Group 2153_5">
<path id="Rectangle 478_4" d="M357.597 22.0506C359.086 17.544 363.297 14.5 368.043 14.5H419.957C424.703 14.5 428.914 17.5439 430.403 22.0506L436 39H352L357.597 22.0506Z" fill="#E5EAEF"/>
<path id="FTP/SFTP" d="M371.388 24.87V27.31H374.898V28.17H371.388V31H370.388V24H375.328V24.87H371.388ZM378.174 24.87H375.774V24H381.564V24.87H379.164V31H378.174V24.87ZM385.384 24C386.29 24 387.004 24.2167 387.524 24.65C388.044 25.0833 388.304 25.68 388.304 26.44C388.304 27.2 388.044 27.7967 387.524 28.23C387.004 28.6633 386.29 28.88 385.384 28.88H383.654V31H382.654V24H385.384ZM385.354 28.01C385.987 28.01 386.47 27.8767 386.804 27.61C387.137 27.3367 387.304 26.9467 387.304 26.44C387.304 25.9333 387.137 25.5467 386.804 25.28C386.47 25.0067 385.987 24.87 385.354 24.87H383.654V28.01H385.354ZM391.372 22.58H392.242L388.942 32H388.072L391.372 22.58ZM394.762 31.08C394.235 31.08 393.725 31 393.232 30.84C392.745 30.6733 392.362 30.46 392.082 30.2L392.452 29.42C392.719 29.66 393.059 29.8567 393.472 30.01C393.892 30.1567 394.322 30.23 394.762 30.23C395.342 30.23 395.775 30.1333 396.062 29.94C396.349 29.74 396.492 29.4767 396.492 29.15C396.492 28.91 396.412 28.7167 396.252 28.57C396.099 28.4167 395.905 28.3 395.672 28.22C395.445 28.14 395.122 28.05 394.702 27.95C394.175 27.8233 393.749 27.6967 393.422 27.57C393.102 27.4433 392.825 27.25 392.592 26.99C392.365 26.7233 392.252 26.3667 392.252 25.92C392.252 25.5467 392.349 25.21 392.542 24.91C392.742 24.61 393.042 24.37 393.442 24.19C393.842 24.01 394.339 23.92 394.932 23.92C395.345 23.92 395.752 23.9733 396.152 24.08C396.552 24.1867 396.895 24.34 397.182 24.54L396.852 25.34C396.559 25.1533 396.245 25.0133 395.912 24.92C395.579 24.82 395.252 24.77 394.932 24.77C394.365 24.77 393.939 24.8733 393.652 25.08C393.372 25.2867 393.232 25.5533 393.232 25.88C393.232 26.12 393.312 26.3167 393.472 26.47C393.632 26.6167 393.829 26.7333 394.062 26.82C394.302 26.9 394.625 26.9867 395.032 27.08C395.559 27.2067 395.982 27.3333 396.302 27.46C396.622 27.5867 396.895 27.78 397.122 28.04C397.355 28.3 397.472 28.65 397.472 29.09C397.472 29.4567 397.372 29.7933 397.172 30.1C396.972 30.4 396.669 30.64 396.262 30.82C395.855 30.9933 395.355 31.08 394.762 31.08ZM399.933 24.87V27.31H403.443V28.17H399.933V31H398.933V24H403.873V24.87H399.933ZM406.719 24.87H404.319V24H410.109V24.87H407.709V31H406.719V24.87ZM413.928 24C414.835 24 415.548 24.2167 416.068 24.65C416.588 25.0833 416.848 25.68 416.848 26.44C416.848 27.2 416.588 27.7967 416.068 28.23C415.548 28.6633 414.835 28.88 413.928 28.88H412.198V31H411.198V24H413.928ZM413.898 28.01C414.532 28.01 415.015 27.8767 415.348 27.61C415.682 27.3367 415.848 26.9467 415.848 26.44C415.848 25.9333 415.682 25.5467 415.348 25.28C415.015 25.0067 414.532 24.87 413.898 24.87H412.198V28.01H413.898Z" fill="#465361"/>
</g>
</g>
</g>
</g>
<g id="form">
<g id="Group 2074">
<path id="Product IDs" d="M34.536 90.6C35.624 90.6 36.48 90.86 37.104 91.38C37.728 91.9 38.04 92.616 38.04 93.528C38.04 94.44 37.728 95.156 37.104 95.676C36.48 96.196 35.624 96.456 34.536 96.456H32.46V99H31.26V90.6H34.536ZM34.5 95.412C35.26 95.412 35.84 95.252 36.24 94.932C36.64 94.604 36.84 94.136 36.84 93.528C36.84 92.92 36.64 92.456 36.24 92.136C35.84 91.808 35.26 91.644 34.5 91.644H32.46V95.412H34.5ZM40.6335 93.708C40.8335 93.34 41.1295 93.06 41.5215 92.868C41.9135 92.676 42.3895 92.58 42.9495 92.58V93.696C42.8855 93.688 42.7975 93.684 42.6855 93.684C42.0615 93.684 41.5695 93.872 41.2095 94.248C40.8575 94.616 40.6815 95.144 40.6815 95.832V99H39.5295V92.64H40.6335V93.708ZM47.0348 99.072C46.4028 99.072 45.8348 98.932 45.3308 98.652C44.8268 98.372 44.4308 97.988 44.1428 97.5C43.8628 97.004 43.7228 96.444 43.7228 95.82C43.7228 95.196 43.8628 94.64 44.1428 94.152C44.4308 93.656 44.8268 93.272 45.3308 93C45.8348 92.72 46.4028 92.58 47.0348 92.58C47.6668 92.58 48.2308 92.72 48.7268 93C49.2308 93.272 49.6228 93.656 49.9028 94.152C50.1908 94.64 50.3348 95.196 50.3348 95.82C50.3348 96.444 50.1908 97.004 49.9028 97.5C49.6228 97.988 49.2308 98.372 48.7268 98.652C48.2308 98.932 47.6668 99.072 47.0348 99.072ZM47.0348 98.064C47.4428 98.064 47.8068 97.972 48.1268 97.788C48.4548 97.596 48.7108 97.332 48.8948 96.996C49.0788 96.652 49.1708 96.26 49.1708 95.82C49.1708 95.38 49.0788 94.992 48.8948 94.656C48.7108 94.312 48.4548 94.048 48.1268 93.864C47.8068 93.68 47.4428 93.588 47.0348 93.588C46.6268 93.588 46.2588 93.68 45.9308 93.864C45.6108 94.048 45.3548 94.312 45.1628 94.656C44.9788 94.992 44.8868 95.38 44.8868 95.82C44.8868 96.26 44.9788 96.652 45.1628 96.996C45.3548 97.332 45.6108 97.596 45.9308 97.788C46.2588 97.972 46.6268 98.064 47.0348 98.064ZM57.9279 90.096V99H56.8239V97.992C56.5679 98.344 56.2439 98.612 55.8519 98.796C55.4599 98.98 55.0279 99.072 54.5559 99.072C53.9399 99.072 53.3879 98.936 52.8999 98.664C52.4119 98.392 52.0279 98.012 51.7479 97.524C51.4759 97.028 51.3399 96.46 51.3399 95.82C51.3399 95.18 51.4759 94.616 51.7479 94.128C52.0279 93.64 52.4119 93.26 52.8999 92.988C53.3879 92.716 53.9399 92.58 54.5559 92.58C55.0119 92.58 55.4319 92.668 55.8159 92.844C56.1999 93.012 56.5199 93.264 56.7759 93.6V90.096H57.9279ZM54.6519 98.064C55.0519 98.064 55.4159 97.972 55.7439 97.788C56.0719 97.596 56.3279 97.332 56.5119 96.996C56.6959 96.652 56.7879 96.26 56.7879 95.82C56.7879 95.38 56.6959 94.992 56.5119 94.656C56.3279 94.312 56.0719 94.048 55.7439 93.864C55.4159 93.68 55.0519 93.588 54.6519 93.588C54.2439 93.588 53.8759 93.68 53.5479 93.864C53.2279 94.048 52.9719 94.312 52.7799 94.656C52.5959 94.992 52.5039 95.38 52.5039 95.82C52.5039 96.26 52.5959 96.652 52.7799 96.996C52.9719 97.332 53.2279 97.596 53.5479 97.788C53.8759 97.972 54.2439 98.064 54.6519 98.064ZM66.0356 92.64V99H64.9436V98.04C64.7116 98.368 64.4036 98.624 64.0196 98.808C63.6436 98.984 63.2316 99.072 62.7836 99.072C61.9356 99.072 61.2676 98.84 60.7796 98.376C60.2916 97.904 60.0476 97.212 60.0476 96.3V92.64H61.1996V96.168C61.1996 96.784 61.3476 97.252 61.6436 97.572C61.9396 97.884 62.3636 98.04 62.9156 98.04C63.5236 98.04 64.0036 97.856 64.3556 97.488C64.7076 97.12 64.8836 96.6 64.8836 95.928V92.64H66.0356ZM71.0007 99.072C70.3527 99.072 69.7727 98.932 69.2607 98.652C68.7567 98.372 68.3607 97.988 68.0727 97.5C67.7847 97.004 67.6407 96.444 67.6407 95.82C67.6407 95.196 67.7847 94.64 68.0727 94.152C68.3607 93.656 68.7567 93.272 69.2607 93C69.7727 92.72 70.3527 92.58 71.0007 92.58C71.5767 92.58 72.0887 92.696 72.5367 92.928C72.9927 93.16 73.3447 93.496 73.5927 93.936L72.7167 94.5C72.5167 94.196 72.2687 93.968 71.9727 93.816C71.6767 93.664 71.3487 93.588 70.9887 93.588C70.5727 93.588 70.1967 93.68 69.8607 93.864C69.5327 94.048 69.2727 94.312 69.0807 94.656C68.8967 94.992 68.8047 95.38 68.8047 95.82C68.8047 96.268 68.8967 96.664 69.0807 97.008C69.2727 97.344 69.5327 97.604 69.8607 97.788C70.1967 97.972 70.5727 98.064 70.9887 98.064C71.3487 98.064 71.6767 97.988 71.9727 97.836C72.2687 97.684 72.5167 97.456 72.7167 97.152L73.5927 97.704C73.3447 98.144 72.9927 98.484 72.5367 98.724C72.0887 98.956 71.5767 99.072 71.0007 99.072ZM78.7422 98.628C78.5742 98.772 78.3662 98.884 78.1182 98.964C77.8702 99.036 77.6142 99.072 77.3502 99.072C76.7102 99.072 76.2142 98.9 75.8622 98.556C75.5102 98.212 75.3342 97.72 75.3342 97.08V93.588H74.2542V92.64H75.3342V91.248H76.4862V92.64H78.3102V93.588H76.4862V97.032C76.4862 97.376 76.5702 97.64 76.7382 97.824C76.9142 98.008 77.1622 98.1 77.4822 98.1C77.8342 98.1 78.1342 98 78.3822 97.8L78.7422 98.628ZM83.5256 90.6H84.7256V99H83.5256V90.6ZM87.2405 90.6H90.7805C91.6685 90.6 92.4565 90.776 93.1445 91.128C93.8325 91.48 94.3645 91.976 94.7405 92.616C95.1245 93.248 95.3165 93.976 95.3165 94.8C95.3165 95.624 95.1245 96.356 94.7405 96.996C94.3645 97.628 93.8325 98.12 93.1445 98.472C92.4565 98.824 91.6685 99 90.7805 99H87.2405V90.6ZM90.7085 97.956C91.3885 97.956 91.9845 97.824 92.4965 97.56C93.0165 97.296 93.4165 96.928 93.6965 96.456C93.9765 95.976 94.1165 95.424 94.1165 94.8C94.1165 94.176 93.9765 93.628 93.6965 93.156C93.4165 92.676 93.0165 92.304 92.4965 92.04C91.9845 91.776 91.3885 91.644 90.7085 91.644H88.4405V97.956H90.7085ZM98.8105 99.072C98.2905 99.072 97.7905 99.004 97.3105 98.868C96.8305 98.724 96.4545 98.544 96.1825 98.328L96.6625 97.416C96.9425 97.616 97.2825 97.776 97.6825 97.896C98.0825 98.016 98.4865 98.076 98.8945 98.076C99.9025 98.076 100.407 97.788 100.407 97.212C100.407 97.02 100.339 96.868 100.203 96.756C100.067 96.644 99.8945 96.564 99.6865 96.516C99.4865 96.46 99.1985 96.4 98.8225 96.336C98.3105 96.256 97.8905 96.164 97.5625 96.06C97.2425 95.956 96.9665 95.78 96.7345 95.532C96.5025 95.284 96.3865 94.936 96.3865 94.488C96.3865 93.912 96.6265 93.452 97.1065 93.108C97.5865 92.756 98.2305 92.58 99.0385 92.58C99.4625 92.58 99.8865 92.632 100.311 92.736C100.735 92.84 101.083 92.98 101.355 93.156L100.863 94.068C100.343 93.732 99.7305 93.564 99.0265 93.564C98.5385 93.564 98.1665 93.644 97.9105 93.804C97.6545 93.964 97.5265 94.176 97.5265 94.44C97.5265 94.648 97.5985 94.812 97.7425 94.932C97.8865 95.052 98.0625 95.14 98.2705 95.196C98.4865 95.252 98.7865 95.316 99.1705 95.388C99.6825 95.476 100.095 95.572 100.407 95.676C100.727 95.772 100.999 95.94 101.223 96.18C101.447 96.42 101.559 96.756 101.559 97.188C101.559 97.764 101.311 98.224 100.815 98.568C100.327 98.904 99.6585 99.072 98.8105 99.072Z" fill="#465361"/>
</g>
<g id="Group 2149">
<g id="input text">
<rect id="bg_2" x="122.25" y="79.25" width="237.5" height="31.5" rx="4.75" fill="#F9FAFD" stroke="#E5EAEF" stroke-width="0.5"/>
</g>
<g id="input text_2">
<g id="Group 2175">
<path id="Rectangle 488" d="M380.5 85.5H489.5V154C489.5 156.485 487.485 158.5 485 158.5H385C382.515 158.5 380.5 156.485 380.5 154V85.5Z" fill="white" stroke="#E5EAEF"/>
<path id="Rectangle 489" d="M380 135H490V154C490 156.761 487.761 159 485 159H385C382.239 159 380 156.761 380 154V135Z" fill="#E5EAEF"/>
<path id="Include Exclude" d="M397.26 118.6H398.46V127H397.26V118.6ZM404.203 120.58C405.011 120.58 405.651 120.816 406.123 121.288C406.603 121.752 406.843 122.436 406.843 123.34V127H405.691V123.472C405.691 122.856 405.543 122.392 405.247 122.08C404.951 121.768 404.527 121.612 403.975 121.612C403.351 121.612 402.859 121.796 402.499 122.164C402.139 122.524 401.959 123.044 401.959 123.724V127H400.807V120.64H401.911V121.6C402.143 121.272 402.455 121.02 402.847 120.844C403.247 120.668 403.699 120.58 404.203 120.58ZM411.782 127.072C411.134 127.072 410.554 126.932 410.042 126.652C409.538 126.372 409.142 125.988 408.854 125.5C408.566 125.004 408.422 124.444 408.422 123.82C408.422 123.196 408.566 122.64 408.854 122.152C409.142 121.656 409.538 121.272 410.042 121C410.554 120.72 411.134 120.58 411.782 120.58C412.358 120.58 412.87 120.696 413.318 120.928C413.774 121.16 414.126 121.496 414.374 121.936L413.498 122.5C413.298 122.196 413.05 121.968 412.754 121.816C412.458 121.664 412.13 121.588 411.77 121.588C411.354 121.588 410.978 121.68 410.642 121.864C410.314 122.048 410.054 122.312 409.862 122.656C409.678 122.992 409.586 123.38 409.586 123.82C409.586 124.268 409.678 124.664 409.862 125.008C410.054 125.344 410.314 125.604 410.642 125.788C410.978 125.972 411.354 126.064 411.77 126.064C412.13 126.064 412.458 125.988 412.754 125.836C413.05 125.684 413.298 125.456 413.498 125.152L414.374 125.704C414.126 126.144 413.774 126.484 413.318 126.724C412.87 126.956 412.358 127.072 411.782 127.072ZM415.783 118.096H416.935V127H415.783V118.096ZM425.063 120.64V127H423.971V126.04C423.739 126.368 423.431 126.624 423.047 126.808C422.671 126.984 422.259 127.072 421.811 127.072C420.963 127.072 420.295 126.84 419.807 126.376C419.319 125.904 419.075 125.212 419.075 124.3V120.64H420.227V124.168C420.227 124.784 420.375 125.252 420.671 125.572C420.967 125.884 421.391 126.04 421.943 126.04C422.551 126.04 423.031 125.856 423.383 125.488C423.735 125.12 423.911 124.6 423.911 123.928V120.64H425.063ZM433.256 118.096V127H432.152V125.992C431.896 126.344 431.572 126.612 431.18 126.796C430.788 126.98 430.356 127.072 429.884 127.072C429.268 127.072 428.716 126.936 428.228 126.664C427.74 126.392 427.356 126.012 427.076 125.524C426.804 125.028 426.668 124.46 426.668 123.82C426.668 123.18 426.804 122.616 427.076 122.128C427.356 121.64 427.74 121.26 428.228 120.988C428.716 120.716 429.268 120.58 429.884 120.58C430.34 120.58 430.76 120.668 431.144 120.844C431.528 121.012 431.848 121.264 432.104 121.6V118.096H433.256ZM429.98 126.064C430.38 126.064 430.744 125.972 431.072 125.788C431.4 125.596 431.656 125.332 431.84 124.996C432.024 124.652 432.116 124.26 432.116 123.82C432.116 123.38 432.024 122.992 431.84 122.656C431.656 122.312 431.4 122.048 431.072 121.864C430.744 121.68 430.38 121.588 429.98 121.588C429.572 121.588 429.204 121.68 428.876 121.864C428.556 122.048 428.3 122.312 428.108 122.656C427.924 122.992 427.832 123.38 427.832 123.82C427.832 124.26 427.924 124.652 428.108 124.996C428.3 125.332 428.556 125.596 428.876 125.788C429.204 125.972 429.572 126.064 429.98 126.064ZM441.184 123.856C441.184 123.944 441.176 124.06 441.16 124.204H436C436.072 124.764 436.316 125.216 436.732 125.56C437.156 125.896 437.68 126.064 438.304 126.064C439.064 126.064 439.676 125.808 440.14 125.296L440.776 126.04C440.488 126.376 440.128 126.632 439.696 126.808C439.272 126.984 438.796 127.072 438.268 127.072C437.596 127.072 437 126.936 436.48 126.664C435.96 126.384 435.556 125.996 435.268 125.5C434.988 125.004 434.848 124.444 434.848 123.82C434.848 123.204 434.984 122.648 435.256 122.152C435.536 121.656 435.916 121.272 436.396 121C436.884 120.72 437.432 120.58 438.04 120.58C438.648 120.58 439.188 120.72 439.66 121C440.14 121.272 440.512 121.656 440.776 122.152C441.048 122.648 441.184 123.216 441.184 123.856ZM438.04 121.552C437.488 121.552 437.024 121.72 436.648 122.056C436.28 122.392 436.064 122.832 436 123.376H440.08C440.016 122.84 439.796 122.404 439.42 122.068C439.052 121.724 438.592 121.552 438.04 121.552ZM403.356 149.956V151H397.26V142.6H403.188V143.644H398.46V146.224H402.672V147.244H398.46V149.956H403.356ZM409.046 151L407.21 148.564L405.35 151H404.066L406.574 147.748L404.186 144.64H405.47L407.222 146.932L408.962 144.64H410.222L407.822 147.748L410.354 151H409.046ZM414.173 151.072C413.525 151.072 412.945 150.932 412.433 150.652C411.929 150.372 411.533 149.988 411.245 149.5C410.957 149.004 410.813 148.444 410.813 147.82C410.813 147.196 410.957 146.64 411.245 146.152C411.533 145.656 411.929 145.272 412.433 145C412.945 144.72 413.525 144.58 414.173 144.58C414.749 144.58 415.261 144.696 415.709 144.928C416.165 145.16 416.517 145.496 416.765 145.936L415.889 146.5C415.689 146.196 415.441 145.968 415.145 145.816C414.849 145.664 414.521 145.588 414.161 145.588C413.745 145.588 413.369 145.68 413.033 145.864C412.705 146.048 412.445 146.312 412.253 146.656C412.069 146.992 411.977 147.38 411.977 147.82C411.977 148.268 412.069 148.664 412.253 149.008C412.445 149.344 412.705 149.604 413.033 149.788C413.369 149.972 413.745 150.064 414.161 150.064C414.521 150.064 414.849 149.988 415.145 149.836C415.441 149.684 415.689 149.456 415.889 149.152L416.765 149.704C416.517 150.144 416.165 150.484 415.709 150.724C415.261 150.956 414.749 151.072 414.173 151.072ZM418.174 142.096H419.326V151H418.174V142.096ZM427.454 144.64V151H426.362V150.04C426.13 150.368 425.822 150.624 425.438 150.808C425.062 150.984 424.65 151.072 424.202 151.072C423.354 151.072 422.686 150.84 422.198 150.376C421.71 149.904 421.466 149.212 421.466 148.3V144.64H422.618V148.168C422.618 148.784 422.766 149.252 423.062 149.572C423.358 149.884 423.782 150.04 424.334 150.04C424.942 150.04 425.422 149.856 425.774 149.488C426.126 149.12 426.302 148.6 426.302 147.928V144.64H427.454ZM435.647 142.096V151H434.543V149.992C434.287 150.344 433.963 150.612 433.571 150.796C433.179 150.98 432.747 151.072 432.275 151.072C431.659 151.072 431.107 150.936 430.619 150.664C430.131 150.392 429.747 150.012 429.467 149.524C429.195 149.028 429.059 148.46 429.059 147.82C429.059 147.18 429.195 146.616 429.467 146.128C429.747 145.64 430.131 145.26 430.619 144.988C431.107 144.716 431.659 144.58 432.275 144.58C432.731 144.58 433.151 144.668 433.535 144.844C433.919 145.012 434.239 145.264 434.495 145.6V142.096H435.647ZM432.371 150.064C432.771 150.064 433.135 149.972 433.463 149.788C433.791 149.596 434.047 149.332 434.231 148.996C434.415 148.652 434.507 148.26 434.507 147.82C434.507 147.38 434.415 146.992 434.231 146.656C434.047 146.312 433.791 146.048 433.463 145.864C433.135 145.68 432.771 145.588 432.371 145.588C431.963 145.588 431.595 145.68 431.267 145.864C430.947 146.048 430.691 146.312 430.499 146.656C430.315 146.992 430.223 147.38 430.223 147.82C430.223 148.26 430.315 148.652 430.499 148.996C430.691 149.332 430.947 149.596 431.267 149.788C431.595 149.972 431.963 150.064 432.371 150.064ZM443.574 147.856C443.574 147.944 443.566 148.06 443.55 148.204H438.39C438.462 148.764 438.706 149.216 439.122 149.56C439.546 149.896 440.07 150.064 440.694 150.064C441.454 150.064 442.066 149.808 442.53 149.296L443.166 150.04C442.878 150.376 442.518 150.632 442.086 150.808C441.662 150.984 441.186 151.072 440.658 151.072C439.986 151.072 439.39 150.936 438.87 150.664C438.35 150.384 437.946 149.996 437.658 149.5C437.378 149.004 437.238 148.444 437.238 147.82C437.238 147.204 437.374 146.648 437.646 146.152C437.926 145.656 438.306 145.272 438.786 145C439.274 144.72 439.822 144.58 440.43 144.58C441.038 144.58 441.578 144.72 442.05 145C442.53 145.272 442.902 145.656 443.166 146.152C443.438 146.648 443.574 147.216 443.574 147.856ZM440.43 145.552C439.878 145.552 439.414 145.72 439.038 146.056C438.67 146.392 438.454 146.832 438.39 147.376H442.47C442.406 146.84 442.186 146.404 441.81 146.068C441.442 145.724 440.982 145.552 440.43 145.552Z" fill="#465361"/>
</g>
<rect id="bg_3" x="380.25" y="79.25" width="109.5" height="31.5" rx="4.75" fill="#F9FAFD" stroke="#E5EAEF" stroke-width="0.5"/>
<g id="select control">
<path id="Polygon 1" d="M471 100L468 96L474 96L471 100Z" fill="#465361"/>
<path id="Polygon 2" d="M471 90L474 94H468L471 90Z" fill="#465361"/>
</g>
<path id="Exclude" d="M403.356 97.956V99H397.26V90.6H403.188V91.644H398.46V94.224H402.672V95.244H398.46V97.956H403.356ZM409.046 99L407.21 96.564L405.35 99H404.066L406.574 95.748L404.186 92.64H405.47L407.222 94.932L408.962 92.64H410.222L407.822 95.748L410.354 99H409.046ZM414.173 99.072C413.525 99.072 412.945 98.932 412.433 98.652C411.929 98.372 411.533 97.988 411.245 97.5C410.957 97.004 410.813 96.444 410.813 95.82C410.813 95.196 410.957 94.64 411.245 94.152C411.533 93.656 411.929 93.272 412.433 93C412.945 92.72 413.525 92.58 414.173 92.58C414.749 92.58 415.261 92.696 415.709 92.928C416.165 93.16 416.517 93.496 416.765 93.936L415.889 94.5C415.689 94.196 415.441 93.968 415.145 93.816C414.849 93.664 414.521 93.588 414.161 93.588C413.745 93.588 413.369 93.68 413.033 93.864C412.705 94.048 412.445 94.312 412.253 94.656C412.069 94.992 411.977 95.38 411.977 95.82C411.977 96.268 412.069 96.664 412.253 97.008C412.445 97.344 412.705 97.604 413.033 97.788C413.369 97.972 413.745 98.064 414.161 98.064C414.521 98.064 414.849 97.988 415.145 97.836C415.441 97.684 415.689 97.456 415.889 97.152L416.765 97.704C416.517 98.144 416.165 98.484 415.709 98.724C415.261 98.956 414.749 99.072 414.173 99.072ZM418.174 90.096H419.326V99H418.174V90.096ZM427.454 92.64V99H426.362V98.04C426.13 98.368 425.822 98.624 425.438 98.808C425.062 98.984 424.65 99.072 424.202 99.072C423.354 99.072 422.686 98.84 422.198 98.376C421.71 97.904 421.466 97.212 421.466 96.3V92.64H422.618V96.168C422.618 96.784 422.766 97.252 423.062 97.572C423.358 97.884 423.782 98.04 424.334 98.04C424.942 98.04 425.422 97.856 425.774 97.488C426.126 97.12 426.302 96.6 426.302 95.928V92.64H427.454ZM435.647 90.096V99H434.543V97.992C434.287 98.344 433.963 98.612 433.571 98.796C433.179 98.98 432.747 99.072 432.275 99.072C431.659 99.072 431.107 98.936 430.619 98.664C430.131 98.392 429.747 98.012 429.467 97.524C429.195 97.028 429.059 96.46 429.059 95.82C429.059 95.18 429.195 94.616 429.467 94.128C429.747 93.64 430.131 93.26 430.619 92.988C431.107 92.716 431.659 92.58 432.275 92.58C432.731 92.58 433.151 92.668 433.535 92.844C433.919 93.012 434.239 93.264 434.495 93.6V90.096H435.647ZM432.371 98.064C432.771 98.064 433.135 97.972 433.463 97.788C433.791 97.596 434.047 97.332 434.231 96.996C434.415 96.652 434.507 96.26 434.507 95.82C434.507 95.38 434.415 94.992 434.231 94.656C434.047 94.312 433.791 94.048 433.463 93.864C433.135 93.68 432.771 93.588 432.371 93.588C431.963 93.588 431.595 93.68 431.267 93.864C430.947 94.048 430.691 94.312 430.499 94.656C430.315 94.992 430.223 95.38 430.223 95.82C430.223 96.26 430.315 96.652 430.499 96.996C430.691 97.332 430.947 97.596 431.267 97.788C431.595 97.972 431.963 98.064 432.371 98.064ZM443.574 95.856C443.574 95.944 443.566 96.06 443.55 96.204H438.39C438.462 96.764 438.706 97.216 439.122 97.56C439.546 97.896 440.07 98.064 440.694 98.064C441.454 98.064 442.066 97.808 442.53 97.296L443.166 98.04C442.878 98.376 442.518 98.632 442.086 98.808C441.662 98.984 441.186 99.072 440.658 99.072C439.986 99.072 439.39 98.936 438.87 98.664C438.35 98.384 437.946 97.996 437.658 97.5C437.378 97.004 437.238 96.444 437.238 95.82C437.238 95.204 437.374 94.648 437.646 94.152C437.926 93.656 438.306 93.272 438.786 93C439.274 92.72 439.822 92.58 440.43 92.58C441.038 92.58 441.578 92.72 442.05 93C442.53 93.272 442.902 93.656 443.166 94.152C443.438 94.648 443.574 95.216 443.574 95.856ZM440.43 93.552C439.878 93.552 439.414 93.72 439.038 94.056C438.67 94.392 438.454 94.832 438.39 95.376H442.47C442.406 94.84 442.186 94.404 441.81 94.068C441.442 93.724 440.982 93.552 440.43 93.552Z" fill="#465361"/>
</g>
</g>
<path id="342,862,982,876,132" d="M139.792 95.128C140.616 95.208 141.244 95.464 141.676 95.896C142.108 96.32 142.324 96.864 142.324 97.528C142.324 98.008 142.204 98.444 141.964 98.836C141.724 99.22 141.364 99.528 140.884 99.76C140.412 99.984 139.832 100.096 139.144 100.096C138.544 100.096 137.968 100.008 137.416 99.832C136.864 99.648 136.412 99.396 136.06 99.076L136.612 98.128C136.9 98.4 137.268 98.62 137.716 98.788C138.164 98.948 138.64 99.028 139.144 99.028C139.768 99.028 140.252 98.896 140.596 98.632C140.948 98.368 141.124 98.004 141.124 97.54C141.124 97.076 140.952 96.716 140.608 96.46C140.264 96.204 139.744 96.076 139.048 96.076H138.376V95.236L140.488 92.644H136.444V91.6H141.988V92.416L139.792 95.128ZM150.751 97.936H149.155V100H147.991V97.936H143.323V97.096L147.619 91.6H148.915L144.799 96.904H148.027V95.08H149.155V96.904H150.751V97.936ZM157.339 98.956V100H151.303V99.184L154.723 95.884C155.139 95.484 155.419 95.14 155.563 94.852C155.707 94.556 155.779 94.26 155.779 93.964C155.779 93.524 155.623 93.184 155.311 92.944C155.007 92.696 154.567 92.572 153.991 92.572C153.063 92.572 152.347 92.876 151.843 93.484L151.027 92.776C151.355 92.376 151.783 92.064 152.311 91.84C152.847 91.616 153.443 91.504 154.099 91.504C154.979 91.504 155.679 91.716 156.199 92.14C156.719 92.556 156.979 93.124 156.979 93.844C156.979 94.292 156.883 94.716 156.691 95.116C156.499 95.516 156.135 95.972 155.599 96.484L153.031 98.956H157.339ZM159.247 98.428C159.471 98.428 159.655 98.508 159.799 98.668C159.951 98.82 160.027 99.012 160.027 99.244C160.027 99.364 160.011 99.48 159.979 99.592C159.955 99.704 159.903 99.876 159.823 100.108L159.259 101.776H158.503L158.947 99.988C158.795 99.932 158.671 99.84 158.575 99.712C158.487 99.576 158.443 99.42 158.443 99.244C158.443 99.004 158.519 98.808 158.671 98.656C158.823 98.504 159.015 98.428 159.247 98.428ZM166.415 95.596C166.895 95.78 167.263 96.044 167.519 96.388C167.775 96.732 167.903 97.144 167.903 97.624C167.903 98.128 167.767 98.568 167.495 98.944C167.223 99.312 166.835 99.596 166.331 99.796C165.827 99.996 165.235 100.096 164.555 100.096C163.883 100.096 163.295 99.996 162.791 99.796C162.295 99.596 161.911 99.312 161.639 98.944C161.367 98.568 161.231 98.128 161.231 97.624C161.231 97.144 161.355 96.732 161.603 96.388C161.859 96.044 162.227 95.78 162.707 95.596C162.323 95.412 162.031 95.168 161.831 94.864C161.631 94.56 161.531 94.2 161.531 93.784C161.531 93.32 161.655 92.916 161.903 92.572C162.159 92.228 162.515 91.964 162.971 91.78C163.427 91.596 163.955 91.504 164.555 91.504C165.163 91.504 165.695 91.596 166.151 91.78C166.615 91.964 166.971 92.228 167.219 92.572C167.475 92.916 167.603 93.32 167.603 93.784C167.603 94.192 167.499 94.552 167.291 94.864C167.091 95.168 166.799 95.412 166.415 95.596ZM164.555 92.476C163.987 92.476 163.539 92.6 163.211 92.848C162.883 93.088 162.719 93.416 162.719 93.832C162.719 94.248 162.879 94.576 163.199 94.816C163.527 95.056 163.979 95.176 164.555 95.176C165.139 95.176 165.595 95.056 165.923 94.816C166.259 94.576 166.427 94.248 166.427 93.832C166.427 93.416 166.255 93.088 165.911 92.848C165.575 92.6 165.123 92.476 164.555 92.476ZM164.555 99.124C165.219 99.124 165.743 98.988 166.127 98.716C166.511 98.436 166.703 98.06 166.703 97.588C166.703 97.124 166.511 96.76 166.127 96.496C165.743 96.224 165.219 96.088 164.555 96.088C163.891 96.088 163.371 96.224 162.995 96.496C162.619 96.76 162.431 97.124 162.431 97.588C162.431 98.06 162.619 98.436 162.995 98.716C163.371 98.988 163.891 99.124 164.555 99.124ZM172.626 94.9C173.178 94.9 173.67 95.004 174.102 95.212C174.542 95.42 174.886 95.72 175.134 96.112C175.382 96.496 175.506 96.94 175.506 97.444C175.506 97.972 175.374 98.436 175.11 98.836C174.854 99.236 174.498 99.548 174.042 99.772C173.594 99.988 173.09 100.096 172.53 100.096C171.402 100.096 170.53 99.732 169.914 99.004C169.306 98.276 169.002 97.244 169.002 95.908C169.002 94.972 169.166 94.176 169.494 93.52C169.83 92.856 170.294 92.356 170.886 92.02C171.486 91.676 172.182 91.504 172.974 91.504C173.382 91.504 173.766 91.548 174.126 91.636C174.486 91.716 174.798 91.836 175.062 91.996L174.606 92.932C174.206 92.668 173.67 92.536 172.998 92.536C172.126 92.536 171.442 92.808 170.946 93.352C170.45 93.888 170.202 94.672 170.202 95.704C170.202 95.832 170.206 95.932 170.214 96.004C170.454 95.644 170.782 95.372 171.198 95.188C171.622 94.996 172.098 94.9 172.626 94.9ZM172.482 99.124C173.034 99.124 173.482 98.976 173.826 98.68C174.17 98.384 174.342 97.988 174.342 97.492C174.342 96.996 174.166 96.604 173.814 96.316C173.47 96.02 173.006 95.872 172.422 95.872C172.046 95.872 171.71 95.944 171.414 96.088C171.126 96.232 170.898 96.428 170.73 96.676C170.57 96.924 170.49 97.2 170.49 97.504C170.49 97.8 170.566 98.072 170.718 98.32C170.878 98.56 171.106 98.756 171.402 98.908C171.706 99.052 172.066 99.124 172.482 99.124ZM182.312 98.956V100H176.276V99.184L179.696 95.884C180.112 95.484 180.392 95.14 180.536 94.852C180.68 94.556 180.752 94.26 180.752 93.964C180.752 93.524 180.596 93.184 180.284 92.944C179.98 92.696 179.54 92.572 178.964 92.572C178.036 92.572 177.32 92.876 176.816 93.484L176 92.776C176.328 92.376 176.756 92.064 177.284 91.84C177.82 91.616 178.416 91.504 179.072 91.504C179.952 91.504 180.652 91.716 181.172 92.14C181.692 92.556 181.952 93.124 181.952 93.844C181.952 94.292 181.856 94.716 181.664 95.116C181.472 95.516 181.108 95.972 180.572 96.484L178.004 98.956H182.312ZM184.22 98.428C184.444 98.428 184.628 98.508 184.772 98.668C184.924 98.82 185 99.012 185 99.244C185 99.364 184.984 99.48 184.952 99.592C184.928 99.704 184.876 99.876 184.796 100.108L184.232 101.776H183.476L183.92 99.988C183.768 99.932 183.644 99.84 183.548 99.712C183.46 99.576 183.416 99.42 183.416 99.244C183.416 99.004 183.492 98.808 183.644 98.656C183.796 98.504 183.988 98.428 184.22 98.428ZM188.859 91.504C189.987 91.504 190.855 91.868 191.463 92.596C192.079 93.324 192.387 94.356 192.387 95.692C192.387 96.628 192.219 97.428 191.883 98.092C191.555 98.748 191.091 99.248 190.491 99.592C189.899 99.928 189.207 100.096 188.415 100.096C188.007 100.096 187.623 100.056 187.263 99.976C186.903 99.888 186.591 99.764 186.327 99.604L186.783 98.668C187.191 98.932 187.731 99.064 188.403 99.064C189.275 99.064 189.955 98.796 190.443 98.26C190.939 97.716 191.187 96.928 191.187 95.896V95.596C190.947 95.956 190.615 96.232 190.191 96.424C189.767 96.608 189.291 96.7 188.763 96.7C188.211 96.7 187.715 96.596 187.275 96.388C186.843 96.18 186.503 95.884 186.255 95.5C186.015 95.108 185.895 94.66 185.895 94.156C185.895 93.628 186.023 93.164 186.279 92.764C186.543 92.364 186.899 92.056 187.347 91.84C187.795 91.616 188.299 91.504 188.859 91.504ZM188.967 95.728C189.343 95.728 189.679 95.656 189.975 95.512C190.271 95.368 190.499 95.172 190.659 94.924C190.827 94.676 190.911 94.4 190.911 94.096C190.911 93.8 190.831 93.532 190.671 93.292C190.519 93.044 190.291 92.848 189.987 92.704C189.691 92.552 189.331 92.476 188.907 92.476C188.355 92.476 187.907 92.624 187.563 92.92C187.227 93.216 187.059 93.612 187.059 94.108C187.059 94.604 187.231 95 187.575 95.296C187.919 95.584 188.383 95.728 188.967 95.728ZM198.677 95.596C199.157 95.78 199.525 96.044 199.781 96.388C200.037 96.732 200.165 97.144 200.165 97.624C200.165 98.128 200.029 98.568 199.757 98.944C199.485 99.312 199.097 99.596 198.593 99.796C198.089 99.996 197.497 100.096 196.817 100.096C196.145 100.096 195.557 99.996 195.053 99.796C194.557 99.596 194.173 99.312 193.901 98.944C193.629 98.568 193.493 98.128 193.493 97.624C193.493 97.144 193.617 96.732 193.865 96.388C194.121 96.044 194.489 95.78 194.969 95.596C194.585 95.412 194.293 95.168 194.093 94.864C193.893 94.56 193.793 94.2 193.793 93.784C193.793 93.32 193.917 92.916 194.165 92.572C194.421 92.228 194.777 91.964 195.233 91.78C195.689 91.596 196.217 91.504 196.817 91.504C197.425 91.504 197.957 91.596 198.413 91.78C198.877 91.964 199.233 92.228 199.481 92.572C199.737 92.916 199.865 93.32 199.865 93.784C199.865 94.192 199.761 94.552 199.553 94.864C199.353 95.168 199.061 95.412 198.677 95.596ZM196.817 92.476C196.249 92.476 195.801 92.6 195.473 92.848C195.145 93.088 194.981 93.416 194.981 93.832C194.981 94.248 195.141 94.576 195.461 94.816C195.789 95.056 196.241 95.176 196.817 95.176C197.401 95.176 197.857 95.056 198.185 94.816C198.521 94.576 198.689 94.248 198.689 93.832C198.689 93.416 198.517 93.088 198.173 92.848C197.837 92.6 197.385 92.476 196.817 92.476ZM196.817 99.124C197.481 99.124 198.005 98.988 198.389 98.716C198.773 98.436 198.965 98.06 198.965 97.588C198.965 97.124 198.773 96.76 198.389 96.496C198.005 96.224 197.481 96.088 196.817 96.088C196.153 96.088 195.633 96.224 195.257 96.496C194.881 96.76 194.693 97.124 194.693 97.588C194.693 98.06 194.881 98.436 195.257 98.716C195.633 98.988 196.153 99.124 196.817 99.124ZM207.168 98.956V100H201.132V99.184L204.552 95.884C204.968 95.484 205.248 95.14 205.392 94.852C205.536 94.556 205.608 94.26 205.608 93.964C205.608 93.524 205.452 93.184 205.14 92.944C204.836 92.696 204.396 92.572 203.82 92.572C202.892 92.572 202.176 92.876 201.672 93.484L200.856 92.776C201.184 92.376 201.612 92.064 202.14 91.84C202.676 91.616 203.272 91.504 203.928 91.504C204.808 91.504 205.508 91.716 206.028 92.14C206.548 92.556 206.808 93.124 206.808 93.844C206.808 94.292 206.712 94.716 206.52 95.116C206.328 95.516 205.964 95.972 205.428 96.484L202.86 98.956H207.168ZM209.075 98.428C209.299 98.428 209.483 98.508 209.627 98.668C209.779 98.82 209.855 99.012 209.855 99.244C209.855 99.364 209.839 99.48 209.807 99.592C209.783 99.704 209.731 99.876 209.651 100.108L209.087 101.776H208.331L208.775 99.988C208.623 99.932 208.499 99.84 208.403 99.712C208.315 99.576 208.271 99.42 208.271 99.244C208.271 99.004 208.347 98.808 208.499 98.656C208.651 98.504 208.843 98.428 209.075 98.428ZM216.243 95.596C216.723 95.78 217.091 96.044 217.347 96.388C217.603 96.732 217.731 97.144 217.731 97.624C217.731 98.128 217.595 98.568 217.323 98.944C217.051 99.312 216.663 99.596 216.159 99.796C215.655 99.996 215.063 100.096 214.383 100.096C213.711 100.096 213.123 99.996 212.619 99.796C212.123 99.596 211.739 99.312 211.467 98.944C211.195 98.568 211.059 98.128 211.059 97.624C211.059 97.144 211.183 96.732 211.431 96.388C211.687 96.044 212.055 95.78 212.535 95.596C212.151 95.412 211.859 95.168 211.659 94.864C211.459 94.56 211.359 94.2 211.359 93.784C211.359 93.32 211.483 92.916 211.731 92.572C211.987 92.228 212.343 91.964 212.799 91.78C213.255 91.596 213.783 91.504 214.383 91.504C214.991 91.504 215.523 91.596 215.979 91.78C216.443 91.964 216.799 92.228 217.047 92.572C217.303 92.916 217.431 93.32 217.431 93.784C217.431 94.192 217.327 94.552 217.119 94.864C216.919 95.168 216.627 95.412 216.243 95.596ZM214.383 92.476C213.815 92.476 213.367 92.6 213.039 92.848C212.711 93.088 212.547 93.416 212.547 93.832C212.547 94.248 212.707 94.576 213.027 94.816C213.355 95.056 213.807 95.176 214.383 95.176C214.967 95.176 215.423 95.056 215.751 94.816C216.087 94.576 216.255 94.248 216.255 93.832C216.255 93.416 216.083 93.088 215.739 92.848C215.403 92.6 214.951 92.476 214.383 92.476ZM214.383 99.124C215.047 99.124 215.571 98.988 215.955 98.716C216.339 98.436 216.531 98.06 216.531 97.588C216.531 97.124 216.339 96.76 215.955 96.496C215.571 96.224 215.047 96.088 214.383 96.088C213.719 96.088 213.199 96.224 212.823 96.496C212.447 96.76 212.259 97.124 212.259 97.588C212.259 98.06 212.447 98.436 212.823 98.716C213.199 98.988 213.719 99.124 214.383 99.124ZM224.95 91.6V92.416L221.554 100H220.282L223.606 92.644H219.766V94.144H218.614V91.6H224.95ZM229.391 94.9C229.943 94.9 230.435 95.004 230.867 95.212C231.307 95.42 231.651 95.72 231.899 96.112C232.147 96.496 232.271 96.94 232.271 97.444C232.271 97.972 232.139 98.436 231.875 98.836C231.619 99.236 231.263 99.548 230.807 99.772C230.359 99.988 229.855 100.096 229.295 100.096C228.167 100.096 227.295 99.732 226.679 99.004C226.071 98.276 225.767 97.244 225.767 95.908C225.767 94.972 225.931 94.176 226.259 93.52C226.595 92.856 227.059 92.356 227.651 92.02C228.251 91.676 228.947 91.504 229.739 91.504C230.147 91.504 230.531 91.548 230.891 91.636C231.251 91.716 231.563 91.836 231.827 91.996L231.371 92.932C230.971 92.668 230.435 92.536 229.763 92.536C228.891 92.536 228.207 92.808 227.711 93.352C227.215 93.888 226.967 94.672 226.967 95.704C226.967 95.832 226.971 95.932 226.979 96.004C227.219 95.644 227.547 95.372 227.963 95.188C228.387 94.996 228.863 94.9 229.391 94.9ZM229.247 99.124C229.799 99.124 230.247 98.976 230.591 98.68C230.935 98.384 231.107 97.988 231.107 97.492C231.107 96.996 230.931 96.604 230.579 96.316C230.235 96.02 229.771 95.872 229.187 95.872C228.811 95.872 228.475 95.944 228.179 96.088C227.891 96.232 227.663 96.428 227.495 96.676C227.335 96.924 227.255 97.2 227.255 97.504C227.255 97.8 227.331 98.072 227.483 98.32C227.643 98.56 227.871 98.756 228.167 98.908C228.471 99.052 228.831 99.124 229.247 99.124ZM234.095 98.428C234.319 98.428 234.503 98.508 234.647 98.668C234.799 98.82 234.875 99.012 234.875 99.244C234.875 99.364 234.859 99.48 234.827 99.592C234.803 99.704 234.751 99.876 234.671 100.108L234.107 101.776H233.351L233.795 99.988C233.643 99.932 233.519 99.84 233.423 99.712C233.335 99.576 233.291 99.42 233.291 99.244C233.291 99.004 233.367 98.808 233.519 98.656C233.671 98.504 233.863 98.428 234.095 98.428ZM238.461 91.6V100H237.273V92.644H235.377V91.6H238.461ZM243.515 95.128C244.339 95.208 244.967 95.464 245.399 95.896C245.831 96.32 246.047 96.864 246.047 97.528C246.047 98.008 245.927 98.444 245.687 98.836C245.447 99.22 245.087 99.528 244.607 99.76C244.135 99.984 243.555 100.096 242.867 100.096C242.267 100.096 241.691 100.008 241.139 99.832C240.587 99.648 240.135 99.396 239.783 99.076L240.335 98.128C240.623 98.4 240.991 98.62 241.439 98.788C241.887 98.948 242.363 99.028 242.867 99.028C243.491 99.028 243.975 98.896 244.319 98.632C244.671 98.368 244.847 98.004 244.847 97.54C244.847 97.076 244.675 96.716 244.331 96.46C243.987 96.204 243.467 96.076 242.771 96.076H242.099V95.236L244.211 92.644H240.167V91.6H245.711V92.416L243.515 95.128ZM253.011 98.956V100H246.975V99.184L250.395 95.884C250.811 95.484 251.091 95.14 251.235 94.852C251.379 94.556 251.451 94.26 251.451 93.964C251.451 93.524 251.295 93.184 250.983 92.944C250.679 92.696 250.239 92.572 249.663 92.572C248.735 92.572 248.019 92.876 247.515 93.484L246.699 92.776C247.027 92.376 247.455 92.064 247.983 91.84C248.519 91.616 249.115 91.504 249.771 91.504C250.651 91.504 251.351 91.716 251.871 92.14C252.391 92.556 252.651 93.124 252.651 93.844C252.651 94.292 252.555 94.716 252.363 95.116C252.171 95.516 251.807 95.972 251.271 96.484L248.703 98.956H253.011Z" fill="#465361"/>
</g>
</g>
</g>
<defs>
<filter id="filter0_d" x="15" y="17" width="530" height="210" filterUnits="userSpaceOnUse" color-interpolation-filters="sRGB">
<feFlood flood-opacity="0" result="BackgroundImageFix"/>
<feColorMatrix in="SourceAlpha" type="matrix" values="0 0 0 0 0 0 0 0 0 0 0 0 0 0 0 0 0 0 127 0"/>
<feOffset/>
<feGaussianBlur stdDeviation="2.5"/>
<feColorMatrix type="matrix" values="0 0 0 0 0 0 0 0 0 0.447059 0 0 0 0 0.815686 0 0 0 0.02 0"/>
<feBlend mode="normal" in2="BackgroundImageFix" result="effect1_dropShadow"/>
<feBlend mode="normal" in="SourceGraphic" in2="effect1_dropShadow" result="shape"/>
</filter>
</defs>
</svg>
