<svg width="580" height="380" viewBox="0 0 580 380" fill="none" xmlns="http://www.w3.org/2000/svg">
<rect width="580" height="380" fill="#E5E5E5"/>
<g id="Frame 1">
<rect width="4951" height="4400" transform="translate(-764 -1999)" fill="white"/>
<g id="merge-attributes" opacity="0.8">
<path id="bg" d="M0 10C0 4.47716 4.47715 0 10 0H570C575.523 0 580 4.47715 580 10V370C580 375.523 575.523 380 570 380H9.99999C4.47714 380 0 375.523 0 370V10Z" fill="#F5F6F9"/>
<g id="button">
<g id="Group 2159">
<g id="Group 2158">
<rect id="Rectangle 479" x="70" y="261" width="119" height="32" rx="5" fill="#62699F"/>
<path id="Save Mapping" d="M89.708 281.096C89.076 281.096 88.464 281 87.872 280.808C87.288 280.608 86.828 280.352 86.492 280.04L86.936 279.104C87.256 279.392 87.664 279.628 88.16 279.812C88.664 279.988 89.18 280.076 89.708 280.076C90.404 280.076 90.924 279.96 91.268 279.728C91.612 279.488 91.784 279.172 91.784 278.78C91.784 278.492 91.688 278.26 91.496 278.084C91.312 277.9 91.08 277.76 90.8 277.664C90.528 277.568 90.14 277.46 89.636 277.34C89.004 277.188 88.492 277.036 88.1 276.884C87.716 276.732 87.384 276.5 87.104 276.188C86.832 275.868 86.696 275.44 86.696 274.904C86.696 274.456 86.812 274.052 87.044 273.692C87.284 273.332 87.644 273.044 88.124 272.828C88.604 272.612 89.2 272.504 89.912 272.504C90.408 272.504 90.896 272.568 91.376 272.696C91.856 272.824 92.268 273.008 92.612 273.248L92.216 274.208C91.864 273.984 91.488 273.816 91.088 273.704C90.688 273.584 90.296 273.524 89.912 273.524C89.232 273.524 88.72 273.648 88.376 273.896C88.04 274.144 87.872 274.464 87.872 274.856C87.872 275.144 87.968 275.38 88.16 275.564C88.352 275.74 88.588 275.88 88.868 275.984C89.156 276.08 89.544 276.184 90.032 276.296C90.664 276.448 91.172 276.6 91.556 276.752C91.94 276.904 92.268 277.136 92.54 277.448C92.82 277.76 92.96 278.18 92.96 278.708C92.96 279.148 92.84 279.552 92.6 279.92C92.36 280.28 91.996 280.568 91.508 280.784C91.02 280.992 90.42 281.096 89.708 281.096ZM96.8611 274.58C97.7411 274.58 98.4131 274.796 98.8771 275.228C99.3491 275.66 99.5851 276.304 99.5851 277.16V281H98.4931V280.16C98.3011 280.456 98.0251 280.684 97.6651 280.844C97.3131 280.996 96.8931 281.072 96.4051 281.072C95.6931 281.072 95.1211 280.9 94.6891 280.556C94.2651 280.212 94.0531 279.76 94.0531 279.2C94.0531 278.64 94.2571 278.192 94.6651 277.856C95.0731 277.512 95.7211 277.34 96.6091 277.34H98.4331V277.112C98.4331 276.616 98.2891 276.236 98.0011 275.972C97.7131 275.708 97.2891 275.576 96.7291 275.576C96.3531 275.576 95.9851 275.64 95.6251 275.768C95.2651 275.888 94.9611 276.052 94.7131 276.26L94.2331 275.396C94.5611 275.132 94.9531 274.932 95.4091 274.796C95.8651 274.652 96.3491 274.58 96.8611 274.58ZM96.5971 280.184C97.0371 280.184 97.4171 280.088 97.7371 279.896C98.0571 279.696 98.2891 279.416 98.4331 279.056V278.168H96.6571C95.6811 278.168 95.1931 278.496 95.1931 279.152C95.1931 279.472 95.3171 279.724 95.5651 279.908C95.8131 280.092 96.1571 280.184 96.5971 280.184ZM107.228 274.64L104.444 281H103.268L100.484 274.64H101.684L103.868 279.74L106.1 274.64H107.228ZM113.875 277.856C113.875 277.944 113.867 278.06 113.851 278.204H108.691C108.763 278.764 109.007 279.216 109.423 279.56C109.847 279.896 110.371 280.064 110.995 280.064C111.755 280.064 112.367 279.808 112.831 279.296L113.467 280.04C113.179 280.376 112.819 280.632 112.387 280.808C111.963 280.984 111.487 281.072 110.959 281.072C110.287 281.072 109.691 280.936 109.171 280.664C108.651 280.384 108.247 279.996 107.959 279.5C107.679 279.004 107.539 278.444 107.539 277.82C107.539 277.204 107.675 276.648 107.947 276.152C108.227 275.656 108.607 275.272 109.087 275C109.575 274.72 110.123 274.58 110.731 274.58C111.339 274.58 111.879 274.72 112.351 275C112.831 275.272 113.203 275.656 113.467 276.152C113.739 276.648 113.875 277.216 113.875 277.856ZM110.731 275.552C110.179 275.552 109.715 275.72 109.339 276.056C108.971 276.392 108.755 276.832 108.691 277.376H112.771C112.707 276.84 112.487 276.404 112.111 276.068C111.743 275.724 111.283 275.552 110.731 275.552ZM126.653 281L126.641 274.88L123.605 279.98H123.053L120.017 274.916V281H118.865V272.6H119.849L123.353 278.504L126.809 272.6H127.793L127.805 281H126.653ZM132.474 274.58C133.354 274.58 134.026 274.796 134.49 275.228C134.962 275.66 135.198 276.304 135.198 277.16V281H134.106V280.16C133.914 280.456 133.638 280.684 133.278 280.844C132.926 280.996 132.506 281.072 132.018 281.072C131.306 281.072 130.734 280.9 130.302 280.556C129.878 280.212 129.666 279.76 129.666 279.2C129.666 278.64 129.87 278.192 130.278 277.856C130.686 277.512 131.334 277.34 132.222 277.34H134.046V277.112C134.046 276.616 133.902 276.236 133.614 275.972C133.326 275.708 132.902 275.576 132.342 275.576C131.966 275.576 131.598 275.64 131.238 275.768C130.878 275.888 130.574 276.052 130.326 276.26L129.846 275.396C130.174 275.132 130.566 274.932 131.022 274.796C131.478 274.652 131.962 274.58 132.474 274.58ZM132.21 280.184C132.65 280.184 133.03 280.088 133.35 279.896C133.67 279.696 133.902 279.416 134.046 279.056V278.168H132.27C131.294 278.168 130.806 278.496 130.806 279.152C130.806 279.472 130.93 279.724 131.178 279.908C131.426 280.092 131.77 280.184 132.21 280.184ZM140.702 274.58C141.318 274.58 141.87 274.716 142.358 274.988C142.846 275.26 143.226 275.64 143.498 276.128C143.778 276.616 143.918 277.18 143.918 277.82C143.918 278.46 143.778 279.028 143.498 279.524C143.226 280.012 142.846 280.392 142.358 280.664C141.87 280.936 141.318 281.072 140.702 281.072C140.246 281.072 139.826 280.984 139.442 280.808C139.066 280.632 138.746 280.376 138.482 280.04V283.328H137.33V274.64H138.434V275.648C138.69 275.296 139.014 275.032 139.406 274.856C139.798 274.672 140.23 274.58 140.702 274.58ZM140.606 280.064C141.014 280.064 141.378 279.972 141.698 279.788C142.026 279.596 142.282 279.332 142.466 278.996C142.658 278.652 142.754 278.26 142.754 277.82C142.754 277.38 142.658 276.992 142.466 276.656C142.282 276.312 142.026 276.048 141.698 275.864C141.378 275.68 141.014 275.588 140.606 275.588C140.206 275.588 139.842 275.684 139.514 275.876C139.194 276.06 138.938 276.32 138.746 276.656C138.562 276.992 138.47 277.38 138.47 277.82C138.47 278.26 138.562 278.652 138.746 278.996C138.93 279.332 139.186 279.596 139.514 279.788C139.842 279.972 140.206 280.064 140.606 280.064ZM148.882 274.58C149.498 274.58 150.05 274.716 150.538 274.988C151.026 275.26 151.406 275.64 151.678 276.128C151.958 276.616 152.098 277.18 152.098 277.82C152.098 278.46 151.958 279.028 151.678 279.524C151.406 280.012 151.026 280.392 150.538 280.664C150.05 280.936 149.498 281.072 148.882 281.072C148.426 281.072 148.006 280.984 147.622 280.808C147.246 280.632 146.926 280.376 146.662 280.04V283.328H145.51V274.64H146.614V275.648C146.87 275.296 147.194 275.032 147.586 274.856C147.978 274.672 148.41 274.58 148.882 274.58ZM148.786 280.064C149.194 280.064 149.558 279.972 149.878 279.788C150.206 279.596 150.462 279.332 150.646 278.996C150.838 278.652 150.934 278.26 150.934 277.82C150.934 277.38 150.838 276.992 150.646 276.656C150.462 276.312 150.206 276.048 149.878 275.864C149.558 275.68 149.194 275.588 148.786 275.588C148.386 275.588 148.022 275.684 147.694 275.876C147.374 276.06 147.118 276.32 146.926 276.656C146.742 276.992 146.65 277.38 146.65 277.82C146.65 278.26 146.742 278.652 146.926 278.996C147.11 279.332 147.366 279.596 147.694 279.788C148.022 279.972 148.386 280.064 148.786 280.064ZM153.69 274.64H154.842V281H153.69V274.64ZM154.266 273.416C154.042 273.416 153.854 273.344 153.702 273.2C153.558 273.056 153.486 272.88 153.486 272.672C153.486 272.464 153.558 272.288 153.702 272.144C153.854 271.992 154.042 271.916 154.266 271.916C154.49 271.916 154.674 271.988 154.818 272.132C154.97 272.268 155.046 272.44 155.046 272.648C155.046 272.864 154.97 273.048 154.818 273.2C154.674 273.344 154.49 273.416 154.266 273.416ZM160.437 274.58C161.245 274.58 161.885 274.816 162.357 275.288C162.837 275.752 163.077 276.436 163.077 277.34V281H161.925V277.472C161.925 276.856 161.777 276.392 161.481 276.08C161.185 275.768 160.761 275.612 160.209 275.612C159.585 275.612 159.093 275.796 158.733 276.164C158.373 276.524 158.193 277.044 158.193 277.724V281H157.041V274.64H158.145V275.6C158.377 275.272 158.689 275.02 159.081 274.844C159.481 274.668 159.933 274.58 160.437 274.58ZM171.328 274.64V280.136C171.328 281.248 171.052 282.068 170.5 282.596C169.948 283.132 169.124 283.4 168.028 283.4C167.428 283.4 166.856 283.316 166.312 283.148C165.768 282.988 165.328 282.756 164.992 282.452L165.544 281.564C165.84 281.82 166.204 282.02 166.636 282.164C167.076 282.316 167.528 282.392 167.992 282.392C168.736 282.392 169.284 282.216 169.636 281.864C169.996 281.512 170.176 280.976 170.176 280.256V279.752C169.904 280.08 169.568 280.328 169.168 280.496C168.776 280.656 168.348 280.736 167.884 280.736C167.276 280.736 166.724 280.608 166.228 280.352C165.74 280.088 165.356 279.724 165.076 279.26C164.796 278.788 164.656 278.252 164.656 277.652C164.656 277.052 164.796 276.52 165.076 276.056C165.356 275.584 165.74 275.22 166.228 274.964C166.724 274.708 167.276 274.58 167.884 274.58C168.364 274.58 168.808 274.668 169.216 274.844C169.632 275.02 169.972 275.28 170.236 275.624V274.64H171.328ZM168.016 279.728C168.432 279.728 168.804 279.64 169.132 279.464C169.468 279.288 169.728 279.044 169.912 278.732C170.104 278.412 170.2 278.052 170.2 277.652C170.2 277.036 169.996 276.54 169.588 276.164C169.18 275.78 168.656 275.588 168.016 275.588C167.368 275.588 166.84 275.78 166.432 276.164C166.024 276.54 165.82 277.036 165.82 277.652C165.82 278.052 165.912 278.412 166.096 278.732C166.288 279.044 166.548 279.288 166.876 279.464C167.212 279.64 167.592 279.728 168.016 279.728Z" fill="white"/>
</g>
<g id="Group 2163">
<rect id="Rectangle 480" x="134.243" y="255.243" width="6" height="1" rx="0.5" transform="rotate(-45 134.243 255.243)" fill="#62699F"/>
<rect id="Rectangle 481" x="129.243" y="246" width="6" height="1" rx="0.5" transform="rotate(90 129.243 246)" fill="#62699F"/>
<rect id="Rectangle 482" x="123.243" y="255.95" width="6" height="1" rx="0.5" transform="rotate(-135 123.243 255.95)" fill="#62699F"/>
</g>
</g>
<g id="black-pointer 1" clip-path="url(#clip0)">
<g id="Group">
<path id="Vector" d="M130.308 303.17L131.194 298.62C131.402 297.55 132.438 296.515 133.509 296.309L137.384 295.56C138.454 295.353 138.527 294.798 137.548 294.32L124.971 288.193C123.991 287.715 123.51 288.155 123.896 289.174L129.232 303.261C129.618 304.281 130.1 304.24 130.308 303.17Z" fill="#4B2E21"/>
</g>
</g>
</g>
<g id="fields">
<g id="form">
<g id="Group 2074">
<path id="Mapping Name" d="M79.048 98L79.036 91.88L76 96.98H75.448L72.412 91.916V98H71.26V89.6H72.244L75.748 95.504L79.204 89.6H80.188L80.2 98H79.048ZM84.8689 91.58C85.7489 91.58 86.4209 91.796 86.8849 92.228C87.3569 92.66 87.5929 93.304 87.5929 94.16V98H86.5009V97.16C86.3089 97.456 86.0329 97.684 85.6729 97.844C85.3209 97.996 84.9009 98.072 84.4129 98.072C83.7009 98.072 83.1289 97.9 82.6969 97.556C82.2729 97.212 82.0609 96.76 82.0609 96.2C82.0609 95.64 82.2649 95.192 82.6729 94.856C83.0809 94.512 83.7289 94.34 84.6169 94.34H86.4409V94.112C86.4409 93.616 86.2969 93.236 86.0089 92.972C85.7209 92.708 85.2969 92.576 84.7369 92.576C84.3609 92.576 83.9929 92.64 83.6329 92.768C83.2729 92.888 82.9689 93.052 82.7209 93.26L82.2409 92.396C82.5689 92.132 82.9609 91.932 83.4169 91.796C83.8729 91.652 84.3569 91.58 84.8689 91.58ZM84.6049 97.184C85.0449 97.184 85.4249 97.088 85.7449 96.896C86.0649 96.696 86.2969 96.416 86.4409 96.056V95.168H84.6649C83.6889 95.168 83.2009 95.496 83.2009 96.152C83.2009 96.472 83.3249 96.724 83.5729 96.908C83.8209 97.092 84.1649 97.184 84.6049 97.184ZM93.0968 91.58C93.7128 91.58 94.2648 91.716 94.7528 91.988C95.2408 92.26 95.6208 92.64 95.8928 93.128C96.1728 93.616 96.3128 94.18 96.3128 94.82C96.3128 95.46 96.1728 96.028 95.8928 96.524C95.6208 97.012 95.2408 97.392 94.7528 97.664C94.2648 97.936 93.7128 98.072 93.0968 98.072C92.6408 98.072 92.2208 97.984 91.8368 97.808C91.4608 97.632 91.1408 97.376 90.8768 97.04V100.328H89.7248V91.64H90.8288V92.648C91.0848 92.296 91.4088 92.032 91.8008 91.856C92.1928 91.672 92.6248 91.58 93.0968 91.58ZM93.0008 97.064C93.4088 97.064 93.7728 96.972 94.0928 96.788C94.4208 96.596 94.6768 96.332 94.8608 95.996C95.0528 95.652 95.1488 95.26 95.1488 94.82C95.1488 94.38 95.0528 93.992 94.8608 93.656C94.6768 93.312 94.4208 93.048 94.0928 92.864C93.7728 92.68 93.4088 92.588 93.0008 92.588C92.6008 92.588 92.2368 92.684 91.9088 92.876C91.5888 93.06 91.3328 93.32 91.1408 93.656C90.9568 93.992 90.8648 94.38 90.8648 94.82C90.8648 95.26 90.9568 95.652 91.1408 95.996C91.3248 96.332 91.5808 96.596 91.9088 96.788C92.2368 96.972 92.6008 97.064 93.0008 97.064ZM101.277 91.58C101.893 91.58 102.445 91.716 102.933 91.988C103.421 92.26 103.801 92.64 104.073 93.128C104.353 93.616 104.493 94.18 104.493 94.82C104.493 95.46 104.353 96.028 104.073 96.524C103.801 97.012 103.421 97.392 102.933 97.664C102.445 97.936 101.893 98.072 101.277 98.072C100.821 98.072 100.401 97.984 100.017 97.808C99.6405 97.632 99.3205 97.376 99.0565 97.04V100.328H97.9045V91.64H99.0085V92.648C99.2645 92.296 99.5885 92.032 99.9805 91.856C100.373 91.672 100.805 91.58 101.277 91.58ZM101.181 97.064C101.589 97.064 101.953 96.972 102.273 96.788C102.601 96.596 102.857 96.332 103.041 95.996C103.233 95.652 103.329 95.26 103.329 94.82C103.329 94.38 103.233 93.992 103.041 93.656C102.857 93.312 102.601 93.048 102.273 92.864C101.953 92.68 101.589 92.588 101.181 92.588C100.781 92.588 100.417 92.684 100.089 92.876C99.7685 93.06 99.5125 93.32 99.3205 93.656C99.1365 93.992 99.0445 94.38 99.0445 94.82C99.0445 95.26 99.1365 95.652 99.3205 95.996C99.5045 96.332 99.7605 96.596 100.089 96.788C100.417 96.972 100.781 97.064 101.181 97.064ZM106.084 91.64H107.236V98H106.084V91.64ZM106.66 90.416C106.436 90.416 106.248 90.344 106.096 90.2C105.952 90.056 105.88 89.88 105.88 89.672C105.88 89.464 105.952 89.288 106.096 89.144C106.248 88.992 106.436 88.916 106.66 88.916C106.884 88.916 107.068 88.988 107.212 89.132C107.364 89.268 107.44 89.44 107.44 89.648C107.44 89.864 107.364 90.048 107.212 90.2C107.068 90.344 106.884 90.416 106.66 90.416ZM112.832 91.58C113.64 91.58 114.28 91.816 114.752 92.288C115.232 92.752 115.472 93.436 115.472 94.34V98H114.32V94.472C114.32 93.856 114.172 93.392 113.876 93.08C113.58 92.768 113.156 92.612 112.604 92.612C111.98 92.612 111.488 92.796 111.128 93.164C110.768 93.524 110.588 94.044 110.588 94.724V98H109.436V91.64H110.54V92.6C110.772 92.272 111.084 92.02 111.476 91.844C111.876 91.668 112.328 91.58 112.832 91.58ZM123.723 91.64V97.136C123.723 98.248 123.447 99.068 122.895 99.596C122.343 100.132 121.519 100.4 120.423 100.4C119.823 100.4 119.251 100.316 118.707 100.148C118.163 99.988 117.723 99.756 117.387 99.452L117.939 98.564C118.235 98.82 118.599 99.02 119.031 99.164C119.471 99.316 119.923 99.392 120.387 99.392C121.131 99.392 121.679 99.216 122.031 98.864C122.391 98.512 122.571 97.976 122.571 97.256V96.752C122.299 97.08 121.963 97.328 121.563 97.496C121.171 97.656 120.743 97.736 120.279 97.736C119.671 97.736 119.119 97.608 118.623 97.352C118.135 97.088 117.751 96.724 117.471 96.26C117.191 95.788 117.051 95.252 117.051 94.652C117.051 94.052 117.191 93.52 117.471 93.056C117.751 92.584 118.135 92.22 118.623 91.964C119.119 91.708 119.671 91.58 120.279 91.58C120.759 91.58 121.203 91.668 121.611 91.844C122.027 92.02 122.367 92.28 122.631 92.624V91.64H123.723ZM120.411 96.728C120.827 96.728 121.199 96.64 121.527 96.464C121.863 96.288 122.123 96.044 122.307 95.732C122.499 95.412 122.595 95.052 122.595 94.652C122.595 94.036 122.391 93.54 121.983 93.164C121.575 92.78 121.051 92.588 120.411 92.588C119.763 92.588 119.235 92.78 118.827 93.164C118.419 93.54 118.215 94.036 118.215 94.652C118.215 95.052 118.307 95.412 118.491 95.732C118.683 96.044 118.943 96.288 119.271 96.464C119.607 96.64 119.987 96.728 120.411 96.728ZM136.539 89.6V98H135.555L130.515 91.736V98H129.315V89.6H130.299L135.339 95.864V89.6H136.539ZM141.201 91.58C142.081 91.58 142.753 91.796 143.217 92.228C143.689 92.66 143.925 93.304 143.925 94.16V98H142.833V97.16C142.641 97.456 142.365 97.684 142.005 97.844C141.653 97.996 141.233 98.072 140.745 98.072C140.033 98.072 139.461 97.9 139.029 97.556C138.605 97.212 138.393 96.76 138.393 96.2C138.393 95.64 138.597 95.192 139.005 94.856C139.413 94.512 140.061 94.34 140.949 94.34H142.773V94.112C142.773 93.616 142.629 93.236 142.341 92.972C142.053 92.708 141.629 92.576 141.069 92.576C140.693 92.576 140.325 92.64 139.965 92.768C139.605 92.888 139.301 93.052 139.053 93.26L138.573 92.396C138.901 92.132 139.293 91.932 139.749 91.796C140.205 91.652 140.689 91.58 141.201 91.58ZM140.937 97.184C141.377 97.184 141.757 97.088 142.077 96.896C142.397 96.696 142.629 96.416 142.773 96.056V95.168H140.997C140.021 95.168 139.533 95.496 139.533 96.152C139.533 96.472 139.657 96.724 139.905 96.908C140.153 97.092 140.497 97.184 140.937 97.184ZM154.013 91.58C154.813 91.58 155.445 91.812 155.909 92.276C156.381 92.74 156.617 93.428 156.617 94.34V98H155.465V94.472C155.465 93.856 155.321 93.392 155.033 93.08C154.753 92.768 154.349 92.612 153.821 92.612C153.237 92.612 152.773 92.796 152.429 93.164C152.085 93.524 151.913 94.044 151.913 94.724V98H150.761V94.472C150.761 93.856 150.617 93.392 150.329 93.08C150.049 92.768 149.645 92.612 149.117 92.612C148.533 92.612 148.069 92.796 147.725 93.164C147.381 93.524 147.209 94.044 147.209 94.724V98H146.057V91.64H147.161V92.588C147.393 92.26 147.697 92.012 148.073 91.844C148.449 91.668 148.877 91.58 149.357 91.58C149.853 91.58 150.293 91.68 150.677 91.88C151.061 92.08 151.357 92.372 151.565 92.756C151.805 92.388 152.137 92.1 152.561 91.892C152.993 91.684 153.477 91.58 154.013 91.58ZM164.52 94.856C164.52 94.944 164.512 95.06 164.496 95.204H159.336C159.408 95.764 159.652 96.216 160.068 96.56C160.492 96.896 161.016 97.064 161.64 97.064C162.4 97.064 163.012 96.808 163.476 96.296L164.112 97.04C163.824 97.376 163.464 97.632 163.032 97.808C162.608 97.984 162.132 98.072 161.604 98.072C160.932 98.072 160.336 97.936 159.816 97.664C159.296 97.384 158.892 96.996 158.604 96.5C158.324 96.004 158.184 95.444 158.184 94.82C158.184 94.204 158.32 93.648 158.592 93.152C158.872 92.656 159.252 92.272 159.732 92C160.22 91.72 160.768 91.58 161.376 91.58C161.984 91.58 162.524 91.72 162.996 92C163.476 92.272 163.848 92.656 164.112 93.152C164.384 93.648 164.52 94.216 164.52 94.856ZM161.376 92.552C160.824 92.552 160.36 92.72 159.984 93.056C159.616 93.392 159.4 93.832 159.336 94.376H163.416C163.352 93.84 163.132 93.404 162.756 93.068C162.388 92.724 161.928 92.552 161.376 92.552Z" fill="#6577AA"/>
</g>
<g id="Group 2149">
<g id="input text">
<rect id="bg_2" x="273.25" y="78.25" width="235.5" height="31.5" rx="4.75" fill="#F0F0F6" stroke="#62699F" stroke-width="0.5"/>
<g id="Group 2146">
<path id="ID_SKU" d="M292.26 89.6H293.46V98H292.26V89.6ZM295.975 89.6H299.515C300.403 89.6 301.191 89.776 301.879 90.128C302.567 90.48 303.099 90.976 303.475 91.616C303.859 92.248 304.051 92.976 304.051 93.8C304.051 94.624 303.859 95.356 303.475 95.996C303.099 96.628 302.567 97.12 301.879 97.472C301.191 97.824 300.403 98 299.515 98H295.975V89.6ZM299.443 96.956C300.123 96.956 300.719 96.824 301.231 96.56C301.751 96.296 302.151 95.928 302.431 95.456C302.711 94.976 302.851 94.424 302.851 93.8C302.851 93.176 302.711 92.628 302.431 92.156C302.151 91.676 301.751 91.304 301.231 91.04C300.719 90.776 300.123 90.644 299.443 90.644H297.175V96.956H299.443ZM304.266 98H310.266V98.744H304.266V98ZM314.208 98.096C313.576 98.096 312.964 98 312.372 97.808C311.788 97.608 311.328 97.352 310.992 97.04L311.436 96.104C311.756 96.392 312.164 96.628 312.66 96.812C313.164 96.988 313.68 97.076 314.208 97.076C314.904 97.076 315.424 96.96 315.768 96.728C316.112 96.488 316.284 96.172 316.284 95.78C316.284 95.492 316.188 95.26 315.996 95.084C315.812 94.9 315.58 94.76 315.3 94.664C315.028 94.568 314.64 94.46 314.136 94.34C313.504 94.188 312.992 94.036 312.6 93.884C312.216 93.732 311.884 93.5 311.604 93.188C311.332 92.868 311.196 92.44 311.196 91.904C311.196 91.456 311.312 91.052 311.544 90.692C311.784 90.332 312.144 90.044 312.624 89.828C313.104 89.612 313.7 89.504 314.412 89.504C314.908 89.504 315.396 89.568 315.876 89.696C316.356 89.824 316.768 90.008 317.112 90.248L316.716 91.208C316.364 90.984 315.988 90.816 315.588 90.704C315.188 90.584 314.796 90.524 314.412 90.524C313.732 90.524 313.22 90.648 312.876 90.896C312.54 91.144 312.372 91.464 312.372 91.856C312.372 92.144 312.468 92.38 312.66 92.564C312.852 92.74 313.088 92.88 313.368 92.984C313.656 93.08 314.044 93.184 314.532 93.296C315.164 93.448 315.672 93.6 316.056 93.752C316.44 93.904 316.768 94.136 317.04 94.448C317.32 94.76 317.46 95.18 317.46 95.708C317.46 96.148 317.34 96.552 317.1 96.92C316.86 97.28 316.496 97.568 316.008 97.784C315.52 97.992 314.92 98.096 314.208 98.096ZM321.949 94.268L320.413 95.828V98H319.213V89.6H320.413V94.292L324.973 89.6H326.341L322.753 93.38L326.569 98H325.165L321.949 94.268ZM331.201 98.096C330.081 98.096 329.209 97.776 328.585 97.136C327.961 96.496 327.649 95.576 327.649 94.376V89.6H328.849V94.328C328.849 96.128 329.637 97.028 331.213 97.028C331.981 97.028 332.569 96.808 332.977 96.368C333.385 95.92 333.589 95.24 333.589 94.328V89.6H334.753V94.376C334.753 95.584 334.441 96.508 333.817 97.148C333.193 97.78 332.321 98.096 331.201 98.096Z" fill="#62699F"/>
</g>
</g>
</g>
</g>
<g id="form_2">
<g id="Group 2074_2">
<path id="Attribute Separator" d="M76.612 137.9H72.148L71.224 140H69.988L73.792 131.6H74.98L78.796 140H77.536L76.612 137.9ZM76.192 136.94L74.38 132.824L72.568 136.94H76.192ZM83.3985 139.628C83.2305 139.772 83.0225 139.884 82.7745 139.964C82.5265 140.036 82.2705 140.072 82.0065 140.072C81.3665 140.072 80.8705 139.9 80.5185 139.556C80.1665 139.212 79.9905 138.72 79.9905 138.08V134.588H78.9105V133.64H79.9905V132.248H81.1425V133.64H82.9665V134.588H81.1425V138.032C81.1425 138.376 81.2265 138.64 81.3945 138.824C81.5705 139.008 81.8185 139.1 82.1385 139.1C82.4905 139.1 82.7905 139 83.0385 138.8L83.3985 139.628ZM88.2149 139.628C88.0469 139.772 87.8389 139.884 87.5909 139.964C87.3429 140.036 87.0869 140.072 86.8229 140.072C86.1829 140.072 85.6869 139.9 85.3349 139.556C84.9829 139.212 84.8069 138.72 84.8069 138.08V134.588H83.7269V133.64H84.8069V132.248H85.9589V133.64H87.7829V134.588H85.9589V138.032C85.9589 138.376 86.0429 138.64 86.2109 138.824C86.3869 139.008 86.6349 139.1 86.9549 139.1C87.3069 139.1 87.6069 139 87.8549 138.8L88.2149 139.628ZM90.7116 134.708C90.9116 134.34 91.2076 134.06 91.5996 133.868C91.9916 133.676 92.4676 133.58 93.0276 133.58V134.696C92.9636 134.688 92.8756 134.684 92.7636 134.684C92.1396 134.684 91.6476 134.872 91.2876 135.248C90.9356 135.616 90.7596 136.144 90.7596 136.832V140H89.6076V133.64H90.7116V134.708ZM94.4475 133.64H95.5995V140H94.4475V133.64ZM95.0235 132.416C94.7995 132.416 94.6115 132.344 94.4595 132.2C94.3155 132.056 94.2435 131.88 94.2435 131.672C94.2435 131.464 94.3155 131.288 94.4595 131.144C94.6115 130.992 94.7995 130.916 95.0235 130.916C95.2475 130.916 95.4315 130.988 95.5755 131.132C95.7275 131.268 95.8035 131.44 95.8035 131.648C95.8035 131.864 95.7275 132.048 95.5755 132.2C95.4315 132.344 95.2475 132.416 95.0235 132.416ZM101.171 133.58C101.787 133.58 102.339 133.716 102.827 133.988C103.315 134.26 103.695 134.64 103.967 135.128C104.247 135.616 104.387 136.18 104.387 136.82C104.387 137.46 104.247 138.028 103.967 138.524C103.695 139.012 103.315 139.392 102.827 139.664C102.339 139.936 101.787 140.072 101.171 140.072C100.699 140.072 100.267 139.98 99.875 139.796C99.483 139.612 99.159 139.344 98.903 138.992V140H97.799V131.096H98.951V134.6C99.207 134.264 99.527 134.012 99.911 133.844C100.295 133.668 100.715 133.58 101.171 133.58ZM101.075 139.064C101.483 139.064 101.847 138.972 102.167 138.788C102.495 138.596 102.751 138.332 102.935 137.996C103.127 137.652 103.223 137.26 103.223 136.82C103.223 136.38 103.127 135.992 102.935 135.656C102.751 135.312 102.495 135.048 102.167 134.864C101.847 134.68 101.483 134.588 101.075 134.588C100.675 134.588 100.311 134.68 99.983 134.864C99.655 135.048 99.399 135.312 99.215 135.656C99.031 135.992 98.939 136.38 98.939 136.82C98.939 137.26 99.031 137.652 99.215 137.996C99.399 138.332 99.655 138.596 99.983 138.788C100.311 138.972 100.675 139.064 101.075 139.064ZM111.907 133.64V140H110.815V139.04C110.583 139.368 110.275 139.624 109.891 139.808C109.515 139.984 109.103 140.072 108.655 140.072C107.807 140.072 107.139 139.84 106.651 139.376C106.163 138.904 105.919 138.212 105.919 137.3V133.64H107.071V137.168C107.071 137.784 107.219 138.252 107.515 138.572C107.811 138.884 108.235 139.04 108.787 139.04C109.395 139.04 109.875 138.856 110.227 138.488C110.579 138.12 110.755 137.6 110.755 136.928V133.64H111.907ZM117.676 139.628C117.508 139.772 117.3 139.884 117.052 139.964C116.804 140.036 116.548 140.072 116.284 140.072C115.644 140.072 115.148 139.9 114.796 139.556C114.444 139.212 114.268 138.72 114.268 138.08V134.588H113.188V133.64H114.268V132.248H115.42V133.64H117.244V134.588H115.42V138.032C115.42 138.376 115.504 138.64 115.672 138.824C115.848 139.008 116.096 139.1 116.416 139.1C116.768 139.1 117.068 139 117.316 138.8L117.676 139.628ZM124.606 136.856C124.606 136.944 124.598 137.06 124.582 137.204H119.422C119.494 137.764 119.738 138.216 120.154 138.56C120.578 138.896 121.102 139.064 121.726 139.064C122.486 139.064 123.098 138.808 123.562 138.296L124.198 139.04C123.91 139.376 123.55 139.632 123.118 139.808C122.694 139.984 122.218 140.072 121.69 140.072C121.018 140.072 120.422 139.936 119.902 139.664C119.382 139.384 118.978 138.996 118.69 138.5C118.41 138.004 118.27 137.444 118.27 136.82C118.27 136.204 118.406 135.648 118.678 135.152C118.958 134.656 119.338 134.272 119.818 134C120.306 133.72 120.854 133.58 121.462 133.58C122.07 133.58 122.61 133.72 123.082 134C123.562 134.272 123.934 134.656 124.198 135.152C124.47 135.648 124.606 136.216 124.606 136.856ZM121.462 134.552C120.91 134.552 120.446 134.72 120.07 135.056C119.702 135.392 119.486 135.832 119.422 136.376H123.502C123.438 135.84 123.218 135.404 122.842 135.068C122.474 134.724 122.014 134.552 121.462 134.552ZM132.044 140.096C131.412 140.096 130.8 140 130.208 139.808C129.624 139.608 129.164 139.352 128.828 139.04L129.272 138.104C129.592 138.392 130 138.628 130.496 138.812C131 138.988 131.516 139.076 132.044 139.076C132.74 139.076 133.26 138.96 133.604 138.728C133.948 138.488 134.12 138.172 134.12 137.78C134.12 137.492 134.024 137.26 133.832 137.084C133.648 136.9 133.416 136.76 133.136 136.664C132.864 136.568 132.476 136.46 131.972 136.34C131.34 136.188 130.828 136.036 130.436 135.884C130.052 135.732 129.72 135.5 129.44 135.188C129.168 134.868 129.032 134.44 129.032 133.904C129.032 133.456 129.148 133.052 129.38 132.692C129.62 132.332 129.98 132.044 130.46 131.828C130.94 131.612 131.536 131.504 132.248 131.504C132.744 131.504 133.232 131.568 133.712 131.696C134.192 131.824 134.604 132.008 134.948 132.248L134.552 133.208C134.2 132.984 133.824 132.816 133.424 132.704C133.024 132.584 132.632 132.524 132.248 132.524C131.568 132.524 131.056 132.648 130.712 132.896C130.376 133.144 130.208 133.464 130.208 133.856C130.208 134.144 130.304 134.38 130.496 134.564C130.688 134.74 130.924 134.88 131.204 134.984C131.492 135.08 131.88 135.184 132.368 135.296C133 135.448 133.508 135.6 133.892 135.752C134.276 135.904 134.604 136.136 134.876 136.448C135.156 136.76 135.296 137.18 135.296 137.708C135.296 138.148 135.176 138.552 134.936 138.92C134.696 139.28 134.332 139.568 133.844 139.784C133.356 139.992 132.756 140.096 132.044 140.096ZM142.629 136.856C142.629 136.944 142.621 137.06 142.605 137.204H137.445C137.517 137.764 137.761 138.216 138.177 138.56C138.601 138.896 139.125 139.064 139.749 139.064C140.509 139.064 141.121 138.808 141.585 138.296L142.221 139.04C141.933 139.376 141.573 139.632 141.141 139.808C140.717 139.984 140.241 140.072 139.713 140.072C139.041 140.072 138.445 139.936 137.925 139.664C137.405 139.384 137.001 138.996 136.713 138.5C136.433 138.004 136.293 137.444 136.293 136.82C136.293 136.204 136.429 135.648 136.701 135.152C136.981 134.656 137.361 134.272 137.841 134C138.329 133.72 138.877 133.58 139.485 133.58C140.093 133.58 140.633 133.72 141.105 134C141.585 134.272 141.957 134.656 142.221 135.152C142.493 135.648 142.629 136.216 142.629 136.856ZM139.485 134.552C138.933 134.552 138.469 134.72 138.093 135.056C137.725 135.392 137.509 135.832 137.445 136.376H141.525C141.461 135.84 141.241 135.404 140.865 135.068C140.497 134.724 140.037 134.552 139.485 134.552ZM147.601 133.58C148.217 133.58 148.769 133.716 149.257 133.988C149.745 134.26 150.125 134.64 150.397 135.128C150.677 135.616 150.817 136.18 150.817 136.82C150.817 137.46 150.677 138.028 150.397 138.524C150.125 139.012 149.745 139.392 149.257 139.664C148.769 139.936 148.217 140.072 147.601 140.072C147.145 140.072 146.725 139.984 146.341 139.808C145.965 139.632 145.645 139.376 145.381 139.04V142.328H144.229V133.64H145.333V134.648C145.589 134.296 145.913 134.032 146.305 133.856C146.697 133.672 147.129 133.58 147.601 133.58ZM147.505 139.064C147.913 139.064 148.277 138.972 148.597 138.788C148.925 138.596 149.181 138.332 149.365 137.996C149.557 137.652 149.653 137.26 149.653 136.82C149.653 136.38 149.557 135.992 149.365 135.656C149.181 135.312 148.925 135.048 148.597 134.864C148.277 134.68 147.913 134.588 147.505 134.588C147.105 134.588 146.741 134.684 146.413 134.876C146.093 135.06 145.837 135.32 145.645 135.656C145.461 135.992 145.369 136.38 145.369 136.82C145.369 137.26 145.461 137.652 145.645 137.996C145.829 138.332 146.085 138.596 146.413 138.788C146.741 138.972 147.105 139.064 147.505 139.064ZM154.666 133.58C155.546 133.58 156.218 133.796 156.682 134.228C157.154 134.66 157.39 135.304 157.39 136.16V140H156.298V139.16C156.106 139.456 155.83 139.684 155.47 139.844C155.118 139.996 154.698 140.072 154.21 140.072C153.498 140.072 152.926 139.9 152.494 139.556C152.07 139.212 151.858 138.76 151.858 138.2C151.858 137.64 152.062 137.192 152.47 136.856C152.878 136.512 153.526 136.34 154.414 136.34H156.238V136.112C156.238 135.616 156.094 135.236 155.806 134.972C155.518 134.708 155.094 134.576 154.534 134.576C154.158 134.576 153.79 134.64 153.43 134.768C153.07 134.888 152.766 135.052 152.518 135.26L152.038 134.396C152.366 134.132 152.758 133.932 153.214 133.796C153.67 133.652 154.154 133.58 154.666 133.58ZM154.402 139.184C154.842 139.184 155.222 139.088 155.542 138.896C155.862 138.696 156.094 138.416 156.238 138.056V137.168H154.462C153.486 137.168 152.998 137.496 152.998 138.152C152.998 138.472 153.122 138.724 153.37 138.908C153.618 139.092 153.962 139.184 154.402 139.184ZM160.626 134.708C160.826 134.34 161.122 134.06 161.514 133.868C161.906 133.676 162.382 133.58 162.942 133.58V134.696C162.878 134.688 162.79 134.684 162.678 134.684C162.054 134.684 161.562 134.872 161.202 135.248C160.85 135.616 160.674 136.144 160.674 136.832V140H159.522V133.64H160.626V134.708ZM166.666 133.58C167.546 133.58 168.218 133.796 168.682 134.228C169.154 134.66 169.39 135.304 169.39 136.16V140H168.298V139.16C168.106 139.456 167.83 139.684 167.47 139.844C167.118 139.996 166.698 140.072 166.21 140.072C165.498 140.072 164.926 139.9 164.494 139.556C164.07 139.212 163.858 138.76 163.858 138.2C163.858 137.64 164.062 137.192 164.47 136.856C164.878 136.512 165.526 136.34 166.414 136.34H168.238V136.112C168.238 135.616 168.094 135.236 167.806 134.972C167.518 134.708 167.094 134.576 166.534 134.576C166.158 134.576 165.79 134.64 165.43 134.768C165.07 134.888 164.766 135.052 164.518 135.26L164.038 134.396C164.366 134.132 164.758 133.932 165.214 133.796C165.67 133.652 166.154 133.58 166.666 133.58ZM166.402 139.184C166.842 139.184 167.222 139.088 167.542 138.896C167.862 138.696 168.094 138.416 168.238 138.056V137.168H166.462C165.486 137.168 164.998 137.496 164.998 138.152C164.998 138.472 165.122 138.724 165.37 138.908C165.618 139.092 165.962 139.184 166.402 139.184ZM175.098 139.628C174.93 139.772 174.722 139.884 174.474 139.964C174.226 140.036 173.97 140.072 173.706 140.072C173.066 140.072 172.57 139.9 172.218 139.556C171.866 139.212 171.69 138.72 171.69 138.08V134.588H170.61V133.64H171.69V132.248H172.842V133.64H174.666V134.588H172.842V138.032C172.842 138.376 172.926 138.64 173.094 138.824C173.27 139.008 173.518 139.1 173.838 139.1C174.19 139.1 174.49 139 174.738 138.8L175.098 139.628ZM179.004 140.072C178.372 140.072 177.804 139.932 177.3 139.652C176.796 139.372 176.4 138.988 176.112 138.5C175.832 138.004 175.692 137.444 175.692 136.82C175.692 136.196 175.832 135.64 176.112 135.152C176.4 134.656 176.796 134.272 177.3 134C177.804 133.72 178.372 133.58 179.004 133.58C179.636 133.58 180.2 133.72 180.696 134C181.2 134.272 181.592 134.656 181.872 135.152C182.16 135.64 182.304 136.196 182.304 136.82C182.304 137.444 182.16 138.004 181.872 138.5C181.592 138.988 181.2 139.372 180.696 139.652C180.2 139.932 179.636 140.072 179.004 140.072ZM179.004 139.064C179.412 139.064 179.776 138.972 180.096 138.788C180.424 138.596 180.68 138.332 180.864 137.996C181.048 137.652 181.14 137.26 181.14 136.82C181.14 136.38 181.048 135.992 180.864 135.656C180.68 135.312 180.424 135.048 180.096 134.864C179.776 134.68 179.412 134.588 179.004 134.588C178.596 134.588 178.228 134.68 177.9 134.864C177.58 135.048 177.324 135.312 177.132 135.656C176.948 135.992 176.856 136.38 176.856 136.82C176.856 137.26 176.948 137.652 177.132 137.996C177.324 138.332 177.58 138.596 177.9 138.788C178.228 138.972 178.596 139.064 179.004 139.064ZM185.001 134.708C185.201 134.34 185.497 134.06 185.889 133.868C186.281 133.676 186.757 133.58 187.317 133.58V134.696C187.253 134.688 187.165 134.684 187.053 134.684C186.429 134.684 185.937 134.872 185.577 135.248C185.225 135.616 185.049 136.144 185.049 136.832V140H183.897V133.64H185.001V134.708Z" fill="#6577AA"/>
</g>
<g id="Group 2149_2">
<g id="input text_2">
<rect id="bg_3" x="273.25" y="120.25" width="235.5" height="31.5" rx="4.75" fill="#F0F0F6" stroke="#62699F" stroke-width="0.5"/>
<g id="Group 2146_2">
<path id="_" d="M291 140H297V140.744H291V140Z" fill="#62699F"/>
</g>
</g>
</g>
</g>
<g id="form_3">
<g id="Group 2149_3">
<g id="input text_3">
<rect id="bg_4" x="273.25" y="204.25" width="203.5" height="31.5" rx="4.75" fill="#F3F3F8" stroke="#8187B2" stroke-width="0.5"/>
<g id="select control">
<path id="Polygon 1" d="M458 225L455 221L461 221L458 225Z" fill="#62699F"/>
<path id="Polygon 2" d="M458 215L461 219H455L458 215Z" fill="#62699F"/>
</g>
<g id="Group 2147">
<rect id="Rectangle 474" x="289" y="212" width="44" height="16" rx="2" fill="#D7D9E6"/>
<path id="SKU" d="M296.708 224.096C296.076 224.096 295.464 224 294.872 223.808C294.288 223.608 293.828 223.352 293.492 223.04L293.936 222.104C294.256 222.392 294.664 222.628 295.16 222.812C295.664 222.988 296.18 223.076 296.708 223.076C297.404 223.076 297.924 222.96 298.268 222.728C298.612 222.488 298.784 222.172 298.784 221.78C298.784 221.492 298.688 221.26 298.496 221.084C298.312 220.9 298.08 220.76 297.8 220.664C297.528 220.568 297.14 220.46 296.636 220.34C296.004 220.188 295.492 220.036 295.1 219.884C294.716 219.732 294.384 219.5 294.104 219.188C293.832 218.868 293.696 218.44 293.696 217.904C293.696 217.456 293.812 217.052 294.044 216.692C294.284 216.332 294.644 216.044 295.124 215.828C295.604 215.612 296.2 215.504 296.912 215.504C297.408 215.504 297.896 215.568 298.376 215.696C298.856 215.824 299.268 216.008 299.612 216.248L299.216 217.208C298.864 216.984 298.488 216.816 298.088 216.704C297.688 216.584 297.296 216.524 296.912 216.524C296.232 216.524 295.72 216.648 295.376 216.896C295.04 217.144 294.872 217.464 294.872 217.856C294.872 218.144 294.968 218.38 295.16 218.564C295.352 218.74 295.588 218.88 295.868 218.984C296.156 219.08 296.544 219.184 297.032 219.296C297.664 219.448 298.172 219.6 298.556 219.752C298.94 219.904 299.268 220.136 299.54 220.448C299.82 220.76 299.96 221.18 299.96 221.708C299.96 222.148 299.84 222.552 299.6 222.92C299.36 223.28 298.996 223.568 298.508 223.784C298.02 223.992 297.42 224.096 296.708 224.096ZM304.449 220.268L302.913 221.828V224H301.713V215.6H302.913V220.292L307.473 215.6H308.841L305.253 219.38L309.069 224H307.665L304.449 220.268ZM313.701 224.096C312.581 224.096 311.709 223.776 311.085 223.136C310.461 222.496 310.149 221.576 310.149 220.376V215.6H311.349V220.328C311.349 222.128 312.137 223.028 313.713 223.028C314.481 223.028 315.069 222.808 315.477 222.368C315.885 221.92 316.089 221.24 316.089 220.328V215.6H317.253V220.376C317.253 221.584 316.941 222.508 316.317 223.148C315.693 223.78 314.821 224.096 313.701 224.096Z" fill="#62699F"/>
<g id="Group 2145">
<line id="Line 105" y1="-0.25" x2="7.40773" y2="-0.25" transform="matrix(-0.689203 0.724568 -0.689203 -0.724568 328.105 217.307)" stroke="#62699F" stroke-width="0.5"/>
<line id="Line 106" y1="-0.25" x2="7.40773" y2="-0.25" transform="matrix(-0.689203 -0.724568 0.689204 -0.724568 328.707 222.367)" stroke="#62699F" stroke-width="0.5"/>
</g>
</g>
</g>
<g id="Group 2162">
<path id="Ellipse 83" d="M495 227C490.582 227 487 223.419 487 219C487 214.582 490.582 211 495 211C499.418 211 503 214.582 503 219C503 223.419 499.418 227 495 227Z" fill="white"/>
<path id="Ellipse 83 (Stroke)" fill-rule="evenodd" clip-rule="evenodd" d="M488 219C488 222.866 491.134 226 495 226C498.866 226 502 222.866 502 219C502 215.134 498.866 212 495 212C491.134 212 488 215.134 488 219ZM487 219C487 223.418 490.582 227 495 227C499.418 227 503 223.418 503 219C503 214.582 499.418 211 495 211C490.582 211 487 214.582 487 219Z" fill="#62699F"/>
<path id="Line 107 (Stroke)" fill-rule="evenodd" clip-rule="evenodd" d="M497.829 221.829L492.172 216.172L492.879 215.465L498.536 221.122L497.829 221.829Z" fill="#62699F"/>
<path id="Line 108 (Stroke)" fill-rule="evenodd" clip-rule="evenodd" d="M492.172 221.829L497.829 216.172L498.536 216.879L492.879 222.536L492.172 221.829Z" fill="#62699F"/>
</g>
<path id="Select Attribute" d="M73.708 224.096C73.076 224.096 72.464 224 71.872 223.808C71.288 223.608 70.828 223.352 70.492 223.04L70.936 222.104C71.256 222.392 71.664 222.628 72.16 222.812C72.664 222.988 73.18 223.076 73.708 223.076C74.404 223.076 74.924 222.96 75.268 222.728C75.612 222.488 75.784 222.172 75.784 221.78C75.784 221.492 75.688 221.26 75.496 221.084C75.312 220.9 75.08 220.76 74.8 220.664C74.528 220.568 74.14 220.46 73.636 220.34C73.004 220.188 72.492 220.036 72.1 219.884C71.716 219.732 71.384 219.5 71.104 219.188C70.832 218.868 70.696 218.44 70.696 217.904C70.696 217.456 70.812 217.052 71.044 216.692C71.284 216.332 71.644 216.044 72.124 215.828C72.604 215.612 73.2 215.504 73.912 215.504C74.408 215.504 74.896 215.568 75.376 215.696C75.856 215.824 76.268 216.008 76.612 216.248L76.216 217.208C75.864 216.984 75.488 216.816 75.088 216.704C74.688 216.584 74.296 216.524 73.912 216.524C73.232 216.524 72.72 216.648 72.376 216.896C72.04 217.144 71.872 217.464 71.872 217.856C71.872 218.144 71.968 218.38 72.16 218.564C72.352 218.74 72.588 218.88 72.868 218.984C73.156 219.08 73.544 219.184 74.032 219.296C74.664 219.448 75.172 219.6 75.556 219.752C75.94 219.904 76.268 220.136 76.54 220.448C76.82 220.76 76.96 221.18 76.96 221.708C76.96 222.148 76.84 222.552 76.6 222.92C76.36 223.28 75.996 223.568 75.508 223.784C75.02 223.992 74.42 224.096 73.708 224.096ZM84.2931 220.856C84.2931 220.944 84.2851 221.06 84.2691 221.204H79.1091C79.1811 221.764 79.4251 222.216 79.8411 222.56C80.2651 222.896 80.7891 223.064 81.4131 223.064C82.1731 223.064 82.7851 222.808 83.2491 222.296L83.8851 223.04C83.5971 223.376 83.2371 223.632 82.8051 223.808C82.3811 223.984 81.9051 224.072 81.3771 224.072C80.7051 224.072 80.1091 223.936 79.5891 223.664C79.0691 223.384 78.6651 222.996 78.3771 222.5C78.0971 222.004 77.9571 221.444 77.9571 220.82C77.9571 220.204 78.0931 219.648 78.3651 219.152C78.6451 218.656 79.0251 218.272 79.5051 218C79.9931 217.72 80.5411 217.58 81.1491 217.58C81.7571 217.58 82.2971 217.72 82.7691 218C83.2491 218.272 83.6211 218.656 83.8851 219.152C84.1571 219.648 84.2931 220.216 84.2931 220.856ZM81.1491 218.552C80.5971 218.552 80.1331 218.72 79.7571 219.056C79.3891 219.392 79.1731 219.832 79.1091 220.376H83.1891C83.1251 219.84 82.9051 219.404 82.5291 219.068C82.1611 218.724 81.7011 218.552 81.1491 218.552ZM85.8928 215.096H87.0448V224H85.8928V215.096ZM94.9923 220.856C94.9923 220.944 94.9843 221.06 94.9683 221.204H89.8083C89.8803 221.764 90.1243 222.216 90.5403 222.56C90.9643 222.896 91.4883 223.064 92.1123 223.064C92.8723 223.064 93.4843 222.808 93.9483 222.296L94.5843 223.04C94.2963 223.376 93.9363 223.632 93.5043 223.808C93.0803 223.984 92.6043 224.072 92.0763 224.072C91.4043 224.072 90.8083 223.936 90.2883 223.664C89.7683 223.384 89.3643 222.996 89.0763 222.5C88.7963 222.004 88.6563 221.444 88.6563 220.82C88.6563 220.204 88.7923 219.648 89.0643 219.152C89.3443 218.656 89.7243 218.272 90.2043 218C90.6923 217.72 91.2403 217.58 91.8483 217.58C92.4563 217.58 92.9963 217.72 93.4683 218C93.9483 218.272 94.3203 218.656 94.5843 219.152C94.8563 219.648 94.9923 220.216 94.9923 220.856ZM91.8483 218.552C91.2963 218.552 90.8323 218.72 90.4563 219.056C90.0883 219.392 89.8723 219.832 89.8083 220.376H93.8883C93.8243 219.84 93.6043 219.404 93.2283 219.068C92.8603 218.724 92.4003 218.552 91.8483 218.552ZM99.364 224.072C98.716 224.072 98.136 223.932 97.624 223.652C97.12 223.372 96.724 222.988 96.436 222.5C96.148 222.004 96.004 221.444 96.004 220.82C96.004 220.196 96.148 219.64 96.436 219.152C96.724 218.656 97.12 218.272 97.624 218C98.136 217.72 98.716 217.58 99.364 217.58C99.94 217.58 100.452 217.696 100.9 217.928C101.356 218.16 101.708 218.496 101.956 218.936L101.08 219.5C100.88 219.196 100.632 218.968 100.336 218.816C100.04 218.664 99.712 218.588 99.352 218.588C98.936 218.588 98.56 218.68 98.224 218.864C97.896 219.048 97.636 219.312 97.444 219.656C97.26 219.992 97.168 220.38 97.168 220.82C97.168 221.268 97.26 221.664 97.444 222.008C97.636 222.344 97.896 222.604 98.224 222.788C98.56 222.972 98.936 223.064 99.352 223.064C99.712 223.064 100.04 222.988 100.336 222.836C100.632 222.684 100.88 222.456 101.08 222.152L101.956 222.704C101.708 223.144 101.356 223.484 100.9 223.724C100.452 223.956 99.94 224.072 99.364 224.072ZM107.106 223.628C106.938 223.772 106.73 223.884 106.482 223.964C106.234 224.036 105.978 224.072 105.714 224.072C105.074 224.072 104.578 223.9 104.226 223.556C103.874 223.212 103.698 222.72 103.698 222.08V218.588H102.618V217.64H103.698V216.248H104.85V217.64H106.674V218.588H104.85V222.032C104.85 222.376 104.934 222.64 105.102 222.824C105.278 223.008 105.526 223.1 105.846 223.1C106.198 223.1 106.498 223 106.746 222.8L107.106 223.628ZM120.464 221.9H116L115.076 224H113.84L117.644 215.6H118.832L122.648 224H121.388L120.464 221.9ZM120.044 220.94L118.232 216.824L116.42 220.94H120.044ZM127.25 223.628C127.082 223.772 126.874 223.884 126.626 223.964C126.378 224.036 126.122 224.072 125.858 224.072C125.218 224.072 124.722 223.9 124.37 223.556C124.018 223.212 123.842 222.72 123.842 222.08V218.588H122.762V217.64H123.842V216.248H124.994V217.64H126.818V218.588H124.994V222.032C124.994 222.376 125.078 222.64 125.246 222.824C125.422 223.008 125.67 223.1 125.99 223.1C126.342 223.1 126.642 223 126.89 222.8L127.25 223.628ZM132.066 223.628C131.898 223.772 131.69 223.884 131.442 223.964C131.194 224.036 130.938 224.072 130.674 224.072C130.034 224.072 129.538 223.9 129.186 223.556C128.834 223.212 128.658 222.72 128.658 222.08V218.588H127.578V217.64H128.658V216.248H129.81V217.64H131.634V218.588H129.81V222.032C129.81 222.376 129.894 222.64 130.062 222.824C130.238 223.008 130.486 223.1 130.806 223.1C131.158 223.1 131.458 223 131.706 222.8L132.066 223.628ZM134.563 218.708C134.763 218.34 135.059 218.06 135.451 217.868C135.843 217.676 136.319 217.58 136.879 217.58V218.696C136.815 218.688 136.727 218.684 136.615 218.684C135.991 218.684 135.499 218.872 135.139 219.248C134.787 219.616 134.611 220.144 134.611 220.832V224H133.459V217.64H134.563V218.708ZM138.299 217.64H139.451V224H138.299V217.64ZM138.875 216.416C138.651 216.416 138.463 216.344 138.311 216.2C138.167 216.056 138.095 215.88 138.095 215.672C138.095 215.464 138.167 215.288 138.311 215.144C138.463 214.992 138.651 214.916 138.875 214.916C139.099 214.916 139.283 214.988 139.427 215.132C139.579 215.268 139.655 215.44 139.655 215.648C139.655 215.864 139.579 216.048 139.427 216.2C139.283 216.344 139.099 216.416 138.875 216.416ZM145.023 217.58C145.639 217.58 146.191 217.716 146.679 217.988C147.167 218.26 147.547 218.64 147.819 219.128C148.099 219.616 148.239 220.18 148.239 220.82C148.239 221.46 148.099 222.028 147.819 222.524C147.547 223.012 147.167 223.392 146.679 223.664C146.191 223.936 145.639 224.072 145.023 224.072C144.551 224.072 144.119 223.98 143.727 223.796C143.335 223.612 143.011 223.344 142.755 222.992V224H141.651V215.096H142.803V218.6C143.059 218.264 143.379 218.012 143.763 217.844C144.147 217.668 144.567 217.58 145.023 217.58ZM144.927 223.064C145.335 223.064 145.699 222.972 146.019 222.788C146.347 222.596 146.603 222.332 146.787 221.996C146.979 221.652 147.075 221.26 147.075 220.82C147.075 220.38 146.979 219.992 146.787 219.656C146.603 219.312 146.347 219.048 146.019 218.864C145.699 218.68 145.335 218.588 144.927 218.588C144.527 218.588 144.163 218.68 143.835 218.864C143.507 219.048 143.251 219.312 143.067 219.656C142.883 219.992 142.791 220.38 142.791 220.82C142.791 221.26 142.883 221.652 143.067 221.996C143.251 222.332 143.507 222.596 143.835 222.788C144.163 222.972 144.527 223.064 144.927 223.064ZM155.758 217.64V224H154.666V223.04C154.434 223.368 154.126 223.624 153.742 223.808C153.366 223.984 152.954 224.072 152.506 224.072C151.658 224.072 150.99 223.84 150.502 223.376C150.014 222.904 149.77 222.212 149.77 221.3V217.64H150.922V221.168C150.922 221.784 151.07 222.252 151.366 222.572C151.662 222.884 152.086 223.04 152.638 223.04C153.246 223.04 153.726 222.856 154.078 222.488C154.43 222.12 154.606 221.6 154.606 220.928V217.64H155.758ZM161.527 223.628C161.359 223.772 161.151 223.884 160.903 223.964C160.655 224.036 160.399 224.072 160.135 224.072C159.495 224.072 158.999 223.9 158.647 223.556C158.295 223.212 158.119 222.72 158.119 222.08V218.588H157.039V217.64H158.119V216.248H159.271V217.64H161.095V218.588H159.271V222.032C159.271 222.376 159.355 222.64 159.523 222.824C159.699 223.008 159.947 223.1 160.267 223.1C160.619 223.1 160.919 223 161.167 222.8L161.527 223.628ZM168.457 220.856C168.457 220.944 168.449 221.06 168.433 221.204H163.273C163.345 221.764 163.589 222.216 164.005 222.56C164.429 222.896 164.953 223.064 165.577 223.064C166.337 223.064 166.949 222.808 167.413 222.296L168.049 223.04C167.761 223.376 167.401 223.632 166.969 223.808C166.545 223.984 166.069 224.072 165.541 224.072C164.869 224.072 164.273 223.936 163.753 223.664C163.233 223.384 162.829 222.996 162.541 222.5C162.261 222.004 162.121 221.444 162.121 220.82C162.121 220.204 162.257 219.648 162.529 219.152C162.809 218.656 163.189 218.272 163.669 218C164.157 217.72 164.705 217.58 165.313 217.58C165.921 217.58 166.461 217.72 166.933 218C167.413 218.272 167.785 218.656 168.049 219.152C168.321 219.648 168.457 220.216 168.457 220.856ZM165.313 218.552C164.761 218.552 164.297 218.72 163.921 219.056C163.553 219.392 163.337 219.832 163.273 220.376H167.353C167.289 219.84 167.069 219.404 166.693 219.068C166.325 218.724 165.865 218.552 165.313 218.552Z" fill="#6577AA"/>
</g>
</g>
<g id="form_4">
<g id="Group 2149_4">
<g id="input text_4">
<rect id="bg_5" x="273.25" y="162.25" width="203.5" height="31.5" rx="4.75" fill="#F3F3F8" stroke="#8187B2" stroke-width="0.5"/>
<g id="select control_2">
<path id="Polygon 1_2" d="M458 183L455 179L461 179L458 183Z" fill="#62699F"/>
<path id="Polygon 2_2" d="M458 173L461 177H455L458 173Z" fill="#62699F"/>
</g>
<g id="Group 2147_2">
<rect id="Rectangle 474_2" x="289" y="170" width="84" height="16" rx="2" fill="#D7D9E6"/>
<path id="Product ID" d="M297.536 173.6C298.624 173.6 299.48 173.86 300.104 174.38C300.728 174.9 301.04 175.616 301.04 176.528C301.04 177.44 300.728 178.156 300.104 178.676C299.48 179.196 298.624 179.456 297.536 179.456H295.46V182H294.26V173.6H297.536ZM297.5 178.412C298.26 178.412 298.84 178.252 299.24 177.932C299.64 177.604 299.84 177.136 299.84 176.528C299.84 175.92 299.64 175.456 299.24 175.136C298.84 174.808 298.26 174.644 297.5 174.644H295.46V178.412H297.5ZM303.634 176.708C303.834 176.34 304.13 176.06 304.521 175.868C304.914 175.676 305.39 175.58 305.95 175.58V176.696C305.886 176.688 305.798 176.684 305.686 176.684C305.062 176.684 304.57 176.872 304.21 177.248C303.858 177.616 303.682 178.144 303.682 178.832V182H302.53V175.64H303.634V176.708ZM310.035 182.072C309.403 182.072 308.835 181.932 308.331 181.652C307.827 181.372 307.431 180.988 307.143 180.5C306.863 180.004 306.723 179.444 306.723 178.82C306.723 178.196 306.863 177.64 307.143 177.152C307.431 176.656 307.827 176.272 308.331 176C308.835 175.72 309.403 175.58 310.035 175.58C310.667 175.58 311.231 175.72 311.727 176C312.231 176.272 312.623 176.656 312.903 177.152C313.191 177.64 313.335 178.196 313.335 178.82C313.335 179.444 313.191 180.004 312.903 180.5C312.623 180.988 312.231 181.372 311.727 181.652C311.231 181.932 310.667 182.072 310.035 182.072ZM310.035 181.064C310.443 181.064 310.807 180.972 311.127 180.788C311.455 180.596 311.711 180.332 311.895 179.996C312.079 179.652 312.171 179.26 312.171 178.82C312.171 178.38 312.079 177.992 311.895 177.656C311.711 177.312 311.455 177.048 311.127 176.864C310.807 176.68 310.443 176.588 310.035 176.588C309.627 176.588 309.259 176.68 308.931 176.864C308.611 177.048 308.355 177.312 308.163 177.656C307.979 177.992 307.887 178.38 307.887 178.82C307.887 179.26 307.979 179.652 308.163 179.996C308.355 180.332 308.611 180.596 308.931 180.788C309.259 180.972 309.627 181.064 310.035 181.064ZM320.928 173.096V182H319.824V180.992C319.568 181.344 319.244 181.612 318.852 181.796C318.46 181.98 318.028 182.072 317.556 182.072C316.94 182.072 316.388 181.936 315.9 181.664C315.412 181.392 315.028 181.012 314.748 180.524C314.476 180.028 314.34 179.46 314.34 178.82C314.34 178.18 314.476 177.616 314.748 177.128C315.028 176.64 315.412 176.26 315.9 175.988C316.388 175.716 316.94 175.58 317.556 175.58C318.012 175.58 318.432 175.668 318.816 175.844C319.2 176.012 319.52 176.264 319.776 176.6V173.096H320.928ZM317.652 181.064C318.052 181.064 318.416 180.972 318.744 180.788C319.072 180.596 319.328 180.332 319.512 179.996C319.696 179.652 319.788 179.26 319.788 178.82C319.788 178.38 319.696 177.992 319.512 177.656C319.328 177.312 319.072 177.048 318.744 176.864C318.416 176.68 318.052 176.588 317.652 176.588C317.244 176.588 316.876 176.68 316.548 176.864C316.228 177.048 315.972 177.312 315.78 177.656C315.596 177.992 315.504 178.38 315.504 178.82C315.504 179.26 315.596 179.652 315.78 179.996C315.972 180.332 316.228 180.596 316.548 180.788C316.876 180.972 317.244 181.064 317.652 181.064ZM329.036 175.64V182H327.944V181.04C327.712 181.368 327.404 181.624 327.02 181.808C326.644 181.984 326.232 182.072 325.784 182.072C324.936 182.072 324.268 181.84 323.78 181.376C323.292 180.904 323.048 180.212 323.048 179.3V175.64H324.2V179.168C324.2 179.784 324.348 180.252 324.644 180.572C324.94 180.884 325.364 181.04 325.916 181.04C326.524 181.04 327.004 180.856 327.356 180.488C327.708 180.12 327.884 179.6 327.884 178.928V175.64H329.036ZM334.001 182.072C333.353 182.072 332.773 181.932 332.261 181.652C331.757 181.372 331.361 180.988 331.073 180.5C330.785 180.004 330.641 179.444 330.641 178.82C330.641 178.196 330.785 177.64 331.073 177.152C331.361 176.656 331.757 176.272 332.261 176C332.773 175.72 333.353 175.58 334.001 175.58C334.577 175.58 335.089 175.696 335.537 175.928C335.993 176.16 336.345 176.496 336.593 176.936L335.717 177.5C335.517 177.196 335.269 176.968 334.973 176.816C334.677 176.664 334.349 176.588 333.989 176.588C333.573 176.588 333.197 176.68 332.861 176.864C332.533 177.048 332.273 177.312 332.081 177.656C331.897 177.992 331.805 178.38 331.805 178.82C331.805 179.268 331.897 179.664 332.081 180.008C332.273 180.344 332.533 180.604 332.861 180.788C333.197 180.972 333.573 181.064 333.989 181.064C334.349 181.064 334.677 180.988 334.973 180.836C335.269 180.684 335.517 180.456 335.717 180.152L336.593 180.704C336.345 181.144 335.993 181.484 335.537 181.724C335.089 181.956 334.577 182.072 334.001 182.072ZM341.742 181.628C341.574 181.772 341.366 181.884 341.118 181.964C340.87 182.036 340.614 182.072 340.35 182.072C339.71 182.072 339.214 181.9 338.862 181.556C338.51 181.212 338.334 180.72 338.334 180.08V176.588H337.254V175.64H338.334V174.248H339.486V175.64H341.31V176.588H339.486V180.032C339.486 180.376 339.57 180.64 339.738 180.824C339.914 181.008 340.162 181.1 340.482 181.1C340.834 181.1 341.134 181 341.382 180.8L341.742 181.628ZM346.526 173.6H347.726V182H346.526V173.6ZM350.24 173.6H353.78C354.668 173.6 355.456 173.776 356.144 174.128C356.832 174.48 357.364 174.976 357.74 175.616C358.124 176.248 358.316 176.976 358.316 177.8C358.316 178.624 358.124 179.356 357.74 179.996C357.364 180.628 356.832 181.12 356.144 181.472C355.456 181.824 354.668 182 353.78 182H350.24V173.6ZM353.708 180.956C354.388 180.956 354.984 180.824 355.496 180.56C356.016 180.296 356.416 179.928 356.696 179.456C356.976 178.976 357.116 178.424 357.116 177.8C357.116 177.176 356.976 176.628 356.696 176.156C356.416 175.676 356.016 175.304 355.496 175.04C354.984 174.776 354.388 174.644 353.708 174.644H351.44V180.956H353.708Z" fill="#62699F"/>
<g id="Group 2145_2">
<line id="Line 105_2" y1="-0.25" x2="7.40773" y2="-0.25" transform="matrix(-0.689203 0.724568 -0.689203 -0.724568 368.105 175.307)" stroke="#62699F" stroke-width="0.5"/>
<line id="Line 106_2" y1="-0.25" x2="7.40773" y2="-0.25" transform="matrix(-0.689203 -0.724568 0.689204 -0.724568 368.707 180.367)" stroke="#62699F" stroke-width="0.5"/>
</g>
</g>
</g>
<g id="Group 2162_2">
<path id="Ellipse 83_2" d="M495 185C490.582 185 487 181.419 487 177C487 172.582 490.582 169 495 169C499.418 169 503 172.582 503 177C503 181.419 499.418 185 495 185Z" fill="white"/>
<path id="Ellipse 83 (Stroke)_2" fill-rule="evenodd" clip-rule="evenodd" d="M488 177C488 180.866 491.134 184 495 184C498.866 184 502 180.866 502 177C502 173.134 498.866 170 495 170C491.134 170 488 173.134 488 177ZM487 177C487 181.418 490.582 185 495 185C499.418 185 503 181.418 503 177C503 172.582 499.418 169 495 169C490.582 169 487 172.582 487 177Z" fill="#62699F"/>
<path id="Line 107 (Stroke)_2" fill-rule="evenodd" clip-rule="evenodd" d="M497.829 179.829L492.172 174.172L492.879 173.465L498.536 179.122L497.829 179.829Z" fill="#62699F"/>
<path id="Line 108 (Stroke)_2" fill-rule="evenodd" clip-rule="evenodd" d="M492.172 179.829L497.829 174.172L498.536 174.879L492.879 180.536L492.172 179.829Z" fill="#62699F"/>
</g>
<path id="Select Attribute_2" d="M73.708 182.096C73.076 182.096 72.464 182 71.872 181.808C71.288 181.608 70.828 181.352 70.492 181.04L70.936 180.104C71.256 180.392 71.664 180.628 72.16 180.812C72.664 180.988 73.18 181.076 73.708 181.076C74.404 181.076 74.924 180.96 75.268 180.728C75.612 180.488 75.784 180.172 75.784 179.78C75.784 179.492 75.688 179.26 75.496 179.084C75.312 178.9 75.08 178.76 74.8 178.664C74.528 178.568 74.14 178.46 73.636 178.34C73.004 178.188 72.492 178.036 72.1 177.884C71.716 177.732 71.384 177.5 71.104 177.188C70.832 176.868 70.696 176.44 70.696 175.904C70.696 175.456 70.812 175.052 71.044 174.692C71.284 174.332 71.644 174.044 72.124 173.828C72.604 173.612 73.2 173.504 73.912 173.504C74.408 173.504 74.896 173.568 75.376 173.696C75.856 173.824 76.268 174.008 76.612 174.248L76.216 175.208C75.864 174.984 75.488 174.816 75.088 174.704C74.688 174.584 74.296 174.524 73.912 174.524C73.232 174.524 72.72 174.648 72.376 174.896C72.04 175.144 71.872 175.464 71.872 175.856C71.872 176.144 71.968 176.38 72.16 176.564C72.352 176.74 72.588 176.88 72.868 176.984C73.156 177.08 73.544 177.184 74.032 177.296C74.664 177.448 75.172 177.6 75.556 177.752C75.94 177.904 76.268 178.136 76.54 178.448C76.82 178.76 76.96 179.18 76.96 179.708C76.96 180.148 76.84 180.552 76.6 180.92C76.36 181.28 75.996 181.568 75.508 181.784C75.02 181.992 74.42 182.096 73.708 182.096ZM84.2931 178.856C84.2931 178.944 84.2851 179.06 84.2691 179.204H79.1091C79.1811 179.764 79.4251 180.216 79.8411 180.56C80.2651 180.896 80.7891 181.064 81.4131 181.064C82.1731 181.064 82.7851 180.808 83.2491 180.296L83.8851 181.04C83.5971 181.376 83.2371 181.632 82.8051 181.808C82.3811 181.984 81.9051 182.072 81.3771 182.072C80.7051 182.072 80.1091 181.936 79.5891 181.664C79.0691 181.384 78.6651 180.996 78.3771 180.5C78.0971 180.004 77.9571 179.444 77.9571 178.82C77.9571 178.204 78.0931 177.648 78.3651 177.152C78.6451 176.656 79.0251 176.272 79.5051 176C79.9931 175.72 80.5411 175.58 81.1491 175.58C81.7571 175.58 82.2971 175.72 82.7691 176C83.2491 176.272 83.6211 176.656 83.8851 177.152C84.1571 177.648 84.2931 178.216 84.2931 178.856ZM81.1491 176.552C80.5971 176.552 80.1331 176.72 79.7571 177.056C79.3891 177.392 79.1731 177.832 79.1091 178.376H83.1891C83.1251 177.84 82.9051 177.404 82.5291 177.068C82.1611 176.724 81.7011 176.552 81.1491 176.552ZM85.8928 173.096H87.0448V182H85.8928V173.096ZM94.9923 178.856C94.9923 178.944 94.9843 179.06 94.9683 179.204H89.8083C89.8803 179.764 90.1243 180.216 90.5403 180.56C90.9643 180.896 91.4883 181.064 92.1123 181.064C92.8723 181.064 93.4843 180.808 93.9483 180.296L94.5843 181.04C94.2963 181.376 93.9363 181.632 93.5043 181.808C93.0803 181.984 92.6043 182.072 92.0763 182.072C91.4043 182.072 90.8083 181.936 90.2883 181.664C89.7683 181.384 89.3643 180.996 89.0763 180.5C88.7963 180.004 88.6563 179.444 88.6563 178.82C88.6563 178.204 88.7923 177.648 89.0643 177.152C89.3443 176.656 89.7243 176.272 90.2043 176C90.6923 175.72 91.2403 175.58 91.8483 175.58C92.4563 175.58 92.9963 175.72 93.4683 176C93.9483 176.272 94.3203 176.656 94.5843 177.152C94.8563 177.648 94.9923 178.216 94.9923 178.856ZM91.8483 176.552C91.2963 176.552 90.8323 176.72 90.4563 177.056C90.0883 177.392 89.8723 177.832 89.8083 178.376H93.8883C93.8243 177.84 93.6043 177.404 93.2283 177.068C92.8603 176.724 92.4003 176.552 91.8483 176.552ZM99.364 182.072C98.716 182.072 98.136 181.932 97.624 181.652C97.12 181.372 96.724 180.988 96.436 180.5C96.148 180.004 96.004 179.444 96.004 178.82C96.004 178.196 96.148 177.64 96.436 177.152C96.724 176.656 97.12 176.272 97.624 176C98.136 175.72 98.716 175.58 99.364 175.58C99.94 175.58 100.452 175.696 100.9 175.928C101.356 176.16 101.708 176.496 101.956 176.936L101.08 177.5C100.88 177.196 100.632 176.968 100.336 176.816C100.04 176.664 99.712 176.588 99.352 176.588C98.936 176.588 98.56 176.68 98.224 176.864C97.896 177.048 97.636 177.312 97.444 177.656C97.26 177.992 97.168 178.38 97.168 178.82C97.168 179.268 97.26 179.664 97.444 180.008C97.636 180.344 97.896 180.604 98.224 180.788C98.56 180.972 98.936 181.064 99.352 181.064C99.712 181.064 100.04 180.988 100.336 180.836C100.632 180.684 100.88 180.456 101.08 180.152L101.956 180.704C101.708 181.144 101.356 181.484 100.9 181.724C100.452 181.956 99.94 182.072 99.364 182.072ZM107.106 181.628C106.938 181.772 106.73 181.884 106.482 181.964C106.234 182.036 105.978 182.072 105.714 182.072C105.074 182.072 104.578 181.9 104.226 181.556C103.874 181.212 103.698 180.72 103.698 180.08V176.588H102.618V175.64H103.698V174.248H104.85V175.64H106.674V176.588H104.85V180.032C104.85 180.376 104.934 180.64 105.102 180.824C105.278 181.008 105.526 181.1 105.846 181.1C106.198 181.1 106.498 181 106.746 180.8L107.106 181.628ZM120.464 179.9H116L115.076 182H113.84L117.644 173.6H118.832L122.648 182H121.388L120.464 179.9ZM120.044 178.94L118.232 174.824L116.42 178.94H120.044ZM127.25 181.628C127.082 181.772 126.874 181.884 126.626 181.964C126.378 182.036 126.122 182.072 125.858 182.072C125.218 182.072 124.722 181.9 124.37 181.556C124.018 181.212 123.842 180.72 123.842 180.08V176.588H122.762V175.64H123.842V174.248H124.994V175.64H126.818V176.588H124.994V180.032C124.994 180.376 125.078 180.64 125.246 180.824C125.422 181.008 125.67 181.1 125.99 181.1C126.342 181.1 126.642 181 126.89 180.8L127.25 181.628ZM132.066 181.628C131.898 181.772 131.69 181.884 131.442 181.964C131.194 182.036 130.938 182.072 130.674 182.072C130.034 182.072 129.538 181.9 129.186 181.556C128.834 181.212 128.658 180.72 128.658 180.08V176.588H127.578V175.64H128.658V174.248H129.81V175.64H131.634V176.588H129.81V180.032C129.81 180.376 129.894 180.64 130.062 180.824C130.238 181.008 130.486 181.1 130.806 181.1C131.158 181.1 131.458 181 131.706 180.8L132.066 181.628ZM134.563 176.708C134.763 176.34 135.059 176.06 135.451 175.868C135.843 175.676 136.319 175.58 136.879 175.58V176.696C136.815 176.688 136.727 176.684 136.615 176.684C135.991 176.684 135.499 176.872 135.139 177.248C134.787 177.616 134.611 178.144 134.611 178.832V182H133.459V175.64H134.563V176.708ZM138.299 175.64H139.451V182H138.299V175.64ZM138.875 174.416C138.651 174.416 138.463 174.344 138.311 174.2C138.167 174.056 138.095 173.88 138.095 173.672C138.095 173.464 138.167 173.288 138.311 173.144C138.463 172.992 138.651 172.916 138.875 172.916C139.099 172.916 139.283 172.988 139.427 173.132C139.579 173.268 139.655 173.44 139.655 173.648C139.655 173.864 139.579 174.048 139.427 174.2C139.283 174.344 139.099 174.416 138.875 174.416ZM145.023 175.58C145.639 175.58 146.191 175.716 146.679 175.988C147.167 176.26 147.547 176.64 147.819 177.128C148.099 177.616 148.239 178.18 148.239 178.82C148.239 179.46 148.099 180.028 147.819 180.524C147.547 181.012 147.167 181.392 146.679 181.664C146.191 181.936 145.639 182.072 145.023 182.072C144.551 182.072 144.119 181.98 143.727 181.796C143.335 181.612 143.011 181.344 142.755 180.992V182H141.651V173.096H142.803V176.6C143.059 176.264 143.379 176.012 143.763 175.844C144.147 175.668 144.567 175.58 145.023 175.58ZM144.927 181.064C145.335 181.064 145.699 180.972 146.019 180.788C146.347 180.596 146.603 180.332 146.787 179.996C146.979 179.652 147.075 179.26 147.075 178.82C147.075 178.38 146.979 177.992 146.787 177.656C146.603 177.312 146.347 177.048 146.019 176.864C145.699 176.68 145.335 176.588 144.927 176.588C144.527 176.588 144.163 176.68 143.835 176.864C143.507 177.048 143.251 177.312 143.067 177.656C142.883 177.992 142.791 178.38 142.791 178.82C142.791 179.26 142.883 179.652 143.067 179.996C143.251 180.332 143.507 180.596 143.835 180.788C144.163 180.972 144.527 181.064 144.927 181.064ZM155.758 175.64V182H154.666V181.04C154.434 181.368 154.126 181.624 153.742 181.808C153.366 181.984 152.954 182.072 152.506 182.072C151.658 182.072 150.99 181.84 150.502 181.376C150.014 180.904 149.77 180.212 149.77 179.3V175.64H150.922V179.168C150.922 179.784 151.07 180.252 151.366 180.572C151.662 180.884 152.086 181.04 152.638 181.04C153.246 181.04 153.726 180.856 154.078 180.488C154.43 180.12 154.606 179.6 154.606 178.928V175.64H155.758ZM161.527 181.628C161.359 181.772 161.151 181.884 160.903 181.964C160.655 182.036 160.399 182.072 160.135 182.072C159.495 182.072 158.999 181.9 158.647 181.556C158.295 181.212 158.119 180.72 158.119 180.08V176.588H157.039V175.64H158.119V174.248H159.271V175.64H161.095V176.588H159.271V180.032C159.271 180.376 159.355 180.64 159.523 180.824C159.699 181.008 159.947 181.1 160.267 181.1C160.619 181.1 160.919 181 161.167 180.8L161.527 181.628ZM168.457 178.856C168.457 178.944 168.449 179.06 168.433 179.204H163.273C163.345 179.764 163.589 180.216 164.005 180.56C164.429 180.896 164.953 181.064 165.577 181.064C166.337 181.064 166.949 180.808 167.413 180.296L168.049 181.04C167.761 181.376 167.401 181.632 166.969 181.808C166.545 181.984 166.069 182.072 165.541 182.072C164.869 182.072 164.273 181.936 163.753 181.664C163.233 181.384 162.829 180.996 162.541 180.5C162.261 180.004 162.121 179.444 162.121 178.82C162.121 178.204 162.257 177.648 162.529 177.152C162.809 176.656 163.189 176.272 163.669 176C164.157 175.72 164.705 175.58 165.313 175.58C165.921 175.58 166.461 175.72 166.933 176C167.413 176.272 167.785 176.656 168.049 177.152C168.321 177.648 168.457 178.216 168.457 178.856ZM165.313 176.552C164.761 176.552 164.297 176.72 163.921 177.056C163.553 177.392 163.337 177.832 163.273 178.376H167.353C167.289 177.84 167.069 177.404 166.693 177.068C166.325 176.724 165.865 176.552 165.313 176.552Z" fill="#6577AA"/>
</g>
</g>
</g>
<g id="top">
<path id="top bg" d="M0 10C0 4.47715 4.47715 0 10 0H570C575.523 0 580 4.47715 580 10V38H0V10Z" fill="#E8E9F1"/>
<g id="button_2">
<path id="Ellipse 47" d="M51.4054 19.5693C51.4054 22.6166 48.9877 25.0693 46.0267 25.0693C43.0657 25.0693 40.6479 22.6166 40.6479 19.5693C40.6479 16.5221 43.0657 14.0693 46.0267 14.0693C48.9877 14.0693 51.4054 16.5221 51.4054 19.5693Z" stroke="#EB5757"/>
<path id="Ellipse 48" d="M67.254 19.5693C67.254 22.6166 64.8363 25.0693 61.8753 25.0693C58.9143 25.0693 56.4966 22.6166 56.4966 19.5693C56.4966 16.5221 58.9143 14.0693 61.8753 14.0693C64.8363 14.0693 67.254 16.5221 67.254 19.5693Z" stroke="#F2994A"/>
<path id="Ellipse 49" d="M83.1026 19.5693C83.1026 22.6166 80.6849 25.0693 77.7239 25.0693C74.7629 25.0693 72.3452 22.6166 72.3452 19.5693C72.3452 16.5221 74.7629 14.0693 77.7239 14.0693C80.6849 14.0693 83.1026 16.5221 83.1026 19.5693Z" stroke="#219653"/>
</g>
<g id="title">
<rect id="Rectangle 511" x="190" y="10" width="200" height="18" rx="9" fill="white"/>
<path id="Attribute Mapping" d="M240.028 20.9H235.564L234.64 23H233.404L237.208 14.6H238.396L242.212 23H240.952L240.028 20.9ZM239.608 19.94L237.796 15.824L235.984 19.94H239.608ZM246.814 22.628C246.646 22.772 246.438 22.884 246.19 22.964C245.942 23.036 245.686 23.072 245.422 23.072C244.782 23.072 244.286 22.9 243.934 22.556C243.582 22.212 243.406 21.72 243.406 21.08V17.588H242.326V16.64H243.406V15.248H244.558V16.64H246.382V17.588H244.558V21.032C244.558 21.376 244.642 21.64 244.81 21.824C244.986 22.008 245.234 22.1 245.554 22.1C245.906 22.1 246.206 22 246.454 21.8L246.814 22.628ZM251.631 22.628C251.463 22.772 251.255 22.884 251.007 22.964C250.759 23.036 250.503 23.072 250.239 23.072C249.599 23.072 249.103 22.9 248.751 22.556C248.399 22.212 248.223 21.72 248.223 21.08V17.588H247.143V16.64H248.223V15.248H249.375V16.64H251.199V17.588H249.375V21.032C249.375 21.376 249.459 21.64 249.627 21.824C249.803 22.008 250.051 22.1 250.371 22.1C250.723 22.1 251.023 22 251.271 21.8L251.631 22.628ZM254.128 17.708C254.328 17.34 254.624 17.06 255.016 16.868C255.408 16.676 255.884 16.58 256.444 16.58V17.696C256.38 17.688 256.292 17.684 256.18 17.684C255.556 17.684 255.064 17.872 254.704 18.248C254.352 18.616 254.176 19.144 254.176 19.832V23H253.024V16.64H254.128V17.708ZM257.863 16.64H259.015V23H257.863V16.64ZM258.439 15.416C258.215 15.416 258.027 15.344 257.875 15.2C257.731 15.056 257.659 14.88 257.659 14.672C257.659 14.464 257.731 14.288 257.875 14.144C258.027 13.992 258.215 13.916 258.439 13.916C258.663 13.916 258.847 13.988 258.991 14.132C259.143 14.268 259.219 14.44 259.219 14.648C259.219 14.864 259.143 15.048 258.991 15.2C258.847 15.344 258.663 15.416 258.439 15.416ZM264.587 16.58C265.203 16.58 265.755 16.716 266.243 16.988C266.731 17.26 267.111 17.64 267.383 18.128C267.663 18.616 267.803 19.18 267.803 19.82C267.803 20.46 267.663 21.028 267.383 21.524C267.111 22.012 266.731 22.392 266.243 22.664C265.755 22.936 265.203 23.072 264.587 23.072C264.115 23.072 263.683 22.98 263.291 22.796C262.899 22.612 262.575 22.344 262.319 21.992V23H261.215V14.096H262.367V17.6C262.623 17.264 262.943 17.012 263.327 16.844C263.711 16.668 264.131 16.58 264.587 16.58ZM264.491 22.064C264.899 22.064 265.263 21.972 265.583 21.788C265.911 21.596 266.167 21.332 266.351 20.996C266.543 20.652 266.639 20.26 266.639 19.82C266.639 19.38 266.543 18.992 266.351 18.656C266.167 18.312 265.911 18.048 265.583 17.864C265.263 17.68 264.899 17.588 264.491 17.588C264.091 17.588 263.727 17.68 263.399 17.864C263.071 18.048 262.815 18.312 262.631 18.656C262.447 18.992 262.355 19.38 262.355 19.82C262.355 20.26 262.447 20.652 262.631 20.996C262.815 21.332 263.071 21.596 263.399 21.788C263.727 21.972 264.091 22.064 264.491 22.064ZM275.323 16.64V23H274.231V22.04C273.999 22.368 273.691 22.624 273.307 22.808C272.931 22.984 272.519 23.072 272.071 23.072C271.223 23.072 270.555 22.84 270.067 22.376C269.579 21.904 269.335 21.212 269.335 20.3V16.64H270.487V20.168C270.487 20.784 270.635 21.252 270.931 21.572C271.227 21.884 271.651 22.04 272.203 22.04C272.811 22.04 273.291 21.856 273.643 21.488C273.995 21.12 274.171 20.6 274.171 19.928V16.64H275.323ZM281.092 22.628C280.924 22.772 280.716 22.884 280.468 22.964C280.22 23.036 279.964 23.072 279.7 23.072C279.06 23.072 278.564 22.9 278.212 22.556C277.86 22.212 277.684 21.72 277.684 21.08V17.588H276.604V16.64H277.684V15.248H278.836V16.64H280.66V17.588H278.836V21.032C278.836 21.376 278.92 21.64 279.088 21.824C279.264 22.008 279.512 22.1 279.832 22.1C280.184 22.1 280.484 22 280.732 21.8L281.092 22.628ZM288.022 19.856C288.022 19.944 288.014 20.06 287.998 20.204H282.838C282.91 20.764 283.154 21.216 283.57 21.56C283.994 21.896 284.518 22.064 285.142 22.064C285.902 22.064 286.514 21.808 286.978 21.296L287.614 22.04C287.326 22.376 286.966 22.632 286.534 22.808C286.11 22.984 285.634 23.072 285.106 23.072C284.434 23.072 283.838 22.936 283.318 22.664C282.798 22.384 282.394 21.996 282.106 21.5C281.826 21.004 281.686 20.444 281.686 19.82C281.686 19.204 281.822 18.648 282.094 18.152C282.374 17.656 282.754 17.272 283.234 17C283.722 16.72 284.27 16.58 284.878 16.58C285.486 16.58 286.026 16.72 286.498 17C286.978 17.272 287.35 17.656 287.614 18.152C287.886 18.648 288.022 19.216 288.022 19.856ZM284.878 17.552C284.326 17.552 283.862 17.72 283.486 18.056C283.118 18.392 282.902 18.832 282.838 19.376H286.918C286.854 18.84 286.634 18.404 286.258 18.068C285.89 17.724 285.43 17.552 284.878 17.552ZM300.8 23L300.788 16.88L297.752 21.98H297.2L294.164 16.916V23H293.012V14.6H293.996L297.5 20.504L300.956 14.6H301.94L301.952 23H300.8ZM306.621 16.58C307.501 16.58 308.173 16.796 308.637 17.228C309.109 17.66 309.345 18.304 309.345 19.16V23H308.253V22.16C308.061 22.456 307.785 22.684 307.425 22.844C307.073 22.996 306.653 23.072 306.165 23.072C305.453 23.072 304.881 22.9 304.449 22.556C304.025 22.212 303.813 21.76 303.813 21.2C303.813 20.64 304.017 20.192 304.425 19.856C304.833 19.512 305.481 19.34 306.369 19.34H308.193V19.112C308.193 18.616 308.049 18.236 307.761 17.972C307.473 17.708 307.049 17.576 306.489 17.576C306.113 17.576 305.745 17.64 305.385 17.768C305.025 17.888 304.721 18.052 304.473 18.26L303.993 17.396C304.321 17.132 304.713 16.932 305.169 16.796C305.625 16.652 306.109 16.58 306.621 16.58ZM306.357 22.184C306.797 22.184 307.177 22.088 307.497 21.896C307.817 21.696 308.049 21.416 308.193 21.056V20.168H306.417C305.441 20.168 304.953 20.496 304.953 21.152C304.953 21.472 305.077 21.724 305.325 21.908C305.573 22.092 305.917 22.184 306.357 22.184ZM314.849 16.58C315.465 16.58 316.017 16.716 316.505 16.988C316.993 17.26 317.373 17.64 317.645 18.128C317.925 18.616 318.065 19.18 318.065 19.82C318.065 20.46 317.925 21.028 317.645 21.524C317.373 22.012 316.993 22.392 316.505 22.664C316.017 22.936 315.465 23.072 314.849 23.072C314.393 23.072 313.973 22.984 313.589 22.808C313.213 22.632 312.893 22.376 312.629 22.04V25.328H311.477V16.64H312.581V17.648C312.837 17.296 313.161 17.032 313.553 16.856C313.945 16.672 314.377 16.58 314.849 16.58ZM314.753 22.064C315.161 22.064 315.525 21.972 315.845 21.788C316.173 21.596 316.429 21.332 316.613 20.996C316.805 20.652 316.901 20.26 316.901 19.82C316.901 19.38 316.805 18.992 316.613 18.656C316.429 18.312 316.173 18.048 315.845 17.864C315.525 17.68 315.161 17.588 314.753 17.588C314.353 17.588 313.989 17.684 313.661 17.876C313.341 18.06 313.085 18.32 312.893 18.656C312.709 18.992 312.617 19.38 312.617 19.82C312.617 20.26 312.709 20.652 312.893 20.996C313.077 21.332 313.333 21.596 313.661 21.788C313.989 21.972 314.353 22.064 314.753 22.064ZM323.028 16.58C323.644 16.58 324.196 16.716 324.684 16.988C325.172 17.26 325.552 17.64 325.824 18.128C326.104 18.616 326.244 19.18 326.244 19.82C326.244 20.46 326.104 21.028 325.824 21.524C325.552 22.012 325.172 22.392 324.684 22.664C324.196 22.936 323.644 23.072 323.028 23.072C322.572 23.072 322.152 22.984 321.768 22.808C321.392 22.632 321.072 22.376 320.808 22.04V25.328H319.656V16.64H320.76V17.648C321.016 17.296 321.34 17.032 321.732 16.856C322.124 16.672 322.556 16.58 323.028 16.58ZM322.932 22.064C323.34 22.064 323.704 21.972 324.024 21.788C324.352 21.596 324.608 21.332 324.792 20.996C324.984 20.652 325.08 20.26 325.08 19.82C325.08 19.38 324.984 18.992 324.792 18.656C324.608 18.312 324.352 18.048 324.024 17.864C323.704 17.68 323.34 17.588 322.932 17.588C322.532 17.588 322.168 17.684 321.84 17.876C321.52 18.06 321.264 18.32 321.072 18.656C320.888 18.992 320.796 19.38 320.796 19.82C320.796 20.26 320.888 20.652 321.072 20.996C321.256 21.332 321.512 21.596 321.84 21.788C322.168 21.972 322.532 22.064 322.932 22.064ZM327.836 16.64H328.988V23H327.836V16.64ZM328.412 15.416C328.188 15.416 328 15.344 327.848 15.2C327.704 15.056 327.632 14.88 327.632 14.672C327.632 14.464 327.704 14.288 327.848 14.144C328 13.992 328.188 13.916 328.412 13.916C328.636 13.916 328.82 13.988 328.964 14.132C329.116 14.268 329.192 14.44 329.192 14.648C329.192 14.864 329.116 15.048 328.964 15.2C328.82 15.344 328.636 15.416 328.412 15.416ZM334.584 16.58C335.392 16.58 336.032 16.816 336.504 17.288C336.984 17.752 337.224 18.436 337.224 19.34V23H336.072V19.472C336.072 18.856 335.924 18.392 335.628 18.08C335.332 17.768 334.908 17.612 334.356 17.612C333.732 17.612 333.24 17.796 332.88 18.164C332.52 18.524 332.34 19.044 332.34 19.724V23H331.188V16.64H332.292V17.6C332.524 17.272 332.836 17.02 333.228 16.844C333.628 16.668 334.08 16.58 334.584 16.58ZM345.475 16.64V22.136C345.475 23.248 345.199 24.068 344.647 24.596C344.095 25.132 343.271 25.4 342.175 25.4C341.575 25.4 341.003 25.316 340.459 25.148C339.915 24.988 339.475 24.756 339.139 24.452L339.691 23.564C339.987 23.82 340.351 24.02 340.783 24.164C341.223 24.316 341.675 24.392 342.139 24.392C342.883 24.392 343.431 24.216 343.783 23.864C344.143 23.512 344.323 22.976 344.323 22.256V21.752C344.051 22.08 343.715 22.328 343.315 22.496C342.923 22.656 342.495 22.736 342.031 22.736C341.423 22.736 340.871 22.608 340.375 22.352C339.887 22.088 339.503 21.724 339.223 21.26C338.943 20.788 338.803 20.252 338.803 19.652C338.803 19.052 338.943 18.52 339.223 18.056C339.503 17.584 339.887 17.22 340.375 16.964C340.871 16.708 341.423 16.58 342.031 16.58C342.511 16.58 342.955 16.668 343.363 16.844C343.779 17.02 344.119 17.28 344.383 17.624V16.64H345.475ZM342.163 21.728C342.579 21.728 342.951 21.64 343.279 21.464C343.615 21.288 343.875 21.044 344.059 20.732C344.251 20.412 344.347 20.052 344.347 19.652C344.347 19.036 344.143 18.54 343.735 18.164C343.327 17.78 342.803 17.588 342.163 17.588C341.515 17.588 340.987 17.78 340.579 18.164C340.171 18.54 339.967 19.036 339.967 19.652C339.967 20.052 340.059 20.412 340.243 20.732C340.435 21.044 340.695 21.288 341.023 21.464C341.359 21.64 341.739 21.728 342.163 21.728Z" fill="#8492BB"/>
</g>
</g>
</g>
</g>
<defs>
<clipPath id="clip0">
<rect width="16" height="16" fill="white" transform="translate(122 288)"/>
</clipPath>
</defs>
</svg>
