<svg width="545" height="324" viewBox="0 0 545 324" fill="none" xmlns="http://www.w3.org/2000/svg">
<g id="Frame 7">
<g id="smart filter">
<rect id="Rectangle 512" x="25" y="25" width="520" height="299" rx="10" fill="#F6FAFD"/>
<g id="bg" filter="url(#filter0_d)">
<path d="M5 15C5 9.47715 9.47715 5 15 5H515C520.523 5 525 9.47715 525 15V294C525 299.523 520.523 304 515 304H15C9.47716 304 5 299.523 5 294V15Z" fill="white"/>
</g>
<g id="fields">
<g id="form">
<g id="Group 2067">
<g id="Group 2071">
<path id="Yes" d="M308.794 102.096V105H307.606V102.072L304.27 96.6H305.554L308.242 101.028L310.942 96.6H312.13L308.794 102.096ZM318.213 101.856C318.213 101.944 318.205 102.06 318.189 102.204H313.029C313.101 102.764 313.345 103.216 313.761 103.56C314.185 103.896 314.709 104.064 315.333 104.064C316.093 104.064 316.705 103.808 317.169 103.296L317.805 104.04C317.517 104.376 317.157 104.632 316.725 104.808C316.301 104.984 315.825 105.072 315.297 105.072C314.625 105.072 314.029 104.936 313.509 104.664C312.989 104.384 312.585 103.996 312.297 103.5C312.017 103.004 311.877 102.444 311.877 101.82C311.877 101.204 312.013 100.648 312.285 100.152C312.565 99.656 312.945 99.272 313.425 99C313.913 98.72 314.461 98.58 315.069 98.58C315.677 98.58 316.217 98.72 316.689 99C317.169 99.272 317.541 99.656 317.805 100.152C318.077 100.648 318.213 101.216 318.213 101.856ZM315.069 99.552C314.517 99.552 314.053 99.72 313.677 100.056C313.309 100.392 313.093 100.832 313.029 101.376H317.109C317.045 100.84 316.825 100.404 316.449 100.068C316.081 99.724 315.621 99.552 315.069 99.552ZM321.637 105.072C321.117 105.072 320.617 105.004 320.137 104.868C319.657 104.724 319.281 104.544 319.009 104.328L319.489 103.416C319.769 103.616 320.109 103.776 320.509 103.896C320.909 104.016 321.313 104.076 321.721 104.076C322.729 104.076 323.233 103.788 323.233 103.212C323.233 103.02 323.165 102.868 323.029 102.756C322.893 102.644 322.721 102.564 322.513 102.516C322.313 102.46 322.025 102.4 321.649 102.336C321.137 102.256 320.717 102.164 320.389 102.06C320.069 101.956 319.793 101.78 319.561 101.532C319.329 101.284 319.213 100.936 319.213 100.488C319.213 99.912 319.453 99.452 319.933 99.108C320.413 98.756 321.057 98.58 321.865 98.58C322.289 98.58 322.713 98.632 323.137 98.736C323.561 98.84 323.909 98.98 324.181 99.156L323.689 100.068C323.169 99.732 322.557 99.564 321.853 99.564C321.365 99.564 320.993 99.644 320.737 99.804C320.481 99.964 320.353 100.176 320.353 100.44C320.353 100.648 320.425 100.812 320.569 100.932C320.713 101.052 320.889 101.14 321.097 101.196C321.313 101.252 321.613 101.316 321.997 101.388C322.509 101.476 322.921 101.572 323.233 101.676C323.553 101.772 323.825 101.94 324.049 102.18C324.273 102.42 324.385 102.756 324.385 103.188C324.385 103.764 324.137 104.224 323.641 104.568C323.153 104.904 322.485 105.072 321.637 105.072Z" fill="#465361"/>
<g id="Group 2065">
<circle id="Ellipse 78" cx="291.996" cy="101" r="7.5" stroke="#E5EAEF"/>
<circle id="Ellipse 79" cx="291.997" cy="101" r="4.16667" fill="#E5EAEF" stroke="#E5EAEF"/>
</g>
</g>
<g id="Group 2066">
<circle id="Ellipse 78_2" cx="345.957" cy="101" r="7.5" stroke="#E5EAEF"/>
<path id="No" d="M366.763 96.6V105H365.779L360.739 98.736V105H359.539V96.6H360.523L365.563 102.864V96.6H366.763ZM371.834 105.072C371.202 105.072 370.634 104.932 370.13 104.652C369.626 104.372 369.23 103.988 368.942 103.5C368.662 103.004 368.522 102.444 368.522 101.82C368.522 101.196 368.662 100.64 368.942 100.152C369.23 99.656 369.626 99.272 370.13 99C370.634 98.72 371.202 98.58 371.834 98.58C372.466 98.58 373.03 98.72 373.526 99C374.03 99.272 374.422 99.656 374.702 100.152C374.99 100.64 375.134 101.196 375.134 101.82C375.134 102.444 374.99 103.004 374.702 103.5C374.422 103.988 374.03 104.372 373.526 104.652C373.03 104.932 372.466 105.072 371.834 105.072ZM371.834 104.064C372.242 104.064 372.606 103.972 372.926 103.788C373.254 103.596 373.51 103.332 373.694 102.996C373.878 102.652 373.97 102.26 373.97 101.82C373.97 101.38 373.878 100.992 373.694 100.656C373.51 100.312 373.254 100.048 372.926 99.864C372.606 99.68 372.242 99.588 371.834 99.588C371.426 99.588 371.058 99.68 370.73 99.864C370.41 100.048 370.154 100.312 369.962 100.656C369.778 100.992 369.686 101.38 369.686 101.82C369.686 102.26 369.778 102.652 369.962 102.996C370.154 103.332 370.41 103.596 370.73 103.788C371.058 103.972 371.426 104.064 371.834 104.064Z" fill="#465361"/>
</g>
</g>
<path id="Remove Out of Stock Products" d="M51.876 103L50.064 100.42C49.84 100.436 49.664 100.444 49.536 100.444H47.46V103H46.26V94.6H49.536C50.624 94.6 51.48 94.86 52.104 95.38C52.728 95.9 53.04 96.616 53.04 97.528C53.04 98.176 52.88 98.728 52.56 99.184C52.24 99.64 51.784 99.972 51.192 100.18L53.184 103H51.876ZM49.5 99.424C50.26 99.424 50.84 99.26 51.24 98.932C51.64 98.604 51.84 98.136 51.84 97.528C51.84 96.92 51.64 96.456 51.24 96.136C50.84 95.808 50.26 95.644 49.5 95.644H47.46V99.424H49.5ZM60.5588 99.856C60.5588 99.944 60.5508 100.06 60.5348 100.204H55.3748C55.4468 100.764 55.6908 101.216 56.1068 101.56C56.5308 101.896 57.0548 102.064 57.6788 102.064C58.4388 102.064 59.0508 101.808 59.5148 101.296L60.1508 102.04C59.8628 102.376 59.5028 102.632 59.0708 102.808C58.6468 102.984 58.1708 103.072 57.6428 103.072C56.9708 103.072 56.3748 102.936 55.8548 102.664C55.3348 102.384 54.9308 101.996 54.6428 101.5C54.3628 101.004 54.2228 100.444 54.2228 99.82C54.2228 99.204 54.3588 98.648 54.6308 98.152C54.9108 97.656 55.2908 97.272 55.7708 97C56.2588 96.72 56.8068 96.58 57.4148 96.58C58.0228 96.58 58.5628 96.72 59.0348 97C59.5148 97.272 59.8868 97.656 60.1508 98.152C60.4228 98.648 60.5588 99.216 60.5588 99.856ZM57.4148 97.552C56.8628 97.552 56.3988 97.72 56.0228 98.056C55.6548 98.392 55.4388 98.832 55.3748 99.376H59.4548C59.3908 98.84 59.1708 98.404 58.7948 98.068C58.4268 97.724 57.9668 97.552 57.4148 97.552ZM70.1144 96.58C70.9144 96.58 71.5464 96.812 72.0104 97.276C72.4824 97.74 72.7184 98.428 72.7184 99.34V103H71.5664V99.472C71.5664 98.856 71.4224 98.392 71.1344 98.08C70.8544 97.768 70.4504 97.612 69.9224 97.612C69.3384 97.612 68.8744 97.796 68.5304 98.164C68.1864 98.524 68.0144 99.044 68.0144 99.724V103H66.8624V99.472C66.8624 98.856 66.7184 98.392 66.4304 98.08C66.1504 97.768 65.7464 97.612 65.2184 97.612C64.6344 97.612 64.1704 97.796 63.8264 98.164C63.4824 98.524 63.3104 99.044 63.3104 99.724V103H62.1584V96.64H63.2624V97.588C63.4944 97.26 63.7984 97.012 64.1744 96.844C64.5504 96.668 64.9784 96.58 65.4584 96.58C65.9544 96.58 66.3944 96.68 66.7784 96.88C67.1624 97.08 67.4584 97.372 67.6664 97.756C67.9064 97.388 68.2384 97.1 68.6624 96.892C69.0944 96.684 69.5784 96.58 70.1144 96.58ZM77.5973 103.072C76.9653 103.072 76.3973 102.932 75.8933 102.652C75.3893 102.372 74.9933 101.988 74.7053 101.5C74.4253 101.004 74.2853 100.444 74.2853 99.82C74.2853 99.196 74.4253 98.64 74.7053 98.152C74.9933 97.656 75.3893 97.272 75.8933 97C76.3973 96.72 76.9653 96.58 77.5973 96.58C78.2293 96.58 78.7933 96.72 79.2893 97C79.7933 97.272 80.1853 97.656 80.4653 98.152C80.7533 98.64 80.8973 99.196 80.8973 99.82C80.8973 100.444 80.7533 101.004 80.4653 101.5C80.1853 101.988 79.7933 102.372 79.2893 102.652C78.7933 102.932 78.2293 103.072 77.5973 103.072ZM77.5973 102.064C78.0053 102.064 78.3693 101.972 78.6893 101.788C79.0173 101.596 79.2733 101.332 79.4573 100.996C79.6413 100.652 79.7333 100.26 79.7333 99.82C79.7333 99.38 79.6413 98.992 79.4573 98.656C79.2733 98.312 79.0173 98.048 78.6893 97.864C78.3693 97.68 78.0053 97.588 77.5973 97.588C77.1893 97.588 76.8213 97.68 76.4933 97.864C76.1733 98.048 75.9173 98.312 75.7253 98.656C75.5413 98.992 75.4493 99.38 75.4493 99.82C75.4493 100.26 75.5413 100.652 75.7253 100.996C75.9173 101.332 76.1733 101.596 76.4933 101.788C76.8213 101.972 77.1893 102.064 77.5973 102.064ZM87.9427 96.64L85.1587 103H83.9827L81.1987 96.64H82.3987L84.5827 101.74L86.8147 96.64H87.9427ZM94.59 99.856C94.59 99.944 94.582 100.06 94.566 100.204H89.406C89.478 100.764 89.722 101.216 90.138 101.56C90.562 101.896 91.086 102.064 91.71 102.064C92.47 102.064 93.082 101.808 93.546 101.296L94.182 102.04C93.894 102.376 93.534 102.632 93.102 102.808C92.678 102.984 92.202 103.072 91.674 103.072C91.002 103.072 90.406 102.936 89.886 102.664C89.366 102.384 88.962 101.996 88.674 101.5C88.394 101.004 88.254 100.444 88.254 99.82C88.254 99.204 88.39 98.648 88.662 98.152C88.942 97.656 89.322 97.272 89.802 97C90.29 96.72 90.838 96.58 91.446 96.58C92.054 96.58 92.594 96.72 93.066 97C93.546 97.272 93.918 97.656 94.182 98.152C94.454 98.648 94.59 99.216 94.59 99.856ZM91.446 97.552C90.894 97.552 90.43 97.72 90.054 98.056C89.686 98.392 89.47 98.832 89.406 99.376H93.486C93.422 98.84 93.202 98.404 92.826 98.068C92.458 97.724 91.998 97.552 91.446 97.552ZM103.372 103.096C102.524 103.096 101.76 102.912 101.08 102.544C100.4 102.168 99.8643 101.652 99.4723 100.996C99.0883 100.34 98.8963 99.608 98.8963 98.8C98.8963 97.992 99.0883 97.26 99.4723 96.604C99.8643 95.948 100.4 95.436 101.08 95.068C101.76 94.692 102.524 94.504 103.372 94.504C104.212 94.504 104.972 94.692 105.652 95.068C106.332 95.436 106.864 95.948 107.248 96.604C107.632 97.252 107.824 97.984 107.824 98.8C107.824 99.616 107.632 100.352 107.248 101.008C106.864 101.656 106.332 102.168 105.652 102.544C104.972 102.912 104.212 103.096 103.372 103.096ZM103.372 102.028C103.988 102.028 104.54 101.888 105.028 101.608C105.524 101.328 105.912 100.944 106.192 100.456C106.48 99.96 106.624 99.408 106.624 98.8C106.624 98.192 106.48 97.644 106.192 97.156C105.912 96.66 105.524 96.272 105.028 95.992C104.54 95.712 103.988 95.572 103.372 95.572C102.756 95.572 102.196 95.712 101.692 95.992C101.196 96.272 100.804 96.66 100.516 97.156C100.236 97.644 100.096 98.192 100.096 98.8C100.096 99.408 100.236 99.96 100.516 100.456C100.804 100.944 101.196 101.328 101.692 101.608C102.196 101.888 102.756 102.028 103.372 102.028ZM115.418 96.64V103H114.326V102.04C114.094 102.368 113.786 102.624 113.402 102.808C113.026 102.984 112.614 103.072 112.166 103.072C111.318 103.072 110.65 102.84 110.162 102.376C109.674 101.904 109.43 101.212 109.43 100.3V96.64H110.582V100.168C110.582 100.784 110.73 101.252 111.026 101.572C111.322 101.884 111.746 102.04 112.298 102.04C112.906 102.04 113.386 101.856 113.738 101.488C114.09 101.12 114.266 100.6 114.266 99.928V96.64H115.418ZM121.188 102.628C121.02 102.772 120.812 102.884 120.564 102.964C120.316 103.036 120.06 103.072 119.796 103.072C119.156 103.072 118.66 102.9 118.308 102.556C117.956 102.212 117.78 101.72 117.78 101.08V97.588H116.7V96.64H117.78V95.248H118.932V96.64H120.756V97.588H118.932V101.032C118.932 101.376 119.016 101.64 119.184 101.824C119.36 102.008 119.608 102.1 119.928 102.1C120.28 102.1 120.58 102 120.828 101.8L121.188 102.628ZM128.527 103.072C127.895 103.072 127.327 102.932 126.823 102.652C126.319 102.372 125.923 101.988 125.635 101.5C125.355 101.004 125.215 100.444 125.215 99.82C125.215 99.196 125.355 98.64 125.635 98.152C125.923 97.656 126.319 97.272 126.823 97C127.327 96.72 127.895 96.58 128.527 96.58C129.159 96.58 129.723 96.72 130.219 97C130.723 97.272 131.115 97.656 131.395 98.152C131.683 98.64 131.827 99.196 131.827 99.82C131.827 100.444 131.683 101.004 131.395 101.5C131.115 101.988 130.723 102.372 130.219 102.652C129.723 102.932 129.159 103.072 128.527 103.072ZM128.527 102.064C128.935 102.064 129.299 101.972 129.619 101.788C129.947 101.596 130.203 101.332 130.387 100.996C130.571 100.652 130.663 100.26 130.663 99.82C130.663 99.38 130.571 98.992 130.387 98.656C130.203 98.312 129.947 98.048 129.619 97.864C129.299 97.68 128.935 97.588 128.527 97.588C128.119 97.588 127.751 97.68 127.423 97.864C127.103 98.048 126.847 98.312 126.655 98.656C126.471 98.992 126.379 99.38 126.379 99.82C126.379 100.26 126.471 100.652 126.655 100.996C126.847 101.332 127.103 101.596 127.423 101.788C127.751 101.972 128.119 102.064 128.527 102.064ZM135.748 94.972C135.06 94.972 134.716 95.344 134.716 96.088V96.64H136.564V97.588H134.74V103H133.588V97.588H132.508V96.64H133.588V96.076C133.588 95.444 133.772 94.944 134.14 94.576C134.508 94.208 135.024 94.024 135.688 94.024C135.944 94.024 136.184 94.056 136.408 94.12C136.632 94.184 136.824 94.276 136.984 94.396L136.636 95.272C136.372 95.072 136.076 94.972 135.748 94.972ZM143.489 103.096C142.857 103.096 142.245 103 141.653 102.808C141.069 102.608 140.609 102.352 140.273 102.04L140.717 101.104C141.037 101.392 141.445 101.628 141.941 101.812C142.445 101.988 142.961 102.076 143.489 102.076C144.185 102.076 144.705 101.96 145.049 101.728C145.393 101.488 145.565 101.172 145.565 100.78C145.565 100.492 145.469 100.26 145.277 100.084C145.093 99.9 144.861 99.76 144.581 99.664C144.309 99.568 143.921 99.46 143.417 99.34C142.785 99.188 142.273 99.036 141.881 98.884C141.497 98.732 141.165 98.5 140.885 98.188C140.613 97.868 140.477 97.44 140.477 96.904C140.477 96.456 140.593 96.052 140.825 95.692C141.065 95.332 141.425 95.044 141.905 94.828C142.385 94.612 142.981 94.504 143.693 94.504C144.189 94.504 144.677 94.568 145.157 94.696C145.637 94.824 146.049 95.008 146.393 95.248L145.997 96.208C145.645 95.984 145.269 95.816 144.869 95.704C144.469 95.584 144.077 95.524 143.693 95.524C143.013 95.524 142.501 95.648 142.157 95.896C141.821 96.144 141.653 96.464 141.653 96.856C141.653 97.144 141.749 97.38 141.941 97.564C142.133 97.74 142.369 97.88 142.649 97.984C142.937 98.08 143.325 98.184 143.813 98.296C144.445 98.448 144.953 98.6 145.337 98.752C145.721 98.904 146.049 99.136 146.321 99.448C146.601 99.76 146.741 100.18 146.741 100.708C146.741 101.148 146.621 101.552 146.381 101.92C146.141 102.28 145.777 102.568 145.289 102.784C144.801 102.992 144.201 103.096 143.489 103.096ZM151.902 102.628C151.734 102.772 151.526 102.884 151.278 102.964C151.03 103.036 150.774 103.072 150.51 103.072C149.87 103.072 149.374 102.9 149.022 102.556C148.67 102.212 148.494 101.72 148.494 101.08V97.588H147.414V96.64H148.494V95.248H149.646V96.64H151.47V97.588H149.646V101.032C149.646 101.376 149.73 101.64 149.898 101.824C150.074 102.008 150.322 102.1 150.642 102.1C150.994 102.1 151.294 102 151.542 101.8L151.902 102.628ZM155.808 103.072C155.176 103.072 154.608 102.932 154.104 102.652C153.6 102.372 153.204 101.988 152.916 101.5C152.636 101.004 152.496 100.444 152.496 99.82C152.496 99.196 152.636 98.64 152.916 98.152C153.204 97.656 153.6 97.272 154.104 97C154.608 96.72 155.176 96.58 155.808 96.58C156.44 96.58 157.004 96.72 157.5 97C158.004 97.272 158.396 97.656 158.676 98.152C158.964 98.64 159.108 99.196 159.108 99.82C159.108 100.444 158.964 101.004 158.676 101.5C158.396 101.988 158.004 102.372 157.5 102.652C157.004 102.932 156.44 103.072 155.808 103.072ZM155.808 102.064C156.216 102.064 156.58 101.972 156.9 101.788C157.228 101.596 157.484 101.332 157.668 100.996C157.852 100.652 157.944 100.26 157.944 99.82C157.944 99.38 157.852 98.992 157.668 98.656C157.484 98.312 157.228 98.048 156.9 97.864C156.58 97.68 156.216 97.588 155.808 97.588C155.4 97.588 155.032 97.68 154.704 97.864C154.384 98.048 154.128 98.312 153.936 98.656C153.752 98.992 153.66 99.38 153.66 99.82C153.66 100.26 153.752 100.652 153.936 100.996C154.128 101.332 154.384 101.596 154.704 101.788C155.032 101.972 155.4 102.064 155.808 102.064ZM163.473 103.072C162.825 103.072 162.245 102.932 161.733 102.652C161.229 102.372 160.833 101.988 160.545 101.5C160.257 101.004 160.113 100.444 160.113 99.82C160.113 99.196 160.257 98.64 160.545 98.152C160.833 97.656 161.229 97.272 161.733 97C162.245 96.72 162.825 96.58 163.473 96.58C164.049 96.58 164.561 96.696 165.009 96.928C165.465 97.16 165.817 97.496 166.065 97.936L165.189 98.5C164.989 98.196 164.741 97.968 164.445 97.816C164.149 97.664 163.821 97.588 163.461 97.588C163.045 97.588 162.669 97.68 162.333 97.864C162.005 98.048 161.745 98.312 161.553 98.656C161.369 98.992 161.277 99.38 161.277 99.82C161.277 100.268 161.369 100.664 161.553 101.008C161.745 101.344 162.005 101.604 162.333 101.788C162.669 101.972 163.045 102.064 163.461 102.064C163.821 102.064 164.149 101.988 164.445 101.836C164.741 101.684 164.989 101.456 165.189 101.152L166.065 101.704C165.817 102.144 165.465 102.484 165.009 102.724C164.561 102.956 164.049 103.072 163.473 103.072ZM169.947 100.036L168.627 101.26V103H167.475V94.096H168.627V99.808L172.095 96.64H173.487L170.811 99.268L173.751 103H172.335L169.947 100.036ZM181.536 94.6C182.624 94.6 183.48 94.86 184.104 95.38C184.728 95.9 185.04 96.616 185.04 97.528C185.04 98.44 184.728 99.156 184.104 99.676C183.48 100.196 182.624 100.456 181.536 100.456H179.46V103H178.26V94.6H181.536ZM181.5 99.412C182.26 99.412 182.84 99.252 183.24 98.932C183.64 98.604 183.84 98.136 183.84 97.528C183.84 96.92 183.64 96.456 183.24 96.136C182.84 95.808 182.26 95.644 181.5 95.644H179.46V99.412H181.5ZM187.634 97.708C187.834 97.34 188.13 97.06 188.521 96.868C188.914 96.676 189.39 96.58 189.95 96.58V97.696C189.886 97.688 189.798 97.684 189.686 97.684C189.062 97.684 188.57 97.872 188.21 98.248C187.858 98.616 187.682 99.144 187.682 99.832V103H186.53V96.64H187.634V97.708ZM194.035 103.072C193.403 103.072 192.835 102.932 192.331 102.652C191.827 102.372 191.431 101.988 191.143 101.5C190.863 101.004 190.723 100.444 190.723 99.82C190.723 99.196 190.863 98.64 191.143 98.152C191.431 97.656 191.827 97.272 192.331 97C192.835 96.72 193.403 96.58 194.035 96.58C194.667 96.58 195.231 96.72 195.727 97C196.231 97.272 196.623 97.656 196.903 98.152C197.191 98.64 197.335 99.196 197.335 99.82C197.335 100.444 197.191 101.004 196.903 101.5C196.623 101.988 196.231 102.372 195.727 102.652C195.231 102.932 194.667 103.072 194.035 103.072ZM194.035 102.064C194.443 102.064 194.807 101.972 195.127 101.788C195.455 101.596 195.711 101.332 195.895 100.996C196.079 100.652 196.171 100.26 196.171 99.82C196.171 99.38 196.079 98.992 195.895 98.656C195.711 98.312 195.455 98.048 195.127 97.864C194.807 97.68 194.443 97.588 194.035 97.588C193.627 97.588 193.259 97.68 192.931 97.864C192.611 98.048 192.355 98.312 192.163 98.656C191.979 98.992 191.887 99.38 191.887 99.82C191.887 100.26 191.979 100.652 192.163 100.996C192.355 101.332 192.611 101.596 192.931 101.788C193.259 101.972 193.627 102.064 194.035 102.064ZM204.928 94.096V103H203.824V101.992C203.568 102.344 203.244 102.612 202.852 102.796C202.46 102.98 202.028 103.072 201.556 103.072C200.94 103.072 200.388 102.936 199.9 102.664C199.412 102.392 199.028 102.012 198.748 101.524C198.476 101.028 198.34 100.46 198.34 99.82C198.34 99.18 198.476 98.616 198.748 98.128C199.028 97.64 199.412 97.26 199.9 96.988C200.388 96.716 200.94 96.58 201.556 96.58C202.012 96.58 202.432 96.668 202.816 96.844C203.2 97.012 203.52 97.264 203.776 97.6V94.096H204.928ZM201.652 102.064C202.052 102.064 202.416 101.972 202.744 101.788C203.072 101.596 203.328 101.332 203.512 100.996C203.696 100.652 203.788 100.26 203.788 99.82C203.788 99.38 203.696 98.992 203.512 98.656C203.328 98.312 203.072 98.048 202.744 97.864C202.416 97.68 202.052 97.588 201.652 97.588C201.244 97.588 200.876 97.68 200.548 97.864C200.228 98.048 199.972 98.312 199.78 98.656C199.596 98.992 199.504 99.38 199.504 99.82C199.504 100.26 199.596 100.652 199.78 100.996C199.972 101.332 200.228 101.596 200.548 101.788C200.876 101.972 201.244 102.064 201.652 102.064ZM213.036 96.64V103H211.944V102.04C211.712 102.368 211.404 102.624 211.02 102.808C210.644 102.984 210.232 103.072 209.784 103.072C208.936 103.072 208.268 102.84 207.78 102.376C207.292 101.904 207.048 101.212 207.048 100.3V96.64H208.2V100.168C208.2 100.784 208.348 101.252 208.644 101.572C208.94 101.884 209.364 102.04 209.916 102.04C210.524 102.04 211.004 101.856 211.356 101.488C211.708 101.12 211.884 100.6 211.884 99.928V96.64H213.036ZM218.001 103.072C217.353 103.072 216.773 102.932 216.261 102.652C215.757 102.372 215.361 101.988 215.073 101.5C214.785 101.004 214.641 100.444 214.641 99.82C214.641 99.196 214.785 98.64 215.073 98.152C215.361 97.656 215.757 97.272 216.261 97C216.773 96.72 217.353 96.58 218.001 96.58C218.577 96.58 219.089 96.696 219.537 96.928C219.993 97.16 220.345 97.496 220.593 97.936L219.717 98.5C219.517 98.196 219.269 97.968 218.973 97.816C218.677 97.664 218.349 97.588 217.989 97.588C217.573 97.588 217.197 97.68 216.861 97.864C216.533 98.048 216.273 98.312 216.081 98.656C215.897 98.992 215.805 99.38 215.805 99.82C215.805 100.268 215.897 100.664 216.081 101.008C216.273 101.344 216.533 101.604 216.861 101.788C217.197 101.972 217.573 102.064 217.989 102.064C218.349 102.064 218.677 101.988 218.973 101.836C219.269 101.684 219.517 101.456 219.717 101.152L220.593 101.704C220.345 102.144 219.993 102.484 219.537 102.724C219.089 102.956 218.577 103.072 218.001 103.072ZM225.742 102.628C225.574 102.772 225.366 102.884 225.118 102.964C224.87 103.036 224.614 103.072 224.35 103.072C223.71 103.072 223.214 102.9 222.862 102.556C222.51 102.212 222.334 101.72 222.334 101.08V97.588H221.254V96.64H222.334V95.248H223.486V96.64H225.31V97.588H223.486V101.032C223.486 101.376 223.57 101.64 223.738 101.824C223.914 102.008 224.162 102.1 224.482 102.1C224.834 102.1 225.134 102 225.382 101.8L225.742 102.628ZM228.959 103.072C228.439 103.072 227.939 103.004 227.459 102.868C226.979 102.724 226.603 102.544 226.331 102.328L226.811 101.416C227.091 101.616 227.431 101.776 227.831 101.896C228.231 102.016 228.635 102.076 229.043 102.076C230.051 102.076 230.555 101.788 230.555 101.212C230.555 101.02 230.487 100.868 230.351 100.756C230.215 100.644 230.043 100.564 229.835 100.516C229.635 100.46 229.347 100.4 228.971 100.336C228.459 100.256 228.039 100.164 227.711 100.06C227.391 99.956 227.115 99.78 226.883 99.532C226.651 99.284 226.535 98.936 226.535 98.488C226.535 97.912 226.775 97.452 227.255 97.108C227.735 96.756 228.379 96.58 229.187 96.58C229.611 96.58 230.035 96.632 230.459 96.736C230.883 96.84 231.231 96.98 231.503 97.156L231.011 98.068C230.491 97.732 229.879 97.564 229.175 97.564C228.687 97.564 228.315 97.644 228.059 97.804C227.803 97.964 227.675 98.176 227.675 98.44C227.675 98.648 227.747 98.812 227.891 98.932C228.035 99.052 228.211 99.14 228.419 99.196C228.635 99.252 228.935 99.316 229.319 99.388C229.831 99.476 230.243 99.572 230.555 99.676C230.875 99.772 231.147 99.94 231.371 100.18C231.595 100.42 231.707 100.756 231.707 101.188C231.707 101.764 231.459 102.224 230.963 102.568C230.475 102.904 229.807 103.072 228.959 103.072Z" fill="#465361"/>
</g>
<g id="form_2">
<g id="Group 2067_2">
<g id="Group 2071_2">
<path id="No_2" d="M367.125 137.6V146H366.141L361.101 139.736V146H359.901V137.6H360.885L365.925 143.864V137.6H367.125ZM372.195 146.072C371.563 146.072 370.995 145.932 370.491 145.652C369.987 145.372 369.591 144.988 369.303 144.5C369.023 144.004 368.883 143.444 368.883 142.82C368.883 142.196 369.023 141.64 369.303 141.152C369.591 140.656 369.987 140.272 370.491 140C370.995 139.72 371.563 139.58 372.195 139.58C372.827 139.58 373.391 139.72 373.887 140C374.391 140.272 374.783 140.656 375.063 141.152C375.351 141.64 375.495 142.196 375.495 142.82C375.495 143.444 375.351 144.004 375.063 144.5C374.783 144.988 374.391 145.372 373.887 145.652C373.391 145.932 372.827 146.072 372.195 146.072ZM372.195 145.064C372.603 145.064 372.967 144.972 373.287 144.788C373.615 144.596 373.871 144.332 374.055 143.996C374.239 143.652 374.331 143.26 374.331 142.82C374.331 142.38 374.239 141.992 374.055 141.656C373.871 141.312 373.615 141.048 373.287 140.864C372.967 140.68 372.603 140.588 372.195 140.588C371.787 140.588 371.419 140.68 371.091 140.864C370.771 141.048 370.515 141.312 370.323 141.656C370.139 141.992 370.047 142.38 370.047 142.82C370.047 143.26 370.139 143.652 370.323 143.996C370.515 144.332 370.771 144.596 371.091 144.788C371.419 144.972 371.787 145.064 372.195 145.064Z" fill="#465361"/>
<g id="Group 2065_2">
<circle id="Ellipse 78_3" cx="346.318" cy="142" r="7.5" stroke="#E5EAEF"/>
<circle id="Ellipse 79_2" cx="346.319" cy="142" r="4.41667" fill="#E5EAEF" stroke="#E5EAEF" stroke-width="0.5"/>
</g>
</g>
<g id="Group 2066_2">
<circle id="Ellipse 78_4" cx="291.996" cy="142" r="7.5" stroke="#E5EAEF"/>
<path id="Yes_2" d="M308.794 143.096V146H307.606V143.072L304.27 137.6H305.554L308.242 142.028L310.942 137.6H312.13L308.794 143.096ZM318.213 142.856C318.213 142.944 318.205 143.06 318.189 143.204H313.029C313.101 143.764 313.345 144.216 313.761 144.56C314.185 144.896 314.709 145.064 315.333 145.064C316.093 145.064 316.705 144.808 317.169 144.296L317.805 145.04C317.517 145.376 317.157 145.632 316.725 145.808C316.301 145.984 315.825 146.072 315.297 146.072C314.625 146.072 314.029 145.936 313.509 145.664C312.989 145.384 312.585 144.996 312.297 144.5C312.017 144.004 311.877 143.444 311.877 142.82C311.877 142.204 312.013 141.648 312.285 141.152C312.565 140.656 312.945 140.272 313.425 140C313.913 139.72 314.461 139.58 315.069 139.58C315.677 139.58 316.217 139.72 316.689 140C317.169 140.272 317.541 140.656 317.805 141.152C318.077 141.648 318.213 142.216 318.213 142.856ZM315.069 140.552C314.517 140.552 314.053 140.72 313.677 141.056C313.309 141.392 313.093 141.832 313.029 142.376H317.109C317.045 141.84 316.825 141.404 316.449 141.068C316.081 140.724 315.621 140.552 315.069 140.552ZM321.637 146.072C321.117 146.072 320.617 146.004 320.137 145.868C319.657 145.724 319.281 145.544 319.009 145.328L319.489 144.416C319.769 144.616 320.109 144.776 320.509 144.896C320.909 145.016 321.313 145.076 321.721 145.076C322.729 145.076 323.233 144.788 323.233 144.212C323.233 144.02 323.165 143.868 323.029 143.756C322.893 143.644 322.721 143.564 322.513 143.516C322.313 143.46 322.025 143.4 321.649 143.336C321.137 143.256 320.717 143.164 320.389 143.06C320.069 142.956 319.793 142.78 319.561 142.532C319.329 142.284 319.213 141.936 319.213 141.488C319.213 140.912 319.453 140.452 319.933 140.108C320.413 139.756 321.057 139.58 321.865 139.58C322.289 139.58 322.713 139.632 323.137 139.736C323.561 139.84 323.909 139.98 324.181 140.156L323.689 141.068C323.169 140.732 322.557 140.564 321.853 140.564C321.365 140.564 320.993 140.644 320.737 140.804C320.481 140.964 320.353 141.176 320.353 141.44C320.353 141.648 320.425 141.812 320.569 141.932C320.713 142.052 320.889 142.14 321.097 142.196C321.313 142.252 321.613 142.316 321.997 142.388C322.509 142.476 322.921 142.572 323.233 142.676C323.553 142.772 323.825 142.94 324.049 143.18C324.273 143.42 324.385 143.756 324.385 144.188C324.385 144.764 324.137 145.224 323.641 145.568C323.153 145.904 322.485 146.072 321.637 146.072Z" fill="#465361"/>
</g>
</g>
<path id="Include Hidden Products" d="M46.26 137.6H47.46V146H46.26V137.6ZM53.2028 139.58C54.0108 139.58 54.6508 139.816 55.1228 140.288C55.6028 140.752 55.8428 141.436 55.8428 142.34V146H54.6908V142.472C54.6908 141.856 54.5428 141.392 54.2468 141.08C53.9508 140.768 53.5268 140.612 52.9748 140.612C52.3508 140.612 51.8588 140.796 51.4988 141.164C51.1388 141.524 50.9588 142.044 50.9588 142.724V146H49.8068V139.64H50.9108V140.6C51.1428 140.272 51.4548 140.02 51.8468 139.844C52.2468 139.668 52.6988 139.58 53.2028 139.58ZM60.782 146.072C60.134 146.072 59.554 145.932 59.042 145.652C58.538 145.372 58.142 144.988 57.854 144.5C57.566 144.004 57.422 143.444 57.422 142.82C57.422 142.196 57.566 141.64 57.854 141.152C58.142 140.656 58.538 140.272 59.042 140C59.554 139.72 60.134 139.58 60.782 139.58C61.358 139.58 61.87 139.696 62.318 139.928C62.774 140.16 63.126 140.496 63.374 140.936L62.498 141.5C62.298 141.196 62.05 140.968 61.754 140.816C61.458 140.664 61.13 140.588 60.77 140.588C60.354 140.588 59.978 140.68 59.642 140.864C59.314 141.048 59.054 141.312 58.862 141.656C58.678 141.992 58.586 142.38 58.586 142.82C58.586 143.268 58.678 143.664 58.862 144.008C59.054 144.344 59.314 144.604 59.642 144.788C59.978 144.972 60.354 145.064 60.77 145.064C61.13 145.064 61.458 144.988 61.754 144.836C62.05 144.684 62.298 144.456 62.498 144.152L63.374 144.704C63.126 145.144 62.774 145.484 62.318 145.724C61.87 145.956 61.358 146.072 60.782 146.072ZM64.7834 137.096H65.9354V146H64.7834V137.096ZM74.063 139.64V146H72.971V145.04C72.739 145.368 72.431 145.624 72.047 145.808C71.671 145.984 71.259 146.072 70.811 146.072C69.963 146.072 69.295 145.84 68.807 145.376C68.319 144.904 68.075 144.212 68.075 143.3V139.64H69.227V143.168C69.227 143.784 69.375 144.252 69.671 144.572C69.967 144.884 70.391 145.04 70.943 145.04C71.551 145.04 72.031 144.856 72.383 144.488C72.735 144.12 72.911 143.6 72.911 142.928V139.64H74.063ZM82.2561 137.096V146H81.1521V144.992C80.8961 145.344 80.5721 145.612 80.1801 145.796C79.7881 145.98 79.3561 146.072 78.8841 146.072C78.2681 146.072 77.7161 145.936 77.2281 145.664C76.7401 145.392 76.3561 145.012 76.0761 144.524C75.8041 144.028 75.6681 143.46 75.6681 142.82C75.6681 142.18 75.8041 141.616 76.0761 141.128C76.3561 140.64 76.7401 140.26 77.2281 139.988C77.7161 139.716 78.2681 139.58 78.8841 139.58C79.3401 139.58 79.7601 139.668 80.1441 139.844C80.5281 140.012 80.8481 140.264 81.1041 140.6V137.096H82.2561ZM78.9801 145.064C79.3801 145.064 79.7441 144.972 80.0721 144.788C80.4001 144.596 80.6561 144.332 80.8401 143.996C81.0241 143.652 81.1161 143.26 81.1161 142.82C81.1161 142.38 81.0241 141.992 80.8401 141.656C80.6561 141.312 80.4001 141.048 80.0721 140.864C79.7441 140.68 79.3801 140.588 78.9801 140.588C78.5721 140.588 78.2041 140.68 77.8761 140.864C77.5561 141.048 77.3001 141.312 77.1081 141.656C76.9241 141.992 76.8321 142.38 76.8321 142.82C76.8321 143.26 76.9241 143.652 77.1081 143.996C77.3001 144.332 77.5561 144.596 77.8761 144.788C78.2041 144.972 78.5721 145.064 78.9801 145.064ZM90.1838 142.856C90.1838 142.944 90.1758 143.06 90.1598 143.204H84.9998C85.0718 143.764 85.3158 144.216 85.7318 144.56C86.1558 144.896 86.6798 145.064 87.3038 145.064C88.0638 145.064 88.6758 144.808 89.1398 144.296L89.7758 145.04C89.4878 145.376 89.1278 145.632 88.6958 145.808C88.2718 145.984 87.7958 146.072 87.2678 146.072C86.5958 146.072 85.9998 145.936 85.4798 145.664C84.9598 145.384 84.5558 144.996 84.2678 144.5C83.9878 144.004 83.8478 143.444 83.8478 142.82C83.8478 142.204 83.9838 141.648 84.2558 141.152C84.5358 140.656 84.9158 140.272 85.3958 140C85.8838 139.72 86.4318 139.58 87.0398 139.58C87.6478 139.58 88.1878 139.72 88.6598 140C89.1398 140.272 89.5118 140.656 89.7758 141.152C90.0478 141.648 90.1838 142.216 90.1838 142.856ZM87.0398 140.552C86.4878 140.552 86.0238 140.72 85.6478 141.056C85.2798 141.392 85.0638 141.832 84.9998 142.376H89.0798C89.0158 141.84 88.7958 141.404 88.4198 141.068C88.0518 140.724 87.5918 140.552 87.0398 140.552ZM102.398 137.6V146H101.198V142.256H96.3741V146H95.1741V137.6H96.3741V141.212H101.198V137.6H102.398ZM104.744 139.64H105.896V146H104.744V139.64ZM105.32 138.416C105.096 138.416 104.908 138.344 104.756 138.2C104.612 138.056 104.54 137.88 104.54 137.672C104.54 137.464 104.612 137.288 104.756 137.144C104.908 136.992 105.096 136.916 105.32 136.916C105.544 136.916 105.728 136.988 105.872 137.132C106.024 137.268 106.1 137.44 106.1 137.648C106.1 137.864 106.024 138.048 105.872 138.2C105.728 138.344 105.544 138.416 105.32 138.416ZM114.096 137.096V146H112.992V144.992C112.736 145.344 112.412 145.612 112.02 145.796C111.628 145.98 111.196 146.072 110.724 146.072C110.108 146.072 109.556 145.936 109.068 145.664C108.58 145.392 108.196 145.012 107.916 144.524C107.644 144.028 107.508 143.46 107.508 142.82C107.508 142.18 107.644 141.616 107.916 141.128C108.196 140.64 108.58 140.26 109.068 139.988C109.556 139.716 110.108 139.58 110.724 139.58C111.18 139.58 111.6 139.668 111.984 139.844C112.368 140.012 112.688 140.264 112.944 140.6V137.096H114.096ZM110.82 145.064C111.22 145.064 111.584 144.972 111.912 144.788C112.24 144.596 112.496 144.332 112.68 143.996C112.864 143.652 112.956 143.26 112.956 142.82C112.956 142.38 112.864 141.992 112.68 141.656C112.496 141.312 112.24 141.048 111.912 140.864C111.584 140.68 111.22 140.588 110.82 140.588C110.412 140.588 110.044 140.68 109.716 140.864C109.396 141.048 109.14 141.312 108.948 141.656C108.764 141.992 108.672 142.38 108.672 142.82C108.672 143.26 108.764 143.652 108.948 143.996C109.14 144.332 109.396 144.596 109.716 144.788C110.044 144.972 110.412 145.064 110.82 145.064ZM122.276 137.096V146H121.172V144.992C120.916 145.344 120.592 145.612 120.2 145.796C119.808 145.98 119.376 146.072 118.904 146.072C118.288 146.072 117.736 145.936 117.248 145.664C116.76 145.392 116.376 145.012 116.096 144.524C115.824 144.028 115.688 143.46 115.688 142.82C115.688 142.18 115.824 141.616 116.096 141.128C116.376 140.64 116.76 140.26 117.248 139.988C117.736 139.716 118.288 139.58 118.904 139.58C119.36 139.58 119.78 139.668 120.164 139.844C120.548 140.012 120.868 140.264 121.124 140.6V137.096H122.276ZM119 145.064C119.4 145.064 119.764 144.972 120.092 144.788C120.42 144.596 120.676 144.332 120.86 143.996C121.044 143.652 121.136 143.26 121.136 142.82C121.136 142.38 121.044 141.992 120.86 141.656C120.676 141.312 120.42 141.048 120.092 140.864C119.764 140.68 119.4 140.588 119 140.588C118.592 140.588 118.224 140.68 117.896 140.864C117.576 141.048 117.32 141.312 117.128 141.656C116.944 141.992 116.852 142.38 116.852 142.82C116.852 143.26 116.944 143.652 117.128 143.996C117.32 144.332 117.576 144.596 117.896 144.788C118.224 144.972 118.592 145.064 119 145.064ZM130.203 142.856C130.203 142.944 130.195 143.06 130.179 143.204H125.019C125.091 143.764 125.335 144.216 125.751 144.56C126.175 144.896 126.699 145.064 127.323 145.064C128.083 145.064 128.695 144.808 129.159 144.296L129.795 145.04C129.507 145.376 129.147 145.632 128.715 145.808C128.291 145.984 127.815 146.072 127.287 146.072C126.615 146.072 126.019 145.936 125.499 145.664C124.979 145.384 124.575 144.996 124.287 144.5C124.007 144.004 123.867 143.444 123.867 142.82C123.867 142.204 124.003 141.648 124.275 141.152C124.555 140.656 124.935 140.272 125.415 140C125.903 139.72 126.451 139.58 127.059 139.58C127.667 139.58 128.207 139.72 128.679 140C129.159 140.272 129.531 140.656 129.795 141.152C130.067 141.648 130.203 142.216 130.203 142.856ZM127.059 140.552C126.507 140.552 126.043 140.72 125.667 141.056C125.299 141.392 125.083 141.832 125.019 142.376H129.099C129.035 141.84 128.815 141.404 128.439 141.068C128.071 140.724 127.611 140.552 127.059 140.552ZM135.199 139.58C136.007 139.58 136.647 139.816 137.119 140.288C137.599 140.752 137.839 141.436 137.839 142.34V146H136.687V142.472C136.687 141.856 136.539 141.392 136.243 141.08C135.947 140.768 135.523 140.612 134.971 140.612C134.347 140.612 133.855 140.796 133.495 141.164C133.135 141.524 132.955 142.044 132.955 142.724V146H131.803V139.64H132.907V140.6C133.139 140.272 133.451 140.02 133.843 139.844C134.243 139.668 134.695 139.58 135.199 139.58ZM146.638 137.6C147.726 137.6 148.582 137.86 149.206 138.38C149.83 138.9 150.142 139.616 150.142 140.528C150.142 141.44 149.83 142.156 149.206 142.676C148.582 143.196 147.726 143.456 146.638 143.456H144.562V146H143.362V137.6H146.638ZM146.602 142.412C147.362 142.412 147.942 142.252 148.342 141.932C148.742 141.604 148.942 141.136 148.942 140.528C148.942 139.92 148.742 139.456 148.342 139.136C147.942 138.808 147.362 138.644 146.602 138.644H144.562V142.412H146.602ZM152.735 140.708C152.935 140.34 153.231 140.06 153.623 139.868C154.015 139.676 154.491 139.58 155.051 139.58V140.696C154.987 140.688 154.899 140.684 154.787 140.684C154.163 140.684 153.671 140.872 153.311 141.248C152.959 141.616 152.783 142.144 152.783 142.832V146H151.631V139.64H152.735V140.708ZM159.136 146.072C158.504 146.072 157.936 145.932 157.432 145.652C156.928 145.372 156.532 144.988 156.244 144.5C155.964 144.004 155.824 143.444 155.824 142.82C155.824 142.196 155.964 141.64 156.244 141.152C156.532 140.656 156.928 140.272 157.432 140C157.936 139.72 158.504 139.58 159.136 139.58C159.768 139.58 160.332 139.72 160.828 140C161.332 140.272 161.724 140.656 162.004 141.152C162.292 141.64 162.436 142.196 162.436 142.82C162.436 143.444 162.292 144.004 162.004 144.5C161.724 144.988 161.332 145.372 160.828 145.652C160.332 145.932 159.768 146.072 159.136 146.072ZM159.136 145.064C159.544 145.064 159.908 144.972 160.228 144.788C160.556 144.596 160.812 144.332 160.996 143.996C161.18 143.652 161.272 143.26 161.272 142.82C161.272 142.38 161.18 141.992 160.996 141.656C160.812 141.312 160.556 141.048 160.228 140.864C159.908 140.68 159.544 140.588 159.136 140.588C158.728 140.588 158.36 140.68 158.032 140.864C157.712 141.048 157.456 141.312 157.264 141.656C157.08 141.992 156.988 142.38 156.988 142.82C156.988 143.26 157.08 143.652 157.264 143.996C157.456 144.332 157.712 144.596 158.032 144.788C158.36 144.972 158.728 145.064 159.136 145.064ZM170.03 137.096V146H168.926V144.992C168.67 145.344 168.346 145.612 167.954 145.796C167.562 145.98 167.13 146.072 166.658 146.072C166.042 146.072 165.49 145.936 165.002 145.664C164.514 145.392 164.13 145.012 163.85 144.524C163.578 144.028 163.442 143.46 163.442 142.82C163.442 142.18 163.578 141.616 163.85 141.128C164.13 140.64 164.514 140.26 165.002 139.988C165.49 139.716 166.042 139.58 166.658 139.58C167.114 139.58 167.534 139.668 167.918 139.844C168.302 140.012 168.622 140.264 168.878 140.6V137.096H170.03ZM166.754 145.064C167.154 145.064 167.518 144.972 167.846 144.788C168.174 144.596 168.43 144.332 168.614 143.996C168.798 143.652 168.89 143.26 168.89 142.82C168.89 142.38 168.798 141.992 168.614 141.656C168.43 141.312 168.174 141.048 167.846 140.864C167.518 140.68 167.154 140.588 166.754 140.588C166.346 140.588 165.978 140.68 165.65 140.864C165.33 141.048 165.074 141.312 164.882 141.656C164.698 141.992 164.606 142.38 164.606 142.82C164.606 143.26 164.698 143.652 164.882 143.996C165.074 144.332 165.33 144.596 165.65 144.788C165.978 144.972 166.346 145.064 166.754 145.064ZM178.137 139.64V146H177.045V145.04C176.813 145.368 176.505 145.624 176.121 145.808C175.745 145.984 175.333 146.072 174.885 146.072C174.037 146.072 173.369 145.84 172.881 145.376C172.393 144.904 172.149 144.212 172.149 143.3V139.64H173.301V143.168C173.301 143.784 173.449 144.252 173.745 144.572C174.041 144.884 174.465 145.04 175.017 145.04C175.625 145.04 176.105 144.856 176.457 144.488C176.809 144.12 176.985 143.6 176.985 142.928V139.64H178.137ZM183.102 146.072C182.454 146.072 181.874 145.932 181.362 145.652C180.858 145.372 180.462 144.988 180.174 144.5C179.886 144.004 179.742 143.444 179.742 142.82C179.742 142.196 179.886 141.64 180.174 141.152C180.462 140.656 180.858 140.272 181.362 140C181.874 139.72 182.454 139.58 183.102 139.58C183.678 139.58 184.19 139.696 184.638 139.928C185.094 140.16 185.446 140.496 185.694 140.936L184.818 141.5C184.618 141.196 184.37 140.968 184.074 140.816C183.778 140.664 183.45 140.588 183.09 140.588C182.674 140.588 182.298 140.68 181.962 140.864C181.634 141.048 181.374 141.312 181.182 141.656C180.998 141.992 180.906 142.38 180.906 142.82C180.906 143.268 180.998 143.664 181.182 144.008C181.374 144.344 181.634 144.604 181.962 144.788C182.298 144.972 182.674 145.064 183.09 145.064C183.45 145.064 183.778 144.988 184.074 144.836C184.37 144.684 184.618 144.456 184.818 144.152L185.694 144.704C185.446 145.144 185.094 145.484 184.638 145.724C184.19 145.956 183.678 146.072 183.102 146.072ZM190.844 145.628C190.676 145.772 190.468 145.884 190.22 145.964C189.972 146.036 189.716 146.072 189.452 146.072C188.812 146.072 188.316 145.9 187.964 145.556C187.612 145.212 187.436 144.72 187.436 144.08V140.588H186.356V139.64H187.436V138.248H188.588V139.64H190.412V140.588H188.588V144.032C188.588 144.376 188.672 144.64 188.84 144.824C189.016 145.008 189.264 145.1 189.584 145.1C189.936 145.1 190.236 145 190.484 144.8L190.844 145.628ZM194.061 146.072C193.541 146.072 193.041 146.004 192.561 145.868C192.081 145.724 191.705 145.544 191.433 145.328L191.913 144.416C192.193 144.616 192.533 144.776 192.933 144.896C193.333 145.016 193.737 145.076 194.145 145.076C195.153 145.076 195.657 144.788 195.657 144.212C195.657 144.02 195.589 143.868 195.453 143.756C195.317 143.644 195.145 143.564 194.937 143.516C194.737 143.46 194.449 143.4 194.073 143.336C193.561 143.256 193.141 143.164 192.813 143.06C192.493 142.956 192.217 142.78 191.985 142.532C191.753 142.284 191.637 141.936 191.637 141.488C191.637 140.912 191.877 140.452 192.357 140.108C192.837 139.756 193.481 139.58 194.289 139.58C194.713 139.58 195.137 139.632 195.561 139.736C195.985 139.84 196.333 139.98 196.605 140.156L196.113 141.068C195.593 140.732 194.981 140.564 194.277 140.564C193.789 140.564 193.417 140.644 193.161 140.804C192.905 140.964 192.777 141.176 192.777 141.44C192.777 141.648 192.849 141.812 192.993 141.932C193.137 142.052 193.313 142.14 193.521 142.196C193.737 142.252 194.037 142.316 194.421 142.388C194.933 142.476 195.345 142.572 195.657 142.676C195.977 142.772 196.249 142.94 196.473 143.18C196.697 143.42 196.809 143.756 196.809 144.188C196.809 144.764 196.561 145.224 196.065 145.568C195.577 145.904 194.909 146.072 194.061 146.072Z" fill="#465361"/>
</g>
<g id="form_3">
<g id="Group 2074">
<path id="Product Status" d="M50.536 181.6C51.624 181.6 52.48 181.86 53.104 182.38C53.728 182.9 54.04 183.616 54.04 184.528C54.04 185.44 53.728 186.156 53.104 186.676C52.48 187.196 51.624 187.456 50.536 187.456H48.46V190H47.26V181.6H50.536ZM50.5 186.412C51.26 186.412 51.84 186.252 52.24 185.932C52.64 185.604 52.84 185.136 52.84 184.528C52.84 183.92 52.64 183.456 52.24 183.136C51.84 182.808 51.26 182.644 50.5 182.644H48.46V186.412H50.5ZM56.6335 184.708C56.8335 184.34 57.1295 184.06 57.5215 183.868C57.9135 183.676 58.3895 183.58 58.9495 183.58V184.696C58.8855 184.688 58.7975 184.684 58.6855 184.684C58.0615 184.684 57.5695 184.872 57.2095 185.248C56.8575 185.616 56.6815 186.144 56.6815 186.832V190H55.5295V183.64H56.6335V184.708ZM63.0348 190.072C62.4028 190.072 61.8348 189.932 61.3308 189.652C60.8268 189.372 60.4308 188.988 60.1428 188.5C59.8628 188.004 59.7228 187.444 59.7228 186.82C59.7228 186.196 59.8628 185.64 60.1428 185.152C60.4308 184.656 60.8268 184.272 61.3308 184C61.8348 183.72 62.4028 183.58 63.0348 183.58C63.6668 183.58 64.2308 183.72 64.7268 184C65.2308 184.272 65.6228 184.656 65.9028 185.152C66.1908 185.64 66.3348 186.196 66.3348 186.82C66.3348 187.444 66.1908 188.004 65.9028 188.5C65.6228 188.988 65.2308 189.372 64.7268 189.652C64.2308 189.932 63.6668 190.072 63.0348 190.072ZM63.0348 189.064C63.4428 189.064 63.8068 188.972 64.1268 188.788C64.4548 188.596 64.7108 188.332 64.8948 187.996C65.0788 187.652 65.1708 187.26 65.1708 186.82C65.1708 186.38 65.0788 185.992 64.8948 185.656C64.7108 185.312 64.4548 185.048 64.1268 184.864C63.8068 184.68 63.4428 184.588 63.0348 184.588C62.6268 184.588 62.2588 184.68 61.9308 184.864C61.6108 185.048 61.3548 185.312 61.1628 185.656C60.9788 185.992 60.8868 186.38 60.8868 186.82C60.8868 187.26 60.9788 187.652 61.1628 187.996C61.3548 188.332 61.6108 188.596 61.9308 188.788C62.2588 188.972 62.6268 189.064 63.0348 189.064ZM73.9279 181.096V190H72.8239V188.992C72.5679 189.344 72.2439 189.612 71.8519 189.796C71.4599 189.98 71.0279 190.072 70.5559 190.072C69.9399 190.072 69.3879 189.936 68.8999 189.664C68.4119 189.392 68.0279 189.012 67.7479 188.524C67.4759 188.028 67.3399 187.46 67.3399 186.82C67.3399 186.18 67.4759 185.616 67.7479 185.128C68.0279 184.64 68.4119 184.26 68.8999 183.988C69.3879 183.716 69.9399 183.58 70.5559 183.58C71.0119 183.58 71.4319 183.668 71.8159 183.844C72.1999 184.012 72.5199 184.264 72.7759 184.6V181.096H73.9279ZM70.6519 189.064C71.0519 189.064 71.4159 188.972 71.7439 188.788C72.0719 188.596 72.3279 188.332 72.5119 187.996C72.6959 187.652 72.7879 187.26 72.7879 186.82C72.7879 186.38 72.6959 185.992 72.5119 185.656C72.3279 185.312 72.0719 185.048 71.7439 184.864C71.4159 184.68 71.0519 184.588 70.6519 184.588C70.2439 184.588 69.8759 184.68 69.5479 184.864C69.2279 185.048 68.9719 185.312 68.7799 185.656C68.5959 185.992 68.5039 186.38 68.5039 186.82C68.5039 187.26 68.5959 187.652 68.7799 187.996C68.9719 188.332 69.2279 188.596 69.5479 188.788C69.8759 188.972 70.2439 189.064 70.6519 189.064ZM82.0356 183.64V190H80.9436V189.04C80.7116 189.368 80.4036 189.624 80.0196 189.808C79.6436 189.984 79.2316 190.072 78.7836 190.072C77.9356 190.072 77.2676 189.84 76.7796 189.376C76.2916 188.904 76.0476 188.212 76.0476 187.3V183.64H77.1996V187.168C77.1996 187.784 77.3476 188.252 77.6436 188.572C77.9396 188.884 78.3636 189.04 78.9156 189.04C79.5236 189.04 80.0036 188.856 80.3556 188.488C80.7076 188.12 80.8836 187.6 80.8836 186.928V183.64H82.0356ZM87.0007 190.072C86.3527 190.072 85.7727 189.932 85.2607 189.652C84.7567 189.372 84.3607 188.988 84.0727 188.5C83.7847 188.004 83.6407 187.444 83.6407 186.82C83.6407 186.196 83.7847 185.64 84.0727 185.152C84.3607 184.656 84.7567 184.272 85.2607 184C85.7727 183.72 86.3527 183.58 87.0007 183.58C87.5767 183.58 88.0887 183.696 88.5367 183.928C88.9927 184.16 89.3447 184.496 89.5927 184.936L88.7167 185.5C88.5167 185.196 88.2687 184.968 87.9727 184.816C87.6767 184.664 87.3487 184.588 86.9887 184.588C86.5727 184.588 86.1967 184.68 85.8607 184.864C85.5327 185.048 85.2727 185.312 85.0807 185.656C84.8967 185.992 84.8047 186.38 84.8047 186.82C84.8047 187.268 84.8967 187.664 85.0807 188.008C85.2727 188.344 85.5327 188.604 85.8607 188.788C86.1967 188.972 86.5727 189.064 86.9887 189.064C87.3487 189.064 87.6767 188.988 87.9727 188.836C88.2687 188.684 88.5167 188.456 88.7167 188.152L89.5927 188.704C89.3447 189.144 88.9927 189.484 88.5367 189.724C88.0887 189.956 87.5767 190.072 87.0007 190.072ZM94.7422 189.628C94.5742 189.772 94.3662 189.884 94.1182 189.964C93.8702 190.036 93.6142 190.072 93.3502 190.072C92.7102 190.072 92.2142 189.9 91.8622 189.556C91.5102 189.212 91.3342 188.72 91.3342 188.08V184.588H90.2542V183.64H91.3342V182.248H92.4862V183.64H94.3102V184.588H92.4862V188.032C92.4862 188.376 92.5702 188.64 92.7382 188.824C92.9142 189.008 93.1622 189.1 93.4822 189.1C93.8342 189.1 94.1342 189 94.3822 188.8L94.7422 189.628ZM101.974 190.096C101.342 190.096 100.73 190 100.138 189.808C99.5536 189.608 99.0936 189.352 98.7576 189.04L99.2016 188.104C99.5216 188.392 99.9296 188.628 100.426 188.812C100.93 188.988 101.446 189.076 101.974 189.076C102.67 189.076 103.19 188.96 103.534 188.728C103.878 188.488 104.05 188.172 104.05 187.78C104.05 187.492 103.954 187.26 103.762 187.084C103.578 186.9 103.346 186.76 103.066 186.664C102.794 186.568 102.406 186.46 101.902 186.34C101.27 186.188 100.758 186.036 100.366 185.884C99.9816 185.732 99.6496 185.5 99.3696 185.188C99.0976 184.868 98.9616 184.44 98.9616 183.904C98.9616 183.456 99.0776 183.052 99.3096 182.692C99.5496 182.332 99.9096 182.044 100.39 181.828C100.87 181.612 101.466 181.504 102.178 181.504C102.674 181.504 103.162 181.568 103.642 181.696C104.122 181.824 104.534 182.008 104.878 182.248L104.482 183.208C104.13 182.984 103.754 182.816 103.354 182.704C102.954 182.584 102.562 182.524 102.178 182.524C101.498 182.524 100.986 182.648 100.642 182.896C100.306 183.144 100.138 183.464 100.138 183.856C100.138 184.144 100.234 184.38 100.426 184.564C100.618 184.74 100.854 184.88 101.134 184.984C101.422 185.08 101.81 185.184 102.298 185.296C102.93 185.448 103.438 185.6 103.822 185.752C104.206 185.904 104.534 186.136 104.806 186.448C105.086 186.76 105.226 187.18 105.226 187.708C105.226 188.148 105.106 188.552 104.866 188.92C104.626 189.28 104.262 189.568 103.774 189.784C103.286 189.992 102.686 190.096 101.974 190.096ZM110.387 189.628C110.219 189.772 110.011 189.884 109.763 189.964C109.515 190.036 109.259 190.072 108.995 190.072C108.355 190.072 107.859 189.9 107.507 189.556C107.155 189.212 106.979 188.72 106.979 188.08V184.588H105.899V183.64H106.979V182.248H108.131V183.64H109.955V184.588H108.131V188.032C108.131 188.376 108.215 188.64 108.383 188.824C108.559 189.008 108.807 189.1 109.127 189.1C109.479 189.1 109.779 189 110.027 188.8L110.387 189.628ZM114.096 183.58C114.976 183.58 115.648 183.796 116.112 184.228C116.584 184.66 116.82 185.304 116.82 186.16V190H115.728V189.16C115.536 189.456 115.26 189.684 114.9 189.844C114.548 189.996 114.128 190.072 113.64 190.072C112.928 190.072 112.356 189.9 111.924 189.556C111.5 189.212 111.288 188.76 111.288 188.2C111.288 187.64 111.492 187.192 111.9 186.856C112.308 186.512 112.956 186.34 113.844 186.34H115.668V186.112C115.668 185.616 115.524 185.236 115.236 184.972C114.948 184.708 114.524 184.576 113.964 184.576C113.588 184.576 113.22 184.64 112.86 184.768C112.5 184.888 112.196 185.052 111.948 185.26L111.468 184.396C111.796 184.132 112.188 183.932 112.644 183.796C113.1 183.652 113.584 183.58 114.096 183.58ZM113.832 189.184C114.272 189.184 114.652 189.088 114.972 188.896C115.292 188.696 115.524 188.416 115.668 188.056V187.168H113.892C112.916 187.168 112.428 187.496 112.428 188.152C112.428 188.472 112.552 188.724 112.8 188.908C113.048 189.092 113.392 189.184 113.832 189.184ZM122.527 189.628C122.359 189.772 122.151 189.884 121.903 189.964C121.655 190.036 121.399 190.072 121.135 190.072C120.495 190.072 119.999 189.9 119.647 189.556C119.295 189.212 119.119 188.72 119.119 188.08V184.588H118.039V183.64H119.119V182.248H120.271V183.64H122.095V184.588H120.271V188.032C120.271 188.376 120.355 188.64 120.523 188.824C120.699 189.008 120.947 189.1 121.267 189.1C121.619 189.1 121.919 189 122.167 188.8L122.527 189.628ZM129.848 183.64V190H128.756V189.04C128.524 189.368 128.216 189.624 127.832 189.808C127.456 189.984 127.044 190.072 126.596 190.072C125.748 190.072 125.08 189.84 124.592 189.376C124.104 188.904 123.86 188.212 123.86 187.3V183.64H125.012V187.168C125.012 187.784 125.16 188.252 125.456 188.572C125.752 188.884 126.176 189.04 126.728 189.04C127.336 189.04 127.816 188.856 128.168 188.488C128.52 188.12 128.696 187.6 128.696 186.928V183.64H129.848ZM133.865 190.072C133.345 190.072 132.845 190.004 132.365 189.868C131.885 189.724 131.509 189.544 131.237 189.328L131.717 188.416C131.997 188.616 132.337 188.776 132.737 188.896C133.137 189.016 133.541 189.076 133.949 189.076C134.957 189.076 135.461 188.788 135.461 188.212C135.461 188.02 135.393 187.868 135.257 187.756C135.121 187.644 134.949 187.564 134.741 187.516C134.541 187.46 134.253 187.4 133.877 187.336C133.365 187.256 132.945 187.164 132.617 187.06C132.297 186.956 132.021 186.78 131.789 186.532C131.557 186.284 131.441 185.936 131.441 185.488C131.441 184.912 131.681 184.452 132.161 184.108C132.641 183.756 133.285 183.58 134.093 183.58C134.517 183.58 134.941 183.632 135.365 183.736C135.789 183.84 136.137 183.98 136.409 184.156L135.917 185.068C135.397 184.732 134.785 184.564 134.081 184.564C133.593 184.564 133.221 184.644 132.965 184.804C132.709 184.964 132.581 185.176 132.581 185.44C132.581 185.648 132.653 185.812 132.797 185.932C132.941 186.052 133.117 186.14 133.325 186.196C133.541 186.252 133.841 186.316 134.225 186.388C134.737 186.476 135.149 186.572 135.461 186.676C135.781 186.772 136.053 186.94 136.277 187.18C136.501 187.42 136.613 187.756 136.613 188.188C136.613 188.764 136.365 189.224 135.869 189.568C135.381 189.904 134.713 190.072 133.865 190.072Z" fill="#465361"/>
</g>
<g id="Group 2149">
<g id="input text">
<rect id="bg_2" x="284.246" y="170.25" width="96.499" height="31.5" rx="4.75" fill="#F9FAFD" stroke="#E5EAEF" stroke-width="0.5"/>
<g id="Group 2146">
<rect id="Rectangle 474" x="292.246" y="178.25" width="80.5" height="15.5" rx="1.75" fill="#E5EAEF" stroke="#E5EAEF" stroke-width="0.5"/>
<g id="Group 2145">
<line id="Line 105" y1="-0.5" x2="7.40773" y2="-0.5" transform="matrix(-0.689203 0.724568 -0.689203 -0.724568 366.102 183.307)" stroke="#465361"/>
<line id="Line 106" y1="-0.5" x2="7.40773" y2="-0.5" transform="matrix(-0.689203 -0.724568 0.689204 -0.724568 366.703 188.367)" stroke="#465361"/>
</g>
<path id="Published" d="M299.532 181.6C300.62 181.6 301.476 181.86 302.1 182.38C302.724 182.9 303.036 183.616 303.036 184.528C303.036 185.44 302.724 186.156 302.1 186.676C301.476 187.196 300.62 187.456 299.532 187.456H297.456V190H296.256V181.6H299.532ZM299.496 186.412C300.256 186.412 300.836 186.252 301.236 185.932C301.636 185.604 301.836 185.136 301.836 184.528C301.836 183.92 301.636 183.456 301.236 183.136C300.836 182.808 300.256 182.644 299.496 182.644H297.456V186.412H299.496ZM310.676 183.64V190H309.584V189.04C309.352 189.368 309.044 189.624 308.66 189.808C308.284 189.984 307.872 190.072 307.424 190.072C306.576 190.072 305.908 189.84 305.42 189.376C304.932 188.904 304.688 188.212 304.688 187.3V183.64H305.84V187.168C305.84 187.784 305.988 188.252 306.284 188.572C306.58 188.884 307.004 189.04 307.556 189.04C308.164 189.04 308.644 188.856 308.996 188.488C309.348 188.12 309.524 187.6 309.524 186.928V183.64H310.676ZM316.241 183.58C316.857 183.58 317.409 183.716 317.897 183.988C318.385 184.26 318.765 184.64 319.037 185.128C319.317 185.616 319.457 186.18 319.457 186.82C319.457 187.46 319.317 188.028 319.037 188.524C318.765 189.012 318.385 189.392 317.897 189.664C317.409 189.936 316.857 190.072 316.241 190.072C315.769 190.072 315.337 189.98 314.945 189.796C314.553 189.612 314.229 189.344 313.973 188.992V190H312.869V181.096H314.021V184.6C314.277 184.264 314.597 184.012 314.981 183.844C315.365 183.668 315.785 183.58 316.241 183.58ZM316.145 189.064C316.553 189.064 316.917 188.972 317.237 188.788C317.565 188.596 317.821 188.332 318.005 187.996C318.197 187.652 318.293 187.26 318.293 186.82C318.293 186.38 318.197 185.992 318.005 185.656C317.821 185.312 317.565 185.048 317.237 184.864C316.917 184.68 316.553 184.588 316.145 184.588C315.745 184.588 315.381 184.68 315.053 184.864C314.725 185.048 314.469 185.312 314.285 185.656C314.101 185.992 314.009 186.38 314.009 186.82C314.009 187.26 314.101 187.652 314.285 187.996C314.469 188.332 314.725 188.596 315.053 188.788C315.381 188.972 315.745 189.064 316.145 189.064ZM321.049 181.096H322.201V190H321.049V181.096ZM324.401 183.64H325.553V190H324.401V183.64ZM324.977 182.416C324.753 182.416 324.565 182.344 324.413 182.2C324.269 182.056 324.197 181.88 324.197 181.672C324.197 181.464 324.269 181.288 324.413 181.144C324.565 180.992 324.753 180.916 324.977 180.916C325.201 180.916 325.385 180.988 325.529 181.132C325.681 181.268 325.757 181.44 325.757 181.648C325.757 181.864 325.681 182.048 325.529 182.2C325.385 182.344 325.201 182.416 324.977 182.416ZM329.576 190.072C329.056 190.072 328.556 190.004 328.076 189.868C327.596 189.724 327.22 189.544 326.948 189.328L327.428 188.416C327.708 188.616 328.048 188.776 328.448 188.896C328.848 189.016 329.252 189.076 329.66 189.076C330.668 189.076 331.172 188.788 331.172 188.212C331.172 188.02 331.104 187.868 330.968 187.756C330.832 187.644 330.66 187.564 330.452 187.516C330.252 187.46 329.964 187.4 329.588 187.336C329.076 187.256 328.656 187.164 328.328 187.06C328.008 186.956 327.732 186.78 327.5 186.532C327.268 186.284 327.152 185.936 327.152 185.488C327.152 184.912 327.392 184.452 327.872 184.108C328.352 183.756 328.996 183.58 329.804 183.58C330.228 183.58 330.652 183.632 331.076 183.736C331.5 183.84 331.848 183.98 332.12 184.156L331.628 185.068C331.108 184.732 330.496 184.564 329.792 184.564C329.304 184.564 328.932 184.644 328.676 184.804C328.42 184.964 328.292 185.176 328.292 185.44C328.292 185.648 328.364 185.812 328.508 185.932C328.652 186.052 328.828 186.14 329.036 186.196C329.252 186.252 329.552 186.316 329.936 186.388C330.448 186.476 330.86 186.572 331.172 186.676C331.492 186.772 331.764 186.94 331.988 187.18C332.212 187.42 332.324 187.756 332.324 188.188C332.324 188.764 332.076 189.224 331.58 189.568C331.092 189.904 330.424 190.072 329.576 190.072ZM337.16 183.58C337.968 183.58 338.608 183.816 339.08 184.288C339.56 184.752 339.8 185.436 339.8 186.34V190H338.648V186.472C338.648 185.856 338.5 185.392 338.204 185.08C337.908 184.768 337.484 184.612 336.932 184.612C336.308 184.612 335.816 184.796 335.456 185.164C335.096 185.524 334.916 186.044 334.916 186.724V190H333.764V181.096H334.916V184.54C335.156 184.236 335.468 184 335.852 183.832C336.244 183.664 336.68 183.58 337.16 183.58ZM347.715 186.856C347.715 186.944 347.707 187.06 347.691 187.204H342.531C342.603 187.764 342.847 188.216 343.263 188.56C343.687 188.896 344.211 189.064 344.835 189.064C345.595 189.064 346.207 188.808 346.671 188.296L347.307 189.04C347.019 189.376 346.659 189.632 346.227 189.808C345.803 189.984 345.327 190.072 344.799 190.072C344.127 190.072 343.531 189.936 343.011 189.664C342.491 189.384 342.087 188.996 341.799 188.5C341.519 188.004 341.379 187.444 341.379 186.82C341.379 186.204 341.515 185.648 341.787 185.152C342.067 184.656 342.447 184.272 342.927 184C343.415 183.72 343.963 183.58 344.571 183.58C345.179 183.58 345.719 183.72 346.191 184C346.671 184.272 347.043 184.656 347.307 185.152C347.579 185.648 347.715 186.216 347.715 186.856ZM344.571 184.552C344.019 184.552 343.555 184.72 343.179 185.056C342.811 185.392 342.595 185.832 342.531 186.376H346.611C346.547 185.84 346.327 185.404 345.951 185.068C345.583 184.724 345.123 184.552 344.571 184.552ZM355.315 181.096V190H354.211V188.992C353.955 189.344 353.631 189.612 353.239 189.796C352.847 189.98 352.415 190.072 351.943 190.072C351.327 190.072 350.775 189.936 350.287 189.664C349.799 189.392 349.415 189.012 349.135 188.524C348.863 188.028 348.727 187.46 348.727 186.82C348.727 186.18 348.863 185.616 349.135 185.128C349.415 184.64 349.799 184.26 350.287 183.988C350.775 183.716 351.327 183.58 351.943 183.58C352.399 183.58 352.819 183.668 353.203 183.844C353.587 184.012 353.907 184.264 354.163 184.6V181.096H355.315ZM352.039 189.064C352.439 189.064 352.803 188.972 353.131 188.788C353.459 188.596 353.715 188.332 353.899 187.996C354.083 187.652 354.175 187.26 354.175 186.82C354.175 186.38 354.083 185.992 353.899 185.656C353.715 185.312 353.459 185.048 353.131 184.864C352.803 184.68 352.439 184.588 352.039 184.588C351.631 184.588 351.263 184.68 350.935 184.864C350.615 185.048 350.359 185.312 350.167 185.656C349.983 185.992 349.891 186.38 349.891 186.82C349.891 187.26 349.983 187.652 350.167 187.996C350.359 188.332 350.615 188.596 350.935 188.788C351.263 188.972 351.631 189.064 352.039 189.064Z" fill="#465361"/>
</g>
</g>
<g id="input text_2">
<rect id="bg_3" x="397.246" y="170.25" width="87.5" height="31.5" rx="4.75" fill="#F9FAFD" stroke="#E5EAEF" stroke-width="0.5"/>
<g id="select control">
<path id="Polygon 1" d="M466.994 191L463.994 187L469.994 187L466.994 191Z" fill="#465361"/>
<path id="Polygon 2" d="M466.994 181L469.994 185H463.994L466.994 181Z" fill="#465361"/>
</g>
<path id="Include" d="M413.256 181.6H414.456V190H413.256V181.6ZM420.199 183.58C421.007 183.58 421.647 183.816 422.119 184.288C422.599 184.752 422.839 185.436 422.839 186.34V190H421.687V186.472C421.687 185.856 421.539 185.392 421.243 185.08C420.947 184.768 420.523 184.612 419.971 184.612C419.347 184.612 418.855 184.796 418.495 185.164C418.135 185.524 417.955 186.044 417.955 186.724V190H416.803V183.64H417.907V184.6C418.139 184.272 418.451 184.02 418.843 183.844C419.243 183.668 419.695 183.58 420.199 183.58ZM427.778 190.072C427.13 190.072 426.55 189.932 426.038 189.652C425.534 189.372 425.138 188.988 424.85 188.5C424.562 188.004 424.418 187.444 424.418 186.82C424.418 186.196 424.562 185.64 424.85 185.152C425.138 184.656 425.534 184.272 426.038 184C426.55 183.72 427.13 183.58 427.778 183.58C428.354 183.58 428.866 183.696 429.314 183.928C429.77 184.16 430.122 184.496 430.37 184.936L429.494 185.5C429.294 185.196 429.046 184.968 428.75 184.816C428.454 184.664 428.126 184.588 427.766 184.588C427.35 184.588 426.974 184.68 426.638 184.864C426.31 185.048 426.05 185.312 425.858 185.656C425.674 185.992 425.582 186.38 425.582 186.82C425.582 187.268 425.674 187.664 425.858 188.008C426.05 188.344 426.31 188.604 426.638 188.788C426.974 188.972 427.35 189.064 427.766 189.064C428.126 189.064 428.454 188.988 428.75 188.836C429.046 188.684 429.294 188.456 429.494 188.152L430.37 188.704C430.122 189.144 429.77 189.484 429.314 189.724C428.866 189.956 428.354 190.072 427.778 190.072ZM431.78 181.096H432.932V190H431.78V181.096ZM441.059 183.64V190H439.967V189.04C439.735 189.368 439.427 189.624 439.043 189.808C438.667 189.984 438.255 190.072 437.807 190.072C436.959 190.072 436.291 189.84 435.803 189.376C435.315 188.904 435.071 188.212 435.071 187.3V183.64H436.223V187.168C436.223 187.784 436.371 188.252 436.667 188.572C436.963 188.884 437.387 189.04 437.939 189.04C438.547 189.04 439.027 188.856 439.379 188.488C439.731 188.12 439.907 187.6 439.907 186.928V183.64H441.059ZM449.252 181.096V190H448.148V188.992C447.892 189.344 447.568 189.612 447.176 189.796C446.784 189.98 446.352 190.072 445.88 190.072C445.264 190.072 444.712 189.936 444.224 189.664C443.736 189.392 443.352 189.012 443.072 188.524C442.8 188.028 442.664 187.46 442.664 186.82C442.664 186.18 442.8 185.616 443.072 185.128C443.352 184.64 443.736 184.26 444.224 183.988C444.712 183.716 445.264 183.58 445.88 183.58C446.336 183.58 446.756 183.668 447.14 183.844C447.524 184.012 447.844 184.264 448.1 184.6V181.096H449.252ZM445.976 189.064C446.376 189.064 446.74 188.972 447.068 188.788C447.396 188.596 447.652 188.332 447.836 187.996C448.02 187.652 448.112 187.26 448.112 186.82C448.112 186.38 448.02 185.992 447.836 185.656C447.652 185.312 447.396 185.048 447.068 184.864C446.74 184.68 446.376 184.588 445.976 184.588C445.568 184.588 445.2 184.68 444.872 184.864C444.552 185.048 444.296 185.312 444.104 185.656C443.92 185.992 443.828 186.38 443.828 186.82C443.828 187.26 443.92 187.652 444.104 187.996C444.296 188.332 444.552 188.596 444.872 188.788C445.2 188.972 445.568 189.064 445.976 189.064ZM457.18 186.856C457.18 186.944 457.172 187.06 457.156 187.204H451.996C452.068 187.764 452.312 188.216 452.728 188.56C453.152 188.896 453.676 189.064 454.3 189.064C455.06 189.064 455.672 188.808 456.136 188.296L456.772 189.04C456.484 189.376 456.124 189.632 455.692 189.808C455.268 189.984 454.792 190.072 454.264 190.072C453.592 190.072 452.996 189.936 452.476 189.664C451.956 189.384 451.552 188.996 451.264 188.5C450.984 188.004 450.844 187.444 450.844 186.82C450.844 186.204 450.98 185.648 451.252 185.152C451.532 184.656 451.912 184.272 452.392 184C452.88 183.72 453.428 183.58 454.036 183.58C454.644 183.58 455.184 183.72 455.656 184C456.136 184.272 456.508 184.656 456.772 185.152C457.044 185.648 457.18 186.216 457.18 186.856ZM454.036 184.552C453.484 184.552 453.02 184.72 452.644 185.056C452.276 185.392 452.06 185.832 451.996 186.376H456.076C456.012 185.84 455.792 185.404 455.416 185.068C455.048 184.724 454.588 184.552 454.036 184.552Z" fill="#465361"/>
</g>
</g>
</g>
<g id="form_4">
<g id="Group 2074_2">
<path id="Product IDs" d="M50.536 228.6C51.624 228.6 52.48 228.86 53.104 229.38C53.728 229.9 54.04 230.616 54.04 231.528C54.04 232.44 53.728 233.156 53.104 233.676C52.48 234.196 51.624 234.456 50.536 234.456H48.46V237H47.26V228.6H50.536ZM50.5 233.412C51.26 233.412 51.84 233.252 52.24 232.932C52.64 232.604 52.84 232.136 52.84 231.528C52.84 230.92 52.64 230.456 52.24 230.136C51.84 229.808 51.26 229.644 50.5 229.644H48.46V233.412H50.5ZM56.6335 231.708C56.8335 231.34 57.1295 231.06 57.5215 230.868C57.9135 230.676 58.3895 230.58 58.9495 230.58V231.696C58.8855 231.688 58.7975 231.684 58.6855 231.684C58.0615 231.684 57.5695 231.872 57.2095 232.248C56.8575 232.616 56.6815 233.144 56.6815 233.832V237H55.5295V230.64H56.6335V231.708ZM63.0348 237.072C62.4028 237.072 61.8348 236.932 61.3308 236.652C60.8268 236.372 60.4308 235.988 60.1428 235.5C59.8628 235.004 59.7228 234.444 59.7228 233.82C59.7228 233.196 59.8628 232.64 60.1428 232.152C60.4308 231.656 60.8268 231.272 61.3308 231C61.8348 230.72 62.4028 230.58 63.0348 230.58C63.6668 230.58 64.2308 230.72 64.7268 231C65.2308 231.272 65.6228 231.656 65.9028 232.152C66.1908 232.64 66.3348 233.196 66.3348 233.82C66.3348 234.444 66.1908 235.004 65.9028 235.5C65.6228 235.988 65.2308 236.372 64.7268 236.652C64.2308 236.932 63.6668 237.072 63.0348 237.072ZM63.0348 236.064C63.4428 236.064 63.8068 235.972 64.1268 235.788C64.4548 235.596 64.7108 235.332 64.8948 234.996C65.0788 234.652 65.1708 234.26 65.1708 233.82C65.1708 233.38 65.0788 232.992 64.8948 232.656C64.7108 232.312 64.4548 232.048 64.1268 231.864C63.8068 231.68 63.4428 231.588 63.0348 231.588C62.6268 231.588 62.2588 231.68 61.9308 231.864C61.6108 232.048 61.3548 232.312 61.1628 232.656C60.9788 232.992 60.8868 233.38 60.8868 233.82C60.8868 234.26 60.9788 234.652 61.1628 234.996C61.3548 235.332 61.6108 235.596 61.9308 235.788C62.2588 235.972 62.6268 236.064 63.0348 236.064ZM73.9279 228.096V237H72.8239V235.992C72.5679 236.344 72.2439 236.612 71.8519 236.796C71.4599 236.98 71.0279 237.072 70.5559 237.072C69.9399 237.072 69.3879 236.936 68.8999 236.664C68.4119 236.392 68.0279 236.012 67.7479 235.524C67.4759 235.028 67.3399 234.46 67.3399 233.82C67.3399 233.18 67.4759 232.616 67.7479 232.128C68.0279 231.64 68.4119 231.26 68.8999 230.988C69.3879 230.716 69.9399 230.58 70.5559 230.58C71.0119 230.58 71.4319 230.668 71.8159 230.844C72.1999 231.012 72.5199 231.264 72.7759 231.6V228.096H73.9279ZM70.6519 236.064C71.0519 236.064 71.4159 235.972 71.7439 235.788C72.0719 235.596 72.3279 235.332 72.5119 234.996C72.6959 234.652 72.7879 234.26 72.7879 233.82C72.7879 233.38 72.6959 232.992 72.5119 232.656C72.3279 232.312 72.0719 232.048 71.7439 231.864C71.4159 231.68 71.0519 231.588 70.6519 231.588C70.2439 231.588 69.8759 231.68 69.5479 231.864C69.2279 232.048 68.9719 232.312 68.7799 232.656C68.5959 232.992 68.5039 233.38 68.5039 233.82C68.5039 234.26 68.5959 234.652 68.7799 234.996C68.9719 235.332 69.2279 235.596 69.5479 235.788C69.8759 235.972 70.2439 236.064 70.6519 236.064ZM82.0356 230.64V237H80.9436V236.04C80.7116 236.368 80.4036 236.624 80.0196 236.808C79.6436 236.984 79.2316 237.072 78.7836 237.072C77.9356 237.072 77.2676 236.84 76.7796 236.376C76.2916 235.904 76.0476 235.212 76.0476 234.3V230.64H77.1996V234.168C77.1996 234.784 77.3476 235.252 77.6436 235.572C77.9396 235.884 78.3636 236.04 78.9156 236.04C79.5236 236.04 80.0036 235.856 80.3556 235.488C80.7076 235.12 80.8836 234.6 80.8836 233.928V230.64H82.0356ZM87.0007 237.072C86.3527 237.072 85.7727 236.932 85.2607 236.652C84.7567 236.372 84.3607 235.988 84.0727 235.5C83.7847 235.004 83.6407 234.444 83.6407 233.82C83.6407 233.196 83.7847 232.64 84.0727 232.152C84.3607 231.656 84.7567 231.272 85.2607 231C85.7727 230.72 86.3527 230.58 87.0007 230.58C87.5767 230.58 88.0887 230.696 88.5367 230.928C88.9927 231.16 89.3447 231.496 89.5927 231.936L88.7167 232.5C88.5167 232.196 88.2687 231.968 87.9727 231.816C87.6767 231.664 87.3487 231.588 86.9887 231.588C86.5727 231.588 86.1967 231.68 85.8607 231.864C85.5327 232.048 85.2727 232.312 85.0807 232.656C84.8967 232.992 84.8047 233.38 84.8047 233.82C84.8047 234.268 84.8967 234.664 85.0807 235.008C85.2727 235.344 85.5327 235.604 85.8607 235.788C86.1967 235.972 86.5727 236.064 86.9887 236.064C87.3487 236.064 87.6767 235.988 87.9727 235.836C88.2687 235.684 88.5167 235.456 88.7167 235.152L89.5927 235.704C89.3447 236.144 88.9927 236.484 88.5367 236.724C88.0887 236.956 87.5767 237.072 87.0007 237.072ZM94.7422 236.628C94.5742 236.772 94.3662 236.884 94.1182 236.964C93.8702 237.036 93.6142 237.072 93.3502 237.072C92.7102 237.072 92.2142 236.9 91.8622 236.556C91.5102 236.212 91.3342 235.72 91.3342 235.08V231.588H90.2542V230.64H91.3342V229.248H92.4862V230.64H94.3102V231.588H92.4862V235.032C92.4862 235.376 92.5702 235.64 92.7382 235.824C92.9142 236.008 93.1622 236.1 93.4822 236.1C93.8342 236.1 94.1342 236 94.3822 235.8L94.7422 236.628ZM99.5256 228.6H100.726V237H99.5256V228.6ZM103.24 228.6H106.78C107.668 228.6 108.456 228.776 109.144 229.128C109.832 229.48 110.364 229.976 110.74 230.616C111.124 231.248 111.316 231.976 111.316 232.8C111.316 233.624 111.124 234.356 110.74 234.996C110.364 235.628 109.832 236.12 109.144 236.472C108.456 236.824 107.668 237 106.78 237H103.24V228.6ZM106.708 235.956C107.388 235.956 107.984 235.824 108.496 235.56C109.016 235.296 109.416 234.928 109.696 234.456C109.976 233.976 110.116 233.424 110.116 232.8C110.116 232.176 109.976 231.628 109.696 231.156C109.416 230.676 109.016 230.304 108.496 230.04C107.984 229.776 107.388 229.644 106.708 229.644H104.44V235.956H106.708ZM114.811 237.072C114.291 237.072 113.791 237.004 113.311 236.868C112.831 236.724 112.455 236.544 112.183 236.328L112.663 235.416C112.943 235.616 113.283 235.776 113.683 235.896C114.083 236.016 114.487 236.076 114.895 236.076C115.903 236.076 116.407 235.788 116.407 235.212C116.407 235.02 116.339 234.868 116.203 234.756C116.067 234.644 115.895 234.564 115.687 234.516C115.487 234.46 115.199 234.4 114.823 234.336C114.311 234.256 113.891 234.164 113.563 234.06C113.243 233.956 112.967 233.78 112.735 233.532C112.503 233.284 112.387 232.936 112.387 232.488C112.387 231.912 112.627 231.452 113.107 231.108C113.587 230.756 114.231 230.58 115.039 230.58C115.463 230.58 115.887 230.632 116.311 230.736C116.735 230.84 117.083 230.98 117.355 231.156L116.863 232.068C116.343 231.732 115.731 231.564 115.027 231.564C114.539 231.564 114.167 231.644 113.911 231.804C113.655 231.964 113.527 232.176 113.527 232.44C113.527 232.648 113.599 232.812 113.743 232.932C113.887 233.052 114.063 233.14 114.271 233.196C114.487 233.252 114.787 233.316 115.171 233.388C115.683 233.476 116.095 233.572 116.407 233.676C116.727 233.772 116.999 233.94 117.223 234.18C117.447 234.42 117.559 234.756 117.559 235.188C117.559 235.764 117.311 236.224 116.815 236.568C116.327 236.904 115.659 237.072 114.811 237.072Z" fill="#465361"/>
</g>
<g id="Group 2149_2">
<g id="input text_3">
<rect id="bg_4" x="284.496" y="217.5" width="95.999" height="31" rx="4.5" fill="#F9FAFD" stroke="#E5EAEF"/>
<path id="12, 16, 25" d="M303.176 228.6V237H301.988V229.644H300.092V228.6H303.176ZM310.918 235.956V237H304.882V236.184L308.302 232.884C308.718 232.484 308.998 232.14 309.142 231.852C309.286 231.556 309.358 231.26 309.358 230.964C309.358 230.524 309.202 230.184 308.89 229.944C308.586 229.696 308.146 229.572 307.57 229.572C306.642 229.572 305.926 229.876 305.422 230.484L304.606 229.776C304.934 229.376 305.362 229.064 305.89 228.84C306.426 228.616 307.022 228.504 307.678 228.504C308.558 228.504 309.258 228.716 309.778 229.14C310.298 229.556 310.558 230.124 310.558 230.844C310.558 231.292 310.462 231.716 310.27 232.116C310.078 232.516 309.714 232.972 309.178 233.484L306.61 235.956H310.918ZM312.825 235.428C313.049 235.428 313.233 235.508 313.377 235.668C313.529 235.82 313.605 236.012 313.605 236.244C313.605 236.364 313.589 236.48 313.557 236.592C313.533 236.704 313.481 236.876 313.401 237.108L312.837 238.776H312.081L312.525 236.988C312.373 236.932 312.249 236.84 312.153 236.712C312.065 236.576 312.021 236.42 312.021 236.244C312.021 236.004 312.097 235.808 312.249 235.656C312.401 235.504 312.593 235.428 312.825 235.428ZM320.567 228.6V237H319.379V229.644H317.483V228.6H320.567ZM326.028 231.9C326.58 231.9 327.072 232.004 327.504 232.212C327.944 232.42 328.288 232.72 328.536 233.112C328.784 233.496 328.908 233.94 328.908 234.444C328.908 234.972 328.776 235.436 328.512 235.836C328.256 236.236 327.9 236.548 327.444 236.772C326.996 236.988 326.492 237.096 325.932 237.096C324.804 237.096 323.932 236.732 323.316 236.004C322.708 235.276 322.404 234.244 322.404 232.908C322.404 231.972 322.568 231.176 322.896 230.52C323.232 229.856 323.696 229.356 324.288 229.02C324.888 228.676 325.584 228.504 326.376 228.504C326.784 228.504 327.168 228.548 327.528 228.636C327.888 228.716 328.2 228.836 328.464 228.996L328.008 229.932C327.608 229.668 327.072 229.536 326.4 229.536C325.528 229.536 324.844 229.808 324.348 230.352C323.852 230.888 323.604 231.672 323.604 232.704C323.604 232.832 323.608 232.932 323.616 233.004C323.856 232.644 324.184 232.372 324.6 232.188C325.024 231.996 325.5 231.9 326.028 231.9ZM325.884 236.124C326.436 236.124 326.884 235.976 327.228 235.68C327.572 235.384 327.744 234.988 327.744 234.492C327.744 233.996 327.568 233.604 327.216 233.316C326.872 233.02 326.408 232.872 325.824 232.872C325.448 232.872 325.112 232.944 324.816 233.088C324.528 233.232 324.3 233.428 324.132 233.676C323.972 233.924 323.892 234.2 323.892 234.504C323.892 234.8 323.968 235.072 324.12 235.32C324.28 235.56 324.508 235.756 324.804 235.908C325.108 236.052 325.468 236.124 325.884 236.124ZM330.732 235.428C330.956 235.428 331.14 235.508 331.284 235.668C331.436 235.82 331.512 236.012 331.512 236.244C331.512 236.364 331.496 236.48 331.464 236.592C331.44 236.704 331.388 236.876 331.308 237.108L330.744 238.776H329.988L330.432 236.988C330.28 236.932 330.156 236.84 330.06 236.712C329.972 236.576 329.928 236.42 329.928 236.244C329.928 236.004 330.004 235.808 330.156 235.656C330.308 235.504 330.5 235.428 330.732 235.428ZM341.773 235.956V237H335.737V236.184L339.157 232.884C339.573 232.484 339.853 232.14 339.997 231.852C340.141 231.556 340.213 231.26 340.213 230.964C340.213 230.524 340.057 230.184 339.745 229.944C339.441 229.696 339.001 229.572 338.425 229.572C337.497 229.572 336.781 229.876 336.277 230.484L335.461 229.776C335.789 229.376 336.217 229.064 336.745 228.84C337.281 228.616 337.877 228.504 338.533 228.504C339.413 228.504 340.113 228.716 340.633 229.14C341.153 229.556 341.413 230.124 341.413 230.844C341.413 231.292 341.317 231.716 341.125 232.116C340.933 232.516 340.569 232.972 340.033 233.484L337.465 235.956H341.773ZM345.16 231.948C346.36 231.948 347.24 232.176 347.8 232.632C348.368 233.08 348.652 233.696 348.652 234.48C348.652 234.976 348.532 235.424 348.292 235.824C348.06 236.216 347.704 236.528 347.224 236.76C346.752 236.984 346.168 237.096 345.472 237.096C344.88 237.096 344.308 237.008 343.756 236.832C343.204 236.648 342.748 236.396 342.388 236.076L342.94 235.128C343.228 235.4 343.596 235.62 344.044 235.788C344.492 235.948 344.964 236.028 345.46 236.028C346.092 236.028 346.58 235.896 346.924 235.632C347.276 235.36 347.452 234.992 347.452 234.528C347.452 234.024 347.26 233.644 346.876 233.388C346.492 233.124 345.836 232.992 344.908 232.992H343L343.444 228.6H348.184V229.644H344.452L344.224 231.948H345.16Z" fill="#465361"/>
</g>
<g id="input text_4">
<rect id="bg_5" x="397.496" y="217.5" width="87" height="31" rx="4.5" fill="#F9FAFD" stroke="#E5EAEF"/>
<g id="select control_2">
<path id="Polygon 1_2" d="M466.994 238L463.994 234L469.994 234L466.994 238Z" fill="#465361"/>
<path id="Polygon 2_2" d="M466.994 228L469.994 232H463.994L466.994 228Z" fill="#465361"/>
</g>
<path id="Exclude" d="M419.352 235.956V237H413.256V228.6H419.184V229.644H414.456V232.224H418.668V233.244H414.456V235.956H419.352ZM425.043 237L423.207 234.564L421.347 237H420.063L422.571 233.748L420.183 230.64H421.467L423.219 232.932L424.959 230.64H426.219L423.819 233.748L426.351 237H425.043ZM430.169 237.072C429.521 237.072 428.941 236.932 428.429 236.652C427.925 236.372 427.529 235.988 427.241 235.5C426.953 235.004 426.809 234.444 426.809 233.82C426.809 233.196 426.953 232.64 427.241 232.152C427.529 231.656 427.925 231.272 428.429 231C428.941 230.72 429.521 230.58 430.169 230.58C430.745 230.58 431.257 230.696 431.705 230.928C432.161 231.16 432.513 231.496 432.761 231.936L431.885 232.5C431.685 232.196 431.437 231.968 431.141 231.816C430.845 231.664 430.517 231.588 430.157 231.588C429.741 231.588 429.365 231.68 429.029 231.864C428.701 232.048 428.441 232.312 428.249 232.656C428.065 232.992 427.973 233.38 427.973 233.82C427.973 234.268 428.065 234.664 428.249 235.008C428.441 235.344 428.701 235.604 429.029 235.788C429.365 235.972 429.741 236.064 430.157 236.064C430.517 236.064 430.845 235.988 431.141 235.836C431.437 235.684 431.685 235.456 431.885 235.152L432.761 235.704C432.513 236.144 432.161 236.484 431.705 236.724C431.257 236.956 430.745 237.072 430.169 237.072ZM434.17 228.096H435.322V237H434.17V228.096ZM443.45 230.64V237H442.358V236.04C442.126 236.368 441.818 236.624 441.434 236.808C441.058 236.984 440.646 237.072 440.198 237.072C439.35 237.072 438.682 236.84 438.194 236.376C437.706 235.904 437.462 235.212 437.462 234.3V230.64H438.614V234.168C438.614 234.784 438.762 235.252 439.058 235.572C439.354 235.884 439.778 236.04 440.33 236.04C440.938 236.04 441.418 235.856 441.77 235.488C442.122 235.12 442.298 234.6 442.298 233.928V230.64H443.45ZM451.643 228.096V237H450.539V235.992C450.283 236.344 449.959 236.612 449.567 236.796C449.175 236.98 448.743 237.072 448.271 237.072C447.655 237.072 447.103 236.936 446.615 236.664C446.127 236.392 445.743 236.012 445.463 235.524C445.191 235.028 445.055 234.46 445.055 233.82C445.055 233.18 445.191 232.616 445.463 232.128C445.743 231.64 446.127 231.26 446.615 230.988C447.103 230.716 447.655 230.58 448.271 230.58C448.727 230.58 449.147 230.668 449.531 230.844C449.915 231.012 450.235 231.264 450.491 231.6V228.096H451.643ZM448.367 236.064C448.767 236.064 449.131 235.972 449.459 235.788C449.787 235.596 450.043 235.332 450.227 234.996C450.411 234.652 450.503 234.26 450.503 233.82C450.503 233.38 450.411 232.992 450.227 232.656C450.043 232.312 449.787 232.048 449.459 231.864C449.131 231.68 448.767 231.588 448.367 231.588C447.959 231.588 447.591 231.68 447.263 231.864C446.943 232.048 446.687 232.312 446.495 232.656C446.311 232.992 446.219 233.38 446.219 233.82C446.219 234.26 446.311 234.652 446.495 234.996C446.687 235.332 446.943 235.596 447.263 235.788C447.591 235.972 447.959 236.064 448.367 236.064ZM459.57 233.856C459.57 233.944 459.562 234.06 459.546 234.204H454.386C454.458 234.764 454.702 235.216 455.118 235.56C455.542 235.896 456.066 236.064 456.69 236.064C457.45 236.064 458.062 235.808 458.526 235.296L459.162 236.04C458.874 236.376 458.514 236.632 458.082 236.808C457.658 236.984 457.182 237.072 456.654 237.072C455.982 237.072 455.386 236.936 454.866 236.664C454.346 236.384 453.942 235.996 453.654 235.5C453.374 235.004 453.234 234.444 453.234 233.82C453.234 233.204 453.37 232.648 453.642 232.152C453.922 231.656 454.302 231.272 454.782 231C455.27 230.72 455.818 230.58 456.426 230.58C457.034 230.58 457.574 230.72 458.046 231C458.526 231.272 458.898 231.656 459.162 232.152C459.434 232.648 459.57 233.216 459.57 233.856ZM456.426 231.552C455.874 231.552 455.41 231.72 455.034 232.056C454.666 232.392 454.45 232.832 454.386 233.376H458.466C458.402 232.84 458.182 232.404 457.806 232.068C457.438 231.724 456.978 231.552 456.426 231.552Z" fill="#465361"/>
</g>
</g>
</g>
</g>
<g id="top">
<path id="top bg" d="M5 15C5 9.47715 9.47715 5 15 5H515C520.523 5 525 9.47715 525 15V43H5V15Z" fill="#F6F8FB"/>
<g id="tabs">
<g id="Group 2153">
<g id="Group 2153_2">
<path id="Rectangle 478" d="M50.5999 26.0494C52.0885 21.5434 56.2991 18.5 61.0446 18.5H127.992C132.738 18.5 136.948 21.5434 138.437 26.0494L144.037 43H45L50.5999 26.0494Z" fill="#E5EAEF"/>
<path id="Feed Config" d="M59.5642 27.644V30.572H63.7762V31.604H59.5642V35H58.3642V26.6H64.2922V27.644H59.5642ZM71.3621 31.856C71.3621 31.944 71.3541 32.06 71.3381 32.204H66.1781C66.2501 32.764 66.4941 33.216 66.9101 33.56C67.3341 33.896 67.8581 34.064 68.4821 34.064C69.2421 34.064 69.8541 33.808 70.3181 33.296L70.9541 34.04C70.6661 34.376 70.3061 34.632 69.8741 34.808C69.4501 34.984 68.9741 35.072 68.4461 35.072C67.7741 35.072 67.1781 34.936 66.6581 34.664C66.1381 34.384 65.7341 33.996 65.4461 33.5C65.1661 33.004 65.0261 32.444 65.0261 31.82C65.0261 31.204 65.1621 30.648 65.4341 30.152C65.7141 29.656 66.0941 29.272 66.5741 29C67.0621 28.72 67.6101 28.58 68.2181 28.58C68.8261 28.58 69.3661 28.72 69.8381 29C70.3181 29.272 70.6901 29.656 70.9541 30.152C71.2261 30.648 71.3621 31.216 71.3621 31.856ZM68.2181 29.552C67.6661 29.552 67.2021 29.72 66.8261 30.056C66.4581 30.392 66.2421 30.832 66.1781 31.376H70.2581C70.1941 30.84 69.9741 30.404 69.5981 30.068C69.2301 29.724 68.7701 29.552 68.2181 29.552ZM78.7098 31.856C78.7098 31.944 78.7018 32.06 78.6858 32.204H73.5258C73.5978 32.764 73.8418 33.216 74.2578 33.56C74.6818 33.896 75.2058 34.064 75.8298 34.064C76.5898 34.064 77.2018 33.808 77.6658 33.296L78.3018 34.04C78.0138 34.376 77.6538 34.632 77.2218 34.808C76.7978 34.984 76.3218 35.072 75.7938 35.072C75.1218 35.072 74.5258 34.936 74.0058 34.664C73.4858 34.384 73.0818 33.996 72.7938 33.5C72.5138 33.004 72.3738 32.444 72.3738 31.82C72.3738 31.204 72.5098 30.648 72.7818 30.152C73.0618 29.656 73.4418 29.272 73.9218 29C74.4098 28.72 74.9578 28.58 75.5658 28.58C76.1738 28.58 76.7138 28.72 77.1858 29C77.6658 29.272 78.0378 29.656 78.3018 30.152C78.5738 30.648 78.7098 31.216 78.7098 31.856ZM75.5658 29.552C75.0138 29.552 74.5498 29.72 74.1738 30.056C73.8058 30.392 73.5898 30.832 73.5258 31.376H77.6058C77.5418 30.84 77.3218 30.404 76.9458 30.068C76.5778 29.724 76.1178 29.552 75.5658 29.552ZM86.3094 26.096V35H85.2054V33.992C84.9494 34.344 84.6254 34.612 84.2334 34.796C83.8414 34.98 83.4094 35.072 82.9374 35.072C82.3214 35.072 81.7694 34.936 81.2814 34.664C80.7934 34.392 80.4094 34.012 80.1294 33.524C79.8574 33.028 79.7214 32.46 79.7214 31.82C79.7214 31.18 79.8574 30.616 80.1294 30.128C80.4094 29.64 80.7934 29.26 81.2814 28.988C81.7694 28.716 82.3214 28.58 82.9374 28.58C83.3934 28.58 83.8134 28.668 84.1974 28.844C84.5814 29.012 84.9014 29.264 85.1574 29.6V26.096H86.3094ZM83.0334 34.064C83.4334 34.064 83.7974 33.972 84.1254 33.788C84.4534 33.596 84.7094 33.332 84.8934 32.996C85.0774 32.652 85.1694 32.26 85.1694 31.82C85.1694 31.38 85.0774 30.992 84.8934 30.656C84.7094 30.312 84.4534 30.048 84.1254 29.864C83.7974 29.68 83.4334 29.588 83.0334 29.588C82.6254 29.588 82.2574 29.68 81.9294 29.864C81.6094 30.048 81.3534 30.312 81.1614 30.656C80.9774 30.992 80.8854 31.38 80.8854 31.82C80.8854 32.26 80.9774 32.652 81.1614 32.996C81.3534 33.332 81.6094 33.596 81.9294 33.788C82.2574 33.972 82.6254 34.064 83.0334 34.064ZM95.6358 35.096C94.7958 35.096 94.0358 34.912 93.3558 34.544C92.6838 34.168 92.1558 33.656 91.7718 33.008C91.3878 32.352 91.1958 31.616 91.1958 30.8C91.1958 29.984 91.3878 29.252 91.7718 28.604C92.1558 27.948 92.6878 27.436 93.3678 27.068C94.0478 26.692 94.8078 26.504 95.6478 26.504C96.3038 26.504 96.9038 26.616 97.4478 26.84C97.9918 27.056 98.4558 27.38 98.8398 27.812L98.0598 28.568C97.4278 27.904 96.6398 27.572 95.6958 27.572C95.0718 27.572 94.5078 27.712 94.0038 27.992C93.4998 28.272 93.1038 28.66 92.8158 29.156C92.5358 29.644 92.3958 30.192 92.3958 30.8C92.3958 31.408 92.5358 31.96 92.8158 32.456C93.1038 32.944 93.4998 33.328 94.0038 33.608C94.5078 33.888 95.0718 34.028 95.6958 34.028C96.6318 34.028 97.4198 33.692 98.0598 33.02L98.8398 33.776C98.4558 34.208 97.9878 34.536 97.4358 34.76C96.8918 34.984 96.2918 35.096 95.6358 35.096ZM102.838 35.072C102.206 35.072 101.638 34.932 101.134 34.652C100.63 34.372 100.234 33.988 99.9461 33.5C99.6661 33.004 99.5261 32.444 99.5261 31.82C99.5261 31.196 99.6661 30.64 99.9461 30.152C100.234 29.656 100.63 29.272 101.134 29C101.638 28.72 102.206 28.58 102.838 28.58C103.47 28.58 104.034 28.72 104.53 29C105.034 29.272 105.426 29.656 105.706 30.152C105.994 30.64 106.138 31.196 106.138 31.82C106.138 32.444 105.994 33.004 105.706 33.5C105.426 33.988 105.034 34.372 104.53 34.652C104.034 34.932 103.47 35.072 102.838 35.072ZM102.838 34.064C103.246 34.064 103.61 33.972 103.93 33.788C104.258 33.596 104.514 33.332 104.698 32.996C104.882 32.652 104.974 32.26 104.974 31.82C104.974 31.38 104.882 30.992 104.698 30.656C104.514 30.312 104.258 30.048 103.93 29.864C103.61 29.68 103.246 29.588 102.838 29.588C102.43 29.588 102.062 29.68 101.734 29.864C101.414 30.048 101.158 30.312 100.966 30.656C100.782 30.992 100.69 31.38 100.69 31.82C100.69 32.26 100.782 32.652 100.966 32.996C101.158 33.332 101.414 33.596 101.734 33.788C102.062 33.972 102.43 34.064 102.838 34.064ZM111.127 28.58C111.935 28.58 112.575 28.816 113.047 29.288C113.527 29.752 113.767 30.436 113.767 31.34V35H112.615V31.472C112.615 30.856 112.467 30.392 112.171 30.08C111.875 29.768 111.451 29.612 110.899 29.612C110.275 29.612 109.783 29.796 109.423 30.164C109.063 30.524 108.883 31.044 108.883 31.724V35H107.731V28.64H108.835V29.6C109.067 29.272 109.379 29.02 109.771 28.844C110.171 28.668 110.623 28.58 111.127 28.58ZM118.227 26.972C117.539 26.972 117.195 27.344 117.195 28.088V28.64H119.043V29.588H117.219V35H116.067V29.588H114.987V28.64H116.067V28.076C116.067 27.444 116.251 26.944 116.619 26.576C116.987 26.208 117.503 26.024 118.167 26.024C118.423 26.024 118.663 26.056 118.887 26.12C119.111 26.184 119.303 26.276 119.463 26.396L119.115 27.272C118.851 27.072 118.555 26.972 118.227 26.972ZM121.095 28.64H122.247V35H121.095V28.64ZM121.671 27.416C121.447 27.416 121.259 27.344 121.107 27.2C120.963 27.056 120.891 26.88 120.891 26.672C120.891 26.464 120.963 26.288 121.107 26.144C121.259 25.992 121.447 25.916 121.671 25.916C121.895 25.916 122.079 25.988 122.223 26.132C122.375 26.268 122.451 26.44 122.451 26.648C122.451 26.864 122.375 27.048 122.223 27.2C122.079 27.344 121.895 27.416 121.671 27.416ZM130.526 28.64V34.136C130.526 35.248 130.25 36.068 129.698 36.596C129.146 37.132 128.322 37.4 127.226 37.4C126.626 37.4 126.054 37.316 125.51 37.148C124.966 36.988 124.526 36.756 124.19 36.452L124.742 35.564C125.038 35.82 125.402 36.02 125.834 36.164C126.274 36.316 126.726 36.392 127.19 36.392C127.934 36.392 128.482 36.216 128.834 35.864C129.194 35.512 129.374 34.976 129.374 34.256V33.752C129.102 34.08 128.766 34.328 128.366 34.496C127.974 34.656 127.546 34.736 127.082 34.736C126.474 34.736 125.922 34.608 125.426 34.352C124.938 34.088 124.554 33.724 124.274 33.26C123.994 32.788 123.854 32.252 123.854 31.652C123.854 31.052 123.994 30.52 124.274 30.056C124.554 29.584 124.938 29.22 125.426 28.964C125.922 28.708 126.474 28.58 127.082 28.58C127.562 28.58 128.006 28.668 128.414 28.844C128.83 29.02 129.17 29.28 129.434 29.624V28.64H130.526ZM127.214 33.728C127.63 33.728 128.002 33.64 128.33 33.464C128.666 33.288 128.926 33.044 129.11 32.732C129.302 32.412 129.398 32.052 129.398 31.652C129.398 31.036 129.194 30.54 128.786 30.164C128.378 29.78 127.854 29.588 127.214 29.588C126.566 29.588 126.038 29.78 125.63 30.164C125.222 30.54 125.018 31.036 125.018 31.652C125.018 32.052 125.11 32.412 125.294 32.732C125.486 33.044 125.746 33.288 126.074 33.464C126.41 33.64 126.79 33.728 127.214 33.728Z" fill="#465361"/>
</g>
</g>
<g id="Group 2151">
<g id="Group 2153_3">
<path id="Rectangle 478_2" d="M149.635 26.0494C151.124 21.5434 155.334 18.5 160.08 18.5H224.026C228.772 18.5 232.982 21.5434 234.471 26.0494L240.071 43H144.035L149.635 26.0494Z" fill="#E5EAEF"/>
<path id="Rectangle 476" d="M150.835 27.4532C152.353 22.9964 156.539 20 161.247 20H222.865C227.574 20 231.76 22.9964 233.278 27.4532L238.574 43H145.539L150.835 27.4532Z" fill="white"/>
</g>
<path id="Filter" d="M178.824 28.144V31.072H183.036V32.104H178.824V35.5H177.624V27.1H183.552V28.144H178.824ZM184.956 29.14H186.108V35.5H184.956V29.14ZM185.532 27.916C185.308 27.916 185.12 27.844 184.968 27.7C184.824 27.556 184.752 27.38 184.752 27.172C184.752 26.964 184.824 26.788 184.968 26.644C185.12 26.492 185.308 26.416 185.532 26.416C185.756 26.416 185.94 26.488 186.084 26.632C186.236 26.768 186.312 26.94 186.312 27.148C186.312 27.364 186.236 27.548 186.084 27.7C185.94 27.844 185.756 27.916 185.532 27.916ZM188.307 26.596H189.459V35.5H188.307V26.596ZM195.387 35.128C195.219 35.272 195.011 35.384 194.763 35.464C194.515 35.536 194.259 35.572 193.995 35.572C193.355 35.572 192.859 35.4 192.507 35.056C192.155 34.712 191.979 34.22 191.979 33.58V30.088H190.899V29.14H191.979V27.748H193.131V29.14H194.955V30.088H193.131V33.532C193.131 33.876 193.215 34.14 193.383 34.324C193.559 34.508 193.807 34.6 194.127 34.6C194.479 34.6 194.779 34.5 195.027 34.3L195.387 35.128ZM202.317 32.356C202.317 32.444 202.309 32.56 202.293 32.704H197.133C197.205 33.264 197.449 33.716 197.865 34.06C198.289 34.396 198.813 34.564 199.437 34.564C200.197 34.564 200.809 34.308 201.273 33.796L201.909 34.54C201.621 34.876 201.261 35.132 200.829 35.308C200.405 35.484 199.929 35.572 199.401 35.572C198.729 35.572 198.133 35.436 197.613 35.164C197.093 34.884 196.689 34.496 196.401 34C196.121 33.504 195.981 32.944 195.981 32.32C195.981 31.704 196.117 31.148 196.389 30.652C196.669 30.156 197.049 29.772 197.529 29.5C198.017 29.22 198.565 29.08 199.173 29.08C199.781 29.08 200.321 29.22 200.793 29.5C201.273 29.772 201.645 30.156 201.909 30.652C202.181 31.148 202.317 31.716 202.317 32.356ZM199.173 30.052C198.621 30.052 198.157 30.22 197.781 30.556C197.413 30.892 197.197 31.332 197.133 31.876H201.213C201.149 31.34 200.929 30.904 200.553 30.568C200.185 30.224 199.725 30.052 199.173 30.052ZM205.02 30.208C205.22 29.84 205.516 29.56 205.908 29.368C206.3 29.176 206.776 29.08 207.336 29.08V30.196C207.272 30.188 207.184 30.184 207.072 30.184C206.448 30.184 205.956 30.372 205.596 30.748C205.244 31.116 205.068 31.644 205.068 32.332V35.5H203.916V29.14H205.02V30.208Z" fill="#465361"/>
</g>
<g id="Group 2154">
<g id="Group 2153_4">
<path id="Rectangle 478_3" d="M245.524 26.0494C247.012 21.5434 251.223 18.5 255.968 18.5H343.924C348.669 18.5 352.88 21.5434 354.368 26.0494L359.968 43H239.924L245.524 26.0494Z" fill="#E5EAEF"/>
<path id="Advanced Filter" d="M258.567 32.9H254.103L253.179 35H251.943L255.747 26.6H256.935L260.751 35H259.491L258.567 32.9ZM258.147 31.94L256.335 27.824L254.523 31.94H258.147ZM267.778 26.096V35H266.674V33.992C266.418 34.344 266.094 34.612 265.702 34.796C265.31 34.98 264.878 35.072 264.406 35.072C263.79 35.072 263.238 34.936 262.75 34.664C262.262 34.392 261.878 34.012 261.598 33.524C261.326 33.028 261.19 32.46 261.19 31.82C261.19 31.18 261.326 30.616 261.598 30.128C261.878 29.64 262.262 29.26 262.75 28.988C263.238 28.716 263.79 28.58 264.406 28.58C264.862 28.58 265.282 28.668 265.666 28.844C266.05 29.012 266.37 29.264 266.626 29.6V26.096H267.778ZM264.502 34.064C264.902 34.064 265.266 33.972 265.594 33.788C265.922 33.596 266.178 33.332 266.362 32.996C266.546 32.652 266.638 32.26 266.638 31.82C266.638 31.38 266.546 30.992 266.362 30.656C266.178 30.312 265.922 30.048 265.594 29.864C265.266 29.68 264.902 29.588 264.502 29.588C264.094 29.588 263.726 29.68 263.398 29.864C263.078 30.048 262.822 30.312 262.63 30.656C262.446 30.992 262.354 31.38 262.354 31.82C262.354 32.26 262.446 32.652 262.63 32.996C262.822 33.332 263.078 33.596 263.398 33.788C263.726 33.972 264.094 34.064 264.502 34.064ZM275.585 28.64L272.801 35H271.625L268.841 28.64H270.041L272.225 33.74L274.457 28.64H275.585ZM278.777 28.58C279.657 28.58 280.329 28.796 280.793 29.228C281.265 29.66 281.501 30.304 281.501 31.16V35H280.409V34.16C280.217 34.456 279.941 34.684 279.581 34.844C279.229 34.996 278.809 35.072 278.321 35.072C277.609 35.072 277.037 34.9 276.605 34.556C276.181 34.212 275.969 33.76 275.969 33.2C275.969 32.64 276.173 32.192 276.581 31.856C276.989 31.512 277.637 31.34 278.525 31.34H280.349V31.112C280.349 30.616 280.205 30.236 279.917 29.972C279.629 29.708 279.205 29.576 278.645 29.576C278.269 29.576 277.901 29.64 277.541 29.768C277.181 29.888 276.877 30.052 276.629 30.26L276.149 29.396C276.477 29.132 276.869 28.932 277.325 28.796C277.781 28.652 278.265 28.58 278.777 28.58ZM278.513 34.184C278.953 34.184 279.333 34.088 279.653 33.896C279.973 33.696 280.205 33.416 280.349 33.056V32.168H278.573C277.597 32.168 277.109 32.496 277.109 33.152C277.109 33.472 277.233 33.724 277.481 33.908C277.729 34.092 278.073 34.184 278.513 34.184ZM287.029 28.58C287.837 28.58 288.477 28.816 288.949 29.288C289.429 29.752 289.669 30.436 289.669 31.34V35H288.517V31.472C288.517 30.856 288.369 30.392 288.073 30.08C287.777 29.768 287.353 29.612 286.801 29.612C286.177 29.612 285.685 29.796 285.325 30.164C284.965 30.524 284.785 31.044 284.785 31.724V35H283.633V28.64H284.737V29.6C284.969 29.272 285.281 29.02 285.673 28.844C286.073 28.668 286.525 28.58 287.029 28.58ZM294.608 35.072C293.96 35.072 293.38 34.932 292.868 34.652C292.364 34.372 291.968 33.988 291.68 33.5C291.392 33.004 291.248 32.444 291.248 31.82C291.248 31.196 291.392 30.64 291.68 30.152C291.968 29.656 292.364 29.272 292.868 29C293.38 28.72 293.96 28.58 294.608 28.58C295.184 28.58 295.696 28.696 296.144 28.928C296.6 29.16 296.952 29.496 297.2 29.936L296.324 30.5C296.124 30.196 295.876 29.968 295.58 29.816C295.284 29.664 294.956 29.588 294.596 29.588C294.18 29.588 293.804 29.68 293.468 29.864C293.14 30.048 292.88 30.312 292.688 30.656C292.504 30.992 292.412 31.38 292.412 31.82C292.412 32.268 292.504 32.664 292.688 33.008C292.88 33.344 293.14 33.604 293.468 33.788C293.804 33.972 294.18 34.064 294.596 34.064C294.956 34.064 295.284 33.988 295.58 33.836C295.876 33.684 296.124 33.456 296.324 33.152L297.2 33.704C296.952 34.144 296.6 34.484 296.144 34.724C295.696 34.956 295.184 35.072 294.608 35.072ZM304.346 31.856C304.346 31.944 304.338 32.06 304.322 32.204H299.162C299.234 32.764 299.478 33.216 299.894 33.56C300.318 33.896 300.842 34.064 301.466 34.064C302.226 34.064 302.838 33.808 303.302 33.296L303.938 34.04C303.65 34.376 303.29 34.632 302.858 34.808C302.434 34.984 301.958 35.072 301.43 35.072C300.758 35.072 300.162 34.936 299.642 34.664C299.122 34.384 298.718 33.996 298.43 33.5C298.15 33.004 298.01 32.444 298.01 31.82C298.01 31.204 298.146 30.648 298.418 30.152C298.698 29.656 299.078 29.272 299.558 29C300.046 28.72 300.594 28.58 301.202 28.58C301.81 28.58 302.35 28.72 302.822 29C303.302 29.272 303.674 29.656 303.938 30.152C304.21 30.648 304.346 31.216 304.346 31.856ZM301.202 29.552C300.65 29.552 300.186 29.72 299.81 30.056C299.442 30.392 299.226 30.832 299.162 31.376H303.242C303.178 30.84 302.958 30.404 302.582 30.068C302.214 29.724 301.754 29.552 301.202 29.552ZM311.946 26.096V35H310.842V33.992C310.586 34.344 310.262 34.612 309.87 34.796C309.478 34.98 309.046 35.072 308.574 35.072C307.958 35.072 307.406 34.936 306.918 34.664C306.43 34.392 306.046 34.012 305.766 33.524C305.494 33.028 305.358 32.46 305.358 31.82C305.358 31.18 305.494 30.616 305.766 30.128C306.046 29.64 306.43 29.26 306.918 28.988C307.406 28.716 307.958 28.58 308.574 28.58C309.03 28.58 309.45 28.668 309.834 28.844C310.218 29.012 310.538 29.264 310.794 29.6V26.096H311.946ZM308.67 34.064C309.07 34.064 309.434 33.972 309.762 33.788C310.09 33.596 310.346 33.332 310.53 32.996C310.714 32.652 310.806 32.26 310.806 31.82C310.806 31.38 310.714 30.992 310.53 30.656C310.346 30.312 310.09 30.048 309.762 29.864C309.434 29.68 309.07 29.588 308.67 29.588C308.262 29.588 307.894 29.68 307.566 29.864C307.246 30.048 306.99 30.312 306.798 30.656C306.614 30.992 306.522 31.38 306.522 31.82C306.522 32.26 306.614 32.652 306.798 32.996C306.99 33.332 307.246 33.596 307.566 33.788C307.894 33.972 308.262 34.064 308.67 34.064ZM318.716 27.644V30.572H322.928V31.604H318.716V35H317.516V26.6H323.444V27.644H318.716ZM324.848 28.64H326V35H324.848V28.64ZM325.424 27.416C325.2 27.416 325.012 27.344 324.86 27.2C324.716 27.056 324.644 26.88 324.644 26.672C324.644 26.464 324.716 26.288 324.86 26.144C325.012 25.992 325.2 25.916 325.424 25.916C325.648 25.916 325.832 25.988 325.976 26.132C326.128 26.268 326.204 26.44 326.204 26.648C326.204 26.864 326.128 27.048 325.976 27.2C325.832 27.344 325.648 27.416 325.424 27.416ZM328.2 26.096H329.352V35H328.2V26.096ZM335.28 34.628C335.112 34.772 334.904 34.884 334.656 34.964C334.408 35.036 334.152 35.072 333.888 35.072C333.248 35.072 332.752 34.9 332.4 34.556C332.048 34.212 331.872 33.72 331.872 33.08V29.588H330.792V28.64H331.872V27.248H333.024V28.64H334.848V29.588H333.024V33.032C333.024 33.376 333.108 33.64 333.276 33.824C333.452 34.008 333.7 34.1 334.02 34.1C334.372 34.1 334.672 34 334.92 33.8L335.28 34.628ZM342.209 31.856C342.209 31.944 342.201 32.06 342.185 32.204H337.025C337.097 32.764 337.341 33.216 337.757 33.56C338.181 33.896 338.705 34.064 339.329 34.064C340.089 34.064 340.701 33.808 341.165 33.296L341.801 34.04C341.513 34.376 341.153 34.632 340.721 34.808C340.297 34.984 339.821 35.072 339.293 35.072C338.621 35.072 338.025 34.936 337.505 34.664C336.985 34.384 336.581 33.996 336.293 33.5C336.013 33.004 335.873 32.444 335.873 31.82C335.873 31.204 336.009 30.648 336.281 30.152C336.561 29.656 336.941 29.272 337.421 29C337.909 28.72 338.457 28.58 339.065 28.58C339.673 28.58 340.213 28.72 340.685 29C341.165 29.272 341.537 29.656 341.801 30.152C342.073 30.648 342.209 31.216 342.209 31.856ZM339.065 29.552C338.513 29.552 338.049 29.72 337.673 30.056C337.305 30.392 337.089 30.832 337.025 31.376H341.105C341.041 30.84 340.821 30.404 340.445 30.068C340.077 29.724 339.617 29.552 339.065 29.552ZM344.913 29.708C345.113 29.34 345.409 29.06 345.801 28.868C346.193 28.676 346.669 28.58 347.229 28.58V29.696C347.165 29.688 347.077 29.684 346.965 29.684C346.341 29.684 345.849 29.872 345.489 30.248C345.137 30.616 344.961 31.144 344.961 31.832V35H343.809V28.64H344.913V29.708Z" fill="#465361"/>
</g>
</g>
<g id="Group 2155">
<g id="Group 2153_5">
<path id="Rectangle 478_4" d="M365.569 26.0494C367.057 21.5434 371.268 18.5 376.013 18.5H427.956C432.702 18.5 436.912 21.5434 438.401 26.0494L444.001 43H359.969L365.569 26.0494Z" fill="#E5EAEF"/>
<path id="FTP/SFTP" d="M379.372 28.87V31.31H382.882V32.17H379.372V35H378.372V28H383.312V28.87H379.372ZM386.158 28.87H383.758V28H389.548V28.87H387.148V35H386.158V28.87ZM393.367 28C394.274 28 394.987 28.2167 395.507 28.65C396.027 29.0833 396.287 29.68 396.287 30.44C396.287 31.2 396.027 31.7967 395.507 32.23C394.987 32.6633 394.274 32.88 393.367 32.88H391.637V35H390.637V28H393.367ZM393.337 32.01C393.971 32.01 394.454 31.8767 394.787 31.61C395.121 31.3367 395.287 30.9467 395.287 30.44C395.287 29.9333 395.121 29.5467 394.787 29.28C394.454 29.0067 393.971 28.87 393.337 28.87H391.637V32.01H393.337ZM399.356 26.58H400.226L396.926 36H396.056L399.356 26.58ZM402.746 35.08C402.219 35.08 401.709 35 401.216 34.84C400.729 34.6733 400.346 34.46 400.066 34.2L400.436 33.42C400.703 33.66 401.043 33.8567 401.456 34.01C401.876 34.1567 402.306 34.23 402.746 34.23C403.326 34.23 403.759 34.1333 404.046 33.94C404.333 33.74 404.476 33.4767 404.476 33.15C404.476 32.91 404.396 32.7167 404.236 32.57C404.083 32.4167 403.889 32.3 403.656 32.22C403.429 32.14 403.106 32.05 402.686 31.95C402.159 31.8233 401.733 31.6967 401.406 31.57C401.086 31.4433 400.809 31.25 400.576 30.99C400.349 30.7233 400.236 30.3667 400.236 29.92C400.236 29.5467 400.333 29.21 400.526 28.91C400.726 28.61 401.026 28.37 401.426 28.19C401.826 28.01 402.323 27.92 402.916 27.92C403.329 27.92 403.736 27.9733 404.136 28.08C404.536 28.1867 404.879 28.34 405.166 28.54L404.836 29.34C404.543 29.1533 404.229 29.0133 403.896 28.92C403.563 28.82 403.236 28.77 402.916 28.77C402.349 28.77 401.923 28.8733 401.636 29.08C401.356 29.2867 401.216 29.5533 401.216 29.88C401.216 30.12 401.296 30.3167 401.456 30.47C401.616 30.6167 401.813 30.7333 402.046 30.82C402.286 30.9 402.609 30.9867 403.016 31.08C403.543 31.2067 403.966 31.3333 404.286 31.46C404.606 31.5867 404.879 31.78 405.106 32.04C405.339 32.3 405.456 32.65 405.456 33.09C405.456 33.4567 405.356 33.7933 405.156 34.1C404.956 34.4 404.653 34.64 404.246 34.82C403.839 34.9933 403.339 35.08 402.746 35.08ZM407.917 28.87V31.31H411.427V32.17H407.917V35H406.917V28H411.857V28.87H407.917ZM414.703 28.87H412.303V28H418.093V28.87H415.693V35H414.703V28.87ZM421.912 28C422.819 28 423.532 28.2167 424.052 28.65C424.572 29.0833 424.832 29.68 424.832 30.44C424.832 31.2 424.572 31.7967 424.052 32.23C423.532 32.6633 422.819 32.88 421.912 32.88H420.182V35H419.182V28H421.912ZM421.882 32.01C422.516 32.01 422.999 31.8767 423.332 31.61C423.666 31.3367 423.832 30.9467 423.832 30.44C423.832 29.9333 423.666 29.5467 423.332 29.28C422.999 29.0067 422.516 28.87 421.882 28.87H420.182V32.01H421.882Z" fill="#465361"/>
</g>
</g>
</g>
</g>
</g>
</g>
<defs>
<filter id="filter0_d" x="0" y="0" width="530" height="309" filterUnits="userSpaceOnUse" color-interpolation-filters="sRGB">
<feFlood flood-opacity="0" result="BackgroundImageFix"/>
<feColorMatrix in="SourceAlpha" type="matrix" values="0 0 0 0 0 0 0 0 0 0 0 0 0 0 0 0 0 0 127 0"/>
<feOffset/>
<feGaussianBlur stdDeviation="2.5"/>
<feColorMatrix type="matrix" values="0 0 0 0 0 0 0 0 0 0.447059 0 0 0 0 0.815686 0 0 0 0.1 0"/>
<feBlend mode="normal" in2="BackgroundImageFix" result="effect1_dropShadow"/>
<feBlend mode="normal" in="SourceGraphic" in2="effect1_dropShadow" result="shape"/>
</filter>
</defs>
</svg>
