<?xml version="1.0" encoding="utf-8"?>
<!-- Generator: Adobe Illustrator 23.0.3, SVG Export Plug-In . SVG Version: 6.00 Build 0)  -->
<svg version="1.1" id="Layer_1" xmlns="http://www.w3.org/2000/svg" x="0px" y="0px"
     viewBox="0 0 128 128" style="enable-background:new 0 0 128 128;" xml:space="preserve">
<style type="text/css">
	.st0{fill:#FFFFFF;}
	.st1{fill:#464D56;}
	.st2{fill:#59C1E8;}
</style>
<rect x="-0.1" class="st0" width="128" height="128"/>
<g>
	<g>
		<g>
			<path class="st1" d="M20.5,115.2c-2.8,0-4.9-0.8-6.3-2.3c-1.5-1.5-2.2-3.7-2.2-6.6c0-1.4,0.2-2.7,0.7-3.8c0.4-1.1,1-2,1.8-2.8
				s1.7-1.3,2.8-1.7c1.1-0.4,2.2-0.6,3.5-0.6c0.7,0,1.4,0.1,2,0.2s1.1,0.2,1.6,0.4c0.4,0.1,0.8,0.3,1.1,0.4c0.3,0.1,0.5,0.3,0.6,0.3
				l-1.1,3.1c-0.5-0.3-1.1-0.5-1.8-0.7c-0.7-0.2-1.5-0.3-2.4-0.3c-0.6,0-1.2,0.1-1.7,0.3c-0.6,0.2-1.1,0.5-1.5,0.9s-0.8,1-1,1.7
				c-0.3,0.7-0.4,1.5-0.4,2.5c0,0.8,0.1,1.5,0.3,2.2c0.2,0.7,0.5,1.3,0.8,1.8c0.4,0.5,0.9,0.9,1.5,1.2c0.6,0.3,1.4,0.4,2.3,0.4
				c0.6,0,1.1,0,1.5-0.1s0.8-0.1,1.2-0.2c0.3-0.1,0.6-0.2,0.9-0.3c0.3-0.1,0.5-0.2,0.7-0.3l1.1,3.1c-0.5,0.3-1.3,0.6-2.3,0.9
				C23,115.1,21.8,115.2,20.5,115.2z"/>
			<path class="st1" d="M41.9,97.8v3.3h-5.1v13.8H33v-13.8h-5.1v-3.3H41.9z"/>
			<path class="st1" d="M54.8,114.9c-0.5-1-1-1.9-1.6-2.9s-1.2-1.8-2-2.5c-0.2,0.3-0.5,0.6-0.9,1.1s-0.7,0.9-1.1,1.4
				c-0.4,0.5-0.7,1-1,1.6c-0.3,0.5-0.5,1-0.7,1.3h-4.4c0.7-1.3,1.6-2.7,2.5-4.1c1-1.4,2.1-2.9,3.3-4.5l-5.6-8.4H48l3.3,4.9l3.3-4.9
				H59l-5.5,8.2c1.5,1.8,2.6,3.5,3.6,5s1.7,2.8,2.2,3.8H54.8z"/>
			<path class="st2" d="M61.6,114.9V97.8H73v3.2h-7.6v3.6h6.7v3.2h-6.7v7h-3.8V114.9z"/>
			<path class="st2" d="M74.6,108.5c0-1.1,0.2-2.2,0.5-3c0.4-0.9,0.8-1.6,1.4-2.2s1.2-1,2-1.3c0.7-0.3,1.5-0.4,2.3-0.4
				c1.8,0,3.3,0.6,4.4,1.7s1.6,2.8,1.6,5c0,0.2,0,0.4,0,0.7c0,0.3,0,0.5,0,0.7h-8.3c0.1,0.8,0.4,1.4,1.1,1.8
				c0.6,0.4,1.5,0.7,2.5,0.7c0.7,0,1.3-0.1,2-0.2s1.2-0.3,1.6-0.5l0.5,3c-0.2,0.1-0.5,0.2-0.8,0.3c-0.3,0.1-0.7,0.2-1.1,0.3
				c-0.4,0.1-0.8,0.1-1.3,0.2c-0.5,0-0.9,0.1-1.4,0.1c-1.2,0-2.2-0.2-3-0.5c-0.9-0.3-1.6-0.8-2.1-1.4c-0.6-0.6-1-1.3-1.3-2.1
				S74.6,109.5,74.6,108.5z M83.2,107.1c0-0.3-0.1-0.6-0.2-0.9s-0.2-0.6-0.4-0.8c-0.2-0.2-0.4-0.4-0.7-0.6c-0.3-0.1-0.6-0.2-1.1-0.2
				c-0.4,0-0.8,0.1-1.1,0.2c-0.3,0.1-0.5,0.3-0.7,0.6c-0.2,0.2-0.3,0.5-0.5,0.8c-0.1,0.3-0.2,0.6-0.2,0.9H83.2z"/>
			<path class="st2" d="M89,108.5c0-1.1,0.2-2.2,0.5-3c0.4-0.9,0.8-1.6,1.4-2.2s1.2-1,2-1.3c0.7-0.3,1.5-0.4,2.3-0.4
				c1.8,0,3.3,0.6,4.4,1.7s1.6,2.8,1.6,5c0,0.2,0,0.4,0,0.7c0,0.3,0,0.5,0,0.7h-8.3c0.1,0.8,0.4,1.4,1.1,1.8
				c0.6,0.4,1.5,0.7,2.5,0.7c0.7,0,1.3-0.1,2-0.2s1.2-0.3,1.6-0.5l0.5,3c-0.2,0.1-0.5,0.2-0.8,0.3c-0.3,0.1-0.7,0.2-1.1,0.3
				c-0.4,0.1-0.8,0.1-1.3,0.2c-0.5,0-0.9,0.1-1.4,0.1c-1.2,0-2.2-0.2-3-0.5c-0.9-0.3-1.6-0.8-2.1-1.4c-0.6-0.6-1-1.3-1.3-2.1
				S89,109.5,89,108.5z M97.6,107.1c0-0.3-0.1-0.6-0.2-0.9s-0.2-0.6-0.4-0.8c-0.2-0.2-0.4-0.4-0.7-0.6c-0.3-0.1-0.6-0.2-1.1-0.2
				c-0.4,0-0.8,0.1-1.1,0.2c-0.3,0.1-0.5,0.3-0.7,0.6c-0.2,0.2-0.3,0.5-0.5,0.8c-0.1,0.3-0.2,0.6-0.2,0.9H97.6z"/>
			<path class="st2" d="M115.4,114.5c-0.3,0.1-0.7,0.2-1.1,0.3c-0.4,0.1-0.9,0.2-1.3,0.2c-0.5,0.1-0.9,0.1-1.4,0.2
				c-0.5,0-0.9,0.1-1.4,0.1c-1.1,0-2-0.2-2.9-0.5s-1.5-0.8-2.1-1.3c-0.6-0.6-1-1.3-1.3-2.1c-0.3-0.8-0.5-1.8-0.5-2.8s0.1-2,0.4-2.8
				s0.6-1.6,1.1-2.2s1.1-1,1.8-1.4s1.5-0.5,2.4-0.5c0.5,0,1,0,1.4,0.1s0.8,0.2,1.2,0.4v-5.9l3.7-0.6
				C115.4,95.7,115.4,114.5,115.4,114.5z M107.1,108.3c0,1.1,0.3,2,0.8,2.7s1.3,1,2.3,1c0.3,0,0.6,0,0.9,0s0.5-0.1,0.7-0.1v-6.7
				c-0.2-0.1-0.5-0.3-0.9-0.4s-0.7-0.1-1.1-0.1C108,104.8,107.1,106,107.1,108.3z"/>
		</g>
	</g>
	<g>
		<path class="st2" d="M41.2,12.1h40.3c2.4,0,4.7,0.9,6.3,2.6c1.7,1.7,2.6,4,2.6,6.3v53.8c0,1.5-0.6,3-1.7,4.1s-2.5,1.7-4.1,1.7
			H42.8C41.4,80.6,40,80,39,79s-1.6-2.4-1.6-3.8V15.8c0-1,0.4-1.9,1.1-2.6C39.3,12.5,40.2,12.1,41.2,12.1L41.2,12.1z"/>
		<path class="st0" d="M90.5,24.2h-6.3c-1.7,0-3.3-0.7-4.5-1.9c-1.2-1.2-1.9-2.8-1.9-4.5v-6.3c3.3,0,6.6,1.3,8.9,3.7
			C89.1,17.6,90.5,20.8,90.5,24.2L90.5,24.2z"/>
		<path class="st0" d="M71.5,22.3H56.4c-0.5,0-0.9,0.3-1.2,0.6c-0.3,0.3-0.5,0.8-0.5,1.3s0.2,0.9,0.5,1.3c0.3,0.3,0.7,0.6,1.2,0.6
			h15.2c0.5,0,0.9-0.3,1.2-0.6c0.3-0.3,0.5-0.8,0.5-1.3s-0.2-0.9-0.5-1.3C72.4,22.5,72,22.3,71.5,22.3z M68.3,57.2H50.1
			c-0.5,0-1,0.2-1.3,0.6c-0.4,0.4-0.6,0.8-0.6,1.3s0.2,1,0.6,1.3c0.4,0.4,0.8,0.6,1.3,0.6h18.2c0.5,0,1-0.2,1.3-0.6
			c0.4-0.4,0.6-0.8,0.6-1.3s-0.2-1-0.6-1.3C69.3,57.4,68.8,57.2,68.3,57.2z M77.8,49.3H50.1c-0.5,0-0.9,0.3-1.2,0.6
			s-0.5,0.8-0.5,1.3s0.2,0.9,0.5,1.3c0.3,0.3,0.7,0.6,1.2,0.6h27.8c0.5,0,0.9-0.3,1.2-0.6c0.3-0.3,0.5-0.8,0.5-1.3s-0.2-0.9-0.5-1.3
			C78.7,49.6,78.3,49.3,77.8,49.3L77.8,49.3z M77.8,41.2H50.1c-0.5,0-0.9,0.3-1.2,0.6s-0.5,0.8-0.5,1.3s0.2,0.9,0.5,1.3
			c0.3,0.3,0.7,0.6,1.2,0.6h27.8c0.5,0,0.9-0.3,1.2-0.6c0.3-0.4,0.5-0.8,0.5-1.3s-0.2-0.9-0.5-1.3C78.7,41.5,78.3,41.3,77.8,41.2
			L77.8,41.2z"/>
		<path class="st1" d="M84.2,26h6.3c0.4,0,0.7-0.1,1-0.3c0.3-0.2,0.6-0.5,0.7-0.8c0.1-0.2,0.2-0.5,0.2-0.8V24
			c-0.1-3-1.1-5.9-2.9-8.4v-0.1l-0.3-0.4c-0.3-0.3-0.6-0.7-0.9-1c-1.3-1.4-2.9-2.4-4.7-3.2C81.8,10.2,80,9.8,78,9.8H43.7
			c-2.2,0-4.2,0.9-5.8,2.4c-1.5,1.5-2.4,3.6-2.4,5.8v56.8c0,4.6,3.7,8.2,6.9,8.2h40.3c5.5,0,9.5-3.5,9.5-8.2v-22V32.4
			c0-0.2,0-0.5-0.1-0.7s-0.2-0.4-0.4-0.6c-0.2-0.2-0.4-0.3-0.6-0.4s-0.5-0.1-0.7-0.1l0,0c-0.2,0-0.5,0-0.7,0.1s-0.4,0.2-0.6,0.4
			c-0.2,0.2-0.3,0.4-0.4,0.6s-0.1,0.5-0.1,0.7v20.5v21.8c0,2.6-2.3,4.4-5.7,4.4H42.5c-0.9-0.3-1.7-0.9-2.3-1.7
			c-0.6-0.8-0.9-1.8-0.8-2.7V17.8c0-0.6,0.1-1.2,0.3-1.7s0.5-1,1-1.4c0.4-0.4,0.9-0.7,1.4-1c0.5-0.2,1.1-0.3,1.7-0.3H76v4.4
			c0,1.1,0.2,2.1,0.6,3.1s1,1.9,1.8,2.7c0.8,0.8,1.7,1.4,2.7,1.8C82,25.8,83.1,26,84.2,26L84.2,26z M84.2,22.2
			c-0.6,0-1.2-0.1-1.7-0.3c-0.5-0.2-1-0.5-1.4-1s-0.7-0.9-1-1.4c-0.2-0.5-0.3-1.1-0.3-1.7v-4.2c2.2,0.4,4.1,1.4,5.7,3
			c1.5,1.5,2.6,3.5,3,5.7L84.2,22.2z"/>
		<circle class="st0" cx="74.4" cy="58.8" r="2"/>
	</g>
</g>
</svg>
