<svg width="15" height="16" viewBox="0 0 15 16" fill="none" xmlns="http://www.w3.org/2000/svg">
<path d="M7.42591 16C6.95809 16.0005 6.50063 15.8595 6.11141 15.5949C5.72219 15.3302 5.41869 14.9538 5.23932 14.5133C5.05995 14.0727 5.01277 13.5879 5.10373 13.12C5.1947 12.6521 5.41973 12.2222 5.75035 11.8847C6.08098 11.5473 6.50234 11.3174 6.96114 11.2241C7.41994 11.1309 7.89556 11.1785 8.32782 11.3609C8.76008 11.5433 9.12956 11.8524 9.38952 12.249C9.64948 12.6455 9.78824 13.1118 9.78824 13.5888C9.78824 14.2279 9.53943 14.8408 9.09648 15.2929C8.65353 15.745 8.05267 15.9993 7.42591 16ZM7.42591 12.3794C7.19131 12.3794 6.96198 12.4503 6.76692 12.5832C6.57186 12.7161 6.41982 12.905 6.33005 13.126C6.24027 13.347 6.21678 13.5901 6.26255 13.8247C6.30832 14.0594 6.42129 14.2749 6.58717 14.444C6.75306 14.6131 6.96441 14.7283 7.19451 14.775C7.4246 14.8216 7.66309 14.7977 7.87984 14.7062C8.09658 14.6146 8.28183 14.4596 8.41217 14.2607C8.5425 14.0618 8.61207 13.828 8.61207 13.5888C8.61207 13.268 8.4871 12.9604 8.26465 12.7336C8.0422 12.5068 7.7405 12.3794 7.42591 12.3794Z" fill="white"/>
<path d="M13.7405 11.1381H2.52066L8.1368 1.23871L7.45008 0.0292969L0.480469 12.3373H14.4197L13.7405 11.1381Z" fill="white"/>
<path d="M12.5973 9.13591H6.27148L6.85619 7.93668H10.5596L8.12986 3.64644L8.12736 3.63881L8.8066 2.43958L12.5973 9.13591Z" fill="white"/>
<path d="M8.8586 4.71667L5.08111 11.3116H3.7168L8.17687 3.51489L8.8586 4.71667Z" fill="white"/>
</svg>
