<?xml version="1.0" encoding="UTF-8"?>
<svg width="155" height="37" viewBox="0 0 155 37" fill="none" xmlns="http://www.w3.org/2000/svg">
    <path d="M48.112 27V10.08H50.104V25.272H58.648V27H48.112ZM65.5581 27.216C64.4861 27.216 63.5501 26.968 62.7501 26.472C61.9501 25.96 61.3261 25.24 60.8781 24.312C60.4461 23.384 60.2301 22.272 60.2301 20.976C60.2301 19.664 60.4461 18.544 60.8781 17.616C61.3261 16.688 61.9501 15.976 62.7501 15.48C63.5501 14.984 64.4861 14.736 65.5581 14.736C66.6461 14.736 67.5821 15.016 68.3661 15.576C69.1661 16.12 69.6941 16.864 69.9501 17.808H69.6621L69.9261 14.952H71.7981C71.7501 15.416 71.7021 15.888 71.6541 16.368C71.6221 16.832 71.6061 17.288 71.6061 17.736V27H69.6621V24.168H69.9261C69.6701 25.112 69.1421 25.856 68.3421 26.4C67.5421 26.944 66.6141 27.216 65.5581 27.216ZM65.9421 25.632C67.0941 25.632 68.0061 25.24 68.6781 24.456C69.3501 23.656 69.6861 22.496 69.6861 20.976C69.6861 19.44 69.3501 18.28 68.6781 17.496C68.0061 16.696 67.0941 16.296 65.9421 16.296C64.8061 16.296 63.8941 16.696 63.2061 17.496C62.5341 18.28 62.1981 19.44 62.1981 20.976C62.1981 22.496 62.5341 23.656 63.2061 24.456C63.8941 25.24 64.8061 25.632 65.9421 25.632ZM75.3168 27V17.856C75.3168 17.376 75.3008 16.888 75.2688 16.392C75.2528 15.896 75.2208 15.416 75.1728 14.952H77.0448L77.2848 17.88L76.9488 17.904C77.1088 17.184 77.3888 16.592 77.7888 16.128C78.1888 15.664 78.6608 15.32 79.2048 15.096C79.7488 14.856 80.3168 14.736 80.9088 14.736C81.1488 14.736 81.3568 14.744 81.5328 14.76C81.7248 14.776 81.9008 14.816 82.0608 14.88L82.0368 16.608C81.7968 16.528 81.5728 16.48 81.3648 16.464C81.1728 16.432 80.9488 16.416 80.6928 16.416C79.9888 16.416 79.3728 16.584 78.8448 16.92C78.3328 17.256 77.9408 17.688 77.6688 18.216C77.4128 18.744 77.2848 19.304 77.2848 19.896V27H75.3168ZM88.5503 27.216C87.4783 27.216 86.5423 26.968 85.7423 26.472C84.9423 25.96 84.3183 25.24 83.8703 24.312C83.4383 23.384 83.2223 22.272 83.2223 20.976C83.2223 19.664 83.4383 18.544 83.8703 17.616C84.3183 16.688 84.9423 15.976 85.7423 15.48C86.5423 14.984 87.4783 14.736 88.5503 14.736C89.6383 14.736 90.5743 15.016 91.3583 15.576C92.1583 16.12 92.6863 16.864 92.9423 17.808H92.6543L92.9183 14.952H94.7903C94.7423 15.416 94.6943 15.888 94.6463 16.368C94.6143 16.832 94.5983 17.288 94.5983 17.736V27H92.6543V24.168H92.9183C92.6623 25.112 92.1343 25.856 91.3343 26.4C90.5343 26.944 89.6063 27.216 88.5503 27.216ZM88.9343 25.632C90.0863 25.632 90.9983 25.24 91.6703 24.456C92.3423 23.656 92.6783 22.496 92.6783 20.976C92.6783 19.44 92.3423 18.28 91.6703 17.496C90.9983 16.696 90.0863 16.296 88.9343 16.296C87.7983 16.296 86.8863 16.696 86.1983 17.496C85.5263 18.28 85.1903 19.44 85.1903 20.976C85.1903 22.496 85.5263 23.656 86.1983 24.456C86.8863 25.24 87.7983 25.632 88.9343 25.632ZM98.3329 27V10.08H105.845C107.701 10.08 109.117 10.528 110.093 11.424C111.069 12.32 111.557 13.552 111.557 15.12C111.557 16.672 111.069 17.904 110.093 18.816C109.117 19.728 107.701 20.184 105.845 20.184H101.429V27H98.3329ZM101.429 17.736H105.485C106.509 17.736 107.277 17.512 107.789 17.064C108.301 16.6 108.557 15.952 108.557 15.12C108.557 14.288 108.301 13.648 107.789 13.2C107.277 12.736 106.509 12.504 105.485 12.504H101.429V17.736ZM118.258 27.24C116.77 27.24 115.658 26.832 114.922 26.016C114.186 25.2 113.818 23.952 113.818 22.272V14.88H116.818V22.248C116.818 23.144 117.002 23.808 117.37 24.24C117.738 24.656 118.298 24.864 119.05 24.864C119.898 24.864 120.586 24.576 121.114 24C121.658 23.424 121.93 22.664 121.93 21.72V14.88H124.93V27H122.002V24.528H122.338C121.986 25.392 121.45 26.064 120.73 26.544C120.026 27.008 119.202 27.24 118.258 27.24ZM132.507 27.24C131.467 27.24 130.507 27.12 129.627 26.88C128.763 26.624 128.035 26.272 127.443 25.824L128.283 23.808C128.891 24.224 129.563 24.544 130.299 24.768C131.035 24.992 131.779 25.104 132.531 25.104C133.331 25.104 133.923 24.968 134.307 24.696C134.707 24.424 134.907 24.056 134.907 23.592C134.907 23.224 134.779 22.936 134.523 22.728C134.283 22.504 133.891 22.336 133.347 22.224L130.947 21.768C129.923 21.544 129.139 21.16 128.595 20.616C128.067 20.072 127.803 19.36 127.803 18.48C127.803 17.728 128.003 17.064 128.403 16.488C128.819 15.912 129.403 15.464 130.155 15.144C130.923 14.808 131.819 14.64 132.843 14.64C133.739 14.64 134.579 14.76 135.363 15C136.163 15.24 136.835 15.6 137.379 16.08L136.515 18.024C136.019 17.624 135.451 17.312 134.811 17.088C134.171 16.864 133.547 16.752 132.939 16.752C132.107 16.752 131.499 16.904 131.115 17.208C130.731 17.496 130.539 17.872 130.539 18.336C130.539 18.688 130.651 18.984 130.875 19.224C131.115 19.448 131.483 19.616 131.979 19.728L134.379 20.184C135.451 20.392 136.259 20.76 136.803 21.288C137.363 21.8 137.643 22.504 137.643 23.4C137.643 24.2 137.427 24.888 136.995 25.464C136.563 26.04 135.963 26.48 135.195 26.784C134.427 27.088 133.531 27.24 132.507 27.24ZM140.21 27V9.33597H143.21V17.304H142.874C143.242 16.44 143.81 15.784 144.578 15.336C145.346 14.872 146.226 14.64 147.218 14.64C148.658 14.64 149.73 15.048 150.434 15.864C151.138 16.664 151.49 17.888 151.49 19.536V27H148.49V19.68C148.49 18.736 148.306 18.056 147.938 17.64C147.586 17.208 147.018 16.992 146.234 16.992C145.322 16.992 144.586 17.28 144.026 17.856C143.482 18.416 143.21 19.168 143.21 20.112V27H140.21Z" fill="black"/>
    <path d="M18.5002 36.6358C17.4171 36.6369 16.358 36.3168 15.4569 35.7159C14.5558 35.115 13.8532 34.2604 13.4379 33.2601C13.0227 32.2598 12.9134 31.1588 13.124 30.0964C13.3346 29.034 13.8556 28.0579 14.621 27.2917C15.3865 26.5254 16.362 26.0034 17.4242 25.7917C18.4863 25.58 19.5874 25.6881 20.5882 26.1023C21.5889 26.5165 22.4443 27.2182 23.0461 28.1187C23.648 29.0191 23.9692 30.0779 23.9692 31.1609C23.9692 32.612 23.3932 34.0036 22.3677 35.0302C21.3422 36.0568 19.9512 36.6343 18.5002 36.6358V36.6358ZM18.5002 28.4148C17.957 28.4148 17.4261 28.5759 16.9745 28.8776C16.5229 29.1794 16.1709 29.6083 15.9631 30.1101C15.7553 30.6118 15.7009 31.164 15.8068 31.6967C15.9128 32.2294 16.1743 32.7187 16.5584 33.1027C16.9424 33.4868 17.4317 33.7483 17.9644 33.8543C18.4971 33.9602 19.0493 33.9058 19.551 33.698C20.0528 33.4902 20.4817 33.1382 20.7835 32.6866C21.0852 32.235 21.2463 31.7041 21.2463 31.1609C21.2463 30.4326 20.9569 29.7342 20.4419 29.2192C19.9269 28.7042 19.2285 28.4148 18.5002 28.4148V28.4148Z" fill="#0067F5"/>
    <path d="M33.0627 25.5936H7.08754L18.4997 5.82171L18.5113 5.84484L20.0896 3.11609L18.4997 0.369995L2.36426 28.3166H34.6352L33.0627 25.5936Z" fill="#0067F5"/>
    <path d="M30.4387 21.0495H16.0723L17.639 18.3266H25.7212L24.6574 16.4881L21.6743 11.3139L20.096 8.58516L20.0902 8.56782L21.6627 5.84485L27.8082 16.4881L29.3807 19.2111L30.4387 21.0495Z" fill="#0067F5"/>
    <path d="M17.6386 18.3266L16.0718 21.0495H15.6787V18.3266H17.6386Z" fill="#0067F5"/>
    <path d="M21.6743 11.3139L17.639 18.3266L16.0723 21.0495L13.3667 25.848H10.2217L20.0961 8.58515L21.6743 11.3139Z" fill="#0067F5"/>
</svg>