<svg id="math_plugin-svg-math-icon" data-name="math plugin-svg-math-icon" xmlns="http://www.w3.org/2000/svg" viewBox="0 0 256 256"><defs><style>.cls-1{fill:#404040;}</style></defs><title>iconМонтажная область 1</title><path class="cls-1" d="M108.56,90.74,94.47,146.36q-9.87,39.37-19.26,57.07t-22,26.19A50.34,50.34,0,0,1,24.4,238.1q-10.23,0-15-3.91T4.53,225a11.18,11.18,0,0,1,4-8.55q4-3.61,10.47-3.61,5.42,0,8.31,2.77a9.27,9.27,0,0,1,2.89,7q0,3.85-1.8,5.72t-1.8,2.47l.6.84a2.54,2.54,0,0,0,1.68.6A8.83,8.83,0,0,0,35,229.91a34.9,34.9,0,0,0,9.51-13.73q2.17-5.54,8.31-29.25L77.37,90.74H60.63l4-14.09q9,.12,13.12-2.29T86.4,63.53q13.24-24.44,27.93-35A54.69,54.69,0,0,1,147.08,17.9q11.56,0,16.8,4.45a14.46,14.46,0,0,1,5.24,11.56q0,6.26-3.49,9.93a11.47,11.47,0,0,1-8.67,3.67,11,11,0,0,1-7.95-3,9.66,9.66,0,0,1-3.13-7.22,12.66,12.66,0,0,1,2-6.38c1.32-2.24,2-3.77,2-4.57a2.82,2.82,0,0,0-.9-2.17,3.31,3.31,0,0,0-2.35-.84q-7.1,0-14.57,8.79Q119.74,46.2,112.27,76.66h17.46l-4.21,14.09h-17Z"/><path class="cls-1" d="M137.33,80.5l42-7.22a120.63,120.63,0,0,1,16.13,39.49q11.8-17.46,17.82-24.44,8.07-9.39,13.3-12.22a23.13,23.13,0,0,1,11.14-2.83q6.62,0,10.17,3.61t3.55,9.75a13,13,0,0,1-3.55,9.45,11.8,11.8,0,0,1-8.85,3.67,33.52,33.52,0,0,1-8.85-1.38A31.47,31.47,0,0,0,223.3,97a15.32,15.32,0,0,0-9.63,3.61q-6.26,4.94-15.41,21.07,10.23,36.12,16.37,44.07,3.61,4.7,7.34,4.7a9.35,9.35,0,0,0,5.42-1.57q3.49-2.53,10.71-12.64l4.34,2.53q-10.6,17.09-20.71,24.08-7.71,5.42-15.17,5.42-7.71,0-12.82-3.43t-9.09-11.2q-4-7.77-9.39-24.86Q161.17,166.7,153.17,175t-13.3,10.77a26,26,0,0,1-11.32,2.53q-6.26,0-9.93-3.61a12.59,12.59,0,0,1-3.67-9.39A13.6,13.6,0,0,1,129,161.17a17.53,17.53,0,0,1,7.34,1.93q6,2.89,8.67,2.89a13.3,13.3,0,0,0,6.26-1.45q3.61-1.81,9.15-7.82,3.37-3.73,12.4-15.89Q161.29,98,154.79,89.54a12.48,12.48,0,0,0-10.36-5.42,40.76,40.76,0,0,0-7.95,1Z"/></svg>