<svg id="Layer_1" data-name="Layer 1" xmlns="http://www.w3.org/2000/svg" xmlns:xlink="http://www.w3.org/1999/xlink" viewBox="0 0 800 800"><defs><style>.cls-1{fill:url(#linear-gradient);}.cls-2{opacity:0.07;}.cls-3{fill:#fff;}.cls-4{opacity:0.2;}.cls-5{fill:#01949a;}</style><linearGradient id="linear-gradient" x1="398.05" y1="5.6" x2="402.01" y2="807.6" gradientTransform="matrix(1, 0, 0, -1, 0, 800)" gradientUnits="userSpaceOnUse"><stop offset="0" stop-color="#01949a"/><stop offset="0.52" stop-color="#01b0a3"/><stop offset="1" stop-color="#00cdac"/></linearGradient></defs><title>Info Box</title><g id="Info_Box" data-name="Info Box"><rect id="bg" class="cls-1" width="800" height="800"/><rect class="cls-2" x="226.73" y="211.8" width="331.53" height="396.82" rx="5.4"/><rect class="cls-3" x="234.23" y="202.8" width="331.53" height="396.82" rx="5.4"/><rect class="cls-4" x="326.68" y="239.25" width="148.02" height="131.34" rx="5.55"/><rect class="cls-4" x="337.58" y="396.03" width="131.33" height="30.19" rx="5"/><rect class="cls-4" x="289.07" y="441.02" width="228.35" height="13.2" rx="3.27"/><rect class="cls-4" x="289.07" y="465.98" width="228.35" height="13.2" rx="3.27"/><rect class="cls-4" x="302.89" y="489.25" width="200.72" height="13.2" rx="3.27"/><polygon class="cls-3" points="339.57 338.25 383.48 271.59 417.94 338.25 339.57 338.25"/><polygon class="cls-3" points="406.22 304.92 423.6 338.25 461.82 338.25 421.39 285.81 406.22 304.92"/><circle class="cls-3" cx="412.77" cy="266.19" r="8.32"/><rect class="cls-5" x="350.4" y="527.89" width="111.65" height="35.27" rx="8.86"/></g></svg>