<?xml version="1.0" encoding="utf-8"?>
<!-- Generator: Adobe Illustrator 26.5.0, SVG Export Plug-In . SVG Version: 6.00 Build 0)  -->
<svg version="1.1" id="Layer_2_00000146482012524497519230000014624627256359974844_"
	 xmlns="http://www.w3.org/2000/svg" xmlns:xlink="http://www.w3.org/1999/xlink" x="0px" y="0px" viewBox="0 0 79 68.4"
	 style="enable-background:new 0 0 79 68.4;" xml:space="preserve">
<g>
	<g>
		<path d="M55.1,18.5H26.8c-1.5,0-2.7-1.2-2.7-2.7v0c0-1.5,1.2-2.7,2.7-2.7h28.3c1.5,0,2.7,1.2,2.7,2.7v0
			C57.8,17.3,56.6,18.5,55.1,18.5z"/>
		<path d="M55.1,31.9H26.8c-1.5,0-2.7-1.2-2.7-2.7v0c0-1.5,1.2-2.7,2.7-2.7h28.3c1.5,0,2.7,1.2,2.7,2.7v0
			C57.8,30.7,56.6,31.9,55.1,31.9z"/>
		<path d="M43.5,45.3H26.8c-1.5,0-2.7-1.2-2.7-2.7v0c0-1.5,1.2-2.7,2.7-2.7h16.8c1.5,0,2.7,1.2,2.7,2.7v0
			C46.2,44.1,45,45.3,43.5,45.3z"/>
	</g>
	<g>
		<path d="M67.5,29.9c0.4-0.3,0.8-0.6,1.2-0.8v-22c0-3.1-2.5-5.7-5.7-5.7H18.9c-3.1,0-5.7,2.5-5.7,5.7v55c0,3.1,2.5,5.7,5.7,5.7H63
			c3.1,0,5.7-2.5,5.7-5.7v-9.7c-1,0.9-2,1.8-3,2.7v7c0,1.5-1.2,2.7-2.7,2.7H18.9c-1.5,0-2.7-1.2-2.7-2.7v-55c0-1.5,1.2-2.7,2.7-2.7
			H63c1.5,0,2.7,1.2,2.7,2.7v24.4C66.2,31,66.9,30.5,67.5,29.9z"/>
	</g>
	<path d="M77.1,39c-0.1,1.4-0.8,2.7-2.1,3.9c-5,4.4-9.9,8.8-14.8,13.2c-2.1,1.9-4.3,3.8-6.4,5.8c-0.5,0.5-1.1,0.7-1.8,0.7
		c-2.3,0.1-4.6,0.2-6.9,0.3c-0.8,0-1.4-0.6-1.3-1.4c0.4-2.4,0.9-4.8,1.3-7.2c0.1-0.4,0.2-0.6,0.5-0.9c7.3-6.5,14.5-13,21.8-19.4
		c1.8-1.6,4.3-1.9,6.5-0.8C76,34.1,77.3,36.4,77.1,39z M46.7,60.5c1.5-0.1,2.9-0.1,4.4-0.2c0.5,0,0.9,0,1.4-0.3
		c5.5-4.9,11-9.8,16.5-14.7c0.3-0.3,0.3-0.5,0-0.8c-1.4-1.6-2.8-3.1-4.2-4.7c-0.2-0.3-0.4-0.2-0.6,0c-5.5,5-11.1,9.9-16.6,14.9
		c-0.2,0.2-0.3,0.3-0.3,0.6c-0.3,1.6-0.6,3.3-0.9,4.9C46.3,60.4,46.4,60.5,46.7,60.5z M74.9,38.3c0-1.3-0.6-2.5-1.9-3.2
		c-1.4-0.7-2.7-0.6-3.9,0.4c-0.8,0.7-1.6,1.4-2.4,2.1c-0.4,0.3-0.3,0.5,0,0.8c1.4,1.5,2.8,3.1,4.1,4.7c0.2,0.3,0.4,0.2,0.6,0
		c0.8-0.7,1.6-1.5,2.5-2.2C74.5,40.3,74.9,39.5,74.9,38.3z"/>
</g>
</svg>
