<svg width="25" height="24" viewBox="0 0 25 24" fill="none" xmlns="http://www.w3.org/2000/svg">
<path d="M10.9708 0H13.0302C13.6713 0.0792593 14.3101 0.171181 14.938 0.328762C21.1789 1.89331 25.0978 8.18763 23.7536 14.4876C22.402 20.8227 16.2615 24.9395 9.86309 23.8013C5.3364 22.996 1.61965 19.5902 0.409654 15.146C0.218775 14.4449 0.106217 13.7316 0.0175781 13.0126V10.9533C0.0841747 10.4913 0.124039 10.0251 0.232376 9.56975C1.34201 4.89813 4.19909 1.85298 8.77081 0.411773C9.48555 0.186658 10.2284 0.0886391 10.9713 0H10.9708ZM10.885 16.1816C11.2199 16.1966 11.4562 16.017 11.6781 15.7947C13.7613 13.7086 15.8465 11.6249 17.9302 9.53926C18.0127 9.45672 18.0967 9.3723 18.1614 9.27616C18.3692 8.96615 18.3968 8.63505 18.2242 8.30253C18.0531 7.97283 17.7787 7.79602 17.3988 7.78102C17.0672 7.76788 16.8192 7.91468 16.594 8.13979C14.7706 9.96698 12.9444 11.7918 11.1186 13.6171C10.9582 13.7775 10.7958 13.7758 10.6313 13.612C9.8645 12.8456 9.10286 12.0742 8.32855 11.3153C7.91303 10.9087 7.33054 10.9172 6.94644 11.3088C6.57312 11.6901 6.56937 12.2749 6.9652 12.6749C8.0345 13.756 9.11317 14.8285 10.19 15.9021C10.3799 16.0915 10.6097 16.1961 10.8845 16.1816H10.885Z" fill="#5B9AF8"/>
</svg>
