<svg width="19" height="19" viewBox="0 0 19 19" fill="none" xmlns="http://www.w3.org/2000/svg">
<path d="M4.25 0C4.80812 0 5.36077 0.10993 5.87641 0.323512C6.39204 0.537095 6.86056 0.850147 7.25521 1.2448C7.64986 1.63945 7.96291 2.10796 8.17649 2.6236C8.39007 3.13923 8.5 3.69188 8.5 4.25V8.5H4.25C3.12283 8.5 2.04183 8.05223 1.2448 7.2552C0.447768 6.45817 1.81719e-06 5.37717 1.81719e-06 4.25C1.81719e-06 3.12283 0.447768 2.04183 1.2448 1.2448C2.04183 0.447767 3.12283 0 4.25 0ZM6.5 6.5V4.25C6.5 3.80499 6.36804 3.36998 6.12081 2.99997C5.87358 2.62996 5.52217 2.34157 5.11104 2.17127C4.69991 2.00097 4.24751 1.95642 3.81105 2.04323C3.37459 2.13005 2.97368 2.34434 2.65901 2.65901C2.34434 2.97368 2.13005 3.37459 2.04323 3.81105C1.95642 4.2475 2.00098 4.6999 2.17127 5.11104C2.34157 5.52217 2.62996 5.87357 2.99997 6.12081C3.36998 6.36804 3.80499 6.5 4.25 6.5H6.5ZM4.25 10.5H8.5V14.75C8.5 15.5906 8.25074 16.4123 7.78375 17.1112C7.31675 17.8101 6.65299 18.3548 5.87641 18.6765C5.09982 18.9982 4.24529 19.0823 3.42087 18.9183C2.59645 18.7543 1.83917 18.3496 1.2448 17.7552C0.650425 17.1608 0.245652 16.4036 0.0816645 15.5791C-0.0823227 14.7547 0.00184146 13.9002 0.323514 13.1236C0.645186 12.347 1.18992 11.6833 1.88883 11.2163C2.58774 10.7493 3.40943 10.5 4.25 10.5ZM4.25 12.5C3.80499 12.5 3.36998 12.632 2.99997 12.8792C2.62996 13.1264 2.34157 13.4778 2.17127 13.889C2.00098 14.3001 1.95642 14.7525 2.04323 15.189C2.13005 15.6254 2.34434 16.0263 2.65901 16.341C2.97368 16.6557 3.37459 16.8699 3.81105 16.9568C4.24751 17.0436 4.69991 16.999 5.11104 16.8287C5.52217 16.6584 5.87358 16.37 6.12081 16C6.36804 15.63 6.5 15.195 6.5 14.75V12.5H4.25ZM14.75 0C15.8772 0 16.9582 0.447767 17.7552 1.2448C18.5522 2.04183 19 3.12283 19 4.25C19 5.37717 18.5522 6.45817 17.7552 7.2552C16.9582 8.05223 15.8772 8.5 14.75 8.5H10.5V4.25C10.5 3.12283 10.9478 2.04183 11.7448 1.2448C12.5418 0.447767 13.6228 0 14.75 0ZM14.75 6.5C15.195 6.5 15.63 6.36804 16 6.12081C16.37 5.87357 16.6584 5.52217 16.8287 5.11104C16.999 4.6999 17.0436 4.2475 16.9568 3.81105C16.87 3.37459 16.6557 2.97368 16.341 2.65901C16.0263 2.34434 15.6254 2.13005 15.189 2.04323C14.7525 1.95642 14.3001 2.00097 13.889 2.17127C13.4778 2.34157 13.1264 2.62996 12.8792 2.99997C12.632 3.36998 12.5 3.80499 12.5 4.25V6.5H14.75ZM10.5 10.5H14.75C15.5906 10.5 16.4123 10.7493 17.1112 11.2163C17.8101 11.6833 18.3548 12.347 18.6765 13.1236C18.9982 13.9002 19.0823 14.7547 18.9183 15.5791C18.7544 16.4036 18.3496 17.1608 17.7552 17.7552C17.1608 18.3496 16.4036 18.7543 15.5791 18.9183C14.7547 19.0823 13.9002 18.9982 13.1236 18.6765C12.347 18.3548 11.6833 17.8101 11.2163 17.1112C10.7493 16.4123 10.5 15.5906 10.5 14.75V10.5ZM12.5 12.5V14.75C12.5 15.195 12.632 15.63 12.8792 16C13.1264 16.37 13.4778 16.6584 13.889 16.8287C14.3001 16.999 14.7525 17.0436 15.189 16.9568C15.6254 16.8699 16.0263 16.6557 16.341 16.341C16.6557 16.0263 16.87 15.6254 16.9568 15.189C17.0436 14.7525 16.999 14.3001 16.8287 13.889C16.6584 13.4778 16.37 13.1264 16 12.8792C15.63 12.632 15.195 12.5 14.75 12.5H12.5Z" fill="#5B9BF8"/>
</svg>
