<svg width="17" height="17" viewBox="0 0 17 17" fill="none" xmlns="http://www.w3.org/2000/svg">
<path d="M13.2942 11.2374L12.0128 9.95605L13.2942 8.67475C13.6307 8.33816 13.8977 7.93857 14.0799 7.4988C14.2621 7.05903 14.3558 6.58769 14.3558 6.11168C14.3558 5.63568 14.2621 5.16433 14.0799 4.72456C13.8977 4.28479 13.6307 3.88521 13.2942 3.54862C12.9576 3.21203 12.558 2.94504 12.1182 2.76288C11.6784 2.58072 11.2071 2.48697 10.7311 2.48697C10.2551 2.48697 9.78374 2.58072 9.34397 2.76288C8.9042 2.94504 8.50461 3.21203 8.16803 3.54862L6.88672 4.82993L5.60542 3.54862L6.88672 2.26732C7.90915 1.26141 9.28764 0.70026 10.7219 0.7061C12.1562 0.71194 13.5301 1.2843 14.5443 2.2985C15.5585 3.3127 16.1308 4.68657 16.1367 6.12085C16.1425 7.55514 15.5814 8.93363 14.5755 9.95605L13.2942 11.2374ZM10.7306 13.8009L9.44933 15.0822C8.94598 15.5938 8.34632 16.0007 7.68492 16.2794C7.02353 16.5581 6.3135 16.7031 5.59579 16.706C4.87809 16.7089 4.1669 16.5697 3.50326 16.2964C2.83962 16.0231 2.23666 15.6211 1.72916 15.1136C1.22166 14.6061 0.819662 14.0032 0.546355 13.3395C0.273048 12.6759 0.133841 11.9647 0.136764 11.247C0.139686 10.5293 0.28468 9.81924 0.563383 9.15785C0.842085 8.49646 1.24898 7.89679 1.7606 7.39344L3.0419 6.11214L4.32321 7.39344L3.0419 8.67475C2.70532 9.01133 2.43832 9.41092 2.25616 9.85069C2.074 10.2905 1.98025 10.7618 1.98025 11.2378C1.98025 11.7138 2.074 12.1852 2.25616 12.6249C2.43832 13.0647 2.70532 13.4643 3.0419 13.8009C3.37849 14.1375 3.77807 14.4045 4.21784 14.5866C4.65762 14.7688 5.12896 14.8625 5.60496 14.8625C6.08097 14.8625 6.55231 14.7688 6.99208 14.5866C7.43186 14.4045 7.83144 14.1375 8.16803 13.8009L9.44933 12.5196L10.7306 13.8009ZM10.7306 4.82993L12.0128 6.11214L5.60542 12.5187L4.32321 11.2374L10.7306 4.83083V4.82993Z" fill="#5B9BF8"/>
</svg>
