<svg width="22" height="19" viewBox="0 0 22 19" fill="none" xmlns="http://www.w3.org/2000/svg">
<path d="M20.564 4.42346H21.564V14.4235H20.564V17.4235C20.564 17.6887 20.4586 17.943 20.2711 18.1306C20.0835 18.3181 19.8292 18.4235 19.564 18.4235H1.56396C1.29875 18.4235 1.04439 18.3181 0.856858 18.1306C0.669322 17.943 0.563965 17.6887 0.563965 17.4235V1.42346C0.563965 1.15825 0.669322 0.903891 0.856858 0.716355C1.04439 0.528819 1.29875 0.423462 1.56396 0.423462H19.564C19.8292 0.423462 20.0835 0.528819 20.2711 0.716355C20.4586 0.903891 20.564 1.15825 20.564 1.42346V4.42346ZM18.564 14.4235H12.564C11.2379 14.4235 9.96611 13.8967 9.02843 12.959C8.09075 12.0213 7.56396 10.7495 7.56396 9.42346C7.56396 8.09738 8.09075 6.82561 9.02843 5.88793C9.96611 4.95025 11.2379 4.42346 12.564 4.42346H18.564V2.42346H2.56396V16.4235H18.564V14.4235ZM19.564 12.4235V6.42346H12.564C11.7683 6.42346 11.0053 6.73953 10.4426 7.30214C9.88004 7.86475 9.56396 8.62781 9.56396 9.42346C9.56396 10.2191 9.88004 10.9822 10.4426 11.5448C11.0053 12.1074 11.7683 12.4235 12.564 12.4235H19.564ZM12.564 8.42346H15.564V10.4235H12.564V8.42346Z" fill="#5B9BF8"/>
</svg>
