<svg width="25" height="27" viewBox="0 0 25 27" fill="none" xmlns="http://www.w3.org/2000/svg">
<path d="M16.8838 0.228519C17.4499 0.227189 17.8974 0.666969 17.8988 1.25334L17.9001 2.25284C21.5729 2.5407 23.9991 5.04344 24.0031 8.88152L24.0176 20.1159C24.0228 24.3005 21.3939 26.8752 17.18 26.8818L6.88677 26.8952C2.69918 26.9005 0.0373424 24.2645 0.0320766 20.0679L0.017587 8.96548C0.0123301 5.10208 2.35296 2.606 6.02582 2.26883L6.0245 1.26933C6.02318 0.682961 6.45761 0.241848 7.03684 0.241848C7.61607 0.240516 8.0505 0.680295 8.05181 1.26667L8.05313 2.19953L15.8728 2.18887L15.8714 1.25601C15.8701 0.669634 16.3046 0.229854 16.8838 0.228519ZM17.4209 19.151H17.4077C16.8022 19.1657 16.3164 19.6735 16.3296 20.2865C16.3309 20.8995 16.8193 21.4046 17.4248 21.4179C18.0423 21.4166 18.5425 20.9088 18.5412 20.2825C18.5412 19.6561 18.0396 19.151 17.4209 19.151ZM6.57345 19.1524C5.96789 19.179 5.49397 19.6868 5.49529 20.2998C5.52294 20.9128 6.02318 21.3926 6.62874 21.3646C7.22246 21.3379 7.69506 20.8302 7.66741 20.2172C7.65425 19.6175 7.16585 19.151 6.57345 19.1524ZM11.9972 19.1457C11.3916 19.1737 10.919 19.6801 10.919 20.2931C10.9467 20.9062 11.4469 21.3846 12.0525 21.3579C12.6449 21.33 13.1188 20.8235 13.0911 20.2092C13.078 19.6108 12.5896 19.1444 11.9972 19.1457ZM6.56687 14.3548C5.96131 14.3814 5.48871 14.8892 5.49002 15.5022C5.51635 16.1152 6.01792 16.595 6.62348 16.567C7.21587 16.5404 7.68848 16.0326 7.66083 15.4196C7.64767 14.8199 7.16058 14.3534 6.56687 14.3548ZM11.9919 14.3081C11.3863 14.3348 10.9124 14.8425 10.9137 15.4556C10.9401 16.0686 11.4416 16.547 12.0472 16.5204C12.6396 16.4924 13.1122 15.986 13.0859 15.3729C13.0714 14.7732 12.5843 14.3068 11.9919 14.3081ZM17.4156 14.3148C16.8101 14.3281 16.3362 14.8212 16.3375 15.4342V15.4489C16.3506 16.0619 16.8509 16.527 17.4578 16.5137C18.0502 16.499 18.5228 15.9913 18.5096 15.3783C18.4819 14.7919 18.0067 14.3135 17.4156 14.3148ZM15.8754 4.24118L8.05576 4.25184L8.05708 5.32997C8.05708 5.90435 7.62397 6.35745 7.04474 6.35745C6.46551 6.35879 6.02976 5.90701 6.02976 5.33263L6.02845 4.30648C3.4614 4.56368 2.04096 6.07226 2.0449 8.96281L2.04623 9.37727L21.9771 9.35062V8.88419C21.9205 6.01896 20.4829 4.51571 17.9027 4.29182L17.904 5.31797C17.904 5.89102 17.4578 6.34546 16.8917 6.34546C16.3125 6.34679 15.8767 5.89368 15.8767 5.32064L15.8754 4.24118Z" fill="#5B9AF8"/>
</svg>
