<svg width="22" height="21" viewBox="0 0 22 21" fill="none" xmlns="http://www.w3.org/2000/svg">
<path d="M1.21281 12.5628C0.925156 11.2042 0.925156 9.80043 1.21281 8.44184C2.32307 8.57187 3.29329 8.20478 3.60937 7.44061C3.92644 6.67543 3.50134 5.73021 2.62314 5.03705C3.38035 3.87311 4.37287 2.8806 5.53681 2.12338C6.22897 3.00058 7.17519 3.42668 7.94036 3.10961C8.70554 2.79254 9.07262 1.82331 8.94159 0.713057C10.3002 0.4254 11.704 0.4254 13.0625 0.713057C12.9325 1.82331 13.2996 2.79354 14.0638 3.10961C14.829 3.42668 15.7742 3.00158 16.4673 2.12338C17.6313 2.8806 18.6238 3.87311 19.381 5.03705C18.5038 5.72921 18.0777 6.67543 18.3948 7.44061C18.7119 8.20578 19.6811 8.57287 20.7913 8.44184C21.079 9.80043 21.079 11.2042 20.7913 12.5628C19.6811 12.4328 18.7109 12.7998 18.3948 13.564C18.0777 14.3292 18.5028 15.2744 19.381 15.9676C18.6238 17.1315 17.6313 18.124 16.4673 18.8812C15.7752 18.004 14.829 17.5779 14.0638 17.895C13.2986 18.2121 12.9315 19.1813 13.0625 20.2916C11.704 20.5792 10.3002 20.5792 8.94159 20.2916C9.07162 19.1813 8.70454 18.2111 7.94036 17.895C7.17519 17.5779 6.22997 18.003 5.53681 18.8812C4.37287 18.124 3.38035 17.1315 2.62314 15.9676C3.50034 15.2754 3.92644 14.3292 3.60937 13.564C3.29229 12.7988 2.32307 12.4318 1.21281 12.5628ZM3.00022 10.7124C4.10048 11.0174 5.00769 11.7146 5.45779 12.7988C5.90689 13.8841 5.75786 15.0194 5.19573 16.0116C5.29175 16.1136 5.39078 16.2126 5.4928 16.3087C6.48603 15.7465 7.62029 15.5985 8.70554 16.0466C9.78979 16.4967 10.487 17.4039 10.792 18.5042C10.9321 18.5082 11.0721 18.5082 11.2121 18.5042C11.5172 17.4039 12.2143 16.4967 13.2986 16.0466C14.3838 15.5975 15.5191 15.7465 16.5113 16.3087C16.6134 16.2126 16.7124 16.1136 16.8084 16.0116C16.2463 15.0184 16.0982 13.8841 16.5463 12.7988C16.9965 11.7146 17.9037 11.0174 19.0039 10.7124C19.0079 10.5723 19.0079 10.4323 19.0039 10.2923C17.9037 9.9872 16.9965 9.29003 16.5463 8.20578C16.0972 7.12053 16.2463 5.98527 16.8084 4.99304C16.712 4.89142 16.613 4.79236 16.5113 4.69598C15.5181 5.2581 14.3838 5.40614 13.2986 4.95803C12.2143 4.50793 11.5172 3.60072 11.2121 2.50047C11.0721 2.49676 10.932 2.49676 10.792 2.50047C10.487 3.60072 9.78979 4.50793 8.70554 4.95803C7.62029 5.40714 6.48503 5.2581 5.4928 4.69598C5.39078 4.792 5.29175 4.89102 5.19573 4.99304C5.75786 5.98627 5.90589 7.12053 5.45779 8.20578C5.00769 9.29003 4.10048 9.9872 3.00022 10.2923C2.99622 10.4323 2.99622 10.5723 3.00022 10.7124ZM11.0021 13.503C10.2062 13.503 9.443 13.1869 8.88026 12.6241C8.31752 12.0614 8.00138 11.2981 8.00138 10.5023C8.00138 9.70648 8.31752 8.94324 8.88026 8.3805C9.443 7.81777 10.2062 7.50162 11.0021 7.50162C11.7979 7.50162 12.5611 7.81777 13.1239 8.3805C13.6866 8.94324 14.0028 9.70648 14.0028 10.5023C14.0028 11.2981 13.6866 12.0614 13.1239 12.6241C12.5611 13.1869 11.7979 13.503 11.0021 13.503ZM11.0021 11.5025C11.2673 11.5025 11.5218 11.3972 11.7093 11.2096C11.8969 11.022 12.0023 10.7676 12.0023 10.5023C12.0023 10.237 11.8969 9.98262 11.7093 9.79504C11.5218 9.60746 11.2673 9.50208 11.0021 9.50208C10.7368 9.50208 10.4824 9.60746 10.2948 9.79504C10.1072 9.98262 10.0018 10.237 10.0018 10.5023C10.0018 10.7676 10.1072 11.022 10.2948 11.2096C10.4824 11.3972 10.7368 11.5025 11.0021 11.5025Z" fill="#5B9BF8"/>
</svg>
