<svg width="25" height="25" viewBox="0 0 25 25" fill="none" xmlns="http://www.w3.org/2000/svg">
<path d="M5.05992 15.5088C5.05992 16.8965 3.92637 18.03 2.53875 18.03C1.15113 18.03 0.0175781 16.8965 0.0175781 15.5088C0.0175781 14.1212 1.15113 12.9877 2.53875 12.9877H5.05992V15.5088Z" fill="#5B9AF8"/>
<path d="M6.33008 15.5088C6.33008 14.1212 7.46363 12.9877 8.85125 12.9877C10.2389 12.9877 11.3724 14.1212 11.3724 15.5088V21.8215C11.3724 23.2092 10.2389 24.3427 8.85125 24.3427C7.46363 24.3427 6.33008 23.2092 6.33008 21.8215V15.5088Z" fill="#5B9AF8"/>
<path d="M8.85125 5.38511C7.46363 5.38511 6.33008 4.25156 6.33008 2.86394C6.33008 1.47632 7.46363 0.342773 8.85125 0.342773C10.2389 0.342773 11.3724 1.47632 11.3724 2.86394V5.38511H8.85125Z" fill="#5B9AF8"/>
<path d="M8.85144 6.65552C10.2391 6.65552 11.3726 7.78907 11.3726 9.17669C11.3726 10.5643 10.2391 11.6979 8.85144 11.6979H2.53875C1.15113 11.6979 0.0175781 10.5643 0.0175781 9.17669C0.0175781 7.78907 1.15113 6.65552 2.53875 6.65552H8.85144Z" fill="#5B9AF8"/>
<path d="M18.9751 9.17669C18.9751 7.78907 20.1086 6.65552 21.4963 6.65552C22.8839 6.65552 24.0174 7.78907 24.0174 9.17669C24.0174 10.5643 22.8839 11.6979 21.4963 11.6979H18.9751V9.17669Z" fill="#5B9AF8"/>
<path d="M17.7049 9.17664C17.7049 10.5643 16.5714 11.6978 15.1838 11.6978C13.7961 11.6978 12.6626 10.5643 12.6626 9.17664V2.86394C12.6626 1.47632 13.7961 0.342773 15.1838 0.342773C16.5714 0.342773 17.7049 1.47632 17.7049 2.86394V9.17664Z" fill="#5B9AF8"/>
<path d="M15.1838 19.3004C16.5714 19.3004 17.7049 20.434 17.7049 21.8216C17.7049 23.2092 16.5714 24.3428 15.1838 24.3428C13.7961 24.3428 12.6626 23.2092 12.6626 21.8216V19.3004H15.1838Z" fill="#5B9AF8"/>
<path d="M15.1838 18.03C13.7961 18.03 12.6626 16.8965 12.6626 15.5088C12.6626 14.1212 13.7961 12.9877 15.1838 12.9877H21.4965C22.8841 12.9877 24.0176 14.1212 24.0176 15.5088C24.0176 16.8965 22.8841 18.03 21.4965 18.03H15.1838Z" fill="#5B9AF8"/>
</svg>
