<svg width="24" height="25" viewBox="0 0 24 25" fill="none" xmlns="http://www.w3.org/2000/svg">
<path d="M13.4212 24.8852C12.485 24.8852 11.5488 24.8852 10.6125 24.8852C10.0485 24.8467 9.93478 24.5169 9.9423 24.0009C9.96956 22.1919 9.95452 20.382 9.94982 18.5721C9.94888 18.3926 10.0043 18.1999 9.87838 18.0308C9.6932 18.0402 9.61612 18.1943 9.51084 18.2986C8.15066 19.6528 6.78766 21.0041 5.44252 22.3724C5.16428 22.6562 4.95466 22.6665 4.65104 22.4222C3.88211 21.8029 3.19121 21.1103 2.55859 20.3519C2.26437 19.9986 2.24839 19.758 2.60089 19.4159C3.95543 18.1003 5.28083 16.7555 6.61094 15.4164C6.71998 15.3064 6.90798 15.2313 6.86662 14.9681C6.67956 14.9681 6.49532 14.9681 6.31107 14.9681C4.45363 14.9681 2.59713 14.9606 0.739694 14.9719C0.326094 14.9747 0.120234 14.8516 0.0741737 14.4024C-0.0245263 13.4354 -0.0292263 12.4741 0.0873337 11.5099C0.165354 10.8633 0.170994 10.8436 0.830874 10.8427C2.67233 10.8398 4.51379 10.8436 6.35526 10.838C6.53292 10.837 6.7275 10.8972 6.89294 10.76C6.85816 10.5664 6.69742 10.478 6.58086 10.3606C5.24887 9.02051 3.92065 7.67855 2.57081 6.35822C2.25403 6.04904 2.25685 5.8235 2.52757 5.49365C3.15549 4.73152 3.84733 4.04081 4.60967 3.41306C4.94338 3.13866 5.1671 3.15087 5.47354 3.46381C6.79424 4.81234 8.13656 6.14019 9.47512 7.47275C9.59074 7.58834 9.67722 7.75279 9.87368 7.77817C10.0043 7.60995 9.94794 7.41637 9.94794 7.23781C9.95358 5.36585 9.95922 3.49388 9.947 1.62097C9.94418 1.19997 10.0833 1.00826 10.526 0.964093C11.4933 0.867299 12.4568 0.846625 13.4203 0.963153C14.0651 1.04115 14.0774 1.06652 14.0783 1.7234C14.0811 3.56436 14.0774 5.40532 14.083 7.24627C14.0839 7.42294 14.0219 7.61841 14.1939 7.81576C14.3227 7.69547 14.4468 7.58458 14.5643 7.46711C15.8897 6.14395 17.2245 4.83113 18.5292 3.48824C18.8714 3.13584 19.1129 3.15275 19.4664 3.44689C20.2127 4.069 20.8914 4.75032 21.5099 5.50023C21.7863 5.83572 21.7656 6.05938 21.4545 6.36385C20.1056 7.68419 18.7774 9.02614 17.4454 10.3643C17.3307 10.4799 17.1643 10.5645 17.1408 10.7806C17.3166 10.8699 17.5046 10.837 17.6851 10.837C19.4955 10.8398 21.306 10.853 23.1155 10.8295C23.624 10.8229 23.9756 10.915 24 11.4977C24 12.4337 24 13.3696 24 14.3056C23.9756 14.8873 23.6259 14.9804 23.1164 14.9738C21.2928 14.9503 19.4683 14.9625 17.6447 14.9681C17.4736 14.9691 17.2781 14.9071 17.1042 15.0856C17.2358 15.2237 17.3495 15.3487 17.4689 15.4681C18.7915 16.7912 20.1037 18.1238 21.4441 19.4282C21.7797 19.7542 21.7722 19.9864 21.4893 20.3275C20.8707 21.0755 20.1911 21.755 19.4429 22.3733C19.1007 22.6562 18.8695 22.6627 18.5433 22.3282C17.2273 20.9778 15.884 19.6528 14.5474 18.323C14.4336 18.2093 14.3518 18.0373 14.1338 18.0289C14.052 18.2074 14.0811 18.3954 14.0811 18.5767C14.0792 20.3848 14.0633 22.1929 14.0905 24C14.098 24.5178 13.9843 24.8467 13.4212 24.8852ZM14.9882 12.8922C14.9365 12.1874 14.8576 11.4939 14.6583 10.8164C14.5699 10.5147 14.396 10.3474 14.0971 10.26C12.6984 9.8503 11.3044 9.8503 9.90752 10.2704C9.62458 10.3559 9.46384 10.5185 9.38018 10.8004C8.96282 12.1978 8.96282 13.5905 9.37454 14.9888C9.4629 15.2905 9.63586 15.4587 9.93572 15.5451C11.3344 15.9511 12.7285 15.9558 14.1253 15.5357C14.4092 15.4502 14.568 15.2867 14.6526 15.0048C14.8604 14.3131 14.9393 13.6046 14.9882 12.8922Z" fill="#5B9AF8"/>
</svg>
