<?xml version="1.0" encoding="UTF-8"?>
<svg width="114px" height="33px" viewBox="0 0 114 33" version="1.1" xmlns="http://www.w3.org/2000/svg" xmlns:xlink="http://www.w3.org/1999/xlink">
    <title>LeadChampionLogo</title>
    <defs>
        <path d="M7.16,12 L7.16,10.032 L2.488,10.032 L2.488,0.272 L0.28,0.272 L0.28,12 L7.16,12 Z M12.088,12.208 C13.752,12.208 15.16,11.376 15.736,9.984 L14.008,9.296 C13.656,9.984 13.048,10.432 12.088,10.432 C11.128,10.432 10.2,9.952 10.072,8.768 L16.056,8.768 L16.056,8.032 C16.056,5.488 14.488,3.824 12.12,3.824 C9.704,3.824 8.104,5.536 8.104,8.032 C8.104,10.544 9.736,12.208 12.088,12.208 Z M13.928,7.328 L10.104,7.328 C10.296,6.176 11,5.552 12.088,5.552 C13.112,5.552 13.848,6.128 13.928,7.328 Z M19.848,12.208 C20.984,12.208 21.8,11.744 22.2,11.184 C22.232,11.536 22.28,11.84 22.312,12 L24.328,12 C24.248,11.744 24.184,10.992 24.184,10.208 L24.184,7.168 C24.184,4.608 22.504,3.824 20.712,3.824 C19.224,3.824 17.928,4.352 17.176,5.76 L18.696,6.624 C19.064,5.904 19.656,5.504 20.584,5.504 C21.496,5.504 22.152,5.888 22.152,6.864 L22.152,7.136 L19.848,7.136 C18.104,7.136 16.968,8.032 16.968,9.632 C16.968,11.264 18.184,12.208 19.848,12.208 Z M20.408,10.64 C19.56,10.64 19.08,10.272 19.08,9.6 C19.08,8.976 19.512,8.56 20.344,8.56 L22.168,8.56 L22.168,8.72 C22.168,10.256 21.16,10.64 20.408,10.64 Z M29.496,12.208 C30.584,12.208 31.592,11.776 32.104,11.024 C32.136,11.408 32.168,11.744 32.232,12 L34.312,12 C34.216,11.728 34.152,10.464 34.152,9.952 L34.152,0.048 L32.072,0.048 L32.072,4.896 C31.512,4.16 30.488,3.824 29.544,3.824 C27.224,3.824 25.512,5.488 25.512,8.032 C25.512,10.8 27.224,12.208 29.496,12.208 Z M29.816,10.32 C28.552,10.32 27.624,9.424 27.624,8.016 C27.624,6.592 28.552,5.712 29.816,5.712 C31.096,5.712 32.008,6.592 32.008,8.016 C32.008,9.424 31.096,10.32 29.816,10.32 Z" id="path-1"></path>
        <path d="M5.544,27.928 C7.768,27.928 9.56,26.712 10.216,24.92 L9.512,24.616 C9,26.088 7.496,27.176 5.56,27.176 C2.904,27.176 1.064,25.144 1.064,22.072 C1.064,19 2.904,16.968 5.576,16.968 C7.576,16.968 9.032,18.088 9.56,19.8 L10.28,19.512 C9.672,17.592 7.976,16.2 5.56,16.2 C2.456,16.2 0.28,18.536 0.28,22.056 C0.28,25.576 2.472,27.928 5.544,27.928 Z M18.984,27.752 L18.984,23.224 C18.984,20.616 17.416,19.88 15.848,19.88 C14.6,19.88 13.576,20.488 13.096,21.4 L13.096,16.2 L12.36,16.2 L12.36,27.736 L13.096,27.736 L13.096,23.48 C13.096,21.832 14.2,20.552 15.768,20.552 C17.256,20.552 18.248,21.224 18.248,23.32 L18.248,27.752 L18.984,27.752 Z M23.704,27.944 C25.048,27.944 26.12,27.288 26.584,26.376 C26.6,26.952 26.648,27.448 26.728,27.752 L27.448,27.752 C27.368,27.48 27.32,26.808 27.32,26.36 L27.32,22.664 C27.32,20.68 26.008,19.88 24.344,19.88 C22.888,19.88 21.784,20.504 21.256,21.592 L21.848,21.96 C22.216,21.16 23,20.552 24.328,20.552 C25.576,20.552 26.584,21.08 26.584,22.776 L26.584,23.144 L23.736,23.144 C22.008,23.144 20.904,24.136 20.904,25.576 C20.904,26.984 21.976,27.944 23.704,27.944 Z M23.736,27.288 C22.52,27.288 21.64,26.728 21.64,25.576 C21.64,24.472 22.44,23.816 23.848,23.816 L26.584,23.816 L26.584,24.088 C26.584,25.896 25.672,27.288 23.736,27.288 Z M30.584,27.752 L30.584,22.808 C30.584,21.656 31.384,20.52 32.84,20.52 C34.12,20.52 34.92,21.384 34.92,22.792 L34.92,27.752 L35.64,27.752 L35.64,22.824 C35.64,21.672 36.44,20.536 37.896,20.536 C39.176,20.536 39.976,21.4 39.976,22.808 L39.976,27.752 L40.68,27.752 L40.68,22.712 C40.68,20.92 39.544,19.88 37.96,19.88 C36.76,19.88 35.752,20.472 35.352,21.432 C34.984,20.472 34.072,19.88 32.904,19.88 C31.912,19.88 31.016,20.296 30.568,21.048 L30.52,20.072 L29.848,20.072 L29.848,27.752 L30.584,27.752 Z M43.912,31 L43.912,26.168 C44.488,27.336 45.608,27.944 46.936,27.944 C49.192,27.944 50.472,26.184 50.472,23.912 C50.472,21.64 49.192,19.88 46.936,19.88 C45.608,19.88 44.456,20.504 43.896,21.704 L43.848,20.072 L43.24,20.072 L43.24,31 L43.912,31 Z M46.888,27.272 C45.048,27.272 44.04,25.848 44.04,23.912 C44.04,21.96 45.048,20.552 46.888,20.552 C48.712,20.552 49.72,21.96 49.72,23.912 C49.72,25.848 48.712,27.272 46.888,27.272 Z M52.92,17.96 C53.368,17.96 53.704,17.64 53.704,17.192 C53.704,16.744 53.368,16.392 52.92,16.392 C52.472,16.392 52.152,16.744 52.152,17.192 C52.152,17.64 52.472,17.96 52.92,17.96 Z M53.304,27.752 L53.304,20.072 L52.568,20.072 L52.568,27.752 L53.304,27.752 Z M59.192,27.944 C61.48,27.944 63,26.12 63,23.912 C63,21.704 61.48,19.88 59.192,19.88 C56.904,19.88 55.384,21.704 55.384,23.912 C55.384,26.12 56.904,27.944 59.192,27.944 Z M59.192,27.272 C57.336,27.272 56.152,25.816 56.152,23.912 C56.152,22.008 57.336,20.552 59.192,20.552 C61.048,20.552 62.232,22.008 62.232,23.912 C62.232,25.816 61.048,27.272 59.192,27.272 Z M71.464,27.752 L71.464,23.064 C71.464,20.664 69.976,19.88 68.52,19.88 C67.256,19.88 66.248,20.44 65.784,21.272 L65.736,20.072 L65.08,20.072 L65.08,27.736 L65.816,27.736 L65.816,23.336 C65.816,21.832 66.68,20.552 68.408,20.552 C69.576,20.552 70.728,21.144 70.728,23.064 L70.728,27.752 L71.464,27.752 Z" id="path-2"></path>
    </defs>
    <g id="LeadChampionLogo" stroke="none" stroke-width="1" fill="none" fill-rule="evenodd">
        <line x1="28" y1="8" x2="30" y2="8" id="Path-282" stroke="#2C2C2C" stroke-width="4"></line>
        <line x1="28" y1="20" x2="30" y2="20" id="Path-282-Copy" stroke="#2C2C2C" stroke-width="4"></line>
        <path d="M26,8 C21.3333333,8 18.3333333,8 17,8 C15,8 12,9 12,13 C12,17 12,14 12,16 C12,18 14,20 17,20 C19,20 22,20 26,20" id="Path-283" stroke="#2C2C2C" stroke-width="4"></path>
        <path d="M4,2 C4,12 4,18.6666667 4,22 C4,27 6,28 10,28 C12.6666667,28 19.3333333,28 30,28" id="Path-281" stroke="#2C2C2C" stroke-width="4"></path>
        <g id="Group-11" transform="translate(41.000000, 1.500000)" fill-rule="nonzero">
            <g id="Group-10" transform="translate(0.739421, 0.500000)">
                <g id="Lead">
                    <use fill="#000000" xlink:href="#path-1"></use>
                    <use fill="#2C2C2C" xlink:href="#path-1"></use>
                </g>
                <g id="Champion">
                    <use fill="#000000" xlink:href="#path-2"></use>
                    <use fill="#2C2C2C" xlink:href="#path-2"></use>
                </g>
            </g>
        </g>
    </g>
</svg>