<svg width="34" height="24" viewBox="0 0 34 24" fill="none" xmlns="http://www.w3.org/2000/svg">
<rect x="0.5" y="0.5" width="33" height="23" rx="3.5" fill="#FCDF1F" stroke="#D9D9D9"/>
<g clip-path="url(#clip0)">
<path d="M23.927 7.42822L23.8129 7.44379C23.6591 7.46486 23.5041 7.56013 23.4154 7.68809L23.3424 7.79343L23.332 7.95402L23.3219 8.11461L23.378 8.23033C23.44 8.35847 23.5561 8.45969 23.7008 8.5113C23.8566 8.56689 24.0063 8.5419 24.161 8.4347L24.257 8.36794L24.3238 8.24538L24.3905 8.12282V7.99259V7.86237L24.3298 7.74308C24.2555 7.59661 24.2084 7.55249 24.0504 7.48264L23.927 7.42822ZM20.7863 8.34499C20.7804 8.34499 20.6266 8.40282 20.4446 8.47357L20.1139 8.60216V9.11895V9.63547H19.7215H19.3295V9.93915V10.2428H19.7204H20.1111L20.1199 11.7169L20.1283 13.1907L20.1737 13.3275C20.2838 13.6583 20.5146 13.8652 20.8544 13.9375C20.9133 13.9502 21.0812 13.956 21.2273 13.9507L21.493 13.9413L21.6322 13.8989C21.7088 13.8758 21.8349 13.8286 21.9126 13.7942L22.0541 13.7315L22.0847 13.4864C22.1017 13.3516 22.1222 13.2036 22.1301 13.1573L22.1447 13.073L21.995 13.1485C21.9127 13.1901 21.7623 13.2492 21.6607 13.2801L21.476 13.3362L21.281 13.325L21.0859 13.3135L21.003 13.2648C20.9574 13.2379 20.8952 13.1761 20.8648 13.1274L20.8099 13.0391L20.8025 11.6408L20.7954 10.2428H21.4416H22.0878V9.93911V9.63543H21.4424H20.797V8.99006C20.797 8.63516 20.7923 8.34496 20.7863 8.34496L20.7863 8.34499ZM16.5762 9.5534L16.3776 9.59744C15.5763 9.77519 14.9983 10.3901 14.8195 11.2548L14.7698 11.4953L14.7818 11.8496L14.7941 12.2039L14.8464 12.3989C15.0729 13.2462 15.7684 13.8233 16.6977 13.9353C17.2406 14.0008 18.0441 13.8502 18.4218 13.612L18.5323 13.5422L18.5575 13.2145L18.5829 12.887L18.2667 13.0451L17.9501 13.2032L17.6973 13.2692L17.4443 13.3354L17.1026 13.3351H16.7609L16.5631 13.2826C16.4543 13.2537 16.2952 13.193 16.2091 13.1477L16.0523 13.0654L15.8972 12.9119L15.7421 12.7587L15.6523 12.5803C15.5565 12.3901 15.483 12.1454 15.483 12.0167V11.9382H17.1015H18.7197L18.7367 11.8474C18.746 11.7975 18.7476 11.6068 18.7398 11.4236L18.7259 11.0904L18.6843 10.9385C18.5128 10.3116 18.085 9.84659 17.4948 9.64588L17.2923 9.57693L16.9342 9.56518L16.5762 9.5534ZM11.6747 9.55499L11.504 9.5949C11.2069 9.66446 10.8891 9.85007 10.6181 10.1122L10.498 10.2285V9.93196V9.63567H9.82748H9.15693V9.92594V10.2162L9.49207 10.2233L9.82748 10.2304L9.83378 12.7419L9.84034 15.2533H9.49864H9.15693V15.5444V15.8353H10.245H11.333V15.5316V15.2279H10.9281H10.5232V14.3549C10.5232 13.8747 10.529 13.4819 10.5358 13.4819C10.5426 13.4819 10.6023 13.5237 10.6685 13.5747C10.8243 13.6945 11.1465 13.844 11.371 13.9008L11.548 13.9456L11.8391 13.9453L12.1302 13.945L12.3442 13.889C12.4619 13.8582 12.658 13.7815 12.78 13.7185L13.0019 13.6042L13.1808 13.4384C13.5835 13.0655 13.8165 12.593 13.8896 12.0015L13.9178 11.7739L13.9005 11.546C13.83 10.6178 13.3249 9.91493 12.5351 9.64544L12.3326 9.57623L12.0035 9.56553L11.6747 9.55499ZM5.85453 9.57251L5.65291 9.63078C5.38026 9.70972 5.17267 9.82374 5.0119 9.98288L4.87785 10.1156L4.82587 10.2335C4.79722 10.2982 4.76831 10.415 4.76185 10.4931L4.75008 10.6351L4.8089 10.7489L4.86772 10.8624L4.95362 10.9196L5.03953 10.9768H5.17577C5.41767 10.9768 5.55919 10.8775 5.61569 10.6677L5.64277 10.5673L5.61514 10.4384L5.58751 10.3095L5.62062 10.2762C5.63893 10.2579 5.72078 10.2195 5.80228 10.1908L5.95028 10.1388L6.15547 10.1251L6.36066 10.1114L6.55052 10.1516C6.6549 10.1738 6.81102 10.2266 6.89742 10.269L7.05446 10.3462L7.14392 10.4507C7.19311 10.5081 7.25769 10.6187 7.28755 10.6964L7.34172 10.8375L7.3543 11.2525L7.36716 11.6676L7.30669 11.65C7.09934 11.5895 6.64891 11.5076 6.41126 11.4873L6.13303 11.4634L5.8838 11.4861L5.63484 11.5091L5.43212 11.5761C4.92744 11.7429 4.59974 12.098 4.52164 12.5627L4.49127 12.7441L4.51945 12.9265L4.54763 13.1087L4.62998 13.2765L4.71233 13.4439L4.84638 13.5752L4.98044 13.7063L5.16456 13.7971C5.26571 13.8469 5.42233 13.9037 5.51283 13.9232H5.51311C6.06737 14.0426 6.7305 13.8726 7.19974 13.4904C7.27369 13.4302 7.34565 13.3807 7.35978 13.3807H7.38549V13.6338V13.8868H8.03087H8.67598V13.5965V13.3063L8.34084 13.2992L8.00543 13.2924L7.99203 11.951L7.97862 10.6099L7.92226 10.4602C7.77061 10.0568 7.48494 9.79815 7.01863 9.64223L6.81617 9.57438L6.33549 9.57333L5.85453 9.57251ZM22.8975 9.61026V9.91339V10.2162L23.2581 10.2233L23.6187 10.2304L23.625 11.7548L23.6316 13.2795H23.2644H22.8973V13.5706L22.8976 13.8614H23.9476H24.9978V13.5711V13.2809L24.6498 13.274L24.3018 13.2669L24.2953 11.4386L24.289 9.61025H23.5933L22.8975 9.61026ZM25.8074 9.63572V10.3317V11.0274H26.111H26.4147V10.6099V10.1925H27.3763H28.3382L26.9843 11.8846L25.6303 13.5769V13.7318V13.8869H25.8859H26.1414L26.3477 13.7857C26.4611 13.7301 26.6279 13.6648 26.7184 13.6404L26.8828 13.5961L27.2499 13.5971L27.6168 13.5982L28.1054 13.7191C28.3742 13.7857 28.693 13.8503 28.8137 13.8628L29.0331 13.8852L29.2107 13.8603C29.4383 13.8285 29.6207 13.7391 29.7551 13.5933L29.8618 13.4773L29.96 13.268C30.014 13.1529 30.0969 12.9236 30.1444 12.7583L30.2309 12.4577L30.0148 12.3989L29.7989 12.3403L29.7806 12.3608C29.7706 12.3722 29.7206 12.491 29.6695 12.6249C29.5572 12.9191 29.4539 13.0813 29.3295 13.1586L29.2362 13.2166L29.0085 13.2145L28.7809 13.2124L28.3632 13.1139L27.9457 13.0157L27.5536 13.016L27.1613 13.0165L26.9731 13.0591C26.8696 13.0825 26.7803 13.0967 26.7745 13.0909C26.7631 13.0795 27.6042 12.0317 28.6633 10.7375L29.3248 9.92881V9.78217V9.63554H27.5662L25.8074 9.63572ZM16.8834 10.1235C17.0642 10.1305 17.2468 10.1738 17.4221 10.254L17.5602 10.3172L17.7083 10.4649C17.9183 10.675 18.0894 11.0659 18.0894 11.3352V11.4072H16.7868H15.4843L15.4991 11.3248C15.5072 11.2796 15.5452 11.1495 15.5834 11.0359L15.6528 10.8294L15.7697 10.6652L15.8868 10.5011L16.0394 10.3864C16.2861 10.201 16.5821 10.112 16.8834 10.1235ZM11.548 10.1542L11.8265 10.1568L12.1048 10.1595L12.2547 10.2142C12.6836 10.3704 13.0043 10.7384 13.1329 11.222L13.1854 11.4198L13.1851 11.7235L13.1846 12.0272L13.1337 12.2203C13.1057 12.3266 13.0407 12.4966 12.9895 12.5982L12.8965 12.7831L12.7567 12.9297C12.5888 13.1058 12.4305 13.2114 12.2312 13.2799V13.2794L12.0832 13.3305L11.8788 13.3412C11.4186 13.3657 10.9597 13.2247 10.631 12.9582L10.5232 12.8712V11.8114V10.7515L10.6978 10.6046C10.9266 10.412 11.1528 10.2795 11.371 10.2104L11.548 10.1542ZM6.0485 11.9311L6.38172 11.9453L6.71495 11.9596L6.97348 12.0126C7.11568 12.0418 7.26077 12.0767 7.29603 12.0901L7.36032 12.1144V12.4673V12.8202L7.19754 12.9551C6.97922 13.1361 6.79462 13.2448 6.57159 13.3234L6.3861 13.3888L6.12018 13.3972L5.85453 13.4057L5.73881 13.3731C5.6752 13.3551 5.5704 13.3093 5.50572 13.2714L5.38808 13.2024L5.31257 13.0927C5.27107 13.0324 5.22371 12.9297 5.20724 12.8643L5.17715 12.7453L5.1911 12.6107C5.22572 12.2752 5.47629 12.0437 5.8931 11.9617L6.0485 11.9311Z" fill="black"/>
</g>
<defs>
<clipPath id="clip0">
<rect width="26.4706" height="9" fill="white" transform="translate(4 7)"/>
</clipPath>
</defs>
</svg>
