<svg width="34" height="24" viewBox="0 0 34 24" fill="none" xmlns="http://www.w3.org/2000/svg">
<rect x="0.5" y="0.5" width="33" height="23" rx="3.5" fill="white" stroke="#D9D9D9"/>
<path d="M21.4033 14.5285C21.4034 14.5187 21.5121 14.4475 21.6447 14.3702C21.9843 14.1721 22.7248 13.6753 23.0869 13.4027C23.3836 13.1792 23.5301 13.0612 24.0754 12.6064C24.8581 11.9537 25.811 11.0053 26.6446 10.0492C26.785 9.88829 26.9036 9.76797 26.9082 9.78185C26.9238 9.82866 26.6712 10.4537 26.4779 10.8468C26.0814 11.6529 25.5852 12.3458 24.9913 12.9227C24.1168 13.7722 22.9982 14.3451 21.8936 14.5091C21.6276 14.5486 21.4026 14.5575 21.4033 14.5285Z" fill="#DE1322"/>
<path d="M19.1827 14.9331C18.9409 14.8894 18.7468 14.8225 18.5176 14.7039C18.2802 14.5811 17.9858 14.2969 17.8741 14.0827C17.5503 13.4624 17.707 12.5462 18.249 11.8897C18.7782 11.2487 19.7551 10.886 20.737 10.9658C21.4603 11.0246 21.861 11.2904 21.9463 11.768C22.0201 12.1807 21.8017 12.5977 21.377 12.8553C20.8182 13.1942 19.7695 13.3162 18.8743 13.1464C18.6434 13.1027 18.6235 13.1162 18.6239 13.3166C18.6255 14.0214 19.1054 14.4727 19.9927 14.6037C20.1442 14.626 20.4092 14.641 20.6639 14.6417L21.0849 14.6427L20.9907 14.6925C20.8293 14.7777 20.5436 14.8728 20.2992 14.9226C20.018 14.9799 19.47 14.985 19.1827 14.9331V14.9331ZM20.3312 12.6411C20.7194 12.5601 20.9801 12.3954 21.0629 12.1785C21.1226 12.022 21.102 11.7977 21.0178 11.6873C20.8919 11.5222 20.6275 11.4441 20.2766 11.4682C19.6686 11.51 19.1884 11.8083 18.8742 12.3393C18.786 12.4886 18.7644 12.6008 18.82 12.6221C18.8374 12.6288 18.9513 12.6459 19.0732 12.6601C19.1951 12.6743 19.3319 12.6902 19.3773 12.6955C19.5555 12.7163 20.1269 12.6837 20.3312 12.6411ZM28.0115 14.8988C27.0021 14.7403 26.4718 14.1221 26.564 13.2112C26.5932 12.9229 26.661 12.6903 26.7964 12.4148C27.2317 11.5287 28.1237 10.9958 29.248 10.9501C30.3228 10.9065 31.0524 11.3093 31.2475 12.0543C31.2723 12.1489 31.2947 12.2105 31.2972 12.1911C31.2998 12.1716 31.3097 12.214 31.3193 12.2853C31.3406 12.4426 31.3197 12.7882 31.293 12.72C31.2785 12.683 31.2746 12.6884 31.2733 12.7478C31.2708 12.8612 31.1615 13.2191 31.0701 13.4134C30.7225 14.1519 30.0395 14.6628 29.1401 14.857C28.8958 14.9098 28.2369 14.9341 28.0115 14.8988ZM29.0223 14.2502C29.7193 14.0638 30.2535 13.3828 30.2996 12.6218C30.323 12.237 30.2157 11.9429 29.9822 11.752C29.8022 11.6048 29.6367 11.5505 29.3285 11.5377C29.0137 11.5246 28.823 11.5635 28.5513 11.696C27.983 11.9732 27.5944 12.5787 27.5353 13.2792C27.4899 13.8175 27.7774 14.1903 28.3121 14.2867C28.4748 14.316 28.8479 14.2969 29.0223 14.2502ZM4.26782 14.8756C3.96313 14.8484 3.58869 14.7909 3.34122 14.7333C3.23317 14.7082 3.13513 14.6935 3.12335 14.7008C3.11157 14.7081 3.1021 14.6896 3.1023 14.6597C3.10254 14.6233 3.10891 14.6151 3.12153 14.635C3.13308 14.6532 3.16203 14.5732 3.19608 14.4289C3.2267 14.2992 3.26051 14.1931 3.27121 14.1931C3.28192 14.1931 3.39394 14.2084 3.52016 14.227C4.2105 14.3291 5.075 14.3354 5.45486 14.2412C5.81161 14.1527 6.04989 13.983 6.11297 13.7725C6.19747 13.4905 6.0847 13.3012 5.77528 13.2056C5.69228 13.18 5.40394 13.126 5.13453 13.0856C4.86511 13.0452 4.56518 12.9858 4.46803 12.9536C4.06692 12.8205 3.90198 12.6246 3.90018 12.2792C3.89905 12.066 3.91361 12.003 4.00377 11.8309C4.13344 11.5834 4.42378 11.3668 4.83195 11.2132C5.22545 11.0651 6.0139 10.9721 6.63493 11.0006C6.96394 11.0157 7.6054 11.0748 7.6647 11.0956C7.68524 11.1028 7.67083 11.1681 7.6142 11.3245L7.53495 11.5434L7.38524 11.5395C6.18687 11.5089 5.72046 11.5372 5.34265 11.6635C4.96047 11.7913 4.80422 12.0115 4.93897 12.2325C5.03647 12.3924 5.18197 12.4447 5.83412 12.5542C6.09968 12.5988 6.40291 12.6626 6.50796 12.6958C6.71522 12.7615 6.91914 12.884 7.01078 12.998C7.27097 13.3217 7.15223 13.9943 6.77292 14.3455C6.39146 14.6987 5.81576 14.8688 4.93909 14.8874C4.69944 14.8925 4.39737 14.8872 4.26782 14.8756V14.8756ZM9.14535 14.8501C8.16072 14.7065 7.62002 14.0511 7.74034 13.1469C7.86965 12.1753 8.57799 11.3835 9.5774 11.0935C9.93236 10.9905 10.2065 10.9591 10.6264 10.9731C11.1912 10.992 11.5383 11.0965 11.8801 11.3505C12.6502 11.9228 12.5324 13.2717 11.6382 14.1211C11.1158 14.6173 10.392 14.8813 9.57607 14.8733C9.4158 14.8717 9.22198 14.8613 9.14535 14.8501ZM10.2616 14.1802C10.9065 13.962 11.3739 13.3204 11.4103 12.6033C11.4427 11.9627 11.1146 11.5854 10.485 11.5392C9.5362 11.4696 8.70146 12.3185 8.69763 13.357C8.69676 13.592 8.70277 13.6292 8.76226 13.7574C8.93059 14.1201 9.23252 14.2697 9.76751 14.2556C10.0165 14.249 10.0927 14.2374 10.2616 14.1802ZM25.1749 14.6463C24.9405 14.409 24.428 13.8533 24.3031 13.7012L24.2183 13.5979L24.2996 13.5363C24.3443 13.5024 24.486 13.3907 24.6144 13.288L24.8479 13.1012L24.9449 13.2064C24.9982 13.2643 25.2962 13.5853 25.6071 13.9197C25.918 14.2542 26.2395 14.6009 26.3215 14.6902L26.4707 14.8526H25.9246H25.3786L25.1749 14.6463ZM14.335 14.8067C13.6209 14.6761 13.1698 14.3351 12.9782 13.7809C12.9183 13.6075 12.9132 13.5653 12.9147 13.251C12.916 12.9814 12.9268 12.8714 12.9657 12.7287C13.194 11.8919 13.7487 11.3296 14.5959 11.0758C15.0304 10.9457 15.1434 10.9333 15.9258 10.9294C16.5392 10.9263 16.6585 10.9203 16.6769 10.8911C16.6889 10.8721 16.7635 10.5288 16.8427 10.1282L16.9866 9.40002L17.4106 9.37358C17.6437 9.35905 17.8377 9.34984 17.8415 9.35313C17.859 9.36802 17.1311 13.1111 17.0774 13.2821C16.8197 14.1035 16.346 14.5559 15.5281 14.7618C15.3789 14.7994 15.2412 14.8115 14.8904 14.8181C14.6442 14.8227 14.3943 14.8176 14.335 14.8067V14.8067ZM15.313 14.1562C15.7007 14.052 15.987 13.7859 16.1353 13.3917C16.2187 13.1699 16.5383 11.5567 16.5053 11.5237C16.4483 11.4668 15.865 11.4444 15.5027 11.4852C14.6101 11.586 14.0843 12.0363 13.8862 12.8697C13.8198 13.1493 13.8309 13.5347 13.9106 13.715C14.0178 13.9574 14.2724 14.1327 14.6041 14.1925C14.7667 14.2218 15.14 14.2027 15.313 14.1562ZM23.5897 12.8336C23.3889 12.6179 22.2979 11.0735 22.2979 11.0052C22.2979 10.9967 22.4723 10.9899 22.6854 10.9899H23.073L23.2203 11.1833C23.4054 11.4266 23.7502 11.8473 24.0232 12.1631C24.1443 12.3033 24.2279 12.4197 24.2207 12.4384C24.2066 12.4753 23.7201 12.8824 23.6781 12.8925C23.663 12.8962 23.6232 12.8697 23.5897 12.8336ZM28.2339 9.13836C28.0527 8.87953 27.9495 8.7523 27.9207 8.7523C27.8971 8.7523 27.7009 8.91579 27.4846 9.11562C27.2683 9.31544 27.0879 9.47551 27.0838 9.47134C27.0796 9.46716 27.1404 9.24313 27.219 8.97348C27.3684 8.46055 27.3781 8.41186 27.3361 8.38586C27.3219 8.37711 27.1073 8.342 26.8591 8.30784C26.6109 8.27369 26.4098 8.23642 26.412 8.22503C26.4143 8.21363 26.6146 8.09178 26.8573 7.95424C27.0999 7.81671 27.3087 7.68766 27.3212 7.66747C27.3381 7.64037 27.294 7.51147 27.1526 7.17499C27.0472 6.92431 26.9654 6.71486 26.9707 6.70954C26.9761 6.70423 27.1686 6.78586 27.3986 6.89095C27.6286 6.99604 27.8337 7.0788 27.8543 7.07486C27.8971 7.06666 27.9052 7.05186 28.1765 6.48258C28.2868 6.25115 28.3807 6.06567 28.3851 6.0704C28.3896 6.07513 28.4213 6.29099 28.4557 6.55007C28.49 6.80916 28.5239 7.04073 28.5311 7.06469C28.5488 7.12403 28.5859 7.11545 29.1106 6.93069C29.3535 6.84516 29.5523 6.78117 29.5523 6.78849C29.5523 6.79581 29.4039 6.99283 29.2225 7.22631C29.0412 7.45979 28.8928 7.66905 28.8928 7.69132C28.8928 7.71576 29.0419 7.84725 29.2688 8.02301C29.4757 8.18317 29.6423 8.31679 29.6392 8.31995C29.636 8.3231 29.4164 8.3427 29.1512 8.3635C28.886 8.3843 28.6516 8.40645 28.6304 8.41271C28.5804 8.42745 28.5687 8.51857 28.5493 9.04672C28.5408 9.2799 28.5271 9.48277 28.519 9.49755C28.5108 9.51244 28.3837 9.35233 28.2339 9.13836Z" fill="#033384"/>
</svg>
