<svg fill="none" height="24" width="34" xmlns="http://www.w3.org/2000/svg"><rect fill="#fff" height="23" rx="3.5" stroke="#d9d9d9" width="33" x=".48002" y=".5"/><path clip-rule="evenodd" d="m10.91762 15.8583h-2.0598l-1.5445-6.06592c-.0734-.27903-.229-.52571-.458-.64197-.5714-.29217-1.2011-.5247-1.888-.64197v-.23354h3.3181c.4579 0 .8014.35081.8586.75824l.8014 4.37556 2.0588-5.1338h2.0025zm4.2339 0h-1.9452l1.6018-7.5834h1.9452zm4.1185-5.4826c.0572-.40842.4007-.64195.8014-.64195.6297-.05864 1.3156.05863 1.888.34975l.3435-1.63268c-.5725-.23354-1.2021-.35081-1.7735-.35081-1.8881 0-3.2619 1.0504-3.2619 2.50819 0 1.1091.9731 1.6914 1.6601 2.0422.7431.3498 1.0293.5834.9721.9332 0 .5247-.5725.7582-1.1439.7582-.6869 0-1.3738-.1749-2.0025-.4671l-.3434 1.6338c.6869.2911 1.43.4084 2.117.4084 2.1169.0576 3.4325-.9918 3.4325-2.5669 0-1.9835-2.6894-2.0998-2.6894-2.9743zm9.4973 5.4826-1.5445-7.5834h-1.6591c-.3434 0-.6869.23354-.8014.58334l-2.8601 7.00006h2.0025l.3997-1.1081h2.4604l.229 1.1081zm-2.9174-5.5412.5715 2.858h-1.6018z" fill="#172b85" fill-rule="evenodd"/></svg>