<svg id="Ken_Icon" data-name="Ken Icon" xmlns="http://www.w3.org/2000/svg" xmlns:xlink="http://www.w3.org/1999/xlink" viewBox="0 0 800 800"><defs><style>.cls-1{fill:url(#linear-gradient);}.cls-2{fill:#fff;}.cls-3{fill:#01767b;}.cls-4{fill:#bed3d2;}</style><linearGradient id="linear-gradient" x1="398.05" y1="5.6" x2="402.01" y2="807.6" gradientTransform="matrix(1, 0, 0, -1, 0, 800)" gradientUnits="userSpaceOnUse"><stop offset="0" stop-color="#01949a"/><stop offset="0.52" stop-color="#01b0a3"/><stop offset="1" stop-color="#00cdac"/></linearGradient></defs><title>Widgetized</title><g id="Widget"><rect id="bg" class="cls-1" width="800" height="800"/><rect class="cls-2" x="266.74" y="206.79" width="299.04" height="65.17" rx="6.96"/><rect class="cls-2" x="266.74" y="297.43" width="175.96" height="205.14" rx="6.96"/><rect class="cls-3" x="468.17" y="297.43" width="97.62" height="205.14" rx="6.96"/><rect class="cls-2" x="266.74" y="527.14" width="299.04" height="65.17" rx="6.96"/><path class="cls-3" d="M511.55,234.8,523.68,249a2.89,2.89,0,0,0,4.35,0l12.6-14.21a2.88,2.88,0,0,0-2.16-4.79H513.74A2.88,2.88,0,0,0,511.55,234.8Z" transform="translate(0 0)"/><rect class="cls-4" x="284.84" y="226.28" width="152.87" height="26.19" rx="6.57"/><path class="cls-3" d="M511.55,555.14l12.13,14.2a2.88,2.88,0,0,0,4.35,0l12.6-14.2a2.88,2.88,0,0,0-2.16-4.79H513.74A2.88,2.88,0,0,0,511.55,555.14Z" transform="translate(0 0)"/><rect class="cls-4" x="284.84" y="546.63" width="152.87" height="26.19" rx="6.57"/></g></svg>