<svg width="34" height="40" viewBox="0 0 34 40" fill="none" xmlns="http://www.w3.org/2000/svg">
<g clip-path="url(#clip0_696_60)">
<path fill-rule="evenodd" clip-rule="evenodd" d="M16.7589 0L20.7524 2.63971C29.0855 8.14791 34.1404 15.9983 33.3678 24.8262C32.5645 34.0043 24.4333 40.737 15.2662 39.9352C6.09897 39.1335 -0.739139 31.0916 0.0641224 21.9136C0.180255 20.5867 0.37899 19.1879 1.12266 17.3053C1.80271 15.5836 2.89509 13.5649 4.59658 10.8145L8.53268 13.2477L8.67938 13.0126C8.7833 12.8461 8.93413 12.6044 9.12162 12.3038C9.49663 11.7027 10.0182 10.8662 10.6046 9.92495C11.7784 8.04091 13.2083 5.74258 14.2418 4.07104L16.7589 0ZM12.4706 15.7359C10.8676 18.3298 10.1297 19.7788 9.76001 20.7147C9.45209 21.4942 9.38344 21.9423 9.31514 22.7227C8.964 26.7348 11.9588 30.3275 16.0755 30.6875C20.1922 31.0476 23.7656 28.0293 24.1168 24.0172C24.413 20.6323 23.0665 16.8868 19.4014 13.3644C19.0872 13.8692 18.7792 14.3639 18.4873 14.8323C17.8998 15.7755 17.3772 16.6135 17.0014 17.2158C16.8136 17.517 16.6624 17.7593 16.5582 17.9263L16.3967 18.185C16.3967 18.185 16.3965 18.1852 12.4706 15.7359Z" fill="#2438E9"/>
</g>
<defs>
<clipPath id="clip0_696_60">
<rect width="33.4454" height="40" fill="white"/>
</clipPath>
</defs>
</svg>
