<svg xmlns="http://www.w3.org/2000/svg" xmlns:xlink="http://www.w3.org/1999/xlink" width="88" height="60" fill="none" ><style><![CDATA[.B{fill:#fff}.C{fill:#58707f}.D{stroke:#58707f}.E{stroke-width:.713}]]></style><rect x=".6" y=".6" width="86.8" height="58.8" rx="2.4" class="B"/><rect x=".6" y=".6" width="86.8" height="58.8" rx="2.4" stroke="#8796a1" stroke-width="1.2"/><g clip-path="url(#A)"><rect x="9.37" y="8.75" width="11.368" height="12" rx=".95" class="B"/><g class="C"><path d="M17.598 13.28l.01-.312c-.004-1.52-.895-2.403-2.301-2.497-1.226-.082-2.149.404-2.57 1.213-.142.272-.222.613-.253.983a2.5 2.5 0 0 0-.075.601h.005c-.189.038-.271.42-.192.861.072.404.255.718.424.741.215.576.553 1.136.973 1.545.237.232.501.415.781.527a1.64 1.64 0 0 0 .601.118 1.64 1.64 0 0 0 .601-.118 2.42 2.42 0 0 0 .806-.552c.409-.409.74-.959.95-1.526.161-.048.331-.35.4-.736.073-.421.003-.786-.16-.847zm-.272.903c-.038.214-.122.391-.21.466-.035.029-.072.044-.107.038-.02-.002-.038-.012-.054-.028-.194.604-.564 1.207-1.031 1.572-.278.218-.592.353-.923.353-.324 0-.631-.128-.905-.338-.476-.364-.853-.974-1.05-1.587-.016.015-.034.024-.054.027-.04.007-.083-.012-.123-.054-.083-.083-.157-.249-.194-.449l-.006-.039.017-.41c.018-.051.04-.092.071-.114.012-.01.027-.015.042-.017.033-.006.068.007.102.034.012-.122.165-1.121 1.124-1.032 0 0 .842.31 1.609.037h.237c.317.012.535.177.763.282-.009-.105-.089-.211-.085-.282a.47.47 0 0 1 .101.043c.164.175.322.468.449.946l.004.002c.033-.026.067-.038.1-.032.009.001.016.004.024.007.104.05.149.295.099.574zm2.996 6.271H9.787a5.68 5.68 0 0 1 .227-1.355l.029-.098.04-.122.006-.014v-.001-.001c.599-1.602 1.538-1.665 1.752-1.715.455-.106 1.006-.061 1.3-.153.034.288.874 1.238 1.423 1.832l.234-.922c-.176-.106-.214-.337-.214-.53h.903c0 .194-.038.427-.218.532l.238.919c.551-.594 1.389-1.544 1.423-1.832.294.091.846.046 1.3.153.214.05 1.151.112 1.75 1.709l.048.132v.001l.03.107a7.81 7.81 0 0 1 .242 1.193c.011.055.016.11.02.164z"/></g></g><rect x="9.726" y="9.106" width="10.656" height="11.288" rx=".594" class="D E"/><g clip-path="url(#B)"><rect x="23.739" y="8.75" width="11.368" height="12" rx=".95" class="B"/><g class="C"><path d="M31.967 13.28l.01-.312c-.004-1.52-.895-2.403-2.301-2.497-1.226-.082-2.148.404-2.57 1.213-.142.272-.222.613-.253.983a2.5 2.5 0 0 0-.074.601h.005c-.189.038-.271.42-.192.861.072.404.255.718.424.741.215.576.553 1.136.973 1.545.237.232.5.415.781.527a1.64 1.64 0 0 0 .601.118 1.64 1.64 0 0 0 .601-.118 2.42 2.42 0 0 0 .806-.552c.409-.409.74-.959.95-1.526.161-.048.331-.35.4-.736.073-.421.002-.786-.16-.847zm-.272.903c-.038.214-.122.391-.21.466-.035.029-.072.044-.107.038-.02-.002-.038-.012-.054-.028-.194.604-.564 1.207-1.031 1.572-.278.218-.592.353-.923.353-.323 0-.631-.128-.904-.338-.476-.364-.853-.974-1.05-1.587-.016.015-.034.024-.054.027-.04.007-.083-.012-.123-.054-.083-.083-.157-.249-.194-.449l-.006-.039.017-.41c.018-.051.04-.092.071-.114.012-.01.027-.015.042-.017.033-.006.068.007.102.034.012-.122.165-1.121 1.124-1.032 0 0 .842.31 1.609.037h.237c.317.012.535.177.763.282-.009-.105-.089-.211-.085-.282a.47.47 0 0 1 .101.043c.164.175.322.468.449.946l.004.002c.033-.026.067-.038.1-.032.008.001.016.004.024.007.104.05.149.295.099.574zm2.995 6.271H24.156a5.68 5.68 0 0 1 .227-1.355l.029-.098.04-.122.006-.014v-.001-.001c.599-1.602 1.538-1.665 1.752-1.715.455-.106 1.006-.061 1.3-.153.034.288.874 1.238 1.423 1.832l.234-.922c-.176-.106-.214-.337-.214-.53h.903c0 .194-.038.427-.219.532l.238.919c.55-.594 1.389-1.544 1.423-1.832.294.091.846.046 1.3.153.214.05 1.151.112 1.751 1.709l.048.132v.001l.031.107a7.81 7.81 0 0 1 .242 1.193c.011.055.016.11.02.164z"/></g></g><rect x="24.095" y="9.106" width="10.656" height="11.288" rx=".594" class="D E"/><g clip-path="url(#C)"><rect x="38.107" y="8.75" width="11.368" height="12" rx=".95" class="B"/><g class="C"><path d="M46.335 13.28l.01-.312c-.004-1.52-.895-2.403-2.301-2.497-1.226-.082-2.148.404-2.57 1.213-.142.272-.222.613-.253.983a2.5 2.5 0 0 0-.074.601h.005c-.189.038-.271.42-.192.861.072.404.255.718.424.741.215.576.553 1.136.973 1.545.237.232.501.415.781.527a1.64 1.64 0 0 0 .601.118 1.64 1.64 0 0 0 .601-.118 2.42 2.42 0 0 0 .806-.552c.409-.409.74-.959.95-1.526.161-.048.331-.35.4-.736.073-.421.002-.786-.16-.847zm-.272.903c-.038.214-.122.391-.21.466-.035.029-.072.044-.107.038-.019-.002-.038-.012-.054-.028-.194.604-.564 1.207-1.032 1.572-.278.218-.592.353-.923.353-.323 0-.631-.128-.904-.338-.476-.364-.853-.974-1.05-1.587-.016.015-.034.024-.054.027-.04.007-.083-.012-.123-.054-.083-.083-.157-.249-.194-.449l-.006-.039.017-.41c.018-.051.04-.092.071-.114.012-.01.027-.015.041-.017.033-.006.068.007.103.034.012-.122.165-1.121 1.124-1.032 0 0 .842.31 1.609.037h.237c.317.012.535.177.763.282-.008-.105-.089-.211-.085-.282a.47.47 0 0 1 .101.043c.164.175.322.468.449.946l.004.002c.033-.026.067-.038.1-.032.008.001.016.004.024.007.104.05.149.295.099.574zm2.995 6.271H38.524a5.68 5.68 0 0 1 .227-1.355l.029-.098.04-.122.006-.014v-.001-.001c.599-1.602 1.538-1.665 1.752-1.715.455-.106 1.006-.061 1.3-.153.034.288.874 1.238 1.423 1.832l.234-.922c-.176-.106-.214-.337-.214-.53h.903c0 .194-.038.427-.218.532l.238.919c.55-.594 1.389-1.544 1.423-1.832.294.091.846.046 1.3.153.214.05 1.151.112 1.75 1.709l.048.132v.001l.03.107a7.81 7.81 0 0 1 .242 1.193c.011.055.016.11.02.164z"/></g></g><rect x="38.463" y="9.106" width="10.656" height="11.288" rx=".594" class="D E"/><g clip-path="url(#D)"><rect x="9.37" y="23.75" width="11.368" height="12" rx=".95" class="B"/><g class="C"><path d="M17.598 28.28l.01-.312c-.004-1.52-.895-2.404-2.301-2.498-1.226-.082-2.149.404-2.57 1.213-.142.272-.222.613-.253.983a2.5 2.5 0 0 0-.075.601h.005c-.189.038-.271.42-.192.861.072.404.255.718.424.741.215.576.553 1.137.973 1.545.237.232.501.415.781.527a1.64 1.64 0 0 0 .601.118 1.64 1.64 0 0 0 .601-.118 2.42 2.42 0 0 0 .806-.552c.409-.409.74-.959.95-1.526.161-.048.331-.35.4-.736.073-.421.003-.786-.16-.847zm-.272.903c-.038.214-.122.391-.21.466-.035.029-.072.044-.107.038-.02-.002-.038-.012-.054-.028-.194.604-.564 1.207-1.031 1.572-.278.218-.592.353-.923.353-.324 0-.631-.128-.905-.338-.476-.364-.853-.974-1.05-1.587-.016.015-.034.024-.054.027-.04.007-.083-.012-.123-.054-.083-.083-.157-.249-.194-.449l-.006-.039.017-.41c.018-.051.04-.092.071-.114.012-.01.027-.015.042-.017.033-.006.068.007.102.034.012-.122.165-1.121 1.124-1.031 0 0 .842.31 1.609.037h.237c.317.012.535.177.763.282-.009-.105-.089-.211-.085-.282a.47.47 0 0 1 .101.043c.164.174.322.467.449.946l.004.003c.033-.026.067-.038.1-.032.009.001.016.004.024.007.104.05.149.295.099.574z"/><use xlink:href="#K"/></g></g><rect x="9.726" y="24.106" width="10.656" height="11.288" rx=".594" class="D E"/><g clip-path="url(#E)"><rect x="23.738" y="23.75" width="11.368" height="12" rx=".95" class="B"/><g class="C"><path d="M31.967 28.28l.01-.312c-.004-1.52-.895-2.404-2.301-2.498-1.226-.082-2.148.404-2.57 1.213-.142.272-.222.613-.253.983a2.5 2.5 0 0 0-.075.601h.005c-.189.038-.271.42-.192.861.072.404.255.718.424.741.215.576.553 1.137.973 1.545.237.232.501.415.781.527a1.64 1.64 0 0 0 .601.118 1.64 1.64 0 0 0 .601-.118 2.42 2.42 0 0 0 .806-.552c.409-.409.74-.959.95-1.526.161-.048.331-.35.4-.736.073-.421.002-.786-.16-.847zm-.272.903c-.038.214-.122.391-.21.466-.035.029-.072.044-.108.038-.019-.002-.038-.012-.054-.028-.194.604-.564 1.207-1.032 1.572-.278.218-.592.353-.923.353-.323 0-.631-.128-.905-.338-.476-.364-.853-.974-1.05-1.587-.016.015-.034.024-.054.027-.04.007-.083-.012-.123-.054-.083-.083-.157-.249-.194-.449l-.006-.039.017-.41c.018-.051.04-.092.071-.114a.09.09 0 0 1 .041-.017c.033-.006.068.007.103.034.012-.122.165-1.121 1.124-1.031 0 0 .842.31 1.609.037h.237c.317.012.535.177.763.282-.009-.105-.089-.211-.086-.282.037.01.07.026.101.043.164.174.322.467.449.946l.004.003c.033-.026.067-.038.1-.032.009.001.016.004.024.007.104.05.149.295.099.574z"/><use xlink:href="#L"/></g></g><rect x="24.095" y="24.106" width="10.656" height="11.288" rx=".594" class="D E"/><g clip-path="url(#F)"><rect x="38.107" y="23.75" width="11.368" height="12" rx=".95" class="B"/><g class="C"><path d="M46.335 28.28l.01-.312c-.004-1.52-.895-2.404-2.301-2.498-1.226-.082-2.148.404-2.57 1.213-.142.272-.222.613-.253.983a2.5 2.5 0 0 0-.075.601h.005c-.189.038-.271.42-.192.861.072.404.255.718.424.741.215.576.553 1.137.973 1.545.237.232.5.415.781.527a1.64 1.64 0 0 0 .601.118 1.64 1.64 0 0 0 .601-.118c.291-.116.563-.308.806-.552.409-.409.74-.959.95-1.526.161-.048.331-.35.4-.736.073-.421.002-.786-.16-.847zm-.272.903c-.038.214-.122.391-.21.466-.035.029-.072.044-.108.038-.019-.002-.038-.012-.054-.028-.194.604-.564 1.207-1.031 1.572-.278.218-.592.353-.923.353-.324 0-.631-.128-.905-.338-.476-.364-.853-.974-1.05-1.587-.016.015-.034.024-.054.027-.04.007-.083-.012-.123-.054-.083-.083-.157-.249-.194-.449l-.006-.039.017-.41c.018-.051.04-.092.071-.114a.09.09 0 0 1 .042-.017c.033-.006.068.007.103.034.012-.122.165-1.121 1.124-1.031 0 0 .842.31 1.609.037h.237c.317.012.535.177.763.282-.009-.105-.089-.211-.085-.282a.47.47 0 0 1 .101.043c.163.174.322.467.449.946l.004.003c.033-.026.067-.038.1-.032.009.001.016.004.024.007.104.05.149.295.099.574z"/><use xlink:href="#M"/></g></g><rect x="38.463" y="24.106" width="10.656" height="11.288" rx=".594" class="D E"/><g clip-path="url(#G)"><rect x="9.37" y="38.75" width="11.368" height="12" rx=".95" class="B"/><g class="C"><path d="M17.598 43.28l.01-.312c-.004-1.52-.895-2.404-2.301-2.497-1.226-.082-2.149.404-2.57 1.213-.142.272-.222.613-.253.983a2.5 2.5 0 0 0-.075.601h.005c-.189.038-.271.42-.192.861.072.404.255.718.424.741.215.576.553 1.137.973 1.545.237.232.501.415.781.527a1.64 1.64 0 0 0 .601.118 1.64 1.64 0 0 0 .601-.118 2.42 2.42 0 0 0 .806-.552c.409-.409.74-.959.95-1.526.161-.048.331-.35.4-.736.073-.421.003-.786-.16-.847zm-.272.903c-.038.214-.122.391-.21.466-.035.029-.072.044-.107.038-.02-.002-.038-.012-.054-.028-.194.604-.564 1.207-1.031 1.572-.278.218-.592.353-.923.353-.324 0-.631-.128-.905-.338-.476-.364-.853-.974-1.05-1.587-.016.015-.034.024-.054.027-.04.007-.083-.012-.123-.054-.083-.083-.157-.249-.194-.449l-.006-.039.017-.41c.018-.051.04-.092.071-.114.012-.01.027-.015.042-.017.033-.006.068.007.102.034.012-.122.165-1.121 1.124-1.032 0 0 .842.31 1.609.037h.237c.317.012.535.177.763.282-.009-.105-.089-.211-.085-.282a.47.47 0 0 1 .101.043c.164.175.322.468.449.946l.004.002c.033-.026.067-.038.1-.032.009.001.016.004.024.007.104.05.149.295.099.574zm2.996 6.271H9.787a5.68 5.68 0 0 1 .227-1.355l.029-.098.04-.122.006-.014v-.001-.001c.599-1.602 1.538-1.665 1.752-1.715.455-.106 1.006-.061 1.3-.153.034.288.874 1.238 1.423 1.832l.234-.922c-.176-.106-.214-.337-.214-.53h.903c0 .194-.038.427-.218.532l.238.919c.551-.595 1.389-1.544 1.423-1.832.294.092.846.046 1.3.153.214.05 1.151.112 1.75 1.709l.048.132v.001l.03.108a7.81 7.81 0 0 1 .242 1.193c.011.055.016.11.02.164z"/></g></g><rect x="9.726" y="39.106" width="10.656" height="11.288" rx=".594" class="D E"/><g clip-path="url(#H)"><rect x="23.738" y="38.75" width="11.368" height="12" rx=".95" class="B"/><g class="C"><path d="M31.967 43.28l.01-.312c-.004-1.52-.895-2.404-2.301-2.497-1.226-.082-2.148.404-2.57 1.213-.142.272-.222.613-.253.983a2.5 2.5 0 0 0-.075.601h.005c-.189.038-.271.42-.192.861.072.404.255.718.424.741.215.576.553 1.137.973 1.545.237.232.501.415.781.527a1.64 1.64 0 0 0 .601.118 1.64 1.64 0 0 0 .601-.118 2.42 2.42 0 0 0 .806-.552c.409-.409.74-.959.95-1.526.161-.048.331-.35.4-.736.073-.421.002-.786-.16-.847zm-.272.903c-.038.214-.122.391-.21.466-.035.029-.072.044-.108.038-.019-.002-.038-.012-.054-.028-.194.604-.564 1.207-1.032 1.572-.278.218-.592.353-.923.353-.323 0-.631-.128-.905-.338-.476-.364-.853-.974-1.05-1.587-.016.015-.034.024-.054.027-.04.007-.083-.012-.123-.054-.083-.083-.157-.249-.194-.449l-.006-.039.017-.41c.018-.051.04-.092.071-.114a.09.09 0 0 1 .041-.017c.033-.006.068.007.103.034.012-.122.165-1.121 1.124-1.032 0 0 .842.31 1.609.037h.237c.317.012.535.177.763.282-.009-.105-.089-.211-.086-.282a.46.46 0 0 1 .101.043c.164.175.322.468.449.946l.004.002c.033-.026.067-.038.1-.032.009.001.016.004.024.007.104.05.149.295.099.574zm2.995 6.271H24.155a5.68 5.68 0 0 1 .227-1.355l.029-.098.04-.122.006-.014v-.001-.001c.599-1.602 1.538-1.665 1.752-1.715.455-.106 1.006-.061 1.3-.153.034.288.874 1.238 1.423 1.832l.234-.922c-.176-.106-.214-.337-.214-.53h.903c0 .194-.038.427-.218.532l.238.919c.55-.595 1.389-1.544 1.423-1.832.294.092.846.046 1.3.153.214.05 1.151.112 1.751 1.709l.048.132v.001l.03.108a7.81 7.81 0 0 1 .242 1.193c.011.055.016.11.02.164z"/></g></g><rect x="24.095" y="39.106" width="10.656" height="11.288" rx=".594" class="D E"/><g clip-path="url(#I)"><rect x="38.107" y="38.75" width="11.368" height="12" rx=".95" class="B"/><g class="C"><path d="M46.335 43.28l.01-.312c-.004-1.52-.895-2.404-2.301-2.497-1.226-.082-2.148.404-2.57 1.213-.142.272-.222.613-.253.983a2.5 2.5 0 0 0-.075.601h.005c-.189.038-.271.42-.192.861.072.404.255.718.424.741.215.576.553 1.137.973 1.545.237.232.5.415.781.527a1.64 1.64 0 0 0 .601.118 1.64 1.64 0 0 0 .601-.118 2.42 2.42 0 0 0 .806-.552c.409-.409.74-.959.95-1.526.161-.048.331-.35.4-.736.073-.421.002-.786-.16-.847zm-.272.903c-.038.214-.122.391-.21.466-.035.029-.072.044-.108.038-.019-.002-.038-.012-.054-.028-.194.604-.564 1.207-1.031 1.572-.278.218-.592.353-.923.353-.324 0-.631-.128-.905-.338-.476-.364-.853-.974-1.05-1.587-.016.015-.034.024-.054.027-.04.007-.083-.012-.123-.054-.083-.083-.157-.249-.194-.449l-.006-.039.017-.41c.018-.051.04-.092.071-.114a.09.09 0 0 1 .042-.017c.033-.006.068.007.103.034.012-.122.165-1.121 1.124-1.032 0 0 .842.31 1.609.037h.237c.317.012.535.177.763.282-.009-.105-.089-.211-.085-.282a.47.47 0 0 1 .101.043c.163.175.322.468.449.946l.004.002c.033-.026.067-.038.1-.032.009.001.016.004.024.007.104.05.149.295.099.574zm2.996 6.271H38.524a5.68 5.68 0 0 1 .227-1.355l.029-.098.04-.122.006-.014v-.001-.001c.599-1.602 1.538-1.665 1.752-1.715.455-.106 1.006-.061 1.3-.153.034.288.874 1.238 1.423 1.832l.234-.922c-.176-.106-.214-.337-.214-.53h.903c0 .194-.038.427-.219.532l.238.919c.55-.595 1.389-1.544 1.423-1.832.294.092.846.046 1.3.153.214.05 1.151.112 1.751 1.709l.048.132v.001l.03.108a7.81 7.81 0 0 1 .242 1.193c.011.055.016.11.02.164z"/></g></g><rect x="38.463" y="39.106" width="10.656" height="11.288" rx=".594" class="D E"/><g clip-path="url(#J)"><rect x="53.87" y="6.875" width="24.632" height="26" rx="1.733" class="B"/><g class="C"><path d="M71.698 16.692l.021-.677c-.008-3.293-1.939-5.208-4.986-5.411-2.656-.177-4.655.875-5.567 2.629-.307.59-.481 1.328-.547 2.129a5.42 5.42 0 0 0-.161 1.301h.011c-.008.011-.016.011-.021.013-.389.069-.566.897-.394 1.851.156.875.553 1.555.918 1.605.465 1.248 1.198 2.462 2.108 3.348.513.503 1.084.899 1.693 1.143.418.164.854.257 1.301.257s.883-.093 1.301-.257c.63-.251 1.219-.666 1.746-1.195.886-.886 1.603-2.079 2.058-3.306.349-.103.717-.759.868-1.595.159-.913.005-1.703-.347-1.836zm-.59 1.957c-.082.463-.264.846-.455 1.01-.077.063-.156.095-.233.082a.2.2 0 0 1-.116-.061c-.421 1.309-1.222 2.616-2.235 3.407-.603.474-1.283.764-1.999.764-.701 0-1.367-.278-1.96-.733-1.031-.788-1.849-2.111-2.275-3.438-.034.032-.074.053-.116.058-.087.016-.18-.026-.267-.116-.18-.18-.341-.54-.421-.973l-.013-.085.037-.889c.04-.111.087-.198.153-.246.026-.021.058-.032.09-.037.071-.013.148.016.222.074.026-.264.357-2.428 2.436-2.235 0 0 1.825.672 3.486.079h.513c.688.027 1.159.383 1.653.611-.018-.228-.193-.458-.185-.611.079.021.151.056.219.093.354.378.698 1.013.973 2.05l.008.005c.071-.055.145-.082.217-.069.019.003.034.008.053.016.225.108.323.64.214 1.243zm6.49 13.59H54.773a12.31 12.31 0 0 1 .492-2.936l.063-.212.087-.264c.008-.016.008-.019.011-.021l.003-.008v-.003-.003c1.299-3.47 3.332-3.608 3.795-3.716.987-.23 2.179-.132 2.817-.331.074.624 1.894 2.682 3.084 3.97l.508-1.997c-.381-.23-.463-.73-.463-1.148h1.957c0 .421-.082.926-.473 1.153l.516 1.992c1.193-1.288 3.01-3.346 3.084-3.97.637.198 1.833.101 2.817.331.463.108 2.494.243 3.793 3.703l.103.286v.003c.003.008.005.013.005.021l.061.212c.233.838.426 1.719.524 2.584a2.73 2.73 0 0 1 .042.354z"/></g></g><rect x="54.52" y="7.525" width="23.332" height="24.7" rx="1.083" stroke-width="1.3" class="D"/><g class="C"><rect x="53.979" y="36.875" width="24.413" height="2" rx="1"/><rect x="58.597" y="40.875" width="15.178" height="1.75" rx=".875"/><path d="M60.543 46.625h-4.714a.65.65 0 0 0-.455.188.64.64 0 0 0-.188.455v4.714a.65.65 0 0 0 .188.455.64.64 0 0 0 .455.188h1.838v-2.04h-.844v-.96h.844v-.732c0-.832.496-1.292 1.255-1.292.363 0 .744.065.744.065v.817h-.419c-.413 0-.541.256-.541.519v.623h.921l-.147.96h-.774v2.04h1.838a.65.65 0 0 0 .455-.188.64.64 0 0 0 .188-.455v-4.714a.65.65 0 0 0-.188-.455.64.64 0 0 0-.455-.188zm8 0h-4.714c-.355 0-.643.288-.643.643v4.714c0 .355.288.643.643.643h4.714c.355 0 .643-.288.643-.643v-4.714c0-.355-.288-.643-.643-.643zm-.655 2.127l.003.114c0 1.161-.884 2.499-2.499 2.499a2.49 2.49 0 0 1-1.349-.394 1.86 1.86 0 0 0 .212.011 1.76 1.76 0 0 0 1.09-.375.88.88 0 0 1-.821-.609.95.95 0 0 0 .396-.016.88.88 0 0 1-.703-.862v-.011a.88.88 0 0 0 .397.111c-.121-.08-.219-.189-.288-.316a.87.87 0 0 1-.104-.415.87.87 0 0 1 .119-.443c.433.533 1.082.881 1.811.919a.88.88 0 0 1 .857-1.08c.253 0 .481.106.641.277a1.72 1.72 0 0 0 .557-.212c-.066.204-.204.375-.386.483a1.73 1.73 0 0 0 .506-.137c-.119.175-.269.331-.441.455zm8.869-2.127h-5.144a.43.43 0 0 0-.427.433v5.135a.43.43 0 0 0 .427.433h5.144a.43.43 0 0 0 .429-.433v-5.135a.43.43 0 0 0-.429-.433zm-3.758 5.143h-.889v-2.863h.891v2.863H73zm-.445-3.254c-.285 0-.516-.232-.516-.516s.23-.516.516-.516.516.232.516.516-.23.516-.516.516zm3.778 3.255h-.889v-1.393c0-.332-.007-.759-.462-.759-.463 0-.534.362-.534.735v1.417h-.889v-2.863h.853v.391h.012c.119-.225.41-.462.843-.462.9 0 1.067.593 1.067 1.365v1.57z"/></g><defs><clipPath id="A"><rect x="9.37" y="8.75" width="11.368" height="12" rx=".95" class="B"/></clipPath><clipPath id="B"><rect x="23.739" y="8.75" width="11.368" height="12" rx=".95" class="B"/></clipPath><clipPath id="C"><rect x="38.107" y="8.75" width="11.368" height="12" rx=".95" class="B"/></clipPath><clipPath id="D"><rect x="9.37" y="23.75" width="11.368" height="12" rx=".95" class="B"/></clipPath><clipPath id="E"><rect x="23.738" y="23.75" width="11.368" height="12" rx=".95" class="B"/></clipPath><clipPath id="F"><rect x="38.107" y="23.75" width="11.368" height="12" rx=".95" class="B"/></clipPath><clipPath id="G"><rect x="9.37" y="38.75" width="11.368" height="12" rx=".95" class="B"/></clipPath><clipPath id="H"><rect x="23.738" y="38.75" width="11.368" height="12" rx=".95" class="B"/></clipPath><clipPath id="I"><rect x="38.107" y="38.75" width="11.368" height="12" rx=".95" class="B"/></clipPath><clipPath id="J"><rect x="53.87" y="6.875" width="24.632" height="26" rx="1.733" class="B"/></clipPath><path id="K" d="M20.322 35.454H9.787a5.68 5.68 0 0 1 .227-1.355l.029-.098.04-.122.006-.014v-.001-.001c.599-1.602 1.538-1.665 1.752-1.715.455-.106 1.006-.061 1.3-.153.034.288.874 1.238 1.423 1.832l.234-.922c-.176-.106-.214-.337-.214-.53h.903c0 .194-.038.427-.218.532l.238.919c.551-.595 1.389-1.544 1.423-1.832.294.092.846.046 1.3.153.214.05 1.151.112 1.75 1.709l.048.132v.001l.03.108c.107.387.197.793.242 1.193.011.055.016.11.02.164z"/><path id="L" d="M34.69 35.454H24.155a5.68 5.68 0 0 1 .227-1.355l.029-.098.04-.122.006-.014v-.001-.001c.599-1.602 1.538-1.665 1.752-1.715.455-.106 1.006-.061 1.3-.153.034.288.874 1.238 1.423 1.832l.234-.922c-.176-.106-.214-.337-.214-.53h.903c0 .194-.038.427-.218.532l.238.919c.55-.595 1.389-1.544 1.423-1.832.294.092.846.046 1.3.153.214.05 1.151.112 1.751 1.709l.048.132v.001l.03.108c.107.387.197.793.242 1.193.011.055.016.11.02.164z"/><path id="M" d="M49.059 35.454H38.524a5.68 5.68 0 0 1 .227-1.355l.029-.098.04-.122.006-.014v-.001-.001c.599-1.602 1.538-1.665 1.752-1.715.455-.106 1.006-.061 1.3-.153.034.288.874 1.238 1.423 1.832l.234-.922c-.176-.106-.214-.337-.214-.53h.903c0 .194-.038.427-.219.532l.238.919c.55-.595 1.389-1.544 1.423-1.832.294.092.846.046 1.3.153.214.05 1.151.112 1.751 1.709l.048.132v.001l.03.108c.107.387.197.793.242 1.193.011.055.016.11.02.164z"/></defs></svg>