<svg xmlns="http://www.w3.org/2000/svg" xmlns:xlink="http://www.w3.org/1999/xlink" width="88" height="60" fill="none" ><style><![CDATA[.B{fill:#fff}.C{stroke:#58707f}.D{fill:#58707f}.E{stroke-width:.713}]]></style><rect x=".6" y=".6" width="86.8" height="58.8" rx="2.4" class="B"/><rect x=".6" y=".6" width="86.8" height="58.8" rx="2.4" stroke="#8796a1" stroke-width="1.2"/><rect x="10" y="6.5" width="16.053" height="17" rx=".833" class="B"/><rect x="10" y="6.5" width="16.053" height="17" rx=".833" class="C"/><g class="D"><path d="M21.843 12.795l.015-.469c-.005-2.28-1.342-3.605-3.451-3.746-1.838-.123-3.223.606-3.854 1.82-.212.408-.333.919-.379 1.474a3.77 3.77 0 0 0-.112.901h.007c-.284.057-.406.63-.287 1.291.108.606.383 1.077.635 1.111.322.864.829 1.705 1.459 2.318.355.348.751.622 1.172.791a2.46 2.46 0 0 0 .901.178 2.46 2.46 0 0 0 .901-.178c.436-.174.844-.461 1.209-.828.613-.613 1.11-1.439 1.425-2.289.242-.071.496-.526.601-1.104.11-.632.004-1.179-.24-1.271zm-.408 1.355c-.057.32-.183.586-.315.699-.053.044-.108.066-.161.057-.029-.004-.057-.018-.081-.042-.291.906-.846 1.811-1.547 2.358-.418.328-.888.529-1.384.529-.485 0-.947-.192-1.357-.507-.714-.546-1.28-1.461-1.575-2.38-.024.022-.051.037-.081.04-.06.011-.124-.018-.185-.081-.125-.125-.236-.373-.291-.674l-.009-.059.026-.615c.027-.077.06-.137.106-.17.018-.015.04-.022.062-.026.05-.009.103.011.154.051.018-.183.247-1.681 1.686-1.547 0 0 1.264.465 2.413.055h.355c.476.018.802.265 1.144.423-.013-.158-.134-.317-.128-.423a.7.7 0 0 1 .152.064c.245.262.483.701.674 1.419l.006.004c.049-.038.101-.057.15-.048a.13.13 0 0 1 .037.011c.156.075.223.443.148.861zm4.493 9.409H10.126a8.52 8.52 0 0 1 .341-2.032l.044-.146.06-.183.009-.02v-.002-.002c.899-2.402 2.307-2.497 2.628-2.573.683-.159 1.509-.092 1.95-.229.051.432 1.311 1.857 2.135 2.748l.351-1.382c-.264-.159-.32-.505-.32-.795h1.355c0 .291-.057.641-.328.798l.357 1.379c.826-.892 2.084-2.316 2.135-2.748.441.137 1.269.07 1.95.229.32.075 1.727.168 2.626 2.563l.071.198v.002l.046.161a11.72 11.72 0 0 1 .363 1.789 1.74 1.74 0 0 1 .029.245z"/><rect x="30.553" y="7.125" width="24.413" height="2" rx="1"/><rect x="30.553" y="11.125" width="15.178" height="1.75" rx=".875"/><path d="M35.91 16.875h-4.714c-.171 0-.334.068-.455.188a.64.64 0 0 0-.188.455v4.714c0 .171.068.334.188.455a.64.64 0 0 0 .455.188h1.838v-2.04h-.844v-.96h.844v-.732c0-.832.496-1.292 1.255-1.292a5.1 5.1 0 0 1 .744.065v.817h-.419c-.413 0-.541.256-.541.519v.623h.921l-.147.96h-.774v2.04h1.838a.64.64 0 0 0 .643-.643v-4.714c0-.171-.068-.334-.188-.455a.64.64 0 0 0-.455-.188zm8 0h-4.714c-.355 0-.643.288-.643.643v4.714c0 .355.288.643.643.643h4.714c.355 0 .643-.288.643-.643v-4.714c0-.355-.288-.643-.643-.643zm-.655 2.127l.003.114c0 1.161-.884 2.499-2.499 2.499a2.49 2.49 0 0 1-1.349-.394 1.86 1.86 0 0 0 .212.011 1.76 1.76 0 0 0 1.09-.375.88.88 0 0 1-.821-.609.95.95 0 0 0 .396-.016.88.88 0 0 1-.703-.863v-.011a.87.87 0 0 0 .396.111c-.12-.08-.219-.189-.288-.317a.87.87 0 0 1-.104-.415.87.87 0 0 1 .119-.443c.433.533 1.082.881 1.811.919a.88.88 0 0 1 1.499-.802 1.72 1.72 0 0 0 .557-.212c-.066.203-.203.375-.386.483a1.73 1.73 0 0 0 .506-.137 1.85 1.85 0 0 1-.441.455zm8.869-2.127H46.98a.43.43 0 0 0-.427.433v5.135a.43.43 0 0 0 .427.433h5.144a.43.43 0 0 0 .429-.433v-5.135a.43.43 0 0 0-.429-.433zm-3.758 5.143h-.889v-2.863h.891v2.863h-.001zm-.445-3.254c-.285 0-.516-.232-.516-.516s.23-.516.516-.516.516.232.516.516-.23.516-.516.516zm3.778 3.255h-.889v-1.393c0-.332-.007-.759-.462-.759-.463 0-.534.362-.534.735v1.417h-.889v-2.863h.853v.391h.012c.119-.225.41-.462.842-.462.9 0 1.067.593 1.067 1.365v1.57z"/></g><g clip-path="url(#A)"><rect x="9.5" y="28" width="11.368" height="12" rx=".95" class="B"/><g class="D"><path d="M17.728 32.53l.01-.312c-.004-1.52-.895-2.403-2.301-2.497-1.226-.082-2.148.404-2.57 1.213-.142.272-.222.613-.253.983a2.5 2.5 0 0 0-.074.601h.005c-.189.038-.271.42-.192.861.072.404.255.718.424.741.215.576.553 1.137.973 1.545.237.232.501.415.781.527a1.64 1.64 0 0 0 .601.118 1.64 1.64 0 0 0 .601-.118 2.42 2.42 0 0 0 .806-.552c.409-.409.74-.959.95-1.526.161-.048.331-.35.4-.736.073-.421.002-.786-.16-.847zm-.272.903c-.038.214-.122.391-.21.466-.035.029-.072.044-.107.038-.02-.002-.038-.012-.054-.028-.194.604-.564 1.207-1.032 1.572-.278.218-.592.353-.923.353-.323 0-.631-.128-.905-.338-.476-.364-.853-.974-1.05-1.587-.016.015-.034.024-.054.027-.04.007-.083-.012-.123-.054-.083-.083-.158-.249-.194-.449l-.006-.039.017-.41c.018-.051.04-.092.071-.114a.09.09 0 0 1 .041-.017c.033-.006.068.007.103.034.012-.122.165-1.121 1.124-1.031 0 0 .842.31 1.609.037h.237c.317.012.535.177.763.282-.009-.105-.089-.211-.085-.282a.47.47 0 0 1 .101.043c.164.174.322.467.449.946l.004.002c.033-.026.067-.038.1-.032.009.001.016.004.024.007.104.05.149.295.099.574z"/><use xlink:href="#G"/></g></g><rect x="9.856" y="28.356" width="10.656" height="11.288" rx=".594" class="C E"/><rect x="24.225" y="28.356" width="10.656" height="11.288" rx=".594" class="B"/><rect x="24.225" y="28.356" width="10.656" height="11.288" rx=".594" class="C E"/><g class="D"><path d="M32.097 32.53l.01-.312c-.004-1.52-.895-2.403-2.301-2.497-1.226-.082-2.148.404-2.57 1.213-.142.272-.222.613-.253.983a2.5 2.5 0 0 0-.074.601h.005c-.189.038-.271.42-.192.861.072.404.255.718.424.741.215.576.553 1.137.973 1.545.237.232.5.415.781.527a1.64 1.64 0 0 0 .601.118 1.64 1.64 0 0 0 .601-.118 2.42 2.42 0 0 0 .806-.552c.409-.409.74-.959.95-1.526.161-.048.331-.35.4-.736.073-.421.002-.786-.16-.847zm-.272.903c-.038.214-.122.391-.21.466-.035.029-.072.044-.107.038-.02-.002-.038-.012-.054-.028-.194.604-.564 1.207-1.031 1.572-.278.218-.592.353-.923.353-.323 0-.631-.128-.904-.338-.476-.364-.853-.974-1.05-1.587-.016.015-.034.024-.054.027-.04.007-.083-.012-.123-.054-.083-.083-.157-.249-.194-.449l-.006-.039.017-.41c.018-.051.04-.092.071-.114.012-.01.027-.015.041-.017.033-.006.068.007.102.034.012-.122.165-1.121 1.124-1.031 0 0 .842.31 1.609.037h.237c.317.012.535.177.763.282-.009-.105-.089-.211-.085-.282a.47.47 0 0 1 .101.043c.164.174.322.467.449.946l.004.002c.033-.026.067-.038.1-.032.009.001.016.004.024.007.104.05.149.295.099.574z"/><use xlink:href="#H"/></g><g clip-path="url(#B)"><rect x="38.237" y="28" width="11.368" height="12" rx=".95" class="B"/><g class="D"><path d="M46.465 32.53l.01-.312c-.004-1.52-.895-2.403-2.301-2.497-1.226-.082-2.148.404-2.57 1.213-.142.272-.222.613-.253.983a2.5 2.5 0 0 0-.074.601h.005c-.189.038-.271.42-.192.861.072.404.255.718.424.741.215.576.553 1.137.973 1.545.237.232.501.415.781.527a1.64 1.64 0 0 0 .6.118 1.64 1.64 0 0 0 .601-.118 2.42 2.42 0 0 0 .806-.552c.409-.409.74-.959.95-1.526.161-.048.331-.35.4-.736.073-.421.002-.786-.16-.847zm-.272.903c-.038.214-.122.391-.21.466-.035.029-.072.044-.107.038-.02-.002-.038-.012-.054-.028-.194.604-.564 1.207-1.032 1.572-.278.218-.592.353-.923.353-.324 0-.631-.128-.904-.338-.476-.364-.853-.974-1.05-1.587-.016.015-.034.024-.054.027-.04.007-.083-.012-.123-.054-.083-.083-.157-.249-.194-.449l-.006-.039.017-.41c.018-.051.04-.092.071-.114.012-.01.027-.015.041-.017.033-.006.068.007.102.034.012-.122.165-1.121 1.124-1.031 0 0 .842.31 1.609.037h.237c.317.012.535.177.763.282-.008-.105-.089-.211-.085-.282a.47.47 0 0 1 .101.043c.164.174.322.467.449.946l.004.002c.033-.026.067-.038.1-.032.009.001.016.004.024.007.104.05.149.295.099.574z"/><use xlink:href="#I"/></g></g><rect x="38.593" y="28.356" width="10.656" height="11.288" rx=".594" class="C E"/><g clip-path="url(#C)"><rect x="52.605" y="28" width="11.368" height="12" rx=".95" class="B"/><g class="D"><path d="M60.834 32.53l.01-.312c-.004-1.52-.895-2.403-2.301-2.497-1.226-.082-2.148.404-2.569 1.213-.142.272-.222.613-.253.983a2.5 2.5 0 0 0-.075.601h.005c-.189.038-.271.42-.192.861.072.404.255.718.424.741.215.576.553 1.137.973 1.545.237.232.5.415.781.527a1.64 1.64 0 0 0 .601.118 1.64 1.64 0 0 0 .601-.118 2.42 2.42 0 0 0 .806-.552c.409-.409.74-.959.95-1.526.161-.048.331-.35.4-.736.073-.421.002-.786-.16-.847zm-.272.903c-.038.214-.122.391-.21.466-.035.029-.072.044-.107.038-.019-.002-.038-.012-.054-.028-.194.604-.564 1.207-1.031 1.572-.278.218-.592.353-.923.353-.323 0-.631-.128-.904-.338-.476-.364-.853-.974-1.05-1.587-.016.015-.034.024-.054.027-.04.007-.083-.012-.123-.054-.083-.083-.157-.249-.194-.449l-.006-.039.017-.41c.018-.051.04-.092.071-.114.012-.01.027-.015.042-.017.033-.006.068.007.102.034.012-.122.165-1.121 1.124-1.031 0 0 .842.31 1.609.037h.237c.317.012.535.177.763.282-.009-.105-.089-.211-.085-.282a.47.47 0 0 1 .101.043c.164.174.322.467.449.946l.004.002c.033-.026.067-.038.1-.032.009.001.016.004.024.007.104.05.149.295.099.574zm2.995 6.271H53.022a5.68 5.68 0 0 1 .227-1.355l.029-.098.04-.122.006-.014v-.001-.001c.599-1.602 1.538-1.665 1.752-1.715.455-.106 1.006-.061 1.3-.153.034.288.874 1.238 1.423 1.832l.234-.922c-.176-.106-.214-.337-.214-.53h.903c0 .194-.038.427-.219.532l.238.919c.551-.595 1.389-1.544 1.423-1.832.294.092.846.046 1.3.153.214.05 1.151.112 1.751 1.709l.048.132v.001l.03.108a7.81 7.81 0 0 1 .242 1.193c.011.055.016.11.02.164z"/></g></g><rect x="52.962" y="28.356" width="10.656" height="11.288" rx=".594" class="C E"/><rect x="67.33" y="28.356" width="10.656" height="11.288" rx=".594" class="B"/><rect x="67.33" y="28.356" width="10.656" height="11.288" rx=".594" class="C E"/><g class="D"><path d="M75.202 32.53l.01-.312c-.004-1.52-.895-2.403-2.301-2.497-1.226-.082-2.148.404-2.57 1.213-.142.272-.222.613-.253.983a2.5 2.5 0 0 0-.074.601h.005c-.189.038-.271.42-.192.861.072.404.255.718.424.741.215.576.553 1.137.973 1.545.237.232.501.415.781.527a1.64 1.64 0 0 0 .601.118 1.64 1.64 0 0 0 .601-.118 2.42 2.42 0 0 0 .806-.552c.409-.409.74-.959.95-1.526.161-.048.331-.35.4-.736.073-.421.002-.786-.16-.847zm-.272.903c-.038.214-.122.391-.21.466-.035.029-.072.044-.107.038-.019-.002-.038-.012-.054-.028-.194.604-.564 1.207-1.032 1.572-.278.218-.592.353-.923.353-.323 0-.631-.128-.904-.338-.476-.364-.853-.974-1.05-1.587-.016.015-.034.024-.054.027-.04.007-.083-.012-.123-.054-.083-.083-.157-.249-.194-.449l-.006-.039.017-.41c.018-.051.04-.092.071-.114.012-.01.027-.015.041-.017.033-.006.068.007.103.034.012-.122.165-1.121 1.124-1.031 0 0 .842.31 1.609.037h.237c.317.012.535.177.763.282-.008-.105-.089-.211-.085-.282a.47.47 0 0 1 .101.043c.164.174.322.467.449.946l.004.002c.033-.026.067-.038.1-.032.008.001.016.004.024.007.104.05.149.295.099.574z"/><use xlink:href="#J"/></g><g clip-path="url(#D)"><rect x="9.5" y="42" width="11.368" height="12" rx=".95" class="B"/><g class="D"><path d="M17.728 46.53l.01-.312c-.004-1.52-.895-2.404-2.301-2.497-1.226-.082-2.148.404-2.57 1.213-.142.272-.222.613-.253.983a2.5 2.5 0 0 0-.074.601h.005c-.189.038-.271.42-.192.861.072.404.255.718.424.741.215.576.553 1.137.973 1.545.237.232.501.415.781.527a1.64 1.64 0 0 0 .601.118 1.64 1.64 0 0 0 .601-.118 2.42 2.42 0 0 0 .806-.552c.409-.409.74-.959.95-1.526.161-.048.331-.35.4-.736.073-.421.002-.786-.16-.847zm-.272.903c-.038.214-.122.391-.21.466-.035.029-.072.044-.107.038-.02-.002-.038-.012-.054-.028-.194.604-.564 1.207-1.032 1.572-.278.218-.592.353-.923.353-.323 0-.631-.128-.904-.338-.476-.364-.853-.974-1.05-1.587-.016.015-.034.024-.054.027-.04.007-.083-.012-.123-.054-.083-.083-.157-.249-.194-.449l-.006-.039.017-.41c.018-.051.04-.092.071-.114a.09.09 0 0 1 .042-.017c.033-.006.068.007.103.034.012-.122.165-1.121 1.124-1.032 0 0 .842.31 1.609.037h.237c.317.012.535.177.763.282-.009-.105-.089-.211-.085-.282a.47.47 0 0 1 .101.043c.164.175.322.468.449.946l.004.002c.033-.026.067-.038.1-.032.009.001.016.004.024.007.104.05.149.295.099.574zm2.996 6.271H9.917a5.68 5.68 0 0 1 .227-1.355l.029-.098.04-.122.006-.014v-.001-.001c.599-1.602 1.538-1.665 1.752-1.715.455-.106 1.006-.061 1.3-.153.034.288.874 1.238 1.423 1.832l.234-.922c-.176-.106-.214-.337-.214-.53h.903c0 .194-.038.427-.219.532l.238.919c.55-.595 1.389-1.544 1.423-1.832.294.092.846.046 1.3.153.214.05 1.151.112 1.751 1.709l.048.132v.001l.03.108a7.81 7.81 0 0 1 .242 1.193 1.16 1.16 0 0 1 .019.164z"/></g></g><rect x="9.856" y="42.356" width="10.656" height="11.288" rx=".594" class="C E"/><rect x="24.225" y="42.356" width="10.656" height="11.288" rx=".594" class="B"/><rect x="24.225" y="42.356" width="10.656" height="11.288" rx=".594" class="C E"/><g class="D"><path d="M32.097 46.53l.01-.312c-.004-1.52-.895-2.404-2.301-2.497-1.226-.082-2.148.404-2.57 1.213-.142.272-.222.613-.253.983a2.5 2.5 0 0 0-.075.601h.005c-.189.038-.271.42-.192.861.072.404.255.718.423.741.215.576.553 1.137.973 1.545.237.232.5.415.781.527a1.64 1.64 0 0 0 .601.118 1.64 1.64 0 0 0 .601-.118c.291-.116.563-.308.806-.552.409-.409.74-.959.95-1.526.161-.048.331-.35.4-.736.073-.421.002-.786-.16-.847zm-.272.903c-.038.214-.122.391-.21.466-.035.029-.072.044-.107.038-.02-.002-.038-.012-.054-.028-.194.604-.564 1.207-1.031 1.572-.278.218-.592.353-.923.353-.323 0-.631-.128-.905-.338-.476-.364-.853-.974-1.05-1.587-.016.015-.034.024-.054.027-.04.007-.083-.012-.123-.054-.083-.083-.157-.249-.194-.449l-.006-.039.017-.41c.018-.051.04-.092.071-.114a.09.09 0 0 1 .042-.017c.033-.006.068.007.103.034.012-.122.165-1.121 1.124-1.032 0 0 .842.31 1.609.037h.237c.317.012.535.177.763.282-.009-.105-.089-.211-.085-.282a.47.47 0 0 1 .101.043c.163.175.322.468.449.946l.004.002c.033-.026.067-.038.1-.032.009.001.016.004.024.007.104.05.149.295.099.574z"/><use xlink:href="#H" y="14"/></g><g clip-path="url(#E)"><rect x="38.237" y="42" width="11.368" height="12" rx=".95" class="B"/><g class="D"><path d="M46.465 46.53l.01-.312c-.004-1.52-.895-2.404-2.301-2.497-1.226-.082-2.148.404-2.57 1.213-.142.272-.222.613-.253.983a2.48 2.48 0 0 0-.075.601h.005c-.189.038-.271.42-.192.861.072.404.255.718.424.741.215.576.553 1.137.973 1.545.237.232.5.415.781.527a1.64 1.64 0 0 0 .601.118 1.64 1.64 0 0 0 .601-.118 2.42 2.42 0 0 0 .806-.552c.409-.409.74-.959.95-1.526.161-.048.331-.35.4-.736.073-.421.002-.786-.16-.847zm-.272.903c-.038.214-.122.391-.21.466-.035.029-.072.044-.107.038-.02-.002-.038-.012-.054-.028-.194.604-.564 1.207-1.032 1.572-.278.218-.592.353-.923.353-.323 0-.631-.128-.905-.338-.476-.364-.853-.974-1.05-1.587-.016.015-.034.024-.054.027-.04.007-.083-.012-.123-.054-.083-.083-.157-.249-.194-.449l-.006-.039.017-.41c.018-.051.04-.092.071-.114.012-.01.027-.015.041-.017.033-.006.068.007.102.034.012-.122.165-1.121 1.124-1.032 0 0 .842.31 1.609.037h.237c.317.012.535.177.763.282-.009-.105-.089-.211-.085-.282a.47.47 0 0 1 .101.043c.164.175.322.468.449.946l.004.002c.033-.026.067-.038.1-.032.008.001.016.004.024.007.104.05.149.295.099.574zm2.996 6.271H38.654a5.68 5.68 0 0 1 .227-1.355l.029-.098.04-.122.006-.014v-.001-.001c.599-1.602 1.538-1.665 1.752-1.715.455-.106 1.006-.061 1.3-.153.034.288.874 1.238 1.423 1.832l.234-.922c-.176-.106-.214-.337-.214-.53h.903c0 .194-.038.427-.218.532l.238.919c.55-.595 1.389-1.544 1.423-1.832.294.092.846.046 1.3.153.214.05 1.151.112 1.751 1.709l.048.132v.001l.031.108a7.81 7.81 0 0 1 .242 1.193c.011.055.016.11.02.164z"/></g></g><rect x="38.593" y="42.356" width="10.656" height="11.288" rx=".594" class="C E"/><g clip-path="url(#F)"><rect x="52.605" y="42" width="11.368" height="12" rx=".95" class="B"/><g class="D"><path d="M60.833 46.53l.01-.312c-.004-1.52-.895-2.404-2.301-2.497-1.226-.082-2.148.404-2.57 1.213-.142.272-.222.613-.253.983a2.5 2.5 0 0 0-.075.601h.005c-.189.038-.271.42-.192.861.072.404.255.718.424.741.215.576.553 1.137.973 1.545.237.232.501.415.781.527a1.64 1.64 0 0 0 .601.118 1.64 1.64 0 0 0 .601-.118 2.42 2.42 0 0 0 .806-.552c.409-.409.74-.959.95-1.526.161-.048.331-.35.4-.736.073-.421.003-.786-.16-.847zm-.272.903c-.038.214-.122.391-.21.466-.035.029-.072.044-.107.038-.02-.002-.038-.012-.054-.028-.194.604-.564 1.207-1.032 1.572-.278.218-.592.353-.923.353-.323 0-.631-.128-.904-.338-.476-.364-.853-.974-1.05-1.587-.016.015-.034.024-.054.027-.04.007-.083-.012-.123-.054-.083-.083-.157-.249-.194-.449l-.006-.039.017-.41c.018-.051.04-.092.071-.114.012-.01.027-.015.041-.017.033-.006.068.007.102.034.012-.122.165-1.121 1.124-1.032 0 0 .842.31 1.609.037h.237c.317.012.535.177.763.282-.009-.105-.089-.211-.085-.282a.47.47 0 0 1 .101.043c.164.175.322.468.449.946l.004.002c.033-.026.067-.038.1-.032.009.001.016.004.024.007.104.05.149.295.099.574zm2.996 6.271H53.022a5.68 5.68 0 0 1 .227-1.355l.029-.098.04-.122.006-.014v-.001-.001c.599-1.602 1.538-1.665 1.752-1.715.455-.106 1.006-.061 1.3-.153.034.288.874 1.238 1.423 1.832l.234-.922c-.176-.106-.214-.337-.214-.53h.903c0 .194-.038.427-.218.532l.238.919c.55-.595 1.389-1.544 1.423-1.832.294.092.846.046 1.3.153.214.05 1.151.112 1.75 1.709l.048.132v.001l.03.108a7.69 7.69 0 0 1 .242 1.193c.011.055.016.11.02.164z"/></g></g><rect x="52.962" y="42.356" width="10.656" height="11.288" rx=".594" class="C E"/><rect x="67.33" y="42.356" width="10.656" height="11.288" rx=".594" class="B"/><rect x="67.33" y="42.356" width="10.656" height="11.288" rx=".594" class="C E"/><g class="D"><path d="M75.202 46.53l.01-.312c-.004-1.52-.895-2.404-2.301-2.497-1.226-.082-2.148.404-2.57 1.213-.142.272-.222.613-.253.983a2.5 2.5 0 0 0-.075.601h.005c-.189.038-.271.42-.192.861.072.404.255.718.424.741.215.576.553 1.137.973 1.545.237.232.501.415.781.527a1.64 1.64 0 0 0 .601.118 1.64 1.64 0 0 0 .601-.118 2.42 2.42 0 0 0 .806-.552c.409-.409.74-.959.95-1.526.161-.048.331-.35.4-.736.073-.421.002-.786-.16-.847zm-.272.903c-.038.214-.122.391-.21.466-.035.029-.072.044-.107.038-.02-.002-.038-.012-.054-.028-.194.604-.564 1.207-1.031 1.572-.278.218-.592.353-.923.353-.324 0-.631-.128-.904-.338-.476-.364-.853-.974-1.05-1.587-.016.015-.034.024-.054.027-.04.007-.083-.012-.123-.054-.083-.083-.157-.249-.194-.449l-.006-.039.017-.41c.018-.051.04-.092.071-.114a.09.09 0 0 1 .041-.017c.033-.006.068.007.103.034.012-.122.165-1.121 1.124-1.032 0 0 .842.31 1.609.037h.237c.317.012.535.177.763.282-.008-.105-.089-.211-.085-.282a.47.47 0 0 1 .101.043c.164.175.322.468.449.946l.004.002c.033-.026.067-.038.1-.032.008.001.016.004.024.007.104.05.149.295.099.574z"/><use xlink:href="#J" y="14"/></g><defs><clipPath id="A"><rect x="9.5" y="28" width="11.368" height="12" rx=".95" class="B"/></clipPath><clipPath id="B"><rect x="38.237" y="28" width="11.368" height="12" rx=".95" class="B"/></clipPath><clipPath id="C"><rect x="52.605" y="28" width="11.368" height="12" rx=".95" class="B"/></clipPath><clipPath id="D"><rect x="9.5" y="42" width="11.368" height="12" rx=".95" class="B"/></clipPath><clipPath id="E"><rect x="38.237" y="42" width="11.368" height="12" rx=".95" class="B"/></clipPath><clipPath id="F"><rect x="52.605" y="42" width="11.368" height="12" rx=".95" class="B"/></clipPath><path id="G" d="M20.452 39.704H9.917a5.68 5.68 0 0 1 .227-1.355l.029-.098.04-.122.006-.014v-.001-.001c.599-1.602 1.538-1.665 1.752-1.715.455-.106 1.006-.061 1.3-.153.034.288.874 1.238 1.423 1.832l.234-.922c-.176-.106-.214-.337-.214-.53h.903c0 .194-.038.427-.219.532l.238.919c.55-.595 1.389-1.544 1.423-1.832.294.092.846.046 1.3.153.214.05 1.151.112 1.751 1.709l.048.132v.001l.03.108c.107.387.197.793.242 1.193.011.055.016.11.019.164z"/><path id="H" d="M34.82 39.704H24.285a5.68 5.68 0 0 1 .227-1.355l.029-.098.04-.122.006-.014v-.001-.001c.599-1.602 1.538-1.665 1.752-1.715.455-.106 1.006-.061 1.3-.153.034.288.874 1.238 1.423 1.832l.234-.922c-.176-.106-.214-.337-.214-.53h.903c0 .194-.038.427-.219.532l.238.919c.55-.595 1.389-1.544 1.423-1.832.294.092.846.046 1.3.153.214.05 1.151.112 1.751 1.709l.048.132v.001l.031.108c.107.387.197.793.242 1.193.011.055.016.11.019.164z"/><path id="I" d="M49.189 39.704H38.654a5.68 5.68 0 0 1 .227-1.355l.029-.098.04-.122.006-.014v-.001-.001c.599-1.602 1.538-1.665 1.752-1.715.455-.106 1.006-.061 1.3-.153.034.288.874 1.238 1.423 1.832l.234-.922c-.176-.106-.214-.337-.214-.53h.903c0 .194-.038.427-.218.532l.238.919c.55-.595 1.389-1.544 1.423-1.832.294.092.846.046 1.3.153.214.05 1.151.112 1.751 1.709l.048.132v.001l.031.108c.107.387.197.793.242 1.193.011.055.016.11.02.164z"/><path id="J" d="M77.925 39.704H67.391a5.68 5.68 0 0 1 .227-1.355l.029-.098.04-.122.006-.014v-.001-.001c.599-1.602 1.538-1.665 1.752-1.715.455-.106 1.006-.061 1.3-.153.034.288.874 1.238 1.423 1.832l.234-.922c-.176-.106-.214-.337-.214-.53h.903c0 .194-.038.427-.219.532l.238.919c.55-.595 1.389-1.544 1.423-1.832.294.092.846.046 1.3.153.214.05 1.151.112 1.751 1.709l.048.132v.001l.03.108c.107.387.197.793.242 1.193.011.055.016.11.019.164z"/></defs></svg>