<svg xmlns="http://www.w3.org/2000/svg" xmlns:xlink="http://www.w3.org/1999/xlink" width="164" height="28" viewBox="0 0 164 28">
    <defs>
        <path id="a" d="M.125.269H13.89v21.412H.125z"/>
        <path id="c" d="M.05.18H10.64v14.5H.05z"/>
        <path id="e" d="M0 .269h21.852v21.412H0z"/>
    </defs>
    <g fill="none" fill-rule="evenodd">
        <path fill="#262D57" d="M31.04 16.713c.787.776 1.789 1.164 3.005 1.164s2.218-.388 3.006-1.164c.787-.775 1.181-1.768 1.181-2.977 0-1.188-.394-2.17-1.181-2.946-.788-.775-1.79-1.163-3.006-1.163-1.216 0-2.218.388-3.006 1.163-.787.776-1.181 1.758-1.181 2.946 0 1.21.394 2.202 1.181 2.977zm7.192-10.29H42v14.385c0 2.337-.762 4.12-2.288 5.349C38.187 27.386 36.348 28 34.195 28c-1.615 0-3.036-.312-4.262-.937a6.508 6.508 0 0 1-2.826-2.75l3.29-1.903c.757 1.41 2.063 2.115 3.917 2.115 1.216 0 2.173-.322 2.871-.967s1.047-1.561 1.047-2.75v-1.632c-1.137 1.532-2.732 2.297-4.785 2.297-2.113 0-3.883-.75-5.309-2.252-1.425-1.5-2.138-3.329-2.138-5.485 0-2.135.718-3.958 2.153-5.47C29.59 6.757 31.353 6 33.447 6c2.053 0 3.648.766 4.785 2.297V6.424z"/>
        <g transform="translate(45)">
            <mask id="b" fill="#fff">
                <use xlink:href="#a"/>
            </mask>
            <path fill="#262D57" d="M8.32 5.958c1.61 0 2.942.561 3.993 1.683 1.051 1.121 1.577 2.671 1.577 4.649v9.39h-3.802v-8.9c0-1.02-.265-1.8-.796-2.341-.53-.54-1.238-.81-2.122-.81-.983 0-1.769.316-2.359.948-.589.632-.883 1.58-.883 2.844v8.26H.125V.269h3.803v7.83c.923-1.427 2.387-2.14 4.391-2.14" mask="url(#b)"/>
        </g>
        <path fill="#262D57" d="M70 9.788h-4.022v6.136c0 .51.133.884.401 1.12.267.237.658.37 1.172.399.513.029 1.15.025 1.912-.015v3.451c-2.734.295-4.662.049-5.782-.737C62.56 19.355 62 17.949 62 15.924V3.15L65.978 2v4.13h2.604L70 9.788zM82.754 6H87l-5.61 15.014c-.8 2.14-1.86 3.696-3.18 4.666-1.322.97-2.967 1.405-4.933 1.306v-3.598c1.066.02 1.913-.2 2.538-.66.626-.46 1.124-1.199 1.493-2.218L71 6h4.338l4.013 10.075L82.754 6zM109.486 19.576c1.422 0 2.618-.485 3.586-1.455.968-.97 1.451-2.176 1.451-3.621 0-1.445-.483-2.652-1.451-3.622-.968-.97-2.164-1.454-3.586-1.454-1.405 0-2.59.484-3.558 1.454s-1.452 2.177-1.452 3.622c0 1.445.484 2.652 1.452 3.621.968.97 2.153 1.455 3.558 1.455m5.322.256c-1.461 1.445-3.235 2.168-5.322 2.168-2.088 0-3.857-.723-5.309-2.168C102.726 18.388 102 16.61 102 14.5s.726-3.888 2.177-5.333C105.63 7.723 107.397 7 109.486 7c2.087 0 3.86.723 5.322 2.167C116.27 10.612 117 12.39 117 14.5c0 2.11-.73 3.888-2.192 5.332M122.506 9.558C123.331 7.852 124.83 7 127 7v2.503c-1.229-.055-2.285.257-3.169.935-.883.678-1.325 1.77-1.325 3.273V21H120V7.247h2.506v2.31zM144.577 7c1.615 0 2.923.531 3.923 1.594 1 1.062 1.5 2.5 1.5 4.312V22h-2.51v-9.006c0-1.13-.288-2.007-.865-2.631-.577-.624-1.347-.936-2.308-.936-1.077 0-1.937.365-2.581 1.096-.645.731-.967 1.848-.967 3.349V22h-2.51v-9.006c0-1.13-.273-2.007-.822-2.631-.547-.624-1.293-.936-2.235-.936-1.058 0-1.938.37-2.64 1.111-.702.741-1.052 1.853-1.052 3.334V22H129V7.38h2.51V9.34C132.49 7.78 133.922 7 135.807 7c1.943 0 3.356.83 4.24 2.485 1-1.656 2.51-2.485 4.53-2.485"/>
        <g transform="translate(153 7)">
            <mask id="d" fill="#fff">
                <use xlink:href="#c"/>
            </mask>
            <path fill="#262D57" d="M2.958 4.22c0 .52.27.938.808 1.252.538.315 1.18.582 1.926.802l2.249.664c.754.223 1.392.64 1.914 1.251.523.612.784 1.397.784 2.356 0 1.25-.48 2.251-1.44 3.005-.96.753-2.19 1.13-3.69 1.13-1.335 0-2.478-.294-3.429-.883C1.13 13.21.452 12.428.05 11.455l2.058-1.185c.219.66.63 1.185 1.234 1.57.603.386 1.326.58 2.167.58.786 0 1.435-.152 1.948-.455.512-.302.768-.775.768-1.417 0-.532-.266-.958-.797-1.28-.53-.321-1.169-.593-1.914-.818L3.265 7.77A4.17 4.17 0 0 1 1.34 6.548C.81 5.96.543 5.206.543 4.288c0-1.195.462-2.178 1.386-2.95C2.852.566 4.01.181 5.4.181c1.116 0 2.108.252 2.977.757a4.85 4.85 0 0 1 1.962 2.11l-2.003 1.13C7.84 3.002 6.862 2.413 5.399 2.413c-.677 0-1.253.157-1.728.472-.476.315-.713.759-.713 1.334" mask="url(#d)"/>
        </g>
        <path fill="#262D57" d="M100.575 10h-8.037V3.514H101V1H90v20h2.538v-8.485h7.438c.1-.887.295-1.727.599-2.515"/>
        <g>
            <mask id="f" fill="#fff">
                <use xlink:href="#e"/>
            </mask>
            <path fill="#262D57" d="M21.852.269h-5.567l-5.567 6.177L5.121.27H0V21.68h4.572V7.846l5.9 5.965.482-.017z" mask="url(#f)"/>
        </g>
        <path fill="#262D57" d="M20.484 11c-.671 0-1.253-.246-1.745-.74C18.246 9.769 18 9.188 18 8.517s.246-1.258.74-1.762C19.23 6.251 19.812 6 20.483 6c.692 0 1.284.251 1.777.754.492.504.739 1.09.739 1.762 0 .67-.247 1.252-.74 1.745a2.422 2.422 0 0 1-1.776.739M19.972 13.49A4.109 4.109 0 0 1 18 13.005V22h4v-9a4.256 4.256 0 0 1-2.028.49"/>
    </g>
</svg>
