<svg width="20" height="20" viewBox="0 0 20 20" fill="none" xmlns="http://www.w3.org/2000/svg">
<path fill-rule="evenodd" clip-rule="evenodd" d="M17.5 0C18.8807 0 20 1.11929 20 2.5V6.25C20 7.63071 18.8807 8.75 17.5 8.75H13.75C12.3693 8.75 11.25 7.63071 11.25 6.25V2.5C11.25 1.11929 12.3693 0 13.75 0H17.5Z" fill="currentColor"/>
<path fill-rule="evenodd" clip-rule="evenodd" d="M6.25 0C7.63071 0 8.75 1.11929 8.75 2.5V6.25C8.75 7.63071 7.63071 8.75 6.25 8.75H2.5C1.11929 8.75 0 7.63071 0 6.25V2.5C0 1.11929 1.11929 0 2.5 0H6.25Z" fill="currentColor"/>
<path fill-rule="evenodd" clip-rule="evenodd" d="M6.25 11.25C7.63071 11.25 8.75 12.3693 8.75 13.75V17.5C8.75 18.8807 7.63071 20 6.25 20H2.5C1.11929 20 0 18.8807 0 17.5V13.75C0 12.3693 1.11929 11.25 2.5 11.25H6.25Z" fill="currentColor"/>
<path fill-rule="evenodd" clip-rule="evenodd" d="M17.5 11.25C18.8807 11.25 20 12.3693 20 13.75V17.5C20 18.8807 18.8807 20 17.5 20H13.75C12.3693 20 11.25 18.8807 11.25 17.5V13.75C11.25 12.3693 12.3693 11.25 13.75 11.25H17.5Z" fill="currentColor"/>
</svg>
