<svg width="8" height="16" viewBox="0 0 8 16" fill="none" xmlns="http://www.w3.org/2000/svg">
<path d="M0.142787 11.9674L3.55548 15.803C3.61049 15.8648 3.67873 15.9144 3.75551 15.9484C3.8323 15.9824 3.91581 16 4.00032 16C4.08483 16 4.16835 15.9824 4.24513 15.9484C4.32191 15.9144 4.39015 15.8648 4.44516 15.803L7.85786 11.9674C8.18355 11.6013 7.91352 11.0358 7.41302 11.0358H0.586647C0.0861442 11.0358 -0.183883 11.6013 0.142787 11.9674Z" fill="#8C8C8C"/>
<path d="M7.85721 4.03258L4.44452 0.19701C4.38951 0.135219 4.32127 0.0856184 4.24449 0.0516126C4.1677 0.0176067 4.08419 0 3.99968 0C3.91517 0 3.83165 0.0176067 3.75487 0.0516126C3.67809 0.0856184 3.60985 0.135219 3.55484 0.19701L0.142143 4.03258C-0.18355 4.39869 0.0864772 4.96419 0.58698 4.96419H7.41335C7.91386 4.96419 8.18388 4.39869 7.85721 4.03258Z" fill="#8C8C8C"/>
</svg>
