<svg width="14" height="14" viewBox="0 0 14 14" fill="none" xmlns="http://www.w3.org/2000/svg">
<path d="M13 13.75H1C0.585786 13.75 0.25 13.4142 0.25 13V7.525C0.25 7.30894 0.34324 7.10338 0.50575 6.961L1.75 5.875V1C1.75 0.585786 2.08579 0.25 2.5 0.25H13C13.4142 0.25 13.75 0.585786 13.75 1V13C13.75 13.4142 13.4142 13.75 13 13.75ZM4.75 3.49675C4.93159 3.49696 5.10694 3.56305 5.2435 3.68275L8.9935 6.964C9.1555 7.10556 9.24892 7.30987 9.25 7.525V12.25H12.25V1.75H3.25V4.5625L4.25575 3.682C4.39261 3.5624 4.56825 3.49657 4.75 3.49675ZM4 10H5.5V12.25H7.75V7.86775L4.75 5.24275L1.75 7.86775V12.25H4V10Z" fill="white"/>
</svg>
