<svg width="16" height="16" viewBox="0 0 16 16" fill="none" xmlns="http://www.w3.org/2000/svg">
<path fill-rule="evenodd" clip-rule="evenodd" d="M4.25 2.75C4.25 1.50736 5.25736 0.5 6.5 0.5C7.74264 0.5 8.75 1.50736 8.75 2.75V3.5H11.75C12.1642 3.5 12.5 3.83579 12.5 4.25V7.25H13.25C14.4926 7.25 15.5 8.25736 15.5 9.5C15.5 10.7426 14.4926 11.75 13.25 11.75H12.5V14.75C12.5 15.1642 12.1642 15.5 11.75 15.5H7.25V13.25C7.25 12.8358 6.91421 12.5 6.5 12.5C6.08579 12.5 5.75 12.8358 5.75 13.25V15.5H1.25C0.835786 15.5 0.5 15.1642 0.5 14.75V10.25H2.75C3.16421 10.25 3.5 9.91421 3.5 9.5C3.5 9.08579 3.16421 8.75 2.75 8.75H0.5V4.25C0.5 3.83579 0.835786 3.5 1.25 3.5H4.25V2.75ZM6.5 2C6.08579 2 5.75 2.33579 5.75 2.75V5H2.225C2.10074 5 2 5.10074 2 5.225V7.25H2.75C3.99264 7.25 5 8.25736 5 9.5C5 10.7426 3.99264 11.75 2.75 11.75H2V13.775C2 13.8993 2.10074 14 2.225 14H4.25V13.25C4.25 12.0074 5.25736 11 6.5 11C7.74264 11 8.75 12.0074 8.75 13.25V14H10.775C10.8993 14 11 13.8993 11 13.775V10.25H13.25C13.6642 10.25 14 9.91421 14 9.5C14 9.08579 13.6642 8.75 13.25 8.75H11V5.225C11 5.10074 10.8993 5 10.775 5H7.25V2.75C7.25 2.33579 6.91421 2 6.5 2Z" fill="white"/>
</svg>