<svg width="16" height="13" viewBox="0 0 16 13" fill="none" xmlns="http://www.w3.org/2000/svg">
<path fill-rule="evenodd" clip-rule="evenodd" d="M0.351074 13H2.05086C2.05086 11.1224 3.5729 9.60041 5.45043 9.60041C7.32797 9.60041 8.85001 11.1224 8.85001 13H10.5498C10.5498 10.1837 8.26673 7.90062 5.45043 7.90062C2.63414 7.90062 0.351074 10.1837 0.351074 13ZM2.05086 3.65031C2.05086 5.52784 3.5729 7.04988 5.45043 7.04988C6.35206 7.04988 7.21675 6.69171 7.8543 6.05417C8.49184 5.41662 8.85001 4.55193 8.85001 3.65031C8.85001 1.77277 7.32797 0.250732 5.45043 0.250732C3.5729 0.250732 2.05086 1.77277 2.05086 3.65031ZM3.75254 3.62595C3.76585 2.69745 4.52184 1.95146 5.45043 1.95052C6.3892 1.95052 7.15022 2.71154 7.15022 3.65031V3.7268C7.10843 4.65445 6.32992 5.37689 5.40173 5.34934C4.47354 5.32179 3.73924 4.55445 3.75254 3.62595ZM10.9747 7.44608C10.065 7.44608 9.24626 7.04918 8.67655 6.41618C9.06878 5.95871 9.357 5.4256 9.52585 4.85396C9.74752 5.42733 10.2882 5.83962 10.9301 5.85902C11.7809 5.88473 12.4945 5.21049 12.5329 4.34474V4.27335C12.5329 3.39723 11.8352 2.68699 10.9747 2.68699C10.4424 2.68754 9.97192 2.96004 9.69117 3.37608C9.65188 2.75923 9.48098 2.17816 9.20625 1.66064C9.70868 1.30746 10.318 1.10063 10.9747 1.10063C12.6958 1.10063 14.091 2.52111 14.091 4.27335C14.091 5.11481 13.7627 5.92181 13.1783 6.51681C12.5938 7.11181 11.8012 7.44608 10.9747 7.44608ZM10.9747 9.82641C10.8153 9.82641 10.6587 9.8386 10.5058 9.8621C10.1952 9.36281 9.81275 8.91289 9.37284 8.52684C9.8725 8.34128 10.412 8.24005 10.9747 8.24005C13.5563 8.24005 15.6491 10.3708 15.6491 12.9991H14.091C14.091 11.2469 12.6958 9.82641 10.9747 9.82641Z" fill="white"/>
</svg>
