<svg className="arrow_up"
    width="10"
    height="10"
    viewBox="0 0 8 5" fill="none" xmlns="http://www.w3.org/2000/svg">
    <path
        d="M0.176092 4.8088C0.288878 4.93123 0.441828 5 0.601308 5C0.760787 5 0.913737 4.93123 1.02652 4.8088L4.00363 1.57628L6.98074 4.8088C7.09417 4.92776 7.2461 4.99358 7.40379 4.99209C7.56149 4.9906 7.71233 4.92192 7.82384 4.80085C7.93536 4.67977 7.99861 4.51598 7.99998 4.34476C8.00135 4.17353 7.94073 4.00857 7.83117 3.88541L4.42885 0.191199C4.31606 0.0687744 4.16311 0 4.00363 0C3.84415 0 3.6912 0.0687744 3.57842 0.191199L0.176092 3.88541C0.0633405 4.00787 0 4.17394 0 4.34711C0 4.52027 0.0633405 4.68634 0.176092 4.8088V4.8088Z"
        fill="#4D7EFF" />
</svg>