<svg xmlns="http://www.w3.org/2000/svg" viewBox="0 0 188.23 39.17"><defs><style>.cls-1{fill:#383732;}.cls-2{fill:#f46f25;}</style></defs><title>logo</title><g id="Layer_2" data-name="Layer 2"><g id="Layer_1-2" data-name="Layer 1"><path class="cls-1" d="M7.21,27a12.8,12.8,0,0,1-3.62-.48,5.36,5.36,0,0,1-2.2-1.25,4.15,4.15,0,0,1-1.1-2A10.55,10.55,0,0,1,0,20.7V.82L5.11,0V19.67a6.73,6.73,0,0,0,.1,1.24,2.13,2.13,0,0,0,.39.93,2.09,2.09,0,0,0,.84.62,4.6,4.6,0,0,0,1.48.31Z"/><path class="cls-1" d="M16.44,3.36a2.81,2.81,0,0,1-.91,2.21,3.26,3.26,0,0,1-4.29,0,2.81,2.81,0,0,1-.91-2.21,2.81,2.81,0,0,1,.91-2.21,3.26,3.26,0,0,1,4.29,0A2.81,2.81,0,0,1,16.44,3.36ZM16,26.64H10.85V8.58H16Z"/><path class="cls-1" d="M20.59,4.08l5.11-.82V8.58h6.14v4.26H25.71v6.35a5,5,0,0,0,.57,2.57,2.43,2.43,0,0,0,2.28,1,9.78,9.78,0,0,0,1.7-.15,8.72,8.72,0,0,0,1.6-.43l.72,4a14.47,14.47,0,0,1-2.06.65,12,12,0,0,1-2.78.27,9.15,9.15,0,0,1-3.47-.57,5.43,5.43,0,0,1-2.2-1.58,5.87,5.87,0,0,1-1.15-2.45,14.47,14.47,0,0,1-.33-3.19Z"/><path class="cls-2" d="M34.46,17.75a11,11,0,0,1,.74-4.2,9,9,0,0,1,1.94-3A8.07,8.07,0,0,1,39.9,8.72a8.66,8.66,0,0,1,3.21-.62,8,8,0,0,1,6.08,2.35q2.23,2.35,2.23,6.92,0,.45,0,1t-.07.94H39.71a3.4,3.4,0,0,0,1.48,2.51,5.93,5.93,0,0,0,3.5.93,14.79,14.79,0,0,0,2.76-.26,10.42,10.42,0,0,0,2.21-.64L50.35,26a7.1,7.1,0,0,1-1.1.41,14.4,14.4,0,0,1-1.53.36q-.84.15-1.8.26a18,18,0,0,1-1.92.1,11.38,11.38,0,0,1-4.24-.72,8.25,8.25,0,0,1-3-2,7.83,7.83,0,0,1-1.75-3A11.76,11.76,0,0,1,34.46,17.75Zm12-2a5.32,5.32,0,0,0-.22-1.27,3.18,3.18,0,0,0-.58-1.1,3.12,3.12,0,0,0-1-.79,3.25,3.25,0,0,0-1.49-.31,3.44,3.44,0,0,0-1.48.29,3.05,3.05,0,0,0-1,.77A3.45,3.45,0,0,0,40,14.5a7.3,7.3,0,0,0-.33,1.29Z"/><path class="cls-2" d="M62.52,13.64l3.59-5.06h5.29l-6.27,8.78A53.71,53.71,0,0,1,69,22.28a45.34,45.34,0,0,1,2.68,4.36H66.15l-.69-1.29q-.41-.77-.93-1.61a8.34,8.34,0,0,0-1.07-1.43q-.56-.58-1.1-1.06-.52.44-1.05,1a7,7,0,0,0-1,1.34l-.95,1.59q-.47.79-.83,1.47H53.3q.43-.84,1.14-2T56,22.19a30.26,30.26,0,0,1,1.83-2.43q1-1.18,1.93-2.21l-3.24-4.6L53.44,8.58H59Z"/><path class="cls-2" d="M73.21,4.08l5.11-.82V8.58h6.14v4.26H78.32v6.35a5,5,0,0,0,.57,2.57,2.43,2.43,0,0,0,2.28,1,9.78,9.78,0,0,0,1.7-.15,8.72,8.72,0,0,0,1.6-.43l.72,4a14.47,14.47,0,0,1-2.06.65,12,12,0,0,1-2.78.27,9.15,9.15,0,0,1-3.47-.57,5.43,5.43,0,0,1-2.2-1.58,5.87,5.87,0,0,1-1.15-2.45,14.47,14.47,0,0,1-.33-3.19Z"/><path class="cls-2" d="M87.07,17.75a11,11,0,0,1,.74-4.2,9,9,0,0,1,1.94-3,8.07,8.07,0,0,1,2.76-1.82,8.66,8.66,0,0,1,3.21-.62,8,8,0,0,1,6.08,2.35Q104,12.8,104,17.37q0,.45,0,1t-.07.94H92.32A3.4,3.4,0,0,0,93.8,21.8a5.93,5.93,0,0,0,3.5.93,14.79,14.79,0,0,0,2.76-.26,10.42,10.42,0,0,0,2.21-.64L103,26a7.1,7.1,0,0,1-1.1.41,14.4,14.4,0,0,1-1.53.36q-.84.15-1.8.26a18,18,0,0,1-1.92.1,11.38,11.38,0,0,1-4.24-.72,8.25,8.25,0,0,1-3-2,7.83,7.83,0,0,1-1.75-3A11.76,11.76,0,0,1,87.07,17.75Zm12-2a5.32,5.32,0,0,0-.22-1.27,3.18,3.18,0,0,0-.58-1.1,3.12,3.12,0,0,0-1-.79,3.25,3.25,0,0,0-1.49-.31,3.44,3.44,0,0,0-1.48.29,3.05,3.05,0,0,0-1,.77,3.45,3.45,0,0,0-.64,1.12,7.3,7.3,0,0,0-.33,1.29Z"/><path class="cls-2" d="M106,9.2a28.56,28.56,0,0,1,3.36-.7,27.64,27.64,0,0,1,4.32-.33,10.54,10.54,0,0,1,3.83.6,5.76,5.76,0,0,1,2.42,1.7,6.63,6.63,0,0,1,1.27,2.61,13.88,13.88,0,0,1,.38,3.36V26.64h-5.11V17.06a6.9,6.9,0,0,0-.65-3.5,2.66,2.66,0,0,0-2.44-1q-.55,0-1.17.05t-1.1.12V26.64H106Z"/><path class="cls-2" d="M130.37,23a5.1,5.1,0,0,0,2-.27,1.06,1.06,0,0,0,.58-1.06,1.3,1.3,0,0,0-.76-1.08,14.4,14.4,0,0,0-2.3-1,23.3,23.3,0,0,1-2.18-.93A6.4,6.4,0,0,1,126,17.42a4.64,4.64,0,0,1-1.06-1.6,5.9,5.9,0,0,1-.38-2.23,4.82,4.82,0,0,1,1.89-4,8.21,8.21,0,0,1,5.18-1.48,16.64,16.64,0,0,1,3.16.29,14.75,14.75,0,0,1,2.4.64l-.89,4a18.76,18.76,0,0,0-1.94-.55,10.55,10.55,0,0,0-2.35-.24q-2.4,0-2.4,1.34a1.38,1.38,0,0,0,.1.55,1.17,1.17,0,0,0,.41.46,5.75,5.75,0,0,0,.84.48q.53.26,1.36.57a21,21,0,0,1,2.78,1.23,6.65,6.65,0,0,1,1.73,1.31,4,4,0,0,1,.89,1.56,6.91,6.91,0,0,1,.26,2,4.58,4.58,0,0,1-2,4,10,10,0,0,1-5.68,1.37,16.32,16.32,0,0,1-4-.41,16.15,16.15,0,0,1-2.21-.69l.86-4.15a16.74,16.74,0,0,0,2.68.81A13,13,0,0,0,130.37,23Z"/><path class="cls-2" d="M147.43,3.36a2.81,2.81,0,0,1-.91,2.21,3.26,3.26,0,0,1-4.29,0,2.81,2.81,0,0,1-.91-2.21,2.81,2.81,0,0,1,.91-2.21,3.26,3.26,0,0,1,4.29,0A2.81,2.81,0,0,1,147.43,3.36ZM147,26.64h-5.11V8.58H147Z"/><path class="cls-2" d="M168.64,17.57a11.74,11.74,0,0,1-.62,3.9,8.46,8.46,0,0,1-1.78,3,8,8,0,0,1-2.8,1.94,9.34,9.34,0,0,1-3.66.69,9.24,9.24,0,0,1-3.62-.69,8,8,0,0,1-2.8-1.94,8.87,8.87,0,0,1-1.82-3,11.18,11.18,0,0,1-.65-3.9,10.78,10.78,0,0,1,.67-3.88,8.8,8.8,0,0,1,1.85-3,8.33,8.33,0,0,1,2.81-1.92,9.07,9.07,0,0,1,3.55-.69,9.16,9.16,0,0,1,3.59.69,8.16,8.16,0,0,1,2.8,1.92,8.73,8.73,0,0,1,1.82,3A11,11,0,0,1,168.64,17.57Zm-5.22,0a6.43,6.43,0,0,0-.94-3.72,3.09,3.09,0,0,0-2.69-1.36,3.13,3.13,0,0,0-2.71,1.36,6.34,6.34,0,0,0-1,3.72,6.51,6.51,0,0,0,1,3.76,3.11,3.11,0,0,0,2.71,1.39,3.06,3.06,0,0,0,2.69-1.39A6.6,6.6,0,0,0,163.43,17.57Z"/><path class="cls-2" d="M172.59,9.2A28.56,28.56,0,0,1,176,8.5a27.64,27.64,0,0,1,4.32-.33,10.54,10.54,0,0,1,3.83.6,5.76,5.76,0,0,1,2.42,1.7,6.63,6.63,0,0,1,1.27,2.61,13.88,13.88,0,0,1,.38,3.36V26.64h-5.11V17.06a6.9,6.9,0,0,0-.65-3.5,2.66,2.66,0,0,0-2.44-1q-.55,0-1.17.05t-1.1.12V26.64h-5.11Z"/><path d="M1.42,36.73a1.42,1.42,0,0,0,1.53,1.53,1.42,1.42,0,0,0,1.53-1.53V32.58h1v4.21a2.3,2.3,0,0,1-2.5,2.37,2.32,2.32,0,0,1-2.5-2.39v-4.2h1Z"/><path d="M11.73,39H7.86V32.58h1v5.54h2.9Z"/><path d="M14.3,39V33.48H12.38v-.9h4.81v.9H15.27V39Z"/><path d="M19.1,39V32.58h1V39Z"/><path d="M22.59,39V32.58h1l2,4.62h0l2-4.62h1V39h-.88V34.51h-.05L26,38.36h-.74l-1.72-3.85h0V39Z"/><path d="M30.5,39l2.25-6.46h1.05L36.05,39H35l-.61-1.8H32.09L31.48,39Zm2.73-5.35-.91,2.75h1.85l-.91-2.75Z"/><path d="M38.61,39V33.48H36.69v-.9H41.5v.9H39.58V39Z"/><path d="M47.31,39h-4V32.58h4v.89h-3v1.86h2.83v.85H44.31v2h3Z"/><path d="M53,37.25c.06.57.56,1,1.51,1s1.39-.39,1.39-1-.34-.77-1-.94l-1.09-.27a1.77,1.77,0,0,1-1.55-1.74,2.33,2.33,0,0,1,4.58,0h-.95c-.05-.55-.49-1-1.36-1s-1.3.35-1.3,1c0,.43.29.73.9.87l1.08.26c1,.24,1.69.7,1.69,1.79,0,1.27-1,2-2.46,2-1.76,0-2.36-1-2.38-1.92Z"/><path d="M63.1,39V36.16H60V39h-1V32.58h1v2.69H63.1V32.58h1V39Z"/><path d="M66.31,35.39c0-1.84,1-2.94,2.65-2.94s2.64,1.11,2.64,2.94v.89a2.57,2.57,0,0,1-2.66,2.89c-1.62,0-2.63-1.06-2.63-2.89Zm1,.89c0,1.35.71,2,1.66,2s1.67-.63,1.67-2v-.9c0-1.35-.71-2-1.67-2s-1.66.69-1.66,2Z"/><path d="M76.26,32.58a2.07,2.07,0,1,1,0,4.15H74.81V39h-1V32.58Zm-1.45,3.28h.91c1,0,1.65-.23,1.65-1.2a1.1,1.1,0,0,0-1.22-1.21H74.81Z"/><path d="M82.77,32.58a2.07,2.07,0,1,1,0,4.15H81.32V39h-1V32.58Zm-1.45,3.28h.91c1,0,1.65-.23,1.65-1.2a1.1,1.1,0,0,0-1.22-1.21H81.32Z"/><path d="M86.85,39V32.58h1V39Z"/><path d="M90.32,39V32.58h.88l3.1,4.67h0V32.58h.95V39h-.88l-3.11-4.69h0V39Z"/><path d="M101.66,34.59a1.39,1.39,0,0,0-1.49-1.24c-.91,0-1.65.6-1.65,2v.84c0,1.24.53,2.05,1.64,2.05a1.38,1.38,0,0,0,1.54-1.3v-.52h-1.56v-.83h2.5v1.31a2.25,2.25,0,0,1-2.48,2.24c-1.76,0-2.62-1.2-2.62-3v-.86a2.58,2.58,0,0,1,2.64-2.91,2.26,2.26,0,0,1,2.43,2.14Z"/><path d="M105.6,36.25c0,1.37.64,2,1.63,2a1.3,1.3,0,0,0,1.46-1.3h1V37a2.21,2.21,0,0,1-2.44,2.13c-1.59,0-2.58-1-2.58-2.91v-.87c0-1.85,1-2.93,2.59-2.93a2.24,2.24,0,0,1,2.43,2.22v.07h-1a1.39,1.39,0,0,0-1.48-1.39c-1,0-1.61.69-1.61,2Z"/><path d="M111.18,39l2.25-6.46h1.05L116.74,39h-1l-.61-1.8h-2.32l-.61,1.8Zm2.73-5.35L113,36.43h1.85L114,33.68Z"/><path d="M123.14,34.56a1.82,1.82,0,0,1-1.19,1.81L123.26,39h-1.1L121,36.55h-1.42V39h-1V32.58H121A1.91,1.91,0,0,1,123.14,34.56Zm-2.3,1.14c.84,0,1.3-.39,1.3-1.11a1.11,1.11,0,0,0-1.26-1.16h-1.32V35.7Z"/><path d="M126.66,39V33.48h-1.92v-.9h4.81v.9h-1.92V39Z"/><path d="M134.34,39V32.58h1l2,4.62h0l2-4.62h1V39h-.88V34.51h-.05l-1.71,3.85H137l-1.72-3.85h0V39Z"/><path d="M142.89,39V32.58h1V39Z"/><path d="M150.22,34.59a1.39,1.39,0,0,0-1.49-1.24c-.91,0-1.65.6-1.65,2v.84c0,1.24.53,2.05,1.64,2.05a1.38,1.38,0,0,0,1.54-1.3v-.52H148.7v-.83h2.5v1.31a2.25,2.25,0,0,1-2.48,2.24c-1.76,0-2.62-1.2-2.62-3v-.86a2.58,2.58,0,0,1,2.64-2.91,2.26,2.26,0,0,1,2.43,2.14Z"/><path d="M158,34.56a1.82,1.82,0,0,1-1.19,1.81L158.1,39H157l-1.17-2.49H154.4V39h-1V32.58h2.42A1.91,1.91,0,0,1,158,34.56Zm-2.3,1.14c.84,0,1.3-.39,1.3-1.11a1.11,1.11,0,0,0-1.26-1.16H154.4V35.7Z"/><path d="M159.61,39l2.25-6.46h1.05L165.16,39h-1l-.61-1.8H161.2l-.61,1.8Zm2.73-5.35-.91,2.75h1.85l-.91-2.75Z"/><path d="M167.72,39V33.48H165.8v-.9h4.81v.9h-1.92V39Z"/><path d="M172.52,39V32.58h1V39Z"/><path d="M175.73,35.39c0-1.84,1-2.94,2.65-2.94S181,33.56,181,35.39v.89a2.57,2.57,0,0,1-2.66,2.89c-1.62,0-2.63-1.06-2.63-2.89Zm1,.89c0,1.35.71,2,1.66,2s1.67-.63,1.67-2v-.9c0-1.35-.71-2-1.67-2s-1.66.69-1.66,2Z"/><path d="M183.25,39V32.58h.88l3.1,4.67h0V32.58h.95V39h-.88l-3.11-4.69h0V39Z"/></g></g></svg>