<?xml version="1.0" encoding="utf-8"?>
<!-- Generator: Adobe Illustrator 24.1.2, SVG Export Plug-In . SVG Version: 6.00 Build 0)  -->
<svg version="1.1" id="Layer_1" xmlns="http://www.w3.org/2000/svg" xmlns:xlink="http://www.w3.org/1999/xlink" x="0px" y="0px"
	 viewBox="0 0 1000 1000" style="enable-background:new 0 0 1000 1000;" xml:space="preserve">
<style type="text/css">
	.st0{fill:#543ED8;}
	.st1{display:none;fill:#FFFFFF;}
	.st2{fill:#FFFFFF;}
	.st3{display:none;fill:#F8FF6A;}
</style>
<rect id="bg" class="st0" width="1000" height="1000"/>
<path id="logo" class="st1" d="M788.1,354.2c-1.3-8.9-2.1-17.4-3.9-25.5c-8.5-37.5-22.1-72.8-45.5-103.8
	c-16.6-22.2-36.7-40.4-60.9-53.8c-25.6-14.2-45.3-19.9-74.4-20.9c0,0,0,0,0,0c78.3,26.3,112.8,100.4,121.2,156.9
	c0.2,1.4-0.9,2.7-2.3,2.7H595.5c-1.1,0-2-0.7-2.2-1.7c-6.5-25.3-14.4-49.3-29-70.7c-14.9-21.9-33.4-40.2-55.2-55.2
	c-20.1-13.8-42-23.6-65.7-28.3c-27.1-5.4-54.6-4.9-81.8,2.1c-20,5.1-38.6,13.1-55.5,24.5c-35.4,23.8-59,57.3-74.4,96.4
	c-13.6,34.5-19.6,70.6-19.7,107.6c-0.2,143.6-0.2,287.3-0.2,430.9c0,10.6,0,21.3,0,32.3c0,1.3,1,2.3,2.3,2.3l235.1,0
	c1.3,0,2.3-1,2.3-2.3V651.2c0-1.3,1-2.3,2.3-2.3h176.2c1.2,0,2.2-0.9,2.3-2.1c0.2-2.3,0.4-4.3,0.4-6.3c0-60.5-0.1-121,0.2-181.5
	c0-6.5-5.3-11.8-11.8-11.8c-55,0.3-165,0.1-165,0.1v-65.1L403,345.1c-1.8-1.2-4.2,0-4.1,2.2c0.1,21.9,0.3,109,0,138.5
	c-0.1,9.6-0.8,9.6,8.5,9.6c53.5,0,107,0,160.6,0c2.7,0,5.4-0.2,8.2,0c1.3,0.1,2.4,1.3,2.4,2.6c0,32-0.2,63.1,0.1,94.2
	c0.1,7-1.9,9-8.9,9c-54-0.3-108,0-162,0c-9.6,0-9.6-0.1-9.6,9.2c0,62,0,124,0,186c0,2.4-0.3,4.8-0.6,7.4c-0.1,1.2-1.1,2.1-2.3,2.1
	c-40.5,0-80.3-0.2-120,0.2c-7.3,0.1-9.4-1.8-9.4-9.3c0.2-135.9-0.1-271.8,0.4-407.6c0.1-18.7,2.6-37.6,6-56.1
	c6.1-32.7,19.1-62.5,41.7-87.6c19.4-21.5,43.7-34.9,72-39.5c22-3.6,44-1.6,65.3,6.6c26.8,10.3,47.2,28.3,63.2,51.5
	c17.8,25.8,27.7,54.8,32.5,85.5c1,6.3,3.4,7.6,9.3,7.6c74.8-0.2,149.7,0,224.5,0c1.7,0,3.4,0.1,5.2,0
	C787.3,357.1,788.3,355.7,788.1,354.2z"/>
<image style="display:none;overflow:visible;" width="468" height="538" xlink:href="C:\Users\Caden\Desktop\finta.png"  transform="matrix(1 0 0 1 299.875 192.3125)">
</image>
<g>
	<path class="st2" d="M650.2,351.4l-367.5,70.5v-65.6c0-39.7,28.2-73.8,67.2-81.3l367.5-70.5v65.6
		C717.3,309.8,689.1,343.9,650.2,351.4z"/>
	<path class="st2" d="M553.4,558.3l-270.7,51.1v-65.6c0-39.7,28.2-73.8,67.2-81.3l270.7-51.1V477
		C620.6,516.7,592.4,550.8,553.4,558.3z"/>
	<path class="st2" d="M389.7,775.6l-107,19.9v-65.6c0-39.7,28.2-73.8,67.2-81.3l107-19.9v65.6C456.8,734,428.7,768.1,389.7,775.6z"
		/>
</g>
<circle class="st3" cx="458" cy="639" r="44"/>
</svg>
