<svg width="90" height="90" viewBox="0 0 90 90" fill="none" xmlns="http://www.w3.org/2000/svg">
<rect width="90" height="90" fill="white"/>
<path d="M88.5 7.50003V13.5H1.5V7.50003C1.5 4.18632 4.18629 1.50003 7.5 1.50003H82.5C85.8137 1.50003 88.5 4.18632 88.5 7.50003Z" fill="#EBF2F6"/>
<path d="M82.5 1.50003H78C81.3137 1.50003 84 4.18632 84 7.50003V13.5H88.5V7.50003C88.5 4.18632 85.8137 1.50003 82.5 1.50003Z" fill="#A8D3E6"/>
<path d="M88.5 13.5V82.5C88.5 85.8137 85.8137 88.5 82.5 88.5H7.5C4.18629 88.5 1.5 85.8137 1.5 82.5V13.5H88.5Z" fill="#EBF2F6"/>
<path d="M84 13.5V82.5C84 85.8137 81.3137 88.5 78 88.5H82.5C85.8137 88.5 88.5 85.8137 88.5 82.5V13.5H84Z" fill="#A8D3E6"/>
<path d="M40.5 21H10.5C9.67157 21 9 21.6716 9 22.5V28.5C9 29.3285 9.67157 30 10.5 30H40.5C41.3284 30 42 29.3285 42 28.5V22.5C42 21.6716 41.3284 21 40.5 21Z" fill="#EBF2F6"/>
<path d="M79.5 21H49.5C48.6716 21 48 21.6716 48 22.5V28.5C48 29.3285 48.6716 30 49.5 30H79.5C80.3284 30 81 29.3285 81 28.5V22.5C81 21.6716 80.3284 21 79.5 21Z" fill="#EBF2F6"/>
<path d="M79.5 36H10.5C9.67157 36 9 36.6715 9 37.5V67.5C9 68.3284 9.67157 69 10.5 69H79.5C80.3284 69 81 68.3284 81 67.5V37.5C81 36.6715 80.3284 36 79.5 36Z" fill="#EBF2F6"/>
<path d="M78 75H57C55.3431 75 54 76.3431 54 78C54 79.6568 55.3431 81 57 81H78C79.6569 81 81 79.6568 81 78C81 76.3431 79.6569 75 78 75Z" fill="#E8EDFC"/>
<path d="M7.5 88.5H12C8.68629 88.5 6 85.8137 6 82.5V7.50003C6 4.18632 8.68629 1.50003 12 1.50003H7.5C4.18629 1.50003 1.5 4.18632 1.5 7.50003V82.5C1.5 85.8137 4.18629 88.5 7.5 88.5Z" fill="white"/>
<path d="M0 70.5H3V82.5H0V70.5Z" fill="white"/>
<path d="M1.5 78C2.32843 78 3 77.3284 3 76.5C3 75.6715 2.32843 75 1.5 75C0.671573 75 0 75.6715 0 76.5C0 77.3284 0.671573 78 1.5 78Z" fill="#0073AA"/>
<path d="M82.5 0H7.5C3.35992 0.00495918 0.00495918 3.35992 0 7.5V70.5C0 71.3284 0.671573 72 1.5 72C2.32843 72 3 71.3284 3 70.5V15H87V82.5C87 84.9853 84.9853 87 82.5 87H7.5C5.01472 87 3 84.9853 3 82.5C3 81.6716 2.32843 81 1.5 81C0.671573 81 0 81.6716 0 82.5C0.00495918 86.6401 3.35992 89.995 7.5 90H82.5C86.6401 89.995 89.995 86.6401 90 82.5V7.5C89.995 3.35992 86.6401 0.00495918 82.5 0ZM3 12V7.5C3 5.01472 5.01472 3 7.5 3H82.5C84.9853 3 87 5.01472 87 7.5V12H3Z" fill="#0073AA"/>
<path d="M70.5 9C71.3284 9 72 8.32843 72 7.5C72 6.67157 71.3284 6 70.5 6C69.6716 6 69 6.67157 69 7.5C69 8.32843 69.6716 9 70.5 9Z" fill="#0073AA"/>
<path d="M76.5 9C77.3284 9 78 8.32843 78 7.5C78 6.67157 77.3284 6 76.5 6C75.6716 6 75 6.67157 75 7.5C75 8.32843 75.6716 9 76.5 9Z" fill="#0073AA"/>
<path d="M82.5 9C83.3284 9 84 8.32843 84 7.5C84 6.67157 83.3284 6 82.5 6C81.6716 6 81 6.67157 81 7.5C81 8.32843 81.6716 9 82.5 9Z" fill="#0073AA"/>
<path d="M10.5 31.5H40.5C42.1569 31.5 43.5 30.1568 43.5 28.5V22.5C43.5 20.8431 42.1569 19.5 40.5 19.5H10.5C8.84315 19.5 7.5 20.8431 7.5 22.5V28.5C7.5 30.1568 8.84315 31.5 10.5 31.5ZM10.5 22.5H40.5V28.5H10.5V22.5Z" fill="#0073AA"/>
<path d="M79.5 31.5C81.1569 31.5 82.5 30.1568 82.5 28.5V22.5C82.5 20.8431 81.1569 19.5 79.5 19.5H49.5C47.8431 19.5 46.5 20.8431 46.5 22.5V28.5C46.5 30.1568 47.8431 31.5 49.5 31.5H79.5ZM49.5 22.5H79.5V28.5H49.5V22.5Z" fill="#0073AA"/>
<path d="M7.5 67.5C7.5 69.1569 8.84315 70.5 10.5 70.5H79.5C81.1569 70.5 82.5 69.1569 82.5 67.5V37.5C82.5 35.8432 81.1569 34.5 79.5 34.5H10.5C8.84315 34.5 7.5 35.8432 7.5 37.5V67.5ZM10.5 37.5H79.5V67.5H10.5V37.5Z" fill="#0073AA"/>
<path d="M78 73.5H57C54.5147 73.5 52.5 75.5147 52.5 78C52.5 80.4853 54.5147 82.5 57 82.5H78C80.4853 82.5 82.5 80.4853 82.5 78C82.5 75.5147 80.4853 73.5 78 73.5ZM78 79.5H57C56.1716 79.5 55.5 78.8285 55.5 78C55.5 77.1716 56.1716 76.5 57 76.5H78C78.8284 76.5 79.5 77.1716 79.5 78C79.5 78.8285 78.8284 79.5 78 79.5Z" fill="#0073AA"/>
<path d="M15 43.5001H19.5C20.3284 43.5001 21 42.8285 21 42.0001C21 41.1716 20.3284 40.5001 19.5 40.5001H15C14.1716 40.5001 13.5 41.1716 13.5 42.0001C13.5 42.8285 14.1716 43.5001 15 43.5001Z" fill="#0073AA"/>
<path d="M25.5 43.5001H43.5C44.3284 43.5001 45 42.8285 45 42.0001C45 41.1716 44.3284 40.5001 43.5 40.5001H25.5C24.6716 40.5001 24 41.1716 24 42.0001C24 42.8285 24.6716 43.5001 25.5 43.5001Z" fill="#0073AA"/>
<path d="M54 46.5H15C14.1716 46.5 13.5 47.1716 13.5 48C13.5 48.8285 14.1716 49.5 15 49.5H54C54.8284 49.5 55.5 48.8285 55.5 48C55.5 47.1716 54.8284 46.5 54 46.5Z" fill="#0073AA"/>
<path d="M11.5605 4.93955C10.9748 4.35397 10.0253 4.35397 9.43951 4.93955L9.00001 5.37905L8.56051 4.93955C7.97194 4.37109 7.03638 4.37922 6.45778 4.95782C5.87918 5.53642 5.87105 6.47198 6.43951 7.06055L6.87901 7.50005L6.43951 7.93955C6.04957 8.31616 5.89319 8.87386 6.03046 9.39831C6.16773 9.92275 6.5773 10.3323 7.10175 10.4696C7.62619 10.6069 8.18389 10.4505 8.56051 10.0605L9.00001 9.62105L9.43951 10.0605C10.0281 10.629 10.9636 10.6209 11.5422 10.0423C12.1208 9.46367 12.129 8.52812 11.5605 7.93955L11.121 7.50005L11.5605 7.06055C12.1461 6.4748 12.1461 5.5253 11.5605 4.93955V4.93955Z" fill="#0073AA"/>
</svg>