<svg width="61" height="37" viewBox="0 0 61 37" fill="none" xmlns="http://www.w3.org/2000/svg">
<path d="M48.0042 17.2116L53.163 23.7168C53.2512 23.8272 53.363 23.9163 53.4903 23.9776C53.6176 24.0389 53.7571 24.0708 53.8983 24.0708H57.9835C58.0698 24.0711 58.1543 24.0469 58.2274 24.0012C58.3005 23.9554 58.3592 23.8899 58.3966 23.8122C58.4341 23.7345 58.4488 23.6478 58.439 23.5621C58.4293 23.4764 58.3955 23.3952 58.3415 23.3279L53.068 16.6465" fill="url(#paint0_linear_622_466)"/>
<path style="mix-blend-mode:screen" opacity="0.35" d="M56.2913 24.0696H53.8979C53.7566 24.0695 53.6172 24.0377 53.4899 23.9764C53.3626 23.9151 53.2507 23.826 53.1626 23.7156L48.01 17.23L48.0296 17.2183L49.8154 16.0625L50.5178 16.9301L56.2913 24.0696Z" fill="url(#paint1_linear_622_466)"/>
<path style="mix-blend-mode:multiply" opacity="0.55" d="M49.1929 18.7112L56.6102 21.1272L53.1863 16.7871" fill="url(#paint2_linear_622_466)"/>
<path d="M52.5908 32.8855C52.5904 33.631 52.3296 34.3529 51.8535 34.9265C51.3774 35.5001 50.7159 35.8894 49.9832 36.027C49.2506 36.1647 48.4929 36.0421 47.841 35.6805C47.1891 35.3188 46.6841 34.7408 46.4131 34.0464C46.1421 33.3519 46.1223 32.5846 46.3569 31.877C46.5916 31.1695 47.0661 30.5661 47.6983 30.1712C48.3306 29.7763 49.0809 29.6146 49.8197 29.7142C50.5585 29.8138 51.2393 30.1683 51.7445 30.7165C52.2891 31.3075 52.5913 32.0818 52.5908 32.8855V32.8855Z" fill="url(#paint3_linear_622_466)"/>
<path style="mix-blend-mode:multiply" opacity="0.55" d="M52.5912 32.8857L47.0374 30.7167L48.01 29.999C48.498 29.7646 49.0374 29.6579 49.5778 29.6888C50.1183 29.7197 50.642 29.8872 51.1001 30.1756C51.5582 30.464 51.9356 30.8639 52.1971 31.3379C52.4586 31.8119 52.5955 32.3444 52.5951 32.8857H52.5912Z" fill="url(#paint4_linear_622_466)"/>
<path d="M33.2915 32.8857C33.2917 33.4069 33.1648 33.9202 32.9216 34.3811C32.6785 34.8421 32.3265 35.2367 31.8963 35.5308C31.466 35.8248 30.9705 36.0094 30.4527 36.0685C29.935 36.1276 29.4106 36.0594 28.9251 35.8699C28.4397 35.6804 28.0078 35.3752 27.6671 34.9809C27.3263 34.5866 27.0869 34.1151 26.9697 33.6074C26.8525 33.0996 26.861 32.5708 26.9945 32.0671C27.128 31.5633 27.3824 31.0998 27.7357 30.7167C28.0121 30.4187 28.3421 30.1752 28.7084 29.999C29.1963 29.7651 29.7355 29.6588 30.2756 29.6899C30.8158 29.721 31.3392 29.8886 31.797 30.1769C32.2548 30.4653 32.632 30.865 32.8934 31.3387C33.1547 31.8124 33.2917 32.3447 33.2915 32.8857V32.8857Z" fill="url(#paint5_linear_622_466)"/>
<path style="mix-blend-mode:multiply" opacity="0.55" d="M33.2916 32.8858L27.7378 30.7167L28.7105 29.999C29.1983 29.7656 29.7373 29.6596 30.2771 29.6909C30.817 29.7223 31.3401 29.8899 31.7976 30.1782C32.2551 30.4665 32.6321 30.8661 32.8934 31.3395C33.1546 31.813 33.2916 32.345 33.2916 32.8858V32.8858Z" fill="url(#paint6_linear_622_466)"/>
<path d="M21.4256 24.1842H18.1864C17.7059 24.1838 17.2373 24.0338 16.8459 23.7549C16.4545 23.4761 16.1597 23.0822 16.0024 22.6281L15.055 19.8873L9.91508 5.04289C9.87304 4.92149 9.79425 4.8162 9.68964 4.74162C9.58504 4.66704 9.45981 4.62687 9.33134 4.6267H0.167096C0.138236 4.62966 0.109131 4.62429 0.0832365 4.61121C0.0573415 4.59813 0.0357442 4.57789 0.0210088 4.5529C0.00627338 4.52791 -0.000981146 4.49921 0.000106616 4.47022C0.00119438 4.44123 0.0105787 4.41316 0.0271454 4.38935L1.44892 2.44533L1.53834 2.32466L1.62377 2.20599L3.11403 0.18286C3.1569 0.125432 3.21272 0.0789397 3.27696 0.0471684C3.34119 0.0153971 3.41202 -0.000755121 3.48368 2.71162e-05H10.318C11.1184 0.00118009 11.8988 0.250931 12.5511 0.714763C13.2035 1.1786 13.6957 1.83361 13.9597 2.58927L19.947 19.8889L20.6686 21.9762L21.4256 24.1842Z" fill="url(#paint7_linear_622_466)"/>
<path d="M60.0436 26.4258L58.8588 28.4041L57.7831 30.2015C57.6886 30.3586 57.5552 30.4886 57.3956 30.579C57.2361 30.6693 57.0559 30.7169 56.8726 30.7171H24.343C20.182 30.7171 18.6393 29.7989 18.0206 28.4041C17.9797 28.3147 17.9448 28.2213 17.9116 28.1278L17.3398 26.5073C17.3234 26.4603 17.3184 26.4101 17.3253 26.3609C17.3322 26.3116 17.3509 26.2648 17.3796 26.2242C17.4084 26.1836 17.4465 26.1505 17.4907 26.1277C17.5349 26.1049 17.5839 26.093 17.6337 26.0931H59.8471C59.8869 26.091 59.9265 26.0998 59.9615 26.1186C59.9966 26.1374 60.0259 26.1655 60.0462 26.1997C60.0664 26.234 60.0769 26.2732 60.0764 26.313C60.076 26.3528 60.0646 26.3917 60.0436 26.4255V26.4258Z" fill="url(#paint8_linear_622_466)"/>
<path d="M59.4327 10.9555V11.15C59.381 12.9469 58.6966 14.6679 57.5001 16.0096C56.3037 17.3513 54.6719 18.2276 52.8926 18.4839C51.5656 18.6502 50.2285 18.7224 48.8912 18.7H46.0656C46.0177 18.7 45.9717 18.719 45.9378 18.753C45.9039 18.7869 45.8848 18.8329 45.8848 18.8808V23.6012C45.8848 23.7225 45.8366 23.8387 45.7509 23.9244C45.6652 24.0102 45.5489 24.0583 45.4277 24.0583H42.0453C41.9241 24.0583 41.8078 24.0102 41.7221 23.9244C41.6364 23.8387 41.5882 23.7225 41.5882 23.6012V15.756C41.5882 15.3995 41.7299 15.0576 41.982 14.8055C42.2341 14.5534 42.576 14.4117 42.9326 14.4117H51.667C52.1166 14.4179 52.563 14.3351 52.9805 14.1681C53.398 14.0012 53.7784 13.7534 54.0998 13.4389C54.4213 13.1245 54.6774 12.7496 54.8534 12.3358C55.0295 11.9221 55.122 11.4776 55.1258 11.028C55.1295 10.5783 55.0443 10.1324 54.8751 9.71578C54.7059 9.29917 54.4561 8.9201 54.1399 8.60038C53.8237 8.28065 53.4475 8.02656 53.0328 7.85272C52.6181 7.67888 52.1731 7.58871 51.7235 7.58741H26.3895C25.8627 7.58289 25.3547 7.78327 24.9729 8.14625C24.5911 8.50923 24.3653 9.00638 24.3431 9.53275C24.3363 9.79979 24.383 10.0655 24.4804 10.3142C24.5778 10.563 24.724 10.7897 24.9104 10.9811C25.0967 11.1725 25.3194 11.3248 25.5655 11.4288C25.8115 11.5329 26.0758 11.5867 26.343 11.5871H33.3714C34.2004 11.5894 35.0207 11.7553 35.7854 12.0754C36.5501 12.3954 37.2441 12.8633 37.8276 13.4521C38.4111 14.0409 38.8726 14.7392 39.1856 15.5067C39.4987 16.2743 39.6571 17.0961 39.6519 17.9251C39.6466 18.754 39.4778 19.5738 39.155 20.3373C38.8323 21.1009 38.362 21.7932 37.7711 22.3746C37.1802 22.956 36.4803 23.415 35.7116 23.7253C34.9429 24.0357 34.1205 24.1912 33.2916 24.183H18.1863C17.7057 24.1828 17.237 24.033 16.8455 23.7542C16.454 23.4755 16.159 23.0817 16.0016 22.6276L15.0542 19.8864H33.3285C33.8549 19.8907 34.3624 19.6902 34.7436 19.3271C35.1248 18.9641 35.3499 18.467 35.3713 17.9411C35.3792 17.6734 35.3333 17.4069 35.2364 17.1573C35.1394 16.9077 34.9934 16.68 34.807 16.4878C34.6205 16.2957 34.3974 16.1429 34.1508 16.0385C33.9042 15.9341 33.6392 15.8802 33.3714 15.88H26.4284C25.5959 15.8945 24.7688 15.7438 23.995 15.4365C23.2212 15.1292 22.5159 14.6716 21.9201 14.09C21.3243 13.5084 20.8497 12.8144 20.5239 12.0483C20.198 11.2821 20.0273 10.4589 20.0217 9.62628C20.016 8.79369 20.1755 7.96825 20.491 7.19771C20.8064 6.42717 21.2715 5.72683 21.8594 5.13722C22.4472 4.5476 23.1462 4.08042 23.9158 3.76269C24.6854 3.44496 25.5104 3.283 26.343 3.28618H51.6321C53.6804 3.27933 55.6486 4.081 57.1092 5.51703C58.5698 6.95305 59.4048 8.90741 59.4327 10.9555V10.9555Z" fill="url(#paint9_linear_622_466)"/>
<path style="mix-blend-mode:screen" opacity="0.35" d="M57.3672 11.1068C57.3699 11.8328 57.2293 12.5521 56.9536 13.2237C56.6778 13.8952 56.2722 14.5057 55.7601 15.0203C55.248 15.5348 54.6394 15.9432 53.9691 16.2221C53.2989 16.5011 52.5802 16.645 51.8543 16.6457H44.5885C44.4828 16.6454 44.3781 16.666 44.2804 16.7063C44.1827 16.7465 44.0939 16.8057 44.0191 16.8803C43.9443 16.9549 43.8849 17.0436 43.8444 17.1412C43.8039 17.2388 43.783 17.3435 43.783 17.4492V24.0787H42.0458C41.9246 24.0787 41.8083 24.0305 41.7226 23.9448C41.6369 23.8591 41.5887 23.7428 41.5887 23.6216V15.7568C41.5887 15.4002 41.7303 15.0583 41.9825 14.8062C42.2346 14.5541 42.5765 14.4125 42.933 14.4125H51.6675C52.1171 14.4186 52.5635 14.3358 52.981 14.1689C53.3985 14.0019 53.7789 13.7541 54.1003 13.4396C54.4217 13.1252 54.6778 12.7503 54.8539 12.3366C55.03 11.9228 55.1225 11.4784 55.1262 11.0287C55.13 10.5791 55.0448 10.1331 54.8756 9.71652C54.7064 9.29991 54.4566 8.92084 54.1404 8.60111C53.8242 8.28139 53.448 8.0273 53.0333 7.85346C52.6186 7.67962 52.1736 7.58945 51.724 7.58814H26.39C25.8632 7.58362 25.3552 7.78401 24.9734 8.14699C24.5916 8.50996 24.3657 9.00712 24.3436 9.53349C24.3368 9.80053 24.3835 10.0662 24.4809 10.315C24.5783 10.5637 24.7245 10.7905 24.9108 10.9819C25.0972 11.1733 25.3199 11.3255 25.5659 11.4296C25.812 11.5336 26.0763 11.5875 26.3434 11.5879H33.3715C34.2005 11.5902 35.0208 11.7561 35.7855 12.0761C36.5502 12.3962 37.2442 12.864 37.8277 13.4528C38.4112 14.0417 38.8727 14.7399 39.1858 15.5075C39.4988 16.275 39.6573 17.0969 39.652 17.9258C39.6468 18.7548 39.4779 19.5745 39.1552 20.3381C38.8324 21.1016 38.3621 21.7939 37.7712 22.3753C37.1803 22.9567 36.4804 23.4158 35.7118 23.7261C34.9431 24.0364 34.1207 24.1919 33.2918 24.1837H18.1864C17.7059 24.1834 17.2373 24.0334 16.8459 23.7545C16.4545 23.4756 16.1597 23.0818 16.0024 22.6276L15.055 19.8868L9.91508 5.04378C9.87304 4.92238 9.79425 4.81708 9.68964 4.7425C9.58504 4.66792 9.45981 4.62776 9.33134 4.62758H0.167096C0.138236 4.63055 0.109131 4.62517 0.0832365 4.61209C0.0573415 4.59901 0.0357442 4.57877 0.0210088 4.55378C0.00627338 4.52879 -0.000981146 4.5001 0.000106616 4.47111C0.00119438 4.44212 0.0105787 4.41405 0.0271454 4.39023L1.44892 2.44489L1.53834 2.32422H10.2691C10.5547 2.32427 10.8333 2.41222 11.0672 2.57613C11.301 2.74004 11.4787 2.97196 11.5762 3.24038L17.6067 19.8865L18.0329 21.0536C18.1301 21.3223 18.3078 21.5544 18.5418 21.7183C18.7757 21.8823 19.0546 21.9701 19.3403 21.9698H33.1987C34.3029 21.9713 35.363 21.5366 36.1482 20.7602C36.9333 19.9838 37.38 18.9286 37.3909 17.8245C37.3821 16.7377 36.9441 15.6984 36.1723 14.9332C35.4006 14.168 34.3576 13.7388 33.2708 13.7393H26.5844C25.4956 13.7411 24.45 13.313 23.6752 12.548C22.9003 11.7829 22.4589 10.743 22.4468 9.65415C22.454 8.58061 22.8855 7.55348 23.6471 6.79687C24.4088 6.04027 25.4387 5.61561 26.5123 5.61554H51.7712C53.2407 5.60428 54.6547 6.17588 55.7036 7.20514C56.7525 8.23439 57.3507 9.6374 57.3672 11.1068V11.1068Z" fill="url(#paint10_linear_622_466)"/>
<path style="mix-blend-mode:screen" opacity="0.35" d="M60.0438 26.4258L58.859 28.4041H18.0075C17.9666 28.3147 17.9317 28.2213 17.8985 28.1278L17.3403 26.5073C17.3238 26.4603 17.3189 26.4101 17.3258 26.3609C17.3327 26.3116 17.3514 26.2648 17.3801 26.2242C17.4089 26.1836 17.447 26.1505 17.4912 26.1277C17.5354 26.1049 17.5844 26.093 17.6342 26.0931H59.8473C59.887 26.091 59.9266 26.0998 59.9617 26.1186C59.9968 26.1374 60.0261 26.1655 60.0463 26.1997C60.0666 26.234 60.077 26.2732 60.0766 26.313C60.0761 26.3528 60.0648 26.3917 60.0438 26.4255V26.4258Z" fill="url(#paint11_linear_622_466)"/>
<defs>
<linearGradient id="paint0_linear_622_466" x1="56.1248" y1="28.9561" x2="48.9553" y2="-12.987" gradientUnits="userSpaceOnUse">
<stop offset="0.2" stop-color="#3D5DFF"/>
<stop offset="0.8" stop-color="#5F95FC"/>
</linearGradient>
<linearGradient id="paint1_linear_622_466" x1="48.01" y1="20.066" x2="56.2913" y2="20.066" gradientUnits="userSpaceOnUse">
<stop stop-color="#5C90FC"/>
<stop offset="0.09" stop-color="#6294FC" stop-opacity="0.961"/>
<stop offset="0.23" stop-color="#729FFC" stop-opacity="0.871"/>
<stop offset="0.4" stop-color="#8BB0FD" stop-opacity="0.71"/>
<stop offset="0.61" stop-color="#AFC9FE" stop-opacity="0.49"/>
<stop offset="0.84" stop-color="#DCE7FE" stop-opacity="0.212"/>
<stop offset="1" stop-color="white" stop-opacity="0"/>
</linearGradient>
<linearGradient id="paint2_linear_622_466" x1="54.3776" y1="23.5707" x2="53.1593" y2="14.7703" gradientUnits="userSpaceOnUse">
<stop offset="0.11" stop-color="#3D5DFF"/>
<stop offset="0.79" stop-color="#5F95FC"/>
</linearGradient>
<linearGradient id="paint3_linear_622_466" x1="48.8745" y1="31.3678" x2="35.0836" y2="-9.43545" gradientUnits="userSpaceOnUse">
<stop offset="0.2" stop-color="#3D5DFF"/>
<stop offset="0.8" stop-color="#5F95FC"/>
</linearGradient>
<linearGradient id="paint4_linear_622_466" x1="48.4157" y1="27.4837" x2="49.3944" y2="36.0201" gradientUnits="userSpaceOnUse">
<stop offset="0.11" stop-color="#3D5DFF"/>
<stop offset="0.79" stop-color="#5F95FC"/>
</linearGradient>
<linearGradient id="paint5_linear_622_466" x1="31.6009" y1="37.3573" x2="17.8041" y2="-3.43891" gradientUnits="userSpaceOnUse">
<stop offset="0.2" stop-color="#3D5DFF"/>
<stop offset="0.8" stop-color="#5F95FC"/>
</linearGradient>
<linearGradient id="paint6_linear_622_466" x1="29.1151" y1="27.4838" x2="30.0934" y2="36.0182" gradientUnits="userSpaceOnUse">
<stop offset="0.11" stop-color="#3D5DFF"/>
<stop offset="0.79" stop-color="#5F95FC"/>
</linearGradient>
<linearGradient id="paint7_linear_622_466" x1="19.9258" y1="41.5726" x2="3.30761" y2="3.01338" gradientUnits="userSpaceOnUse">
<stop offset="0.2" stop-color="#3D5DFF"/>
<stop offset="0.8" stop-color="#5F95FC"/>
</linearGradient>
<linearGradient id="paint8_linear_622_466" x1="40.7943" y1="32.5714" x2="40.6566" y2="-2.29554" gradientUnits="userSpaceOnUse">
<stop offset="0.2" stop-color="#3D5DFF"/>
<stop offset="0.8" stop-color="#5F95FC"/>
</linearGradient>
<linearGradient id="paint9_linear_622_466" x1="43.4565" y1="33.2318" x2="40.3361" y2="-8.38133" gradientUnits="userSpaceOnUse">
<stop offset="0.2" stop-color="#3D5DFF"/>
<stop offset="0.8" stop-color="#5F95FC"/>
</linearGradient>
<linearGradient id="paint10_linear_622_466" x1="23.2337" y1="-8.868" x2="24.9906" y2="27.0858" gradientUnits="userSpaceOnUse">
<stop offset="0.02" stop-color="#5C90FC"/>
<stop offset="0.49" stop-color="#ACC7FD" stop-opacity="0.51"/>
<stop offset="0.97" stop-color="white" stop-opacity="0"/>
</linearGradient>
<linearGradient id="paint11_linear_622_466" x1="6.07849" y1="27.2484" x2="58.7085" y2="27.2484" gradientUnits="userSpaceOnUse">
<stop stop-color="#5C90FC"/>
<stop offset="1" stop-color="white" stop-opacity="0"/>
</linearGradient>
</defs>
</svg>
