<svg xmlns="http://www.w3.org/2000/svg" xmlns:xlink="http://www.w3.org/1999/xlink" width="598.295" height="103.75" viewBox="0 0 598.295 103.75">
  <defs>
    <linearGradient id="linear-gradient" x1="-0.032" y1="0.568" x2="1.113" y2="0.578" gradientUnits="objectBoundingBox">
      <stop offset="0.121" stop-color="#5f95fc"/>
      <stop offset="0.603" stop-color="#3d5dff"/>
    </linearGradient>
    <linearGradient id="linear-gradient-2" x1="0.965" y1="0.5" x2="0.239" y2="0.533" gradientUnits="objectBoundingBox">
      <stop offset="0" stop-color="#5f95fc"/>
      <stop offset="0.759" stop-color="#4063ff"/>
      <stop offset="1" stop-color="#3d5dff"/>
    </linearGradient>
  </defs>
  <g id="Group_7" data-name="Group 7" transform="translate(-26.131 -64.143)">
    <path id="Path_1" data-name="Path 1" d="M2730.306,804.148c-7.156,0-14.311.032-21.467-.008-9.6-.054-16.561-5.49-18.561-14.827-2.746-12.816-5.4-25.655-7.807-38.538-.858-4.6-3.146-6.611-7.708-6.669-4.136-.053-6.65-2.213-6.481-6.505.167-4.214,2.684-6.071,6.87-6.2,9.6-.285,17.188,4.707,19.4,13.766.886,3.621,2.453,4.344,5.784,4.323,19.968-.128,39.938-.083,59.908-.056,12.384.017,19.055,8.917,15.783,21.015-1.777,6.568-3.517,13.15-5.445,19.675-2.687,9.093-9.326,13.978-18.813,14.014C2744.618,804.171,2737.462,804.149,2730.306,804.148Zm-32.066-41.705c1.561,7.774,3.208,15.188,4.49,22.665.758,4.415,3.148,6.328,7.446,6.325q20.2-.018,40.4.009c4.278.012,6.728-1.919,7.776-6.132,1.4-5.627,3.154-11.163,4.721-16.748,1.525-5.433.8-6.4-4.978-6.4q-27.681-.033-55.364,0C2701.441,762.162,2700.15,762.318,2698.24,762.443Zm6.369,48c-7.29-.012-12.48,5.248-12.393,12.56a11.905,11.905,0,0,0,12.309,12.143c7.293.013,12.479-5.242,12.393-12.558A11.913,11.913,0,0,0,2704.609,810.439Zm48.318,0c-7.339-.139-12.673,5-12.711,12.242-.038,7.113,4.98,12.328,11.991,12.462,7.341.14,12.671-4.992,12.711-12.239C2764.958,815.8,2759.931,810.571,2752.927,810.438Z" transform="translate(-2642.143 -667.252)" fill="url(#linear-gradient)"/>
    <path id="Path_2" data-name="Path 2" d="M2829.268,769.2a7.831,7.831,0,0,0-3.189-5.82,12.636,12.636,0,0,0-7.645-2.074,14.819,14.819,0,0,0-5.541.914,7.788,7.788,0,0,0-3.451,2.522,5.983,5.983,0,0,0-1.193,3.653,5.145,5.145,0,0,0,.727,2.972,7.106,7.106,0,0,0,2.183,2.182,15.558,15.558,0,0,0,3.219,1.579,31.117,31.117,0,0,0,3.9,1.13l5.7,1.362a40.219,40.219,0,0,1,7.616,2.476,23.2,23.2,0,0,1,6.006,3.808,16.025,16.025,0,0,1,3.946,5.324,16.979,16.979,0,0,1,1.44,7.027,17.519,17.519,0,0,1-2.956,10.076,18.832,18.832,0,0,1-8.42,6.6,33.741,33.741,0,0,1-13.234,2.337,34.768,34.768,0,0,1-13.358-2.353,19.431,19.431,0,0,1-8.853-6.981,20.667,20.667,0,0,1-3.328-11.469h12.97a9.583,9.583,0,0,0,1.843,5.31,9.865,9.865,0,0,0,4.365,3.187,16.979,16.979,0,0,0,6.206,1.069,16.186,16.186,0,0,0,5.928-.991,9.074,9.074,0,0,0,3.916-2.755,6.365,6.365,0,0,0,1.392-4.056,5.307,5.307,0,0,0-1.253-3.59,9.78,9.78,0,0,0-3.653-2.476,37.641,37.641,0,0,0-5.866-1.858l-6.9-1.734q-8.019-1.95-12.662-6.1t-4.613-11.174a16.56,16.56,0,0,1,3.081-10.06,20.546,20.546,0,0,1,8.559-6.718,30.267,30.267,0,0,1,12.383-2.414,29.392,29.392,0,0,1,12.335,2.414,19.5,19.5,0,0,1,8.219,6.718,17.768,17.768,0,0,1,3.034,9.967Zm34.758,17.676V814.36h-13.187v-63.4h12.815V775.2h.557a13.541,13.541,0,0,1,5.2-6.609,15.877,15.877,0,0,1,9.008-2.4,16.9,16.9,0,0,1,8.652,2.152,14.711,14.711,0,0,1,5.758,6.16,20.5,20.5,0,0,1,2.028,9.581V814.36h-13.187V786.438a9.645,9.645,0,0,0-2.213-6.842,8.084,8.084,0,0,0-6.269-2.445,9.615,9.615,0,0,0-4.752,1.145,8.013,8.013,0,0,0-3.219,3.328A11.264,11.264,0,0,0,2864.026,786.871Zm61.844,28.417a24.172,24.172,0,0,1-12.46-3.08,20.813,20.813,0,0,1-8.094-8.6,30.468,30.468,0,0,1,0-25.724,20.818,20.818,0,0,1,8.094-8.607,26.744,26.744,0,0,1,24.92,0,20.812,20.812,0,0,1,8.094,8.607,30.459,30.459,0,0,1,0,25.724,20.807,20.807,0,0,1-8.094,8.6A24.172,24.172,0,0,1,2925.87,815.288Zm.062-10.215a8.149,8.149,0,0,0,5.479-1.873,11.513,11.513,0,0,0,3.328-5.123,24.788,24.788,0,0,0,0-14.8,11.637,11.637,0,0,0-3.328-5.139,8.109,8.109,0,0,0-5.479-1.888,8.337,8.337,0,0,0-5.557,1.888A11.456,11.456,0,0,0,2917,783.28a24.808,24.808,0,0,0,0,14.8,11.337,11.337,0,0,0,3.374,5.123A8.379,8.379,0,0,0,2925.932,805.073Zm31.075,27.117V766.812h13V774.8h.588a17.5,17.5,0,0,1,2.523-3.916,13.278,13.278,0,0,1,4.333-3.343,14.775,14.775,0,0,1,6.672-1.347,17.952,17.952,0,0,1,9.6,2.709,18.928,18.928,0,0,1,7.027,8.141q2.631,5.433,2.632,13.6a31.585,31.585,0,0,1-2.554,13.42,19.067,19.067,0,0,1-6.935,8.265,17.8,17.8,0,0,1-9.8,2.8,15.126,15.126,0,0,1-6.516-1.268,13.373,13.373,0,0,1-4.381-3.2,15.964,15.964,0,0,1-2.6-3.916h-.4V832.19Zm12.908-41.6a21.16,21.16,0,0,0,1.176,7.4,10.887,10.887,0,0,0,3.405,4.907,9.25,9.25,0,0,0,10.867-.032,10.975,10.975,0,0,0,3.389-4.952,21.255,21.255,0,0,0,1.16-7.322,21,21,0,0,0-1.145-7.243,10.8,10.8,0,0,0-3.374-4.892,8.552,8.552,0,0,0-5.479-1.764,8.652,8.652,0,0,0-5.433,1.7,10.628,10.628,0,0,0-3.39,4.83A20.9,20.9,0,0,0,2969.915,790.585Zm41.6,23.775v-63.4h25.013a27.122,27.122,0,0,1,12.274,2.554,18.037,18.037,0,0,1,7.77,7.213,21.591,21.591,0,0,1,2.678,10.942,20.69,20.69,0,0,1-2.724,10.85,17.644,17.644,0,0,1-7.879,6.95,29.2,29.2,0,0,1-12.459,2.415h-16.748V781.114h14.58a16.714,16.714,0,0,0,6.377-1.054,7.647,7.647,0,0,0,3.792-3.157,10.07,10.07,0,0,0,1.254-5.232,10.48,10.48,0,0,0-1.254-5.324,7.957,7.957,0,0,0-3.808-3.3,15.912,15.912,0,0,0-6.423-1.13h-9.039v52.44Zm34.238-28.851,15.756,28.851h-14.8l-15.416-28.851Zm42.713,29.779a25.207,25.207,0,0,1-12.614-2.987,20.21,20.21,0,0,1-8.126-8.482,30.86,30.86,0,0,1,0-25.894,21.016,21.016,0,0,1,8.033-8.637,23.321,23.321,0,0,1,12.181-3.1,25.165,25.165,0,0,1,8.776,1.5,19.773,19.773,0,0,1,7.12,4.5,20.536,20.536,0,0,1,4.752,7.538,30.109,30.109,0,0,1,1.7,10.6v3.621h-40.15v-8.171h27.737a10.1,10.1,0,0,0-1.238-5.047,9.011,9.011,0,0,0-3.42-3.451,9.983,9.983,0,0,0-5.062-1.254,10.157,10.157,0,0,0-5.309,1.378,9.879,9.879,0,0,0-3.606,3.684,10.47,10.47,0,0,0-1.331,5.123v7.77a13.229,13.229,0,0,0,1.315,6.1,9.4,9.4,0,0,0,3.731,3.961,11.26,11.26,0,0,0,5.727,1.393,12.471,12.471,0,0,0,4.024-.619,8.351,8.351,0,0,0,3.126-1.857,8.09,8.09,0,0,0,1.982-3.034l12.2.8a16.618,16.618,0,0,1-3.793,7.662,19.052,19.052,0,0,1-7.366,5.077A27.7,27.7,0,0,1,3088.465,815.288Zm43.117-.03a19.648,19.648,0,0,1-8.111-1.595,12.817,12.817,0,0,1-5.618-4.736,14.027,14.027,0,0,1-2.059-7.848,13.862,13.862,0,0,1,1.455-6.655,11.785,11.785,0,0,1,3.963-4.334,19.2,19.2,0,0,1,5.711-2.476,43.019,43.019,0,0,1,6.733-1.176q4.147-.434,6.686-.821a9.335,9.335,0,0,0,3.685-1.161,2.584,2.584,0,0,0,1.144-2.291v-.185a5.723,5.723,0,0,0-1.841-4.551,7.685,7.685,0,0,0-5.216-1.609,9.294,9.294,0,0,0-5.665,1.563,7.341,7.341,0,0,0-2.787,3.916l-12.2-.991a16.674,16.674,0,0,1,3.652-7.507,17.726,17.726,0,0,1,7.042-4.891,26.977,26.977,0,0,1,10.015-1.718,30.555,30.555,0,0,1,7.6.929,20.017,20.017,0,0,1,6.47,2.879,14.084,14.084,0,0,1,4.473,5,15.184,15.184,0,0,1,1.641,7.29V814.36h-12.506v-6.594h-.371a13.231,13.231,0,0,1-3.066,3.916,13.81,13.81,0,0,1-4.611,2.631A18.77,18.77,0,0,1,3131.582,815.258Zm3.777-9.1A10.971,10.971,0,0,0,3140.5,805a8.994,8.994,0,0,0,3.5-3.142,8.135,8.135,0,0,0,1.269-4.489v-5.046a6.8,6.8,0,0,1-1.687.728,24.522,24.522,0,0,1-2.4.587q-1.332.264-2.663.465t-2.414.356a16.333,16.333,0,0,0-4.056,1.084,6.547,6.547,0,0,0-2.693,2,4.975,4.975,0,0,0-.96,3.112,4.732,4.732,0,0,0,1.966,4.1A8.369,8.369,0,0,0,3135.359,806.156Zm49.9,8.977a17.794,17.794,0,0,1-9.8-2.8,19.077,19.077,0,0,1-6.935-8.265,31.588,31.588,0,0,1-2.554-13.42q0-8.172,2.632-13.6a18.949,18.949,0,0,1,7.012-8.141,17.924,17.924,0,0,1,9.611-2.709,14.765,14.765,0,0,1,6.671,1.347,13.3,13.3,0,0,1,4.335,3.343,17.559,17.559,0,0,1,2.522,3.916h.4V750.962h13.156v63.4h-13v-7.615h-.557a16.978,16.978,0,0,1-2.615,3.916,13.228,13.228,0,0,1-4.365,3.2A15.139,15.139,0,0,1,3185.254,815.133Zm4.18-10.494a8.441,8.441,0,0,0,5.4-1.748,11.045,11.045,0,0,0,3.406-4.907,23.609,23.609,0,0,0,.014-14.765,10.577,10.577,0,0,0-3.4-4.83,8.669,8.669,0,0,0-5.417-1.7,8.56,8.56,0,0,0-5.481,1.764,10.8,10.8,0,0,0-3.373,4.892,21,21,0,0,0-1.146,7.243,21.278,21.278,0,0,0,1.161,7.322,11.038,11.038,0,0,0,3.374,4.952A8.435,8.435,0,0,0,3189.434,804.639Zm40.948,27.458a26.972,26.972,0,0,1-4.69-.386,19.4,19.4,0,0,1-3.607-.944l2.973-9.875a11.919,11.919,0,0,0,5.9.572q2.4-.51,3.792-3.73l.773-2.012-17.057-48.91h13.868l9.845,34.918h.5l9.936-34.918,13.961.061L3248.088,819.5a22.179,22.179,0,0,1-3.606,6.641,15.31,15.31,0,0,1-5.742,4.4A20.246,20.246,0,0,1,3230.382,832.1Z" transform="translate(-2642.143 -674.953)" fill="url(#linear-gradient-2)"/>
  </g>
</svg>
