<svg xmlns="http://www.w3.org/2000/svg" xmlns:xlink="http://www.w3.org/1999/xlink" width="108.584" height="103.75" viewBox="0 0 108.584 103.75">
  <defs>
    <linearGradient id="linear-gradient" x1="-0.032" y1="0.568" x2="1.113" y2="0.578" gradientUnits="objectBoundingBox">
      <stop offset="0.121" stop-color="#5f95fc"/>
      <stop offset="0.603" stop-color="#3d5dff"/>
    </linearGradient>
  </defs>
  <path id="Path_1" data-name="Path 1" d="M2730.306,804.148c-7.156,0-14.311.032-21.467-.008-9.6-.054-16.561-5.49-18.561-14.827-2.746-12.816-5.4-25.655-7.807-38.538-.858-4.6-3.146-6.611-7.708-6.669-4.136-.053-6.65-2.213-6.481-6.505.167-4.214,2.684-6.071,6.87-6.2,9.6-.285,17.188,4.707,19.4,13.766.886,3.621,2.453,4.344,5.784,4.323,19.968-.128,39.938-.083,59.908-.056,12.384.017,19.055,8.917,15.783,21.015-1.777,6.568-3.517,13.15-5.445,19.675-2.687,9.093-9.326,13.978-18.813,14.014C2744.618,804.171,2737.462,804.149,2730.306,804.148Zm-32.066-41.705c1.561,7.774,3.208,15.188,4.49,22.665.758,4.415,3.148,6.328,7.446,6.325q20.2-.018,40.4.009c4.278.012,6.728-1.919,7.776-6.132,1.4-5.627,3.154-11.163,4.721-16.748,1.525-5.433.8-6.4-4.978-6.4q-27.681-.033-55.364,0C2701.441,762.162,2700.15,762.318,2698.24,762.443Zm6.369,48c-7.29-.012-12.48,5.248-12.393,12.56a11.905,11.905,0,0,0,12.309,12.143c7.293.013,12.479-5.242,12.393-12.558A11.913,11.913,0,0,0,2704.609,810.439Zm48.318,0c-7.339-.139-12.673,5-12.711,12.242-.038,7.113,4.98,12.328,11.991,12.462,7.341.14,12.671-4.992,12.711-12.239C2764.958,815.8,2759.931,810.571,2752.927,810.438Z" transform="translate(-2668.274 -731.394)" fill="url(#linear-gradient)"/>
</svg>
