<svg width="24" height="24" viewBox="0 0 24 24" fill="none" xmlns="http://www.w3.org/2000/svg">
<rect x="0.5" y="0.5" width="23" height="23" rx="3.5" fill="#FAFAFA" stroke="#E0E0E0"/>
<g clip-path="url(#clip0_641_2884)">
<mask id="mask0_641_2884" style="mask-type:luminance" maskUnits="userSpaceOnUse" x="4" y="5" width="16" height="15">
<path d="M4 5H20V19.2609H4V5Z" fill="#1BDBDB"/>
</mask>
<g mask="url(#mask0_641_2884)">
<path fill-rule="evenodd" clip-rule="evenodd" d="M18.3365 11.9879C18.1225 12.8029 17.7756 13.5977 17.3058 14.3505C17.0057 14.8312 16.6678 15.2738 16.2969 15.6745C16.7203 13.947 16.4338 11.8307 15.3951 9.84607C15.3221 9.70651 15.1534 9.66028 15.0199 9.74378L11.7854 11.767C11.6616 11.8445 11.6239 12.0078 11.7012 12.1318L12.1755 12.8915C12.2528 13.0155 12.416 13.0532 12.5399 12.9757L14.6362 11.6644C14.7065 11.8659 14.7694 12.0688 14.8231 12.2731C15.0248 13.041 15.0999 13.7903 15.0464 14.5003C14.9468 15.8221 14.4092 16.852 13.5327 17.4002C13.095 17.6741 12.5865 17.819 12.0338 17.8348C12.0218 17.8346 12.0095 17.835 11.9975 17.8348C11.9872 17.8348 11.9768 17.8346 11.9665 17.8348C11.4137 17.8191 10.9051 17.6741 10.4672 17.4002C9.5908 16.852 9.05321 15.8221 8.9536 14.5003C8.9001 13.7903 8.97523 13.041 9.1769 12.2731C9.39097 11.4582 9.73768 10.6633 10.2077 9.91049C10.6775 9.1577 11.2392 8.49723 11.8771 7.9474C12.4781 7.42934 13.118 7.03326 13.7789 6.77016C15.0094 6.28034 16.1696 6.31258 17.0461 6.86085C17.9226 7.40905 18.4602 8.43892 18.5598 9.76068C18.6133 10.4707 18.5382 11.22 18.3365 11.9879ZM6.69427 14.3505C6.22435 13.5977 5.87758 12.8029 5.66351 11.9879C5.46184 11.22 5.38671 10.4707 5.44021 9.76068C5.53989 8.43892 6.07741 7.40905 6.95391 6.86085C7.83034 6.31258 8.99069 6.28034 10.2211 6.77016C10.4063 6.84388 10.5896 6.92961 10.7712 7.0243C10.1153 7.6192 9.51275 8.33411 9.00018 9.15526C7.64285 11.3297 7.23003 13.7449 7.70327 15.6747C7.33235 15.274 6.99439 14.8313 6.69427 14.3505ZM17.8006 5.65211C16.1377 4.61192 13.9488 4.85914 11.9994 6.0879C10.0505 4.85954 7.86208 4.61212 6.1994 5.65218C3.57248 7.29535 3.25344 11.5279 5.4868 15.1058C7.13361 17.7439 9.70811 19.2893 12.0001 19.2605C14.292 19.2891 16.8664 17.7438 18.5132 15.1058C20.7465 11.5279 20.4276 7.29535 17.8006 5.65211Z" fill="#1BDBDB"/>
</g>
</g>
<defs>
<clipPath id="clip0_641_2884">
<rect width="16" height="14.2609" fill="white" transform="translate(4 5)"/>
</clipPath>
</defs>
</svg>