<svg xmlns="http://www.w3.org/2000/svg" viewBox="0 0 97 90.58"><title>advance heading</title><g id="Layer_2" data-name="Layer 2"><g id="Layer_1-2" data-name="Layer 1"><path d="M96.88,88.49,71.79,29.91a4.64,4.64,0,0,0-2.49-2.49h0a4.62,4.62,0,0,0-6,2.48L38.17,88.49a1.5,1.5,0,1,0,2.75,1.18L51.8,64.28H83.24L94.12,89.67a1.5,1.5,0,0,0,2.77,0A1.48,1.48,0,0,0,96.88,88.49ZM68.14,30.19a1.63,1.63,0,0,1,.88.89L82,61.28H53.08L66,31.06A1.62,1.62,0,0,1,68.14,30.19Z"/><path d="M.11,89.64a1.5,1.5,0,0,0,.8.82,1.5,1.5,0,0,0,2-.79l16-37.3h18.6a1.5,1.5,0,0,0,0-3H20.15L39.35,4.59A3.06,3.06,0,0,1,43.5,3.37h0a3.13,3.13,0,0,1,1.15,1.1l7.44,16.79a1.5,1.5,0,0,0,2,.77,1.55,1.55,0,0,0,.79-.84,1.5,1.5,0,0,0,0-1.14L47.34,3.15A6,6,0,0,0,44.94.74,6,6,0,0,0,40.35.25a6.16,6.16,0,0,0-3.7,3L.12,88.49A1.48,1.48,0,0,0,.11,89.64Z"/></g></g></svg>