<?xml version="1.0" encoding="utf-8"?>
<!-- Generator: Adobe Illustrator 25.4.1, SVG Export Plug-In . SVG Version: 6.00 Build 0)  -->
<svg version="1.1" id="Layer_1" xmlns="http://www.w3.org/2000/svg" xmlns:xlink="http://www.w3.org/1999/xlink" x="0px" y="0px" width="24" height="24"
	 viewBox="0 0 828 828" style="enable-background:new 0 0 828 828;" xml:space="preserve">
<style type="text/css">
	.st0{fill:#1E1E1E;}
</style>
<g>
	<g>
		<path class="st0" d="M366.5,523.4l-0.7,3l-49.6,14.8c-14.1,4.4-30.4,45.9-43,111.1c42.2,25.2,91.1,38.5,140.7,38.5
			c5.9,0,12.6,0,18.5-0.7c43-3,85.9-15.6,122.9-37.8c-12.6-64.4-28.9-107.4-43-111.1l-49.6-14.8l-0.7-3c-0.7-2.2-2.2-4.4-5.2-5.9
			l-5.9-3.7l3.7-4.4c4.4-4.4,7.4-8.9,8.9-11.8c5.9-8.1,10.4-17,13.3-25.9c1.5-3.7,3-7.4,4.4-11.1l0.7-1.5l1.5-0.7
			c3.7-3,5.2-6.7,5.2-11.1v-14.8c0-3-0.7-5.9-3-8.9L485,422v-22.2c0-33.3-27.4-60.7-60.7-60.7h-21.5c-33.3,0-60.7,27.4-60.7,60.7
			V422l-0.7,1.5c-1.5,2.2-3,5.9-3,8.9v14.8c0,4.4,2.2,8.9,5.2,11.1l1.5,0.7l0.7,1.5c0.7,3.7,2.2,7.4,3.7,10.4
			c3.7,8.9,8.1,17.8,14.1,25.9c3,4.4,5.9,8.1,8.9,11.8l3.7,4.4l-5.2,3.7C369.5,519.7,367.3,521.2,366.5,523.4z"/>
		<path class="st0" d="M248.1,636c1.5-8.1,3.7-16.3,5.9-25.2c18.5-76.3,37.8-91.1,54.1-96.3l28.1-8.1c-4.4-7.4-8.9-15.6-11.8-23.7
			c-0.7-2.2-2.2-5.2-3-7.4l0,0l-30.4-8.9l-0.7-3c-0.7-2.2-2.2-4.4-5.2-5.9l-5.2-4.4l3.7-4.4c3-3.7,5.9-7.4,8.9-11.8
			c5.9-8.1,10.4-17,13.3-25.2c1.5-3.7,3-7.4,4.4-11.1l0.7-1.5l1.5-0.7c3.7-3,5.2-6.7,5.2-11.1v-14.8c0-3-0.7-5.9-3-8.9L314,362
			v-22.2c0-33.3-27.4-60.7-60.7-60.7h-21.5c-33.3,0-60.7,27.4-60.7,60.7V362l-0.7,1.5c-1.5,2.2-3,5.9-3,8.9v14.8
			c0,4.4,2.2,8.9,5.2,11.1l1.5,0.7l0.7,1.5c0.7,3.7,2.2,7.4,4.4,10.4c3.7,8.9,8.1,17.8,14.1,25.9c3,4.4,5.9,8.1,8.9,11.8l3.7,4.4
			l-5.2,3.7c-3,2.2-4.4,3.7-5.2,5.9l-0.7,3l-49.6,14.8h-0.7C159.9,542.7,197,597.5,248.1,636z"/>
		<path class="st0" d="M595.4,278.3h-21.5c-33.3,0-60.7,27.4-60.7,60.7v22.2l-0.7,1.5c-1.5,3-2.2,5.9-2.2,8.9v14.8
			c0,4.4,2.2,8.9,5.2,11.1l1.5,0.7l0.7,1.5c1.5,3.7,2.2,7.4,3.7,10.4c3.7,8.9,8.1,17.8,14.1,25.9c2.2,3,5.2,7.4,8.9,11.8l3.7,4.4
			l-5.2,3.7c-3,2.2-4.4,3.7-5.2,5.9l-0.7,3l-30.4,8.9l0,0c-0.7,3-2.2,5.2-3,8.1c-3,7.4-7.4,15.6-11.8,23.7l28.1,8.1
			c16.3,4.4,35.5,20,54.1,94.8c2.2,8.9,4.4,17.8,5.9,26.7c15.6-11.8,30.4-25.2,43-40c28.9-33.3,50.4-73.3,60.7-115.5h-0.7
			l-49.6-14.8l-0.7-3c-0.7-2.2-2.2-4.4-5.2-5.9l-5.2-3l4.4-4.4c3-3.7,5.9-7.4,8.9-11.8c5.9-8.1,10.4-17,13.3-25.2
			c1.5-3.7,3-7.4,4.4-11.1l0.7-1.5l1.5-0.7c3.7-3,5.2-6.7,5.2-11.1v-14.8c0-3-0.7-5.9-3-8.9l-0.7-1.5v-22.2
			C656.1,305.7,629.4,278.3,595.4,278.3z"/>
	</g>
	<g>
		<path class="st0" d="M414.3,746.3c-183.1,0-332-148.9-332-332s148.9-332,332-332s332,148.9,332,332S597.4,746.3,414.3,746.3z
			 M414.3,117.8c-163.5,0-296.5,133-296.5,296.5s133,296.5,296.5,296.5s296.5-133,296.5-296.5S577.8,117.8,414.3,117.8z"/>
	</g>
</g>
</svg>
