<svg version="1.2" xmlns="http://www.w3.org/2000/svg" viewBox="0 0 468 468" width="31" height="31"><style>.a{fill:#fff}</style><path class="a" d="m163.5 64.6c-26.5 14.7-9.1 85.4 9.1 118.2l50.4 90.9c7.9 14.1 2.8 31.9-11.3 39.8l-25.6 14.1-14.2-25.5-50.4-90.9c-28.8-52-10-117.8 42-146.6z"/><path class="a" d="m121.5 211.2c-19.3-34.9-17.2-75.9 2-107.9-6.8 27.3 6.8 75.2 20.9 100.5l50.4 90.9c5 9 4.7 19.5 0.2 28l-8.9 4.9-14.2-25.5z"/><path class="a" d="m163.5 64.6l90.9-50.4 25.5-14.2 14.2 25.6c7.8 14.1 2.7 31.9-11.4 39.7l-90.8 50.4c-23.9 13.2-32.5 43.3-19.3 67.1-18.2-32.8-35.6-103.5-9.1-118.2z"/><path class="a" d="m163.5 64.6l90.9-50.4 25.5-14.2 14.2 25.6c7.8 14.1 2.7 31.9-11.4 39.7l-90.8 50.4c-23.9 13.2-32.5 43.3-19.3 67.1-18.2-32.8-35.6-103.5-9.1-118.2z"/><path class="a" d="m164.3 93.9l104.3-57.8 24-13.3 1.5 2.8c7.8 14.1 2.7 31.9-11.4 39.7l-90.8 50.4c-23.3 12.9-32.1 41.9-20.1 65.5q0 0-0.1 0c-9.1-17.2-17.9-43.6-20.8-67.3 2.3-9.1 6.6-16.2 13.4-20z"/><path class="a" d="m347.5 254.9c14.7 26.5-37.5 77.3-70.3 95.5l-90.9 50.4c-14.1 7.8-19.2 25.6-11.4 39.7l14.2 25.6 25.5-14.2 90.9-50.4c52-28.8 70.8-94.6 42-146.6z"/><path class="a" d="m305.5 401.5c34.9-19.4 54.8-55.3 55.5-92.6-8.8 26.7-45.7 60.2-71 74.2l-90.9 50.4c-9 5.1-14.3 14.1-14.9 23.7l4.9 8.9 25.5-14.2z"/><path class="a" d="m347.5 254.9l-50.4-90.9-14.2-25.5-25.6 14.1c-14.1 7.9-19.2 25.7-11.3 39.8l50.4 90.9c13.2 23.8 4.6 53.9-19.2 67.1 32.8-18.2 85-69 70.3-95.5z"/><path class="a" d="m347.5 254.9l-50.4-90.9-14.2-25.5-25.6 14.1c-14.1 7.9-19.2 25.7-11.3 39.8l50.4 90.9c13.2 23.8 4.6 53.9-19.2 67.1 32.8-18.2 85-69 70.3-95.5z"/><path class="a" d="m331.2 279.3l-57.8-104.2-13.3-24-2.8 1.5c-14.1 7.9-19.2 25.7-11.3 39.8l50.4 90.9c12.9 23.2 4.9 52.5-17.6 66.1q0 0 0 0c16.9-9.7 38.3-27.5 53.3-46 2.8-8.9 3-17.2-0.9-24.1z"/></svg>