<svg id="Layer_1" data-name="Layer 1" xmlns="http://www.w3.org/2000/svg" xmlns:xlink="http://www.w3.org/1999/xlink" viewBox="0 0 800 800"><defs><style>.cls-1{fill:url(#linear-gradient);}.cls-2{opacity:0.07;}.cls-3,.cls-4{opacity:0.8;}.cls-4{fill:#01949a;}.cls-5{fill:#fff;}.cls-6{opacity:0.2;}</style><linearGradient id="linear-gradient" x1="398.05" y1="5.6" x2="402.01" y2="807.6" gradientTransform="matrix(1, 0, 0, -1, 0, 800)" gradientUnits="userSpaceOnUse"><stop offset="0" stop-color="#01949a"/><stop offset="0.52" stop-color="#01b0a3"/><stop offset="1" stop-color="#00cdac"/></linearGradient></defs><title>Accordion</title><g id="Accordion"><rect id="bg" class="cls-1" width="800" height="800"/><g id="shadow" class="cls-2"><path class="cls-3" d="M248.57,187.64H540.43a6.29,6.29,0,0,1,6.29,6.29v86.3a0,0,0,0,1,0,0H242.28a0,0,0,0,1,0,0v-86.3A6.29,6.29,0,0,1,248.57,187.64Z"/><path class="cls-3" d="M242.28,530.78H546.72a0,0,0,0,1,0,0v86.3a6.29,6.29,0,0,1-6.29,6.29H248.57a6.29,6.29,0,0,1-6.29-6.29v-86.3a0,0,0,0,1,0,0Z"/><rect class="cls-3" x="242.28" y="424.01" width="304.44" height="92.58"/><path d="M242.28,280.22H546.72a0,0,0,0,1,0,0V403.59a7.33,7.33,0,0,1-7.33,7.33H249.61a7.33,7.33,0,0,1-7.33-7.33V280.22A0,0,0,0,1,242.28,280.22Z"/></g><path class="cls-3" d="M253.57,181.64H545.43a6.29,6.29,0,0,1,6.29,6.29v86.3a0,0,0,0,1,0,0H247.28a0,0,0,0,1,0,0v-86.3A6.29,6.29,0,0,1,253.57,181.64Z"/><path class="cls-3" d="M247.28,524.78H551.72a0,0,0,0,1,0,0v86.3a6.29,6.29,0,0,1-6.29,6.29H253.57a6.29,6.29,0,0,1-6.29-6.29v-86.3a0,0,0,0,1,0,0Z"/><rect class="cls-3" x="247.28" y="418.01" width="304.44" height="92.58"/><path class="cls-4" d="M253.57,181.64H545.43a6.29,6.29,0,0,1,6.29,6.29v86.3a0,0,0,0,1,0,0H247.28a0,0,0,0,1,0,0v-86.3A6.29,6.29,0,0,1,253.57,181.64Z"/><path class="cls-4" d="M247.28,524.78H551.72a0,0,0,0,1,0,0v86.3a6.29,6.29,0,0,1-6.29,6.29H253.57a6.29,6.29,0,0,1-6.29-6.29v-86.3a0,0,0,0,1,0,0Z"/><rect class="cls-4" x="247.28" y="418.01" width="304.44" height="92.58"/><path class="cls-5" d="M247.28,274.22H551.72a0,0,0,0,1,0,0V397.59a7.33,7.33,0,0,1-7.33,7.33H254.61a7.33,7.33,0,0,1-7.33-7.33V274.22A0,0,0,0,1,247.28,274.22Z"/><path class="cls-5" d="M524.38,235l-5.75-5.75a1.88,1.88,0,0,1,0-2.67l5.75-5.75a1.88,1.88,0,0,0,0-2.67l-6.49-6.49a1.9,1.9,0,0,0-2.67,0l-5.75,5.75a1.88,1.88,0,0,1-2.67,0l-5.75-5.75a1.9,1.9,0,0,0-2.67,0l-6.49,6.49a1.9,1.9,0,0,0,0,2.67l5.75,5.75a1.88,1.88,0,0,1,0,2.67L491.89,235a1.9,1.9,0,0,0,0,2.67l6.49,6.49a1.88,1.88,0,0,0,2.67,0l5.75-5.75a1.88,1.88,0,0,1,2.67,0l5.75,5.75a1.88,1.88,0,0,0,2.67,0l6.49-6.49A1.88,1.88,0,0,0,524.38,235Z" transform="translate(0 0)"/><path class="cls-5" d="M514.61,480.8v-8.13a1.89,1.89,0,0,1,1.89-1.89h8.13a1.88,1.88,0,0,0,1.89-1.89v-9.17a1.88,1.88,0,0,0-1.89-1.89H516.5a1.89,1.89,0,0,1-1.89-1.89v-8.13a1.89,1.89,0,0,0-1.88-1.89h-9.18a1.89,1.89,0,0,0-1.89,1.89v8.13a1.89,1.89,0,0,1-1.89,1.89h-8.13a1.89,1.89,0,0,0-1.89,1.89v9.17a1.89,1.89,0,0,0,1.89,1.89h8.13a1.89,1.89,0,0,1,1.89,1.89v8.13a1.89,1.89,0,0,0,1.89,1.89h9.18A1.89,1.89,0,0,0,514.61,480.8Z" transform="translate(0 0)"/><path class="cls-5" d="M514.61,587.57v-8.13a1.89,1.89,0,0,1,1.89-1.89h8.13a1.89,1.89,0,0,0,1.89-1.89v-9.18a1.88,1.88,0,0,0-1.89-1.88H516.5a1.89,1.89,0,0,1-1.89-1.89v-8.13a1.89,1.89,0,0,0-1.88-1.89h-9.18a1.89,1.89,0,0,0-1.89,1.89v8.13a1.89,1.89,0,0,1-1.89,1.89h-8.13a1.89,1.89,0,0,0-1.89,1.88v9.18a1.89,1.89,0,0,0,1.89,1.89h8.13a1.88,1.88,0,0,1,1.89,1.89v8.13a1.89,1.89,0,0,0,1.89,1.89h9.18A1.89,1.89,0,0,0,514.61,587.57Z" transform="translate(0 0)"/><rect class="cls-6" x="279.38" y="296.28" width="198.23" height="30.25" rx="9.12"/><rect class="cls-6" x="279.38" y="342.43" width="124.07" height="30.25" rx="9.12"/></g></svg>