<svg id="Ken_Icon" data-name="Ken Icon" xmlns="http://www.w3.org/2000/svg" xmlns:xlink="http://www.w3.org/1999/xlink" viewBox="0 0 800 800"><defs><style>.cls-1{fill:url(#linear-gradient);}.cls-2{opacity:0.07;}.cls-3,.cls-5{opacity:0.8;}.cls-4{fill:#fff;}.cls-5,.cls-8{fill:#01949a;}.cls-6{fill:#c4c4c4;}.cls-7{opacity:0.2;}</style><linearGradient id="linear-gradient" x1="398.05" y1="5.13" x2="402.01" y2="807.13" gradientTransform="matrix(1, 0, 0, -1, 0, 799.54)" gradientUnits="userSpaceOnUse"><stop offset="0" stop-color="#01949a"/><stop offset="0.52" stop-color="#01b0a3"/><stop offset="1" stop-color="#00cdac"/></linearGradient></defs><title>BBpress topic index</title><g id="BBprees_topic_index" data-name="BBprees topic index"><rect id="bg" class="cls-1" width="800" height="800"/><g id="shadow" class="cls-2"><path d="M320.53,531.63c20.42-6.37,34.84-28.53,39.32-60.43,1.93-13.73-.62-26.05-6.85-33.12-13.59-15.44-45.36-6.59-56.21,15.65-3,6.21-12,47.64-12,55.4,0,10.49,5.77,19.58,14.35,22.62h0C304.83,533.76,313.89,533.71,320.53,531.63Z" transform="translate(0 -0.46)"/><path d="M459.35,393.92V293.25a154.61,154.61,0,0,0-48.53-15.73c-11.93-1.81-31.49-1.56-43.39.48a151.47,151.47,0,0,0-59.8,23.87c-9.95,6.66-28.69,24-26.43,24.42,1.17.23,25.93-3.19,37.44-5.17,6.05-1.05,6.08-1.3-6.32,56.14-6.27,29-11.4,53-11.4,53.24s1.93-.86,4.28-2.48a92.32,92.32,0,0,1,23.69-10.88c17.34-4.45,36.81.6,48,12.48,2.68,2.84,5,5,5.1,4.86s3.77-16.51,8.13-36.35c5.24-23.87,8-38.81,8.33-44.21.4-8,.36-8.19-2.2-10.2-2-1.53-3.92-2.05-7.76-2.05-2.84,0-6-.45-7-1-2.79-1.49-4-5.43-2.67-8.65,1.42-3.41,3.47-3.94,25.08-6.48,9.4-1.11,20.39-2.67,24.43-3.48,8.83-1.77,10.22-1.4,10.22,2.76,0,1.73-4.91,25.87-10.92,53.66s-10.91,51-10.91,51.51,1.39-.07,3.08-1.36c4.48-3.42,18.32-9.8,24.88-11.48,7.18-1.84,18.22-1.83,26.05,0,25.48,6,38.51,30,32.77,60.27-3.11,16.39-9.68,29-21.49,41.32-18,18.78-38.69,28-62.36,28-11.44,0-18.5-1.55-27.61-6-7.49-3.63-16.76-12.56-20.3-19.53l-2.5-4.94-5.92,5.76c-13,12.68-32.41,22.33-48.78,24.25l-5.3.63,3.67,2.28c17.54,10.88,40.45,18.71,63,21.51h0c8.25,1,33.05-.25,43-2.21A148.42,148.42,0,0,0,489.8,533c23.59-21.65,38.78-48.4,45.73-80.52,2.77-12.83,3-38.06.76-53.17H464.72A5.37,5.37,0,0,1,459.35,393.92Z" transform="translate(0 -0.46)"/><path d="M426.73,533.08c6.17-.25,8.86-.88,14-3.3,20-9.35,34.76-37.51,35-66.67.1-14.32-3.12-22.91-10.65-28.36-14.78-10.71-41.78-1.38-52.12,18-2.39,4.48-4,10.5-7.71,28-2.93,14-4.66,24.67-4.66,28.66,0,11,5.32,19,14.94,22.61C417.83,532.92,421.8,533.28,426.73,533.08Z" transform="translate(0 -0.46)"/><path d="M553.36,399.29A162.71,162.71,0,0,1,527.3,514.86c-25.81,38.5-64.57,63.5-110.58,71.31-8,1.35-33.91,2.46-39.39,1.68-1.57-.23-6.27-.85-10.44-1.4a181.32,181.32,0,0,1-18-3.74c-59.54-15.68-106-64.24-119-124.32-9.52-44.16-1-88.51,24.36-126.31,25.54-38.12,66.22-63.84,112.63-71.22,9.83-1.56,37.71-1.55,47.45,0a173.55,173.55,0,0,1,45,13.56v-8.28A172,172,0,0,0,315.72,269c-20.26,9.85-40.09,24.9-54.22,41.14-57.14,65.66-57.14,161.57,0,227.23,27.67,31.8,69,53.08,111.66,57.54,63.07,6.59,125.29-22.89,160.77-76.17a171.36,171.36,0,0,0,27-119.45Z" transform="translate(0 -0.46)"/><path d="M279.41,342.56a25,25,0,0,0-7-.89c-4.61,0-4.63,0-7.9,5.46A153,153,0,0,0,245.69,396c-3,15.14-3.06,40.25,0,55.28a179,179,0,0,0,8.78,29.39h0c.64,1.57,1.31,2.42,1.49,1.9,1-2.81,26.92-123.2,27.45-127.37C284.19,348.89,282.58,343.76,279.41,342.56Z" transform="translate(0 -0.46)"/><path d="M644.76,241.39H473.32a6.15,6.15,0,0,0-6.16,6.15V382a6.15,6.15,0,0,0,6.16,6.15h72.77a7,7,0,0,0,7,7h11.29a7,7,0,0,0,7-7h73.44a6.15,6.15,0,0,0,6.15-6.15V247.54A6.15,6.15,0,0,0,644.76,241.39Z" transform="translate(0 -0.46)"/><path class="cls-3" d="M644.76,241.39H473.32a6.15,6.15,0,0,0-6.16,6.15V382a6.15,6.15,0,0,0,6.16,6.15h72.77a7,7,0,0,0,7,7h11.29a7,7,0,0,0,7-7h73.44a6.15,6.15,0,0,0,6.15-6.15V247.54A6.15,6.15,0,0,0,644.76,241.39Z" transform="translate(0 -0.46)"/></g><path class="cls-4" d="M327.53,524.63c20.42-6.37,34.84-28.53,39.32-60.43,1.93-13.73-.62-26.05-6.85-33.12-13.59-15.44-45.36-6.59-56.21,15.65-3,6.21-12,47.64-12,55.4,0,10.49,5.77,19.58,14.35,22.62h0C311.83,526.76,320.89,526.71,327.53,524.63Z" transform="translate(0 -0.46)"/><path class="cls-4" d="M466.35,386.92V286.25a154.61,154.61,0,0,0-48.53-15.73c-11.93-1.81-31.49-1.56-43.39.48a151.47,151.47,0,0,0-59.8,23.87c-9.95,6.66-28.69,24-26.43,24.42,1.17.23,25.93-3.19,37.44-5.17,6.05-1.05,6.08-1.3-6.32,56.14-6.27,29-11.4,53-11.4,53.24s1.93-.86,4.28-2.48a92.32,92.32,0,0,1,23.69-10.88c17.34-4.45,36.81.6,48,12.48,2.68,2.84,5,5,5.1,4.86s3.77-16.51,8.13-36.35c5.24-23.87,8-38.81,8.33-44.21.4-8,.36-8.19-2.2-10.2-2-1.53-3.92-2.05-7.76-2.05-2.84,0-6-.45-7-1-2.79-1.49-4-5.43-2.67-8.65,1.42-3.41,3.47-3.94,25.08-6.48,9.4-1.11,20.39-2.67,24.43-3.48,8.83-1.77,10.22-1.4,10.22,2.76,0,1.73-4.91,25.87-10.92,53.66s-10.91,51-10.91,51.51,1.39-.07,3.08-1.36c4.48-3.42,18.32-9.8,24.88-11.48,7.18-1.84,18.22-1.83,26.05,0,25.48,6,38.51,30,32.77,60.27-3.11,16.39-9.68,29-21.49,41.32-18,18.78-38.69,28-62.36,28-11.44,0-18.5-1.55-27.61-6-7.49-3.63-16.76-12.56-20.3-19.53l-2.5-4.94-5.92,5.76c-13,12.68-32.41,22.33-48.78,24.25l-5.3.63,3.67,2.28c17.54,10.88,40.45,18.71,63,21.51h0c8.25,1,33.05-.25,43-2.21A148.42,148.42,0,0,0,496.8,526c23.59-21.65,38.78-48.4,45.73-80.52,2.77-12.83,3-38.06.76-53.17H471.72A5.37,5.37,0,0,1,466.35,386.92Z" transform="translate(0 -0.46)"/><path class="cls-4" d="M433.73,526.08c6.17-.25,8.86-.88,14-3.3,20-9.35,34.76-37.51,35-66.67.1-14.32-3.12-22.91-10.65-28.36-14.78-10.71-41.78-1.38-52.12,18-2.39,4.48-4,10.5-7.71,28-2.93,14-4.66,24.67-4.66,28.66,0,11,5.32,19,14.94,22.61C424.83,525.92,428.8,526.28,433.73,526.08Z" transform="translate(0 -0.46)"/><path class="cls-4" d="M560.36,392.29A162.71,162.71,0,0,1,534.3,507.86c-25.81,38.5-64.57,63.5-110.58,71.31-8,1.35-33.91,2.46-39.39,1.68-1.57-.23-6.27-.85-10.44-1.4a181.32,181.32,0,0,1-18-3.74c-59.54-15.68-106-64.24-119-124.32-9.52-44.16-1-88.51,24.36-126.31,25.54-38.12,66.22-63.84,112.63-71.22,9.83-1.56,37.71-1.55,47.45,0a173.55,173.55,0,0,1,45,13.56v-8.28A172,172,0,0,0,322.72,262c-20.26,9.85-40.09,24.9-54.22,41.14-57.14,65.66-57.14,161.57,0,227.23,27.67,31.8,69,53.08,111.66,57.54,63.07,6.59,125.29-22.89,160.77-76.17a171.36,171.36,0,0,0,27-119.45Z" transform="translate(0 -0.46)"/><path class="cls-4" d="M286.41,335.56a25,25,0,0,0-7-.89c-4.61,0-4.63,0-7.9,5.46A153,153,0,0,0,252.69,389c-3,15.14-3.06,40.25,0,55.28a179,179,0,0,0,8.78,29.39h0c.64,1.57,1.31,2.42,1.49,1.9,1-2.81,26.92-123.2,27.45-127.37C291.19,341.89,289.58,336.76,286.41,335.56Z" transform="translate(0 -0.46)"/><path d="M650.67,235.33H480.28a6.12,6.12,0,0,0-6.12,6.11V375.09a6.12,6.12,0,0,0,6.12,6.11h72.33a7,7,0,0,0,6.93,6.93h11.22a7,7,0,0,0,6.93-6.93h73a6.12,6.12,0,0,0,6.12-6.11V241.44A6.12,6.12,0,0,0,650.67,235.33Z" transform="translate(0 -0.46)"/><path class="cls-5" d="M650.67,235.33H480.28a6.12,6.12,0,0,0-6.12,6.11V375.09a6.12,6.12,0,0,0,6.12,6.11h72.33a7,7,0,0,0,6.93,6.93h11.22a7,7,0,0,0,6.93-6.93h73a6.12,6.12,0,0,0,6.12-6.11V241.44A6.12,6.12,0,0,0,650.67,235.33Z" transform="translate(0 -0.46)"/><path class="cls-4" d="M487.09,227.27a7.35,7.35,0,0,0-2.66,5.71V363.69a3.69,3.69,0,0,0,5.2,3.37,86.36,86.36,0,0,1,75.85,2.64V229.59S520.45,200.05,487.09,227.27Z" transform="translate(0 -0.46)"/><path class="cls-4" d="M643.88,227.27c-33.36-27.22-78.38,2.32-78.38,2.32V369.7a86.34,86.34,0,0,1,75.84-2.64,3.69,3.69,0,0,0,5.2-3.37V233A7.35,7.35,0,0,0,643.88,227.27Z" transform="translate(0 -0.46)"/><rect x="564.88" y="228.44" width="1.1" height="142.55"/><rect class="cls-5" x="564.88" y="228.44" width="1.1" height="142.55"/><path class="cls-6" d="M494.71,266.14c3.15-2.54,29.27-22.17,58.07,0a.86.86,0,0,1,.35.7v6.83a.87.87,0,0,1-1.35.73c-6-3.94-30.81-18.13-56-.09a.87.87,0,0,1-1.39-.7v-6.8A.85.85,0,0,1,494.71,266.14Z" transform="translate(0 -0.46)"/><path class="cls-6" d="M494.71,305.24c3.15-2.54,29.27-22.17,58.07,0a.88.88,0,0,1,.35.7v6.83a.87.87,0,0,1-1.35.73c-6-3.94-30.81-18.13-56-.09a.87.87,0,0,1-1.39-.7v-6.79A.85.85,0,0,1,494.71,305.24Z" transform="translate(0 -0.46)"/><path class="cls-6" d="M533.23,278.65a1.78,1.78,0,0,0-1.44-1.76c-19.54-3.59-34.72,7.83-37.08,9.73a.85.85,0,0,0-.32.68v6.79a.87.87,0,0,0,1.39.7,45.19,45.19,0,0,1,35.36-8.17,1.78,1.78,0,0,0,2.09-1.76Z" transform="translate(0 -0.46)"/><path class="cls-6" d="M533.23,315.34a1.77,1.77,0,0,0-1.44-1.76c-19.54-3.59-34.72,7.83-37.08,9.73a.83.83,0,0,0-.32.67v6.8a.88.88,0,0,0,1.39.7,45.19,45.19,0,0,1,35.36-8.17,1.78,1.78,0,0,0,2.09-1.76Z" transform="translate(0 -0.46)"/><path class="cls-7" d="M609.27,270.77a19.26,19.26,0,1,0-3.61,30.07l19.84,19.83a3.12,3.12,0,0,0,4.43,0l1.89-1.88a3.15,3.15,0,0,0,0-4.44L612,294.55A19.28,19.28,0,0,0,609.27,270.77Zm-5.36,21.88a11.68,11.68,0,1,1,0-16.52A11.67,11.67,0,0,1,603.91,292.65Z" transform="translate(0 -0.46)"/><path class="cls-8" d="M613.27,266.77a19.26,19.26,0,1,0-3.61,30.07l19.84,19.83a3.12,3.12,0,0,0,4.43,0l1.89-1.88a3.15,3.15,0,0,0,0-4.44L616,290.55A19.28,19.28,0,0,0,613.27,266.77Zm-5.36,21.88a11.68,11.68,0,1,1,0-16.52A11.67,11.67,0,0,1,607.91,288.65Z" transform="translate(0 -0.46)"/></g></svg>