<?xml version="1.0" encoding="utf-8"?>
<!-- Generator: Adobe Illustrator 26.0.1, SVG Export Plug-In . SVG Version: 6.00 Build 0)  -->
<svg version="1.1" id="Layer_1" xmlns="http://www.w3.org/2000/svg" xmlns:xlink="http://www.w3.org/1999/xlink" x="0px" y="0px"
	 viewBox="0 0 100 100" style="enable-background:new 0 0 100 100;" xml:space="preserve">
<g id="Guides">
	<g>
		<path d="M-30.9,191.4l141.3,141.3l13.4-13.4L-30.9,164.6C-38.3,172-38.3,184-30.9,191.4z"/>
		<rect x="54.7" y="114.9" transform="matrix(0.7071 -0.7071 0.7071 0.7071 -139.7721 111.0926)" width="18.9" height="218.8"/>
		<rect x="79.2" y="90.4" transform="matrix(0.7071 -0.7071 0.7071 0.7071 -115.3323 121.2174)" width="18.9" height="218.8"/>
		<rect x="103.6" y="66" transform="matrix(0.7071 -0.7071 0.7071 0.7071 -90.8665 131.3369)" width="18.9" height="218.8"/>
		<polygon points="53.5,80.3 208.2,235 221.6,221.6 66.9,66.9 		"/>
		<rect x="152.5" y="17.1" transform="matrix(0.7071 -0.7071 0.7071 0.7071 -42.0025 151.5946)" width="18.9" height="218.8"/>
		<path d="M233.5-150.6L-41,123.9c-3.7,3.7-5.5,8.5-5.5,13.2l0,0c0,0,0,0.1,0,0.2l0,0c0,2.1,0,26.8,0,26.8c0-4.8,1.9-9.7,5.5-13.4
			l287.9-287.9L233.5-150.6z"/>
		<path d="M224-160.1l-13.4-13.4L-41.1,78.1c-3.7,3.7-5.5,8.5-5.5,13.2l0,0c0,0,0,0.1,0,0.2l0,0c0,2.1,0,26.8,0,26.8
			c0-4.8,1.9-9.7,5.5-13.4L224-160.1z"/>
		<path d="M-46.6,45.5L-46.6,45.5c0,0,0,0.1,0,0.1c0,0,0,0,0,0c0,2.1,0,26.8,0,26.8c0-4.8,1.9-9.7,5.5-13.4L201-183l-13.4-13.4
			L-41,32.3C-44.7,35.9-46.5,40.7-46.6,45.5z"/>
		<path d="M178.1-206l-13.4-13.4L-41.1-13.6c-3.7,3.7-5.5,8.5-5.5,13.2l0,0c0,0,0,0.1,0,0.2l0,0c0,2.1,0,26.8,0,26.8
			c0-4.9,1.9-9.7,5.5-13.4L178.1-206z"/>
		<path d="M-46.6-46.3L-46.6-46.3c0,0,0,0.1,0,0.1l0,0c0,2.1,0,26.8,0,26.8c0-4.9,1.9-9.7,5.5-13.4l196.2-196.2l-13.4-13.4L-41-59.5
			C-44.7-55.8-46.5-51.1-46.6-46.3z"/>
		<path d="M132.2-251.8l-13.4-13.4L-41-105.4c-3.7,3.7-5.5,8.5-5.5,13.2l0,0c0,0,0,0.1,0,0.2l0,0c0,2.1,0,26.8,0,26.8
			c0-4.9,1.9-9.7,5.5-13.4L132.2-251.8z"/>
	</g>
</g>
</svg>
