<?xml version="1.0" encoding="utf-8"?>
<!-- Generator: Adobe Illustrator 26.0.1, SVG Export Plug-In . SVG Version: 6.00 Build 0)  -->
<svg version="1.1" id="Layer_1" xmlns="http://www.w3.org/2000/svg" xmlns:xlink="http://www.w3.org/1999/xlink" x="0px" y="0px"
	 viewBox="0 0 100 100" style="enable-background:new 0 0 100 100;" xml:space="preserve">
<style type="text/css">
	.st0{fill:none;}
	.st1{fill-rule:evenodd;clip-rule:evenodd;}
</style>
<g>
	<path d="M50,22.2c-35.8,0-35.8,55.6,0,55.6C85.8,77.8,85.8,22.2,50,22.2z"/>
	<g>
		<g>
			<path class="st0" d="M50,46.7c1,0,1.5,0.2,1.5,0.2l0,0c0-0.1,0.2,0.2,0.4,0.7c0.2,0.6,0.4,1.4,0.4,2.3c0,0.9-0.2,1.7-0.4,2.3
				c-0.2,0.6-0.4,0.8-0.4,0.8l0,0c0,0-0.5,0.2-1.5,0.2c-1,0-1.5-0.2-1.5-0.2l0,0c0,0.1-0.2-0.2-0.4-0.7c-0.2-0.6-0.4-1.4-0.4-2.3
				c0-0.9,0.2-1.7,0.4-2.3c0.2-0.6,0.4-0.8,0.4-0.8l0,0C48.5,47,49,46.8,50,46.7V-2.4c-6.2,0-12.9,1-19.7,3.7
				C23.6,4,17.5,8.1,12.6,13.4c-5,5.3-8.5,11.4-10.7,17.6C-0.4,37.3-1.4,43.7-1.4,50c0,6.3,1,12.7,3.3,19
				c2.2,6.2,5.7,12.3,10.7,17.7c4.9,5.3,11,9.4,17.8,12.1c6.7,2.7,13.4,3.6,19.6,3.7c6.2,0,12.9-1,19.7-3.7
				c6.7-2.6,12.8-6.8,17.7-12.1c5-5.3,8.5-11.4,10.7-17.6c2.2-6.2,3.3-12.6,3.3-18.9c0-6.3-1-12.7-3.3-19
				c-2.2-6.2-5.7-12.3-10.7-17.7C82.5,8.1,76.4,4,69.6,1.3C62.9-1.3,56.2-2.3,50-2.4L50,46.7z"/>
			<path class="st1" d="M4.5,36.9c-0.1-0.2-0.1-0.5,0-0.8C4.7,36.3,4.8,36.7,4.5,36.9z"/>
			<path class="st1" d="M38.1,41.7c-0.1-0.1-0.2-0.5,0.2-0.2C38.4,41.7,38.2,41.7,38.1,41.7z"/>
			<path class="st1" d="M38.9,41.8c-0.2-0.1,0.1-0.2,0.1-0.3C39.3,41.7,39.1,41.8,38.9,41.8z"/>
			<path class="st1" d="M35.3,38c-0.1-0.2-0.1-0.4,0.1-0.3C35.6,37.9,35.3,37.9,35.3,38z"/>
			<path class="st1" d="M40,40.7c-0.2-0.2-0.2-0.4,0-0.5C40.2,40.5,40,40.5,40,40.7z"/>
			<path class="st1" d="M21.4,22.1c0.4-0.5,1.1-1.9,1.9-1.8C22.4,20.7,22.1,21.7,21.4,22.1z"/>
			<path class="st1" d="M30.7,28.9c-0.1-1,1.3-1,1.6-1.9c0.5,0.4-0.8,0.8-0.7,1.3c-0.2,0.1-0.3,0.1-0.5,0.1
				C31,28.6,31.1,29,30.7,28.9z"/>
			<path class="st1" d="M37.4,26.2c-0.2-0.3-0.2-0.5,0-0.5c0.1,0.1,0.2,0.2,0.3,0.4L37.4,26.2z"/>
			<path class="st1" d="M38.5,21.2c0.3-0.7,1.4-1.2,2.2-0.9c0.1-0.1,0-0.3,0.2-0.3c0.4-0.2,1.3-0.2,0.4,0c-0.5,0.3-0.9,0.4-1.4,0.5
				C39.4,20.8,39,20.9,38.5,21.2z"/>
			<path class="st1" d="M40.9,26.7c0-0.2,0.2-0.3,0.4-0.4C41.3,26.6,41,26.8,40.9,26.7z"/>
			<path class="st1" d="M36.5,11.6c0-0.3,0.7-0.3,0.9-0.4C37.2,11.4,36.8,11.8,36.5,11.6z"/>
			<path class="st1" d="M40.7,24.6c0.1-0.4,0.5-0.4,0.6-0.7C41.7,24.4,41,24.5,40.7,24.6z"/>
			<path class="st1" d="M41.6,26.1c0-0.4,0.4-0.4,0.7-0.5C42.2,25.9,41.8,25.9,41.6,26.1z"/>
			<path class="st1" d="M36.7,8.6c-0.1-0.4,0.4-0.5,0.7-0.7C37.4,8.3,36.9,8.4,36.7,8.6z"/>
			<path class="st1" d="M38,11.2c0.3-0.4,1.5-0.6,2.1-0.7C39.4,10.9,38.8,11.1,38,11.2z"/>
			<path class="st1" d="M42.4,25.6c0.2-0.6,0.8-0.3,1.1-0.4C43.3,25.6,42.7,25.2,42.4,25.6z"/>
			<path class="st1" d="M41.9,19.9c0.1-0.2,0.4-0.3,0.6-0.5C42.7,19.9,42.2,19.8,41.9,19.9z"/>
			<path class="st1" d="M42.9,20.9c0.1-0.3,0.3-0.3,0.6-0.2C43.5,20.9,43.1,20.8,42.9,20.9z"/>
			<path class="st1" d="M43.9,22.2c0-0.3,0.6-0.5,0.6,0.2c-0.2,0.1-0.2-0.2-0.2-0.3C44.1,22,44.1,22.3,43.9,22.2z"/>
			<path class="st1" d="M44.2,12.9C43.8,13.4,42.8,12.8,44.2,12.9L44.2,12.9z"/>
			<path class="st1" d="M44.8,8.3c0.4-0.3,0.9-0.3,1.4-0.2C45.9,8.3,45.1,8.4,44.8,8.3z"/>
			<path class="st1" d="M45.1,7.6c-0.2-0.4,0.7-0.4,0.6,0C45.5,7.6,45.3,7.6,45.1,7.6z"/>
			<path class="st1" d="M45.6,1.2c0.2-0.3,0.5-0.3,0.9-0.3C46.4,1.2,45.8,1.3,45.6,1.2z"/>
			<path class="st1" d="M49.1,1.6C50.1,1,50.5,1.6,49.1,1.6L49.1,1.6z"/>
			<path class="st1" d="M20.9,10.8c0.1-0.3,0.3-0.5,0.3-0.8c0.6,0.1,1-0.7,1.7-0.8C22.6,10,21.6,9.9,20.9,10.8z"/>
			<path class="st1" d="M37.8,13.5c0.2-0.1,0.3,0.2,0.5,0c0.1,0.2,0,0.2,0,0.4c0.5,0,0.8-0.3,1.2-0.4c0,0.1-0.1,0.2,0,0.4
				c0.4-0.8,1.3,0,2.4-0.5c-1,0.9-3.5,1-4.5,1.6c0-0.2,0.2-0.4,0.5-0.5c0.2-0.1,0.5-0.2,0.4-0.4C38.3,13.6,37.8,14,37.8,13.5z"/>
			<path class="st1" d="M42,24.1c0.1,0,0-0.1,0-0.1c-0.1-0.3,0.3-0.1,0.4-0.1C42.3,24.2,41.4,24.3,42,24.1z"/>
			<path class="st1" d="M47.2,21.8l0,0.5c0.5,0,1.3-0.2,1.6,0.2c-0.5,0.4-1.8-0.4-2.1,0.4c-0.1-0.1-0.3-0.1-0.4-0.2
				c-1.2,0.9-2.7,0.3-3.9,1.2c0.1-0.7,0.7-0.7,1.2-0.7c0.5,0,1.1,0.1,1.3-0.7c0.1,0,0,0.1-0.1,0.1C45.4,22.5,46.5,22.5,47.2,21.8z"
				/>
			<path class="st1" d="M45.2,6.6c0.2-0.2,0.5-0.3,0.6-0.5C46,6.1,45.5,6.9,45.2,6.6z"/>
			<path class="st1" d="M83.7,9.9c-0.5-0.4-1.4-0.6-1.9-1c-0.3-0.3-0.6-0.5-0.9-0.8l-0.9-0.8c-0.6-0.5-1.2-1-2-1.4
				c-1.3-0.7-2.9-0.8-4.3-1.3c-1-0.4-1.4-0.4-2.2-0.6c-2.1-0.5-3.7-1.3-5-0.4c-0.9,0.1-1.7,0.2-2.5,0.3c-0.8,0.1-1.6,0.2-2.3,0.4
				c-0.2,0.1-0.6-0.1-0.7-0.1c-0.4,0.1-0.8,0.3-1.2,0.5c-0.4,0.2-0.7,0.4-1.1,0.7c-0.7,0.5-1.4,1-2,1.5c-0.7,0.5-1.3,1-2,1.4
				c-0.7,0.4-1.3,0.9-2.1,1.2c-0.3,0.7-0.5,1.7-1,2.6c-0.2,0.4-0.7,0.6-0.8,1c-0.6,1.5-0.2,3.4-1.1,4.5c0,0.4,0.1,0.5,0.2,0.7
				c0,3,0.2,5.5,0,7.8c0.5,1.4,0.3,3,0.6,4.3c0.2,0.8,0.5,1.6,0.7,2.4c0.2,0.9,0.4,1.6,0.5,2.5c-0.1,0.9,0.1,1.1,0.1,1.9
				c0.2,0.6,0.3,1.4,0.5,2c0,0.3,0,0.5-0.1,0.8c0.1,0.8,0.1,1.7,0.1,2.5c0,0.3,0,0.7,0,1c0,0.1,0,0.3,0,0.4c0,0.1,0,0.2,0,0.3
				c0,0.1,0,0.2,0,0.2c0.2,0,0.2,0.5-0.3,1.5c0,0.1,0.1-0.2,0.1-0.1c-0.3,0.5-0.9,1.5-0.9,1.4c0-0.1,0.1-0.2,0.2-0.3
				c0.1-0.2,0.3-0.4,0.3-0.4c0.1-0.1-0.5,0.7-0.4,0.6c0.1-0.1,0.5-0.6,0.7-0.7c0.3-0.2,0.2,0,0,0.2c-0.1,0.2-0.6,0.5-0.5,0.5
				c0.3-0.2,0.7-0.5,1.3-1c0.9-0.6,1-0.5,1.1-0.3c0.1,0.1,0,0.4,0.5,0.4c-0.5,0.5,0.6,0.3,0.7,0.6c0,0.1-0.2,0.2-0.2,0.3
				c0,0.1,0.4,0.1,0.6,0.2c0.3,0.2,0.3,0.4,0.7,0.6c-0.6,0.3-0.5,0.4-0.2,0.5c0.2,0.1,0.5,0.2,0.5,0.4c0,0.1-0.4,0.3-0.3,0.4
				c0,0.1,0.4,0.2,0.3,0.3c0,0.1-0.4,0.3-0.4,0.4c0,0.1,0.2,0.1,0.2,0.2c0,0.1-0.3,0.2-0.3,0.3c0,0.1,0.5,0.2,0.5,0.3
				c0.1,0.2,0,0.4,0,0.6c0,0.2,0,0.4,0.5,0.6c-0.2,0.1-0.3,0.3-0.3,0.5c0,0.2,0,0.3,0,0.5c0,0.2,0.1,0.4,0,0.5
				c-0.1,0.2-0.2,0.3-0.4,0.4c0.2,0.2,0.3,0.5,0,0.5c0.1,0.1,0.3,0.2,0.3,0.2c-0.2,0.1-0.2,0.3-0.1,0.6c0.1,0.2,0.1,0.4-0.2,0.5
				c0.1,0.1,0.2,0.1,0.3,0.2c-0.3,0.1-0.6,0.2-0.8,0.4c-0.1,0.1-0.1,0.2-0.1,0.4c0,0.1,0,0.3,0.1,0.4c-0.3-0.1-0.4,0-0.4,0.2
				c0,0.1,0,0.4-0.1,0.5c0,0.1-0.1,0.1-0.2,0.1c-0.1,0-0.2,0-0.2,0.1c0,0.2-0.1,0.3-0.2,0.3C55.1,58,55,58,54.9,58.1
				c0,0.1,0.1,0.4,0.1,0.5c0,0.2-0.4-0.1-0.4,0.1c0,0.2-0.1,0.4-0.2,0.5c-0.1,0.1-0.3,0.1-0.4,0.2c-0.2,0.1-0.7,0-1,0.1
				c-0.2,0.1-0.2,0.5-0.5,0.7c-0.2,0.1-0.4,0.1-0.6,0c-0.1,0-0.2-0.1-0.3-0.1c-0.1,0-0.2,0-0.4,0c-0.1,0-0.2,0.3-0.3,0.3
				c-0.3,0.1-0.6-0.1-0.9,0c-0.7,0-1.6,0.7-2.1,0c-0.2,0.2-0.5,0.3-0.7,0.3c-0.2,0-0.5,0-0.7,0l-0.4,0c-0.1,0-0.2-0.1-0.3-0.1
				c-0.2-0.1-0.4-0.1-0.6-0.2c-0.4,0.5-0.3-0.1-0.5-0.1c-0.1,0-0.3,0-0.5,0c-0.2,0-0.4,0-0.5,0c-0.2,0-0.4-0.1-0.5-0.2
				c-0.1-0.1-0.2-0.3-0.2-0.5c-1.3-0.4-2.4-1.4-3.3-2.8c-0.9-1.4-1.6-3.2-2.4-5.1c0.4-0.3,0.2-0.8-0.2-1.1c0.3-0.1,0.3-0.3,0.4-0.4
				c-0.8-0.5-0.1-1.1-0.3-1.8c-0.8-0.2-0.1-0.6-0.7-0.9c0.4,0,0.3,0.2,0.6,0c-1.4-0.6-0.4-2-0.6-2.6c0,0-0.2,0-0.2-0.1
				c0.4-0.1-0.3-0.3-0.2-0.5c0-0.3,0-0.6-0.1-0.9c0-0.3-0.1-0.6-0.3-0.9c-0.1-0.3-0.2-0.6-0.3-1c-0.1-0.3-0.1-0.6-0.1-0.9
				c0.2,0,0.9-0.1,0.5-0.4c-0.2,0.1-0.2,0.4-0.7,0.1c0.3-0.2,0.3-0.7,0-1.1c0.2-0.4,0.6-0.4,0.4-0.9c0.1-0.1-0.6-0.3-0.4-0.4
				c0.6-0.4,0.4-0.8,0.9-1.1c-0.3-0.5-0.1-1.1,0.3-1c-0.1-0.3-0.5-0.2-0.5-0.4c0.2-0.5,0.4-1,1-1.1c-0.1-0.3-0.3-0.6-0.2-0.8
				c0.1-0.1,0.3,0.4,0.4,0.2c-0.1-0.4-0.5-0.3-0.7-0.7c0.1-0.3-0.2-0.5-0.3-0.8c0.5,0,0.3-0.7,0.4-1.1c0.1-0.4,0.7-0.5,0.9-0.8
				c0.2-0.3,0.1-0.7,0.4-0.9c0.3-0.2,0.7,0.1,1-0.1c0.1-0.2-0.3-0.3-0.1-0.5c0.5-0.3,1-0.7,1.4-1.1c0.5-0.3,0.9-0.7,1.1-1.2
				c-0.5,0.7-1,0.8-1.6,1.1c-0.5,0.2-1,0.5-1.3,1.1c-0.4-0.4-0.3,0.6-0.8,0c0.1,0.3,0.4,0.3,0.2,0.4c-0.1,0-0.2-0.1-0.3,0
				c-0.2-0.6-0.4-0.5-0.7-0.8c-0.4,0.3-0.8,0.6-1.1,1c-0.3,0.4-0.6,0.7-0.9,1c0,0.2,0.3,0.2,0.3,0.4c-0.2,0.3-0.5,0.4-0.6,0.8
				c-0.4-0.3-0.8-0.2-1.1-0.8c0.9-0.8,1.6-2.7,2.9-3.6c0.4-0.3,1-0.1,0.9-0.9c-0.5,0.5-1.4,0.2-2,0.5c-0.4,0.2-0.6,0.6-0.9,0.9
				c-0.2,0.4-0.4,0.8-0.8,1c-0.2,0.1-0.4,0-0.6,0.1c-0.1,0.1-0.1,0.5-0.2,0.6c-0.2,0.1-0.3-0.1-0.4,0.1c-0.2,0.3-0.1,0.8-0.4,1
				c-0.4,0.4-1.2,0.5-1.5,1.2c-0.2,0-0.6-0.4-0.6-0.6c0.5-0.7,0.7-0.7,1.2-1.4c-0.1,0-0.2,0-0.4-0.1c0.2-0.2,0.4-0.1,0.3-0.5
				c-0.4,0.5-1.1-0.2-1.2-0.7c0.3-0.3,0.6-0.6,0.9-0.9c0.3-0.3,0.7-0.6,1-0.9c0.3-0.3,0.7-0.6,1-0.9c0.3-0.3,0.7-0.4,1-0.6
				c0-0.3-0.1-0.6,0-0.9c0.3-0.3,0.6-0.6,1-0.8c0.3-0.3,0.7-0.4,1.1-0.6c0.4-0.2,0.8-0.4,1.2-0.6c0.2-0.1,0.4-0.2,0.6-0.3
				c0.2-0.1,0.4-0.2,0.6-0.3c-0.5,0-1,0.1-1.5,0.3c-0.5,0.2-1,0.4-1.4,0.7c-0.5,0.3-0.9,0.6-1.3,1c-0.4,0.4-0.8,0.7-1.3,1.1
				c-0.1,0-0.3-0.3-0.4-0.2c-0.6,0.9-1.5,1.6-2,2.2c-0.6-0.1-1.2-0.3-1.8-0.4c-0.7,1.1-1.8,1.6-2.8,2.2c-0.5,0.3-1.1,0.6-1.6,0.9
				c-0.5,0.4-0.9,0.8-1.3,1.3c-0.3-0.2-0.5-0.1-0.8-0.2c-0.1-0.3-0.4-0.7-0.5-1c0.2-0.4,0.3-0.9,0.7-1.1c0.2-1.2,1-2.4,2-3.6
				c1-1.1,2.1-2.2,3-3.4c-0.1-0.7-0.6-0.9-1.2-1.1c-1.4,0.7-1.7,2.3-3.3,2.9c-1.5-0.5-1.8-1.6-0.9-2.6c0.4-0.4,0.8-0.9,1.3-1.4
				c0.5-0.5,1.1-0.9,1.6-1.3c0.5-0.4,1.1-0.8,1.5-1.2c0.5-0.3,0.9-0.6,1.2-0.7c0.6-0.5,1.2-1,1.8-1.5c0.6-0.5,1.3-0.9,2-1.3
				c0.7-0.4,1.4-0.8,2.1-1.2c0.7-0.3,1.5-0.7,2.2-1c1.5-0.7,3-1.1,4.5-1.6c1.5-0.5,3-0.8,4.6-1.2c-1.8,0.1-3.4,0.5-5,1
				c-0.8,0.3-1.6,0.5-2.4,0.7c-0.8,0.3-1.6,0.5-2.4,0.7c0.1,0.2,0,0.4-0.2,0.5c-3.1,1-6.2,2.9-8.2,5c-1.5,0-2.6,2.3-4.1,2.5
				c-0.7-1.2-0.4-2.3,0.4-3.5c-1,0.9-2.3,1.4-3.1,2.2c-0.7,0.6-1.5,2.1-2.1,2.3c-0.1,0-0.2-0.3-0.3-0.1c0.3-0.3-0.4,0.6-0.4,0.7
				c-0.2,0.5-0.1,0.5-0.5,0.9c-0.5,0.6-0.5,0.6-1.1,0.8c-1,1-1.5,2.2-2.2,3.3c-0.7,1.1-1.2,2.3-1.9,3.4c-0.1,0.2-0.4,0.7-0.4,0.8
				c-0.2,0.2-0.3-0.1-0.5,0.2c-0.1,0.2,0.2,0.2,0,0.4c-0.5,0.9-1,1.9-1.4,2.9c-0.5,1.2-0.9,2.5-1.3,3.7C6.6,37.8,6.3,39,6.1,40
				c-0.2,0.4-0.5-0.2-0.6,0.4C5,42,4.7,43.8,4.4,45.6c-0.1,0.9-0.2,1.8-0.3,2.7c-0.1,0.9-0.2,1.9-0.1,2.8c0,0.3-0.6,0.1-0.5,0.5
				C3.4,52.1,4,52,3.9,52.5c-0.1,0.3-0.3,0.6-0.6,0.7C3.2,57.6,4.5,62,6.1,66.3c1.6,4,3.5,8,6,11.5c1,1.4,2.2,2.6,3.3,3.8
				c1.2,1.1,2.3,2.3,3.3,3.5c0.8,0.6,1.6,1.2,2.4,1.8c0.4,0.3,0.8,0.6,1.2,0.9c0.4,0.3,0.8,0.5,1.2,0.8c0.8,0.5,1.6,1,2.4,1.5
				c0.8,0.5,1.6,0.9,2.5,1.3c0.6,0.3,1.2,0.6,1.9,1c0.6,0.3,1.3,0.6,1.9,0.9c1.3,0.5,2.6,1.1,3.7,1.2c0.4,0.1,0.9-0.1,1.3,0
				c0.6,0.2,1.2,0.7,1.9,0.9c0.9,0.3,1.8,0.3,2.7,0.3c0.9,0,1.8,0,2.6,0.2c1.9,0.2,3.7,0.4,5.5,0.5c1,0,2-0.4,3.1-0.5
				c0.7-0.1,1.4,0.2,2.1,0.2c1-0.1,2-0.4,3-0.7c1-0.3,2-0.5,3-0.7c1.3-0.3,2.7-0.4,4-0.8c1.4-0.4,2.7-1,3.9-1.8
				c1.5-0.5,3.1-1.3,4.6-2.1c1.5-0.9,2.9-1.9,4-2.9c1.2-0.4,2.2-1.2,3.1-2.1c0.9-0.9,1.7-2.1,2.7-3c0.2-0.2,0.5-0.2,0.7-0.4
				c0.8-0.7,1.5-1.5,2.2-2.4c0.3-0.4,0.6-0.9,0.9-1.3c0.3-0.5,0.5-0.9,0.8-1.4c0.5-0.9,1-1.8,1.4-2.6c0.4-0.8,0.8-1.6,1.3-2.3
				c0-1.4,1-2,1.5-3c0.6-1.1,0.6-2.3,0.9-3.3c0.1-0.4,0.4-0.6,0.6-1c0.2-0.5,0.3-1.1,0.4-1.7c0-0.6,0-1.2,0.1-1.8
				c0.1-0.9,0.6-1.8,0.9-2.8c0.3-1,0.5-2,0.3-3.1c0.3-0.8,0.6-1.8,0.8-2.9c0.2-1.1,0.2-2.2-0.2-3.1c0.4-1.6,0.3-3.2,0-4.9
				c-0.2-0.8-0.3-1.6-0.5-2.4c-0.2-0.8-0.3-1.6-0.4-2.5c-0.1-0.6,0-1.1,0-1.7c0-0.6-0.2-1.1-0.6-1.6c0.3-1.3-0.5-2.6-1-4
				c-0.5-1.4-0.7-3-1.3-4.5c-0.8-2.2-2.8-4.3-2.6-6.5c0.9-1.1,0.2-1.4-0.7-1.7c-0.9-0.3-2.2-0.4-2.5-1.3c-0.2-1.1,0.4-1.5,0.9-2.5
				c-0.3-1-1.2-1.5-2-2c-0.3-0.5-0.4-1.1-0.5-1.7C84.5,11,84.3,10.4,83.7,9.9z M33.8,33.8c0.1,0.1,0.2,0.1,0.2,0.1
				C34.4,34.4,33.6,34,33.8,33.8z M33.8,33.5c0.3-0.4,0.4-1.3,1-1.3c0.1-0.1-0.5-0.4-0.5-0.7c0.4,0.1,0.7,0.1,1-0.2
				c0.7,0.7-0.3,0.8,0.3,1.4c-0.3,0.1-0.4,0.2-0.2,0.6c-0.6,0.2-0.3,0.7-0.8,0.8C34.2,33.7,34.2,34,33.8,33.5z"/>
		</g>
	</g>
</g>
</svg>
