<?xml version="1.0" encoding="utf-8"?>
<!-- Generator: Adobe Illustrator 26.0.1, SVG Export Plug-In . SVG Version: 6.00 Build 0)  -->
<svg version="1.1" id="Layer_1" xmlns="http://www.w3.org/2000/svg" xmlns:xlink="http://www.w3.org/1999/xlink" x="0px" y="0px"
	 viewBox="0 0 100 100" style="enable-background:new 0 0 100 100;" xml:space="preserve">
<style type="text/css">
	.st0{fill:none;}
	.st1{fill-rule:evenodd;clip-rule:evenodd;}
</style>
<g>
	<path d="M51.5,20.4c-36.1,0-36.2,56.2,0,56.2C87.6,76.6,87.7,20.4,51.5,20.4z"/>
	<g>
		<g>
			<path class="st0" d="M51.5,44.7c1.1,0,1.6,0.2,1.8,0.3c0.1,0.1,0,0,0.1,0c0.1,0.1,0.3,0.3,0.5,1c0.2,0.6,0.4,1.5,0.4,2.5
				c0,0.9-0.2,1.9-0.4,2.5c-0.2,0.6-0.5,0.9-0.5,1c-0.1,0.1,0,0-0.1,0.1c-0.1,0.1-0.7,0.2-1.8,0.3c-1.1,0-1.6-0.2-1.8-0.3
				c-0.1-0.1,0,0-0.1,0c-0.1-0.1-0.3-0.3-0.5-1c-0.2-0.6-0.4-1.5-0.4-2.5c0-0.9,0.2-1.9,0.4-2.5c0.2-0.6,0.5-0.9,0.5-1
				c0.1-0.1,0,0,0.1-0.1C49.9,44.9,50.4,44.7,51.5,44.7V-3.9c-6.2,0-13,1-19.6,3.7C25.2,2.3,18.9,6.6,14,11.9
				C9.1,17.2,5.6,23.3,3.4,29.5c-2.2,6.2-3.3,12.6-3.3,19c0,6.4,1,12.7,3.3,19C5.6,73.7,9.1,79.8,14,85.1
				c4.9,5.3,11.2,9.6,17.8,12.1c6.6,2.6,13.4,3.6,19.6,3.7c6.2,0,13-1,19.6-3.7C77.7,94.6,84,90.3,88.9,85
				c4.9-5.3,8.4-11.4,10.7-17.6c2.2-6.2,3.3-12.6,3.3-19c0-6.4-1-12.7-3.3-19c-2.2-6.2-5.8-12.3-10.7-17.6C84,6.6,77.7,2.3,71.1-0.3
				c-6.6-2.6-13.4-3.6-19.6-3.7L51.5,44.7z"/>
			<path class="st1" d="M51.5,35.9c0.2,0,0.2,0.1,0.2,0.5C51.6,36.5,51.5,36.3,51.5,35.9z"/>
			<path class="st1" d="M51.7,39.7c0.1-0.3-0.1-1.5,0.2-1.4c-0.1,0.4,0.1,1-0.1,1c0,0.7,0.1,0,0.2,0C52,40,51.9,39.7,51.7,39.7z"/>
			<path class="st1" d="M52.3,13.1c0-0.7,0-1.3,0.6-1.3C52.7,12.4,52.7,13,52.3,13.1z"/>
			<path class="st1" d="M52.3,29.5c0-0.6,0.5-0.8,0.6-0.6C52.9,29.4,52.6,30,52.3,29.5z"/>
			<path class="st1" d="M52.6,22.9c0.1-0.4,0.6-0.6,0.7-0.3C53.2,22.8,52.7,23.1,52.6,22.9z"/>
			<path class="st1" d="M52.6,22.4c0.3-0.4,0-0.8,0-1.3c0.4-0.1,0.6-0.5,1-0.6c-0.1,0.4-0.2,0.9-0.6,0.9c0,0.7,0.6-0.2,0.5,0.7
				C53.1,21.9,53,22.3,52.6,22.4z"/>
			<path class="st1" d="M52.4,30c0.2,0.1,0.4,0.3,0.3,1C52.7,30.5,52.4,30.6,52.4,30z"/>
			<path class="st1" d="M52.6,27.1c0.2,0.2,0.2,0.5,0.2,1c-0.1,0.1-0.2,0.1-0.2,0.3C52.4,28.1,52.6,27.6,52.6,27.1z"/>
			<path class="st1" d="M55.1,9.4c0.1-0.4,0.3-0.7,0.7-0.8C55.8,9.1,55.5,9.3,55.1,9.4z"/>
			<path class="st1" d="M52.5,42.3c0-0.6,0.2-0.8,0.2-0.5C52.7,42.3,52.6,42.3,52.5,42.3z"/>
			<path class="st1" d="M53,38.6c0.1,0,0.1,0.3,0.2,0.4C53.1,39.5,52.9,39.1,53,38.6z"/>
			<path class="st1" d="M53.2,39c0.5-0.3-0.1,2.9-0.3,4.1c0-0.4,0.1-1.4-0.1-1.5C52.9,40.6,53.2,39.7,53.2,39z"/>
			<path class="st1" d="M59.6,9.7c0.1-0.3,0.2-0.7,0.6-0.6c-0.2,0.6,0,0.4,0.4,0.4c-0.1,0.1-0.2,0.2-0.3,0.4
				C60,9.9,60.1,9.6,59.6,9.7z"/>
			<path class="st1" d="M53.5,44.6c0.1-0.2,0.1-0.2,0.2-0.4c0,0-0.2,0.4-0.4,0.7C53.3,45,53.5,44.6,53.5,44.6z"/>
			<path class="st1" d="M54.1,43.7c-0.2,0.3-0.3,0.5-0.4,0.7C53.3,45.1,54,43.7,54.1,43.7z"/>
			<path class="st1" d="M55.6,42.8c0.1-0.1,0.3-0.2,0.5-0.4C56.2,42.4,55.5,43,55.6,42.8z"/>
			<path class="st1" d="M56.2,45.1C57.2,44.9,55.4,45.6,56.2,45.1L56.2,45.1z"/>
			<path class="st1" d="M56.9,48.8c0.5,0.1,0.9,0.2,0,0.2C57,48.9,57,48.9,56.9,48.8z"/>
			<path class="st1" d="M56.1,49c0.5,0,0.5,0.1,0.5,0.2c-0.1,0-0.3-0.1-0.5-0.1C56.4,49.1,56,49.1,56.1,49z"/>
			<path class="st1" d="M56.2,49.3c0.6,0,0.6,0.3,0,0.2L56.2,49.3z"/>
			<path class="st1" d="M57.2,49.6c0.3,0.1,0.7,0.3,0.4,0.3c-0.3,0-0.3-0.1-0.6-0.1C57,49.8,57,49.7,57.2,49.6z"/>
			<path class="st1" d="M57,50.7c0.2,0.1,0.4,0.2,0.4,0.3C56.8,50.9,56.7,50.7,57,50.7z"/>
			<path class="st1" d="M59.5,52.7c0.5,0.2,0.6,0.4,0.4,0.4C59.4,52.9,59.6,52.8,59.5,52.7z"/>
			<path class="st1" d="M94.4,68c0.4,0.7-0.1,0.5,0.8,0.5c-0.1,0.7-0.6,0.3-0.7,0.9c-0.4-0.3-0.2-0.2-0.7-0.3
				C94.1,68.5,94.1,68.3,94.4,68z"/>
			<path class="st1" d="M93.8,70.5c0.3,0.3-0.4,1-0.5,1.4c-0.5-0.2,0.3-1-0.3-1.2C93.1,70.2,93.5,70.8,93.8,70.5z"/>
			<path class="st1" d="M90.1,76.6c0.2,0.3,0.1,0.7-0.1,1.1C89.3,77.3,89.7,77,90.1,76.6z"/>
			<path class="st1" d="M59.2,56.1c0.6,0.6,0.3,0.1,0.9,0.5c0.5,0.4-0.7-0.2,0,0.3c-0.1,0-0.3-0.1-0.3-0.1c-0.2-0.1-0.2-0.2-0.3-0.4
				c-0.2,0-0.2,0.2-0.9-0.4C58.7,55.9,59,56.3,59.2,56.1z"/>
			<path class="st1" d="M60,56.9c0.4,0.4-0.2,0.1-0.2,0.3c-0.2-0.2-0.2-0.3-0.1-0.4C59.8,56.9,59.9,56.9,60,56.9z"/>
			<path class="st1" d="M59.1,56.5c0.3,0.2,0.2,0.3,0.1,0.4C58.8,56.6,58.8,56.4,59.1,56.5z"/>
			<path class="st1" d="M60.3,58.3c0.5,0.4,0.4,1.1-0.2,0.6c-0.1-0.2,0.5,0.1-0.1-0.6C60,58.2,60.3,58.5,60.3,58.3z"/>
			<path class="st1" d="M85.2,84c-0.7,0.3-0.8,1.3-1.5,0.8C84.2,84.6,84.8,83.6,85.2,84z"/>
			<path class="st1" d="M83.2,82.8c-0.1,0.4-0.2,0.8-0.5,1.1C82.5,83.5,82.7,83.1,83.2,82.8z"/>
			<path class="st1" d="M59.3,60.5c0.3,0.4,0.2,0.8,0,0.6C59.2,60.8,59.2,60.6,59.3,60.5z"/>
			<path class="st1" d="M58,59c0.1,0,0.2,0.2,0.3,0.4c-0.1,0.1-0.1,0.5-0.5-0.1C58,59.3,58.1,59.3,58,59z"/>
			<path class="st1" d="M77.1,91.2c-0.5,0.1-1.2,0.5-1.6,0.1C76.3,90.8,76.7,90.8,77.1,91.2z"/>
			<path class="st1" d="M74.3,92.5c-0.8,0.5-1.3,0.4-1.8,0.4c-0.1-0.7,1.3-0.2,0.9-0.8C74,91.7,74,92.3,74.3,92.5z"/>
			<path class="st1" d="M58.4,63.6l0.2,0.4c-0.2,0.2-0.2,0.1-0.4,0.3c-0.1-0.2-0.2-0.3-0.3-0.6c0,0.2-0.1,0.3-0.1,0.5
				c-0.1,0-0.2-0.4-0.3-0.4c-0.1-0.4,0.3-0.5,0.5,0C57.9,63.5,58.1,63.6,58.4,63.6z"/>
			<path class="st1" d="M67.9,94.6c0,0.3,0.2,0.7-0.4,0.8C67.3,95,67.2,94.7,67.9,94.6z"/>
			<path class="st1" d="M56.3,92.3c-0.1,0.4-0.6-0.2-1.1,0.1c0.1,0.4,0.2,0.4,0.4,0.9c-1.2,0-2.7,0.5-4,0.2
				c-0.4-0.1,0.1,0.8-0.3,0.6c-0.4-0.2-0.6-0.6-1-0.8c0.1-0.6,0.9-0.4,1.2,0c0.2-0.1,0.3-0.4,0.3-0.7c0.7,0.4,1.3-0.1,1.8,0.6
				c1.2,0,1.4-0.9,1.7-1.7C55.6,91.9,55.8,92.3,56.3,92.3z"/>
			<path class="st1" d="M54.3,89.2c-0.8-0.3-1.2,0-1.8,0.2c-0.1-0.4,0.3-0.2,0.3-0.5c-0.7-0.7-1.5,0.5-2.6,0.2
				c0.3-0.5,0.7-0.6,1.2-0.7c0.4-0.1,0.9,0,1.3-0.1c0,0.6,0.8,0.2,0.9,0.6c0.2-0.1-0.1-0.2,0-0.5C54.2,88.4,54.2,88.8,54.3,89.2z"/>
			<path class="st1" d="M52.7,64c-0.1,0.6-0.4,0.7-0.7,0.4C52.2,64.3,52.3,64,52.7,64z"/>
			<path class="st1" d="M53.4,76.1c-0.1,0.5,0.1,0.4-0.1,0.8c-0.4-0.1,0.1-0.5-0.4-0.6C53,76.1,53.3,76.2,53.4,76.1z"/>
			<path class="st1" d="M52.8,76.8c-0.4,0.9-0.7-0.8-0.3-1.1C53.3,76.4,52.1,76.3,52.8,76.8z"/>
			<path class="st1" d="M52.8,98.9c-0.6,0-0.4-0.7-1.1-0.6c0.1-0.2,0.4-0.3,0.7-0.3C52.3,98.4,52.8,98.4,52.8,98.9z"/>
			<path class="st1" d="M50.8,84.3c0.3,0.3,0.8,0.4,0.9,0.8C51.2,85.1,50.9,84.9,50.8,84.3z"/>
			<path class="st1" d="M51.5,80c-0.4,0.7-0.5,0-0.9,0.8c0.2-0.6-0.1-0.4-0.1-1C50.9,79.6,51.3,79.6,51.5,80z"/>
			<path class="st1" d="M51,65.7c-0.1,0.5-0.4,0-0.7,0.3c0-0.4,0.1-0.5,0.3-0.6C50.7,65.6,50.7,65.6,51,65.7z"/>
			<path class="st1" d="M49.7,89.4c-0.6,0.2-0.2-0.7-0.6-0.8c0.1-0.2,0.4-0.1,0.6-0.1C49.6,89,50,89.1,49.7,89.4z"/>
			<path class="st1" d="M49.6,95.4c-0.3,0.1-1.4,0.4-1.6,0.1C48.1,95,48.9,95.4,49.6,95.4z"/>
			<path class="st1" d="M49.2,77.7c0,0.6-0.8,0.6-0.9,0.4C48.6,78,48.9,78,49.2,77.7z"/>
			<path class="st1" d="M46.7,98.8c-0.4,0.3-1.9,0-1.8-0.5C45.7,98.4,46.2,98.6,46.7,98.8z"/>
			<path class="st1" d="M48.3,76.2c0.2,0.5-0.4,1.2-0.8,1.2c0.1-0.3-0.1-0.3-0.2-0.4c0.3-0.5,0.6-1.8,1-1.3c0,0.6-0.4,0.2-0.5,0.6
				C47.9,76.7,48.4,76.5,48.3,76.2z"/>
			<path class="st1" d="M49.3,65.6c0.1,0.7-0.3,0.3-0.5,0.4C48.8,65.1,49.1,66.2,49.3,65.6z"/>
			<path class="st1" d="M44,95.1c-0.2,0.6-1.3,0.1-1.4-0.2C43.1,94.7,43.8,94.7,44,95.1z"/>
			<path class="st1" d="M46.4,77.3C46.1,78.2,45.4,76.8,46.4,77.3L46.4,77.3z"/>
			<path class="st1" d="M43.9,92.6c-0.1,0.7-1,1-1.3,0.6C42.9,92.9,43.3,92.6,43.9,92.6z"/>
			<path class="st1" d="M47.7,65.7c0.1,0.4-0.4,0.5-0.6,0.4C47.1,65.4,47.6,65.9,47.7,65.7z"/>
			<path class="st1" d="M44.8,79.3c-0.3,0.5-0.6,0.1-0.8-0.2C44.1,78.8,44.3,79.5,44.8,79.3z"/>
			<path class="st1" d="M40.6,93c-0.2,0.3-1-0.2-0.8-0.5C40.4,92.5,40.3,92.8,40.6,93z"/>
			<path class="st1" d="M47,63.2c-0.2,0.5-0.5,0.5-0.6,0.3C46.6,63,46.9,63,47,63.2z"/>
			<path class="st1" d="M42.7,78.3c-0.1,0.2-0.3,0.3-0.4,0.6c-0.1-0.1-0.2-0.4,0-0.3c0-0.2-0.1-0.2-0.2-0.2
				C42.3,78.1,42.7,78.1,42.7,78.3z"/>
			<path class="st1" d="M38.9,92.4c-0.1,0.5-1.4,0-1.5-0.1C37.9,92,38.4,91.9,38.9,92.4z"/>
			<path class="st1" d="M42.9,77.2c-0.1,0.6-0.6,0.6-0.7,0.3C42.4,77.3,42.6,77,42.9,77.2z"/>
			<path class="st1" d="M39.5,89.7c-0.1,0.4-0.5,0.3-0.9,0.2C38.6,89.3,39.4,89.5,39.5,89.7z"/>
			<path class="st1" d="M38,92.8c0.5,0.5-1.3-0.6-1.1,0.4c-0.3-0.1-0.6-0.2-0.9-0.3c0.1-0.4,0.4-0.4,0.6-0.6
				C37.1,92.5,37.4,92.7,38,92.8z"/>
			<path class="st1" d="M41.6,79.7c-0.1,0.1-0.2,0.1-0.2,0.3l-0.2-0.1c0.4-0.1-0.3-1.1,0.5-1c0,0.2-0.1,0.3-0.2,0.3
				C41.4,79.4,41.4,79.6,41.6,79.7z"/>
			<path class="st1" d="M46.3,63.2c-0.2,0.7-0.5,0.3-0.7,0.2C45.8,63,46,63.1,46.3,63.2z"/>
			<path class="st1" d="M37.1,92.1c-0.2,0.3-1-0.3-1.4-0.3C36,91,36.7,91.8,37.1,92.1z"/>
			<path class="st1" d="M35.4,92.1c-0.4,0.3-1-0.4-0.9-0.7c-0.3,0.1-1,0.1-1.3-0.3C34.1,90.8,34.9,91.3,35.4,92.1z"/>
			<path class="st1" d="M44.5,65.5c-0.1,0.3-0.2,0.1-0.4,0.5c-0.1-0.1,0-0.7,0.2-0.9c-0.1,0.4,0.5,0,0.2,0.6
				C44.4,65.6,44.5,65.5,44.5,65.5z"/>
			<path class="st1" d="M31.5,90.2c-0.4,0.4-1.2-0.1-1.9-0.4C30.1,89.6,30.8,89.9,31.5,90.2z"/>
			<path class="st1" d="M44,63.8l-0.2,0.4c-0.3-0.2-1,0.1-1-0.5C43.2,63.3,43.5,63.8,44,63.8z"/>
			<path class="st1" d="M28.9,94.8l-0.8-0.4c0.2-0.4,0.5-0.3,0.7-0.5C29.3,94.4,28.8,94.3,28.9,94.8z"/>
			<path class="st1" d="M36.4,76.1c0.1-0.5,0.2-0.4,0.5-0.7c-0.1,0.4,0.3,0.5,0.4,0.8c-0.2,0.2-0.2-0.1-0.3-0.2
				C36.8,76.1,36.7,76.5,36.4,76.1z"/>
			<path class="st1" d="M39.7,69.8c-0.1,0.2-0.2,0.2-0.3,0.4c-0.2-0.1-0.1-0.4-0.4-0.4c0.7-0.2,0-0.4,0.7-0.6
				C39.9,69.3,39.4,69.8,39.7,69.8z"/>
			<path class="st1" d="M30.8,85.4c-0.5-0.2-1.2,0.1-1.1-0.5C30.1,84.9,30.5,85.1,30.8,85.4z"/>
			<path class="st1" d="M35.6,76.6c-0.2,0.5-0.5,0-0.6,0.6c-0.7-0.3-0.2-0.6-0.9-1C34.7,75.5,34.8,77,35.6,76.6z"/>
			<path class="st1" d="M38.4,70.4c0.3-0.5,0.2-1,0.8-1.4c0.1,0.5-0.6,1.3-0.3,1.4C38.9,70.7,38.4,70.7,38.4,70.4z"/>
			<path class="st1" d="M42.2,63.2l-0.4,0.5l-0.2-0.1C41.9,63.5,42.1,63.1,42.2,63.2z"/>
			<path class="st1" d="M25.7,87.8c0.3,0.4-0.7-0.3-1-0.3c0.5-0.5-0.6-0.1,0-0.6C25.2,87.2,25,87.5,25.7,87.8z"/>
			<path class="st1" d="M31.2,79.6c-0.2,0.4-0.4,0.1-0.6,0.6c-0.1-0.3,0-0.5-0.4-0.7C30.4,79.3,30.8,79.3,31.2,79.6z"/>
			<path class="st1" d="M41.5,63.3c-0.8,0.3-1.2,0-1.4-0.7c0.3,0,0.6,0,0.8,0.1c0.1,0.1,0.2,0.1,0.3,0.2
				C41.4,63,41.5,63.2,41.5,63.3z"/>
			<path class="st1" d="M39.1,66.2c-0.2,0.1-0.5,0.4-0.8,0.6c-0.1-0.2-0.1-0.4-0.3-0.5C38.5,65.7,38.7,66.1,39.1,66.2z"/>
			<path class="st1" d="M39.8,64.7L39.6,65c0-0.1-0.1,0-0.2,0.1c-0.1-0.1,0.1-0.2,0.1-0.3c-0.1-0.1-0.3,0.1-0.2-0.2
				C39.6,64.3,39.7,64.7,39.8,64.7z"/>
			<path class="st1" d="M33.9,72.2c-0.2-0.1-0.5-0.1-0.7-0.4c0.3-0.3,0.6,0.1,0.9-0.3C34.2,71.7,34.1,71.9,33.9,72.2z"/>
			<path class="st1" d="M34.9,70.1l0.2-0.3c0.2,0.2,0.3-0.1,0.3,0.3l-0.2,0.3C34.9,70.4,35.1,70.2,34.9,70.1z"/>
			<path class="st1" d="M36.2,67c-0.2,0.1-0.4,0-0.6-0.1C36.1,66.4,36,66.8,36.2,67z"/>
			<path class="st1" d="M32,71.7c-0.1,0.1-0.1,0.1-0.2,0c-0.2-0.1-0.1-0.2-0.2-0.4c0.4-0.1,0.5-0.2,0.7-0.6C33,71,31.9,71.6,32,71.7
				z"/>
			<path class="st1" d="M24.4,80.3c-0.1,0.2-0.3,0.1-0.5,0.2c-0.3-0.8-0.8-0.4-1.4-1.1c0.3-0.3,0.5-0.2,0.8-0.3
				C23.7,79.8,23.9,79.8,24.4,80.3z"/>
			<path class="st1" d="M17.6,87.9c-0.2,0.3-0.7-0.7-0.8-0.1c0-0.3-0.6-0.6-0.2-0.8C17.1,87.5,17.5,87.3,17.6,87.9z"/>
			<path class="st1" d="M24.2,79c-0.3,0.3-0.2,0.1-0.3-0.1c-0.1-0.1-0.2,0.1-0.3,0.1c-0.3-0.2-0.3-0.5,0-0.7
				C24,78.3,23.7,78.7,24.2,79z"/>
			<path class="st1" d="M23,79c-0.3,0-0.6,0.5-0.9,0.4c-0.4-0.5,0.5-0.3,0-0.7C22.4,78.3,22.7,78.6,23,79z"/>
			<path class="st1" d="M41.5,60.1c-0.4,0.4-0.5,0.3-0.7,0.2C41.1,60.2,41.7,59.8,41.5,60.1z"/>
			<path class="st1" d="M23.6,77.9c-0.2,0.2-0.5-0.2-0.7,0.2c-0.3-0.3,0.8-0.5,0.1-0.8C23.3,77.1,23.6,77.8,23.6,77.9z"/>
			<path class="st1" d="M18.4,82.1c-0.3-0.6-0.5-0.5-0.8-1.1C17.9,81.2,19,81.7,18.4,82.1z"/>
			<path class="st1" d="M21.6,78.7c-0.3,0.2-0.6-0.5-0.6-0.6c0.1-0.1,0.2,0.1,0.4,0.1c0-0.2-0.1-0.4,0.1-0.6
				C22.3,77.9,21.4,78.3,21.6,78.7z"/>
			<path class="st1" d="M13.8,84.4c-0.5,0-1.1-1.1-1.5-1.2C13,82.7,13.2,83.6,13.8,84.4z"/>
			<path class="st1" d="M38.7,61.7c-0.2,0.2-0.3,0.2-0.2,0.1c0,0-0.2,0.1-0.3,0.2c-0.3-0.1,0.3-0.5,0.5-0.6
				C38.9,61.4,38.5,61.7,38.7,61.7z"/>
			<path class="st1" d="M21,77.6c-0.2,0.1-0.5-0.1-0.7-0.3c0.2-0.1,0.2-0.2,0.1-0.3C20.8,76.8,21,77.5,21,77.6z"/>
			<path class="st1" d="M18.5,79.9c-0.4,0.2-0.2-0.4-0.5-0.5l0.2-0.2c0.2,0.1,0.3,0.1,0.5,0.3C18.6,79.6,18.4,79.7,18.5,79.9z"/>
			<path class="st1" d="M17.8,80.5c-0.4,0.4-0.8-0.2-1.3-0.4C16.9,79.5,17.4,80.4,17.8,80.5z"/>
			<path class="st1" d="M19.5,78.8c-0.2,0-0.5,0.1-0.7,0.4c-0.3-1.3-1.4-0.1-1.5-1.1c0.7,0.1,0.7-0.4,1.2-0.5c0.1-0.3,0-0.6-0.3-0.9
				C18.9,76.9,18.9,78,19.5,78.8z"/>
			<path class="st1" d="M32.3,67.1c-0.4,0.5-0.6-0.2-0.5-0.4C32,66.5,32,67,32.3,67.1z"/>
			<path class="st1" d="M21.2,76.6c-0.2-0.2-0.3-0.3-0.4-0.5c0.3-0.4,0.5,0.2,0.8-0.3C21.6,76.1,21.3,76.3,21.2,76.6z"/>
			<path class="st1" d="M12.2,82.2c-0.2,0-0.3,0-0.5,0.1c0-1.1-1.7-1.9-1.5-2.8C10.9,80.3,11.8,81,12.2,82.2z"/>
			<path class="st1" d="M20.3,71.8c-0.2,0-0.3,0-0.5,0.1c-0.2-0.5-0.8-1-0.7-1.4c0.5-0.4,0.6,0.5,1,0.1C20,71.2,20.2,71.3,20.3,71.8
				z"/>
			<path class="st1" d="M36.1,60.9c-1,0.3-0.4-0.8-1.2-0.7l0.6-0.3C35.5,60.5,36,60.3,36.1,60.9z"/>
			<path class="st1" d="M34.8,61.7c-0.4,0.1-1-0.3-0.8-0.6C34.6,60.9,34.6,61.5,34.8,61.7z"/>
			<path class="st1" d="M20.9,70.3c-0.6-0.1-0.6-0.6-1.1-1.2l0.7-0.4C20.7,69.2,20.8,69.7,20.9,70.3z"/>
			<path class="st1" d="M37.1,59.5c-0.2,0-0.6-0.1-0.4-0.3C36.9,59.1,37.3,59.2,37.1,59.5z"/>
			<path class="st1" d="M19.2,69.1c-0.8,0.2-0.2,0.7-0.3,1.1c-0.4-0.3-0.9-0.1-1.2-0.7c0.6-0.1,0.1-0.5,0.6-0.7
				C18.4,69.4,19,68.5,19.2,69.1z"/>
			<path class="st1" d="M24.3,66.6c0,0.3-0.8-0.5-0.6-0.7C24.3,65.7,24.1,66.2,24.3,66.6z"/>
			<path class="st1" d="M33.9,60.9c-0.7,0.4,0-0.7-0.8-0.3c0-0.1,0.1-0.2,0.1-0.2c0.1-0.1,0.1-0.1,0.1-0.2
				C33.6,60.2,34.1,60.5,33.9,60.9z"/>
			<path class="st1" d="M10.8,73.9c-1.1-0.1-1.5-1.1-2-2.4C10.1,72,9.9,73.5,10.8,73.9z"/>
			<path class="st1" d="M35.1,59.7l-0.4,0.2c-0.3-0.6-0.9-1-0.9-1.4C34.9,58.6,34.5,59.2,35.1,59.7z"/>
			<path class="st1" d="M16.9,70c-0.5,0.4-0.2-0.6-0.7-0.9C16.9,68.9,16.7,69.6,16.9,70z"/>
			<path class="st1" d="M36.6,58.7c-0.5,0.4-0.3-0.3-0.5-0.4C36.4,58.2,36.8,58.4,36.6,58.7z"/>
			<path class="st1" d="M36.2,57.9c-0.6,0.3-1.1-0.1-0.2-0.4L36.2,57.9z"/>
			<path class="st1" d="M8.9,71.3c-0.4,0.2-0.7-0.6-0.6-1C8.7,70.4,8.8,70.8,8.9,71.3z"/>
			<path class="st1" d="M27.3,61.8c-0.4,0.1-0.4-0.6-0.6-0.8C27.1,60.9,27.4,61.5,27.3,61.8z"/>
			<path class="st1" d="M13.1,68.5c-0.5-0.2-0.4-0.1-1,0.3c0.4-0.3,0.3-0.7,0.1-1c-0.1-0.4-0.3-0.7,0.2-1
				C12.4,67.4,12.6,67.8,13.1,68.5z"/>
			<path class="st1" d="M36.5,57.1c-0.4,0.2-0.6-0.1-0.5-0.3C36.4,56.7,36.4,56.9,36.5,57.1z"/>
			<path class="st1" d="M33.7,58c-0.7,0.3-0.8-0.5-0.1-0.8C33.8,57.5,33.6,57.7,33.7,58z"/>
			<path class="st1" d="M31.4,58.8c-0.3,0-0.9-0.1-0.2-0.4C31.3,58.7,31.6,58.5,31.4,58.8z"/>
			<path class="st1" d="M13,66.7c-0.7,0.2-0.7-1.2-1-1.7C12.9,64.9,12.1,66.1,13,66.7z"/>
			<path class="st1" d="M37,56.3c-0.5,0.1-0.6-0.1-0.8-0.3l0.6-0.2C36.8,56,37.2,56.1,37,56.3z"/>
			<path class="st1" d="M14.5,65.3l-0.6,0.2c-0.3-0.4-0.1-0.6-0.2-1C14.1,64.6,14.3,65.1,14.5,65.3z"/>
			<path class="st1" d="M11,66.1c0.3,0,0.8-0.6,0.9,0C11.5,66.3,11.2,66.6,11,66.1z"/>
			<path class="st1" d="M30.6,58c0.1,0.2,0.1,0.4-0.3,0.5c0-0.2-0.4-0.1-0.3-0.4C30.2,58,30.4,58,30.6,58z"/>
			<path class="st1" d="M36.5,55.7c-0.3,0.1-0.5,0-0.6-0.2c-0.1-0.2,0-0.5,0.3-0.7c0.1,0.3,0.7,0.5,0.1,0.9
				C36.3,55.7,36.4,55.7,36.5,55.7z"/>
			<path class="st1" d="M9.3,65.2c-0.1,0.1-0.2,0-0.2-0.1c-0.1-0.4-0.4-0.5-0.8-0.3c0.1-0.9-0.1-1.1-0.4-1.9c0.4,0,0.2-0.4,0.7-0.4
				C8.4,63.7,8.7,64,9.3,65.2z"/>
			<path class="st1" d="M6.6,66c-0.5,0.3-0.5-0.8-0.7-1.1C6.4,65.1,6.5,65.2,6.6,66z"/>
			<path class="st1" d="M35.5,55.5c-0.2,0-0.5-0.3-0.3-0.4C35.5,55.1,35.7,55.3,35.5,55.5z"/>
			<path class="st1" d="M34.2,55.7c-0.2-0.2,0.5-0.4,0.7-0.4C35,55.5,34.6,55.6,34.2,55.7z"/>
			<path class="st1" d="M6,64.2c-0.7-0.1-0.7-1.7-0.7-1.9C5.7,62.4,6,63.7,6,64.2z"/>
			<path class="st1" d="M7,63.5c-0.1,0.7-1.1-0.7-0.2-0.7C7.1,63.2,6.6,63.6,7,63.5z"/>
			<path class="st1" d="M17.2,60.3c-0.2-0.1-1.4-1.4-0.5-1.9c0,1.2,2-0.1,1.5,1.2C17.6,59.5,16.8,59.4,17.2,60.3z"/>
			<path class="st1" d="M25,56.9c-0.9-0.5,0.3-1.2,0.1-1.8c1,0,0,0.8,0.5,1.4c-0.2,0.1-0.3,0-0.5,0C25.1,56.7,24.9,56.8,25,56.9z"/>
			<path class="st1" d="M28.6,55.4c0.4-0.1,0.7-0.1,0.7,0.1C29.1,55.8,28.7,55.7,28.6,55.4z"/>
			<path class="st1" d="M13.9,59.5c-0.6-0.1-0.6-1-0.4-1.6C14.2,58.1,13.7,58.9,13.9,59.5z"/>
			<path class="st1" d="M10.3,60.5c-0.3-0.1-0.5-0.3-0.5-0.7C10.3,59.5,10.5,60.2,10.3,60.5z"/>
			<path class="st1" d="M34.7,53.7c-0.1,0.2-0.4-0.7-0.5-0.6C35,52.7,34.6,53.4,34.7,53.7z"/>
			<path class="st1" d="M16.6,57.4c-0.3,0.6-1-0.6-0.1-0.5C16.8,57.1,16.2,57.5,16.6,57.4z"/>
			<path class="st1" d="M24.5,55.5c-0.4,0.1-0.2-0.4-0.6-0.3c0.1-0.2,0.3-0.3,0.6-0.3C24.6,55.1,24.6,55.4,24.5,55.5z"/>
			<path class="st1" d="M22,55.6c-0.4,0.2-0.4-0.2-0.7-0.1c-0.1-0.4-0.3-0.9,0.3-0.9C21.6,55,22,55.1,22,55.6z"/>
			<path class="st1" d="M24.2,51.8c-0.2,0.7,0.8,1.7-0.1,1.9c-0.4-0.5,0.4-1.1-0.5-1.4c-0.1,0.9,0.3,1.7,0.7,2.5
				c0.3-0.5,0.6,0.1,0.8,0.1c0.3-0.6,0.2-0.9,0-1.3c-0.1-0.4-0.3-0.8-0.3-1.4c-0.2-0.2-0.3,0-0.5-0.2C24.6,51.9,24.4,51.8,24.2,51.8
				z M24.7,54.3c-0.6,0.2-0.4-0.5-0.3-0.6C24.8,53.7,24.6,54.2,24.7,54.3z"/>
			<path class="st1" d="M21.4,54.2c-0.4,0-0.1-0.6-0.3-0.8C21.7,53.5,21.4,54,21.4,54.2z"/>
			<path class="st1" d="M8.8,54.8c0.6,0.2,0.1,0.7,0.3,1.4C8.8,55.8,8.6,55.3,8.8,54.8z"/>
			<path class="st1" d="M4.1,56.8c-0.6-0.1-0.5-2.8-0.6-3.4c0.6,0.9,0.2,2.1,1,2.9C4.3,56.2,3.9,56.2,4.1,56.8z"/>
			<path class="st1" d="M7.1,56c-0.8-0.6-0.7-2.1-0.7-2.8C7,53.8,7,54.9,7.1,56z"/>
			<path class="st1" d="M22.3,53.3l-0.1-0.6C22.7,53.1,23.6,52.9,22.3,53.3z"/>
			<path class="st1" d="M34.9,51.1c-0.3,0.1-0.2,0.3-0.8,0.4c0.1-0.3-0.7,0-0.5-0.4c0.2,0,0.1,0.1,0.3,0.1l0.5-0.3
				C34.7,50.9,34.6,51.2,34.9,51.1z"/>
			<path class="st1" d="M25.4,52.5c-0.4-0.1-0.2-0.6-0.4-0.6C25.5,51.5,25.6,52.2,25.4,52.5z"/>
			<path class="st1" d="M21.1,53c-0.3-0.1-0.2-0.5-0.4-0.7C21.4,52.1,21.3,52.9,21.1,53z"/>
			<path class="st1" d="M19.2,53.3c-0.2,0-0.4-0.1-0.7-0.2c0.1-0.4,0-0.6-0.4-0.7c0.2-0.2,0.4-0.5,0.7-0.6
				C18.8,52.4,19.1,52.8,19.2,53.3z"/>
			<path class="st1" d="M36,51.1c-0.4,0-0.3-0.2-0.4-0.4C35.9,50.8,36.3,50.9,36,51.1z"/>
			<path class="st1" d="M22.6,52.4c-0.4-0.2-0.8,0.3-0.8-0.3C22,51.9,22.5,52.1,22.6,52.4z"/>
			<path class="st1" d="M16.5,52.8c-0.5-0.2,0.1-0.6-0.1-0.9C17,51.9,16.6,52.5,16.5,52.8z"/>
			<path class="st1" d="M27.1,51.6c-0.6,0.1-0.7-0.4-0.6-0.6c0.2,0,0.4,0.1,0.2,0.2c0,0.1,0.3,0.1,0.5,0.1
				C27.2,51.3,27.1,51.4,27.1,51.6z"/>
			<path class="st1" d="M32.1,50.9c-0.3-0.3-0.9-0.8-0.2-1.2C32.3,50,32.3,50.4,32.1,50.9z"/>
			<path class="st1" d="M9.3,52.9c-0.6-0.5-0.2-1.6-0.3-2.4C9.5,50.8,9.2,52.3,9.3,52.9z"/>
			<path class="st1" d="M11.6,51c-0.1,0.5,0.3,0.4,0,0.8c-0.1-0.1-0.3-0.1-0.5-0.1c0.1-0.1,0.2-0.4,0-0.5c0-0.1,0.1-0.1,0.2-0.2
				C11.4,51.1,11.5,51,11.6,51z"/>
			<path class="st1" d="M12.4,50.8c0.1,0,0.2,0.1,0.2,0.1c0.2,0,0-0.4,0.3-0.5c0.6-0.2,0.2,0.7,0.7,0.5c0.1,0.4-0.9-0.1-0.8,0.3
				C12.6,51.3,12.5,51.1,12.4,50.8z"/>
			<path class="st1" d="M34.9,49.7c-0.6,0.1-0.4-0.5,0.1-0.4C35.1,49.5,34.8,49.5,34.9,49.7z"/>
			<path class="st1" d="M32,49.6c-0.3,0-0.3-0.1-0.5-0.1c0.1-0.2,0-0.4,0.5-0.4L32,49.6z"/>
			<path class="st1" d="M11.8,49.7c0.1,0.1,0.2,0.3,0.3,0.3c-0.1,0.4-0.7-0.3-0.5,0.5c-0.3,0-0.2-0.4-0.7-0.3
				c-0.2-0.4,0.6-0.5,0.1-0.6c0.1-0.4,0.5,0.1,0.8,0C11.9,49.6,11.9,49.7,11.8,49.7z"/>
			<path class="st1" d="M35.7,49.3c-0.5-0.1-0.2-0.4-0.2-0.5C35.9,48.8,35.6,49.1,35.7,49.3z"/>
			<path class="st1" d="M32,49.1c-0.6,0.1-0.7-0.5-0.4-0.6C32.2,48.5,31.9,49,32,49.1z"/>
			<path class="st1" d="M18.1,49.5l-0.5,0c0.1-0.3-0.1-0.9,0.5-0.9C17.7,48.8,18,49.2,18.1,49.5z"/>
			<path class="st1" d="M27.6,48.8c-0.5-0.1-1-0.2-1.5-0.3C26.3,48.4,27.7,48.4,27.6,48.8z"/>
			<path class="st1" d="M32,48.3c-0.3,0-0.3-0.1-0.6-0.1c0.2-0.5,0-1,0.2-1.2C32.3,47.3,31.8,47.7,32,48.3z"/>
			<path class="st1" d="M2.8,47.7c-0.3-0.1-0.2-1.3,0.4-0.9C3.3,47.4,2.7,47.2,2.8,47.7z"/>
			<path class="st1" d="M36.8,47.9c-0.7,0-0.1-0.4,0.3-0.3C37.3,47.8,36.7,47.7,36.8,47.9z"/>
			<path class="st1" d="M37,47.1l-0.5,0c0.4-0.4-0.3-0.8,0.3-1.1C37.5,46.4,36.6,46.7,37,47.1z"/>
			<path class="st1" d="M31.9,46.7c-0.5-0.2-0.2-0.3-0.3-0.7C32.2,46,31.7,46.5,31.9,46.7z"/>
			<path class="st1" d="M12.9,44.5c-0.8-0.4,0.5-0.8-0.2-1.1c0.4-0.4,0.5,0.5,0.6,0.8C13.1,44.3,12.9,44.3,12.9,44.5z"/>
			<path class="st1" d="M5.2,42.2c-0.1-0.7,0.2-2.7,0.3-3.2C6,39.4,5.4,41.6,5.2,42.2z"/>
			<path class="st1" d="M18.7,43.7c-0.4-0.5,0.5-0.9,0.7-1.3C19.9,43.1,19,43.2,18.7,43.7z"/>
			<path class="st1" d="M9.4,42.6c-0.5-0.1-1.1-0.1-1.1-0.6C8.8,42,9.4,42,9.4,42.6z"/>
			<path class="st1" d="M36.8,45.8c-0.3-0.1-0.4-0.4,0.2-0.3C37.1,45.7,37,45.8,36.8,45.8z"/>
			<path class="st1" d="M19.2,41.3c-0.2-0.3-0.2-0.6,0-0.9c0.1,0.2,0.4,0.4,0.3,0.7C19.4,41.2,19.3,41.2,19.2,41.3z"/>
			<path class="st1" d="M15.1,39.8c-0.4,0-0.5-0.3-0.4-0.7C15.1,39.2,15.2,39.4,15.1,39.8z"/>
			<path class="st1" d="M13.3,39c0.2-0.4,0.7-0.4,1.2-0.3C14.4,39.2,13.7,38.8,13.3,39z"/>
			<path class="st1" d="M32.9,43.2c-0.6-0.1-0.4-0.4-0.4-0.7C32.9,42.7,33,42.9,32.9,43.2z"/>
			<path class="st1" d="M16.4,39.5c-0.3-0.2-0.3-1,0.3-0.8C16.7,39.1,16.7,39.4,16.4,39.5z"/>
			<path class="st1" d="M18.2,39.8c-0.3-0.3,0.1-0.9,0.2-1.3C18.7,38.9,18.4,39.5,18.2,39.8z"/>
			<path class="st1" d="M10.1,37.3c-0.3,0-0.2-0.2-0.4-0.3c0.3-0.8,0.6-1.2,0.9-2.1C11.1,35.5,10.3,36.5,10.1,37.3z"/>
			<path class="st1" d="M24.7,40.4c-0.6-0.2,0.1-0.9,0.1-1.4C25,39.5,24.9,40.1,24.7,40.4z"/>
			<path class="st1" d="M16.8,38.1c-0.2-0.7,0.3-1.3,0.2-1.8C17.9,36.8,16.9,37.7,16.8,38.1z"/>
			<path class="st1" d="M33,42c-0.2-0.3-0.5-0.5-0.1-0.7C33.4,41.5,33.3,41.8,33,42z"/>
			<path class="st1" d="M12.7,35.3c-0.6-0.3-0.1-0.5-0.2-1.1C13.1,34.3,12.8,34.8,12.7,35.3z"/>
			<path class="st1" d="M19.6,37.1c0.2-0.6,0.5-0.1,1,0C20.3,37.5,20,37.4,19.6,37.1z"/>
			<path class="st1" d="M5.5,32.7c-0.5-0.2,0.1-2.1,0.8-1.5C5.9,31.4,5.7,32,5.5,32.7z"/>
			<path class="st1" d="M17.3,36.3c-0.1-0.4-0.1-0.8,0-1.2c0.1-0.4,0.3-0.7,0.6-1c0,0.5-0.1,0.9-0.2,1.2
				C17.6,35.7,17.5,36,17.3,36.3z"/>
			<path class="st1" d="M11.2,34.2c-0.3-0.3-0.2-0.8-0.5-1c0.1-0.4,0.6-0.2,0.7-0.6C11.5,32.9,11.4,33.5,11.2,34.2z"/>
			<path class="st1" d="M20.6,37c-0.6-0.1,0-0.6-0.5-0.7c0.6-0.8,0.8-0.9,0.7-0.7C20.9,35.9,20.7,36.4,20.6,37z"/>
			<path class="st1" d="M24.9,37.5c0.6-0.1,0.4-0.3,0.7-0.6c0.2,0.2-0.1,0.6,0,0.8C25.3,37.8,25.3,37.6,24.9,37.5z"/>
			<path class="st1" d="M13.9,33.6c-0.7-0.4,0-1,0.2-1.3c0.2,0.1,0.1,0.3,0.3,0.5C14.4,33.2,14,33.1,13.9,33.6z"/>
			<path class="st1" d="M15.3,33.2c-0.7,0.3,0.2-0.8,0.4-1C16.3,32.8,15.1,33,15.3,33.2z"/>
			<path class="st1" d="M21.1,35.2c-0.6-0.1,0-0.6,0-0.8C21.5,34.7,21.4,34.7,21.1,35.2z"/>
			<path class="st1" d="M36.3,40.9c0.1-0.2-0.2-1.2,0.7-0.9C36.4,40.1,36.9,40.6,36.3,40.9z"/>
			<path class="st1" d="M31.3,38.9c-0.3-0.1,0.1-0.4,0-0.6C31.8,38.5,31.6,38.8,31.3,38.9z"/>
			<path class="st1" d="M33.9,39c-0.4-0.5-0.2-1.1,0.5-1C34.3,38.3,34.2,38.7,33.9,39z"/>
			<path class="st1" d="M23.3,34.4c-0.4-0.1-0.6-0.3-0.4-0.6C23.3,33.7,23.4,34.1,23.3,34.4z"/>
			<path class="st1" d="M31.7,38c-0.3-0.2-0.2-1.2,0.4-0.8C31.9,37.4,31.8,37.7,31.7,38z"/>
			<path class="st1" d="M26.4,34.7c-0.6-0.5,0.5-0.9,0.3-1.4C27.4,33.7,26.5,34.2,26.4,34.7z"/>
			<path class="st1" d="M10.2,26.7c-0.6-0.4,0.6-1.2,0.4-1.5C11.4,25.3,10.1,26.2,10.2,26.7z"/>
			<path class="st1" d="M38.7,40.3c-0.6-0.2-0.1-0.3-0.1-0.5C38.9,40,38.7,40.1,38.7,40.3z"/>
			<path class="st1" d="M20.6,31.4l-0.4-0.2l0.4-0.8c0.3,0.7,0.4-0.7,1-0.1C21.4,31.3,20.6,30.8,20.6,31.4z"/>
			<path class="st1" d="M25.8,33.4c-0.6-0.2,0.1-0.7,0.1-1C26.1,32.8,25.8,33.1,25.8,33.4z"/>
			<path class="st1" d="M9.3,23.5c0.4,0.2,0,0.8-0.3,0.9C8.6,24.2,8.9,23.6,9.3,23.5z"/>
			<path class="st1" d="M37.4,38.5c-0.1-0.3-0.2-0.7,0.4-0.4C37.7,38.2,37.5,38.2,37.4,38.5z"/>
			<path class="st1" d="M15.4,25.7c-0.5-0.5,0.4-0.6,0.6-1.2C16.4,24.8,15.7,25.4,15.4,25.7z"/>
			<path class="st1" d="M21.9,29.3c-0.1-0.2,0.4-1.5,0.9-1.1C22.3,28.8,22.4,29,21.9,29.3z"/>
			<path class="st1" d="M11.2,23c-0.4-0.2-0.8-0.4-0.4-0.9C11.2,22,11.4,22.6,11.2,23z"/>
			<path class="st1" d="M32.9,35.3c-0.4-0.5,0.2-0.5,0.2-0.9C33.6,34.9,33.1,35,32.9,35.3z"/>
			<path class="st1" d="M39.5,38.7c-0.5-0.2-0.1-0.3-0.1-0.4C39.7,38.6,39.8,38.7,39.5,38.7z"/>
			<path class="st1" d="M34.2,35.3c-0.3-0.3-0.1-0.4,0.1-0.5C34.7,35,34.5,35.3,34.2,35.3z"/>
			<path class="st1" d="M37.8,37.3c0.2-0.2,0.3-0.3,0.4-0.6c0.7,0.6-0.2,0.4,0.1,0.9C38.2,37.5,38,37.4,37.8,37.3z"/>
			<path class="st1" d="M33.6,34.5l-0.4-0.3c0-0.6,0.1-0.7,0.5-1C34.3,33.9,34.1,34.2,33.6,34.5z"/>
			<path class="st1" d="M39.6,38.3c-0.2-0.6,0.4-0.7,0.6-1.1C40.1,37.8,39.9,38.1,39.6,38.3z"/>
			<path class="st1" d="M13.7,20.6c-0.2-0.6-0.5-1.1-0.1-1.7c0.2,0.4,0.3,0.8,0.6,1.1C13.9,20.2,13.8,20.4,13.7,20.6z"/>
			<path class="st1" d="M39.1,37.9c-0.1-0.2-0.1-0.5,0.2-0.5C39.4,37.6,39.4,37.9,39.1,37.9z"/>
			<path class="st1" d="M24.3,27.2c-0.2-0.1,0.3-0.8,0.5-0.7C25.3,27,24.4,27.1,24.3,27.2z"/>
			<path class="st1" d="M18.6,22.6c-0.2-1.1,1.5-2.5,2.3-3.4c0,0.8-0.3,1.2-0.7,1.5C19.7,21.2,19.1,21.6,18.6,22.6z"/>
			<path class="st1" d="M33.8,33.2c0.1-0.2,0.2-0.3,0.4-0.3c0.2,0.2-0.1,0.3,0.2,0.5C34.3,33.5,34,33.4,33.8,33.2z"/>
			<path class="st1" d="M23,25.1c-0.2-0.3-0.5-0.7-0.6-1c0.4-0.5,0.3,0.3,0.7,0.4c0.5-0.9,1-1.6,1.6-2.2c0.6-0.6,1.1-1.1,1.7-1.4
				c-0.3,0.8-0.9,1.5-1.6,2.1C24.1,23.5,23.5,24.3,23,25.1z"/>
			<path class="st1" d="M41.2,38.6l-0.4-0.3c0.2,0-0.1-0.3-0.2-0.5C40.9,37.9,41.4,38.5,41.2,38.6z"/>
			<path class="st1" d="M34.3,32.9c-0.3-0.4-0.1-0.2,0.1-0.4c0-0.1-0.2-0.3-0.1-0.4c0.3,0.2,0.3,0.4,0.5,0.7
				C34.7,33,34.5,32.9,34.3,32.9z"/>
			<path class="st1" d="M33,31.8c-0.2-0.5,0.3-0.9,0.6-1.2c0.2,0.3,0.1,0.5-0.1,0.7C33.4,31.4,33.2,31.6,33,31.8z"/>
			<path class="st1" d="M14.8,16.9l-0.5-0.4c0.3-0.4,0.6-0.2,0.9-0.1L14.8,16.9z"/>
			<path class="st1" d="M40.6,37c-0.1-0.2-0.1-0.4,0-0.5C41.1,36.9,40.6,36.8,40.6,37z"/>
			<path class="st1" d="M17.9,15.5c0.5-1,0.8-1.2,1.5-2.3c0.3,0.2,0.8,0,0.7,0.5c-0.3,0.4-0.5,0.4-0.7,0.1
				C19.6,14.8,18.4,15.1,17.9,15.5z"/>
			<path class="st1" d="M35,31.2l0.2-0.3C35.7,31.4,35.4,31.7,35,31.2z"/>
			<path class="st1" d="M16.6,12.9c0-0.3,0.4-0.6,0.7-1c0.5,0.5-0.5,0.4-0.3,0.8c1.3-0.4,0.5-0.4,0.7,0.7
				C17.3,13.5,17,13.3,16.6,12.9z"/>
			<path class="st1" d="M21.9,17.8c0.2-0.3,0.7-0.6,1.5-1.2c0.8,0.7-0.3,0.6-0.4,1.3C22.6,17.7,22.2,17.8,21.9,17.8z"/>
			<path class="st1" d="M35.5,30.9c0-0.2,0.3-0.6,0.7-0.9c0.1,0.3-0.1,0.4-0.2,0.5c-0.1,0.1-0.2,0.3,0,0.6
				C35.7,31.3,35.7,30.8,35.5,30.9z"/>
			<path class="st1" d="M34.8,29.8c-0.3-0.6,0.5-1,1.1-1C35.3,28.9,35.3,29.4,34.8,29.8z"/>
			<path class="st1" d="M21.6,15.2c-0.1-0.2,0.3-0.4,0.4-0.6c0.1,0.3,0.6,0.6,0.1,1C22,15.4,21.8,15.1,21.6,15.2z"/>
			<path class="st1" d="M42.8,37.4c-0.4-0.6-0.8-0.8-0.7-1.1c0,0.1,0.6,0.8,0.3,0.4c0.3,0.1,0.1,0.3,0.5,0.6L42.8,37.4z"/>
			<path class="st1" d="M27.2,20.3c-0.5-0.6,0.4-0.5,0.5-0.6C28.9,18.7,28.6,19.1,27.2,20.3z"/>
			<path class="st1" d="M21.1,12.7c-0.3-0.4,0.9-0.9,0.1-1.4c0.7-0.1,0.8,0.7,1.3-0.3C22.8,12.1,21.7,11.7,21.1,12.7z"/>
			<path class="st1" d="M26.6,17.5c0.4,0.3,0.3,0.2,0.5,0.6C26.8,18.4,26,18,26.6,17.5z"/>
			<path class="st1" d="M19.8,10c-0.1-0.6,0.6-0.9,1.2-1.2C21,9.2,20.1,9.6,19.8,10z"/>
			<path class="st1" d="M27.9,17.8c-0.5-0.4,0.2-1,0.5-0.4L27.9,17.8z"/>
			<path class="st1" d="M26.4,15.2l0.6,0.8C26.8,16.1,25.9,15.5,26.4,15.2z"/>
			<path class="st1" d="M42.1,35c-0.1-0.1-0.1-0.1-0.2-0.1c-0.1-0.1-0.2-0.3-0.4-0.6c0.3-0.5,0.6-0.1,0.9-0.6l0.5,0.8
				c0,0.2,0,0.3-0.1,0.3c-0.1-0.3,0.2-0.3-0.3-0.8C42.6,35,41.7,33.9,42.1,35z"/>
			<path class="st1" d="M22,8.5c0.1-0.5,1.3-0.9,1-1.5c0.8,0,0.1,1-0.3,1.4C22.5,8.4,22.3,8.5,22,8.5z"/>
			<path class="st1" d="M39.9,31.4c0-0.3,0.3-0.5,0.4-0.5l0.2,0.3c0,0.1,0,0.2-0.1,0.3C40.1,30.9,40.3,31.7,39.9,31.4z"/>
			<path class="st1" d="M39.3,30c-0.2-0.3,0.2-0.3,0.3-0.4C39.9,30,39.5,30.1,39.3,30z"/>
			<path class="st1" d="M41.2,32.3c0-0.2,0.1-0.6,0.4-0.4C41.5,32.1,41.4,32.4,41.2,32.3z"/>
			<path class="st1" d="M37.5,26.6l-0.3-0.4c0.3-0.1,0.6-0.3,0.8-0.5c0.3-0.2,0.5-0.3,0.8-0.4c-0.1,0.3-0.3,0.5-0.6,0.6
				C38,26.2,37.7,26.4,37.5,26.6z"/>
			<path class="st1" d="M41.4,31.7c-0.2-0.5,0.3-0.1,0.4-0.3C42.3,32.2,41.7,31.9,41.4,31.7z"/>
			<path class="st1" d="M32.6,16.4c-0.5-0.3,0.6-0.9,0.7-0.4L32.6,16.4z"/>
			<path class="st1" d="M31.5,12.8c-0.2-0.6,0.3-0.2,0.8-0.6C32.4,12.7,31.8,12.7,31.5,12.8z"/>
			<path class="st1" d="M43.7,34.3c-0.1-0.3,0-0.4,0.1-0.4c0,0.1,0.1,0.4,0.3,0.6C44,34.7,43.8,34.4,43.7,34.3z"/>
			<path class="st1" d="M32.7,14.7l-0.6-1.1C32.6,13.1,33.1,14.4,32.7,14.7z"/>
			<path class="st1" d="M43.5,33.7c-0.4-0.6,0.3-0.3-0.1-1c0.1,0,0.1,0.2,0.2,0.3c0.1,0.2,0.2,0.1,0.2,0.1
				C43.8,33.4,43.8,33.8,43.5,33.7z"/>
			<path class="st1" d="M34.7,11.7c0.3,0.1,0.5,0.7,0.8,0.9C35,12.8,34.6,12,34.7,11.7z"/>
			<path class="st1" d="M38.9,17.3c-0.3-0.5,0.5-0.5,0.7-0.4C39.4,17.3,39.2,17.3,38.9,17.3z"/>
			<path class="st1" d="M46,33.5c-0.1-0.2-0.1-0.4,0-0.5c0.1-0.1,0.2,0,0.3,0.3c-0.1,0.1-0.1-0.1-0.2-0.1C46.1,33.4,46,33.5,46,33.5
				z"/>
			<path class="st1" d="M45.7,32.6c-0.1-0.2,0.9-1.1,1.3-0.2C46.6,32.3,46.2,32.4,45.7,32.6z"/>
			<path class="st1" d="M44.9,29.4c-0.3-0.6,0.2-0.6,0.4-0.4C45.4,29.4,45.1,29.4,44.9,29.4z"/>
			<path class="st1" d="M39.6,9.4c0.4-0.6,0.4-0.9,1-0.1C40.2,9.4,40,9.2,39.6,9.4z"/>
			<path class="st1" d="M45.6,29.3l-0.1-0.5c0.2,0,0.5-0.3,0.6,0C46.2,29.7,45.7,28.9,45.6,29.3z"/>
			<path class="st1" d="M46.4,30.6c-0.1-0.9,0.8-0.5,1.1-0.9c0,0.3-0.2,0.5-0.5,0.6C46.8,30.3,46.5,30.4,46.4,30.6z"/>
			<path class="st1" d="M47.5,34.4c-0.1-0.3,0.2-0.1,0.3-0.3C47.9,35.1,47.6,34.3,47.5,34.4z"/>
			<path class="st1" d="M48.7,32.7c0.1-1.3,0.7-0.3,1.3-0.6c-0.1,0.4-0.4,0.4-0.6,0.3C49.1,32.4,48.9,32.4,48.7,32.7z"/>
			<path class="st1" d="M45.1,5.8c0.5-0.1,0.6,0.3,0.6,0.7C45.4,6.4,45.2,6.1,45.1,5.8z"/>
			<path class="st1" d="M45,1.2c0.3-0.2,0.5-0.6,0.9-0.3c0.1,0.5-0.8,0.4-0.4,1C45.2,1.9,45,1.6,45,1.2z"/>
			<path class="st1" d="M48.9,31.2c0-0.8,0.5,0.1,0.5,0.4c-0.1,0-0.2,0-0.3,0c0-0.1,0-0.3,0-0.5L48.9,31.2z"/>
			<path class="st1" d="M47,7.2c0.5,0.2-0.1,0.7,0.1,1.1C46.6,8.3,47,7.5,47,7.2z"/>
			<path class="st1" d="M49,3.6c0.1-0.4,0-1,0.6-1C49.4,2.9,49.6,3.7,49,3.6z"/>
			<path class="st1" d="M49.9,0.7c0.1-0.1,0.2-0.3,0.2-0.5c0.5,0.3,0.7,0.3,1.4,0.1v0.6C51.2,0.6,50.6,0.6,49.9,0.7z"/>
			<path class="st1" d="M55,21.5c0.1,0,0.2,0,0.2,0.2c-0.1,0-0.1,0.1-0.2,0.1c-0.1-0.3-0.6-0.2-0.9-0.2c-0.5,1.6-0.5,3.3-0.3,4.8
				c-0.5,0.3,0,0.6-0.4,1.1c0.4-0.1,0.7-0.5,1.1-0.6c-0.2,0.6-0.2,1.6-0.7,1.6c-0.1,0.6,0.1,0.7,0.2,1c-0.5,0.9-0.5,2.6-0.7,3.9
				c0.1,0.1,0.1,0.2,0.2,0.3c-0.1,0.5,0,0.8-0.3,1.4c0.2,0,0.3,0,0.4-0.1c-0.1,0.3,0,0.6-0.2,0.8c0.1,0.6,0,1.2,0.1,1.7
				c0-0.3,0.2-0.1,0.2-0.5c0-0.4-0.1,0.2-0.1-0.2c0.1-0.3,0.2-0.1,0.2-0.6c-0.1,0-0.2-0.1-0.2-0.4c0.2-0.1,0.2-0.5,0.2-1
				c0.5-0.6,0.5,0.3,0.7,0.8c-0.2,0.5-0.2,0.5-0.1,0.8c-0.4,0.5-0.2,2-0.6,2.9c0,0.2,0.1,0.2,0.1,0.5c-0.2,0.6-0.5,3.1-0.5,3.7
				c0.2-1,0.4-1.6,0.5-2.2c0.3-0.9,0.2-1.4,0.5-2.5c0.2,0,0.1,0.5,0.2,0.7c-0.1,0.3-0.1,0.3-0.2,0.5c0,0.1,0.1-0.2,0.2-0.1
				c-0.3,1.2-0.3,1.6-0.7,2.8c0.1,0.2-0.5,1.7-0.4,1.9c0.3-1,1-3.2,1.1-4c0.1-0.1,0.2-0.7,0.3-0.8c0.2,0.2-0.2,1.3-0.5,2.4
				c-0.3,1-0.7,2-0.9,2.8c0.3-0.6,0.5-1.2,0.6-1.5c0.3-0.6,0.4-1,0.6-1.5c0.8-1.6-0.4,1.6-0.8,2.3c0.1-0.2,0.1-0.1,0.1-0.1
				c0.2-0.5,0.3-0.7,0.4-0.9c0-0.2,0.5-0.9,0.7-1.5c0-0.1-0.2,0.1,0-0.2c0.3-0.6,0.3-0.4,0.2-0.2c0.2-0.3,0.3-0.6,0.4-0.7
				c0,0.3-0.3,0.8-0.4,1.1c-0.2,0.3-0.1,0.1-0.2,0.3c-0.1,0.3-0.3,0.7-0.7,1.5c0.1-0.1-0.2,0.4,0.1-0.1c0-0.2,0.6-1,0.9-1.5
				c0.1-0.3-0.2,0.1,0-0.2c0.3-0.5,0.2,0,0.3-0.2c-0.2,0.4-0.4,0.7-0.5,1c-0.5,0.8-0.6,1-1.2,1.9l-0.2,0.3c0.3-0.4,0.5-0.8,0.7-1.1
				c0.2-0.2,0.5-0.8,0.6-0.9c0,0,0,0.1,0.2-0.2c0.1-0.3-0.1,0.1-0.1,0c0.3-0.4,0.2-0.3,0.3-0.6c0,0.2,0.3-0.5,0.5-0.7
				c-0.5,1.1-1.4,2.3-2.1,3.3c0.5-0.7,0.7-0.9,1.4-1.8c0-0.1-0.2,0.1,0.1-0.2c0,0,0.3-0.3,0.3-0.3c-0.4,0.4-0.1,0.3-0.1,0.2
				c-0.6,0.7-0.1,0.3,0.1,0.1c-0.1,0.1-0.4,0.5-0.2,0.4c0.2-0.2,0.3-0.3,0.3-0.4c-0.4,0.6,0,0,0,0.2c-0.1,0.1-0.3,0.3-0.1,0.1
				c0-0.1,0.5-0.5,0.5-0.6c-0.2,0.3,0.5,0-0.4,0.7c-0.1,0.2,0.2-0.1,0,0.2c0.4-0.3,0.6-0.6,0.7-0.7c0,0-0.4,0.4-0.3,0.4
				c0.5-0.4,0,0.1,0.3-0.1c-0.1,0.1-0.3,0.3-0.6,0.5c0.3,0-0.4,0.7,0.1,0.4c0.2-0.1,0.3-0.3,0.4-0.3c0,0.1-0.2,0.2-0.1,0.2
				c-0.2,0.1-0.3,0.1-0.4,0.2c0.1,0,0.3,0,0.4,0.1c0.1,0.1,0,0.3-0.2,0.5c0.6-0.2,0.3,0.1,0,0.3c0.9-0.3,0.5,0.1,0.6,0.2
				c0.1-0.1,0.1-0.1,0.3-0.2c0,0,0.1,0,0.2,0c-0.5,0.3,0,0,0,0.1c0,0.1,0,0.1,0,0.2c0,0.1,0,0.2,0,0.3c0,0.2,0.2,0.3,0.7,0.2
				c-0.3,0.1-0.5,0.1-0.6,0.1c0.4,0.1,0.1,0.3,0,0.6c0.5-0.1,0.3,0.1,0.7,0c-0.1,0.1-0.4,0.2-0.6,0.3c0.2,0.1,0.6-0.2,0.8-0.1
				c-0.8,0.2,0.1,0.2-0.3,0.4c-0.4,0,0.1-0.2-0.2-0.2c-0.4,0.1-0.3,0.5,0.2,0.3c-0.2,0,0.5-0.1,0.8-0.2C58.5,47,57.9,47,58,47.2
				c0.1,0.1,0.3,0.1,0.5,0.1c-0.4,0-0.3,0.2,0,0.2c0.5,0-0.4-0.1,0.1-0.1c0.4,0,1-0.1,1,0c-0.4,0-0.4-0.1-0.8,0
				c-0.3,0.1,0,0.1,0,0.2c-0.3-0.1-0.6,0.1-0.8,0.2c0.3,0,0.9-0.1,1,0c-1,0.1-0.4,0.4-0.5,0.6c0.9,0.1,0.5,0.1,1.3,0.3
				c-0.5,0.1-0.6-0.2-0.8-0.1c-0.1,0,0,0.1,0,0.2c-0.7,0-0.2-0.1-0.5-0.1c0,0.1-0.4,0-0.7,0c0.1,0.2,0,0.4,0.8,0.5
				c0.2-0.1-0.4-0.2,0-0.2c0.1,0.1,0.5,0.4,0,0.4c-0.2-0.1,0.1-0.1-0.2-0.2c0,0.1-0.6,0-0.6,0.1c0.6,0.1,0.5,0.4,0.9,0.3
				c-0.3,0.3-0.3,0.6,0.1,0.8c0.5,0,0-0.1,0.3-0.1c0.2,0.1,0.1,0.2,0.1,0.3c-0.7-0.2-1.1,0-0.5,0.1c-0.1-0.1,0.7-0.1,0.8,0
				c-0.6,0-0.8,0.2-0.6,0.5c-0.3,0-0.7-0.1-0.8-0.1c0.5,0.1,0.4,0.2,0.8,0.3c-0.5-0.1-0.3,0-0.6-0.2c0.3,0.2-0.1,0.2-0.3,0.3
				c0.3,0.1,0.3,0,0.5,0.1c0.2,0.2,0.3,0.2,0.4,0.4c-0.1-0.1-0.7-0.3-0.6-0.1c0.8,0.2,0.6,0.3,1.2,0.5c-0.1-0.2-0.1-0.1,0.2-0.1
				c-0.4-0.1-0.6-0.2-0.6-0.3c0.3,0,0-0.3,0.6-0.2c0.1,0.2,1.1,0.4,1.2,0.5c-0.5-0.1,0.1,0.1,0.1,0.2c-0.3-0.1-0.8-0.1-0.3,0
				c0-0.1,0.4,0.1,0.6,0.1c-0.4,0,0,0.2,0.2,0.4c-0.4-0.1-0.7-0.2-0.8-0.1c0.3,0.1,0.4,0.3,0.7,0.4c-0.2-0.1-0.3-0.1-0.5-0.1
				c-0.2-0.2-0.3-0.4-0.9-0.6c-0.3,0.1,0.1,0.4,0.8,0.7c-0.4,0,0.3,0.2,0,0.3c-0.2-0.1-0.2,0-0.5-0.1c0-0.2,0.3,0,0.1-0.2
				c-0.6-0.3-0.4,0-0.7-0.1c0,0-0.2-0.1-0.3-0.1c0.6,0.2,0.4,0.4,0.6,0.6c0.1,0,0.4,0,0.6,0.2c0,0.1-0.9-0.2-0.5,0
				c0.3,0,0,0.1,0,0.1c0.6,0.1,1.5,0.5,2,0.8c-0.5-0.2-0.4,0.1-0.7,0.1l-0.3-0.1c-0.1-0.2,0.5-0.1,0.1-0.3c0,0,0,0.1-0.2,0
				c0-0.1,0-0.1-0.1-0.2c-0.3,0.3-0.1,0.6-0.6,0.6c0.6,0.3-0.3,0.1,0.1,0.5c0.2,0,0.1-0.1,0.5,0.1c0.1,0.1,0,0.2-0.3,0.2
				c-0.2-0.2-0.4-0.2-0.5-0.4c-0.1,0.1,0,0.2,0,0.3c0.6,0.2,0.9,0.5,1.4,0.5c0,0.2-0.3,0-0.3,0.2c-0.4-0.4-0.6,0-1.1-0.5
				c-0.1,0-0.6-0.2-0.3,0.1c-0.2-0.2,0.5,0.2,0.4,0.2c-0.3-0.2-0.2,0-0.6-0.3c0,0-0.2-0.2-0.2-0.2c0.2,0.2,0.1-0.1,0-0.2
				c-0.2,0.1-0.4-0.1-0.7-0.4c0.1,0.2,0.8,0.7,1.1,1c-0.3-0.2-0.3-0.1-0.7-0.4c-0.2,0.1,0.4,0.5,0.4,0.6c-0.3-0.2-0.8-0.4-0.5-0.1
				c0.8,0.5,0.5-0.1,0.9,0.1c0.1,0.3,0.6,0.3,1.3,1c-0.1,0.3-1.1-0.7-0.7-0.2c0.2,0,0.4,0.3,0.1,0.1c0.8,0.6,1.7,0.7,2,1.4
				c-0.2-0.2-1.2-0.8-1.1-0.5c0.4,0.1,0.2,0.2-0.1,0.1c0.2,0.2,0.5,0.3,0.5,0.4c0,0.1-0.4-0.1-0.6-0.3c0.4,0.4-0.3,0-0.4,0
				c0.7,0.3,0.6,0.4,1,0.5c0,0.1,0.1,0.1,0.3,0.2c-0.1,0.3-0.4,0.2-0.6,0.3c1.2,1.2-1-0.1-0.4,0.4c0.2,0.2,0-0.1,0.2,0
				c0.1,0.3,0.4,0.3,0.4,0.5c-0.3-0.2-0.2,0-0.5-0.2c-0.3-0.4-0.6-0.6-0.9-0.7c0.1,0.1,0.1,0.2,0,0.2c0.3,0.4,0.6,0.3,0.6,0.5
				c0,0.2-0.7-0.4-0.4-0.1c0.4,0.2-0.4,0,0,0.2c0.1,0,0.2,0.1,0.3,0.1c-0.1,0.1,0.2,0.2,0.2,0.3c-0.3-0.2-0.1,0.2-0.3,0.2
				c-0.5-0.2-1.4-1.3-1.1-0.6c0.1-0.1,0.2,0,0.4,0.3l-0.2,0.2c0.3,0.6,0.2-0.1,0.5,0.2c-0.1,0.1,0.2,0.4,0,0.4
				c-0.2-0.2-0.3-0.5-0.4-0.3c0.1,0.4,0.6,0.5,0.6,0.7c-0.5-0.5-0.2,0.3-0.6-0.2c-0.1-0.2-0.1-0.2-0.1-0.3c0.1,0.1,0.2,0.3,0.2,0.2
				c-0.3-0.4-0.5-0.4-0.7-0.5c0,0.2,0.4,0.6,0.3,0.8c-0.2-0.2-0.4-0.6-0.5-0.4c0.2,0.4,0.4,0.9,0.4,1.1c-0.3,0.3-0.3,0.2-0.7,0.6
				c-0.3-0.6-0.1,0-0.2-0.1c-0.2-0.4-0.2-0.2-0.4-0.5c-0.1,0.2-0.2,0.2-0.2,0.7c0.1,0.2,0.2-0.1,0.4,0.2l-0.2,0.1
				c0.1,0.4,0.2,0.3,0.2,0.6c0.1,0,0.2-0.3,0.3,0c0,0.1,0.1,0.2,0.1,0.3c-0.3-0.1-0.4,0.2-0.6,0.3c-0.2,0.1-0.3,0.2-0.6-0.3
				c0.1,0.5,0,0.7-0.2,0.8c-0.2-0.4,0-0.3-0.2-0.6c-0.3,0.6-0.5-0.3-0.9,0c0,0.5-0.2,0.3-0.5,0.6l-0.2-0.6c-0.2-0.1,0,0.4-0.1,0.5
				c-0.2-0.2-0.3-0.4-0.4-0.5c0.1,0.5,0.2,0.5,0.3,0.8c-0.4,0.1,0,0.4,0.2,0.5c-0.4,0.2-0.6-0.1-0.7,0.3c-0.1-0.4-0.3-0.3-0.4-0.6
				c0-0.5,0.4,0.3,0.3-0.4c-0.7-0.6-1.5-0.1-2,0.4C53,65.5,53,65,52.9,65c-0.2,0.4-0.7,0.1-0.8,0.7c0.5-0.2,0.2-0.2,0.3,0.3
				c0-0.2,0.2-0.2,0.2-0.3c0,0.7,0.3,0.7,0.1,1.3c0.1,0.3,0.5,0,0.5,0.6c-0.7,0.7-0.7-1.9-1.1-0.8c0.1,0.4,0.3,0,0.4,0.6
				c-0.4,0-0.7,0.1-1.1,0.1c0-0.4,0-0.6-0.2-0.7c0,0.2,0,0.6-0.1,0.6c-0.2-0.2-0.2-0.2-0.1-0.7c-0.2,0.1-0.3,0-0.4,0.1
				c0.1,0.1,0.2,0.2,0.1,0.5c-0.7,0-1.3,0.2-1.8,0.2c-0.6,0-1.1,0-1.7-0.3c-0.1,0.4,0.2,0.8-0.1,1C47,68.3,47,68,47,67.7
				c-1.5-0.5-2.3-0.1-3.9-0.3c0-0.2,0.1-0.4,0-0.5c-0.6,0.8-0.6,0.1-0.9,0.1c-0.3,0.5-0.3,0.7-0.4,1.1c-0.1,0-0.2,0.1-0.3,0
				c0.2-0.5,0.3-1,0.3-1.3c-0.4,0.6-0.6,0-1,0.4c-0.2,0.1-0.3,0.8-0.2,0.1c-0.5,0.5-0.4,0.8-0.9,1.2c0.4-0.1-0.1,0.4,0.1,0.6
				c0.2-0.2,0.3-0.2,0.5-0.1c-0.1,0.1,0,0.2-0.1,0.3c-0.5,0.4-0.6,0.7-0.5,1.2c-0.2-0.1-0.4,0.1-0.6,0.3c0.1,0.1,0.3,0.1,0.3,0.3
				c-0.3,0.3-0.6,0.1-0.9,0.4c0.3-0.3,0.5-0.5,0.1-0.7c-0.2,0.5-0.5,0.9-0.7,0.4c0.1-0.2,0.3,0.1,0.4-0.1c-0.2-0.5-0.8,0.5-1.2,0.6
				c-0.3-0.1,0.2-0.6,0.1-0.7c-0.3,0-0.6,0.2-0.9,0.4c0.1-0.3,0.3-0.7-0.1-0.8c-0.1,0.5-0.3,1.3-0.9,1.5c1-0.3,1.6-0.5,0.6,0.6
				c-0.1,0.4,0.5,0,0.4,0.4c-0.6,0.1-0.8-0.1-1.2-0.6c-0.6,0.6-0.5-0.3-1,0.1c0.1,0.5,1.2,0.4,0.4,1c0.3,0.1,0.6,0.1,1,0.3
				c0,0.1-0.2,0.9,0,0.6c0.1-0.3-0.1-0.4,0.2-0.8l0.3,0.2c-0.2,0.1-0.4,0.4-0.4,0.7c0.5,0.5,1.6,0.9,2.1,1.1l-0.2-0.1
				c0.4-0.1,0.4-0.6,0.6-0.8l0.2,0.1c-0.6,0.7-0.1,1.6-1,1.8c0.3,0.3,0.4-0.3,0.7,0c-0.2,0.2-0.4,0.7-0.6,0.8c0-1.1-1.4-1.1-2.2-1.2
				c0.4,0.2,0.7,0.2,0.8,0.4c-0.4,0.2-0.2,0.5-0.3,0.8c1,0.2,1.6,0.1,1.9,1.2c0.1-0.3,0.3-0.3,0.4-0.3c0,0.3,0.6,0.2,0.5,0.5
				c-0.6,0-0.2,1.1-0.9,0.9c-0.2-0.2-0.2-0.3,0.1-0.5c-0.5-0.3-0.8,0-0.8-0.5c-0.1,0.2-0.2,0.4-0.3,0.4c0-0.2,0.1-1-0.3-0.7
				c0,0.7-0.6-0.5-0.8,0.3c-0.4-0.1-0.2-0.5-0.6-0.3c0.1-0.1,0.2-0.1,0.3-0.2c-0.2,0-0.7-0.1-1-0.2c-0.3-0.1-0.4-0.3,0.1-0.4
				c-1.1-0.3-1.7-1.5-2.8-1.1c-0.4-0.4,0-0.2-0.1-0.7c-0.7,0.7-0.9-0.9-1.7-0.3c0.1-0.4-0.1-0.7,0-1c0.2,0.1,0.5,0.3,0.7,0.2
				c0.1-0.4-0.5-0.2-0.3-0.5c0.4-0.4,0.3,0.2,0.5,0c0.2-0.6-0.8-1.2-1.3-0.5c0.3,0.2,0.3,0.4,0.2,0.6c-0.2-0.1-0.4,0-0.6,0.1
				c0.1,0.4,0.7,0,0.5,0.4c-0.4,0-0.8-0.5-1.2-0.2l0.3-0.4c-1.2-1-2.4-2-3.3-3c-0.5-0.5-1-1-1.4-1.5c-0.4-0.5-0.7-1-1-1.5
				c-0.3,0.3-0.5,0.6-0.8,0.2c0.3-0.3,0.5-0.1,0.8-0.3c-0.2-0.5-0.9,0-0.7-0.5c-0.3,0.2-0.7,0.4-0.8,0.2c0.5-0.3,0.3-0.4,0.8-0.5
				c-0.5-0.7-1.5-2.1-2-3c-0.3,0-0.8,0.3-1,0.1c0.6-0.3-0.4-0.4,0-0.8c0.3,0.1,0.3,0.6,0.7,0.5c0-0.3-0.3-2-0.8-1.6
				c0.3-0.1,0.2,0.4,0.4,0.6c-0.2,0.1-0.4,0.7-0.7,0.4c0-0.3,0.6-0.7,0-0.9c-0.3,0.1-0.2,0.3-0.4,0.4c-0.4-0.3-0.2-0.7-0.1-1.2
				c0.2,0,0.2,0.5,0.5,0.4c0-0.3,0-1.1-0.5-1c0,0.2,0,0.3-0.2,0.4c-0.6-0.1-0.3-1.1-0.8-0.9c-0.4,0.3,0.3,0.3,0.2,0.7
				c-0.4,0.2-0.4-0.1-0.6,0.2c0.1,0.7,0.5-0.1,0.7,0.2c-0.2,0.1,0.1,0.2,0.1,0.4c0.1,0.9,0.4,1.7,0.8,2.4c0.4,0.7,0.9,1.3,1.4,1.9
				c0-0.1,0-0.2,0.1-0.1c-0.1,0.1-0.1,0.2,0,0.3c-0.2,0.1-0.3-0.1-0.5,0.1c0.4,0.6,1.4,1.3,1.4,1.9c-0.1-0.2,0.3-0.4,0.4-0.2
				c0.3,0.8,0.1,1-0.4,1.8c0.5,0.2,0.2-0.6,0.5-0.4c-0.3,0.3,0.2,0.8-0.1,1.1c0.8-0.1,0.4,0.6,0.3,1c0.5-0.2,0.3-0.7,0.7-0.4
				c0.2,0.3-0.1,0.5-0.5,0.7c0.3,0.2,0.7,0.4,1,0.5c-0.1-0.5-0.3-0.9-0.2-1.1c0.9,0.4,0.6,1.6,0.4,2.3c0.4,0.1,0.3-0.1,0.6-0.1
				c0.3,0.7,0.1,0.4,0.6,0.9c0.4-0.3-0.1-0.7,0.2-1c0.4,0.8,0.8,0.4,1.1,0.4c0.3,0.8,1.6,1.4,1.5,2.4c-0.3-0.4-0.5-0.3-0.8-0.3
				c0.3-0.8-0.4-0.8-0.9-1.4c-0.4,0.4,0.4,0.7,0.2,1.1c0.1-0.1,0.2-0.2,0.3-0.1c0.4,0.8-0.3,1.3-1,2c0.8-0.1,0.3,0.8,1.1,0.5
				c-0.4-0.3-0.7-0.6-0.3-0.9c0.5,0.8,1.7,0.7,1.8,2.2c1.1,0,1.9,0.5,2.5,1.1c0.7,0.6,1.3,1.2,2.2,1.1c1.1,0.6,0.7,2-0.3,2.6
				c-0.5-0.7-0.8-0.1-1.3-0.7c0.6-0.1-0.2-0.5-0.1-0.8c0.3,0.4,0.9-0.2,0.7-0.5c-0.3,0.2-0.6-0.1-0.9,0.2c0.1,0.5-0.5,0.5-0.2,1
				c-0.5,0.1-1.2-0.8-1.6-0.3c0.7,0.5,1.3,0.7,1.9,1c0.6,0.2,1.1,0.6,1.8,1.6c-0.4-0.3-0.6-0.1-1-0.3c0-0.1,0.1-0.3,0-0.4
				c-0.6,0.6,0.5,0.8,0.3,1.3c-0.2,0.1-0.4,0.2-0.6,0c-0.3-0.4-0.7-0.8-1.2-1c-0.5-0.3-1.1-0.4-1.8-0.4c0-0.7-0.6-0.9-1.2-1.1
				c-0.6-0.2-1.3-0.4-1.4-1c-0.3,0.1-0.5,0.4-0.8,0.4c0.2,0.4,0.7,1,0.6,1.7c0.4,0.4,0.6-0.2,0.9,0.3c-0.1,0.2-0.1,0.3-0.1,0.5
				c0.9,0.5,1.8,1,2.6,1.7c0.3-0.1,0.5-0.3,0.8-0.3c-0.1,0.2,0.1,0.3-0.2,0.4c0.8,0.6,1-0.2,1.2-0.3c0.3,0.3-0.4,0.8,0.3,1.1
				c0.2-0.7,1-1,1.9-0.9c-0.1,0.2,0.1,0.3-0.1,0.5c-0.3-0.7-0.9,0.1-1.1,0.7c0.6,0.2,0.4,0.1,0.8,0.4c0.3-0.2-0.3-0.7,0.3-0.6
				c0.3,0.2,0,1.3,0.8,0.9c-0.2-0.1-0.3-0.4,0-0.4c0.4,0.3,0.8,0.7,1.1,1c0.3-0.3,1.5,0.1,1.7,0.5c0.3-0.6,1.1-0.7,1-1.3
				c0.5,0.3,1.6,0.4,1.1-0.1c-0.3,0-1.6-1-1.6,0.3c-0.5,0-1-0.1-1.1-0.6c0.4,0,0.9-0.2,0.4-0.5c-0.3,0.2-0.4,0.6-0.9,0.4
				c-0.4-0.4,0-0.3,0-0.9c-1.4,0.1-2.3-0.7-3.2-1.3c0.8,0,1.3-0.4,2-0.6c-0.3,0.2-0.1,0.8,0.2,0.4c-0.3-0.5,0.1,0.2,0.5,0.2
				c0.5-0.3-0.4-0.7,0.1-0.7c0.5,0.6,0.4,1.1,0.3,1c0.1,0.3,0.6-0.2,0.7,0.5c0.6-0.2,0.6-0.6,1.3,0c0.3-0.4,0-0.6,0.2-1
				c0.6,0.4,0.5-0.7,1-0.3c-0.3,0.6-0.9,0.9-0.8,1.8c0.3,0,0.4-0.4,0.7-0.4c-0.1,0.4,1,0.6,1.4,0.6c-0.2-0.2,0.1-0.2,0-0.7
				c1.3,0.4,1.3-0.7,2.4-0.4l-0.1,0.5c1.2,0,2.8,0.3,2.9-0.4c0,0.2,0.2,0.2,0.4,0.2l-0.1,0.5c0.9,0.2,1.5-0.4,2,0.3
				c0-0.2,0-0.5,0.2-0.5c0.4,0.5,0.9,0,1.3,0.6c0.5-0.7,0.9-0.5,1.8-0.4c0.2-0.4-0.4-0.7,0-0.8c0.5,0.2,0.7,0.6,1.3,0.7
				c-0.2-0.4,0.6-0.5,0.1-0.8c-0.3,0.5-0.3-0.3,0-0.3c-1.4,0.4-2.3-0.4-3.5,0.5c0.1-0.2,0.3-0.3,0.3-0.5c-0.4,0.1-0.8,0.1-1.1,0.1
				c-0.3-0.1-0.6-0.2-0.7-0.4c-0.3,0.3-1.1,0-1.5,0.3c-0.2-0.9-1.4-0.2-1.9-0.1c0.1-0.2,0.3-0.2,0.4-0.4c-0.7-0.3-1-0.9-1.6-0.4
				c0.1-0.3-0.6-0.7-0.1-0.7c0.1,0,0.2,0,0.2-0.1c-0.4,0-1.7,0.4-1.5-0.6c0.7,0.5,1.4,0.4,2,0.2l-0.2,0.8c0.9,0.1,1-0.1,1.5,0.5
				c-0.1-0.5,0-0.6,0.3-0.9c-0.6-0.4-1.1-0.6-1.6-0.8c0.1-0.1,0.1-0.3,0.2-0.3c0.7,0.5,1.1-0.1,1.7,0.7c0.1-0.8,1.1-0.1,1.4-0.6
				c-0.6-0.2,0.2-0.4,0.1-0.6c-0.2-0.7-1-0.7-1.8-0.7c-0.8,0-1.6-0.1-1.6-0.7c0.6,0,1.1,0.2,1.5,0.4c0.4,0.1,0.8,0.1,1.3-0.4
				c-0.3-0.2-0.2-0.6-0.5-0.7c-0.4,0.2,0.1,0.5-0.2,0.6c-0.8-0.2-1.2-1-2.2-0.5c0.2-1.3-0.8,0.3-1.2-1c-0.9,0.7-1-0.7-1.7,0.1
				c-0.3-0.2-0.3-0.5-0.6-0.7c-0.1,0.2-0.1,0.4-0.3,0.4c0.1-0.2-0.3-0.2-0.2-0.4c0.3-0.2,0.2-0.4,0.6-1c-0.2-0.4-0.7,0.2-0.8-0.5
				c0.3-0.3,0.6-0.6,1.1-0.3c-0.4,0.9,0.9-0.1,0.5,1.1c0-0.5,0.6-0.8,0.4-1.1l-0.1,0.3c-0.6-0.2-0.9-0.6-1-0.7
				c0.3-0.5,0.8-0.4,0.9-0.9c-0.1,1.2,1.1,0.3,1.2,1.3c-0.2,0.2-0.7,1.1-0.3,1.3c0.1-0.1,0.2-0.1,0.3-0.1c-0.4-0.6,0.4-1.4,0.8-2.1
				c0.7,0.2-0.1,0.7,0,1c0-0.1,0.1-0.2,0.2-0.1c0,0.1,0,0.2,0.1,0c0-0.3,0-1.1,0.4-0.6c0.2-0.9-0.5-0.4-0.6-0.8
				c0.2-0.3,0.6-0.1,0.9-0.3c0.2,0.2-0.1,0.8,0.2,0.9c0.2-0.4,0-0.8,0.1-1.3c-0.1,0.2-0.5-0.1-0.5-0.1c0.5-0.1,0-0.2,0.2-0.6
				c0.2-0.1,0.2-0.6,0.4-0.6c0.1,0.1,0.1,0.2,0.1,0.4c-0.1,0.2-0.2,0.1-0.3,0.3c0.2,0.1-0.1,0.6,0.3,0.6c0.1-0.7,0.6-0.5,0.3-0.9
				c0.2-0.2,0.5,0,0.3,0.6c0.5,0.2,0.2-0.6,0.5-0.7c0.1,1.2,0.1,1.2,0.4,0.3c0.1,0.1,0.1,0.2,0.1,0.4c0,0.2-0.2,0.1-0.3,0.3
				c0.1,0.1,0.1,0.2,0,0.3c0.2-0.1,0.4-0.2,0.6-0.1c0.2,0,0.3,0.2,0.3,0.6c-0.3-0.5-0.3,0.9-0.8,0.5c-0.2,0.8,0.5,1.4,0.9,1.2
				c-0.7-0.2,0.1-0.5,0.3-0.8c-0.2-0.1-0.4,0-0.4-0.2c0.3-0.2,0.2-1.3,0.6-1c0,0.6-0.3,0.6-0.4,1.1c0.3,0.3,0.6,0.1,0.8-0.2
				c0,0.8,0.4,0.3,0.6,0.7c0.2-0.4,0.4-1,0.5-1.6c-0.3-0.2-0.3,0.3-0.5,0.3c0-0.2,0-0.4,0-0.5c0.8-0.2,1.4-0.6,1.9-0.1
				c0-0.2,0-0.5,0.1-0.5c0.3,0.3,0.2,0.2,0.6,0c-0.2,1-0.1,1.2-0.6,1.6c0.2,0.6,1.3,0,1.3-0.1c-0.3,0-0.6-0.1-0.6-0.4
				c0.6,0.1,0.2-0.6,0-0.6c0.3-0.2,0.5-0.5,0.8-0.6c0.3,0.2,0.1,0.2,0.1,0.7c0.5,0,0.2-0.3,0.2-0.8c0.3,0.2,0.6-0.3,0.6,0l0,1.1
				c0.5-0.5,0.5-0.9,1.1-1.7c0.1,0.5-0.1,0.6-0.2,1c0.7,0.1,0-0.9,0.6-0.8c0,0.3-0.1,0.4-0.1,0.7c0.2,0.3,0.2-0.1,0.4-0.2
				c0.2,0.8,0.8,1.4,0.4,2.1c0.1,0.4,0.3,0.8,0.4,1.1c-0.1-0.5,0.2-0.6,0.5-0.8c0.4-0.2,0.7-0.3,0.8-0.8c-0.2,0-0.2-0.4-0.5-0.3
				c0,0.3,0.1,0.6-0.2,0.5c0.1-0.4-0.2-0.5,0-0.8c0.2,0.2,0.5-0.3,0.7,0.2c0.1,0.5-0.1,0.6,0,1.1c0.3,0,0.2-0.3,0.4-0.1
				c0-0.4-0.3-1.3-0.1-1.5c0.1,0.5,0.4,1.1,0.8,1.5c0.4-0.2,1-0.2,1.5-0.3c0.5-0.1,1-0.1,1.4,0c-0.7-0.4-0.7,1.2-1.4,0.7
				c0.3,0.1,0.5-0.4,0.2-0.4c0,0.5-0.4-0.1-0.7,0.1c-0.1,0.3,0.1,0.8,0.1,1.3c0.4-0.7,1.5,0.1,1.7-0.9c-0.2,0-0.4,0.2-0.5,0
				c0-0.6,0.5-0.1,0.7-0.5c0,0.3,0.7,1.2,0.1,1.3c-0.6-0.6-1.5,0.4-1.4,0.9c-0.3,0-0.3-0.6-0.6-0.6c-0.1,0.6-0.7,0.3-1.2,0.3
				c0,0.5,0.7,0.7,0.4,1.1c0-0.2-0.1-0.4-0.3-0.3c-0.2,0-0.1,0.3-0.2,0.4c0-0.2-0.1-0.2-0.2-0.3c0.3-0.3,0.2-0.6,0-1
				c0.3-0.3,0.6,0,0.8-0.3c-0.2-0.3-0.1-0.9-0.5-0.7c-0.3-0.1,0.2,0.7-0.1,0.7c-0.3-0.2-0.7,0-0.7-0.7c-0.4,0.1-0.2,0.7-0.7,0.6
				c0-0.6-0.2-0.7-0.3-0.9c0.2,0,0.3-0.3,0.1-0.3c-0.4,0.6-0.2,1-0.4,1.7c0.5,0.2,0-0.7,0.4-0.5c-0.2,0.3,0.1,0.5,0.2,0.8
				c-0.7,0.9-1.6-1.4-2.3,0c0.3,0.2,0.3-0.7,0.5-0.2c0,0.2,0.1,0.2,0.1,0.3c-0.5-0.2-0.1,1.4-0.6,0.8c-0.1,0.4,0.4,0.8,0,1
				c0.2-0.6-0.4-0.1-0.4-0.5c0.3-0.2-0.2-0.5,0-1c0.2,0.3,0.6,0.4,0.5-0.3c-0.6,0.4-0.4-0.4-1.3-0.1l0,0.8c0.4,0.1,0.5,0.2,0.6,0.3
				c0.1,0.5-0.1,1.5-0.3,2c-0.3-0.4-0.2,0.3-0.6,0.2c-0.6-0.2,0-0.7-0.4-1.1c-0.2,0.6-0.2-0.4-0.5-0.2c0,0.3,0.1,0.8-0.3,0.6
				c0-0.2,0.2-0.2,0.1-0.5l-0.5,0c-0.1,0.7,0.2,0.8,0.5,1.2c-0.2-0.4,0.4-0.5,0.4-0.1c0,0.2-0.1,0.2-0.3,0.3
				c-0.2-0.1-0.5-0.1-0.6-0.4c0.1-0.8-0.7-0.9-0.4-1.3c-0.6-0.1-0.1,0.5-0.4,0.6c-0.7-0.2-0.7-0.2-1,0.3c-0.6,0.3-0.8-0.3-0.2-0.5
				c-0.8-0.1-1.3,0.4-1.9-0.3c-0.2,0.3,0.5,0.6,0,0.8c-0.2-0.4-0.3-0.4-0.5,0.1c0.3,0.1,0.6,0.3,1,0.3c-0.2,0.7,0.8,0.3,0.3,1
				c0.5,0.3,0.1-0.7,0.6-0.4c-0.1,0.5,0.1,0.8,0.1,1.2c0.4,0,0.8,0,0.9,0.4c-0.3,0-0.4,0.1-0.4,0.5c0.6-0.2,0.3,0.6,0.3,1
				c0.2-0.8,1,0.1,1.4-0.7c-0.2,0-0.5,0-0.5-0.2c0.7,0-0.1-0.4,0-0.8c0.2,0.2,0.4,0.1,0.4-0.3c-0.2-0.5-0.7,0.6-0.9,0
				c0.2,0,0.1-0.3,0.3-0.3c0.2,0.3,0.5,0,0.8-0.1c0.2,0.2-0.3,1,0.4,1c-0.1-0.7,0.2-1-0.3-1.3c1.1-0.2,0.2,0,1,0.4
				c0.1-0.4,0.5-0.6,0.8-0.7c0.3-0.1,0.7-0.1,0.8,0c-0.4,0.5,0.4,1,0.4,1.9c-0.9-0.2,0.1,1.3-0.5,0.7c0.4,1.4,1.4,0.4,2.4,0.2
				c0.1-0.5-0.3-0.5-0.3-0.8c0.6,0.1-0.1-0.3,0.3-0.3c0,0.2,0.2,0.1,0.3,0.3c0.6,2.1-1.1,1.3-1.7,1.9c0.8,0,0.8,0.7,1.3,0.6
				c-0.2,0.3-0.8,0.2-0.8,0.7c0.8-0.4,0.4,0.3,0.8,0.8c0.6,0.1,0.2-0.6,0.7-0.5c0.1,0.8-0.2,0.5-0.4,1c0,0.4,0.4-0.2,0.8,0
				c0-0.3-0.3-0.4,0-0.5c0.5,0.4,1,0.3,1.6,0.1c0.6-0.2,1.1-0.4,1.8-0.1c-0.4,0.4,0.1,0.9-0.3,1.2c-0.3-0.3-1.9-1.2-1.9,0
				c0.4-0.1,0.5-0.3,0.8,0c-0.7-0.2,0.1,0.8-0.4,0.9c0-0.2-0.1-0.4-0.4-0.3c-0.1,0.5-0.1,1,0,1.1c0.4-0.4,0.4,1.3,0.5,1.4
				c-0.4-0.2-1.2-0.1-1.3,0.3c1.5,0.3,1.9-0.1,3.2-0.7c0.1,0.3,0,0.5-0.1,0.7c0.3-0.2,0.8-0.7,1.3-0.4c0-0.2,0.1-0.4,0.3-0.5
				c0.2,0.2,0.5,0.2,0.9,0.1c0.4-0.1,0.7-0.2,1.1-0.4c0.7-0.3,1.2-0.4,1.1,0.3l0.7-0.2c0-0.3-0.7-0.5-0.2-0.8c0.6-0.1,0.8,0.5,1.7,0
				c-0.4-0.9,1-0.6,1.2-0.4c0.1-0.3,0.2-0.6,0.5-0.9c0.8,0.3,0.9-0.2,2.1-0.1c-0.1-0.6-0.7-0.1-0.9-0.3c0.2-0.3,1.2-0.5,1.3-0.5
				c0.1,0.2-0.4,0.3-0.4,0.5c0.5-0.3-0.2,0.6,0.4,0.4c-0.3-0.4,0.3-1.1,0.8-0.9c0.1,0.2-0.4,0.3-0.4,0.5c0.8-0.3,0.5-0.9,1.4-0.9
				c0.3-0.5-0.7-0.6-0.1-1c0.4,0.2,1.2-0.7,1.6-0.5c-0.6,0.3-0.5,0.5-1.1,0.6c0.1,0.3-0.1,0.6-0.2,0.8c0.4-0.2,0.5,0.4,1,0.2
				c-0.6-0.9,0.8-1,1.1-1.5c-0.1,0-0.3,0.2-0.4,0c0.2-0.2,0.8-0.9,0.9-0.7c0,0.3-0.3,0.7,0.3,0.6c-0.4-0.7,0.8-0.6,1-0.5
				c-0.1-0.4-0.3-0.6,0.4-1.1c0.3,0.7,0.4,0.3,0.7,0.3c0.1,0.2,0,0.3-0.1,0.5c-0.2-0.2-0.4-0.5-0.8-0.2c0.6,0.4,1.4,0.5,2.3-0.2
				c0.3-0.4-0.6-0.2-0.2-0.6c0.7,0.3,1.7-0.6,1-0.8c0.5-0.5,0.8,0.2,1.3-0.5c-0.2-0.5-0.6,0.1-0.8-0.1c0.7-0.4,1.4-0.9,1.2-1.4
				c0.4-0.4,0.7-0.7,1-0.3c-0.2,0.1-0.5,0.1-0.4,0.4c0.6,0.1,0.9-0.5,1.3-1c0.2,0.5,0.5-0.1,0.7-0.3c0,0.5,0.4,0.3,0.7,0.7
				c0.2-0.3,0.4-0.5,0.3-0.8c-0.5,0.6-0.6-0.6-0.3-0.8c0.4,0.1,0.2,0.2,0.7,0.4c0.5-0.3,0-0.6,0.2-0.9c0.3,0.2,0.5-0.4,0.5-0.6
				c0.1,0.2,0,0.4,0.1,0.6c0.4-0.6,0.7-0.4,1-0.9c-0.2-0.2-0.5,0-0.4-0.3c0.4-0.3,0.5-0.4,1.1-0.6c0-0.7-1.4,0-1.4-0.6
				c0.4-0.4,1.2-0.1,1.2-1l0.5,0.4c0.5-0.7,0.9-1.3,1.2-0.5c0.7-1.6,1.4-2.9,2.9-3.9l-0.7-0.4c0.2-0.2,0-0.5,0.3-0.5
				c0.1,0.6,0.6,0.9,1,0.1c0-0.5-0.6,0.1-0.5-0.5c1.3-0.8,1.4-2.7,2.5-4.2c-0.2-0.3-0.7,0.3-0.6-0.2c0.4-0.3,0.8-0.5,1.1-1.1
				c-0.4-0.1-0.6-0.3-0.6-0.6c0.1-0.4,0.3-0.5,0.6-0.3c-0.1,0.3,0,0.5,0.1,0.6c0.1-0.1,0.2-0.1,0.4-0.1c0-0.5,0.2-1.4,0.9-1
				c0.5-0.9-0.1-0.4-0.3-0.8c0.9-0.3,0.8-1.3,0.9-2.4c-0.2-0.1-0.6-0.1-0.6-0.3c0.5,0-0.1-0.5,0.2-0.9c0.8-0.2,0.6,0.3,0.3,1
				c0.9-0.1,0.4-1.2,0.2-1.8c0.3-1.1,1.5-2,0.9-3.2c0,0.1-0.6,0.4-0.5,0.1c0.6-0.5,1.3-1.9,0.8-2.7c0.7-0.6,0.5-1.6,0.2-2.6l0.5,0
				c0-0.7-0.1-1-0.4-1.6c0.5-0.5,0.3-1.1,0.2-1.7l0.6,0c0-1.8-0.3-3.4-0.5-5.1c-0.1-0.9,0.5-1.7,0.5-2.4c0-0.1-1-0.8-0.3-1
				c-0.3-0.1-0.4,0.6-0.6,0.1c-0.2-1.9-0.2-2.8-0.6-4.7c-0.2,0-0.6,0.2-0.7,0c0.2-0.1,0.2-0.3,0.6-0.3c-0.3-1.8-1.2-2.5-1.2-3.7
				c-0.4-0.4-0.5,0.5-0.8,0.1c0.2-0.4,0.5-0.3,0.9-0.3c0-0.9-0.7-0.1-0.9-0.5l-0.3-0.7c1-0.1-0.1-1.9-0.3-1.1
				c0.4-0.1,0.4,0.7,0.1,0.7c-0.3-0.3-0.9-1.7,0-1.2c-0.7-0.5-1.1-1.1-0.7-2c-0.5-0.2-0.8,0.9-1.2-0.2c0.5-0.1,0.3-0.4,0.6-0.5
				c-0.4-1-0.8-0.9-0.7-2c-0.5,0-0.8-0.1-1.1,0.4l-0.5-0.8c0.7-0.6,0.2-1.6-0.5-2.6c-0.3,0.1-0.5,0.2-0.7,0c0,0-0.5-2.1,0-1.2
				c-0.7-1.5-2.5-3.5-3.2-3.3c0.5-0.9-0.8-1.2-1.2-2.2c-0.3,0-0.6,0.1-0.9,0c0.1-0.2,0.4-0.3,0.2-0.5c-0.6,0.5-0.4-0.5-0.7-0.7
				c-0.7-0.2-0.5,0.6-1.1,0.3c-0.2-0.4,0.4-0.7-0.1-1.1c-0.3,0.1,0.1,0.8-0.4,0.5l-0.3-0.3c0.2-0.3,0.4-0.4,0.7-0.5
				c-1.5-0.8-2.3-1.3-3.3-2.1c-0.6,0.3,0.5,0.5,0.2,0.7c-1.1-1.1-2.4-2-3.6-2.7c-1.2-0.7-2.4-1-3.4-0.9c-0.6-0.5-1.2-1-1.9-1.5
				c-0.8,1.3-3.4-0.9-4.4-0.2c0.5,0.5,1.4,0.2,1.9,0.9c-0.7-0.1-1-0.1-1,0.6c-0.4-0.8-0.9,0.8-1.5-0.2c-0.2,0.2,0.1,0.5-0.2,0.5
				c-0.4-0.1-0.7-0.3-0.7-0.6c0.7,0.2,0.1-0.2,0.1-0.5c0.2-0.1,0.5-0.1,0.9,0.1c0.1-0.4,0.3-0.7,0.1-1C65.8,4,65.3,4,64.7,4.1
				l-0.2,0.8c-1-0.4-1.1,0.5-1.9,0.3c0,0.8-0.5,1-1.1,0.9c-0.4,0.8-0.1,1.3-0.8,1.5c0.3,0.1,0,0.6,0.3,0.7c0.1-0.6,0.4,0.5,0.5,0
				c-0.2-0.1-0.3-0.4-0.1-0.4c0,0.3,0.9,0.2,0.9,0.6c-1.4,0.3-1.3,1.8-2.7,2c0-0.3-0.4-0.3-0.5-0.6c0-0.3,0.4-1,0.1-1.1
				c-0.2,0.3-0.4,0.6-0.6,0.9c0-0.4-0.8-0.1-0.8-0.5c-0.1,0.5-0.6,0.3-1,0.3c0.3,0.8-0.8,0.5-0.9,1.3c0.6,0,0.9,0.2,1.1,0.5
				c0.3-0.4,0.5-0.9,0.9-1.2c0.2,0,0.2,0.2,0.4,0.2c0.1-0.3-0.2-0.4,0.1-0.5c0.2,0.6,0.5,0.6,0.1,0c1.2,0.3,0.6,1.2,1.1,2
				c-0.4-0.4-1.4-0.2-1.2,0.5C58,12,57,12.2,56.7,12.5c-0.3-0.1-0.2-0.5-0.5-0.6c-0.7,0.3-1.1,1.2-1.8,1.6c0.1,0.7,0,0.6-0.1,1.3
				c0.5,0.1,0.5,0.8,0.9,1c0.2-0.2,1.1-0.4,1.2-0.2c-0.6,1.5-1.5,2.5-1.7,4c0.3,0.3,0.6,0,1,0c0.2,0.8-0.1,1.4-0.3,2.2
				C55.4,21.8,55.1,21.1,55,21.5z M76.9,86.9c-0.2-0.3,0.2-0.6,0.6-0.8C77.9,86.6,77.3,86.7,76.9,86.9z M54.4,88.2
				c-0.3-0.5,0.9-0.3,0.2-0.7c0-0.2,0.3-0.2,0.4-0.2c0,0.1,0.1,0.2,0.2,0.2C55.1,87.9,54.9,88.2,54.4,88.2z M55.4,85.8
				c-0.1,0.4-0.6,1.2-0.5,1.3c-0.2,0.5-0.4-0.3-0.6-0.3C54.8,86.5,54.8,85.9,55.4,85.8z M41.5,83c-0.3-0.3,1.2,0.2,0.2-0.3
				c0.1-0.2,0.4,0,0.6,0c-0.4,0.5,0,1.1-0.6,0.8c0,0.2,0.2,0.4,0.5,0.5c-0.5,0.3-0.7-0.6-0.7,0.5l-0.4-0.1
				C40.9,83.7,42.2,83.5,41.5,83z M43.8,67.6c-0.1,0.4-0.3,0.6-0.5,0.5C43.5,67.7,43.6,67.5,43.8,67.6z M54,26.5
				c0.2-0.3,0.6-0.6,0.7-0.2C54.5,26.5,54.2,26.6,54,26.5z M54,33.8c0.1,0.4,0.6-0.4,0.7,0.1c-0.3,0-1,0.8-0.9-0.6
				c0.2,0,0.4-0.2,0.5,0.1C54.2,33.8,54.1,33.7,54,33.8z M54.5,28.3c0.2-0.7,0.4,0.5,0.7-0.2c-0.1,0.5,0,0.6-0.1,1
				C55,28.7,54.7,28.5,54.5,28.3z M55.6,18.7c0.1,0,0.1,0.2,0.1,0.3c0.3,0.1,0.4-0.2,0.5-0.4c0.3,0.4-0.3,0.5-0.4,0.7
				C55.6,19.3,55.6,19.1,55.6,18.7z M55,27.6c0.1-0.3,0.3-0.1,0.3-0.6c0.2,0.1,0,0.6,0.3,0.5c0.2,0.2-0.6,0.1-0.2,0.5
				C55.2,28.4,55.2,27.6,55,27.6z M54.4,35.9c0.2-0.2,0.3-0.5,0.5-0.6c0.1-0.4-0.1-0.2-0.1-0.5c-0.2,0.1,0,0.3-0.1,0.6
				c0-0.1-0.1-0.3-0.2,0c-0.1-0.2,0.1-0.5,0.1-0.8c0.1-0.1,0.3,0.2,0.3-0.1c0.1,0.8,0,0.4,0.2,0.6c-0.2,0.6-0.3,1.1-0.2,1.3
				c-0.1,0.1-0.3,0.5-0.4,0.4c0,0.2,0,0.4-0.1,0.7c0.1,0,0.2-0.3,0.3-0.3c-0.1,0.5-0.1,0.6-0.2,1c-0.2,0.3,0-0.5-0.2-0.4
				c0.2-0.7,0.2-1-0.1-0.8c0.1-0.3,0.2-0.5,0.4-0.8C54.8,35.5,54.5,35.8,54.4,35.9z M55.3,34.1c-0.2,0.7-0.3,0-0.4-0.2
				C55.1,33.3,55.1,34.2,55.3,34.1z M60.1,12.9c-0.5-0.3,0.1-0.4,0.1-1c0.2,0.2,0.2,1,0.7,0.2c0.2,0.1,0.9,0,0.6,0.5
				C60.7,12.3,60.6,12.8,60.1,12.9z M55.3,34.2c0.1-0.2,0.2-0.3,0.3-0.4c0.2,0.1,0.1,0.5,0.2,0.7C55.5,35,55.6,34.2,55.3,34.2z
				 M54.4,38.8c0.1-0.6,0.1-0.1,0.2-0.4c0,0.1,0,0.4-0.1,0.8C54.5,39,54.5,38.7,54.4,38.8z M56.2,32.3c-0.1,0.2-0.1,0.3,0,0.3
				c-0.1,0.4-0.3-0.2-0.3,0.4C55.7,32.9,56,32,56.2,32.3z M60.1,16.2c0.6-0.7,1.1-1.7,1.5-2.1c0.2,1.1-1.3,1.4-0.9,2.3
				C60.5,16.8,60.4,16.1,60.1,16.2z M61.3,13.4c0.4-0.5,0.7,0.6,0.9-0.1C62.6,14.1,61.5,13.9,61.3,13.4z M63.4,7.1
				c-0.3-0.2,0.1-0.3,0.1-0.5c0.3,0.2,0.7,0.2,0.5,0.6C63.7,7.3,63.6,6.6,63.4,7.1z M55.5,41.1c0.1-0.2,0.3-0.5,0.5-0.8
				c0,0-0.2,0.4-0.4,0.7C55.6,41.1,55.5,41.2,55.5,41.1z M56.2,40.4c0.2-0.4,0,0.2,0.2-0.2c-0.1,0.3-0.6,1-0.7,1.1
				C55.8,41.1,56.2,40.5,56.2,40.4z M61.2,34.4c0,0.2,0.2,0.4-0.2,0.9C61,35,60.9,34.8,61.2,34.4z M61.3,35.2c0.1-0.4,0,0.3,0.3-0.1
				c0.1,0.1-0.1,0.3-0.3,0.6c0-0.1,0-0.3-0.1-0.1C61.2,35.4,61.4,35.2,61.3,35.2z M58.4,38.8c0.2,0-0.2,0.4-0.2,0.5
				C57.9,39.6,58,39.2,58.4,38.8z M64.5,31.7c0.2,0.1,0.3,0.2,0.2,0.4c-0.3,0.2-0.1-0.6-0.6,0.2C64.1,32.1,64.2,31.9,64.5,31.7z
				 M56.1,41.7c0.3-0.3-0.1,0.2,0.1,0.1C55.9,42.1,55.9,42,56.1,41.7z M56.4,41.5c0.3-0.3,0.5-0.4,0.5-0.4c0.5-0.6,0-0.1,0.2-0.4
				c0.5-0.5,0.1,0.1,0.1,0.1c-0.3,0.3-0.5,0.6-0.7,0.7c0,0-0.1,0,0.1-0.2C56.5,41.4,56.4,41.6,56.4,41.5z M58.1,39.6
				c-0.1,0.2,0.1,0.2-0.4,0.7l-0.1-0.1C57.7,40.1,57.9,39.9,58.1,39.6z M56.4,41.8c-0.3,0.3-0.4,0.4-0.6,0.6
				C55.7,42.3,56.4,41.5,56.4,41.8z M58.3,40c0-0.1,0.2-0.3,0.5-0.6C58.9,39.5,58.4,40,58.3,40z M56.9,42.1c0.3-0.1-0.2,0.4-0.4,0.6
				c-0.4,0.2,0.2-0.3-0.3,0.1c-0.3,0.2,0.1-0.1,0.1-0.1C56.9,42.4,56.8,42.3,56.9,42.1z M88.1,16.9c0.5-0.3,0.7,0.5,0.8,0.8
				C88.7,17.9,88.4,17.1,88.1,16.9z M56.4,43c0.2-0.1,0.3-0.2,0.3-0.1c-0.1,0.1-0.5,0.3-0.4,0.3C55.7,43.6,56.3,43.2,56.4,43z
				 M58,46.2c0.5-0.1,1-0.1,0.7,0C58.6,46.2,58,46.3,58,46.2z M60.2,47c0.3-0.2,0.5,0,0.8,0C60.7,47.2,60.5,46.9,60.2,47z M60,47.8
				c-0.3,0-0.3-0.3,0.3-0.3c-0.2,0.1-0.2,0.2,0.2,0.2C60.5,47.9,60,47.6,60,47.8z M59.3,47.8L58.8,48c0,0.1,0.6,0,0.8,0.1
				C58.7,48.3,58.4,47.7,59.3,47.8z M59.8,49.6c-0.1,0.1-0.1,0.3-0.5,0.3c0.3,0.1,0.6,0.4,1.3,0.3c0.1,0.2-0.5,0-0.2,0.3
				c-0.6-0.1-0.2-0.3-1.1-0.3c-0.4-0.2,0.4-0.4-0.4-0.6C59,49.5,59.5,49.6,59.8,49.6z M62.7,50.7c0.6,0.1,0.2,0.3,0.3,0.5
				C62.5,51,63,51,62.7,50.7z M59.7,51.2c0.1-0.1,0.3,0.1,0.6,0.1c0.2,0.2-0.5-0.1-0.4,0.1C59.4,51.4,60,51.3,59.7,51.2z M61.3,51.6
				c0.2,0.1,0.1,0.2,0.1,0.2c-0.4-0.1-1-0.5-1-0.2C59.6,51.4,60.9,51.6,61.3,51.6z M60.9,51.8c0.5,0.1,0.4,0.2,0.9,0.3
				C61.6,52.2,60.8,52,60.9,51.8z M61.5,55c0.2,0,0.2,0.1,0.6,0.2c0,0.1-0.2,0.1,0,0.2C61.9,55.5,61.8,55.1,61.5,55z M62.5,55.9
				c0.4,0.3-0.2,0-0.1,0.2c-0.4-0.3-0.5-0.2-0.9-0.4c-0.3-0.3,0.3,0,0.3-0.1C62,55.9,62.2,56.1,62.5,55.9z M62.5,57
				c-0.2-0.5,0.5,0.4,0.8,0.3C63.7,57.8,62.6,56.9,62.5,57z M61.3,56.4c-0.1,0.1-0.3,0.1-0.4,0.1c-0.2-0.1-0.2-0.2-0.4-0.3
				C60.7,56.2,60.9,56.1,61.3,56.4z M62.3,57c-0.5-0.2,0.1,0.5,0.2,0.3c0.1,0.1,0,0.1,0.2,0.3c-0.4-0.2-0.5-0.1-1.1-0.4
				c0.1,0,0.4,0-0.1-0.4C61.7,56.6,62,56.8,62.3,57z M61.3,56.7c0.4,0.2-0.2,0.1,0.2,0.3c-0.2-0.2-0.9-0.6-0.9-0.7
				C61,56.6,61.1,56.8,61.3,56.7z M63.3,58.1c-0.3,0.1-0.3,0-0.4,0.1c-0.6-0.5-0.7-0.3-1.3-0.7l0.1-0.2C62.3,58,62.6,57.8,63.3,58.1
				z M62.4,58.6l0.4,0.3C62.6,59,62.4,59,62.3,59C62.1,58.7,62.5,58.9,62.4,58.6z M84.7,80.1c0.1,0.6-0.8,0.5-1.1,0.2
				C84,80.1,84.3,80.3,84.7,80.1z M80.4,82.5c0.2,0.2-0.8,1.2-0.9,0.6C79.8,82.7,80.1,82.8,80.4,82.5z M60.6,63.3
				c-0.2,0-0.3-0.3-0.5-0.6C60.2,62.6,60.5,63.1,60.6,63.3z M73.3,83.6c0.1,0.4-0.8,0.7-0.9,0.2C72.8,83.5,73,83.7,73.3,83.6z
				 M74,85.3c0.2,0.3,0.3,0.5,0.3,0.8c-0.6-0.2-0.8,0.3-1.4,0.4c0.3-0.4,0.5-0.9-0.2-0.3C72.5,85.4,73.8,86.1,74,85.3z M60.2,63.6
				c0.1-0.1-0.3-0.6-0.1-0.5c0.2,0.3,0.2,0.5,0.5,0.9C60.5,64.2,60.2,63.5,60.2,63.6C60,63.5,60.1,63.5,60.2,63.6z M65.6,74.2
				c0.5,0.7-0.6,0-0.4,0.5C64.6,74.5,65.3,74.1,65.6,74.2z M71.3,84.8c0.4,0.5-0.4,0.9-0.6,0.3L71.3,84.8z M69.7,82.2
				c0,0.2,0,0.4,0.2,0.6c-0.5-0.4-1.3,0.5-1.7-0.2C68.6,82.8,69.1,82.5,69.7,82.2z M59.3,63.5c0.1,0.1,0,0.1,0,0.2
				c0,0.2,0.3,0.7,0,0.6C59.2,63.9,59.1,63.5,59.3,63.5z M71.8,87.3c-0.5,0-0.4-0.2-0.9,0.3c-0.2-0.4,0.1-0.5,0.4-0.8
				C71.5,86.8,71.7,87,71.8,87.3z M66.9,79c0.2,0,0.3,0.3,0.4,0.5c-0.2,0.3-0.4,0.8-0.8,0.6c-0.1-0.6,0.4-0.3,0.6-0.7L66.9,79z
				 M69.2,83.7l0.1,0.3c-0.1,0-0.1,0.1-0.1,0.2c-0.2,0-0.5,0-0.8,0.2C68.5,83.9,68.8,84.1,69.2,83.7z M69.7,84.9l0.2,0.4
				c-0.1,0.1-0.2-0.1-0.3-0.2c-0.3,0.2-0.4,0.3-0.4,0.6C68.6,85.5,69.1,84.9,69.7,84.9z M70.6,86.8c-0.1,0.4-0.1,0.8-0.7,1.1
				c-0.2-0.2,0.4-0.7,0-0.5C69.9,87,70.3,86.7,70.6,86.8z M71.1,88.7c-0.1,0.6-0.6-0.2-1,0.3c0.1-0.3-0.2-0.7,0.4-0.9
				C70.6,88.5,70.8,88.9,71.1,88.7z M64.5,77c-0.1-0.3-0.2-0.6,0.1-0.7C64.9,76.6,65,76.8,64.5,77z M66.6,81.4
				c0.5,0.2-0.2,0.8-0.3,1c-0.3,0.1,0-0.5-0.1-0.6c0.1,0,0.2,0.1,0.3,0C66.6,81.7,66.7,81.6,66.6,81.4z M68,84.3
				c0.1,0.4-0.5,0.5-0.5,0.9C67,85.1,67.4,84.4,68,84.3z M63.9,76.5c0,0.2,0,0.4,0,0.7C63.5,77.3,63.4,76.5,63.9,76.5z M66.3,83.1
				c-0.3,0.7,0.4,0.7,0.4,1.3c-0.5-0.1-0.9-0.7-0.9-1.4C65.9,82.9,66,83.1,66.3,83.1z M67.7,87c0.4,0.1-0.5,0.1-0.5,0.5
				c0.3,0.3,0.6,0.5,0.7,0.9c-0.8,0.2-0.6,0.4-0.2,0.8c-0.2,0-0.3-0.3-0.6-0.1c0.1-0.2,0-0.4-0.1-0.7l0.5-0.2
				C67.2,88,67,87.6,66.8,87c0.2,0.1,0.5,0.1,0.5-0.2C67.5,86.8,67.5,87.1,67.7,87z M65.3,82.8c0.2,0.8-1.3,1-1.8,1.2
				c-0.1-0.6,0.8-0.1,0.6-0.9C64.7,83.2,64.6,83,65.3,82.8z M66.5,86.3c0,0.7-0.1,1.4-0.9,1.7C66,87.1,65.7,87.1,66.5,86.3z
				 M64.5,81.5c0.3,0.6-0.2,0.9-0.5,1.2C63.8,82.6,64.4,81.8,64.5,81.5z M67.7,89.8c0.1,0.2-1,0.3-1.2,0.3
				C66.6,89.6,67.5,89.7,67.7,89.8z M58.6,66.1c0,0.3-0.2,0-0.3,0.1c-0.2-0.4,0-0.4-0.1-0.7c-0.4,0.1-0.1,0.3-0.3,0.7
				c-0.1-0.3,0.1-0.3-0.1-0.7l0.5-0.2C58.2,65.8,58.4,65.5,58.6,66.1z M65.2,83.7c-0.2,0.4,0.2,0.4,0.3,0.9
				C65,84.5,64.2,84.1,65.2,83.7z M62.8,78.4c-0.1,0.6-0.4,0.3-0.7,0.6c0-0.2,0.1-0.3,0.1-0.5C62.4,78.3,62.5,78.6,62.8,78.4z
				 M61.7,76.2c0.3,0.1,0,0.8,0,1c-0.3-0.5-0.6,0.4-0.9,0.1C60.9,76.8,61.9,76.9,61.7,76.2z M64.7,87c-0.2-0.3-0.6,0.1-0.7-0.5
				c0.7-0.1,0.2-0.2,0.1-0.7c0.4,0,0.2-0.4,0.3-0.6c0.2,0.1,0.6-0.2,0.6,0.3c-0.9-0.3-0.1,1.2-0.3,1.7C64.6,87.2,64.6,87,64.7,87z
				 M61.5,75.7c0.1,0.3-0.3,0.2-0.2,0.6c-0.2,0-0.2-0.4-0.3-0.6C61.2,75.6,61.3,75.7,61.5,75.7z M61.7,78.9c0.2,0.3,0,0.4,0.1,0.7
				c-0.3-0.1-0.3-1-0.8-0.6C60.9,78.3,61.3,79,61.7,78.9z M63.2,88.1c0.3-0.2,0.8,0.3,0.6-0.3c0.2,0,0.2,0.4,0.3,0.6
				c0.1,0.2,0.3,0,0.5,0c-0.1,0.6-1.7,0.1-1.3,0.7c-0.3,0.1-0.4-0.1-0.7,0c0-0.2,0.3-0.2,0.4-0.3C63.3,88.7,63.3,88.4,63.2,88.1z
				 M60.2,77.1c0.3,0,0.4,0.7,0.9,0.9c-0.4,0.1-0.8,0.3-0.9-0.2C60.8,77.9,60.4,77.7,60.2,77.1z M63.1,87.1c0.2,0,0,0.2,0.1,0.5
				C61.7,87.4,61.9,87.4,63.1,87.1z M57,66.3c0.1,0.6-0.2,0.2-0.3,0.1c0-0.2,0.1-0.3,0.2-0.4C56.9,66.2,56.9,66.3,57,66.3z
				 M55.1,66.9c-0.1,0.2,0.2,0.3,0.2,1c-0.1-0.1-0.4-0.8-0.4-0.3c-0.2-0.1-0.3-0.6-0.4-0.9c0.3-0.3,0.1,0.9,0.4,0.6
				c0.2-0.1-0.1-0.3-0.1-0.6c0.3-0.2,0.5-0.3,1-0.3c0.2,0.3,0,0.2,0.1,0.6c0.2-0.1-0.1-0.8,0.2-0.7c0,0.5,0.4,0.4,0.2-0.1
				c0.1-0.1,0.2,0.2,0.3,0.1c0.1,0.4,0.1,0.6,0.1,0.8c-0.2,0.2-0.3-0.3-0.5-0.2c-0.1,0.1,0.1,0.5,0,0.7c-0.1,0-0.1-0.3-0.2-0.5
				c-0.1,0.2,0,0.7-0.3,0.5c-0.1-0.5,0.1-0.7-0.1-1C55.4,66.8,55.4,67.4,55.1,66.9z M59.7,79.6c-0.1,0.4-0.9,0.2-0.9,0.7
				c-0.5-0.3-0.3-0.5-0.7-0.1c-0.1-0.1-0.2-0.3-0.2-0.6c0.2,0.1,0.4,0.1,0.8,0C59,79.7,59.3,79.6,59.7,79.6z M61.8,88.4
				c-0.1,0.2,0,0.6-0.1,0.9c-0.4,0.3-0.6-0.5-0.7,0c-0.2,0-0.2-0.4-0.3-0.6c0.3,0.3,0.7-0.4,0.2-0.4C61.1,87.8,61.5,88.6,61.8,88.4z
				 M60.8,87.5c0.5,0.1-0.1,0.6-0.5,0.6l-0.1-0.5C60.5,87.4,60.8,87.9,60.8,87.5z M60.1,88.3c0.1,0.3-0.4,0.3-0.2,0.7
				c-0.3-0.4-1-0.2-1.2-0.6C59.2,88.1,59.5,88.6,60.1,88.3z M59.5,85.8c-0.2,0.2,0.1,0.8-0.1,1c-0.4-0.2,0-0.6-0.3-0.9L59.5,85.8z
				 M59.8,91.8c-0.6,0.7-1.8,0.1-2.2,1c-0.2,0-0.2-0.3,0-0.3c-0.1-0.2-0.2-0.1-0.2,0c-0.7-0.6,0.7-1.1,0.1-1.7
				c0.8-0.1,0.1,0.7,0.3,1.1c0,0.1,0.2,0.1,0.2,0.3C58.5,91.8,59.2,91.8,59.8,91.8z M57.8,81.8c0.1,0.4-0.1,0.6-0.4,0.6
				C57.2,82,57.4,81.8,57.8,81.8z M57.5,86.5c-0.5,0.1-1-1-0.3-0.9C57.2,86,57.5,86,57.5,86.5z M56.8,82.2c0.1,0.5-0.2,0.7-0.1,1.3
				C56.4,83.3,56.3,82.1,56.8,82.2z M55.9,87.8c0.3,0.2,1.2-0.3,1.7,0.1c-0.3,0.9-1-0.2-1.8,0.2c-0.3-0.5,0.6-0.8-0.1-0.8
				c0.1-0.1,0.1-0.3,0.1-0.5c0.1,0.1,0.3,0.2,0.3,0c0.2,0,0.2,0.4,0.2,0.6C56,87.5,55.9,87.6,55.9,87.8z M55.2,87.1
				c0.2-0.2,0.1-0.8,0.7-0.7C55.9,86.8,55.7,87.1,55.2,87.1z M54.2,66.7l0.1,0.5c-0.1,0.1-0.2-0.1-0.2-0.3C54,67,54,67.4,54,67.7
				c-0.3-0.3-0.7-0.2-0.8-0.9c0.2,0.1,0.2,0.3,0.4,0.3c-0.3-0.6-0.2-1-0.5-1.1c0.1-0.7,0.4,0,0.6-0.3c-0.2,0.4-0.1,0.3-0.1,1
				C53.8,66.6,53.9,67,54.2,66.7z M55.2,75.4c0,0.5-0.3-0.2-0.5,0.1c0-0.1,0.1-0.2,0.1-0.3c-0.2,0-0.2,0.2-0.2,0.5
				c-0.1-0.3-0.5-0.5-0.3-0.8c0.2,0.2,0.5,0.1,0.7,0.1C55,75.1,55,75.4,55.2,75.4z M55.6,80.4c-0.1,0.2,0,0.6-0.4,0.6
				c-0.1-0.3,0.3-0.6-0.1-0.6C55.1,79.9,55.5,80.4,55.6,80.4z M54.6,76.1c0.1,0.5-0.3,0.3-0.1,1c-0.4-0.3-0.2-0.6-0.2-1.1
				C54.4,76,54.5,76.1,54.6,76.1z M54.4,75.8c-0.1-0.1-0.3-0.2-0.4-0.1l0-0.6C54.1,75,54.3,75.4,54.4,75.8z M54.4,80.8
				c0-0.3-0.2-0.3-0.2-0.6c-0.2-0.1-0.4,0.5-0.5,0c0-0.8,0.5,0,0.8-0.2c0.1,0.3-0.3,0.7,0.1,0.8c-0.5,0.2-0.6,0.7-1.2,0.9
				C53.6,81.1,54.1,81,54.4,80.8z M54.3,84c0,0.3-0.5,0.1-0.7,0.2l0-0.6c0.3-0.1,0.3,0.2,0.3,0.5L54.3,84z M52.8,84.4
				c0.2-0.1,0.4-0.2,0.7-0.2c0.1,0.8,0.3,0.9,0.2,1.6c-0.5,0.1-0.8-0.1-1.1-0.3c0.1-0.4,0.5-0.4,0.7-0.7c-0.2-0.2-0.6-0.2-0.6-0.6
				C52.8,84,52.8,84.3,52.8,84.4z M53.2,83.8c-0.5-0.2-0.4-0.1-0.7-0.5l0.8-0.5C53.6,83.2,53,83.2,53.2,83.8z M52.1,70.5
				c-0.2,0.1-0.1-0.5-0.3-0.5c-0.2,0.3,0.3,0.9-0.3,1c0.1-0.5,0-0.5,0-1.1C51.9,69.9,52.1,69.9,52.1,70.5z M50.6,71.8
				c0.1,0.4-0.3,0.7,0,0.8c0,0.2-0.2,0.1-0.3,0.1c0-0.1,0-0.2-0.1-0.2C50.5,72.6,50.3,71.7,50.6,71.8z M50.4,71.2c0.2-0.6,0-0.4,0-1
				C50.6,69.9,50.7,71.3,50.4,71.2z M49.9,70.6c0.2,0.2-0.1,0.8-0.3,0.8C49.5,70.8,49.8,70.9,49.9,70.6z M49.1,71.8
				c-0.1-0.1-0.2-0.3-0.1-0.3c0-0.2-0.2-0.1-0.3-0.2c0-0.4,0.2-0.4,0.4-0.5C49.4,71.1,49.4,71.4,49.1,71.8z M49.4,70.3
				c0,0.2-0.5,0-0.4-0.5c0.1-0.1,0.2-0.2,0.4-0.1C49.3,69.9,49.2,70.3,49.4,70.3z M47.8,82.2c0.2,0.2,0.1,0.6,0.3,0.8
				c0,0.3-0.4,0.1-0.4,0.5c-0.4-0.3,0-0.5-0.2-0.8l-0.9-0.1c0-0.3,0.3-0.4,0.1-0.5C46.9,81.9,47.3,82.5,47.8,82.2z M48.8,70.8
				C48.7,71,48.5,71,48.3,71c-0.1-0.3-0.3-0.7,0-1.2C48.8,69.9,48.4,70.6,48.8,70.8z M48.5,72c-0.2,0.3-0.1-0.4-0.5-0.1
				c0.1-0.6,0.5-0.4,0.6-0.9C48.9,71.7,48.2,71.8,48.5,72z M48.3,72.7c-0.5,0.3,0.3,1.1-0.4,1.1c0.3-0.4-0.1-0.7-0.2-0.2
				c-0.1-0.4,0.3-1.1,0.5-1.2C48.2,72.5,48.2,72.6,48.3,72.7z M46.6,71.1c-0.4-0.2-0.9-0.3-0.7-1.1c-0.1,0.5,0.4,0.3,0.4,0.8
				c0.2-0.5,0.1-0.4,0.4-0.4C46.8,70.5,46.5,70.7,46.6,71.1z M47.2,70.2c-0.1,0.2-0.2,0.4-0.1,0.6c0.2-0.4,0.6-0.1,0.7-0.7
				c0.2,0.1,0.1,0.8,0.2,1c-0.3,0.5-0.9,0.2-1.2,1c-0.2-0.2-0.1-0.7-0.3-0.7C46.7,71,46.8,70.2,47.2,70.2z M46.7,75.4
				c-0.2,0.4,0,0.3-0.2,0.8c-0.4-0.1,0-0.9-0.1-1.2C46.5,74.6,46.5,75.4,46.7,75.4z M45.3,83c0,0.4-1.3,0.4-1.1-0.2
				C44.6,83.2,44.8,82.6,45.3,83z M45.9,75.1c-0.2,0.4-0.6,0.3-0.9,0C45.4,74.6,45.5,75.1,45.9,75.1z M45.1,72.2l0.5,0.1
				c-0.1,0.4,0.1,0.4-0.1,0.6c-0.1,0,0-0.2,0-0.3c-0.2-0.1-0.2,0.1-0.4,0.1c-0.1,0.2,0,0.3,0,0.3C44.6,73.5,45,72.6,45.1,72.2z
				 M45.4,70c0,0.2,0,0.5-0.1,1c-0.2-0.7-0.3-0.3-0.8-0.2c0.1-0.5,0.4-0.5,0.4-0.2c0.1-0.5,0.2-0.5,0.3-0.9
				C45.5,69.5,45.1,70.5,45.4,70z M40.9,85c0.1,0.6-0.8,0.7-1,0.9c-0.2-0.1,0-0.4,0-0.7C40.4,85.4,40.7,85.3,40.9,85z M44.3,72.5
				c-0.2,0.3,0,0.2-0.2,0.6l-0.4-0.1c0.7-0.4-0.3-0.5,0.2-1C44,72.3,44,72.6,44.3,72.5z M44.1,70.5c0.4-0.2,0.1-0.8,0.6-0.7
				c-0.1,0.5-0.3,0.6-0.4,1.2c-0.3-0.3-0.4,0.3-0.6,0.2c0.4-0.3,0.2-1.5,0.7-1.3C44.4,70.2,44.3,70.1,44.1,70.5z M40.4,81.7
				c0-0.5-0.5,0.3-0.8,0.1c0.4-0.5-0.6-0.2-0.2-0.8c0.4,0.4,0.9,0.4,0.8-0.4c0.3,0.3,0.5,0.7,0.6,1.2c-0.5-0.4-0.5,0.4-0.9,0.2
				C40.1,81.8,40.2,81.7,40.4,81.7z M42.6,72.3c0.1-0.1,0.2-0.5,0.4-0.7c0.1,0.5,0.3-0.1,0.6,0c0,0.1,0,0.3,0.1,0.4
				c-0.3,0.5-0.9,0-1.2,0.8c-0.3-0.2-0.5-0.5-0.8-0.7c0.1-0.2,0.6,0,0.2-0.3C42.2,71.4,42.7,71.7,42.6,72.3z M40,83.4
				c-0.1,0.4-0.8,0.2-0.9-0.1C39.3,83,39.7,83.5,40,83.4z M44.5,68.1c-0.1,0.4-0.3,0.2-0.5,0.1C44.2,67.6,44.3,67.9,44.5,68.1z
				 M43.7,70.4c-0.1,0.3-0.2,0.4-0.3,0.6c-0.1-0.1,0-0.3-0.1-0.4c-0.2,0.4,0,0.4-0.2,0.6c-0.2-0.2-0.5,0.1-0.5-0.2
				c0.4-0.5,0.2-0.1,0.3-0.8C43.3,70.1,43.3,70.4,43.7,70.4z M40.8,74.3c-0.2-0.2-0.3,0.2-0.5,0.1c-0.2,0.3,0.3,0.2,0.4,0.3
				c-0.1,0.6-0.7,0.1-0.7-0.1c0.4-0.5,0.2-0.7-0.2-0.6c0.2-0.5,0.5-0.3,0.7-1c0,0.3,0.2,1,0.6,0.2c-0.1,1.2,0.6-0.5,0.4,0.7
				c0.1,0,0.3-0.1,0.4-0.4c0.1,0.2,0.2,0.4,0,0.9c-0.1-0.4-0.5-0.2-0.4,0.2C41.5,74.6,41,74.5,40.8,74.3z M41.2,76.2
				c-0.2,0.2-0.3,0-0.2-0.2c-0.2,0-0.3,0.4-0.5,0.1c0.1-0.4,0.2-0.6,0.4-0.7l0.3,0.1C41.3,75.6,41,76.1,41.2,76.2z M38.3,82.7
				c-0.2,0.1-0.3,0.3-0.4,0.7c-0.3,0-0.3-0.2-0.5-0.4c0.3-0.4,0.6,0,0.6-0.6C38,82.5,38.1,82.6,38.3,82.7z M42.5,71.1
				c-0.1,0.3-0.3,0.3-0.5,0.2c0.1-0.3,0-0.4,0.2-0.6C42.5,70.6,42.4,71,42.5,71.1z M38.3,81.8c-0.6,0.5-1.4-0.4-1.2-0.8
				c0.6,0.1,0.7,0.4,0.7,0.8C38,81.8,38.1,81.7,38.3,81.8z M42.7,70c0.2,0.2-0.2,0.3-0.2,0.6c-0.2-0.1-0.4-0.2-0.2-0.6
				c0.1,0,0.1,0.2,0.2,0.2C42.5,70.2,42.6,70.1,42.7,70z M40.3,76c-0.3-0.3-0.2-0.6,0.2-0.8C40.7,75.3,40.5,75.8,40.3,76z
				 M36.7,84.8c-0.9-0.2-0.3,0.8-0.4,1.4c-0.5-0.4-0.9-0.8-1.5-1.1c-0.2,0-0.4,0.4-0.2,0.4c-0.1,0.2-0.5-0.2-0.6,0.1
				c0-0.3-0.1-1.4-0.5-0.4c-0.5-0.5,0.2-0.3,0.4-0.7c0.1-0.3-0.5,0-0.5-0.4c-0.2,0.2,0,0.3,0.1,0.4c-0.2,0.2-0.6,0-0.9-0.1
				c0.5-0.8,1.4-0.5,2.1-0.4c0-0.2,0-0.3,0.1-0.5c-0.1-0.3-0.4-0.5-0.5-0.8c0.8-0.2,0.9,0.8,0.5,1.5c-0.2,0-0.4,0-0.6-0.1
				c0,0.2,0.1,0.4,0.1,0.6c0.4-0.5,1.1,0,1.7,0c0-0.2-0.3-0.3-0.1-0.6c-0.2,0-0.2,0.2-0.3,0.4c-0.3-0.1-0.3-0.3-0.5-0.4
				c0.1,0.5,0.9-0.8,0.2-0.4C36.1,83.4,36.3,84,36.7,84.8z M37.6,82.6c-0.1,0.1-0.2,0.2-0.3,0.4c-0.4-0.1-0.2-0.5-0.2-0.8
				C37.4,82.2,37.4,82.4,37.6,82.6z M34.8,89c-0.1,0.3-0.9,0.3-0.5-0.2c-0.1,0-0.2,0.1-0.4,0c-0.3,0.4,0.2,0.6,0.4,0.9
				c-0.4,0.3-0.6-0.5-1.2-0.5c0.7-0.7-0.4-0.6-0.4-0.9C33.2,87.8,34.5,88.7,34.8,89z M41.6,71.1c-0.2,0.6-0.6,0.2-0.8,0.7
				c-0.4-0.3-0.3-0.2-0.5-0.5c0.3-0.5,0.3,0,0.6,0.1c0.2-0.4,0-0.4,0-0.6C41.1,70.8,41.3,71.2,41.6,71.1z M41.9,70.5
				c0.2,0.6-0.5,1.3-0.6,2c-0.1,0,0-0.2,0-0.3c-0.2-0.1-0.3,0.1-0.4,0c0.1-0.1,0.2-0.2,0.1-0.3C41.6,71.9,41.6,71,41.9,70.5z
				 M38,80.7c-0.3,0.5-0.8,0-0.4-0.5C37.8,80.3,37.9,80.5,38,80.7z M39.4,76.1c-0.1,0.4-0.4,0.4-0.6,0.3C38.9,76,39.1,76,39.4,76.1z
				 M41.3,70.6c-0.2-0.5-0.6,0.3-1,0c0.1-0.2,0.1-0.4,0.1-0.5c0.3-0.1,0.3-0.2,0.4-0.7c0.3,0,0.7-0.2,0.5,0.3c0.1,0,0.3-0.4,0.2-0.4
				c0.5-0.3,0.4,0.5,0.2,1C41.4,70.1,41.6,69.9,41.3,70.6z M39.6,75.4c-0.1,0.2-0.4,0.2-0.6,0.2c-0.2,0-0.4-0.1-0.4-0.2
				C38.8,75.2,39.1,75.1,39.6,75.4z M36.8,81.4c-0.8,0.5-0.6-0.5-0.6-1.1C36.6,80.6,36.3,81.1,36.8,81.4z M39.6,73.6
				c0,0.6-0.7,0.4-0.9,0.1c0.3-0.3,0.3-0.2,0.5-0.7C39.4,73.1,39.3,73.9,39.6,73.6z M41.4,68.9c0.1-0.3-0.3-0.2-0.2-0.5
				c0.3-0.5,0.3,0.2,0.7,0.2c-0.2,0.1-0.5,0.4-0.7,0.7C40.9,69.1,41.3,68.8,41.4,68.9z M39.7,72.2c-0.2-0.2-0.2-0.6-0.1-1
				C40,71.1,40,71.7,39.7,72.2z M38,74.6L37.8,75c-0.2-0.3-0.9,0.1-0.8-0.4C37.2,74.3,37.5,74.4,38,74.6z M40.8,68.9
				c-0.2,0-0.4,0.9-0.6,0.6C40.4,69.1,40.6,68.8,40.8,68.9z M40.3,68.7c0.3-0.4,0.1-0.4,0.3-0.7C40.9,68,40.7,68.9,40.3,68.7z
				 M38,73.3c-0.4-0.4-0.8,0.4-1.4,0.4c0.1-0.5,0.9-0.7,1.3-0.9C38.2,72.8,37.8,73.2,38,73.3z M32.2,79.3c-0.1,0.1-0.2,0-0.3,0
				c0,0.2,0.1,0.4,0.3,0.6C32,80,31.8,80,31.5,79.8c-0.1,0.3,0.6,0.5,0.2,0.9c0.3-0.2,1.1-0.4,1-0.7c0.8-0.1-0.4,1.3,0.5,1.6
				c-0.1,0.3-0.3,0.3-0.5,0.5c-0.4-0.1-0.2-1-0.7-0.4c-0.3-0.7-0.8-0.5-0.9-1.2c-0.2-0.1-0.3,0.2-0.4,0.3c0-0.9-2.2-0.8-1.9-1.9
				c-0.5,0.4-0.7-0.4-1,0c-0.3-0.9-1.3-0.8-1.9-1.8c0.1-0.1,0.2,0,0.3-0.1c0.1,0.1,0.2,0,0.2,0c-0.2,0.9,0.8,0.4,1.3,0.6
				c-0.1,0.5,1,1.4,1.7,1.2c-0.3-0.1-1.1-0.7-0.5-1.5c0.2,0.2,0.1,0.4,0.4,0.5c0.1-0.2-0.3-0.4,0.2-0.7c0.6,0.4-0.1,1,0.2,1.4
				c0.3-0.3,0.7-0.3,1-0.7c0.4,0.1,0.2,0.9-0.2,0.5c-0.2,0.2,0.5,0.7,0.6,0.2c-0.1,0.5-0.1,0.4,0.2,0.7C31.6,79.3,31.9,79,32.2,79.3
				z M32.9,79.6c0.2-0.3-0.2-0.4,0.1-0.7c0.3,0.1,0.3,0.3,0.4,0.4c-0.2,0.4-0.4,0.3-0.7,0.3C32.6,79.4,32.8,79.5,32.9,79.6z
				 M28.8,87c-0.9,0.6-0.5-0.9-0.5-1.3C29.3,86,28,86.7,28.8,87z M37.2,72.7c-0.2-0.1-0.1-0.3,0-0.2c0.1-0.5-0.5,0-0.4-0.4
				c0.2-0.2,0.4-0.1,0.6,0C37.3,72.3,37.4,72.4,37.2,72.7z M26.8,84.5c-0.3,0.4-1.6,0.4-1.1-0.3C26.2,84.7,26.4,83.9,26.8,84.5z
				 M22.8,69.4c-0.5,0.2-0.5-0.3-0.6-0.6C22.6,68.6,22.6,69.2,22.8,69.4z"/>
			<path class="st1" d="M38.4,70.4L38,70.9c-0.2-0.2-0.3,0.1-0.5-0.1c0.1-0.5,0.6-1.2,0.6-1.6c0.1-0.1,0.3,0.5,0.3,0.8
				c-0.2,0.5-0.4,0-0.6,0.6C38,71,38.2,70,38.4,70.4z"/>
			<path class="st1" d="M53.3,38c0-0.1,0-0.1,0.1-0.2c-0.1,0.2,0.2,0,0.1,0.8l-0.3-0.1C53.2,38.4,53.4,38.2,53.3,38z"/>
			<path class="st1" d="M56.8,46.9c-0.2,0-0.2,0.1-0.5,0.1l0-0.2C56.8,46.7,57.3,46.9,56.8,46.9z"/>
			<path class="st1" d="M57.8,50.9c0.2,0.1,0.6,0.4,0.1,0.4C58,51.3,57.4,50.9,57.8,50.9z"/>
			<path class="st1" d="M58.8,52.6c0.6,0.3-0.1,0.1-0.2,0.1c-0.5-0.2,0.1-0.3-0.3-0.5c0.5,0,0.3,0.3,0.4,0.4
				C58.8,52.7,58.8,52.6,58.8,52.6z"/>
			<path class="st1" d="M58.2,54.7c0.2,0,0.4,0.3,0.3,0.4c0.3,0.2,0.3,0.1,0.3,0.1c0.1,0.2,0,0.4-0.3,0.2c-0.2-0.2,0-0.3-0.6-0.7
				C57.9,54.6,58.5,54.9,58.2,54.7z"/>
			<path class="st1" d="M89.3,78.2c0.7-0.2-1,0.8-0.7,0.9C87.8,79.4,89,78.1,89.3,78.2z"/>
			<path class="st1" d="M86.9,81.5c0.6,0.3-0.7,0.6-0.7,1.2c-0.7,0.5,0.2-0.8-0.4-0.3c0.5-0.6,1.4-1.4,2.7-2.9
				c0.3,0.6-0.5,0.6-0.4,1.2C87.8,81.1,87.3,81.5,86.9,81.5z"/>
			<path class="st1" d="M59.4,59.2c-0.1-0.1-0.2-0.2-0.3-0.2c0.1-0.1,0-0.4,0.3-0.4c0.3,0.4-0.2,0.3,0.1,0.7
				C59.4,59.3,59.4,59.2,59.4,59.2z"/>
			<path class="st1" d="M59.7,59.5c0.4,0.6-0.3,0.3-0.3,0.7c-0.3-0.3-0.1-0.3-0.3-0.6c-0.1,0,0,0.2,0.2,0.5
				c-0.4-0.2-0.3,0.1-0.6-0.2c-0.4-0.8,0.5,0.2,0.4-0.3c-0.2-0.2-0.2-0.2-0.3-0.2c-0.1-0.3,0.2-0.2,0.6,0.2c0-0.1,0-0.2-0.1-0.4
				c0.1,0,0.4,0.4,0.3,0.1c0.1,0.1,0.1,0.2,0.2,0.3C59.8,59.7,59.8,59.6,59.7,59.5z"/>
			<path class="st1" d="M58.9,61.1c0.1,0.1,0.1,0.2,0,0.2c-0.1,0-0.3-0.1-0.3-0.1C58.4,60.6,58.9,61.4,58.9,61.1z"/>
			<path class="st1" d="M55.1,90.5c0.1-0.5,0.2,0.5,0.6,0.1c0-0.3-0.2-0.3-0.2-0.6c0.1,0,0.2,0.1,0.2,0.2c0.1,0.2,0.3,0.1,0.3,0
				c0.3,0,0.1,0.6,0.2,0.8C55.9,90.6,55.1,91,55.1,90.5z"/>
			<path class="st1" d="M56.2,91.1c-1-0.2-2.2,1.1-2.7,0.3c1,0.1,0.8-0.5,0.9-0.9C55,90.8,55.6,91.2,56.2,91.1z"/>
			<path class="st1" d="M53.1,91.4c-0.5,0.6-1.6-0.1-1.6,0.7l-1,0c-0.1-0.6,0.8-1.1-0.3-1.1c0.2-0.4,1,0,1.4-0.1
				c0,0.2-0.5,0.1-0.5,0.3c0.3,0.5,0.7-0.2,1.3,0c-0.6-0.3-0.5-1,0-1.1C52.4,90.6,52.3,91,53.1,91.4z"/>
			<path class="st1" d="M52.2,99c-0.9,0.5-1.8-0.5-2.9-0.4c0,0.6,1.1,0.2,1.3,0.7c-1,0-2.4-0.2-3.3-0.8c0.7,0.1,1.7,0.8,1.8-0.2
				C50.5,98.4,51.3,98.9,52.2,99z"/>
			<path class="st1" d="M50.5,84.8c0.7,0,0.7,0.9,1.2,1.2c-0.3,0.5-0.8-0.2-1.3,0.5C50.2,85.6,50.4,85.6,50.5,84.8z"/>
			<path class="st1" d="M51.5,84.3c-0.2,0-0.1-0.3-0.1-0.5c-0.4,0.1-0.6,0.5-1.1,0.1c0-0.7,0.6,0.2,0.5-0.5
				C51.2,83.6,51.9,83.8,51.5,84.3z"/>
			<path class="st1" d="M47.2,93.2c0.2-0.2,0.8,0,0.9-0.4c0.4,0.3,1.3,0.6,1.5-0.1c0.4,0.1,0.3,0.7,0.6,0.8c0,0.2-0.9,0.3-0.3,0.5
				c-0.1,0.4-0.3-0.2-0.7,0c0.1-1-0.7-0.3-1.1-0.7c-0.1,0.4-0.9,0.7-1,0.1c-0.3,0-0.2,0.5-0.4,0.6c-1-0.5-1.4-0.1-2.5-0.7
				c0.3-0.1,1.2-0.2,0.4-0.6c0.1-0.4,0.4,0.3,0.8,0.1c-0.9-0.7,1.1,0.1,1.2-0.5c-0.3-0.4-1.4,0-0.8-0.8c-0.5-0.2-0.3,0.3-0.4,0.6
				c-0.8-1-2.6,0-3.3-0.8c-0.2,0-0.2,0.4-0.3,0.6c-0.2-0.2-0.6-0.3-0.4-0.7c-1,0.4-0.9-0.7-2.3-0.6c0.3,0.6-0.4,0.9-0.6,1.4
				c-0.3-0.1-0.1-0.5-0.6-0.5c0.7-0.1,0.6-0.4,0.5-1c-0.4,0.1-0.5,0.7-1.2,0.3c0.6-0.3,0.3-0.3,0.3-0.9c1.4,0.9,4,0.2,4.7,1.4
				c1.1-0.5,3.1-0.4,3.9,0.6c0.5-0.1,0.2-0.2,0.2-0.6c0.8,0.7,1.7,0,2.2,0.5c0.2-0.5,1-0.3,1.1-0.4c0.3,0.5-1.1,0.4-1.2,1.1
				c-0.5-0.5-1.3-0.2-1.9-0.1c-0.1,0.8,0.6,0.2,0.8,0.5C48,93.2,46.9,92.3,47.2,93.2z"/>
			<path class="st1" d="M50.4,79.9c0,0.4,0,0.6-0.1,0.8c-0.4,0.1-0.3-0.5-0.6-0.5C49.8,79.8,50.1,79.7,50.4,79.9z"/>
			<path class="st1" d="M49.5,77.3l0,0.3l-0.3,0c0-0.1,0.1-0.2,0.1-0.3c-0.3,0-0.4,0-0.5-0.2c0-0.5,0.3-1.1,0-0.8
				c-0.3-0.6,0.5-0.9,0.6-0.3c0,0.2-0.2,0.1-0.3,0.1C49.1,76.5,49.1,77.1,49.5,77.3z"/>
			<path class="st1" d="M49.1,79c0.2,0.1-0.3,0.6-0.4,0.8c-0.1,0.4,0.5,0.2,0.3,0.7c-0.3-0.2-0.3,0.2-0.6,0.1
				c-0.1-0.7,0.1-1.3-0.2-1.6c0.1-0.2,0.2-0.2,0.3-0.5c0,0.2,0.1,0.6,0.5,0.7C49.1,79.2,49.1,79.1,49.1,79z"/>
			<path class="st1" d="M45.3,88.7c0.6,0.1,0.1-0.1,0.2-0.5c0.5,0.5,1.6,0,2.4,0.1c0.3,0,0,0.7,0.1,1c-0.7,0.1-0.8,0-1.4,0.1
				l0.1-0.5c-0.4,0.4-0.7,0.3-1.1,0.3c0.1,0.2,0.3,0.2,0.3,0.5c-0.9,0.1-0.4-1-0.6-1.1C45.2,88.5,45.3,88.6,45.3,88.7z"/>
			<path class="st1" d="M45.9,94.1c0.6,0.2,1.8-0.2,1.7,0.6c-0.3-0.1-0.9,0.1-0.6-0.4c-0.3,0.2-0.5,0.6-1.1,0.5
				c0.1,0.3,0.6,0.4,0.8,0.6c-0.2,0.2-0.5,0.3-0.9,0.2C45.3,94.9,46.2,94.7,45.9,94.1z"/>
			<path class="st1" d="M46.2,85.4c-0.1,0.1-0.5,0.1-1,0c0.8-0.2,0.1-0.5-0.3,0c-1.6-0.5,0.5-0.6,1.1-0.6
				C46.2,84.9,45.9,85.4,46.2,85.4z"/>
			<path class="st1" d="M47.6,70.6c0.4,0.4-0.6,1-0.7,0.7C47.1,71,47.5,71.1,47.6,70.6z"/>
			<path class="st1" d="M40.8,97.2c0.2,0.1,0.1,0.2,0,0.2c0.6,0.5,1.3,0.2,1.9,0.3c0,0.3-0.2,0.3-0.4,0.3c0.4,0.5,1.5,0.2,1.6-0.2
				c0.3,0.3-0.3,0.7,0,1.1c-1.7-0.7-2.3-0.3-3.7-1.1C40.3,97.4,40.7,97.5,40.8,97.2z"/>
			<path class="st1" d="M43.8,88.8c-0.2,0.4-0.9-0.2-0.4-0.4l-0.3-0.1C43.4,88,43.7,88.7,43.8,88.8z"/>
			<path class="st1" d="M41.8,93.3c0.3,0.5-0.6-0.2-1-0.2c-0.1-0.2,0-0.5-0.2-0.6c0.4-0.1,0.6,0.2,1-0.3
				C42.3,92.4,40.9,93.1,41.8,93.3z"/>
			<path class="st1" d="M42.1,88c0.5,0-0.1,0.8,0.5,0.8c-1.4,0.3-1.7-0.5-3.2-0.5C40.2,87.2,41.2,88.8,42.1,88z"/>
			<path class="st1" d="M43.3,79.8c-0.2,0.4-0.7-0.1-1,0.2C42.1,79.7,42.9,79.7,43.3,79.8z"/>
			<path class="st1" d="M40.2,91.9c0.1-0.1,0-0.2-0.1-0.2c0.9-0.1-0.4,0.6-0.7,0.6C38.9,92,39.9,91.9,40.2,91.9z"/>
			<path class="st1" d="M44.5,64.4C44.4,64.6,44.4,64.5,44.5,64.4c-0.2,0.1-0.3,0.3-0.4,0.2c0-0.3,0.1-0.2,0.3-0.6l0.2,0.1
				C44.5,64.3,44.5,64.4,44.5,64.4z"/>
			<path class="st1" d="M40.3,67.4c0.2,0.4-0.8,0.3-0.8,1.2c0.1-0.6,0.2-1.2,0.6-1.9c0.2,0.2,0.4-0.1,0.6,0.2
				c-0.2,0.2-0.4,0.1-0.6,0.4c0,0.1-0.1,0.3,0,0.4C40.1,67.6,40.2,67.5,40.3,67.4z"/>
			<path class="st1" d="M27.5,89.2c-0.6-0.6-0.6,0.7-1.3-0.1c0.1-0.1,0.3,0,0.4,0.1c0.1-0.4-0.9-0.7-0.5-1.1
				c0.1,0.2,0.3,0.5,0.7,0.7c0.5-0.5-0.2-1,0.4-1.3c0.1,0.2,0.2,0.3,0.4,0.4C26.8,88.2,27.9,88.6,27.5,89.2z"/>
			<path class="st1" d="M39.9,66.7c-0.2,0.3-0.4,0.5-0.7,0.7c0-0.5-0.3-0.4-0.7-0.6c0.2-0.3,0.4-0.4,0.5-0.3c0.1-0.1,0.1-0.1,0-0.2
				C39.2,66.6,39.8,66.6,39.9,66.7z"/>
			<path class="st1" d="M27.8,82.4l-0.3,0.4c-0.1-0.5-0.8,0-1.3-0.8c0.1-0.1,0.3,0.1,0.5,0.2c0.1-0.1,0-0.2,0-0.2
				C26.9,82.1,27.3,82.1,27.8,82.4z"/>
			<path class="st1" d="M38.2,67.1c0,0.1,0,0.2,0,0.2c-0.1,0.2-0.2,0.2-0.4,0.3c-0.1,0,0.1-0.2,0.1-0.3c-0.1-0.1-0.4,0.3-0.5,0
				l0.3-0.4C37.9,67.2,37.8,67.4,38.2,67.1z"/>
			<path class="st1" d="M35.5,71c-0.3-0.1-1.4,0-1-0.8C35.1,70.3,34.9,70.8,35.5,71z"/>
			<path class="st1" d="M36.7,68.6c-0.5,0.3,0.1-0.7-0.4-0.1c0.1-0.3-0.4-0.4,0.1-0.6c-0.4-0.1-0.7-0.1-1-0.2
				C35.7,67.4,37.1,67.6,36.7,68.6z"/>
			<path class="st1" d="M24.5,83.1c-0.1-0.1-0.1-0.2,0-0.2c0.2-0.2-0.7-0.7-0.9-0.1c-0.1-0.2,0.1-0.3-0.1-0.5
				c-0.5-0.3-0.1,0.4-0.4,0.5c-0.6-0.3,0.3-0.6,0.1-1c-0.7-0.2-0.2-0.5-0.8-0.9C23,81,24.9,82.1,24.5,83.1z"/>
			<path class="st1" d="M22,85.2c-0.4-0.3-0.8-0.8-1.1-0.5c-0.2-0.3-0.1-0.5,0.2-0.5c-1.4-0.3-1.7-1.1-2.5-2.1
				c0.9,0.5,1.8,1.2,2.7,2.1c0.1-0.1,0.2-0.2,0.1-0.4C21.6,83.9,22.3,84.9,22,85.2z"/>
			<path class="st1" d="M31.4,70c0,0.4-0.5,0.3-0.4,0.5c-0.3-0.1-1-0.5-0.4-0.9c-0.2-0.1-0.4,0.3-0.6-0.1
				C30.6,69.1,30.9,69.9,31.4,70z"/>
			<path class="st1" d="M22.3,77.8c-0.4-0.4,0.6-0.8,0.1-1.3C23,76.3,23,77.4,22.3,77.8z"/>
			<path class="st1" d="M20.3,78.7c0.6-0.1,0.4,0.7,0,1c-0.3-0.2-0.1-0.3,0-0.5c-0.1-0.1-0.2-0.1-0.2,0
				C19.7,78.8,20.7,79.2,20.3,78.7z"/>
			<path class="st1" d="M16.3,79.1c0.6,0.4-0.3,0.9-0.8,1.6c-1.1-0.9-2.2-2.7-2.9-3.2C13.8,77.5,15.5,80,16.3,79.1z"/>
			<path class="st1" d="M16.4,77.6c-0.1,0.5-0.3-0.7-0.3-0.9c0.5-0.3,0.1,0.7,0.5,0.3C16.7,77.2,16.2,77.3,16.4,77.6z"/>
			<path class="st1" d="M13.7,75c-0.5,0.5-0.2,0.9,0.2,1.4c0.5,0.5,1.2,1.1,1.6,1.9c-0.8,0.1-0.8-1.3-1.4-1.1
				c-0.4,0.4,0.8,0.3,0.3,0.7c-1.1-0.6-1.6-1.5-2.1-2.5c-0.4-1-0.8-1.9-1.6-2.6c-0.2-0.3-0.2-0.6,0.2-0.7c-1-0.8-1.5-2.4-2.2-3.8
				c0.5,0.6,1.3,1.7,2.1,2.9c0.4,0.6,0.7,1.2,1,1.8c0.3,0.6,0.5,1.2,0.5,1.7C12.7,75.2,13.2,75.2,13.7,75z"/>
			<path class="st1" d="M14.5,72.8c0.1,0.3-0.2,0-0.4,0.3c0.2,0.5,0.5,0.1,0.7,0.2c0.1,0.2-0.2,0.3-0.1,0.5c0.3-0.3,1.5,1.6,0.9,1.7
				c0.4,0.7,0.9,0.1,1.3,0.9c-0.6,0.2-0.5-0.5-1,0.3c-0.7-0.8-0.7-1.4-0.8-2c-0.2-0.4-0.3,0.3-0.1,0.5c-0.2,0.2-0.9-0.8-0.3-0.8
				c-0.9,0.1-0.9-1.1-1.6-1.7c0.4-0.5,0.6,0.1,1-0.2C13.9,72.6,14.1,73,14.5,72.8z"/>
			<path class="st1" d="M16.3,64.9c0.2,0.1,0.4,0.1,0.6,0.1c-0.9,0.3,0.2,0.9-0.4,1.5c0.1,0.1,0.2,0.1,0.3,0.2
				c0.3-0.5,0.7,0.5,1.2-0.2c-0.1,0.7-0.6,0.6-1.2,1.3c-0.2-0.6-0.5-2-1.1-2c-0.8,0.2,0.2,2.1,0.8,1.7c0.1,0.7-0.4,0.5-0.9,0.6
				c0.2-0.3-0.7-2.1-1.3-2.1c0.5-0.5,1.3-0.6,1.7-0.5c-0.7-1.2-1.2-3-1.6-4.6c-0.1-0.3-0.8-0.9,0-1.1c0.6,0.9,0.7,1.8,0.9,2.7
				c0.3,0.9,0.6,1.7,1.6,2.2C16.9,65.1,16.6,64.7,16.3,64.9z"/>
			<path class="st1" d="M8,69.8c-0.1-0.6-0.4-0.6-0.6-1c0.8-0.7-0.4-0.7-0.6-1.6C7.8,67.5,8.8,69,8,69.8z"/>
			<path class="st1" d="M8,65.9C8.2,65.2,8,67,8.5,66.4C8.6,67.2,8.9,67.4,9,68C7.9,67.9,8.4,66.7,8,65.9z"/>
			<path class="st1" d="M7.8,67.3c-0.1-0.6-0.4-0.6-0.5-1c0.1-0.2,0.5-0.3,0.3-0.7c-0.2-0.4-0.2,0.3-0.5,0c0-0.2,0.2-0.4,0.1-0.6
				c-0.3,0.5-0.3-0.4-0.6-0.9C6.8,64,7,64.4,7.1,64.8c0.2-0.2,0.3-0.7,0.7-0.4c-0.1,0.3-0.7,0.5,0,0.6C7.2,65.6,8.6,67,7.8,67.3z"/>
			<path class="st1" d="M7.7,62.6c-0.1-0.2-0.1-0.5-0.3-0.5c0-0.2,0.3-0.2,0.2-0.4c-0.1-0.2-0.3,0-0.4-0.3c-0.1,0.7-0.8,0.2-0.5,1.1
				c-0.2,0-0.4,0.1-0.4,0.3c-0.7,0.1,0-0.7-0.6-0.8c0.5-0.2,1.6-0.7,1.3-2.3c0.9,0.1,0.8,1.2,1.6,1.9C8.6,62.6,8.4,61.8,7.7,62.6z"
				/>
			<path class="st1" d="M29,55l-0.5,0.1l-0.1-0.3c0.2-0.1,0.3,0,0.5,0l0-0.2C29.4,54.6,28.8,54.9,29,55z"/>
			<path class="st1" d="M6.1,59.2c-0.7-0.1,0.2-1.4-0.7-0.9c0.2-0.4-0.1-0.6-0.2-1C6,57.1,6.1,58.6,6.1,59.2z"/>
			<path class="st1" d="M7.6,57.8c0,0.4-0.3-0.2-0.6,0.1c-0.2-0.5,0.1-0.7,0.5-0.8C8,57.4,7.1,57.8,7.6,57.8z"/>
			<path class="st1" d="M5.3,49.3c0.3-0.3-0.1-0.4,0.1-0.9c0-0.2-0.4-0.1-0.6-0.2c0.1-0.6,0.4-1.1,0.2-1.9c0.2,0,0.1,0.2,0.1,0.4
				c0.5,0.2,0.1-0.6,0.7-0.3c0,0.7-0.2,1.6-0.2,2.3c0.1,0.7,0.2,1.4,0.8,1.6c0,0.4,0.1,0.8-0.1,1c-0.5-0.2-0.4,0-1,0.1
				c-0.1,0.5,0.1,0.6,0.5,0.5c0,0.1-0.1,0.2-0.2,0.2l0,0.3c-1.2-0.4-0.5-2.3-1.1-3.1c0-0.2,0.3-0.3,0.3-0.5
				C5.1,48.9,5.3,49,5.3,49.3z"/>
			<path class="st1" d="M11.5,50.9c1.4-0.7,0-1.3,1.1-1.7c0-0.4-0.3-0.6-0.3-1c-0.2,0-0.4,0.7-0.2,0.6c-0.2,0.3-0.7-0.4-0.3-0.8
				c-0.6,0,0,0.4-0.7,0.5c0,0.3,0.1,0.5,0.5,0.5c-0.6,0.4-1.2-0.4-1.5-0.8c-0.1-0.4,0.3-0.3,0.3-0.6c-0.5-0.3-0.5-3.4,0.4-3.6
				c0-0.5-0.7-0.9,0.1-0.9c0-0.3-0.4-0.4-0.6-0.5c0.2-0.5,0.4-1,0.5-1.5c-0.4-0.6,0-1.3,0.3-2c0.4-0.7,0.6-1.4,0.2-2.2
				c0.6-0.2,0.6-0.8,0.4-1.4c0.7-0.5,0.4,1.1,0.8,0.7c0.4,0.1-0.5,0.3,0.2,0.4c-0.7,0.5-0.9,1.3-1,2.1c-0.1,0.8-0.2,1.5-0.8,1.8
				c0.8,1,0.1,1.9-0.1,3.1c-0.2,0.9,0.9,1.9-0.3,2.1c0.6,0.3,0.4,0.4,0.6,1.1c0.3,0.1,0.3-0.2,0.3-0.4c0.2,0.4,0.6,0.5,0.6,1.1
				c0.6-0.4-0.3-1.6-0.4-2.3c0.1,0.4,0.8,0.5,0.7-0.3c0.2,0,0.5,0.1,0.5-0.1c0.4,0.3,0.3,1,0.4,1.5c-0.3,0-0.4-0.3-0.3-0.6
				c-0.7,0.3,0.7,0.9-0.1,1.2c0.1,0.4,0.4-0.4,0.6,0c-0.5,0.5-0.7,1-0.7,1.5c0,0.5,0.1,1.1,0.3,2c-0.7-0.1-0.8,0.4-0.9,0.8
				C11.8,51.3,11.8,50.9,11.5,50.9z"/>
			<path class="st1" d="M16.5,50.6c-1.1-0.3-0.4-1.3-1-2c1.2-0.4-0.4-3.1,0.8-3.8c-0.1,1.2-0.1,2.3-0.1,3.2
				C16.1,49,16.3,49.8,16.5,50.6z"/>
			<path class="st1" d="M9.2,46.6c-0.1,0.5,0,1.3,0,2c0.1,0.7,0.1,1.3-0.4,1.7C9.1,50,9.1,49,8.5,49.1c0.3-0.5-0.4-1,0.3-1.1
				c-0.1-0.6-0.5-0.9-1.1-1c0.3-0.6-0.1-0.7,0.2-1.3c1.2,0.4,0.2-1.6,1-2c0.1,0.1,0.2,0.2,0.5,0.2c0.1,1.1-0.2,1.4,0,2.1
				C9.5,46.2,8.4,46,9,46.2c-0.3,0.6-0.3-0.4-0.5-0.3C8.1,46.2,8.7,46.9,9.2,46.6z"/>
			<path class="st1" d="M10.3,50L10,50c-0.1-0.1-0.2-0.2-0.2-0.5l0.6,0l0-0.3C11,49.5,10.1,49.6,10.3,50z"/>
			<path class="st1" d="M34.9,47.7c-0.8,0.1-0.2-0.4-0.8-0.4C34.3,47.1,35,47.4,34.9,47.7z"/>
			<path class="st1" d="M5.2,46.2c-0.6-0.8,0.1-1.6-0.2-2.6C5.6,44.3,5.2,45.1,5.2,46.2z"/>
			<path class="st1" d="M37.3,45.1c-0.1,0-0.2-0.4,0.1-0.4c0.5,0.2,0.4,0.1,0.8,0.2C38,45.1,37.4,44.9,37.3,45.1z"/>
			<path class="st1" d="M7,33c-0.2,0.4,0.1,0.6,0.1,1c0.5-0.6,0.8,0.3,0.8,0.8c-0.1-0.5-0.7,0.1-0.7-0.4c-0.6,0.2-0.8,1-0.8,1.5
				c-0.8,0,0.2-2.6,0.9-3.5c0.2,0.1,0.4,0.2,0.5,0c0.5,0.5,0,0.9,0,1.1c-0.4,0.3-0.5-0.3-0.2-0.6C7.3,32.9,7.3,33.2,7,33z"/>
			<path class="st1" d="M13.1,33.1c0,0.3,0,0.6,0.4,0.7c-0.5,0-0.6,0.4-1.1,0.3c-0.1-0.3,0.4-1.2,0.9-1.2c-0.2-0.3-0.2-0.6-0.6-0.7
				c0.3-0.5,0.7-1.3,1.1-2c0.4-0.8,0.8-1.5,0.8-1.9c0.5-0.2,0.6-0.5,0.9-0.4c-0.5,0.1-0.1,1.3-0.9,1C14.4,30.1,13.8,32.2,13.1,33.1z
				"/>
			<path class="st1" d="M7.3,32c-0.8-0.5,0.1-1.3,0.5-1.9c0.2,0,0.3,0.1,0.2,0.3c0.3-0.1,0.5-0.3,0.6-0.7c-0.5-0.5-0.3,0.7-0.8,0.3
				c0.3-0.5,0.7-1,1.2-0.9c0.2,0.6-0.9,1.2-0.1,1.7c-0.3-0.1-1.4,0.4-1.1-0.2C7.4,30.6,7.3,31.6,7.3,32z"/>
			<path class="st1" d="M18.8,29.7c0.5-0.8,0.4,0.2,0.4,0.4c-0.4,0.6-0.2,0.5-0.4,1.2c-0.3,1-1.1,2.3-0.8,2.6
				c0.5-0.6,0.8-1.4,1.2-2.2c0.4-0.8,0.8-1.5,1.2-2.2c0.4-0.8,0.9-1.4,1.2-2.1c0.4-0.6,0.6-1.3,0.9-1.9c-0.7,0.2-0.8,1.5-1.8,1.3
				c0.1,0.1,0.4,0.2,0.3,0.4l-0.3,0.5c-0.2-0.4-0.3-0.1-0.6-0.6c0.1,0.4-0.2,0.8-0.6,1.2C19.2,28.8,18.8,29.2,18.8,29.7z M20.6,28.2
				c-0.2,0.4-0.6,0.2-0.7-0.1C20.1,27.9,20.5,27.8,20.6,28.2z"/>
			<path class="st1" d="M23.5,32.2l-0.3,0.6c-0.2-0.5-0.2-1,0.1-1.4C23.9,31.7,23,31.9,23.5,32.2z"/>
			<path class="st1" d="M8.7,24.5c0.3,0.2-0.3,0.6-0.3,0.7c-0.2-0.3,0.3-0.8,0-1.1C9,23.4,8.3,25.1,8.7,24.5z"/>
			<path class="st1" d="M17.9,29c-0.7,0.1-0.9-1,0-1.7c0.1,0.1,0.1,0.3,0.3,0.4c0.4,0,0.5-0.6,0.8-0.8c0-0.4,0-0.6-0.5-0.7
				c0.2-0.6,0.6-0.5,0.9-0.5c0.3-0.5-0.6,0-0.3-0.4c0.2-0.4,0.6,0,0.9,0.1c-0.6,0.9-0.4,2.2-1.6,2.6c0,0.2,0.2,0,0.4,0.2
				c-0.1,0.3-0.9,0.1-0.6,0.4c-0.2,0.3-0.1-0.3-0.6-0.3l-0.1,0.3C17.6,28.8,17.8,28.6,17.9,29z"/>
			<path class="st1" d="M17.2,25.2c-0.2-0.1-0.6-0.1-0.3,0.4c-0.8,0.2-0.7,1.1-1.3,1.7c0.1-0.9,0.5-1.7,1-2.5
				c0.5-0.8,1.1-1.5,1.6-2.3c0.4,0.3,0.2,0.5-0.2,0.9c-0.3,0.3-0.6,0.7-0.3,1C17.5,24.2,17,24.7,17.2,25.2z"/>
			<path class="st1" d="M12.5,22.7c-0.1,0.2-0.2,0-0.1-0.1c-0.2-0.2-0.4,0-0.7-0.2c0.3-0.4,0.7-0.2,1-0.7
				C13.1,22.2,12.3,22.4,12.5,22.7z"/>
			<path class="st1" d="M23.4,26.8c0.1,0.1-0.1,0.3,0.1,0.4c-0.4,0.3-0.3-1-0.7-0.1c-0.6-0.4-0.1-0.7,0.3-0.7
				C23.3,26.4,23.1,27,23.4,26.8z"/>
			<path class="st1" d="M20.5,25.3c-0.5-0.3,0.3-0.5,0.1-1c-0.4,0-0.7,0.6-1,0.6c-0.2-0.7,1-1,1-1.6c0.3,0.7,0.7,0.7,0.8,1.4
				C20.9,24.8,20.5,24.7,20.5,25.3z"/>
			<path class="st1" d="M39.1,35.8c0.3,0.3,0.3,0.1,0.5,0.4c-0.2,0-0.3,0-0.6-0.3c-0.1-0.3,0.1-0.1,0.1-0.3
				C39.2,35.6,39.2,35.8,39.1,35.8z"/>
			<path class="st1" d="M41.2,35.9c-0.1-0.5,0.7-0.1,0.7-0.8C42.6,35.9,41.5,35.8,41.2,35.9z"/>
			<path class="st1" d="M23.3,16.3c0.1-0.1,0.2-0.1,0.2,0c0.5-0.4,0.6-1.1,1.5-1.2c0.5,0.4-0.3,1-0.7,1c-0.3,0.3,0.1,0.6,0.4,0.9
				C23.8,17.6,24.2,16.2,23.3,16.3z"/>
			<path class="st1" d="M41.4,34.5c-0.5,0-0.7-1.3,0-0.4c0,0.2-0.3-0.2-0.3-0.1C41,34.2,41.3,34.3,41.4,34.5z"/>
			<path class="st1" d="M41.3,33.9c-0.4-0.7,0.1-0.6,0.1-1.2c0.4,0.6,0.2-0.2,0.4,0.1c0.1,0.6-0.4,0.3-0.3,1
				C41.1,33.1,41.7,34,41.3,33.9z"/>
			<path class="st1" d="M48.1,29.9c0.4-0.4,0.7-0.7,1.4-0.5C49.2,29.7,48.7,29.8,48.1,29.9z"/>
			<path class="st1" d="M49.2,27.8c-0.1,0.1-0.1,0.1-0.1,0.3c-0.1-0.1-0.2-0.3-0.2-0.6c0.3-0.3,0.3,0.3,0.5,0.3
				C49.4,28,49.2,27.9,49.2,27.8z"/>
			<path class="st1" d="M52.1,37.3c0-0.5,0.2-0.4,0.2-0.6c-0.3-0.1,0.1-1.8,0.1-1.9c0-0.9-0.2-2.5,0.5-2.2c-0.4,0.8,0,1.7-0.1,2.9
				c0,0.3-0.1,0.4-0.2,0.5c-0.1,1.4,0.1,3,0.1,3.6c-0.1,0.6-0.1,0.4-0.1,1.1c-0.2,0.1-0.2-0.6-0.4-0.3c0-0.4,0.2-0.1,0.2-0.5
				c0-0.4-0.2-0.8-0.1-1.3c0-0.3-0.1,0.2-0.2-0.2C52.4,37.6,52.1,37.8,52.1,37.3z"/>
			<path class="st1" d="M60.2,54.3c0.4,0.1-0.2,0.1,0.4,0.3c-0.4-0.1-0.5,0-0.5,0.2c0.2,0.1,0.2,0,0.2,0c0.2,0.3-0.6,0.2-0.4,0.4
				c-0.3-0.4-1.2-1.1-1-1.2c0.4,0.3,0.5,0.4,0.8,0.7c0.2,0.1,0.1,0,0.3,0.1c0.1-0.1-0.3-0.3-0.3-0.4C60.2,54.4,59.9,54.3,60.2,54.3z
				"/>
			<path class="st1" d="M61.2,57.5c0.4,0.5-0.1,0.3,0.2,0.8c-0.6-0.4-0.3,0.1-0.6,0c-0.6-0.8,0.1-0.6-0.3-1.2
				C60.7,57.1,60.7,57.3,61.2,57.5L61.2,57.5z"/>
			<path class="st1" d="M44.9,65.3c0.2,0,0.3,0.1,0.5,0.1c0.2,0,0.4,0,0.5,0.1c0.3,0,0.6,0.1,0.8,0.4c-0.1,0.2-0.2,0.3-0.3,0.2
				c0,0.3,0.2-0.1,0.3,0.4c-0.5,0.3-0.8-0.2-1.4,0.1c0-0.3,0.1-0.2,0.2-0.6C45.2,66,44.7,65.8,44.9,65.3z"/>
			<path class="st1" d="M37.8,66.2c0-0.5-0.1-0.2-0.4-0.4c-0.1,0.1,0,0.2,0,0.2c-0.4,0.5-0.1-0.3-0.5,0c0-0.3,0.3-0.3,0.5-0.7
				l-0.1-0.1c-0.1,0-0.3,0.2-0.4,0.3c-0.3-0.4,0.4-0.5,0.8-0.8c-0.2,0.5,0.6,0.1,0.7,0.4C38.4,65.5,38,65.7,37.8,66.2z"/>
			<path class="st1" d="M21.4,81.5c-0.4,0.1-0.8-0.8-1.3-1.1c0.6,0,0.4,0.3,1,0.6c0.1-0.5-0.5-0.7-0.4-0.9c0.5-0.4,0.3,0.3,0.8,0.4
				c0.1-0.2,0.1-0.4-0.1-0.6c0.3,0,0.6,0.2,1,0.5C22.5,81.5,20.9,80.5,21.4,81.5z"/>
			<path class="st1" d="M40,62.5c-0.2,0.2-0.2,0.2-0.4,0.3c0-0.7-1.3-0.3-0.7-1.2C39.2,61.9,40.2,61.8,40,62.5z"/>
			<path class="st1" d="M37.3,64.7c-0.2,0.1-0.4,0.2-0.6,0.5c-0.9,0-0.8-0.6-1.3-1.2c0.2,0,0.7,0.1,0.5,0.3c0.2,0,0.4-0.1,0.6-0.3
				C36.2,64.7,37.4,63.9,37.3,64.7z"/>
			<path class="st1" d="M13,72.9c-0.2,0.1-0.8-0.4-0.4,0.2c-0.5-0.2-0.7-0.6-0.8-1c0.2-0.1,0.3,0.2,0.4,0.4c0.7-1.2-0.8-1.8-1.6-2.8
				c0.3-0.3,0.4,0.2,0.7,0.3c0.1-0.4-0.5-1.5-1.1-1.1c-0.2-0.4,0.1-0.6-0.4-0.6c0.6-0.9,0.6-2-0.3-2.9c0.5,0.1,0.8,0.9,1.2,1.2
				c-0.3,0.1-0.3,0.3-0.3,0.5c0.4,0.2,0.7,0.8,1,1.3c0.3,0.6,0.5,1.1,0.6,1.4c0.4-0.3,1.2,0.2,0.6,0.9c0.3,0.1,0.5,0.5,0.8,0.5
				c0.1,0.3-0.4,0.4,0,0.8C13,72.2,12.4,72.3,13,72.9z"/>
			<path class="st1" d="M35.4,57.3c-0.5-0.3-0.4-0.8-0.8-1.2c0.4,0,0.6-0.2,1.1-0.4c0.1,0.1,0.4,0,0.4,0.2c-0.2,0.2-0.7,0.3-0.9,0.5
				C35.4,56.8,35.9,56.7,35.4,57.3z"/>
			<path class="st1" d="M21.5,23.9c0-0.6,0.5-1.1,0-1.8c0.4-0.8,1.2-1.2,1.7-1.6c0.6-0.4,1-0.7,1-1.6c0,0.8,0.7-0.2,1.1,0
				c0.1-0.1-0.1-0.3,0-0.4c0.5-0.2,1-0.6,1.4,0.1c-0.5,0.4-0.9,0.8-0.8,1.2c-0.4,0-0.7-0.2-1.1,0c-0.6,0.5-0.5,1.6-1.3,1.4
				c-0.1,0.2,0.2,0.1,0.4,0.3C22.5,21.8,22.6,23.2,21.5,23.9z"/>
		</g>
	</g>
</g>
</svg>
