<?xml version="1.0" encoding="utf-8"?>
<!-- Generator: Adobe Illustrator 26.5.1, SVG Export Plug-In . SVG Version: 6.00 Build 0)  -->
<svg version="1.1" id="Layer_1" xmlns="http://www.w3.org/2000/svg" xmlns:xlink="http://www.w3.org/1999/xlink" x="0px" y="0px"
	 viewBox="0 0 100 100" style="enable-background:new 0 0 100 100;" xml:space="preserve">
<polygon points="81.6,19.6 71.1,25.7 71.1,25.7 71.1,13.5 60.5,7.4 50,1.3 39.5,7.4 28.9,13.5 18.4,19.6 7.8,25.7 7.8,37.8 
	18.4,43.9 7.8,50 7.8,62.2 7.8,74.3 18.4,80.4 28.9,86.5 39.5,92.6 50,98.7 60.5,92.6 60.5,80.5 60.5,80.4 71.1,86.5 81.6,80.4 
	92.2,74.3 92.2,62.2 92.2,50 92.2,37.8 92.2,25.7 "/>
</svg>
