<?xml version="1.0" encoding="utf-8"?>
<!-- Generator: Adobe Illustrator 26.5.1, SVG Export Plug-In . SVG Version: 6.00 Build 0)  -->
<svg version="1.1" id="Layer_1" xmlns="http://www.w3.org/2000/svg" xmlns:xlink="http://www.w3.org/1999/xlink" x="0px" y="0px"
	 viewBox="0 0 100 100" style="enable-background:new 0 0 100 100;" xml:space="preserve">
<path d="M82.6,58.2l15.1-28.1c0.7-1.1,1.2-2.2,1.8-3.3l-3,1.9c-5.4,2.8-18.3,7-40.7,1.3c-30.9-7.9-38.4,11.5-38.4,11.5
	s0.6-0.4,1.8-1l-1.8,1L1.7,70.7c-0.8,1.3-1.2,2.2-1.2,2.2l3-1.6c5.4-2.4,18.2-6.3,38.3-0.8c24.3,6.6,33.8-0.3,38.9-8.9l0,0l0,0
	C81.4,60.5,82,59.4,82.6,58.2L82.6,58.2z"/>
</svg>
