<svg width="11" height="17" viewBox="0 0 11 17" fill="none" xmlns="http://www.w3.org/2000/svg">
<path d="M0.20166 2C0.20166 0.895431 1.09709 0 2.20166 0C3.30623 0 4.20166 0.895431 4.20166 2C4.20166 3.10457 3.30623 4 2.20166 4C1.09709 4 0.20166 3.10457 0.20166 2Z" fill="#C4C4C4"/>
<path d="M0.20166 8.5C0.20166 7.39543 1.09709 6.5 2.20166 6.5C3.30623 6.5 4.20166 7.39543 4.20166 8.5C4.20166 9.60457 3.30623 10.5 2.20166 10.5C1.09709 10.5 0.20166 9.60457 0.20166 8.5Z" fill="#C4C4C4"/>
<path d="M0.20166 15C0.20166 13.8954 1.09709 13 2.20166 13C3.30623 13 4.20166 13.8954 4.20166 15C4.20166 16.1046 3.30623 17 2.20166 17C1.09709 17 0.20166 16.1046 0.20166 15Z" fill="#C4C4C4"/>
<path d="M6.45166 2C6.45166 0.895431 7.34709 0 8.45166 0C9.55623 0 10.4517 0.895431 10.4517 2C10.4517 3.10457 9.55623 4 8.45166 4C7.34709 4 6.45166 3.10457 6.45166 2Z" fill="#C4C4C4"/>
<path d="M6.45166 8.5C6.45166 7.39543 7.34709 6.5 8.45166 6.5C9.55623 6.5 10.4517 7.39543 10.4517 8.5C10.4517 9.60457 9.55623 10.5 8.45166 10.5C7.34709 10.5 6.45166 9.60457 6.45166 8.5Z" fill="#C4C4C4"/>
<path d="M6.45166 15C6.45166 13.8954 7.34709 13 8.45166 13C9.55623 13 10.4517 13.8954 10.4517 15C10.4517 16.1046 9.55623 17 8.45166 17C7.34709 17 6.45166 16.1046 6.45166 15Z" fill="#C4C4C4"/>
</svg>
