<svg id="svg" width="400" height="266.5625" viewBox="0, 0, 400, 266.5625" version="1.1" xmlns="http://www.w3.org/2000/svg">
    <g id="svgg">
        <path id="path0" d="M77.933 88.978 L 0.000 89.068 0.000 133.294 L 0.000 177.521 100.000 177.659 C 155.000 177.736,245.000 177.736,300.000 177.659 L 400.000 177.521 400.000 133.294 L 400.000 89.067 344.467 89.067 C 313.923 89.067,258.993 89.026,222.400 88.977 C 185.807 88.928,120.797 88.929,77.933 88.978 M201.225 95.930 C 202.736 100.770,202.116 100.267,206.576 100.267 C 208.679 100.267,210.394 100.357,210.387 100.467 C 210.377 100.621,205.877 103.944,204.476 104.832 C 204.319 104.931,204.620 106.260,205.231 108.165 C 205.790 109.908,206.331 111.603,206.434 111.933 C 206.741 112.919,206.174 112.652,203.200 110.405 C 199.796 107.833,200.395 107.834,196.849 110.400 C 193.547 112.789,193.153 112.947,193.688 111.667 C 194.153 110.552,195.796 105.032,195.685 104.957 C 195.638 104.925,194.429 104.033,192.998 102.974 C 191.567 101.915,190.217 100.980,189.998 100.896 C 188.911 100.478,189.956 100.274,193.523 100.207 L 197.445 100.133 197.768 99.200 C 197.946 98.687,198.480 97.037,198.955 95.533 C 200.032 92.129,200.039 92.130,201.225 95.930 M142.141 121.003 L 143.349 124.667 147.341 124.800 L 151.333 124.933 150.133 125.814 C 149.473 126.298,148.068 127.318,147.009 128.081 C 144.734 129.720,144.804 129.300,146.133 133.333 C 147.433 137.277,147.460 137.564,146.467 136.822 C 143.702 134.759,140.903 132.800,140.721 132.800 C 140.602 132.800,139.402 133.620,138.053 134.622 C 135.326 136.647,134.133 137.455,134.133 137.275 C 134.133 137.209,134.676 135.485,135.340 133.444 L 136.547 129.733 135.916 129.200 C 135.569 128.907,134.130 127.827,132.718 126.800 L 130.152 124.933 134.159 124.800 L 138.166 124.667 139.365 121.000 C 140.024 118.983,140.647 117.335,140.748 117.336 C 140.850 117.338,141.477 118.988,142.141 121.003 M260.635 121.000 L 261.834 124.667 265.877 124.800 L 269.919 124.933 266.826 127.159 C 265.125 128.383,263.680 129.470,263.616 129.574 C 263.552 129.678,264.030 131.428,264.680 133.463 C 265.329 135.497,265.826 137.197,265.783 137.239 C 265.741 137.281,264.287 136.287,262.553 135.031 C 258.909 132.389,259.615 132.359,255.600 135.328 C 252.465 137.646,252.455 137.635,253.858 133.393 C 254.449 131.604,254.933 129.987,254.933 129.799 C 254.933 129.611,253.523 128.439,251.800 127.195 L 248.667 124.933 252.667 124.800 L 256.667 124.667 257.867 121.001 C 258.527 118.986,259.150 117.336,259.252 117.335 C 259.353 117.334,259.976 118.983,260.635 121.000 M176.835 155.667 L 178.048 159.333 181.957 159.407 C 186.339 159.490,186.426 159.541,184.467 160.885 C 179.039 164.608,179.468 163.804,180.775 167.821 C 182.108 171.919,182.141 172.253,181.133 171.487 C 180.108 170.707,176.224 167.912,175.798 167.648 C 175.464 167.440,173.371 168.770,170.317 171.130 C 168.795 172.305,168.773 171.910,170.128 167.852 C 171.416 163.995,171.560 164.512,168.606 162.393 C 167.320 161.470,165.987 160.464,165.644 160.157 L 165.022 159.600 168.957 159.467 L 172.893 159.333 174.089 155.667 C 174.746 153.650,175.360 152.000,175.453 152.000 C 175.546 152.000,176.168 153.650,176.835 155.667 M225.921 155.667 L 227.130 159.333 231.187 159.467 L 235.244 159.600 232.649 161.467 C 231.222 162.493,229.759 163.578,229.398 163.878 L 228.742 164.422 229.862 167.789 C 231.304 172.126,231.255 172.302,229.067 170.647 C 228.113 169.926,226.704 168.902,225.935 168.370 L 224.537 167.405 221.402 169.678 C 217.754 172.322,217.771 172.335,219.200 168.001 C 220.496 164.068,220.603 164.467,217.688 162.390 C 216.393 161.467,215.053 160.462,214.711 160.156 L 214.088 159.600 218.029 159.467 L 221.970 159.333 223.184 155.667 C 223.852 153.650,224.469 152.000,224.555 152.000 C 224.641 152.000,225.256 153.650,225.921 155.667 " stroke="none" fill="#04248c" fill-rule="evenodd"></path>
        <path id="path1" d="M155.733 44.400 L 155.733 88.800 200.000 88.800 L 244.267 88.800 244.267 44.400 L 244.267 0.000 200.000 0.000 L 155.733 0.000 155.733 44.400 M155.733 222.267 L 155.733 266.667 200.000 266.667 L 244.267 266.667 244.267 222.267 L 244.267 177.867 200.000 177.867 L 155.733 177.867 155.733 222.267 " stroke="none" fill="#dc1414" fill-rule="evenodd"></path>
        <path id="path2" d="M0.000 44.400 L 0.000 88.800 77.733 88.800 L 155.467 88.800 155.467 44.400 L 155.467 0.000 77.733 0.000 L 0.000 0.000 0.000 44.400 M244.533 44.400 L 244.533 88.800 322.267 88.800 L 400.000 88.800 400.000 44.400 L 400.000 0.000 322.267 0.000 L 244.533 0.000 244.533 44.400 M198.822 96.604 C 197.452 100.878,197.909 100.532,193.634 100.542 C 190.712 100.549,190.086 100.614,190.441 100.875 C 190.683 101.054,192.033 102.033,193.441 103.052 C 194.848 104.070,196.000 105.001,196.000 105.122 C 196.000 105.242,195.520 106.792,194.933 108.566 C 194.347 110.340,193.867 111.898,193.867 112.028 C 193.867 112.254,196.618 110.396,198.705 108.761 C 200.004 107.744,199.874 107.704,203.206 110.138 C 204.816 111.314,206.133 112.162,206.133 112.024 C 206.133 111.885,205.653 110.300,205.067 108.500 C 204.480 106.701,204.000 105.159,204.000 105.073 C 204.000 104.987,205.333 103.961,206.963 102.792 L 209.925 100.667 206.322 100.593 C 202.105 100.506,202.566 100.864,201.188 96.603 C 200.608 94.807,200.073 93.339,200.000 93.340 C 199.927 93.341,199.396 94.810,198.822 96.604 M139.478 121.330 L 138.384 124.800 134.459 124.810 L 130.533 124.819 131.333 125.487 C 131.773 125.855,133.034 126.792,134.134 127.571 C 137.022 129.614,136.917 129.204,135.605 133.267 C 134.977 135.210,134.528 136.800,134.607 136.800 C 134.686 136.800,135.422 136.297,136.242 135.682 C 141.162 131.993,140.586 132.181,142.526 133.632 C 145.482 135.842,146.790 136.766,146.861 136.694 C 146.904 136.651,146.458 135.128,145.870 133.310 C 145.281 131.492,144.800 129.872,144.800 129.709 C 144.800 129.546,146.205 128.405,147.921 127.173 L 151.043 124.933 147.065 124.800 L 143.088 124.667 142.761 123.733 C 142.582 123.220,142.113 121.748,141.718 120.462 C 140.759 117.335,140.734 117.344,139.478 121.330 M258.918 118.573 C 258.770 118.962,258.270 120.519,257.807 122.033 L 256.964 124.787 253.008 124.860 L 249.053 124.933 252.126 127.184 C 253.817 128.422,255.200 129.545,255.200 129.680 C 255.200 129.902,253.459 135.621,253.124 136.500 C 252.951 136.954,253.719 136.471,256.777 134.200 C 259.509 132.171,258.973 132.143,262.224 134.491 C 263.714 135.568,265.068 136.526,265.233 136.620 C 265.398 136.713,265.020 135.202,264.394 133.262 C 263.512 130.532,263.323 129.649,263.560 129.360 C 263.863 128.989,267.433 126.369,268.683 125.600 C 269.820 124.900,269.419 124.800,265.475 124.800 L 261.616 124.800 260.523 121.333 C 259.337 117.570,259.314 117.531,258.918 118.573 M224.272 153.200 C 224.086 153.640,223.590 155.127,223.169 156.504 C 222.099 160.004,222.412 159.809,218.077 159.690 C 216.055 159.634,214.400 159.614,214.400 159.645 C 214.400 159.676,215.787 160.699,217.482 161.917 C 219.952 163.693,220.540 164.239,220.444 164.667 C 220.378 164.960,219.943 166.400,219.477 167.867 C 219.011 169.333,218.561 170.758,218.476 171.032 C 218.284 171.649,218.681 171.413,222.110 168.867 C 224.845 166.836,224.337 166.784,227.867 169.453 C 229.480 170.672,230.821 171.654,230.846 171.634 C 230.871 171.614,230.434 170.218,229.876 168.532 C 229.317 166.846,228.781 165.204,228.684 164.883 C 228.521 164.342,232.863 160.635,234.308 160.080 C 235.280 159.708,234.358 159.590,231.231 159.687 C 226.825 159.825,227.035 159.972,225.705 155.819 C 224.633 152.473,224.603 152.417,224.272 153.200 M174.245 155.933 C 172.947 160.114,173.373 159.810,168.988 159.689 L 165.288 159.588 166.044 160.203 C 166.460 160.541,167.849 161.564,169.132 162.476 C 170.415 163.387,171.457 164.253,171.449 164.400 C 171.440 164.547,170.929 166.197,170.312 168.067 C 169.695 169.937,169.227 171.467,169.271 171.467 C 169.435 171.467,170.846 170.490,173.028 168.867 C 175.653 166.914,175.387 166.969,176.846 168.072 C 179.915 170.391,181.914 171.750,181.780 171.425 C 181.368 170.431,179.430 164.215,179.509 164.143 C 179.826 163.852,184.265 160.677,184.865 160.312 C 186.005 159.618,185.829 159.578,182.067 159.681 C 177.716 159.800,177.909 159.934,176.672 155.933 C 176.140 154.210,175.594 152.800,175.461 152.800 C 175.328 152.800,174.780 154.210,174.245 155.933 M0.000 222.267 L 0.000 266.667 77.733 266.667 L 155.467 266.667 155.467 222.267 L 155.467 177.867 77.733 177.867 L 0.000 177.867 0.000 222.267 M244.533 222.267 L 244.533 266.667 322.267 266.667 L 400.000 266.667 400.000 222.267 L 400.000 177.867 322.267 177.867 L 244.533 177.867 244.533 222.267 " stroke="none" fill="#ffffff" fill-rule="evenodd"></path>
        <path id="path3" d="M38.867 89.000 C 60.317 89.038,95.417 89.038,116.867 89.000 C 138.317 88.962,120.767 88.932,77.867 88.932 C 34.967 88.932,17.417 88.962,38.867 89.000 M283.422 89.000 C 304.883 89.038,339.923 89.038,361.288 89.000 C 382.653 88.962,365.093 88.932,322.267 88.932 C 279.440 88.932,261.960 88.962,283.422 89.000 M38.888 177.800 C 60.350 177.838,95.390 177.838,116.755 177.800 C 138.120 177.762,120.560 177.732,77.733 177.732 C 34.907 177.732,17.426 177.762,38.888 177.800 M283.422 177.800 C 304.883 177.838,339.923 177.838,361.288 177.800 C 382.653 177.762,365.093 177.732,322.267 177.732 C 279.440 177.732,261.960 177.762,283.422 177.800 " stroke="none" fill="#748cbc" fill-rule="evenodd"></path>
        <path id="path4" d="M155.597 44.400 C 155.597 68.893,155.628 78.874,155.667 66.579 C 155.705 54.284,155.705 34.244,155.667 22.046 C 155.628 9.847,155.597 19.907,155.597 44.400 M244.397 44.400 C 244.397 68.893,244.428 78.874,244.467 66.579 C 244.505 54.284,244.505 34.244,244.467 22.046 C 244.428 9.847,244.397 19.907,244.397 44.400 M202.367 100.053 C 202.726 100.528,210.135 100.923,210.134 100.467 C 210.134 100.357,208.477 100.267,206.453 100.267 C 203.886 100.267,202.660 100.166,202.400 99.933 C 202.083 99.651,202.078 99.669,202.367 100.053 M189.866 100.467 C 189.866 100.577,191.036 100.635,192.466 100.596 C 197.099 100.470,197.552 100.364,193.667 100.315 C 191.577 100.288,189.866 100.357,189.866 100.467 M167.933 159.664 C 168.850 159.716,170.350 159.716,171.267 159.664 C 172.183 159.612,171.433 159.569,169.600 159.569 C 167.767 159.569,167.017 159.612,167.933 159.664 M179.944 159.664 C 180.866 159.717,182.306 159.716,183.144 159.663 C 183.981 159.611,183.227 159.568,181.467 159.568 C 179.707 159.569,179.021 159.612,179.944 159.664 M217.000 159.664 C 217.917 159.716,219.417 159.716,220.333 159.664 C 221.250 159.612,220.500 159.569,218.667 159.569 C 216.833 159.569,216.083 159.612,217.000 159.664 M229.010 159.664 C 229.933 159.717,231.373 159.716,232.210 159.663 C 233.048 159.611,232.293 159.568,230.533 159.568 C 228.773 159.569,228.088 159.612,229.010 159.664 M155.597 222.267 C 155.597 246.760,155.628 256.741,155.667 244.446 C 155.705 232.151,155.705 212.111,155.667 199.912 C 155.628 187.714,155.597 197.773,155.597 222.267 M244.397 222.267 C 244.397 246.760,244.428 256.741,244.467 244.446 C 244.505 232.151,244.505 212.111,244.467 199.912 C 244.428 187.714,244.397 197.773,244.397 222.267 " stroke="none" fill="#8094c4" fill-rule="evenodd"></path>
    </g>
</svg>