<?xml version="1.0" encoding="UTF-8" standalone="no"?>
<svg
   xmlns:dc="http://purl.org/dc/elements/1.1/"
   xmlns:cc="http://creativecommons.org/ns#"
   xmlns:rdf="http://www.w3.org/1999/02/22-rdf-syntax-ns#"
   xmlns:svg="http://www.w3.org/2000/svg"
   xmlns="http://www.w3.org/2000/svg"
   xmlns:xlink="http://www.w3.org/1999/xlink"
   xmlns:sodipodi="http://sodipodi.sourceforge.net/DTD/sodipodi-0.dtd"
   xmlns:inkscape="http://www.inkscape.org/namespaces/inkscape"
   width="910px"
   height="940px"
   viewBox="0 0 910 940"
   version="1.1"
   id="svg22"
   sodipodi:docname="review-icon.svg"
   inkscape:version="1.0.2-2 (e86c870879, 2021-01-15)">
  <animate
     xlink:href="#Path-Copy-3"
     attributeName="fill"
     to="#FFFFFF"
     dur="1s"
     begin="0"
     repeatCount="indefinite" />
  <animateTransform
     attributeName="transform"
     xlink:href="#path38"
     attributeType="XML"
     type="rotate"
     from="0 313 547"
     to="300 313 547"
     dur="30s"
     begin="0"
     repeatCount="indefinite" />
  <animateTransform
     attributeName="transform"
     xlink:href="#path42"
     attributeType="XML"
     type="rotate"
     from="0 313 547"
     to="300 313 547"
     dur="10s"
     begin="0"
     repeatCount="indefinite" />
  <metadata
     id="metadata26">
    <rdf:RDF>
      <cc:Work
         rdf:about="">
        <dc:format>image/svg+xml</dc:format>
        <dc:type
           rdf:resource="http://purl.org/dc/dcmitype/StillImage" />
        <dc:title>Badge_Colored_Web</dc:title>
      </cc:Work>
    </rdf:RDF>
  </metadata>
  <sodipodi:namedview
     pagecolor="#ffffff"
     bordercolor="#666666"
     borderopacity="1"
     objecttolerance="10"
     gridtolerance="10"
     guidetolerance="10"
     inkscape:pageopacity="0"
     inkscape:pageshadow="2"
     inkscape:window-width="1366"
     inkscape:window-height="741"
     id="namedview24"
     showgrid="false"
     inkscape:pagecheckerboard="true"
     inkscape:showpageshadow="false"
     inkscape:zoom="0.50425532"
     inkscape:cx="91.097049"
     inkscape:cy="470"
     inkscape:window-x="-9"
     inkscape:window-y="-9"
     inkscape:window-maximized="1"
     inkscape:current-layer="Badge_Colored"
     inkscape:document-rotation="0" />
  <!-- Generator: Sketch 50.2 (55047) - http://www.bohemiancoding.com/sketch -->
  <title
     id="title2">Badge_Colored_Web</title>
  <desc
     id="desc4">Created with Sketch.</desc>
  <defs
     id="defs6">
    <rect
       x="297.46835"
       y="715.90717"
       width="269.70464"
       height="73.375527"
       id="rect185" />
    <rect
       x="327.21519"
       y="170.54852"
       width="352.99578"
       height="69.409283"
       id="rect179" />
    <clipPath
       id="clip0">
      <path
         fill="#ffffff"
         transform="translate(47,94.9)"
         d="M 0,0 H 106.2 V 105.4 H 0 Z"
         id="path84" />
    </clipPath>
  </defs>
  <g
     id="Page-1"
     style="fill:none;fill-rule:evenodd;stroke:none;stroke-width:1">
    <g
       id="Artboard-6"
       transform="translate(-6196,-2347)">
      <g
         id="Badge_Colored"
         transform="translate(6196,2347)">
        <g
           id="g133"
           transform="matrix(1.0902048,0,0,1.0902048,-36.128568,-33.340815)">
          <circle
             cx="313"
             cy="547"
             r="10"
             fill="#ff0000"
             id="circle2" />
          <path
             d="M 437.74175,574.61579 C 356.06997,639.32839 185.58573,796.20068 139.39432,527.30864 126.45179,453.00071 161.03957,366.64286 224.19014,329.82361 257.66218,310.63298 296.71289,315.76536 331.30067,300.81451 361.64865,287.4257 380.39299,256.63142 411.8567,245.25093 517.4052,207.31595 701.9477,318.88941 708.19581,434.92581 711.54302,497.85324 668.47566,561.89641 614.25096,550.06962 554.67073,537.35025 527.22366,503.20877 437.5186,574.61579 Z"
             fill="#a9dbff"
             opacity="0.3"
             id="path2"
             style="stroke-width:2.23147" />
          <path
             d="M 707.74952,284.74794 H 318.135 C 312.33318,284.74794 306.53136,286.97941 302.51471,290.54976 298.05178,294.34325 295.82031,299.47563 295.82031,304.83116 V 622.81552 C 295.82031,628.17105 298.05178,633.30343 302.51471,637.09692 306.53136,640.89042 312.33318,642.89874 318.135,642.89874 H 707.74952 C 713.77449,642.89874 719.35316,640.66727 723.59295,637.09692 727.83274,633.30343 730.28736,628.17105 730.28736,622.81552 V 304.83116 C 730.28736,299.47563 727.83274,294.34325 723.59295,290.54976 A 23.653574,23.653574 0 0 0 707.97267,284.74794 Z M 407.61691,318.66627 C 405.1623,318.66627 402.70768,317.99683 400.92251,316.88109 A 11.157346,11.157346 0 0 1 396.45957,311.74871 C 395.34383,309.74039 395.12069,307.73207 395.56698,305.5006 396.01327,303.26913 397.12901,301.48395 398.91418,299.92193 400.69936,298.3599 402.70768,297.24416 405.1623,296.79787 A 13.388815,13.388815 0 0 1 412.303,297.46731 C 414.53447,298.3599 416.31964,299.69878 417.65852,301.48395 A 10.264758,10.264758 0 0 1 418.77426,311.97186 11.157346,11.157346 0 0 1 416.0965,315.31906 C 414.98076,316.4348 413.86503,317.32739 412.303,317.77368 A 13.388815,13.388815 0 0 1 407.61691,318.66627 Z M 618.49075,318.66627 C 616.25928,318.66627 613.80467,317.99683 611.79634,316.88109 A 11.157346,11.157346 0 0 1 607.33341,311.74871 C 606.44082,309.74039 606.21767,307.73207 606.66397,305.5006 607.11026,303.26913 608.22599,301.48395 610.01117,299.92193 611.5732,298.3599 613.80467,297.24416 616.25928,296.79787 A 13.388815,13.388815 0 0 1 623.17684,297.46731 C 625.40831,298.3599 627.41663,299.69878 628.75551,301.48395 A 10.264758,10.264758 0 0 1 629.87125,311.97186 11.157346,11.157346 0 0 1 627.19348,315.31906 C 626.07775,316.4348 624.73887,317.32739 623.17684,317.77368 A 13.388815,13.388815 0 0 1 618.7139,318.66627 Z"
             fill="#fffaff"
             id="path4"
             style="stroke-width:2.23147" />
          <path
             d="M 540.16618,409.71021 H 485.94148 V 449.43036 H 540.16618 V 409.48706 Z"
             fill="#ff596a"
             id="path6"
             style="stroke-width:2.23147" />
          <path
             d="M 707.74952,284.74794 H 318.35814 C 312.55633,284.74794 306.75451,286.97941 302.73786,290.54976 A 18.521194,18.521194 0 0 0 296.04345,304.38486 V 333.39396 H 730.06421 V 304.38486 C 730.06421,299.02934 727.83274,294.12011 723.59295,290.54976 A 23.87672,23.87672 0 0 0 707.97267,284.74794 Z M 407.84006,317.77368 A 13.388815,13.388815 0 0 1 401.14565,315.9885 11.157346,11.157346 0 0 1 396.68271,311.07927 C 395.56698,309.2941 395.34383,307.06263 395.79013,305.05431 396.23642,302.82284 397.5753,301.03766 399.13733,299.47563 A 13.835109,13.835109 0 0 1 412.52615,297.24416 C 414.75761,297.9136 416.54279,299.47563 417.88167,301.03766 419.22055,302.82284 420.11314,305.05431 420.11314,307.06263 420.11314,308.40151 419.66685,309.96354 418.99741,311.07927 418.32797,312.41815 417.43538,313.53389 416.31964,314.64962 415.20391,315.54221 414.08817,316.4348 412.52615,316.88109 410.96412,317.55053 409.40209,317.77368 407.84006,317.77368 Z M 618.7139,317.77368 A 13.388815,13.388815 0 0 1 612.01949,315.9885 11.157346,11.157346 0 0 1 607.55655,311.07927 C 606.66397,309.2941 606.44082,307.06263 606.88711,305.05431 607.33341,302.82284 608.44914,301.03766 610.23432,299.47563 612.01949,297.9136 614.02781,297.02102 616.48243,296.57472 618.7139,296.12843 621.16852,296.57472 623.39998,297.24416 625.63145,297.9136 627.63978,299.47563 628.97866,301.03766 630.31754,302.82284 631.21013,305.05431 631.21013,307.06263 631.21013,308.40151 630.76383,309.96354 630.09439,311.07927 629.42495,312.41815 628.53236,313.53389 627.41663,314.64962 A 13.611962,13.611962 0 0 1 618.7139,317.77368 Z"
             fill="#fd6559"
             id="path8"
             style="stroke-width:2.23147" />
          <path
             d="M 706.63379,615.89797 H 319.47388 V 362.62621 H 706.63379 Z M 321.03591,614.33594 H 704.84861 V 364.18824 H 321.03591 V 614.11279 Z"
             fill="#dbdbdb"
             id="path10"
             style="stroke-width:2.23147" />
          <path
             d="M 706.63379,408.14818 H 320.14332 V 409.71021 H 706.63379 Z M 706.63379,449.43036 H 320.14332 V 450.99239 H 706.63379 Z M 706.63379,490.71254 H 320.14332 V 492.27457 H 706.63379 Z M 706.63379,531.99472 H 320.14332 V 533.55675 H 706.63379 Z M 706.63379,573.2769 H 320.14332 V 574.83893 H 706.63379 Z"
             fill="#dbdbdb"
             id="path12"
             style="stroke-width:2.23147" />
          <path
             d="M 375.48376,362.62621 H 373.69858 V 615.89797 H 375.48376 Z M 431.49363,362.62621 H 429.70846 V 615.89797 H 431.49363 Z M 485.94148,362.62621 H 484.15631 V 615.89797 H 485.94148 Z M 541.95136,362.62621 H 540.16618 V 615.89797 H 541.95136 Z M 596.17606,362.62621 H 594.39089 V 615.89797 H 596.17606 Z M 652.40908,362.62621 H 650.62391 V 615.89797 H 652.40908 Z"
             fill="#dbdbdb"
             id="path14"
             style="stroke-width:2.23147" />
          <path
             d="M 512.27282,430.90917 A 8.9258768,8.9258768 0 0 1 511.15708,436.04155 C 510.2645,437.15728 508.92561,437.82672 507.36359,437.82672 505.80156,437.82672 504.46268,437.15728 503.79324,436.04155 502.90065,434.92581 502.45435,433.36378 502.45435,431.13232 V 428.45455 C 502.45435,426.22308 502.90065,424.43791 503.57009,423.32217 504.46268,422.20644 505.80156,421.76014 507.36359,421.76014 509.14876,421.76014 510.2645,422.20644 511.15708,423.32217 511.82652,424.43791 512.27282,425.99994 512.27282,428.23141 Z M 510.2645,428.23141 C 510.2645,426.44623 510.2645,425.3305 509.59506,424.43791 509.14876,423.76847 508.47932,423.32217 507.36359,423.32217 506.24785,423.32217 505.57841,423.76847 505.13212,424.43791 504.68582,425.3305 504.46268,426.44623 504.46268,428.00826 V 431.13232 C 504.46268,432.91749 504.46268,434.03323 505.13212,434.92581 505.57841,435.59525 506.471,436.04155 507.36359,436.04155 A 2.2314692,2.2314692 0 0 0 509.59506,434.92581 C 510.04135,434.25637 510.2645,432.91749 510.2645,431.35546 Z M 517.62834,428.6777 H 519.19037 C 520.08296,428.6777 520.97555,428.6777 521.42184,428.00826 521.86814,427.56196 522.31443,426.89252 522.31443,425.99994 522.31443,424.21476 521.1987,423.32217 519.41352,423.32217 518.52093,423.32217 517.85149,423.54532 517.4052,423.99161 516.9589,424.43791 516.73576,425.10735 516.73576,425.99994 H 514.50429 C 514.50429,424.66105 515.17373,423.76847 516.06632,422.87588 516.9589,422.20644 518.29779,421.76014 519.41352,421.76014 520.97555,421.76014 522.09128,421.98329 522.98387,422.87588 523.87646,423.54532 524.09961,424.66105 524.09961,425.99994 524.09961,426.66938 524.09961,427.33882 523.43016,428.23141 523.20702,428.6777 522.53758,429.12399 521.64499,429.57029 522.53758,429.57029 523.20702,430.23973 523.87646,430.90917 524.09961,431.57861 524.5459,432.24805 524.5459,433.14064 A 4.4629384,4.4629384 0 0 1 522.98387,436.48784 C 522.09128,437.38043 520.7524,437.82672 519.41352,437.82672 518.07464,437.82672 516.73576,437.38043 515.84317,436.48784 514.95058,435.8184 514.50429,434.70267 514.50429,433.36378 H 516.73576 C 516.73576,434.25637 516.73576,434.92581 517.4052,435.37211 517.85149,435.8184 518.52093,436.04155 519.63667,436.04155 520.52925,436.04155 521.1987,436.04155 521.86814,435.37211 522.31443,434.92581 522.53758,434.03323 522.53758,433.14064 522.53758,432.24805 522.09128,431.57861 521.64499,430.90917 L 519.41352,430.46287 H 517.62834 Z"
             fill="#ffffff"
             id="path16"
             style="stroke-width:2.23147" />
          <path
             d="M 343.3506,428.6777 H 344.68948 C 345.58207,428.6777 346.47466,428.6777 346.92095,428.00826 347.59039,427.56196 347.81354,426.89252 347.81354,425.99994 347.81354,424.21476 346.92095,423.32217 345.13578,423.32217 344.24319,423.32217 343.57375,423.54532 342.90431,423.99161 342.45801,424.43791 342.23487,425.10735 342.23487,425.99994 H 340.22654 C 340.22654,424.66105 340.67284,423.76847 341.56542,422.87588 342.45801,422.20644 343.79689,421.76014 345.13578,421.76014 346.47466,421.76014 347.59039,421.98329 348.48298,422.87588 349.37557,423.54532 349.82186,424.66105 349.82186,425.99994 L 349.15242,428.23141 347.36724,429.57029 C 348.03669,429.57029 348.70613,430.23973 349.37557,430.90917 349.82186,431.57861 350.04501,432.24805 350.04501,433.14064 A 4.4629384,4.4629384 0 0 1 348.70613,436.48784 C 347.59039,437.38043 346.47466,437.82672 345.13578,437.82672 343.57375,437.82672 342.45801,437.38043 341.56542,436.48784 340.44969,435.8184 340.0034,434.70267 340.0034,433.36378 H 342.23487 C 342.23487,434.25637 342.23487,434.92581 342.90431,435.37211 343.3506,435.8184 344.24319,436.04155 345.13578,436.04155 346.02836,436.04155 346.6978,436.04155 347.36724,435.37211 347.81354,434.92581 348.03669,434.03323 348.03669,433.14064 348.03669,432.24805 347.81354,431.57861 347.1441,430.90917 L 344.91263,430.46287 H 343.3506 Z M 359.19403,437.60358 H 357.18571 V 424.21476 L 353.16906,425.77679 V 423.99161 L 358.97088,421.76014 H 359.19403 V 437.38043 Z M 404.04656,430.90917 A 8.9258768,8.9258768 0 0 1 402.70768,436.04155 C 402.03824,437.15728 400.69936,437.82672 399.13733,437.82672 397.35215,437.82672 396.23642,437.15728 395.34383,436.04155 394.45124,434.92581 394.2281,433.36378 394.00495,431.13232 V 428.45455 C 394.00495,426.22308 394.45124,424.43791 395.34383,423.32217 396.01327,422.20644 397.35215,421.76014 399.13733,421.76014 400.69936,421.76014 402.03824,422.20644 402.70768,423.32217 403.60027,424.43791 404.04656,425.99994 404.04656,428.23141 Z M 401.81509,428.23141 C 401.81509,426.44623 401.81509,425.3305 401.3688,424.43791 400.69936,423.76847 400.02992,423.32217 399.13733,423.32217 398.0216,423.32217 397.35215,423.76847 396.90586,424.43791 396.45957,425.3305 396.01327,426.44623 396.01327,428.00826 V 431.13232 C 396.01327,432.91749 396.23642,434.03323 396.90586,434.92581 397.35215,435.59525 398.0216,436.04155 399.13733,436.04155 A 2.2314692,2.2314692 0 0 0 401.3688,434.92581 C 401.81509,434.25637 402.03824,432.91749 402.03824,431.35546 V 428.23141 Z M 413.19559,437.60358 H 410.96412 V 424.21476 L 406.94747,425.77679 V 423.99161 L 412.74929,421.76014 H 412.97244 V 437.38043 Z M 457.15553,430.90917 A 8.9258768,8.9258768 0 0 1 456.03979,436.04155 C 455.37035,437.15728 454.03147,437.82672 452.2463,437.82672 450.68427,437.82672 449.34539,437.15728 448.67595,436.04155 447.78336,434.92581 447.33706,433.36378 447.33706,431.13232 V 428.45455 C 447.33706,426.22308 447.78336,424.43791 448.67595,423.32217 449.34539,422.20644 450.68427,421.76014 452.2463,421.76014 454.03147,421.76014 455.14721,422.20644 456.03979,423.32217 456.93238,424.43791 457.15553,425.99994 457.15553,428.23141 Z M 455.37035,428.23141 C 455.37035,426.44623 455.14721,425.3305 454.47777,424.43791 454.03147,423.76847 453.36203,423.32217 452.2463,423.32217 451.35371,423.32217 450.68427,423.76847 450.01483,424.43791 449.56853,425.3305 449.34539,426.44623 449.34539,428.00826 V 431.13232 C 449.34539,432.91749 449.56853,434.03323 450.01483,434.92581 450.68427,435.59525 451.35371,436.04155 452.2463,436.04155 A 2.2314692,2.2314692 0 0 0 454.47777,434.92581 C 454.92406,434.25637 455.14721,432.91749 455.37035,431.35546 Z M 470.09805,437.60358 H 459.83329 V 436.04155 L 465.18882,430.01658 466.75085,427.78511 C 467.19714,427.33882 467.42029,426.66938 467.42029,425.99994 467.42029,425.3305 466.97399,424.66105 466.5277,423.99161 466.08141,423.54532 465.41197,423.32217 464.51938,423.32217 463.62679,423.32217 462.7342,423.54532 462.28791,424.21476 461.84161,424.66105 461.39532,425.55364 461.39532,426.44623 H 459.61015 C 459.61015,425.10735 460.05644,423.99161 460.94903,423.09903 461.84161,422.20644 463.1805,421.76014 464.51938,421.76014 466.08141,421.76014 467.19714,421.98329 468.08973,422.87588 468.98232,423.54532 469.20546,424.66105 469.20546,425.77679 469.20546,427.33882 468.31288,429.12399 466.30455,431.35546 L 462.28791,435.8184 H 470.09805 Z M 567.16696,430.90917 A 8.9258768,8.9258768 0 0 1 566.05123,436.04155 C 565.38179,437.15728 564.0429,437.82672 562.48088,437.82672 560.6957,437.82672 559.57997,437.15728 558.68738,436.04155 557.79479,434.92581 557.57164,433.36378 557.3485,431.13232 V 428.45455 C 557.3485,426.22308 557.79479,424.43791 558.68738,423.32217 559.35682,422.20644 560.6957,421.76014 562.25773,421.76014 564.0429,421.76014 565.38179,422.20644 566.05123,423.32217 566.94381,424.43791 567.16696,425.99994 567.39011,428.23141 V 430.90917 Z M 565.38179,428.23141 C 565.38179,426.44623 565.15864,425.3305 564.71234,424.43791 564.0429,423.76847 563.37346,423.32217 562.48088,423.32217 561.36514,423.32217 560.6957,423.76847 560.24941,424.43791 559.57997,425.3305 559.35682,426.44623 559.35682,428.00826 V 431.13232 C 559.35682,432.91749 559.57997,434.03323 560.24941,434.92581 560.6957,435.59525 561.36514,436.04155 562.48088,436.04155 A 2.2314692,2.2314692 0 0 0 564.71234,434.92581 C 564.93549,434.25637 565.38179,432.91749 565.38179,431.35546 Z M 578.32431,432.24805 H 580.55578 V 433.81008 H 578.32431 V 437.60358 H 576.09284 V 433.81008 H 569.39843 V 432.69434 L 576.31598,421.98329 H 578.54745 V 432.0249 Z M 571.40675,432.24805 H 576.31598 V 424.66105 L 575.86969,425.10735 Z M 622.28425,430.90917 A 8.9258768,8.9258768 0 0 1 620.94537,436.04155 C 620.27593,437.15728 618.93705,437.82672 617.37502,437.82672 615.58984,437.82672 614.47411,437.15728 613.58152,436.04155 612.68893,434.92581 612.46579,433.36378 612.24264,431.13232 V 428.45455 C 612.24264,426.22308 612.68893,424.43791 613.58152,423.32217 614.25096,422.20644 615.58984,421.76014 617.15187,421.76014 618.93705,421.76014 620.05278,422.20644 620.94537,423.32217 621.83796,424.43791 622.0611,425.99994 622.28425,428.23141 Z M 620.05278,428.23141 C 620.05278,426.44623 620.05278,425.3305 619.38334,424.43791 618.93705,423.76847 618.26761,423.32217 617.15187,423.32217 616.25928,423.32217 615.58984,423.76847 614.9204,424.43791 614.47411,425.3305 614.25096,426.44623 614.25096,428.00826 V 431.13232 C 614.25096,432.91749 614.47411,434.03323 615.14355,434.92581 615.58984,435.59525 616.25928,436.04155 617.37502,436.04155 A 2.2314692,2.2314692 0 0 0 619.60649,434.92581 C 619.82963,434.25637 620.27593,432.91749 620.27593,431.35546 V 428.23141 Z M 625.63145,429.79343 626.52404,421.98329 H 634.33418 V 423.76847 H 628.08607 L 627.63978,428.00826 C 628.30922,427.56196 629.2018,427.33882 630.31754,427.33882 A 4.4629384,4.4629384 0 0 1 633.66474,428.6777 C 634.55733,429.57029 634.78048,430.90917 634.78048,432.4712 634.78048,434.03323 634.33418,435.37211 633.66474,436.26469 632.77216,437.15728 631.43327,437.82672 629.87125,437.82672 628.53236,437.82672 627.63978,437.38043 626.52404,436.48784 A 4.4629384,4.4629384 0 0 1 624.96201,433.36378 H 626.97034 C 626.97034,434.25637 627.41663,434.92581 627.86292,435.59525 L 630.09439,436.04155 C 630.76383,436.04155 631.65642,435.8184 632.10271,435.14896 632.54901,434.47952 632.9953,433.58693 632.9953,432.4712 632.9953,431.57861 632.54901,430.68602 632.10271,430.23973 631.43327,429.34714 630.76383,429.12399 629.87125,429.12399 628.97866,429.12399 628.30922,429.12399 627.63978,429.57029 L 627.19348,430.01658 625.63145,429.57029 Z M 676.7321,430.90917 A 8.9258768,8.9258768 0 0 1 675.61636,436.04155 C 674.72378,437.15728 673.38489,437.82672 671.82287,437.82672 670.26084,437.82672 668.92196,437.15728 668.25252,436.04155 667.35993,434.92581 666.91363,433.36378 666.91363,431.13232 V 428.45455 C 666.91363,426.22308 667.35993,424.43791 668.02937,423.32217 668.92196,422.20644 670.26084,421.76014 671.82287,421.76014 673.60804,421.76014 674.72378,422.20644 675.61636,423.32217 676.2858,424.43791 676.7321,425.99994 676.7321,428.23141 Z M 674.72378,428.23141 C 674.72378,426.44623 674.72378,425.3305 674.05434,424.43791 673.60804,423.76847 672.9386,423.32217 671.82287,423.32217 670.93028,423.32217 670.03769,423.76847 669.5914,424.43791 669.1451,425.3305 668.92196,426.44623 668.92196,428.00826 V 431.13232 C 668.92196,432.91749 669.1451,434.03323 669.5914,434.92581 670.26084,435.59525 670.93028,436.04155 671.82287,436.04155 A 2.2314692,2.2314692 0 0 0 674.05434,434.92581 C 674.50063,434.25637 674.72378,432.91749 674.72378,431.35546 Z M 687.22,421.98329 V 423.54532 H 686.77371 C 685.21168,423.54532 683.8728,423.99161 682.98021,424.8842 682.08762,425.77679 681.64133,427.11567 681.41818,428.6777 682.31077,427.78511 683.42651,427.33882 684.76539,427.33882 686.10427,427.33882 687.22,427.78511 688.11259,428.6777 689.00518,429.57029 689.22833,430.90917 689.22833,432.4712 689.22833,434.03323 688.78203,435.37211 687.88944,436.26469 A 4.4629384,4.4629384 0 0 1 684.54224,437.82672 4.4629384,4.4629384 0 0 1 680.74874,436.04155 6.6944076,6.6944076 0 0 1 679.40986,431.57861 V 430.90917 C 679.40986,428.00826 680.0793,425.77679 681.19504,424.21476 682.53392,422.65273 684.31909,421.98329 686.77371,421.98329 Z M 684.54224,428.90085 682.53392,429.57029 681.41818,431.13232 V 431.80176 C 681.41818,433.14064 681.64133,434.03323 682.31077,434.92581 682.98021,435.59525 683.64965,436.04155 684.54224,436.04155 685.43483,436.04155 686.10427,435.8184 686.77371,435.14896 686.99686,434.47952 687.44315,433.58693 687.44315,432.4712 687.44315,431.35546 686.99686,430.46287 686.55056,430.01658 686.10427,429.34714 685.43483,428.90085 684.31909,428.90085 Z M 349.59871,472.19135 A 8.9258768,8.9258768 0 0 1 348.48298,477.54687 C 347.59039,478.66261 346.25151,479.1089 344.68948,479.1089 343.12745,479.1089 341.78857,478.66261 341.11913,477.54687 340.22654,476.43114 339.78025,474.64596 339.78025,472.63764 V 469.95988 C 339.78025,467.72841 340.22654,465.94324 340.89598,464.8275 341.78857,463.71177 343.12745,463.04233 344.68948,463.04233 346.47466,463.04233 347.59039,463.71177 348.48298,464.8275 349.15242,465.72009 349.59871,467.50526 349.59871,469.73673 Z M 347.59039,469.51359 C 347.59039,467.95156 347.59039,466.61268 346.92095,465.94324 346.47466,465.05065 345.80522,464.8275 344.68948,464.8275 343.57375,464.8275 342.90431,465.05065 342.45801,465.94324 342.01172,466.61268 341.78857,467.72841 341.78857,469.29044 V 472.63764 C 341.78857,474.19967 341.78857,475.53855 342.45801,476.20799 342.90431,477.10058 343.79689,477.54687 344.68948,477.54687 A 2.2314692,2.2314692 0 0 0 346.92095,476.43114 C 347.36724,475.53855 347.59039,474.42282 347.59039,472.86079 Z M 362.31809,464.38121 355.62368,478.88576 H 353.61536 L 360.30977,465.05065 H 351.60704 V 463.26547 H 362.31809 Z M 402.03824,472.19135 A 8.9258768,8.9258768 0 0 1 400.69936,477.54687 C 400.02992,478.66261 398.69104,479.1089 397.12901,479.1089 395.34383,479.1089 394.2281,478.66261 393.33551,477.54687 392.44292,476.43114 392.21978,474.64596 391.99663,472.63764 V 469.95988 C 391.99663,467.72841 392.44292,465.94324 393.33551,464.8275 394.00495,463.71177 395.34383,463.04233 396.90586,463.04233 398.69104,463.04233 399.80677,463.71177 400.69936,464.8275 401.59195,465.72009 401.81509,467.50526 402.03824,469.73673 Z M 399.80677,469.51359 C 399.80677,467.95156 399.80677,466.61268 399.13733,465.94324 398.69104,465.05065 398.0216,464.8275 396.90586,464.8275 396.01327,464.8275 395.34383,465.05065 394.67439,465.94324 394.2281,466.61268 394.00495,467.72841 394.00495,469.29044 V 472.63764 C 394.00495,474.19967 394.2281,475.53855 394.89754,476.20799 395.34383,477.10058 396.01327,477.54687 397.12901,477.54687 A 2.2314692,2.2314692 0 0 0 399.36048,476.43114 C 399.58362,475.53855 400.02992,474.42282 400.02992,472.86079 V 469.51359 Z M 413.86503,467.28212 C 413.86503,468.1747 413.86503,468.84414 413.41873,469.51359 412.97244,470.18303 412.303,470.62932 411.63356,470.85247 412.52615,471.29876 413.19559,471.74505 413.64188,472.4145 414.08817,473.08394 414.31132,473.75338 414.31132,474.64596 414.31132,475.98485 413.86503,477.10058 412.97244,477.99317 412.07985,478.66261 410.74097,479.1089 409.40209,479.1089 407.84006,479.1089 406.72433,478.66261 405.83174,477.99317 404.716,477.10058 404.26971,475.98485 404.26971,474.64596 404.26971,473.75338 404.49286,473.08394 405.1623,472.4145 405.60859,471.74505 406.05488,471.29876 406.94747,470.85247 406.27803,470.62932 405.83174,469.95988 405.38544,469.51359 404.93915,468.84414 404.716,468.1747 404.716,467.28212 404.716,466.16638 405.1623,465.05065 406.05488,464.15806 406.94747,463.48862 408.06321,463.04233 409.40209,463.04233 410.74097,463.04233 411.63356,463.48862 412.74929,464.15806 413.41873,465.05065 413.86503,466.16638 413.86503,467.28212 Z M 412.303,474.64596 A 2.90091,2.90091 0 0 0 409.40209,471.74505 C 408.5095,471.74505 407.61691,471.9682 407.17062,472.4145 406.72433,473.08394 406.27803,473.75338 406.27803,474.64596 406.27803,475.53855 406.72433,476.20799 407.17062,476.87743 407.61691,477.32373 408.5095,477.54687 409.40209,477.54687 410.29468,477.54687 410.96412,477.32373 411.63356,476.65429 412.07985,476.20799 412.303,475.53855 412.303,474.64596 Z M 409.40209,464.8275 C 408.5095,464.8275 407.84006,464.8275 407.39377,465.49694 406.94747,465.94324 406.72433,466.61268 406.72433,467.50526 406.72433,468.1747 406.94747,468.84414 407.39377,469.29044 407.84006,469.73673 408.5095,470.18303 409.40209,470.18303 410.07153,470.18303 410.74097,469.73673 411.18726,469.29044 411.63356,468.84414 411.8567,468.1747 411.8567,467.50526 411.8567,466.61268 411.8567,465.94324 411.18726,465.27379 Z M 456.93238,472.19135 A 8.9258768,8.9258768 0 0 1 455.81665,477.54687 C 455.14721,478.66261 453.80833,479.1089 452.02315,479.1089 450.46112,479.1089 449.12224,478.66261 448.4528,477.54687 447.56021,476.43114 447.11392,474.64596 447.11392,472.63764 V 469.95988 C 447.11392,467.72841 447.56021,465.94324 448.4528,464.8275 449.12224,463.71177 450.46112,463.04233 452.02315,463.04233 453.80833,463.04233 454.92406,463.71177 455.81665,464.8275 456.48609,465.72009 456.93238,467.50526 456.93238,469.73673 Z M 455.14721,469.51359 C 455.14721,467.95156 454.70091,466.61268 454.25462,465.94324 453.80833,465.05065 453.13888,464.8275 452.02315,464.8275 451.13056,464.8275 450.23797,465.05065 449.79168,465.94324 449.34539,466.61268 449.12224,467.72841 449.12224,469.29044 V 472.63764 C 449.12224,474.19967 449.34539,475.53855 449.79168,476.20799 450.46112,477.10058 451.13056,477.54687 452.02315,477.54687 A 2.2314692,2.2314692 0 0 0 454.25462,476.43114 L 455.14721,472.86079 Z M 467.19714,472.19135 465.63511,473.30708 463.84994,473.75338 C 462.95735,473.75338 462.06476,473.53023 461.61847,473.08394 A 4.4629384,4.4629384 0 0 1 459.83329,471.07561 L 459.387,468.39785 C 459.387,467.50526 459.387,466.61268 459.83329,465.72009 A 4.4629384,4.4629384 0 0 1 464.29623,463.04233 4.4629384,4.4629384 0 0 1 467.86658,464.8275 C 468.75917,465.94324 469.20546,467.50526 469.20546,469.51359 V 470.18303 C 469.20546,473.08394 468.53602,475.31541 467.42029,476.87743 466.08141,478.21632 464.29623,478.88576 461.84161,479.1089 H 461.61847 V 477.32373 H 461.84161 C 463.62679,477.32373 464.74252,476.87743 465.63511,475.98485 466.5277,475.09226 466.97399,473.75338 467.19714,471.9682 Z M 464.07308,472.19135 C 464.74252,472.19135 465.41197,471.74505 465.85826,471.52191 466.5277,471.07561 466.97399,470.62932 467.19714,469.95988 V 469.06729 C 467.19714,467.95156 466.97399,466.83582 466.30455,465.94324 465.85826,465.05065 464.96567,464.8275 464.07308,464.8275 463.40364,464.8275 462.51106,465.05065 462.06476,465.72009 461.61847,466.38953 461.39532,467.28212 461.39532,468.39785 461.39532,469.51359 461.39532,470.40617 462.06476,471.07561 462.51106,471.74505 463.1805,471.9682 464.29623,471.9682 Z M 510.48764,478.88576 H 508.70247 V 465.49694 L 504.68582,467.28212 V 465.27379 L 510.2645,463.04233 H 510.48764 Z M 526.10793,472.19135 A 8.9258768,8.9258768 0 0 1 524.99219,477.54687 C 524.09961,478.66261 522.76072,479.1089 521.1987,479.1089 519.63667,479.1089 518.29779,478.66261 517.62834,477.54687 516.73576,476.43114 516.28946,474.64596 516.28946,472.63764 V 469.95988 C 516.28946,467.72841 516.73576,465.94324 517.62834,464.8275 518.29779,463.71177 519.63667,463.04233 521.1987,463.04233 522.98387,463.04233 524.09961,463.71177 524.99219,464.8275 525.66163,465.72009 526.10793,467.50526 526.10793,469.73673 Z M 524.09961,469.51359 C 524.09961,467.95156 524.09961,466.61268 523.43016,465.94324 522.98387,465.05065 522.31443,464.8275 521.1987,464.8275 520.30611,464.8275 519.41352,465.05065 518.96723,465.94324 518.52093,466.61268 518.29779,467.72841 518.29779,469.29044 V 472.63764 C 518.29779,474.19967 518.52093,475.53855 518.96723,476.20799 519.63667,477.10058 520.30611,477.54687 521.1987,477.54687 A 2.2314692,2.2314692 0 0 0 523.43016,476.43114 C 523.87646,475.53855 524.09961,474.42282 524.09961,472.86079 Z M 566.27437,478.88576 H 564.0429 V 465.49694 L 560.24941,467.28212 V 465.27379 L 565.82808,463.04233 H 566.27437 Z M 578.32431,478.88576 H 576.53913 V 465.49694 L 572.52249,467.28212 V 465.27379 L 578.10116,463.04233 H 578.54745 V 478.88576 Z M 619.38334,478.88576 H 617.37502 V 465.49694 L 613.58152,467.28212 V 465.27379 L 619.16019,463.04233 H 619.38334 Z M 635.44992,478.88576 H 625.18516 V 477.54687 L 630.76383,471.52191 632.32586,469.29044 632.77216,467.50526 C 632.77216,466.61268 632.54901,465.94324 632.10271,465.49694 631.65642,465.05065 630.98698,464.8275 629.87125,464.8275 628.97866,464.8275 628.30922,464.8275 627.63978,465.49694 627.19348,466.16638 626.97034,466.83582 626.97034,467.72841 H 624.96201 C 624.96201,466.38953 625.40831,465.49694 626.30089,464.38121 627.19348,463.48862 628.53236,463.04233 630.09439,463.04233 631.43327,463.04233 632.77216,463.48862 633.4416,464.15806 634.33418,465.05065 634.78048,465.94324 634.78048,467.28212 634.78048,468.84414 633.88789,470.62932 631.87957,472.86079 L 627.63978,477.32373 H 635.44992 Z M 674.50063,478.88576 H 672.49231 V 465.49694 L 668.47566,467.28212 V 465.27379 L 674.27748,463.04233 H 674.50063 Z M 683.20336,469.95988 H 684.76539 C 685.65798,469.95988 686.32742,469.95988 686.99686,469.51359 687.44315,468.84414 687.6663,468.39785 687.6663,467.28212 687.6663,465.72009 686.77371,464.8275 684.98853,464.8275 684.09595,464.8275 683.42651,464.8275 682.75707,465.49694 682.31077,465.94324 682.08762,466.61268 682.08762,467.50526 H 680.0793 C 680.0793,466.16638 680.5256,465.27379 681.41818,464.38121 682.31077,463.48862 683.64965,463.04233 684.98853,463.04233 686.32742,463.04233 687.6663,463.48862 688.33574,464.15806 689.22833,465.05065 689.67462,466.16638 689.67462,467.50526 L 689.00518,469.51359 C 688.55889,470.18303 687.88944,470.62932 687.22,470.85247 688.11259,471.07561 688.78203,471.52191 689.22833,472.19135 689.67462,472.86079 689.89777,473.75338 689.89777,474.42282 A 4.4629384,4.4629384 0 0 1 688.55889,477.99317 C 687.6663,478.66261 686.32742,479.1089 684.98853,479.1089 683.42651,479.1089 682.31077,478.66261 681.41818,477.99317 680.5256,477.10058 680.0793,476.20799 680.0793,474.86911 H 682.08762 C 682.08762,475.53855 682.08762,476.20799 682.75707,476.87743 683.42651,477.32373 684.09595,477.54687 684.98853,477.54687 685.88112,477.54687 686.55056,477.32373 687.22,476.65429 687.6663,476.20799 687.88944,475.53855 687.88944,474.42282 687.88944,473.75338 687.6663,473.08394 686.99686,472.4145 686.55056,471.9682 685.65798,471.74505 684.76539,471.74505 H 683.20336 V 470.18303 Z M 343.3506,519.72164 H 341.34228 V 506.55597 L 337.32563,508.118 V 506.33283 L 342.90431,504.10136 H 343.3506 Z M 357.40886,514.58926 H 359.64033 V 516.15129 H 357.40886 V 519.72164 H 355.40053 V 516.15129 H 348.48298 V 515.03556 L 355.40053,504.10136 H 357.632 V 514.58926 Z M 350.71445,514.58926 H 355.40053 V 507.00227 507.22542 Z M 398.0216,519.72164 H 395.79013 V 506.55597 L 391.99663,508.118 V 506.33283 L 397.5753,504.10136 H 398.0216 Z M 404.716,511.9115 405.38544,504.10136 H 413.41873 V 506.10968 H 407.17062 L 406.72433,510.34947 C 407.39377,509.90318 408.28635,509.68003 409.17894,509.68003 A 4.4629384,4.4629384 0 0 1 412.74929,511.01891 C 413.41873,511.9115 413.86503,513.25038 413.86503,514.81241 413.86503,516.37444 413.41873,517.71332 412.52615,518.60591 411.63356,519.4985 410.51782,519.94479 408.95579,519.94479 407.61691,519.94479 406.50118,519.72164 405.60859,518.82906 A 4.4629384,4.4629384 0 0 1 404.04656,515.705 H 406.05488 C 406.05488,516.59759 406.50118,517.26703 406.94747,517.71332 407.39377,518.15961 408.06321,518.38276 409.17894,518.38276 409.84838,518.38276 410.51782,518.15961 411.18726,517.49017 411.63356,516.82073 411.8567,515.92815 411.8567,514.81241 411.8567,513.69668 411.8567,513.02724 410.96412,512.35779 410.51782,511.68835 409.84838,511.46521 408.73265,511.46521 407.84006,511.46521 407.17062,511.46521 406.72433,511.9115 L 406.27803,512.35779 Z M 454.47777,519.72164 H 452.2463 V 506.55597 L 448.4528,508.118 V 506.33283 L 454.03147,504.10136 H 454.47777 Z M 467.86658,504.10136 V 505.88653 H 467.64343 C 466.08141,505.88653 464.74252,506.33283 463.84994,507.22542 462.95735,508.118 462.51106,509.45688 462.28791,511.01891 463.1805,510.12633 464.29623,509.45688 465.63511,509.45688 466.97399,509.45688 468.08973,510.12633 468.98232,511.01891 469.65176,511.9115 470.09805,513.25038 470.09805,514.81241 470.09805,516.37444 469.65176,517.49017 468.75917,518.60591 A 4.4629384,4.4629384 0 0 1 465.41197,519.94479 4.4629384,4.4629384 0 0 1 461.61847,518.38276 6.6944076,6.6944076 0 0 1 460.27959,513.91982 V 513.02724 C 460.27959,510.12633 460.94903,508.118 462.06476,506.33283 463.40364,504.99395 465.18882,504.10136 467.64343,504.10136 Z M 465.41197,511.24206 C 464.74252,511.24206 464.07308,511.24206 463.40364,511.9115 L 462.28791,513.25038 V 514.14297 C 462.28791,515.2587 462.51106,516.37444 463.1805,517.26703 463.84994,517.93647 464.51938,518.38276 465.41197,518.38276 466.30455,518.38276 466.97399,517.93647 467.42029,517.49017 467.86658,516.82073 468.08973,515.92815 468.08973,514.81241 468.08973,513.69668 468.08973,512.80409 467.42029,512.13465 466.97399,511.46521 466.30455,511.24206 465.18882,511.24206 Z M 509.8182,519.72164 H 507.58673 V 506.55597 L 503.79324,508.118 V 506.33283 L 509.37191,504.10136 H 509.8182 Z M 525.66163,505.21709 518.96723,519.72164 H 517.18205 L 523.43016,505.88653 H 515.17373 V 504.10136 H 525.66163 Z M 564.0429,519.72164 H 562.25773 V 506.55597 L 558.24108,508.118 V 506.33283 L 563.81976,504.10136 H 564.0429 Z M 579.44004,508.34115 578.7706,510.34947 C 578.32431,511.01891 577.87801,511.46521 577.20857,511.68835 L 578.99375,513.25038 C 579.44004,513.91982 579.88634,514.81241 579.88634,515.48185 579.88634,517.04388 579.21689,517.93647 578.32431,518.82906 577.43172,519.4985 576.31598,519.94479 574.75396,519.94479 573.41507,519.94479 572.07619,519.4985 571.18361,518.82906 570.29102,517.93647 569.84472,516.82073 569.84472,515.48185 569.84472,514.81241 570.06787,513.91982 570.51416,513.25038 570.96046,512.58094 571.6299,512.13465 572.52249,511.68835 571.85305,511.46521 571.18361,511.01891 570.73731,510.34947 L 570.29102,508.118 C 570.29102,507.00227 570.73731,505.88653 571.40675,505.21709 572.29934,504.32451 573.63822,503.87821 574.75396,503.87821 576.09284,503.87821 577.20857,504.32451 578.10116,505.21709 578.99375,505.88653 579.44004,507.00227 579.44004,508.34115 Z M 577.87801,515.48185 C 577.87801,514.58926 577.43172,513.91982 576.98543,513.25038 576.31598,512.80409 575.64654,512.58094 574.75396,512.58094 573.86137,512.58094 573.19193,512.80409 572.52249,513.47353 572.07619,513.91982 571.85305,514.58926 571.85305,515.705 L 572.52249,517.71332 C 573.19193,518.15961 573.86137,518.38276 574.75396,518.38276 575.64654,518.38276 576.53913,518.15961 576.98543,517.71332 577.43172,517.04388 577.87801,516.37444 577.87801,515.48185 Z M 574.75396,505.66339 C 574.08452,505.66339 573.41507,505.66339 572.96878,506.33283 572.52249,506.77912 572.29934,507.44856 572.29934,508.34115 572.29934,509.01059 572.29934,509.68003 572.96878,510.12633 573.41507,510.79577 574.08452,511.01891 574.75396,511.01891 575.64654,511.01891 576.31598,510.79577 576.76228,510.12633 577.20857,509.68003 577.43172,509.01059 577.43172,508.34115 577.43172,507.44856 577.20857,506.77912 576.76228,506.33283 576.09284,505.88653 575.64654,505.66339 574.75396,505.66339 Z M 619.16019,519.72164 H 617.15187 V 506.55597 L 613.13523,508.118 V 506.33283 L 618.93705,504.10136 H 619.16019 Z M 632.54901,513.02724 631.21013,514.14297 629.2018,514.58926 C 628.30922,514.58926 627.63978,514.36612 626.97034,513.91982 A 4.4629384,4.4629384 0 0 1 625.40831,512.13465 L 624.73887,509.45688 C 624.73887,508.34115 624.96201,507.22542 625.40831,506.55597 A 4.4629384,4.4629384 0 0 1 629.6481,503.87821 4.4629384,4.4629384 0 0 1 633.21845,505.66339 C 634.11104,506.77912 634.55733,508.34115 634.55733,510.34947 V 511.01891 C 634.55733,514.14297 634.11104,516.15129 632.77216,517.71332 631.65642,519.0522 629.87125,519.94479 627.41663,519.94479 H 626.97034 V 518.15961 H 627.41663 C 628.97866,518.15961 630.31754,517.71332 631.21013,516.82073 632.10271,515.92815 632.54901,514.58926 632.54901,513.02724 Z M 629.6481,513.02724 C 630.31754,513.02724 630.76383,512.80409 631.43327,512.35779 L 632.54901,510.79577 V 510.12633 C 632.54901,508.78744 632.54901,507.67171 631.87957,506.77912 631.21013,506.10968 630.54069,505.66339 629.6481,505.66339 628.75551,505.66339 628.08607,505.88653 627.41663,506.55597 626.97034,507.22542 626.74719,508.118 626.74719,509.23374 626.74719,510.34947 626.97034,511.24206 627.41663,511.9115 628.08607,512.58094 628.75551,513.02724 629.6481,513.02724 Z M 677.40154,519.72164 H 667.58307 V 518.38276 L 672.9386,512.35779 674.50063,510.12633 C 674.94692,509.68003 674.94692,509.01059 674.94692,508.34115 674.94692,507.67171 674.94692,507.00227 674.27748,506.33283 673.83119,505.88653 673.16175,505.66339 672.26916,505.66339 671.37657,505.66339 670.48398,505.88653 670.03769,506.55597 669.36825,507.00227 669.1451,507.89486 669.1451,508.78744 H 667.13678 C 667.13678,507.44856 667.58307,506.10968 668.47566,505.21709 669.5914,504.32451 670.70713,503.87821 672.26916,503.87821 673.83119,503.87821 674.94692,504.32451 675.61636,505.21709 676.50895,505.88653 676.95525,507.00227 676.95525,508.118 676.95525,509.68003 676.06266,511.46521 674.05434,513.69668 L 669.81454,518.15961 H 677.62469 V 519.72164 Z M 689.45147,513.02724 A 8.9258768,8.9258768 0 0 1 688.11259,518.38276 C 687.44315,519.4985 686.10427,519.94479 684.54224,519.94479 682.75707,519.94479 681.64133,519.4985 680.74874,518.38276 679.85616,517.26703 679.63301,515.705 679.40986,513.47353 V 510.79577 C 679.40986,508.5643 679.85616,506.77912 680.74874,505.66339 681.41818,504.54765 682.75707,503.87821 684.54224,503.87821 686.10427,503.87821 687.44315,504.54765 688.11259,505.66339 689.00518,506.55597 689.45147,508.34115 689.45147,510.57262 V 513.25038 Z M 687.22,510.34947 C 687.22,508.78744 687.22,507.44856 686.77371,506.77912 686.10427,505.88653 685.43483,505.66339 684.54224,505.66339 683.42651,505.66339 682.75707,505.88653 682.31077,506.77912 681.86448,507.44856 681.41818,508.78744 681.41818,510.34947 V 513.47353 C 681.41818,515.03556 681.64133,516.37444 682.31077,517.26703 682.75707,517.93647 683.42651,518.38276 684.54224,518.38276 A 2.2314692,2.2314692 0 0 0 686.77371,517.26703 C 687.22,516.59759 687.44315,515.2587 687.44315,513.69668 V 510.12633 Z M 348.70613,561.22697 H 338.44137 V 559.88809 L 343.79689,553.86312 345.58207,551.63165 346.02836,549.84648 C 346.02836,548.95389 345.80522,548.28445 345.13578,547.61501 344.68948,547.16871 344.02004,546.94557 343.3506,546.94557 342.23487,546.94557 341.56542,547.39186 341.11913,547.83815 340.44969,548.5076 340.22654,549.17704 340.22654,550.06962 H 337.99507 C 337.99507,548.73074 338.66451,547.61501 339.5571,546.72242 340.44969,545.82983 341.78857,545.38354 343.3506,545.38354 344.68948,545.38354 345.80522,545.82983 346.6978,546.49927 347.59039,547.39186 348.03669,548.28445 348.03669,549.62333 348.03669,551.18536 346.92095,552.97053 345.13578,554.97886 L 340.67284,559.44179 H 348.70613 Z M 357.40886,561.22697 H 355.17739 V 547.83815 L 351.38389,549.40018 V 547.61501 L 356.96256,545.38354 H 357.40886 V 561.00382 Z M 403.60027,561.22697 H 393.11236 V 559.88809 L 398.46789,553.86312 400.25306,551.63165 400.69936,549.84648 C 400.69936,548.95389 400.25306,548.28445 399.80677,547.61501 399.36048,547.16871 398.69104,546.94557 397.79845,546.94557 396.90586,546.94557 396.23642,547.39186 395.56698,547.83815 395.12069,548.5076 394.67439,549.17704 394.67439,550.06962 H 392.88922 C 392.88922,548.73074 393.33551,547.61501 394.2281,546.72242 395.12069,545.82983 396.45957,545.38354 397.79845,545.38354 399.36048,545.38354 400.47621,545.82983 401.3688,546.49927 402.26139,547.39186 402.70768,548.28445 402.70768,549.62333 402.70768,551.18536 401.59195,552.97053 399.58362,554.97886 L 395.56698,559.44179 H 403.37712 V 561.22697 Z M 415.87335,561.22697 H 405.60859 V 559.88809 L 410.96412,553.86312 412.74929,551.63165 413.19559,549.84648 C 413.19559,548.95389 412.97244,548.28445 412.303,547.61501 411.8567,547.16871 411.18726,546.94557 410.51782,546.94557 409.40209,546.94557 408.73265,547.39186 408.28635,547.83815 407.61691,548.5076 407.39377,549.17704 407.39377,550.06962 H 405.1623 C 405.1623,548.73074 405.83174,547.61501 406.72433,546.72242 407.61691,545.82983 408.95579,545.38354 410.51782,545.38354 411.8567,545.38354 412.97244,545.82983 413.86503,546.49927 414.75761,547.39186 415.20391,548.28445 415.20391,549.62333 415.20391,551.18536 414.08817,552.97053 412.303,554.97886 L 407.84006,559.44179 H 415.87335 Z M 458.49441,561.22697 H 448.4528 V 559.88809 L 453.80833,553.86312 455.37035,551.63165 C 455.81665,550.96221 455.81665,550.51592 455.81665,549.84648 455.81665,548.95389 455.81665,548.28445 455.14721,547.61501 454.70091,547.16871 454.03147,546.94557 453.13888,546.94557 452.2463,546.94557 451.35371,547.39186 450.90742,547.83815 450.23797,548.5076 450.01483,549.17704 450.01483,550.06962 H 448.00651 C 448.00651,548.73074 448.4528,547.61501 449.34539,546.72242 450.46112,545.82983 451.57686,545.38354 453.13888,545.38354 454.70091,545.38354 455.81665,545.82983 456.48609,546.49927 457.37868,547.39186 457.82497,548.28445 457.82497,549.62333 457.82497,551.18536 456.93238,552.97053 454.92406,554.97886 L 450.68427,559.44179 H 458.49441 Z M 463.62679,552.52424 H 464.96567 C 466.08141,552.52424 466.75085,552.07795 467.19714,551.63165 467.86658,551.18536 468.08973,550.51592 468.08973,549.84648 468.08973,547.83815 467.19714,546.94557 465.41197,546.94557 464.51938,546.94557 463.84994,547.16871 463.1805,547.83815 462.7342,548.28445 462.51106,548.95389 462.51106,549.62333 H 460.50273 C 460.50273,548.5076 460.94903,547.39186 461.84161,546.72242 462.7342,545.82983 464.07308,545.38354 465.41197,545.38354 466.75085,545.38354 467.86658,545.82983 468.75917,546.49927 469.65176,547.39186 470.09805,548.5076 470.09805,549.84648 L 469.42861,551.8548 C 468.98232,552.30109 468.31288,552.97053 467.64343,553.19368 468.53602,553.41683 469.20546,553.86312 469.65176,554.53256 470.09805,555.202 470.3212,555.87144 470.3212,556.76403 A 4.4629384,4.4629384 0 0 1 468.98232,560.11124 C 468.08973,561.00382 466.75085,561.45012 465.41197,561.45012 463.84994,561.45012 462.7342,561.00382 461.84161,560.33438 460.94903,559.44179 460.27959,558.32606 460.27959,556.98718 H 462.51106 C 462.51106,557.87977 462.51106,558.54921 463.1805,559.21865 463.62679,559.66494 464.51938,559.88809 465.41197,559.88809 466.30455,559.88809 466.97399,559.44179 467.64343,558.9955 468.08973,558.54921 468.31288,557.87977 468.31288,556.76403 468.31288,556.09459 468.08973,555.202 467.42029,554.75571 466.97399,554.30942 466.08141,554.08627 465.18882,554.08627 H 463.62679 Z M 513.6117,561.22697 H 503.34694 V 559.88809 L 508.70247,553.86312 510.48764,551.63165 510.93394,549.84648 C 510.93394,548.95389 510.71079,548.28445 510.04135,547.61501 509.59506,547.16871 508.92561,546.94557 508.25617,546.94557 507.14044,546.94557 506.471,547.39186 506.0247,547.83815 505.35526,548.5076 505.13212,549.17704 505.13212,550.06962 H 502.90065 C 502.90065,548.73074 503.57009,547.61501 504.46268,546.72242 505.35526,545.82983 506.69415,545.38354 508.25617,545.38354 509.59506,545.38354 510.71079,545.82983 511.60338,546.49927 512.49597,547.39186 512.94226,548.28445 512.94226,549.62333 512.94226,551.18536 511.82652,552.97053 509.8182,554.97886 L 505.80156,559.44179 H 513.6117 Z M 524.09961,555.87144 H 526.33107 V 557.65662 H 524.09961 V 561.22697 H 521.86814 V 557.65662 H 514.95058 V 556.31774 L 521.86814,545.60669 H 524.09961 Z M 517.4052,555.87144 H 521.86814 V 548.28445 548.73074 Z M 568.50584,561.22697 H 558.24108 V 559.88809 L 563.59661,553.86312 565.38179,551.63165 565.82808,549.84648 C 565.82808,548.95389 565.60493,548.28445 564.93549,547.61501 564.4892,547.16871 563.81976,546.94557 562.92717,546.94557 562.03458,546.94557 561.36514,547.39186 560.6957,547.83815 560.24941,548.5076 560.02626,549.17704 560.02626,550.06962 H 557.79479 C 557.79479,548.73074 558.46423,547.61501 559.35682,546.72242 560.24941,545.82983 561.58829,545.38354 562.92717,545.38354 564.4892,545.38354 565.60493,545.82983 566.49752,546.49927 567.39011,547.39186 567.8364,548.28445 567.8364,549.62333 567.8364,551.18536 566.72067,552.97053 564.71234,554.97886 L 560.6957,559.44179 H 568.50584 Z M 571.6299,553.41683 572.29934,545.60669 H 580.33263 V 547.39186 H 573.86137 L 573.41507,551.8548 C 574.30766,551.18536 575.20025,550.96221 576.09284,550.96221 A 4.4629384,4.4629384 0 0 1 579.44004,552.52424 C 580.33263,553.41683 580.77892,554.75571 580.77892,556.31774 580.77892,557.87977 580.33263,559.21865 579.44004,560.11124 578.54745,561.00382 577.20857,561.45012 575.86969,561.45012 574.30766,561.45012 573.19193,561.00382 572.29934,560.33438 A 4.4629384,4.4629384 0 0 1 570.96046,557.21033 H 572.74563 C 572.74563,558.10291 573.19193,558.77235 573.63822,559.21865 574.30766,559.66494 574.9771,559.88809 575.86969,559.88809 576.76228,559.88809 577.43172,559.44179 578.10116,558.77235 578.54745,558.32606 578.7706,557.43347 578.7706,556.31774 578.7706,555.202 578.54745,554.30942 577.87801,553.63997 577.20857,553.19368 576.53913,552.74739 575.64654,552.74739 574.75396,552.74739 574.08452,552.97053 573.41507,553.41683 L 572.96878,553.86312 571.40675,553.41683 Z M 622.95369,561.22697 H 612.91208 V 559.88809 L 618.26761,553.86312 619.82963,551.63165 C 620.27593,550.96221 620.27593,550.51592 620.27593,549.84648 620.27593,548.95389 620.27593,548.28445 619.60649,547.61501 619.16019,547.16871 618.49075,546.94557 617.59816,546.94557 616.70558,546.94557 615.81299,547.39186 615.3667,547.83815 614.69725,548.5076 614.47411,549.17704 614.47411,550.06962 H 612.46579 C 612.46579,548.73074 612.91208,547.61501 614.02781,546.72242 614.9204,545.82983 616.25928,545.38354 617.59816,545.38354 619.16019,545.38354 620.27593,545.82983 621.16852,546.49927 621.83796,547.39186 622.28425,548.28445 622.28425,549.62333 622.28425,551.18536 621.39166,552.97053 619.38334,554.97886 L 615.14355,559.44179 H 623.17684 V 561.22697 Z M 632.9953,545.60669 V 547.16871 H 632.54901 C 630.98698,547.16871 629.87125,547.83815 628.97866,548.73074 628.08607,549.62333 627.41663,550.96221 627.41663,552.30109 628.08607,551.40851 629.2018,550.96221 630.76383,550.96221 632.10271,550.96221 632.9953,551.40851 633.88789,552.30109 634.78048,553.41683 635.22677,554.53256 635.22677,556.09459 635.22677,557.65662 634.78048,558.9955 633.88789,559.88809 A 4.4629384,4.4629384 0 0 1 630.31754,561.45012 4.4629384,4.4629384 0 0 1 626.74719,559.66494 6.6944076,6.6944076 0 0 1 625.18516,555.202 V 554.53256 C 625.18516,551.63165 625.8546,549.40018 627.19348,547.83815 628.30922,546.49927 630.09439,545.60669 632.54901,545.60669 Z M 630.31754,552.52424 C 629.6481,552.52424 628.97866,552.74739 628.53236,553.19368 627.86292,553.63997 627.41663,554.08627 627.19348,554.75571 V 555.42515 C 627.19348,556.76403 627.63978,557.65662 628.08607,558.54921 628.75551,559.44179 629.42495,559.88809 630.31754,559.88809 631.21013,559.88809 631.87957,559.44179 632.54901,558.77235 632.9953,558.10291 633.21845,557.21033 633.21845,556.31774 633.21845,555.202 632.9953,554.08627 632.32586,553.63997 631.87957,552.97053 631.21013,552.52424 630.31754,552.52424 Z M 678.51727,561.22697 H 668.25252 V 559.88809 L 673.60804,553.86312 675.39322,551.63165 675.83951,549.84648 C 675.83951,548.95389 675.39322,548.28445 674.94692,547.61501 674.50063,547.16871 673.83119,546.94557 672.9386,546.94557 672.04601,546.94557 671.37657,547.39186 670.70713,547.83815 670.26084,548.5076 669.81454,549.17704 669.81454,550.06962 H 668.02937 C 668.02937,548.73074 668.47566,547.61501 669.36825,546.72242 670.26084,545.82983 671.59972,545.38354 672.9386,545.38354 674.50063,545.38354 675.61636,545.82983 676.50895,546.49927 677.40154,547.39186 677.84783,548.28445 677.84783,549.62333 677.84783,551.18536 676.7321,552.97053 674.72378,554.97886 L 670.70713,559.44179 H 678.51727 Z M 690.56721,546.72242 684.09595,561.22697 H 682.08762 L 688.55889,547.16871 H 680.0793 V 545.60669 H 690.56721 Z M 346.6978,601.61656 H 336.43305 V 600.27768 L 341.78857,594.25271 343.57375,592.02124 344.02004,590.45922 C 344.02004,589.56663 343.79689,588.89719 343.12745,588.22775 342.68116,587.78145 342.01172,587.55831 341.34228,587.55831 340.22654,587.55831 339.5571,587.78145 339.11081,588.45089 338.44137,588.89719 338.21822,589.78978 338.21822,590.68236 H 335.98675 C 335.98675,589.34348 336.65619,588.22775 337.54878,587.33516 338.44137,586.44257 339.78025,585.99628 341.34228,585.99628 342.68116,585.99628 343.79689,586.21942 344.68948,587.11201 345.58207,587.78145 346.02836,588.89719 346.02836,590.01292 346.02836,591.57495 344.91263,593.58327 343.12745,595.5916 L 338.66451,600.05453 H 346.6978 V 601.83971 Z M 358.30144,590.23607 C 358.30144,590.90551 358.0783,591.7981 357.632,592.46754 L 355.84683,593.80642 C 356.73942,594.02957 357.40886,594.47586 358.0783,595.36845 L 358.52459,597.59992 C 358.52459,598.9388 358.0783,599.83139 357.18571,600.72397 356.29312,601.61656 354.95424,602.06286 353.61536,602.06286 352.05333,602.06286 350.9376,601.61656 350.04501,600.72397 349.15242,600.05453 348.70613,598.9388 348.70613,597.59992 348.70613,596.70733 348.70613,596.03789 349.37557,595.36845 349.82186,594.47586 350.4913,594.02957 351.38389,593.80642 350.4913,593.36013 350.04501,592.91383 349.59871,592.24439 349.15242,591.57495 349.15242,590.90551 349.15242,590.01292 349.15242,588.89719 349.37557,587.78145 350.26815,587.11201 351.16074,586.21942 352.27648,585.99628 353.61536,585.99628 354.95424,585.99628 356.06997,586.21942 356.96256,587.11201 357.85515,587.78145 358.30144,588.89719 358.30144,590.23607 Z M 356.51627,597.59992 C 356.51627,596.70733 356.51627,595.81474 355.84683,595.36845 355.17739,594.92215 354.50795,594.47586 353.61536,594.47586 352.72277,594.47586 352.05333,594.69901 351.38389,595.36845 350.9376,595.81474 350.71445,596.70733 350.71445,597.59992 350.71445,598.49251 350.71445,599.16195 351.38389,599.60824 352.05333,600.05453 352.72277,600.27768 353.61536,600.27768 354.50795,600.27768 355.40053,600.27768 355.84683,599.60824 356.29312,599.16195 356.51627,598.26936 356.51627,597.37677 Z M 353.61536,587.55831 C 352.94592,587.55831 352.27648,587.78145 351.83018,588.22775 351.16074,588.67404 350.9376,589.34348 350.9376,590.45922 350.9376,591.12866 351.16074,591.7981 351.83018,592.24439 352.27648,592.69069 352.94592,592.91383 353.61536,592.91383 354.50795,592.91383 355.17739,592.69069 355.62368,592.24439 356.06997,591.7981 356.29312,591.12866 356.29312,590.23607 L 355.62368,588.22775 C 354.95424,587.78145 354.50795,587.55831 353.61536,587.55831 Z M 403.37712,601.61656 H 393.11236 V 600.27768 L 398.46789,594.25271 400.02992,592.02124 C 400.47621,591.57495 400.69936,590.90551 400.69936,590.45922 400.69936,589.56663 400.25306,588.89719 399.80677,588.22775 399.36048,587.78145 398.69104,587.55831 397.79845,587.55831 396.90586,587.55831 396.23642,587.78145 395.56698,588.45089 395.12069,588.89719 394.67439,589.78978 394.67439,590.68236 H 392.88922 C 392.88922,589.34348 393.33551,588.22775 394.2281,587.33516 395.12069,586.44257 396.45957,585.99628 397.79845,585.99628 399.36048,585.99628 400.47621,586.21942 401.3688,587.11201 402.26139,587.78145 402.48453,588.89719 402.48453,590.01292 402.48453,591.57495 401.59195,593.58327 399.58362,595.5916 L 395.56698,600.05453 H 403.37712 V 601.83971 Z M 413.19559,594.92215 411.41041,596.03789 C 410.96412,596.48418 410.29468,596.48418 409.62524,596.48418 408.73265,596.48418 407.84006,596.48418 407.39377,595.81474 A 4.4629384,4.4629384 0 0 1 405.83174,594.02957 L 405.1623,591.3518 C 405.1623,590.23607 405.1623,589.34348 405.83174,588.45089 A 4.4629384,4.4629384 0 0 1 410.07153,585.99628 4.4629384,4.4629384 0 0 1 413.64188,587.78145 C 414.53447,588.89719 414.98076,590.45922 414.98076,592.24439 V 592.91383 C 414.98076,596.03789 414.31132,598.26936 413.19559,599.60824 412.07985,600.94712 410.29468,601.83971 407.84006,601.83971 H 407.39377 V 600.05453 H 407.84006 C 409.40209,600.05453 410.74097,599.60824 411.63356,598.71565 412.52615,598.04621 412.97244,596.48418 412.97244,594.92215 Z M 409.84838,594.92215 411.8567,594.25271 412.97244,592.69069 V 592.02124 C 412.97244,590.68236 412.74929,589.78978 412.07985,588.89719 411.63356,588.0046 410.96412,587.55831 409.84838,587.55831 409.17894,587.55831 408.5095,588.0046 407.84006,588.67404 407.39377,589.34348 407.17062,590.23607 407.17062,591.12866 407.17062,592.24439 407.17062,593.36013 407.84006,593.80642 408.5095,594.47586 409.17894,594.92215 410.07153,594.92215 Z M 450.46112,592.91383 H 452.02315 C 452.91574,592.91383 453.58518,592.91383 454.25462,592.24439 454.70091,591.7981 454.92406,591.12866 454.92406,590.23607 454.92406,588.45089 454.03147,587.55831 452.2463,587.55831 451.35371,587.55831 450.68427,587.78145 450.01483,588.22775 449.56853,588.89719 449.34539,589.34348 449.34539,590.23607 H 447.33706 C 447.33706,588.89719 447.78336,588.0046 448.67595,587.11201 449.56853,586.44257 450.90742,585.99628 452.2463,585.99628 453.58518,585.99628 454.92406,586.21942 455.5935,587.11201 456.48609,587.78145 456.93238,588.89719 456.93238,590.45922 456.93238,591.12866 456.70924,591.7981 456.26294,592.24439 L 454.47777,593.80642 C 455.37035,593.80642 456.03979,594.47586 456.48609,595.1453 456.93238,595.81474 457.15553,596.48418 457.15553,597.37677 A 4.4629384,4.4629384 0 0 1 455.81665,600.72397 C 454.92406,601.61656 453.58518,602.06286 452.2463,602.06286 450.68427,602.06286 449.56853,601.61656 448.67595,600.72397 447.78336,600.05453 447.33706,598.9388 447.33706,597.59992 H 449.34539 C 449.34539,598.49251 449.34539,599.16195 450.01483,599.60824 450.68427,600.05453 451.35371,600.27768 452.2463,600.27768 453.13888,600.27768 453.80833,600.27768 454.47777,599.60824 454.92406,599.16195 455.14721,598.26936 455.14721,597.37677 455.14721,596.48418 454.92406,595.81474 454.25462,595.1453 L 452.02315,594.69901 H 450.46112 Z M 469.65176,594.92215 A 8.9258768,8.9258768 0 0 1 468.53602,600.27768 C 467.64343,601.39342 466.30455,602.06286 464.74252,602.06286 463.1805,602.06286 461.84161,601.39342 461.17217,600.27768 460.27959,599.16195 459.83329,597.59992 459.83329,595.36845 V 592.69069 C 459.83329,590.45922 460.27959,588.67404 460.94903,587.55831 461.84161,586.44257 463.1805,585.99628 464.74252,585.99628 466.5277,585.99628 467.64343,586.44257 468.53602,587.55831 469.20546,588.67404 469.65176,590.23607 469.65176,592.46754 V 595.1453 Z M 467.64343,592.46754 C 467.64343,590.68236 467.64343,589.56663 466.97399,588.67404 466.5277,588.0046 465.85826,587.55831 464.74252,587.55831 463.62679,587.55831 462.95735,588.0046 462.51106,588.67404 462.06476,589.56663 461.84161,590.68236 461.84161,592.24439 V 595.36845 C 461.84161,597.15362 461.84161,598.26936 462.51106,599.16195 462.95735,600.05453 463.84994,600.27768 464.74252,600.27768 465.63511,600.27768 466.5277,600.05453 466.97399,599.16195 467.42029,598.49251 467.64343,597.15362 467.64343,595.5916 V 592.69069 Z M 507.80988,592.91383 H 509.37191 C 510.2645,592.91383 510.93394,592.91383 511.60338,592.24439 512.04967,591.7981 512.27282,591.12866 512.27282,590.23607 512.27282,588.45089 511.38023,587.55831 509.59506,587.55831 508.70247,587.55831 508.03303,587.78145 507.36359,588.22775 507.14044,588.89719 506.69415,589.34348 506.69415,590.23607 H 504.90897 C 504.90897,588.89719 505.35526,588.0046 506.24785,587.11201 507.14044,586.44257 508.25617,585.99628 509.59506,585.99628 511.15708,585.99628 512.27282,586.21942 513.16541,587.11201 513.83485,587.78145 514.28114,588.89719 514.28114,590.45922 514.28114,591.12866 514.28114,591.7981 513.6117,592.24439 513.16541,592.91383 512.71911,593.36013 511.82652,593.80642 512.71911,593.80642 513.38855,594.47586 514.05799,595.1453 L 514.50429,597.37677 A 4.4629384,4.4629384 0 0 1 513.16541,600.72397 C 512.27282,601.61656 510.93394,602.06286 509.59506,602.06286 508.25617,602.06286 506.91729,601.61656 506.0247,600.72397 505.13212,600.05453 504.68582,598.9388 504.68582,597.59992 H 506.69415 C 506.69415,598.49251 506.91729,599.16195 507.36359,599.60824 508.03303,600.05453 508.70247,600.27768 509.59506,600.27768 510.48764,600.27768 511.38023,600.27768 511.82652,599.60824 512.27282,599.16195 512.49597,598.26936 512.49597,597.37677 512.49597,596.48418 512.49597,595.81474 511.82652,595.1453 L 509.37191,594.69901 H 507.80988 Z M 523.87646,601.61656 H 521.64499 V 588.45089 L 517.85149,590.01292 V 588.22775 L 523.43016,585.99628 H 523.87646 Z M 568.72899,594.92215 A 8.9258768,8.9258768 0 0 1 567.61325,600.27768 C 566.72067,601.39342 565.38179,602.06286 563.81976,602.06286 562.25773,602.06286 560.91885,601.39342 560.24941,600.27768 559.35682,599.16195 558.91052,597.59992 558.91052,595.36845 V 592.69069 C 558.91052,590.45922 559.35682,588.67404 560.24941,587.55831 560.91885,586.44257 562.25773,585.99628 563.81976,585.99628 565.60493,585.99628 566.72067,586.44257 567.61325,587.55831 568.2827,588.67404 568.72899,590.23607 568.72899,592.46754 V 595.1453 Z M 566.72067,592.46754 C 566.72067,590.68236 566.72067,589.56663 566.05123,588.67404 565.60493,588.0046 564.93549,587.55831 563.81976,587.55831 562.92717,587.55831 562.03458,588.0046 561.58829,588.67404 561.14199,589.56663 560.91885,590.68236 560.91885,592.24439 V 595.36845 C 560.91885,597.15362 561.14199,598.26936 561.58829,599.16195 562.25773,600.05453 562.92717,600.27768 563.81976,600.27768 A 2.2314692,2.2314692 0 0 0 566.05123,599.16195 C 566.49752,598.49251 566.72067,597.15362 566.72067,595.5916 V 592.69069 Z M 577.87801,601.61656 H 575.86969 V 588.45089 L 571.85305,590.01292 V 588.22775 L 577.65487,585.99628 V 601.61656 Z M 622.0611,594.92215 A 8.9258768,8.9258768 0 0 1 620.94537,600.27768 C 620.05278,601.39342 618.7139,602.06286 617.15187,602.06286 615.58984,602.06286 614.25096,601.39342 613.58152,600.27768 612.68893,599.16195 612.24264,597.59992 612.24264,595.36845 V 592.69069 C 612.24264,590.45922 612.68893,588.67404 613.35837,587.55831 614.25096,586.44257 615.58984,585.99628 617.15187,585.99628 618.93705,585.99628 620.05278,586.44257 620.94537,587.55831 621.61481,588.67404 622.0611,590.23607 622.0611,592.46754 V 595.1453 Z M 620.05278,592.46754 C 620.05278,590.68236 620.05278,589.56663 619.38334,588.67404 618.93705,588.0046 618.26761,587.55831 617.15187,587.55831 616.25928,587.55831 615.3667,588.0046 614.9204,588.67404 614.47411,589.56663 614.25096,590.68236 614.25096,592.24439 V 595.36845 C 614.25096,597.15362 614.47411,598.26936 614.9204,599.16195 615.3667,600.05453 616.25928,600.27768 617.15187,600.27768 618.26761,600.27768 618.93705,600.05453 619.38334,599.16195 619.82963,598.49251 620.05278,597.15362 620.05278,595.5916 V 592.69069 Z M 634.78048,601.61656 H 624.73887 V 600.27768 L 630.09439,594.25271 631.65642,592.02124 C 632.10271,591.57495 632.10271,590.90551 632.10271,590.45922 632.10271,589.56663 632.10271,588.89719 631.43327,588.22775 630.98698,587.78145 630.31754,587.55831 629.42495,587.55831 628.53236,587.55831 627.63978,587.78145 627.19348,588.45089 626.52404,588.89719 626.30089,589.78978 626.30089,590.68236 H 624.29257 C 624.29257,589.34348 624.73887,588.22775 625.63145,587.33516 626.74719,586.44257 627.86292,585.99628 629.42495,585.99628 630.98698,585.99628 632.10271,586.21942 632.77216,587.11201 633.66474,587.78145 634.11104,588.89719 634.11104,590.01292 634.11104,591.57495 633.21845,593.58327 631.21013,595.5916 L 626.97034,600.05453 H 634.78048 V 601.83971 Z M 677.17839,594.92215 A 8.9258768,8.9258768 0 0 1 675.83951,600.27768 C 675.17007,601.39342 673.83119,602.06286 672.26916,602.06286 670.48398,602.06286 669.36825,601.39342 668.47566,600.27768 667.80622,599.16195 667.35993,597.59992 667.35993,595.36845 V 592.69069 C 667.35993,590.45922 667.58307,588.67404 668.47566,587.55831 669.36825,586.44257 670.70713,585.99628 672.26916,585.99628 673.83119,585.99628 675.17007,586.44257 675.83951,587.55831 676.7321,588.67404 677.17839,590.23607 677.17839,592.46754 V 595.1453 Z M 674.94692,592.46754 C 674.94692,590.68236 674.94692,589.56663 674.50063,588.67404 674.05434,588.0046 673.16175,587.55831 672.26916,587.55831 671.15343,587.55831 670.48398,588.0046 670.03769,588.67404 669.5914,589.56663 669.36825,590.68236 669.36825,592.24439 V 595.36845 C 669.36825,597.15362 669.36825,598.26936 670.03769,599.16195 670.48398,600.05453 671.15343,600.27768 672.26916,600.27768 A 2.2314692,2.2314692 0 0 0 674.50063,599.16195 C 674.94692,598.49251 675.17007,597.15362 675.17007,595.5916 V 592.69069 Z M 682.53392,592.91383 H 684.09595 C 684.98853,592.91383 685.65798,592.91383 686.32742,592.24439 686.77371,591.7981 686.99686,591.12866 686.99686,590.23607 686.99686,588.45089 686.10427,587.55831 684.31909,587.55831 683.42651,587.55831 682.75707,587.78145 682.08762,588.22775 681.86448,588.89719 681.41818,589.34348 681.41818,590.23607 H 679.63301 C 679.63301,588.89719 680.0793,588.0046 680.97189,587.11201 681.86448,586.44257 682.98021,585.99628 684.31909,585.99628 685.88112,585.99628 686.99686,586.21942 687.88944,587.11201 688.55889,587.78145 689.00518,588.89719 689.00518,590.45922 689.00518,591.12866 689.00518,591.7981 688.33574,592.24439 687.88944,592.91383 687.44315,593.36013 686.55056,593.80642 687.44315,593.80642 688.11259,594.47586 688.55889,595.1453 689.00518,595.81474 689.22833,596.48418 689.22833,597.37677 A 4.4629384,4.4629384 0 0 1 687.88944,600.72397 C 686.99686,601.61656 685.65798,602.06286 684.31909,602.06286 682.98021,602.06286 681.64133,601.61656 680.74874,600.72397 679.85616,600.05453 679.40986,598.9388 679.40986,597.59992 H 681.41818 C 681.41818,598.49251 681.64133,599.16195 682.08762,599.60824 682.75707,600.05453 683.42651,600.27768 684.31909,600.27768 685.21168,600.27768 686.10427,600.27768 686.55056,599.60824 686.99686,599.16195 687.22,598.26936 687.22,597.37677 687.22,596.48418 687.22,595.81474 686.55056,595.1453 L 684.09595,594.69901 H 682.53392 Z"
             fill="#9ca7b4"
             id="path18"
             style="stroke-width:2.23147" />
          <path
             d="M 342.45801,387.17237 A 2.2314692,2.2314692 0 0 0 341.56542,385.3872 L 338.88766,384.04832 335.54046,382.70943 C 333.97843,381.81685 333.30899,380.47796 333.30899,378.91594 333.30899,377.57705 333.75528,376.23817 334.87102,375.34559 A 6.6944076,6.6944076 0 0 1 339.33396,374.0067 C 340.44969,374.0067 341.56542,374.22985 342.45801,374.67614 343.3506,375.12244 344.02004,375.79188 344.68948,376.68447 345.13578,377.35391 345.35892,378.2465 345.35892,379.36223 H 342.45801 C 342.45801,378.46964 342.23487,377.8002 341.56542,377.13076 341.11913,376.68447 340.22654,376.46132 339.33396,376.46132 338.21822,376.46132 337.54878,376.68447 337.10249,377.13076 A 2.2314692,2.2314692 0 0 0 336.2099,378.91594 C 336.2099,379.36223 336.2099,380.03167 337.10249,380.47796 337.54878,380.92426 338.44137,381.14741 339.78025,381.5937 L 343.12745,382.93258 344.91263,384.71776 C 345.35892,385.3872 345.35892,386.27978 345.35892,386.94923 345.35892,388.51125 344.91263,389.62699 343.79689,390.51958 342.68116,391.41216 341.11913,391.63531 339.33396,391.63531 337.99507,391.63531 337.10249,391.63531 335.98675,390.96587 334.87102,390.51958 333.97843,389.85014 333.53214,389.18069 332.86269,388.28811 332.63955,387.39552 332.63955,386.27978 H 335.54046 C 335.54046,387.17237 335.98675,388.06496 336.65619,388.51125 337.10249,389.18069 338.21822,389.40384 339.33396,389.40384 340.44969,389.40384 341.11913,389.18069 341.56542,388.7344 342.23487,388.28811 342.45801,387.84181 342.45801,387.17237 Z M 355.40053,390.29643 A 4.4629384,4.4629384 0 0 1 351.83018,391.63531 C 350.4913,391.63531 349.59871,391.41216 348.70613,390.51958 348.03669,389.62699 347.81354,388.51125 347.81354,386.94923 V 378.69279 H 350.4913 V 386.94923 C 350.4913,388.51125 351.16074,389.40384 352.72277,389.40384 354.06165,389.40384 354.95424,388.95755 355.40053,387.84181 V 378.91594 H 358.30144 V 391.41216 H 355.62368 V 390.29643 Z"
             fill="#fd6559"
             id="path20"
             style="stroke-width:2.23147" />
          <path
             d="M 389.54201,374.22985 395.12069,388.28811 400.69936,374.22985 H 403.60027 V 391.41216 H 401.3688 V 377.57705 L 396.01327,391.41216 H 394.2281 L 388.64942,377.57705 V 391.41216 H 386.41796 V 374.22985 Z M 406.50118,385.16405 C 406.50118,383.82517 406.94747,382.70943 407.39377,381.5937 407.84006,380.70111 408.5095,379.80852 409.62524,379.36223 410.29468,378.69279 411.41041,378.46964 412.52615,378.46964 414.31132,378.46964 415.6502,379.13908 416.76594,380.25482 417.88167,381.5937 418.32797,383.15573 418.32797,385.16405 418.32797,386.50293 418.10482,387.61867 417.65852,388.51125 A 5.3555261,5.3555261 0 0 1 412.52615,391.63531 C 410.74097,391.63531 409.40209,391.18902 408.28635,389.85014 407.17062,388.7344 406.72433,387.17237 406.72433,385.16405 Z M 408.73265,385.16405 C 408.73265,386.72608 409.17894,387.84181 409.84838,388.7344 410.51782,389.62699 411.41041,389.85014 412.52615,389.85014 413.64188,389.85014 414.53447,389.62699 415.20391,388.7344 415.87335,387.84181 416.0965,386.50293 416.0965,384.9409 416.0965,383.60202 415.87335,382.48629 415.20391,381.5937 414.53447,380.70111 413.64188,380.25482 412.52615,380.25482 411.41041,380.25482 410.51782,380.70111 409.84838,381.5937 409.17894,382.48629 408.95579,383.82517 408.95579,385.16405 Z M 457.60182,376.23817 H 452.02315 V 391.41216 H 449.79168 V 376.23817 H 444.21301 V 374.0067 H 457.60182 V 376.01503 Z M 466.5277,390.29643 C 465.63511,391.18902 464.29623,391.63531 462.7342,391.63531 461.39532,391.63531 460.50273,391.41216 459.61015,390.51958 458.9407,389.85014 458.49441,388.51125 458.49441,386.94923 V 378.69279 H 460.72588 V 386.94923 C 460.72588,388.95755 461.61847,389.85014 462.95735,389.85014 464.74252,389.85014 465.85826,389.18069 466.5277,388.06496 V 378.46964 H 468.75917 V 391.18902 H 466.5277 V 390.07328 Z M 502.90065,386.05664 503.34694,388.28811 503.79324,386.27978 507.14044,374.22985 H 509.14876 L 512.27282,386.27978 512.94226,388.51125 513.16541,386.27978 515.84317,374.0067 H 518.07464 L 514.05799,391.18902 H 511.82652 L 508.47932,378.69279 508.03303,377.35391 V 378.69279 L 504.23953,391.18902 H 502.00806 L 497.99142,374.0067 H 500.22288 L 502.90065,385.83349 Z M 525.21534,391.85846 C 523.43016,391.85846 522.09128,391.18902 520.97555,390.07328 519.85981,388.95755 519.41352,387.39552 519.41352,385.61034 V 385.16405 C 519.41352,383.82517 519.63667,382.70943 520.08296,381.5937 520.52925,380.70111 521.1987,379.80852 522.31443,379.36223 522.98387,378.69279 523.87646,378.46964 524.99219,378.46964 526.55422,378.46964 527.8931,379.13908 528.78569,380.03167 529.67828,381.14741 530.34772,382.70943 530.34772,384.9409 V 385.83349 H 521.42184 C 521.42184,386.94923 522.09128,388.06496 522.76072,388.7344 523.43016,389.62699 524.32275,389.85014 525.43849,389.85014 526.10793,389.85014 526.77737,389.85014 527.44681,389.40384 L 528.78569,388.28811 530.12457,389.18069 C 529.00884,390.96587 527.44681,391.63531 525.21534,391.63531 Z M 524.99219,380.25482 C 524.09961,380.25482 523.43016,380.70111 522.76072,381.37055 A 4.4629384,4.4629384 0 0 0 521.64499,384.04832 H 528.11625 V 383.82517 C 528.11625,382.70943 527.66996,381.81685 527.22366,381.14741 526.55422,380.70111 525.88478,380.25482 524.99219,380.25482 Z M 570.06787,376.23817 H 564.4892 V 391.41216 H 562.25773 V 376.23817 H 556.67906 V 374.0067 H 570.06787 V 376.01503 Z M 574.30766,380.25482 A 4.4629384,4.4629384 0 0 1 578.10116,378.46964 C 580.77892,378.46964 582.1178,380.03167 582.34095,382.93258 V 391.41216 H 580.10948 V 383.15573 C 580.10948,382.03999 579.88634,381.37055 579.44004,380.92426 578.99375,380.47796 578.32431,380.25482 577.43172,380.25482 576.76228,380.25482 576.09284,380.47796 575.64654,380.92426 L 574.30766,382.48629 V 391.41216 H 572.07619 V 373.56041 H 574.30766 Z M 623.84628,383.82517 H 616.25928 V 391.41216 H 614.02781 V 374.22985 H 624.73887 V 376.23817 H 616.25928 V 382.03999 H 623.62313 V 383.82517 Z M 633.21845,380.70111 A 6.6944076,6.6944076 0 0 0 632.10271,380.70111 C 630.76383,380.70111 629.87125,381.14741 629.2018,382.48629 V 391.41216 H 626.97034 V 378.69279 H 629.2018 V 380.25482 C 629.87125,379.13908 630.98698,378.46964 632.32586,378.46964 H 633.21845 Z M 672.49231,383.82517 C 670.26084,383.37887 668.92196,382.70943 668.02937,381.5937 667.35993,380.92426 666.91363,380.03167 666.91363,378.69279 666.91363,377.35391 667.35993,376.46132 668.47566,375.34559 669.5914,374.453 670.93028,374.0067 672.71545,374.0067 673.83119,374.0067 674.94692,374.22985 675.83951,374.67614 676.7321,375.12244 677.40154,375.79188 678.07098,376.68447 678.51727,377.35391 678.74042,378.2465 678.74042,379.36223 H 676.50895 C 676.50895,378.2465 676.06266,377.35391 675.39322,376.90761 674.72378,376.23817 673.83119,376.01503 672.71545,376.01503 671.59972,376.01503 670.48398,376.01503 670.03769,376.68447 669.36825,377.13076 669.1451,377.8002 669.1451,378.91594 669.1451,379.36223 669.36825,380.03167 670.03769,380.47796 L 672.9386,381.81685 676.2858,383.15573 C 677.17839,383.60202 677.84783,384.27146 678.07098,384.9409 678.51727,385.61034 678.74042,386.27978 678.74042,387.17237 678.74042,388.51125 678.29413,389.62699 677.17839,390.51958 676.06266,391.41216 674.50063,391.63531 672.71545,391.63531 671.59972,391.63531 670.48398,391.63531 669.36825,390.96587 668.47566,390.51958 667.58307,390.07328 667.13678,389.18069 A 4.4629384,4.4629384 0 0 1 666.24419,386.50293 H 668.47566 C 668.47566,387.61867 668.92196,388.28811 669.5914,388.95755 670.48398,389.62699 671.59972,389.85014 672.71545,389.85014 674.05434,389.85014 674.94692,389.62699 675.61636,389.18069 676.06266,388.7344 676.50895,388.06496 676.50895,386.94923 A 2.2314692,2.2314692 0 0 0 675.61636,385.16405 Z M 689.22833,391.41216 A 4.4629384,4.4629384 0 0 1 689.00518,390.07328 C 687.88944,391.18902 686.77371,391.63531 685.21168,391.63531 A 4.4629384,4.4629384 0 0 1 682.08762,390.74272 C 681.41818,389.85014 680.97189,388.95755 680.97189,388.06496 680.97189,386.72608 681.41818,385.61034 682.53392,384.9409 683.42651,384.04832 684.76539,383.82517 686.77371,383.82517 H 689.00518 V 382.70943 A 2.2314692,2.2314692 0 0 0 688.11259,380.92426 C 687.6663,380.47796 686.99686,380.25482 686.10427,380.25482 685.43483,380.25482 684.76539,380.25482 684.09595,380.92426 683.64965,381.14741 683.42651,381.81685 683.42651,382.26314 H 681.19504 C 681.19504,381.5937 681.41818,380.92426 681.86448,380.47796 L 683.64965,378.91594 686.32742,378.46964 C 687.6663,378.46964 689.00518,378.91594 689.67462,379.58538 690.56721,380.25482 691.0135,381.37055 691.0135,382.70943 V 388.51125 C 691.0135,389.62699 691.0135,390.74272 691.4598,391.41216 Z M 685.65798,389.85014 C 686.32742,389.85014 686.99686,389.85014 687.44315,389.40384 688.11259,388.95755 688.55889,388.51125 688.78203,387.84181 V 385.3872 H 687.22 C 684.54224,385.3872 683.20336,386.05664 683.20336,387.61867 683.20336,388.28811 683.20336,388.95755 683.8728,389.18069 684.31909,389.62699 684.76539,389.85014 685.65798,389.85014 Z"
             fill="#198bdd"
             id="path22"
             style="stroke-width:2.23147" />
          <path
             d="M 417.21223,272.92115 C 417.21223,269.57395 412.97244,266.67304 408.06321,266.67304 403.15397,266.67304 399.13733,269.57395 399.13733,272.92115 V 307.50892 C 399.13733,310.85613 403.15397,313.75704 408.06321,313.75704 412.97244,313.75704 416.98908,310.85613 416.98908,307.50892 V 272.92115 Z M 626.97034,272.92115 C 626.97034,269.57395 623.39998,266.67304 618.93705,266.67304 614.47411,266.67304 610.68061,269.57395 610.68061,272.92115 V 307.50892 C 610.68061,310.85613 614.25096,313.75704 618.93705,313.75704 623.39998,313.75704 626.97034,310.85613 626.97034,307.50892 Z"
             fill="#a9dbff"
             id="path24"
             style="stroke-width:2.23147" />
          <path
             d="M 353.39221,451.21554 353.83851,461.70344 A 15.620284,15.620284 0 0 1 347.81354,466.16638 C 347.81354,466.16638 341.56542,463.04233 338.88766,458.13309 338.88766,453.22386 339.33396,444.74428 338.88766,442.73596 343.3506,446.97575 353.39221,451.21554 353.39221,451.21554 Z"
             fill="#ffbeac"
             id="path26"
             style="stroke-width:2.23147" />
          <path
             d="M 603.9862,539.80487 602.64732,537.1271 594.61403,540.69745 596.17606,543.37522 Z M 705.51805,510.79577 703.73288,508.5643 711.09672,504.10136 712.65875,506.55597 705.2949,511.01891 Z"
             fill="#f2f2f2"
             id="path28"
             style="stroke-width:2.23147" />
          <path
             d="M 313.22577,664.54399 A 117.48707,117.48707 0 1 0 313.67206,429.57029 117.48707,117.48707 0 0 0 313.22577,664.54399 Z"
             fill="#fd6559"
             id="path30"
             style="stroke-width:2.23147" />
          <path
             d="M 313.22577,654.72553 A 107.7802,107.7802 0 1 0 313.67206,439.1656 107.7802,107.7802 0 0 0 313.22577,654.72553 Z"
             fill="#ffffff"
             id="path32"
             style="stroke-width:2.23147" />
          <path
             fill-rule="evenodd"
             clip-rule="evenodd"
             d="M 312.77947,439.6119 313.22577,547.16871 259.00106,640.22098 A 108.22626,108.22626 0 0 0 421.22888,547.16871 M 421.22888,547.16871 A 108.22626,108.22626 0 0 0 313.22577,439.6119 H 312.77947"
             fill="#ffffff"
             id="path34"
             style="stroke-width:2.23147" />
          <path
             d="M 314.11835,542.25948 271.27414,568.36767 A 3.3472038,3.3472038 0 0 0 272.16673,574.39264 C 273.05932,574.61579 273.95191,574.39264 274.8445,574.16949 L 317.6887,548.0613 Z"
             fill="#091521"
             id="path36"
             style="stroke-width:2.23147" />
          <path
             d="M 269.93526,617.23685 A 1.7851754,1.7851754 0 0 0 270.6047,619.46832 1.7851754,1.7851754 0 0 0 272.83617,618.79888 L 314.56465,549.17704 311.66374,547.39186 Z"
             fill="#091521"
             id="path38"
             style="stroke-width:2.23147" />
          <path
             d="M 309.87856,552.97053 A 6.7176124,6.7176124 0 1 1 318.80444,542.92892 6.6944076,6.6944076 0 0 1 312.33318,554.08627 6.6944076,6.6944076 0 0 1 309.87856,552.97053 Z"
             fill="#384c72"
             id="path40"
             style="stroke-width:2.23147" />
          <path
             d="M 301.62213,562.789 300.95269,563.23529 300.28324,563.01215 A 0.89258768,0.89258768 0 0 1 300.28324,561.67326 L 369.68194,478.88576 370.35138,478.66261 H 371.02082 L 371.24397,479.33205 V 480.00149 L 301.39898,562.789 Z"
             fill="#fd6559"
             id="path42"
             style="stroke-width:2.23147" />
          <path
             d="M 311.44059,550.29277 A 3.3472038,3.3472038 0 0 1 310.77115,544.93724 3.3472038,3.3472038 0 1 1 314.11835,550.51592 C 313.22577,550.51592 312.33318,550.51592 311.44059,550.06962 Z"
             fill="#fd6559"
             id="path44"
             style="stroke-width:2.23147" />
          <path
             d="M 411.41041,549.84648 A 2.90091,2.90091 0 0 1 412.07985,544.2678 3.1240569,3.1240569 0 0 1 415.20391,545.38354 2.90091,2.90091 0 0 1 413.64188,549.84648 2.90091,2.90091 0 0 1 411.41041,549.84648 Z M 399.58362,500.53101 A 2.90091,2.90091 0 0 1 396.68271,496.96066 2.90091,2.90091 0 0 1 398.91418,494.72919 2.90091,2.90091 0 0 1 402.03824,495.84492 2.90091,2.90091 0 0 1 401.59195,499.63842 C 401.14565,500.08471 400.25306,500.53101 399.36048,500.53101 Z M 364.54956,463.71177 A 3.1240569,3.1240569 0 0 1 361.20235,463.71177 3.0021372,3.0021372 0 1 1 365.66529,459.69512 2.90091,2.90091 0 0 1 364.54956,463.71177 Z M 315.90353,449.43036 A 2.90091,2.90091 0 0 1 312.77947,450.76924 2.90091,2.90091 0 0 1 310.548,448.53778 2.90091,2.90091 0 0 1 313.00262,444.96742 2.90091,2.90091 0 0 1 316.12668,448.31463 Z M 266.36491,461.034 A 2.90091,2.90091 0 0 1 264.57974,463.93491 2.90091,2.90091 0 0 1 260.56309,461.70344 2.90091,2.90091 0 0 1 263.464,458.13309 2.90091,2.90091 0 0 1 266.36491,461.25715 Z M 229.54567,496.06807 A 2.90091,2.90091 0 0 1 226.19847,500.53101 2.90091,2.90091 0 0 1 223.967,497.85324 2.90091,2.90091 0 0 1 227.7605,494.72919 2.90091,2.90091 0 0 1 229.54567,496.06807 Z M 215.04112,544.49095 A 2.90091,2.90091 0 0 1 216.60315,547.61501 2.90091,2.90091 0 0 1 214.37168,549.84648 2.90091,2.90091 0 0 1 210.57818,547.39186 2.90091,2.90091 0 0 1 212.80965,544.2678 3.1240569,3.1240569 0 0 1 215.04112,544.49095 Z M 226.86791,593.80642 A 2.90091,2.90091 0 0 1 229.09938,598.9388 2.90091,2.90091 0 0 1 223.967,596.70733 2.90091,2.90091 0 0 1 226.86791,593.80642 Z M 261.90197,630.62566 A 2.90091,2.90091 0 0 1 266.36491,633.97287 2.90091,2.90091 0 0 1 261.90197,635.75804 2.90091,2.90091 0 0 1 261.90197,630.62566 Z M 310.548,644.90706 A 3.04741,3.04741 0 0 1 316.12668,647.36168 3.0042107,3.0042107 0 1 1 310.548,645.13021 Z M 360.08662,633.08028 A 2.90091,2.90091 0 0 1 365.219,631.07196 2.90091,2.90091 0 0 1 362.98753,636.20433 2.90091,2.90091 0 0 1 360.08662,633.08028 Z M 396.90586,598.26936 A 2.9708734,2.9708734 0 0 1 401.81509,594.92215 2.90091,2.90091 0 0 1 400.02992,599.83139 3.1240569,3.1240569 0 0 1 396.90586,598.26936 Z"
             fill="#384c72"
             id="path46"
             style="stroke-width:2.23147" />
          <path
             d="M 612.24264,443.18225 C 612.24264,443.18225 604.20935,454.78589 605.99452,465.72009 607.11026,468.39785 618.93705,471.9682 624.73887,464.60435 628.08607,465.94324 629.6481,459.91827 629.87125,458.13309 629.87125,456.57106 626.97034,457.01736 626.07775,458.35624 627.63978,451.88498 629.42495,446.97575 627.41663,445.63687 625.18516,444.07484 613.58152,440.95078 612.24264,443.18225 Z"
             fill="#ffbeac"
             id="path50"
             style="stroke-width:2.23147" />
          <path
             d="M 613.35837,432.91749 C 615.14355,434.47952 616.92872,435.59525 618.93705,436.71099 617.59816,435.59525 617.59816,433.36378 618.49075,433.36378 619.38334,433.36378 620.72222,434.92581 623.62313,436.48784 626.30089,437.82672 637.68139,436.48784 636.56565,442.28966 639.02027,443.4054 641.25174,446.52945 639.24342,451.43869 639.02027,455.23218 632.77216,465.72009 630.31754,467.50526 626.52404,469.73673 622.73054,466.83582 621.39166,465.94324 620.27593,465.27379 619.38334,463.48862 620.49907,460.58771 621.61481,457.6868 622.28425,453.67015 620.49907,453.44701 618.7139,453.44701 617.37502,457.01736 617.37502,457.01736 L 616.25928,456.57106 C 616.92872,454.3396 616.92872,452.33127 616.25928,450.32295 615.81299,448.53778 615.81299,446.52945 615.81299,444.74428 H 616.25928 A 8.9258768,8.9258768 0 0 1 611.79634,440.72763 C 608.89543,435.37211 611.79634,431.80176 613.35837,432.91749 Z M 630.54069,658.51903 637.90453,662.31252 C 639.91286,662.98197 637.90453,672.35414 636.56565,672.80043 A 3.5703507,3.5703507 0 0 0 634.55733,677.26337 C 635.22677,679.49484 633.21845,692.43736 628.53236,696.00771 623.62313,699.57806 623.62313,695.78456 624.06943,691.32162 624.73887,686.85869 626.30089,671.90784 623.17684,667.66805 619.82963,663.65141 630.54069,658.74217 630.54069,658.74217 Z M 619.60649,686.41239 C 619.60649,686.41239 620.94537,695.56142 620.27593,697.56974 619.38334,699.80121 611.5732,699.13177 609.34173,698.68547 A 2.2314692,2.2314692 0 0 1 607.7797,696.9003 V 695.11512 A 12.049934,12.049934 0 0 1 597.51494,692.88365 C 594.61403,689.7596 595.50662,683.95778 601.08529,685.9661 603.76306,686.85869 606.44082,689.7596 609.34173,685.9661 611.5732,684.85036 619.60649,686.63554 619.60649,686.63554 Z"
             fill="#091521"
             id="path52"
             style="stroke-width:2.23147" />
          <path
             d="M 590.82053,558.32606 C 590.82053,558.32606 586.3576,610.31929 586.80389,618.12943 587.47333,625.71643 606.66397,656.28756 623.84628,671.01525 626.74719,667.22176 629.42495,663.42826 631.87957,659.18847 631.87957,659.18847 611.1269,627.50161 606.88711,622.59237 602.87047,617.68314 615.3667,578.18614 618.7139,566.80564 621.83796,555.6483 590.82053,558.32606 590.82053,558.32606 Z"
             fill="#384c72"
             id="path54"
             style="stroke-width:2.23147" />
          <path
             d="M 637.90453,565.46676 631.87957,614.78223 C 629.6481,631.51825 621.83796,683.95778 621.83796,687.08183 616.03614,689.98274 606.21767,687.08183 606.21767,687.08183 606.21767,687.08183 612.01949,634.19601 612.24264,624.6007 612.68893,615.45167 609.34173,574.83893 609.34173,574.83893 L 611.1269,561.22697 Z"
             fill="#384c72"
             id="path56"
             style="stroke-width:2.23147" />
          <path
             d="M 647.05356,483.12555 C 647.05356,483.12555 657.54146,517.71332 658.2109,524.40773 659.10349,531.10214 639.68971,564.12788 639.68971,564.12788 L 630.54069,553.41683 644.3758,525.30032 637.90453,507.89486 Z"
             fill="#33a9ff"
             id="path58"
             style="stroke-width:2.23147" />
          <path
             d="M 629.6481,473.53023 C 629.6481,472.19135 629.2018,470.85247 628.75551,469.51359 628.53236,469.06729 623.39998,466.16638 612.68893,469.06729 611.1269,469.51359 610.45746,473.53023 610.45746,473.53023 H 629.87125 Z"
             fill="#f2f2f2"
             id="path60"
             style="stroke-width:2.23147" />
          <path
             d="M 647.05356,483.12555 C 647.05356,483.12555 633.21845,475.09226 629.87125,472.63764 626.52404,470.40617 614.69725,470.40617 611.5732,471.29876 607.55655,472.4145 590.37424,474.19967 589.7048,474.19967 587.02704,483.57184 587.91962,494.28289 589.7048,499.19213 591.48998,504.10136 595.06033,529.31696 594.16774,534.89563 A 186.32768,186.32768 0 0 1 585.46501,558.77235 C 594.83718,570.82229 622.73054,572.16117 641.69803,569.26026 640.80544,550.06962 637.23509,541.81319 636.56565,531.32528 636.11936,524.63087 637.90453,517.49017 641.47489,511.46521 648.61559,498.07639 647.05356,483.12555 647.05356,483.12555 Z"
             fill="#33a9ff"
             id="path62"
             style="stroke-width:2.23147" />
          <path
             d="M 538.15786,456.12477 C 538.15786,456.12477 533.47178,453.44701 533.02548,451.88498 532.57919,449.65351 531.6866,447.42204 530.57087,445.19057 A 20.97581,20.97581 0 0 0 526.33107,441.39707 C 525.88478,440.95078 524.76905,442.73596 526.77737,444.74428 528.11625,446.08316 527.66996,446.7526 527.66996,446.7526 527.66996,446.7526 521.1987,440.05819 517.85149,438.27302 517.4052,437.82672 515.62002,438.71931 517.4052,440.50449 L 521.86814,444.96742 C 520.52925,445.41372 519.85981,446.7526 520.30611,447.19889 518.74408,447.64519 518.74408,448.76092 518.96723,449.43036 517.85149,449.87666 517.85149,451.43869 518.29779,452.33127 518.74408,453.22386 520.08296,455.67848 525.88478,456.79421 529.00884,456.79421 533.02548,460.81086 533.02548,460.81086 L 537.93471,456.34792 Z"
             fill="#ffbeac"
             id="path64"
             style="stroke-width:2.23147" />
          <path
             d="M 535.4801,453.22386 533.24863,451.21554 527.8931,458.35624 530.57087,460.14142 535.4801,453.44701 Z"
             fill="#f2f2f2"
             id="path66"
             style="stroke-width:2.23147" />
          <path
             d="M 589.92795,474.19967 C 589.92795,474.19967 564.0429,472.4145 560.24941,470.62932 556.45591,469.06729 535.0338,452.33127 535.0338,452.33127 535.0338,452.33127 529.67828,459.02568 529.45513,459.91827 539.2736,472.63764 551.99297,482.23296 556.00961,483.79499 559.80311,485.35702 591.26683,496.73751 593.94459,497.1838 591.93627,490.93569 589.7048,483.79499 589.92795,474.19967 Z"
             fill="#33a9ff"
             id="path68"
             style="stroke-width:2.23147" />
        </g>
      </g>
    </g>
  </g>
</svg>
