<svg xmlns="http://www.w3.org/2000/svg" width="1540" height="830" stroke="#000" stroke-linecap="round" stroke-linejoin="round" fill="#fff" fill-rule="evenodd"><style><![CDATA[.B{fill:#ff5a5f}.C{stroke:none}.D{fill:none}.E{stroke:#fff}.F{stroke-width:15}]]></style><path d="M2.0198 0h997.2169v542.6922H2.0198z" class="B C"/><path d="M201.463 446.8659h498.609m-498.609-95.826h631.5681" class="D E F"/><path d="M1070 0h470v252.6326h-470z" class="B C"/><path d="M1163.9999 206.6994h235.0003m-235.0003-45.9331h297.6676" class="D E F"/><path d="M0 578.9294h470V830H0z" class="B C"/><path d="M93.9999 784.3507h235.0003M93.9999 738.7016h297.6676" class="D E F"/><path d="M530 578.9294h470V830H530z" class="B C"/><path d="M623.9999 784.3507h235.0003m-235.0003-45.6491h297.6676" class="D E F"/><path d="M1070 578.9294h470V830h-470z" class="B C"/><path d="M1163.9999 784.3507h235.0003m-235.0003-45.6491h297.6676" class="D E F"/><path d="M1070 290.0597h470v252.6326h-470z" class="B C"/><path d="M1163.9999 496.7591h235.0003m-235.0003-45.9331h297.6676" class="D E F"/></svg>