<svg xmlns="http://www.w3.org/2000/svg" width="980" height="526" stroke="#000" stroke-linecap="round" stroke-linejoin="round" fill="#fff" fill-rule="evenodd"><style><![CDATA[.B{fill:none}.C{stroke:#fff}.D{stroke-width:15}.E{fill:#ff5a5f}.F{stroke:none}]]></style><path d="M47.3077 469.0256h224.0886M47.3077 410.5353h283.8459" class="B C D"/><path d="M0 0h220v525.3087H0z" class="E F"/><path d="M25.3846 469.0256H145.627M25.3846 410.5353h152.3073" class="B C D"/><path d="M255 0h220v525.3087H255z" class="E F"/><path d="M280.3846 469.0256H400.627m-120.2424-58.4903h152.3073" class="B C D"/><path d="M760 0h220v250.3087H760z" class="E F"/><path d="M804 193.7815h110m-110-39.7292h139.3337M804 483.2978h110m-110-39.7293h139.3337" class="B C D"/><path d="M505 0h220v525.3087H505z" class="E F"/><path d="M530.3846 469.0256H650.627m-120.2424-58.4903h152.3073" class="B C D"/><path d="M760 275.3087h220v250.3087H760z" class="E F"/><path d="M804 469.0902h110M804 429.361h139.3337" class="B C D"/></svg>