<svg xmlns="http://www.w3.org/2000/svg" width="1550" height="840" stroke="#000" stroke-linecap="round" stroke-linejoin="round" fill="#fff" fill-rule="evenodd"><style><![CDATA[.B{fill:#ff5a5f}.C{stroke:none}.D{fill:none}.E{stroke:#fff}.F{stroke-width:15}]]></style><path d="M0 0h349.2022v390H0z" class="B C"/><path d="M68.0753 319.0908h164.1076m-164.1076-60.909h207.8699" class="D E F"/><path d="M400 0h350v390H400z" class="B C"/><path d="M447.4275 319.0909h164.1076m-164.1076-60.909h207.8699" class="D E F"/><path d="M0 450h349.2022v390H0z" class="B C"/><path d="M68.0753 769.0908h164.1076m-164.1076-60.909h207.8699" class="D E F"/><path d="M400 450h350v390H400z" class="B C"/><path d="M447.4275 769.0909h164.1076m-164.1076-60.909h207.8699" class="D E F"/><path d="M800 450h349.2022v390H800z" class="B C"/><path d="M868.0753 769.0908h164.1076m-164.1076-60.909h207.8699" class="D E F"/><path d="M1200 450h350v390h-350z" class="B C"/><path d="M1247.4275 769.0909h164.1076m-164.1076-60.909h207.8699" class="D E F"/><path d="M800 2.1622h750V390H800z" class="B C"/><g class="E F"><path d="M949.2112 318.5846h373.0289"/><path d="M949.2112 250.7309h472.5007" class="D"/></g></svg>