<svg width="309px" height="109px" viewBox="0 0 133 40" version="1.1" xmlns="http://www.w3.org/2000/svg"
    xmlns:xlink="http://www.w3.org/1999/xlink">
    <!-- Generator: sketchtool 49.3 (51167) - http://www.bohemiancoding.com/sketch -->
    <title>1F15E9A5-29B2-43A1-82B9-61A286F6100E</title>
    <desc>OneTrust Logo</desc>
    <defs></defs>
    <g id="Page-1" stroke="none" stroke-width="1" fill="none" fill-rule="evenodd">
        <g id="spacing" transform="translate(-156.000000, -10.000000)" fill="#FFFFFE">
            <g id="OneTrust-Logo_PMS_White" transform="translate(156.000000, 10.000000)">
                <path d="M2.98956225,11.688 C2.98956225,14.6784 3.62732129,16.9466667 4.90337349,18.4922667 C6.17835743,20.0384 8.03181124,20.8112 10.4621325,20.8112 C12.912751,20.8112 14.7635341,20.0405333 16.0134137,18.4997333 C17.2638273,16.9594667 17.8893012,14.6885333 17.8893012,11.688 C17.8893012,8.71786667 17.266498,6.46453333 16.0208916,4.92906667 C14.7758193,3.3936 12.9330482,2.6256 10.4925783,2.6256 C8.04195984,2.6256 6.17835743,3.3984 4.90337349,4.944 C3.62732129,6.4896 2.98956225,8.7376 2.98956225,11.688 Z M20.6123293,11.688 C20.6123293,15.2224 19.7171165,18.0016 17.9266908,20.0256 C16.1373333,22.0496 13.6487912,23.0613333 10.4621325,23.0613333 C7.20443373,23.0613333 4.69132129,22.0672 2.92119277,20.0784 C1.15159839,18.0896 0.266534137,15.2826667 0.266534137,11.6576 C0.266534137,8.06293333 1.15373494,5.27626667 2.92867068,3.2976 C4.70414056,1.31893333 7.22473092,0.3296 10.4925783,0.3296 C13.6690884,0.3296 16.1496185,1.33653333 17.9347028,3.3504 C19.7197871,5.3648 20.6123293,8.144 20.6123293,11.688 Z"
                    id="Fill-1"></path>
                <path d="M36.5103695,22.7594667 L36.5103695,12.0506667 C36.5103695,10.7013333 36.2027068,9.6944 35.5879157,9.02986667 C34.9731245,8.36533333 34.0095422,8.03306667 32.6987711,8.03306667 C30.9644297,8.03306667 29.6937189,8.5008 28.8866386,9.43733333 C28.0795582,10.3738667 27.6762851,11.92 27.6762851,14.0746667 L27.6762851,22.7594667 L25.1653092,22.7594667 L25.1653092,6.20533333 L27.2073133,6.20533333 L27.6159277,8.47093333 L27.7371767,8.47093333 C28.2515502,7.65546667 28.9721004,7.02346667 29.8998956,6.57546667 C30.8282249,6.12746667 31.861245,5.90293333 33.0010924,5.90293333 C34.9976948,5.90293333 36.500755,6.384 37.5092048,7.3456 C38.5171205,8.3072 39.0218795,9.84533333 39.0218795,11.96 L39.0218795,22.7594667 L36.5103695,22.7594667"
                    id="Fill-2"></path>
                <path d="M50.5031446,8.00266667 C49.1720763,8.00266667 48.1102129,8.43573333 47.3191566,9.30133333 C46.5270321,10.1674667 46.0607309,11.3658667 45.9197189,12.8965333 L54.5871526,12.8965333 C54.5871526,11.3157333 54.2340884,10.1045333 53.528494,9.264 C52.8228996,8.42346667 51.8139157,8.00266667 50.5031446,8.00266667 Z M51.1836345,23.0613333 C48.7330161,23.0613333 46.7994418,22.3162667 45.3829116,20.8261333 C43.9658474,19.336 43.2570482,17.2666667 43.2570482,14.6181333 C43.2570482,11.9498667 43.9151044,9.8304 45.231751,8.2592 C46.5473293,6.68853333 48.3147871,5.90293333 50.5330562,5.90293333 C52.6108474,5.90293333 54.2543855,6.5856 55.464739,7.94986667 C56.6745582,9.31413333 57.2797349,11.1141333 57.2797349,13.3493333 L57.2797349,14.9354667 L45.8588273,14.9354667 C45.9095703,16.8789333 46.4009759,18.3541333 47.3335783,19.3610667 C48.2667149,20.368 49.5801566,20.8714667 51.2744378,20.8714667 C53.0595221,20.8714667 54.8243092,20.4992 56.5687992,19.7536 L56.5687992,21.9888 C55.6815984,22.3717333 54.8419357,22.6458667 54.0498112,22.8122667 C53.258755,22.9781333 52.3031847,23.0613333 51.1836345,23.0613333 Z"
                    id="Fill-3"></path>
                <polyline id="Fill-4" points="68.7460442 22.7594667 66.1747108 22.7594667 66.1747108 2.95786667 59.1705783 2.95786667 59.1705783 0.677333333 75.7496426 0.677333333 75.7496426 2.95786667 68.7460442 2.95786667 68.7460442 22.7594667"></polyline>
                <path d="M86.2630522,5.90293333 C86.9990924,5.90293333 87.6598193,5.96373333 88.2446988,6.08426667 L87.8969759,8.41066667 C87.2106104,8.2592 86.6059679,8.184 86.0814458,8.184 C84.7402289,8.184 83.5934378,8.72746667 82.640004,9.81493333 C81.6876386,10.9024 81.2106546,12.2570667 81.2106546,13.8778667 L81.2106546,22.7594667 L78.6996787,22.7594667 L78.6996787,6.20533333 L80.7721285,6.20533333 L81.059494,9.27146667 L81.1802088,9.27146667 C81.7955341,8.19413333 82.5363815,7.3632 83.4038193,6.7792 C84.271257,6.1952 85.2246908,5.90293333 86.2630522,5.90293333"
                    id="Fill-5"></path>
                <path d="M93.7057108,6.20533333 L93.7057108,16.9445333 C93.7057108,18.2938667 94.0133735,19.3002667 94.6281647,19.9653333 C95.24349,20.6298667 96.2065382,20.9621333 97.5173092,20.9621333 C99.2516506,20.9621333 100.519691,20.4890667 101.321964,19.5424 C102.123169,18.5957333 102.524305,17.0501333 102.524305,14.9050667 L102.524305,6.20533333 L105.035815,6.20533333 L105.035815,22.7594667 L102.963365,22.7594667 L102.600153,20.5392 L102.463948,20.5392 C101.949574,21.3546667 101.235968,21.9792 100.323663,22.4117333 C99.4108233,22.8448 98.3697912,23.0613333 97.2000321,23.0613333 C95.1825984,23.0613333 93.6725944,22.5834667 92.6694859,21.6266667 C91.6658434,20.6698667 91.1642892,19.1397333 91.1642892,17.0346667 L91.1642892,6.20533333 L93.7057108,6.20533333"
                    id="Fill-6"></path>
                <path d="M121.055104,18.2432 C121.055104,19.784 120.480373,20.9722667 119.330378,21.808 C118.180916,22.6437333 116.567289,23.0613333 114.490032,23.0613333 C112.290992,23.0613333 110.577482,22.7141333 109.346831,22.0192 L109.346831,19.6933333 C110.143229,20.096 110.998382,20.4133333 111.910687,20.6448 C112.823526,20.8768 113.703249,20.992 114.55039,20.992 C115.861161,20.992 116.870145,20.7834667 117.575739,20.3653333 C118.281333,19.9477333 118.634398,19.3109333 118.634398,18.4549333 C118.634398,17.8101333 118.35451,17.2592 117.795269,16.8005333 C117.23496,16.3429333 116.143719,15.8016 114.519944,15.1770667 C112.977357,14.6032 111.880241,14.1024 111.230197,13.6741333 C110.579084,13.2464 110.095157,12.7605333 109.77788,12.2165333 C109.460068,11.6730667 109.30143,11.0234667 109.30143,10.2682667 C109.30143,8.91893333 109.851056,7.8544 110.950309,7.0736 C112.049028,6.29333333 113.55743,5.90293333 115.473378,5.90293333 C117.257928,5.90293333 119.002952,6.2656 120.706847,6.9904 L119.814305,9.02986667 C118.15047,8.34506667 116.643137,8.00266667 115.291771,8.00266667 C114.101715,8.00266667 113.203831,8.1888 112.599189,8.5616 C111.994012,8.93386667 111.691157,9.44746667 111.691157,10.1018667 C111.691157,10.5450667 111.804928,10.9226667 112.031402,11.2346667 C112.258944,11.5472 112.624293,11.8442667 113.128518,12.1258667 C113.632743,12.408 114.601133,12.816 116.032618,13.3493333 C117.999309,14.0645333 119.327707,14.7845333 120.018345,15.5093333 C120.709518,16.2341333 121.055104,17.1456 121.055104,18.2432"
                    id="Fill-7"></path>
                <path d="M130.494365,20.992 C130.938233,20.992 131.366076,20.9594667 131.780032,20.8938667 C132.193454,20.8288 132.521414,20.7605333 132.763378,20.6901333 L132.763378,22.6085333 C132.490968,22.7392 132.090365,22.8474667 131.560502,22.9333333 C131.031173,23.0186667 130.554723,23.0613333 130.131153,23.0613333 C126.924197,23.0613333 125.320719,21.3749333 125.320719,18.0016 L125.320719,8.1536 L122.945948,8.1536 L122.945948,6.94506667 L125.320719,5.90293333 L126.379378,2.36853333 L127.831695,2.36853333 L127.831695,6.20533333 L132.642129,6.20533333 L132.642129,8.1536 L127.831695,8.1536 L127.831695,17.896 C127.831695,18.8928 128.068851,19.6581333 128.542631,20.1914667 C129.016944,20.7253333 129.667522,20.992 130.494365,20.992"
                    id="Fill-8"></path>
                <path d="M3.47669478,34.9109333 L4.11498795,34.9109333 C4.74366667,34.9109333 5.19821687,34.8101333 5.47970683,34.6069333 C5.76066265,34.4042667 5.90114056,34.0789333 5.90114056,33.632 C5.90114056,33.2293333 5.76920884,32.9290667 5.50481124,32.7317333 C5.23987952,32.5349333 4.82859438,32.4357333 4.26935341,32.4357333 L3.47669478,32.4357333 L3.47669478,34.9109333 Z M6.63557831,33.5984 C6.63557831,34.2149333 6.42459438,34.6896 6.00316064,35.0213333 C5.58172691,35.3536 4.97868675,35.5194667 4.19404016,35.5194667 L3.47669478,35.5194667 L3.47669478,37.9152 L2.76736145,37.9152 L2.76736145,31.8234667 L4.34893976,31.8234667 C5.87336546,31.8234667 6.63557831,32.4149333 6.63557831,33.5984 Z"
                    id="Fill-9"></path>
                <path d="M10.2789237,33.2650667 C10.4818956,33.2650667 10.6645703,33.2816 10.8258795,33.3152 L10.7297349,33.9568 C10.5401165,33.9152 10.3734659,33.8944 10.2287149,33.8944 C9.85909237,33.8944 9.5423494,34.0442667 9.27955422,34.3445333 C9.01675904,34.6442667 8.88536145,35.0181333 8.88536145,35.4650667 L8.88536145,37.9152 L8.19258635,37.9152 L8.19258635,33.3482667 L8.76411245,33.3482667 L8.8436988,34.1941333 L8.87681526,34.1941333 C9.04613655,33.8976 9.25071084,33.6682667 9.49053815,33.5066667 C9.72983133,33.3456 9.99262651,33.2650667 10.2789237,33.2650667"
                    id="Fill-10"></path>
                <path d="M12.0661446,37.9152 L12.7589197,37.9152 L12.7589197,33.3482667 L12.0661446,33.3482667 L12.0661446,37.9152 Z M12.0073896,32.1109333 C12.0073896,31.9525333 12.0469157,31.8368 12.1243655,31.7632 C12.2023494,31.6896 12.2995622,31.6528 12.4165382,31.6528 C12.5276386,31.6528 12.6237831,31.6901333 12.7044378,31.7653333 C12.7850924,31.84 12.8256867,31.9557333 12.8256867,32.1109333 C12.8256867,32.2666667 12.7850924,32.3829333 12.7044378,32.4586667 C12.6237831,32.5354667 12.5276386,32.5733333 12.4165382,32.5733333 C12.2995622,32.5733333 12.2023494,32.5354667 12.1243655,32.4586667 C12.0469157,32.3829333 12.0073896,32.2666667 12.0073896,32.1109333 Z"
                    id="Fill-11"></path>
                <path d="M15.6133454,37.9152 L13.8774016,33.3482667 L14.6203855,33.3482667 L15.6053333,36.0565333 C15.8280683,36.6901333 15.9583976,37.1013333 15.9973896,37.2901333 L16.0310402,37.2901333 C16.0614859,37.1434667 16.1581647,36.8378667 16.3210763,36.3754667 C16.4834538,35.9130667 16.8488032,34.904 17.4160562,33.3482667 L18.1590402,33.3482667 L16.4230964,37.9152 L15.6133454,37.9152"
                    id="Fill-12"></path>
                <path d="M20.5257992,37.4277333 C20.9568474,37.4277333 21.29549,37.3098667 21.5417269,37.0736 C21.7879639,36.8373333 21.9108153,36.5066667 21.9108153,36.0816 L21.9108153,35.6693333 L21.2185743,35.6986667 C20.6673454,35.7184 20.2704819,35.8037333 20.0269157,35.9546667 C19.7833494,36.1061333 19.6615663,36.3418667 19.6615663,36.6608 C19.6615663,36.9109333 19.7374137,37.1013333 19.8891084,37.232 C20.0413373,37.3626667 20.2528554,37.4277333 20.5257992,37.4277333 Z M22.0902851,37.9152 L21.953012,37.2650667 L21.9193614,37.2650667 C21.6912851,37.5514667 21.4642771,37.7450667 21.2372691,37.8464 C21.010261,37.9477333 20.7277028,37.9984 20.387992,37.9984 C19.93451,37.9984 19.5787751,37.8816 19.3218554,37.6485333 C19.0644016,37.4149333 18.9356747,37.0832 18.9356747,36.6528 C18.9356747,35.7306667 19.6743855,35.2474667 21.1518072,35.2026667 L21.9279076,35.1776 L21.9279076,34.8944 C21.9279076,34.536 21.8504578,34.2714667 21.6960924,34.1002667 C21.5417269,33.9296 21.2949558,33.8442667 20.955245,33.8442667 C20.5744056,33.8442667 20.1433574,33.9610667 19.6615663,34.1941333 L19.4489799,33.6650667 C19.6743855,33.5434667 19.9211566,33.4474667 20.1898273,33.3776 C20.458498,33.3082667 20.7277028,33.2736 20.9969076,33.2736 C21.542261,33.2736 21.9466024,33.3941333 22.2093976,33.6357333 C22.4721928,33.8773333 22.6035904,34.2650667 22.6035904,34.7984 L22.6035904,37.9152 L22.0902851,37.9152 Z"
                    id="Fill-13"></path>
                <path d="M26.2431968,37.9984 C25.5814016,37.9984 25.0686305,37.7952 24.7054177,37.3882667 C24.3422048,36.9813333 24.1605984,36.4058667 24.1605984,35.6608 C24.1605984,34.8976 24.3448755,34.3066667 24.7139639,33.8901333 C25.0825181,33.4736 25.6070402,33.2650667 26.2891325,33.2650667 C26.5086627,33.2650667 26.7287269,33.2890667 26.948257,33.336 C27.1677871,33.3834667 27.3403133,33.4389333 27.4658353,33.5024 L27.2527149,34.0901333 C27.0999518,34.0293333 26.9333012,33.9786667 26.7522289,33.9381333 C26.5711566,33.8981333 26.4114498,33.8773333 26.2720402,33.8773333 C25.3431767,33.8773333 24.8784779,34.4693333 24.8784779,35.6528 C24.8784779,36.2138667 24.9917149,36.6442667 25.2187229,36.9445333 C25.4457309,37.2442667 25.7817028,37.3941333 26.2266386,37.3941333 C26.6074779,37.3941333 26.9984659,37.3125333 27.3990683,37.1482667 L27.3990683,37.7610667 C27.093008,37.9194667 26.7078956,37.9984 26.2431968,37.9984"
                    id="Fill-14"></path>
                <path d="M28.1425863,33.3482667 L28.8855703,33.3482667 L29.8870763,35.9525333 C30.1066064,36.5472 30.2433454,36.9765333 30.2962249,37.24 L30.3293414,37.24 C30.3656627,37.0986667 30.44151,36.8565333 30.5568835,36.5130667 C30.672257,36.1701333 31.0498916,35.1152 31.6897871,33.3482667 L32.4327711,33.3482667 L30.4671486,38.5482667 C30.2727229,39.0624 30.0451807,39.4272 29.7850562,39.6421333 C29.5243976,39.8570667 29.2055181,39.9653333 28.8273494,39.9653333 C28.6158313,39.9653333 28.4075181,39.9418667 28.2013414,39.8944 L28.2013414,39.3402667 C28.3541044,39.3733333 28.5250281,39.3898667 28.7146466,39.3898667 C29.1900281,39.3898667 29.529739,39.1232 29.7327108,38.5898667 L29.987494,37.9402667 L28.1425863,33.3482667"
                    id="Fill-15"></path>
                <path d="M38.9684659,37.9152 L36.8986867,32.5152 L36.8655703,32.5152 C36.9045622,32.9434667 36.9237912,33.4517333 36.9237912,34.04 L36.9237912,37.9152 L36.2684056,37.9152 L36.2684056,31.8234667 L37.3366787,31.8234667 L39.2691847,36.8485333 L39.3023012,36.8485333 L41.2508313,31.8234667 L42.3110924,31.8234667 L42.3110924,37.9152 L41.601759,37.9152 L41.601759,33.9898667 C41.601759,33.5402667 41.620988,33.0517333 41.6599799,32.5232 L41.6268635,32.5232 L39.539992,37.9152 L38.9684659,37.9152"
                    id="Fill-16"></path>
                <path d="M45.5127068,37.4277333 C45.9442892,37.4277333 46.2823976,37.3098667 46.5286345,37.0736 C46.7748715,36.8373333 46.898257,36.5066667 46.898257,36.0816 L46.898257,35.6693333 L46.2054819,35.6986667 C45.6547871,35.7184 45.2573896,35.8037333 45.0138233,35.9546667 C44.770257,36.1061333 44.649008,36.3418667 44.649008,36.6608 C44.649008,36.9109333 44.7243213,37.1013333 44.8765502,37.232 C45.028245,37.3626667 45.2397631,37.4277333 45.5127068,37.4277333 Z M47.0777269,37.9152 L46.9399197,37.2650667 L46.9062691,37.2650667 C46.6787269,37.5514667 46.4511847,37.7450667 46.2241767,37.8464 C45.9971687,37.9477333 45.7146104,37.9984 45.3748996,37.9984 C44.9219518,37.9984 44.5662169,37.8816 44.3087631,37.6485333 C44.0518434,37.4149333 43.9225823,37.0832 43.9225823,36.6528 C43.9225823,35.7306667 44.6612932,35.2474667 46.1387149,35.2026667 L46.9148153,35.1776 L46.9148153,34.8944 C46.9148153,34.536 46.8373655,34.2714667 46.683,34.1002667 C46.5286345,33.9296 46.2818635,33.8442667 45.9426867,33.8442667 C45.5613133,33.8442667 45.1302651,33.9610667 44.649008,34.1941333 L44.4358876,33.6650667 C44.6612932,33.5434667 44.9080643,33.4474667 45.1767349,33.3776 C45.4454056,33.3082667 45.7146104,33.2736 45.9843494,33.2736 C46.5291687,33.2736 46.93351,33.3941333 47.1963052,33.6357333 C47.4596345,33.8773333 47.5910321,34.2650667 47.5910321,34.7984 L47.5910321,37.9152 L47.0777269,37.9152 Z"
                    id="Fill-17"></path>
                <path d="M52.5323293,37.9152 L52.5323293,34.9610667 C52.5323293,34.5893333 52.4468675,34.3109333 52.2775462,34.1274667 C52.1082249,33.9445333 51.8422249,33.8528 51.4806145,33.8528 C51.0020281,33.8528 50.6516345,33.9818667 50.4288996,34.24 C50.2061647,34.4986667 50.0950643,34.9248 50.0950643,35.5194667 L50.0950643,37.9152 L49.4022892,37.9152 L49.4022892,33.3482667 L49.9658032,33.3482667 L50.078506,33.9733333 L50.1116225,33.9733333 C50.2537028,33.7482667 50.4524016,33.5744 50.7087871,33.4506667 C50.9646386,33.3269333 51.2493333,33.2650667 51.5639398,33.2650667 C52.1146345,33.2650667 52.5296586,33.3978667 52.8074096,33.6629333 C53.0856948,33.9285333 53.2245703,34.3525333 53.2245703,34.936 L53.2245703,37.9152 L52.5323293,37.9152"
                    id="Fill-18"></path>
                <path d="M56.2798313,37.4277333 C56.7114137,37.4277333 57.0500562,37.3098667 57.2962932,37.0736 C57.541996,36.8373333 57.6653815,36.5066667 57.6653815,36.0816 L57.6653815,35.6693333 L56.9726064,35.6986667 C56.4219116,35.7184 56.0250482,35.8037333 55.7814819,35.9546667 C55.5379157,36.1061333 55.4161325,36.3418667 55.4161325,36.6608 C55.4161325,36.9109333 55.4919799,37.1013333 55.6436747,37.232 C55.7953695,37.3626667 56.0068876,37.4277333 56.2798313,37.4277333 Z M57.8448514,37.9152 L57.7070442,37.2650667 L57.6739277,37.2650667 C57.4458514,37.5514667 57.2183092,37.7450667 56.9913012,37.8464 C56.7642932,37.9477333 56.4817349,37.9984 56.1420241,37.9984 C55.6890763,37.9984 55.3333414,37.8816 55.0758876,37.6485333 C54.8189679,37.4149333 54.690241,37.0832 54.690241,36.6528 C54.690241,35.7306667 55.4284177,35.2474667 56.9058394,35.2026667 L57.6819398,35.1776 L57.6819398,34.8944 C57.6819398,34.536 57.6050241,34.2714667 57.4506586,34.1002667 C57.2962932,33.9296 57.0495221,33.8442667 56.7098112,33.8442667 C56.3284378,33.8442667 55.8973896,33.9610667 55.4161325,34.1941333 L55.2035462,33.6650667 C55.4284177,33.5434667 55.6751888,33.4474667 55.9438594,33.3776 C56.2125301,33.3082667 56.4817349,33.2736 56.7514739,33.2736 C57.2968273,33.2736 57.7006345,33.3941333 57.9639639,33.6357333 C58.226759,33.8773333 58.3581566,34.2650667 58.3581566,34.7984 L58.3581566,37.9152 L57.8448514,37.9152 Z"
                    id="Fill-19"></path>
                <path d="M60.6410562,34.8112 C60.6410562,35.1306667 60.7313253,35.3722667 60.9123976,35.536 C61.0934699,35.7002667 61.3450482,35.7818667 61.6676667,35.7818667 C62.3438835,35.7818667 62.681992,35.4544 62.681992,34.7984 C62.681992,34.1125333 62.3396104,33.7690667 61.6553815,33.7690667 C61.3295582,33.7690667 61.0795823,33.8565333 60.9038514,34.032 C60.7286546,34.2069333 60.6410562,34.4666667 60.6410562,34.8112 Z M60.2655582,38.6816 C60.2655582,38.9290667 60.3697149,39.1168 60.5785622,39.2442667 C60.7874096,39.3717333 61.085992,39.4357333 61.4759116,39.4357333 C62.0575863,39.4357333 62.4875663,39.3488 62.7674538,39.1754667 C63.0468072,39.0021333 63.186751,38.7664 63.186751,38.4693333 C63.186751,38.2218667 63.1098353,38.0506667 62.9570723,37.9546667 C62.8043092,37.8586667 62.5164096,37.8106667 62.0933735,37.8106667 L61.2627912,37.8106667 C60.9481847,37.8106667 60.7035502,37.8858667 60.5283534,38.0357333 C60.3531566,38.1861333 60.2655582,38.4010667 60.2655582,38.6816 Z M63.9126426,33.3482667 L63.9126426,33.7861333 L63.065502,33.8858667 C63.1434859,33.9834667 63.2134578,34.1104 63.2743494,34.2672 C63.335241,34.4245333 63.3662209,34.6016 63.3662209,34.7984 C63.3662209,35.2458667 63.2134578,35.6026667 62.9068635,35.8693333 C62.6008032,36.136 62.1809719,36.2693333 61.6468353,36.2693333 C61.5106305,36.2693333 61.3824378,36.2581333 61.2627912,36.2357333 C60.9684819,36.3914667 60.8205261,36.5877333 60.8205261,36.8234667 C60.8205261,36.9482667 60.8723373,37.0410667 60.9748916,37.1002667 C61.0779799,37.1605333 61.2547791,37.1898667 61.504755,37.1898667 L62.314506,37.1898667 C62.8096506,37.1898667 63.19049,37.2944 63.4559558,37.5024 C63.7214217,37.7109333 63.8544217,38.0133333 63.8544217,38.4106667 C63.8544217,38.9168 63.6514498,39.3018667 63.2449719,39.5674667 C62.8390281,39.8325333 62.2461365,39.9653333 61.4673655,39.9653333 C60.8691325,39.9653333 60.4081727,39.8544 60.0839518,39.632 C59.7602651,39.4096 59.5978876,39.096 59.5978876,38.6901333 C59.5978876,38.4122667 59.6870884,38.1717333 59.8649558,37.9690667 C60.0428233,37.7664 60.2933333,37.6293333 60.6159518,37.5568 C60.49951,37.504 60.4012289,37.4224 60.3221767,37.3109333 C60.2425904,37.2 60.2030643,37.0709333 60.2030643,36.9232 C60.2030643,36.7568 60.2473976,36.6112 60.3365984,36.4858667 C60.4257992,36.3610667 60.5662771,36.24 60.7580321,36.1232 C60.5219438,36.0266667 60.3285863,35.8608 60.1800964,35.6277333 C60.0316064,35.3941333 59.9568273,35.1274667 59.9568273,34.8277333 C59.9568273,34.3274667 60.1069197,33.9424 60.4076386,33.6714667 C60.7078233,33.4005333 61.1335301,33.2650667 61.6842249,33.2650667 C61.9240522,33.2650667 62.1393092,33.2933333 62.3310643,33.3482667 L63.9126426,33.3482667 Z"
                    id="Fill-20"></path>
                <path d="M66.9807229,33.8442667 C66.6137711,33.8442667 66.3210643,33.9642667 66.1026024,34.2026667 C65.8841406,34.4416 65.7554137,34.7722667 65.7164217,35.1941333 L68.107751,35.1941333 C68.107751,34.7584 68.010004,34.4245333 67.8155783,34.192 C67.6211526,33.9605333 67.3423333,33.8442667 66.9807229,33.8442667 Z M67.168739,37.9984 C66.4925221,37.9984 65.9589197,37.7930667 65.5684659,37.3818667 C65.1774779,36.9706667 64.9819839,36.4 64.9819839,35.6693333 C64.9819839,34.9333333 65.1635904,34.3482667 65.5268032,33.9152 C65.8894819,33.4816 66.3776827,33.2650667 66.9892691,33.2650667 C67.5623976,33.2650667 68.0158795,33.4538667 68.3497149,33.8298667 C68.6835502,34.2064 68.8502008,34.7024 68.8502008,35.3194667 L68.8502008,35.7568 L65.6998635,35.7568 C65.713751,36.2933333 65.8494217,36.7002667 66.1068755,36.9776 C66.3637952,37.2554667 66.7264739,37.3941333 67.1938434,37.3941333 C67.6863173,37.3941333 68.1729157,37.2917333 68.6541727,37.0858667 L68.6541727,37.7024 C68.4095382,37.8085333 68.178257,37.8837333 67.959261,37.9296 C67.7407992,37.9754667 67.4774699,37.9984 67.168739,37.9984 Z"
                    id="Fill-21"></path>
                <path d="M76.2453213,37.9152 L76.2453213,34.9445333 C76.2453213,34.5808 76.1678715,34.3077333 76.0119036,34.1253333 C75.8559357,33.9434667 75.6139719,33.8528 75.2854779,33.8528 C74.8544297,33.8528 74.5360843,33.9765333 74.3299076,34.2234667 C74.1237309,34.4709333 74.0211767,34.8517333 74.0211767,35.3653333 L74.0211767,37.9152 L73.3284016,37.9152 L73.3284016,34.9445333 C73.3284016,34.5808 73.2509518,34.3077333 73.0949839,34.1253333 C72.9390161,33.9434667 72.6959839,33.8528 72.3642851,33.8528 C71.9305663,33.8528 71.612755,33.9829333 71.4108514,34.2421333 C71.2089478,34.5018667 71.1085301,34.9274667 71.1085301,35.5194667 L71.1085301,37.9152 L70.415755,37.9152 L70.415755,33.3482667 L70.9792691,33.3482667 L71.0919719,33.9733333 L71.1250884,33.9733333 C71.2559518,33.7514667 71.4402289,33.5776 71.6779197,33.4528 C71.9161446,33.3274667 72.1826787,33.2650667 72.476988,33.2650667 C73.1921968,33.2650667 73.6595663,33.5232 73.8790964,34.04 L73.912747,34.04 C74.0489518,33.8016 74.2465823,33.6122667 74.5051044,33.4736 C74.7641606,33.3349333 75.0584699,33.2650667 75.3901687,33.2650667 C75.9072129,33.2650667 76.294996,33.3978667 76.5519157,33.6629333 C76.8093695,33.9285333 76.9380964,34.3525333 76.9380964,34.936 L76.9380964,37.9152 L76.2453213,37.9152"
                    id="Fill-22"></path>
                <path d="M80.4938434,33.8442667 C80.1268916,33.8442667 79.8341847,33.9642667 79.6157229,34.2026667 C79.397261,34.4416 79.2685341,34.7722667 79.2295422,35.1941333 L81.6208715,35.1941333 C81.6208715,34.7584 81.5231245,34.4245333 81.3286988,34.192 C81.133739,33.9605333 80.8554538,33.8442667 80.4938434,33.8442667 Z M80.6818594,37.9984 C80.0056426,37.9984 79.4720402,37.7930667 79.0815863,37.3818667 C78.6905984,36.9706667 78.4951044,36.4 78.4951044,35.6693333 C78.4951044,34.9333333 78.6767108,34.3482667 79.0399237,33.9152 C79.4026024,33.4816 79.8902691,33.2650667 80.5023896,33.2650667 C81.0755181,33.2650667 81.529,33.4538667 81.8628353,33.8298667 C82.1966707,34.2064 82.3633213,34.7024 82.3633213,35.3194667 L82.3633213,35.7568 L79.2129839,35.7568 C79.2268715,36.2933333 79.3625422,36.7002667 79.619996,36.9776 C79.8769157,37.2554667 80.2395944,37.3941333 80.7069639,37.3941333 C81.1994378,37.3941333 81.6860361,37.2917333 82.1672932,37.0858667 L82.1672932,37.7024 C81.9226586,37.8085333 81.6908434,37.8837333 81.4723815,37.9296 C81.2539197,37.9754667 80.9905904,37.9984 80.6818594,37.9984 Z"
                    id="Fill-23"></path>
                <path d="M87.0583815,37.9152 L87.0583815,34.9610667 C87.0583815,34.5893333 86.9734538,34.3109333 86.8041325,34.1274667 C86.6342771,33.9445333 86.3682771,33.8528 86.0072008,33.8528 C85.5286145,33.8528 85.1782209,33.9818667 84.9554859,34.24 C84.732751,34.4986667 84.6216506,34.9248 84.6216506,35.5194667 L84.6216506,37.9152 L83.9288755,37.9152 L83.9288755,33.3482667 L84.4923896,33.3482667 L84.6050924,33.9733333 L84.6382088,33.9733333 C84.7802892,33.7482667 84.978988,33.5744 85.2348394,33.4506667 C85.4912249,33.3269333 85.7759197,33.2650667 86.0905261,33.2650667 C86.6412209,33.2650667 87.0557108,33.3978667 87.333996,33.6629333 C87.611747,33.9285333 87.7511566,34.3525333 87.7511566,34.936 L87.7511566,37.9152 L87.0583815,37.9152"
                    id="Fill-24"></path>
                <path d="M91.0366305,37.4277333 C91.1589478,37.4277333 91.276992,37.4186667 91.3912972,37.4005333 C91.5050683,37.3829333 91.5953373,37.3642667 91.6621044,37.3445333 L91.6621044,37.8736 C91.5873253,37.9098667 91.476759,37.9397333 91.3304056,37.9632 C91.1845863,37.9866667 91.0531888,37.9984 90.9362129,37.9984 C90.0516827,37.9984 89.6094177,37.5333333 89.6094177,36.6026667 L89.6094177,33.8858667 L88.9540321,33.8858667 L88.9540321,33.5525333 L89.6094177,33.2650667 L89.9015904,32.2901333 L90.3021928,32.2901333 L90.3021928,33.3482667 L91.628988,33.3482667 L91.628988,33.8858667 L90.3021928,33.8858667 L90.3021928,36.5733333 C90.3021928,36.8485333 90.3673574,37.0597333 90.4982209,37.2069333 C90.6290843,37.3541333 90.8085542,37.4277333 91.0366305,37.4277333"
                    id="Fill-25"></path>
                <path d="M99.112241,36.2944 C99.112241,36.8309333 98.9172811,37.2485333 98.5278956,37.5482667 C98.1379759,37.8485333 97.6097149,37.9984 96.9420442,37.9984 C96.2188233,37.9984 95.6627871,37.9056 95.2728675,37.7194667 L95.2728675,37.0357333 C95.5233775,37.1418667 95.7963213,37.2250667 96.0906305,37.2858667 C96.3854739,37.3472 96.6776466,37.3776 96.9671486,37.3776 C97.4403936,37.3776 97.7961285,37.288 98.0354217,37.1088 C98.2747149,36.9296 98.3943614,36.6805333 98.3943614,36.3610667 C98.3943614,36.1498667 98.3521647,35.9770667 98.2672369,35.8421333 C98.1817751,35.7077333 98.0402289,35.5834667 97.8415301,35.4693333 C97.6428313,35.3557333 97.3399759,35.2266667 96.9340321,35.0816 C96.366245,34.8789333 95.9608353,34.6389333 95.7172691,34.3610667 C95.4737028,34.0832 95.3524538,33.7210667 95.3524538,33.2736 C95.3524538,32.8042667 95.529253,32.4309333 95.8823173,32.1525333 C96.2353815,31.8752 96.702751,31.736 97.2844257,31.736 C97.8912048,31.736 98.4483092,31.8474667 98.9578755,32.0693333 L98.736743,32.6858667 C98.2330522,32.4752 97.743249,32.3690667 97.2678675,32.3690667 C96.8918353,32.3690667 96.5985944,32.4501333 96.3870763,32.6112 C96.1760924,32.7722667 96.0697992,32.9957333 96.0697992,33.2816 C96.0697992,33.4933333 96.1093253,33.6661333 96.1867751,33.8005333 C96.264759,33.9354667 96.3961566,34.0586667 96.5809679,34.1712 C96.7663133,34.2837333 97.0488715,34.4085333 97.430245,34.5445333 C98.0701406,34.7722667 98.5108032,35.0165333 98.7511647,35.2773333 C98.9915261,35.5392 99.112241,35.8773333 99.112241,36.2944"
                    id="Fill-26"></path>
                <path d="M101.103502,35.6277333 C101.103502,36.2112 101.220478,36.6554667 101.453896,36.9610667 C101.687847,37.2666667 102.031297,37.4192 102.484779,37.4192 C102.938261,37.4192 103.282245,37.2672 103.517799,36.9632 C103.752819,36.6586667 103.870329,36.2138667 103.870329,35.6277333 C103.870329,35.0474667 103.752819,34.6064 103.517799,34.3045333 C103.282245,34.0037333 102.93559,33.8528 102.476233,33.8528 C102.023285,33.8528 101.680904,34.0016 101.450157,34.2986667 C101.218876,34.5957333 101.103502,35.0389333 101.103502,35.6277333 Z M104.588209,35.6277333 C104.588209,36.3722667 104.400193,36.9536 104.024695,37.3712 C103.649197,37.7893333 103.130016,37.9984 102.468221,37.9984 C102.059072,37.9984 101.696394,37.9024 101.379116,37.7109333 C101.061839,37.5194667 100.817205,37.2442667 100.644679,36.8858667 C100.472153,36.5274667 100.385622,36.1082667 100.385622,35.6277333 C100.385622,34.8832 100.572036,34.3034667 100.944863,33.888 C101.318225,33.4730667 101.835269,33.2650667 102.497598,33.2650667 C103.137494,33.2650667 103.645458,33.4773333 104.022558,33.9024 C104.399659,34.3274667 104.588209,34.9024 104.588209,35.6277333 Z"
                    id="Fill-27"></path>
                <path d="M108.248112,33.8858667 L107.083695,33.8858667 L107.083695,37.9152 L106.391454,37.9152 L106.391454,33.8858667 L105.573157,33.8858667 L105.573157,33.5733333 L106.391454,33.3232 L106.391454,33.0693333 C106.391454,31.9472 106.882325,31.3861333 107.864068,31.3861333 C108.106566,31.3861333 108.390193,31.4346667 108.715482,31.5317333 L108.536012,32.0858667 C108.268944,32 108.040867,31.9568 107.851783,31.9568 C107.59059,31.9568 107.396699,32.0437333 107.271711,32.2170667 C107.146723,32.3909333 107.083695,32.6693333 107.083695,33.0528 L107.083695,33.3482667 L108.248112,33.3482667 L108.248112,33.8858667"
                    id="Fill-28"></path>
                <path d="M110.944434,37.4277333 C111.067285,37.4277333 111.184795,37.4186667 111.2991,37.4005333 C111.413406,37.3829333 111.503675,37.3642667 111.570442,37.3445333 L111.570442,37.8736 C111.495129,37.9098667 111.384562,37.9397333 111.238743,37.9632 C111.09239,37.9866667 110.960992,37.9984 110.84455,37.9984 C109.959486,37.9984 109.517221,37.5333333 109.517221,36.6026667 L109.517221,33.8858667 L108.862369,33.8858667 L108.862369,33.5525333 L109.517221,33.2650667 L109.809394,32.2901333 L110.209996,32.2901333 L110.209996,33.3482667 L111.536791,33.3482667 L111.536791,33.8858667 L110.209996,33.8858667 L110.209996,36.5733333 C110.209996,36.8485333 110.275161,37.0597333 110.406024,37.2069333 C110.536888,37.3541333 110.716357,37.4277333 110.944434,37.4277333"
                    id="Fill-29"></path>
                <path d="M116.60361,37.9152 L115.764482,35.2357333 C115.712137,35.0725333 115.612787,34.7002667 115.46857,34.1194667 L115.43492,34.1194667 C115.323819,34.6058667 115.226606,34.9808 115.142747,35.2442667 L114.279048,37.9152 L113.477843,37.9152 L112.2301,33.3482667 L112.956526,33.3482667 C113.250835,34.496 113.475707,35.3690667 113.630072,35.9690667 C113.784438,36.5690667 113.87257,36.9733333 113.895004,37.1818667 L113.928655,37.1818667 C113.959635,37.0234667 114.008241,36.8186667 114.07661,36.5674667 C114.14498,36.3162667 114.204269,36.1168 114.253944,35.9690667 L115.093072,33.3482667 L115.844068,33.3482667 L116.661831,35.9690667 C116.817799,36.4474667 116.923024,36.8485333 116.979108,37.1733333 L117.012225,37.1733333 C117.023442,37.0736 117.053888,36.9194667 117.10196,36.7109333 C117.150566,36.5024 117.440602,35.3818667 117.972068,33.3482667 L118.689948,33.3482667 L117.425647,37.9152 L116.60361,37.9152"
                    id="Fill-30"></path>
                <path d="M121.149112,37.4277333 C121.580161,37.4277333 121.918803,37.3098667 122.16504,37.0736 C122.411277,36.8373333 122.534129,36.5066667 122.534129,36.0816 L122.534129,35.6693333 L121.841353,35.6986667 C121.290659,35.7184 120.893795,35.8037333 120.650229,35.9546667 C120.406663,36.1061333 120.28488,36.3418667 120.28488,36.6608 C120.28488,36.9109333 120.360727,37.1013333 120.512422,37.232 C120.664116,37.3626667 120.876169,37.4277333 121.149112,37.4277333 Z M122.713598,37.9152 L122.575791,37.2650667 L122.542675,37.2650667 C122.314598,37.5514667 122.087056,37.7450667 121.860582,37.8464 C121.633574,37.9477333 121.350482,37.9984 121.011305,37.9984 C120.557823,37.9984 120.202088,37.8816 119.945169,37.6485333 C119.687715,37.4149333 119.558988,37.0832 119.558988,36.6528 C119.558988,35.7306667 120.297699,35.2474667 121.774586,35.2026667 L122.551221,35.1776 L122.551221,34.8944 C122.551221,34.536 122.473771,34.2714667 122.319406,34.1002667 C122.16504,33.9296 121.918269,33.8442667 121.578558,33.8442667 C121.197185,33.8442667 120.766671,33.9610667 120.28488,34.1941333 L120.072293,33.6650667 C120.297699,33.5434667 120.54447,33.4474667 120.813141,33.3776 C121.081811,33.3082667 121.350482,33.2736 121.620221,33.2736 C122.165574,33.2736 122.569916,33.3941333 122.832711,33.6357333 C123.095506,33.8773333 123.226904,34.2650667 123.226904,34.7984 L123.226904,37.9152 L122.713598,37.9152 Z"
                    id="Fill-31"></path>
                <path d="M127.125032,33.2650667 C127.328004,33.2650667 127.510679,33.2816 127.671454,33.3152 L127.575843,33.9568 C127.386225,33.9152 127.219574,33.8944 127.074823,33.8944 C126.705201,33.8944 126.388458,34.0442667 126.125663,34.3445333 C125.862867,34.6442667 125.73147,35.0181333 125.73147,35.4650667 L125.73147,37.9152 L125.038695,37.9152 L125.038695,33.3482667 L125.610221,33.3482667 L125.689273,34.1941333 L125.722924,34.1941333 C125.892245,33.8976 126.096819,33.6682667 126.336112,33.5066667 C126.57594,33.3456 126.838735,33.2650667 127.125032,33.2650667"
                    id="Fill-32"></path>
                <path d="M130.655675,33.8442667 C130.288723,33.8442667 129.996016,33.9642667 129.777554,34.2026667 C129.559092,34.4416 129.430365,34.7722667 129.391373,35.1941333 L131.782703,35.1941333 C131.782703,34.7584 131.684956,34.4245333 131.49053,34.192 C131.296104,33.9605333 131.017285,33.8442667 130.655675,33.8442667 Z M130.843691,37.9984 C130.167474,37.9984 129.633871,37.7930667 129.243418,37.3818667 C128.85243,36.9706667 128.656936,36.4 128.656936,35.6693333 C128.656936,34.9333333 128.838542,34.3482667 129.201755,33.9152 C129.564434,33.4816 130.0521,33.2650667 130.664221,33.2650667 C131.237349,33.2650667 131.690831,33.4538667 132.024667,33.8298667 C132.358502,34.2064 132.525153,34.7024 132.525153,35.3194667 L132.525153,35.7568 L129.374815,35.7568 C129.388703,36.2933333 129.524373,36.7002667 129.781827,36.9776 C130.038747,37.2554667 130.401426,37.3941333 130.868795,37.3941333 C131.361269,37.3941333 131.847867,37.2917333 132.329124,37.0858667 L132.329124,37.7024 C132.08449,37.8085333 131.853209,37.8837333 131.634213,37.9296 C131.415751,37.9754667 131.152422,37.9984 130.843691,37.9984 Z"
                    id="Fill-33"></path>
            </g>
        </g>
    </g>
</svg>
