<svg xmlns="http://www.w3.org/2000/svg" width="120" height="80" fill="none" ><style><![CDATA[.I{fill:#fff}.J{fill:#718491}.K{stroke:#718491}.L{stroke-width:.65}]]></style><rect x=".75" y=".75" width="118.5" height="78.5" rx="3.25" class="I"/><rect x=".75" y=".75" width="118.5" height="78.5" rx="3.25" stroke="#8796a1" stroke-width="1.5"/><g clip-path="url(#A)"><g class="I"><rect x="14" y="14" width="92" height="52" rx="2"/><rect x="14.325" y="14.325" width="17.55" height="26" rx=".975" class="K L"/></g><path d="M14 15.3a1.3 1.3 0 0 1 1.3-1.3h15.6a1.3 1.3 0 0 1 1.3 1.3V27H14V15.3z" class="J"/><path d="M28.3 19.075l-2.492-2.261-1.246-.213c0 .705-.632 1.278-1.444 1.278s-1.444-.574-1.444-1.278l-1.246.213L17.9 19.01l1.715 1.557.83-.754V24.4h5.363v-4.506l.794.721 1.697-1.54z" class="I"/><g class="J"><rect x="16.6" y="29.6" width="13" height="1.95" rx=".975"/><rect x="16.6" y="32.85" width="13" height="1.95" rx=".975"/><rect x="20.5" y="36.1" width="5.2" height="1.95" rx=".975"/></g><rect x="14.325" y="46.175" width="17.55" height="19.5" rx=".975" class="I K L"/><path d="M14 47.15a1.3 1.3 0 0 1 1.3-1.3h15.6a1.3 1.3 0 0 1 1.3 1.3v11.7H14v-11.7z" class="J"/><path d="M28.3 50.925l-2.492-2.261-1.246-.213c0 .705-.632 1.278-1.444 1.278s-1.444-.574-1.444-1.278l-1.246.213L17.9 50.86l1.715 1.557.83-.754v4.588h5.363v-4.506l.794.721 1.697-1.54z" class="I"/><rect x="16.6" y="61.45" width="13" height="1.95" rx=".975" class="J"/><rect x="38.925" y="14.325" width="17.55" height="19.5" rx=".975" class="I K L"/><path d="M38.6 15.3a1.3 1.3 0 0 1 1.3-1.3h15.6a1.3 1.3 0 0 1 1.3 1.3V27H38.6V15.3z" class="J"/><path d="M52.9 19.075l-2.492-2.261-1.246-.213c0 .705-.632 1.278-1.444 1.278s-1.444-.574-1.444-1.278l-1.246.213L42.5 19.01l1.715 1.557.831-.754V24.4h5.363v-4.506l.794.721 1.697-1.54z" class="I"/><rect x="41.2" y="29.6" width="13" height="1.95" rx=".975" class="J"/><rect x="38.925" y="39.675" width="17.55" height="22.75" rx=".975" class="I K L"/><path d="M38.6 40.65a1.3 1.3 0 0 1 1.3-1.3h15.6a1.3 1.3 0 0 1 1.3 1.3v11.7H38.6v-11.7z" class="J"/><path d="M52.9 44.425l-2.492-2.261-1.246-.213c0 .705-.632 1.278-1.444 1.278s-1.444-.574-1.444-1.278l-1.246.213L42.5 44.36l1.715 1.557.831-.754v4.588h5.363v-4.506l.794.721 1.697-1.54z" class="I"/><g class="J"><rect x="41.2" y="54.95" width="13" height="1.95" rx=".975"/><rect x="45.1" y="58.2" width="5.2" height="1.95" rx=".975"/></g><rect x="63.525" y="14.325" width="17.55" height="26" rx=".975" class="I K L"/><path d="M63.2 15.3a1.3 1.3 0 0 1 1.3-1.3h15.6a1.3 1.3 0 0 1 1.3 1.3V27H63.2V15.3z" class="J"/><path d="M77.5 19.075l-2.492-2.261-1.246-.213c0 .705-.632 1.278-1.445 1.278s-1.444-.574-1.444-1.278l-1.246.213-2.528 2.196 1.715 1.557.831-.754V24.4h5.362v-4.506l.794.721 1.697-1.54z" class="I"/><g class="J"><rect x="65.8" y="29.6" width="13" height="1.95" rx=".975"/><rect x="65.8" y="32.85" width="13" height="1.95" rx=".975"/><rect x="69.7" y="36.1" width="5.2" height="1.95" rx=".975"/></g><rect x="63.525" y="46.175" width="17.55" height="19.5" rx=".975" class="I K L"/><path d="M63.2 47.15a1.3 1.3 0 0 1 1.3-1.3h15.6a1.3 1.3 0 0 1 1.3 1.3v11.7H63.2v-11.7z" class="J"/><path d="M77.5 50.925l-2.492-2.261-1.246-.213c0 .705-.632 1.278-1.445 1.278s-1.444-.574-1.444-1.278l-1.246.213-2.528 2.196 1.715 1.557.831-.754v4.588h5.362v-4.506l.794.721 1.697-1.54z" class="I"/><rect x="65.8" y="61.45" width="13" height="1.95" rx=".975" class="J"/><rect x="88.125" y="14.325" width="17.55" height="19.5" rx=".975" class="I K L"/><path d="M87.8 15.3a1.3 1.3 0 0 1 1.3-1.3h15.6a1.3 1.3 0 0 1 1.3 1.3V27H87.8V15.3z" class="J"/><path d="M102.1 19.075l-2.492-2.261-1.246-.213c0 .705-.632 1.278-1.444 1.278s-1.444-.574-1.444-1.278l-1.246.213L91.7 19.01l1.715 1.557.831-.754V24.4h5.362v-4.506l.795.721 1.697-1.54z" class="I"/><rect x="90.4" y="29.6" width="13" height="1.95" rx=".975" class="J"/><rect x="88.125" y="39.675" width="17.55" height="26" rx=".975" class="I K L"/><path d="M87.8 40.65a1.3 1.3 0 0 1 1.3-1.3h15.6a1.3 1.3 0 0 1 1.3 1.3v11.7H87.8v-11.7z" class="J"/><path d="M102.1 44.425l-2.492-2.261-1.246-.213c0 .705-.632 1.278-1.444 1.278s-1.444-.574-1.444-1.278l-1.246.213L91.7 44.36l1.715 1.557.831-.754v4.588h5.362v-4.506l.795.721 1.697-1.54z" class="I"/><g class="J"><rect x="90.4" y="54.95" width="13" height="1.95" rx=".975"/><rect x="90.4" y="58.2" width="13" height="1.95" rx=".975"/><rect x="94.3" y="61.45" width="5.2" height="1.95" rx=".975"/></g></g><defs><clipPath id="A"><rect x="14" y="14" width="92" height="52" rx="2" class="I"/></clipPath></defs></svg>