<svg xmlns="http://www.w3.org/2000/svg" width="250" height="192" fill="none"><style><![CDATA[.B{fill:#fff}.C{fill:#718491}.D{stroke:#718491}.E{stroke-width:.792}]]></style><path d="M0 0h250v192H0z" class="B"/><path d="M50.518 164.469h1.395l2.332 6.422 2.326-6.422h1.4L54.801 173h-1.119l-3.164-8.531zm-.703 0h1.365l.246 5.9V173h-1.611v-8.531zm7.488 0h1.371V173h-1.611v-2.631l.24-5.9zm6.668 7.025v-4.834h1.559V173h-1.465l-.094-1.506zm.199-1.312l.481-.012c0 .426-.047.818-.141 1.178a2.66 2.66 0 0 1-.439.937 2.03 2.03 0 0 1-.744.615c-.301.145-.656.217-1.066.217a2.69 2.69 0 0 1-.855-.129c-.258-.09-.48-.228-.668-.416s-.326-.435-.428-.732-.152-.662-.152-1.084v-4.096h1.547v4.108a1.69 1.69 0 0 0 .07.527c.051.141.119.256.205.346s.193.148.311.187.25.053.387.053c.375 0 .67-.074.885-.223a1.25 1.25 0 0 0 .469-.609c.094-.258.141-.547.141-.867zM68.541 164v9h-1.553v-9h1.553zm4.477 2.66v1.113h-3.633v-1.113h3.633zm-2.66-1.558h1.553v6.07c0 .187.025.332.076.433s.127.17.228.206a1.12 1.12 0 0 0 .363.052 2.22 2.22 0 0 0 .281-.017l.217-.035.006 1.16c-.129.043-.275.078-.439.105s-.342.041-.545.041c-.348 0-.652-.058-.914-.176s-.465-.314-.609-.58-.217-.625-.217-1.066v-6.193zm5.332 1.558V173h-1.553v-6.34h1.553zm-1.658-1.658c0-.231.078-.422.234-.574s.375-.229.645-.229.482.076.639.229.24.343.24.574a.75.75 0 0 1-.24.568c-.156.153-.369.229-.639.229s-.484-.076-.645-.229a.76.76 0 0 1-.234-.568zm6.217 3.732v1.225h-3.205v-1.225h3.205zm2.871-.779V173h-1.547v-6.34h1.465l.082 1.295zm1.928-1.336l-.023 1.442c-.086-.016-.184-.028-.293-.036l-.299-.011c-.238 0-.447.033-.627.099a1.18 1.18 0 0 0-.451.276 1.21 1.21 0 0 0-.269.445 1.91 1.91 0 0 0-.106.586l-.334-.041c0-.402.041-.775.123-1.119s.201-.645.357-.903.352-.457.586-.597.512-.217.82-.217a1.82 1.82 0 0 1 .275.023 1 1 0 0 1 .24.053zm.41 3.276v-.124c0-.464.066-.892.199-1.283s.326-.736.58-1.025a2.61 2.61 0 0 1 .932-.674c.367-.164.785-.246 1.254-.246.477 0 .898.082 1.266.246a2.6 2.6 0 0 1 .938.674 2.97 2.97 0 0 1 .58 1.025c.133.391.199.819.199 1.283v.124c0 .46-.066.888-.199 1.283s-.326.732-.58 1.025a2.61 2.61 0 0 1-.932.674c-.367.16-.787.24-1.26.24s-.889-.08-1.26-.24a2.6 2.6 0 0 1-.937-.674 3.05 3.05 0 0 1-.58-1.025c-.133-.395-.199-.823-.199-1.283zm1.547-.124v.124a3.53 3.53 0 0 0 .082.779 2.07 2.07 0 0 0 .252.638c.113.184.26.329.439.434s.402.152.656.152.465-.05.645-.152.326-.25.439-.434.203-.396.258-.638a3.53 3.53 0 0 0 .082-.779v-.124a3.42 3.42 0 0 0-.082-.767 2 2 0 0 0-.258-.639 1.23 1.23 0 0 0-.445-.439c-.18-.11-.397-.164-.65-.164a1.21 1.21 0 0 0-.645.164c-.18.105-.326.252-.439.439s-.197.397-.252.639a3.42 3.42 0 0 0-.082.767zm7.289 1.706l1.389-4.817h.984l-.293 1.664-1.4 4.676h-.85l.17-1.523zm-.768-4.817l1.043 4.828.094 1.512h-.978l-1.664-6.34h1.506zm4.43 4.758l1.019-4.758h1.5L98.822 173h-.978l.111-1.582zm-1.137-4.758l1.377 4.77.182 1.57h-.85l-1.412-4.676-.287-1.664h.99zm4.618 2.983v-.112c0-.828.087-1.58.263-2.256s.414-1.275.703-1.787.602-.935.938-1.271.67-.584.99-.733l.305.85c-.223.168-.446.398-.668.691s-.418.647-.598 1.073-.324.922-.433 1.488a10.58 10.58 0 0 0-.159 1.934v.134c0 .723.053 1.369.159 1.94s.253 1.062.433 1.488.379.787.598 1.084a3.61 3.61 0 0 0 .668.703l-.305.826c-.32-.152-.65-.396-.99-.732s-.649-.76-.938-1.272-.523-1.105-.703-1.781-.263-1.435-.263-2.267zm7.611 1.623c0-.133-.035-.252-.106-.358s-.203-.201-.398-.287-.473-.174-.844-.252a6.11 6.11 0 0 1-.908-.264 2.94 2.94 0 0 1-.715-.38c-.199-.153-.355-.33-.469-.534a1.51 1.51 0 0 1-.164-.714 1.66 1.66 0 0 1 .17-.739 1.83 1.83 0 0 1 .492-.615c.215-.18.477-.32.786-.422s.656-.158 1.043-.158c.539 0 1.002.088 1.388.264s.69.418.897.726.31.649.31 1.031h-1.547c0-.168-.039-.32-.117-.457s-.189-.246-.345-.328-.354-.129-.592-.129a1.27 1.27 0 0 0-.545.106.79.79 0 0 0-.328.275.67.67 0 0 0-.112.375c0 .102.02.194.059.276a.66.66 0 0 0 .205.216c.094.067.221.127.381.182s.365.108.603.158c.473.094.885.219 1.237.375s.633.356.832.61.299.578.299.972c0 .282-.061.539-.182.774a1.8 1.8 0 0 1-.527.603 2.68 2.68 0 0 1-.827.405c-.32.093-.681.14-1.084.14-.582 0-1.074-.103-1.476-.31s-.707-.477-.914-.797-.311-.66-.311-1.008h1.483c.011.246.078.443.199.592s.273.256.457.322.385.094.592.094a1.63 1.63 0 0 0 .592-.094c.16-.066.281-.154.363-.264a.64.64 0 0 0 .123-.386zm5.496-1.735v.112c0 .812-.092 1.556-.275 2.232s-.418 1.271-.715 1.787-.614.945-.961 1.289-.682.592-1.014.744l-.305-.826c.223-.168.444-.398.663-.691s.418-.655.597-1.084a7.14 7.14 0 0 0 .434-1.5c.109-.571.164-1.217.164-1.94v-.134c0-.723-.057-1.37-.17-1.94s-.256-1.068-.44-1.494-.384-.791-.603-1.084-.434-.527-.645-.691l.305-.827c.332.149.67.397 1.014.745.347.343.668.775.961 1.294s.535 1.112.715 1.788a8.43 8.43 0 0 1 .275 2.22zm7.787.358h-2.197v-1.266h2.197c.359 0 .65-.059.873-.176s.393-.285.498-.492.158-.451.158-.721c0-.261-.052-.505-.158-.732s-.271-.41-.498-.551-.514-.211-.873-.211h-1.67V173h-1.611v-8.531h3.281c.664 0 1.231.119 1.699.357.473.235.832.561 1.078.979s.375.886.375 1.418c0 .55-.125 1.025-.375 1.423s-.605.706-1.078.92c-.468.215-1.035.323-1.699.323zm5.848-1.934V173h-1.547v-6.34h1.465l.082 1.295zm1.927-1.336l-.023 1.442c-.086-.016-.184-.028-.293-.036l-.299-.011c-.238 0-.447.033-.627.099s-.33.155-.451.276-.207.269-.269.445a1.9 1.9 0 0 0-.106.586l-.334-.041a4.82 4.82 0 0 1 .123-1.119c.082-.344.201-.645.358-.903a1.71 1.71 0 0 1 .586-.597c.238-.145.511-.217.82-.217a1.81 1.81 0 0 1 .275.023c.102.012.182.03.24.053zm.411 3.276v-.124c0-.464.066-.892.199-1.283s.326-.736.58-1.025.564-.514.932-.674.785-.246 1.253-.246c.477 0 .899.082 1.266.246s.684.385.938.674.447.631.58 1.025a3.99 3.99 0 0 1 .199 1.283v.124c0 .46-.067.888-.199 1.283s-.326.732-.58 1.025-.565.514-.932.674-.787.24-1.26.24-.888-.08-1.26-.24a2.6 2.6 0 0 1-.937-.674c-.254-.293-.447-.635-.58-1.025s-.199-.823-.199-1.283zm1.546-.124v.124a3.51 3.51 0 0 0 .083.779 2.06 2.06 0 0 0 .251.638 1.26 1.26 0 0 0 .44.434 1.33 1.33 0 0 0 .656.152c.25 0 .465-.05.645-.152s.326-.25.439-.434.203-.396.258-.638.082-.502.082-.779v-.124c0-.273-.027-.529-.082-.767a2.01 2.01 0 0 0-.258-.639 1.23 1.23 0 0 0-.445-.439c-.18-.11-.397-.164-.651-.164s-.464.054-.644.164a1.25 1.25 0 0 0-.44.439c-.113.184-.197.397-.251.639s-.083.494-.083.767zm9.329 1.881V164h1.558v9h-1.406l-.152-1.348zm-4.073-1.746v-.123c0-.484.055-.924.164-1.318s.278-.74.493-1.026.474-.505.779-.662a2.29 2.29 0 0 1 1.049-.234 2.05 2.05 0 0 1 .99.228c.285.153.527.37.727.651a3.46 3.46 0 0 1 .486 1.002c.121.383.209.805.264 1.265v.334c-.055.45-.143.862-.264 1.237s-.283.703-.486.984-.442.492-.727.645-.619.228-1.002.228-.734-.08-1.043-.24a2.29 2.29 0 0 1-.779-.674c-.211-.289-.373-.629-.487-1.019s-.164-.817-.164-1.278zm1.553-.123v.123c0 .274.024.53.07.768s.123.449.229.633.24.32.404.422.371.152.61.152c.304 0 .554-.067.75-.199s.353-.323.462-.557.18-.506.211-.803v-.92a2.54 2.54 0 0 0-.123-.65c-.062-.199-.152-.371-.269-.516a1.21 1.21 0 0 0-.422-.34 1.35 1.35 0 0 0-.598-.123c-.238 0-.441.053-.609.159a1.16 1.16 0 0 0-.41.427c-.106.184-.184.397-.235.639s-.07.504-.07.785zm9.252 1.711v-4.834h1.559V173h-1.465l-.094-1.506zm.199-1.312l.481-.012a4.65 4.65 0 0 1-.141 1.178c-.094.359-.24.672-.439.937s-.444.467-.744.615-.657.217-1.067.217c-.312 0-.598-.043-.855-.129s-.481-.228-.668-.416-.327-.435-.428-.732-.152-.662-.152-1.084v-4.096h1.546v4.108c0 .211.024.386.071.527a.97.97 0 0 0 .205.346c.09.086.193.148.31.187s.25.053.387.053c.375 0 .67-.074.885-.223a1.25 1.25 0 0 0 .469-.609c.093-.258.14-.547.14-.867zm5.332 1.716c.219 0 .414-.043.586-.128s.309-.208.41-.364a1.02 1.02 0 0 0 .17-.545h1.459a2.06 2.06 0 0 1-.363 1.155c-.234.339-.547.609-.937.808s-.821.293-1.301.293c-.489 0-.914-.082-1.278-.246s-.666-.392-.908-.685-.418-.633-.539-1.02a4.27 4.27 0 0 1-.176-1.242v-.188a4.27 4.27 0 0 1 .176-1.242c.121-.387.301-.726.539-1.019s.545-.522.908-.686.788-.246 1.272-.246c.512 0 .961.1 1.348.299a2.22 2.22 0 0 1 .914.844c.222.363.337.791.345 1.283h-1.459c-.008-.227-.058-.43-.152-.61s-.227-.324-.398-.433-.381-.164-.627-.164c-.262 0-.481.054-.657.164s-.306.26-.404.451-.16.398-.199.633-.053.472-.053.726v.188c0 .258.018.504.053.738s.105.445.199.633.232.33.404.439.399.164.668.164zm6.657-5.238v1.113h-3.633v-1.113h3.633zm-2.661-1.558h1.553v6.07a1 1 0 0 0 .076.433c.051.102.127.17.229.206s.222.052.363.052a2.21 2.21 0 0 0 .281-.017l.217-.035.006 1.16c-.129.043-.275.078-.439.105a3.2 3.2 0 0 1-.545.041c-.348 0-.653-.058-.914-.176s-.465-.314-.61-.58-.217-.625-.217-1.066v-6.193zm7.178 6.164c0-.133-.035-.252-.105-.358s-.203-.201-.399-.287-.472-.174-.844-.252c-.328-.07-.63-.158-.908-.264s-.515-.232-.715-.38-.355-.33-.468-.534-.164-.445-.164-.714c0-.262.056-.508.17-.739s.277-.439.492-.615.476-.32.785-.422.656-.158 1.043-.158c.539 0 1.002.088 1.389.264s.689.418.896.726.311.649.311 1.031h-1.547c0-.168-.039-.32-.118-.457-.074-.136-.189-.246-.345-.328s-.354-.129-.592-.129a1.27 1.27 0 0 0-.545.106c-.144.07-.254.162-.328.275s-.111.239-.111.375c0 .102.019.194.058.276a.67.67 0 0 0 .205.216c.094.067.221.127.381.182a5.42 5.42 0 0 0 .604.158c.472.094.884.219 1.236.375s.633.356.832.61.299.578.299.972c0 .282-.061.539-.182.774a1.8 1.8 0 0 1-.527.603c-.231.172-.506.307-.826.405-.321.093-.682.14-1.084.14-.582 0-1.075-.103-1.477-.31s-.707-.477-.914-.797-.31-.66-.31-1.008h1.482c.012.246.078.443.199.592s.274.256.457.322a1.85 1.85 0 0 0 .592.094c.234 0 .432-.031.592-.094s.281-.154.363-.264a.64.64 0 0 0 .123-.386zm10.26-.481c0-.164-.026-.31-.076-.439s-.135-.252-.264-.358-.303-.215-.533-.316-.52-.215-.879-.328c-.398-.125-.77-.266-1.113-.422a4.37 4.37 0 0 1-.909-.545 2.32 2.32 0 0 1-.603-.715c-.145-.273-.217-.59-.217-.949 0-.352.074-.672.223-.961s.367-.537.644-.744.604-.373.979-.487.797-.169 1.254-.169c.633 0 1.179.115 1.64.345s.825.543 1.078.938.381.838.381 1.33h-1.605a1.42 1.42 0 0 0-.17-.703c-.109-.203-.277-.364-.504-.481s-.504-.176-.844-.176c-.328 0-.601.049-.82.147s-.377.23-.486.398-.159.356-.159.563c0 .156.038.297.112.422a1.24 1.24 0 0 0 .334.345c.148.106.332.206.551.299l.773.27c.469.14.879.297 1.23.469.356.171.651.367.885.586a2.12 2.12 0 0 1 .533.738c.122.273.182.584.182.931 0 .368-.072.696-.217.985a2.07 2.07 0 0 1-.621.738c-.269.203-.594.358-.972.463a4.67 4.67 0 0 1-1.26.158 4.74 4.74 0 0 1-1.231-.164c-.402-.113-.767-.281-1.095-.504a2.56 2.56 0 0 1-.786-.855c-.195-.348-.293-.754-.293-1.219h1.618c0 .27.043.5.129.691s.214.342.375.463.355.203.574.258.455.082.709.082c.328 0 .597-.045.808-.135s.375-.222.481-.386.164-.352.164-.563zm4.383-6.785v9h-1.553v-9h1.553zm3.117 2.66V173h-1.553v-6.34h1.553zm-1.658-1.658c0-.231.078-.422.234-.574s.375-.229.645-.229.482.076.638.229a.76.76 0 0 1 .241.574.75.75 0 0 1-.241.568c-.156.153-.369.229-.638.229s-.485-.076-.645-.229a.76.76 0 0 1-.234-.568zm6.937 6.65V164h1.559v9h-1.406l-.153-1.348zm-4.072-1.746v-.123c0-.484.055-.924.164-1.318s.277-.74.492-1.026.475-.505.779-.662.659-.234 1.049-.234c.379 0 .709.076.991.228s.527.37.726.651a3.46 3.46 0 0 1 .486 1.002c.122.383.209.805.264 1.265v.334c-.055.45-.142.862-.264 1.237s-.283.703-.486.984-.441.492-.726.645-.62.228-1.002.228a2.23 2.23 0 0 1-1.043-.24c-.305-.16-.565-.385-.78-.674s-.373-.629-.486-1.019-.164-.817-.164-1.278zm1.553-.123v.123c0 .274.023.53.07.768s.123.449.228.633.241.32.405.422.371.152.609.152c.305 0 .555-.067.75-.199s.354-.323.463-.557.18-.506.211-.803v-.92a2.63 2.63 0 0 0-.123-.65c-.063-.199-.152-.371-.27-.516s-.253-.257-.421-.34-.368-.123-.598-.123c-.238 0-.442.053-.61.159s-.304.244-.41.427-.183.397-.234.639-.07.504-.07.785zm8.326 3.334c-.481 0-.912-.078-1.295-.234s-.709-.373-.979-.651-.47-.607-.615-.978c-.14-.375-.211-.777-.211-1.207v-.235c0-.488.071-.931.211-1.33s.34-.748.598-1.037.566-.511.926-.668a2.95 2.95 0 0 1 1.189-.234c.449 0 .846.076 1.19.228a2.32 2.32 0 0 1 .861.633 2.77 2.77 0 0 1 .521.985c.118.379.176.799.176 1.259v.651h-4.969v-1.067h3.446v-.117c-.008-.246-.055-.47-.141-.674a1.08 1.08 0 0 0-.398-.492c-.18-.125-.413-.187-.698-.187a1.16 1.16 0 0 0-.603.152 1.21 1.21 0 0 0-.422.422 2.11 2.11 0 0 0-.246.644c-.055.25-.082.528-.082.832v.235a2.49 2.49 0 0 0 .105.738c.074.227.182.424.323.592a1.57 1.57 0 0 0 .515.387c.203.09.434.134.692.134.324 0 .617-.062.878-.187.266-.129.497-.318.692-.568l.779.808c-.133.195-.312.383-.539.563s-.492.326-.808.439-.682.164-1.096.164zm5.156-5.162V173h-1.547v-6.34h1.465l.082 1.295zm1.928-1.336l-.024 1.442c-.086-.016-.183-.028-.293-.036l-.298-.011a1.81 1.81 0 0 0-.627.099c-.18.063-.33.155-.452.276-.117.121-.207.269-.269.445a1.9 1.9 0 0 0-.106.586l-.334-.041c0-.402.041-.775.124-1.119s.201-.645.357-.903a1.72 1.72 0 0 1 .586-.597c.238-.145.512-.217.82-.217.086 0 .178.008.276.023s.181.03.24.053z" fill="#546069"/><rect x="20.5" y="19.5" width="209" height="137" rx="3.5" class="B"/><rect x="20.5" y="19.5" width="209" height="137" rx="3.5" stroke="#bbc2c7"/><rect x="48.396" y="31.396" width="44.462" height="53.405" rx="2.994" class="B D E"/><path d="M48 34.39A3.39 3.39 0 0 1 51.39 31h38.474a3.39 3.39 0 0 1 3.39 3.39v30.91H48V34.39z" class="C"/><path d="M84.18 44.388l-6.497-5.966-3.248-.562c0 1.859-1.648 3.372-3.767 3.372s-3.766-1.513-3.766-3.372l-3.249.562-6.591 5.793 4.473 4.107 2.166-1.989V58.44h13.983V46.55l2.072 1.902 4.426-4.064z" class="B"/><g class="C"><rect x="53.678" y="70.004" width="33.898" height="4.306" rx="2.153"/><rect x="63.848" y="76.465" width="13.559" height="4.306" rx="2.153"/></g><rect x="102.269" y="31.396" width="44.462" height="53.405" rx="2.994" class="B D E"/><path d="M101.873 34.39a3.39 3.39 0 0 1 3.39-3.39h38.474a3.39 3.39 0 0 1 3.39 3.39v30.91h-45.254V34.39z" class="C"/><path d="M138.053 44.388l-6.497-5.966-3.249-.562c0 1.859-1.647 3.372-3.766 3.372s-3.766-1.513-3.766-3.372l-3.249.562-6.591 5.793 4.472 4.107 2.166-1.989V58.44h13.983V46.55l2.071 1.902 4.426-4.064z" class="B"/><g class="C"><rect x="107.551" y="70.004" width="33.898" height="4.306" rx="2.153"/><rect x="117.721" y="76.465" width="13.559" height="4.306" rx="2.153"/></g><rect x="156.142" y="31.396" width="44.462" height="53.405" rx="2.994" class="B D E"/><path d="M155.746 34.39a3.39 3.39 0 0 1 3.39-3.39h38.474a3.39 3.39 0 0 1 3.39 3.39v30.91h-45.254V34.39z" class="C"/><path d="M191.926 44.388l-6.497-5.966-3.248-.562c0 1.859-1.648 3.372-3.767 3.372s-3.766-1.513-3.766-3.372l-3.249.562-6.591 5.793 4.473 4.107 2.165-1.989V58.44h13.983V46.55l2.072 1.902 4.425-4.064z" class="B"/><g class="C"><rect x="161.425" y="70.004" width="33.898" height="4.306" rx="2.153"/><rect x="171.594" y="76.465" width="13.559" height="4.306" rx="2.153"/></g><rect x="48.396" y="90.98" width="44.462" height="53.405" rx="2.994" class="B D E"/><path d="M48 93.974a3.39 3.39 0 0 1 3.39-3.39h38.474a3.39 3.39 0 0 1 3.39 3.39v30.909H48V93.974z" class="C"/><path d="M84.18 103.972l-6.497-5.966-3.248-.562c0 1.859-1.648 3.372-3.767 3.372s-3.766-1.513-3.766-3.372l-3.249.562-6.591 5.793 4.473 4.107 2.166-1.988v12.105h13.983v-11.889l2.072 1.902 4.426-4.064z" class="B"/><g class="C"><rect x="53.678" y="129.588" width="33.898" height="4.306" rx="2.153"/><rect x="63.848" y="136.049" width="13.559" height="4.306" rx="2.153"/></g><rect x="102.269" y="90.98" width="44.462" height="53.405" rx="2.994" class="B D E"/><path d="M101.873 93.974a3.39 3.39 0 0 1 3.39-3.39h38.474a3.39 3.39 0 0 1 3.39 3.39v30.909h-45.254V93.974z" class="C"/><path d="M138.053 103.972l-6.497-5.966-3.249-.562c0 1.859-1.647 3.372-3.766 3.372s-3.766-1.513-3.766-3.372l-3.249.562-6.591 5.793 4.472 4.108 2.166-1.989v12.105h13.983v-11.889l2.071 1.902 4.426-4.064z" class="B"/><g class="C"><rect x="107.551" y="129.588" width="33.898" height="4.306" rx="2.153"/><rect x="117.721" y="136.049" width="13.559" height="4.306" rx="2.153"/></g><rect x="156.142" y="90.98" width="44.462" height="53.405" rx="2.994" class="B D E"/><path d="M155.746 93.974a3.39 3.39 0 0 1 3.39-3.39h38.474a3.39 3.39 0 0 1 3.39 3.39v30.909h-45.254V93.974z" class="C"/><path d="M191.926 103.972l-6.497-5.966-3.248-.562c0 1.859-1.648 3.372-3.767 3.372s-3.766-1.513-3.766-3.372l-3.249.562-6.591 5.793 4.473 4.108 2.165-1.989v12.105h13.983v-11.889l2.072 1.902 4.425-4.064z" class="B"/><g class="C"><rect x="161.425" y="129.588" width="33.898" height="4.306" rx="2.153"/><rect x="171.594" y="136.049" width="13.559" height="4.306" rx="2.153"/></g><path d="M41 83l-5 5 5 5-1 2-7-7 7-7 1 2zm168 0l5 5-5 5 1 2 7-7-7-7-1 2z" fill="#546069"/></svg>