<svg xmlns="http://www.w3.org/2000/svg" xmlns:xlink="http://www.w3.org/1999/xlink" width="120" height="80" fill="none"><style><![CDATA[.I{fill:#fff}.J{fill:#718491}.K{stroke:#718491}.L{stroke-width:.722}]]></style><rect x=".75" y=".75" width="118.5" height="78.5" rx="3.25" class="I"/><rect x=".75" y=".75" width="118.5" height="78.5" rx="3.25" stroke="#8796a1" stroke-width="1.5"/><g class="I"><rect x="14" y="14" width="92" height="52" rx="2"/><rect x="14.361" y="27.361" width="19.5" height="25.278" rx="1.083" class="K L"/></g><path d="M14 28.444c0-.798.647-1.444 1.444-1.444h17.333c.798 0 1.444.647 1.444 1.444v13H14v-13z" class="J"/><path d="M29.889 32.638l-2.768-2.513-1.384-.237c0 .783-.702 1.42-1.605 1.42s-1.605-.637-1.605-1.42l-1.384.237-2.809 2.44 1.906 1.73.923-.837v5.098h5.958v-5.007l.883.801 1.886-1.712z" class="I"/><g class="J"><rect x="16.889" y="44.333" width="14.444" height="2.167" rx="1.083"/><rect x="21.222" y="47.944" width="5.778" height="2.167" rx="1.083"/></g><rect x="38.287" y="27.361" width="19.5" height="25.278" rx="1.083" class="I K L"/><path d="M37.926 28.444c0-.798.647-1.444 1.444-1.444h17.333c.798 0 1.444.647 1.444 1.444v13H37.926v-13z" class="J"/><use xlink:href="#A" class="I"/><g class="J"><rect x="40.815" y="44.333" width="14.444" height="2.167" rx="1.083"/><rect x="45.148" y="47.944" width="5.778" height="2.167" rx="1.083"/></g><rect x="62.213" y="27.361" width="19.5" height="25.278" rx="1.083" class="I K L"/><path d="M61.852 28.444c0-.798.647-1.444 1.445-1.444H80.63c.798 0 1.444.647 1.444 1.444v13H61.852v-13z" class="J"/><use xlink:href="#A" x="23.926" class="I"/><g class="J"><rect x="64.741" y="44.333" width="14.444" height="2.167" rx="1.083"/><rect x="69.074" y="47.944" width="5.778" height="2.167" rx="1.083"/></g><rect x="86.139" y="27.361" width="19.5" height="25.278" rx="1.083" class="I K L"/><path d="M85.778 28.444c0-.798.647-1.444 1.445-1.444h17.334c.797 0 1.444.647 1.444 1.444v13H85.778v-13z" class="J"/><use xlink:href="#A" x="47.852" class="I"/><g class="J"><rect x="88.667" y="44.333" width="14.444" height="2.167" rx="1.083"/><rect x="93" y="47.944" width="5.778" height="2.167" rx="1.083"/><path d="M9.5 36.88l-3.125 3.125L9.5 43.13l-.625 1.25L4.5 40.005l4.375-4.375.625 1.25zm101 6.25l3.125-3.125-3.125-3.125.625-1.25 4.375 4.375-4.375 4.375-.625-1.25z"/></g><defs><path id="A" d="M53.815 32.638l-2.769-2.513-1.384-.237c0 .783-.702 1.42-1.605 1.42s-1.605-.637-1.605-1.42l-1.384.237-2.809 2.44 1.906 1.73.923-.837v5.098h5.958v-5.007l.883.801 1.886-1.712z"/></defs></svg>