<svg xmlns="http://www.w3.org/2000/svg" xmlns:xlink="http://www.w3.org/1999/xlink" width="90" height="60" fill="none"><style><![CDATA[.B{fill:#fff}.C{fill:#718491}.D{stroke:#718491}.E{stroke-width:.715}]]></style><rect x=".5" y=".5" width="89" height="59" rx="3.5" class="B"/><rect x=".5" y=".5" width="89" height="59" rx="3.5" stroke="#8796a1"/><g clip-path="url(#A)"><rect x="-3.642" y="19.358" width="19.285" height="25.285" rx="1.073" class="B D E"/><path d="M-4 20.43A1.43 1.43 0 0 1-2.57 19H14.57A1.43 1.43 0 0 1 16 20.43v13.014H-4V20.43z" class="C"/><use xlink:href="#B" class="B"/><rect x="-1.152" y="36.333" width="14.304" height="2.146" rx="1.073" class="C"/><rect x="20.358" y="19.358" width="19.285" height="25.285" rx="1.073" class="B D E"/><path d="M20 20.43A1.43 1.43 0 0 1 21.43 19H38.57A1.43 1.43 0 0 1 40 20.43v13.014H20V20.43z" class="C"/><path d="M35.714 24.638l-2.738-2.513-1.369-.237c0 .783-.694 1.42-1.587 1.42s-1.587-.637-1.587-1.42l-1.369.237-2.778 2.44 1.885 1.73.913-.838v5.098h5.893v-5.007l.873.801 1.865-1.711z" class="B"/><g class="C"><rect x="22.848" y="36.333" width="14.304" height="2.146" rx="1.073"/><rect x="27.139" y="39.909" width="5.722" height="2.146" rx="1.073"/></g><rect x="44.358" y="19.358" width="19.285" height="25.285" rx="1.073" class="B D E"/><path d="M44 20.43A1.43 1.43 0 0 1 45.43 19H62.57A1.43 1.43 0 0 1 64 20.43v13.014H44V20.43z" class="C"/><path d="M59.715 24.638l-2.738-2.513-1.369-.237c0 .783-.694 1.42-1.587 1.42s-1.587-.637-1.587-1.42l-1.369.237-2.778 2.44 1.885 1.73.913-.838v5.098h5.893v-5.007l.873.801 1.865-1.711z" class="B"/><g class="C"><rect x="46.848" y="36.333" width="14.304" height="2.146" rx="1.073"/><rect x="51.139" y="39.909" width="5.722" height="2.146" rx="1.073"/></g><rect x="68.358" y="19.358" width="19.285" height="25.285" rx="1.073" class="B D E"/><path d="M68 20.43A1.43 1.43 0 0 1 69.43 19H86.57A1.43 1.43 0 0 1 88 20.43v13.014H68V20.43z" class="C"/><path d="M83.714 24.638l-2.738-2.513-1.369-.237c0 .783-.694 1.42-1.587 1.42s-1.587-.637-1.587-1.42l-1.369.237-2.778 2.44 1.885 1.73.913-.838v5.098h5.893v-5.007l.873.801 1.865-1.711z" class="B"/><g class="C"><rect x="70.848" y="36.333" width="14.304" height="2.146" rx="1.073"/><rect x="75.139" y="39.909" width="5.722" height="2.146" rx="1.073"/></g></g><path d="M59.875 11.5a.5.5 0 0 1 .5-.5h.5a.5.5 0 0 1 .5.5v.5a.5.5 0 0 1-.5.5h-.5a.5.5 0 0 1-.5-.5v-.5zm-3.5 0a.5.5 0 0 1 .5-.5h1.5a.5.5 0 0 1 .5.5v.5a.5.5 0 0 1-.5.5h-1.5a.5.5 0 0 1-.5-.5v-.5zm-4.5 0a.5.5 0 0 1 .5-.5h2.5a.5.5 0 0 1 .5.5v.5a.5.5 0 0 1-.5.5h-2.5a.5.5 0 0 1-.5-.5v-.5z" fill-rule="evenodd" class="C"/><path d="M34.405 8.28a.75.75 0 0 0-1.061-1.061l-4 4a.75.75 0 0 0 0 1.061l4 4a.75.75 0 0 0 1.061-1.061l-2.72-2.72h18.189.75a.5.5 0 0 0 .5-.5v-.5a.5.5 0 0 0-.5-.5h-1-17.939l2.72-2.72z" class="C"/><defs><clipPath id="A"><path transform="translate(11 19)" d="M0 0h68v26H0z" class="B"/></clipPath><path id="B" d="M11.714 24.638l-2.738-2.513-1.369-.237c0 .783-.694 1.42-1.587 1.42s-1.587-.637-1.587-1.42l-1.369.237-2.778 2.44 1.885 1.73.913-.838v5.098h5.893v-5.007l.873.801 1.865-1.711z"/></defs></svg>