<svg width="30" height="30" viewBox="0 0 30 30" fill="none" xmlns="http://www.w3.org/2000/svg">
<path d="M23.9237 23.0222H6.59704C5.16622 23.0222 4 21.856 4 20.4252V10.1448C4 8.71401 5.16622 7.54779 6.59704 7.54779H23.9335C25.3644 7.54779 26.5306 8.71401 26.5306 10.1448V20.4252C26.5306 21.856 25.3644 23.0222 23.9237 23.0222ZM6.59704 8.2926C5.57783 8.2926 4.74481 9.12562 4.74481 10.1448V20.4252C4.74481 21.4444 5.57783 22.2774 6.59704 22.2774H23.9335C24.9527 22.2774 25.7858 21.4444 25.7858 20.4252V10.1448C25.7858 9.12562 24.9527 8.2926 23.9335 8.2926H6.59704Z" fill="white"/>
<path d="M19.9227 6.70485C19.1779 6.70485 18.5703 6.09723 18.5703 5.35242C18.5703 4.60761 19.1779 4 19.9227 4C20.6675 4 21.2752 4.60761 21.2752 5.35242C21.2752 6.09723 20.6675 6.70485 19.9227 6.70485ZM19.9227 4.74481C19.5895 4.74481 19.3151 5.01922 19.3151 5.35242C19.3151 5.68563 19.5895 5.96003 19.9227 5.96003C20.2559 5.96003 20.5303 5.68563 20.5303 5.35242C20.5303 5.01922 20.2559 4.74481 19.9227 4.74481Z" fill="white"/>
<path d="M6.14539 26.5404C5.40058 26.5404 4.79297 25.9327 4.79297 25.1879C4.79297 24.4431 5.40058 23.8355 6.14539 23.8355C6.8902 23.8355 7.49781 24.4431 7.49781 25.1879C7.49781 25.9327 6.8902 26.5404 6.14539 26.5404ZM6.14539 24.5803C5.81219 24.5803 5.53778 24.8547 5.53778 25.1879C5.53778 25.5211 5.81219 25.7955 6.14539 25.7955C6.4786 25.7955 6.753 25.5211 6.753 25.1879C6.7432 24.8547 6.4786 24.5803 6.14539 24.5803Z" fill="white"/>
<path d="M13.9067 14.9077C13.8675 15.0253 13.8577 15.1527 13.8577 15.2801C13.8577 15.4075 13.8773 15.5349 13.9067 15.6525H4.37109V14.8979H13.9067V14.9077Z" fill="white"/>
<path d="M26.1449 14.9075V15.6621H16.6094C16.6486 15.5445 16.6584 15.4171 16.6584 15.2897C16.6584 15.1623 16.6388 15.0349 16.6094 14.9173H26.1449V14.9075Z" fill="white"/>
<path d="M15.2563 17.0734C14.2763 17.0734 13.4727 16.2698 13.4727 15.2898C13.4727 14.3098 14.2763 13.5062 15.2563 13.5062C16.2363 13.5062 17.0399 14.3098 17.0399 15.2898C17.0399 16.2698 16.2363 17.0734 15.2563 17.0734ZM15.2563 14.251C14.6879 14.251 14.2273 14.7116 14.2273 15.28C14.2273 15.8484 14.6879 16.309 15.2563 16.309C15.8247 16.309 16.2853 15.8484 16.2853 15.28C16.2853 14.7116 15.8247 14.251 15.2563 14.251Z" fill="white"/>
<path d="M13.2377 13.3787C13.1201 13.3787 13.0025 13.3297 12.9143 13.2513C12.7281 13.0749 12.7281 12.7809 12.9045 12.5947L12.9339 12.5653L14.9332 10.5661C15.1096 10.3897 15.4232 10.3897 15.5996 10.5661L17.6086 12.5751C17.7948 12.7613 17.785 13.0553 17.5988 13.2415C17.4126 13.4179 17.1284 13.4179 16.952 13.2415L15.2566 11.5559L13.571 13.2415C13.4925 13.3199 13.3749 13.3689 13.2377 13.3787C13.2475 13.3787 13.2475 13.3787 13.2377 13.3787V13.3787ZM13.0417 12.7025C13.0417 12.7123 13.0417 12.7123 13.0417 12.7025V12.7025Z" fill="white"/>
<path d="M15.2568 20.0331C15.1392 20.0331 15.0118 19.9841 14.9334 19.8959L12.9145 17.877C12.8263 17.779 12.7773 17.6614 12.7773 17.5438C12.7773 17.4164 12.8263 17.2988 12.9243 17.2204C13.1007 17.044 13.3948 17.044 13.5712 17.2204L15.2568 18.9061L16.9424 17.2204C17.0208 17.1322 17.1384 17.0832 17.2658 17.0832C17.3932 17.0734 17.5108 17.1322 17.599 17.2106C17.6872 17.2988 17.7362 17.4164 17.746 17.534C17.746 17.6614 17.697 17.779 17.6186 17.8672L15.5998 19.8861C15.5018 19.9841 15.3842 20.0331 15.2568 20.0331V20.0331Z" fill="white"/>
</svg>
