<svg width="16" height="16" viewBox="0 0 16 16" fill="none" xmlns="http://www.w3.org/2000/svg">
<g clip-path="url(#clip0_3123_11579)">
<path fill-rule="evenodd" clip-rule="evenodd" d="M11.2008 1.40042C11.2008 1.06904 11.4694 0.800415 11.8008 0.800415H14.6008C14.9322 0.800415 15.2008 1.06904 15.2008 1.40042V4.20042C15.2008 4.53179 14.9322 4.80042 14.6008 4.80042C14.2694 4.80042 14.0008 4.53179 14.0008 4.20042V2.84894L9.22505 7.62468C8.99073 7.85899 8.61083 7.85899 8.37652 7.62468C8.1422 7.39036 8.1422 7.01047 8.37652 6.77615L13.1523 2.00042H11.8008C11.4694 2.00042 11.2008 1.73179 11.2008 1.40042ZM0.800781 3.80042C0.800781 2.58539 1.78575 1.60042 3.00078 1.60042H7.20078C7.53215 1.60042 7.80078 1.86904 7.80078 2.20042C7.80078 2.53179 7.53215 2.80042 7.20078 2.80042H3.00078C2.4485 2.80042 2.00078 3.24813 2.00078 3.80042V13.0004C2.00078 13.5527 2.4485 14.0004 3.00078 14.0004H12.2008C12.7531 14.0004 13.2008 13.5527 13.2008 13.0004V8.80042C13.2008 8.46904 13.4694 8.20042 13.8008 8.20042C14.1322 8.20042 14.4008 8.46904 14.4008 8.80042V13.0004C14.4008 14.2154 13.4158 15.2004 12.2008 15.2004H3.00078C1.78576 15.2004 0.800781 14.2154 0.800781 13.0004V3.80042Z" fill="#8DB0FB"/>
</g>
<defs>
<clipPath id="clip0_3123_11579">
<rect width="16" height="16" fill="white" transform="translate(0 0.000427246)"/>
</clipPath>
</defs>
</svg>
