<svg width="143" height="30" viewBox="0 0 143 30" fill="none" xmlns="http://www.w3.org/2000/svg">
<g id="Layer_1" clip-path="url(#clip0_2359_226)">
<g id="Group">
<path id="Vector" d="M36.7763 24.7746C35.1071 24.7746 33.6694 24.4147 32.4578 23.6897C31.2463 22.9647 30.3202 21.9496 29.6632 20.6499C29.0117 19.3502 28.6832 17.8357 28.6832 16.1064C28.6832 14.377 29.0117 12.8679 29.6632 11.5628C30.3148 10.2631 31.2463 9.24807 32.4578 8.52304C33.6694 7.798 35.1071 7.43817 36.7763 7.43817C38.4455 7.43817 39.8832 7.798 41.0948 8.52304C42.3063 9.24807 43.2325 10.2631 43.8894 11.5628C44.5409 12.8625 44.8694 14.377 44.8694 16.1064C44.8694 17.8357 44.5409 19.3449 43.8894 20.6499C43.2378 21.955 42.3063 22.9647 41.0948 23.6897C39.8832 24.4147 38.4455 24.7746 36.7763 24.7746ZM36.7763 21.8153C37.8371 21.8315 38.7148 21.6059 39.4202 21.1333C40.1255 20.6607 40.6532 19.9947 41.0032 19.1354C41.3532 18.2707 41.5309 17.2611 41.5309 16.1064C41.5309 14.9517 41.3532 13.9474 41.0032 13.0988C40.6532 12.2503 40.1255 11.595 39.4202 11.1224C38.7148 10.6498 37.8371 10.4081 36.7763 10.392C35.7155 10.3759 34.8378 10.6068 34.1325 11.0741C33.4271 11.5413 32.9048 12.2127 32.5494 13.072C32.1994 13.9366 32.0217 14.9463 32.0217 16.101C32.0217 17.2557 32.1994 18.26 32.5494 19.1086C32.8994 19.9571 33.4271 20.6177 34.1325 21.0849C34.8378 21.5522 35.7155 21.7992 36.7763 21.8153Z" fill="black"/>
<path id="Vector_2" d="M50.9379 24.4255V10.7143H45.6771V7.77652H59.354V10.7143H54.0933V24.4255H50.9433H50.9379Z" fill="black"/>
<path id="Vector_3" d="M61.5509 24.4255V7.78189H68.5994C68.7609 7.78189 68.9817 7.78726 69.2563 7.798C69.5309 7.80874 69.7732 7.8356 69.994 7.87319C70.9901 8.02894 71.8086 8.35655 72.444 8.85602C73.0794 9.35548 73.5478 9.98922 73.8494 10.7465C74.1509 11.5037 74.3017 12.3523 74.3017 13.2814C74.3017 14.2105 74.1509 15.0591 73.844 15.8164C73.5371 16.5736 73.0686 17.2073 72.4332 17.7068C71.7978 18.2063 70.9847 18.5339 69.994 18.6896C69.7786 18.7219 69.5309 18.7433 69.2509 18.7595C68.9709 18.7756 68.7555 18.7809 68.5994 18.7809H64.7063V24.4201H61.5563L61.5509 24.4255ZM64.7009 15.8486H68.454C68.6155 15.8486 68.7932 15.8432 68.9871 15.8271C69.1809 15.811 69.3586 15.7788 69.5201 15.7358C69.9455 15.623 70.274 15.4243 70.5055 15.1504C70.7371 14.8765 70.8986 14.5704 70.9848 14.2374C71.0709 13.9044 71.1194 13.5822 71.1194 13.2814C71.1194 12.9807 71.0763 12.6638 70.9848 12.3254C70.8932 11.9925 70.7371 11.6863 70.5055 11.4124C70.274 11.1385 69.9455 10.9452 69.5201 10.827C69.3586 10.7787 69.1809 10.7518 68.9871 10.7357C68.7932 10.7196 68.6155 10.7143 68.454 10.7143H64.7009V15.8486Z" fill="black"/>
<path id="Vector_4" d="M77.1985 24.4255V7.78189H80.3485V21.4877H87.5316V24.4255H77.1931H77.1985Z" fill="black"/>
<path id="Vector_5" d="M89.8525 24.4255V7.78189H100.746V10.7196H93.0025V14.2804H99.351V17.2181H93.0025V21.4931H100.746V24.4308H89.8525V24.4255Z" fill="black"/>
<path id="Vector_6" d="M110.179 24.7746C108.941 24.7746 107.826 24.5544 106.836 24.1193C105.845 23.6843 105.026 23.0613 104.391 22.245C103.756 21.4287 103.352 20.4619 103.179 19.3395L106.469 18.8561C106.701 19.8121 107.18 20.5479 107.907 21.0635C108.634 21.579 109.458 21.8368 110.389 21.8368C110.906 21.8368 111.407 21.7563 111.897 21.5951C112.382 21.434 112.786 21.1924 113.098 20.8809C113.41 20.564 113.566 20.1773 113.566 19.7154C113.566 19.5436 113.539 19.3824 113.491 19.2267C113.443 19.071 113.356 18.9206 113.243 18.7809C113.125 18.6413 112.963 18.5124 112.748 18.3889C112.533 18.2654 112.269 18.1526 111.94 18.0559L107.606 16.7831C107.283 16.6918 106.906 16.5575 106.475 16.391C106.044 16.2191 105.629 15.9775 105.231 15.6606C104.827 15.3437 104.493 14.9248 104.229 14.4092C103.96 13.8883 103.831 13.2331 103.831 12.4382C103.831 11.3211 104.111 10.392 104.676 9.65087C105.242 8.90972 105.996 8.36192 106.938 7.99672C107.88 7.63688 108.925 7.45965 110.066 7.46502C111.219 7.48114 112.247 7.67985 113.146 8.05579C114.051 8.43174 114.805 8.98491 115.419 9.70458C116.027 10.4242 116.469 11.305 116.738 12.3469L113.329 12.927C113.206 12.3899 112.979 11.9334 112.646 11.5628C112.312 11.1922 111.919 10.913 111.456 10.7196C110.998 10.5263 110.513 10.4242 110.013 10.4081C109.517 10.392 109.054 10.4618 108.618 10.6122C108.182 10.7626 107.826 10.9828 107.552 11.2674C107.277 11.5521 107.143 11.8904 107.143 12.2825C107.143 12.6423 107.256 12.9377 107.476 13.1686C107.703 13.3942 107.983 13.5768 108.322 13.7164C108.661 13.8561 109.011 13.9689 109.366 14.0655L112.263 14.8496C112.694 14.9624 113.173 15.1182 113.701 15.3061C114.229 15.4941 114.729 15.7573 115.214 16.0903C115.699 16.4232 116.097 16.869 116.409 17.4114C116.722 17.9539 116.878 18.652 116.878 19.4899C116.878 20.3814 116.689 21.1655 116.318 21.8315C115.941 22.4974 115.44 23.0506 114.805 23.4856C114.169 23.9206 113.453 24.2482 112.656 24.4631C111.854 24.6779 111.03 24.7853 110.179 24.7853V24.7746Z" fill="black"/>
<path id="Vector_7" d="M126.425 24.7746C125.186 24.7746 124.072 24.5544 123.081 24.1193C122.09 23.6843 121.272 23.0613 120.636 22.245C120.001 21.4287 119.597 20.4619 119.425 19.3395L122.715 18.8561C122.946 19.8121 123.426 20.5479 124.152 21.0635C124.879 21.579 125.703 21.8368 126.635 21.8368C127.152 21.8368 127.652 21.7563 128.142 21.5951C128.627 21.434 129.031 21.1924 129.343 20.8809C129.656 20.564 129.812 20.1773 129.812 19.7154C129.812 19.5436 129.785 19.3824 129.736 19.2267C129.688 19.071 129.602 18.9206 129.489 18.7809C129.37 18.6413 129.209 18.5124 128.993 18.3889C128.778 18.2654 128.514 18.1526 128.186 18.0559L123.851 16.7831C123.528 16.6918 123.151 16.5575 122.72 16.391C122.289 16.2191 121.875 15.9775 121.476 15.6606C121.072 15.3437 120.739 14.9248 120.475 14.4092C120.206 13.8883 120.076 13.2331 120.076 12.4382C120.076 11.3211 120.356 10.392 120.922 9.65087C121.487 8.90972 122.241 8.36192 123.183 7.99672C124.126 7.63688 125.17 7.45965 126.312 7.46502C127.464 7.48114 128.492 7.67985 129.392 8.05579C130.296 8.43174 131.05 8.98491 131.664 9.70458C132.272 10.4242 132.714 11.305 132.983 12.3469L129.575 12.927C129.451 12.3899 129.225 11.9334 128.891 11.5628C128.557 11.1922 128.164 10.913 127.701 10.7196C127.243 10.5263 126.759 10.4242 126.258 10.4081C125.762 10.392 125.299 10.4618 124.863 10.6122C124.427 10.7626 124.072 10.9828 123.797 11.2674C123.522 11.5521 123.388 11.8904 123.388 12.2825C123.388 12.6423 123.501 12.9377 123.722 13.1686C123.948 13.3942 124.228 13.5768 124.567 13.7164C124.906 13.8561 125.256 13.9689 125.612 14.0655L128.509 14.8496C128.939 14.9624 129.419 15.1182 129.946 15.3061C130.474 15.4941 130.975 15.7573 131.459 16.0903C131.944 16.4232 132.342 16.869 132.655 17.4114C132.967 17.9539 133.123 18.652 133.123 19.4899C133.123 20.3814 132.935 21.1655 132.563 21.8315C132.186 22.4974 131.686 23.0506 131.05 23.4856C130.415 23.9206 129.699 24.2482 128.902 24.4631C128.099 24.6779 127.276 24.7853 126.425 24.7853V24.7746Z" fill="black"/>
</g>
<g id="Group_2">
<path id="Vector_8" d="M21.9579 12.073V25.6607L15.5556 29.5276V15.4565C15.5556 13.566 14.5379 11.826 12.8848 10.8968L0.8125 4.09763L7.38712 0.230774L19.0233 6.98166C20.8433 8.0343 21.9579 9.97847 21.9579 12.073Z" fill="black"/>
<path id="Vector_9" d="M13.4879 23.6951V28.3568L0.8125 21.0097L4.69481 18.6359L13.4879 23.6951Z" fill="black"/>
<path id="Vector_10" d="M0.8125 4.09796V21.0097L4.69481 18.6359L4.74847 6.31254L0.8125 4.09796Z" fill="black"/>
<path id="Vector_11" d="M11.0109 15.3061C10.8979 15.4673 10.7202 15.5747 10.5102 15.6123L10.6663 18.2922L8.57709 17.0892L8.99709 15.0591C8.55555 14.6241 8.41016 14.0494 8.67401 13.6788C8.98632 13.2331 9.7617 13.2384 10.4079 13.6896C11.054 14.1407 11.3232 14.8657 11.0163 15.3115L11.0109 15.3061Z" fill="black"/>
</g>
</g>
<defs>
<clipPath id="clip0_2359_226">
<rect width="142.154" height="29.5385" fill="white" transform="translate(0.8125 0.230774)"/>
</clipPath>
</defs>
</svg>
