<svg xmlns="http://www.w3.org/2000/svg" viewBox="0 0 96 96"><title>pricing matrix</title><g id="Layer_2" data-name="Layer 2"><g id="Layer_1-2" data-name="Layer 1"><circle cx="15.8" cy="68.36" r="2.74"/><circle cx="15.8" cy="78.81" r="2.74"/><path d="M96,93V3a3,3,0,0,0-3-3H30.85a3,3,0,0,0-3,3V36.56H4.48A4.49,4.49,0,0,0,0,41V91.52A4.49,4.49,0,0,0,4.48,96H93A3,3,0,0,0,96,93ZM27.85,94H4.48A2.48,2.48,0,0,1,2,91.52V41a2.45,2.45,0,0,1,2.48-2.48H27.85Zm2,0V37.57h0V3a1,1,0,0,1,1-1H93a1,1,0,0,1,1,1V93a1,1,0,0,1-1,1Z"/><path d="M58,49.32h7.74a1.5,1.5,0,0,0,0-3H58a1.5,1.5,0,0,0,0,3Z"/><path d="M82.81,66.86H41a1.5,1.5,0,0,0,0,3H82.81a1.5,1.5,0,0,0,0-3Z"/><path d="M82.81,78.18H41a1.5,1.5,0,1,0,0,3H82.81a1.5,1.5,0,0,0,0-3Z"/><path d="M61.92,29.7c1.1,0,2,.67,2,1.49s-.89,1.5-2,1.5a2.13,2.13,0,0,1-1.76-.82,1.49,1.49,0,0,0-2.08-.4,1.45,1.45,0,0,0-.63,1,1.48,1.48,0,0,0,.23,1.12,4.91,4.91,0,0,0,2.74,1.93V36.7a1.5,1.5,0,0,0,3,0V35.48a4.56,4.56,0,0,0,3.49-4.29,4.76,4.76,0,0,0-5-4.49,1.79,1.79,0,0,1-2-1.5,1.79,1.79,0,0,1,1.9-1.5H62a2.13,2.13,0,0,1,1.68.83,1.45,1.45,0,0,0,1,.63A1.5,1.5,0,0,0,66.4,24a1.48,1.48,0,0,0-.23-1.12,4.91,4.91,0,0,0-2.75-1.94V19.68a1.5,1.5,0,1,0-3,0v1.24a4.56,4.56,0,0,0-3.48,4.28A4.77,4.77,0,0,0,61.92,29.7Z"/></g></g></svg>