<svg xmlns="http://www.w3.org/2000/svg" width="200" height="160" viewBox="0 0 200 160" fill="none">
  <rect x="5.5" y="42.5" width="59" height="81" rx="3.5" fill="white" stroke="#D6DAE1"/>
  <rect x="10.5" y="94.5" width="49" height="19" rx="3.5" fill="#F5F6F7" stroke="#D6DAE1"/>
  <rect x="23.5" y="84.5" width="23" height="2" rx="0.5" fill="#D6DAE1" stroke="#D6DAE1"/>
  <rect x="24.5" y="99.5" width="21" height="1" rx="0.5" fill="#D6DAE1" stroke="#D6DAE1"/>
  <rect x="28.5" y="104.5" width="13" height="1" rx="0.5" fill="#D6DAE1" stroke="#D6DAE1"/>
  <circle cx="35" cy="64" r="11.5" fill="#D6DAE1" stroke="#D6DAE1"/>
  <rect x="70.5" y="42.5" width="59" height="81" rx="3.5" fill="white" stroke="#D6DAE1"/>
  <rect x="75.5" y="94.5" width="49" height="19" rx="3.5" fill="#F5F6F7" stroke="#D6DAE1"/>
  <rect x="88.5" y="84.5" width="23" height="2" rx="0.5" fill="#D6DAE1" stroke="#D6DAE1"/>
  <rect x="89.5" y="99.5" width="21" height="1" rx="0.5" fill="#D6DAE1" stroke="#D6DAE1"/>
  <rect x="93.5" y="104.5" width="13" height="1" rx="0.5" fill="#D6DAE1" stroke="#D6DAE1"/>
  <circle cx="100" cy="64" r="11.5" fill="#D6DAE1" stroke="#D6DAE1"/>
  <rect x="135.5" y="42.5" width="59" height="81" rx="3.5" fill="white" stroke="#D6DAE1"/>
  <rect x="140.5" y="94.5" width="49" height="19" rx="3.5" fill="#F5F6F7" stroke="#D6DAE1"/>
  <rect x="153.5" y="84.5" width="23" height="2" rx="0.5" fill="#D6DAE1" stroke="#D6DAE1"/>
  <rect x="154.5" y="99.5" width="21" height="1" rx="0.5" fill="#D6DAE1" stroke="#D6DAE1"/>
  <rect x="158.5" y="104.5" width="13" height="1" rx="0.5" fill="#D6DAE1" stroke="#D6DAE1"/>
  <circle cx="165" cy="64" r="11.5" fill="#D6DAE1" stroke="#D6DAE1"/>
  <rect x="5.5" y="15.5" width="19" height="7" rx="1.5" fill="#D6DAE1" stroke="#D6DAE1"/>
  <rect x="144.5" y="15.5" width="12" height="7" rx="1.5" fill="#D6DAE1" stroke="#D6DAE1"/>
  <rect x="146.5" y="15.5" width="12" height="7" rx="1.5" fill="#D6DAE1" stroke="#D6DAE1"/>
  <rect x="164.5" y="15.5" width="12" height="7" rx="1.5" fill="#D6DAE1" stroke="#D6DAE1"/>
  <rect x="182.5" y="15.5" width="12" height="7" rx="1.5" fill="#D6DAE1" stroke="#D6DAE1"/>
  <rect x="90.5" y="134.5" width="19" height="7" rx="1.5" fill="#D6DAE1" stroke="#D6DAE1"/>
</svg>