<svg xmlns="http://www.w3.org/2000/svg" width="200" height="160" viewBox="0 0 200 160" fill="none">
  <rect x="5" y="97" width="20" height="8" rx="2" fill="#D6DAE1"/>
  <rect x="146" y="97" width="13" height="8" rx="2" fill="#D6DAE1"/>
  <rect x="164" y="97" width="13" height="8" rx="2" fill="#D6DAE1"/>
  <rect x="182" y="97" width="13" height="8" rx="2" fill="#D6DAE1"/>
  <rect x="90" y="146" width="20" height="8" rx="2" fill="#D6DAE1"/>
  <rect x="5" y="134" width="190" height="8" rx="2" fill="#EAECF0"/>
  <rect x="5" y="122" width="190" height="8" rx="2" fill="#EAECF0"/>
  <rect x="5" y="110" width="190" height="8" rx="2" fill="#EAECF0"/>
  <rect x="5.5" y="17.5" width="59" height="63" rx="3.5" fill="white" stroke="#D6DAE1"/>
  <rect x="22" y="58" width="26" height="3" rx="1" fill="#D6DAE1"/>
  <rect x="26" y="66" width="18" height="3" rx="1" fill="#D6DAE1"/>
  <circle cx="35" cy="40" r="11" fill="#D6DAE1"/>
  <rect x="70.5" y="12.5" width="59" height="73" rx="3.5" fill="white" stroke="#D6DAE1"/>
  <rect x="87" y="58" width="26" height="3" rx="1" fill="#D6DAE1"/>
  <rect x="91" y="66" width="18" height="3" rx="1" fill="#D6DAE1"/>
  <circle cx="100" cy="40" r="11" fill="#D6DAE1"/>
  <rect x="135.5" y="17.5" width="59" height="63" rx="3.5" fill="white" stroke="#D6DAE1"/>
  <rect x="152" y="58" width="26" height="3" rx="1" fill="#D6DAE1"/>
  <rect x="156" y="66" width="18" height="3" rx="1" fill="#D6DAE1"/>
  <circle cx="165" cy="40" r="11" fill="#D6DAE1"/>
</svg>