<svg xmlns="http://www.w3.org/2000/svg" viewBox="0 0 121 91"  xmlns:v="https://vecta.io/nano"><path d="M15712.9 6878.8v-6c0-8.4-15-12-29.1-12s-29.1 3.9-29.1 12v6c0 5.4 2.1 10.8 6 14.7l15 14.7c.9.9 1.2 1.8 1.2 3v19.2c0 1.2.6 2.1 1.8 2.4l8.7 2.7c1.5.3 3-.6 3-2.4v-21.6c0-1.2.6-2.1 1.2-3l15.3-15c3.9-3.9 6-9.3 6-14.7zm-29.1-.3c-14.4 0-22.2-3.9-22.5-5.4h0c.3-1.5 8.1-5.4 22.5-5.4s21.9 3.9 22.5 5.4c-.6 1.5-8.1 5.4-22.5 5.4zm15 30.9c-1.8 0-3 1.2-3 3s1.2 3 3 3h12.9c1.8 0 3-1.2 3-3s-1.2-3-3-3h-12.9zm12.9 10.2h-12.9c-1.8 0-3 1.2-3 3s1.2 3 3 3h12.9c1.8 0 3-1.2 3-3s-1.2-3-3-3zm0 9.9h-12.9c-1.8 0-3 1.2-3 3s1.2 3 3 3h12.9c1.8 0 3-1.2 3-3 0-1.5-1.2-3-3-3z"/><path fill="#f7f8f9" stroke="#d2d2d2" stroke-miterlimit="10" d="M.5.5h120v90H.5z"/><path fill="#757575" d="M19.7 13.9v63.3h81.6V13.9H19.7zm46 5.1h12.6v7.9H65.7V19zM48 19h12.6v7.9H48V19zm48.1 52.9H24.9V19h17.9v13.1h53.3v39.8zm0-45.1H83.5v-7.9h12.6v7.9z"/></svg>