<!DOCTYPE svg PUBLIC "-//W3C//DTD SVG 20010904//EN" "http://www.w3.org/TR/2001/REC-SVG-20010904/DTD/svg10.dtd">
<svg version="1.0" xmlns="http://www.w3.org/2000/svg" width="142px" height="157px" viewBox="0 0 1420 1570" preserveAspectRatio="xMidYMid meet">
<g id="layer101" fill="#ffffff" stroke="none">
 <path d="M432 1520 c-107 -28 -187 -75 -268 -155 -115 -114 -164 -241 -164 -428 0 -258 96 -479 283 -653 171 -159 373 -234 632 -234 147 0 237 17 342 65 73 34 163 106 163 132 0 18 -124 169 -150 183 -36 19 -91 11 -141 -20 -81 -53 -152 -72 -259 -73 -203 0 -360 100 -449 288 -67 140 -84 326 -41 439 28 72 87 139 155 174 67 35 211 43 315 17 39 -9 73 -21 75 -26 3 -4 14 -53 23 -108 l18 -101 -81 0 c-115 0 -131 -17 -111 -118 3 -15 10 -53 16 -84 l11 -58 210 0 c115 0 209 1 209 3 0 2 -13 39 -29 83 -36 99 -55 225 -48 314 5 57 29 143 61 220 13 31 -165 110 -315 140 -133 27 -353 27 -457 0z"/>
 </g>

</svg>