<?xml version="1.0" encoding="UTF-8" standalone="no"?>
<!-- Created with Inkscape (http://www.inkscape.org/) -->

<svg
   xmlns:dc="http://purl.org/dc/elements/1.1/"
   xmlns:cc="http://creativecommons.org/ns#"
   xmlns:rdf="http://www.w3.org/1999/02/22-rdf-syntax-ns#"
   xmlns:svg="http://www.w3.org/2000/svg"
   xmlns="http://www.w3.org/2000/svg"
   xmlns:sodipodi="http://sodipodi.sourceforge.net/DTD/sodipodi-0.dtd"
   xmlns:inkscape="http://www.inkscape.org/namespaces/inkscape"
   version="1.1"
   id="svg3732"
   xml:space="preserve"
   width="475.18771"
   height="197.36852"
   viewBox="0 0 475.18771 197.36851"
   sodipodi:docname="navbar-logo.svg"
   inkscape:version="0.92.3 (unknown)"><metadata
     id="metadata3738"><rdf:RDF><cc:Work
         rdf:about=""><dc:format>image/svg+xml</dc:format><dc:type
           rdf:resource="http://purl.org/dc/dcmitype/StillImage" /><dc:title></dc:title></cc:Work></rdf:RDF></metadata><defs
     id="defs3736"><clipPath
       clipPathUnits="userSpaceOnUse"
       id="clipPath3748"><path
         d="M 0,595.276 H 841.89 V 0 H 0 Z"
         id="path3746"
         inkscape:connector-curvature="0" /></clipPath></defs><sodipodi:namedview
     pagecolor="#ffffff"
     bordercolor="#666666"
     borderopacity="1"
     objecttolerance="10"
     gridtolerance="10"
     guidetolerance="10"
     inkscape:pageopacity="0"
     inkscape:pageshadow="2"
     inkscape:window-width="1680"
     inkscape:window-height="950"
     id="namedview3734"
     showgrid="false"
     inkscape:zoom="0.96887828"
     inkscape:cx="237.59387"
     inkscape:cy="103.72611"
     inkscape:window-x="0"
     inkscape:window-y="27"
     inkscape:window-maximized="1"
     inkscape:current-layer="g3742"
     fit-margin-top="0"
     fit-margin-left="0"
     fit-margin-right="0"
     fit-margin-bottom="0" /><g
     id="g3740"
     inkscape:groupmode="layer"
     inkscape:label="genei-logo-vectorial"
     transform="matrix(1.3333333,0,0,-1.3333333,-323.66614,490.49305)"><g
       id="g3742"><g
         id="g3987"><path
           inkscape:connector-curvature="0"
           id="path3752"
           style="fill:#1f74bb;fill-opacity:1;fill-rule:nonzero;stroke:none"
           d="m 328.8936,278.4758 c -1.304,5.942 -1.292,12.831 0.035,20.474 0.909,5.238 2.593,10.286 4.999,15.035 h -30.9 l -2.466,-13.959 c -0.23,-1.302 0.031,-2.377 0.784,-3.227 0.752,-0.851 1.929,-1.276 3.534,-1.276 h 10.827 l -2.93,-16.585 c -2.583,-1.002 -5.281,-1.801 -8.094,-2.402 -2.812,-0.6 -5.974,-0.9 -9.482,-0.9 -4.612,0 -8.717,0.813 -12.314,2.439 -3.597,1.625 -6.538,3.988 -8.822,7.091 -2.284,3.102 -3.83,6.905 -4.638,11.408 -0.81,4.502 -0.701,9.655 0.324,15.46 0.929,5.253 2.496,10.018 4.707,14.296 2.208,4.278 4.923,7.943 8.145,10.996 3.22,3.05 6.883,5.415 10.989,7.091 4.105,1.676 8.539,2.515 13.302,2.515 2.556,0 4.839,-0.126 6.851,-0.375 2.01,-0.251 3.895,-0.651 5.651,-1.202 1.758,-0.55 3.449,-1.264 5.074,-2.138 1.624,-0.876 3.334,-1.914 5.127,-3.115 1.426,-1.001 2.893,-1.501 4.397,-1.501 1.152,0 2.27,0.3 3.354,0.901 1.084,0.6 2.068,1.425 2.956,2.476 l 9.343,11.183 c -1.835,2.101 -3.996,4.052 -6.484,5.853 -2.489,1.801 -5.311,3.352 -8.464,4.654 -3.153,1.3 -6.669,2.326 -10.546,3.076 -3.879,0.751 -8.097,1.126 -12.659,1.126 -8.822,0 -17.047,-1.377 -24.675,-4.127 -7.63,-2.753 -14.401,-6.605 -20.313,-11.559 -5.912,-4.952 -10.825,-10.843 -14.739,-17.673 -3.913,-6.83 -6.589,-14.323 -8.03,-22.477 -1.414,-8.006 -1.309,-15.423 0.317,-22.252 1.625,-6.829 4.492,-12.734 8.6,-17.711 4.108,-4.98 9.321,-8.882 15.639,-11.707 6.317,-2.828 13.486,-4.242 21.506,-4.242 4.46,0 8.674,0.225 12.638,0.676 3.964,0.45 7.747,1.151 11.349,2.102 3.601,0.95 7.048,2.164 10.342,3.639 3.045,1.365 6.035,2.987 8.974,4.844 -1.891,3.279 -3.308,6.985 -4.208,11.093" /><path
           inkscape:connector-curvature="0"
           id="path3756"
           style="fill:#1d3e78;fill-opacity:1;fill-rule:nonzero;stroke:none"
           d="m 387.8926,305.5788 h -28.596 c 1.613,4.752 3.87,8.392 6.773,10.92 2.902,2.525 6.544,3.79 10.928,3.79 2.463,0 4.482,-0.426 6.06,-1.276 1.576,-0.851 2.773,-1.965 3.594,-3.34 0.821,-1.377 1.312,-2.94 1.477,-4.69 0.164,-1.753 0.085,-3.554 -0.236,-5.404 m 19.758,10.169 c -0.931,4.428 -2.647,8.167 -5.146,11.22 -2.5,3.051 -5.717,5.378 -9.65,6.98 -3.934,1.6 -8.438,2.402 -13.511,2.402 -5.863,0 -11.299,-1.027 -16.31,-3.078 -5.012,-2.052 -9.46,-4.829 -13.343,-8.33 -3.884,-3.504 -7.105,-7.58 -9.66,-12.233 -2.557,-4.653 -4.287,-9.583 -5.19,-14.785 -1.199,-6.904 -1.228,-12.959 -0.086,-18.162 1.139,-5.204 3.167,-9.557 6.082,-13.058 2.913,-3.502 6.569,-6.142 10.965,-7.917 4.396,-1.776 9.279,-2.665 14.648,-2.665 2.61,0 5.39,0.188 8.337,0.563 2.947,0.375 5.946,1.051 8.996,2.026 3.051,0.976 6.094,2.326 9.128,4.053 3.033,1.726 5.971,3.965 8.813,6.717 l -5.204,8.33 c -0.701,1.351 -1.964,2.026 -3.786,2.026 -1.379,0 -2.753,-0.326 -4.123,-0.975 -1.369,-0.652 -2.874,-1.377 -4.515,-2.176 -1.642,-0.802 -3.479,-1.527 -5.513,-2.177 -2.035,-0.651 -4.381,-0.975 -7.041,-0.975 -4.976,0 -8.786,1.462 -11.43,4.39 -2.645,2.927 -3.771,7.641 -3.382,14.147 h 44.187 c 1.034,0 1.905,0.124 2.614,0.375 0.708,0.249 1.316,0.699 1.823,1.35 0.507,0.65 0.93,1.526 1.269,2.627 0.339,1.1 0.66,2.526 0.964,4.278 0.973,5.603 0.994,10.619 0.064,15.047" /><path
           inkscape:connector-curvature="0"
           id="path3760"
           style="fill:#1d3e78;fill-opacity:1;fill-rule:nonzero;stroke:none"
           d="m 406.8188,257.3225 13.511,77.826 h 14.186 c 1.428,0 2.566,-0.326 3.415,-0.976 0.846,-0.651 1.354,-1.627 1.522,-2.927 l 0.549,-4.503 c 1.722,1.4 3.474,2.702 5.259,3.903 1.784,1.2 3.646,2.214 5.589,3.039 1.941,0.826 3.999,1.475 6.177,1.951 2.174,0.475 4.495,0.714 6.959,0.714 4.185,0 7.764,-0.739 10.735,-2.214 2.97,-1.477 5.336,-3.528 7.097,-6.154 1.76,-2.627 2.891,-5.755 3.395,-9.382 0.503,-3.628 0.386,-7.568 -0.352,-11.82 l -8.586,-49.457 h -22.906 l 8.586,49.457 c 0.66,3.802 0.312,6.766 -1.043,8.894 -1.355,2.125 -3.707,3.189 -7.056,3.189 -2.513,0 -4.973,-0.551 -7.38,-1.651 -2.408,-1.101 -4.783,-2.577 -7.124,-4.428 l -9.628,-55.461 z" /><path
           inkscape:connector-curvature="0"
           id="path3764"
           style="fill:#1d3e78;fill-opacity:1;fill-rule:nonzero;stroke:none"
           d="m 529.3213,320.2888 c -4.385,0 -8.027,-1.265 -10.929,-3.79 -2.902,-2.528 -5.16,-6.168 -6.772,-10.92 h 28.596 c 0.321,1.85 0.399,3.651 0.235,5.404 -0.165,1.75 -0.656,3.313 -1.477,4.69 -0.82,1.375 -2.017,2.489 -3.594,3.34 -1.578,0.85 -3.596,1.276 -6.059,1.276 m 2.345,16.061 c 5.073,0 9.577,-0.802 13.511,-2.402 3.933,-1.602 7.15,-3.929 9.65,-6.98 2.499,-3.053 4.216,-6.792 5.145,-11.22 0.931,-4.428 0.911,-9.444 -0.062,-15.047 -0.305,-1.752 -0.625,-3.178 -0.965,-4.278 -0.339,-1.101 -0.762,-1.977 -1.269,-2.627 -0.507,-0.651 -1.115,-1.101 -1.823,-1.35 -0.709,-0.251 -1.58,-0.375 -2.614,-0.375 h -44.187 c -0.389,-6.506 0.738,-11.22 3.382,-14.147 2.644,-2.927 6.454,-4.39 11.43,-4.39 2.66,0 5.007,0.324 7.041,0.975 2.034,0.65 3.871,1.375 5.513,2.177 1.64,0.799 3.146,1.524 4.515,2.176 1.369,0.649 2.744,0.975 4.123,0.975 1.823,0 3.084,-0.674 3.786,-2.026 l 5.204,-8.33 c -2.842,-2.752 -5.78,-4.991 -8.814,-6.717 -3.033,-1.726 -6.076,-3.077 -9.127,-4.053 -3.051,-0.975 -6.05,-1.651 -8.996,-2.026 -2.947,-0.375 -5.726,-0.563 -8.337,-0.563 -5.369,0 -10.252,0.889 -14.648,2.665 -4.396,1.775 -8.052,4.415 -10.965,7.917 -2.915,3.502 -4.942,7.854 -6.082,13.058 -1.142,5.203 -1.113,11.258 0.086,18.162 0.903,5.202 2.633,10.132 5.19,14.785 2.555,4.653 5.776,8.729 9.66,12.233 3.883,3.501 8.331,6.278 13.343,8.33 5.011,2.051 10.447,3.078 16.31,3.078" /><path
           inkscape:connector-curvature="0"
           id="path3768"
           style="fill:#1d3e78;fill-opacity:1;fill-rule:nonzero;stroke:none"
           d="m 595.2969,335.1482 -13.511,-77.826 h -22.906 l 13.511,77.826 z" /><path
           inkscape:connector-curvature="0"
           id="path3772"
           style="fill:#1f74bb;fill-opacity:1;fill-rule:nonzero;stroke:none"
           d="m 576.2344,359.3767 -3.501,-20.167 h 22.906 l 3.501,20.167 z" /><path
           inkscape:connector-curvature="0"
           id="path3776"
           style="fill:#1d3e78;fill-opacity:1;fill-rule:nonzero;stroke:none;stroke-width:1.38759458"
           d="m 353.27646,243.02607 c -0.0874,-0.1457 -0.18178,-0.25809 -0.2803,-0.33025 -0.0971,-0.0749 -0.22479,-0.111 -0.38297,-0.111 -0.16652,0 -0.36078,0.0832 -0.58141,0.24976 -0.22062,0.16652 -0.50092,0.35107 -0.83949,0.55365 -0.33857,0.19982 -0.74653,0.38437 -1.22247,0.55088 -0.47595,0.16651 -1.05319,0.25115 -1.73033,0.25115 -0.6383,0 -1.20305,-0.086 -1.69426,-0.25809 -0.4912,-0.17206 -0.90054,-0.40518 -1.2294,-0.69935 -0.33025,-0.29417 -0.57724,-0.63968 -0.74376,-1.0393 -0.16789,-0.39686 -0.25115,-0.82562 -0.25115,-1.28769 0,-0.58973 0.14431,-1.07816 0.43432,-1.4653 0.29,-0.38853 0.67298,-0.72016 1.15031,-0.99491 0.47595,-0.27474 1.01572,-0.51341 1.61933,-0.71322 0.6036,-0.20259 1.22247,-0.41073 1.85521,-0.62719 0.63413,-0.21647 1.253,-0.4593 1.8566,-0.72849 0.60361,-0.27058 1.14338,-0.61054 1.62071,-1.02405 0.47595,-0.41211 0.85892,-0.9172 1.14754,-1.51664 0.29001,-0.59944 0.43571,-1.33625 0.43571,-2.21044 0,-0.92275 -0.1568,-1.7886 -0.47178,-2.59896 -0.31499,-0.81036 -0.77289,-1.51525 -1.37789,-2.11331 -0.6036,-0.59944 -1.34458,-1.07122 -2.22292,-1.41396 -0.87835,-0.34412 -1.87881,-0.51618 -2.99721,-0.51618 -1.36539,0 -2.61006,0.24838 -3.73401,0.74375 -1.12534,0.49676 -2.08417,1.16558 -2.87926,2.01062 l 0.82423,1.35568 c 0.0777,0.10685 0.17345,0.19843 0.28723,0.27197 0.1124,0.0736 0.23728,0.10962 0.37604,0.10962 0.20536,0 0.44125,-0.10962 0.70628,-0.33024 0.26503,-0.22063 0.59667,-0.46485 0.99352,-0.72849 0.39824,-0.26642 0.87974,-0.50925 1.44449,-0.72988 0.56475,-0.22062 1.25438,-0.33163 2.0689,-0.33163 0.67715,0 1.28214,0.093 1.8122,0.28029 0.53006,0.18594 0.97964,0.4482 1.34735,0.78816 0.3691,0.33857 0.65079,0.74375 0.84644,1.21553 0.19704,0.47039 0.29555,0.9949 0.29555,1.57492 0,0.63829 -0.14569,1.16142 -0.43431,1.56937 -0.29001,0.40656 -0.67021,0.74791 -1.14199,1.02266 -0.47178,0.27613 -1.00878,0.50924 -1.61239,0.69934 -0.60499,0.19288 -1.22247,0.38853 -1.8566,0.58973 -0.63274,0.20259 -1.25161,0.43571 -1.85521,0.69935 -0.60361,0.26503 -1.14199,0.61054 -1.61378,1.03098 -0.47039,0.42322 -0.85198,0.9505 -1.1406,1.58463 -0.29001,0.63275 -0.43432,1.41535 -0.43432,2.34782 0,0.74652 0.14431,1.46946 0.43432,2.16603 0.28862,0.69796 0.70906,1.31544 1.25855,1.8566 0.54949,0.53839 1.2308,0.97132 2.04115,1.29463 0.80897,0.32608 1.74005,0.48704 2.79045,0.48704 1.17807,0 2.25346,-0.18732 3.22616,-0.5592 0.97132,-0.37326 1.82053,-0.91442 2.54763,-1.62071 z" /><path
           inkscape:connector-curvature="0"
           id="path3780"
           style="fill:#1d3e78;fill-opacity:1;fill-rule:nonzero;stroke:none;stroke-width:1.38759458"
           d="m 358.04895,225.21907 v 21.69643 h 2.62255 v -8.77792 c 0.63691,0.67714 1.34458,1.2183 2.12025,1.62626 0.77566,0.40656 1.67066,0.61193 2.68083,0.61193 0.81591,0 1.53468,-0.13599 2.15771,-0.40518 0.62303,-0.26919 1.14338,-0.65356 1.56104,-1.14893 0.41767,-0.49676 0.73404,-1.09204 0.95051,-1.79 0.21507,-0.69657 0.32331,-1.46807 0.32331,-2.31173 v -9.50086 h -2.62117 v 9.50086 c 0,1.12812 -0.25671,2.00508 -0.77289,2.62811 -0.51757,0.62303 -1.30295,0.93523 -2.36585,0.93523 -0.77428,0 -1.4986,-0.18593 -2.1702,-0.5592 -0.67298,-0.37326 -1.29462,-0.87834 -1.86354,-1.51664 v -10.98836 z" /><path
           d="m 377.72795,225.21838 h -2.62255 v 14.9208 h 2.62255 z m 0.58973,19.60393 c 0,-0.25393 -0.0513,-0.49259 -0.15402,-0.71322 -0.10407,-0.22063 -0.24144,-0.41767 -0.4135,-0.58834 -0.17068,-0.17206 -0.37049,-0.30805 -0.59667,-0.40518 -0.22618,-0.0985 -0.46623,-0.14708 -0.72155,-0.14708 -0.25532,0 -0.49398,0.0486 -0.71461,0.14708 -0.22063,0.0971 -0.41767,0.23312 -0.58834,0.40518 -0.17206,0.17067 -0.30805,0.36771 -0.40518,0.58834 -0.0985,0.22063 -0.14708,0.45929 -0.14708,0.71322 0,0.25671 0.0486,0.49954 0.14708,0.73127 0.0971,0.23034 0.23312,0.43015 0.40518,0.60221 0.17067,0.17206 0.36771,0.30805 0.58834,0.40518 0.22063,0.0985 0.45929,0.14847 0.71461,0.14847 0.25532,0 0.49537,-0.0499 0.72155,-0.14847 0.22618,-0.0971 0.42599,-0.23312 0.59667,-0.40518 0.17206,-0.17206 0.30943,-0.37187 0.4135,-0.60221 0.10268,-0.23173 0.15402,-0.47456 0.15402,-0.73127"
           style="fill:#1d3e78;fill-opacity:1;fill-rule:nonzero;stroke:none;stroke-width:1.38759458"
           id="path3782"
           inkscape:connector-curvature="0" /><path
           inkscape:connector-curvature="0"
           id="path3786"
           style="fill:#1d3e78;fill-opacity:1;fill-rule:nonzero;stroke:none;stroke-width:1.38759458"
           d="m 389.37903,238.28327 c -0.85337,0 -1.60267,-0.19703 -2.24513,-0.58834 -0.64384,-0.39269 -1.23634,-0.94772 -1.77473,-1.66511 v -7.21688 c 0.48011,-0.64801 1.00739,-1.10452 1.58186,-1.36956 0.57446,-0.26503 1.21553,-0.39824 1.9232,-0.39824 1.38344,0 2.4505,0.49676 3.19563,1.48889 0.74653,0.99075 1.11979,2.40471 1.11979,4.24049 0,0.97271 -0.086,1.80665 -0.25809,2.50461 -0.17206,0.69657 -0.41905,1.26826 -0.74375,1.71507 -0.3247,0.44819 -0.72155,0.77428 -1.19333,0.97964 -0.47178,0.20675 -1.00601,0.30943 -1.60545,0.30943 m -6.64241,-18.11643 v 19.97304 h 1.56104 c 0.37188,0 0.60777,-0.18178 0.70767,-0.54533 l 0.22063,-1.76779 c 0.63829,0.77566 1.36678,1.40008 2.18685,1.87186 0.82007,0.47039 1.76502,0.70629 2.83486,0.70629 0.85475,0 1.63042,-0.16513 2.32838,-0.49399 0.69657,-0.32747 1.29046,-0.81452 1.78167,-1.45836 0.48982,-0.64246 0.86864,-1.44032 1.13367,-2.3936 0.26641,-0.95189 0.39824,-2.0467 0.39824,-3.28444 0,-1.10036 -0.14709,-2.12302 -0.44265,-3.07074 -0.29417,-0.94773 -0.71738,-1.7678 -1.26548,-2.45882 -0.55088,-0.69241 -1.22525,-1.23774 -2.02589,-1.63598 -0.80064,-0.39685 -1.70119,-0.59527 -2.70165,-0.59527 -0.92414,0 -1.71229,0.15124 -2.36446,0.45652 -0.65356,0.30249 -1.2308,0.73542 -1.73033,1.29462 v -6.59801 z" /><path
           inkscape:connector-curvature="0"
           id="path3790"
           style="fill:#1d3e78;fill-opacity:1;fill-rule:nonzero;stroke:none;stroke-width:1.38759458"
           d="m 406.02198,238.28327 c -0.85337,0 -1.60267,-0.19703 -2.24513,-0.58834 -0.64384,-0.39269 -1.23634,-0.94772 -1.77473,-1.66511 v -7.21688 c 0.48011,-0.64801 1.00739,-1.10452 1.58186,-1.36956 0.57446,-0.26503 1.21553,-0.39824 1.9232,-0.39824 1.38343,0 2.45049,0.49676 3.19563,1.48889 0.74653,0.99075 1.11979,2.40471 1.11979,4.24049 0,0.97271 -0.086,1.80665 -0.25809,2.50461 -0.17206,0.69657 -0.41905,1.26826 -0.74375,1.71507 -0.3247,0.44819 -0.72155,0.77428 -1.19333,0.97964 -0.47178,0.20675 -1.00601,0.30943 -1.60545,0.30943 m -6.64242,-18.11643 v 19.97304 h 1.56105 c 0.37187,0 0.60777,-0.18178 0.70767,-0.54533 l 0.22063,-1.76779 c 0.63829,0.77566 1.36678,1.40008 2.18685,1.87186 0.82007,0.47039 1.76502,0.70629 2.83485,0.70629 0.85476,0 1.63043,-0.16513 2.32839,-0.49399 0.69657,-0.32747 1.29046,-0.81452 1.78167,-1.45836 0.48982,-0.64246 0.86863,-1.44032 1.13366,-2.3936 0.26642,-0.95189 0.39824,-2.0467 0.39824,-3.28444 0,-1.10036 -0.14708,-2.12302 -0.44264,-3.07074 -0.29417,-0.94773 -0.71738,-1.7678 -1.26548,-2.45882 -0.55088,-0.69241 -1.22525,-1.23774 -2.02589,-1.63598 -0.80064,-0.39685 -1.70119,-0.59527 -2.70165,-0.59527 -0.92414,0 -1.71229,0.15124 -2.36446,0.45652 -0.65356,0.30249 -1.2308,0.73542 -1.73033,1.29462 v -6.59801 z" /><path
           d="m 418.93951,225.21838 h -2.62255 v 14.9208 h 2.62255 z m 0.58973,19.60393 c 0,-0.25393 -0.0513,-0.49259 -0.15402,-0.71322 -0.10268,-0.22063 -0.24144,-0.41767 -0.4135,-0.58834 -0.17068,-0.17206 -0.37049,-0.30805 -0.59667,-0.40518 -0.22618,-0.0985 -0.46623,-0.14708 -0.72016,-0.14708 -0.25671,0 -0.49537,0.0486 -0.716,0.14708 -0.22063,0.0971 -0.41767,0.23312 -0.58834,0.40518 -0.17206,0.17067 -0.30666,0.36771 -0.40518,0.58834 -0.0985,0.22063 -0.14708,0.45929 -0.14708,0.71322 0,0.25671 0.0486,0.49954 0.14708,0.73127 0.0985,0.23034 0.23312,0.43015 0.40518,0.60221 0.17067,0.17206 0.36771,0.30805 0.58834,0.40518 0.22063,0.0985 0.45929,0.14847 0.716,0.14847 0.25393,0 0.49398,-0.0499 0.72016,-0.14847 0.22618,-0.0971 0.42599,-0.23312 0.59667,-0.40518 0.17206,-0.17206 0.31082,-0.37187 0.4135,-0.60221 0.10268,-0.23173 0.15402,-0.47456 0.15402,-0.73127"
           style="fill:#1d3e78;fill-opacity:1;fill-rule:nonzero;stroke:none;stroke-width:1.38759458"
           id="path3792"
           inkscape:connector-curvature="0" /><path
           inkscape:connector-curvature="0"
           id="path3796"
           style="fill:#1d3e78;fill-opacity:1;fill-rule:nonzero;stroke:none;stroke-width:1.38759458"
           d="m 423.94693,225.21907 v 14.92081 h 1.56104 c 0.37326,0 0.60777,-0.18178 0.70767,-0.54533 l 0.20537,-1.62071 c 0.64801,0.71739 1.37233,1.2974 2.17297,1.73866 0.80064,0.44264 1.72617,0.66327 2.77658,0.66327 0.81452,0 1.53329,-0.13599 2.15771,-0.40518 0.62303,-0.26919 1.14338,-0.65356 1.56104,-1.14893 0.41767,-0.49676 0.73404,-1.09204 0.9505,-1.79 0.21508,-0.69657 0.32331,-1.46807 0.32331,-2.31173 v -9.50086 h -2.62116 v 9.50086 c 0,1.12812 -0.25809,2.00508 -0.77289,2.62811 -0.51619,0.62303 -1.30434,0.93523 -2.36446,0.93523 -0.77567,0 -1.49999,-0.18593 -2.17298,-0.5592 -0.67298,-0.37326 -1.29323,-0.87834 -1.86215,-1.51664 v -10.98836 z" /><path
           inkscape:connector-curvature="0"
           id="path3800"
           style="fill:#1d3e78;fill-opacity:1;fill-rule:nonzero;stroke:none;stroke-width:1.38759458"
           d="m 445.73244,232.50935 c 0.53006,0 0.99907,0.0749 1.40702,0.22202 0.40657,0.14708 0.74792,0.35245 1.02266,0.61748 0.27474,0.26642 0.48149,0.5814 0.61887,0.9505 0.13737,0.3691 0.20675,0.77428 0.20675,1.21553 0,0.91304 -0.27752,1.64014 -0.83256,2.17991 -0.55504,0.53978 -1.36262,0.80897 -2.42274,0.80897 -1.0518,0 -1.85383,-0.26919 -2.40886,-0.80897 -0.55504,-0.53977 -0.83256,-1.26687 -0.83256,-2.17991 0,-0.44125 0.0722,-0.84643 0.21369,-1.21553 0.14292,-0.3691 0.35106,-0.68408 0.62719,-0.9505 0.27475,-0.26503 0.61332,-0.4704 1.01572,-0.61748 0.4024,-0.14709 0.86309,-0.22202 1.38482,-0.22202 m 4.65399,-8.04805 c 0,0.38159 -0.10407,0.68686 -0.30943,0.91582 -0.20675,0.23034 -0.48705,0.40934 -0.84088,0.53422 -0.35245,0.12488 -0.75902,0.21785 -1.22109,0.27752 -0.46207,0.0597 -0.94772,0.0916 -1.45836,0.0916 h -1.56104 c -0.53006,0 -1.03654,0.0666 -1.51803,0.19704 -0.5592,-0.26503 -1.01294,-0.58834 -1.36123,-0.9727 -0.34829,-0.38298 -0.52312,-0.84089 -0.52312,-1.37233 0,-0.33303 0.0846,-0.64662 0.2567,-0.93663 0.17206,-0.29001 0.43571,-0.54116 0.78954,-0.75208 0.35245,-0.21091 0.79787,-0.37742 1.33209,-0.50092 0.53423,-0.1235 1.16558,-0.18455 1.89268,-0.18455 0.70629,0 1.34042,0.0652 1.90101,0.19565 0.5592,0.12905 1.03237,0.31499 1.41951,0.55504 0.38991,0.24005 0.68547,0.5259 0.89222,0.85615 0.20536,0.33024 0.30943,0.69657 0.30943,1.09619 m -4.65399,15.92959 c 0.64801,0 1.253,-0.0722 1.81914,-0.21508 0.56475,-0.14153 1.07677,-0.35106 1.53884,-0.6258 h 4.05039 v -0.97132 c 0,-0.32331 -0.20675,-0.53145 -0.61887,-0.61886 l -1.69425,-0.2359 c 0.33441,-0.63829 0.50092,-1.35013 0.50092,-2.1355 0,-0.7271 -0.13876,-1.38621 -0.42044,-1.98149 -0.27891,-0.59389 -0.66743,-1.10175 -1.16281,-1.52497 -0.49675,-0.42044 -1.08509,-0.74652 -1.76779,-0.97131 -0.6827,-0.22618 -1.43061,-0.33857 -2.24513,-0.33857 -0.69796,0 -1.35568,0.0833 -1.97455,0.25115 -0.31359,-0.20398 -0.55226,-0.42183 -0.71322,-0.65633 -0.16374,-0.23312 -0.24422,-0.46207 -0.24422,-0.68409 0,-0.36632 0.14154,-0.64245 0.42738,-0.83117 0.28446,-0.18732 0.66327,-0.32192 1.13505,-0.40379 0.4704,-0.0805 1.00462,-0.1221 1.60406,-0.1221 h 1.8344 c 0.62303,0 1.23496,-0.0541 1.8344,-0.16374 0.59806,-0.10823 1.13367,-0.28723 1.60545,-0.537 0.47178,-0.24699 0.84782,-0.58973 1.13367,-1.02821 0.28445,-0.43709 0.42738,-1.00323 0.42738,-1.69841 0,-0.64662 -0.16097,-1.27243 -0.47872,-1.88019 -0.31915,-0.60499 -0.77983,-1.14477 -1.37789,-1.61794 -0.59944,-0.47178 -1.3307,-0.84921 -2.19378,-1.13228 -0.86447,-0.28307 -1.84134,-0.4246 -2.93199,-0.4246 -1.09065,0 -2.04393,0.10684 -2.864,0.32331 -0.82145,0.21785 -1.49999,0.50786 -2.04115,0.87002 -0.53838,0.36355 -0.94356,0.78538 -1.21553,1.26132 -0.26919,0.47595 -0.40518,0.97548 -0.40518,1.49722 0,0.73681 0.23451,1.36262 0.70074,1.8788 0.46623,0.51619 1.1073,0.92692 1.92182,1.23219 -0.42183,0.19565 -0.75902,0.4579 -1.00879,0.78538 -0.24976,0.32886 -0.37465,0.76734 -0.37465,1.31821 0,0.21508 0.0375,0.43709 0.11656,0.66743 0.0791,0.23034 0.19843,0.45791 0.36216,0.68409 0.16096,0.22479 0.35939,0.44125 0.59528,0.64662 0.23589,0.20536 0.51202,0.38714 0.82562,0.54532 -0.73681,0.41073 -1.31405,0.95883 -1.73033,1.64153 -0.41905,0.6813 -0.6258,1.48056 -0.6258,2.3936 0,0.72571 0.13875,1.38759 0.41905,1.98009 0.28029,0.59528 0.67021,1.10037 1.16974,1.51803 0.50231,0.41767 1.09759,0.7382 1.79,0.96577 0.69241,0.22479 1.45142,0.33857 2.27704,0.33857" /><path
           inkscape:connector-curvature="0"
           id="path3804"
           style="fill:#1f74bb;fill-opacity:1;fill-rule:nonzero;stroke:none;stroke-width:1.38759458"
           d="m 473.43688,243.02607 c -0.0888,-0.1457 -0.18316,-0.25809 -0.2803,-0.33025 -0.0971,-0.0749 -0.22617,-0.111 -0.38436,-0.111 -0.16651,0 -0.35939,0.0832 -0.58001,0.24976 -0.22202,0.16652 -0.50093,0.35107 -0.8395,0.55365 -0.33857,0.19982 -0.74653,0.38437 -1.22386,0.55088 -0.47594,0.16651 -1.05318,0.25115 -1.73033,0.25115 -0.63829,0 -1.20304,-0.086 -1.69425,-0.25809 -0.48982,-0.17206 -0.90055,-0.40518 -1.22802,-0.69935 -0.33025,-0.29417 -0.57724,-0.63968 -0.74375,-1.0393 -0.16929,-0.39686 -0.25116,-0.82562 -0.25116,-1.28769 0,-0.58973 0.14431,-1.07816 0.43432,-1.4653 0.28862,-0.38853 0.67298,-0.72016 1.14893,-0.99491 0.47594,-0.27474 1.01572,-0.51341 1.61932,-0.71322 0.60499,-0.20259 1.22247,-0.41073 1.8566,-0.62719 0.63275,-0.21647 1.253,-0.4593 1.85522,-0.72849 0.60499,-0.27058 1.14476,-0.61054 1.62071,-1.02405 0.47594,-0.41211 0.85892,-0.9172 1.14892,-1.51664 0.28862,-0.59944 0.43432,-1.33625 0.43432,-2.21044 0,-0.92275 -0.1568,-1.7886 -0.47178,-2.59896 -0.31498,-0.81036 -0.77289,-1.51525 -1.37649,-2.11331 -0.60361,-0.59944 -1.34597,-1.07122 -2.22432,-1.41396 -0.87835,-0.34412 -1.87741,-0.51618 -2.9972,-0.51618 -1.36401,0 -2.61007,0.24838 -3.73402,0.74375 -1.12395,0.49676 -2.08417,1.16558 -2.87926,2.01062 l 0.82423,1.35568 c 0.0791,0.10685 0.17484,0.19843 0.28723,0.27197 0.1124,0.0736 0.23867,0.10962 0.37604,0.10962 0.20537,0 0.44126,-0.10962 0.70768,-0.33024 0.26503,-0.22063 0.59527,-0.46485 0.99351,-0.72849 0.39824,-0.26642 0.87835,-0.50925 1.4431,-0.72988 0.56614,-0.22062 1.25578,-0.33163 2.07029,-0.33163 0.67715,0 1.28075,0.093 1.81081,0.28029 0.53007,0.18594 0.97965,0.4482 1.34875,0.78816 0.36771,0.33857 0.65078,0.74375 0.84643,1.21553 0.19704,0.47039 0.29417,0.9949 0.29417,1.57492 0,0.63829 -0.14431,1.16142 -0.43432,1.56937 -0.28862,0.40656 -0.67021,0.74791 -1.1406,1.02266 -0.47178,0.27613 -1.01017,0.50924 -1.61377,0.69934 -0.60361,0.19288 -1.22109,0.38853 -1.85522,0.58973 -0.63413,0.20259 -1.253,0.43571 -1.85521,0.69935 -0.60499,0.26503 -1.14338,0.61054 -1.61377,1.03098 -0.4704,0.42322 -0.85199,0.9505 -1.14199,1.58463 -0.29001,0.63275 -0.43432,1.41535 -0.43432,2.34782 0,0.74652 0.14431,1.46946 0.43432,2.16603 0.29,0.69796 0.70906,1.31544 1.25854,1.8566 0.55088,0.53839 1.2308,0.97132 2.04116,1.29463 0.81035,0.32608 1.74004,0.48704 2.79184,0.48704 1.17806,0 2.25345,-0.18732 3.22477,-0.5592 0.97131,-0.37326 1.82191,-0.91442 2.54762,-1.62071 z" /><path
           inkscape:connector-curvature="0"
           id="path3808"
           style="fill:#1f74bb;fill-opacity:1;fill-rule:nonzero;stroke:none;stroke-width:1.38759458"
           d="m 484.24901,227.06055 c 1.47224,0 2.57261,0.49259 3.29832,1.47917 0.72571,0.98658 1.09065,2.36585 1.09065,4.13226 0,1.77751 -0.36494,3.16094 -1.09065,4.15307 -0.72571,0.99213 -1.82608,1.4875 -3.29832,1.4875 -0.74652,0 -1.39592,-0.12627 -1.94402,-0.38297 -0.55087,-0.25532 -1.01016,-0.62303 -1.37926,-1.10453 -0.36633,-0.48149 -0.64107,-1.07261 -0.82285,-1.77473 -0.18177,-0.70213 -0.27335,-1.49444 -0.27335,-2.37834 0,-0.8839 0.0916,-1.67483 0.27335,-2.3714 0.18178,-0.69796 0.45652,-1.28491 0.82285,-1.76086 0.3691,-0.47455 0.82839,-0.84088 1.37926,-1.09758 0.5481,-0.25393 1.1975,-0.38159 1.94402,-0.38159 m 0,13.31536 c 1.08927,0 2.07307,-0.18178 2.95281,-0.54533 0.87834,-0.36494 1.62487,-0.87973 2.23819,-1.54717 0.6147,-0.66882 1.0851,-1.47501 1.41534,-2.42274 0.32748,-0.94772 0.4926,-2.00646 0.4926,-3.17343 0,-1.17945 -0.16512,-2.23957 -0.4926,-3.18175 -0.33024,-0.94357 -0.80064,-1.74837 -1.41534,-2.4158 -0.61332,-0.66744 -1.35985,-1.18085 -2.23819,-1.53885 -0.87974,-0.35938 -1.86354,-0.53838 -2.95281,-0.53838 -1.09064,0 -2.07445,0.179 -2.95418,0.53838 -0.87835,0.358 -1.62765,0.87141 -2.24513,1.53885 -0.61887,0.66743 -1.0962,1.47223 -1.42922,2.4158 -0.33441,0.94218 -0.50093,2.0023 -0.50093,3.18175 0,1.16697 0.16652,2.22571 0.50093,3.17343 0.33302,0.94773 0.81035,1.75392 1.42922,2.42274 0.61748,0.66744 1.36678,1.18223 2.24513,1.54717 0.87973,0.36355 1.86354,0.54533 2.95418,0.54533" /><path
           d="m 497.88671,225.21838 h -2.62255 v 21.69643 h 2.62255 z"
           style="fill:#1f74bb;fill-opacity:1;fill-rule:nonzero;stroke:none;stroke-width:1.38759458"
           id="path3810"
           inkscape:connector-curvature="0" /><path
           inkscape:connector-curvature="0"
           id="path3814"
           style="fill:#1f74bb;fill-opacity:1;fill-rule:nonzero;stroke:none;stroke-width:1.38759458"
           d="M 505.16312,240.13974 V 230.625 c 0,-1.1295 0.25948,-2.00369 0.77983,-2.62255 0.52034,-0.61748 1.30711,-0.92692 2.35752,-0.92692 0.76595,0 1.4875,0.18178 2.16465,0.54533 0.67853,0.36216 1.30156,0.86863 1.87048,1.51525 v 11.00363 h 2.62255 v -14.92081 h -1.56104 c -0.37327,0 -0.60916,0.18178 -0.70768,0.54533 l -0.20675,1.60544 c -0.64662,-0.71738 -1.37511,-1.29462 -2.17991,-1.73033 -0.80481,-0.43848 -1.72756,-0.65633 -2.76825,-0.65633 -0.81591,0 -1.53329,0.13598 -2.1591,0.40518 -0.62303,0.26919 -1.14615,0.65078 -1.56798,1.1406 -0.42183,0.4926 -0.7382,1.08649 -0.94912,1.78445 -0.21091,0.69657 -0.31776,1.46669 -0.31776,2.31173 v 9.51474 z" /><path
           inkscape:connector-curvature="0"
           id="path3818"
           style="fill:#1f74bb;fill-opacity:1;fill-rule:nonzero;stroke:none;stroke-width:1.38759458"
           d="m 524.17885,224.98332 c -1.17945,0 -2.08416,0.32886 -2.71829,0.98658 -0.63275,0.65911 -0.95051,1.60544 -0.95051,2.84318 v 9.13176 h -1.79554 c -0.15819,0 -0.29001,0.0472 -0.39824,0.14015 -0.10824,0.093 -0.16235,0.23728 -0.16235,0.43431 v 1.04625 l 2.44633,0.30805 0.60221,4.61097 c 0.0208,0.14709 0.0847,0.26781 0.19288,0.36078 0.10684,0.0943 0.2456,0.14014 0.41211,0.14014 h 1.32516 v -5.13965 h 4.27101 v -1.901 h -4.27101 v -8.95415 c 0,-0.62858 0.15125,-1.09481 0.45652,-1.40008 0.30527,-0.30527 0.69796,-0.45652 1.17945,-0.45652 0.27475,0 0.51202,0.0361 0.71323,0.11101 0.2012,0.0735 0.37603,0.15402 0.52312,0.24283 0.14708,0.0874 0.27335,0.16928 0.37604,0.24144 0.10268,0.0749 0.19426,0.11239 0.27197,0.11239 0.13737,0 0.26086,-0.0846 0.3691,-0.25115 l 0.76595,-1.25161 c -0.45236,-0.42322 -0.99768,-0.75347 -1.63598,-0.99491 -0.63829,-0.24005 -1.29601,-0.36077 -1.97316,-0.36077" /><path
           d="m 533.94336,225.21838 h -2.62256 v 14.9208 h 2.62256 z m 0.58973,19.60393 c 0,-0.25393 -0.0514,-0.49259 -0.15403,-0.71322 -0.10407,-0.22063 -0.24144,-0.41767 -0.4135,-0.58834 -0.17068,-0.17206 -0.37049,-0.30805 -0.59667,-0.40518 -0.22617,-0.0985 -0.46623,-0.14708 -0.72016,-0.14708 -0.2567,0 -0.49537,0.0486 -0.716,0.14708 -0.22062,0.0971 -0.41766,0.23312 -0.58834,0.40518 -0.17206,0.17067 -0.30804,0.36771 -0.40517,0.58834 -0.0985,0.22063 -0.14709,0.45929 -0.14709,0.71322 0,0.25671 0.0486,0.49954 0.14709,0.73127 0.0971,0.23034 0.23311,0.43015 0.40517,0.60221 0.17068,0.17206 0.36772,0.30805 0.58834,0.40518 0.22063,0.0985 0.4593,0.14847 0.716,0.14847 0.25393,0 0.49399,-0.0499 0.72016,-0.14847 0.22618,-0.0971 0.42599,-0.23312 0.59667,-0.40518 0.17206,-0.17206 0.30943,-0.37187 0.4135,-0.60221 0.10268,-0.23173 0.15403,-0.47456 0.15403,-0.73127"
           style="fill:#1f74bb;fill-opacity:1;fill-rule:nonzero;stroke:none;stroke-width:1.38759458"
           id="path3820"
           inkscape:connector-curvature="0" /><path
           inkscape:connector-curvature="0"
           id="path3824"
           style="fill:#1f74bb;fill-opacity:1;fill-rule:nonzero;stroke:none;stroke-width:1.38759458"
           d="m 544.99014,227.06055 c 1.47224,0 2.5726,0.49259 3.29831,1.47917 0.72571,0.98658 1.09065,2.36585 1.09065,4.13226 0,1.77751 -0.36494,3.16094 -1.09065,4.15307 -0.72571,0.99213 -1.82607,1.4875 -3.29831,1.4875 -0.74653,0 -1.39592,-0.12627 -1.94402,-0.38297 -0.55088,-0.25532 -1.01017,-0.62303 -1.37927,-1.10453 -0.36633,-0.48149 -0.64107,-1.07261 -0.82285,-1.77473 -0.18177,-0.70213 -0.27335,-1.49444 -0.27335,-2.37834 0,-0.8839 0.0916,-1.67483 0.27335,-2.3714 0.18178,-0.69796 0.45652,-1.28491 0.82285,-1.76086 0.3691,-0.47455 0.82839,-0.84088 1.37927,-1.09758 0.5481,-0.25393 1.19749,-0.38159 1.94402,-0.38159 m 0,13.31536 c 1.08926,0 2.07306,-0.18178 2.9528,-0.54533 0.87835,-0.36494 1.62487,-0.87973 2.23819,-1.54717 0.6147,-0.66882 1.0851,-1.47501 1.41535,-2.42274 0.32747,-0.94772 0.49259,-2.00646 0.49259,-3.17343 0,-1.17945 -0.16512,-2.23957 -0.49259,-3.18175 -0.33025,-0.94357 -0.80065,-1.74837 -1.41535,-2.4158 -0.61332,-0.66744 -1.35984,-1.18085 -2.23819,-1.53885 -0.87974,-0.35938 -1.86354,-0.53838 -2.9528,-0.53838 -1.09065,0 -2.07446,0.179 -2.95419,0.53838 -0.87835,0.358 -1.62765,0.87141 -2.24513,1.53885 -0.61887,0.66743 -1.0962,1.47223 -1.42922,2.4158 -0.33441,0.94218 -0.50092,2.0023 -0.50092,3.18175 0,1.16697 0.16651,2.22571 0.50092,3.17343 0.33302,0.94773 0.81035,1.75392 1.42922,2.42274 0.61748,0.66744 1.36678,1.18223 2.24513,1.54717 0.87973,0.36355 1.86354,0.54533 2.95419,0.54533" /><path
           inkscape:connector-curvature="0"
           id="path3828"
           style="fill:#1f74bb;fill-opacity:1;fill-rule:nonzero;stroke:none;stroke-width:1.38759458"
           d="m 555.71277,225.21907 v 14.92081 h 1.56105 c 0.37326,0 0.60777,-0.18178 0.70767,-0.54533 l 0.20537,-1.62071 c 0.648,0.71739 1.37233,1.2974 2.17297,1.73866 0.80064,0.44264 1.72617,0.66327 2.77658,0.66327 0.81451,0 1.53329,-0.13599 2.15771,-0.40518 0.62303,-0.26919 1.14337,-0.65356 1.56104,-1.14893 0.41767,-0.49676 0.73404,-1.09204 0.9505,-1.79 0.21508,-0.69657 0.32331,-1.46807 0.32331,-2.31173 v -9.50086 h -2.62116 v 9.50086 c 0,1.12812 -0.2581,2.00508 -0.7729,2.62811 -0.51618,0.62303 -1.30433,0.93523 -2.36446,0.93523 -0.77566,0 -1.49999,-0.18593 -2.17297,-0.5592 -0.67298,-0.37326 -1.29324,-0.87834 -1.86215,-1.51664 v -10.98836 z" /><path
           inkscape:connector-curvature="0"
           id="path3832"
           style="fill:#1f74bb;fill-opacity:1;fill-rule:nonzero;stroke:none;stroke-width:1.38759458"
           d="m 581.01751,237.68036 c -0.11795,-0.21646 -0.29973,-0.32331 -0.54533,-0.32331 -0.14708,0 -0.3136,0.0527 -0.49953,0.16097 -0.18733,0.10823 -0.41628,0.22895 -0.68548,0.36077 -0.26919,0.13182 -0.59111,0.25532 -0.96437,0.36771 -0.37327,0.1124 -0.81452,0.16929 -1.32516,0.16929 -0.44264,0 -0.84088,-0.0569 -1.19333,-0.16929 -0.35383,-0.11239 -0.65494,-0.26642 -0.9061,-0.46345 -0.25115,-0.19565 -0.44264,-0.42461 -0.57446,-0.68548 -0.13321,-0.25948 -0.19981,-0.54255 -0.19981,-0.84643 0,-0.38297 0.111,-0.70212 0.33163,-0.95744 0.22202,-0.25532 0.5148,-0.47594 0.87696,-0.66188 0.36355,-0.18733 0.77567,-0.35106 1.23773,-0.49399 0.46069,-0.14292 0.93524,-0.29555 1.4209,-0.45651 0.48566,-0.16235 0.96022,-0.34135 1.42229,-0.53839 0.46068,-0.19565 0.87279,-0.44126 1.23634,-0.73681 0.36355,-0.29417 0.65495,-0.65356 0.87557,-1.08233 0.22063,-0.42738 0.33164,-0.9394 0.33164,-1.53745 0,-0.68964 -0.12211,-1.32515 -0.36771,-1.90794 -0.24561,-0.58418 -0.60916,-1.09065 -1.08926,-1.51803 -0.4815,-0.42738 -1.07123,-0.76318 -1.76919,-1.00878 -0.69657,-0.24561 -1.50137,-0.36772 -2.41441,-0.36772 -1.0407,0 -1.98426,0.16929 -2.82792,0.50786 -0.84366,0.33858 -1.56104,0.77289 -2.15077,1.30295 l 0.61748,1.00185 c 0.0791,0.12766 0.17206,0.22618 0.28168,0.29556 0.10823,0.068 0.24977,0.10268 0.42599,0.10268 0.17761,0 0.36355,-0.0694 0.56059,-0.20675 0.19565,-0.13738 0.43432,-0.28862 0.71322,-0.45514 0.2803,-0.16928 0.61887,-0.32053 1.01711,-0.4579 0.39824,-0.13737 0.89639,-0.20675 1.49583,-0.20675 0.50924,0 0.95605,0.0666 1.34041,0.19981 0.38159,0.13182 0.70074,0.31082 0.95606,0.537 0.2567,0.22479 0.44403,0.48705 0.56752,0.78122 0.12211,0.29417 0.18455,0.60776 0.18455,0.94217 0,0.41212 -0.11101,0.75347 -0.33163,1.02405 -0.22063,0.26919 -0.51341,0.50092 -0.87696,0.69241 -0.36355,0.1901 -0.77844,0.358 -1.24467,0.50092 -0.46624,0.14153 -0.94218,0.29139 -1.42784,0.44819 -0.48566,0.15819 -0.96299,0.33719 -1.42922,0.53839 -0.46623,0.2012 -0.88112,0.45374 -1.24467,0.75901 -0.36217,0.30389 -0.65495,0.67854 -0.87558,1.12534 -0.22201,0.44819 -0.33302,0.98936 -0.33302,1.62765 0,0.56891 0.11795,1.11701 0.35384,1.64291 0.23589,0.5259 0.58001,0.98658 1.03098,1.38482 0.45236,0.39685 1.00739,0.71461 1.66511,0.94912 0.65772,0.23589 1.40841,0.35383 2.25346,0.35383 0.98241,0 1.86215,-0.15402 2.64475,-0.46484 0.77983,-0.30805 1.45559,-0.73265 2.0245,-1.27381 z" /></g></g></g></svg>