<?xml version="1.0" encoding="utf-8"?>
<svg version="1.1" id="Capa_1" xmlns="http://www.w3.org/2000/svg" xmlns:xlink="http://www.w3.org/1999/xlink" x="0px" y="0px"
	 viewBox="0 0 400 150" style="enable-background:new 0 0 400 150;" width="400" height="150" xml:space="preserve">
<style type="text/css">
	.st0{fill:#010202;}
</style>
<g>
	<path class="st0" d="M92.4,60.4c2-3.9,1.1-9-2.3-11.9c-0.5-0.5-1.1-0.9-1.8-1.3C88.3,47.1,22.1,9.4,22,9.3
		c-4.8-2.7-10.9-1.1-13.7,3.7C5.6,17.9,7.2,24,12.1,26.7l51.1,29.2L12.1,85.1C7.2,87.9,5.6,94,8.3,98.8c2.8,4.9,9,6.5,13.7,3.7
		C24.6,100,93.6,64.1,92.4,60.4z"/>
	<g>
		<path class="st0" d="M83.4,142.4H17c-5.5,0-10-4.5-10-10c0-5.5,4.5-10,10-10h66.4c5.5,0,10,4.5,10,10
			C93.4,137.9,89,142.4,83.4,142.4z"/>
	</g>
</g>
<g>
	<path class="st0" d="M192.2,78c2-3.9,1.1-9-2.3-11.9c-0.5-0.5-1.1-0.9-1.8-1.3c-0.1-0.1-66.3-37.8-66.3-37.9
		c-4.8-2.7-10.9-1.1-13.7,3.7c-2.7,4.8-1.1,10.9,3.7,13.7l51.1,29.2l-51.1,29.2c-4.8,2.7-6.5,8.9-3.7,13.7c2.8,4.9,9,6.5,13.7,3.7
		C124.5,117.6,193.4,81.7,192.2,78z"/>
</g>
<g>
	<path class="st0" d="M307.7,78c-2-3.9-1.1-9,2.3-11.9c0.5-0.5,1.1-0.9,1.8-1.3c0.1-0.1,66.3-37.8,66.3-37.9
		c4.8-2.7,10.9-1.1,13.7,3.7c2.7,4.8,1.1,10.9-3.7,13.7l-51.1,29.2l51.1,29.2c4.8,2.7,6.5,8.9,3.7,13.7c-2.8,4.9-9,6.5-13.7,3.7
		C375.4,117.6,306.5,81.7,307.7,78z"/>
</g>
<g>
	<path class="st0" d="M207.8,60.4c-2-3.9-1.1-9,2.3-11.9c0.5-0.5,1.1-0.9,1.8-1.3c0.1-0.1,66.3-37.8,66.3-37.9
		c4.8-2.7,10.9-1.1,13.7,3.7c2.7,4.8,1.1,10.9-3.7,13.7L237,55.9l51.1,29.2c4.8,2.7,6.5,8.9,3.7,13.7c-2.8,4.9-9,6.5-13.7,3.7
		C275.6,100,206.6,64.1,207.8,60.4z"/>
	<g>
		<path class="st0" d="M216.8,142.4h66.4c5.5,0,10-4.5,10-10c0-5.5-4.5-10-10-10h-66.4c-5.5,0-10,4.5-10,10
			C206.7,137.9,211.2,142.4,216.8,142.4z"/>
	</g>
</g>
</svg>
