<svg xmlns="http://www.w3.org/2000/svg" viewBox="0 0 99.09 92.91"><title>logo grid</title><g id="Layer_2" data-name="Layer 2"><g id="Layer_1-2" data-name="Layer 1"><path d="M22.06,48.05h0a3.51,3.51,0,0,0,5,0l21-21a3.51,3.51,0,0,0,0-5L27,1a3.47,3.47,0,0,0-2.47-1h0a3.48,3.48,0,0,0-2.48,1l-21,21a3.51,3.51,0,0,0,0,5ZM3.14,24.18l21-21A.49.49,0,0,1,24.54,3h0a.47.47,0,0,1,.35.15l21,21a.51.51,0,0,1,0,.71l-21,21a.51.51,0,0,1-.71,0l-21-21a.51.51,0,0,1,0-.71Z"/><path d="M91.74,6.16H62a3.5,3.5,0,0,0-3.5,3.5V39.41a3.5,3.5,0,0,0,3.5,3.5H91.74a3.5,3.5,0,0,0,3.5-3.5V9.66A3.5,3.5,0,0,0,91.74,6.16Zm.5,3.5V39.41a.5.5,0,0,1-.5.5H62a.5.5,0,0,1-.5-.5V9.66a.5.5,0,0,1,.5-.5H91.74A.5.5,0,0,1,92.24,9.66Z"/><path d="M33.37,92.91A10.89,10.89,0,0,0,44.26,82V64.35A10.9,10.9,0,0,0,33.37,53.46H15.7A10.91,10.91,0,0,0,4.81,64.35V82A10.9,10.9,0,0,0,15.7,92.91Zm0-3H15.7A7.9,7.9,0,0,1,7.81,82V64.35a7.9,7.9,0,0,1,7.89-7.89H33.37a7.9,7.9,0,0,1,7.89,7.89V82A7.9,7.9,0,0,1,33.37,89.91Z"/><path d="M98.63,89.43a3.39,3.39,0,0,0,0-3.4L79.81,53.44a3.4,3.4,0,0,0-5.89,0L55.11,86a3.39,3.39,0,0,0,2.94,5.09H95.68A3.38,3.38,0,0,0,98.63,89.43ZM96,87.92a.38.38,0,0,1-.35.2H58.05a.35.35,0,0,1-.34-.2.34.34,0,0,1,0-.39L76.52,54.94a.38.38,0,0,1,.35-.2.37.37,0,0,1,.34.2L96,87.53A.38.38,0,0,1,96,87.92Z"/></g></g></svg>