<?xml version="1.0" encoding="utf-8"?>
<!-- Generator: Adobe Illustrator 16.0.0, SVG Export Plug-In . SVG Version: 6.00 Build 0)  -->
<!DOCTYPE svg PUBLIC "-//W3C//DTD SVG 1.1//EN" "http://www.w3.org/Graphics/SVG/1.1/DTD/svg11.dtd">
<svg version="1.1" id="Layer_1" xmlns="http://www.w3.org/2000/svg" xmlns:xlink="http://www.w3.org/1999/xlink" x="0px" y="0px"
	 width="20px" height="20px" viewBox="0 0 20 20" enable-background="new 0 0 20 20" xml:space="preserve">
<title></title>
<g id="_30-Target">
	<path fill="#444444" stroke="#DDDDDD" stroke-miterlimit="10" d="M16.226,5.188l1.553-1.553l-1.414-1.414l-1.553,1.553
		C13.438,2.709,11.766,2.125,10,2.125S6.562,2.709,5.188,3.774L3.636,2.222L2.222,3.636l1.553,1.553
		c-2.185,2.824-2.186,6.798,0,9.624l-1.552,1.552l1.414,1.414l1.552-1.552c1.373,1.065,3.045,1.648,4.811,1.648
		c1.767,0,3.44-0.584,4.813-1.649l1.553,1.553l1.414-1.414l-1.553-1.553C18.41,11.987,18.41,8.013,16.226,5.188z M9.999,15.875
		c-1.23,0-2.4-0.38-3.383-1.076l1.44-1.44l-1.414-1.414l-1.432,1.432C3.785,11.355,3.786,8.644,5.21,6.624l1.431,1.431l1.414-1.414
		L6.617,5.202C7.601,4.505,8.77,4.125,10,4.125s2.4,0.38,3.384,1.077l-1.439,1.439l1.414,1.414l1.432-1.431
		c1.425,2.021,1.425,4.731,0,6.751l-1.431-1.431l-1.414,1.414l1.438,1.438C12.399,15.494,11.23,15.875,9.999,15.875z"/>
	<circle fill="#444444" stroke="#FFFFFF" stroke-miterlimit="10" cx="10" cy="10" r="1.5"/>
</g>
</svg>
