<svg width="16" height="16" xmlns="http://www.w3.org/2000/svg">
 <title/>

 <g>
  <title>background</title>
  <rect fill="none" id="canvas_background" height="402" width="582" y="-1" x="-1"/>
 </g>
 <g>
  <title>Layer 1</title>
  <path stroke="null" id="Shape copy" d="m12.11605,6.242055l0,2.636917c0,1.757945 -1.829356,3.51589 -3.658711,3.51589l0,1.757945l2.744034,0l0,0.878972l-6.402745,0l0,-0.878972l2.744034,0l0,-1.757945c-1.829356,0 -3.658711,-1.757945 -3.658711,-3.51589l0,-2.636917l0.914678,0l0,2.636917c0,1.318459 1.372017,2.636917 2.744034,2.636917l0.914678,0c1.372017,0 2.744034,-1.318459 2.744034,-2.636917l0,-2.636917l0.914678,0zm-4.568926,-5.273835l0.905751,0c1.016189,0 1.833819,0.78392 1.833819,1.750931l0,6.166836c0,0.959697 -0.821033,1.750931 -1.833819,1.750931l-0.905751,0c-1.016189,0 -1.833819,-0.78392 -1.833819,-1.750931l0,-6.166836c0,-0.959697 0.821033,-1.750931 1.833819,-1.750931zm-0.919141,0.878972l0,0.878972l0.914678,0l0,-0.878972l-0.914678,0zm1.829356,0l0,0.878972l0.914678,0l0,-0.878972l-0.914678,0zm-2.744034,0.878972l0,0.878972l0.914678,0l0,-0.878972l-0.914678,0zm1.829356,0l0,0.878972l0.914678,0l0,-0.878972l-0.914678,0zm1.829356,0l0,0.878972l0.914678,0l0,-0.878972l-0.914678,0zm-2.744034,0.878972l0,0.878972l0.914678,0l0,-0.878972l-0.914678,0zm1.829356,0l0,0.878972l0.914678,0l0,-0.878972l-0.914678,0zm-2.744034,0.878972l0,0.878972l0.914678,0l0,-0.878972l-0.914678,0zm1.829356,0l0,0.878972l0.914678,0l0,-0.878972l-0.914678,0zm1.829356,0l0,0.878972l0.914678,0l0,-0.878972l-0.914678,0zm-2.744034,0.878972l0,0.878972l0.914678,0l0,-0.878972l-0.914678,0zm1.829356,0l0,0.878972l0.914678,0l0,-0.878972l-0.914678,0zm0,0"/>
 </g>
</svg>