<svg xmlns="http://www.w3.org/2000/svg" width="20" height="20" viewBox="0 0 70.9 70.9">
  <path fill="black" d="M57.6 0H13.3A13.29 13.29 0 000 13.3v44.3a13.29 13.29 0 0013.3 13.3h44.3a13.29 13.29 0 0013.3-13.3V13.4A13.25 13.25 0 0057.6 0zM56 53.6a2.43 2.43 0 01-2.4 2.4h-8a2.43 2.43 0 01-2.4-2.4v-3H27.6v3a2.43 2.43 0 01-2.4 2.4h-8a2.43 2.43 0 01-2.4-2.4v-8a2.43 2.43 0 012.4-2.4h3V27.7h-3a2.43 2.43 0 01-2.4-2.4v-8a2.43 2.43 0 012.4-2.4h8a2.43 2.43 0 012.4 2.4v3h15.6v-3a2.43 2.43 0 012.4-2.4h8a2.43 2.43 0 012.4 2.4v8a2.43 2.43 0 01-2.4 2.4h-3v15.6h3a2.43 2.43 0 012.4 2.4z"/>
  <path fill="black" d="M43.7 22.3H27.2a5 5 0 00-5 5v16.5a5 5 0 005 5h16.5a5 5 0 005-5V27.2a5 5 0 00-5-4.9z"/>
</svg>
