<svg xmlns="http://www.w3.org/2000/svg" width="31.282" height="26.886" viewBox="0 0 31.282 26.886">
  <g id="Group_232" data-name="Group 232" transform="translate(191 -315)">
    <path id="Path_9" data-name="Path 9" d="M4.815,15.09V0H3.24V15.09a3.526,3.526,0,0,0,0,6.875v4.921H4.815V21.965a3.526,3.526,0,0,0,0-6.875Zm-.788,5.39a1.952,1.952,0,1,1,1.952-1.952A1.954,1.954,0,0,1,4.027,20.479Zm0,0" transform="translate(-183.849 315)" fill="#3700b3"/>
    <path id="Path_10" data-name="Path 10" d="M156.909,4.31V0h-1.575V4.31a3.526,3.526,0,0,0,0,6.875v15.7h1.575v-15.7a3.527,3.527,0,0,0,0-6.875Zm-.788,5.39a1.952,1.952,0,1,1,1.952-1.952A1.954,1.954,0,0,1,156.122,9.7Zm0,0" transform="translate(-328.292 315)" fill="#3700b3"/>
    <path id="Path_12" data-name="Path 12" d="M156.909,4.31V0h-1.575V4.31a3.526,3.526,0,0,0,0,6.875v15.7h1.575v-15.7a3.527,3.527,0,0,0,0-6.875Zm-.788,5.39a1.952,1.952,0,1,1,1.952-1.952A1.954,1.954,0,0,1,156.122,9.7Zm0,0" transform="translate(-343.594 315)" fill="#3700b3"/>
    <path id="Path_11" data-name="Path 11" d="M311.746,15.377a3.533,3.533,0,0,0-2.74-3.438V0h-1.575V11.939a3.526,3.526,0,0,0,0,6.875v8.071h1.575V18.814A3.533,3.533,0,0,0,311.746,15.377Zm-3.527,1.952a1.952,1.952,0,1,1,1.952-1.952A1.954,1.954,0,0,1,308.218,17.329Zm0,0" transform="translate(-471.463 315)" fill="#3700b3"/>
  </g>
</svg>
