<svg xmlns="http://www.w3.org/2000/svg" width="24.092" height="29.086" viewBox="0 0 24.092 29.086">
  <g id="css" transform="translate(-6.4 0.1)">
    <path id="Path_21" data-name="Path 21" d="M30.1,6.069l-.723-.678L24.331.658h0L23.921.273a1.025,1.025,0,0,0-.7-.273H7.808A1.325,1.325,0,0,0,6.5,1.457V27.89c0,.417.447.823.975.951.027.007.053.016.081.021a1.377,1.377,0,0,0,.252.024H29.084a1.377,1.377,0,0,0,.252-.024c.028,0,.054-.014.081-.021.528-.128.975-.534.975-.951V6.961A1.1,1.1,0,0,0,30.1,6.069ZM24.021,1.775l4.478,4.2H24.021ZM7.808,27.89a.31.31,0,0,1-.105-.024.229.229,0,0,1-.141-.206v-7.24H29.33v7.24a.229.229,0,0,1-.141.206.31.31,0,0,1-.105.024Zm-.246-8.466V1.457c0-.108.018-.461.246-.461H22.99a.723.723,0,0,0-.031.195V6.863A2.863,2.863,0,0,0,21.9,6.474a.5.5,0,1,0,0,1,.516.516,0,0,1,.531.5V9.961a1.932,1.932,0,0,0,.734,1.494,1.932,1.932,0,0,0-.734,1.494v1.992a.516.516,0,0,1-.531.5.5.5,0,1,0,0,1,1.548,1.548,0,0,0,1.593-1.494V12.949a1.032,1.032,0,0,1,1.062-1,.5.5,0,1,0,0-1,1.032,1.032,0,0,1-1.062-1V7.968a1.435,1.435,0,0,0-.414-1h6.047a.868.868,0,0,0,.208-.029c0,.007,0,.01,0,.018V19.423Z" fill="#3700b3" stroke="#3700b3" stroke-width="0.2"/>
    <path id="Path_22" data-name="Path 22" d="M18.8,44.853a1.028,1.028,0,0,1,.408-.323,1.229,1.229,0,0,1,.48-.1,1.1,1.1,0,0,1,.432.089,1.038,1.038,0,0,1,.378.286l.565-.5a1.857,1.857,0,0,0-.633-.408,2.107,2.107,0,0,0-.762-.136,2.024,2.024,0,0,0-.824.167,1.887,1.887,0,0,0-.664.487,2.287,2.287,0,0,0-.443.8,3.967,3.967,0,0,0,0,2.23,2.277,2.277,0,0,0,.443.8,1.859,1.859,0,0,0,.66.484,2.061,2.061,0,0,0,.827.163,2.107,2.107,0,0,0,.762-.136,1.858,1.858,0,0,0,.633-.408l-.565-.5a1.074,1.074,0,0,1-.391.286,1.2,1.2,0,0,1-.46.089,1.066,1.066,0,0,1-.467-.106,1.088,1.088,0,0,1-.395-.334,1.712,1.712,0,0,1-.272-.589,3.522,3.522,0,0,1-.106-.872,3.45,3.45,0,0,1,.109-.885A1.69,1.69,0,0,1,18.8,44.853Z" transform="translate(-5.131 -21.967)" fill="#3700b3" stroke="#3700b3" stroke-width="0.2"/>
    <path id="Path_23" data-name="Path 23" d="M29.148,46.4a2.689,2.689,0,0,0-.507-.289q-.273-.119-.5-.245a1.526,1.526,0,0,1-.388-.293.616.616,0,0,1-.156-.439.546.546,0,0,1,.054-.228.736.736,0,0,1,.15-.215.9.9,0,0,1,.218-.16.694.694,0,0,1,.259-.078,2.492,2.492,0,0,1,.4-.007,1.021,1.021,0,0,1,.252.048.68.68,0,0,1,.146.068.782.782,0,0,0,.092.054.626.626,0,0,0,.041-.068c.023-.041.05-.092.082-.153l.1-.2c.036-.07.068-.135.1-.194a1.392,1.392,0,0,0-.517-.187,3.58,3.58,0,0,0-.633-.058,1.764,1.764,0,0,0-.582.1,1.466,1.466,0,0,0-.484.276,1.313,1.313,0,0,0-.33.439,1.37,1.37,0,0,0-.123.592,1.115,1.115,0,0,0,.156.613,1.634,1.634,0,0,0,.395.425,3.116,3.116,0,0,0,.51.313q.272.133.507.265a1.685,1.685,0,0,1,.391.3.549.549,0,0,1,.156.395.724.724,0,0,1-.221.575.939.939,0,0,1-.636.194,1.738,1.738,0,0,1-.293-.027,2.954,2.954,0,0,1-.313-.072c-.1-.03-.205-.061-.3-.1a1.454,1.454,0,0,1-.242-.106l-.143.586a1.081,1.081,0,0,0,.276.174,1.823,1.823,0,0,0,.337.113,2.679,2.679,0,0,0,.351.058c.116.011.228.017.337.017a1.876,1.876,0,0,0,.681-.116,1.515,1.515,0,0,0,.5-.31,1.387,1.387,0,0,0,.317-.449,1.291,1.291,0,0,0,.113-.528,1.237,1.237,0,0,0-.156-.657A1.475,1.475,0,0,0,29.148,46.4Z" transform="translate(-9.414 -21.966)" fill="#3700b3" stroke="#3700b3" stroke-width="0.2"/>
    <path id="Path_24" data-name="Path 24" d="M36.558,46.4a2.689,2.689,0,0,0-.507-.289q-.273-.119-.5-.245a1.526,1.526,0,0,1-.388-.293A.616.616,0,0,1,35,45.135a.546.546,0,0,1,.054-.228.736.736,0,0,1,.15-.215.9.9,0,0,1,.218-.16.694.694,0,0,1,.259-.078,2.492,2.492,0,0,1,.4-.007,1.021,1.021,0,0,1,.252.048.68.68,0,0,1,.146.068.782.782,0,0,0,.092.054.626.626,0,0,0,.041-.068c.023-.041.05-.092.082-.153l.1-.2q.055-.105.1-.194a1.392,1.392,0,0,0-.517-.187,3.58,3.58,0,0,0-.633-.058,1.764,1.764,0,0,0-.582.1,1.466,1.466,0,0,0-.484.276,1.313,1.313,0,0,0-.33.439,1.37,1.37,0,0,0-.123.592,1.115,1.115,0,0,0,.156.613,1.634,1.634,0,0,0,.395.425,3.116,3.116,0,0,0,.51.313q.272.133.507.265a1.685,1.685,0,0,1,.391.3.549.549,0,0,1,.156.395.724.724,0,0,1-.221.575.939.939,0,0,1-.636.194,1.738,1.738,0,0,1-.293-.027,2.955,2.955,0,0,1-.313-.072c-.1-.03-.205-.061-.3-.1a1.454,1.454,0,0,1-.242-.106l-.143.586a1.081,1.081,0,0,0,.276.174,1.823,1.823,0,0,0,.337.113,2.678,2.678,0,0,0,.351.058c.116.011.228.017.337.017a1.876,1.876,0,0,0,.681-.116,1.515,1.515,0,0,0,.5-.31A1.387,1.387,0,0,0,37,48.011a1.291,1.291,0,0,0,.113-.528,1.237,1.237,0,0,0-.156-.657A1.475,1.475,0,0,0,36.558,46.4Z" transform="translate(-12.854 -21.966)" fill="#3700b3" stroke="#3700b3" stroke-width="0.2"/>
    <path id="Path_25" data-name="Path 25" d="M17.99,16.486V14.494a.5.5,0,0,1,.5-.5.5.5,0,1,0,0-1,1.5,1.5,0,0,0-1.494,1.494v1.992a1,1,0,0,1-1,1,.5.5,0,0,0,0,1,1,1,0,0,1,1,1v1.992a1.5,1.5,0,0,0,1.494,1.494.5.5,0,1,0,0-1,.5.5,0,0,1-.5-.5V19.474A1.98,1.98,0,0,0,17.3,17.98,1.98,1.98,0,0,0,17.99,16.486Z" transform="translate(-4.167 -6.526)" fill="#3700b3" stroke="#3700b3" stroke-width="0.2"/>
  </g>
</svg>
