<svg xmlns="http://www.w3.org/2000/svg" width="39.214" height="39.213" viewBox="0 0 39.214 39.213">
  <g id="settings" transform="translate(0.25 0.25)">
    <g id="Group_7" data-name="Group 7" transform="translate(0 0)">
      <path id="Path_7" data-name="Path 7" d="M21.163,38.713H17.55a2.416,2.416,0,0,1-2.4-2.129l-.386-3.026a15.244,15.244,0,0,1-2.216-.918l-2.41,1.873a2.406,2.406,0,0,1-3.2-.2L4.4,31.769a2.4,2.4,0,0,1-.2-3.192l1.873-2.412a14.893,14.893,0,0,1-.918-2.216l-3.033-.386A2.421,2.421,0,0,1,0,21.163V17.55a2.416,2.416,0,0,1,2.129-2.4l3.026-.386a15.243,15.243,0,0,1,.918-2.216L4.2,10.141a2.4,2.4,0,0,1,.2-3.2L6.947,4.4a2.4,2.4,0,0,1,3.192-.2l2.41,1.874a15.189,15.189,0,0,1,2.218-.918l.386-3.033A2.416,2.416,0,0,1,17.55,0h3.613a2.416,2.416,0,0,1,2.4,2.129l.386,3.026a15.189,15.189,0,0,1,2.218.918L28.574,4.2a2.4,2.4,0,0,1,3.2.2l2.541,2.541a2.4,2.4,0,0,1,.2,3.192L32.64,12.55a14.893,14.893,0,0,1,.918,2.216l3.033.386a2.418,2.418,0,0,1,2.123,2.4v3.613a2.416,2.416,0,0,1-2.129,2.4l-3.026.386a15.244,15.244,0,0,1-.918,2.216l1.873,2.41a2.4,2.4,0,0,1-.2,3.2l-2.541,2.541a2.4,2.4,0,0,1-3.192.2l-2.412-1.873a14.893,14.893,0,0,1-2.216.918l-.386,3.033a2.418,2.418,0,0,1-2.4,2.124Zm-8.694-7.839a.818.818,0,0,1,.394.1,13.539,13.539,0,0,0,2.862,1.187.805.805,0,0,1,.577.673l.452,3.549a.815.815,0,0,0,.8.716h3.613a.812.812,0,0,0,.8-.708l.453-3.555a.805.805,0,0,1,.577-.673,13.539,13.539,0,0,0,2.862-1.187.8.8,0,0,1,.887.068l2.823,2.194a.793.793,0,0,0,1.057-.055l2.557-2.557a.8.8,0,0,0,.063-1.065L31.043,26.74a.805.805,0,0,1-.068-.887,13.539,13.539,0,0,0,1.187-2.862.805.805,0,0,1,.673-.577l3.549-.452a.818.818,0,0,0,.716-.8V17.55a.812.812,0,0,0-.708-.8L32.837,16.3a.805.805,0,0,1-.673-.577,13.539,13.539,0,0,0-1.187-2.862.8.8,0,0,1,.068-.887l2.194-2.823A.791.791,0,0,0,33.186,8.1L30.629,5.541a.794.794,0,0,0-1.065-.063L26.741,7.672a.808.808,0,0,1-.889.068,13.483,13.483,0,0,0-2.862-1.187.805.805,0,0,1-.577-.673l-.452-3.549a.818.818,0,0,0-.8-.718H17.55a.812.812,0,0,0-.8.708L16.3,5.876a.809.809,0,0,1-.577.674,13.479,13.479,0,0,0-2.862,1.186.808.808,0,0,1-.889-.066L9.151,5.476A.791.791,0,0,0,8.1,5.53L5.539,8.088a.8.8,0,0,0-.063,1.065L7.67,11.975a.805.805,0,0,1,.068.887,13.455,13.455,0,0,0-1.187,2.862.805.805,0,0,1-.673.577l-3.549.452a.815.815,0,0,0-.716.8v3.613a.812.812,0,0,0,.708.8l3.555.453a.805.805,0,0,1,.673.577,13.539,13.539,0,0,0,1.187,2.862.8.8,0,0,1-.068.887L5.475,29.561a.791.791,0,0,0,.053,1.055l2.557,2.557a.8.8,0,0,0,1.065.063l2.823-2.194a.831.831,0,0,1,.5-.168Z" transform="translate(0 0)" fill="#3700b3" stroke="#3700b3" stroke-width="0.5"/>
    </g>
    <g id="Group_8" data-name="Group 8" transform="translate(11.291 11.291)">
      <path id="Path_8" data-name="Path 8" d="M15.065,23.131a8.065,8.065,0,1,1,8.065-8.065A8.074,8.074,0,0,1,15.065,23.131Zm0-14.518a6.452,6.452,0,1,0,6.452,6.452A6.459,6.459,0,0,0,15.065,8.613Z" transform="translate(-7 -7)" fill="#3700b3" stroke="#3700b3" stroke-width="0.5"/>
    </g>
  </g>
</svg>
