<svg xmlns="http://www.w3.org/2000/svg" width="25.283" height="25.447" viewBox="0 0 25.283 25.447">
  <g id="settings_1_" data-name="settings (1)" transform="translate(-1.451 0.222)">
    <g id="Group_11" data-name="Group 11" transform="translate(21.793 20.164)">
      <g id="Group_10" data-name="Group 10">
        <path id="Path_13" data-name="Path 13" d="M413.795,411.718a1.3,1.3,0,1,0,1.3,1.3A1.3,1.3,0,0,0,413.795,411.718Zm0,1.825a.528.528,0,1,1,.528-.528A.529.529,0,0,1,413.794,413.543Z" transform="translate(-412.498 -411.718)" fill="#3700b3" stroke="#3700b3" stroke-width="0.3"/>
      </g>
    </g>
    <g id="Group_13" data-name="Group 13" transform="translate(1.673 0)">
      <g id="Group_12" data-name="Group 12" transform="translate(0 0)">
        <path id="Path_14" data-name="Path 14" d="M26.583,21.393a3.4,3.4,0,0,0-1.131-2.458l-7.736-6.977,6.84-6.84a.725.725,0,0,0,.132-.053l1.481-.782a.721.721,0,0,0,.173-1.148L24.674,1.468a.721.721,0,0,0-1.148.173l-.782,1.481a.729.729,0,0,0-.054.133L19.463,6.484a.384.384,0,0,0,.543.543l2.963-2.963.776.776-7.576,7.576-.776-.776L18.7,8.334a.384.384,0,0,0-.543-.543l-2.4,2.4L13.145,7.835A5.9,5.9,0,0,0,5.456.391a.384.384,0,0,0-.134.63L8.338,4.038a.472.472,0,0,1,0,.668L6.379,6.665a.472.472,0,0,1-.668,0L2.695,3.649a.384.384,0,0,0-.63.134,5.9,5.9,0,0,0,7.325,7.728l2.019,2.208a2.073,2.073,0,0,1-2.6.989.384.384,0,0,0-.411.086l-4.7,4.7a3.266,3.266,0,0,0,4.619,4.619l4.7-4.7A.384.384,0,0,0,13.1,19a2.078,2.078,0,0,1,2.69-2.69.384.384,0,0,0,.411-.086l.887-.887a1.415,1.415,0,0,0,0-2l-.378-.378.46-.46,7.765,7a2.661,2.661,0,1,1-3.746,3.772l-5.773-6.313a.384.384,0,1,0-.567.519L20.623,23.8a3.4,3.4,0,0,0,2.454,1.114h.079a3.43,3.43,0,0,0,3.426-3.518ZM23.441,3.45l.736-1.394,1.577,1.577-1.393.736ZM9.786,10.806a.384.384,0,0,0-.418-.1A5.131,5.131,0,0,1,2.6,4.639l2.57,2.57a1.241,1.241,0,0,0,1.755,0L8.882,5.25a1.241,1.241,0,0,0,0-1.755L6.312.925A5.132,5.132,0,0,1,12.337,7.8a.384.384,0,0,0,.1.428l2.776,2.5-.363.363-.378-.378a1.415,1.415,0,0,0-2,0l-.887.887a.384.384,0,0,0-.086.411,2.075,2.075,0,0,1,.139.81Zm6.761,3.99-.719.719a2.849,2.849,0,0,0-2.8.722h0a2.848,2.848,0,0,0-.722,2.8L7.768,23.575a2.5,2.5,0,1,1-3.532-3.533l4.536-4.536a2.846,2.846,0,0,0,3.523-3.524l.719-.719a.647.647,0,0,1,.914,0l.649.649,1.32,1.32.649.649A.647.647,0,0,1,16.547,14.8Z" transform="translate(-1.673 0)" fill="#3700b3" stroke="#3700b3" stroke-width="0.3"/>
      </g>
    </g>
    <g id="Group_15" data-name="Group 15" transform="translate(5.245 16.845)">
      <g id="Group_14" data-name="Group 14">
        <path id="Path_15" data-name="Path 15" d="M78.91,344.064a.384.384,0,0,0-.543,0l-3.64,3.64a.384.384,0,1,0,.543.543l3.64-3.64A.384.384,0,0,0,78.91,344.064Z" transform="translate(-74.614 -343.952)" fill="#3700b3" stroke="#3700b3" stroke-width="0.3"/>
      </g>
    </g>
    <g id="Group_17" data-name="Group 17" transform="translate(6.59 18.19)">
      <g id="Group_16" data-name="Group 16">
        <path id="Path_16" data-name="Path 16" d="M106.369,371.523a.384.384,0,0,0-.543,0l-3.64,3.64a.384.384,0,0,0,.543.543l3.64-3.64A.384.384,0,0,0,106.369,371.523Z" transform="translate(-102.073 -371.411)" fill="#3700b3" stroke="#3700b3" stroke-width="0.3"/>
      </g>
    </g>
  </g>
</svg>
