<svg xmlns="http://www.w3.org/2000/svg" width="150" height="150" viewBox="0 0 150 150">
  <g id="Group_1288" data-name="Group 1288" transform="translate(-4886 -972)">
    <rect id="Rectangle_351" data-name="Rectangle 351" width="150" height="150" transform="translate(4886 972)" fill="#f8f8f8"/>
    <g id="Group_1277" data-name="Group 1277" transform="translate(3918.205 -546)">
      <g id="Group_1106" data-name="Group 1106" transform="translate(1015.493 1578)">
        <rect id="Rectangle_276" data-name="Rectangle 276" width="56.296" height="30.089" rx="15.045" fill="#3700b3"/>
        <rect id="Rectangle_277" data-name="Rectangle 277" width="30.089" height="30.089" rx="15.045" transform="translate(26.207)" fill="#fff"/>
      </g>
      <g id="moon" transform="translate(987.795 1584.794)">
        <g id="Group_958" data-name="Group 958" transform="translate(0 0)">
          <path id="Path_676" data-name="Path 676" d="M15.794,6.5a.467.467,0,0,0-.914-.019A4.532,4.532,0,1,1,9.445,1.048.467.467,0,0,0,9.426.134,8.029,8.029,0,0,0,7.964,0,7.964,7.964,0,0,0,2.333,13.6a7.964,7.964,0,0,0,13.6-5.631A8.039,8.039,0,0,0,15.794,6.5ZM7.964,15A7.031,7.031,0,0,1,7.374.958a5.465,5.465,0,1,0,7.6,7.6A7.041,7.041,0,0,1,7.964,15Z" transform="translate(0 0)"/>
        </g>
      </g>
      <g id="sun" transform="translate(1083.161 1584.794)">
        <path id="Path_677" data-name="Path 677" d="M121.244,117a4.244,4.244,0,1,0,4.244,4.244A4.249,4.249,0,0,0,121.244,117Zm0,7.573a3.328,3.328,0,1,1,3.328-3.328A3.332,3.332,0,0,1,121.244,124.573Z" transform="translate(-113.427 -113.427)"/>
        <path id="Path_678" data-name="Path 678" d="M241.458,2.493a.458.458,0,0,0,.458-.458V.458a.458.458,0,1,0-.916,0V2.035A.458.458,0,0,0,241.458,2.493Z" transform="translate(-233.641 0)"/>
        <path id="Path_679" data-name="Path 679" d="M432.392,241h-1.577a.458.458,0,0,0,0,.916h1.577a.458.458,0,0,0,0-.916Z" transform="translate(-417.216 -233.641)"/>
        <path id="Path_680" data-name="Path 680" d="M241.458,430.357a.458.458,0,0,0-.458.458v1.577a.458.458,0,0,0,.916,0v-1.577A.458.458,0,0,0,241.458,430.357Z" transform="translate(-233.641 -417.216)"/>
        <path id="Path_681" data-name="Path 681" d="M2.493,241.458A.458.458,0,0,0,2.035,241H.458a.458.458,0,1,0,0,.916H2.035A.458.458,0,0,0,2.493,241.458Z" transform="translate(0 -233.641)"/>
        <path id="Path_682" data-name="Path 682" d="M375.353,72.618a.456.456,0,0,0,.324-.134l1.115-1.115a.458.458,0,0,0-.648-.648l-1.115,1.115a.458.458,0,0,0,.324.782Z" transform="translate(-363.448 -68.431)"/>
        <path id="Path_683" data-name="Path 683" d="M375.677,375.031a.458.458,0,1,0-.648.648l1.115,1.115a.458.458,0,0,0,.648-.648Z" transform="translate(-363.448 -363.45)"/>
        <path id="Path_684" data-name="Path 684" d="M71.836,375.03l-1.115,1.115a.458.458,0,1,0,.648.648l1.115-1.115a.458.458,0,1,0-.648-.648Z" transform="translate(-68.431 -363.448)"/>
        <path id="Path_685" data-name="Path 685" d="M71.836,72.483a.458.458,0,1,0,.648-.648l-1.115-1.115a.458.458,0,0,0-.648.648Z" transform="translate(-68.431 -68.431)"/>
        <path id="Path_686" data-name="Path 686" d="M313.947,20.786a.458.458,0,0,0,.6-.247l.605-1.456a.458.458,0,0,0-.846-.352l-.605,1.456A.458.458,0,0,0,313.947,20.786Z" transform="translate(-304.087 -17.886)"/>
        <path id="Path_687" data-name="Path 687" d="M417.945,314.306l-1.456-.605a.458.458,0,1,0-.352.846l1.456.605a.458.458,0,0,0,.352-.846Z" transform="translate(-403.156 -304.088)"/>
        <path id="Path_688" data-name="Path 688" d="M149.749,415.89a.458.458,0,0,0-.6.247l-.605,1.456a.458.458,0,1,0,.846.352l.605-1.456A.458.458,0,0,0,149.749,415.89Z" transform="translate(-143.975 -403.157)"/>
        <path id="Path_689" data-name="Path 689" d="M18.732,149.391l1.456.605a.458.458,0,0,0,.352-.846l-1.456-.605a.458.458,0,0,0-.352.846Z" transform="translate(-17.886 -143.975)"/>
        <path id="Path_690" data-name="Path 690" d="M416.059,150.265a.458.458,0,0,0,.6.249l1.458-.6a.458.458,0,0,0-.35-.847l-1.458.6A.458.458,0,0,0,416.059,150.265Z" transform="translate(-403.321 -144.479)"/>
        <path id="Path_691" data-name="Path 691" d="M314.136,416.308a.458.458,0,0,0-.847.35l.6,1.458a.458.458,0,1,0,.847-.35Z" transform="translate(-303.689 -403.321)"/>
        <path id="Path_692" data-name="Path 692" d="M20.571,313.538a.458.458,0,0,0-.6-.249l-1.458.6a.458.458,0,1,0,.35.847l1.458-.6A.458.458,0,0,0,20.571,313.538Z" transform="translate(-17.676 -303.689)"/>
        <path id="Path_693" data-name="Path 693" d="M149.667,20.324a.458.458,0,0,0,.847-.35l-.6-1.458a.458.458,0,0,0-.847.35Z" transform="translate(-144.479 -17.676)"/>
      </g>
    </g>
  </g>
</svg>
