<svg xmlns="http://www.w3.org/2000/svg" width="150" height="150" viewBox="0 0 150 150">
  <g id="Group_1291" data-name="Group 1291" transform="translate(-4883 -2306)">
    <rect id="Rectangle_357" data-name="Rectangle 357" width="150" height="150" transform="translate(4883 2306)" fill="#f8f8f8"/>
    <g id="Group_1283" data-name="Group 1283" transform="translate(-533.5 1133)">
      <rect id="Rectangle_315" data-name="Rectangle 315" width="84" height="85" rx="6" transform="translate(5449.5 1206)" fill="#3700b3"/>
      <g id="moon" transform="translate(5467.308 1224.308)">
        <g id="Group_958" data-name="Group 958" transform="translate(0 0)">
          <path id="Path_676" data-name="Path 676" d="M47.064,19.376a1.391,1.391,0,0,0-2.723-.057,13.506,13.506,0,1,1-16.2-16.2A1.391,1.391,0,0,0,28.089.4,23.927,23.927,0,0,0,23.732,0,23.732,23.732,0,0,0,6.951,40.513,23.732,23.732,0,0,0,47.464,23.732,23.957,23.957,0,0,0,47.064,19.376ZM23.732,44.683A20.952,20.952,0,0,1,21.974,2.854,16.284,16.284,0,1,0,44.61,25.49,20.981,20.981,0,0,1,23.732,44.683Z" transform="translate(0 0)" fill="#fff"/>
        </g>
      </g>
    </g>
  </g>
</svg>
