<?xml version="1.0" encoding="UTF-8"?>
<svg width="99px" height="24px" viewBox="0 0 487.9 89.2" fill="none" xmlns="http://www.w3.org/2000/svg" xmlns:xlink="http://www.w3.org/1999/xlink">
    <rect x="289.6" fill="#be2b31" width="198.4" height="89.2"/>
    <g>
        <path fill="#FFFFFF" d="M325.3,28.7c-1.3,0-2.5,0-3.7,0.1v15.7c1.1,0.1,2.1,0.2,3.1,0.2c6.5-0.1,10.9-3.1,10.9-8.2 C335.6,31.7,332.4,28.7,325.3,28.7 M325.1,52.1c-1,0-2.3,0-3.6-0.1v16.3h-10.5V20.9h14.6c13.4,0,20.8,5.7,20.8,14.9 C346.5,45,338.4,52.1,325.1,52.1"/>
    </g>
    <polygon fill="#9B9CA0" points="36.7,67.5 24.5,50.9 12.4,67.5 0,67.5 18.6,44.4 0.7,20.9 13.5,20.9 25.4,37.1 37.3,20.9 49.1,20.9 31.6,43.9 50.2,67.5 "/>
    <polyline fill="#FFFFFF" points="447.4,43.3 447.4,67.3 436.9,67.3 436.9,43 "/>
    <polyline fill="#FFFFFF" points="438.2,47.3 417.9,20.7 430.8,20.7 442.7,37 454.6,20.7 466.4,20.7 446.7,46.7 "/>
    <polygon fill="#9B9CA0" points="181.5,67.5 181.5,20.9 210.5,20.9 210.5,28.5 191.7,28.5 191.7,39.9 209.6,39.9 209.6,47.2 191.7,47.2 191.7,59.8 210.5,59.8 210.5,67.5 "/>
    <g>
        <path fill="#9B9CA0" d="M83.2,28.4c-1.8,0-3.5,0-4.8,0.1v15.8c1.1,0.3,2.9,0.4,4.2,0.4c6.1,0,9.8-2.9,9.8-8.3 C92.3,31.7,89.3,28.4,83.2,28.4 M82.6,52.3c-1.2,0-3-0.1-4.2-0.2v15.3h-9.8V20.9c4-0.1,9.9-0.3,15.4-0.3c12,0,18.8,5.6,18.8,15.1 C102.8,45.9,94.5,52.3,82.6,52.3"/>
        <path fill="#9B9CA0" d="M246.2,68.4c-3.5,0-8.2-0.8-11-1.4l1.1-8.3c2.9,1.1,6.9,1.8,11.1,1.8c4.7,0,9.3-1.9,9.3-6.5 c0-8.1-22.2-3.9-22.2-18.8c0-8.7,7.4-14.4,20.6-14.4c2.9,0,7.3,0.4,10.1,0.9l-0.9,8.1c-2.7-0.8-6.7-1.3-9.6-1.3 c-6.4,0-9.2,2.3-9.2,5.7c0,7.9,22.5,4.4,22.5,18.8C268,62.3,259.1,68.4,246.2,68.4"/>
        <path fill="#9B9CA0" d="M138.3,28c-1.6,0-2.9,0-4.2,0.2v13.4c1.4,0.1,3,0.2,4.5,0.2c5.2,0,8.5-3,8.5-7.3C147.2,30.3,143.8,28,138.3,28 M148.1,67.5l-13.5-19.2h-0.5v19.2h-9.8V20.9c3.4-0.2,9.6-0.3,15.4-0.3c11.2,0,17.8,4.3,17.8,12.9c0,7.6-5.3,12.2-12.9,13.4 c1.1,1.3,2.4,3,3.8,5l11.7,15.6H148.1z"/>
    </g>
    <polygon fill="#FFFFFF" points="406.3,58.4 363.1,58.4 365.9,51.6 403.6,51.6 "/>
    <polygon fill="#FFFFFF" points="362.2,60.6 359.2,67.9 370.6,67.9 373.5,60.6 "/>
    <polygon fill="#FFFFFF" points="377.8,49.5 384.6,32.4 391.2,49.5 402.7,49.5 390.9,20.5 378.6,20.5 366.7,49.5 "/>
    <polygon fill="#FFFFFF" points="395.4,60.6 398.2,67.9 410.2,67.9 407.2,60.6 "/>
</svg>
