<svg width="24" height="16" viewBox="0 0 24 16" fill="none" xmlns="http://www.w3.org/2000/svg">
<g id="dinnerclub-color">
<rect id="card_bg" width="24" height="16" rx="2" fill="white"/>
<path id="card_bg-2" fill-rule="evenodd" clip-rule="evenodd" d="M2 0H22C23.1046 0 24 0.89543 24 2V14C24 15.1046 23.1046 16 22 16H2C0.89543 16 0 15.1046 0 14V2C0 0.89543 0.89543 0 2 0ZM23 2C23 1.44772 22.5523 1 22 1H2C1.44772 1 1 1.44772 1 2V14C1 14.5523 1.44772 15 2 15H22C22.5523 15 23 14.5523 23 14V2Z" fill="#0779BE"/>
<g id="dinner_club">
<path id="Shape" fill-rule="evenodd" clip-rule="evenodd" d="M6.56001 10.39C6.56001 10.71 6.37001 11.52 5.22001 11.52H5.17001H4.26001V11.43C4.46001 11.42 4.56001 11.41 4.56001 11.19V9.61C4.56001 9.33 4.41001 9.33 4.26001 9.33V9.25H5.26001C5.58633 9.21651 5.91186 9.32036 6.1585 9.53664C6.40513 9.75292 6.5506 10.0621 6.56001 10.39ZM5.19001 9.36H4.93001L4.92001 11.13C4.92001 11.41 5.10001 11.41 5.26001 11.41C5.52125 11.417 5.7729 11.3114 5.95087 11.1201C6.12884 10.9287 6.21595 10.67 6.19001 10.41C6.20372 10.1362 6.10444 9.86884 5.9154 9.67034C5.72636 9.47185 5.46412 9.35966 5.19001 9.36Z" fill="#211E1F"/>
<path id="Path" d="M6.99999 9.53C7.08443 9.52471 7.15016 9.4546 7.14999 9.37C7.15016 9.2854 7.08443 9.21529 6.99999 9.21C6.91163 9.21 6.83999 9.28163 6.83999 9.37C6.83999 9.45837 6.91163 9.53 6.99999 9.53Z" fill="#211E1F"/>
<path id="Path_2" d="M6.74002 11.43H6.68002V11.52H7.37002V11.43C7.28002 11.43 7.21002 11.43 7.21002 11.33V10.08V10.03C7.1905 10.0239 7.16955 10.0239 7.15002 10.03L6.81002 10.14V10.2C6.93002 10.26 6.98002 10.28 6.98002 10.42V11.31C6.90002 11.43 6.83002 11.43 6.74002 11.43Z" fill="#211E1F"/>
<path id="Path_3" d="M9.09997 11.43H8.99997C8.90997 11.43 8.83997 11.43 8.83997 11.33V10.49C8.83997 10.23 8.73997 10.03 8.46997 10.03C8.25821 10.0506 8.05854 10.1382 7.89997 10.28V10.06C7.89997 10.06 7.60997 10.17 7.46997 10.22V10.28C7.62997 10.34 7.65997 10.37 7.65997 10.49V11.36C7.65997 11.46 7.59997 11.46 7.50997 11.46H7.46997V11.55H8.15997V11.46H8.10997C8.01997 11.46 7.93997 11.46 7.93997 11.36V10.36C8.05363 10.2818 8.18357 10.2306 8.31997 10.21C8.50997 10.21 8.61997 10.3 8.61997 10.48V11.33C8.61997 11.43 8.55997 11.43 8.45997 11.43H8.40997V11.52H9.09997V11.43Z" fill="#211E1F"/>
<path id="Shape_2" fill-rule="evenodd" clip-rule="evenodd" d="M10.31 11.2C10.184 11.4155 9.95911 11.5542 9.71 11.57C9.52609 11.5633 9.35364 11.4789 9.23544 11.3379C9.11725 11.1968 9.0644 11.0122 9.09 10.83C9.09 10.19 9.52 10 9.75 10C9.90904 9.99214 10.0632 10.0562 10.1698 10.1744C10.2764 10.2927 10.3242 10.4526 10.3 10.61C10.3047 10.6297 10.3047 10.6503 10.3 10.67H9.39C9.37898 10.7329 9.37898 10.7971 9.39 10.86C9.37775 11.1439 9.58759 11.3887 9.87 11.42C10.0417 11.4142 10.2024 11.3339 10.31 11.2ZM9.92173 10.2183C9.86597 10.1625 9.78862 10.1339 9.71 10.14H9.73C9.54 10.14 9.4 10.28 9.36 10.52H9.91C10 10.52 10 10.43 10 10.43C10.0061 10.3514 9.97748 10.274 9.92173 10.2183Z" fill="#211E1F"/>
<path id="Path_4" d="M11.22 11.52V11.43H11C10.91 11.43 10.85 11.43 10.85 11.33V10.56C10.8526 10.4267 10.9488 10.3138 11.08 10.29C11.2 10.29 11.2 10.37 11.3 10.37C11.3424 10.3674 11.3821 10.3481 11.4103 10.3162C11.4384 10.2843 11.4527 10.2425 11.45 10.2C11.462 10.1038 11.3957 10.0154 11.3 10C11.1 10 10.96 10.21 10.88 10.34V10.04C10.88 10.04 10.72 10.13 10.49 10.23C10.54 10.23 10.66 10.23 10.66 10.37V11.29C10.66 11.39 10.59 11.39 10.5 11.39H10.41V11.48H11.26L11.22 11.52Z" fill="#211E1F"/>
<path id="Path_5" d="M12 11.46C11.7831 11.4554 11.6055 11.2864 11.59 11.07H11.53V11.45C11.6542 11.5142 11.7905 11.5517 11.93 11.56C12.32 11.56 12.49 11.33 12.49 11.12C12.49 10.6 11.73 10.72 11.73 10.34C11.73 10.2 11.86 10.13 11.99 10.13C12.0799 10.1215 12.1693 10.1515 12.2359 10.2124C12.3026 10.2734 12.3404 10.3597 12.34 10.45H12.42V10.12C12.3032 10.0567 12.1729 10.0224 12.04 10.02C11.9173 10.0061 11.7943 10.0431 11.6998 10.1226C11.6052 10.202 11.5475 10.3167 11.54 10.44C11.54 10.96 12.25 10.84 12.25 11.22C12.3 11.35 12.23 11.46 12 11.46Z" fill="#211E1F"/>
<path id="Path_6" d="M15.43 11.4L15.5 10.92H15.43C15.3802 11.245 15.0988 11.4838 14.77 11.48C14.4869 11.4646 14.2217 11.3364 14.0338 11.124C13.8459 10.9117 13.7509 10.6329 13.77 10.35C13.7506 10.0932 13.8386 9.83984 14.013 9.65031C14.1873 9.46078 14.4325 9.35204 14.69 9.35C14.8547 9.32736 15.0216 9.37179 15.1532 9.47332C15.2848 9.57485 15.3701 9.72497 15.39 9.89H15.47V9.42C15.2249 9.31981 14.9645 9.26231 14.7 9.25C14.0464 9.22746 13.4971 9.73657 13.47 10.39C13.449 10.724 13.5732 11.0508 13.8108 11.2865C14.0484 11.5222 14.3762 11.6437 14.71 11.62C14.9618 11.5929 15.2061 11.5183 15.43 11.4Z" fill="#211E1F"/>
<path id="Path_7" d="M16.31 11.52V11.43C16.22 11.43 16.15 11.43 16.15 11.33V9.08V9.03H16.08C15.9712 9.08701 15.8574 9.13387 15.74 9.17C15.87 9.17 15.92 9.17 15.92 9.42V11.24C15.92 11.34 15.85 11.34 15.76 11.34H15.7V11.43H16.39L16.31 11.52Z" fill="#211E1F"/>
<path id="Path_8" d="M16.51 10.35V11.18C16.4983 11.2813 16.5313 11.3827 16.6005 11.4576C16.6697 11.5325 16.7681 11.5736 16.87 11.57C17.0888 11.5528 17.2927 11.4526 17.44 11.29V11.56C17.5936 11.5136 17.7508 11.4802 17.91 11.46V11.4H17.8C17.74 11.4 17.71 11.4 17.71 11.34V10.14V10.08L17.2 10.13C17.32 10.13 17.48 10.2 17.48 10.27V11.14C17.3713 11.2474 17.2312 11.3175 17.08 11.34C16.8 11.34 16.8 11.06 16.8 10.96V10.12C16.8 10.05 16.8 10.03 16.8 10.03H16.38V10.09C16.5 10.18 16.51 10.26 16.51 10.35Z" fill="#211E1F"/>
<path id="Shape_3" fill-rule="evenodd" clip-rule="evenodd" d="M18.1 10.91V9.51C18.1 9.34496 18.0691 9.30963 18.0074 9.23896C17.9905 9.21971 17.9714 9.19783 17.95 9.17C18.0674 9.13387 18.1812 9.08701 18.29 9.03H18.36V9.08V10.23C18.4855 10.0943 18.6562 10.009 18.84 9.99C19.0116 9.99771 19.173 10.0741 19.2877 10.202C19.4024 10.3299 19.4609 10.4985 19.45 10.67C19.4671 11.1211 19.1206 11.5031 18.67 11.53C18.5119 11.5316 18.3563 11.4902 18.22 11.41L18.12 11.49H18.05C18.082 11.2983 18.0987 11.1044 18.1 10.91ZM18.66 10.21C18.5452 10.2223 18.4387 10.2756 18.36 10.36V11.15C18.3652 11.33 18.51 11.4748 18.69 11.48C19.04 11.48 19.19 11.14 19.19 10.85C19.2036 10.5323 18.9747 10.2559 18.66 10.21Z" fill="#211E1F"/>
<path id="Path_9" d="M4.57002 12.23H4.30002V12.29C4.37002 12.29 4.43002 12.29 4.43002 12.38V13.31C4.43002 13.4 4.37002 13.4 4.30002 13.4V13.46H4.86002V13.4C4.79002 13.4 4.73002 13.4 4.73002 13.31V12.38C4.73002 12.3 4.79002 12.29 4.86002 12.29V12.23H4.57002Z" fill="#211E1F"/>
<path id="Path_10" d="M6.12997 12.23H5.86997V12.29C5.86997 12.29 6.00997 12.29 6.00997 12.45V13.1L5.22997 12.22H4.90997V12.28C4.99282 12.28 5.05997 12.3472 5.05997 12.43V13.18C5.05997 13.32 5.05997 13.39 4.90997 13.39V13.46H5.38997V13.4C5.24997 13.4 5.22997 13.4 5.22997 13.21V12.5L6.12997 13.5H6.20997C6.20456 13.4401 6.20456 13.3799 6.20997 13.32V12.52C6.20997 12.31 6.27997 12.3 6.35997 12.3V12.24H6.12997V12.23Z" fill="#211E1F"/>
<path id="Path_11" d="M7.56997 12.17C7.56997 12.22 7.56997 12.22 7.48997 12.22H6.55997C6.55997 12.22 6.47997 12.22 6.46997 12.22C6.47485 12.2699 6.47485 12.3201 6.46997 12.37C6.47485 12.4199 6.47485 12.4701 6.46997 12.52H6.53997C6.53997 12.39 6.53997 12.37 6.69997 12.37H6.97997V13.3C6.97997 13.44 6.97997 13.44 6.83997 13.44V13.51H7.43997V13.45C7.35997 13.45 7.30997 13.45 7.29997 13.31V12.38H7.58997C7.69997 12.38 7.70997 12.47 7.70997 12.54H7.76997V12.4C7.76997 12.35 7.76997 12.3 7.76997 12.25H7.56997V12.17Z" fill="#211E1F"/>
<path id="Path_12" d="M8.62998 13.16C8.57998 13.36 8.48998 13.37 8.27998 13.37C8.06998 13.37 8.06998 13.37 8.06998 13.26V12.86H8.27998C8.38998 12.86 8.38998 12.92 8.40998 13.03H8.46998V12.63H8.40998C8.40998 12.73 8.40998 12.78 8.26998 12.78H8.06998V12.33H8.30998C8.48998 12.33 8.50998 12.42 8.51998 12.53H8.58998C8.58457 12.4701 8.58457 12.4099 8.58998 12.35V12.26H7.66998V12.32C7.72998 12.32 7.78998 12.32 7.78998 12.41V13.34C7.78998 13.43 7.72998 13.43 7.66998 13.43V13.49H8.66998C8.67936 13.3947 8.69949 13.3008 8.72998 13.21H8.66998L8.62998 13.16Z" fill="#211E1F"/>
<path id="Shape_4" fill-rule="evenodd" clip-rule="evenodd" d="M9.52001 12.86L9.81001 13.3C9.84106 13.3755 9.91906 13.4207 10 13.41V13.47H9.67001C9.53847 13.2875 9.41824 13.0972 9.31001 12.9H9.20001V13.27C9.20001 13.4 9.26001 13.4 9.34001 13.4V13.46H8.76001V13.39C8.83001 13.39 8.88001 13.37 8.88001 13.31V12.41C8.88001 12.28 8.82001 12.28 8.76001 12.28V12.22H9.33001C9.55001 12.22 9.76001 12.28 9.76001 12.54C9.75208 12.6854 9.65736 12.8117 9.52001 12.86ZM9.24001 12.82C9.42001 12.82 9.51001 12.76 9.51001 12.55C9.51024 12.4827 9.48223 12.4184 9.4328 12.3728C9.38337 12.3272 9.31705 12.3044 9.25001 12.31H9.16001V12.82H9.24001Z" fill="#211E1F"/>
<path id="Path_13" d="M11.47 12.29V12.23H11V12.29C11.0426 12.2865 11.0844 12.3026 11.1136 12.3338C11.1429 12.3649 11.1562 12.4077 11.15 12.45V13.1L10.37 12.22H10V12.28C10.0828 12.28 10.15 12.3472 10.15 12.43V13.18C10.15 13.32 10.15 13.39 10 13.39V13.46H10.49V13.4C10.36 13.4 10.33 13.4 10.33 13.21V12.5L11.23 13.5H11.31C11.3046 13.4401 11.3046 13.3799 11.31 13.32V12.52C11.31 12.31 11.39 12.3 11.46 12.3L11.47 12.29Z" fill="#211E1F"/>
<path id="Shape_5" fill-rule="evenodd" clip-rule="evenodd" d="M12.5 13.16C12.5175 13.2221 12.5409 13.2824 12.57 13.34C12.59 13.39 12.62 13.4 12.75 13.43V13.49H12.22V13.42H12.32C12.3245 13.3801 12.3245 13.3399 12.32 13.3L12.26 13.1H11.87L11.81 13.27C11.806 13.3166 11.806 13.3634 11.81 13.41C11.81 13.46 11.88 13.46 11.94 13.46V13.52H11.52V13.45C11.5895 13.4525 11.6515 13.407 11.67 13.34L11.95 12.53C11.9837 12.4604 12.0073 12.3863 12.02 12.31L12.18 12.23L12.5 13.16ZM11.84 12.92H12.15L12 12.45L11.84 12.92Z" fill="#211E1F"/>
<path id="Path_14" d="M13.73 12.17C13.73 12.22 13.73 12.22 13.64 12.22H12.72C12.67 12.22 12.64 12.22 12.63 12.22H12.57C12.575 12.2699 12.575 12.3201 12.57 12.37C12.5749 12.4199 12.5749 12.4701 12.57 12.52H12.64C12.64 12.39 12.64 12.37 12.8 12.37H13.08V13.3C13.08 13.44 13.08 13.44 12.94 13.44V13.51H13.54V13.45C13.46 13.45 13.4 13.45 13.4 13.31V12.38H13.68C13.8 12.38 13.8 12.47 13.81 12.54H13.87V12.4C13.8651 12.3501 13.8651 12.2999 13.87 12.25H13.81L13.73 12.17Z" fill="#211E1F"/>
<path id="Path_15" d="M14.11 12.23H13.84V12.29C13.9 12.29 13.96 12.29 13.96 12.38V13.31C13.96 13.4 13.9 13.4 13.84 13.4V13.46H14.39V13.4C14.33 13.4 14.27 13.4 14.27 13.31V12.38C14.27 12.3 14.33 12.29 14.39 12.29V12.23H14.11Z" fill="#211E1F"/>
<path id="Shape_6" fill-rule="evenodd" clip-rule="evenodd" d="M14.6197 12.3868C14.7438 12.2609 14.9132 12.19 15.09 12.19C15.2648 12.1762 15.4376 12.2348 15.568 12.352C15.6984 12.4692 15.775 12.6347 15.78 12.81C15.7884 12.9937 15.7198 13.1726 15.5908 13.3036C15.4617 13.4346 15.2838 13.5058 15.1 13.5C14.9243 13.5112 14.752 13.4484 14.6247 13.3268C14.4974 13.2053 14.4268 13.036 14.43 12.86C14.4273 12.6832 14.4956 12.5128 14.6197 12.3868ZM15.52 12.85C15.52 12.6 15.38 12.29 15.09 12.29C14.79 12.29 14.7 12.47 14.7 12.79C14.7 13.11 14.78 13.41 15.12 13.41C15.46 13.41 15.52 13.1 15.52 12.85Z" fill="#211E1F"/>
<path id="Path_16" d="M17.25 12.29V12.23H16.77V12.29C16.83 12.29 16.92 12.29 16.92 12.45V13.1L16.14 12.22H15.77V12.28C15.8529 12.28 15.92 12.3472 15.92 12.43V13.18C15.92 13.32 15.92 13.39 15.77 13.39V13.46H16.25V13.4C16.12 13.4 16.1 13.4 16.1 13.21V12.5L16.99 13.5H17.08C17.0746 13.4401 17.0746 13.3799 17.08 13.32V12.52C17.08 12.31 17.15 12.3 17.22 12.3L17.25 12.29Z" fill="#211E1F"/>
<path id="Shape_7" fill-rule="evenodd" clip-rule="evenodd" d="M18.28 13.16C18.35 13.22 18.35 13.29 18.35 13.34C18.37 13.39 18.4 13.4 18.5 13.43V13.49H17.97V13.42H18.07C18.0759 13.3802 18.0759 13.3398 18.07 13.3L18 13.1H17.69L17.63 13.27V13.41C17.63 13.46 17.69 13.46 17.75 13.46V13.52H17.33V13.45C17.4007 13.4566 17.4651 13.4094 17.48 13.34L17.6304 12.92H17.94L17.788 12.4735L17.84 12.31L18 12.23L18.28 13.16ZM17.788 12.4735L17.78 12.45L17.63 12.92H17.6304L17.77 12.53L17.788 12.4735Z" fill="#211E1F"/>
<path id="Path_17" d="M19.48 13.16C19.4881 13.203 19.4881 13.247 19.48 13.29C19.44 13.3392 19.3828 13.3714 19.32 13.38H19C18.9745 13.3829 18.9489 13.3747 18.9298 13.3575C18.9107 13.3403 18.8998 13.3157 18.9 13.29V12.38C18.9 12.29 18.9 12.29 19.02 12.29H19.07V12.23H18.5V12.29C18.56 12.29 18.62 12.29 18.62 12.38V13.29C18.62 13.4 18.56 13.4 18.5 13.4V13.47H19.5L19.56 13.17H19.5L19.48 13.16Z" fill="#211E1F"/>
<path id="Shape_8" fill-rule="evenodd" clip-rule="evenodd" d="M19.379 12.2362C19.4131 12.2003 19.4605 12.1799 19.51 12.18C19.5612 12.1771 19.6113 12.1961 19.6476 12.2324C19.6839 12.2687 19.7029 12.3188 19.7 12.37C19.7001 12.4195 19.6797 12.4669 19.6438 12.5009C19.6078 12.535 19.5594 12.5528 19.51 12.55C19.4106 12.55 19.33 12.4694 19.33 12.37C19.3272 12.3206 19.345 12.2722 19.379 12.2362ZM19.36 12.37C19.36 12.4528 19.4271 12.52 19.51 12.52C19.5928 12.52 19.66 12.4528 19.66 12.37C19.6602 12.2854 19.5944 12.2153 19.51 12.21C19.4256 12.2153 19.3598 12.2854 19.36 12.37Z" fill="#211E1F"/>
<path id="Shape_9" d="M19.53 12.37C19.53 12.37 19.53 12.32 19.47 12.32H19.37V12.46H19.46V12.4C19.46 12.4 19.51 12.48 19.53 12.48L19.48 12.43L19.53 12.37Z" fill="#211E1F"/>
<g id="mark">
<path id="Path_18" d="M12.68 8.79C14.4483 8.81889 15.9191 7.43667 16 5.67C15.987 4.8071 15.6282 3.98552 15.004 3.38955C14.3798 2.79358 13.5426 2.4731 12.68 2.5H11.2C10.3483 2.47229 9.52282 2.79635 8.91746 3.39603C8.31211 3.99571 7.98028 4.81813 7.99997 5.67C8.00786 6.50895 8.3501 7.3101 8.95082 7.8958C9.55154 8.4815 10.3611 8.80335 11.2 8.79H12.68Z" fill="#0779BE"/>
<path id="Shape_10" fill-rule="evenodd" clip-rule="evenodd" d="M11.21 2.76C9.61944 2.76 8.33002 4.04942 8.33002 5.64C8.33002 7.23058 9.61944 8.52 11.21 8.52C12.8006 8.52 14.09 7.23058 14.09 5.64C14.09 4.04942 12.8006 2.76 11.21 2.76ZM9.38002 5.64C9.38158 4.88309 9.85145 4.20616 10.56 3.94V7.34C9.85145 7.07384 9.38158 6.39691 9.38002 5.64ZM11.86 3.94V7.35C12.5544 7.06734 13.0062 6.38971 13 5.64C13.0077 4.89225 12.5547 4.21677 11.86 3.94Z" fill="white"/>
<path id="Path_19" d="M12.68 8.79C14.4483 8.81889 15.9191 7.43667 16 5.67C15.987 4.8071 15.6282 3.98552 15.004 3.38955C14.3798 2.79358 13.5426 2.4731 12.68 2.5H11.2C10.3483 2.47229 9.52282 2.79635 8.91746 3.39603C8.31211 3.99571 7.98028 4.81813 7.99997 5.67C8.00786 6.50895 8.3501 7.3101 8.95082 7.8958C9.55154 8.4815 10.3611 8.80335 11.2 8.79H12.68Z" fill="#0779BE"/>
<path id="Shape_11" fill-rule="evenodd" clip-rule="evenodd" d="M11.21 2.76C9.61944 2.76 8.33002 4.04942 8.33002 5.64C8.33002 7.23058 9.61944 8.52 11.21 8.52C12.8006 8.52 14.09 7.23058 14.09 5.64C14.09 4.04942 12.8006 2.76 11.21 2.76ZM9.38002 5.64C9.38158 4.88309 9.85145 4.20616 10.56 3.94V7.34C9.85145 7.07384 9.38158 6.39691 9.38002 5.64ZM11.86 3.94V7.35C12.5544 7.06734 13.0062 6.38971 13 5.64C13.0077 4.89225 12.5547 4.21677 11.86 3.94Z" fill="white"/>
</g>
</g>
</g>
</svg>
