<svg width="24" height="16" viewBox="0 0 24 16" fill="none" xmlns="http://www.w3.org/2000/svg">
<g id="jcb-color">
<rect id="card_bg" width="24" height="16" rx="2" fill="white"/>
<g id="jcb-logo">
<path id="Path" d="M16.05 9.29H17.2H17.35C17.5904 9.24114 17.7598 9.0251 17.75 8.78C17.7528 8.53506 17.5875 8.32007 17.35 8.26H16.05L16.05 9.29Z" fill="#40A648"/>
<path id="Path_2" d="M17.07 2C15.9654 2 15.07 2.89543 15.07 4V6.08H18.07C18.71 6.08 19.18 6.44 19.18 7.01C19.1694 7.50812 18.7681 7.9094 18.27 7.92V8C18.92 8 19.41 8.4 19.41 9C19.41 9.6 18.86 10 18.14 10H15.04V14H18C19.1045 14 20 13.1046 20 12V2H17.07Z" fill="#40A648"/>
<path id="Path_3" d="M17.61 7.15C17.6119 6.91216 17.4359 6.71036 17.2 6.68H16.05V7.68H17.2C17.4374 7.64501 17.6126 7.44 17.61 7.2V7.15Z" fill="#40A648"/>
<path id="Path_4" d="M6 2C4.89543 2 4 2.89543 4 4V8.93C4.53064 9.21145 5.11951 9.36551 5.72 9.38C5.99712 9.39945 6.26984 9.30274 6.47281 9.11305C6.67577 8.92337 6.79068 8.6578 6.79 8.38V6.07H8.52V8.38C8.52 9.29 8 10 6.06 10C5.38577 9.99638 4.71437 9.91245 4.06 9.75V14H6.94C7.47043 14 7.97914 13.7893 8.35421 13.4142C8.72929 13.0391 8.94 12.5304 8.94 12V2H6Z" fill="#0D67B0"/>
<path id="Path_5" d="M11.54 2C10.4354 2 9.53998 2.89543 9.53998 4V6.62C10.3673 6.07191 11.3688 5.85093 12.35 6C12.8795 6.03262 13.4049 6.11295 13.92 6.24V7.09C13.4505 6.8366 12.9322 6.68658 12.4 6.65C11.32 6.57 10.68 7.1 10.68 8.02C10.68 8.94 11.32 9.48 12.4 9.39C12.9314 9.34874 13.4487 9.19899 13.92 8.95V9.8C13.4053 9.92911 12.8797 10.0095 12.35 10.04C11.3663 10.1832 10.3646 9.95507 9.53998 9.4V14H12.48C13.5845 14 14.48 13.1046 14.48 12V2H11.54Z" fill="#BE2034"/>
</g>
</g>
</svg>
