<svg width="16" height="16" viewBox="0 0 16 16" fill="none" xmlns="http://www.w3.org/2000/svg">
<g clip-path="url(#clip0_23_20)">
<path d="M9.86046 1.41395L11.6837 3.23721L9.86046 5.06047C9.56279 5.35814 9.56279 5.80465 9.86046 6.10233C10.1581 6.4 10.6046 6.4 10.9023 6.10233L12.7256 4.27907L14.5488 6.10233C14.6977 6.25116 14.9209 6.25116 15.0698 6.10233C15.1442 6.02791 15.1814 5.95349 15.1814 5.87907L16 0.409302C16.0372 0.186047 15.8512 0 15.6651 0C15.6279 0 15.6279 0 15.5907 0L10.0465 0.781395C9.86046 0.818605 9.71163 1.00465 9.74884 1.1907C9.74884 1.30233 9.78604 1.37674 9.86046 1.41395Z" fill="white"/>
<path d="M15.2186 10.0465C15.1814 9.86046 14.9954 9.71163 14.8093 9.74884C14.7349 9.74884 14.6605 9.78604 14.5861 9.86046L12.7628 11.6837L10.9396 9.86046C10.6419 9.56279 10.1954 9.56279 9.89769 9.86046C9.60002 10.1581 9.60002 10.6046 9.89769 10.9023L11.7209 12.7256L9.89769 14.5488C9.74886 14.6977 9.74886 14.9209 9.89769 15.0698C9.97211 15.1442 10.0465 15.1814 10.121 15.1814L15.5907 16C15.7768 16.0372 16 15.8884 16 15.7023C16 15.6651 16 15.6279 16 15.5907L15.2186 10.0465Z" fill="white"/>
<path d="M6.17675 14.5861L4.35349 12.7628L6.17675 10.9396C6.47442 10.6419 6.47442 10.1954 6.17675 9.89769C5.87907 9.60002 5.43256 9.60002 5.13489 9.89769L3.31163 11.7209L1.48837 9.89769C1.33954 9.74886 1.11628 9.74886 0.967444 9.89769C0.893026 9.97211 0.855817 10.0465 0.855817 10.121L2.64684e-06 15.5907C-0.0372067 15.7768 0.111631 16 0.297677 16C0.372096 16 0.372096 16 0.409305 16L5.95349 15.2186C6.13954 15.1814 6.28837 14.9954 6.25117 14.8093C6.25117 14.6977 6.21396 14.6233 6.17675 14.5861Z" fill="white"/>
<path d="M5.09767 6.17677C5.39535 6.47444 5.84186 6.47444 6.13953 6.17677C6.43721 5.87909 6.43721 5.43258 6.13953 5.13491L4.31628 3.31165L6.13953 1.48839C6.28837 1.33956 6.28837 1.1163 6.13953 0.967464C6.06512 0.893045 5.9907 0.855836 5.91628 0.855836L0.409302 2.21019e-05C0.223256 -0.0371872 0.0372093 0.11165 0 0.334906C0 0.372115 0 0.372115 0 0.409324L0.781395 5.95351C0.818605 6.13956 1.00465 6.28839 1.1907 6.25118C1.26512 6.25118 1.33953 6.21398 1.41395 6.13956L3.23721 4.3163L5.09767 6.17677Z" fill="white"/>
</g>
<defs>
<clipPath id="clip0_23_20">
<rect width="16" height="16" fill="white"/>
</clipPath>
</defs>
</svg>
