<svg width="16" height="16" viewBox="0 0 16 16" fill="none" xmlns="http://www.w3.org/2000/svg">
<g clip-path="url(#clip0_23_15)">
<path d="M15.7799 4.88073L13.945 3.08257L15.7799 1.24771C16.0734 0.954129 16.0734 0.513762 15.7799 0.220184C15.4863 -0.0733945 15.0459 -0.0733945 14.7523 0.220184L12.9542 2.01835L11.156 0.220184C11.0092 0.0733945 10.789 0.0733945 10.6422 0.220184C10.5689 0.293578 10.5322 0.366973 10.5322 0.440367L9.72482 5.87156C9.68812 6.09174 9.8716 6.27523 10.0551 6.27523C10.0918 6.27523 10.0918 6.27523 10.1285 6.27523L15.5597 5.50459C15.7432 5.46789 15.89 5.2844 15.8533 5.10092C15.8533 5.02752 15.8166 4.95413 15.7799 4.88073Z" fill="white"/>
<path d="M10.4955 15.5596C10.5321 15.7431 10.7156 15.8899 10.8991 15.8532C10.9725 15.8532 11.0459 15.8165 11.1193 15.7431L12.9175 13.945L14.7156 15.7431C15.0092 16.0367 15.4496 16.0367 15.7432 15.7431C16.0367 15.4495 16.0367 15.0092 15.7432 14.7156L13.945 12.9174L15.7432 11.1193C15.8899 10.9725 15.8899 10.7523 15.7432 10.6055C15.6698 10.5321 15.5964 10.4954 15.523 10.4954L10.0918 9.72478C9.90829 9.68808 9.68811 9.83487 9.68811 10.0184C9.68811 10.0551 9.68811 10.0917 9.68811 10.1284L10.4955 15.5596Z" fill="white"/>
<path d="M0.220184 11.1192L2.01835 12.9174L0.220184 14.7156C-0.0733945 15.0091 -0.0733945 15.4495 0.220184 15.7431C0.513762 16.0367 0.954129 16.0367 1.24771 15.7431L3.04587 13.9449L4.84404 15.7431C4.99083 15.8899 5.21101 15.8899 5.3578 15.7431C5.43119 15.6697 5.46789 15.5963 5.46789 15.5229L6.23853 10.0917C6.27523 9.90823 6.12844 9.68805 5.94495 9.68805C5.90826 9.68805 5.87156 9.68805 5.83486 9.68805L0.440367 10.4954C0.256881 10.5321 0.110092 10.7156 0.146789 10.8991C0.110092 10.9725 0.146789 11.0458 0.220184 11.1192Z" fill="white"/>
<path d="M1.24771 0.220184C0.954129 -0.0733945 0.513762 -0.0733945 0.220184 0.220184C-0.0733945 0.513762 -0.0733945 0.954129 0.220184 1.24771L2.01835 3.04587L0.220184 4.84404C0.0733945 4.99083 0.0733945 5.21101 0.220184 5.3578C0.256881 5.46789 0.330275 5.50459 0.440367 5.50459L5.87156 6.27523C6.05505 6.31193 6.27523 6.16514 6.27523 5.98165C6.27523 5.94495 6.27523 5.90826 6.27523 5.87156L5.50459 0.440367C5.46789 0.256881 5.2844 0.110092 5.10092 0.146789C5.02752 0.146789 4.95413 0.183486 4.88073 0.256881L3.08257 2.01835L1.24771 0.220184Z" fill="white"/>
</g>
<defs>
<clipPath id="clip0_23_15">
<rect width="16" height="16" fill="white"/>
</clipPath>
</defs>
</svg>
