<?xml version="1.0" encoding="utf-8"?>
<!-- Generator: Adobe Illustrator 26.3.1, SVG Export Plug-In . SVG Version: 6.00 Build 0)  -->
<svg version="1.1" id="Layer_1" xmlns="http://www.w3.org/2000/svg" xmlns:xlink="http://www.w3.org/1999/xlink" x="0px" y="0px"
	 viewBox="0 0 178.83 59.34" style="enable-background:new 0 0 178.83 59.34;" xml:space="preserve">
<style type="text/css">
	.st0{fill:#1A1F71;}
	.st1{fill:#FF5F00;}
	.st2{fill:#EB001B;}
	.st3{fill:#F79E1B;}
</style>
<g id="Figurehead">
	<g id="card-schemes" transform="translate(-87.000000, -72.000000)">
		<g id="visa" transform="translate(75.000000, 50.000000)">
			<g id="g4155-Clipped" transform="translate(12.000000, 21.000000)">
				<g transform="translate(41.000000, 14.345679) scale(1, -1) translate(-41.000000, -14.345679) translate(0.000000, 0.345679)">
					<g id="g4155">
						<g id="g4161" transform="translate(0.054676, 0.096245)">
							<path id="path4163" class="st0" d="M41.84,10.21l-5.36-25.74H30l5.36,25.74H41.84L41.84,10.21z M69.11-6.41l3.41,9.67
								l1.96-9.67H69.11L69.11-6.41z M76.34-15.53h5.99L77.1,10.21h-5.53c-1.25,0-2.3-0.74-2.76-1.89l-9.73-23.85h6.81l1.35,3.84
								h8.31L76.34-15.53L76.34-15.53z M59.42-7.12c0.03,6.79-9.14,7.17-9.08,10.2c0.02,0.92,0.88,1.9,2.75,2.16
								c0.93,0.12,3.49,0.22,6.39-1.15l1.14,5.46c-1.56,0.58-3.57,1.14-6.06,1.14c-6.41,0-10.91-3.5-10.95-8.51
								c-0.04-3.71,3.22-5.77,5.67-7.01c2.53-1.26,3.38-2.07,3.36-3.2c-0.02-1.73-2.02-2.49-3.88-2.52
								c-3.26-0.05-5.15,0.91-6.66,1.63l-1.18-5.64c1.52-0.71,4.31-1.33,7.21-1.37C54.95-15.93,59.4-12.47,59.42-7.12L59.42-7.12z
								 M32.58,10.21l-10.5-25.74h-6.85L10.06,5.02C9.75,6.28,9.47,6.74,8.52,7.28C6.96,8.15,4.39,8.96,2.13,9.47l0.15,0.75h11.03
								c1.4,0,2.67-0.96,2.99-2.62l2.73-14.9l6.74,17.52H32.58L32.58,10.21z"/>
						</g>
					</g>
				</g>
			</g>
		</g>
	</g>
</g>
<g id="Figurehead_00000139974291212104413320000017642789537026225593_">
	<g id="card-schemes_00000021835764175051591950000003989805719867434117_" transform="translate(-94.000000, -152.000000)">
		<g id="mastercard" transform="translate(75.000000, 145.000000)">
			<g id="Group" transform="translate(19.000000, 7.000000)">
				<path id="XMLID_1775_" d="M119.22,57.26v-3.65c0-1.4-0.85-2.31-2.32-2.31c-0.73,0-1.53,0.24-2.07,1.03
					c-0.43-0.67-1.04-1.03-1.95-1.03c-0.61,0-1.22,0.18-1.71,0.85v-0.73h-1.28v5.84h1.28v-3.23c0-1.03,0.55-1.52,1.4-1.52
					s1.28,0.55,1.28,1.52v3.23h1.28v-3.23c0-1.03,0.61-1.52,1.4-1.52c0.85,0,1.28,0.55,1.28,1.52v3.23H119.22z M138.2,51.42h-2.07
					v-1.77h-1.28v1.77h-1.16v1.16h1.16v2.68c0,1.34,0.55,2.13,2.01,2.13c0.55,0,1.16-0.18,1.59-0.43l-0.37-1.1
					c-0.37,0.24-0.79,0.3-1.1,0.3c-0.61,0-0.85-0.37-0.85-0.97v-2.62h2.07V51.42z M149.06,51.3c-0.73,0-1.22,0.37-1.53,0.85v-0.73
					h-1.28v5.84h1.28v-3.29c0-0.97,0.43-1.52,1.22-1.52c0.24,0,0.55,0.06,0.79,0.12l0.37-1.22C149.67,51.3,149.31,51.3,149.06,51.3
					L149.06,51.3z M132.65,51.91c-0.61-0.43-1.46-0.61-2.38-0.61c-1.46,0-2.44,0.73-2.44,1.89c0,0.97,0.73,1.52,2.01,1.7l0.61,0.06
					c0.67,0.12,1.04,0.3,1.04,0.61c0,0.43-0.49,0.73-1.34,0.73s-1.53-0.3-1.95-0.61l-0.61,0.97c0.67,0.49,1.59,0.73,2.5,0.73
					c1.71,0,2.68-0.79,2.68-1.89c0-1.03-0.79-1.58-2.01-1.77l-0.61-0.06c-0.55-0.06-0.98-0.18-0.98-0.55c0-0.43,0.43-0.67,1.1-0.67
					c0.73,0,1.46,0.3,1.83,0.49L132.65,51.91z M166.7,51.3c-0.73,0-1.22,0.37-1.53,0.85v-0.73h-1.28v5.84h1.28v-3.29
					c0-0.97,0.43-1.52,1.22-1.52c0.24,0,0.55,0.06,0.79,0.12l0.37-1.22C167.31,51.3,166.94,51.3,166.7,51.3L166.7,51.3z
					 M150.34,54.34c0,1.77,1.22,3.04,3.11,3.04c0.85,0,1.46-0.18,2.07-0.67l-0.61-1.03c-0.49,0.37-0.98,0.55-1.53,0.55
					c-1.04,0-1.77-0.73-1.77-1.89c0-1.1,0.73-1.83,1.77-1.89c0.55,0,1.04,0.18,1.53,0.55l0.61-1.03c-0.61-0.49-1.22-0.67-2.07-0.67
					C151.56,51.3,150.34,52.58,150.34,54.34L150.34,54.34z M162.18,54.34v-2.92h-1.28v0.73c-0.43-0.55-1.04-0.85-1.83-0.85
					c-1.65,0-2.93,1.28-2.93,3.04s1.28,3.04,2.93,3.04c0.85,0,1.46-0.3,1.83-0.85v0.73h1.28V54.34z M157.48,54.34
					c0-1.03,0.67-1.89,1.77-1.89c1.04,0,1.77,0.79,1.77,1.89c0,1.03-0.73,1.89-1.77,1.89C158.15,56.17,157.48,55.38,157.48,54.34
					L157.48,54.34z M142.17,51.3c-1.71,0-2.93,1.22-2.93,3.04c0,1.83,1.22,3.04,2.99,3.04c0.85,0,1.71-0.24,2.38-0.79L144,55.68
					c-0.49,0.37-1.1,0.61-1.71,0.61c-0.79,0-1.59-0.37-1.77-1.4h4.33c0-0.18,0-0.3,0-0.49C144.91,52.52,143.81,51.3,142.17,51.3
					L142.17,51.3z M142.17,52.39c0.79,0,1.34,0.49,1.46,1.4h-3.05C140.7,53,141.25,52.39,142.17,52.39L142.17,52.39z M173.96,54.34
					v-5.23h-1.28v3.04c-0.43-0.55-1.04-0.85-1.83-0.85c-1.65,0-2.93,1.28-2.93,3.04s1.28,3.04,2.93,3.04c0.85,0,1.46-0.3,1.83-0.85
					v0.73h1.28V54.34z M169.26,54.34c0-1.03,0.67-1.89,1.77-1.89c1.04,0,1.77,0.79,1.77,1.89c0,1.03-0.73,1.89-1.77,1.89
					C169.93,56.17,169.26,55.38,169.26,54.34L169.26,54.34z M126.42,54.34v-2.92h-1.28v0.73c-0.43-0.55-1.04-0.85-1.83-0.85
					c-1.65,0-2.93,1.28-2.93,3.04s1.28,3.04,2.93,3.04c0.85,0,1.46-0.3,1.83-0.85v0.73h1.28V54.34z M121.66,54.34
					c0-1.03,0.67-1.89,1.77-1.89c1.04,0,1.77,0.79,1.77,1.89c0,1.03-0.73,1.89-1.77,1.89C122.34,56.17,121.66,55.38,121.66,54.34z"
					/>
				<g id="XMLID_328_">
					<rect id="Rectangle-path" x="132.22" y="7.05" class="st1" width="19.22" height="34.45"/>
					<path id="XMLID_330_" class="st2" d="M133.44,24.27c0-7,3.29-13.21,8.36-17.23c-3.72-2.92-8.42-4.69-13.55-4.69
						c-12.14,0-21.97,9.8-21.97,21.91s9.82,21.91,21.97,21.91c5.13,0,9.82-1.77,13.55-4.69C136.74,37.54,133.44,31.27,133.44,24.27z
						"/>
					<path id="Shape" class="st3" d="M177.37,24.27c0,12.11-9.82,21.91-21.97,21.91c-5.13,0-9.82-1.77-13.55-4.69
						c5.13-4.02,8.36-10.23,8.36-17.23s-3.29-13.21-8.36-17.23c3.72-2.92,8.42-4.69,13.55-4.69
						C167.55,2.36,177.37,12.22,177.37,24.27z"/>
				</g>
			</g>
		</g>
	</g>
</g>
</svg>
