<?xml version="1.0" encoding="utf-8"?>
<!-- Generator: Adobe Illustrator 26.3.1, SVG Export Plug-In . SVG Version: 6.00 Build 0)  -->
<svg version="1.1" id="Layer_1" xmlns="http://www.w3.org/2000/svg" xmlns:xlink="http://www.w3.org/1999/xlink" x="0px" y="0px"
	 viewBox="0 0 276.9 190.7" style="enable-background:new 0 0 276.9 190.7;" xml:space="preserve">
<style type="text/css">
	.st0{fill:#003FFF;}
</style>
<g>
	<g>
		<path class="st0" d="M12.6,173.4H4.4v-57.9h8.2V173.4z"/>
		<path class="st0" d="M32.7,123.9h-8.9v-8.3h8.9V123.9z M32.3,173.4h-8.2v-41.6h8.2V173.4z"/>
		<path class="st0" d="M72.9,173.4H40v-7.1l21.9-27H40.5v-7.4h32v7l-21.9,27h22.3V173.4z"/>
		<path class="st0" d="M89.3,123.9h-8.9v-8.3h8.9V123.9z M88.8,173.4h-8.2v-41.6h8.2V173.4z"/>
		<path class="st0" d="M99.9,173.4v-41.6h7l0.8,4.3h0.4c1-1.3,2.6-2.5,4.8-3.6c2.2-1,4.6-1.6,7.4-1.6c3.2,0,6.1,0.7,8.6,2.2
			c2.5,1.5,4.5,3.5,5.9,6.2s2.1,5.7,2.1,9.1v25h-8.2V149c0-3-1-5.5-2.9-7.4c-1.9-2-4.3-3-7.2-3c-1.9,0-3.7,0.5-5.3,1.4
			c-1.6,0.9-2.9,2.2-3.8,3.8c-0.9,1.6-1.4,3.3-1.4,5.2v24.3H99.9z"/>
		<path class="st0" d="M155.9,188.5c-2.8-1.5-5-3.4-6.5-5.6s-2.3-4.5-2.4-6.8h8.3c0.2,1.9,1.3,3.6,3.1,5.1c1.9,1.5,4.5,2.2,7.8,2.2
			c3.4,0,6.1-1,8.2-2.9c2-1.9,3.1-4.5,3.1-7.7v-6.6H177c-1.4,1.6-3.2,2.9-5.4,3.8c-2.2,0.9-4.5,1.4-7.1,1.4c-3.6,0-6.8-0.9-9.7-2.6
			c-2.9-1.7-5.2-4.1-6.8-7.2c-1.7-3.1-2.5-6.6-2.5-10.5c0-3.9,0.8-7.4,2.5-10.5c1.7-3.1,3.9-5.4,6.8-7.2c2.9-1.7,6.1-2.6,9.7-2.6
			c2.6,0,5.1,0.5,7.3,1.6c2.2,1,4,2.5,5.4,4.2h0.4l0.8-5h7.1v41.1c0,3.5-0.8,6.6-2.3,9.3c-1.5,2.7-3.8,4.8-6.7,6.3
			c-3,1.5-6.4,2.2-10.4,2.2C162.2,190.7,158.7,190,155.9,188.5z M171.6,162.3c1.8-1.1,3.2-2.6,4.3-4.5c1-2,1.6-4.2,1.6-6.7
			s-0.5-4.7-1.6-6.6c-1-1.9-2.5-3.4-4.3-4.5c-1.8-1.1-3.8-1.6-6-1.6c-3.4,0-6.2,1.2-8.5,3.6c-2.2,2.4-3.4,5.4-3.4,9.2
			c0,3.8,1.1,6.9,3.4,9.3c2.2,2.4,5.1,3.6,8.5,3.6C167.8,163.9,169.8,163.4,171.6,162.3z"/>
		<path class="st0" d="M201.8,172.5c-2.3-1.1-4-2.7-5.2-4.6c-1.2-2-1.8-4.1-1.8-6.6c0-4.1,1.4-7.3,4.2-9.8c2.8-2.4,7-3.6,12.6-3.6
			h10.6v-1.1c0-2.7-0.8-4.9-2.4-6.5c-1.6-1.6-3.7-2.4-6.4-2.4c-2.6,0-4.7,0.6-6.3,1.8c-1.6,1.2-2.5,2.6-2.8,4.3h-8
			c0.2-2.3,0.9-4.4,2.3-6.4c1.4-2,3.3-3.6,5.9-4.8c2.5-1.2,5.5-1.8,8.9-1.8c5.2,0,9.3,1.4,12.4,4.3c3.1,2.9,4.6,6.7,4.6,11.6v26.6
			h-7.1l-0.8-4.5H222c-0.9,1.4-2.5,2.6-4.7,3.7c-2.2,1.1-4.8,1.7-7.7,1.7C206.7,174.2,204.1,173.6,201.8,172.5z M219,164.1
			c2.1-2,3.1-4.8,3.1-8.2v-1.5h-10c-3.1,0-5.4,0.6-6.9,1.8c-1.5,1.2-2.3,2.8-2.3,4.7c0,1.9,0.6,3.4,1.9,4.5c1.3,1.1,3.1,1.7,5.5,1.7
			C214.1,167.1,216.9,166.1,219,164.1z"/>
		<path class="st0" d="M246,172.2c-2.6-1.3-4.6-3-5.9-5c-1.3-2-2-4.1-2-6.2h8.1c0,1.7,0.8,3.2,2.4,4.4c1.6,1.2,3.9,1.8,6.8,1.8
			c2.9,0,5.1-0.5,6.7-1.5c1.5-1,2.3-2.3,2.3-3.8c0-1.5-0.5-2.7-1.5-3.6c-1-0.9-2.6-1.5-4.9-1.9l-6.8-1.2
			c-8.3-1.4-12.5-5.4-12.5-11.9c0-3.6,1.4-6.5,4.2-8.9c2.8-2.3,6.8-3.5,12.1-3.5c3.5,0,6.5,0.6,9.1,1.9c2.6,1.3,4.5,2.9,5.9,4.9
			c1.4,2,2,4.1,2,6.3h-8c0-1.7-0.8-3.2-2.4-4.3c-1.6-1.2-3.8-1.8-6.5-1.8c-2.6,0-4.7,0.5-6.1,1.6c-1.4,1-2.1,2.3-2.1,3.9
			c0,1.3,0.5,2.3,1.4,3.1c1,0.8,2.5,1.4,4.7,1.8l6.9,1.2c4.3,0.7,7.5,2.1,9.6,4.1c2.1,2,3.1,4.8,3.1,8.2c0,3.6-1.5,6.5-4.4,8.9
			c-3,2.3-7.2,3.5-12.6,3.5C251.7,174.2,248.6,173.5,246,172.2z"/>
	</g>
	<g id="ESTO_NEW-LOGO_00000132801791136608668150000005655432013114125454_">
		<g id="UP_2-Copy-2_00000137839537081830366250000005767277880108511920_" transform="translate(-287.000000, -522.000000)">
			<g id="BLACK_00000086672427200730681050000003570861621192470192_">
				<path d="M525.7,540.3c10.2,0,19.7,4,27,11.4c7.2,7.5,11.2,17.3,11.2,27.9c0,10.6-3.9,20.6-11.2,28.1c-7.3,7.5-16.7,11.4-27,11.4
					c-10.2,0-19.5-4-26.8-11.4c-7.4-7.6-11.3-17.5-11.3-28.1c0-10.6,3.9-20.3,11.3-27.9C506.2,544.3,515.5,540.3,525.7,540.3z
					 M525.7,554.7c-6.3,0-11.9,2.7-16.1,7.2c-4.1,4.5-6.6,10.6-6.6,17.6c0,7,2.5,13.2,6.6,17.7c4.1,4.5,9.8,7.3,16,7.3
					c6.2,0,11.9-2.8,16-7.3c4.1-4.5,6.6-10.7,6.6-17.7c0-7-2.5-13.2-6.6-17.6C537.7,557.4,532,554.7,525.7,554.7z M324,540.2
					c6.4,0,12.2,1.4,17.2,4.2c5.1,2.8,9.1,6.7,12.1,11.7c3,5,4.5,10.7,4.5,17.2c0,1.1-0.1,4.9-0.2,11.3l0,0.4l-54.5,0
					c1.2,5.7,3.6,9.8,7.5,12.9c4.1,3.2,9.6,4.9,16.6,5.2l0.6,0l1.7,0h24.2v14.6h-24.3c-13.3,0-23.6-3.5-31-10.4
					c-7.5-6.9-11.3-15.7-11.3-29c0-6.7,1.5-12.9,4.6-18.7c3.1-5.8,7.3-10.5,12.8-14.1C309.9,542.1,316.5,540.2,324,540.2z
					 M324.7,555.3c-6,0-10.9,1.6-15.5,5.6c-2.8,2.7-4.6,6.1-5.7,10.6l0,0l40.1-0.3l0-0.5l0-0.4c-0.2-2.3-1-4.5-2.2-6.5
					c-1.5-2.6-3.7-4.6-6.5-6.2C332.1,556.1,328.7,555.3,324.7,555.3z M420.5,541.7v14.2h-31.7c-2.3,0-4.1,0.5-5.3,1.5
					c-1.2,0.9-1.8,2.3-1.8,4c0,1.3,0.5,2.4,1.5,3.4c1.2,1.2,3.1,2.3,5.7,3.4l0,0l13.6,5.6c7.4,3.1,13.1,5.9,16.7,9.7
					c3.2,3.4,4.9,7.5,4.9,13.2c0,7.2-2.6,12.5-7.8,16c-5.1,3.4-12.9,5.2-23.4,5.2l0,0l-0.6,0h-24.7v-14.5h31.7c3,0,5.4-0.6,7.1-1.7
					c1.5-1.1,2.4-2.6,2.4-4.5c0-1.7-0.6-3-1.8-4.1c-1.5-1.4-3.9-2.6-7.1-4l0,0l-13-5.3c-7.1-2.9-12.2-5.7-15.5-9.3
					c-3.1-3.4-4.6-7.5-4.6-12.9c0-6.2,2.3-11.2,6.6-14.5c4.2-3.2,10.4-5.1,18.5-5.1l0,0l0.5,0H420.5z M435,522h15v19.7h29.2v14.4
					H450V587c0,5.6,1.2,9.7,4,12.4c2.8,2.7,7,3.9,12.9,4l0,0l12.3,0v14.5h-12.1c-10.6,0-18.5-2.4-23.9-7c-5.4-4.7-8.2-11.6-8.3-21
					l0,0l0-0.6V522z"/>
			</g>
		</g>
	</g>
</g>
</svg>
