<?xml version="1.0" encoding="utf-8"?>
<!-- Generator: Adobe Illustrator 26.3.1, SVG Export Plug-In . SVG Version: 6.00 Build 0)  -->
<svg version="1.1" id="Layer_1" xmlns="http://www.w3.org/2000/svg" xmlns:xlink="http://www.w3.org/1999/xlink" x="0px" y="0px"
	 viewBox="0 0 366.4 140.9" style="enable-background:new 0 0 366.4 140.9;" xml:space="preserve">
<style type="text/css">
	.st0{fill:#3A3A3A;}
	.st1{fill:#A482A7;}
	.st2{fill:#F5F5F5;}
	.st3{fill:#003FFF;}
	.st4{fill:#122A72;}
	.st5{fill:#E6E7E8;}
	.st6{fill:#FFFFFF;}
	.st7{fill:#9CA1A1;}
	.st8{fill:#4A5059;}
	.st9{fill:none;stroke:#3A3A3A;stroke-miterlimit:10;}
	.st10{fill:none;stroke:#000000;stroke-width:2;stroke-miterlimit:10;}
	.st11{fill:#FF0000;}
	.st12{opacity:0.34;}
	.st13{fill:#3056ED;}
	.st14{fill:#F9FAFF;}
</style>
<g>
	<g>
		<path d="M6.5,140.6H2.7v-24.9H9l6.8,19.8h0.7l6.8-19.8h6.3v24.9h-3.7v-19.3h-0.7l-6.7,19.3h-4.6l-6.7-19.3H6.5V140.6z"/>
		<path d="M37,140.2c-1-0.5-1.7-1.2-2.2-2c-0.5-0.8-0.8-1.8-0.8-2.8c0-1.8,0.6-3.2,1.8-4.2c1.2-1,3-1.6,5.4-1.6h4.6v-0.5
			c0-1.2-0.3-2.1-1-2.8c-0.7-0.7-1.6-1-2.8-1c-1.1,0-2,0.3-2.7,0.8c-0.7,0.5-1.1,1.1-1.2,1.8h-3.5c0.1-1,0.4-1.9,1-2.8
			s1.4-1.6,2.5-2.1c1.1-0.5,2.4-0.8,3.8-0.8c2.2,0,4,0.6,5.3,1.9c1.3,1.2,2,2.9,2,5v11.4h-3.1l-0.4-2h-0.2c-0.4,0.6-1.1,1.1-2,1.6
			c-1,0.5-2.1,0.7-3.3,0.7C39.1,140.9,38,140.7,37,140.2z M44.4,136.6c0.9-0.9,1.4-2,1.4-3.5v-0.6h-4.3c-1.3,0-2.3,0.3-3,0.8
			c-0.7,0.5-1,1.2-1,2c0,0.8,0.3,1.5,0.8,1.9c0.6,0.5,1.3,0.7,2.4,0.7C42.3,137.9,43.5,137.5,44.4,136.6z"/>
		<path d="M57.7,140.6h-3.5v-24.9h3.5v15.2l7.4-8.2h4.3l-8,8.8l8.4,9.2h-4.3l-7.7-8.5V140.6z"/>
		<path d="M73.9,140.1c-1.1-0.6-2-1.3-2.5-2.2c-0.6-0.9-0.9-1.8-0.9-2.7H74c0,0.7,0.3,1.4,1.1,1.9c0.7,0.5,1.7,0.8,2.9,0.8
			c1.3,0,2.2-0.2,2.9-0.7c0.7-0.4,1-1,1-1.7c0-0.6-0.2-1.2-0.6-1.5c-0.4-0.4-1.1-0.7-2.1-0.8l-2.9-0.5c-3.6-0.6-5.4-2.3-5.4-5.1
			c0-1.5,0.6-2.8,1.8-3.8c1.2-1,2.9-1.5,5.2-1.5c1.5,0,2.8,0.3,3.9,0.8c1.1,0.5,1.9,1.2,2.5,2.1c0.6,0.9,0.9,1.8,0.9,2.7h-3.5
			c0-0.7-0.4-1.4-1.1-1.9c-0.7-0.5-1.6-0.8-2.8-0.8c-1.1,0-2,0.2-2.6,0.7c-0.6,0.5-0.9,1-0.9,1.7c0,0.5,0.2,1,0.6,1.4
			c0.4,0.4,1.1,0.6,2,0.8l3,0.5c1.9,0.3,3.2,0.9,4.1,1.8c0.9,0.9,1.3,2.1,1.3,3.5c0,1.5-0.6,2.8-1.9,3.8c-1.3,1-3.1,1.5-5.4,1.5
			C76.4,140.9,75,140.7,73.9,140.1z"/>
		<path d="M91.1,140.2c-1-0.5-1.7-1.2-2.2-2c-0.5-0.8-0.8-1.8-0.8-2.8c0-1.8,0.6-3.2,1.8-4.2c1.2-1,3-1.6,5.4-1.6h4.6v-0.5
			c0-1.2-0.3-2.1-1-2.8c-0.7-0.7-1.6-1-2.8-1c-1.1,0-2,0.3-2.7,0.8c-0.7,0.5-1.1,1.1-1.2,1.8h-3.5c0.1-1,0.4-1.9,1-2.8
			s1.4-1.6,2.5-2.1c1.1-0.5,2.4-0.8,3.8-0.8c2.2,0,4,0.6,5.3,1.9c1.3,1.2,2,2.9,2,5v11.4h-3.1l-0.4-2h-0.2c-0.4,0.6-1.1,1.1-2,1.6
			s-2.1,0.7-3.3,0.7C93.2,140.9,92.1,140.7,91.1,140.2z M98.5,136.6c0.9-0.9,1.4-2,1.4-3.5v-0.6h-4.3c-1.3,0-2.3,0.3-3,0.8
			c-0.7,0.5-1,1.2-1,2c0,0.8,0.3,1.5,0.8,1.9c0.6,0.5,1.3,0.7,2.4,0.7C96.4,137.9,97.6,137.5,98.5,136.6z"/>
		<path d="M119.6,140c-1.3-0.7-2.3-1.5-3-2.7c-0.7-1.1-1-2.4-1-3.7h3.7c0,1.1,0.4,2,1.3,2.7s2,1.1,3.5,1.1c1.4,0,2.5-0.4,3.4-1.1
			c0.9-0.7,1.3-1.7,1.3-2.8c0-1.2-0.4-2.2-1.3-2.9c-0.9-0.8-2-1.1-3.5-1.1h-1.6v-3.3h1.6c1.4,0,2.5-0.4,3.2-1.1
			c0.8-0.7,1.2-1.6,1.2-2.7c0-1-0.4-1.8-1.2-2.5c-0.8-0.7-1.9-1.1-3.2-1.1c-1.3,0-2.3,0.4-3.2,1.1c-0.8,0.7-1.3,1.6-1.3,2.5h-3.7
			c0-1.3,0.3-2.5,1.1-3.5c0.7-1.1,1.7-1.9,2.9-2.6s2.7-1,4.3-1c1.6,0,3,0.3,4.2,0.9c1.2,0.6,2.2,1.5,2.8,2.5s1,2.3,1,3.6
			c0,1.4-0.4,2.5-1.2,3.5c-0.8,1-1.6,1.6-2.5,1.9v0.2c1,0.3,2,1,2.8,2c0.8,1,1.3,2.3,1.3,3.7c0,1.3-0.4,2.5-1.1,3.6s-1.7,2-3,2.6
			c-1.3,0.7-2.7,1-4.4,1C122.4,140.9,120.9,140.6,119.6,140z"/>
		<path d="M154,140.6h-5.2l-6.3-17.9h3.7l4.8,13.9h0.7l4.8-13.9h3.7L154,140.6z"/>
		<path d="M165.9,139.7c-1.4-0.8-2.4-1.9-3.2-3.3c-0.8-1.4-1.2-3-1.2-4.8c0-1.8,0.4-3.4,1.2-4.8c0.8-1.4,1.8-2.5,3.2-3.3
			c1.4-0.8,2.9-1.2,4.5-1.2s3.2,0.4,4.5,1.2c1.3,0.8,2.4,1.9,3.2,3.3c0.8,1.4,1.2,3,1.2,4.8c0,1.8-0.4,3.4-1.2,4.8
			c-0.8,1.4-1.8,2.5-3.2,3.3c-1.3,0.8-2.8,1.2-4.5,1.2S167.3,140.5,165.9,139.7z M164.7,119.4c0-1.2,0.4-2.2,1.1-2.9
			c0.7-0.7,1.6-1.1,2.6-1.1c0.4,0,0.8,0.1,1.2,0.2c0.4,0.2,0.7,0.4,1.2,0.7c0.1,0,0.2,0.1,0.4,0.2c0.2,0.1,0.4,0.2,0.6,0.3
			c0.2,0.1,0.4,0.1,0.5,0.1c0.4,0,0.7-0.1,0.9-0.4c0.3-0.3,0.4-0.6,0.4-1.1h2.5c0,1.2-0.3,2.2-1.1,2.9c-0.7,0.7-1.6,1.1-2.6,1.1
			c-0.4,0-0.8-0.1-1.1-0.2s-0.7-0.4-1.3-0.6c-0.4-0.2-0.7-0.4-0.9-0.5c-0.2-0.1-0.5-0.2-0.7-0.2c-0.4,0-0.7,0.1-0.9,0.4
			c-0.3,0.3-0.4,0.6-0.4,1.1H164.7z M173.1,136.9c0.8-0.5,1.5-1.2,1.9-2.1c0.5-0.9,0.7-2,0.7-3.2c0-1.2-0.2-2.2-0.7-3.2
			c-0.5-0.9-1.1-1.6-1.9-2.1c-0.8-0.5-1.7-0.7-2.7-0.7s-1.9,0.2-2.7,0.7c-0.8,0.5-1.5,1.2-1.9,2.1c-0.5,0.9-0.7,2-0.7,3.2
			c0,1.2,0.2,2.2,0.7,3.2c0.5,0.9,1.1,1.6,1.9,2.1c0.8,0.5,1.7,0.7,2.7,0.7S172.3,137.4,173.1,136.9z"/>
		<path d="M183.1,140.6v-17.9h3l0.4,1.7h0.2c0.4-0.5,0.8-1,1.3-1.2c0.5-0.3,1.2-0.4,2-0.4h3.1v3.3h-2.8c-1.2,0-2.1,0.3-2.7,1
			c-0.6,0.6-1,1.6-1,2.7v10.9H183.1z"/>
		<path d="M198.6,139.8c-1.3-0.8-2.3-1.9-3-3.3s-1.1-3-1.1-4.8c0-1.8,0.4-3.4,1.1-4.8c0.7-1.4,1.7-2.5,3-3.3
			c1.3-0.8,2.7-1.2,4.2-1.2c2.3,0,4.1,0.9,5.4,2.6h0.2v-9.2h3.5v24.9h-3l-0.4-2.3h-0.2c-1.4,1.8-3.2,2.6-5.6,2.6
			C201.3,140.9,199.9,140.5,198.6,139.8z M205.8,136.9c0.8-0.5,1.4-1.2,1.9-2.1s0.7-2,0.7-3.2c0-1.2-0.2-2.2-0.7-3.2
			c-0.5-0.9-1.1-1.6-1.9-2.1c-0.8-0.5-1.7-0.7-2.6-0.7c-0.9,0-1.8,0.2-2.6,0.7s-1.4,1.2-1.9,2.1c-0.5,0.9-0.7,2-0.7,3.2
			c0,1.2,0.2,2.3,0.7,3.2c0.5,0.9,1.1,1.6,1.9,2.1s1.7,0.7,2.6,0.7C204.2,137.7,205,137.4,205.8,136.9z"/>
		<path d="M218.9,140.1c-1.1-0.6-2-1.3-2.5-2.2c-0.6-0.9-0.9-1.8-0.9-2.7h3.5c0,0.7,0.4,1.4,1,1.9c0.7,0.5,1.7,0.8,2.9,0.8
			c1.3,0,2.2-0.2,2.9-0.7c0.7-0.4,1-1,1-1.7c0-0.6-0.2-1.2-0.6-1.5c-0.4-0.4-1.1-0.7-2.1-0.8l-2.9-0.5c-3.6-0.6-5.4-2.3-5.4-5.1
			c0-1.5,0.6-2.8,1.8-3.8c1.2-1,2.9-1.5,5.2-1.5c1.5,0,2.8,0.3,3.9,0.8c1.1,0.5,1.9,1.2,2.5,2.1s0.9,1.8,0.9,2.7h-3.5
			c0-0.7-0.4-1.4-1.1-1.9c-0.7-0.5-1.6-0.8-2.8-0.8c-1.1,0-2,0.2-2.6,0.7c-0.6,0.5-0.9,1-0.9,1.7c0,0.5,0.2,1,0.6,1.4
			c0.4,0.4,1.1,0.6,2,0.8l3,0.5c1.9,0.3,3.2,0.9,4.1,1.8c0.9,0.9,1.3,2.1,1.3,3.5c0,1.5-0.6,2.8-1.9,3.8c-1.3,1-3.1,1.5-5.4,1.5
			C221.4,140.9,220,140.7,218.9,140.1z"/>
		<path d="M237.2,139.7c-1.4-0.8-2.4-1.9-3.2-3.3c-0.8-1.4-1.2-3-1.2-4.8c0-1.8,0.4-3.4,1.2-4.8c0.8-1.4,1.8-2.5,3.2-3.3
			c1.4-0.8,2.9-1.2,4.5-1.2c1.6,0,3,0.4,4.3,1.1c1.3,0.8,2.3,1.8,3.1,3.1c0.7,1.3,1.1,2.8,1.1,4.5c0,0.8-0.1,1.5-0.2,1.9h-13.7
			c0.2,1.4,0.7,2.6,1.7,3.5c1,0.9,2.2,1.4,3.6,1.4c1,0,1.9-0.2,2.6-0.7c0.8-0.5,1.3-1,1.7-1.7h3.7c-0.5,1.6-1.5,2.9-2.9,3.9
			s-3.1,1.5-5.1,1.5C240.1,140.9,238.6,140.5,237.2,139.7z M246.8,130.3c-0.1-1.4-0.6-2.6-1.6-3.5s-2.1-1.4-3.5-1.4
			c-1.4,0-2.6,0.5-3.6,1.4c-1,0.9-1.6,2.1-1.7,3.5H246.8z"/>
		<path d="M266,139.7c-1.4-0.8-2.4-1.9-3.2-3.3c-0.8-1.4-1.2-3-1.2-4.8c0-1.8,0.4-3.4,1.2-4.8c0.8-1.4,1.8-2.5,3.2-3.3
			c1.4-0.8,2.9-1.2,4.5-1.2c1.7,0,3.2,0.4,4.5,1.2c1.3,0.8,2.4,1.9,3.2,3.3c0.8,1.4,1.2,3,1.2,4.8c0,1.8-0.4,3.4-1.2,4.8
			c-0.8,1.4-1.8,2.5-3.2,3.3c-1.3,0.8-2.8,1.2-4.5,1.2C268.9,140.9,267.4,140.5,266,139.7z M273.2,136.9c0.8-0.5,1.5-1.2,1.9-2.1
			s0.7-2,0.7-3.2c0-1.2-0.2-2.2-0.7-3.2c-0.5-0.9-1.1-1.6-1.9-2.1c-0.8-0.5-1.7-0.7-2.7-0.7c-1,0-1.9,0.2-2.7,0.7
			c-0.8,0.5-1.5,1.2-1.9,2.1c-0.5,0.9-0.7,2-0.7,3.2c0,1.2,0.2,2.2,0.7,3.2c0.5,0.9,1.1,1.6,1.9,2.1c0.8,0.5,1.7,0.7,2.7,0.7
			C271.5,137.7,272.4,137.4,273.2,136.9z"/>
		<path d="M285.1,140.1c-1.1-0.6-2-1.3-2.5-2.2c-0.6-0.9-0.9-1.8-0.9-2.7h3.5c0,0.7,0.4,1.4,1,1.9c0.7,0.5,1.7,0.8,2.9,0.8
			c1.3,0,2.2-0.2,2.9-0.7c0.7-0.4,1-1,1-1.7c0-0.6-0.2-1.2-0.6-1.5c-0.4-0.4-1.1-0.7-2.1-0.8l-2.9-0.5c-3.6-0.6-5.4-2.3-5.4-5.1
			c0-1.5,0.6-2.8,1.8-3.8c1.2-1,2.9-1.5,5.2-1.5c1.5,0,2.8,0.3,3.9,0.8c1.1,0.5,1.9,1.2,2.5,2.1s0.9,1.8,0.9,2.7h-3.5
			c0-0.7-0.4-1.4-1.1-1.9c-0.7-0.5-1.6-0.8-2.8-0.8c-1.1,0-2,0.2-2.6,0.7c-0.6,0.5-0.9,1-0.9,1.7c0,0.5,0.2,1,0.6,1.4
			c0.4,0.4,1.1,0.6,2,0.8l3,0.5c1.9,0.3,3.2,0.9,4.1,1.8c0.9,0.9,1.3,2.1,1.3,3.5c0,1.5-0.6,2.8-1.9,3.8c-1.3,1-3.1,1.5-5.4,1.5
			C287.6,140.9,286.3,140.7,285.1,140.1z"/>
		<path d="M302.4,140.2c-1-0.5-1.7-1.2-2.2-2c-0.5-0.8-0.8-1.8-0.8-2.8c0-1.8,0.6-3.2,1.8-4.2c1.2-1,3-1.6,5.4-1.6h4.6v-0.5
			c0-1.2-0.3-2.1-1-2.8c-0.7-0.7-1.6-1-2.8-1c-1.1,0-2,0.3-2.7,0.8c-0.7,0.5-1.1,1.1-1.2,1.8H300c0.1-1,0.4-1.9,1-2.8
			c0.6-0.9,1.4-1.6,2.5-2.1c1.1-0.5,2.4-0.8,3.8-0.8c2.2,0,4,0.6,5.3,1.9c1.3,1.2,2,2.9,2,5v11.4h-3.1l-0.4-2h-0.2
			c-0.4,0.6-1.1,1.1-2,1.6c-1,0.5-2.1,0.7-3.3,0.7S303.4,140.7,302.4,140.2z M309.8,136.6c0.9-0.9,1.4-2,1.4-3.5v-0.6h-4.3
			c-1.3,0-2.3,0.3-3,0.8c-0.7,0.5-1,1.2-1,2c0,0.8,0.3,1.5,0.8,1.9c0.6,0.5,1.3,0.7,2.4,0.7C307.7,137.9,308.9,137.5,309.8,136.6z"
			/>
		<path d="M319.4,140.6v-17.9h3l0.4,1.9h0.2c0.5-0.6,1.1-1.1,2.1-1.5c0.9-0.5,2-0.7,3.2-0.7c1.4,0,2.6,0.3,3.7,0.9
			c1.1,0.6,1.9,1.5,2.5,2.7c0.6,1.1,0.9,2.4,0.9,3.9v10.8h-3.5v-10.5c0-1.3-0.4-2.4-1.2-3.2c-0.8-0.9-1.9-1.3-3.1-1.3
			c-0.8,0-1.6,0.2-2.3,0.6c-0.7,0.4-1.3,0.9-1.7,1.6c-0.4,0.7-0.6,1.4-0.6,2.2v10.5H319.4z"/>
		<path d="M342.3,140.2c-1-0.5-1.7-1.2-2.2-2c-0.5-0.8-0.8-1.8-0.8-2.8c0-1.8,0.6-3.2,1.8-4.2c1.2-1,3-1.6,5.4-1.6h4.6v-0.5
			c0-1.2-0.3-2.1-1-2.8s-1.6-1-2.8-1c-1.1,0-2,0.3-2.7,0.8c-0.7,0.5-1.1,1.1-1.2,1.8h-3.5c0.1-1,0.4-1.9,1-2.8
			c0.6-0.9,1.4-1.6,2.5-2.1c1.1-0.5,2.4-0.8,3.8-0.8c2.2,0,4,0.6,5.3,1.9c1.3,1.2,2,2.9,2,5v11.4h-3.1l-0.4-2H351
			c-0.4,0.6-1.1,1.1-2,1.6s-2.1,0.7-3.3,0.7C344.4,140.9,343.2,140.7,342.3,140.2z M349.7,136.6c0.9-0.9,1.4-2,1.4-3.5v-0.6h-4.3
			c-1.3,0-2.3,0.3-3,0.8c-0.7,0.5-1,1.2-1,2c0,0.8,0.3,1.5,0.8,1.9c0.6,0.5,1.3,0.7,2.4,0.7C347.5,137.9,348.8,137.5,349.7,136.6z"
			/>
		<path d="M363.6,140.6h-4v-4h4V140.6z M363,134.1h-2.8l-0.5-8.2v-10.3h3.7v10.3L363,134.1z"/>
	</g>
	<g>
		<g>
			<path class="st3" d="M355.8,19.7h-48.6c-5.9,0-10.6,4.8-10.6,10.6v54.9c0,5.9,4.8,10.6,10.6,10.6h48.6c5.9,0,10.6-4.8,10.6-10.6
				V30.3C366.4,24.4,361.6,19.7,355.8,19.7z M344.2,73.5c-1.2,1.9-2.9,3.4-5.1,4.5s-4.7,1.7-7.5,1.7c-2.9,0-5.5-0.6-7.7-1.7
				c-2.2-1.1-3.9-2.6-5.1-4.6c-1.2-1.9-1.8-4.1-1.8-6.4h6.4c0,1.9,0.7,3.4,2.2,4.7c1.5,1.3,3.5,1.9,6,1.9c2.4,0,4.3-0.6,5.8-1.9
				c1.5-1.3,2.2-2.8,2.2-4.8c0-2-0.7-3.7-2.2-5c-1.5-1.3-3.5-2-5.9-2h-2.7v-5.6h2.7c2.4,0,4.2-0.6,5.5-1.9c1.3-1.2,2-2.8,2-4.7
				c0-1.7-0.7-3.1-2.1-4.3c-1.4-1.2-3.2-1.8-5.4-1.8c-2.2,0-4,0.6-5.4,1.8c-1.4,1.2-2.2,2.7-2.2,4.3h-6.4c0-2.2,0.6-4.2,1.8-6.1
				c1.2-1.8,2.9-3.3,5-4.5c2.1-1.1,4.6-1.7,7.3-1.7c2.7,0,5.1,0.5,7.2,1.6c2.1,1.1,3.7,2.5,4.9,4.4c1.2,1.8,1.7,3.9,1.7,6.1
				c0,2.3-0.7,4.3-2,5.9c-1.3,1.6-2.8,2.8-4.4,3.3v0.3c1.7,0.6,3.3,1.7,4.8,3.5c1.4,1.7,2.2,3.9,2.2,6.4
				C346,69.6,345.4,71.6,344.2,73.5z"/>
		</g>
	</g>
	<g id="ESTO_NEW-LOGO_00000127737294759506306840000017904489942357257653_">
		<g id="UP_2-Copy-2_00000149376501675468394390000001793816104573192628_" transform="translate(-287.000000, -522.000000)">
			<g id="BLACK_00000154412243115830579740000014653339953445565326_">
				<path d="M525.7,540.3c10.2,0,19.7,4,27,11.4c7.2,7.5,11.2,17.3,11.2,27.9c0,10.6-3.9,20.6-11.2,28.1c-7.3,7.5-16.7,11.4-27,11.4
					c-10.2,0-19.5-4-26.8-11.4c-7.4-7.6-11.3-17.5-11.3-28.1c0-10.6,3.9-20.3,11.3-27.9C506.2,544.3,515.5,540.3,525.7,540.3z
					 M525.7,554.7c-6.3,0-11.9,2.7-16.1,7.2c-4.1,4.5-6.6,10.6-6.6,17.6c0,7,2.5,13.2,6.6,17.7c4.1,4.5,9.8,7.3,16,7.3
					c6.2,0,11.9-2.8,16-7.3c4.1-4.5,6.6-10.7,6.6-17.7c0-7-2.5-13.2-6.6-17.6C537.7,557.4,532,554.7,525.7,554.7z M324,540.2
					c6.4,0,12.2,1.4,17.2,4.2c5.1,2.8,9.1,6.7,12.1,11.7c3,5,4.5,10.7,4.5,17.2c0,1.1-0.1,4.9-0.2,11.3l0,0.4l-54.5,0
					c1.2,5.7,3.6,9.8,7.5,12.9c4.1,3.2,9.6,4.9,16.6,5.2l0.6,0l1.7,0h24.2v14.6h-24.3c-13.3,0-23.6-3.5-31-10.4
					c-7.5-6.9-11.3-15.7-11.3-29c0-6.7,1.5-12.9,4.6-18.7c3.1-5.8,7.3-10.5,12.8-14.1C309.9,542.1,316.5,540.2,324,540.2z
					 M324.7,555.3c-6,0-10.9,1.6-15.5,5.6c-2.8,2.7-4.6,6.1-5.7,10.6l0,0l40.1-0.3l0-0.5l0-0.4c-0.2-2.3-1-4.5-2.2-6.5
					c-1.5-2.6-3.7-4.6-6.5-6.2C332.1,556.1,328.7,555.3,324.7,555.3z M420.5,541.7v14.2h-31.7c-2.3,0-4.1,0.5-5.3,1.5
					c-1.2,0.9-1.8,2.3-1.8,4c0,1.3,0.5,2.4,1.5,3.4c1.2,1.2,3.1,2.3,5.7,3.4l0,0l13.6,5.6c7.4,3.1,13.1,5.9,16.7,9.7
					c3.2,3.4,4.9,7.5,4.9,13.2c0,7.2-2.6,12.5-7.8,16c-5.1,3.4-12.9,5.2-23.4,5.2l0,0l-0.6,0h-24.7v-14.5h31.7c3,0,5.4-0.6,7.1-1.7
					c1.5-1.1,2.4-2.6,2.4-4.5c0-1.7-0.6-3-1.8-4.1c-1.5-1.4-3.9-2.6-7.1-4l0,0l-13-5.3c-7.1-2.9-12.2-5.7-15.5-9.3
					c-3.1-3.4-4.6-7.5-4.6-12.9c0-6.2,2.3-11.2,6.6-14.5c4.2-3.2,10.4-5.1,18.5-5.1l0,0l0.5,0H420.5z M435,522h15v19.7h29.2v14.4
					H450V587c0,5.6,1.2,9.7,4,12.4c2.8,2.7,7,3.9,12.9,4l0,0l12.3,0v14.5h-12.1c-10.6,0-18.5-2.4-23.9-7c-5.4-4.7-8.2-11.6-8.3-21
					l0,0l0-0.6V522z"/>
			</g>
		</g>
	</g>
</g>
</svg>
