<?xml version="1.0" encoding="UTF-8"?><svg id="Layer_2" xmlns="http://www.w3.org/2000/svg" viewBox="0 0 129.55 129.55"><defs><style>.cls-1{fill:#f9faff;}.cls-2{fill:#3056ed;}</style></defs><g id="Layer_1-2"><path class="cls-2" d="M64.78,0h0c35.78,0,64.78,29,64.78,64.78h0c0,35.78-29,64.78-64.78,64.78h0C29,129.55,0,100.55,0,64.78H0C0,29,29,0,64.78,0Z"/><path class="cls-1" d="M66.03,32.39c5.13,0,9.72,1.19,13.77,3.53,4.08,2.36,7.32,5.63,9.71,9.8,2.39,4.17,3.6,8.96,3.6,14.39,0,.91-.05,4.05-.16,9.41v.36H49.34c.93,4.75,2.91,8.18,5.99,10.73,3.25,2.7,7.68,4.11,13.25,4.36l.44,.02,1.39,.02h19.36v12.15h-19.47c-10.64,0-18.9-2.95-24.83-8.69-5.98-5.78-9.03-13.13-9.03-24.19,0-5.6,1.22-10.8,3.66-15.62,2.44-4.83,5.87-8.75,10.28-11.75,4.42-3.01,9.64-4.54,15.66-4.54Zm.57,12.58c-4.79,0-8.7,1.32-12.37,4.7-2.22,2.27-3.7,5.09-4.57,8.86l32.1-.27v-.4l-.05-.36c-.2-1.93-.78-3.74-1.74-5.43-1.22-2.14-2.95-3.85-5.17-5.14-2.27-1.32-5.01-1.96-8.2-1.96Z"/></g></svg>