<?xml version="1.0" encoding="utf-8"?>
<!-- Generator: Adobe Illustrator 26.3.1, SVG Export Plug-In . SVG Version: 6.00 Build 0)  -->
<svg version="1.1" id="Layer_1" xmlns="http://www.w3.org/2000/svg" xmlns:xlink="http://www.w3.org/1999/xlink" x="0px" y="0px"
	 viewBox="0 0 276.9 172.9" style="enable-background:new 0 0 276.9 172.9;" xml:space="preserve">
<style type="text/css">
	.st0{fill:#003FFF;}
</style>
<g>
	<g>
		<path class="st0" d="M0,172.9v-5.9h4.9c1.4,0,2-0.7,2-2v-36.9h6.3v38.3c0,2-0.6,3.5-1.9,4.7c-1.3,1.2-2.9,1.8-5.1,1.8H0z
			 M13.6,122.1H6.7v-6.4h6.9V122.1z"/>
		<path class="st0" d="M25.8,159.5c-1.7-0.9-3.1-2.1-4-3.6c-0.9-1.5-1.4-3.2-1.4-5.1c0-3.1,1.1-5.6,3.2-7.5c2.2-1.9,5.4-2.8,9.7-2.8
			h8.2v-0.8c0-2.1-0.6-3.7-1.8-5c-1.2-1.2-2.9-1.8-4.9-1.8c-2,0-3.6,0.5-4.8,1.4c-1.2,0.9-2,2-2.2,3.3h-6.2c0.1-1.7,0.7-3.4,1.8-4.9
			c1.1-1.6,2.6-2.8,4.5-3.7c2-0.9,4.2-1.4,6.9-1.4c4,0,7.2,1.1,9.5,3.3c2.4,2.2,3.5,5.2,3.5,8.9v20.4h-5.5l-0.6-3.5h-0.3
			c-0.7,1.1-1.9,2-3.6,2.9s-3.7,1.3-5.9,1.3C29.5,160.8,27.5,160.4,25.8,159.5z M32.2,122h-6.3v-6.3h6.3V122z M39.1,153.1
			c1.6-1.6,2.4-3.7,2.4-6.3v-1.1h-7.7c-2.4,0-4.2,0.5-5.3,1.4c-1.2,0.9-1.8,2.1-1.8,3.6c0,1.4,0.5,2.6,1.5,3.5
			c1,0.9,2.4,1.3,4.2,1.3C35.2,155.4,37.4,154.6,39.1,153.1z M43.8,122h-6.3v-6.3h6.3V122z"/>
		<path class="st0" d="M56.2,160.2v-32h5.4l0.6,3h0.3c0.6-1,1.4-1.7,2.3-2.2c0.9-0.5,2.1-0.8,3.7-0.8h5.6v5.9h-5
			c-2.1,0-3.8,0.6-4.9,1.7c-1.1,1.1-1.7,2.8-1.7,4.9v19.5H56.2z"/>
		<path class="st0" d="M84.5,158.7c-2.4-1.4-4.3-3.4-5.7-5.9c-1.4-2.5-2.1-5.4-2.1-8.6c0-3.2,0.7-6,2.1-8.6c1.4-2.5,3.3-4.5,5.7-5.9
			c2.4-1.4,5.1-2.1,8.1-2.1c2.8,0,5.4,0.7,7.7,2c2.3,1.4,4.1,3.2,5.5,5.6c1.3,2.4,2,5.1,2,8c0,1.5-0.1,2.6-0.3,3.4H83
			c0.3,2.6,1.3,4.7,3.1,6.3c1.8,1.6,3.9,2.5,6.4,2.5c1.8,0,3.4-0.4,4.7-1.2c1.4-0.8,2.4-1.8,3.1-3.1h6.6c-1,2.8-2.7,5.2-5.2,7
			c-2.5,1.8-5.5,2.8-9.2,2.8C89.6,160.8,86.9,160.1,84.5,158.7z M101.5,141.7c-0.2-2.5-1.1-4.7-2.8-6.3c-1.7-1.7-3.7-2.5-6.2-2.5
			c-2.5,0-4.7,0.8-6.4,2.5c-1.7,1.7-2.8,3.8-3.1,6.3H101.5z"/>
		<path class="st0" d="M121.2,160.2h-6.3v-44.6h6.3V160.2z"/>
		<path class="st0" d="M130,160.2v-32h5.4l0.6,3.3h0.3c0.8-1,1.9-1.9,3.4-2.7c1.4-0.8,3-1.2,4.7-1.2c2.2,0,4.1,0.5,5.8,1.6
			c1.6,1.1,2.8,2.2,3.4,3.5h0.3c0.8-1.3,2.2-2.5,4-3.5c1.8-1,3.9-1.6,6.2-1.6c2.2,0,4.2,0.5,6,1.6c1.8,1.1,3.2,2.6,4.2,4.5
			s1.5,4.1,1.5,6.6v20h-6.3v-19.6c0-2.2-0.6-3.9-1.8-5.2c-1.2-1.3-2.7-1.9-4.7-1.9c-1.9,0-3.6,0.7-5,2.1c-1.4,1.4-2.1,3.1-2.1,5.1
			v19.6h-6.2v-19.6c0-2.2-0.6-3.9-1.8-5.2c-1.2-1.3-2.8-1.9-4.7-1.9c-1.9,0-3.6,0.7-4.9,2.1c-1.4,1.4-2.1,3.1-2.1,5.1v19.6H130z"/>
		<path class="st0" d="M188.3,159.5c-1.7-0.9-3.1-2.1-4-3.6c-0.9-1.5-1.4-3.2-1.4-5.1c0-3.1,1.1-5.6,3.2-7.5
			c2.2-1.9,5.4-2.8,9.7-2.8h8.2v-0.8c0-2.1-0.6-3.7-1.8-5c-1.2-1.2-2.9-1.8-4.9-1.8c-2,0-3.6,0.5-4.8,1.4c-1.2,0.9-2,2-2.2,3.3H184
			c0.1-1.7,0.7-3.4,1.8-4.9c1.1-1.6,2.6-2.8,4.5-3.7c2-0.9,4.2-1.4,6.9-1.4c4,0,7.2,1.1,9.5,3.3c2.4,2.2,3.5,5.2,3.5,8.9v20.4h-5.5
			l-0.6-3.5h-0.3c-0.7,1.1-1.9,2-3.6,2.9c-1.7,0.8-3.7,1.3-5.9,1.3C192,160.8,190.1,160.4,188.3,159.5z M201.6,153.1
			c1.6-1.6,2.4-3.7,2.4-6.3v-1.1h-7.7c-2.4,0-4.2,0.5-5.3,1.4c-1.2,0.9-1.8,2.1-1.8,3.6c0,1.4,0.5,2.6,1.5,3.5
			c1,0.9,2.4,1.3,4.2,1.3C197.7,155.4,199.9,154.6,201.6,153.1z"/>
		<path class="st0" d="M225.3,160.2H219v-44.6h6.3v27.1l13.2-14.6h7.6l-14.4,15.7l15,16.4h-7.6L225.3,145V160.2z"/>
		<path class="st0" d="M254.3,159.3c-2-1-3.5-2.3-4.6-3.9c-1-1.5-1.5-3.1-1.5-4.7h6.2c0,1.3,0.6,2.4,1.9,3.4c1.3,0.9,3,1.4,5.3,1.4
			s4-0.4,5.1-1.2c1.2-0.8,1.8-1.8,1.8-3c0-1.1-0.4-2.1-1.1-2.7c-0.8-0.7-2-1.2-3.8-1.5l-5.2-0.9c-6.4-1.1-9.6-4.2-9.6-9.2
			c0-2.8,1.1-5,3.2-6.8c2.2-1.8,5.3-2.7,9.3-2.7c2.7,0,5,0.5,7,1.5c2,1,3.5,2.2,4.5,3.8c1,1.5,1.6,3.1,1.6,4.8h-6.2
			c0-1.3-0.6-2.4-1.9-3.3c-1.3-0.9-2.9-1.4-5-1.4c-2,0-3.6,0.4-4.7,1.2c-1.1,0.8-1.6,1.8-1.6,3c0,1,0.4,1.8,1.1,2.4
			c0.7,0.6,1.9,1.1,3.6,1.4l5.3,0.9c3.3,0.6,5.8,1.6,7.4,3.2c1.6,1.6,2.4,3.7,2.4,6.3c0,2.8-1.1,5-3.4,6.8c-2.3,1.8-5.5,2.7-9.7,2.7
			C258.7,160.8,256.3,160.3,254.3,159.3z"/>
	</g>
	<g id="ESTO_NEW-LOGO_00000173160656031416018990000013489245727214901137_">
		<g id="UP_2-Copy-2_00000117646238655478537870000000008550950538346670_" transform="translate(-287.000000, -522.000000)">
			<g id="BLACK_00000057133227742947413280000002714549605241172391_">
				<path d="M525.7,540.3c10.2,0,19.7,4,27,11.4c7.2,7.5,11.2,17.3,11.2,27.9c0,10.6-3.9,20.6-11.2,28.1c-7.3,7.5-16.7,11.4-27,11.4
					c-10.2,0-19.5-4-26.8-11.4c-7.4-7.6-11.3-17.5-11.3-28.1c0-10.6,3.9-20.3,11.3-27.9C506.2,544.3,515.5,540.3,525.7,540.3z
					 M525.7,554.7c-6.3,0-11.9,2.7-16.1,7.2c-4.1,4.5-6.6,10.6-6.6,17.6c0,7,2.5,13.2,6.6,17.7c4.1,4.5,9.8,7.3,16,7.3
					c6.2,0,11.9-2.8,16-7.3c4.1-4.5,6.6-10.7,6.6-17.7c0-7-2.5-13.2-6.6-17.6C537.7,557.4,532,554.7,525.7,554.7z M324,540.2
					c6.4,0,12.2,1.4,17.2,4.2c5.1,2.8,9.1,6.7,12.1,11.7c3,5,4.5,10.7,4.5,17.2c0,1.1-0.1,4.9-0.2,11.3l0,0.4l-54.5,0
					c1.2,5.7,3.6,9.8,7.5,12.9c4.1,3.2,9.6,4.9,16.6,5.2l0.6,0l1.7,0h24.2v14.6h-24.3c-13.3,0-23.6-3.5-31-10.4
					c-7.5-6.9-11.3-15.7-11.3-29c0-6.7,1.5-12.9,4.6-18.7c3.1-5.8,7.3-10.5,12.8-14.1C309.9,542.1,316.5,540.2,324,540.2z
					 M324.7,555.3c-6,0-10.9,1.6-15.5,5.6c-2.8,2.7-4.6,6.1-5.7,10.6l0,0l40.1-0.3l0-0.5l0-0.4c-0.2-2.3-1-4.5-2.2-6.5
					c-1.5-2.6-3.7-4.6-6.5-6.2C332.1,556.1,328.7,555.3,324.7,555.3z M420.5,541.7v14.2h-31.7c-2.3,0-4.1,0.5-5.3,1.5
					c-1.2,0.9-1.8,2.3-1.8,4c0,1.3,0.5,2.4,1.5,3.4c1.2,1.2,3.1,2.3,5.7,3.4l0,0l13.6,5.6c7.4,3.1,13.1,5.9,16.7,9.7
					c3.2,3.4,4.9,7.5,4.9,13.2c0,7.2-2.6,12.5-7.8,16c-5.1,3.4-12.9,5.2-23.4,5.2l0,0l-0.6,0h-24.7v-14.5h31.7c3,0,5.4-0.6,7.1-1.7
					c1.5-1.1,2.4-2.6,2.4-4.5c0-1.7-0.6-3-1.8-4.1c-1.5-1.4-3.9-2.6-7.1-4l0,0l-13-5.3c-7.1-2.9-12.2-5.7-15.5-9.3
					c-3.1-3.4-4.6-7.5-4.6-12.9c0-6.2,2.3-11.2,6.6-14.5c4.2-3.2,10.4-5.1,18.5-5.1l0,0l0.5,0H420.5z M435,522h15v19.7h29.2v14.4
					H450V587c0,5.6,1.2,9.7,4,12.4c2.8,2.7,7,3.9,12.9,4l0,0l12.3,0v14.5h-12.1c-10.6,0-18.5-2.4-23.9-7c-5.4-4.7-8.2-11.6-8.3-21
					l0,0l0-0.6V522z"/>
			</g>
		</g>
	</g>
</g>
</svg>
