<?xml version="1.0" encoding="utf-8"?>
<!-- Generator: Adobe Illustrator 26.3.1, SVG Export Plug-In . SVG Version: 6.00 Build 0)  -->
<svg version="1.1" id="Layer_1" xmlns="http://www.w3.org/2000/svg" xmlns:xlink="http://www.w3.org/1999/xlink" x="0px" y="0px"
	 viewBox="0 0 366.4 147.3" style="enable-background:new 0 0 366.4 147.3;" xml:space="preserve">
<style type="text/css">
	.st0{fill:#003FFF;}
</style>
<g>
	<g>
		<path d="M6.1,139H2.6v-23.4h5.9l6.4,18.6h0.7l6.4-18.6h5.9V139h-3.5v-18.2h-0.7L17.4,139H13l-6.3-18.2H6.1V139z"/>
		<path d="M34.7,138.7c-0.9-0.5-1.6-1.1-2.1-1.9c-0.5-0.8-0.7-1.7-0.7-2.7c0-1.6,0.6-3,1.7-3.9c1.1-1,2.8-1.5,5.1-1.5H43v-0.4
			c0-1.1-0.3-2-1-2.6s-1.5-1-2.6-1c-1,0-1.9,0.2-2.5,0.7s-1,1.1-1.1,1.7h-3.2c0.1-0.9,0.4-1.8,0.9-2.6c0.6-0.8,1.3-1.5,2.4-2
			c1-0.5,2.2-0.7,3.6-0.7c2.1,0,3.8,0.6,5,1.7c1.2,1.2,1.9,2.7,1.9,4.7V139h-2.9l-0.3-1.8h-0.2c-0.4,0.6-1,1.1-1.9,1.5
			s-1.9,0.7-3.1,0.7S35.7,139.1,34.7,138.7z M41.7,135.3c0.8-0.8,1.3-1.9,1.3-3.3v-0.6h-4c-1.2,0-2.2,0.2-2.8,0.7s-0.9,1.1-0.9,1.9
			c0,0.8,0.3,1.4,0.8,1.8c0.5,0.5,1.3,0.7,2.2,0.7C39.7,136.5,40.9,136.1,41.7,135.3z"/>
		<path d="M54.2,139h-3.3v-23.4h3.3v14.2l6.9-7.7h4l-7.6,8.2l7.9,8.6h-4l-7.3-8V139z"/>
		<path d="M69.4,138.5c-1.1-0.5-1.9-1.2-2.4-2c-0.5-0.8-0.8-1.6-0.8-2.5h3.3c0,0.7,0.3,1.3,1,1.8c0.7,0.5,1.6,0.7,2.8,0.7
			c1.2,0,2.1-0.2,2.7-0.6c0.6-0.4,0.9-0.9,0.9-1.6c0-0.6-0.2-1.1-0.6-1.4c-0.4-0.4-1.1-0.6-2-0.8l-2.7-0.5c-3.4-0.6-5-2.2-5-4.8
			c0-1.4,0.6-2.6,1.7-3.6c1.1-0.9,2.8-1.4,4.9-1.4c1.4,0,2.6,0.3,3.7,0.8c1,0.5,1.8,1.2,2.4,2c0.5,0.8,0.8,1.6,0.8,2.5h-3.2
			c0-0.7-0.3-1.3-1-1.8c-0.7-0.5-1.5-0.7-2.6-0.7c-1.1,0-1.9,0.2-2.5,0.6c-0.6,0.4-0.9,0.9-0.9,1.6c0,0.5,0.2,0.9,0.6,1.3
			c0.4,0.3,1,0.6,1.9,0.7l2.8,0.5c1.7,0.3,3,0.8,3.9,1.7c0.8,0.8,1.3,1.9,1.3,3.3c0,1.4-0.6,2.6-1.8,3.6c-1.2,0.9-2.9,1.4-5.1,1.4
			C71.7,139.3,70.4,139.1,69.4,138.5z"/>
		<path d="M85.6,138.7c-0.9-0.5-1.6-1.1-2.1-1.9c-0.5-0.8-0.7-1.7-0.7-2.7c0-1.6,0.6-3,1.7-3.9c1.1-1,2.8-1.5,5.1-1.5h4.3v-0.4
			c0-1.1-0.3-2-1-2.6s-1.5-1-2.6-1c-1,0-1.9,0.2-2.5,0.7s-1,1.1-1.1,1.7h-3.2c0.1-0.9,0.4-1.8,0.9-2.6c0.6-0.8,1.3-1.5,2.4-2
			c1-0.5,2.2-0.7,3.6-0.7c2.1,0,3.8,0.6,5,1.7c1.2,1.2,1.9,2.7,1.9,4.7V139h-2.9l-0.3-1.8h-0.2c-0.4,0.6-1,1.1-1.9,1.5
			s-1.9,0.7-3.1,0.7S86.5,139.1,85.6,138.7z M95.2,118.6h-9.9v-2.5h9.9V118.6z M92.5,135.3c0.8-0.8,1.3-1.9,1.3-3.3v-0.6h-4
			c-1.2,0-2.2,0.2-2.8,0.7s-0.9,1.1-0.9,1.9c0,0.8,0.3,1.4,0.8,1.8c0.5,0.5,1.3,0.7,2.2,0.7C90.5,136.5,91.7,136.1,92.5,135.3z"/>
		<path d="M112.3,138.4c-1.2-0.6-2.2-1.4-2.8-2.5c-0.7-1.1-1-2.2-1-3.5h3.5c0,1,0.4,1.9,1.2,2.6c0.8,0.7,1.9,1,3.3,1
			c1.3,0,2.4-0.3,3.2-1c0.8-0.7,1.2-1.6,1.2-2.6c0-1.1-0.4-2-1.2-2.7c-0.8-0.7-1.9-1.1-3.3-1.1H115v-3.1h1.5c1.3,0,2.3-0.3,3-1
			c0.7-0.7,1.1-1.5,1.1-2.6c0-0.9-0.4-1.7-1.1-2.4c-0.8-0.7-1.8-1-3-1c-1.2,0-2.2,0.3-3,1c-0.8,0.7-1.2,1.5-1.2,2.4h-3.5
			c0-1.2,0.3-2.3,1-3.3c0.7-1,1.6-1.8,2.7-2.4c1.2-0.6,2.5-0.9,4-0.9c1.5,0,2.8,0.3,3.9,0.9s2,1.4,2.7,2.4c0.6,1,1,2.1,1,3.3
			c0,1.3-0.4,2.4-1.1,3.3c-0.7,0.9-1.5,1.5-2.4,1.8v0.2c1,0.3,1.8,0.9,2.6,1.9c0.8,1,1.2,2.1,1.2,3.5c0,1.2-0.3,2.4-1,3.4
			c-0.7,1-1.6,1.9-2.8,2.5c-1.2,0.6-2.6,0.9-4.1,0.9C114.9,139.3,113.5,139,112.3,138.4z"/>
		<path d="M144.7,139h-4.8l-5.9-16.8h3.5l4.5,13.1h0.7l4.5-13.1h3.5L144.7,139z"/>
		<path d="M156.6,119h-3.6v-3.3h3.6V119z M156.4,139h-3.3v-16.8h3.3V139z"/>
		<path d="M164,138.2c-1.3-0.7-2.3-1.8-3-3.1c-0.7-1.3-1.1-2.8-1.1-4.5c0-1.7,0.4-3.2,1.1-4.5s1.7-2.4,3-3.1
			c1.3-0.7,2.7-1.1,4.2-1.1c1.5,0,2.8,0.4,4.1,1.1c1.2,0.7,2.2,1.7,2.9,2.9c0.7,1.2,1.1,2.7,1.1,4.2c0,0.8-0.1,1.4-0.2,1.8h-12.8
			c0.2,1.4,0.7,2.5,1.6,3.3c0.9,0.9,2.1,1.3,3.4,1.3c0.9,0,1.8-0.2,2.5-0.6c0.7-0.4,1.2-1,1.6-1.6h3.4c-0.5,1.5-1.4,2.7-2.7,3.7
			c-1.3,1-2.9,1.5-4.8,1.5C166.7,139.3,165.2,139,164,138.2z M172.9,129.3c-0.1-1.3-0.6-2.4-1.5-3.3c-0.9-0.9-2-1.3-3.2-1.3
			c-1.3,0-2.5,0.4-3.4,1.3c-0.9,0.9-1.5,2-1.6,3.3H172.9z"/>
		<path d="M179.8,139v-16.8h2.8l0.3,1.7h0.2c0.4-0.5,1.1-1,1.9-1.4c0.9-0.4,1.9-0.6,3-0.6c1.3,0,2.4,0.3,3.5,0.9
			c1,0.6,1.8,1.4,2.4,2.5s0.9,2.3,0.9,3.7V139h-3.3v-9.8c0-1.2-0.4-2.2-1.2-3s-1.8-1.2-2.9-1.2c-0.8,0-1.5,0.2-2.2,0.6
			c-0.7,0.4-1.2,0.9-1.6,1.5c-0.4,0.6-0.6,1.3-0.6,2.1v9.8H179.8z"/>
		<path d="M201.3,138.7c-0.9-0.5-1.6-1.1-2.1-1.9c-0.5-0.8-0.7-1.7-0.7-2.7c0-1.6,0.6-3,1.7-3.9c1.1-1,2.8-1.5,5.1-1.5h4.3v-0.4
			c0-1.1-0.3-2-1-2.6s-1.5-1-2.6-1c-1,0-1.9,0.2-2.5,0.7s-1,1.1-1.1,1.7H199c0.1-0.9,0.4-1.8,0.9-2.6c0.6-0.8,1.3-1.5,2.4-2
			c1-0.5,2.2-0.7,3.6-0.7c2.1,0,3.8,0.6,5,1.7c1.2,1.2,1.9,2.7,1.9,4.7V139h-2.9l-0.3-1.8h-0.2c-0.4,0.6-1,1.1-1.9,1.5
			s-1.9,0.7-3.1,0.7S202.2,139.1,201.3,138.7z M210.9,118.6h-9.9v-2.5h9.9V118.6z M208.2,135.3c0.8-0.8,1.3-1.9,1.3-3.3v-0.6h-4
			c-1.2,0-2.2,0.2-2.8,0.7s-0.9,1.1-0.9,1.9c0,0.8,0.3,1.4,0.8,1.8c0.5,0.5,1.3,0.7,2.2,0.7C206.2,136.5,207.4,136.1,208.2,135.3z"
			/>
		<path d="M220.1,138.2c-1.2-0.7-2.1-1.8-2.8-3.1c-0.7-1.3-1-2.9-1-4.5c0-1.7,0.3-3.2,1-4.5c0.7-1.3,1.6-2.4,2.8-3.1
			c1.2-0.7,2.5-1.1,3.9-1.1c2.1,0,3.8,0.8,5.1,2.4h0.2v-8.7h3.3V139h-2.8l-0.3-2.1h-0.2c-1.3,1.7-3,2.5-5.2,2.5
			C222.6,139.3,221.3,139,220.1,138.2z M226.9,135.6c0.7-0.5,1.3-1.1,1.8-2s0.7-1.9,0.7-3c0-1.1-0.2-2.1-0.7-3c-0.4-0.9-1-1.5-1.8-2
			s-1.6-0.7-2.4-0.7c-0.9,0-1.7,0.2-2.4,0.7s-1.3,1.1-1.8,2c-0.4,0.9-0.7,1.8-0.7,3c0,1.1,0.2,2.1,0.7,3s1,1.5,1.8,2
			s1.5,0.7,2.4,0.7C225.3,136.3,226.1,136,226.9,135.6z"/>
		<path d="M239.4,138.7c-0.9-0.5-1.6-1.1-2.1-1.9c-0.5-0.8-0.7-1.7-0.7-2.7c0-1.6,0.6-3,1.7-3.9c1.1-1,2.8-1.5,5.1-1.5h4.3v-0.4
			c0-1.1-0.3-2-1-2.6s-1.5-1-2.6-1c-1,0-1.9,0.2-2.5,0.7s-1,1.1-1.1,1.7h-3.2c0.1-0.9,0.4-1.8,0.9-2.6c0.6-0.8,1.3-1.5,2.4-2
			c1-0.5,2.2-0.7,3.6-0.7c2.1,0,3.8,0.6,5,1.7c1.2,1.2,1.9,2.7,1.9,4.7V139H248l-0.3-1.8h-0.2c-0.4,0.6-1,1.1-1.9,1.5
			s-1.9,0.7-3.1,0.7S240.3,139.1,239.4,138.7z M249,118.6h-9.9v-2.5h9.9V118.6z M246.3,135.3c0.8-0.8,1.3-1.9,1.3-3.3v-0.6h-4
			c-1.2,0-2.2,0.2-2.8,0.7s-0.9,1.1-0.9,1.9c0,0.8,0.3,1.4,0.8,1.8c0.5,0.5,1.3,0.7,2.2,0.7C244.3,136.5,245.5,136.1,246.3,135.3z"
			/>
		<path d="M257.2,138.5c-1.1-0.5-1.9-1.2-2.4-2c-0.5-0.8-0.8-1.6-0.8-2.5h3.3c0,0.7,0.3,1.3,1,1.8c0.7,0.5,1.6,0.7,2.8,0.7
			c1.2,0,2.1-0.2,2.7-0.6c0.6-0.4,0.9-0.9,0.9-1.6c0-0.6-0.2-1.1-0.6-1.4c-0.4-0.4-1.1-0.6-2-0.8l-2.7-0.5c-3.4-0.6-5-2.2-5-4.8
			c0-1.4,0.6-2.6,1.7-3.6c1.1-0.9,2.8-1.4,4.9-1.4c1.4,0,2.6,0.3,3.7,0.8c1,0.5,1.8,1.2,2.4,2c0.5,0.8,0.8,1.6,0.8,2.5h-3.2
			c0-0.7-0.3-1.3-1-1.8c-0.7-0.5-1.5-0.7-2.6-0.7c-1.1,0-1.9,0.2-2.5,0.6c-0.6,0.4-0.9,0.9-0.9,1.6c0,0.5,0.2,0.9,0.6,1.3
			c0.4,0.3,1,0.6,1.9,0.7l2.8,0.5c1.7,0.3,3,0.8,3.9,1.7c0.8,0.8,1.3,1.9,1.3,3.3c0,1.4-0.6,2.6-1.8,3.6c-1.2,0.9-2.9,1.4-5.1,1.4
			C259.5,139.3,258.3,139.1,257.2,138.5z"/>
		<path d="M282.3,138.2c-1.2-0.7-2.1-1.8-2.8-3.1c-0.7-1.3-1-2.9-1-4.5c0-1.7,0.3-3.2,1-4.5c0.7-1.3,1.6-2.4,2.8-3.1
			c1.2-0.7,2.5-1.1,3.9-1.1c2.1,0,3.8,0.8,5.1,2.4h0.2v-8.7h3.3V139H292l-0.3-2.1h-0.2c-1.3,1.7-3,2.5-5.2,2.5
			C284.8,139.3,283.5,139,282.3,138.2z M289.1,135.6c0.7-0.5,1.3-1.1,1.8-2s0.7-1.9,0.7-3c0-1.1-0.2-2.1-0.7-3c-0.4-0.9-1-1.5-1.8-2
			s-1.6-0.7-2.4-0.7c-0.9,0-1.7,0.2-2.4,0.7s-1.3,1.1-1.8,2c-0.4,0.9-0.7,1.8-0.7,3c0,1.1,0.2,2.1,0.7,3s1,1.5,1.8,2
			s1.5,0.7,2.4,0.7C287.5,136.3,288.3,136,289.1,135.6z"/>
		<path d="M301.6,138.7c-0.9-0.5-1.6-1.1-2.1-1.9c-0.5-0.8-0.7-1.7-0.7-2.7c0-1.6,0.6-3,1.7-3.9c1.1-1,2.8-1.5,5.1-1.5h4.3v-0.4
			c0-1.1-0.3-2-1-2.6s-1.5-1-2.6-1c-1,0-1.9,0.2-2.5,0.7s-1,1.1-1.1,1.7h-3.2c0.1-0.9,0.4-1.8,0.9-2.6c0.6-0.8,1.3-1.5,2.4-2
			c1-0.5,2.2-0.7,3.6-0.7c2.1,0,3.8,0.6,5,1.7c1.2,1.2,1.9,2.7,1.9,4.7V139h-2.9l-0.3-1.8h-0.2c-0.4,0.6-1,1.1-1.9,1.5
			s-1.9,0.7-3.1,0.7S302.5,139.1,301.6,138.7z M308.5,135.3c0.8-0.8,1.3-1.9,1.3-3.3v-0.6h-4c-1.2,0-2.2,0.2-2.8,0.7
			s-0.9,1.1-0.9,1.9c0,0.8,0.3,1.4,0.8,1.8c0.5,0.5,1.3,0.7,2.2,0.7C306.5,136.5,307.7,136.1,308.5,135.3z"/>
		<path d="M319.1,147.3h-2.6l1.1-5.5h3.4L319.1,147.3z M321,139h-3.3v-23.4h3.3V139z"/>
		<path d="M327.8,138.7c-0.9-0.5-1.6-1.1-2.1-1.9c-0.5-0.8-0.7-1.7-0.7-2.7c0-1.6,0.6-3,1.7-3.9c1.1-1,2.8-1.5,5.1-1.5h4.3v-0.4
			c0-1.1-0.3-2-1-2.6s-1.5-1-2.6-1c-1,0-1.9,0.2-2.5,0.7s-1,1.1-1.1,1.7h-3.2c0.1-0.9,0.4-1.8,0.9-2.6c0.6-0.8,1.3-1.5,2.4-2
			c1-0.5,2.2-0.7,3.6-0.7c2.1,0,3.8,0.6,5,1.7c1.2,1.2,1.9,2.7,1.9,4.7V139h-2.9l-0.3-1.8h-0.2c-0.4,0.6-1,1.1-1.9,1.5
			s-1.9,0.7-3.1,0.7S328.7,139.1,327.8,138.7z M337.4,118.6h-9.9v-2.5h9.9V118.6z M334.7,135.3c0.8-0.8,1.3-1.9,1.3-3.3v-0.6h-4
			c-1.2,0-2.2,0.2-2.8,0.7s-0.9,1.1-0.9,1.9c0,0.8,0.3,1.4,0.8,1.8c0.5,0.5,1.3,0.7,2.2,0.7C332.7,136.5,333.9,136.1,334.7,135.3z"
			/>
		<path d="M345.6,138.5c-1.1-0.5-1.9-1.2-2.4-2c-0.5-0.8-0.8-1.6-0.8-2.5h3.3c0,0.7,0.3,1.3,1,1.8c0.7,0.5,1.6,0.7,2.8,0.7
			c1.2,0,2.1-0.2,2.7-0.6c0.6-0.4,0.9-0.9,0.9-1.6c0-0.6-0.2-1.1-0.6-1.4c-0.4-0.4-1.1-0.6-2-0.8l-2.7-0.5c-3.4-0.6-5-2.2-5-4.8
			c0-1.4,0.6-2.6,1.7-3.6c1.1-0.9,2.8-1.4,4.9-1.4c1.4,0,2.6,0.3,3.7,0.8c1,0.5,1.8,1.2,2.4,2c0.5,0.8,0.8,1.6,0.8,2.5h-3.2
			c0-0.7-0.3-1.3-1-1.8c-0.7-0.5-1.5-0.7-2.6-0.7c-1.1,0-1.9,0.2-2.5,0.6c-0.6,0.4-0.9,0.9-0.9,1.6c0,0.5,0.2,0.9,0.6,1.3
			c0.4,0.3,1,0.6,1.9,0.7l2.8,0.5c1.7,0.3,3,0.8,3.9,1.7c0.8,0.8,1.3,1.9,1.3,3.3c0,1.4-0.6,2.6-1.8,3.6c-1.2,0.9-2.9,1.4-5.1,1.4
			C347.9,139.3,346.7,139.1,345.6,138.5z"/>
		<path d="M363.8,139h-3.7v-3.8h3.7V139z M363.2,133h-2.6l-0.4-7.7v-9.6h3.5v9.6L363.2,133z"/>
	</g>
	<g>
		<g>
			<path class="st0" d="M355.8,19.7h-48.6c-5.9,0-10.6,4.8-10.6,10.6v54.9c0,5.9,4.8,10.6,10.6,10.6h48.6c5.9,0,10.6-4.8,10.6-10.6
				V30.3C366.4,24.4,361.6,19.7,355.8,19.7z M344.2,73.5c-1.2,1.9-2.9,3.4-5.1,4.5c-2.2,1.1-4.7,1.7-7.5,1.7c-2.9,0-5.5-0.6-7.7-1.7
				c-2.2-1.1-3.9-2.6-5.1-4.6c-1.2-1.9-1.8-4.1-1.8-6.4h6.4c0,1.9,0.7,3.4,2.2,4.7c1.5,1.3,3.5,1.9,6,1.9c2.4,0,4.3-0.6,5.8-1.9
				c1.5-1.3,2.2-2.8,2.2-4.8c0-2-0.7-3.7-2.2-5c-1.5-1.3-3.5-2-5.9-2h-2.7v-5.6h2.7c2.4,0,4.2-0.6,5.5-1.9c1.3-1.2,2-2.8,2-4.7
				c0-1.7-0.7-3.1-2.1-4.3c-1.4-1.2-3.2-1.8-5.4-1.8c-2.2,0-4,0.6-5.4,1.8c-1.4,1.2-2.2,2.7-2.2,4.3h-6.4c0-2.2,0.6-4.2,1.8-6.1
				c1.2-1.8,2.9-3.3,5-4.5c2.1-1.1,4.6-1.7,7.3-1.7c2.7,0,5.1,0.5,7.2,1.6c2.1,1.1,3.7,2.5,4.9,4.4c1.2,1.8,1.7,3.9,1.7,6.1
				c0,2.3-0.7,4.3-2,5.9c-1.3,1.6-2.8,2.8-4.4,3.3v0.3c1.7,0.6,3.3,1.7,4.8,3.5c1.4,1.7,2.2,3.9,2.2,6.4
				C346,69.6,345.4,71.6,344.2,73.5z"/>
		</g>
	</g>
	<g id="ESTO_NEW-LOGO_00000018919995873470586220000010243414757093774268_">
		<g id="UP_2-Copy-2_00000090275348548183438800000012274748703105484720_" transform="translate(-287.000000, -522.000000)">
			<g id="BLACK_00000099654678627395524860000002528603596559466933_">
				<path d="M525.7,540.3c10.2,0,19.7,4,27,11.4c7.2,7.5,11.2,17.3,11.2,27.9c0,10.6-3.9,20.6-11.2,28.1c-7.3,7.5-16.7,11.4-27,11.4
					c-10.2,0-19.5-4-26.8-11.4c-7.4-7.6-11.3-17.5-11.3-28.1c0-10.6,3.9-20.3,11.3-27.9C506.2,544.3,515.5,540.3,525.7,540.3z
					 M525.7,554.7c-6.3,0-11.9,2.7-16.1,7.2c-4.1,4.5-6.6,10.6-6.6,17.6c0,7,2.5,13.2,6.6,17.7c4.1,4.5,9.8,7.3,16,7.3
					c6.2,0,11.9-2.8,16-7.3c4.1-4.5,6.6-10.7,6.6-17.7c0-7-2.5-13.2-6.6-17.6C537.7,557.4,532,554.7,525.7,554.7z M324,540.2
					c6.4,0,12.2,1.4,17.2,4.2c5.1,2.8,9.1,6.7,12.1,11.7c3,5,4.5,10.7,4.5,17.2c0,1.1-0.1,4.9-0.2,11.3l0,0.4l-54.5,0
					c1.2,5.7,3.6,9.8,7.5,12.9c4.1,3.2,9.6,4.9,16.6,5.2l0.6,0l1.7,0h24.2v14.6h-24.3c-13.3,0-23.6-3.5-31-10.4
					c-7.5-6.9-11.3-15.7-11.3-29c0-6.7,1.5-12.9,4.6-18.7c3.1-5.8,7.3-10.5,12.8-14.1C309.9,542.1,316.5,540.2,324,540.2z
					 M324.7,555.3c-6,0-10.9,1.6-15.5,5.6c-2.8,2.7-4.6,6.1-5.7,10.6l0,0l40.1-0.3l0-0.5l0-0.4c-0.2-2.3-1-4.5-2.2-6.5
					c-1.5-2.6-3.7-4.6-6.5-6.2C332.1,556.1,328.7,555.3,324.7,555.3z M420.5,541.7v14.2h-31.7c-2.3,0-4.1,0.5-5.3,1.5
					c-1.2,0.9-1.8,2.3-1.8,4c0,1.3,0.5,2.4,1.5,3.4c1.2,1.2,3.1,2.3,5.7,3.4l0,0l13.6,5.6c7.4,3.1,13.1,5.9,16.7,9.7
					c3.2,3.4,4.9,7.5,4.9,13.2c0,7.2-2.6,12.5-7.8,16c-5.1,3.4-12.9,5.2-23.4,5.2l0,0l-0.6,0h-24.7v-14.5h31.7c3,0,5.4-0.6,7.1-1.7
					c1.5-1.1,2.4-2.6,2.4-4.5c0-1.7-0.6-3-1.8-4.1c-1.5-1.4-3.9-2.6-7.1-4l0,0l-13-5.3c-7.1-2.9-12.2-5.7-15.5-9.3
					c-3.1-3.4-4.6-7.5-4.6-12.9c0-6.2,2.3-11.2,6.6-14.5c4.2-3.2,10.4-5.1,18.5-5.1l0,0l0.5,0H420.5z M435,522h15v19.7h29.2v14.4
					H450V587c0,5.6,1.2,9.7,4,12.4c2.8,2.7,7,3.9,12.9,4l0,0l12.3,0v14.5h-12.1c-10.6,0-18.5-2.4-23.9-7c-5.4-4.7-8.2-11.6-8.3-21
					l0,0l0-0.6V522z"/>
			</g>
		</g>
	</g>
</g>
</svg>
