<?xml version="1.0" encoding="utf-8"?>
<!-- Generator: Adobe Illustrator 26.3.1, SVG Export Plug-In . SVG Version: 6.00 Build 0)  -->
<svg version="1.1" id="Layer_1" xmlns="http://www.w3.org/2000/svg" xmlns:xlink="http://www.w3.org/1999/xlink" x="0px" y="0px"
	 viewBox="0 0 276.9 154.5" style="enable-background:new 0 0 276.9 154.5;" xml:space="preserve">
<style type="text/css">
	.st0{fill:#003FFF;}
</style>
<g>
	<g>
		<path class="st0" d="M3.1,145.9v-30.3h4.3v10.8h0.2c0.5-0.7,1.3-1.3,2.4-1.9c1.1-0.5,2.4-0.8,3.8-0.8c1.7,0,3.2,0.4,4.5,1.1
			c1.3,0.8,2.3,1.8,3.1,3.2c0.7,1.4,1.1,3,1.1,4.8v13.1h-4.3v-12.7c0-1.6-0.5-2.9-1.5-3.9c-1-1-2.3-1.6-3.8-1.6
			c-1,0-1.9,0.2-2.8,0.7c-0.9,0.5-1.5,1.2-2,2c-0.5,0.8-0.7,1.7-0.7,2.7v12.7H3.1z"/>
		<path class="st0" d="M32.7,120H28v-4.3h4.7V120z M32.5,145.9h-4.3v-21.8h4.3V145.9z"/>
		<path class="st0" d="M38.3,145.9v-21.8H42l0.4,2h0.2c0.4-0.7,1-1.2,1.6-1.5c0.6-0.3,1.5-0.5,2.5-0.5h3.8v4h-3.4
			c-1.4,0-2.6,0.4-3.3,1.2c-0.8,0.8-1.2,1.9-1.2,3.3v13.2H38.3z"/>
		<path class="st0" d="M57.5,144.9c-1.6-1-2.9-2.3-3.9-4s-1.4-3.7-1.4-5.9c0-2.2,0.5-4.1,1.4-5.8c0.9-1.7,2.2-3.1,3.9-4
			c1.6-1,3.5-1.5,5.5-1.5c1.9,0,3.7,0.5,5.3,1.4c1.6,0.9,2.8,2.2,3.7,3.8c0.9,1.6,1.4,3.4,1.4,5.5c0,1-0.1,1.8-0.2,2.3H56.5
			c0.2,1.8,0.9,3.2,2.1,4.3c1.2,1.1,2.7,1.7,4.4,1.7c1.2,0,2.3-0.3,3.2-0.8c0.9-0.5,1.6-1.3,2.1-2.1h4.5c-0.7,1.9-1.8,3.5-3.5,4.8
			c-1.7,1.3-3.8,1.9-6.2,1.9C61,146.3,59.2,145.8,57.5,144.9z M69.1,133.3c-0.1-1.7-0.8-3.2-1.9-4.3c-1.1-1.1-2.5-1.7-4.2-1.7
			c-1.7,0-3.2,0.6-4.4,1.7c-1.2,1.1-1.9,2.6-2.1,4.3H69.1z"/>
		<path class="st0" d="M91.2,135.5H77v-4h14.2V135.5z"/>
		<path class="st0" d="M96,154.5v-30.4h3.7l0.4,2.8h0.2c1.7-2.1,3.9-3.2,6.8-3.2c1.9,0,3.6,0.5,5.1,1.4s2.7,2.3,3.6,4
			c0.9,1.7,1.3,3.7,1.3,5.9c0,2.2-0.4,4.2-1.3,5.9c-0.9,1.7-2.1,3.1-3.6,4s-3.2,1.4-5.1,1.4c-1.4,0-2.7-0.3-3.8-0.8
			c-1.1-0.5-2-1.3-2.8-2.3h-0.2v11.3H96z M109.7,141.4c1-0.6,1.7-1.5,2.3-2.6c0.6-1.1,0.8-2.4,0.8-3.9c0-1.4-0.3-2.7-0.8-3.8
			c-0.6-1.1-1.3-2-2.3-2.6c-1-0.6-2-0.9-3.1-0.9s-2.2,0.3-3.1,0.9c-1,0.6-1.7,1.5-2.3,2.6c-0.6,1.1-0.8,2.4-0.8,3.8
			c0,1.4,0.3,2.7,0.8,3.9c0.6,1.1,1.3,2,2.3,2.6s2,0.9,3.1,0.9S108.8,142,109.7,141.4z"/>
		<path class="st0" d="M125.9,145.2c-1.3-0.8-2.3-1.8-3.1-3.2c-0.7-1.4-1.1-3-1.1-4.8v-13.1h4.3v12.7c0,1.6,0.5,2.9,1.5,3.9
			c1,1,2.3,1.6,3.8,1.6c1,0,1.9-0.2,2.8-0.7c0.9-0.5,1.5-1.2,2-2c0.5-0.8,0.7-1.7,0.7-2.7v-12.7h4.3v21.8h-3.7l-0.4-2.3h-0.2
			c-0.6,0.7-1.5,1.3-2.6,1.9c-1.1,0.5-2.4,0.8-3.8,0.8C128.7,146.3,127.2,145.9,125.9,145.2z"/>
		<path class="st0" d="M146.9,145.9v-21.8h3.7l0.4,2h0.2c0.4-0.7,1-1.2,1.6-1.5c0.6-0.3,1.4-0.5,2.5-0.5h3.8v4h-3.4
			c-1.4,0-2.6,0.4-3.3,1.2c-0.8,0.8-1.2,1.9-1.2,3.3v13.2H146.9z"/>
		<path class="st0" d="M166.1,144.9c-1.6-1-2.9-2.3-3.9-4c-0.9-1.7-1.4-3.7-1.4-5.9c0-2.2,0.5-4.1,1.4-5.8c0.9-1.7,2.2-3.1,3.9-4
			s3.5-1.5,5.5-1.5c2.6,0,4.8,0.7,6.6,2.2c1.8,1.5,2.9,3.4,3.4,5.7h-4.3c-0.4-1.2-1.1-2.2-2-2.9c-1-0.7-2.2-1-3.6-1
			c-1.2,0-2.3,0.3-3.2,0.9c-1,0.6-1.8,1.5-2.3,2.6c-0.6,1.1-0.9,2.4-0.9,3.8c0,1.4,0.3,2.7,0.9,3.9c0.6,1.1,1.4,2,2.3,2.6
			c1,0.6,2.1,0.9,3.2,0.9c1.4,0,2.7-0.4,3.6-1.1c1-0.7,1.7-1.7,2-3h4.3c-0.5,2.4-1.7,4.3-3.4,5.8c-1.8,1.5-4,2.3-6.6,2.3
			C169.6,146.3,167.8,145.8,166.1,144.9z"/>
		<path class="st0" d="M186.1,145.9v-30.3h4.3v10.8h0.2c0.5-0.7,1.3-1.3,2.4-1.9c1.1-0.5,2.4-0.8,3.8-0.8c1.7,0,3.2,0.4,4.5,1.1
			c1.3,0.8,2.3,1.8,3.1,3.2c0.7,1.4,1.1,3,1.1,4.8v13.1h-4.3v-12.7c0-1.6-0.5-2.9-1.5-3.9c-1-1-2.3-1.6-3.8-1.6
			c-1,0-1.9,0.2-2.8,0.7c-0.9,0.5-1.5,1.2-2,2c-0.5,0.8-0.7,1.7-0.7,2.7v12.7H186.1z"/>
		<path class="st0" d="M214,145.4c-1.2-0.6-2.1-1.4-2.7-2.4c-0.6-1-1-2.2-1-3.4c0-2.1,0.7-3.8,2.2-5.1c1.5-1.3,3.7-1.9,6.6-1.9h5.5
			V132c0-1.4-0.4-2.5-1.2-3.4c-0.8-0.8-1.9-1.3-3.4-1.3c-1.4,0-2.5,0.3-3.3,0.9c-0.8,0.6-1.3,1.4-1.5,2.2h-4.2
			c0.1-1.2,0.5-2.3,1.2-3.4c0.7-1.1,1.7-1.9,3.1-2.5c1.3-0.6,2.9-1,4.7-1c2.7,0,4.9,0.8,6.5,2.3c1.6,1.5,2.4,3.5,2.4,6.1v13.9h-3.7
			l-0.4-2.4h-0.2c-0.5,0.7-1.3,1.4-2.5,1.9c-1.2,0.6-2.5,0.9-4,0.9S215.2,146,214,145.4z M223,141.1c1.1-1.1,1.6-2.5,1.6-4.3V136
			h-5.2c-1.6,0-2.8,0.3-3.6,1c-0.8,0.6-1.2,1.5-1.2,2.5c0,1,0.3,1.8,1,2.4c0.7,0.6,1.6,0.9,2.9,0.9
			C220.4,142.6,221.9,142.1,223,141.1z"/>
		<path class="st0" d="M237.1,145.3c-1.4-0.7-2.4-1.6-3.1-2.6c-0.7-1.1-1-2.1-1-3.2h4.2c0,0.9,0.4,1.7,1.3,2.3c0.9,0.6,2,1,3.6,1
			c1.5,0,2.7-0.3,3.5-0.8c0.8-0.5,1.2-1.2,1.2-2c0-0.8-0.3-1.4-0.8-1.9c-0.5-0.5-1.4-0.8-2.6-1l-3.5-0.6c-4.4-0.8-6.5-2.8-6.5-6.2
			c0-1.9,0.7-3.4,2.2-4.7c1.5-1.2,3.6-1.8,6.3-1.8c1.8,0,3.4,0.3,4.7,1c1.3,0.7,2.4,1.5,3.1,2.6c0.7,1,1.1,2.1,1.1,3.3h-4.2
			c0-0.9-0.4-1.7-1.3-2.3c-0.9-0.6-2-0.9-3.4-0.9c-1.4,0-2.4,0.3-3.2,0.8c-0.7,0.5-1.1,1.2-1.1,2c0,0.7,0.3,1.2,0.8,1.6
			c0.5,0.4,1.3,0.8,2.4,1l3.6,0.6c2.3,0.4,3.9,1.1,5,2.2c1.1,1.1,1.6,2.5,1.6,4.3c0,1.9-0.8,3.4-2.3,4.7c-1.5,1.2-3.7,1.8-6.6,1.8
			C240.1,146.3,238.4,146,237.1,145.3z"/>
		<path class="st0" d="M259.3,144.9c-1.6-1-2.9-2.3-3.9-4c-0.9-1.7-1.4-3.7-1.4-5.9c0-2.2,0.5-4.1,1.4-5.8c0.9-1.7,2.2-3.1,3.9-4
			c1.6-1,3.5-1.5,5.5-1.5c1.9,0,3.7,0.5,5.3,1.4c1.6,0.9,2.8,2.2,3.7,3.8c0.9,1.6,1.4,3.4,1.4,5.5c0,1-0.1,1.8-0.2,2.3h-16.6
			c0.2,1.8,0.9,3.2,2.1,4.3c1.2,1.1,2.7,1.7,4.4,1.7c1.2,0,2.3-0.3,3.2-0.8c0.9-0.5,1.6-1.3,2.1-2.1h4.5c-0.7,1.9-1.8,3.5-3.5,4.8
			c-1.7,1.3-3.8,1.9-6.2,1.9C262.8,146.3,261,145.8,259.3,144.9z M270.9,133.3c-0.1-1.7-0.8-3.2-1.9-4.3c-1.1-1.1-2.5-1.7-4.2-1.7
			c-1.7,0-3.2,0.6-4.4,1.7c-1.2,1.1-1.9,2.6-2.1,4.3H270.9z"/>
	</g>
	<g id="ESTO_NEW-LOGO_00000028307824618909137890000011069945671135732159_">
		<g id="UP_2-Copy-2_00000147196234581397080210000001273137459150362536_" transform="translate(-287.000000, -522.000000)">
			<g id="BLACK_00000152971428587865152840000011058386204983543732_">
				<path d="M525.7,540.3c10.2,0,19.7,4,27,11.4c7.2,7.5,11.2,17.3,11.2,27.9c0,10.6-3.9,20.6-11.2,28.1c-7.3,7.5-16.7,11.4-27,11.4
					c-10.2,0-19.5-4-26.8-11.4c-7.4-7.6-11.3-17.5-11.3-28.1c0-10.6,3.9-20.3,11.3-27.9C506.2,544.3,515.5,540.3,525.7,540.3z
					 M525.7,554.7c-6.3,0-11.9,2.7-16.1,7.2c-4.1,4.5-6.6,10.6-6.6,17.6c0,7,2.5,13.2,6.6,17.7c4.1,4.5,9.8,7.3,16,7.3
					c6.2,0,11.9-2.8,16-7.3c4.1-4.5,6.6-10.7,6.6-17.7c0-7-2.5-13.2-6.6-17.6C537.7,557.4,532,554.7,525.7,554.7z M324,540.2
					c6.4,0,12.2,1.4,17.2,4.2c5.1,2.8,9.1,6.7,12.1,11.7c3,5,4.5,10.7,4.5,17.2c0,1.1-0.1,4.9-0.2,11.3l0,0.4l-54.5,0
					c1.2,5.7,3.6,9.8,7.5,12.9c4.1,3.2,9.6,4.9,16.6,5.2l0.6,0l1.7,0h24.2v14.6h-24.3c-13.3,0-23.6-3.5-31-10.4
					c-7.5-6.9-11.3-15.7-11.3-29c0-6.7,1.5-12.9,4.6-18.7c3.1-5.8,7.3-10.5,12.8-14.1C309.9,542.1,316.5,540.2,324,540.2z
					 M324.7,555.3c-6,0-10.9,1.6-15.5,5.6c-2.8,2.7-4.6,6.1-5.7,10.6l0,0l40.1-0.3l0-0.5l0-0.4c-0.2-2.3-1-4.5-2.2-6.5
					c-1.5-2.6-3.7-4.6-6.5-6.2C332.1,556.1,328.7,555.3,324.7,555.3z M420.5,541.7v14.2h-31.7c-2.3,0-4.1,0.5-5.3,1.5
					c-1.2,0.9-1.8,2.3-1.8,4c0,1.3,0.5,2.4,1.5,3.4c1.2,1.2,3.1,2.3,5.7,3.4l0,0l13.6,5.6c7.4,3.1,13.1,5.9,16.7,9.7
					c3.2,3.4,4.9,7.5,4.9,13.2c0,7.2-2.6,12.5-7.8,16c-5.1,3.4-12.9,5.2-23.4,5.2l0,0l-0.6,0h-24.7v-14.5h31.7c3,0,5.4-0.6,7.1-1.7
					c1.5-1.1,2.4-2.6,2.4-4.5c0-1.7-0.6-3-1.8-4.1c-1.5-1.4-3.9-2.6-7.1-4l0,0l-13-5.3c-7.1-2.9-12.2-5.7-15.5-9.3
					c-3.1-3.4-4.6-7.5-4.6-12.9c0-6.2,2.3-11.2,6.6-14.5c4.2-3.2,10.4-5.1,18.5-5.1l0,0l0.5,0H420.5z M435,522h15v19.7h29.2v14.4
					H450V587c0,5.6,1.2,9.7,4,12.4c2.8,2.7,7,3.9,12.9,4l0,0l12.3,0v14.5h-12.1c-10.6,0-18.5-2.4-23.9-7c-5.4-4.7-8.2-11.6-8.3-21
					l0,0l0-0.6V522z"/>
			</g>
		</g>
	</g>
</g>
</svg>
