<?xml version="1.0" encoding="utf-8"?>
<!-- Generator: Adobe Illustrator 26.3.1, SVG Export Plug-In . SVG Version: 6.00 Build 0)  -->
<svg version="1.1" id="Layer_1" xmlns="http://www.w3.org/2000/svg" xmlns:xlink="http://www.w3.org/1999/xlink" x="0px" y="0px"
	 viewBox="0 0 489.4 133.3" style="enable-background:new 0 0 489.4 133.3;" xml:space="preserve">
<style type="text/css">
	.st0{fill:#003FFF;}
</style>
<g>
	<g>
		<g>
			<path class="st0" d="M316.5,62v-43h18.7c2.3,0,4.3,0.6,6.2,1.7c1.9,1.1,3.3,2.7,4.5,4.7c1.1,2,1.7,4.3,1.7,6.8
				c0,2.5-0.6,4.7-1.7,6.8c-1.1,2-2.6,3.6-4.5,4.7c-1.9,1.1-3.9,1.7-6.2,1.7h-13.8V62H316.5z M335.3,40.9c2,0,3.8-0.8,5.2-2.4
				c1.4-1.6,2.1-3.7,2.1-6.2c0-2.5-0.7-4.6-2.1-6.2c-1.4-1.6-3.2-2.4-5.2-2.4h-13.8v17.2H335.3z"/>
		</g>
		<g>
			<path class="st0" d="M386.8,62h-5.2L377.5,51h-21.2L352.1,62h-5.2l16.3-43h7.4L386.8,62z M366.3,24.3L358,46.4h17.8l-8.3-22.1
				H366.3z"/>
		</g>
		<g>
			<path class="st0" d="M403.7,62h-4.9V45.8l-15.7-26.7h5.2l12.3,21.2h1.2l12.3-21.2h5.2l-15.7,26.7V62z"/>
		</g>
	</g>
	<g>
		<g>
			<path class="st0" d="M342.9,114.6h-26.4v-43h4.9V110h21.5V114.6z"/>
		</g>
		<g>
			<path class="st0" d="M384.1,114.6h-5.2l-4.1-11.1h-21.2l-4.1,11.1h-5.2l16.3-43h7.4L384.1,114.6z M363.5,76.9L355.2,99H373
				l-8.3-22.1H363.5z"/>
		</g>
		<g>
			<path class="st0" d="M401,114.6h-4.9V76.2h-14.1v-4.6h33.2v4.6H401V114.6z"/>
		</g>
		<g>
			<path class="st0" d="M449.2,114.6h-27.6v-43h27.6v4.6h-22.7v14.4h21.5v4.6h-21.5V110h22.7V114.6z"/>
		</g>
		<g>
			<path class="st0" d="M472.1,98l17.3,16.6h-6.1L466,98h-3.7v16.6h-4.9v-43h18.7c2.3,0,4.3,0.6,6.2,1.7c1.9,1.1,3.3,2.7,4.5,4.7
				c1.1,2,1.7,4.3,1.7,6.8c0,2.5-0.6,4.7-1.7,6.8c-1.1,2-2.6,3.6-4.5,4.7c-1.9,1.1-3.9,1.7-6.2,1.7H472.1z M462.4,93.4h13.8
				c2,0,3.8-0.8,5.2-2.4c1.4-1.6,2.1-3.7,2.1-6.2c0-2.5-0.7-4.6-2.1-6.2c-1.4-1.6-3.2-2.4-5.2-2.4h-13.8V93.4z"/>
		</g>
	</g>
	<g>
		<rect x="295.6" width="2" height="133.3"/>
	</g>
	<g id="ESTO_NEW-LOGO_00000092447278393077332620000013352505407628196736_">
		<g id="UP_2-Copy-2_00000107552980163623603650000011246548762948798647_" transform="translate(-287.000000, -522.000000)">
			<g id="BLACK_00000177473074869816896180000001774495242295285123_">
				<path d="M525.7,559.1c10.2,0,19.7,4,27,11.4c7.2,7.5,11.2,17.3,11.2,27.9c0,10.6-3.9,20.6-11.2,28.1c-7.3,7.5-16.7,11.4-27,11.4
					c-10.2,0-19.5-4-26.8-11.4c-7.4-7.6-11.3-17.5-11.3-28.1c0-10.6,3.9-20.3,11.3-27.9C506.2,563,515.5,559.1,525.7,559.1z
					 M525.7,573.4c-6.3,0-11.9,2.7-16.1,7.2c-4.1,4.5-6.6,10.6-6.6,17.6c0,7,2.5,13.2,6.6,17.7c4.1,4.5,9.8,7.3,16,7.3
					c6.2,0,11.9-2.8,16-7.3c4.1-4.5,6.6-10.7,6.6-17.7c0-7-2.5-13.2-6.6-17.6C537.7,576.2,532,573.4,525.7,573.4z M324,559
					c6.4,0,12.2,1.4,17.2,4.2c5.1,2.8,9.1,6.7,12.1,11.7c3,5,4.5,10.7,4.5,17.2c0,1.1-0.1,4.9-0.2,11.3l0,0.4l-54.5,0
					c1.2,5.7,3.6,9.8,7.5,12.9c4.1,3.2,9.6,4.9,16.6,5.2l0.6,0l1.7,0h24.2v14.6h-24.3c-13.3,0-23.6-3.5-31-10.4
					c-7.5-6.9-11.3-15.7-11.3-29c0-6.7,1.5-12.9,4.6-18.7c3.1-5.8,7.3-10.5,12.8-14.1C309.9,560.8,316.5,559,324,559z M324.7,574.1
					c-6,0-10.9,1.6-15.5,5.6c-2.8,2.7-4.6,6.1-5.7,10.6l0,0l40.1-0.3l0-0.5l0-0.4c-0.2-2.3-1-4.5-2.2-6.5c-1.5-2.6-3.7-4.6-6.5-6.2
					C332.1,574.8,328.7,574.1,324.7,574.1z M420.5,560.4v14.2h-31.7c-2.3,0-4.1,0.5-5.3,1.5c-1.2,0.9-1.8,2.3-1.8,4
					c0,1.3,0.5,2.4,1.5,3.4c1.2,1.2,3.1,2.3,5.7,3.4l0,0l13.6,5.6c7.4,3.1,13.1,5.9,16.7,9.7c3.2,3.4,4.9,7.5,4.9,13.2
					c0,7.2-2.6,12.5-7.8,16c-5.1,3.4-12.9,5.2-23.4,5.2l0,0l-0.6,0h-24.7V622h31.7c3,0,5.4-0.6,7.1-1.7c1.5-1.1,2.4-2.6,2.4-4.5
					c0-1.7-0.6-3-1.8-4.1c-1.5-1.4-3.9-2.6-7.1-4l0,0l-13-5.3c-7.1-2.9-12.2-5.7-15.5-9.3c-3.1-3.4-4.6-7.5-4.6-12.9
					c0-6.2,2.3-11.2,6.6-14.5c4.2-3.2,10.4-5.1,18.5-5.1l0,0l0.5,0H420.5z M435,540.7h15v19.7h29.2v14.4H450v30.9
					c0,5.6,1.2,9.7,4,12.4c2.8,2.7,7,3.9,12.9,4l0,0l12.3,0v14.5h-12.1c-10.6,0-18.5-2.4-23.9-7c-5.4-4.7-8.2-11.6-8.3-21l0,0l0-0.6
					V540.7z"/>
			</g>
		</g>
	</g>
</g>
</svg>
