<?xml version="1.0" encoding="utf-8"?>
<!-- Generator: Adobe Illustrator 26.3.1, SVG Export Plug-In . SVG Version: 6.00 Build 0)  -->
<svg version="1.1" id="Layer_1" xmlns="http://www.w3.org/2000/svg" xmlns:xlink="http://www.w3.org/1999/xlink" x="0px" y="0px"
	 viewBox="0 0 366.4 142" style="enable-background:new 0 0 366.4 142;" xml:space="preserve">
<style type="text/css">
	.st0{fill:#003FFF;}
</style>
<g>
	<g>
		<path d="M5.3,136.1H2.3v-20.5h16.4v20.5h-3.1v-17.6H5.3V136.1z"/>
		<path d="M21.1,136.3v-2.8h0.8c1.2,0,1.8-0.7,1.9-2.1l0.8-10h10.4v14.7h-2.9v-12h-4.9l-0.7,7.6c-0.2,1.5-0.6,2.7-1.3,3.5
			c-0.7,0.8-1.8,1.2-3.2,1.2H21.1z"/>
		<path d="M40.9,135.8c-0.8-0.4-1.4-0.9-1.8-1.6c-0.4-0.7-0.6-1.5-0.6-2.3c0-1.4,0.5-2.6,1.5-3.5c1-0.9,2.5-1.3,4.5-1.3h3.7v-0.4
			c0-1-0.3-1.7-0.8-2.3c-0.6-0.6-1.3-0.8-2.3-0.8c-0.9,0-1.7,0.2-2.2,0.6c-0.6,0.4-0.9,0.9-1,1.5h-2.8c0.1-0.8,0.3-1.6,0.8-2.3
			c0.5-0.7,1.2-1.3,2.1-1.7c0.9-0.4,2-0.6,3.2-0.6c1.8,0,3.3,0.5,4.4,1.5c1.1,1,1.6,2.4,1.6,4.1v9.4h-2.5l-0.3-1.6H48
			c-0.3,0.5-0.9,0.9-1.7,1.3c-0.8,0.4-1.7,0.6-2.7,0.6C42.6,136.4,41.7,136.2,40.9,135.8z M47,132.8c0.7-0.7,1.1-1.7,1.1-2.9v-0.5
			h-3.5c-1.1,0-1.9,0.2-2.4,0.6s-0.8,1-0.8,1.7c0,0.7,0.2,1.2,0.7,1.6c0.5,0.4,1.1,0.6,1.9,0.6C45.2,133.9,46.2,133.6,47,132.8z"/>
		<path d="M60.5,136.1h-2.9v-12h-4.9v-2.7h12.6v2.7h-4.8V136.1z"/>
		<path d="M72,136.1h-4.3v-14.7h2.9v10.7h0.6l5-10.7h4.2v14.7h-2.9v-10.7H77L72,136.1z"/>
		<path d="M91.5,136.1v-14.7h7.9c1.3,0,2.3,0.4,3.1,1.1c0.8,0.8,1.2,1.8,1.2,3c0,0.7-0.2,1.4-0.5,1.9c-0.4,0.5-0.8,0.9-1.2,1.1v0.1
			c0.5,0.2,1,0.6,1.4,1.2c0.4,0.6,0.6,1.3,0.6,2.1c0,0.8-0.2,1.5-0.6,2.1c-0.4,0.6-0.9,1.1-1.5,1.5c-0.6,0.4-1.4,0.5-2.2,0.5H91.5z
			 M98.9,127.5c0.5,0,1-0.2,1.4-0.5c0.4-0.4,0.6-0.8,0.6-1.4c0-0.6-0.2-1-0.6-1.4c-0.4-0.4-0.8-0.5-1.4-0.5h-4.5v3.8H98.9z
			 M99.1,133.8c0.5,0,1-0.2,1.4-0.6c0.4-0.4,0.6-0.8,0.6-1.4s-0.2-1.1-0.6-1.4c-0.4-0.4-0.8-0.6-1.4-0.6h-4.7v4H99.1z"/>
		<path d="M116.6,135.6c-1.1-0.5-1.9-1.3-2.5-2.2c-0.6-0.9-0.9-1.9-0.9-3.1h3.1c0,0.9,0.4,1.6,1.1,2.3c0.7,0.6,1.7,0.9,2.9,0.9
			c1.2,0,2.1-0.3,2.8-0.9c0.7-0.6,1.1-1.4,1.1-2.3c0-1-0.4-1.8-1.1-2.4c-0.7-0.6-1.7-0.9-2.9-0.9h-1.3v-2.7h1.3c1.1,0,2-0.3,2.7-0.9
			c0.6-0.6,1-1.3,1-2.2c0-0.8-0.3-1.5-1-2.1c-0.7-0.6-1.5-0.9-2.6-0.9c-1,0-1.9,0.3-2.6,0.9c-0.7,0.6-1,1.3-1,2.1h-3.1
			c0-1.1,0.3-2,0.9-2.9c0.6-0.9,1.4-1.6,2.4-2.1c1-0.5,2.2-0.8,3.5-0.8c1.3,0,2.4,0.3,3.4,0.8c1,0.5,1.8,1.2,2.3,2.1
			c0.6,0.9,0.8,1.9,0.8,2.9c0,1.1-0.3,2.1-1,2.9c-0.6,0.8-1.3,1.3-2.1,1.6v0.1c0.8,0.3,1.6,0.8,2.3,1.7c0.7,0.8,1,1.9,1,3.1
			c0,1.1-0.3,2.1-0.9,3c-0.6,0.9-1.4,1.6-2.5,2.2s-2.3,0.8-3.6,0.8C118.8,136.4,117.6,136.1,116.6,135.6z"/>
		<path d="M139.6,129.1H130v-2.7h9.6V129.1z"/>
		<path d="M143.8,136.1h-3.3l5-7.5l-4.8-7.2h3.3l3.3,5.1h0.6l3.3-5.1h3.3l-4.8,7.2l5,7.5h-3.4l-3.5-5.4h-0.6L143.8,136.1z"/>
		<path d="M163.4,142v-20.6h2.5l0.3,1.9h0.1c1.1-1.4,2.7-2.2,4.6-2.2c1.3,0,2.4,0.3,3.5,1c1,0.6,1.8,1.5,2.4,2.7
			c0.6,1.2,0.9,2.5,0.9,4c0,1.5-0.3,2.8-0.9,4c-0.6,1.2-1.4,2.1-2.4,2.7c-1,0.6-2.2,1-3.5,1c-1,0-1.8-0.2-2.6-0.6
			c-0.7-0.4-1.4-0.9-1.9-1.5h-0.1v7.6H163.4z M172.7,133.1c0.7-0.4,1.2-1,1.6-1.8c0.4-0.8,0.6-1.6,0.6-2.6c0-1-0.2-1.8-0.6-2.6
			c-0.4-0.8-0.9-1.3-1.6-1.7c-0.7-0.4-1.4-0.6-2.1-0.6c-0.8,0-1.5,0.2-2.1,0.6c-0.7,0.4-1.2,1-1.6,1.7c-0.4,0.8-0.6,1.6-0.6,2.6
			c0,1,0.2,1.8,0.6,2.6c0.4,0.8,0.9,1.3,1.6,1.8c0.7,0.4,1.4,0.6,2.1,0.6C171.3,133.7,172,133.5,172.7,133.1z"/>
		<path d="M182.6,135.8c-0.8-0.4-1.4-0.9-1.8-1.6c-0.4-0.7-0.6-1.5-0.6-2.3c0-1.4,0.5-2.6,1.5-3.5c1-0.9,2.5-1.3,4.4-1.3h3.7v-0.4
			c0-1-0.3-1.7-0.8-2.3c-0.6-0.6-1.3-0.8-2.3-0.8c-0.9,0-1.7,0.2-2.2,0.6c-0.6,0.4-0.9,0.9-1,1.5h-2.8c0.1-0.8,0.3-1.6,0.8-2.3
			c0.5-0.7,1.2-1.3,2.1-1.7c0.9-0.4,2-0.6,3.2-0.6c1.8,0,3.3,0.5,4.4,1.5s1.6,2.4,1.6,4.1v9.4h-2.5l-0.3-1.6h-0.1
			c-0.3,0.5-0.9,0.9-1.7,1.3c-0.8,0.4-1.7,0.6-2.7,0.6C184.4,136.4,183.4,136.2,182.6,135.8z M188.7,132.8c0.7-0.7,1.1-1.7,1.1-2.9
			v-0.5h-3.5c-1.1,0-1.9,0.2-2.4,0.6c-0.5,0.4-0.8,1-0.8,1.7c0,0.7,0.2,1.2,0.7,1.6c0.5,0.4,1.1,0.6,1.9,0.6
			C187,133.9,188,133.6,188.7,132.8z"/>
		<path d="M196.6,136.1v-14.7h7.9c1.3,0,2.3,0.4,3.1,1.1c0.8,0.8,1.2,1.8,1.2,3c0,0.7-0.2,1.4-0.5,1.9c-0.4,0.5-0.8,0.9-1.2,1.1v0.1
			c0.5,0.2,1,0.6,1.4,1.2c0.4,0.6,0.6,1.3,0.6,2.1c0,0.8-0.2,1.5-0.6,2.1c-0.4,0.6-0.9,1.1-1.5,1.5c-0.6,0.4-1.4,0.5-2.2,0.5H196.6z
			 M203.9,127.5c0.5,0,1-0.2,1.4-0.5c0.4-0.4,0.6-0.8,0.6-1.4c0-0.6-0.2-1-0.6-1.4c-0.4-0.4-0.8-0.5-1.4-0.5h-4.4v3.8H203.9z
			 M204.2,133.8c0.5,0,1-0.2,1.4-0.6s0.6-0.8,0.6-1.4s-0.2-1.1-0.6-1.4c-0.4-0.4-0.8-0.6-1.4-0.6h-4.7v4H204.2z"/>
		<path d="M215.1,136.1h-2.9v-14.7h2.9v6h6.9v-6h2.9v14.7H222v-6h-6.9V136.1z"/>
		<path d="M228.8,136.1v-14.7h2.9v4.8h3.7c1,0,1.9,0.2,2.7,0.6c0.8,0.4,1.4,1,1.8,1.8c0.4,0.8,0.6,1.6,0.6,2.6c0,1-0.2,1.8-0.6,2.6
			c-0.4,0.8-1,1.3-1.8,1.8c-0.8,0.4-1.7,0.6-2.7,0.6H228.8z M235.1,133.6c0.7,0,1.3-0.2,1.8-0.7s0.7-1.1,0.7-1.8
			c0-0.7-0.2-1.3-0.7-1.8s-1.1-0.7-1.8-0.7h-3.4v5H235.1z M245.4,136.1h-2.9v-14.7h2.9V136.1z"/>
		<path d="M250.8,136.1h-3.3l5-7.5l-4.8-7.2h3.3l3.3,5.1h0.6l3.3-5.1h3.3l-4.8,7.2l5,7.5h-3.4l-3.5-5.4h-0.6L250.8,136.1z"/>
		<path d="M279.2,130.6c-1.1,0.8-2.4,1.2-4.1,1.2c-1.7,0-3-0.5-3.9-1.4c-0.9-1-1.4-2.4-1.4-4.2v-4.7h2.9v4.5c0,1,0.3,1.8,0.8,2.3
			c0.5,0.5,1.3,0.8,2.2,0.8c0.7,0,1.4-0.1,1.9-0.3c0.5-0.2,1.1-0.5,1.6-0.9v-6.5h2.9v14.7h-2.9V130.6z"/>
		<path d="M287.9,135.8c-0.8-0.4-1.4-0.9-1.8-1.6c-0.4-0.7-0.6-1.5-0.6-2.3c0-1.4,0.5-2.6,1.5-3.5c1-0.9,2.5-1.3,4.4-1.3h3.7v-0.4
			c0-1-0.3-1.7-0.8-2.3c-0.6-0.6-1.3-0.8-2.3-0.8c-0.9,0-1.7,0.2-2.2,0.6c-0.6,0.4-0.9,0.9-1,1.5h-2.8c0.1-0.8,0.3-1.6,0.8-2.3
			c0.5-0.7,1.2-1.3,2.1-1.7c0.9-0.4,2-0.6,3.2-0.6c1.8,0,3.3,0.5,4.4,1.5s1.6,2.4,1.6,4.1v9.4h-2.5l-0.3-1.6H295
			c-0.3,0.5-0.9,0.9-1.7,1.3c-0.8,0.4-1.7,0.6-2.7,0.6C289.6,136.4,288.7,136.2,287.9,135.8z M294,132.8c0.7-0.7,1.1-1.7,1.1-2.9
			v-0.5h-3.5c-1.1,0-1.9,0.2-2.4,0.6c-0.5,0.4-0.8,1-0.8,1.7c0,0.7,0.2,1.2,0.7,1.6c0.5,0.4,1.1,0.6,1.9,0.6
			C292.2,133.9,293.2,133.6,294,132.8z"/>
		<path d="M304.6,135.4c-1.1-0.7-2-1.6-2.6-2.7c-0.6-1.2-1-2.5-1-4c0-1.5,0.3-2.8,1-3.9c0.6-1.2,1.5-2.1,2.6-2.7s2.4-1,3.7-1
			c1.8,0,3.3,0.5,4.5,1.5c1.2,1,2,2.3,2.3,3.8h-2.9c-0.3-0.8-0.7-1.5-1.4-1.9s-1.5-0.7-2.5-0.7c-0.8,0-1.5,0.2-2.2,0.6
			c-0.7,0.4-1.2,1-1.6,1.7c-0.4,0.8-0.6,1.6-0.6,2.6c0,1,0.2,1.8,0.6,2.6c0.4,0.8,0.9,1.3,1.6,1.8c0.7,0.4,1.4,0.6,2.2,0.6
			c1,0,1.8-0.2,2.5-0.7c0.7-0.5,1.1-1.2,1.4-2h2.9c-0.4,1.6-1.1,2.9-2.3,3.9c-1.2,1-2.7,1.5-4.5,1.5
			C306.9,136.4,305.7,136.1,304.6,135.4z"/>
		<path d="M323.6,136.1h-2.9v-12h-4.9v-2.7h12.6v2.7h-4.8V136.1z"/>
		<path d="M342,121.4v14.7h-2.9v-5.2h-1.4l-4.9,5.2h-3.4l4.9-5.2c-0.9,0-1.6-0.2-2.3-0.6c-0.7-0.4-1.3-1-1.7-1.7
			c-0.4-0.7-0.6-1.5-0.6-2.4c0-0.9,0.2-1.7,0.6-2.5c0.4-0.7,1-1.3,1.8-1.7c0.8-0.4,1.6-0.6,2.6-0.6H342z M339.1,128.5v-4.6H335
			c-0.7,0-1.2,0.2-1.7,0.6s-0.7,1-0.7,1.7c0,0.7,0.2,1.2,0.7,1.7c0.5,0.4,1,0.6,1.7,0.6H339.1z"/>
		<path d="M347.5,136.1h-3.3l5-7.5l-4.8-7.2h3.3l3.3,5.1h0.6l3.3-5.1h3.3l-4.8,7.2l5,7.5h-3.4l-3.5-5.4H351L347.5,136.1z"/>
		<path d="M364.1,136.1h-3.3v-3.3h3.3V136.1z M363.6,130.8h-2.3L361,124v-8.4h3.1v8.4L363.6,130.8z"/>
	</g>
	<g>
		<g>
			<path class="st0" d="M355.8,19.7h-48.6c-5.9,0-10.6,4.8-10.6,10.6v54.9c0,5.9,4.8,10.6,10.6,10.6h48.6c5.9,0,10.6-4.8,10.6-10.6
				V30.3C366.4,24.4,361.6,19.7,355.8,19.7z M344.2,73.5c-1.2,1.9-2.9,3.4-5.1,4.5s-4.7,1.7-7.5,1.7c-2.9,0-5.5-0.6-7.7-1.7
				c-2.2-1.1-3.9-2.6-5.1-4.6c-1.2-1.9-1.8-4.1-1.8-6.4h6.4c0,1.9,0.7,3.4,2.2,4.7c1.5,1.3,3.5,1.9,6,1.9c2.4,0,4.3-0.6,5.8-1.9
				c1.5-1.3,2.2-2.8,2.2-4.8c0-2-0.7-3.7-2.2-5c-1.5-1.3-3.5-2-5.9-2h-2.7v-5.6h2.7c2.4,0,4.2-0.6,5.5-1.9c1.3-1.2,2-2.8,2-4.7
				c0-1.7-0.7-3.1-2.1-4.3c-1.4-1.2-3.2-1.8-5.4-1.8c-2.2,0-4,0.6-5.4,1.8c-1.4,1.2-2.2,2.7-2.2,4.3h-6.4c0-2.2,0.6-4.2,1.8-6.1
				c1.2-1.8,2.9-3.3,5-4.5c2.1-1.1,4.6-1.7,7.3-1.7c2.7,0,5.1,0.5,7.2,1.6c2.1,1.1,3.7,2.5,4.9,4.4c1.2,1.8,1.7,3.9,1.7,6.1
				c0,2.3-0.7,4.3-2,5.9c-1.3,1.6-2.8,2.8-4.4,3.3v0.3c1.7,0.6,3.3,1.7,4.8,3.5c1.4,1.7,2.2,3.9,2.2,6.4
				C346,69.6,345.4,71.6,344.2,73.5z"/>
		</g>
	</g>
	<g id="ESTO_NEW-LOGO_00000147936838032383661360000017766919258431668395_">
		<g id="UP_2-Copy-2_00000025428757811724507410000007001909034484244099_" transform="translate(-287.000000, -522.000000)">
			<g id="BLACK_00000007426442733752098190000014144501284847702422_">
				<path d="M525.7,540.3c10.2,0,19.7,4,27,11.4c7.2,7.5,11.2,17.3,11.2,27.9c0,10.6-3.9,20.6-11.2,28.1c-7.3,7.5-16.7,11.4-27,11.4
					c-10.2,0-19.5-4-26.8-11.4c-7.4-7.6-11.3-17.5-11.3-28.1c0-10.6,3.9-20.3,11.3-27.9C506.2,544.3,515.5,540.3,525.7,540.3z
					 M525.7,554.7c-6.3,0-11.9,2.7-16.1,7.2c-4.1,4.5-6.6,10.6-6.6,17.6c0,7,2.5,13.2,6.6,17.7c4.1,4.5,9.8,7.3,16,7.3
					c6.2,0,11.9-2.8,16-7.3c4.1-4.5,6.6-10.7,6.6-17.7c0-7-2.5-13.2-6.6-17.6C537.7,557.4,532,554.7,525.7,554.7z M324,540.2
					c6.4,0,12.2,1.4,17.2,4.2c5.1,2.8,9.1,6.7,12.1,11.7c3,5,4.5,10.7,4.5,17.2c0,1.1-0.1,4.9-0.2,11.3l0,0.4l-54.5,0
					c1.2,5.7,3.6,9.8,7.5,12.9c4.1,3.2,9.6,4.9,16.6,5.2l0.6,0l1.7,0h24.2v14.6h-24.3c-13.3,0-23.6-3.5-31-10.4
					c-7.5-6.9-11.3-15.7-11.3-29c0-6.7,1.5-12.9,4.6-18.7c3.1-5.8,7.3-10.5,12.8-14.1C309.9,542.1,316.5,540.2,324,540.2z
					 M324.7,555.3c-6,0-10.9,1.6-15.5,5.6c-2.8,2.7-4.6,6.1-5.7,10.6l0,0l40.1-0.3l0-0.5l0-0.4c-0.2-2.3-1-4.5-2.2-6.5
					c-1.5-2.6-3.7-4.6-6.5-6.2C332.1,556.1,328.7,555.3,324.7,555.3z M420.5,541.7v14.2h-31.7c-2.3,0-4.1,0.5-5.3,1.5
					c-1.2,0.9-1.8,2.3-1.8,4c0,1.3,0.5,2.4,1.5,3.4c1.2,1.2,3.1,2.3,5.7,3.4l0,0l13.6,5.6c7.4,3.1,13.1,5.9,16.7,9.7
					c3.2,3.4,4.9,7.5,4.9,13.2c0,7.2-2.6,12.5-7.8,16c-5.1,3.4-12.9,5.2-23.4,5.2l0,0l-0.6,0h-24.7v-14.5h31.7c3,0,5.4-0.6,7.1-1.7
					c1.5-1.1,2.4-2.6,2.4-4.5c0-1.7-0.6-3-1.8-4.1c-1.5-1.4-3.9-2.6-7.1-4l0,0l-13-5.3c-7.1-2.9-12.2-5.7-15.5-9.3
					c-3.1-3.4-4.6-7.5-4.6-12.9c0-6.2,2.3-11.2,6.6-14.5c4.2-3.2,10.4-5.1,18.5-5.1l0,0l0.5,0H420.5z M435,522h15v19.7h29.2v14.4
					H450V587c0,5.6,1.2,9.7,4,12.4c2.8,2.7,7,3.9,12.9,4l0,0l12.3,0v14.5h-12.1c-10.6,0-18.5-2.4-23.9-7c-5.4-4.7-8.2-11.6-8.3-21
					l0,0l0-0.6V522z"/>
			</g>
		</g>
	</g>
</g>
</svg>
