<?xml version="1.0" encoding="utf-8"?>
<!-- Generator: Adobe Illustrator 26.3.1, SVG Export Plug-In . SVG Version: 6.00 Build 0)  -->
<svg version="1.1" id="Layer_1" xmlns="http://www.w3.org/2000/svg" xmlns:xlink="http://www.w3.org/1999/xlink" x="0px" y="0px"
	 viewBox="0 0 366.4 151.9" style="enable-background:new 0 0 366.4 151.9;" xml:space="preserve">
<style type="text/css">
	.st0{fill:#003FFF;}
</style>
<g>
	<g>
		<path d="M3.1,143.8v-28.2h12.5c1.6,0,3,0.4,4.3,1.1c1.3,0.8,2.3,1.8,3,3.2c0.7,1.4,1.1,2.9,1.1,4.7c0,1.7-0.4,3.3-1.1,4.7
			c-0.7,1.4-1.8,2.5-3,3.2c-1.3,0.8-2.7,1.1-4.3,1.1H7.3v10.1H3.1z M15.5,129.7c1.2,0,2.2-0.5,3.1-1.4c0.8-0.9,1.3-2.1,1.3-3.6
			s-0.4-2.7-1.2-3.6c-0.8-0.9-1.9-1.4-3.1-1.4H7.3v10H15.5z"/>
		<path d="M29.5,143.4c-1.1-0.6-1.9-1.3-2.5-2.3c-0.6-1-0.9-2-0.9-3.2c0-2,0.7-3.6,2.1-4.8c1.4-1.2,3.4-1.8,6.1-1.8h5.2v-0.5
			c0-1.3-0.4-2.4-1.1-3.1c-0.8-0.8-1.8-1.2-3.1-1.2c-1.3,0-2.3,0.3-3.1,0.9c-0.8,0.6-1.2,1.3-1.4,2.1h-3.9c0.1-1.1,0.5-2.1,1.1-3.1
			c0.7-1,1.6-1.8,2.9-2.4c1.2-0.6,2.7-0.9,4.4-0.9c2.5,0,4.5,0.7,6,2.1c1.5,1.4,2.2,3.3,2.2,5.6v12.9H40l-0.4-2.2h-0.2
			c-0.5,0.7-1.2,1.3-2.3,1.8c-1.1,0.5-2.3,0.8-3.7,0.8C31.9,144.2,30.6,143.9,29.5,143.4z M37.9,139.3c1-1,1.5-2.3,1.5-4v-0.7h-4.9
			c-1.5,0-2.6,0.3-3.4,0.9c-0.7,0.6-1.1,1.4-1.1,2.3c0,0.9,0.3,1.6,0.9,2.2c0.6,0.6,1.5,0.8,2.7,0.8
			C35.5,140.8,36.9,140.3,37.9,139.3z"/>
		<path d="M61.9,123.5h4.2l-9,25.1c-0.4,1.2-0.9,2-1.6,2.5c-0.7,0.5-1.7,0.8-2.9,0.8h-4.4v-3.7h4c0.7,0,1.1-0.4,1.4-1.1l0.7-1.9
			l-8.3-21.6h4.2l5.8,15.4h0.8L61.9,123.5z"/>
		<path d="M82.2,119.7h-4.4v-4h4.4V119.7z M82,143.8h-4v-20.3h4V143.8z"/>
		<path d="M87.4,143.8v-20.3h3.4l0.4,2.1h0.2c0.5-0.6,1.3-1.2,2.3-1.7c1-0.5,2.3-0.8,3.6-0.8c1.6,0,2.9,0.4,4.2,1.1
			c1.2,0.7,2.2,1.7,2.9,3c0.7,1.3,1,2.8,1,4.4v12.2h-4V132c0-1.5-0.5-2.7-1.4-3.6c-0.9-1-2.1-1.5-3.5-1.5c-0.9,0-1.8,0.2-2.6,0.7
			c-0.8,0.5-1.4,1.1-1.9,1.9c-0.5,0.8-0.7,1.6-0.7,2.5v11.9H87.4z"/>
		<path d="M123.8,143.1c-1.5-0.7-2.6-1.7-3.4-3c-0.8-1.3-1.2-2.7-1.2-4.2h4.2c0,1.2,0.5,2.3,1.5,3.1c1,0.8,2.3,1.2,4,1.2
			c1.6,0,2.9-0.4,3.8-1.2c1-0.8,1.5-1.9,1.5-3.1c0-1.3-0.5-2.4-1.5-3.3c-1-0.9-2.3-1.3-3.9-1.3H127v-3.7h1.8c1.6,0,2.8-0.4,3.7-1.2
			c0.9-0.8,1.3-1.8,1.3-3.1c0-1.1-0.5-2-1.4-2.8c-0.9-0.8-2.1-1.2-3.6-1.2c-1.4,0-2.6,0.4-3.6,1.2c-1,0.8-1.4,1.8-1.4,2.9h-4.2
			c0-1.5,0.4-2.8,1.2-4c0.8-1.2,1.9-2.2,3.3-2.9c1.4-0.7,3-1.1,4.8-1.1c1.8,0,3.4,0.4,4.7,1.1c1.4,0.7,2.5,1.7,3.2,2.9
			c0.8,1.2,1.1,2.6,1.1,4c0,1.5-0.4,2.8-1.3,3.9c-0.9,1.1-1.8,1.8-2.9,2.2v0.2c1.2,0.4,2.2,1.1,3.2,2.3c1,1.2,1.4,2.6,1.4,4.2
			c0,1.5-0.4,2.8-1.2,4.1c-0.8,1.2-1.9,2.2-3.4,3c-1.5,0.7-3.1,1.1-5,1.1C127,144.2,125.3,143.8,123.8,143.1z"/>
		<path d="M156.8,142.9c-1.5-0.9-2.7-2.1-3.6-3.7c-0.9-1.6-1.3-3.4-1.3-5.5c0-2,0.4-3.8,1.3-5.4c0.9-1.6,2.1-2.8,3.6-3.7
			c1.5-0.9,3.2-1.4,5.1-1.4c1.8,0,3.4,0.4,4.9,1.3c1.5,0.9,2.6,2,3.5,3.5c0.8,1.5,1.3,3.2,1.3,5.1c0,0.9-0.1,1.7-0.2,2.1h-15.5
			c0.2,1.6,0.8,3,2,4c1.1,1,2.5,1.6,4.1,1.6c1.1,0,2.1-0.3,3-0.8c0.9-0.5,1.5-1.2,1.9-2h4.2c-0.6,1.8-1.7,3.3-3.3,4.5
			s-3.5,1.8-5.8,1.8C160,144.2,158.3,143.8,156.8,142.9z M167.6,132.1c-0.1-1.6-0.7-2.9-1.8-4c-1-1-2.4-1.6-3.9-1.6
			c-1.6,0-3,0.5-4.1,1.6c-1.1,1-1.8,2.4-2,4H167.6z"/>
		<path d="M190.4,151.9v-10.5h-0.2c-1.5,1.9-3.6,2.9-6.1,2.9c-1.7,0-3.3-0.4-4.8-1.3c-1.4-0.9-2.6-2.1-3.4-3.7
			c-0.8-1.6-1.2-3.4-1.2-5.5c0-2,0.4-3.9,1.2-5.5c0.8-1.6,2-2.8,3.4-3.7c1.4-0.9,3-1.3,4.8-1.3c2.6,0,4.7,1,6.3,3h0.2l0.4-2.6h3.4
			v28.3H190.4z M187.4,139.7c0.9-0.6,1.6-1.4,2.1-2.4s0.8-2.2,0.8-3.6c0-1.3-0.3-2.5-0.8-3.6c-0.5-1-1.2-1.8-2.1-2.4
			c-0.9-0.6-1.9-0.8-2.9-0.8c-1.1,0-2.1,0.3-2.9,0.8c-0.9,0.6-1.6,1.4-2.1,2.4c-0.5,1-0.8,2.2-0.8,3.6c0,1.4,0.3,2.6,0.8,3.6
			c0.5,1,1.2,1.8,2.1,2.4c0.9,0.6,1.9,0.8,2.9,0.8C185.6,140.5,186.5,140.2,187.4,139.7z"/>
		<path d="M203.6,143.1c-1.2-0.7-2.2-1.7-2.9-3c-0.7-1.3-1-2.8-1-4.4v-12.2h4v11.9c0,1.5,0.5,2.7,1.4,3.6c0.9,1,2.1,1.5,3.5,1.5
			c0.9,0,1.8-0.2,2.6-0.7c0.8-0.5,1.4-1.1,1.9-1.9c0.5-0.8,0.7-1.6,0.7-2.5v-11.9h4v20.3h-3.4l-0.4-2.1h-0.2
			c-0.6,0.7-1.4,1.3-2.4,1.8c-1,0.5-2.2,0.7-3.5,0.7C206.3,144.2,204.9,143.8,203.6,143.1z"/>
		<path d="M225.7,143.4c-1.1-0.6-1.9-1.3-2.5-2.3c-0.6-1-0.9-2-0.9-3.2c0-2,0.7-3.6,2.1-4.8c1.4-1.2,3.4-1.8,6.1-1.8h5.2v-0.5
			c0-1.3-0.4-2.4-1.1-3.1c-0.8-0.8-1.8-1.2-3.1-1.2c-1.3,0-2.3,0.3-3.1,0.9c-0.8,0.6-1.2,1.3-1.4,2.1H223c0.1-1.1,0.5-2.1,1.1-3.1
			s1.6-1.8,2.9-2.4c1.2-0.6,2.7-0.9,4.4-0.9c2.5,0,4.5,0.7,6,2.1c1.5,1.4,2.2,3.3,2.2,5.6v12.9h-3.5l-0.4-2.2h-0.2
			c-0.5,0.7-1.2,1.3-2.3,1.8c-1.1,0.5-2.3,0.8-3.7,0.8C228.1,144.2,226.9,143.9,225.7,143.4z M234.1,139.3c1-1,1.5-2.3,1.5-4v-0.7
			h-4.9c-1.5,0-2.6,0.3-3.4,0.9c-0.7,0.6-1.1,1.4-1.1,2.3c0,0.9,0.3,1.6,0.9,2.2c0.6,0.6,1.5,0.8,2.7,0.8
			C231.7,140.8,233.1,140.3,234.1,139.3z"/>
		<path d="M249.2,143.8h-4v-28.2h4V143.8z"/>
		<path d="M264.6,151.9v-28.3h3.4l0.4,2.6h0.2c1.6-2,3.7-3,6.3-3c1.7,0,3.3,0.4,4.8,1.3s2.5,2.1,3.4,3.7c0.8,1.6,1.2,3.4,1.2,5.5
			c0,2-0.4,3.9-1.2,5.5c-0.8,1.6-1.9,2.9-3.4,3.7s-3,1.3-4.8,1.3c-1.3,0-2.5-0.3-3.5-0.8c-1-0.5-1.9-1.2-2.6-2.1h-0.2v10.5H264.6z
			 M277.3,139.7c0.9-0.6,1.6-1.4,2.1-2.4c0.5-1,0.8-2.2,0.8-3.6c0-1.3-0.3-2.5-0.8-3.6c-0.5-1-1.2-1.8-2.1-2.4
			c-0.9-0.6-1.9-0.8-2.9-0.8c-1,0-2,0.3-2.9,0.8c-0.9,0.6-1.6,1.4-2.1,2.4c-0.5,1-0.8,2.2-0.8,3.6c0,1.3,0.3,2.5,0.8,3.6
			c0.5,1,1.2,1.9,2.1,2.4c0.9,0.6,1.9,0.8,2.9,0.8C275.4,140.5,276.4,140.2,277.3,139.7z"/>
		<path d="M291,143.4c-1.1-0.6-1.9-1.3-2.5-2.3c-0.6-1-0.9-2-0.9-3.2c0-2,0.7-3.6,2.1-4.8c1.4-1.2,3.4-1.8,6.1-1.8h5.2v-0.5
			c0-1.3-0.4-2.4-1.1-3.1c-0.8-0.8-1.8-1.2-3.1-1.2c-1.3,0-2.3,0.3-3.1,0.9c-0.8,0.6-1.2,1.3-1.4,2.1h-3.9c0.1-1.1,0.5-2.1,1.1-3.1
			c0.7-1,1.6-1.8,2.9-2.4c1.2-0.6,2.7-0.9,4.4-0.9c2.5,0,4.5,0.7,6,2.1c1.5,1.4,2.2,3.3,2.2,5.6v12.9h-3.5l-0.4-2.2h-0.2
			c-0.5,0.7-1.2,1.3-2.3,1.8c-1.1,0.5-2.3,0.8-3.7,0.8S292.1,143.9,291,143.4z M299.4,139.3c1-1,1.5-2.3,1.5-4v-0.7H296
			c-1.5,0-2.6,0.3-3.4,0.9c-0.7,0.6-1.1,1.4-1.1,2.3c0,0.9,0.3,1.6,0.9,2.2c0.6,0.6,1.5,0.8,2.7,0.8
			C297,140.8,298.4,140.3,299.4,139.3z"/>
		<path d="M310.2,143.8v-20.3h3.4l0.4,1.9h0.2c0.4-0.6,0.9-1.1,1.5-1.4c0.6-0.3,1.4-0.5,2.3-0.5h3.5v3.7h-3.2
			c-1.3,0-2.4,0.4-3.1,1.1c-0.7,0.7-1.1,1.8-1.1,3.1v12.3H310.2z"/>
		<path d="M330.7,143.8c-1.4,0-2.4-0.4-3.2-1.1c-0.8-0.7-1.1-1.7-1.1-3v-12.4h-3.2v-3.7h3.2v-5.9h4v5.9h4.6v3.7h-4.6v11.6
			c0,0.8,0.4,1.2,1.2,1.2h3.4v3.7H330.7z"/>
		<path d="M341.3,143.2c-1.3-0.6-2.2-1.5-2.9-2.4c-0.6-1-1-2-1-3h4c0,0.8,0.4,1.5,1.2,2.1c0.8,0.6,1.9,0.9,3.3,0.9
			c1.4,0,2.5-0.2,3.2-0.7c0.7-0.5,1.1-1.1,1.1-1.9c0-0.7-0.2-1.3-0.7-1.7c-0.5-0.4-1.3-0.7-2.4-0.9l-3.3-0.6
			c-4.1-0.7-6.1-2.6-6.1-5.8c0-1.7,0.7-3.2,2.1-4.3c1.4-1.1,3.3-1.7,5.9-1.7c1.7,0,3.2,0.3,4.4,0.9c1.2,0.6,2.2,1.4,2.9,2.4
			c0.7,1,1,2,1,3.1h-3.9c0-0.8-0.4-1.5-1.2-2.1c-0.8-0.6-1.8-0.9-3.2-0.9c-1.3,0-2.3,0.3-3,0.8c-0.7,0.5-1,1.1-1,1.9
			c0,0.6,0.2,1.1,0.7,1.5c0.5,0.4,1.2,0.7,2.3,0.9l3.3,0.6c2.1,0.3,3.6,1,4.7,2c1,1,1.5,2.3,1.5,4c0,1.7-0.7,3.2-2.2,4.3
			c-1.4,1.1-3.5,1.7-6.1,1.7C344.1,144.2,342.6,143.9,341.3,143.2z"/>
		<path d="M363.3,143.8h-4.5v-4.6h4.5V143.8z M362.6,136.5h-3.1l-0.5-9.3v-11.6h4.2v11.6L362.6,136.5z"/>
	</g>
	<g>
		<g>
			<path class="st0" d="M355.8,19.7h-48.6c-5.9,0-10.6,4.8-10.6,10.6v54.9c0,5.9,4.8,10.6,10.6,10.6h48.6c5.9,0,10.6-4.8,10.6-10.6
				V30.3C366.4,24.4,361.6,19.7,355.8,19.7z M344.2,73.5c-1.2,1.9-2.9,3.4-5.1,4.5s-4.7,1.7-7.5,1.7c-2.9,0-5.5-0.6-7.7-1.7
				c-2.2-1.1-3.9-2.6-5.1-4.6c-1.2-1.9-1.8-4.1-1.8-6.4h6.4c0,1.9,0.7,3.4,2.2,4.7c1.5,1.3,3.5,1.9,6,1.9c2.4,0,4.3-0.6,5.8-1.9
				c1.5-1.3,2.2-2.8,2.2-4.8c0-2-0.7-3.7-2.2-5c-1.5-1.3-3.5-2-5.9-2h-2.7v-5.6h2.7c2.4,0,4.2-0.6,5.5-1.9c1.3-1.2,2-2.8,2-4.7
				c0-1.7-0.7-3.1-2.1-4.3c-1.4-1.2-3.2-1.8-5.4-1.8c-2.2,0-4,0.6-5.4,1.8c-1.4,1.2-2.2,2.7-2.2,4.3h-6.4c0-2.2,0.6-4.2,1.8-6.1
				c1.2-1.8,2.9-3.3,5-4.5c2.1-1.1,4.6-1.7,7.3-1.7c2.7,0,5.1,0.5,7.2,1.6c2.1,1.1,3.7,2.5,4.9,4.4c1.2,1.8,1.7,3.9,1.7,6.1
				c0,2.3-0.7,4.3-2,5.9c-1.3,1.6-2.8,2.8-4.4,3.3v0.3c1.7,0.6,3.3,1.7,4.8,3.5c1.4,1.7,2.2,3.9,2.2,6.4
				C346,69.6,345.4,71.6,344.2,73.5z"/>
		</g>
	</g>
	<g id="ESTO_NEW-LOGO_00000070106982488895214630000012730089003347421099_">
		<g id="UP_2-Copy-2_00000132069985417594004530000014813849406944349368_" transform="translate(-287.000000, -522.000000)">
			<g id="BLACK_00000047020505049069564350000017358832454686031236_">
				<path d="M525.7,540.3c10.2,0,19.7,4,27,11.4c7.2,7.5,11.2,17.3,11.2,27.9c0,10.6-3.9,20.6-11.2,28.1c-7.3,7.5-16.7,11.4-27,11.4
					c-10.2,0-19.5-4-26.8-11.4c-7.4-7.6-11.3-17.5-11.3-28.1c0-10.6,3.9-20.3,11.3-27.9C506.2,544.3,515.5,540.3,525.7,540.3z
					 M525.7,554.7c-6.3,0-11.9,2.7-16.1,7.2c-4.1,4.5-6.6,10.6-6.6,17.6c0,7,2.5,13.2,6.6,17.7c4.1,4.5,9.8,7.3,16,7.3
					c6.2,0,11.9-2.8,16-7.3c4.1-4.5,6.6-10.7,6.6-17.7c0-7-2.5-13.2-6.6-17.6C537.7,557.4,532,554.7,525.7,554.7z M324,540.2
					c6.4,0,12.2,1.4,17.2,4.2c5.1,2.8,9.1,6.7,12.1,11.7c3,5,4.5,10.7,4.5,17.2c0,1.1-0.1,4.9-0.2,11.3l0,0.4l-54.5,0
					c1.2,5.7,3.6,9.8,7.5,12.9c4.1,3.2,9.6,4.9,16.6,5.2l0.6,0l1.7,0h24.2v14.6h-24.3c-13.3,0-23.6-3.5-31-10.4
					c-7.5-6.9-11.3-15.7-11.3-29c0-6.7,1.5-12.9,4.6-18.7c3.1-5.8,7.3-10.5,12.8-14.1C309.9,542.1,316.5,540.2,324,540.2z
					 M324.7,555.3c-6,0-10.9,1.6-15.5,5.6c-2.8,2.7-4.6,6.1-5.7,10.6l0,0l40.1-0.3l0-0.5l0-0.4c-0.2-2.3-1-4.5-2.2-6.5
					c-1.5-2.6-3.7-4.6-6.5-6.2C332.1,556.1,328.7,555.3,324.7,555.3z M420.5,541.7v14.2h-31.7c-2.3,0-4.1,0.5-5.3,1.5
					c-1.2,0.9-1.8,2.3-1.8,4c0,1.3,0.5,2.4,1.5,3.4c1.2,1.2,3.1,2.3,5.7,3.4l0,0l13.6,5.6c7.4,3.1,13.1,5.9,16.7,9.7
					c3.2,3.4,4.9,7.5,4.9,13.2c0,7.2-2.6,12.5-7.8,16c-5.1,3.4-12.9,5.2-23.4,5.2l0,0l-0.6,0h-24.7v-14.5h31.7c3,0,5.4-0.6,7.1-1.7
					c1.5-1.1,2.4-2.6,2.4-4.5c0-1.7-0.6-3-1.8-4.1c-1.5-1.4-3.9-2.6-7.1-4l0,0l-13-5.3c-7.1-2.9-12.2-5.7-15.5-9.3
					c-3.1-3.4-4.6-7.5-4.6-12.9c0-6.2,2.3-11.2,6.6-14.5c4.2-3.2,10.4-5.1,18.5-5.1l0,0l0.5,0H420.5z M435,522h15v19.7h29.2v14.4
					H450V587c0,5.6,1.2,9.7,4,12.4c2.8,2.7,7,3.9,12.9,4l0,0l12.3,0v14.5h-12.1c-10.6,0-18.5-2.4-23.9-7c-5.4-4.7-8.2-11.6-8.3-21
					l0,0l0-0.6V522z"/>
			</g>
		</g>
	</g>
</g>
</svg>
