<?xml version="1.0" encoding="utf-8"?>
<!-- Generator: Adobe Illustrator 26.3.1, SVG Export Plug-In . SVG Version: 6.00 Build 0)  -->
<svg version="1.1" id="Layer_1" xmlns="http://www.w3.org/2000/svg" xmlns:xlink="http://www.w3.org/1999/xlink" x="0px" y="0px"
	 viewBox="0 0 515.2 133.3" style="enable-background:new 0 0 515.2 133.3;" xml:space="preserve">
<style type="text/css">
	.st0{fill:#003FFF;}
</style>
<g>
	<g>
		<path class="st0" d="M321.3,61.8h-4.9V18.7h8.9l13.3,37.6h1.2L353,18.7h8.9v43.1H357V25.1h-1.2l-12.9,36.7h-7.4l-12.9-36.7h-1.2
			V61.8z"/>
	</g>
	<g>
		<path class="st0" d="M406.3,61.8H401l-4.1-11.1h-21.3l-4.1,11.1h-5.2l16.3-43.1h7.4L406.3,61.8z M385.6,23.9l-8.3,22.2h17.9
			l-8.3-22.2H385.6z"/>
	</g>
	<g>
		<path class="st0" d="M415.5,61.8h-4.9V18.7h4.9V39l18.2-20.3h6.2l-19.1,21.3L441,61.8h-6.2l-19.4-21V61.8z"/>
	</g>
	<g>
		<path class="st0" d="M449,60.6c-2.5-1.2-4.4-2.8-5.7-4.8c-1.3-2-2-4.2-2-6.6h4.9c0,1.6,0.4,3,1.3,4.3c0.9,1.3,2.2,2.4,3.9,3.1
			c1.7,0.8,3.8,1.2,6.2,1.2c3.7,0,6.4-0.7,8.1-2.1c1.8-1.4,2.6-3.3,2.6-5.6c0-1.8-0.6-3.4-1.8-4.6c-1.2-1.2-3.1-2-5.5-2.5l-8.3-1.5
			c-7-1.3-10.5-5-10.5-11.1c0-2.4,0.6-4.5,1.8-6.3c1.2-1.8,2.9-3.3,5.1-4.4c2.2-1.1,4.9-1.6,7.9-1.6c3.2,0,6,0.6,8.4,1.8
			c2.4,1.2,4.3,2.8,5.6,4.8c1.3,2,2,4.3,2,6.7h-4.9c0-1.6-0.4-3-1.3-4.3c-0.9-1.3-2.2-2.4-3.8-3.1c-1.7-0.8-3.6-1.2-5.9-1.2
			c-3.1,0-5.5,0.7-7.3,2.2c-1.7,1.4-2.6,3.3-2.6,5.5c0,1.7,0.6,3.2,1.8,4.4c1.2,1.2,2.9,2,5.3,2.4l6.8,1.2c4.3,0.8,7.4,2.1,9.4,4
			c2,1.9,3,4.5,3,7.7c0,2.4-0.6,4.5-1.8,6.4c-1.2,1.9-3,3.3-5.4,4.4c-2.4,1-5.2,1.6-8.5,1.6C454.3,62.4,451.5,61.8,449,60.6z"/>
	</g>
	<g>
		<path class="st0" d="M515.2,61.8H510l-4.1-11.1h-21.3l-4.1,11.1h-5.2l16.3-43.1h7.4L515.2,61.8z M494.6,23.9l-8.3,22.2h17.9
			l-8.3-22.2H494.6z"/>
	</g>
	<g>
		<path class="st0" d="M321.3,114.6h-4.9V71.4h4.9v19.1h24V71.4h4.9v43.1h-4.9V95.2h-24V114.6z"/>
	</g>
	<g>
		<path class="st0" d="M365,114.6h-4.9V71.4h4.9V114.6z"/>
	</g>
	<g>
		<path class="st0" d="M401.4,114.6h-26.5V71.4h4.9V110h21.6V114.6z"/>
	</g>
	<g>
		<path class="st0" d="M404.2,114.6V110h10.5c0.9,0,1.7-0.3,2.2-0.9c0.6-0.6,0.8-1.3,0.8-2.2V71.4h4.9v36.1c0,2.2-0.6,4-1.9,5.2
			c-1.3,1.3-3.1,1.9-5.5,1.9H404.2z"/>
	</g>
	<g>
		<path class="st0" d="M460,114.6h-27.7V71.4H460v4.6h-22.8v14.5h21.6v4.6h-21.6V110H460V114.6z"/>
	</g>
	<g>
		<path class="st0" d="M473.2,114.6h-4.9V71.4h8.9l13.3,37.6h1.2l13.3-37.6h8.9v43.1h-4.9V77.9h-1.2l-12.9,36.7h-7.4l-12.9-36.7
			h-1.2V114.6z"/>
	</g>
	<g>
		<rect x="295.6" width="2" height="133.3"/>
	</g>
	<g id="ESTO_NEW-LOGO_00000155832049256177791040000003054575352158575012_">
		<g id="UP_2-Copy-2_00000088095200258587817160000000591658707059051436_" transform="translate(-287.000000, -522.000000)">
			<g id="BLACK_00000170990426550370902420000004703792791903164606_">
				<path d="M525.7,559.1c10.2,0,19.7,4,27,11.4c7.2,7.5,11.2,17.3,11.2,27.9c0,10.6-3.9,20.6-11.2,28.1c-7.3,7.5-16.7,11.4-27,11.4
					c-10.2,0-19.5-4-26.8-11.4c-7.4-7.6-11.3-17.5-11.3-28.1c0-10.6,3.9-20.3,11.3-27.9C506.2,563,515.5,559.1,525.7,559.1z
					 M525.7,573.4c-6.3,0-11.9,2.7-16.1,7.2c-4.1,4.5-6.6,10.6-6.6,17.6c0,7,2.5,13.2,6.6,17.7c4.1,4.5,9.8,7.3,16,7.3
					c6.2,0,11.9-2.8,16-7.3c4.1-4.5,6.6-10.7,6.6-17.7c0-7-2.5-13.2-6.6-17.6C537.7,576.2,532,573.4,525.7,573.4z M324,559
					c6.4,0,12.2,1.4,17.2,4.2c5.1,2.8,9.1,6.7,12.1,11.7c3,5,4.5,10.7,4.5,17.2c0,1.1-0.1,4.9-0.2,11.3l0,0.4l-54.5,0
					c1.2,5.7,3.6,9.8,7.5,12.9c4.1,3.2,9.6,4.9,16.6,5.2l0.6,0l1.7,0h24.2v14.6h-24.3c-13.3,0-23.6-3.5-31-10.4
					c-7.5-6.9-11.3-15.7-11.3-29c0-6.7,1.5-12.9,4.6-18.7c3.1-5.8,7.3-10.5,12.8-14.1C309.9,560.8,316.5,559,324,559z M324.7,574.1
					c-6,0-10.9,1.6-15.5,5.6c-2.8,2.7-4.6,6.1-5.7,10.6l0,0l40.1-0.3l0-0.5l0-0.4c-0.2-2.3-1-4.5-2.2-6.5c-1.5-2.6-3.7-4.6-6.5-6.2
					C332.1,574.8,328.7,574.1,324.7,574.1z M420.5,560.4v14.2h-31.7c-2.3,0-4.1,0.5-5.3,1.5c-1.2,0.9-1.8,2.3-1.8,4
					c0,1.3,0.5,2.4,1.5,3.4c1.2,1.2,3.1,2.3,5.7,3.4l0,0l13.6,5.6c7.4,3.1,13.1,5.9,16.7,9.7c3.2,3.4,4.9,7.5,4.9,13.2
					c0,7.2-2.6,12.5-7.8,16c-5.1,3.4-12.9,5.2-23.4,5.2l0,0l-0.6,0h-24.7V622h31.7c3,0,5.4-0.6,7.1-1.7c1.5-1.1,2.4-2.6,2.4-4.5
					c0-1.7-0.6-3-1.8-4.1c-1.5-1.4-3.9-2.6-7.1-4l0,0l-13-5.3c-7.1-2.9-12.2-5.7-15.5-9.3c-3.1-3.4-4.6-7.5-4.6-12.9
					c0-6.2,2.3-11.2,6.6-14.5c4.2-3.2,10.4-5.1,18.5-5.1l0,0l0.5,0H420.5z M435,540.7h15v19.7h29.2v14.4H450v30.9
					c0,5.6,1.2,9.7,4,12.4c2.8,2.7,7,3.9,12.9,4l0,0l12.3,0v14.5h-12.1c-10.6,0-18.5-2.4-23.9-7c-5.4-4.7-8.2-11.6-8.3-21l0,0l0-0.6
					V540.7z"/>
			</g>
		</g>
	</g>
</g>
</svg>
