<svg width="150" height="141" viewBox="0 0 217 141" fill="none" xmlns="http://www.w3.org/2000/svg">
<g clip-path="url(#clip0)">
<circle cx="103" cy="129" r="77" fill="#EBFEC2"/>
<path d="M174.514 139.877C177.706 136.763 177.939 131.003 174.904 127.656C171.868 124.309 166.186 123.998 162.761 126.878C163.695 123.764 162.916 119.95 160.348 118.004C157.779 115.98 153.42 116.525 151.863 119.405C151.707 114.968 150.618 110.454 147.893 106.951C145.169 103.448 140.654 101.191 136.295 101.814C132.014 102.514 128.511 105.861 127.032 109.909C125.553 113.957 125.865 118.549 127.266 122.597C124.619 120.884 121.039 121.196 118.47 122.986C115.901 124.776 114.345 127.734 113.8 130.848C113.255 133.961 113.644 137.075 114.345 140.188" fill="white"/>
<path d="M174.514 139.877C177.706 136.763 177.939 131.003 174.904 127.656C171.868 124.309 166.186 123.998 162.761 126.878C163.695 123.764 162.916 119.95 160.348 118.004C157.779 115.98 153.42 116.525 151.863 119.405C151.707 114.968 150.618 110.454 147.893 106.951C145.169 103.448 140.654 101.191 136.295 101.814C132.014 102.514 128.511 105.861 127.032 109.909C125.553 113.957 125.865 118.549 127.266 122.597C124.619 120.884 121.039 121.196 118.47 122.986C115.901 124.776 114.345 127.734 113.8 130.848C113.255 133.961 113.644 137.075 114.345 140.188" stroke="#111111" stroke-width="0.583795" stroke-miterlimit="10" stroke-linecap="round" stroke-linejoin="round"/>
<path d="M158.637 140.188H161.283" stroke="#111111" stroke-width="0.583795" stroke-miterlimit="10" stroke-linecap="round" stroke-linejoin="round"/>
<path d="M52.6191 140.188H154.277" stroke="#111111" stroke-width="0.583795" stroke-miterlimit="10" stroke-linecap="round" stroke-linejoin="round"/>
<path d="M0.310547 140.188H45.8466" stroke="#111111" stroke-width="0.583795" stroke-miterlimit="10" stroke-linecap="round" stroke-linejoin="round"/>
<path d="M28.2554 139.644C25.9981 137.464 25.9202 133.494 28.0219 131.159C30.1236 128.824 34.0934 128.591 36.5064 130.614C35.8837 128.435 36.4286 125.788 38.2189 124.465C40.0092 123.064 43.0449 123.453 44.1346 125.399C44.2125 122.286 44.9909 119.172 46.9369 116.759C48.805 114.346 51.9186 112.711 55.0322 113.178C57.99 113.645 60.4809 115.981 61.4928 118.783C62.5047 121.585 62.2712 124.776 61.3371 127.579C63.1274 126.411 65.6961 126.645 67.4864 127.89C69.2768 129.135 70.3665 131.237 70.7557 133.339C71.1449 135.518 70.8335 137.698 70.3665 139.799" fill="white"/>
<path d="M28.2554 139.644C25.9981 137.464 25.9202 133.494 28.0219 131.159C30.1236 128.824 34.0934 128.591 36.5064 130.614C35.8837 128.435 36.4286 125.788 38.2189 124.465C40.0092 123.064 43.0449 123.453 44.1346 125.399C44.2125 122.286 44.9909 119.172 46.9369 116.759C48.805 114.346 51.9186 112.711 55.0322 113.178C57.99 113.645 60.4809 115.981 61.4928 118.783C62.5047 121.585 62.2712 124.776 61.3371 127.579C63.1274 126.411 65.6961 126.645 67.4864 127.89C69.2768 129.135 70.3665 131.237 70.7557 133.339C71.1449 135.518 70.8335 137.698 70.3665 139.799" stroke="#111111" stroke-width="0.583795" stroke-miterlimit="10" stroke-linecap="round" stroke-linejoin="round"/>
<path d="M133.26 94.4189H58.8457V140.188H133.26V94.4189Z" fill="#7BC207"/>
<path d="M133.261 94.4189H127.111V140.188H133.261V94.4189Z" fill="#539A00"/>
<path d="M133.26 94.4189H58.8457V140.188H133.26V94.4189Z" stroke="#111111" stroke-width="0.583795" stroke-miterlimit="10" stroke-linecap="round" stroke-linejoin="round"/>
<path d="M135.674 111.622C136.063 110.376 136.452 109.053 137.308 108.041C138.165 107.029 139.721 106.484 140.889 107.185C142.134 107.885 142.446 109.753 141.823 111.077C141.278 112.4 140.033 113.334 138.943 114.268C138.087 114.969 137.231 115.669 136.296 116.37C135.596 116.915 134.584 118.082 133.806 118.238C133.65 117.382 134.428 115.903 134.662 114.969C134.973 113.879 135.129 112.556 135.674 111.622Z" stroke="#111111" stroke-width="0.583795" stroke-miterlimit="10" stroke-linecap="round" stroke-linejoin="round"/>
<path d="M130.459 111.622C130.07 110.376 129.68 109.053 128.824 108.041C127.968 107.029 126.411 106.484 125.243 107.185C123.998 107.885 123.687 109.753 124.309 111.077C124.854 112.4 126.1 113.334 127.189 114.268C128.046 114.969 128.902 115.669 129.836 116.37C130.537 116.915 131.548 118.082 132.327 118.238C132.483 117.382 131.704 115.903 131.471 114.969C131.081 113.879 130.926 112.556 130.459 111.622Z" stroke="#111111" stroke-width="0.583795" stroke-miterlimit="10" stroke-linecap="round" stroke-linejoin="round"/>
<path d="M94.9639 28.2553C95.1975 26.7763 95.2753 25.2196 95.431 23.6628C95.5867 22.106 95.9759 20.627 96.7542 19.3038C97.5326 17.9805 98.9337 16.9686 100.413 16.8907C101.969 16.8129 103.526 17.747 103.915 19.2259L104.227 24.1298L96.2094 31.6024L94.1855 30.0456L94.9639 28.2553Z" fill="#7BC207" stroke="#111111" stroke-width="0.583795" stroke-miterlimit="10" stroke-linecap="round" stroke-linejoin="round"/>
<path d="M97.6892 29.0339C99.713 25.5312 102.126 22.2619 104.773 19.1484C106.407 17.2802 108.353 15.4121 110.844 15.1785C113.958 14.945 116.682 17.6694 117.227 20.7051C117.694 23.7409 116.371 26.8544 114.347 29.1896L113.024 33.5486L94.4199 35.0276L97.6892 29.0339Z" fill="#3F8600" stroke="#111111" stroke-width="0.583795" stroke-miterlimit="10" stroke-linecap="round" stroke-linejoin="round"/>
<path d="M76.2829 27.0103C75.8158 25.5314 76.6721 23.8968 77.9953 23.1962C79.3964 22.4956 81.0311 22.6513 82.4322 23.3519C83.8333 24.0524 84.923 25.1422 85.8571 26.3876C86.7912 27.633 87.6474 28.8785 88.5815 30.0461L85.0787 35.884L75.6602 28.9563L76.2829 27.0103Z" fill="#3F8600" stroke="#111111" stroke-width="0.583795" stroke-miterlimit="10" stroke-linecap="round" stroke-linejoin="round"/>
<path d="M72.4684 40.9436C69.5105 40.0095 66.7083 38.0635 65.6186 35.1835C64.451 32.3034 65.3851 28.5671 68.1873 27.166C70.4446 26.0763 73.0911 26.6211 75.4263 27.3995C79.3183 28.6449 83.0546 30.2017 86.6352 32.1477L94.4191 35.1056L72.4684 40.9436Z" fill="#7BC207" stroke="#111111" stroke-width="0.583795" stroke-miterlimit="10" stroke-linecap="round" stroke-linejoin="round"/>
<path d="M132.981 24.5083L53.291 46.791L55.492 54.6626L135.182 32.3798L132.981 24.5083Z" fill="#7BC207" stroke="#111111" stroke-width="0.583795" stroke-miterlimit="10" stroke-linecap="round" stroke-linejoin="round"/>
<path d="M88.3471 36.8177C88.0357 36.0393 87.2573 34.5603 87.1795 33.7041C87.0238 32.8479 87.1795 31.9138 87.6465 31.2132C88.3471 30.2792 89.5147 29.9678 90.6044 29.6565C92.0834 29.2673 93.6401 28.9559 95.1191 28.7224C95.5861 28.6445 96.0532 28.5667 96.5202 28.6445C97.4543 28.8781 97.9991 29.8121 98.3105 30.6684C98.6219 31.6024 98.9332 33.0814 99.011 33.8598L88.3471 36.8177Z" fill="#3F8600" stroke="#111111" stroke-width="0.583795" stroke-miterlimit="10" stroke-linecap="round" stroke-linejoin="round"/>
<path d="M99.0108 33.9379L95.8194 34.7941C95.6637 33.9379 95.4302 32.6925 95.1188 31.8362C94.8853 30.9022 94.2626 29.9681 93.3285 29.8124C92.8615 29.7346 92.3944 29.8124 91.9274 29.8903C90.682 30.1238 89.3587 30.3573 88.1133 30.6687C88.8138 30.2016 89.6701 29.8903 90.5263 29.7346C92.0053 29.3454 93.562 29.034 95.041 28.8005C95.508 28.7227 95.9751 28.6448 96.4421 28.7227C97.3762 28.9562 97.921 29.8903 98.2324 30.7465C98.5438 31.6027 98.8551 33.1595 99.0108 33.9379Z" fill="#7BC207"/>
<path d="M88.3471 36.8177C88.0357 36.0393 87.2573 34.5603 87.1795 33.7041C87.0238 32.8479 87.1795 31.9138 87.6465 31.2132C88.3471 30.2792 89.5147 29.9678 90.6044 29.6565C92.0834 29.2673 93.6401 28.9559 95.1191 28.7224C95.5861 28.6445 96.0532 28.5667 96.5202 28.6445C97.4543 28.8781 97.9991 29.8121 98.3105 30.6684C98.6219 31.6024 98.9332 33.0814 99.011 33.8598L88.3471 36.8177Z" stroke="#111111" stroke-width="0.583795" stroke-miterlimit="10" stroke-linecap="round" stroke-linejoin="round"/>
<path d="M137.854 44.1349C137.854 44.1349 142.524 44.6019 142.213 39.7759L145.637 41.3327C145.637 41.3327 145.482 47.0149 139.722 47.7933L137.854 44.1349Z" fill="#7BC207" stroke="#111111" stroke-width="0.583795" stroke-miterlimit="10" stroke-linecap="round" stroke-linejoin="round"/>
<path d="M47.0915 67.4867C47.0915 67.4867 42.4211 67.7981 43.433 72.4685L39.8524 71.4565C39.8524 71.4565 39.074 65.7743 44.7563 64.1396L47.0915 67.4867Z" fill="#7BC207" stroke="#111111" stroke-width="0.583795" stroke-miterlimit="10" stroke-linecap="round" stroke-linejoin="round"/>
<path d="M152.254 97.2212C152.254 97.2212 157.547 94.8861 160.271 100.49L159.182 102.748C159.182 102.748 156.535 98.9337 153.188 100.88L152.254 97.2212Z" fill="#7BC207" stroke="#111111" stroke-width="0.583795" stroke-miterlimit="10" stroke-linecap="round" stroke-linejoin="round"/>
<path d="M96.2871 50.0505C96.2871 50.0505 100.568 48.8829 101.814 51.9965L103.915 49.6613C103.915 49.6613 102.125 45.6137 96.9877 47.4818L96.2871 50.0505Z" fill="#7BC207" stroke="#111111" stroke-width="0.583795" stroke-miterlimit="10" stroke-linecap="round" stroke-linejoin="round"/>
<path d="M59.3906 101.736H68.2643" stroke="#111111" stroke-width="0.583795" stroke-miterlimit="10" stroke-linecap="round" stroke-linejoin="round"/>
<path d="M72.4668 101.736H76.8258" stroke="#111111" stroke-width="0.583795" stroke-miterlimit="10" stroke-linecap="round" stroke-linejoin="round"/>
<path d="M63.6719 87.6471L47.1699 56.2778" stroke="#111111" stroke-width="0.583795" stroke-miterlimit="10" stroke-linecap="round" stroke-linejoin="round"/>
<path d="M52.2287 83.3656L48.0254 78.1504" stroke="#111111" stroke-width="0.583795" stroke-miterlimit="10" stroke-linecap="round" stroke-linejoin="round"/>
<path d="M52.4624 94.1075L36.8945 81.8867" stroke="#111111" stroke-width="0.583795" stroke-miterlimit="10" stroke-linecap="round" stroke-linejoin="round"/>
<path d="M71.4551 84.0664L73.4011 89.3595" stroke="#111111" stroke-width="0.583795" stroke-miterlimit="10" stroke-linecap="round" stroke-linejoin="round"/>
<path d="M142.133 63.6727L150.773 51.9189" stroke="#111111" stroke-width="0.583795" stroke-miterlimit="10" stroke-linecap="round" stroke-linejoin="round"/>
<path d="M137.152 83.2881L147.038 73.3247" stroke="#111111" stroke-width="0.583795" stroke-miterlimit="10" stroke-linecap="round" stroke-linejoin="round"/>
<path d="M140.188 92.8622L163.617 80.3301" stroke="#111111" stroke-width="0.583795" stroke-miterlimit="10" stroke-linecap="round" stroke-linejoin="round"/>
<path d="M114.577 43.7456L112.787 57.2118" stroke="#111111" stroke-width="0.583795" stroke-miterlimit="10" stroke-linecap="round" stroke-linejoin="round"/>
<path d="M75.1141 65.1516L72.1562 56.0444" stroke="#111111" stroke-width="0.583795" stroke-miterlimit="10" stroke-linecap="round" stroke-linejoin="round"/>
<path d="M148.205 118.394H117.303V139.877H148.205V118.394Z" fill="#3F8600" stroke="#111111" stroke-width="0.583795" stroke-miterlimit="10" stroke-linecap="round" stroke-linejoin="round"/>
<path d="M117.615 126.411H147.428" stroke="#111111" stroke-width="0.583795" stroke-miterlimit="10" stroke-linecap="round" stroke-linejoin="round"/>
<path d="M102.748 94.4189H89.3594V140.188H102.748V94.4189Z" fill="#3F8600" stroke="#111111" stroke-width="0.583795" stroke-miterlimit="10" stroke-linecap="round" stroke-linejoin="round"/>
<path d="M79.9395 101.736H123.919" stroke="#111111" stroke-width="0.583795" stroke-miterlimit="10" stroke-linecap="round" stroke-linejoin="round"/>
<path d="M174.36 45.1467C175.994 45.1467 177.318 43.8225 177.318 42.1889C177.318 40.5553 175.994 39.231 174.36 39.231C172.727 39.231 171.402 40.5553 171.402 42.1889C171.402 43.8225 172.727 45.1467 174.36 45.1467Z" stroke="#7BC207" stroke-width="0.778393" stroke-miterlimit="10"/>
<path d="M20.8611 115.825C20.8611 117.46 19.5378 118.783 17.9032 118.783C16.2686 118.783 14.9453 117.46 14.9453 115.825C14.9453 114.19 16.2686 112.867 17.9032 112.867C19.5378 112.867 20.8611 114.19 20.8611 115.825Z" stroke="#7BC207" stroke-width="0.778393" stroke-miterlimit="10"/>
<path d="M189.15 84.2997C189.15 85.9343 187.827 87.2576 186.192 87.2576C184.558 87.2576 183.234 85.9343 183.234 84.2997C183.234 82.6651 184.558 81.3418 186.192 81.3418C187.827 81.3418 189.15 82.6651 189.15 84.2997Z" stroke="#7BC207" stroke-width="0.778393" stroke-miterlimit="10"/>
<path d="M128.28 6.30495C129.914 6.30495 131.238 4.98066 131.238 3.34705C131.238 1.71345 129.914 0.38916 128.28 0.38916C126.647 0.38916 125.322 1.71345 125.322 3.34705C125.322 4.98066 126.647 6.30495 128.28 6.30495Z" stroke="#7BC207" stroke-width="0.778393" stroke-miterlimit="10"/>
<path d="M33.6259 62.3491C33.6259 63.9059 32.3805 65.1513 30.8237 65.1513C29.2669 65.1513 28.0215 63.9059 28.0215 62.3491C28.0215 60.7923 29.2669 59.5469 30.8237 59.5469C32.3026 59.5469 33.6259 60.7923 33.6259 62.3491Z" stroke="#7BC207" stroke-width="0.778393" stroke-miterlimit="10"/>
<path d="M173.736 62.3491H185.179" stroke="#111111" stroke-width="0.583795" stroke-miterlimit="10" stroke-linecap="round" stroke-linejoin="round"/>
<path d="M190.861 66.8638H204.872" stroke="#111111" stroke-width="0.583795" stroke-miterlimit="10" stroke-linecap="round" stroke-linejoin="round"/>
<path d="M183.777 66.8638H187.28" stroke="#111111" stroke-width="0.583795" stroke-miterlimit="10" stroke-linecap="round" stroke-linejoin="round"/>
<path d="M51.9189 24.2856H40.4766" stroke="#111111" stroke-width="0.583795" stroke-miterlimit="10" stroke-linecap="round" stroke-linejoin="round"/>
<path d="M34.7943 28.8003H20.7832" stroke="#111111" stroke-width="0.583795" stroke-miterlimit="10" stroke-linecap="round" stroke-linejoin="round"/>
<path d="M41.8781 28.8003H38.4531" stroke="#111111" stroke-width="0.583795" stroke-miterlimit="10" stroke-linecap="round" stroke-linejoin="round"/>
<path d="M62.7383 122.908C62.8162 123.842 63.0497 124.932 63.6724 125.088C63.9837 125.166 64.3729 124.854 64.5286 124.387C64.6843 123.92 64.7621 123.375 64.84 122.831C65.307 118.627 65.2292 114.268 64.6065 110.065C64.4508 109.131 64.2951 108.197 63.9059 107.496C63.4389 106.718 62.5048 106.406 62.2713 107.574C61.9599 108.897 62.1934 111.232 62.1934 112.634C62.1934 116.058 62.3491 119.483 62.7383 122.908Z" fill="#99E025"/>
<path d="M65.9284 47.2482C65.0722 47.5596 63.9824 48.0266 63.9824 48.5715C63.9824 48.9607 64.3716 49.1942 64.9165 49.272C65.3835 49.3499 66.0062 49.3499 66.5511 49.272C70.7544 48.805 75.0356 47.7931 78.9276 46.3141C79.7838 46.0028 80.7179 45.6136 81.3406 45.0687C82.0412 44.446 82.119 43.4341 80.9514 43.4341C79.5503 43.4341 77.3708 44.1346 75.9697 44.446C72.4669 45.3022 69.1977 46.1585 65.9284 47.2482Z" fill="#99E025"/>
<path d="M85.0781 42.9671L124.387 32.1475" stroke="#111111" stroke-width="0.583795" stroke-miterlimit="10" stroke-linecap="round" stroke-linejoin="round"/>
<path d="M136.218 118.16H130.146V139.644H136.218V118.16Z" fill="#BED966" stroke="#111111" stroke-width="0.583795" stroke-miterlimit="10" stroke-linecap="round" stroke-linejoin="round"/>
<path d="M136.218 118.16H133.961V139.644H136.218V118.16Z" fill="#98CB4F"/>
<path d="M136.218 118.16H130.146V139.644H136.218V118.16Z" stroke="#111111" stroke-width="0.583795" stroke-miterlimit="10" stroke-linecap="round" stroke-linejoin="round"/>
<path d="M119.717 129.058V133.027" stroke="#111111" stroke-width="0.583795" stroke-miterlimit="10" stroke-linecap="round" stroke-linejoin="round"/>
</g>
<defs>
<clipPath id="clip0">
<rect width="216.238" height="140.5" fill="white"/>
</clipPath>
</defs>
</svg>
