<svg width="30" height="30" viewBox="0 0 128 128" fill="none" xmlns="http://www.w3.org/2000/svg">
<path d="M128 0H0V128H128V0Z" fill="url(#paint0_linear)"/>
<mask id="mask0" mask-type="alpha" maskUnits="userSpaceOnUse" x="32" y="25" width="60" height="84">
<path fill-rule="evenodd" clip-rule="evenodd" d="M69.5 25.7H37.6C34.5 25.7 32 28.1999 32 31.2999V102.5C32 105.6 34.5 108.1 37.6 108.1H86.3C89.4 108.1 91.9 105.6 91.9 102.5V48.2L69.5 25.7Z" fill="white"/>
</mask>
<g mask="url(#mask0)">
<path d="M69.5 25.7H37.6C34.5 25.7 32 28.1999 32 31.2999V102.5C32 105.6 34.5 108.1 37.6 108.1H86.3C89.4 108.1 91.9 105.6 91.9 102.5V48.2L78.8 38.7999L69.5 25.7Z" fill="#0F9D58"/>
</g>
<mask id="mask1" mask-type="alpha" maskUnits="userSpaceOnUse" x="32" y="25" width="60" height="84">
<path fill-rule="evenodd" clip-rule="evenodd" d="M69.5 25.7H37.6C34.5 25.7 32 28.1999 32 31.2999V102.5C32 105.6 34.5 108.1 37.6 108.1H86.3C89.4 108.1 91.9 105.6 91.9 102.5V48.2L69.5 25.7Z" fill="white"/>
</mask>
<g mask="url(#mask1)">
<path d="M47 66V93.2H77V66H47ZM60.1 89.4H50.7V84.7H60.1V89.4ZM60.1 81.9H50.7V77.2H60.1V81.9ZM60.1 74.4H50.7V69.7H60.1V74.4ZM73.2 89.4H63.8V84.7H73.2V89.4ZM73.2 81.9H63.8V77.2H73.2V81.9ZM73.2 74.4H63.8V69.7H73.2V74.4Z" fill="#F1F1F1"/>
</g>
<mask id="mask2" mask-type="alpha" maskUnits="userSpaceOnUse" x="32" y="25" width="60" height="84">
<path fill-rule="evenodd" clip-rule="evenodd" d="M69.5 25.7H37.6C34.5 25.7 32 28.1999 32 31.2999V102.5C32 105.6 34.5 108.1 37.6 108.1H86.3C89.4 108.1 91.9 105.6 91.9 102.5V48.2L69.5 25.7Z" fill="white"/>
</mask>
<g mask="url(#mask2)">
<path d="M71.1001 46.5999L92.0001 67.3999V48.1999L71.1001 46.5999Z" fill="url(#paint1_linear)"/>
</g>
<mask id="mask3" mask-type="alpha" maskUnits="userSpaceOnUse" x="32" y="25" width="60" height="84">
<path fill-rule="evenodd" clip-rule="evenodd" d="M69.5 25.7H37.6C34.5 25.7 32 28.1999 32 31.2999V102.5C32 105.6 34.5 108.1 37.6 108.1H86.3C89.4 108.1 91.9 105.6 91.9 102.5V48.2L69.5 25.7Z" fill="white"/>
</mask>
<g mask="url(#mask3)">
<path d="M69.425 25.7417V42.6417C69.425 45.7417 71.9251 48.2417 75.0251 48.2417H91.9251L69.425 25.7417Z" fill="#87CEAC"/>
</g>
<mask id="mask4" mask-type="alpha" maskUnits="userSpaceOnUse" x="32" y="25" width="60" height="84">
<path fill-rule="evenodd" clip-rule="evenodd" d="M69.5 25.7H37.6C34.5 25.7 32 28.1999 32 31.2999V102.5C32 105.6 34.5 108.1 37.6 108.1H86.3C89.4 108.1 91.9 105.6 91.9 102.5V48.2L69.5 25.7Z" fill="white"/>
</mask>
<g mask="url(#mask4)">
<path opacity="0.2" d="M37.6 25.7C34.5 25.7 32 28.1999 32 31.2999V31.7999C32 28.6999 34.5 26.2 37.6 26.2H69.5V25.7H37.6V25.7Z" fill="white"/>
</g>
<mask id="mask5" mask-type="alpha" maskUnits="userSpaceOnUse" x="32" y="25" width="60" height="84">
<path fill-rule="evenodd" clip-rule="evenodd" d="M69.5 25.7H37.6C34.5 25.7 32 28.1999 32 31.2999V102.5C32 105.6 34.5 108.1 37.6 108.1H86.3C89.4 108.1 91.9 105.6 91.9 102.5V48.2L69.5 25.7Z" fill="white"/>
</mask>
<g mask="url(#mask5)">
<path opacity="0.2" d="M86.3 107.7H37.6C34.5 107.7 32 105.2 32 102.1V102.6C32 105.7 34.5 108.2 37.6 108.2H86.3C89.4 108.2 91.9 105.7 91.9 102.6V102.1C92 105.2 89.4 107.7 86.3 107.7Z" fill="#263238"/>
</g>
<mask id="mask6" mask-type="alpha" maskUnits="userSpaceOnUse" x="32" y="25" width="60" height="84">
<path fill-rule="evenodd" clip-rule="evenodd" d="M69.5 25.7H37.6C34.5 25.7 32 28.1999 32 31.2999V102.5C32 105.6 34.5 108.1 37.6 108.1H86.3C89.4 108.1 91.9 105.6 91.9 102.5V48.2L69.5 25.7Z" fill="white"/>
</mask>
<g mask="url(#mask6)">
<path opacity="0.1" d="M75.1 48.1999C72 48.1999 69.5 45.6999 69.5 42.5999V42.9999C69.5 46.0999 72 48.5999 75.1 48.5999H92V48.0999H75.1V48.1999Z" fill="#263238"/>
</g>
<path d="M91 18.9C93.3 18.9 95.6 19.3999 97.8 20.2999C98.8 20.6999 99.8 21.3 100.8 21.9C101.7 22.5 102.6 23.2 103.4 24C104.2 24.8 104.9 25.7 105.5 26.6C106.1 27.5 106.7 28.5 107.1 29.6C108 31.7 108.5 34 108.5 36.4C108.5 38.7 108 41 107.1 43.2C106.7 44.2 106.1 45.2 105.5 46.2C104.9 47.1 104.2 47.9999 103.4 48.7999C102.6 49.5999 101.7 50.3 100.8 50.9C99.9 51.5 98.9 52.1 97.8 52.5C95.7 53.4 93.4 53.9 91 53.9C88.7 53.9 86.4 53.4 84.2 52.5C83.2 52.1 82.2 51.5 81.2 50.9C80.3 50.3 79.4 49.5999 78.6 48.7999C77.8 47.9999 77.1 47.1 76.5 46.2C75.9 45 75.4 44 75 43C74.1 40.9 73.6 38.6 73.6 36.2C73.6 33.9 74.1 31.6 75 29.4C75.4 28.4 76 27.4 76.6 26.4C77.2 25.5 77.9 24.5999 78.7 23.7999C79.5 22.9999 80.4 22.3 81.3 21.7C82.2 21.1 83.2 20.5 84.3 20.1C86.3 19.3 88.6 18.9 91 18.9ZM91 17.7C80.8 17.7 72.5 26 72.5 36.2C72.5 46.4 80.8 54.7 91 54.7C101.2 54.7 109.5 46.4 109.5 36.2C109.5 26 101.2 17.7 91 17.7Z" fill="white"/>
<path d="M75.6001 36.2C75.6001 42.3 79.1001 47.6 84.3001 50.1L76.9001 30C76.0001 31.9 75.6001 34 75.6001 36.2ZM101.4 35.5C101.4 33.6 100.7 32.3 100.1 31.3C99.3001 30 98.6001 29 98.6001 27.7C98.6001 26.3 99.7001 25 101.2 25C101.3 25 101.3 25 101.4 25C98.7001 22.5 95.0001 21 91.0001 21C85.6001 21 80.9001 23.8 78.1001 27.9C78.5001 27.9 78.8001 27.9 79.1001 27.9C80.7001 27.9 83.2001 27.7 83.2001 27.7C84.0001 27.7 84.1001 28.9 83.3001 29C83.3001 29 82.5001 29.1 81.5001 29.1L87.1001 45.8L90.5001 35.7L88.1001 29C87.3001 29 86.5001 28.9 86.5001 28.9C85.7001 28.9 85.8001 27.6 86.6001 27.6C86.6001 27.6 89.1001 27.8 90.7001 27.8C92.3001 27.8 94.8001 27.6 94.8001 27.6C95.6001 27.6 95.7001 28.8 94.9001 28.9C94.9001 28.9 94.1001 29 93.1001 29L98.7001 45.6L100.3 40.6C101 38.3 101.4 36.8 101.4 35.5ZM91.2001 37.6L86.6001 51C88.0001 51.4 89.4001 51.6 91.0001 51.6C92.8001 51.6 94.5001 51.3 96.1001 50.7C96.1001 50.6 96.0001 50.6 96.0001 50.5L91.2001 37.6ZM104.5 28.8C104.6 29.3 104.6 29.8 104.6 30.4C104.6 32 104.3 33.7 103.4 35.9L98.7001 49.5C103.3 46.8 106.4 41.9 106.4 36.2C106.4 33.6 105.7 31 104.5 28.8Z" fill="white"/>
<defs>
<linearGradient id="paint0_linear" x1="97.3358" y1="110.105" x2="9.3585" y2="-11.5725" gradientUnits="userSpaceOnUse">
<stop stop-color="#08CF68"/>
<stop offset="1" stop-color="#E2FFBC"/>
</linearGradient>
<linearGradient id="paint1_linear" x1="81.5225" y1="48.3599" x2="81.5225" y2="67.4186" gradientUnits="userSpaceOnUse">
<stop stop-color="#263238" stop-opacity="0.2"/>
<stop offset="1" stop-color="#263238" stop-opacity="0.02"/>
</linearGradient>
</defs>
</svg>
