<svg width="146" height="24" viewBox="0 0 146 24" fill="none" xmlns="http://www.w3.org/2000/svg">
<path d="M1.39844 18H1.78125V7.625H1.82031L6.375 18H6.78906L11.3516 7.625H11.3828V18H11.7656V6.72656H11.3438L6.60156 17.5156H6.57031L1.82812 6.72656H1.39844V18ZM15.9375 18.125C17.3828 18.125 18.6484 17.3203 19.0312 16.1797H19.0469V18H19.4297V12.5391C19.4297 10.8125 18.3516 9.75 16.6016 9.75C14.9219 9.75 13.7812 10.5938 13.5547 12.1172L13.5391 12.2188H13.9141L13.9297 12.125C14.1484 10.8125 15.1406 10.1094 16.6016 10.1094C18.1328 10.1094 19.0469 11.0312 19.0469 12.5703V13.3047L16.1172 13.5234C14.25 13.6719 13.2578 14.4531 13.2578 15.8359V15.8438C13.2578 17.1953 14.3672 18.125 15.9375 18.125ZM13.6406 15.8438V15.8359C13.6406 14.6719 14.5391 13.9844 16.1719 13.8594L19.0469 13.6406V15.0078C19.0469 16.5391 17.6641 17.7656 15.9609 17.7656C14.625 17.7656 13.6406 16.9609 13.6406 15.8438ZM24.1875 18.125C25.7031 18.125 26.9219 17.1484 27.3203 15.6797H27.3594V18H27.7422V6.72656H27.3594V12.25H27.3438C26.9688 10.7422 25.7344 9.75 24.1953 9.75C22.1953 9.75 20.7812 11.4297 20.7812 13.9219V13.9297C20.7812 16.4297 22.1875 18.125 24.1875 18.125ZM24.2422 17.7656C22.4141 17.7656 21.1719 16.2188 21.1719 13.9297V13.9219C21.1719 11.6484 22.4141 10.1094 24.2344 10.1094C26.0547 10.1094 27.3594 11.6875 27.3594 13.9375V13.9453C27.3594 16.1875 26.0703 17.7656 24.2422 17.7656ZM32.8125 18.125C34.5312 18.125 35.7656 17.2266 36.0938 15.7422L36.1094 15.6719H35.7109L35.6953 15.7344C35.375 17 34.3359 17.7656 32.8203 17.7656C30.9141 17.7656 29.6406 16.4141 29.6094 13.9609H36.2109V13.7422C36.2109 11.3125 34.7969 9.75 32.7188 9.75C30.6484 9.75 29.2188 11.3203 29.2188 13.9297V13.9375C29.2188 16.5547 30.6484 18.125 32.8125 18.125ZM32.7188 10.1094C34.5156 10.1094 35.7812 11.4844 35.8359 13.6094H29.6094C29.6641 11.4844 30.9297 10.1094 32.7188 10.1094ZM40.9297 18H44.4375C47.1562 18 48.4453 16.8516 48.4453 15.0703V15.0547C48.4453 13.3672 47.0703 12.3828 45.5391 12.1875V12.1719C46.9609 11.8984 47.8438 10.8516 47.8438 9.46875V9.45312C47.8438 7.82812 46.5234 6.72656 44.4453 6.72656H40.9297V18ZM44.4062 7.08594C46.2812 7.08594 47.4531 8.03125 47.4531 9.46094V9.47656C47.4531 11.0312 46.1953 12.0234 44.375 12.0234H41.3203V7.08594H44.4062ZM44.3984 12.3828C46.5625 12.3828 48.0547 13.4062 48.0547 15.0469V15.0625C48.0547 16.625 46.8906 17.6406 44.4141 17.6406H41.3203V12.3828H44.3984ZM49.8672 20.7344C51.1016 20.7344 51.6641 20.1641 52.1328 18.9219L55.5625 9.875H55.1406L52.2188 17.6328H52.2031L49.2891 9.875H48.8672L52 18.1406L51.7578 18.7969C51.3359 19.9297 50.8594 20.3828 49.8359 20.3828C49.7578 20.3828 49.6797 20.375 49.6094 20.375V20.7266C49.6953 20.7344 49.7812 20.7344 49.8672 20.7344Z" fill="#737373"/>
<g clip-path="url(#clip0)">
<path d="M89.0156 7.49505H90.3291C90.4781 7.4946 90.6264 7.51715 90.7697 7.56204C90.9086 7.60547 91.0406 7.67166 91.1613 7.75838C91.2808 7.84446 91.3892 7.94781 91.4835 8.06561C91.5774 8.18216 91.6532 8.31465 91.708 8.45785C92.0235 9.29561 92.3417 10.126 92.6625 10.949C92.9833 11.7719 93.3041 12.6023 93.6249 13.4401C93.6799 13.5766 93.7183 13.7204 93.7391 13.8679C93.7554 13.9988 93.7663 14.1146 93.7717 14.2153C93.7859 14.0183 93.8215 13.8238 93.8778 13.636C93.9453 13.4057 94.0242 13.1796 94.1142 12.9587L95.8518 8.44862C95.9005 8.3147 95.9723 8.19222 96.0632 8.08779C96.1626 7.97063 96.2749 7.86743 96.3977 7.78056C96.5235 7.69099 96.6592 7.61912 96.8015 7.56666C96.9393 7.51427 97.084 7.48711 97.2299 7.48627H98.5433L97.613 9.9016L98.649 12.5932C98.7579 12.8726 98.8639 13.1475 98.9671 13.4179C99.0639 13.6593 99.1218 13.9172 99.1383 14.1802C99.1437 14.1328 99.1504 14.0778 99.1586 14.0153C99.1668 13.9527 99.1817 13.874 99.2034 13.7792C99.2308 13.6645 99.2635 13.5515 99.3015 13.4405C99.3449 13.3099 99.4047 13.1495 99.4808 12.9591L101.221 8.44907C101.269 8.3158 101.339 8.19347 101.429 8.08826C101.526 7.97044 101.637 7.86713 101.759 7.78102C101.885 7.69146 102.02 7.61959 102.163 7.56711C102.3 7.51473 102.445 7.48757 102.591 7.48673H103.904L100.299 16.8543H97.9818L96.7334 13.3962C96.69 13.2714 96.652 13.1438 96.6193 13.0132C96.5866 12.8825 96.5701 12.7476 96.5702 12.6122C96.5693 12.4819 96.5886 12.3524 96.6273 12.2292C96.5238 12.5501 96.3321 13.0937 96.0522 13.86C95.7723 14.6263 95.3983 15.6246 94.9303 16.8547H92.6134L89.0156 7.49505Z" fill="#737373"/>
<path d="M104.475 7.49359H106.22C106.248 7.49359 106.289 7.57521 106.342 7.73845C106.41 7.96644 106.46 8.20071 106.489 8.43839C106.545 8.25544 106.65 8.09529 106.791 7.97915C106.952 7.83968 107.131 7.72568 107.321 7.6405C107.522 7.54846 107.732 7.47836 107.945 7.43121C108.134 7.38684 108.327 7.36301 108.521 7.36007H108.553C109.135 7.35495 109.71 7.48553 110.242 7.74307C110.753 7.99025 111.216 8.34289 111.604 8.78164C112.406 9.69503 112.853 10.9124 112.851 12.178C112.848 13.4436 112.397 14.659 111.592 15.5689C111.199 16.0058 110.732 16.3553 110.217 16.5982C109.682 16.8526 109.104 16.9816 108.521 16.9771C108.182 16.9759 107.846 16.9157 107.525 16.7987C107.189 16.6774 106.881 16.48 106.619 16.2194V19.8738H104.474L104.475 7.49359ZM108.513 9.68624C108.14 9.68427 107.772 9.78062 107.44 9.96714C107.115 10.1457 106.834 10.4069 106.621 10.729V13.5989C106.838 13.9244 107.123 14.1892 107.452 14.372C107.781 14.5547 108.144 14.6503 108.513 14.6509C108.814 14.6542 109.111 14.5873 109.386 14.4545C109.647 14.3281 109.883 14.1465 110.08 13.92C110.277 13.6911 110.434 13.4236 110.541 13.1314C110.764 12.5112 110.764 11.8218 110.541 11.2016C110.435 10.9087 110.278 10.6409 110.08 10.413C109.882 10.1888 109.647 10.0087 109.386 9.88259C109.111 9.75041 108.814 9.68394 108.513 9.68763V9.68624Z" fill="#737373"/>
<path d="M115.864 7.49363C115.894 7.56228 115.926 7.62921 115.962 7.69413C116.02 7.81333 116.048 7.94698 116.044 8.08176V8.61628C116.095 8.45798 116.179 8.31463 116.289 8.19726C116.406 8.07022 116.54 7.9614 116.684 7.87385C116.839 7.77926 117.002 7.70025 117.17 7.63778C117.337 7.57459 117.507 7.52107 117.68 7.47745C117.834 7.43799 117.991 7.40822 118.149 7.38829C118.273 7.37196 118.399 7.363 118.524 7.36149C119.104 7.35613 119.678 7.48525 120.209 7.74033C120.716 7.98364 121.173 8.33517 121.555 8.77429C121.937 9.21929 122.238 9.73946 122.443 10.3072C122.872 11.5093 122.872 12.8441 122.443 14.0462C122.237 14.6123 121.936 15.131 121.555 15.5749C121.173 16.0141 120.716 16.3656 120.209 16.6089C119.494 16.9492 118.707 17.0635 117.937 16.9388C117.722 16.903 117.511 16.841 117.309 16.754C117.082 16.6564 116.867 16.5291 116.668 16.3751C116.435 16.1935 116.225 15.9792 116.044 15.7376V19.9981H114.714V7.49363H115.864ZM118.524 15.5602C118.931 15.5655 119.335 15.4758 119.708 15.2973C120.059 15.1285 120.374 14.8827 120.634 14.5752C120.896 14.2614 121.101 13.8953 121.237 13.4969C121.526 12.6425 121.526 11.7039 121.237 10.8496C121.101 10.4512 120.896 10.0851 120.634 9.77128C120.374 9.46385 120.059 9.21807 119.708 9.04918C119.335 8.87068 118.931 8.78106 118.524 8.7863C118.062 8.78622 117.605 8.88936 117.182 9.08938C116.755 9.28722 116.368 9.57498 116.044 9.93622V14.1788C116.19 14.3972 116.36 14.5948 116.551 14.7669C116.738 14.9364 116.942 15.0814 117.159 15.1989C117.374 15.3148 117.599 15.4045 117.832 15.4664C118.058 15.5282 118.291 15.5601 118.524 15.5615V15.5602Z" fill="#737373"/>
<path d="M123.899 12.1746C123.896 11.5327 124.014 10.897 124.246 10.3072C124.695 9.15129 125.538 8.231 126.596 7.74036C127.138 7.4906 127.72 7.36194 128.308 7.36194C128.897 7.36194 129.479 7.4906 130.021 7.74036C131.079 8.23092 131.921 9.15124 132.37 10.3072C132.599 10.8994 132.717 11.5356 132.717 12.1783C132.717 12.8211 132.599 13.4573 132.37 14.0494C131.922 15.2055 131.079 16.1258 130.021 16.6163C129.479 16.8661 128.897 16.9948 128.308 16.9948C127.72 16.9948 127.138 16.8661 126.596 16.6163C125.538 16.1258 124.695 15.2054 124.246 14.0494C124.014 13.4572 123.896 12.819 123.899 12.1746ZM125.205 12.1746C125.202 12.6296 125.286 13.0802 125.45 13.4983C125.606 13.9008 125.832 14.2668 126.115 14.5766C126.397 14.8843 126.731 15.1295 127.098 15.2987C127.482 15.4723 127.893 15.5616 128.308 15.5616C128.723 15.5616 129.134 15.4723 129.517 15.2987C130.179 14.996 130.724 14.4518 131.059 13.7591C131.395 13.0664 131.5 12.2679 131.357 11.4999C131.215 10.7318 130.832 10.0416 130.276 9.54708C129.719 9.05251 129.023 8.78414 128.305 8.78771C127.891 8.78443 127.48 8.87389 127.098 9.05059C126.731 9.21987 126.397 9.46508 126.115 9.77271C125.832 10.0825 125.607 10.4485 125.45 10.851C125.286 11.2691 125.202 11.7197 125.205 12.1746Z" fill="#737373"/>
<path d="M133.901 12.1746C133.898 11.5327 134.016 10.897 134.248 10.3072C134.697 9.15129 135.54 8.231 136.598 7.74036C137.14 7.4906 137.722 7.36194 138.31 7.36194C138.899 7.36194 139.481 7.4906 140.023 7.74036C141.081 8.23092 141.923 9.15124 142.372 10.3072C142.601 10.8994 142.719 11.5356 142.719 12.1783C142.719 12.8211 142.601 13.4573 142.372 14.0494C141.924 15.2055 141.081 16.1258 140.023 16.6163C139.481 16.8661 138.899 16.9948 138.31 16.9948C137.722 16.9948 137.14 16.8661 136.598 16.6163C135.54 16.1258 134.697 15.2054 134.248 14.0494C134.016 13.4572 133.898 12.819 133.901 12.1746ZM135.207 12.1746C135.204 12.6296 135.288 13.0802 135.452 13.4983C135.608 13.9007 135.834 14.2667 136.116 14.5766C136.399 14.8842 136.732 15.1295 137.1 15.2987C137.481 15.4755 137.892 15.5649 138.307 15.5616C138.817 15.5614 139.319 15.424 139.768 15.1614C140.218 14.8988 140.601 14.5192 140.885 14.0561C141.168 13.593 141.343 13.0608 141.393 12.5065C141.443 11.9522 141.367 11.3929 141.173 10.8781C140.978 10.3634 140.67 9.90898 140.276 9.55521C139.882 9.20145 139.415 8.9592 138.915 8.8499C138.415 8.74061 137.898 8.76762 137.41 8.92858C136.922 9.08953 136.478 9.37947 136.116 9.77271C135.834 10.0826 135.608 10.4486 135.452 10.851C135.288 11.2691 135.204 11.7197 135.207 12.1746Z" fill="#737373"/>
<path d="M146 4.0813V16.8538H144.67V4.0813H146Z" fill="#737373"/>
<path d="M72.4136 10.9351L67.9227 6.02863C67.1622 5.19778 66.1307 4.73102 65.0552 4.73102C63.9797 4.73102 62.9482 5.19778 62.1877 6.02863C61.4272 6.85952 61 7.98643 61 9.16146C61 10.3365 61.4272 11.4634 62.1877 12.2943L66.6786 17.2007C67.4391 18.0316 68.4706 18.4983 69.5461 18.4983C70.6216 18.4983 71.6531 18.0316 72.4136 17.2007C73.1741 16.3698 73.6013 15.2429 73.6013 14.0679C73.6013 12.8929 73.1741 11.766 72.4136 10.9351Z" fill="#5CC9F6"/>
<path d="M85.5059 9.17666C84.7454 8.3458 83.7139 7.87903 82.6384 7.87903C81.5629 7.87903 80.5314 8.3458 79.7709 9.17666C79.3943 9.58808 79.0956 10.0765 78.8917 10.6141C78.6879 11.1517 78.583 11.7278 78.583 12.3097C78.583 12.8916 78.6879 13.4678 78.8917 14.0053C79.0956 14.5429 79.3943 15.0313 79.7709 15.4428C80.5314 16.2736 81.5629 16.7404 82.6384 16.7404C83.7139 16.7404 84.7454 16.2736 85.5059 15.4428C85.8825 15.0313 86.1813 14.5429 86.3851 14.0053C86.5889 13.4678 86.6938 12.8916 86.6938 12.3097C86.6938 11.7278 86.5889 11.1517 86.3851 10.6141C86.1813 10.0765 85.8825 9.58808 85.5059 9.17666Z" fill="#FA8807"/>
<path d="M68.3365 9.16384L66.6598 10.9957L66.6526 10.9873C65.9973 11.685 65.1453 12.12 64.235 12.2218C63.3248 12.3235 62.4097 12.086 61.6387 11.5477C61.7967 11.8175 61.981 12.0679 62.1884 12.2944L63.9983 14.2717L64.0165 14.2643L66.7004 17.1966L74.0529 9.16384C73.6776 8.75367 73.232 8.42829 72.7416 8.20631C72.2512 7.98432 71.7255 7.87006 71.1947 7.87006C70.6639 7.87006 70.1382 7.98432 69.6478 8.20631C69.1574 8.42829 68.7118 8.75367 68.3365 9.16384Z" fill="#00AEEB"/>
<path d="M82.621 6.06791L82.6172 6.06375C82.2467 5.6455 81.8032 5.31267 81.313 5.0849C80.8227 4.85714 80.2957 4.73906 79.7629 4.73768C79.2302 4.7363 78.7026 4.85164 78.2114 5.07687C77.7201 5.30209 77.2752 5.63265 76.9029 6.04897L69.5543 14.0776C68.839 14.8586 67.8824 15.3194 66.8722 15.3696C65.862 15.4199 64.8711 15.056 64.0938 14.3493L66.7003 17.197L66.7033 17.1943C67.4628 18.0241 68.493 18.4903 69.5672 18.4903C70.6413 18.4903 71.6715 18.0241 72.4311 17.1943L79.5882 9.37492L79.6 9.37861C79.6554 9.31024 79.7121 9.24278 79.7721 9.17718C80.2719 8.63049 80.894 8.23624 81.5765 8.03361C82.259 7.83099 82.9782 7.82705 83.6625 8.02218C83.4768 7.28289 83.1178 6.60931 82.621 6.06791Z" fill="#0080CA"/>
<path d="M83.66 8.02259C82.9757 7.82746 82.2565 7.8314 81.574 8.03402C80.8915 8.23665 80.2694 8.6309 79.7696 9.17759C79.7096 9.24319 79.6529 9.31065 79.5975 9.37902L79.5861 9.37533L72.429 17.1947C72.4159 17.209 72.4023 17.2219 72.3896 17.2358L72.3943 17.2413C73.1548 18.0722 74.1863 18.539 75.2618 18.539C76.3373 18.539 77.3688 18.0722 78.1293 17.2413L82.6202 12.3349C83.1274 11.781 83.491 11.09 83.6737 10.3323C83.8564 9.57465 83.8516 8.7776 83.66 8.02259Z" fill="#EE5913"/>
<path d="M71.5817 7.48255C71.9386 7.48255 72.2278 7.16649 72.2278 6.77662C72.2278 6.38674 71.9386 6.07068 71.5817 6.07068C71.2248 6.07068 70.9355 6.38674 70.9355 6.77662C70.9355 7.16649 71.2248 7.48255 71.5817 7.48255Z" fill="#5CC9F6"/>
<path d="M70.1546 6.10993C70.3835 6.10993 70.5691 5.90722 70.5691 5.65717C70.5691 5.40711 70.3835 5.20441 70.1546 5.20441C69.9258 5.20441 69.7402 5.40711 69.7402 5.65717C69.7402 5.90722 69.9258 6.10993 70.1546 6.10993Z" fill="#5CC9F6"/>
<path d="M71.0707 4.90552C71.2995 4.90552 71.4851 4.70281 71.4851 4.45276C71.4851 4.20271 71.2995 4 71.0707 4C70.8418 4 70.6562 4.20271 70.6562 4.45276C70.6562 4.70281 70.8418 4.90552 71.0707 4.90552Z" fill="#5CC9F6"/>
</g>
<defs>
<clipPath id="clip0">
<rect width="85" height="16" fill="white" transform="translate(61 4)"/>
</clipPath>
</defs>
</svg>
