<svg width="700" height="400" viewBox="0 0 351 305" fill="none" xmlns="http://www.w3.org/2000/svg">
<g clip-path="url(#clip0)">
<path d="M90.3241 154.721C90.3241 154.721 103.919 208.464 75.5241 221.743C52.5734 232.475 19.0762 205.236 19.0762 205.236L27.242 190.047C27.242 190.047 59.3441 210.784 63.3702 198.081C68.723 181.187 60.9818 155.933 60.9818 155.933" fill="#FFA071"/>
<path d="M99.6423 135L108.726 153.963C108.726 153.963 126.202 190.767 118.286 220.72C109.984 252.143 75.7667 277.162 75.7667 277.162L61.3079 265.134C61.3079 265.134 86.3815 238.114 91.0216 222.342C98.7097 196.201 91.9542 182.165 87.3216 169.174C80.1567 149.097 75.3118 139.6 75.3118 139.6" fill="#FFA071"/>
<path d="M43.5281 280.656L44.8853 279.678L61.6794 301.983C62.3011 302.84 63.3247 303.31 64.3786 303.219L64.515 303.348L62.3314 304.924C62.248 304.985 62.1495 305.007 62.0509 304.992L61.9599 304.977C61.323 304.894 60.7544 304.553 60.3753 304.037L43.3916 281.474C43.2097 281.217 43.2628 280.845 43.5281 280.656Z" fill="#F47D7A"/>
<path d="M67.654 258.623L52.4218 274.236L46.2501 280.557L62.5589 302.188C62.9683 302.757 63.7568 302.885 64.3255 302.476C64.7501 302.173 64.9396 301.635 64.8107 301.127L63.2488 287.636L80.3386 273.342" fill="#FFA071"/>
<path d="M64.1587 286.878L65.2656 301.711C65.387 302.287 65.1216 302.916 64.5909 303.302C63.8781 303.818 62.7788 303.499 62.3238 302.87L44.8853 279.678L52.6341 274.054C52.6341 274.054 58.0324 284.044 64.1587 286.878Z" fill="#222A41"/>
<path d="M64.5757 289.561C63.3701 289.516 62.1646 289.622 60.9894 289.857" stroke="#F47D7A" stroke-miterlimit="10" stroke-linecap="round" stroke-linejoin="round"/>
<path d="M64.7349 291.471C63.4384 291.464 62.7712 291.57 61.7173 291.767" stroke="#F47D7A" stroke-miterlimit="10" stroke-linecap="round" stroke-linejoin="round"/>
<path d="M64.9548 293.025C64.0904 293.01 63.0441 293.192 62.1949 293.305" stroke="#F47D7A" stroke-miterlimit="10" stroke-linecap="round" stroke-linejoin="round"/>
<path d="M64.8941 297.284C64.8941 297.284 60.6558 296.974 57.7443 298.778" stroke="#F47D7A" stroke-miterlimit="10"/>
<path d="M48.5929 285.923C48.5929 285.923 53.5287 281.974 50.0031 275.964" stroke="#F47D7A" stroke-miterlimit="10"/>
<path d="M52.6341 274.054C52.6341 274.054 57.1453 282.96 64.1511 286.878" stroke="#F47D7A" stroke-width="1.5" stroke-miterlimit="10" stroke-linecap="round"/>
<path d="M17.9162 182.998L19.2506 184.014L2.82807 206.592C2.19119 207.434 2.03955 208.555 2.43381 209.533L2.35041 209.7L0.20471 208.07C0.121309 208.01 0.0682347 207.919 0.0530708 207.82L0.0379068 207.729C-0.0682408 207.1 0.0909806 206.448 0.477661 205.941L17.0973 183.105C17.2869 182.854 17.6584 182.801 17.9162 182.998Z" fill="#F47D7A"/>
<path d="M41.9283 200.529L26.6582 189.63L18.8033 185.575L2.88115 207.494C2.45656 208.047 2.57028 208.843 3.12377 209.26C3.54078 209.578 4.10943 209.601 4.54918 209.328L16.9988 203.887L35.6732 216.043" fill="#FFA071"/>
<path d="M17.9996 204.538L4.13218 209.935C3.6166 210.223 2.93422 210.147 2.41107 209.753C1.71353 209.222 1.69078 208.078 2.16086 207.464L19.2506 184.014L26.9008 189.774C26.8933 189.774 18.917 197.854 17.9996 204.538Z" fill="#222A41"/>
<path d="M15.5506 205.728C15.2398 204.569 14.7924 203.439 14.2162 202.386" stroke="#F47D7A" stroke-miterlimit="10" stroke-linecap="round" stroke-linejoin="round"/>
<path d="M13.7689 206.433C13.3973 205.19 13.1017 204.584 12.6012 203.629" stroke="#F47D7A" stroke-miterlimit="10" stroke-linecap="round" stroke-linejoin="round"/>
<path d="M12.351 207.1C12.116 206.274 11.6383 205.327 11.2744 204.538" stroke="#F47D7A" stroke-miterlimit="10" stroke-linecap="round" stroke-linejoin="round"/>
<path d="M61.505 148.824C57.9036 156.767 62.7788 167.446 63.7189 173.797C64.8714 181.566 64.3634 189.176 61.7779 196.815C83.7202 200.521 100.825 200.4 123.344 198.665C122.229 163.975 111.167 145.216 102.531 136.864" fill="#222A41"/>
<path d="M64.045 151.287C63.6355 159.261 66.221 167.302 67.1611 173.653C68.3136 181.43 67.8132 189.729 65.2277 197.369" stroke="#4F96BA" stroke-miterlimit="10" stroke-linejoin="round"/>
<path d="M65.9935 156.706C66.0466 157.025 66.1072 157.336 66.1603 157.639" stroke="#4F96BA" stroke-linejoin="round"/>
<path d="M66.4863 159.511C67.3431 164.468 67.9724 168.538 68.7685 173.911C69.83 181.081 69.4888 188.925 67.4038 196.088" stroke="#4F96BA" stroke-linejoin="round" stroke-dasharray="2.5 2.5"/>
<path d="M67.1308 196.99C67.0398 197.293 66.9413 197.588 66.8351 197.892" stroke="#4F96BA" stroke-linejoin="round"/>
<path d="M64.4392 156.767C64.4392 156.767 88.2997 158.844 112.206 150.317" stroke="#4F96BA" stroke-miterlimit="10" stroke-linejoin="round"/>
<path d="M89.0427 150.378L94.1378 149.355C95.2903 149.127 96.42 149.825 96.7309 150.954L97.019 152C97.3602 153.258 96.5565 154.539 95.2751 154.781L93.2811 155.153" stroke="#4F96BA" stroke-miterlimit="10" stroke-linejoin="round"/>
<path d="M94.9567 151.962C94.9794 152.477 94.5776 152.909 94.062 152.932C93.5464 152.955 93.1142 152.553 93.0915 152.038C93.0688 151.522 93.4706 151.09 93.9862 151.068C94.5017 151.052 94.9339 151.454 94.9567 151.962Z" fill="#4F96BA"/>
<path d="M83.5913 156.593L82.5374 149.809" stroke="#4F96BA" stroke-miterlimit="10" stroke-linejoin="round"/>
<path d="M101.235 146.884L103.213 153.334" stroke="#4F96BA" stroke-miterlimit="10" stroke-linejoin="round"/>
<path d="M67.5857 164.043C67.5857 164.043 76.7296 164.596 79.2847 156.752" stroke="#4F96BA" stroke-miterlimit="10" stroke-linejoin="round"/>
<path d="M105.45 152.462C105.45 152.462 110.318 156.722 115.443 157.085" stroke="#4F96BA" stroke-miterlimit="10" stroke-linejoin="round"/>
<path d="M101.894 177.549C99.0888 182.059 96.147 186.485 93.0839 190.82" stroke="#4F96BA" stroke-width="0.75" stroke-miterlimit="10" stroke-linejoin="round"/>
<path d="M101.348 184.711C99.6954 186.227 98.1183 187.826 96.6171 189.494" stroke="#4F96BA" stroke-width="0.75" stroke-miterlimit="10" stroke-linejoin="round"/>
<path d="M104.116 79.7023C115.163 63.7331 117.293 47.3318 118.385 35.857C118.597 33.6211 118.635 29.4677 118.802 27.2319C118.901 25.9131 119.211 23.5409 119.803 23.503C120.887 23.4272 120.121 27.0121 120.887 26.8833C121.35 26.7999 121.676 24.1244 121.744 22.6617C121.804 21.3581 122.115 19.2738 122.676 19.2359C123.738 19.1677 123.306 26.3224 123.306 26.3224C123.624 26.2997 124.056 18.6296 124.936 18.478C126.202 18.2582 125.209 26.4361 125.512 26.7089C125.512 26.7089 126.498 19.6982 127.438 19.5315C128.378 19.3647 127.271 25.5721 127.324 27.5578C127.62 26.1329 128.181 21.0246 128.863 20.9109C129.546 20.7896 129.621 23.2983 129.568 23.9956C129.235 28.202 129.038 33.2952 128.833 36.433C128.097 47.8396 127.734 68.5231 117.71 85.4776" fill="#FFA071"/>
<path d="M127.188 28.3461C125.535 29.3162 123.98 30.7032 123.708 32.8253" stroke="#DD6945" stroke-miterlimit="10" stroke-linejoin="round"/>
<path d="M117.801 38.449C117.551 38.8659 117.824 39.2675 118.142 39.5631C118.597 39.9876 119.136 40.3514 119.674 40.6697C120.773 41.3139 122.017 41.7308 123.275 41.9202C124.61 42.1173 126.005 42.0794 127.317 41.7687C127.832 41.6474 128.348 41.4276 128.689 41.0032C128.962 40.6545 129.182 40.1088 128.863 39.7375C128.765 39.6238 128.537 39.6465 128.477 39.7905C128.401 39.9648 128.408 40.1088 128.363 40.2832C128.302 40.5333 128.113 40.7379 127.9 40.8743C127.491 41.132 126.975 41.2078 126.505 41.2836C125.421 41.4579 124.291 41.4655 123.207 41.2836C122.259 41.1244 121.327 40.844 120.455 40.4423C120.023 40.2377 119.591 40.0179 119.181 39.7678C118.741 39.5025 117.968 39.116 118.029 38.5096C118.044 38.3884 117.862 38.3581 117.801 38.449Z" fill="#AD3A3A"/>
<path d="M118.044 36.865C117.68 36.9181 117.513 37.2592 117.559 37.6002C117.634 38.1004 118.165 38.3051 118.582 38.4415C120.045 38.9341 121.569 39.3434 123.116 39.4571C124.488 39.5632 125.891 39.4116 127.165 38.8659C128.173 38.4339 129.288 37.5775 129.06 36.3421C129.007 36.0465 128.583 36.1829 128.621 36.4633C128.78 37.5699 127.544 38.2369 126.672 38.5628C125.724 38.9114 124.708 39.0403 123.7 39.0251C122.654 39.0024 121.622 38.8205 120.606 38.5703C120.083 38.4415 119.56 38.2899 119.037 38.1383C118.832 38.0777 118.62 38.0246 118.423 37.9413C118.15 37.8276 117.589 37.3198 118.127 37.0848C118.271 37.0242 118.165 36.8499 118.044 36.865Z" fill="#AD3A3A"/>
<path d="M38.8045 87.7513C28.2656 71.441 26.6582 54.9791 25.9228 43.4815C25.7787 41.2381 25.8773 37.0847 25.7787 34.8413C25.7181 33.5225 25.4906 31.1351 24.8992 31.082C23.8226 30.9759 24.467 34.5836 23.7088 34.4244C23.2539 34.3259 23.0113 31.6429 22.981 30.1801C22.9582 28.8689 22.7156 26.7771 22.1621 26.724C21.1082 26.6179 21.3129 33.7878 21.3129 33.7878C20.9945 33.7575 20.8049 26.0798 19.933 25.8979C18.6744 25.6326 19.4099 33.8408 19.099 34.1061C19.099 34.1061 18.3332 27.0651 17.4006 26.868C16.468 26.671 17.3779 32.9086 17.2642 34.8943C17.0139 33.4619 16.6121 28.3384 15.9373 28.202C15.2549 28.058 15.1033 30.5667 15.1336 31.2564C15.3307 35.4704 15.3687 40.5635 15.4748 43.7165C15.8539 55.1382 15.5582 75.8293 25.0433 93.087" fill="#FFA071"/>
<path d="M17.3627 35.6902C18.9853 36.7134 20.4941 38.1458 20.6988 40.2756" stroke="#DD6945" stroke-miterlimit="10" stroke-linejoin="round"/>
<path d="M120.978 85.7731C125.216 77.5119 127.976 67.8939 128.507 60.9363C125.087 58.4655 119.477 53.9028 112.789 56.889C109.711 82.5217 82.7042 90.5935 82.7042 90.5935L67.1763 90.9118C67.1763 90.9118 45.7496 94.0496 36.5451 78.9671C33.8384 74.5257 32.4357 71.0772 31.5486 67.3634C27.4847 68.9626 22.0711 70.2738 15.7857 71.6305C16.6955 78.194 19.2279 85.3563 22.6019 91.3135C32.1248 108.154 48.0697 113.801 55.1285 115.529C55.7123 118.371 56.8042 142.314 57.115 152.583C81.8095 152.705 101.879 150.158 114.344 144.186C111.819 137.213 103.987 111.838 102.91 106.479C105.996 104.676 114.473 98.4455 120.978 85.7731Z" fill="#F47D7A"/>
<path d="M32.9285 69.7433L31.306 64.2636C28.4779 64.1044 14.7773 69.9101 14.7773 69.9101L16.4074 77.0572L32.9285 69.7433Z" fill="#FFB6B6"/>
<path d="M99.5362 99.1808C99.5362 99.1808 101.932 102.546 102.903 106.502" stroke="#AD3A3A" stroke-miterlimit="10"/>
<path d="M63.9995 91.162C63.9995 91.162 69.0642 101.379 79.7624 99.6127C86.2374 98.544 84.3874 90.4041 84.3874 90.4041" stroke="#AD3A3A" stroke-miterlimit="10"/>
<path d="M55.121 115.536C55.121 115.536 60.9212 118.636 62.6878 120.486" stroke="#AD3A3A" stroke-miterlimit="10"/>
<path d="M57.3956 116.817C57.3956 116.817 57.4411 117.143 57.5245 117.75" stroke="#AD3A3A" stroke-miterlimit="10"/>
<path d="M57.7822 119.713C58.4267 124.882 59.6929 136.455 60.0341 150.385" stroke="#AD3A3A" stroke-miterlimit="10" stroke-dasharray="2.62 2.62"/>
<path d="M60.0568 151.386C60.0644 151.704 60.072 152.015 60.072 152.333" stroke="#AD3A3A" stroke-miterlimit="10"/>
<path d="M112.441 54.1909L111.819 59.807C111.819 59.807 122.161 62.5961 128.234 65.4231C129.068 64.8396 130.486 58.42 130.486 58.42C130.486 58.42 116.588 53.3647 112.441 54.1909Z" fill="#FFB6B6"/>
<path d="M52.0958 104.971L49.9652 107.154L52.5507 108.018L52.0958 104.971Z" fill="#E05F5F"/>
<path d="M94.8657 110.125L92.7351 112.3L95.313 113.164L94.8657 110.125Z" fill="#E05F5F"/>
<path d="M98.5429 124.101L98.2548 127.133L100.81 126.185L98.5429 124.101Z" fill="#E05F5F"/>
<path d="M80.2704 118.993L78.2915 116.673L77.1921 119.167L80.2704 118.993Z" fill="#E05F5F"/>
<path d="M65.9404 142.291L65.6523 145.323L68.2075 144.375L65.9404 142.291Z" fill="#E05F5F"/>
<path d="M35.4761 93.4205L35.3699 96.4673L37.8644 95.3608L35.4761 93.4205Z" fill="#E05F5F"/>
<path d="M106.451 84.9622L109.249 83.7572L107.194 81.9761L106.451 84.9622Z" fill="#E05F5F"/>
<path d="M118.643 80.4375L120.379 77.9364L117.687 77.512L118.643 80.4375Z" fill="#E05F5F"/>
<path d="M113.548 67.2573L116.58 67.5908L115.671 65.0215L113.548 67.2573Z" fill="#E05F5F"/>
<path d="M106.33 96.725L109.378 96.7705L108.225 94.2997L106.33 96.725Z" fill="#E05F5F"/>
<path d="M84.4632 106.343L84.8878 103.327L82.2948 104.16L84.4632 106.343Z" fill="#E05F5F"/>
<path d="M92.9626 90.9422L95.6997 92.2761L95.7073 89.5552L92.9626 90.9422Z" fill="#E05F5F"/>
<path d="M25.7105 88.153L27.2648 85.5306L24.5504 85.3032L25.7105 88.153Z" fill="#E05F5F"/>
<path d="M48.4185 94.8985L51.2542 93.7995L49.2677 91.9426L48.4185 94.8985Z" fill="#E05F5F"/>
<path d="M64.788 108.283L67.8359 108.314L66.6759 105.85L64.788 108.283Z" fill="#E05F5F"/>
<path d="M70.429 129.043L67.9269 127.299L67.5023 129.99L70.429 129.043Z" fill="#E05F5F"/>
<path d="M102.523 139.365L102.243 136.334L99.9153 137.736L102.523 139.365Z" fill="#E05F5F"/>
<path d="M87.7083 133.704L86.7606 130.808L84.8044 132.696L87.7083 133.704Z" fill="#E05F5F"/>
<path d="M80.1187 142.617L82.0749 140.282L79.4288 139.615L80.1187 142.617Z" fill="#E05F5F"/>
<path d="M81.6048 79.672C81.9839 79.5129 82.4995 79.5432 82.8331 79.8009C82.9013 79.8539 82.9771 79.9373 83.0075 80.0131C83.0226 80.0586 83.0302 80.0813 83.0302 80.1192C83.0302 80.104 83.0226 80.1495 83.0226 80.1571C83.0226 80.1647 82.9999 80.195 82.9923 80.2102C82.8862 80.3542 82.7118 80.4224 82.5298 80.4603C82.5298 80.4603 82.4919 80.4678 82.5146 80.4603C82.5298 80.4603 82.4919 80.4603 82.4843 80.4603C82.454 80.4603 82.4312 80.4603 82.4009 80.4603C82.3706 80.4603 82.3478 80.4603 82.3175 80.4603C82.3023 80.4603 82.2948 80.4603 82.2796 80.4603C82.3023 80.4603 82.2872 80.4603 82.272 80.4603C82.1431 80.4375 82.0218 80.4148 81.8929 80.4072C81.764 80.3996 81.6655 80.5588 81.7413 80.6725C81.8323 80.8089 81.9612 80.8847 82.1204 80.9226C82.272 80.9529 82.4312 80.9453 82.5829 80.9226C82.8634 80.8771 83.1288 80.7255 83.3032 80.5057C83.5155 80.2329 83.4472 79.8994 83.2273 79.6569C83.0302 79.4371 82.7345 79.3234 82.4464 79.2855C82.1128 79.24 81.7792 79.3082 81.4911 79.475C81.3622 79.5583 81.4759 79.7327 81.6048 79.672Z" fill="#F47D7A"/>
<path d="M77.3134 70.3497C79.8079 73.154 84.9484 81.5971 79.9671 85.3564C76.0775 88.2895 69.7238 84.5075 67.9118 80.6952C66.8351 78.4366 66.13 74.6849 67.2749 72.3127C69.1097 68.5307 74.4626 67.1513 77.3134 70.3497Z" fill="#FFA071"/>
<path d="M77.2679 83.5525L78.6403 89.5855C79.9216 90.1085 81.8474 90.4041 81.8474 90.4041C81.8474 90.4041 83.7884 97.7483 76.4263 97.574C69.0566 97.4072 66.3195 91.0104 66.3195 91.0104C66.3195 91.0104 68.6321 90.7148 69.9741 90.0934L70.1105 81.6274" fill="#FFA071"/>
<path d="M66.8579 81.0969C70.3456 78.8838 73.1661 75.6323 74.8568 71.8655C77.1163 73.2904 81.112 75.5793 81.112 75.5793C82.636 73.4268 81.673 70.1071 80.695 68.5686C79.3226 66.4161 75.5165 65.3626 72.8325 65.6051C71.4829 65.7264 70.0271 66.0826 68.8519 65.4156C67.8814 64.8624 67.381 63.7406 67.146 62.6568C66.9109 61.5654 66.8806 60.4286 66.547 59.3675C65.6826 56.6617 62.6347 54.8579 59.8445 55.396C58.3736 55.684 56.9785 56.5253 55.4925 56.351C53.688 56.1312 52.4445 54.5168 51.2617 53.145C49.4345 51.0228 46.5837 48.4308 43.8845 47.544C41.0261 46.6118 37.6521 48.5141 36.0826 50.8788C34.2402 53.6604 34.2099 57.3969 35.4988 60.474C35.9916 61.6564 36.674 62.7857 36.8257 64.059C37.0607 66.0295 35.9689 68.0304 36.4617 69.948C36.7877 71.2137 37.7658 72.2293 38.8955 72.8735C40.0404 73.5253 41.5947 74.0786 42.9064 74.2378C44.5062 74.4272 46.1136 73.9422 47.5845 74.8668C49.2677 75.9203 49.624 78.1486 50.3671 79.9903C51.421 82.6203 53.5667 84.7879 56.19 85.8718C60.2312 87.5467 66.5167 86.5539 69.7163 83.4919" fill="#2F2209"/>
<path d="M69.0339 79.9221C68.7837 79.384 68.0255 79.24 67.5099 79.5204C66.9868 79.8009 66.6986 80.3769 66.5849 80.9605C66.5167 81.3243 66.5015 81.7032 66.6077 82.067C66.7896 82.7113 67.3204 83.2039 67.889 83.5526C68.905 84.174 70.1408 84.0452 70.7474 82.9159" fill="#FFA071"/>
<path d="M77.1011 76.8525C77.1011 76.8525 79.3757 78.5048 79.353 79.2172C79.3302 79.9297 77.7228 80.3086 77.7228 80.3086" stroke="#DD6945" stroke-width="0.75" stroke-miterlimit="10" stroke-linejoin="round"/>
<path d="M80.4372 80.3693L74.9554 82.5672C74.9554 82.5672 76.5628 85.2654 79.497 84.0603C81.5896 83.1963 80.4372 80.3693 80.4372 80.3693Z" fill="white"/>
<path d="M74.4323 77.042C74.546 77.4968 74.129 77.9212 73.765 78.1183C73.5755 78.2244 73.3632 78.2774 73.1433 78.2623C72.9234 78.2547 72.7187 78.1334 72.4989 78.0652C72.3245 78.0122 72.2183 78.2016 72.2866 78.3456C72.4306 78.6564 72.7946 78.7549 73.113 78.7776C73.4314 78.7928 73.7575 78.6943 74.0228 78.52C74.5157 78.2016 74.9706 77.5726 74.7431 76.9587C74.6597 76.7768 74.3792 76.845 74.4323 77.042Z" fill="#010101"/>
<path d="M77.973 75.9809C78.2611 76.1098 78.6327 76.2159 78.9435 76.0946C79.2468 75.9809 79.5046 75.7308 79.5804 75.4049C79.6032 75.3139 79.6259 75.2078 79.6183 75.1169C79.6107 75.0563 79.5956 74.9956 79.588 74.9426C79.5728 74.8744 79.5577 74.8213 79.5046 74.7758C79.4439 74.7228 79.3529 74.7152 79.2847 74.7758C79.2316 74.8213 79.2165 74.8819 79.2013 74.9426C79.2013 74.9501 79.171 75.0259 79.1937 74.9729C79.1786 75.0032 79.1634 75.0411 79.1482 75.0714C79.1331 75.1169 79.1255 75.1548 79.1103 75.2003C79.1027 75.223 79.0952 75.2382 79.0876 75.2609C79.0724 75.3064 79.1103 75.2003 79.0876 75.2685C79.0724 75.2912 79.0648 75.3215 79.0572 75.3443C79.0497 75.367 79.0497 75.3594 79.0648 75.3215C79.0573 75.3367 79.0497 75.3594 79.0421 75.3746C79.0269 75.4049 79.0118 75.4352 78.989 75.4579C78.9511 75.511 79.0193 75.4276 78.989 75.4579C78.9738 75.4731 78.9663 75.4883 78.9511 75.4958C78.9359 75.511 78.9284 75.5186 78.9132 75.5337C78.898 75.5489 78.845 75.5792 78.9132 75.5337C78.8829 75.5489 78.8525 75.5716 78.8222 75.5944C78.807 75.602 78.7919 75.6095 78.7767 75.6171C78.7388 75.6398 78.8374 75.5944 78.7767 75.6171C78.7085 75.6398 78.6402 75.6626 78.572 75.6777C78.5038 75.6929 78.6023 75.6777 78.5568 75.6777C78.5341 75.6777 78.5189 75.6777 78.4962 75.6853C78.4507 75.6853 78.4128 75.6853 78.3673 75.6853C78.3445 75.6853 78.3218 75.6853 78.2991 75.6777C78.2763 75.6777 78.2763 75.6777 78.2991 75.6777C78.2839 75.6777 78.2763 75.6777 78.2611 75.6702C78.2157 75.6626 78.1626 75.655 78.1171 75.6399C78.0261 75.6171 77.9351 75.6626 77.8972 75.746C77.8669 75.8293 77.8896 75.943 77.973 75.9809Z" fill="#010101"/>
<path d="M77.92 86.4325C77.92 86.4325 75.4179 87.1374 72.2866 85.1062" stroke="#DD6945" stroke-width="0.75" stroke-miterlimit="10" stroke-linejoin="round"/>
<path d="M68.1316 83.6511C68.0558 83.5602 67.9117 83.5677 67.8283 83.6511C67.7525 83.7193 67.7298 83.8254 67.7222 83.924C67.7146 84.121 67.7449 84.3256 67.8056 84.5075C67.9269 84.8713 68.1999 85.1897 68.5865 85.2958C68.7837 85.3488 69.0111 85.3488 69.1931 85.2503C69.3751 85.1518 69.4888 84.9623 69.5722 84.7728C69.7163 84.4242 69.7011 84.0225 69.557 83.6814C69.4736 83.4692 69.3447 83.2873 69.1552 83.1509C68.9884 83.0296 68.6245 82.8856 68.4577 83.0827C68.3515 83.2115 68.3742 83.3631 68.5031 83.4616C68.5486 83.4919 68.6017 83.5071 68.6472 83.5071C68.6624 83.5071 68.7306 83.5071 68.7154 83.5071C68.7533 83.5147 68.7837 83.5223 68.8292 83.5526C68.905 83.598 68.9808 83.6814 69.0339 83.7724C69.0945 83.8785 69.1249 83.977 69.1476 84.1059C69.1628 84.1892 69.1628 84.3408 69.1476 84.4242C69.1249 84.5454 69.0945 84.6364 69.0263 84.7425C68.9732 84.8259 68.9201 84.8562 68.8216 84.8562C68.632 84.8562 68.4273 84.7273 68.3212 84.553C68.2454 84.4317 68.1999 84.3029 68.1695 84.1589C68.1544 84.0907 68.1468 84.0301 68.1468 83.9618C68.1468 83.9315 68.1316 83.8861 68.1392 83.8557C68.1316 83.8861 68.1771 83.8027 68.1392 83.8557C68.1999 83.7799 68.1847 83.7042 68.1316 83.6511Z" fill="#F47D7A"/>
<path d="M147.515 36.1146C148.667 34.1895 150.987 30.7486 152.14 28.8235C152.822 27.6866 153.937 25.572 153.474 25.2006C152.633 24.5185 151.185 27.8912 150.646 27.3455C150.313 27.0121 151.586 24.6398 152.375 23.3968C153.073 22.2902 154.02 20.4106 153.588 20.062C152.762 19.395 148.993 25.4962 148.993 25.4962C148.743 25.2916 152.815 18.7735 152.178 18.1445C151.268 17.235 147.371 24.4958 146.969 24.5413C146.969 24.5413 150.199 18.2354 149.532 17.5684C148.857 16.8939 146.196 22.601 145.005 24.2002C145.589 22.8663 148.068 18.3718 147.576 17.8792C147.083 17.3865 145.582 19.395 145.225 19.9938C143.072 23.6242 139.539 31.2412 139.539 31.2412" fill="#FFA071"/>
<path d="M144.649 24.905C145.445 26.6482 145.915 28.6794 144.914 30.5667" stroke="#DD6945" stroke-miterlimit="10" stroke-linejoin="round"/>
<path d="M226.14 34.144C227.217 31.3776 228.521 28.6264 229.802 26.4284C230.545 25.1551 231.485 23.1163 232.008 23.4347C232.964 24.0183 231.341 26.9969 232.062 27.3379C232.501 27.5426 234.351 25.4734 235.276 24.2759C236.103 23.2073 237.589 21.6308 238.082 21.9264C239.014 22.4948 234.427 28.2929 234.427 28.2929C234.708 28.4672 239.598 22.2296 240.432 22.6237C241.63 23.1921 235.966 29.5131 236.065 29.9224C236.065 29.9224 241.039 24.5791 241.926 24.996C242.813 25.4128 238.218 29.9982 237.088 31.7111C238.18 30.6803 241.668 26.6937 242.312 27.0044C242.98 27.3303 241.744 29.1342 240.819 30.2786C238.089 33.6665 232.395 39.4646 232.395 39.4646" fill="#FFA071"/>
<path d="M236.467 32.1052C235.564 32.0295 233.714 32.4766 233.04 33.227" stroke="#DD6945" stroke-miterlimit="10" stroke-linejoin="round"/>
<path d="M231.766 28.2019C231.766 28.2019 232.122 29.9072 231.402 31.5443" stroke="#DD6945" stroke-miterlimit="10" stroke-linejoin="round"/>
<path d="M218.035 188.683L216.769 189.774L234.943 211.943C235.633 212.747 235.853 213.853 235.519 214.854L235.617 215.02L237.657 213.262C237.733 213.194 237.778 213.103 237.794 213.004L237.801 212.913C237.869 212.277 237.672 211.64 237.248 211.155L218.861 188.751C218.657 188.501 218.277 188.471 218.035 188.683Z" fill="#2F2209"/>
<path d="M190.998 207.032L209.725 195.845L217.307 191.305L234.943 212.845C235.398 213.376 235.337 214.171 234.814 214.626C234.42 214.967 233.851 215.028 233.396 214.785L220.628 210.139L202.757 223.448" fill="#FFA071"/>
<path d="M219.673 210.852L233.851 215.369C234.382 215.627 235.056 215.505 235.557 215.081C236.216 214.513 236.171 213.361 235.663 212.777L216.769 189.782L209.498 196.012C209.498 196.012 218.331 204.235 219.673 210.852Z" fill="#F7633A"/>
<path d="M222.19 211.883C222.425 210.7 222.804 209.556 223.312 208.464" stroke="#2F2209" stroke-miterlimit="10" stroke-linecap="round" stroke-linejoin="round"/>
<path d="M224.009 212.474C224.305 211.216 224.563 210.587 224.995 209.601" stroke="#2F2209" stroke-miterlimit="10" stroke-linecap="round" stroke-linejoin="round"/>
<path d="M225.465 213.05C225.647 212.209 226.064 211.231 226.383 210.427" stroke="#2F2209" stroke-miterlimit="10" stroke-linecap="round" stroke-linejoin="round"/>
<path d="M142.86 165.4C142.86 165.4 112.843 229.868 136.445 245.284C166.25 264.747 216.518 218.461 216.518 218.461L206.313 196.141C206.313 196.141 154.066 229.337 156.242 219.818C158.418 210.299 183.188 176.708 178.237 164.104" fill="#1B4E61"/>
<path d="M205.365 200.658C205.365 200.658 156.477 232.953 153.186 222.046C150.062 211.686 180.959 179.838 176.016 167.241" stroke="#07202B" stroke-miterlimit="10" stroke-linejoin="round" stroke-dasharray="2.5 2.5"/>
<path d="M243.268 259.472L241.683 258.926L231.644 285.772C231.296 286.772 230.454 287.515 229.415 287.735L229.324 287.901L231.872 288.781C231.963 288.811 232.069 288.811 232.16 288.765L232.243 288.727C232.827 288.462 233.275 287.977 233.487 287.371L243.632 260.222C243.738 259.912 243.579 259.578 243.268 259.472Z" fill="#2F2209"/>
<path d="M213.812 245.329L232.896 255.895L240.637 260.162L230.871 286.226C230.644 286.886 229.923 287.234 229.264 287.007C228.771 286.84 228.43 286.378 228.415 285.855L226.019 272.485L205.532 263.724" fill="#FFA071"/>
<path d="M224.919 272.023L228.142 286.545C228.187 287.128 228.627 287.659 229.249 287.871C230.075 288.159 231.038 287.538 231.296 286.81L241.691 258.926L232.645 255.773C232.645 255.773 229.969 267.544 224.919 272.023Z" fill="#F7633A"/>
<path d="M225.291 274.714C226.428 274.327 227.611 274.077 228.809 273.963" stroke="#2F2209" stroke-miterlimit="10" stroke-linecap="round" stroke-linejoin="round"/>
<path d="M225.693 276.586C226.929 276.207 227.603 276.116 228.672 275.995" stroke="#2F2209" stroke-miterlimit="10" stroke-linecap="round" stroke-linejoin="round"/>
<path d="M225.928 278.14C226.747 277.874 227.8 277.745 228.657 277.617" stroke="#2F2209" stroke-miterlimit="10" stroke-linecap="round" stroke-linejoin="round"/>
<path d="M161.011 166.923C161.011 166.923 151.715 213.429 173.718 242.374C192.984 267.718 213.334 275.585 213.334 275.585L227.467 252.151C227.467 252.151 204.365 237.341 196.449 220.697C190.027 207.176 191.725 188.19 192.802 162.694" fill="#1B4E61"/>
<path d="M160.7 168.393C160.7 168.393 150.821 214.96 175.28 244.397" stroke="#07202B" stroke-miterlimit="10" stroke-linejoin="round"/>
<path d="M201.938 230.065C201.938 230.065 193.257 218.84 192.34 204.705" stroke="#07202B" stroke-miterlimit="10" stroke-linejoin="round"/>
<path d="M226.155 254.333C226.155 254.333 225.875 254.159 225.359 253.826" stroke="#07202B" stroke-linejoin="round"/>
<path d="M223.752 252.757C217.36 248.414 199.997 235.681 194.182 221.94C186.024 202.659 189.466 190.752 190.649 166.559" stroke="#07202B" stroke-linejoin="round" stroke-dasharray="2.55 2.55"/>
<path d="M190.694 165.589C190.709 165.278 190.725 164.96 190.732 164.642" stroke="#07202B" stroke-linejoin="round"/>
<path d="M225.799 251.181L229.688 253.272L216.973 277.761L211.196 275.259L225.799 251.181Z" fill="#2B778E"/>
<path d="M177.782 172.441C177.782 172.441 178.692 182.051 189.178 183.931" stroke="#07202B" stroke-miterlimit="10" stroke-linejoin="round"/>
<path d="M156.439 170.319C156.439 170.319 155.984 181.096 155.923 182.529C155.863 183.961 158.274 185.901 158.274 185.901" stroke="#07202B" stroke-miterlimit="10" stroke-linejoin="round"/>
<path d="M138.629 175.48C138.629 175.48 146.256 179.482 151.397 171.327" stroke="#07202B" stroke-miterlimit="10" stroke-linejoin="round"/>
<path d="M202.545 198.384L213.471 221.501L218.695 217.893L206.783 195.557L202.545 198.384Z" fill="#2B778E"/>
<path d="M226.512 29.1873C210.286 45.1792 194.068 83.2493 183.438 90.8512C180.451 92.9885 175.614 93.4736 175.614 93.4736L159.214 91.9881C159.214 91.9881 145.847 90.8663 142.875 75.3594C139.91 59.8601 152.83 31.4155 152.83 31.4155L139.091 28.0731C139.091 28.0731 120.265 53.2965 124.36 80.7633C126.627 95.9671 136.385 106.457 143.709 111.739C141.684 123.73 139.417 154.584 140.16 170.288C140.16 170.288 159.699 180.232 193.356 169.545C193.356 169.545 194.872 139.13 201.627 113.323C207.473 91.0028 226.436 53.8119 239.992 35.7735L226.512 29.1873Z" fill="#F7633A"/>
<path d="M132.776 164.195C141.73 168.833 151.912 170.758 161.928 171.114C172.884 171.508 183.833 169.826 194.47 167.31C197.601 166.567 200.718 165.748 203.819 164.877C205.35 164.445 206.882 163.975 208.406 163.505C209.998 163.012 211.727 162.633 213.175 161.792C213.918 161.36 213.645 160.011 212.712 160.094C212.318 160.132 211.916 160.14 211.537 160.238C211.181 160.329 210.824 160.458 210.476 160.564C209.771 160.784 209.058 160.996 208.353 161.216C207.003 161.625 205.646 162.027 204.289 162.413C201.597 163.187 198.906 163.96 196.191 164.665C190.763 166.067 185.281 167.249 179.738 168.09C169.533 169.629 159.123 169.864 148.933 168.06C143.572 167.113 138.242 165.604 133.299 163.293C132.707 163.02 132.177 163.884 132.776 164.195Z" fill="#FF8650"/>
<path d="M131.229 162.072C141.722 165.475 152.701 167.059 163.718 167.196C174.689 167.332 185.66 166.029 196.335 163.528C202.196 162.148 208.118 160.572 213.584 158.01C214.35 157.654 213.804 156.449 213.016 156.668C207.845 158.063 202.772 159.791 197.571 161.079C192.34 162.376 187.032 163.384 181.694 164.119C171.004 165.589 160.086 165.809 149.365 164.536C143.345 163.823 137.363 162.656 131.532 160.981C130.819 160.769 130.531 161.845 131.229 162.072Z" fill="#FF8650"/>
<path d="M134.815 159.412C139.372 161.39 144.368 162.171 149.274 162.648C155.43 163.247 161.663 163.179 167.835 162.876C174.499 162.55 181.133 161.86 187.737 160.92C193.719 160.072 199.679 159.003 205.563 157.616C209.915 156.585 214.32 155.463 218.384 153.569C218.573 153.485 218.74 153.387 218.914 153.273C218.998 153.22 219.074 153.159 219.157 153.106C219.218 153.068 219.582 152.849 219.392 152.94C220.218 152.538 219.498 151.302 218.672 151.704C218.657 151.712 218.641 151.719 218.619 151.727C218.74 151.697 218.861 151.659 218.983 151.628C218.126 151.719 217.307 152.144 216.503 152.432C215.578 152.765 214.653 153.084 213.713 153.387C211.476 154.107 209.225 154.751 206.942 155.327C201.256 156.767 195.486 157.858 189.701 158.76C183.272 159.761 176.797 160.481 170.306 160.951C164.051 161.398 157.804 161.519 151.541 161.261C146.552 161.057 141.427 160.557 136.642 159.048C136.15 158.897 135.664 158.722 135.179 158.541C134.679 158.374 134.33 159.2 134.815 159.412Z" fill="#FF8650"/>
<path d="M216.761 29.2555C223.107 34.8565 230.682 38.646 238.423 41.9126C239.522 42.375 240.622 42.8297 241.721 43.2769C242.282 43.5043 242.843 43.7392 243.412 43.9439C243.973 44.1485 244.579 44.247 245.163 44.3759C245.755 44.5123 246.141 43.6937 245.588 43.3754C245.163 43.1329 244.754 42.8676 244.322 42.6402C243.829 42.3826 243.283 42.2007 242.767 41.9884C241.797 41.5943 240.826 41.2229 239.856 40.8288C237.922 40.0482 236.004 39.2448 234.101 38.3959C230.356 36.7209 226.663 34.8792 223.191 32.6964C221.197 31.4458 219.271 30.074 217.459 28.5658C216.973 28.1717 216.291 28.8386 216.761 29.2555Z" fill="#FF8650"/>
<path d="M214.274 31.8248C220.62 37.4258 228.195 41.2154 235.936 44.482C237.035 44.9443 238.135 45.3991 239.234 45.8462C239.795 46.0736 240.356 46.3086 240.925 46.5132C241.486 46.7178 242.093 46.8164 242.676 46.9452C243.268 47.0816 243.654 46.2631 243.101 45.9448C242.676 45.7022 242.267 45.437 241.835 45.2096C241.342 44.9519 240.796 44.77 240.28 44.5578C239.31 44.1637 238.339 43.7923 237.369 43.3982C235.436 42.6175 233.517 41.8141 231.614 40.9653C227.869 39.2903 224.176 37.4485 220.704 35.2657C218.71 34.0152 216.784 32.6434 214.972 31.1351C214.487 30.741 213.797 31.408 214.274 31.8248Z" fill="#FF8650"/>
<path d="M131.79 29.8012C139.061 34.1668 147.242 36.5315 155.468 38.3429C156.598 38.593 157.735 38.8355 158.865 39.0705C159.441 39.1918 160.025 39.313 160.609 39.4116C161.223 39.5101 161.86 39.5025 162.474 39.5252C163.126 39.5556 163.179 38.6461 162.618 38.449C162.141 38.2823 161.67 38.0852 161.185 37.9336C160.677 37.782 160.131 37.7062 159.616 37.6001C158.592 37.3955 157.561 37.1984 156.537 36.9862C154.49 36.5694 152.443 36.1222 150.411 35.6296C146.431 34.6594 142.473 33.5226 138.667 32.0067C136.476 31.1351 134.337 30.1195 132.275 28.9675C131.737 28.6567 131.252 29.4829 131.79 29.8012Z" fill="#FF8650"/>
<path d="M127.68 32.325C134.952 36.6906 143.133 39.0553 151.359 40.8667C152.489 41.1168 153.626 41.3593 154.756 41.5943C155.332 41.7155 155.916 41.8368 156.5 41.9353C157.114 42.0339 157.751 42.0263 158.365 42.049C159.017 42.0793 159.07 41.1698 158.509 40.9728C158.031 40.806 157.561 40.609 157.076 40.4574C156.568 40.3058 156.022 40.23 155.506 40.1239C154.483 39.9193 153.452 39.7222 152.428 39.51C150.381 39.0931 148.334 38.646 146.302 38.1533C142.321 37.1832 138.363 36.0463 134.557 34.5305C132.366 33.6589 130.228 32.6433 128.166 31.4913C127.627 31.1805 127.15 31.9991 127.68 32.325Z" fill="#FF8650"/>
<path d="M143.709 111.732C143.709 111.732 145.271 106.055 144.892 102.432" stroke="#C6341C" stroke-miterlimit="10" stroke-linejoin="round"/>
<path d="M176.334 112.414C176.334 112.414 174.984 122.047 175.606 122.577C176.228 123.108 179.147 126.625 180.406 126.488C181.664 126.359 187.843 124.427 188.116 122.934C188.655 119.955 189.693 113.482 189.693 113.482" stroke="#FF8650" stroke-miterlimit="10" stroke-linejoin="round"/>
<path d="M156.75 91.4727C156.75 91.4727 160.237 104.539 164.612 104.827C169.692 105.168 178.669 92.8824 178.669 92.8824" stroke="#C6341C" stroke-miterlimit="10" stroke-linejoin="round"/>
<path d="M176 112.33C176 112.33 183.203 114.165 189.678 113.482" stroke="#C6341C" stroke-miterlimit="10" stroke-linejoin="round"/>
<path d="M176.137 113.611C176.137 113.611 183.34 115.445 189.815 114.763" stroke="#C6341C" stroke-miterlimit="10" stroke-linejoin="round" stroke-dasharray="2.5 2.5"/>
<path d="M138.189 29.3767L151.837 33.6968" stroke="#C6341C" stroke-miterlimit="10" stroke-linejoin="round"/>
<path d="M225.101 30.6349L238.4 37.9336" stroke="#C6341C" stroke-miterlimit="10" stroke-linejoin="round"/>
<path d="M163.718 86.0537C163.718 86.0537 162.793 90.6087 162.254 91.3818C161.716 92.1549 159.206 91.9881 159.206 91.9881C159.206 91.9881 162.11 102.713 164.832 102.425C167.554 102.137 176.266 93.3827 176.266 93.3827C176.266 93.3827 173.514 93.5419 173.4 92.4277C173.286 91.3136 174.128 84.03 174.128 84.03" fill="#FFA071"/>
<path d="M164.847 72.4188C162.482 75.3368 157.804 83.4919 162.929 87.0466C167.205 90.01 172.081 85.561 172.081 85.561C172.081 85.561 172.695 86.0764 173.453 85.9931C174.651 85.8642 176.144 84.4242 176.16 82.5218C176.167 80.9529 175.219 80.0965 175.219 80.0965C175.219 80.0965 176.273 76.3221 174.969 73.9119C172.96 70.2133 167.546 69.084 164.847 72.4188Z" fill="#FFA071"/>
<path d="M165.666 77.0724C165.666 77.0724 163.103 79.3764 163.179 80.0813C163.255 80.7862 164.885 81.0514 164.885 81.0514" stroke="#DD6945" stroke-width="0.75" stroke-miterlimit="10" stroke-linejoin="round"/>
<path d="M162.558 81.8093L167.456 83.3782C167.456 83.3782 166.227 85.8263 163.604 84.9547C161.731 84.3332 162.558 81.8093 162.558 81.8093Z" fill="white"/>
<path d="M167.622 77.4968C167.44 78.1183 167.926 78.7322 168.449 79.0051C168.729 79.1567 169.048 79.24 169.366 79.2021C169.707 79.1567 170.049 79.0278 170.177 78.6792C170.223 78.5503 170.071 78.3912 169.942 78.4442C169.73 78.5276 169.533 78.6564 169.313 78.6943C169.101 78.7247 168.881 78.6868 168.684 78.5958C168.312 78.4291 167.842 78.035 167.926 77.5726C167.964 77.3907 167.683 77.2998 167.622 77.4968Z" fill="#010101"/>
<path d="M164.165 76.4432C164.074 76.4735 163.983 76.4963 163.884 76.5114C163.937 76.5038 163.862 76.5114 163.854 76.5114C163.839 76.5114 163.824 76.5114 163.801 76.5114C163.755 76.5114 163.71 76.5114 163.672 76.5114C163.665 76.5114 163.657 76.5114 163.649 76.5114C163.634 76.5114 163.642 76.5114 163.672 76.5114C163.665 76.5038 163.619 76.5039 163.611 76.4963C163.581 76.4887 163.543 76.4811 163.513 76.466C163.498 76.4584 163.475 76.4584 163.46 76.4508C163.392 76.4281 163.49 76.466 163.452 76.4508C163.422 76.4356 163.392 76.4205 163.369 76.4053C163.346 76.3902 163.316 76.3523 163.361 76.4053C163.354 76.3977 163.338 76.3902 163.331 76.375C163.301 76.3523 163.278 76.322 163.247 76.2916C163.217 76.2537 163.278 76.3371 163.255 76.2992C163.248 76.2841 163.232 76.2689 163.225 76.2462C163.202 76.2158 163.187 76.1855 163.172 76.1476C163.164 76.1249 163.149 76.1097 163.141 76.087C163.134 76.0794 163.134 76.0643 163.126 76.0567C163.141 76.0946 163.141 76.0946 163.134 76.0718C163.119 76.0339 163.103 75.996 163.088 75.9582C163.081 75.943 163.066 75.8824 163.043 75.8596C163.035 75.8445 163.035 75.852 163.043 75.8672C163.035 75.852 163.035 75.8445 163.028 75.8293C163.005 75.7611 162.99 75.7005 162.929 75.655C162.868 75.6019 162.777 75.5944 162.709 75.655C162.671 75.6929 162.649 75.7384 162.641 75.7914C162.633 75.8217 162.633 75.8596 162.626 75.8899C162.626 75.8975 162.626 75.9127 162.626 75.9203C162.626 75.9051 162.633 75.8899 162.626 75.9127C162.611 76.0188 162.626 76.1249 162.649 76.231C162.694 76.3977 162.777 76.5418 162.899 76.6706C163.005 76.7843 163.141 76.8677 163.285 76.9207C163.437 76.9738 163.596 76.9813 163.748 76.9586C163.945 76.9359 164.127 76.8601 164.301 76.7691C164.491 76.6782 164.362 76.375 164.165 76.4432Z" fill="#010101"/>
<path d="M174.833 81.0893C173.043 81.0817 172.255 82.7264 172.255 82.7264L171.118 82.2792C171.118 82.2792 172.414 78.4669 172.323 77.6256C172.285 77.2846 171.876 76.898 171.664 76.6479C171.322 76.2538 170.837 75.9885 170.382 75.7688C167.994 74.594 165.31 74.0483 163.081 72.6007C162.414 72.1687 161.777 71.6305 161.42 70.9181C161.071 70.2057 161.064 69.2734 161.572 68.6595C162.285 67.8031 163.543 67.4393 164.627 67.4923C164.794 67.4999 165.81 67.5909 165.871 67.7652C165.871 67.7652 164.438 63.392 167.463 63.68C170.488 63.968 171.482 66.4919 171.482 66.4919C171.482 66.4919 171.337 64.3621 172.649 64.5516C173.961 64.7335 176.205 70.2814 177.926 71.2667C179.647 72.252 180.155 73.9573 180.026 75.6323C179.564 81.582 176.16 83.1963 176.16 83.1963C176.16 83.1963 176.289 81.0969 174.833 81.0893Z" fill="#2F2209"/>
<path d="M163.354 87.721C163.354 87.721 165.522 88.2895 169.055 87.5695" stroke="#DD6945" stroke-miterlimit="10" stroke-linejoin="round"/>
<path d="M215.631 43.3148C215.116 41.132 214.388 37.0468 213.872 34.8565C213.569 33.568 212.894 31.2715 212.303 31.3246C211.219 31.4231 212.53 34.8413 211.757 34.8337C211.287 34.8261 210.551 32.2341 210.248 30.794C209.983 29.5132 209.354 27.5047 208.8 27.5502C207.739 27.6487 209.285 34.6518 209.285 34.6518C208.967 34.6821 207.352 27.1712 206.457 27.1561C205.168 27.1333 207.428 35.0611 207.17 35.3718C207.17 35.3718 205.1 28.5961 204.152 28.5809C203.197 28.5658 205.259 34.5154 205.517 36.4936C205.001 35.1293 203.652 30.1726 202.962 30.165C202.264 30.1498 202.583 32.6434 202.742 33.3179C203.728 37.4182 206.488 45.346 206.488 45.346" fill="#FFA071"/>
<path d="M205.767 37.259C207.549 37.9563 209.308 39.0856 209.899 41.1396" stroke="#DD6945" stroke-miterlimit="10" stroke-linejoin="round"/>
<path d="M332.781 57.3286C333.834 55.3429 335.571 51.576 336.617 49.5903C337.239 48.4231 338.467 46.3692 339.028 46.5662C340.052 46.93 337.914 49.9162 338.664 50.0981C339.119 50.2118 340.491 47.885 341.143 46.5738C341.727 45.399 342.842 43.6179 343.365 43.8074C344.366 44.1636 341.098 50.5529 341.098 50.5529C341.401 50.659 344.866 43.8074 345.731 44.0121C346.982 44.3152 342.789 51.4169 342.963 51.7807C342.963 51.7807 346.678 45.7477 347.603 45.9751C348.528 46.2024 345.033 51.4396 344.282 53.2814C345.124 52.0914 347.679 47.6425 348.354 47.8016C349.029 47.9684 348.096 50.2952 347.763 50.9091C345.776 54.6304 341.098 61.6032 341.098 61.6032" fill="#FFA071"/>
<path d="M343.858 53.9711C341.955 54.1984 339.976 54.8427 338.876 56.6844" stroke="#DD6945" stroke-miterlimit="10" stroke-linejoin="round"/>
<path d="M332.849 54.0848C313.295 82.5369 305.569 84.8182 292.831 89.4339C270.775 97.4299 256.021 92.3215 245.914 86.3264C234.063 79.3006 223.13 68.4472 215.957 40.6772L203.409 43.5725C208.171 73.1008 218.422 93.0719 241.888 107.442C241.888 107.442 240.47 111.61 239.825 117.833C238.347 132.142 239.575 141.283 237.46 149.756C235.345 158.237 274.255 158.033 279.51 153.728C279.964 135.576 286.781 112.55 286.781 112.55C306.911 104.918 326.442 99.5066 343.911 58.3063L332.849 54.0848Z" fill="#7FB0C6"/>
<path d="M331.499 56.0326L342.508 61.5123" stroke="#A0CFE0" stroke-miterlimit="10" stroke-linejoin="round"/>
<path d="M203.872 46.2707L216.693 43.3982" stroke="#A0CFE0" stroke-miterlimit="10" stroke-linejoin="round"/>
<path d="M252.412 89.9417C252.412 89.9417 254.853 98.9229 264.232 99.552C274.794 100.264 278.509 93.0415 278.509 93.0415" stroke="#A0CFE0" stroke-miterlimit="10" stroke-linejoin="round"/>
<path d="M241.888 107.442C241.888 107.442 243.624 103.038 245.883 100.439" stroke="#448196" stroke-miterlimit="10" stroke-linejoin="round"/>
<path d="M286.773 112.558C286.773 112.558 284.195 113.952 282.573 115.832" stroke="#448196" stroke-miterlimit="10" stroke-linejoin="round"/>
<path d="M278.213 141.669C276.636 143.663 275.211 145.762 273.952 147.93" stroke="#448196" stroke-width="0.75" stroke-miterlimit="10" stroke-linejoin="round"/>
<path d="M272.686 144.656C272.284 145.679 271.958 146.732 271.715 147.801" stroke="#448196" stroke-width="0.75" stroke-miterlimit="10" stroke-linejoin="round"/>
<path d="M264.194 113.278C264.232 113.771 263.86 114.195 263.368 114.233C262.875 114.271 262.45 113.899 262.412 113.407C262.374 112.914 262.746 112.49 263.239 112.452C263.739 112.414 264.164 112.785 264.194 113.278Z" fill="#A0CFE0"/>
<path d="M244.89 136.895C244.928 137.387 244.557 137.812 244.064 137.85C243.571 137.887 243.146 137.516 243.108 137.023C243.071 136.531 243.442 136.106 243.935 136.068C244.428 136.038 244.852 136.402 244.89 136.895Z" fill="#A0CFE0"/>
<path d="M253.094 129.975C253.132 130.467 252.76 130.892 252.267 130.93C251.775 130.968 251.35 130.596 251.312 130.104C251.274 129.611 251.646 129.187 252.139 129.149C252.631 129.111 253.056 129.482 253.094 129.975Z" fill="#A0CFE0"/>
<path d="M260.441 144.633C260.479 145.125 260.107 145.55 259.614 145.588C259.122 145.626 258.697 145.254 258.659 144.762C258.621 144.269 258.993 143.845 259.486 143.807C259.978 143.776 260.403 144.148 260.441 144.633Z" fill="#A0CFE0"/>
<path d="M297.502 104.357C297.539 104.85 297.168 105.274 296.675 105.312C296.182 105.35 295.758 104.979 295.72 104.486C295.682 103.993 296.053 103.569 296.546 103.531C297.039 103.501 297.464 103.872 297.502 104.357Z" fill="#A0CFE0"/>
<path d="M280.609 122.35C280.647 122.843 280.275 123.267 279.783 123.305C279.29 123.343 278.865 122.972 278.827 122.479C278.789 121.986 279.161 121.562 279.654 121.524C280.146 121.494 280.571 121.865 280.609 122.35Z" fill="#A0CFE0"/>
<path d="M267.34 130.483C267.378 130.975 267.007 131.4 266.514 131.438C266.021 131.475 265.597 131.104 265.559 130.611C265.521 130.119 265.892 129.694 266.385 129.656C266.878 129.626 267.303 129.99 267.34 130.483Z" fill="#A0CFE0"/>
<path d="M274.354 141.055C274.392 141.548 274.02 141.973 273.527 142.01C273.035 142.048 272.61 141.677 272.572 141.184C272.534 140.692 272.906 140.267 273.398 140.229C273.891 140.191 274.316 140.563 274.354 141.055Z" fill="#A0CFE0"/>
<path d="M279.972 100.969C280.01 101.462 279.638 101.886 279.146 101.924C278.653 101.962 278.228 101.591 278.19 101.098C278.152 100.606 278.524 100.181 279.017 100.143C279.51 100.113 279.934 100.484 279.972 100.969Z" fill="#A0CFE0"/>
<path d="M323.25 86.6675C323.288 87.1602 322.916 87.5846 322.424 87.6225C321.931 87.6604 321.506 87.289 321.468 86.7964C321.43 86.3037 321.802 85.8793 322.295 85.8414C322.787 85.8035 323.22 86.1749 323.25 86.6675Z" fill="#A0CFE0"/>
<path d="M238.15 96.9372C238.188 97.4298 237.816 97.8543 237.323 97.8922C236.831 97.93 236.406 97.5587 236.368 97.066C236.33 96.5734 236.702 96.149 237.195 96.1111C237.687 96.0732 238.112 96.4445 238.15 96.9372Z" fill="#A0CFE0"/>
<path d="M254.08 100.742C254.118 101.235 253.746 101.659 253.253 101.697C252.76 101.735 252.336 101.363 252.298 100.871C252.26 100.378 252.631 99.9537 253.124 99.9158C253.617 99.8855 254.042 100.249 254.08 100.742Z" fill="#A0CFE0"/>
<path d="M307.078 91.1164C307.115 91.6091 306.744 92.0335 306.251 92.0714C305.758 92.1093 305.334 91.7379 305.296 91.2453C305.258 90.7526 305.629 90.3282 306.122 90.2903C306.615 90.26 307.04 90.6314 307.078 91.1164Z" fill="#A0CFE0"/>
<path d="M324.941 72.8053C324.979 73.2979 324.607 73.7224 324.114 73.7603C323.621 73.7982 323.197 73.4268 323.159 72.9342C323.121 72.4415 323.493 72.0171 323.985 71.9792C324.478 71.9489 324.903 72.3127 324.941 72.8053Z" fill="#A0CFE0"/>
<path d="M337.534 66.2417C337.572 66.7344 337.201 67.1588 336.708 67.1967C336.215 67.2346 335.791 66.8632 335.753 66.3706C335.715 65.8779 336.086 65.4535 336.579 65.4156C337.072 65.3853 337.504 65.7491 337.534 66.2417Z" fill="#A0CFE0"/>
<path d="M248.393 113.445C248.431 113.937 248.059 114.362 247.567 114.4C247.074 114.438 246.649 114.066 246.611 113.574C246.573 113.081 246.945 112.656 247.438 112.619C247.931 112.588 248.363 112.96 248.393 113.445Z" fill="#A0CFE0"/>
<path d="M218.975 77.6257C219.013 78.1183 218.641 78.5427 218.149 78.5806C217.656 78.6185 217.231 78.2471 217.193 77.7545C217.155 77.2619 217.527 76.8374 218.02 76.7995C218.513 76.7616 218.945 77.133 218.975 77.6257Z" fill="#A0CFE0"/>
<path d="M232.82 81.2106C232.858 81.7032 232.486 82.1277 231.993 82.1656C231.5 82.2035 231.076 81.8321 231.038 81.3394C231 80.8468 231.372 80.4224 231.864 80.3845C232.357 80.3541 232.789 80.7179 232.82 81.2106Z" fill="#A0CFE0"/>
<path d="M217.716 59.9586C217.754 60.4512 217.383 60.8757 216.89 60.9136C216.397 60.9515 215.973 60.5801 215.935 60.0874C215.897 59.5948 216.268 59.1704 216.761 59.1325C217.254 59.1022 217.679 59.4735 217.716 59.9586Z" fill="#A0CFE0"/>
<path d="M260.744 82.8401C262.192 84.4393 264.133 85.705 266.279 85.9172C267.105 86.0006 267.947 85.9248 268.766 85.7732C270.957 85.3715 273.088 84.3938 274.619 82.7794C278.168 79.0505 277.455 72.6992 273.944 69.2279C273.512 68.7959 273.035 68.4018 272.489 68.1213C271.23 67.4847 269.744 67.5453 268.341 67.7197C267.03 67.8864 265.695 68.1517 264.581 68.8641C262.42 70.2587 261.616 73.3964 262.837 75.655" fill="#2F2209"/>
<path d="M300.929 55.8052C301.05 56.4798 300.989 57.1695 300.709 57.8061C299.89 59.6327 297.63 60.3148 296.372 61.8685C293.771 65.0821 296.402 69.6448 292.831 72.0625C289.609 74.2529 285.803 74.4348 282.11 73.5632C279.532 72.9568 272.345 73.5177 271.7 71.1909C270.859 68.1668 274.627 64.4 277.091 63.4981C278.342 63.0357 279.691 62.8842 280.958 62.4825C285.279 61.1031 284.301 56.1842 286.917 53.2283C288.646 51.2729 291.588 50.9925 294.188 51.2577C295.985 51.4396 297.843 51.8489 299.245 52.9934C300.095 53.6831 300.731 54.7214 300.929 55.8052Z" fill="#2F2209"/>
<path d="M260.274 72.5249C258.492 75.8294 255.444 85.2351 261.154 87.7438C264.399 89.1687 268.948 85.4473 270.229 84.0604C273.694 80.3163 272.223 74.2605 270.487 72.1308C267.841 68.8642 262.306 68.7505 260.274 72.5249Z" fill="#FFA071"/>
<path d="M263.102 84.8864C263.102 84.8864 261.942 89.396 261.351 90.783C260.759 92.1624 255.71 90.9346 255.71 90.9346C255.71 90.9346 258.318 95.9444 263.549 96.8084C271.556 98.1272 275.491 93.3675 275.491 93.3675C275.491 93.3675 269.706 92.3974 269.698 91.3514C269.691 90.2979 270.343 83.2948 270.343 83.2948" fill="#FFA071"/>
<path d="M271.556 68.7049C269.289 66.8556 265.945 66.6055 263.277 67.7954C260.608 68.9854 259.258 71.3879 258.341 74.1695C260.759 74.3741 263.057 75.1775 265.142 76.1401C265.142 76.1401 267.06 74.9047 267.72 73.9421C267.553 74.988 267.181 76.0112 266.635 76.9207C268.03 78.1713 269.486 79.3461 271.01 80.4374C271.526 80.8088 272.201 81.1726 272.746 80.8543C273.035 80.6876 273.186 80.3617 273.315 80.0509C274.778 76.5039 274.399 72.2596 272.337 69.0308" fill="#2F2209"/>
<path d="M270.404 80.6041C270.677 80.2252 271.253 80.1267 271.677 80.3313C272.102 80.5359 272.375 80.9831 272.443 81.4454C272.511 81.9078 272.405 82.3852 272.223 82.8173C272.003 83.3402 271.655 83.8253 271.177 84.1284C270.699 84.4316 270.07 84.5301 269.547 84.3028C269.024 84.0754 268.66 83.4842 268.773 82.9309" fill="#FFA071"/>
<path d="M262.223 88.1075C262.223 88.1075 265.43 89.0018 267.97 86.4174" stroke="#DD6945" stroke-miterlimit="10" stroke-linejoin="round"/>
<path d="M265.248 79.6643C265.627 79.4294 266.143 79.3763 266.544 79.581C266.726 79.6719 266.893 79.8008 267.022 79.9599C267.159 80.1342 267.227 80.3465 267.363 80.5208C267.447 80.6269 267.644 80.5663 267.667 80.4374C267.72 80.1342 267.568 79.8766 267.378 79.6492C267.196 79.4294 266.961 79.2626 266.696 79.1565C266.143 78.9443 265.521 79.0732 265.073 79.4445C264.96 79.5507 265.111 79.7477 265.248 79.6643Z" fill="#010101"/>
<path d="M260.577 78.3911C260.577 78.1561 260.517 77.9288 260.38 77.7393C260.229 77.5346 260.031 77.3755 259.781 77.3073C259.561 77.2466 259.311 77.2618 259.099 77.3452C258.864 77.4361 258.689 77.6256 258.667 77.8833C258.659 77.9591 258.758 78.0121 258.826 77.9742C258.864 77.9515 258.894 77.9288 258.932 77.906C258.97 77.8833 258.993 77.8833 259.031 77.8605C259.076 77.8454 259.114 77.8151 259.152 77.7999C259.114 77.8151 259.205 77.7772 259.213 77.7696C259.22 77.7696 259.228 77.762 259.235 77.762C259.22 77.7696 259.22 77.7696 259.235 77.762C259.395 77.7014 259.531 77.6938 259.675 77.7317C259.819 77.7696 259.963 77.8605 260.069 77.9818C260.183 78.1107 260.289 78.2698 260.342 78.429C260.388 78.5427 260.577 78.5275 260.577 78.3911Z" fill="#010101"/>
<path d="M261.919 79.1338C261.919 79.1338 259.728 81.8244 260.282 82.4989C260.835 83.1735 261.988 82.7339 261.988 82.7339" stroke="#DD6945" stroke-width="0.75" stroke-miterlimit="10" stroke-linejoin="round"/>
<path d="M260.593 84.6212C261.351 87.6604 265.71 87.0237 265.286 83.4691L260.593 84.6212Z" fill="white"/>
<path d="M270.608 84.0148C271.01 84.0148 271.01 83.3933 270.608 83.3933C270.214 83.3933 270.206 84.0148 270.608 84.0148Z" fill="#222A41"/>
<path d="M310.618 178.019L309.466 179.232L329.338 198.847C330.104 199.574 330.438 200.65 330.203 201.681L330.316 201.833L332.166 199.877C332.235 199.802 332.272 199.711 332.272 199.612V199.521C332.272 198.884 332.015 198.271 331.552 197.831L311.445 177.996C311.217 177.769 310.846 177.777 310.618 178.019Z" fill="#7FB0C6"/>
<path d="M285.56 198.975L303.074 185.97L310.163 180.694L329.437 199.733C329.945 200.211 329.968 201.014 329.482 201.522C329.126 201.901 328.565 202.022 328.087 201.818L314.917 198.475L298.464 213.505" fill="#FFA071"/>
<path d="M314.038 199.279L328.595 202.356C329.149 202.553 329.808 202.371 330.263 201.901C330.862 201.264 330.703 200.135 330.142 199.604L309.473 179.239L302.862 186.167C302.862 186.159 312.044 192.836 314.038 199.279Z" fill="#222A41"/>
<path d="M316.646 200.059C316.767 198.862 317.025 197.679 317.419 196.542" stroke="#7FB0C6" stroke-miterlimit="10" stroke-linecap="round" stroke-linejoin="round"/>
<path d="M318.519 200.461C318.686 199.18 318.875 198.528 319.216 197.505" stroke="#7FB0C6" stroke-miterlimit="10" stroke-linecap="round" stroke-linejoin="round"/>
<path d="M320.02 200.893C320.119 200.036 320.437 199.021 320.672 198.195" stroke="#7FB0C6" stroke-miterlimit="10" stroke-linecap="round" stroke-linejoin="round"/>
<path d="M323.015 201.173C323.015 201.173 323.462 197.641 326.207 194.496" stroke="#7FB0C6" stroke-miterlimit="10"/>
<path d="M305.266 183.635C305.266 183.635 309.185 187.008 314.713 183.105" stroke="#7FB0C6" stroke-miterlimit="10"/>
<path d="M236.74 151.621C232.789 155.562 208.527 216.339 244.268 234.764C275.309 250.771 311.179 202.583 311.179 202.583L299.579 188.16C299.579 188.16 262.571 216.938 261.601 203.326C260.63 189.721 271.169 174.502 265.142 150.87" fill="#222A41"/>
<path d="M301.194 190.214C301.194 190.214 259.918 221.235 258.887 206.805C257.855 192.374 269.312 175.92 262.92 150.855" stroke="#4A5C82" stroke-miterlimit="10" stroke-linejoin="round"/>
<path d="M339.43 207.767L337.891 208.426L348.377 234.302C348.794 235.272 348.672 236.394 348.051 237.25L348.096 237.432L350.568 236.371C350.659 236.333 350.735 236.257 350.773 236.166L350.81 236.083C351.068 235.499 351.068 234.832 350.818 234.241L340.211 208.07C340.074 207.782 339.726 207.638 339.43 207.767Z" fill="#7FB0C6"/>
<path d="M308.109 217.105L329.338 212.095L337.936 210.056L348.096 235.166C348.369 235.81 348.073 236.553 347.436 236.826C346.959 237.03 346.398 236.924 346.034 236.545L335.267 228.261L314.212 235.552" fill="#FFA071"/>
<path d="M334.145 228.648L346.299 237.235C346.731 237.637 347.406 237.735 348.013 237.477C348.816 237.129 349.112 236.022 348.809 235.317L337.891 208.434L329.081 212.178C329.073 212.178 334.866 221.94 334.145 228.648Z" fill="#222A41"/>
<path d="M336.23 230.391C336.814 229.337 337.519 228.36 338.331 227.465" stroke="#7FB0C6" stroke-miterlimit="10" stroke-linecap="round" stroke-linejoin="round"/>
<path d="M337.792 231.505C338.452 230.391 338.884 229.868 339.597 229.064" stroke="#7FB0C6" stroke-miterlimit="10" stroke-linecap="round" stroke-linejoin="round"/>
<path d="M339.005 232.498C339.437 231.747 340.127 230.944 340.673 230.277" stroke="#7FB0C6" stroke-miterlimit="10" stroke-linecap="round" stroke-linejoin="round"/>
<path d="M341.636 233.945C341.636 233.945 343.441 230.876 347.217 229.072" stroke="#7FB0C6" stroke-miterlimit="10"/>
<path d="M332.288 210.814C332.288 210.814 334.555 215.467 341.174 214.065" stroke="#7FB0C6" stroke-miterlimit="10"/>
<path d="M252.214 154.562C251.509 155.373 230.34 224.76 263.004 238.197C291.557 249.938 329.877 230.709 329.877 230.709L323.758 213.171C323.758 213.171 278.994 220.53 278.023 206.926C277.053 193.321 289.995 170.394 279.282 152.636" fill="#222A41"/>
<path d="M252.214 154.562C251.509 155.372 230.34 224.76 263.004 238.197" stroke="#4A5C82" stroke-miterlimit="10" stroke-linejoin="round"/>
<path d="M300.064 215.157C289.54 215.058 278.486 213.27 278.031 206.926C277.925 205.486 277.955 204 278.069 202.469" stroke="#4A5C82" stroke-miterlimit="10" stroke-linejoin="round"/>
<path d="M324.736 215.937C324.736 215.937 275.294 223.956 274.263 209.579C273.232 195.201 286.591 176.685 277.569 154.615" stroke="#4A5C82" stroke-miterlimit="10" stroke-linejoin="round"/>
<path d="M320.945 213.58L327.845 231.664" stroke="#4A5C82" stroke-miterlimit="10" stroke-linejoin="round"/>
<path d="M280.715 171.054C280.715 171.054 270.722 166.514 266.923 154.971" stroke="#4A5C82" stroke-miterlimit="10" stroke-linejoin="round"/>
<path d="M280.374 168.537C280.374 168.537 272.269 163.702 269.092 154.812" stroke="#4A5C82" stroke-miterlimit="10" stroke-linejoin="round" stroke-dasharray="2.5 2.5"/>
<path d="M297.835 189.479L309.42 204.819" stroke="#4A5C82" stroke-miterlimit="10" stroke-linejoin="round"/>
<path d="M246.52 154.107C246.52 154.107 243.093 168.659 247.642 172.6" stroke="#4A5C82" stroke-miterlimit="10" stroke-linejoin="round"/>
<path d="M230.325 166.741C230.325 166.741 239.697 164.536 242.487 153.811" stroke="#4A5C82" stroke-miterlimit="10" stroke-linejoin="round"/>
<path d="M231.144 163.922C231.144 163.922 237.816 160.898 240.371 153.41" stroke="#4A5C82" stroke-miterlimit="10" stroke-linejoin="round" stroke-dasharray="2.5 2.5"/>
<path d="M236.125 152.439L237.786 146.831C237.786 146.831 248.514 148.923 257.658 149.408C266.81 149.893 279.729 148.877 279.729 148.877L280.108 154.228C280.116 154.22 258.379 158.328 236.125 152.439Z" fill="#222A41"/>
<path d="M236.125 152.439C236.125 152.439 256.566 158.184 280.116 154.22" stroke="#4A5C82" stroke-miterlimit="10" stroke-linejoin="round"/>
<path d="M274.263 155.024L273.846 149.241" stroke="#4A5C82" stroke-miterlimit="10" stroke-linejoin="round"/>
<path d="M262.609 155.615L262.988 149.536" stroke="#4A5C82" stroke-miterlimit="10" stroke-linejoin="round"/>
<path d="M250.471 154.941L252.851 155.251C253.663 155.418 254.451 154.903 254.633 154.092L255.3 151.189C255.505 150.279 254.876 149.4 253.958 149.309L251.744 149.105" stroke="#4A5C82" stroke-miterlimit="10" stroke-linejoin="round"/>
<path d="M245.573 148.127L244.64 154.243" stroke="#4A5C82" stroke-miterlimit="10" stroke-linejoin="round"/>
<path d="M253.784 152.106C253.829 152.75 253.344 153.303 252.707 153.349C252.063 153.394 251.509 152.909 251.464 152.273C251.418 151.628 251.904 151.075 252.54 151.03C253.177 150.984 253.731 151.462 253.784 152.106Z" fill="#4A5C82"/>
<path d="M87.769 14.4762C87.769 15.2189 87.17 15.8177 86.4269 15.8177C85.6839 15.8177 85.0849 15.2189 85.0849 14.4762C85.0849 13.7334 85.6839 13.1346 86.4269 13.1346C87.17 13.1346 87.769 13.741 87.769 14.4762Z" fill="white"/>
<path d="M176.114 1.34151C176.114 2.08426 175.515 2.68302 174.772 2.68302C174.029 2.68302 173.43 2.08426 173.43 1.34151C173.43 0.598752 174.029 0 174.772 0C175.515 0 176.114 0.598752 176.114 1.34151Z" fill="white"/>
<path d="M101.743 43.3981C101.743 44.1409 101.144 44.7397 100.401 44.7397C99.6575 44.7397 99.0585 44.1409 99.0585 43.3981C99.0585 42.6554 99.6575 42.0566 100.401 42.0566C101.144 42.0566 101.743 42.6554 101.743 43.3981Z" fill="white"/>
<path d="M16.4074 107.442C16.4074 108.185 15.8084 108.783 15.0654 108.783C14.3223 108.783 13.7234 108.185 13.7234 107.442C13.7234 106.699 14.3223 106.1 15.0654 106.1C15.8084 106.1 16.4074 106.699 16.4074 107.442Z" fill="white"/>
<path d="M195.562 35.6903C195.562 36.433 194.963 37.0318 194.22 37.0318C193.477 37.0318 192.878 36.433 192.878 35.6903C192.878 34.9475 193.477 34.3488 194.22 34.3488C194.963 34.3563 195.562 34.9551 195.562 35.6903Z" fill="white"/>
<path d="M128.477 112.982C128.477 113.725 127.878 114.324 127.135 114.324C126.392 114.324 125.793 113.725 125.793 112.982C125.793 112.24 126.392 111.641 127.135 111.641C127.878 111.641 128.477 112.24 128.477 112.982Z" fill="white"/>
<path d="M272.337 35.6903C272.337 36.433 271.738 37.0318 270.995 37.0318C270.252 37.0318 269.653 36.433 269.653 35.6903C269.653 34.9475 270.252 34.3488 270.995 34.3488C271.738 34.3563 272.337 34.9551 272.337 35.6903Z" fill="white"/>
<path d="M319.262 35.0384C320.003 35.0384 320.604 34.4378 320.604 33.6969C320.604 32.956 320.003 32.3553 319.262 32.3553C318.521 32.3553 317.92 32.956 317.92 33.6969C317.92 34.4378 318.521 35.0384 319.262 35.0384Z" fill="white"/>
<path d="M257.34 2.67549C257.34 3.41825 256.741 4.017 255.998 4.017C255.255 4.017 254.656 3.41825 254.656 2.67549C254.656 1.93274 255.255 1.33398 255.998 1.33398C256.741 1.34156 257.34 1.94032 257.34 2.67549Z" fill="white"/>
<path d="M324.751 118.015C324.751 118.758 324.152 119.356 323.409 119.356C322.666 119.356 322.067 118.758 322.067 118.015C322.067 117.272 322.666 116.673 323.409 116.673C324.152 116.673 324.751 117.272 324.751 118.015Z" fill="white"/>
<path d="M230.045 137.85C230.045 138.592 229.446 139.191 228.703 139.191C227.96 139.191 227.361 138.592 227.361 137.85C227.361 137.107 227.96 136.508 228.703 136.508C229.446 136.508 230.045 137.107 230.045 137.85Z" fill="white"/>
<path d="M74.5384 32.3553L70.482 36.0009" stroke="white" stroke-width="2" stroke-miterlimit="10" stroke-linecap="round"/>
<path d="M121.888 4.64608L116.58 3.38794" stroke="white" stroke-width="2" stroke-miterlimit="10" stroke-linecap="round"/>
<path d="M183.848 43.5725L179.306 40.5485" stroke="white" stroke-width="2" stroke-miterlimit="10" stroke-linecap="round"/>
<path d="M323.477 52.3037L319.679 48.3928" stroke="white" stroke-width="2" stroke-miterlimit="10" stroke-linecap="round"/>
<path d="M311.627 13.1347L306.304 11.9751" stroke="white" stroke-width="2" stroke-miterlimit="10" stroke-linecap="round"/>
<path d="M227.998 13.4454L225.079 14.8097" stroke="white" stroke-width="2" stroke-miterlimit="10" stroke-linecap="round"/>
<path d="M288.669 25.375L285.583 24.4352" stroke="white" stroke-width="2" stroke-miterlimit="10" stroke-linecap="round"/>
<path d="M224.047 113.619L221.227 115.18" stroke="white" stroke-width="2" stroke-miterlimit="10" stroke-linecap="round"/>
<path d="M40.1087 127.36L37.4019 125.617" stroke="white" stroke-width="2" stroke-miterlimit="10" stroke-linecap="round"/>
<path d="M305.554 128.648L302.49 129.649" stroke="white" stroke-width="2" stroke-miterlimit="10" stroke-linecap="round"/>
<path d="M44.1953 24.5943L40.9882 24.276" stroke="white" stroke-width="2" stroke-miterlimit="10" stroke-linecap="round"/>
</g>
<defs>
<clipPath id="clip0">
<rect width="351" height="305" fill="white"/>
</clipPath>
</defs>
</svg>
