<svg width="32" height="32" viewBox="0 0 32 32" fill="none" xmlns="http://www.w3.org/2000/svg">
<circle cx="16" cy="16" r="16" fill="url(#paint0_linear)"/>
<circle opacity="0.2" cx="16" cy="16" r="16" fill="black"/>
<path fill-rule="evenodd" clip-rule="evenodd" d="M8.92984 23.071C8.14879 22.2899 8.14879 21.0236 8.92984 20.2425L20.2435 8.92882C21.0246 8.14777 22.2909 8.14777 23.072 8.92882C23.853 9.70986 23.853 10.9762 23.072 11.7572L11.7583 23.071C10.9772 23.852 9.71089 23.852 8.92984 23.071Z" fill="white"/>
<path fill-rule="evenodd" clip-rule="evenodd" d="M23.0702 23.071C23.8512 22.2899 23.8512 21.0236 23.0702 20.2425L11.7565 8.92882C10.9754 8.14777 9.70907 8.14777 8.92803 8.92882C8.14698 9.70986 8.14698 10.9762 8.92803 11.7572L20.2417 23.071C21.0228 23.852 22.2891 23.852 23.0702 23.071Z" fill="white"/>
<defs>
<linearGradient id="paint0_linear" x1="16" y1="0" x2="16" y2="32" gradientUnits="userSpaceOnUse">
<stop stop-color="#7BC207"/>
<stop offset="1" stop-color="#3F8600"/>
</linearGradient>
</defs>
</svg>
