<svg xmlns="http://www.w3.org/2000/svg" width="150" viewBox="0 0 112.5 112.5" height="150" version="1.0">
    <defs>
        <clipPath id="b">
            <path d="M9 19h94v93.004H9Zm0 0"/>
        </clipPath>
        <clipPath id="e">
            <path d="M.797.594h92.316V93H.797Zm0 0"/>
        </clipPath>
        <clipPath id="d">
            <path d="M0 0h94v94H0z"/>
        </clipPath>
        <clipPath id="f">
            <path d="M22.645 0H89v34.348H22.645Zm0 0"/>
        </clipPath>
        <filter x="0%" y="0%" width="100%" height="100%" id="a">
            <feColorMatrix values="0 0 0 0 1 0 0 0 0 1 0 0 0 0 1 0 0 0 1 0" color-interpolation-filters="sRGB"/>
        </filter>
        <mask id="c">
            <g filter="url(#a)">
                <path fill-opacity=".99" d="M-11.25-11.25h135v135h-135z"/>
            </g>
        </mask>
    </defs>
    <g mask="url(#c)" clip-path="url(#b)">
        <g clip-path="url(#d)" transform="translate(9 19)">
            <g clip-path="url(#e)">
                <path fill="#fff" d="M12.371 77.238c.352.457.727.825 1.102 1.207C21.883 87.383 33.785 93 47 93c25.426 0 46.113-20.688 46.113-46.113C93.113 21.457 72.426.773 47 .773 21.57.773.887 21.457.887 46.887c0 11.625 4.355 22.23 11.484 30.351ZM47 89.156c-9.191 0-17.68-2.98-24.625-7.98 2.605-.703 5.41-2.93 5.41-9.313 0-2.707-1.973-6.062-4.262-9.945-3.05-5.184-6.847-11.633-5.425-16.402.043-.141.03-.278.039-.418 2.168-6.825 4.898-15.403 7.16-22.5l13.777 43.05c-.808.141-1.59.317-2.289.551a1.922 1.922 0 0 0-1.215 2.43A1.917 1.917 0 0 0 38 69.844c2.668-.887 7.316-.864 10.113-.864h1.614c2.78 0 7.449-.023 10.113.868a1.921 1.921 0 0 0 2.43-1.22 1.917 1.917 0 0 0-1.211-2.429c-1.336-.445-2.95-.676-4.594-.828l-7.336-20.676 7.305-20.867 13.382 41.82c-.812.145-1.593.317-2.289.551a1.922 1.922 0 0 0-1.215 2.43 1.916 1.916 0 0 0 2.43 1.215c2.664-.887 7.32-.895 10.121-.864h.801c1.352 0 2.348.137 3.133.282C75.313 81.187 62.086 89.156 47 89.156Zm42.27-42.27a41.98 41.98 0 0 1-3.055 15.696L67.55 9.98C80.492 17.215 89.27 31.04 89.27 46.887ZM58.512 6.25 47.078 38.922 35.484 6.25C39.152 5.21 43.004 4.617 47 4.617c3.996 0 7.848.594 11.512 1.633Zm-33.508 4.61c-2.492 7.82-9.27 29.078-12.496 39.288-1.957 6.18-3.004 11.465-3.192 15.782-2.91-5.727-4.586-12.188-4.586-19.043 0-15.246 8.137-28.59 20.274-36.028Zm0 0"/>
            </g>
        </g>
    </g>
    <g clip-path="url(#f)">
        <path fill="#fff" d="M55.89 0C37.997 0 24.243 15.738 24.243 15.738l-1.285 1.434 1.285 1.437S36.98 33.13 53.875 34.24c.664.07 1.336.109 2.016.109.683 0 1.355-.04 2.02-.11C74.8 33.128 87.542 18.61 87.542 18.61l1.281-1.437-1.281-1.434S73.785 0 55.891 0Zm0 4.293c4.723 0 9.07 1.258 12.856 2.98a14.903 14.903 0 0 1 2.172 7.754 14.996 14.996 0 0 1-15.027 15.028 14.996 14.996 0 0 1-15.028-15.028c0-2.8.762-5.406 2.09-7.648l-.066-.04c3.82-1.757 8.218-3.046 13.004-3.046Zm0 4.293a6.439 6.439 0 0 0-2.464.492c-.39.16-.762.36-1.114.594a6.617 6.617 0 0 0-.976.8c-.297.301-.563.626-.8.977a6.52 6.52 0 0 0-.96 2.32 6.475 6.475 0 0 0-.123 1.258c0 .422.04.84.121 1.258a6.52 6.52 0 0 0 .961 2.32c.238.352.504.676.8.977.302.297.626.566.977.8.352.235.723.434 1.114.595a6.439 6.439 0 0 0 2.465.492 6.448 6.448 0 0 0 6.441-6.442 6.479 6.479 0 0 0-1.086-3.578 6.379 6.379 0 0 0-1.777-1.777 6.343 6.343 0 0 0-1.114-.594 6.448 6.448 0 0 0-2.465-.492Zm18.758 2.008c4.075 2.719 6.957 5.515 7.997 6.578-1.239 1.27-5.012 4.992-10.415 8.11a19.15 19.15 0 0 0 2.98-10.255c0-1.527-.222-3-.562-4.433Zm-37.527.011c-.336 1.426-.55 2.899-.55 4.422 0 3.766 1.105 7.278 2.98 10.254-5.399-3.117-9.172-6.84-10.414-8.11 1.043-1.062 3.918-3.855 7.984-6.566Zm0 0"/>
    </g>
</svg>
