<svg xmlns="http://www.w3.org/2000/svg" xmlns:xlink="http://www.w3.org/1999/xlink" width="24" height="24" x="0px" y="0px"
	 viewBox="-112 114 24 24" enable-background="new -112 114 24 24" xml:space="preserve">
<path fill="none" d="M-112,114h24v24h-24V114z"/>
<path fill="#FFA500" d="M-92.7,124c-0.7-3.5-3.7-6-7.3-6c-2.9,0-5.4,1.6-6.7,4c-3,0.3-5.3,2.9-5.3,6c0,3.3,2.7,6,6,6h13
	c2.8,0,5-2.2,5-5C-88,126.4-90.1,124.2-92.7,124z M-93,132h-13c-2.2,0-4-1.8-4-4c0-2.2,1.8-4,4-4h0.7c0.7-2.3,2.8-4,5.3-4
	c3,0,5.5,2.5,5.5,5.5v0.5h1.5c1.7,0,3,1.3,3,3S-91.3,132-93,132z"/>
<path fill="none" d="M-105.6,120.6h11.3v11.3h-11.3V120.6z"/>
<path fill="none" d="M-105.6,120.6h11.3v11.3h-11.3V120.6z"/>
<g>
	<path fill="none" d="M-99.6,126.4l3.2,1.9l-0.5,0.9l-3.7-2.2v-1.5l-4.8-0.6c-0.1,0.4-0.2,0.9-0.2,1.4c0,3.1,2.5,5.7,5.7,5.7
		c3.1,0,5.6-2.5,5.6-5.6l-5.3-0.7V126.4z"/>
	<polygon fill="#FFA500" points="-97,129.2 -96.5,128.3 -99.6,126.4 -99.6,125.6 -100.7,125.5 -100.7,127 	"/>
	<polygon fill="#FFA500" points="-99.6,122.7 -100.7,122.7 -100.7,125.5 -99.6,125.6 	"/>
	<g>
		<path fill="#FFA500" d="M-105.7,126.3c0-0.5,0.1-0.9,0.2-1.4l-1.4-0.2c-0.1,0.5-0.2,1-0.2,1.6c0,1.8,0.6,3.4,1.7,4.6l2.3,0.1
			C-104.6,130-105.7,128.2-105.7,126.3z"/>
		<path fill="#FFA500" d="M-92.9,126.4l-1.4-0.2c0,2.2-1.3,4.1-3.1,5l2.3,0.1C-93.9,130.2-93,128.4-92.9,126.4z"/>
	</g>
</g>
</svg>
