<svg xmlns="http://www.w3.org/2000/svg" width="24" height="24" viewBox="-112 114 24 24">
<path fill="none" d="M-112,114h24v24h-24V114z"/>
<g>
	<path fill="#DC3232" d="M-92.7,124c-0.7-3.5-3.7-6-7.3-6c-2.9,0-5.4,1.6-6.7,4c-3,0.3-5.3,2.9-5.3,6c0,3.3,2.7,6,6,6h13
		c2.8,0,5-2.2,5-5C-88,126.4-90.1,124.2-92.7,124z M-93,132h-13c-2.2,0-4-1.8-4-4c0-2.2,1.8-4,4-4h0.7c0.7-2.3,2.8-4,5.3-4
		c3,0,5.5,2.5,5.5,5.5v0.5h1.5c1.7,0,3,1.3,3,3S-91.3,132-93,132z"/>
	<path fill="#DC3232" d="M-103.2,123.1c-0.4,0.4-0.5,0.9-0.2,1.2l5.3,5.3c0.3,0.3,0.8,0.2,1.2-0.2c0.4-0.4,0.5-0.9,0.2-1.2l-5.3-5.3
		C-102.3,122.6-102.8,122.7-103.2,123.1z"/>
	<path fill="#DC3232" d="M-96.8,123.1c-0.4-0.4-0.9-0.5-1.2-0.2l-5.3,5.3c-0.3,0.3-0.2,0.8,0.2,1.2c0.4,0.4,0.9,0.5,1.2,0.2l5.3-5.3
		C-96.3,124-96.4,123.5-96.8,123.1z"/>
</g>
</svg>
