<svg xmlns="http://www.w3.org/2000/svg" width="22.191" height="11.125" viewBox="0 0 22.191 11.125">
  <g id="qpilot-logo-blue" transform="translate(-86.33 -42.869)">
    <path id="_Compound_Path_" data-name="&lt;Compound Path&gt;" d="M86.33,47.129a3.881,3.881,0,0,0,3.643,3.956,2.441,2.441,0,0,1,2.3,2.423v.044a.879.879,0,0,0,.1.394.869.869,0,0,0,.834.467.9.9,0,0,0,.831-.571,1.112,1.112,0,0,0,.066-.388V47.165a3.89,3.89,0,0,0-7.779-.036Zm1.506.066a2.386,2.386,0,1,1,2.386,2.386A2.386,2.386,0,0,1,87.836,47.2Z" transform="translate(0 -0.418)" fill="#4285f4"/>
    <path id="_Compound_Path_2" data-name="&lt;Compound Path&gt;" d="M252.9,64.949a1.791,1.791,0,0,0-1.8,1.787v2.915a.515.515,0,0,0,.031.18.419.419,0,0,0,.385.265.406.406,0,0,0,.433-.4h0v-.019a1.139,1.139,0,0,1,1.069-1.126,1.8,1.8,0,0,0-.114-3.6Zm0,2.908a1.106,1.106,0,1,1,1.106-1.106,1.106,1.106,0,0,1-1.106,1.106Z" transform="translate(-156.213 -20.933)" fill="#4285f4"/>
    <g id="Group_3" data-name="Group 3" transform="translate(99.407 42.869)">
      <path id="Path_1" data-name="Path 1" d="M338.148,43.879a.371.371,0,0,1,.127-.288.433.433,0,0,1,.3-.114.419.419,0,0,1,.3.114.4.4,0,0,1,0,.575.419.419,0,0,1-.3.114.433.433,0,0,1-.3-.114A.371.371,0,0,1,338.148,43.879Zm.748,3.766a.322.322,0,0,1-.328.321.289.289,0,0,1-.22-.1.32.32,0,0,1-.09-.226V45.338a.319.319,0,0,1,.089-.224.289.289,0,0,1,.22-.1.322.322,0,0,1,.328.321Z" transform="translate(-338.148 -43.445)" fill="#4285f4"/>
      <path id="Path_2" data-name="Path 2" d="M376.167,47.069a.322.322,0,0,1-.328.321.289.289,0,0,1-.22-.1.319.319,0,0,1-.09-.226V43.191a.319.319,0,0,1,.09-.226.289.289,0,0,1,.22-.1.322.322,0,0,1,.328.321Z" transform="translate(-373.588 -42.869)" fill="#4285f4"/>
      <path id="Path_3" data-name="Path 3" d="M409.189,75.559a1.558,1.558,0,0,1-.581-.108,1.438,1.438,0,0,1-.476-.306,1.467,1.467,0,0,1-.325-.476,1.557,1.557,0,0,1-.12-.623,1.54,1.54,0,0,1,.12-.62,1.405,1.405,0,0,1,.8-.773,1.6,1.6,0,0,1,.581-.1,1.625,1.625,0,0,1,.584.1,1.454,1.454,0,0,1,.482.3,1.41,1.41,0,0,1,.328.473,1.539,1.539,0,0,1,.12.618,1.558,1.558,0,0,1-.12.623,1.443,1.443,0,0,1-.328.476,1.469,1.469,0,0,1-.482.306A1.584,1.584,0,0,1,409.189,75.559Zm0-.618a.9.9,0,0,0,.34-.065.885.885,0,0,0,.281-.179.83.83,0,0,0,.192-.281.94.94,0,0,0,.071-.371.9.9,0,0,0-.071-.363.827.827,0,0,0-.473-.454.94.94,0,0,0-.34-.062.916.916,0,0,0-.337.062.853.853,0,0,0-.278.177.8.8,0,0,0-.188.278.933.933,0,0,0-.068.364.973.973,0,0,0,.068.371.8.8,0,0,0,.188.281.894.894,0,0,0,.278.179.876.876,0,0,0,.337.065Z" transform="translate(-404.075 -71.008)" fill="#4285f4"/>
      <path id="Path_4" data-name="Path 4" d="M478.969,53.7h-.285a.265.265,0,0,1-.183-.074.235.235,0,0,1-.082-.178.269.269,0,0,1,.266-.272h.284V52.37a.32.32,0,0,1,.09-.226.289.289,0,0,1,.222-.1.322.322,0,0,1,.328.321v.8h.377a.269.269,0,0,1,.265.274.235.235,0,0,1-.08.179.265.265,0,0,1-.185.074h-.377v2.071a.322.322,0,0,1-.328.321.289.289,0,0,1-.22-.1.319.319,0,0,1-.09-.226Z" transform="translate(-471.135 -51.572)" fill="#4285f4"/>
    </g>
  </g>
</svg>
