<svg version="1.1" id="Layer_1" xmlns="http://www.w3.org/2000/svg" xmlns:xlink="http://www.w3.org/1999/xlink" width="24" height="24" x="0px" y="0px"
	 viewBox="-112 114 24 24" enable-background="new -112 114 24 24" xml:space="preserve">
<g>
	<defs>
		<rect id="SVGID_1_" x="-112" y="114" width="24" height="24"/>
	</defs>
	<clipPath id="SVGID_2_">
		<use xlink:href="#SVGID_1_"  overflow="visible"/>
	</clipPath>
	<g clip-path="url(#SVGID_2_)">
		<path fill="#DC3232" d="M-91.9,129.9c0.6-1.3,0.9-2.6,0.9-3.8h-2c0,0.8-0.1,1.6-0.4,2.3L-91.9,129.9z"/>
		<path fill="#DC3232" d="M-95,121.3l-2.7,2.8l0.1,0.1h6.7V117l-2.7,2.8c-2.7-2.7-6.7-3.3-10-1.8l1.5,1.5
			C-99.8,118.8-97,119.4-95,121.3z"/>
		<path fill="#DC3232" d="M-90.9,133.7l-16.7-16.7l-1.4,1.4l2.1,2.1c-2.9,3.5-2.7,8.7,0.6,11.9c3.3,3.2,8.5,3.5,12,0.6l2,2
			L-90.9,133.7z M-104.9,131c-2.5-2.5-2.7-6.4-0.6-9.1l9.7,9.7C-98.5,133.7-102.4,133.5-104.9,131z"/>
	</g>
</g>
</svg>
