<svg version="1.1" id="Layer_1" xmlns="http://www.w3.org/2000/svg" xmlns:xlink="http://www.w3.org/1999/xlink" width="24" height="24" x="0px" y="0px"
	 viewBox="-112 114 24 24" enable-background="new -112 114 24 24" xml:space="preserve">
<g>
	<defs>
		<rect id="SVGID_1_" x="-112" y="114" width="24" height="24"/>
	</defs>
	<clipPath id="SVGID_2_">
		<use xlink:href="#SVGID_1_"  overflow="visible"/>
	</clipPath>
	<path clip-path="url(#SVGID_2_)" fill="#0073AA" d="M-91,124.1h-6.8l2.7-2.8c-2.7-2.7-7.2-2.8-9.9-0.1c-2.7,2.7-2.7,7.1,0,9.8
		c2.7,2.7,7.1,2.7,9.9,0c1.4-1.3,2-2.9,2-4.9h2c0,2-0.9,4.5-2.6,6.3c-3.5,3.5-9.2,3.5-12.7,0c-3.5-3.5-3.5-9.1,0-12.6
		c3.5-3.5,9.1-3.5,12.7,0l2.7-2.8V124.1z"/>
</g>
</svg>
