<svg xmlns="http://www.w3.org/2000/svg" viewBox="0 0 84.4 96.99"><title>xpro 3px</title><g id="Layer_2" data-name="Layer 2"><g id="Layer_1-2" data-name="Layer 1"><path d="M12,97A12,12,0,0,1,3.51,76.47l14.9-14.9a9,9,0,0,0,0-12.76L3.53,33.94a12,12,0,0,1,17-17L33.85,30.28,29.16,35a10.3,10.3,0,0,0,0,14.54L46.84,67.16,20.53,93.47A12,12,0,0,1,12,97Zm0-80.57a9,9,0,0,0-6.38,15.4L20.53,46.69a12,12,0,0,1,0,17L5.63,78.59A9,9,0,0,0,18.41,91.35L42.6,67.16,27,51.62a13.3,13.3,0,0,1,0-18.77l2.57-2.57L18.41,19.06A9,9,0,0,0,12,16.42Z"/><path d="M72.38,83.56a12,12,0,0,1-8.5-3.51L34.12,50.28a12,12,0,0,1,0-17L63.88,3.51a12,12,0,1,1,17,17L66,35.4a9,9,0,0,0,0,12.77L80.89,63a12,12,0,0,1-8.51,20.52ZM72.38,3A9,9,0,0,0,66,5.64L36.24,35.4a9,9,0,0,0,0,12.76L66,77.92A9,9,0,0,0,78.76,65.16L63.88,50.29a12,12,0,0,1,0-17h0L78.76,18.4A9,9,0,0,0,72.38,3Z"/></g></g></svg>