<svg xmlns="http://www.w3.org/2000/svg" viewBox="0 0 1144 600"><rect x="239.72" y="76.55" width="664.55" height="523.45" fill="#f5f5f5"/><rect width="1144" height="76.55" fill="#fff"/><rect y="76.55" width="239.72" height="523.45" fill="#eee"/><rect x="48.4" y="33.18" width="72.16" height="10.19" rx="5.1" fill="#4fc3f7"/><rect x="165.81" y="33.18" width="72.16" height="10.19" rx="5.1" fill="#e0e0e0"/><rect x="283.22" y="33.18" width="72.16" height="10.19" rx="5.1" fill="#e0e0e0"/><rect x="43.99" y="125.95" width="151.74" height="14.44" rx="7.22" fill="#e0e0e0"/><rect x="43.99" y="179.01" width="151.74" height="14.44" rx="7.22" fill="#e0e0e0"/><rect x="43.99" y="232.06" width="151.74" height="14.44" rx="7.22" fill="#e0e0e0"/><rect x="43.99" y="285.12" width="151.74" height="14.44" rx="7.22" fill="#e0e0e0"/><rect x="359.7" y="137.98" width="151.74" height="14.44" rx="7.22" fill="#4fc3f7"/><rect x="360.54" y="166.6" width="273.27" height="7.22" rx="3.61" fill="#e0e0e0"/><rect x="359.7" y="196.92" width="424.42" height="55.15" rx="5.87" fill="#fff"/><rect x="382.16" y="220.89" width="129.27" height="7.22" rx="3.61" fill="#f5f5f5"/><rect x="359.7" y="314.4" width="151.74" height="14.44" rx="7.22" fill="#4fc3f7"/><rect x="359.7" y="353.34" width="33.51" height="33.13" rx="5.87" fill="#fff"/><rect x="403.15" y="353.34" width="33.51" height="33.13" rx="5.87" fill="#fff"/><rect x="446.61" y="353.34" width="33.51" height="33.13" rx="5.87" fill="#fff"/><rect x="490.06" y="353.34" width="33.51" height="33.13" rx="5.87" fill="#fff"/><rect x="533.52" y="353.34" width="33.51" height="33.13" rx="5.87" fill="#fff"/><rect x="576.97" y="353.34" width="33.51" height="33.13" rx="5.87" fill="#fff"/><rect x="620.43" y="353.34" width="33.51" height="33.13" rx="5.87" fill="#fff"/><rect x="663.88" y="353.34" width="33.51" height="33.13" rx="5.87" fill="#fff"/><rect x="707.34" y="353.34" width="33.51" height="33.13" rx="5.87" fill="#fff"/><rect x="750.79" y="353.34" width="33.51" height="33.13" rx="5.87" fill="#fff"/><rect x="360.54" y="416.48" width="423.57" height="1.7" rx="0.85" fill="#e0e0e0"/><rect x="359.7" y="448.19" width="93.83" height="93.83" rx="5.87" fill="#fff"/><rect x="384.87" y="517.29" width="43.49" height="7.22" rx="3.61" fill="#f5f5f5"/><circle cx="406.61" cy="485.11" r="17.52" fill="#eee"/><rect x="469.96" y="448.19" width="93.83" height="93.83" rx="5.87" fill="#fff"/><rect x="495.13" y="517.29" width="43.49" height="7.22" rx="3.61" fill="#f5f5f5"/><circle cx="516.87" cy="485.11" r="17.52" fill="#eee"/><rect x="580.22" y="448.19" width="93.83" height="93.83" rx="5.87" fill="#fff"/><rect x="605.39" y="517.29" width="43.49" height="7.22" rx="3.61" fill="#f5f5f5"/><circle cx="627.13" cy="485.11" r="17.52" fill="#eee"/><rect x="690.47" y="448.19" width="93.83" height="93.83" rx="5.87" fill="#fff"/><rect x="715.65" y="517.29" width="43.49" height="7.22" rx="3.61" fill="#f5f5f5"/><circle cx="737.39" cy="485.11" r="17.52" fill="#eee"/><rect x="904.28" y="76.55" width="239.72" height="523.45" fill="#fafafa"/><rect x="1007.72" y="20.4" width="117.45" height="35.74" rx="6.04" fill="#4fc3f7"/><path d="M1043.52,340.83a19.07,19.07,0,0,0,.16-2.55,15.35,15.35,0,0,0-.19-2.56l5.51-4.28a1.34,1.34,0,0,0,.33-1.66l-5.21-9a1.33,1.33,0,0,0-1.6-.6l-6.49,2.61a19.32,19.32,0,0,0-4.4-2.56l-1-6.89a1.31,1.31,0,0,0-1.3-1.11h-10.42a1.28,1.28,0,0,0-1.28,1.11l-1,6.89a19.72,19.72,0,0,0-4.39,2.56l-6.49-2.61a1.29,1.29,0,0,0-1.6.6l-5.19,9a1.23,1.23,0,0,0,.33,1.66l5.51,4.28a15.64,15.64,0,0,0-.25,2.56,16.65,16.65,0,0,0,.19,2.55l-5.51,4.29a1.32,1.32,0,0,0-.32,1.65l5.21,9a1.33,1.33,0,0,0,1.6.59l6.49-2.6a19.07,19.07,0,0,0,4.4,2.55l1,6.89a1.34,1.34,0,0,0,1.31,1.12h10.42a1.28,1.28,0,0,0,1.28-1.12l1-6.89a18.46,18.46,0,0,0,4.4-2.55l6.49,2.6a1.29,1.29,0,0,0,1.6-.59l5.21-9a1.25,1.25,0,0,0-.32-1.65Zm-19.38,7.22a9.78,9.78,0,1,1,9.77-9.77A9.8,9.8,0,0,1,1024.14,348.05Z" fill="#e0e0e0"/></svg>