<svg xmlns="http://www.w3.org/2000/svg" viewBox="0 0 1144 600"><rect y="76.55" width="1144" height="523.45" fill="#f5f5f5"/><rect width="1144" height="76.55" fill="#fff"/><rect x="48.4" y="33.18" width="72.16" height="10.19" rx="5.1" fill="#e0e0e0"/><rect x="165.81" y="33.18" width="72.16" height="10.19" rx="5.1" fill="#e0e0e0"/><rect x="283.22" y="33.18" width="72.16" height="10.19" rx="5.1" fill="#4fc3f7"/><rect x="1007.72" y="20.4" width="117.45" height="35.74" rx="6.04" fill="#4fc3f7"/><rect x="33.62" y="121.03" width="326.65" height="434.49" rx="5.87" fill="#fff"/><rect x="411.33" y="121.8" width="326.65" height="434.49" rx="5.87" fill="#fff"/><rect x="783.73" y="121.03" width="326.65" height="434.49" rx="5.87" fill="#fff"/><path d="M163.91,364.83l4.81,2V334.44l-8.72,21A7.25,7.25,0,0,0,163.91,364.83Zm70-13.28-17.8-42.94a7.24,7.24,0,0,0-6.49-4.42,7.37,7.37,0,0,0-2.84.54L180.3,315.67a7.18,7.18,0,0,0-4.41,6.46,6.55,6.55,0,0,0,.54,2.87L194.22,368a7.19,7.19,0,0,0,6.57,4.41,7.41,7.41,0,0,0,2.76-.54L230,360.88A7.16,7.16,0,0,0,233.87,351.55ZM183.1,325.72a3.59,3.59,0,1,1,3.59-3.59A3.6,3.6,0,0,1,183.1,325.72Zm-7.17,39.46a7.2,7.2,0,0,0,7.17,7.18h5.2l-12.37-29.92Z" fill="#4fc3f7"/><rect x="817.74" y="157.52" width="140.86" height="14.44" rx="7.22" fill="#4fc3f7"/><rect x="818.53" y="186.15" width="253.68" height="7.22" rx="3.61" fill="#e0e0e0"/><rect x="817.74" y="219.29" width="258.63" height="299.74" rx="5.87" fill="#f5f5f5"/><rect x="841.66" y="243.25" width="183.57" height="7.22" rx="3.61" fill="#e0e0e0"/><rect x="841.66" y="262.45" width="61.87" height="7.22" rx="3.61" fill="#e0e0e0"/><rect x="911.27" y="262.45" width="61.87" height="7.22" rx="3.61" fill="#e0e0e0"/><rect x="979.7" y="262.45" width="75.15" height="7.22" rx="3.61" fill="#e0e0e0"/><rect x="467.28" y="173.24" width="100.72" height="100.72" rx="5.87" fill="#f5f5f5"/><rect x="494.31" y="247.4" width="46.68" height="7.75" rx="3.61" fill="#e0e0e0"/><circle cx="517.64" cy="212.86" r="18.81" fill="#bdbdbd"/><rect x="581.66" y="173.24" width="100.72" height="100.72" rx="5.87" fill="#f5f5f5"/><rect x="608.68" y="247.4" width="46.68" height="7.75" rx="3.61" fill="#e0e0e0"/><circle cx="632.02" cy="212.86" r="18.81" fill="#bdbdbd"/><rect x="581.66" y="288.35" width="100.72" height="100.72" rx="5.87" fill="#f5f5f5"/><rect x="608.68" y="362.51" width="46.68" height="7.75" rx="3.61" fill="#e0e0e0"/><circle cx="632.02" cy="327.97" r="18.81" fill="#bdbdbd"/><rect x="467.28" y="288.35" width="100.72" height="100.72" rx="5.87" fill="#f5f5f5"/><rect x="494.31" y="362.51" width="46.68" height="7.75" rx="3.61" fill="#e0e0e0"/><circle cx="517.64" cy="327.97" r="18.81" fill="#bdbdbd"/><rect x="466.94" y="404.13" width="215.1" height="100.72" rx="5.87" fill="#f5f5f5"/><rect x="547.48" y="443.15" width="46.68" height="7.75" rx="3.61" fill="#e0e0e0"/><rect x="547.48" y="458.08" width="81.36" height="7.75" rx="3.61" fill="#e0e0e0"/><circle cx="511.93" cy="454.49" r="18.81" fill="#bdbdbd"/></svg>