<svg xmlns="http://www.w3.org/2000/svg" xmlns:xlink="http://www.w3.org/1999/xlink" viewBox="0 0 704.63 887.89"><defs><radialGradient id="a" cx="449.88" cy="156.46" fy="147.53555160431256" r="13.22" gradientUnits="userSpaceOnUse"><stop offset="0" stop-color="#36344a"/><stop offset="0.34" stop-color="#38364c"/><stop offset="0.51" stop-color="#403e54"/><stop offset="0.64" stop-color="#4d4b60"/><stop offset="0.75" stop-color="#605d72"/><stop offset="0.85" stop-color="#78758a"/><stop offset="0.94" stop-color="#9592a6"/><stop offset="1" stop-color="#aeaabe"/></radialGradient><radialGradient id="b" cx="-3395.68" cy="157.78" fy="148.85453155927286" r="13.22" gradientTransform="matrix(-1, 0, 0, 1, -3023.85, 0)" xlink:href="#a"/></defs><path d="M461.74,265.1l2.46,83s-9.3,26.4-58,24.54-48.72-37.92-48.72-37.92V273Z" fill="#f8a574"/><path d="M453.79,280.48s-18.66,22.28-68.07,12.93c0,0-17-2.64-20.31,15.7s6.78,49.14,6.78,49.14l-17.6-10.84,2.88-72.7Z" fill="#ec9369"/><path d="M431.47,288s17.36,1.48,18.16,25.71c0,.38,0,.75,0,1.12.12,18.91-15,34.38-33.88,35.33-14,.71-35-.21-49-9.9l-1.14,11.08s52,20.51,100.33-7.3l-4.84-69.23Z" fill="#ec9369"/><path d="M329.84,174.24s-17.79-27.78-28.79-5.87c-10.86,22.63,17.59,67.5,33.47,54.19Z" fill="#e48358"/><path d="M321.53,176.22s-8.18-7.44-11.34-8-9.29,9.67-6.69,24a27.18,27.18,0,0,0,4.09,8.92c3.49,5.1,15.25,10.6,15.25,10.6s-9.86-7.44-13.21-11-2.6-9.3-3-13.2,4.28-14.51,4.28-14.51S311.68,169.89,321.53,176.22Z" fill="#cc6a44"/><path d="M324,184.1s-6.32-3-9.29,3.35-1.49,11.53,1.67,13.76a73.68,73.68,0,0,1,9.67,8.92c2.6,2.79,5-.93,4.09-3.72S324.7,201,324,198.79s2.42-3.37,2.79-7.26S324,184.1,324,184.1Z" fill="#cc6a44"/><path d="M326.81,133.79c-2-74.42,74.6-86.67,133.67-63.43,24,12.28,38.39,48.11,34.93,72.86-7.56,54.12-16.2,142.26-82.85,139.61C325.74,279.37,331.44,206.62,326.81,133.79Z" fill="#f8a574"/><path d="M489,173.13s17.47-28,28.71-6.19c11.12,22.51-16.81,67.7-32.84,54.56Z" fill="#e48358"/><path d="M497.59,175s8.18-7.44,11.34-8,9.3,9.67,6.7,24a27.18,27.18,0,0,1-4.09,8.92c-3.49,5.11-15.25,10.6-15.25,10.6s9.85-7.43,13.2-11,2.6-9.29,3-13.2-4.28-14.5-4.28-14.5S507.45,168.72,497.59,175Z" fill="#cc6a44"/><path d="M495.17,182.92s6.33-3,9.3,3.35S506,197.8,502.8,200a73.13,73.13,0,0,0-9.67,8.93c-2.61,2.79-5-.93-4.09-3.72s5.39-5.4,6.13-7.63-2.41-3.37-2.79-7.26S495.17,182.92,495.17,182.92Z" fill="#cc6a44"/><path d="M392.33,162.54s.11-28.09,2.6-46.64c0,0-41.81-12.13-57.79,11.7,0,0,11.71,34.64,12.53,40.87S392.1,171.62,392.33,162.54Z" fill="#ed9469"/><path d="M428.42,164s-.68-20.25-3.17-38.8c0,0,38.76-10.55,54.74,13.28,0,0-9.44,24.24-10.26,30.47S428.65,173.11,428.42,164Z" fill="#ed9469"/><path d="M422.65,198.75H394.1a12.1,12.1,0,0,1,3.91-6.13,6.38,6.38,0,0,1,4.08-1.37h12.79a6.18,6.18,0,0,1,4.45,1.73A12.21,12.21,0,0,1,422.65,198.75Z" fill="#ec9369"/><path d="M406.27,196.21c.18-.26-3.84-6.14-9.42,0,0,0-1.38,2.29-2.75,2.54,0,0,1.32-.25,4.85-3.41C399,195.34,404.16,199.27,406.27,196.21Z" fill="#de6c40"/><path d="M410.07,196.21c-.18-.26,3.85-6.14,9.42,0,0,0,1.8,2.29,3.16,2.54,0,0-1.73-.25-5.26-3.41C417.39,195.34,412.18,199.27,410.07,196.21Z" fill="#de6c40"/><path d="M417,182.47a54.74,54.74,0,0,0-16.78,0S409,174.23,417,182.47Z" fill="#ec9369"/><path d="M490.36,129.9s-2.61,90.57-19.22,123.79a68.19,68.19,0,0,1-17.35,26.79s21.16-8.74,30.59-52.57S490.36,129.9,490.36,129.9Z" fill="#ec9369"/><path d="M488.83,119.81S483.29,92.61,460,85,368.11,72.8,331.08,110l2-9.3,15.2-14.88s39-23.55,86.76-15.49c0,0,30.06,6.34,39.92,15.38S488.83,119.81,488.83,119.81Z" fill="#ec9369"/><path d="M331.25,190.81S271.51,63.6,346.84,51.55c0,0,52.18-101.62,143.75-19.5,0,0,42.4,33.29,25.67,86.18s-28.69,77.85-28.69,77.85,10.05-68-4.43-100.19-116.89-42.15-150.09,4.83C333.05,100.72,323.33,137.89,331.25,190.81Z" fill="#682a14"/><path d="M348.25,85.84s26.22-55.43,111.3-27.27a50,50,0,0,1,34.15,51.68,105.15,105.15,0,0,1-3.11,17.35s-1.27-38.41-22.76-46.67S410.43,55.21,348.25,85.84Z" fill="#4a1c10"/><path d="M348.25,85.84s-25.92-8.42-25,28.58,5.89,62.16,5.89,62.16-4.53-51.62,3.9-75.86Z" fill="#4a1c10"/><path d="M346.84,51.55s-2.43,24.56,6.15,27l-4.74,7.34s-8.88-2.75-13.73.8a12.06,12.06,0,0,0,7.87-9C344,70.48,346.84,51.55,346.84,51.55Z" fill="#4a1c10"/><path d="M266.14,786.71s-7.8,65-4.89,100.95H601.41l.77-8.06,22-37.59-53.11-52.24-238.22-36Z" fill="#166090"/><path d="M260.6,826.86s257.3,6.48,307-31C567.62,795.83,319.29,786.54,260.6,826.86Z" fill="#10587d"/><path d="M185.19,535.52s9.35,11,17.09,11C202.28,546.48,194.54,545.84,185.19,535.52Z" fill="#ea4e25"/><path d="M600.54,361.73c20.37,23.8,61.66,76.21,68.35,117.63h2.54l4.09,14.81s-48.24,28.06-95.34,26.65L577.38,488l-5.56,267,8,45.76-2.82-1c-12.32-4.55-31.12,1.56-44.25,1-40.59-1.64-117.14,14-161.23,10.78-52.27-3.87-110.93,15.38-110.93,15.38l5.54-79.46s1.29-9,5.16-78.69-17.42-156.3-17.42-156.3l-51.6,34.07c-37.41-61.27-73.85-79.33-74.82-79a39.41,39.41,0,0,0-4.67,3.07c-.49-5,1.13-6.94,1.13-6.94,8.54-5,17.73-19.83,17.73-19.83l3.23,1.13s28.38-32.25,46.44-52.89,29.67-21.93,52.89-27.74,110.54-20.9,110.54-20.9c11.25,15.16,50.5,15.1,50.5,15.1C450.53,359.82,466,336.7,466,336.7l108.44,10.61A42.43,42.43,0,0,1,600.54,361.73Z" fill="#ea4e25"/><path d="M193.34,532.6s-111.51,90-157.47,84.19l-16,.27S3,613.4.56,585.35,1,527.3,62.48,379.75l11.88-39.13L75.86,320s-11.39-26.66-15.48-46.23-9.24-24.86-9.24-24.86a71.73,71.73,0,0,0-11.61-13.84c-6-5.43-22.79-26-27.94-32.3a4.2,4.2,0,0,1-.2-5.05c1.51-2.17,4.7-4.42,11.37-3.07,0,0,35.69,33.33,40.85,35.69s7.74-2.79,6.88-7.31-8.6-24.08-8.6-24.08l-7.74-26L52,161.52c-.23-2.11,5.47-6.91,11.61-4.86a5.26,5.26,0,0,1,3.21,3.08c2.72,6.91,12.16,31,14.63,38.23,2.91,8.49,4.09,14.51,6.88,16.12s2.69-8,2.69-8-4.08-19.57-6.88-30.75c-2.21-8.83-6-25.38-7.53-31.94a4.35,4.35,0,0,1,1.92-4.68,14.94,14.94,0,0,1,10-2.21,4.41,4.41,0,0,1,3.6,2.78c2.05,5.25,7.22,18.86,10.53,30.14a198.39,198.39,0,0,1,5.48,22.57l3,15.16s4.84,0,5.38-3.12.86-33.43.86-33.43l-1-29.56v-2a4.88,4.88,0,0,1,2.88-4.5,10.08,10.08,0,0,1,4.87-.76,10.26,10.26,0,0,1,8.89,7.33c1.54,5.07,3.64,13.37,3.57,20.8-.11,11.72,1.51,30.86,1.51,30.86l2.47,17.09s1.93,4.3,3.87,15.69a50.12,50.12,0,0,0,7.74,19.35s7.95,3,11.82-.43,19.78-21.28,19.78-21.28,18.28-17.42,30.53-9.89l1.91,2.13a4.37,4.37,0,0,1-1,6.63l-11.9,7.36s-12.69,17.42-15.48,22.79-9.46,19.14-9.46,19.14l-12,18.35s-5.81,16.69-15,26.15-23.22,67.73-23.22,67.73-24.94,61.92-26,88.58-13.54,86.65-13.54,86.65S99,507.69,100.89,486.4l26.57-18.93S159.46,481.2,193.34,532.6Z" fill="#f8a574"/><path d="M78.23,325.78s9.89,4.09,24.51-1.5,23-2.15,30.31-.86,9.89.79,9.89.79-12,1.79-23.65-1-17.41,6.67-29.67,6.88S78.23,325.78,78.23,325.78Z" fill="#ed9469"/><path d="M161.43,265.15a13.86,13.86,0,0,1,0-14.83c4.86-8,11.4-6,11.4-6a17.87,17.87,0,0,1,11.61-14.62s4.86-11.16,11.35-14.93c0,0-11.45,7.88-13.4,10.05S164,244.51,164,244.51s-2.82,3.66-11.82.43C152.19,244.94,158.56,262.55,161.43,265.15Z" fill="#ed9469"/><path d="M78.21,331.16s4.86,4.73,20.55,2.47C98.76,333.63,82.39,340.62,78.21,331.16Z" fill="#ed9469"/><path d="M22.76,194.63s-11.35.18-8,8.17,11,10.35,18.92,19.91,17,17.29,20.43,21.8,6.88,17.85,8.17,20.64S69,288.59,74.79,296.76s14.82,11.45,16.77,24.43S87,343.2,79.3,354s-35.69,99.76-35.69,99.76-32,119.11-32.46,135.45-5.27,19.25,8.76,27.9c0,0-17.26-2.85-19.35-31.71S9.17,521.7,9.17,521.7l24.46-70.31L63.4,376.71l11-36.09L75.86,320s-9.34-23.27-12-32.78-5.57-26.6-9.7-33.27-5.77-10-12.91-17.2c-6-6.08-23.87-27.17-29.5-33.83a4.34,4.34,0,0,1-.1-5.52C13.32,195.35,16.52,193.41,22.76,194.63Z" fill="#ed9469"/><path d="M88.55,558.85s14.3-55.9,19.13-60S141.52,476,141.52,476l-14.06-8.57L100.89,486.4Z" fill="#ed9469"/><path d="M175.8,517.59a108.76,108.76,0,0,1-31.61,51.09l49.15-36.08-17.48-23.27h0A16.62,16.62,0,0,1,175.8,517.59Z" fill="#ed9469"/><path d="M113.49,296.11s8.38-30.32,28.16-34.4c0,0-20.42-16.4-6.66-33.67l-26.66-1.37-43.43,32S92,261.71,113.49,296.11Z" fill="#ed9469"/><path d="M144.88,444.9s65,58,72.12,84.45C217,529.35,213.15,496.76,144.88,444.9Z" fill="#d74227"/><path d="M586.11,520.85s7,13.79,14.38,25.08,20.87,42.87,29.9,72.49c0,0,6.2,8.46,0,34.41s-9.59,87.72-9.59,87.72l-9,46.54-9,8.18s-9.31-10.16-13.54-10.72-12.13,5.92-20.31,6.77S540.13,808,540.13,808s1.41,13.54,21.72,11.85a51.19,51.19,0,0,0,14.1-9.59s6.49-1.49,8.74,3.34,28.49,36.14,17.49,66c0,0,19.75-13,39.49-42.31l6.2-9.87s6.77-4.79,8.18-16.64,26.24-66.28,26.24-66.28a380.48,380.48,0,0,0,16.07-68.83c5.36-38.92,8.18-34.69,4.8-54.15S670.24,497,670.24,497,625.6,520,586.11,520.85Z" fill="#f8a574"/><path d="M632.9,627.44s3.62,8.25,4.68,8.46,9.73-9.73,15.23-22,12.27-37.65-6.13-37-23.77,19.18-22.89,21.67S632.9,627.44,632.9,627.44Z" fill="#ed9469"/><path d="M427.82,152.39s-1.41,14.38,3.27,21.77,24.62,10.22,24.62,10.22-15-4.18-18.75-11.87c0,0,12,3.6,19.82.61C463.15,170.67,435.46,150.29,427.82,152.39Z" fill="#ed9469"/><path d="M392.62,153.75s1.41,14.38-3.26,21.77-24.63,10.22-24.63,10.22,15.06-4.18,18.76-11.87c0,0-12,3.6-19.83.61C357.29,172,385,151.65,392.62,153.75Z" fill="#ed9469"/><path d="M542.42,806.25s0,12.85,18.16,9c0,0,10.57-5.4,12.27-9s4-7,1.69-10.42c0,0,5.08,1.48,5.29,4.87,0,0,4.86-6.77,11-1.49s14.38-7.12,17.13,6.7c0,0-.63,4.44-6.13,7.65l-.42-12.86s-11.17,6.13-19.76,9.94c0,0-3.48-2.48-5.7-.42,0,0-7.12,7.33-14.1,9.59s-19.32-2-21.72-11.85Z" fill="#ed9469"/><path d="M561.59,804.72l-10.32,6.76s-2.68-6-8.85-5.23l10.14-4.92A7.92,7.92,0,0,1,561.59,804.72Z" fill="#e8c1ac"/><path d="M581.65,810.64l19.76-9.94-14.18,10.78s-1.83,2.83,2,3.67a48.36,48.36,0,0,0,9.45.71s-10.56,1.48-10.5,3.14l-3.47-5.44A4,4,0,0,0,581.65,810.64Z" fill="#cc7650"/><path d="M570,448s-25,98.22-81.35,87.49c0,0,52.08,22.74,53.82,73.69s-18.58,91.26-7.92,127.29S577.11,789,577.11,789s-5.34-15.69-5.34-38,2.84-129.81,2.84-129.81l.74-35.61.84-40.63.26-12.26.47-90.1S570.6,434.62,570,448Z" fill="#d74227"/><path d="M578.78,427.34s-4.69,29.93-2.22,46.8,1.74,19,1.74,19-6.1-18.87-7.6-26.28,2.87-7.5-2.6-15.09-19.78-23.31-19.78-23.31l21,19.15Z" fill="#c93b27"/><path d="M216.18,526l2.61,9.64,35.09-23.18s20.23,105.69,17.66,151-5.4,123.34-5.4,123.34,20.92-97.73,29.3-137.15-32.15-165.2-29.3-199.06C266.14,450.5,259,511.44,216.18,526Z" fill="#d74227"/><path d="M668.89,479.36s-6,6-23.56,9.62-46.74,17.2-64.59,16.34l-1.18,0s9.14,2.54,32.68-5.2S648,489.41,648,489.41s18.4-5.48,23.39-10.05Z" fill="#d74227"/><path d="M641.2,509.26s20.95-7.38,30.23,30c10.59,42.69,25.15,50.19,23.26,88.31S664.72,780,647.78,801s.09,26.42.09,26.42,6.42-4,8.18-16.64l8.11-24,16.77-39.56s10.44-26.15,13.94-48.84,9.07-55.65,9.07-55.65,2.09-11.33-2.4-28.84S686.92,558,686.92,558L670.24,497S648.3,506.52,641.2,509.26Z" fill="#ed9469"/><path d="M187.13,537.49l6.21-4.89c3.18,4.7,6.18,9.34,8.94,13.88C202.28,546.48,197.37,548.12,187.13,537.49Z" fill="#c53927"/><path d="M423.14,809.85c-.11,0,0,73.45,0,73.45l-3.21-73.17Z" fill="#10587d"/><path d="M438.3,887.66s16.45,3.54,16-20.17-2.9-46.76-2.9-46.76,4.52,37.73,4,50.31S449.1,889.12,438.3,887.66Z" fill="#10587d"/><path d="M319.78,879.6s96.27,3.7,102.18-23.24l1.18,26.94S347.35,890.74,319.78,879.6Z" fill="#10587d"/><path d="M387.45,221.33a21.92,21.92,0,0,1,3.84-1.44c6.36-1.66,22.71-5,34.27.77a35.26,35.26,0,0,0,17.93,2.18s-39.89,4-69.16.35C374.33,223.19,382.91,223.51,387.45,221.33Z" fill="#ed9469"/><path d="M379.06,225.16s29,14.21,60.36-.44C439.42,224.72,410.84,254.53,379.06,225.16Z" fill="#ed9469"/><path d="M374.33,223.19s18.64,8,34.94,8a73.27,73.27,0,0,0,34.22-8.39S397,226.8,374.33,223.19Z" fill="#fff"/><path d="M431.56,119.24c-4.36.13-8.43,4.17-9.66,9.9-.57,2.7-.32,4.92,2.08,4.94,5,0,21.29-5.61,36.44-4.71a26.91,26.91,0,0,1,16.2,7l9.08,8S477.91,126.52,472,122C467.55,118.6,443,118.91,431.56,119.24Z" fill="#682a14"/><path d="M428.42,162.54s1.85-19.63,22.4-21.5,20.89,15.88,20.89,15.88,4-9-2.79-16.82-20.08-6.61-30-1.9S426.81,153.91,428.42,162.54Z" fill="#1e0d0b"/><path d="M428.42,164c-.13-.34-3.73-17.46,14.48-23s28.27,7.7,28.73,14.23-1.16,15.24-11,16.35a76.53,76.53,0,0,1-22.47-.85S430.88,170.57,428.42,164Z" fill="#eadfd1"/><circle cx="449.88" cy="156.46" r="13.22" stroke="#36344a" stroke-miterlimit="10" stroke-width="0.25" fill="url(#a)"/><circle cx="449.88" cy="156.46" r="8.76" fill="#0e1221"/><circle cx="443.7" cy="151.07" r="2.57" fill="#fff"/><path d="M434.38,169.91s32.06,7.93,36.16-5.7l.92-3.55s2.14,12.12-11.3,12.82S444.45,172.54,434.38,169.91Z" fill="#e88a67"/><path d="M471.46,160.66a17.5,17.5,0,0,1-14.16,11.12S470.16,172.67,471.46,160.66Z" fill="#edbfa9"/><path d="M392,163.86s-1.84-19.63-22.39-21.5-20.89,15.88-20.89,15.88-4-9,2.78-16.82,20.09-6.61,30-1.9S393.57,155.23,392,163.86Z" fill="#1e0d0b"/><path d="M387.83,104.74c4.37-.23,8.77,3.49,10.48,9.16.81,2.66.74,4.91-1.64,5.13-4.95.46-21.71-3.88-36.73-1.72a26.73,26.73,0,0,0-15.55,8.36L336,134.45s6.25-18.56,11.72-23.56C351.91,107.07,376.46,105.34,387.83,104.74Z" fill="#682a14"/><path d="M392,165.35c.13-.35,3.74-17.46-14.48-23s-28.26,7.71-28.73,14.24,1.17,15.24,11.05,16.34a76.17,76.17,0,0,0,22.47-.85S389.5,171.89,392,165.35Z" fill="#eadfd1"/><circle cx="371.83" cy="157.78" r="13.22" stroke="#36344a" stroke-miterlimit="10" stroke-width="0.25" fill="url(#b)"/><circle cx="371.83" cy="157.78" r="8.76" fill="#0e1221"/><circle cx="365.64" cy="152.39" r="2.57" fill="#fff"/><path d="M386,171.23s-32.06,7.93-36.17-5.7l-.91-3.55s-2.14,12.11,11.29,12.81S375.93,173.86,386,171.23Z" fill="#e88a67"/><path d="M348.92,162a17.5,17.5,0,0,0,14.15,11.12S350.22,174,348.92,162Z" fill="#edbfa9"/><path d="M85.29,216.26s-7-.31-11.37,7.28A81.68,81.68,0,0,0,85.29,216.26Z" fill="#ed9469"/><path d="M97.12,208.67s5.92-5,12.9-2.88Z" fill="#ed9469"/><path d="M122,204s8.09-3.64,15.78,0Z" fill="#ed9469"/><path d="M59.86,232.86s-4.25.35-6.07,7.09Z" fill="#ed9469"/><path d="M340.06,345.94s15.2,29,68.85,26.83,71.3-34.68,71.3-34.68-12.54,35.5-71,37.33S340.06,345.94,340.06,345.94Z" fill="#d74227"/><path d="M488.83,190.32s-5.66,16.17-30.62,36.25-74.64,17.45-97.28,2-30.64-39.85-30.64-39.85-2.45,43.39,20.65,76.05c20.87,29.5,47.05,26.41,60.41,49.1,0,0,3.17-16.36,31.09-28.47C472.11,272.5,485.75,257,488.83,190.32Z" fill="#682a14"/><path d="M519.2,460.33h-6.91v-2.4a4.86,4.86,0,0,0-4.85-4.85h-9.79a4.86,4.86,0,0,0-4.85,4.85v2.4h-6.91a4.59,4.59,0,0,0-4.59,4.59v18.92a4.59,4.59,0,0,0,4.59,4.59H519.2a4.59,4.59,0,0,0,4.59-4.59V464.92A4.59,4.59,0,0,0,519.2,460.33Zm-22.69-2.4a1.18,1.18,0,0,1,1.18-1.18h9.79a1.17,1.17,0,0,1,1.18,1.18v2.31H496.51ZM520.07,483a1.75,1.75,0,0,1-1.75,1.75H486.77A1.75,1.75,0,0,1,485,483V465.79a1.74,1.74,0,0,1,1.75-1.74h31.6a1.74,1.74,0,0,1,1.74,1.74V483Z" fill="#fff"/><path d="M346.84,51.55S332.09,32.34,350,19.1L355.19,16Z" fill="#682a14"/><path d="M346.84,51.55s-18.36-28.3-38.23-16.87l-7.15,4.67Z" fill="#682a14"/><path d="M408.26,46.43c.57-.07,56.3,18.54,64.32,53.79,0,0-24.48-31.91-89.92-44.19C382.66,56,397.69,47.76,408.26,46.43Z" fill="#682a14"/><polygon points="385.04 56.49 370.5 51.55 380.59 59.74 385.04 56.49" fill="#4a1c10"/><path d="M434.38,80.41s18.22,10.53,27.37,23.38c0,0-5.06-15.25-18.05-24.53Z" fill="#ec9369"/><path d="M453.54,219.58l-.34-.51h.05a32.43,32.43,0,0,0-7.49-7.75c-5.39-4.62-13.31-9.72-23-11.13H397.39c-9.71,1.41-17.62,6.51-23,11.13a32.39,32.39,0,0,0-7.48,7.75h.05c-.21.32-.35.51-.35.51l-7.77,11.65,13,8.83,2.79-15.34h0a7.54,7.54,0,0,1,6.62-5.23l28.88-.17,28.88.17a7.53,7.53,0,0,1,6.61,5.23h0l2.8,15.34,13.49-8Z" fill="#682a14"/><polygon points="414.52 198.75 408.66 205.22 402.34 198.75 414.52 198.75" fill="#ec9369"/><path d="M447.15,233.44s-1.9,17.23-4.59,23.7-26.22,8.63-26.22,8.63l6.49-26.07S439.4,230.63,447.15,233.44Z" fill="#f8a574"/><path d="M372.89,233.94s1.67,16.45,4.36,22.93,26.22,8.63,26.22,8.63L397,239.61S380.64,231.14,372.89,233.94Z" fill="#f8a574"/></svg>