<svg xmlns="http://www.w3.org/2000/svg" viewBox="0 0 1144 600"><rect y="76.55" width="1144" height="523.45" fill="#f5f5f5"/><rect width="1144" height="76.55" fill="#fff"/><rect x="48.4" y="33.18" width="72.16" height="10.19" rx="5.1" fill="#e0e0e0"/><rect x="165.81" y="33.18" width="72.16" height="10.19" rx="5.1" fill="#4fc3f7"/><rect x="283.22" y="33.18" width="72.16" height="10.19" rx="5.1" fill="#e0e0e0"/><rect x="1007.72" y="20.4" width="117.45" height="35.74" rx="6.04" fill="#4fc3f7"/><rect x="33.62" y="121.03" width="326.65" height="434.49" rx="5.87" fill="#fff"/><rect x="411.33" y="121.03" width="326.65" height="434.49" rx="5.87" fill="#fff"/><rect x="783.73" y="121.03" width="326.65" height="434.49" rx="5.87" fill="#fff"/><rect x="64.83" y="156.68" width="140.86" height="14.44" rx="7.22" fill="#4fc3f7"/><rect x="65.62" y="185.3" width="253.68" height="7.22" rx="3.61" fill="#e0e0e0"/><rect x="64.83" y="218.45" width="258.63" height="81.01" rx="5.87" fill="#f5f5f5"/><rect x="102.37" y="253.65" width="183.57" height="10.6" rx="3.61" fill="#e0e0e0"/><rect x="64.83" y="327.81" width="258.63" height="81.01" rx="5.87" fill="#f5f5f5"/><rect x="102.37" y="363.02" width="183.57" height="10.6" rx="3.61" fill="#e0e0e0"/><rect x="64.83" y="437.18" width="258.63" height="81.01" rx="5.87" fill="#f5f5f5"/><rect x="102.37" y="472.38" width="183.57" height="10.6" rx="3.61" fill="#e0e0e0"/><rect x="445.34" y="156.68" width="140.86" height="14.44" rx="7.22" fill="#4fc3f7"/><rect x="446.13" y="185.3" width="253.68" height="7.22" rx="3.61" fill="#e0e0e0"/><rect x="445.34" y="218.45" width="258.63" height="299.74" rx="5.87" fill="#f5f5f5"/><rect x="469.26" y="242.41" width="183.57" height="7.22" rx="3.61" fill="#e0e0e0"/><rect x="469.26" y="300" width="183.57" height="7.22" rx="3.61" fill="#e0e0e0"/><rect x="469.26" y="280.8" width="92.99" height="7.22" rx="3.61" fill="#e0e0e0"/><rect x="573.89" y="280.8" width="92.99" height="7.22" rx="3.61" fill="#e0e0e0"/><rect x="469.26" y="261.61" width="61.87" height="7.22" rx="3.61" fill="#e0e0e0"/><rect x="538.87" y="261.61" width="61.87" height="7.22" rx="3.61" fill="#e0e0e0"/><rect x="607.3" y="261.61" width="75.15" height="7.22" rx="3.61" fill="#e0e0e0"/><rect x="819.82" y="156.68" width="140.86" height="14.44" rx="7.22" fill="#4fc3f7"/><rect x="820.61" y="185.3" width="253.68" height="7.22" rx="3.61" fill="#e0e0e0"/><rect x="818.13" y="218.45" width="258.63" height="299.74" rx="5.87" fill="#f5f5f5"/><rect x="836.73" y="448.66" width="221.43" height="47.46" rx="5.87" fill="#fff"/><rect x="836.19" y="235.17" width="222.53" height="195.96" rx="5.87" fill="#fff"/><path d="M935.37,321.07a6.55,6.55,0,0,1,9.25,0l6,6,2.83-2.83-6-6a10.54,10.54,0,0,0-14.91,14.91l6,6,2.83-2.83-6-6A6.54,6.54,0,0,1,935.37,321.07Zm4.63,7.6,11.92,11.93,3-3L943,325.69Zm22.36,4.48-6-6L953.56,330l6,6a6.54,6.54,0,0,1-9.25,9.24l-6-6-2.83,2.83,6,6a10.54,10.54,0,0,0,14.91-14.91Z" fill="#bdbdbd"/><rect x="895.63" y="467.08" width="139.63" height="10.6" rx="3.61" fill="#e0e0e0"/><rect x="851.38" y="467.08" width="34.81" height="10.6" rx="3.61" fill="#81c784"/></svg>