<svg xmlns="http://www.w3.org/2000/svg" viewBox="0 0 142.86 148.51"><path d="M115.66,60.61s-.6-15.41-3.6-19.28C112.06,41.33,111.53,51.55,115.66,60.61Z" fill="#c63a1e"/><path d="M24.49,108.4s-.71-.93-2.41-3.35a4,4,0,0,0-2.27-.81c-1.6-.18-.5-1-3.35-1.22a2.21,2.21,0,0,1-1.44-.27c-.7-.41-.91,1.62-.23,2.94s2.4,1.11,3.39.87c0,0-.41.92-.22,1.39a4.28,4.28,0,0,1-3,1.63,9.11,9.11,0,0,0-1.79,1l-3.55,1.21-3.19.55s-2.16-.25-2.53.53-.15.87-.15.87S.29,113.6.07,115s.41,1.15.41,1.15-.7,1.45,1.08,1.71l1.73,0a16.16,16.16,0,0,0,2.36,1.36,33.88,33.88,0,0,0,3.39.92l3.41.09a24.51,24.51,0,0,0,9.82-1.49l2.72-.66A96.26,96.26,0,0,1,24.49,108.4Z" fill="#f8a574"/><path d="M15.78,103a1.27,1.27,0,0,0,1,1.84c1.63.38,1.94-.27,1.94-.27s.75.17.37.8a8,8,0,0,1-.88,1.17s-3.66,1.3-3.8-2.52C14.38,104,13.93,101.91,15.78,103Z" fill="#ef9870"/><path d="M13.12,111.78s.09,1.14-.35,1.56-.72.67-.72.67.17-.22-1.39-.4a51.22,51.22,0,0,0-6.51.37,24.26,24.26,0,0,1,7.84-.71A1.65,1.65,0,0,0,13.12,111.78Z" fill="#ef9870"/><path d="M.24,114.63s0,1,1.53.79a67.38,67.38,0,0,1,7.11.35s2.65-.14,3-1c0,0,.19,1.19-.52,1.4a70.55,70.55,0,0,1-7.92-.56s-2.93-.09-3.19.5A1.14,1.14,0,0,1,.24,114.63Z" fill="#ef9870"/><path d="M11.51,116.61l0,1a9.21,9.21,0,0,1-3.33-.18s2.56.25,2.93-.26Z" fill="#ef9870"/><path d="M25.07,116.94a4.65,4.65,0,0,0-3.42.7c-1.3,1.1-8.46,2.43-9.81,1.56l-.43-.58s-.32,1.7-3.81.58S4,117.79,4,117.79s-.55-.86.1-1.14c0,0-1,.34-.73,1.27,0,0,1.18.74,2.25,1.29a14,14,0,0,0,3.28.89s10.07.81,13.34-1.37l2.72-.66Z" fill="#ef9870"/><path d="M.62,116.09s-.11.72,1.12.76l2,.05a1.62,1.62,0,0,0-.41.95l-1.73,0S-.28,117.64.62,116.09Z" fill="#ef9870"/><path d="M24.49,108.4l2.05,1.39c1.46,1.15,7.19-.17,7.19-.17,13.65-4.06,16.59-4.64,19.39-4.79,2.27-.13,7-1.55,7.36-6.48s.62-11,.62-11l4.61,2.45.7,4.41c.81,3.68,1.43,8,1.81,10.87.23,1.78-.44,5.32-1.89,5.65-2,.45-2.55,1.09-8.48,2.79-7.36,2.1-23.42,2.41-29.64,4.08a16,16,0,0,1-2.85.48l-.37,0a35.42,35.42,0,0,1-1.94-4.58A49.64,49.64,0,0,1,24.49,108.4Z" fill="#f8a574"/><path d="M22.73,112a1.5,1.5,0,0,0-1.15-.19,2,2,0,0,1-2.44-.89c-.85-1.7-.68-1.28-.68-1.28l-2.33,1.51s-.28,1.76,2.64,2.08.13,0,.13,0-4.56,3-4.09,5c0,0,6.11-6.17,7.92-6.25Z" fill="#ef9870"/><path d="M106.44,137s0,.34,0,1c-.08,1.77-.27,5.8-.5,10.6H64.8a91,91,0,0,1,1.28-11.89h0C67,137,88.12,144.59,106.44,137Z" fill="#0e5d8e"/><path d="M83.73,32.35s1.82,7.16,1.54,10l1.41,1.94s3,10.2,3.5,12.15L77.34,59.61l-3.51-10,9-12.61Z" fill="#ed9569"/><path d="M68.94,28.47v0Z" fill="#464c50"/><path d="M68.94,28.49h0Z" fill="#464c50"/><path d="M68.93,28.46h0Z" fill="#464c50"/><path d="M69.72,24.92a4.43,4.43,0,0,0-.79,3.54c-.08-.41-.82-4.53,2.88-4.73a4.53,4.53,0,0,1,3,1,13.18,13.18,0,0,1,1.49,1.42,8.05,8.05,0,0,0-4-2.22,2.12,2.12,0,0,0-2.57,1Z" fill="#464c50"/><path d="M77.2,14.16a14.38,14.38,0,0,0-15.61,6.2,10.56,10.56,0,0,0-1.7,6.08,1.62,1.62,0,0,1,0,.22c-.08,1,1.4,12.28,4.13,17.37a10,10,0,0,1,.56,1.25,40.66,40.66,0,0,0,1.55,3.83c.64,1.2,2.9,3.52,11.75-1.41l.61-.32a8.71,8.71,0,0,0,4.9-9.1,20.6,20.6,0,0,1,1.42-9.87,10,10,0,0,0,.66-5.09l-.06-.43a10,10,0,0,0-4.91-7.35L80,15.27A9.82,9.82,0,0,0,77.2,14.16Z" fill="#f8a574"/><path d="M61.15,34.27s2.3,3.16,4.24-.69a2.92,2.92,0,0,0-2.58-3.21C59.88,29.81,61,33.46,61,33.46Z" fill="#fff"/><ellipse cx="63.68" cy="32.6" rx="1.59" ry="1.98" transform="translate(-5.96 16.25) rotate(-13.89)" fill="#464c50"/><path d="M65.27,39.46l2-.5a4.3,4.3,0,0,1,2.55.66s-3,.71-3.79.94C66.05,40.56,64.74,40.28,65.27,39.46Z" fill="#ed9569"/><circle cx="63.74" cy="32.56" r="0.64"/><circle cx="64.25" cy="33.13" r="0.36" fill="#fff"/><path d="M69.82,32.46s-.82-5.25-2.65-6.4c0,0,3-3.59,10.42-1.57a19.09,19.09,0,0,1-.46,5.29Z" fill="#ed9569"/><path d="M69.76,32.14s0,2.13,4.42,1a4.77,4.77,0,0,0,3-3.34s-2.53-3.11-5.34-2.09S69.76,32.14,69.76,32.14Z" fill="#fff"/><path d="M66.85,26.05a.72.72,0,0,1-.13-.79c.25-.54,1.07-1.52,3.82-2.06a10.12,10.12,0,0,1,7,1.29s-6.27-1.81-9.49,1.38C68.1,25.87,67.33,26.52,66.85,26.05Z" fill="#6a2500"/><path d="M63,27.31a9.75,9.75,0,0,0,1.92,4.16s-3.17-3-4.1.16a8.76,8.76,0,0,1-.48-1.27c-.06-.35-.35-2.69-.35-2.69a1.91,1.91,0,0,1,1.32-.44Z" fill="#ed9569"/><path d="M77.13,29.78s-3.61,4.31-7.19,2.91c0,0,.51,1.53,4.25.5C74.19,33.19,76.91,32.21,77.13,29.78Z" fill="#ed9569"/><path d="M65.39,33.59s-1.93,2.34-4.24.68c0,0,1.6,2.25,3.23.78A4.14,4.14,0,0,0,65.39,33.59Z" fill="#ed9569"/><path d="M64.87,31.47s-3.48-2.88-4.11.46A1.57,1.57,0,0,1,61.9,30.2C63.28,29.68,64.87,31.47,64.87,31.47Z"/><path d="M63.56,27.4s2.27,3.73,1.83,6.18a3.31,3.31,0,0,0-1.19-2.81L62.26,27.2Z" fill="#ed9569"/><path d="M63.13,27.71a.59.59,0,0,0,.6-1,2,2,0,0,0-.3-.22c-1.07-.67-3.56-.11-3.56-.11l.07,1.26A5.53,5.53,0,0,1,63.13,27.71Z" fill="#6a2500"/><circle cx="73.83" cy="29.89" r="2.15" fill="#464c50"/><circle cx="73.8" cy="29.96" r="0.75"/><circle cx="74.54" cy="30.42" r="0.36" fill="#fff"/><line x1="101.86" y1="75.25" x2="102.81" y2="81.75" fill="none"/><path d="M65.28,96.43s1.45,9.5-.06,11-10.63-.09-21.37,5.82a93.64,93.64,0,0,1-19.46,3.55l.6,1.27a18.49,18.49,0,0,0,4.24-.76c2.43-.7,15.75-1.86,15.75-1.86a65.37,65.37,0,0,0,20.42-4.51s1.4-.23,1.64-.72C67,110.22,66.4,98.88,65.28,96.43Z" fill="#ef9870"/><path d="M59.54,101.36A6.76,6.76,0,0,0,64,103.83s-3.29.21-5.16-1.52Z" fill="#ef9870"/><path d="M67.61,44s3.34-1.1,6.67-2.62C74.28,41.33,72.37,47.13,67.61,44Z" fill="#fff"/><path d="M88.1,7.69s-.56,3.9-3.45,5.82c0,0,6.21-1.34,10.34,1.28,0,0-1.65-2.95-8.39-2.31C86.6,12.48,88.61,9.88,88.1,7.69Z" opacity="0.1"/><path d="M81.5,8.1a4,4,0,0,0,1.44-1.81,9,9,0,0,1,1-1.76s-1.37,1.78-2.17,1.74a2.33,2.33,0,0,1-2.29,1.94s-.49,0-.8-.69l.22-.86s-.27.5-1.23.18a1.13,1.13,0,0,1-.54-1.21s.43-.08,1.12-1.55S82.41.63,82.41.63L88.52.19A3,3,0,0,1,90.84.3a47.49,47.49,0,0,1,7.65,5.3C101.05,8,118,13,123.86,15.82a135.41,135.41,0,0,1,13.51,8s2.35,1.34,3.86,2.4a3.91,3.91,0,0,1,1.5,2.09,4.42,4.42,0,0,1,.13.43c0,1.5-2,3.07-3.18,4a50,50,0,0,0-5.1,4.9c-9,9.21-15.3,15.14-21.51,19.44,0,0-5.47-9.63-.71-15.45l11.73-11s-13.75-9.4-20.92-14.34c0,0-5-3.61-8-2.36s-4.14-.75-5.55-1.14a14.19,14.19,0,0,0-2.7-.44,23,23,0,0,0-2.67-3.67,5.56,5.56,0,0,1,3.12.25s2.15.69,2-1.26l-.14-1.37-2.4-.77a2.54,2.54,0,0,1-1.69,1.07S83.21,10.79,81.5,8.1Z" fill="#f8a574"/><path d="M86.84,5.54a1.45,1.45,0,0,0,.57-1s.94,1.49,2.42-1.25c0,0-.76,2.06.21,2.24S92.4,4.1,92.4,4.1A6.09,6.09,0,0,1,90.82,6l3.3,6a4.3,4.3,0,0,0,4.16-1.26l-.63,3.06a4.31,4.31,0,0,0-2.93.35s-1.54,1-4.52-1.1A7.58,7.58,0,0,0,87,12.36a18.43,18.43,0,0,0-2.67-3.67A5.55,5.55,0,0,1,87.64,9c2,.74,2-1.34,1.6-2.69Z" fill="#ef9870"/><path d="M87.54,1.74s-3.4.5-3.92.55S81.77,4.43,81.1,4.67c0,0-.87,3.65-2.43,2.85,0,0,.21,1.15,2,.4a2.53,2.53,0,0,0,1.11-1.65s.79.14,2.17-1.74L85.62,2.7Z" fill="#ef9870"/><path d="M85.08,3.27a.8.8,0,0,1-1-.14s-.89,2.63-2.53,2.24c0,0-1.12,3.51-2.85,2.15,0,0,.31,1,1.63.53a2.29,2.29,0,0,0,1.46-1.78s.79.12,2.17-1.74Z" fill="#e88d69"/><path d="M81.73,8.43A2.61,2.61,0,0,0,84,6.52s2.91-1.28,3-2.41c0,0,1.65.86,2.67-1.2s.06,1.81.32,1.76.72.87,2.18-.6-.32.9-.32.9-1.25,1.49-5,.44a2.24,2.24,0,0,1-1.73,1.2S83.34,10.36,81.73,8.43Z" fill="#e88d69"/><path d="M82.49,1.78a24.81,24.81,0,0,1-3.13,2.15s-.65,2.47-2.12,2.49A1,1,0,0,0,79,6.5l.64-1.73Z" fill="#ef9870"/><path d="M98.28,10.71a5.51,5.51,0,0,0,3.91,3.84c3.43,1.14,22.48,14.69,24.33,15.26h0l-3.77,2.08,1.34-1.25s-19.82-14-26.44-16.87Z" fill="#ef9870"/><path d="M102.81,81.75l1.8,34.25s1.2,15.27,3,21.44c0,0-24.14,9.91-41.56-.82,0,0,2.76-23.65-.47-38.61S64.4,72.9,64.4,72.9s-1.08,12,.06,18.57l-4-2.15s-.47-21,4-24.71,12.15-7.32,12.15-7.32,4.82,4.92,12.8-4.43l4.59.77,18.15-12.3s-.72,8.23,3.6,19.28L102.81,71.17V81.75Z" fill="#ea4d28"/><path d="M64.4,72.9a53.21,53.21,0,0,0,.06,18.57l-1.14-.6S62.56,75.72,64.4,72.9Z" opacity="0.1"/><path d="M101.86,75.25s-2-9.4-3.12-13.26c0,0,2.81,65,8.9,75.45C107.64,137.44,104.54,114.63,101.86,75.25Z" fill="#d64225"/><path d="M76.52,57.29l-1.22.59a6.25,6.25,0,0,0,5.56,2.7c3.62-.34,8.23-4.44,9.79-7.49l-1.33-.23s-3.11,4.27-7,5.34S76.52,57.29,76.52,57.29Z" fill="#d64225"/><g opacity="0.1"><path d="M92.24,79.55v-.11a2.44,2.44,0,0,0,0-.26c0-.2,0-.42,0-.63,0-.37,0-.75-.09-1.13a.77.77,0,0,0-.68-.65c-.4,0-.8,0-1.19,0s-.57,0-.84,0l-.54,0c-.5,0-1,.07-1.49.12a.76.76,0,0,0-.65.68c0,.39,0,.79,0,1.17v.86c0,.18,0,.36,0,.54v.07c0,.3,0,.6.07.9s0,.36,0,.54a.76.76,0,0,0,.68.65c.48,0,1,0,1.43,0l1.2,0c.47,0,1-.06,1.43-.12a.75.75,0,0,0,.64-.68l0-.5a.76.76,0,0,1,0-.16v-.13c0-.12,0-.24,0-.37V80C92.25,79.85,92.25,79.7,92.24,79.55Zm-.26.74v.35s0,.08,0,.12v.15l0,.48a.61.61,0,0,1-.51.54c-.45,0-.9.09-1.35.11l-1.12,0c-.45,0-.9,0-1.35,0a.62.62,0,0,1-.54-.52c0-.17,0-.34,0-.5s0-.56-.06-.85v-.06c0-.17,0-.34,0-.51s0-.52,0-.77v0c0-.37,0-.74,0-1.1a.63.63,0,0,1,.52-.55c.46-.05.93-.09,1.4-.11h1.3c.38,0,.75,0,1.12.05a.63.63,0,0,1,.54.51c0,.36.07.71.09,1.07l0,.59v.34c0,.14,0,.28,0,.42S92,80.19,92,80.29Z"/></g><path d="M69.75,32.12s-1-4.56,2.86-4.76a4.42,4.42,0,0,1,3,1,12.25,12.25,0,0,1,1.5,1.42s-3.12-3.18-5.61-2S69.75,32.12,69.75,32.12Z"/><path d="M60.56,22s-3.21.14-2.63-2.73c0,0-.07-1.08,1.33-1.43a2.46,2.46,0,0,0,1.92-.08S58.34,19,56.29,15.58,65.22,6.12,69.6,8.14c0,0-5.22-1.75-2.84-3.89S79.9,6.64,83.47,10.8c0,0,.14-5.16,3-4.77s1.39,5.1.11,6.45c0,0,10.38-1.21,9,6,0,0-2.16,3.37-6,.39a4.56,4.56,0,0,0,4.56.89s4.76,2.5.71,4.73l-1.7.43s.81,1.53-1,5.07-5.51,10.17-5.44,14.29h0a3.85,3.85,0,0,1-2.1-3l-1-8.4s-1.1,2.23-1.11-1.65.52-2.11.28-5.51A3.21,3.21,0,0,1,83.48,23s-1.9-2.46-3.67-2.28-2.24-3.95,0-5.57C79.78,15.13,68.4,10.38,60.56,22Z" fill="#6a2500"/><path d="M89.54,18.87s1.36,2.2,4.56.89a4.65,4.65,0,0,1,1.68,1.3S90.62,22.38,89.54,18.87Z" opacity="0.1"/><path d="M68.23,7.56a15.07,15.07,0,0,0,6.9,2.25S64.93,8,62.23,9C62.23,9,63.79,7.6,68.23,7.56Z" opacity="0.1"/><path d="M83.87,36.78s4.91,3.1,6.33-2.69-3.53-4.82-3.53-4.82-2.87.14-3.14,3.65-.24,4.17-.24,4.17Z" fill="#ed9569"/><path d="M84.71,32.11a2.43,2.43,0,0,1,2.86-1.69,2.37,2.37,0,0,1,1.77,1.08,2.13,2.13,0,0,1,.3,1.24s-1.07-2.65-3-1.92A4.72,4.72,0,0,0,84.71,32.11Z" opacity="0.1"/><path d="M85.85,31.18s2.21.48,2.06,2c0,0-1.26-1.71-2.34-1.81Z" opacity="0.1"/><path d="M78.3,18.41s.45-3.82-3.27-3-9.52.44-14.47,6.61c0,0,3.63-7.88,9.48-8.49,0,0,7.6-1.77,9.74,1.58A4.45,4.45,0,0,0,78.3,18.41Z" fill="#6a2500"/><path d="M56.05,14.92s1.37,2.56,6.38,2.76C62.43,17.68,57.45,19.18,56.05,14.92Z" opacity="0.1"/><path d="M112.36,41.6s1.85,11.6,9.71,8.21l-7.91,6.47A49.73,49.73,0,0,1,112,41.94Z" fill="#ef9870"/></svg>