<svg xmlns="http://www.w3.org/2000/svg" xmlns:xlink="http://www.w3.org/1999/xlink" viewBox="0 0 631.55 941.67"><defs><radialGradient id="a" cx="740.47" cy="-129.97" fy="-139.4121109541093" r="13.99" gradientTransform="translate(-403.23 300.11) scale(1 0.9)" gradientUnits="userSpaceOnUse"><stop offset="0" stop-color="#36344a"/><stop offset="0.34" stop-color="#38364c"/><stop offset="0.51" stop-color="#403e54"/><stop offset="0.64" stop-color="#4d4b60"/><stop offset="0.75" stop-color="#605d72"/><stop offset="0.85" stop-color="#78758a"/><stop offset="0.94" stop-color="#9592a6"/><stop offset="1" stop-color="#aeaabe"/></radialGradient><radialGradient id="b" cx="-3566.46" cy="329.73" fy="322.0968318206982" r="11.31" gradientTransform="matrix(-1, 0.09, 0.09, 1, -3308.65, 172.22)" xlink:href="#a"/></defs><path d="M127.84,559.68l35.94,23.59,11.4-34.46,27.7,13.91,35.54,13S199,655.34,185.11,667s-63.19-34-63.19-34L82.58,557.64Z" fill="#f8a574"/><path d="M152.88,568.32s6.86,10.33,15.18,30c0,0,1.73-8.42-13.49-35.14Z" fill="#ed9469"/><path d="M523.74,876.27l10.42,65.4H226.92V872.93S493.21,842,523.74,876.27Z" fill="#166090"/><path d="M360.74,880.67c.08,0,0,56.44,0,56.44l2.47-56.22Z" fill="#10587d"/><path d="M349.09,940.46s-20.27,2.72-19.67-15.5A308.66,308.66,0,0,1,333,889s-5.57,29-5,38.66S335.78,941.58,349.09,940.46Z" fill="#10587d"/><path d="M226.92,872.93s99.92,86.17,297.32,11.22l-.76-13.35Z" fill="#10587d"/><polygon points="411.37 311.28 412.92 201.79 303.25 275.53 305.98 346.92 351.39 390.55 399.87 326.75 411.37 311.28" fill="#f2966a"/><path d="M305.46,333.3s42.64,37.86,105.91-22l74,14.36c32,6.22,61,22,80.57,45.45a119.35,119.35,0,0,1,21.26,37.32c20.63,59,43.2,116.31,43.2,116.31s-86,1.85-116.38,35.87l-14.3-57.23,10.72,223.09s12.24,104.14,23.74,146c0,0-185.63,74.73-312.4-2.56,0,0,5.89-174.09-13-275s-6.58-160.61-6.58-160.61S189.74,514.28,196,558.33l-40.76-7.56s15.28-148.44,49.76-172S305.46,333.3,305.46,333.3Z" fill="#e94e26"/><path d="M404.17,214.78s-6.75,32-9.56,37.39-23.29,33.5-61.57,49.32c0,0-8.37,2.32-11,10.22,0,0-2.91-6.67-16.11-13.28C306,298.43,387.51,262.06,404.17,214.78Z" fill="#e28059"/><path d="M203.19,559.81S193.43,506.7,208.77,410c0,0-24.79,100.82-26.43,146Z" fill="#d74227"/><path d="M468.31,418.9a43.18,43.18,0,0,1,0-36s-14.55,19.14-.39,49,20.49,172.84,20.49,172.84l15.83-7-2.1-84.11S490,439.79,492.28,418.6c0,0-13.25,22.25-9.3,45.73C483,464.33,473.41,435.74,468.31,418.9Z" fill="#d74227"/><path d="M508.54,687.27s9.28,132.6,25.62,185.17c0,0-106.77,33.29-162.58,31.19,0,0,126.84-22.52,139.61-40.38s-19-217.54-19-217.54l14.67,7.34Z" fill="#d74227"/><path d="M476.68,468.71s-26.8-61.81-53.57-64.87c0,0,32.47,1.8,49.81,44.29L483,481.43Z" fill="#d74227"/><path d="M418,438.84h-7.12v-2.47a5,5,0,0,0-5-5H395.77a5,5,0,0,0-5,5v2.47h-7.11a4.73,4.73,0,0,0-4.73,4.73v19.5a4.73,4.73,0,0,0,4.73,4.73H418a4.72,4.72,0,0,0,4.72-4.73v-19.5A4.72,4.72,0,0,0,418,438.84Zm-23.37-2.47a1.21,1.21,0,0,1,1.21-1.22H405.9a1.21,1.21,0,0,1,1.21,1.22v2.38H394.6Zm24.27,25.84a1.81,1.81,0,0,1-1.8,1.8H384.56a1.81,1.81,0,0,1-1.81-1.8V444.47a1.81,1.81,0,0,1,1.81-1.8h32.55a1.81,1.81,0,0,1,1.8,1.8v17.74Z" fill="#fff"/><path d="M292.38,337.91s15.39,23.82,49.33,21.94,74.25-33.07,82-46.18l-4-.78s-17.3,25.61-60.43,40c0,0-36.28,14.88-63.78-16.09Z" fill="#d74227"/><path d="M363.53,924.23s91.23,3.14,131.35-13.83c0,0-50.69,24.75-127.39,18.23,0,0,47.7,15.4,109.77-.86,0,0-61.73,18.84-116.24,3.05v-6.51Z" fill="#10587d"/><path d="M226.92,897.36a9.57,9.57,0,0,0,0,13c5.83,7.07,41.34,20.85,94.15,17.45C321.07,927.85,239.94,923.76,226.92,897.36Z" fill="#10587d"/><path d="M227.29,912.87a6.86,6.86,0,0,0,0,9.34c4.18,5.06,29.6,14.92,67.41,12.48C294.7,934.69,236.62,931.77,227.29,912.87Z" fill="#10587d"/><path d="M514,560.59s111.92-26.32,116.38-35.87C630.38,524.72,548.3,518.12,514,560.59Z" fill="#d74227"/><path d="M276.2,80.14s-37,30.29-33.08,64.25,8.57,51,8.94,58.7,8.3,40.86,17,57.07,30.62,50.6,57.2,45.8S363.81,293,377,281.35s29.28-26.92,25.74-53.17l4-9.8s35.12,34.21,43.65-35.83c0,0,2.56-28.69-32.88-20.28a46.45,46.45,0,0,0-14.78,26.07S415,171,416.4,145.29s-23.84-57.14-23.84-57.14-22.74,7.42-13.74-22C378.82,66.17,330.05,45.83,276.2,80.14Z" fill="#f8a574"/><path d="M421.29,180.65S433,167.38,436.53,166s9,11.73,9.38,28.9a32.16,32.16,0,0,1-2.63,11.29c-2.84,6.72-15.15,15.84-15.15,15.84s9.65-10.92,12.69-15.79,2.41-11.58,1.92-16.19-5.5-17.92-5.5-17.92S431.2,171,421.29,180.65Z" fill="#cc6a44"/><path d="M420.69,184.68s6.61-4.93,11.54,1.69,4.43,13,1.3,16.3a86.54,86.54,0,0,0-9.08,12.6c-2.36,3.84-6,.11-5.61-3.34s5-7.5,5.31-10.26-3.59-3.33-4.94-7.74S420.69,184.68,420.69,184.68Z" fill="#cc6a44"/><path d="M315,152.06c2.23,9.93,2.49,16,3.68,23.78h0s-.16,15.15,5.4,22.45,26.66,8.42,26.66,8.42-16.11-3-20.68-10.69c0,0,12.9,2.66,20.77-1.18a1.52,1.52,0,0,0,.74-.69c6.93-.79,12.3-2.49,12.4-4.82.29-6.58,12.5-38.66,12.5-38.66C357.64,127.23,315,152.06,315,152.06Z" fill="#ed9469"/><path d="M320.62,144.16c-4.45,1-7.8,5.35-7.88,10.64,0,2.49.69,4.38,3.15,3.92,5.11-1,20.72-9.2,36.46-11.45a31.7,31.7,0,0,1,18.08,2.88l11,5.2s-11.68-14.1-18.63-16.87C357.45,136.37,332.25,141.57,320.62,144.16Z" fill="#682a14"/><path d="M320.85,186.88s.3-19,21.81-22.7S366,177.49,366,177.49a14.8,14.8,0,0,0-4.34-15.88c-7.8-6.88-21.74-4.49-31.81.95S318.43,178.75,320.85,186.88Z" fill="#1e0d0b"/><path d="M321,188.31c-.17-.32-5.41-16.41,13.33-23.42s30.44,4.78,31.49,11,0,14.73-10.27,16.7a89.05,89.05,0,0,1-23.77,1.26S324.11,194.35,321,188.31Z" fill="#eadfd1"/><ellipse cx="337.24" cy="182.5" rx="13.99" ry="12.73" transform="translate(-14.63 30.1) rotate(-5)" stroke="#36344a" stroke-miterlimit="10" stroke-width="0.5" fill="url(#a)"/><ellipse cx="337.24" cy="182.5" rx="9.27" ry="8.44" transform="translate(-14.63 30.1) rotate(-5)" fill="#0e1221"/><ellipse cx="330.28" cy="177.91" rx="2.72" ry="2.47" transform="translate(-14.25 29.47) rotate(-5)" fill="#fff"/><path d="M327.75,193.4s34.47,4.66,37.65-8.8l.66-3.5s3.27,11.43-10.83,13.34S338.58,195,327.75,193.4Z" fill="#e88a67"/><path d="M366.06,181.1s-2.36,9.38-14,12C352.08,193.08,365.7,192.74,366.06,181.1Z" fill="#edbfa9"/><path d="M287.17,149.76c-.31,9.36,2.17,22.12,2.39,29.35h0s2.43,13.74-1,21.22S268,212.05,268,212.05s12.72-5.18,15.28-12.87c0,0-10.15,4.39-17.16,2.09a1.24,1.24,0,0,1-.71-.51c-5.8.33-13.11-4.63-13.54-6.73-1.24-5.94-3.74-34.78-3.74-34.78C260,135.07,287.17,149.76,287.17,149.76Z" fill="#ed9469"/><path d="M290.35,189.77s-3-16.61-20.7-16.67S253,188.2,253,188.2s-4.08-7.37,1.11-14.54,16.64-7.14,25.45-3.87S291.08,182.29,290.35,189.77Z" fill="#1e0d0b"/><path d="M290.46,191c.09-.3,1.89-15.16-14.06-18.54s-23.53,8.68-23.44,14.29,2.13,12.9,10.64,13.11a65.69,65.69,0,0,0,19.1-2.41S288.86,196.79,290.46,191Z" fill="#eadfd1"/><circle cx="272.98" cy="189.77" r="11.31" stroke="#36344a" stroke-miterlimit="10" stroke-width="0.5" fill="url(#b)"/><circle cx="272.98" cy="189.77" r="7.5" fill="#0e1221"/><circle cx="267.39" cy="184.94" r="2.2" fill="#fff"/><path d="M353.72,248c.16-.16-2.67-5.9-8-15.23-7.08-12.53-31.18-11.36-31.18-11.36s-31.21,4.81-38,9.13c-8.44,5.38-6.65,21.39-6.65,21.39l-9.52-13.38c.43,3.27,2.4,9,3.7,12.62,3.84,10.61,4.44,15,8.84,22.53l1.72,3.3a96.48,96.48,0,0,0,8.25,13.13c7.08,9.46,3,5.19,14.13,16.33,6.24,6.26,16.7,19.21,23.51,23.57.81.52-.3.92,0,0h0c4.54-14.13,33.62-26.67,45.29-35.83a170.17,170.17,0,0,0,35.38-38.08c.84-12.46,5-63,5-63C373.2,239.44,354.82,247.69,353.72,248Z" fill="#682c16"/><path d="M254.37,106.12s48.05-9.44,68.86-1c0,0,32.37,7.46,43.54,19.26,0,0-6.32-17-36.49-29.61S254.37,106.12,254.37,106.12Z" fill="#ec9369"/><path d="M278.2,243.35s15.37-16.42,54-8.44c0,0,4.44,9,4.92,18.66.38,7.82-9.11,15.69-16.74,17.49h0l-1.66-20.63-18.88,3.64,6.14,18.3-12.1,1s-8.82-2-10.05-7.68Z" fill="#f8a574"/><path d="M291.76,242.44a13.67,13.67,0,0,1,2.55-1.87c4.36-2.4,15.7-7.69,25.08-3.67a20.6,20.6,0,0,0,13.42-.21s-28.36,8.92-50.28,9.21C282.53,245.9,288.83,245.11,291.76,242.44Z" fill="#ed9469"/><path d="M286.31,247.18S309.78,257,330.16,239C330.16,239,314.39,271.18,286.31,247.18Z" fill="#ed9469"/><path d="M282.53,245.9s14.92,5.26,26.78,3.2a45,45,0,0,0,23.5-12.41S299.65,246.44,282.53,245.9Z" fill="#fff"/><path d="M296.23,28.46s-12.89-14,.25-25.66L300.33,0Z" fill="#4a1c10"/><path d="M296.23,28.46s-16.35-20.93-31.15-10.6L259.8,22Z" fill="#4a1c10"/><path d="M263.58,103.72l-9.21,2.4c-15.18,24.41-10.29,46.15-10.29,46.15-43.7-91.27,8.09-99.13,8.09-99.13,4.53-21.53,53.91-34.71,53.91-34.71,129.71-36,145.56,83.26,145.56,83.26l-12.72,60.75c-9.76-3.28-19.78,5.59-19.78,5.59-11.63,9.52-13,25.89-13,25.89l-.76-71.37C398,111.15,385.75,106,385.75,106S370,96.4,343.57,92.12c0,0,17.49,6.63,35.61,32.2C379.18,124.32,332.86,84.32,263.58,103.72Z" fill="#682c16"/><path d="M343.57,92.12l-32.79-14.3s85.78,1.66,94.58,44.73C405.36,122.55,394.35,101.38,343.57,92.12Z" fill="#4a1c10"/><path d="M324.81,100.22s-34.33-11.46-75.21-4.3c0,0-10.74,10.13-5.42,37.06,0,0,1.68-10.37,10.19-26.86C254.37,106.12,289.63,93.18,324.81,100.22Z" fill="#4a1c10"/><path d="M266.47,93.91s-22.2,6.29-15.15-22.61c0,0-12.42,25.9-7.76,43.06C243.56,114.36,249.72,102.22,266.47,93.91Z" fill="#4a1c10"/><path d="M405.36,122.55s10,8.73,32.91,6.73c0,0-15.71,8.72-32.8,3.67Z" fill="#4a1c10"/><path d="M405.57,142s20.94,8.94,32.16-1.26c0,0-5.28,11.26-32,13.39Z" fill="#4a1c10"/><path d="M380,93.32s34.92,15.65,64.15-.67c0,0-21.68,18.44-48.92,18.17Z" fill="#4a1c10"/><path d="M320.9,188.06s.69,8.74,27,5.79c0,0-7.33,4.84-20.53,1.53,0,0-6.08-1.88-7.2-9.88Z" fill="#e88a67"/><path d="M261.66,199.56s14.38,2.67,26-4.24C287.65,195.32,276.46,206.18,261.66,199.56Z" fill="#ed9469"/><polygon points="61.25 378.53 229.21 302.89 267.1 392.7 337.19 554.04 171.29 585.63 61.25 378.53" fill="#891f1f"/><polygon points="218.43 351.41 241.74 399.39 127.68 446.88 102.99 399.77 218.43 351.41" fill="#721717"/><polygon points="61.25 378.53 6.14 337.63 133.31 573.54 171.29 585.63 61.25 378.53" fill="#721717"/><path d="M17.41,346l-5.3-16.15s33.61,7.55,49.14,48.69Z" fill="#d7d7d5"/><path d="M61.25,378.53s95.46-49.64,157-85.52l4.92,12.61Z" fill="#d7d7d5"/><path d="M522.65,551.69l2.07,4.52.41,2.84s-38.26-3.66-76.24-19.13-108.33-53.46-108.33-53.46-13.22-20-20.54-38c0,0,.29-12.66-17.16-21.66a275.52,275.52,0,0,1-34-21.48s-12.32-17.18-18.91-14.64c-10,3.84-6.65,15-2.32,22.16s13.19,14.56,13.19,14.56,10.54,9.73,9.84,14.55c0,.17-5.48-2.9-5.52-2.73l-4.46-1.73a85.77,85.77,0,0,1-10.1-4.92c-4.43-2.64-27.39-18.49-43.22-27-7.71-4.15-13.66-7.56-15.82-8.75-1.53-.85-3.41.68-4.76,1.8-2,1.62-4.41,4.38-4.6,8.17a6.29,6.29,0,0,0,2.76,5.37c5.84,4.12,21.56,15.33,25.66,19.77,5.06,5.49,16.88,15.83,16.88,15.83s-10.55-3.37-15-5.91-8.65-7.17-15.19-9.7-7.35-8.92-14.94-8.5-12.05,12.39-.89,17.57c5.26,2.44,13.09,11.39,14.14,12.45s-8.65-2.32-5.69,7.39,25.74,29.33,25.74,29.33a32,32,0,0,0,10.55,21.1c10.13,8.86,37.52,18.69,47.22,22.49s24.32,3.37,29.17,5.06S479.84,639.38,479.84,639.38s65.83,34.18,79.76,36.71,34.19,10.13,43.47,9.71,19.84-28.7,27-43.47-14.27-118.2-14.27-118.2S561.31,520.89,522.65,551.69Z" fill="#f8a574"/><path d="M245,398.09s6.54,15.36,16.11,20.28,8.3,8.3,16.74,14.49,24.76,20.8,24.76,20.8-12.87-6.66-19.2-7.37S270.64,442,270.64,442s1.55-5.16-9.17-13.62C261.47,428.34,240.11,412.27,245,398.09Z" fill="#ed9469"/><path d="M195.59,453.68l13.72,10.13s4,3.16,11.18,8.86A53.29,53.29,0,0,1,231,483.43s-9.7-8.23-16.67-9.7S204,463.6,199.6,461.07s-3.32-3.67-9.68-5.53A7.26,7.26,0,0,1,195.59,453.68Z" fill="#ed9469"/><path d="M179.08,426.32s15.67,7.1,20.52,11.11a148.51,148.51,0,0,0,34.19,20.26s7,0-6.33-9.92a103,103,0,0,1-17-7.18C200.24,435.32,184.25,416.35,179.08,426.32Z" fill="#ed9469"/><path d="M215.64,490.4l16.18,12.94-14.68-5.66A21.42,21.42,0,0,1,215.64,490.4Z" fill="#ed9469"/><path d="M524.72,556.21s44.59-.54,68.22,27.6c0,0,7.32,5.91-9-2.82s-26.44-16.37-58.81-21.94Z" fill="#ed9469"/><path d="M263.09,399.53l-4.62,3.81L250,394.66a23.9,23.9,0,0,0,4.78-3.25A59.73,59.73,0,0,1,263.09,399.53Z" fill="#ebbaa3"/><polygon points="196.58 407.8 191.1 414.97 182.52 409.08 188.47 401.58 196.58 407.8" fill="#ebbaa3"/><polygon points="185.04 432.17 181.09 439.32 176.68 434 180.52 428.14 185.04 432.17" fill="#ebbaa3"/><polygon points="49.51 410.38 25.79 461.71 89.67 495.98 49.51 410.38" fill="#cb744e"/><path d="M22.18,360S18,370.47,8.48,386.87c0,0-3.06,3.5-1.05,12.56s-.5,27.42-.5,27.42-10.47,7-5.67,15.92a17.59,17.59,0,0,1,1.82,12.39,10.89,10.89,0,0,0,2.39,9.3,31,31,0,0,0,6.33,5.86c6.36,4.28,22.42,27.35,36.38,35.23,0,0,53.37,106.38,73.74,127.44l34.43-52.52s-42.56-39.21-61.49-76.94c-.58-1.14-1.16-2.27-1.78-3.39-1.46-2.61-4.54-8.23-7.8-14.91h0l-5.11-9.5L97,471c2.57-.76,5.49-3.28,5.76-5.94.33-3.22.53-8.09-4.12-10.08-2.18-.93-6.48.11-8.79.64-5.46,1.25-18.45,4.08-25.14,4.21a191.8,191.8,0,0,0-20,1.89l42.63-21.53s13-10.83-7-14.91l-6.2-.22s13.51-21.06-8-16.76l-36.26,3.87a56,56,0,0,0-.66-14.94,16.81,16.81,0,0,1,2-12.19S45.48,362.49,22.18,360Z" fill="#f8a574"/><path d="M80.17,475.73a87,87,0,0,1-18.17,3s17.46,7.49,23.28,6.49Z" fill="#ed9469"/><path d="M77.33,417.19s-3.5,9.91-18.77,10c-21.71.07-34.34,12.1-35.7,12.43a70.66,70.66,0,0,1-7.88.24s2.43,4.64,18.63.51,44.16-10.69,46.74-15.07l-6.2-.22S77.65,419.81,77.33,417.19Z" fill="#ed9469"/><path d="M22.18,360s8.14,13.13-1.51,25.8l-3.58.3s9.39-1.74,6.49,8.69-11.78,5.09-11.78,5.09,13.5,1.57,12.09,11.38l-9.4,9.93,15.42-9s.88-14.43,1.34-27.13C31.25,385,46,363,22.18,360Z" fill="#ed9469"/><path d="M92.06,501.82s-3.37,4.62-22.47,2.77c0,0,14.63,8.76,25.45,4.54Z" fill="#ed9469"/><path d="M58.18,429.81s-15.81,2.07-26.86,9C31.32,438.78,48.6,435.06,58.18,429.81Z" fill="#cb744e"/><path d="M27.24,470.91s0,8.08,11.41,9.2C38.65,480.11,22.27,482.68,27.24,470.91Z" fill="#ed9469"/><path d="M4.57,463.21s5.22,5.51,12.34,5.07l-5.11,2S6,466.43,4.57,463.21Z" fill="#ed9469"/><polygon points="18.02 369.03 19.13 369.89 23.67 363.12 21.5 361.55 18.02 369.03" fill="#ebbaa3"/><polygon points="61.21 410.74 61.67 419.3 74.29 419.28 73.44 409.14 61.21 410.74" fill="#ebbaa3"/><path d="M97.5,457.69s1.21,6.67,2.2,8.89L91,466.53l-2.29-6.25Z" fill="#ebbaa3"/><polygon points="82.8 479.84 127.79 571.85 165.77 583.94 118.02 494.06 82.8 479.84" fill="#721717"/><path d="M287.63,153.57c-1.37-4.66-4.71-7.76-8-7.64-8.5.32-26.83,1.37-29.9,4.43-1.62,1.62-3.31,5.07-4.74,8.6l.77,5.39,1.7-2a18.62,18.62,0,0,1,11.5-6.6c11.2-1.54,23.8,2.25,27.5,2C288.26,157.59,288.28,155.76,287.63,153.57Z" fill="#682a14"/><path d="M366.06,181.1s5.83,19.94-35.82,14.53a11.85,11.85,0,0,1-8.37-4.91,9.56,9.56,0,0,1-1.69-4.81,9.28,9.28,0,0,0,8.48,7.63c7.6.9,24.38,1.58,32.59-3.37C361.25,190.17,366.24,188.2,366.06,181.1Z" fill="#ed9469"/><path d="M255.1,195.32s2.35,4.83,10.94,4.58,23.31-1.78,24.31-8.49c0,0-4.15,10.77-19.36,10.52s-16.92-4.14-18.77-7.24Z" fill="#ed9469"/><path d="M307.51,170.38s-5.64,15.5,13.68,29.73,49.53,4.13,53-8c0,0,9.38-31.27-2.28-31.85S327.66,154.15,307.51,170.38Z" fill="#c7c6c5" opacity="0.2"/><path d="M234.18,171.31s21.62-9.38,52-3.21c0,0,12.37,21.93,2.18,35.43s-43.11,6.11-48.09-9S232.79,174.43,234.18,171.31Z" fill="#c7c6c5" opacity="0.2"/><path d="M293.44,192.21a108.34,108.34,0,0,0-4.15-22.58s-.61-3.14-6.88-3.4c-7.44-.31-28.2-2.28-41.17.73L231.65,169s2.46,28.55,18.5,37.49c0,0,11.76,9.63,32,2.7A16.5,16.5,0,0,0,293.5,193.1C293.49,192.81,293.47,192.51,293.44,192.21Zm-7-22.14c3.19,8.5,12.34,33.39-8.69,38-26.29,5.73-36.64-10.09-41.17-26.43l-1.25-5.43a4.76,4.76,0,0,1,3.19-5.62c5.84-1.85,18.71-4.3,43.49-2.41C283.65,168.28,285.92,168.57,286.48,170.07Z" fill="#211e1f"/><path d="M305.82,171.07s-10.72-6-17,.78l.33,1.75s6.55-5.5,16-.5Z" fill="#211e1f"/><path d="M304.62,168c-2.74,26.45,13.7,36.77,29.32,40,14.14,2.95,37.38-.2,42.67-14.66s3.13-35.21,3.13-35.21C356.75,155.41,314.76,157,304.62,168Zm2.53,3.31c2.45-10,53.38-14.14,66.29-10.74,5.21,1.37,4.29,19.91.12,32.27C369,206.36,350,207.29,337,206.12,314.62,204.1,304.06,184.05,307.15,171.35Z" fill="#211e1f"/><polygon points="379.53 167.12 419.72 167.43 423.38 165.03 378.17 162.87 379.53 167.12" fill="#211e1f"/><path d="M325.55,189.19s-5.39-9.82-3.6-19.48l-10.62,1.91s1,15.44,3.58,18.43Z" fill="#fff" opacity="0.3"/><path d="M263.42,198.28S256.1,186.38,258,175l-13.58,1.83s2,18.39,5.36,22.06Z" fill="#fff" opacity="0.3"/><path d="M201.72,606.21s5.76,14.68-4.64,45.09l16.21-27.61s-1.42-10.79-2.81-19.15Z" fill="#ed9469"/><polygon points="221.02 300.14 102.99 359.73 223.16 305.62 221.02 300.14" fill="#231f20" opacity="0.1"/><path d="M15.59,340.46s34.49,13.73,45,37.6L17.41,346Z" fill="#231f20" opacity="0.1"/><path d="M80.35,425.26s5.35-3.07,7.17-.69,6.31,7.21,6.17,12-8.22,7.45-14.13,9.12S80.35,425.26,80.35,425.26Z" fill="#f8a574"/><polygon points="72.85 432.21 77.68 440.69 89.85 436.27 84.47 426.98 72.85 432.21" fill="#ebbaa3"/><path d="M92.93,434.3S79.73,444,73.09,445.76s-25.52,12.31-31.21,16.85c0,0,36.76,2.78,49-6.84L69.63,458l-22.48,3.36s12.66-8,24.66-12.7S96.57,441.65,92.93,434.3Z" fill="#ed9469"/><path d="M297.55,206.37l-6.9,1.47a12,12,0,0,0-1.39,9.9s11.48-2.76,14.45-1.1,6.41.17,10-2.51a3,3,0,0,0,.58-4.24s6.19,7,4,10.22-12.34,2.84-14.19,4.65l-1.86,1.81s-1.14-1.29-4-1.44c-1.61-.08-3.75-.29-5.34-.45a4.07,4.07,0,0,1-3.3-2.35c-1.41-3.11-3.25-9.11.28-14.32l.44-.61Z" fill="#ec9369"/><path d="M301.43,222.81c-.26-.22,2.16-7.54,9.81-2.82,0,0,2.55,1.85,4,1.7,0,0-1.88.26-6.5-2C308.78,219.72,304.54,225.37,301.43,222.81Z" fill="#de6c40"/><path d="M291.64,221.29s3.54,4,4.54.54c.08-.29-2.92-6.41-5.74.5Z" fill="#de6c40"/></svg>