<svg xmlns="http://www.w3.org/2000/svg" xmlns:xlink="http://www.w3.org/1999/xlink" viewBox="0 0 743.76 1213.68"><defs><radialGradient id="a" cx="385.24" cy="227.95" fy="215.0196792217648" r="19.15" gradientUnits="userSpaceOnUse"><stop offset="0" stop-color="#36344a"/><stop offset="0.34" stop-color="#38364c"/><stop offset="0.51" stop-color="#403e54"/><stop offset="0.64" stop-color="#4d4b60"/><stop offset="0.75" stop-color="#605d72"/><stop offset="0.85" stop-color="#78758a"/><stop offset="0.94" stop-color="#9592a6"/><stop offset="1" stop-color="#aeaabe"/></radialGradient><radialGradient id="b" cx="-3252.67" cy="230.28" fy="217.35249520257395" r="19.15" gradientTransform="matrix(-1, 0, 0, 1, -2984.97, 0)" xlink:href="#a"/></defs><path d="M266.17,27.68c-22.2,16.41-9.77,39.14-5.71,45.37-5.36-7.47-29-37.35-54.26-22.8L195.84,57l65.75,17.67,12.1-51.53Z" fill="#e3e3e3" opacity="0.8"/><path d="M740.71,775l-.24.07c-2.4-47.75-10.78-133-39.94-184.52-35.64-62.93-182.38-83.07-242.8-88.77h0l0-.05c-.36-.86-.6-1.37-.6-1.37s-11-2.6-16.94-2.27-8.61,1.68-8.61,1.68l-2.87-102.35.91-.91c17.16-14.09,27.94-35,33.65-74.38,23.43,14.73,61.63-48.42,45.9-80.25-6.8-13.18-15.17-13.79-22.62-10,5.94-16.25,12.9-36.39,20.54-60.56,24.24-76.63-37.19-124.87-37.19-124.87C337.2-72.55,261.59,74.69,261.59,74.69,184.55,87,205,182.47,223.71,237.56c-8.69-7-20-10.51-28.46,6.41-15.43,32.14,23.87,95.25,47.1,79.54,3.74,17.41,10.3,37.06,21.72,54.95a16.26,16.26,0,0,0-2.63.41,11.53,11.53,0,0,0-2.39.78,17.36,17.36,0,0,0-6,4.18h0a10.56,10.56,0,0,0-1,1.18A43.55,43.55,0,0,1,265,405.88l-.83,25.8h0c-7.19,15.81-13.91,33-13.56,41.47.44,10.5-.1,23-.62,31.55C194.31,513.5,91.52,535.3,65.71,578.76c-25,42.16-34.87,129.63-38.52,178.63L21.7,759V793l20.75.46c0,6-.11,70,0,92,0,.68,0,1.29,0,1.84a121.12,121.12,0,0,0,13.79,54.39c12.37,23.61,30,54.91,43.77,69.56,10.31,11,26.41,18.15,41.48,21.68-2.58,16-5.31,32-8.16,47.75-20.53,113.52-28.66,125.3-28.66,125.3H601.32l-5.43-56.81c-3.11-36.8-8.62-75-9.38-112.39,2.73-.43,5.08-.73,7-.86a239.82,239.82,0,0,1,27.86-.39c20.35,1,38.52,4.73,55.29-36.07h0v0a268.74,268.74,0,0,0,11.23-35.33l0-.05V964c1.77-7,3.53-14.59,5.28-23,14.23-68.22,20.5-104.62,23-120.59.61-3.78,1.1-7.06,1.43-9.7,0-.33.07-.5.07-.5h4.57l21.51,0V777.75Z" fill="#231f20" opacity="0.1" style="isolation:isolate"/><path d="M406.37,391.84,410,512.18s-13.48,38.26-84.07,35.56-70.58-54.95-70.58-54.95V403.33Z" fill="#f8a574"/><path d="M362.51,425.09s25.17,2.13,26.33,37.24c0,.55,0,1.09,0,1.63.18,27.39-21.73,49.82-49.09,51.19-20.26,1-50.77-.3-71-14.35l-1.66,16.05s77.26,41.82,142.82-6.42l-3-106Z" fill="#ec9369"/><path d="M409.86,507.5S372.44,537.81,330,531.36l-.52,1.32s24,3.19,46.57-5.63S404.9,511.36,409.86,507.5Z" fill="#231f20" opacity="0.1"/><path d="M409.86,507.5s-59.75,57.85-145.32,0c0,0-184.64,18.56-220.53,79S3.49,800.31,3.49,800.31L150.61,804s-14.74,150.43-39,284.36C91.13,1201.9,83,1213.68,83,1213.68H579.62l-5.43-56.82c-3.79-44.95-11.19-92-9.11-137.07L581,818H719.72S721,672.77,678.83,598.29C633.65,518.49,409.86,507.5,409.86,507.5Z" fill="#ea4e25"/><path d="M409.86,507.5s2.68-1.34,8.61-1.67,16.95,2.26,16.95,2.26,12.3,26-4.95,30.63S409.86,507.5,409.86,507.5Z" fill="#ea4e25"/><path d="M435.42,508.09S390.83,548,322,550.22l-1.67,3.45s70.94,0,115.71-44.15Z" fill="#d74227"/><path d="M394.86,414.13s-27,32.28-98.63,18.73c0,0-24.6-3.82-29.43,22.75s9.82,71.21,9.82,71.21l-25.5-15.72,4.18-105.34Z" fill="#ec9369"/><path d="M215.26,260.19s-25.78-40.25-41.71-8.51C157.81,284.47,199,349.49,222,330.2Z" fill="#e48358"/><path d="M203.22,263.05s-11.85-10.78-16.43-11.59-13.47,14-9.7,34.76A39.32,39.32,0,0,0,183,299.15c5,7.39,22.09,15.36,22.09,15.36s-14.28-10.78-19.13-15.9-3.77-13.47-4.31-19.13,6.2-21,6.2-21S188.94,253.89,203.22,263.05Z" fill="#cc6a44"/><path d="M206.73,274.47s-9.16-4.31-13.47,4.85-2.16,16.71,2.42,19.94,10.24,8.89,14,12.93,7.27-1.34,5.93-5.38-7.82-7.82-8.89-11.05,3.5-4.88,4-10.52S206.73,274.47,206.73,274.47Z" fill="#cc6a44"/><path d="M210.87,201.57C207.91,93.74,319,76,404.55,109.67c34.72,17.78,55.63,69.71,50.62,105.57-10.95,78.42-23.48,206.13-120,202.29C209.31,412.51,217.57,307.1,210.87,201.57Z" fill="#f8a574"/><path d="M445.84,258.58s25.32-40.53,41.62-9c16.1,32.61-24.37,98.09-47.6,79.06Z" fill="#e48358"/><path d="M458.33,261.34s11.85-10.78,16.43-11.58,13.47,14,9.7,34.75a39.41,39.41,0,0,1-5.93,12.94c-5,7.39-22.09,15.35-22.09,15.35s14.28-10.77,19.13-15.89,3.77-13.47,4.31-19.13-6.2-21-6.2-21S472.61,252.18,458.33,261.34Z" fill="#cc6a44"/><path d="M454.82,272.77s9.16-4.31,13.47,4.85,2.16,16.7-2.42,19.94-10.24,8.89-14,12.93-7.28-1.35-5.93-5.39,7.82-7.81,8.89-11.05-3.5-4.88-4-10.52S454.82,272.77,454.82,272.77Z" fill="#cc6a44"/><path d="M305.8,243.23s.16-40.7,3.77-67.58c0,0-60.58-17.58-83.73,17,0,0,17,50.19,18.15,59.21S305.47,256.39,305.8,243.23Z" fill="#ed9469"/><path d="M358.1,245.39s-1-29.35-4.6-56.22c0,0,56.17-15.29,79.33,19.24,0,0-13.68,35.12-14.87,44.15S358.43,258.55,358.1,245.39Z" fill="#ed9469"/><path d="M349.75,295.7H308.37a17.53,17.53,0,0,1,5.66-8.88,9.23,9.23,0,0,1,5.92-2h18.52a9,9,0,0,1,6.46,2.51C346.81,289.31,349.08,292.3,349.75,295.7Z" fill="#ec9369"/><path d="M326,292c.26-.37-5.57-8.89-13.65,0,0,0-2,3.33-4,3.69,0,0,1.91-.36,7-4.94C315.4,290.76,323,296.46,326,292Z" fill="#de6c40"/><path d="M331.51,292c-.26-.37,5.57-8.89,13.65,0,0,0,2.61,3.33,4.59,3.69,0,0-2.52-.36-7.64-4.94C342.11,290.76,334.57,296.46,331.51,292Z" fill="#de6c40"/><path d="M341.51,272.1s-10-2-24.32,0C317.19,272.1,330,260.17,341.51,272.1Z" fill="#ec9369"/><path d="M447.84,195.93S444.07,327.17,420,375.31c0,0-6.82,22-25.14,38.82,0,0,30.67-12.67,44.33-76.18S447.84,195.93,447.84,195.93Z" fill="#ec9369"/><path d="M445.64,181.32s-8-39.41-41.8-50.42S270.7,113.2,217.06,167.13l2.85-13.47,22-21.57S298.4,98,367.64,109.65c0,0,43.57,9.18,57.85,22.29S445.64,181.32,445.64,181.32Z" fill="#ec9369"/><path d="M217.3,284.19S130.74,99.88,239.9,82.4c0,0,75.6-147.24,208.28-28.25,0,0,61.43,48.24,37.19,124.88s-41.56,112.81-41.56,112.81,14.56-98.49-6.42-145.19-169.37-61.07-217.48,7C219.91,153.66,205.83,207.51,217.3,284.19Z" fill="#682a14"/><path d="M241.93,132.09s38-80.32,161.27-39.52a72.45,72.45,0,0,1,49.49,74.9,152.4,152.4,0,0,1-4.51,25.14S446.35,137,415.2,125,332,87.72,241.93,132.09Z" fill="#4a1c10"/><path d="M241.93,132.09s-37.56-12.2-36.21,41.42,8.54,90.06,8.54,90.06-6.56-74.8,5.65-109.91Z" fill="#4a1c10"/><path d="M239.9,82.4s-3.53,35.59,8.9,39.06l-6.87,10.63s-12.86-4-19.89,1.16a17.48,17.48,0,0,0,11.41-13C235.72,109.83,239.9,82.4,239.9,82.4Z" fill="#4a1c10"/><path d="M357.23,228.53s-2,20.83,4.73,31.54,35.68,14.81,35.68,14.81-21.81-6.06-27.17-17.2c0,0,17.44,5.22,28.73.88C408.42,255,368.3,225.48,357.23,228.53Z" fill="#ed9469"/><path d="M306.23,230.5s2,20.83-4.73,31.55-35.69,14.81-35.69,14.81,21.82-6.07,27.18-17.21c0,0-17.44,5.22-28.73.88C255,257,295.16,227.45,306.23,230.5Z" fill="#ed9469"/><path d="M301.53,332.48a30.67,30.67,0,0,1,5.55-2.08c9.23-2.41,32.92-7.24,49.67,1.1a51,51,0,0,0,26,3.17s-57.8,5.76-100.22.5C282.51,335.17,295,335.64,301.53,332.48Z" fill="#ed9469"/><path d="M284.71,335.43a673.66,673.66,0,0,0,90.91-.14S330.75,378,284.71,335.43Z" fill="#ed9469"/><path d="M362.65,180.5c-6.32.19-12.22,6-14,14.34-.84,3.91-.47,7.12,3,7.16,7.19.06,30.86-8.13,52.81-6.82a39,39,0,0,1,23.47,10.11l13.16,11.57S429.8,191,421.29,184.53C414.79,179.56,379.15,180,362.65,180.5Z" fill="#682a14"/><path d="M358.1,245.39c-.18-.5-5.41-25.3,21-33.35s41,11.16,41.63,20.63-1.7,22.08-16,23.68a111,111,0,0,1-32.57-1.23S361.66,254.86,358.1,245.39Z" fill="#eadfd1"/><circle cx="385.24" cy="227.95" r="19.15" stroke="#36344a" stroke-miterlimit="10" fill="url(#a)"/><circle cx="385.24" cy="227.95" r="12.69" fill="#0e1221"/><circle cx="376.29" cy="220.15" r="3.72" fill="#fff"/><path d="M366.73,253.91s46.46,11.5,52.4-8.25l1.33-5.15s3.1,17.55-16.36,18.57S381.32,257.72,366.73,253.91Z" fill="#e88a67"/><path d="M420.46,240.51A25.36,25.36,0,0,1,400,256.62S418.58,257.9,420.46,240.51Z" fill="#edbfa9"/><path d="M299.29,159.49c6.32-.34,12.7,5,15.18,13.26,1.17,3.86,1.07,7.12-2.38,7.44-7.17.66-31.45-5.62-53.22-2.49-8.43,1.21-16.17,5.43-22.53,12.11l-12.12,12.72s9-26.89,17-34.14C247.24,162.85,282.81,160.36,299.29,159.49Z" fill="#682a14"/><path d="M305.26,247.3c.19-.5,5.42-25.3-21-33.34s-41,11.15-41.63,20.63,1.69,22.07,16,23.68A110.82,110.82,0,0,0,291.22,257S301.71,256.77,305.26,247.3Z" fill="#eadfd1"/><circle cx="267.7" cy="230.28" r="19.15" stroke="#36344a" stroke-miterlimit="10" fill="url(#b)"/><circle cx="267.7" cy="230.28" r="12.69" fill="#0e1221"/><circle cx="258.73" cy="222.48" r="3.72" fill="#fff"/><path d="M296.63,255.83s-46.45,11.49-52.4-8.26l-1.32-5.15S239.81,260,259.27,261,282.05,259.63,296.63,255.83Z" fill="#e88a67"/><path d="M242.91,242.42a25.35,25.35,0,0,0,20.5,16.12S244.79,259.81,242.91,242.42Z" fill="#edbfa9"/><path d="M445.64,283.49s-8.21,23.42-44.38,52.51-108.15,25.29-140.95,2.88-44.4-57.75-44.4-57.75-3.54,62.88,29.92,110.2c30.24,42.75,68.18,38.27,87.53,71.14,0,0,4.59-23.69,45.05-41.25C421.41,402.57,441.17,380.16,445.64,283.49Z" fill="#682a14"/><path d="M239.9,82.4s-21.38-27.83,4.57-47L252,30.88Z" fill="#682a14"/><path d="M239.9,82.4s-26.61-41-55.4-24.44l-10.36,6.77Z" fill="#682a14"/><path d="M328.88,75c.83-.11,81.58,26.86,93.21,77.93,0,0-35.48-46.24-130.29-64C291.8,88.91,313.57,76.92,328.88,75Z" fill="#682a14"/><polygon points="295.25 89.57 274.17 82.4 288.79 94.28 295.25 89.57" fill="#4a1c10"/><path d="M366.73,124.23s26.4,15.25,39.66,33.87c0,0-7.33-22.1-26.15-35.54Z" fill="#ec9369"/><path d="M394.5,325.88l-.5-.74h.07a47,47,0,0,0-10.84-11.23c-7.82-6.69-19.29-14.08-33.36-16.12H313.14c-14.07,2-25.54,9.43-33.36,16.12a47,47,0,0,0-10.84,11.23H269c-.3.46-.5.74-.5.74l-11.25,16.88L276,355.56l.3.69,1.32-9.55s2.85-14.85,10.41-15.32l42.12-5.69,41.68,5.57c1.59.1,3,.24,4.22.42a9.29,9.29,0,0,1,7.86,7.72h0L387,355.56l19.55-11.62Z" fill="#682a14"/><polygon points="337.95 295.7 329.46 305.07 320.31 295.7 337.95 295.7" fill="#ec9369"/><path d="M385.24,346s-2.76,25-6.66,34.34-38,12.5-38,12.5L350,355S374,341.9,385.24,346Z" fill="#f8a574"/><path d="M277.5,347.68s2.56,22.85,6.46,32.23,38,12.51,38,12.51l-9.4-37.52S288.73,343.62,277.5,347.68Z" fill="#f8a574"/><path d="M358.1,243.23s2.67-28.45,32.46-31.15,30.26,23,30.26,23,5.78-13-4-24.37-29.11-9.58-43.49-2.76S355.77,230.73,358.1,243.23Z" fill="#1e0d0b"/><path d="M305.26,245.14S302.59,216.7,272.81,214s-30.27,23-30.27,23-5.78-13,4-24.37,29.1-9.57,43.49-2.76S307.59,232.64,305.26,245.14Z" fill="#1e0d0b"/><path d="M284.71,335.43s48.69,4.72,90.24,0C375,335.43,336.55,344.36,284.71,335.43Z" fill="#be704b"/><path d="M100.28,950.5c14.25,1.34,40.81,46.12,40.81,46.12s-5,4.58,5.93,4.93c4.67.15,17.62,4,30.89,8.42a321.23,321.23,0,0,0,79.39,15.51l92.62,17.08a616.25,616.25,0,0,0,213.52,2.14c3.33-.56,6.15-.94,8.32-1.09a237.91,237.91,0,0,1,27.87-.38c27.22,1.31,50.54,7.59,71.83-94.48C692,850.06,696,818,696,818s-71.87-7.57-141.12-.64l-5.67,90.08S342.8,930.39,288,938.75s-98.69-17.81-98.69-17.81-36.55-32.63-43-36.36" fill="#f39c71"/><path d="M334.78,518.49s-17.44,40.59-22.56,49.71S301.49,590,301.49,590s-3.84,12.66-15.38,13c0,0,10.91-5.3,12-9.75s11.37-24.73,14-29.92S334.78,518.49,334.78,518.49Z" fill="#e2855c"/><path d="M226.84,935.42S210,969.86,194.45,987.78s-17.63,21.84-17.63,21.84,22.52-18.22,26.38-23.8C215.2,968.48,226.84,935.42,226.84,935.42Z" fill="#e28964"/><polygon points="281.95 939.31 541.75 896.21 553.35 796.02 549.19 908.82 281.95 939.31" fill="#d74227"/><path d="M150.61,701.44c2.22-4.46,5.31-51.32-9.52-67.65,0,0,7.41-.74,17.06,37.1l3,7.59Z" fill="#d74227"/><path d="M150.61,701.44s-.87-17.19-20.9-23.62c0,0,18.57,13.4,17.81,30.42Z" fill="#d74227"/><path d="M613.72,814.41s77.91.43,65.3,65-24.11,127.77-24.11,127.77l11.26-35.39s26-123,29.81-153.81C696,818,643.42,813.63,613.72,814.41Z" fill="#ea906b"/><path d="M566.6,816.49s-12.41-6.16-11.73,68.65l-3,24.24s18.45,4.86,27.33,29.93c0,0-18.35-26.08-39.79-29.38l9.74-1.11,3.69-91.51Z" fill="#e28964"/><path d="M366.58,377s23.07,17.64,26.69,18.9.56,14.45-19.67,11.48l-11-3.63s23.49,17.88,23.86,27.41-4.14,76.09-12,84.69-12.54,23.68-18,31.35-15.26,5.94-15.92,1.24-5.78-4.7-7.23,0-6.62,52.51-16.22,62.4-21.44,16.1-28.73,15.5S246.7,858.64,246.7,858.64V658.28l39.41-266.56S307.89,369.61,366.58,377Z" fill="#57290e" opacity="0.2"/><path d="M248.89,386.13s14.29-2.47,16.6,6.44l11.23-5.42-13.65,14.5s.08-12.93-14.18-14.46l-1.06-1.06Z" fill="#57290e" opacity="0.2"/><path d="M270.34,390.23l28.29-28.49,56.72,4.94s30.59,15.84,31.41,27.06S306.05,379,306.05,379Z" fill="#57290e" opacity="0.2"/><path d="M242.45,439.4l.83-25.81a43.54,43.54,0,0,0-12.86-20.86s6.92-10.12,20-5.3,12.69,14.22,12.69,14.22L259,406Z" fill="#ef996f"/><path d="M227.57,522.37s2.08-23.68,1.33-41.51S259,406,259,406l41-43.54,56.33,5.77s12.59,11.84,26,20.19-4,23-31.62,5.36c0,0-14.11,1.3-27.22-1.54,0,0-6.17,14.32-29.11,16.44,0,0,51.18-12,55.77-11.18s10.14,6.26,13.7,11.65,16.92,14.18,16.71,27.37-3.86,31.32-3.86,31.32,1.13,26.2-4.33,32c0,0,2,6.45-7.55,15.81s-18.42,19-18.42,19-13.13-2-10.15-12.64l-1.67-2.69s-12.27,34.79-22.32,49-7.88,28.55-26.11,34.78c0,0-30.4,131.4-37.81,238.7s-58.94,150.49-59.66,152.45-28,30.1-30.39,42.56-56.32,7.42-79.92-17.75C64.6,1004.3,46.94,973,34.57,949.38a120.87,120.87,0,0,1-13.71-61.29l-.11-87.35s3.86-.43,63.68,1.61l97.95-167.3S219.83,557.75,227.57,522.37Z" fill="#f39c71"/><path d="M294.34,408.64a131,131,0,0,1,21-23.88s20.37-4.33,48.32,1.55c0,0,9.36,11,23.19,9,0,0-4.35,16-36.18-1.61,0,0-10.46,1.78-27.22-1.54,0,0-5.87,13.89-29.11,16.44Z" fill="#ea906b"/><path d="M312.56,434.51c.88,0,27.37-12.31,40.55-11.89s21.38,19.16,21.38,19.16-2.9-10.06-16.4-9.76S312.56,434.51,312.56,434.51Z" fill="#ea906b"/><path d="M320.54,460s37.7-5.24,48.68-.19l4.38,9.52s-13.52-8-40.24-6.84Z" fill="#ea906b"/><path d="M334.78,518.49a15.66,15.66,0,0,0-2.87-15.63s10.64,6.65,6.47-4.92c0,0,4.63,6.31,10.13-5.1,0,0-2,7.41,9.21,5.28,0,0-7.6,8.55,2.85,11.82,0,0-21.74,15-14.21,24.61,0,0-13.05-2.18-10.15-12.64Z" fill="#e28964"/><path d="M277.63,435.73s4.38-8.36-3.06-14.17l75.54-24.1L269.72,417.3s-8.18-.85-18.33,14.07c0,0,10.2-7.3,16.69-8.55S277.5,430.74,277.63,435.73Z" fill="#ea906b"/><path d="M231.39,391.55s14.3-1.85,21,8.33c0,0,4.06,7.49.32,18.2L259,406l4.05-4.31s-1.19-11.07-11.78-13.86S237.56,386.14,231.39,391.55Z" fill="#ea906b"/><path d="M227.57,522.37s-25.76,54.49-102,209.71c0,0-75.37,95.07-81.75,170.19,0,0,16.82-51,41.23-92.23s45.68-46,78.33-117.55S226.15,548.72,227.57,522.37Z" fill="#ea906b"/><path d="M285.77,439.4s12.86.66,9.56,12.86C295.33,452.26,297,445,285.77,439.4Z" fill="#ea906b"/><path d="M312.56,463.45s13.07,6.61,8,16.51C320.54,480,322.54,475,312.56,463.45Z" fill="#ea906b"/><path d="M84.43,802.35s-55.56-2.87-57.54,62.43-6-34.6,0,0c0,0-6,51.46-6.14,28.38s0-92.42,0-92.42Z" fill="#ea906b"/><path d="M336.87,528.85s-1.58-8.08,4.64-11.67a67.77,67.77,0,0,0,11.29-8.41s-4.21-.87-2.11-6.18c0,0-2.49.64-2.84-3.59,0,0-2.11,4.45-5.32,4.08,0,0,2.85,5.94-4.45,6.93C338.08,510,334.31,523.83,336.87,528.85Z" fill="#ce7454"/><path d="M326,433.64s20.65-7.23,33.14-4.14c0,0,5.81,1.73,7.48,4a16.51,16.51,0,0,0-5.75-1.41C357.91,432,326,433.64,326,433.64Z" fill="#ce7454"/><path d="M333.36,462.47s17.46-3.51,29.45,0l5.26,4.43S356.65,461.81,333.36,462.47Z" fill="#ce7454"/><path d="M478.27,697.22h-10v-3.49a7.05,7.05,0,0,0-7-7H447.05a7.05,7.05,0,0,0-7,7v3.49H430a6.65,6.65,0,0,0-6.65,6.65v27.42a6.65,6.65,0,0,0,6.65,6.65h48.26a6.65,6.65,0,0,0,6.65-6.65V703.87A6.65,6.65,0,0,0,478.27,697.22Zm-32.87-3.49a1.7,1.7,0,0,1,1.71-1.71H461.3a1.7,1.7,0,0,1,1.71,1.71v3.36H445.4Zm34.14,36.35a2.54,2.54,0,0,1-2.54,2.54H431.28a2.54,2.54,0,0,1-2.53-2.54v-25a2.54,2.54,0,0,1,2.53-2.53h45.79a2.54,2.54,0,0,1,2.53,2.53v25Z" fill="#fff"/><polygon points="5.77 765.02 0 766.67 0 800.74 79.36 802.51 5.77 765.02" fill="#ea4e25"/><path d="M5.77,765,0,766.67s80.11,3.45,100.65.57C100.65,767.24,15.62,767.64,5.77,765Z" fill="#d74227"/><polygon points="719.01 782.74 722.07 785.47 722.07 817.99 700.55 817.96 719.01 782.74" fill="#ea4e25"/><path d="M719,782.74l3.06,2.73s-67.92-10.31-151.71-5c0,0,62.55-2,145.77,3Z" fill="#d74227"/><path d="M549.61,833.65s8.57-107,9.31-107.67,5.19-42.21,32.65-60.76c0,0-25.94,5-36,50.38,0,0-15.3-44.44-6-73.38,0,0-18.83,16.82-6.27,66,0,0-8.91-17.81-28.2-23.74,0,0,25.23,18.5,27.46,38.93S549.61,833.65,549.61,833.65Z" fill="#d74227"/></svg>