<svg id="Group_643" data-name="Group 643" xmlns="http://www.w3.org/2000/svg" width="262" height="143.992" viewBox="0 0 262 143.992">
  <rect id="Rectangle_290" data-name="Rectangle 290" width="207.05" height="132.604" transform="translate(53.845 0.117)" fill="#e6e6e6"/>
  <rect id="Rectangle_291" data-name="Rectangle 291" width="74.748" height="76.808" transform="translate(72.154 17.924)" fill="#fff"/>
  <rect id="Rectangle_292" data-name="Rectangle 292" width="74.748" height="93.287" transform="translate(174.859 19.413)" fill="#fff"/>
  <ellipse id="Ellipse_132" data-name="Ellipse 132" cx="13.39" cy="1.913" rx="13.39" ry="1.913" transform="translate(235.22 138.537)" fill="#e6e6e6"/>
  <ellipse id="Ellipse_133" data-name="Ellipse 133" cx="13.39" cy="1.913" rx="13.39" ry="1.913" transform="translate(101.351 138.58)" fill="#e6e6e6"/>
  <ellipse id="Ellipse_134" data-name="Ellipse 134" cx="30.73" cy="1.471" rx="30.73" ry="1.471" transform="translate(0 137.108)" fill="#e6e6e6"/>
  <rect id="Rectangle_293" data-name="Rectangle 293" width="207.05" height="8.796" transform="translate(53.757)" fill="#0288d1"/>
  <circle id="Ellipse_135" data-name="Ellipse 135" cx="1.63" cy="1.63" r="1.63" transform="translate(58.663 2.867)" fill="#e6e6e6"/>
  <circle id="Ellipse_136" data-name="Ellipse 136" cx="1.63" cy="1.63" r="1.63" transform="translate(64.852 2.867)" fill="#e6e6e6"/>
  <circle id="Ellipse_137" data-name="Ellipse 137" cx="1.63" cy="1.63" r="1.63" transform="translate(71.04 2.867)" fill="#e6e6e6"/>
  <path id="Path_1123" data-name="Path 1123" d="M848.5,309.386h-.453v-12.4a7.179,7.179,0,0,0-7.179-7.179h-26.28a7.179,7.179,0,0,0-7.179,7.179v68.05a7.179,7.179,0,0,0,7.179,7.179h26.28a7.179,7.179,0,0,0,7.179-7.179V318.215h.453Z" transform="translate(-615.369 -264.95)" fill="#3f3d56"/>
  <path id="Path_1124" data-name="Path 1124" d="M844.9,296.15h-3.43a2.547,2.547,0,0,1-2.358,3.509H824.06a2.547,2.547,0,0,1-2.359-3.509h-3.2a5.361,5.361,0,0,0-5.361,5.361v67.95a5.361,5.361,0,0,0,5.361,5.361H844.9a5.361,5.361,0,0,0,5.361-5.361v-67.95a5.362,5.362,0,0,0-5.361-5.361Z" transform="translate(-619.414 -269.429)" fill="#fff"/>
  <rect id="Rectangle_294" data-name="Rectangle 294" width="51.954" height="2.37" transform="translate(83.603 66.442)" fill="#e6e6e6"/>
  <rect id="Rectangle_295" data-name="Rectangle 295" width="51.954" height="2.37" transform="translate(83.603 74.093)" fill="#0288d1"/>
  <rect id="Rectangle_296" data-name="Rectangle 296" width="51.954" height="2.37" transform="translate(83.603 81.745)" fill="#e6e6e6"/>
  <rect id="Rectangle_297" data-name="Rectangle 297" width="30.33" height="2.37" transform="translate(197.416 71.612)" fill="#e6e6e6"/>
  <rect id="Rectangle_298" data-name="Rectangle 298" width="30.33" height="2.37" transform="translate(197.416 78.969)" fill="#e6e6e6"/>
  <rect id="Rectangle_299" data-name="Rectangle 299" width="30.33" height="2.37" transform="translate(197.416 86.326)" fill="#e6e6e6"/>
  <rect id="Rectangle_300" data-name="Rectangle 300" width="5.055" height="5.055" transform="translate(230.917 118.07) rotate(90)" fill="#3f3d56"/>
  <rect id="Rectangle_301" data-name="Rectangle 301" width="5.055" height="5.055" transform="translate(222.773 118.07) rotate(90)" fill="#0288d1"/>
  <rect id="Rectangle_302" data-name="Rectangle 302" width="5.055" height="5.055" transform="translate(214.629 118.07) rotate(90)" fill="#3f3d56"/>
  <rect id="Rectangle_303" data-name="Rectangle 303" width="5.055" height="5.055" transform="translate(206.485 118.07) rotate(90)" fill="#3f3d56"/>
  <rect id="Rectangle_304" data-name="Rectangle 304" width="5.055" height="5.055" transform="translate(198.341 118.07) rotate(90)" fill="#3f3d56"/>
  <rect id="Rectangle_305" data-name="Rectangle 305" width="16.85" height="16.85" transform="translate(203.862 40.902)" fill="#0288d1"/>
  <path id="Path_1125" data-name="Path 1125" d="M501.839,465.775l-.218.436-.654-3.272s-.872-3.49.872-3.49,1.309,3.49,1.309,3.49v2.4Z" transform="translate(-398.956 -384.673)" fill="#a0616a"/>
  <path id="Path_1126" data-name="Path 1126" d="M598.442,464.257l.218.436.654-3.271s.872-3.49-.872-3.49-1.309,3.49-1.309,3.49v2.4Z" transform="translate(-466.942 -383.602)" fill="#a0616a"/>
  <path id="Path_1127" data-name="Path 1127" d="M375.939,358.94l-2.617,16.14,1.308,15.7,3.053-1.308-.436-11.778,3.053-9.379.654,11.123L379.647,391l3.926.436,2.835-23.773-.218-8.07Z" transform="translate(-263.46 -253.31)" fill="#2f2e41"/>
  <path id="Path_1128" data-name="Path 1128" d="M533.4,665.3l-1.527,2.4v5.361a.65.65,0,0,0,.546.642c.748.123,2.051.21,2.507-.55.654-1.091.218-3.49.218-3.49a4.816,4.816,0,0,0,.436-3.053c-.436-1.309-.872-1.527-.872-1.527Z" transform="translate(-420.924 -529.793)" fill="#2f2e41"/>
  <path id="Path_1129" data-name="Path 1129" d="M553.022,672.714l.436.654s.654.654.218,1.091a8.52,8.52,0,0,0-.872,1.09s-2.4.654-2.4-.218V672.5Z" transform="translate(-434 -535.023)" fill="#2f2e41"/>
  <circle id="Ellipse_138" data-name="Ellipse 138" cx="2.891" cy="2.891" r="2.891" transform="translate(115.345 82.096)" fill="#a0616a"/>
  <path id="Path_1130" data-name="Path 1130" d="M394.662,291.867l-.218,4.144,3.926.218-.218-4.144Z" transform="translate(-278.366 -205.976)" fill="#a0616a"/>
  <path id="Path_1131" data-name="Path 1131" d="M539.9,507.6l-.619-1.512s-2.871-1.1-3.743-.014l-.436,1.309-3.49-.872-1.963,4.362L531.4,523.3s4.58,5.889,10.687.218l1.745-11.778-1.308-4.58Z" transform="translate(-419.355 -417.233)" fill="#575a89"/>
  <path id="Path_1132" data-name="Path 1132" d="M417.049,281.277l.436-.873,4.362-2.617,2.662-7.88,2.06.883-2.323,9.4-6.325,5.889Z" transform="translate(-294.319 -190.478)" fill="#575a89"/>
  <path id="Path_1133" data-name="Path 1133" d="M356.8,281.3l-.436-.436-4.58-2.835-3.272-6.543-2.617.872,2.835,8.07,6.98,5.671Z" transform="translate(-244.108 -191.592)" fill="#575a89"/>
  <path id="Path_1134" data-name="Path 1134" d="M551.464,476.388l.473-.236-.709-.236v-.236s-3.545-1.418-4.018.945a4.751,4.751,0,0,0,0,5.672v.709l3.782.473.473-1.418S553.827,477.806,551.464,476.388Z" transform="translate(-431.082 -395.828)" fill="#2f2e41"/>
  <path id="Path_1135" data-name="Path 1135" d="M261.785,565.16l-.84.42s-3.361,1.541-2.381,2.381,3.641-.84,3.641-.84l.56-.7Z" transform="translate(-227.916 -459.274)" fill="#ffb8b8"/>
  <path id="Path_1136" data-name="Path 1136" d="M169.23,359.1l-2.6,17.435-3.922,12.184-2.1-.98,1.961-16.666-5.6-4.762.42-7Z" transform="translate(-110.776 -253.423)" fill="#2f2e41"/>
  <path id="Path_1137" data-name="Path 1137" d="M320.3,662.177s2.381-1.26,2.521.56l-.28,1.821s.84,3.221-1.961,2.521-.84-2.8-.84-2.8Z" transform="translate(-270.742 -527.441)" fill="#2f2e41"/>
  <path id="Path_1138" data-name="Path 1138" d="M313.639,583.72l-1.821,1.541s0,9.523,1.261,10.924,9.243,8.543,9.523,8.823,1.541-2.8,1.541-2.8l-7.563-8.823.56-5.462Z" transform="translate(-265.625 -472.373)" fill="#2f2e41"/>
  <path id="Path_1139" data-name="Path 1139" d="M347.819,644.987s2.241-.42,2.241,1.12a33.911,33.911,0,0,0,.28,3.641s.56,4.9-1.26,4.2-2.521-5.6-2.521-5.6a2.086,2.086,0,0,1,.84-.98C347.959,647.087,347.819,644.987,347.819,644.987Z" transform="translate(-290.142 -515.572)" fill="#2f2e41"/>
  <path id="Path_1140" data-name="Path 1140" d="M162.458,288.424l.42,5.182-1.12,1.96-3.081-2.941-.28-3.921Z" transform="translate(-111.784 -203.546)" fill="#ffb8b8"/>
  <circle id="Ellipse_139" data-name="Ellipse 139" cx="3.361" cy="3.361" r="3.361" transform="translate(44.793 79.836)" fill="#ffb8b8"/>
  <path id="Path_1141" data-name="Path 1141" d="M158.315,295.817l1.4-4.061,2.521,2.8,4.622,17.786-3.5,2.1-1.54-2.241-.28,2.941-6.863-1.4-.56-18.767,1.4-1.971Z" transform="translate(-108.761 -205.897)" fill="#d0cde1"/>
  <path id="Path_1142" data-name="Path 1142" d="M147.286,318.727l-.84-22.688-1.821,1.4-3.361,2.241,2.241,7.983.7,8.4Z" transform="translate(-99.693 -208.92)" fill="#2f2e41"/>
  <path id="Path_1143" data-name="Path 1143" d="M122.093,308.552l-.981-.14-2.8,8.263-5.6,7,2.1,2.241,6.442-6.3,2.381-5.182Z" transform="translate(-79.541 -217.652)" fill="#2f2e41"/>
  <path id="Path_1144" data-name="Path 1144" d="M350.254,565.595l-.191.92s-.874,3.593.393,3.344,1.6-3.378,1.6-3.378l-.2-.874Z" transform="translate(-292.408 -459.581)" fill="#ffb8b8"/>
  <path id="Path_1145" data-name="Path 1145" d="M172.135,290.983l6.941,2.748-.84,8.4,1.681,9.243-1.681,1.82-6.214-21.025Z" transform="translate(-121.399 -205.352)" fill="#2f2e41"/>
  <path id="Path_1146" data-name="Path 1146" d="M309.285,467.7l.987-.493v.493l.658-.329v.822S313.4,470,312.9,472.138s-.493,2.3-.493,2.3-.624-4.065-3.09-3.407-2.665.777-3.323,2.585l-.178.776S303.037,468.027,309.285,467.7Z" transform="translate(-260.955 -390.146)" fill="#2f2e41"/>
  <path id="Path_1147" data-name="Path 1147" d="M189.975,300.322h1.12l1.821,9.8v8.543l-2.241-.42-1.821-12.885Z" transform="translate(-133.278 -211.943)" fill="#2f2e41"/>
  <rect id="Rectangle_306" data-name="Rectangle 306" width="41.294" height="28.696" transform="translate(1.04 109.112)" fill="#0288d1"/>
  <path id="Path_1148" data-name="Path 1148" d="M207.565,595.148a8.749,8.749,0,1,0,8.749,8.749A8.749,8.749,0,0,0,207.565,595.148Zm0,2.625a2.625,2.625,0,1,1-2.625,2.625A2.625,2.625,0,0,1,207.565,597.773Zm0,12.635a6.374,6.374,0,0,1-5.249-2.8c.042-1.75,3.5-2.713,5.249-2.713s5.207.963,5.249,2.713A6.384,6.384,0,0,1,207.565,610.408Z" transform="translate(-185.877 -480.438)" fill="#fff"/>
  <rect id="Rectangle_307" data-name="Rectangle 307" width="51.794" height="29.722" transform="translate(83.631 26.752)" fill="#e6e6e6"/>
  <path id="Path_1149" data-name="Path 1149" d="M959.467,484.819l.24-1.548s1.4-3.18.293-3.351-2.028,2.856-2.028,2.856l.4,3.233Z" transform="translate(-721.627 -399.114)" fill="#ffb8b8"/>
  <path id="Path_1150" data-name="Path 1150" d="M813.242,298.491l-9.882-1.985-1.148-7.2-2.909-.224.142,9.306,8.586,4.5Z" transform="translate(-564.082 -204.012)" fill="#575a89"/>
  <path id="Path_1151" data-name="Path 1151" d="M813.242,298.491l-9.882-1.985-1.148-7.2-2.909-.224.142,9.306,8.586,4.5Z" transform="translate(-564.082 -204.012)" opacity="0.2"/>
  <rect id="Rectangle_308" data-name="Rectangle 308" width="30.33" height="2.37" transform="translate(252.605 83.801) rotate(180)" fill="#0288d1"/>
  <path id="Path_1152" data-name="Path 1152" d="M952.2,482.974l0-1.566s.9-3.355-.219-3.357-1.57,3.131-1.57,3.131l.891,3.134Z" transform="translate(-716.294 -397.8)" fill="#ffb8b8"/>
  <path id="Path_1153" data-name="Path 1153" d="M989.447,488.248l1.356-.331a3.491,3.491,0,0,0,3.426-4.182h0a4.563,4.563,0,0,0-4.557-4.568h0a4.563,4.563,0,0,0-4.568,4.557h0a3.626,3.626,0,0,0,4.343,4.524Z" transform="translate(-740.676 -398.588)" fill="#2f2e41"/>
  <path id="Path_1154" data-name="Path 1154" d="M818.254,377.178l1.1,12.085,2,11.862,3.357,0-.433-11.637-1.773-14.1Z" transform="translate(-577.457 -264.922)" fill="#2f2e41"/>
  <path id="Path_1155" data-name="Path 1155" d="M972.619,665.9l-2.239,1.34s-3.581.443-2.911,1.563,8.5.458,8.5.011-.22-2.909-.668-2.91Z" transform="translate(-728.27 -530.371)" fill="#2f2e41"/>
  <path id="Path_1156" data-name="Path 1156" d="M986.23,577.728a10.551,10.551,0,0,1-1.633,4.411l.213,8.28,8.043,10.3-2.912,2.458-9.832-11.2-2.445-13.429,3.137-3.129Z" transform="translate(-735.525 -466.516)" fill="#2f2e41"/>
  <path id="Path_1157" data-name="Path 1157" d="M1019.248,661.394s2.685.451,2.236,1.569-1.574,6.263-4.482,5.589c0,0-1.343,0-.894-.9a16.157,16.157,0,0,1,.9-1.565l0-2.909Z" transform="translate(-762.59 -527.188)" fill="#2f2e41"/>
  <circle id="Ellipse_140" data-name="Ellipse 140" cx="3.357" cy="3.357" r="3.357" transform="translate(243.963 83.174)" fill="#ffb8b8"/>
  <path id="Path_1158" data-name="Path 1158" d="M837.131,301.643l0,3.8-3.58,0,.452-3.8Z" transform="translate(-588.248 -212.872)" fill="#ffb8b8"/>
  <path id="Path_1159" data-name="Path 1159" d="M975.635,514.708l1.085-.267,3.391.272s1.788,1.792,1.563,2.24-1.357,11.411-1.357,11.411l2,7.834-7.161.439-3.58-.452.689-14.1s-1.562-3.806.454-4.922a8.817,8.817,0,0,0,2.912-2.458Z" transform="translate(-731.231 -423.481)" fill="#575a89"/>
  <path id="Path_1160" data-name="Path 1160" d="M807.725,295.311l-10.069-.46-2.229-6.939-2.909.22,1.555,9.177,9.171,3.144Z" transform="translate(-559.294 -203.184)" fill="#575a89"/>
  <circle id="Ellipse_141" data-name="Ellipse 141" cx="2.166" cy="2.166" r="2.166" transform="translate(251.633 79.727)" fill="#2f2e41"/>
  <path id="Path_1161" data-name="Path 1161" d="M1009.295,474.091a2.165,2.165,0,0,1,2.592-2.12,2.165,2.165,0,1,0-1.35,4.079,2.163,2.163,0,0,1-1.242-1.959Z" transform="translate(-757.495 -393.362)" fill="#2f2e41"/>
  <path id="Path_1162" data-name="Path 1162" d="M987.964,482.558l-2.92-.538-2.245,1.407a3.405,3.405,0,0,0-1.569,3.324l2.249-.57.5-1.263.6.983,2.433,4.254,2.463-1.339,1.569-2.46Z" transform="translate(-738.021 -400.601)" fill="#2f2e41"/>
  <rect id="Rectangle_309" data-name="Rectangle 309" width="0.588" height="59.716" transform="translate(83.485 27.008) rotate(-60.15)" fill="#fff"/>
  <rect id="Rectangle_310" data-name="Rectangle 310" width="59.716" height="0.588" transform="matrix(0.867, -0.498, 0.498, 0.867, 83.483, 56.218)" fill="#fff"/>
  <rect id="Rectangle_311" data-name="Rectangle 311" width="0.589" height="23.722" transform="translate(203.786 41.085) rotate(-45)" fill="#fff"/>
  <rect id="Rectangle_312" data-name="Rectangle 312" width="23.722" height="0.589" transform="translate(203.786 57.443) rotate(-45)" fill="#fff"/>
</svg>
