<svg xmlns="http://www.w3.org/2000/svg" xmlns:xlink="http://www.w3.org/1999/xlink" viewBox="0 0 24 24" width="24px" height="24px">
<g>
<path style=" stroke:none;fill-rule:nonzero;fill:rgb(100%,100%,100%);fill-opacity:1;" d="M 20.480469 2.492188 C 20.445312 2.492188 20.40625 2.496094 20.371094 2.5 L 14 2.5 C 13.640625 2.496094 13.304688 2.683594 13.121094 2.996094 C 12.941406 3.308594 12.941406 3.691406 13.121094 4.003906 C 13.304688 4.316406 13.640625 4.503906 14 4.5 L 18.085938 4.5 L 11.292969 11.292969 C 11.03125 11.542969 10.925781 11.917969 11.019531 12.265625 C 11.109375 12.617188 11.382812 12.890625 11.734375 12.980469 C 12.082031 13.074219 12.457031 12.96875 12.707031 12.707031 L 19.5 5.914062 L 19.5 10 C 19.496094 10.359375 19.683594 10.695312 19.996094 10.878906 C 20.308594 11.058594 20.691406 11.058594 21.003906 10.878906 C 21.316406 10.695312 21.503906 10.359375 21.5 10 L 21.5 3.625 C 21.539062 3.332031 21.449219 3.039062 21.253906 2.820312 C 21.054688 2.601562 20.773438 2.480469 20.480469 2.492188 Z M 6.25 4 C 4.191406 4 2.5 5.691406 2.5 7.75 L 2.5 17.75 C 2.5 19.808594 4.191406 21.5 6.25 21.5 L 16.25 21.5 C 18.308594 21.5 20 19.808594 20 17.75 L 20 13 C 20.003906 12.640625 19.816406 12.304688 19.503906 12.121094 C 19.191406 11.941406 18.808594 11.941406 18.496094 12.121094 C 18.183594 12.304688 17.996094 12.640625 18 13 L 18 17.75 C 18 18.722656 17.222656 19.5 16.25 19.5 L 6.25 19.5 C 5.277344 19.5 4.5 18.722656 4.5 17.75 L 4.5 7.75 C 4.5 6.777344 5.277344 6 6.25 6 L 11 6 C 11.359375 6.003906 11.695312 5.816406 11.878906 5.503906 C 12.058594 5.191406 12.058594 4.808594 11.878906 4.496094 C 11.695312 4.183594 11.359375 3.996094 11 4 Z M 6.25 4 "/>
</g>
</svg>
