<svg width="300" height="330" viewBox="0 0 300 330" fill="none" xmlns="http://www.w3.org/2000/svg">
<g clip-path="url(#clip0_13_1239)">
<path d="M134.99 80H274.99V190H134.99V80Z" fill="#CCCCCC"/>
<path d="M25 274H281L237.5 217H64.5L25 274Z" fill="#CCCCCC"/>
<path d="M261 233.205C261 345.595 169.89 436.705 57.5 436.705C-54.8899 436.705 -146 345.595 -146 233.205C-146 120.815 -54.8899 29.7051 57.5 29.7051C169.89 29.7051 261 120.815 261 233.205Z" fill="#C3F2FC"/>
<path fill-rule="evenodd" clip-rule="evenodd" d="M256.404 190H134.99V80L191.446 80C223.732 108.25 247.009 146.541 256.404 190Z" fill="#9CC2CA"/>
<path d="M105 192C105 214.644 86.6437 233 64 233C41.3563 233 23 214.644 23 192C23 169.356 41.3563 151 64 151C86.6437 151 105 169.356 105 192Z" fill="#44AF8F"/>
<path fill-rule="evenodd" clip-rule="evenodd" d="M256.91 274H25L64.5 217H237.5L260.528 247.175C259.91 256.294 258.691 265.249 256.91 274Z" fill="#9CC2CA"/>
<path d="M264.099 266.124L265.013 264.524C265.477 263.712 265.721 262.793 265.721 261.857L19.4278 261.5L20.9209 265.756C21.0069 266.001 21.1101 266.241 21.2589 266.453C22.0553 267.593 23.3629 268.282 24.7691 268.282H260.38C261.917 268.282 263.336 267.458 264.099 266.124Z" fill="#E2FBFF"/>
<path d="M56 110.567C56 105.835 59.8355 102 64.5667 102H224.433C229.165 102 233 105.835 233 110.567V212.717C233 215.082 231.082 217 228.717 217H60.2834C57.9177 217 56 215.082 56 212.717V110.567Z" fill="#E2FBFF"/>
<path d="M224 187H233V190H224V187Z" fill="#B5C9CC"/>
<path fill-rule="evenodd" clip-rule="evenodd" d="M53.75 110.567C53.75 105.697 57.6974 101.75 62.5667 101.75H222.433C227.303 101.75 231.25 105.697 231.25 110.567V212.717C231.25 215.22 229.22 217.25 226.717 217.25H58.2834C55.7797 217.25 53.75 215.22 53.75 212.717V110.567ZM62.5667 102.25C57.9735 102.25 54.25 105.974 54.25 110.567V212.717C54.25 214.944 56.0558 216.75 58.2834 216.75H226.717C228.944 216.75 230.75 214.944 230.75 212.717V110.567C230.75 105.974 227.026 102.25 222.433 102.25H62.5667Z" fill="#010060"/>
<path d="M60.9899 111H223.99V214H60.9899V111Z" fill="white"/>
<path d="M135 187H224V190H135V187Z" fill="#CCCCCC"/>
<path fill-rule="evenodd" clip-rule="evenodd" d="M60.7399 110.75H224.24V214.25H60.7399V110.75ZM61.2399 111.25V213.75H223.74V111.25H61.2399Z" fill="#010060"/>
<path d="M19.6977 260.72C18.9965 261.661 19.6687 263 20.843 263H264.157C265.331 263 266.003 261.661 265.302 260.72L234.038 218.725C233.23 217.64 231.956 217 230.602 217H54.3975C53.044 217 51.7701 217.64 50.9618 218.725L19.6977 260.72Z" fill="white"/>
<path fill-rule="evenodd" clip-rule="evenodd" d="M19.1897 261.867C19.1111 261.438 19.1971 260.973 19.4972 260.57L50.7613 218.576C51.6167 217.427 52.965 216.75 54.3976 216.75H230.602C232.035 216.75 233.383 217.427 234.239 218.576L265.503 260.57C265.743 260.893 265.846 261.255 265.837 261.607L265.971 261.607V261.857C265.971 262.836 265.716 263.798 265.23 264.648L264.316 266.248C263.509 267.66 262.007 268.532 260.38 268.532H24.7691C23.2808 268.532 21.8969 267.802 21.0539 266.596C20.8864 266.357 20.7742 266.092 20.685 265.838L19.4018 262.431C19.2993 262.259 19.2271 262.068 19.1903 261.87L19.189 261.867H19.1897ZM20.1313 263.095L21.1568 265.672C21.2395 265.908 21.3338 266.124 21.4637 266.31C22.2136 267.383 23.4449 268.032 24.7691 268.032H260.38C261.827 268.032 263.164 267.256 263.882 265.999L264.796 264.4C265.098 263.872 265.302 263.295 265.402 262.699C265.104 263.031 264.672 263.25 264.157 263.25H20.843C20.5824 263.25 20.3429 263.194 20.1313 263.095ZM19.8983 260.869C19.3198 261.646 19.8744 262.75 20.843 262.75H264.157C265.126 262.75 265.68 261.646 265.102 260.869L233.838 218.875C233.077 217.852 231.877 217.25 230.602 217.25H54.3976C53.123 217.25 51.9235 217.852 51.1623 218.875L19.8983 260.869Z" fill="#010060"/>
<path d="M59.6698 220.44C59.8409 220.166 60.141 220 60.4638 220H68.9675C69.6543 220 70.1074 220.715 69.8142 221.336L68.8098 223.463C68.6552 223.791 68.3254 224 67.9631 224H59.1342C58.3988 224 57.9504 223.191 58.3402 222.567L59.6698 220.44Z" fill="#010060"/>
<path d="M56.1698 225.44C56.3409 225.166 56.641 225 56.9638 225H72.9394C73.6331 225 74.0859 225.728 73.7791 226.35L72.7303 228.478C72.5726 228.798 72.247 229 71.8905 229H55.6342C54.8988 229 54.4504 228.191 54.8402 227.567L56.1698 225.44Z" fill="#010060"/>
<path d="M52.6698 230.44C52.8409 230.166 53.141 230 53.4638 230H73.9175C74.6165 230 75.069 230.738 74.7519 231.361L73.6687 233.489C73.5089 233.802 73.1865 234 72.8344 234H52.1342C51.3988 234 50.9504 233.191 51.3402 232.567L52.6698 230.44Z" fill="#010060"/>
<path d="M49.6721 235.455C49.8413 235.173 50.1461 235 50.475 235H66.755C67.4905 235 67.9388 235.809 67.5488 236.433L65.5929 239.56C65.4218 239.834 65.1218 240 64.7991 240H48.5985C47.8708 240 47.4212 239.206 47.7957 238.582L49.6721 235.455Z" fill="#010060"/>
<path d="M45.8129 241.404C45.9878 241.151 46.2757 241 46.5832 241H62.78C63.5102 241 63.9594 241.799 63.5801 242.423L61.0711 246.55C60.9013 246.829 60.598 247 60.271 247H43.7302C42.9753 247 42.5308 246.152 42.96 245.531L45.8129 241.404Z" fill="#010060"/>
<path d="M66.5286 241.48C66.6941 241.184 67.0068 241 67.346 241H77.0617C77.7242 241 78.1771 241.669 77.931 242.284L76.2794 246.412C76.1372 246.767 75.7929 247 75.4101 247H65.0404C64.3255 247 63.8743 246.231 64.223 245.607L66.5286 241.48Z" fill="#010060"/>
<path d="M80.7914 241.565C80.9395 241.222 81.2773 241 81.651 241H91.145C91.7843 241 92.2356 241.627 92.0331 242.233L90.6547 246.36C90.5271 246.742 90.1694 247 89.7666 247H79.8689C79.1957 247 78.7425 246.311 79.0094 245.693L80.7914 241.565Z" fill="#010060"/>
<path d="M76.0799 225.537C76.2346 225.209 76.5644 225 76.9266 225H84.9675C85.6543 225 86.1074 225.715 85.8142 226.336L84.8098 228.463C84.6552 228.791 84.3254 229 83.9631 229H75.9223C75.2355 229 74.7824 228.285 75.0756 227.664L76.0799 225.537Z" fill="#010060"/>
<path d="M72.0799 220.537C72.2346 220.209 72.5644 220 72.9266 220H80.9675C81.6543 220 82.1074 220.715 81.8142 221.336L80.8098 223.463C80.6552 223.791 80.3254 224 79.9631 224H71.9223C71.2355 224 70.7824 223.285 71.0756 222.664L72.0799 220.537Z" fill="#010060"/>
<path d="M88.0509 225.542C88.2044 225.211 88.5357 225 88.9 225H97.9777C98.662 225 99.1151 225.71 98.8269 226.331L97.8389 228.458C97.6854 228.789 97.3541 229 96.9897 229H87.912C87.2278 229 86.7746 228.29 87.0629 227.669L88.0509 225.542Z" fill="#010060"/>
<path d="M76.9973 230.552C77.1486 230.216 77.4827 230 77.8511 230H86.9965C87.676 230 88.1292 230.701 87.8503 231.321L86.8924 233.448C86.7412 233.784 86.407 234 86.0387 234H76.8932C76.2137 234 75.7605 233.299 76.0395 232.679L76.9973 230.552Z" fill="#010060"/>
<path d="M69.9777 235.479C70.1433 235.183 70.4557 235 70.7945 235H79.8472C80.5626 235 81.0137 235.77 80.664 236.394L78.9121 239.521C78.7465 239.817 78.4341 240 78.0952 240H69.0426C68.3272 240 67.8761 239.23 68.2257 238.606L69.9777 235.479Z" fill="#010060"/>
<path d="M100.533 225.647C100.659 225.261 101.018 225 101.424 225H109.157C109.793 225 110.243 225.62 110.047 226.225L109.356 228.353C109.231 228.739 108.872 229 108.466 229H100.733C100.097 229 99.6463 228.38 99.8427 227.775L100.533 225.647Z" fill="#010060"/>
<path d="M83.9164 220.567C84.064 220.223 84.4024 220 84.7769 220H93.0248C93.697 220 94.1502 220.687 93.8853 221.305L92.9733 223.433C92.8258 223.777 92.4873 224 92.1128 224H83.8649C83.1927 224 82.7395 223.313 83.0044 222.695L83.9164 220.567Z" fill="#010060"/>
<path d="M112.472 225.661C112.593 225.268 112.956 225 113.367 225H122.177C122.807 225 123.257 225.61 123.072 226.212L122.417 228.339C122.296 228.732 121.934 229 121.522 229H112.713C112.083 229 111.632 228.39 111.818 227.788L112.472 225.661Z" fill="#010060"/>
<path d="M89.3137 230.698C89.4219 230.287 89.7938 230 90.2191 230H99.2304C99.8443 230 100.292 230.581 100.136 231.175L99.5761 233.302C99.4679 233.713 99.096 234 98.6706 234H89.6594C89.0455 234 88.5977 233.419 88.7539 232.825L89.3137 230.698Z" fill="#010060"/>
<path d="M82.342 235.568C82.4894 235.223 82.828 235 83.2027 235H93.0257C93.6977 235 94.1508 235.687 93.8864 236.305L92.5478 239.432C92.4003 239.777 92.0617 240 91.687 240H81.8641C81.1921 240 80.7389 239.313 81.0033 238.695L82.342 235.568Z" fill="#010060"/>
<path d="M124.597 225.89C124.622 225.392 125.033 225 125.533 225H133.462C133.997 225 134.423 225.448 134.397 225.982L134.292 228.11C134.268 228.608 133.856 229 133.357 229H125.428C124.893 229 124.467 228.552 124.493 228.018L124.597 225.89Z" fill="#010060"/>
<path d="M95.6406 220.624C95.773 220.25 96.1266 220 96.5232 220H105.12C105.766 220 106.218 220.64 106.003 221.249L105.249 223.376C105.117 223.75 104.763 224 104.367 224H95.7697C95.1233 224 94.6714 223.36 94.8872 222.751L95.6406 220.624Z" fill="#010060"/>
<path d="M137 225.936C137 225.419 137.419 225 137.936 225H146.064C146.581 225 147 225.419 147 225.936L147 228.064C147 228.581 146.581 229 146.064 229H137.936C137.419 229 137 228.581 137 228.064L137 225.936Z" fill="#010060"/>
<path d="M101.422 230.673C101.539 230.274 101.905 230 102.32 230H112.194C112.819 230 113.269 230.6 113.093 231.2L112.468 233.327C112.351 233.726 111.985 234 111.57 234H101.696C101.071 234 100.621 233.4 100.797 232.8L101.422 230.673Z" fill="#010060"/>
<path d="M95.2887 235.576C95.4341 235.227 95.775 235 96.153 235H104.624C105.254 235 105.704 235.608 105.52 236.21L104.563 239.338C104.443 239.731 104.08 240 103.668 240H94.8495C94.1813 240 93.7282 239.32 93.9852 238.704L95.2887 235.576Z" fill="#010060"/>
<path d="M107.381 220.682C107.495 220.279 107.863 220 108.282 220H116.208C116.829 220 117.278 220.593 117.109 221.19L116.509 223.318C116.395 223.721 116.027 224 115.608 224H107.682C107.061 224 106.612 223.407 106.781 222.81L107.381 220.682Z" fill="#010060"/>
<path d="M114.147 230.739C114.24 230.308 114.621 230 115.062 230H124.286C124.882 230 125.326 230.55 125.201 231.133L124.743 233.261C124.65 233.692 124.269 234 123.828 234H114.604C114.008 234 113.563 233.45 113.689 232.867L114.147 230.739Z" fill="#010060"/>
<path d="M107.172 235.777C107.25 235.328 107.639 235 108.095 235H117.334C117.914 235 118.355 235.523 118.256 236.095L117.718 239.223C117.64 239.672 117.251 240 116.795 240H107.556C106.976 240 106.535 239.477 106.634 238.905L107.172 235.777Z" fill="#010060"/>
<path d="M118.613 220.886C118.64 220.389 119.05 220 119.548 220H128.457C128.994 220 129.421 220.451 129.392 220.987L129.277 223.114C129.25 223.611 128.839 224 128.342 224H119.433C118.896 224 118.469 223.549 118.498 223.013L118.613 220.886Z" fill="#010060"/>
<path d="M126.613 230.886C126.64 230.389 127.05 230 127.548 230H136.457C136.994 230 137.421 230.451 137.392 230.987L137.277 233.114C137.25 233.611 136.839 234 136.342 234H127.433C126.896 234 126.469 233.549 126.498 233.013L126.613 230.886Z" fill="#010060"/>
<path d="M119.638 235.892C119.662 235.393 120.074 235 120.574 235H130.463C130.998 235 131.424 235.447 131.399 235.98L131.251 239.108C131.228 239.607 130.816 240 130.316 240H120.426C119.892 240 119.466 239.553 119.491 239.02L119.638 235.892Z" fill="#010060"/>
<path d="M130.445 220.936C130.445 220.419 130.864 220 131.381 220H140.509C141.026 220 141.445 220.419 141.445 220.936L141.445 223.064C141.445 223.581 141.026 224 140.509 224H131.381C130.864 224 130.445 223.581 130.445 223.064L130.445 220.936Z" fill="#010060"/>
<path d="M139.445 230.936C139.445 230.419 139.864 230 140.381 230H149.509C150.026 230 150.445 230.419 150.445 230.936L150.445 233.064C150.445 233.581 150.026 234 149.509 234H140.381C139.864 234 139.445 233.581 139.445 233.064L139.445 230.936Z" fill="#010060"/>
<path d="M133.445 235.936C133.445 235.419 133.864 235 134.381 235H143.509C144.026 235 144.445 235.419 144.445 235.936L144.445 239.064C144.445 239.581 144.026 240 143.509 240H134.381C133.864 240 133.445 239.581 133.445 239.064L133.445 235.936Z" fill="#010060"/>
<path d="M229.79 220.452C229.62 220.171 229.317 220 228.989 220L214.936 220C214.246 220 213.793 220.721 214.092 221.343L215.118 223.47C215.274 223.794 215.602 224 215.961 224L230.276 224C231.006 224 231.455 223.203 231.077 222.579L229.79 220.452Z" fill="#010060"/>
<path d="M239.511 235.43C239.338 235.162 239.041 235 238.723 235L210.873 235C210.199 235 209.745 235.691 210.014 236.31L211.374 239.437C211.523 239.779 211.86 240 212.233 240L240.731 240C241.471 240 241.919 239.181 241.519 238.558L239.511 235.43Z" fill="#010060"/>
<path d="M244.722 243.425C244.549 243.16 244.254 243 243.938 243L232.788 243C232.137 243 231.684 243.649 231.91 244.26L232.694 246.388C232.83 246.756 233.181 247 233.573 247L245.326 247C246.07 247 246.517 246.175 246.11 245.552L244.722 243.425Z" fill="#010060"/>
<path d="M215.195 243.612C215.06 243.244 214.709 243 214.317 243L203.788 243C203.137 243 202.684 243.649 202.91 244.26L203.694 246.388C203.83 246.756 204.181 247 204.573 247L215.102 247C215.753 247 216.206 246.351 215.98 245.74L215.195 243.612Z" fill="#010060"/>
<path d="M208.235 235.589C208.093 235.233 207.749 235 207.366 235L198.291 235C197.654 235 197.203 235.622 197.401 236.227L198.424 239.355C198.55 239.74 198.909 240 199.314 240L208.617 240C209.279 240 209.732 239.331 209.486 238.716L208.235 235.589Z" fill="#010060"/>
<path d="M199.998 241.69C199.887 241.283 199.517 241 199.095 241L189.67 241C189.053 241 188.605 241.587 188.767 242.183L189.892 246.31C190.003 246.717 190.373 247 190.795 247L200.219 247C200.837 247 201.285 246.413 201.123 245.817L199.998 241.69Z" fill="#010060"/>
<path d="M187.483 241.767C187.401 241.323 187.014 241 186.562 241L173.569 241C172.984 241 172.542 241.53 172.648 242.106L173.407 246.233C173.488 246.677 173.876 247 174.327 247L187.321 247C187.906 247 188.347 246.47 188.242 245.894L187.483 241.767Z" fill="#010060"/>
<path d="M170.485 241.767C170.403 241.323 170.016 241 169.564 241L94.731 241C94.3048 241 93.9323 241.288 93.8249 241.7L92.7501 245.828C92.5957 246.421 93.0433 247 93.6562 247L170.321 247C170.906 247 171.348 246.47 171.242 245.895L170.485 241.767Z" fill="#010060"/>
<path d="M233.019 225.435C232.848 225.164 232.549 225 232.228 225H222.921C222.234 225 221.781 225.714 222.074 226.335L223.109 228.534C223.264 228.862 223.594 229.071 223.956 229.071H225.886C226.24 229.071 226.563 229.27 226.722 229.586L228.685 233.485C228.845 233.801 229.168 234 229.522 234H236.743C237.481 234 237.929 233.186 237.534 232.563L233.019 225.435Z" fill="#010060"/>
<path d="M219.81 225.537C219.655 225.209 219.325 225 218.963 225H210.922C210.235 225 209.782 225.715 210.076 226.336L211.08 228.463C211.235 228.791 211.564 229 211.927 229H219.967C220.654 229 221.107 228.285 220.814 227.664L219.81 225.537Z" fill="#010060"/>
<path d="M211.81 220.537C211.655 220.209 211.325 220 210.963 220H202.922C202.235 220 201.782 220.715 202.076 221.336L203.08 223.463C203.235 223.791 203.564 224 203.927 224H211.967C212.654 224 213.107 223.285 212.814 222.664L211.81 220.537Z" fill="#010060"/>
<path d="M207.073 225.587C206.931 225.232 206.587 225 206.205 225L198.83 225C198.167 225 197.714 225.67 197.961 226.285L198.816 228.413C198.959 228.768 199.303 229 199.685 229H207.06C207.723 229 208.176 228.33 207.928 227.715L207.073 225.587Z" fill="#010060"/>
<path d="M225.89 230.552C225.738 230.216 225.404 230 225.036 230L215.894 230C215.214 230 214.761 230.702 215.041 231.321L216 233.448C216.151 233.784 216.485 234 216.853 234L225.996 234C226.675 234 227.129 233.298 226.849 232.679L225.89 230.552Z" fill="#010060"/>
<path d="M228.37 241.601C228.231 241.239 227.884 241 227.496 241L217.808 241C217.151 241 216.698 241.659 216.934 242.272L218.52 246.399C218.659 246.761 219.006 247 219.393 247L229.082 247C229.739 247 230.192 246.341 229.956 245.728L228.37 241.601Z" fill="#010060"/>
<path d="M196.181 225.609C196.045 225.243 195.695 225 195.304 225L185.793 225C185.14 225 184.688 225.651 184.916 226.263L185.708 228.391C185.845 228.757 186.195 229 186.586 229H196.097C196.75 229 197.202 228.349 196.974 227.737L196.181 225.609Z" fill="#010060"/>
<path d="M199.973 220.567C199.826 220.223 199.487 220 199.113 220H190.865C190.193 220 189.74 220.687 190.004 221.305L190.916 223.433C191.064 223.777 191.402 224 191.777 224H200.025C200.697 224 201.15 223.313 200.885 222.695L199.973 220.567Z" fill="#010060"/>
<path d="M183.417 225.661C183.296 225.268 182.934 225 182.522 225H173.713C173.083 225 172.632 225.61 172.818 226.212L173.472 228.339C173.593 228.732 173.956 229 174.367 229H183.177C183.807 229 184.257 228.39 184.072 227.788L183.417 225.661Z" fill="#010060"/>
<path d="M212.576 230.698C212.468 230.287 212.096 230 211.671 230H202.659C202.046 230 201.598 230.581 201.754 231.175L202.314 233.302C202.422 233.713 202.794 234 203.219 234H212.23C212.844 234 213.292 233.419 213.136 232.825L212.576 230.698Z" fill="#010060"/>
<path d="M171.277 225.886C171.25 225.389 170.839 225 170.342 225H161.433C160.896 225 160.469 225.451 160.498 225.987L160.613 228.114C160.64 228.611 161.05 229 161.548 229H170.457C170.994 229 171.421 228.549 171.392 228.013L171.277 225.886Z" fill="#010060"/>
<path d="M188.249 220.624C188.117 220.25 187.763 220 187.367 220H178.77C178.123 220 177.671 220.64 177.887 221.249L178.641 223.376C178.773 223.75 179.127 224 179.523 224H188.12C188.766 224 189.218 223.36 189.003 222.751L188.249 220.624Z" fill="#010060"/>
<path d="M159.445 225.936C159.445 225.419 159.026 225 158.509 225H149.381C148.864 225 148.445 225.419 148.445 225.936L148.445 228.064C148.445 228.581 148.864 229 149.381 229H158.509C159.026 229 159.445 228.581 159.445 228.064L159.445 225.936Z" fill="#010060"/>
<path d="M200.548 230.691C200.438 230.283 200.067 230 199.645 230H190.669C190.052 230 189.604 230.586 189.765 231.181L190.342 233.309C190.452 233.717 190.822 234 191.245 234H200.221C200.838 234 201.286 233.414 201.125 232.819L200.548 230.691Z" fill="#010060"/>
<path d="M195.521 235.738C195.428 235.307 195.046 235 194.606 235H185.606C185.009 235 184.564 235.551 184.691 236.135L185.369 239.262C185.462 239.693 185.843 240 186.284 240H195.284C195.881 240 196.325 239.449 196.199 238.865L195.521 235.738Z" fill="#010060"/>
<path d="M176.417 220.661C176.296 220.268 175.934 220 175.522 220H166.713C166.083 220 165.632 220.61 165.818 221.212L166.472 223.339C166.593 223.732 166.956 224 167.367 224H176.177C176.807 224 177.257 223.39 177.072 222.788L176.417 220.661Z" fill="#010060"/>
<path d="M187.743 230.739C187.65 230.308 187.269 230 186.828 230H177.604C177.008 230 176.563 230.55 176.689 231.133L177.147 233.261C177.24 233.692 177.621 234 178.062 234H187.286C187.882 234 188.326 233.45 188.201 232.867L187.743 230.739Z" fill="#010060"/>
<path d="M182.718 235.777C182.64 235.328 182.251 235 181.795 235H172.556C171.976 235 171.535 235.523 171.634 236.095L172.172 239.223C172.25 239.672 172.639 240 173.095 240H182.334C182.914 240 183.355 239.477 183.256 238.905L182.718 235.777Z" fill="#010060"/>
<path d="M164.988 220.888C164.962 220.391 164.551 220 164.053 220H155.464C154.928 220 154.502 220.449 154.529 220.984L154.643 223.193C154.668 223.69 155.079 224.081 155.578 224.081H164.166C164.702 224.081 165.129 223.632 165.101 223.097L164.988 220.888Z" fill="#010060"/>
<path d="M175.277 230.886C175.25 230.389 174.839 230 174.342 230H165.433C164.896 230 164.469 230.451 164.498 230.987L164.613 233.114C164.64 233.611 165.05 234 165.548 234H174.457C174.994 234 175.421 233.549 175.392 233.013L175.277 230.886Z" fill="#010060"/>
<path d="M169.268 235.896C169.246 235.395 168.834 235 168.332 235H159.422C158.89 235 158.464 235.444 158.487 235.977L158.622 239.104C158.644 239.605 159.056 240 159.557 240H168.467C169 240 169.426 239.556 169.403 239.023L169.268 235.896Z" fill="#010060"/>
<path d="M153.445 220.936C153.445 220.419 153.026 220 152.509 220H143.381C142.864 220 142.445 220.419 142.445 220.936L142.445 223.064C142.445 223.581 142.864 224 143.381 224H152.509C153.026 224 153.445 223.581 153.445 223.064L153.445 220.936Z" fill="#010060"/>
<path d="M163.445 230.936C163.445 230.419 163.026 230 162.509 230H153.381C152.864 230 152.445 230.419 152.445 230.936L152.445 233.064C152.445 233.581 152.864 234 153.381 234H162.509C163.026 234 163.445 233.581 163.445 233.064L163.445 230.936Z" fill="#010060"/>
<path d="M156.445 235.936C156.445 235.419 156.026 235 155.509 235H146.381C145.864 235 145.445 235.419 145.445 235.936L145.445 239.064C145.445 239.581 145.864 240 146.381 240H155.509C156.026 240 156.445 239.581 156.445 239.064L156.445 235.936Z" fill="#010060"/>
<path fill-rule="evenodd" clip-rule="evenodd" d="M115.4 250.499C115.5 250.061 115.89 249.75 116.339 249.75H168.81C169.259 249.75 169.649 250.061 169.75 250.499L171.707 259.068C171.845 259.672 171.386 260.247 170.767 260.247H114.382C113.763 260.247 113.305 259.672 113.442 259.068L115.4 250.499ZM116.339 250.25C116.123 250.25 115.935 250.4 115.887 250.611L113.93 259.179C113.864 259.47 114.084 259.747 114.382 259.747H170.767C171.065 259.747 171.286 259.47 171.219 259.179L169.262 250.611C169.214 250.4 169.026 250.25 168.81 250.25H116.339Z" fill="#010060"/>
<path d="M68.9899 123H123.99V187H68.9899V123Z" fill="#F6CEE8"/>
<path fill-rule="evenodd" clip-rule="evenodd" d="M68.7399 122.75H124.24V187.25H68.7399V122.75ZM69.2399 123.25V186.75H123.74V123.25H69.2399Z" fill="#010060"/>
<path d="M69 194H79V204H69V194Z" fill="#EDEDED"/>
<path d="M84 194H94V204H84V194Z" fill="#EDEDED"/>
<path d="M99 194H109V204H99V194Z" fill="#EDEDED"/>
<path d="M114 194H124V204H114V194Z" fill="#EDEDED"/>
<path d="M90.4663 132C89.5853 132 88.7322 132.309 88.0554 132.873L87.4684 133.362C86.7916 133.926 85.9363 134.219 85.0624 134.331C83.5656 134.521 81.5525 135.032 80.2376 136.172C78.4497 137.722 73.3342 145.509 71 149.209L80.7591 156.212L83 153.381V182H109V153.381L111.232 156.212L120.991 149.209C118.657 145.509 113.542 137.722 111.754 136.172C110.439 135.032 108.426 134.521 106.929 134.331C106.055 134.219 105.2 133.926 104.523 133.362L103.936 132.873C103.259 132.309 102.406 132 101.525 132H90.4663Z" fill="white"/>
<path fill-rule="evenodd" clip-rule="evenodd" d="M109 162.433L106.265 160.603L101.76 157.587L100.883 157L100.014 157.599L94.9859 161.067L90.5347 158.534L89.7649 158.096L88.995 158.534L83 161.945V165.347L89.7649 161.498L94.2953 164.076L95.1445 164.559L95.9466 164.006L100.909 160.584L104.537 163.013L109 166V162.433Z" fill="#C3F2FC"/>
<path fill-rule="evenodd" clip-rule="evenodd" d="M108.705 170.56L106.001 168.687L101.547 165.601L100.68 165L99.8213 165.613L94.8501 169.161L90.4494 166.57L89.6882 166.122L88.9271 166.57L83 170.06V173.542L89.6882 169.603L94.1673 172.241L95.0069 172.735L95.8 172.169L100.706 168.667L104.293 171.153L108.705 174.21V170.56Z" fill="#C3F2FC"/>
<path fill-rule="evenodd" clip-rule="evenodd" d="M102.857 132.431C102.544 133.238 102.065 133.98 101.441 134.604C100.265 135.781 98.6689 136.442 97.0049 136.442C95.3408 136.442 93.7449 135.781 92.5683 134.604C91.8812 133.917 91.3699 133.087 91.0634 132.184H101.515C101.977 132.184 102.431 132.269 102.857 132.431Z" fill="#D7A5CA"/>
<path fill-rule="evenodd" clip-rule="evenodd" d="M91.4611 132.434C90.6386 132.434 89.8421 132.722 89.2102 133.249L88.6231 133.738C87.8995 134.341 86.9946 134.647 86.0887 134.762C84.6056 134.951 82.6537 135.455 81.3961 136.544C80.9711 136.913 80.3303 137.67 79.5617 138.678C78.7977 139.679 77.9202 140.91 77.0243 142.209C75.2957 144.717 73.503 147.476 72.332 149.327L81.7116 156.057L84.3877 152.879V181.698H109.593V152.879L112.269 156.057L121.649 149.327C120.478 147.476 118.685 144.717 116.957 142.209C116.061 140.91 115.183 139.679 114.419 138.678C113.651 137.67 113.01 136.913 112.585 136.544C111.327 135.455 109.375 134.951 107.892 134.762C106.986 134.647 106.081 134.341 105.358 133.738L104.771 133.249C104.139 132.722 103.342 132.434 102.52 132.434H91.4611ZM88.8901 132.864C89.6118 132.263 90.5216 131.934 91.4611 131.934H102.52C103.459 131.934 104.369 132.263 105.091 132.864L105.678 133.354C106.308 133.879 107.113 134.159 107.955 134.266C109.466 134.459 111.54 134.978 112.912 136.167C113.381 136.573 114.05 137.37 114.817 138.374C115.588 139.385 116.47 140.623 117.368 141.926C119.165 144.532 121.029 147.407 122.198 149.259L122.323 149.458L112.185 156.733L110.093 154.249V182.198H83.8877V154.249L81.796 156.733L71.6576 149.458L71.7833 149.259C72.9517 147.407 74.816 144.532 76.6126 141.926C77.5108 140.623 78.3933 139.385 79.1642 138.374C79.9306 137.37 80.5997 136.573 81.0686 136.167C82.4407 134.978 84.5151 134.459 86.0255 134.266C86.8675 134.159 87.6731 133.879 88.303 133.354L88.8901 132.864Z" fill="#010060"/>
<path d="M105.99 146C105.99 147.657 104.647 149 102.99 149C101.333 149 99.9899 147.657 99.9899 146C99.9899 144.343 101.333 143 102.99 143C104.647 143 105.99 144.343 105.99 146Z" fill="#C3F2FC"/>
<path d="M131.99 77H271.99V187H131.99V77Z" fill="white"/>
<path fill-rule="evenodd" clip-rule="evenodd" d="M131.74 76.75H272.24V187.25H131.74V76.75ZM132.24 77.25V186.75H271.74V77.25H132.24Z" fill="#010060"/>
<path d="M190.99 93.4667C190.99 92.6567 191.647 92 192.457 92H256.523C257.333 92 257.99 92.6567 257.99 93.4667V93.5333C257.99 94.3433 257.333 95 256.523 95H192.457C191.647 95 190.99 94.3433 190.99 93.5333V93.4667Z" fill="#D8D8D8"/>
<path d="M190.99 100.467C190.99 99.6567 191.647 99 192.457 99H256.523C257.333 99 257.99 99.6567 257.99 100.467V100.533C257.99 101.343 257.333 102 256.523 102H192.457C191.647 102 190.99 101.343 190.99 100.533V100.467Z" fill="#D8D8D8"/>
<path d="M190.99 107.467C190.99 106.657 191.647 106 192.457 106H219.896C220.707 106 221.363 106.657 221.363 107.467V107.533C221.363 108.343 220.707 109 219.896 109H192.457C191.647 109 190.99 108.343 190.99 107.533V107.467Z" fill="#D8D8D8"/>
<path d="M196.461 116.764L198.183 120.372L202.147 120.895L199.247 123.647L199.975 127.579L196.461 125.672L192.947 127.579L193.675 123.647L190.775 120.895L194.739 120.372L196.461 116.764Z" fill="#FFCD0A"/>
<path d="M210.349 116.764L212.071 120.372L216.035 120.895L213.135 123.647L213.863 127.579L210.349 125.672L206.835 127.579L207.563 123.647L204.663 120.895L208.627 120.372L210.349 116.764Z" fill="#FFCD0A"/>
<path d="M224.236 116.764L225.958 120.372L229.922 120.895L227.022 123.647L227.75 127.579L224.236 125.672L220.722 127.579L221.45 123.647L218.55 120.895L222.514 120.372L224.236 116.764Z" fill="#FFCD0A"/>
<path d="M238.124 116.764L239.846 120.372L243.81 120.895L240.91 123.647L241.638 127.579L238.124 125.672L234.61 127.579L235.338 123.647L232.438 120.895L236.402 120.372L238.124 116.764Z" fill="#FFCD0A"/>
<path fill-rule="evenodd" clip-rule="evenodd" d="M252.011 116.184L253.901 120.142L258.249 120.716L255.068 123.736L255.867 128.049L252.011 125.956L248.156 128.049L248.955 123.736L245.774 120.716L250.122 120.142L252.011 116.184ZM252.011 117.345L250.457 120.603L246.878 121.074L249.496 123.56L248.839 127.11L252.011 125.388L255.184 127.11L254.527 123.56L257.145 121.074L253.566 120.603L252.011 117.345Z" fill="#010060"/>
<path d="M165.539 103.166C165.539 110.15 159.877 115.811 152.894 115.811C145.91 115.811 140.249 110.15 140.249 103.166C140.249 96.1827 145.91 90.5215 152.894 90.5215C159.877 90.5215 165.539 96.1827 165.539 103.166Z" fill="white"/>
<path d="M142.99 133H185.99V176H142.99V133Z" fill="#F6CEE8"/>
<path d="M190.99 133H234.99V176H190.99V133Z" fill="#EDEDED"/>
<path d="M170.736 163.275L159.75 150L151.37 157.953L142.99 165.906V176H185.99V163.948L178.583 155.139L170.736 163.275Z" fill="#D7A5CA"/>
<path d="M177.99 143C177.99 145.209 176.423 147 174.49 147C172.557 147 170.99 145.209 170.99 143C170.99 140.791 172.557 139 174.49 139C176.423 139 177.99 140.791 177.99 143Z" fill="#D7A5CA"/>
<path fill-rule="evenodd" clip-rule="evenodd" d="M198.426 149.07C198.426 148.434 198.942 147.918 199.579 147.918H226.78C227.417 147.918 227.933 148.434 227.933 149.07V166.287C227.933 166.923 227.417 167.44 226.78 167.44H199.579C198.942 167.44 198.426 166.923 198.426 166.287V149.07ZM199.579 148.418C199.219 148.418 198.926 148.71 198.926 149.07V166.287C198.926 166.647 199.219 166.94 199.579 166.94H226.78C227.141 166.94 227.433 166.647 227.433 166.287V149.07C227.433 148.71 227.141 148.418 226.78 148.418H199.579Z" fill="#010060"/>
<path fill-rule="evenodd" clip-rule="evenodd" d="M203.632 146.604C203.632 145.986 204.133 145.485 204.751 145.485C205.369 145.485 205.87 145.986 205.87 146.604V148.418H203.632V146.604ZM204.751 145.985C204.409 145.985 204.132 146.262 204.132 146.604V147.918H205.37V146.604C205.37 146.262 205.093 145.985 204.751 145.985Z" fill="#010060"/>
<path fill-rule="evenodd" clip-rule="evenodd" d="M208.545 144.656C208.683 144.157 209.138 143.812 209.656 143.812H216.024C216.542 143.812 216.996 144.157 217.135 144.656L218.177 148.419H207.503L208.545 144.656ZM209.656 144.312C209.362 144.312 209.105 144.507 209.027 144.79L208.16 147.919H217.519L216.653 144.79C216.575 144.507 216.317 144.312 216.024 144.312H209.656Z" fill="#010060"/>
<path fill-rule="evenodd" clip-rule="evenodd" d="M213.171 150.504C208.633 150.504 204.954 154.183 204.954 158.722C204.954 163.261 208.633 166.94 213.171 166.94C217.71 166.94 221.389 163.261 221.389 158.722C221.389 154.183 217.71 150.504 213.171 150.504ZM204.454 158.722C204.454 153.907 208.357 150.004 213.171 150.004C217.986 150.004 221.889 153.907 221.889 158.722C221.889 163.537 217.986 167.44 213.171 167.44C208.357 167.44 204.454 163.537 204.454 158.722Z" fill="#010060"/>
<path fill-rule="evenodd" clip-rule="evenodd" d="M213.171 153.821C210.465 153.821 208.271 156.015 208.271 158.722C208.271 161.428 210.465 163.622 213.171 163.622C215.878 163.622 218.072 161.428 218.072 158.722C218.072 156.015 215.878 153.821 213.171 153.821ZM207.771 158.722C207.771 155.739 210.189 153.321 213.171 153.321C216.154 153.321 218.572 155.739 218.572 158.722C218.572 161.704 216.154 164.122 213.171 164.122C210.189 164.122 207.771 161.704 207.771 158.722Z" fill="#010060"/>
<path fill-rule="evenodd" clip-rule="evenodd" d="M207.452 152.779H198.668V152.279H207.452V152.779ZM227.738 152.779H218.796V152.279H227.738V152.779Z" fill="#010060"/>
<path d="M179.015 107.253C179.015 116.72 171.34 124.394 161.874 124.394C152.407 124.394 144.733 116.72 144.733 107.253C144.733 97.7865 152.407 90.1123 161.874 90.1123C171.34 90.1123 179.015 97.7865 179.015 107.253Z" fill="#EDEDED"/>
<path d="M177.271 104.514C177.271 113.98 169.597 121.654 160.131 121.654C150.664 121.654 142.99 113.98 142.99 104.514C142.99 95.047 150.664 87.3728 160.131 87.3728C169.597 87.3728 177.271 95.047 177.271 104.514Z" fill="white"/>
<path fill-rule="evenodd" clip-rule="evenodd" d="M160.131 87.6228C150.802 87.6228 143.24 95.1851 143.24 104.514C143.24 113.842 150.802 121.404 160.131 121.404C169.459 121.404 177.021 113.842 177.021 104.514C177.021 95.1851 169.459 87.6228 160.131 87.6228ZM142.74 104.514C142.74 94.9089 150.526 87.1228 160.131 87.1228C169.735 87.1228 177.521 94.9089 177.521 104.514C177.521 114.118 169.735 121.904 160.131 121.904C150.526 121.904 142.74 114.118 142.74 104.514Z" fill="#010060"/>
<path fill-rule="evenodd" clip-rule="evenodd" d="M174.632 113.657C171.596 118.463 166.236 121.655 160.131 121.655C154.031 121.655 148.676 118.469 145.638 113.671C149.593 111.343 154.644 109.947 160.147 109.947C165.639 109.947 170.681 111.338 174.632 113.657Z" fill="#C3F2FC"/>
<path fill-rule="evenodd" clip-rule="evenodd" d="M145.99 113.756C149.007 118.363 154.213 121.405 160.131 121.405C166.053 121.405 171.265 118.357 174.28 113.742C170.404 111.525 165.494 110.197 160.147 110.197C154.789 110.197 149.869 111.531 145.99 113.756ZM145.511 113.455C149.507 111.103 154.603 109.697 160.147 109.697C165.68 109.697 170.766 111.098 174.759 113.441L174.981 113.572L174.843 113.791C171.763 118.666 166.325 121.905 160.131 121.905C153.942 121.905 148.509 118.672 145.427 113.805L145.289 113.586L145.511 113.455Z" fill="#010060"/>
<path fill-rule="evenodd" clip-rule="evenodd" d="M160.131 87.623C150.802 87.623 143.24 95.1853 143.24 104.514C143.24 113.842 150.802 121.405 160.131 121.405C169.459 121.405 177.021 113.842 177.021 104.514C177.021 95.1853 169.459 87.623 160.131 87.623ZM142.74 104.514C142.74 94.9092 150.526 87.123 160.131 87.123C169.735 87.123 177.521 94.9092 177.521 104.514C177.521 114.118 169.735 121.905 160.131 121.905C150.526 121.905 142.74 114.118 142.74 104.514Z" fill="#010060"/>
<path fill-rule="evenodd" clip-rule="evenodd" d="M161.876 85.6603C162.28 85.2674 162.832 85.0254 163.44 85.0254C164.679 85.0254 165.683 86.0297 165.683 87.2685C165.683 87.6952 165.564 88.094 165.357 88.4336C165.522 88.6685 165.618 88.9546 165.618 89.2634C165.618 89.9106 165.193 90.4586 164.607 90.6433C164.603 91.5809 164.52 92.9985 164.006 94.1572C163.427 95.4634 159.259 98.1107 157.209 99.2549C156.54 98.7224 155.207 97.0118 155.221 94.4288C155.236 91.5726 155.344 89.7271 156.639 88.5393C156.565 88.4028 156.523 88.2463 156.523 88.08C156.523 87.5475 156.955 87.1157 157.487 87.1157C157.706 87.1157 157.908 87.1886 158.07 87.3115C158.069 87.2972 158.069 87.2828 158.069 87.2685C158.069 86.0297 159.073 85.0254 160.312 85.0254C160.92 85.0254 161.472 85.2674 161.876 85.6603Z" fill="#010060"/>
<path d="M157.687 92.6512C156.953 93.4671 156.928 95.257 157.007 96.05C155.75 94.8945 155.036 95.5061 155.138 96.6277C155.219 97.5249 155.897 98.429 156.225 98.7689C156.35 99.9244 156.579 102.725 156.497 104.683C156.416 106.64 155.716 110.007 155.376 111.446C156.146 111.956 158.326 112.975 160.882 112.975C163.438 112.975 164.688 111.956 164.994 111.446L163.465 105.056C164.892 104.717 165.436 103.731 165.64 101.998C165.827 100.405 165.368 97.5793 164.994 95.5061C164.695 93.8476 163.85 91.9374 163.465 91.1896C162.683 91.4273 161.358 91.2576 160.202 91.1896C159.046 91.1216 158.605 91.6314 157.687 92.6512Z" fill="#BC7E46"/>
<path d="M160.295 95.1626C161.179 95.2168 161.808 95.695 162.012 95.9273C160.448 96.4573 159.094 95.8311 158.613 95.4517C158.805 95.3327 159.412 95.1084 160.295 95.1626Z" fill="white"/>
<path d="M164.722 94.4658C164.002 94.86 163.745 95.4727 163.677 95.7216C164.424 95.7216 164.864 95.5151 164.988 95.4188C164.944 95.1221 164.784 94.6865 164.722 94.4658Z" fill="white"/>
<path fill-rule="evenodd" clip-rule="evenodd" d="M163.687 91.075L163.591 90.8896L163.392 90.9503C163.044 91.056 162.554 91.0754 161.983 91.0543C161.636 91.0415 161.28 91.0151 160.921 90.9885C160.686 90.9711 160.451 90.9537 160.217 90.9399C159.592 90.9032 159.137 91.0238 158.717 91.3044C158.33 91.5619 157.98 91.9518 157.553 92.4262L157.553 92.4262L157.553 92.4262L157.501 92.4839C157.082 92.9497 156.884 93.6644 156.794 94.3254C156.738 94.7408 156.722 95.1542 156.728 95.5069C156.564 95.3965 156.406 95.3143 156.255 95.2598C155.97 95.1564 155.695 95.1487 155.458 95.2577C154.983 95.4764 154.836 96.0625 154.889 96.6502C154.934 97.1493 155.143 97.6357 155.373 98.0325C155.579 98.3885 155.812 98.6874 155.986 98.8785C156.112 100.077 156.326 102.779 156.248 104.672C156.167 106.603 155.473 109.949 155.133 111.388L155.092 111.558L155.238 111.654C156.041 112.186 158.268 113.225 160.882 113.225C163.496 113.225 164.844 112.181 165.208 111.574L165.261 111.487L163.764 105.234C164.406 105.036 164.88 104.693 165.218 104.189C165.591 103.634 165.784 102.908 165.888 102.027C165.985 101.199 165.914 100.07 165.776 98.9027C165.64 97.7561 165.436 96.5536 165.253 95.5305L165.257 95.5268L165.235 95.3816C165.215 95.248 165.176 95.0955 165.134 94.9512C164.769 93.395 164.038 91.7571 163.687 91.075ZM164.214 95.4296C164.193 95.3786 164.181 95.3231 164.178 95.265C164.132 95.3291 164.093 95.3918 164.06 95.451C164.114 95.4449 164.166 95.4377 164.214 95.4296ZM164.187 93.527C164.28 93.79 164.37 94.0615 164.452 94.3352C163.768 94.7704 163.51 95.3828 163.436 95.6557L163.377 95.8693L162.964 94.5117L162.486 94.6572L163.747 98.8038H162.725V99.3038H164.422L163.409 95.9716H163.677C164.159 95.9716 164.533 95.8902 164.792 95.7952C164.967 96.775 165.153 97.8946 165.279 98.9616C165.417 100.124 165.481 101.203 165.391 101.968C165.291 102.82 165.11 103.453 164.803 103.91C164.508 104.35 164.081 104.647 163.435 104.806C162.775 104.8 161.193 104.595 159.96 103.825L159.925 103.882L159.924 103.881C159.771 103.915 159.59 104.265 159.55 104.564C159.499 104.938 159.652 105.261 160.246 105.363C160.841 105.465 161.793 105.652 162.439 106.484C162.987 107.192 163.266 107.519 163.807 107.56L164.725 111.397C164.389 111.845 163.229 112.725 160.882 112.725C158.533 112.725 156.506 111.841 155.66 111.329C156.012 109.807 156.668 106.601 156.747 104.693C156.83 102.716 156.599 99.9004 156.474 98.7419L156.465 98.6567L156.405 98.595C156.255 98.4393 156.016 98.1446 155.805 97.7818C155.594 97.4173 155.423 97.0031 155.387 96.605C155.338 96.0711 155.497 95.7906 155.667 95.7119C155.754 95.6722 155.887 95.6581 156.085 95.73C156.286 95.8026 156.538 95.9585 156.838 96.2339L157.321 96.678L157.256 96.025C157.218 95.645 157.205 95.0191 157.29 94.3927C157.376 93.7565 157.558 93.1684 157.873 92.8183L157.891 92.798C158.348 92.2897 158.661 91.9424 158.994 91.7204C159.312 91.5082 159.656 91.4078 160.187 91.4391C160.405 91.4518 160.634 91.4687 160.866 91.4859L160.866 91.4859C161.235 91.5131 161.612 91.5409 161.964 91.5539C162.453 91.572 162.932 91.5643 163.331 91.4809C163.516 91.8565 163.767 92.4155 164.012 93.0545C163.5 93.1814 163.199 93.4256 163.09 93.6052L163.517 93.8651C163.541 93.8255 163.729 93.627 164.187 93.527ZM156.821 98.1248L155.836 96.9188L156.223 96.6025L157.208 97.8085L156.821 98.1248ZM160.515 93.4907C161.165 93.4237 161.757 93.4451 162.109 93.4869L162.05 93.9834C161.734 93.9459 161.18 93.9249 160.566 93.9881C159.951 94.0515 159.296 94.1978 158.765 94.4823L158.529 94.0416C159.14 93.7143 159.867 93.5576 160.515 93.4907ZM160.31 94.9131C159.384 94.8562 158.725 95.0884 158.481 95.239L158.177 95.4268L158.458 95.6481C158.988 96.0655 160.429 96.7278 162.092 96.1641L162.447 96.0438L162.199 95.7624C161.959 95.4889 161.272 94.972 160.31 94.9131ZM161.482 95.8115C161.437 95.8207 161.391 95.8289 161.346 95.8361C161.353 95.8037 161.357 95.7701 161.358 95.7356C161.402 95.7607 161.443 95.7861 161.482 95.8115ZM160.406 95.7319C160.406 95.7774 160.412 95.8215 160.424 95.8632C159.92 95.8126 159.488 95.6626 159.172 95.5046C159.44 95.4367 159.816 95.3837 160.28 95.4121C160.358 95.4169 160.434 95.4254 160.508 95.437C160.444 95.5181 160.406 95.6205 160.406 95.7319ZM163.401 101.612C164.162 101.519 164.629 101.02 164.778 100.757L164.343 100.51C164.255 100.666 163.912 101.046 163.341 101.116C162.774 101.186 162.258 100.869 162.079 100.704L161.74 101.072C161.981 101.293 162.636 101.706 163.401 101.612Z" fill="#010060"/>
<path d="M51 53H126V99H51V53Z" fill="#9CC2CA"/>
<path d="M47 50H122V95H47V50Z" fill="white"/>
<path fill-rule="evenodd" clip-rule="evenodd" d="M46.75 49.75H122.25V95.25H46.75V49.75ZM47.25 50.25V94.75H121.75V50.25H47.25Z" fill="#010060"/>
<path fill-rule="evenodd" clip-rule="evenodd" d="M262 190.303C261.53 190.04 260.957 190.04 260.486 190.303L244.885 199.036C243.754 199.669 242.392 198.716 242.598 197.437L245.623 178.657C245.701 178.176 245.547 177.687 245.209 177.336L232.321 163.962C231.45 163.058 231.959 161.547 233.2 161.355L250.846 158.625C251.358 158.546 251.797 158.216 252.015 157.746L259.837 140.871C260.392 139.674 262.094 139.674 262.649 140.871L270.472 157.746C270.69 158.216 271.129 158.546 271.641 158.625L289.286 161.355C290.527 161.547 291.036 163.058 290.165 163.962L277.277 177.336C276.939 177.687 276.786 178.176 276.863 178.657L279.889 197.437C280.095 198.716 278.733 199.669 277.602 199.036L262 190.303Z" fill="#FFBC0A"/>
<path fill-rule="evenodd" clip-rule="evenodd" d="M263.268 185.816C262.105 184.812 260.382 184.812 259.218 185.816L245.307 197.823C244.212 198.767 242.534 197.831 242.764 196.403L245.623 178.657C245.701 178.176 245.547 177.686 245.209 177.335L232.823 164.482C231.868 163.491 232.582 161.84 233.958 161.857L252.784 162.089C254.224 162.106 255.486 161.131 255.831 159.733L260.186 142.115C260.537 140.694 262.481 140.507 263.096 141.835L270.472 157.745C270.69 158.216 271.129 158.546 271.641 158.625L289.286 161.355C290.527 161.547 291.036 163.057 290.165 163.961L277.277 177.335C276.939 177.686 276.786 178.176 276.863 178.657L279.722 196.403C279.952 197.831 278.275 198.767 277.18 197.823L263.268 185.816Z" fill="#FFCD0A"/>
<path d="M256.652 167.476C256.652 168.76 255.624 169.8 254.356 169.8C253.088 169.8 252.06 168.76 252.06 167.476C252.06 166.192 253.088 165.151 254.356 165.151C255.624 165.151 256.652 166.192 256.652 167.476Z" fill="#FF9D0A"/>
<path d="M270.427 167.476C270.427 168.76 269.399 169.8 268.131 169.8C266.863 169.8 265.835 168.76 265.835 167.476C265.835 166.192 266.863 165.151 268.131 165.151C269.399 165.151 270.427 166.192 270.427 167.476Z" fill="#FF9D0A"/>
<path fill-rule="evenodd" clip-rule="evenodd" d="M269.279 173.868C269.279 178.362 265.681 182.004 261.243 182.004C256.865 182.004 253.305 178.459 253.21 174.05L253.208 173.868H269.279Z" fill="#FF9D0A"/>
<path d="M97 40H129V72H97V40Z" fill="#54AF95"/>
<path fill-rule="evenodd" clip-rule="evenodd" d="M46.75 49.75H122.25V95.25H46.75V49.75ZM47.8544 50.25L84.5 73.7032L121.146 50.25H47.8544ZM121.75 50.4568L84.5 74.2968L47.25 50.4568V94.75H121.75V50.4568Z" fill="#010060"/>
<path d="M70 95C70 104.941 61.9411 113 52 113C42.0589 113 34 104.941 34 95C34 85.0589 42.0589 77 52 77C61.9411 77 70 85.0589 70 95Z" fill="#D7A5CA"/>
<path fill-rule="evenodd" clip-rule="evenodd" d="M61.3688 90.0229L50.0283 102.202L41.9292 94.1024L44.0505 91.9811L49.9514 97.882L59.1733 87.9785L61.3688 90.0229Z" fill="white"/>
<path fill-rule="evenodd" clip-rule="evenodd" d="M249.408 60.5587L243.654 63.6459L243.418 63.2054L249.171 60.1182L249.408 60.5587ZM258.117 61.9575L240.716 72.2009L240.462 71.77L257.863 61.5266L258.117 61.9575Z" fill="#010060"/>
<path fill-rule="evenodd" clip-rule="evenodd" d="M38.6244 38.4806L33.0671 41.4626L32.8307 41.022L38.388 38.04L38.6244 38.4806ZM47.0368 39.8315L30.2294 49.7257L29.9757 49.2948L46.7831 39.4007L47.0368 39.8315Z" fill="#010060"/>
</g>
<defs>
<clipPath id="clip0_13_1239">
<rect width="300" height="330" fill="white"/>
</clipPath>
</defs>
</svg>
