<svg width="17" height="17" viewBox="0 0 17 17" fill="none" xmlns="http://www.w3.org/2000/svg">
<path fill-rule="evenodd" clip-rule="evenodd" d="M8.5 15.3C12.2555 15.3 15.3 12.2555 15.3 8.5C15.3 4.74446 12.2555 1.7 8.5 1.7C4.74446 1.7 1.7 4.74446 1.7 8.5C1.7 12.2555 4.74446 15.3 8.5 15.3ZM8.5 17C13.1944 17 17 13.1944 17 8.5C17 3.80558 13.1944 0 8.5 0C3.80558 0 0 3.80558 0 8.5C0 13.1944 3.80558 17 8.5 17Z" fill="#18B394"/>
<path fill-rule="evenodd" clip-rule="evenodd" d="M4.42148 7.4927C4.75343 7.16076 5.29162 7.16076 5.62356 7.4927L7.6892 9.55835L11.3183 5.92926C11.6502 5.59731 12.1884 5.59731 12.5204 5.92926C12.8523 6.2612 12.8523 6.79939 12.5204 7.13134L7.6892 11.9625L4.42148 8.69479C4.08953 8.36284 4.08954 7.82465 4.42148 7.4927Z" fill="#18B394"/>
</svg>
