<?xml version="1.0" encoding="UTF-8"?>
<svg id="Layer_1" data-name="Layer 1" xmlns="http://www.w3.org/2000/svg" viewBox="0 0 128 128">
  <defs>
    <style>
      .cls-1 {
        fill: #fff;
      }

      .cls-2 {
        fill: #ef3e2f;
      }

      .cls-3 {
        fill: #868d93;
      }
    </style>
  </defs>
  <g>
    <path d="m50.78,117.82c-9.25,0-20.09-2.51-28.64-8.77-8.19-5.99-13.1-14.68-14.2-25.1-3.13-29.48,22.61-41.72,36.65-44.08h0c12.03-2.01,25.97,1.2,35.54,8.19,8,5.85,12.99,14.19,14.41,24.13,3.6,25.17-15.6,40.87-34.97,44.81-2.63.54-5.61.83-8.78.83Zm-5.6-74.42c-12.9,2.16-36.54,13.34-33.69,40.17,1.01,9.53,5.31,17.13,12.76,22.59,10.6,7.77,25.01,9.27,34.6,7.33,13.71-2.79,35.9-14.52,32.14-40.8-1.3-9.08-5.67-16.4-12.98-21.75-8.82-6.44-21.71-9.41-32.84-7.54h0Z"/>
    <path d="m19.68,85.25c1.1,15.98,17.57,25.55,38.65,21.45,23.52-4.58,27.47-20.83,25.85-31.15-1.61-10.32-13.81-22.41-35.41-19.1-20.54,3.14-30.03,15.07-29.09,28.8Z"/>
    <path class="cls-1" d="m39.64,79.29c1.78,2.42,3.55,12.6-1.58,11.69-.89-.22-1.49-.89-1.78-1.7-.98-2.85-1.54-5.95-1.25-8.98.26-2.3,3.44-2.95,4.6-1.01h0Z"/>
    <path class="cls-1" d="m67.37,74.33c1.76,3.02,2.14,6.53,1.42,9.91-.52,2.24-3.77,2.49-4.63.38-1.11-2.92-1.66-6.15-1.38-9.28.25-2.3,3.43-2.95,4.6-1.01h0Z"/>
    <path class="cls-2" d="m48.34,82.49c1.86,1.36,4.48,1.58,6.29.08.63-.47,1.14-1.1,1.49-1.78.46-.89,1.86-.4,1.67.57-.62,3.53-4.77,5.51-8,4.24-1.02-.38-3.86-1.8-2.59-3.13.34-.27.82-.25,1.14.02h0Z"/>
    <path class="cls-2" d="m24.74,32.23c.03,2.17,14.17,5.7,16.71,5.41l-1.34-12.43s-15.4,4.53-15.37,7.01Z"/>
    <path d="m14.1,83.83c.8,4.7.18,8.73-2.77,9.23-2.95.5-7.13-2.71-7.93-7.41-.8-4.7,2.07-9.11,5.02-9.62,2.95-.5,4.87,3.09,5.68,7.79Z"/>
    <path d="m45.87,47.58c-1.1-.11-2.01-.97-2.14-2.12l-2.23-20.64c-.14-1.31.8-2.48,2.12-2.63s2.48.8,2.63,2.12l2.23,20.64c.14,1.31-.8,2.48-2.12,2.63-.17.02-.33.02-.49,0Z"/>
  </g>
  <ellipse class="cls-3" cx="54.92" cy="124.23" rx="14.34" ry="1.72"/>
  <path d="m72.65,30.17c.91,4.98,4.16,7.65,9.93,8.18,4.97.46,11,.63,16.25.48l6.31,6.21c.26.25.6.39.96.39.14,0,.28-.02.41-.07.48-.15.84-.56.93-1.06l1.16-6.47c3.45-1.06,5.46-3.51,6.13-7.46.87-5.15,1.4-10.61,1.43-14.62.02-4.49-3.46-8.04-8.48-8.65-4.91-.59-14.65-1.64-24.75-2.07-6.63-.3-10.71,3.13-11.11,9.36-.26,4.1.17,12.06.85,15.78Zm24.37,2.65c-.16.82-.61,1.38-1.35,1.65-.56.21-1.14.23-1.73.05-.65-.2-1.08-.6-1.3-1.18-.25-.67-.29-1.36-.11-2.08.21-.88.71-1.46,1.51-1.77.67-.25,1.28-.2,1.85.16.45.3.78.73.99,1.29.23.6.28,1.22.15,1.87Zm1.73-11.62c-.05.08-.65.95-1.79,2.63-.73,1.06-1.25,1.98-1.55,2.76-.27.7-.7,1.16-1.27,1.37s-1.13.19-1.71-.05c-.58-.25-.97-.64-1.17-1.17-.3-.79,0-1.91.91-3.36.86-1.27,1.71-2.54,2.57-3.82.9-1.44,1.21-2.55.92-3.33-.35-.91-1.13-1.6-2.36-2.05s-2.35-.49-3.35-.11c-.53.2-1.14.78-1.84,1.73-.7.95-1.24,1.5-1.62,1.65-.58.22-1.15.19-1.71-.09-.56-.28-.94-.68-1.13-1.2-.37-.98.15-2.21,1.56-3.67,1.19-1.25,2.27-2.05,3.23-2.42,2.13-.81,4.36-.75,6.68.17,2.32.92,3.86,2.4,4.63,4.43s.43,4.19-1,6.51Z"/>
  <path d="m86.7,70.84c-1.1-5.64-.46-10.52,3.09-11.2s8.66,3.07,9.76,8.71-2.24,11.04-5.79,11.73c-3.55.69-5.96-3.59-7.06-9.23Z"/>
  <path d="m105.1,50.03c1.4-.28,2.83.52,3.29,1.91,1.21,3.65.37,9.05-2.13,13.77-2.2,4.14-5.28,6.96-8.67,7.92-1.52.44-3.12-.46-3.55-1.98-.43-1.53.46-3.12,1.98-3.55,1.84-.52,3.73-2.37,5.16-5.08,1.95-3.67,2.35-7.44,1.75-9.27-.5-1.51.32-3.13,1.82-3.63.12-.04.23-.07.34-.09Z"/>
  <path d="m99.5,43.84c.17-.03.34-.05.52-.06,1.59-.03,2.9,1.24,2.93,2.82.03,1.64,1.39,2.95,3.03,2.92,1.63-.02,2.95-1.39,2.92-3.03-.03-1.59,1.24-2.89,2.82-2.93,1.59-.03,2.9,1.24,2.93,2.82.08,4.81-3.75,8.78-8.57,8.88-4.81.09-8.79-3.76-8.88-8.57-.03-1.41.97-2.6,2.3-2.87Z"/>
</svg>