<?xml version="1.0" encoding="UTF-8"?><svg id="a" xmlns="http://www.w3.org/2000/svg" viewBox="0 0 949.54 253.58"><path d="M222.06,124.92c-5.54-48.17-58.27-73.68-103-66.28-28.98,4.86-82.1,30.05-75.67,90.63,3.68,45.68,47.7,69.97,88.28,69.46,39.47-.28,99.19-28.42,90.4-93.82Z" fill="#fff"/><path d="M326.58,88.22s-17.43-.09-20.6-.1c-1.83,0-3.24,.61-4.51,1.86-3.87,3.81-1.09,11.34,4.51,11.1h18.03c-4.01,19.72-31.08,20.43-38.64,2.57-8.3-20.07,15.29-38.58,32.61-24.93,7.72,6.47,15.97-4.58,8.02-10.44-5.68-4.9-13.18-7.24-21.23-7.22-23.91-.41-41.03,25.83-31.35,47.56,8.59,21.76,39.45,28.43,55.13,10.64,7.46-8.18,15.07-30.78-1.97-31.04Z"/><path d="M378.03,90.98c-10.7-11.18-31.01-7.33-36.66,7.16-7.76,18.56,10.91,37.37,29.5,29.6,14.44-5.71,18.37-26.05,7.16-36.76Zm-6.3,20.03c-2.56,6.68-12.19,8.55-17,3.3-3.96-3.83-4.01-10.94,0-14.79,8.02-8.07,21.44,1,17,11.49Z"/><path d="M427.46,84.71c-3-.27-4.45,1.08-5.72,2.73-14.82-8.64-34.04,2.33-33.95,19.52-.26,16.98,19.31,28.24,33.9,19.59,1.43,1.83,3.17,2.69,5.74,2.65,3.88-.07,5.45-3.98,5.4-7.27v-29.84c-.12-3.43-2.19-7.09-5.37-7.38Zm-6.65,22.25c0,3.05-1.01,5.61-2.99,7.63h0c-10.57,9.59-24.54-4.77-15.06-15.28,6.42-6.62,18.49-1.78,18.05,7.65Z"/><path d="M574.04,84.71c-3-.27-4.45,1.08-5.72,2.73-14.82-8.64-34.04,2.33-33.95,19.52-.26,16.98,19.31,28.24,33.9,19.59,1.43,1.83,3.17,2.69,5.74,2.65,3.88-.07,5.45-3.98,5.4-7.27v-29.84c-.12-3.43-2.19-7.09-5.37-7.38Zm-6.65,22.25c0,3.05-1.01,5.61-2.99,7.63h0c-10.57,9.59-24.54-4.77-15.06-15.28,6.42-6.62,18.49-1.78,18.05,7.65Z"/><path d="M512.35,72.7c4.2-3.68,.92-10.89-4.38-10.9h-38.25c-6.82,.52-8.59,9.46-2.18,12.42,.72,.36,1.43,.53,2.18,.53h12.6v48.3c-.1,3.8,2.98,6.08,6.53,6.06,3.57,.02,6.52-2.28,6.43-6.06v-48.3h12.7c1.6,.02,3.23-.92,4.37-2.05Z"/><path d="M534.39,88.21c-2.48-5.59-9.95-4.03-14.31-1.54-2.05-2.8-6.52-2.94-9-.64-1.14,1.02-1.71,2.8-1.71,5.3v30.52c.07,1.92,.44,4.47,1.78,5.72,2.06,1.97,6.36,2.21,8.5-.23,1.15-1.18,1.74-3.06,1.74-5.61v-18.29c.23-4.01,3.65-6.54,7.41-6.98,3.88-.22,7.44-4.37,5.59-8.25Z"/><path d="M625.34,97.73c-2.03-2.06-4.6-2.3-6.93-.3-.87,.79-1.95,2.07-1.95,2.88-.21,3,.69,5.96,.03,8.49-.86,4.76-5.83,8.54-10.66,8.32-13.14-.46-14.98-18.52-2.61-21.96l.18,1.06c.39,2.74,4.11,3.86,5.93,1.75l7.38-7.99c1.58-1.63,1-4.58-1.09-5.47l-9.51-4.38c-3.17-1.3-5.68,1.65-4.66,4.74-21.36,4.04-24,33.52-4.05,41.68,17.17,7.14,35.11-9.67,29.05-27.26-.16-.45-.56-1.02-1.11-1.56Z" fill="#ef3e2f"/><path d="M654.02,107.33l-.44-.54,10.6-13.41c1.73-2.59,.86-6.15-1.85-7.72-2.61-1.6-6.1-.77-7.72,1.75l-11.72,15.28v-29.21c0-2.65-.58-4.56-1.71-5.68-4.45-3.96-10.88-.8-10.31,5.68v48.36c-.69,9.75,12.71,9.79,12.02,0v-10.7l11.83,15.19c1.74,2.69,5.11,3.34,7.93,1.68,2.57-1.53,3.47-5.22,1.69-7.68-1.15-1.73-7.6-9.67-10.32-13Z"/><path d="M707.97,96.46c-6.39-13.23-25.69-15.98-35.68-5.51-8.71,8.24-8.17,23.23,.01,31.9,6.63,7.03,16.08,8.72,24.24,6.22,3.97-1.22,9.47-4.25,9.24-9.01-.12-2.54-1.96-4.61-4.95-4.42-2.83,.18-4.74,2.03-7.57,2.77-7.26,1.89-14.46-2.51-14.61-7.82,0,0,19.25,.57,25.63,0,3.84-.34,6.11-3.04,5.91-6.41-.16-2.72-1.05-5.3-2.22-7.72Zm-28.44,4.95c1.32-7.92,16.25-8.56,18.63,0h-18.63Z"/><path d="M739.22,88.21c-2.48-5.59-9.95-4.03-14.31-1.54-2.05-2.8-6.52-2.94-9.01-.64-1.13,1.01-1.71,2.8-1.71,5.3v30.52c.07,1.92,.44,4.47,1.78,5.72,2.06,1.97,6.37,2.21,8.5-.23,1.15-1.18,1.74-3.06,1.74-5.61v-18.29c.23-4.01,3.65-6.54,7.41-6.98,3.89-.21,7.45-4.37,5.6-8.25Z"/><path d="M457.94,117.16c-6.26-.81-5.77-6.51-5.88-11.26,0-.19,.03-32.44,.03-32.44,.07-4.49-1.85-7.23-5.87-7.37-4.18,.11-6.22,2.76-6.15,7.37,0,0,.04,32.28,.04,32.49,0,12.8,4.18,22.44,17.46,23.15,7.62-.15,7.97-10.96,.37-11.94Z"/><g><path d="M131.87,222.73c-19.9,0-43.19-5.39-61.58-18.86-17.6-12.89-28.16-31.56-30.54-53.97-6.73-63.38,48.61-89.71,78.8-94.77h0c25.86-4.32,55.84,2.57,76.41,17.6,17.21,12.58,27.92,30.52,30.98,51.88,7.75,54.12-33.54,87.88-75.18,96.34-5.66,1.16-12.07,1.78-18.88,1.78Zm-12.04-160.02c-27.73,4.65-78.56,28.69-72.44,86.37,2.17,20.5,11.41,36.84,27.44,48.58,22.79,16.7,53.78,19.94,74.4,15.75,29.47-6,77.19-31.21,69.1-87.72-2.8-19.53-12.18-35.27-27.9-46.76-18.97-13.85-46.67-20.23-70.6-16.22h0Z"/><path d="M65.01,152.71c2.36,34.35,37.77,54.94,83.1,46.11,50.57-9.85,59.05-44.79,55.59-66.97-3.47-22.18-29.69-48.19-76.14-41.07-44.17,6.75-64.56,32.4-62.54,61.93Z"/><path d="M107.93,139.89c3.82,5.19,7.62,27.09-3.39,25.12-1.92-.47-3.2-1.92-3.82-3.64-2.12-6.13-3.32-12.78-2.69-19.32,.56-4.94,7.39-6.35,9.9-2.16h0Z" fill="#fff"/><path d="M167.54,129.23c3.79,6.49,4.59,14.03,3.04,21.3-1.11,4.83-8.11,5.35-9.96,.82-2.4-6.28-3.58-13.22-2.96-19.96,.55-4.94,7.38-6.35,9.89-2.16h0Z" fill="#fff"/><path d="M126.62,146.78c3.99,2.93,9.64,3.39,13.53,.18,1.35-1,2.44-2.37,3.2-3.83,.99-1.92,3.99-.87,3.6,1.23-1.34,7.59-10.25,11.85-17.21,9.11-2.2-.81-8.29-3.88-5.57-6.72,.74-.58,1.76-.53,2.45,.04h0Z" fill="#ef3e2f"/><path d="M79.94,34.97c.07,4.66,30.47,12.26,35.92,11.64l-2.89-26.72s-33.1,9.73-33.04,15.08Z" fill="#ef3e2f"/><path d="M53.01,149.66c1.73,10.11,.39,18.77-5.96,19.85-6.35,1.08-15.33-5.82-17.04-15.93-1.73-10.11,4.45-19.6,10.8-20.68s10.48,6.64,12.21,16.75Z"/><path d="M212.13,122.53c1.93,10.07,6.22,17.71,12.55,16.5,6.33-1.21,12.31-10.82,10.37-20.9-1.93-10.07-11.03-16.79-17.37-15.57-6.32,1.21-7.48,9.9-5.55,19.97Z"/><path d="M121.31,71.72c-2.36-.23-4.32-2.1-4.59-4.55l-4.79-44.38c-.3-2.82,1.73-5.34,4.55-5.65s5.34,1.73,5.65,4.55l4.79,44.38c.3,2.82-1.73,5.34-4.55,5.65-.36,.03-.71,.03-1.06,0Z"/></g><g><path d="M292.96,179.3h15.16v20.69c-2.48,.81-4.86,1.38-7.14,1.72-2.28,.34-4.75,.51-7.4,.51-6.24,0-11.05-1.85-14.43-5.54-3.38-3.69-5.07-8.9-5.07-15.63s1.91-11.82,5.72-15.57c3.81-3.75,9.06-5.62,15.75-5.62,4.3,0,8.38,.83,12.23,2.48l-2.37,5.61c-3.34-1.54-6.69-2.31-10.03-2.31-4.4,0-7.87,1.38-10.43,4.14-2.56,2.76-3.83,6.54-3.83,11.33,0,5.04,1.15,8.86,3.45,11.48,2.3,2.62,5.61,3.93,9.93,3.93,2.18,0,4.51-.27,6.99-.82v-10.62h-8.54v-5.78Z" fill="#707070"/><path d="M344.95,186.01c0,5.09-1.31,9.06-3.92,11.92s-6.25,4.28-10.91,4.28c-2.91,0-5.49-.66-7.72-1.97-2.24-1.31-3.96-3.2-5.16-5.66-1.2-2.46-1.8-5.32-1.8-8.57,0-5.05,1.3-9,3.89-11.84,2.59-2.84,6.25-4.26,10.96-4.26s8.08,1.45,10.71,4.35c2.63,2.9,3.95,6.82,3.95,11.74Zm-22.69,0c0,7.2,2.66,10.79,7.98,10.79s7.89-3.6,7.89-10.79-2.65-10.68-7.95-10.68c-2.78,0-4.8,.92-6.04,2.76-1.25,1.84-1.87,4.48-1.87,7.92Z" fill="#707070"/><path d="M380.21,186.01c0,5.09-1.31,9.06-3.92,11.92s-6.25,4.28-10.91,4.28c-2.91,0-5.49-.66-7.72-1.97-2.24-1.31-3.96-3.2-5.16-5.66-1.2-2.46-1.8-5.32-1.8-8.57,0-5.05,1.3-9,3.89-11.84,2.59-2.84,6.25-4.26,10.96-4.26s8.08,1.45,10.71,4.35c2.63,2.9,3.95,6.82,3.95,11.74Zm-22.69,0c0,7.2,2.66,10.79,7.98,10.79s7.89-3.6,7.89-10.79-2.65-10.68-7.95-10.68c-2.78,0-4.8,.92-6.04,2.76-1.25,1.84-1.87,4.48-1.87,7.92Z" fill="#707070"/><path d="M414.13,170.48v3.64l-5.33,.99c.49,.66,.89,1.47,1.21,2.42,.32,.96,.48,1.97,.48,3.04,0,3.21-1.11,5.74-3.33,7.58-2.22,1.84-5.27,2.76-9.16,2.76-1,0-1.9-.08-2.71-.23-1.43,.88-2.14,1.92-2.14,3.1,0,.71,.33,1.25,1,1.61,.67,.36,1.89,.54,3.68,.54h5.44c3.44,0,6.05,.73,7.83,2.2,1.78,1.47,2.68,3.58,2.68,6.34,0,3.53-1.46,6.26-4.37,8.17-2.91,1.92-7.12,2.87-12.63,2.87-4.25,0-7.49-.75-9.72-2.25-2.24-1.5-3.35-3.65-3.35-6.43,0-1.92,.61-3.53,1.82-4.83,1.21-1.31,2.91-2.21,5.09-2.72-.88-.38-1.61-.98-2.18-1.82-.57-.84-.86-1.71-.86-2.63,0-1.16,.33-2.15,.99-2.96,.66-.81,1.63-1.61,2.93-2.4-1.62-.69-2.93-1.83-3.93-3.4-1.01-1.57-1.51-3.4-1.51-5.51,0-3.38,1.07-6,3.2-7.86,2.13-1.86,5.17-2.79,9.12-2.79,.88,0,1.81,.06,2.78,.18,.97,.12,1.7,.25,2.18,.38h10.79Zm-24.49,36.02c0,1.43,.64,2.53,1.93,3.3,1.29,.77,3.1,1.16,5.42,1.16,3.61,0,6.29-.52,8.06-1.55,1.77-1.03,2.65-2.41,2.65-4.11,0-1.35-.48-2.32-1.45-2.89-.97-.57-2.77-.86-5.4-.86h-5.02c-1.9,0-3.41,.45-4.52,1.34-1.12,.89-1.68,2.1-1.68,3.62Zm2.85-25.93c0,1.95,.5,3.46,1.51,4.51,1,1.05,2.45,1.58,4.33,1.58,3.83,0,5.75-2.05,5.75-6.14,0-2.03-.47-3.59-1.42-4.69s-2.39-1.65-4.33-1.65-3.37,.54-4.35,1.63c-.99,1.09-1.48,2.68-1.48,4.76Z" fill="#707070"/><path d="M426.53,201.65h-6.62v-43.85h6.62v43.85Z" fill="#707070"/><path d="M449.62,202.21c-4.85,0-8.64-1.41-11.37-4.24-2.73-2.83-4.1-6.72-4.1-11.68s1.27-9.09,3.8-12c2.54-2.91,6.02-4.37,10.46-4.37,4.11,0,7.36,1.25,9.75,3.75,2.39,2.5,3.58,5.94,3.58,10.31v3.58h-20.77c.09,3.03,.91,5.35,2.45,6.98s3.71,2.44,6.51,2.44c1.84,0,3.56-.17,5.14-.52,1.59-.35,3.29-.93,5.12-1.73v5.38c-1.62,.77-3.25,1.31-4.9,1.63s-3.54,.48-5.66,.48Zm-1.21-27.28c-2.1,0-3.79,.67-5.06,2s-2.02,3.28-2.27,5.83h14.15c-.04-2.57-.66-4.52-1.86-5.85-1.2-1.32-2.86-1.99-4.96-1.99Z" fill="#707070"/><path d="M510.51,201.65l-4.11-11.44h-15.75l-4.03,11.44h-7.1l15.42-41.37h7.33l15.42,41.37h-7.16Zm-5.89-17.25l-3.86-11.22c-.28-.75-.67-1.94-1.17-3.55-.5-1.62-.84-2.8-1.03-3.55-.51,2.31-1.25,4.84-2.23,7.58l-3.72,10.74h12Z" fill="#707070"/><path d="M549.83,201.65h-6.65v-19.16c0-2.4-.48-4.2-1.45-5.38-.97-1.18-2.5-1.78-4.61-1.78-2.8,0-4.85,.83-6.14,2.48-1.3,1.65-1.94,4.42-1.94,8.31v15.53h-6.62v-31.17h5.19l.93,4.09h.34c.94-1.48,2.27-2.63,4-3.44s3.65-1.21,5.75-1.21c7.48,0,11.22,3.8,11.22,11.41v20.32Z" fill="#707070"/><path d="M578.54,201.65l-1.32-4.34h-.23c-1.5,1.9-3.02,3.19-4.54,3.88-1.52,.69-3.48,1.03-5.86,1.03-3.06,0-5.45-.83-7.17-2.48-1.72-1.65-2.58-3.99-2.58-7.02,0-3.21,1.19-5.64,3.58-7.27,2.39-1.63,6.02-2.53,10.91-2.68l5.38-.17v-1.66c0-1.99-.46-3.48-1.39-4.47-.93-.99-2.37-1.48-4.33-1.48-1.6,0-3.13,.23-4.59,.7-1.47,.47-2.87,1.02-4.23,1.66l-2.14-4.73c1.69-.88,3.54-1.55,5.55-2.01,2.01-.46,3.91-.69,5.69-.69,3.96,0,6.96,.86,8.98,2.59,2.02,1.73,3.03,4.44,3.03,8.14v21h-4.73Zm-9.86-4.51c2.4,0,4.33-.67,5.79-2.02,1.46-1.34,2.18-3.23,2.18-5.65v-2.71l-4,.17c-3.12,.11-5.39,.63-6.81,1.56s-2.13,2.35-2.13,4.27c0,1.39,.41,2.47,1.24,3.23s2.07,1.14,3.72,1.14Z" fill="#707070"/><path d="M599.14,201.65h-6.62v-43.85h6.62v43.85Z" fill="#707070"/><path d="M603.88,170.48h7.21l6.34,17.67c.96,2.52,1.6,4.89,1.92,7.1h.23c.17-1.03,.48-2.29,.93-3.76,.45-1.47,2.84-8.48,7.16-21.01h7.16l-13.33,35.31c-2.42,6.48-6.46,9.72-12.12,9.72-1.47,0-2.89-.16-4.28-.48v-5.24c1,.23,2.13,.34,3.41,.34,3.19,0,5.44-1.85,6.74-5.55l1.16-2.93-12.51-31.17Z" fill="#707070"/><path d="M651.17,196.86c1.62,0,3.23-.25,4.85-.76v4.99c-.73,.32-1.68,.59-2.83,.8-1.16,.22-2.35,.32-3.59,.32-6.28,0-9.41-3.31-9.41-9.92v-16.8h-4.26v-2.93l4.57-2.42,2.25-6.59h4.09v6.93h8.88v5.02h-8.88v16.68c0,1.6,.4,2.78,1.2,3.54,.8,.76,1.85,1.14,3.14,1.14Z" fill="#707070"/><path d="M661.85,162.22c0-1.18,.32-2.09,.97-2.73,.65-.64,1.57-.96,2.78-.96s2.07,.32,2.72,.96c.65,.64,.97,1.55,.97,2.73s-.32,2.01-.97,2.66c-.65,.65-1.56,.97-2.72,.97s-2.13-.32-2.78-.97c-.65-.65-.97-1.54-.97-2.66Zm7.02,39.43h-6.62v-31.17h6.62v31.17Z" fill="#707070"/><path d="M690.9,202.21c-4.72,0-8.3-1.38-10.75-4.13-2.45-2.75-3.68-6.7-3.68-11.85s1.28-9.27,3.85-12.09c2.56-2.82,6.27-4.23,11.12-4.23,3.29,0,6.25,.61,8.88,1.83l-2,5.33c-2.8-1.09-5.11-1.63-6.93-1.63-5.39,0-8.09,3.58-8.09,10.74,0,3.49,.67,6.12,2.02,7.88,1.34,1.76,3.31,2.63,5.9,2.63,2.95,0,5.74-.73,8.37-2.2v5.78c-1.18,.7-2.45,1.19-3.79,1.49-1.34,.3-2.97,.45-4.89,.45Z" fill="#707070"/><path d="M727.85,192.77c0,3.04-1.11,5.38-3.33,7-2.22,1.62-5.39,2.44-9.53,2.44s-7.49-.63-10-1.89v-5.72c3.66,1.69,7.07,2.54,10.23,2.54,4.08,0,6.12-1.23,6.12-3.69,0-.79-.23-1.45-.68-1.97-.45-.53-1.19-1.07-2.23-1.63-1.03-.56-2.47-1.2-4.31-1.92-3.59-1.39-6.02-2.78-7.28-4.17-1.27-1.39-1.9-3.19-1.9-5.41,0-2.67,1.08-4.74,3.23-6.21,2.15-1.47,5.08-2.21,8.78-2.21s7.13,.74,10.4,2.23l-2.14,4.99c-3.36-1.39-6.19-2.09-8.48-2.09-3.49,0-5.24,1-5.24,2.99,0,.98,.46,1.8,1.37,2.48,.91,.68,2.9,1.61,5.96,2.79,2.57,1,4.44,1.91,5.61,2.73,1.16,.83,2.03,1.78,2.59,2.86,.56,1.08,.85,2.37,.85,3.88Z" fill="#707070"/><path d="M747.57,185.84c0-4.98,.73-9.64,2.18-13.98,1.46-4.34,3.56-8.14,6.3-11.41h5.78c-2.61,3.53-4.61,7.49-6,11.88-1.39,4.39-2.09,8.87-2.09,13.46s.69,9.03,2.09,13.33c1.39,4.3,3.37,8.19,5.95,11.67h-5.72c-2.76-3.19-4.87-6.92-6.31-11.19-1.45-4.26-2.17-8.85-2.17-13.75Z" fill="#707070"/><path d="M785.85,179.3h15.16v20.69c-2.48,.81-4.86,1.38-7.14,1.72-2.28,.34-4.75,.51-7.4,.51-6.24,0-11.05-1.85-14.43-5.54-3.38-3.69-5.07-8.9-5.07-15.63s1.91-11.82,5.72-15.57c3.81-3.75,9.06-5.62,15.75-5.62,4.3,0,8.38,.83,12.23,2.48l-2.37,5.61c-3.34-1.54-6.69-2.31-10.03-2.31-4.4,0-7.87,1.38-10.43,4.14-2.56,2.76-3.83,6.54-3.83,11.33,0,5.04,1.15,8.86,3.45,11.48,2.3,2.62,5.61,3.93,9.93,3.93,2.18,0,4.51-.27,6.99-.82v-10.62h-8.54v-5.78Z" fill="#707070"/><path d="M836.46,201.65l-4.11-11.44h-15.75l-4.03,11.44h-7.1l15.42-41.37h7.33l15.42,41.37h-7.16Zm-5.89-17.25l-3.86-11.22c-.28-.75-.67-1.94-1.17-3.55-.5-1.62-.84-2.8-1.03-3.55-.51,2.31-1.25,4.84-2.23,7.58l-3.72,10.74h12Z" fill="#707070"/><path d="M875.55,192.66h-5.55v8.99h-6.45v-8.99h-18.83v-5.1l18.83-27.22h6.45v26.83h5.55v5.5Zm-12-5.5v-10.34c0-3.68,.09-6.7,.28-9.05h-.23c-.53,1.24-1.35,2.74-2.48,4.51l-10.23,14.88h12.65Z" fill="#707070"/><path d="M892.54,185.84c0,4.94-.73,9.54-2.18,13.81-1.46,4.26-3.56,7.98-6.3,11.13h-5.72c2.59-3.51,4.58-7.41,5.96-11.7s2.07-8.72,2.07-13.3-.7-9.09-2.09-13.46c-1.39-4.37-3.39-8.33-6-11.88h5.78c2.76,3.29,4.87,7.11,6.31,11.46,1.45,4.35,2.17,8.99,2.17,13.94Z" fill="#707070"/></g></svg>