<?xml version="1.0" encoding="UTF-8"?>
<svg id="Layer_1" data-name="Layer 1" xmlns="http://www.w3.org/2000/svg" viewBox="0 0 128 128">
  <defs>
    <style>
      .cls-1 {
        fill: #fff;
      }

      .cls-2 {
        fill: #ffd400;
      }

      .cls-3 {
        fill: #ef3e2f;
      }

      .cls-4 {
        fill: #868d93;
      }
    </style>
  </defs>
  <g>
    <ellipse class="cls-4" cx="52" cy="121.35" rx="16.55" ry="1.98"/>
    <g>
      <path class="cls-1" d="m64.47,31.11c-13.18-3.42-40.09-2.61-48.68,23.81-8.58,26.4,15.47,44.65,31.95,48.32,16.94,3.78,40.57-.82,47.49-25.08,7.02-24.59-13.96-42.69-30.76-47.06Z"/>
      <path d="m58.42,106.19c-3.75,0-7.49-.42-11.06-1.22-10.19-2.27-23.58-10.03-30.55-22.24-4.96-8.7-5.9-18.51-2.7-28.35,9.05-27.84,37.19-28.51,50.8-24.98h0c11.65,3.03,22.94,11.54,28.74,21.69,4.86,8.5,5.99,18.03,3.27,27.56-5.6,19.62-22.26,27.54-38.52,27.54Zm-5.87-74.76c-12.91,0-28.91,5.09-35.07,24.05-2.93,9-2.12,17.59,2.4,25.51,6.43,11.27,18.82,18.44,28.25,20.54,13.48,3.01,38.22,1.37,45.41-23.84,2.49-8.71,1.5-17.07-2.94-24.84-5.36-9.37-15.79-17.23-26.56-20.03h0c-3.15-.82-7.14-1.39-11.48-1.39Z"/>
    </g>
    <path d="m24.18,60.29c-5.45,14.85,5.49,30.37,26.21,34.9,22.18,4.85,33.15-7.72,35.86-17.67,2.7-9.95-3.43-25.77-24.23-31.49-19.79-5.44-33.15,1.5-37.83,14.26Z"/>
    <path class="cls-1" d="m44.29,62.21c-.49,3.08-1.48,6.12-2.83,8.92-.6,1.3-2.17,1.86-3.43,1.14-3.06-1.75-.1-10.32,2.1-12.26,1.69-1.79,4.66-.17,4.17,2.19h0Z"/>
    <path class="cls-1" d="m73.09,70.91c-1.84,1.54-3.83,2.83-5.86,4.06l.53-2.49c1.25,1.88,2.46,3.79,3.51,5.8.36.68.09,1.52-.59,1.87-.58.3-1.28.16-1.69-.32-1.49-1.71-2.84-3.53-4.13-5.38-.57-.81-.34-1.94.49-2.47,2.02-1.27,4.08-2.48,6.29-3.44,1.45-.65,2.67,1.36,1.45,2.35h0Z"/>
    <path d="m20.08,60.85c-1.17,4.56-3.35,7.94-6.22,7.21s-5.34-5.31-4.17-9.87,5.53-7.38,8.4-6.65c2.87.73,3.15,4.75,1.98,9.31Z"/>
    <path class="cls-3" d="m51.09,19.11c-1.01,1.89,9.52,11.7,11.85,12.66l5.4-11.29s-16.1-3.54-17.26-1.37Z"/>
    <path d="m62.31,39.87c-.27,0-.54-.05-.81-.15-1.22-.45-1.85-1.8-1.4-3.02l5.96-16.21c.45-1.22,1.8-1.85,3.02-1.4,1.22.45,1.85,1.8,1.4,3.02l-5.96,16.21c-.35.95-1.25,1.54-2.21,1.54Z"/>
    <path class="cls-3" d="m50.94,69.3c1.14,1.97,3.44,3.19,5.67,2.55.76-.18,1.46-.56,2.05-1.03.75-.64,1.85.38,1.3,1.18-1.95,2.95-6.49,3.12-8.92.69-.77-.72-2.78-3.19-1.12-3.85.42-.11.84.09,1.03.46h0Z"/>
    <path d="m91.49,42.19c-.14,0-.28-.02-.41-.07-.48-.15-.84-.56-.93-1.06l-1.16-6.47c-3.45-1.06-5.46-3.51-6.13-7.45-.87-5.15-1.4-10.61-1.43-14.62-.02-4.49,3.46-8.04,8.48-8.65,4.91-.59,14.65-1.64,24.75-2.07,6.63-.3,10.71,3.13,11.11,9.36h0c.26,4.1-.17,12.06-.85,15.78-.91,4.98-4.16,7.65-9.93,8.18-4.97.46-11,.63-16.25.48l-6.31,6.21c-.26.25-.6.39-.96.39Z"/>
    <path d="m91.84,76.31c-1.08,4.59-1.52,8.34,1.36,9.01,2.88.68,7.19-2.23,8.26-6.82,1.08-4.59-1.49-9.11-4.37-9.79-2.88-.68-4.18,3-5.25,7.59Z"/>
  </g>
  <polygon class="cls-2" points="112.47 29.95 104.34 24.95 97.07 31.14 99.31 21.86 91.18 16.85 100.7 16.12 102.94 6.84 106.58 15.67 116.1 14.94 108.83 21.12 112.47 29.95"/>
</svg>