<svg xmlns="http://www.w3.org/2000/svg" viewBox="0 0 148 98.90002"><title>updates-on</title><path d="M139.6,47a30.07262,30.07262,0,0,0-20.2-9.7,44.64368,44.64368,0,0,0-15.9-26.7A45.07344,45.07344,0,0,0,74,0,44.13792,44.13792,0,0,0,50,6.9,47.90514,47.90514,0,0,0,33,25.1a35.62344,35.62344,0,0,0-23.4,12A36.05162,36.05162,0,0,0,0,61.9,35.55854,35.55854,0,0,0,10.8,88,35.8749,35.8749,0,0,0,37,98.9h80.1a29.45352,29.45352,0,0,0,21.8-9.1A30,30,0,0,0,148,68,29.30322,29.30322,0,0,0,139.6,47ZM61.6,80.4,40.2,58.7,48.9,50,61.6,62.7,93.7,30.9l8.7,8.7Z" fill="#0085ba"/></svg>