<svg xmlns="http://www.w3.org/2000/svg" viewBox="0 0 149 132.79999"><title>updates-off</title><path d="M0,66.4A64.22781,64.22781,0,0,1,14,25.7,63.69727,63.69727,0,0,1,49.7,2.4v17A48.16566,48.16566,0,0,0,25.8,37.2a48.91393,48.91393,0,0,0-9.1,29.2c0,13.7,4.8,25.4,14.4,34.9L49.7,83.1v49.7H0L19.4,113Q.05,93.5,0,66.4Z" fill="#0085ba"/><rect x="66.4" y="24.9" width="16.3" height="49.7" fill="#f15a24"/><rect x="66.4" y="91.2" width="16.3" height="16.7" fill="#f15a24"/><path d="M149,0,129.6,19.8Q148.95,39.3,149,66.4a64.22777,64.22777,0,0,1-14,40.7,63.69732,63.69732,0,0,1-35.7,23.3v-17a48.83206,48.83206,0,0,0,33-46.9c0-13.7-4.8-25.4-14.4-34.9L99.3,49.7V0Z" fill="#0085ba"/></svg>