<svg id="Layer_1" data-name="Layer 1" xmlns="http://www.w3.org/2000/svg" viewBox="0 0 522 625"><defs><style>.cls-1{fill:#fff;}</style></defs><title>XproX</title><path class="cls-1" d="M180.62,325.39a75.64,75.64,0,0,1,0-107l23.29-23.29-78.86-78.86a67.59,67.59,0,0,0-95.59,95.59l95.59,95.58a67.59,67.59,0,0,1,0,95.59L29.46,498.62a67.59,67.59,0,1,0,95.59,95.58L287.24,432Z"/><path class="cls-1" d="M400.26,221.22l95.58-95.59a67.57,67.57,0,0,0,0-95.58h0a67.57,67.57,0,0,0-95.58,0L209.08,221.22a67.6,67.6,0,0,0,0,95.59L400.26,508a67.57,67.57,0,0,0,95.58,0h0a67.59,67.59,0,0,0,0-95.59l-95.58-95.58A67.59,67.59,0,0,1,400.26,221.22Z"/></svg>