<svg xmlns="http://www.w3.org/2000/svg" width="60" height="60" viewBox="0 0 60 60">
  <g id="schedule-calendar" transform="translate(-990 -530)">
    <circle id="Ellipse_1" data-name="Ellipse 1" cx="30" cy="30" r="30" transform="translate(990 530)" fill="#0b4387"/>
    <path id="schedule-calendar-2" data-name="schedule-calendar" d="M27.312,30.88H2.825A2.835,2.835,0,0,1,0,28.055V5.667A2.835,2.835,0,0,1,2.825,2.842H5.431V6.318A3.1,3.1,0,0,0,6.6,8.733a3.656,3.656,0,0,0,4.6,0,3.1,3.1,0,0,0,1.174-2.415V2.842h5.262V6.318a3.1,3.1,0,0,0,1.174,2.415,3.656,3.656,0,0,0,4.6,0A3.1,3.1,0,0,0,24.59,6.318V2.842h2.722a2.84,2.84,0,0,1,2.825,2.825V28.055A2.832,2.832,0,0,1,27.312,30.88ZM21,14.266H25.05a.52.52,0,0,1,.518.5v3.367a.52.52,0,0,1-.518.5H21a.518.518,0,0,1-.5-.5V14.782a.515.515,0,0,1,.5-.5Zm-7.919,0h4.048a.518.518,0,0,1,.5.5v3.367a.52.52,0,0,1-.5.5H13.085a.518.518,0,0,1-.5-.5V14.782a.518.518,0,0,1,.5-.5Zm-8,0H9.132a.518.518,0,0,1,.5.5v3.367a.52.52,0,0,1-.5.5H5.084a.518.518,0,0,1-.515-.5V14.782a.515.515,0,0,1,.515-.5ZM21,21.426H25.05a.52.52,0,0,1,.518.5V25.3a.518.518,0,0,1-.518.515H21a.518.518,0,0,1-.5-.515V21.941a.518.518,0,0,1,.5-.5Zm-7.919,0h4.048a.518.518,0,0,1,.5.5V25.3a.518.518,0,0,1-.5.515H13.085a.518.518,0,0,1-.5-.515V21.941a.52.52,0,0,1,.5-.5Zm-8,0H9.132a.518.518,0,0,1,.5.5V25.3a.518.518,0,0,1-.5.515H5.084a.518.518,0,0,1-.515-.515V21.941a.518.518,0,0,1,.515-.5ZM19.752,1.118A1.254,1.254,0,0,1,21.109,0a1.261,1.261,0,0,1,1.365,1.118v5.2a1.258,1.258,0,0,1-1.365,1.118,1.257,1.257,0,0,1-1.362-1.118v-5.2Zm-12.213,0A1.264,1.264,0,0,1,8.906,0a1.259,1.259,0,0,1,1.362,1.118v5.2A1.257,1.257,0,0,1,8.906,7.436,1.262,1.262,0,0,1,7.539,6.318ZM.9,11.022V27.754a2.229,2.229,0,0,0,2.222,2.222H27a2.229,2.229,0,0,0,2.224-2.222V11.022Z" transform="translate(1005 545)" fill="#fff"/>
  </g>
</svg>
