<svg xmlns="http://www.w3.org/2000/svg" width="60" height="60" viewBox="0 0 60 60">
  <g id="total-donation" transform="translate(-990 -530)">
    <circle id="Ellipse_1" data-name="Ellipse 1" cx="30" cy="30" r="30" transform="translate(990 530)" fill="#2ba9b0"/>
    <path id="payment-dollar" d="M0,14.62H7.544V28.043H0ZM27.675,7.432A3.777,3.777,0,1,1,23.9,11.208a3.777,3.777,0,0,1,3.774-3.777Zm0-1.957a2.376,2.376,0,1,1,0-.006Zm3.667,2.066a5.183,5.183,0,1,0,1.519,3.667A5.183,5.183,0,0,0,31.343,7.541ZM27.42,13.213a2.488,2.488,0,0,1-.325-.052,2.7,2.7,0,0,1-.608-.2A1.79,1.79,0,0,1,26,12.636l.462-.911a1.41,1.41,0,0,0,.395.28,2.291,2.291,0,0,0,.5.185,1.9,1.9,0,0,0,.45.064.954.954,0,0,0,.322-.043.158.158,0,0,0,.109-.158.155.155,0,0,0-.091-.134,1.3,1.3,0,0,0-.276-.1l-.665-.185a2.178,2.178,0,0,1-.507-.21,1.079,1.079,0,0,1-.392-.355.954.954,0,0,1-.149-.55,1.337,1.337,0,0,1,.188-.711,1.264,1.264,0,0,1,.547-.471,1.7,1.7,0,0,1,.52-.146v-.5h.693V9.2a2.306,2.306,0,0,1,.541.125,1.957,1.957,0,0,1,.687.416l-.456.836a2.37,2.37,0,0,0-.529-.322,1.553,1.553,0,0,0-.638-.128,1.161,1.161,0,0,0-.276.027.337.337,0,0,0-.155.079.158.158,0,0,0-.046.115.143.143,0,0,0,.1.134,2.7,2.7,0,0,0,.407.137l.474.122a1.823,1.823,0,0,1,.787.383.939.939,0,0,1,.273.726,1.392,1.392,0,0,1-.2.79,1.176,1.176,0,0,1-.547.453,1.941,1.941,0,0,1-.41.115v.52H27.42ZM9.063,26.916V15.7H14.11a19.034,19.034,0,0,1,6.417,2.889h3.919c1.774.106,2.7,1.9.978,3.087-1.373,1.006-3.187.951-5.044.784a.844.844,0,1,0,0,1.665c.462.036.966-.073,1.41-.073,2.318,0,4.229-.447,5.4-2.279l.586-1.37,5.83-2.892c2.917-.96,4.989,2.093,2.841,4.214a76.385,76.385,0,0,1-12.982,7.641,8.79,8.79,0,0,1-9.65,0Zm7.9-25.251a3.126,3.126,0,1,1-3.126,3.126,3.126,3.126,0,0,1,3.126-3.126Zm0-1.665a4.791,4.791,0,1,1-3.388,1.4A4.792,4.792,0,0,1,16.963,0Zm3,1.79a4.235,4.235,0,1,0,1.246,3,4.235,4.235,0,0,0-1.246-3ZM16.75,6.453a1.36,1.36,0,0,1-.267-.043,2.373,2.373,0,0,1-.5-.17,1.586,1.586,0,0,1-.4-.264l.386-.744a1.155,1.155,0,0,0,.325.231,2.057,2.057,0,0,0,.413.155,1.68,1.68,0,0,0,.371.052.842.842,0,0,0,.267-.033.134.134,0,0,0,.091-.134.122.122,0,0,0-.076-.109,1.009,1.009,0,0,0-.228-.085l-.553-.143a1.8,1.8,0,0,1-.419-.173.911.911,0,0,1-.325-.3.8.8,0,0,1-.122-.456,1.109,1.109,0,0,1,.155-.586,1.036,1.036,0,0,1,.456-.392,1.474,1.474,0,0,1,.428-.118V2.707h.568v.419a2.042,2.042,0,0,1,.447.1,1.686,1.686,0,0,1,.571.346l-.374.678a2.084,2.084,0,0,0-.438-.267,1.346,1.346,0,0,0-.529-.1.912.912,0,0,0-.228.024.264.264,0,0,0-.128.064.128.128,0,0,0-.04.094.125.125,0,0,0,.082.112,2.157,2.157,0,0,0,.337.112l.392.1a1.492,1.492,0,0,1,.653.3.784.784,0,0,1,.219.608,1.17,1.17,0,0,1-.167.656,1.021,1.021,0,0,1-.456.374,1.492,1.492,0,0,1-.337.094V6.86H16.75Z" transform="translate(1003 544)" fill="#fff" fill-rule="evenodd"/>
  </g>
</svg>
