<svg width="30" height="30" viewBox="0 0 16 16" fill="none" xmlns="http://www.w3.org/2000/svg">
    <path d="M12.3133 11.22L12.5733 13.3267C12.64 13.88 12.0466 14.2666 11.5733 13.98L8.77998 12.32C8.47331 12.32 8.17332 12.3 7.87998 12.26C8.37332 11.68 8.66665 10.9467 8.66665 10.1533C8.66665 8.25999 7.02665 6.72669 4.99998 6.72669C4.22665 6.72669 3.51332 6.94667 2.91998 7.33333C2.89998 7.16667 2.89331 6.99999 2.89331 6.82666C2.89331 3.79333 5.52665 1.33333 8.77998 1.33333C12.0333 1.33333 14.6666 3.79333 14.6666 6.82666C14.6666 8.62666 13.74 10.22 12.3133 11.22Z" stroke="#696778" stroke-linecap="round" stroke-linejoin="round"/>
    <path d="M8.66665 10.1533C8.66665 10.9467 8.37332 11.68 7.87998 12.26C7.21998 13.06 6.17331 13.5733 4.99998 13.5733L3.25998 14.6066C2.96665 14.7866 2.59331 14.54 2.63331 14.2L2.79998 12.8867C1.90664 12.2667 1.33331 11.2733 1.33331 10.1533C1.33331 8.97999 1.95998 7.94667 2.91998 7.33333C3.51332 6.94667 4.22665 6.72668 4.99998 6.72668C7.02665 6.72668 8.66665 8.25999 8.66665 10.1533Z" stroke="#696778" stroke-linecap="round" stroke-linejoin="round"/>
</svg>
