<svg xmlns="http://www.w3.org/2000/svg" viewBox="0 0 40.13 33.89"><defs><style>.cls-1{fill:#231f20;}.cls-2{fill:#a7a9ac;}.cls-3{fill:#fff;}.cls-4{fill:#010101;}.cls-5{fill:#070707;}</style></defs><title>Group</title><g id="Layer_2" data-name="Layer 2"><g id="Layer_1-2" data-name="Layer 1"><g id="Group"><g id="Combined-Shape"><path class="cls-1" d="M38.51,2.87V2.06a.8.8,0,0,0-.8-.8h-.27a.8.8,0,0,0-.81.8h0v.81h-.81a.8.8,0,0,0-.8.81h0V4h0a.8.8,0,0,0,.8.8h.81v.81a.8.8,0,0,0,.81.8h.27a.8.8,0,0,0,.8-.8h0V4.75h.81a.8.8,0,0,0,.8-.8h0V3.68a.8.8,0,0,0-.8-.81h-.81Z"/></g><g id="Logo"><g id="Fill-1"><polygon class="cls-2" points="21.12 7 12.67 6.95 16.82 33.32 17.72 33.32 26.02 33.32 26.93 33.32 31.08 6.95 21.12 7"/></g><g id="Fill-2"><polygon class="cls-1" points="21.12 7 12.67 6.95 16.82 33.32 17.72 33.32 23.91 33.32 24.82 33.32 28.97 6.95 21.12 7"/></g><g id="Fill-3"><polygon class="cls-3" points="10.25 6.95 32.06 6.95 32.06 4.52 10.25 4.52 10.25 6.95"/></g><g id="Stroke-4"><path class="cls-4" d="M32.63,7.52H9.69V4H32.63ZM10.82,6.38H31.5V5.08H10.82Z"/></g><g id="Fill-6"><polygon class="cls-3" points="27.84 0.57 22.63 0.57 19.53 0.57 14.33 0.57 12.74 4.21 19.53 4.21 22.63 4.21 29.42 4.21 27.84 0.57"/></g><g id="Group-11"><g id="Stroke-7"><path class="cls-5" d="M30.28,4.78H11.88L14,0H28.21ZM13.6,3.65h15l-1.1-2.52H14.7Z"/></g><g id="Stroke-9"><path class="cls-4" d="M27.41,33.89H14.82L10.49,6.38l10.63,0,10.62,0ZM15.79,32.75H26.45l4-25.23-9.3.05-9.3-.05Z"/></g></g><g id="Fill-12"><polygon class="cls-3" points="31.38 14.4 21.44 14.4 20.72 14.4 10.78 14.4 12.64 24.88 21.08 24.79 29.52 24.88 31.38 14.4"/></g><g id="Stroke-13"><path class="cls-4" d="M30,25.46l-8.92-.1-8.91.1L10.1,13.83h22Zm-8.92-1.23,8,.08L30.71,15H11.45l1.66,9.35Z"/></g></g><g id="Oval"><path class="cls-2" d="M3.1,13.66a3.1,3.1,0,1,1,3.1-3.1A3.1,3.1,0,0,1,3.1,13.66Zm0-4.38a1.28,1.28,0,1,0,1.28,1.28A1.29,1.29,0,0,0,3.1,9.28Z"/></g><g id="Oval-2" data-name="Oval"><circle class="cls-2" cx="35.38" cy="19.86" r="1.46"/></g><g id="Oval-3" data-name="Oval"><circle class="cls-1" cx="8.02" cy="28.25" r="1.46"/></g></g></g></g></svg>