<svg width="72" height="59" viewBox="0 0 72 59" version="1.1" xmlns="http://www.w3.org/2000/svg" xmlns:xlink="http://www.w3.org/1999/xlink">
<title>Slice 2</title>
<desc>Created using Figma</desc>
<g id="Canvas" transform="translate(-2169 -197)">
<g id="Group">
<g id="logo refresh and icon">
<g id="Logo">
<g id="Fill 1">
<use xlink:href="#path0_fill" transform="translate(2191.12 211.694)" fill="#FF9100"/>
</g>
<g id="Fill 2">
<use xlink:href="#path1_fill" transform="translate(2191.12 211.694)" fill="#FFDD00"/>
</g>
<g id="Fill 3">
<use xlink:href="#path2_fill" transform="translate(2187.06 207.644)" fill="#FFFFFF"/>
</g>
<g id="Stroke 4">
<use xlink:href="#path3_stroke" transform="translate(2187.06 207.644)"/>
</g>
<g id="Fill 6">
<use xlink:href="#path4_fill" transform="translate(2191.25 201.063)" fill="#FFFFFF"/>
</g>
<g id="Group 11">
<g id="Stroke 7">
<use xlink:href="#path5_stroke" transform="translate(2191.25 201.063)" fill="#050505"/>
</g>
<g id="Stroke 9">
<use xlink:href="#path6_stroke" transform="translate(2188.59 211.694)"/>
</g>
</g>
<g id="Fill 12">
<use xlink:href="#path7_fill" transform="translate(2187.95 224.096)" fill="#FFFFFF"/>
</g>
<g id="Stroke 13">
<use xlink:href="#path8_stroke" transform="translate(2187.95 224.096)"/>
</g>
</g>
<g id="Oval">
<mask id="mask0_outline_ins">
<use xlink:href="#path9_fill" fill="white" transform="translate(2171 213)"/>
</mask>
<g mask="url(#mask0_outline_ins)">
<use xlink:href="#path10_stroke_2x" transform="translate(2171 213)" fill="#EEEEEE"/>
</g>
</g>
<g id="Oval">
<use xlink:href="#path11_fill" transform="translate(2227 230)" fill="#EEEEEE"/>
</g>
<g id="Oval">
<use xlink:href="#path11_fill" transform="translate(2182 244)" fill="#FF813F"/>
</g>
</g>
</g>
</g>
<defs>
<path id="path0_fill" fill-rule="evenodd" d="M 14.2044 0.0852984L 0 0L 6.97539 43.9148L 8.49729 43.9148L 22.4481 43.9148L 23.97 43.9148L 30.9454 0L 14.2044 0.0852984Z"/>
<path id="path1_fill" fill-rule="evenodd" d="M 14.2044 0.0852984L 0 0L 6.97539 43.9148L 8.49729 43.9148L 18.897 43.9148L 20.4189 43.9148L 27.3943 0L 14.2044 0.0852984Z"/>
<path id="path2_fill" fill-rule="evenodd" d="M 0 4.04978L 36.6525 4.04978L 36.6525 0L 0 0L 0 4.04978Z"/>
<path id="path3_stroke" d="M 0 4.04978L -0.616988 4.04978L -0.616988 4.66676L 0 4.66676L 0 4.04978ZM 36.6525 4.04978L 36.6525 4.66676L 37.2695 4.66676L 37.2695 4.04978L 36.6525 4.04978ZM 36.6525 0L 37.2695 0L 37.2695 -0.616988L 36.6525 -0.616988L 36.6525 0ZM 0 0L 0 -0.616988L -0.616988 -0.616988L -0.616988 0L 0 0ZM 0 4.66676L 36.6525 4.66676L 36.6525 3.43279L 0 3.43279L 0 4.66676ZM 37.2695 4.04978L 37.2695 0L 36.0355 0L 36.0355 4.04978L 37.2695 4.04978ZM 36.6525 -0.616988L 0 -0.616988L 0 0.616988L 36.6525 0.616988L 36.6525 -0.616988ZM -0.616988 0L -0.616988 4.04978L 0.616988 4.04978L 0.616988 0L -0.616988 0Z"/>
<path id="path4_fill" fill-rule="evenodd" d="M 25.3651 0L 16.6141 0L 11.4143 0L 2.66333 0L 0 6.07466L 11.4143 6.07466L 16.6141 6.07466L 28.0284 6.07466L 25.3651 0Z"/>
<path id="path5_stroke" d="M 25.3651 0L 25.9301 -0.247743L 25.7682 -0.616988L 25.3651 -0.616988L 25.3651 0ZM 2.66333 0L 2.66333 -0.616988L 2.26016 -0.616988L 2.09827 -0.247743L 2.66333 0ZM 0 6.07466L -0.565064 5.82692L -0.94419 6.69165L 0 6.69165L 0 6.07466ZM 28.0284 6.07466L 28.0284 6.69165L 28.9726 6.69165L 28.5934 5.82692L 28.0284 6.07466ZM 25.3651 -0.616988L 16.6141 -0.616988L 16.6141 0.616988L 25.3651 0.616988L 25.3651 -0.616988ZM 16.6141 -0.616988L 11.4143 -0.616988L 11.4143 0.616988L 16.6141 0.616988L 16.6141 -0.616988ZM 11.4143 -0.616988L 2.66333 -0.616988L 2.66333 0.616988L 11.4143 0.616988L 11.4143 -0.616988ZM 2.09827 -0.247743L -0.565064 5.82692L 0.565064 6.32241L 3.22839 0.247743L 2.09827 -0.247743ZM 0 6.69165L 11.4143 6.69165L 11.4143 5.45768L 0 5.45768L 0 6.69165ZM 11.4143 6.69165L 16.6141 6.69165L 16.6141 5.45768L 11.4143 5.45768L 11.4143 6.69165ZM 16.6141 6.69165L 28.0284 6.69165L 28.0284 5.45768L 16.6141 5.45768L 16.6141 6.69165ZM 28.5934 5.82692L 25.9301 -0.247743L 24.8 0.247743L 27.4633 6.32241L 28.5934 5.82692Z"/>
<path id="path6_stroke" d="M 16.7409 0.0852984L 16.7378 0.70231L 16.7441 0.702278L 16.7409 0.0852984ZM 0 0L 0.00314363 -0.61698L -0.723311 -0.620681L -0.609349 0.0967885L 0 0ZM 6.97539 43.9148L 6.36604 44.0115L 6.44867 44.5317L 6.97539 44.5317L 6.97539 43.9148ZM 26.5065 43.9148L 26.5065 44.5317L 27.0332 44.5317L 27.1158 44.0115L 26.5065 43.9148ZM 33.4819 0L 34.0912 0.0967885L 34.2052 -0.620681L 33.4787 -0.61698L 33.4819 0ZM 16.7441 -0.531681L 0.00314363 -0.61698L -0.00314363 0.61698L 16.7378 0.702278L 16.7441 -0.531681ZM -0.609349 0.0967885L 6.36604 44.0115L 7.58474 43.818L 0.609349 -0.0967885L -0.609349 0.0967885ZM 6.97539 44.5317L 8.49729 44.5317L 8.49729 43.2978L 6.97539 43.2978L 6.97539 44.5317ZM 8.49729 44.5317L 24.9846 44.5317L 24.9846 43.2978L 8.49729 43.2978L 8.49729 44.5317ZM 24.9846 44.5317L 26.5065 44.5317L 26.5065 43.2978L 24.9846 43.2978L 24.9846 44.5317ZM 27.1158 44.0115L 34.0912 0.0967885L 32.8725 -0.0967885L 25.8971 43.818L 27.1158 44.0115ZM 33.4787 -0.61698L 16.7378 -0.531681L 16.7441 0.702278L 33.485 0.61698L 33.4787 -0.61698Z"/>
<path id="path7_fill" fill-rule="evenodd" d="M 34.6233 0L 17.9127 0L 16.7106 0L 0 0L 3.12574 17.4647L 17.3116 17.3124L 31.4976 17.4647L 34.6233 0Z"/>
<path id="path8_stroke" d="M 34.6233 0L 35.2306 0.108698L 35.3605 -0.616988L 34.6233 -0.616988L 34.6233 0ZM 0 0L 0 -0.616988L -0.737217 -0.616988L -0.607337 0.108698L 0 0ZM 3.12574 17.4647L 2.5184 17.5734L 2.61037 18.0872L 3.13236 18.0816L 3.12574 17.4647ZM 17.3116 17.3124L 17.3183 16.6953L 17.305 16.6955L 17.3116 17.3124ZM 31.4976 17.4647L 31.4909 18.0816L 32.0129 18.0872L 32.1049 17.5734L 31.4976 17.4647ZM 34.6233 -0.616988L 17.9127 -0.616988L 17.9127 0.616988L 34.6233 0.616988L 34.6233 -0.616988ZM 17.9127 -0.616988L 16.7106 -0.616988L 16.7106 0.616988L 17.9127 0.616988L 17.9127 -0.616988ZM 16.7106 -0.616988L 0 -0.616988L 0 0.616988L 16.7106 0.616988L 16.7106 -0.616988ZM -0.607337 0.108698L 2.5184 17.5734L 3.73307 17.356L 0.607337 -0.108698L -0.607337 0.108698ZM 3.13236 18.0816L 17.3183 17.9294L 17.305 16.6955L 3.11911 16.8477L 3.13236 18.0816ZM 17.305 17.9294L 31.4909 18.0816L 31.5042 16.8477L 17.3183 16.6955L 17.305 17.9294ZM 32.1049 17.5734L 35.2306 0.108698L 34.016 -0.108698L 30.8902 17.356L 32.1049 17.5734Z"/>
<path id="path9_fill" fill-rule="evenodd" d="M 5 10C 7.76142 10 10 7.76142 10 5C 10 2.23858 7.76142 0 5 0C 2.23858 0 0 2.23858 0 5C 0 7.76142 2.23858 10 5 10Z"/>
<path id="path10_stroke_2x" d="M 5 11.9881C 8.85941 11.9881 11.9881 8.85941 11.9881 5L 8.01193 5C 8.01193 6.66344 6.66344 8.01193 5 8.01193L 5 11.9881ZM 11.9881 5C 11.9881 1.14059 8.85941 -1.98807 5 -1.98807L 5 1.98807C 6.66344 1.98807 8.01193 3.33656 8.01193 5L 11.9881 5ZM 5 -1.98807C 1.14059 -1.98807 -1.98807 1.14059 -1.98807 5L 1.98807 5C 1.98807 3.33656 3.33656 1.98807 5 1.98807L 5 -1.98807ZM -1.98807 5C -1.98807 8.85941 1.14059 11.9881 5 11.9881L 5 8.01193C 3.33656 8.01193 1.98807 6.66344 1.98807 5L -1.98807 5Z"/>
<path id="path11_fill" fill-rule="evenodd" d="M 2.5 5C 3.88071 5 5 3.88071 5 2.5C 5 1.11929 3.88071 0 2.5 0C 1.11929 0 0 1.11929 0 2.5C 0 3.88071 1.11929 5 2.5 5Z"/>
</defs>
</svg>
