<svg width="600" height="249" viewBox="0 0 600 249" version="1.1" xmlns="http://www.w3.org/2000/svg" xmlns:xlink="http://www.w3.org/1999/xlink">
<title>Page 1</title>
<desc>Created using Figma</desc>
<g id="Canvas" transform="translate(-3268 -1390)">
<g id="Page 1">
<g id="Group 3">
<mask id="mask0_outline" mask-type="alpha">
<g id="Clip 2">
<use xlink:href="#path0_fill" transform="translate(3327.64 1390.69)" fill="#FFFFFF"/>
</g>
</mask>
<g id="Fill 1" mask="url(#mask0_outline)">
<use xlink:href="#path1_fill" transform="translate(3327.64 1390.69)" fill="#DDE7ED"/>
</g>
</g>
<g id="Fill 4">
<use xlink:href="#path1_fill" transform="translate(3327.64 1390.84)" fill="#DDE7ED"/>
</g>
<g id="Fill 6">
<use xlink:href="#path2_fill" transform="translate(3685.98 1532.52)" fill="#FFFFFF"/>
</g>
<g id="Fill 8">
<use xlink:href="#path3_fill" transform="translate(3684.2 1530.73)"/>
</g>
<g id="Fill 10">
<use xlink:href="#path4_fill" transform="translate(3706.08 1581.7)" fill="#4FC2C2"/>
</g>
<g id="Fill 12">
<use xlink:href="#path5_fill" transform="translate(3704.43 1579.74)"/>
</g>
<g id="Fill 14">
<use xlink:href="#path6_fill" transform="translate(3736.85 1581.7)" fill="#4FC2C2"/>
</g>
<g id="Fill 16">
<use xlink:href="#path7_fill" transform="translate(3734.81 1579.74)"/>
</g>
<g id="Fill 18">
<use xlink:href="#path8_fill" transform="translate(3695.08 1593.49)" fill="#4FC2C2"/>
</g>
<g id="Fill 20">
<use xlink:href="#path9_fill" transform="translate(3693.43 1591.85)"/>
</g>
<g id="Fill 22">
<use xlink:href="#path10_fill" transform="translate(3723.05 1593.04)" fill="#FFFFFF"/>
</g>
<g id="Fill 24">
<use xlink:href="#path11_fill" transform="translate(3721.97 1591.95)"/>
</g>
<g id="Fill 26">
<use xlink:href="#path12_fill" transform="translate(3765.84 1538.83)" fill="#FFDCBD"/>
</g>
<g id="Fill 28">
<use xlink:href="#path13_fill" transform="translate(3764.16 1537.15)"/>
</g>
<g id="Fill 30">
<use xlink:href="#path14_fill" transform="translate(3729.26 1567.71)" fill="#FFDCBD"/>
</g>
<g id="Fill 32">
<use xlink:href="#path15_fill" transform="translate(3727.67 1566.11)"/>
</g>
<g id="Fill 34">
<use xlink:href="#path16_fill" transform="translate(3705.4 1491.58)" fill="#FFDCBD"/>
</g>
<g id="Fill 36">
<use xlink:href="#path17_fill" transform="translate(3703.72 1489.9)"/>
</g>
<g id="Fill 38">
<use xlink:href="#path18_fill" transform="translate(3717.62 1538.51)"/>
</g>
<g id="Fill 40">
<use xlink:href="#path19_fill" transform="translate(3753.2 1538.58)"/>
</g>
<g id="Fill 42">
<use xlink:href="#path20_fill" transform="translate(3733.79 1552)"/>
</g>
<mask id="mask1_outline" mask-type="alpha">
<g id="Clip 45">
<use xlink:href="#path21_fill" transform="translate(3268 1390.69)" fill="#FFFFFF"/>
</g>
</mask>
<g id="Fill 44" mask="url(#mask1_outline)">
<use xlink:href="#path22_fill" transform="translate(3730.94 1580.2)" fill="#FFDCBD"/>
</g>
<g id="Fill 46" mask="url(#mask1_outline)">
<use xlink:href="#path23_fill" transform="translate(3737.62 1614.23)" fill="#FFFFFF"/>
</g>
<g id="Fill 47" mask="url(#mask1_outline)">
<use xlink:href="#path24_fill" transform="translate(3736.4 1613)"/>
</g>
<g id="Fill 48" mask="url(#mask1_outline)">
<use xlink:href="#path25_fill" transform="translate(3746.71 1610.76)"/>
</g>
<g id="Fill 49" mask="url(#mask1_outline)">
<use xlink:href="#path26_fill" transform="translate(3727.69 1610.76)"/>
</g>
<g id="Fill 50" mask="url(#mask1_outline)">
<use xlink:href="#path27_fill" transform="translate(3708.06 1589.83)" fill="#4FC2C2"/>
</g>
<g id="Fill 51" mask="url(#mask1_outline)">
<use xlink:href="#path28_fill" transform="translate(3756.77 1588.09)" fill="#4FC2C2"/>
</g>
<g id="Fill 52" mask="url(#mask1_outline)">
<use xlink:href="#path29_fill" transform="translate(3713.24 1531.57)"/>
</g>
<g id="Fill 53" mask="url(#mask1_outline)">
<use xlink:href="#path29_fill" transform="translate(3748.97 1531.57)"/>
</g>
<g id="Fill 54" mask="url(#mask1_outline)">
<use xlink:href="#path30_fill" transform="translate(3709.05 1534.65)"/>
</g>
<g id="Fill 55" mask="url(#mask1_outline)">
<use xlink:href="#path31_fill" transform="translate(3744.09 1534.65)"/>
</g>
<g id="Fill 56" mask="url(#mask1_outline)">
<use xlink:href="#path32_fill" transform="translate(3729.26 1535.08)"/>
</g>
<g id="Fill 57" mask="url(#mask1_outline)">
<use xlink:href="#path33_fill" transform="translate(3725.58 1472.35)" fill="#AF745A"/>
</g>
<g id="Fill 58" mask="url(#mask1_outline)">
<use xlink:href="#path34_fill" transform="translate(3723.44 1469.84)"/>
</g>
<g id="Fill 59" mask="url(#mask1_outline)">
<use xlink:href="#path35_fill" transform="translate(3695.89 1476.72)" fill="#AF745A"/>
</g>
<g id="Fill 60" mask="url(#mask1_outline)">
<use xlink:href="#path36_fill" transform="translate(3694.19 1473.49)"/>
</g>
<g id="Fill 61" opacity="0.1" mask="url(#mask1_outline)">
<use xlink:href="#path37_fill" transform="translate(3614.99 1472.17)"/>
</g>
<g id="Fill 62" mask="url(#mask1_outline)">
<use xlink:href="#path38_fill" transform="translate(3668.65 1553.25)" fill="#F05E5F"/>
</g>
<g id="Fill 63" mask="url(#mask1_outline)">
<use xlink:href="#path39_fill" transform="translate(3666.92 1551.51)"/>
</g>
<g id="Fill 64" mask="url(#mask1_outline)">
<use xlink:href="#path40_fill" transform="translate(3608.43 1590.22)" fill="#FFDD00"/>
</g>
<g id="Fill 65" mask="url(#mask1_outline)">
<use xlink:href="#path41_fill" transform="translate(3606.68 1588.47)"/>
</g>
<g id="Fill 66" mask="url(#mask1_outline)">
<use xlink:href="#path42_fill" transform="translate(3687.95 1532.09)" fill="#FFDCBD"/>
</g>
<g id="Fill 67" mask="url(#mask1_outline)">
<use xlink:href="#path43_fill" transform="translate(3686.16 1530.3)"/>
</g>
<g id="Fill 68" mask="url(#mask1_outline)">
<use xlink:href="#path44_fill" transform="translate(3648.79 1562.8)" fill="#FFDCBD"/>
</g>
<g id="Fill 69" mask="url(#mask1_outline)">
<use xlink:href="#path45_fill" transform="translate(3647.09 1561.1)"/>
</g>
<g id="Fill 70" mask="url(#mask1_outline)">
<use xlink:href="#path46_fill" transform="translate(3623.68 1481.84)" fill="#FFDCBD"/>
</g>
<g id="Fill 71" mask="url(#mask1_outline)">
<use xlink:href="#path47_fill" transform="translate(3621.89 1480.06)"/>
</g>
<g id="Fill 72" mask="url(#mask1_outline)">
<use xlink:href="#path48_fill" transform="translate(3655.43 1546.27)"/>
</g>
<g id="Fill 73" mask="url(#mask1_outline)">
<use xlink:href="#path49_fill" transform="translate(3650.5 1576.08)" fill="#FFDCBD"/>
</g>
<g id="Fill 74" mask="url(#mask1_outline)">
<use xlink:href="#path50_fill" transform="translate(3637.45 1532)"/>
</g>
<g id="Fill 75" mask="url(#mask1_outline)">
<use xlink:href="#path51_fill" transform="translate(3671.53 1523.33)"/>
</g>
<g id="Fill 76" mask="url(#mask1_outline)">
<use xlink:href="#path52_fill" transform="translate(3633.73 1524.42)"/>
</g>
<g id="Fill 77" mask="url(#mask1_outline)">
<use xlink:href="#path53_fill" transform="translate(3675.24 1592.69)" fill="#59AFE1"/>
</g>
<g id="Fill 78" mask="url(#mask1_outline)">
<use xlink:href="#path54_fill" transform="translate(3673.17 1590.31)"/>
</g>
<g id="Fill 79" mask="url(#mask1_outline)">
<use xlink:href="#path55_fill" transform="translate(3608.94 1592.69)" fill="#59AFE1"/>
</g>
<g id="Fill 80" mask="url(#mask1_outline)">
<use xlink:href="#path56_fill" transform="translate(3607.69 1590.29)"/>
</g>
<g id="Fill 81" mask="url(#mask1_outline)">
<use xlink:href="#path57_fill" transform="translate(3630.67 1584.69)" fill="#FFFFFF"/>
</g>
<g id="Fill 82" mask="url(#mask1_outline)">
<use xlink:href="#path58_fill" transform="translate(3628.05 1582.37)"/>
</g>
<g id="Fill 83" mask="url(#mask1_outline)">
<use xlink:href="#path59_fill" transform="translate(3659.44 1584.69)" fill="#FFFFFF"/>
</g>
<g id="Fill 84" mask="url(#mask1_outline)">
<use xlink:href="#path60_fill" transform="translate(3657.28 1582.37)"/>
</g>
<g id="Fill 85" mask="url(#mask1_outline)">
<use xlink:href="#path61_fill" transform="translate(3673.56 1479.71)" fill="#F05E5F"/>
</g>
<g id="Fill 86" mask="url(#mask1_outline)">
<use xlink:href="#path62_fill" transform="translate(3671.93 1478.08)"/>
</g>
<g id="Fill 87" mask="url(#mask1_outline)">
<use xlink:href="#path63_fill" transform="translate(3629.18 1545.38)" fill="#FFA6A6"/>
</g>
<g id="Fill 88" mask="url(#mask1_outline)">
<use xlink:href="#path64_fill" transform="translate(3616.75 1473.79)" fill="#F05E5F"/>
</g>
<g id="Fill 89" mask="url(#mask1_outline)">
<use xlink:href="#path65_fill" transform="translate(3615.14 1472.17)"/>
</g>
<g id="Fill 90" mask="url(#mask1_outline)">
<use xlink:href="#path66_fill" transform="translate(3618.26 1478.41)" fill="#F05E5F"/>
</g>
<g id="Fill 91" opacity="0.1" mask="url(#mask1_outline)">
<use xlink:href="#path67_fill" transform="translate(3528.89 1454.09)"/>
</g>
<g id="Fill 92" mask="url(#mask1_outline)">
<use xlink:href="#path68_fill" transform="translate(3669.94 1531.81)"/>
</g>
<g id="Fill 93" mask="url(#mask1_outline)">
<use xlink:href="#path69_fill" transform="translate(3645.63 1557.67)"/>
</g>
<g id="Fill 94" mask="url(#mask1_outline)">
<use xlink:href="#path70_fill" transform="translate(3374.07 1481.29)" fill="#FFDD00"/>
</g>
<g id="Fill 95" mask="url(#mask1_outline)">
<use xlink:href="#path71_fill" transform="translate(3372.43 1479.71)"/>
</g>
<g id="Fill 96" mask="url(#mask1_outline)">
<use xlink:href="#path72_fill" transform="translate(3379.25 1594)" fill="#59AFE1"/>
</g>
<g id="Fill 97" mask="url(#mask1_outline)">
<use xlink:href="#path73_fill" transform="translate(3377.67 1592.42)"/>
</g>
<g id="Fill 98" mask="url(#mask1_outline)">
<use xlink:href="#path74_fill" transform="translate(3382.45 1539.33)" fill="#FFDCBD"/>
</g>
<g id="Fill 99" mask="url(#mask1_outline)">
<use xlink:href="#path75_fill" transform="translate(3380.77 1537.65)"/>
</g>
<g id="Fill 100" mask="url(#mask1_outline)">
<use xlink:href="#path76_fill" transform="translate(3413.44 1568.21)" fill="#FFDCBD"/>
</g>
<g id="Fill 101" mask="url(#mask1_outline)">
<use xlink:href="#path77_fill" transform="translate(3411.84 1566.61)"/>
</g>
<g id="Fill 102" mask="url(#mask1_outline)">
<use xlink:href="#path78_fill" transform="translate(3389.58 1492.08)" fill="#FFDCBD"/>
</g>
<g id="Fill 103" mask="url(#mask1_outline)">
<use xlink:href="#path79_fill" transform="translate(3387.9 1490.4)"/>
</g>
<g id="Fill 104" mask="url(#mask1_outline)">
<use xlink:href="#path80_fill" transform="translate(3401.79 1539.01)"/>
</g>
<g id="Fill 105" mask="url(#mask1_outline)">
<use xlink:href="#path81_fill" transform="translate(3419.73 1552.66)"/>
</g>
<g id="Fill 106" mask="url(#mask1_outline)">
<use xlink:href="#path82_fill" transform="translate(3415.11 1580.7)" fill="#FFDCBD"/>
</g>
<g id="Fill 107" mask="url(#mask1_outline)">
<use xlink:href="#path83_fill" transform="translate(3383.91 1484.06)" fill="#FFDD00"/>
</g>
<g id="Fill 108" mask="url(#mask1_outline)">
<use xlink:href="#path84_fill" transform="translate(3382.02 1504.99)"/>
</g>
<g id="Fill 109" mask="url(#mask1_outline)">
<use xlink:href="#path85_fill" transform="translate(3437.77 1539.01)"/>
</g>
<g id="Fill 110" mask="url(#mask1_outline)">
<use xlink:href="#path86_fill" transform="translate(3414.04 1564.92)" fill="#FFFFFF"/>
</g>
<g id="Fill 111" mask="url(#mask1_outline)">
<use xlink:href="#path87_fill" transform="translate(3413.06 1564.04)" fill="#2B537F"/>
</g>
<g id="Stroke 112" mask="url(#mask1_outline)">
<use xlink:href="#path88_stroke" transform="translate(3413.06 1564.04)" fill="#2B537F"/>
</g>
<g id="Fill 113" mask="url(#mask1_outline)">
<use xlink:href="#path2_fill" transform="translate(3456.68 1533.06)" fill="#FFFFFF"/>
</g>
<g id="Fill 114" mask="url(#mask1_outline)">
<use xlink:href="#path89_fill" transform="translate(3442.95 1552.39)" fill="#FFA6A6"/>
</g>
<g id="Fill 115" mask="url(#mask1_outline)">
<use xlink:href="#path90_fill" transform="translate(3454.9 1531.27)"/>
</g>
<g id="Fill 116" opacity="0.1" mask="url(#mask1_outline)">
<use xlink:href="#path91_fill" transform="translate(3444.26 1476.48)"/>
</g>
<g id="Fill 117" mask="url(#mask1_outline)">
<use xlink:href="#path92_fill" transform="translate(3451.21 1590.96)" fill="#FF813F"/>
</g>
<g id="Fill 118" mask="url(#mask1_outline)">
<use xlink:href="#path93_fill" transform="translate(3449.46 1589.21)"/>
</g>
<g id="Fill 119" mask="url(#mask1_outline)">
<use xlink:href="#path94_fill" transform="translate(3454.61 1532.82)" fill="#DBA78D"/>
</g>
<g id="Fill 120" mask="url(#mask1_outline)">
<use xlink:href="#path95_fill" transform="translate(3452.82 1531.03)"/>
</g>
<g id="Fill 121" mask="url(#mask1_outline)">
<use xlink:href="#path96_fill" transform="translate(3487.56 1563.53)" fill="#DBA78D"/>
</g>
<g id="Fill 122" mask="url(#mask1_outline)">
<use xlink:href="#path97_fill" transform="translate(3485.87 1561.83)"/>
</g>
<g id="Fill 123" mask="url(#mask1_outline)">
<use xlink:href="#path98_fill" transform="translate(3462.11 1477.97)" fill="#DBA78D"/>
</g>
<g id="Fill 124" mask="url(#mask1_outline)">
<use xlink:href="#path99_fill" transform="translate(3460.32 1476.19)"/>
</g>
<g id="Fill 125" mask="url(#mask1_outline)">
<use xlink:href="#path100_fill" transform="translate(3475.18 1532.48)"/>
</g>
<g id="Fill 126" mask="url(#mask1_outline)">
<use xlink:href="#path101_fill" transform="translate(3513.02 1532.56)"/>
</g>
<g id="Fill 127" mask="url(#mask1_outline)">
<use xlink:href="#path49_fill" transform="translate(3489.35 1576.81)" fill="#DBA78D"/>
</g>
<g id="Fill 128" mask="url(#mask1_outline)">
<use xlink:href="#path102_fill" transform="translate(3478.26 1525.11)"/>
</g>
<g id="Fill 129" mask="url(#mask1_outline)">
<use xlink:href="#path103_fill" transform="translate(3508.52 1525.11)"/>
</g>
<g id="Fill 130" mask="url(#mask1_outline)">
<use xlink:href="#path104_fill" transform="translate(3487.21 1558.88)"/>
</g>
<g id="Fill 131" mask="url(#mask1_outline)">
<use xlink:href="#path105_fill" transform="translate(3726.89 1564.8)"/>
</g>
<g id="Fill 132" mask="url(#mask1_outline)">
<use xlink:href="#path106_fill" transform="translate(3494.09 1572.48)"/>
</g>
<g id="Fill 133" mask="url(#mask1_outline)">
<use xlink:href="#path107_fill" transform="translate(3462.56 1488.46)" fill="#6C6D6D"/>
</g>
<g id="Fill 134" mask="url(#mask1_outline)">
<use xlink:href="#path108_fill" transform="translate(3460.56 1485.42)"/>
</g>
<g id="Fill 135" mask="url(#mask1_outline)">
<use xlink:href="#path109_fill" transform="translate(3525.5 1488.46)" fill="#AF745A"/>
</g>
<g id="Fill 136" mask="url(#mask1_outline)">
<use xlink:href="#path110_fill" transform="translate(3523.72 1485.42)"/>
</g>
<g id="Fill 137" mask="url(#mask1_outline)">
<use xlink:href="#path111_fill" transform="translate(3470.52 1477.97)" fill="#6C6D6D"/>
</g>
<g id="Fill 138" mask="url(#mask1_outline)">
<use xlink:href="#path112_fill" transform="translate(3468.41 1476.18)"/>
</g>
<g id="Fill 139" mask="url(#mask1_outline)">
<use xlink:href="#path113_fill" transform="translate(3487.55 1598.83)" fill="#FFFFFF"/>
</g>
<g id="Fill 140" mask="url(#mask1_outline)">
<use xlink:href="#path114_fill" transform="translate(3485.67 1594.25)"/>
</g>
<g id="Fill 141" mask="url(#mask1_outline)">
<use xlink:href="#path115_fill" transform="translate(3491.94 1537.94)"/>
</g>
<g id="Fill 142" mask="url(#mask1_outline)">
<use xlink:href="#path116_fill" transform="translate(3347.33 1634.46)"/>
</g>
<g id="Fill 143" opacity="0.1" mask="url(#mask1_outline)">
<use xlink:href="#path117_fill" transform="translate(3514.57 1453.29)"/>
</g>
<g id="Fill 144" mask="url(#mask1_outline)">
<use xlink:href="#path118_fill" transform="translate(3527.73 1526.69)" fill="#FFDCBD"/>
</g>
<g id="Fill 145" mask="url(#mask1_outline)">
<use xlink:href="#path119_fill" transform="translate(3525.72 1524.69)"/>
</g>
<g id="Fill 146" mask="url(#mask1_outline)">
<use xlink:href="#path120_fill" transform="translate(3608.48 1526.69)" fill="#FFDCBD"/>
</g>
<g id="Fill 147" mask="url(#mask1_outline)">
<use xlink:href="#path121_fill" transform="translate(3606.47 1524.69)"/>
</g>
<g id="Fill 148" mask="url(#mask1_outline)">
<use xlink:href="#path122_fill" transform="translate(3523.91 1585.1)" fill="#51E0B7"/>
</g>
<g id="Fill 149" mask="url(#mask1_outline)">
<use xlink:href="#path123_fill" transform="translate(3521.95 1583.14)"/>
</g>
<g id="Fill 150" mask="url(#mask1_outline)">
<use xlink:href="#path124_fill" transform="translate(3564.77 1561.21)" fill="#FFFFFF"/>
</g>
<g id="Fill 151" mask="url(#mask1_outline)">
<use xlink:href="#path125_fill" transform="translate(3563.01 1559.45)"/>
</g>
<g id="Fill 152" mask="url(#mask1_outline)">
<use xlink:href="#path126_fill" transform="translate(3536.25 1470.23)" fill="#FFDCBD"/>
</g>
<g id="Fill 153" mask="url(#mask1_outline)">
<use xlink:href="#path127_fill" transform="translate(3534.25 1468.22)"/>
</g>
<g id="Fill 154" mask="url(#mask1_outline)">
<use xlink:href="#path128_fill" transform="translate(3570.18 1539.62)"/>
</g>
<g id="Fill 155" mask="url(#mask1_outline)">
<use xlink:href="#path129_fill" transform="translate(3566.77 1569.21)" fill="#FFFFFF"/>
</g>
<g id="Fill 156" mask="url(#mask1_outline)">
<use xlink:href="#path130_fill" transform="translate(3524.88 1472.94)" fill="#CE926A"/>
</g>
<g id="Fill 157" mask="url(#mask1_outline)">
<use xlink:href="#path131_fill" transform="translate(3522.86 1470.94)"/>
</g>
<g id="Fill 158" mask="url(#mask1_outline)">
<use xlink:href="#path132_fill" transform="translate(3541.42 1455.3)" fill="#CE926A"/>
</g>
<g id="Fill 159" mask="url(#mask1_outline)">
<use xlink:href="#path133_fill" transform="translate(3539.42 1453.29)"/>
</g>
<g id="Fill 160" mask="url(#mask1_outline)">
<use xlink:href="#path134_fill" transform="translate(3549.57 1527.04)"/>
</g>
<g id="Fill 161" mask="url(#mask1_outline)">
<use xlink:href="#path135_fill" transform="translate(3589.51 1527.04)"/>
</g>
<g id="Fill 162" mask="url(#mask1_outline)">
<use xlink:href="#path136_fill" transform="translate(3526 1625.59)" fill="#FFFFFF"/>
</g>
<g id="Fill 163" mask="url(#mask1_outline)">
<use xlink:href="#path137_fill" transform="translate(3526 1611.87)" fill="#FFFFFF"/>
</g>
<g id="Fill 164" mask="url(#mask1_outline)">
<use xlink:href="#path138_fill" transform="translate(3530.97 1596.92)" fill="#FFFFFF"/>
</g>
<g id="Fill 165" mask="url(#mask1_outline)">
<use xlink:href="#path139_fill" transform="translate(3536.25 1536.35)" fill="#CE926A"/>
</g>
<g id="Fill 166" mask="url(#mask1_outline)">
<use xlink:href="#path140_fill" transform="translate(3534.34 1531.83)"/>
</g>
<g id="Fill 167" mask="url(#mask1_outline)">
<use xlink:href="#path141_fill" transform="translate(3561.67 1558.9)" fill="#FFFFFF"/>
</g>
<g id="Fill 168" mask="url(#mask1_outline)">
<use xlink:href="#path142_fill" transform="translate(3560.07 1557.45)"/>
</g>
<g id="Fill 169" mask="url(#mask1_outline)">
<use xlink:href="#path143_fill" transform="translate(3586.86 1517.85)"/>
</g>
<g id="Fill 170" mask="url(#mask1_outline)">
<use xlink:href="#path144_fill" transform="translate(3546.42 1517.85)"/>
</g>
<g id="Fill 171" mask="url(#mask1_outline)">
<use xlink:href="#path145_fill" transform="translate(3822.36 1634.46)"/>
</g>
<g id="Fill 172" mask="url(#mask1_outline)">
<use xlink:href="#path145_fill" transform="translate(3268 1634.46)"/>
</g>
<g id="Fill 173" mask="url(#mask1_outline)">
<use xlink:href="#path146_fill" transform="translate(3319.66 1634.46)"/>
</g>
<g id="Fill 174" mask="url(#mask1_outline)">
<use xlink:href="#path147_fill" transform="translate(3546.42 1539.78)" fill="#FFA6A6"/>
</g>
<g id="Fill 175" mask="url(#mask1_outline)">
<use xlink:href="#path147_fill" transform="translate(3597.08 1539.78)" fill="#FFA6A6"/>
</g>
<g id="Fill 176" mask="url(#mask1_outline)">
<use xlink:href="#path147_fill" transform="translate(3679.83 1545.38)" fill="#FFA6A6"/>
</g>
<g id="Fill 177" mask="url(#mask1_outline)">
<use xlink:href="#path148_fill" transform="translate(3394.47 1551.73)" fill="#FFA6A6"/>
</g>
<g id="Fill 178" mask="url(#mask1_outline)">
<use xlink:href="#path89_fill" transform="translate(3711.14 1553.25)" fill="#FFA6A6"/>
</g>
<g id="Fill 179" mask="url(#mask1_outline)">
<use xlink:href="#path149_fill" transform="translate(3758.41 1553.25)" fill="#FFA6A6"/>
</g>
<g id="Fill 180" mask="url(#mask1_outline)">
<use xlink:href="#path147_fill" transform="translate(3468.27 1546.94)" fill="#A9B2BD"/>
</g>
<g id="Fill 181" mask="url(#mask1_outline)">
<use xlink:href="#path147_fill" transform="translate(3518.93 1546.94)" fill="#A9B2BD"/>
</g>
</g>
</g>
<defs>
<path id="path0_fill" fill-rule="evenodd" d="M 0 3.92078e-14L 504.647 3.92078e-14L 504.647 244.309L 0 244.309L 0 3.92078e-14Z"/>
<path id="path1_fill" fill-rule="evenodd" d="M 504.647 244.309L 0 244.309C 0 109.381 112.969 0 252.324 0C 391.678 0 504.647 109.381 504.647 244.309"/>
<path id="path2_fill" fill-rule="evenodd" d="M 7.58301 21.5354L 7.58301 21.5354C 3.41263 21.5354 0 18.1191 0 13.9426L 0 7.59278C 0 3.41634 3.41263 0 7.58301 0C 11.7541 0 15.166 3.41634 15.166 7.59278L 15.166 13.9426C 15.166 18.1191 11.7541 21.5354 7.58301 21.5354"/>
<path id="path3_fill" fill-rule="evenodd" d="M 9.3679 3.57361C 6.1702 3.57361 3.56836 6.17811 3.56836 9.37924L 3.56836 15.7298C 3.56836 18.9309 6.16951 21.5354 9.36721 21.5354L 9.3679 21.5354C 12.5656 21.5354 15.1661 18.9309 15.1661 15.7298L 15.1661 9.37924C 15.1661 6.17811 12.5656 3.57361 9.3679 3.57361L 9.3679 3.57361ZM 9.36785 25.1083C 4.20276 25.1083 0 20.9015 0 15.7298L 0 9.37923C 0 4.20748 4.20207 0 9.36716 0C 14.5323 0 18.735 4.20748 18.735 9.37923L 18.735 15.7298C 18.735 20.9015 14.533 25.1083 9.36785 25.1083L 9.36785 25.1083Z"/>
<path id="path4_fill" fill-rule="evenodd" d="M 1.34958 20.4415C 1.34958 20.4415 -7.80335 4.51304 21.5636 2.15616L 36.4671 0L 33.111 17.788L 1.34958 20.4415Z"/>
<path id="path5_fill" fill-rule="evenodd" d="M 36.0718 3.91431L 23.3402 5.75318C 13.0258 6.58088 6.3907 9.24884 4.1512 13.468C 2.66808 16.2615 3.44443 19.2109 4.00723 20.6635L 33.3749 18.2108L 36.0718 3.91431ZM 2.09158 24.1247L 1.57149 23.2184C 1.43785 22.9859 -1.66341 17.4686 1.22982 11.9637C 4.04176 6.61264 11.3733 3.42116 23.0255 2.47896L 40.1527 0L 36.1387 21.2802L 2.09158 24.1247Z"/>
<path id="path6_fill" fill-rule="evenodd" d="M 35.1176 20.4415C 35.1176 20.4415 44.2698 4.51304 14.9029 2.15616L 0 0L 3.35614 17.788L 35.1176 20.4415Z"/>
<path id="path7_fill" fill-rule="evenodd" d="M 6.77844 18.2102L 36.1461 20.6636C 36.7089 19.2103 37.4845 16.2616 36.0021 13.4674C 33.7626 9.24892 27.1268 6.58096 16.8124 5.75257L 16.7091 5.74154L 4.08154 3.9137L 6.77844 18.2102ZM 38.0611 24.124L 4.0147 21.2795L 0 0L 17.1272 2.47827C 28.7786 3.42116 36.1116 6.61264 38.9235 11.963C 41.8161 17.4686 38.7148 22.9859 38.5819 23.2184L 38.0611 24.124Z"/>
<path id="path8_fill" fill-rule="evenodd" d="M 0 42.6694L 0 28.7164C 0 12.9225 21.4898 0 36.6062 0L 55.8599 0C 70.9757 0 92.2333 12.9225 92.2333 28.7164L 92.2333 42.6694L 0 42.6694Z"/>
<path id="path9_fill" fill-rule="evenodd" d="M 3.28516 42.6701L 92.2339 42.6701L 92.2339 30.3621C 92.2339 23.7557 87.9196 16.8492 80.3965 11.414C 73.461 6.40227 64.6891 3.28943 57.5028 3.28943L 38.2491 3.28943C 24.4422 3.28943 3.28516 15.418 3.28516 30.3621L 3.28516 42.6701ZM 95.5192 45.9602L 0 45.9602L 0 30.3621C 0 22.5776 4.7318 14.8993 13.3212 8.74259C 20.845 3.35012 30.3968 0 38.2491 0L 57.5029 0C 65.3435 0 74.8526 3.3515 82.3192 8.74604C 90.8308 14.8965 95.5192 22.5728 95.5192 30.3621L 95.5192 45.9602Z"/>
<path id="path10_fill" fill-rule="evenodd" d="M 0.049107 2.52561C 0.049107 2.52561 -1.76536 21.191 16.6645 21.191C 35.0943 21.191 33.2813 1.55513 33.2813 1.55513C 33.2813 1.55513 18.2737 -2.5213 0.049107 2.52561"/>
<path id="path11_fill" fill-rule="evenodd" d="M 2.15769 4.44926C 2.1074 6.533 2.31819 12.6297 6.12554 16.8213C 8.77009 19.7321 12.6773 21.2088 17.7405 21.2088C 22.6521 21.2088 26.4794 19.741 29.1164 16.8455C 33.1744 12.389 33.3818 5.73565 33.3267 3.50499C 30.1476 2.80214 17.2769 0.452847 2.15769 4.44926L 2.15769 4.44926ZM 17.7404 23.356C 12.0414 23.356 7.59619 21.6392 4.52731 18.2532C -0.742496 12.4379 0.0228308 3.87398 0.0579628 3.51255L 0.129605 2.77796L 0.839823 2.58138C 19.1353 -2.48621 34.0134 1.44054 34.6382 1.61021L 35.3567 1.80541L 35.4256 2.54759C 35.4621 2.93867 36.246 12.2027 30.7007 18.2918C 27.6401 21.6516 23.2802 23.356 17.7404 23.356L 17.7404 23.356Z"/>
<path id="path12_fill" fill-rule="evenodd" d="M 7.13111 20.2511L 7.13111 20.2511C 3.20941 20.2511 0 17.0382 0 13.1108L 0 7.13961C 0 3.21286 3.20941 0 7.13111 0C 11.0528 0 14.2622 3.21286 14.2622 7.13961L 14.2622 13.1108C 14.2622 17.0382 11.0528 20.2511 7.13111 20.2511"/>
<path id="path13_fill" fill-rule="evenodd" d="M 8.80851 3.36047C 5.80162 3.36047 3.35547 5.80909 3.35547 8.81985L 3.35547 14.791C 3.35547 17.8018 5.80162 20.2504 8.80851 20.2504C 11.8154 20.2504 14.2616 17.8018 14.2616 14.791L 14.2616 8.81985C 14.2616 5.80909 11.8154 3.36047 8.80851 3.36047L 8.80851 3.36047ZM 8.8085 23.6109C 3.95132 23.6109 0 19.6544 0 14.791L 0 8.81984C 0 3.95641 3.95132 0 8.8085 0C 13.6657 0 17.617 3.95641 17.617 8.81984L 17.617 14.791C 17.617 19.6544 13.6657 23.6109 8.8085 23.6109L 8.8085 23.6109Z"/>
<path id="path14_fill" fill-rule="evenodd" d="M 20.0921 34.0426C 20.0921 42.539 0 42.539 0 34.0426L 0 0L 20.0921 0L 20.0921 34.0426Z"/>
<path id="path15_fill" fill-rule="evenodd" d="M 3.19141 3.19556L 3.19141 35.6414C 3.19141 38.7757 7.44238 40.4159 11.6424 40.4159C 15.841 40.4159 20.092 38.7757 20.092 35.6414L 20.092 3.19556L 3.19141 3.19556ZM 11.6425 43.6116C 6.03513 43.6116 0 41.1174 0 35.6415L 0 0L 23.2836 0L 23.2836 35.6415C 23.2836 41.1174 17.2485 43.6116 11.6425 43.6116L 11.6425 43.6116Z"/>
<path id="path16_fill" fill-rule="evenodd" d="M 33.7839 95.0732L 33.7839 95.0732C 15.2025 95.0732 0 79.8511 0 61.2457L 0 33.8274C 0 15.2221 15.2025 0 33.7839 0C 52.3653 0 67.5679 15.2221 67.5679 33.8274L 67.5679 61.2457C 67.5679 79.8511 52.3653 95.0732 33.7839 95.0732"/>
<path id="path17_fill" fill-rule="evenodd" d="M 35.4621 3.35974C 17.759 3.35974 3.3562 17.781 3.3562 35.507L 3.3562 62.9266C 3.3562 80.6518 17.759 95.0731 35.4621 95.0731C 53.1652 95.0731 67.5679 80.6518 67.5679 62.9266L 67.5679 35.507C 67.5679 17.781 53.1652 3.35974 35.4621 3.35974L 35.4621 3.35974ZM 35.462 98.4336C 15.9079 98.4336 0 82.5052 0 62.9266L 0 35.507C 0 15.9284 15.9079 0 35.462 0C 55.0154 0 70.924 15.9284 70.924 35.507L 70.924 62.9266C 70.924 82.5052 55.0154 98.4336 35.462 98.4336L 35.462 98.4336Z"/>
<path id="path18_fill" fill-rule="evenodd" d="M 6.85075 3.43013C 6.85075 5.32488 5.31665 6.86026 3.42503 6.86026C 1.53272 6.86026 0 5.32488 0 3.43013C 0 1.53607 1.53272 0 3.42503 0C 5.31665 0 6.85075 1.53607 6.85075 3.43013"/>
<path id="path19_fill" fill-rule="evenodd" d="M 6.85075 3.43013C 6.85075 5.32488 5.31665 6.86026 3.42503 6.86026C 1.53341 6.86026 0 5.32488 0 3.43013C 0 1.53607 1.53341 0 3.42503 0C 5.31665 0 6.85075 1.53607 6.85075 3.43013"/>
<path id="path20_fill" fill-rule="evenodd" d="M 0.29197 2.39372C 1.77371 4.27674 4.28187 4.7237 6.55443 4.4816C 8.45018 4.28019 9.64811 3.40352 10.6883 1.84537C 11.59 0.492769 9.41114 -0.770165 8.51562 0.57347C 7.12687 2.65445 3.58611 2.53719 2.07199 0.612096C 1.07039 -0.661184 -0.699305 1.13286 0.29197 2.39372"/>
<path id="path21_fill" fill-rule="evenodd" d="M 0 248.177L 599.369 248.177L 599.369 0L 0 0L 0 248.177Z"/>
<path id="path22_fill" fill-rule="evenodd" d="M 0 13.2991L 16.8131 13.2991L 16.8131 0L 0 0L 0 13.2991Z"/>
<path id="path23_fill" fill-rule="evenodd" d="M 0 21.4995L 4.1876 21.4995L 4.1876 0L 0 0L 0 21.4995Z"/>
<path id="path24_fill" fill-rule="evenodd" d="M 2.44678 21.5002L 4.18754 21.5002L 4.18754 2.45068L 2.44678 2.45068L 2.44678 21.5002ZM 0 23.9495L 6.63444 23.9495L 6.63444 0L 0 0L 0 23.9495Z"/>
<path id="path25_fill" fill-rule="evenodd" d="M 5.3318 16.4133L 0 16.4133L 0 2.04235L 5.3318 0L 5.3318 16.4133Z"/>
<path id="path26_fill" fill-rule="evenodd" d="M 0 16.4133L 5.33111 16.4133L 5.33111 2.04235L 0 0L 0 16.4133Z"/>
<path id="path27_fill" fill-rule="evenodd" d="M 14.5378 0L 13.716 10.14C 13.716 10.14 7.95086 13.7433 7.08703 14.3461C 6.2225 14.9497 2.39104 16.3367 2.29529 16.0484C 2.19954 15.7594 0 9.75376 0 9.75376L 6.6062 1.28983L 14.5378 0Z"/>
<path id="path28_fill" fill-rule="evenodd" d="M 0 0L 0.821814 10.14C 0.821814 10.14 6.58622 13.7433 7.45006 14.3461C 8.31527 14.9497 13.3571 17.3155 13.4528 17.0272C 13.5493 16.7389 14.9421 9.86068 14.9421 9.86068L 7.93088 1.28983L 0 0Z"/>
<path id="path29_fill" fill-rule="evenodd" d="M 14.1644 2.88592L 1.44041 2.88592C 0.64822 2.88592 0 2.23686 0 1.44296C 0 0.649745 0.64822 0 1.44041 0L 14.1644 0C 14.9566 0 15.6055 0.649745 15.6055 1.44296C 15.6055 2.23686 14.9566 2.88592 14.1644 2.88592"/>
<path id="path30_fill" fill-rule="evenodd" d="M 6.2625 2.78113C 4.34058 2.78113 2.77686 4.34686 2.77686 6.27058L 2.77686 9.68898C 2.77686 11.6134 4.34058 13.1784 6.2625 13.1784L 18.804 13.1784C 20.7259 13.1784 22.2896 11.6134 22.2896 9.68898L 22.2896 6.27058C 22.2896 4.34686 20.7259 2.78113 18.804 2.78113L 6.2625 2.78113ZM 18.8039 15.9595L 6.26246 15.9595C 2.80918 15.9595 0 13.1466 0 9.68893L 0 6.27052C 0 2.81349 2.80918 0 6.26246 0L 18.8039 0C 22.2579 0 25.067 2.81349 25.067 6.27052L 25.067 9.68893C 25.067 13.1466 22.2579 15.9595 18.8039 15.9595L 18.8039 15.9595Z"/>
<path id="path31_fill" fill-rule="evenodd" d="M 6.26255 2.78113C 4.34062 2.78113 2.77759 4.34686 2.77759 6.27058L 2.77759 9.68898C 2.77759 11.6134 4.34062 13.1784 6.26255 13.1784L 18.8047 13.1784C 20.7259 13.1784 22.2896 11.6134 22.2896 9.68898L 22.2896 6.27058C 22.2896 4.34686 20.7259 2.78113 18.8047 2.78113L 6.26255 2.78113ZM 18.8046 15.9595L 6.26246 15.9595C 2.80918 15.9595 0 13.1466 0 9.68893L 0 6.27052C 0 2.81349 2.80918 0 6.26246 0L 18.8046 0C 22.2572 0 25.0664 2.81349 25.0664 6.27052L 25.067 9.68893C 25.067 13.1466 22.2579 15.9595 18.8046 15.9595L 18.8046 15.9595Z"/>
<path id="path32_fill" fill-rule="evenodd" d="M 17.1913 2.59691L 1.29713 2.59691C 0.584156 2.59691 0 2.01269 0 1.2988C 0 0.584219 0.584156 0 1.29713 0L 17.1913 0C 17.9049 0 18.4884 0.584219 18.4884 1.2988C 18.4884 2.01269 17.9049 2.59691 17.1913 2.59691"/>
<path id="path33_fill" fill-rule="evenodd" d="M 0 20.8574C 0 20.8574 5.56602 5.13864 18.6579 0L 17.2781 27.0865L 0 20.8574Z"/>
<path id="path34_fill" fill-rule="evenodd" d="M 4.3584 22.3859L 17.8581 27.2528L 18.9809 5.2063C 10.6512 9.6883 5.96414 18.7592 4.3584 22.3859L 4.3584 22.3859ZM 20.9786 31.9486L 0 24.3861L 0.557979 22.8101C 0.795637 22.1389 6.53731 6.30708 20.1851 0.949787L 22.6051 0L 20.9786 31.9486Z"/>
<path id="path35_fill" fill-rule="evenodd" d="M 82.9347 26.4809C 81.3709 21.0664 75.3751 17.1638 75.3751 17.1638C 67.7294 11.9541 64.1645 10.7822 57.311 9.23507L 55.1928 0C 52.0784 2.9204 52.0784 2.9204 48.9475 6.82991C 17.5333 5.38695 8.69448 17.1348 8.69448 17.1348C 8.69448 17.1348 4.70252 21.6395 3.17118 26.4809C -1.66189 43.1308 -1.99874 61.4706 9.51492 70.1925L 12.6789 53.0805C 16.8816 47.4686 19.5448 41.9658 20.2819 35.516C 33.1953 43.6336 53.6897 43.2191 65.7158 34.4993C 66.2766 41.3947 69.0038 47.1748 73.427 53.0805L 76.5909 70.1925C 88.1046 61.4706 87.7422 43.1377 82.9347 26.4809"/>
<path id="path36_fill" fill-rule="evenodd" d="M 45.3881 11.6091C 19.3904 11.6091 11.8067 21.265 11.7289 21.3684L 11.6442 21.4719C 11.607 21.514 7.86645 25.7794 6.4653 30.211C 3.94544 38.8936 -0.475686 59.462 10.0963 70.209L 12.7953 55.6104L 13.0309 55.2952C 17.4086 49.4509 19.6536 44.2861 20.3087 38.5474L 20.6118 35.8973L 22.8685 37.3161C 35.1324 45.0255 55.0798 44.5882 66.426 36.3615L 68.8405 34.6109L 69.0823 37.5858C 69.5783 43.6798 71.855 49.1426 76.4635 55.2952L 76.6991 55.6104L 79.3987 70.2076C 89.9369 59.4806 85.5365 38.8977 83.0173 30.1703C 81.6513 25.4373 76.2079 21.8299 76.1535 21.794C 68.6772 16.7009 65.2446 15.5883 58.6357 14.0964L 57.6058 13.8639L 55.9098 6.46912C 54.7133 7.6548 54.0596 8.47077 51.951 11.1036L 51.4178 11.7699L 50.5656 11.7312C 48.7636 11.6485 47.0387 11.6091 45.3881 11.6091L 45.3881 11.6091ZM 77.1304 76.3968L 73.5428 56.9934C 69.3682 51.3478 67.0006 46.1809 66.0762 40.6091C 54.0583 47.7908 35.9591 48.1467 23.2592 41.4175C 22.2362 46.6672 19.8762 51.683 15.9524 56.9927L 12.3648 76.3968L 10.1969 74.7552C -0.302713 66.801 -2.8336 50.2097 3.25458 29.2351C 4.82243 24.2765 8.64424 19.8021 9.09545 19.2854C 9.91589 18.2474 19.425 7.1534 49.8651 8.3384C 52.5269 5.01794 52.7556 4.79515 55.7398 1.99683L 57.869 0L 60.4048 11.0546C 66.6748 12.5141 70.5228 13.8943 78.0135 18.9978C 78.2504 19.1516 84.5246 23.2901 86.2413 29.2378C 92.3012 50.2311 89.771 66.8217 79.2982 74.7552L 77.1304 76.3968Z"/>
<path id="path37_fill" fill-rule="evenodd" d="M 94.1966 129.977C 95.7899 127.72 96.8115 124.661 97.1649 120.95C 97.7408 114.894 96.4822 107.715 93.6214 100.736C 91.9715 96.7111 89.8939 93.0182 87.5387 89.8612C 88.4666 87.734 89.2002 85.5041 89.7258 83.1962C 94.5017 82.772 98.2595 78.7487 98.2595 73.859L 98.2595 67.5092C 98.2595 64.7515 97.0581 62.276 95.1603 60.5579C 97.3095 54.3204 102.608 35.7993 95.5378 21.5718C 91.7656 13.9783 85.0546 8.84174 75.5931 6.3069C 73.147 5.65164 71.0831 5.82201 69.423 6.78352C 61.4266 -0.832708 47.2746 -2.30395 33.9224 3.73965C 17.7961 11.0386 2.71619 30.1543 10.7132 60.613C 8.84914 62.3285 7.67256 64.7805 7.67256 67.5092L 7.67256 73.859C 7.67256 78.7487 11.4317 82.772 16.2069 83.1962C 19.096 95.8772 28.3701 106.146 40.4576 110.416L 40.4576 113.56L 37.2262 110.2L 21.4161 120.815L 21.6475 121.101C 19.003 122.386 16.4445 123.897 14.0804 125.604C 5.02939 132.144 0.0433984 140.308 0.0433984 148.59L 0.0433984 154.176L 0 165.214L 35.5192 165.214L 35.5144 165.176L 66.5352 165.176L 66.5297 165.214L 103.139 165.214L 103.206 148.672C 103.234 141.555 99.5614 135.154 94.1966 129.977"/>
<path id="path38_fill" fill-rule="evenodd" d="M 6.46129 0.586026C -0.84617 3.5892 -2.15019 17.2945 3.54878 31.1965C 9.24843 45.0984 19.7929 53.9341 27.0996 50.9302C 34.4071 47.9271 35.7111 34.2224 30.0122 20.3198C 24.3125 6.41787 13.7688 -2.41715 6.46129 0.586026"/>
<path id="path39_fill" fill-rule="evenodd" d="M 8.84775 3.92462C 5.93524 5.12065 4.06497 8.59492 3.57863 13.7053C 3.05441 19.2123 4.22617 25.8077 6.87829 32.2761C 9.52973 38.7446 13.324 44.2619 17.5605 47.8128C 21.4925 51.107 25.262 52.2617 28.1738 51.0656C 31.0849 49.8689 32.9566 46.3953 33.4422 41.285C 33.9665 35.778 32.7947 29.1826 30.1426 22.7141C 27.4905 16.2456 23.6976 10.7276 19.4597 7.17817C 16.5396 4.73094 13.7104 3.46387 11.254 3.46387C 10.4032 3.46387 9.59655 3.6163 8.84775 3.92462L 8.84775 3.92462ZM 15.3422 50.4677C 10.6821 46.563 6.54063 40.5697 3.67979 33.5909C 0.818936 26.612 -0.438929 19.433 0.136272 13.377C 0.750049 6.9244 3.37806 2.42998 7.53466 0.720782C 11.692 -0.987041 16.7145 0.363491 21.6791 4.52269C 26.3386 8.42668 30.4793 14.4213 33.3409 21.3995C 36.2017 28.3784 37.4603 35.5566 36.8844 41.6133C 36.2706 48.066 33.6433 52.5604 29.486 54.2689C 28.3115 54.751 27.0681 54.9897 25.7758 54.9897C 22.4954 54.9897 18.9037 53.4522 15.3422 50.4677L 15.3422 50.4677Z"/>
<path id="path40_fill" fill-rule="evenodd" d="M 98.0824 45.3752L 98.0824 30.5373C 98.0824 13.7419 75.2294 0 59.1548 0L 38.6804 0C 22.6057 0 0 13.7419 0 30.5373L 0 45.3752L 98.0824 45.3752Z"/>
<path id="path41_fill" fill-rule="evenodd" d="M 98.0831 32.2872C 98.0831 16.3954 75.5848 3.49841 60.9017 3.49841L 40.4273 3.49841C 32.7857 3.49841 23.4572 6.80853 16.0808 12.1375C 8.08173 17.9177 3.4939 25.2614 3.4939 32.2872L 3.4939 45.3759L 98.0831 45.3759L 98.0831 32.2872ZM 0 32.2872C 0 24.0047 4.98599 15.8408 14.037 9.30129C 21.9775 3.56394 32.0893 0 40.4273 0L 60.9017 0C 69.2514 0 79.4094 3.56256 87.4106 9.29784C 96.5456 15.845 101.576 24.0095 101.576 32.2872L 101.576 48.8737L 0 48.8737L 0 32.2872Z"/>
<path id="path42_fill" fill-rule="evenodd" d="M 7.58301 21.5354L 7.58301 21.5354C 11.7541 21.5354 15.166 18.1191 15.166 13.9426L 15.166 7.59278C 15.166 3.41634 11.7541 0 7.58301 0C 3.41194 0 0 3.41634 0 7.59278L 0 13.9426C 0 18.1191 3.41194 21.5354 7.58301 21.5354"/>
<path id="path43_fill" fill-rule="evenodd" d="M 3.56836 9.37993L 3.56836 15.7298C 3.56836 18.9316 6.16951 21.5361 9.36721 21.5361C 12.5649 21.5361 15.1661 18.9316 15.1661 15.7298L 15.1661 9.37993C 15.1661 6.17811 12.5649 3.57361 9.36721 3.57361C 6.16951 3.57361 3.56836 6.17811 3.56836 9.37993L 3.56836 9.37993ZM 0 15.7298L 0 9.37992C 0 4.20748 4.20207 0 9.36716 0C 14.5323 0 18.7343 4.20748 18.7343 9.37992L 18.7343 15.7298C 18.7343 20.9015 14.5323 25.1097 9.36716 25.1097C 4.20207 25.1097 0 20.9015 0 15.7298L 0 15.7298Z"/>
<path id="path44_fill" fill-rule="evenodd" d="M 0 36.2023C 0 40.8581 5.14581 39.622 10.645 39.4799C 15.8191 39.3468 21.3672 40.5822 21.3672 36.2023L 21.3665 0L 0 0L 0 36.2023Z"/>
<path id="path45_fill" fill-rule="evenodd" d="M 15.4753 39.5082C 17.7444 39.5675 20.316 39.6365 21.0779 38.893C 21.1495 38.824 21.3665 38.6122 21.3665 37.9011L 21.3665 3.39771L 3.39404 3.39771L 3.39404 37.9011C 3.39404 38.8247 3.66339 39.0778 3.75087 39.1613C 4.54513 39.911 7.20208 39.7517 9.54766 39.6124C 10.4363 39.5593 11.3552 39.5048 12.299 39.4799C 12.6103 39.4724 12.9217 39.4682 13.2324 39.4682C 13.9908 39.4682 14.7424 39.4896 15.4753 39.5082L 15.4753 39.5082ZM 1.42457 41.634C 0.47876 40.7429 0 39.4875 0 37.9011L 0 0L 24.7605 0L 24.7605 37.9011C 24.7605 39.3241 24.3183 40.4766 23.4455 41.3278C 21.6579 43.0715 18.611 42.9915 15.3851 42.9053C 14.3959 42.8797 13.3722 42.8515 12.3858 42.8777C 11.4999 42.9004 10.6092 42.9528 9.74879 43.0039C 8.65695 43.0694 7.61125 43.1315 6.63307 43.1315C 4.50586 43.1315 2.69828 42.8363 1.42457 41.634L 1.42457 41.634Z"/>
<path id="path46_fill" fill-rule="evenodd" d="M 35.9263 101.103L 35.9263 101.103C 55.6863 101.103 71.8526 84.9152 71.8526 65.1304L 71.8526 35.9726C 71.8526 16.1878 55.6863 0 35.9263 0C 16.1662 0 0 16.1878 0 35.9726L 0 65.1304C 0 84.9152 16.1662 101.103 35.9263 101.103"/>
<path id="path47_fill" fill-rule="evenodd" d="M 3.56836 37.759L 3.56836 66.9168C 3.56836 85.767 18.8845 101.103 37.7105 101.103C 56.5371 101.103 71.8533 85.767 71.8533 66.9168L 71.8533 37.759C 71.8533 18.9088 56.5371 3.57288 37.7105 3.57288C 18.8845 3.57288 3.56836 18.9088 3.56836 37.759L 3.56836 37.759ZM 0 66.9169L 0 37.759C 0 16.9389 16.9171 0 37.7104 0C 58.5045 0 75.4216 16.9389 75.4216 37.759L 75.4216 66.9169C 75.4216 87.737 58.5045 104.677 37.7104 104.677C 16.9171 104.677 0 87.737 0 66.9169L 0 66.9169Z"/>
<path id="path48_fill" fill-rule="evenodd" d="M 7.91057 1.98182C 7.03158 3.71172 5.33835 4.56563 3.42262 4.38629C 1.70666 4.22489 0.767055 3.17854 0.102991 1.66936C -0.456366 0.397464 1.41872 -0.713035 1.98359 0.569211C 2.30804 1.30724 2.57394 2.04045 3.4364 2.20461C 4.59782 2.42533 5.51057 1.90457 6.03066 0.881669C 6.66648 -0.369539 8.54639 0.732682 7.91057 1.98182"/>
<path id="path49_fill" fill-rule="evenodd" d="M 0 14.1433L 17.8794 14.1433L 17.8794 0L 0 0L 0 14.1433Z"/>
<path id="path50_fill" fill-rule="evenodd" d="M 7.28542 3.6474C 7.28542 5.66216 5.65419 7.2948 3.64271 7.2948C 1.63054 7.2948 0 5.66216 0 3.6474C 0 1.63333 1.63054 0 3.64271 0C 5.65419 0 7.28542 1.63333 7.28542 3.6474"/>
<path id="path51_fill" fill-rule="evenodd" d="M 1.38668 3.16596L 15.2094 3.16596C 15.9727 3.16596 16.5961 2.54104 16.5961 1.77749L 16.5961 1.38847C 16.5961 0.624914 15.9727 0 15.2094 0L 1.38668 0C 0.624799 0 0 0.624914 0 1.38847L 0 1.77749C 0 2.54104 0.624799 3.16596 1.38668 3.16596"/>
<path id="path52_fill" fill-rule="evenodd" d="M 1.21584 2.43482L 15.3803 2.43482C 16.0485 2.43482 16.5961 1.88716 16.5961 1.21741C 16.5961 0.548352 16.0485 0 15.3803 0L 1.21584 0C 0.546958 0 0 0.548352 0 1.21741C 0 1.88716 0.546958 2.43482 1.21584 2.43482"/>
<path id="path53_fill" fill-rule="evenodd" d="M 6.38921 0C 19.7476 4.53166 32.8732 15.4601 32.8223 28.1467L 32.7637 42.9094L 0 42.9094L 6.38921 0Z"/>
<path id="path54_fill" fill-rule="evenodd" d="M 33.1089 30.5166C 33.1523 19.4144 21.7771 9.45507 9.90175 4.80615L 4.1394 43.5012L 33.0565 43.5012L 33.1089 30.5166ZM 7.00987 0L 9.03169 0.685612C 22.386 5.21589 36.733 16.4885 36.6765 30.5311L 36.6103 47.0734L 0 47.0734L 7.00987 0Z"/>
<path id="path55_fill" fill-rule="evenodd" d="M 26.7176 0C 13.3233 4.53166 0.109529 15.4601 0.0592422 28.1467L 0 42.9094L 31.7242 42.9094L 26.7176 0Z"/>
<path id="path56_fill" fill-rule="evenodd" d="M 26.9978 4.85034C 15.1012 9.51237 3.67774 19.4627 3.63365 30.5525L 3.5813 43.5219L 31.5099 43.5219L 26.9978 4.85034ZM 0.065442 30.5373C 0.121929 16.5016 14.5529 5.23521 27.9369 0.706305L 30.0248 0L 35.5192 47.0941L 0 47.0941L 0.065442 30.5373Z"/>
<path id="path57_fill" fill-rule="evenodd" d="M 12.9458 0L 28.7669 16.4499L 20.1768 33.604L 0 8.69224L 12.9458 0Z"/>
<path id="path58_fill" fill-rule="evenodd" d="M 15.3134 4.63586L 5.23193 11.4044L 22.4377 32.646L 29.2223 19.0972L 15.3134 4.63586ZM 0 10.6153L 15.8094 0L 33.5435 18.4391L 23.1486 39.1972L 0 10.6153Z"/>
<path id="path59_fill" fill-rule="evenodd" d="M 15.8218 0L 0 16.4499L 8.59013 33.604L 28.7669 8.69224L 15.8218 0Z"/>
<path id="path60_fill" fill-rule="evenodd" d="M 18.2301 4.63586L 4.32129 19.0972L 11.1059 32.646L 28.311 11.4044L 18.2301 4.63586ZM 0 18.4391L 17.7334 0L 33.5435 10.6153L 10.3943 39.1972L 0 18.4391Z"/>
<path id="path61_fill" fill-rule="evenodd" d="M 0.429405 14.6935C 0.429405 14.6935 4.00185 48.7162 25.949 54.5432C 25.949 54.5432 44.0489 9.93427 8.24938 0.338456C -2.76072 -2.61161 0.429405 14.6935 0.429405 14.6935"/>
<path id="path62_fill" fill-rule="evenodd" d="M 5.19952 4.08033C 2.58667 6.49446 3.2032 13.5216 3.66129 16.0261L 3.6792 16.1503C 3.71296 16.4717 7.20481 47.6264 26.5936 54.1762C 28.3977 49.0197 34.0264 30.535 27.343 17.0994C 24.0014 10.3812 17.9862 5.81712 9.46634 3.53336C 8.7575 3.34299 8.1203 3.2478 7.54993 3.2478C 6.57794 3.2478 5.8009 3.52508 5.19952 4.08033L 5.19952 4.08033ZM 27.1707 57.7388C 4.66829 51.7641 0.695614 18.7037 0.460712 16.5524C 0.216166 15.1901 -1.30898 5.6819 2.9978 1.69721C 4.8102 0.0211178 7.26875 -0.416184 10.3053 0.397032C 19.7661 2.93256 26.477 8.06844 30.2499 15.6626C 38.6975 32.6622 29.4839 55.804 29.0878 56.78L 28.5498 58.105L 27.1707 57.7388Z"/>
<path id="path63_fill" fill-rule="evenodd" d="M 7.91917 3.05077L 1.52377 3.05077C 0.685419 3.05077 0 2.36447 0 1.52573C 0 0.686302 0.685419 0 1.52377 0L 7.91917 0C 8.75752 0 9.44294 0.686302 9.44294 1.52573C 9.44294 2.36447 8.75752 3.05077 7.91917 3.05077"/>
<path id="path64_fill" fill-rule="evenodd" d="M 61.5236 10.5677C 61.5236 10.5677 70.0421 45.585 3.7445 63.8489C -15.8378 5.86637 47.0575 -14.5558 61.5236 10.5677"/>
<path id="path65_fill" fill-rule="evenodd" d="M 26.7594 6.69943C 11.1862 13.748 -3.29643 32.8065 6.41793 63.4832C 38.8434 54.2646 52.1323 40.9938 57.5653 31.4167C 62.9433 21.934 61.8521 14.1329 61.6048 12.772C 55.7495 2.94857 40.8322 0.330966 26.7594 6.69943L 26.7594 6.69943ZM 3.82436 65.9855C -7.52053 32.3933 8.36948 11.46 25.4237 3.74103C 41.1277 -3.36685 57.9449 -0.0857019 64.5442 11.3724L 64.66 11.5738L 64.7151 11.7994C 64.8074 12.1822 66.9215 21.3048 60.5268 32.7664C 52.1357 47.8078 33.7197 59.3356 5.79037 67.0298L 4.31483 67.4361L 3.82436 65.9855Z"/>
<path id="path66_fill" fill-rule="evenodd" d="M 82.6856 44.0316L 84.2184 31.3685L 61.4576 3.09353C 61.4576 3.09353 48.4512 0 47.8767 0C 47.3015 0 21.4615 4.41096 21.4615 4.41096L 8.8147 15.6353L 0 35.6849L 0.766705 46.5258L 21.558 42.2086L 36.3203 29.2578L 49.8014 19.5572L 62.8147 26.0464L 71.4241 30.5049L 82.6856 44.0316Z"/>
<path id="path67_fill" fill-rule="evenodd" d="M 98.3773 140.302C 96.1936 138.725 93.8631 137.296 91.4521 136.034C 94.9495 130.582 96.9658 124.239 96.9658 117.469L 96.9658 99.4346C 101.858 98.5296 105.578 94.2339 105.578 89.0766L 105.578 81.9411C 105.578 78.0468 103.453 74.6477 100.309 72.8226C 104.142 58.7317 105.408 43.4765 96.8232 26.0403C 88.7408 10.7747 73.0753 5.05602 67.9274 3.17713C 54.7219 -1.64353 39.6165 -0.93102 29.4448 4.99187C 24.0475 8.13437 20.307 12.5646 18.4643 17.9406C 17.969 17.8116 17.4689 17.7102 16.9591 17.6729C 13.3144 17.4081 8.24294 19.3683 4.79656 30.2678C -0.70884 49.2352 -0.312055 65.1988 5.6411 75.9645C 4.46797 77.6647 3.77635 79.7222 3.77635 81.9411L 3.77635 89.0766C 3.77635 94.2339 7.49621 98.5296 12.3885 99.4346L 12.3892 115.818C 12.3892 123.95 15.1695 131.494 19.893 137.708C 18.5297 138.521 17.1982 139.382 15.9203 140.298C 5.65419 147.656 0 156.832 0 166.133L 0 184.774L 114.152 184.774L 114.152 166.133C 114.152 156.826 108.55 147.652 98.3773 140.302"/>
<path id="path68_fill" fill-rule="evenodd" d="M 2.7319 4.342C 3.46761 2.60866 8.27381 2.25827 8.94476 4.25716C 9.55785 6.08431 12.4635 5.30076 11.8449 3.45636C 11.0072 0.960844 8.7629 0.00416005 6.25751 2.15472e-05C 3.92019 -0.00342721 1.16129 0.404905 0.1342 2.82179C -0.613906 4.58548 1.97553 6.12225 2.7319 4.342"/>
<path id="path69_fill" fill-rule="evenodd" d="M 0.475286 4.1372C 7.59538 13.2674 21.0234 12.3535 27.456 3.01428C 28.9694 0.816739 25.3887 -1.25458 23.887 0.925719C 18.8177 8.28605 8.74716 8.07016 3.39813 1.21059C 1.76277 -0.886256 -1.14423 2.06105 0.475286 4.1372"/>
<path id="path70_fill" fill-rule="evenodd" d="M 22.7722 16.1575C 22.7722 16.1575 38.3936 -12.0382 70.1508 6.06367C 101.909 24.1655 99.6714 61.0727 99.6714 61.0727C 99.6714 61.0727 99.2856 96.6852 88.0613 134.117L 9.83948 134.117C 9.83948 134.117 -1.27671 85.3829 0.12168 49.0869C 1.08609 24.0489 10.9086 15.2194 22.7722 16.1575"/>
<path id="path71_fill" fill-rule="evenodd" d="M 12.8112 134.121L 88.4622 134.121C 99.1643 97.7491 99.6665 62.9849 99.67 62.6339L 99.6727 62.5607C 99.6782 62.4704 100.171 53.3809 96.8512 42.2628C 92.4328 27.4648 83.7193 16.2716 70.9526 8.99471C 61.4181 3.56016 52.4787 1.90614 44.3839 4.07885C 32.1386 7.36483 25.9251 18.3629 25.8638 18.474L 25.3561 19.3899L 24.278 19.3044C 19.7983 18.9499 15.9331 20.1231 12.796 22.7911C 7.17147 27.5738 3.92348 37.2324 3.40408 50.7232C 2.15241 83.2167 11.1152 126.309 12.8112 134.121L 12.8112 134.121ZM 90.9393 137.269L 10.1576 137.269L 9.87589 136.032C 9.76361 135.543 -1.26785 86.6855 0.120899 50.6067C 0.683012 36.0309 4.21413 25.8805 10.615 20.4363C 14.2006 17.3883 18.5232 15.933 23.4995 16.1068C 25.3485 13.2057 31.9078 4.15822 43.4979 1.04744C 52.4931 -1.36669 62.2956 0.397007 72.632 6.28886C 89.5009 15.9047 96.8483 30.746 100.041 41.5041C 103.414 52.867 102.996 61.9566 102.954 62.7049C 102.934 64.0644 102.277 99.4611 91.2809 136.13L 90.9393 137.269Z"/>
<path id="path72_fill" fill-rule="evenodd" d="M 0 42.6694L 0 28.7164C 0 12.9225 21.4905 0 36.6062 0L 55.8606 0C 70.9763 0 92.2333 12.9225 92.2333 28.7164L 92.2333 42.6694L 0 42.6694Z"/>
<path id="path73_fill" fill-rule="evenodd" d="M 3.15356 42.6694L 92.2332 42.6694L 92.2332 30.2953C 92.2332 21.2209 84.8004 14.4951 80.3696 11.2947C 73.4224 6.27539 64.6353 3.15771 57.4374 3.15771L 38.183 3.15771C 24.3499 3.15771 3.15356 15.3153 3.15356 30.2953L 3.15356 42.6694ZM 95.3869 45.8263L 0 45.8263L 0 30.2952C 0 22.5328 4.72078 14.8745 13.2937 8.73086C 20.8071 3.3446 30.3444 0 38.183 0L 57.4374 0C 65.2643 0 74.7582 3.34667 82.2152 8.73431C 90.7095 14.871 95.3869 22.5286 95.3869 30.2952L 95.3869 45.8263Z"/>
<path id="path74_fill" fill-rule="evenodd" d="M 7.13042 20.2511L 7.13042 20.2511C 3.20873 20.2511 0 17.0389 0 13.1115L 0 7.1403C 0 3.21286 3.20873 0 7.13042 0C 11.0521 0 14.2615 3.21286 14.2615 7.1403L 14.2615 13.1115C 14.2615 17.0389 11.0521 20.2511 7.13042 20.2511"/>
<path id="path75_fill" fill-rule="evenodd" d="M 8.80855 3.36047C 5.80235 3.36047 3.3562 5.80909 3.3562 8.81985L 3.3562 14.7917C 3.3562 17.8018 5.80235 20.2511 8.80855 20.2511C 11.8154 20.2511 14.2616 17.8018 14.2616 14.7917L 14.2616 8.81985C 14.2616 5.80909 11.8154 3.36047 8.80855 3.36047L 8.80855 3.36047ZM 8.8085 23.6115C 3.95201 23.6115 0 19.6551 0 14.7917L 0 8.81984C 0 3.95641 3.95201 0 8.8085 0C 13.6657 0 17.6177 3.95641 17.6177 8.81984L 17.6177 14.7917C 17.6177 19.6551 13.6657 23.6115 8.8085 23.6115L 8.8085 23.6115Z"/>
<path id="path76_fill" fill-rule="evenodd" d="M 20.0921 34.0433C 20.0921 38.4212 15.6138 56.4064 10.4418 56.2733C 5.57635 56.1471 0 38.1618 0 34.0433L 0 0L 20.0921 0L 20.0921 34.0433Z"/>
<path id="path77_fill" fill-rule="evenodd" d="M 3.19141 3.19629L 3.19141 35.6422C 3.19141 37.4293 4.53951 42.8052 6.47453 47.6618C 9.17005 54.4296 11.3186 56.2554 12.0784 56.274C 12.3857 56.3043 12.8169 56.0388 13.2784 55.5884C 16.8523 52.101 20.092 39.3661 20.092 35.6422L 20.092 3.19629L 3.19141 3.19629ZM 12.0971 59.4703C 12.0634 59.4703 12.0303 59.4696 11.9966 59.4689C 5.27118 59.2951 0 39.2937 0 35.6422L 0 0L 23.2836 0L 23.2836 35.6422C 23.2836 39.293 20.1424 53.3522 15.5056 57.877C 14.4214 58.9351 13.2758 59.4703 12.0971 59.4703L 12.0971 59.4703Z"/>
<path id="path78_fill" fill-rule="evenodd" d="M 33.7839 95.0739L 33.7839 95.0739C 15.2025 95.0739 0 79.8517 0 61.2464L 0 33.8274C 0 15.2221 15.2025 0 33.7839 0L 33.7839 0C 52.3653 0 67.5679 15.2221 67.5679 33.8274L 67.5679 61.2464C 67.5679 79.8517 52.3653 95.0739 33.7839 95.0739"/>
<path id="path79_fill" fill-rule="evenodd" d="M 35.4621 3.35974C 17.7583 3.35974 3.3562 17.781 3.3562 35.507L 3.3562 62.9259C 3.3562 80.6525 17.7583 95.0731 35.4621 95.0731C 53.1652 95.0731 67.5672 80.6525 67.5672 62.9259L 67.5672 35.507C 67.5672 17.781 53.1652 3.35974 35.4621 3.35974L 35.4621 3.35974ZM 35.462 98.4336C 15.9079 98.4336 0 82.5045 0 62.926L 0 35.507C 0 15.9284 15.9079 0 35.462 0C 55.0154 0 70.924 15.9284 70.924 35.507L 70.924 62.926C 70.924 82.5045 55.0154 98.4336 35.462 98.4336L 35.462 98.4336Z"/>
<path id="path80_fill" fill-rule="evenodd" d="M 6.85075 3.43013C 6.85075 5.32419 5.31734 6.86026 3.42503 6.86026C 1.53341 6.86026 0 5.32419 0 3.43013C 0 1.53539 1.53341 0 3.42503 0C 5.31734 0 6.85075 1.53539 6.85075 3.43013"/>
<path id="path81_fill" fill-rule="evenodd" d="M 0.121532 1.86397C 0.948857 3.4904 2.54082 4.29327 4.34151 4.12428C 5.95552 3.97391 6.83864 2.98964 7.46344 1.57013C 7.98973 0.374105 6.22624 -0.670868 5.69513 0.535506C 5.38996 1.2294 5.1399 1.91915 4.32911 2.07365C 3.23657 2.28058 2.37894 1.79154 1.88916 0.82934C 1.29122 -0.346685 -0.475712 0.689321 0.121532 1.86397"/>
<path id="path82_fill" fill-rule="evenodd" d="M 0 13.2998L 16.8131 13.2998L 16.8131 0L 0 0L 0 13.2998Z"/>
<path id="path83_fill" fill-rule="evenodd" d="M 27.4739 27.0286L 32.7472 47.6376C 44.389 47.6314 59.4021 47.9349 78.2225 48.8681L 72.7715 18.2142L 47.9098 0L 20.2478 11.1726L 3.70333 19.6551L 0 48.8681C 0 48.8681 7.1938 47.9784 23.6005 47.7121L 27.4739 27.0286Z"/>
<path id="path84_fill" fill-rule="evenodd" d="M 85.0016 6.50918L 80.0914 0.899435L 78.3189 26.2036C 62.9105 25.4635 48.6627 25.0807 35.9173 25.0635L 29.5047 0C 29.2822 0.00482825 29.0597 0.00896676 28.8379 0.0117258L 24.1288 25.1607C 13.3998 25.3628 6.85419 25.8236 3.78462 26.0953L 5.26774 14.3882C 4.18553 13.1646 3.24524 12.4728 2.37451 11.094L 0 29.8296L 2.0969 29.5703C 2.16716 29.5613 9.3899 28.6874 25.5224 28.4253L 26.8636 28.4039L 29.6177 13.6957L 33.3679 28.3529L 34.6436 28.3522L 35.0225 28.3522C 48.4546 28.3522 63.5966 28.7654 80.0363 29.5806L 81.9169 29.6738L 85.0016 6.50918Z"/>
<path id="path85_fill" fill-rule="evenodd" d="M 0 3.43013C 0 5.32419 1.5341 6.86026 3.42572 6.86026C 5.31734 6.86026 6.85144 5.32419 6.85144 3.43013C 6.85144 1.53539 5.31734 0 3.42572 0C 1.5341 0 0 1.53539 0 3.43013"/>
<path id="path86_fill" fill-rule="evenodd" d="M 0 0.462686C 0.308611 0.126778 18.2914 -0.384328 18.2452 0.462686C 18.2452 0.462686 16.4618 8.06857 9.12262 7.6423C 1.78416 7.21604 0 0.462686 0 0.462686"/>
<path id="path87_fill" fill-rule="evenodd" d="M 2.17554 2.07149C 2.93604 3.81587 5.09356 7.35223 10.1491 7.64675C 15.3996 7.95162 17.4828 3.72414 18.1241 1.92527C 15.3094 1.60798 5.34706 1.83836 2.17554 2.07149L 2.17554 2.07149ZM 10.6891 9.42635C 10.479 9.42635 10.2654 9.42014 10.0471 9.40773C 2.16165 8.94973 0.142595 1.64665 0.123307 1.57285L 0 1.10658L 0.326521 0.750666C 0.58209 0.472006 0.846613 0.183691 9.52698 0.0326353C 15.2625 -0.0673786 18.5966 0.0629843 19.4349 0.416826C 20.0866 0.690657 20.1086 1.23487 20.1003 1.39558L 20.0783 1.54871C 20.059 1.6301 18.1412 9.42635 10.6891 9.42635L 10.6891 9.42635Z"/>
<path id="path88_stroke" d="M 2.17554 2.07149L 2.15029 1.72799L 1.66557 1.76362L 1.85981 2.20914L 2.17554 2.07149ZM 10.1491 7.64675L 10.1291 7.9906L 10.1292 7.9906L 10.1491 7.64675ZM 18.1241 1.92527L 18.4485 2.04093L 18.5944 1.63167L 18.1627 1.583L 18.1241 1.92527ZM 10.0471 9.40773L 10.0271 9.75158L 10.0275 9.7516L 10.0471 9.40773ZM 0.123307 1.57285L 0.456547 1.48576L 0.456291 1.48479L 0.123307 1.57285ZM 0 1.10658L -0.253804 0.873732L -0.381142 1.01253L -0.332985 1.19464L 0 1.10658ZM 0.326521 0.750666L 0.580325 0.983511L 0.580361 0.983471L 0.326521 0.750666ZM 9.52698 0.0326353L 9.53297 0.377015L 9.53299 0.377015L 9.52698 0.0326353ZM 19.4349 0.416826L 19.301 0.734152L 19.3015 0.734363L 19.4349 0.416826ZM 20.1003 1.39558L 20.4413 1.44466L 20.4435 1.42904L 20.4443 1.41328L 20.1003 1.39558ZM 20.0783 1.54871L 20.4134 1.62813L 20.417 1.61309L 20.4192 1.59778L 20.0783 1.54871ZM 1.85981 2.20914C 2.64296 4.00546 4.88437 7.68505 10.1291 7.9906L 10.1692 7.3029C 5.30275 7.0194 3.22913 3.62628 2.49127 1.93384L 1.85981 2.20914ZM 10.1292 7.9906C 15.6289 8.30994 17.798 3.86564 18.4485 2.04093L 17.7997 1.8096C 17.1676 3.58263 15.1704 7.5933 10.1691 7.3029L 10.1292 7.9906ZM 18.1627 1.583C 15.3141 1.26189 5.32461 1.49465 2.15029 1.72799L 2.20079 2.415C 5.36952 2.18207 15.3047 1.95407 18.0855 2.26753L 18.1627 1.583ZM 10.6891 9.08192C 10.484 9.08195 10.2802 9.07603 10.0666 9.06385L 10.0275 9.7516C 10.2507 9.76426 10.474 9.77074 10.6891 9.77078L 10.6891 9.08192ZM 10.067 9.06387C 6.24343 8.84179 3.85188 6.96584 2.4058 5.13288C 1.67708 4.21135 1.19745 3.31401 0.88737 2.62273C 0.582 1.94489 0.452328 1.46959 0.456546 1.48576L -0.209933 1.65994C -0.193455 1.72299 0.332225 3.61673 1.86498 5.55955C 3.40461 7.51108 5.9653 9.51566 10.0271 9.75158L 10.067 9.06387ZM 0.456291 1.48479L 0.332985 1.01852L -0.332985 1.19464L -0.209678 1.66091L 0.456291 1.48479ZM 0.253804 1.33942L 0.580325 0.983511L 0.0727176 0.51782L -0.253804 0.873732L 0.253804 1.33942ZM 0.580361 0.983471C 0.612304 0.948642 0.618982 0.938636 0.639778 0.926005C 0.669457 0.903816 0.691158 0.891974 0.764792 0.86733C 0.92195 0.812447 1.21743 0.748652 1.80387 0.6863C 2.97724 0.561404 5.19824 0.452404 9.53297 0.377015L 9.52099 -0.311744C 5.17535 -0.236078 2.92391 -0.125392 1.73104 0.00129783C 1.13435 0.0647395 0.773256 0.134713 0.537677 0.216983C 0.414941 0.260914 0.306232 0.318495 0.23862 0.366001C 0.162125 0.423064 0.10463 0.483025 0.0726813 0.51786L 0.580361 0.983471ZM 9.53299 0.377015C 12.3971 0.327052 14.6548 0.334571 16.304 0.398707C 17.1265 0.430629 17.7879 0.476008 18.2999 0.535586C 18.8187 0.59585 19.1408 0.666537 19.301 0.734151L 19.5688 0.0995017C 19.3099 -0.00980483 18.9008 -0.0881042 18.3794 -0.148676C 17.8513 -0.209934 17.1635 -0.25724 16.3307 -0.289637C 14.6694 -0.354139 12.3923 -0.361795 9.52098 -0.311744L 9.53299 0.377015ZM 19.3015 0.734363C 19.5449 0.836656 19.65 0.977085 19.7012 1.09033C 19.765 1.21476 19.7601 1.30974 19.7564 1.37789L 20.4443 1.41328C 20.4489 1.32071 20.437 1.06323 20.329 0.806913C 20.2083 0.539421 19.9766 0.270827 19.5683 0.0992895L 19.3015 0.734363ZM 19.7594 1.34651L 19.7374 1.49963L 20.4192 1.59778L 20.4413 1.44466L 19.7594 1.34651ZM 19.7432 1.46928C 19.7476 1.45032 19.6222 1.96589 19.3316 2.68526C 19.0371 3.41696 18.5818 4.3621 17.8917 5.31654C 16.5223 7.21479 14.2732 9.08192 10.6891 9.08192L 10.6891 9.77078C 14.5571 9.77078 16.993 7.73979 18.4503 5.71956C 19.9013 3.70825 20.3989 1.68942 20.4134 1.62813L 19.7432 1.46928Z"/>
<path id="path89_fill" fill-rule="evenodd" d="M 7.91917 3.05077L 1.52308 3.05077C 0.685419 3.05077 0 2.36447 0 1.52504C 0 0.686302 0.685419 0 1.52308 0L 7.91917 0C 8.75683 0 9.44225 0.686302 9.44225 1.52504C 9.44225 2.36447 8.75683 3.05077 7.91917 3.05077"/>
<path id="path90_fill" fill-rule="evenodd" d="M 9.36725 3.57361C 6.16955 3.57361 3.56909 6.17811 3.56909 9.37924L 3.56909 15.7298C 3.56909 18.9309 6.16955 21.5354 9.36725 21.5354C 12.565 21.5354 15.1654 18.9309 15.1654 15.7298L 15.1654 9.37924C 15.1654 6.17811 12.565 3.57361 9.36725 3.57361L 9.36725 3.57361ZM 9.36716 25.1083C 4.20207 25.1083 0 20.9015 0 15.7298L 0 9.37923C 0 4.20748 4.20207 0 9.36716 0C 14.5323 0 18.735 4.20748 18.735 9.37923L 18.735 15.7298C 18.735 20.9015 14.5323 25.1083 9.36716 25.1083L 9.36716 25.1083Z"/>
<path id="path91_fill" fill-rule="evenodd" d="M 87.5394 122.329C 79.603 116.595 69.498 113.031 61.1628 113.028L 61.1628 107.14C 73.2496 102.871 82.5251 92.6024 85.4129 79.9206C 90.1881 79.4964 93.9465 75.4731 93.9465 70.5835L 93.9465 64.2329C 93.9465 59.7171 90.7412 55.9373 86.4896 55.0516C 88.0009 33.8315 84.5669 19.0998 76.003 10.0564C 75.9899 10.0427 75.9754 10.0295 75.9617 10.0151C 75.6958 9.69157 74.5515 8.37415 72.3375 6.796C 66.3327 2.27813 58.4983 0.00402289 48.9472 0.0171282C 48.859 0.0150589 48.7757 0.0102306 48.6875 0.00885114C 29.9104 -0.359476 20.7506 10.8828 19.7104 12.245C 17.0473 15.3034 10.8792 23.708 11.3311 35.5151C 11.3318 35.5317 11.3325 35.5483 11.3332 35.5648C 10.769 41.298 10.8393 46.994 10.9033 52.0243C 10.9164 53.0521 10.9268 54.0494 10.9336 55.031C 6.62411 55.8711 3.3589 59.6764 3.3589 64.2329L 3.3589 70.5835C 3.3589 75.4731 7.11803 79.4964 11.8932 79.9206C 14.8023 92.692 24.1901 103.015 36.4016 107.228L 36.4016 113.322C 29.0232 114.273 20.845 117.538 14.1651 122.325C 5.03077 128.872 0 137.037 0 145.314L 0 161.901L 101.575 161.901L 101.575 145.314C 101.575 137.032 96.5904 128.868 87.5394 122.329"/>
<path id="path92_fill" fill-rule="evenodd" d="M 0 45.3759L 0 30.538C 0 13.7426 22.853 0 38.9277 0L 59.4028 0C 75.4774 0 98.0824 13.7426 98.0824 30.538L 98.0824 45.3759L 0 45.3759Z"/>
<path id="path93_fill" fill-rule="evenodd" d="M 3.49316 45.3752L 98.0817 45.3752L 98.0817 32.2865C 98.0817 25.2614 93.4939 17.9169 85.4948 12.1375C 78.1191 6.80779 68.7898 3.49768 61.149 3.49768L 40.6739 3.49768C 25.9914 3.49768 3.49316 16.3946 3.49316 32.2865L 3.49316 45.3752ZM 101.575 48.873L 0 48.873L 0 32.2865C 0 24.0088 5.03008 15.845 14.1651 9.29715C 22.1669 3.56256 32.3242 0 40.6739 0L 61.149 0C 69.4863 0 79.5982 3.56394 87.5387 9.3006C 96.5904 15.8408 101.575 24.0047 101.575 32.2865L 101.575 48.873Z"/>
<path id="path94_fill" fill-rule="evenodd" d="M 7.58301 21.5354L 7.58301 21.5354C 3.41194 21.5354 0 18.1191 0 13.9433L 0 7.59278C 0 3.41703 3.41194 0 7.58301 0C 11.7534 0 15.166 3.41703 15.166 7.59278L 15.166 13.9433C 15.166 18.1191 11.7534 21.5354 7.58301 21.5354"/>
<path id="path95_fill" fill-rule="evenodd" d="M 9.36774 3.57361C 6.17004 3.57361 3.56958 6.17811 3.56958 9.37924L 3.56958 15.7298C 3.56958 18.9309 6.17004 21.5354 9.36774 21.5354C 12.5648 21.5354 15.1659 18.9309 15.1659 15.7298L 15.1659 9.37924C 15.1659 6.17811 12.5648 3.57361 9.36774 3.57361L 9.36774 3.57361ZM 9.36785 25.109C 4.20207 25.109 0 20.9008 0 15.7298L 0 9.37923C 0 4.20748 4.20207 0 9.36785 0C 14.533 0 18.735 4.20748 18.735 9.37923L 18.735 15.7298C 18.735 20.9008 14.533 25.109 9.36785 25.109L 9.36785 25.109Z"/>
<path id="path96_fill" fill-rule="evenodd" d="M 21.3665 36.2023C 21.3665 45.2373 0 45.2373 0 36.2023L 0 0L 21.3665 0L 21.3665 36.2023Z"/>
<path id="path97_fill" fill-rule="evenodd" d="M 3.39404 3.39844L 3.39404 37.9011C 3.39404 41.2354 7.91436 42.9798 12.3803 42.9798C 16.8462 42.9798 21.3665 41.2354 21.3665 37.9011L 21.3665 3.39844L 3.39404 3.39844ZM 12.3803 46.3781C 6.41745 46.3781 0 43.7254 0 37.9011L 0 0L 24.7612 0L 24.7612 37.9011C 24.7612 43.7254 18.3431 46.3781 12.3803 46.3781L 12.3803 46.3781Z"/>
<path id="path98_fill" fill-rule="evenodd" d="M 36.0104 105.704L 36.0104 105.704C 16.2503 105.704 0.0840676 89.5158 0.0840676 69.731L 0.0840676 54.8462C 0.0840676 35.0614 -3.40985 3.22041 34.6512 0.0261725C 72.3093 -1.07605 73.7491 32.8845 71.9367 54.8462L 71.9367 69.731C 71.9367 89.5158 55.7697 105.704 36.0104 105.704"/>
<path id="path99_fill" fill-rule="evenodd" d="M 36.5346 3.59646C 21.6833 4.85387 12.1743 10.6519 7.46658 21.3217C 3.34098 30.6712 3.48426 41.9866 3.61102 51.9701C 3.63168 53.5806 3.65097 55.1408 3.65097 56.6321L 3.65097 71.5162C 3.65097 90.3671 18.9672 105.702 37.7931 105.702C 56.6191 105.702 71.9352 90.3671 71.9352 71.5162L 71.9414 56.4852C 73.6815 35.3995 70.6106 21.014 62.5536 12.506C 56.6494 6.27062 47.9008 3.26883 36.5346 3.59646L 36.5346 3.59646ZM 37.7931 109.277C 16.9997 109.277 0.0819408 92.3371 0.0819408 71.5163L 0.0819408 56.6321C 0.0819408 55.1554 0.0633415 53.611 0.0426756 52.0156C -0.203937 32.5467 -0.576611 3.12541 36.2852 0.0325688L 36.3816 0.026361C 48.8349 -0.335758 58.5017 3.03436 65.143 10.0477C 73.9295 19.3263 77.3187 34.5884 75.5042 56.7059L 75.5042 71.5163C 75.5042 92.3371 58.5871 109.277 37.7931 109.277L 37.7931 109.277Z"/>
<path id="path100_fill" fill-rule="evenodd" d="M 7.28542 3.6474C 7.28542 5.66147 5.65419 7.2948 3.64271 7.2948C 1.63123 7.2948 0 5.66147 0 3.6474C 0 1.63333 1.63123 0 3.64271 0C 5.65419 0 7.28542 1.63333 7.28542 3.6474"/>
<path id="path101_fill" fill-rule="evenodd" d="M 7.28542 3.6474C 7.28542 5.66216 5.65419 7.2948 3.64271 7.2948C 1.63123 7.2948 0 5.66216 0 3.6474C 0 1.63333 1.63123 0 3.64271 0C 5.65419 0 7.28542 1.63333 7.28542 3.6474"/>
<path id="path102_fill" fill-rule="evenodd" d="M 7.33157 3.0687L 1.52514 3.0687C 0.686108 3.0687 0 2.38102 0 1.54159L 0 1.52642C 0 0.686992 0.686108 0 1.52514 0L 7.33157 0C 8.16992 0 8.85603 0.686992 8.85603 1.52642L 8.85603 1.54159C 8.85603 2.38102 8.16992 3.0687 7.33157 3.0687"/>
<path id="path103_fill" fill-rule="evenodd" d="M 7.44317 3.0687L 1.53203 3.0687C 0.689552 3.0687 0 2.37826 0 1.53401C 0 0.69044 0.689552 0 1.53203 0L 7.44317 0C 8.28634 0 8.97589 0.69044 8.97589 1.53401C 8.97589 2.37826 8.28634 3.0687 7.44317 3.0687"/>
<path id="path104_fill" fill-rule="evenodd" d="M 0.787034 3.38233C 7.6178 7.83467 16.3581 7.78984 23.1317 3.24576C 24.9482 2.02697 23.2405 -0.93689 21.4075 0.292936C 15.5666 4.21072 8.40655 4.27211 2.51057 0.429506C 0.663727 -0.774799 -1.05016 2.18492 0.787034 3.38233"/>
<path id="path105_fill" fill-rule="evenodd" d="M 0.787015 3.38233C 7.61778 7.83467 16.3581 7.78983 23.1317 3.24644C 24.9482 2.02697 23.2412 -0.936893 21.4081 0.292932C 15.5666 4.21141 8.40722 4.2721 2.51124 0.429503C 0.663708 -0.774802 -1.05018 2.18492 0.787015 3.38233"/>
<path id="path106_fill" fill-rule="evenodd" d="M 0.319134 1.41712C 3.15381 3.49672 6.87642 3.44223 9.79858 1.56679C 10.597 1.055 9.85645 -0.226557 9.05323 0.289376C 6.5313 1.90822 3.50719 1.93236 1.06517 0.1397C 0.29709 -0.423136 -0.440682 0.8598 0.319134 1.41712"/>
<path id="path107_fill" fill-rule="evenodd" d="M 0.238221 44.8028C 0.238221 44.8028 13.2288 11.7796 13.2288 10.5953C 13.2288 9.41096 9.02881 0 9.02881 0C 9.02881 0 -0.516084 9.10333 0.0219181 23.1694C 0.560609 37.2355 0.238221 44.8028 0.238221 44.8028"/>
<path id="path108_fill" fill-rule="evenodd" d="M 10.5181 6.32568C 7.94041 9.60959 3.44076 16.7402 3.80034 26.1388C 3.98289 30.9194 4.06831 34.9428 4.1 38.1777C 8.26762 27.4796 12.7969 15.6835 13.4072 13.5846C 13.1462 12.5962 11.8869 9.49509 10.5181 6.32568L 10.5181 6.32568ZM 0 58.3922L 0.450517 47.7645C 0.453961 47.6894 0.763261 40.089 0.234902 26.2754C -0.327899 11.5726 9.37956 2.13892 9.79357 1.74438L 11.6232 0L 12.653 2.30929C 17.008 12.0686 17.008 13.246 17.008 13.6336C 17.008 14.0495 17.008 15.1573 3.89346 48.495L 0 58.3922Z"/>
<path id="path109_fill" fill-rule="evenodd" d="M 12.9906 44.8028C 12.9906 44.8028 0 11.7796 0 10.5953C 0 9.41096 4.2 0 4.2 0C 4.2 0 13.7449 9.10333 13.2069 23.1694C 12.6682 37.2355 12.9906 44.8028 12.9906 44.8028"/>
<path id="path110_fill" fill-rule="evenodd" d="M 3.60132 13.5846C 4.21165 15.6828 8.74093 27.4803 12.9092 38.1777C 12.9409 34.9421 13.025 30.9201 13.2082 26.1388C 13.5671 16.7402 9.06883 9.61097 6.48972 6.32568C 5.12095 9.49509 3.8624 12.5962 3.60132 13.5846L 3.60132 13.5846ZM 17.0067 58.3895L 13.1153 48.495C 0 15.1566 0 14.0495 0 13.6329C 0 13.246 0 12.0679 4.35568 2.3086L 5.38553 0L 7.21516 1.74438C 7.62847 2.13892 17.3359 11.5726 16.7738 26.2747C 16.2455 40.089 16.5548 47.6894 16.5575 47.7639L 17.0067 58.3895Z"/>
<path id="path111_fill" fill-rule="evenodd" d="M 5.26223 21.0867C 5.26223 21.0867 25.7545 37.0014 49.324 21.0867L 53.5529 9.39753C 53.5529 9.39753 46.4542 0.368001 27.5945 0.00795104C 8.73548 -0.352099 0 11.6358 0 11.6358L 5.26223 21.0867Z"/>
<path id="path112_fill" fill-rule="evenodd" d="M 8.74855 21.6684C 11.2822 23.5025 29.1727 35.3855 49.9619 21.7119L 53.6163 11.6091C 51.5373 9.60677 44.3132 3.86114 29.6755 3.5811C 14.7616 3.29348 6.61514 10.9766 4.26611 13.6177L 8.74855 21.6684ZM 29.4854 31.7181C 25.966 31.7181 22.8069 31.2332 20.1424 30.5758C 11.8016 28.5197 6.50425 24.4564 6.28312 24.2846L 5.99518 24.0618L 0 13.2927L 0.67302 12.3692C 1.05327 11.8491 10.1828 -0.374665 29.7437 0.0088368C 49.2241 0.380612 56.7582 9.68328 57.0696 10.0792L 57.6827 10.8593L 52.9185 24.0287L 52.4363 24.3543C 44.1127 29.9751 36.1529 31.7181 29.4854 31.7181L 29.4854 31.7181Z"/>
<path id="path113_fill" fill-rule="evenodd" d="M 0.0146929 0C 0.0146929 0 -0.832609 20.0242 10.3414 19.9904C 23.022 19.9517 21.3075 0.551111 21.3075 0.551111C 13.3428 6.7906 6.23513 6.6823 0.0146929 0"/>
<path id="path114_fill" fill-rule="evenodd" d="M 3.89404 8.82333C 4.22401 12.8404 5.24146 18.1225 7.85156 20.8374C 9.04536 22.0783 10.4665 22.6818 12.1955 22.6825C 12.2031 22.6825 12.2114 22.6825 12.2183 22.6818C 14.5508 22.6756 16.3818 21.9072 17.816 20.3332C 20.4295 17.4666 21.2252 12.3624 21.3705 8.68262C 14.0162 13.1529 8.16982 11.8079 3.89404 8.82333L 3.89404 8.82333ZM 12.195 26.4485C 9.42574 26.4485 7.05122 25.4373 5.13687 23.4432C -0.469098 17.6052 -0.00411471 5.02828 0.0179289 4.4958L 0.208055 0L 3.27281 3.2908C 8.79956 9.2268 14.761 9.33853 22.0312 3.64326L 24.7585 1.50711L 25.0629 4.96C 25.1063 5.44489 26.0487 16.8872 20.595 22.8721C 18.4409 25.2345 15.6269 26.4375 12.2301 26.4485L 12.195 26.4485Z"/>
<path id="path115_fill" fill-rule="evenodd" d="M 9.80907 1.07601C 9.74087 3.1832 9.67337 5.2897 9.60586 7.39689C 9.56659 8.59222 9.51355 9.78825 9.49013 10.9843C 9.48599 11.1622 9.54661 11.5761 9.46464 11.7534C 9.92204 10.7615 9.13399 11.6885 8.96315 11.7113C 8.49128 11.7747 7.98565 12.0727 7.47865 12.1396C 6.22147 12.3058 5.0876 11.9906 3.84971 11.9279C 3.01412 11.8858 2.98726 12.1224 2.71516 11.5616C 2.35419 10.8167 2.59461 9.1454 2.55327 8.32874C 2.44512 6.16292 2.33697 3.99848 2.22813 1.83336C 2.15718 0.404884 -0.070607 0.396607 0.00172364 1.83336C 0.141563 4.6303 0.281402 7.42724 0.42193 10.2242C 0.463262 11.0512 0.3372 12.0865 0.836626 12.7866C 2.10069 14.5572 5.62354 14.5441 7.47865 14.3696C 8.82331 14.242 10.7108 13.7598 11.452 12.4576C 11.8729 11.7189 11.7276 10.6532 11.7537 9.82757C 11.8481 6.90992 11.9418 3.99297 12.0362 1.07601C 12.0823 -0.35936 9.85523 -0.35798 9.80907 1.07601"/>
<path id="path116_fill" fill-rule="evenodd" d="M 0 3.78949L 460.161 3.78949L 460.161 0L 0 0L 0 3.78949Z"/>
<path id="path117_fill" fill-rule="evenodd" d="M 98.3766 140.303C 96.1936 138.725 93.8625 137.296 91.4521 136.034C 94.9495 130.582 96.9651 124.239 96.9651 117.47L 96.9651 99.4353C 101.858 98.5297 105.578 94.2339 105.578 89.0773L 105.578 81.9411C 105.578 78.0475 103.453 74.6477 100.309 72.8226C 104.142 58.7317 105.408 43.4772 96.8225 26.0403C 88.7408 10.7747 73.0753 5.05671 67.9274 3.17713C 54.7212 -1.64353 39.6165 -0.93102 29.4441 4.99187C 24.0475 8.13437 20.307 12.5646 18.4643 17.9412C 17.9683 17.8123 17.4682 17.7102 16.9591 17.6729C 13.3137 17.4088 8.24294 19.3683 4.79656 30.2685C -0.70884 49.2359 -0.312055 65.1988 5.6411 75.9651C 4.46728 77.6647 3.77566 79.7229 3.77566 81.9411L 3.77566 89.0773C 3.77566 94.2339 7.49621 98.5297 12.3885 99.4353L 12.3885 115.818C 12.3885 123.95 15.1688 131.494 19.893 137.708C 18.5297 138.521 17.1982 139.382 15.9196 140.298C 5.6535 147.656 0 156.832 0 166.134L 0 184.775L 114.151 184.775L 114.151 166.134C 114.151 156.826 108.549 147.652 98.3766 140.303"/>
<path id="path118_fill" fill-rule="evenodd" d="M 8.52193 24.2013L 8.52193 24.2013C 3.8349 24.2013 0 20.3621 0 15.6684L 0 8.53222C 0 3.83915 3.8349 0 8.52193 0C 13.209 0 17.0439 3.83915 17.0439 8.53222L 17.0439 15.6684C 17.0439 20.3621 13.209 24.2013 8.52193 24.2013"/>
<path id="path119_fill" fill-rule="evenodd" d="M 10.5271 4.01575C 6.93403 4.01575 4.0105 6.94236 4.0105 10.5408L 4.0105 17.6769C 4.0105 21.2747 6.93335 24.202 10.5271 24.202L 10.5271 24.202C 14.1203 24.202 17.0438 21.2747 17.0438 17.6769L 17.0438 10.5408C 17.0438 6.94236 14.1203 4.01575 10.5271 4.01575L 10.5271 4.01575ZM 10.5272 28.2177C 4.72285 28.2177 0 23.4888 0 17.6769L 0 10.5408C 0 4.72824 4.72216 0 10.5272 0C 16.3316 0 21.0537 4.72824 21.0537 10.5408L 21.0537 17.6769C 21.0537 23.4888 16.3316 28.2177 10.5272 28.2177L 10.5272 28.2177Z"/>
<path id="path120_fill" fill-rule="evenodd" d="M 8.52124 24.2013L 8.52124 24.2013C 3.83421 24.2013 0 20.3621 0 15.6684L 0 8.53222C 0 3.83915 3.83421 0 8.52124 0C 13.209 0 17.0432 3.83915 17.0432 8.53222L 17.0432 15.6684C 17.0432 20.3621 13.209 24.2013 8.52124 24.2013"/>
<path id="path121_fill" fill-rule="evenodd" d="M 10.5264 4.01575C 6.93261 4.01575 4.00977 6.94236 4.00977 10.5408L 4.00977 17.6769C 4.00977 21.2747 6.93261 24.202 10.5264 24.202C 14.1195 24.202 17.0431 21.2747 17.0431 17.6769L 17.0431 10.5408C 17.0431 6.94236 14.1195 4.01575 10.5264 4.01575L 10.5264 4.01575ZM 10.5265 28.2177C 4.72147 28.2177 0 23.4888 0 17.6769L 0 10.5408C 0 4.72824 4.72147 0 10.5265 0C 16.3309 0 21.053 4.72824 21.053 10.5408L 21.053 17.6769C 21.053 23.4888 16.3309 28.2177 10.5265 28.2177L 10.5265 28.2177Z"/>
<path id="path122_fill" fill-rule="evenodd" d="M 0 50.9933L 0 34.3185C 0 15.4435 25.6822 0 43.747 0L 66.7571 0C 84.8218 0 110.226 15.4435 110.226 34.3185L 110.226 50.9933L 0 50.9933Z"/>
<path id="path123_fill" fill-rule="evenodd" d="M 3.92578 50.9932L 110.225 50.9932L 110.225 36.2843C 110.225 28.3894 105.07 20.1351 96.0799 13.6404C 87.7908 7.65065 77.307 3.93152 68.7203 3.93152L 45.7095 3.93152C 29.2091 3.93152 3.92578 18.4253 3.92578 36.2843L 3.92578 50.9932ZM 114.152 54.9242L 0 54.9242L 0 36.2843C 0 26.981 5.6535 17.8066 15.9196 10.4483C 24.9114 4.004 36.3265 0 45.7095 0L 68.7203 0C 78.0896 0 89.4537 4.00469 98.3766 10.4532C 108.549 17.8018 114.152 26.9762 114.152 36.2843L 114.152 54.9242Z"/>
<path id="path124_fill" fill-rule="evenodd" d="M 24.011 34.5537C 24.011 43.1777 0 43.1777 0 34.5537L 0 0L 24.011 0L 24.011 34.5537Z"/>
<path id="path125_fill" fill-rule="evenodd" d="M 3.51538 3.51917L 3.51538 36.3141C 3.51538 39.3717 8.79552 41.023 13.7636 41.023C 18.7317 41.023 24.0118 39.3717 24.0118 36.3141L 24.0118 3.51917L 3.51538 3.51917ZM 13.7635 44.542C 7.13456 44.542 0 41.9665 0 36.314L 0 0L 27.527 0L 27.527 36.314C 27.527 41.9665 20.3924 44.542 13.7635 44.542L 13.7635 44.542Z"/>
<path id="path126_fill" fill-rule="evenodd" d="M 40.3743 113.62L 40.3743 113.62C 18.1688 113.62 0 95.4284 0 73.1936L 0 40.4263C 0 18.1915 18.1688 0 40.3743 0C 62.5798 0 80.7479 18.1915 80.7479 40.4263L 80.7479 73.1936C 80.7479 95.4284 62.5798 113.62 40.3743 113.62"/>
<path id="path127_fill" fill-rule="evenodd" d="M 42.3795 4.01501C 21.2231 4.01501 4.0105 21.2491 4.0105 42.4334L 4.0105 75.2014C 4.0105 96.3844 21.2231 113.619 42.3795 113.619C 63.5366 113.619 80.7485 96.3844 80.7485 75.2014L 80.7485 42.4334C 80.7485 21.2491 63.5366 4.01501 42.3795 4.01501L 42.3795 4.01501ZM 42.3796 117.635C 19.0119 117.635 0 98.5992 0 75.2014L 0 42.4335C 0 19.0351 19.0119 0 42.3796 0C 65.7479 0 84.7591 19.0351 84.7591 42.4335L 84.7591 75.2014C 84.7591 98.5992 65.7479 117.635 42.3796 117.635L 42.3796 117.635Z"/>
<path id="path128_fill" fill-rule="evenodd" d="M 0.349309 2.86039C 2.12038 5.11105 5.11693 5.64492 7.83312 5.35591C 10.0988 5.11519 11.5309 4.06746 12.7736 2.20513C 13.8517 0.589044 11.2478 -0.920131 10.1759 0.684919C 8.51716 3.17216 4.28616 3.03214 2.47583 0.731133C 1.27927 -0.789768 -0.836225 1.35398 0.349309 2.86039"/>
<path id="path129_fill" fill-rule="evenodd" d="M 0 15.8946L 20.0928 15.8946L 20.0928 0L 0 0L 0 15.8946Z"/>
<path id="path130_fill" fill-rule="evenodd" d="M 11.3711 63.4075L 19.9977 44.9636C 23.9711 35.9423 25.6195 24.4842 24.175 12.1735C 22.5699 2.2894 10.1394 -8.90732 3.79011 11.1693C -1.98601 31.0672 -2.38899 52.9847 11.3711 63.4075"/>
<path id="path131_fill" fill-rule="evenodd" d="M 15.4721 4.0166C 12.4659 4.0166 9.7242 7.46605 7.7258 13.7842C 4.66587 24.3284 -0.741704 49.5367 12.6884 62.1943L 20.2066 46.1204C 24.1263 37.2198 25.5557 25.9631 24.2137 14.4615C 23.3506 9.25526 19.3304 4.28767 15.76 4.02764C 15.6643 4.02005 15.5678 4.0166 15.4721 4.0166L 15.4721 4.0166ZM 14.1612 68.5132L 12.1856 67.0171C -0.362085 57.5116 -3.3862 37.6841 3.88958 12.6178C 7.33527 1.7177 12.4067 -0.241884 16.0515 0.0222909C 22.0329 0.458903 27.1511 7.52954 28.1789 13.8601L 28.1913 13.9477C 29.6241 26.1666 28.0852 38.1827 23.857 47.7827L 14.1612 68.5132Z"/>
<path id="path132_fill" fill-rule="evenodd" d="M 0.0116798 20.0233C 0.0116798 20.0233 -2.48752 40.5799 65.6301 58.7107L 75.5139 81.0524C 81.509 63.7066 85.9343 46.0062 75.5759 24.9667C 68.7458 12.0656 56.5136 6.24277 47.7658 3.04923C 28.2682 -4.06831 3.20387 1.14896 0.0116798 20.0233"/>
<path id="path133_fill" fill-rule="evenodd" d="M 4.01274 22.2708C 4.00517 23.2551 4.81527 41.926 68.1514 58.7849L 69.0807 59.0318L 77.2623 77.5247C 82.2118 62.1405 84.9542 46.4942 75.784 27.8682C 69.2137 15.4596 57.399 9.98431 49.0858 6.9501C 36.9535 2.52052 23.1769 3.1144 13.9916 8.46272C 8.47658 11.6742 5.02813 16.4473 4.01274 22.2708L 4.01274 22.2708ZM 77.7501 88.5421L 66.1923 62.4164C 38.115 54.865 18.5106 45.9948 7.91175 36.0465C -0.477922 28.1723 -0.0487603 22.4246 0.0277035 21.7949L 0.0414808 21.7025C 1.23941 14.6187 5.36639 8.83999 11.976 4.99187C 22.1478 -0.93102 37.2532 -1.64353 50.4594 3.17713C 55.6066 5.05602 71.2727 10.7747 79.3545 26.0403C 90.1979 48.0647 85.3297 66.6101 79.4158 83.7235L 77.7501 88.5421Z"/>
<path id="path134_fill" fill-rule="evenodd" d="M 3.69798 5.87879C 4.69477 3.53225 11.2011 3.05702 12.109 5.7636C 12.9398 8.23773 16.8739 7.1769 16.0362 4.68C 14.9023 1.30091 11.8638 0.00555862 8.4718 4.06175e-05C 5.30648 -0.00547739 1.57215 0.547703 0.182021 3.82057C -0.831985 6.20849 2.67502 8.28808 3.69798 5.87879"/>
<path id="path135_fill" fill-rule="evenodd" d="M 3.29942 5.24558C 4.18874 3.1515 9.99379 2.72799 10.8046 5.14281C 11.5451 7.3507 15.0549 6.40367 14.3075 4.17578C 13.2962 1.16088 10.5848 0.00485395 7.55866 2.56924e-05C 4.73432 -0.00411281 1.40229 0.489059 0.162333 3.40946C -0.742145 5.53941 2.38667 7.39553 3.29942 5.24558"/>
<path id="path136_fill" fill-rule="evenodd" d="M 0 8.86674L 0 0L 106.27 0L 106.27 8.19769L 0 8.86674Z"/>
<path id="path137_fill" fill-rule="evenodd" d="M 1.08634 0L 104.85 0L 106.27 8.65844L 0 8.65844L 1.08634 0Z"/>
<path id="path138_fill" fill-rule="evenodd" d="M 9.21493 0L 87.4044 0L 96.1199 8.65844L 0 8.65844L 9.21493 0Z"/>
<path id="path139_fill" fill-rule="evenodd" d="M 68.6122 11.7409L 12.1357 11.7409L 0 0L 0 28.8192L 0 32.7514C 0 52.8963 17.8953 69.2268 39.9706 69.2268L 42.5876 69.2268C 63.6627 69.2268 80.7479 53.635 80.7479 34.402L 80.7479 28.8192L 80.7479 23.0087L 80.7479 0L 68.6122 11.7409Z"/>
<path id="path140_fill" fill-rule="evenodd" d="M 3.82861 9.0343L 3.82861 37.2679C 3.82861 56.3243 20.9007 71.8278 41.8856 71.8278L 44.5019 71.8278C 64.4885 71.8278 80.7492 57.0651 80.7492 38.9198L 80.7492 9.0343L 71.3014 18.1749L 13.2771 18.1749L 3.82861 9.0343ZM 44.502 75.6601L 41.8856 75.6601C 18.7901 75.6601 0.000688863 58.4384 0.000688863 37.2679L 0 0L 14.8243 14.342L 69.7543 14.342L 84.5773 0L 84.5773 38.9199C 84.5773 59.1785 66.6 75.6601 44.502 75.6601L 44.502 75.6601Z"/>
<path id="path141_fill" fill-rule="evenodd" d="M 0 0.758597C 0.505626 0.207486 29.9848 -0.629872 29.9091 0.758597C 29.9091 0.758597 26.9848 13.2265 14.9545 12.5271C 2.92423 11.8284 0 0.758597 0 0.758597"/>
<path id="path142_fill" fill-rule="evenodd" d="M 3.56567 3.39584C 4.81321 6.25554 8.34983 12.0529 16.6369 12.5337C 25.2442 13.0351 28.6582 6.10449 29.7108 3.15511C 25.0961 2.63435 8.76453 3.01371 3.56567 3.39584L 3.56567 3.39584ZM 17.5219 15.452C 17.1775 15.452 16.8276 15.4417 16.4687 15.4217C 3.54351 14.6705 0.234214 2.69784 0.201837 2.57714L 0 1.81289L 0.534558 1.22936C 0.954076 0.772748 1.38806 0.299579 15.6172 0.0533383C 25.0188 -0.110133 30.485 0.103 31.8592 0.681011C 32.9277 1.13211 32.9635 2.02396 32.9497 2.28744L 32.9132 2.5392C 32.8822 2.67163 29.7382 15.452 17.5219 15.452L 17.5219 15.452Z"/>
<path id="path143_fill" fill-rule="evenodd" d="M 16.8868 5.63595L 2.81401 5.63595C 1.26613 5.63595 0 4.36819 0 2.81832C 0 1.26845 1.26613 0 2.81401 0L 16.8868 0C 18.4347 0 19.7015 1.26845 19.7015 2.81832C 19.7015 4.36819 18.4347 5.63595 16.8868 5.63595"/>
<path id="path144_fill" fill-rule="evenodd" d="M 16.8868 5.63595L 2.81401 5.63595C 1.26613 5.63595 0 4.36819 0 2.81832C 0 1.26845 1.26613 0 2.81401 0L 16.8868 0C 18.4347 0 19.7008 1.26845 19.7008 2.81832C 19.7008 4.36819 18.4347 5.63595 16.8868 5.63595"/>
<path id="path145_fill" fill-rule="evenodd" d="M 0 3.81087L 45.0055 3.81087L 45.0055 0L 0 0L 0 3.81087Z"/>
<path id="path146_fill" fill-rule="evenodd" d="M 0 3.81087L 15.952 3.81087L 15.952 0L 0 0L 0 3.81087Z"/>
<path id="path147_fill" fill-rule="evenodd" d="M 7.91917 3.05077L 1.52308 3.05077C 0.685419 3.05077 0 2.36447 0 1.52573C 0 0.686302 0.685419 0 1.52308 0L 7.91917 0C 8.75683 0 9.44225 0.686302 9.44225 1.52573C 9.44225 2.36447 8.75683 3.05077 7.91917 3.05077"/>
<path id="path148_fill" fill-rule="evenodd" d="M 7.91917 3.05008L 1.52308 3.05008C 0.685419 3.05008 0 2.36378 0 1.52504C 0 0.685612 0.685419 0 1.52308 0L 7.91917 0C 8.75683 0 9.44225 0.685612 9.44225 1.52504C 9.44225 2.36378 8.75683 3.05008 7.91917 3.05008"/>
<path id="path149_fill" fill-rule="evenodd" d="M 7.91917 3.05077L 1.52377 3.05077C 0.685419 3.05077 0 2.36447 0 1.52504C 0 0.686302 0.685419 0 1.52377 0L 7.91917 0C 8.75752 0 9.44294 0.686302 9.44294 1.52504C 9.44294 2.36447 8.75752 3.05077 7.91917 3.05077"/>
</defs>
</svg>
