<svg xmlns="http://www.w3.org/2000/svg" viewBox="0 0 16.96 14.32"><defs><style>.cls-1{fill:#231f20;}.cls-2{fill:#a7a9ac;}.cls-3{fill:#fff;}.cls-4{fill:#010101;}.cls-5{fill:#070707;}</style></defs><title>Group</title><g id="Layer_2" data-name="Layer 2"><g id="Layer_1-2" data-name="Layer 1"><g id="Group"><g id="Combined-Shape"><path class="cls-1" d="M16.28,1.21V.87a.34.34,0,0,0-.34-.34h-.11a.35.35,0,0,0-.35.34h0v.34h-.34a.35.35,0,0,0-.34.34h0v.12h0a.34.34,0,0,0,.34.34h.34v.34a.35.35,0,0,0,.35.34h.11a.34.34,0,0,0,.34-.34h0V2h.34A.34.34,0,0,0,17,1.67h0V1.55a.34.34,0,0,0-.34-.34h-.34Z"/></g><g id="Logo"><g id="Fill-1"><polygon class="cls-2" points="8.93 2.96 5.35 2.94 7.11 14.09 7.49 14.09 11 14.09 11.38 14.09 13.14 2.94 8.93 2.96"/></g><g id="Fill-2"><polygon class="cls-1" points="8.93 2.96 5.35 2.94 7.11 14.09 7.49 14.09 10.11 14.09 10.49 14.09 12.25 2.94 8.93 2.96"/></g><g id="Fill-3"><polygon class="cls-3" points="4.33 2.94 13.55 2.94 13.55 1.91 4.33 1.91 4.33 2.94"/></g><g id="Stroke-4"><path class="cls-4" d="M13.79,3.18H4.09V1.67h9.7ZM4.57,2.7h8.74V2.15H4.57Z"/></g><g id="Fill-6"><polygon class="cls-3" points="11.77 0.24 9.57 0.24 8.26 0.24 6.06 0.24 5.39 1.78 8.26 1.78 9.57 1.78 12.44 1.78 11.77 0.24"/></g><g id="Group-11"><g id="Stroke-7"><path class="cls-5" d="M12.8,2H5L5.9,0h6Zm-7-.48h6.32L11.61.48H6.21Z"/></g><g id="Stroke-9"><path class="cls-4" d="M11.59,14.32H6.27L4.44,2.7l4.49,0,4.49,0Zm-4.91-.47h4.5L12.86,3.18l-3.93,0L5,3.18Z"/></g></g><g id="Fill-12"><polygon class="cls-3" points="13.27 6.09 9.06 6.09 8.76 6.09 4.56 6.09 5.34 10.52 8.91 10.48 12.48 10.52 13.27 6.09"/></g><g id="Stroke-13"><path class="cls-4" d="M12.68,10.76l-3.77,0-3.77,0L4.27,5.85h9.28Zm-3.77-.52,3.37,0L13,6.33H4.84l.7,3.95Z"/></g></g><g id="Oval"><path class="cls-2" d="M1.31,5.77A1.31,1.31,0,1,1,2.62,4.46,1.31,1.31,0,0,1,1.31,5.77Zm0-1.85a.54.54,0,0,0-.54.54.54.54,0,1,0,1.08,0A.54.54,0,0,0,1.31,3.92Z"/></g><g id="Oval-2" data-name="Oval"><circle class="cls-2" cx="14.96" cy="8.4" r="0.62"/></g><g id="Oval-3" data-name="Oval"><circle class="cls-1" cx="3.39" cy="11.94" r="0.62"/></g></g></g></g></svg>