<svg width="26" height="26" viewBox="0 0 26 26" version="1.1" xmlns="http://www.w3.org/2000/svg" xmlns:xlink="http://www.w3.org/1999/xlink">
<title>refresh36</title>
<desc>Created using Figma</desc>
<g id="Canvas" transform="translate(-2121 -216)">
<g id="refresh36" opacity="0.28142">
<g id="Group">
<g id="Shape">
<use xlink:href="#path0_fill" transform="translate(2121.39 216.089)" fill="#4A4A4A"/>
</g>
<g id="Shape">
<use xlink:href="#path1_fill" transform="translate(2121.09 231.152)" fill="#4A4A4A"/>
</g>
</g>
</g>
</g>
<defs>
<path id="path0_fill" fill-rule="evenodd" d="M 25.201 1.39513C 24.9883 1.18238 24.7359 1.0757 24.4445 1.0757C 24.1532 1.0757 23.9012 1.18238 23.6881 1.39513L 21.5026 3.56406C 20.3033 2.43203 18.9303 1.55484 17.3837 0.932905C 15.8373 0.310968 14.2453 0 12.609 0C 9.52673 0 6.83697 0.932905 4.53927 2.79913C 2.24157 4.66514 0.728619 7.09986 0 10.1037L 0 10.2213C 0 10.367 0.0532381 10.4931 0.159714 10.5995C 0.26619 10.706 0.39227 10.7593 0.537952 10.7593L 3.88349 10.7593C 4.13008 10.7593 4.29805 10.6303 4.38781 10.3726C 4.85849 9.25187 5.15543 8.5963 5.27883 8.40564C 6.06337 7.12792 7.10563 6.12486 8.40584 5.39624C 9.70605 4.66783 11.107 4.30341 12.6088 4.30341C 14.8617 4.30341 16.8175 5.07124 18.4763 6.60668L 16.1559 8.92667C 15.9434 9.13962 15.8367 9.39198 15.8367 9.68335C 15.8367 9.97471 15.9434 10.2269 16.1559 10.4398C 16.3691 10.6528 16.6214 10.7593 16.9128 10.7593L 24.4445 10.7593C 24.7359 10.7593 24.9881 10.6528 25.201 10.4398C 25.4138 10.2269 25.5202 9.97471 25.5202 9.68335L 25.5202 2.1516C 25.5202 1.86024 25.4144 1.60808 25.201 1.39513L 25.201 1.39513Z"/>
<path id="path1_fill" fill-rule="evenodd" d="M 24.8645 0.000412698L 21.6363 0.000412698C 21.39 0.000412698 21.2218 0.129175 21.1322 0.387111C 20.6617 1.508 20.3646 2.16336 20.2414 2.35403C 19.4567 3.63133 18.4144 4.63481 17.1144 5.36322C 15.8142 6.09184 14.4133 6.45605 12.9115 6.45605C 11.8244 6.45605 10.7764 6.25444 9.76775 5.85083C 8.75911 5.44721 7.85675 4.87541 7.06106 4.13565L 9.36433 1.83259C 9.57729 1.61984 9.68376 1.36727 9.68376 1.07611C 9.68376 0.784746 9.57729 0.532381 9.36433 0.319635C 9.15138 0.106476 8.89922 0 8.60786 0L 1.07611 0C 0.78454 0 0.532381 0.106476 0.319429 0.319635C 0.106476 0.532381 0 0.784746 0 1.07611L 0 8.60786C 0 8.89902 0.106476 9.15159 0.319429 9.36433C 0.532587 9.57708 0.784746 9.68397 1.07611 9.68397C 1.36748 9.68397 1.61963 9.57708 1.83259 9.36433L 4.00132 7.1954C 5.20062 8.33857 6.56521 9.21844 8.09508 9.83481C 9.62495 10.4514 11.2081 10.7595 12.8444 10.7595C 15.9155 10.7595 18.5941 9.82655 20.8805 7.96033C 23.1668 6.09432 24.6686 3.6594 25.3861 0.655778C 25.3975 0.633492 25.4028 0.594079 25.4028 0.538159C 25.4028 0.392476 25.3494 0.266603 25.2429 0.159921C 25.1362 0.0538571 25.0101 0.000412698 24.8645 0.000412698L 24.8645 0.000412698Z"/>
</defs>
</svg>
