<?xml version="1.0" standalone="no"?>
<!DOCTYPE svg PUBLIC "-//W3C//DTD SVG 20010904//EN"
 "http://www.w3.org/TR/2001/REC-SVG-20010904/DTD/svg10.dtd">
<svg version="1.0" xmlns="http://www.w3.org/2000/svg"
 width="256.000000pt" height="256.000000pt" viewBox="0 0 256.000000 256.000000"
 preserveAspectRatio="xMidYMid meet">
<metadata>
Created by potrace 1.16, written by Peter Selinger 2001-2019
</metadata>
<g transform="translate(0.000000,256.000000) scale(0.100000,-0.100000)"
fill="#000000" stroke="none">
<path d="M1146 2280 c-16 -5 -40 -19 -53 -32 -106 -99 -43 -258 102 -258 72 0
76 -5 73 -86 l-3 -69 -100 -5 c-55 -3 -106 -9 -112 -13 -8 -5 -13 -29 -13 -56
0 -26 -3 -51 -7 -54 -3 -4 -28 13 -54 38 -27 25 -52 45 -56 45 -20 -1 -36 -20
-37 -47 l-1 -28 -145 -3 c-122 -2 -147 -5 -157 -19 -10 -12 -13 -75 -13 -230
l0 -213 -103 0 c-67 0 -107 -4 -115 -12 -8 -8 -12 -58 -12 -159 0 -141 1 -149
22 -163 19 -13 60 -16 253 -16 127 0 237 5 245 10 10 6 17 32 20 77 5 66 6 68
34 71 40 5 345 -199 347 -231 1 -23 1 -83 0 -129 -1 -27 -3 -28 -56 -28 -64 0
-102 -16 -139 -60 -22 -26 -26 -41 -26 -91 0 -56 3 -63 39 -102 l40 -42 180
-3 180 -3 40 37 c23 20 41 41 41 48 0 6 4 17 9 25 7 11 20 5 61 -32 29 -26 55
-47 60 -47 18 0 41 40 35 59 -6 21 -3 21 139 21 118 0 147 3 160 16 13 13 16
46 16 210 l0 194 95 0 c84 0 98 3 116 21 20 20 21 29 17 162 -4 122 -7 141
-23 153 -23 17 -465 20 -496 4 -14 -8 -19 -21 -19 -55 l0 -45 -37 0 c-31 0
-65 18 -190 102 -101 66 -155 109 -159 123 -3 12 -4 41 -2 66 l3 44 100 5 c55
3 106 9 113 13 9 6 12 50 12 162 0 112 -3 156 -12 162 -7 4 -58 10 -113 13
l-100 5 -3 69 c-3 81 1 86 74 86 119 0 195 127 132 220 -48 69 -64 75 -226 77
-81 1 -160 -2 -176 -7z m326 -87 c23 -28 28 -51 17 -80 -18 -48 -33 -52 -185
-53 -121 0 -145 3 -163 18 -32 26 -37 72 -11 105 l21 27 153 0 c133 0 155 -2
168 -17z m28 -538 l0 -95 -195 0 -195 0 0 95 0 95 195 0 195 0 0 -95z m-450
-165 c8 -5 59 -10 112 -10 53 0 100 -4 103 -10 3 -5 3 -36 -1 -68 l-6 -58
-151 -99 c-187 -122 -226 -132 -227 -53 0 55 -5 58 -99 58 -143 0 -131 -18
-131 196 l0 184 119 0 c114 0 119 -1 114 -20 -6 -23 12 -50 35 -50 8 0 36 19
61 43 l46 42 5 -73 c3 -50 10 -76 20 -82z m-247 -323 c2 -7 4 -51 3 -97 l-1
-85 -192 -3 -193 -2 0 93 c0 52 3 97 7 100 3 4 88 7 189 7 138 0 183 -3 187
-13z m1385 -90 l3 -97 -192 2 -192 3 2 90 c1 49 5 93 7 97 3 5 87 7 187 6
l182 -3 3 -98z m-460 -87 c4 -85 11 -90 134 -90 l98 0 0 -170 0 -170 -121 0
c-117 0 -120 1 -114 20 4 12 1 27 -5 35 -21 26 -54 17 -95 -25 -21 -22 -42
-40 -46 -40 -4 0 -9 10 -13 23 -3 12 -21 38 -41 57 -32 31 -43 36 -103 40
l-67 5 -3 86 -3 85 158 107 c123 83 165 106 188 104 30 -2 30 -3 33 -67z
m-254 -419 c28 -30 24 -80 -8 -108 -25 -22 -35 -23 -161 -23 -126 0 -135 1
-161 23 -33 28 -37 76 -9 107 17 18 30 20 170 20 137 0 154 -2 169 -19z"/>
</g>
</svg>
