<svg xmlns="http://www.w3.org/2000/svg" width="40" height="40" fill="none" ><rect x=".6" y=".6" width="38.8" height="38.8" rx="2.4" fill="#fff"/><rect x=".6" y=".6" width="38.8" height="38.8" rx="2.4" stroke="#8796a1" stroke-width="1.2"/><g fill-rule="evenodd"><path d="M32 20c0-6.627-5.373-12-12-12S8 13.373 8 20c0 5.989 4.388 10.954 10.125 11.855V23.47h-3.048V20h3.048v-2.644c0-3.007 1.792-4.669 4.533-4.669 1.313 0 2.686.235 2.686.235v2.953h-1.514c-1.49 0-1.956.925-1.956 1.875V20h3.328l-.532 3.47h-2.796v8.385C27.612 30.955 32 25.991 32 20h0z" fill="#58707f"/><path d="M24.671 23.47l.532-3.47h-3.328v-2.251c0-.948.464-1.875 1.956-1.875h1.514v-2.953s-1.374-.235-2.686-.235c-2.741 0-4.533 1.661-4.533 4.669V20h-3.048v3.47h3.048v8.385A12.07 12.07 0 0 0 20 32a12.27 12.27 0 0 0 1.875-.145V23.47h2.796 0z" fill="#fff"/></g></svg>