<svg xmlns="http://www.w3.org/2000/svg" width="40" height="40" fill="none" ><rect x=".6" y=".6" width="38.8" height="38.8" rx="2.4" fill="#fff"/><rect x=".6" y=".6" width="38.8" height="38.8" rx="2.4" stroke="#8796a1" stroke-width="1.2"/><path fill="#58707f" d="M8 8h24v24H8z"/><path fill-rule="evenodd" d="M24.671 23.669l.532-3.47h-3.328v-2.251c0-.948.464-1.875 1.956-1.875h1.514V13.12s-1.374-.235-2.686-.235c-2.741 0-4.533 1.661-4.533 4.669V20.2h-3.048v3.47h3.048v8.385A12.07 12.07 0 0 0 20 32.2a12.27 12.27 0 0 0 1.875-.145v-8.385h2.796 0z" fill="#fff"/></svg>