<?xml version="1.0" encoding="UTF-8"?> <svg xmlns="http://www.w3.org/2000/svg" version="1.1" id="Layer_1" x="0" y="0" viewBox="0 0 256 256" xml:space="preserve"><style>.st1{display:none}.st2{fill:#fff}.st2,.st3{display:inline}.st4,.st5{fill:#fff}.st5{display:none}</style><linearGradient id="XMLID_225_" gradientUnits="userSpaceOnUse" x1="221.4671" y1="-21.5786" x2="34.5329" y2="277.5786"><stop offset="0" stop-color="#1066b1"></stop><stop offset="1" stop-color="#7c3b97"></stop></linearGradient><path id="XMLID_2_" fill="url(#XMLID_225_)" d="M0 0h256v256H0z"></path><g id="XMLID_8_" class="st1"><path id="XMLID_9_" class="st2" d="M226.3 181c-.4-1.7-2.1-2.7-3.8-2.2l-7.9 2.1-15.9-59.3c-1.8-6.7-8.6-10.6-15.3-8.8l-49.6 13.3c.4-1.4.6-2.9.6-4.4 0-9.2-6.7-16.9-15.5-18.4l-9.5-35.5c-.4-1.7-2.1-2.7-3.8-2.2l-6.1 1.6c-1.7.4-2.7 2.1-2.2 3.8l8.5 31.9h-1.2l-22.2-22c-.9-.9-2-1.6-3-2.5 2.8-2.1 5.2-4.7 7-7.8 3.9-6.4 5-14 3.2-21.3C86.6 36.8 75.3 28 62.4 28c-8.5 0-18.3 4-24.1 13.6-3.9 6.4-5 14-3.2 21.3 1.3 5.4 4.2 10 8 13.6C34.1 82 28 91.8 28 103v106.2c0 10.4 8.4 18.7 18.7 18.7s18.7-8.4 18.7-18.7v-25.8l1.4 1.2 5.1 27.9c1.7 9.3 10.9 17.1 21.9 15 4.9-.9 9.1-3.7 12-7.8 2.9-4.1 3.9-9.1 3-14l-5.5-29.9c-1.3-7.1-5.1-13.7-10.6-18.4L78 144.8v-15.3l11 11h26.7l11.1 41.6c-6.8 4.5-11.4 12.1-11.4 20.9 0 13.8 11.2 25 25 25 12.4 0 22.6-9 24.6-20.9l60.6-16.2c1.7-.4 2.7-2.1 2.2-3.8l-1.5-6.1zM62.4 40.5c7 0 13.4 4.8 15.2 11.9 2.6 10.6-5.8 19.3-15.2 19.3-7 0-13.4-4.8-15.2-11.9-2.6-10.5 5.8-19.3 15.2-19.3zM53 209.2c0 3.4-2.8 6.2-6.2 6.2-3.4 0-6.2-2.8-6.2-6.2V162L53 172.8v36.4zM94.2 128l-23.3-23.3c-.6-.6-1.4-.9-2.2-.9-1.6 0-3.2 1.2-3.2 3.1v43.7L84.7 167c3.4 2.9 5.6 6.8 6.4 11.2l5.5 29.9c.6 3.4-1.6 6.6-5 7.3-.4.1-.8.1-1.1.1-3 0-5.6-2.1-6.1-5.1l-5.5-29.9c-.3-1.5-1.1-2.9-2.3-3.9l-29.5-25.3c-4.2-3.6-6.6-8.8-6.6-14.3v-34c0-10 7.9-18.4 17.9-18.7h.8c6 0 10.9 2 14.3 5.5l25.7 25.7h16.2c3.4 0 6.2 2.8 6.2 6.2 0 3.4-2.8 6.2-6.2 6.2H94.2zm46.3 87.5c-6.9 0-12.5-5.6-12.5-12.5s5.6-12.5 12.5-12.5S153 196.1 153 203s-5.6 12.5-12.5 12.5zm23.4-21c-3.5-9.6-12.6-16.5-23.4-16.5-.6 0-1.1.1-1.7.2l-10.1-37.7 57.9-15.5 15.9 59.3-38.6 10.2z"></path></g><g id="XMLID_28_" class="st1"><g id="XMLID_21_" class="st3"><path id="XMLID_22_" class="st4" d="M95 83.2l3-10.3 8.6-6.5-10.3-3-6.5-8.6-3 10.3-8.6 6.5 10.3 3 6.5 8.6zm57.3 19.1c2.6-.5 4.4-3 3.9-5.6l-1.5-8.3 21.8-35.1c1.4-2.2.8-5-1.3-6.5l-6.8-4.7c-1.1-.7-2.3-1-3.6-.8-1.1.2-2.2.8-3 1.8l-69.3 89.6-12.7 2.3c-2.6.5-4.4 3-3.9 5.6l2 10.9-29.2 37.7c-3.4 4.4-2.4 10.7 2.1 13.8l14.5 10.1c2.2 1.5 4.8 2 7.2 1.6 2.6-.5 5-2 6.5-4.4l66.2-106.7 7.1-1.3zM71.1 206.2l-16-12L165 54.2l-93.9 152zm-15.4-96.3l5.1-17.2 14.4-10.8L58 76.8 47.1 62.5 42 79.7 27.7 90.5l17.2 5.1 10.8 14.3zm-5.1-28.5c2.6-.5 5.1 1.3 5.6 3.9.5 2.6-1.3 5.1-3.9 5.6s-5.1-1.3-5.6-3.9c-.5-2.6 1.2-5.1 3.9-5.6z"></path></g><g id="XMLID_29_" class="st3"><path id="XMLID_30_" class="st4" d="M206 128.2h-39.9c-1.9 0-3.5 1.6-3.5 3.5v21.1c0 1.9 1.6 3.5 3.5 3.5H206c1.9 0 3.5-1.6 3.5-3.5v-21.1c0-1.9-1.5-3.5-3.5-3.5zm-.2 24.5h-39.6v-20.8h39.6v20.8zm17.8-15.1h4.7v-16.4c0-3.9-3.2-7-7-7h-70.4c-3.9 0-7 3.2-7 7v16.4h4.7c2.6 0 4.7 2.1 4.7 4.7s-2.1 4.7-4.7 4.7h-4.7v16.4c0 3.9 3.2 7 7 7h70.4c3.9 0 7-3.2 7-7V147h-4.7c-2.6 0-4.7-2.1-4.7-4.7s2.1-4.7 4.7-4.7zm0 14.1v11.7c0 1.3-1.1 2.3-2.3 2.3h-70.4c-1.3 0-2.3-1.1-2.3-2.3v-11.7c5.2 0 9.4-4.2 9.4-9.4s-4.2-9.4-9.4-9.4v-11.7c0-1.3 1.1-2.3 2.3-2.3h70.4c1.3 0 2.3 1.1 2.3 2.3v11.7c-5.2 0-9.4 4.2-9.4 9.4s4.2 9.4 9.4 9.4z"></path></g><g id="XMLID_122_" class="st3"><path id="XMLID_123_" class="st4" d="M194 136.2c.2-.2.2-.4 0-.6l-1.1-1.1c-.2-.2-.4-.2-.6 0l-14.1 14.1c-.2.2-.2.4 0 .6l1.1 1.1c.2.2.4.2.6 0l13-13 1.1-1.1zm-12.7 4.6c.8 0 1.6-.3 2.3-.9 1.2-1.2 1.2-3.3 0-4.5-.6-.6-1.4-.9-2.3-.9-.8 0-1.6.3-2.3.9-1.2 1.2-1.2 3.3 0 4.5.7.6 1.5.9 2.3.9zm-1.1-4.3c.3-.3.7-.5 1.1-.5s.8.2 1.1.5c.6.6.6 1.6 0 2.3-.3.3-.7.5-1.1.5s-.8-.2-1.1-.5c-.6-.7-.6-1.7 0-2.3zm10.7 7.5c-.8 0-1.6.3-2.3.9-1.2 1.2-1.2 3.3 0 4.5.6.6 1.4.9 2.3.9.8 0 1.6-.3 2.3-.9 1.2-1.2 1.2-3.3 0-4.5-.6-.6-1.4-.9-2.3-.9zm1.2 4.3c-.3.3-.7.5-1.1.5-.4 0-.8-.2-1.1-.5-.6-.6-.6-1.6 0-2.3.3-.3.7-.5 1.1-.5.4 0 .8.2 1.1.5.6.7.6 1.7 0 2.3z"></path></g></g><g id="XMLID_1_" class="st1"><path id="XMLID_3_" class="st2" d="M197.5 66.3l-32.8-32.8c-3.5-3.5-8.3-5.5-13.2-5.5H71.7C61.4 28 53 36.4 53 46.8v162.5c0 10.3 8.4 18.7 18.7 18.7h112.5c10.3 0 18.7-8.4 18.7-18.7V79.6c.1-5-1.9-9.8-5.4-13.3zM153 40.7c1.1.3 2.1.8 2.9 1.6l32.8 32.8c.8.8 1.4 1.8 1.6 2.9H153V40.7zm37.5 168.6c0 3.4-2.8 6.2-6.2 6.2H71.7c-3.4 0-6.2-2.8-6.2-6.2V46.8c0-3.4 2.8-6.3 6.2-6.3h68.8v40.7c0 5.2 4.2 9.3 9.4 9.3h40.6v118.8zM99.9 128h-3.1c-10.4 0-18.8 8.4-18.8 18.8v12.5c0 10.4 8.4 18.8 18.8 18.8h3.1c1.7 0 3.1-1.4 3.1-3.1v-6.2c0-1.7-1.4-3.1-3.1-3.1h-3.1c-3.5 0-6.2-2.8-6.2-6.2V147c0-3.5 2.8-6.2 6.2-6.2h3.1c1.7 0 3.1-1.4 3.1-3.1v-6.2c0-2.1-1.4-3.5-3.1-3.5zm43.7 0c-1.7 0-3.1 1.4-3.1 3.1v8.1c0 13.9 5 26.9 14.2 36.8 1.2 1.3 2.8 2 4.6 2 1.7 0 3.4-.7 4.6-2 9.1-9.8 14.2-22.9 14.2-36.8v-8.1c0-1.7-1.4-3.1-3.1-3.1h-6.2c-1.7 0-3.1 1.4-3.1 3.1v8.1c0 7.9-2.2 15.7-6.2 22.2-4-6.5-6.2-14.3-6.2-22.2v-8.1c0-1.7-1.4-3.1-3.1-3.1h-6.6zm-20.5 16.6c-.5-.5-.8-1-.8-1.5 0-1.2 1.7-2.6 4.1-2.6h4.8c1.7 0 3.1-1.4 3.1-3.1v-6.2c0-1.7-1.4-3.1-3.1-3.1h-4.8c-9.1 0-16.6 6.8-16.6 15.1 0 4.2 1.9 8.2 5.2 11l8.6 7.3c.5.5.8 1 .8 1.5 0 1.2-1.7 2.6-4.1 2.6h-4.8c-1.7 0-3.1 1.4-3.1 3.1v6.2c0 1.7 1.4 3.1 3.1 3.1h4.8c9.1 0 16.6-6.8 16.6-15.1 0-4.2-1.9-8.2-5.2-11l-8.6-7.3z"></path></g><g id="XMLID_37_" class="st1"><path id="XMLID_38_" class="st2" d="M164.6 95.8l-4.4-4.4c-1.2-1.2-3.2-1.2-4.4 0l-64.3 64.3c-1.2 1.2-1.2 3.2 0 4.4l4.4 4.4c1.2 1.2 3.2 1.2 4.4 0l64.3-64.3c1.2-1.2 1.2-3.1 0-4.4zm-42.8 7.2c0-10.3-8.4-18.8-18.8-18.8S84.2 92.7 84.2 103s8.4 18.8 18.8 18.8 18.8-8.5 18.8-18.8zm-25 0c0-3.4 2.8-6.2 6.2-6.2s6.2 2.8 6.2 6.2-2.8 6.2-6.2 6.2-6.2-2.8-6.2-6.2zm56.2 31.2c-10.3 0-18.8 8.4-18.8 18.8s8.4 18.8 18.8 18.8 18.8-8.4 18.8-18.8-8.5-18.8-18.8-18.8zm0 25c-3.4 0-6.2-2.8-6.2-6.2s2.8-6.2 6.2-6.2 6.2 2.8 6.2 6.2-2.8 6.2-6.2 6.2zm75-31.2c0-13.9-7.6-26.6-19.4-33.4 3.6-13.1-.1-27.5-9.9-37.3s-24.2-13.5-37.3-9.9C154.6 35.6 141.9 28 128 28s-26.6 7.6-33.4 19.4c-13.1-3.6-27.5.1-37.3 9.9s-13.5 24.2-9.9 37.3C35.6 101.4 28 114.1 28 128s7.6 26.6 19.4 33.4c-3.6 13.1.1 27.5 9.9 37.3 10.4 10.4 24.8 13.3 37.3 9.9 6.8 11.8 19.5 19.4 33.4 19.4s26.6-7.6 33.4-19.4c12.8 3.5 27.1.3 37.3-9.9 9.8-9.8 13.5-24.2 9.9-37.3 11.8-6.8 19.4-19.5 19.4-33.4zm-35.6 26.7c2.1 4.6 11.5 21.1-2.5 35.2-11.3 11.3-22.5 8.3-35.2 2.5-1.8 4.7-6.8 23.1-26.7 23.1-20.4 0-25.3-19.3-26.7-23.1-12.7 5.8-23.9 8.7-35.2-2.5-14.4-14.3-4.3-31.4-2.5-35.2-4.7-1.8-23.1-6.8-23.1-26.7 0-20.4 19.3-25.3 23.1-26.7-2.1-4.6-11.5-21.1 2.5-35.2 14.4-14.4 31.6-4.2 35.2-2.5 1.8-4.7 6.8-23.1 26.7-23.1 20.4 0 25.3 19.3 26.7 23.1 4.6-2.1 21.1-11.5 35.2 2.5 14.4 14.3 4.3 31.4 2.5 35.2 4.7 1.8 23.1 6.8 23.1 26.7 0 20.4-19.3 25.3-23.1 26.7z"></path></g><g id="XMLID_46_" class="st1"><g id="XMLID_47_" class="st3"><path id="XMLID_48_" class="st4" d="M63.7 113l-3.9-1.1c-.5-.1-.8-.7-.6-1.2l22-77c.1-.5.7-.8 1.2-.6l3.9 1.1c.5.1.8.7.6 1.2l-22 77c-.2.4-.7.7-1.2.6zM51.9 93.4l2.9-3.3c.3-.3.2-.8-.1-1.1L35.8 73l18.9-16c.3-.3.4-.8.1-1.1l-2.9-3.3c-.3-.3-.8-.4-1.1-.1L28.3 72.4c-.4.3-.4.9 0 1.2l22.5 19.9c.3.2.8.2 1.1-.1zm43.3 0l22.5-19.9c.4-.3.4-.9 0-1.2L95.2 52.5c-.3-.3-.8-.2-1.1.1l-2.9 3.3c-.3.3-.2.8.1 1.1l18.9 16-18.9 16c-.3.3-.4.8-.1 1.1l2.9 3.3c.3.3.8.3 1.1 0z"></path></g><g id="XMLID_54_" class="st3"><path id="XMLID_55_" class="st4" d="M173.3 118V77.7h-13.5v-16h13.5V49.1c0-13.7 8.4-21.1 20.6-21.1 5.9 0 10.9.4 12.3.6v14.3h-8.5c-6.6 0-7.9 3.2-7.9 7.8v11h15l-2.1 16h-12.9V118"></path></g><g id="XMLID_57_" class="st3"><path id="XMLID_58_" class="st4" d="M117.3 184.1c0 25.7-17.6 43.9-43.5 43.9-24.9 0-45-20.1-45-45s20.1-45 45-45c12.1 0 22.3 4.4 30.2 11.8l-12.2 11.8C75.8 146.1 46 157.8 46 183c0 15.7 12.5 28.4 27.9 28.4 17.8 0 24.5-12.8 25.5-19.4H73.7v-15.5h42.8c.5 2.3.8 4.6.8 7.6z"></path></g><g id="XMLID_60_" class="st3"><path id="XMLID_61_" class="st4" d="M218.7 164.7c.1.8.1 1.6.1 2.4 0 24.4-18.6 52.5-52.5 52.5-10.5 0-20.2-3-28.3-8.3 1.5.2 2.9.2 4.5.2 8.6 0 16.6-2.9 22.9-7.9-8.1-.2-14.9-5.5-17.2-12.8 1.1.2 2.3.3 3.5.3 1.7 0 3.3-.2 4.9-.6-8.5-1.7-14.8-9.1-14.8-18.1v-.2c2.5 1.4 5.3 2.2 8.3 2.3-5-3.3-8.2-9-8.2-15.4 0-3.4.9-6.6 2.5-9.3 9.1 11.2 22.7 18.5 38 19.3-.3-1.4-.5-2.8-.5-4.2 0-10.2 8.2-18.4 18.4-18.4 5.3 0 10.1 2.2 13.5 5.8 4.2-.8 8.2-2.3 11.7-4.5-1.4 4.3-4.3 7.9-8.1 10.2 3.7-.4 7.3-1.4 10.6-2.9-2.5 3.7-5.7 6.9-9.3 9.6z"></path></g></g><g id="XMLID_52_" class="st1"><path id="XMLID_53_" class="st2" d="M128 28C72.8 28 28 72.8 28 128s44.8 100 100 100 100-44.8 100-100S183.2 28 128 28zm77.9 61.3h-7.1c-7 0-12.7 5.7-12.7 12.7l.1 2.6-5.1 2.7c-1.1.2-3.4.3-6.1.4-13 .6-18.9 1.1-21.3 5.9l-1.6 4.1 7.4 11.1c2.4 3.5 6.3 5.7 10.6 5.7l3.1-.2v4.4l-7.6 10.1c-1.1 1.6-1.9 3.3-2.3 5.2l-1.7 9.1c-4.2 3.8-7.9 8.2-11.1 12.9l-5.3 7.9c-1.9 2.8-6.7 2.6-8.2-.5-1.8-3.5-2.7-7.4-2.7-11.3v-12c0-7-5.7-12.7-12.7-12.7h-10.4c-4.2 0-8.1-1.6-11-4.6-2.9-2.9-4.6-6.9-4.6-11v-5.7c0-4.9 2.3-9.5 6.2-12.5l11.1-8.3c4.4-3.3 11.2-4.2 16.7-1.5l5.9 3c3 1.5 6.5 1.8 9.7.7l19.1-6.4c5.2-1.7 8.7-6.6 8.7-12 0-7-5.7-12.7-12.7-12.7l-3.9.1-2.8-2.8c-2.4-2.4-5.6-3.7-9-3.7l-36.1.2-.2-1.6 5.8-1.5c3.1-.8 5.7-2.6 7.5-5.3l3.1-4.8h9.8c7 0 12.7-5.7 12.7-12.7v-1.2c25.9 5.9 47.2 23.1 58.7 46.2zM128 215.1c-48 0-87.1-39.1-87.1-87.1S80 40.9 128 40.9c2.2 0 4.4.2 6.6.3v2.9h-9.8c-4.2 0-8.2 2.1-10.6 5.7l-3.1 4.8-5.8 1.5c-5.7 1.4-9.6 6.5-9.6 12.3v1.8c0 7 5.7 12.7 12.7 12.7l36.2-.1 2.8 2.8c2.4 2.4 5.6 3.7 9 3.7l4-.4-18.9 6.4-5.9-3c-9-4.5-21.5-3.8-30.2 2.7l-11.1 8.3c-7.1 5.4-11.4 13.9-11.4 22.8v5.7c0 7.6 3 14.8 8.3 20.1 5.4 5.4 12.5 8.3 20.1 8.3l10.2-.2v12c0 5.9 1.4 11.8 4 17.1 3 6 9 9.8 15.8 9.8 5.9 0 11.4-2.9 14.7-7.9l5.3-7.9c2.6-3.9 5.6-7.4 9-10.6 2.1-1.9 3.4-4.3 3.9-7l1.7-9.1 7.6-10.1c1.6-2.2 2.5-4.9 2.5-7.6v-4.6c0-7-5.7-12.7-12.7-12.7l-3.1.1-.5-.7c2.2-.1 4.4-.2 5.9-.3 6.4-.3 8.3-.4 10.1-1.3l6.2-3.1c4.3-2.2 7-6.5 7-11.4l-.2-2.6h12.4c2.5 8.2 3.9 16.8 3.9 25.8.1 48.1-39 87.2-87 87.2z"></path></g><g id="PT_AO90" class="st1"><path id="XMLID_64_" class="st2" d="M161.3 72.4c30.7 0 55.6 24.8 55.6 55.6 0 30.7-24.8 55.6-55.6 55.6H94.7c-30.7 0-55.6-24.8-55.6-55.6 0-30.7 24.8-55.6 55.6-55.6h66.6m0-11.1H94.7C57.8 61.3 28 91.2 28 128s29.8 66.7 66.7 66.7h66.7c36.8 0 66.7-29.8 66.7-66.7s-29.9-66.7-66.8-66.7zm0 105.6c21.5 0 38.9-17.4 38.9-38.9s-17.4-38.9-38.9-38.9-38.9 17.4-38.9 38.9c0 9.9 3.7 18.9 9.7 25.7 7.2 8.1 17.6 13.2 29.2 13.2zm-24.4-47.3h4l5.9 16.8H143l-1.1-3.4h-6.2l-1.1 3.4h-3.7l6-16.8zm-.3 10.4h4.3l-2.1-6.6-2.2 6.6zm25.2 4.9c-1.3 1.3-3.1 2-5.5 2s-4.2-.7-5.5-2c-1.7-1.6-2.5-3.9-2.5-6.9 0-3.1.8-5.4 2.5-6.9 1.3-1.3 3.1-2 5.5-2s4.2.7 5.5 2c1.7 1.5 2.5 3.8 2.5 6.9 0 3-.8 5.3-2.5 6.9zm-2.2-2.6c.8-1 1.2-2.5 1.2-4.4 0-1.9-.4-3.3-1.2-4.4-.8-1-1.9-1.5-3.3-1.5s-2.5.5-3.3 1.5c-.8 1-1.2 2.5-1.2 4.4 0 1.9.4 3.3 1.2 4.4.8 1 1.9 1.5 3.3 1.5 1.4.1 2.5-.4 3.3-1.5zm7.9-10.9c1-1.1 2.3-1.6 4-1.6 2.5 0 4.2 1.1 5.2 3.3.5 1.3.8 2.9.8 5 0 2-.3 3.7-.8 5-1 2.5-2.8 3.8-5.3 3.8-1.2 0-2.3-.4-3.3-1.1-1-.7-1.6-1.8-1.7-3.2h3.2c.1.5.3.9.6 1.2.3.3.8.5 1.3.5 1.1 0 1.8-.6 2.3-1.8.2-.7.4-1.6.4-2.9-.3.4-.6.7-.9.9-.6.4-1.4.5-2.2.5-1.3 0-2.5-.5-3.5-1.4-1-.9-1.5-2.2-1.5-3.9-.2-1.8.3-3.2 1.4-4.3zm5.4 6.5c.7-.5 1.1-1.3 1.1-2.4 0-.9-.2-1.7-.7-2.2-.4-.5-1-.8-1.8-.8-.6 0-1 .2-1.4.5-.6.5-.9 1.3-.9 2.5 0 1 .2 1.7.6 2.2.4.5 1 .7 1.8.7.5-.1.9-.2 1.3-.5zM189 122c.8 1.5 1.3 3.6 1.3 6.3 0 2.7-.4 4.8-1.3 6.3-.8 1.5-2.3 2.2-4.4 2.2-2.1 0-3.6-.7-4.4-2.2-.8-1.5-1.3-3.6-1.3-6.3 0-2.7.4-4.8 1.3-6.3.8-1.5 2.3-2.2 4.4-2.2 2.1 0 3.6.7 4.4 2.2zm-6.3 10.6c.3 1 .9 1.5 1.9 1.5 1 0 1.6-.5 1.9-1.5.3-1 .4-2.5.4-4.3 0-2-.1-3.5-.4-4.4-.3-1-.9-1.4-1.9-1.4-1 0-1.6.5-1.9 1.4-.3 1-.5 2.4-.5 4.4 0 1.9.2 3.3.5 4.3z"></path></g><g id="XMLID_68_" class="st1"><g id="XMLID_82_" class="st3"><path id="XMLID_83_" class="st4" d="M211.3 50.2H44.7c-9.2 0-16.7 7.5-16.7 16.7v122.2c0 9.2 7.5 16.7 16.7 16.7h166.7c9.2 0 16.7-7.5 16.7-16.7V66.9c-.1-9.2-7.6-16.7-16.8-16.7zm5.6 138.9c0 3.1-2.5 5.6-5.6 5.6H44.7c-3.1 0-5.6-2.5-5.6-5.6V66.9c0-3.1 2.5-5.6 5.6-5.6h166.7c3.1 0 5.6 2.5 5.6 5.6v122.2zM94.7 165.5v2.8c0 2.3-1.9 4.2-4.2 4.2h-25c-2.3 0-4.2-1.9-4.2-4.2v-2.8c0-2.3 1.9-4.2 4.2-4.2h25c2.3 0 4.2 1.9 4.2 4.2zm66.6 0v2.8c0 2.3-1.9 4.2-4.2 4.2h-47.2c-2.3 0-4.2-1.9-4.2-4.2v-2.8c0-2.3 1.9-4.2 4.2-4.2h47.2c2.4 0 4.2 1.9 4.2 4.2z"></path></g><g id="XMLID_88_" class="st3"><path id="XMLID_89_" class="st4" d="M105.6 71.6h10.5l19.1 33.5V71.6h9.4v48h-10l-19.6-34v34.1h-9.4V71.6z"></path><path id="XMLID_91_" class="st4" d="M163.2 119.7h-10v-48h10v48z"></path><path id="XMLID_93_" class="st4" d="M172.6 71.7h34.3v8.4h-24.3v11h21.3v8.3h-21.3v20.1h-10V71.7z"></path></g></g><path id="XMLID_95_" class="st5" d="M131.8 28c.6.1 1.2 0 1.9 0v.3c.1 1.3.1 1.3 1.4 1.4 2 .2 4 .3 6 .5 2 .3 3.9.7 5.9 1.1l4.5.9c2.3.6 4.7 1.2 7 2 3 1 5.9 2.2 8.8 3.4 2.2.9 4.2 2 6.3 3.1 2.2 1.1 4.4 2.3 6.5 3.6 1.7 1 3.3 2.1 4.9 3.3 2.4 1.8 4.7 3.6 7 5.5 2 1.7 3.9 3.4 5.8 5.2 1.2 1.1 2.3 2.4 3.4 3.7 1.2 1.4 2.4 2.8 3.5 4.2 1.3 1.7 2.6 3.5 3.9 5.2.3.4.8.7 1.2.8 1.7.5 2.4 2 3.3 3.3l.9 1.5c.3.4.2.7-.2.9-.4.2-.4.4-.2.8.6 1.3 1.7 2.1 2.6 3 .8.8 1.3 2 1.8 3.1.1.3-.5.8-.8 1.2.9 2.1 1.9 4.3 2.7 6.6 1.3 3.8 2.6 7.7 3.7 11.6.7 2.5 1.2 5.1 1.6 7.8.4 3 .6 6.1.9 9.2.1.5.5 1 .8 1.3.6.5.8 1 .8 1.8-.1.9 0 1.8-.7 2.6-.4.5-.2 1.6-.2 2.4-.1.8.1 1.5.7 2.2.2.2.2.7.2 1.1.1 1.1.1 2.2-.9 2.8-.8.4-.7 1.2-.8 1.8-.2 1.6-.3 3.2-.5 4.9-.4 2.5-.8 5-1.3 7.4-.4 2-1 4.1-1.6 6.1-.8 2.5-1.7 5-2.6 7.5-.7 2-1.6 4-2.4 5.9-.2.4-.4.9-.7 1.3-.4.6-.4 1.2-.2 1.9.4 1.2.1 2.4-.6 3.5-.7 1-1.2 1.9-2.7 2-.4 0-.7 1-1.1 1.5-.9 1.4-1.8 2.8-2.7 4.1-.5.9-1.1 1.7-1.6 2.6-.1.1 0 .2 0 .4.2 1.4-.9 3.7-2.1 4.3-.2.1-.5.2-.7.2-1.2-.3-1.8.6-2.4 1.3-1.7 1.8-3.3 3.7-5 5.4-1.8 1.8-3.7 3.6-5.6 5.3-1.6 1.4-3.3 2.7-5 3.9-1.8 1.3-3.7 2.6-5.6 3.9-2 1.3-4.1 2.5-6.2 3.7-1.5.9-3 1.7-4.5 2.4-2.1 1-4.2 1.8-6.3 2.7-2.1.8-4.2 1.7-6.4 2.4-1.8.6-3.7 1.1-5.6 1.5-2.7.6-5.3 1.3-8.1 1.8-2.7.4-5.5.6-8.2.9-.7.1-1.5.2-2.3.3v1.7c-.8 0-1.6.1-2.4 0-.3 0-1.1.1-1.4-.1 0-.1-1.4.1-1.4 0h-2.5c-1.5.1-.6.1-3.6 0 0-.5-.1-1.1-.1-1.7-2.1-.2-4.3-.3-6.4-.6-2.5-.3-5-.7-7.4-1.3-3.2-.7-6.4-1.5-9.5-2.3-2-.6-4.1-1.3-6-2.1-2.8-1.1-5.6-2.3-8.4-3.6-1.7-.8-3.3-1.7-4.9-2.7-1.9-1.1-3.9-2.3-5.8-3.5-1.8-1.2-3.5-2.4-5.2-3.7-2.2-1.8-4.5-3.6-6.6-5.5-2.4-2.2-4.6-4.4-6.9-6.7-1.4-1.4-2.7-3-4-4.6-1.3-1.6-2.4-3.3-3.6-4.8-.4-.5-1.2-.8-1.8-1.1-1.5-.8-2.2-2.1-1.9-3.8 0-.2-.1-.5-.2-.7-.4-.7-.8-1.5-1.3-2.2-.3-.4-.8-.8-1.3-1.1-1.1-.5-2.1-2.5-1.5-3.5.3-.5.2-.8 0-1.3-1.4-3.2-3-6.5-4.2-9.8-1.2-3.5-2.2-7.1-3.1-10.6-.7-2.6-1.2-5.3-1.7-7.9-.4-2.2-.5-4.5-.7-6.8 0-.3-.4-.7-.7-.8-.7-.3-1-.7-.9-1.5.1-.9-.1-2 .4-2.7.6-1 .5-2 .6-3 0-.6.1-1.2-.6-1.6-.2-.1-.3-.5-.3-.8 0-.7-.1-1.5 0-2.2.1-.5.5-1 .8-1.5.3-.4.7-.8.8-1.3.2-1.4.2-2.8.4-4.1.2-1.6.4-3.3.7-4.9.4-2.2.8-4.5 1.3-6.7.3-1.5.8-3.1 1.2-4.6.8-2.6 1.5-5.2 2.5-7.7.4-1-.1-1.7 0-2.6 0-.5 0-1.1.2-1.6.2-.6.6-1.2.9-1.8.1-.2.3-.5.4-.5 1.5-.2 1.7-1.6 2.2-2.5 1.1-1.9 2.1-3.9 3.2-5.9.3-.5.3-1 .2-1.6-.3-1.2.4-2.1.9-3.1.7-1.4 1.8-1.8 3.2-1.9.2 0 .5-.2.6-.4 1-1.3 2-2.6 3.1-3.9 2.2-2.6 4.3-5.1 6.6-7.6 1-1.1 2.1-1.9 3.2-2.9.8-.7 1.5-1.5 2.2-2.1 1.6-1.3 3.1-2.7 4.7-3.9 2.4-1.8 4.9-3.7 7.5-5.3 2.9-1.8 6-3.5 9.1-5.1 2.6-1.3 5.2-2.5 7.9-3.6 2.1-.8 4.2-1.5 6.4-2.1 2.4-.7 4.8-1.5 7.2-2.1 2.3-.6 4.6-.9 7-1.3 1.6-.3 3.2-.5 4.8-.7.8-.1 1.6-.1 2.5-.2.8-.1 1.7-.1 2.6-.2v-1.6h2.9m7.9 75.8c2 .1 3.9.2 5.8.3 2.9.1 5.8.2 8.6.4 2.9.1 5.8.3 8.7.5 1.8.1 3.7.3 5.5.4.7 0 1.4.1 2.1.1l4.5.6c1.2.1 2.4.2 3.6.4 2 .3 4.1.6 6.1.9 1.7.2 3.5.4 5.2.7 3.3.5 6.6 1.1 9.9 1.7 2.1.4 4.1 1 6.1 1.5 3.5.9 7 1.9 10.4 2.9 1.3.4 2.6.8 4 1.3-.1-.5-.2-1-.3-1.4-.6-2.7-1-5.5-1.7-8.2-.7-2.7-1.6-5.4-2.6-8-1-2.6-2.1-5.1-3.2-7.6-.2-.5-.4-.7-1-.5-1.1.4-2.3.6-3.5.9-2.3.6-4.6 1.2-7 1.7-2.8.6-5.7 1.1-8.5 1.6-3.2.6-6.4 1.1-9.6 1.6-1.5.2-3.1.4-4.6.6-2.8.3-5.5.6-8.3.9-.8.1-1.6.1-2.5.2-1.8.2-3.7.3-5.5.5-1.5.1-2.9.1-4.4.2-2.8.2-5.6.5-8.4.6-3 .1-6 .1-8.9.1-.2 0-.4.1-.6.1.1 1.7.1 3.3.1 5zm-91.9 36.2v1c.3 1.9.6 3.8 1.1 5.7.5 2.2 1.1 4.4 1.8 6.6.3 1.2.8 2.3 1.3 3.5.7 1.7 1.3 3.4 2 5.1.5 1.2 1.1 2.4 1.6 3.7.2.6.5.6 1 .4 1.5-.5 2.9-1.1 4.4-1.5 3.6-1.1 7.1-2.1 10.7-3.1 3-.8 6.1-1.5 9.2-2.1 2.2-.4 4.4-.7 6.6-1.1 2.4-.4 4.8-.8 7.2-1.1 1.9-.2 3.7-.4 5.6-.6l9-.9c3-.2 6.1-.4 9.1-.5 2.5-.1 5-.1 7.5-.2 2.5 0 2.5 0 2.4-2.5 0-.2 0-.6-.2-.7-1.6-.9-2.9-2.1-4.9-2.1-3.6 0-7.2-.2-10.8-.3-3.2-.1-6.4-.3-9.7-.5-2.5-.1-4.9-.3-7.4-.5-1.9-.1-3.7-.3-5.6-.6-2-.2-3.9-.5-5.9-.7-1.9-.2-3.7-.4-5.6-.7-3-.4-6-.9-9-1.4-3.8-.7-7.6-1.4-11.3-2.3-2.8-.6-5.5-1.5-8.3-2.2-.5-.2-1.1-.3-1.8-.4zm14.3 36.5c0 .1.1.2.1.3.8.2 1.6.4 2.4.5 3 .6 5.9 1.3 8.9 1.8 2.4.5 4.8.8 7.2 1.2 3.1.5 6.1 1.1 9.2 1.7 2.4.4 4.9.8 7.3 1.1 2.8.4 5.7.6 8.5.9.7.1 1.5.1 2.2.2l4.5.6c1.2.1 2.3.1 3.5.2 3 .2 6 .3 9.1.5.2 0 .4 0 .6.1.9.1 1.9.1 2.8.2v-19.1c-.4 0-.7-.1-1 0-2.9.1-5.8.1-8.7.2-2.3.1-4.7.2-7 .4-1 .1-2 .1-3 .2-2.2.2-4.5.5-6.7.7-2.8.3-5.6.5-8.4.9-3.5.5-7.1 1.1-10.6 1.8s-7.1 1.5-10.6 2.4c-2.4.6-4.8 1.4-7.1 2.1-1.2.3-2.2.7-3.2 1.1zm77.5-89.2c7.7-.1 15.2-.6 22.7-1.1 7.4-.5 14.8-1.4 22.2-2.4 7.3-1 14.5-2.4 21.7-4.5-.2-.1-.3-.3-.4-.3-2.9-.7-5.8-1.4-8.8-2-2.8-.6-5.6-1.1-8.4-1.6-1.7-.3-3.4-.7-5.1-.9-2.6-.3-5.3-.6-7.9-.9-2.2-.2-4.3-.5-6.5-.7-2.6-.2-5.2-.4-7.9-.6-2.8-.2-5.6-.3-8.4-.4-1.7-.1-3.4-.1-5.2-.1h-7.5c-.5 0-.7.2-.7.7.2 4.8.2 9.7.2 14.8zm9.8 28.4c.3.3.5.5.7.6l7.8 4.8c3.4 2.2 6.8 4.4 10.2 6.5 2.4 1.6 4.9 3.1 7.4 4.6 1.6 1 3.1 2.2 4.7 3.2.4.3 1 .4 1.6.4 1.4-.1 2.8-.4 4.2-.5 1.2-.2 2.4-.3 3.6-.4 2.1-.3 4.2-.6 6.3-1l6.6-1.2c2.2-.4 4.4-.9 6.6-1.4 2.2-.5 4.4-1 6.6-1.6 1.9-.5 3.8-1.1 5.6-1.6 0-.1.1-.2.1-.3-.4-.2-.8-.5-1.2-.6-2.1-.7-4.2-1.4-6.3-2-1.9-.6-3.8-1.2-5.8-1.7-3.6-.9-7.2-1.7-10.8-2.5-1.6-.4-3.2-.7-4.8-.9-2.1-.3-4.3-.6-6.4-.9-2.4-.4-4.8-.8-7.3-1.1-1.8-.2-3.7-.4-5.5-.6-2.5-.3-5.1-.6-7.6-.9-2.4-.2-4.7-.4-7.1-.5-2.6-.2-5.2-.3-7.8-.4h-1.4zm-21-55.5v-1.8-16.8c0-.8-.3-1-1-.9-.3.1-.6.2-.9.2-1.9.2-3.9.3-5.8.6-2.9.5-5.8 1.3-8.7 1.9-4.1.9-8.1 2.4-12 4.1-2.3 1-4.6 2.1-6.8 3.3-2.5 1.3-4.9 2.8-7.3 4.3-1.5.9-2.9 2-4.3 3.1-1.5 1.2-3 2.3-4.5 3.6-1.1 1-2.2 2.1-3.4 3.2 2.1-.4 4-.8 6-1.1 1.2-.2 2.3-.3 3.5-.5 1.5-.2 3.1-.5 4.6-.7 1.2-.2 2.4-.3 3.6-.4 1.3-.2 2.6-.4 3.9-.5 1.8-.2 3.6-.2 5.3-.4 2.7-.2 5.4-.5 8.1-.7 2.3-.1 4.7-.1 7-.2h.6c2-.1 4-.3 6.1-.3h6zM188 65c0-.1.1-.2.1-.3-15.3-14.2-33.3-22.3-54.2-24 0 .3-.1.5-.1.6v18.1c0 .7.3.8.9.8 2.8 0 5.5.1 8.3.2 2.2.1 4.5.1 6.7.2 1.7 0 3.4.1 5.1.2 1 0 2.1.1 3.1.2 1.9.2 3.7.4 5.6.6 2 .2 3.9.3 5.9.5 3.3.4 6.6.8 9.8 1.3 2 .3 4 .7 5.9 1.1.9.2 1.9.4 2.9.5zm-65.6 132.5c-.8-.1-1.5-.2-2.3-.3-2.6-.1-5.2-.3-7.8-.4-1.4-.1-2.8-.1-4.1-.2-.8 0-1.6-.1-2.4-.2-2.1-.2-4.2-.5-6.3-.7l-3.6-.3c-1.6-.2-3.3-.5-4.9-.7-1.8-.3-3.7-.4-5.5-.7-2.2-.4-4.4-.8-6.6-1.3-2.6-.5-5.2-1-7.8-1.6-1-.2-2-.4-3-.7 15.3 14.5 33.4 22.7 54.5 24.3-.2-5.8-.2-11.5-.2-17.2zm11.4 17.4c10.1-.7 19.7-3.1 28.8-7.1 9.2-4 17.4-9.4 24.6-16.4-1.4.1-2.7.3-3.9.6-2.1.4-4.1.8-6.2 1.2-3.8.6-7.6 1.3-11.4 1.8-2.6.4-5.3.8-7.9 1-3.1.3-6.3.5-9.4.8-1 .1-2 .1-3 .2-2.5.2-4.9.4-7.4.5-1.1.1-2.3 0-3.4 0-.6 0-.8.2-.8.8V214c-.1.3 0 .6 0 .9zm-66-138.7c.4.3.6.5.8.6 2.4 1 4.8 2 7.1 3 2.9 1.3 5.7 2.7 8.6 4.1 1.2.6 2.4 1.3 3.7 1.6 1.9.4 3.9.4 5.9.6 2.3.2 4.7.4 7 .5 2 .1 4 .3 6 .4 2.7.1 5.5.1 8.2.2h.7c2.1.1 4.3.2 6.4.3V71.8c-3.5.1-6.9.2-10.3.3-3.1.1-6.3.2-9.4.4-2.7.1-5.3.2-8 .4-.9 0-1.8.1-2.8.2-2.1.2-4.3.5-6.4.7-1.3.1-2.6.3-3.9.4-1.5.2-3 .5-4.5.7-1.4.2-2.9.3-4.3.6-1.4 0-2.9.4-4.8.7zm109.6 105.4c-.1-.1-.1-.3-.2-.3-1.8-.9-3.7-1.7-5.5-2.6-3.6-1.8-7.1-3.6-10.7-5.5-3-1.6-6.1-3.1-9.1-4.7-1.6-.9-3.3-1.6-5.2-1.7-2.7 0-5.3-.1-8-.2h-2.9c-.7 0-1.4-.1-2.1-.2v19.4c1.7-.1 3.3-.2 4.9-.3 1.8-.1 3.7-.1 5.5-.2 1.2 0 2.3-.1 3.5-.2 1.7-.2 3.5-.3 5.2-.5 1.6-.1 3.2-.2 4.9-.4 1.2-.1 2.4-.3 3.6-.5 1.6-.2 3.1-.4 4.7-.6 1.6-.2 3.2-.5 4.8-.7 1.2-.2 2.4-.3 3.6-.5.9 0 1.9-.1 3-.3zm-79-44s0-.1.1-.1c-.3-.2-.6-.5-.9-.6-2.7-1.6-5.5-3.3-8.2-4.9-2.7-1.7-5.4-3.3-8-5.1-3.3-2.1-6.5-4.3-9.8-6.4-.4-.3-1-.4-1.5-.3-1.2.2-2.4.5-3.5.7-2.3.5-4.7.8-7 1.4-2.5.6-4.9 1.2-7.4 1.9-3.7.9-7.3 1.9-10.9 3.4-.2.1-.3.2-.5.3.2.1.3.3.5.4 3 .9 6 1.8 9 2.5 2.9.7 5.8 1.3 8.8 1.9 2.4.5 4.8.9 7.3 1.3 1.9.3 3.8.6 5.6.9 2 .3 4 .6 6.1.9 1.3.2 2.5.3 3.8.4 1.4.2 2.7.4 4.1.5l4.2.3c2.1.2 4.2.4 6.3.5.7 0 1.3 0 1.9.1zm90.4 8.2c.2.2.4.4.6.5 2 1.5 3.9 3 5.9 4.5 2.2 1.7 4.4 3.4 6.5 5.2 2 1.7 4 3.5 5.9 5.3.4.4.7.5.9-.2.5-1.5 1.2-3 1.7-4.5.8-2.4 1.6-4.8 2.2-7.2.5-1.8.9-3.6 1.2-5.4.2-1.2.4-2.4.6-3.7-8.4 2.4-16.9 4-25.5 5.5zM57.5 110.7c-4-3.1-8.2-6.2-12.4-9.5-1.4 4.6-2.5 9.2-3.2 13.9 5.3-1.5 10.5-2.9 15.6-4.4zm64.9-12h-9.3c3.2 1.8 6.2 3.4 9.3 5.1v-5.1z"></path><g id="XMLID_112_" class="st1"><g id="XMLID_113_" class="st3"><path id="XMLID_114_" class="st4" d="M219.7 61.3H72.9L70 45.9c-.7-3.9-4.2-6.8-8.2-6.8H32.2c-2.3 0-4.2 1.9-4.2 4.2v2.8c0 2.3 1.9 4.2 4.2 4.2h27.3l24.3 129.5c-3.6 3.9-5.8 9.2-5.8 14.9 0 12.3 9.9 22.2 22.2 22.2s22.2-9.9 22.2-22.2c0-3.9-1-7.7-3-11.1h50.4c-2 3.4-3 7.2-3 11.1 0 12.3 9.9 22.2 22.2 22.2s22.2-9.9 22.2-22.2c0-6.2-2.6-11.9-6.7-15.9-.9-3.6-4.1-6.3-8.1-6.3H93.7l-4.2-22.2h115.1c3.9 0 7.4-2.8 8.2-6.6l15-72.2c1.1-5.3-2.9-10.2-8.1-10.2zM111.3 194.7c0 6.1-5 11.1-11.1 11.1s-11.1-5-11.1-11.1 5-11.1 11.1-11.1 11.1 4.9 11.1 11.1zm77.8 11.1c-6.1 0-11.1-5-11.1-11.1s5-11.1 11.1-11.1 11.1 5 11.1 11.1-5 11.1-11.1 11.1zm13.3-66.7H87.5L75 72.4h141.3l-13.9 66.7z"></path></g><g id="XMLID_119_" class="st3"><path id="XMLID_120_" class="st4" d="M131.6 96.9v-7c3.2-.1 5.5-.4 6.8-.6 2.1-.5 3.7-1.4 5-2.7.9-.9 1.6-2.2 2-3.7.3-.9.4-1.6.4-2.1h8.6V133h-10.5V97h-12.3z"></path></g></g><path id="XMLID_129_" class="st5" d="M128 28C72.9 28 28 72.9 28 128s44.9 100 100 100 100-44.9 100-100S183.1 28 128 28m58.2 135.8L151 136h60.7c-.9 9.9-3.6 19.2-7.6 27.8h-17.9zM70 92.3l35.1 27.8H44.4c.9-9.8 3.6-19.2 7.6-27.8h18zm25.7 0H120v19.2L95.7 92.3zM44.4 136H120v27.8H52c-4.1-8.6-6.7-18-7.6-27.8m91.6 8.5l24.5 19.3H136v-19.3zm0-24.5V92.3h68c4 8.6 6.7 17.9 7.6 27.8H136zm58.2-43.7H136v-32c23.6 2.3 44.3 14.3 58.2 32m-74.2-32v32H75.5l-8.1-6.4C81 55.7 99.4 46.3 120 44.3M61.9 179.8H120v31.9c-23.5-2.3-44.3-14.3-58.1-31.9m74.1 31.9v-31.9h44.6l8 6.3c-13.5 14.2-32 23.6-52.6 25.6"></path><g id="PT_Angola" class="st1"><g id="XMLID_149_"><path id="XMLID_152_" class="st2" d="M179 149.6c-.1.1-.2.2-.2.3 0 .1.1.2.2.3.1.1.2.1.3 0 .1-.1.2-.2.2-.3 0-.1-.1-.2-.2-.3-.1-.1-.2-.1-.3 0z"></path><path id="XMLID_153_" class="st2" d="M176.8 147.4c-.1-.1-.2-.1-.3 0-.1.1-.2.2-.2.3 0 .1.1.2.2.3.1.1.2.1.3 0 .1-.1.2-.2.2-.3 0-.1-.1-.3-.2-.3z"></path><path id="XMLID_157_" class="st2" d="M181.2 151.8c-.1.1-.2.2-.2.3 0 .1.1.2.2.3.1.1.2.1.3 0 .1-.1.2-.2.2-.3 0-.1-.1-.2-.2-.3s-.2-.1-.3 0z"></path><path id="XMLID_160_" class="st2" d="M161.3 61.3H94.7C57.8 61.3 28 91.2 28 128s29.8 66.7 66.7 66.7h66.7c36.8 0 66.7-29.8 66.7-66.7s-29.9-66.7-66.8-66.7zm0 122.3H94.7c-30.7 0-55.6-24.8-55.6-55.6 0-30.7 24.8-55.6 55.6-55.6h66.7c30.7 0 55.6 24.8 55.6 55.6-.1 30.7-25 55.6-55.7 55.6z"></path><path id="XMLID_163_" class="st2" d="M161.3 89.1c-21.5 0-38.9 17.4-38.9 38.9 0 9.9 3.7 18.9 9.7 25.7 7.1 8.1 17.6 13.2 29.2 13.2 21.5 0 38.9-17.4 38.9-38.9s-17.4-38.9-38.9-38.9zm-4.2 10.1c1.5.2 3 .5 4.5.9l.6-2.1c1.7.5 3.2 1.2 4.8 2l-1 1.9c1.4.7 2.7 1.6 4 2.6l1.3-1.6c1.3 1.1 2.6 2.3 3.6 3.6l-1.6 1.3c1 1.2 1.9 2.5 2.7 3.9l1.8-1c.8 1.5 1.5 3.1 2 4.8l-1.9.6c.5 1.5.8 3.1.9 4.7l2-.2c.2 1.7.2 3.4 0 5.2l-2-.2c-.2 1.6-.5 3.2-.9 4.7l1.9.6c-.5 1.7-1.2 3.2-2 4.8l-1.8-1c-.8 1.4-1.6 2.7-2.6 4l1.6 1.3c-.6.8-1.3 1.5-2.1 2.2l-5.5-3.8c4.3-3.6 7-9 7-15.1 0-10.2-7.8-18.5-17.7-19.5l.4-4.6zm-4.6 12.1l2-6.3 2 6.3h6.6l-5.4 3.9 2 6.3-5.4-3.9-5.4 3.9 2-6.3-5.4-3.9h7zm9.7 37.2l-.6-1.9c-1.5.5-3.1.8-4.7.9l.2 2c-1.7.2-3.4.2-5.2 0l.2-2c-1.6-.2-3.2-.5-4.7-1l-.6 2c-1.7-.5-3.2-1.2-4.8-2l1-1.9c-1.4-.8-2.7-1.6-3.9-2.6l2.9-3.5c3.4 2.8 7.7 4.6 12.5 4.6 2.3 0 4.4-.4 6.4-1.1l2.6 1.5 1.1 4.1-2.4.9zm-12-14.1c-3.3-1.9-8.4-6.6-4.4-14.5.3 5.2 20.8 19.4 29.5 25.6l-.9 1-22.9-17.3c6.8 6.4 15.3 11.6 22.9 17.3l-1.4 1.7c-8.8-5.9-14.3-9.1-22.8-13.8zm31 20.9c-1-.7-1.6-2.5-3.1-4-1.1-.9-2-1.9-4.7-2.4-.1 0-.2-.3-.1-.4l2.5-2.9c1.3 1.3 3 2.5 4.3 3.6 1.3 1.1 2.2 2.1 3 3.3 1.2 2-.1 4.1-1.9 2.8z"></path></g></g><g id="CTT" class="st1"><g id="XMLID_63_" class="st3"><path id="XMLID_141_" class="st4" d="M30.8 73.7v107.8c0 1.5.9 2.8 2.2 3.4l93.5 42.7c.5.3 1 .3 1.5.3s1.1-.1 1.6-.3l93.5-42.7c1.3-.6 2.2-1.9 2.2-3.4V73.7c0-1.8-.7-3.3-2.3-4l-93.4-41.4c-1-.4-2.1-.4-3.1 0L33 69.7c-1.5.7-2.2 2.3-2.2 4zM85 55.1l15.9-7L189 90.5v36.1l-18.3 8.6V98.7c0-1.4-.8-2.7-2.1-3.4L85 55.1zm127.1 18.3l-21.3 9.7-81-39 18.1-8 84.2 37.3zm-80.4 44.9l31.5-14.4v37.2c0 1.3.7 2.5 1.7 3.2.6.4 1.3.6 2 .6.5 0 1.1-.1 1.6-.4l25.7-12.1c1.3-.6 2.1-1.9 2.1-3.4V88.8l21.3-9.7v100.1l-86 39.3V118.3zM43.9 73.4l32.2-14.3 81.4 39.2-29.5 13.5-84.1-38.4zM38.3 79l86 39.3v100.1l-86-39.3V79z"></path><g id="XMLID_142_"><path id="XMLID_150_" class="st4" d="M79.7 159.1l-2.3 4c-1.2-2.1-2.9-3.6-5-4.5-2-.9-3.6-.8-4.8.4-1.2 1.2-1.8 3.2-1.8 6.2 0 6 2.3 10.1 6.8 12.2 2 .9 3.7.9 5.2-.1l2 6.2c-1.5.5-2.9.7-4 .5-1.2-.2-2.5-.7-4.1-1.4-3.5-1.6-6.3-4.2-8.3-7.7-2-3.5-3-7.6-3-12.2 0-4.5 1.1-7.7 3.3-9.5 2.2-1.8 5.3-1.8 9.1 0 2.7 1.2 5 3.2 6.9 5.9z"></path><path id="XMLID_154_" class="st4" d="M84.9 164.6l-2.6-1.2V158l2.6 1.2v-5.9l5.3-.1v8.3l6.2 2.8v5.4l-6.2-2.8v12.6c0 2.1.3 3.6.8 4.7s1.4 1.9 2.7 2.5c1.3.6 2.5.7 3.6.3v6.2c-1.2 0-3-.6-5.3-1.6s-4-2.6-5.2-4.8c-1.2-2.2-1.8-4.8-1.8-7.8v-14.4z"></path><path id="XMLID_156_" class="st4" d="M102.2 172.5l-2.6-1.2v-5.4l2.6 1.2v-5.9l5.3-.1v8.3l6.2 2.8v5.4l-6.2-2.8v12.6c0 2.1.3 3.6.8 4.7s1.4 1.9 2.7 2.5c1.3.6 2.5.7 3.6.3v6.2c-1.2 0-3-.6-5.3-1.6s-4-2.6-5.2-4.8c-1.2-2.2-1.8-4.8-1.8-7.8v-14.4z"></path></g></g></g><g id="ASSEMBLY__x2F__GIFT" class="st1"><g id="XMLID_13_" class="st3"><g id="XMLID_179_"><path id="XMLID_180_" class="st4" d="M151.9 56c-.6-2.3-2.4-4.1-4.7-4.8-2.3-.6-4.8 0-6.5 1.7l-15.6 15.6-10.8-1.8-1.8-10.8 15.6-15.6c1.7-1.7 2.3-4.2 1.7-6.5-.6-2.3-2.5-4.1-4.8-4.7-12.6-3.1-25.7.5-35 9.7-9.2 9.2-12.7 22.6-9.4 35.3l-47.2 47.2c-7.2 7.2-7.2 19 0 26.2 3.5 3.5 8.2 5.4 13.1 5.4s9.6-1.9 13.1-5.4l47.2-47.1c12.7 3.4 26.1-.2 35.4-9.5 9.2-9.2 12.8-22.3 9.7-34.9zm-15.2 29.4c-7.8 7.8-19.1 10.4-29.7 6.9l-2.3-.8L54.1 142c-4.1 4.1-11.1 4.1-15.2 0-4.2-4.2-4.2-11 0-15.2l50.5-50.5-.7-2.3c-3.5-10.6-.9-22 6.8-29.7 5.5-5.5 12.9-8.5 20.5-8.5 1.7 0 3.4.1 5.1.4l-16.9 16.9 3.4 20.3 20.3 3.4 16.9-16.9c1.6 9.3-1.4 18.7-8.1 25.5zm-89.2 44.2c-2.2 0-3.9 1.7-3.9 3.9s1.7 3.9 3.9 3.9 3.9-1.7 3.9-3.9-1.7-3.9-3.9-3.9z"></path></g><g id="XMLID_169_"><path id="XMLID_170_" class="st4" d="M216.3 142.1h-9.6c2.3-3.3 3.7-7.3 3.7-11.7 0-10.8-8.2-19.5-18.2-19.5-10.3 0-16.3 6.2-26.7 23.4-10.4-17.2-16.4-23.4-26.7-23.4-10 0-18.2 8.8-18.2 19.5 0 4.4 1.4 8.4 3.7 11.7h-9.6c-6.5 0-11.7 5.2-11.7 11.7v23.4c0 2.1 1.8 3.9 3.9 3.9h3.9v35.2c0 6.5 5.2 11.7 11.7 11.7h85.9c6.5 0 11.7-5.2 11.7-11.7v-35.2h3.9c2.1 0 3.9-1.8 3.9-3.9v-23.4c.1-6.5-5.1-11.7-11.6-11.7zm-45.9-.9c12.1-20.3 16.1-22.6 21.8-22.6 5.7 0 10.4 5.2 10.4 11.7s-4.7 11.7-10.4 11.7h-22.3l.5-.8zm-31.6-22.6c5.7 0 9.7 2.2 21.8 22.6l.5.9h-22.3c-5.7 0-10.4-5.2-10.4-11.7 0-6.5 4.7-11.8 10.4-11.8zm11.1 101.6h-27.3c-2.1 0-3.9-1.8-3.9-3.9v-35.2h31.2v39.1zm0-46.9h-39.1v-19.5c0-2.1 1.8-3.9 3.9-3.9h35.2v23.4zm23.4 46.9h-15.6v-70.3h15.6v70.3zm39.1-3.9c0 2.1-1.8 3.9-3.9 3.9h-27.3v-39.1h31.2v35.2zm7.8-43h-39.1v-23.4h35.2c2.1 0 3.9 1.8 3.9 3.9v19.5z"></path></g></g></g><g id="postcodes"><g id="XMLID_17_"><path id="XMLID_185_" class="st4" d="M209.2 28.5H46.8C36.4 28.5 28 36.9 28 47.2v112.5c0 10.4 8.4 18.8 18.8 18.8h162.5c10.4 0 18.8-8.4 18.8-18.8V47.2c-.1-10.3-8.5-18.7-18.9-18.7zM46.8 41h162.5c3.4 0 6.2 2.8 6.2 6.2v16.2c-8.6 7.2-20.8 17.2-58.8 47.4-6.6 5.2-19.6 17.9-28.7 17.7-9.1.2-22.1-12.5-28.7-17.7-38-30.2-50.3-40.2-58.8-47.4V47.2c0-3.4 2.8-6.2 6.3-6.2zm162.4 125H46.8c-3.4 0-6.2-2.8-6.2-6.2V79.7c8.9 7.3 23 18.6 51.1 40.9 8 6.4 22.1 20.5 36.4 20.4 14.2.1 28.2-13.9 36.4-20.4 28.1-22.3 42.1-33.6 51.1-40.9v80.1c-.1 3.4-2.9 6.2-6.4 6.2z"></path><g id="XMLID_184_"><path id="XMLID_186_" class="st4" d="M59.1 194.6v-1.7c.8 0 1.3-.1 1.7-.2.5-.1.9-.3 1.2-.7.2-.2.4-.5.5-.9.1-.2.1-.4.1-.5h2.1v12.7h-2.6v-8.8h-3z"></path><path id="XMLID_188_" class="st4" d="M78 200.9c.4-.8 1.2-1.7 2.5-2.7 1.2-.8 1.9-1.4 2.2-1.8.5-.6.8-1.2.8-1.8 0-.5-.1-1-.4-1.3s-.7-.5-1.3-.5c-.8 0-1.3.3-1.6.9-.2.3-.3.8-.3 1.6h-2.4c0-1.1.2-2 .6-2.6.7-1.3 1.9-1.9 3.6-1.9 1.3 0 2.4.4 3.2 1.1.8.7 1.2 1.7 1.2 3 0 .9-.3 1.8-.8 2.5-.4.5-1 1-1.8 1.6l-1 .7c-.6.4-1.1.8-1.3 1s-.4.4-.6.7h5.6v2.2h-8.7c-.1-1.1.1-2 .5-2.7z"></path><path id="XMLID_190_" class="st4" d="M97.6 191.8c.8-.8 1.8-1.3 3.1-1.3 1.9 0 3.3.9 4 2.6.4 1 .6 2.3.6 3.8s-.2 2.8-.6 3.9c-.8 2-2.1 2.9-4.1 2.9-1 0-1.8-.3-2.6-.8s-1.2-1.4-1.3-2.5h2.5c.1.4.2.7.5.9s.6.4 1 .4c.8 0 1.4-.5 1.7-1.4.2-.5.3-1.2.3-2.2-.2.3-.5.5-.7.7-.5.3-1 .4-1.7.4-1 0-1.9-.3-2.7-1s-1.2-1.7-1.2-3c0-1.5.4-2.6 1.2-3.4zm4.2 5.1c.6-.4.9-1 .9-1.9 0-.7-.2-1.3-.5-1.7s-.8-.6-1.4-.6c-.4 0-.8.1-1.1.4-.5.4-.7 1-.7 1.9 0 .8.2 1.3.5 1.7s.8.6 1.4.6c.3-.1.6-.2.9-.4z"></path><path id="XMLID_193_" class="st4" d="M124.4 192.8c-.4.4-.9 1-1.6 2-.7.9-1.2 1.9-1.7 2.9-.4.8-.7 1.8-1 2.9-.3 1.1-.4 2.1-.4 2.8h-2.6c.1-2.3.8-4.7 2.3-7.1.9-1.5 1.7-2.6 2.3-3.2h-6.3v-2.2h9v1.9z"></path><path id="XMLID_195_" class="st4" d="M134.3 197.2h4.9v2.4h-4.9v-2.4z"></path><path id="XMLID_197_" class="st4" d="M149.8 197.9c.3-.6.8-1 1.4-1.3-.6-.4-1-.9-1.2-1.3-.2-.5-.3-.9-.3-1.3 0-.9.3-1.7 1-2.4s1.7-1 3-1 2.3.3 3 1c.7.7 1 1.4 1 2.4 0 .4-.1.9-.3 1.3-.2.5-.6.9-1.2 1.2.6.4 1.1.8 1.4 1.4.3.6.5 1.2.5 1.9 0 1.1-.4 2-1.2 2.7s-1.9 1.1-3.3 1.1-2.5-.4-3.2-1.1-1.1-1.7-1.1-2.7c0-.7.2-1.3.5-1.9zm2.6 3.2c.3.3.8.5 1.3.5s1-.2 1.3-.5c.3-.3.5-.8.5-1.5s-.2-1.1-.5-1.5c-.3-.3-.8-.5-1.3-.5s-1 .2-1.3.5-.5.8-.5 1.5.2 1.2.5 1.5zm.2-5.8c.3.3.7.4 1.2.4s.9-.1 1.2-.4.4-.7.4-1.1c0-.5-.1-.9-.4-1.2s-.7-.4-1.2-.4-.9.1-1.2.4c-.3.3-.4.7-.4 1.2s.1.8.4 1.1z"></path><path id="XMLID_201_" class="st4" d="M176.2 192.3c.7 1.1 1 2.8 1 4.9s-.3 3.7-1 4.9-1.8 1.7-3.4 1.7-2.8-.6-3.4-1.7c-.7-1.1-1-2.8-1-4.9s.3-3.7 1-4.9c.7-1.1 1.8-1.7 3.4-1.7s2.8.5 3.4 1.7zm-4.8 8.2c.2.8.7 1.2 1.5 1.2s1.2-.4 1.5-1.2.3-1.9.3-3.4-.1-2.7-.3-3.4-.7-1.1-1.5-1.1-1.2.4-1.5 1.1-.4 1.9-.4 3.4.1 2.6.4 3.4z"></path><path id="XMLID_204_" class="st4" d="M188.1 194.6v-1.7c.8 0 1.3-.1 1.7-.2.5-.1.9-.3 1.2-.7.2-.2.4-.5.5-.9.1-.2.1-.4.1-.5h2.1v12.7h-2.6v-8.8h-3z"></path><path id="XMLID_206_" class="st4" d="M61 222.2c-1 1-2.4 1.5-4.2 1.5s-3.3-.5-4.2-1.5c-1.3-1.2-2-3-2-5.3 0-2.4.7-4.2 2-5.3 1-1 2.4-1.5 4.2-1.5s3.3.5 4.2 1.5c1.3 1.2 2 3 2 5.3s-.7 4.1-2 5.3zm-1.7-1.9c.6-.8.9-1.9.9-3.4s-.3-2.6-.9-3.4-1.5-1.2-2.6-1.2-1.9.4-2.6 1.2-1 1.9-1 3.4.3 2.6 1 3.4 1.5 1.2 2.6 1.2 2-.5 2.6-1.2z"></path><path id="XMLID_209_" class="st4" d="M74.1 210.4h2.7V221h6.5v2.3h-9.2v-12.9z"></path><path id="XMLID_211_" class="st4" d="M96.5 223.4h-2.7v-13h2.7v13z"></path><path id="XMLID_213_" class="st4" d="M115.6 210.4h2.8l-4.4 13h-2.6l-4.4-13h2.9l2.8 9.8 2.9-9.8z"></path><path id="XMLID_215_" class="st4" d="M138.6 212.7h-6.9v2.8h6.3v2.2h-6.3v3.3h7.2v2.3h-9.8v-13h9.5v2.4z"></path><path id="XMLID_217_" class="st4" d="M150 210.4h2.8l5.1 9v-9h2.5v13h-2.7l-5.3-9.2v9.2H150v-13z"></path><path id="XMLID_219_" class="st4" d="M173.3 211.8c1-1.1 2.4-1.6 4-1.6 2.2 0 3.7.7 4.7 2.1.6.8.8 1.6.9 2.4h-2.7c-.2-.6-.4-1.1-.7-1.4-.5-.6-1.2-.8-2.1-.8-1 0-1.7.4-2.3 1.2-.6.8-.8 1.9-.8 3.4s.3 2.5.9 3.3c.6.7 1.3 1.1 2.2 1.1.9 0 1.6-.3 2.1-.9.3-.3.5-.8.7-1.5h2.7c-.2 1.4-.8 2.6-1.8 3.4-1 .9-2.1 1.3-3.4 1.3l-.5.8c.2 0 .3-.1.4-.1h.3c.5 0 .9.1 1.1.3s.4.6.4 1c0 .5-.2 1-.7 1.3-.4.3-1 .5-1.7.5-.3 0-.7-.1-1.1-.2-.2-.1-.5-.2-.8-.3l.3-.8c.3.1.6.2.7.2.3.1.5.1.7.1.4 0 .6-.1.8-.2.2-.1.2-.3.2-.5s-.1-.4-.3-.5-.4-.1-.5-.1h-.3c-.1 0-.2.1-.4.1l-.4-.4.8-1.3c-1.4 0-2.6-.6-3.6-1.8-1-1.2-1.6-2.8-1.6-4.9 0-2.3.6-4 1.8-5.2z"></path><path id="XMLID_221_" class="st4" d="M197.8 210.4h3.1l4.6 13h-2.9l-.9-2.7h-4.8l-.9 2.7h-2.8l4.6-13zm-.2 8.1h3.3l-1.6-5.1-1.7 5.1z"></path></g></g></g></svg> 