<svg version="1.1" xmlns="http://www.w3.org/2000/svg" xmlns:xlink="http://www.w3.org/1999/xlink" width="576" height="320" viewBox="0 0 576 320">

	<svg id="mobx-settings-icon" width="16" height="16" viewBox="0 0 16 16" x="0" y="0">
		<path fill="#fff" d="M13.3 5.2l1.1-2.1-1.4-1.4-2.1 1.1c-0.3-0.2-0.7-0.3-1.1-0.4l-0.8-2.4h-2l-0.8 2.3c-0.3 0.1-0.7 0.2-1 0.4l-2.1-1.1-1.5 1.5 1.1 2.1c-0.2 0.3-0.3 0.7-0.4 1l-2.3 0.8v2l2.3 0.8c0.1 0.4 0.3 0.7 0.4 1.1l-1.1 2.1 1.4 1.4 2.1-1.1c0.3 0.2 0.7 0.3 1.1 0.4l0.8 2.3h2l0.8-2.3c0.4-0.1 0.7-0.3 1.1-0.4l2.1 1.1 1.4-1.4-1.1-2.1c0.2-0.3 0.3-0.7 0.4-1.1l2.3-0.8v-2l-2.3-0.8c-0.1-0.3-0.2-0.7-0.4-1zM8 11c-1.7 0-3-1.3-3-3s1.3-3 3-3 3 1.3 3 3-1.3 3-3 3z"></path>
	</svg>

	<svg id="mobx-accessibility-icon" width="16" height="16" viewBox="0 0 16 16" x="32" y="0">
		<path fill="#fff" d="M10 2c0 1.105-0.895 2-2 2s-2-0.895-2-2c0-1.105 0.895-2 2-2s2 0.895 2 2z"></path>
		<path fill="#fff" d="M14 5h-12c-0.552 0-1 0.448-1 1s0.448 1 1 1h3v8c0 0.552 0.448 1 1 1s1-0.448 1-1v-3h2v3c0 0.552 0.448 1 1 1s1-0.448 1-1v-8h3c0.552 0 1-0.448 1-1s-0.448-1-1-1z"></path>
	</svg>

	<svg id="mobx-navigation-icon" width="16" height="16" viewBox="0 0 16 16" x="64" y="0">
		<path fill="#fff" d="M9 9h-2c-0.6 0-1 0.4-1 1v2c0 0.6 0.4 1 1 1h2c0.6 0 1-0.4 1-1v-2c0-0.6-0.4-1-1-1z"></path>
		<path fill="#fff" d="M9 3h-2c-0.6 0-1 0.4-1 1v2c0 0.6 0.4 1 1 1h2c0.6 0 1-0.4 1-1v-2c0-0.6-0.4-1-1-1z"></path>
		<path fill="#fff" d="M3 9h-2c-0.6 0-1 0.4-1 1v2c0 0.6 0.4 1 1 1h2c0.6 0 1-0.4 1-1v-2c0-0.6-0.4-1-1-1z"></path>
		<path fill="#fff" d="M15 9h-2c-0.6 0-1 0.4-1 1v2c0 0.6 0.4 1 1 1h2c0.6 0 1-0.4 1-1v-2c0-0.6-0.4-1-1-1z"></path>
	</svg>

	<svg id="mobx-controls-icon" width="16" height="16" viewBox="0 0 16 16" x="96" y="0">
		<path fill="#fff" d="M15 3h-4c-0.6 0-1 0.4-1 1s0.4 1 1 1h4c0.6 0 1-0.4 1-1s-0.4-1-1-1z"></path>
		<path fill="#fff" d="M5 1c-1.3 0-2.4 0.9-2.8 2-0.1 0-0.1 0-0.2 0h-1c-0.6 0-1 0.4-1 1s0.4 1 1 1h1c0.1 0 0.1 0 0.2 0 0.4 1.1 1.5 2 2.8 2 1.7 0 3-1.3 3-3s-1.3-3-3-3z"></path>
		<path fill="#fff" d="M1 13h4c0.6 0 1-0.4 1-1s-0.4-1-1-1h-4c-0.6 0-1 0.4-1 1s0.4 1 1 1z"></path>
		<path fill="#fff" d="M15 11h-1c-0.1 0-0.1 0-0.2 0-0.4-1.2-1.5-2-2.8-2-1.7 0-3 1.3-3 3s1.3 3 3 3c1.3 0 2.4-0.9 2.8-2 0.1 0 0.1 0 0.2 0h1c0.6 0 1-0.4 1-1s-0.4-1-1-1z"></path>
	</svg>

	<svg id="mobx-caption-icon" width="16" height="16" viewBox="0 0 16 16" x="128" y="0">
		<path fill="#fff" d="M0 1h16v2h-16v-2z"></path>
		<path fill="#fff" d="M0 5h10v2h-10v-2z"></path>
		<path fill="#fff" d="M0 9h16v2h-16v-2z"></path>
		<path fill="#fff" d="M0 13h10v2h-10v-2z"></path>
	</svg>

	<svg id="mobx-thumbnails-icon" width="16" height="16" viewBox="0 0 16 16" x="160" y="0">
		<path fill="#fff" d="M15 10h-14c-0.552 0-1-0.448-1-1v-8c0-0.552 0.448-1 1-1h14c0.552 0 1 0.448 1 1v8c0 0.552-0.448 1-1 1z"></path>
		<path fill="#fff" d="M10 14c0 1.105-0.895 2-2 2s-2-0.895-2-2c0-1.105 0.895-2 2-2s2 0.895 2 2z"></path>
		<path fill="#fff" d="M4 14c0 0.552-0.448 1-1 1s-1-0.448-1-1c0-0.552 0.448-1 1-1s1 0.448 1 1z"></path>
		<path fill="#fff" d="M14 14c0 0.552-0.448 1-1 1s-1-0.448-1-1c0-0.552 0.448-1 1-1s1 0.448 1 1z"></path>
	</svg>

	<svg id="mobx-social-sharing-icon" width="16" height="16" viewBox="0 0 16 16" x="192" y="0">
		<path fill="#fff" d="M8 5c-5.2 0-8 3.8-8 10 1.5-2.4 2.7-4 8-4v4l8-7-8-7v4z"></path>
	</svg>

	<svg id="mobx-slideshow-icon" width="16" height="16" viewBox="0 0 16 16" x="224" y="0">
		<path fill="#fff" d="M7.5 14c-3 0-5.5-2.5-5.5-5.5s2.5-5.5 5.5-5.5c1.2 0 2.2 0.4 3.2 1h-2.7v2h6v-6h-2v2.5c-1.3-1-2.8-1.5-4.5-1.5-4.1 0-7.5 3.4-7.5 7.5s3.4 7.5 7.5 7.5 7.5-3.4 7.5-7.5h-2c0 3-2.5 5.5-5.5 5.5z"></path>
	</svg>

	<svg id="mobx-video-icon" width="16" height="16" viewBox="0 0 16 16" x="256" y="0">
		<path fill="#fff" d="M3 14h10v2h-10v-2z"></path>
		<path fill="#fff" d="M15 12h-14c-0.6 0-1-0.4-1-1v-10c0-0.6 0.4-1 1-1h14c0.6 0 1 0.4 1 1v10c0 0.6-0.4 1-1 1zM2 10h12v-8h-12v8z"></path>
		<path fill="#fff" d="M6 9l4-3-4-3z"></path>
	</svg>
	
	<svg id="mobx-gallery-icon" width="16" height="16" viewBox="0 0 16 16" x="288" y="0">
		<g transform="rotate(90 8 8)">
			<path fill="#fff" d="M6,9H1C0.448,9,0,8.552,0,8V1c0-0.552,0.448-1,1-1h5c0.552,0,1,0.448,1,1v7C7,8.552,6.552,9,6,9z"></path>
			<path fill="#fff" d="M6,16H1c-0.552,0-1-0.448-1-1v-3c0-0.552,0.448-1,1-1h5c0.552,0,1,0.448,1,1v3 C7,15.552,6.552,16,6,16z"></path>
			<path fill="#fff" d="M15,6h-5C9.448,6,9,5.552,9,5V1c0-0.552,0.448-1,1-1h5c0.552,0,1,0.448,1,1v4 C16,5.552,15.552,6,15,6z"></path>
			<path fill="#fff" d="M15,16h-5c-0.552,0-1-0.448-1-1V9c0-0.552,0.448-1,1-1h5c0.552,0,1,0.448,1,1v6C16,15.552,15.552,16,15,16z"></path>
		</g>
	</svg>

	<svg id="mobx-customization-icon" width="16" height="16" viewBox="0 0 16 16" x="320" y="0">
		<path fill="#fff" d="M12.7 11.7l-1.4-1.4 2.3-2.3-2.3-2.3 1.4-1.4 3 3c0.4 0.4 0.4 1 0 1.4l-3 3z"></path>
		<path fill="#fff" d="M3.3 11.7l-3-3c-0.4-0.4-0.4-1 0-1.4l3-3 1.4 1.4-2.3 2.3 2.3 2.3-1.4 1.4z"></path>
		<path fill="#fff" d="M6 15c-0.1 0-0.2 0-0.3-0.1-0.5-0.2-0.8-0.7-0.6-1.3l4-12c0.2-0.5 0.7-0.8 1.3-0.6 0.5 0.2 0.8 0.7 0.6 1.3l-4 12c-0.2 0.4-0.6 0.7-1 0.7z"></path>
	</svg>

	<svg id="mobx-import-export-icon" width="16" height="16" viewBox="0 0 16 16" x="352" y="0">
		<path fill="#fff" d="M3 5h-3l4-5 4 5h-3v8c0 0.552-0.448 1-1 1v0c-0.552 0-1-0.448-1-1v-8z"></path>
		<path fill="#fff" d="M11 11v-8c0-0.552 0.448-1 1-1v0c0.552 0 1 0.448 1 1v8h3l-4 5-4-5h3z"></path>
	</svg>

	<svg id="mobx-update-icon" width="16" height="16" viewBox="0 0 16 16" x="384" y="0">
		<path fill="#fff" d="M4.5 4.5c1.9-1.9 5.1-1.9 7 0 0.7 0.7 1.2 1.7 1.4 2.7l2-0.3c-0.2-1.5-0.9-2.8-1.9-3.8-2.7-2.7-7.1-2.7-9.9 0l-2.2-2.2-0.7 6.4 6.4-0.7-2.1-2.1z"></path>
		<path fill="#fff" d="M15.8 8.7l-6.4 0.7 2.1 2.1c-1.9 1.9-5.1 1.9-7 0-0.7-0.7-1.2-1.7-1.4-2.7l-2 0.3c0.2 1.5 0.9 2.8 1.9 3.8 1.4 1.4 3.1 2 4.9 2s3.6-0.7 4.9-2l2.2 2.2 0.8-6.4z"></path>
	</svg>

	<svg id="mobx-system-status-icon" width="16" height="16" viewBox="0 0 16 16" x="416" y="0">
		<path fill="#fff" d="M8 0c-4.4 0-8 3.6-8 8s3.6 8 8 8 8-3.6 8-8-3.6-8-8-8zM8 14c-3.3 0-6-2.7-6-6s2.7-6 6-6 6 2.7 6 6-2.7 6-6 6z"></path>
		<path fill="#fff" d="M7 7h2v5h-2v-5z"></path>
		<path fill="#fff" d="M9 5c0 0.552-0.448 1-1 1s-1-0.448-1-1c0-0.552 0.448-1 1-1s1 0.448 1 1z"></path>
	</svg>

	<svg id="mobx-star-icon" width="16" height="16" viewBox="0 0 16 16" x="448" y="0">
		<path fill="#f7ab13" d="M11.86 15.542l-3.86-2.029-3.86 2.029c-0.727 0.387-1.592-0.235-1.451-1.054l0.737-4.299-3.124-3.044c-0.594-0.58-0.263-1.587 0.555-1.706l4.316-0.627 1.931-3.912c0.336-0.683 1.457-0.683 1.793 0l1.931 3.911 4.316 0.627c0.818 0.119 1.148 1.126 0.555 1.706l-3.124 3.045 0.737 4.299c0.141 0.823-0.726 1.436-1.452 1.054zM8.466 11.498l2.532 1.331-0.483-2.82c-0.056-0.324 0.052-0.655 0.287-0.885l2.049-1.998-2.831-0.411c-0.327-0.047-0.608-0.252-0.753-0.547l-1.267-2.566-1.267 2.566c-0.146 0.295-0.427 0.5-0.753 0.547l-2.831 0.411 2.049 1.998c0.235 0.229 0.343 0.561 0.287 0.885l-0.483 2.82 2.532-1.331c0.292-0.154 0.64-0.154 0.932 0z"></path>
	</svg>

	<svg id="mobx-info-icon" width="16" height="16" viewBox="0 0 16 16" x="480" y="0">
		<path fill="#fff" d="M7 7h2v5h-2v-5z"></path>
		<path fill="#fff" d="M9 5c0 0.552-0.448 1-1 1s-1-0.448-1-1c0-0.552 0.448-1 1-1s1 0.448 1 1z"></path>
	</svg>

	<svg id="mobx-padlock-icon" width="16" height="16" viewBox="0 0 16 16" x="512" y="0">
		<path fill="#f7ab13" d="M8 0c-2.2 0-4 1.8-4 4v1h-2c-0.6 0-1 0.4-1 1v9c0 0.6 0.4 1 1 1h12c0.6 0 1-0.4 1-1v-9c0-0.6-0.4-1-1-1h-2v-1c0-2.2-1.8-4-4-4zM9 11.7v1.3h-2v-1.3c-0.6-0.3-1-1-1-1.7 0-1.1 0.9-2 2-2s2 0.9 2 2c0 0.7-0.4 1.4-1 1.7zM10 5h-4v-1c0-1.1 0.9-2 2-2s2 0.9 2 2v1z"></path>
	</svg>

	<svg id="mobx-sorter-icon" width="16" height="16" viewBox="0 0 16 16" x="544" y="0">
		<path fill="rgba(40, 54, 70, 0.498039)" d="M11 3h-10c-0.6 0-1 0.4-1 1v0c0 0.6 0.4 1 1 1h10v3l5-4-5-4v3z"></path>
		<path fill="rgba(40, 54, 70, 0.498039)" d="M5 13h10c0.6 0 1-0.4 1-1v0c0-0.6-0.4-1-1-1h-10v-3l-5 4 5 4v-3z"></path>
	</svg>

	<svg id="mobx-save-icon" width="16" height="16" viewBox="0 0 16 16" x="0" y="32">
		<path fill="#fff" d="M11.7 0.3c-0.2-0.2-0.4-0.3-0.7-0.3h-1v3c0 0.6-0.4 1-1 1h-5c-0.6 0-1-0.4-1-1v-3h-2c-0.6 0-1 0.4-1 1v14c0 0.6 0.4 1 1 1h14c0.6 0 1-0.4 1-1v-10c0-0.3-0.1-0.5-0.3-0.7l-4-4zM13 14h-10v-3c0-0.6 0.4-1 1-1h8c0.6 0 1 0.4 1 1v3z"></path>
		<path fill="#fff" d="M7 0h2v3h-2v-3z"></path>
	</svg>

	<svg id="mobx-reset-icon" width="16" height="16" viewBox="0 0 16 16" x="0" y="64">
		<path fill="#fff" d="M7.7 1.2l0.7 6.4 2.1-2.1c1.9 1.9 1.9 5.1 0 7-0.9 1-2.2 1.5-3.5 1.5s-2.6-0.5-3.5-1.5c-1.9-1.9-1.9-5.1 0-7 0.6-0.6 1.4-1.1 2.3-1.3l-0.6-1.9c-1.2 0.3-2.3 0.9-3.2 1.8-2.7 2.7-2.7 7.1 0 9.9 1.3 1.3 3.1 2 4.9 2 1.9 0 3.6-0.7 4.9-2 2.7-2.7 2.7-7.1 0-9.9l2.2-2.2-6.3-0.7z"></path>
	</svg>

	<svg id="mobx-export-icon" width="16" height="16" viewBox="0 0 16 16" x="0" y="96">
		<path fill="#fff" d="M7 4v7h2v-7h2.4l-3.4-4-3.4 4z"></path>
		<path fill="#fff" d="M15 16h-14c-0.6 0-1-0.4-1-1v-9c0-0.6 0.4-1 1-1h3v2h-2v7h12v-7h-2v-2h3c0.6 0 1 0.4 1 1v9c0 0.6-0.4 1-1 1z"></path>
	</svg>

	<svg id="mobx-import-icon" width="16" height="16" viewBox="0 0 16 16" x="0" y="128">
		<path fill="#fff" d="M9 8v-7h-2v7h-2.4l3.4 4 3.4-4z"></path>
		<path fill="#fff" d="M15 16h-14c-0.6 0-1-0.4-1-1v-9c0-0.6 0.4-1 1-1h3v2h-2v7h12v-7h-2v-2h3c0.6 0 1 0.4 1 1v9c0 0.6-0.4 1-1 1z"></path>
	</svg>

	<svg id="mobx-preview-icon" width="16" height="16" viewBox="0 0 16 16" x="0" y="160">
		<path fill="#fff" d="M8 14c4.707 0 7.744-5.284 7.871-5.508 0.171-0.304 0.172-0.676 0.001-0.98-0.126-0.225-3.141-5.512-7.872-5.512-4.755 0-7.749 5.289-7.874 5.514-0.169 0.303-0.168 0.672 0.002 0.975 0.126 0.224 3.141 5.511 7.872 5.511zM8 4c2.839 0 5.036 2.835 5.818 4-0.784 1.166-2.981 4-5.818 4-2.841 0-5.038-2.838-5.819-4.001 0.777-1.164 2.965-3.999 5.819-3.999z"></path>
		<path fill="#fff" d="M10 8c0 1.105-0.895 2-2 2s-2-0.895-2-2c0-1.105 0.895-2 2-2s2 0.895 2 2z"></path>
	</svg>

	<svg id="mobx-comment-icon" width="16" height="16" viewBox="0 0 16 16" x="0" y="192">
		<path fill="#fff" d="M8 0c-4.4 0-8 3.1-8 7s3.6 7 8 7c0.2 0 0.4 0 0.6 0l5.4 2v-4.4c1.2-1.2 2-2.8 2-4.6 0-3.9-3.6-7-8-7zM12 10.8v2.3l-3.1-1.1c0 0-0.7 0-0.9 0-3.3 0-6-2.2-6-5s2.7-5 6-5 6 2.2 6 5c0 2.2-2 3.8-2 3.8z"></path>
	</svg>

	<svg id="mobx-ticket-icon" width="16" height="16" viewBox="0 0 16 16" x="0" y="224">
		<path fill="#fff" d="M15.7 8.3l-8-8c-0.2-0.2-0.4-0.3-0.7-0.3h-6c-0.6 0-1 0.4-1 1v6c0 0.3 0.1 0.5 0.3 0.7l8 8c0.2 0.2 0.4 0.3 0.7 0.3s0.5-0.1 0.7-0.3l6-6c0.4-0.4 0.4-1 0-1.4zM9 13.6l-7-7v-4.6h4.6l7 7-4.6 4.6z"></path>
		<path fill="#fff" d="M6 5c0 0.552-0.448 1-1 1s-1-0.448-1-1c0-0.552 0.448-1 1-1s1 0.448 1 1z"></path>
	</svg>

	<svg id="mobx-update-icon" width="16" height="16" viewBox="0 0 16 16" x="0" y="256">
		<path fill="#fff" d="M4.5 4.5c1.9-1.9 5.1-1.9 7 0 0.7 0.7 1.2 1.7 1.4 2.7l2-0.3c-0.2-1.5-0.9-2.8-1.9-3.8-2.7-2.7-7.1-2.7-9.9 0l-2.2-2.2-0.7 6.4 6.4-0.7-2.1-2.1z"></path>
		<path fill="#fff" d="M15.8 8.7l-6.4 0.7 2.1 2.1c-1.9 1.9-5.1 1.9-7 0-0.7-0.7-1.2-1.7-1.4-2.7l-2 0.3c0.2 1.5 0.9 2.8 1.9 3.8 1.4 1.4 3.1 2 4.9 2s3.6-0.7 4.9-2l2.2 2.2 0.8-6.4z"></path>
	</svg>

</svg>
