<svg id="Ken_Icon" data-name="Ken Icon" xmlns="http://www.w3.org/2000/svg" xmlns:xlink="http://www.w3.org/1999/xlink" viewBox="0 0 800 800"><defs><style>.cls-1{fill:url(#linear-gradient);}.cls-2{opacity:0.07;}.cls-3{opacity:0.8;}.cls-4{fill:#01767b;}.cls-5{fill:#f5f5f5;}</style><linearGradient id="linear-gradient" x1="397.55" y1="5.59" x2="401.51" y2="807.59" gradientTransform="matrix(1, 0, 0, -1, 0.5, 800)" gradientUnits="userSpaceOnUse"><stop offset="0" stop-color="#01949a"/><stop offset="0.52" stop-color="#01b0a3"/><stop offset="1" stop-color="#00cdac"/></linearGradient></defs><title>BoxIcon</title><g id="Box_Icon" data-name="Box Icon"><rect id="bg" class="cls-1" width="800" height="800"/><g id="shu" class="cls-2"><g class="cls-3"><polygon points="339.1 512.89 217.16 452.52 262.16 413.11 383.67 473.86 339.1 512.89"/><polygon points="249.9 496.99 249.9 556.08 389.86 626.06 389.86 495.9 338.53 540.87 249.9 496.99"/><polygon points="465.54 512.89 587.48 452.52 542.48 413.11 420.97 473.86 465.54 512.89"/><polygon points="553.69 496.99 553.69 556.08 413.73 626.06 413.73 495.9 465.06 540.87 553.69 496.99"/><polygon points="406.46 373.08 397.52 373.08 283.51 401.62 397.52 456.52 406.46 456.52 516.95 402.41 406.46 373.08"/></g><path id="Gear" d="M479.61,255.16l-10.14-18.64a4.72,4.72,0,0,0-5.93-2.12l-13.94,5.66a4.76,4.76,0,0,1-4.84-.78l-.84-.68A4.76,4.76,0,0,1,442.2,234l2.77-14.9a4.74,4.74,0,0,0-3.31-5.4l-20.34-6a4.74,4.74,0,0,0-5.7,2.7l-5.78,13.68a4.76,4.76,0,0,1-4,2.88c-.71.06-1.42.13-2.13.22a4.78,4.78,0,0,1-4.51-2l-8.26-12a4.73,4.73,0,0,0-6.16-1.48L366.14,221.8a4.72,4.72,0,0,0-2.12,5.93l5.58,13.74a4.77,4.77,0,0,1-.76,4.82c-.27.33-.54.66-.8,1a4.77,4.77,0,0,1-4.61,1.75l-14.69-2.73a4.73,4.73,0,0,0-5.4,3.31l-6,20.34a4.72,4.72,0,0,0,2.7,5.69l13.82,5.85a4.73,4.73,0,0,1,2.87,3.95c0,.58.12,1.16.19,1.74a4.75,4.75,0,0,1-2,4.47l-11.56,8.08a4.73,4.73,0,0,0-1.45,6.14l10.13,18.63a4.74,4.74,0,0,0,6,2.11l13-5.42a4.77,4.77,0,0,1,4.87.75c.51.42,1,.84,1.56,1.25a4.74,4.74,0,0,1,1.81,4.59l-2.44,13.8a4.73,4.73,0,0,0,3.32,5.36l20.34,6a4.74,4.74,0,0,0,5.71-2.74L411.68,337a4.72,4.72,0,0,1,3.92-2.88l.95-.11a4.77,4.77,0,0,1,4.46,2l8.35,11.94a4.74,4.74,0,0,0,6.14,1.44l18.63-10.13a4.73,4.73,0,0,0,2.11-6l-5.49-13.19a4.75,4.75,0,0,1,.72-4.89c.41-.49.8-1,1.19-1.47a4.69,4.69,0,0,1,4.52-1.75l14,2.48a4.73,4.73,0,0,0,5.35-3.32l6-20.34a4.75,4.75,0,0,0-2.74-5.72l-13.08-5.39a4.74,4.74,0,0,1-2.91-4c0-.47-.09-.93-.14-1.39a4.74,4.74,0,0,1,2-4.47l12.41-8.51A4.75,4.75,0,0,0,479.61,255.16Zm-53.08,54.67a33.6,33.6,0,1,1,13.35-45.18A33.62,33.62,0,0,1,426.53,309.83Z" transform="translate(0.5 0)"/><circle cx="410.52" cy="280.55" r="22.4"/><path id="Gear-2" data-name="Gear" d="M530.06,346.84l.62-8.65a1.94,1.94,0,0,0-1.58-2L523.05,335a1.93,1.93,0,0,1-1.49-1.33c0-.15-.09-.29-.14-.43a1.93,1.93,0,0,1,.41-1.95l4.24-4.53a1.93,1.93,0,0,0,0-2.59l-5.68-6.55a2,2,0,0,0-2.56-.33l-5,3.44a1.92,1.92,0,0,1-2,.11l-.78-.39a2,2,0,0,1-1.12-1.69l-.19-6A1.94,1.94,0,0,0,507,311l-8.65-.62a2,2,0,0,0-2,1.58l-1.1,6a1.94,1.94,0,0,1-1.32,1.5l-.5.16a1.92,1.92,0,0,1-2-.41L486.93,315a2,2,0,0,0-2.59-.05l-6.56,5.69a1.93,1.93,0,0,0-.32,2.55l3.47,5.06a1.94,1.94,0,0,1,.12,2c-.11.21-.22.42-.32.64a1.93,1.93,0,0,1-1.67,1.1l-5.76.24a1.93,1.93,0,0,0-1.85,1.8l-.62,8.65a1.93,1.93,0,0,0,1.6,2l5.68,1a2,2,0,0,1,1.51,1.33c.08.26.17.52.26.78a1.94,1.94,0,0,1-.39,2L475.61,354a1.94,1.94,0,0,0,0,2.57l5.69,6.56a1.94,1.94,0,0,0,2.57.32l4.8-3.36a1.91,1.91,0,0,1,2-.13l.35.17a1.94,1.94,0,0,1,1.11,1.67l.24,6a1.94,1.94,0,0,0,1.8,1.85l8.65.61a1.93,1.93,0,0,0,2-1.59l1-5.76a1.93,1.93,0,0,1,1.33-1.52l.73-.24a1.89,1.89,0,0,1,1.94.39l4.29,3.94a1.93,1.93,0,0,0,2.58,0l6.55-5.68a1.94,1.94,0,0,0,.32-2.57l-3.32-4.74a2,2,0,0,1-.13-2c.09-.16.17-.33.26-.5a1.93,1.93,0,0,1,1.68-1.1l6.15-.2A1.93,1.93,0,0,0,530.06,346.84ZM499.73,354a13.74,13.74,0,1,1,14.55-12.62A13.75,13.75,0,0,1,499.73,354Z" transform="translate(0.5 0)"/><circle cx="500.99" cy="340.26" r="9.16"/><path id="Gear-3" data-name="Gear" d="M342.7,341.81l-1.14-10.64a2.39,2.39,0,0,0-2.35-2.13l-7.59,0a2.36,2.36,0,0,1-2.1-1.29c-.09-.16-.18-.32-.26-.48a2.41,2.41,0,0,1,.07-2.47l4.16-6.4a2.4,2.4,0,0,0-.51-3.16l-8.32-6.71a2.38,2.38,0,0,0-3.17.16l-5.33,5.27a2.4,2.4,0,0,1-2.42.57l-1-.31a2.39,2.39,0,0,1-1.72-1.8l-1.54-7.19a2.38,2.38,0,0,0-2.58-1.88l-10.63,1.14a2.39,2.39,0,0,0-2.13,2.36l0,7.48a2.39,2.39,0,0,1-1.28,2.09l-.57.31a2.4,2.4,0,0,1-2.48-.06l-6.32-4.1a2.38,2.38,0,0,0-3.15.51l-6.71,8.32a2.37,2.37,0,0,0,.16,3.17l5.32,5.38a2.4,2.4,0,0,1,.58,2.39c-.09.28-.17.57-.25.85a2.4,2.4,0,0,1-1.78,1.7l-6.95,1.55a2.38,2.38,0,0,0-1.85,2.58l1.14,10.63a2.39,2.39,0,0,0,2.38,2.13l7.11,0a2.39,2.39,0,0,1,2.13,1.28c.15.3.32.59.48.88a2.4,2.4,0,0,1,0,2.49l-3.78,6a2.38,2.38,0,0,0,.51,3.14l8.32,6.71a2.38,2.38,0,0,0,3.19-.18l5.09-5.12a2.4,2.4,0,0,1,2.38-.59l.47.14a2.4,2.4,0,0,1,1.7,1.78l1.59,7.16a2.38,2.38,0,0,0,2.58,1.85l10.63-1.14a2.37,2.37,0,0,0,2.13-2.38l0-7.2a2.43,2.43,0,0,1,1.28-2.14c.28-.14.56-.29.83-.45a2.37,2.37,0,0,1,2.45,0l6.06,3.85a2.37,2.37,0,0,0,3.13-.52l6.71-8.32a2.39,2.39,0,0,0-.17-3.19l-5.06-5a2.38,2.38,0,0,1-.59-2.42c.06-.22.13-.44.19-.67a2.4,2.4,0,0,1,1.8-1.69l7.42-1.59A2.38,2.38,0,0,0,342.7,341.81Zm-35.24,15.27a16.94,16.94,0,1,1,14.9-18.48A16.94,16.94,0,0,1,307.46,357.08Z" transform="translate(0.5 0)"/><circle cx="305.89" cy="340.26" r="11.29"/></g><polygon class="cls-4" points="345.27 504.98 223.33 444.61 268.33 405.19 389.83 465.94 345.27 504.98"/><polygon class="cls-4" points="256.07 489.07 256.07 548.16 396.03 618.14 396.03 487.99 344.69 532.95 256.07 489.07"/><polygon class="cls-4" points="471.7 504.98 593.64 444.61 548.64 405.19 427.14 465.94 471.7 504.98"/><polygon class="cls-4" points="559.86 489.07 559.86 548.16 419.9 618.14 419.9 487.99 471.23 532.95 559.86 489.07"/><polygon class="cls-4" points="412.63 365.17 403.69 365.17 289.68 393.71 403.69 448.6 412.63 448.6 523.11 394.5 412.63 365.17"/><path id="Gear-4" data-name="Gear" class="cls-5" d="M485.77,247.24l-10.13-18.63a4.74,4.74,0,0,0-5.94-2.13l-13.94,5.66a4.76,4.76,0,0,1-4.83-.77l-.84-.69a4.75,4.75,0,0,1-1.73-4.58l2.77-14.89a4.72,4.72,0,0,0-3.31-5.4l-20.34-6a4.74,4.74,0,0,0-5.7,2.7L416,216.18a4.74,4.74,0,0,1-4,2.87c-.71.06-1.42.13-2.13.22a4.74,4.74,0,0,1-4.51-2l-8.26-12a4.73,4.73,0,0,0-6.16-1.48l-18.63,10.13a4.74,4.74,0,0,0-2.13,5.94l5.58,13.74a4.75,4.75,0,0,1-.75,4.81c-.28.33-.54.66-.81,1a4.74,4.74,0,0,1-4.6,1.75l-14.69-2.73a4.73,4.73,0,0,0-5.4,3.31l-6,20.34a4.72,4.72,0,0,0,2.69,5.7L360,273.58a4.75,4.75,0,0,1,2.87,3.95q.08.87.18,1.74a4.73,4.73,0,0,1-2,4.47l-11.56,8.09a4.72,4.72,0,0,0-1.44,6.13l10.13,18.63a4.73,4.73,0,0,0,6,2.11l13-5.42a4.76,4.76,0,0,1,4.87.75c.52.43,1,.84,1.56,1.25a4.76,4.76,0,0,1,1.81,4.6L383,333.67a4.74,4.74,0,0,0,3.32,5.36l20.34,6a4.72,4.72,0,0,0,5.71-2.73l5.46-13.24a4.73,4.73,0,0,1,3.92-2.89l.95-.1a4.74,4.74,0,0,1,4.47,2L435.53,340a4.73,4.73,0,0,0,6.13,1.44l18.63-10.13a4.72,4.72,0,0,0,2.11-6l-5.49-13.19a4.77,4.77,0,0,1,.73-4.89c.4-.48.8-1,1.18-1.46a4.67,4.67,0,0,1,4.52-1.76l14,2.48a4.73,4.73,0,0,0,5.36-3.32l6-20.34a4.72,4.72,0,0,0-2.73-5.71l-13.08-5.39a4.75,4.75,0,0,1-2.91-4c0-.46-.09-.92-.15-1.38a4.75,4.75,0,0,1,2-4.48l12.4-8.51A4.73,4.73,0,0,0,485.77,247.24Zm-53.08,54.67A33.6,33.6,0,1,1,446,256.74,33.59,33.59,0,0,1,432.69,301.91Z" transform="translate(0.5 0)"/><circle class="cls-5" cx="416.69" cy="272.63" r="22.4"/><path id="Gear-5" data-name="Gear" class="cls-5" d="M536.23,338.93l.61-8.66a1.93,1.93,0,0,0-1.57-2l-6-1.12a2,2,0,0,1-1.5-1.33c0-.14-.09-.28-.14-.42a2,2,0,0,1,.42-2l4.24-4.52a2,2,0,0,0,0-2.59l-5.69-6.56a1.93,1.93,0,0,0-2.55-.32l-5,3.44a2,2,0,0,1-2,.11c-.25-.14-.52-.27-.78-.4a1.94,1.94,0,0,1-1.11-1.69l-.19-6a2,2,0,0,0-1.8-1.87l-8.65-.61a1.93,1.93,0,0,0-2,1.57l-1.11,6a2,2,0,0,1-1.32,1.49l-.5.17a2,2,0,0,1-2-.41L493.09,307a1.93,1.93,0,0,0-2.59-.05L484,312.67a1.93,1.93,0,0,0-.33,2.56l3.48,5.06a1.92,1.92,0,0,1,.11,2c-.1.21-.21.42-.31.64a1.93,1.93,0,0,1-1.67,1.1l-5.77.24a1.94,1.94,0,0,0-1.85,1.8l-.61,8.65a1.93,1.93,0,0,0,1.59,2l5.68,1a1.92,1.92,0,0,1,1.51,1.33c.09.26.17.52.27.77a2,2,0,0,1-.39,2l-3.88,4.22a1.93,1.93,0,0,0,0,2.58l5.68,6.55a1.93,1.93,0,0,0,2.57.32l4.8-3.36a1.93,1.93,0,0,1,2-.13l.35.17a2,2,0,0,1,1.1,1.67l.25,5.95a1.93,1.93,0,0,0,1.79,1.85l8.66.61a1.92,1.92,0,0,0,2-1.59l1-5.75a2,2,0,0,1,1.33-1.53l.73-.24a1.93,1.93,0,0,1,2,.39l4.28,3.95a1.94,1.94,0,0,0,2.58,0l6.55-5.68a1.93,1.93,0,0,0,.32-2.57l-3.32-4.74a1.94,1.94,0,0,1-.12-2l.25-.51a2,2,0,0,1,1.68-1.1l6.15-.2A1.94,1.94,0,0,0,536.23,338.93Zm-30.34,7.13a13.74,13.74,0,1,1,14.56-12.62A13.74,13.74,0,0,1,505.89,346.06Z" transform="translate(0.5 0)"/><circle class="cls-5" cx="507.16" cy="332.34" r="9.16"/><path id="Gear-6" data-name="Gear" class="cls-5" d="M348.87,333.89l-1.14-10.63a2.38,2.38,0,0,0-2.36-2.13l-7.58,0a2.41,2.41,0,0,1-2.11-1.3c-.08-.16-.17-.32-.26-.48a2.39,2.39,0,0,1,.08-2.46l4.15-6.41a2.37,2.37,0,0,0-.5-3.15l-8.33-6.71a2.36,2.36,0,0,0-3.17.16L322.33,306a2.4,2.4,0,0,1-2.42.57c-.35-.11-.69-.21-1-.3a2.39,2.39,0,0,1-1.71-1.81l-1.54-7.19A2.38,2.38,0,0,0,313,295.4l-10.63,1.14a2.39,2.39,0,0,0-2.13,2.35l0,7.48a2.41,2.41,0,0,1-1.27,2.1l-.57.31a2.4,2.4,0,0,1-2.48-.07l-6.32-4.1a2.4,2.4,0,0,0-3.16.51l-6.71,8.32a2.38,2.38,0,0,0,.16,3.17L285.2,322a2.41,2.41,0,0,1,.58,2.4c-.09.28-.17.56-.25.84a2.35,2.35,0,0,1-1.78,1.7l-6.94,1.55a2.39,2.39,0,0,0-1.85,2.58l1.14,10.63a2.38,2.38,0,0,0,2.38,2.13l7.11,0a2.41,2.41,0,0,1,2.12,1.29c.16.29.32.59.49.88a2.4,2.4,0,0,1,0,2.49l-3.79,6a2.37,2.37,0,0,0,.52,3.13l8.32,6.71a2.39,2.39,0,0,0,3.19-.17l5.09-5.13a2.4,2.4,0,0,1,2.38-.59l.46.14a2.4,2.4,0,0,1,1.7,1.78l1.6,7.16a2.38,2.38,0,0,0,2.58,1.86l10.63-1.14a2.39,2.39,0,0,0,2.13-2.38l0-7.2a2.38,2.38,0,0,1,1.27-2.14l.84-.46a2.37,2.37,0,0,1,2.44.05l6.06,3.85a2.39,2.39,0,0,0,3.14-.51l6.71-8.33a2.38,2.38,0,0,0-.18-3.18l-5.06-5a2.41,2.41,0,0,1-.59-2.41c.07-.23.14-.45.2-.68a2.38,2.38,0,0,1,1.8-1.69l7.42-1.59A2.38,2.38,0,0,0,348.87,333.89Zm-35.24,15.27a16.94,16.94,0,1,1,14.9-18.48A16.94,16.94,0,0,1,313.63,349.16Z" transform="translate(0.5 0)"/><circle class="cls-5" cx="312.06" cy="332.35" r="11.29"/></g></svg>