<svg xmlns="http://www.w3.org/2000/svg" viewBox="0 0 512 512" version="1.1" id="svg10"><defs id="defs4"><style id="style2">.fa-secondary{opacity:.4}</style></defs><path style="fill:#000;fill-rule:evenodd;stroke-width:.89888668;fill-opacity:1;opacity:1" d="M86.879 51C67.002 51 51 67.002 51 86.879V425.12C51 444.998 67.002 461 86.879 461H425.12C444.998 461 461 444.998 461 425.121V86.88C461 67.002 444.998 51 425.121 51H86.88zM97 97h318v318H97V97zm46.477 11.277c-18.63 0-33.627 14.998-33.627 33.627v82.746c0 18.63 14.997 33.627 33.627 33.627h82.746c18.63 0 33.627-14.997 33.627-33.627v-82.746c0-18.63-14.998-33.627-33.627-33.627h-82.746zm142 144c-18.63 0-33.627 14.998-33.627 33.627v82.746c0 18.63 14.997 33.627 33.627 33.627h82.746c18.63 0 33.627-14.997 33.627-33.627v-82.746c0-18.63-14.998-33.627-33.627-33.627h-82.746z" id="rect824"/></svg>