<svg width="602px" height="602px" viewBox="57 57 602 602" version="1.1" xmlns="http://www.w3.org/2000/svg" xmlns:xlink="http://www.w3.org/1999/xlink">
    <defs></defs>
    <g id="layer1" stroke="none" stroke-width="1" fill="none" fill-rule="evenodd" transform="translate(58.964119, 58.887520)" opacity="0.91">
        <path d="M299.2142,597.77273 C464.061218,597.77273 597.69613,464.137818 597.69613,299.2908 C597.69613,134.443782 464.061218,0.80887 299.2142,0.80887 C134.367182,0.80887 0.73227,134.443782 0.73227,299.2908 C0.73227,464.137818 134.367182,597.77273 299.2142,597.77273 Z M145.140901,479.69155 C145.328551,479.20364 176.122291,409.95868 213.571451,325.81388 L281.660821,172.82333 L317.550911,168.11161 C337.290451,165.52017 353.602511,163.56141 353.799931,163.75883 C353.997341,163.95625 338.230901,200.08389 318.763381,244.0425 C299.295861,288.00109 283.367901,324.19699 283.367901,324.47783 C283.367901,325.47604 288.890931,324.96484 295.425191,323.36186 C339.772011,312.4827 388.366121,252.42697 398.140381,196.41983 C402.623981,170.72849 395.712661,154.10125 376.876941,145.26433 C366.678071,140.47944 361.289721,139.61937 341.956751,139.6905 C327.746311,139.7428 322.260471,140.18983 313.987231,141.96979 C260.921161,153.38678 218.835391,190.92279 202.223731,241.65087 C196.171431,260.13319 193.501791,278.79304 195.756411,286.8552 L196.533271,289.63312 L190.705651,289.61822 C178.529691,289.58702 165.112551,284.6882 159.407771,278.19081 C149.176101,266.53759 154.492631,236.91706 171.414811,211.29476 C179.545051,198.98455 195.704491,182.06314 209.626761,171.28099 C245.820121,143.25091 292.572691,123.99137 336.860071,118.86773 C351.945961,117.12243 380.413001,118.13683 390.949151,120.79516 C421.451951,128.49117 440.961801,145.24595 447.575461,169.42501 C449.803091,177.56907 450.546541,194.84542 449.096201,204.7643 C445.448901,229.70837 429.869721,259.90944 408.905331,282.67644 C391.862621,301.18456 374.472311,314.09621 352.058271,324.88325 C329.322891,335.82493 310.690051,340.8139 288.738421,341.83724 L275.421111,342.45806 L262.726131,370.84639 C255.743891,386.45997 241.927691,417.41746 232.023461,439.64082 L214.015781,480.04692 L179.407751,480.31282 C159.826521,480.46328 144.947871,480.19353 145.140901,479.6916 L145.140901,479.69155 Z" id="Combined-Shape" stroke="#FFFFFF" stroke-width="3.03613019" fill="#249DF1"></path>
    </g>
</svg>
