<svg id="uuid-c6e528bb-b545-4881-af71-060a0aaf6aaa" xmlns="http://www.w3.org/2000/svg" viewBox="0 0 600 280"><g id="uuid-63b19844-89bb-4612-9446-8a470e3d36ad"><path id="uuid-926ffc12-e7cb-4526-b971-fd9e1850b62d" d="m438.132,102.662l2.083-2.394-2.083-2.4-2.083,2.4,2.083,2.394Z" fill="#c6d4f4"/><path id="uuid-a8eb4b67-b435-4d53-b0be-fd00b90a40dd" d="m438.132,89.288l2.083-2.4-2.083-2.4-2.083,2.4,2.083,2.4Z" fill="#c6d4f4"/><path id="uuid-7272182f-b4e8-4aca-9d8b-849443b5fd71" d="m449.771,97.874l-2.083,2.4,2.083,2.394,2.083-2.394-2.083-2.4Z" fill="#c6d4f4"/><path id="uuid-1d3ac1f5-9493-48ed-beb4-0656481bdf9c" d="m449.771,84.498l-2.083,2.4,2.083,2.4,2.083-2.4-2.083-2.4Z" fill="#c6d4f4"/><path id="uuid-83ff619b-ca2e-4039-b9bc-35f973b30d24" d="m461.41,138.001l-2.083,2.394,2.083,2.4,2.086-2.4-2.086-2.394Z" fill="#c6d4f4"/><path id="uuid-c16a2e37-55ec-4b1e-b250-19ad5b562ad7" d="m461.41,124.625l-2.083,2.4,2.083,2.394,2.086-2.394-2.086-2.4Z" fill="#c6d4f4"/><path id="uuid-8cc31421-9b58-479c-9d73-0fb5f6d1ff8e" d="m461.41,111.249l-2.083,2.4,2.083,2.394,2.086-2.394-2.086-2.4Z" fill="#c6d4f4"/><path id="uuid-d0281b8d-6f46-44d6-a5fc-f68f2d5398ae" d="m461.41,97.874l-2.083,2.4,2.083,2.394,2.086-2.394-2.086-2.4Z" fill="#c6d4f4"/><path id="uuid-c58d04ea-9e7d-49b3-a2da-92ab9e20d780" d="m463.495,86.893l-2.085-2.4-2.083,2.4,2.083,2.4,2.085-2.4Z" fill="#c6d4f4"/><path id="uuid-1e37d69d-fdf7-4a5a-adf6-2ce51226bd01" d="m473.047,138.001l-2.083,2.394,2.083,2.4,2.083-2.4-2.083-2.394Z" fill="#c6d4f4"/><path id="uuid-0d835288-7169-415e-b9cf-29231ab16feb" d="m473.047,124.625l-2.083,2.4,2.083,2.394,2.083-2.394-2.083-2.4Z" fill="#c6d4f4"/><path id="uuid-8e62d3d1-dee1-453b-a40c-2f376f85e27e" d="m473.047,111.249l-2.083,2.4,2.083,2.394,2.083-2.394-2.083-2.4Z" fill="#c6d4f4"/><path id="uuid-ce026d62-97f5-41ea-a94c-ba41c0680102" d="m473.047,97.874l-2.083,2.4,2.083,2.394,2.083-2.394-2.083-2.4Z" fill="#c6d4f4"/><path id="uuid-3a4180d3-d823-493e-b53b-948d79a373a9" d="m473.047,84.498l-2.083,2.4,2.083,2.4,2.083-2.4-2.083-2.4Z" fill="#c6d4f4"/><path id="uuid-4dee84db-efc5-45f1-b8c7-0f46e94b9d49" d="m484.689,138.001l-2.083,2.394,2.083,2.4,2.083-2.4-2.083-2.394Z" fill="#c6d4f4"/><path id="uuid-7e18f378-d60c-40d5-8344-7b47eb91118f" d="m484.689,124.625l-2.083,2.4,2.083,2.394,2.083-2.394-2.083-2.4Z" fill="#c6d4f4"/><path id="uuid-25f2fbc7-3ecc-4631-984f-a866a2a116cd" d="m484.689,111.249l-2.083,2.4,2.083,2.394,2.083-2.394-2.083-2.4Z" fill="#c6d4f4"/><path id="uuid-46bc5359-d282-4d99-87b2-b2b90d14b495" d="m484.689,97.874l-2.083,2.4,2.083,2.394,2.083-2.394-2.083-2.4Z" fill="#c6d4f4"/><path id="uuid-9d00fab3-f154-48e1-b530-fc69b3e1d89c" d="m484.689,84.498l-2.083,2.4,2.083,2.4,2.083-2.4-2.083-2.4Z" fill="#c6d4f4"/><path id="uuid-62a25ed9-a186-452b-9d84-2affe871e664" d="m496.33,138.001l-2.086,2.394,2.086,2.4,2.083-2.4-2.083-2.394Z" fill="#c6d4f4"/><path id="uuid-3f4b3dd4-3160-477f-81c9-e01c9627c9e3" d="m496.33,124.625l-2.086,2.4,2.086,2.394,2.083-2.394-2.083-2.4Z" fill="#c6d4f4"/><path id="uuid-cfa08bea-9a0c-493f-acbf-1fee9961f44d" d="m496.33,111.249l-2.086,2.4,2.086,2.394,2.083-2.394-2.083-2.4Z" fill="#c6d4f4"/><path id="uuid-09dc9627-0694-4e3a-acc7-8dc5f14cc7d7" d="m496.33,97.874l-2.086,2.4,2.086,2.394,2.083-2.394-2.083-2.4Z" fill="#c6d4f4"/><path id="uuid-0b1434c8-d1c7-4c2c-be7a-299588601b97" d="m496.324,84.498l-2.085,2.4,2.085,2.4,2.083-2.4-2.083-2.4Z" fill="#c6d4f4"/><path id="uuid-2722be56-01be-4213-8037-4e92709abe01" d="m507.968,138.001l-2.083,2.394,2.083,2.4,2.083-2.4-2.083-2.394Z" fill="#c6d4f4"/><path id="uuid-523a87f0-e393-40af-9053-a1a98818a94e" d="m507.968,124.625l-2.083,2.4,2.083,2.394,2.083-2.394-2.083-2.4Z" fill="#c6d4f4"/><path id="uuid-4480c071-862d-4e0d-a0be-f19c5968e4a4" d="m507.968,111.249l-2.083,2.4,2.083,2.394,2.083-2.394-2.083-2.4Z" fill="#c6d4f4"/><path id="uuid-620b9896-3e2d-47cf-8310-5e3ee6ff2035" d="m507.968,97.874l-2.083,2.4,2.083,2.394,2.083-2.394-2.083-2.4Z" fill="#c6d4f4"/><path id="uuid-5610c7e9-8213-472c-ba06-81b5f8160d19" d="m507.968,84.498l-2.083,2.4,2.083,2.4,2.083-2.4-2.083-2.4Z" fill="#c6d4f4"/><path id="uuid-7f855123-d8f6-4216-8edf-587a35a863e7" d="m519.607,138.001l-2.083,2.394,2.083,2.4,2.086-2.4-2.086-2.394Z" fill="#c6d4f4"/><path id="uuid-3943c601-cbee-4a5f-ba05-e55e50a50008" d="m519.607,124.625l-2.083,2.4,2.083,2.394,2.086-2.394-2.086-2.4Z" fill="#c6d4f4"/><path id="uuid-93fe9cba-64e3-46fa-b33c-c013921e3623" d="m519.607,111.249l-2.083,2.4,2.083,2.394,2.086-2.394-2.086-2.4Z" fill="#c6d4f4"/><path id="uuid-e076c48e-8ec4-49b4-a713-69a4e4ae2902" d="m519.607,97.874l-2.083,2.4,2.083,2.394,2.086-2.394-2.086-2.4Z" fill="#c6d4f4"/><path id="uuid-450ba1a7-490b-4322-bb0f-c01e6ea3185d" d="m521.691,86.893l-2.085-2.4-2.082,2.4,2.083,2.4,2.084-2.4Z" fill="#c6d4f4"/><path id="uuid-7380251c-d8ee-45da-9645-6ea39fcbdaf1" d="m531.247,138.001l-2.083,2.394,2.083,2.4,2.083-2.4-2.083-2.394Z" fill="#c6d4f4"/><path id="uuid-27c3edb7-b21e-4a86-a9f2-35944cd316d9" d="m531.247,124.625l-2.083,2.4,2.083,2.394,2.083-2.394-2.083-2.4Z" fill="#c6d4f4"/><path id="uuid-62bcf110-68f4-442f-b8c4-d38cddaba579" d="m531.247,111.249l-2.083,2.4,2.083,2.394,2.083-2.394-2.083-2.4Z" fill="#c6d4f4"/><path id="uuid-4cb32596-25fe-413e-b481-80f5f3f593a5" d="m531.247,97.874l-2.083,2.4,2.083,2.394,2.083-2.394-2.083-2.4Z" fill="#c6d4f4"/><path id="uuid-8b19effb-32fb-4de9-b799-4fadf073461e" d="m531.247,84.498l-2.083,2.4,2.083,2.4,2.083-2.4-2.083-2.4Z" fill="#c6d4f4"/><path id="uuid-22fb9541-0128-457c-8334-ea6c6bf16749" d="m542.886,138.001l-2.083,2.394,2.083,2.4,2.083-2.4-2.083-2.394Z" fill="#c6d4f4"/><path id="uuid-46eca71d-8ee2-4784-9025-530d463063ff" d="m542.886,124.625l-2.083,2.4,2.083,2.394,2.083-2.394-2.083-2.4Z" fill="#c6d4f4"/><path id="uuid-0ec19c04-034b-4d63-8669-8804289af8a9" d="m542.886,111.249l-2.083,2.4,2.083,2.394,2.083-2.394-2.083-2.4Z" fill="#c6d4f4"/><path id="uuid-5103812f-adb0-436c-a7cb-a184958e3d39" d="m542.886,97.874l-2.083,2.4,2.083,2.394,2.083-2.394-2.083-2.4Z" fill="#c6d4f4"/><path id="uuid-3992ad44-d71a-425c-9123-08193f7e5697" d="m542.886,84.498l-2.083,2.4,2.083,2.4,2.083-2.4-2.083-2.4Z" fill="#c6d4f4"/><path id="uuid-e3191e17-587b-4e9d-9ad1-0b019fde201c" d="m554.524,142.79l2.083-2.4-2.083-2.394-2.086,2.394,2.086,2.4Z" fill="#c6d4f4"/><path id="uuid-89d0de17-c73e-4d48-a4f4-d00de70b7253" d="m554.524,129.414l2.083-2.394-2.083-2.395-2.086,2.395,2.086,2.394Z" fill="#c6d4f4"/><path id="uuid-a7b43d6e-323c-4a7e-b50c-53cadc40a772" d="m554.524,116.038l2.083-2.394-2.083-2.4-2.086,2.4,2.086,2.394Z" fill="#c6d4f4"/><path id="uuid-5acbe3f9-bd45-4c05-9945-34ef56d80703" d="m554.524,102.662l2.083-2.394-2.083-2.4-2.086,2.4,2.086,2.394Z" fill="#c6d4f4"/><path id="uuid-82c1beaa-7d43-4b90-a529-47d9c918cf91" d="m552.442,86.893l2.085,2.4,2.083-2.4-2.086-2.4-2.082,2.4Z" fill="#c6d4f4"/><path id="uuid-e76d29bf-ee5c-4def-bfe4-43cd01fde973" d="m566.162,138.001l-2.083,2.394,2.083,2.4,2.083-2.4-2.083-2.394Z" fill="#c6d4f4"/><path id="uuid-d0328ee4-8fb0-40cf-aec4-8426bf5eccbe" d="m566.162,124.625l-2.083,2.4,2.083,2.394,2.083-2.394-2.083-2.4Z" fill="#c6d4f4"/><path id="uuid-fc96a3b5-a6aa-476e-ab25-52a870badf30" d="m566.162,111.249l-2.083,2.4,2.083,2.394,2.083-2.394-2.083-2.4Z" fill="#c6d4f4"/><path id="uuid-7495d4e8-d5a5-4d96-a99d-22fb1a10081b" d="m566.162,97.874l-2.083,2.4,2.083,2.394,2.083-2.394-2.083-2.4Z" fill="#c6d4f4"/><path id="uuid-d3e8914d-d6fc-4582-8c3f-eaa8ba1c3fc9" d="m566.162,84.498l-2.083,2.4,2.083,2.4,2.083-2.4-2.083-2.4Z" fill="#c6d4f4"/><path id="uuid-f9ec7c43-39cc-4ef5-aef1-fc14475045eb" d="m577.804,138.001l-2.083,2.394,2.083,2.4,2.086-2.4-2.086-2.394Z" fill="#c6d4f4"/><path id="uuid-fe1e296c-7dd4-492a-bdbf-dd9bfe12941a" d="m577.804,124.625l-2.083,2.4,2.083,2.394,2.086-2.394-2.086-2.4Z" fill="#c6d4f4"/><path id="uuid-2d28b672-d201-45df-8829-9dbcc64e5fa3" d="m577.804,111.249l-2.083,2.4,2.083,2.394,2.086-2.394-2.086-2.4Z" fill="#c6d4f4"/><path id="uuid-f78552e3-f807-48ef-8e18-59abeccfa4ce" d="m577.804,97.874l-2.083,2.4,2.083,2.394,2.086-2.394-2.086-2.4Z" fill="#c6d4f4"/><path id="uuid-95e50f02-999e-4f01-ac29-10b6f4da0239" d="m579.889,86.893l-2.085-2.4-2.083,2.4,2.083,2.4,2.085-2.4Z" fill="#c6d4f4"/><path id="uuid-682b4ccb-18af-45b4-85cb-bed57bcf3128" d="m438.132,76.192l2.083-2.395-2.083-2.394-2.083,2.394,2.083,2.395Z" fill="#c6d4f4"/><path id="uuid-5d082138-faa1-4184-a796-469c281d6640" d="m438.132,62.816l2.083-2.4-2.083-2.394-2.083,2.394,2.083,2.4Z" fill="#c6d4f4"/><path id="uuid-8b008239-6a6f-4518-9719-af14400d5f5b" d="m438.132,49.44l2.083-2.4-2.083-2.394-2.083,2.394,2.083,2.4Z" fill="#c6d4f4"/><path id="uuid-d1906f4c-d1c2-44fc-aaf1-0c1fb591faf1" d="m449.771,71.402l-2.078,2.4,2.083,2.4,2.083-2.4-2.088-2.4Z" fill="#c6d4f4"/><path id="uuid-051065b3-24e7-4bc7-a35c-f67ecd0d828a" d="m449.771,58.031l-2.078,2.394,2.083,2.4,2.083-2.4-2.088-2.394Z" fill="#c6d4f4"/><path id="uuid-722f9b91-9926-45fb-ac73-329f74c2f908" d="m449.771,44.651l-2.078,2.394,2.083,2.4,2.083-2.4-2.088-2.394Z" fill="#c6d4f4"/><path id="uuid-9130d002-c0ed-46ed-902a-7ae1928ae65b" d="m449.771,31.275l-2.078,2.394,2.083,2.4,2.083-2.4-2.088-2.394Z" fill="#c6d4f4"/><path id="uuid-bb408b7b-47db-4ba9-a305-e3cde8821c12" d="m461.41,71.402l-2.086,2.394,2.083,2.395,2.086-2.395-2.083-2.394Z" fill="#c6d4f4"/><path id="uuid-4a92ed74-ecac-454b-91ec-5db4b498f308" d="m461.41,58.031l-2.086,2.39,2.083,2.4,2.086-2.4-2.083-2.39Z" fill="#c6d4f4"/><path id="uuid-299d40ef-9f10-49c1-a877-9f898c0da205" d="m461.41,44.651l-2.086,2.394,2.083,2.4,2.086-2.4-2.083-2.394Z" fill="#c6d4f4"/><path id="uuid-458aa104-9a71-48bf-a614-90b86853694b" d="m461.41,31.275l-2.086,2.394,2.083,2.4,2.086-2.4-2.083-2.394Z" fill="#c6d4f4"/><path id="uuid-d898bd11-92f9-4166-8701-7b9a41166735" d="m473.047,71.402l-2.083,2.394,2.083,2.395,2.083-2.395-2.083-2.394Z" fill="#c6d4f4"/><path id="uuid-c1e2dcd9-7c93-4bef-bbb9-9290dd4943b2" d="m473.047,58.031l-2.083,2.39,2.083,2.4,2.083-2.4-2.083-2.39Z" fill="#c6d4f4"/><path id="uuid-b2bd3460-26ca-447e-bd69-c2b6fc688d1b" d="m473.047,44.651l-2.083,2.394,2.083,2.4,2.083-2.4-2.083-2.394Z" fill="#c6d4f4"/><path id="uuid-ccc21078-8a00-479a-93bc-6d50b04b2e3d" d="m473.047,31.275l-2.083,2.394,2.083,2.4,2.083-2.4-2.083-2.394Z" fill="#c6d4f4"/><path id="uuid-1be97ad6-a68e-43d8-84b7-4c4492692be7" d="m484.689,71.402l-2.083,2.394,2.083,2.395,2.083-2.395-2.083-2.394Z" fill="#c6d4f4"/><path id="uuid-ea7fd1ea-8225-4734-ad9e-e109ad16c88f" d="m484.689,58.031l-2.083,2.394,2.083,2.4,2.083-2.4-2.083-2.394Z" fill="#c6d4f4"/><path id="uuid-741c9a96-862e-43f2-9808-70a3e1dfaaf3" d="m484.689,44.651l-2.083,2.394,2.083,2.4,2.083-2.4-2.083-2.394Z" fill="#c6d4f4"/><path id="uuid-fd8342d9-856f-4e04-9cfa-eeb5de37671c" d="m484.689,31.275l-2.083,2.394,2.083,2.4,2.083-2.4-2.083-2.394Z" fill="#c6d4f4"/><path id="uuid-d357c65c-3e80-4a0b-94f1-de73d2584030" d="m496.33,71.402l-2.086,2.394,2.086,2.395,2.083-2.395-2.083-2.394Z" fill="#c6d4f4"/><path id="uuid-f734414e-346a-4157-8f15-09bedf3a67c5" d="m496.33,58.031l-2.086,2.39,2.086,2.4,2.083-2.4-2.083-2.39Z" fill="#c6d4f4"/><path id="uuid-a4906a40-6ff0-4ef3-bac5-fe7641282c1d" d="m496.33,44.651l-2.086,2.394,2.086,2.4,2.083-2.4-2.083-2.394Z" fill="#c6d4f4"/><path id="uuid-50030b04-4db8-4f1e-8570-90365aa707b7" d="m496.33,31.275l-2.086,2.394,2.086,2.4,2.083-2.4-2.083-2.394Z" fill="#c6d4f4"/><path id="uuid-36cbecc2-0e64-47cc-af57-cd894377912c" d="m507.968,71.402l-2.083,2.394,2.083,2.395,2.083-2.395-2.083-2.394Z" fill="#c6d4f4"/><path id="uuid-43386d89-4b69-4df5-902b-54340818cb17" d="m507.968,58.031l-2.083,2.394,2.083,2.4,2.083-2.4-2.083-2.394Z" fill="#c6d4f4"/><path id="uuid-76428354-c26c-4b22-b824-c611cd5f286e" d="m507.968,44.651l-2.083,2.394,2.083,2.4,2.083-2.4-2.083-2.394Z" fill="#c6d4f4"/><path id="uuid-107b92ea-77a4-4f01-afe5-626620f10da0" d="m519.607,71.402l-2.083,2.394,2.083,2.395,2.086-2.395-2.086-2.394Z" fill="#c6d4f4"/><path id="uuid-5466834d-7a31-4a48-a210-0858d3d3ba50" d="m519.607,58.031l-2.083,2.39,2.083,2.4,2.086-2.4-2.086-2.39Z" fill="#c6d4f4"/><path id="uuid-9b08465e-829f-45d5-8d4f-959699441944" d="m519.607,44.651l-2.083,2.394,2.083,2.4,2.086-2.4-2.086-2.394Z" fill="#c6d4f4"/><path id="uuid-49d0284a-9396-412b-8a5b-bfd9d2f3621e" d="m531.247,71.402l-2.083,2.394,2.083,2.395,2.083-2.395-2.083-2.394Z" fill="#c6d4f4"/><path id="uuid-a0e07296-4d6b-42b7-9334-ffcaa1d31d21" d="m531.247,58.031l-2.083,2.39,2.083,2.4,2.083-2.4-2.083-2.39Z" fill="#c6d4f4"/><path id="uuid-6cb215f9-0478-40c3-a7a2-c7b86c2dc3d4" d="m531.247,44.651l-2.083,2.394,2.083,2.4,2.083-2.4-2.083-2.394Z" fill="#c6d4f4"/><path id="uuid-56ca2564-801a-42dd-a439-ce1c8f4ef825" d="m542.886,71.402l-2.083,2.394,2.083,2.395,2.083-2.395-2.083-2.394Z" fill="#c6d4f4"/><path id="uuid-9c595544-e636-4e56-9670-a303a9bbd66b" d="m542.886,58.031l-2.083,2.394,2.083,2.4,2.083-2.4-2.083-2.394Z" fill="#c6d4f4"/><path id="uuid-12fa6905-da60-4f0c-b458-bc2636a24e21" d="m554.524,76.192l2.083-2.395-2.083-2.394-2.086,2.394,2.086,2.395Z" fill="#c6d4f4"/><path id="uuid-851172e3-7980-4545-8e28-6756dab313bc" d="m554.524,62.816l2.083-2.4-2.083-2.394-2.086,2.394,2.086,2.4Z" fill="#c6d4f4"/><path id="uuid-e6e98629-09c9-428e-b596-e95607754096" d="m566.162,71.402l-2.083,2.394,2.083,2.395,2.083-2.395-2.083-2.394Z" fill="#c6d4f4"/><path id="uuid-587a950f-163e-4d91-8d47-4530f6b41c3e" d="m589.611,138.001l-2.087,2.394,2.083,2.4,2.083-2.4-2.079-2.394Z" fill="#c6d4f4"/><path id="uuid-0c53f5c7-0aca-4061-b968-223dfbbca95e" d="m589.611,124.625l-2.083,2.4,2.083,2.394,2.083-2.394-2.083-2.4Z" fill="#c6d4f4"/><path id="uuid-d06cda74-5990-454d-a115-7c45fad78e5b" d="m589.611,111.249l-2.083,2.4,2.083,2.394,2.083-2.394-2.083-2.4Z" fill="#c6d4f4"/><path id="uuid-2d7f46b0-a120-4b60-acaf-14ce6762ac2d" d="m391.657,97.874l-2.083,2.4,2.083,2.394,2.083-2.394-2.083-2.4Z" fill="#c6d4f4"/><path id="uuid-277a47c5-1721-4318-8861-21b5fe53602b" d="m391.657,84.498l-2.083,2.4,2.083,2.4,2.083-2.4-2.083-2.4Z" fill="#c6d4f4"/><path id="uuid-728aa43f-52c8-4ff9-a967-914a287074b1" d="m403.297,97.874l-2.087,2.4,2.087,2.394,2.083-2.394-2.083-2.4Z" fill="#c6d4f4"/><path id="uuid-b06f1c12-dc6c-46a3-9289-9f20e2b75811" d="m403.298,84.498l-2.085,2.4,2.085,2.4,2.083-2.4-2.083-2.4Z" fill="#c6d4f4"/><path id="uuid-e2879511-7648-4f95-a6b6-ec615a3bd51b" d="m414.937,102.662l2.083-2.394-2.083-2.4-2.083,2.4,2.083,2.394Z" fill="#c6d4f4"/><path id="uuid-885414da-575d-4a8c-aaa6-83c999b270c1" d="m414.937,89.288l2.083-2.4-2.083-2.4-2.083,2.4,2.083,2.4Z" fill="#c6d4f4"/><path id="uuid-b8ac6e1d-0ce0-4521-97ac-e0076a984318" d="m426.576,102.662l2.086-2.394-2.086-2.4-2.083,2.4,2.083,2.394Z" fill="#c6d4f4"/><path id="uuid-22b386f4-1089-416b-981f-4f1d9f5aab52" d="m426.576,89.288l2.085-2.4-2.085-2.4-2.083,2.4,2.083,2.4Z" fill="#c6d4f4"/><path id="uuid-206a1df1-1141-4b74-8a24-a105c34cc71e" d="m391.657,71.402l-2.083,2.394,2.083,2.395,2.083-2.395-2.083-2.394Z" fill="#c6d4f4"/><path id="uuid-57fe7d72-8d22-4f95-93dd-7aff958b8bb4" d="m403.297,71.402l-2.087,2.394,2.087,2.395,2.083-2.395-2.083-2.394Z" fill="#c6d4f4"/><path id="uuid-7712e374-6c1c-45cf-bf5e-1b6a2a6e8e43" d="m403.297,58.031l-2.087,2.394,2.087,2.4,2.083-2.4-2.083-2.394Z" fill="#c6d4f4"/><path id="uuid-335d3b4b-c705-4d95-9514-7abacbaadc5c" d="m414.937,76.192l2.083-2.395-2.083-2.394-2.083,2.394,2.083,2.395Z" fill="#c6d4f4"/><path id="uuid-96f598e2-9031-483c-bb6d-5f3848d6b8f6" d="m414.937,62.816l2.083-2.4-2.083-2.394-2.083,2.394,2.083,2.4Z" fill="#c6d4f4"/><path id="uuid-24f1e3fa-a5c9-4a88-b315-a5073ea710b0" d="m414.937,49.44l2.083-2.4-2.083-2.394-2.083,2.394,2.083,2.4Z" fill="#c6d4f4"/><path id="uuid-698b6261-a17c-4c21-8244-75d7384b6e46" d="m426.576,76.192l2.086-2.395-2.086-2.394-2.083,2.394,2.083,2.395Z" fill="#c6d4f4"/><path id="uuid-3b33ec88-3c92-42e6-8a96-71a6a1dcc4c5" d="m426.576,62.816l2.086-2.4-2.086-2.394-2.083,2.394,2.083,2.4Z" fill="#c6d4f4"/><path id="uuid-8e2001a8-2da1-49c0-9e3e-172a8385de7d" d="m426.576,49.44l2.086-2.4-2.086-2.394-2.083,2.394,2.083,2.4Z" fill="#c6d4f4"/><path id="uuid-3a246099-09dc-4399-b266-8f1fd7be803e" d="m438.132,275.439l2.083-2.395-2.083-2.394-2.083,2.394,2.083,2.395Z" fill="#c6d4f4"/><path id="uuid-2f789ea1-bd9b-41a0-a02e-27cd8d49aace" d="m438.132,262.063l2.083-2.394-2.083-2.4-2.083,2.4,2.083,2.394Z" fill="#c6d4f4"/><path id="uuid-aef60f50-68a8-42cf-b929-fb3881d1fae1" d="m449.771,270.65l-2.078,2.394,2.083,2.395,2.083-2.395-2.088-2.394Z" fill="#c6d4f4"/><path id="uuid-51139cfa-3db9-46fd-8f1e-7e5d2fe43429" d="m449.771,257.274l-2.083,2.4,2.083,2.394,2.083-2.394-2.083-2.4Z" fill="#c6d4f4"/><path id="uuid-f2b4e027-54ac-4280-a812-43c7209a4745" d="m461.41,270.65l-2.083,2.394,2.083,2.395,2.086-2.395-2.086-2.394Z" fill="#c6d4f4"/><path id="uuid-0782ad4c-e246-45a9-b7c4-1145370018f6" d="m461.41,257.274l-2.083,2.4,2.083,2.394,2.086-2.394-2.086-2.4Z" fill="#c6d4f4"/><path id="uuid-55614269-e59f-486c-94de-159d5a033172" d="m473.047,270.65l-2.083,2.394,2.083,2.395,2.083-2.395-2.083-2.394Z" fill="#c6d4f4"/><path id="uuid-0e4634a7-8ca1-4fe7-9ae1-e6cfc03e083b" d="m473.047,257.274l-2.083,2.4,2.083,2.394,2.083-2.394-2.083-2.4Z" fill="#c6d4f4"/><path id="uuid-e21ec14c-5798-442c-b239-f5dfa1557437" d="m484.689,270.65l-2.083,2.394,2.083,2.395,2.083-2.395-2.083-2.394Z" fill="#c6d4f4"/><path id="uuid-1d216c4f-a270-410f-860d-eb759da61ecf" d="m484.689,257.274l-2.083,2.4,2.083,2.394,2.083-2.394-2.083-2.4Z" fill="#c6d4f4"/><path id="uuid-dd2f34ca-2cf4-4399-9f58-97ecdddb9c3c" d="m496.33,270.65l-2.086,2.394,2.086,2.395,2.083-2.395-2.083-2.394Z" fill="#c6d4f4"/><path id="uuid-936b85c8-d515-4f09-b45f-f1ba1f67c228" d="m496.33,257.274l-2.086,2.4,2.086,2.394,2.083-2.394-2.083-2.4Z" fill="#c6d4f4"/><path id="uuid-3bf74390-27ef-48e3-a496-c8b8aaedfada" d="m507.968,270.65l-2.083,2.394,2.083,2.395,2.083-2.395-2.083-2.394Z" fill="#c6d4f4"/><path id="uuid-f5af8b99-f112-4f55-aa78-858448610403" d="m507.968,257.274l-2.083,2.4,2.083,2.394,2.083-2.394-2.083-2.4Z" fill="#c6d4f4"/><path id="uuid-67452580-64bb-4814-8de1-04e49fa74c50" d="m519.607,257.274l-2.083,2.4,2.083,2.394,2.086-2.394-2.086-2.4Z" fill="#c6d4f4"/><path id="uuid-2102809a-1750-4060-86d5-689142191ae3" d="m531.247,257.274l-2.083,2.4,2.083,2.394,2.083-2.394-2.083-2.4Z" fill="#c6d4f4"/><path id="uuid-382120e4-1e4b-476e-859b-27b224709562" d="m542.886,257.274l-2.083,2.4,2.083,2.394,2.083-2.394-2.083-2.4Z" fill="#c6d4f4"/><path id="uuid-5e890465-a780-48f9-9313-625cdb23299b" d="m438.132,248.968l2.083-2.4-2.083-2.4-2.083,2.4,2.083,2.4Z" fill="#c6d4f4"/><path id="uuid-a0187fcb-72c4-4352-a542-49a3573ed54a" d="m438.132,235.592l2.083-2.4-2.083-2.394-2.083,2.394,2.083,2.4Z" fill="#c6d4f4"/><path id="uuid-966a544f-84f2-4f24-a282-8b8bb8d487f3" d="m438.132,222.216l2.083-2.4-2.083-2.394-2.083,2.394,2.083,2.4Z" fill="#c6d4f4"/><path id="uuid-d190856c-833f-4c7d-978e-ab3e30902d7b" d="m438.132,208.84l2.083-2.4-2.083-2.394-2.083,2.394,2.083,2.4Z" fill="#c6d4f4"/><path id="uuid-1cdd2d3c-36d1-4308-a763-199fded23c0f" d="m449.771,244.178l-2.083,2.4,2.083,2.4,2.083-2.4-2.083-2.4Z" fill="#c6d4f4"/><path id="uuid-d38a03a8-051a-4b22-8365-ee4e3259b0f6" d="m449.771,230.803l-2.078,2.394,2.083,2.4,2.083-2.4-2.088-2.394Z" fill="#c6d4f4"/><path id="uuid-ca163d10-09ac-4dde-86d3-fcf62b82fdfe" d="m449.771,217.431l-2.078,2.394,2.083,2.4,2.083-2.4-2.088-2.394Z" fill="#c6d4f4"/><path id="uuid-54ca0ce5-cbc9-4d6e-86ad-ca2d545efdf5" d="m449.771,204.051l-2.078,2.394,2.083,2.4,2.083-2.4-2.088-2.394Z" fill="#c6d4f4"/><path id="uuid-3d227dea-86d3-44d5-a64a-4b7ae11be14a" d="m463.495,246.573l-2.085-2.4-2.083,2.4,2.083,2.4,2.085-2.4Z" fill="#c6d4f4"/><path id="uuid-3b773c85-3eca-4a4a-a884-463830b9ec5a" d="m461.41,230.803l-2.083,2.394,2.083,2.4,2.086-2.4-2.086-2.394Z" fill="#c6d4f4"/><path id="uuid-b3d14543-64eb-4841-a8e7-1f28029810cb" d="m461.41,217.431l-2.086,2.39,2.083,2.4,2.086-2.4-2.083-2.39Z" fill="#c6d4f4"/><path id="uuid-27c0ee3e-b645-4a91-837f-41e4f8cb3436" d="m461.41,204.051l-2.083,2.394,2.083,2.4,2.086-2.4-2.086-2.394Z" fill="#c6d4f4"/><path id="uuid-6851131d-8513-498e-8216-8e806c2ec6ee" d="m461.41,190.675l-2.083,2.394,2.083,2.4,2.086-2.4-2.086-2.394Z" fill="#c6d4f4"/><path id="uuid-727b68ae-6358-4383-90de-7051fe659b5a" d="m461.41,177.299l-2.083,2.394,2.083,2.395,2.086-2.395-2.086-2.394Z" fill="#c6d4f4"/><path id="uuid-437bc4b0-0f65-4627-84b5-086faab29f4e" d="m461.41,163.923l-2.083,2.4,2.083,2.394,2.086-2.394-2.086-2.4Z" fill="#c6d4f4"/><path id="uuid-18e25cf1-448e-4d46-b5b0-1fab6c365e12" d="m461.41,150.547l-2.083,2.4,2.083,2.394,2.086-2.394-2.086-2.4Z" fill="#c6d4f4"/><path id="uuid-f6d72456-5b72-4112-9838-720a1a6b3bd7" d="m473.047,244.178l-2.083,2.4,2.083,2.4,2.083-2.4-2.083-2.4Z" fill="#c6d4f4"/><path id="uuid-f5809090-031c-49a5-a8bb-25c95daf0390" d="m473.047,230.803l-2.083,2.394,2.083,2.4,2.083-2.4-2.083-2.394Z" fill="#c6d4f4"/><path id="uuid-1fcb8d79-529e-4764-ad04-d9bab211f123" d="m473.047,217.431l-2.083,2.394,2.083,2.4,2.083-2.4-2.083-2.394Z" fill="#c6d4f4"/><path id="uuid-8fb69e03-69fc-4d95-874e-adbcdb3eb576" d="m473.047,204.051l-2.083,2.394,2.083,2.4,2.083-2.4-2.083-2.394Z" fill="#c6d4f4"/><path id="uuid-eea6f4ed-f790-40c9-a677-6a85965f0301" d="m473.047,190.675l-2.083,2.394,2.083,2.4,2.083-2.4-2.083-2.394Z" fill="#c6d4f4"/><path id="uuid-8079d8c1-a942-46ee-afa1-e179e6bcf3e2" d="m473.047,177.299l-2.083,2.394,2.083,2.395,2.083-2.395-2.083-2.394Z" fill="#c6d4f4"/><path id="uuid-695acb7c-c206-4e54-9e9d-859c25f78f64" d="m473.047,163.923l-2.083,2.4,2.083,2.394,2.083-2.394-2.083-2.4Z" fill="#c6d4f4"/><path id="uuid-65384934-dba6-4900-8afa-dce796a397c7" d="m473.047,150.547l-2.083,2.4,2.083,2.394,2.083-2.394-2.083-2.4Z" fill="#c6d4f4"/><path id="uuid-3db42e56-1a19-4b23-b2ec-a5bd6def9e3b" d="m484.689,244.178l-2.083,2.4,2.083,2.4,2.083-2.4-2.083-2.4Z" fill="#c6d4f4"/><path id="uuid-ad587353-5ad4-4ef5-9d90-e86af337a3d6" d="m484.689,230.803l-2.083,2.394,2.083,2.4,2.083-2.4-2.083-2.394Z" fill="#c6d4f4"/><path id="uuid-19f125c9-72fe-45b8-89cd-5b9a105d8b58" d="m484.689,217.431l-2.083,2.394,2.083,2.4,2.083-2.4-2.083-2.394Z" fill="#c6d4f4"/><path id="uuid-68eceb77-e174-4d58-98a0-23490932b409" d="m484.689,204.051l-2.083,2.394,2.083,2.4,2.083-2.4-2.083-2.394Z" fill="#c6d4f4"/><path id="uuid-b5e3aa3c-4f09-4e5b-9259-98653072c59e" d="m484.689,190.675l-2.083,2.394,2.083,2.4,2.083-2.4-2.083-2.394Z" fill="#c6d4f4"/><path id="uuid-2bb11093-6a51-4c3a-990b-007cebe7171b" d="m484.689,177.299l-2.083,2.394,2.083,2.395,2.083-2.395-2.083-2.394Z" fill="#c6d4f4"/><path id="uuid-c1cf42a4-d412-49b8-88bf-cfaec0426dbb" d="m484.689,163.923l-2.083,2.4,2.083,2.394,2.083-2.394-2.083-2.4Z" fill="#c6d4f4"/><path id="uuid-43b57bd8-9a76-4ee3-87da-377712ea32c2" d="m484.689,150.547l-2.083,2.4,2.083,2.394,2.083-2.394-2.083-2.4Z" fill="#c6d4f4"/><path id="uuid-decea617-a9c5-4781-84a0-709aaade73ad" d="m496.324,244.178l-2.085,2.4,2.085,2.4,2.083-2.4-2.083-2.4Z" fill="#c6d4f4"/><path id="uuid-107f8e85-a111-4ec2-99f0-0594694ea3b7" d="m496.33,230.803l-2.086,2.394,2.086,2.4,2.083-2.4-2.083-2.394Z" fill="#c6d4f4"/><path id="uuid-9511fc5d-f744-470a-ad16-79bc11c69dfc" d="m496.33,217.431l-2.086,2.394,2.086,2.4,2.083-2.4-2.083-2.394Z" fill="#c6d4f4"/><path id="uuid-c622c442-62b0-4b75-bbb5-77d2191cb616" d="m496.33,204.051l-2.086,2.394,2.086,2.4,2.083-2.4-2.083-2.394Z" fill="#c6d4f4"/><path id="uuid-7c2492a8-5f5c-4c04-b840-c61e780b13f9" d="m496.33,190.675l-2.086,2.394,2.086,2.4,2.083-2.4-2.083-2.394Z" fill="#c6d4f4"/><path id="uuid-bcaf372a-0bed-4f98-b28b-ea43a3586c1f" d="m496.33,177.299l-2.086,2.394,2.086,2.395,2.083-2.395-2.083-2.394Z" fill="#c6d4f4"/><path id="uuid-9297475a-a8e1-41db-8ee9-90439bad115a" d="m496.33,163.923l-2.086,2.4,2.086,2.394,2.083-2.394-2.083-2.4Z" fill="#c6d4f4"/><path id="uuid-6eef2d64-ec9d-4a44-9f60-cdb1f6fe6b68" d="m496.33,150.547l-2.086,2.4,2.086,2.394,2.083-2.394-2.083-2.4Z" fill="#c6d4f4"/><path id="uuid-f3fe3ab4-80b4-408b-80f1-74bf2f1db1a7" d="m507.968,244.178l-2.083,2.4,2.083,2.4,2.083-2.4-2.083-2.4Z" fill="#c6d4f4"/><path id="uuid-54a3c68d-5386-4a2e-a837-113942a2c520" d="m507.968,230.803l-2.083,2.394,2.083,2.4,2.083-2.4-2.083-2.394Z" fill="#c6d4f4"/><path id="uuid-62977158-6c73-4360-805a-6979659a6045" d="m507.968,217.431l-2.083,2.394,2.083,2.4,2.083-2.4-2.083-2.394Z" fill="#c6d4f4"/><path id="uuid-57c51832-0016-4afa-ac8b-5a020aefcc1c" d="m507.968,204.051l-2.083,2.394,2.083,2.4,2.083-2.4-2.083-2.394Z" fill="#c6d4f4"/><path id="uuid-a8e38c19-fba1-44ac-a30d-f2bfdee8cea3" d="m507.968,190.675l-2.083,2.394,2.083,2.4,2.083-2.4-2.083-2.394Z" fill="#c6d4f4"/><path id="uuid-d2434a14-b6c0-4079-b1d2-0e7aee2c854c" d="m507.968,177.299l-2.083,2.394,2.083,2.395,2.083-2.395-2.083-2.394Z" fill="#c6d4f4"/><path id="uuid-cca5d048-bc07-4ab5-be78-470e097bb96f" d="m507.968,163.923l-2.083,2.4,2.083,2.394,2.083-2.394-2.083-2.4Z" fill="#c6d4f4"/><path id="uuid-ac438b7f-0c42-4390-bf5b-e4b8a4ebbc03" d="m507.968,150.547l-2.083,2.4,2.083,2.394,2.083-2.394-2.083-2.4Z" fill="#c6d4f4"/><path id="uuid-f91f33a0-207b-44af-be9c-3e464ca0ab48" d="m521.691,246.573l-2.085-2.4-2.083,2.4,2.083,2.4,2.085-2.4Z" fill="#c6d4f4"/><path id="uuid-e4d38f90-cca7-4110-bd19-0c2af1242b57" d="m519.607,230.803l-2.083,2.394,2.083,2.4,2.086-2.4-2.086-2.394Z" fill="#c6d4f4"/><path id="uuid-3a4ec6df-2fac-42c9-9816-11c5071499b8" d="m519.607,217.431l-2.083,2.39,2.083,2.4,2.086-2.4-2.086-2.39Z" fill="#c6d4f4"/><path id="uuid-eb15626d-78b4-4211-83fc-d6aa1cc7d11f" d="m519.607,204.051l-2.083,2.394,2.083,2.4,2.086-2.4-2.086-2.394Z" fill="#c6d4f4"/><path id="uuid-b6457d3b-cb9b-4780-8b2a-e3abe599abd1" d="m519.607,190.675l-2.083,2.394,2.083,2.4,2.086-2.4-2.086-2.394Z" fill="#c6d4f4"/><path id="uuid-ff51c325-d127-4013-845d-e83bfefc7202" d="m519.607,177.299l-2.083,2.394,2.083,2.395,2.086-2.395-2.086-2.394Z" fill="#c6d4f4"/><path id="uuid-8fa154f2-0b9b-4aa4-ab55-66056e9dc790" d="m519.607,163.923l-2.083,2.4,2.083,2.394,2.086-2.394-2.086-2.4Z" fill="#c6d4f4"/><path id="uuid-4140447f-ae4f-43a9-9965-7aae363f753f" d="m519.607,150.547l-2.083,2.4,2.083,2.394,2.086-2.394-2.086-2.4Z" fill="#c6d4f4"/><path id="uuid-408a10b6-f8d9-40ab-9756-c22ccc82a2f7" d="m531.247,244.178l-2.083,2.4,2.083,2.4,2.083-2.4-2.083-2.4Z" fill="#c6d4f4"/><path id="uuid-13759806-1912-438d-a6e0-71bba646ec32" d="m531.247,230.803l-2.083,2.394,2.083,2.4,2.083-2.4-2.083-2.394Z" fill="#c6d4f4"/><path id="uuid-a10b0279-0bbe-42bf-854e-969f1a591f00" d="m531.247,217.431l-2.083,2.394,2.083,2.4,2.083-2.4-2.083-2.394Z" fill="#c6d4f4"/><path id="uuid-967dc3de-39a0-4bae-bee1-80edb82b20b2" d="m531.247,204.051l-2.083,2.394,2.083,2.4,2.083-2.4-2.083-2.394Z" fill="#c6d4f4"/><path id="uuid-cc70f7c4-8c6c-4c5b-a035-64a8c03d438a" d="m531.247,190.675l-2.083,2.394,2.083,2.4,2.083-2.4-2.083-2.394Z" fill="#c6d4f4"/><path id="uuid-1c0d8cd6-8402-446d-86f9-22e6cb326a91" d="m531.247,177.299l-2.083,2.394,2.083,2.395,2.083-2.395-2.083-2.394Z" fill="#c6d4f4"/><path id="uuid-860034c9-e1e3-4750-859c-d2c0d91463ad" d="m531.247,163.923l-2.083,2.4,2.083,2.394,2.083-2.394-2.083-2.4Z" fill="#c6d4f4"/><path id="uuid-50ebe15b-3dd9-491b-a98e-7fe26c5fad36" d="m531.247,150.547l-2.083,2.4,2.083,2.394,2.083-2.394-2.083-2.4Z" fill="#c6d4f4"/><path id="uuid-867f717b-2053-4907-883e-ca6be299d730" d="m542.886,244.178l-2.083,2.4,2.083,2.4,2.083-2.4-2.083-2.4Z" fill="#c6d4f4"/><path id="uuid-0a7c9ea6-5487-4058-a0f5-0e6c6a473856" d="m542.886,230.803l-2.083,2.394,2.083,2.4,2.083-2.4-2.083-2.394Z" fill="#c6d4f4"/><path id="uuid-cb887eda-c26d-4034-8155-af7705ffde01" d="m542.886,217.431l-2.083,2.394,2.083,2.4,2.083-2.4-2.083-2.394Z" fill="#c6d4f4"/><path id="uuid-d737fd9e-20a4-42a6-bc16-490d09aebd02" d="m542.886,204.051l-2.083,2.394,2.083,2.4,2.083-2.4-2.083-2.394Z" fill="#c6d4f4"/><path id="uuid-d2dd5727-21bb-4527-871e-d2dbcf650d74" d="m542.886,190.675l-2.083,2.394,2.083,2.4,2.083-2.4-2.083-2.394Z" fill="#c6d4f4"/><path id="uuid-dea9b634-72ed-4359-9236-d390bfcc12d5" d="m542.886,177.299l-2.083,2.394,2.083,2.395,2.083-2.395-2.083-2.394Z" fill="#c6d4f4"/><path id="uuid-e8c51aaf-62a5-4edd-af92-04b657a098a3" d="m542.886,163.923l-2.083,2.4,2.083,2.394,2.083-2.394-2.083-2.4Z" fill="#c6d4f4"/><path id="uuid-9c108af6-ae7f-483c-a0ac-9249f94a9b66" d="m542.886,150.547l-2.083,2.4,2.083,2.394,2.083-2.394-2.083-2.4Z" fill="#c6d4f4"/><path id="uuid-e54b6921-ac7f-4582-9d54-b898ab70742a" d="m552.442,246.573l2.085,2.4,2.083-2.4-2.083-2.4-2.085,2.4Z" fill="#c6d4f4"/><path id="uuid-fc377d16-bb4e-4e83-8830-985be8ee6dcc" d="m554.524,235.592l2.083-2.4-2.083-2.389-2.086,2.394,2.086,2.395Z" fill="#c6d4f4"/><path id="uuid-c71336c1-05a4-4fb3-a590-647f3f37bc54" d="m554.524,222.216l2.083-2.4-2.083-2.385-2.086,2.394,2.086,2.391Z" fill="#c6d4f4"/><path id="uuid-b06ada24-8eae-4693-a8d2-20bbaad6aeee" d="m554.524,208.84l2.083-2.4-2.083-2.394-2.086,2.394,2.086,2.4Z" fill="#c6d4f4"/><path id="uuid-77949e02-85df-4b68-8d7f-9aeb9323c459" d="m554.524,195.464l2.083-2.4-2.083-2.394-2.086,2.394,2.086,2.4Z" fill="#c6d4f4"/><path id="uuid-a7e5de34-9e25-4a99-86af-4be95ed17bd2" d="m554.524,182.088l2.083-2.395-2.083-2.394-2.086,2.394,2.086,2.395Z" fill="#c6d4f4"/><path id="uuid-debb4269-a622-4ae9-95f9-b4ae1a51d8a4" d="m554.524,168.712l2.083-2.394-2.083-2.395-2.086,2.395,2.086,2.394Z" fill="#c6d4f4"/><path id="uuid-e9f73240-8e7a-44a1-b27d-f9633645bf75" d="m554.524,155.336l2.083-2.394-2.083-2.4-2.086,2.4,2.086,2.394Z" fill="#c6d4f4"/><path id="uuid-46741977-7999-4cfe-9e78-86c85bb5ff93" d="m566.162,230.803l-2.083,2.394,2.083,2.4,2.083-2.4-2.083-2.394Z" fill="#c6d4f4"/><path id="uuid-4b44b4d0-d60d-43f0-9916-eca66f9e57d2" d="m566.162,217.431l-2.083,2.394,2.083,2.4,2.083-2.4-2.083-2.394Z" fill="#c6d4f4"/><path id="uuid-40795067-475a-404a-9b89-14a962b90ec7" d="m566.162,204.051l-2.083,2.394,2.083,2.4,2.083-2.4-2.083-2.394Z" fill="#c6d4f4"/><path id="uuid-bdcc998e-0bb4-4753-b2d2-0a86e7759ddd" d="m566.162,190.675l-2.083,2.394,2.083,2.4,2.083-2.4-2.083-2.394Z" fill="#c6d4f4"/><path id="uuid-14e8afbd-e727-4aba-ba45-246fdbaa9170" d="m566.162,177.299l-2.083,2.394,2.083,2.395,2.083-2.395-2.083-2.394Z" fill="#c6d4f4"/><path id="uuid-0023c6c4-cc8a-44fe-885a-f8785761d9c3" d="m566.162,163.923l-2.083,2.4,2.083,2.394,2.083-2.394-2.083-2.4Z" fill="#c6d4f4"/><path id="uuid-dfedf367-b540-4873-aa3a-5097c1b2231e" d="m566.162,150.547l-2.083,2.4,2.083,2.394,2.083-2.394-2.083-2.4Z" fill="#c6d4f4"/><path id="uuid-02ab024f-5b34-4957-878a-0b0f81f9c8cf" d="m577.804,217.431l-2.08,2.39,2.083,2.4,2.086-2.4-2.089-2.39Z" fill="#c6d4f4"/><path id="uuid-46f0e6c2-0710-4954-98c0-d4cab82f0f3f" d="m577.804,204.051l-2.083,2.394,2.083,2.4,2.086-2.4-2.086-2.394Z" fill="#c6d4f4"/><path id="uuid-12bf0671-a71a-4114-a7bf-5e1855432cd0" d="m577.804,190.675l-2.083,2.394,2.083,2.4,2.086-2.4-2.086-2.394Z" fill="#c6d4f4"/><path id="uuid-4d72a675-38da-49e9-8f57-4757aebe0734" d="m577.804,177.299l-2.083,2.394,2.083,2.395,2.086-2.395-2.086-2.394Z" fill="#c6d4f4"/><path id="uuid-6cc836ae-d848-4cfe-a3d0-f88c7afea505" d="m577.804,163.923l-2.083,2.4,2.083,2.394,2.086-2.394-2.086-2.4Z" fill="#c6d4f4"/><path id="uuid-c9e5b759-2399-423e-8489-ad267015014d" d="m577.804,150.547l-2.083,2.4,2.083,2.394,2.086-2.394-2.086-2.4Z" fill="#c6d4f4"/><path id="uuid-8475cf4e-b5fd-4695-a9ae-c78a26e4d4f7" d="m589.611,190.675l-2.087,2.394,2.083,2.4,2.083-2.4-2.079-2.394Z" fill="#c6d4f4"/><path id="uuid-75160fd3-abec-4b91-8001-aa8c5be13552" d="m589.611,177.299l-2.087,2.394,2.083,2.395,2.083-2.395-2.079-2.394Z" fill="#c6d4f4"/><path id="uuid-4be89414-71be-4c76-8198-96fbd892e313" d="m589.611,163.923l-2.083,2.4,2.083,2.394,2.083-2.394-2.083-2.4Z" fill="#c6d4f4"/><path id="uuid-97819b53-c0bd-4740-927f-21d714d398e6" d="m589.611,150.547l-2.083,2.4,2.083,2.394,2.083-2.394-2.083-2.4Z" fill="#c6d4f4"/><path id="uuid-32aa4900-4935-42f9-ba28-3fd800eb643f" d="m414.937,262.063l2.083-2.394-2.083-2.4-2.083,2.4,2.083,2.394Z" fill="#c6d4f4"/><path id="uuid-9b81f2c2-5e97-434b-b0f9-cff2c46107fb" d="m426.576,262.063l2.086-2.394-2.086-2.4-2.083,2.4,2.083,2.394Z" fill="#c6d4f4"/><path id="uuid-2d311b9e-78ac-40c9-848f-ec64883cb886" d="m368.378,217.431l-2.083,2.394,2.083,2.4,2.086-2.4-2.086-2.394Z" fill="#c6d4f4"/><path id="uuid-7e8e5021-73c4-415b-8ba3-51d1189f7525" d="m368.378,204.051l-2.083,2.394,2.083,2.4,2.086-2.4-2.086-2.394Z" fill="#c6d4f4"/><path id="uuid-5b22e1b3-bc8f-4c25-b0cc-e7e48e725630" d="m380.018,230.803l-2.083,2.394,2.083,2.4,2.083-2.4-2.083-2.394Z" fill="#c6d4f4"/><path id="uuid-05186ab0-2f18-4a1f-8684-13060f566bf0" d="m380.018,217.431l-2.083,2.394,2.083,2.4,2.083-2.4-2.083-2.394Z" fill="#c6d4f4"/><path id="uuid-8714b3cb-4688-4b05-af98-ad9682231e3c" d="m380.018,204.051l-2.083,2.394,2.083,2.4,2.083-2.4-2.083-2.394Z" fill="#c6d4f4"/><path id="uuid-7fe62be8-69c9-4e05-a2ad-d0537473a4f4" d="m391.657,244.178l-2.083,2.4,2.083,2.4,2.083-2.4-2.083-2.4Z" fill="#c6d4f4"/><path id="uuid-b944d1f4-d4fd-470e-a04b-aa1957a0f72b" d="m391.657,230.803l-2.083,2.394,2.083,2.4,2.083-2.4-2.083-2.394Z" fill="#c6d4f4"/><path id="uuid-21bd9a4f-8926-48ff-8d1b-f8ae828dbc03" d="m391.657,217.431l-2.083,2.394,2.083,2.4,2.083-2.4-2.083-2.394Z" fill="#c6d4f4"/><path id="uuid-f38c71e8-b654-422b-b908-4dd9279d65fd" d="m391.657,204.051l-2.083,2.394,2.083,2.4,2.083-2.4-2.083-2.394Z" fill="#c6d4f4"/><path id="uuid-8fde79b1-e698-4855-bd7f-b2057ece6409" d="m403.298,244.178l-2.085,2.4,2.085,2.4,2.083-2.4-2.083-2.4Z" fill="#c6d4f4"/><path id="uuid-94aa7613-cacb-4bac-b3b9-d48d3fbc18af" d="m403.297,230.803l-2.087,2.394,2.087,2.4,2.083-2.4-2.083-2.394Z" fill="#c6d4f4"/><path id="uuid-119b7c3e-bf03-4a7b-a6be-08e233de9071" d="m403.297,217.431l-2.087,2.394,2.087,2.4,2.083-2.4-2.083-2.394Z" fill="#c6d4f4"/><path id="uuid-c3e99311-fedb-467a-8f57-b38e5588a73b" d="m403.297,204.051l-2.087,2.394,2.087,2.4,2.083-2.4-2.083-2.394Z" fill="#c6d4f4"/><path id="uuid-9fbb0d8e-5d85-47cc-b8ad-71bde9a846e7" d="m414.937,248.968l2.083-2.4-2.083-2.4-2.083,2.4,2.083,2.4Z" fill="#c6d4f4"/><path id="uuid-121b9281-d9d4-45d0-af19-4a5d3f1b5608" d="m414.937,235.592l2.083-2.4-2.083-2.394-2.083,2.394,2.083,2.4Z" fill="#c6d4f4"/><path id="uuid-748d6d79-728f-472f-a200-be0522406e6e" d="m414.937,222.216l2.083-2.4-2.083-2.394-2.083,2.394,2.083,2.4Z" fill="#c6d4f4"/><path id="uuid-adf7cca7-d34c-42c6-811c-c0099f5262d7" d="m414.937,208.84l2.083-2.4-2.083-2.394-2.083,2.394,2.083,2.4Z" fill="#c6d4f4"/><path id="uuid-d09ff998-0c4e-4622-bbcb-82db4cef843c" d="m426.576,248.968l2.085-2.4-2.085-2.4-2.083,2.4,2.083,2.4Z" fill="#c6d4f4"/><path id="uuid-603c69ce-7b59-4075-bf90-f621fa95200e" d="m426.576,235.592l2.086-2.4-2.086-2.394-2.083,2.394,2.083,2.4Z" fill="#c6d4f4"/><path id="uuid-20449f79-2907-4b1d-944b-18c14b6b816b" d="m426.576,222.216l2.086-2.4-2.086-2.394-2.083,2.394,2.083,2.4Z" fill="#c6d4f4"/><path id="uuid-e38c31ca-3bf9-4fe5-914a-e409029f39ef" d="m426.576,208.84l2.086-2.4-2.086-2.394-2.083,2.394,2.083,2.4Z" fill="#c6d4f4"/></g><path id="uuid-a64fa94e-3a63-4ae1-a95a-193b3ab6a993" d="m267.639,0c69.036,0,125,55.964,125,125s-55.964,125-125,125-125-55.964-125-125S198.603,0,267.639,0" fill="#cef2cf"/><path id="uuid-96838323-2ee3-44df-b501-b41c72db7837" d="m288.961,227.624H36.331V77.31l14.764-14.76h223.1l14.764,14.764v150.314" fill="#fff"/><path id="uuid-60c633bf-3791-45d3-8064-daa51894d88f" d="m323.599,267.196H1.355l34.976-40.11h252.29l34.977,40.11Z" fill="#fff"/><path id="uuid-09003d9b-4097-43e8-86d4-7470abb84b0c" d="m312.055,279H12.854l-11.542-11.8h322.282l-11.54,11.8Z" fill="#fff"/><path id="uuid-08474592-5f2c-4c20-a65c-060dfd8f1185" d="m133.674,271.286l-4.142-4.089h64.442l-4.142,4.089h-28.125" fill="#333230"/><path d="m324.588,267.129c0-.012.001-.024,0-.036-.021-.201-.097-.395-.236-.554l-34.394-39.441V77.314c0-.265-.105-.52-.293-.707l-14.765-14.764c-.188-.188-.441-.293-.707-.293H51.095c-.266,0-.52.105-.707.293l-14.765,14.76c-.188.188-.293.442-.293.707v149.402L.723,266.399c-.142.105-.261.243-.333.413-.156.371-.074.799.207,1.087l11.542,11.8c.188.192.446.301.715.301h299.2c.27,0,.526-.108.715-.301l11.54-11.8c.007-.008.011-.017.018-.025.04-.043.071-.092.103-.142.02-.031.043-.059.059-.092.005-.011.014-.019.019-.03.023-.052.032-.106.046-.16.007-.026.018-.051.023-.078.015-.081.016-.162.011-.244Zm-233.464-.933l11.039-17.529h123.391l8.456,17.529H91.125ZM51.509,63.55h222.271l14.179,14.178v148.358H37.33V77.724l14.179-14.174Zm-15.19,165.071s.007.002.011.002h252.305l32.764,37.572h-85.169l-9.148-18.964c-.166-.346-.517-.565-.9-.565h-124.57c-.344,0-.663.177-.846.467l-12.005,19.062H3.555l32.764-37.575Zm275.315,49.378H13.275l-9.586-9.8h317.528l-9.584,9.8Z" fill="#333230"/><path d="m282.276,247.026l-10.473-13.536c-.189-.244-.481-.388-.791-.388H53.912c-.31,0-.602.144-.791.388l-10.48,13.536c-.233.302-.274.71-.106,1.053s.516.56.897.56h238.054c.382,0,.729-.217.897-.56s.127-.751-.106-1.053Z" fill="#232639"/><rect id="uuid-39f8216e-0acb-4e92-819f-5f6ce7aa8efa" x="51.35" y="76.431" width="224.029" height="137.622" fill="#c6d4f4"/><path id="uuid-cd07ff8c-8ad7-4919-aa20-16ba19bf6c1a" d="m64.552,99.885c-.383.545-1.016.858-1.682.831-.829.063-1.552-.557-1.615-1.386-.007-.095-.005-.19.005-.285-.134-1.417.892-2.681,2.307-2.84.473-.05.925.204,1.128.634l.1-.574h1.579l-.42,2.42c-.072.432-.021.708.338.708.646,0,.923-.964.923-1.907,0-1.5-1.046-2.451-2.769-2.451-2.217-.02-4.031,1.761-4.051,3.978,0,.035,0,.069,0,.104-.103,1.321.885,2.476,2.206,2.579.147.011.294.009.441-.006.636.007,1.267-.114,1.855-.358l.329,1.271c-.734.307-1.523.461-2.318.451-2.008.189-3.788-1.286-3.976-3.293-.016-.167-.02-.334-.013-.502-.045-3.026,2.371-5.515,5.396-5.56.105-.002.21,0,.316.004,2.481,0,4.081,1.517,4.081,3.721,0,1.764-.943,3.271-2.707,3.271-.609.072-1.196-.254-1.456-.81m-.718-2.276c-.533.057-.922.532-.871,1.066-.041.302.17.579.472.62.03.004.061.006.091.005.527-.047.921-.505.889-1.033.043-.317-.18-.608-.497-.651-.026-.003-.051-.005-.077-.005"/><path id="uuid-9f1b4a7a-dc5e-4c45-be87-f8d94cab62ff" d="m70.041,93.416h2.43l1.815,4.7,1.775-4.7h2.419v7.229h-2.009v-3.989l-1.365,3.989h-1.681l-1.374-4.02v4.02h-2.01v-7.229Z"/><path id="uuid-de4322f1-b888-4a74-aacb-ba978f219aa8" d="m81.744,94.82c.681-.043,1.331.292,1.692.871v-.8h2.01v5.752h-2.01v-.8c-.363.578-1.011.912-1.692.872-1.364,0-2.451-1.119-2.451-2.954s1.087-2.943,2.451-2.943m.646,1.754c-.583,0-1.056.474-1.055,1.057,0,.046.003.092.009.138.074.578.603.986,1.18.912s.986-.603.912-1.18c-.067-.527-.516-.921-1.047-.921"/><path id="uuid-6e08cae9-dd31-42fc-94c6-edc9b43e06f1" d="m86.425,93.334c.076-.648.663-1.113,1.311-1.037.544.064.973.493,1.037,1.037-.089.648-.687,1.102-1.335,1.013-.527-.072-.941-.486-1.013-1.013m.164,1.559h2.01v5.752h-2.01v-5.752Z"/><rect id="uuid-ab4e7de5-6670-4707-925b-db68eb214d87" x="89.746" y="93.057" width="2.01" height="7.588"/><rect id="uuid-18f471c4-759b-48a6-afb0-9962f3c345f9" x="59.688" y="110.933" width="32.069" height="2.838" fill="#232639"/><rect id="uuid-11a448e8-1d27-4b86-ac8a-02dc565936be" x="59.688" y="118.557" width="32.069" height="2.838" fill="#232639"/><rect id="uuid-b03a6544-a9e9-4adc-bd5e-0bcf3123cd07" x="59.688" y="126.18" width="32.069" height="2.838" fill="#232639"/><rect id="uuid-a061f380-652d-41f3-b558-af2d4f00422d" x="59.688" y="133.804" width="32.069" height="2.838" fill="#232639"/><rect id="uuid-78140074-f200-4a95-8f9f-bac6ea198ae0" x="59.688" y="141.427" width="32.069" height="2.838" fill="#232639"/><rect id="uuid-c4aa30e3-ee4d-40c4-8c10-52b0ef703218" x="59.688" y="149.051" width="32.069" height="2.838" fill="#232639"/><path d="m275.38,75.431H51.351c-.553,0-1,.448-1,1v137.622c0,.553.447,1,1,1h224.029c.553,0,1-.447,1-1V76.431c0-.552-.447-1-1-1Zm-1,137.622H52.351V80.29h222.029v132.763Z" fill="#333230"/><rect id="uuid-c464a861-3d70-41da-baf5-070c1101e2b6" x="100.576" y="102.436" width="163.109" height="98.999" fill="#fff"/><rect id="uuid-fd48c66c-6613-4a1c-a1c0-6b2a74149e96" x="108.563" y="112.99" width="11.135" height="11.135" fill="#c6d4f4"/><path d="m254.428,119.558h-122.837c-.553,0-1-.447-1-1s.447-1,1-1h122.837c.553,0,1,.447,1,1s-.447,1-1,1Z" fill="#232639"/><rect id="uuid-def765fa-352c-4279-87ea-5e5d11b169f9" x="108.563" y="129.655" width="11.135" height="11.135" fill="#c6d4f4"/><path d="m254.428,136.223h-122.837c-.553,0-1-.447-1-1s.447-1,1-1h122.837c.553,0,1,.447,1,1s-.447,1-1,1Z" fill="#232639"/><rect id="uuid-52f41f41-4ad2-44bd-bfe8-ec745299a3a5" x="108.563" y="146.321" width="11.135" height="11.135" fill="#c6d4f4"/><path d="m254.428,152.889h-122.837c-.553,0-1-.447-1-1s.447-1,1-1h122.837c.553,0,1,.447,1,1s-.447,1-1,1Z" fill="#232639"/><rect id="uuid-f6040e2c-9fb4-49e7-8833-f8c2a459a559" x="108.563" y="162.987" width="11.135" height="11.135" fill="#c6d4f4"/><path d="m254.428,169.555h-122.837c-.553,0-1-.447-1-1s.447-1,1-1h122.837c.553,0,1,.447,1,1s-.447,1-1,1Z" fill="#232639"/><rect id="uuid-f6059834-e966-4b54-a955-688676f0f8ae" x="108.563" y="179.653" width="11.135" height="11.135" fill="#c6d4f4"/><path d="m254.428,186.221h-122.837c-.553,0-1-.447-1-1s.447-1,1-1h122.837c.553,0,1,.447,1,1s-.447,1-1,1Z" fill="#232639"/><rect id="uuid-6b327a82-1848-4e65-9aec-f39be6a09143" x="100.576" y="91.887" width="36.992" height="10.551" fill="#fff"/><rect id="uuid-5e407509-fd91-49f1-85da-696c1d8b4d00" x="105.529" y="95.744" width="18.056" height="2.838" fill="#232639"/><rect id="uuid-53ac70da-f7e3-4f7c-96e1-07d845113f1d" x="137.568" y="91.887" width="36.992" height="10.551" fill="#fff"/><rect id="uuid-b18f2747-0b74-4ebe-9fe6-dfc12f292e5b" x="142.521" y="95.744" width="18.056" height="2.838" fill="#232639"/><rect id="uuid-7e63ff81-29f3-4086-aeaf-b037366403dc" x="174.561" y="91.887" width="36.992" height="10.551" fill="#fff"/><path d="m263.686,101.436h-51.133v-9.549c0-.552-.447-1-1-1h-110.977c-.553,0-1,.448-1,1v109.548c0,.553.447,1,1,1h163.109c.553,0,1-.447,1-1v-99c0-.552-.447-1-1-1Zm-53.133,0h-34.992v-8.549h34.992v8.549Zm-36.992,0h-34.992v-8.549h34.992v8.549Zm-36.992-8.549v8.549h-34.992v-8.549h34.992Zm126.117,107.548H101.576v-96.998h109.977s.006-.002.01-.002h51.123v97Z" fill="#232639"/><rect id="uuid-bd6689f1-1a67-40d8-8c16-85f98a746b75" x="179.514" y="95.744" width="18.056" height="2.838" fill="#232639"/><path d="m509.94,133.256h-41.269c-.553,0-1-.447-1-1s.447-1,1-1h41.269c.553,0,1,.447,1,1s-.447,1-1,1Z" fill="#333230"/><path d="m532.339,149.665h-41.27c-.553,0-1-.447-1-1s.447-1,1-1h41.27c.553,0,1,.447,1,1s-.447,1-1,1Z" fill="#333230"/><path d="m501.715,170.282h-27.791c-.553,0-1-.447-1-1s.447-1,1-1h27.791c.553,0,1,.447,1,1s-.447,1-1,1Z" fill="#333230"/><path id="uuid-2fd71995-7c9f-4c52-bd71-162fcad91d39" d="m425.112,104.898h33.8v91.725l-130.359.017v-91.742h96.559Z" fill="#fff"/><path d="m459.912,196.623v-91.725c0-.074-.027-.139-.042-.208-.011-.053-.012-.107-.032-.158-.039-.099-.1-.183-.167-.263-.016-.02-.022-.044-.04-.063-.001-.001-.003-.002-.005-.003-.087-.09-.191-.161-.307-.213-.005-.003-.01-.008-.015-.01-.034-.014-.073-.013-.109-.024-.091-.027-.181-.055-.275-.056-.003,0-.006-.002-.009-.002h-130.358c-.008,0-.014.004-.021.004-.043,0-.084.019-.127.026-.087.013-.175.022-.253.056-.009.004-.017.013-.026.017-.109.052-.209.12-.292.206-.002.002-.005.003-.008.006-.024.026-.033.059-.054.086-.056.073-.111.145-.145.232-.03.076-.037.155-.047.235-.006.045-.026.084-.026.131v.027s0,.003,0,.005v91.692c-.001.133.023.266.074.391.05.124.123.238.219.334.188.188.442.293.707.293l130.358-.017c.066,0,.123-.025.185-.037.065-.012.131-.014.192-.039.249-.102.446-.299.547-.547.01-.024.007-.049.015-.074.031-.097.061-.195.061-.303Zm-48.35-47.694c-.071.042-.147.077-.208.138-.05.05-.075.112-.112.169l-17.112,16.414-63.071-59.752h125.364l-44.86,43.031Zm-37.333.621l-44.676,44.666v-86.99l44.676,42.324Zm1.452,1.376l17.766,16.831c.064.061.14.096.214.136.034.019.062.048.098.062.121.049.248.076.376.076.028,0,.055-.014.083-.017.099-.008.197-.021.291-.059.047-.019.086-.057.13-.083.064-.038.132-.067.188-.121l17.251-16.547,44.418,44.418-125.539.016,44.723-44.713Zm37.84-1.105l44.39-42.58v86.969l-44.39-44.389Z" fill="#232639"/></svg>
