<svg id="uuid-4236a30b-dcff-410d-a39f-66634ce5476b" xmlns="http://www.w3.org/2000/svg" xmlns:xlink="http://www.w3.org/1999/xlink" viewBox="0 0 480 230"><defs><linearGradient id="uuid-c13f9554-ec0d-4448-855c-dd343ac285bf" x1="-1255.221" y1="1107.817" x2="-1255.221" y2="1108.814" gradientTransform="translate(69612.189 33491.405) scale(55.228 -30.185)" gradientUnits="userSpaceOnUse"><stop offset="0" stop-color="#fff"/><stop offset=".236" stop-color="#f7f9fd"/><stop offset=".588" stop-color="#e3eaf9"/><stop offset=".965" stop-color="#c6d4f4"/></linearGradient></defs><g id="uuid-fcb3ab2f-e817-478c-8018-d8321c03b907"><g id="uuid-843e75a0-de5d-4e24-b42c-0c1a0a99ccb3"><circle id="uuid-7c33d7c7-aefd-4bd7-9c88-a11229e87ef0" cx="93.904" cy="118.325" r="94.404" fill="#eafaeb"/><g id="uuid-0c264993-257a-4f56-bcfb-89bb1698e187"><g id="uuid-fdc05993-22a2-42c7-a402-fe339a53b887"><path id="uuid-c8faf047-43d3-4068-8da7-0c8280b0cafa" d="M134.957,172.913l-45.667-44.561s-12.585-39.998-14.02-45.602" fill="none" stroke="#c6d4f4" stroke-linecap="round" stroke-linejoin="round" stroke-width="2.47"/><path id="uuid-20075f43-507e-4a28-b880-84336e49967a" d="M53.632,63.751l14.635,3.092c.201,.042,.371,.174,.461,.358l7.395,15.47c.139,.321-.009,.693-.329,.831-.184,.08-.395,.067-.568-.033l-11.209-6.125c-.069-.038-.13-.087-.181-.147l-10.82-12.434c-.224-.263-.192-.657,.071-.88,.151-.128,.354-.178,.547-.132Z" fill="#c6d4f4"/><path id="uuid-6a5d0dab-4bd9-4d83-b81b-4ae4e5b4ab0a" d="M80.973,101.354l-10.373-9.824c-.096-.091-.217-.15-.348-.171l-15.76-2.437c-.329-.063-.646,.153-.708,.481-.034,.178,.014,.362,.13,.501l12.582,15.087c.154,.183,.397,.267,.631,.218l13.548-2.827c.325-.059,.542-.37,.483-.695-.023-.129-.088-.247-.185-.335Z" fill="#c6d4f4"/><path id="uuid-48370f8d-8ca7-40f6-b729-92a14c788d0f" d="M84.512,113.537l-.078-14.479c-.001-.123,.035-.243,.105-.344,1.129-1.635,10.884-15.72,11.196-14.827,.305,.878,1.531,17.4,1.712,19.858,.014,.194-.068,.383-.218,.506l-11.638,9.775c-.28,.232-.695,.192-.927-.088-.094-.113-.147-.254-.151-.401Z" fill="#c6d4f4"/><path id="uuid-1669d48d-f1e4-4fdf-aa4f-f73b08313581" d="M89.003,128.206l-12.576-4.172c-.123-.041-.255-.05-.383-.026l-16.435,3.104c-.385,.066-.644,.431-.578,.816,.039,.231,.191,.427,.404,.525l18.883,9.317c.264,.131,.58,.098,.81-.086l10.127-8.249c.302-.251,.344-.699,.093-1.001-.09-.108-.21-.187-.344-.227Z" fill="#c6d4f4"/><path id="uuid-930e7d6b-8314-4ee5-a656-4c35d973d5f0" d="M110.043,148.935l-29.842-1.313c-.39-.029-.73,.264-.758,.654-.018,.248,.095,.487,.298,.63l13.779,10.09c.237,.174,.553,.196,.812,.057l16.059-8.778c.345-.195,.466-.633,.271-.977-.126-.223-.362-.362-.619-.364Z" fill="#c6d4f4"/></g><path id="uuid-099fefe9-674d-4992-890c-d12ea7184a1a" d="M108.551,148.304l-6.951-12.9c-.117-.215-.112-.476,.012-.687l10.882-18.365c.221-.351,.684-.457,1.035-.237,.173,.109,.294,.283,.336,.483l3.772,19.908c.034,.18-.005,.367-.108,.519l-7.703,11.356c-.242,.339-.713,.418-1.052,.176-.093-.066-.169-.153-.224-.253Z" fill="#c6d4f4"/></g><g id="uuid-41a1a100-17c4-4174-b6e7-a7b9e52fef78"><g id="uuid-1400af93-97ca-41f4-b443-75a37e7d78e1"><circle id="uuid-7b121756-517b-4bf4-b677-1d823bf67ffe" cx="230.972" cy="108.146" r="104.667" fill="none" stroke="#232639" stroke-dasharray="0 0 8.2 8" stroke-linecap="round" stroke-linejoin="round" stroke-width="2"/><g id="uuid-4e15fa7a-468e-43bb-892b-fd337a14c92f"><g id="uuid-355de5be-1367-488f-8a92-4a62d3371e1d"><path id="uuid-4f9fb60c-fa21-47ac-a69f-2ec0684b243a" d="M122.931,74.137V38.159c0-.823,.667-1.49,1.49-1.49h177.113c.823,0,1.49,.667,1.49,1.49v106.952c0,.823-.667,1.49-1.49,1.49H124.422c-.823,0-1.49-.667-1.49-1.49V74.137" fill="#c6d4f4"/><rect id="uuid-80424110-66a2-4a8b-949c-5f95fec808f8" x="132.946" y="29.8" width="177.397" height="107.034" rx="3.052" ry="3.052" fill="#fff" stroke="#232639" stroke-linecap="round" stroke-linejoin="round" stroke-width="2"/><rect id="uuid-fde3970b-826d-4eaa-91e7-c7632a7200d0" x="152.78" y="113.476" width="40.192" height="2.525" fill="#232639"/><rect id="uuid-4466abad-cb8d-4ee5-9b64-5254a39bb4e2" x="152.78" y="119.896" width="40.192" height="2.525" fill="#232639"/><rect id="uuid-7d03bf5d-315f-4edd-84c1-b52a6d1c052c" x="204.097" y="113.476" width="40.192" height="2.525" fill="#232639"/><rect id="uuid-ef7ec405-bb16-47a7-aef5-8c29404d6a93" x="204.097" y="119.896" width="29.866" height="2.525" fill="#232639"/><rect id="uuid-8594332f-1aa0-4998-940b-17c2034968d2" x="258.317" y="87.567" width="32.482" height="1.812" fill="#232639"/><rect id="uuid-bd381e62-a230-416a-be27-c041c680f2c1" x="258.317" y="92.174" width="23.663" height="1.812" fill="#232639"/><rect id="uuid-9bdec18b-a3d6-4e46-b598-11463754f832" x="258.317" y="122.615" width="32.482" height="1.812" fill="#232639"/><rect id="uuid-9cbedadc-5e5a-4f05-9152-0b7abe5e1a86" x="258.317" y="127.223" width="23.663" height="1.812" fill="#232639"/><rect id="uuid-fa4fa455-44ce-4086-b403-90cbe93671e9" x="152.78" y="65.581" width="91.509" height="40.08" fill="#eafaeb" stroke="#232639" stroke-linecap="round" stroke-linejoin="round" stroke-width="2"/><rect id="uuid-7eca11be-a4e0-435c-95fb-37bcd385d2c6" x="258.317" y="65.581" width="31.751" height="17.819" fill="#c6d4f4"/><rect id="uuid-9e0371a1-0ecd-4102-9337-c9b9eeeb03b9" x="258.317" y="100.81" width="31.751" height="17.819" fill="#c6d4f4"/><rect id="uuid-f43f3874-9595-423a-afd3-a33e7011dffa" x="258.317" y="52.859" width="14.223" height="2.235" rx="1.117" ry="1.117" fill="#98b7ff"/><rect id="uuid-f63a0546-8f38-4f61-9443-b939bb04d152" x="277.214" y="52.859" width="14.223" height="2.235" rx="1.117" ry="1.117" fill="#98b7ff"/><rect id="uuid-420b5491-a87a-4c68-a30d-d73c76972b66" x="220.523" y="52.859" width="14.223" height="2.235" rx="1.117" ry="1.117" fill="#98b7ff"/><rect id="uuid-05ec5eae-c632-41c2-a25d-8b3348a00c11" x="239.42" y="52.859" width="14.223" height="2.235" rx="1.117" ry="1.117" fill="#98b7ff"/><circle id="uuid-2b145b33-345b-4382-99cb-fc1fa68ed9db" cx="157.316" cy="54.309" r="5.241" fill="#dfecfc"/><circle id="uuid-75b00896-aad2-48e9-9104-d7628b8ea5d6" cx="139.067" cy="36.005" r="2.127" fill="#232639"/><circle id="uuid-e42f954b-ec3a-440b-9654-5652ee2e1f00" cx="145.56" cy="36.005" r="2.127" fill="#232639"/><circle id="uuid-74331755-c0fd-4ba4-85b4-02fc6a7f4b4f" cx="152.051" cy="36.005" r="2.127" fill="#232639"/><line id="uuid-a8b54f12-4adf-4b29-88e2-a230a3df0db9" x1="132.946" y1="42.051" x2="310.343" y2="42.051" fill="none" stroke="#232639" stroke-linecap="round" stroke-linejoin="round" stroke-width="2"/><g id="uuid-dc556a3c-0658-49ae-a5f4-49db78f765c2"><g id="uuid-1411ac48-ad74-42fd-8881-b5667c2420fd"><rect id="uuid-dd05f6a1-f7ca-4bc6-8e0c-7ec694bd6bc4" x="254.206" y="14.172" width="74.462" height="45.098" fill="#fff" stroke="#232639" stroke-linecap="round" stroke-linejoin="round" stroke-width="2"/><g id="uuid-bd5ac2f3-1e86-458d-a87f-313c3ccebf43"><path id="uuid-97e99a4a-41ab-4381-8e54-52b6216d75f9" d="M261.291,51.894h55.087V21.786l-7.831,11.61-27.1,2.471-20.156,14.762v1.265Z" fill="url(#uuid-c13f9554-ec0d-4448-855c-dd343ac285bf)"/><path id="uuid-893697ae-9bd6-418b-9b76-273cdfa05241" d="M264.884,48.002l16.564-12.135,27.1-2.471,7.966-11.61v4.139" fill="none" stroke="#232639" stroke-linecap="round" stroke-linejoin="round" stroke-width="2"/><line id="uuid-48c722ed-5dfc-44aa-a561-4e2b2ee35317" x1="312.768" y1="23.396" x2="316.514" y2="21.786" fill="none" stroke="#232639" stroke-linecap="round" stroke-linejoin="round" stroke-width="2"/><g id="uuid-601e0e2a-e3b4-46bc-9c0b-22b4e5490c3b"><path id="uuid-4163e96a-fe7e-472d-9e1c-d5ea57db97b2" d="M261.291,25.401v26.49h60.289" fill="none" stroke="#4343f0" stroke-linecap="round" stroke-linejoin="round" stroke-width="2"/><g id="uuid-3e05bfb0-6579-4078-8803-a3c7f2bf0b99"><line id="uuid-66841043-7731-45e5-8b2f-e3f86ba725d1" x1="261.293" y1="45.431" x2="262.397" y2="45.431" fill="none" stroke="#4343f0" stroke-linecap="round" stroke-linejoin="round" stroke-width="2"/><line id="uuid-04488d25-4ff4-445b-aede-5f7dd75c79b3" x1="261.293" y1="38.754" x2="262.397" y2="38.754" fill="none" stroke="#4343f0" stroke-linecap="round" stroke-linejoin="round" stroke-width="2"/><line id="uuid-30cce6d5-4862-4cb8-aae4-35e149e4c0c3" x1="261.293" y1="32.078" x2="262.397" y2="32.078" fill="none" stroke="#4343f0" stroke-linecap="round" stroke-linejoin="round" stroke-width="2"/><g id="uuid-18592eec-54d7-4e8f-acb4-e262766d4f13"><line id="uuid-bc1cd585-e1e5-41f6-b172-75eaadb96310" x1="288.636" y1="51.633" x2="288.636" y2="50.575" fill="none" stroke="#4343f0" stroke-linecap="round" stroke-linejoin="round" stroke-width="2"/><line id="uuid-1fb6d151-7692-4863-a99f-bc9b967e94a8" x1="281.668" y1="51.633" x2="281.668" y2="50.575" fill="none" stroke="#4343f0" stroke-linecap="round" stroke-linejoin="round" stroke-width="2"/><line id="uuid-0376e4fa-18b5-4e83-8c3d-7739603b80d2" x1="274.699" y1="51.633" x2="274.699" y2="50.575" fill="none" stroke="#4343f0" stroke-linecap="round" stroke-linejoin="round" stroke-width="2"/><line id="uuid-e28003dc-c1f7-462f-8814-de3fc86fbc63" x1="267.731" y1="51.633" x2="267.731" y2="50.575" fill="none" stroke="#4343f0" stroke-linecap="round" stroke-linejoin="round" stroke-width="2"/></g><g id="uuid-dd61469a-b2aa-4f44-9a34-6ab896e8143e"><g id="uuid-25496acb-456c-490f-ade2-f7ca3fc1f076"><line id="uuid-819dd4f3-7f54-42b3-8661-2a9fa3527070" x1="309.476" y1="51.633" x2="309.476" y2="50.575" fill="none" stroke="#4343f0" stroke-linecap="round" stroke-linejoin="round" stroke-width="2"/><line id="uuid-349137c2-9dcf-409d-991d-92d1f94be5ac" x1="302.507" y1="51.633" x2="302.507" y2="50.575" fill="none" stroke="#4343f0" stroke-linecap="round" stroke-linejoin="round" stroke-width="2"/><line id="uuid-d046a9f1-0d1e-421c-83bd-c404f12618a5" x1="295.539" y1="51.633" x2="295.539" y2="50.575" fill="none" stroke="#4343f0" stroke-linecap="round" stroke-linejoin="round" stroke-width="2"/></g><line id="uuid-bd9af6de-7894-4ed6-ad52-78549706cf41" x1="316.379" y1="51.633" x2="316.379" y2="50.575" fill="none" stroke="#4343f0" stroke-linecap="round" stroke-linejoin="round" stroke-width="2"/><line id="uuid-5ad36131-1c8e-4ea0-a707-100f9bbeedf9" x1="309.411" y1="51.633" x2="309.411" y2="50.575" fill="none" stroke="#4343f0" stroke-linecap="round" stroke-linejoin="round" stroke-width="2"/></g></g></g></g></g></g></g><g id="uuid-1b687215-f20a-49a9-9ebc-7b88b9eb5ba4"><path id="uuid-1a4ce6ae-d276-4342-a03d-2c58cbfccab1" d="M114.389,137.642h59.561c.545,.016,.974,.47,.958,1.015v37.292c.016,.545-.413,1-.958,1.016h-59.561c-.545-.016-.974-.471-.958-1.016v-37.292c-.015-.545,.414-.999,.958-1.015Z" fill="#c6d4f4"/><g id="uuid-4b920645-0e92-4074-b0d0-19c7e8c389ac"><g id="uuid-c079b227-ae48-404b-8d95-b10793ed59b0"><g id="uuid-a44a7786-deb7-4cf0-b894-3f849d352d84"><path id="uuid-f8a27b6b-0ae4-4d06-b3c9-58a7620c2f57" d="M162.864,129.769h15.589v42.319l-60.146,.008v-42.327h44.557Z" fill="#fff" stroke="#232639" stroke-linecap="round" stroke-linejoin="round" stroke-width="2"/><line id="uuid-ed95575d-043c-4bfe-8cfe-09e61a38e50b" x1="148.573" y1="158.436" x2="118.315" y2="129.77" fill="none" stroke="#232639" stroke-linecap="round" stroke-linejoin="round" stroke-width="2"/><line id="uuid-37e8a99f-61ad-4685-846f-de61552a9b53" x1="178.457" y1="129.769" x2="148.572" y2="158.435" fill="none" stroke="#232639" stroke-linecap="round" stroke-linejoin="round" stroke-width="2"/><line id="uuid-18da789b-b3d2-4653-90b0-e3f184da7d72" x1="139.936" y1="150.475" x2="118.314" y2="172.093" fill="none" stroke="#232639" stroke-linecap="round" stroke-linejoin="round" stroke-width="2"/><line id="uuid-321c0922-d829-41e0-a9c6-b44cbeaf1fb9" x1="156.843" y1="150.473" x2="178.457" y2="172.087" fill="none" stroke="#232639" stroke-linecap="round" stroke-linejoin="round" stroke-width="2"/></g></g></g></g><g id="uuid-d6f74518-a2b8-4667-b802-c9b66b3fe92c"><circle id="uuid-57214813-bda4-4ca6-bb5f-0e448c64459b" cx="176.964" cy="133.925" r="8.991" fill="#cef2cf" stroke="#232639" stroke-linecap="round" stroke-linejoin="round" stroke-width="2"/></g></g></g><g id="uuid-b4014342-a544-4945-9f21-e8f9d82128fb"><g id="uuid-86df2ef5-97a7-45fa-9587-1a8f9ef77a87"><path id="uuid-32ba3582-7562-4d17-92e1-c57990fcfc5d" d="M412.681,108.828l-41.095-1.058,3.356-18.694,25.218-16.394,12.521,36.147Z" fill="#917a5a"/><path id="uuid-f99c0150-2beb-4b49-8ead-c475490312d7" d="M412.681,108.828l-41.095-1.058,3.356-18.694,25.218-16.394,12.521,36.147Z" fill="none" stroke="#232639" stroke-linecap="round" stroke-linejoin="round" stroke-width="2"/><path id="uuid-a5926322-37fb-4ed8-b187-7467b91e046e" d="M382.537,32.613c-3.069,2.418-20.418,17.799-20.418,17.799l1.496,8.425,8.159-9.675,18.253,5.275,4.569,15.237,3.427-7.033,4.783,3.936-2.657,6.1,12.524,36.147,22.259,9.342-32.118-77.058-20.278-8.495Z" fill="#e0b086" stroke="#232639" stroke-linecap="round" stroke-linejoin="round" stroke-width="2"/><path id="uuid-ec5c2542-6381-462c-bf6d-6e7784399f8d" d="M363.619,58.837l8.16,31.06,22.542-5.86,4.042-7.227,4.454-10.231-4.788-3.936-3.427,7.033-4.568-15.236-18.253-5.275-8.161,9.672Z" fill="#f6e8d5" stroke="#232639" stroke-linecap="round" stroke-linejoin="round" stroke-width="2"/><path id="uuid-9e8d8a2a-4dea-4139-b767-a2bd0fc5b947" d="M363.617,58.837l-7.111,53.505,15.074-4.572,3.349-18.694-3.156,.821-8.157-31.06Z" fill="#e0b086" stroke="#232639" stroke-linecap="round" stroke-linejoin="round" stroke-width="2"/><path id="uuid-f07da19b-c817-4739-a2fa-850897712c93" d="M385.982,75.783l-.857,2.93-6.424,1.905" fill="none" stroke="#232639" stroke-linecap="round" stroke-linejoin="round" stroke-width="2"/><path id="uuid-7dd8acbf-3262-44fd-aa3f-41c77279ffa4" d="M376.897,75.783l-3.691-1.08,1.514-4.12" fill="none" stroke="#232639" stroke-linecap="round" stroke-linejoin="round" stroke-width="2"/><path id="uuid-5fe31e06-73ad-450b-8f00-db58dcdc5e7a" d="M375.342,61.149l8.424-1.686,4.712,2.494-4.854-2.194-7.496,2.381-.786-.995Z" fill="none" stroke="#232639" stroke-linecap="round" stroke-linejoin="round" stroke-width="2"/><path id="uuid-206328c5-d5a1-4f23-8458-89c46b6394f0" d="M369.26,62.572l.48,1.067-4.425,.022,3.945-1.089Z" fill="none" stroke="#232639" stroke-linecap="round" stroke-linejoin="round" stroke-width="2"/><path id="uuid-50d25504-02a0-47e9-8e5d-6c2bc4188401" d="M397.528,73.342c-.009-.355-.304-.634-.659-.625-.355,.009-.634,.304-.625,.659,.009,.348,.293,.625,.641,.625,.36-.004,.648-.3,.643-.659h0" fill="#232639"/><path id="uuid-334eeb57-b07b-421c-ad7e-e98d302c22fa" d="M397.528,73.342c-.009-.355-.304-.634-.659-.625-.355,.009-.634,.304-.625,.659,.009,.348,.293,.625,.641,.625,.36-.004,.648-.3,.643-.659h0Z" fill="none" stroke="#232639" stroke-linecap="round" stroke-linejoin="round" stroke-width="2"/><path id="uuid-d2f7d266-e090-4381-a0dc-7c8b4d4ee106" d="M386.696,63.231s-.997,1.097-1.496,1.083-6.495,.863-6.495,.863" fill="none" stroke="#232639" stroke-linecap="round" stroke-linejoin="round" stroke-width="2"/><line id="uuid-2b1003b5-ce3c-478b-aac1-d0d624c43bc9" x1="385.696" y1="67.155" x2="381.41" y2="68.565" fill="none" stroke="#232639" stroke-linecap="round" stroke-linejoin="round" stroke-width="2"/><path id="uuid-72e3cb9a-2cd3-4bd7-8464-fe975f77d627" d="M370.597,67.45h-4.217l-1.071,1.465" fill="none" stroke="#232639" stroke-linecap="round" stroke-linejoin="round" stroke-width="2"/><line id="uuid-9903b211-901b-4e6b-9cc5-c330c49b54f4" x1="371.382" y1="70.305" x2="368.527" y2="70.964" fill="none" stroke="#232639" stroke-linecap="round" stroke-linejoin="round" stroke-width="2"/><path id="uuid-09ebc1cf-1f6b-4f81-aee8-95d9e59f809d" d="M382.296,67.533c.483-.847,.206-1.925-.626-2.434-.812-.483-1.862-.216-2.345,.596-.009,.016-.019,.032-.027,.047-.482,.847-.205,1.924,.626,2.434,.078,.047,.161,.087,.245,.121,.788,.38,1.735,.049,2.115-.739,.004-.008,.008-.017,.012-.025" fill="#232639" stroke="#232639" stroke-linecap="round" stroke-linejoin="round"/><path id="uuid-c7981370-3305-4dfd-b0bf-7b331526d9fd" d="M370.112,69.988c.482-.847,.205-1.924-.626-2.434-.812-.483-1.862-.217-2.345,.595-.009,.016-.018,.031-.027,.047-.482,.848-.204,1.925,.627,2.434,.078,.047,.16,.088,.245,.122,.789,.38,1.736,.048,2.116-.741,.004-.008,.007-.016,.011-.023" fill="#232639" stroke="#232639" stroke-linecap="round" stroke-linejoin="round"/><path id="uuid-2f77a14f-76a2-4fdb-b4f4-39a5ef8029ba" d="M402.809,95.757l-25.915,2.846-5.318,9.434-33.806,10.482-19.416,41.914v67.704h157.344l2.57-6.588-31.412-97.77-37.194-15.954-6.853-12.067Z" fill="#cef2cf" stroke="#232639" stroke-linecap="round" stroke-linejoin="round" stroke-width="2"/><path id="uuid-c48451d8-d942-4483-be84-c594a0e9ac7e" d="M383.938,33.099l-.379-4.023,9.026-2.434,10.08,4.463,4.02,7.033-4.02,2.975-18.727-8.015Z" fill="#e0b086" stroke="#232639" stroke-linecap="round" stroke-linejoin="round" stroke-width="2"/><path id="uuid-c0177228-bdb3-4e54-b79b-61908b73f6c6" d="M398.028,62.646l4.788-21.535-12.779,13.332" fill="none" stroke="#232639" stroke-linecap="round" stroke-linejoin="round" stroke-width="2"/><path id="uuid-48e166c0-253b-4a0d-aed5-ef68b16fd752" d="M398.361,76.809l2.955,19.107-22.417,2.407v-10.279l15.422-4.009,4.039-7.226Z" fill="#f6e8d5" stroke="#232639" stroke-linecap="round" stroke-linejoin="round" stroke-width="2"/><path id="uuid-6977a007-50e5-48c5-b429-23c6cca4ed99" d="M394.246,86.123l-15.35,6.483v-4.561l15.422-4.009,4.042-7.227-4.114,9.313Z" fill="#232639" stroke="#232639" stroke-linecap="round" stroke-linejoin="round" stroke-width="2"/><path id="uuid-2749cc99-1dc4-4360-9854-acb9f01799be" d="M358.478,69.276l-1.895-6.847,15.198-13.266-13.299,13.696-.004,6.417Z" fill="#e0b086"/><path id="uuid-e650e140-daaa-4081-9a42-08c247b909ae" d="M358.478,69.276l-1.895-6.847,15.198-13.266-13.299,13.696-.004,6.417Z" fill="none" stroke="#232639" stroke-linecap="round" stroke-linejoin="round" stroke-width="2"/><line id="uuid-8ce1f1d6-5676-4c76-9dd7-83d4b39f991c" x1="396.886" y1="96.601" x2="401.313" y2="106.889" fill="none" stroke="#232639" stroke-linecap="round" stroke-linejoin="round" stroke-width="2"/><line id="uuid-7ef71e85-0058-4c48-900e-5885505ed4e5" x1="390.748" y1="97.369" x2="392.702" y2="108.573" fill="none" stroke="#232639" stroke-linecap="round" stroke-linejoin="round" stroke-width="2"/><line id="uuid-4ced907f-3512-4a7d-aceb-7397a6d80ce5" x1="385.035" y1="97.808" x2="384" y2="108.828" fill="none" stroke="#232639" stroke-linecap="round" stroke-linejoin="round" stroke-width="2"/><line id="uuid-b2a3c64b-cdf0-4f1e-960e-375ce4b980a2" x1="380.182" y1="98.541" x2="377.122" y2="108.829" fill="none" stroke="#232639" stroke-linecap="round" stroke-linejoin="round" stroke-width="2"/><path id="uuid-693f532e-5c83-4956-b393-d54fe714e8cc" d="M413.734,224.534l-1.056-10.255-15.22-13.332,37.477-.439" fill="none" stroke="#232639" stroke-linecap="round" stroke-linejoin="round" stroke-width="2"/><line id="uuid-64521dce-b030-49b4-aac1-23b76e62c67d" x1="425.586" y1="206.952" x2="404.968" y2="207.524" fill="none" stroke="#232639" stroke-linecap="round" stroke-linejoin="round" stroke-width="2"/><line id="uuid-17c73419-11ef-4720-b7d9-41d483f36344" x1="434.153" y1="221.456" x2="413.419" y2="221.456" fill="none" stroke="#232639" stroke-linecap="round" stroke-linejoin="round" stroke-width="2"/><line id="uuid-3a37ff5e-062e-4746-bb01-45b823105b04" x1="412.678" y1="214.278" x2="432.723" y2="213.839" fill="none" stroke="#232639" stroke-linecap="round" stroke-linejoin="round" stroke-width="2"/><path id="uuid-7717ae0a-dc81-4438-85a4-9fd51789b052" d="M405.924,208.367l-18.752-3.904-6.64,7.252v13.552h32.883l-.739-10.989-6.752-5.912Z" fill="#f6e8d5"/><path id="uuid-7f774418-c0e8-430d-8aa6-c99dcb41ffdb" d="M405.924,208.367l-18.752-3.904-6.64,7.252v13.552h32.883l-.739-10.989-6.752-5.912Z" fill="none" stroke="#232639" stroke-linecap="round" stroke-linejoin="round" stroke-width="2"/><path id="uuid-b48bd932-3b95-48cd-868c-fe066f020d56" d="M389.533,209.627c-.107,.329-5.247,7.033-5.247,7.033" fill="none" stroke="#232639" stroke-linecap="round" stroke-linejoin="round" stroke-width="2"/><line id="uuid-a10a4330-2065-4b0c-a4d7-abb783de9777" x1="394.245" y1="214.353" x2="387.713" y2="222.813" fill="none" stroke="#232639" stroke-linecap="round" stroke-linejoin="round" stroke-width="2"/><path id="uuid-30cbf705-a852-4427-a7b4-11a3ce41aa9e" d="M397.455,200.947l-4.243,4.774,12.715,2.647-8.472-7.421Z" fill="#232639" stroke="#232639" stroke-linecap="round" stroke-linejoin="round" stroke-width="2"/><line id="uuid-6fd6351e-9ab1-4d0f-98bf-4b9e1e3ae7d4" x1="478.276" y1="218.821" x2="446.866" y2="123.175" fill="none" stroke="#232639" stroke-linecap="round" stroke-linejoin="round" stroke-width="2"/><path id="uuid-ae3bdabc-bcd5-490d-b6c3-fd312ffb244d" d="M445.703,145.06c.052,2.022,1.733,3.619,3.755,3.568,2.022-.052,3.619-1.733,3.568-3.755-.051-1.986-1.676-3.569-3.662-3.569-2.048,.027-3.686,1.709-3.661,3.756h0" fill="#eafaeb"/><path id="uuid-f7e97882-c092-4d82-8e94-e616b6384f88" d="M432.847,133.125c.051,2.022,1.732,3.62,3.754,3.569,2.022-.051,3.62-1.732,3.569-3.754-.05-1.986-1.675-3.57-3.662-3.57-2.047,.027-3.686,1.708-3.661,3.755h0" fill="#eafaeb"/><path id="uuid-94fe9e2f-916c-4121-866e-729369af7ae2" d="M417.69,121.922c.052,2.022,1.733,3.619,3.755,3.568,2.022-.052,3.619-1.733,3.568-3.755-.051-1.986-1.676-3.569-3.662-3.569-2.048,.027-3.687,1.708-3.661,3.756h0" fill="#eafaeb"/><path id="uuid-3ed1e015-7b16-4d19-82b5-733ae10ef77f" d="M399.571,114.412c.052,2.022,1.733,3.619,3.755,3.568,2.022-.052,3.619-1.733,3.568-3.755-.051-1.986-1.676-3.569-3.662-3.569-2.048,.027-3.687,1.708-3.661,3.756h0" fill="#eafaeb"/><path id="uuid-62349ddc-cfb1-40e9-b340-faf09217c667" d="M383.549,125.376c.051,2.022,1.732,3.62,3.754,3.569,2.022-.051,3.62-1.732,3.569-3.754-.05-1.986-1.675-3.57-3.662-3.57-2.047,.027-3.686,1.708-3.661,3.755h0" fill="#eafaeb"/><path id="uuid-79657c94-f6b5-4949-b66a-dfbe789c3fd6" d="M366.824,115.983c.052,2.022,1.733,3.619,3.755,3.568,2.022-.052,3.619-1.733,3.568-3.755-.051-1.986-1.676-3.569-3.662-3.569-2.048,.027-3.687,1.708-3.661,3.756h0" fill="#eafaeb"/><path id="uuid-c3556cfa-11e6-4c5b-b2ea-83839eb0931c" d="M451.493,165.421c.052,2.022,1.734,3.618,3.755,3.566,2.022-.052,3.618-1.734,3.566-3.755-.051-1.985-1.675-3.567-3.66-3.567-2.048,.027-3.687,1.708-3.661,3.756h0" fill="#eafaeb"/><path id="uuid-d63b5bba-0875-482e-ad7c-c1e5732e2a2c" d="M434.767,156.027c.052,2.022,1.733,3.619,3.755,3.568,2.022-.052,3.619-1.733,3.568-3.755-.051-1.986-1.676-3.569-3.662-3.569-2.048,.027-3.687,1.708-3.661,3.756h0" fill="#eafaeb"/><path id="uuid-fba2a0b9-7d22-4012-a0a5-821369f84992" d="M418.04,146.632c.052,2.022,1.733,3.619,3.755,3.568,2.022-.052,3.619-1.733,3.568-3.755-.051-1.986-1.676-3.569-3.662-3.569-2.048,.027-3.687,1.708-3.661,3.756h0" fill="#eafaeb"/><path id="uuid-d4d18a28-1081-43a0-8248-60ae9ae664b1" d="M404.312,133.578c.052,2.022,1.733,3.619,3.755,3.568,2.022-.052,3.619-1.733,3.568-3.755-.051-1.986-1.675-3.569-3.661-3.569-2.048,.026-3.688,1.708-3.662,3.756h0" fill="#eafaeb"/><path id="uuid-a2d6f7ad-2556-4c97-94de-ca61a0ad316d" d="M457.676,186.785c.052,2.022,1.733,3.619,3.755,3.568,2.022-.052,3.619-1.733,3.568-3.755-.051-1.986-1.676-3.569-3.662-3.569-2.048,.027-3.687,1.708-3.661,3.756h0" fill="#eafaeb"/><path id="uuid-b72f6698-8933-44f0-96eb-54bbd0d79630" d="M437.579,175.237c.052,2.022,1.733,3.619,3.755,3.568,2.022-.052,3.619-1.733,3.568-3.755-.051-1.986-1.675-3.569-3.661-3.569-2.048,.026-3.688,1.708-3.662,3.756h0" fill="#eafaeb"/><path id="uuid-62646519-bac9-4fa6-8aa5-1e7cca430185" d="M422.015,169.961c-.026,2.048,1.613,3.729,3.661,3.756h0c1.25,.1,2.442-.549,3.034-1.655,.113-.281-.623-4.97-.988-5.213-1.66-1.139-3.93-.716-5.069,.944-.438,.638-.661,1.399-.638,2.173h0" fill="#eafaeb"/><path id="uuid-482dbfad-d66b-405f-b9ae-ea33751bc55a" d="M403.508,159.337c.052,2.022,1.733,3.619,3.755,3.568,2.022-.052,3.619-1.733,3.568-3.755-.051-1.986-1.675-3.569-3.661-3.569-2.048,.026-3.688,1.708-3.662,3.756h0" fill="#eafaeb"/><path id="uuid-e30a4650-6170-432d-a112-b65d2ead716e" d="M461.271,204.656c.052,2.022,1.734,3.618,3.755,3.566,2.022-.052,3.618-1.734,3.566-3.755-.051-1.985-1.675-3.567-3.66-3.567-2.048,.027-3.687,1.708-3.661,3.756h0" fill="#eafaeb"/><path id="uuid-8019e0e2-7708-448b-8cfd-4e2d3ecea665" d="M440.683,194.212c.052,2.022,1.734,3.618,3.755,3.566,2.022-.052,3.618-1.734,3.566-3.755-.051-1.985-1.675-3.567-3.66-3.567-2.048,.027-3.687,1.708-3.661,3.756h0" fill="#eafaeb"/><path id="uuid-dc5ebf93-bbf5-4d77-936e-30ef62957159" d="M409.759,185.514c.052,2.022,1.733,3.619,3.755,3.568,2.022-.052,3.619-1.733,3.568-3.755-.051-1.986-1.676-3.569-3.662-3.569-2.048,.027-3.687,1.708-3.661,3.756h0" fill="#eafaeb"/><path id="uuid-e132d08d-e3e7-47b6-9cc6-49eb25391158" d="M475.125,224.455c.057-2.022-1.536-3.708-3.558-3.765-2.022-.057-3.708,1.536-3.765,3.558-.002,.069-.002,.138,0,.207h0" fill="#eafaeb"/><path id="uuid-43a01788-ce81-4c27-b18a-13a30023efac" d="M450.126,218.582c.052,2.022,1.734,3.618,3.755,3.566,2.022-.052,3.618-1.734,3.566-3.755-.051-1.985-1.675-3.567-3.66-3.567-2.048,.027-3.687,1.708-3.661,3.756h0" fill="#eafaeb"/><path id="uuid-7ed812a0-075c-4a70-9c3d-ef034beb9fbb" d="M431.276,208.367c.052,2.022,1.733,3.619,3.755,3.568,2.022-.052,3.619-1.733,3.568-3.755-.051-1.986-1.676-3.569-3.662-3.569-2.048,.027-3.687,1.708-3.661,3.756h0" fill="#eafaeb"/><path id="uuid-7801bf57-45a7-4b88-9b97-5010e8a6b46c" d="M418.934,199.898l7.326-.107c.133-2.018-1.395-3.763-3.414-3.896-2.019-.133-3.763,1.395-3.896,3.414-.005,.071-.007,.142-.008,.214v.268" fill="#eafaeb"/><path id="uuid-528968ff-9d98-4586-bf18-53a591543d06" d="M388.089,144.835c.052,2.022,1.734,3.618,3.755,3.566,2.022-.052,3.618-1.734,3.566-3.755-.051-1.985-1.675-3.567-3.66-3.567-2.048,.027-3.687,1.708-3.661,3.756h0" fill="#eafaeb"/><path id="uuid-c108db69-4883-4054-a1cc-651dc8e743b9" d="M366.192,134.589c.052,2.022,1.733,3.619,3.755,3.568,2.022-.052,3.619-1.733,3.568-3.755-.051-1.986-1.676-3.569-3.662-3.569-2.048,.027-3.687,1.708-3.661,3.756h0" fill="#eafaeb"/><path id="uuid-41be2ba9-042d-4aec-be8e-e75e2a015895" d="M347.591,124.61c.052,2.022,1.733,3.619,3.755,3.568,2.022-.052,3.619-1.733,3.568-3.755-.051-1.986-1.676-3.569-3.662-3.569-2.048,.027-3.687,1.708-3.661,3.756h0" fill="#eafaeb"/><path id="uuid-1d8639e2-f067-41d6-9a9d-e69ab4e837a4" d="M390.586,173.476c.052,2.022,1.734,3.618,3.755,3.566,2.022-.052,3.618-1.734,3.566-3.755-.051-1.985-1.675-3.567-3.66-3.567-2.048,.027-3.687,1.708-3.661,3.756h0" fill="#eafaeb"/><path id="uuid-68eebdf8-3578-4868-b867-e19227b89835" d="M371.392,158.166c.052,2.022,1.733,3.619,3.755,3.568,2.022-.052,3.619-1.733,3.568-3.755-.051-1.986-1.675-3.569-3.661-3.569-2.048,.026-3.688,1.708-3.662,3.756h0" fill="#eafaeb"/><path id="uuid-96decd25-dea1-41f2-a187-efda5512b2bc" d="M354.747,146.632c.052,2.022,1.733,3.619,3.755,3.568,2.022-.052,3.619-1.733,3.568-3.755-.051-1.986-1.675-3.569-3.661-3.569-2.048,.026-3.688,1.708-3.662,3.756h0" fill="#eafaeb"/><path id="uuid-7e99effd-d2f4-45b2-ab4e-8a3a30818648" d="M334.45,140.756c.052,2.022,1.734,3.618,3.755,3.566,2.022-.052,3.618-1.734,3.566-3.755-.051-1.985-1.675-3.567-3.66-3.567-2.048,.027-3.687,1.708-3.661,3.756h0" fill="#eafaeb"/><path id="uuid-c34f15bd-32da-4d7a-a665-f1b0f26c8816" d="M385.877,192.687c.052,2.022,1.733,3.619,3.755,3.568,2.022-.052,3.619-1.733,3.568-3.755-.051-1.986-1.676-3.569-3.662-3.569-2.048,.027-3.686,1.709-3.661,3.756h0" fill="#eafaeb"/><path id="uuid-03f504bd-66be-4680-9ac1-e0b399859254" d="M371.979,178.376c.052,2.022,1.733,3.619,3.755,3.568,2.022-.052,3.619-1.733,3.568-3.755-.051-1.986-1.676-3.569-3.662-3.569-2.048,.027-3.687,1.708-3.661,3.756h0" fill="#eafaeb"/><path id="uuid-6dce9568-2aab-4617-ad01-225a9b77373c" d="M358.237,167.778c.052,2.022,1.733,3.619,3.755,3.568,2.022-.052,3.619-1.733,3.568-3.755-.051-1.986-1.675-3.569-3.661-3.569-2.048,.026-3.688,1.708-3.662,3.756h0" fill="#eafaeb"/><path id="uuid-b3f88ec1-5a5f-4e10-835d-200421993b80" d="M361.727,188.922c.052,2.022,1.733,3.619,3.755,3.568,2.022-.052,3.619-1.733,3.568-3.755-.051-1.986-1.675-3.569-3.661-3.569-2.048,.026-3.688,1.708-3.662,3.756h0" fill="#eafaeb"/><path id="uuid-edcfb891-6154-4cb3-a95a-1c022835367d" d="M345.001,179.528c.052,2.022,1.734,3.618,3.755,3.566,2.022-.052,3.618-1.734,3.566-3.755-.051-1.985-1.675-3.567-3.66-3.567-2.048,.027-3.687,1.708-3.661,3.756h0" fill="#eafaeb"/><path id="uuid-8263f0f9-03eb-4d98-b54c-f600ce175676" d="M365.216,210.066c.052,2.022,1.733,3.619,3.755,3.568,2.022-.052,3.619-1.733,3.568-3.755-.051-1.986-1.675-3.569-3.661-3.569-2.048,.027-3.687,1.708-3.662,3.756h0" fill="#eafaeb"/><path id="uuid-3ba65edc-3d41-4468-88fa-a6a6e87c778b" d="M348.49,200.672c.052,2.022,1.733,3.619,3.755,3.568,2.022-.052,3.619-1.733,3.568-3.755-.051-1.986-1.676-3.569-3.662-3.569-2.048,.027-3.687,1.708-3.661,3.756h0" fill="#eafaeb"/><path id="uuid-0deef537-b318-4c44-affd-2df3bebaa61f" d="M427.156,163.735l7.78,36.773,13.067,1.905" fill="none" stroke="#232639" stroke-linecap="round" stroke-linejoin="round" stroke-width="2"/><line id="uuid-efd2edb2-9228-4582-bd3a-c0c6aacb6bcf" x1="397.361" y1="28.757" x2="400.306" y2="40.101" fill="none" stroke="#232639" stroke-linecap="round" stroke-linejoin="round" stroke-width="2"/><path id="uuid-97992c26-416f-4ab6-9709-6614b639f707" d="M409.88,225.267c0-.698,2.798-10.988,2.798-10.988l.739,10.988h-3.537Z" fill="#232639" stroke="#232639" stroke-linecap="round" stroke-linejoin="round" stroke-width="2"/><path id="uuid-b8a480fc-729a-4d0b-8aaa-9271dd8f482a" d="M430.707,200.558l-3.551-36.822,7.78,36.772-4.229,.05Z" fill="#232639" stroke="#232639" stroke-linecap="round" stroke-linejoin="round" stroke-width="2"/><path id="uuid-518ba6e6-891f-4989-84fd-aa0a363329ee" d="M408.59,225.265l-10.815-4.541-2.145,2.374,3.969,.664-.03,1.504h9.022Z" fill="#232639" stroke="#232639" stroke-linecap="round" stroke-linejoin="round" stroke-width="2"/></g><g id="uuid-79acf7eb-4dc5-4ac2-8970-54ac0c29e227"><rect id="uuid-448559fe-ee78-47a6-9865-f07e7ebaccca" x="286.893" y="224.24" width="100.483" height="4.981" fill="#fff" stroke="#232639" stroke-linecap="round" stroke-linejoin="round" stroke-width="2"/><rect id="uuid-fa11ca77-1531-42bf-a96f-f5bd4ef70d4f" x="387.713" y="224.24" width="43.333" height="4.981" fill="#fff" stroke="#232639" stroke-linecap="round" stroke-linejoin="round" stroke-width="2"/><path id="uuid-e44fa26c-a971-4106-98fe-3e78cd0b133d" d="M358.927,159.194h-82.313l-6.424,8.121,16.704,56.928h100.482l-16.857-58.281-11.593-6.769Z" fill="#fff" stroke="#232639" stroke-linecap="round" stroke-linejoin="round" stroke-width="2"/><path id="uuid-c8c0d312-ad21-4fae-b047-8151328e6a09" d="M328.001,195.184c-1.097-2.687-3.868-4.056-6.192-3.057s-3.319,3.985-2.223,6.672,3.868,4.056,6.193,3.058,3.318-3.986,2.222-6.673Z" fill="none" stroke="#232639" stroke-linecap="round" stroke-linejoin="round" stroke-width="2"/></g></g></g></g></g></svg>
