<svg id="a" xmlns="http://www.w3.org/2000/svg" viewBox="0 0 92.568 50.903"><path d="M78.763,27.122l1.011-1.162,1.011,1.162-1.011,1.162-1.011-1.162Zm1.011-5.328l1.011-1.162-1.011-1.162-1.011,1.162,1.011,1.162Zm0-12.98l1.011-1.162-1.011-1.162-1.011,1.162,1.011,1.162Zm5.647,17.146l-1.012,1.163,1.011,1.162,1.011-1.162-1.01-1.163Zm0-6.49l-1.012,1.162,1.011,1.162,1.011-1.162-1.01-1.162Zm-.799-5.57l-.21,.24,.53,.61-.32-.85Zm-49.986,5.57l-1.011,1.162,1.011,1.162,1.011-1.162-1.011-1.162Zm5.648-6.49l-1.011,1.162,1.011,1.161,1.011-1.161-1.011-1.162Zm0-6.488l-1.011,1.162,1.011,1.161,1.011-1.161-1.011-1.162Zm5.646,6.488l-1.011,1.162,1.011,1.162,1.01-1.161-1.01-1.163Zm0-6.488l-1.011,1.162,1.011,1.162,1.012-1.162-1.012-1.162Zm-.558-4.812l.56,.64,1.01-1.16-.26-.3-1.31,.82Zm6.205,11.3l-1.011,1.162,1.011,1.162,1.011-1.162-1.011-1.162Zm0-6.488l-1.011,1.162,1.011,1.162,1.011-1.162-1.011-1.162Zm0-6.492l-1.01,1.163,1.01,1.162,1.011-1.162-1.011-1.163Zm5.647,6.492l-1.011,1.162,1.011,1.162,1.011-1.162-1.011-1.162Zm0-6.492l-1.01,1.163,1.011,1.162,1.01-1.162-1.011-1.163Zm5.649,25.96l-1.012,1.162,1.012,1.162,1.011-1.162-1.011-1.162Zm0-19.468l-1.012,1.162,1.012,1.162,1.011-1.162-1.011-1.162Zm0-6.492l-1.011,1.163,1.011,1.162,1.011-1.162-1.011-1.163Zm5.647,28.284l1.011-1.162-1.011-1.162-1.011,1.162,1.011,1.162Zm0-19.47l1.011-1.162-1.011-1.16-1.011,1.162,1.011,1.16Zm0-6.49l1.011-1.161L68.52,.001l-1.01,1.162,1.01,1.161Zm5.647,25.96l1.012-1.162-1.012-1.162-1.011,1.162,1.011,1.162Zm0-6.49l1.012-1.162-1.012-1.162-1.011,1.162,1.011,1.162Zm0-12.98l1.012-1.162-1.012-1.162-1.011,1.162,1.011,1.162Zm-.705-8.014l-.31,.36,1.01,1.16,.62-.7-1.32-.82Zm6.312,40.061l1.011-1.162-1.011-1.162-1.011,1.162,1.011,1.162Zm0-6.491l1.011-1.162-1.011-1.162-1.011,1.162,1.011,1.162Zm4.638-1.16l.1,.12c.06-.14,.12-.28,.17-.43l-.27,.31Zm-37.5,13.01l.03-.03-1.01-1.16-.33,.38,1.31,.81Zm4.665-1.194l-1.011,1.162,1.011,1.162,1.011-1.162-1.011-1.162Zm0-6.489l-1.011,1.162,1.011,1.162,1.011-1.162-1.011-1.162Zm5.647,6.489l-1.011,1.162,1.011,1.162,1.011-1.162-1.011-1.162Zm0-6.489l-1.011,1.162,1.011,1.162,1.011-1.162-1.011-1.162Zm0-6.49l-1.015,1.16,1.011,1.162,1.011-1.162-1.007-1.16Zm5.649,12.979l-1.012,1.162,1.012,1.162,1.011-1.162-1.011-1.162Zm0-6.489l-1.012,1.162,1.012,1.162,1.011-1.162-1.011-1.162Zm0-6.49l-1.012,1.162,1.012,1.162,1.011-1.162-1.011-1.162Zm5.647,15.303l1.011-1.162-1.011-1.162-1.011,1.162,1.011,1.162Zm0-6.489l1.011-1.162-1.011-1.162-1.011,1.162,1.011,1.162Zm0-6.491l1.011-1.162-1.011-1.162-1.011,1.161,1.011,1.163Zm6.032,11.1l-.39-.44-1.01,1.16,.08,.09,1.32-.81Zm-.385-4.609l1.012-1.162-1.012-1.162-1.011,1.162,1.011,1.162Zm0-6.491l1.012-1.162-1.012-1.162-1.011,1.162,1.011,1.162Z" fill="#232639"/><polygon points="91.943 7.3 67.913 12.37 34.053 31.67 32.733 32.42 26.283 23.34 63.533 10.78 91.943 7.3" fill="#fff"/><polygon points="7.583 33.36 1.023 34.76 2.063 31.85 5.953 30.55 7.583 33.36" fill="#dfecfc"/><polygon points="32.733 32.42 29.933 34.01 23.993 46.09 17.373 50.27 12.153 22.73 16.953 20.64 16.963 20.64 22.613 18.17 26.283 23.34 32.733 32.42" fill="#fff"/><polygon points="55.143 29.08 55.203 29.05 43.343 44.6 34.443 46.8 34.053 31.67 67.913 12.37 55.143 29.08" fill="#fff"/><polygon points="91.943 7.3 55.203 29.05 67.913 12.37 91.943 7.3" fill="#dfecfc"/><polygon points="34.293 41.24 23.433 47.24 23.993 46.09 29.933 34.01 32.733 32.42 34.053 31.67 34.293 41.24" fill="#dfecfc"/><polygon points="17.373 50.27 7.583 33.36 5.953 30.55 .633 21.37 11.403 16.57 16.453 20.27 16.953 20.64 12.153 22.73 17.373 50.27" fill="#dfecfc"/><path d="M92.493,7.592c.021-.04,.041-.078,.053-.121,.009-.031,.011-.062,.015-.095,.006-.045,.008-.089,.004-.135-.001-.015,.004-.03,.001-.045-.003-.021-.016-.037-.021-.056-.006-.023-.005-.046-.013-.069-.008-.019-.022-.033-.032-.051-.016-.033-.034-.062-.056-.091-.025-.034-.053-.063-.084-.091-.025-.022-.049-.042-.077-.06-.039-.025-.079-.043-.122-.06-.027-.01-.053-.021-.082-.028-.048-.011-.096-.012-.145-.012-.023,0-.045-.008-.068-.006l-28.41,3.48c-.043,.005-.085,.015-.125,.029L26.528,22.59l-3.399-4.787c-.174-.244-.494-.333-.769-.213l-5.322,2.327-5.26-3.857c-.184-.133-.425-.158-.631-.067L.375,20.792c-.164,.073-.289,.212-.344,.383-.056,.17-.036,.357,.054,.512l4.929,8.509-3.152,1.053c-.184,.062-.33,.205-.395,.387l-1.04,2.91c-.077,.216-.031,.457,.12,.629,.122,.139,.296,.216,.476,.216,.044,0,.088-.004,.132-.014l6.107-1.303,9.564,16.511c.008,.014,.023,.019,.032,.032,.036,.053,.082,.091,.132,.131,.035,.028,.064,.059,.103,.079,.011,.005,.017,.017,.028,.022,.078,.034,.161,.049,.244,.05l.008,.002c.074,0,.148-.013,.221-.04,.03-.011,.053-.032,.08-.047,.012-.006,.026-.004,.037-.011l5.167-3.262c.031,.057,.07,.11,.119,.156,.121,.115,.277,.174,.436,.174,.104,0,.21-.026,.306-.079l9.955-5.5,.117,4.523c.005,.192,.097,.371,.249,.487,.111,.085,.246,.129,.383,.129,.051,0,.102-.006,.152-.018l8.9-2.201c.14-.034,.264-.116,.351-.23l11.786-15.452L92.265,7.845c.006-.004,.01-.01,.016-.014,.027-.018,.048-.041,.072-.062,.034-.03,.069-.059,.095-.095,.019-.025,.03-.053,.045-.081Zm-28.82,3.808l13.763-1.686-9.63,2.032h-.003l-.021,.005c-.064,.013-.126,.037-.183,.069L33.74,31.12l-.823,.467-.28-.394-5.345-7.526L63.674,11.4Zm-41.279,7.555l3.37,4.745,.003,.006,5.689,8.008,.356,.501-2.191,1.245c-.11,.062-.199,.157-.255,.271l-5.862,11.92-5.683,3.588-4.953-26.13,4.282-1.864c.023-.007,.045-.016,.066-.025l5.179-2.264ZM2,33.905l.555-1.552,3.107-1.038,.933,1.61-4.594,.98Zm6.135-.845c-.003-.005-.002-.012-.005-.017l-1.63-2.81-.009-.01L1.532,21.662l9.792-4.364,4.369,3.201-3.794,1.652c-.271,.118-.424,.408-.369,.698l4.529,23.893-7.925-13.68Zm16.746,12.657l5.533-11.253,2.631-1.494,.035-.02,.366-.208,.204,8.13-8.77,4.845Zm18.094-1.678l-7.92,1.958-.36-13.965,30.203-17.216,.619-.353-10.876,14.232c-.039,.051-.068,.106-.087,.164l-11.578,15.18Zm25.299-31.099l20.044-4.229-30.645,18.142,10.601-13.913Z" fill="#232639"/></svg>
