<svg xmlns="http://www.w3.org/2000/svg" viewBox="0 0 48 48"><path d="M0,0H48V48H0V0Z" fill="#635bff" fill-rule="evenodd"/><path d="M22.128,18.66c0-1.128,.924-1.572,2.46-1.572,2.208,0,4.992,.672,7.2,1.86v-6.816c-2.412-.96-4.788-1.332-7.188-1.332-5.892,0-9.804,3.072-9.804,8.208,0,8.004,11.028,6.732,11.028,10.188,0,1.332-1.164,1.764-2.784,1.764-2.412,0-5.484-.984-7.92-2.316v6.9c2.7,1.164,5.424,1.656,7.92,1.656,6.036,0,10.188-2.988,10.188-8.184-.048-8.64-11.1-7.104-11.1-10.356h0Z" fill="#fff" fill-rule="evenodd"/></svg>