<svg id="uuid-847fd1ad-38be-46ef-ba86-0d894ef2b929" xmlns="http://www.w3.org/2000/svg" viewBox="0 0 96 87.715"><path d="m32.669,11.045c.928-2.436,2.204-4.678,4.098-6.495,7.578-7.384,20.104-5.529,25.246,3.75,3.866,7.036,7.964,13.918,11.947,20.878,6.65,11.56,13.377,23.12,19.95,34.719,5.529,9.704-.464,21.96-11.444,23.623-6.727,1.005-13.029-2.088-16.509-8.119-5.838-10.168-11.715-20.336-17.553-30.466-.116-.232-.271-.425-.425-.619-.619-.503-.889-1.237-1.276-1.894-2.59-4.562-5.258-9.086-7.848-13.609-1.662-2.938-3.402-5.838-5.065-8.776-1.508-2.629-2.204-5.49-2.126-8.506.116-1.546.309-3.093,1.005-4.485" fill="#3c8bd9" stroke-width="0"/><path d="m32.669,11.045c-.348,1.392-.657,2.784-.735,4.253-.116,3.248.696,6.263,2.32,9.086,4.253,7.307,8.506,14.653,12.72,21.999.387.657.696,1.315,1.083,1.933-2.32,4.021-4.639,8.003-6.998,12.024-3.248,5.606-6.495,11.251-9.781,16.857-.155,0-.193-.077-.232-.193-.039-.309.077-.58.155-.889,1.585-5.799.271-10.941-3.712-15.349-2.436-2.668-5.529-4.176-9.086-4.678-4.639-.657-8.738.541-12.411,3.441-.657.503-1.083,1.237-1.856,1.624-.155,0-.232-.077-.271-.193,1.856-3.209,3.673-6.418,5.529-9.627,7.655-13.3,15.31-26.599,23.004-39.861.077-.155.193-.271.271-.425" fill="#fabc04" stroke-width="0"/><path d="m4.02,61.073c.735-.657,1.43-1.353,2.204-1.972,9.395-7.423,23.507-2.049,25.556,9.704.503,2.822.232,5.529-.619,8.235-.039.232-.077.425-.155.657-.348.619-.657,1.276-1.044,1.894-3.441,5.683-8.506,8.506-15.156,8.08-7.616-.541-13.609-6.263-14.653-13.841-.503-3.673.232-7.114,2.126-10.284.387-.696.851-1.315,1.276-2.01.193-.155.116-.464.464-.464" fill="#34a852" stroke-width="0"/><path d="m4.02,61.073c-.155.155-.155.425-.425.464-.039-.271.116-.425.271-.619l.155.155" fill="#fabc04" stroke-width="0"/><path d="m31.006,77.698c-.155-.271,0-.464.155-.657.039.039.116.116.155.155l-.309.503" fill="#e1c025" stroke-width="0"/></svg>
