<svg xmlns="http://www.w3.org/2000/svg" viewBox="0 0 208 84"><path fill="#8f42ec" d="M56.52,27.93a16.11,16.11,0,0,0-5.84-4.09,20.15,20.15,0,0,0-7.85-1.53H31.76a4.2,4.2,0,0,0-4.2,4.2v31a4.2,4.2,0,0,0,4.2,4.2H42.83a19.69,19.69,0,0,0,8-1.79,16.37,16.37,0,0,0,5.84-4.18,18,18,0,0,0,3.53-6.23A23.11,23.11,0,0,0,61.31,42a24.85,24.85,0,0,0-1.2-7.88A17.62,17.62,0,0,0,56.52,27.93Zm-2,19.16a12,12,0,0,1-2.19,4.07,9.92,9.92,0,0,1-3.57,2.69,12.21,12.21,0,0,1-5,1.27h-9.6V28.88h9.6A12,12,0,0,1,48.65,30a9.67,9.67,0,0,1,3.57,2.61,11.75,11.75,0,0,1,2.24,4C55.62,40.16,55,45.5,54.48,47.09ZM42,0A42,42,0,1,0,84,42,42,42,0,0,0,42,0Zm0,77.44A35.44,35.44,0,1,1,77.44,42,35.44,35.44,0,0,1,42,77.44Zm153.13-50V61.1a1.87,1.87,0,0,1-3.73,0V27.43a1.87,1.87,0,0,1,3.73,0Zm-47.55,0V61.1a1.71,1.71,0,1,1-3.42,0V27.43a1.71,1.71,0,1,1,3.42,0Zm-11.84,32c-1.55,0-1.52-1.46-1.83-2V14.48a1.71,1.71,0,1,0-3.42,0V32.8A16.47,16.47,0,0,0,117,25.35c-9.36,0-17,8.41-17,18.79S107.61,63,117,63a16.47,16.47,0,0,0,13.52-7.45v1.86A5.34,5.34,0,0,0,135.83,63a1.75,1.75,0,0,0,1.74-1.8A1.8,1.8,0,0,0,135.74,59.39Zm-18.77,0c-7.4,0-13.4-6.83-13.4-15.25s6-15.25,13.4-15.25,13.39,6.83,13.39,15.25S124.33,59.39,117,59.39Zm91,1a2.52,2.52,0,1,1-2.52-2.51A2.52,2.52,0,0,1,208,60.35ZM148.36,14.79a2.52,2.52,0,1,1-2.52-2.52A2.51,2.51,0,0,1,148.36,14.79Zm47.43,0a2.52,2.52,0,1,1-2.52-2.52A2.51,2.51,0,0,1,195.79,14.79Zm-10,13.2L170.83,61.81v0c0,.07-.09.16-.12.22a1.62,1.62,0,0,1-.13.19l0,0c0,.06-.09.09-.16.15a.67.67,0,0,1-.15.13s0,0-.06,0l-.19.09h0a2.18,2.18,0,0,0-.22.06h-.06l-.19,0s0,0-.06,0l-.22,0-.21,0s0,0-.07,0a.38.38,0,0,1-.18,0h-.07a.43.43,0,0,1-.21-.06,0,0,0,0,0,0,0,.76.76,0,0,0-.16-.09s0,0-.06,0-.09-.1-.16-.13h0c-.06,0-.09-.09-.15-.15l0,0a.7.7,0,0,1-.13-.16v0a.8.8,0,0,1-.12-.22v0L152.62,28a1.79,1.79,0,1,1,3.26-1.46l13.36,30.12L182.58,26.5a1.78,1.78,0,0,1,2.36-.91A1.75,1.75,0,0,1,185.78,28Z"/></svg>