<svg xmlns="http://www.w3.org/2000/svg" height="40" viewBox="0 0 309.567 40"><path d="M160.506,2.191h3.669L156.832,29.53h-3.587l-5.86-18.046h-.161l-5.94,18.046h-3.591L130.124,2.191h3.671l5.782,21.482h.159l5.935-17.811h3.281l5.94,17.811h.159Z" fill="#5f6368"/><path d="M163.787,20.159a9.782,9.782,0,0,1,2.735-7.109,9.272,9.272,0,0,1,6.958-2.814,9.025,9.025,0,0,1,6.868,2.813,10.707,10.707,0,0,1,0,14.294,9.178,9.178,0,0,1-6.868,2.814,9.434,9.434,0,0,1-6.952-2.813,9.875,9.875,0,0,1-2.735-7.185m3.514,0a6.813,6.813,0,0,0,1.8,4.921,6.04,6.04,0,0,0,8.539.209l0,0c.071-.066.141-.135.207-.207a6.561,6.561,0,0,0,1.72-4.921,6.9,6.9,0,0,0-1.72-4.848,6.044,6.044,0,0,0-8.541-.207c-.071.069-.135.135-.207.207a6.709,6.709,0,0,0-1.8,4.848m21.8,9.373H185.58V10.783h3.36v3.124h.155a4.892,4.892,0,0,1,2.264-2.578,7.229,7.229,0,0,1,3.282-1.094,6.52,6.52,0,0,1,2.578.469l-1.094,3.438a6.337,6.337,0,0,0-2.031-.238,4.693,4.693,0,0,0-3.514,1.564,5.24,5.24,0,0,0-1.478,3.75Zm26.248,0h-4.3l-5.783-8.826-2.892,2.888v5.94h-3.517V2.2h3.517V19.06l8.123-8.281h4.452v.156l-7.263,7.272,7.656,11.167Z" fill="#5f6368"/><path d="M230.573,24.376a5.181,5.181,0,0,1-2.11,4.138A8.067,8.067,0,0,1,223,30.156a8.323,8.323,0,0,1-4.921-1.481,8.114,8.114,0,0,1-3.049-3.827l3.127-1.328a6.153,6.153,0,0,0,1.953,2.578,4.832,4.832,0,0,0,2.889.943,5.13,5.13,0,0,0,2.813-.7,2.249,2.249,0,0,0,1.172-1.72q0-1.8-2.735-2.657l-3.274-.8q-5.466-1.407-5.465-5.313a4.9,4.9,0,0,1,2.108-4.141,8.7,8.7,0,0,1,5.313-1.561,8.446,8.446,0,0,1,4.532,1.25,6.729,6.729,0,0,1,2.812,3.127l-3.124,1.328a3.989,3.989,0,0,0-1.718-1.875,5.477,5.477,0,0,0-2.735-.625,4.528,4.528,0,0,0-2.5.625A2.018,2.018,0,0,0,219.1,15.7q0,1.64,3.049,2.264l2.813.781q5.619,1.329,5.621,5.624m12.189,5.779a8.26,8.26,0,0,1-3.749-.858,5.958,5.958,0,0,1-2.579-2.333h-.156l.156,2.578v8.281h-3.516V10.782h3.36v2.657h.156a5.961,5.961,0,0,1,2.578-2.343,8.426,8.426,0,0,1,3.827-.861,8.082,8.082,0,0,1,6.252,2.889,10.029,10.029,0,0,1,2.656,7.031,10.126,10.126,0,0,1-2.669,7.109,8.077,8.077,0,0,1-6.249,2.891m-.624-3.2a5.588,5.588,0,0,0,4.3-1.877,7.792,7.792,0,0,0,0-9.762,5.253,5.253,0,0,0-4.3-1.875,5.588,5.588,0,0,0-4.3,1.875,8.085,8.085,0,0,0,0,9.762,5.589,5.589,0,0,0,4.3,1.877m19.14-16.721a8.911,8.911,0,0,1,6.171,2.03,7.263,7.263,0,0,1,2.264,5.7V29.529h-3.355V26.958h-.163a6.764,6.764,0,0,1-5.86,3.2,7.673,7.673,0,0,1-5.157-1.8,5.788,5.788,0,0,1-2.11-4.61,5.559,5.559,0,0,1,2.19-4.607,9.379,9.379,0,0,1,5.94-1.722,10.828,10.828,0,0,1,5.157,1.094v-.78a3.92,3.92,0,0,0-1.481-3.124,5,5,0,0,0-3.36-1.25,5.387,5.387,0,0,0-4.685,2.5l-3.124-1.953a8.663,8.663,0,0,1,7.577-3.674m-4.533,13.6A2.667,2.667,0,0,0,258,26.093a4.923,4.923,0,0,0,2.733.943,5.5,5.5,0,0,0,3.906-1.639,5.427,5.427,0,0,0,1.8-3.826,7.156,7.156,0,0,0-4.61-1.328,6.221,6.221,0,0,0-3.594,1.014,2.835,2.835,0,0,0-1.4,2.578m24.915,6.33a9.272,9.272,0,0,1-6.952-2.813,10.057,10.057,0,0,1-2.735-7.193A9.782,9.782,0,0,1,274.8,13.05a9.279,9.279,0,0,1,6.961-2.812,8.45,8.45,0,0,1,8.2,5.387l-3.2,1.328a5.276,5.276,0,0,0-5.235-3.516,5.573,5.573,0,0,0-4.218,1.953,6.963,6.963,0,0,0-1.718,4.766A7.243,7.243,0,0,0,277.305,25a5.555,5.555,0,0,0,4.218,1.953,5.47,5.47,0,0,0,5.387-3.514l3.2,1.328a8.563,8.563,0,0,1-3.281,3.985,9.181,9.181,0,0,1-5.077,1.4m18.907,0a8.927,8.927,0,0,1-6.8-2.811,10.053,10.053,0,0,1-2.657-7.188,10.294,10.294,0,0,1,2.571-7.106,8.266,8.266,0,0,1,6.641-2.813,8.546,8.546,0,0,1,6.641,2.656,11.147,11.147,0,0,1,2.5,7.577v.392H294.792a6.292,6.292,0,0,0,1.8,4.452,5.468,5.468,0,0,0,4.218,1.639,5.932,5.932,0,0,0,5.313-3.36l3.124,1.564a9.341,9.341,0,0,1-3.514,3.671,9.543,9.543,0,0,1-5.077,1.328M295.032,17.9H305.8a4.616,4.616,0,0,0-1.561-3.2,5.675,5.675,0,0,0-3.906-1.25,5.068,5.068,0,0,0-3.36,1.172,6.108,6.108,0,0,0-1.953,3.282" fill="#5f6368"/><path d="M15.591,18.437v-4.3H29.808a14.085,14.085,0,0,1,.238,2.656,13.777,13.777,0,0,1-3.674,9.845,14.005,14.005,0,0,1-10.858,4.379A15.508,15.508,0,1,1,15.5,0h.012a14.99,14.99,0,0,1,10.7,4.3l-3.05,2.97A11.217,11.217,0,1,0,15.407,26.8h.1A10.487,10.487,0,0,0,23.4,23.675a8.8,8.8,0,0,0,2.268-5.238Z" fill="#3e81ba"/><path d="M51.683,21.017a10.037,10.037,0,1,1-10.076-10,9.889,9.889,0,0,1,10.076,9.7v.3m-4.452,0a5.636,5.636,0,1,0-11.245,0,5.641,5.641,0,0,0,11.245.913,5.8,5.8,0,0,0,0-.913" fill="#e84335"/><path d="M73.555,21.017a10.039,10.039,0,1,1-10.078-10h0a9.883,9.883,0,0,1,10.073,9.691v.309m-4.452,0a5.637,5.637,0,0,0-11.248-.765,5.426,5.426,0,0,0,0,.765,5.641,5.641,0,1,0,11.248.875,5.808,5.808,0,0,0,0-.875" fill="#f5bc0f"/><path d="M94.491,11.642V29.61c0,7.342-4.374,10.39-9.531,10.39a9.488,9.488,0,0,1-8.826-5.94L79.958,32.5a5.543,5.543,0,0,0,5,3.593c3.36,0,5.387-2.108,5.387-5.86V28.75h-.151a6.789,6.789,0,0,1-5.313,2.264,10.01,10.01,0,0,1,0-20,7.06,7.06,0,0,1,5.313,2.265h.159v-1.64Zm-3.827,9.451c0-3.514-2.343-6.093-5.387-6.093a6.078,6.078,0,0,0,0,12.108h0a5.612,5.612,0,0,0,5.4-5.82c0-.065-.006-.131-.01-.2" fill="#3e81ba"/><path d="M97.539,1.174h4.378V30.468H97.539Z" fill="#319f4f"/><path d="M118.865,24.3l3.442,2.341a10.087,10.087,0,0,1-8.359,4.374,9.758,9.758,0,0,1-9.923-9.59v-.4a9.521,9.521,0,0,1,9.029-9.988c.142-.007.283-.011.425-.012a9.191,9.191,0,0,1,8.513,6.406l.47,1.094-13.355,5.536a5.021,5.021,0,0,0,4.848,3.049,5.645,5.645,0,0,0,4.921-2.813M108.407,20.7l8.9-3.675a3.809,3.809,0,0,0-3.674-2.108,5.416,5.416,0,0,0-5.241,5.588h0a1.037,1.037,0,0,0,.011.193" fill="#e84335"/></svg>