<svg xmlns="http://www.w3.org/2000/svg" viewBox="0 0 144 144"><path d="m126.95,96.67V30.99l-5.96-5.96H23.18l-5.97,5.96v65.52l-15.19,17.42h-.02l5.01,5.13h129.98l5.01-5.13-15.05-17.26ZM21.65,30.02h100.61v61.81H21.65V30.02Z" class="sgmaincolor"/><g id="uuid-96ce47a8-be20-4068-89af-38226ad82fb5"><path d="m1.64,113.6s-.08.08-.1.14c-.06.13-.05.28.02.4-.08-.18-.05-.39.08-.54Z"/></g><g id="uuid-d228ff1e-58fa-4b8e-8f04-fbd3404ef1e6"><path d="m142.48,113.79s-.01-.03-.02-.05c-.02-.05-.05-.09-.08-.13h0s-14.92-17.11-14.92-17.11V30.99c0-.13-.06-.26-.15-.35l-5.97-5.96c-.09-.1-.22-.15-.35-.15H23.18c-.14,0-.26.05-.36.15l-5.96,5.96c-.1.09-.15.22-.15.35v65.33L1.72,113.52s-.06.05-.08.09c-.13.15-.16.36-.08.54,0,.05.04.1.08.14l5.02,5.13c.09.09.22.15.35.15h129.98c.13,0,.26-.06.35-.15l5.02-5.13s.01-.01.02-.02c.03-.04.06-.08.08-.13h0c.03-.07.04-.14.04-.2,0-.05,0-.09-.02-.14ZM17.71,31.21l5.67-5.67h97.4l5.68,5.67v64.47H17.71V31.21Zm119.07,87.36H7.22l-4.03-4.13h55.02l1.29,1.28h24.39l1.29-1.28h55.63l-4.03,4.13Zm-95.65-5.13l4.71-7.48h53.53l3.61,7.48h-61.85Zm62.96,0l-3.86-8h23.48l-4.55-5.88H24.84l-4.55,5.88h24.7l-5.04,8H3.12l14.04-16.1h109.7l14.04,16.1h-36.81Z"/></g><g id="uuid-6f3067a0-0c9f-4f36-911b-f5d1cbeca128"><path d="m122.26,92.32H21.65c-.28,0-.5-.22-.5-.5V30.02c0-.28.22-.5.5-.5h100.61c.28,0,.5.22.5.5v61.8c0,.28-.22.5-.5.5Zm-100.11-1h99.61V30.52H22.15v60.8Z"/></g><path d="m112.09,35.11H31.36c-3.36,0-6.1,2.74-6.1,6.1v40.7c0,3.36,2.74,6.1,6.1,6.1h80.73c3.36,0,6.09-2.74,6.09-6.1v-40.7c0-3.36-2.73-6.1-6.09-6.1Zm-80.73,1h80.73c2.77,0,5.02,2.22,5.08,4.97H26.27c.06-2.75,2.32-4.97,5.09-4.97Zm85.82,45.8c0,2.81-2.28,5.1-5.09,5.1H31.36c-2.81,0-5.1-2.29-5.1-5.1v-39.83h90.92v39.83Z"/><g id="uuid-b8289759-615a-473b-8063-505498cd044e"><path d="m29.6,38.56c0,.37-.3.67-.67.67-.37,0-.67-.3-.67-.67,0-.37.3-.67.67-.67.37,0,.67.3.67.67h0"/></g><g id="uuid-c73acad5-f168-4514-aac7-2ead77ed4c31"><path d="m31.87,38.56c0,.37-.3.67-.67.67-.37,0-.67-.3-.67-.67,0-.37.3-.67.67-.67.37,0,.67.3.67.67h0"/></g><g id="uuid-1af67385-42e2-4037-8da0-aed40824027f"><path d="m34.15,38.56c0,.37-.3.67-.67.67-.37,0-.67-.3-.67-.67,0-.37.3-.67.67-.67.37,0,.67.3.67.67h0"/></g><g id="uuid-684cef90-c8e5-4cb3-8ab0-efa772e65a95"><path d="m132.47,108.76s-.08.08-.1.14c-.06.13-.05.28.02.4-.08-.18-.05-.39.08-.54Z"/></g><line x1="83.42" y1="24.43" x2="78.25" y2="24.88" fill="none"/><path d="m54.99,60.55h7.57v3.71l6.96-10.21v-6.96h5.1l1.86,1.86v5.1l-1.39,6.5h12.07l1.86,1.39v2.32l-1.86,1.39,1.86,1.22v2.03l-1.86,1.39,1.86,1.39v1.88l-1.86,1.37,1.86,1.39v2.32l-1.86,1.39h-19.96l-4.65-3.25v3.25s-7.56,0-7.56,0v-19.49Z" class="sgmaincolor"/><path d="m87.16,80.54h-19.96c-.1,0-.2-.03-.29-.09l-3.86-2.7v2.29c0,.13-.04.26-.14.35s-.22.15-.35.15h-7.58c-.28,0-.5-.22-.5-.5v-19.49c0-.28.22-.5.5-.5h7.58c.28,0,.5.22.5.5v2.09l5.96-8.74v-6.81c0-.28.22-.5.5-.5h5.1c.13,0,.26.05.35.15l1.86,1.86c.09.09.15.22.15.35v5.1s0,.07-.01.1l-1.26,5.89h11.45c.11,0,.21.04.3.1l1.86,1.39c.13.09.2.24.2.4v2.32c0,.16-.07.31-.2.4l-1.29.97,1.26.83c.14.09.23.25.23.42v2.03c0,.16-.07.31-.2.4l-1.32.99,1.32.99c.13.09.2.24.2.4v1.88c0,.16-.08.31-.2.4l-1.32.97,1.32.99c.13.09.2.24.2.4v2.32c0,.16-.07.31-.2.4l-1.86,1.39c-.09.06-.19.1-.3.1Zm-19.8-1h19.63l1.52-1.14v-1.82l-1.66-1.24c-.13-.09-.2-.24-.2-.4s.08-.31.2-.4l1.65-1.22v-1.38l-1.66-1.24c-.13-.09-.2-.24-.2-.4s.07-.31.2-.4l1.66-1.24v-1.51l-1.63-1.07c-.14-.09-.22-.24-.23-.4,0-.16.07-.32.2-.42l1.66-1.24v-1.82l-1.52-1.14h-11.9c-.15,0-.29-.07-.39-.19-.09-.12-.13-.27-.1-.42l1.38-6.45v-4.84l-1.56-1.56h-4.4v6.46c0,.1-.03.2-.09.28l-6.96,10.21c-.12.18-.35.26-.56.2-.21-.06-.35-.26-.35-.48v-3.21h-6.58v18.49h6.57v-2.75c0-.19.09-.36.26-.44.16-.09.37-.07.52.03l4.52,3.16Z"/><path d="m62.56,77.3c-.28,0-.5-.22-.5-.5v-12.53c0-.28.22-.5.5-.5s.5.22.5.5v12.53c0,.28-.22.5-.5.5Z"/><path d="m87.16,66.16h-1.39c-.28,0-.5-.22-.5-.5s.22-.5.5-.5h1.39c.28,0,.5.22.5.5s-.22.5-.5.5Z"/><path d="m87.16,70.8h-1.39c-.28,0-.5-.22-.5-.5s.22-.5.5-.5h1.39c.28,0,.5.22.5.5s-.22.5-.5.5Z"/><path d="m87.16,75.44h-1.39c-.28,0-.5-.22-.5-.5s.22-.5.5-.5h1.39c.28,0,.5.22.5.5s-.22.5-.5.5Z"/></svg>
