<svg xmlns="http://www.w3.org/2000/svg" viewBox="0 0 144 144"><path d="m133.44,108.89H10.56c-5,0-9.06-4.07-9.06-9.06v-61.92c0-5,4.07-9.06,9.06-9.06h122.88c5,0,9.06,4.07,9.06,9.06v61.92c0,5-4.07,9.06-9.06,9.06ZM10.56,29.85c-4.45,0-8.06,3.62-8.06,8.06v61.92c0,4.45,3.62,8.06,8.06,8.06h122.88c4.45,0,8.06-3.62,8.06-8.06v-61.92c0-4.45-3.62-8.06-8.06-8.06H10.56Z"/><path d="m7.84,33.83c0,.57-.46,1.03-1.03,1.03-.57,0-1.03-.46-1.03-1.03s.46-1.03,1.03-1.03,1.03.46,1.03,1.03h0"/><path d="m11.31,33.83c0,.57-.46,1.03-1.03,1.03-.57,0-1.03-.46-1.03-1.03s.46-1.03,1.03-1.03,1.03.46,1.03,1.03h0"/><path d="m14.78,33.83c0,.57-.46,1.03-1.03,1.03-.57,0-1.03-.46-1.03-1.03s.46-1.03,1.03-1.03,1.03.46,1.03,1.03h0"/><path d="m141.8,38.93H2.33c-.28,0-.5-.22-.5-.5s.22-.5.5-.5h139.47c.28,0,.5.22.5.5s-.22.5-.5.5Z"/><path d="m92.53,50.86s-40.5,4.36-40.52,4.37c-.01,0-14.29,15.82-14.29,15.82l7.46-.68.07,21.37c.49.15,23.61,7.17,23.61,7.17.07.02,29.95-7.14,30.45-7.26l.04-19.47,8.18-1.13s-14.95-20.17-15-20.2" class="sgmaincolor"/><path d="m45.67,70.33v.23l-.11.13s-.01.01-.02.02c-.03.03-.06.06-.1.08-.02.02-.04.03-.06.03-.02.01-.03.02-.05.02-.03.02-.06.02-.09.02t-.02.01h-.05l-.5.05v-.54c0-.11.03-.23.11-.32l.04-.04c.06-.06.14-.11.23-.13h.07s.03-.02.05-.02c.07,0,.13.01.19.04.17.07.29.22.31.42Z"/><path d="m68.35,76.88v.04l-.11.02s.08-.03.11-.06Z"/><path d="m51.62,54.93s-.04.04-.05.07c0-.01.01-.02.01-.03l.04-.04Z"/><path d="m51.94,54.74s-.08.02-.12.04c.01-.01.02-.02.03-.02.03-.01.06-.02.09-.02Z"/><path d="m51.69,54.86s-.05.04-.07.07l.02-.03s.03-.03.05-.04Z"/><path d="m51.73,54.83s-.01.01-.01.01h0s.01-.01.01-.01Z"/><path d="m51.82,54.78s-.06.02-.09.05c.01-.02.03-.03.05-.04,0,0,.02,0,.04,0Z"/><path d="m51.94,54.74s-.08.02-.12.04c.01-.01.02-.02.03-.02.03-.01.06-.02.09-.02Z"/><path d="m37.67,70.56l1.27-.12-.85.95c-.07.08-.17.14-.28.16h-.05s-.05.01-.05.01c-.06,0-.12-.01-.18-.04-.06-.02-.11-.05-.15-.09-.05-.04-.08-.09-.11-.15-.01-.01-.01-.02-.02-.04s0-.04-.02-.05c-.01-.03-.01-.06-.01-.09,0-.08,0-.16.03-.23.02-.04.04-.08.07-.12.08-.1.21-.17.35-.19Z"/><path d="m51.62,54.93s-.04.04-.05.07c0-.01.01-.02.01-.03l.04-.04Z"/><path d="m51.73,54.83s-.01.01-.01.01h0s.01-.01.01-.01Z"/><path d="m51.82,54.78s-.06.02-.09.05c.01-.02.03-.03.05-.04,0,0,.02,0,.04,0Z"/><path d="m107.92,70.76l-14.7-19.84c-.06-.08-.14-.13-.22-.16-.04-.25-.27-.42-.53-.4l-40.44,4.37h-.08s-.01.01-.01.01c-.04.01-.08.02-.12.04-.03,0-.06.02-.09.05-.01,0-.01.01-.01.01h0s-.02,0-.02.02c-.03.02-.05.04-.07.07-.02.02-.04.04-.05.07,0-.01.01-.02.01-.03l-14.24,15.75s0,.02-.02.03c.08-.1.21-.17.35-.19l1.27-.12h.01l13.02-14.42,2.06,2.71-9.12,11.17h.14s.07-.02.07-.02c.02-.01.03-.01.05-.01.07,0,.13.01.19.04.17.07.29.22.31.42v.23l8.98-11.01,10.51,13.87-6.09-.58s-.07-.01-.1-.01l-8.2-.78s-.07-.01-.1-.01c-.05,0-.1.01-.15.03-.02,0-.03,0-.05.01-.05.02-.09.05-.13.09-.02.02-.05.04-.07.07-.01.02-.03.04-.04.07-.04.07-.06.15-.06.23l.06,20.2-4.49-1.36-.07-20.82-.11.13s-.01.01-.02.02c-.03.03-.06.06-.1.08-.02.02-.04.03-.06.03-.02.01-.03.02-.05.02-.03.02-.06.02-.09.02t-.02.01h-.05l-.5.05.07,20.83c0,.22.15.41.36.48l13.63,4.14s.01.01.02.01c.04.01.08.02.12.03l9.79,2.97c.06.03.12.04.19.04.04,0,.08,0,.12-.01l30.45-7.27c.22-.05.38-.25.38-.48l.05-19.05,7.55-1.03s.05-.01.07-.02h.05c.1,0,.21-.03.3-.1.22-.17.27-.48.1-.7Zm-49.46,24.48l-7.23-2.19-.06-19.97,7.3.7v21.46Zm9.89,3l-8.89-2.7v-21.66s6.52.62,6.52.62l1.67,2.2.04.06c.05.06.09.1.15.13.03.02.06.03.1.04.05.02.1.03.15.03s.1-.01.15-.02c.04-.02.08-.03.11-.06v21.36Zm30.45-6.98l-29.45,7.03v-21.5l29.5-4.04-.05,18.51Zm-29.95-15.41h-.1s-.44.07-.44.07l-13.25-17.49-2.12-2.8,39.4-4.24s.05.09.08.13l14.2,19.16-37.77,5.17Z"/><path d="m45.67,70.33v.04c0,.12-.04.23-.11.32t-.02.02s-.06.06-.1.08c-.02.02-.04.03-.06.03-.02.01-.03.02-.05.02-.03.02-.06.02-.09.02t-.02.01h-.05l-.5.05-6.86.63h-.05s-.05.01-.05.01c-.06,0-.12-.01-.18-.04-.06-.02-.11-.05-.15-.09-.05-.04-.08-.09-.11-.15-.01-.01-.01-.02-.02-.04s0-.04-.02-.05c-.01-.03-.01-.06-.01-.09,0-.08,0-.16.03-.23.02-.04.04-.08.07-.12.08-.1.21-.17.35-.19l1.27-.12h.01l5.96-.54h.14s.07-.02.07-.02c.08-.01.16,0,.24.03.17.07.29.22.31.42Z"/><path d="m45.67,70.33v.23l-.11.13s-.01.01-.02.02c-.03.03-.06.06-.1.08-.02.02-.04.03-.06.03-.02.01-.03.02-.05.02-.03.02-.06.02-.09.02-.03.01-.05.01-.07.01-.11,0-.22-.03-.32-.11-.12-.1-.18-.23-.18-.38,0-.11.03-.23.11-.32l.04-.04.09-.12h.14s.07-.02.07-.02c.02-.01.03-.01.05-.01.07,0,.13.01.19.04.17.07.29.22.31.42Z"/></svg>
