<svg xmlns="http://www.w3.org/2000/svg" viewBox="0 0 144 144"><path d="m126.95,96.62V30.95l-5.96-5.96H23.18l-5.97,5.96v65.52l-15.19,17.42h-.02l5.01,5.13h129.98l5.01-5.13-15.05-17.26ZM21.65,29.97h100.61v61.81H21.65V29.97Z" class="sgmaincolor"/><g id="uuid-7a744dd0-ee16-45f3-9887-bf8bcffb8384"><path d="m1.64,113.55s-.08.08-.1.14c-.06.13-.05.28.02.4-.08-.18-.05-.39.08-.54Z"/></g><g id="uuid-b0a1b1ff-5cd2-4022-ae1d-dd0a0b5cd31d"><path d="m142.48,113.74s-.01-.03-.02-.05c-.02-.05-.05-.09-.08-.13h0s-14.92-17.11-14.92-17.11V30.95c0-.13-.06-.26-.15-.35l-5.97-5.96c-.09-.1-.22-.15-.35-.15H23.18c-.14,0-.26.05-.36.15l-5.96,5.96c-.1.09-.15.22-.15.35v65.33L1.72,113.47s-.06.05-.08.09c-.13.15-.16.36-.08.54,0,.05.04.1.08.14l5.02,5.13c.09.09.22.15.35.15h129.98c.13,0,.26-.06.35-.15l5.02-5.13s.01-.01.02-.02c.03-.04.06-.08.08-.13h0c.03-.07.04-.14.04-.2,0-.05,0-.09-.02-.14ZM17.71,31.16l5.67-5.67h97.4l5.68,5.67v64.47H17.71V31.16Zm119.07,87.36H7.22l-4.03-4.13h55.02l1.29,1.28h24.39l1.29-1.28h55.63l-4.03,4.13Zm-95.65-5.13l4.71-7.48h53.53l3.61,7.48h-61.85Zm62.96,0l-3.86-8h23.48l-4.55-5.88H24.84l-4.55,5.88h24.7l-5.04,8H3.12l14.04-16.1h109.7l14.04,16.1h-36.81Z"/></g><g id="uuid-ea777775-8da8-47f4-8715-4b0cc993f5bf"><path d="m122.26,92.27H21.65c-.28,0-.5-.22-.5-.5V29.97c0-.28.22-.5.5-.5h100.61c.28,0,.5.22.5.5v61.8c0,.28-.22.5-.5.5Zm-100.11-1h99.61V30.47H22.15v60.8Z"/></g><g id="uuid-3586f178-1296-486e-9903-28283c7de99b"><circle cx="71.96" cy="60.87" r="14.66" class="sgmaincolor"/><path d="m71.96,76.03c-8.36,0-15.16-6.8-15.16-15.16s6.8-15.16,15.16-15.16,15.16,6.8,15.16,15.16-6.8,15.16-15.16,15.16Zm0-29.32c-7.81,0-14.16,6.35-14.16,14.16s6.35,14.16,14.16,14.16,14.16-6.35,14.16-14.16-6.35-14.16-14.16-14.16Z"/></g><g id="uuid-b659301c-d1dc-4202-afd1-f8f5aedf2286"><path d="m72.47,56.62v3.76h3.61v.96h-3.61v3.79h-1.02v-3.79h-3.61v-.96h3.61v-3.76h1.02Z"/></g></svg>
