<svg xmlns="http://www.w3.org/2000/svg" viewBox="0 0 144 144"><path d="m101.32,125.54c-.13,0-.25-.05-.35-.14-.2-.19-.2-.51,0-.71l25.49-25.83c.19-.2.51-.2.71,0s.2.51,0,.71l-25.49,25.83c-.1.1-.23.15-.36.15Z"/><path d="m99.88,140.75c-3.83,0-7.52-1.55-10.07-4.06-4.83-4.77-6.25-13.75-.13-19.95l11.15-11.3c.19-.2.51-.2.71,0,.2.19.2.51,0,.71l-11.15,11.3c-5.69,5.76-4.36,14.11.12,18.54,4.49,4.43,12.85,5.64,18.54-.12l11.15-11.3c.19-.2.51-.2.71,0s.2.51,0,.71l-11.15,11.3c-2.9,2.94-6.44,4.19-9.88,4.19Z"/><path d="m126.93,118.95c-.13,0-.25-.05-.35-.14-.2-.19-.2-.51,0-.71l11.15-11.3c5.69-5.76,4.36-14.11-.12-18.54-2.33-2.3-5.59-3.67-8.94-3.77-3.57-.1-7.01,1.28-9.59,3.89l-11.15,11.3c-.19.2-.51.2-.71,0-.2-.19-.2-.51,0-.71l11.15-11.3c2.77-2.81,6.46-4.3,10.33-4.19,3.6.1,7.11,1.58,9.62,4.06,4.83,4.77,6.25,13.75.13,19.95l-11.15,11.3c-.1.1-.23.15-.36.15Z"/><polygon points="77.09 99.1 77.09 75.89 64.87 64.23 39.98 64.23 15.1 64.23 2 76.02 2 98.82 20.1 112.4 20.1 82.99 20.1 124.84 58.76 124.75 58.76 112.54 77.09 99.1" class="sgmaincolor"/><circle cx="39.98" cy="40.75" r="22.27" class="sgmaincolor"/><path d="m39.99,63.51c-12.55,0-22.77-10.21-22.77-22.77s10.21-22.77,22.77-22.77,22.77,10.21,22.77,22.77-10.21,22.77-22.77,22.77Zm0-44.53c-12,0-21.77,9.76-21.77,21.77s9.76,21.77,21.77,21.77,21.77-9.76,21.77-21.77-9.76-21.77-21.77-21.77Z"/><path d="m77.43,75.53l-12.2-11.64s-.02-.03-.04-.04c-.03-.03-.07-.05-.11-.07-.01-.01-.02-.01-.04-.02-.06-.02-.11-.03-.17-.03H15.1c-.05,0-.1,0-.14.02-.03.01-.06.02-.08.03-.03.02-.06.04-.09.06-.02.02-.04.03-.06.05l-13.06,11.76c-.11.09-.17.23-.17.37v22.8c0,.16.07.31.2.4l17.9,13.43v12.19c0,.13.05.26.15.35.09.1.22.15.35.15l38.66-.09c.28,0,.5-.22.5-.5v-11.96l18.12-13.29c.13-.09.2-.24.2-.4v-23.21c0-.14-.05-.27-.15-.36Zm-14.58-10.8l-22.41,11.82-23.27-11.82h45.68Zm13.73,34.12l-17.32,12.7v-28.33c0-.28-.22-.5-.5-.5s-.5.22-.5.5v41.03l-37.66.09v-41.35c0-.28-.22-.5-.5-.5s-.5.22-.5.5v28.41l-17.1-12.83v-22.33l12.67-11.41,25.04,12.73s.07.03.1.03c.04.01.09.02.13.02s.09-.01.13-.02c.03-.01.07-.02.1-.04l.05-.02,24.06-12.69,11.8,11.26v22.75Z"/><path d="m138.06,38.96l-8.81-8.41s-.04-.03-.06-.04c-.03-.03-.07-.05-.12-.07-.06-.02-.11-.03-.17-.03h-15.15c6.23-1.29,10.92-6.82,10.92-13.43,0-7.57-6.15-13.73-13.72-13.73s-13.72,6.16-13.72,13.73c0,6.61,4.69,12.14,10.92,13.43h-15.15s-.1.01-.14.02c-.03.01-.06.02-.08.03-.03.02-.06.04-.09.06-.02.02-.04.03-.06.05l-9.42,8.47c-.1.1-.16.23-.16.38v16.44c0,.16.07.31.2.4l12.85,9.65v8.72c0,.14.06.26.15.36.09.09.22.14.35.14h0l27.89-.06c.27,0,.5-.22.5-.5v-8.56l13.01-9.54c.13-.1.2-.25.2-.4v-16.75c0-.13-.05-.27-.15-.36Zm-39.83-21.98c0-7.02,5.7-12.73,12.72-12.73s12.72,5.71,12.72,12.73-5.71,12.72-12.72,12.72-12.72-5.71-12.72-12.72Zm28.66,14.43l-15.62,8.23-16.2-8.23h31.82Zm10.32,24.4l-12.21,8.96v-20.16c0-.28-.23-.5-.5-.5s-.5.22-.5.5v29.46l-26.9.06v-29.69c0-.28-.22-.5-.5-.5s-.5.22-.5.5v20.22l-12.05-9.05v-15.97l9.02-8.13,17.98,9.14s.07.03.1.03c.04.01.09.02.13.02s.09-.01.13-.02c.05,0,.09-.03.13-.05l17.27-9.11,8.4,8.02v16.27Z"/></svg>
