<svg xmlns="http://www.w3.org/2000/svg" viewBox="0 0 300 220"><rect width="300" height="220" fill="#fff" opacity="0"/><circle cx="128" cy="115" r="102" fill="#cef2cf"/><path d="m241.132,27.851l1.76-2.041,1.76,2.041-1.76,2.042-1.76-2.042Zm1.76,13.21l1.76-2.042-1.76-2.042-1.76,2.042,1.76,2.042Zm0,11.401l1.76-2.041-1.76-2.042-1.76,2.042,1.76,2.041Zm0,11.408l1.76-2.041-1.76-2.042-1.76,2.042,1.76,2.041Zm-9.832,7.321l-1.763,2.042,1.763,2.041,1.76-2.041-1.76-2.042Zm9.832-52.699l1.76-2.042-1.76-2.041-1.76,2.041,1.76,2.042Zm-9.832,41.295l-1.763,2.042,1.763,2.041,1.76-2.041-1.76-2.042Zm11.592-54.744l-1.76-2.041-1.76,2.041,1.76,2.042,1.76-2.042Zm-11.592,43.337l-1.763,2.042,1.763,2.041,1.76-2.041-1.76-2.042Zm-.003-7.317l1.76-2.042-1.76-2.042-1.761,2.042,1.761,2.042Zm9.835,45.618l1.76-2.042-1.76-2.041-1.76,2.041,1.76,2.042Zm0-11.405l1.76-2.041-1.76-2.042-1.76,2.042,1.76,2.041Zm8.079,20.069l1.76,2.041,1.763-2.041-1.766-2.045-1.757,2.045Zm1.757-65.449l1.763-2.042-1.763-2.041-1.76,2.041,1.76,2.042Zm0,11.167l1.761-2.042-1.761-2.042-1.76,2.042,1.76,2.042Zm0,11.401l1.763-2.041-1.763-2.042-1.76,2.042,1.76,2.041Zm1.766-47.418l-1.766-2.043-1.757,2.043,1.76,2.042,1.763-2.042Zm-11.602,126.55l1.76-2.042-1.76-2.041-1.76,2.041,1.76,2.042Zm0-22.81l1.76-2.041-1.76-2.042-1.76,2.042,1.76,2.041Zm9.836-90.292l1.763-2.042-1.763-2.041-1.76,2.041,1.76,2.042Zm-9.836,101.697l1.76-2.042-1.76-2.041-1.76,2.041,1.76,2.042Zm0-22.806l1.76-2.041-1.76-2.042-1.76,2.042,1.76,2.041Zm0,45.618l1.76-2.042-1.76-2.041-1.76,2.041,1.76,2.042Zm-9.832-60.404l-1.763,2.041,1.763,2.042,1.76-2.042-1.76-2.041Zm19.668-18.727l1.763-2.041-1.763-2.042-1.76,2.042,1.76,2.041Zm-19.668,63.64l-1.763,2.041,1.763,2.042,1.76-2.042-1.76-2.041Zm0-34.212l-1.763,2.042,1.763,2.041,1.76-2.041-1.76-2.042Zm0,11.402l-1.763,2.042,1.763,2.041,1.76-2.041-1.76-2.042Zm0,11.405l-1.763,2.041,1.763,2.04,1.76-2.042-1.76-2.039Zm0-97.613l1.76-2.042-1.76-2.041-1.763,2.041,1.763,2.042Zm1.76-13.45l-1.76-2.041-1.763,2.041,1.763,2.042,1.76-2.042Zm-1.76,24.852l1.76-2.042-1.76-2.041-1.763,2.041,1.763,2.042Zm19.668,90.294l1.763-2.042-1.763-2.041-1.76,2.041,1.76,2.042Zm11.597-115.146l-1.76-2.041-1.76,2.041,1.76,2.042,1.76-2.042Zm-1.76,58.828l1.76-2.041-1.76-2.042-1.76,2.042,1.76,2.041Zm0-45.378l1.76-2.042-1.76-2.041-1.76,2.041,1.76,2.042Zm0,22.57l1.76-2.042-1.76-2.042-1.76,2.042,1.76,2.042Zm0,11.401l1.76-2.041-1.76-2.042-1.76,2.042,1.76,2.041Zm0-22.568l1.76-2.042-1.76-2.041-1.76,2.041,1.76,2.042Zm-9.837,113.106l1.763-2.042-1.763-2.041-1.76,2.041,1.76,2.042Zm0-34.217l1.763-2.041-1.763-2.042-1.76,2.042,1.76,2.041Zm0-22.104l1.763-2.042-1.763-2.041-1.76,2.041,1.76,2.042Zm0-11.405l1.763-2.041-1.763-2.042-1.76,2.042,1.76,2.041Zm0,56.319l1.763-2.042-1.763-2.041-1.76,2.041,1.76,2.042Zm9.837,0l1.76-2.042-1.76-2.041-1.76,2.041,1.76,2.042Zm0,11.407l1.76-2.042-1.76-2.041-1.76,2.041,1.76,2.042Zm0-67.726l1.76-2.041-1.76-2.042-1.76,2.042,1.76,2.041Zm0,11.405l1.76-2.042-1.76-2.041-1.76,2.041,1.76,2.042Zm0,10.702l1.76-2.041-1.76-2.042-1.76,2.042,1.76,2.041Zm0,11.402l1.76-2.041-1.76-2.042-1.76,2.042,1.76,2.041Zm0,11.404l1.76-2.042-1.76-2.041-1.76,2.041,1.76,2.042Zm9.675-48.997l-1.763,2.042,1.763,2.041,1.76-2.041-1.76-2.042Zm0-11.405l-1.763,2.042,1.763,2.041,1.76-2.041-1.76-2.042Zm0-11.408l-1.763,2.042,1.763,2.041,1.76-2.041-1.76-2.042Zm-.003-7.317l1.76-2.042-1.76-2.042-1.761,2.042,1.761,2.042Zm.003,41.535l-1.763,2.041,1.763,2.042,1.76-2.042-1.76-2.041Zm0,44.914l-1.763,2.041,1.763,2.042,1.76-2.042-1.76-2.041Zm-1.763,13.448l1.763,2.042,1.76-2.042-1.76-2.041-1.763,2.041Zm1.763-47.66l-1.763,2.042,1.763,2.041,1.76-2.041-1.76-2.042Zm0,11.402l-1.763,2.042,1.763,2.041,1.76-2.041-1.76-2.042Zm0,11.405l-1.763,2.041,1.763,2.04,1.76-2.042-1.76-2.039Zm0-97.613l1.76-2.042-1.76-2.041-1.763,2.041,1.763,2.042Zm1.76-13.45l-1.76-2.041-1.763,2.041,1.763,2.042,1.76-2.042Zm-1.76,24.852l1.76-2.042-1.76-2.041-1.763,2.041,1.763,2.042Zm-47.26-24.852l-1.76-2.041-1.76,2.041,1.76,2.042,1.76-2.042Zm-1.76,58.828l1.76-2.041-1.76-2.042-1.76,2.042,1.76,2.041Zm0-45.378l1.76-2.042-1.76-2.041-1.76,2.041,1.76,2.042Zm0,22.57l1.76-2.042-1.76-2.042-1.76,2.042,1.76,2.042Zm0,11.401l1.76-2.041-1.76-2.042-1.76,2.042,1.76,2.041Zm0-22.568l1.76-2.042-1.76-2.041-1.76,2.041,1.76,2.042Zm0,45.38l1.76-2.041-1.76-2.042-1.76,2.042,1.76,2.041ZM205.52,5.041l-1.76-2.041-1.76,2.041,1.76,2.042,1.76-2.042Zm-1.76,13.45l1.76-2.042-1.76-2.041-1.76,2.041,1.76,2.042Zm0,22.57l1.76-2.042-1.76-2.042-1.76,2.042,1.76,2.042Zm0-11.167l1.76-2.042-1.76-2.041-1.76,2.041,1.76,2.042Zm9.675,18.484l-1.763,2.042,1.763,2.041,1.76-2.041-1.76-2.042Zm-.003-7.317l1.76-2.042-1.76-2.042-1.761,2.042,1.761,2.042Zm.003-22.57l1.76-2.042-1.76-2.041-1.763,2.041,1.763,2.042Zm1.76-13.45l-1.76-2.041-1.763,2.041,1.763,2.042,1.76-2.042Zm-1.76,24.852l1.76-2.042-1.76-2.041-1.763,2.041,1.763,2.042Z" fill="#cef2cf"/><path d="m154,35v26.841h-24.413v11.159l-10.684-11.159H32v-26.841h122Z" fill="#e2ecfb"/><path d="m154,34H32c-.553,0-1,.447-1,1v26.841c0,.553.447,1,1,1h86.476l10.389,10.851c.192.201.455.309.723.309.125,0,.252-.023.373-.072.379-.152.627-.52.627-.928v-10.159h23.413c.553,0,1-.447,1-1v-26.841c0-.553-.447-1-1-1Zm-1,26.841h-23.413c-.553,0-1,.447-1,1v8.669l-8.962-9.36c-.189-.197-.45-.309-.723-.309H33v-8.241h41.365c.553,0,1-.447,1-1s-.447-1-1-1h-41.365v-4.871h85.328c.553,0,1-.447,1-1s-.447-1-1-1H33v-7.729h120v24.841Z" fill="#232639"/><path d="m32,87v22.602h20.815v9.398l9.107-9.398h74.078v-22.602H32Z" fill="#e2ecfb"/><path d="m136,86H32c-.553,0-1,.447-1,1v22.602c0,.553.447,1,1,1h19.814v8.398c0,.407.247.774.625.927.121.05.249.073.375.073.266,0,.526-.105.718-.304l8.813-9.095h73.654c.553,0,1-.447,1-1v-22.602c0-.553-.447-1-1-1Zm-1,22.602H61.922c-.271,0-.529.109-.718.304l-7.39,7.626v-6.93c0-.553-.447-1-1-1h-19.814v-12.189h48.508c.553,0,1-.447,1-1s-.447-1-1-1h-48.508v-6.412h102v20.602Z" fill="#232639"/><path d="m42,148.521h13.414v4.282l8.049-11.775v-8.028h5.902l2.147,2.141v5.887l-1.609,7.49h13.95l2.147,1.605v2.676l-2.147,1.609,2.147,1.409v2.337l-2.147,1.606,2.147,1.605v2.169l-2.147,1.579,2.147,1.605v2.676l-2.147,1.606h-23.073l-5.376-3.745.013,3.745h-13.418v-22.479Z" fill="#e2ecfb"/><path d="m87,152.799v-2.676c0-.315-.148-.612-.401-.801l-2.147-1.605c-.173-.129-.383-.199-.599-.199h-12.713l1.35-6.279c.015-.069.022-.14.022-.21v-5.888c0-.266-.105-.521-.294-.708l-2.146-2.141c-.188-.188-.441-.292-.706-.292h-5.902c-.553,0-1,.447-1,1v7.718l-6.049,8.85v-1.047c0-.553-.447-1-1-1h-13.414c-.553,0-1,.447-1,1v22.479c0,.553.447,1,1,1h13.418c.266,0,.521-.105.708-.294.188-.188.293-.444.292-.71l-.007-1.821,3.798,2.646c.167.117.367.18.571.18h23.072c.216,0,.426-.07.599-.199l2.147-1.606c.253-.188.401-.485.401-.801v-2.676c0-.315-.148-.612-.401-.801l-1.066-.798,1.06-.779c.257-.188.408-.487.408-.806v-2.169c0-.315-.148-.612-.401-.801l-1.076-.805,1.076-.805c.253-.188.401-.485.401-.801v-2.337c0-.337-.17-.651-.451-.836l-.956-.628,1.007-.755c.252-.188.4-.485.4-.8Zm-44,17.201v-20.479h11.414v17.666c-.002.024-.01.048-.01.072l.01,2.741h-11.414Zm42-17.701l-1.48,1.109h-5.441c-.553,0-1,.447-1,1s.447,1,1,1h5.475l1.446.949v1.296l-1.48,1.106h-5.441c-.553,0-1,.447-1,1s.447,1,1,1h5.441l1.48,1.106v1.162l-1.475,1.084h-5.446c-.553,0-1,.447-1,1s.447,1,1,1h5.441l1.48,1.106v1.674l-1.48,1.107h-22.425l-4.681-3.26v-13.629l7.874-11.52c.114-.166.175-.363.175-.564v-7.027h4.489l1.56,1.556v5.366l-1.587,7.386c-.063.295.01.604.199.839.19.234.477.371.778.371h13.618l1.479,1.106v1.675Zm-36.754,14.542c-2.013,0-3.65-1.635-3.65-3.644s1.638-3.645,3.65-3.645,3.651,1.635,3.651,3.645-1.638,3.644-3.651,3.644Zm0-5.288c-.91,0-1.65.737-1.65,1.645s.74,1.644,1.65,1.644,1.651-.737,1.651-1.644-.741-1.645-1.651-1.645Z" fill="#232639"/><rect x="233.079" y="136.595" width="8.921" height="9.391" fill="#fff"/><rect x="139" y="136.595" width="8.921" height="9.391" fill="#fff"/><polygon points="197.098 132.215 197.098 121.369 214.521 121.369 214.521 101.681 165.923 101.681 165.923 121.369 182.244 121.369 182.244 132.215 163.23 132.215 163.23 177.628 174.168 177.628 174.168 192.4 206.275 192.4 206.275 177.628 217.072 177.628 217.072 132.215 197.098 132.215" fill="#fff"/><path d="m183.08,115.522c-2.482,0-4.5-2.018-4.5-4.5s2.019-4.5,4.5-4.5,4.5,2.018,4.5,4.5-2.019,4.5-4.5,4.5Zm0-7.063c-1.37,0-2.485,1.15-2.485,2.563s1.114,2.563,2.485,2.563,2.484-1.15,2.484-2.563-1.114-2.563-2.484-2.563Z" fill="#232639"/><path d="m197.079,115.522c-2.481,0-4.5-2.018-4.5-4.5s2.019-4.5,4.5-4.5,4.5,2.018,4.5,4.5-2.019,4.5-4.5,4.5Zm0-7.063c-1.369,0-2.484,1.15-2.484,2.563s1.114,2.563,2.484,2.563,2.485-1.15,2.485-2.563-1.114-2.563-2.485-2.563Z" fill="#232639"/><path d="m242,118.958c.553,0,1-.447,1-1v-7.514c0-.553-.447-1-1-1s-1,.447-1,1v6.514h-2.46v-3.326c0-.536-.447-.97-1-.97s-1,.434-1,.97v3.326h-2.461v-6.514c0-.553-.447-1-1-1s-1,.447-1,1v7.514c0,.553.447,1,1,1h3.461v16.636h-3.461c-.553,0-1,.447-1,1v4.058h-14.007v-8.437c0-.053-.022-.099-.03-.149-.012-.078-.016-.156-.046-.229-.051-.125-.126-.238-.221-.331l-6.057-6.081c-.092-.092-.202-.166-.324-.217-.124-.052-.255-.078-.388-.077h-12.908v-2.761h16.423c.553,0,1-.447,1-1v-19.688c0-.302-.14-.563-.351-.747l-6.687-6.558c-.036-.035-.082-.051-.122-.079-.065-.048-.126-.1-.202-.131-.096-.039-.198-.052-.301-.061-.027-.002-.051-.016-.079-.016h-48.453c-.13,0-.26.026-.382.077-.245.101-.44.296-.541.541-.049.119-.074.245-.075.372,0,.004-.002.007-.002.01v19.771c0,.319.159.591.392.774l6.496,6.442.002.002.002.002c.011.011.027.015.039.026.084.076.177.143.284.187.122.05.251.077.381.077h8.446v2.761h-17.278s-.001,0-.002,0c-.13,0-.26.026-.381.077-.123.051-.234.125-.326.219h0s-.002.003-.003.005c-.09.092-.161.2-.211.32-.035.085-.043.176-.054.266-.004.038-.022.071-.022.11v13.943h-7.17v-3.477c0-.553-.447-1-1-1h-8.92c-.553,0-1,.447-1,1v9.392c0,.553.447,1,1,1h3.46v19.587h-3.46c-.553,0-1,.447-1,1v7.689c0,.553.447,1,1,1s1-.447,1-1v-6.689h2.46v4.663c0,.553.447,1,1,1s1-.447,1-1v-4.663h2.46v6.689c0,.553.447,1,1,1s1-.447,1-1v-7.689c0-.553-.447-1-1-1h-3.46v-19.587h3.46c.553,0,1-.447,1-1v-3.915h7.17v29.289c0,.013.007.024.007.036-.01.269.08.54.284.745l6.117,6.158c.101.109.221.198.362.254.051.021.105.02.158.032.07.016.136.042.211.042h4.584v8.468c0,.095.029.18.054.267.01.034.007.07.021.104.052.128.13.242.228.337l5.342,5.303s.002.002.002.002l.002.002c.012.012.029.016.041.027.084.075.176.142.281.186.122.05.251.077.381.077h32.108c.553,0,1-.447,1-1v-13.772h9.797c.553,0,1-.447,1-1v-34.976h14.007v3.334c0,.553.447,1,1,1h8.921c.553,0,1-.447,1-1v-9.392c0-.553-.447-1-1-1h-3.46v-16.636h3.46Zm-95.08,22.103s-.002.006-.002.01.002.006.002.01v3.905h-6.92v-7.392h6.92v3.467Zm63.675-13.931l4.069,4.085h-16.566v-4.085h12.497Zm-50.268-29.628l4.596,4.593v16.874l-4.596-4.557v-16.91Zm6.01,3.179l-4.594-4.592h45.647l4.682,4.592h-45.734Zm.586,19.688v-17.688h46.599v17.688h-46.599Zm29.176,2v8.846h-12.854v-8.846h12.854Zm-14.854,0v7.591l-4.876-4.283v-3.308h4.876Zm-19.015,52.832l-4.14-4.167v-29.895c.002-.024.014-.044.014-.068s-.012-.044-.014-.068v-12.473l4.14,4.103v42.568Zm-2.71-48.071h15.472l4.651,4.085h-16.002l-4.121-4.085Zm13.648,62.868l-3.354-3.33v-8.041h3.354v11.371Zm32.108,1.402h-30.108v-12.727h30.108v12.727Zm10.797-14.772h-51.843v-19.759h8.374c.017,0,.031-.009.047-.01.017,0,.031.01.048.01.553,0,1-.447,1-1v-8.28h33.335v8.28s.002.007.002.011-.002.007-.002.011c0,.553.447,1,1,1h8.039v19.736Zm0-21.736h-7.039v-8.303c0-.553-.447-1-1-1-.013,0-.024.007-.037.007-.013,0-.024-.007-.037-.007h-35.188c-.013,0-.024.007-.037.007-.013,0-.024-.007-.037-.007-.553,0-1,.447-1,1v8.28h-7.469v-21.653h51.843v21.676Zm24.928-17.297v7.392h-6.921v-7.392h6.921Z" fill="#232639"/></svg>