<svg xmlns="http://www.w3.org/2000/svg" viewBox="0 0 144 144"><g opacity="0"><rect width="144" height="144" fill="#fff"/></g><path d="M108.76,32.29c-.3-.29-.6-.56-.91-.84-2.11-1.88-4.36-3.6-6.74-5.13-.37-.24-.74-.47-1.11-.7-1.11-.68-2.25-1.32-3.42-1.92-4.66-2.39-9.7-4.13-15.02-5.08-.89-.16-1.78-.3-2.68-.41-2.26-.29-4.55-.44-6.88-.44V54.75c-9.49,0-17.18,7.72-17.18,17.25s7.69,17.25,17.18,17.25,17.18-7.72,17.18-17.25c0-4.76-1.92-9.08-5.03-12.2l2.17-2.18,10.84-10.89h.01v-.01l13.01-13.06c-.46-.47-.94-.93-1.42-1.37Z" class="sgmaincolor"/><path d="M36.41,104.66c0,2.28-.95,4.34-2.48,5.8-1.42,1.37-3.36,2.21-5.5,2.21-4.4,0-7.98-3.59-7.98-8.01,0-2.96,1.61-5.55,4-6.94,1.17-.68,2.53-1.07,3.98-1.07,4.41,0,7.98,3.59,7.98,8.01Z" class="sgmaincolor"/><path d="M105.14,97.26c0,4.43-3.58,8.02-7.98,8.02-2.52,0-4.77-1.17-6.23-3.01-1.1-1.37-1.75-3.11-1.75-5.01,0-4.42,3.57-8.01,7.98-8.01,1.88,0,3.62,.66,4.98,1.76,1.83,1.46,3,3.72,3,6.25Z" class="sgmaincolor"/><path d="M105.142,134.033c-.353,0-.693-.187-.876-.516-.268-.483-.093-1.092,.391-1.359,12.95-7.163,23.402-18.582,29.432-32.151,.227-.503,.816-.731,1.32-.508,.505,.225,.731,.815,.508,1.32-6.205,13.965-16.963,25.716-30.291,33.089-.153,.085-.319,.125-.483,.125Z"/><path d="M25.597,27.908c-.096,0-.191-.014-.286-.042l-15.193-4.531c-.341-.102-.602-.376-.686-.722s.021-.71,.277-.956l11.415-11.004c.258-.249,.627-.343,.974-.24,.344,.1,.607,.376,.692,.724l3.778,15.535c.085,.348-.023,.715-.283,.961-.188,.18-.436,.275-.688,.275Zm-13.267-6l11.884,3.544-2.955-12.15-8.929,8.606Z"/><path d="M110.895,32.961h0l-.002-.003h0c-.015-.016-.03-.03-.045-.045-.458-.467-.934-.923-1.392-1.342-.294-.284-.587-.549-.94-.867-2.173-1.938-4.482-3.695-6.859-5.222-.376-.244-.752-.479-1.133-.715-1.129-.691-2.302-1.351-3.486-1.957-4.845-2.486-9.993-4.227-15.299-5.175-.978-.176-1.872-.312-2.73-.418-2.318-.297-4.676-.448-7.007-.448-30.327,0-55,24.776-55,55.23,0,8.851,2.141,17.601,6.165,25.383-2.307,1.69-3.715,4.393-3.715,7.277,0,4.968,4.028,9.01,8.979,9.01,2.006,0,3.914-.659,5.465-1.864,10.299,9.946,23.787,15.424,38.105,15.424,30.327,0,55-24.776,55-55.23,0-14.744-5.72-28.607-16.105-39.039Zm-2.33,38.039c-.241-9.106-3.764-17.648-10.007-24.258l11.604-11.648c9.338,9.728,14.567,22.402,14.813,35.905h-16.41Zm-16.856,30.644c-1-1.246-1.529-2.762-1.529-4.384,0-3.865,3.132-7.01,6.98-7.01,1.185,0,2.351,.307,3.378,.88,.341,.19,.667,.409,.972,.657h0l.005,.004c1.668,1.331,2.624,3.324,2.624,5.469,0,3.871-3.132,7.021-6.98,7.021-2.134,0-4.119-.959-5.451-2.637Zm10.131-12.068c-.033-.02-.07-.034-.104-.054-.309-.184-.626-.354-.954-.5-.04-.018-.081-.031-.121-.049-.308-.131-.623-.243-.944-.339-.063-.019-.125-.04-.188-.058-.342-.094-.69-.167-1.042-.22-.075-.011-.149-.02-.224-.029-.365-.046-.733-.077-1.103-.077-4.952,0-8.98,4.042-8.98,9.01,0,.381,.031,.755,.076,1.125,.009,.074,.017,.148,.028,.222,.052,.357,.124,.708,.218,1.053,.017,.061,.037,.121,.055,.182,.098,.331,.212,.657,.348,.974,.013,.029,.022,.06,.036,.089,.147,.335,.321,.658,.51,.974,.019,.031,.031,.065,.05,.095-4.996,2.953-10.662,4.567-16.499,4.734v-16.508c9.227-.508,16.625-7.936,17.129-17.199h16.427c-.167,5.858-1.773,11.549-4.717,16.575Zm-17.71-28.337c2.62,2.969,4.05,6.753,4.05,10.761,0,8.96-7.258,16.25-16.18,16.25s-16.18-7.29-16.18-16.25c0-8.623,6.723-15.698,15.18-16.22v7.266c-.215,.024-.425,.062-.635,.101-.061,.011-.123,.017-.183,.029-.282,.058-.56,.131-.832,.215-.077,.024-.149,.055-.225,.081-.194,.066-.387,.133-.574,.211-.098,.041-.191,.09-.288,.134-.16,.074-.32,.147-.475,.23-.101,.054-.197,.114-.295,.172-.144,.084-.287,.168-.426,.26-.099,.065-.193,.136-.289,.204-.131,.094-.261,.19-.387,.291-.094,.075-.184,.155-.274,.234-.12,.104-.237,.21-.352,.321-.087,.085-.172,.173-.256,.261-.108,.114-.214,.23-.316,.349-.08,.094-.158,.189-.234,.286-.097,.123-.19,.248-.28,.376-.072,.101-.142,.203-.209,.307-.086,.132-.167,.268-.246,.405-.062,.107-.123,.213-.18,.323-.074,.142-.142,.287-.208,.433-.051,.111-.103,.222-.149,.335-.062,.152-.116,.309-.17,.465-.039,.113-.081,.225-.115,.34-.05,.166-.089,.335-.13,.505-.026,.111-.057,.22-.08,.333-.038,.19-.062,.385-.088,.579-.013,.096-.031,.19-.041,.287-.029,.293-.045,.59-.045,.89,0,4.968,4.028,9.01,8.98,9.01s8.98-4.042,8.98-9.01c0-.282-.015-.561-.041-.838-.002-.019,0-.038-.003-.057-.007-.072-.023-.142-.031-.213-.023-.186-.048-.37-.082-.553-.02-.104-.043-.207-.066-.31-.037-.167-.078-.333-.125-.497-.029-.105-.061-.209-.095-.313-.052-.16-.109-.319-.17-.476-.039-.1-.077-.201-.119-.3-.069-.162-.146-.32-.226-.477-.044-.088-.085-.178-.132-.265-.106-.196-.223-.387-.344-.575-.028-.043-.051-.088-.08-.13-.142-.212-.293-.418-.454-.618l.885-.89,4.229-4.249Zm-10.757,3.886c.894,.178,1.739,.531,2.496,1.04,.378,.255,.734,.548,1.062,.88l.003,.002c1.32,1.321,2.047,3.08,2.047,4.953,0,3.865-3.132,7.01-6.98,7.01s-6.98-3.145-6.98-7.01,3.132-7.01,6.98-7.01c.466,0,.925,.046,1.372,.135Zm-2.372-11.324c-9.227,.508-16.625,7.936-17.129,17.199h-16.435c.521-18.36,15.285-33.19,33.564-33.715v16.516Zm-17.129,19.199c.504,9.263,7.903,16.692,17.129,17.199v16.516c-18.28-.525-33.044-15.355-33.564-33.715h16.435Zm36.261-2c-.223-4.169-1.83-8.065-4.604-11.166l11.621-11.674c5.862,6.231,9.178,14.27,9.417,22.84h-16.434Zm-8.747-51.396c5.111,.913,10.07,2.591,14.739,4.985,1.14,.584,2.268,1.218,3.349,1.88,.364,.226,.729,.452,1.097,.692,2.294,1.474,4.52,3.167,6.655,5.071,.286,.258,.563,.508,.859,.794,.227,.208,.446,.431,.67,.647l-12.292,12.339-.025,.026-12.994,13.054h0l-5.839,5.867c-.034-.028-.073-.048-.107-.075-.258-.202-.527-.387-.803-.558-.083-.051-.165-.102-.25-.15-.072-.042-.141-.09-.214-.129-.587-.316-1.209-.555-1.853-.732-.096-.026-.192-.049-.289-.073-.311-.074-.625-.133-.945-.173-.048-.006-.093-.021-.141-.026V18.802c.526,.01,1.053,.025,1.581,.051,.343,.017,.685,.024,1.028,.048,1.052,.072,2.104,.168,3.149,.302,.826,.102,1.686,.233,2.627,.402Zm-10.385-.809v16.49c-19.382,.526-35.042,16.252-35.564,35.715H19.025c.528-28.555,23.544-51.672,51.975-52.205ZM21.45,104.66c0-2.49,1.342-4.818,3.502-6.076,1.052-.61,2.255-.934,3.478-.934,3.849,0,6.98,3.145,6.98,7.01,0,.242-.012,.482-.036,.72-.167,1.661-.911,3.189-2.139,4.36-1.29,1.244-2.996,1.93-4.806,1.93-3.849,0-6.979-3.145-6.979-7.01Zm14.361,5.135c.013-.019,.024-.04,.038-.059,.146-.214,.284-.434,.411-.659,.046-.082,.086-.166,.129-.249,.087-.167,.172-.335,.248-.508,.044-.099,.083-.199,.124-.3,.065-.163,.126-.327,.182-.494,.035-.106,.069-.212,.1-.32,.049-.169,.092-.34,.132-.513,.024-.106,.049-.211,.07-.318,.036-.189,.063-.38,.087-.572,.012-.093,.027-.184,.036-.278,.027-.286,.043-.575,.043-.866,0-4.968-4.028-9.01-8.98-9.01-.358,0-.713,.028-1.067,.07-.106,.013-.211,.032-.317,.049-.253,.04-.504,.089-.752,.15-.111,.027-.22,.055-.33,.086-.267,.077-.529,.167-.789,.268-.074,.029-.15,.053-.224,.084-.024,.01-.049,.017-.073,.027-3.696-7.183-5.695-15.229-5.848-23.386h16.406c.522,19.462,16.182,35.188,35.564,35.715v16.492c-13.398-.248-25.997-5.456-35.673-14.777,.171-.205,.333-.417,.484-.635Zm37.189,15.41v-16.5c6.283-.171,12.371-1.941,17.728-5.16,1.682,1.744,3.979,2.735,6.433,2.735,4.952,0,8.98-4.047,8.98-9.021,0-2.465-.99-4.77-2.729-6.453,3.209-5.388,4.974-11.504,5.144-17.807h16.419c-.528,28.555-23.544,51.672-51.975,52.205Z"/></svg>