<svg xmlns="http://www.w3.org/2000/svg" viewBox="0 0 96 96"><rect width="96" height="96" fill="#fff" opacity="0"/><polygon points="63.273 32.727 60.364 24 35.636 24 32.727 32.727 29.818 32.727 29.818 29.091 16.727 29.091 16.727 32.727 11.636 32.727 11.636 72 84.364 72 84.364 32.727 63.273 32.727" class="sgmaincolor"/><path d="M84.363,31.728h-20.37l-2.681-8.044c-.136-.408-.518-.684-.948-.684h-24.727c-.431,0-.812,.275-.948,.684l-2.681,8.044h-1.189v-2.637c0-.553-.447-1-1-1h-13.091c-.553,0-1,.447-1,1v2.637h-4.091c-.553,0-1,.447-1,1v39.272c0,.553,.447,1,1,1H84.363c.553,0,1-.447,1-1V32.728c0-.553-.447-1-1-1Zm-36.363,4.909c9.073,0,16.454,7.381,16.454,16.454s-7.381,16.455-16.454,16.455-16.454-7.382-16.454-16.455,7.381-16.454,16.454-16.454Zm-11.643-11.637h23.285l2.242,6.728h-27.77l2.242-6.728Zm-18.63,5.091h11.091v1.637h-11.091v-1.637Zm-1,3.637H83.363v3.768l-25.507,.021c-2.855-1.814-6.23-2.88-9.856-2.88s-7.011,1.069-9.868,2.887l-25.495,.021v-3.817h4.091Zm-4.091,5.817l22.895-.019c-3.669,3.375-5.985,8.199-5.985,13.565,0,8.666,6.012,15.937,14.079,17.909H12.637v-31.455Zm39.738,31.455c8.067-1.973,14.079-9.243,14.079-17.909,0-5.373-2.322-10.201-5.998-13.577l22.907-.019v31.505h-30.988Z"/><path d="M80.728,40.818h-11.637c-.553,0-1,.447-1,1v5.818c0,.553,.447,1,1,1h11.637c.553,0,1-.447,1-1v-5.818c0-.553-.447-1-1-1Zm-1,5.818h-9.637v-3.818h9.637v3.818Z"/><path d="M48,66.454c7.368,0,13.363-5.995,13.363-13.363s-5.995-13.363-13.363-13.363-13.363,5.995-13.363,13.363,5.995,13.363,13.363,13.363Zm0-24.727c6.266,0,11.363,5.098,11.363,11.363s-5.098,11.363-11.363,11.363-11.363-5.098-11.363-11.363,5.098-11.363,11.363-11.363Z"/></svg>