<svg id="uuid-a69d9f0a-d606-4acc-8a84-e5231593ebc2" xmlns="http://www.w3.org/2000/svg" viewBox="0 0 96 96"><g fill="none" opacity="0"><rect width="96" height="96" fill="#fff"/></g><path d="m80.56,92.82H16.34c-.55,0-1-.45-1-1V9.25c0-.55.45-1,1-1h64.22c.55,0,1,.45,1,1v82.57c0,.55-.45,1-1,1Zm-63.22-2h62.22V10.25H17.34v80.57Z"/><path d="m48,72c-.2,0-.4-.06-.58-.18L5.82,42.41c-.45-.32-.56-.94-.24-1.39.32-.45.94-.56,1.39-.24l41.03,29,41.03-29c.45-.32,1.08-.21,1.39.24.32.45.21,1.08-.24,1.39l-41.61,29.4c-.17.12-.38.18-.58.18Z"/><path d="m89.61,42.6c-.21,0-.43-.07-.61-.21l-9.04-6.93c-.44-.34-.52-.96-.19-1.4.34-.44.96-.52,1.4-.19l9.04,6.93c.44.34.52.96.19,1.4-.2.26-.49.39-.79.39Z"/><path d="m6.39,42.6c-.32,0-.63-.15-.82-.43-.31-.45-.2-1.08.26-1.39l9.95-6.87c.45-.31,1.08-.2,1.39.26.31.45.2,1.08-.26,1.39l-9.95,6.87c-.17.12-.37.18-.57.18Z"/><polygon points="89.61 91.92 89.61 41.6 60.61 62.09 48 71 35.39 62.09 16.34 48.63 6.39 41.6 6.39 91.92 58.97 91.92 89.61 91.92" class="sgmaincolor"/><path d="m89.61,92.92H6.39c-.55,0-1-.45-1-1v-50.32c0-.37.21-.72.54-.89.33-.17.73-.14,1.04.07l41.03,28.99,41.03-28.99c.31-.21.71-.24,1.04-.07.33.17.54.51.54.89v50.32c0,.55-.45,1-1,1Zm-82.21-2h81.21v-47.39s-40.03,28.29-40.03,28.29c-.35.24-.81.24-1.15,0L7.39,43.53v47.39Z"/><polygon points="80.56 19.2 16.34 19.2 16.34 9.25 58.85 9.25 80.56 9.25 80.56 19.2" class="sgmaincolor"/><path d="m81.56,20.2H15.34v-11.94h66.22v11.94Zm-64.22-2h62.22v-7.94H17.34v7.94Z"/><path d="m69.3,15.21c-.55,0-1-.45-1-1V4.08c0-.55.45-1,1-1s1,.45,1,1v10.13c0,.55-.45,1-1,1Z"/><path d="m27.61,15.21c-.55,0-1-.45-1-1V4.08c0-.55.45-1,1-1s1,.45,1,1v10.13c0,.55-.45,1-1,1Z"/><path d="m40.64,32.76c1.07-.85,2.45-1.28,4.12-1.28,1.15,0,2.14.21,2.98.61.84.41,1.47.97,1.89,1.67s.64,1.5.64,2.38c0,1.02-.27,1.89-.81,2.61-.54.72-1.19,1.2-1.94,1.45v.1c.97.3,1.72.83,2.26,1.61.54.78.81,1.77.81,2.99,0,.97-.22,1.83-.66,2.58s-1.1,1.35-1.97,1.78c-.87.43-1.91.65-3.12.65-1.77,0-3.23-.46-4.36-1.36-1.14-.91-1.75-2.22-1.83-3.92h2.7c.07.87.4,1.58,1.01,2.13.61.55,1.43.82,2.46.82s1.77-.27,2.31-.82c.54-.55.81-1.26.81-2.13,0-1.15-.36-1.96-1.09-2.45-.73-.48-1.85-.72-3.36-.72h-.64v-2.31h.66c1.33-.02,2.34-.24,3.04-.66.7-.43,1.05-1.1,1.05-2.02,0-.79-.25-1.41-.76-1.88s-1.23-.7-2.16-.7-1.63.23-2.14.7c-.51.47-.81,1.05-.91,1.73h-2.73c.1-1.52.68-2.71,1.76-3.57Z"/><path d="m53.16,34.45v-2.56h5.11v17.92h-2.83v-15.37h-2.29Z"/></svg>
