<svg viewBox="0 0 96 96" xmlns="http://www.w3.org/2000/svg"><rect width="96" height="96" fill="#fff" opacity="0"/><polygon points="81 14 23 14 23 82 46 82 46 91 52 87 58 91 58 82 81 82 81 14" class="sgmaincolor"/><path d="m20,76h-4c-.553,0-1-.447-1-1V7c0-.553.447-1,1-1h58c.553,0,1,.447,1,1v4c0,.553-.447,1-1,1s-1-.447-1-1v-3H17v66h3c.553,0,1,.447,1,1s-.447,1-1,1ZM82,13.998v68c0,.55-.45,1-1,1h-22v8c0,.37-.2.71-.53.88-.15.08-.31.12-.47.12-.19,0-.39-.05-.55-.17l-5.45-3.63-5.45,3.63c-.3.21-.7.23-1.02.05-.33-.17-.53-.51-.53-.88v-8h-22c-.55,0-1-.45-1-1V13.998c0-.55.45-1,1-1h58c.55,0,1,.45,1,1Zm-25,65.89c-.42.43-.89.8-1.41,1.11-1.05.64-2.28,1-3.59,1s-2.54-.36-3.59-1c-.52-.31-.99-.68-1.41-1.11v9.24l4.45-2.96c.33-.22.77-.22,1.1,0l4.45,2.96v-9.24Zm0-4.89c0-2.75-2.24-5-5-5s-5,2.25-5,5,2.24,5,5,5,5-2.24,5-5Zm23-60H24v66h21v-6c0-3.86,3.14-7,7-7s7,3.14,7,7v6h21V14.998Zm-19,22.502c0-1.93-1.57-3.5-3.5-3.5s-3.5,1.57-3.5,3.5,1.57,3.5,3.5,3.5,3.5-1.57,3.5-3.5Zm-2,0c0,.827-.673,1.5-1.5,1.5s-1.5-.673-1.5-1.5.673-1.5,1.5-1.5,1.5.673,1.5,1.5Zm10.667,10c0-1.93-1.57-3.5-3.5-3.5s-3.5,1.57-3.5,3.5,1.57,3.5,3.5,3.5,3.5-1.57,3.5-3.5Zm-2,0c0,.827-.673,1.5-1.5,1.5s-1.5-.673-1.5-1.5.673-1.5,1.5-1.5,1.5.673,1.5,1.5Zm-10.96,2.207l12-12c.391-.391.391-1.023,0-1.414s-1.023-.391-1.414,0l-12,12c-.391.391-.391,1.023,0,1.414.195.195.451.293.707.293s.512-.098.707-.293Zm13.293-25.707c0-.553-.447-1-1-1h-36c-.553,0-1,.447-1,1s.447,1,1,1h36c.553,0,1-.447,1-1Zm0,6c0-.553-.447-1-1-1h-36c-.553,0-1,.447-1,1s.447,1,1,1h36c.553,0,1-.447,1-1Zm-19,6c0-.553-.447-1-1-1h-17c-.553,0-1,.447-1,1s.447,1,1,1h17c.553,0,1-.447,1-1Zm0,6c0-.553-.447-1-1-1h-17c-.553,0-1,.447-1,1s.447,1,1,1h17c.553,0,1-.447,1-1Zm0,6c0-.553-.447-1-1-1h-17c-.553,0-1,.447-1,1s.447,1,1,1h17c.553,0,1-.447,1-1Zm19,6c0-.553-.447-1-1-1h-36c-.553,0-1,.447-1,1s.447,1,1,1h36c.553,0,1-.447,1-1Zm0,6c0-.553-.447-1-1-1h-36c-.553,0-1,.447-1,1s.447,1,1,1h36c.553,0,1-.447,1-1Z"/></svg>
