<svg xmlns="http://www.w3.org/2000/svg" viewBox="0 0 96 96"><rect width="96" height="96" fill="#fff" opacity="0"/><path d="M5.5,18v60H90.5V18H5.5Zm42.5,50.769H14.773v-29.231H48v29.231Zm34.773-20h-24.728v-9.231h24.728v9.231Z" class="sgmaincolor"/><path d="M90.5,17H5.5c-.553,0-1,.447-1,1v60c0,.553,.447,1,1,1H90.5c.553,0,1-.447,1-1V18c0-.553-.447-1-1-1Zm-1,2v10.308H6.5v-10.308H89.5ZM6.5,77V31.308H89.5v45.692H6.5Z"/><path d="M13.348,24.092c0,1.105-.9,2-2.009,2-1.11,0-2.009-.895-2.009-2,0-1.102,.895-1.996,2.001-2,1.11,0,2.009,.895,2.009,2h0m6.718,0c0,1.105-.9,2-2.009,2-1.11,0-2.009-.895-2.009-2,0-1.102,.895-1.996,2.001-2,1.11,0,2.009,.895,2.009,2h0m6.718,0c0,1.105-.9,2-2.009,2-1.11,0-2.009-.895-2.009-2,0-1.102,.895-1.996,2.001-2,1.11,0,2.009,.895,2.009,2h0m57.012,31.831c0-.553-.447-1-1-1h-24.727c-.553,0-1,.447-1,1s.447,1,1,1h24.727c.553,0,1-.447,1-1Zm0,6.692c0-.553-.447-1-1-1h-24.727c-.553,0-1,.447-1,1s.447,1,1,1h24.727c.553,0,1-.447,1-1Zm0,6.154c0-.553-.447-1-1-1h-24.727c-.553,0-1,.447-1,1s.447,1,1,1h24.727c.553,0,1-.447,1-1Zm-1-19h-24.727c-.553,0-1-.447-1-1v-9.231c0-.553,.447-1,1-1h24.727c.553,0,1,.447,1,1v9.231c0,.553-.447,1-1,1Zm-23.727-2h22.727v-7.231h-22.727v7.231Zm-11.046,22H14.772c-.553,0-1-.447-1-1v-29.231c0-.553,.447-1,1-1H48c.553,0,1,.447,1,1v29.231c0,.553-.447,1-1,1Zm-32.228-2h31.228v-27.231H15.772v27.231Z"/></svg>