<svg id="a" xmlns="http://www.w3.org/2000/svg" viewBox="0 0 96 96"><rect x="0" y="0" width="96" height="96" fill="#fff" opacity="0"/><path id="c" d="M84.063,45.201l-5.355-16.203h-17.869v-8.016H3.894c.157,.257,.065,48.089,0,48.209h14.517v.027c.008,4.316,3.513,7.809,7.829,7.802,4.316-.008,7.809-3.513,7.802-7.829h35.731v.027c.008,4.316,3.513,7.809,7.829,7.802,4.316-.008,7.809-3.513,7.802-7.829h6.704v-15.632l-8.044-8.357Z" class="sgmaincolor"/><path d="M92.81,52.854l-7.649-7.648-5.509-16.529c-.136-.408-.518-.684-.948-.684h-16.865v-7.012c0-.553-.447-1-1-1H3.894c-.553,0-1,.447-1,1v48.208c0,.553,.447,1,1,1h13.576c.499,4.392,4.233,7.816,8.756,7.816s8.256-3.425,8.755-7.816h33.851c.499,4.392,4.233,7.816,8.756,7.816s8.256-3.425,8.755-7.816h5.761c.553,0,1-.447,1-1v-15.628c0-.266-.105-.52-.293-.707ZM4.894,21.981H59.838v46.208h-24.858c-.499-4.392-4.232-7.815-8.755-7.815s-8.257,3.424-8.756,7.815H4.894V21.981Zm21.332,54.024c-3.759,0-6.816-3.058-6.816-6.816s3.058-6.815,6.816-6.815,6.815,3.058,6.815,6.815-3.058,6.816-6.815,6.816Zm51.361,0c-3.759,0-6.816-3.058-6.816-6.816s3.058-6.815,6.816-6.815,6.815,3.058,6.815,6.815-3.058,6.816-6.815,6.816Zm13.516-7.816h-4.761c-.499-4.392-4.232-7.815-8.755-7.815s-8.257,3.424-8.756,7.815h-6.993V29.993h16.145l4.916,14.749h-14.244c-.553,0-1,.447-1,1s.447,1,1,1h15.214l7.234,7.233v14.214Z"/></svg>