<svg id="uuid-119e2764-f4fa-4141-a25e-5a65a6ea6ebf" xmlns="http://www.w3.org/2000/svg" viewBox="0 0 96 96">
    <rect x="14" y="27" width="68" height="38" class="sgmaincolor"/>
    <rect x="14" y="72" width="68" height="7" class="sgmaincolor"/>
    <path d="m92,16H4c-.553,0-1,.448-1,1v62c0,.552.447,1,1,1h88c.553,0,1-.448,1-1V17c0-.552-.447-1-1-1ZM15,78v-5h66v5H15Zm76,0h-8v-6c0-.552-.447-1-1-1H14c-.553,0-1,.448-1,1v6H5V18h86v60Z"/>
    <path d="m82,66H14c-.553,0-1-.448-1-1V27c0-.552.447-1,1-1h68c.553,0,1,.448,1,1v38c0,.552-.447,1-1,1Zm-67-2h66V28H15v36Z"/>
</svg>
