<svg xmlns="http://www.w3.org/2000/svg" viewBox="0 0 96 96"><polygon points="51.316 16.737 51.316 23.368 20.053 23.368 20.053 15.79 8.684 15.79 8.684 23.368 3 23.368 3 80.21 84.474 80.21 84.474 43.263 93 43.263 93 16.737 51.316 16.737" class="sgmaincolor"/><path d="m72.632,37.632c-4.47,0-8.105-3.636-8.105-8.105s3.636-8.105,8.105-8.105,8.105,3.636,8.105,8.105-3.636,8.105-8.105,8.105Zm0-14.211c-3.366,0-6.105,2.739-6.105,6.105s2.739,6.105,6.105,6.105,6.105-2.739,6.105-6.105-2.739-6.105-6.105-6.105Zm-9.947,46.421c-2.642,0-4.79-2.148-4.79-4.789s2.148-4.79,4.79-4.79,4.789,2.148,4.789,4.79-2.148,4.789-4.789,4.789Zm0-7.579c-1.538,0-2.79,1.252-2.79,2.79s1.252,2.789,2.79,2.789,2.789-1.251,2.789-2.789-1.251-2.79-2.789-2.79Zm-18-3.789H11.526c-.553,0-1-.447-1-1v-23.685c0-.553.447-1,1-1h33.158c.553,0,1,.447,1,1v23.685c0,.553-.447,1-1,1Zm-32.158-2h31.158v-21.685H12.526v21.685ZM93,15.737h-41.685c-.553,0-1,.447-1,1v5.631h-29.263v-6.579c0-.553-.447-1-1-1h-11.368c-.553,0-1,.447-1,1v6.579H3c-.553,0-1,.447-1,1v56.843c0,.553.447,1,1,1h81.474c.553,0,1-.447,1-1v-35.948h7.526c.553,0,1-.447,1-1v-26.525c0-.553-.447-1-1-1Zm-83.315,1.052h9.368v5.579h-9.368v-5.579Zm73.789,62.422H4V24.368h46.315v18.895c0,.553.447,1,1,1h32.158v34.948Zm8.526-36.948h-39.685v-24.525h39.685v24.525Zm-38.737,25.632c0-.553-.447-1-1-1H11.526c-.553,0-1,.447-1,1s.447,1,1,1h40.736c.553,0,1-.447,1-1Z"/></svg>