<svg xmlns="http://www.w3.org/2000/svg" viewBox="0 0 96 96"><rect y="0" width="96" height="96" fill="#fff" opacity="0"/><polygon points="26.998 26.793 33.359 61.938 75.828 61.964 84.089 55.083 88 26.605 26.998 26.793" class="sgmaincolor"/><path d="M38.821,88.444c-.093,0-.187-.013-.28-.041-2.997-.875-5.306-3.538-5.745-6.629-.077-.547,.303-1.053,.85-1.131,.551-.081,1.053,.303,1.131,.85,.325,2.29,2.104,4.342,4.325,4.99,.53,.155,.834,.71,.68,1.24-.127,.437-.526,.721-.96,.721Z"/><path d="M3.251,49.904c-.553,0-1-.448-1-1s.447-1,1-1H23.69c.553,0,1,.447,1,1s-.447,1-1,1H3.251Z"/><path d="M23.69,41.191H15.521c-.553,0-1-.448-1-1s.447-1,1-1h8.169c.553,0,1,.448,1,1s-.447,1-1,1Z"/><path d="M41.692,84.653c-2.551,0-4.626-2.075-4.626-4.625s2.075-4.625,4.626-4.625,4.625,2.075,4.625,4.625-2.075,4.625-4.625,4.625Zm0-7.251c-1.448,0-2.626,1.178-2.626,2.625s1.178,2.625,2.626,2.625,2.625-1.178,2.625-2.625-1.178-2.625-2.625-2.625Z"/><path d="M74.323,84.653c-2.551,0-4.626-2.075-4.626-4.625s2.075-4.625,4.626-4.625,4.626,2.075,4.626,4.625-2.075,4.625-4.626,4.625Zm0-7.251c-1.448,0-2.626,1.178-2.626,2.625s1.178,2.625,2.626,2.625,2.626-1.178,2.626-2.625-1.178-2.625-2.626-2.625Z"/><g><path d="M88.136,25.615c-.152-.022-.298,0-.436,.043-.002,0-.004-.001-.007-.001h-.002l-59.92,.128-1.986-10.872c-.07-.387-.361-.696-.742-.791l-12.882-3.199c-.535-.134-1.079,.193-1.212,.729-.133,.536,.193,1.079,.729,1.212l12.255,3.043,8.348,45.698-2.686,2.726c-.185,.187-.288,.439-.288,.702v6.989c0,.552,.447,1,1,1h52c.553,0,1-.448,1-1s-.447-1-1-1H31.308v-5.58l2.469-2.506,42.051,.026h0c.233,0,.46-.082,.64-.231l8.261-6.881c.192-.16,.317-.385,.351-.632l3.911-28.477c.075-.547-.307-1.052-.854-1.127Zm-4.984,28.948l-7.685,6.401-41.274-.026-6.056-33.154,58.71-.125-3.695,26.904Z"/><path d="M77.907,48.356l-8.229-.012v-8.676h8.099c.553,0,1-.448,1-1s-.447-1-1-1h-8.099v-4.981c0-.552-.447-1-1-1s-1,.448-1,1v4.981h-8.633v-4.981c0-.552-.447-1-1-1s-1,.448-1,1v4.981h-8.632v-4.981c0-.552-.447-1-1-1s-1,.448-1,1v4.981h-8.072c-.553,0-1,.448-1,1s.447,1,1,1h8.072v8.643l-8.071-.011h0c-.552,0-.999,.447-1,.999,0,.552,.446,1,.999,1.001l8.073,.011v5.072c0,.552,.447,1,1,1s1-.448,1-1v-5.069l8.632,.012v5.057c0,.552,.447,1,1,1s1-.448,1-1v-5.054l8.633,.012v5.042c0,.552,.447,1,1,1s1-.448,1-1v-5.039l8.227,.012h0c.552,0,.999-.447,1-.999,0-.552-.446-1-.999-1.001Zm-29.493-.042v-8.646h8.632v8.658l-8.632-.012Zm10.632,.015v-8.661h8.633v8.673l-8.633-.012Z"/></g></svg>