<?xml version="1.0" encoding="UTF-8"?><svg xmlns="http://www.w3.org/2000/svg" viewBox="0 0 96 96"><g id="uuid-5486cb2e-a25a-475f-b83a-6e07f74d549e"><path d="m47.7,87.169h-8.381c-1.21-1.21-1.889-1.889-3.1-3.1v-31.911l3.1-3.1h8.381l3.1,3.1v31.911l-3.1,3.1ZM23.954,8.627v13.505h-11.099v-13.505l-7.848,7.848v11.099l7.848,7.848h11.099l7.848-7.848v-11.099l-7.848-7.848Zm59.044,5.55h-27.844v14.704h27.844l7.995-4.307v-6.091l-7.995-4.307Z" fill="#e9eff9" stroke-width="0"/><path d="m32.543,27.622c.001-.016.009-.031.009-.047v-11.099c0-.199-.079-.39-.22-.53l-7.849-7.849c-.215-.214-.537-.277-.817-.163-.28.116-.463.39-.463.693v12.755h-9.599v-12.755c0-.304-.183-.577-.463-.693-.28-.114-.603-.052-.817.163l-7.848,7.849c-.141.141-.22.331-.22.53v11.099c0,.016.008.031.009.047.004.066.017.129.038.192.008.025.015.049.026.072.036.079.082.155.146.219l7.628,7.629v49.796c0,.199.079.39.22.53l1.639,1.64c.141.141.332.22.531.22h7.82c.199,0,.39-.079.531-.22l1.639-1.64c.14-.141.219-.331.219-.53v-49.796l7.629-7.629c.064-.064.11-.14.146-.219.011-.024.017-.047.026-.072.021-.063.034-.126.038-.192Zm-7.839-17.184l6.349,6.349v10.038h-6.349V10.438Zm-12.599,23.175l-5.288-5.288h5.288v5.288Zm1.5-5.288h9.599v6.349h-9.599v-6.349Zm9.599-5.442v3.942h-9.599v-3.942h9.599Zm-11.099-12.444v16.387h-6.348v-10.038l6.348-6.349Zm11.099,74.781l-1.2,1.2h-7.199l-1.2-1.2v-49.046h9.599v49.046Zm1.5-51.606v-5.288h5.288l-5.288,5.288Zm-6.342,50.393c.726,0,1.452-.276,2.004-.828,1.104-1.105,1.104-2.903,0-4.009-1.106-1.106-2.904-1.104-4.008,0-1.104,1.105-1.104,2.903,0,4.009.553.553,1.278.828,2.004.828Zm-.943-3.776c.26-.26.602-.39.943-.39s.684.13.944.39c.52.521.52,1.367,0,1.888-.52.52-1.366.52-1.887,0-.52-.521-.52-1.367,0-1.888Zm33.912-28.601l-3.1-3.1c-.141-.141-.332-.22-.53-.22h-1.256v-24.128l2.466-3.448c.132-.185.173-.419.113-.638l-2.606-9.349c-.091-.324-.386-.549-.723-.549h-4.369c-.336,0-.632.225-.723.549l-2.606,9.349c-.061.219-.02.453.113.638l2.466,3.448v24.127h-1.256c-.199,0-.39.079-.53.22l-3.1,3.1c-.141.141-.22.331-.22.53v31.911c0,.199.079.39.22.53l3.1,3.1c.141.141.332.22.53.22h8.381c.199,0,.39-.079.53-.22l3.1-3.1c.141-.141.22-.331.22-.53v-31.911c0-.199-.079-.39-.22-.53Zm-9.436-39.93h3.23l2.357,8.454-2.176,3.042h-3.593l-2.176-3.042,2.357-8.454Zm.181,12.996h2.869v23.614h-2.869v-23.614Zm7.975,59.064l-2.66,2.66h-7.76l-2.66-2.66v-31.29l2.66-2.66h7.76l2.66,2.66v31.29Zm-3.605-29.15v26.821c0,.414-.336.75-.75.75s-.75-.336-.75-.75v-26.821c0-.414.336-.75.75-.75s.75.336.75.75Zm-4.369,0v27.109c0,.414-.336.75-.75.75s-.75-.336-.75-.75v-27.109c0-.414.336-.75.75-.75s.75.336.75.75Zm49.274-36.785l-7.996-4.307c-.009-.005-.019-.002-.028-.007-.1-.049-.209-.083-.328-.083h-5.345v-2.749c0-.199-.079-.39-.22-.53l-1.633-1.633c-.141-.141-.332-.22-.53-.22h-8.042c-.199,0-.39.079-.53.22l-1.633,1.633c-.141.141-.22.331-.22.53v2.749h-9.692c-.414,0-.75.336-.75.75v14.704c0,.414.336.75.75.75h9.692v56.107c0,.199.079.39.22.53l1.634,1.635c.141.141.332.22.531.22h8.038c.199,0,.39-.079.53-.22l1.635-1.635c.141-.141.22-.331.22-.53V29.631h5.345c.119,0,.227-.033.327-.083.009-.004.02-.002.028-.007l7.996-4.307c.243-.131.395-.385.395-.66v-6.091c0-.276-.151-.529-.395-.66Zm-25.003-6.835l1.193-1.193h7.42l1.193,1.193v2.438h-9.807v-2.438Zm-10.442,3.938h26.344v13.204h-26.344v-13.204Zm20.249,70.501l-1.195,1.195h-7.416l-1.196-1.195V29.631h9.807v55.797Zm14.091-61.302l-6.496,3.499v-12.192l6.496,3.499v5.194Z" fill="#707070" stroke-width="0"/></g><g id="uuid-40e1fc07-b473-4c24-be58-31e756c1596e"><rect y="0" width="96" height="96" fill="none" stroke-width="0"/></g></svg>