<svg xmlns="http://www.w3.org/2000/svg" viewBox="0 0 96 96"><rect x="5" y="21" width="86" height="54" class="sgmaincolor"/><path d="m91,76H5c-.552,0-1-.448-1-1V21c0-.552.448-1,1-1h86c.552,0,1,.448,1,1v54c0,.552-.448,1-1,1Zm-85-2h84V22H6v52Zm10.294-25.509l7.656,7.835c.446.429,1.155.414,1.584-.032.41-.427.417-1.099.016-1.535l-5.797-5.931h24.342c.618,0,1.119-.501,1.119-1.119,0,0,0-.001,0-.002,0-.618-.501-1.119-1.119-1.119h-24.342l5.797-5.933c.419-.455.39-1.164-.066-1.583-.436-.401-1.108-.394-1.535.016l-7.656,7.835c-.427.435-.427,1.132,0,1.567Zm63.997-1.564l-7.656-7.835c-.446-.429-1.155-.414-1.584.032-.41.427-.417,1.099-.016,1.535l5.797,5.931h-24.342c-.618,0-1.119.501-1.119,1.119,0,0,0,.001,0,.002,0,.618.501,1.119,1.119,1.119h24.342l-5.797,5.933c-.419.455-.39,1.164.066,1.583.436.401,1.108.394,1.535-.016l7.656-7.835c.427-.435.427-1.132,0-1.567Z"/></svg>