<svg id="uuid-7edd45ce-58a1-4bf1-a491-85815945d962" xmlns="http://www.w3.org/2000/svg" viewBox="0 0 96 96"><rect id="uuid-eaad359a-a992-4a20-9e3c-d86a77a82a92" x="25.04" y="29.199" width="57.84" height="37.84" class="sgmaincolor"/><path d="m83.88,67.039V29.199c0-.552-.448-1-1-1h-35.628c-2.151-7.583-9.045-13.153-17.213-13.153-9.881,0-17.92,8.144-17.92,18.153,0,7.875,4.986,14.576,11.92,17.084v16.756c0,.552.448,1,1,1h25.713l-6.579,11.415c-.179.31-.178.69,0,1,.179.309.509.5.866.5h37.84c.357,0,.687-.19.866-.5.179-.31.179-.69,0-1l-6.579-11.415h5.713c.552,0,1-.448,1-1ZM14.12,33.199c0-8.907,7.142-16.153,15.92-16.153,7.058,0,13.049,4.688,15.13,11.153h-20.13c-.552,0-1,.448-1,1v18.953c-5.811-2.409-9.92-8.2-9.92-14.953Zm31.84,0c0,8.907-7.142,16.153-15.92,16.153-1.384,0-2.719-.199-4-.537v-18.616h19.634c.181.973.286,1.974.286,3Zm35.19,45.754h-34.379l6.291-10.915h21.798l6.291,10.915Zm-26.936-12.915l9.746-16.91,9.746,16.91h-19.492Zm27.666,0h-5.866l-11.188-19.412c-.356-.619-1.376-.619-1.732,0l-11.188,19.412h-25.866v-15.159c1.288.299,2.623.472,4,.472,9.881,0,17.92-8.144,17.92-18.153,0-1.024-.104-2.022-.266-3h34.186v35.84Z"/></svg>
