<svg xmlns="http://www.w3.org/2000/svg" viewBox="0 0 96 96"><rect opacity="0" x="-0.249" y="0.19" width="96" height="96" fill="#fff"/><path d="M78.543,19.235A16.9,16.9,0,0,0,61.8,36.288a17.072,17.072,0,0,0,6.7,13.565V73.8l10.045,6.821L88.589,73.8V70.393l-3.349-3.41,3.349-3.41V60.162l-3.349-3.41,3.349-3.411V49.853a17.074,17.074,0,0,0,6.7-13.565A16.9,16.9,0,0,0,78.543,19.235Zm-.278,20.22a5.579,5.579,0,1,1,5.579-5.579A5.586,5.586,0,0,1,78.265,39.455Z" class="sgmaincolor"/><circle cx="15.397" cy="31.555" r="2.257"/><circle cx="22.168" cy="31.555" r="2.257"/><circle cx="28.94" cy="31.555" r="2.257"/><rect x="1.738" y="39.215" width="69.744" height="26.154" class="sgmaincolor"/><path d="M78.543,18.235A17.486,17.486,0,0,0,66.61,22.968H8.276a1,1,0,0,0-1,1V38.216H1.738a1,1,0,0,0-1,1V65.37a1.012,1.012,0,0,0,.294.708l6.244,6.244v5.032a1,1,0,0,0,1,1h7.941v7.252a1,1,0,0,0,1,1H95.286a1,1,0,0,0,1-1V36.288A17.92,17.92,0,0,0,78.543,18.235ZM9.276,24.968H64.742A18.155,18.155,0,0,0,60.8,36.288a18.394,18.394,0,0,0,.1,1.928H9.276ZM2.738,40.216h58.49A18,18,0,0,0,67.5,50.337V64.37H2.738ZM4.152,66.37H7.276v3.124Zm5.124,9.984V66.37H67.5v7.435a1,1,0,0,0,.438.827l2.537,1.722Zm85.01,8.252H18.217V78.354h55.2l4.564,3.1a1,1,0,0,0,1.123,0L89.15,74.632a1,1,0,0,0,.438-.827V70.393a1,1,0,0,0-.286-.7l-2.66-2.71,2.66-2.71a1,1,0,0,0,.286-.7V60.162a1,1,0,0,0-.286-.7l-2.66-2.71,2.66-2.711a1,1,0,0,0,.286-.7v-3a18.139,18.139,0,0,0,4.7-5.777ZM87.978,49.061a1,1,0,0,0-.39.792v3.079l-3.061,3.12a1,1,0,0,0,0,1.4l3.061,3.119v2.593l-3.061,3.119a1,1,0,0,0,0,1.4l3.061,3.12v2.472l-9.045,6.142L69.5,73.275V49.853a1,1,0,0,0-.39-.792,15.744,15.744,0,1,1,18.87,0Z"/><path d="M78.265,28.3a5.579,5.579,0,1,0,5.579,5.578A5.585,5.585,0,0,0,78.265,28.3Zm0,9.157a3.579,3.579,0,1,1,3.579-3.579A3.583,3.583,0,0,1,78.265,37.455Z"/><path d="M19.928,55.7a1.471,1.471,0,0,0-.575-1.249,7.5,7.5,0,0,0-2.068-.92,14.635,14.635,0,0,1-2.367-.953,3.866,3.866,0,0,1-2.375-3.458,3.366,3.366,0,0,1,.637-2.016,4.163,4.163,0,0,1,1.83-1.384,6.885,6.885,0,0,1,2.677-.5,6.273,6.273,0,0,1,2.662.541A4.249,4.249,0,0,1,22.165,47.3a4.006,4.006,0,0,1,.646,2.241H19.938a1.877,1.877,0,0,0-.6-1.489,2.476,2.476,0,0,0-1.7-.531A2.648,2.648,0,0,0,16,47.961a1.405,1.405,0,0,0-.585,1.173,1.342,1.342,0,0,0,.686,1.139,7.728,7.728,0,0,0,2.016.863,8.72,8.72,0,0,1,3.573,1.829,3.642,3.642,0,0,1,1.12,2.72,3.358,3.358,0,0,1-1.369,2.84,6,6,0,0,1-3.688,1.03,7.135,7.135,0,0,1-2.931-.589,4.637,4.637,0,0,1-2.016-1.615,4.127,4.127,0,0,1-.694-2.375H15q0,2.31,2.758,2.309a2.687,2.687,0,0,0,1.6-.417A1.353,1.353,0,0,0,19.928,55.7Z"/><path d="M33.146,53.664H27.628v5.7H24.755V45.418h9.08v2.327H27.628v3.6h5.518Z"/><path d="M46.19,47.745H41.918V59.363H39.045V47.745H34.831V45.418H46.19Z"/><path d="M50.7,54.45v4.913H47.829V45.418h5.44a6.3,6.3,0,0,1,2.763.574,4.248,4.248,0,0,1,1.835,1.634,4.557,4.557,0,0,1,.641,2.408,4,4,0,0,1-1.4,3.232,5.84,5.84,0,0,1-3.884,1.184Zm0-2.328h2.567a2.525,2.525,0,0,0,1.738-.536,1.948,1.948,0,0,0,.6-1.532A2.3,2.3,0,0,0,55,48.4a2.257,2.257,0,0,0-1.667-.651H50.7Z"/></svg>