<svg xmlns="http://www.w3.org/2000/svg" viewBox="0 0 96 96"><rect width="96" height="96" fill="#fff" opacity="0" /><polygon points="48 18 42 14 10 14 10 20 5 20 5 76 41 76 41 79 48 82 55 79 55 76 91 76 91 20 87 20 87 14 54 14 48 18" class="sgmaincolor"/><path d="M91,19h-3v-5c0-.553-.447-1-1-1H54c-.197,0-.391,.059-.555,.168l-5.445,3.63-5.445-3.63c-.164-.109-.357-.168-.555-.168H10c-.553,0-1,.447-1,1v5H5c-.553,0-1,.447-1,1v56c0,.553,.447,1,1,1H40v2c0,.4,.238,.762,.606,.919l7,3c.125,.054,.26,.081,.394,.081s.269-.027,.394-.081l7-3c.368-.157,.606-.519,.606-.919v-2h35c.553,0,1-.447,1-1V20c0-.553-.447-1-1-1ZM11,69h30c.553,0,1-.447,1-1s-.447-1-1-1H11v-2h30.586l5.414,5.414v4.172l-3.293-3.293c-.188-.188-.441-.293-.707-.293H11v-2Zm38,1.459l6.37-5.459h30.63v2h-30c-.553,0-1,.447-1,1s.447,1,1,1h30v2H54c-.234,0-.461,.082-.641,.231l-4.359,3.634v-4.406Zm5.303-55.459h31.697V63h-31c-.238,0-.47,.085-.65,.241l-5.35,4.585V18.535l5.303-3.535Zm-43.303,0h30.697l5.303,3.535v49.05l-4.293-4.292c-.188-.188-.441-.293-.707-.293H11V15Zm79,60H55c-.553,0-1,.447-1,1v2.341l-6,2.571-6-2.571v-2.341c0-.553-.447-1-1-1H6V21h3v51c0,.553,.447,1,1,1H42.586l4.707,4.707c.006,.006,.014,.008,.021,.014,.077,.073,.163,.138,.263,.185,.007,.003,.015,.002,.022,.005,.127,.056,.263,.09,.402,.09,.123,0,.245-.027,.361-.072,.007-.003,.015-.001,.022-.004,.094-.039,.18-.091,.255-.154,0,0,.002,0,.002-.001l5.722-4.769h32.638c.553,0,1-.447,1-1V21h2v54Z"/><path d="M55,26h24c.553,0,1-.447,1-1s-.447-1-1-1h-24c-.553,0-1,.447-1,1s.447,1,1,1Z"/><path d="M73,30h-18c-.553,0-1,.447-1,1s.447,1,1,1h18c.553,0,1-.447,1-1s-.447-1-1-1Z"/><path d="M29,25c-7.719,0-14,6.28-14,14s6.28,14,14,14,14-6.28,14-14-6.281-14-14-14Zm-12.701,14c0-1.841,.395-3.589,1.1-5.169l6.059,16.6c-4.237-2.059-7.159-6.403-7.159-11.431Zm12.701,12.702c-1.246,0-2.45-.182-3.588-.518l3.811-11.073,3.904,10.696c.026,.063,.057,.121,.091,.175-1.32,.464-2.738,.72-4.218,.72Zm1.751-18.657c.764-.039,1.453-.12,1.453-.12,.684-.081,.603-1.087-.081-1.047,0,0-2.057,.161-3.385,.161-1.248,0-3.345-.161-3.345-.161-.685-.04-.765,1.006-.081,1.047,0,0,.647,.08,1.332,.12l1.979,5.422-2.78,8.336-4.625-13.758c.765-.039,1.453-.12,1.453-.12,.684-.081,.603-1.087-.081-1.047,0,0-2.057,.161-3.385,.161-.238,0-.519-.006-.818-.016,2.271-3.448,6.175-5.724,10.612-5.724,3.307,0,6.318,1.264,8.577,3.335-.054-.003-.108-.01-.164-.01-1.247,0-2.132,1.087-2.132,2.254,0,1.047,.603,1.932,1.247,2.979,.483,.846,1.047,1.932,1.047,3.503,0,1.087-.323,2.456-.967,4.107l-1.267,4.232-4.589-13.654Zm9.394-.138c.991,1.809,1.556,3.885,1.555,6.093,0,4.685-2.539,8.777-6.315,10.978l3.879-11.216c.725-1.812,.966-3.26,.966-4.549,0-.468-.031-.902-.086-1.306Z"/></svg>
