
<svg id="uuid-fdb33f36-bd0d-4f5a-be10-8ba9635f189a" xmlns="http://www.w3.org/2000/svg" viewBox="0 0 96 96">
    <rect x="14" y="27" width="30" height="28" class="sgmaincolor"/>
    <rect x="52" y="27" width="30" height="16" class="sgmaincolor"/>
    <rect x="14" y="63" width="30" height="16" class="sgmaincolor"/>
    <rect x="52" y="51" width="30" height="28" class="sgmaincolor"/>
    <path d="m44,56H14c-.553,0-1-.448-1-1v-28c0-.552.447-1,1-1h30c.553,0,1,.448,1,1v28c0,.552-.447,1-1,1Zm-29-2h28v-26H15v26Z"/>
    <path d="m82,44h-30c-.553,0-1-.448-1-1v-16c0-.552.447-1,1-1h30c.553,0,1,.448,1,1v16c0,.552-.447,1-1,1Zm-29-2h28v-14h-28v14Z"/>
    <path d="m92,16H4c-.553,0-1,.448-1,1v62c0,.552.447,1,1,1h88c.553,0,1-.448,1-1V17c0-.552-.447-1-1-1ZM15,78v-14h28v14H15Zm38,0v-26h28v26h-28Zm38,0h-8v-27c0-.552-.447-1-1-1h-30c-.553,0-1,.448-1,1v27h-6v-15c0-.552-.447-1-1-1H14c-.553,0-1,.448-1,1v15H5V18h86v60Z"/>
</svg>
