<svg xmlns="http://www.w3.org/2000/svg" viewBox="0 0 96 96"><rect x=".117" width="96" height="96" fill="#fff" opacity="0"/><path d="M46.473,6.75c-11.176,0-20.269,9.093-20.269,20.269s9.093,20.268,20.269,20.268,20.269-9.092,20.269-20.268S57.648,6.75,46.473,6.75Z" class="sgmaincolor"/><path d="M88.419,68.16l-8.4-8.4c-.391-.391-1.023-.391-1.414,0l-2.418,2.417-11.519-9.359c-.179-.145-.401-.224-.631-.224h-12.982c-.208,0-.412,.065-.581,.187l-5.085,3.632h-11.898c-.266,0-.52,.105-.707,.293l-2.503,2.503-6.793-4.076-5.99-8.235c-.188-.259-.488-.412-.809-.412H8.288c-.359,0-.69,.192-.868,.504-.179,.312-.176,.695,.007,1.005l9.928,16.801c.048,.08,.106,.153,.174,.217l14.511,13.746c.186,.177,.432,.274,.688,.274h26.605l-1.348,1.348c-.391,.391-.391,1.023,0,1.414l9.164,9.165c.188,.188,.442,.293,.707,.293h.019c.271-.005,.529-.12,.714-.319l19.856-21.384c.366-.395,.355-1.008-.025-1.388Zm-55.294,8.871l-14.119-13.376-8.965-15.171h6.139l5.81,7.988c.079,.109,.179,.2,.294,.27l7.445,4.467,2.93,4.395c.186,.278,.498,.445,.832,.445h17.564c.553,0,1-.447,1-1s-.447-1-1-1h-17.029l-2.303-3.455,2.182-2.182h11.805c.208,0,.412-.065,.581-.187l5.085-3.632h12.307l11.083,9.005-13.433,13.433h-28.207Zm34.704,11.778l-7.724-7.724,2.348-2.348,14.51-14.51,2.349-2.348,7.012,7.012-18.494,19.917Z"/><path d="M51.055,66.048h-17.564c-.334,0-.646-.167-.832-.445l-2.93-4.395-7.445-4.467c-.115-.069-.215-.16-.294-.27l-5.81-7.988h-6.139l8.965,15.171,14.119,13.376h28.207l13.433-13.433-11.083-9.005h-12.307l-5.085,3.632c-.169,.121-.373,.187-.581,.187h-11.805l-2.182,2.182,2.303,3.455h17.029c.553,0,1,.447,1,1s-.447,1-1,1Z" class="sgmaincolor"/><polygon points="67.829 88.809 86.323 68.892 79.312 61.881 76.963 64.228 62.453 78.738 60.106 81.086 67.829 88.809" class="sgmaincolor"/><path d="M14.398,39.32c.553,0,1-.447,1-1V16.173c0-.553-.447-1-1-1s-1,.447-1,1v22.147c0,.553,.447,1,1,1Z"/><path d="M8.288,44.666c.553,0,1-.447,1-1V26.864c0-.553-.447-1-1-1s-1,.447-1,1v16.802c0,.553,.447,1,1,1Z"/><path d="M46.473,49.286c12.279,0,22.269-9.989,22.269-22.268S58.752,4.75,46.473,4.75,24.204,14.739,24.204,27.018s9.989,22.268,22.269,22.268Zm0-42.536c11.176,0,20.269,9.093,20.269,20.269s-9.093,20.268-20.269,20.268-20.269-9.092-20.269-20.268S35.297,6.75,46.473,6.75Z"/><path d="M37.259,31.446c0,3.466,2.146,6.523,5.414,7.822v1.343c0,.553,.447,1,1,1h5.346c.553,0,1-.447,1-1v-1.906c3.104-1.351,5.07-4.181,5.07-7.383,0-1.931-.679-3.722-1.953-5.169-1.217-1.425-2.92-2.428-4.793-2.871h5.746c.553,0,1-.447,1-1,0-3.149-2.01-6.036-5.07-7.382v-1.782c0-.553-.447-1-1-1h-5.346c-.553,0-1,.447-1,1v1.438c-3.247,1.29-5.38,4.31-5.38,7.726,0,2.17,.862,4.221,2.428,5.775,1.223,1.214,2.762,2.031,4.459,2.389h-5.921c-.553,0-1,.447-1,1Zm6.185,1c.418,1.066,1.484,1.827,2.73,1.827,1.067,0,2.056-.551,2.579-1.437,.499-.844,.501-1.845,.004-2.746-.491-.89-1.451-1.439-2.511-1.439-.024,0-.05,0-.074,0-1.944,0-3.733-.714-5.042-2.014-1.185-1.176-1.837-2.723-1.837-4.355,0-2.772,1.877-5.208,4.672-6.062,.421-.128,.708-.517,.708-.956v-1.146h3.346v1.463c0,.425,.269,.804,.671,.944,2.279,.795,3.91,2.638,4.307,4.757h-4.067c-.428-1.038-1.501-1.776-2.755-1.776-1.048,0-2.022,.543-2.541,1.416-.496,.834-.506,1.815-.029,2.692,.476,.874,1.417,1.414,2.462,1.414h.105c2.113,0,4.145,.902,5.454,2.436,.958,1.088,1.464,2.422,1.464,3.858,0,2.564-1.727,4.824-4.399,5.757-.402,.141-.671,.52-.671,.944v1.588h-3.346v-1.051c0-.439-.287-.828-.708-.956-2.52-.77-4.254-2.738-4.63-5.158h4.108Zm1.227-1.91c.513,.08,1.035,.104,1.571,.115,.319-.023,.628,.157,.765,.405,.152,.276,.161,.533,.025,.763-.163,.275-.5,.454-.857,.454-.516,0-.919-.363-.919-.827,0-.404-.24-.753-.585-.91Zm2.941-7.396c-.475-.074-.956-.111-1.441-.111-.034,0-.06-.006-.104,0-.302,0-.585-.147-.705-.369-.138-.253-.142-.494-.01-.716,.161-.27,.476-.438,.822-.438,.508,0,.953,.362,.953,.776,0,.363,.194,.682,.484,.857Z"/></svg>