<svg xmlns="http://www.w3.org/2000/svg" x="0px" y="0px" viewBox="0 0 96 96"><rect x="3" y="25" width="90" height="46" class="sgmaincolor"/><path d="M5,33H3v-8h8v2H5V33z M76.1,25H63.3v2h12.9L76.1,25L76.1,25z M54.4,25H41.6v2h12.9L54.4,25L54.4,25z M32.7,25H19.9v2h12.9 L32.7,25L32.7,25z M93,25h-8v2h6v6h2V25z M93,41.7h-2v12.7h2V41.7z M93,63h-2v6h-6v2h8V63z M76.1,69H63.3v2h12.9L76.1,69L76.1,69z M54.4,69H41.6v2h12.9L54.4,69L54.4,69z M32.7,69H19.9v2h12.9L32.7,69L32.7,69z M11,69H5v-6H3v8h8V69z M5,41.7H3v12.7h2V41.7z"/></svg>
