<svg xmlns="http://www.w3.org/2000/svg" viewBox="0 0 96 96"><rect width="96" height="96" fill="#fff" opacity="0"/><path d="M6.5,19v58H89.5V19H6.5Zm15.005,20.13h51.461v7.135H21.505v-7.135Zm51.461,31.144H21.505v-19.14h51.461v19.14Z" class="sgmaincolor"/><path d="M90.5,17H5.5c-.553,0-1,.447-1,1v60c0,.553,.447,1,1,1H90.5c.553,0,1-.447,1-1V18c0-.553-.447-1-1-1Zm-1,2v10.308H6.5v-10.308H89.5ZM6.5,77V31.308H89.5v45.692H6.5Z"/><g><path d="M11.331,22.092c-1.106,.004-2.001,.898-2.001,2s.9,2,2.009,2,2.009-.895,2.009-2h-.007c0-1.105-.9-2-2.009-2Z"/><path d="M18.041,22.092c-1.106,.004-2.001,.898-2.001,2s.899,2,2.009,2,2.009-.895,2.009-2h-.007c0-1.105-.9-2-2.009-2Z"/><path d="M24.76,26.092c1.109,0,2.009-.895,2.009-2h-.008c0-1.105-.899-2-2.009-2-1.106,.004-2.001,.898-2.001,2s.899,2,2.009,2Z"/><path d="M72.967,38.13H21.506c-.553,0-1,.447-1,1v7.136c0,.553,.447,1,1,1h51.461c.553,0,1-.447,1-1v-7.136c0-.553-.447-1-1-1Zm-1,7.136H22.506v-5.136h49.461v5.136Z"/><path d="M72.967,50.135H21.506c-.553,0-1,.447-1,1v19.139c0,.553,.447,1,1,1h51.461c.553,0,1-.447,1-1v-19.139c0-.553-.447-1-1-1Zm-1,19.139H22.506v-17.139h49.461v17.139Z"/></g></svg>