<svg id="uuid-1dca981b-542b-4eed-870e-29b8a64d71a2" xmlns="http://www.w3.org/2000/svg" viewBox="0 0 96 96"><rect id="uuid-7d0ce97a-20c7-4498-8a60-49d5d7373ce0" x="18.08" y="4.08" width="59.84" height="43.84" class="sgmaincolor"/><path d="m79,4.08c0-.596-.484-1.08-1.08-1.08H18.08c-.596,0-1.08.484-1.08,1.08v43.84c0,.014.008.026.008.04,0,.014-.008.026-.008.04v44c0,.552.448,1,1,1h60c.552,0,1-.448,1-1v-44c0-.014-.008-.026-.008-.04,0-.014.008-.026.008-.04V4.08Zm-59.84,1.08h57.68v41.68H19.16V5.16Zm57.84,85.84H19v-42h58v42Z"/><path d="m67.491,34.943l-14.656-14.729c-.421-.424-1.105-.43-1.534-.014l-3.375,3.268-6.283-6.687c-.397-.422-1.055-.461-1.5-.086l-13.157,11.108c-.461.389-.519,1.078-.13,1.539s1.079.519,1.539.13l12.366-10.439,13.926,14.82c.215.229.505.344.796.344.269,0,.537-.098.748-.296.439-.413.461-1.104.048-1.544l-6.856-7.296,2.625-2.541,13.896,13.965c.213.214.494.322.774.322.279,0,.558-.106.771-.318.428-.426.429-1.117.004-1.545Z"/><path d="m64.493,24.035c-2.708,0-4.91-2.208-4.91-4.921s2.203-4.92,4.91-4.92,4.911,2.207,4.911,4.92-2.203,4.921-4.911,4.921Zm0-7.657c-1.503,0-2.726,1.228-2.726,2.736s1.223,2.736,2.726,2.736,2.726-1.228,2.726-2.736-1.223-2.736-2.726-2.736Z"/><path d="m64.363,61.248H31.637c-.604,0-1.092-.489-1.092-1.092s.489-1.092,1.092-1.092h32.726c.604,0,1.092.489,1.092,1.092s-.489,1.092-1.092,1.092Z"/><path d="m64.363,67.811H31.637c-.604,0-1.092-.489-1.092-1.092s.489-1.092,1.092-1.092h32.726c.604,0,1.092.489,1.092,1.092s-.489,1.092-1.092,1.092Z"/><path d="m64.363,74.374H31.637c-.604,0-1.092-.489-1.092-1.092s.489-1.092,1.092-1.092h32.726c.604,0,1.092.489,1.092,1.092s-.489,1.092-1.092,1.092Z"/><path d="m42.546,80.937h-10.909c-.604,0-1.092-.489-1.092-1.092s.489-1.092,1.092-1.092h10.909c.604,0,1.092.489,1.092,1.092s-.489,1.092-1.092,1.092Z"/></svg>
