
<svg id="uuid-9d865d96-9ff4-4663-b939-243babbf1552" xmlns="http://www.w3.org/2000/svg" viewBox="0 0 96 96">
    <rect id="uuid-82869306-3feb-4642-a3c1-5ac38f89834f" x="4" y="33" width="88" height="30" class="sgmaincolor"/>
    <path d="m92,16H4c-.552,0-1,.448-1,1v62c0,.552.448,1,1,1h88c.553,0,1-.448,1-1V17c0-.552-.447-1-1-1Zm-1,2v14H5v-14h86Zm0,44H5v-28h86v28ZM5,78v-14h86v14H5Z"/>
    <path d="m63,40h-30c-.552,0-1-.448-1-1s.448-1,1-1h30c.553,0,1,.448,1,1s-.447,1-1,1Z"/>
    <path d="m63,46h-30c-.552,0-1-.448-1-1s.448-1,1-1h30c.553,0,1,.448,1,1s-.447,1-1,1Z"/>
    <path d="m63,52h-30c-.552,0-1-.448-1-1s.448-1,1-1h30c.553,0,1,.448,1,1s-.447,1-1,1Z"/>
    <path d="m53,58h-10c-.553,0-1-.448-1-1s.447-1,1-1h10c.553,0,1,.448,1,1s-.447,1-1,1Z"/>
</svg>
