<svg xmlns="http://www.w3.org/2000/svg" viewBox="0 0 96 96"><rect opacity="0" x=".117" y="0" width="96" height="96" fill="#fff"/><path d="M86.347,74.173v-6.261h-3.913v-6.259h-2.348v-23.478h2.348v-5.262h3.913v-7.261L48.313,11.566,9.653,25.653v7.261h3.913v5.262h2.348v23.478h-2.348v6.259h-3.913v6.261H4.957v6.261H91.043v-6.261h-4.696Zm-51.651-12.52h-2.348v6.259h-6.261v-6.259h-2.348v-23.478h2.348v-5.262h6.261v5.262h2.348v23.478Zm18.782,0h-2.348v6.259h-6.261v-6.259h-2.348v-23.478h2.348v-5.262h6.261v5.262h2.348v23.478Zm18.782,0h-2.348v6.259h-6.261v-6.259h-2.348v-23.478h2.348v-5.262h6.261v5.262h2.348v23.478Z" class="sgmaincolor"/><path d="M49.627,24.838c0-.453-.126-.814-.378-1.083s-.679-.516-1.282-.743c-.604-.227-1.123-.452-1.561-.676-.438-.225-.812-.481-1.125-.772-.312-.29-.556-.632-.73-1.024-.174-.394-.261-.861-.261-1.403,0-.936,.299-1.702,.896-2.3s1.392-.945,2.382-1.045v-1.777h1.328v1.802c.979,.139,1.746,.547,2.3,1.225,.553,.678,.83,1.556,.83,2.636h-2.399c0-.664-.137-1.161-.411-1.49-.273-.329-.641-.494-1.1-.494-.454,0-.805,.129-1.055,.386-.248,.258-.373,.613-.373,1.067,0,.42,.122,.758,.365,1.012,.243,.255,.696,.516,1.357,.781s1.205,.516,1.631,.751,.786,.501,1.079,.797,.518,.634,.673,1.013c.154,.379,.232,.82,.232,1.324,0,.94-.294,1.704-.881,2.291s-1.395,.932-2.424,1.037v1.652h-1.319v-1.645c-1.135-.121-2.013-.523-2.636-1.207-.622-.684-.934-1.593-.934-2.727h2.398c0,.658,.157,1.163,.47,1.515s.762,.526,1.349,.526c.487,0,.871-.128,1.154-.386,.281-.257,.423-.604,.423-1.042Z"/><path d="M91.043,73.174h-3.696v-5.261c0-.553-.447-1-1-1h-2.912v-5.26c0-.553-.447-1-1-1h-1.349v-21.478h1.349c.553,0,1-.447,1-1v-5.263h2.912c.553,0,1-.447,1-1v-6.261c0-.418-.261-.792-.652-.938L48.661,10.628c-.224-.084-.467-.083-.69-.002L9.311,24.713c-.395,.144-.657,.52-.657,.939v6.261c0,.553,.447,1,1,1h2.912v5.263c0,.553,.447,1,1,1h1.349v21.478h-1.349c-.553,0-1,.447-1,1v5.26h-2.912c-.553,0-1,.447-1,1v5.261h-3.696c-.553,0-1,.447-1,1v6.261c0,.553,.447,1,1,1H91.043c.553,0,1-.447,1-1v-6.261c0-.553-.447-1-1-1Zm-9.608-6.261h-10.521v-4.26h10.521v4.26Zm-2.349-6.26h-5.825v-21.478h5.825v21.478Zm2.349-23.478h-10.521v-4.261h10.521v4.261Zm-11.521,2h1.348v21.478h-1.348c-.553,0-1,.447-1,1v5.26h-4.261v-5.26c0-.553-.447-1-1-1h-1.349v-21.478h1.349c.553,0,1-.447,1-1v-5.263h4.261v5.263c0,.553,.447,1,1,1Zm-24.044,27.737v-5.26c0-.553-.447-1-1-1h-1.348v-21.478h1.348c.553,0,1-.447,1-1v-5.263h4.262v5.263c0,.553,.447,1,1,1h1.348v21.478h-1.348c-.553,0-1,.447-1,1v5.26h-4.262Zm-12.521,0v-4.26h10.521v4.26h-10.521Zm0-33.998h10.521v4.261h-10.521v-4.261Zm8.173,6.261v21.478h-5.825v-21.478h5.825Zm12.958,21.478v-21.478h5.825v21.478h-5.825Zm-2.348-23.478v-4.261h10.521v4.261h-10.521Zm0,29.737v-4.26h10.521v4.26h-10.521ZM10.653,26.353L48.311,12.631l37.036,13.718v4.564H10.653v-4.561Zm20.694,6.561v5.263c0,.553,.447,1,1,1h1.348v21.478h-1.348c-.553,0-1,.447-1,1v5.26h-4.261v-5.26c0-.553-.447-1-1-1h-1.348v-21.478h1.348c.553,0,1-.447,1-1v-5.263h4.261Zm-16.782,.002h10.521v4.261H14.565v-4.261Zm2.349,6.261h5.825v21.478h-5.825v-21.478Zm-2.349,23.478h10.521v4.26H14.565v-4.26Zm-3.912,6.26h2.907s.003,0,.005,0h12.521s.003,0,.005,0h6.251s.003,0,.005,0h12.521s.003,0,.005,0h6.252s.003,0,.005,0h12.521s.003,0,.005,0h6.251s.003,0,.005,0h12.521s.003,0,.005,0h2.907v4.261H10.653v-4.261Zm79.39,10.521H5.957v-4.261H90.043v4.261Z"/></svg>