<svg xmlns="http://www.w3.org/2000/svg" viewBox="0 0 96 96">
    <rect x="10.941" y="34" width="14.118" height="18" class="sgmaincolor"/>
    <rect x="31" y="34" width="14" height="18" class="sgmaincolor"/>
    <rect x="51" y="34" width="14" height="18" class="sgmaincolor"/>
    <rect x="71" y="34" width="14" height="18" class="sgmaincolor"/>
    <path d="m25.059,53h-14.117c-.552,0-1-.448-1-1v-18c0-.552.448-1,1-1h14.117c.552,0,1,.448,1,1v18c0,.552-.448,1-1,1Zm-13.117-2h12.117v-16h-12.117v16Z"/>
    <path d="m45,53h-14c-.552,0-1-.448-1-1v-18c0-.552.448-1,1-1h14c.552,0,1,.448,1,1v18c0,.552-.448,1-1,1Zm-13-2h12v-16h-12v16Z"/>
    <path d="m65,53h-14c-.552,0-1-.448-1-1v-18c0-.552.448-1,1-1h14c.552,0,1,.448,1,1v18c0,.552-.448,1-1,1Zm-13-2h12v-16h-12v16Z"/>
    <path d="m85,53h-14c-.552,0-1-.448-1-1v-18c0-.552.448-1,1-1h14c.552,0,1,.448,1,1v18c0,.552-.448,1-1,1Zm-13-2h12v-16h-12v16Z"/>
    <path d="m25,59h-14c-.552,0-1-.448-1-1s.448-1,1-1h14c.552,0,1,.448,1,1s-.448,1-1,1Z"/>
    <path d="m19,64h-8c-.552,0-1-.448-1-1s.448-1,1-1h8c.552,0,1,.448,1,1s-.448,1-1,1Z"/>
    <path d="m45,59h-14c-.552,0-1-.448-1-1s.448-1,1-1h14c.552,0,1,.448,1,1s-.448,1-1,1Z"/>
    <path d="m39,64h-8c-.552,0-1-.448-1-1s.448-1,1-1h8c.552,0,1,.448,1,1s-.448,1-1,1Z"/>
    <path d="m65,59h-14c-.552,0-1-.448-1-1s.448-1,1-1h14c.552,0,1,.448,1,1s-.448,1-1,1Z"/>
    <path d="m59,64h-8c-.552,0-1-.448-1-1s.448-1,1-1h8c.552,0,1,.448,1,1s-.448,1-1,1Z"/>
    <path d="m85,59h-14c-.552,0-1-.448-1-1s.448-1,1-1h14c.552,0,1,.448,1,1s-.448,1-1,1Z"/>
    <path d="m79,64h-8c-.552,0-1-.448-1-1s.448-1,1-1h8c.552,0,1,.448,1,1s-.448,1-1,1Z"/>
    <path d="m92,80H4c-.552,0-1-.448-1-1V17c0-.552.448-1,1-1h88c.552,0,1,.448,1,1v62c0,.552-.448,1-1,1Zm-87-2h86V18H5v60Z"/>
</svg>
