<svg id="uuid-0967ae6b-7f47-4b67-88a1-a94fdcee2fd4" xmlns="http://www.w3.org/2000/svg" viewBox="0 0 96 96"><path d="m45.415,65.755l-5.501-12.487s0,0,0,0l-10.498-23.83c-.16-.363-.519-.597-.915-.597s-.755.234-.915.597l-16,36.317c-.223.505.006,1.096.512,1.318.506.224,1.096-.006,1.318-.512l5.245-11.905h19.68l5.245,11.905c.165.374.531.597.916.597.134,0,.271-.028.402-.085.505-.223.734-.813.512-1.318Zm-25.874-13.098l8.959-20.335,8.959,20.335h-17.918Z"/><path d="m70.5,43.159c-.553,0-1,.448-1,1v4.533c-2.151-3.213-5.828-5.337-10-5.337-6.617,0-12,5.339-12,11.902s5.383,11.902,12,11.902c4.172,0,7.849-2.125,10-5.337v4.337c0,.552.447,1,1,1s1-.448,1-1v-22c0-.552-.447-1-1-1Zm-11,22c-5.514,0-10-4.442-10-9.902s4.486-9.902,10-9.902,10,4.442,10,9.902-4.486,9.902-10,9.902Z"/><path d="m83.5,78c-.553,0-1-.448-1-1V19c0-.552.447-1,1-1s1,.448,1,1v58c0,.552-.447,1-1,1Z"/></svg>
