<?xml version="1.0" encoding="utf-8"?>
<svg width="18" height="18" version="1.1" xmlns="http://www.w3.org/2000/svg">
  <g>
    <title>Layer 1</title>
    <g stroke="null" id="svg_1">
      <g stroke="null" id="svg_2">
        <path stroke="null" d="m17.64199,7.69031c0,-0.3653 -0.20295,-0.69376 -0.5298,-0.85738l-1.28692,-0.64346l1.28692,-0.64343c0.00003,-0.00003 0.00014,-0.00007 0.00014,-0.00007c0.32678,-0.16356 0.52973,-0.49205 0.52973,-0.85735c0,-0.36523 -0.20299,-0.69372 -0.5298,-0.85735l-7.26531,-3.63255c-0.5304,-0.26497 -1.16364,-0.26497 -1.69414,0.00003l-7.26518,3.63269c-0.32671,0.16349 -0.52969,0.49196 -0.52969,0.85721c0,0.3653 0.20295,0.69376 0.5298,0.85738l1.28689,0.64343l-1.28705,0.64353c-0.32667,0.16356 -0.52963,0.49202 -0.52963,0.85732s0.20295,0.69376 0.5298,0.85735l1.28689,0.64346l-1.28678,0.64339c-0.32667,0.16322 -0.52976,0.49158 -0.5299,0.85691c-0.00014,0.36553 0.20282,0.6942 0.5298,0.85786l7.26521,3.63262c0.2652,0.1325 0.55603,0.1987 0.84699,0.1987c0.29096,0 0.58192,-0.06627 0.84716,-0.19873l7.26521,-3.63262c0.32684,-0.16356 0.52983,-0.49226 0.52969,-0.85779c-0.00014,-0.36533 -0.20322,-0.69369 -0.5298,-0.85681l-1.28692,-0.64346l1.28705,-0.64353c0.32671,-0.16359 0.52966,-0.49205 0.52966,-0.85735l0,0zm-16.39875,-2.85491c-0.07896,-0.03953 -0.09071,-0.1089 -0.09071,-0.14671s0.01182,-0.10718 0.09057,-0.14661l7.26497,-3.63249c0.15404,-0.07697 0.323,-0.11539 0.49196,-0.11539c0.16889,0 0.33781,0.03845 0.49175,0.11535l7.26494,3.63245c0.07889,0.0395 0.09071,0.10887 0.09071,0.14668s-0.01175,0.10718 -0.09071,0.14671l-7.26484,3.63238c-0.30804,0.15387 -0.6758,0.15387 -0.98367,0.00003l-7.26497,-3.63242l0,0zm15.51372,5.70995c0.07865,0.03929 0.09044,0.10853 0.09044,0.14638c0.00003,0.03791 -0.01175,0.10742 -0.09057,0.14685l-7.26497,3.63249c-0.30804,0.15387 -0.6758,0.1539 -0.98367,0.00003l-7.26494,-3.63249c-0.07896,-0.03953 -0.09074,-0.10901 -0.09071,-0.14692c0,-0.03778 0.01175,-0.10705 0.09057,-0.14641l1.81996,-0.90998l5.08988,2.54491c0.2652,0.1325 0.55603,0.1987 0.84695,0.1987c0.29096,0 0.58192,-0.06627 0.84716,-0.19873l5.08975,-2.54487l1.82016,0.91004zm-0.00017,-2.7084l-7.26494,3.63249c-0.30804,0.15387 -0.6758,0.1539 -0.98367,0.00003l-7.26494,-3.63245c-0.07896,-0.0395 -0.09071,-0.10887 -0.09071,-0.14668c0,-0.03788 0.01175,-0.10718 0.09057,-0.14665l1.81996,-0.90998l5.08988,2.54491c0.26517,0.1325 0.55606,0.1987 0.84695,0.1987c0.29089,0 0.58189,-0.06623 0.84712,-0.19877l5.08982,-2.54487l1.81982,0.90991c0.07896,0.03953 0.09071,0.10887 0.09071,0.14671c0.00003,0.03781 -0.01175,0.10718 -0.09057,0.14665l0,0z" id="svg_3" style="fill: rgb(255, 255, 255);"/>
      </g>
    </g>
    <g id="svg_4"/>
    <g id="svg_5"/>
    <g id="svg_6"/>
    <g id="svg_7"/>
    <g id="svg_8"/>
    <g id="svg_9"/>
    <g id="svg_10"/>
    <g id="svg_11"/>
    <g id="svg_12"/>
    <g id="svg_13"/>
    <g id="svg_14"/>
    <g id="svg_15"/>
    <g id="svg_16"/>
    <g id="svg_17"/>
    <g id="svg_18"/>
  </g>
</svg>