<svg id="Ken_Icon" data-name="Ken Icon" xmlns="http://www.w3.org/2000/svg" xmlns:xlink="http://www.w3.org/1999/xlink" viewBox="0 0 800.7 800.89"><defs><style>.cls-1{fill:url(#linear-gradient);}.cls-2,.cls-6{opacity:0.07;}.cls-3{fill:#fff;}.cls-4{fill:#01767b;}.cls-5{fill:url(#linear-gradient-2);}.cls-7{opacity:0.3;}.cls-8{fill:#01949a;opacity:0.8;}</style><linearGradient id="linear-gradient" x1="399.05" y1="5.61" x2="403.01" y2="807.58" gradientTransform="matrix(1, 0, 0, -1, 0, 800)" gradientUnits="userSpaceOnUse"><stop offset="0" stop-color="#01949a"/><stop offset="0.52" stop-color="#01b0a3"/><stop offset="1" stop-color="#00cdac"/></linearGradient><linearGradient id="linear-gradient-2" x1="398.36" y1="4.71" x2="402.32" y2="806.71" gradientTransform="matrix(1, 0, 0, -1, -0.3, 800)" xlink:href="#linear-gradient"/></defs><title>BBpress Lost password</title><g id="vimeo_lightbox" data-name="vimeo lightbox"><path id="bg" class="cls-1" d="M798.2,800H3.8A2.8,2.8,0,0,1,1,797.2V2.8A2.73,2.73,0,0,1,3.8,0H798.2A2.8,2.8,0,0,1,801,2.8V797.2A2.73,2.73,0,0,1,798.2,800Z" transform="translate(-0.3)"/><path class="cls-2" d="M203.5,565.86a12.4,12.4,0,0,1-12.4-12.4V337.66H156.8a12.4,12.4,0,0,0-12.4,12.4v245.6a12.4,12.4,0,0,0,12.4,12.4H592.6a8,8,0,0,0,8-8v-34.3H203.5Z" transform="translate(-0.3)"/><path class="cls-2" d="M654,249.86l-14.5-14.5a3.14,3.14,0,0,1,0-4.4l14.5-14.5a3.14,3.14,0,0,0,0-4.4l-13.4-13.4a3.14,3.14,0,0,0-4.4,0l-14.5,14.5a3.14,3.14,0,0,1-4.4,0l-14.5-14.5a3.14,3.14,0,0,0-4.4,0L585,212.06a3.14,3.14,0,0,0,0,4.4L599.5,231a3.14,3.14,0,0,1,0,4.4L585,249.86a3.14,3.14,0,0,0,0,4.4l13.4,13.4a3.14,3.14,0,0,0,4.4,0l14.5-14.5a3.14,3.14,0,0,1,4.4,0l14.5,14.5a3.14,3.14,0,0,0,4.4,0l13.4-13.4A3,3,0,0,0,654,249.86Z" transform="translate(-0.3)"/><path class="cls-2" d="M646.2,285.36H210a10.07,10.07,0,0,0-10.1,10.1v250.3a10.07,10.07,0,0,0,10.1,10.1H646.2a10.07,10.07,0,0,0,10.1-10.1V295.46A10.2,10.2,0,0,0,646.2,285.36Z" transform="translate(-0.3)"/><path class="cls-2" d="M504,382.14c-1.79-8.73-7.35-14.27-16-16.47a70.15,70.15,0,0,0-13.68-1.79c-23.45-1.2-46.9-2.46-70.4-1.47-13.93.58-27.86.87-41.76,2.12s-21.21,9-23.06,20.26-2.36,22.69-2.74,34c-.41,11.94.66,23.88,2,35.76.49,4.24,1.1,8.52,3,12.4,3.89,7.95,10.71,11.41,19.22,12.41,20.33,2.4,40.77,2,61.17,2.2,8,0,16,.18,24,0,13.6-.39,27.23-.41,40.69-2.76,9.57-1.67,15.74-7.89,17.76-17.47,2-9.38,2.5-18.9,2.82-28.44C507.55,415.89,507.37,398.89,504,382.14Zm-72.58,50.33c-8,4.61-16,9.14-23.92,13.79-2,1.16-2.87,1.51-2.85-1.49.12-15.13,0-30.25.06-45.38,0-1.33-.44-3.35,2.09-1.89,13.93,8.05,27.85,16.12,42.45,24.58C442.89,425.76,437.14,429.14,431.37,432.47Z" transform="translate(-0.3)"/><path class="cls-3" d="M208.5,559.86a12.4,12.4,0,0,1-12.4-12.4V331.66H161.8a12.4,12.4,0,0,0-12.4,12.4v245.6a12.4,12.4,0,0,0,12.4,12.4H597.6a8,8,0,0,0,8-8v-34.3H208.5Z" transform="translate(-0.3)"/><path class="cls-3" d="M659,243.86l-14.5-14.5a3.14,3.14,0,0,1,0-4.4l14.5-14.5a3.14,3.14,0,0,0,0-4.4l-13.4-13.4a3.14,3.14,0,0,0-4.4,0l-14.5,14.5a3.14,3.14,0,0,1-4.4,0l-14.5-14.5a3.14,3.14,0,0,0-4.4,0L590,206.06a3.14,3.14,0,0,0,0,4.4L604.5,225a3.14,3.14,0,0,1,0,4.4L590,243.86a3.14,3.14,0,0,0,0,4.4l13.4,13.4a3.14,3.14,0,0,0,4.4,0l14.5-14.5a3.14,3.14,0,0,1,4.4,0l14.5,14.5a3.14,3.14,0,0,0,4.4,0l13.4-13.4A3,3,0,0,0,659,243.86Z" transform="translate(-0.3)"/><path class="cls-3" d="M651.2,279.36H215a10.07,10.07,0,0,0-10.1,10.1v250.3a10.07,10.07,0,0,0,10.1,10.1H651.2a10.07,10.07,0,0,0,10.1-10.1V289.46A10.2,10.2,0,0,0,651.2,279.36Z" transform="translate(-0.3)"/><path class="cls-4" d="M482.84,344.67c17.47,0,25.51,8.15,26.18,26.26.51,13.51-4.27,25.52-10.81,36.85-13.35,23.12-29,44.49-49.34,62.11-6.59,5.72-13.9,10.27-22.58,12.26-6.47,1.49-12.07.06-16.85-4.62-7.2-7-10.8-15.94-13.39-25.4q-6.23-22.86-12.54-45.69a62.26,62.26,0,0,0-7.45-17.64c-3.5-5.41-6.08-6-11.53-2.77a20.74,20.74,0,0,0-3.36,2.21c-3.3,2.94-5.59,2.53-8.15-1.28-3.75-5.59-4-5.41,1.12-10,9.5-8.41,18.48-17.42,28.91-24.73,3.69-2.58,7.49-5,12-5.76,8.3-1.37,14.9,2.16,19.22,10,4,7.25,4.64,15.35,6,23.26,2.39,14.26,4.28,28.61,8.95,42.38a26.1,26.1,0,0,0,4.22,8.33c2.22,2.72,5,3,7.37.58,10.16-10.21,17.81-22.07,21.57-36,1.36-5,1.62-10.64-3.85-14-3.5-2.18-7.48-1.44-11.35-1.06-2,.2-4.49,2.4-5.75.69s.76-4.17,1.57-6.18c6.07-14.92,15.75-25.92,32.3-29.32a17,17,0,0,1,2.64-.41C479.55,344.63,481.2,344.67,482.84,344.67Z" transform="translate(-0.3)"/></g><g id="BBpress_Lost_password" data-name="BBpress Lost password"><rect id="bg-2" data-name="bg" class="cls-5" y="0.89" width="800" height="800"/><g id="Shadow" class="cls-6"><path d="M311.55,531.74c20.4-6.36,34.8-28.5,39.27-60.37,1.93-13.72-.61-26-6.83-33.09-13.58-15.43-45.33-6.59-56.16,15.64-3,6.2-12,47.59-12,55.35,0,10.48,5.76,19.56,14.34,22.59h0C295.86,533.87,304.9,533.82,311.55,531.74Z" transform="translate(-0.3)"/><path d="M465.19,362.59v-60a150.93,150.93,0,0,0-55.91-23.37c-15.22-3.05-40.21-3.05-55.43,0a150.92,150.92,0,0,0-55.19,23c-9.94,6.65-28.67,23.95-26.41,24.4,1.17.23,25.9-3.19,37.4-5.17,6.05-1.05,6.08-1.29-6.31,56.09-6.26,29-11.38,52.94-11.38,53.19s1.92-.86,4.27-2.48a92.1,92.1,0,0,1,23.66-10.87c17.33-4.45,36.78.6,48,12.47,2.68,2.83,5,5,5.09,4.86s3.78-16.5,8.12-36.32c5.24-23.85,8-38.78,8.33-44.17.4-8,.35-8.18-2.2-10.19-1.94-1.53-3.91-2.05-7.75-2.05-2.84,0-6-.45-7-1-2.79-1.49-4-5.42-2.67-8.64,1.41-3.41,3.46-3.94,25.06-6.48,9.39-1.1,20.37-2.66,24.4-3.47,8.83-1.77,10.21-1.4,10.21,2.76,0,1.72-4.91,25.85-10.91,53.61s-10.9,50.92-10.9,51.46,1.39-.07,3.08-1.36c4.48-3.42,18.3-9.8,24.85-11.47,7.17-1.84,18.21-1.83,26,0,25.46,6,38.48,29.95,32.74,60.21-3.11,16.38-9.67,29-21.47,41.29-18,18.76-38.65,28-62.3,28-11.43,0-18.49-1.56-27.58-6-7.49-3.63-16.75-12.54-20.28-19.5l-2.51-5-5.91,5.76c-13,12.67-32.37,22.31-48.74,24.23l-5.29.62,3.67,2.28c17.52,10.88,40.42,18.7,62.94,21.5h0c8.24,1,33-.25,42.92-2.21a148.28,148.28,0,0,0,70.86-35.51c23.57-21.63,38.75-48.36,45.69-80.44,3-14.12,3-43.24,0-57.36a159.86,159.86,0,0,0-8.71-27.83H470.06A4.87,4.87,0,0,1,465.19,362.59Z" transform="translate(-0.3)"/><path d="M417.64,533.19c6.16-.25,8.85-.88,14-3.3,20-9.34,34.73-37.47,34.93-66.6C466.7,449,463.47,440.4,456,435c-14.77-10.7-41.75-1.37-52.07,18-2.39,4.48-4.05,10.49-7.71,28-2.92,14-4.66,24.65-4.65,28.63,0,11,5.31,19,14.92,22.6C408.75,533,412.72,533.39,417.64,533.19Z" transform="translate(-0.3)"/><path d="M465.32,274c-48.63-27.69-107.81-29.37-158.58-4.67-20.25,9.85-40.06,24.89-54.17,41.11-57.08,65.6-57.08,161.42,0,227,27.64,31.77,68.89,53,111.55,57.48,63,6.59,125.18-22.86,160.63-76.09a171.39,171.39,0,0,0,19.1-151.41h-8c18,48.48,12.14,103-17.71,147.53-25.78,38.46-64.51,63.44-110.48,71.24-8,1.35-33.87,2.46-39.35,1.68-1.57-.23-6.26-.85-10.43-1.4a178.23,178.23,0,0,1-18-3.74C280.35,567.11,233.92,518.59,221,458.57c-9.5-44.12-1-88.42,24.35-126.19,25.52-38.08,66.15-63.78,112.52-71.15,9.82-1.56,37.68-1.55,47.41,0a170.37,170.37,0,0,1,59.92,21.38" transform="translate(-0.3)"/><path d="M270.47,342.85a25.16,25.16,0,0,0-7-.89c-4.61,0-4.62,0-7.9,5.45a153.07,153.07,0,0,0-18.85,48.85c-3,15.12-3.05,40.21,0,55.23a179.9,179.9,0,0,0,8.77,29.36h0c.64,1.57,1.31,2.42,1.49,1.9,1-2.81,26.9-123.08,27.43-127.25C275.23,349.17,273.63,344.05,270.47,342.85Z" transform="translate(-0.3)"/><path d="M575.93,249.72c0-.13,0-.26,0-.4a45.36,45.36,0,1,0-90.72,0c0,.14,0,.27,0,.4a9.84,9.84,0,0,0-7.07,9.43v89.78a5.24,5.24,0,0,0,5.23,5.23h94.38a5.23,5.23,0,0,0,5.23-5.23V259.15A9.84,9.84,0,0,0,575.93,249.72Zm-29,76.69H514.25L519,303.68a16.33,16.33,0,1,1,22.9.18ZM499.72,248a30.86,30.86,0,1,1,61.72,0Z" transform="translate(-0.3)"/><path class="cls-7" d="M574.93,249.72c0-.13,0-.26,0-.4a45.36,45.36,0,1,0-90.72,0c0,.14,0,.27,0,.4a9.84,9.84,0,0,0-7.07,9.43v89.78a5.24,5.24,0,0,0,5.23,5.23h94.38a5.23,5.23,0,0,0,5.23-5.23V259.15A9.84,9.84,0,0,0,574.93,249.72Zm-29,76.69H513.25L518,303.68a16.33,16.33,0,1,1,22.9.18ZM498.72,248a30.86,30.86,0,1,1,61.72,0Z" transform="translate(-0.3)"/></g><path class="cls-3" d="M318.55,524.74c20.4-6.36,34.8-28.5,39.27-60.37,1.93-13.72-.61-26-6.83-33.09-13.58-15.43-45.33-6.59-56.16,15.64-3,6.2-12,47.59-12,55.35,0,10.48,5.76,19.56,14.34,22.59h0C302.86,526.87,311.9,526.82,318.55,524.74Z" transform="translate(-0.3)"/><path class="cls-3" d="M472.19,355.59v-60a150.93,150.93,0,0,0-55.91-23.37c-15.22-3.05-40.21-3.05-55.43,0a150.92,150.92,0,0,0-55.19,23c-9.94,6.65-28.67,23.95-26.41,24.4,1.17.23,25.9-3.19,37.4-5.17,6.05-1.05,6.08-1.29-6.31,56.09-6.26,29-11.38,52.94-11.38,53.19s1.92-.86,4.27-2.48a92.1,92.1,0,0,1,23.66-10.87c17.33-4.45,36.78.6,48,12.47,2.68,2.83,5,5,5.09,4.86s3.78-16.5,8.12-36.32c5.24-23.85,8-38.78,8.33-44.17.4-8,.35-8.18-2.2-10.19-1.94-1.53-3.91-2.05-7.75-2.05-2.84,0-6-.45-7-1-2.79-1.49-4-5.42-2.67-8.64,1.41-3.41,3.46-3.94,25.06-6.48,9.39-1.1,20.37-2.66,24.4-3.47,8.83-1.77,10.21-1.4,10.21,2.76,0,1.72-4.91,25.85-10.91,53.61s-10.9,50.92-10.9,51.46,1.39-.07,3.08-1.36c4.48-3.42,18.3-9.8,24.85-11.47,7.17-1.84,18.21-1.83,26,0,25.46,6,38.48,29.95,32.74,60.21-3.11,16.38-9.67,29-21.47,41.29-18,18.76-38.65,28-62.3,28-11.43,0-18.49-1.56-27.58-6-7.49-3.63-16.75-12.54-20.28-19.5l-2.51-4.95-5.91,5.76c-13,12.67-32.37,22.31-48.74,24.23l-5.29.62,3.67,2.28c17.52,10.88,40.42,18.7,62.94,21.5h0c8.24,1,33-.25,42.92-2.21a148.28,148.28,0,0,0,70.86-35.51c23.57-21.63,38.75-48.36,45.69-80.44,3-14.12,3-43.24,0-57.36a159.86,159.86,0,0,0-8.71-27.83H477.06A4.87,4.87,0,0,1,472.19,355.59Z" transform="translate(-0.3)"/><path class="cls-3" d="M424.64,526.19c6.16-.25,8.85-.88,14-3.3,20-9.34,34.73-37.47,34.93-66.6C473.7,442,470.47,433.4,463,428c-14.77-10.7-41.75-1.37-52.07,18-2.39,4.48-4.05,10.49-7.71,28-2.92,14-4.66,24.65-4.65,28.63,0,11,5.31,19,14.92,22.6C415.75,526,419.72,526.39,424.64,526.19Z" transform="translate(-0.3)"/><path class="cls-3" d="M472.32,267c-48.63-27.69-107.81-29.37-158.58-4.67-20.25,9.85-40.06,24.89-54.17,41.11-57.08,65.6-57.08,161.42,0,227,27.64,31.77,68.89,53,111.55,57.48,63,6.59,125.18-22.86,160.63-76.09a171.39,171.39,0,0,0,19.1-151.41h-8c18,48.48,12.14,103-17.71,147.53-25.78,38.46-64.51,63.44-110.48,71.24-8,1.35-33.87,2.46-39.35,1.68-1.57-.23-6.26-.85-10.43-1.4a178.23,178.23,0,0,1-18-3.74C287.35,560.11,240.92,511.59,228,451.57c-9.5-44.12-1-88.42,24.35-126.19,25.52-38.08,66.15-63.78,112.52-71.15,9.82-1.56,37.68-1.55,47.41,0a170.37,170.37,0,0,1,59.92,21.38" transform="translate(-0.3)"/><path class="cls-3" d="M277.47,335.85a25.16,25.16,0,0,0-7-.89c-4.61,0-4.62,0-7.9,5.45a153.07,153.07,0,0,0-18.85,48.85c-3,15.12-3.05,40.21,0,55.23a179.9,179.9,0,0,0,8.77,29.36h0c.64,1.57,1.31,2.42,1.49,1.9,1-2.81,26.9-123.08,27.43-127.25C282.23,342.17,280.63,337.05,277.47,335.85Z" transform="translate(-0.3)"/><path d="M582.93,242.72c0-.13,0-.26,0-.4a45.36,45.36,0,1,0-90.72,0c0,.14,0,.27,0,.4a9.84,9.84,0,0,0-7.07,9.43v89.78a5.24,5.24,0,0,0,5.24,5.23h94.37a5.23,5.23,0,0,0,5.23-5.23V252.15A9.84,9.84,0,0,0,582.93,242.72ZM505.72,241a30.86,30.86,0,1,1,61.72,0Z" transform="translate(-0.3)"/><path class="cls-8" d="M582.93,242.72c0-.13,0-.26,0-.4a45.36,45.36,0,1,0-90.72,0c0,.14,0,.27,0,.4a9.84,9.84,0,0,0-7.07,9.43v89.78a5.24,5.24,0,0,0,5.24,5.23h94.37a5.23,5.23,0,0,0,5.23-5.23V252.15A9.84,9.84,0,0,0,582.93,242.72ZM505.72,241a30.86,30.86,0,1,1,61.72,0Z" transform="translate(-0.3)"/><g id="qs"><path class="cls-3" d="M536,302.8h-4.22c-.94,0-1.26-.32-1.22-1.26a27.43,27.43,0,0,1,.54-5.5,6.29,6.29,0,0,1,1.57-2.94,42.09,42.09,0,0,1,6.16-5.14,31.46,31.46,0,0,0,3-2.2,10.73,10.73,0,0,0,2.71-3.89c1-2.35.41-4.57-.73-6.7a5.22,5.22,0,0,0-3.53-2.69,10.73,10.73,0,0,0-6.32.17,5.63,5.63,0,0,0-3,2.41,11.78,11.78,0,0,0-1.72,4.75,1.51,1.51,0,0,1-1.54,1.36h-8.2a1.5,1.5,0,0,1-1.55-1.59,20.55,20.55,0,0,1,2.81-9.28,15.87,15.87,0,0,1,9.4-6.88,28.13,28.13,0,0,1,16.72.95,18.18,18.18,0,0,1,5.61,3.43,13.55,13.55,0,0,1,4.25,8.38,15.34,15.34,0,0,1-.43,7,14.36,14.36,0,0,1-4.67,6.82,75.69,75.69,0,0,1-6.18,4.66,13.07,13.07,0,0,0-2.2,1.93,6.78,6.78,0,0,0-1.78,4.2c0,.3-.05.59-.07.88a1.05,1.05,0,0,1-1.16,1.1Z" transform="translate(-0.3)"/><path class="cls-3" d="M536.87,309.2a6.78,6.78,0,0,1,5.66,3.15c1.67,2.58,1.52,7.34-1.84,9.57s-8.13,1.32-10.12-1.83a7.11,7.11,0,0,1-.25-7.41C531.45,310.46,533.8,309.19,536.87,309.2Z" transform="translate(-0.3)"/></g></g></svg>