<svg id="Layer_1" data-name="Layer 1" xmlns="http://www.w3.org/2000/svg" xmlns:xlink="http://www.w3.org/1999/xlink" viewBox="0 0 124.72 124.72"><defs><style>.cls-1{fill:#025791;}.cls-2{fill:url(#linear-gradient);}.cls-3{fill:#fff;}.cls-4{fill:#01579b;}</style><linearGradient id="linear-gradient" x1="106.11" y1="110.06" x2="57.47" y2="61.42" gradientUnits="userSpaceOnUse"><stop offset="0" stop-color="#025791"/><stop offset="1" stop-color="#034a72"/></linearGradient></defs><title>hide lable archive icon</title><circle class="cls-1" cx="62.36" cy="62.36" r="62.29"/><path class="cls-1" d="M96.51,45.63l28.94,28.94A62.36,62.36,0,1,0,64,126.36c1.17,0,2.33,0,3.48-.1l-36.83-38Z" transform="translate(-1.64 -1.64)"/><path class="cls-2" d="M125.45,74.57,96.51,45.63,30.65,88.23l36.83,38A62.38,62.38,0,0,0,125.45,74.57Z" transform="translate(-1.64 -1.64)"/><path class="cls-3" d="M57.14,36.45H36.77a7.31,7.31,0,0,0-7.31,7.31V84.24a7.31,7.31,0,0,0,7.31,7.31H91.23a7.31,7.31,0,0,0,7.31-7.31V50.68a7.31,7.31,0,0,0-7.31-7.31H63.94Z" transform="translate(-1.64 -1.64)"/><path class="cls-4" d="M64,54.91a15.51,15.51,0,0,0-6,1.28l1.44,1.44A13.49,13.49,0,0,1,64,56.8a14.14,14.14,0,0,1,13.17,9.45,14.56,14.56,0,0,1-3.61,5.54l1.33,1.33a16.61,16.61,0,0,0,4.18-6.57.91.91,0,0,0,0-.61A16,16,0,0,0,64,54.91Z" transform="translate(-1.64 -1.64)"/><path class="cls-4" d="M67.75,66l1.71,1.71a5.84,5.84,0,0,0,.21-1.45A5.67,5.67,0,0,0,64,60.58a5.41,5.41,0,0,0-1.45.21l1.7,1.7a3.76,3.76,0,0,1,3.5,3.5Z" transform="translate(-1.64 -1.64)"/><path class="cls-4" d="M50.77,54.35l3.83,3.83a16.36,16.36,0,0,0-5.67,7.76.91.91,0,0,0,0,.61A16.06,16.06,0,0,0,64,77.59a15.41,15.41,0,0,0,7.8-2.2l4.1,4.09,1.33-1.34L52.1,53l-1.33,1.33ZM64,75.7a14.15,14.15,0,0,1-13.17-9.45A14.45,14.45,0,0,1,56,59.53L59.39,63a5.65,5.65,0,0,0,7.89,7.89L70.42,74A13.43,13.43,0,0,1,64,75.7ZM60.76,64.34l5.15,5.15a3.75,3.75,0,0,1-5.69-3.24,3.66,3.66,0,0,1,.54-1.91Z" transform="translate(-1.64 -1.64)"/></svg>