<svg width="256" height="256" viewBox="0 0 256 256" fill="none" xmlns="http://www.w3.org/2000/svg">
<mask id="mask0_4_50" style="mask-type:luminance" maskUnits="userSpaceOnUse" x="0" y="0" width="256" height="256">
<path d="M256 0H0V256H256V0Z" fill="white"/>
</mask>
<g mask="url(#mask0_4_50)">
<mask id="mask1_4_50" style="mask-type:luminance" maskUnits="userSpaceOnUse" x="0" y="0" width="256" height="256">
<path d="M256 0H0V256H256V0Z" fill="white"/>
</mask>
<g mask="url(#mask1_4_50)">
<path d="M204.8 142.804V218.079C204.8 221.348 203.604 224.481 201.475 226.79C199.342 229.102 196.454 230.4 193.439 230.4H34.4013C31.3856 230.4 28.498 229.102 26.368 226.79C24.2356 224.481 23.04 221.348 23.04 218.079V45.6C23.04 42.3327 24.2356 39.199 26.368 36.8886C28.498 34.5782 31.3856 33.28 34.4013 33.28H103.808" stroke="#666B70" stroke-width="12" stroke-linecap="square" stroke-linejoin="round"/>
</g>
</g>
<mask id="mask2_4_50" style="mask-type:luminance" maskUnits="userSpaceOnUse" x="0" y="0" width="256" height="256">
<path d="M256 0H0V256H256V0Z" fill="white"/>
</mask>
<g mask="url(#mask2_4_50)">
<mask id="mask3_4_50" style="mask-type:luminance" maskUnits="userSpaceOnUse" x="0" y="0" width="256" height="256">
<path d="M256 0H0V256H256V0Z" fill="white"/>
</mask>
<g mask="url(#mask3_4_50)">
<path d="M204.8 142.804V218.079C204.8 221.348 203.604 224.481 201.475 226.79C199.342 229.102 196.454 230.4 193.439 230.4H34.4013C31.3856 230.4 28.498 229.102 26.368 226.79C24.2356 224.481 23.04 221.348 23.04 218.079V45.6C23.04 42.3327 24.2356 39.199 26.368 36.8886C28.498 34.5782 31.3856 33.28 34.4013 33.28H103.808" stroke="#666B70" stroke-width="20" stroke-linecap="square" stroke-linejoin="round"/>
</g>
</g>
<path d="M149.76 147.2H96V95.9999" stroke="#E7E7E7" stroke-width="20" stroke-linecap="round" stroke-linejoin="round"/>
<path d="M107.52 136.01L220.16 29.4399" stroke="#E7E7E7" stroke-width="20" stroke-linecap="round" stroke-linejoin="round"/>
</svg>
