<svg width="28" height="28" viewBox="0 0 28 28" fill="none" xmlns="http://www.w3.org/2000/svg">
<g clip-path="url(#clip0_413_378)">
<g filter="url(#filter0_d_413_378)">
<path fill-rule="evenodd" clip-rule="evenodd" d="M24 4.5H4C3.72386 4.5 3.5 4.72386 3.5 5V23C3.5 23.2761 3.72386 23.5 4 23.5H24C24.2761 23.5 24.5 23.2761 24.5 23V5C24.5 4.72386 24.2761 4.5 24 4.5ZM4 4C3.44772 4 3 4.44772 3 5V23C3 23.5523 3.44772 24 4 24H24C24.5523 24 25 23.5523 25 23V5C25 4.44772 24.5523 4 24 4H4Z" fill="#556068"/>
</g>
<path d="M5 8H12V13.5C12 13.7761 11.7761 14 11.5 14H5.5C5.22386 14 5 13.7761 5 13.5V8Z" fill="#ADADAD"/>
<path fill-rule="evenodd" clip-rule="evenodd" d="M12.5 6.5H4.5V7.5H12.5V6.5ZM4.5 6C4.22386 6 4 6.22386 4 6.5V7.5C4 7.77614 4.22386 8 4.5 8H12.5C12.7761 8 13 7.77614 13 7.5V6.5C13 6.22386 12.7761 6 12.5 6H4.5Z" fill="#556068"/>
<path fill-rule="evenodd" clip-rule="evenodd" d="M12.5 15.5H4.5V16.5H12.5V15.5ZM4.5 15C4.22386 15 4 15.2239 4 15.5V16.5C4 16.7761 4.22386 17 4.5 17H12.5C12.7761 17 13 16.7761 13 16.5V15.5C13 15.2239 12.7761 15 12.5 15H4.5Z" fill="#556068"/>
<path fill-rule="evenodd" clip-rule="evenodd" d="M12.5 20.5H4.5V21.5H12.5V20.5ZM4.5 20C4.22386 20 4 20.2239 4 20.5V21.5C4 21.7761 4.22386 22 4.5 22H12.5C12.7761 22 13 21.7761 13 21.5V20.5C13 20.2239 12.7761 20 12.5 20H4.5Z" fill="#556068"/>
<path fill-rule="evenodd" clip-rule="evenodd" d="M12.5 18H4.5V19H12.5V18ZM4.5 17.5C4.22386 17.5 4 17.7239 4 18V19C4 19.2761 4.22386 19.5 4.5 19.5H12.5C12.7761 19.5 13 19.2761 13 19V18C13 17.7239 12.7761 17.5 12.5 17.5H4.5Z" fill="#556068"/>
<path d="M14 12.0952H23V12.4762H14V12.0952Z" fill="#556068"/>
<path d="M14 10.5714H23V10.9524H14V10.5714Z" fill="#556068"/>
<path d="M14 15.5238H23V15.9048H14V15.5238Z" fill="#556068"/>
<path d="M14 17.0476H18.5V17.4286H14V17.0476Z" fill="#556068"/>
<path d="M14 14H23V14.381H14V14Z" fill="#556068"/>
<path d="M17.8096 6.7619H22.381V7.14285H17.8096V6.7619Z" fill="#556068"/>
<path d="M17.8096 8.28571H20.8572V8.66666H17.8096V8.28571Z" fill="#556068"/>
<path fill-rule="evenodd" clip-rule="evenodd" d="M15.5238 8.66667C16.155 8.66667 16.6667 8.15499 16.6667 7.52381C16.6667 6.89263 16.155 6.38095 15.5238 6.38095C14.8926 6.38095 14.381 6.89263 14.381 7.52381C14.381 8.15499 14.8926 8.66667 15.5238 8.66667ZM15.5238 9.04762C16.3654 9.04762 17.0476 8.36539 17.0476 7.52381C17.0476 6.68223 16.3654 6 15.5238 6C14.6822 6 14 6.68223 14 7.52381C14 8.36539 14.6822 9.04762 15.5238 9.04762Z" fill="#556068"/>
</g>
<defs>
<filter id="filter0_d_413_378" x="-1" y="4" width="30" height="28" filterUnits="userSpaceOnUse" color-interpolation-filters="sRGB">
<feFlood flood-opacity="0" result="BackgroundImageFix"/>
<feColorMatrix in="SourceAlpha" type="matrix" values="0 0 0 0 0 0 0 0 0 0 0 0 0 0 0 0 0 0 127 0" result="hardAlpha"/>
<feOffset dy="4"/>
<feGaussianBlur stdDeviation="2"/>
<feComposite in2="hardAlpha" operator="out"/>
<feColorMatrix type="matrix" values="0 0 0 0 0 0 0 0 0 0 0 0 0 0 0 0 0 0 0.25 0"/>
<feBlend mode="normal" in2="BackgroundImageFix" result="effect1_dropShadow_413_378"/>
<feBlend mode="normal" in="SourceGraphic" in2="effect1_dropShadow_413_378" result="shape"/>
</filter>
<clipPath id="clip0_413_378">
<rect width="28" height="28" fill="white"/>
</clipPath>
</defs>
</svg>
