<svg width="28" height="28" viewBox="0 0 28 28" fill="none" xmlns="http://www.w3.org/2000/svg">
<path d="M6.08595 7.84055C5.37518 7.84055 4.66442 7.83403 3.95366 7.84615C3.80915 7.84615 3.76661 7.77063 3.76968 7.50955C3.77788 6.70583 3.77635 5.90209 3.76968 5.09836C3.76968 4.86992 3.79531 4.7683 3.93777 4.76923C5.36545 4.77731 6.7933 4.77731 8.22132 4.76923C8.34789 4.76923 8.38632 4.84196 8.38478 5.06946C8.37864 5.88438 8.37659 6.70023 8.38478 7.51514C8.38786 7.78461 8.33713 7.84708 8.19723 7.84522C7.49466 7.83403 6.79005 7.84055 6.08595 7.84055Z" fill="#ADADAD"/>
<path fill-rule="evenodd" clip-rule="evenodd" d="M2.75 5C2.75 4.30964 3.30964 3.75 4 3.75H24.3077C24.998 3.75 25.5577 4.30964 25.5577 5V23C25.5577 23.6904 24.998 24.25 24.3077 24.25H4C3.30965 24.25 2.75 23.6904 2.75 23V5ZM4 4.25C3.58579 4.25 3.25 4.58579 3.25 5V23C3.25 23.4142 3.58579 23.75 4 23.75H24.3077C24.7219 23.75 25.0577 23.4142 25.0577 23V5C25.0577 4.58579 24.7219 4.25 24.3077 4.25H4Z" fill="#556068"/>
<path fill-rule="evenodd" clip-rule="evenodd" d="M8.90381 3.75H24.8077C25.2219 3.75 25.5577 4.08579 25.5577 4.5V7.34615C25.5577 7.76037 25.2219 8.09615 24.8077 8.09615H9.65381C9.2396 8.09615 8.90381 7.76037 8.90381 7.34615V3.75ZM9.40381 4.25V7.34615C9.40381 7.48423 9.51574 7.59615 9.65381 7.59615H24.8077C24.9457 7.59615 25.0577 7.48423 25.0577 7.34615V4.5C25.0577 4.36193 24.9457 4.25 24.8077 4.25H9.40381Z" fill="#556068"/>
<path fill-rule="evenodd" clip-rule="evenodd" d="M14.2886 7.84615V4H14.7886V7.84615H14.2886Z" fill="#556068"/>
<path fill-rule="evenodd" clip-rule="evenodd" d="M19.6733 7.84615V4H20.1733V7.84615H19.6733Z" fill="#556068"/>
<path d="M5 11.2333C5 11.1045 5.10447 11 5.23333 11H22.7667C22.8955 11 23 11.1045 23 11.2333V16.7667C23 16.8955 22.8955 17 22.7667 17H5.23333C5.10447 17 5 16.8955 5 16.7667V11.2333Z" fill="#ADADAD"/>
<path fill-rule="evenodd" clip-rule="evenodd" d="M23.5 21.5H4.5L4.5 22.5H23.5V21.5ZM4.5 21C4.22386 21 4 21.2239 4 21.5V22.5C4 22.7761 4.22386 23 4.5 23H23.5C23.7761 23 24 22.7761 24 22.5V21.5C24 21.2239 23.7761 21 23.5 21H4.5Z" fill="#556068"/>
<path fill-rule="evenodd" clip-rule="evenodd" d="M23.5 18.5H4.5L4.5 19.5H23.5V18.5ZM4.5 18C4.22386 18 4 18.2239 4 18.5V19.5C4 19.7761 4.22386 20 4.5 20H23.5C23.7761 20 24 19.7761 24 19.5V18.5C24 18.2239 23.7761 18 23.5 18H4.5Z" fill="#556068"/>
<path fill-rule="evenodd" clip-rule="evenodd" d="M23.5 9.5H4.5L4.5 10.5H23.5V9.5ZM4.5 9C4.22386 9 4 9.22386 4 9.5V10.5C4 10.7761 4.22386 11 4.5 11H23.5C23.7761 11 24 10.7761 24 10.5V9.5C24 9.22386 23.7761 9 23.5 9H4.5Z" fill="#556068"/>
<path d="M6 16.0952H21V16.4762H6V16.0952Z" fill="#556068"/>
<path d="M6 14.5714H21V14.9524H6V14.5714Z" fill="#556068"/>
<path d="M9.18164 11.8875H12.9998V12.2056H9.18164V11.8875Z" fill="#556068"/>
<path fill-rule="evenodd" clip-rule="evenodd" d="M9.13184 11.8375H13.05V12.2556H9.13184V11.8375ZM9.23184 11.9375V12.1556H12.95V11.9375H9.23184Z" fill="#556068"/>
<path d="M9.18164 13.1602H11.7271V13.4783H9.18164V13.1602Z" fill="#556068"/>
<path fill-rule="evenodd" clip-rule="evenodd" d="M9.13184 13.1102H11.7773V13.5283H9.13184V13.1102ZM9.23184 13.2102V13.4283H11.6773V13.2102H9.23184Z" fill="#556068"/>
<path fill-rule="evenodd" clip-rule="evenodd" d="M7.27272 13.4156C7.76523 13.4156 8.16449 13.0163 8.16449 12.5238C8.16449 12.0313 7.76523 11.6321 7.27272 11.6321C6.78021 11.6321 6.38095 12.0313 6.38095 12.5238C6.38095 13.0163 6.78021 13.4156 7.27272 13.4156ZM7.27272 13.7965C7.97562 13.7965 8.54544 13.2267 8.54544 12.5238C8.54544 11.8209 7.97562 11.2511 7.27272 11.2511C6.56982 11.2511 6 11.8209 6 12.5238C6 13.2267 6.56982 13.7965 7.27272 13.7965Z" fill="#556068"/>
</svg>
