<svg width="28" height="28" viewBox="0 0 28 28" fill="none" xmlns="http://www.w3.org/2000/svg">
<path fill-rule="evenodd" clip-rule="evenodd" d="M3 5.21951C3 4.54599 3.53983 4 4.20573 4H23.7943C24.4602 4 25 4.54599 25 5.21951V22.7805C25 23.454 24.4602 24 23.7943 24H4.20573C3.53983 24 3 23.454 3 22.7805V5.21951ZM4.20573 4.4878C3.80619 4.4878 3.48229 4.8154 3.48229 5.21951V22.7805C3.48229 23.1846 3.80619 23.5122 4.20573 23.5122H23.7943C24.1938 23.5122 24.5177 23.1846 24.5177 22.7805V5.21951C24.5177 4.8154 24.1938 4.4878 23.7943 4.4878H4.20573Z" fill="#556068"/>
<rect x="16.25" y="6.25" width="2.5" height="15.5" rx="0.25" stroke="#556068" stroke-width="0.5"/>
<path fill-rule="evenodd" clip-rule="evenodd" d="M17.5 15.5498C17.3619 15.5498 17.25 15.4379 17.25 15.2998L17.25 12.7005C17.25 12.5624 17.3619 12.4505 17.5 12.4505C17.6381 12.4505 17.75 12.5624 17.75 12.7005L17.75 15.2998C17.75 15.4379 17.6381 15.5498 17.5 15.5498Z" fill="#556068"/>
<rect x="20.25" y="6.25" width="2.5" height="15.5" rx="0.25" stroke="#556068" stroke-width="0.5"/>
<path fill-rule="evenodd" clip-rule="evenodd" d="M21.5 15.5498C21.3619 15.5498 21.25 15.4379 21.25 15.2998L21.25 12.7005C21.25 12.5624 21.3619 12.4505 21.5 12.4505C21.6381 12.4505 21.75 12.5624 21.75 12.7005L21.75 15.2998C21.75 15.4379 21.6381 15.5498 21.5 15.5498Z" fill="#556068"/>
<rect x="5" y="6" width="10" height="16" rx="0.5" fill="#ADADAD"/>
<path fill-rule="evenodd" clip-rule="evenodd" d="M6.33398 13.3174C6.33398 13.1793 6.44591 13.0674 6.58398 13.0674H13.3811C13.5192 13.0674 13.6311 13.1793 13.6311 13.3174C13.6311 13.4555 13.5192 13.5674 13.3811 13.5674H6.58398C6.44591 13.5674 6.33398 13.4555 6.33398 13.3174Z" fill="#556068"/>
<path fill-rule="evenodd" clip-rule="evenodd" d="M6.33398 14.7173C6.33398 14.5792 6.44591 14.4673 6.58398 14.4673H13.3811C13.5192 14.4673 13.6311 14.5792 13.6311 14.7173C13.6311 14.8554 13.5192 14.9673 13.3811 14.9673H6.58398C6.44591 14.9673 6.33398 14.8554 6.33398 14.7173Z" fill="#556068"/>
<path fill-rule="evenodd" clip-rule="evenodd" d="M6.33398 16.1174C6.33398 15.9794 6.44591 15.8674 6.58398 15.8674H13.3811C13.5192 15.8674 13.6311 15.9794 13.6311 16.1174C13.6311 16.2555 13.5192 16.3674 13.3811 16.3674H6.58398C6.44591 16.3674 6.33398 16.2555 6.33398 16.1174Z" fill="#556068"/>
<path fill-rule="evenodd" clip-rule="evenodd" d="M6.33398 17.5161C6.33398 17.378 6.44591 17.2661 6.58398 17.2661H10.2159C10.354 17.2661 10.4659 17.378 10.4659 17.5161C10.4659 17.6542 10.354 17.7661 10.2159 17.7661H6.58398C6.44591 17.7661 6.33398 17.6542 6.33398 17.5161Z" fill="#556068"/>
<path fill-rule="evenodd" clip-rule="evenodd" d="M7.59692 9.81396C8.02799 9.81396 8.37744 9.46452 8.37744 9.03345C8.37744 8.60238 8.02799 8.25293 7.59692 8.25293C7.16586 8.25293 6.81641 8.60238 6.81641 9.03345C6.81641 9.46452 7.16586 9.81396 7.59692 9.81396ZM7.59692 10.314C8.30413 10.314 8.87744 9.74066 8.87744 9.03345C8.87744 8.32624 8.30413 7.75293 7.59692 7.75293C6.88971 7.75293 6.31641 8.32624 6.31641 9.03345C6.31641 9.74066 6.88971 10.314 7.59692 10.314Z" fill="#556068"/>
<path fill-rule="evenodd" clip-rule="evenodd" d="M9.56836 8.38599C9.56836 8.24792 9.68029 8.13599 9.81836 8.13599H13.3312C13.4692 8.13599 13.5812 8.24792 13.5812 8.38599C13.5812 8.52406 13.4692 8.63599 13.3312 8.63599H9.81836C9.68029 8.63599 9.56836 8.52406 9.56836 8.38599Z" fill="#556068"/>
<path fill-rule="evenodd" clip-rule="evenodd" d="M9.56836 9.83447C9.56836 9.6964 9.68029 9.58447 9.81836 9.58447L11.7857 9.58448C11.9238 9.58448 12.0357 9.69641 12.0357 9.83449C12.0357 9.97256 11.9238 10.0845 11.7857 10.0845L9.81836 10.0845C9.68029 10.0845 9.56836 9.97254 9.56836 9.83447Z" fill="#556068"/>
</svg>
