<svg width="28" height="28" viewBox="0 0 28 28" fill="none" xmlns="http://www.w3.org/2000/svg">
<path fill-rule="evenodd" clip-rule="evenodd" d="M2.75 5C2.75 4.30964 3.30964 3.75 4 3.75H24.3077C24.998 3.75 25.5577 4.30964 25.5577 5V23C25.5577 23.6904 24.998 24.25 24.3077 24.25H4C3.30965 24.25 2.75 23.6904 2.75 23V5ZM4 4.25C3.58579 4.25 3.25 4.58579 3.25 5V23C3.25 23.4142 3.58579 23.75 4 23.75H24.3077C24.7219 23.75 25.0577 23.4142 25.0577 23V5C25.0577 4.58579 24.7219 4.25 24.3077 4.25H4Z" fill="#556068"/>
<path d="M4 6.23333C4 6.10447 4.10447 6 4.23333 6H10.7667C10.8955 6 11 6.10447 11 6.23333V7.63333C11 7.7622 10.8955 7.86667 10.7667 7.86667H4.23333C4.10447 7.86667 4 7.7622 4 7.63333V6.23333Z" fill="#ADADAD"/>
<path fill-rule="evenodd" clip-rule="evenodd" d="M10.5 9.5H4.5V10.3667H10.5V9.5ZM4.5 9C4.22386 9 4 9.22386 4 9.5V10.3667C4 10.6428 4.22386 10.8667 4.5 10.8667H10.5C10.7761 10.8667 11 10.6428 11 10.3667V9.5C11 9.22386 10.7761 9 10.5 9H4.5Z" fill="#556068"/>
<path fill-rule="evenodd" clip-rule="evenodd" d="M10.5 12.5H4.5V13.3667H10.5V12.5ZM4.5 12C4.22386 12 4 12.2239 4 12.5V13.3667C4 13.6428 4.22386 13.8667 4.5 13.8667H10.5C10.7761 13.8667 11 13.6428 11 13.3667V12.5C11 12.2239 10.7761 12 10.5 12H4.5Z" fill="#556068"/>
<path fill-rule="evenodd" clip-rule="evenodd" d="M10.5 18.5H4.5V19.3667H10.5V18.5ZM4.5 18C4.22386 18 4 18.2239 4 18.5V19.3667C4 19.6428 4.22386 19.8667 4.5 19.8667H10.5C10.7761 19.8667 11 19.6428 11 19.3667V18.5C11 18.2239 10.7761 18 10.5 18H4.5Z" fill="#556068"/>
<path fill-rule="evenodd" clip-rule="evenodd" d="M10.5 15.5H4.5V16.3667H10.5V15.5ZM4.5 15C4.22386 15 4 15.2239 4 15.5V16.3667C4 16.6428 4.22386 16.8667 4.5 16.8667H10.5C10.7761 16.8667 11 16.6428 11 16.3667V15.5C11 15.2239 10.7761 15 10.5 15H4.5Z" fill="#556068"/>
<path fill-rule="evenodd" clip-rule="evenodd" d="M23.5 21.5H12.5V22.5H23.5V21.5ZM12.5 21C12.2239 21 12 21.2239 12 21.5V22.5C12 22.7761 12.2239 23 12.5 23H23.5C23.7761 23 24 22.7761 24 22.5V21.5C24 21.2239 23.7761 21 23.5 21H12.5Z" fill="#556068"/>
<path fill-rule="evenodd" clip-rule="evenodd" d="M23.5 18.5H12.5V19.5H23.5V18.5ZM12.5 18C12.2239 18 12 18.2239 12 18.5V19.5C12 19.7761 12.2239 20 12.5 20H23.5C23.7761 20 24 19.7761 24 19.5V18.5C24 18.2239 23.7761 18 23.5 18H12.5Z" fill="#556068"/>
<path fill-rule="evenodd" clip-rule="evenodd" d="M23.5 6.5H12.5V7.5H23.5V6.5ZM12.5 6C12.2239 6 12 6.22386 12 6.5V7.5C12 7.77614 12.2239 8 12.5 8H23.5C23.7761 8 24 7.77614 24 7.5V6.5C24 6.22386 23.7761 6 23.5 6H12.5Z" fill="#556068"/>
<path d="M13 8.23333C13 8.10447 13.1045 8 13.2333 8H22.7667C22.8955 8 23 8.10447 23 8.23333V16.7667C23 16.8955 22.8955 17 22.7667 17H13.2333C13.1045 17 13 16.8955 13 16.7667V8.23333Z" fill="#ADADAD"/>
<path fill-rule="evenodd" clip-rule="evenodd" d="M17 9.84998H22V10.15H17V9.84998Z" fill="#556068"/>
<path fill-rule="evenodd" clip-rule="evenodd" d="M17 10.85H20V11.15H17V10.85Z" fill="#556068"/>
<path fill-rule="evenodd" clip-rule="evenodd" d="M15.2727 11.1645C15.7652 11.1645 16.1645 10.7652 16.1645 10.2727C16.1645 9.78021 15.7652 9.38095 15.2727 9.38095C14.7802 9.38095 14.381 9.78021 14.381 10.2727C14.381 10.7652 14.7802 11.1645 15.2727 11.1645ZM15.2727 11.5454C15.9756 11.5454 16.5454 10.9756 16.5454 10.2727C16.5454 9.56982 15.9756 9 15.2727 9C14.5698 9 14 9.56982 14 10.2727C14 10.9756 14.5698 11.5454 15.2727 11.5454Z" fill="#556068"/>
<path d="M14 14.5238H22V14.9048H14V14.5238Z" fill="#556068"/>
<path d="M14 13H22V13.381H14V13Z" fill="#556068"/>
</svg>
