<svg width="28" height="28" viewBox="0 0 28 28" fill="none" xmlns="http://www.w3.org/2000/svg">
<path fill-rule="evenodd" clip-rule="evenodd" d="M3 5.21951C3 4.54599 3.53983 4 4.20573 4H23.7943C24.4602 4 25 4.54599 25 5.21951V22.7805C25 23.454 24.4602 24 23.7943 24H4.20573C3.53983 24 3 23.454 3 22.7805V5.21951ZM4.20573 4.4878C3.80619 4.4878 3.48229 4.8154 3.48229 5.21951V22.7805C3.48229 23.1846 3.80619 23.5122 4.20573 23.5122H23.7943C24.1938 23.5122 24.5177 23.1846 24.5177 22.7805V5.21951C24.5177 4.8154 24.1938 4.4878 23.7943 4.4878H4.20573Z" fill="#556068"/>
<path d="M5.00098 6.25586C5.00098 6.11779 5.10544 6.00586 5.23431 6.00586H11.7676C11.8965 6.00586 12.001 6.11779 12.001 6.25586V7.75586C12.001 7.89393 11.8965 8.00586 11.7676 8.00586H5.23431C5.10544 8.00586 5.00098 7.89393 5.00098 7.75586V6.25586Z" fill="#BBBFC3"/>
<path fill-rule="evenodd" clip-rule="evenodd" d="M11.501 9.74152H5.50098V10.6701H11.501V9.74152ZM5.50098 9.20581C5.22483 9.20581 5.00098 9.44566 5.00098 9.74153V10.6701C5.00098 10.966 5.22483 11.2058 5.50098 11.2058H11.501C11.7771 11.2058 12.001 10.966 12.001 10.6701V9.74152C12.001 9.44566 11.7771 9.20581 11.501 9.20581H5.50098Z" fill="#556068"/>
<path fill-rule="evenodd" clip-rule="evenodd" d="M11.501 12.9415H5.50098V13.87H11.501V12.9415ZM5.50098 12.4058C5.22483 12.4058 5.00098 12.6456 5.00098 12.9415V13.87C5.00098 14.1659 5.22483 14.4058 5.50098 14.4058H11.501C11.7771 14.4058 12.001 14.1659 12.001 13.87V12.9415C12.001 12.6456 11.7771 12.4058 11.501 12.4058H5.50098Z" fill="#556068"/>
<path fill-rule="evenodd" clip-rule="evenodd" d="M11.501 19.3414H5.50098V20.2699H11.501V19.3414ZM5.50098 18.8057C5.22483 18.8057 5.00098 19.0455 5.00098 19.3414V20.2699C5.00098 20.5658 5.22483 20.8057 5.50098 20.8057H11.501C11.7771 20.8057 12.001 20.5658 12.001 20.2699V19.3414C12.001 19.0455 11.7771 18.8057 11.501 18.8057H5.50098Z" fill="#556068"/>
<path fill-rule="evenodd" clip-rule="evenodd" d="M11.501 16.1414H5.50098V17.07H11.501V16.1414ZM5.50098 15.6057C5.22483 15.6057 5.00098 15.8456 5.00098 16.1414V17.07C5.00098 17.3659 5.22483 17.6057 5.50098 17.6057H11.501C11.7771 17.6057 12.001 17.3659 12.001 17.07V16.1414C12.001 15.8456 11.7771 15.6057 11.501 15.6057H5.50098Z" fill="#556068"/>
<path fill-rule="evenodd" clip-rule="evenodd" d="M14.0176 11.8704C14.0176 11.7323 14.1295 11.6204 14.2676 11.6204H21.0647C21.2028 11.6204 21.3147 11.7323 21.3147 11.8704C21.3147 12.0084 21.2028 12.1204 21.0647 12.1204H14.2676C14.1295 12.1204 14.0176 12.0084 14.0176 11.8704Z" fill="#556068"/>
<path fill-rule="evenodd" clip-rule="evenodd" d="M14.0176 13.2705C14.0176 13.1324 14.1295 13.0205 14.2676 13.0205H21.0647C21.2028 13.0205 21.3147 13.1324 21.3147 13.2705C21.3147 13.4086 21.2028 13.5205 21.0647 13.5205H14.2676C14.1295 13.5205 14.0176 13.4086 14.0176 13.2705Z" fill="#556068"/>
<path fill-rule="evenodd" clip-rule="evenodd" d="M14.0176 15.957C14.0176 15.819 14.1295 15.707 14.2676 15.707H21.0647C21.2028 15.707 21.3147 15.819 21.3147 15.957C21.3147 16.0951 21.2028 16.207 21.0647 16.207H14.2676C14.1295 16.207 14.0176 16.0951 14.0176 15.957Z" fill="#556068"/>
<path fill-rule="evenodd" clip-rule="evenodd" d="M14.0176 17.3555C14.0176 17.2174 14.1295 17.1055 14.2676 17.1055H17.8995C18.0376 17.1055 18.1495 17.2174 18.1495 17.3555C18.1495 17.4935 18.0376 17.6055 17.8995 17.6055H14.2676C14.1295 17.6055 14.0176 17.4935 14.0176 17.3555Z" fill="#556068"/>
<path fill-rule="evenodd" clip-rule="evenodd" d="M15.2805 8.36694C15.7116 8.36694 16.061 8.01749 16.061 7.58643C16.061 7.15536 15.7116 6.80591 15.2805 6.80591C14.8494 6.80591 14.5 7.15536 14.5 7.58643C14.5 8.01749 14.8494 8.36694 15.2805 8.36694ZM15.2805 8.86694C15.9877 8.86694 16.561 8.29364 16.561 7.58643C16.561 6.87922 15.9877 6.30591 15.2805 6.30591C14.5733 6.30591 14 6.87922 14 7.58643C14 8.29364 14.5733 8.86694 15.2805 8.86694Z" fill="#556068"/>
<path fill-rule="evenodd" clip-rule="evenodd" d="M17.252 6.93896C17.252 6.80089 17.3639 6.68896 17.502 6.68896H21.0148C21.1528 6.68896 21.2648 6.80089 21.2648 6.93896C21.2648 7.07704 21.1528 7.18896 21.0148 7.18896H17.502C17.3639 7.18896 17.252 7.07704 17.252 6.93896Z" fill="#556068"/>
<path fill-rule="evenodd" clip-rule="evenodd" d="M17.252 8.3877C17.252 8.24962 17.3639 8.13769 17.502 8.1377L19.4693 8.13771C19.6073 8.13771 19.7193 8.24964 19.7193 8.38771C19.7193 8.52578 19.6073 8.63771 19.4693 8.63771L17.502 8.6377C17.3639 8.63769 17.252 8.52577 17.252 8.3877Z" fill="#556068"/>
</svg>
