<svg xmlns="http://www.w3.org/2000/svg" width="148" height="32" viewBox="0 0 148 32">
    <g fill="none" fill-rule="evenodd">
        <g fill="#2B68D9" fill-rule="nonzero">
            <g>
                <g>
                    <g>
                        <path d="M18.314.959l12.727 12.727c1.279 1.278 1.279 3.35 0 4.628L18.314 31.041c-1.278 1.279-3.35 1.279-4.628 0l-5.521-5.52 3.613-3.612c2.56 1.787 6.082 1.596 8.437-.573l.205-.196c2.64-2.64 2.64-6.92 0-9.56-2.64-2.64-6.92-2.64-9.56 0-2.352 2.352-2.609 6.006-.77 8.642l-3.612 3.612-5.52-5.52c-1.278-1.278-1.278-3.35 0-4.628L13.687.959c1.278-1.279 3.35-1.279 4.628 0zM15.64 11.986c2.416 0 4.374 1.958 4.374 4.374 0 2.416-1.958 4.374-4.374 4.374-2.416 0-4.374-1.958-4.374-4.374 0-2.416 1.958-4.374 4.374-4.374z" transform="translate(-236 -107) translate(190 107) translate(46)"/>
                    </g>
                    <path d="M45.602 22.4V7.59h2.683V22.4h-2.683zm18.096-10.774c1.192 0 2.08.357 2.662 1.07.582.715.874 1.8.874 3.256V22.4h-2.6v-6.365c0-.832-.136-1.432-.406-1.799s-.718-.551-1.342-.551c-.72 0-1.286.253-1.695.759-.409.506-.613 1.203-.613 2.09V22.4h-2.6v-6.365c0-.818-.143-1.414-.427-1.789-.284-.374-.731-.561-1.341-.561-.721 0-1.29.253-1.706.759-.416.506-.624 1.203-.624 2.09V22.4H51.3v-7.53c0-1.109-.055-2.1-.166-2.974h2.434l.187 1.664c.305-.624.746-1.102 1.321-1.435.575-.333 1.238-.5 1.986-.5 1.609 0 2.656.666 3.141 1.997.333-.624.808-1.112 1.425-1.466.617-.354 1.307-.53 2.07-.53zm16.348.27V22.4h-2.558v-1.685c-.319.583-.777 1.037-1.373 1.363-.596.325-1.276.488-2.038.488-.915 0-1.727-.221-2.434-.665-.707-.444-1.255-1.075-1.643-1.893-.388-.818-.582-1.768-.582-2.85 0-1.081.197-2.041.592-2.88.396-.84.947-1.491 1.654-1.956.707-.464 1.511-.696 2.413-.696.762 0 1.442.163 2.038.488.596.326 1.054.78 1.373 1.363v-1.581h2.558zm-5.262 8.632c.86 0 1.525-.298 1.997-.894.471-.597.707-1.436.707-2.517 0-1.11-.236-1.962-.707-2.559-.472-.596-1.144-.894-2.018-.894-.86 0-1.529.309-2.007.926-.478.617-.718 1.473-.718 2.568 0 1.082.24 1.914.718 2.496.478.583 1.154.874 2.028.874zm18.242-8.632v10.171c0 1.636-.451 2.878-1.352 3.723-.902.846-2.226 1.27-3.973 1.27-1.623 0-3.05-.34-4.285-1.02l.416-1.976c1.276.666 2.545.998 3.806.998 1.872 0 2.808-.929 2.808-2.787v-2.08c-.319.569-.783 1.03-1.393 1.383-.61.354-1.297.53-2.06.53-.915 0-1.73-.218-2.443-.654-.715-.437-1.27-1.054-1.664-1.852-.396-.797-.593-1.709-.593-2.735 0-1.026.197-1.938.593-2.735.395-.797.95-1.414 1.664-1.851.714-.437 1.528-.655 2.444-.655.776 0 1.466.163 2.07.488.602.326 1.063.78 1.382 1.363v-1.581h2.58zM87.68 20.07c.86 0 1.536-.284 2.028-.852.492-.569.738-1.352.738-2.35 0-1-.242-1.783-.728-2.351-.485-.569-1.164-.853-2.038-.853-.86 0-1.536.284-2.028.853-.492.568-.738 1.352-.738 2.35 0 .999.246 1.782.738 2.35.492.57 1.168.853 2.028.853zm17.347-2.787H97.79c.055 1.123.336 1.952.842 2.486.506.534 1.259.8 2.257.8 1.15 0 2.219-.374 3.203-1.123l.749 1.79c-.5.401-1.113.724-1.84.966-.729.243-1.467.364-2.216.364-1.72 0-3.071-.485-4.056-1.456-.985-.97-1.477-2.301-1.477-3.993 0-1.068.215-2.018.645-2.85.43-.832 1.033-1.48 1.81-1.945.776-.464 1.657-.696 2.641-.696 1.442 0 2.583.468 3.422 1.404.839.936 1.258 2.222 1.258 3.858v.395zm-4.617-3.785c-.694 0-1.259.204-1.696.613-.436.41-.717 1.002-.842 1.779h4.888c-.083-.79-.322-1.387-.718-1.79-.395-.401-.94-.602-1.632-.602zm12.022 9.09c-1.137 0-2.201-.153-3.193-.458-.991-.305-1.834-.742-2.527-1.31l.915-1.956c.721.54 1.474.94 2.257 1.196.783.257 1.64.385 2.569.385 1.026 0 1.82-.18 2.381-.541.562-.36.843-.867.843-1.518 0-.555-.26-.981-.78-1.28-.48-.275-1.247-.535-2.3-.78l-.269-.062c-1.858-.402-3.21-.922-4.056-1.56-.846-.638-1.269-1.567-1.269-2.787 0-.874.236-1.65.707-2.33.472-.68 1.14-1.213 2.008-1.601.866-.389 1.868-.583 3.005-.583 1.04 0 2.028.156 2.964.468.936.312 1.702.746 2.299 1.3l-.895 1.955c-1.317-1.053-2.773-1.58-4.368-1.58-.957 0-1.712.197-2.267.592-.555.396-.832.933-.832 1.612 0 .583.246 1.027.738 1.332.493.305 1.335.589 2.528.852 1.234.292 2.24.607 3.016.947.776.34 1.372.776 1.788 1.31.416.534.624 1.203.624 2.007 0 .888-.235 1.66-.707 2.32-.471.658-1.15 1.168-2.038 1.528-.888.36-1.935.541-3.141.541zm27.29-15.185c1.442 0 2.693.305 3.754.915 1.06.61 1.872 1.488 2.434 2.632.561 1.144.842 2.485.842 4.024 0 1.553-.284 2.902-.853 4.046-.568 1.144-1.38 2.025-2.433 2.642-1.054.617-2.302.925-3.744.925-1.429 0-2.673-.308-3.734-.925-1.06-.617-1.879-1.498-2.454-2.642-.576-1.144-.864-2.493-.864-4.046 0-1.539.285-2.88.853-4.024.569-1.144 1.383-2.021 2.444-2.632 1.061-.61 2.312-.915 3.755-.915zm-9.007.187v2.122h-7.28v4.098h6.843v2.121h-6.843v4.347h7.28V22.4h-9.9V7.59h9.9zm9.007 1.956c-1.373 0-2.44.464-3.204 1.393-.762.93-1.144 2.274-1.144 4.035 0 1.761.382 3.113 1.144 4.056.763.943 1.83 1.415 3.204 1.415 1.372 0 2.44-.472 3.203-1.415.762-.943 1.144-2.295 1.144-4.056 0-1.747-.382-3.088-1.144-4.024-.763-.936-1.83-1.404-3.203-1.404z" transform="translate(-236 -107) translate(190 107) translate(46)"/>
                </g>
            </g>
        </g>
    </g>
</svg>
