<svg xmlns="http://www.w3.org/2000/svg" width="24" height="24" viewBox="0 0 24 24">
    <path fill="#E64C2E" fill-rule="evenodd" d="M12 3.734c.86 0 1.662.42 2.156 1.12l.101.154 6.938 11.583a2.636 2.636 0 0 1-2.077 3.946l-.188.008H5.059a2.637 2.637 0 0 1-2.335-3.8l.089-.168 6.93-11.57.103-.157A2.636 2.636 0 0 1 12 3.734zm0 2a.636.636 0 0 0-.488.228l-.055.077-6.92 11.552a.636.636 0 0 0 .442.946l.091.009h13.849a.636.636 0 0 0 .596-.846l-.044-.095L12.544 6.04A.636.636 0 0 0 12 5.734zm0 9.539l.125.006A1 1 0 0 1 12 17.273a1 1 0 0 1 0-2zm0-6.546a1 1 0 0 1 .993.884l.007.116V13a1 1 0 0 1-1.993.117L11 13V9.727a1 1 0 0 1 1-1z"/>
</svg>
