<?xml version="1.0" encoding="utf-8"?>
<!-- Generator: Adobe Illustrator 26.0.2, SVG Export Plug-In . SVG Version: 6.00 Build 0)  -->
<svg version="1.1" id="Layer_1" xmlns="http://www.w3.org/2000/svg" xmlns:xlink="http://www.w3.org/1999/xlink" x="0px" y="0px"
	 viewBox="0 0 150 150" style="enable-background:new 0 0 150 150;" xml:space="preserve">
<style type="text/css">
	.st0{fill:#F7F7F7;}
	.st1{fill:#00BBED;}
	.st2{fill:#DDDDDD;}
	.st3{fill:none;}
	.st4{opacity:0.7;}
	.st5{opacity:0.22;}
	.st6{fill:#FFFFFF;}
	.st7{opacity:0.18;}
	.st8{opacity:0.31;}
	.st9{fill:url(#SVGID_1_);}
	.st10{fill:url(#SVGID_00000105394225168636719060000013725876540489571260_);}
	.st11{fill:url(#SVGID_00000137825088178819413020000009847726990452340364_);}
	.st12{opacity:0.2;}
	.st13{fill:url(#SVGID_00000134940669648997828090000014844297513788418750_);}
	.st14{fill:url(#SVGID_00000103242616735726358910000000631401613097926546_);}
	.st15{fill:#F03800;}
	.st16{fill:#CD0100;}
</style>
<g>
	<rect y="0" class="st0" width="150" height="149.7"/>
	<rect y="0" class="st1" width="150" height="96.6"/>
	<path class="st2" d="M97,116.2H52.9c-1.2,0-2.2-1-2.2-2.2v0c0-1.2,1-2.2,2.2-2.2H97c1.2,0,2.2,1,2.2,2.2v0
		C99.2,115.3,98.2,116.2,97,116.2z"/>
	<path class="st2" d="M111.4,126.4H38.6c-1.2,0-2.2-1-2.2-2.2v0c0-1.2,1-2.2,2.2-2.2h72.8c1.2,0,2.2,1,2.2,2.2v0
		C113.5,125.4,112.6,126.4,111.4,126.4z"/>
	<path class="st2" d="M111.4,135.3H38.6c-1.2,0-2.2-1-2.2-2.2l0,0c0-1.2,1-2.2,2.2-2.2h72.8c1.2,0,2.2,1,2.2,2.2l0,0
		C113.5,134.4,112.6,135.3,111.4,135.3z"/>
	<rect y="0" class="st3" width="150" height="150"/>
	<g class="st4">
		<g>
			<g class="st5">
				<g>
					<g>
						<path class="st6" d="M111.3,56.4c0.1-1.1,0-2.3-0.1-3.4c-0.6-5.3-3.5-10.3-7.7-13.8c-1.5-1.3-3.2-2.4-4.2-4.1
							c-1.6-2.8-1.5-6-3.5-8.8c-2-2.8-5-4.9-8.4-6c-10-3.3-24,2.1-22.7,13.6c0,0,0,0.1,0,0.2c0.2,2.4-1.8,4.4-4.3,4.5
							c-9.2,0.2-17.1,7-18.8,15.6c-1.1,5.5,0.7,11.6,4.9,15.5c3.2,2.9,7.4,4.5,11.6,5.6c8.5,2.2,17.4,2.7,26.2,1.8
							c8.2-0.8,16.9-3,22.2-9.1C109.5,64.7,111.1,60.6,111.3,56.4z"/>
					</g>
				</g>
			</g>
			<g class="st7">
				<g>
					<g>
						<path class="st6" d="M103.8,56.9c0.1-0.9,0-1.8-0.1-2.7c-0.5-4.2-2.7-8.1-6-10.8c-1.2-1-2.5-1.9-3.3-3.2
							c-1.3-2.2-1.2-4.7-2.8-6.9c-1.6-2.2-3.9-3.9-6.5-4.7c-7.8-2.6-18.8,1.6-17.8,10.6c0,0,0,0.1,0,0.1c0.1,1.9-1.4,3.4-3.4,3.5
							c-7.2,0.2-13.4,5.5-14.8,12.2c-0.9,4.3,0.5,9.1,3.9,12.1c2.5,2.3,5.8,3.5,9.1,4.4c6.7,1.7,13.7,2.1,20.5,1.4
							c6.4-0.6,13.2-2.4,17.4-7.1C102.3,63.4,103.6,60.2,103.8,56.9z"/>
					</g>
				</g>
			</g>
			<g class="st8">
				<ellipse class="st6" cx="107.1" cy="27.8" rx="2.3" ry="2.2"/>
			</g>
			<g class="st8">
				<ellipse class="st6" cx="57.6" cy="25.3" rx="2.6" ry="2.5"/>
			</g>
			<g class="st8">
				<ellipse class="st6" cx="42" cy="73.3" rx="3.4" ry="3.2"/>
			</g>
		</g>
	</g>
	<g>
		
			<linearGradient id="SVGID_1_" gradientUnits="userSpaceOnUse" x1="82.4341" y1="191.1909" x2="98.2813" y2="152.7733" gradientTransform="matrix(0.9185 -0.3955 0.3955 0.9185 -82.143 -58.4407)">
			<stop  offset="0" style="stop-color:#B998D6"/>
			<stop  offset="9.856875e-02" style="stop-color:#C0A1DA"/>
			<stop  offset="0.2323" style="stop-color:#D1B4E3"/>
			<stop  offset="0.7321" style="stop-color:#F1E8F6"/>
			<stop  offset="1" style="stop-color:#FFFFFF"/>
		</linearGradient>
		<path class="st9" d="M46.3,58.4L46.3,58.4L85.6,69l0,0c0.3-0.2,0.5-0.4,0.6-0.8l4.9-28.4c0.1-0.6-0.3-1.2-1-1.3l-37.4-5.9
			c-0.5-0.1-1,0.3-1.1,0.8l-5.4,24C46.1,57.8,46.2,58.1,46.3,58.4z"/>
		
			<radialGradient id="SVGID_00000134954827939568446680000010901688505962809514_" cx="96.007" cy="160.1006" r="23.1163" gradientTransform="matrix(0.9185 -0.3955 0.3955 0.9185 -82.143 -58.4407)" gradientUnits="userSpaceOnUse">
			<stop  offset="0" style="stop-color:#FFFFFF"/>
			<stop  offset="6.562275e-02" style="stop-color:#D8D8D8"/>
			<stop  offset="0.1615" style="stop-color:#A6A6A6"/>
			<stop  offset="0.2622" style="stop-color:#797979"/>
			<stop  offset="0.3658" style="stop-color:#545454"/>
			<stop  offset="0.4731" style="stop-color:#353535"/>
			<stop  offset="0.5852" style="stop-color:#1E1E1E"/>
			<stop  offset="0.7042" style="stop-color:#0D0D0D"/>
			<stop  offset="0.835" style="stop-color:#030303"/>
			<stop  offset="1" style="stop-color:#000000"/>
		</radialGradient>
		<path style="fill:url(#SVGID_00000134954827939568446680000010901688505962809514_);" d="M66.4,45.7c1-0.6,2.3-0.4,3,0.6
			l16.8,21.4L90.9,41c0.1-0.6-0.3-1.2-1-1.3l-37.5-6c-0.5-0.1-1,0.3-1.1,0.8l-5.1,22.7L66.4,45.7z"/>
		
			<linearGradient id="SVGID_00000108269287853506886590000011912665347613500802_" gradientUnits="userSpaceOnUse" x1="87.095" y1="183.4859" x2="101.6051" y2="142.884" gradientTransform="matrix(0.9185 -0.3955 0.3955 0.9185 -82.143 -58.4407)">
			<stop  offset="0" style="stop-color:#B998D6"/>
			<stop  offset="9.856875e-02" style="stop-color:#C0A1DA"/>
			<stop  offset="0.2323" style="stop-color:#D1B4E3"/>
			<stop  offset="0.7321" style="stop-color:#F1E8F6"/>
			<stop  offset="1" style="stop-color:#FFFFFF"/>
		</linearGradient>
		<path style="fill:url(#SVGID_00000108269287853506886590000011912665347613500802_);" d="M66.6,44.7c1-0.6,2.3-0.4,3,0.6
			l16.6,22.5l4.9-27.9c0.1-0.6-0.3-1.2-1-1.3l-37.4-5.9c-0.5-0.1-1,0.3-1.1,0.8l-5.3,23.7L66.6,44.7z"/>
		<path class="st12" d="M47,56.5l20.2-12.6c1-0.6,2.3-0.4,3,0.6l15.6,22.1l0.4,1.2L69.6,45.3c-0.7-1-2-1.2-3-0.6L46.3,57.2L47,56.5z
			"/>
		<path class="st12" d="M90.7,38.8L90.7,38.8L68.2,53c-1,0.6-2.3,0.3-3-0.7L52.3,32.8l0,0L90.7,38.8z"/>
		
			<linearGradient id="SVGID_00000116938539772757961770000004393075639698920613_" gradientUnits="userSpaceOnUse" x1="114.1166" y1="132.4889" x2="93.37" y2="162.5357" gradientTransform="matrix(0.9185 -0.3955 0.3955 0.9185 -82.143 -58.4407)">
			<stop  offset="0" style="stop-color:#B998D6"/>
			<stop  offset="9.856875e-02" style="stop-color:#C0A1DA"/>
			<stop  offset="0.2323" style="stop-color:#D1B4E3"/>
			<stop  offset="0.7321" style="stop-color:#F1E8F6"/>
			<stop  offset="1" style="stop-color:#FFFFFF"/>
		</linearGradient>
		<path style="fill:url(#SVGID_00000116938539772757961770000004393075639698920613_);" d="M90.7,38.8L90.7,38.8L68.3,52.1
			c-1,0.6-2.3,0.3-3-0.7l-13-18.7l0,0L90.7,38.8z"/>
		
			<radialGradient id="SVGID_00000174603816114390943230000006035096200688380300_" cx="90.0122" cy="1425.9138" r="9.5695" gradientTransform="matrix(0.9185 -0.3955 -0.3955 -0.9185 550.9919 1385.1102)" gradientUnits="userSpaceOnUse">
			<stop  offset="0" style="stop-color:#FFFFFF"/>
			<stop  offset="6.562275e-02" style="stop-color:#D8D8D8"/>
			<stop  offset="0.1615" style="stop-color:#A6A6A6"/>
			<stop  offset="0.2622" style="stop-color:#797979"/>
			<stop  offset="0.3658" style="stop-color:#545454"/>
			<stop  offset="0.4731" style="stop-color:#353535"/>
			<stop  offset="0.5852" style="stop-color:#1E1E1E"/>
			<stop  offset="0.7042" style="stop-color:#0D0D0D"/>
			<stop  offset="0.835" style="stop-color:#030303"/>
			<stop  offset="1" style="stop-color:#000000"/>
		</radialGradient>
		<path style="fill:url(#SVGID_00000174603816114390943230000006035096200688380300_);" d="M65.7,51c0.7,1,1.9,1.3,3,0.7l21.7-12.9
			l0.4,0.1l0,0L68.3,52.1c-1,0.6-2.3,0.3-3-0.7l-13-18.7l0,0l0.7,0.1L65.7,51z"/>
	</g>
	<g>
		<path class="st15" d="M81.5,48.9c4.6,4.6,12,4.6,16.6,0L81.5,32.3C76.9,36.9,76.9,44.3,81.5,48.9z"/>
		<path class="st16" d="M81.5,32.3l16.6,16.6c4.6-4.6,4.6-12,0-16.6C93.5,27.7,86,27.7,81.5,32.3z"/>
		<path class="st6" d="M95.9,34.4c-3.4-3.4-9-3.4-12.4,0c-3.4,3.4-3.4,9,0,12.4c3.4,3.4,9,3.4,12.4,0S99.4,37.8,95.9,34.4z"/>
		<path class="st15" d="M89.8,43.1L89.8,43.1c-0.7,0-1.3-0.6-1.3-1.3v-6.5c0-0.7,0.6-1.3,1.3-1.3h0c0.7,0,1.3,0.6,1.3,1.3v6.5
			C91,42.6,90.5,43.1,89.8,43.1z"/>
		<path class="st15" d="M89.8,46.9L89.8,46.9c-0.7,0-1.3-0.6-1.3-1.3l0,0c0-0.7,0.6-1.3,1.3-1.3h0c0.7,0,1.3,0.6,1.3,1.3v0
			C91,46.4,90.5,46.9,89.8,46.9z"/>
	</g>
</g>
</svg>
