<?xml version="1.0" encoding="utf-8"?>
<!-- Generator: Adobe Illustrator 25.0.1, SVG Export Plug-In . SVG Version: 6.00 Build 0)  -->
<svg version="1.1" id="Layer_1" xmlns="http://www.w3.org/2000/svg" xmlns:xlink="http://www.w3.org/1999/xlink" x="0px" y="0px"
	 viewBox="0 0 30 30" style="enable-background:new 0 0 30 30;" xml:space="preserve">
<style type="text/css">
	.st0{fill:#333333;}
	.st1{fill:#57A0D7;}
</style>
<g>
	<g>
		<g>
			<path class="st0" d="M22.5,11.9l-8.8-8.8c-1.7-1.7-4.5-1.7-6.2,0C6.7,4,6.2,5.1,6.2,6.2s0.5,2.3,1.3,3.1l5.7,5.7l-5.7,5.7
				c-0.8,0.8-1.3,1.9-1.3,3.1c0,1.2,0.5,2.3,1.3,3.1s1.9,1.3,3.1,1.3s2.3-0.5,3.1-1.3l8.8-8.8c0.8-0.8,1.3-1.9,1.3-3.1
				S23.3,12.7,22.5,11.9z M20.9,16.5l-8.8,8.8c-0.8,0.8-2.3,0.8-3.1,0c-0.9-0.9-0.9-2.2,0-3.1l7.2-7.2L9.1,7.8
				c-0.4-0.4-0.6-1-0.6-1.6c0-0.6,0.2-1.1,0.6-1.6c0.4-0.4,1-0.6,1.6-0.6c0.6,0,1.1,0.2,1.6,0.6l8.8,8.8c0.4,0.4,0.6,1,0.6,1.6
				S21.4,16.1,20.9,16.5z"/>
		</g>
	</g>
	<path class="st1" d="M12.2,4.7c-0.4-0.4-1-0.6-1.6-0.6c-0.6,0-1.1,0.2-1.6,0.6c-0.4,0.4-0.6,1-0.6,1.6c0,0.6,0.2,1.1,0.6,1.6
		l7.2,7.2l-7.2,7.2c-0.9,0.9-0.9,2.2,0,3.1c0.8,0.8,2.3,0.8,3.1,0l8.8-8.8c0.4-0.4,0.6-1,0.6-1.6s-0.2-1.1-0.6-1.6L12.2,4.7z"/>
</g>
</svg>
