<?xml version="1.0" encoding="utf-8"?>
<!-- Generator: Adobe Illustrator 25.0.1, SVG Export Plug-In . SVG Version: 6.00 Build 0)  -->
<svg version="1.1" id="Layer_1" xmlns="http://www.w3.org/2000/svg" xmlns:xlink="http://www.w3.org/1999/xlink" x="0px" y="0px"
	 viewBox="0 0 30 30" style="enable-background:new 0 0 30 30;" xml:space="preserve">
<style type="text/css">
	.st0{fill:#333333;}
	.st1{fill:#57A0D7;}
</style>
<g>
	<g>
		<g>
			<path class="st0" d="M7.5,18.1l8.8,8.8c1.7,1.7,4.5,1.7,6.2,0c0.8-0.8,1.3-1.9,1.3-3.1s-0.5-2.3-1.3-3.1L16.8,15l5.7-5.7
				c0.8-0.8,1.3-1.9,1.3-3.1S23.3,4,22.5,3.1c-0.8-0.8-1.9-1.3-3.1-1.3c-1.2,0-2.3,0.5-3.1,1.3l-8.8,8.8c-0.8,0.8-1.3,1.9-1.3,3.1
				S6.7,17.3,7.5,18.1z M9.1,13.5l8.8-8.8c0.8-0.8,2.3-0.8,3.1,0c0.9,0.9,0.9,2.2,0,3.1L13.7,15l7.2,7.2c0.4,0.4,0.6,1,0.6,1.6
				c0,0.6-0.2,1.1-0.6,1.6c-0.4,0.4-1,0.6-1.6,0.6c-0.6,0-1.1-0.2-1.6-0.6l-8.8-8.8c-0.4-0.4-0.6-1-0.6-1.6
				C8.4,14.4,8.6,13.9,9.1,13.5z"/>
		</g>
	</g>
	<path class="st1" d="M17.8,25.3c0.4,0.4,1,0.6,1.6,0.6c0.6,0,1.1-0.2,1.6-0.6c0.4-0.4,0.6-1,0.6-1.6c0-0.6-0.2-1.1-0.6-1.6L13.7,15
		l7.2-7.2c0.9-0.9,0.9-2.2,0-3.1c-0.8-0.8-2.3-0.8-3.1,0l-8.8,8.8c-0.4,0.4-0.6,1-0.6,1.6s0.2,1.1,0.6,1.6L17.8,25.3z"/>
</g>
</svg>
