<?xml version="1.0" encoding="utf-8"?>
<!-- Generator: Adobe Illustrator 25.0.1, SVG Export Plug-In . SVG Version: 6.00 Build 0)  -->
<svg version="1.1" id="Layer_1" xmlns="http://www.w3.org/2000/svg" xmlns:xlink="http://www.w3.org/1999/xlink" x="0px" y="0px"
	 viewBox="0 0 30 30" style="enable-background:new 0 0 30 30;" xml:space="preserve">
<style type="text/css">
	.st0{fill:#57A0D7;}
	.st1{fill:#333333;}
</style>
<g>
	<path class="st0" d="M19.1,22.4H3.3v1.4c0,1.5,1.3,2.8,2.8,2.8H20c-0.6-0.8-0.9-1.7-0.9-2.8V22.4z"/>
	<path class="st1" d="M11.8,12.4H18c0.6,0,1-0.5,1-1c0-0.6-0.5-1-1-1h-6.2c-0.6,0-1,0.5-1,1C10.8,11.9,11.2,12.4,11.8,12.4z"/>
	<path class="st1" d="M22.7,15.1H11.8c-0.6,0-1,0.5-1,1c0,0.6,0.5,1,1,1h10.9c0.6,0,1-0.5,1-1C23.7,15.5,23.3,15.1,22.7,15.1z"/>
	<path class="st1" d="M28.1,1.5c-0.4-0.2-0.8-0.1-1.1,0.2l-2.8,2.5l-2.8-2.5c-0.4-0.3-1-0.3-1.3,0l-2.8,2.5l-2.8-2.5
		c-0.4-0.3-1-0.3-1.3,0l-2.8,2.5L7.4,1.7C7.1,1.4,6.7,1.3,6.3,1.5C6,1.7,5.7,2,5.7,2.4v17.9H2.3c-0.6,0-1,0.5-1,1v2.5
		c0,2.6,2.1,4.7,4.6,4.8v0h17.7v0c0.1,0,0.2,0,0.2,0c2.7,0,4.8-2.2,4.8-4.8V2.4C28.7,2,28.5,1.7,28.1,1.5z M6.1,26.6
		c-1.5,0-2.8-1.3-2.8-2.8v-1.4h15.8v1.4c0,1,0.3,2,0.9,2.8H6.1z M26.7,23.8c0,1.5-1.3,2.8-2.8,2.8c-1.5,0-2.8-1.3-2.8-2.8v-2.5
		c0-0.6-0.5-1-1-1H7.7V4.7l1.8,1.6c0.4,0.3,1,0.3,1.3,0l2.8-2.5l2.8,2.5c0.4,0.3,1,0.3,1.3,0l2.8-2.5l2.8,2.5c0.4,0.3,1,0.3,1.3,0
		l1.8-1.6V23.8z"/>
</g>
</svg>
