<?xml version="1.0" encoding="utf-8"?>
<!-- Generator: Adobe Illustrator 25.0.1, SVG Export Plug-In . SVG Version: 6.00 Build 0)  -->
<svg version="1.1" id="Layer_1" xmlns="http://www.w3.org/2000/svg" xmlns:xlink="http://www.w3.org/1999/xlink" x="0px" y="0px"
	 viewBox="0 0 105 90" style="enable-background:new 0 0 105 90;" xml:space="preserve">
<style type="text/css">
	.st0{fill:#F3F4F2;}
	.st1{fill:#57A0D7;}
	.st2{fill:#D5DBE1;}
	.st3{fill:#3E86B3;}
	.st4{fill:#333333;}
	.st5{fill:#A5AFC1;}
</style>
<g>
	<g>
		<path class="st0" d="M71.6,13.4H50.7H26.2c-3.4,0-6.3,2.8-6.3,6.3v18.5v39.4c0,3.4,2.8,6.3,6.3,6.3H47h24.5c3.4,0,6.3-2.8,6.3-6.3
			V59.1V19.7C77.9,16.3,75,13.4,71.6,13.4z"/>
	</g>
	<g>
		<circle class="st1" cx="72.4" cy="31.5" r="18"/>
	</g>
	<g>
		<path class="st2" d="M27,77.6V38.2V19.7c0-3.4,2.8-6.3,6.3-6.3h-7c-3.4,0-6.3,2.8-6.3,6.3v18.5v39.4c0,3.4,2.8,6.3,6.3,6.3h7
			C29.8,83.9,27,81.1,27,77.6z"/>
	</g>
	<g>
		<path class="st3" d="M61.4,31.5c0-8.7,6.2-16,14.5-17.7c-1.1-0.2-2.3-0.4-3.5-0.4c-9.9,0-18,8.1-18,18s8.1,18,18,18
			c1.2,0,2.4-0.1,3.5-0.4C67.6,47.5,61.4,40.2,61.4,31.5z"/>
	</g>
	<g>
		<path class="st4" d="M71.6,86.2H26.2c-4.7,0-8.6-3.9-8.6-8.6V19.7c0-4.7,3.9-8.6,8.6-8.6h24.5v4.7H26.2c-2.2,0-3.9,1.8-3.9,3.9
			v57.9c0,2.2,1.8,3.9,3.9,3.9h45.4c2.2,0,3.9-1.8,3.9-3.9V59.1h4.7v18.5C80.2,82.4,76.3,86.2,71.6,86.2z"/>
	</g>
	<g>
		<path class="st4" d="M72.4,51.8C61.2,51.8,52,42.7,52,31.5s9.1-20.4,20.4-20.4s20.4,9.1,20.4,20.4S83.6,51.8,72.4,51.8z
			 M72.4,15.8c-8.6,0-15.7,7-15.7,15.7s7,15.7,15.7,15.7S88,40.1,88,31.5S81,15.8,72.4,15.8z"/>
	</g>
	<g>
		<path class="st4" d="M45,58.1h4.7v18.8H45V58.1z"/>
	</g>
	<g>
		<path class="st4" d="M39.5,76.8H29.3c-0.8,0-1.6-0.4-2-1.2c-0.4-0.7-0.4-1.6,0-2.3l5.9-10.6H27v-4.7h10.2c0.8,0,1.6,0.4,2,1.2
			c0.4,0.7,0.4,1.6,0,2.3l-5.9,10.6h6.2V76.8z"/>
	</g>
	<g>
		<path class="st4" d="M59.8,76.8h-4.7V60.4c0-1.3,1.1-2.3,2.3-2.3h3.9c3.5,0,6.3,2.8,6.3,6.3c0,3.5-2.8,6.3-6.3,6.3h-1.6V76.8z
			 M59.8,65.9h1.6c0.9,0,1.6-0.7,1.6-1.6c0-0.9-0.7-1.6-1.6-1.6h-1.6V65.9z"/>
	</g>
	<g>
		<path class="st5" d="M84.4,6l2.2-2.2L91,8.2l-2.2,2.2L84.4,6z"/>
	</g>
	<g>
		<path class="st5" d="M97.1,18.7l2.2-2.2l4.4,4.4l-2.2,2.2L97.1,18.7z"/>
	</g>
	<g>
		<path class="st5" d="M96.5,8.2l4.4-4.4l2.2,2.2l-4.4,4.4L96.5,8.2z"/>
	</g>
	<g>
		<path class="st5" d="M6,22.3c-2.6,0-4.7-2.1-4.7-4.7s2.1-4.7,4.7-4.7s4.7,2.1,4.7,4.7S8.6,22.3,6,22.3z M6,16
			c-0.9,0-1.6,0.7-1.6,1.6c0,0.9,0.7,1.6,1.6,1.6s1.6-0.7,1.6-1.6C7.5,16.7,6.8,16,6,16z"/>
	</g>
	<path class="st4" d="M73.4,37.4h-2.1c-0.6,0-1.1-0.5-1.1-1.1v-4.9h-2.4c-0.6,0-0.9-0.7-0.5-1.1l4.5-4.7c0.2-0.3,0.7-0.3,0.9,0
		l4.5,4.7c0.4,0.4,0.1,1.1-0.5,1.1h-2.4v4.9C74.5,36.9,74,37.4,73.4,37.4z"/>
</g>
</svg>
