<?xml version="1.0" encoding="utf-8"?>
<!-- Generator: Adobe Illustrator 24.2.1, SVG Export Plug-In . SVG Version: 6.00 Build 0)  -->
<svg version="1.1" id="Layer_1" xmlns="http://www.w3.org/2000/svg" xmlns:xlink="http://www.w3.org/1999/xlink" x="0px" y="0px"
	 viewBox="0 0 28 28" style="enable-background:new 0 0 28 28;" xml:space="preserve">
<style type="text/css">
	.st0{fill:#57A0D7;}
</style>
<g>
	<path class="st0" d="M14.8,26.6h-1.6c-1.3,0-2.3-1-2.3-2.3v-0.5c-0.5-0.2-1.1-0.4-1.6-0.7l-0.4,0.4c-0.9,0.9-2.4,0.9-3.3,0
		l-1.1-1.1c-0.9-0.9-0.9-2.4,0-3.3l0.4-0.4c-0.3-0.5-0.5-1-0.7-1.6H3.8c-1.3,0-2.3-1-2.3-2.3v-1.6c0-1.3,1-2.3,2.3-2.3h0.5
		C4.5,10.4,4.7,9.8,5,9.3L4.6,8.9c-1-0.9-0.9-2.3,0-3.2l1.1-1.1c0.9-0.9,2.4-0.9,3.3,0L9.4,5c0.5-0.3,1-0.5,1.6-0.7V3.8
		c0-1.3,1-2.3,2.3-2.3h1.6c1.3,0,2.3,1,2.3,2.3v0.5c0.5,0.2,1.1,0.4,1.6,0.7l0.4-0.4c0.9-0.9,2.4-0.9,3.3,0l1.1,1.1
		c0.9,0.9,0.9,2.4,0,3.3l-0.4,0.4c0.3,0.5,0.5,1,0.7,1.6h0.5c1.3,0,2.3,1,2.3,2.3v1.6c0,1.3-1,2.3-2.3,2.3h-0.5
		c-0.2,0.5-0.4,1.1-0.7,1.6l0.4,0.4c0.9,0.9,0.9,2.4,0,3.3l-1.1,1.1c-0.9,0.9-2.4,0.9-3.3,0l-0.4-0.4c-0.5,0.3-1,0.5-1.6,0.7v0.5
		C17.1,25.5,16.1,26.6,14.8,26.6z M9.6,21.5c0.7,0.4,1.5,0.7,2.2,0.9c0.3,0.1,0.6,0.4,0.6,0.7v1.1c0,0.5,0.4,0.8,0.8,0.8h1.6
		c0.5,0,0.8-0.4,0.8-0.8v-1.1c0-0.3,0.2-0.6,0.6-0.7c0.8-0.2,1.5-0.5,2.2-0.9c0.3-0.2,0.7-0.1,0.9,0.1l0.8,0.8
		c0.3,0.3,0.9,0.3,1.2,0l1.1-1.1c0.3-0.3,0.3-0.9,0-1.2l-0.8-0.8c-0.2-0.2-0.3-0.6-0.1-0.9c0.4-0.7,0.7-1.5,0.9-2.2
		c0.1-0.3,0.4-0.6,0.7-0.6h1.1c0.5,0,0.8-0.4,0.8-0.8v-1.6c0-0.5-0.4-0.8-0.8-0.8h-1.1c-0.3,0-0.6-0.2-0.7-0.6
		c-0.2-0.8-0.5-1.5-0.9-2.2c-0.2-0.3-0.1-0.7,0.1-0.9l0.8-0.8c0.3-0.3,0.3-0.9,0-1.2l-1.1-1.1c-0.3-0.3-0.9-0.3-1.2,0l-0.8,0.8
		c-0.2,0.2-0.6,0.3-0.9,0.1c-0.7-0.4-1.5-0.7-2.2-0.9c-0.3-0.1-0.6-0.4-0.6-0.7V3.8c0-0.5-0.4-0.8-0.8-0.8h-1.6
		c-0.5,0-0.8,0.4-0.8,0.8v1.1c0,0.3-0.2,0.6-0.6,0.7C11,5.8,10.3,6.1,9.6,6.5C9.3,6.7,8.9,6.6,8.7,6.4L7.9,5.6
		C7.6,5.3,7,5.3,6.7,5.6L5.6,6.7C5.3,7,5.3,7.6,5.6,7.9l0.8,0.8c0.2,0.2,0.3,0.6,0.1,0.9c-0.4,0.7-0.7,1.5-0.9,2.2
		c-0.1,0.3-0.4,0.6-0.7,0.6H3.8c-0.5,0-0.8,0.4-0.8,0.8v1.6c0,0.5,0.4,0.8,0.8,0.8h1.1c0.3,0,0.6,0.2,0.7,0.6
		c0.2,0.8,0.5,1.5,0.9,2.2c0.2,0.3,0.1,0.7-0.1,0.9l-0.8,0.8c-0.3,0.3-0.3,0.9,0,1.2l1.1,1.1c0.3,0.3,0.9,0.3,1.2,0l0.8-0.8
		C8.8,21.5,9.2,21.3,9.6,21.5L9.6,21.5z"/>
	<path class="st0" d="M14,19.5c-3,0-5.5-2.5-5.5-5.5S11,8.5,14,8.5s5.5,2.5,5.5,5.5S17,19.5,14,19.5z M14,10c-2.2,0-4,1.8-4,4
		s1.8,4,4,4s4-1.8,4-4S16.2,10,14,10L14,10z"/>
</g>
</svg>
