<?xml version="1.0" encoding="utf-8"?>
<!-- Generator: Adobe Illustrator 25.0.1, SVG Export Plug-In . SVG Version: 6.00 Build 0)  -->
<svg version="1.1" id="Layer_1" xmlns="http://www.w3.org/2000/svg" xmlns:xlink="http://www.w3.org/1999/xlink" x="0px" y="0px"
	 viewBox="0 0 30 30" style="enable-background:new 0 0 30 30;" xml:space="preserve">
<style type="text/css">
	.st0{fill:#333333;}
	.st1{fill:#57A0D7;}
</style>
<g>
	<path class="st0" d="M19.8,28.4c-1.2,0-2.3-0.7-2.8-1.8l-1.6-3l-0.9,1.7c0,0,0,0.1-0.1,0.1c-0.6,0.8-1.6,1.1-2.3,1.1c0,0,0,0,0,0
		c-0.8,0-1.6-0.3-2.2-0.9c-0.6-0.6-0.9-1.4-0.9-2.3V9.8c0-1.2,0.7-2.3,1.8-2.8c1.1-0.5,2.4-0.4,3.3,0.4l6.9,5.1
		c0.5,0.3,0.6,1,0.2,1.5c-0.3,0.5-1,0.6-1.5,0.2l-6.9-5.1c0,0,0,0-0.1,0c-0.5-0.4-1-0.2-1.1-0.1C11.5,8.9,11,9.2,11,9.8v13.5
		c0,0.7,0.6,1.1,1.1,1.2c0,0,0,0,0,0c0.2,0,0.4-0.1,0.5-0.2l1.8-3.4c0.2-0.3,0.5-0.6,0.9-0.6c0,0,0,0,0,0c0.4,0,0.7,0.2,0.9,0.6
		l2.5,4.7c0,0,0,0,0,0c0.3,0.5,0.9,0.8,1.4,0.5c0.3-0.1,0.5-0.3,0.6-0.6c0.1-0.3,0.1-0.5,0-0.8l-2.5-4.5c-0.2-0.3-0.2-0.7,0-1
		c0.2-0.3,0.5-0.5,0.9-0.5h3.6c0.6,0,0.8-0.5,0.9-0.7c0.1-0.2,0.2-0.7-0.2-1.1c-0.4-0.4-0.4-1.1,0-1.5c0.4-0.4,1.1-0.4,1.5,0
		c0.9,0.9,1.1,2.2,0.6,3.4c-0.5,1.2-1.5,1.9-2.8,2c0,0,0,0,0,0h-1.8l1.7,3c0,0,0,0,0,0.1c0.4,0.8,0.4,1.6,0.1,2.4
		c-0.3,0.8-0.9,1.4-1.6,1.8C20.6,28.3,20.2,28.4,19.8,28.4z"/>
	<path class="st1" d="M10.1,5.7c0.5-0.3,0.7-0.9,0.4-1.4L9.7,2.7C9.4,2.2,8.7,2,8.2,2.3S7.5,3.2,7.8,3.7l0.9,1.6
		c0.2,0.3,0.5,0.5,0.9,0.5C9.8,5.8,10,5.8,10.1,5.7z"/>
	<path class="st0" d="M7.9,8.1c0.2-0.5,0-1.1-0.5-1.4L5.7,6C5.2,5.8,4.6,6,4.3,6.5c-0.2,0.5,0,1.1,0.5,1.4l1.7,0.7
		C6.7,8.7,6.8,8.7,7,8.7C7.4,8.7,7.7,8.5,7.9,8.1z"/>
	<path class="st0" d="M14.4,4.7L15,3c0.2-0.5-0.1-1.1-0.7-1.3c-0.5-0.2-1.1,0.1-1.3,0.7l-0.6,1.7c-0.2,0.5,0.1,1.1,0.7,1.3
		c0.1,0,0.2,0.1,0.3,0.1C13.9,5.4,14.3,5.2,14.4,4.7z"/>
	<path class="st0" d="M17.2,7.4l1.4-1c0.5-0.3,0.6-1,0.2-1.5c-0.3-0.5-1-0.6-1.5-0.2l-1.4,1c-0.5,0.3-0.6,1-0.2,1.5
		c0.2,0.3,0.5,0.4,0.8,0.4C16.8,7.6,17,7.5,17.2,7.4z"/>
	<path class="st0" d="M5.8,13.3l1.6-0.6c0.5-0.2,0.8-0.8,0.6-1.4c-0.2-0.5-0.8-0.8-1.4-0.6L5,11.3c-0.5,0.2-0.8,0.8-0.6,1.4
		c0.2,0.4,0.6,0.7,1,0.7C5.5,13.3,5.6,13.3,5.8,13.3z"/>
</g>
</svg>
