<?xml version="1.0" encoding="utf-8"?>
<!-- Generator: Adobe Illustrator 25.0.1, SVG Export Plug-In . SVG Version: 6.00 Build 0)  -->
<svg version="1.1" id="Layer_1" xmlns="http://www.w3.org/2000/svg" xmlns:xlink="http://www.w3.org/1999/xlink" x="0px" y="0px"
	 viewBox="0 0 30 30" style="enable-background:new 0 0 30 30;" xml:space="preserve">
<style type="text/css">
	.st0{fill:#57A0D7;}
	.st1{fill:#333333;}
</style>
<g>
	<path class="st0" d="M15,10.5c1.8,0,3.2-1.4,3.2-3.2S16.8,4.1,15,4.1s-3.2,1.4-3.2,3.2S13.2,10.5,15,10.5z"/>
	<path class="st1" d="M15,12.2c2.7,0,4.9-2.2,4.9-4.9c0-2.7-2.2-4.9-4.9-4.9s-4.9,2.2-4.9,4.9C10.1,10,12.3,12.2,15,12.2z M15,4.1
		c1.8,0,3.2,1.4,3.2,3.2s-1.4,3.2-3.2,3.2s-3.2-1.4-3.2-3.2S13.2,4.1,15,4.1z"/>
	<path class="st1" d="M25,12.2c1.7,0,3.1-1.4,3.1-3.1S26.7,6,25,6c-1.7,0-3.1,1.4-3.1,3.1S23.2,12.2,25,12.2z M25,7.7
		c0.8,0,1.4,0.6,1.4,1.4c0,0.8-0.6,1.4-1.4,1.4c-0.8,0-1.4-0.6-1.4-1.4C23.5,8.3,24.2,7.7,25,7.7z"/>
	<path class="st1" d="M25.7,14.2h-1.3c-1.5,0-2.9,0.9-3.5,2.2c-1.3-1.4-3.1-2.2-5.1-2.2h-1.6c-2,0-3.8,0.9-5.1,2.2
		c-0.6-1.3-1.9-2.2-3.5-2.2H4.3c-2.1,0-3.8,1.7-3.8,3.8v6.2c0,0.9,0.7,1.7,1.7,1.7h5.2c0.1,1,0.9,1.8,2,1.8h11.3c1,0,1.9-0.8,2-1.8
		h5.1c1,0,1.7-0.8,1.7-1.7V18C29.5,15.9,27.8,14.2,25.7,14.2z M7.8,18.6c-0.6,1.5-0.5,2.4-0.5,5.6H2.2V18c0-1.2,1-2.1,2.1-2.1h1.3
		c1.2,0,2.1,1,2.1,2.1V18.6z M20.9,25.6c0,0.2-0.1,0.3-0.3,0.3H9.3c-0.2,0-0.3-0.1-0.3-0.3V21c0-2.8,2.3-5.2,5.2-5.2h1.6
		c2.8,0,5.2,2.3,5.2,5.2V25.6z M22.6,24.1c0-3.2,0.1-4.1-0.5-5.6V18c0-1.2,1-2.1,2.1-2.1h1.3c1.2,0,2.1,1,2.1,2.1v6.1
		C27.8,24.1,28.1,24.1,22.6,24.1z"/>
	<path class="st1" d="M5,12.2c1.7,0,3.1-1.4,3.1-3.1S6.8,6,5,6S1.9,7.4,1.9,9.1S3.3,12.2,5,12.2z M5,7.7c0.8,0,1.4,0.6,1.4,1.4
		c0,0.8-0.6,1.4-1.4,1.4S3.6,9.9,3.6,9.1C3.6,8.3,4.3,7.7,5,7.7z"/>
</g>
</svg>
