<?xml version="1.0" encoding="utf-8"?>
<!-- Generator: Adobe Illustrator 26.0.2, SVG Export Plug-In . SVG Version: 6.00 Build 0)  -->
<svg version="1.1" id="Layer_1" xmlns="http://www.w3.org/2000/svg" xmlns:xlink="http://www.w3.org/1999/xlink" x="0px" y="0px"
	 viewBox="0 0 150 150" style="enable-background:new 0 0 150 150;" xml:space="preserve">
<style type="text/css">
	.st0{fill:#F7F7F7;}
	.st1{fill:#00BBED;}
	.st2{fill:#DDDDDD;}
	.st3{opacity:0.7;}
	.st4{opacity:0.22;}
	.st5{fill:#FFFFFF;}
	.st6{opacity:0.18;}
	.st7{opacity:0.31;}
	.st8{fill:url(#SVGID_1_);}
	.st9{fill:url(#SVGID_00000026855230341983181190000004899155331772744613_);}
	.st10{fill:url(#SVGID_00000137849948178372478700000015055135059447036077_);}
	.st11{opacity:0.2;enable-background:new    ;}
	.st12{fill:url(#SVGID_00000125571359039985701810000017897840238568049341_);}
	.st13{fill:url(#SVGID_00000138551750556103506510000004060244069233769096_);}
	.st14{fill:#FFCA42;}
	.st15{fill:#A07358;}
	.st16{fill:#FFAF3D;}
	.st17{fill:#333333;}
	.st18{fill:#4D4D4D;}
	.st19{fill:#1F1F1F;}
	.st20{fill:#E9336D;}
	.st21{fill:#F2F2F2;}
</style>
<rect y="0.2" class="st0" width="150" height="149.7"/>
<rect y="0.2" class="st1" width="150" height="96.6"/>
<path class="st2" d="M97,116.4H52.9c-1.2,0-2.2-1-2.2-2.2l0,0c0-1.2,1-2.2,2.2-2.2H97c1.2,0,2.2,1,2.2,2.2l0,0
	C99.2,115.4,98.2,116.4,97,116.4z"/>
<path class="st2" d="M111.4,126.5H38.6c-1.2,0-2.2-1-2.2-2.2l0,0c0-1.2,1-2.2,2.2-2.2h72.8c1.2,0,2.2,1,2.2,2.2l0,0
	C113.5,125.6,112.6,126.5,111.4,126.5z"/>
<path class="st2" d="M111.4,135.5H38.6c-1.2,0-2.2-1-2.2-2.2l0,0c0-1.2,1-2.2,2.2-2.2h72.8c1.2,0,2.2,1,2.2,2.2l0,0
	C113.5,134.5,112.6,135.5,111.4,135.5z"/>
<g class="st3">
	<g>
		<g class="st4">
			<g>
				<g>
					<path class="st5" d="M111.3,56.5c0.1-1.1,0-2.3-0.1-3.4c-0.6-5.3-3.5-10.3-7.7-13.8c-1.5-1.3-3.2-2.4-4.2-4.1
						c-1.6-2.8-1.5-6-3.5-8.8s-5-4.9-8.4-6c-10-3.3-24,2.1-22.7,13.6c0,0,0,0.1,0,0.2c0.2,2.4-1.8,4.4-4.3,4.5
						c-9.2,0.2-17.1,7-18.8,15.6c-1.1,5.5,0.7,11.6,4.9,15.5c3.2,2.9,7.4,4.5,11.6,5.6c8.5,2.2,17.4,2.7,26.2,1.8
						c8.2-0.8,16.9-3,22.2-9.1C109.5,64.9,111.1,60.7,111.3,56.5z"/>
				</g>
			</g>
		</g>
		<g class="st6">
			<g>
				<g>
					<path class="st5" d="M103.8,57.1c0.1-0.9,0-1.8-0.1-2.7c-0.5-4.2-2.7-8.1-6-10.8c-1.2-1-2.5-1.9-3.3-3.2
						c-1.3-2.2-1.2-4.7-2.8-6.9c-1.6-2.2-3.9-3.9-6.5-4.7c-7.8-2.6-18.8,1.6-17.8,10.6v0.1c0.1,1.9-1.4,3.4-3.4,3.5
						c-7.2,0.2-13.4,5.5-14.8,12.2c-0.9,4.3,0.5,9.1,3.9,12.1c2.5,2.3,5.8,3.5,9.1,4.4c6.7,1.7,13.7,2.1,20.5,1.4
						C89,72.5,95.8,70.7,100,66C102.3,63.6,103.6,60.4,103.8,57.1z"/>
				</g>
			</g>
		</g>
		<g class="st7">
			<ellipse class="st5" cx="107.1" cy="28" rx="2.3" ry="2.2"/>
		</g>
		<g class="st7">
			<ellipse class="st5" cx="57.6" cy="25.5" rx="2.6" ry="2.5"/>
		</g>
		<g class="st7">
			<ellipse class="st5" cx="42" cy="73.5" rx="3.4" ry="3.2"/>
		</g>
	</g>
</g>
<g>
	<g>
		<g>
			
				<linearGradient id="SVGID_1_" gradientUnits="userSpaceOnUse" x1="13.7252" y1="-146.4055" x2="29.5724" y2="-107.9879" gradientTransform="matrix(0.9185 -0.3955 -0.3955 -0.9185 4.2645 -42.3382)">
				<stop  offset="0" style="stop-color:#B998D6"/>
				<stop  offset="9.856875e-02" style="stop-color:#C0A1DA"/>
				<stop  offset="0.2323" style="stop-color:#D1B4E3"/>
				<stop  offset="0.7321" style="stop-color:#F1E8F6"/>
				<stop  offset="1" style="stop-color:#FFFFFF"/>
			</linearGradient>
			<path class="st8" d="M51.9,60.5L51.9,60.5l39.3,10.7l0,0c0.3-0.2,0.5-0.4,0.6-0.8L96.7,42c0.1-0.6-0.3-1.2-1-1.3l-37.4-5.9
				c-0.5-0.1-1,0.3-1.1,0.8l-5.4,24C51.7,60,51.7,60.3,51.9,60.5z"/>
			
				<radialGradient id="SVGID_00000064343179856087521670000006614891192391021721_" cx="27.2819" cy="-115.2873" r="23.1276" gradientTransform="matrix(0.9185 -0.3955 -0.3955 -0.9185 4.2645 -42.3382)" gradientUnits="userSpaceOnUse">
				<stop  offset="0" style="stop-color:#FFFFFF"/>
				<stop  offset="6.562275e-02" style="stop-color:#D8D8D8"/>
				<stop  offset="0.1615" style="stop-color:#A6A6A6"/>
				<stop  offset="0.2622" style="stop-color:#797979"/>
				<stop  offset="0.3658" style="stop-color:#545454"/>
				<stop  offset="0.4731" style="stop-color:#353535"/>
				<stop  offset="0.5852" style="stop-color:#1E1E1E"/>
				<stop  offset="0.7042" style="stop-color:#0D0D0D"/>
				<stop  offset="0.835" style="stop-color:#030303"/>
				<stop  offset="1" style="stop-color:#000000"/>
			</radialGradient>
			<path style="fill:url(#SVGID_00000064343179856087521670000006614891192391021721_);" d="M72,47.9c1-0.6,2.3-0.4,3,0.6l16.8,21.4
				l4.7-26.8c0.1-0.6-0.3-1.2-1-1.3l-37.5-6c-0.5-0.1-1,0.3-1.1,0.8l-5.1,22.7L72,47.9z"/>
			
				<linearGradient id="SVGID_00000167386025900902668410000015269572053076518528_" gradientUnits="userSpaceOnUse" x1="18.4129" y1="-138.7092" x2="32.923" y2="-98.1073" gradientTransform="matrix(0.9185 -0.3955 -0.3955 -0.9185 4.2645 -42.3382)">
				<stop  offset="0" style="stop-color:#B998D6"/>
				<stop  offset="9.856875e-02" style="stop-color:#C0A1DA"/>
				<stop  offset="0.2323" style="stop-color:#D1B4E3"/>
				<stop  offset="0.7321" style="stop-color:#F1E8F6"/>
				<stop  offset="1" style="stop-color:#FFFFFF"/>
			</linearGradient>
			<path style="fill:url(#SVGID_00000167386025900902668410000015269572053076518528_);" d="M72.2,46.8c1-0.6,2.3-0.4,3,0.6
				l16.6,22.5L96.7,42c0.1-0.6-0.3-1.2-1-1.3l-37.4-5.9c-0.5-0.1-1,0.3-1.1,0.8l-5.3,23.7L72.2,46.8z"/>
			<path class="st11" d="M52.5,58.7L72.7,46c1-0.6,2.3-0.4,3,0.6l15.6,22.1l0.4,1.2L75.2,47.4c-0.7-1-2-1.2-3-0.6L51.8,59.3
				L52.5,58.7z"/>
			<path class="st11" d="M96.3,40.9L96.3,40.9L73.7,55.1c-1,0.6-2.3,0.3-3-0.7L57.9,34.9l0,0L96.3,40.9z"/>
			
				<linearGradient id="SVGID_00000070115089146419527280000017895102498697704357_" gradientUnits="userSpaceOnUse" x1="45.386" y1="-87.6931" x2="24.6394" y2="-117.7399" gradientTransform="matrix(0.9185 -0.3955 -0.3955 -0.9185 4.2645 -42.3382)">
				<stop  offset="0" style="stop-color:#B998D6"/>
				<stop  offset="9.856875e-02" style="stop-color:#C0A1DA"/>
				<stop  offset="0.2323" style="stop-color:#D1B4E3"/>
				<stop  offset="0.7321" style="stop-color:#F1E8F6"/>
				<stop  offset="1" style="stop-color:#FFFFFF"/>
			</linearGradient>
			<path style="fill:url(#SVGID_00000070115089146419527280000017895102498697704357_);" d="M96.3,40.9L96.3,40.9L73.9,54.3
				c-1,0.6-2.3,0.3-3-0.7l-13-18.7l0,0L96.3,40.9z"/>
			
				<radialGradient id="SVGID_00000158711940704811702490000002264998791762547126_" cx="21.2867" cy="-916.706" r="9.5695" gradientTransform="matrix(0.9185 -0.3955 0.3955 0.9185 418.2924 892.3637)" gradientUnits="userSpaceOnUse">
				<stop  offset="0" style="stop-color:#FFFFFF"/>
				<stop  offset="6.562275e-02" style="stop-color:#D8D8D8"/>
				<stop  offset="0.1615" style="stop-color:#A6A6A6"/>
				<stop  offset="0.2622" style="stop-color:#797979"/>
				<stop  offset="0.3658" style="stop-color:#545454"/>
				<stop  offset="0.4731" style="stop-color:#353535"/>
				<stop  offset="0.5852" style="stop-color:#1E1E1E"/>
				<stop  offset="0.7042" style="stop-color:#0D0D0D"/>
				<stop  offset="0.835" style="stop-color:#030303"/>
				<stop  offset="1" style="stop-color:#000000"/>
			</radialGradient>
			<path style="fill:url(#SVGID_00000158711940704811702490000002264998791762547126_);" d="M71.3,53.1c0.7,1,1.9,1.3,3,0.7L96,40.9
				l0.4,0.1l0,0L73.9,54.3c-1,0.6-2.3,0.3-3-0.7l-13-18.7l0,0l0.7,0.1L71.3,53.1z"/>
		</g>
	</g>
</g>
<g>
	<path class="st14" d="M89.8,34.5h13.8c0.7,0,1.3,0.6,1.3,1.3v17.9c0,0.7-0.6,1.3-1.3,1.3H89.8c-0.7,0-1.3-0.6-1.3-1.3V35.8
		C88.5,35.1,89.1,34.5,89.8,34.5z"/>
	<path class="st15" d="M88.9,36.2c0-0.7,0.6-1.3,1.3-1.3c15.1,0,14.1-0.1,14.5,0.2c-0.2-0.4-0.6-0.6-1.1-0.6H89.8
		c-0.7,0-1.3,0.6-1.3,1.3v17.9c0,0.4,0.2,0.8,0.6,1.1C88.8,54.3,88.9,55.4,88.9,36.2z"/>
	<path class="st16" d="M103.5,34.5c0.1,0.2,0.1,0.3,0.1,0.5V53c0,0.7-0.6,1.3-1.3,1.3h-9.6c-0.3,0-0.5-0.2-0.5-0.5l-0.4-9.7v10.2
		h-3.2c0.2,0.5,0.7,0.7,1.2,0.7h13.8c0.7,0,1.3-0.6,1.3-1.3V35.8C104.9,35.2,104.4,34.5,103.5,34.5z"/>
	<path class="st17" d="M89.8,34.5h2l0,0V55l0,0h-2c-0.7,0-1.3-0.6-1.3-1.3V35.8C88.5,35.1,89.1,34.5,89.8,34.5z"/>
	<path class="st18" d="M89.1,54.8c-0.3-0.5-0.2,0.7-0.2-18.6c0-0.7,0.6-1.3,1.3-1.3l0,0h1.7v-0.4h-2c-0.7,0-1.3,0.6-1.3,1.3v17.9
		C88.5,54.1,88.7,54.5,89.1,54.8z"/>
	<path class="st19" d="M88.6,54.2L88.6,54.2c0.2,0.5,0.7,0.7,1.2,0.7h2v-1.5C91.5,54.4,91.8,54.2,88.6,54.2z"/>
	<path class="st20" d="M94.5,42.4v-3.5c0-0.4,0.4-0.8,0.8-0.8h6.1c0.4,0,0.8,0.4,0.8,0.8l0,0v3.5c0,0.4-0.4,0.8-0.8,0.8l0,0h-6.1
		C94.8,43.2,94.5,42.9,94.5,42.4z M101.6,49.3h-6.5c-0.2,0-0.4,0.2-0.4,0.4s0.2,0.4,0.4,0.4h6.5c0.2,0,0.4-0.2,0.4-0.4
		S101.8,49.3,101.6,49.3z M101,51.3h-5.4c-0.2,0-0.4,0.2-0.4,0.4c0,0.2,0.2,0.4,0.4,0.4h5.4c0.2,0,0.4-0.2,0.4-0.4
		C101.4,51.5,101.3,51.3,101,51.3z"/>
	<path class="st21" d="M95.1,37.9h6.1c0.4,0,0.8,0.4,0.8,0.8v3.5c0,0.4-0.4,0.8-0.8,0.8h-6.1c-0.4,0-0.8-0.4-0.8-0.8v-3.5
		C94.3,38.3,94.6,37.9,95.1,37.9z"/>
	<path class="st21" d="M101.4,50h-6.5c-0.2,0-0.4-0.2-0.4-0.4s0.2-0.4,0.4-0.4h6.5c0.2,0,0.4,0.2,0.4,0.4S101.6,50,101.4,50z"/>
	<path class="st21" d="M100.8,51.9h-5.4c-0.2,0-0.4-0.2-0.4-0.4c0-0.2,0.2-0.4,0.4-0.4h5.4c0.2,0,0.4,0.2,0.4,0.4
		C101.2,51.7,101.1,51.9,100.8,51.9z"/>
</g>
</svg>
