<?xml version="1.0" encoding="utf-8"?>
<!-- Generator: Adobe Illustrator 26.0.2, SVG Export Plug-In . SVG Version: 6.00 Build 0)  -->
<svg version="1.1" id="Layer_1" xmlns="http://www.w3.org/2000/svg" xmlns:xlink="http://www.w3.org/1999/xlink" x="0px" y="0px"
	 viewBox="0 0 150 150" style="enable-background:new 0 0 150 150;" xml:space="preserve">
<style type="text/css">
	.st0{fill:#F7F7F7;}
	.st1{fill:#00BBED;}
	.st2{fill:#DDDDDD;}
	.st3{opacity:0.7;}
	.st4{opacity:0.22;}
	.st5{fill:#FFFFFF;}
	.st6{opacity:0.18;}
	.st7{opacity:0.31;}
	.st8{fill:url(#SVGID_1_);}
	.st9{fill:url(#SVGID_00000168826598478911165400000013027606399267219893_);}
	.st10{fill:url(#SVGID_00000109742074096114412010000014393194344779189666_);}
	.st11{opacity:0.2;enable-background:new    ;}
	.st12{fill:url(#SVGID_00000133494595024920201460000004141733414606496407_);}
	.st13{fill:url(#SVGID_00000097484253442331444470000003370663223371573146_);}
	.st14{fill:#3B4652;}
	.st15{fill:#2B79C2;}
</style>
<rect y="0.2" class="st0" width="150" height="149.7"/>
<rect y="0.2" class="st1" width="150" height="96.6"/>
<path class="st2" d="M97,116.4H52.9c-1.2,0-2.2-1-2.2-2.2l0,0c0-1.2,1-2.2,2.2-2.2H97c1.2,0,2.2,1,2.2,2.2l0,0
	C99.2,115.4,98.2,116.4,97,116.4z"/>
<path class="st2" d="M111.4,126.5H38.6c-1.2,0-2.2-1-2.2-2.2l0,0c0-1.2,1-2.2,2.2-2.2h72.8c1.2,0,2.2,1,2.2,2.2l0,0
	C113.5,125.6,112.6,126.5,111.4,126.5z"/>
<path class="st2" d="M111.4,135.5H38.6c-1.2,0-2.2-1-2.2-2.2l0,0c0-1.2,1-2.2,2.2-2.2h72.8c1.2,0,2.2,1,2.2,2.2l0,0
	C113.5,134.5,112.6,135.5,111.4,135.5z"/>
<g class="st3">
	<g>
		<g class="st4">
			<g>
				<g>
					<path class="st5" d="M111.3,56.5c0.1-1.1,0-2.3-0.1-3.4c-0.6-5.3-3.5-10.3-7.7-13.8c-1.5-1.3-3.2-2.4-4.2-4.1
						c-1.6-2.8-1.5-6-3.5-8.8s-5-4.9-8.4-6c-10-3.3-24,2.1-22.7,13.6c0,0,0,0.1,0,0.2c0.2,2.4-1.8,4.4-4.3,4.5
						c-9.2,0.2-17.1,7-18.8,15.6c-1.1,5.5,0.7,11.6,4.9,15.5c3.2,2.9,7.4,4.5,11.6,5.6c8.5,2.2,17.4,2.7,26.2,1.8
						c8.2-0.8,16.9-3,22.2-9.1C109.5,64.9,111.1,60.7,111.3,56.5z"/>
				</g>
			</g>
		</g>
		<g class="st6">
			<g>
				<g>
					<path class="st5" d="M103.8,57.1c0.1-0.9,0-1.8-0.1-2.7c-0.5-4.2-2.7-8.1-6-10.8c-1.2-1-2.5-1.9-3.3-3.2
						c-1.3-2.2-1.2-4.7-2.8-6.9c-1.6-2.2-3.9-3.9-6.5-4.7c-7.8-2.6-18.8,1.6-17.8,10.6v0.1c0.1,1.9-1.4,3.4-3.4,3.5
						c-7.2,0.2-13.4,5.5-14.8,12.2c-0.9,4.3,0.5,9.1,3.9,12.1c2.5,2.3,5.8,3.5,9.1,4.4c6.7,1.7,13.7,2.1,20.5,1.4
						C89,72.5,95.8,70.7,100,66C102.3,63.6,103.6,60.4,103.8,57.1z"/>
				</g>
			</g>
		</g>
		<g class="st7">
			<ellipse class="st5" cx="107.1" cy="28" rx="2.3" ry="2.2"/>
		</g>
		<g class="st7">
			<ellipse class="st5" cx="57.6" cy="25.5" rx="2.6" ry="2.5"/>
		</g>
		<g class="st7">
			<ellipse class="st5" cx="42" cy="73.5" rx="3.4" ry="3.2"/>
		</g>
	</g>
</g>
<g>
	<g>
		<g>
			
				<linearGradient id="SVGID_1_" gradientUnits="userSpaceOnUse" x1="9.3759" y1="-141.3355" x2="25.2231" y2="-102.9179" gradientTransform="matrix(0.9185 -0.3955 -0.3955 -0.9185 4.2645 -42.3382)">
				<stop  offset="0" style="stop-color:#B998D6"/>
				<stop  offset="9.856875e-02" style="stop-color:#C0A1DA"/>
				<stop  offset="0.2323" style="stop-color:#D1B4E3"/>
				<stop  offset="0.7321" style="stop-color:#F1E8F6"/>
				<stop  offset="1" style="stop-color:#FFFFFF"/>
			</linearGradient>
			<path class="st8" d="M45.9,57.6L45.9,57.6l39.3,10.7l0,0c0.3-0.2,0.5-0.4,0.6-0.8l4.9-28.4c0.1-0.6-0.3-1.2-1-1.3l-37.4-5.9
				c-0.5-0.1-1,0.3-1.1,0.8l-5.4,24C45.7,57,45.7,57.3,45.9,57.6z"/>
			
				<radialGradient id="SVGID_00000088813134450899791360000015344793202736874677_" cx="22.9181" cy="-110.251" r="23.1276" gradientTransform="matrix(0.9185 -0.3955 -0.3955 -0.9185 4.2645 -42.3382)" gradientUnits="userSpaceOnUse">
				<stop  offset="0" style="stop-color:#FFFFFF"/>
				<stop  offset="6.562275e-02" style="stop-color:#D8D8D8"/>
				<stop  offset="0.1615" style="stop-color:#A6A6A6"/>
				<stop  offset="0.2622" style="stop-color:#797979"/>
				<stop  offset="0.3658" style="stop-color:#545454"/>
				<stop  offset="0.4731" style="stop-color:#353535"/>
				<stop  offset="0.5852" style="stop-color:#1E1E1E"/>
				<stop  offset="0.7042" style="stop-color:#0D0D0D"/>
				<stop  offset="0.835" style="stop-color:#030303"/>
				<stop  offset="1" style="stop-color:#000000"/>
			</radialGradient>
			<path style="fill:url(#SVGID_00000088813134450899791360000015344793202736874677_);" d="M66,44.9c1-0.6,2.3-0.4,3,0.6L85.8,67
				l4.7-26.8c0.1-0.6-0.3-1.2-1-1.3l-37.5-6c-0.5-0.1-1,0.3-1.1,0.8l-5.1,22.7L66,44.9z"/>
			
				<linearGradient id="SVGID_00000059309027618863057090000008009946948167049871_" gradientUnits="userSpaceOnUse" x1="14.0616" y1="-133.6379" x2="28.5718" y2="-93.036" gradientTransform="matrix(0.9185 -0.3955 -0.3955 -0.9185 4.2645 -42.3382)">
				<stop  offset="0" style="stop-color:#B998D6"/>
				<stop  offset="9.856875e-02" style="stop-color:#C0A1DA"/>
				<stop  offset="0.2323" style="stop-color:#D1B4E3"/>
				<stop  offset="0.7321" style="stop-color:#F1E8F6"/>
				<stop  offset="1" style="stop-color:#FFFFFF"/>
			</linearGradient>
			<path style="fill:url(#SVGID_00000059309027618863057090000008009946948167049871_);" d="M66.2,43.9c1-0.6,2.3-0.4,3,0.6L85.8,67
				l4.9-27.9c0.1-0.6-0.3-1.2-1-1.3l-37.4-5.9c-0.5-0.1-1,0.3-1.1,0.8l-5.3,23.7L66.2,43.9z"/>
			<path class="st11" d="M46.5,55.8l20.2-12.6c1-0.6,2.3-0.4,3,0.6l15.6,22.1l0.4,1.2L69.2,44.5c-0.7-1-2-1.2-3-0.6L45.8,56.4
				L46.5,55.8z"/>
			<path class="st11" d="M90.3,38L90.3,38L67.7,52.2c-1,0.6-2.3,0.3-3-0.7L51.9,32l0,0L90.3,38z"/>
			
				<linearGradient id="SVGID_00000041267459223567826000000014108502977915823765_" gradientUnits="userSpaceOnUse" x1="41.0414" y1="-82.629" x2="20.2947" y2="-112.6758" gradientTransform="matrix(0.9185 -0.3955 -0.3955 -0.9185 4.2645 -42.3382)">
				<stop  offset="0" style="stop-color:#B998D6"/>
				<stop  offset="9.856875e-02" style="stop-color:#C0A1DA"/>
				<stop  offset="0.2323" style="stop-color:#D1B4E3"/>
				<stop  offset="0.7321" style="stop-color:#F1E8F6"/>
				<stop  offset="1" style="stop-color:#FFFFFF"/>
			</linearGradient>
			<path style="fill:url(#SVGID_00000041267459223567826000000014108502977915823765_);" d="M90.3,38L90.3,38L67.9,51.3
				c-1,0.6-2.3,0.3-3-0.7L51.9,32l0,0L90.3,38z"/>
			
				<radialGradient id="SVGID_00000144332235592845542200000003750800556274564511_" cx="16.9279" cy="-921.78" r="9.5695" gradientTransform="matrix(0.9185 -0.3955 0.3955 0.9185 418.2924 892.3637)" gradientUnits="userSpaceOnUse">
				<stop  offset="0" style="stop-color:#FFFFFF"/>
				<stop  offset="6.562275e-02" style="stop-color:#D8D8D8"/>
				<stop  offset="0.1615" style="stop-color:#A6A6A6"/>
				<stop  offset="0.2622" style="stop-color:#797979"/>
				<stop  offset="0.3658" style="stop-color:#545454"/>
				<stop  offset="0.4731" style="stop-color:#353535"/>
				<stop  offset="0.5852" style="stop-color:#1E1E1E"/>
				<stop  offset="0.7042" style="stop-color:#0D0D0D"/>
				<stop  offset="0.835" style="stop-color:#030303"/>
				<stop  offset="1" style="stop-color:#000000"/>
			</radialGradient>
			<path style="fill:url(#SVGID_00000144332235592845542200000003750800556274564511_);" d="M65.3,50.2c0.7,1,1.9,1.3,3,0.7L89.9,38
				l0.4,0.1l0,0L67.9,51.3c-1,0.6-2.3,0.3-3-0.7L51.9,32l0,0l0.7,0.1L65.3,50.2z"/>
		</g>
	</g>
</g>
<circle class="st5" cx="90.3" cy="38.1" r="13.3"/>
<g>
	<path class="st14" d="M96.7,31.4C96.7,31.4,96.6,31.4,96.7,31.4l-2.2,1.2c0,0,0,0.1,0,0.1c2,1.3,3.3,3.6,3.3,6.2
		c0,4.1-3.3,7.4-7.3,7.4c-4.1,0.1-7.6-3.4-7.5-7.5c0-3.7,2.8-6.8,6.4-7.3c0.4,0,0.7-0.1,1.1-0.1c0.1,0,0.3,0,0.4,0
		c0,0,0.1,0,0.1,0.1v1.3c0,0,0.1,0.1,0.1,0.1l1.8-1l2.6-1.5l0.3-0.2c0,0,0-0.1,0-0.1l-4.6-2.7c0,0-0.1,0-0.1,0.1V29
		c0,0,0,0.1-0.1,0.1c-0.1,0-0.3,0-0.4,0c-0.4,0-0.7,0-1.1,0.1c-5.6,0.6-9.7,5.8-8.6,11.8c0.7,3.9,3.8,6.9,7.6,7.7
		c6.4,1.3,11.9-3.5,11.9-9.7C100.2,35.9,98.8,33.2,96.7,31.4z"/>
	<path class="st15" d="M89,42.6c-0.2,0-0.4,0.2-0.4,0.4c0,0.2,0.2,0.4,0.4,0.4h2.6c0.2,0,0.4-0.2,0.4-0.4c0-0.2-0.2-0.4-0.4-0.4H89z
		"/>
	<path class="st15" d="M95,36.8h-9.5c-0.1,0-0.2,0.1-0.2,0.2v3.8c0,0.1,0.1,0.2,0.2,0.2H95c0.1,0,0.2-0.1,0.2-0.2V37
		C95.3,36.9,95.2,36.8,95,36.8z"/>
	<g>
		<g>
			<path class="st5" d="M87.9,38.5l-0.1,0.3c0,0,0,0,0,0c0,0,0,0,0,0l0.2-0.2c0,0,0.1-0.1,0.1-0.1c0.1,0,0.1,0,0.1,0.1
				c0,0.1,0,0.1-0.1,0.1l-0.2,0.1c0,0-0.1,0-0.1,0c0,0,0,0,0.1,0l0.2,0.1c0.1,0,0.1,0.1,0.1,0.1c0,0.1,0,0.1-0.1,0.1
				c0,0-0.1,0-0.1-0.1L87.9,39c0,0,0,0,0,0c0,0,0,0,0,0v0l0,0l0,0.2c0,0,0,0,0,0.1c0,0.1,0,0.1-0.1,0.1c-0.1,0-0.1,0-0.1-0.1
				c0,0,0,0,0-0.1l0.1-0.2c0,0,0,0,0,0c0,0,0,0,0,0c0,0,0,0,0,0l-0.2,0.2c0,0-0.1,0.1-0.1,0.1c-0.1,0-0.1,0-0.1-0.1
				c0-0.1,0-0.1,0.1-0.1l0.2-0.1c0,0,0.1,0,0.1,0c0,0,0,0-0.1,0l-0.2-0.1c-0.1,0-0.1-0.1-0.1-0.1c0-0.1,0-0.1,0.1-0.1
				c0,0,0.1,0,0.1,0.1l0.2,0.2c0,0,0,0,0,0c0,0,0,0,0,0c0,0,0,0,0,0l-0.1-0.2c0,0,0,0,0-0.1c0-0.1,0-0.1,0.1-0.1
				C87.8,38.3,87.9,38.4,87.9,38.5C87.9,38.5,87.9,38.5,87.9,38.5z"/>
		</g>
		<g>
			<path class="st5" d="M89.6,38.5l-0.1,0.3c0,0,0,0,0,0c0,0,0,0,0,0l0.2-0.2c0,0,0.1-0.1,0.1-0.1c0.1,0,0.1,0,0.1,0.1
				c0,0.1,0,0.1-0.1,0.1l-0.2,0.1c0,0-0.1,0-0.1,0c0,0,0,0,0.1,0l0.2,0.1c0.1,0,0.1,0.1,0.1,0.1c0,0.1,0,0.1-0.1,0.1
				c0,0-0.1,0-0.1-0.1L89.6,39c0,0,0,0,0,0c0,0,0,0,0,0v0l0,0l0,0.2c0,0,0,0,0,0.1c0,0.1,0,0.1-0.1,0.1c-0.1,0-0.1,0-0.1-0.1
				c0,0,0,0,0-0.1l0.1-0.2c0,0,0,0,0,0c0,0,0,0,0,0c0,0,0,0,0,0l-0.2,0.2c0,0-0.1,0.1-0.1,0.1c-0.1,0-0.1,0-0.1-0.1
				c0-0.1,0-0.1,0.1-0.1l0.2-0.1c0,0,0.1,0,0.1,0c0,0,0,0-0.1,0l-0.2-0.1c-0.1,0-0.1-0.1-0.1-0.1c0-0.1,0-0.1,0.1-0.1
				c0,0,0.1,0,0.1,0.1l0.2,0.2c0,0,0,0,0,0c0,0,0,0,0,0c0,0,0,0,0,0l-0.1-0.2c0,0,0,0,0-0.1c0-0.1,0-0.1,0.1-0.1
				C89.6,38.3,89.6,38.4,89.6,38.5C89.6,38.5,89.6,38.5,89.6,38.5z"/>
		</g>
		<g>
			<path class="st5" d="M91.3,38.5l-0.1,0.3c0,0,0,0,0,0c0,0,0,0,0,0l0.2-0.2c0,0,0.1-0.1,0.1-0.1c0.1,0,0.1,0,0.1,0.1
				c0,0.1,0,0.1-0.1,0.1l-0.2,0.1c0,0-0.1,0-0.1,0c0,0,0,0,0.1,0l0.2,0.1c0.1,0,0.1,0.1,0.1,0.1c0,0.1,0,0.1-0.1,0.1
				c0,0-0.1,0-0.1-0.1L91.3,39c0,0,0,0,0,0c0,0,0,0,0,0v0l0,0l0,0.2c0,0,0,0,0,0.1c0,0.1,0,0.1-0.1,0.1c-0.1,0-0.1,0-0.1-0.1
				c0,0,0,0,0-0.1l0.1-0.2c0,0,0,0,0,0c0,0,0,0,0,0c0,0,0,0,0,0l-0.2,0.2c0,0-0.1,0.1-0.1,0.1c-0.1,0-0.1,0-0.1-0.1
				c0-0.1,0-0.1,0.1-0.1L91,39c0,0,0.1,0,0.1,0c0,0,0,0-0.1,0l-0.2-0.1c-0.1,0-0.1-0.1-0.1-0.1c0-0.1,0-0.1,0.1-0.1
				c0,0,0.1,0,0.1,0.1l0.2,0.2c0,0,0,0,0,0c0,0,0,0,0,0c0,0,0,0,0,0l-0.1-0.2c0,0,0,0,0-0.1c0-0.1,0-0.1,0.1-0.1
				C91.3,38.3,91.3,38.4,91.3,38.5C91.3,38.5,91.3,38.5,91.3,38.5z"/>
		</g>
		<g>
			<path class="st5" d="M92.9,38.5l-0.1,0.3c0,0,0,0,0,0c0,0,0,0,0,0l0.2-0.2c0,0,0.1-0.1,0.1-0.1c0.1,0,0.1,0,0.1,0.1
				c0,0.1,0,0.1-0.1,0.1L93,38.9c0,0-0.1,0-0.1,0c0,0,0,0,0.1,0l0.2,0.1c0.1,0,0.1,0.1,0.1,0.1c0,0.1,0,0.1-0.1,0.1
				c0,0-0.1,0-0.1-0.1L92.9,39c0,0,0,0,0,0c0,0,0,0,0,0v0l0,0l0,0.2c0,0,0,0,0,0.1c0,0.1,0,0.1-0.1,0.1c-0.1,0-0.1,0-0.1-0.1
				c0,0,0,0,0-0.1l0.1-0.2c0,0,0,0,0,0c0,0,0,0,0,0c0,0,0,0,0,0l-0.2,0.2c0,0-0.1,0.1-0.1,0.1c-0.1,0-0.1,0-0.1-0.1
				c0-0.1,0-0.1,0.1-0.1l0.2-0.1c0,0,0.1,0,0.1,0c0,0,0,0-0.1,0l-0.2-0.1c-0.1,0-0.1-0.1-0.1-0.1c0-0.1,0-0.1,0.1-0.1
				c0,0,0.1,0,0.1,0.1l0.2,0.2c0,0,0,0,0,0c0,0,0,0,0,0c0,0,0,0,0,0l-0.1-0.2c0,0,0,0,0-0.1c0-0.1,0-0.1,0.1-0.1
				C92.9,38.3,92.9,38.4,92.9,38.5C92.9,38.5,92.9,38.5,92.9,38.5z"/>
		</g>
	</g>
</g>
</svg>
