<?xml version="1.0" encoding="utf-8"?>
<!-- Generator: Adobe Illustrator 26.0.2, SVG Export Plug-In . SVG Version: 6.00 Build 0)  -->
<svg version="1.1" id="Layer_1" xmlns="http://www.w3.org/2000/svg" xmlns:xlink="http://www.w3.org/1999/xlink" x="0px" y="0px"
	 viewBox="0 0 150 150" style="enable-background:new 0 0 150 150;" xml:space="preserve">
<style type="text/css">
	.st0{fill:#F7F7F7;}
	.st1{fill:#00BBED;}
	.st2{fill:#DDDDDD;}
	.st3{opacity:0.7;}
	.st4{opacity:0.22;}
	.st5{fill:#FFFFFF;}
	.st6{opacity:0.18;}
	.st7{opacity:0.31;}
	.st8{fill:url(#SVGID_1_);}
	.st9{fill:url(#SVGID_00000070086620127006738210000016586153160380010683_);}
	.st10{fill:url(#SVGID_00000109030858779766384830000007519883733401565331_);}
	.st11{opacity:0.2;}
	.st12{fill:url(#SVGID_00000132065259913667330970000007374864760003394459_);}
	.st13{fill:url(#SVGID_00000031179182501722160930000004315847751422647486_);}
	.st14{fill:#FB6249;}
	.st15{fill:#DD523D;}
	.st16{fill:#DD513C;}
	.st17{fill:#125C6E;}
	.st18{fill:#26869B;}
	.st19{fill:#F3F1E5;}
	.st20{fill:#155E70;}
	.st21{fill:#125D6E;}
	.st22{fill:#95D0D8;}
	.st23{fill:#135E6F;}
	.st24{fill:#115D6E;}
</style>
<g>
	<rect y="0.2" class="st0" width="150" height="149.7"/>
	<rect y="0.2" class="st1" width="150" height="96.6"/>
	<path class="st2" d="M97,116.4H52.9c-1.2,0-2.2-1-2.2-2.2l0,0c0-1.2,1-2.2,2.2-2.2H97c1.2,0,2.2,1,2.2,2.2l0,0
		C99.2,115.4,98.2,116.4,97,116.4z"/>
	<path class="st2" d="M111.4,126.5H38.6c-1.2,0-2.2-1-2.2-2.2l0,0c0-1.2,1-2.2,2.2-2.2h72.8c1.2,0,2.2,1,2.2,2.2l0,0
		C113.5,125.6,112.6,126.5,111.4,126.5z"/>
	<path class="st2" d="M111.4,135.5H38.6c-1.2,0-2.2-1-2.2-2.2l0,0c0-1.2,1-2.2,2.2-2.2h72.8c1.2,0,2.2,1,2.2,2.2l0,0
		C113.5,134.5,112.6,135.5,111.4,135.5z"/>
	<g class="st3">
		<g>
			<g class="st4">
				<g>
					<g>
						<path class="st5" d="M111.3,56.5c0.1-1.1,0-2.3-0.1-3.4c-0.6-5.3-3.5-10.3-7.7-13.8c-1.5-1.3-3.2-2.4-4.2-4.1
							c-1.6-2.8-1.5-6-3.5-8.8c-2-2.8-5-4.9-8.4-6c-10-3.3-24,2.1-22.7,13.6c0,0,0,0.1,0,0.2c0.2,2.4-1.8,4.4-4.3,4.5
							c-9.2,0.2-17.1,7-18.8,15.6c-1.1,5.5,0.7,11.6,4.9,15.5c3.2,2.9,7.4,4.5,11.6,5.6c8.5,2.2,17.4,2.7,26.2,1.8
							c8.2-0.8,16.9-3,22.2-9.1C109.5,64.9,111.1,60.7,111.3,56.5z"/>
					</g>
				</g>
			</g>
			<g class="st6">
				<g>
					<g>
						<path class="st5" d="M103.8,57.1c0.1-0.9,0-1.8-0.1-2.7c-0.5-4.2-2.7-8.1-6-10.8c-1.2-1-2.5-1.9-3.3-3.2
							c-1.3-2.2-1.2-4.7-2.8-6.9c-1.6-2.2-3.9-3.9-6.5-4.7c-7.8-2.6-18.8,1.6-17.8,10.6c0,0,0,0.1,0,0.1c0.1,1.9-1.4,3.4-3.4,3.5
							c-7.2,0.2-13.4,5.5-14.8,12.2c-0.9,4.3,0.5,9.1,3.9,12.1c2.5,2.3,5.8,3.5,9.1,4.4c6.7,1.7,13.7,2.1,20.5,1.4
							c6.4-0.6,13.2-2.4,17.4-7.1C102.3,63.6,103.6,60.4,103.8,57.1z"/>
					</g>
				</g>
			</g>
			<g class="st7">
				<ellipse class="st5" cx="107.1" cy="28" rx="2.3" ry="2.2"/>
			</g>
			<g class="st7">
				<ellipse class="st5" cx="57.6" cy="25.5" rx="2.6" ry="2.5"/>
			</g>
			<g class="st7">
				<ellipse class="st5" cx="42" cy="73.5" rx="3.4" ry="3.2"/>
			</g>
		</g>
	</g>
	<g>
		<g>
			<g>
				
					<linearGradient id="SVGID_1_" gradientUnits="userSpaceOnUse" x1="82.551" y1="192.1967" x2="98.3982" y2="153.7791" gradientTransform="matrix(0.9185 -0.3955 0.3955 0.9185 -82.143 -58.4407)">
					<stop  offset="0" style="stop-color:#B998D6"/>
					<stop  offset="9.856875e-02" style="stop-color:#C0A1DA"/>
					<stop  offset="0.2323" style="stop-color:#D1B4E3"/>
					<stop  offset="0.7321" style="stop-color:#F1E8F6"/>
					<stop  offset="1" style="stop-color:#FFFFFF"/>
				</linearGradient>
				<path class="st8" d="M46.8,59.2L46.8,59.2l39.3,10.7l0,0c0.3-0.2,0.5-0.4,0.6-0.8l4.9-28.4c0.1-0.6-0.3-1.2-1-1.3l-37.4-5.9
					c-0.5-0.1-1,0.3-1.1,0.8l-5.4,24C46.6,58.7,46.7,59,46.8,59.2z"/>
				
					<radialGradient id="SVGID_00000090278695079813075390000007332208931065822618_" cx="96.1239" cy="161.1064" r="23.1163" gradientTransform="matrix(0.9185 -0.3955 0.3955 0.9185 -82.143 -58.4407)" gradientUnits="userSpaceOnUse">
					<stop  offset="0" style="stop-color:#FFFFFF"/>
					<stop  offset="6.562275e-02" style="stop-color:#D8D8D8"/>
					<stop  offset="0.1615" style="stop-color:#A6A6A6"/>
					<stop  offset="0.2622" style="stop-color:#797979"/>
					<stop  offset="0.3658" style="stop-color:#545454"/>
					<stop  offset="0.4731" style="stop-color:#353535"/>
					<stop  offset="0.5852" style="stop-color:#1E1E1E"/>
					<stop  offset="0.7042" style="stop-color:#0D0D0D"/>
					<stop  offset="0.835" style="stop-color:#030303"/>
					<stop  offset="1" style="stop-color:#000000"/>
				</radialGradient>
				<path style="fill:url(#SVGID_00000090278695079813075390000007332208931065822618_);" d="M66.9,46.6c1-0.6,2.3-0.4,3,0.6
					l16.8,21.4l4.7-26.8c0.1-0.6-0.3-1.2-1-1.3l-37.5-6c-0.5-0.1-1,0.3-1.1,0.8l-5.1,22.7L66.9,46.6z"/>
				
					<linearGradient id="SVGID_00000167382478399877816030000014939087093512911509_" gradientUnits="userSpaceOnUse" x1="87.2119" y1="184.4917" x2="101.722" y2="143.8898" gradientTransform="matrix(0.9185 -0.3955 0.3955 0.9185 -82.143 -58.4407)">
					<stop  offset="0" style="stop-color:#B998D6"/>
					<stop  offset="9.856875e-02" style="stop-color:#C0A1DA"/>
					<stop  offset="0.2323" style="stop-color:#D1B4E3"/>
					<stop  offset="0.7321" style="stop-color:#F1E8F6"/>
					<stop  offset="1" style="stop-color:#FFFFFF"/>
				</linearGradient>
				<path style="fill:url(#SVGID_00000167382478399877816030000014939087093512911509_);" d="M67.1,45.6c1-0.6,2.3-0.4,3,0.6
					l16.6,22.5l4.9-27.9c0.1-0.6-0.3-1.2-1-1.3l-37.4-5.9c-0.5-0.1-1,0.3-1.1,0.8l-5.3,23.7L67.1,45.6z"/>
				<path class="st11" d="M47.5,57.4l20.2-12.6c1-0.6,2.3-0.4,3,0.6l15.6,22.1l0.4,1.2L70.2,46.2c-0.7-1-2-1.2-3-0.6L46.8,58.1
					L47.5,57.4z"/>
				<path class="st11" d="M91.2,39.7L91.2,39.7L68.7,53.8c-1,0.6-2.3,0.3-3-0.7L52.8,33.6l0,0L91.2,39.7z"/>
				
					<linearGradient id="SVGID_00000135659668934022275560000009986246521070825600_" gradientUnits="userSpaceOnUse" x1="114.2335" y1="133.4948" x2="93.4869" y2="163.5415" gradientTransform="matrix(0.9185 -0.3955 0.3955 0.9185 -82.143 -58.4407)">
					<stop  offset="0" style="stop-color:#B998D6"/>
					<stop  offset="9.856875e-02" style="stop-color:#C0A1DA"/>
					<stop  offset="0.2323" style="stop-color:#D1B4E3"/>
					<stop  offset="0.7321" style="stop-color:#F1E8F6"/>
					<stop  offset="1" style="stop-color:#FFFFFF"/>
				</linearGradient>
				<path style="fill:url(#SVGID_00000135659668934022275560000009986246521070825600_);" d="M91.2,39.7L91.2,39.7L68.8,53
					c-1,0.6-2.3,0.3-3-0.7l-13-18.7l0,0L91.2,39.7z"/>
				
					<radialGradient id="SVGID_00000005957283790115187510000018342846473268640669_" cx="90.1291" cy="1424.908" r="9.5695" gradientTransform="matrix(0.9185 -0.3955 -0.3955 -0.9185 550.9919 1385.1102)" gradientUnits="userSpaceOnUse">
					<stop  offset="0" style="stop-color:#FFFFFF"/>
					<stop  offset="6.562275e-02" style="stop-color:#D8D8D8"/>
					<stop  offset="0.1615" style="stop-color:#A6A6A6"/>
					<stop  offset="0.2622" style="stop-color:#797979"/>
					<stop  offset="0.3658" style="stop-color:#545454"/>
					<stop  offset="0.4731" style="stop-color:#353535"/>
					<stop  offset="0.5852" style="stop-color:#1E1E1E"/>
					<stop  offset="0.7042" style="stop-color:#0D0D0D"/>
					<stop  offset="0.835" style="stop-color:#030303"/>
					<stop  offset="1" style="stop-color:#000000"/>
				</radialGradient>
				<path style="fill:url(#SVGID_00000005957283790115187510000018342846473268640669_);" d="M66.2,51.9c0.7,1,1.9,1.3,3,0.7
					l21.7-12.9l0.4,0.1l0,0L68.8,53c-1,0.6-2.3,0.3-3-0.7l-13-18.7l0,0l0.7,0.1L66.2,51.9z"/>
			</g>
		</g>
		<g>
			<path class="st14" d="M90.8,28.6c-0.4,0-0.7,0-1.1,0c-0.4,0-0.7-0.2-0.8-0.6c-0.1-0.4,0.1-0.7,0.5-0.9c0,0,0,0,0.1,0
				c0.7,0,1.4,0,2.1,0c0,0.5,0,1,0,1.5C91.4,28.6,91.1,28.6,90.8,28.6z"/>
			<path class="st15" d="M91.6,28.6c0-0.5,0-1,0-1.5c0.7,0,1.4,0,2.1,0c0,0,0,0,0,0c0.4,0.2,0.6,0.5,0.5,0.9
				c-0.1,0.4-0.4,0.6-0.9,0.6c-0.3,0-0.7,0-1,0C92.1,28.6,91.9,28.6,91.6,28.6z"/>
			<path class="st14" d="M91.6,53.2c-1.8,0-3.5-0.3-5.1-1.1c-3.3-1.6-5.4-4.2-6.3-7.7c-0.3-1.2-0.4-2.5-0.3-3.8
				c0.1-1.9,0.7-3.7,1.7-5.3c0,0,0.1-0.1,0.1-0.1c0.5-0.8,1.2-1.6,1.9-2.3c0.5-0.5,1.1-0.9,1.7-1.4c1.2-0.7,2.5-1.3,3.9-1.5
				c0.4-0.1,0.9-0.2,1.3-0.2c0.1,0,0.2,0,0.3,0c0.3,0,0.5,0,0.8,0c0,1,0,1.9,0,2.9c-0.3,0.1-0.5,0-0.8,0.1c-0.4,0-0.8,0.1-1.2,0.2
				c-3,0.8-5.1,2.6-6.2,5.5c-0.3,0.7-0.5,1.5-0.5,2.3c-0.1,0.5-0.1,1,0,1.5c0,0.3,0,0.6,0.1,0.9c0.7,3.2,2.6,5.4,5.6,6.6
				c0.7,0.3,1.5,0.5,2.3,0.5c0.3,0,0.5,0,0.8,0.1C91.6,51.2,91.6,52.2,91.6,53.2z"/>
			<path class="st16" d="M91.6,32.6c0-1,0-1.9,0-2.9c0.3,0,0.5,0,0.8,0c1.1,0.1,2.2,0.3,3.2,0.7c4,1.6,6.6,4.4,7.5,8.6
				c1.3,6-2.2,11.8-8,13.7c-1.1,0.4-2.3,0.5-3.5,0.5c0-1,0-1.9,0-2.9c0.3,0,0.5,0,0.8-0.1c1.3-0.1,2.5-0.5,3.6-1.1
				c1.7-1,2.9-2.4,3.7-4.1c0.4-0.9,0.6-1.8,0.7-2.7c0.1-0.5,0.1-1,0-1.5c0-0.3-0.1-0.6-0.1-0.9c-0.3-1.6-1-3-2.1-4.2
				c-1.6-1.7-3.5-2.7-5.8-2.9C92.1,32.6,91.9,32.7,91.6,32.6z"/>
			<path class="st17" d="M85.4,31.5c-0.6,0.4-1.2,0.9-1.7,1.4c-0.7,0.7-1.4,1.4-1.9,2.3c0,0-0.1,0.1-0.1,0.1
				c-0.3-0.3-0.6-0.6-0.9-0.9c-0.5-0.6-0.5-1.6,0-2.3c0.4-0.5,0.8-0.9,1.3-1.3c0.8-0.7,1.8-0.7,2.6,0.1C84.9,31,85.2,31.2,85.4,31.5
				z"/>
			<path class="st18" d="M92.4,29.7c-0.3,0-0.5,0-0.8,0c-0.3,0-0.5,0-0.8,0c0-0.4,0-0.7,0-1.1c0.3,0,0.5,0,0.8,0c0.3,0,0.5,0,0.8,0
				C92.4,29,92.4,29.3,92.4,29.7z"/>
			<path class="st19" d="M82.9,40.7c0-0.8,0.2-1.6,0.5-2.3c1.1-2.9,3.2-4.7,6.2-5.5c0.4-0.1,0.8-0.2,1.2-0.2c0,0.3,0,0.7,0,1
				c0,0.5,0.2,0.8,0.8,0.9c0,0.9,0,1.7,0,2.6c-0.6,0.2-0.7,0.4-0.7,0.9c0,1.2,0,2.4,0,3.6c0,0.5,0.2,0.8,0.7,0.9c0,1.9,0,3.9,0,5.8
				c-0.5,0.1-0.8,0.4-0.8,0.9c0,0.3,0,0.6,0,1c-0.8-0.1-1.5-0.2-2.3-0.5c-3-1.2-4.9-3.4-5.6-6.6c-0.1-0.3-0.1-0.6-0.1-0.9
				c0.3,0,0.7,0,1,0c0.5,0,0.8-0.3,0.8-0.8c0-0.4-0.3-0.8-0.8-0.8C83.5,40.7,83.2,40.7,82.9,40.7z"/>
			<path class="st20" d="M82.9,40.7c0.3,0,0.7,0,1,0c0.5,0,0.8,0.3,0.8,0.8c0,0.4-0.3,0.8-0.8,0.8c-0.3,0-0.7,0-1,0
				C82.8,41.7,82.8,41.2,82.9,40.7z"/>
			<path class="st21" d="M90.8,50.2c0-0.3,0-0.6,0-1c0-0.6,0.2-0.8,0.8-0.9c0.5,0.1,0.8,0.4,0.8,0.9c0,0.3,0,0.7,0,1
				c-0.3,0-0.5,0-0.8,0.1C91.4,50.3,91.1,50.2,90.8,50.2z"/>
			<path class="st21" d="M91.6,34.5c-0.5-0.1-0.8-0.4-0.8-0.9c0-0.3,0-0.7,0-1c0.3,0,0.5,0,0.8-0.1c0.2,0.1,0.5,0,0.8,0.1
				c0,0.3,0,0.7,0,1C92.4,34.2,92.1,34.5,91.6,34.5z"/>
			<path class="st22" d="M91.6,34.5c0.5-0.1,0.8-0.3,0.8-0.9c0-0.3,0-0.7,0-1c2.3,0.2,4.2,1.2,5.8,2.9c1.1,1.2,1.8,2.6,2.1,4.2
				c0.1,0.3,0.1,0.6,0.1,0.9c-0.3,0-0.6,0-1,0c-0.2,0-0.3,0-0.4,0.1c-0.3,0.2-0.5,0.5-0.4,0.9c0.1,0.3,0.4,0.6,0.8,0.6
				c0.3,0,0.7,0,1,0c-0.1,0.9-0.3,1.9-0.7,2.7c-0.8,1.8-2,3.2-3.7,4.1c-1.1,0.6-2.3,1-3.6,1.1c0-0.3,0-0.7,0-1
				c0-0.5-0.2-0.8-0.8-0.9c0-1.9,0-3.9,0-5.8c0.6,0,1.2,0,1.9,0c0.5,0,0.8-0.3,0.8-0.8c0-0.4-0.3-0.8-0.8-0.8c-0.3,0-0.5,0-0.8,0
				c-0.2,0-0.2,0-0.2-0.2c0-0.9,0-1.8,0-2.7c0-0.6-0.2-0.8-0.8-0.9C91.6,36.3,91.6,35.4,91.6,34.5z"/>
			<path class="st23" d="M100.4,42.2c-0.3,0-0.7,0-1,0c-0.4,0-0.7-0.3-0.8-0.6c-0.1-0.4,0.1-0.7,0.4-0.9c0.1-0.1,0.3-0.1,0.4-0.1
				c0.3,0,0.6,0,1,0C100.4,41.2,100.4,41.7,100.4,42.2z"/>
			<path class="st24" d="M91.6,37.1c0.6,0.1,0.8,0.3,0.8,0.9c0,0.9,0,1.8,0,2.7c0,0.2,0.1,0.3,0.2,0.2c0.3,0,0.5,0,0.8,0
				c0.5,0,0.8,0.3,0.8,0.8c0,0.4-0.3,0.8-0.8,0.8c-0.6,0-1.2,0-1.9,0c-0.5-0.1-0.7-0.4-0.7-0.9c0-1.2,0-2.4,0-3.6
				C90.9,37.5,91.1,37.3,91.6,37.1z"/>
		</g>
	</g>
</g>
</svg>
