<?xml version="1.0" encoding="utf-8"?>
<!-- Generator: Adobe Illustrator 26.0.2, SVG Export Plug-In . SVG Version: 6.00 Build 0)  -->
<svg version="1.1" id="Layer_1" xmlns="http://www.w3.org/2000/svg" xmlns:xlink="http://www.w3.org/1999/xlink" x="0px" y="0px"
	 viewBox="0 0 150 150" style="enable-background:new 0 0 150 150;" xml:space="preserve">
<style type="text/css">
	.st0{fill:#F7F7F7;}
	.st1{fill:#00BBED;}
	.st2{fill:#DDDDDD;}
	.st3{opacity:0.7;}
	.st4{opacity:0.22;}
	.st5{fill:#FFFFFF;}
	.st6{opacity:0.18;}
	.st7{opacity:0.31;}
	.st8{fill:url(#SVGID_1_);}
	.st9{fill:url(#SVGID_00000016763578222626577320000014155334090771780516_);}
	.st10{fill:url(#SVGID_00000099650604761357590020000010805286680648213392_);}
	.st11{opacity:0.2;enable-background:new    ;}
	.st12{fill:url(#SVGID_00000018211597930872747600000010432392761069826727_);}
	.st13{fill:url(#SVGID_00000165936291462551218270000016163860402689862561_);}
	.st14{fill:#F4F4F6;}
	.st15{fill:url(#SVGID_00000026859049548992666810000006347616239707332000_);}
</style>
<g>
	<rect y="0.2" class="st0" width="150" height="149.7"/>
	<rect y="0.2" class="st1" width="150" height="96.6"/>
	<path class="st2" d="M97,116.4H52.9c-1.2,0-2.2-1-2.2-2.2l0,0c0-1.2,1-2.2,2.2-2.2H97c1.2,0,2.2,1,2.2,2.2l0,0
		C99.2,115.4,98.2,116.4,97,116.4z"/>
	<path class="st2" d="M111.4,126.5H38.6c-1.2,0-2.2-1-2.2-2.2l0,0c0-1.2,1-2.2,2.2-2.2h72.8c1.2,0,2.2,1,2.2,2.2l0,0
		C113.5,125.6,112.6,126.5,111.4,126.5z"/>
	<path class="st2" d="M111.4,135.5H38.6c-1.2,0-2.2-1-2.2-2.2l0,0c0-1.2,1-2.2,2.2-2.2h72.8c1.2,0,2.2,1,2.2,2.2l0,0
		C113.5,134.5,112.6,135.5,111.4,135.5z"/>
	<g class="st3">
		<g>
			<g class="st4">
				<g>
					<g>
						<path class="st5" d="M111.3,56.5c0.1-1.1,0-2.3-0.1-3.4c-0.6-5.3-3.5-10.3-7.7-13.8c-1.5-1.3-3.2-2.4-4.2-4.1
							c-1.6-2.8-1.5-6-3.5-8.8s-5-4.9-8.4-6c-10-3.3-24,2.1-22.7,13.6c0,0,0,0.1,0,0.2c0.2,2.4-1.8,4.4-4.3,4.5
							c-9.2,0.2-17.1,7-18.8,15.6c-1.1,5.5,0.7,11.6,4.9,15.5c3.2,2.9,7.4,4.5,11.6,5.6c8.5,2.2,17.4,2.7,26.2,1.8
							c8.2-0.8,16.9-3,22.2-9.1C109.5,64.9,111.1,60.7,111.3,56.5z"/>
					</g>
				</g>
			</g>
			<g class="st6">
				<g>
					<g>
						<path class="st5" d="M103.8,57.1c0.1-0.9,0-1.8-0.1-2.7c-0.5-4.2-2.7-8.1-6-10.8c-1.2-1-2.5-1.9-3.3-3.2
							c-1.3-2.2-1.2-4.7-2.8-6.9c-1.6-2.2-3.9-3.9-6.5-4.7c-7.8-2.6-18.8,1.6-17.8,10.6v0.1c0.1,1.9-1.4,3.4-3.4,3.5
							c-7.2,0.2-13.4,5.5-14.8,12.2c-0.9,4.3,0.5,9.1,3.9,12.1c2.5,2.3,5.8,3.5,9.1,4.4c6.7,1.7,13.7,2.1,20.5,1.4
							C89,72.5,95.8,70.7,100,66C102.3,63.6,103.6,60.4,103.8,57.1z"/>
					</g>
				</g>
			</g>
			<g class="st7">
				<ellipse class="st5" cx="107.1" cy="28" rx="2.3" ry="2.2"/>
			</g>
			<g class="st7">
				<ellipse class="st5" cx="57.6" cy="25.5" rx="2.6" ry="2.5"/>
			</g>
			<g class="st7">
				<ellipse class="st5" cx="42" cy="73.5" rx="3.4" ry="3.2"/>
			</g>
		</g>
	</g>
	<g>
		<g>
			<g>
				
					<linearGradient id="SVGID_1_" gradientUnits="userSpaceOnUse" x1="9.5534" y1="-143.2332" x2="25.4006" y2="-104.8156" gradientTransform="matrix(0.9185 -0.3955 -0.3955 -0.9185 4.2645 -42.3382)">
					<stop  offset="0" style="stop-color:#B998D6"/>
					<stop  offset="9.856875e-02" style="stop-color:#C0A1DA"/>
					<stop  offset="0.2323" style="stop-color:#D1B4E3"/>
					<stop  offset="0.7321" style="stop-color:#F1E8F6"/>
					<stop  offset="1" style="stop-color:#FFFFFF"/>
				</linearGradient>
				<path class="st8" d="M46.8,59.2L46.8,59.2l39.3,10.7l0,0c0.3-0.2,0.5-0.4,0.6-0.8l4.9-28.4c0.1-0.6-0.3-1.2-1-1.3l-37.4-5.9
					c-0.5-0.1-1,0.3-1.1,0.8l-5.4,24C46.6,58.7,46.7,59,46.8,59.2z"/>
				
					<radialGradient id="SVGID_00000141431485846496589280000018128692593805649083_" cx="23.112" cy="-112.1451" r="23.1264" gradientTransform="matrix(0.9185 -0.3955 -0.3955 -0.9185 4.2645 -42.3382)" gradientUnits="userSpaceOnUse">
					<stop  offset="0" style="stop-color:#FFFFFF"/>
					<stop  offset="6.562275e-02" style="stop-color:#D8D8D8"/>
					<stop  offset="0.1615" style="stop-color:#A6A6A6"/>
					<stop  offset="0.2622" style="stop-color:#797979"/>
					<stop  offset="0.3658" style="stop-color:#545454"/>
					<stop  offset="0.4731" style="stop-color:#353535"/>
					<stop  offset="0.5852" style="stop-color:#1E1E1E"/>
					<stop  offset="0.7042" style="stop-color:#0D0D0D"/>
					<stop  offset="0.835" style="stop-color:#030303"/>
					<stop  offset="1" style="stop-color:#000000"/>
				</radialGradient>
				<path style="fill:url(#SVGID_00000141431485846496589280000018128692593805649083_);" d="M66.9,46.6c1-0.6,2.3-0.4,3,0.6
					l16.8,21.4l4.7-26.8c0.1-0.6-0.3-1.2-1-1.3l-37.5-6c-0.5-0.1-1,0.3-1.1,0.8L46.7,58L66.9,46.6z"/>
				
					<linearGradient id="SVGID_00000012436823754452017090000008064151219718220437_" gradientUnits="userSpaceOnUse" x1="14.2242" y1="-135.5321" x2="28.7343" y2="-94.9302" gradientTransform="matrix(0.9185 -0.3955 -0.3955 -0.9185 4.2645 -42.3382)">
					<stop  offset="0" style="stop-color:#B998D6"/>
					<stop  offset="9.856875e-02" style="stop-color:#C0A1DA"/>
					<stop  offset="0.2323" style="stop-color:#D1B4E3"/>
					<stop  offset="0.7321" style="stop-color:#F1E8F6"/>
					<stop  offset="1" style="stop-color:#FFFFFF"/>
				</linearGradient>
				<path style="fill:url(#SVGID_00000012436823754452017090000008064151219718220437_);" d="M67.1,45.6c1-0.6,2.3-0.4,3,0.6
					l16.6,22.5l4.9-27.9c0.1-0.6-0.3-1.2-1-1.3l-37.4-5.9c-0.5-0.1-1,0.3-1.1,0.8l-5.3,23.7L67.1,45.6z"/>
				<path class="st11" d="M47.5,57.4l20.2-12.6c1-0.6,2.3-0.4,3,0.6l15.6,22.1l0.4,1.2L70.2,46.2c-0.7-1-2-1.2-3-0.6L46.8,58.1
					L47.5,57.4z"/>
				<path class="st11" d="M91.2,39.7L91.2,39.7L68.7,53.8c-1,0.6-2.3,0.3-3-0.7L52.8,33.6l0,0L91.2,39.7z"/>
				
					<linearGradient id="SVGID_00000072257563811730333890000017212544440597143456_" gradientUnits="userSpaceOnUse" x1="41.2083" y1="-84.5108" x2="20.4617" y2="-114.5575" gradientTransform="matrix(0.9185 -0.3955 -0.3955 -0.9185 4.2645 -42.3382)">
					<stop  offset="0" style="stop-color:#B998D6"/>
					<stop  offset="9.856875e-02" style="stop-color:#C0A1DA"/>
					<stop  offset="0.2323" style="stop-color:#D1B4E3"/>
					<stop  offset="0.7321" style="stop-color:#F1E8F6"/>
					<stop  offset="1" style="stop-color:#FFFFFF"/>
				</linearGradient>
				<path style="fill:url(#SVGID_00000072257563811730333890000017212544440597143456_);" d="M91.2,39.7L91.2,39.7L68.8,53
					c-1,0.6-2.3,0.3-3-0.7l-13-18.7l0,0L91.2,39.7z"/>
				
					<radialGradient id="SVGID_00000039824874295659841530000009043554198703393439_" cx="17.1369" cy="-919.8692" r="9.5695" gradientTransform="matrix(0.9185 -0.3955 0.3955 0.9185 418.2924 892.3637)" gradientUnits="userSpaceOnUse">
					<stop  offset="0" style="stop-color:#FFFFFF"/>
					<stop  offset="6.562275e-02" style="stop-color:#D8D8D8"/>
					<stop  offset="0.1615" style="stop-color:#A6A6A6"/>
					<stop  offset="0.2622" style="stop-color:#797979"/>
					<stop  offset="0.3658" style="stop-color:#545454"/>
					<stop  offset="0.4731" style="stop-color:#353535"/>
					<stop  offset="0.5852" style="stop-color:#1E1E1E"/>
					<stop  offset="0.7042" style="stop-color:#0D0D0D"/>
					<stop  offset="0.835" style="stop-color:#030303"/>
					<stop  offset="1" style="stop-color:#000000"/>
				</radialGradient>
				<path style="fill:url(#SVGID_00000039824874295659841530000009043554198703393439_);" d="M66.2,51.9c0.7,1,1.9,1.3,3,0.7
					l21.7-12.9l0.4,0.1l0,0L68.8,53c-1,0.6-2.3,0.3-3-0.7l-13-18.7l0,0l0.7,0.1L66.2,51.9z"/>
			</g>
		</g>
	</g>
	<g>
		<path class="st14" d="M91.6,26.7c-6.6,0-12,5.4-12,12c0,6.6,5.4,12,12,12s12-5.4,12-12S98.2,26.7,91.6,26.7z"/>
		<g>
			
				<linearGradient id="SVGID_00000119821641585427896790000012422603417501858462_" gradientUnits="userSpaceOnUse" x1="82.1594" y1="102.8103" x2="97.5353" y2="118.1863" gradientTransform="matrix(1 0 0 -1 0 151)">
				<stop  offset="0" style="stop-color:#F3AA0F"/>
				<stop  offset="1" style="stop-color:#FED46E"/>
			</linearGradient>
			<path style="fill:url(#SVGID_00000119821641585427896790000012422603417501858462_);" d="M91.6,47c-4.5,0-8.2-3.7-8.2-8.2
				s3.7-8.2,8.2-8.2s8.2,3.7,8.2,8.2S96.2,47,91.6,47z"/>
		</g>
		<path class="st5" d="M94,37.4c0.4,0,0.8-0.3,0.8-0.8v-0.3c0-1-0.9-1.9-1.9-1.9h-0.5v-0.8c0-0.4-0.3-0.8-0.8-0.8s-0.8,0.3-0.8,0.8
			v0.8h-0.5c-1,0-1.9,0.9-1.9,1.9v1.2c0,1,0.9,1.9,1.9,1.9h2.6c0.2,0,0.3,0.2,0.3,0.3v1.2c0,0.2-0.2,0.3-0.3,0.3h-2.6
			c-0.2,0-0.3-0.2-0.3-0.3v-0.3c0-0.4-0.3-0.8-0.8-0.8c-0.4,0-0.8,0.3-0.8,0.8v0.3c0,1,0.9,1.9,1.9,1.9h0.5v0.8
			c0,0.4,0.3,0.8,0.8,0.8s0.8-0.3,0.8-0.8V43h0.5c1,0,1.9-0.9,1.9-1.9v-1.2c0-1-0.9-1.9-1.9-1.9h-2.6c-0.2,0-0.3-0.2-0.3-0.3v-1.2
			c0-0.2,0.2-0.3,0.3-0.3h2.6c0.2,0,0.3,0.2,0.3,0.3v0.3C93.2,37.1,93.6,37.4,94,37.4z"/>
	</g>
</g>
</svg>
