<?xml version="1.0" encoding="utf-8"?>
<!-- Generator: Adobe Illustrator 25.0.1, SVG Export Plug-In . SVG Version: 6.00 Build 0)  -->
<svg version="1.1" id="Layer_1" xmlns="http://www.w3.org/2000/svg" xmlns:xlink="http://www.w3.org/1999/xlink" x="0px" y="0px"
	 viewBox="0 0 9 9" style="enable-background:new 0 0 9 9;" xml:space="preserve">
<style type="text/css">
	.st0{fill:#FFFFFF;}
</style>
<g>
	<path class="st0" d="M5.6,7.3c0.1,0,0.2-0.1,0.2-0.2V3.6c0-0.1-0.1-0.2-0.2-0.2S5.4,3.5,5.4,3.6v3.5C5.4,7.2,5.5,7.3,5.6,7.3z"/>
	<path class="st0" d="M3.4,7.3c0.1,0,0.2-0.1,0.2-0.2V3.6c0-0.1-0.1-0.2-0.2-0.2S3.2,3.5,3.2,3.6v3.5C3.2,7.2,3.3,7.3,3.4,7.3z"/>
	<path class="st0" d="M7.7,2.1c0-0.4-0.4-0.6-0.7-0.6H6.1V1.3c0-0.2-0.1-0.4-0.2-0.5C5.7,0.6,5.5,0.5,5.3,0.5c0,0,0,0,0,0H3.7
		c0,0,0,0,0,0c-0.2,0-0.4,0.1-0.5,0.2C3,0.9,2.9,1.1,2.9,1.3v0.2H2c-0.4,0-0.7,0.3-0.7,0.6c0,0.4,0.2,0.7,0.5,0.8v4.5
		c0,0.3,0.1,0.5,0.3,0.7c0.2,0.2,0.4,0.3,0.7,0.3h3.5c0.3,0,0.5-0.1,0.7-0.3C7.1,8,7.2,7.7,7.2,7.5V2.9C7.5,2.8,7.8,2.5,7.7,2.1z
		 M6.8,7.5C6.8,7.8,6.5,8,6.2,8H2.8C2.5,8,2.2,7.8,2.2,7.5V3h4.5V7.5z M3.4,1.5V1.3c0-0.1,0-0.2,0.1-0.2C3.5,1,3.6,1,3.7,1
		c0,0,0,0,0,0h1.6c0.1,0,0.2,0,0.2,0.1c0.1,0.1,0.1,0.1,0.1,0.2v0.2H3.4z M7.3,2.2c0,0.2-0.1,0.3-0.3,0.3H2c-0.2,0-0.3-0.1-0.3-0.3
		c0-0.2,0.1-0.3,0.3-0.3h5C7.2,1.9,7.3,2.1,7.3,2.2z"/>
	<path class="st0" d="M4.5,7.3c0.1,0,0.2-0.1,0.2-0.2V3.6c0-0.1-0.1-0.2-0.2-0.2c-0.1,0-0.2,0.1-0.2,0.2v3.5
		C4.3,7.2,4.4,7.3,4.5,7.3z"/>
</g>
</svg>
