<?xml version="1.0" encoding="utf-8"?>
<!-- Generator: Adobe Illustrator 25.0.1, SVG Export Plug-In . SVG Version: 6.00 Build 0)  -->
<svg version="1.1" id="Layer_1" xmlns="http://www.w3.org/2000/svg" xmlns:xlink="http://www.w3.org/1999/xlink" x="0px" y="0px"
	 viewBox="0 0 30 30" style="enable-background:new 0 0 30 30;" xml:space="preserve">
<style type="text/css">
	.st0{fill:#333333;}
	.st1{fill:#57A0D7;}
</style>
<g>
	<path class="st0" d="M26.9,16.8H3.1c-1,0-1.8-0.8-1.8-1.8v0c0-1,0.8-1.8,1.8-1.8h23.7c1,0,1.8,0.8,1.8,1.8v0
		C28.7,16,27.9,16.8,26.9,16.8z"/>
	<g>
		<path class="st1" d="M15,9.8c1.5,0,2.7-1.2,2.7-2.7S16.5,4.3,15,4.3S12.3,5.5,12.3,7S13.5,9.8,15,9.8z"/>
		<path class="st0" d="M15,11.2c2.3,0,4.2-1.9,4.2-4.2c0-2.3-1.9-4.2-4.2-4.2S10.8,4.7,10.8,7C10.8,9.3,12.7,11.2,15,11.2z M15,4.3
			c1.5,0,2.7,1.2,2.7,2.7S16.5,9.8,15,9.8S12.3,8.5,12.3,7S13.5,4.3,15,4.3z"/>
	</g>
	<g>
		<path class="st1" d="M15,25.7c1.5,0,2.7-1.2,2.7-2.7s-1.2-2.7-2.7-2.7s-2.7,1.2-2.7,2.7S13.5,25.7,15,25.7z"/>
		<path class="st0" d="M15,27.1c2.3,0,4.2-1.9,4.2-4.2c0-2.3-1.9-4.2-4.2-4.2s-4.2,1.9-4.2,4.2C10.8,25.3,12.7,27.1,15,27.1z
			 M15,20.2c1.5,0,2.7,1.2,2.7,2.7s-1.2,2.7-2.7,2.7s-2.7-1.2-2.7-2.7S13.5,20.2,15,20.2z"/>
	</g>
</g>
</svg>
