<?xml version="1.0" encoding="utf-8"?>
<!-- Generator: Adobe Illustrator 25.0.1, SVG Export Plug-In . SVG Version: 6.00 Build 0)  -->
<svg version="1.1" id="Layer_1" xmlns="http://www.w3.org/2000/svg" xmlns:xlink="http://www.w3.org/1999/xlink" x="0px" y="0px"
	 viewBox="0 0 9 9" style="enable-background:new 0 0 9 9;" xml:space="preserve">
<style type="text/css">
	.st0{fill:#FFFFFF;}
</style>
<g>
	<g>
		<g>
			<path class="st0" d="M6.1,0.8H1.1c-0.2,0-0.3,0.1-0.3,0.3v5.1c0,0.2,0.1,0.3,0.3,0.3h5.1c0.2,0,0.3-0.1,0.3-0.3V1.1
				C6.4,0.9,6.3,0.8,6.1,0.8z M5.8,5.8H1.4V1.4h4.5V5.8z"/>
		</g>
	</g>
	<g>
		<g>
			<path class="st0" d="M7.6,6.9v0.7H6.9v0.6h1c0.2,0,0.3-0.1,0.3-0.3v-1H7.6z"/>
		</g>
	</g>
	<g>
		<g>
			<rect x="4.6" y="7.6" class="st0" width="1.6" height="0.6"/>
		</g>
	</g>
	<g>
		<g>
			<path class="st0" d="M3.2,7.6V6.9H2.6v1c0,0.2,0.1,0.3,0.3,0.3h1V7.6H3.2z"/>
		</g>
	</g>
	<g>
		<g>
			<path class="st0" d="M7.9,2.6h-1v0.6h0.7v0.7h0.6v-1C8.2,2.7,8.1,2.6,7.9,2.6z"/>
		</g>
	</g>
	<g>
		<g>
			<rect x="7.6" y="4.6" class="st0" width="0.6" height="1.6"/>
		</g>
	</g>
</g>
</svg>
