<?xml version="1.0" encoding="utf-8"?>
<!-- Generator: Adobe Illustrator 25.0.1, SVG Export Plug-In . SVG Version: 6.00 Build 0)  -->
<svg version="1.1" id="Layer_1" xmlns="http://www.w3.org/2000/svg" xmlns:xlink="http://www.w3.org/1999/xlink" x="0px" y="0px"
	 viewBox="0 0 9 9" style="enable-background:new 0 0 9 9;" xml:space="preserve">
<style type="text/css">
	.st0{fill:#FFFFFF;}
</style>
<g>
	<g>
		<path class="st0" d="M8,1C7.7,0.7,7.3,0.5,6.9,0.5S6.1,0.7,5.8,1L1.3,5.4c0,0-0.1,0.1-0.1,0.1L0.5,8.1c0,0.1,0,0.2,0.1,0.3
			c0.1,0.1,0.1,0.1,0.2,0.1c0,0,0.1,0,0.1,0l2.5-0.7c0.1,0,0.2-0.1,0.2-0.2s0-0.2-0.1-0.3L2,5.6L5.7,2L7,3.3L4.2,6.1
			c-0.1,0.1-0.1,0.3,0,0.4c0.1,0.1,0.3,0.1,0.4,0L8,3.2c0.3-0.3,0.5-0.7,0.5-1.1S8.3,1.3,8,1z M2.7,7.3L1.3,7.7l0.4-1.5L2.7,7.3z
			 M7.6,2.8L7.6,2.8L6.1,1.5l0.1-0.1c0.2-0.2,0.4-0.3,0.7-0.3s0.5,0.1,0.7,0.3c0.2,0.2,0.3,0.4,0.3,0.7S7.8,2.6,7.6,2.8z"/>
	</g>
</g>
</svg>
