<?xml version="1.0" encoding="utf-8"?>
<!-- Generator: Adobe Illustrator 25.0.1, SVG Export Plug-In . SVG Version: 6.00 Build 0)  -->
<svg version="1.1" id="Layer_1" xmlns="http://www.w3.org/2000/svg" xmlns:xlink="http://www.w3.org/1999/xlink" x="0px" y="0px"
	 viewBox="0 0 30 30" style="enable-background:new 0 0 30 30;" xml:space="preserve">
<style type="text/css">
	.st0{fill:#57A0D7;}
	.st1{fill:#F3F4F2;}
	.st2{fill:#333333;}
</style>
<g>
	<g id="Color_9_">
		<g>
			<path class="st0" d="M26.7,1.3H3.3c-1.1,0-2,0.9-2,2v2.9c0,1.1,0.9,2,2,2h23.5c1.1,0,2-0.9,2-2V3.3C28.7,2.2,27.8,1.3,26.7,1.3z"
				/>
		</g>
		<g>
			<path class="st1" d="M26.7,21.9H3.3c-1.1,0-2,0.9-2,2v2.9c0,1.1,0.9,2,2,2h23.5c1.1,0,2-0.9,2-2v-2.9
				C28.7,22.8,27.8,21.9,26.7,21.9z"/>
		</g>
	</g>
	<path class="st2" d="M26.7,8.1H3.3c-1.1,0-2-0.9-2-2V3.3c0-1.1,0.9-2,2-2h23.5c1.1,0,2,0.9,2,2v2.9C28.7,7.2,27.8,8.1,26.7,8.1z
		 M3.3,3C3.1,3,3,3.1,3,3.3v2.9c0,0.2,0.1,0.3,0.3,0.3h23.5c0.2,0,0.3-0.1,0.3-0.3V3.3C27,3.1,26.9,3,26.7,3H3.3z"/>
	<g>
		<path class="st2" d="M26.7,28.7H3.3c-1.1,0-2-0.9-2-2v-2.9c0-1.1,0.9-2,2-2h23.5c1.1,0,2,0.9,2,2v2.9
			C28.7,27.8,27.8,28.7,26.7,28.7z M3.3,23.6c-0.2,0-0.3,0.1-0.3,0.3v2.9C3,26.9,3.1,27,3.3,27h23.5c0.2,0,0.3-0.1,0.3-0.3v-2.9
			c0-0.2-0.1-0.3-0.3-0.3H3.3z"/>
	</g>
	<g>
		<path class="st2" d="M24.8,14.4H5.2c-0.5,0-0.9-0.4-0.9-0.9c0-0.5,0.4-0.9,0.9-0.9h19.7c0.5,0,0.9,0.4,0.9,0.9
			C25.7,14,25.3,14.4,24.8,14.4z"/>
	</g>
	<g>
		<path class="st2" d="M24.8,17.9H5.2c-0.5,0-0.9-0.4-0.9-0.9c0-0.5,0.4-0.9,0.9-0.9h19.7c0.5,0,0.9,0.4,0.9,0.9
			C25.7,17.5,25.3,17.9,24.8,17.9z"/>
	</g>
</g>
</svg>
