<?xml version="1.0" encoding="utf-8"?>
<!-- Generator: Adobe Illustrator 25.0.1, SVG Export Plug-In . SVG Version: 6.00 Build 0)  -->
<svg version="1.1" id="Layer_1" xmlns="http://www.w3.org/2000/svg" xmlns:xlink="http://www.w3.org/1999/xlink" x="0px" y="0px"
	 viewBox="0 0 30 30" style="enable-background:new 0 0 30 30;" xml:space="preserve">
<style type="text/css">
	.st0{fill:#57A0D7;}
	.st1{fill:#F3F4F2;}
	.st2{fill:#333333;}
</style>
<g>
	<g id="Color_7_">
		<g>
			<path class="st0" d="M26.3,1.7H3.7c-1.1,0-1.9,0.9-1.9,1.9v2.8c0,1.1,0.9,1.9,1.9,1.9h22.6c1.1,0,1.9-0.9,1.9-1.9V3.7
				C28.3,2.6,27.4,1.7,26.3,1.7z"/>
		</g>
		<g>
			<circle class="st1" cx="5.1" cy="15" r="3.3"/>
		</g>
		<g>
			<circle class="st1" cx="5.1" cy="24.9" r="3.3"/>
		</g>
	</g>
	<g id="regular_10_">
		<g>
			<path class="st2" d="M26.3,8.4H3.7c-1.1,0-1.9-0.9-1.9-1.9V3.7c0-1.1,0.9-1.9,1.9-1.9h22.6c1.1,0,1.9,0.9,1.9,1.9v2.8
				C28.3,7.5,27.4,8.4,26.3,8.4z M3.7,3.4c-0.2,0-0.3,0.1-0.3,0.3v2.8c0,0.2,0.1,0.3,0.3,0.3h22.6c0.2,0,0.3-0.1,0.3-0.3V3.7
				c0-0.2-0.1-0.3-0.3-0.3H3.7z"/>
		</g>
		<g>
			<path class="st2" d="M27.4,14.4h-16c-0.5,0-0.8-0.4-0.8-0.8s0.4-0.8,0.8-0.8h16c0.5,0,0.8,0.4,0.8,0.8S27.9,14.4,27.4,14.4z"/>
		</g>
		<g>
			<path class="st2" d="M27.4,17.8h-16c-0.5,0-0.8-0.4-0.8-0.8c0-0.5,0.4-0.8,0.8-0.8h16c0.5,0,0.8,0.4,0.8,0.8
				C28.3,17.4,27.9,17.8,27.4,17.8z"/>
		</g>
		<g>
			<path class="st2" d="M27.4,24.4h-16c-0.5,0-0.8-0.4-0.8-0.8c0-0.5,0.4-0.8,0.8-0.8h16c0.5,0,0.8,0.4,0.8,0.8
				C28.3,24,27.9,24.4,27.4,24.4z"/>
		</g>
		<g>
			<path class="st2" d="M27.4,27.7h-16c-0.5,0-0.8-0.4-0.8-0.8c0-0.5,0.4-0.8,0.8-0.8h16c0.5,0,0.8,0.4,0.8,0.8
				C28.3,27.3,27.9,27.7,27.4,27.7z"/>
		</g>
		<g>
			<path class="st2" d="M5.1,18.3c-1.8,0-3.3-1.5-3.3-3.3s1.5-3.3,3.3-3.3s3.3,1.5,3.3,3.3S6.9,18.3,5.1,18.3z M5.1,13.3
				c-0.9,0-1.7,0.7-1.7,1.7s0.7,1.7,1.7,1.7s1.7-0.7,1.7-1.7S6,13.3,5.1,13.3z"/>
		</g>
		<g>
			<path class="st2" d="M5.1,28.3c-1.8,0-3.3-1.5-3.3-3.3c0-1.8,1.5-3.3,3.3-3.3s3.3,1.5,3.3,3.3C8.4,26.8,6.9,28.3,5.1,28.3z
				 M5.1,23.3c-0.9,0-1.7,0.7-1.7,1.7c0,0.9,0.7,1.7,1.7,1.7s1.7-0.7,1.7-1.7C6.7,24,6,23.3,5.1,23.3z"/>
		</g>
	</g>
</g>
</svg>
