<?xml version="1.0" encoding="utf-8"?>
<!-- Generator: Adobe Illustrator 25.0.1, SVG Export Plug-In . SVG Version: 6.00 Build 0)  -->
<svg version="1.1" id="Layer_1" xmlns="http://www.w3.org/2000/svg" xmlns:xlink="http://www.w3.org/1999/xlink" x="0px" y="0px"
	 viewBox="0 0 38.7 38.7" style="enable-background:new 0 0 38.7 38.7;" xml:space="preserve">
<style type="text/css">
	.st0{fill:#57A0D7;}
</style>
<g>
	<g>
		<path class="st0" d="M34.4,7.9l-7.1-7.1c-0.2-0.2-0.5-0.3-0.8-0.3H7.5C5.6,0.4,4,2,4,4v30.7c0,2,1.6,3.5,3.5,3.5h23.6
			c2,0,3.5-1.6,3.5-3.5v-26C34.7,8.4,34.6,8.1,34.4,7.9z M32.3,34.7c0,0.7-0.5,1.2-1.2,1.2H7.5c-0.7,0-1.2-0.5-1.2-1.2V4
			c0-0.7,0.5-1.2,1.2-1.2h17.7v4.7c0,1.3,1.1,2.4,2.4,2.4h4.7V34.7z"/>
	</g>
</g>
</svg>
