<?xml version="1.0" encoding="utf-8"?>
<!-- Generator: Adobe Illustrator 25.0.1, SVG Export Plug-In . SVG Version: 6.00 Build 0)  -->
<svg version="1.1" id="Layer_1" xmlns="http://www.w3.org/2000/svg" xmlns:xlink="http://www.w3.org/1999/xlink" x="0px" y="0px"
	 viewBox="0 0 30 30" style="enable-background:new 0 0 30 30;" xml:space="preserve">
<style type="text/css">
	.st0{fill:#333333;}
	.st1{fill:#57A0D7;}
</style>
<g id="XMLID_21_">
	<path id="XMLID_28_" class="st0" d="M15,2.2c-0.7,0-1.2,0.5-1.2,1.2v4.9c0,0.7,0.5,1.2,1.2,1.2s1.2-0.5,1.2-1.2V3.4
		C16.2,2.7,15.7,2.2,15,2.2z"/>
	<path id="XMLID_27_" class="st0" d="M15,22.9c-0.7,0-1.2,0.5-1.2,1.2v2.4c0,0.7,0.5,1.2,1.2,1.2s1.2-0.5,1.2-1.2v-2.4
		C16.2,23.5,15.7,22.9,15,22.9z"/>
	<path id="XMLID_26_" class="st0" d="M27.2,14.4h-4.9c-0.7,0-1.2,0.5-1.2,1.2c0,0.7,0.5,1.2,1.2,1.2h4.9c0.7,0,1.2-0.5,1.2-1.2
		C28.4,14.9,27.9,14.4,27.2,14.4z"/>
	<path id="XMLID_25_" class="st0" d="M8.9,15.6c0-0.7-0.5-1.2-1.2-1.2H2.8c-0.7,0-1.2,0.5-1.2,1.2c0,0.7,0.5,1.2,1.2,1.2h4.9
		C8.4,16.8,8.9,16.3,8.9,15.6z"/>
	<path id="XMLID_24_" class="st0" d="M24.5,6.1c-0.5-0.5-1.2-0.5-1.7,0l-3.5,3.5c-0.5,0.5-0.5,1.2,0,1.7c0.2,0.2,0.6,0.4,0.9,0.4
		c0.3,0,0.6-0.1,0.9-0.4l3.5-3.5C25,7.4,25,6.6,24.5,6.1z"/>
	<path id="XMLID_23_" class="st0" d="M9,19.9l-3.5,3.5c-0.5,0.5-0.5,1.2,0,1.7c0.2,0.2,0.6,0.4,0.9,0.4c0.3,0,0.6-0.1,0.9-0.4
		l3.5-3.5c0.5-0.5,0.5-1.2,0-1.7C10.2,19.4,9.4,19.4,9,19.9z"/>
	<path id="XMLID_22_" class="st1" d="M7.2,6.1C6.8,5.6,6,5.6,5.5,6.1C5,6.6,5,7.4,5.5,7.8L9,11.3c0.2,0.2,0.6,0.4,0.9,0.4
		c0.3,0,0.6-0.1,0.9-0.4c0.5-0.5,0.5-1.2,0-1.7L7.2,6.1z"/>
</g>
</svg>
