<?xml version="1.0" encoding="utf-8"?>
<!-- Generator: Adobe Illustrator 25.0.1, SVG Export Plug-In . SVG Version: 6.00 Build 0)  -->
<svg version="1.1" id="Layer_1" xmlns="http://www.w3.org/2000/svg" xmlns:xlink="http://www.w3.org/1999/xlink" x="0px" y="0px"
	 viewBox="0 0 10 10" style="enable-background:new 0 0 10 10;" xml:space="preserve">
<style type="text/css">
	.st0{fill:#FFFFFF;}
</style>
<path class="st0" d="M8,4.4H7.4V2.6c0-1.3-1.1-2.4-2.4-2.4S2.6,1.3,2.6,2.6v1.8H2C1.7,4.4,1.4,4.7,1.4,5v4.2c0,0.3,0.3,0.6,0.6,0.6
	H8c0.3,0,0.6-0.3,0.6-0.6V5C8.6,4.7,8.3,4.4,8,4.4z M5.3,7.3V8c0,0.2-0.1,0.3-0.3,0.3S4.7,8.1,4.7,8V7.3C4.5,7.2,4.4,7,4.4,6.8
	c0-0.3,0.3-0.6,0.6-0.6s0.6,0.3,0.6,0.6C5.6,7,5.5,7.2,5.3,7.3z M3.8,4.4V2.6C3.8,2,4.3,1.4,5,1.4S6.2,2,6.2,2.6v1.8H3.8z"/>
</svg>
