<?xml version="1.0" encoding="utf-8"?>
<!-- Generator: Adobe Illustrator 25.0.1, SVG Export Plug-In . SVG Version: 6.00 Build 0)  -->
<svg version="1.1" id="Layer_1" xmlns="http://www.w3.org/2000/svg" xmlns:xlink="http://www.w3.org/1999/xlink" x="0px" y="0px"
	 viewBox="0 0 30 30" style="enable-background:new 0 0 30 30;" xml:space="preserve">
<style type="text/css">
	.st0{fill:#F3F4F2;}
	.st1{fill:#57A0D7;}
	.st2{fill:#D5DBE1;}
	.st3{fill:#4394C6;}
	.st4{fill:#333333;}
</style>
<g>
	<g id="color_8_">
		<g>
			<path class="st0" d="M23.2,5.7h-3.3H6.7H3.4c-0.6,0-1.1,0.5-1.1,1.1v3.3v16.5c0,0.6,0.5,1.1,1.1,1.1h19.8c0.6,0,1.1-0.5,1.1-1.1
				V10.1V6.8C24.3,6.2,23.8,5.7,23.2,5.7z"/>
		</g>
		<g>
			<circle class="st1" cx="24" cy="6" r="3.7"/>
		</g>
	</g>
	<g id="shadow_8_">
		<g>
			<path class="st2" d="M4.9,26.6V10.1V6.8c0-0.6,0.5-1.1,1.1-1.1H3.4c-0.6,0-1.1,0.5-1.1,1.1v3.3v16.5c0,0.6,0.5,1.1,1.1,1.1H6
				C5.3,27.7,4.9,27.2,4.9,26.6z"/>
		</g>
		<g>
			<path class="st3" d="M22.9,6c0-1.6,1-2.9,2.4-3.4c-0.4-0.1-0.8-0.2-1.3-0.2c-2,0-3.7,1.6-3.7,3.7S22,9.6,24,9.6
				c0.4,0,0.9-0.1,1.3-0.2C23.9,8.9,22.9,7.6,22.9,6z"/>
		</g>
	</g>
	<g id="regular_11_">
		<g>
			<path class="st4" d="M24,10.5c-2.5,0-4.5-2-4.5-4.5s2-4.5,4.5-4.5s4.5,2,4.5,4.5S26.5,10.5,24,10.5z M24,3.2
				c-1.6,0-2.8,1.3-2.8,2.8s1.3,2.8,2.8,2.8c1.6,0,2.8-1.3,2.8-2.8S25.6,3.2,24,3.2z"/>
		</g>
		<g>
			<path class="st4" d="M5.7,12.7h15.2v1.7H5.7V12.7z"/>
		</g>
		<g>
			<path class="st4" d="M5.7,9.4h10.7v1.7H5.7V9.4z"/>
		</g>
		<g>
			<path class="st4" d="M5.7,16.1h15.2v1.7H5.7V16.1z"/>
		</g>
		<g>
			<path class="st4" d="M5.7,19.5h15.2v1.7H5.7V19.5z"/>
		</g>
		<g>
			<path class="st4" d="M5.7,22.9h15.2v1.7H5.7V22.9z"/>
		</g>
		<g>
			<path class="st4" d="M23.2,28.5H3.4c-1.1,0-1.9-0.9-1.9-1.9V6.8c0-1.1,0.9-1.9,1.9-1.9h16.5v1.7H3.4c-0.1,0-0.3,0.1-0.3,0.3v19.8
				c0,0.1,0.1,0.3,0.3,0.3h19.8c0.1,0,0.3-0.1,0.3-0.3V10.1h1.7v16.5C25.1,27.6,24.3,28.5,23.2,28.5L23.2,28.5z"/>
		</g>
	</g>
</g>
</svg>
