<?xml version="1.0" encoding="utf-8"?>
<!-- Generator: Adobe Illustrator 25.4.1, SVG Export Plug-In . SVG Version: 6.00 Build 0)  -->
<svg version="1.1" id="Layer_1" xmlns="http://www.w3.org/2000/svg" xmlns:xlink="http://www.w3.org/1999/xlink" x="0px" y="0px"
	 viewBox="0 0 38.8 38.8" style="enable-background:new 0 0 38.8 38.8;" xml:space="preserve">
<style type="text/css">
	.st0{fill:#FFFFFF;}
</style>
<g>
	<path class="st0" d="M27.2,28.8c-0.1,0.1-0.1,0.1-0.2,0.2c-0.2,0-0.4-0.1-0.5-0.2c-1-0.7-2-1.5-3-2.2c-0.4-0.3-0.6-0.7-0.7-1.2
		c0-0.3-0.1-0.4-0.4-0.4c-1.9,0-3.9,0-5.8,0c-0.3,0-0.4,0-0.4,0.4c-0.1,0.4-0.2,0.8-0.6,1.1c-1.1,0.8-2.1,1.6-3.2,2.3
		c-0.2,0.1-0.3,0.2-0.5,0.1c0,0,0,0-0.1-0.1c0-0.2-0.1-0.3-0.1-0.5c0-2.5,0-5,0-7.5c0-0.6,0.3-1.1,0.8-1.4c0.3-0.2,0.6-0.4,1-0.6
		s0.5-0.5,0.5-0.9c0.1-1.9,0.3-3.7,0.8-5.5c0.4-1.6,0.9-3.2,1.7-4.7c0.4-0.7,0.9-1.4,1.6-1.9c0.8-0.6,1.8-0.7,2.6-0.2
		c0.6,0.3,1,0.8,1.4,1.4c0.7,1,1.3,2.2,1.7,3.4c0.9,2.6,1.3,5.2,1.4,7.9c0,0.2,0.1,0.4,0.3,0.5c0.3,0.2,0.7,0.4,1,0.6
		c0.5,0.3,0.8,0.8,0.8,1.4c0,2.3,0,4.7,0,7C27.2,28.2,27.2,28.5,27.2,28.8z M21.1,10.7c-0.9-0.9-2.4-0.9-3.3,0s-0.9,2.4,0,3.3
		s2.4,0.9,3.4,0C22.1,13.1,22.1,11.6,21.1,10.7z"/>
	<path class="st0" d="M19.2,33.2c-0.1-0.2-0.3-0.4-0.4-0.7c-0.8-1.6-1.3-3.2-1.5-4.9c0-0.2,0-0.5-0.1-0.7c0-0.2,0.1-0.3,0.3-0.4
		c0.1,0,0.2,0,0.3,0c1.1,0,2.2,0,3.3,0c0.1,0,0.1,0,0.2,0c0.3,0,0.4,0.1,0.4,0.4c0,1.4-0.4,2.6-0.9,3.8c-0.4,0.8-0.7,1.7-1,2.5
		C19.6,33.5,19.6,33.5,19.2,33.2z"/>
</g>
</svg>
