<?xml version="1.0" encoding="utf-8"?>
<!-- Generator: Adobe Illustrator 25.0.1, SVG Export Plug-In . SVG Version: 6.00 Build 0)  -->
<svg version="1.1" id="Layer_1" xmlns="http://www.w3.org/2000/svg" xmlns:xlink="http://www.w3.org/1999/xlink" x="0px" y="0px"
	 viewBox="0 0 40 40" style="enable-background:new 0 0 40 40;" xml:space="preserve">
<style type="text/css">
	.st0{fill:#C4C2C2;}
</style>
<g>
	<g>
		<path class="st0" d="M20,32.2c-8.6-0.3-15.1-4.1-19.3-11.7c-0.1-0.3-0.1-0.7,0-1C5.1,11.3,12.1,7.3,21.3,7.8
			c8.1,0.4,14.1,4.6,18,11.7c0.1,0.2,0.1,0.7,0,0.9c-3.3,6.3-8.5,10.1-15.5,11.4C23,32,22.2,32,21.4,32.1
			C20.9,32.2,20.5,32.2,20,32.2z M28.5,20c0-4.8-3.8-8.6-8.6-8.5c-4.8,0-8.6,3.8-8.5,8.6c0,4.7,3.8,8.5,8.5,8.5
			C24.7,28.5,28.5,24.7,28.5,20z M28.7,26.8c3-1.6,5.3-3.8,7-6.5c0.1-0.2,0.1-0.6-0.1-0.8c-0.6-0.9-1.2-1.7-1.9-2.5
			c-1.4-1.6-3-2.8-5-3.9C31.7,17.7,31.8,22.2,28.7,26.8z M11.3,26.9c-3.1-4.6-3.1-9.1-0.1-13.7c-3,1.6-5.3,3.8-6.9,6.5
			c-0.1,0.2-0.1,0.6,0.1,0.8C6.1,23.1,8.3,25.2,11.3,26.9z"/>
		<path class="st0" d="M22.3,20.4c-1.6,0-2.9-1.3-2.9-2.9c0-1,0.5-1.8,1.2-2.3c-0.2,0-0.4,0-0.7,0c-2.7,0-4.9,2.2-4.9,4.9
			s2.2,4.9,4.9,4.9s4.9-2.2,4.9-4.9c0-0.3,0-0.7-0.1-1C24.3,19.8,23.4,20.4,22.3,20.4z"/>
	</g>
</g>
</svg>
