<?xml version="1.0" encoding="utf-8"?>
<!-- Generator: Adobe Illustrator 25.0.1, SVG Export Plug-In . SVG Version: 6.00 Build 0)  -->
<svg version="1.1" id="Layer_1" xmlns="http://www.w3.org/2000/svg" xmlns:xlink="http://www.w3.org/1999/xlink" x="0px" y="0px"
	 viewBox="0 0 30 30" style="enable-background:new 0 0 30 30;" xml:space="preserve">
<style type="text/css">
	.st0{fill:#333333;}
	.st1{fill:#57A0D7;}
	.st2{fill:#F7F8F9;}
</style>
<g>
	<g>
		<path class="st0" d="M26.5,5c0.4,2.5-1.8,4.7-4.3,4.3c-1.6-0.2-2.9-1.5-3.1-3.1c-0.4-2.5,1.8-4.7,4.3-4.3
			C24.9,2.1,26.2,3.4,26.5,5z"/>
		<path class="st0" d="M24,10.1c-3.5,0.9-6.6-2.2-5.7-5.7c0.4-1.5,1.7-2.8,3.2-3.2c3.5-0.9,6.6,2.2,5.7,5.7
			C26.8,8.4,25.6,9.7,24,10.1z M23.3,2.8c-2-0.4-3.8,1.4-3.4,3.4c0.2,1.1,1.1,2.1,2.3,2.3c2,0.4,3.8-1.4,3.4-3.4
			C25.4,3.9,24.5,3,23.3,2.8z"/>
		<path class="st0" d="M26.5,23.5c0.4,2.5-1.8,4.7-4.3,4.3c-1.6-0.2-2.9-1.5-3.1-3.1c-0.4-2.5,1.8-4.7,4.3-4.3
			C24.9,20.6,26.2,21.9,26.5,23.5z"/>
		<path class="st0" d="M24,28.6c-3.5,0.9-6.6-2.2-5.7-5.7c0.4-1.5,1.7-2.8,3.2-3.2c3.5-0.9,6.6,2.2,5.7,5.7
			C26.8,26.9,25.6,28.2,24,28.6z M23.3,21.3c-2-0.4-3.8,1.4-3.4,3.4c0.2,1.1,1.1,2.1,2.3,2.3c2,0.4,3.8-1.4,3.4-3.4
			C25.4,22.4,24.5,21.5,23.3,21.3z"/>
		<path class="st0" d="M10.3,14.3c0.4,2.5-1.8,4.7-4.3,4.3c-1.6-0.2-2.9-1.5-3.1-3.1c-0.4-2.5,1.8-4.7,4.3-4.3
			C8.7,11.4,10,12.7,10.3,14.3z"/>
		<path class="st0" d="M7.8,19.3c-3.5,0.9-6.6-2.2-5.7-5.7c0.4-1.5,1.7-2.8,3.2-3.2c3.5-0.9,6.6,2.2,5.7,5.7
			C10.6,17.7,9.4,18.9,7.8,19.3z M7.1,12c-2-0.4-3.8,1.4-3.4,3.4C4,16.6,4.9,17.5,6,17.7c2,0.4,3.8-1.4,3.4-3.4
			C9.2,13.2,8.3,12.2,7.1,12z"/>
		<path class="st0" d="M9.3,14.3c-0.4,0-0.8-0.2-1-0.6c-0.3-0.6-0.1-1.3,0.4-1.6L19.5,6C20,5.7,20.7,5.9,21,6.5
			C21.4,7,21.2,7.7,20.6,8L9.9,14.2C9.7,14.3,9.5,14.3,9.3,14.3z"/>
		<path class="st0" d="M20,23.9c-0.2,0-0.4,0-0.6-0.2L8.7,17.6c-0.6-0.3-0.7-1-0.4-1.6c0.3-0.6,1-0.8,1.6-0.4l10.7,6.1
			c0.6,0.3,0.7,1,0.4,1.6C20.8,23.6,20.4,23.9,20,23.9z"/>
	</g>
	<g>
		<path class="st1" d="M22.8,9.4c1.9,0,3.5-1.6,3.5-3.5s-1.6-3.5-3.5-3.5S19.3,4,19.3,5.9S20.8,9.4,22.8,9.4z"/>
		<path class="st0" d="M22.8,11.2c2.9,0,5.3-2.4,5.3-5.3c0-2.9-2.4-5.3-5.3-5.3S17.5,3,17.5,5.9C17.5,8.8,19.8,11.2,22.8,11.2z
			 M22.8,2.4c1.9,0,3.5,1.6,3.5,3.5s-1.6,3.5-3.5,3.5s-3.5-1.6-3.5-3.5S20.8,2.4,22.8,2.4z"/>
	</g>
	<g>
		<path class="st2" d="M6.6,17.8c1.9,0,3.5-1.6,3.5-3.5s-1.6-3.5-3.5-3.5s-3.5,1.6-3.5,3.5S4.7,17.8,6.6,17.8z"/>
		<path class="st0" d="M6.6,19.6c2.9,0,5.3-2.4,5.3-5.3c0-2.9-2.4-5.3-5.3-5.3s-5.3,2.4-5.3,5.3C1.3,17.2,3.7,19.6,6.6,19.6z
			 M6.6,10.8c1.9,0,3.5,1.6,3.5,3.5s-1.6,3.5-3.5,3.5s-3.5-1.6-3.5-3.5S4.7,10.8,6.6,10.8z"/>
	</g>
	<g>
		<path class="st1" d="M23.4,27.6c1.9,0,3.5-1.6,3.5-3.5s-1.6-3.5-3.5-3.5S20,22.2,20,24.1S21.5,27.6,23.4,27.6z"/>
		<path class="st0" d="M23.4,29.4c2.9,0,5.3-2.4,5.3-5.3c0-2.9-2.4-5.3-5.3-5.3s-5.3,2.4-5.3,5.3C18.1,27,20.5,29.4,23.4,29.4z
			 M23.4,20.6c1.9,0,3.5,1.6,3.5,3.5s-1.6,3.5-3.5,3.5S20,26,20,24.1S21.5,20.6,23.4,20.6z"/>
	</g>
</g>
</svg>
