<?xml version="1.0" encoding="utf-8"?>
<!-- Generator: Adobe Illustrator 24.2.1, SVG Export Plug-In . SVG Version: 6.00 Build 0)  -->
<svg version="1.1" id="Layer_1" xmlns="http://www.w3.org/2000/svg" xmlns:xlink="http://www.w3.org/1999/xlink" x="0px" y="0px"
	 viewBox="0 0 9.5 9.5" style="enable-background:new 0 0 9.5 9.5;" xml:space="preserve">
<style type="text/css">
	.st0{fill:#3C4349;}
</style>
<path class="st0" d="M7.2,1.6c-1-0.7-2.1-1-3.4-0.7c-0.8,0.2-1.5,0.6-2,1.3c0,0-0.1,0.1-0.1,0.1l-0.1,0L1.6,1.9
	c0-0.2-0.1-0.4-0.1-0.7c0-0.1,0-0.1-0.1-0.1s-0.1,0-0.1,0l-0.1,0c-0.1,0-0.2,0-0.3,0.1c-0.1,0-0.1,0-0.2,0.1v0.1c0,0,0,0.1,0,0.1
	l0.4,2.3c0,0,0,0.1,0,0.1c0,0,0.1,0,0.1,0l2.4-0.4c0.1,0,0.1-0.1,0.1-0.2c0-0.2-0.1-0.3-0.1-0.5c0-0.1-0.1-0.2-0.2-0.1
	c-0.1,0-0.2,0-0.3,0.1L2.2,2.9l0.2-0.3c0.8-0.9,2.2-1.3,3.4-0.9c0.9,0.3,1.6,0.9,2,1.8C8,3.9,8.1,4.4,8,5c0,0.5-0.2,1-0.4,1.4
	C7.2,7,6.6,7.5,5.9,7.7C5.2,8,4.5,8,3.8,7.7c-0.9-0.3-1.5-1-1.9-1.9C1.8,5.7,1.8,5.5,1.7,5.3c0-0.1-0.1-0.1-0.1-0.1c0,0,0,0,0,0
	c-0.2,0-0.3,0.1-0.5,0.1c0,0-0.1,0-0.1,0c0,0,0,0.1,0,0.1C1.1,6.3,1.5,7,2.1,7.5c1.1,1,2.3,1.3,3.7,1c0.8-0.2,1.5-0.6,2.1-1.3
	c0.8-1,1.1-2.1,0.8-3.3C8.5,3,8,2.2,7.2,1.6z"/>
</svg>
