<?xml version="1.0" encoding="utf-8"?>
<!-- Generator: Adobe Illustrator 25.0.1, SVG Export Plug-In . SVG Version: 6.00 Build 0)  -->
<svg version="1.1" id="Layer_1" xmlns="http://www.w3.org/2000/svg" xmlns:xlink="http://www.w3.org/1999/xlink" x="0px" y="0px"
	 viewBox="0 0 30 30" style="enable-background:new 0 0 30 30;" xml:space="preserve">
<style type="text/css">
	.st0{fill:#333333;}
	.st1{fill:#57A0D7;}
	.st2{fill:#F7F8F9;}
</style>
<g>
	<g>
		<g>
			<g>
				<path class="st0" d="M28.3,6.4c0.4,0,0.8-0.4,0.8-0.8V2.3c0-0.4-0.4-0.8-0.8-0.8h-3.2c-0.4,0-0.8,0.4-0.8,0.8v0.8H6.5V2.3
					c0-0.4-0.4-0.8-0.8-0.8H2.5c-0.4,0-0.8,0.4-0.8,0.8v3.2c0,0.4,0.4,0.8,0.8,0.8h0.8v17.8H2.5c-0.4,0-0.8,0.4-0.8,0.8v3.2
					c0,0.4,0.4,0.8,0.8,0.8h3.2c0.4,0,0.8-0.4,0.8-0.8v-0.8h17.8v0.8c0,0.4,0.4,0.8,0.8,0.8h3.2c0.4,0,0.8-0.4,0.8-0.8v-3.2
					c0-0.4-0.4-0.8-0.8-0.8h-0.8V6.4H28.3z M25.9,24.1h-0.8c-0.4,0-0.8,0.4-0.8,0.8v0.8H6.5v-0.8c0-0.4-0.4-0.8-0.8-0.8H4.9V6.4h0.8
					c0.4,0,0.8-0.4,0.8-0.8V4.8h17.8v0.8c0,0.4,0.4,0.8,0.8,0.8h0.8V24.1z"/>
			</g>
		</g>
		<g>
			<g>
				<path class="st0" d="M20.3,9.3h-9.8c-0.4,0-0.7,0.3-0.7,0.7v2.8c0,0.3,0.2,0.5,0.4,0.6c0.3,0.1,0.6,0,0.8-0.2l1.2-1.2H14v8.2
					l-1.3,2c-0.1,0.2-0.2,0.5,0,0.7c0.1,0.2,0.4,0.4,0.6,0.4h4.2c0.3,0,0.5-0.1,0.6-0.4c0.1-0.2,0.1-0.5,0-0.7l-1.3-2v-8.2h1.8
					l1.2,1.2c0.2,0.2,0.5,0.3,0.8,0.2c0.3-0.1,0.4-0.4,0.4-0.6V10C21,9.6,20.7,9.3,20.3,9.3z"/>
			</g>
		</g>
	</g>
	<path class="st0" d="M7,8H1.5c-0.5,0-1-0.4-1-1V1.5c0-0.5,0.4-1,1-1H7c0.5,0,1,0.4,1,1v5.5C8,7.6,7.6,8,7,8z"/>
	<path class="st1" d="M5.9,6.5H2.6C2.3,6.5,2,6.2,2,5.9V2.7c0-0.3,0.3-0.6,0.6-0.6h3.3c0.3,0,0.6,0.3,0.6,0.6v3.3
		C6.5,6.2,6.2,6.5,5.9,6.5z"/>
	<path class="st0" d="M28.3,7.2h-3.4c-0.6,0-1.2-0.5-1.2-1.2V2.6c0-0.6,0.5-1.2,1.2-1.2h3.4c0.6,0,1.2,0.5,1.2,1.2V6
		C29.5,6.6,29,7.2,28.3,7.2z"/>
	<path class="st2" d="M27.4,6h-1.6c-0.5,0-0.9-0.4-0.9-0.9V3.5c0-0.5,0.4-0.9,0.9-0.9h1.6c0.5,0,0.9,0.4,0.9,0.9v1.6
		C28.3,5.6,27.9,6,27.4,6z"/>
	<path class="st0" d="M28.3,29.5h-3.4c-0.6,0-1.2-0.5-1.2-1.2v-3.4c0-0.6,0.5-1.2,1.2-1.2h3.4c0.6,0,1.2,0.5,1.2,1.2v3.4
		C29.5,28.9,29,29.5,28.3,29.5z"/>
	<path class="st2" d="M27.4,28.3h-1.6c-0.5,0-0.9-0.4-0.9-0.9v-1.6c0-0.5,0.4-0.9,0.9-0.9h1.6c0.5,0,0.9,0.4,0.9,0.9v1.6
		C28.3,27.9,27.9,28.3,27.4,28.3z"/>
	<path class="st0" d="M6,29.5H2.5c-0.6,0-1.2-0.5-1.2-1.2v-3.4c0-0.6,0.5-1.2,1.2-1.2H6c0.6,0,1.2,0.5,1.2,1.2v3.4
		C7.1,28.9,6.6,29.5,6,29.5z"/>
	<path class="st2" d="M5.1,28.3H3.5c-0.5,0-0.9-0.4-0.9-0.9v-1.6c0-0.5,0.4-0.9,0.9-0.9h1.6c0.5,0,0.9,0.4,0.9,0.9v1.6
		C6,27.9,5.6,28.3,5.1,28.3z"/>
</g>
</svg>
