<?xml version="1.0" encoding="utf-8"?>
<!-- Generator: Adobe Illustrator 25.0.1, SVG Export Plug-In . SVG Version: 6.00 Build 0)  -->
<svg version="1.1" id="Layer_1" xmlns="http://www.w3.org/2000/svg" xmlns:xlink="http://www.w3.org/1999/xlink" x="0px" y="0px"
	 viewBox="0 0 45 45" style="enable-background:new 0 0 45 45;" xml:space="preserve">
<style type="text/css">
	.st0{fill:#FFFFFF;}
	.st1{fill:#57A0D7;}
	.st2{fill:none;stroke:#333333;stroke-width:2;stroke-miterlimit:10;}
</style>
<path class="st0" d="M25.5,21.9h-0.6v-1.8c0-1.3-1.1-2.4-2.4-2.4s-2.4,1.1-2.4,2.4v1.8h-0.6c-0.3,0-0.6,0.3-0.6,0.6v4.2
	c0,0.3,0.3,0.6,0.6,0.6h5.9c0.3,0,0.6-0.3,0.6-0.6v-4.2C26.1,22.2,25.8,21.9,25.5,21.9z M22.8,24.8v0.7c0,0.2-0.1,0.3-0.3,0.3
	s-0.3-0.1-0.3-0.3v-0.7c-0.2-0.1-0.3-0.3-0.3-0.5c0-0.3,0.3-0.6,0.6-0.6s0.6,0.3,0.6,0.6C23.1,24.5,23,24.7,22.8,24.8z M21.3,21.9
	v-1.8c0-0.7,0.5-1.2,1.2-1.2s1.2,0.5,1.2,1.2v1.8H21.3z"/>
<g>
	<g>
		<path class="st1" d="M4,36.3h36.9c1.3,0,2.3-1,2.3-2.3c0-0.6-0.2-1.2-0.7-1.6l-9.2-9.2c-0.9-0.9-2.4-0.9-3.2,0l-3,3l-7.6-7.6
			c-0.9-0.9-2.4-0.9-3.2,0L2.4,32.4c-0.9,0.9-0.9,2.4,0,3.3C2.9,36.1,3.4,36.3,4,36.3z"/>
	</g>
	<g>
		<path class="st2" d="M4,36.3h36.9c1.3,0,2.3-1,2.3-2.3c0-0.6-0.2-1.2-0.7-1.6l-9.2-9.2c-0.9-0.9-2.4-0.9-3.2,0l-3,3l-7.6-7.6
			c-0.9-0.9-2.4-0.9-3.2,0L2.4,32.4c-0.9,0.9-0.9,2.4,0,3.3C2.9,36.1,3.4,36.3,4,36.3z"/>
		<circle class="st2" cx="34" cy="13.3" r="4.6"/>
	</g>
</g>
</svg>
