<?xml version="1.0" encoding="utf-8"?>
<!-- Generator: Adobe Illustrator 25.0.1, SVG Export Plug-In . SVG Version: 6.00 Build 0)  -->
<svg version="1.1" id="Layer_1" xmlns="http://www.w3.org/2000/svg" xmlns:xlink="http://www.w3.org/1999/xlink" x="0px" y="0px"
	 viewBox="0 0 26 26" style="enable-background:new 0 0 26 26;" xml:space="preserve">
<style type="text/css">
	.st0{fill:#9C5C8F;}
	.st1{fill:#FFFFFF;}
</style>
<g>
	<path class="st0" d="M2.9,5.7H23c1.3,0,2.3,1,2.3,2.3v7.7c0,1.3-1,2.3-2.3,2.3h-7.2l1,2.4l-4.3-2.4H3c-1.3,0-2.3-1-2.3-2.3V8
		C0.6,6.7,1.7,5.7,2.9,5.7z"/>
	<path class="st1" d="M2.1,7.8c0.1-0.2,0.4-0.3,0.6-0.3c0.5,0,0.8,0.2,0.9,0.7c0.3,2.1,0.7,3.9,1,5.3l2.2-4.2C7,8.9,7.2,8.7,7.5,8.7
		C8,8.7,8.2,9,8.4,9.5c0.3,1.3,0.6,2.5,1,3.4c0.3-2.5,0.7-4.4,1.3-5.5C10.8,7.2,11,7,11.3,7c0.2,0,0.4,0.1,0.6,0.2
		c0.2,0.2,0.3,0.3,0.3,0.6c0,0.2,0,0.3-0.1,0.5c-0.4,0.7-0.7,1.9-1,3.6c-0.3,1.6-0.3,2.9-0.3,3.8c0,0.3,0,0.5-0.1,0.7
		c-0.1,0.2-0.3,0.3-0.5,0.4c-0.3,0-0.5-0.1-0.8-0.4c-0.9-1-1.7-2.4-2.2-4.3c-0.7,1.3-1.1,2.2-1.4,2.9c-0.6,1.1-1.1,1.7-1.5,1.7
		c-0.3,0-0.5-0.2-0.7-0.7C3,14.7,2.5,12.2,1.9,8.4C1.9,8.2,1.9,7.9,2.1,7.8L2.1,7.8z M23.6,9.3c-0.4-0.6-0.9-1-1.6-1.2
		c-0.2,0-0.4-0.1-0.5-0.1c-1,0-1.7,0.5-2.4,1.5c-0.5,0.9-0.8,1.8-0.8,2.8c0,0.8,0.2,1.4,0.5,2c0.4,0.6,0.9,1,1.6,1.2
		c0.2,0,0.4,0.1,0.5,0.1c1,0,1.8-0.5,2.4-1.5c0.5-0.9,0.8-1.8,0.8-2.8C24.1,10.5,23.9,9.9,23.6,9.3L23.6,9.3z M22.4,12.1
		c-0.1,0.7-0.4,1.2-0.8,1.5c-0.3,0.3-0.6,0.4-0.8,0.3c-0.2-0.1-0.4-0.3-0.6-0.7c-0.1-0.3-0.2-0.6-0.2-0.9c0-0.3,0-0.5,0.1-0.7
		c0.1-0.4,0.3-0.8,0.5-1.2c0.3-0.5,0.7-0.7,1-0.6c0.2,0.1,0.4,0.3,0.6,0.7c0.1,0.3,0.2,0.6,0.2,0.9C22.4,11.6,22.4,11.9,22.4,12.1
		L22.4,12.1z M17.3,9.3c-0.4-0.6-0.9-1-1.6-1.2c-0.2,0-0.4-0.1-0.5-0.1c-1,0-1.7,0.5-2.4,1.5c-0.5,0.9-0.8,1.8-0.8,2.8
		c0,0.8,0.2,1.4,0.5,2c0.4,0.6,0.9,1,1.6,1.2c0.2,0,0.4,0.1,0.5,0.1c1,0,1.8-0.5,2.4-1.5c0.5-0.9,0.8-1.8,0.8-2.8
		C17.8,10.5,17.7,9.9,17.3,9.3L17.3,9.3z M16.1,12.1c-0.1,0.7-0.4,1.2-0.8,1.5c-0.3,0.3-0.6,0.4-0.8,0.3c-0.2-0.1-0.4-0.3-0.6-0.7
		c-0.1-0.3-0.2-0.6-0.2-0.9c0-0.3,0-0.5,0.1-0.7c0.1-0.4,0.3-0.8,0.5-1.2c0.3-0.5,0.7-0.7,1-0.6c0.2,0.1,0.4,0.3,0.6,0.7
		c0.1,0.3,0.2,0.6,0.2,0.9C16.2,11.6,16.1,11.9,16.1,12.1L16.1,12.1z"/>
</g>
</svg>
