<?xml version="1.0" encoding="UTF-8" standalone="no"?>
<svg width="300px" height="300px" viewBox="0 0 300 300" version="1.1" xmlns="http://www.w3.org/2000/svg" xmlns:xlink="http://www.w3.org/1999/xlink" xmlns:sketch="http://www.bohemiancoding.com/sketch/ns">
    <!-- Generator: Sketch 3.3.2 (12043) - http://www.bohemiancoding.com/sketch -->
    <title>Icon-white</title>
    <desc>Created with Sketch.</desc>
    <defs></defs>
    <g id="Home" stroke="none" stroke-width="1" fill="none" fill-rule="evenodd" sketch:type="MSPage">
        <g id="Icon-white" sketch:type="MSArtboardGroup" fill="#FFFFFF">
            <g id="Oval-5-+-Path-4" sketch:type="MSLayerGroup" transform="translate(3.000000, 1.000000)">
                <path d="M266.611524,131.578916 C269.034231,141.732016 270.317171,152.329102 270.317171,163.226622 C270.317171,206.420466 250.161616,244.894348 218.766014,269.709316 C195.762205,287.891441 166.724054,298.740627 135.158585,298.740627 C60.5125599,298.740627 0,238.068941 0,163.226622 C0,88.3843037 60.5125599,27.712617 135.158585,27.712617 C143.681391,27.712617 152.019949,28.5035465 160.105228,30.0161922 C159.94513,29.9943123 159.862865,29.9844175 159.862865,29.9844175 L133.908339,164.926797 L266.611524,131.578916 Z" id="Oval-5" sketch:type="MSShapeGroup"></path>
                <path d="M189.898106,-0.129805883 C189.898106,-0.129805883 274.344724,11.0692885 296.69425,102.01575 L163.94358,134.812573 L189.898106,-0.129805883 Z" id="Path-3" sketch:type="MSShapeGroup"></path>
            </g>
        </g>
    </g>
</svg>