<svg xmlns="http://www.w3.org/2000/svg" xmlns:xlink="http://www.w3.org/1999/xlink" id="Layer_1" x="0px" y="0px" width="42px" height="32px" viewBox="0 0 42 32" style="enable-background:new 0 0 42 32;" xml:space="preserve">
<style type="text/css">
	.st0{fill:#767A99;}
	.st1{fill:#EC4C50;}
</style>
<g>
	<path class="st0" d="M1.5,9h11C13.3,9,14,8.3,14,7.5v-6C14,0.7,13.3,0,12.5,0h-11C0.7,0,0,0.7,0,1.5v6C0,8.3,0.7,9,1.5,9z M1,1.5   C1,1.2,1.2,1,1.5,1h11C12.8,1,13,1.2,13,1.5v6C13,7.8,12.8,8,12.5,8h-11C1.2,8,1,7.8,1,7.5V1.5z"></path>
	<path class="st0" d="M31,7.5v-6C31,0.7,30.3,0,29.5,0h-11C17.7,0,17,0.7,17,1.5v6C17,8.3,17.7,9,18.5,9h11C30.3,9,31,8.3,31,7.5z    M18,7.5v-6C18,1.2,18.2,1,18.5,1h11C29.8,1,30,1.2,30,1.5v6C30,7.8,29.8,8,29.5,8h-11C18.2,8,18,7.8,18,7.5z"></path>
	<path class="st1" d="M35.5,1H41c0.3,0,0.5-0.2,0.5-0.5S41.3,0,41,0h-5.5C34.7,0,34,0.7,34,1.5v6C34,8.3,34.7,9,35.5,9H41   c0.3,0,0.5-0.2,0.5-0.5S41.3,8,41,8h-5.5C35.2,8,35,7.8,35,7.5v-6C35,1.2,35.2,1,35.5,1z"></path>
	<path class="st0" d="M40.5,12h-11c-0.8,0-1.5,0.7-1.5,1.5v5c0,0.8,0.7,1.5,1.5,1.5h11c0.8,0,1.5-0.7,1.5-1.5v-5   C42,12.7,41.3,12,40.5,12z M41,18.5c0,0.3-0.2,0.5-0.5,0.5h-11c-0.3,0-0.5-0.2-0.5-0.5v-5c0-0.3,0.2-0.5,0.5-0.5h11   c0.3,0,0.5,0.2,0.5,0.5V18.5z"></path>
	<path class="st1" d="M23.5,12h-11c-0.8,0-1.5,0.7-1.5,1.5v5c0,0.8,0.7,1.5,1.5,1.5h11c0.8,0,1.5-0.7,1.5-1.5v-5   C25,12.7,24.3,12,23.5,12z M24,18.5c0,0.3-0.2,0.5-0.5,0.5h-11c-0.3,0-0.5-0.2-0.5-0.5v-5c0-0.3,0.2-0.5,0.5-0.5h11   c0.3,0,0.5,0.2,0.5,0.5V18.5z"></path>
	<path class="st0" d="M6.5,19H1c-0.3,0-0.5,0.2-0.5,0.5S0.7,20,1,20h5.5C7.3,20,8,19.3,8,18.5v-5C8,12.7,7.3,12,6.5,12H1   c-0.3,0-0.5,0.2-0.5,0.5S0.7,13,1,13h5.5C6.8,13,7,13.2,7,13.5v5C7,18.8,6.8,19,6.5,19z"></path>
	<path class="st0" d="M1.5,32h11c0.8,0,1.5-0.7,1.5-1.5v-6c0-0.8-0.7-1.5-1.5-1.5h-11C0.7,23,0,23.7,0,24.5v6C0,31.3,0.7,32,1.5,32z    M1,24.5C1,24.2,1.2,24,1.5,24h11c0.3,0,0.5,0.2,0.5,0.5v6c0,0.3-0.2,0.5-0.5,0.5h-11C1.2,31,1,30.8,1,30.5V24.5z"></path>
	<path class="st0" d="M17,24.5v6c0,0.8,0.7,1.5,1.5,1.5h11c0.8,0,1.5-0.7,1.5-1.5v-6c0-0.8-0.7-1.5-1.5-1.5h-11   C17.7,23,17,23.7,17,24.5z M30,24.5v6c0,0.3-0.2,0.5-0.5,0.5h-11c-0.3,0-0.5-0.2-0.5-0.5v-6c0-0.3,0.2-0.5,0.5-0.5h11   C29.8,24,30,24.2,30,24.5z"></path>
	<path class="st1" d="M35.5,24H41c0.3,0,0.5-0.2,0.5-0.5S41.3,23,41,23h-5.5c-0.8,0-1.5,0.7-1.5,1.5v6c0,0.8,0.7,1.5,1.5,1.5H41   c0.3,0,0.5-0.2,0.5-0.5S41.3,31,41,31h-5.5c-0.3,0-0.5-0.2-0.5-0.5v-6C35,24.2,35.2,24,35.5,24z"></path>
</g>
</svg>