<svg xmlns="http://www.w3.org/2000/svg" xmlns:xlink="http://www.w3.org/1999/xlink" id="Layer_1" x="0px" y="0px" width="32px" height="32px" viewBox="0 0 32 32" style="enable-background:new 0 0 32 32;" xml:space="preserve">
<style type="text/css">
	.st0{fill:#EB4B50;}
	.st1{fill:#767A99;}
</style>
<path class="st0" d="M16.8,31.3H6.7c-0.9,0-1.5-0.6-1.5-1.5V19.6c0-0.9,0.6-1.5,1.5-1.5h10.2c0.9,0,1.5,0.6,1.5,1.5v10.2  C18.2,30.7,17.6,31.3,16.8,31.3z M6.7,19.1c-0.3,0-0.5,0.2-0.5,0.5v10.2c0,0.3,0.2,0.5,0.5,0.5h10.1c0.4,0,0.6-0.3,0.6-0.6l0-10.1  c0-0.3-0.2-0.5-0.5-0.5H6.7z"></path>
<path class="st0" d="M12.2,13.2h-10c-0.6,0-1.2-0.4-1.5-0.9c-0.3-0.5-0.2-1.1,0.1-1.6l5-8.6C6,1.6,6.6,1.3,7.2,1.3  c0.6,0,1.2,0.3,1.4,0.9l5,8.6c0.3,0.5,0.3,1.1,0.1,1.6C13.4,12.9,12.8,13.2,12.2,13.2z M7.2,2.3C7,2.3,6.7,2.4,6.6,2.6l-5,8.6  c-0.2,0.2-0.1,0.5,0,0.6c0.1,0.2,0.3,0.4,0.6,0.4h10c0.3,0,0.5-0.1,0.6-0.3c0.1-0.2,0.1-0.4,0-0.6l-5-8.6C7.7,2.4,7.4,2.3,7.2,2.3z"></path>
<path class="st1" d="M24.2,17.2c-4,0-7.3-3.3-7.3-7.3c0-4,3.3-7.3,7.3-7.3s7.3,3.3,7.3,7.3C31.5,13.9,28.2,17.2,24.2,17.2z   M24.2,3.6c-3.5,0-6.3,2.8-6.3,6.3c0,3.5,2.8,6.3,6.3,6.3s6.3-2.8,6.3-6.3C30.5,6.4,27.7,3.6,24.2,3.6z"></path>
</svg>