<svg xmlns="http://www.w3.org/2000/svg" xmlns:xlink="http://www.w3.org/1999/xlink" id="Layer_1" x="0px" y="0px" width="32px" height="32px" viewBox="0 0 32 32" style="enable-background:new 0 0 32 32;" xml:space="preserve">
<style type="text/css">
	.st0{fill:#767A99;}
	.st1{fill:#EB4B50;}
</style>
<g>
	<path class="st0" d="M30.5,0h-29C0.7,0,0,0.7,0,1.5v8C0,10.3,0.7,11,1.5,11h29c0.8,0,1.5-0.7,1.5-1.5v-8C32,0.7,31.3,0,30.5,0z    M31,9.5c0,0.3-0.2,0.5-0.5,0.5h-29C1.2,10,1,9.8,1,9.5v-8C1,1.2,1.2,1,1.5,1h29C30.8,1,31,1.2,31,1.5V9.5z"></path>
	<path class="st0" d="M31.5,12.5c-0.3,0-0.5,0.2-0.5,0.5v17.5c0,0.3-0.2,0.5-0.5,0.5h-29C1.2,31,1,30.8,1,30.5V13   c0-0.3-0.2-0.5-0.5-0.5S0,12.7,0,13v17.5C0,31.3,0.7,32,1.5,32h29c0.8,0,1.5-0.7,1.5-1.5V13C32,12.7,31.8,12.5,31.5,12.5z"></path>
	<path class="st1" d="M13.5,27c0.8,0,1.5-0.7,1.5-1.5v-8c0-0.8-0.7-1.5-1.5-1.5h-8C4.7,16,4,16.7,4,17.5v8C4,26.3,4.7,27,5.5,27   H13.5z M5,25.5v-8C5,17.2,5.2,17,5.5,17h8c0.3,0,0.5,0.2,0.5,0.5v8c0,0.3-0.2,0.5-0.5,0.5h-8C5.2,26,5,25.8,5,25.5z"></path>
	<path class="st1" d="M18,18h9c0.3,0,0.5-0.2,0.5-0.5S27.3,17,27,17h-9c-0.3,0-0.5,0.2-0.5,0.5S17.7,18,18,18z"></path>
	<path class="st1" d="M18,22h9c0.3,0,0.5-0.2,0.5-0.5S27.3,21,27,21h-9c-0.3,0-0.5,0.2-0.5,0.5S17.7,22,18,22z"></path>
	<path class="st1" d="M18,26h9c0.3,0,0.5-0.2,0.5-0.5S27.3,25,27,25h-9c-0.3,0-0.5,0.2-0.5,0.5S17.7,26,18,26z"></path>
</g>
</svg>