<?xml version="1.0" encoding="UTF-8"?>
<svg id="Layer_1" data-name="Layer 1" xmlns="http://www.w3.org/2000/svg" viewBox="0 0 136 60">
  <defs>
    <style>
      .cls-1 {
        fill: #0f92d4;
      }

      .cls-2 {
        fill: #494b52;
      }
    </style>
  </defs>
  <g id="a">
    <g>
      <path class="cls-1" d="m27.09,29.51v-7.24s-9.41-5.43-9.41-5.43c-1.98-1.14-4.41-1.14-6.39,0L1.88,22.27v14.47h0l2.5,1.45h0v-6.5l4.3,2.47h0v-2.91l-4.3-2.45v-3.61l7.24,4.14v-2.9l-6-3.43,6.94-4.01c1.19-.69,2.65-.69,3.84,0l6.92,4-6.96,3.99h0s-1.88,1.09-1.88,1.09v2.89l1.45-.84.43-.25h0l5.11-2.93,3.1-1.78v10.14s-10.1,5.83-10.1,5.83l-5.8-3.35h0l-1.4-.81v2.89l7.2,4.16,12.61-7.28h0v-7.24s0,0,0,0Z"/>
      <path class="cls-2" d="m34.1,36.53h2.55v-6.11h4.68v-2.16h-4.68v-3.58h6.62v-2.16h-9.17v14.02h0Zm16.35-2.02c-.16.04-.41.07-.74.1s-.64.04-.94.04c-.82,0-1.4-.24-1.73-.73-.33-.49-.5-1.29-.5-2.43v-5.54h-2.45v5.93c0,.72.07,1.37.22,1.97s.39,1.12.74,1.55c.34.43.8.77,1.38,1.01.57.24,1.28.36,2.13.36.9,0,1.73-.07,2.49-.19.75-.13,1.37-.25,1.84-.38v-10.26h-2.45v8.56h0Zm10.14-8.67c-.22-.03-.43-.06-.65-.08-.22-.02-.4-.03-.57-.03-.86,0-1.65.08-2.36.23-.71.16-1.3.32-1.77.5v10.07h2.45v-8.48c.12-.04.33-.09.64-.14.3-.05.59-.08.86-.08.47,0,.89.04,1.24.11.36.07.64.15.84.21l.42-2.06c-.12-.04-.28-.08-.49-.13-.2-.05-.41-.09-.63-.12h0Zm7.01-.11c-.82,0-1.56.13-2.21.38-.65.26-1.2.61-1.65,1.07-.45.46-.8,1.01-1.03,1.66-.24.65-.35,1.36-.35,2.12,0,.82.11,1.55.33,2.17s.53,1.15.93,1.57c.4.42.88.74,1.44.95.56.22,1.18.32,1.85.32.51,0,.97-.06,1.37-.18.4-.12.72-.24.96-.36v.4c0,.8-.21,1.4-.63,1.8-.42.4-1.12.61-2.1.61-.62,0-1.2-.05-1.73-.16-.53-.11-1.01-.25-1.43-.42l-.44,2.08c.5.18,1.06.32,1.67.43s1.24.16,1.89.16c1.77,0,3.08-.39,3.93-1.17.86-.78,1.28-2.02,1.28-3.7v-9.16c-.5-.13-1.11-.26-1.82-.38-.71-.12-1.47-.18-2.27-.18h0Zm1.64,7.69c-.22.15-.5.28-.84.38-.34.11-.71.16-1.1.16-.71,0-1.3-.24-1.75-.72-.45-.48-.68-1.24-.68-2.28,0-.96.24-1.73.71-2.32.47-.59,1.15-.88,2.04-.88.39,0,.71.02.97.05.26.03.47.07.65.11,0,0,0,5.48,0,5.48Zm12.97-6.21c-.44-.49-.98-.86-1.61-1.12-.63-.26-1.31-.39-2.05-.39s-1.42.13-2.04.39c-.62.26-1.16.64-1.61,1.12-.45.49-.8,1.07-1.05,1.75-.25.68-.37,1.44-.37,2.28s.12,1.6.37,2.29c.25.69.6,1.27,1.04,1.76.44.49.98.86,1.6,1.13.62.27,1.31.4,2.06.4s1.45-.13,2.07-.4c.63-.27,1.16-.65,1.61-1.13.44-.49.79-1.07,1.03-1.76.24-.69.36-1.45.36-2.29s-.12-1.59-.37-2.28c-.25-.68-.6-1.26-1.04-1.75Zm-1.77,6.55c-.45.62-1.08.93-1.89.93s-1.44-.31-1.89-.93c-.45-.62-.68-1.46-.68-2.53s.23-1.88.68-2.5c.45-.61,1.08-.92,1.89-.92s1.44.31,1.89.92c.45.61.68,1.45.68,2.5s-.23,1.91-.68,2.53Zm12.87-6.69c-.34-.42-.81-.75-1.39-.99-.58-.24-1.3-.35-2.16-.35-.92,0-1.75.06-2.51.18-.76.12-1.37.25-1.84.38v10.24h2.45v-8.54c.16-.03.41-.06.75-.1.34-.04.66-.06.97-.06.42,0,.77.06,1.06.17.29.11.52.3.69.55.17.25.29.57.36.97.07.4.11.88.11,1.45v5.56h2.45v-5.95c0-.71-.07-1.37-.21-1.97-.14-.6-.39-1.11-.73-1.54h0Zm7.57-1.39c-.62,0-1.23.12-1.82.35-.59.24-1.12.59-1.58,1.05-.46.47-.83,1.05-1.1,1.75-.28.7-.41,1.52-.41,2.45,0,.8.11,1.53.32,2.2.22.67.55,1.25.99,1.74.44.49,1.01.88,1.7,1.15.69.28,1.5.41,2.43.41.36,0,.72-.02,1.07-.06.35-.04.68-.09.98-.15.3-.06.57-.13.81-.2.24-.08.42-.15.56-.21l-.32-2c-.28.12-.67.24-1.16.34-.49.11-1.04.16-1.63.16-1.01,0-1.78-.23-2.32-.7-.53-.47-.83-1.12-.9-1.97h6.98c.01-.13.02-.29.03-.45,0-.17,0-.32,0-.45,0-1.79-.41-3.14-1.22-4.05-.82-.9-1.95-1.36-3.41-1.36h0Zm-2.37,4.51c.04-.31.12-.61.22-.91.11-.3.26-.56.45-.79.2-.23.44-.41.72-.56s.61-.21.99-.21.68.06.94.19c.26.13.49.3.67.53.18.22.32.49.41.79.09.3.14.62.14.96h-4.55Zm14.24,4.33c-.34.09-.74.14-1.18.14-.65,0-1.11-.18-1.38-.55-.27-.36-.41-.97-.41-1.82v-4.31h3.76v-2.04h-3.76v-3.2l-2.45.4v9.16c0,.7.06,1.33.18,1.87.12.55.33,1.01.63,1.4.3.38.7.68,1.2.88.5.2,1.14.3,1.89.3.62,0,1.16-.07,1.62-.19.46-.13.83-.25,1.11-.38l-.4-1.94c-.2.08-.48.17-.82.26h0Zm10.17-1.11c-.42-.54-.85-1.05-1.29-1.53-.44-.48-.87-.89-1.27-1.22.75-.77,1.5-1.56,2.25-2.37s1.46-1.59,2.13-2.35h-2.89c-.22.26-.48.56-.78.9-.3.34-.62.7-.96,1.07-.34.37-.68.74-1.03,1.11-.35.37-.68.72-.99,1.04v-9.24l-2.45.4v15.29h2.45v-4.86c.36.27.73.6,1.11.98.38.38.75.79,1.11,1.22.36.43.7.88,1.02,1.34.32.46.6.9.84,1.31h2.83c-.24-.46-.55-.96-.91-1.5-.36-.54-.75-1.08-1.17-1.62h0Zm10.98-5.25c-.14-.52-.38-.96-.71-1.33-.33-.36-.77-.65-1.33-.85s-1.23-.3-2.04-.3c-.67,0-1.31.05-1.9.16-.59.11-1.05.22-1.36.32l.3,1.98c.3-.11.68-.2,1.15-.28.47-.08.99-.12,1.56-.12.42,0,.77.05,1.04.16.28.11.5.26.67.45.17.2.29.42.35.68.07.26.1.53.1.81v.4c-.34-.08-.65-.14-.95-.17s-.58-.05-.85-.05c-.58,0-1.14.06-1.67.17-.53.11-1,.3-1.41.57s-.73.6-.96,1.02c-.24.42-.35.93-.35,1.54s.1,1.17.31,1.6c.21.43.5.78.87,1.05.37.27.82.47,1.34.59.53.12,1.11.18,1.74.18.96,0,1.82-.06,2.58-.17.76-.12,1.33-.21,1.71-.29v-6.41c0-.62-.07-1.19-.21-1.71h0Zm-2.15,6.52c-.39.08-.96.12-1.72.12-.62,0-1.11-.11-1.48-.33-.36-.22-.55-.62-.55-1.2,0-.3.07-.54.2-.74.13-.19.31-.35.54-.45.22-.11.47-.18.75-.22.28-.04.55-.06.82-.06.31,0,.59.02.85.06.26.04.45.08.59.12v2.71h0Z"/>
    </g>
  </g>
</svg>