<svg width="24" height="26" viewBox="0 0 24 26" fill="none" xmlns="http://www.w3.org/2000/svg">
<g clip-path="url(#clip0_2_223)">
<path d="M23.3775 12.5421V5.82978L14.6541 0.794875C12.8209 -0.264958 10.5594 -0.264958 8.72624 0.794875L0 5.82978V19.2516L2.32273 20.5923V14.5644L6.30893 16.8509V14.1471L2.32273 11.8744V8.52804L9.03501 12.3724V9.68802L3.47158 6.50852L9.91125 2.78937C11.0128 2.15513 12.3675 2.15513 13.4691 2.78937L19.8893 6.49739L13.4357 10.1999V10.2054L11.6916 11.2068V13.8884L13.0323 13.1067L13.4329 12.8759L18.1702 10.1581L21.0492 8.50579V17.9108L11.6832 23.3184L6.30337 20.2113L5.00709 19.463V22.1445L11.6832 26L23.372 19.2516V12.5393L23.3775 12.5421Z" fill="#0F92D4"/>
</g>
<defs>
<clipPath id="clip0_2_223">
<rect width="23.3775" height="26" fill="white"/>
</clipPath>
</defs>
</svg>
