<?xml version="1.0" encoding="utf-8"?>
<!-- Generator: Adobe Illustrator 23.0.0, SVG Export Plug-In . SVG Version: 6.00 Build 0)  -->
<svg version="1.1" id="Layer_1" xmlns="http://www.w3.org/2000/svg" xmlns:xlink="http://www.w3.org/1999/xlink" x="0px" y="0px"
	 width="80px" height="80px" viewBox="0 0 80 80" enable-background="new 0 0 80 80" xml:space="preserve">
<g>
	<polygon fill="#4275DA" points="66,56.3 80,65.7 80,14.3 66,22.1 	"/>
	<g>
		<g>
			<g>
				<path fill="#F8F8F8" d="M73,47l-2.1-0.6V32l2-0.6c1.2-0.4,2.3,0.3,2.3,3.6c0,2-0.5,3.2-1,3.6v0.1c0.6,0.3,1.3,1.3,1.3,3.9
					C75.4,46.6,74.2,47.3,73,47z M72.8,34.1l-0.5,0.1v3.5h0.5c0.6,0,0.8-0.6,0.8-2C73.7,34.4,73.4,34,72.8,34.1z M73,40.1h-0.6v4.1
					l0.6,0.1c0.5,0.1,1-0.2,1-1.9C73.9,40.7,73.5,40.1,73,40.1z"/>
			</g>
		</g>
	</g>
	<polygon fill="#4275DA" points="14,56.3 0,65.7 0,14.3 14,22.1 	"/>
	<g>
		<rect x="14" y="14" fill="#FFC400" width="52" height="52"/>
		<g>
			<path fill="#333333" d="M43.1,46.2h-6.3l-1.1,4.7h-5.5l6.7-21.8h6.3l6.7,21.8h-5.6L43.1,46.2z M37.6,42.4h4.7L40,33.2h-0.2
				L37.6,42.4z"/>
		</g>
	</g>
</g>
</svg>
