<?xml version="1.0" encoding="utf-8"?>
<!-- Generator: Adobe Illustrator 23.0.0, SVG Export Plug-In . SVG Version: 6.00 Build 0)  -->
<svg version="1.1" id="Layer_1" xmlns="http://www.w3.org/2000/svg" xmlns:xlink="http://www.w3.org/1999/xlink" x="0px" y="0px"
	 width="80px" height="80px" viewBox="0 0 80 80" style="enable-background:new 0 0 80 80;" xml:space="preserve">
<style type="text/css">
	.st0{fill:#333333;}
	.st1{fill:#FFFFFF;}
	.st2{opacity:0.7;}
	.st3{fill:#4275DA;}
	.st4{fill:#F8F8F8;}
	.st5{opacity:0.3;}
	.st6{fill:#FFC400;}
	.st7{opacity:0.5;}
	.st8{opacity:0.5;clip-path:url(#SVGID_2_);}
	.st9{opacity:0.5;clip-path:url(#SVGID_4_);}
	.st10{opacity:0.67;}
	.st11{fill:#FFE280;}
	.st12{fill:#999999;}
</style>
<g>
	<rect x="10" y="10" class="st1" width="60" height="60"/>
	<g class="st2">
		<rect x="15" y="15" class="st3" width="50" height="50"/>
		<path class="st4" d="M39.83,50.5H32.5v-21h7c4.33,0,8.08,1.25,8.08,5.33c0,2.5-1.92,4-3.67,4.42v0.08c2.08,0.42,4.5,1.67,4.5,4.92
			C48.5,49.17,44.42,50.5,39.83,50.5z M39.33,33.08h-1.75v4.83h1.92c2.08,0,3-0.75,3-2.5C42.5,33.75,41.5,33.08,39.33,33.08z
			 M39.83,41.17H37.5v5.67h2.08c1.92,0,3.67-0.42,3.67-2.75C43.33,41.92,41.92,41.17,39.83,41.17z"/>
	</g>
	<g class="st5">
		<rect x="4" y="4" class="st6" width="72" height="72"/>
		<path class="st0" d="M44.32,48.64h-8.76L34,55.12h-7.68l9.24-30.24h8.76l9.24,30.24h-7.8L44.32,48.64z M36.64,43.36h6.48L40,30.64
			h-0.24L36.64,43.36z"/>
	</g>
</g>
</svg>
