<?xml version="1.0" encoding="utf-8"?>
<!-- Generator: Adobe Illustrator 23.0.0, SVG Export Plug-In . SVG Version: 6.00 Build 0)  -->
<svg version="1.1" id="Layer_1" xmlns="http://www.w3.org/2000/svg" xmlns:xlink="http://www.w3.org/1999/xlink" x="0px" y="0px"
	 width="80px" height="80px" viewBox="0 0 80 80" enable-background="new 0 0 80 80" xml:space="preserve">
<g>
	<g>
		<polygon fill="#4275DA" points="70,70 10,70 4,32 76,32 		"/>
		<polygon fill="#FFC400" points="4,32 16,10 64,10 76,32 		"/>
	</g>
	<path fill="#F8F8F8" d="M39.8,59h-9.2L30,43h9.5c5.9,0,10.8,1,10.7,4.1c-0.1,1.9-2.7,3.1-4.9,3.4v0.1c2.7,0.3,5.8,1.2,5.7,3.8
		C50.8,58,45.6,59,39.8,59z M39.1,45.7h-2.4v3.7h2.5c2.8,0,4-0.6,4-1.9C43.4,46.2,42,45.7,39.1,45.7z M39.8,51.9h-3l0.1,4.3h2.7
		c2.5,0,4.7-0.3,4.7-2.1C44.3,52.5,42.5,51.9,39.8,51.9z"/>
	<path fill="#333333" d="M43.6,23.6h-7.3l-1.3,2h-6.4l7.7-9.2h7.3l7.7,9.2h-6.5L43.6,23.6z M37.2,22h5.4L40,18.1h-0.2L37.2,22z"/>
</g>
</svg>
