<?xml version="1.0" encoding="utf-8"?>
<!-- Generator: Adobe Illustrator 23.0.0, SVG Export Plug-In . SVG Version: 6.00 Build 0)  -->
<svg version="1.1" id="Layer_1" xmlns="http://www.w3.org/2000/svg" xmlns:xlink="http://www.w3.org/1999/xlink" x="0px" y="0px"
	 width="80px" height="80px" viewBox="0 0 80 80" enable-background="new 0 0 80 80" xml:space="preserve">
<g>
	<rect x="10" y="10" fill="#FFFFFF" width="60" height="60"/>
	<g opacity="0.5">
		<rect x="10" y="10" fill="#4275DA" width="60" height="60"/>
		<path fill="#F8F8F8" d="M39.8,52.6H31V27.4h8.4c5.2,0,9.7,1.5,9.7,6.4c0,3-2.3,4.8-4.4,5.3v0.1c2.5,0.5,5.4,2,5.4,5.9
			C50.2,51,45.3,52.6,39.8,52.6z M39.2,31.7h-2.1v5.8h2.3c2.5,0,3.6-0.9,3.6-3C43,32.5,41.8,31.7,39.2,31.7z M39.8,41.4H37v6.8h2.5
			c2.3,0,4.4-0.5,4.4-3.3C44,42.3,42.3,41.4,39.8,41.4z"/>
	</g>
	<g opacity="0.5">
		<rect x="10" y="10" fill="#FFC400" width="60" height="60"/>
		<path fill="#333333" d="M43.6,47.2h-7.3L35,52.6h-6.4l7.7-25.2h7.3l7.7,25.2h-6.5L43.6,47.2z M37.2,42.8h5.4L40,32.2h-0.2
			L37.2,42.8z"/>
	</g>
</g>
</svg>
