<?xml version="1.0" encoding="utf-8"?>
<!-- Generator: Adobe Illustrator 23.0.0, SVG Export Plug-In . SVG Version: 6.00 Build 0)  -->
<svg version="1.1" id="Layer_1" xmlns="http://www.w3.org/2000/svg" xmlns:xlink="http://www.w3.org/1999/xlink" x="0px" y="0px"
	 width="80px" height="80px" viewBox="0 0 80 80" enable-background="new 0 0 80 80" xml:space="preserve">
<g>
	<g>
		<rect x="13" y="12.8" fill="#4275DA" width="54" height="54"/>
		<rect x="13" y="12.8" fill="#FFC400" width="27" height="54"/>
		<g>
			<path fill="#333333" d="M43.2,46.3h-6.6l-1.2,4.9h-5.7l7-22.7h6.6l6.9,22.7h-5.8L43.2,46.3z M37.5,42.3h4.8L40,32.8h-0.2
				L37.5,42.3z"/>
		</g>
	</g>
	<g>
		<polygon fill="#FFE280" points="40,12.8 40,66.8 59.6,79.9 59.6,0.1 		"/>
		<polygon fill="#999999" points="42.4,27.8 40,28.5 40,32.8 40,32.7 41.7,42.5 40,42.3 40,46.3 42.4,46.7 43.2,52.1 47.4,53.3 		
			"/>
	</g>
</g>
</svg>
