<?xml version="1.0" encoding="utf-8"?>
<!-- Generator: Adobe Illustrator 23.0.0, SVG Export Plug-In . SVG Version: 6.00 Build 0)  -->
<svg version="1.1" id="Layer_1" xmlns="http://www.w3.org/2000/svg" xmlns:xlink="http://www.w3.org/1999/xlink" x="0px" y="0px"
	 width="80px" height="80px" viewBox="0 0 80 80" enable-background="new 0 0 80 80" xml:space="preserve">
<g>
	<g>
		<rect x="32" y="12" fill="#4275DA" width="48" height="48"/>
		<g>
			<path fill="#F8F8F8" d="M55.9,46.1h-7V25.9h6.7c4.2,0,7.8,1.2,7.8,5.1c0,2.4-1.9,3.9-3.5,4.2v0.1c2,0.4,4.3,1.6,4.3,4.7
				C64.2,44.8,60.3,46.1,55.9,46.1z M55.4,29.3h-1.7V34h1.9c2,0,2.9-0.7,2.9-2.4C58.4,30,57.5,29.3,55.4,29.3z M55.9,37.1h-2.2v5.4
				h2c1.9,0,3.5-0.4,3.5-2.6C59.2,37.9,57.9,37.1,55.9,37.1z"/>
		</g>
	</g>
	<g opacity="0.67">
		<rect y="32" fill="#FFC400" width="32" height="32"/>
		<g>
			<path fill="#333333" d="M17.9,51.8H14l-0.7,2.9H9.9L14,41.3h4l4.1,13.4h-3.5L17.9,51.8z M14.5,49.5h2.9L16,43.8h-0.1L14.5,49.5z"
				/>
		</g>
	</g>
</g>
</svg>
