<?xml version="1.0" encoding="utf-8"?>
<!-- Generator: Adobe Illustrator 23.0.0, SVG Export Plug-In . SVG Version: 6.00 Build 0)  -->
<svg version="1.1" id="Layer_1" xmlns="http://www.w3.org/2000/svg" xmlns:xlink="http://www.w3.org/1999/xlink" x="0px" y="0px"
	 width="80px" height="80px" viewBox="0 0 80 80" enable-background="new 0 0 80 80" xml:space="preserve">
<g>
	<polygon fill="#4275DA" points="0,55.3 16,64 16,16 0,23.3 	"/>
	<polygon fill="#4275DA" points="80,55.3 64,64 64,16 80,23.3 	"/>
	<g>
		<path fill="#F8F8F8" d="M73.6,48.1l-2.1,0.8v-18l2,0.8c1.2,0.5,2.3,1.8,2.3,4.7c0,1.8-0.5,2.8-1,3v0.1c0.6,0.3,1.3,1.2,1.3,3.5
			C76,46.3,74.8,47.7,73.6,48.1z M73.4,34.5l-0.5-0.1v3.9l0.5,0.1c0.6,0.1,0.9-0.5,0.9-1.8C74.3,35.3,74,34.7,73.4,34.5z M73.6,40.9
			H73v4.6l0.6-0.1c0.5-0.1,1-0.6,1-2.3C74.5,41.4,74.1,40.9,73.6,40.9z"/>
	</g>
	<g>
		<rect x="16" y="16" fill="#FFC400" width="48" height="48"/>
		<g>
			<path fill="#333333" d="M42.9,45.7H37L36,50h-5.1l6.2-20.2h5.8L49.1,50h-5.2L42.9,45.7z M37.8,42.3h4.3L40,33.7h-0.1L37.8,42.3z"
				/>
		</g>
	</g>
</g>
</svg>
