<?xml version="1.0" encoding="utf-8"?>
<!-- Generator: Adobe Illustrator 23.0.0, SVG Export Plug-In . SVG Version: 6.00 Build 0)  -->
<svg version="1.1" id="Layer_1" xmlns="http://www.w3.org/2000/svg" xmlns:xlink="http://www.w3.org/1999/xlink" x="0px" y="0px"
	 width="80px" height="80px" viewBox="0 0 80 80" enable-background="new 0 0 80 80" xml:space="preserve">
<g>
	<g>
		<rect x="10" y="10" fill="#FFC400" width="30" height="60"/>
		<polygon fill="#333333" points="10,27.4 10,32.2 12.6,42.8 10,42.8 10,47.2 13.6,47.2 14.8,52.6 21.3,52.6 13.6,27.4 		"/>
	</g>
	<g>
		<rect x="40" y="10" fill="#4275DA" width="30" height="60"/>
		<path fill="#FFFFFF" d="M70,48.18c-0.17,0.01-0.33,0.02-0.5,0.02H67v-6.8h2.8c0.07,0,0.13,0.01,0.2,0.01v-3.94
			c-0.19,0.01-0.39,0.03-0.6,0.03h-2.3v-5.8h2.1c0.29,0,0.55,0.01,0.8,0.03v-4.32c-0.2,0-0.4-0.01-0.6-0.01H61v25.2h8.8
			c0.07,0,0.13,0,0.2,0V48.18z"/>
	</g>
</g>
</svg>
