<?xml version="1.0" encoding="utf-8"?>
<!-- Generator: Adobe Illustrator 23.0.0, SVG Export Plug-In . SVG Version: 6.00 Build 0)  -->
<svg version="1.1" id="Layer_1" xmlns="http://www.w3.org/2000/svg" xmlns:xlink="http://www.w3.org/1999/xlink" x="0px" y="0px"
	 width="80px" height="80px" viewBox="0 0 80 80" enable-background="new 0 0 80 80" xml:space="preserve">
<g>
	<rect x="10" y="10" fill="#FFFFFF" width="60" height="60"/>
	<g>
		<g>
			<defs>
				<rect id="SVGID_1_" x="10" y="10" width="60" height="60"/>
			</defs>
			<clipPath id="SVGID_2_">
				<use xlink:href="#SVGID_1_"  overflow="visible"/>
			</clipPath>
			<g opacity="0.5" clip-path="url(#SVGID_2_)">
				<rect x="16" y="16" fill="#4275DA" width="54" height="54"/>
				<g>
					<path fill="#F8F8F8" d="M42.9,54.3H35V31.7h7.6c4.7,0,8.7,1.4,8.7,5.8c0,2.7-2.1,4.4-3.9,4.8v0.1c2.2,0.5,4.9,1.8,4.9,5.3
						C52.2,52.9,47.8,54.3,42.9,54.3z M42.3,35.5h-1.9v5.2h2.1c2.3,0,3.3-0.8,3.3-2.7C45.7,36.2,44.7,35.5,42.3,35.5z M42.9,44.3
						h-2.5v6.1h2.3c2.1,0,4-0.5,4-2.9C46.6,45.1,45.1,44.3,42.9,44.3z"/>
				</g>
			</g>
		</g>
		<g>
			<defs>
				<rect id="SVGID_3_" x="10" y="10" width="60" height="60"/>
			</defs>
			<clipPath id="SVGID_4_">
				<use xlink:href="#SVGID_3_"  overflow="visible"/>
			</clipPath>
			<g opacity="0.5" clip-path="url(#SVGID_4_)">
				<rect fill="#FFC400" width="70" height="70"/>
				<g>
					<path fill="#333333" d="M39.2,43.4h-8.5l-1.5,6.3h-7.4l9-29.4h8.5l9,29.4h-7.5L39.2,43.4z M31.8,38.3h6.3l-3-12.4h-0.2
						L31.8,38.3z"/>
				</g>
			</g>
		</g>
	</g>
</g>
</svg>
