<?xml version="1.0" encoding="utf-8"?>
<!-- Generator: Adobe Illustrator 23.0.0, SVG Export Plug-In . SVG Version: 6.00 Build 0)  -->
<svg version="1.1" id="Layer_1" xmlns="http://www.w3.org/2000/svg" xmlns:xlink="http://www.w3.org/1999/xlink" x="0px" y="0px"
	 width="80px" height="80px" viewBox="0 0 80 80" enable-background="new 0 0 80 80" xml:space="preserve">
<path fill="#333333" d="M10,10v62h62V10H10z M30,70H12V52h18V70z M30,50H12V32h18V50z M30,30H12V12h18V30z M50,70H32V52h18V70z
	 M50,50H32V32h18V50z M50,30H32V12h18V30z M70,70H52V52h18V70z M70,50H52V32h18V50z M70,30H52V12h18V30z"/>
</svg>
