<svg width="800" height="800" version="1.1" viewBox="0 0 800 800" xmlns="http://www.w3.org/2000/svg">
 <path d="m400 0c-220.91 0-400 179.09-400 400 0 65.361 15.68 127.06 43.479 181.54 8.9393-12.915 21.355-23.082 35.109-30.451 19.88-10.652 43.128-15.806 64.414-14.992 14.028 0.536 21.807 9.6708 27.17 16.84 0.80799 1.08 1.6098 2.2256 2.4258 3.3926l0.00976 0.01563c3.322 4.75 6.8847 9.8445 12.098 12.23 6.755 3.092 7.2433 9.997 7.0703 12.957-0.141 2.416-0.5597 4.5459-0.9707 6.6289-0.763 3.873-1.4938 7.5839-0.34375 12.67 1.228 5.427 13.063 14.149 32.393 21.092 1.905 0.684 3.7809 1.1344 5.5879 1.5684l0.01171 0.00391c4.037 0.96881 7.7257 1.864 10.609 5.0742 2.6075-4.8058 5.04-9.7893 7.502-14.869 7.466-15.404 15.311-31.592 29.902-45.672l0.25781-0.83203c-14.705 5.559-26.977 2.9788-36.725-2.1992 26.482-12.611 30.702-23.432 36.471-38.23 3.38-8.671 7.2923-18.708 16.529-31.27l0.00977 0.00586 0.14648-1.0137c-35.45-7.105-73.929-39.778-59.67-54.252 16.167 7.891 34.429 13.501 53.941 17.084 0.167-0.246 0.33486-0.49505 0.50586-0.74805l0.00196-0.00195c6.161-9.12 15.093-22.341 24.561-20.441 9.584 1.924 13.575 16.155 16.07 25.76 9.491 0.434 19.121 0.48197 28.811 0.16797 0.029-0.375 0.11472-0.75214 0.26172-1.1191 0.284-0.707 0.57686-1.4488 0.88086-2.2148 4.051-10.232 9.927-25.07 19.582-25.254 10.115-0.193 17.218 13.78 21.705 22.605v0.00196c0.137 0.268 0.27034 0.53106 0.40234 0.78906 0.243 0.476 0.37893 0.98038 0.41993 1.4844 8.36-1.151 16.675-2.545 24.893-4.166-0.224-0.723-0.26526-1.5128-0.07226-2.3008 0.229-0.934 0.46303-1.9184 0.70703-2.9394l0.00586-0.01954c2.986-12.522 7.317-30.679 18.582-32.434 11.801-1.838 22.507 13.247 29.268 22.773l0.1582 0.22265c0.246 0.347 0.48766 0.68758 0.72266 1.0176 0.266 0.373 0.4608 0.77346 0.5918 1.1895 7.243-1.8 11.125-3.5377 21.031-7.9707 0.88604-0.397 1.8196-0.81486 2.8086-1.2559 0.02-0.328 0.0415-0.66195 0.0625-1.002v-0.00195c0.549-8.876 1.3448-21.746 8.7168-24.307 7.256-2.52 15.605 5.237 21.279 10.875 22.773-12.563 40.954-27.226 51.961-43.217 5.156-8.318 2.5e-4 -16.318-8.8438-10.818-75.468 52.653-227.41 67.7-294.11 52.695l-0.05273-0.01367h-0.00196l-0.02539-0.00586h-0.0039c-15.706-3.7021-36.451-9.976-59.084-18.818-19.832-8.255-37.438-17.669-52.385-27.211-19.084-13.783-32.379-30.518-32.379-50.34 0-12.859 4.3062-26.538 12.201-40.326-14.624-5.281-23.471-15.028-29.008-25.465 34.269 5.189 53.06-10.459 73.453-27.443 12.805-10.663 26.241-21.852 44.539-28.742 5.26-43.015 41.915-76.33 86.352-76.33 19.545 0 37.584 6.4452 52.109 17.326 17.613-16.923 41.537-27.326 67.891-27.326 19.921 0 38.454 5.9433 53.922 16.154 6.718 3.744 13.057 7.788 19.275 11.752 24.745 15.778 47.546 30.313 84.41 19.828-5.483 14.528-16.234 28.642-37.68 35.963 26.136 16.918 50.893 39.301 73.324 68.08 2.398 3.077 4.7328 6.1862 7.0078 9.3242 15.202 15.251 23.609 32.595 31.621 49.125 12.799 26.409 24.59 50.741 61.48 61.141-9.272 7.165-20.973 12.559-35.654 12.621 22.478 83.362 24.424 172.97 15.193 250.69 53.311-67.959 85.1-153.61 85.1-246.68 0-220.91-179.09-400-400-400zm42 136c-40.869 0-74 33.131-74 74s33.131 74 74 74 74-33.131 74-74-33.131-74-74-74zm-120 9c-35.346 0-64 28.654-64 64s28.654 64 64 64c13.614 0 26.235-4.2501 36.609-11.496-9.263-14.966-14.609-32.611-14.609-51.504 0-19.477 5.6815-37.629 15.479-52.885-10.534-7.623-23.482-12.115-37.479-12.115zm-3 42c8.837 0 16 7.163 16 16 0 8.836-7.163 16-16 16s-16-7.164-16-16c0-8.837 7.163-16 16-16zm89 0c8.837 0 16 7.163 16 16 0 8.836-7.163 16-16 16s-16-7.164-16-16c0-8.837 7.163-16 16-16zm-293.36 380.58c-7.5728-0.1083-12.079 7.845-9.959 16.619 1.696 7.019 9.3908 15.371 16.469 8.3789 5.798-5.729 7.7737-19.43-0.82226-23.547-2.0306-0.97256-3.9399-1.4262-5.6875-1.4512zm-34.633 38.324c-2.0597 0.06531-4.0872 0.91209-5.7715 2.8281-4.4921 5.11-1.1277 10.409 3.0234 14.055 3.554 3.121 8.9668 2.7718 12.09-0.78125 5.8014-6.5992-1.9857-16.335-9.3418-16.102zm55.176 14.176c-7.049-0.336-14.282 6.9369-10.158 14.004 6.46 11.069 25.911-0.44049 16.756-10.896-2.389-2.73-5.4766-3.0544-6.5976-3.1074zm2.2226 30.838c-1.7269 0.02544-3.4611 0.40391-5.0352 1.1289-5.874 2.706-7.5642 10.663-4.9922 16.191l0.04492 0.0957c3.045 6.569 9.5994 9.5767 16.402 6.4707 5.923-2.705 6.2102-13.556 3.1172-18.893-1.9718-3.4018-5.738-5.0501-9.5371-4.9941zm55.258 13.998c-2.5601-0.01577-5.0668 0.53945-6.9746 1.6504-4.415 2.571-9.3463 7.8895-9.8223 13.271-0.609 6.88 7.9423 12.69 14.404 11.176 5.7207-1.3399 12.419-8.2397 13.961-14.496-4.8839-1.9912-9.2473-4.646-13.135-7.6504 2.8026-0.79008 5.4322-1.6767 7.9277-2.6387-1.9327-0.8604-4.1653-1.299-6.3613-1.3125zm-52.551 39.16c1.6527 1.4139 3.3144 2.8178 4.9902 4.2051-1.285-1.9007-2.9939-3.4229-4.9902-4.2051z" fill="#fff"/>
 <g>
  <path d="m215.94 543.23c0.541-6.008-2.908-11.664-8.497-13.933l-13.914-5.651c-2.323-0.943-4.893 0.639-5.098 3.137l-0.581 7.059c-0.781 9.508 4.365 18.517 12.951 22.673 6.458 3.127 14.049-1.17 14.692-8.316z"/>
  <path d="m245.8 587.53c0.37-4.807-1.718-9.475-5.548-12.403-7.911-6.049-19.428-2.314-22.285 7.226l-4.394 14.676c-2.166 7.233 3.441 14.444 10.985 14.127l0.513-0.021c10.824-0.455 19.599-8.93 20.431-19.731z"/>
  <path d="m277.32 604.37c1.868 0.827 3.191 2.542 3.515 4.559l0.256 1.593c0.725 4.512-2.046 8.852-6.444 10.093l-0.248 0.07c-3.069 0.866-6.078-1.547-5.901-4.73l0.357-6.404c0.235-4.211 4.608-6.888 8.465-5.181z"/>
 </g>
</svg>
