<svg width="800" height="800" viewBox="0 0 800 800" fill="none" xmlns="http://www.w3.org/2000/svg">
<g clip-path="url(#clip0_241_3945)">
<path d="M0 400C0 179.086 179.086 0 400 0C620.914 0 800 179.086 800 400C800 620.914 620.914 800 400 800C179.086 800 0 620.914 0 400Z" fill="#12cedb"/>
<path d="M349.51 371.292C391.122 334.478 432.045 298.274 501.59 302.282C592.592 307.525 615.904 351.052 632.292 381.652C638.434 393.12 643.604 402.772 651 407.913L532.983 451.967L320.204 478L245.209 454.471L233.5 440.5C238.193 439.544 242.746 438.407 247.171 437.107C248.34 430.98 250.374 423.122 255.91 421.519C260.448 420.204 265.223 424.417 269.197 428.919C300.21 414.906 324.98 392.993 349.51 371.292Z" fill="white"/>
<path d="M495.921 128.155C502.639 131.899 508.98 135.942 515.198 139.906C539.943 155.684 562.743 170.22 599.607 159.735C594.124 174.263 583.373 188.377 561.927 195.698C588.063 212.616 612.82 234.999 635.251 263.778C637.649 266.855 639.985 269.963 642.26 273.101C657.462 288.352 665.868 305.696 673.88 322.226C686.679 348.635 698.472 372.968 735.362 383.368C726.09 390.533 714.388 395.926 699.707 395.988C743.264 557.522 709.726 742.516 667.162 819.001L82.5408 810.627C131.685 792.935 184.213 745.533 225.079 680.226C210.98 680.629 199.842 675.62 191.099 668.863C224.379 659.481 235.018 637.53 246.565 613.704C254.031 598.3 261.876 582.112 276.467 568.032L276.725 567.2C262.02 572.759 249.748 570.178 240 565C266.482 552.389 270.701 541.568 276.47 526.77C279.85 518.099 283.763 508.062 293 495.5L293.01 495.506C293.059 495.168 293.108 494.83 293.157 494.492C257.707 487.387 219.227 454.714 233.486 440.24C249.653 448.131 267.916 453.741 287.428 457.324C287.595 457.078 287.763 456.829 287.934 456.576L287.935 456.575C294.096 447.455 303.029 434.232 312.497 436.132C322.081 438.056 326.071 452.288 328.566 461.893C338.057 462.327 347.687 462.374 357.377 462.06C357.406 461.685 357.492 461.308 357.639 460.941C357.923 460.234 358.216 459.493 358.52 458.727C362.571 448.495 368.446 433.657 378.101 433.473C388.216 433.28 395.32 447.253 399.807 456.078L399.807 456.08C399.944 456.348 400.077 456.611 400.209 456.869C400.452 457.345 400.588 457.849 400.629 458.353C408.989 457.202 417.304 455.809 425.522 454.188C425.298 453.465 425.257 452.674 425.45 451.886C425.679 450.952 425.913 449.969 426.157 448.948L426.162 448.928C429.148 436.406 433.479 418.249 444.744 416.494C456.545 414.656 467.25 429.741 474.011 439.267L474.17 439.491C474.416 439.838 474.657 440.177 474.892 440.507C475.158 440.88 475.354 441.282 475.485 441.698C482.728 439.898 486.61 438.16 496.516 433.727C497.402 433.33 498.336 432.912 499.325 432.471C499.345 432.143 499.366 431.809 499.387 431.469L499.387 431.467C499.936 422.591 500.732 409.722 508.104 407.161C515.36 404.641 523.708 412.397 529.382 418.035C552.155 405.472 570.337 390.809 581.344 374.818C586.5 366.5 581.344 358.5 572.5 364C497.032 416.653 345.086 431.7 278.395 416.695L278.341 416.682L278.339 416.682L278.31 416.676L278.314 416.675C262.608 412.973 241.862 406.701 219.227 397.858C199.395 389.603 181.788 380.189 166.841 370.647C147.757 356.864 134.462 340.128 134.462 320.306C134.462 307.447 138.77 293.768 146.665 279.98C132.041 274.699 123.194 264.952 117.657 254.515C151.926 259.704 170.716 244.057 191.109 227.073C203.914 216.41 217.35 205.22 235.648 198.33C240.908 155.315 277.563 122 322 122C341.545 122 359.584 128.445 374.109 139.326C391.722 122.403 415.646 112 442 112C461.921 112 480.453 117.944 495.921 128.155Z" fill="#303030"/>
<path d="M278.339 416.682C278.21 416.69 278.093 416.698 278.395 416.695L278.339 416.682Z" fill="#303030"/>
<path d="M442 284C482.869 284 516 250.869 516 210C516 169.131 482.869 136 442 136C401.131 136 368 169.131 368 210C368 250.869 401.131 284 442 284Z" fill="white"/>
<path d="M322 145C335.997 145 348.945 149.493 359.479 157.116C349.682 172.372 344 190.523 344 210C344 228.893 349.346 246.537 358.609 261.503C348.235 268.749 335.614 273 322 273C286.654 273 258 244.346 258 209C258 173.654 286.654 145 322 145Z" fill="white"/>
<path d="M319 219C327.837 219 335 211.836 335 203C335 194.163 327.837 187 319 187C310.163 187 303 194.163 303 203C303 211.836 310.163 219 319 219Z" fill="#303030"/>
<path d="M408 219C416.837 219 424 211.836 424 203C424 194.163 416.837 187 408 187C399.163 187 392 194.163 392 203C392 211.836 399.163 219 408 219Z" fill="#303030"/>
<path d="M89.4948 560.756L161.8 568.359C159.927 579.237 156.029 601.458 155.421 603.315C154.662 605.637 165.132 619.96 168.447 622.018C171.761 624.077 204.381 636.516 213.332 641.392C222.282 646.268 219.597 660.986 220.882 666.812C222.167 672.638 211.349 695.154 209.991 695.241C208.633 695.329 190.324 721.51 187.156 721.715C184.621 721.878 166.972 730.593 158.465 734.93C151.023 734.653 134.577 733.836 128.328 732.785C120.516 731.471 105.915 730.596 93.46 727.764C81.005 724.932 78.9022 720.523 76.4929 718.406C74.0836 716.288 64.286 712.376 55.1891 705.236C47.9116 699.525 44.4371 691.234 43.6095 687.803L40.8624 645.255C40.6286 641.634 51.4462 605.028 53.4756 601.261C55.0991 598.247 68.4996 587.565 74.9969 582.6L89.4948 560.756Z" fill="#303030"/>
<path d="M215.938 543.228C216.479 537.22 213.03 531.564 207.441 529.295L193.527 523.644C191.204 522.701 188.634 524.283 188.429 526.781L187.848 533.84C187.067 543.348 192.213 552.357 200.799 556.513C207.257 559.64 214.848 555.343 215.491 548.197L215.938 543.228Z" fill="white"/>
<path fill-rule="evenodd" clip-rule="evenodd" d="M78.5881 551.092C98.4676 540.44 121.716 535.285 143.002 536.099C157.03 536.635 164.808 545.77 170.171 552.939C170.979 554.019 171.781 555.165 172.597 556.332L172.608 556.348C175.93 561.098 179.493 566.193 184.706 568.579C191.461 571.671 191.948 578.576 191.775 581.536C191.634 583.952 191.215 586.082 190.804 588.165C190.041 592.038 189.311 595.748 190.461 600.834C191.689 606.261 203.523 614.983 222.853 621.926C224.758 622.61 226.635 623.061 228.442 623.495L228.454 623.498C233.246 624.648 237.55 625.681 240.595 630.624C252.179 649.42 249.692 669.834 240.533 688.738C231.465 707.449 215.426 725.79 197.622 742.267C187.029 752.071 173.864 755.491 161.989 757.906C147.487 760.853 123.459 761.04 101.421 757.246C82.3349 753.96 57.3873 747.338 47.9317 728.438C31.6389 695.87 24.6471 672.801 23.6489 653.046C22.6444 633.162 27.7889 617.489 33.7757 600.475C41.5934 578.257 58.6947 561.751 78.5881 551.092ZM104.684 584.195C106.38 591.214 114.074 599.567 121.152 592.575C126.95 586.846 128.927 573.145 120.331 569.028C109.501 563.841 102.075 573.396 104.684 584.195ZM74.239 608.729C81.9387 599.97 96.7768 613.555 89.351 622.002C86.228 625.555 80.8154 625.904 77.2614 622.783C73.1103 619.137 69.7469 613.839 74.239 608.729ZM141.783 623.183C150.938 633.639 131.487 645.149 125.027 634.08C120.903 627.013 128.136 619.741 135.185 620.077C136.306 620.13 139.394 620.453 141.783 623.183ZM143.829 674.8C137.026 677.906 130.47 674.899 127.425 668.33L127.38 668.235C124.808 662.707 126.499 654.749 132.373 652.043C137.41 649.723 144.078 650.961 146.946 655.909C150.039 661.246 149.752 672.095 143.829 674.8ZM204.56 673.43C204.026 665.154 191.797 663.007 185.692 666.562C181.277 669.133 176.346 674.452 175.87 679.834C175.261 686.714 183.811 692.524 190.273 691.01C196.959 689.444 205.003 680.281 204.56 673.43ZM131.96 704.974C132.44 704.655 135.586 702.565 139.663 703.898C148.404 706.756 151.948 723.906 140.357 725.4C133.638 726.266 124.241 724.805 125.113 715.838C125.517 711.688 128.559 707.219 131.934 704.991L131.96 704.974Z" fill="white"/>
<path d="M245.805 587.531C246.175 582.724 244.087 578.056 240.257 575.128C232.346 569.079 220.829 572.814 217.972 582.354L213.578 597.03C211.412 604.263 217.019 611.474 224.563 611.157L225.076 611.136C235.9 610.681 244.675 602.206 245.507 591.405L245.805 587.531Z" fill="white"/>
<path d="M277.322 604.371C279.19 605.198 280.513 606.913 280.837 608.93L281.093 610.523C281.818 615.035 279.047 619.375 274.649 620.616L274.401 620.686C271.332 621.552 268.323 619.139 268.5 615.956L268.857 609.552C269.092 605.341 273.465 602.664 277.322 604.371Z" fill="white"/>
</g>
<defs>
<clipPath id="clip0_241_3945">
<path d="M0 400C0 179.086 179.086 0 400 0C620.914 0 800 179.086 800 400C800 620.914 620.914 800 400 800C179.086 800 0 620.914 0 400Z" fill="white"/>
</clipPath>
</defs>
</svg>
