<svg xmlns="http://www.w3.org/2000/svg" viewBox="0 0 198 132"><rect x="1" y="1" rx="17" width="196" height="130" fill="#fff" stroke="#000" stroke-opacity=".2"/><path d="M54.335 43.784c1.799-2.312 3.083-5.395 2.698-8.478-2.698.128-5.91 1.798-7.836 3.982-1.67 1.927-3.212 5.138-2.826 8.093 3.083.385 6.037-1.285 7.964-3.597m2.698 4.368c-4.368-.257-8.093 2.44-10.148 2.44-2.056 0-5.267-2.312-8.736-2.312-4.496.129-8.607 2.57-10.919 6.68-4.624 8.093-1.284 20.04 3.34 26.591 2.184 3.212 4.882 6.809 8.35 6.68 3.34-.128 4.625-2.183 8.607-2.183 3.982 0 5.138 2.183 8.735 2.055 3.597-.129 5.91-3.212 8.093-6.552 2.57-3.725 3.597-7.322 3.597-7.45-.128-.129-7.065-2.698-7.065-10.663-.129-6.68 5.395-9.891 5.652-10.02-2.955-4.624-7.836-5.138-9.506-5.266M94.8 39.031c9.506 0 16.058 6.552 16.058 15.93 0 9.505-6.68 16.057-16.315 16.057H84.138v16.571h-7.58V39.031H94.8ZM84.138 64.723h8.607c6.551 0 10.277-3.597 10.277-9.634 0-6.166-3.726-9.635-10.277-9.635H84.01v19.27h.128Zm28.647 12.975c0-6.166 4.753-10.02 13.231-10.534l9.763-.514v-2.698c0-3.982-2.698-6.294-7.065-6.294-4.239 0-6.809 2.055-7.451 5.138h-6.937c.386-6.423 5.909-11.176 14.645-11.176 8.607 0 14.13 4.496 14.13 11.69v24.407h-6.937v-5.78h-.128c-2.055 3.982-6.551 6.423-11.176 6.423-7.194 0-12.075-4.368-12.075-10.662Zm22.994-3.212V71.66l-8.735.514c-4.368.257-6.809 2.184-6.809 5.267s2.57 5.138 6.423 5.138c5.139 0 9.121-3.468 9.121-8.093Zm13.745 26.334v-5.909c.514.129 1.799.129 2.313.129 3.34 0 5.138-1.413 6.294-5.01 0-.129.642-2.184.642-2.184L145.927 52.39h7.837l8.992 28.903h.128l8.992-28.903h7.708l-13.231 37.382c-3.083 8.607-6.552 11.304-13.874 11.304-.514-.128-2.312-.128-2.955-.257Z"/></svg>