<svg xmlns="http://www.w3.org/2000/svg" viewBox="0 0 198 132"><defs><linearGradient id="cb-a" x1="0" y1="1000" x2="1000" y2="-730" gradientTransform="matrix(.36956 0 0 .36956 0 -2.685)" gradientUnits="userSpaceOnUse"><stop stop-color="#219947" offset="0"/><stop stop-color="#0290ab" offset=".45"/><stop stop-color="#06689c" offset=".7"/><stop stop-color="#002555" offset="1"/></linearGradient></defs><rect x="1" y="1" rx="17" width="196" height="130" fill="url(#cb-a)" stroke="url(#cb-a)" stroke-opacity=".2"/><g fill="#fff"><path d="M20.318 67.164c0-21.194 13.751-38.37 41.645-38.37 26.693 0 40.585 15.92 41.586 36.012 0 .019-40.377 0-40.377 0V69.3s40.392-.007 40.392 0c-.887 20.2-14.475 36.239-41.597 36.239-28.175 0-41.649-17.18-41.649-38.375ZM162.841 103.462h-54.743V69.3h53.238c12.029 0 17.831 7.983 17.831 17.831 0 9.021-8.621 16.338-16.326 16.331ZM162.841 64.806h-54.743V30.645h53.238c12.029 0 17.831 7.982 17.831 17.83 0 9.018-8.621 16.335-16.326 16.331Z"/></g></svg>