<svg xmlns="http://www.w3.org/2000/svg" viewBox="0 0 198 132"><rect x="1" y="1" rx="17" width="196" height="130" fill="#fff" stroke="#000" stroke-opacity=".2"/><path d="M39.488 44.316a15.796 15.796 0 0 1 11.251 4.403l8.357-8.357a28.019 28.019 0 0 0-19.608-7.664c-11.088 0-21.239 6.278-26.212 16.184l9.743 7.582c2.323-6.97 8.805-12.148 16.469-12.148Z" fill="#ea4335"/><path d="M23.019 67.675a17.711 17.711 0 0 1 0-11.251v-7.542h-9.743a29.102 29.102 0 0 0 0 26.334l9.743-7.541Z" fill="#fbbc04"/><path d="M39.488 91.4c7.908 0 14.594-2.609 19.445-7.093l-9.458-7.338c-2.65 1.794-6.033 2.813-9.987 2.813-7.664 0-14.146-5.177-16.47-12.107h-9.742v7.582C18.249 85.122 28.4 91.4 39.488 91.4Z" fill="#34a853"/><path d="M67.657 62.701c0-1.997-.163-3.995-.49-5.951H39.489v11.292h15.858c-.653 3.628-2.772 6.889-5.87 8.927v7.338h9.457c5.544-5.096 8.724-12.637 8.724-21.606Z" fill="#4285f4"/><path d="M94.195 67.186v20.708h-6.563v-51.12h17.406c4.199-.08 8.235 1.51 11.292 4.444a14.087 14.087 0 0 1 4.688 10.762 14.259 14.259 0 0 1-4.688 10.844c-3.057 2.894-6.808 4.362-11.251 4.362H94.195Zm0-24.133v17.855H105.2a8.582 8.582 0 0 0 6.482-2.65c3.465-3.343 3.506-8.846.163-12.311l-.163-.163a8.472 8.472 0 0 0-6.482-2.69l-11.006-.041Zm41.947 8.723c4.851 0 8.683 1.305 11.496 3.873 2.813 2.609 4.199 6.156 4.199 10.68v21.525h-6.278v-4.852h-.285c-2.732 3.995-6.319 5.993-10.844 5.993-3.832 0-7.093-1.142-9.661-3.424a10.808 10.808 0 0 1-3.873-8.561c0-3.628 1.386-6.482 4.117-8.642 2.732-2.16 6.4-3.22 10.966-3.22 3.914 0 7.093.733 9.621 2.12v-1.51a7.519 7.519 0 0 0-2.691-5.788 9.54 9.54 0 0 0-6.318-2.405c-3.669 0-6.564 1.55-8.724 4.647l-5.789-3.628c3.139-4.525 7.827-6.808 14.064-6.808Zm-8.479 25.397c0 1.712.815 3.302 2.161 4.28 1.467 1.142 3.261 1.753 5.095 1.712 2.772 0 5.422-1.1 7.379-3.057 2.16-2.038 3.261-4.443 3.261-7.215-2.038-1.63-4.892-2.446-8.561-2.446-2.65 0-4.892.652-6.685 1.916-1.753 1.304-2.65 2.894-2.65 4.81Zm60.21-24.255-21.932 50.386h-6.767l8.153-17.611-14.43-32.734h7.134l10.395 25.11h.163l10.15-25.11 7.134-.041Z" fill="#5f6368"/></svg>