<svg xmlns="http://www.w3.org/2000/svg" viewBox="0 0 198 132"><rect x="1" y="1" rx="17" width="196" height="130" fill="#252525" stroke="#252525" stroke-opacity=".2"/><path d="M99.978 32.996c10.02 7.526 16.5 19.508 16.5 33.003 0 13.496-6.48 25.477-16.5 33.003-10.018-7.526-16.5-19.507-16.5-33.003 0-13.495 6.482-25.477 16.5-33.003Z" fill="#ff5f00"/><path d="M124.728 107.25c22.783 0 41.25-18.468 41.25-41.25s-18.467-41.25-41.25-41.25c-22.781 0-41.25 18.468-41.25 41.25s18.469 41.25 41.25 41.25Z" fill="#f79e1b"/><path d="M75.229 107.25c22.782 0 41.249-18.468 41.249-41.25s-18.467-41.25-41.25-41.25c-22.781 0-41.25 18.468-41.25 41.25s18.469 41.25 41.25 41.25h.001Z" fill="#eb001b"/></svg>