<svg xmlns="http://www.w3.org/2000/svg" viewBox="0 0 198 132"><rect x="1" y="1" rx="17" width="196" height="130" fill="#10298e" stroke="#10298e" stroke-opacity=".2"/><path d="M61.3 59.294h-9.267c0-1.524-.18-2.554-.538-3.09-.552-.77-2.076-1.155-4.572-1.155-2.421 0-4.026.223-4.812.667-.787.445-1.178 1.413-1.174 2.904 0 1.351.348 2.239 1.044 2.663a4.324 4.324 0 0 0 1.977.531l1.853.13c4.012.267 6.518.455 7.519.562 3.171.321 5.471 1.166 6.9 2.533a6.703 6.703 0 0 1 2.008 4.182c.132 1.16.194 2.325.186 3.49 0 2.987-.285 5.172-.853 6.556-1.034 2.54-3.356 4.147-6.968 4.818a40.977 40.977 0 0 1-6.938.451c-5.202 0-8.824-.31-10.867-.933a7.086 7.086 0 0 1-4.943-4.627c-.46-1.293-.692-3.447-.692-6.462h9.267v.772c0 1.61.462 2.64 1.384 3.09.728.337 1.52.51 2.323.506h3.41a12.355 12.355 0 0 0 3.33-.266 2.712 2.712 0 0 0 1.68-1.624c.162-.577.24-1.174.23-1.773 0-1.648-.596-2.643-1.786-2.984a55.705 55.705 0 0 0-6.178-.587c-2.966-.21-5.025-.416-6.178-.618-3.04-.569-5.064-1.738-6.073-3.51-.91-1.502-1.365-3.78-1.365-6.832-.056-1.88.188-3.757.723-5.56a6.123 6.123 0 0 1 2.322-3.225 11.738 11.738 0 0 1 6-1.97c2.03-.178 4.28-.266 6.752-.266 3.896 0 6.672.222 8.328.667 4.04 1.07 6.06 4.11 6.06 9.118 0 .408-.03 1.022-.093 1.842h.001Zm40.811 25.242V47.47H120.7a20.76 20.76 0 0 1 5.832.618 9.06 9.06 0 0 1 6.178 5.881c.543 1.557.815 3.898.815 7.024 0 3.76-.298 6.462-.896 8.106-1.19 3.254-3.64 5.125-7.351 5.615-.437.075-2.29.139-5.56.192l-1.656.056h-5.968v9.575h-9.983v-.001Zm9.983-18.169h6.221c1.973-.07 3.174-.222 3.602-.457a2.66 2.66 0 0 0 1.18-1.946c.149-.956.213-1.924.191-2.891a11.902 11.902 0 0 0-.376-3.49c-.359-1.063-1.217-1.712-2.577-1.947-.267-.037-.912-.056-1.933-.056h-6.308v10.787Zm42.702 11.763h-13.338l-1.792 6.406h-10.323l11.169-37.067h15.05l11.275 37.067h-10.138l-1.903-6.406Zm-1.983-7.222-4.677-16.063-4.535 16.063h9.212Z" fill="#fff"/><path d="M88.346 52.683a13.116 13.116 0 0 1 10.2 4.862l2.15-4.609a18.905 18.905 0 0 0-30.334 6.333h-4.194l-2.472 5.307h5.394a17.856 17.856 0 0 0 .018 3.28h-2.73l-2.472 5.307h6.58a18.707 18.707 0 0 0 17.218 11.12 18.904 18.904 0 0 0 10.502-3.163v-6.468a13.122 13.122 0 0 1-20.875-1.477h13.758l2.471-5.319H75.323a13.42 13.42 0 0 1-.142-1.958c0-.451 0-.896.068-1.335h19.856l2.471-5.307H76.96a13.147 13.147 0 0 1 11.386-6.573Z" fill="#fbbc09"/></svg>