<svg xmlns="http://www.w3.org/2000/svg" viewBox="0 0 104 104"><defs><linearGradient id="stancer-logo-a" x1="57.242" y1="35" x2="1.041" y2="80.666" gradientUnits="userSpaceOnUse"><stop stop-color="#215dd2" offset="0"/><stop stop-color="#79a7ff" offset="1"/></linearGradient><linearGradient id="stancer-logo-b" x1="82.862" y1="7.249" x2="41.529" y2="53.322" gradientUnits="userSpaceOnUse"><stop stop-color="#d0e9ff" offset="0"/><stop stop-color="#ff5b58" offset="1"/></linearGradient><filter id="stancer-logo-c" x="24.534" y="29.266" width="58.749" height="44.733" filterUnits="userSpaceOnUse" color-interpolation-filters="sRGB"><feFlood flood-opacity="0" result="BackgroundImageFix"/><feBlend in="SourceGraphic" in2="BackgroundImageFix" result="shape"/><feGaussianBlur stdDeviation="2" result="effect1_foregroundBlur"/></filter></defs><path d="M35.656 32h-11.57C17.239 32 11.28 36.6 9.664 43.131L.667 83.509C-.305 87.873 3.092 92 7.657 92h51.27c4.528 0 8.446-3.09 9.422-7.43l9.973-44.347C79.272 36 76.313 32 71.908 32H35.656Z" fill="url(#stancer-logo-a)"/><path d="M51.509 12h46.18c4.352 0 7.587 4 6.649 8.223l-.965 4.343H36.908l.35-1.435C38.856 16.599 44.744 12 51.509 12ZM35.112 31.913l-8.486 34.72C25.958 69.367 28.042 72 30.873 72h54.303c4.473 0 8.344-3.09 9.309-7.43l7.256-32.657H35.112Z" fill="#d0e9ff"/><path d="m71.563 70 7.72-36.734H36.695L28.66 64.633c-.668 2.733 1.416 5.366 4.247 5.366h38.656Z" fill="url(#stancer-logo-b)" filter="url(#stancer-logo-c)"/></svg>