<?xml version="1.0" encoding="UTF-8"?><!DOCTYPE svg PUBLIC "-//W3C//DTD SVG 1.1//EN" "http://www.w3.org/Graphics/SVG/1.1/DTD/svg11.dtd"><svg xmlns="http://www.w3.org/2000/svg" xmlns:xlink="http://www.w3.org/1999/xlink"><defs><linearGradient id="cb-a" x1="0" y1="1000" x2="1000" y2="-730" gradientTransform="matrix(.36956 0 0 .36956 0 -2.685)" gradientUnits="userSpaceOnUse"><stop stop-color="#219947" offset="0"/><stop stop-color="#0290ab" offset=".45"/><stop stop-color="#06689c" offset=".7"/><stop stop-color="#002555" offset="1"/></linearGradient><linearGradient id="stancer-logo-a" x1="57.242" y1="35" x2="1.041" y2="80.666" gradientUnits="userSpaceOnUse"><stop stop-color="#215dd2" offset="0"/><stop stop-color="#79a7ff" offset="1"/></linearGradient><linearGradient id="stancer-logo-b" x1="82.862" y1="7.249" x2="41.529" y2="53.322" gradientUnits="userSpaceOnUse"><stop stop-color="#d0e9ff" offset="0"/><stop stop-color="#ff5b58" offset="1"/></linearGradient><filter id="stancer-logo-c" x="24.534" y="29.266" width="58.749" height="44.733" filterUnits="userSpaceOnUse" color-interpolation-filters="sRGB"><feFlood flood-opacity="0" result="BackgroundImageFix"/><feBlend in="SourceGraphic" in2="BackgroundImageFix" result="shape"/><feGaussianBlur stdDeviation="2" result="effect1_foregroundBlur"/></filter><linearGradient id="stancer-a" x1="57.242" y1="35" x2="1.041" y2="80.666" gradientUnits="userSpaceOnUse"><stop stop-color="#215dd2" offset="0"/><stop stop-color="#79a7ff" offset="1"/></linearGradient><linearGradient id="stancer-c" x1="82.862" y1="7.249" x2="41.529" y2="53.322" gradientUnits="userSpaceOnUse"><stop stop-color="#d0e9ff" offset="0"/><stop stop-color="#ff5b58" offset="1"/></linearGradient><filter id="stancer-b" x="24.534" y="17.266" width="58.749" height="44.733" filterUnits="userSpaceOnUse" color-interpolation-filters="sRGB"><feFlood flood-opacity="0" result="BackgroundImageFix"/><feBlend in="SourceGraphic" in2="BackgroundImageFix" result="shape"/><feGaussianBlur stdDeviation="2" result="effect1_foregroundBlur"/></filter></defs><symbol id="amex-map" viewBox="0 0 198 132"><rect x="1" y="1" rx="17" width="196" height="130" fill="#016fd0" stroke="#016fd0" stroke-opacity=".2"/><path d="M112.634 110.692V63.655l83.717.075v12.993l-9.675 10.341 9.675 10.435v13.269h-15.449l-8.21-9.06-8.152 9.094-51.906-.11Z" fill="#fffffe"/><path d="M118.226 105.535V68.832h31.121v8.455h-21.045v5.74h20.543v8.314h-20.543v5.637h21.045v8.557h-31.121Z" fill="#016fd0"/><path d="m149.192 105.534 17.221-18.373-17.222-18.33h13.329l10.523 11.633 10.553-11.632h12.755v.289l-16.853 18.04 16.853 17.853v.52h-12.884l-10.709-11.75-10.6 11.75h-12.966Z" fill="#016fd0"/><path d="M116.539 21.906h20.18L143.807 38V21.906h24.913l4.297 12.058 4.311-12.058h19.023v47.036H95.813l20.726-47.036Z" fill="#fffffe"/><path d="m120.36 27.014-16.286 36.672h11.17l3.072-7.343h16.649l3.069 7.343h11.448l-16.218-36.672H120.36Zm1.399 21.098 4.884-11.674 4.881 11.674h-9.765Z" fill="#016fd0"/><path d="M149.329 63.682V27.01l15.701.054 8.079 22.545 8.131-22.6h15.111v36.673l-9.723.086v-25.19l-9.178 25.104h-8.876l-9.369-25.19v25.19h-9.876Z" fill="#016fd0"/></symbol><symbol id="apple-pay-map" viewBox="0 0 198 132"><rect x="1" y="1" rx="17" width="196" height="130" fill="#fff" stroke="#000" stroke-opacity=".2"/><path d="M54.335 43.784c1.799-2.312 3.083-5.395 2.698-8.478-2.698.128-5.91 1.798-7.836 3.982-1.67 1.927-3.212 5.138-2.826 8.093 3.083.385 6.037-1.285 7.964-3.597m2.698 4.368c-4.368-.257-8.093 2.44-10.148 2.44-2.056 0-5.267-2.312-8.736-2.312-4.496.129-8.607 2.57-10.919 6.68-4.624 8.093-1.284 20.04 3.34 26.591 2.184 3.212 4.882 6.809 8.35 6.68 3.34-.128 4.625-2.183 8.607-2.183 3.982 0 5.138 2.183 8.735 2.055 3.597-.129 5.91-3.212 8.093-6.552 2.57-3.725 3.597-7.322 3.597-7.45-.128-.129-7.065-2.698-7.065-10.663-.129-6.68 5.395-9.891 5.652-10.02-2.955-4.624-7.836-5.138-9.506-5.266M94.8 39.031c9.506 0 16.058 6.552 16.058 15.93 0 9.505-6.68 16.057-16.315 16.057H84.138v16.571h-7.58V39.031H94.8ZM84.138 64.723h8.607c6.551 0 10.277-3.597 10.277-9.634 0-6.166-3.726-9.635-10.277-9.635H84.01v19.27h.128Zm28.647 12.975c0-6.166 4.753-10.02 13.231-10.534l9.763-.514v-2.698c0-3.982-2.698-6.294-7.065-6.294-4.239 0-6.809 2.055-7.451 5.138h-6.937c.386-6.423 5.909-11.176 14.645-11.176 8.607 0 14.13 4.496 14.13 11.69v24.407h-6.937v-5.78h-.128c-2.055 3.982-6.551 6.423-11.176 6.423-7.194 0-12.075-4.368-12.075-10.662Zm22.994-3.212V71.66l-8.735.514c-4.368.257-6.809 2.184-6.809 5.267s2.57 5.138 6.423 5.138c5.139 0 9.121-3.468 9.121-8.093Zm13.745 26.334v-5.909c.514.129 1.799.129 2.313.129 3.34 0 5.138-1.413 6.294-5.01 0-.129.642-2.184.642-2.184L145.927 52.39h7.837l8.992 28.903h.128l8.992-28.903h7.708l-13.231 37.382c-3.083 8.607-6.552 11.304-13.874 11.304-.514-.128-2.312-.128-2.955-.257Z"/></symbol><symbol id="cb-map" viewBox="0 0 198 132"><rect x="1" y="1" rx="17" width="196" height="130" fill="url(#cb-a)" stroke="url(#cb-a)" stroke-opacity=".2"/><g fill="#fff"><path d="M20.318 67.164c0-21.194 13.751-38.37 41.645-38.37 26.693 0 40.585 15.92 41.586 36.012 0 .019-40.377 0-40.377 0V69.3s40.392-.007 40.392 0c-.887 20.2-14.475 36.239-41.597 36.239-28.175 0-41.649-17.18-41.649-38.375ZM162.841 103.462h-54.743V69.3h53.238c12.029 0 17.831 7.983 17.831 17.831 0 9.021-8.621 16.338-16.326 16.331ZM162.841 64.806h-54.743V30.645h53.238c12.029 0 17.831 7.982 17.831 17.83 0 9.018-8.621 16.335-16.326 16.331Z"/></g></symbol><symbol id="g-pay-map" viewBox="0 0 198 132"><rect x="1" y="1" rx="17" width="196" height="130" fill="#fff" stroke="#000" stroke-opacity=".2"/><path d="M39.488 44.316a15.796 15.796 0 0 1 11.251 4.403l8.357-8.357a28.019 28.019 0 0 0-19.608-7.664c-11.088 0-21.239 6.278-26.212 16.184l9.743 7.582c2.323-6.97 8.805-12.148 16.469-12.148Z" fill="#ea4335"/><path d="M23.019 67.675a17.711 17.711 0 0 1 0-11.251v-7.542h-9.743a29.102 29.102 0 0 0 0 26.334l9.743-7.541Z" fill="#fbbc04"/><path d="M39.488 91.4c7.908 0 14.594-2.609 19.445-7.093l-9.458-7.338c-2.65 1.794-6.033 2.813-9.987 2.813-7.664 0-14.146-5.177-16.47-12.107h-9.742v7.582C18.249 85.122 28.4 91.4 39.488 91.4Z" fill="#34a853"/><path d="M67.657 62.701c0-1.997-.163-3.995-.49-5.951H39.489v11.292h15.858c-.653 3.628-2.772 6.889-5.87 8.927v7.338h9.457c5.544-5.096 8.724-12.637 8.724-21.606Z" fill="#4285f4"/><path d="M94.195 67.186v20.708h-6.563v-51.12h17.406c4.199-.08 8.235 1.51 11.292 4.444a14.087 14.087 0 0 1 4.688 10.762 14.259 14.259 0 0 1-4.688 10.844c-3.057 2.894-6.808 4.362-11.251 4.362H94.195Zm0-24.133v17.855H105.2a8.582 8.582 0 0 0 6.482-2.65c3.465-3.343 3.506-8.846.163-12.311l-.163-.163a8.472 8.472 0 0 0-6.482-2.69l-11.006-.041Zm41.947 8.723c4.851 0 8.683 1.305 11.496 3.873 2.813 2.609 4.199 6.156 4.199 10.68v21.525h-6.278v-4.852h-.285c-2.732 3.995-6.319 5.993-10.844 5.993-3.832 0-7.093-1.142-9.661-3.424a10.808 10.808 0 0 1-3.873-8.561c0-3.628 1.386-6.482 4.117-8.642 2.732-2.16 6.4-3.22 10.966-3.22 3.914 0 7.093.733 9.621 2.12v-1.51a7.519 7.519 0 0 0-2.691-5.788 9.54 9.54 0 0 0-6.318-2.405c-3.669 0-6.564 1.55-8.724 4.647l-5.789-3.628c3.139-4.525 7.827-6.808 14.064-6.808Zm-8.479 25.397c0 1.712.815 3.302 2.161 4.28 1.467 1.142 3.261 1.753 5.095 1.712 2.772 0 5.422-1.1 7.379-3.057 2.16-2.038 3.261-4.443 3.261-7.215-2.038-1.63-4.892-2.446-8.561-2.446-2.65 0-4.892.652-6.685 1.916-1.753 1.304-2.65 2.894-2.65 4.81Zm60.21-24.255-21.932 50.386h-6.767l8.153-17.611-14.43-32.734h7.134l10.395 25.11h.163l10.15-25.11 7.134-.041Z" fill="#5f6368"/></symbol><symbol id="mastercard-map" viewBox="0 0 198 132"><rect x="1" y="1" rx="17" width="196" height="130" fill="#252525" stroke="#252525" stroke-opacity=".2"/><path d="M99.978 32.996c10.02 7.526 16.5 19.508 16.5 33.003 0 13.496-6.48 25.477-16.5 33.003-10.018-7.526-16.5-19.507-16.5-33.003 0-13.495 6.482-25.477 16.5-33.003Z" fill="#ff5f00"/><path d="M124.728 107.25c22.783 0 41.25-18.468 41.25-41.25s-18.467-41.25-41.25-41.25c-22.781 0-41.25 18.468-41.25 41.25s18.469 41.25 41.25 41.25Z" fill="#f79e1b"/><path d="M75.229 107.25c22.782 0 41.249-18.468 41.249-41.25s-18.467-41.25-41.25-41.25c-22.781 0-41.25 18.468-41.25 41.25s18.469 41.25 41.25 41.25h.001Z" fill="#eb001b"/></symbol><symbol id="sepa-map" viewBox="0 0 198 132"><rect x="1" y="1" rx="17" width="196" height="130" fill="#10298e" stroke="#10298e" stroke-opacity=".2"/><path d="M61.3 59.294h-9.267c0-1.524-.18-2.554-.538-3.09-.552-.77-2.076-1.155-4.572-1.155-2.421 0-4.026.223-4.812.667-.787.445-1.178 1.413-1.174 2.904 0 1.351.348 2.239 1.044 2.663a4.324 4.324 0 0 0 1.977.531l1.853.13c4.012.267 6.518.455 7.519.562 3.171.321 5.471 1.166 6.9 2.533a6.703 6.703 0 0 1 2.008 4.182c.132 1.16.194 2.325.186 3.49 0 2.987-.285 5.172-.853 6.556-1.034 2.54-3.356 4.147-6.968 4.818a40.977 40.977 0 0 1-6.938.451c-5.202 0-8.824-.31-10.867-.933a7.086 7.086 0 0 1-4.943-4.627c-.46-1.293-.692-3.447-.692-6.462h9.267v.772c0 1.61.462 2.64 1.384 3.09.728.337 1.52.51 2.323.506h3.41a12.355 12.355 0 0 0 3.33-.266 2.712 2.712 0 0 0 1.68-1.624c.162-.577.24-1.174.23-1.773 0-1.648-.596-2.643-1.786-2.984a55.705 55.705 0 0 0-6.178-.587c-2.966-.21-5.025-.416-6.178-.618-3.04-.569-5.064-1.738-6.073-3.51-.91-1.502-1.365-3.78-1.365-6.832-.056-1.88.188-3.757.723-5.56a6.123 6.123 0 0 1 2.322-3.225 11.738 11.738 0 0 1 6-1.97c2.03-.178 4.28-.266 6.752-.266 3.896 0 6.672.222 8.328.667 4.04 1.07 6.06 4.11 6.06 9.118 0 .408-.03 1.022-.093 1.842h.001Zm40.811 25.242V47.47H120.7a20.76 20.76 0 0 1 5.832.618 9.06 9.06 0 0 1 6.178 5.881c.543 1.557.815 3.898.815 7.024 0 3.76-.298 6.462-.896 8.106-1.19 3.254-3.64 5.125-7.351 5.615-.437.075-2.29.139-5.56.192l-1.656.056h-5.968v9.575h-9.983v-.001Zm9.983-18.169h6.221c1.973-.07 3.174-.222 3.602-.457a2.66 2.66 0 0 0 1.18-1.946c.149-.956.213-1.924.191-2.891a11.902 11.902 0 0 0-.376-3.49c-.359-1.063-1.217-1.712-2.577-1.947-.267-.037-.912-.056-1.933-.056h-6.308v10.787Zm42.702 11.763h-13.338l-1.792 6.406h-10.323l11.169-37.067h15.05l11.275 37.067h-10.138l-1.903-6.406Zm-1.983-7.222-4.677-16.063-4.535 16.063h9.212Z" fill="#fff"/><path d="M88.346 52.683a13.116 13.116 0 0 1 10.2 4.862l2.15-4.609a18.905 18.905 0 0 0-30.334 6.333h-4.194l-2.472 5.307h5.394a17.856 17.856 0 0 0 .018 3.28h-2.73l-2.472 5.307h6.58a18.707 18.707 0 0 0 17.218 11.12 18.904 18.904 0 0 0 10.502-3.163v-6.468a13.122 13.122 0 0 1-20.875-1.477h13.758l2.471-5.319H75.323a13.42 13.42 0 0 1-.142-1.958c0-.451 0-.896.068-1.335h19.856l2.471-5.307H76.96a13.147 13.147 0 0 1 11.386-6.573Z" fill="#fbbc09"/></symbol><symbol id="stancer-flat-map" viewBox="0 0 702.227 106.667"><path d="M31.75 26.656c-9.216 0-17.232 6.135-19.406 14.844L.219 95.344c-1.31 5.818 3.262 11.312 9.406 11.312h69c6.093 0 11.375-4.119 12.688-9.906L95.093 80H40.876c-3.81 0-6.617-3.512-5.719-7.156l11.375-46.188H31.75Z" fill="var(--stancer-back, #7899d6)"/><path d="M68.625 0C59.52 0 51.618 6.135 49.469 14.844L49 16.75h89.438l1.281-5.781C140.981 5.339 136.638 0 130.781 0H68.625Zm67.625 26.563-30.5.03L95.094 80h18.844c6.02 0 11.233-4.12 12.531-9.906l9.781-43.531Z" fill="var(--stancer-accent, #c8e8f9)"/><path d="m95.096 80 10.65-53.43-59.204.098-11.39 46.177C34.253 76.49 37.057 80 40.867 80H94.92" fill="var(--stancer-heart, #f35c6f)"/><g fill="var(--stancer-text, #101a2c)"><path d="M224.32 106.667c21.512 0 37.496-13.037 37.496-30.964 0-40.148-57.812-24.888-57.812-46.518 0-7.703 7.021-12.74 17.627-12.74 11.354 0 18.673 6.814 18.972 16.147h17.926c0-17.48-12.249-32.592-36.3-32.592-20.465 0-35.405 12.296-35.405 29.333 0 38.075 57.664 23.112 57.664 46.37 0 8.74-8.367 14.667-20.168 14.667-12.548 0-21.511-7.555-21.511-18.667H185.48c0 20.297 16.432 34.964 38.84 34.964M315.349 48.445V32.74h-19.121V13.333h-16.731v19.408h-13.893v15.704h13.893v29.48c0 18.372 10.756 28.149 26.89 28.149 2.688 0 6.422-.297 8.962-.889v-15.26c-1.642.445-3.585.593-5.377.593-8.068 0-13.744-3.703-13.744-12.888V48.445h19.121M381.625 32.741v12.74c-5.228-9.036-14.192-14.222-25.844-14.222-19.42 0-34.956 16.741-34.956 37.63 0 20.888 15.536 37.778 34.956 37.778 11.652 0 20.616-5.185 25.844-14.223v12.741h16.731V32.741h-16.731Zm-22.258 58.223c-12.399 0-22.11-9.78-22.11-22.074 0-12.149 9.711-21.927 22.11-21.927 12.698 0 22.258 9.48 22.258 21.927 0 12.592-9.56 22.074-22.258 22.074M451.045 31.259c-9.709 0-17.477 4.741-22.108 12.89V32.74h-16.582v72.444h16.582v-39.26c0-11.407 7.171-18.813 18.076-18.813 10.606 0 17.627 7.406 17.627 18.813v39.26h16.731V63.852c0-20.148-11.652-32.593-30.326-32.593M529.983 106.667c17.777 0 33.162-11.557 35.105-28h-17.029c-1.794 7.258-9.412 12.148-18.076 12.148-12.1 0-21.362-9.482-21.362-21.779 0-12.444 9.262-21.925 21.362-21.925 8.664 0 16.133 4.889 17.925 11.556h17.031c-2.242-15.704-17.328-27.408-34.956-27.408-21.362 0-37.795 16.296-37.795 37.777 0 21.482 16.433 37.631 37.795 37.631M647.085 67.408c0-21.186-15.984-36.15-35.702-36.15-21.064 0-37.646 16.297-37.646 37.334 0 21.63 16.582 38.075 37.944 38.075 17.927 0 31.819-10.075 34.507-25.334h-16.729c-1.495 6.223-8.516 10.37-17.479 10.37-12.4 0-20.019-7.26-21.661-18.813h56.318c.299-1.482.448-3.557.448-5.482Zm-56.169-7.111c2.54-9.334 9.711-15.408 19.569-15.408 10.01 0 17.479 6.37 18.526 15.408h-38.095M695.351 31.259c-8.666 0-15.387 4.149-19.72 11.111v-9.629h-16.58v72.444h16.58V66.518c0-13.036 8.665-20.296 19.272-20.296 2.389 0 4.929.445 7.32 1.037v-15.11c-2.242-.445-4.632-.89-6.872-.89"/></g></symbol><symbol id="stancer-logo-map" viewBox="0 0 104 104"><path d="M35.656 32h-11.57C17.239 32 11.28 36.6 9.664 43.131L.667 83.509C-.305 87.873 3.092 92 7.657 92h51.27c4.528 0 8.446-3.09 9.422-7.43l9.973-44.347C79.272 36 76.313 32 71.908 32H35.656Z" fill="url(#stancer-logo-a)"/><path d="M51.509 12h46.18c4.352 0 7.587 4 6.649 8.223l-.965 4.343H36.908l.35-1.435C38.856 16.599 44.744 12 51.509 12ZM35.112 31.913l-8.486 34.72C25.958 69.367 28.042 72 30.873 72h54.303c4.473 0 8.344-3.09 9.309-7.43l7.256-32.657H35.112Z" fill="#d0e9ff"/><path d="m71.563 70 7.72-36.734H36.695L28.66 64.633c-.668 2.733 1.416 5.366 4.247 5.366h38.656Z" fill="url(#stancer-logo-b)" filter="url(#stancer-logo-c)"/></symbol><symbol id="stancer-map" viewBox="0 0 523 80"><path d="M35.656 20h-11.57C17.239 20 11.28 24.6 9.664 31.131L.667 71.509C-.305 75.873 3.092 80 7.657 80h51.27c4.528 0 8.446-3.09 9.422-7.43l9.973-44.347C79.272 24 76.313 20 71.908 20H35.656Z" fill="url(#stancer-a)"/><path d="M51.509 0h46.18c4.352 0 7.587 4 6.649 8.223l-.965 4.343H36.908l.35-1.435C38.856 4.599 44.744 0 51.509 0ZM35.112 19.913l-8.486 34.72C25.958 57.367 28.042 60 30.873 60h54.303c4.473 0 8.344-3.09 9.309-7.43l7.256-32.657H35.112Z" fill="#d0e9ff"/><g filter="url(#stancer-b)"><path d="m71.563 58 7.72-36.734H36.695L28.66 52.633c-.668 2.733 1.416 5.366 4.247 5.366h38.656Z" fill="url(#stancer-c)"/></g><g fill="#001834"><path d="M167.196 80c15.986 0 27.864-9.778 27.864-23.222 0-30.111-42.961-18.667-42.961-34.89 0-5.777 5.217-9.555 13.099-9.555 8.437 0 13.876 5.111 14.098 12.111h13.322c0-13.11-9.103-24.444-26.976-24.444-15.208 0-26.309 9.222-26.309 22 0 28.556 42.85 17.333 42.85 34.778 0 6.555-6.217 11-14.987 11-9.325 0-15.985-5.667-15.985-14h-12.878C138.333 69 150.545 80 167.196 80ZM234.841 36.333V24.556h-14.209V10h-12.433v14.555h-10.324v11.778h10.324v22.111c0 13.778 7.993 21.111 19.982 21.111 1.998 0 4.773-.222 6.66-.666V67.444c-1.221.334-2.664.445-3.996.445-5.994 0-10.213-2.778-10.213-9.667V36.333h14.209ZM284.092 24.555v9.556c-3.885-6.778-10.546-10.667-19.205-10.667-14.431 0-25.976 12.556-25.976 28.223 0 15.666 11.545 28.333 25.976 28.333 8.659 0 15.32-3.889 19.205-10.667v9.556h12.433V24.555h-12.433Zm-16.541 43.667c-9.213 0-16.429-7.333-16.429-16.555 0-9.111 7.216-16.445 16.429-16.445 9.436 0 16.541 7.111 16.541 16.445 0 9.444-7.105 16.555-16.541 16.555ZM335.68 23.444c-7.216 0-12.989 3.556-16.43 9.667v-8.555h-12.322v54.333h12.322V49.444c0-8.555 5.329-14.11 13.432-14.11 7.882 0 13.1 5.555 13.1 14.11V78.89h12.433v-31c0-15.111-8.659-24.445-22.535-24.445ZM394.339 80c13.21 0 24.644-8.667 26.087-21h-12.655c-1.332 5.444-6.993 9.111-13.432 9.111-8.992 0-15.875-7.111-15.875-16.333 0-9.334 6.883-16.445 15.875-16.445 6.439 0 11.989 3.667 13.321 8.667h12.655c-1.665-11.778-12.877-20.556-25.976-20.556-15.875 0-28.086 12.223-28.086 28.334 0 16.11 12.211 28.222 28.086 28.222ZM481.36 50.556c0-15.89-11.878-27.112-26.532-27.112-15.652 0-27.974 12.223-27.974 28C426.854 67.667 439.176 80 455.05 80c13.322 0 23.646-7.556 25.644-19h-12.433c-1.11 4.667-6.328 7.778-12.989 7.778-9.213 0-14.875-5.445-16.096-14.111h41.851c.222-1.111.333-2.667.333-4.111Zm-41.74-5.334c1.887-7 7.216-11.555 14.542-11.555 7.438 0 12.989 4.777 13.766 11.555H439.62ZM517.227 23.444c-6.439 0-11.434 3.111-14.654 8.334v-7.223h-12.322V78.89h12.322v-29c0-9.778 6.439-15.222 14.321-15.222 1.776 0 3.663.333 5.439.777V24.111c-1.665-.333-3.441-.667-5.106-.667Z"/></g></symbol><symbol id="visa-map" viewBox="0 0 198 132"><rect x="1" y="1" rx="17" width="196" height="130" fill="#fff" stroke="#000" stroke-opacity=".2"/><path d="M23.977 48.794c-4.316-2.367-9.241-4.27-14.748-5.592l.23-1.029h22.58c3.061.107 5.545 1.028 6.353 4.28l4.907 23.396 1.504 7.047 13.744-34.723h14.84l-22.06 50.866h-14.84l-12.51-44.245Zm60.326 44.3H70.27l8.778-50.921h14.034l-8.778 50.92-.001.001Zm50.876-49.676-1.908 10.996-1.269-.541c-2.54-1.03-5.892-2.058-10.455-1.95-5.541 0-8.025 2.22-8.083 4.387 0 2.384 3.006 3.955 7.915 6.285 8.086 3.63 11.836 8.071 11.78 13.868-.114 10.563-9.7 17.39-24.427 17.39-6.296-.055-12.36-1.304-15.652-2.71l1.964-11.431 1.848.813c4.562 1.898 7.564 2.71 13.168 2.71 4.041 0 8.373-1.573 8.428-4.985 0-2.22-1.846-3.847-7.276-6.34-5.312-2.438-12.414-6.5-12.3-13.814.06-9.912 9.82-16.846 23.68-16.846 5.429 0 9.82 1.138 12.587 2.168Zm18.654 31.636h11.665c-.577-2.546-3.235-14.734-3.235-14.734l-.981-4.388c-.693 1.896-1.905 4.984-1.846 4.875 0 0-4.448 11.322-5.603 14.247Zm17.323-32.881 11.322 50.92h-12.994s-1.272-5.85-1.674-7.639h-18.02c-.52 1.354-2.945 7.639-2.945 7.639h-14.726l20.847-46.695c1.443-3.305 3.987-4.225 7.335-4.225h10.855Z" fill="#171e6c"/></symbol><use href="#amex-map" x="37.5" y="58.334" width="50" height="33.333"/><view id="amex" viewBox="37.5 58.334 50 33.333"/><use href="#apple-pay-map" x="125" y="58.334" width="50" height="33.333"/><view id="apple-pay" viewBox="125 58.334 50 33.333"/><use href="#cb-map" x="212.5" y="58.334" width="50" height="33.333"/><view id="cb" viewBox="212.5 58.334 50 33.333"/><use href="#g-pay-map" x="300" y="58.334" width="50" height="33.333"/><view id="g-pay" viewBox="300 58.334 50 33.333"/><use href="#mastercard-map" x="387.5" y="58.334" width="50" height="33.333"/><view id="mastercard" viewBox="387.5 58.334 50 33.333"/><use href="#sepa-map" x="475" y="58.334" width="50" height="33.333"/><view id="sepa" viewBox="475 58.334 50 33.333"/><use href="#stancer-flat-map" x="562.5" y="71.203" width="50" height="7.595"/><view id="stancer-flat" viewBox="562.5 71.203 50 7.595"/><use href="#stancer-logo-map" x="650" y="50" width="50" height="50"/><view id="stancer-logo" viewBox="650 50 50 50"/><use href="#stancer-map" x="737.5" y="71.176" width="50" height="7.648"/><view id="stancer" viewBox="737.5 71.176 50 7.648"/><use href="#visa-map" x="825" y="58.334" width="50" height="33.333"/><view id="visa" viewBox="825 58.334 50 33.333"/><use href="#stancer-logo-map" x="37.5" y="212.5" width="20" height="20"/><line stroke="#ccc" stroke-linecap="round" y1="214.5" y2="230.5" x1="62.5" x2="62.5"/><use href="#visa-map" x="67.5" y="212.5" width="30" height="20"/><use href="#mastercard-map" x="102.5" y="212.5" width="30" height="20"/><line stroke="#ccc" stroke-linecap="round" y1="214.5" y2="230.5" x1="137.5" x2="137.5"/><use href="#stancer-map" x="142.5" y="214.75" width="101.331" height="15.5"/><view id="visa-mc-prefixed" viewBox="37.5 212.5 95 20"/><view id="visa-mc" viewBox="67.5 212.5 65 20"/><view id="visa-mc-suffixed" viewBox="67.5 212.5 95 20"/><view id="visa-mc-stancer" viewBox="67.5 212.5 176.331 20"/><view id="visa-mc-all" viewBox="37.5 212.5 206.331 20"/><use href="#stancer-logo-map" x="37.5" y="312.5" width="20" height="20"/><line stroke="#ccc" stroke-linecap="round" y1="314.5" y2="330.5" x1="62.5" x2="62.5"/><use href="#visa-map" x="67.5" y="312.5" width="30" height="20"/><use href="#mastercard-map" x="102.5" y="312.5" width="30" height="20"/><use href="#apple-pay-map" x="137.5" y="312.5" width="30" height="20"/><use href="#g-pay-map" x="172.5" y="312.5" width="30" height="20"/><line stroke="#ccc" stroke-linecap="round" y1="314.5" y2="330.5" x1="207.5" x2="207.5"/><use href="#stancer-map" x="212.5" y="314.75" width="101.331" height="15.5"/><view id="visa-mc-wallet-prefixed" viewBox="37.5 312.5 165 20"/><view id="visa-mc-wallet" viewBox="67.5 312.5 135 20"/><view id="visa-mc-wallet-suffixed" viewBox="67.5 312.5 165 20"/><view id="visa-mc-wallet-stancer" viewBox="67.5 312.5 246.331 20"/><view id="visa-mc-wallet-all" viewBox="37.5 312.5 276.331 20"/><use href="#stancer-logo-map" x="37.5" y="412.5" width="20" height="20"/><line stroke="#ccc" stroke-linecap="round" y1="414.5" y2="430.5" x1="62.5" x2="62.5"/><use href="#cb-map" x="67.5" y="412.5" width="30" height="20"/><use href="#visa-map" x="102.5" y="412.5" width="30" height="20"/><use href="#mastercard-map" x="137.5" y="412.5" width="30" height="20"/><line stroke="#ccc" stroke-linecap="round" y1="414.5" y2="430.5" x1="172.5" x2="172.5"/><use href="#stancer-map" x="177.5" y="414.75" width="101.331" height="15.5"/><view id="all-schemes-prefixed" viewBox="37.5 412.5 130 20"/><view id="all-schemes" viewBox="67.5 412.5 100 20"/><view id="all-schemes-suffixed" viewBox="67.5 412.5 130 20"/><view id="all-schemes-stancer" viewBox="67.5 412.5 211.331 20"/><view id="all-schemes-all" viewBox="37.5 412.5 241.331 20"/></svg>