<?xml version="1.0" encoding="utf-8"?>
<!-- Generator: Adobe Illustrator 25.4.1, SVG Export Plug-In . SVG Version: 6.00 Build 0)  -->
<svg version="1.1" id="Layer_1" xmlns="http://www.w3.org/2000/svg" xmlns:xlink="http://www.w3.org/1999/xlink" x="0px" y="0px"
	 width="82.2px" height="76.2px" viewBox="0 0 82.2 76.2" style="enable-background:new 0 0 82.2 76.2;" xml:space="preserve">
<style type="text/css">
	.st0{fill:#3093A0;}
	.st1{fill:#F8B563;}
	.st2{fill:#945D99;}
</style>
<path class="st0" d="M13.8,76.2h-0.3C6.1,76.2,0,70.1,0,62.8v-49C0,6.5,6.1,0.4,13.5,0.4h0.3c7.4,0,13.5,6.1,13.5,13.4v49
	C27.3,70.1,21.2,76.2,13.8,76.2z"/>
<path class="st1" d="M78.7,71.5l-0.2,0.2c-4.9,5.5-13.5,6-19,1.1l-55-49.1c-5.5-4.9-6-13.5-1.1-19l0.2-0.2c4.9-5.5,13.5-6,19-1.1
	l55,49.1C83.2,57.4,83.6,66,78.7,71.5z"/>
<path class="st2" d="M68.7,76.2h-0.3c-7.4,0-13.5-6.1-13.5-13.5V13.5C54.9,6.1,61,0,68.4,0h0.3c7.4,0,13.5,6.1,13.5,13.5v49.2
	C82.2,70.1,76.1,76.2,68.7,76.2z"/>
</svg>
