<svg width="35" height="35" viewBox="0 0 35 35" fill="none" xmlns="http://www.w3.org/2000/svg">
<circle cx="17.5" cy="17.5" r="17.5" fill="#5A9CF8"/>
<path d="M9 10.4C9 10.1613 9.09482 9.93239 9.2636 9.7636C9.43239 9.59482 9.66131 9.5 9.9 9.5H26.1C26.3387 9.5 26.5676 9.59482 26.7364 9.7636C26.9052 9.93239 27 10.1613 27 10.4V15.35C26.4033 15.35 25.831 15.5871 25.409 16.009C24.9871 16.431 24.75 17.0033 24.75 17.6C24.75 18.1967 24.9871 18.769 25.409 19.191C25.831 19.6129 26.4033 19.85 27 19.85V24.8C27 25.0387 26.9052 25.2676 26.7364 25.4364C26.5676 25.6052 26.3387 25.7 26.1 25.7H9.9C9.66131 25.7 9.43239 25.6052 9.2636 25.4364C9.09482 25.2676 9 25.0387 9 24.8V10.4ZM14.4765 23.9C14.5693 23.6363 14.7416 23.4079 14.9697 23.2463C15.1978 23.0848 15.4705 22.998 15.75 22.998C16.0295 22.998 16.3022 23.0848 16.5303 23.2463C16.7584 23.4079 16.9307 23.6363 17.0235 23.9H25.2V21.2288C24.5239 20.8937 23.9549 20.3765 23.557 19.7353C23.1592 19.0941 22.9484 18.3546 22.9484 17.6C22.9484 16.8454 23.1592 16.1059 23.557 15.4647C23.9549 14.8235 24.5239 14.3063 25.2 13.9712V11.3H17.0235C16.9307 11.5637 16.7584 11.7921 16.5303 11.9537C16.3022 12.1152 16.0295 12.202 15.75 12.202C15.4705 12.202 15.1978 12.1152 14.9697 11.9537C14.7416 11.7921 14.5693 11.5637 14.4765 11.3H10.8V23.9H14.4765ZM15.75 16.7C15.392 16.7 15.0486 16.5578 14.7954 16.3046C14.5422 16.0514 14.4 15.708 14.4 15.35C14.4 14.992 14.5422 14.6486 14.7954 14.3954C15.0486 14.1422 15.392 14 15.75 14C16.108 14 16.4514 14.1422 16.7046 14.3954C16.9578 14.6486 17.1 14.992 17.1 15.35C17.1 15.708 16.9578 16.0514 16.7046 16.3046C16.4514 16.5578 16.108 16.7 15.75 16.7ZM15.75 21.2C15.392 21.2 15.0486 21.0578 14.7954 20.8046C14.5422 20.5514 14.4 20.208 14.4 19.85C14.4 19.492 14.5422 19.1486 14.7954 18.8954C15.0486 18.6422 15.392 18.5 15.75 18.5C16.108 18.5 16.4514 18.6422 16.7046 18.8954C16.9578 19.1486 17.1 19.492 17.1 19.85C17.1 20.208 16.9578 20.5514 16.7046 20.8046C16.4514 21.0578 16.108 21.2 15.75 21.2Z" fill="white"/>
</svg>
