<svg width="35" height="35" viewBox="0 0 35 35" fill="none" xmlns="http://www.w3.org/2000/svg">
<circle cx="17.5" cy="17.5" r="17.5" fill="#5A9CF8"/>
<path d="M16.3368 25.155C12.7065 24.318 10 21.0657 10 17.1818C10 12.663 13.663 9 18.1818 9C22.7006 9 26.3636 12.663 26.3636 17.1818C26.3636 21.0657 23.6571 24.318 20.0268 25.155L18.1818 27L16.3368 25.155ZM14.1007 22.3012C14.8631 22.9109 15.7529 23.3412 16.7042 23.5604L17.1624 23.6659L18.1818 24.6862L19.2021 23.6659L19.6603 23.5595C20.6737 23.3259 21.6164 22.8529 22.4094 22.1801C21.8766 21.6332 21.2395 21.1987 20.5359 20.9023C19.8322 20.6059 19.0763 20.4537 18.3127 20.4545C16.6469 20.4545 15.1464 21.1664 14.1007 22.3012ZM12.9585 21.1255C13.6462 20.3957 14.476 19.8145 15.3968 19.4177C16.3177 19.0209 17.31 18.8168 18.3127 18.8182C19.2795 18.8169 20.2371 19.0067 21.1303 19.3765C22.0236 19.7463 22.835 20.289 23.518 20.9733C24.2184 19.9875 24.6321 18.8269 24.713 17.6203C24.794 16.4137 24.5391 15.2083 23.9766 14.1377C23.4141 13.0672 22.5661 12.1734 21.5265 11.5555C20.487 10.9377 19.2966 10.6199 18.0874 10.6374C16.8782 10.6549 15.6975 11.0071 14.6763 11.6548C13.6551 12.3025 12.8333 13.2205 12.3021 14.3069C11.7709 15.3933 11.551 16.6056 11.6669 17.8093C11.7828 19.0131 12.2299 20.1612 12.9585 21.1263V21.1255ZM18.1818 18C17.3138 18 16.4814 17.6552 15.8677 17.0414C15.2539 16.4277 14.9091 15.5953 14.9091 14.7273C14.9091 13.8593 15.2539 13.0269 15.8677 12.4131C16.4814 11.7993 17.3138 11.4545 18.1818 11.4545C19.0498 11.4545 19.8822 11.7993 20.496 12.4131C21.1097 13.0269 21.4545 13.8593 21.4545 14.7273C21.4545 15.5953 21.1097 16.4277 20.496 17.0414C19.8822 17.6552 19.0498 18 18.1818 18ZM18.1818 16.3636C18.6158 16.3636 19.032 16.1912 19.3389 15.8844C19.6458 15.5775 19.8182 15.1613 19.8182 14.7273C19.8182 14.2933 19.6458 13.8771 19.3389 13.5702C19.032 13.2633 18.6158 13.0909 18.1818 13.0909C17.7478 13.0909 17.3316 13.2633 17.0247 13.5702C16.7179 13.8771 16.5455 14.2933 16.5455 14.7273C16.5455 15.1613 16.7179 15.5775 17.0247 15.8844C17.3316 16.1912 17.7478 16.3636 18.1818 16.3636Z" fill="white"/>
</svg>
