<svg width="35" height="35" viewBox="0 0 35 35" fill="none" xmlns="http://www.w3.org/2000/svg">
<circle cx="17.5" cy="17.5" r="17.5" fill="#5A9CF8"/>
<path d="M20.6 25.2V10.8H9.8V24.3C9.8 24.5387 9.89482 24.7676 10.0636 24.9364C10.2324 25.1052 10.4613 25.2 10.7 25.2H20.6ZM23.3 27H10.7C9.98392 27 9.29716 26.7155 8.79081 26.2092C8.28446 25.7028 8 25.0161 8 24.3V9.9C8 9.66131 8.09482 9.43239 8.2636 9.2636C8.43239 9.09482 8.66131 9 8.9 9H21.5C21.7387 9 21.9676 9.09482 22.1364 9.2636C22.3052 9.43239 22.4 9.66131 22.4 9.9V16.2H26V24.3C26 25.0161 25.7155 25.7028 25.2092 26.2092C24.7028 26.7155 24.0161 27 23.3 27ZM22.4 18V24.3C22.4 24.5387 22.4948 24.7676 22.6636 24.9364C22.8324 25.1052 23.0613 25.2 23.3 25.2C23.5387 25.2 23.7676 25.1052 23.9364 24.9364C24.1052 24.7676 24.2 24.5387 24.2 24.3V18H22.4ZM11.6 12.6H17V18H11.6V12.6ZM13.4 14.4V16.2H15.2V14.4H13.4ZM11.6 18.9H18.8V20.7H11.6V18.9ZM11.6 21.6H18.8V23.4H11.6V21.6Z" fill="white"/>
</svg>
