<svg width="35" height="35" viewBox="0 0 35 35" fill="none" xmlns="http://www.w3.org/2000/svg">
<circle cx="17.5" cy="17.5" r="17.5" fill="#5A9CF8"/>
<path d="M13.2 10C15.352 10 17.2192 11.2136 18.1576 12.9928C19.0992 11.6664 20.648 10.8 22.4 10.8H25.2V12.8C25.2 15.672 22.872 18 20 18H18.8V18.8H22.8V24.4C22.8 25.284 22.084 26 21.2 26H14.8C13.916 26 13.2 25.284 13.2 24.4V18.8H17.2V17.2H15.6C12.5072 17.2 10 14.6928 10 11.6V10H13.2ZM21.2 20.4H14.8V24.4H21.2V20.4ZM23.6 12.4H22.4C20.412 12.4 18.8 14.012 18.8 16V16.4H20C21.988 16.4 23.6 14.788 23.6 12.8V12.4ZM13.2 11.6H11.6C11.6 13.8088 13.3912 15.6 15.6 15.6H17.2C17.2 13.3912 15.4088 11.6 13.2 11.6Z" fill="white"/>
</svg>
