<svg width="35" height="35" viewBox="0 0 35 35" fill="none" xmlns="http://www.w3.org/2000/svg">
<circle cx="17.5" cy="17.5" r="17.5" fill="#5A9CF8"/>
<path d="M12.1227 10.9186C15.4615 8.18245 20.3957 8.37285 23.5127 11.4898C26.832 14.8091 26.832 20.1913 23.5127 23.5106C20.1934 26.8298 14.8112 26.8298 11.492 23.5106C10.4733 22.4933 9.72996 21.2339 9.33164 19.8505C8.93331 18.4672 8.89311 17.0053 9.2148 15.6021L9.28025 15.3361L10.9242 15.7696C10.5166 17.3185 10.6689 18.9616 11.3541 20.4092C12.0394 21.8569 13.2137 23.0162 14.67 23.6828C16.1263 24.3495 17.7712 24.4807 19.3147 24.0533C20.8583 23.626 22.2015 22.6675 23.1076 21.3468C24.0137 20.0261 24.4245 18.4279 24.2677 16.834C24.1109 15.2401 23.3964 13.7526 22.2503 12.6338C21.1042 11.515 19.6 10.8367 18.0027 10.7184C16.4054 10.6001 14.8177 11.0494 13.5192 11.9871L13.3314 12.1282L14.1958 12.9926L10.2892 13.8936L11.1902 9.98701L12.1218 10.9186H12.1227ZM18.3523 12.4002V14.1002H20.4773V15.8002H15.8023C15.6961 15.8 15.5937 15.8396 15.5152 15.9111C15.4367 15.9827 15.3879 16.081 15.3783 16.1868C15.3687 16.2925 15.399 16.3981 15.4634 16.4826C15.5277 16.5671 15.6213 16.6245 15.7258 16.6434L15.8023 16.6502H19.2023C19.7659 16.6502 20.3064 16.8741 20.7049 17.2726C21.1035 17.6711 21.3273 18.2116 21.3273 18.7752C21.3273 19.3388 21.1035 19.8793 20.7049 20.2778C20.3064 20.6763 19.7659 20.9002 19.2023 20.9002H18.3523V22.6002H16.6523V20.9002H14.5273V19.2002H19.2023C19.3085 19.2004 19.411 19.1608 19.4894 19.0893C19.5679 19.0177 19.6168 18.9194 19.6264 18.8136C19.636 18.7078 19.6056 18.6023 19.5413 18.5178C19.477 18.4333 19.3833 18.3759 19.2788 18.357L19.2023 18.3502H15.8023C15.2387 18.3502 14.6982 18.1263 14.2997 17.7278C13.9012 17.3293 13.6773 16.7888 13.6773 16.2252C13.6773 15.6616 13.9012 15.1211 14.2997 14.7226C14.6982 14.3241 15.2387 14.1002 15.8023 14.1002H16.6523V12.4002H18.3523Z" fill="white"/>
</svg>
