<svg width="35" height="35" viewBox="0 0 35 35" fill="none" xmlns="http://www.w3.org/2000/svg">
<circle cx="17.5" cy="17.5" r="17.5" fill="#5A9CF8"/>
<path d="M18.8889 16.2222V19.7778H24.2222V16.2222H18.8889ZM17.1111 16.2222H11.7778V19.7778H17.1111V16.2222ZM18.8889 24.2222H24.2222V21.5556H18.8889V24.2222ZM17.1111 24.2222V21.5556H11.7778V24.2222H17.1111ZM18.8889 11.7778V14.4444H24.2222V11.7778H18.8889ZM17.1111 11.7778H11.7778V14.4444H17.1111V11.7778ZM10.8889 10H25.1111C25.3469 10 25.573 10.0937 25.7397 10.2603C25.9064 10.427 26 10.6531 26 10.8889V25.1111C26 25.3469 25.9064 25.573 25.7397 25.7397C25.573 25.9064 25.3469 26 25.1111 26H10.8889C10.6531 26 10.427 25.9064 10.2603 25.7397C10.0937 25.573 10 25.3469 10 25.1111V10.8889C10 10.6531 10.0937 10.427 10.2603 10.2603C10.427 10.0937 10.6531 10 10.8889 10Z" fill="white"/>
</svg>
