<svg width="35" height="35" viewBox="0 0 35 35" fill="none" xmlns="http://www.w3.org/2000/svg">
<circle cx="17.5" cy="17.5" r="17.5" fill="#5A9CF8"/>
<path d="M24.45 25.75H10.85C10.6246 25.75 10.4084 25.6604 10.249 25.501C10.0896 25.3416 10 25.1254 10 24.9V9.6C10 9.37457 10.0896 9.15837 10.249 8.99896C10.4084 8.83955 10.6246 8.75 10.85 8.75H24.45C24.6754 8.75 24.8916 8.83955 25.051 8.99896C25.2104 9.15837 25.3 9.37457 25.3 9.6V24.9C25.3 25.1254 25.2104 25.3416 25.051 25.501C24.8916 25.6604 24.6754 25.75 24.45 25.75ZM23.6 24.05V10.45H11.7V24.05H23.6ZM13.4 12.15H16.8V15.55H13.4V12.15ZM13.4 17.25H21.9V18.95H13.4V17.25ZM13.4 20.65H21.9V22.35H13.4V20.65ZM18.5 13H21.9V14.7H18.5V13Z" fill="white"/>
</svg>
