<svg xmlns="http://www.w3.org/2000/svg" width="40.591" height="40.7" viewBox="0 0 40.591 40.7">
  <g id="analysis" transform="translate(0 0.1)">
    <path id="Path_1" data-name="Path 1" d="M39.932,40.6H.658A1.411,1.411,0,0,1,0,39.174V6.482A29.994,29.994,0,0,1,.549,1,1.047,1.047,0,0,1,1.755.01H10.2A1.047,1.047,0,0,1,11.409,1c0,.219.11.439.11.658l.329,1.975A23.758,23.758,0,0,0,12.287.887a1.008,1.008,0,0,1,1.1-.987H22.05a1.008,1.008,0,0,1,1.1.987,17.56,17.56,0,0,1,.329,2.523c0,.439.219.439.549.439H39.274a1.242,1.242,0,0,1,1.316.768V39.832A4.771,4.771,0,0,1,39.932,40.6Zm-.549-30.5H1.207V39.393H39.384ZM1.207,5.166v3.62H39.384V5.166ZM22.38,3.959c-.11-.878-.219-1.755-.439-2.743H13.384c-.11.878-.219,1.755-.439,2.743ZM10.2,1.216H2.194c-.329,0-.549,0-.549.439,0,.219-.11.549-.11.768a6.475,6.475,0,0,0-.219,1.536h9.325C10.532,2.972,10.312,2.094,10.2,1.216Z" transform="translate(0 0)" fill="#fff"/>
    <path id="Path_2" data-name="Path 2" d="M29.287,31.891c-1.1.549-2.194.987-3.291,1.426a9.426,9.426,0,0,1-4.278.549c-.439,0-.658-.219-.658-.549s.219-.658.768-.549a10.129,10.129,0,0,0,3.181-.329,10.7,10.7,0,0,0,8.118-8.447,10.924,10.924,0,0,0-8.337-12.945,11.085,11.085,0,0,0-12.726,6.8A10.935,10.935,0,0,0,19.085,32.22c.11,0,.11,0,.219.11a.554.554,0,0,1,.439.768c-.11.329-.439.439-.878.329a11.916,11.916,0,0,1-8.337-8.337c0-.11-.11-.219-.11-.329-.11.219-.219.329-.329.549-.549.878-.987,1.865-1.536,2.743A1.322,1.322,0,0,1,8,28.6c-1.536.987-3.072,1.865-4.608,2.743-.439.219-.768.219-.987-.11s-.11-.658.329-.878a.34.34,0,0,1,.219-.11C4.275,29.478,5.7,28.6,7.017,27.832c.439-.219.549-.329.658-.549.768-1.316,1.426-2.633,2.194-3.949a1.276,1.276,0,0,0,.219-1.1,11.794,11.794,0,0,1,1.426-6.363,12.268,12.268,0,0,1,16.346-5.156,11.907,11.907,0,0,1,6.582,9.544,11.774,11.774,0,0,1-1.755,7.679c-.219.219-.11.439.11.549l4.937,4.937a2.747,2.747,0,0,1,.878,1.975,2.358,2.358,0,0,1-1.536,2.084,2.2,2.2,0,0,1-2.523-.549l-3.84-3.84A4.923,4.923,0,0,1,29.287,31.891Zm.987-.768.11.11,4.937,4.937c.11.11.219.219.329.219a1.184,1.184,0,0,0,1.207,0,1.152,1.152,0,0,0,.549-.987,1.391,1.391,0,0,0-.439-.987c-1.646-1.646-3.291-3.291-4.827-4.937l-.11-.11C31.371,30.136,30.823,30.575,30.274,31.123Z" transform="translate(0.223 0.92)" fill="#fff"/>
    <path id="Path_3" data-name="Path 3" d="M16.066,25.079c.768-1.1,1.426-2.084,2.194-3.181.11-.219.329-.439.439-.658.329-.549.658-.549,1.1-.11.549.549,1.207.987,1.865,1.536,1.1-1.316,2.194-2.523,3.4-3.84H23.855c-.439,0-.658-.219-.658-.549s.219-.549.658-.549h2.413a.582.582,0,0,1,.658.658V20.8c0,.439-.219.658-.549.658s-.549-.219-.549-.658v-.878l-.11-.11c0,.11-.11.219-.11.329-.987,1.207-2.084,2.3-3.072,3.511-.439.549-.658.549-1.207.11a19.068,19.068,0,0,1-1.646-1.426c-.219.329-.549.768-.768,1.1-.658.878-1.207,1.755-1.865,2.743-.329.439-.549.549-.987.219-.658-.329-1.426-.658-2.194-1.1a1.854,1.854,0,0,1,.219.549,8.446,8.446,0,0,0,7.679,4.388,8.65,8.65,0,1,0-1.316-17.223,8.47,8.47,0,0,0-6.363,4.169c0,.11-.11.11-.11.219a.593.593,0,0,1-.878.219.572.572,0,0,1-.11-.878,9.347,9.347,0,0,1,6.911-4.827,9.719,9.719,0,0,1,10.312,4.937,9.77,9.77,0,1,1-17.882,7.57,10.754,10.754,0,0,1-.219-4.937c.11-.549.329-.768.768-.658a.694.694,0,0,1,.439.878,10.038,10.038,0,0,0,0,3.62.6.6,0,0,0,.329.549A24.38,24.38,0,0,0,16.066,25.079Z" transform="translate(1.157 1.15)" fill="#fff"/>
    <path id="Path_4" data-name="Path 4" d="M14.416,5.8H26.045c.658,0,.878.219.878.549,0,.439-.329.658-.878.658H2.568c-.439,0-.768-.219-.768-.658,0-.329.329-.549.768-.549H14.416Z" transform="translate(0.175 0.573)" fill="#fff"/>
    <path id="Path_5" data-name="Path 5" d="M29.311,5.81h2.633c.439,0,.768.219.768.549s-.219.549-.768.549H26.568c-.439,0-.768-.219-.768-.658,0-.329.329-.549.768-.549A23.861,23.861,0,0,0,29.311,5.81Z" transform="translate(2.504 0.563)" fill="#fff"/>
    <path id="Path_6" data-name="Path 6" d="M34.736,6.368a.768.768,0,1,1-.768-.768A.75.75,0,0,1,34.736,6.368Z" transform="translate(3.222 0.553)" fill="#fff"/>
  </g>
</svg>
