<svg xmlns="http://www.w3.org/2000/svg" width="32.648" height="40.701" viewBox="0 0 32.648 40.701">
  <g id="color-palette" transform="translate(-50.523)">
    <path id="Path_261" data-name="Path 261" d="M82.27,16.474l-2.2-2.433A3.488,3.488,0,0,0,79.051,9.4L75.877,7.2a3.5,3.5,0,0,0-2.2-3.375l-7.018-2.8a3.462,3.462,0,0,0-2.61.012A3.479,3.479,0,0,0,61.568,0H54.013a3.494,3.494,0,0,0-3.49,3.49V33.433A7.264,7.264,0,0,0,62.56,38.912a.6.6,0,0,0,.053-.042L76.22,26.625a.6.6,0,0,0-.8-.889l-.561.5-1.821-2.014L75.9,20.092l2.6,2.875-1.183,1.064a.6.6,0,0,0,.8.889L82.022,21.4a3.49,3.49,0,0,0,.248-4.929Zm-2.947-4.617a2.279,2.279,0,0,1-.37,1.717L77.33,15.92l-3.695-2.555,1.956-4.906,2.78,1.922A2.279,2.279,0,0,1,79.323,11.857Zm-5.681,9.4-2.47-1.709L73.181,14.5l3.469,2.4Zm-3.688,5.332-1.246-.862,2.009-5.04,2.245,1.552Zm.92-9.523-1.732-.691a.6.6,0,0,0-.443,1.11l1.732.691-2.053,5.149L65.058,22V16.03l1.265.5a.6.6,0,0,0,.443-1.11l-1.708-.681V8.775l7.869,3.138Zm-7.011-3.73h-6.77a.6.6,0,1,0,0,1.2h6.77v5.544H51.718V14.527h2.827a.6.6,0,1,0,0-1.2H51.718V7.788H63.863v5.544ZM51.718,21.266H63.863V26.81H51.718Zm13.34,2.019,2.878,1.147-2.878,7.217Zm3.724,7.1.663.733-3.1,2.788ZM66.2,32.014l2.054-5.152,1.021.706ZM66.22,2.14l7.018,2.8a2.3,2.3,0,0,1,1.425,2.435s0,.009,0,.014a2.3,2.3,0,0,1-.142.532L73.37,10.8,65.058,7.488v-4a3.469,3.469,0,0,0-.306-1.427,2.276,2.276,0,0,1,1.468.078ZM54.013,1.2h7.556A2.3,2.3,0,0,1,63.863,3.49v3.1H51.718V3.49A2.3,2.3,0,0,1,54.013,1.2ZM51.718,33.433V28H63.863v5.428a6.072,6.072,0,0,1-12.144,0ZM73.971,27.04l-3.638,3.274-.853-.943,2.859-4.134Zm8-8.11a2.278,2.278,0,0,1-.752,1.586l-1.835,1.652L76.6,19.082l2.782-4.023,2,2.217a2.279,2.279,0,0,1,.59,1.654Z" transform="translate(0 0)" fill="#2277e8"/>
    <path id="Path_262" data-name="Path 262" d="M106.923,383.857a2.866,2.866,0,1,0,2.866,2.866A2.869,2.869,0,0,0,106.923,383.857Zm0,4.537a1.671,1.671,0,1,1,1.671-1.671A1.673,1.673,0,0,1,106.923,388.394Z" transform="translate(-49.268 -353.268)" fill="#2277e8"/>
  </g>
</svg>
