<svg xmlns="http://www.w3.org/2000/svg" width="32.999" height="39.854" viewBox="0 0 32.999 39.854">
  <g id="css" transform="translate(-6.4 0.1)">
    <path id="Path_21" data-name="Path 21" d="M38.9,8.332,37.905,7.4,30.978.9h0L30.415.375A1.408,1.408,0,0,0,29.448,0H8.3A1.819,1.819,0,0,0,6.5,2V38.287c0,.572.613,1.129,1.338,1.305.037.01.073.023.111.029a1.89,1.89,0,0,0,.346.033H37.5a1.89,1.89,0,0,0,.346-.033c.038-.007.074-.02.111-.029.725-.176,1.338-.733,1.338-1.305V9.557A1.512,1.512,0,0,0,38.9,8.332ZM30.552,2.437,36.7,8.2H30.552ZM8.3,38.287a.426.426,0,0,1-.144-.034.314.314,0,0,1-.193-.283V28.031H37.841V37.97a.314.314,0,0,1-.193.283.426.426,0,0,1-.144.034ZM7.958,26.664V2c0-.148.024-.633.337-.633H29.137a.993.993,0,0,0-.042.267V9.421a3.931,3.931,0,0,0-1.458-.533.685.685,0,1,0,0,1.367.708.708,0,0,1,.729.684v2.735a2.652,2.652,0,0,0,1.007,2.051,2.652,2.652,0,0,0-1.007,2.051v2.735a.708.708,0,0,1-.729.684.685.685,0,1,0,0,1.367,2.125,2.125,0,0,0,2.187-2.051V17.776a1.416,1.416,0,0,1,1.458-1.367.685.685,0,1,0,0-1.367,1.416,1.416,0,0,1-1.458-1.367V10.939a1.97,1.97,0,0,0-.569-1.367h8.3a1.191,1.191,0,0,0,.285-.04c0,.01,0,.014,0,.025V26.664Z" transform="translate(0)" fill="#2277e8" stroke="#2277e8" stroke-width="0.2"/>
    <path id="Path_22" data-name="Path 22" d="M19.258,45.26a1.411,1.411,0,0,1,.561-.444,1.687,1.687,0,0,1,.659-.131,1.5,1.5,0,0,1,.593.122,1.425,1.425,0,0,1,.519.392l.776-.692a2.55,2.55,0,0,0-.869-.561,2.892,2.892,0,0,0-1.047-.187,2.779,2.779,0,0,0-1.131.229,2.59,2.59,0,0,0-.911.669,3.139,3.139,0,0,0-.608,1.1,5.446,5.446,0,0,0,0,3.061,3.126,3.126,0,0,0,.608,1.1,2.551,2.551,0,0,0,.907.664,2.829,2.829,0,0,0,1.136.224,2.892,2.892,0,0,0,1.047-.187,2.55,2.55,0,0,0,.869-.561l-.776-.682a1.474,1.474,0,0,1-.537.392,1.645,1.645,0,0,1-.631.122,1.464,1.464,0,0,1-.641-.145,1.494,1.494,0,0,1-.542-.458,2.35,2.35,0,0,1-.374-.809,4.835,4.835,0,0,1-.145-1.2,4.735,4.735,0,0,1,.15-1.215A2.32,2.32,0,0,1,19.258,45.26Z" transform="translate(-2.912 -13.842)" fill="#2277e8" stroke="#2277e8" stroke-width="0.2"/>
    <path id="Path_23" data-name="Path 23" d="M30.03,47.386a3.69,3.69,0,0,0-.7-.4q-.374-.163-.692-.336a2.1,2.1,0,0,1-.533-.4.846.846,0,0,1-.215-.6.75.75,0,0,1,.075-.313,1.01,1.01,0,0,1,.206-.295,1.23,1.23,0,0,1,.3-.219.953.953,0,0,1,.356-.107,3.421,3.421,0,0,1,.552-.01,1.4,1.4,0,0,1,.346.066.934.934,0,0,1,.2.094,1.073,1.073,0,0,0,.126.075.858.858,0,0,0,.056-.094c.031-.056.069-.126.112-.211l.14-.271c.05-.1.094-.185.131-.267a1.911,1.911,0,0,0-.71-.257,4.914,4.914,0,0,0-.869-.079,2.422,2.422,0,0,0-.8.131,2.013,2.013,0,0,0-.664.379,1.8,1.8,0,0,0-.453.6,1.88,1.88,0,0,0-.168.813,1.53,1.53,0,0,0,.215.841,2.244,2.244,0,0,0,.542.584,4.277,4.277,0,0,0,.7.43q.373.183.7.364a2.313,2.313,0,0,1,.537.407.754.754,0,0,1,.215.542.993.993,0,0,1-.3.79,1.289,1.289,0,0,1-.874.267,2.386,2.386,0,0,1-.4-.038,4.055,4.055,0,0,1-.43-.1c-.144-.041-.282-.084-.416-.131a2,2,0,0,1-.332-.145l-.2.8a1.484,1.484,0,0,0,.379.239,2.5,2.5,0,0,0,.463.155,3.681,3.681,0,0,0,.481.079c.159.015.313.023.463.023a2.576,2.576,0,0,0,.935-.159,2.08,2.08,0,0,0,.692-.425,1.9,1.9,0,0,0,.435-.617,1.773,1.773,0,0,0,.155-.725,1.7,1.7,0,0,0-.215-.9A2.025,2.025,0,0,0,30.03,47.386Z" transform="translate(-5.363 -13.841)" fill="#2277e8" stroke="#2277e8" stroke-width="0.2"/>
    <path id="Path_24" data-name="Path 24" d="M37.44,47.386a3.691,3.691,0,0,0-.7-.4q-.374-.163-.692-.336a2.1,2.1,0,0,1-.533-.4.845.845,0,0,1-.215-.6.75.75,0,0,1,.075-.313,1.011,1.011,0,0,1,.206-.295,1.23,1.23,0,0,1,.3-.219.953.953,0,0,1,.356-.107,3.421,3.421,0,0,1,.552-.01,1.4,1.4,0,0,1,.346.066.934.934,0,0,1,.2.094,1.073,1.073,0,0,0,.126.075.861.861,0,0,0,.056-.094c.031-.056.069-.126.112-.211l.14-.271q.075-.145.131-.267a1.911,1.911,0,0,0-.71-.257,4.914,4.914,0,0,0-.869-.079,2.422,2.422,0,0,0-.8.131,2.013,2.013,0,0,0-.664.379,1.8,1.8,0,0,0-.453.6,1.88,1.88,0,0,0-.168.813,1.531,1.531,0,0,0,.215.841,2.243,2.243,0,0,0,.542.584,4.277,4.277,0,0,0,.7.43q.373.183.7.364a2.313,2.313,0,0,1,.537.407.754.754,0,0,1,.215.542.993.993,0,0,1-.3.79,1.289,1.289,0,0,1-.874.267,2.386,2.386,0,0,1-.4-.038,4.056,4.056,0,0,1-.43-.1c-.144-.041-.282-.084-.416-.131a2,2,0,0,1-.332-.145l-.2.8a1.484,1.484,0,0,0,.379.239,2.5,2.5,0,0,0,.463.155,3.681,3.681,0,0,0,.481.079c.159.015.313.023.463.023a2.576,2.576,0,0,0,.935-.159,2.08,2.08,0,0,0,.692-.425,1.9,1.9,0,0,0,.435-.617,1.773,1.773,0,0,0,.155-.725,1.7,1.7,0,0,0-.215-.9A2.025,2.025,0,0,0,37.44,47.386Z" transform="translate(-7.322 -13.841)" fill="#2277e8" stroke="#2277e8" stroke-width="0.2"/>
    <path id="Path_25" data-name="Path 25" d="M18.918,17.786V15.051a.684.684,0,0,1,.684-.684A.684.684,0,0,0,19.6,13a2.054,2.054,0,0,0-2.051,2.051v2.735a1.369,1.369,0,0,1-1.367,1.367.684.684,0,0,0,0,1.367,1.369,1.369,0,0,1,1.367,1.367v2.735A2.054,2.054,0,0,0,19.6,26.674a.684.684,0,0,0,0-1.367.684.684,0,0,1-.684-.684V21.888a2.718,2.718,0,0,0-.945-2.051A2.718,2.718,0,0,0,18.918,17.786Z" transform="translate(-2.365 -4.112)" fill="#2277e8" stroke="#2277e8" stroke-width="0.2"/>
  </g>
</svg>
