<svg xmlns="http://www.w3.org/2000/svg" width="40.292" height="37.771" viewBox="0 0 40.292 37.771">
  <g id="home" transform="translate(0 -16.017)">
    <path id="Path_4" data-name="Path 4" d="M70.376,215.888H43.62a3.624,3.624,0,0,1-3.62-3.62V193.222a1.259,1.259,0,0,1,2.518,0v19.046a1.1,1.1,0,0,0,1.1,1.1H70.376a1.1,1.1,0,0,0,1.1-1.1V193.222a1.259,1.259,0,0,1,2.518,0v19.046A3.624,3.624,0,0,1,70.376,215.888Z" transform="translate(-36.852 -162.1)" fill="#2277e8"/>
    <path id="Path_5" data-name="Path 5" d="M39.033,35.529a1.255,1.255,0,0,1-.89-.369L22.483,19.5a3.309,3.309,0,0,0-4.674,0L2.15,35.16A1.259,1.259,0,1,1,.369,33.379L16.028,17.72a5.83,5.83,0,0,1,8.235,0L39.923,33.379a1.259,1.259,0,0,1-.89,2.149Z" transform="translate(0 0)" fill="#2277e8"/>
    <path id="Path_6" data-name="Path 6" d="M187.332,304.352H177.259A1.259,1.259,0,0,1,176,303.092V291.918a3.939,3.939,0,0,1,3.935-3.935h4.722a3.939,3.939,0,0,1,3.935,3.935v11.175A1.259,1.259,0,0,1,187.332,304.352Zm-8.814-2.518h7.555v-9.916a1.418,1.418,0,0,0-1.417-1.417h-4.722a1.418,1.418,0,0,0-1.417,1.417Z" transform="translate(-162.149 -250.564)" fill="#2277e8"/>
  </g>
</svg>
