<svg xmlns="http://www.w3.org/2000/svg" width="42.986" height="37.215" viewBox="0 0 42.986 37.215">
  <g id="picture" transform="translate(0 0)">
    <path id="Path_17" data-name="Path 17" d="M144.255,68.628a3.134,3.134,0,1,0-3.134-3.134A3.138,3.138,0,0,0,144.255,68.628Zm0-5.01a1.875,1.875,0,1,1-1.875,1.875A1.877,1.877,0,0,1,144.255,63.618Zm0,0" transform="translate(-129.273 -57.123)" fill="#2277e8"/>
    <path id="Path_18" data-name="Path 18" d="M70.4,51.928H67.925a8.1,8.1,0,0,0-.483-1.163l1.753-1.754a1.1,1.1,0,0,0,0-1.554l-2-2a1.1,1.1,0,0,0-1.554,0L63.887,47.21a8.068,8.068,0,0,0-1.163-.483V44.248a1.092,1.092,0,0,0-.28-.73V39.872a.63.63,0,0,0-1.259,0V43.15H59.831V31.762a.63.63,0,0,0-.63-.63H31.759a.629.629,0,0,0-.63.63V53.367a.63.63,0,0,0,.63.63h17.16v1.354H42.463a.63.63,0,1,0,0,1.259H49.22a1.094,1.094,0,0,0,.8.345H52.5a8.08,8.08,0,0,0,.483,1.163l-1.754,1.754a1.1,1.1,0,0,0,0,1.554l2,2a1.1,1.1,0,0,0,1.554,0l1.754-1.753a8.085,8.085,0,0,0,1.163.483v2.478a1.1,1.1,0,0,0,1.1,1.1h2.831a1.1,1.1,0,0,0,1.1-1.1V62.156a8.117,8.117,0,0,0,1.163-.483l1.754,1.753a1.1,1.1,0,0,0,1.554,0l2-2a1.1,1.1,0,0,0,0-1.554l-1.753-1.754a8.085,8.085,0,0,0,.483-1.163H70.4a1.1,1.1,0,0,0,1.1-1.1V53.026a1.1,1.1,0,0,0-1.1-1.1ZM32.389,32.392H58.571V43.173a1.1,1.1,0,0,0-.875,1.076v1.006l-5.737-8.387a1.293,1.293,0,0,0-2.133,0L43.292,46.41,40.13,41.792a1.293,1.293,0,0,0-2.131,0l-5.61,8.1ZM38.96,52.737H32.389V52.1l6.647-9.6a.028.028,0,0,1,.027-.014.029.029,0,0,1,.028.014l3.438,5.022Zm10,0H40.486L50.865,37.578a.029.029,0,0,1,.027-.014.029.029,0,0,1,.028.014l6.359,9.3c-.258.1-.532.225-.746.334L54.78,45.456a1.1,1.1,0,0,0-1.554,0l-2,2a1.1,1.1,0,0,0,0,1.554l1.753,1.753a8.085,8.085,0,0,0-.483,1.163H50.017a1.1,1.1,0,0,0-1.06.809ZM70.242,55.7H67.806a1.094,1.094,0,0,0-1.049.775,6.87,6.87,0,0,1-.483,1.162,1.094,1.094,0,0,0,.193,1.291l1.723,1.723-1.774,1.774L64.693,60.7a1.094,1.094,0,0,0-1.291-.193,6.826,6.826,0,0,1-1.162.483,1.094,1.094,0,0,0-.775,1.049v2.435H58.955V62.038a1.094,1.094,0,0,0-.775-1.049,6.852,6.852,0,0,1-1.162-.483,1.094,1.094,0,0,0-1.292.193L54,62.422l-1.774-1.774,1.723-1.723a1.1,1.1,0,0,0,.193-1.292,6.793,6.793,0,0,1-.483-1.162,1.1,1.1,0,0,0-1.049-.775H50.178V53.187h2.435a1.1,1.1,0,0,0,1.049-.775,6.825,6.825,0,0,1,.483-1.162,1.1,1.1,0,0,0-.192-1.291l-1.724-1.723L54,46.461l1.723,1.723a1.1,1.1,0,0,0,1.292.193,6.8,6.8,0,0,1,1.162-.483l0,0a1.1,1.1,0,0,0,.771-1.047V44.409h2.509v2.436a1.1,1.1,0,0,0,.775,1.049,6.825,6.825,0,0,1,1.162.483,1.094,1.094,0,0,0,1.291-.193l1.724-1.723,1.774,1.774-1.723,1.723a1.094,1.094,0,0,0-.193,1.292,6.836,6.836,0,0,1,.483,1.162,1.094,1.094,0,0,0,1.049.776h2.435Zm0,0" transform="translate(-28.516 -28.518)" fill="#2277e8"/>
    <path id="Path_19" data-name="Path 19" d="M320.64,246.985a5.188,5.188,0,0,0,.276,10.368c.087,0,.175,0,.263-.007a5.188,5.188,0,1,0-.539-10.361Zm4.193,5.386a3.929,3.929,0,1,1-4.129-4.129c.067,0,.133,0,.2,0a3.929,3.929,0,0,1,3.929,4.134Zm0,0" transform="translate(-289.215 -226.243)" fill="#2277e8"/>
    <path id="Path_20" data-name="Path 20" d="M1.3,28.092h9.707a.63.63,0,1,0,0-1.259H1.3a.042.042,0,0,1-.042-.042V1.3A.042.042,0,0,1,1.3,1.26H32.627a.042.042,0,0,1,.042.042V8.416a.63.63,0,1,0,1.259,0V1.3a1.3,1.3,0,0,0-1.3-1.3H1.3A1.3,1.3,0,0,0,0,1.3V26.79a1.3,1.3,0,0,0,1.3,1.3Zm0,0" transform="translate(0)" fill="#2277e8"/>
  </g>
</svg>
