<svg xmlns="http://www.w3.org/2000/svg" width="35.106" height="35.334" viewBox="0 0 35.106 35.334">
  <g id="settings_1_" data-name="settings (1)" transform="translate(-1.423 0.25)">
    <g id="Group_11" data-name="Group 11" transform="translate(29.704 28.091)">
      <g id="Group_10" data-name="Group 10">
        <path id="Path_13" data-name="Path 13" d="M414.3,411.718a1.806,1.806,0,1,0,1.806,1.807A1.809,1.809,0,0,0,414.3,411.718Zm0,2.542a.736.736,0,1,1,.736-.736A.737.737,0,0,1,414.3,414.26Z" transform="translate(-412.498 -411.718)" fill="#2277e8" stroke="#2277e8" stroke-width="0.3"/>
      </g>
    </g>
    <g id="Group_13" data-name="Group 13" transform="translate(1.673 0)">
      <g id="Group_12" data-name="Group 12" transform="translate(0 0)">
        <path id="Path_14" data-name="Path 14" d="M36.377,29.8A4.735,4.735,0,0,0,34.8,26.379l-10.777-9.72L33.552,7.13a1.011,1.011,0,0,0,.184-.073L35.8,5.967a1,1,0,0,0,.241-1.6L33.718,2.045a1,1,0,0,0-1.6.242L31.03,4.35a1.015,1.015,0,0,0-.075.186l-4.5,4.5a.535.535,0,0,0,.757.757l4.127-4.127,1.082,1.082L21.868,17.3l-1.082-1.082,4.607-4.607a.535.535,0,1,0-.757-.757L21.294,14.2l-3.638-3.281A8.22,8.22,0,0,0,6.943.545a.535.535,0,0,0-.187.878l4.2,4.2a.658.658,0,0,1,0,.931L8.23,9.286a.658.658,0,0,1-.931,0l-4.2-4.2a.535.535,0,0,0-.878.187A8.219,8.219,0,0,0,12.423,16.037l2.813,3.076a2.888,2.888,0,0,1-3.624,1.378.535.535,0,0,0-.572.12L4.486,27.165A4.551,4.551,0,0,0,10.921,33.6l6.554-6.554a.535.535,0,0,0,.12-.572,2.895,2.895,0,0,1,3.747-3.747.535.535,0,0,0,.572-.12l1.236-1.236a1.971,1.971,0,0,0,0-2.787l-.526-.526.64-.64,10.818,9.757a3.708,3.708,0,1,1-5.219,5.255l-8.044-8.8a.535.535,0,1,0-.79.722l8.043,8.8A4.737,4.737,0,0,0,31.494,34.7h.11a4.778,4.778,0,0,0,4.773-4.9ZM32,4.807l1.025-1.941,2.2,2.2L33.28,6.087ZM12.975,15.054a.535.535,0,0,0-.582-.14A7.148,7.148,0,0,1,2.961,6.463l3.58,3.58a1.729,1.729,0,0,0,2.445,0l2.729-2.729a1.729,1.729,0,0,0,0-2.445L8.136,1.288a7.149,7.149,0,0,1,8.395,9.583.535.535,0,0,0,.139.6l3.867,3.488-.506.506-.526-.526a1.971,1.971,0,0,0-2.787,0L15.48,16.171a.535.535,0,0,0-.12.572,2.891,2.891,0,0,1,.194,1.129Zm9.419,5.559-1,1a3.969,3.969,0,0,0-3.9,1.006h0a3.968,3.968,0,0,0-1.006,3.9l-6.32,6.319a3.48,3.48,0,1,1-4.921-4.921l6.32-6.32a3.965,3.965,0,0,0,4.909-4.909l1-1a.9.9,0,0,1,1.273,0l.9.9,1.839,1.839.9.9A.9.9,0,0,1,22.395,20.614Z" transform="translate(-1.673 0)" fill="#2277e8" stroke="#2277e8" stroke-width="0.3"/>
      </g>
    </g>
    <g id="Group_15" data-name="Group 15" transform="translate(6.65 23.468)">
      <g id="Group_14" data-name="Group 14">
        <path id="Path_15" data-name="Path 15" d="M80.6,344.109a.535.535,0,0,0-.757,0l-5.071,5.071a.535.535,0,1,0,.757.757l5.071-5.071A.535.535,0,0,0,80.6,344.109Z" transform="translate(-74.614 -343.952)" fill="#2277e8" stroke="#2277e8" stroke-width="0.3"/>
      </g>
    </g>
    <g id="Group_17" data-name="Group 17" transform="translate(8.523 25.341)">
      <g id="Group_16" data-name="Group 16">
        <path id="Path_16" data-name="Path 16" d="M108.058,371.568a.535.535,0,0,0-.757,0l-5.071,5.071a.535.535,0,0,0,.757.757l5.071-5.071A.535.535,0,0,0,108.058,371.568Z" transform="translate(-102.073 -371.411)" fill="#2277e8" stroke="#2277e8" stroke-width="0.3"/>
      </g>
    </g>
  </g>
</svg>
