<svg xmlns="http://www.w3.org/2000/svg" width="150" height="150" viewBox="0 0 150 150">
  <g id="Group_1284" data-name="Group 1284" transform="translate(-4886 -496)">
    <rect id="Rectangle_349" data-name="Rectangle 349" width="150" height="150" transform="translate(4886 496)" fill="#f8f8f8"/>
    <g id="dark" transform="translate(4915.504 552.402)">
      <rect id="bg" width="91" height="38" rx="19" transform="translate(0.496 -0.402)" fill="#3700b3"/>
      <g id="moon" transform="translate(15.654 9.681)">
        <path id="moon_2_" data-name="moon (2)" d="M9.378,18.711a9.11,9.11,0,0,0,8.358-5.272,7.144,7.144,0,0,1-3.012.594A7.359,7.359,0,0,1,7.374,6.682,7.618,7.618,0,0,1,11.338.111,13.97,13.97,0,0,0,9.378,0a9.356,9.356,0,0,0,0,18.711Zm0,0" transform="translate(-0.023 0.001)" fill="#fff"/>
        <circle id="Ellipse_119" data-name="Ellipse 119" transform="translate(11.842 4.916)" fill="#fff"/>
      </g>
    </g>
  </g>
</svg>
