<svg xmlns="http://www.w3.org/2000/svg" width="150" height="150" viewBox="0 0 150 150">
  <g id="Group_1316" data-name="Group 1316" transform="translate(-1254 -2610)">
    <g id="Group_1293" data-name="Group 1293" transform="translate(-3632 1200)">
      <rect id="Rectangle_353" data-name="Rectangle 353" width="150" height="150" transform="translate(4886 1410)" fill="#f8f8f8"/>
    </g>
    <g id="Group_1315" data-name="Group 1315" transform="translate(-50.662 307.403)">
      <rect id="Rectangle_276" data-name="Rectangle 276" width="119.324" height="45.11" rx="22.555" transform="translate(1320 2355.542)" fill="#3700b3"/>
      <rect id="Rectangle_277" data-name="Rectangle 277" width="40.948" height="40.948" rx="20.474" transform="translate(1322.829 2357.623)" fill="#fff"/>
      <circle id="Ellipse_131" data-name="Ellipse 131" cx="9.233" cy="9.233" r="9.233" transform="translate(1407.348 2368.249)" fill="#fff"/>
      <path id="Path_1290" data-name="Path 1290" d="M235.282,3.693a.616.616,0,0,0,.616-.616V.616a.616.616,0,1,0-1.231,0V3.078A.616.616,0,0,0,235.282,3.693Z" transform="translate(1181.299 2363.324)" fill="#fff"/>
      <path id="Path_1291" data-name="Path 1291" d="M235.282,426.667a.616.616,0,0,0-.616.616v2.462a.616.616,0,1,0,1.231,0v-2.462A.616.616,0,0,0,235.282,426.667Z" transform="translate(1181.299 1961.279)" fill="#fff"/>
      <path id="Path_1292" data-name="Path 1292" d="M429.744,234.667h-2.462a.616.616,0,0,0,0,1.231h2.462a.616.616,0,0,0,0-1.231Z" transform="translate(1000.379 2142.199)" fill="#fff"/>
      <path id="Path_1293" data-name="Path 1293" d="M3.693,235.282a.616.616,0,0,0-.616-.616H.616a.616.616,0,1,0,0,1.231H3.078A.616.616,0,0,0,3.693,235.282Z" transform="translate(1402.424 2142.2)" fill="#fff"/>
      <path id="Path_1294" data-name="Path 1294" d="M118.7,34.557a.615.615,0,0,0,.534.308.607.607,0,0,0,.308-.082.616.616,0,0,0,.225-.841l-1.231-2.132a.615.615,0,0,0-1.066.615Z" transform="translate(1291.808 2333.638)" fill="#fff"/>
      <path id="Path_1295" data-name="Path 1295" d="M331.848,401.3a.616.616,0,0,0-1.066.616l1.231,2.132a.615.615,0,0,0,.534.308.607.607,0,0,0,.308-.082.616.616,0,0,0,.225-.841Z" transform="translate(1090.806 1985.465)" fill="#fff"/>
      <path id="Path_1296" data-name="Path 1296" d="M401.552,119.592a.607.607,0,0,0,.308-.082l2.132-1.231a.616.616,0,0,0-.571-1.091l-.045.026-2.132,1.231a.616.616,0,0,0,.308,1.149h0Z" transform="translate(1024.623 2252.965)" fill="#fff"/>
      <path id="Path_1297" data-name="Path 1297" d="M33.884,330.546l-2.132,1.231a.616.616,0,0,0,.308,1.149.607.607,0,0,0,.308-.082l2.132-1.231a.616.616,0,0,0-.571-1.091l-.045.026Z" transform="translate(1372.794 2051.943)" fill="#fff"/>
      <path id="Path_1298" data-name="Path 1298" d="M31.365,118.258l2.132,1.231a.607.607,0,0,0,.307.082.616.616,0,0,0,.308-1.149l-2.132-1.231a.616.616,0,0,0-.66,1.039l.045.026Z" transform="translate(1373.18 2252.986)" fill="#fff"/>
      <path id="Path_1299" data-name="Path 1299" d="M403.627,331.757l-2.132-1.231a.616.616,0,0,0-.66,1.039l.045.026,2.132,1.231a.607.607,0,0,0,.308.082.616.616,0,0,0,.308-1.149h0Z" transform="translate(1024.988 2051.962)" fill="#fff"/>
      <path id="Path_1300" data-name="Path 1300" d="M330.988,34.784a.607.607,0,0,0,.308.082.616.616,0,0,0,.534-.308l1.231-2.132a.616.616,0,0,0-1.066-.615l-1.231,2.132A.615.615,0,0,0,330.988,34.784Z" transform="translate(1090.825 2333.635)" fill="#fff"/>
      <path id="Path_1301" data-name="Path 1301" d="M119.487,401.02a.616.616,0,0,0-.841.225l-1.231,2.132a.616.616,0,0,0,.225.841.607.607,0,0,0,.308.082.616.616,0,0,0,.534-.308l1.231-2.132a.615.615,0,0,0-.226-.841Z" transform="translate(1291.862 1985.524)" fill="#fff"/>
    </g>
  </g>
</svg>
