<svg xmlns="http://www.w3.org/2000/svg" width="150" height="150" viewBox="0 0 150 150">
  <g id="Group_1290" data-name="Group 1290" transform="translate(-4883 -2077)">
    <rect id="Rectangle_356" data-name="Rectangle 356" width="150" height="150" transform="translate(4883 2077)" fill="#f8f8f8"/>
    <g id="Group_1282" data-name="Group 1282" transform="translate(4038.5 -10)">
      <ellipse id="Ellipse_124" data-name="Ellipse 124" cx="42" cy="42.5" rx="42" ry="42.5" transform="translate(877.5 2120)" fill="#3700b3"/>
      <path id="moon_2_" data-name="moon (2)" d="M24.847,49.651A24.173,24.173,0,0,0,47.025,35.662a18.956,18.956,0,0,1-7.992,1.577,19.527,19.527,0,0,1-19.5-19.5A20.214,20.214,0,0,1,30.046.3,37.068,37.068,0,0,0,24.847,0a24.824,24.824,0,0,0,0,49.649Zm0,0" transform="translate(895.596 2137.188)" fill="#fff"/>
    </g>
  </g>
</svg>
