<svg xmlns="http://www.w3.org/2000/svg" width="150" height="150" viewBox="0 0 150 150">
  <g id="Group_1285" data-name="Group 1285" transform="translate(-4886 -756)">
    <rect id="Rectangle_350" data-name="Rectangle 350" width="150" height="150" transform="translate(4886 756)" fill="#f8f8f8"/>
    <g id="Group_1276" data-name="Group 1276" transform="translate(4097 -193.055)">
      <rect id="Rectangle_305" data-name="Rectangle 305" width="119" height="9" rx="4.5" transform="translate(805 1020.055)" fill="#03dac5"/>
      <circle id="Ellipse_122" data-name="Ellipse 122" cx="18.5" cy="18.5" r="18.5" transform="translate(812 1006.055)" fill="#3700b3"/>
      <g id="sun_2_" data-name="sun (2)" transform="translate(823.591 1017.892)">
        <path id="Path_1260" data-name="Path 1260" d="M120.734,117a3.734,3.734,0,1,0,3.734,3.734A3.738,3.738,0,0,0,120.734,117Zm0,6.663a2.928,2.928,0,1,1,2.928-2.928A2.932,2.932,0,0,1,120.734,123.663Z" transform="translate(-113.857 -113.857)" fill="#fff"/>
        <path id="Path_1261" data-name="Path 1261" d="M241.4,2.193a.4.4,0,0,0,.4-.4V.4A.4.4,0,1,0,241,.4V1.79A.4.4,0,0,0,241.4,2.193Z" transform="translate(-234.525 0)" fill="#fff"/>
        <path id="Path_1262" data-name="Path 1262" d="M432.147,241H430.76a.4.4,0,0,0,0,.806h1.387a.4.4,0,1,0,0-.806Z" transform="translate(-418.795 -234.525)" fill="#fff"/>
        <path id="Path_1263" data-name="Path 1263" d="M241.4,430.357a.4.4,0,0,0-.4.4v1.387a.4.4,0,1,0,.806,0V430.76A.4.4,0,0,0,241.4,430.357Z" transform="translate(-234.525 -418.795)" fill="#fff"/>
        <path id="Path_1264" data-name="Path 1264" d="M2.193,241.4a.4.4,0,0,0-.4-.4H.4a.4.4,0,1,0,0,.806H1.79A.4.4,0,0,0,2.193,241.4Z" transform="translate(0 -234.525)" fill="#fff"/>
        <path id="Path_1265" data-name="Path 1265" d="M375.3,72.374a.4.4,0,0,0,.285-.118l.981-.981a.4.4,0,0,0-.57-.57l-.981.981a.4.4,0,0,0,.285.688Z" transform="translate(-364.824 -68.69)" fill="#fff"/>
        <path id="Path_1266" data-name="Path 1266" d="M375.583,375.015a.4.4,0,0,0-.57.57l.981.981a.4.4,0,0,0,.57-.57Z" transform="translate(-364.824 -364.826)" fill="#fff"/>
        <path id="Path_1267" data-name="Path 1267" d="M71.686,375.014l-.981.981a.4.4,0,1,0,.57.57l.981-.981a.4.4,0,0,0-.57-.57Z" transform="translate(-68.69 -364.824)" fill="#fff"/>
        <path id="Path_1268" data-name="Path 1268" d="M71.686,72.255a.4.4,0,1,0,.57-.57l-.981-.981a.4.4,0,0,0-.57.57Z" transform="translate(-68.69 -68.69)" fill="#fff"/>
        <path id="Path_1269" data-name="Path 1269" d="M313.914,20.505a.4.4,0,0,0,.527-.218l.532-1.281a.4.4,0,1,0-.744-.309l-.532,1.281A.4.4,0,0,0,313.914,20.505Z" transform="translate(-305.238 -17.953)" fill="#fff"/>
        <path id="Path_1270" data-name="Path 1270" d="M417.694,314.229l-1.281-.532a.4.4,0,1,0-.309.744l1.281.532a.4.4,0,0,0,.309-.744Z" transform="translate(-404.683 -305.239)" fill="#fff"/>
        <path id="Path_1271" data-name="Path 1271" d="M149.6,415.886a.4.4,0,0,0-.527.217l-.532,1.281a.4.4,0,1,0,.744.309l.532-1.281A.4.4,0,0,0,149.6,415.886Z" transform="translate(-144.52 -404.683)" fill="#fff"/>
        <path id="Path_1272" data-name="Path 1272" d="M18.7,149.285l1.281.532a.4.4,0,0,0,.309-.744l-1.281-.532a.4.4,0,0,0-.309.744Z" transform="translate(-17.954 -144.52)" fill="#fff"/>
        <path id="Path_1273" data-name="Path 1273" d="M416.055,150.116a.4.4,0,0,0,.526.219l1.282-.529a.4.4,0,1,0-.308-.745l-1.282.529A.4.4,0,0,0,416.055,150.116Z" transform="translate(-404.848 -145.026)" fill="#fff"/>
        <path id="Path_1274" data-name="Path 1274" d="M314.03,416.274a.4.4,0,0,0-.745.308l.529,1.282a.4.4,0,1,0,.745-.308Z" transform="translate(-304.839 -404.848)" fill="#fff"/>
        <path id="Path_1275" data-name="Path 1275" d="M20.29,313.5a.4.4,0,0,0-.526-.219l-1.282.529a.4.4,0,1,0,.308.745l1.282-.529A.4.4,0,0,0,20.29,313.5Z" transform="translate(-17.742 -304.839)" fill="#fff"/>
        <path id="Path_1276" data-name="Path 1276" d="M149.59,20.072a.4.4,0,0,0,.745-.308l-.529-1.282a.4.4,0,0,0-.745.308Z" transform="translate(-145.026 -17.743)" fill="#fff"/>
      </g>
    </g>
  </g>
</svg>
