<svg xmlns="http://www.w3.org/2000/svg" width="150" height="150" viewBox="0 0 150 150">
  <g id="Group_1316" data-name="Group 1316" transform="translate(-1254 -2610)">
    <g id="Group_1293" data-name="Group 1293" transform="translate(-3632 1200)">
      <rect id="Rectangle_353" data-name="Rectangle 353" width="150" height="150" transform="translate(4886 1410)" fill="#f8f8f8"/>
    </g>
    <g id="Group_1315" data-name="Group 1315" transform="translate(-213.5 -3.5)">
      <circle id="Ellipse_130" data-name="Ellipse 130" cx="33.5" cy="33.5" r="33.5" transform="translate(1509.5 2655.5)" fill="#3700b3"/>
      <g id="sun_1_" data-name="sun (1)" transform="translate(1522.729 2668.729)">
        <circle id="Ellipse_114" data-name="Ellipse 114" cx="13.07" cy="13.07" r="13.07" transform="translate(6.97 6.97)" fill="#fff"/>
        <g id="Group_1174" data-name="Group 1174">
          <path id="Path_1234" data-name="Path 1234" d="M235.537,5.228a.871.871,0,0,0,.871-.871V.871a.871.871,0,1,0-1.743,0V4.357A.871.871,0,0,0,235.537,5.228Z" transform="translate(-215.497 0)" fill="#fff"/>
          <path id="Path_1235" data-name="Path 1235" d="M235.537,426.667a.871.871,0,0,0-.871.871v3.485a.871.871,0,0,0,1.743,0v-3.485A.871.871,0,0,0,235.537,426.667Z" transform="translate(-215.497 -391.814)" fill="#fff"/>
          <path id="Path_1236" data-name="Path 1236" d="M431.023,234.667h-3.485a.871.871,0,0,0,0,1.743h3.485a.871.871,0,0,0,0-1.743Z" transform="translate(-391.813 -215.498)" fill="#fff"/>
          <path id="Path_1237" data-name="Path 1237" d="M5.228,235.537a.871.871,0,0,0-.871-.871H.871a.871.871,0,1,0,0,1.743H4.357A.871.871,0,0,0,5.228,235.537Z" transform="translate(0 -215.497)" fill="#fff"/>
          <path id="Path_1238" data-name="Path 1238" d="M119.244,35.825a.871.871,0,0,0,.756.436.859.859,0,0,0,.436-.117.871.871,0,0,0,.319-1.19l-1.743-3.018a.871.871,0,0,0-1.509.871Z" transform="translate(-107.8 -28.931)" fill="#fff"/>
          <path id="Path_1239" data-name="Path 1239" d="M332.324,401.43a.871.871,0,0,0-1.509.871l1.743,3.018a.871.871,0,0,0,.756.436.859.859,0,0,0,.436-.117.871.871,0,0,0,.319-1.19Z" transform="translate(-303.688 -368.243)" fill="#fff"/>
          <path id="Path_1240" data-name="Path 1240" d="M401.808,120.62a.859.859,0,0,0,.436-.117l3.018-1.743a.871.871,0,1,0-.808-1.544q-.033.017-.064.037L401.372,119a.871.871,0,0,0,.436,1.626v0Z" transform="translate(-368.185 -107.551)" fill="#fff"/>
          <path id="Path_1241" data-name="Path 1241" d="M34.9,330.585l-3.018,1.743a.871.871,0,0,0,.436,1.626.859.859,0,0,0,.436-.117l3.018-1.743a.871.871,0,0,0-.808-1.544q-.033.017-.064.037Z" transform="translate(-28.876 -303.457)" fill="#fff"/>
          <path id="Path_1242" data-name="Path 1242" d="M31.5,118.741l3.018,1.743a.859.859,0,0,0,.434.117.871.871,0,0,0,.436-1.626l-3.018-1.743a.871.871,0,0,0-.935,1.471q.031.02.064.037Z" transform="translate(-28.499 -107.531)" fill="#fff"/>
          <path id="Path_1243" data-name="Path 1243" d="M404.906,332.309l-3.018-1.743a.871.871,0,0,0-.935,1.471q.031.02.064.037l3.018,1.743a.859.859,0,0,0,.436.117.871.871,0,0,0,.436-1.626v0Z" transform="translate(-367.83 -303.438)" fill="#fff"/>
          <path id="Path_1244" data-name="Path 1244" d="M331.115,36.146a.859.859,0,0,0,.436.117.871.871,0,0,0,.756-.436l1.743-3.018a.871.871,0,0,0-1.509-.871L330.8,34.956A.871.871,0,0,0,331.115,36.146Z" transform="translate(-303.669 -28.933)" fill="#fff"/>
          <path id="Path_1245" data-name="Path 1245" d="M120.382,401.054a.871.871,0,0,0-1.19.319l-1.743,3.018a.871.871,0,0,0,.319,1.19.859.859,0,0,0,.436.117.871.871,0,0,0,.756-.436l1.743-3.018a.871.871,0,0,0-.32-1.19Z" transform="translate(-107.748 -368.186)" fill="#fff"/>
        </g>
      </g>
    </g>
  </g>
</svg>
