<svg xmlns="http://www.w3.org/2000/svg" xmlns:xlink="http://www.w3.org/1999/xlink" width="150" height="150" viewBox="0 0 150 150">
  <defs>
    <linearGradient id="linear-gradient" x1="0.5" x2="0.5" y2="1" gradientUnits="objectBoundingBox">
      <stop offset="0" stop-color="#00fbd5"/>
      <stop offset="1" stop-color="#00c6fe"/>
    </linearGradient>
  </defs>
  <g id="Group_1292" data-name="Group 1292" transform="translate(-4886 -1198)">
    <rect id="Rectangle_352" data-name="Rectangle 352" width="150" height="150" transform="translate(4886 1198)" fill="#f8f8f8"/>
    <g id="Group_1278" data-name="Group 1278" transform="translate(68 -428.235)">
      <rect id="Rectangle_339" data-name="Rectangle 339" width="122" height="50" rx="25" transform="translate(4832 1676.235)" fill="#3a3a3a"/>
      <rect id="Rectangle_341" data-name="Rectangle 341" width="116" height="44" rx="22" transform="translate(4835 1679.235)" fill="#242424"/>
      <rect id="Rectangle_340" data-name="Rectangle 340" width="44" height="44" rx="22" transform="translate(4907 1679.235)"/>
      <text id="DARK_MODE" data-name="DARK MODE" transform="translate(4845 1704.235)" fill="#fff" font-size="8" font-family="OpenSans-Semibold, Open Sans" font-weight="600"><tspan x="0" y="0">DARK MODE</tspan></text>
      <g id="Group_1" data-name="Group 1" transform="translate(4912.797 1685.781)">
        <g id="moon" transform="translate(0 0)">
          <path id="moon_2_" data-name="moon (2)" d="M13.871,31A15.094,15.094,0,0,1,.023,22.268a11.837,11.837,0,0,0,4.991.985A12.193,12.193,0,0,0,17.193,11.073,12.622,12.622,0,0,0,10.625.184,23.146,23.146,0,0,1,13.871,0a15.5,15.5,0,1,1,0,31Zm0,0" transform="translate(2.394 0.001)" fill="#f6de3d"/>
          <ellipse id="Ellipse_117" data-name="Ellipse 117" cy="0.812" ry="0.812" transform="translate(0 5.847)" fill="url(#linear-gradient)"/>
          <circle id="Ellipse_118" data-name="Ellipse 118" transform="translate(6.028 18.135)" fill="url(#linear-gradient)"/>
          <circle id="Ellipse_119" data-name="Ellipse 119" transform="translate(13.216 7.47)" fill="url(#linear-gradient)"/>
          <circle id="Ellipse_120" data-name="Ellipse 120" transform="translate(6.028 0.05)" fill="url(#linear-gradient)"/>
        </g>
        <path id="Path_1" data-name="Path 1" d="M34.645,106.027a2.7,2.7,0,0,1,1.989-1.989,2.7,2.7,0,0,1-1.989-1.989,2.7,2.7,0,0,1-1.989,1.989A2.7,2.7,0,0,1,34.645,106.027Z" transform="translate(-22.554 -97.7)" fill="#f6de3d"/>
        <path id="Path_3" data-name="Path 3" d="M34.645,106.027a2.7,2.7,0,0,1,1.989-1.989,2.7,2.7,0,0,1-1.989-1.989,2.7,2.7,0,0,1-1.989,1.989A2.7,2.7,0,0,1,34.645,106.027Z" transform="translate(-24.972 -87.87)" fill="#f6de3d"/>
        <path id="Path_2" data-name="Path 2" d="M35.265,107.266a3.547,3.547,0,0,1,2.609-2.609,3.547,3.547,0,0,1-2.609-2.609,3.547,3.547,0,0,1-2.609,2.609A3.547,3.547,0,0,1,35.265,107.266Z" transform="translate(-27.159 -93.707)" fill="#f6de3d"/>
      </g>
    </g>
  </g>
</svg>
