<svg xmlns="http://www.w3.org/2000/svg" width="150" height="150" viewBox="0 0 150 150">
  <g id="Group_1315" data-name="Group 1315" transform="translate(-1254 -3016)">
    <g id="Group_1292" data-name="Group 1292" transform="translate(-3632 1818)">
      <rect id="Rectangle_352" data-name="Rectangle 352" width="150" height="150" transform="translate(4886 1198)" fill="#f8f8f8"/>
    </g>
    <g id="Group_1310" data-name="Group 1310" transform="translate(-3541.931 1394.115)">
      <rect id="Rectangle_339" data-name="Rectangle 339" width="77.862" height="29.771" rx="14.885" transform="translate(4832 1682)"/>
      <path id="Path_1278" data-name="Path 1278" d="M0,37Z" transform="translate(4833.908 1658.74)" fill="#242424"/>
      <path id="Path_1279" data-name="Path 1279" d="M0,33.353Z" transform="translate(4879.709 1662.388)"/>
      <g id="Group_1" data-name="Group 1" transform="translate(4883.071 1686.991)">
        <g id="moon" transform="translate(0 0)">
          <path id="moon_2_" data-name="moon (2)" d="M9.113,19.786a8.827,8.827,0,0,0,8.121-5.575,6.457,6.457,0,0,1-2.927.628c-3.943,0-7.138-3.482-7.142-7.773A8.179,8.179,0,0,1,11.017.117,12.486,12.486,0,0,0,9.113,0C4.093,0,.023,4.429.023,9.893s4.07,9.893,9.09,9.893Zm0,0" transform="translate(-0.023 0.001)" fill="#fff"/>
        </g>
      </g>
    </g>
  </g>
</svg>
