<svg xmlns="http://www.w3.org/2000/svg" xmlns:xlink="http://www.w3.org/1999/xlink" width="41.169" height="53.142" viewBox="0 0 41.169 53.142">
  <defs>
    <linearGradient id="linear-gradient" x1="0.5" x2="0.5" y2="1" gradientUnits="objectBoundingBox">
      <stop offset="0" stop-color="#fdfdfd"/>
      <stop offset="1" stop-color="#eaeaea"/>
    </linearGradient>
  </defs>
  <path id="wi-humidity" d="M7.56,38.045a22.119,22.119,0,0,1,2-8.417,47.259,47.259,0,0,1,5.167-9.195A101.133,101.133,0,0,1,26.005,7.46l2.083-2a17.782,17.782,0,0,0,2.306,2c1.139,1.167,2.889,3.083,5.222,5.806s4.361,5.139,6.028,7.361a49.36,49.36,0,0,1,5.028,9.028,22.019,22.019,0,0,1,2.056,8.417,19.917,19.917,0,0,1-1.611,7.945A20.646,20.646,0,0,1,28.089,58.6a20.382,20.382,0,0,1-7.945-1.583,20.072,20.072,0,0,1-6.556-4.306A20.694,20.694,0,0,1,7.56,38.045Zm6.278-8.139a9.439,9.439,0,0,0,1.445,5.528A5.077,5.077,0,0,0,19.7,37.489a5.18,5.18,0,0,0,4.472-2.056,9.524,9.524,0,0,0,1.5-5.528,9.681,9.681,0,0,0-1.5-5.556A5.147,5.147,0,0,0,19.7,22.294a5.077,5.077,0,0,0-4.417,2.056A9.473,9.473,0,0,0,13.838,29.906Zm4.361,0v-.972c0-.222.028-.528.056-.917a3.12,3.12,0,0,1,.139-.889c.083-.194.139-.444.25-.667a1.091,1.091,0,0,1,.417-.5,1.218,1.218,0,0,1,.639-.167,1.239,1.239,0,0,1,.917.333,1.967,1.967,0,0,1,.472,1.056c.083.5.139.889.167,1.25s.028.833.028,1.445c0,.639,0,1.111-.028,1.445s-.083.75-.167,1.25a1.967,1.967,0,0,1-.472,1.056,1.239,1.239,0,0,1-.917.333,1.218,1.218,0,0,1-.639-.167.931.931,0,0,1-.417-.5,4,4,0,0,1-.25-.667,5.461,5.461,0,0,1-.139-.889c-.028-.389-.056-.694-.056-.889Zm1.639,21.529h3.667L37.367,21.6h-3.75Zm11.945-8.306a9.682,9.682,0,0,0,1.528,5.556,5.128,5.128,0,0,0,4.445,2.056A5.1,5.1,0,0,0,42.2,48.684a9.619,9.619,0,0,0,1.472-5.556A9.524,9.524,0,0,0,42.2,37.6a5.1,5.1,0,0,0-4.445-2.056A5.128,5.128,0,0,0,33.311,37.6,9.322,9.322,0,0,0,31.783,43.129Zm4.361,0c0-.639,0-1.111.028-1.445s.083-.75.167-1.25a1.872,1.872,0,0,1,.472-1.056,1.239,1.239,0,0,1,.917-.333,1.32,1.32,0,0,1,.667.167,1.061,1.061,0,0,1,.444.528c.111.25.194.472.278.667a3.12,3.12,0,0,1,.139.889l.028.889V44.1l-.028.889-.139.889-.278.667-.444.528-.667.167a1.239,1.239,0,0,1-.917-.333,1.968,1.968,0,0,1-.472-1.056q-.125-.75-.167-1.25C36.145,44.268,36.145,43.768,36.145,43.129Z" transform="translate(-7.56 -5.46)" fill="url(#linear-gradient)"/>
</svg>
