<svg xmlns="http://www.w3.org/2000/svg" xmlns:xlink="http://www.w3.org/1999/xlink" width="68.579" height="52.512" viewBox="0 0 68.579 52.512">
  <defs>
    <linearGradient id="linear-gradient" x1="0.5" x2="0.5" y2="1" gradientUnits="objectBoundingBox">
      <stop offset="0" stop-color="#fff845"/>
      <stop offset="1" stop-color="#fae91d"/>
    </linearGradient>
  </defs>
  <path id="wi-sunrise" d="M2.75,37.4a2.75,2.75,0,0,1,.84-1.931,3.012,3.012,0,0,1,1.959-.812h6.522a2.477,2.477,0,0,1,1.875.812A2.754,2.754,0,0,1,14.7,37.4a2.814,2.814,0,0,1-.756,2.015,2.521,2.521,0,0,1-1.875.812H5.549a2.67,2.67,0,0,1-1.959-.84A2.826,2.826,0,0,1,2.75,37.4Zm9.321-22.337a2.689,2.689,0,0,1,.728-1.9,2.979,2.979,0,0,1,1.987-.84,2.627,2.627,0,0,1,1.9.812l4.591,4.619a2.907,2.907,0,0,1,.784,1.931,2.681,2.681,0,0,1-.756,1.959,2.538,2.538,0,0,1-1.847.784,3.012,3.012,0,0,1-1.959-.812l-4.7-4.507A3.2,3.2,0,0,1,12.071,15.062Zm5.6,37.788a2.453,2.453,0,0,1,.812-1.9,2.642,2.642,0,0,1,1.9-.728h7.362l8.705-8.173a.756.756,0,0,1,.952,0l8.845,8.173H54A2.618,2.618,0,0,1,55.933,51a2.521,2.521,0,0,1,.812,1.875A2.772,2.772,0,0,1,54,55.622H44.541a1.657,1.657,0,0,1-.812-.2l-6.746-6.354-6.69,6.354a1.42,1.42,0,0,1-.784.2H20.384a2.644,2.644,0,0,1-1.931-.812A2.726,2.726,0,0,1,17.669,52.85ZM20.245,37.4a15.808,15.808,0,0,0,1.735,7.39c.056.336.308.5.7.5h5.262a.46.46,0,0,0,.42-.224.531.531,0,0,0-.056-.532,11.067,11.067,0,0,1,.672-15.171,11.069,11.069,0,0,1,8.089-3.3A11.325,11.325,0,0,1,48.4,37.4a10.918,10.918,0,0,1-2.659,7.138.626.626,0,0,0-.084.532c.056.168.2.224.42.224H51.4a.575.575,0,0,0,.644-.5,14.6,14.6,0,0,0,1.791-7.39,16.063,16.063,0,0,0-1.344-6.494,17.4,17.4,0,0,0-3.583-5.346,17.076,17.076,0,0,0-5.346-3.583,16.134,16.134,0,0,0-6.494-1.316,16.758,16.758,0,0,0-6.522,1.316,17.05,17.05,0,0,0-5.374,3.583,16.683,16.683,0,0,0-3.611,5.346A16.419,16.419,0,0,0,20.245,37.4Zm14.08-25.08V5.881a2.657,2.657,0,0,1,.784-1.987A2.7,2.7,0,0,1,37.1,3.11a2.637,2.637,0,0,1,1.959.784,2.765,2.765,0,0,1,.784,2.015v6.438a2.657,2.657,0,0,1-.784,1.987,2.7,2.7,0,0,1-1.959.784,2.657,2.657,0,0,1-1.987-.784A2.721,2.721,0,0,1,34.324,12.319ZM52.1,19.709a2.9,2.9,0,0,1,.756-1.931l4.535-4.619a2.707,2.707,0,0,1,1.959-.812,2.724,2.724,0,0,1,2.715,2.743,3.042,3.042,0,0,1-.728,2.043l-4.7,4.507a2.9,2.9,0,0,1-1.959.812,2.353,2.353,0,0,1-1.847-.784A2.827,2.827,0,0,1,52.1,19.709ZM59.4,37.4a2.706,2.706,0,0,1,.756-1.931,2.461,2.461,0,0,1,1.847-.812h6.578a2.644,2.644,0,0,1,1.931.812,2.69,2.69,0,0,1,.812,1.931,2.77,2.77,0,0,1-.812,1.987,2.566,2.566,0,0,1-1.931.84H62.007a2.477,2.477,0,0,1-1.875-.812A3.02,3.02,0,0,1,59.4,37.4Z" transform="translate(-2.75 -3.11)" fill="url(#linear-gradient)"/>
</svg>
