<?xml version="1.0" encoding="utf-8"?>
<!-- Generator: Adobe Illustrator 16.0.0, SVG Export Plug-In . SVG Version: 6.00 Build 0)  -->
<!DOCTYPE svg PUBLIC "-//W3C//DTD SVG 1.1 Tiny//EN" "http://www.w3.org/Graphics/SVG/1.1/DTD/svg11-tiny.dtd">
<svg version="1.1" baseProfile="tiny" xmlns="http://www.w3.org/2000/svg" xmlns:xlink="http://www.w3.org/1999/xlink" x="0px"
	 y="0px" width="660.667px" height="138.667px" viewBox="0 0 660.667 138.667" xml:space="preserve">
<g id="Logo_1_">
	<g id="Logo">
		<path fill="#683993" d="M98.183,55.05l-8.416,11.581c0.031,0.616,0.047,1.234,0.047,1.857c0,20.451-16.578,37.029-37.028,37.029
			S15.758,88.939,15.758,68.488c0-20.449,16.577-37.026,37.028-37.026c9.928,0,18.937,3.915,25.584,10.273l6.081-8.437
			c-8.388-7.552-19.488-12.152-31.665-12.152c-26.148,0-47.344,21.196-47.344,47.342c0,26.149,21.196,47.346,47.344,47.346
			c26.147,0,47.343-21.196,47.343-47.346C100.129,63.819,99.443,59.312,98.183,55.05z"/>
		<path fill="#EF6333" d="M54.864,56.526L27.019,95.069c2.415,2.341,5.14,4.362,8.118,5.981l27.946-38.31L54.864,56.526z"/>
		<path fill="#EF6333" d="M41.396,63.839l-8.175-6.062L17.403,79.42c0.082,0.267,0.173,0.531,0.26,0.794
			c0.089,0.265,0.175,0.534,0.27,0.797c0.068,0.188,0.14,0.377,0.211,0.563c0.146,0.387,0.295,0.771,0.454,1.152
			c0.043,0.108,0.088,0.212,0.133,0.318c1.036,2.421,2.327,4.703,3.831,6.824L41.396,63.839z"/>
		<path fill="#EF6333" d="M98.319,17.005l4.021,2.846l-8.952,12.431l-0.079,0.065l-51.769,71.426
			c3.547,1.13,7.325,1.744,11.247,1.744c0.396,0,0.787-0.018,1.179-0.029l14.383-20.081l42.614-58.923l4.624,3.459l1.629-21.905
			L98.319,17.005z"/>
	</g>
	<g id="Name">
		<path fill="#EF6333" d="M174.074,102.786h-41.195V34.044h39.614v12.598h-24.141v15.33h22.463v12.549h-22.463v15.713h25.722
			V102.786L174.074,102.786z"/>
		<path fill="#EF6333" d="M230.968,102.786h-15.074v-27.26c0-7.6-2.715-11.398-8.146-11.398c-2.617,0-4.775,1.006-6.466,3.02
			c-1.693,2.01-2.538,4.564-2.538,7.66v27.979h-15.138V53.7h15.138v7.793h0.189c3.609-5.998,8.862-8.996,15.761-8.996
			c10.858,0,16.272,6.768,16.272,20.254V102.786z"/>
		<path fill="#EF6333" d="M291.019,97.179c0,9.104-2.638,16.152-7.905,21.15c-5.271,4.998-12.904,7.496-22.897,7.496
			c-6.61,0-11.848-0.943-15.713-2.826v-12.742c5.046,2.938,10.14,4.408,15.281,4.408c5.107,0,9.07-1.352,11.88-4.049
			s4.217-6.361,4.217-10.994v-3.881h-0.194c-3.446,5.494-8.539,8.242-15.28,8.242c-6.259,0-11.224-2.205-14.896-6.611
			c-3.675-4.406-5.512-10.314-5.512-17.725c0-8.303,2.045-14.896,6.132-19.789c4.091-4.906,9.472-7.361,16.146-7.361
			c5.97,0,10.441,2.309,13.41,6.93h0.194V53.7h15.138V97.179z M276.071,79.216v-3.877c0-3.1-0.916-5.74-2.753-7.93
			c-1.837-2.186-4.225-3.281-7.164-3.281c-3.353,0-5.988,1.311-7.903,3.928c-1.915,2.621-2.874,6.307-2.874,11.066
			c0,4.088,0.911,7.32,2.731,9.699s4.312,3.568,7.473,3.568c3.129,0,5.658-1.207,7.594-3.615
			C275.104,86.364,276.071,83.175,276.071,79.216z"/>
		<path fill="#EF6333" d="M344.476,102.786h-14.321v-7.045h-0.191c-3.291,5.494-8.162,8.242-14.611,8.242
			c-4.759,0-8.503-1.354-11.232-4.051c-2.73-2.699-4.099-6.297-4.099-10.801c0-9.516,5.636-15.01,16.91-16.477l13.318-1.773
			c0-5.365-2.906-8.045-8.719-8.045c-5.847,0-11.402,1.74-16.672,5.219V56.634c2.109-1.088,4.992-2.055,8.648-2.889
			c3.654-0.832,6.987-1.248,9.984-1.248c13.99,0,20.984,7.01,20.984,20.973V102.786L344.476,102.786z M330.249,82.854v-3.301
			l-8.911,1.148c-4.917,0.641-7.376,2.857-7.376,6.656c0,1.725,0.602,3.139,1.797,4.242c1.195,1.098,2.818,1.65,4.86,1.65
			c2.842,0,5.156-0.98,6.951-2.945C329.354,88.341,330.249,85.862,330.249,82.854z"/>
		<path fill="#EF6333" d="M404.547,97.179c0,9.104-2.636,16.152-7.907,21.15c-5.268,4.998-12.901,7.496-22.894,7.496
			c-6.612,0-11.854-0.943-15.711-2.826v-12.742c5.043,2.939,10.138,4.408,15.28,4.408c5.106,0,9.064-1.352,11.877-4.049
			c2.811-2.697,4.214-6.361,4.214-10.994v-3.881h-0.188c-3.451,5.494-8.544,8.242-15.281,8.242c-6.26,0-11.228-2.205-14.899-6.611
			c-3.671-4.406-5.506-10.314-5.506-17.725c0-8.303,2.043-14.896,6.132-19.789c4.086-4.906,9.466-7.361,16.141-7.361
			c5.973,0,10.444,2.309,13.414,6.93h0.191V53.7h15.138V97.179L404.547,97.179z M389.6,79.216v-3.877c0-3.1-0.918-5.74-2.754-7.93
			c-1.835-2.186-4.223-3.281-7.16-3.281c-3.355,0-5.989,1.311-7.905,3.928c-1.917,2.621-2.873,6.307-2.873,11.066
			c0,4.088,0.908,7.32,2.729,9.699c1.821,2.381,4.312,3.568,7.473,3.568c3.13,0,5.659-1.207,7.592-3.615
			C388.633,86.364,389.6,83.175,389.6,79.216z"/>
		<path fill="#EF6333" d="M461.259,82.571h-31.997c0.511,7.119,4.997,10.68,13.458,10.68c5.398,0,10.141-1.275,14.232-3.828v10.918
			c-4.538,2.43-10.431,3.643-17.681,3.643c-7.917,0-14.067-2.199-18.44-6.586c-4.375-4.393-6.564-10.518-6.564-18.373
			c0-8.143,2.364-14.592,7.09-19.357c4.727-4.781,10.539-7.17,17.438-7.17c7.151,0,12.688,2.133,16.598,6.4
			c3.911,4.258,5.867,10.021,5.867,17.301V82.571L461.259,82.571z M447.224,73.276c0-7.025-2.84-10.537-8.528-10.537
			c-2.428,0-4.527,1.008-6.297,3.02c-1.772,2.01-2.853,4.521-3.232,7.52h18.058V73.276z"/>
		<path fill="#683993" d="M531.192,102.786h-15.518V74.81h-28.453v27.977H471.75V34.044h15.472v27.449h28.453V34.044h15.518V102.786
			z"/>
		<path fill="#683993" d="M592.032,102.786h-15.089V95.31h-0.241c-3.733,5.783-8.735,8.674-14.991,8.674
			c-11.372,0-17.054-6.885-17.054-20.648V53.7h15.088v28.293c0,6.934,2.75,10.396,8.239,10.396c2.717,0,4.886-0.949,6.516-2.85
			c1.628-1.898,2.443-4.482,2.443-7.736V53.7h15.089V102.786z"/>
		<path fill="#683993" d="M620.104,97.087h-0.193v5.699h-15.139V30.12h15.139v30.988h0.193c3.736-5.742,9.053-8.611,15.95-8.611
			c6.321,0,11.193,2.18,14.61,6.545c3.415,4.354,5.125,10.291,5.125,17.83c0,8.172-1.995,14.732-5.989,19.689
			c-3.991,4.945-9.325,7.422-15.998,7.422C627.766,103.983,623.199,101.683,620.104,97.087z M619.673,76.392v5.029
			c0,3.16,0.908,5.779,2.728,7.854c1.824,2.08,4.154,3.115,6.996,3.115c3.444,0,6.122-1.33,8.023-4
			c1.897-2.668,2.851-6.443,2.851-11.33c0-4.055-0.871-7.223-2.612-9.508c-1.739-2.283-4.224-3.424-7.45-3.424
			c-3.033,0-5.548,1.133-7.545,3.402C620.669,69.796,619.673,72.751,619.673,76.392z"/>
	</g>
</g>
<g id="Guides" display="none">
	<g display="inline">
		<line fill="none" stroke="#009EFF" stroke-width="0.5" stroke-miterlimit="10" x1="657.667" y1="33.098" x2="8.667" y2="33.904"/>
		<line fill="none" stroke="#009EFF" stroke-width="0.5" stroke-miterlimit="10" x1="657.667" y1="20.098" x2="8.667" y2="20.904"/>
		
			<line fill="none" stroke="#009EFF" stroke-width="0.5" stroke-miterlimit="10" x1="657.667" y1="115.098" x2="8.667" y2="115.904"/>
		
			<line fill="none" stroke="#009EFF" stroke-width="0.5" stroke-miterlimit="10" x1="657.667" y1="102.098" x2="8.667" y2="102.904"/>
	</g>
</g>
</svg>
