<?xml version="1.0" encoding="UTF-8"?>
<svg width="24px" height="22px" viewBox="0 0 24 22" version="1.1" xmlns="http://www.w3.org/2000/svg" xmlns:xlink="http://www.w3.org/1999/xlink">
    <!-- Generator: Sketch 51.2 (57519) - http://www.bohemiancoding.com/sketch -->
    <title>Group 8</title>
    <desc>Created with Sketch.</desc>
    <defs></defs>
    <g id="Page-1" stroke="none" stroke-width="1" fill="none" fill-rule="evenodd">
        <g id="Group-8" transform="translate(0.000000, 1.000000)" stroke="#43506A">
            <g id="Group-5">
                <g id="Group-3" transform="translate(3.000000, 0.000000)" fill-rule="nonzero">
                    <g id="Group-2">
                        <g id="if_SEO_important_note_969263">
                            <g id="Group">
                                <polygon id="Shape" fill="#43506A" points="7.1465 17.8229464 1.8535 12.6244643 13.5 1.1859375 18.793 6.38441964"></polygon>
                                <path d="M19.25,5.89285714 L18.6934728,6.43959785 L13.4434728,1.28334785 L14,0.736607143 C14.267342,0.473966344 14.7732205,0.325089286 15.1554768,0.325089286 C15.5377332,0.325089286 15.8952972,0.470171503 16.1626392,0.732812302 L19.1751041,3.69230294 C19.7306816,4.23811064 19.8055775,5.34704944 19.25,5.89285714 Z" id="Path" fill="#FFFFFF"></path>
                                <path d="M6.75228721,18.2290625 C6.50228721,18.1691518 6.12028721,18.1043304 5.64328721,18.1043304 C4.69328721,18.1043304 3.30528721,18.3690179 1.90728721,19.5721429 L0.0917872133,17.7890625 C1.89578721,15.77125 1.64878721,13.7883036 1.45928721,13.0305804 L1.89578721,12.601875 L7.18878721,17.8003571 L6.75228721,18.2290625 Z" id="Path" fill="#43506A"></path>
                            </g>
                        </g>
                    </g>
                </g>
                <polygon id="Path-2" stroke-width="0.5" fill="#43506A" points="0.85 20.75 2.05 18.75 3.65 20.35"></polygon>
            </g>
        </g>
    </g>
</svg>