<?xml version="1.0" encoding="UTF-8"?>
<svg width="143px" height="154px" viewBox="0 0 143 154" version="1.1" xmlns="http://www.w3.org/2000/svg" xmlns:xlink="http://www.w3.org/1999/xlink">
    <!-- Generator: Sketch 51.2 (57519) - http://www.bohemiancoding.com/sketch -->
    <title>Group 97</title>
    <desc>Created with Sketch.</desc>
    <defs></defs>
    <g id="Page-1" stroke="none" stroke-width="1" fill="none" fill-rule="evenodd">
        <g id="Group-97" stroke="#8354AE" stroke-width="2">
            <g id="Group-88">
                <rect id="Rectangle-24" fill="#FFFFFF" x="1" y="1" width="141" height="152" rx="10"></rect>
                <g id="Group-86" transform="translate(9.126437, 11.666667)" stroke-linecap="round" stroke-linejoin="round">
                    <g id="Group-56">
                        <g id="Group-55">
                            <g id="if_Development_2290862-(1)" transform="translate(0.590924, 0.000000)">
                                <path d="M39,2 L125.176818,2" id="Shape"></path>
                                <path d="M2.02114845,4.02847248 C3.0469926,4.02847248 3.87546812,3.18160434 3.87546812,2.15572825 C3.87546812,1.11676853 3.04758353,0.289525839 2.02114845,0.289525839 C0.994713375,0.289525839 0.16091954,1.11676853 0.16091954,2.15572825 C0.16091954,3.18160434 0.995304299,4.02847248 2.02114845,4.02847248" id="Shape"></path>
                                <path d="M15.9462737,4.02847248 C16.9721178,4.02847248 17.8070935,3.18160434 17.8070935,2.15572825 C17.8070935,1.11676853 16.9721178,0.289525839 15.9462737,0.289525839 C14.9139294,0.289525839 14.091954,1.11676853 14.091954,2.15572825 C14.091954,3.18160434 14.9139294,4.02847248 15.9462737,4.02847248" id="Shape"></path>
                                <path d="M28.7169796,4.02847248 C29.7428237,4.02847248 30.5772085,3.18160434 30.5772085,2.15572825 C30.5772085,1.11676853 29.7428237,0.289525839 28.7169796,0.289525839 C27.6970446,0.289525839 26.862069,1.11676853 26.862069,2.15572825 C26.862069,3.18160434 27.6970446,4.02847248 28.7169796,4.02847248" id="Shape"></path>
                                <path d="M0.094834534,123.722596 L124.20447,123.722596" id="Shape"></path>
                            </g>
                        </g>
                    </g>
                </g>
            </g>
            <path d="M76.2289024,33.8052223 L126.746344,33.8052223 C127.397609,33.8052223 127.929593,34.6645794 127.929593,35.716028 L127.929593,74.1046085 C127.929593,75.1560572 127.397609,76.0154143 126.746344,76.0154143 L76.2289024,76.0154143 C75.5739554,76.0154143 75.0419719,75.1560572 75.0419719,74.1046085 L75.0419719,35.716028 C75.0423401,34.6651741 75.5739554,33.8052223 76.2289024,33.8052223 Z" id="Shape" stroke-linecap="round" stroke-linejoin="round"></path>
            <path d="M15.4833893,33.8052223 L66.0008306,33.8052223 C66.6520962,33.8052223 67.1840796,35.3852063 67.1840796,37.3183631 L67.1840796,107.898269 C67.1840796,109.831426 66.6520962,111.41141 66.0008306,111.41141 L15.4833893,111.41141 C14.8284422,111.41141 14.2964588,109.831426 14.2964588,107.898269 L14.2964588,37.3183631 C14.296827,35.3862997 14.8284422,33.8052223 15.4833893,33.8052223 Z" id="Shape" fill="#E1CDF3" stroke-linecap="round" stroke-linejoin="round"></path>
            <path d="M74.896919,89 L128.665902,89" id="Shape" stroke-linecap="round" stroke-linejoin="round"></path>
            <path d="M74.896919,105 L128.665902,105" id="Shape" stroke-linecap="round" stroke-linejoin="round"></path>
            <g id="Group" transform="translate(14.201107, 121.521493)" stroke-linecap="round" stroke-linejoin="round">
                <path d="M0.251817763,0 L45.7391624,0" id="Shape"></path>
                <path d="M53.1195582,0 L114.331891,0" id="Shape"></path>
            </g>
        </g>
    </g>
</svg>