<?xml version="1.0" encoding="UTF-8"?>
<svg width="143px" height="154px" viewBox="0 0 143 154" version="1.1" xmlns="http://www.w3.org/2000/svg" xmlns:xlink="http://www.w3.org/1999/xlink">
    <!-- Generator: Sketch 51.2 (57519) - http://www.bohemiancoding.com/sketch -->
    <title>Group 96</title>
    <desc>Created with Sketch.</desc>
    <defs></defs>
    <g id="Page-1" stroke="none" stroke-width="1" fill="none" fill-rule="evenodd">
        <g id="Group-96" stroke="#8354AE" stroke-width="2">
            <g id="Group-88">
                <rect id="Rectangle-24" fill="#FFFFFF" x="1" y="1" width="141" height="152" rx="10"></rect>
                <g id="Group-86" transform="translate(9.126437, 11.666667)" stroke-linecap="round" stroke-linejoin="round">
                    <g id="Group-56">
                        <g id="Group-55">
                            <g id="if_Development_2290862-(1)" transform="translate(0.590924, 0.000000)">
                                <path d="M39,2 L125.176818,2" id="Shape"></path>
                                <path d="M2.02114845,4.02847248 C3.0469926,4.02847248 3.87546812,3.18160434 3.87546812,2.15572825 C3.87546812,1.11676853 3.04758353,0.289525839 2.02114845,0.289525839 C0.994713375,0.289525839 0.16091954,1.11676853 0.16091954,2.15572825 C0.16091954,3.18160434 0.995304299,4.02847248 2.02114845,4.02847248" id="Shape"></path>
                                <path d="M15.9462737,4.02847248 C16.9721178,4.02847248 17.8070935,3.18160434 17.8070935,2.15572825 C17.8070935,1.11676853 16.9721178,0.289525839 15.9462737,0.289525839 C14.9139294,0.289525839 14.091954,1.11676853 14.091954,2.15572825 C14.091954,3.18160434 14.9139294,4.02847248 15.9462737,4.02847248" id="Shape"></path>
                                <path d="M28.7169796,4.02847248 C29.7428237,4.02847248 30.5772085,3.18160434 30.5772085,2.15572825 C30.5772085,1.11676853 29.7428237,0.289525839 28.7169796,0.289525839 C27.6970446,0.289525839 26.862069,1.11676853 26.862069,2.15572825 C26.862069,3.18160434 27.6970446,4.02847248 28.7169796,4.02847248" id="Shape"></path>
                                <path d="M0.094834534,123.722596 L124.20447,123.722596" id="Shape"></path>
                            </g>
                        </g>
                    </g>
                </g>
            </g>
            <g id="Group-85" transform="translate(30.000000, 29.000000)">
                <g id="Group-52">
                    <g id="Group-36">
                        <g id="Group-35" transform="translate(0.237538, 0.000000)">
                            <rect id="Rectangle-13" fill="#E1CDF3" x="1" y="1" width="82.9017352" height="95" rx="10"></rect>
                            <path d="M17.9942159,15.4444444 L67.0025346,15.4444444" id="Line" stroke-linecap="round" stroke-dasharray="1,5"></path>
                        </g>
                    </g>
                </g>
                <rect id="Rectangle-23" fill="#FFFFFF" x="12" y="28" width="60" height="12" rx="6"></rect>
                <rect id="Rectangle-23" fill="#FFFFFF" x="12" y="49" width="60" height="12" rx="6"></rect>
                <rect id="Rectangle-23" fill="#E1CDF3" x="12" y="69" width="60" height="12" rx="6"></rect>
                <path d="M32.3088235,75.5 L52.6911765,75.5" id="Line-3" stroke-linecap="round" stroke-dasharray="1,6"></path>
            </g>
        </g>
    </g>
</svg>