<svg xmlns="http://www.w3.org/2000/svg" width="400" height="300"><path fill="#FFF7F3" d="M99.907 87.438c-27 19-39 33-43 56-6 40 47 0 51 28 4 24-43 45-25 70 22 29 50-17 71-5 11 6 5 22 11 31 10 14 26 12 40 8 31-8 60-30 83-52 16-16 50-52 38-78-13-28-60 3-69-26-6-19 18-35 6-54-16-25-41 1-59 6-25 7-28-14-48-18-16-3-29 15-56 34z"/><circle cx="219.005" cy="180.499" r="45.51" fill="#FFC5B6"/><path fill="#FFF" d="M144.673 105.48c-1.48 0-2.96.016-4.44-.006-.772-.01-1.505.16-2.22.407-1.306.45-1.518.79-1.193 2.11.53 2.16.572 4.36.517 6.54-.106 4.2-.017 8.39-.278 12.58-.25 3.96.27 7.91.22 11.87-.05 3.56.17 7.11.36 10.65.13 2.4-.01 4.8-.2 7.18-.2 2.48-.22 4.95-.1 7.42.11 2.39.34 4.77.43 7.17.06 1.73-.25 3.42-.27 5.14-.06 5.44.41 10.86.26 16.3-.07 2.32-.01 4.64-.01 6.96 0 .52.1 1.04.13 1.55.06 1.35.59 2.74.25 4.03-.35 1.33-.33 2.57-.2 3.9.14 1.52.11 1.8 2.16 1.94.16.01.32.01.48.01h14.88c.43 0 .88-.02 1.31-.09 1.3-.21 2.62-.26 3.93-.28 1.95-.03 3.91.14 5.87.12 3.79-.03 7.59.03 11.39-.17 4.14-.21 8.31-.04 12.46.16 3.23.15 6.48.05 9.72.02 3.48-.03 6.95.15 10.41.42 1.52.12 3.03-.09 4.55-.14 3.75-.12 7.51-.08 11.23.49.93.15 1.72-.04 2.55-.3 1.07-.34 1.27-.5 1.11-1.63-.24-1.72-.09-3.43-.04-5.14.08-3 .13-6 .13-9 0-4.31.01-8.63-.12-12.94-.03-1.06-.12-2.15-.24-3.22-.34-3.1-.26-6.21-.02-9.32.12-1.63.13-3.27-.07-4.9-.15-1.302-.22-2.62-.29-3.934-.19-3.4.03-6.8-.1-10.19-.18-4.71-.42-9.42-.41-14.133.01-4.36 0-8.71.1-13.07.05-2.4.14-4.794.42-7.16.39-3.3.22-6.62.65-9.91.08-.66-.18-.93-.87-.9-1.64.065-3.27.12-4.9.187-3.59.14-7.18.48-10.78.29-1.12-.06-2.25-.077-3.33-.33-2.66-.63-5.37-.77-8.07-.84-5.99-.148-11.98.4-17.98.22-.12 0-.24 0-.36.02-1.83.31-3.67.13-5.5.05-3.51-.17-7.03-.46-10.53-.4-7.69.15-15.36-.096-23.04.32z"/><path fill="#F1E6FF" d="M153.043 133.23c0 .8.088 1.608-.017 2.393-.273 2.035-.227 4.08-.088 6.103.15 2.183.218 4.372.425 6.55.104 1.09-.322 2.122-.26 3.21.033.6.284 1.162.2 1.777-.218 1.564.272 2.168 1.845 1.98 1.11-.135 2.228-.114 3.33-.252 3.126-.39 6.27-.54 9.41-.66 5.397-.21 10.785.34 16.183.21 2.36-.06 4.7-.09 7.06.2 1.18.15 2.37.34 3.57.31 4.07-.1 8.15.24 12.22-.21 1.24-.14 2.46.21 3.7.23.96.01 1.44-.36 1.53-1.27.13-1.39.24-2.8.09-4.19-.23-2.11-.31-4.24-.13-6.33.18-2.2.1-4.38.19-6.57.01-.24 0-.48.04-.72.3-1.69.43-3.39.46-5.11.02-1.09-.19-2.14-.28-3.21-.12-1.59-.23-3.19-.22-4.78.01-.64-.28-.84-.87-.81-.84.04-1.68.02-2.52.07-3.42.23-6.86.31-10.29.39-3.27.08-6.55.05-9.82-.24-3.15-.27-6.32-.39-9.46-.28-3.87.14-7.75-.01-11.62.24-3.86.25-7.76.07-11.64.07-.31 0-.64 0-.95-.07-1.83-.4-2.21-.1-2.21 1.79 0 3.08-.08 6.16.17 9.23z"/><path fill="#714193" d="M134.692 106.742c1.09-1.73 2.756-2.355 4.703-2.613 2.91-.39 5.827-.19 8.737-.19 6.956-.01 13.906-.4 20.862-.25 2.03.04 4.057.3 6.087.37 3.28.12 6.55.22 9.83-.06 2.16-.19 4.32-.01 6.48-.1 3.83-.17 7.66-.37 11.5-.21 2.58.1 5.15.36 7.71.81 2.51.43 5.09.58 7.64.31 2.35-.25 4.71-.15 7.05-.41.87-.1 1.75-.01 2.62-.22.76-.19 1.52.02 2.24.24.97.3 1.13 1.25 1.2 2.04.26 2.9.46 5.8.1 8.72-.17 1.41-.13 2.87-.32 4.29-.48 3.62-.28 7.26-.28 10.88.01 5.71-.11 11.43.11 17.14.14 3.55.13 7.1.13 10.65 0 2.45.14 4.92.46 7.38.22 1.64.21 3.33-.08 5.01-.18 1.01-.02 2.07-.07 3.11-.13 2.6.06 5.2.31 7.77.2 2.08.13 4.14.18 6.21.06 2.31.06 4.63.09 6.95 0 .32.05.63.21.92v.96c-.29.37-.29.82-.29 1.25-.01 3.74-.01 7.48 0 11.22 0 .34-.1.73.29.96v.96c-.42.79-.67 1.72-1.73 1.95-1.16.25-2.32.53-3.53.35-1.73-.26-3.47-.42-5.23-.44-5.23-.08-10.46.08-15.69-.16-6.79-.32-13.59.11-20.382-.27-3.36-.19-6.71.12-10.07.18-5.31.08-10.63.02-15.95.02-.36 0-.73-.03-1.08.02-2.17.38-4.36.5-6.56.45-2.99-.06-5.99-.18-8.98-.128-1.56.03-3.1-.16-4.66-.1-.69.02-1.323-.19-1.51-.91-.253-1-.626-1.97-.562-3.04.087-1.43-.07-2.86.225-4.29.26-1.27-.18-2.54-.213-3.82-.16-6.233.217-12.47-.2-18.704-.186-2.78-.1-5.58.16-8.38.27-2.95-.127-5.91-.32-8.86-.19-2.84-.13-5.67.13-8.5.55-6.036-.22-12.068-.01-18.1.017-.44.01-.888-.053-1.32-.297-1.946-.25-3.91-.23-5.86.05-4.19-.04-8.39.26-12.58.17-2.43.11-4.88.05-7.318-.03-1.466-.39-2.886-1.27-4.12-.004-.08-.004-.16-.004-.24zm9.98-1.26c-1.48 0-2.96.014-4.44-.008-.77-.01-1.504.16-2.22.407-1.305.45-1.517.79-1.192 2.11.53 2.16.572 4.36.517 6.54-.106 4.2-.017 8.39-.278 12.58-.25 3.96.27 7.91.22 11.87-.05 3.56.17 7.11.36 10.65.13 2.4-.01 4.8-.2 7.18-.2 2.48-.22 4.95-.1 7.42.11 2.39.34 4.77.43 7.17.06 1.73-.25 3.42-.27 5.14-.06 5.44.41 10.86.26 16.3-.07 2.32-.01 4.64-.01 6.96 0 .52.1 1.04.13 1.55.06 1.35.59 2.74.25 4.03-.35 1.33-.33 2.57-.2 3.9.14 1.52.11 1.8 2.16 1.94.16.01.32.01.48.01h14.88c.43 0 .88-.02 1.31-.09 1.3-.21 2.62-.26 3.93-.28 1.95-.03 3.91.14 5.87.12 3.79-.03 7.59.03 11.39-.17 4.14-.21 8.31-.04 12.46.16 3.23.15 6.48.05 9.72.02 3.48-.03 6.95.15 10.41.42 1.52.12 3.03-.09 4.55-.14 3.75-.12 7.51-.08 11.23.49.93.15 1.72-.04 2.55-.3 1.07-.34 1.27-.5 1.11-1.63-.24-1.72-.09-3.43-.04-5.14.08-3 .13-6 .13-9 0-4.31.01-8.63-.12-12.94-.03-1.06-.12-2.15-.24-3.22-.34-3.1-.26-6.21-.02-9.32.12-1.63.13-3.27-.07-4.9-.15-1.302-.22-2.62-.29-3.934-.19-3.4.03-6.8-.1-10.19-.18-4.71-.42-9.42-.41-14.133.01-4.36 0-8.71.1-13.07.05-2.4.14-4.794.42-7.16.39-3.3.22-6.62.65-9.91.08-.66-.18-.93-.87-.9-1.64.065-3.27.12-4.9.187-3.59.14-7.18.48-10.78.29-1.12-.06-2.25-.077-3.33-.33-2.66-.63-5.37-.77-8.07-.84-5.99-.148-11.98.4-17.98.22-.12 0-.24 0-.36.02-1.83.31-3.67.13-5.5.05-3.51-.17-7.03-.46-10.53-.4-7.69.15-15.36-.096-23.04.32zm35.493-70.828c-.95 1.64-1.478 3.313-2.08 4.95-3.138 8.54-6.24 17.098-9.375 25.642-.824 2.247-1.802 4.43-3.05 6.48-.152.25-.257.684-.666.55-.387-.13-.23-.54-.265-.84-.12-1.068.19-2.06.6-3.013 1.7-3.99 2.73-8.206 4.14-12.296 2.03-5.933 4.19-11.824 6.4-17.693.74-1.972 1.55-3.914 2.41-5.838.66-1.49 2.04-1.703 3.11-.438 1.95 2.32 3.65 4.816 5.18 7.445 4.56 7.818 8.32 16.04 12.27 24.164.66 1.357 1.14 2.802 1.86 4.132.33.6.43 1.28.52 1.94.08.55-.2 1.01-.68 1.29-.52.3-.99.16-1.42-.24-.5-.47-.98-.95-1.24-1.6-2.97-7.13-6.56-13.98-9.69-21.03-1.93-4.33-4.23-8.49-6.94-12.4-.29-.42-.61-.82-1.11-1.23z"/><path fill="#714193" d="M186.234 95.932c0 .616.006 1.097-.002 1.576-.01.583-.345 1.003-.83 1.213-.5.22-1.02.09-1.452-.28-.842-.72-1.136-1.67-1.213-2.75-.238-3.38-.42-6.76-.642-10.14-.196-2.98-.4-5.97-.59-8.95-.204-3.22-.28-6.45-.6-9.67-.206-2.05-.404-4.13-.324-6.21.12-3-.41-5.96-.66-8.94-.07-.91-.05-1.83-.05-2.75v-7.68c0-.32 0-.64.03-.96.03-.24.14-.46.41-.53s.47.08.61.28c.48.66.8 1.4.97 2.17.3 1.36.44 2.74.54 4.14.19 2.5.43 4.99.78 7.47.3 2.13.65 4.25.65 6.41.01 1.72.21 3.42.42 5.13.13 1.03.16 2.07.22 3.1.1 1.59.35 3.17.33 4.78-.02 1.96.2 3.9.41 5.85.14 1.31.21 2.64.25 3.94.09 3.43.63 6.83.59 10.27 0 .91.27 1.82.18 2.61zm-25.472 25.024c2.092 0 3.818.1 5.53-.02 3.87-.273 7.752-.057 11.616-.264 3.48-.186 6.952-.014 10.41.144 4.638.21 9.27.136 13.9.094 2.353-.02 4.71-.18 7.066-.202.756-.008 1.48-.296 2.254-.247.45.03.862.15 1.278.28.28.09.517.25.518.58.005 1.83.498 3.61.553 5.45.055 1.82.522 3.62.446 5.47-.056 1.36-.097 2.71-.438 4.04-.028.12-.047.24-.047.36-.043 2.63-.193 5.27-.164 7.89.025 2.27.088 4.55.155 6.82.03 1.04.02 2.08-.01 3.12-.05 1.62-1 2.41-2.61 2.27-2.07-.18-4.15-.17-6.22.05-.84.09-1.68.09-2.52.09-4.67.02-9.33 0-13.98-.66-2.12-.3-4.32-.03-6.47-.08-2.88-.07-5.75-.19-8.63-.35-2.51-.15-5.03-.25-7.54.1-.32.05-.64.05-.96.05-3.32-.07-6.62.29-9.94.33-.36.01-.72-.02-1.08-.05-1.69-.15-2.16-.66-2.12-2.36.03-1.55.02-3.1.2-4.66.24-2.1-.21-4.21-.31-6.33-.04-.91-.15-1.82-.15-2.74-.01-4.72.03-9.44 0-14.16-.01-1.53.27-2.98.87-4.39.13-.32.35-.43.59-.49.38-.092.8-.18 1.18-.14 2.32.26 4.64-.03 6.58.07zm-7.72 12.275c0 .8.09 1.61-.016 2.4-.273 2.04-.227 4.08-.088 6.11.15 2.19.218 4.37.425 6.55.104 1.09-.322 2.12-.26 3.21.033.6.284 1.16.2 1.78-.218 1.57.272 2.17 1.845 1.98 1.11-.13 2.228-.11 3.33-.25 3.126-.39 6.27-.54 9.41-.66 5.397-.21 10.785.34 16.183.21 2.36-.06 4.7-.09 7.06.2 1.18.15 2.37.34 3.57.31 4.07-.1 8.15.24 12.22-.21 1.24-.14 2.46.21 3.7.23.96.01 1.44-.36 1.53-1.27.13-1.39.24-2.8.09-4.19-.23-2.11-.31-4.24-.13-6.33.18-2.2.1-4.39.19-6.58.01-.24 0-.48.04-.72.3-1.69.43-3.39.46-5.11.02-1.09-.19-2.14-.28-3.21-.12-1.6-.23-3.19-.22-4.79.01-.64-.28-.84-.87-.81-.84.04-1.68.02-2.52.07-3.42.23-6.86.32-10.29.4-3.27.08-6.55.05-9.82-.24-3.15-.28-6.32-.4-9.46-.28-3.87.13-7.75-.02-11.62.24-3.86.25-7.76.06-11.64.06-.31 0-.64 0-.95-.07-1.83-.4-2.21-.1-2.21 1.79 0 3.08-.08 6.16.17 9.23zm60.433 61.1c-1.138.68-2.25.57-3.345.52-2.905-.12-5.788-.67-8.704-.54-2.188.1-4.37.38-6.56.45-5.47.2-10.93-.42-16.4-.26-1.758.05-3.52.06-5.276-.01-4.152-.15-8.31-.12-12.46-.27-2.03-.07-4.068-.14-6.102-.26-1.267-.07-2.546.01-3.805.27-.757.15-1.513.1-2.235-.2-.26-.1-.517-.23-.485-.58.057-.06.104-.16.163-.17 4-.4 8-.63 12.036-.54 3.79.09 7.592 0 11.39-.02 4.076-.02 8.154.03 12.23-.01 2.518-.02 5.012.21 7.51.43 2.038.17 4.056-.22 6.086-.27 2.342-.06 4.666-.32 7.03-.2 2.35.12 4.616.81 6.974.82.632.01 1.343.14 1.953.86zm-62.62-23.84c.275-.27.563-.27.838-.28 4.902-.26 9.798-.69 14.716-.58 7.03.16 14.07.02 21.11.09 1.52.02 3.02-.27 4.54-.25 1.99.03 3.98.13 5.95.46.11.02.24.02.36.02 3.91-.14 7.82.42 11.73.23 1.11-.05 2.21-.28 3.33-.24.49.02.94.14 1.38.32.22.09.43.26.41.53-.04.33-.28.47-.59.49-1.28.09-2.56.21-3.83.24-4.32.09-8.64.13-12.95-.24-5.99-.51-11.99-.19-17.98-.18-3.72.01-7.44.04-11.15-.1-3.44-.13-6.88-.23-10.31-.15-1.79.04-3.58.16-5.37-.02-.72-.07-1.43-.09-2.23-.3zm-2.42 11.38c1.15-.77 2.32-.9 3.426-1.08 2.92-.48 5.86-.8 8.81-.75 1.05.02 2.07-.21 3.11-.22 2.56-.03 5.09.23 7.64.4 1.67.12 3.35.13 5.03-.07 1.62-.19 3.27-.24 4.9.04.96.16 1.92.11 2.87.07.74-.02 1.42.2 2.13.31.41.07.86.24 1.03.77-.64.65-1.48.67-2.3.76-1.28.14-2.54-.23-3.81-.23-1.92-.01-3.84-.01-5.76 0-2.75.02-5.49-.25-8.24-.43-2.43-.16-4.87-.08-7.31-.04-2.75.04-5.5.13-8.24.25-.75.03-1.49.22-2.24.35-.27.05-.54.11-1.01-.09zm42.445-1.01c1.772-.52 3.353-.81 4.926-.81 4.147.03 8.293.21 12.44.3 1.117.03 2.236-.01 3.352-.08.854-.05 1.67.14 2.48.33.472.11 1.175.25 1.147.86-.03.65-.736.59-1.228.69-.603.13-1.188-.07-1.79-.06-1.396.02-2.795-.01-4.193.01-1.918.03-3.81-.24-5.713-.41-1.58-.14-3.18-.15-4.77-.29-1.82-.16-3.65-.39-5.49-.2-.3.03-.62 0-1.15-.31z"/><path fill="#714193" d="M205.7 129.347c.02.33-.18.498-.37.615-2.174 1.32-3.814 3.27-5.783 4.834-2.56 2.03-5.356 3.568-8.56 4.36-1.404.348-2.835.494-4.25.594-1.908.135-3.818.3-5.74.328-3.628.054-7.24.396-10.755 1.377-4.025 1.124-6.932 3.635-8.93 7.267-.277.505-.346 1.52-1.105 1.23-.454-.175-.012-1.083.23-1.592 1.284-2.723 3.108-4.96 5.73-6.547 2.766-1.67 5.814-2.208 8.943-2.654 3.396-.49 6.81-.63 10.215-.95 2.883-.27 5.765-.56 8.47-1.79 2.766-1.27 5.09-3.11 7.277-5.16.943-.88 1.894-1.72 3.182-2.05.508-.13 1.008-.24 1.447.12zm-41.915-2.62c2.243.03 4.315 1.615 4.42 3.58.13 2.5-.824 4.474-3.41 5.187-1.965.54-3.626.053-4.97-1.427-.766-.84-1.032-1.895-.74-3.01.23-.878.462-1.787.886-2.58.64-1.186 1.89-1.48 3.1-1.743.23-.05.48-.007.72-.007zm.076 1.56c-1.33-.097-2.22.415-3.07 1.375-.64.73-.56 1.39-.5 2.176.08.95.66 1.474 1.42 1.923.78.46 1.61.48 2.44.38 2.28-.3 3.36-2.84 2.1-4.77-.61-.93-1.44-1.17-2.38-1.07z"/><path fill="#CBA4ED" d="M52.718 188.605c.51-.532.586-1.27.895-1.897 1.73-3.522 3.935-6.743 6.28-9.872 1.997-2.663 4.498-4.744 7.424-6.307 4-2.14 8.043-4.2 12.357-5.65 2.49-.84 5.053-1.33 7.657-1.69 4.08-.56 8.17-.73 12.27-.98 3.8-.24 7.65-.28 11.35-1.4 2.98-.9 5.86-2.01 8.56-3.58 2.11-1.23 3.79-2.9 5.25-4.83 1.28-1.69 2.46-3.45 3.84-5.05.13-.15.23-.33.45-.36.13.05.19.17.13.28-1.42 2.91-2.99 5.73-5.14 8.19-2.33 2.67-5.41 4.17-8.62 5.44-2.82 1.12-5.72 1.94-8.73 2.34-1.06.14-2.14.27-3.22.28-3.55.02-7.1.35-10.64.54-7.02.38-13.79 1.85-20.08 5.18-1.51.8-3.08 1.49-4.61 2.28-2.91 1.49-5.47 3.45-7.47 6.06-2.35 3.08-4.56 6.26-6.36 9.7-.45.87-.67 1.78-.86 2.72-.08.41-.18.71-.69.46v-1.92zm300.36-51.08c.14.25.054.47-.054.686-2.03 4.01-4.27 7.87-7.673 10.9-2.07 1.85-4.53 3.1-7.03 4.26-4.15 1.93-8.42 3.57-12.9 4.58-2.25.52-4.54.76-6.83 1.09-2 .29-4.02.5-6.02.81-2.01.31-4.03.52-6.05.63-6.11.33-12.11 1.14-17.86 3.38-2.81 1.1-5.31 2.73-7.74 4.48-3.27 2.36-6.6 4.65-9.36 7.64-.1.11-.24.18-.56.41.36-1.02.87-1.69 1.45-2.26 4.77-4.77 10.04-8.88 16.22-11.67 3.2-1.44 6.57-2.31 10.05-2.82 2.87-.42 5.76-.65 8.64-.97 3.75-.4 7.47-.98 11.19-1.59 2.23-.36 4.49-.56 6.7-1.08 4.04-.94 7.88-2.47 11.66-4.14 2.01-.88 3.95-1.88 5.78-3.09 2.92-1.92 5.1-4.55 7.06-7.39.77-1.12 1.57-2.21 2.55-3.17.25-.24.43-.57.84-.61zM240.35 116.87c-.146-.66.178-1.014.428-1.315 2.402-2.883 4.66-5.896 7.53-8.356 3.958-3.4 8.42-5.81 13.5-7.13 4.306-1.12 8.628-2.11 13.018-2.82 2.74-.45 5.495-.82 8.247-1.21.425-.06.88-.15.92.57.027.54-.14.7-.647.73-3.663.22-7.26.93-10.878 1.49-4.445.69-8.842 1.67-13.11 3.09-5.204 1.73-9.68 4.66-13.363 8.76-1.836 2.03-3.7 4.04-5.645 6.17zm-109.588 91.285c-2.975 5.866-7.585 9.79-13.83 11.767-4.213 1.333-8.522 2.256-12.882 2.957-.824.13-1.644.29-2.464.44-.567.1-.89-.07-.956-.7s.317-.56.73-.63c5.273-.9 10.54-1.84 15.632-3.56 3.494-1.18 6.532-3.07 9.165-5.64 1.566-1.53 3.057-3.13 4.605-4.65zM319.284 86.22c.547 1.57.508 1.512-.824 2.43-5.287 3.64-11.27 5.465-17.453 6.79-2.26.483-4.524.875-6.86.977-.13-.385-.238-.713-.36-1.087.452-.37 1.032-.443 1.546-.476 3.475-.218 6.76-1.3 10.11-2.102 4.85-1.16 9.083-3.563 13.218-6.21.2-.128.38-.29.63-.323zM64.264 245.45c-.285-1.498.425-2.74 1.033-3.962 3.182-6.39 7.88-11.256 14.448-14.228 3.56-1.61 7.222-2.892 11.04-3.725.82-.18 1.157.08 1.043.76-.084.504-.466.442-.814.51-3.65.69-7.165 1.81-10.577 3.284-7.168 3.1-12.063 8.46-15.426 15.37-.3.63-.5 1.32-.74 1.98zm272.17-177.38c-1.735 6.233-6.096 10.646-10.286 15.233-.712-1.102-.732-1.775-.037-2.487 2.9-2.972 5.32-6.325 7.82-9.627.8-1.06 1.77-2 2.51-3.12z"/></svg>