<?xml version="1.0" encoding="UTF-8"?>
<svg id="Livello_1" data-name="Livello 1" xmlns="http://www.w3.org/2000/svg" viewBox="0 0 300 45">
  <defs>
    <style>
      .cls-1 {
        fill: #ffc439;
      }

      .cls-2 {
        fill: #2c2e2f;
      }

      .cls-3 {
        fill: #009cde;
      }

      .cls-3, .cls-4, .cls-5 {
        fill-rule: evenodd;
      }

      .cls-4 {
        fill: #012169;
      }

      .cls-5 {
        fill: #003087;
      }
    </style>
  </defs>
  <path class="cls-1" d="M22.5,0h255c12.43,0,22.5,10.07,22.5,22.5h0c0,12.43-10.07,22.5-22.5,22.5H22.5C10.07,45,0,34.93,0,22.5H0C0,10.07,10.07,0,22.5,0Z"/>
  <path class="cls-3" d="M93.26,16.88c.31-1.77,0-3.02-.99-4.11-.99-1.2-2.92-1.72-5.42-1.72h-7.03c-.52,0-.94,.36-1.04,.89l-2.97,18.8c-.05,.36,.21,.68,.57,.68h4.38l-.31,1.93c-.05,.36,.21,.62,.52,.62h3.7c.47,0,.83-.36,.89-.73l.05-.16,.68-4.38,.05-.21c.05-.42,.47-.73,.89-.73h.57c3.59,0,6.41-1.46,7.24-5.68,.37-1.72,.16-3.23-.73-4.27-.26-.47-.62-.73-1.04-.94Z"/>
  <path class="cls-4" d="M93.26,16.88c.31-1.77,0-3.02-.99-4.11-.99-1.2-2.92-1.72-5.42-1.72h-7.03c-.52,0-.94,.36-1.04,.89l-2.97,18.8c-.05,.36,.21,.68,.57,.68h4.38l1.09-6.98-.05,.21c.1-.52,.57-.89,1.04-.89h2.08c4.11,0,7.29-1.67,8.28-6.46,0-.16,.05-.31,.05-.42Z"/>
  <path class="cls-5" d="M83.1,16.88c.05-.31,.21-.52,.52-.68,.1-.05,.21-.1,.42-.1h5.57l1.88,.16c.16,0,.31,.05,.47,.1s.31,.05,.47,.1c.05,0,.1,.05,.21,.05,.31,.1,.52,.16,.73,.36,.31-1.77,0-3.02-.99-4.11-1.04-1.2-2.97-1.72-5.47-1.72h-7.08c-.52,0-.94,.36-1.04,.89l-2.97,18.8c-.05,.36,.21,.68,.57,.68h4.38l2.34-14.53Z"/>
  <path class="cls-2" d="M103.71,13.65h6.46c1.28,0,2.3,.36,3.09,1.08,.78,.72,1.17,1.73,1.17,3.03,0,1.12-.35,2.1-1.04,2.93-.7,.83-1.77,1.24-3.21,1.24h-4.51v6.06h-1.94V13.65Zm8.75,4.12c0-1.05-.39-1.77-1.17-2.15-.43-.2-1.02-.3-1.77-.3h-3.87v4.97h3.87c.87,0,1.58-.19,2.12-.56,.55-.37,.82-1.02,.82-1.96Zm5.52,7.44c0,.51,.18,.91,.56,1.2,.37,.29,.81,.44,1.32,.44,.62,0,1.22-.14,1.8-.43,.98-.48,1.47-1.25,1.47-2.33v-1.42c-.22,.14-.49,.25-.83,.34-.34,.09-.67,.16-1,.2l-1.06,.14c-.64,.08-1.12,.22-1.44,.4-.54,.31-.81,.79-.81,1.46Zm4.26-3.55c.4-.05,.67-.22,.81-.51,.08-.16,.12-.38,.12-.67,0-.6-.21-1.03-.64-1.3-.42-.27-1.03-.41-1.83-.41-.92,0-1.57,.25-1.95,.74-.22,.27-.36,.68-.42,1.22h-1.64c.03-1.29,.45-2.18,1.25-2.68,.81-.51,1.74-.76,2.8-.76,1.23,0,2.23,.23,3,.7,.76,.47,1.14,1.2,1.14,2.19v6.03c0,.18,.04,.33,.11,.44,.08,.11,.24,.17,.48,.17,.08,0,.17,0,.26-.01,.1-.01,.2-.03,.31-.05v1.3c-.27,.08-.48,.13-.62,.15-.14,.02-.34,.03-.59,.03-.61,0-1.05-.21-1.32-.64-.14-.23-.24-.55-.3-.97-.36,.47-.87,.88-1.54,1.22-.67,.35-1.41,.52-2.22,.52-.97,0-1.76-.29-2.38-.88-.61-.59-.92-1.33-.92-2.22,0-.97,.3-1.72,.91-2.26,.61-.53,1.4-.86,2.38-.99l2.8-.35Zm9.22-4.31c.82,0,1.54,.2,2.15,.61,.33,.23,.67,.56,1.01,1v-1.32h1.62v9.51c0,1.33-.2,2.38-.59,3.14-.73,1.42-2.11,2.13-4.13,2.13-1.13,0-2.07-.25-2.84-.76-.77-.5-1.2-1.29-1.29-2.36h1.79c.08,.47,.25,.83,.51,1.08,.4,.39,1.02,.59,1.88,.59,1.35,0,2.23-.48,2.65-1.43,.25-.56,.36-1.56,.34-3-.35,.53-.77,.93-1.27,1.19-.49,.26-1.15,.39-1.96,.39-1.13,0-2.12-.4-2.98-1.2-.85-.81-1.27-2.14-1.27-3.99,0-1.75,.43-3.12,1.28-4.1,.86-.98,1.89-1.48,3.1-1.48Zm3.16,5.37c0-1.3-.27-2.26-.8-2.88-.53-.62-1.21-.94-2.04-.94-1.24,0-2.08,.58-2.54,1.74-.24,.62-.36,1.43-.36,2.43,0,1.18,.24,2.08,.71,2.7,.48,.61,1.13,.92,1.93,.92,1.26,0,2.15-.57,2.67-1.71,.29-.64,.43-1.4,.43-2.26Zm5.63,2.49c0,.51,.19,.91,.56,1.2,.37,.29,.81,.44,1.32,.44,.62,0,1.22-.14,1.8-.43,.98-.48,1.46-1.25,1.46-2.33v-1.42c-.21,.14-.49,.25-.83,.34-.34,.09-.67,.16-1,.2l-1.06,.14c-.64,.08-1.12,.22-1.44,.4-.54,.31-.81,.79-.81,1.46Zm4.26-3.55c.4-.05,.67-.22,.81-.51,.08-.16,.12-.38,.12-.67,0-.6-.21-1.03-.64-1.3-.42-.27-1.03-.41-1.83-.41-.92,0-1.57,.25-1.95,.74-.21,.27-.35,.68-.42,1.22h-1.64c.03-1.29,.45-2.18,1.25-2.68,.81-.51,1.74-.76,2.8-.76,1.23,0,2.23,.23,3,.7,.76,.47,1.14,1.2,1.14,2.19v6.03c0,.18,.04,.33,.11,.44,.08,.11,.24,.17,.48,.17,.08,0,.17,0,.26-.01,.1-.01,.2-.03,.31-.05v1.3c-.27,.08-.48,.13-.62,.15-.14,.02-.34,.03-.59,.03-.61,0-1.04-.21-1.32-.64-.14-.23-.25-.55-.3-.97-.36,.47-.87,.88-1.54,1.22-.67,.35-1.41,.52-2.22,.52-.97,0-1.76-.29-2.38-.88-.61-.59-.92-1.33-.92-2.22,0-.97,.3-1.72,.91-2.26,.61-.53,1.4-.86,2.38-.99l2.8-.35Zm11.09-4.07h1.79v10.41h-1.79v-10.41Zm0-3.94h1.79v1.99h-1.79v-1.99Zm4.45,3.89h1.67v1.48c.5-.61,1.02-1.05,1.57-1.32,.55-.27,1.17-.4,1.85-.4,1.48,0,2.49,.52,3.01,1.55,.29,.57,.43,1.38,.43,2.43v6.71h-1.79v-6.59c0-.64-.09-1.15-.28-1.54-.31-.65-.88-.98-1.7-.98-.42,0-.76,.04-1.03,.13-.48,.14-.9,.43-1.27,.86-.29,.34-.49,.7-.58,1.07-.09,.37-.13,.89-.13,1.57v5.48h-1.76v-10.46Zm20.6,10.84c-1.65,0-2.85-.45-3.6-1.36-.74-.91-1.11-2.02-1.11-3.32h1.83c.08,.9,.25,1.56,.51,1.97,.46,.73,1.28,1.1,2.47,1.1,.92,0,1.67-.25,2.23-.74,.56-.49,.84-1.13,.84-1.91,0-.96-.3-1.64-.89-2.02-.59-.39-1.4-.58-2.45-.58-.12,0-.24,0-.36,0-.12,0-.24,0-.36,.01v-1.55c.18,.02,.34,.03,.46,.04,.12,0,.26,.01,.4,.01,.66,0,1.2-.1,1.62-.31,.74-.36,1.11-1.02,1.11-1.95,0-.7-.25-1.23-.74-1.61-.49-.38-1.07-.57-1.73-.57-1.17,0-1.98,.39-2.43,1.17-.25,.43-.39,1.04-.42,1.83h-1.74c0-1.04,.21-1.93,.62-2.66,.72-1.3,1.98-1.95,3.78-1.95,1.43,0,2.53,.32,3.31,.96,.78,.63,1.17,1.55,1.17,2.75,0,.86-.23,1.56-.69,2.09-.29,.33-.66,.59-1.11,.78,.74,.2,1.31,.59,1.72,1.17,.42,.57,.62,1.28,.62,2.11,0,1.33-.44,2.42-1.32,3.26-.88,.84-2.13,1.26-3.74,1.26Zm12.84-10.84h1.67v1.81c.14-.35,.47-.78,1.01-1.28,.53-.51,1.15-.76,1.85-.76,.03,0,.09,0,.17,0,.08,0,.21,.02,.4,.04v1.86c-.1-.02-.2-.03-.29-.04-.09,0-.18-.01-.28-.01-.89,0-1.57,.29-2.04,.86-.47,.57-.71,1.22-.71,1.96v6.02h-1.76v-10.46Zm7.96,7.68c0,.51,.19,.91,.56,1.2,.37,.29,.81,.44,1.32,.44,.62,0,1.22-.14,1.8-.43,.98-.48,1.46-1.25,1.46-2.33v-1.42c-.21,.14-.49,.25-.83,.34-.34,.09-.67,.16-1,.2l-1.07,.14c-.64,.08-1.12,.22-1.43,.4-.54,.31-.81,.79-.81,1.46Zm4.26-3.55c.4-.05,.67-.22,.81-.51,.08-.16,.12-.38,.12-.67,0-.6-.22-1.03-.65-1.3-.42-.27-1.03-.41-1.83-.41-.92,0-1.57,.25-1.95,.74-.21,.27-.35,.68-.42,1.22h-1.64c.03-1.29,.45-2.18,1.25-2.68,.81-.51,1.74-.76,2.8-.76,1.23,0,2.23,.23,3,.7,.76,.47,1.14,1.2,1.14,2.19v6.03c0,.18,.03,.33,.11,.44,.08,.11,.24,.17,.48,.17,.08,0,.17,0,.26-.01,.1-.01,.2-.03,.31-.05v1.3c-.27,.08-.48,.13-.62,.15-.14,.02-.34,.03-.59,.03-.61,0-1.04-.21-1.32-.64-.14-.23-.24-.55-.3-.97-.36,.47-.87,.88-1.54,1.22-.67,.35-1.41,.52-2.22,.52-.97,0-1.76-.29-2.38-.88-.61-.59-.92-1.33-.92-2.22,0-.97,.3-1.72,.91-2.26,.61-.53,1.4-.86,2.38-.99l2.8-.35Zm5.88-7.04h1.78v2.92h1.67v1.44h-1.67v6.83c0,.36,.12,.61,.37,.73,.14,.07,.36,.11,.68,.11h.27c.1,0,.21-.02,.34-.03v1.39c-.2,.06-.41,.1-.64,.13-.21,.03-.45,.04-.7,.04-.82,0-1.38-.21-1.67-.62-.29-.42-.44-.97-.44-1.64v-6.92h-1.42v-1.44h1.42v-2.92Zm9.57,2.69c.74,0,1.46,.17,2.16,.53,.7,.35,1.23,.79,1.59,1.35,.35,.53,.59,1.14,.7,1.84,.1,.48,.16,1.25,.16,2.3h-7.67c.03,1.06,.28,1.91,.75,2.56,.47,.64,1.2,.96,2.18,.96,.92,0,1.65-.3,2.2-.91,.31-.35,.53-.76,.67-1.22h1.73c-.05,.38-.2,.81-.46,1.29-.25,.47-.54,.85-.86,1.15-.53,.52-1.19,.87-1.98,1.06-.42,.1-.9,.16-1.44,.16-1.3,0-2.41-.47-3.31-1.42-.9-.95-1.36-2.28-1.36-3.98s.46-3.04,1.37-4.09c.91-1.05,2.1-1.57,3.57-1.57Zm2.8,4.63c-.07-.76-.24-1.37-.5-1.83-.48-.85-1.29-1.27-2.41-1.27-.81,0-1.49,.29-2.03,.88-.55,.58-.84,1.32-.87,2.22h5.81Z"/>
</svg>