<svg xmlns="http://www.w3.org/2000/svg" xmlns:xlink="http://www.w3.org/1999/xlink" viewBox="0 0 382.91 325.32">
    <g id="Layer_2" fill="#fff" stroke="currentColor">
        <path class="cls-1"
              d="M379.61,58l-.21.5q-3.64,8.29-7.45,16.8l-2.65,5.92Q366.68,87.08,364,93c-1.14,2.53-2.3,5.06-3.46,7.6q-2.4,5.24-4.84,10.48c-.92,2-1.86,4-2.8,6Q350,123.33,347,129.54l-2.19,4.62q-3.39,7.13-6.83,14.21c-.53,1.09-1.06,2.19-1.6,3.28q-4.4,9.06-8.85,17.95c-17.92,35.79-36.16,69.1-53,94.43-62.5,93.89-97.18,55.64-112.91,41.61-22-19.58-55.73-57.21-87.43-94.16q2-1.72,3.94-3.42a364.26,364.26,0,0,1,45.25-33.5,275.46,275.46,0,0,1,27.49-15.12l.27.48c.4.7.82,1.4,1.26,2.08,39,60.16,55.19,38.48,72.73,14.18,4-5.54,11.43-19,20.51-36.37,2.89-5.53,5.95-11.47,9.12-17.69.89-1.77,1.81-3.56,2.72-5.38,2.94-5.79,6-11.8,9-17.91q1.1-2.19,2.19-4.41c3-6,6-12.1,9-18.19l1.68-3.42c3.07-6.23,6.11-12.45,9.09-18.55l1.18-2.4,9.23-19c.21-.46.43-.91.65-1.36l3.94-8.14A41.37,41.37,0,0,1,360.56,5l.72.4A41.44,41.44,0,0,1,379.61,58Z"/>
        <path class="cls-1"
              d="M150.88,159.44a275.46,275.46,0,0,0-27.49,15.12,364.26,364.26,0,0,0-45.25,33.5q-2,1.69-3.94,3.42c-1.4-1.64-2.8-3.27-4.19-4.91q-3.81-4.45-7.56-8.87l-3.57-4.22-7.8-9.24-2.95-3.53c-2.75-3.28-5.45-6.5-8.07-9.65l-2.35-2.82c-2.88-3.45-5.67-6.82-8.36-10.07l-1.74-2.12-4.55-5.5a39.21,39.21,0,0,1-3.79-5.46c-.34-.56-.65-1.12-.94-1.69A41.41,41.41,0,0,1,18.9,104,253.45,253.45,0,0,1,37.07,76a41.28,41.28,0,0,1,53.7-10.91,40.09,40.09,0,0,1,6.87,5,41,41,0,0,1,7,8.07c.51.78,1,1.59,1.48,2.42l3.14,5.53,5.18,9.11,4.88,8.6,5.06,8.89,5.22,9.21,4.95,8.71,5.58,9.81,4.85,8.55Z"/>
        <path class="cls-1"
              d="M90.77,65.13a40.09,40.09,0,0,1,6.87,5q-10,7.56-19.5,15.76a568.63,568.63,0,0,0-58.87,59.23Q9.41,156.45,0,168.19q8.93-12.56,18.33-24.79A569.16,569.16,0,0,1,73.59,80.87Q81.95,72.79,90.77,65.13Z"/>
        <path class="cls-1"
              d="M106.08,80.59l3.14,5.53A387.46,387.46,0,0,0,78.14,110.3a542.8,542.8,0,0,0-48.79,47.87C19.21,169.34,9.46,180.87,0,192.63,8.84,180.2,18,168,27.61,156.05a547.05,547.05,0,0,1,46-50.74,396.93,396.93,0,0,1,31-27.14C105.11,79,105.61,79.76,106.08,80.59Z"/>
        <path class="cls-1"
              d="M114.4,95.23l4.88,8.6a371,371,0,0,0-41.14,30.91,524,524,0,0,0-38.08,36.32c-14,14.7-27.3,30.14-40.06,46C11.9,200.33,24.39,184,37.71,168.24,49,154.88,60.94,142,73.59,129.75A378.08,378.08,0,0,1,114.4,95.23Z"/>
        <path class="cls-1"
              d="M124.34,112.72l5.22,9.21q-3.11,1.83-6.17,3.75a364.26,364.26,0,0,0-45.25,33.5q-14,12-27.06,25.06A688.36,688.36,0,0,0,0,241.52a689.83,689.83,0,0,1,48.13-60.81Q60.37,167,73.59,154.19a371.45,371.45,0,0,1,44.2-36.94Q121,114.94,124.34,112.72Z"/>

        <path class="cls-1"
              d="M134.51,130.64l5.58,9.81q-8.51,4.53-16.7,9.67a364.26,364.26,0,0,0-45.25,33.5q-8,6.87-15.69,14.08C40,218.73,19.37,241.86,0,266c18-25.33,37.36-49.83,58.88-72.48q7.18-7.57,14.71-14.85a371.45,371.45,0,0,1,44.2-36.94C123.22,137.83,128.8,134.13,134.51,130.64Z"/>
        <path class="cls-1"
              d="M150.88,159.44a275.46,275.46,0,0,0-27.49,15.12,364.26,364.26,0,0,0-45.25,33.5q-2,1.69-3.94,3.42C47.13,235.24,22.7,262.15,0,290.4c21.05-29.61,44-58.1,70-83.83,1.18-1.17,2.38-2.34,3.58-3.5a371.45,371.45,0,0,1,44.2-36.94A283.42,283.42,0,0,1,144.94,149Z"/>
    </g>
</svg>