<svg xmlns="http://www.w3.org/2000/svg" viewBox="0 0 36 36">
    <defs>
        <style>
            .a,.c{fill:#327bba;}.b{fill:#f3f3f4;}.c{opacity:0.1;}
        </style>
    </defs>
    <path class="a" d="M27.254,30h-.005L2.7,29.954A2.7,2.7,0,0,1,0,27.248L.044,2.7A2.7,2.7,0,0,1,2.746,0h.005L27.3.045A2.7,2.7,0,0,1,30,2.752L29.955,27.3A2.7,2.7,0,0,1,27.254,30ZM2.746,1.311A1.392,1.392,0,0,0,1.356,2.7L1.311,27.25A1.393,1.393,0,0,0,2.7,28.643l24.552.045h0a1.392,1.392,0,0,0,1.39-1.388L28.689,2.75A1.393,1.393,0,0,0,27.3,1.357L2.748,1.311Z" transform="translate(6 6)"/>
    <path class="b" d="M4.1,2.011a2.048,2.048,0,0,0-2.05,2.042L2.01,28.6a2.048,2.048,0,0,0,2.042,2.05L28.6,30.7a2.048,2.048,0,0,0,2.05-2.042L30.7,4.106a2.048,2.048,0,0,0-2.042-2.05Z" transform="translate(1.645 1.645)"/>
    <path class="a" d="M27.254,30h-.005L2.7,29.954A2.7,2.7,0,0,1,0,27.248L.044,2.7A2.7,2.7,0,0,1,2.746,0h.005L27.3.045A2.7,2.7,0,0,1,30,2.752L29.955,27.3A2.7,2.7,0,0,1,27.254,30ZM2.746,1.311A1.392,1.392,0,0,0,1.356,2.7L1.311,27.25A1.393,1.393,0,0,0,2.7,28.643l24.552.045h0a1.392,1.392,0,0,0,1.39-1.388L28.689,2.75A1.393,1.393,0,0,0,27.3,1.357L2.748,1.311Z" transform="translate(3 3)"/>
    <path class="b" d="M4.1,2.011a2.048,2.048,0,0,0-2.05,2.042L2.01,28.6a2.048,2.048,0,0,0,2.042,2.05L28.6,30.7a2.048,2.048,0,0,0,2.05-2.042L30.7,4.106a2.048,2.048,0,0,0-2.042-2.05Z" transform="translate(-1.355 -1.355)"/>
    <g transform="translate(0)">
        <path class="c" d="M4.1,2.011a2.048,2.048,0,0,0-2.05,2.042L2.01,28.6a2.048,2.048,0,0,0,2.042,2.05L28.6,30.7a2.048,2.048,0,0,0,2.05-2.042L30.7,4.106a2.048,2.048,0,0,0-2.042-2.05Z" transform="translate(-1.355 -1.355)"/>
        <path class="b" d="M20.313,18.615a1.662,1.662,0,0,0-1.663,1.657l-.036,19.917a1.662,1.662,0,0,0,1.657,1.663l19.918.037a1.662,1.662,0,0,0,1.663-1.657l.036-19.917a1.662,1.662,0,0,0-1.657-1.663Z" transform="translate(-12.544 -12.545)"/>
        <path class="a" d="M27.254,30h-.005L2.7,29.954A2.7,2.7,0,0,1,0,27.248L.044,2.7A2.7,2.7,0,0,1,2.746,0h.005L27.3.045A2.7,2.7,0,0,1,30,2.752L29.955,27.3A2.7,2.7,0,0,1,27.254,30ZM2.746,1.311A1.392,1.392,0,0,0,1.356,2.7L1.311,27.25A1.393,1.393,0,0,0,2.7,28.643l24.552.045h0a1.392,1.392,0,0,0,1.39-1.388L28.689,2.75A1.393,1.393,0,0,0,27.3,1.357L2.748,1.311Z" transform="translate(0)"/>
    </g>
    <g transform="translate(4.247 3.462)">
        <path class="a" d="M59.69,18.92h-.008a4.151,4.151,0,0,1,.007-8.3H59.7a4.151,4.151,0,0,1-.007,8.3Zm0-6.99a2.84,2.84,0,0,0-.005,5.679h.005a2.84,2.84,0,0,0,.005-5.679Z" transform="translate(-41.675 -10.618)"/>
        <path class="a" d="M33.116,51.89,26.824,45.06a.937.937,0,0,0-1.365-.014l-4.083,4.26a.936.936,0,0,1-1.329.023L18.77,48.089a.937.937,0,0,0-1.369.068l-2.483,2.95c-.333.4-.873,1.32-1.528.971l-.132-.111c-.4-.333-.238-.8.1-1.194l3.9-4.632a.937.937,0,0,1,1.369-.068L20,47.41a.936.936,0,0,0,1.329-.023l4.164-4.343a.937.937,0,0,1,1.365.014l7.768,8.43c.351.381.69.792.232,1.267l-.246.139C34.227,53.244,33.467,52.27,33.116,51.89Z" transform="translate(-13.023 -32.276)"/>
    </g>
</svg>