<svg xmlns="http://www.w3.org/2000/svg" viewBox="0 0 54.999 27.666">
  <defs>
    <style>
      .cls-1 {
        fill: #4c4c4c;
      }

      .cls-2 {
        fill: #327bba;
      }
    </style>
  </defs>
  <g id="Group_1" data-name="Group 1" transform="translate(-58.956 -17.778)">
    <g id="logo" transform="translate(58.956 17.778)">
      <path id="Path_6" data-name="Path 6" class="cls-1" d="M13.689,3.908A9.094,9.094,0,0,0,8.982,2.68c-3.723,0-5.127,2.282-5.127,4.215,0,2.633,1.615,3.968,5.2,5.479,4.32,1.827,6.532,4.039,6.532,7.867,0,4.25-3.091,7.516-8.851,7.516A12.32,12.32,0,0,1,.341,26.07l.808-2.424A10.913,10.913,0,0,0,6.909,25.3c3.583,0,5.689-1.932,5.689-4.811,0-2.634-1.44-4.25-4.917-5.655C3.643,13.321.9,10.967.9,7.279.9,3.206,4.2.22,9.086.22a10.87,10.87,0,0,1,5.479,1.265Z" transform="translate(-0.341 -0.22)"/>
      <path id="Path_7" data-name="Path 7" class="cls-1" d="M20.431,4.835a1.893,1.893,0,0,1-1.9-2A1.913,1.913,0,0,1,20.466.866a1.862,1.862,0,0,1,1.9,1.967A1.862,1.862,0,0,1,20.431,4.835Zm1.475,22.513H18.991V8.207h2.915Z" transform="translate(0.261 -0.199)"/>
      <path id="Path_8" data-name="Path 8" class="cls-1" d="M34.825,10.444a8.8,8.8,0,0,0-1.054-.07c-3.161,0-4.777,3.126-4.777,6.357v10.4H26.079V13.71c0-2.037-.035-3.9-.141-5.725H28.5l.14,3.688h.105a5.729,5.729,0,0,1,5.2-4.11,7.482,7.482,0,0,1,.878.105v2.776Z" transform="translate(0.506 0.023)"/>
      <path id="Path_9" data-name="Path 9" class="cls-1" d="M40.181,8H37.055l7.06,19.629h2.653Z" transform="translate(0.874 0.038)"/>
      <path id="Path_10" data-name="Path 10" class="cls-2" d="M48.043,23.151,53.8,8H50.711L46.919,19.084l-.121.361Z" transform="translate(1.197 0.038)"/>
    </g>
  </g>
</svg>
