<?xml version="1.0" encoding="utf-8"?>
<!-- Generator: Adobe Illustrator 19.0.0, SVG Export Plug-In . SVG Version: 6.00 Build 0)  -->
<svg version="1.0" id="Layer_1" xmlns="http://www.w3.org/2000/svg" xmlns:xlink="http://www.w3.org/1999/xlink" x="0px" y="0px"
	 viewBox="0 0 92 92" enable-background="new 0 0 92 92" xml:space="preserve">
<g>
	<path fill="#E2F1FC" d="M8.432,2.011c-3.46-0.006-6.28,2.802-6.286,6.263L2.01,83.564c-0.006,3.46,2.803,6.279,6.263,6.286
		l75.294,0.139c3.46,0.006,6.28-2.802,6.286-6.263L89.99,8.436c0.006-3.46-2.803-6.279-6.263-6.286L8.432,2.011z"/>
	<path fill="#F4F9FD" d="M23.825,18.615c-2.807-0.005-5.094,2.273-5.1,5.081l-0.111,61.081c-0.005,2.807,2.274,5.094,5.081,5.1
		l61.084,0.113c2.807,0.005,5.094-2.273,5.1-5.081l0.111-61.081c0.005-2.807-2.274-5.094-5.081-5.1L23.825,18.615z"/>
	<path fill="#327BBA" d="M83.579,92c-0.005,0-0.01,0-0.016,0L8.269,91.861c-2.21-0.004-4.288-0.87-5.851-2.439
		C0.855,87.853-0.004,85.771,0,83.56L0.136,8.27C0.145,3.706,3.86,0,8.421,0c0.005,0,0.01,0,0.016,0l75.295,0.139
		c2.21,0.004,4.288,0.87,5.851,2.439c1.563,1.569,2.422,3.65,2.418,5.861L91.864,83.73C91.855,88.294,88.14,92,83.579,92z
		 M8.421,4.021c-2.348,0-4.26,1.907-4.264,4.256L4.02,83.568c-0.002,1.137,0.44,2.207,1.245,3.015
		c0.805,0.808,1.875,1.255,3.012,1.257l75.294,0.139c0.002,0,0.005,0,0.008,0c2.348,0,4.26-1.907,4.264-4.256L87.98,8.432
		c0.002-1.136-0.44-2.207-1.245-3.015C85.93,4.609,84.86,4.162,83.723,4.16L8.428,4.021C8.426,4.021,8.423,4.021,8.421,4.021z"/>
</g>
<g>
	<path fill="#327BBA" d="M68.269,36.077c-0.008,0-0.016,0-0.024,0c-3.4-0.006-6.595-1.336-8.994-3.745
		c-2.4-2.409-3.719-5.608-3.712-9.008c0.013-7.011,5.721-12.706,12.729-12.706c0.008,0,0.016,0,0.024,0
		c3.4,0.006,6.594,1.336,8.994,3.745c2.4,2.409,3.719,5.608,3.712,9.008C80.984,30.382,75.276,36.077,68.269,36.077z M68.268,14.64
		c-4.795,0-8.7,3.895-8.709,8.692c-0.004,2.326,0.898,4.514,2.539,6.162c1.642,1.648,3.828,2.558,6.154,2.562
		c0.005,0,0.011,0,0.016,0c4.795,0,8.7-3.895,8.709-8.692c0.004-2.326-0.898-4.514-2.539-6.162
		c-1.642-1.648-3.828-2.558-6.154-2.562C68.279,14.64,68.273,14.64,68.268,14.64z"/>
	<path fill="#327BBA" d="M74.642,70.769L55.345,49.825c-1.122-1.218-3.039-1.237-4.186-0.042L38.637,62.846
		c-1.103,1.151-2.932,1.183-4.075,0.072l-3.916-3.806c-1.195-1.162-3.126-1.065-4.199,0.21l-7.616,9.047
		c-1.022,1.213-2.676,4.047-4.686,2.979l-0.405-0.341c-1.213-1.022-0.73-2.449,0.292-3.662L25.987,53.14
		c1.074-1.275,3.004-1.372,4.199-0.21l4.218,4.1c1.143,1.111,2.972,1.079,4.075-0.072L51.25,43.639
		c1.146-1.195,3.063-1.176,4.185,0.042l23.822,25.853c1.075,1.167,2.117,2.43,0.713,3.887l-0.754,0.427
		C78.05,74.922,75.717,71.935,74.642,70.769z"/>
</g>
</svg>
