<?xml version="1.0" encoding="utf-8"?>
<!-- Generator: Adobe Illustrator 23.1.1, SVG Export Plug-In . SVG Version: 6.00 Build 0)  -->
<svg version="1.1" id="Layer_1" xmlns="http://www.w3.org/2000/svg" xmlns:xlink="http://www.w3.org/1999/xlink" x="0px" y="0px"
	 viewBox="0 0 92 92" style="enable-background:new 0 0 92 92;" xml:space="preserve">
<style type="text/css">
	.st0{fill:#E2F1FC;}
	.st1{display:none;fill:#F4F9FD;}
	.st2{fill:#327BBA;}
	.st3{display:none;}
	.st4{display:inline;fill:#327BBA;}
	.st5{fill:#F4F9FD;}
</style>
<g>
	<path class="st0" d="M8.4,2C5,2,2.2,4.8,2.1,8.3L2,83.6c0,3.5,2.8,6.3,6.3,6.3L83.6,90c3.5,0,6.3-2.8,6.3-6.3L90,8.4
		c0-3.5-2.8-6.3-6.3-6.3L8.4,2z"/>
	<path class="st1" d="M23.8,18.6c-2.8,0-5.1,2.3-5.1,5.1l-0.1,61.1c0,2.8,2.3,5.1,5.1,5.1L84.8,90c2.8,0,5.1-2.3,5.1-5.1L90,23.8
		c0-2.8-2.3-5.1-5.1-5.1L23.8,18.6z"/>
	<path class="st2" d="M83.6,92C83.6,92,83.6,92,83.6,92L8.3,91.9c-2.2,0-4.3-0.9-5.9-2.4S0,85.8,0,83.6L0.1,8.3C0.1,3.7,3.9,0,8.4,0
		c0,0,0,0,0,0l75.3,0.1c2.2,0,4.3,0.9,5.9,2.4C91.1,4.1,92,6.2,92,8.4l-0.1,75.3C91.9,88.3,88.1,92,83.6,92z M8.4,4
		C6.1,4,4.2,5.9,4.2,8.3L4,83.6c0,1.1,0.4,2.2,1.2,3s1.9,1.3,3,1.3L83.6,88c0,0,0,0,0,0c2.3,0,4.3-1.9,4.3-4.3L88,8.4
		c0-1.1-0.4-2.2-1.2-3c-0.8-0.8-1.9-1.3-3-1.3L8.4,4C8.4,4,8.4,4,8.4,4z"/>
</g>
<g class="st3">
	<path class="st4" d="M68.3,36.1C68.3,36.1,68.3,36.1,68.3,36.1c-3.4,0-6.6-1.3-9-3.7c-2.4-2.4-3.7-5.6-3.7-9
		c0-7,5.7-12.7,12.7-12.7c0,0,0,0,0,0c3.4,0,6.6,1.3,9,3.7s3.7,5.6,3.7,9C81,30.4,75.3,36.1,68.3,36.1z M68.3,14.6
		c-4.8,0-8.7,3.9-8.7,8.7c0,2.3,0.9,4.5,2.5,6.2c1.6,1.6,3.8,2.6,6.2,2.6c0,0,0,0,0,0c4.8,0,8.7-3.9,8.7-8.7c0-2.3-0.9-4.5-2.5-6.2
		C72.8,15.6,70.6,14.6,68.3,14.6C68.3,14.6,68.3,14.6,68.3,14.6z"/>
	<path class="st4" d="M74.6,70.8L55.3,49.8c-1.1-1.2-3-1.2-4.2,0L38.6,62.8c-1.1,1.2-2.9,1.2-4.1,0.1l-3.9-3.8
		c-1.2-1.2-3.1-1.1-4.2,0.2l-7.6,9c-1,1.2-2.7,4-4.7,3L13.7,71c-1.2-1-0.7-2.4,0.3-3.7l12-14.2c1.1-1.3,3-1.4,4.2-0.2l4.2,4.1
		c1.1,1.1,3,1.1,4.1-0.1l12.8-13.3c1.1-1.2,3.1-1.2,4.2,0l23.8,25.9c1.1,1.2,2.1,2.4,0.7,3.9l-0.8,0.4
		C78.1,74.9,75.7,71.9,74.6,70.8z"/>
</g>
<g>
	<path class="st5" d="M35,67.2c-0.3,0-0.7-0.1-1-0.2c-0.6-0.4-1-1-1-1.8V26.8c0-0.7,0.4-1.4,1-1.8c0.3-0.2,0.6-0.2,1-0.2
		c0.4,0,0.7,0.1,1.1,0.3l30,19.2c0.6,0.4,0.9,1,0.9,1.7s-0.3,1.3-0.9,1.7l-30,19.2C35.7,67.1,35.4,67.2,35,67.2z"/>
	<path class="st2" d="M35,26.8L65,46L35,65.2V46V26.8 M35,22.8c-0.7,0-1.3,0.2-1.9,0.5c-1.3,0.7-2.1,2-2.1,3.5V46v19.2
		c0,1.5,0.8,2.8,2.1,3.5c0.6,0.3,1.3,0.5,1.9,0.5c0.7,0,1.5-0.2,2.2-0.6l30-19.2c1.2-0.7,1.8-2,1.8-3.4s-0.7-2.6-1.8-3.4l-30-19.2
		C36.5,23.1,35.7,22.8,35,22.8L35,22.8z"/>
</g>
</svg>
