<svg xmlns="http://www.w3.org/2000/svg" width="126.351" height="112.017" viewBox="0 0 126.351 112.017">
    <defs>
        <style>
            .cls-1{fill:#fc346c}.cls-3{fill:#dce5f7}.cls-4{fill:#fccc6c}.cls-5{fill:#44d4f4}.cls-6{fill:#240448}.cls-7{fill:#fff}
        </style>
    </defs>
    <g id="templates" transform="translate(-73.227 -584.872)">
        <path id="Path_61" d="M119.176 586.457l2.238 4.227 4.093 2.316-4.093 2.312-2.238 4.227-2.238-4.227-4.093-2.312 4.093-2.312z" class="cls-1"/>
        <path id="Path_62" d="M162.4 668.013l1.515 2.861 2.77 1.565-2.768 1.561-1.515 2.861-1.515-2.861-2.77-1.565 2.77-1.565z" class="cls-1"/>
        <g id="Group_108">
            <path id="Path_63" fill="#635cff" d="M130.451 640.811l8.891-55.939 52.658 8.37-8.891 55.939zm10.849-53.244l-8.152 51.288 48.006 7.63L189.3 595.2z"/>
            <g id="Group_66">
                <path id="Path_64" d="M199.577 610.424l-17.419-1.937a16.258 16.258 0 0 1 1.72-4.095c.085-.108.16-.208.222-.286.956-1.2 3.295-1.811 4.136-.151.588 1.161-.235 3.2 1.178 3.9 1.621.806 2.293-1.369 2.571-2.491a26.038 26.038 0 0 1 1.033-4.134c.22-.389.563-.823 1.036-.829a1.216 1.216 0 0 1 .965.875 16.233 16.233 0 0 1 .41 4.037c.034 1.1-.022 3.507 1.4 3.8.756.155 1.6-1.13 2.238-.448.408.435.295 1.235.51 1.759z" class="cls-3"/>
            </g>
            <path id="Path_65" d="M127.654 605.494s20.49 1.862 20.511 1.874l4.908.448a4.236 4.236 0 0 0 .142-.951v-.079-.05a8.923 8.923 0 0 0-.167-1.291 6.857 6.857 0 0 0-.593-1.731 4.5 4.5 0 0 0-1.39-1.656 6.1 6.1 0 0 0-1.942-.919 4.574 4.574 0 0 0-3.446.357 4.949 4.949 0 0 1-2.054.982c-1.193.045-1.385-1.28-1.4-2.187-.038-2.443.1-6.23-2.785-7.2a1.7 1.7 0 0 0-1.357.09 4.251 4.251 0 0 0-1.667 2.109c-.546 1.257-.91 2.64-1.558 3.846a2.049 2.049 0 0 1-2.337 1.153 2.459 2.459 0 0 0-1.006-.019 3.769 3.769 0 0 0-1.987 1.171 5.242 5.242 0 0 0-.519.65 12.515 12.515 0 0 0-1.353 3.403z" class="cls-3"/>
            <g id="Group_67">
                <circle id="Ellipse_16" cx="9.81" cy="9.81" r="9.81" class="cls-4" transform="rotate(-65.767 561.688 193.242)"/>
                <path id="Path_66" d="M172.571 617.842l10.116 16.246-23.617-2.688z" class="cls-5"/>
                <path id="Path_67" d="M157.842 610.424l11.107 22.1-26.887-3.054z" class="cls-5"/>
            </g>
            <g id="Group_71">
                <path id="Path_68" d="M124.989 635.512a8.166 8.166 0 0 0 5.742-.821c.4-.192.793-.4 1.189-.6l.932-1.429a2.845 2.845 0 1 0-4.91-2.859z" class="cls-6"/>
                <path id="Path_69" d="M122.812 639.722a4.865 4.865 0 0 1 3.5 2.962l5.6-8.6c-.4.207-.791.412-1.189.6a8.166 8.166 0 0 1-5.742.821z" class="cls-6"/>
                <path id="Path_70" d="M130.565 630.939a2.957 2.957 0 0 0 3.658-.544l2.945-3.582 1.393-1.694-6.877-4.005-1.256 3.267-1.193 3.108a2.957 2.957 0 0 0 1.33 3.45z" class="cls-1"/>
                <path id="Path_71" d="M130.428 624.381a3.519 3.519 0 0 0 3.617 1.6c1.989-.28 2.8.262 3.123.83l1.393-1.694-6.877-4.005z" class="cls-4"/>
                <g id="Group_68">
                    <path id="Path_72" d="M136.454 629.749a.584.584 0 0 0 .578-.505l.414-3.016a.584.584 0 1 0-1.157-.159l-.415 3.016a.584.584 0 0 0 .5.658.535.535 0 0 0 .08.006z" class="cls-4"/>
                </g>
                <g id="Group_69">
                    <path id="Path_73" d="M133.712 628.085a.584.584 0 0 0 .578-.505l.414-3.016a.584.584 0 1 0-1.157-.159l-.414 3.016a.584.584 0 0 0 .5.659.733.733 0 0 0 .079.005z" class="cls-4"/>
                </g>
                <g id="Group_70">
                    <path id="Path_74" d="M132.464 628.684a.584.584 0 0 0 .578-.505l.415-3.016A.584.584 0 0 0 132.3 625l-.414 3.017a.584.584 0 0 0 .5.658.733.733 0 0 0 .078.009z" class="cls-4"/>
                </g>
                <path id="Path_75" d="M121.5 642.261l4.551.83.265-.407a4.867 4.867 0 0 0-3.5-2.962z" class="cls-6"/>
            </g>
            <g id="Group_106">
                <g id="Group_72">
                    <path id="Path_76" d="M86.856 663.114a7.042 7.042 0 0 0 11.938.7l13.824-19.394a7.038 7.038 0 0 0-11.5-8.12l-13.823 19.4a7.04 7.04 0 0 0-.439 7.414z" class="cls-1"/>
                </g>
                <g id="Group_73">
                    <path id="Path_77" d="M112.827 646.075l-6.566 10.067c-7.288-6.048-3.81-15.226-3.81-15.226z" class="cls-6"/>
                </g>
                <g id="Group_74">
                    <path id="Path_78" d="M117.888 692.706a2.654 2.654 0 0 0 2.58-2.041l2.951-12.436a2.654 2.654 0 0 0-5.164-1.229l-2.955 12.439a2.656 2.656 0 0 0 2.585 3.267z" class="cls-1"/>
                </g>
                <g id="Group_75">
                    <path id="Path_79" d="M114.607 688.558h.041a2.654 2.654 0 0 0 2.614-2.693l-.136-9.047a2.655 2.655 0 0 0-2.653-2.615h-.041a2.654 2.654 0 0 0-2.613 2.693l.135 9.047a2.655 2.655 0 0 0 2.653 2.615z" class="cls-1"/>
                </g>
                <g id="Group_76">
                    <path id="Path_80" d="M116.743 649.471a6.915 6.915 0 0 0 12.74-5.384c-1.487-3.518-12.04-8.731-12.04-8.731-2.943 2.428-2.187 10.597-.7 14.115z" class="cls-4"/>
                </g>
                <g id="Group_77">
                    <path id="Path_81" d="M127.654 679.225H91.28l6.12-22.986-1.439-4.831a15.682 15.682 0 0 1 1.695-12.867c.084-.131.168-.261.255-.39a14.049 14.049 0 0 1 11.558-6.616 13.53 13.53 0 0 1 9.923 4.549 16.64 16.64 0 0 1 1.509 1.885 19.379 19.379 0 0 1 3.279 9.406z" class="cls-4"/>
                </g>
                <g id="Group_78">
                    <path id="Path_82" d="M85.547 683.793a19.1 19.1 0 0 1 .94-6.2 22.963 22.963 0 0 1 6.465-9.866c8.853 4.054 17.084 2.19 34.429-.752l2.795 20.238-18.345-.967-.47 2.465-1.561 8.181H87.511c-.322 0-1.62-8.648-1.727-9.529a29.9 29.9 0 0 1-.237-3.57z" class="cls-6"/>
                </g>
                <g id="Group_79">
                    <path id="Path_83" d="M108.288 670.4q.672 0 1.356-.011a130.127 130.127 0 0 0 19.373-1.967 1.471 1.471 0 1 0-.492-2.9c-14.109 2.392-25.4 2.561-33.548.5a1.471 1.471 0 0 0-.72 2.852 57.838 57.838 0 0 0 14.031 1.526z" class="cls-7"/>
                </g>
                <g id="Group_80">
                    <path id="Path_84" d="M131.379 696.889h-26.31L104 691.906l-1.324-6.146-.384-1.788.242 1.782-.244-1.788-.645-4.74-.162-1.187-.487-3.584 5.894 1.9.237.076 5.162 1.666 3.511 1.13 13.9 4.479.021.006.223 1.765.219 1.731z" class="cls-6"/>
                </g>
                <g id="Group_81">
                    <path id="Path_85" d="M110.822 689.264a5.564 5.564 0 0 0 3.767-1.458 6.361 6.361 0 0 0 2.013-4.622l.016-1.093a.525.525 0 0 0-.517-.533h-.008a.524.524 0 0 0-.524.517l-.017 1.094a5.3 5.3 0 0 1-1.668 3.859 4.535 4.535 0 0 1-3.452 1.171 5.786 5.786 0 0 1-5.026-5.933l.082-5.444 1.861.153a.525.525 0 1 0 .086-1.046l-2.421-.2a.526.526 0 0 0-.567.515l-.09 6.005a6.85 6.85 0 0 0 5.989 6.995c.16.014.319.02.476.02z" class="cls-7"/>
                </g>
                <g id="Group_82">
                    <path id="Path_86" d="M113.92 617.99l-.013 2.965-.02 4.65-.007 1.6v.682l-.006 1.465-.015 3.2a4.926 4.926 0 1 1-9.851-.042l.019-4.086.015-3.309.025-5.417.009-1.749a4.867 4.867 0 0 1 .165-1.247 4.925 4.925 0 0 1 9.683 1.292z" class="cls-1"/>
                </g>
                <g id="Group_83">
                    <path id="Path_87" d="M113.92 617.99l-.013 2.965-.02 4.65-.007 1.6v.682l-.006 1.465a9.932 9.932 0 0 1-8.169-6.117l-.445-1.087a7.98 7.98 0 0 1 1.712-8.668 4.929 4.929 0 0 1 6.952 4.514z" class="cls-6"/>
                </g>
                <g id="Group_84">
                    <path id="Path_88" d="M116.766 626.359a6.076 6.076 0 0 0 3.317-7.927l-1.912-4.662a8.009 8.009 0 0 0-10.447-4.372 8.009 8.009 0 0 0-4.371 10.448l.446 1.088a9.939 9.939 0 0 0 12.967 5.425z" class="cls-1"/>
                </g>
                <g id="Group_85">
                    <path id="Path_89" d="M117.855 613.879a16.408 16.408 0 0 0 3.664 4.686.849.849 0 0 1 .273 1.108.836.836 0 0 1-.706.412l-3.489.089z" class="cls-1"/>
                </g>
                <g id="Group_86">
                    <path id="Path_90" d="M109.082 620.756s-2.617-5.314.986-5.494c8.54-.426 9.1-4.263 9.107-4.264.036-.026-1.026-1.276-1.088-1.343a13.425 13.425 0 0 0-3.109-2.54c-4.324-2.509-10.037-1-13.281 2.586-3.6 3.976-2.813 7.883-1.188 10.554a4.87 4.87 0 0 0 6.57 1.644z" class="cls-6"/>
                </g>
                <g id="Group_87">
                    <path id="Path_91" d="M101.992 606.5a25.478 25.478 0 0 0 .852-2.835A5.879 5.879 0 0 0 96.7 596.8c-2.615.154-4.785 1.986-6.742 3.727a11.835 11.835 0 0 0-6.113-4.249c-3.651-.989-9.654.6-9.212 5.367a6.617 6.617 0 0 0 2.286 4.178 3.1 3.1 0 0 1 .968 1.148 1.925 1.925 0 0 1-.566 1.89 13.963 13.963 0 0 1-1.648 1.263 6.323 6.323 0 0 0 .185 10.134 10.188 10.188 0 0 1 2.479 1.849c1.9 2.519 1.1 6.141 3.383 8.568a6.756 6.756 0 0 0 6.265 1.7A12.094 12.094 0 0 0 93.767 629c1.755-1.711 3.251-3.9 3.332-6.348a6.417 6.417 0 0 0-2.764-5.425c-.954-.646-2.223-1.224-2.336-2.37a2.053 2.053 0 0 1 1.862-2 5.482 5.482 0 0 1 2.913.642c2.632 1.155 5.174 2.58 7.967 3.261l-.674.233a1.23 1.23 0 0 0 1.967.32 2.448 2.448 0 0 0 .488-2.239 5.113 5.113 0 0 0-1.508-2.72c-.993-.931-2.391-1.5-2.992-2.725a4.266 4.266 0 0 1-.064-3.013c.011-.041.022-.079.034-.116z" class="cls-6"/>
                </g>
                <g id="Group_88">
                    <circle id="Ellipse_17" cx="3.778" cy="3.778" r="3.778" class="cls-1" transform="rotate(-38.792 928.887 163.907)"/>
                </g>
                <g id="Group_89">
                    <path id="Path_92" d="M98.712 615.157a.524.524 0 0 0 .443-.243l3.437-5.4a.525.525 0 1 0-.886-.564l-3.436 5.4a.525.525 0 0 0 .442.807z" class="cls-7"/>
                </g>
                <g id="Group_90">
                    <path id="Path_93" d="M106.924 621.623l.012 1z" class="cls-6"/>
                    <path id="Path_94" d="M106.936 623.15h.007a.524.524 0 0 0 .518-.531l-.012-1a.525.525 0 0 0-.524-.518h-.007a.523.523 0 0 0-.518.531l.012 1a.524.524 0 0 0 .524.518z" class="cls-7"/>
                </g>
                <g id="Group_91">
                    <path id="Path_95" d="M98.879 672.25a.518.518 0 0 0 .163-.026.525.525 0 0 0 .336-.662 4.247 4.247 0 0 1 .854-4.542.525.525 0 0 0-.78-.7 5.274 5.274 0 0 0-1.072 5.571.525.525 0 0 0 .499.359z" class="cls-6"/>
                </g>
                <g id="Group_92">
                    <path id="Path_96" d="M116.536 672.438a.525.525 0 0 0 .439-.236 5.277 5.277 0 0 0 .218-5.67.525.525 0 0 0-.938.473 4.249 4.249 0 0 1-.157 4.62.524.524 0 0 0 .438.813z" class="cls-6"/>
                </g>
                <g id="Group_93">
                    <path id="Rectangle_95" d="M0 0H13.1V7.182H0z" class="cls-4" transform="translate(102.303 630.271)"/>
                </g>
                <g id="Group_94">
                    <path id="Path_97" d="M158.977 660.5a.523.523 0 0 0 .278-.08 4.507 4.507 0 0 0 1.962-3.783 9.339 9.339 0 0 0-5.286-8.43 4.5 4.5 0 0 0-4.259.118.525.525 0 1 0 .557.889 3.5 3.5 0 0 1 3.289-.043 8.3 8.3 0 0 1 4.651 7.418 3.5 3.5 0 0 1-1.471 2.942.525.525 0 0 0 .279.969z" class="cls-6"/>
                </g>
                <g id="Group_95">
                    <path id="Path_98" d="M130.181 675.092a7.04 7.04 0 0 0 6.3-10.163l-13.2-26.649a7.039 7.039 0 1 0-12.615 6.247l13.2 26.649a7.04 7.04 0 0 0 6.315 3.916z" class="cls-1"/>
                </g>
                <g id="Group_96">
                    <path id="Path_99" d="M166.116 651.82a5.494 5.494 0 0 1-3.085 4.8l-27.9 18.579a7.564 7.564 0 0 1-7.833-12.942l29.11-15.228a6.929 6.929 0 0 1 8.783 1.893 5.074 5.074 0 0 1 .925 2.898z" class="cls-1"/>
                </g>
                <g id="Group_97">
                    <path id="Path_100" d="M162.439 652.787c.471.3 1.018 2.639 1.62 2.592l11.548-5.306a2.654 2.654 0 0 0-.408-5.292l-11.525 3.13a2.654 2.654 0 0 0-1.235 4.876z" class="cls-1"/>
                </g>
                <g id="Group_98">
                    <path id="Path_101" d="M155.029 652.72a2.654 2.654 0 0 0 2.64-2.413l.437-4.788a2.654 2.654 0 0 0-5.286-.483l-.437 4.788a2.652 2.652 0 0 0 2.4 2.884c.083.008.165.012.246.012z" class="cls-1"/>
                </g>
                <g id="Group_99">
                    <path id="Path_102" d="M157.142 661.013a3.93 3.93 0 0 0 2.113-.59.525.525 0 1 0-.557-.889 3.5 3.5 0 0 1-3.289.042 8.3 8.3 0 0 1-4.651-7.417 3.5 3.5 0 0 1 1.471-2.942.525.525 0 1 0-.557-.889 4.505 4.505 0 0 0-1.962 3.782 9.337 9.337 0 0 0 5.29 8.431 5.468 5.468 0 0 0 2.142.472z" class="cls-6"/>
                </g>
                <g id="Group_100">
                    <path id="Path_103" d="M152.457 655.179a2.252 2.252 0 1 1-1.457-2.832 2.25 2.25 0 0 1 1.457 2.832z" class="cls-7"/>
                </g>
                <g id="Group_101">
                    <path id="Path_104" d="M154.529 658.211a2.252 2.252 0 1 1-1.454-2.833 2.253 2.253 0 0 1 1.454 2.833z" class="cls-7"/>
                </g>
                <g id="Group_102">
                    <path id="Path_105" d="M129.931 661.011a.535.535 0 0 0 .249-.063l3.455-1.862a.525.525 0 1 0-.5-.924l-3.455 1.862a.525.525 0 0 0 .249.987z" class="cls-6"/>
                </g>
                <g id="Group_103">
                    <path id="Path_106" d="M104.388 650.889l-5.677-5.752 5.281-5.737 3.967 5.906z" class="cls-1"/>
                </g>
                <g id="Group_104">
                    <path id="Path_107" d="M104.388 650.889l-5.677-5.752 5.281-5.737 3.967 5.906z" class="cls-1"/>
                    <path id="Path_108" d="M104.015 651.258l-5.677-5.752a.526.526 0 0 1-.013-.725l5.281-5.737a.525.525 0 0 1 .822.063l3.966 5.906a.524.524 0 0 1 .007.575l-3.57 5.584a.528.528 0 0 1-.388.239.49.49 0 0 1-.055 0 .526.526 0 0 1-.373-.153zm-.088-11.013l-4.491 4.879 4.864 4.929 3.031-4.741z" class="cls-7"/>
                </g>
                <g id="Group_105">
                    <path id="Path_109" d="M106.985 624.849l.046 3.893z" class="cls-6"/>
                    <path id="Path_110" d="M107.031 629.267h.007a.525.525 0 0 0 .518-.531l-.046-3.893a.526.526 0 0 0-.525-.519h-.006a.526.526 0 0 0-.519.531l.046 3.893a.526.526 0 0 0 .525.519z" class="cls-7"/>
                </g>
            </g>
            <g id="Group_107">
                <ellipse id="Ellipse_18" cx="16.808" cy="6.408" class="cls-4" rx="16.808" ry="6.408" transform="rotate(-9.25 3992.976 -587.86)"/>
                <ellipse id="Ellipse_19" cx="3.244" cy="1.519" class="cls-7" rx="3.244" ry="1.519" transform="rotate(-11.032 3391.589 -557.857)"/>
                <ellipse id="Ellipse_20" cx="3.244" cy="1.519" class="cls-7" rx="3.244" ry="1.519" transform="rotate(-11.032 3384.928 -511.123)"/>
                <ellipse id="Ellipse_21" cx="3.244" cy="1.519" class="cls-7" rx="3.244" ry="1.519" transform="rotate(-11 3407.55 -466.078)"/>
                <ellipse id="Ellipse_22" cx="3.244" cy="1.519" class="cls-7" rx="3.244" ry="1.519" transform="rotate(-11.032 3414.761 -554.355)"/>
                <ellipse id="Ellipse_23" cx="3.244" cy="1.519" class="cls-7" rx="3.244" ry="1.519" transform="rotate(-11 3430.58 -507.367)"/>
            </g>
        </g>
    </g>
</svg>
