<svg xmlns="http://www.w3.org/2000/svg" width="122.181" height="120.63" viewBox="0 0 122.181 120.63">
    <defs>
        <style>
            .cls-1{fill:#fc346c}.cls-2{fill:#44d4f4}.cls-3{fill:#240448}.cls-4{fill:#fccc6c}
        </style>
    </defs>
    <g id="funnel_recipes" transform="translate(-606.999 -71.914)">
        <path id="Path_449" d="M703.59 192.544h11.61l-.26-.825c-.019-.06-.049-.113-.073-.17-.009-.025-.014-.051-.024-.076l-10.9-30.436a5.478 5.478 0 0 0-10.314 3.693z" class="cls-1"/>
        <path id="Path_450" d="M699.979 192.544l-4.5-16.027h-28.327l-3.663 16.027z" class="cls-2"/>
        <g id="Group_415">
            <path id="Path_451" d="M694.591 87.083a.246.246 0 0 1-.175-.421l9.781-9.781a.247.247 0 0 1 .349.349l-9.78 9.781a.249.249 0 0 1-.175.072z" class="cls-3"/>
        </g>
        <path id="Path_452" d="M691.17 159.738a.791.791 0 0 1-.791-.791v-9.187a3.062 3.062 0 0 0-3.059-3.059 2.071 2.071 0 0 0-.953.23.791.791 0 0 1-.723-1.406 3.677 3.677 0 0 1 1.676-.4 4.646 4.646 0 0 1 4.641 4.64v9.187a.791.791 0 0 1-.791.786z" class="cls-2"/>
        <path id="Path_453" d="M681.6 159.738a.791.791 0 0 1-.791-.791V146.7h-3.059a2.068 2.068 0 0 0-.953.23.791.791 0 0 1-.724-1.406 3.681 3.681 0 0 1 1.677-.4h4.64v13.827a.791.791 0 0 1-.79.787z" class="cls-2"/>
        <path id="Path_454" d="M655.811 177.829a5.475 5.475 0 0 1-4.55-2.429l-18.218-27.188a5.478 5.478 0 1 1 9.1-6.1l13.605 20.3 1.733-2.656a5.477 5.477 0 1 1 9.176 5.984l-6.259 9.6a5.477 5.477 0 0 1-4.554 2.486z" class="cls-1"/>
        <path id="Rectangle_155" d="M0 0H6.384V10.955H0z" class="cls-3" transform="rotate(-56.9 475.997 -526.704)"/>
        <path id="Path_455" d="M667.437 167.943a1.742 1.742 0 0 1-.942-.276l-9.56-6.11a1.753 1.753 0 1 1 1.889-2.954l9.559 6.11a1.753 1.753 0 0 1-.946 3.23z" class="cls-3"/>
        <path id="Path_456" d="M665.552 162.884a5.479 5.479 0 0 1-4.584-8.47l2.7-4.146a5.477 5.477 0 0 1 9.176 5.984l-2.7 4.146a5.471 5.471 0 0 1-4.592 2.486z" class="cls-3"/>
        <path id="Path_457" d="M687.12 184.7h-11.91a6.574 6.574 0 0 1 0-13.147h11.91a6.574 6.574 0 0 1 0 13.147z" class="cls-2"/>
        <path id="Path_458" d="M695.479 176.517h-28.327l-3.9-21.89a6.685 6.685 0 0 1 6.582-7.859H692.8a6.687 6.687 0 0 1 6.583 7.859z" class="cls-3"/>
        <path id="Path_459" d="M696.092 179.726h-29.553l-1.688-15.991L675 157.406h9.971l12.81 6.329z" class="cls-2"/>
        <path id="Path_460" d="M680.6 149.9a3.367 3.367 0 0 0 3.77-2.914l.31-2.4.158-1.233.543-4.238.259-2.013a3.369 3.369 0 0 0-2.913-3.771 3.319 3.319 0 0 0-.434-.028 3.371 3.371 0 0 0-3.338 2.941l-.386 3.016-.526 4.093-.355 2.771a3.369 3.369 0 0 0 2.912 3.776z" class="cls-1"/>
        <path id="Path_461" d="M679.638 139.324c.635 2.924 2.059 5.032 5.039 5.262l.158-1.233.543-4.238.259-2.013a3.369 3.369 0 0 0-2.913-3.771 3.319 3.319 0 0 0-.434-.028 3.371 3.371 0 0 0-3.338 2.941z" class="cls-3"/>
        <path id="Path_462" d="M686.5 142.892a4.157 4.157 0 0 0 3.111-4.989l-.778-3.358a5.478 5.478 0 0 0-6.574-4.1 5.478 5.478 0 0 0-4.1 6.574l.182.784a6.8 6.8 0 0 0 8.159 5.089z" class="cls-1"/>
        <path id="Path_463" d="M688.444 134.662l2.77 3.2a.579.579 0 0 1-.4.958l-2.383.151z" class="cls-1"/>
        <circle id="Ellipse_55" cx="3.408" cy="3.408" r="3.408" class="cls-4" transform="translate(685.339 126.626)"/>
        <path id="Path_464" d="M681.763 129.984a2.41 2.41 0 1 0 2.41-2.41 2.41 2.41 0 0 0-2.41 2.41z" class="cls-4"/>
        <path id="Path_465" d="M679.563 133.442h8.882a2.147 2.147 0 0 0 2.147-2.147 2.147 2.147 0 0 0-2.147-2.147h-8.882a2.147 2.147 0 0 0-2.147 2.147 2.147 2.147 0 0 0 2.147 2.147z" class="cls-4"/>
        <path id="Path_466" d="M677.416 137.7h3.834l1.66-6.426h-5.494z" class="cls-4"/>
        <path id="Rectangle_156" d="M0 0H10.955V6.384H0z" class="cls-3" transform="rotate(-20.17 791.708 -1863.352)"/>
        <path id="Path_467" d="M696.588 162.37a5.479 5.479 0 0 1-5.142-3.59l-1.707-4.648a5.477 5.477 0 1 1 10.283-3.776l1.707 4.644a5.48 5.48 0 0 1-5.141 7.367z" class="cls-3"/>
        <path id="Path_468" d="M693.685 166.627a1.754 1.754 0 0 1-.611-3.4l10.23-3.8a1.753 1.753 0 0 1 1.222 3.286l-10.23 3.8a1.748 1.748 0 0 1-.611.114z" class="cls-3"/>
        <path id="Path_469" d="M693.685 179.685h-27.208a.543.543 0 0 1 0-1.086h27.208a.543.543 0 1 1 0 1.086z" class="cls-3"/>
        <path id="Path_470" d="M696.44 179.685h-6.73a.543.543 0 1 1 0-1.086h6.73a.543.543 0 1 1 0 1.086z" class="cls-3"/>
        <path id="Path_471" d="M634.278 148.26a1.939 1.939 0 0 1-1.61-.854l-4.494-6.653a1.94 1.94 0 1 1 3.216-2.172l4.494 6.652a1.94 1.94 0 0 1-1.606 3.027z" class="cls-1"/>
        <path id="Path_472" d="M636.322 144.909a1.938 1.938 0 0 1-1.647-.912l-4.955-7.924a1.941 1.941 0 0 1 3.291-2.058l4.955 7.924a1.942 1.942 0 0 1-1.644 2.97z" class="cls-1"/>
        <path id="Path_473" d="M639.137 143.149a1.94 1.94 0 0 1-1.719-1.036l-3.565-6.762a1.94 1.94 0 1 1 3.433-1.81l3.565 6.762a1.94 1.94 0 0 1-1.714 2.846z" class="cls-1"/>
        <path id="Path_474" d="M681.6 159.738h-7.518v-10.95a3.657 3.657 0 0 1 1.991-3.263.791.791 0 0 1 .724 1.406 2.08 2.08 0 0 0-1.133 1.857v9.369h5.936a.791.791 0 0 1 0 1.581z" class="cls-2"/>
        <path id="Path_475" d="M684.443 159.738a.791.791 0 0 1-.79-.791v-10.159a3.657 3.657 0 0 1 1.991-3.263.791.791 0 0 1 .723 1.406 2.08 2.08 0 0 0-1.133 1.857v10.159a.791.791 0 0 1-.791.791z" class="cls-2"/>
        <path id="Path_476" d="M676.436 108.817a3.693 3.693 0 0 1-2.535-6.38l6.212-5.859a3.693 3.693 0 1 1 5.068 5.373l-6.212 5.859a3.679 3.679 0 0 1-2.533 1.007z" class="cls-3"/>
        <path id="Path_477" d="M652.051 129.426a1.3 1.3 0 0 1-.9-2.251l24.385-23a1.3 1.3 0 0 1 1.789 1.9l-24.385 23a1.3 1.3 0 0 1-.889.351z" class="cls-3"/>
        <path id="Path_478" d="M623.2 159.026a3.693 3.693 0 0 1-2.535-6.38l28.849-27.21a3.693 3.693 0 0 1 5.068 5.374l-28.848 27.21a3.682 3.682 0 0 1-2.534 1.006z" class="cls-4"/>
        <path id="Path_479" d="M608.3 170.69a1.3 1.3 0 0 1-.895-2.252l14.9-14.053a1.3 1.3 0 1 1 1.789 1.9l-14.9 14.054a1.3 1.3 0 0 1-.894.351z" class="cls-3"/>
        <path id="Path_480" d="M640.405 145.1a1.94 1.94 0 0 1-1.574-3.073l.741-1.031-1.129-.652a1.941 1.941 0 0 1 1.943-3.36l2.983 1.725a1.941 1.941 0 0 1 .6 2.812l-1.991 2.771a1.937 1.937 0 0 1-1.573.808z" class="cls-1"/>
        <path id="Rectangle_157" d="M0 0H14.043V11.161H0z" class="cls-2" transform="rotate(-15.42 793.261 -2434.727)"/>
        <circle id="Ellipse_56" cx="4.049" cy="4.049" r="4.049" class="cls-2" transform="rotate(-.129 52407.535 -297937.048)"/>
        <circle id="Ellipse_57" cx="4.049" cy="4.049" r="4.049" class="cls-2" transform="translate(681.077 114.446)"/>
        <circle id="Ellipse_58" cx="5.257" cy="5.257" r="5.257" class="cls-2" transform="translate(674.497 112.872)"/>
        <path id="Rectangle_158" d="M0 0H19.844V3.512H0z" class="cls-2" transform="rotate(-24.286 646.365 -1498.037)"/>
        <circle id="Ellipse_59" cx="2.585" cy="2.585" r="2.585" class="cls-1" transform="translate(676.732 134.446)"/>
        <g id="Group_416">
            <path id="Path_481" d="M687.585 101.418a7.563 7.563 0 0 1-5.51-2.066c-1.912-1.912-2.524-4.883-1.723-8.366a23 23 0 0 1 15.828-15.828c3.483-.8 6.454-.189 8.366 1.723a7.468 7.468 0 0 1 2.055 5.1 14.6 14.6 0 0 1-1.435 6.481.247.247 0 0 1-.45-.2c2.022-4.462 1.823-8.69-.519-11.032-3.722-3.722-11.634-1.866-17.637 4.136S678.7 95.281 682.425 99c1.787 1.787 4.6 2.352 7.906 1.591a20.852 20.852 0 0 0 9.73-5.727 24.038 24.038 0 0 0 3.039-3.7.247.247 0 0 1 .412.274 24.588 24.588 0 0 1-3.1 3.776 21.337 21.337 0 0 1-9.968 5.859 12.765 12.765 0 0 1-2.859.345z" class="cls-3"/>
        </g>
        <g id="Group_417">
            <path id="Path_482" d="M684.225 100.112a2.926 2.926 0 0 1-2.15-.76c-1.422-1.423-.853-4.506 1.562-8.459a.247.247 0 0 1 .422.258c-2.253 3.687-2.864 6.622-1.634 7.852.962.962 3.06.783 5.755-.493a33.844 33.844 0 0 0 8.91-6.614 33.872 33.872 0 0 0 6.615-8.91c1.275-2.695 1.455-4.793.492-5.756s-3.061-.783-5.755.493a33.847 33.847 0 0 0-8.911 6.614 41.82 41.82 0 0 0-3.289 3.694.247.247 0 0 1-.388-.306 42.349 42.349 0 0 1 3.328-3.737 34.355 34.355 0 0 1 9.048-6.712c2.938-1.39 5.181-1.53 6.316-.4s.995 3.379-.4 6.316a34.354 34.354 0 0 1-6.712 9.048 34.354 34.354 0 0 1-9.048 6.712 10.219 10.219 0 0 1-4.161 1.16z" class="cls-3"/>
        </g>
        <g id="Group_418">
            <path id="Path_483" d="M682.25 99.424a.247.247 0 0 1-.175-.421L692 89.082a.247.247 0 0 1 .349.349l-9.921 9.921a.249.249 0 0 1-.178.072z" class="cls-3"/>
        </g>
        <g id="Group_419">
            <path id="Path_484" d="M640.225 117.637q-.172 0-.345-.009a6.374 6.374 0 0 1-3.925-11.1 1.834 1.834 0 0 1 2.452 2.727 2.706 2.706 0 1 0 3.62 4.024 1.834 1.834 0 0 1 2.452 2.721 6.328 6.328 0 0 1-4.254 1.637z" class="cls-4"/>
        </g>
        <path id="Path_485" d="M711.059 117.1c-1.815 2.283-4.644 3.055-6.319 1.724s-1.56-4.261.255-6.545c1.253-1.576 4.587-2.805 6.532-3.414a1.068 1.068 0 0 1 1.385 1.1c-.155 2.035-.6 5.56-1.853 7.135z" class="cls-1"/>
        <path id="Path_486" d="M648.466 79.363c1.419 2.549 1.055 5.458-.814 6.5s-4.535-.182-5.954-2.73c-.98-1.76-.844-5.311-.666-7.341a1.069 1.069 0 0 1 1.545-.861c1.823.918 4.91 2.669 5.889 4.432z" class="cls-2"/>
        <path id="Path_487" d="M669.7 76.976a15.271 15.271 0 0 1 5.555-5.062 14.054 14.054 0 0 1-7.706 12.263 15.267 15.267 0 0 1 2.151-7.201z" class="cls-4"/>
        <path id="Path_488" d="M724.493 143.356a15.276 15.276 0 0 1-7.044 2.619 14.051 14.051 0 0 1 11.731-8.494 15.266 15.266 0 0 1-4.687 5.875z" class="cls-2"/>
        <path id="Path_489" d="M628.3 175.357a15.272 15.272 0 0 1 6.418 3.912 14.057 14.057 0 0 1-13.933-3.957 15.262 15.262 0 0 1 7.515.045z" class="cls-2"/>
    </g>
</svg>
