<svg xmlns="http://www.w3.org/2000/svg" width="320" height="200.548" viewBox="0 0 320 200.548">
    <defs>
        <style>
            .cls-3{fill:#fff}.cls-4{fill:#44d4f4}.cls-5{fill:#240448}.cls-6{fill:#fc346c}
        </style>
    </defs>
    <g id="Group_466" data-name="Group 466" transform="translate(-949.666 -1000.339)">
        <g id="Group_477" data-name="Group 477">
            <g id="Group_476" data-name="Group 476">
                <rect id="Rectangle_188" data-name="Rectangle 188" width="320" height="190" rx="20" transform="translate(949.666 1010.887)" style="fill:#e8ecef"/>
            </g>
        </g>
        <g id="Group_478" data-name="Group 478">
            <path id="Path_1761" data-name="Path 1761" d="M1064.039 1200.887v-.178c0-31.177-9.806-56.451-21.9-56.451s-21.9 25.274-21.9 56.451v.178z" style="fill:#fccc6c"/>
        </g>
        <g id="Group_479" data-name="Group 479">
            <path id="Path_1762" data-name="Path 1762" class="cls-3" d="M1032.142 1149.776a66.093 66.093 0 0 0-.232 5.551c0 14.488 4.58 26.234 10.229 26.234s10.23-11.746 10.23-26.234c0-1.906-.081-3.761-.232-5.551z"/>
        </g>
        <g id="Group_480" data-name="Group 480">
            <path id="Path_1763" data-name="Path 1763" class="cls-4" d="m1090.64 1066.078 1.6 3.028 2.932 1.656-2.932 1.656-1.6 3.028-1.6-3.028-2.932-1.656 2.932-1.656z"/>
        </g>
        <g id="Group_481" data-name="Group 481">
            <path id="Path_1764" data-name="Path 1764" class="cls-4" d="m986.058 1150.041 1.6 3.028 2.932 1.656-2.932 1.656-1.6 3.028-1.6-3.028-2.932-1.656 2.932-1.656z"/>
        </g>
        <g id="Group_482" data-name="Group 482">
            <path id="Path_1765" data-name="Path 1765" class="cls-4" d="m999.608 1036.516 2.542 4.8 4.647 2.625-4.647 2.625-2.542 4.8-2.542-4.8-4.647-2.625 4.647-2.625z"/>
        </g>
        <g id="Group_483" data-name="Group 483">
            <path id="Path_1766" data-name="Path 1766" class="cls-3" d="m1102.281 1193.215 33.772 7.494h75.511l30.536-137.629-105.739-23.464z"/>
        </g>
        <g id="Group_484" data-name="Group 484">
            <path id="Rectangle_189" data-name="Rectangle 189" class="cls-5" transform="rotate(13.86 -3833.164 5353.939)" d="M0 0h51.408v3.974H0z"/>
        </g>
        <g id="Group_485" data-name="Group 485">
            <path id="Rectangle_190" data-name="Rectangle 190" class="cls-4" transform="rotate(13.86 -3868.802 5349.604)" d="M0 0h34.943v3.974H0z"/>
        </g>
        <g id="Group_486" data-name="Group 486">
            <path id="Path_1767" data-name="Path 1767" class="cls-5" d="M1152.238 1083.284a.99.99 0 0 1-.24-.029l-11.815-2.915a1 1 0 0 1-.732-1.21l2.915-11.817a1 1 0 0 1 1.21-.731l11.816 2.916a1 1 0 0 1 .731 1.21l-2.915 11.815a1 1 0 0 1-.97.761zm-10.606-4.646 9.874 2.436 2.436-9.874-9.874-2.436z"/>
        </g>
        <g id="Group_488" data-name="Group 488">
            <g id="Group_487" data-name="Group 487">
                <path id="Path_1768" data-name="Path 1768" class="cls-6" d="M1144.579 1071.108c.055 1.485-.572 7.517 2.738 6.526a9.207 9.207 0 0 0 2.2-1.568l3.43-2.5 6.86-5.006c.586-.427-1.185-2.219-1.921-1.682l-6.1 4.449-3.049 2.225c-.7.514-2.466 2.288-3.342 2.286l1.266.743c.262.334.08-1.666.078-1.72l-.1-2.753c-.028-.758-2.1-2.121-2.057-1z"/>
            </g>
        </g>
        <g id="Group_489" data-name="Group 489">
            <path id="Rectangle_191" data-name="Rectangle 191" class="cls-5" transform="rotate(13.86 -3924.18 5342.872)" d="M0 0h42.334v3.974H0z"/>
        </g>
        <g id="Group_490" data-name="Group 490">
            <path id="Rectangle_192" data-name="Rectangle 192" class="cls-4" transform="rotate(13.86 -3959.823 5338.542)" d="M0 0h51.408v3.974H0z"/>
        </g>
        <g id="Group_491" data-name="Group 491">
            <path id="Path_1769" data-name="Path 1769" class="cls-5" d="M1146.938 1104.767a.979.979 0 0 1-.24-.03l-11.816-2.916a1 1 0 0 1-.732-1.21l2.916-11.815a1 1 0 0 1 1.21-.732l11.816 2.915a1 1 0 0 1 .731 1.21l-2.915 11.817a1 1 0 0 1-.97.761zm-10.606-4.648 9.874 2.437 2.437-9.874-9.874-2.437z"/>
        </g>
        <g id="Group_493" data-name="Group 493">
            <g id="Group_492" data-name="Group 492">
                <path id="Path_1770" data-name="Path 1770" class="cls-6" d="M1139.2 1092.923c.055 1.486-.573 7.517 2.737 6.526a9.21 9.21 0 0 0 2.2-1.568l3.43-2.5 6.86-5.005c.586-.428-1.185-2.22-1.921-1.683l-6.1 4.449-3.048 2.225c-.706.514-2.466 2.288-3.343 2.286l1.266.743c.263.335.081-1.666.079-1.72l-.1-2.753c-.028-.758-2.1-2.121-2.056-1z"/>
            </g>
        </g>
        <g id="Group_494" data-name="Group 494">
            <path id="Rectangle_193" data-name="Rectangle 193" class="cls-5" transform="rotate(13.86 -4015.202 5331.81)" d="M0 0h51.408v3.974H0z"/>
        </g>
        <g id="Group_495" data-name="Group 495">
            <path id="Rectangle_194" data-name="Rectangle 194" class="cls-4" transform="rotate(13.83 -4047.324 5315.114)" d="M0 0h22.991v3.974H0z"/>
        </g>
        <g id="Group_496" data-name="Group 496">
            <path id="Path_1771" data-name="Path 1771" class="cls-5" d="M1141.638 1126.248a1 1 0 0 1-.241-.029l-11.815-2.915a1 1 0 0 1-.731-1.21l2.915-11.817a1 1 0 0 1 .453-.616.985.985 0 0 1 .757-.115l11.816 2.916a1 1 0 0 1 .731 1.21l-2.916 11.815a1 1 0 0 1-.969.761zm-10.607-4.646 9.874 2.436 2.437-9.874-9.874-2.436z"/>
        </g>
        <g id="Group_498" data-name="Group 498">
            <g id="Group_497" data-name="Group 497">
                <path id="Path_1772" data-name="Path 1772" class="cls-6" d="M1134.024 1114.594c.055 1.486-.573 7.517 2.737 6.526a9.21 9.21 0 0 0 2.2-1.568l3.43-2.5 6.86-5.005c.586-.428-1.185-2.219-1.921-1.683l-6.1 4.449-3.049 2.225c-.705.515-2.465 2.288-3.342 2.286l1.266.743c.263.335.081-1.666.079-1.72l-.1-2.753c-.028-.758-2.1-2.121-2.056-1z"/>
            </g>
        </g>
        <g id="Group_499" data-name="Group 499">
            <path id="Rectangle_195" data-name="Rectangle 195" class="cls-5" transform="rotate(13.86 -4106.223 5320.749)" d="M0 0h51.408v3.974H0z"/>
        </g>
        <g id="Group_500" data-name="Group 500">
            <path id="Rectangle_196" data-name="Rectangle 196" class="cls-4" transform="rotate(13.86 -4141.865 5316.419)" d="M0 0h40.611v3.974H0z"/>
        </g>
        <g id="Group_501" data-name="Group 501">
            <path id="Path_1773" data-name="Path 1773" class="cls-5" d="M1136.338 1147.729a.944.944 0 0 1-.24-.029l-11.817-2.915a1 1 0 0 1-.731-1.21l2.916-11.815a1 1 0 0 1 1.21-.732l11.815 2.915a1 1 0 0 1 .732 1.21l-2.915 11.816a1 1 0 0 1-.97.76zm-10.607-4.646 9.874 2.437 2.437-9.874-9.874-2.437z"/>
        </g>
        <g id="Group_503" data-name="Group 503">
            <g id="Group_502" data-name="Group 502">
                <path id="Path_1774" data-name="Path 1774" class="cls-6" d="M1128.758 1135.935c.055 1.486-.572 7.517 2.738 6.526a9.183 9.183 0 0 0 2.2-1.568l3.43-2.5 6.86-5.005c.586-.428-1.185-2.22-1.92-1.683l-6.1 4.449-3.049 2.225c-.705.514-2.466 2.288-3.342 2.286l1.266.743c.262.335.08-1.666.078-1.72l-.1-2.753c-.028-.758-2.1-2.121-2.057-1z"/>
            </g>
        </g>
        <g id="Group_504" data-name="Group 504">
            <path id="Rectangle_197" data-name="Rectangle 197" class="cls-5" transform="rotate(13.86 -4196.553 5309.77)" d="M0 0h20.378v3.974H0z"/>
        </g>
        <g id="Group_505" data-name="Group 505">
            <path id="Path_1775" data-name="Path 1775" class="cls-4" d="m1197.606 1180.612-49.911-12.315-.952 3.858c19.31 4.763 43.825 11.157 49.04 11.5a4.463 4.463 0 0 0 1.823-3.043z"/>
        </g>
        <g id="Group_506" data-name="Group 506">
            <path id="Path_1776" data-name="Path 1776" class="cls-5" d="M1131.243 1169.09a.989.989 0 0 1-.24-.029l-11.816-2.915a1 1 0 0 1-.732-1.21l2.916-11.817a1 1 0 0 1 .453-.616.986.986 0 0 1 .757-.115l11.815 2.916a1 1 0 0 1 .732 1.21l-2.915 11.815a1 1 0 0 1-.97.761zm-10.606-4.647 9.874 2.437 2.436-9.874-9.874-2.437z"/>
        </g>
        <g id="Group_508" data-name="Group 508">
            <g id="Group_507" data-name="Group 507">
                <path id="Path_1777" data-name="Path 1777" class="cls-6" d="M1123.539 1157.089c.055 1.486-.573 7.517 2.737 6.526a9.191 9.191 0 0 0 2.2-1.568l3.43-2.5 6.86-5.005c.586-.428-1.185-2.219-1.921-1.683l-6.1 4.449-3.049 2.225c-.706.515-2.466 2.288-3.343 2.286l1.266.743c.263.335.081-1.666.079-1.72q-.051-1.375-.1-2.753c-.029-.758-2.1-2.121-2.057-1z"/>
            </g>
        </g>
        <g id="Group_511" data-name="Group 511">
            <g id="Group_509" data-name="Group 509">
                <path id="Path_1778" data-name="Path 1778" d="m1208.229 1050.816-1.773 7.987-32.089-7.121 1.772-7.987a4.726 4.726 0 0 1 2.075-2.963 4.056 4.056 0 0 1 .391-.22 4.7 4.7 0 0 1 3.172-.407 5.553 5.553 0 0 0 2.478-.014 5.787 5.787 0 0 0 1.005-.337 5.562 5.562 0 0 0 2.589-2.355 5.584 5.584 0 0 1 6.072-2.707l2 .444a5.588 5.588 0 0 1 4.358 5.021 5.56 5.56 0 0 0 1.349 3.23 5.852 5.852 0 0 0 .769.731 5.571 5.571 0 0 0 2.239 1.061 4.732 4.732 0 0 1 3.59 5.637z" style="fill:#240444"/>
            </g>
            <g id="Group_510" data-name="Group 510">
                <ellipse id="Ellipse_67" data-name="Ellipse 67" class="cls-3" cx="2.771" cy="2.916" rx="2.771" ry="2.916" transform="rotate(-77.488 1244.359 -220.884)"/>
            </g>
        </g>
        <g id="Group_512" data-name="Group 512">
            <path id="Path_1779" data-name="Path 1779" class="cls-6" d="M1057.4 1099.515s6.241 10.945 11.6 13.976l-3.23 29.777s-1.943-17.567-12.668-18.966z"/>
        </g>
        <g id="Group_513" data-name="Group 513">
            <path id="Path_1780" data-name="Path 1780" class="cls-6" d="M1026.882 1099.515s-6.241 10.945-11.6 13.976l3.231 29.777s1.942-17.567 12.668-18.966z"/>
        </g>
        <g id="Group_514" data-name="Group 514">
            <path id="Path_1781" data-name="Path 1781" class="cls-6" d="M1007.151 1097.7c-5.417 1.1-4.947 9.171-3.295 16.47 3.262 14.405 9.729 31.045 13.153 39.914a.994.994 0 0 0 1.922-.37c-.115-9.506-.29-27.356-2.607-41.944-1.175-7.386-3.731-15.052-9.173-14.07z"/>
        </g>
        <g id="Group_515" data-name="Group 515">
            <path id="Path_1782" data-name="Path 1782" class="cls-6" d="M1077.126 1097.7c5.419 1.1 4.948 9.171 3.3 16.47-3.186 14.072-9.432 30.276-12.91 39.286a1.115 1.115 0 0 1-2.156-.416c.116-9.657.334-27.02 2.6-41.27 1.168-7.386 3.726-15.052 9.166-14.07z"/>
        </g>
        <g id="Group_516" data-name="Group 516">
            <path id="Path_1783" data-name="Path 1783" class="cls-6" d="M1047.663 1137.86h-11.048l-4.562 12.487a70.907 70.907 0 0 1 20.173 0z"/>
        </g>
        <g id="Group_517" data-name="Group 517">
            <path id="Path_1784" data-name="Path 1784" class="cls-6" d="M1063.125 1060.268c-4.586-24.249-18.809-39.873-20.986-39.873s-16.4 15.624-20.985 39.873c-4.261 22.532 7.539 76.249 10.969 77.974a27.5 27.5 0 0 0 20.032 0c3.43-1.725 15.231-55.442 10.97-77.974z"/>
        </g>
        <g id="Group_518" data-name="Group 518">
            <path id="Path_1785" data-name="Path 1785" class="cls-3" d="M1026.815 1042.039a84.958 84.958 0 0 0-2.762 7.155 69.85 69.85 0 0 0 36.172 0 84.958 84.958 0 0 0-2.762-7.155 70.933 70.933 0 0 1-30.648 0z"/>
        </g>
        <g id="Group_519" data-name="Group 519">
            <path id="Path_1786" data-name="Path 1786" class="cls-3" d="M1026.637 1121.524a178.52 178.52 0 0 0 2.056 8.174 100.665 100.665 0 0 0 26.891 0c.664-2.362 1.36-5.123 2.058-8.174a99.669 99.669 0 0 1-31.005 0z"/>
        </g>
        <g id="Group_520" data-name="Group 520">
            <path id="Path_1787" data-name="Path 1787" class="cls-5" d="M1052.962 1069.44a10.823 10.823 0 1 1-10.823-10.822 10.824 10.824 0 0 1 10.823 10.822z"/>
        </g>
        <g id="Group_521" data-name="Group 521">
            <path id="Path_1788" data-name="Path 1788" class="cls-4" d="M1050.534 1069.44a8.395 8.395 0 1 1-8.4-8.394 8.395 8.395 0 0 1 8.4 8.394z"/>
        </g>
        <g id="Group_530" data-name="Group 530">
            <g id="Group_522" data-name="Group 522">
                <path id="Path_1789" data-name="Path 1789" class="cls-4" d="M1042.722 1059.861a.583.583 0 1 1-.583-.583.583.583 0 0 1 .583.583z"/>
            </g>
            <g id="Group_523" data-name="Group 523">
                <path id="Path_1790" data-name="Path 1790" class="cls-4" d="M1035.778 1062.255a.583.583 0 1 1-.825 0 .582.582 0 0 1 .825 0z"/>
            </g>
            <g id="Group_524" data-name="Group 524">
                <path id="Path_1791" data-name="Path 1791" class="cls-4" d="M1032.56 1068.857a.583.583 0 1 1-.583.583.583.583 0 0 1 .583-.583z"/>
            </g>
            <g id="Group_525" data-name="Group 525">
                <path id="Path_1792" data-name="Path 1792" class="cls-4" d="M1034.954 1075.8a.583.583 0 1 1 0 .825.583.583 0 0 1 0-.825z"/>
            </g>
            <g id="Group_526" data-name="Group 526">
                <path id="Path_1793" data-name="Path 1793" class="cls-4" d="M1041.556 1079.02a.583.583 0 1 1 .583.583.583.583 0 0 1-.583-.583z"/>
            </g>
            <g id="Group_527" data-name="Group 527">
                <path id="Path_1794" data-name="Path 1794" class="cls-4" d="M1048.5 1076.626a.583.583 0 1 1 .824 0 .584.584 0 0 1-.824 0z"/>
            </g>
            <g id="Group_528" data-name="Group 528">
                <path id="Path_1795" data-name="Path 1795" class="cls-4" d="M1051.719 1070.024a.583.583 0 1 1 .583-.584.584.584 0 0 1-.583.584z"/>
            </g>
            <g id="Group_529" data-name="Group 529">
                <path id="Path_1796" data-name="Path 1796" class="cls-4" d="M1049.325 1063.079a.583.583 0 1 1 0-.824.582.582 0 0 1 0 .824z"/>
            </g>
        </g>
        <g id="Group_531" data-name="Group 531">
            <path id="Path_1797" data-name="Path 1797" class="cls-6" d="m1042.139 1002.087-2.1 19.82s.233.933 2.1.933 2.1-.933 2.1-.933z"/>
        </g>
        <g id="Group_532" data-name="Group 532">
            <path id="Path_1798" data-name="Path 1798" class="cls-6" d="M1043.888 1002.087a1.749 1.749 0 1 1-1.749-1.748 1.749 1.749 0 0 1 1.749 1.748z"/>
        </g>
        <g id="Group_533" data-name="Group 533">
            <path id="Path_1799" data-name="Path 1799" class="cls-5" d="M1067.429 1114.326a.5.5 0 0 1-.295-.1 36 36 0 0 1-7.217-7.878.506.506 0 0 1-.088-.377c.484-2.841.923-5.693 1.309-8.476a.51.51 0 0 1 .563-.427.5.5 0 0 1 .427.564 282.367 282.367 0 0 1-1.277 8.3 38.438 38.438 0 0 0 6.214 6.976l.015-.094c1.152-7.077 3.107-11.637 5.806-13.552a5.356 5.356 0 0 1 4.177-.931.5.5 0 1 1-.173.984 4.343 4.343 0 0 0-3.426.762c-2.438 1.731-4.3 6.191-5.4 12.9l-.143.926a.5.5 0 0 1-.494.422z"/>
        </g>
        <g id="Group_534" data-name="Group 534">
            <path id="Path_1800" data-name="Path 1800" class="cls-5" d="M1065.442 1158.367a1.259 1.259 0 0 1-.218-.021 1.044 1.044 0 0 1-.857-1.048c.015-.883.027-1.885.04-2.99.039-3.1.086-6.958.21-11.279-.646-3.626-2.715-12.112-8.272-15.635a70.91 70.91 0 0 1-3.37 10.5.5.5 0 0 1-.907-.422 73.048 73.048 0 0 0 3.474-10.97.5.5 0 0 1 .286-.335.5.5 0 0 1 .44.021c6.384 3.513 8.661 12.862 9.342 16.718a.5.5 0 0 1 .008.1c-.124 4.333-.172 8.2-.211 11.312a741.22 741.22 0 0 1-.04 2.994l.133.012c.321-.818.688-1.747 1.093-2.77.9-2.274 1.987-5.02 3.161-8.081a.5.5 0 0 1 .934.357c-1.176 3.066-2.264 5.815-3.165 8.092-.4 1.022-.771 1.949-1.091 2.767a1.053 1.053 0 0 1-.99.678z"/>
        </g>
        <g id="Group_535" data-name="Group 535">
            <path id="Path_1801" data-name="Path 1801" class="cls-5" d="M1017.01 1158.265a1.167 1.167 0 0 1-1.1-.763l-.813-2.11c-3.415-8.845-9.773-25.31-12.982-39.485-1.594-7.043-1.5-12.005.27-14.748a5.221 5.221 0 0 1 7.457-1.433c2.663 1.889 4.589 6.462 5.722 13.593l.012.077a38.227 38.227 0 0 0 6.04-6.958c-1.868-11.335-4.6-32-2.207-44.639 4.35-23.007 16.544-36.25 17.921-37.684a.5.5 0 0 1 .721.692c-4.917 5.125-14.17 18.722-17.659 37.177-1.736 9.175-.917 25.392 2.244 44.493a.507.507 0 0 1-.084.37 35.69 35.69 0 0 1-7.041 7.88.509.509 0 0 1-.49.062.5.5 0 0 1-.3-.388l-.141-.924c-1.074-6.759-2.911-11.233-5.313-12.936a4.222 4.222 0 0 0-6.038 1.16c-1.6 2.474-1.645 7.31-.135 13.986 3.194 14.1 9.534 30.523 12.939 39.345l.815 2.112a.169.169 0 0 0 .209.117.165.165 0 0 0 .146-.181l-.027-2.211c-.038-3.12-.085-7-.207-11.358.672-3.955 2.891-13.306 9.122-16.822a.5.5 0 0 1 .731.315 128.143 128.143 0 0 0 1.784 6.506.5.5 0 1 1-.955.293 122.433 122.433 0 0 1-1.633-5.9c-5.431 3.547-7.437 12.084-8.056 15.678.129 4.264.176 8.151.213 11.274l.028 2.21a1.19 1.19 0 0 1-1.191 1.2z"/>
        </g>
    </g>
</svg>
