<svg xmlns="http://www.w3.org/2000/svg" width="320" height="190" viewBox="0 0 320 190">
    <defs>
        <style>
            .cls-2{fill:#fccc6c}.cls-3{fill:#240448}.cls-5{fill:#fc346c}.cls-6{fill:#44d4f4}.cls-7{fill:#fdf7f4}
        </style>
    </defs>
    <g id="Group_536" data-name="Group 536" transform="translate(-1383.557 -1010.887)">
        <g id="Group_538" data-name="Group 538">
            <g id="Group_537" data-name="Group 537">
                <g id="Group_536-2" data-name="Group 536">
                    <rect id="Rectangle_198" data-name="Rectangle 198" width="320" height="190" rx="20" transform="translate(1383.557 1010.887)" style="fill:#e8ecef"/>
                </g>
            </g>
        </g>
        <g id="Group_559" data-name="Group 559">
            <g id="Group_539" data-name="Group 539">
                <rect id="Rectangle_199" data-name="Rectangle 199" class="cls-2" width="134.994" height="116.749" rx="12" transform="translate(1542.905 1034.951)"/>
            </g>
            <g id="Group_540" data-name="Group 540">
                <path id="Path_1802" data-name="Path 1802" class="cls-3" d="M1638.309 1130.76c.029-18.1.546-33.484.546-33.484 0-42.6-29.28-39.879-29.28-39.879s-29.279-2.719-29.279 39.879c0 0-.333 14.841-1.146 33.484z"/>
            </g>
            <g id="Group_541" data-name="Group 541">
                <path id="Path_1803" data-name="Path 1803" d="M1561.508 1151.7h95.536c-5.931-13.1-13.834-22.574-24.3-22.574h-46.939c-10.464.001-18.366 9.474-24.297 22.574z" style="fill:#f7efe2"/>
            </g>
            <g id="Group_542" data-name="Group 542">
                <path id="Path_1804" data-name="Path 1804" class="cls-5" d="M1601.443 1112.235v20.185c0 9.83 8.135 9.639 8.135 9.639s8.134.191 8.134-9.639v-20.185z"/>
            </g>
            <g id="Group_543" data-name="Group 543">
                <path id="Path_1805" data-name="Path 1805" class="cls-3" d="M1602.628 1119.2s1.823 4.959 6.991 4.959 6.908-4.96 6.908-4.96z"/>
            </g>
            <g id="Group_544" data-name="Group 544">
                <path id="Path_1806" data-name="Path 1806" class="cls-5" d="M1618.42 1064.633a17.233 17.233 0 0 0-17.689 0c-14.75 8.9-12.787 36.613-10.715 44.123 1.436 5.205 8.069 8.7 13.217 10.686a17.671 17.671 0 0 0 12.685 0c5.148-1.982 11.781-5.481 13.217-10.686 2.072-7.51 4.035-35.218-10.715-44.123z"/>
            </g>
            <g id="Group_545" data-name="Group 545">
                <path id="Path_1807" data-name="Path 1807" class="cls-5" d="M1591.224 1097.276c0 3.67-2.428 6.646-5.423 6.646s-5.423-2.976-5.423-6.646 2.428-6.647 5.423-6.647 5.423 2.971 5.423 6.647z"/>
            </g>
            <g id="Group_546" data-name="Group 546">
                <ellipse id="Ellipse_68" data-name="Ellipse 68" class="cls-5" cx="5.423" cy="6.646" rx="5.423" ry="6.646" transform="translate(1627.927 1090.629)"/>
            </g>
            <g id="Group_547" data-name="Group 547">
                <path id="Path_1808" data-name="Path 1808" class="cls-3" d="M1601.022 1091.447a1.3 1.3 0 0 0 0 2.593 1.3 1.3 0 0 0 0-2.593z"/>
            </g>
            <g id="Group_548" data-name="Group 548">
                <path id="Path_1809" data-name="Path 1809" class="cls-3" d="M1586.251 1099.589a.33.33 0 0 1-.044 0 .311.311 0 0 1-.264-.353 3.967 3.967 0 0 0-2.673-4.219.311.311 0 1 1 .181-.595 4.608 4.608 0 0 1 3.108 4.9.311.311 0 0 1-.308.267z"/>
            </g>
            <g id="Group_549" data-name="Group 549">
                <path id="Path_1810" data-name="Path 1810" class="cls-3" d="M1632.453 1099.589a.312.312 0 0 1-.308-.267 4.609 4.609 0 0 1 3.109-4.9.311.311 0 1 1 .181.595 3.968 3.968 0 0 0-2.674 4.219.31.31 0 0 1-.263.353.345.345 0 0 1-.045 0z"/>
            </g>
            <g id="Group_550" data-name="Group 550">
                <path id="Path_1811" data-name="Path 1811" class="cls-3" d="M1617.692 1091.447a1.3 1.3 0 0 0 0 2.593 1.3 1.3 0 0 0 0-2.593z"/>
            </g>
            <g id="Group_551" data-name="Group 551">
                <path id="Path_1812" data-name="Path 1812" class="cls-3" d="M1609.844 1098.5a.305.305 0 0 1-.14-.033 2.628 2.628 0 0 1-1.482-1.347 1.9 1.9 0 0 1 .393-1.771 5.049 5.049 0 0 1 1.309-1.048.312.312 0 0 1 .332.528 4.5 4.5 0 0 0-1.154.909 1.3 1.3 0 0 0-.291 1.178c.155.451.643.728 1.174.994a.312.312 0 0 1-.141.59z"/>
            </g>
            <g id="Group_552" data-name="Group 552">
                <path id="Path_1813" data-name="Path 1813" class="cls-3" d="m1588.438 1084.587 29.823-12.085 12.144 19.083s3.41-30.865-20.983-30.865c0 0-20.984-1.813-20.984 23.867z"/>
            </g>
            <g id="Group_553" data-name="Group 553">
                <path id="Path_1814" data-name="Path 1814" class="cls-3" d="M1665.9 1152.2h-5.955v-1h5.955a11.34 11.34 0 0 0 4.689-1.005l.41.912a12.335 12.335 0 0 1-5.099 1.093zm-9.955 0h-5.954v-1h5.954zm-9.954 0h-5.955v-1h5.955zm-9.955 0h-5.954v-1h5.954zm-9.954 0h-5.955v-1h5.955zm-9.955 0h-5.954v-1h5.954zm-9.954 0h-5.955v-1h5.955zm-9.955 0h-5.954v-1h5.954zm-9.954 0h-5.955v-1h5.955zm-9.955 0h-5.954v-1h5.954zm-9.954 0h-5.955v-1h5.956zm-9.956 0h-1.499a12.391 12.391 0 0 1-4.54-.857l.365-.932a11.364 11.364 0 0 0 4.175.789h1.493zm-9.587-2.993a12.608 12.608 0 0 1-3.56-5l.932-.363a11.615 11.615 0 0 0 3.276 4.6zm127.634-.4-.685-.729a11.6 11.6 0 0 0 3.052-4.753l.949.317a12.6 12.6 0 0 1-3.318 5.158zm-132.032-8.658c-.005-.148-.008-.3-.008-.446v-5.526h1v5.526c0 .138 0 .275.008.411zm135.986-.6h-1v-5.955h1zm-134.994-9.373h-1v-5.954h1zm134.994-.582h-1v-5.954h1zm-135-9.374h-1v-5.955h1zm134.994-.582h-1v-5.955h1zm-134.994-9.373h-1v-5.954h1zm134.994-.582h-1v-5.954h1zm-134.994-9.372h-1v-5.956h1zm134.994-.582h-1v-5.956h1zm-134.994-9.374h-1v-5.955h1zm134.994-.582h-1v-5.954h1zM1543.4 1080.4h-1v-5.955h1zm134.994-.582h-1v-5.955h1zm-134.994-9.373h-1v-5.954h1zm134.994-.582h-1v-5.954h1zm-134.994-9.372h-1v-5.955h1zm134.994-.582h-1v-5.955h1zm-134.994-9.373h-1v-3.586a12.487 12.487 0 0 1 .242-2.45l.981.2a11.48 11.48 0 0 0-.223 2.253zm134.994-.582h-1v-3a11.463 11.463 0 0 0-.345-2.8l.968-.244a12.411 12.411 0 0 1 .377 3.041zm-133.4-8.818-.861-.508a12.661 12.661 0 0 1 4.311-4.366l.52.853a11.663 11.663 0 0 0-3.971 4.022zm130.522-.474a11.671 11.671 0 0 0-4.16-3.825l.479-.879a12.687 12.687 0 0 1 4.517 4.155zm-123.008-4.958-.209-.978a12.522 12.522 0 0 1 2.6-.276h3.434v1h-3.433a11.5 11.5 0 0 0-2.393.25zm115.241-.1a11.572 11.572 0 0 0-1.85-.15h-4.014v-1h4.014a12.515 12.515 0 0 1 2.01.163zm-9.864-.15h-5.955v-1h5.955zm-9.955 0h-5.954v-1h5.954zm-9.954 0h-5.955v-1h5.955zm-9.955 0h-5.955v-1h5.955zm-9.955 0h-5.955v-1h5.955zm-9.955 0h-5.955v-1h5.955zm-9.955 0h-5.956v-1h5.954zm-9.954 0h-5.955v-1h5.955zm-9.955 0h-5.954v-1h5.954zm-9.954 0h-5.955v-1h5.955z"/>
            </g>
            <g id="Group_554" data-name="Group 554">
                <path id="Path_1815" data-name="Path 1815" class="cls-3" d="M1677.9 1051.1h-5.584v-1h5.584zm-9.584 0h-5.955v-1h5.955zm-9.955 0h-5.954v-1h5.954zm-9.954 0h-5.955v-1h5.955zm-9.955 0h-5.952v-1h5.954zm-9.954 0h-5.955v-1h5.955zm-9.955 0h-5.954v-1h5.954zm-9.954 0h-5.955v-1h5.955zm-9.955 0h-5.954v-1h5.954zm-9.954 0h-5.955v-1h5.955zm-9.955 0h-5.954v-1h5.954zm-9.954 0h-5.956v-1h5.956zm-9.956 0h-5.954v-1h5.954zm-9.954 0h-5.961v-1h5.955z"/>
            </g>
            <g id="Group_555" data-name="Group 555">
                <path id="Path_1816" data-name="Path 1816" class="cls-3" d="M1610.091 1105.4a20.991 20.991 0 0 1-5.829-1 .5.5 0 1 1 .316-.949c.064.022 6.36 2.083 8.859.084a.5.5 0 0 1 .625.782 6.367 6.367 0 0 1-3.971 1.083z"/>
            </g>
            <g id="Group_556" data-name="Group 556">
                <circle id="Ellipse_69" data-name="Ellipse 69" class="cls-3" cx="2.469" cy="2.469" r="2.469" transform="translate(1550.094 1040.813)"/>
            </g>
            <g id="Group_557" data-name="Group 557">
                <circle id="Ellipse_70" data-name="Ellipse 70" class="cls-3" cx="2.469" cy="2.469" r="2.469" transform="translate(1559.038 1040.813)"/>
            </g>
            <g id="Group_558" data-name="Group 558">
                <circle id="Ellipse_71" data-name="Ellipse 71" class="cls-3" cx="2.469" cy="2.469" r="2.469" transform="translate(1567.983 1040.813)"/>
            </g>
        </g>
        <g id="Group_560" data-name="Group 560">
            <path id="Path_1817" data-name="Path 1817" class="cls-6" d="M1413.494 1151.349a152.618 152.618 0 0 0-29.594 33.156 19.99 19.99 0 0 0 17.128 16.2h15.636z"/>
        </g>
        <g id="Group_561" data-name="Group 561">
            <path id="Path_1818" data-name="Path 1818" class="cls-6" d="m1478.1 1200.709-.166-71.775a113.777 113.777 0 0 0-64.435 22.418s1.392 21.99 2.708 49.357z"/>
        </g>
        <g id="Group_562" data-name="Group 562">
            <path id="Path_1819" data-name="Path 1819" class="cls-6" d="M1524.815 1200.709c.993-27.367 2.044-49.36 2.044-49.36-22.361-22.834-48.678-22.411-48.678-22.411l-.127 71.771z"/>
        </g>
        <g id="Group_563" data-name="Group 563">
            <path id="Path_1820" data-name="Path 1820" class="cls-7" d="m1491.5 1200.709-2.057-68.389-11.1-6.7v-.281l-.233.14-.233-.14v.281l-11.1 6.7-2.057 68.389z"/>
        </g>
        <g id="Group_564" data-name="Group 564">
            <path id="Path_1821" data-name="Path 1821" d="m1452.47 1080.517-4.866-3.468v-17.035l7.893 1.409z"/>
        </g>
        <g id="Group_565" data-name="Group 565">
            <path id="Rectangle_200" data-name="Rectangle 200" class="cls-5" transform="translate(1467.064 1104.846)" d="M0 0h21.755v35.474H0z"/>
        </g>
        <g id="Group_566" data-name="Group 566">
            <path id="Path_1822" data-name="Path 1822" class="cls-3" d="M1487.235 1114.165s-2.438 6.631-9.348 6.631-9.238-6.632-9.238-6.632z"/>
        </g>
        <g id="Group_567" data-name="Group 567">
            <path id="Path_1823" data-name="Path 1823" class="cls-5" d="M1466.118 1041.194a23.046 23.046 0 0 1 23.654 0c19.723 11.907 17.1 48.958 14.327 59-1.92 6.959-10.789 11.638-17.673 14.29a23.632 23.632 0 0 1-16.962 0c-6.885-2.652-15.754-7.331-17.674-14.29-2.77-10.042-5.396-47.094 14.328-59z"/>
        </g>
        <g id="Group_568" data-name="Group 568">
            <ellipse id="Ellipse_72" data-name="Ellipse 72" class="cls-5" cx="7.252" cy="8.888" rx="7.252" ry="8.888" transform="translate(1502.484 1075.955)"/>
        </g>
        <g id="Group_569" data-name="Group 569">
            <path id="Path_1824" data-name="Path 1824" class="cls-3" d="M1489.383 1077.049a1.735 1.735 0 0 1 0 3.468 1.735 1.735 0 0 1 0-3.468z"/>
        </g>
        <g id="Group_571" data-name="Group 571">
            <g id="Group_570" data-name="Group 570">
                <path id="Path_1825" data-name="Path 1825" class="cls-3" d="M1509.133 1088.1a.577.577 0 0 1-.571-.495 6.33 6.33 0 0 1 4.267-6.735.578.578 0 1 1 .339 1.105 5.135 5.135 0 0 0-3.462 5.464.579.579 0 0 1-.489.655.59.59 0 0 1-.084.006z"/>
            </g>
        </g>
        <g id="Group_572" data-name="Group 572">
            <path id="Path_1826" data-name="Path 1826" class="cls-3" d="M1467.092 1077.049a1.735 1.735 0 0 1 0 3.468 1.735 1.735 0 0 1 0-3.468z"/>
        </g>
        <g id="Group_574" data-name="Group 574">
            <g id="Group_573" data-name="Group 573">
                <path id="Path_1827" data-name="Path 1827" class="cls-3" d="M1463.915 1072.695a.577.577 0 0 1-.409-.986 6.065 6.065 0 0 1 4.2-2.033 4.451 4.451 0 0 1 2.979 1.212.578.578 0 0 1-.83.805 3.318 3.318 0 0 0-2.177-.861h-.01a4.869 4.869 0 0 0-3.343 1.694.578.578 0 0 1-.41.169z"/>
            </g>
        </g>
        <g id="Group_576" data-name="Group 576">
            <g id="Group_575" data-name="Group 575">
                <path id="Path_1828" data-name="Path 1828" class="cls-3" d="M1492.559 1072.695a.578.578 0 0 1-.409-.169 4.867 4.867 0 0 0-3.343-1.694h-.009a3.324 3.324 0 0 0-2.177.861.578.578 0 0 1-.83-.8 4.441 4.441 0 0 1 2.979-1.213 5.97 5.97 0 0 1 4.2 2.033.577.577 0 0 1-.409.986z"/>
            </g>
        </g>
        <g id="Group_578" data-name="Group 578">
            <g id="Group_577" data-name="Group 577">
                <path id="Path_1829" data-name="Path 1829" class="cls-3" d="M1477.585 1086.646a.579.579 0 0 1-.26-1.095c.651-.327 1.3-.692 1.491-1.237a1.589 1.589 0 0 0-.364-1.422 5.878 5.878 0 0 0-1.5-1.18.578.578 0 0 1 .615-.979 6.864 6.864 0 0 1 1.79 1.436 2.712 2.712 0 0 1 .554 2.522 3.65 3.65 0 0 1-2.063 1.893.581.581 0 0 1-.263.062z"/>
            </g>
        </g>
        <g id="Group_579" data-name="Group 579">
            <path id="Path_1830" data-name="Path 1830" class="cls-7" d="M1477.942 1089.881h7.109v5.212a7.109 7.109 0 0 1-7.109 7.109 7.109 7.109 0 0 1-7.11-7.109v-5.212z"/>
        </g>
        <g id="Group_586" data-name="Group 586">
            <g id="Group_581" data-name="Group 581">
                <g id="Group_580" data-name="Group 580">
                    <path id="Path_1831" data-name="Path 1831" class="cls-2" d="M1477.887 1109.255c-18.75 0-26.574-4.129-29.835-7.594-2.6-2.761-2.482-5.236-2.475-5.34a.6.6 0 0 1 .611-.542.576.576 0 0 1 .542.608c0 .086-.071 2.142 2.217 4.538 3.124 3.273 10.682 7.175 28.94 7.175a.578.578 0 1 1 0 1.155z"/>
                </g>
            </g>
            <g id="Group_582" data-name="Group 582">
                <path id="Path_1832" data-name="Path 1832" class="cls-2" d="M1477.11 1111.3h3.838a2.626 2.626 0 0 0 2.626-2.626 2.626 2.626 0 0 0-2.626-2.626h-3.838a2.626 2.626 0 0 0-2.626 2.626 2.626 2.626 0 0 0 2.626 2.626z"/>
            </g>
            <g id="Group_585" data-name="Group 585">
                <g id="Group_583" data-name="Group 583">
                    <path id="Path_1833" data-name="Path 1833" class="cls-2" d="M1447.3 1071.29a12.034 12.034 0 0 1 1.312.08v26.945a11.764 11.764 0 0 1-1.312.081c-5.26 0-9.523-3.4-9.523-7.6v-11.915c-.001-4.191 4.262-7.591 9.523-7.591z"/>
                </g>
                <g id="Group_584" data-name="Group 584">
                    <path id="Rectangle_201" data-name="Rectangle 201" class="cls-2" transform="rotate(180 725.432 549.178)" d="M0 0h2.252v27.025H0z"/>
                </g>
            </g>
        </g>
        <g id="Group_587" data-name="Group 587">
            <path id="Path_1834" data-name="Path 1834" class="cls-6" d="M1554.029 1200.709c-7.555-33.352-27.5-49.889-27.5-49.889l-1.906 49.889z"/>
        </g>
        <g id="Group_588" data-name="Group 588">
            <path id="Path_1835" data-name="Path 1835" class="cls-3" d="M1486.978 1054.833s-16.666 15.967-32.711 15.967c-16.507 0-24.245-11.316-18.325-24s23.472-9.4 32.879-9.4 22.22-3.881 32.662-.382c5.993 2.008 14.961 11.717 7.23 39.5l-3.861 1.374s1.368-23.235-9.659-23.235c-1.685.001-8.215.176-8.215.176z"/>
        </g>
        <g id="Group_589" data-name="Group 589">
            <path id="Path_1836" data-name="Path 1836" class="cls-5" d="M1458.488 1123.176a2.5 2.5 0 0 0-2.722.9 17.786 17.786 0 0 0 1.307-3.448 6.345 6.345 0 0 0 .193-2.891 2.761 2.761 0 0 0-1.815-2.118 2.532 2.532 0 0 0-1.439 0 4.837 4.837 0 0 0 1.706-3.254c.06-1.6-1.392-3.254-2.952-2.928a4.086 4.086 0 0 0-1.646.908c-.242.169-.907.181-1.185.363a7.117 7.117 0 0 0 1.633-2.868 2.549 2.549 0 0 0-1.355-2.939 3.382 3.382 0 0 0-2.275.254 25.381 25.381 0 0 0-7.948 5.54 69.77 69.77 0 0 0-16.768 25.249 54.573 54.573 0 0 0-3.157 10.755 31.754 31.754 0 0 0-.412 4.319 29.676 29.676 0 0 0 .158 4.114c.133 1.33 9.134 12.751 16.308 10.6a22.559 22.559 0 0 0 2.831-1.029c3.944-1.742 7.355-4.972 10.791-13.344 1.464-3.581 2.214-8.021 3.46-12.1a25.49 25.49 0 0 1 2.444-5.747q1.833-2.958 3.641-5.94a4.581 4.581 0 0 0 .859-2.177 2.318 2.318 0 0 0-1.657-2.219z"/>
        </g>
        <g id="Group_591" data-name="Group 591">
            <g id="Group_590" data-name="Group 590">
                <path id="Path_1837" data-name="Path 1837" d="M1433.966 1132.9a.606.606 0 0 1-.085-.007.578.578 0 0 1-.488-.655c1.882-12.8 15.646-21.651 16.232-22.022a.578.578 0 0 1 .618.977c-.139.088-13.9 8.942-15.706 21.212a.58.58 0 0 1-.571.495z"/>
            </g>
        </g>
        <g id="Group_593" data-name="Group 593">
            <g id="Group_592" data-name="Group 592">
                <path id="Path_1838" data-name="Path 1838" d="M1439.887 1135.966a.567.567 0 0 1-.171-.026.578.578 0 0 1-.382-.722c4.422-14.324 13.984-19.88 14.389-20.11a.578.578 0 0 1 .57 1.006c-.095.054-9.575 5.582-13.853 19.445a.58.58 0 0 1-.553.407z"/>
            </g>
        </g>
        <g id="Group_595" data-name="Group 595">
            <g id="Group_594" data-name="Group 594">
                <path id="Path_1839" data-name="Path 1839" d="M1445.82 1140.9a.593.593 0 0 1-.16-.023.579.579 0 0 1-.4-.715 39.366 39.366 0 0 1 10.116-16.512.578.578 0 1 1 .781.853 38.909 38.909 0 0 0-9.786 15.978.577.577 0 0 1-.551.419z"/>
            </g>
        </g>
        <g id="Group_596" data-name="Group 596">
            <path id="Path_1840" data-name="Path 1840" class="cls-6" d="M1419.653 1151.013a2.5 2.5 0 0 1-.242-.085s-2.165 1.827-5.625 5.118a220.712 220.712 0 0 0-28.507 32.938 20 20 0 0 0 15.749 11.725h29.763c5.734-18.159 9.126-34.138 9.126-34.138a11.974 11.974 0 0 0-.967-1.875c-4.67-7.646-17.409-12.921-19.297-13.683z"/>
        </g>
        <g id="Group_597" data-name="Group 597">
            <path id="Path_1841" data-name="Path 1841" class="cls-3" d="M1419.478 1151.481c.178.068 17.728 6.763 21.9 16.735-1.566 1.992-12.857 16.491-22.878 32.493h1.168c10.581-16.808 22.472-31.848 22.674-32.1a.5.5 0 0 0 .074-.493c-4.131-10.532-21.834-17.286-22.586-17.568a.5.5 0 0 0-.351.935z"/>
        </g>
        <g id="Group_598" data-name="Group 598">
            <path id="Path_1842" data-name="Path 1842" class="cls-3" d="m1504.817 1174.08-8.156 4.745a.5.5 0 0 0 .2.93l10.477 1.056-4.894 19.9h1.029l4.973-20.219a.5.5 0 0 0-.435-.616l-9.516-.959 7.182-4.179a.5.5 0 0 0 .22-.6l-12.289-34.867a.5.5 0 1 0-.943.332z"/>
        </g>
        <g id="Group_599" data-name="Group 599">
            <path id="Path_1843" data-name="Path 1843" class="cls-3" d="M1455.757 1200.709h1.03l-5.838-23.736 9.442-.952a.5.5 0 0 0 .2-.929l-7.359-4.28 11-31.209a.5.5 0 1 0-.943-.332l-11.137 31.6a.5.5 0 0 0 .221.6l6.384 3.714-8.481.854a.5.5 0 0 0-.435.616z"/>
        </g>
        <g id="Group_600" data-name="Group 600">
            <path id="Path_1844" data-name="Path 1844" class="cls-7" d="M1496.216 1146.063c-1.9-12.685-7.068-13.742-7.068-13.742 0 4.856-9.485 7.534-11.028 7.938-1.543-.4-11.029-3.082-11.029-7.938 0 0-5.165 1.057-7.068 13.742l18.1-5.671z"/>
        </g>
        <g id="Group_601" data-name="Group 601">
            <path id="Path_1845" data-name="Path 1845" class="cls-6" d="M1688.594 1049.414a22.15 22.15 0 0 0-32.094 24.808l-13.5 9.62 17.628-1.228a21.8 21.8 0 0 0 6.5 5.5 22.127 22.127 0 0 0 21.463-38.7z"/>
        </g>
        <g id="Group_602" data-name="Group 602">
            <path id="Path_1846" data-name="Path 1846" class="cls-3" d="M1677 1060.2a9.393 9.393 0 0 0-2.436.847 14.667 14.667 0 0 0-2.4 1.607l-2.4-3.844a11.709 11.709 0 0 1 3.1-2.116 15.783 15.783 0 0 1 3.728-1.287 10.584 10.584 0 0 1 4.016-.174 6.8 6.8 0 0 1 2.739 1.087 5.549 5.549 0 0 1 1.667 1.846 7.567 7.567 0 0 1 .8 2.1 5.649 5.649 0 0 1 .078 1.962 7.974 7.974 0 0 1-.462 1.766 10.029 10.029 0 0 1-.817 1.627q-.491.792-.957 1.5-.351.533-.728 1.129a8.862 8.862 0 0 0-.649 1.228 6.458 6.458 0 0 0-.406 1.293 3.213 3.213 0 0 0 0 1.288l.091.441a3.261 3.261 0 0 0 .143.509l-4.862 1a5.269 5.269 0 0 1-.263-.81c-.076-.3-.136-.567-.182-.788a6.4 6.4 0 0 1-.125-1.913 7.44 7.44 0 0 1 .363-1.688 8.913 8.913 0 0 1 .7-1.546q.423-.74.892-1.45.672-1.022 1.2-1.995a2.92 2.92 0 0 0 .309-2.042 2.026 2.026 0 0 0-.993-1.37 2.933 2.933 0 0 0-2.146-.207zm7.243 17.824a3.157 3.157 0 0 1-.533 2.721 3.712 3.712 0 0 1-4.753.979 3.587 3.587 0 0 1-1.032-5.01 3.711 3.711 0 0 1 4.753-.979 3.156 3.156 0 0 1 1.562 2.286z"/>
        </g>
        <g id="Group_603" data-name="Group 603">
            <path id="Path_1847" data-name="Path 1847" class="cls-3" d="M1677.715 1092.871a22.266 22.266 0 0 1-10.826-2.818 22.7 22.7 0 0 1-2.344-1.495.5.5 0 0 1 .59-.809 21.671 21.671 0 1 0-6.066-27.907 21.619 21.619 0 0 0-2.084 15.761.5.5 0 0 1-.195.528l-12.054 8.591 6.82-.475a.487.487 0 0 1 .534.464.5.5 0 0 1-.464.534l-8.589.6a.5.5 0 0 1-.325-.906l13.223-9.424a22.712 22.712 0 0 1 15.779-26.951 22.4 22.4 0 0 1 27.816 15.426 22.708 22.708 0 0 1-21.815 28.883z"/>
        </g>
    </g>
</svg>
