<?xml version="1.0" encoding="utf-8"?>
<!-- Generator: Adobe Illustrator 19.1.0, SVG Export Plug-In . SVG Version: 6.00 Build 0)  -->
<svg version="1.1" id="Layer_1" xmlns="http://www.w3.org/2000/svg" xmlns:xlink="http://www.w3.org/1999/xlink" x="0px" y="0px"
	 viewBox="-15 0 75 60" style="enable-background:new -15 0 75 60;" xml:space="preserve">
<style type="text/css">
	.st0{fill:#AD8B74;}
	.st1{fill:#927663;}
	.st2{fill:#BCA08B;}
	.st3{fill:none;stroke:#000000;stroke-width:1.0299;stroke-miterlimit:10;}
	.st4{fill:#40A344;stroke:#E6E6E6;stroke-width:2;stroke-miterlimit:10;}
	.st5{display:none;fill:#E6E6E6;}
	.st6{fill:none;stroke:#E6E6E6;stroke-width:2.5;stroke-miterlimit:10;}
	.st7{display:none;}
	.st8{display:inline;fill:#E6E6E6;stroke:#E6E6E6;stroke-miterlimit:10;}
	.st9{display:none;fill:none;stroke:#E6E6E6;stroke-width:2.5;stroke-miterlimit:10;}
	.st10{display:inline;fill:none;stroke:#E6E6E6;stroke-width:2.5;stroke-miterlimit:10;}
	.st11{display:none;fill:#E6E6E6;stroke:#E6E6E6;stroke-miterlimit:10;}
</style>
<g>
	<path class="st0" d="M23,35h24.5V19.6L22.8,6.7L-2.3,20.2v24.9c0,0,25.1,14.8,25.3,14.8C23,59.9,23,35,23,35z"/>
	<polygon class="st1" points="22.8,6.7 -2.3,19.6 -2.3,26.5 22.8,35.7 	"/>
	<path class="st2" d="M22.8,6.7l-1.3-0.9l0,0l-8.4-5.4c-1.1-0.6-2.6-0.6-3.6,0L-12,12.7c-1.1,0.6-1.1,1.5,0,2.1l8.4,5.4l0,0l1.3,0.9
		L22.8,6.7z"/>
	<path class="st2" d="M22.6,6.7l1.3-0.9l0,0l8.4-5.4c1.1-0.6,2.6-0.6,3.6,0l21.5,12.2c1.1,0.6,1.1,1.5,0,2.1L49,20.4l0,0l-1.3,0.9
		L22.6,6.7z"/>
	<g>
		<line class="st3" x1="17.2" y1="15.7" x2="31.4" y2="12.1"/>
		<circle class="st4" cx="22.6" cy="21.1" r="15.7"/>
	</g>
	<polygon class="st0" points="-2.3,45.1 22.8,50.5 22.8,35.7 -2.3,35.7 	"/>
	<path class="st2" d="M21.1,36.5l1.7-1.1l-1.7-1.1l0,0L-0.4,22.2l0,0l-1.7-1.1L-4,22.2l0,0l-9.2,5.4c-1.1,0.6-1.1,1.5,0,2.1
		L5.6,40.6L6.3,41l0,0L8,42.1c1.1,0.6,2.6,0.6,3.6,0l3.2-1.9l0,0L21.1,36.5L21.1,36.5z"/>
	<path class="st1" d="M47.7,35.7v9.4L22.8,59.9V35.7H47.7z"/>
	<path class="st2" d="M58.4,27.5l-9.2-5.4l0,0l-1.7-1.1l-1.7,1.1l0,0L24.3,34.4l0,0l-1.7,1.1l1.7,1.1l0,0l6.7,3.9l0,0l2.6,1.5
		c1.1,0.6,2.6,0.6,3.6,0l21.5-12.2C59.3,29,59.3,28.2,58.4,27.5z"/>
</g>
<polygon id="PLAY" class="st5" points="33.1,25.6 27.8,29 27.8,22.2 "/>
<g id="CHECK">
	<line class="st6" x1="14.5" y1="22.2" x2="19.9" y2="27.4"/>
	<line class="st6" x1="18.4" y1="27.1" x2="30.8" y2="14.7"/>
</g>
<g id="ADD" class="st7">
	<path class="st8" d="M23.6,13.9v6.3h5.9v1.6h-5.9v6.3h-1.8v-6.3h-5.9v-1.6h5.9v-6.3H23.6z"/>
</g>
<line id="MINUS" class="st9" x1="14.6" y1="21.5" x2="31.4" y2="21.5"/>
<g id="PAUSE" class="st7">
	<line class="st10" x1="17.5" y1="15.5" x2="17.5" y2="28"/>
	<line class="st10" x1="27.5" y1="15.5" x2="27.5" y2="28"/>
</g>
<path class="st11" d="M21.3,29.6c0-0.9,0.6-1.5,1.5-1.5c0.9,0,1.5,0.6,1.5,1.5c0,0.9-0.6,1.5-1.5,1.5C21.9,31.3,21.3,30.5,21.3,29.6
	z M21.9,24l-0.4-12.2h2.4L23.4,24C23.4,24,21.9,24,21.9,24z"/>
</svg>
