<svg id="Layer_1" data-name="Layer 1" xmlns="http://www.w3.org/2000/svg" viewBox="0 0 600.19 559.94">
  <title>ui-icon-key-green</title>
  <path d="M599.73,186.49c-.08-1.92-.11-3.88-.29-5.8-5.78-91.86-81.9-164.63-175.22-164.63a175.21,175.21,0,0,0-169.68,221q-27.3,27.17-54.52,54.43C134.26,357.27,66.43,423,.66,488.72c-1.4,1.4-.66,49.16-.66,49.16L38.61,576H177V521h40V458h62V399h76s20.46-23,30.67-33.24c12.43,2.79,25.32,3.13,38.59,3.13,95.3,0,172.71-76.53,175.52-171.15.06-1,.13-2.39.16-3.41,0-.73.11-1.59.11-2.33C600,190.19,599.78,188.29,599.73,186.49Zm-174,46.15a48.09,48.09,0,1,1,48.09-48.09A48.09,48.09,0,0,1,425.73,232.64Z" transform="translate(0.19 -16.06)" fill="#40a344"/>
</svg>
