<?xml version="1.0" encoding="UTF-8"?>
<svg width="20px" height="20px" viewBox="0 0 20 20" version="1.1" xmlns="http://www.w3.org/2000/svg" xmlns:xlink="http://www.w3.org/1999/xlink">
    <g id="Page-1" stroke="none" stroke-width="1" fill="none" fill-rule="evenodd">
        <g id="GetPaidx">
            <path d="M10.000047,0.148846272 C15.523052,0.148846272 20.000047,4.62615051 20.000047,10.1488463 C20.000047,15.6723151 15.523052,20.149104 10.000047,20.149104 C4.47709358,20.149104 4.70437021e-05,15.6723151 4.70437021e-05,10.1488463 C4.70437021e-05,4.62615051 4.47709358,0.148846272 10.000047,0.148846272 Z M6,5 C4.66875069,5 4.00323814,5.74090553 4.00323814,7.22196811 L4.00323814,7.22196811 L4.00323814,8.88895358 C4.00323814,9.25921921 3.66865107,9.44431045 3,9.44431045 L3,9.44431045 L3,10.5556896 C3.66865107,10.5556896 4.00323814,10.7408639 4.00323814,11.111088 L4.00323814,11.111088 L4.00323814,12.7780735 C4.00323814,14.2591361 4.6672188,15 5.99499335,15 L5.99499335,15 L5.99499335,13.8888704 C5.32910714,13.8888704 4.99661241,13.5185632 4.99661241,12.7780735 L4.99661241,12.7780735 L4.99661241,11.111088 C4.99661241,10.5556896 4.74867048,10.1852576 4.2527493,9.99970892 C4.75195846,9.81844342 5.00161906,9.44780353 5.00161906,8.88895358 L5.00161906,8.88895358 L5.00161906,7.22196811 C5.00161906,6.48143682 5.33430062,6.11117118 6,6.11117118 L6,6.11117118 Z M14.0048575,5 L14.0048575,6.11120813 C14.67059,6.11120813 15.0034749,6.48109797 15.0034749,7.22195887 L15.0034749,7.22195887 L15.0034749,8.88856316 C15.0034749,9.44433355 15.2512798,9.81459766 15.7473751,9.99972971 C15.2479916,10.1813687 14.998468,10.5518407 14.998468,11.1111042 L14.998468,11.1111042 L14.998468,12.7776669 C14.998468,13.5181951 14.6655831,13.8888334 14,13.8888334 L14,13.8888334 L14,15 C15.3313156,15 15.9967119,14.2590976 15.9967119,12.7776669 L15.9967119,12.7776669 L15.9967119,11.1111042 C15.9967119,10.7408401 16.3313156,10.555708 17,10.555708 L17,10.555708 L17,9.44433355 C16.3313156,9.44433355 15.9967119,9.25882724 15.9967119,8.88856316 L15.9967119,8.88856316 L15.9967119,7.22195887 C15.9967119,5.74052821 15.332885,5 14.0048575,5 L14.0048575,5 Z M6.70953773,7 L6.66060773,7 L6.55084424,7.00373794 C6.16906677,7.0313451 6.01254117,7.21401861 6.00458609,7.6227528 L6.00458609,7.6227528 L9.22535751,9.99989467 L6,12.3805829 L6.00613701,12.4858781 C6.04249207,12.8519482 6.23354632,13 6.65584527,13 L6.65584527,13 L6.70953773,13 L9.99984124,10.5715239 L13.2903212,13 L13.3393923,13 L13.449116,12.9962628 C13.8307637,12.9686608 13.9873324,12.7860194 13.9954492,12.3773174 L13.9954492,12.3773174 L10.774325,9.99989467 L14,7.61927669 L13.9938299,7.5139768 C13.9573612,7.14790424 13.7662773,7 13.3439783,7 L13.3439783,7 L13.2903212,7 L9.99984124,9.42833567 L6.70953773,7 Z" id="Combined-Shape" fill="#000000" fill-rule="nonzero">
            </path>        </g>
    </g>
</svg>
