<svg width="30" height="30" viewBox="0 0 30 30" fill="none" xmlns="http://www.w3.org/2000/svg">
<path d="M5.07836 8.93015C4.2715 8.93015 3.61328 8.27193 3.61328 7.46508C3.61328 6.65822 4.2715 6 5.07836 6C5.88521 6 6.54343 6.65822 6.54343 7.46508C6.54343 8.27193 5.89583 8.93015 5.07836 8.93015ZM5.07836 6.81747C4.7174 6.81747 4.42014 7.11473 4.42014 7.47569C4.42014 7.83665 4.7174 8.13392 5.07836 8.13392C5.43932 8.13392 5.73658 7.83665 5.73658 7.47569C5.73658 7.11473 5.43932 6.81747 5.07836 6.81747Z" fill="white"/>
<path d="M25.0471 18.7717C24.2403 18.7717 23.582 18.1135 23.582 17.3066C23.582 16.4998 24.2403 15.8416 25.0471 15.8416C25.854 15.8416 26.5122 16.4998 26.5122 17.3066C26.5228 18.1135 25.8646 18.7717 25.0471 18.7717ZM25.0471 16.6484C24.6861 16.6484 24.3889 16.9457 24.3889 17.3066C24.3889 17.6676 24.6861 17.9542 25.0471 17.9542C25.4081 17.9542 25.7053 17.657 25.7053 17.296C25.7053 16.9351 25.4081 16.6484 25.0471 16.6484Z" fill="white"/>
<path d="M20.4323 23.5386H4.9959C3.9024 23.5386 3 22.6468 3 21.5427V11.5844C3 10.4909 3.89179 9.5885 4.9959 9.5885H20.4323C21.5258 9.5885 22.4282 10.4803 22.4282 11.5844V21.5427C22.4282 22.6468 21.5364 23.5386 20.4323 23.5386ZM4.9959 10.406C4.34829 10.406 3.81747 10.9368 3.81747 11.5844V21.5427C3.81747 22.1903 4.34829 22.7211 4.9959 22.7211H20.4323C21.0799 22.7211 21.6107 22.1903 21.6107 21.5427V11.5844C21.6107 10.9368 21.0799 10.406 20.4323 10.406H4.9959Z" fill="white"/>
<path d="M17.4045 10.0024H16.587V8.36747C16.587 8.09144 16.3641 7.8685 16.0881 7.8685H9.33598C9.05995 7.8685 8.837 8.09144 8.837 8.36747V9.99179H8.01953V8.36747C8.01953 7.64555 8.60344 7.05103 9.33598 7.05103H16.0987C16.8206 7.05103 17.4151 7.63493 17.4151 8.36747V10.0024H17.4045Z" fill="white"/>
<path d="M12.713 21.1711C10.1757 21.1711 8.10547 19.1008 8.10547 16.5635C8.10547 14.0261 10.1757 11.9559 12.713 11.9559C15.2504 11.9559 17.3206 14.0261 17.3206 16.5635C17.3206 19.1008 15.2504 21.1711 12.713 21.1711ZM12.713 12.7734C10.6216 12.7734 8.92294 14.472 8.92294 16.5635C8.92294 18.6549 10.6216 20.3536 12.713 20.3536C14.8045 20.3536 16.5031 18.6549 16.5031 16.5635C16.5031 14.472 14.8045 12.7734 12.713 12.7734Z" fill="white"/>
<path d="M14.9524 17.7098H11.6719V14.355H12.4893V16.8923H14.9524V17.7098Z" fill="white"/>
</svg>
