<svg xmlns="http://www.w3.org/2000/svg" x="0px" fill="#6F7287" opacity=".65;"
     y="0px" viewBox="0 0 48 64" xml:space="preserve" class="wfea-modal-location-icon">
	<g>
		<path d="M24,0C10.7,0,0,11.2,0,25.3c0,12,16.5,31.7,21.6,37.6c0.5,0.8,1.6,1.1,2.4,1.1c1.1,0,1.9-0.5,2.4-1.1 C31.5,57.1,48,37.1,48,25.3C48,11.2,37.3,0,24,0z M24,57.6C14.9,46.9,5.3,32.8,5.3,25.3c0-11.2,8.3-20,18.7-20s18.7,9.1,18.7,20 C42.7,32.8,33.1,46.9,24,57.6z"></path>
        <path d="M24,13.3c-5.9,0-10.7,4.8-10.7,10.7S18.1,34.7,24,34.7S34.7,29.9,34.7,24S29.9,13.3,24,13.3z M24,29.3 c-2.9,0-5.3-2.4-5.3-5.3s2.4-5.3,5.3-5.3s5.3,2.4,5.3,5.3S26.9,29.3,24,29.3z"></path>
	</g>
</svg>