<svg xmlns="http://www.w3.org/2000/svg" width="94" height="63" fill="none" ><style><![CDATA[.B{fill:#fff}.C{fill:#58707f}.D{stroke:#58707f}.E{stroke-width:.588}.F{stroke-width:1.567}.G{stroke-linecap:round}.H{stroke-linejoin:round}]]></style><rect x=".75" y=".75" width="92.5" height="61.5" rx="2.25" class="B"/><rect x=".75" y=".75" width="92.5" height="61.5" rx="2.25" stroke="#8796a1" stroke-width="1.5"/><path d="M7.833 8.39h78.333v46.217H7.833z" class="B"/><path d="M86.167 21.315h.392v-.392-11.75c0-.649-.526-1.175-1.175-1.175H8.617c-.649 0-1.175.526-1.175 1.175v11.75.392h.392 78.333z" stroke-width=".783" class="D"/><g clip-path="url(#C)"><rect x="9.4" y="9.957" width="8.905" height="9.4" rx=".783" class="B"/><g class="C"><path d="M15.846 13.506l.008-.245c-.003-1.19-.701-1.883-1.803-1.957-.96-.064-1.683.317-2.013.95-.111.213-.174.48-.198.77a1.97 1.97 0 0 0-.058.47h.004c-.148.03-.212.329-.15.674.056.316.2.562.332.58.168.451.433.89.762 1.211a1.88 1.88 0 0 0 .612.413 1.29 1.29 0 0 0 .47.093 1.29 1.29 0 0 0 .47-.093c.228-.091.441-.241.631-.432.32-.32.579-.751.744-1.195.126-.037.259-.275.314-.577.057-.33.002-.616-.125-.664zm-.213.708c-.03.167-.096.306-.164.365-.028.023-.056.034-.084.03-.015-.002-.03-.01-.042-.022-.152.473-.442.946-.808 1.232-.218.171-.464.276-.723.276-.253 0-.494-.1-.709-.265-.373-.285-.668-.763-.822-1.243a.08.08 0 0 1-.042.021c-.032.006-.065-.01-.097-.042-.065-.065-.123-.195-.152-.352l-.005-.031.013-.321c.014-.04.032-.072.056-.089.009-.008.021-.011.032-.013.026-.005.053.006.08.027.01-.096.129-.878.881-.808 0 0 .66.243 1.26.029h.185c.249.01.419.139.598.221-.007-.082-.07-.165-.067-.221.029.008.055.02.079.033.128.137.252.366.352.741l.003.002c.026-.02.053-.03.078-.025.1.045.136.237.096.456zm2.346 4.912H9.727a4.45 4.45 0 0 1 .178-1.061l.023-.077.032-.096.005-.011v-.001-.001c.469-1.255 1.205-1.304 1.372-1.344.357-.083.788-.048 1.018-.119.027.226.685.97 1.115 1.435l.184-.722c-.138-.083-.167-.264-.167-.415h.708c0 .152-.03.335-.171.417l.186.72c.431-.466 1.088-1.21 1.115-1.435.231.072.663.036 1.018.119.167.039.902.088 1.371 1.339l.037.103v.001l.024.084a6.1 6.1 0 0 1 .189.934 1 1 0 0 1 .015.128z"/></g></g><rect x="9.694" y="10.25" width="8.318" height="8.813" rx=".49" class="D E"/><g class="C"><rect x="21.439" y="11.915" width="21.933" height="2.35" rx="1.175"/><rect x="21.439" y="15.832" width="14.1" height="1.567" rx=".783"/></g><g class="D F G H"><path d="M79.9 11.915v5.483"/><path d="M77.158 14.657h5.483"/></g><mask id="A" maskUnits="userSpaceOnUse" x="6.833" y="21.315" width="81" height="22" fill="#000"><path d="M6.833 21.315h81v22h-81z" class="B"/><path d="M7.833 21.315h78.333v20.367H7.833V21.315z"/></mask><path d="M86.167 41.682v.783h.783v-.783h-.783zm-78.333 0H7.05v.783h.783v-.783zm77.55-20.367v20.367h1.567V21.315h-1.567zm.783 19.583H7.833v1.567h78.333v-1.567zm-77.55.783V21.315H7.05v20.367h1.567z" mask="url(#A)" class="C"/><g clip-path="url(#D)"><rect x="9.4" y="22.882" width="8.905" height="9.4" rx=".783" class="B"/><g class="C"><path d="M15.846 26.431l.008-.245c-.003-1.19-.701-1.883-1.803-1.956-.96-.064-1.683.317-2.013.951-.111.213-.174.48-.198.77a1.97 1.97 0 0 0-.058.47h.004c-.148.03-.212.329-.15.674.056.316.2.562.332.58.168.451.433.89.762 1.211a1.88 1.88 0 0 0 .612.413 1.29 1.29 0 0 0 .47.093 1.29 1.29 0 0 0 .47-.093c.228-.091.441-.241.631-.432.32-.32.579-.752.744-1.195.126-.037.259-.274.314-.577.057-.33.002-.616-.125-.664zm-.213.708c-.03.167-.096.306-.164.365-.028.023-.056.034-.084.03-.015-.002-.03-.01-.042-.022-.152.473-.442.946-.808 1.232-.218.171-.464.276-.723.276-.253 0-.494-.1-.709-.265-.373-.285-.668-.763-.822-1.243a.08.08 0 0 1-.042.021c-.032.006-.065-.01-.097-.042-.065-.065-.123-.195-.152-.352l-.005-.031.013-.321c.014-.04.032-.072.056-.089.009-.008.021-.011.032-.013.026-.005.053.006.08.027.01-.096.129-.878.881-.808 0 0 .66.243 1.26.029h.185c.249.009.419.139.598.221-.007-.082-.07-.166-.067-.221a.33.33 0 0 1 .079.034c.128.137.252.366.352.741l.003.002c.026-.02.053-.03.078-.025a.07.07 0 0 1 .019.006c.081.039.117.231.077.449zm2.346 4.912H9.727a4.45 4.45 0 0 1 .178-1.061l.023-.076.032-.096.005-.01v-.001-.001c.469-1.255 1.205-1.304 1.372-1.343.357-.083.788-.048 1.018-.12.027.226.685.97 1.115 1.435l.184-.722c-.138-.083-.167-.264-.167-.415h.708c0 .152-.03.335-.171.417l.186.72c.431-.466 1.088-1.21 1.115-1.435.231.072.663.036 1.018.12.167.039.902.088 1.371 1.339l.037.103v.001l.024.084a6.1 6.1 0 0 1 .189.934 1 1 0 0 1 .015.128z"/></g></g><rect x="9.694" y="23.175" width="8.318" height="8.813" rx=".49" class="D E"/><g class="C"><rect x="21.439" y="24.84" width="21.933" height="2.35" rx="1.175"/><rect x="21.439" y="28.757" width="14.1" height="1.567" rx=".783"/></g><path d="M77.158 27.582h5.483" class="D F G H"/><g fill="#7c92a1"><rect x="9.4" y="34.632" width="75.2" height="1.567" rx=".783"/><rect x="9.4" y="37.765" width="47" height="1.567" rx=".783"/></g><mask id="B" maskUnits="userSpaceOnUse" x="6.833" y="42.073" width="81" height="14" fill="#000"><path d="M6.833 42.073h81v14h-81z" class="B"/><path d="M7.833 42.073h78.333v11.75c0 .433-.351.783-.783.783H8.617c-.433 0-.783-.351-.783-.783v-11.75z"/></mask><path d="M7.833 42.073h78.333H7.833zm79.117 11.75c0 .865-.701 1.567-1.567 1.567H8.617c-.865 0-1.567-.701-1.567-1.567h1.567 76.767 1.567zM8.617 55.39c-.865 0-1.567-.701-1.567-1.567v-11.75h1.567v11.75 1.567zM86.95 42.073v11.75c0 .865-.701 1.567-1.567 1.567v-1.567-11.75h1.567z" mask="url(#B)" class="C"/><g clip-path="url(#E)"><rect x="9.4" y="43.64" width="8.905" height="9.4" rx=".783" class="B"/><g class="C"><path d="M15.846 47.189l.008-.245c-.003-1.19-.701-1.883-1.803-1.956-.96-.064-1.683.316-2.013.95-.111.213-.174.48-.198.77-.037.151-.058.308-.058.471h.004c-.148.03-.212.329-.15.674.056.316.2.562.332.58.168.451.433.89.762 1.211a1.88 1.88 0 0 0 .612.413 1.29 1.29 0 0 0 .47.093 1.29 1.29 0 0 0 .47-.093c.228-.091.441-.241.631-.432.32-.32.579-.752.744-1.195.126-.037.259-.274.314-.577.057-.33.002-.616-.125-.664zm-.213.708c-.03.167-.096.306-.164.365-.028.023-.056.034-.084.03-.015-.002-.03-.01-.042-.022-.152.473-.442.946-.808 1.232-.218.171-.464.276-.723.276-.253 0-.494-.1-.709-.265-.373-.285-.668-.763-.822-1.243a.08.08 0 0 1-.042.021c-.032.006-.065-.01-.097-.042-.065-.065-.123-.195-.152-.352l-.005-.031.013-.321c.014-.04.032-.072.056-.089.009-.008.021-.012.032-.013.026-.005.053.006.08.027.01-.096.129-.878.881-.808 0 0 .66.243 1.26.029h.185c.249.01.419.139.598.221-.007-.082-.07-.165-.067-.221a.37.37 0 0 1 .079.034c.128.137.252.366.352.741l.003.002c.026-.02.053-.03.078-.025.1.045.136.237.096.455zm2.346 4.913H9.727a4.45 4.45 0 0 1 .178-1.061l.023-.077.032-.096.005-.011v-.001-.001c.469-1.255 1.205-1.304 1.372-1.343.357-.083.788-.048 1.018-.119.027.226.685.97 1.115 1.435l.184-.722c-.138-.083-.167-.264-.167-.415h.708c0 .152-.03.335-.171.417l.186.72c.431-.466 1.088-1.21 1.115-1.435.231.072.663.036 1.018.119.167.039.902.088 1.371 1.339l.037.103v.001l.024.084a6.1 6.1 0 0 1 .189.934 1 1 0 0 1 .015.128z"/></g></g><rect x="9.694" y="43.934" width="8.318" height="8.813" rx=".49" class="D E"/><g class="C"><rect x="21.439" y="45.598" width="21.933" height="2.35" rx="1.175"/><rect x="21.439" y="49.515" width="14.1" height="1.567" rx=".783"/></g><g class="D F G H"><path d="M79.9 45.598v5.483"/><path d="M77.158 48.34h5.483"/></g><defs><clipPath id="C"><rect x="9.4" y="9.957" width="8.905" height="9.4" rx=".783" class="B"/></clipPath><clipPath id="D"><rect x="9.4" y="22.882" width="8.905" height="9.4" rx=".783" class="B"/></clipPath><clipPath id="E"><rect x="9.4" y="43.64" width="8.905" height="9.4" rx=".783" class="B"/></clipPath></defs></svg>