<svg xmlns="http://www.w3.org/2000/svg" width="94" height="63" fill="none" ><rect x=".75" y=".75" width="92.5" height="61.5" rx="2.25" fill="#fff"/><rect x=".75" y=".75" width="92.5" height="61.5" rx="2.25" stroke="#8796a1" stroke-width="1.5"/><rect x="8.91" y="7.524" width="20.301" height="21.346" rx=".698" fill="#fff"/><rect x="8.91" y="7.524" width="20.301" height="21.346" rx=".698" stroke="#58707f" stroke-width=".588"/><g fill="#58707f"><path d="M23.736 15.511l.018-.571c-.007-2.778-1.644-4.393-4.228-4.565-2.252-.15-3.948.739-4.722 2.218-.26.498-.408 1.12-.464 1.796a4.54 4.54 0 0 0-.137 1.098h.009c-.007.009-.013.009-.018.011-.33.058-.48.756-.334 1.562.132.738.469 1.312.778 1.354.395 1.053 1.016 2.077 1.788 2.825.435.424.92.759 1.436.964a3.03 3.03 0 0 0 1.104.216c.38 0 .749-.078 1.104-.216.534-.212 1.034-.562 1.48-1.009.751-.747 1.359-1.754 1.745-2.789.296-.087.608-.64.736-1.345.135-.77.004-1.437-.294-1.548zm-.5 1.651c-.07.39-.224.714-.386.852-.065.053-.132.08-.197.069a.17.17 0 0 1-.099-.051c-.357 1.104-1.036 2.207-1.895 2.874-.511.399-1.088.645-1.696.645-.594 0-1.16-.234-1.662-.618-.875-.665-1.568-1.78-1.929-2.901-.029.027-.063.045-.099.049-.074.013-.152-.022-.226-.098-.153-.152-.289-.455-.357-.821l-.011-.071.031-.75c.034-.094.074-.167.13-.207.022-.018.049-.027.076-.031.061-.011.126.013.188.063.022-.223.303-2.048 2.066-1.885 0 0 1.548.567 2.956.067h.435c.583.022.982.324 1.402.515-.016-.192-.164-.386-.157-.515a.88.88 0 0 1 .186.078c.301.319.592.854.825 1.729l.007.005c.061-.047.123-.069.184-.058a.17.17 0 0 1 .045.013c.191.091.274.54.182 1.049zm5.504 11.464H9.383c.043-.841.168-1.64.417-2.477l.054-.178.074-.223.011-.024v-.002-.002c1.101-2.927 2.826-3.043 3.219-3.135.837-.194 1.848-.112 2.389-.279.063.527 1.606 2.262 2.615 3.349l.431-1.684c-.323-.194-.393-.616-.393-.968h1.66c0 .355-.07.781-.401.973l.437 1.68c1.012-1.087 2.552-2.822 2.615-3.349.541.167 1.554.085 2.389.279.393.091 2.115.205 3.217 3.124l.088.241v.002l.056.196c.197.707.361 1.45.444 2.18a2.32 2.32 0 0 1 .036.299z"/><rect x="32.639" y="8.992" width="21.933" height="1.958" rx=".979"/><rect x="32.639" y="12.518" width="10.967" height="1.175" rx=".588"/><rect x="32.639" y="16.043" width="52.483" height="1.371" rx=".685"/><rect x="32.639" y="18.98" width="34.467" height="1.371" rx=".685"/><path d="M36.835 22.701h-3.693c-.134 0-.262.053-.356.147s-.148.223-.148.356v3.693a.5.5 0 0 0 .148.356c.095.094.222.148.356.148h1.44v-1.598h-.661v-.752h.661v-.573c0-.652.388-1.012.983-1.012a4 4 0 0 1 .582.051v.64h-.328c-.323 0-.424.201-.424.406v.488h.722l-.115.752h-.606v1.598h1.44a.5.5 0 0 0 .356-.148.51.51 0 0 0 .148-.356v-3.693a.5.5 0 0 0-.148-.356c-.095-.094-.223-.147-.356-.147zm6.267 0h-3.693c-.278 0-.504.226-.504.504v3.693c0 .278.226.504.504.504h3.693c.278 0 .504-.226.504-.504v-3.693c0-.278-.226-.504-.504-.504zm-.513 1.666l.002.089c0 .91-.693 1.958-1.958 1.958a1.95 1.95 0 0 1-1.056-.308 1.45 1.45 0 0 0 .166.008 1.38 1.38 0 0 0 .854-.294.69.69 0 0 1-.643-.477.73.73 0 0 0 .311-.013.69.69 0 0 1-.551-.676v-.008a.69.69 0 0 0 .31.087c-.094-.063-.172-.148-.225-.248s-.081-.212-.081-.325a.68.68 0 0 1 .093-.347c.339.418.848.69 1.418.72a.69.69 0 0 1 1.174-.628 1.33 1.33 0 0 0 .436-.166c-.051.159-.159.294-.302.379a1.37 1.37 0 0 0 .397-.107 1.45 1.45 0 0 1-.345.357zm6.948-1.666h-4.03c-.185 0-.335.152-.335.339v4.022c0 .187.15.339.335.339h4.03c.185 0 .336-.152.336-.339V23.04c0-.187-.151-.339-.336-.339zm-2.944 4.029h-.697v-2.243h.698v2.243h-.001zm-.348-2.549c-.223 0-.404-.181-.404-.404s.181-.404.404-.404.404.181.404.404-.18.404-.404.404zm2.96 2.549h-.697v-1.091c0-.26-.005-.595-.362-.595-.363 0-.419.283-.419.576v1.11h-.697v-2.243h.668v.306h.009c.093-.176.321-.362.66-.362.705 0 .836.465.836 1.069v1.23z"/></g><g clip-path="url(#A)"><rect x="8.617" y="33.863" width="20.889" height="21.933" rx=".992" fill="#fff"/><g fill="#58707f"><path d="M23.736 42.144l.018-.571c-.007-2.778-1.644-4.393-4.228-4.565-2.252-.15-3.948.738-4.722 2.218-.26.498-.408 1.12-.464 1.796a4.52 4.52 0 0 0-.137 1.098h.009c-.007.009-.013.009-.018.011-.33.058-.48.756-.334 1.562.132.738.469 1.312.778 1.354.395 1.053 1.016 2.077 1.788 2.825.435.424.92.759 1.436.964a3.03 3.03 0 0 0 1.104.216c.38 0 .749-.078 1.104-.216.534-.212 1.034-.562 1.48-1.008.751-.748 1.359-1.754 1.745-2.789.296-.087.608-.64.736-1.345.135-.77.004-1.437-.294-1.549zm-.5 1.651c-.07.391-.224.714-.386.852-.065.054-.132.08-.197.069a.17.17 0 0 1-.099-.051c-.357 1.104-1.036 2.207-1.895 2.874-.511.399-1.088.645-1.696.645-.594 0-1.16-.234-1.662-.618-.875-.665-1.568-1.781-1.929-2.901a.18.18 0 0 1-.099.049c-.074.013-.152-.022-.226-.098-.153-.152-.289-.455-.357-.821l-.011-.071.031-.75c.034-.094.074-.167.13-.208.022-.018.049-.027.076-.031.061-.011.126.013.188.063.022-.223.303-2.048 2.066-1.885 0 0 1.548.567 2.956.067h.435c.583.022.982.324 1.402.515-.016-.192-.164-.386-.157-.515a.88.88 0 0 1 .186.078c.301.319.592.855.825 1.729l.007.005c.061-.047.123-.069.184-.058a.17.17 0 0 1 .045.013c.191.091.274.54.182 1.049zm5.504 11.464H9.383c.043-.841.168-1.64.417-2.477l.054-.178.074-.223c.007-.013.007-.016.009-.018l.002-.007v-.002-.002c1.101-2.927 2.826-3.043 3.219-3.135.837-.194 1.848-.112 2.389-.279.063.526 1.606 2.262 2.615 3.349l.431-1.685c-.323-.194-.393-.616-.393-.968h1.66c0 .355-.07.781-.401.973l.437 1.68c1.012-1.087 2.552-2.822 2.615-3.349.541.167 1.554.085 2.389.279.393.091 2.115.205 3.217 3.124l.088.241v.002l.056.196c.197.707.361 1.45.444 2.18a2.41 2.41 0 0 1 .036.299z"/></g></g><rect x="8.91" y="34.157" width="20.301" height="21.346" rx=".698" stroke="#58707f" stroke-width=".588"/><g fill="#58707f"><rect x="32.639" y="35.626" width="21.933" height="1.958" rx=".979"/><rect x="32.639" y="39.151" width="10.967" height="1.175" rx=".588"/><rect x="32.639" y="42.676" width="52.483" height="1.371" rx=".685"/><rect x="32.639" y="45.613" width="34.467" height="1.371" rx=".685"/><path d="M36.835 49.334h-3.693c-.134 0-.262.053-.356.147s-.148.223-.148.356v3.693a.5.5 0 0 0 .148.356c.095.094.222.148.356.148h1.44v-1.598h-.661v-.752h.661v-.573c0-.652.388-1.012.983-1.012a4.01 4.01 0 0 1 .582.051v.64h-.328c-.323 0-.424.201-.424.406v.488h.722l-.115.752h-.606v1.598h1.44a.5.5 0 0 0 .356-.148c.094-.095.148-.222.148-.356v-3.693a.5.5 0 0 0-.148-.356c-.095-.094-.223-.147-.356-.147zm6.267 0h-3.693c-.278 0-.504.225-.504.503v3.693c0 .278.226.504.504.504h3.693c.278 0 .504-.226.504-.504v-3.693c0-.278-.226-.503-.504-.503zM42.589 51l.002.089c0 .91-.693 1.958-1.958 1.958a1.95 1.95 0 0 1-1.056-.308 1.45 1.45 0 0 0 .166.008 1.38 1.38 0 0 0 .854-.294.69.69 0 0 1-.643-.477.74.74 0 0 0 .311-.013.69.69 0 0 1-.551-.676v-.008a.69.69 0 0 0 .31.087c-.094-.063-.172-.148-.225-.248s-.081-.212-.081-.325a.68.68 0 0 1 .093-.347c.339.418.848.69 1.418.72a.69.69 0 0 1 1.174-.629 1.35 1.35 0 0 0 .436-.166.68.68 0 0 1-.302.379 1.37 1.37 0 0 0 .397-.107 1.45 1.45 0 0 1-.345.357zm6.948-1.666h-4.03c-.185 0-.335.152-.335.339v4.022c0 .187.15.339.335.339h4.03c.185 0 .336-.152.336-.339v-4.022c0-.187-.151-.339-.336-.339zm-2.944 4.028h-.697V51.12h.698v2.243h-.001zm-.348-2.549c-.223 0-.404-.181-.404-.404s.181-.404.404-.404.404.181.404.404-.18.404-.404.404zm2.96 2.549h-.697v-1.091c0-.26-.005-.595-.362-.595-.363 0-.419.283-.419.576v1.11h-.697V51.12h.668v.306h.009c.093-.176.321-.362.66-.362.705 0 .836.465.836 1.069v1.229z"/></g><defs><clipPath id="A"><rect x="8.617" y="33.863" width="20.889" height="21.933" rx=".992" fill="#fff"/></clipPath></defs></svg>