<svg xmlns="http://www.w3.org/2000/svg" width="94" height="63" fill="none" ><style><![CDATA[.B{fill:#fff}.C{fill:#718491}.D{fill:#58707f}]]></style><rect x=".75" y=".75" width="92.5" height="61.5" rx="2.25" class="B"/><rect x=".75" y=".75" width="92.5" height="61.5" rx="2.25" stroke="#8796a1" stroke-width="1.5"/><path d="M26.633 11.13H47v20.367H26.633z" class="C"/><g class="B"><rect x="31.061" y="16.664" width="11.512" height="1.771" rx=".886"/><rect x="31.061" y="21.092" width="13.283" height="1.55" rx=".775"/><rect x="31.061" y="24.413" width="9.741" height="1.55" rx=".775"/></g><g clip-path="url(#E)"><mask id="A" class="B"><path d="M8.038 11.913c0-.433.351-.783.783-.783h18.511v21.15H8.038V11.913z"/></mask><path d="M8.038 11.913c0-.433.351-.783.783-.783h18.511v21.15H8.038V11.913z" class="B"/><g class="D"><path d="M22.672 18.774l.018-.6c-.007-2.917-1.654-4.613-4.253-4.794-2.265-.157-3.971.776-4.75 2.329-.262.523-.411 1.176-.467 1.886a4.97 4.97 0 0 0-.138 1.153h.009c-.007.009-.013.009-.018.012-.332.061-.483.794-.336 1.64.133.776.471 1.378.783 1.422.397 1.106 1.022 2.181 1.798 2.966.438.445.925.797 1.444 1.012a2.94 2.94 0 0 0 1.11.227c.381 0 .754-.082 1.11-.227.537-.223 1.04-.59 1.489-1.059.756-.785 1.367-1.842 1.755-2.929.298-.091.612-.672.74-1.413.135-.808.005-1.509-.296-1.626zm-.503 1.734c-.07.41-.226.75-.388.895-.066.056-.133.084-.199.073-.036-.005-.07-.023-.099-.054-.359 1.16-1.042 2.317-1.907 3.018-.514.419-1.094.677-1.706.677-.598 0-1.166-.246-1.672-.649-.88-.698-1.577-1.87-1.94-3.046-.029.028-.063.047-.099.052-.075.014-.154-.023-.228-.103-.154-.159-.291-.478-.359-.862l-.011-.075.032-.787c.034-.098.074-.176.131-.218.023-.019.05-.028.077-.033.061-.012.126.014.19.066.023-.234.305-2.151 2.078-1.98 0 0 1.557.595 2.974.07h.438c.587.023.988.34 1.41.541-.016-.201-.165-.405-.158-.541a.83.83 0 0 1 .187.082c.302.335.596.897.83 1.816l.007.005c.061-.049.124-.073.185-.061.016.002.029.007.045.014.192.096.275.567.183 1.101zm5.537 12.038H8.234a11.27 11.27 0 0 1 .42-2.601l.054-.187.074-.234.009-.019.002-.007v-.002-.002c1.108-3.074 2.843-3.196 3.238-3.292.842-.204 1.859-.117 2.403-.293.063.553 1.616 2.376 2.631 3.517l.433-1.769c-.325-.204-.395-.647-.395-1.017h1.67c0 .373-.07.82-.404 1.022l.44 1.764c1.018-1.141 2.568-2.964 2.631-3.517.544.176 1.564.089 2.403.293.395.096 2.128.215 3.236 3.28l.088.253v.002l.056.206c.199.743.363 1.523.447 2.289.02.105.029.211.036.314z"/></g></g><g class="C"><path d="M7.2 11.91a1.62 1.62 0 0 1 1.622-1.621h18.511v1.682H8.876L7.2 11.91zm20.133 20.37H8.038h19.295zm-20.133 0V11.91a1.62 1.62 0 0 1 1.622-1.621l.055 1.682V32.28H7.2zm20.133-21.15v21.15-21.15z" mask="url(#A)"/><path d="M24.103 21.513c-.121-.106-.121-.294 0-.4l3.314-2.899v6.199l-3.314-2.899zM65.596 11.13h19.583c.433 0 .783.351.783.783v19.583H65.596V11.13z"/></g><g class="B"><rect x="70.023" y="16.664" width="11.512" height="1.771" rx=".886"/><rect x="70.023" y="21.092" width="13.283" height="1.55" rx=".775"/><rect x="70.023" y="24.413" width="9.741" height="1.55" rx=".775"/></g><g clip-path="url(#F)"><mask id="B" class="B"><path d="M47 11.13h19.295v21.15H47V11.13z"/></mask><path d="M47 11.13h19.295v21.15H47V11.13z" class="B"/><g class="D"><path d="M61.35 18.774l.018-.6c-.007-2.917-1.654-4.613-4.253-4.794-2.265-.157-3.971.776-4.75 2.329-.262.523-.411 1.176-.467 1.886a4.97 4.97 0 0 0-.138 1.153h.009c-.007.009-.013.009-.018.012-.332.061-.483.794-.336 1.64.133.776.471 1.378.783 1.422.397 1.106 1.022 2.181 1.798 2.966.438.445.925.797 1.444 1.012a2.94 2.94 0 0 0 1.11.227c.381 0 .754-.082 1.11-.227.537-.223 1.04-.59 1.489-1.059.756-.785 1.367-1.842 1.755-2.929.298-.091.611-.672.74-1.413.135-.808.005-1.509-.296-1.626zm-.503 1.734c-.07.41-.226.75-.388.895-.065.056-.133.084-.199.073-.036-.005-.07-.023-.099-.054-.359 1.16-1.042 2.317-1.907 3.018-.514.419-1.094.677-1.706.677-.598 0-1.166-.246-1.672-.649-.88-.698-1.577-1.87-1.94-3.046-.029.028-.063.047-.099.052-.074.014-.153-.023-.228-.103-.154-.159-.291-.478-.359-.862l-.011-.075.032-.787c.034-.098.075-.176.131-.218.023-.019.05-.028.077-.033.061-.012.126.014.19.066.023-.234.305-2.151 2.078-1.98 0 0 1.557.595 2.974.07h.438c.587.023.988.34 1.41.541-.016-.201-.165-.405-.158-.541a.83.83 0 0 1 .187.082c.302.335.596.897.83 1.816l.007.005c.061-.049.124-.073.185-.061.016.002.029.007.045.014.192.096.275.567.183 1.101zm5.537 12.038H46.912a11.27 11.27 0 0 1 .42-2.601l.054-.187.075-.234.009-.019.002-.007v-.002-.002c1.108-3.074 2.843-3.196 3.238-3.292.842-.204 1.859-.117 2.403-.293.063.553 1.616 2.376 2.631 3.517l.433-1.769c-.325-.204-.395-.647-.395-1.017h1.67c0 .373-.07.82-.404 1.022l.44 1.764c1.018-1.141 2.568-2.964 2.631-3.517.544.176 1.564.089 2.403.293.395.096 2.128.215 3.236 3.28l.088.253v.002l.056.206c.199.743.363 1.523.447 2.289.02.105.029.211.036.314z"/></g></g><g class="C"><path d="M47 11.971h19.295v-1.682H47v1.682z" mask="url(#B)"/><path d="M63.065 21.513c-.121-.106-.121-.294 0-.4l3.314-2.899v6.199l-3.314-2.899zm-34.66 9.984H8.038V51.08c0 .433.351.783.783.783h19.583V31.497z"/></g><g class="B"><rect x="11.58" y="37.031" width="11.512" height="1.771" rx=".886"/><rect x="11.58" y="41.459" width="13.283" height="1.55" rx=".775"/><rect x="11.58" y="44.779" width="9.741" height="1.55" rx=".775"/></g><g clip-path="url(#G)"><mask id="C" class="B"><path d="M27.705 31.497H47v20.367H27.705V31.497z"/></mask><path d="M27.705 31.497H47v20.367H27.705V31.497z" class="B"/><g class="D"><path d="M42.236 38.702l.019-.6c-.007-2.917-1.718-4.614-4.417-4.794-2.352-.157-4.124.776-4.932 2.329-.272.523-.426 1.176-.485 1.886-.091.37-.143.755-.143 1.153h.009c-.007.009-.014.009-.019.012-.344.061-.501.794-.349 1.64.138.776.49 1.378.813 1.422.412 1.106 1.061 2.181 1.867 2.966.454.445.961.797 1.5 1.012a3.15 3.15 0 0 0 1.153.227 3.15 3.15 0 0 0 1.153-.227c.558-.223 1.08-.59 1.547-1.059.785-.785 1.42-1.842 1.823-2.929.309-.091.635-.672.769-1.413.141-.808.005-1.509-.307-1.626zm-.523 1.734c-.073.41-.234.75-.403.895-.068.056-.138.084-.206.073-.038-.005-.073-.023-.103-.054-.373 1.16-1.083 2.317-1.98 3.018-.534.419-1.136.677-1.771.677-.621 0-1.211-.246-1.736-.649-.914-.698-1.638-1.87-2.015-3.046-.03.028-.066.047-.103.051-.077.014-.159-.023-.237-.103-.159-.159-.302-.478-.373-.862l-.012-.075.033-.787c.035-.098.077-.176.136-.218.023-.019.052-.028.08-.033.063-.012.131.014.197.066.023-.234.316-2.151 2.158-1.98 0 0 1.617.595 3.088.07h.455c.609.023 1.026.34 1.464.541-.016-.201-.171-.405-.164-.541.07.019.134.049.194.082.314.335.619.897.862 1.816l.007.005c.063-.049.129-.073.192-.061.016.002.031.007.047.014.199.096.286.567.19 1.101zm5.75 12.038H27.242a10.9 10.9 0 0 1 .436-2.601l.056-.187.077-.234.009-.019.002-.007v-.002-.002c1.151-3.074 2.952-3.196 3.362-3.292.874-.204 1.931-.117 2.495-.293.066.553 1.678 2.376 2.732 3.517l.45-1.769c-.337-.204-.41-.647-.41-1.017h1.734c0 .373-.073.82-.419 1.022l.457 1.764c1.057-1.141 2.666-2.964 2.732-3.517.565.176 1.624.089 2.496.293.41.096 2.209.216 3.36 3.28l.091.253v.002l.059.206a14.97 14.97 0 0 1 .464 2.289 2.44 2.44 0 0 1 .037.314z"/></g></g><g class="C"><path d="M47 51.022H27.705v1.682H47v-1.682z" mask="url(#C)"/><path d="M30.833 41.88c.121-.106.121-.294 0-.4l-3.314-2.899v6.199l3.314-2.899zm36.534-10.383H47v20.367h20.367z"/></g><g class="B"><rect x="50.542" y="37.031" width="11.512" height="1.771" rx=".886"/><rect x="50.542" y="41.459" width="13.283" height="1.55" rx=".775"/><rect x="50.542" y="44.779" width="9.741" height="1.55" rx=".775"/></g><g clip-path="url(#H)"><mask id="D" class="B"><path d="M66.669 31.497h19.295V51.08c0 .433-.351.783-.783.783H66.669V31.497z"/></mask><path d="M66.669 31.497h19.295V51.08c0 .433-.351.783-.783.783H66.669V31.497z" class="B"/><g class="D"><path d="M81.2 38.702l.019-.6c-.007-2.917-1.718-4.614-4.417-4.794-2.352-.157-4.124.776-4.932 2.329-.272.523-.427 1.176-.485 1.886a4.81 4.81 0 0 0-.143 1.153h.009c-.007.009-.014.009-.019.012-.344.061-.501.794-.349 1.64.138.776.49 1.378.813 1.422.412 1.106 1.061 2.182 1.867 2.966.455.445.961.797 1.499 1.012a3.15 3.15 0 0 0 1.153.227 3.15 3.15 0 0 0 1.153-.227c.558-.223 1.08-.59 1.546-1.059.785-.785 1.42-1.842 1.823-2.929.309-.091.635-.672.769-1.413.141-.808.005-1.509-.307-1.626zm-.522 1.734c-.073.41-.234.75-.403.895-.068.056-.138.084-.206.073-.037-.005-.073-.023-.103-.054-.373 1.16-1.082 2.317-1.98 3.018-.534.419-1.136.677-1.771.677-.621 0-1.211-.246-1.736-.649-.914-.698-1.638-1.87-2.015-3.046-.031.028-.066.047-.103.052-.077.014-.159-.023-.237-.103-.159-.159-.302-.478-.373-.862l-.012-.075.033-.787c.035-.098.077-.176.136-.218.023-.019.052-.028.08-.033.063-.012.131.014.197.066.023-.234.316-2.151 2.158-1.98 0 0 1.617.595 3.088.07h.455c.609.023 1.026.34 1.464.541-.016-.201-.171-.405-.164-.541.07.019.134.049.195.082.314.335.618.897.862 1.816l.007.005c.063-.049.129-.073.192-.061.016.002.03.007.047.014.199.096.286.567.19 1.101zm5.75 12.039H66.207a10.94 10.94 0 0 1 .436-2.601l.056-.187.077-.234.009-.019.002-.007v-.002-.002c1.151-3.074 2.952-3.196 3.362-3.292.874-.204 1.931-.117 2.495-.293.066.553 1.678 2.376 2.732 3.517l.45-1.769c-.337-.204-.41-.647-.41-1.017h1.734c0 .373-.073.82-.419 1.022l.457 1.764c1.057-1.141 2.666-2.964 2.732-3.517.565.176 1.624.089 2.495.293.41.096 2.21.216 3.36 3.28l.091.253v.002l.059.206c.206.743.377 1.523.464 2.289a2.43 2.43 0 0 1 .037.314z"/></g></g><g class="C"><path d="M66.669 31.497h19.295-19.295zM86.805 51.08c0 .897-.727 1.625-1.625 1.625H66.669v-1.682h18.453l1.683.058zm-20.136.783V31.497v20.367zm20.136-20.367V51.08c0 .897-.727 1.625-1.625 1.625l-.058-1.682V31.497h1.683z" mask="url(#D)"/><path d="M69.795 41.88c.121-.106.121-.294 0-.4l-3.313-2.899v6.199l3.313-2.899z"/></g><defs><clipPath id="E"><path d="M8.038 11.913c0-.433.351-.783.783-.783h18.511v21.15H8.038V11.913z" class="B"/></clipPath><clipPath id="F"><path d="M47 11.13h19.295v21.15H47V11.13z" class="B"/></clipPath><clipPath id="G"><path d="M27.705 31.497H47v20.367H27.705V31.497z" class="B"/></clipPath><clipPath id="H"><path d="M66.669 31.497h19.295V51.08c0 .433-.351.783-.783.783H66.669V31.497z" class="B"/></clipPath></defs></svg>