<svg xmlns="http://www.w3.org/2000/svg" xmlns:xlink="http://www.w3.org/1999/xlink" width="94" height="63" fill="none" ><style><![CDATA[.B{fill:#fff}.C{fill:#58707f}.D{stroke:#58707f}.E{stroke-width:.441}]]></style><rect x=".75" y=".75" width="92.5" height="61.5" rx="2.25" class="B"/><rect x=".75" y=".75" width="92.5" height="61.5" rx="2.25" stroke="#8796a1" stroke-width="1.5"/><g clip-path="url(#A)"><rect x="10.967" y="11.13" width="72.067" height="40.733" rx="1.567" class="B"/><path d="M10.967 11.13h72.067v5.483H10.967z" class="C"/><g class="B"><rect x="14.883" y="13.48" width="6.267" height="1.175" rx=".588"/><rect x="28.983" y="13.48" width="4.7" height="1.175" rx=".588"/><rect x="42.3" y="13.48" width="4.7" height="1.175" rx=".588"/><rect x="53.267" y="13.48" width="6.267" height="1.175" rx=".588"/><rect x="69.717" y="13.48" width="4.7" height="1.175" rx=".588"/></g><g clip-path="url(#B)"><rect x="14.1" y="18.572" width="7.833" height="7.833" rx=".801" class="B"/><g class="C"><path d="M19.717 21.522l.007-.209c-.003-1.016-.598-1.607-1.538-1.67-.819-.055-1.436.27-1.718.811-.095.182-.148.41-.169.657a1.67 1.67 0 0 0-.05.401h.003c-.127.025-.181.281-.128.575.048.27.17.48.283.495.144.385.37.76.65 1.033.158.155.334.277.522.352.129.051.264.079.401.079s.273-.029.401-.079c.194-.078.376-.206.539-.369.273-.273.494-.641.635-1.02.108-.032.221-.234.268-.492.049-.282.002-.526-.107-.566zm-.182.604c-.025.143-.082.261-.14.312-.024.02-.048.029-.072.025-.013-.002-.025-.008-.036-.019-.13.404-.377.807-.689 1.051-.186.146-.396.236-.617.236-.216 0-.422-.086-.605-.226-.318-.243-.57-.651-.702-1.061-.011.01-.023.016-.036.018-.027.005-.056-.008-.082-.036a.6.6 0 0 1-.13-.3l-.004-.026.012-.274c.012-.034.027-.061.047-.076.008-.007.018-.01.028-.012.022-.004.046.005.069.023.008-.082.11-.749.752-.689 0 0 .563.207 1.075.024h.158c.212.008.357.118.51.189-.006-.07-.06-.141-.057-.189a.31.31 0 0 1 .068.029c.109.117.215.313.3.632l.002.002c.022-.017.045-.025.067-.021.086.038.116.202.082.388z"/><use xlink:href="#E"/></g></g><rect x="14.32" y="18.792" width="7.393" height="7.393" rx=".581" class="D E"/><g class="C"><rect x="27.808" y="21.705" width="7.833" height="1.567" rx=".783"/><rect x="41.908" y="21.901" width="4.7" height="1.175" rx=".588"/><rect x="52.875" y="20.922" width="11.75" height="1.175" rx=".588"/><rect x="52.875" y="22.88" width="7.833" height="1.175" rx=".588"/><path d="M71.709 21.153h-2.098c-.076 0-.149.03-.202.084a.29.29 0 0 0-.084.202v2.098c0 .076.03.149.084.202a.29.29 0 0 0 .202.084h.818v-.908h-.376v-.427h.376v-.326c0-.37.221-.575.558-.575a2.27 2.27 0 0 1 .331.029v.364h-.186c-.184 0-.241.114-.241.231v.277h.41l-.066.427h-.344v.908h.818c.076 0 .149-.03.202-.084a.29.29 0 0 0 .084-.202v-2.098c0-.076-.03-.149-.084-.202a.29.29 0 0 0-.202-.084zm3.739 0H73.35c-.158 0-.286.128-.286.286v2.098c0 .158.128.286.286.286h2.098c.158 0 .286-.128.286-.286v-2.098c0-.158-.128-.286-.286-.286zm-.291.947l.001.051c0 .517-.393 1.112-1.112 1.112a1.11 1.11 0 0 1-.6-.175.84.84 0 0 0 .094.005.78.78 0 0 0 .485-.167.39.39 0 0 1-.365-.271.42.42 0 0 0 .176-.007.39.39 0 0 1-.313-.384v-.005a.39.39 0 0 0 .176.05.39.39 0 0 1-.174-.326c0-.073.019-.139.053-.197a1.11 1.11 0 0 0 .806.409.39.39 0 0 1 .667-.357.79.79 0 0 0 .248-.094.39.39 0 0 1-.172.215.78.78 0 0 0 .225-.061.84.84 0 0 1-.196.203zm4.125-.947h-2.29c-.105 0-.19.086-.19.193v2.285c0 .106.085.192.19.192h2.29c.105 0 .191-.086.191-.192v-2.285c0-.106-.086-.193-.191-.193zm-1.673 2.289h-.396v-1.274h.396v1.274h-.001zm-.198-1.448a.23.23 0 0 1-.23-.23.23.23 0 0 1 .23-.229.23.23 0 0 1 .229.229.23.23 0 0 1-.229.23zm1.681 1.448h-.396v-.62c0-.148-.003-.338-.206-.338s-.238.161-.238.327v.631h-.396v-1.274h.38v.174h.005c.053-.1.182-.206.375-.206.401 0 .475.264.475.607v.699z"/></g><g clip-path="url(#C)"><rect x="14.1" y="41.288" width="7.833" height="7.833" rx=".801" class="B"/><g class="C"><path d="M19.717 44.239l.007-.209c-.003-1.016-.598-1.607-1.538-1.669-.819-.055-1.436.27-1.718.811-.095.182-.148.41-.169.657a1.67 1.67 0 0 0-.05.401h.003c-.127.025-.181.281-.128.575.048.27.17.48.283.495.144.385.37.76.65 1.033.158.155.334.277.522.352a1.09 1.09 0 0 0 .401.079c.137 0 .273-.028.401-.079.194-.078.376-.206.539-.369.273-.273.494-.641.635-1.02.108-.032.221-.234.268-.492.049-.282.002-.526-.107-.566zm-.182.604c-.025.143-.082.261-.14.312-.024.02-.048.029-.072.025-.013-.002-.025-.008-.036-.019-.13.404-.377.807-.689 1.051-.186.146-.396.236-.617.236s-.422-.086-.605-.226c-.318-.243-.57-.651-.702-1.061-.011.01-.023.016-.036.018-.027.005-.056-.008-.082-.036-.055-.056-.105-.166-.13-.3l-.004-.026.012-.274a.16.16 0 0 1 .047-.076c.008-.007.018-.01.028-.011.022-.004.046.005.069.023.008-.082.11-.749.752-.69 0 0 .563.207 1.075.025h.158c.212.008.357.118.51.188-.006-.07-.06-.141-.057-.188a.31.31 0 0 1 .068.029c.109.117.215.313.3.632l.002.002c.022-.017.045-.025.067-.021.086.038.116.202.082.388zm2.003 4.192h-7.042a3.8 3.8 0 0 1 .152-.906l.02-.065.027-.082.004-.01c.401-1.071 1.028-1.114 1.171-1.147.304-.071.672-.041.869-.102.023.193.584.827.951 1.225l.157-.616c-.117-.071-.143-.225-.143-.354h.604c0 .13-.025.286-.146.356l.159.614c.368-.397.929-1.032.951-1.225.197.061.566.031.869.102.143.034.77.075 1.17 1.142l.032.088.02.073a5.21 5.21 0 0 1 .162.797.85.85 0 0 1 .013.109z"/></g></g><rect x="14.32" y="41.509" width="7.393" height="7.393" rx=".581" class="D E"/><g class="C"><rect x="27.808" y="44.422" width="7.833" height="1.567" rx=".783"/><rect x="41.908" y="44.618" width="4.7" height="1.175" rx=".588"/><rect x="52.875" y="43.638" width="11.75" height="1.175" rx=".588"/><rect x="52.875" y="45.597" width="7.833" height="1.175" rx=".588"/><path d="M71.709 43.87h-2.098c-.076 0-.149.03-.202.084a.29.29 0 0 0-.084.202v2.098c0 .076.03.149.084.202a.29.29 0 0 0 .202.084h.818v-.908h-.376v-.427h.376v-.326c0-.37.221-.575.558-.575a2.28 2.28 0 0 1 .331.029v.364h-.186c-.184 0-.241.114-.241.231v.277h.41l-.066.427h-.344v.908h.818c.076 0 .149-.03.202-.084a.29.29 0 0 0 .084-.202v-2.098c0-.076-.03-.149-.084-.202a.29.29 0 0 0-.202-.084zm3.739 0H73.35c-.158 0-.286.128-.286.286v2.098c0 .158.128.286.286.286h2.098c.158 0 .286-.128.286-.286v-2.098c0-.158-.128-.286-.286-.286zm-.291.947l.001.051c0 .517-.393 1.112-1.112 1.112-.222 0-.427-.064-.6-.175a.82.82 0 0 0 .094.005.78.78 0 0 0 .485-.167.39.39 0 0 1-.365-.271.42.42 0 0 0 .176-.007.39.39 0 0 1-.313-.384v-.005a.39.39 0 0 0 .176.05.39.39 0 0 1-.174-.325.38.38 0 0 1 .053-.197 1.11 1.11 0 0 0 .806.409.39.39 0 0 1 .667-.357.79.79 0 0 0 .248-.094.39.39 0 0 1-.172.215.78.78 0 0 0 .225-.061.84.84 0 0 1-.196.203zm4.125-.947h-2.29c-.105 0-.19.086-.19.193v2.285c0 .106.085.192.19.192h2.29c.105 0 .191-.086.191-.192v-2.285c0-.106-.086-.193-.191-.193zm-1.673 2.289h-.396v-1.274h.396v1.274h-.001zm-.198-1.449a.23.23 0 1 1 0-.46.23.23 0 0 1 0 .46zm1.681 1.449h-.396v-.62c0-.148-.003-.338-.206-.338s-.238.161-.238.327v.631h-.396v-1.274h.38v.174h.005c.053-.1.182-.206.375-.206.401 0 .475.264.475.607v.699z"/></g><path fill="#8796a1" d="M10.967 28.363h72.067V39.33H10.967z"/><g clip-path="url(#D)"><rect x="14.1" y="29.93" width="7.833" height="7.833" rx=".801" class="B"/><g class="C"><path d="M19.717 32.881l.007-.209c-.003-1.016-.598-1.607-1.538-1.67-.819-.055-1.436.27-1.718.811-.095.182-.148.41-.169.657a1.67 1.67 0 0 0-.05.401h.003c-.127.025-.181.281-.128.575.048.27.17.48.283.495.144.385.37.76.65 1.033.158.155.334.277.522.352a1.1 1.1 0 0 0 .401.079 1.1 1.1 0 0 0 .401-.079 1.62 1.62 0 0 0 .539-.369c.273-.273.494-.641.635-1.02.108-.032.221-.234.268-.492.049-.282.002-.525-.107-.566zm-.182.604c-.025.143-.082.261-.14.312-.024.02-.048.029-.072.025-.013-.002-.025-.008-.036-.019-.13.404-.377.807-.689 1.051-.186.146-.396.236-.617.236s-.422-.086-.605-.226c-.318-.243-.57-.651-.702-1.061-.011.01-.023.016-.036.018-.027.005-.056-.008-.082-.036-.055-.056-.105-.166-.13-.3l-.004-.026.012-.274a.16.16 0 0 1 .047-.076c.008-.006.018-.01.028-.011.022-.004.046.005.069.023.008-.082.11-.749.752-.689 0 0 .563.207 1.075.024h.158c.212.008.357.118.51.188-.006-.07-.06-.141-.057-.188.024.007.047.017.068.029.109.117.215.313.3.632l.002.002c.022-.017.045-.025.067-.021.086.038.116.202.082.388zm2.003 4.192h-7.042a3.8 3.8 0 0 1 .152-.906l.02-.065.027-.082.004-.01c.401-1.071 1.028-1.114 1.171-1.147.304-.071.672-.041.869-.102.023.192.584.827.951 1.225l.157-.616c-.117-.071-.143-.225-.143-.354h.604c0 .13-.025.285-.146.356l.159.614c.368-.397.929-1.032.951-1.225.197.061.566.031.869.102.143.033.77.075 1.17 1.142l.032.088.02.073a5.21 5.21 0 0 1 .162.797.83.83 0 0 1 .013.109z"/></g></g><rect x="14.32" y="30.15" width="7.393" height="7.393" rx=".581" class="D E"/><g class="B"><rect x="27.808" y="33.063" width="7.833" height="1.567" rx=".783"/><rect x="41.908" y="33.259" width="4.7" height="1.175" rx=".588"/><rect x="52.875" y="31.888" width="11.75" height="1.175" rx=".588"/><rect x="52.875" y="34.63" width="7.833" height="1.175" rx=".588"/><path d="M71.709 32.511h-2.098c-.076 0-.149.03-.202.084a.29.29 0 0 0-.084.202v2.098c0 .076.03.149.084.202a.29.29 0 0 0 .202.084h.818v-.908h-.376v-.427h.376v-.326c0-.37.221-.575.558-.575a2.27 2.27 0 0 1 .331.029v.364h-.186c-.184 0-.241.114-.241.231v.277h.41l-.066.427h-.344v.908h.818c.076 0 .149-.03.202-.084a.29.29 0 0 0 .084-.202v-2.098c0-.076-.03-.149-.084-.202a.29.29 0 0 0-.202-.084zm3.739 0H73.35c-.158 0-.286.128-.286.286v2.098c0 .158.128.286.286.286h2.098c.158 0 .286-.128.286-.286v-2.098c0-.158-.128-.286-.286-.286zm-.291.947l.001.051c0 .517-.393 1.112-1.112 1.112-.222 0-.427-.064-.6-.175a.82.82 0 0 0 .094.005.78.78 0 0 0 .485-.167.39.39 0 0 1-.365-.271.42.42 0 0 0 .176-.007.39.39 0 0 1-.313-.384v-.005a.39.39 0 0 0 .176.049.39.39 0 0 1-.174-.325.38.38 0 0 1 .053-.197 1.11 1.11 0 0 0 .806.409.39.39 0 0 1 .667-.357c.088-.017.173-.049.248-.094a.39.39 0 0 1-.172.215.78.78 0 0 0 .225-.061.84.84 0 0 1-.196.203zm4.125-.947h-2.29c-.105 0-.19.086-.19.192v2.285c0 .106.085.193.19.193h2.29c.105 0 .191-.087.191-.193v-2.285c0-.106-.086-.192-.191-.192zM77.61 34.8h-.396v-1.275h.396V34.8h-.001zm-.198-1.449a.23.23 0 1 1 0-.46.23.23 0 0 1 0 .46zm1.681 1.449h-.396v-.62c0-.148-.003-.338-.206-.338s-.238.161-.238.327v.631h-.396v-1.275h.38v.174h.005c.053-.1.182-.206.375-.206.401 0 .475.264.475.607v.699z"/></g></g><rect x="11.358" y="11.522" width="71.283" height="39.95" rx="1.175" stroke-width=".783" class="D"/><defs><clipPath id="A"><rect x="10.967" y="11.13" width="72.067" height="40.733" rx="1.567" class="B"/></clipPath><clipPath id="B"><rect x="14.1" y="18.572" width="7.833" height="7.833" rx=".801" class="B"/></clipPath><clipPath id="C"><rect x="14.1" y="41.288" width="7.833" height="7.833" rx=".801" class="B"/></clipPath><clipPath id="D"><rect x="14.1" y="29.93" width="7.833" height="7.833" rx=".801" class="B"/></clipPath><path id="E" d="M21.538 26.319h-7.042c.016-.308.061-.6.152-.906l.02-.065.027-.082.004-.01c.401-1.071 1.028-1.114 1.171-1.147.304-.071.672-.041.869-.102.023.193.584.827.951 1.225l.157-.616c-.117-.071-.143-.225-.143-.354h.604c0 .13-.025.286-.146.356l.159.614c.368-.397.929-1.032.951-1.225.197.061.566.031.869.102.143.034.77.075 1.17 1.142l.032.088.02.073a5.21 5.21 0 0 1 .162.797.85.85 0 0 1 .013.109z"/></defs></svg>