<svg xmlns="http://www.w3.org/2000/svg" width="94" height="63" fill="none" ><style><![CDATA[.B{fill:#fff}.C{fill:#58707f}.D{stroke:#58707f}.E{stroke-width:.744}]]></style><rect x=".75" y=".75" width="92.5" height="61.5" rx="2.25" class="B"/><rect x=".75" y=".75" width="92.5" height="61.5" rx="2.25" stroke="#8796a1" stroke-width="1.5"/><g clip-path="url(#A)"><rect x="9.792" y="9.707" width="11.874" height="12.533" rx=".992" class="B"/><g class="C"><path d="M18.386 14.439l.01-.326c-.004-1.587-.935-2.51-2.403-2.608-1.28-.085-2.244.422-2.684 1.267-.148.284-.232.64-.264 1.026-.05.201-.078.411-.078.627h.005c-.198.04-.283.439-.2.899.075.422.266.75.442.774.224.602.578 1.187 1.016 1.614.247.242.523.433.816.551.201.079.412.124.627.124a1.71 1.71 0 0 0 .627-.124 2.51 2.51 0 0 0 .841-.576c.427-.427.773-1.002.992-1.594.168-.05.346-.366.418-.769.076-.44.002-.821-.167-.885zm-.284.944c-.04.223-.127.408-.219.487-.037.031-.075.046-.112.04-.02-.003-.04-.013-.056-.029-.203.631-.589 1.261-1.077 1.642-.291.228-.618.369-.964.369-.338 0-.659-.134-.945-.353-.497-.38-.891-1.017-1.097-1.657a.11.11 0 0 1-.056.028c-.042.008-.087-.013-.129-.056-.087-.087-.165-.26-.203-.469l-.006-.041.018-.428c.019-.053.042-.096.074-.119.013-.01.028-.015.043-.018.034-.006.071.008.107.036.013-.128.172-1.17 1.174-1.077 0 0 .88.324 1.68.038h.247c.332.013.558.185.797.295-.009-.11-.093-.221-.089-.295a.49.49 0 0 1 .106.045c.171.182.337.488.469.988l.004.003c.035-.027.07-.04.105-.033.009.001.017.004.026.008.108.052.155.309.103.599zm3.128 6.55H10.227a5.94 5.94 0 0 1 .237-1.415l.031-.102.042-.128.006-.014v-.001-.001c.626-1.673 1.606-1.739 1.83-1.791.476-.111 1.051-.064 1.358-.159.036.301.913 1.293 1.487 1.914l.245-.963c-.184-.111-.223-.352-.223-.553h.944c0 .203-.04.446-.228.556l.249.96c.575-.621 1.451-1.613 1.487-1.914.307.096.884.048 1.358.159.223.052 1.202.117 1.828 1.785l.05.138v.001l.032.112a8.14 8.14 0 0 1 .252 1.246 1.32 1.32 0 0 1 .02.171z"/></g></g><rect x="10.164" y="10.079" width="11.13" height="11.789" rx=".62" class="D E"/><g clip-path="url(#B)"><rect x="24.799" y="9.707" width="11.874" height="12.533" rx=".992" class="B"/><g class="C"><path d="M33.393 14.439l.01-.326c-.004-1.587-.934-2.51-2.403-2.608-1.28-.085-2.244.422-2.684 1.267-.148.284-.232.64-.264 1.026a2.61 2.61 0 0 0-.078.627h.005c-.198.04-.283.439-.2.899.075.422.266.75.442.774.224.602.578 1.187 1.016 1.614.247.242.523.433.816.551a1.71 1.71 0 0 0 .627.124 1.71 1.71 0 0 0 .627-.124 2.52 2.52 0 0 0 .841-.576c.427-.427.773-1.002.992-1.594.168-.05.346-.366.418-.769.076-.44.002-.821-.167-.885zm-.284.944c-.039.223-.127.408-.219.487-.037.031-.075.046-.112.04-.02-.003-.039-.013-.056-.029-.203.631-.589 1.261-1.077 1.642-.291.228-.618.369-.964.369-.338 0-.659-.134-.945-.353-.497-.38-.891-1.017-1.096-1.657a.11.11 0 0 1-.056.028c-.042.008-.087-.013-.129-.056-.087-.087-.164-.26-.203-.469l-.006-.041.018-.428c.019-.053.042-.096.074-.119.013-.01.028-.015.043-.018.034-.006.071.008.107.036.013-.128.172-1.17 1.174-1.077 0 0 .88.324 1.68.038h.247c.332.013.558.185.797.295-.009-.11-.093-.221-.089-.295.038.01.073.027.106.045.171.182.337.488.469.988l.004.003c.034-.027.07-.04.105-.033.009.001.017.004.026.008.108.052.156.309.103.599zm3.128 6.55H25.234a5.94 5.94 0 0 1 .237-1.415l.031-.102.042-.128.006-.014v-.001-.001c.626-1.673 1.607-1.739 1.83-1.791.476-.111 1.05-.064 1.358-.159.036.301.913 1.293 1.487 1.914l.245-.963c-.184-.111-.223-.352-.223-.553h.944c0 .203-.04.446-.228.556l.249.96c.575-.621 1.451-1.613 1.487-1.914.307.096.884.048 1.358.159.223.052 1.202.117 1.828 1.785l.05.138v.001l.032.112a8.14 8.14 0 0 1 .252 1.246c.011.057.017.115.02.171z"/></g></g><rect x="25.171" y="10.079" width="11.13" height="11.789" rx=".62" class="D E"/><g clip-path="url(#C)"><rect x="39.806" y="9.707" width="11.874" height="12.533" rx=".992" class="B"/><g class="C"><path d="M48.4 14.439l.01-.326c-.004-1.587-.934-2.51-2.403-2.608-1.28-.085-2.244.422-2.684 1.267-.148.284-.232.64-.264 1.026a2.61 2.61 0 0 0-.078.627h.005c-.198.04-.283.439-.2.899.075.422.267.75.443.774.224.602.578 1.187 1.016 1.614.247.242.523.433.816.551a1.71 1.71 0 0 0 .627.124 1.71 1.71 0 0 0 .627-.124c.303-.121.588-.321.842-.576.427-.427.773-1.002.992-1.594.168-.05.346-.366.418-.769.076-.44.003-.821-.167-.885zm-.284.944c-.039.223-.127.408-.219.487-.037.031-.075.046-.112.04-.02-.003-.039-.013-.056-.029-.203.631-.589 1.261-1.077 1.642-.291.228-.618.369-.964.369-.338 0-.659-.134-.945-.353-.497-.38-.891-1.017-1.096-1.657a.11.11 0 0 1-.056.028c-.042.008-.087-.013-.129-.056-.087-.087-.164-.26-.203-.469l-.006-.041.018-.428c.019-.053.042-.096.074-.119.013-.01.028-.015.043-.018.034-.006.071.008.107.036.013-.128.172-1.17 1.174-1.077 0 0 .88.324 1.68.038h.247c.331.013.559.185.797.295-.009-.11-.093-.221-.089-.295a.49.49 0 0 1 .106.045c.171.182.337.488.469.988l.004.003c.034-.027.07-.04.105-.033.009.001.017.004.026.008.108.052.156.309.103.599zm3.128 6.55H40.241a5.94 5.94 0 0 1 .237-1.415l.031-.102.042-.128.006-.014v-.001-.001c.626-1.673 1.606-1.739 1.83-1.791.476-.111 1.05-.064 1.358-.159.036.301.913 1.293 1.487 1.914l.245-.963c-.184-.111-.223-.352-.223-.553h.943c0 .203-.039.446-.228.556l.249.96c.575-.621 1.451-1.613 1.487-1.914.307.096.884.048 1.358.159.223.052 1.202.117 1.828 1.785l.05.138v.001l.032.112a8.14 8.14 0 0 1 .252 1.246 1.32 1.32 0 0 1 .02.171z"/></g></g><rect x="40.178" y="10.079" width="11.13" height="11.789" rx=".62" class="D E"/><g clip-path="url(#D)"><rect x="9.792" y="25.24" width="11.874" height="12.533" rx=".992" class="B"/><g class="C"><path d="M18.386 29.972l.01-.326c-.004-1.587-.935-2.511-2.403-2.609-1.28-.085-2.244.422-2.684 1.267-.148.284-.232.64-.264 1.026-.05.201-.078.411-.078.627h.005c-.198.04-.283.439-.2.899.075.422.266.75.442.774.224.602.578 1.187 1.016 1.614.247.242.523.434.816.551.201.079.412.124.627.124s.426-.045.627-.124a2.51 2.51 0 0 0 .841-.576c.427-.427.773-1.002.992-1.594.168-.05.346-.366.418-.769.076-.44.002-.821-.167-.885zm-.284.944c-.04.223-.127.408-.219.487-.037.031-.075.046-.112.04-.02-.003-.04-.013-.056-.029-.203.631-.589 1.261-1.077 1.642-.291.228-.618.368-.964.368-.338 0-.659-.134-.945-.353-.497-.38-.891-1.017-1.097-1.657a.11.11 0 0 1-.056.028c-.042.008-.087-.013-.129-.056-.087-.087-.165-.26-.203-.469l-.006-.041.018-.428c.019-.053.042-.096.074-.119.013-.01.028-.015.043-.018.034-.006.071.008.107.036.013-.128.172-1.17 1.174-1.077 0 0 .88.324 1.68.038h.247c.332.013.558.185.797.294-.009-.11-.093-.22-.089-.294a.49.49 0 0 1 .106.045c.171.182.337.488.469.988l.004.003c.035-.027.07-.04.105-.033.009.001.017.004.026.008.108.052.155.309.103.599zm3.128 6.55H10.227a5.93 5.93 0 0 1 .237-1.415l.031-.102.042-.127.006-.014v-.001-.001c.626-1.673 1.606-1.739 1.83-1.791.476-.111 1.051-.064 1.358-.159.036.301.913 1.293 1.487 1.914l.245-.963c-.184-.111-.223-.352-.223-.553h.944c0 .203-.04.446-.228.556l.249.96c.575-.621 1.451-1.613 1.487-1.914.307.096.884.048 1.358.159.223.052 1.202.117 1.828 1.785l.05.138v.001l.032.112a8.14 8.14 0 0 1 .252 1.246 1.32 1.32 0 0 1 .02.171z"/></g></g><rect x="10.164" y="25.612" width="11.13" height="11.789" rx=".62" class="D E"/><g clip-path="url(#E)"><rect x="24.799" y="25.24" width="11.874" height="12.533" rx=".992" class="B"/><g class="C"><path d="M33.393 29.972l.01-.326c-.004-1.587-.934-2.511-2.403-2.609-1.28-.085-2.244.422-2.684 1.267-.148.284-.232.64-.264 1.026a2.61 2.61 0 0 0-.078.627h.005c-.198.04-.283.439-.2.899.075.422.266.75.442.774.224.602.578 1.187 1.016 1.614.247.242.523.434.816.551.201.079.412.124.627.124s.426-.045.627-.124a2.52 2.52 0 0 0 .841-.576c.427-.427.773-1.002.992-1.594.168-.05.346-.366.418-.769.076-.44.002-.821-.167-.885zm-.284.944c-.039.223-.127.408-.219.487-.037.031-.075.046-.112.04-.02-.003-.039-.013-.056-.029-.203.631-.589 1.261-1.077 1.642-.291.228-.618.368-.964.368-.338 0-.659-.134-.945-.353-.497-.38-.891-1.017-1.096-1.657a.11.11 0 0 1-.056.028c-.042.008-.087-.013-.129-.056-.087-.087-.164-.26-.203-.469l-.006-.041.018-.428c.019-.053.042-.096.074-.119.013-.01.028-.015.043-.018.034-.006.071.008.107.036.013-.128.172-1.17 1.174-1.077 0 0 .88.324 1.68.038h.247c.332.013.558.185.797.294-.009-.11-.093-.22-.089-.294.038.01.073.027.106.045.171.182.337.488.469.988l.004.003c.034-.027.07-.04.105-.033.009.001.017.004.026.008.108.052.156.309.103.599zm3.128 6.55H25.234a5.94 5.94 0 0 1 .237-1.415l.031-.102.042-.127.006-.014v-.001-.001c.626-1.673 1.607-1.739 1.83-1.791.476-.111 1.05-.064 1.358-.159.036.301.913 1.293 1.487 1.914l.245-.963c-.184-.111-.223-.352-.223-.553h.944c0 .203-.04.446-.228.556l.249.96c.575-.621 1.451-1.613 1.487-1.914.307.096.884.048 1.358.159.223.052 1.202.117 1.828 1.785l.05.138v.001l.032.112a8.14 8.14 0 0 1 .252 1.246c.011.057.017.115.02.171z"/></g></g><rect x="25.171" y="25.612" width="11.13" height="11.789" rx=".62" class="D E"/><g clip-path="url(#F)"><rect x="39.806" y="25.24" width="11.874" height="12.533" rx=".992" class="B"/><g class="C"><path d="M48.4 29.972l.01-.326c-.004-1.587-.934-2.511-2.403-2.609-1.28-.085-2.244.422-2.684 1.267-.148.284-.232.64-.264 1.026a2.61 2.61 0 0 0-.078.627h.005c-.198.04-.283.439-.2.899.075.422.267.75.443.774.224.602.578 1.187 1.016 1.614.247.242.523.434.816.551.201.079.412.124.627.124s.426-.045.627-.124c.303-.121.588-.321.842-.576.427-.427.773-1.002.992-1.594.168-.05.346-.366.418-.769.076-.44.003-.821-.167-.885zm-.284.944c-.039.223-.127.408-.219.487-.037.031-.075.046-.112.04-.02-.003-.039-.013-.056-.029-.203.631-.589 1.261-1.077 1.642-.291.228-.618.368-.964.368-.338 0-.659-.134-.945-.353-.497-.38-.891-1.017-1.096-1.657a.11.11 0 0 1-.056.028c-.042.008-.087-.013-.129-.056-.087-.087-.164-.26-.203-.469l-.006-.041.018-.428c.019-.053.042-.096.074-.119.013-.01.028-.015.043-.018.034-.006.071.008.107.036.013-.128.172-1.17 1.174-1.077 0 0 .88.324 1.68.038h.247c.331.013.559.185.797.294-.009-.11-.093-.22-.089-.294a.49.49 0 0 1 .106.045c.171.182.337.488.469.988l.004.003c.034-.027.07-.04.105-.033.009.001.017.004.026.008.108.052.156.309.103.599zm3.128 6.55H40.241a5.93 5.93 0 0 1 .237-1.415l.031-.102.042-.127.006-.014v-.001-.001c.626-1.673 1.606-1.739 1.83-1.791.476-.111 1.05-.064 1.358-.159.036.301.913 1.293 1.487 1.914l.245-.963c-.184-.111-.223-.352-.223-.553h.943c0 .203-.039.446-.228.556l.249.96c.575-.621 1.451-1.613 1.487-1.914.307.096.884.048 1.358.159.223.052 1.202.117 1.828 1.785l.05.138v.001l.032.112a8.14 8.14 0 0 1 .252 1.246 1.32 1.32 0 0 1 .02.171z"/></g></g><rect x="40.178" y="25.612" width="11.13" height="11.789" rx=".62" class="D E"/><g clip-path="url(#G)"><rect x="9.792" y="40.773" width="11.874" height="12.533" rx=".992" class="B"/><g class="C"><path d="M18.386 45.505l.01-.326c-.004-1.587-.935-2.51-2.403-2.609-1.28-.085-2.244.422-2.684 1.267-.148.284-.232.64-.264 1.026-.05.201-.078.411-.078.627h.005c-.198.04-.283.439-.2.899.075.422.266.75.442.774.224.602.578 1.187 1.016 1.614.247.242.523.433.816.551.201.079.412.124.627.124s.426-.045.627-.124a2.51 2.51 0 0 0 .841-.576c.427-.427.773-1.002.992-1.594.168-.05.346-.366.418-.769.076-.44.002-.821-.167-.885zm-.284.943c-.04.223-.127.408-.219.487-.037.031-.075.046-.112.039-.02-.002-.04-.013-.056-.029-.203.631-.589 1.261-1.077 1.642-.291.228-.618.369-.964.369-.338 0-.659-.134-.945-.353-.497-.38-.891-1.017-1.097-1.657-.017.015-.036.026-.056.028-.042.008-.087-.013-.129-.056-.087-.087-.165-.26-.203-.469l-.006-.041.018-.428c.019-.054.042-.096.074-.119.013-.01.028-.015.043-.018.034-.006.071.008.107.036.013-.127.172-1.17 1.174-1.077 0 0 .88.324 1.68.038h.247c.332.013.558.185.797.295-.009-.11-.093-.221-.089-.295.038.01.073.027.106.045.171.182.337.488.469.988l.004.002c.035-.027.07-.039.105-.033.009.001.017.004.026.008.108.052.155.309.103.599zM21.23 53H10.227a5.93 5.93 0 0 1 .237-1.415l.031-.102.042-.128.006-.014v-.001-.001c.626-1.673 1.606-1.739 1.83-1.791.476-.111 1.051-.064 1.358-.159.036.301.913 1.293 1.487 1.914l.245-.963c-.184-.111-.223-.352-.223-.553h.944c0 .203-.04.446-.228.556l.249.96c.575-.621 1.451-1.613 1.487-1.914.307.096.884.048 1.358.159.223.052 1.202.117 1.828 1.785l.05.138v.001l.032.112a8.14 8.14 0 0 1 .252 1.246 1.32 1.32 0 0 1 .02.171z"/></g></g><rect x="10.164" y="41.145" width="11.13" height="11.789" rx=".62" class="D E"/><g clip-path="url(#H)"><rect x="24.799" y="40.773" width="11.874" height="12.533" rx=".992" class="B"/><g class="C"><path d="M33.393 45.505l.01-.326c-.004-1.587-.934-2.51-2.403-2.609-1.28-.085-2.244.422-2.684 1.267-.148.284-.232.64-.264 1.026a2.61 2.61 0 0 0-.078.627h.005c-.198.04-.283.439-.2.899.075.422.266.75.442.774.224.602.578 1.187 1.016 1.614.247.242.523.433.816.551.201.079.412.124.627.124s.426-.045.627-.124a2.52 2.52 0 0 0 .841-.576c.427-.427.773-1.002.992-1.594.168-.05.346-.366.418-.769.076-.44.002-.821-.167-.885zm-.284.943c-.039.223-.127.408-.219.487-.037.031-.075.046-.112.039-.02-.002-.039-.013-.056-.029-.203.631-.589 1.261-1.077 1.642-.291.228-.618.369-.964.369-.338 0-.659-.134-.945-.353-.497-.38-.891-1.017-1.096-1.657-.017.015-.036.026-.056.028-.042.008-.087-.013-.129-.056-.087-.087-.164-.26-.203-.469l-.006-.041.018-.428c.019-.054.042-.096.074-.119.013-.01.028-.015.043-.018.034-.006.071.008.107.036.013-.127.172-1.17 1.174-1.077 0 0 .88.324 1.68.038h.247c.332.013.558.185.797.295-.009-.11-.093-.221-.089-.295a.49.49 0 0 1 .106.045c.171.182.337.488.469.988l.004.002c.034-.027.07-.039.105-.033.009.001.017.004.026.008.108.052.156.309.103.599zM36.237 53H25.234a5.94 5.94 0 0 1 .237-1.415l.031-.102.042-.128.006-.014v-.001-.001c.626-1.673 1.607-1.739 1.83-1.791.476-.111 1.05-.064 1.358-.159.036.301.913 1.293 1.487 1.914l.245-.963c-.184-.111-.223-.352-.223-.553h.944c0 .203-.04.446-.228.556l.249.96c.575-.621 1.451-1.613 1.487-1.914.307.096.884.048 1.358.159.223.052 1.202.117 1.828 1.785l.05.138v.001l.032.112a8.14 8.14 0 0 1 .252 1.246c.011.057.017.115.02.171z"/></g></g><rect x="25.171" y="41.145" width="11.13" height="11.789" rx=".62" class="D E"/><g clip-path="url(#I)"><rect x="39.806" y="40.773" width="11.874" height="12.533" rx=".992" class="B"/><g class="C"><path d="M48.4 45.505l.01-.326c-.004-1.587-.934-2.51-2.403-2.609-1.28-.085-2.244.422-2.684 1.267-.148.284-.232.64-.264 1.026a2.61 2.61 0 0 0-.078.627h.005c-.198.04-.283.439-.2.899.075.422.267.75.443.774.224.602.578 1.187 1.016 1.614.247.242.523.433.816.551.201.079.412.124.627.124s.426-.045.627-.124c.303-.121.588-.321.842-.576.427-.427.773-1.002.992-1.594.168-.05.346-.366.418-.769.076-.44.003-.821-.167-.885zm-.284.943c-.039.223-.127.408-.219.487-.037.031-.075.046-.112.039-.02-.002-.039-.013-.056-.029-.203.631-.589 1.261-1.077 1.642-.291.228-.618.369-.964.369-.338 0-.659-.134-.945-.353-.497-.38-.891-1.017-1.096-1.657-.017.015-.036.026-.056.028-.042.008-.087-.013-.129-.056-.087-.087-.164-.26-.203-.469l-.006-.041.018-.428c.019-.054.042-.096.074-.119.013-.01.028-.015.043-.018.034-.006.071.008.107.036.013-.127.172-1.17 1.174-1.077 0 0 .88.324 1.68.038h.247c.331.013.559.185.797.295-.009-.11-.093-.221-.089-.295.038.01.073.027.106.045.171.182.337.488.469.988l.004.002c.034-.027.07-.039.105-.033.009.001.017.004.026.008.108.052.156.309.103.599zM51.244 53H40.241a5.93 5.93 0 0 1 .237-1.415l.031-.102.042-.128.006-.014v-.001-.001c.626-1.673 1.606-1.739 1.83-1.791.476-.111 1.05-.064 1.358-.159.036.301.913 1.293 1.487 1.914l.245-.963c-.184-.111-.223-.352-.223-.553h.943c0 .203-.039.446-.228.556l.249.96c.575-.621 1.451-1.613 1.487-1.914.307.096.884.048 1.358.159.223.052 1.202.117 1.828 1.785l.05.138v.001l.032.112a8.13 8.13 0 0 1 .252 1.246 1.32 1.32 0 0 1 .02.171z"/></g></g><rect x="40.178" y="41.145" width="11.13" height="11.789" rx=".62" class="D E"/><rect x="57.518" y="9.281" width="26.08" height="27.61" rx="1.211" class="B"/><rect x="57.518" y="9.281" width="26.08" height="27.61" rx="1.211" stroke-width="1.453" class="D"/><g class="C"><path d="M76.72 19.527l.024-.757c-.009-3.681-2.167-5.821-5.573-6.049-2.968-.198-5.203.979-6.223 2.939-.343.659-.538 1.484-.612 2.38a6.05 6.05 0 0 0-.18 1.455h.012c-.009.012-.018.012-.024.015-.435.077-.633 1.002-.441 2.07.174.979.618 1.738 1.026 1.795.52 1.395 1.339 2.752 2.356 3.743.574.562 1.212 1.005 1.892 1.277.467.183.955.287 1.455.287a3.97 3.97 0 0 0 1.455-.287c.704-.281 1.363-.745 1.951-1.336.99-.99 1.792-2.324 2.3-3.696.39-.115.801-.848.97-1.783.177-1.02.006-1.904-.387-2.052zm-.659 2.188c-.092.517-.296.946-.508 1.129-.086.071-.174.106-.26.092a.22.22 0 0 1-.13-.068c-.47 1.463-1.366 2.924-2.498 3.808-.674.529-1.434.854-2.235.854-.784 0-1.529-.311-2.191-.819-1.153-.881-2.066-2.359-2.542-3.843-.038.036-.083.059-.13.065-.098.018-.201-.03-.299-.13-.201-.201-.381-.603-.47-1.088l-.015-.095.041-.993c.044-.124.098-.222.172-.275.029-.024.065-.035.1-.041.08-.015.166.018.248.083v-.021c.03-.275.399-2.693 2.723-2.478 0 0 2.04.751 3.897.089h.574c.769.03 1.295.429 1.848.683-.021-.254-.216-.511-.207-.683.089.024.168.062.245.104.396.423.781 1.132 1.088 2.291l.009.006c.08-.062.163-.092.242-.077.021.003.038.009.059.018.251.121.361.715.239 1.39zm7.255 15.19H57.801a13.76 13.76 0 0 1 .55-3.282l.071-.236.097-.296c.009-.018.009-.021.012-.024l.003-.009v-.003-.003c1.452-3.879 3.725-4.033 4.243-4.154 1.103-.257 2.436-.148 3.149-.37.083.698 2.117 2.998 3.447 4.438l.568-2.232c-.426-.257-.517-.816-.517-1.283h2.188c0 .47-.092 1.035-.529 1.289l.577 2.226c1.333-1.44 3.364-3.74 3.447-4.438.713.222 2.049.112 3.149.37.517.121 2.788.272 4.24 4.139l.115.319v.003c.003.009.006.015.006.024l.068.237c.26.937.476 1.922.585 2.888a3.03 3.03 0 0 1 .047.396z"/><rect x="57.809" y="40.751" width="25.498" height="2.35" rx="1.175"/><rect x="62.632" y="44.667" width="15.853" height="1.958" rx=".979"/><path d="M66.138 49.759h-3.693a.5.5 0 0 0-.356.148c-.094.095-.147.222-.147.356v3.693c0 .133.053.262.147.356s.223.148.356.148h1.44v-1.598h-.661v-.752h.661v-.573c0-.652.388-1.012.983-1.012a3.97 3.97 0 0 1 .582.051v.64h-.328c-.323 0-.424.201-.424.406v.488h.722l-.115.752h-.606v1.598h1.44a.5.5 0 0 0 .356-.148c.094-.095.147-.223.147-.356v-3.693c0-.134-.053-.262-.147-.356s-.223-.148-.356-.148zm6.267 0h-3.693c-.278 0-.504.226-.504.504v3.693c0 .278.225.504.504.504h3.693c.278 0 .504-.226.504-.504v-3.693c0-.278-.226-.504-.504-.504zm-.513 1.666l.002.089c0 .91-.692 1.958-1.958 1.958a1.95 1.95 0 0 1-1.056-.308 1.45 1.45 0 0 0 .166.008 1.38 1.38 0 0 0 .854-.294.69.69 0 0 1-.643-.477.73.73 0 0 0 .311-.013.69.69 0 0 1-.551-.676v-.008a.69.69 0 0 0 .311.087c-.094-.063-.172-.148-.225-.248s-.081-.212-.081-.325a.68.68 0 0 1 .093-.347c.339.418.848.69 1.418.72a.69.69 0 0 1 1.174-.629 1.35 1.35 0 0 0 .436-.166.68.68 0 0 1-.302.379 1.37 1.37 0 0 0 .397-.107c-.093.138-.211.259-.345.357zm6.947-1.666h-4.03c-.185 0-.335.152-.335.339v4.022c0 .187.15.339.335.339h4.03c.185 0 .336-.152.336-.339v-4.022c0-.187-.151-.339-.336-.339zm-2.944 4.029h-.697v-2.243h.698v2.243h-.001zm-.348-2.549c-.224 0-.404-.181-.404-.404s.18-.404.404-.404.404.181.404.404-.18.404-.404.404zm2.959 2.549h-.697v-1.091c0-.26-.005-.595-.362-.595-.363 0-.418.283-.418.576v1.11h-.697v-2.243H77v.306h.01c.093-.176.321-.362.66-.362.705 0 .836.465.836 1.069v1.229z"/></g><defs><clipPath id="A"><rect x="9.792" y="9.707" width="11.874" height="12.533" rx=".992" class="B"/></clipPath><clipPath id="B"><rect x="24.799" y="9.707" width="11.874" height="12.533" rx=".992" class="B"/></clipPath><clipPath id="C"><rect x="39.806" y="9.707" width="11.874" height="12.533" rx=".992" class="B"/></clipPath><clipPath id="D"><rect x="9.792" y="25.24" width="11.874" height="12.533" rx=".992" class="B"/></clipPath><clipPath id="E"><rect x="24.799" y="25.24" width="11.874" height="12.533" rx=".992" class="B"/></clipPath><clipPath id="F"><rect x="39.806" y="25.24" width="11.874" height="12.533" rx=".992" class="B"/></clipPath><clipPath id="G"><rect x="9.792" y="40.773" width="11.874" height="12.533" rx=".992" class="B"/></clipPath><clipPath id="H"><rect x="24.799" y="40.773" width="11.874" height="12.533" rx=".992" class="B"/></clipPath><clipPath id="I"><rect x="39.806" y="40.773" width="11.874" height="12.533" rx=".992" class="B"/></clipPath></defs></svg>