<?xml version="1.0" encoding="iso-8859-1"?>
<!-- Generator: Adobe Illustrator 19.0.0, SVG Export Plug-In . SVG Version: 6.00 Build 0)  -->
<svg version="1.1" id="Layer_1" xmlns="http://www.w3.org/2000/svg" xmlns:xlink="http://www.w3.org/1999/xlink" x="0px" y="0px"
	 viewBox="0 0 280.028 280.028" style="enable-background:new 0 0 280.028 280.028;" xml:space="preserve">
<g>
	<path style="fill:#516873;" d="M48.131,0H39.38c-4.83,0-8.751,3.912-8.751,8.751v262.526c0,4.839,3.92,8.751,8.751,8.751h8.751
		c4.83,0,8.751-3.912,8.751-8.751V8.742C56.882,3.912,52.961,0,48.131,0z M144.39,0h-8.751c-4.83,0-8.751,3.912-8.751,8.751v262.526
		c0,4.839,3.92,8.751,8.751,8.751h8.751c4.839,0,8.751-3.912,8.751-8.751V8.742C153.141,3.912,149.229,0,144.39,0z M240.648,0
		h-8.751c-4.839,0-8.751,3.912-8.751,8.751v262.526c0,4.839,3.912,8.751,8.751,8.751h8.751c4.839,0,8.751-3.912,8.751-8.751V8.742
		C249.4,3.912,245.489,0,240.648,0z"/>
	<path style="fill:#FFFFFF;" d="M43.755,69.998c-21.746,0-39.379,17.642-39.379,39.379c0,21.746,17.633,39.379,39.379,39.379
		s39.379-17.633,39.379-39.379C83.134,87.64,65.501,69.998,43.755,69.998z M140.015,148.756c-21.746,0-39.379,17.65-39.379,39.379
		c0,21.746,17.633,39.379,39.379,39.379c21.737,0,39.379-17.633,39.379-39.379C179.394,166.397,161.752,148.756,140.015,148.756z
		 M236.273,69.998c-21.737,0-39.379,17.642-39.379,39.379c0,21.746,17.642,39.379,39.379,39.379s39.379-17.633,39.379-39.379
		C275.653,87.64,258.01,69.998,236.273,69.998z"/>
	<g>
		<path style="fill:#EFC75E;" d="M236.273,69.998c-21.737,0-39.379,17.642-39.379,39.379c0,21.746,17.642,39.379,39.379,39.379
			s39.379-17.633,39.379-39.379C275.653,87.64,258.01,69.998,236.273,69.998z M236.273,135.629
			c-14.474,0-26.253-11.779-26.253-26.253s11.779-26.253,26.253-26.253s26.253,11.779,26.253,26.253
			S250.747,135.629,236.273,135.629z M140.015,148.756c-21.746,0-39.379,17.65-39.379,39.379c0,21.746,17.633,39.379,39.379,39.379
			c21.737,0,39.379-17.633,39.379-39.379C179.394,166.397,161.752,148.756,140.015,148.756z M140.015,214.387
			c-14.474,0-26.253-11.779-26.253-26.253c0-14.465,11.779-26.253,26.253-26.253s26.253,11.787,26.253,26.253
			C166.267,202.609,154.489,214.387,140.015,214.387z M43.755,69.998c-21.746,0-39.379,17.642-39.379,39.379
			c0,21.746,17.633,39.379,39.379,39.379s39.379-17.633,39.379-39.379C83.134,87.64,65.501,69.998,43.755,69.998z M43.755,135.629
			c-14.474,0-26.253-11.779-26.253-26.253s11.779-26.252,26.253-26.252s26.253,11.779,26.253,26.253S58.229,135.629,43.755,135.629z
			"/>
	</g>
</g>
<g>
</g>
<g>
</g>
<g>
</g>
<g>
</g>
<g>
</g>
<g>
</g>
<g>
</g>
<g>
</g>
<g>
</g>
<g>
</g>
<g>
</g>
<g>
</g>
<g>
</g>
<g>
</g>
<g>
</g>
</svg>
