<svg width="92" height="100" viewBox="0 0 92 100" fill="none" xmlns="http://www.w3.org/2000/svg">
<path d="M86.7085 35.8209L22.9499 29.8507H21.8248L19.1994 17.5373C19.1994 17.1642 19.1994 17.1642 18.8244 16.791C18.8244 15.6716 18.0743 14.9254 16.9491 14.5522L4.94752 10.8209C2.69721 10.4478 0.821962 11.5672 0.0718603 13.4328C-0.30319 15.2985 0.821962 17.5373 2.69721 17.9104L12.8236 20.8955L25.2003 79.4776C25.5753 81.3433 27.0755 82.4627 28.5757 82.4627H81.0828C82.958 82.4627 84.4582 80.9701 84.4582 79.1045C84.4582 77.2388 82.958 75.7463 81.0828 75.7463H31.5761L30.0759 67.5373H82.2079C84.8333 67.5373 87.4587 65.6716 87.8337 63.4328L91.9593 42.1642C92.3343 38.806 90.084 36.194 86.7085 35.8209ZM44.3278 54.4776C44.3278 55.2239 43.5777 55.9701 42.8276 55.9701H37.2019C36.4518 55.9701 35.7017 55.2239 35.7017 54.4776V45.5224C35.7017 44.7761 36.4518 44.0299 37.2019 44.0299H42.8276C43.5777 44.0299 44.3278 44.7761 44.3278 45.5224V54.4776ZM58.9548 54.4776C58.9548 55.2239 58.2047 55.9701 57.4546 55.9701H51.8288C51.0787 55.9701 50.3286 55.2239 50.3286 54.4776V45.5224C50.3286 44.7761 51.0787 44.0299 51.8288 44.0299H57.4546C58.2047 44.0299 58.9548 44.7761 58.9548 45.5224V54.4776ZM73.5818 54.4776C73.5818 55.2239 72.8317 55.9701 72.0816 55.9701H66.4558C65.7057 55.9701 64.9556 55.2239 64.9556 54.4776V45.5224C64.9556 44.7761 65.7057 44.0299 66.4558 44.0299H72.0816C72.8317 44.0299 73.5818 44.7761 73.5818 45.5224V54.4776Z" fill="#E5BEFE"/>
<path d="M38.7021 100C42.6376 100 45.828 96.8259 45.828 92.9105C45.828 88.995 42.6376 85.8209 38.7021 85.8209C34.7665 85.8209 31.5761 88.995 31.5761 92.9105C31.5761 96.8259 34.7665 100 38.7021 100Z" fill="#E5BEFE"/>
<path d="M72.4567 100C76.3922 100 79.5826 96.8259 79.5826 92.9105C79.5826 88.995 76.3922 85.8209 72.4567 85.8209C68.5211 85.8209 65.3307 88.995 65.3307 92.9105C65.3307 96.8259 68.5211 100 72.4567 100Z" fill="#E5BEFE"/>
<path d="M32.7013 27.2388H33.4514L36.0767 27.6119L46.2031 28.3582L46.5781 24.2537C46.9532 19.0299 51.8289 14.9254 57.0796 15.6716C62.7053 16.0448 66.4558 20.8955 66.0808 26.1194L65.7057 30.2239L76.2071 31.3433L79.5826 31.7164C80.7077 31.7164 81.8329 30.9702 81.8329 29.8507L82.208 26.4925C82.208 25.3731 81.4579 24.2537 80.3327 24.2537L76.9572 23.8806C76.5822 21.2687 75.8321 18.6567 74.7069 16.4179L76.9572 13.4328C77.1973 13.2756 77.4003 13.0684 77.5521 12.8256C77.7039 12.5828 77.801 12.3101 77.8366 12.0263C77.8723 11.7426 77.8457 11.4545 77.7586 11.182C77.6715 10.9095 77.5261 10.659 77.3323 10.4478L75.082 7.83583C74.9239 7.59698 74.7157 7.39507 74.4716 7.24403C74.2276 7.09299 73.9535 6.9964 73.6683 6.96094C73.3831 6.92547 73.0935 6.95196 72.8196 7.03858C72.5457 7.1252 72.2939 7.2699 72.0816 7.46269L69.4562 9.7015C67.2059 8.20896 64.9556 6.71643 62.3303 5.97016L62.7053 2.61195C62.7053 1.49255 61.9552 0.373142 60.8301 0.373142L57.4546 7.62939e-06C56.3295 7.62939e-06 55.2043 0.746276 55.2043 1.86568L54.8293 5.22389C52.2039 5.59702 49.5786 6.34329 47.3283 7.46269L45.0779 4.85075C44.9199 4.61191 44.7117 4.41 44.4676 4.25896C44.2235 4.10792 43.9494 4.01133 43.6642 3.97586C43.379 3.94039 43.0895 3.96688 42.8155 4.05351C42.5416 4.14013 42.2898 4.28483 42.0775 4.47762L39.4522 6.71643C39.2121 6.87367 39.0092 7.08084 38.8574 7.32366C38.7055 7.56648 38.6085 7.83917 38.5728 8.12292C38.5372 8.40668 38.5638 8.69475 38.6508 8.96727C38.7379 9.2398 38.8834 9.4903 39.0771 9.7015L41.3274 12.3134C39.8272 14.5522 38.327 16.791 37.5769 19.403L33.4514 19.0299C32.3262 19.0299 31.2011 19.7761 31.2011 20.8955L30.451 24.6269C30.451 26.1194 31.2011 26.8657 32.7013 27.2388Z" fill="#E5BEFE"/>
</svg>
