<?xml version="1.0" encoding="UTF-8" standalone="no"?>
<svg
   xmlns:dc="http://purl.org/dc/elements/1.1/"
   xmlns:cc="http://creativecommons.org/ns#"
   xmlns:rdf="http://www.w3.org/1999/02/22-rdf-syntax-ns#"
   xmlns:svg="http://www.w3.org/2000/svg"
   xmlns="http://www.w3.org/2000/svg"
   xmlns:xlink="http://www.w3.org/1999/xlink"
   xmlns:sodipodi="http://sodipodi.sourceforge.net/DTD/sodipodi-0.dtd"
   xmlns:inkscape="http://www.inkscape.org/namespaces/inkscape"
   width="500mm"
   height="500mm"
   viewBox="0 0 500 500"
   version="1.1"
   id="svg58"
   inkscape:version="1.0.2-2 (e86c870879, 2021-01-15)"
   sodipodi:docname="icon.svg">
  <animateTransform
     attributeName="transform"
     xlink:href="#pi-line-4"
     attributeType="XML"
     type="rotate"
     from="0 312 113"
     to="220 312 113"
     dur="4s"
     begin="0; anim2.end + 0.1s"
     fill="freeze"
     id="anim1" />
  <animateTransform
     attributeName="transform"
     xlink:href="#pi-line-4"
     attributeType="XML"
     type="rotate"
     to="0 312 113"
     from="220 312 113"
     dur="4s"
     begin="anim1.end + 0.1s"
     fill="freeze"
     id="anim2" />
  <animate
     xlink:href="#circle944"
     attributeName="r"
     to="20"
     dur="0.5s"
     begin="0"
     repeatCount="indefinite" />
  <animate
     xlink:href="#circle946"
     attributeName="r"
     to="20"
     dur="0.5s"
     begin="0"
     repeatCount="indefinite" />
  <animate
     xlink:href="#circle946"
     attributeName="fill"
     to="#ffffff"
     dur="0.5s"
     begin="0"
     repeatCount="indefinite" />
  <animate
     xlink:href="#circle948"
     attributeName="r"
     to="20"
     dur="0.5s"
     begin="0"
     repeatCount="indefinite" />
  <animate
     xlink:href="#circle948"
     attributeName="fill"
     to="#ffffff"
     dur="0.5s"
     begin="0"
     repeatCount="indefinite" />
  <animate
     xlink:href="#circle950"
     attributeName="r"
     to="20"
     dur="0.5s"
     begin="0"
     repeatCount="indefinite" />
  <animate
     xlink:href="#circle950"
     attributeName="fill"
     to="#ffffff"
     dur="0.5s"
     begin="0"
     repeatCount="indefinite" />
  <animate
     xlink:href="#circle952"
     attributeName="r"
     to="20"
     dur="0.5s"
     begin="0"
     repeatCount="indefinite" />
  <animate
     xlink:href="#circle952"
     attributeName="fill"
     to="#ffffff"
     dur="0.5s"
     begin="0"
     repeatCount="indefinite" />
  <animate
     xlink:href="#circle954"
     attributeName="r"
     to="20"
     dur="0.5s"
     begin="0"
     repeatCount="indefinite" />
  <animate
     xlink:href="#circle954"
     attributeName="fill"
     to="#ffffff"
     dur="0.5s"
     begin="0"
     repeatCount="indefinite" />
  <animate
     xlink:href="#circle956"
     attributeName="r"
     to="20"
     dur="0.5s"
     begin="0"
     repeatCount="indefinite" />
  <animate
     xlink:href="#circle956"
     attributeName="fill"
     to="#ffffff"
     dur="0.5s"
     begin="0"
     repeatCount="indefinite" />
  <animate
     xlink:href="#circle958"
     attributeName="r"
     to="20"
     dur="0.5s"
     begin="0"
     repeatCount="indefinite" />
  <animate
     xlink:href="#circle958"
     attributeName="fill"
     to="#ffffff"
     dur="0.5s"
     begin="0"
     repeatCount="indefinite" />
  <animate
     xlink:href="#circle960"
     attributeName="r"
     to="20"
     dur="0.5s"
     begin="0"
     repeatCount="indefinite" />
  <animate
     xlink:href="#circle960"
     attributeName="fill"
     to="#ffffff"
     dur="0.5s"
     begin="0"
     repeatCount="indefinite" />
  <defs
     id="defs52">
    <rect
       x="149.67857"
       y="370.41667"
       width="293.30952"
       height="74.083333"
       id="rect93" />
  </defs>
  <sodipodi:namedview
     id="base"
     pagecolor="#ffffff"
     bordercolor="#666666"
     borderopacity="1.0"
     inkscape:pageopacity="0.0"
     inkscape:pageshadow="2"
     inkscape:zoom="0.35"
     inkscape:cx="788.06626"
     inkscape:cy="842.96901"
     inkscape:document-units="mm"
     inkscape:current-layer="layer1"
     inkscape:document-rotation="0"
     showgrid="false"
     inkscape:window-width="1366"
     inkscape:window-height="741"
     inkscape:window-x="-9"
     inkscape:window-y="-9"
     inkscape:window-maximized="1"
     showguides="true"
     inkscape:guide-bbox="true">
    <sodipodi:guide
       position="312.08313,386.98763"
       orientation="1,0"
       id="guide186" />
  </sodipodi:namedview>
  <metadata
     id="metadata55">
    <rdf:RDF>
      <cc:Work
         rdf:about="">
        <dc:format>image/svg+xml</dc:format>
        <dc:type
           rdf:resource="http://purl.org/dc/dcmitype/StillImage" />
        <dc:title />
      </cc:Work>
    </rdf:RDF>
  </metadata>
  <g
     inkscape:label="Layer 1"
     inkscape:groupmode="layer"
     id="layer1">
    <g
       id="g342"
       transform="matrix(0.26458333,0,0,0.26458333,50.497621,286.46022)">
      <g
         id="g368"
         transform="translate(-315.71429,270)">
        <g
           id="g892"
           transform="translate(-94.285715,-8.5714287)">
          <g
             id="g394"
             transform="matrix(4.4997592,0,0,4.4997592,-102.7111,-3058.8606)">
            <path
               d="M 220.64,748.89 C 220.81,752.89 218.28,756.4 215.87,759.57 A 38.9,38.9 0 0 0 212.94,764.24 C 210.32,768.9 204.69,771.12 201.64,775.52 200.91,776.59 200.34,777.76 199.69,778.89 A 44.78,44.78 0 0 1 191.46,789.34 L 186,794.5 A 17.5,17.5 0 0 0 181.9,799.41 15.94,15.94 0 0 0 180.84,806.68 V 807.5 C 180.84,807.69 180.84,807.87 180.84,808.06 A 41.61,41.61 0 0 0 181.84,817.06 4.49,4.49 0 0 1 182,819.9 3.69,3.69 0 0 1 179.57,821.72 5.14,5.14 0 0 1 176.25,821.94 5.64,5.64 0 0 1 173.77,819.72 C 170.55,815.3 169.25,809.83 167.33,804.72 A 3.38,3.38 0 0 1 168.07,801.54 18.25,18.25 0 0 1 170.58,799.25 C 174.38,795.93 176.15,790.92 177.58,786.09 179.01,781.26 180.43,776.21 183.75,772.42 185.9,769.96 188.75,768.19 191.13,765.98 197.13,760.44 200.13,752.37 201.65,744.37 A 16,16 0 0 1 207.22,744.3 L 217.04,745.6 A 4.45,4.45 0 0 1 219.96,746.75 3.53,3.53 0 0 1 220.64,748.89 Z"
               transform="translate(-88,-46.98)"
               fill="#efb7b9"
               id="path182" />
            <path
               d="M 262.57,757 A 10.47,10.47 0 0 1 261.04,761.17 37.51,37.51 0 0 1 257.04,766.29 C 253.29,770.6 252.65,776.73 250.26,781.92 249.49,783.6 248.52,785.19 247.74,786.92 245.68,791.33 244.92,796.18 244.47,801.06 244.42,801.68 244.36,802.31 244.32,802.94 244.28,803.57 244.2,804.49 244.14,805.26 243.99,807.26 243.86,809.45 244.72,811.26 245.17,812.26 245.89,813 245.92,814.05 244.44,815.49 241.92,815.32 240.2,814.16 A 11.37,11.37 0 0 1 236.57,809.23 45.55,45.55 0 0 1 233.16,798.41 C 232.9,797 232.78,795.33 233.8,794.31 A 15.68,15.68 0 0 1 235.59,793.09 C 236.84,792.09 237.2,790.39 237.48,788.82 Q 238.92,780.73 240.37,772.65 A 36.94,36.94 0 0 1 241.22,768.73 C 242.04,765.84 243.29,762.62 245.63,760.73 A 2.43,2.43 0 0 0 246.37,758.5 6.87,6.87 0 0 0 245.45,756.23 C 243.71,753.11 241.62,749.97 238.45,748.23 A 35.93,35.93 0 0 1 249.45,741.94 4.26,4.26 0 0 1 251.71,741.55 3.89,3.89 0 0 1 252.89,742.02 20.1,20.1 0 0 1 258.28,747.02 C 260.61,749.94 263,753.31 262.57,757 Z"
               transform="translate(-88,-46.98)"
               fill="#efb7b9"
               id="path184" />
            <path
               d="M 186.14,820.77 A 11.51,11.51 0 0 0 182.81,818.56 2.25,2.25 0 0 0 181.91,818.25 C 181.14,818.25 180.56,818.91 179.91,819.25 A 3.68,3.68 0 0 1 176.41,819.25 7.21,7.21 0 0 1 173.81,816.76 C 172.41,814.69 172.13,812.63 171.55,810.36 L 177.66,809.21 A 13.26,13.26 0 0 0 180.85,808.01 C 180.85,807.82 180.85,807.64 180.85,807.45 V 806.63 C 179.72,806.96 177.33,808.07 176.76,808.2 A 43.79,43.79 0 0 1 171.18,809.09 C 170.89,808.51 170.47,808.01 170.18,807.44 A 9.32,9.32 0 0 1 168.9,803.72 4.63,4.63 0 0 0 168.6,802.19 1.2,1.2 0 0 0 167.36,801.44 1.49,1.49 0 0 0 166.81,801.71 10.67,10.67 0 0 0 162.99,806.49 C 161.85,809.35 161.99,812.55 161.56,815.6 161.21,817.89 160.51,820.16 160.63,822.47 A 0.62,0.62 0 0 0 160.73,822.82 0.65,0.65 0 0 0 161.11,823 C 162.38,823.28 163.85,823.53 164.88,822.74 165.91,821.95 166.06,820.45 166.26,819.15 A 17.66,17.66 0 0 1 167.81,814.15 10.32,10.32 0 0 1 170.13,821.01 C 170.13,822.38 169.97,823.95 170.91,824.95 A 3.9,3.9 0 0 0 172.55,825.89 16.59,16.59 0 0 0 176.43,826.73 32.74,32.74 0 0 0 183.62,826.36 C 184.37,826.27 185.13,826.17 185.87,826.01 A 2.63,2.63 0 0 0 186.93,825.57 2,2 0 0 0 187.55,824.36 4.42,4.42 0 0 0 186.14,820.77 Z"
               transform="translate(-88,-46.98)"
               fill="#464353"
               id="path186" />
            <path
               d="M 249.12,813.12 A 7.6,7.6 0 0 0 247.12,811.83 4.37,4.37 0 0 0 245.19,811.19 5.9,5.9 0 0 0 242.99,811.86 2.64,2.64 0 0 1 240.75,811.96 3,3 0 0 1 239.64,810.38 C 238.78,808.38 238.14,806.2 237.39,804.12 A 1.52,1.52 0 0 1 238.13,803.51 2,2 0 0 1 238.85,803.42 21.15,21.15 0 0 0 244.24,802.89 C 244.24,802.26 244.34,801.63 244.39,801.01 A 10.68,10.68 0 0 0 240.62,801.33 5.88,5.88 0 0 1 237.95,801.7 C 237.33,801.57 236.74,801.19 236.14,801.11 235.86,800.58 235.55,800.11 235.25,799.55 234.5,798.22 234.25,796.67 233.53,795.37 A 1.45,1.45 0 0 0 232.35,794.58 2,2 0 0 0 231.01,795.37 14.26,14.26 0 0 0 227.85,799.47 12.13,12.13 0 0 0 227.17,801.69 54.15,54.15 0 0 0 225.74,814.69 8.13,8.13 0 0 0 229.17,815.02 Q 230.06,810.6 231.34,806.27 A 0.41,0.41 0 0 1 231.5,806 C 231.69,805.9 231.88,806.1 231.99,806.28 A 22.17,22.17 0 0 1 234.5,811.28 13.76,13.76 0 0 0 235.79,814.98 5.71,5.71 0 0 0 238.98,817.14 16.48,16.48 0 0 0 242.88,817.64 L 244.88,817.74 A 8.14,8.14 0 0 0 248.03,817.5 2.82,2.82 0 0 0 250.03,815.24 2.77,2.77 0 0 0 249.12,813.12 Z"
               transform="translate(-88,-46.98)"
               fill="#464353"
               id="path188" />
            <path
               d="M 258.28,745.53 A 6.22,6.22 0 0 1 255.19,746.93 L 251.8,747.76 A 1.39,1.39 0 0 0 250.8,748.29 C 250.61,748.65 250.74,749.09 250.65,749.48 A 1,1 0 0 1 250.44,749.9 2.48,2.48 0 0 1 248.69,750.52 4.44,4.44 0 0 0 247.05,750.77 1.32,1.32 0 0 0 246.5,751.21 C 246.33,751.46 246.25,751.77 246.07,752 A 1.93,1.93 0 0 1 244.9,752.61 9.61,9.61 0 0 1 243.49,752.83 10.47,10.47 0 0 1 238.01,751.83 1.92,1.92 0 0 0 236.64,751.5 1.35,1.35 0 0 0 235.96,752.05 8.64,8.64 0 0 1 235.39,752.83 C 234.52,753.77 233,753.52 231.75,753.26 230.97,753.09 230.19,752.95 229.41,752.82 A 106.11,106.11 0 0 0 215.24,751.82 C 209.09,751.63 202.95,751.46 197.01,750.01 195.71,749.7 194.14,749.01 194.21,747.62 194.21,746.86 194.85,746.21 194.85,745.45 194.85,744.16 193.26,743.45 191.99,743.25 192.45,736.17 196.7,729.98 198.91,723.25 199.46,721.58 199.91,719.87 200.49,718.25 203.18,710.81 209.1,705.09 214.02,698.89 A 11.31,11.31 0 0 0 215.86,695.99 12.57,12.57 0 0 0 216.51,692.08 L 216.78,687.41 A 82.69,82.69 0 0 1 238.32,688.75 2,2 0 0 1 239.55,689.36 1.9,1.9 0 0 1 239.82,690.18 C 240.1,691.88 240.29,693.6 240.4,695.32 A 4.66,4.66 0 0 0 240.56,696.44 4.78,4.78 0 0 0 241.34,697.71 C 245.51,703 248,709.47 250,716 252,722.53 253.59,729.17 256.11,735.51 256.97,737.7 258.11,740.16 258.33,742.51 A 2.14,2.14 0 0 1 258.28,745.53 Z"
               transform="translate(-88,-46.98)"
               fill="#464353"
               id="path190" />
            <path
               d="M 229.45,752.79 A 106.11,106.11 0 0 0 215.28,751.79 L 215.67,738.64 C 215.76,735.73 215.85,732.81 216.2,729.92 216.69,725.81 217.69,721.77 218.2,717.67 A 54.41,54.41 0 0 0 218.59,710.57 42.42,42.42 0 0 1 218.79,703.35 C 219.12,701.35 219.97,698.62 221.79,697.55 223,699.2 221.14,703.83 220.93,705.81 220.48,709.94 221.59,714.05 222.55,718.08 223.7,722.92 224.64,727.81 225.55,732.7 Q 227.52,742.72 229.45,752.79 Z"
               transform="translate(-88,-46.98)"
               opacity="0.1"
               id="path192" />
            <path
               d="M 243.53,752.83 A 10.47,10.47 0 0 1 238.05,751.83 1.92,1.92 0 0 0 236.68,751.5 1.35,1.35 0 0 0 236,752.05 C 234.39,744.41 234.48,736.45 233.2,728.73 232.75,725.97 232.12,723.16 232.65,720.43 233.22,717.5 235.07,714.96 235.79,712.07 A 22.6,22.6 0 0 0 236.19,706.26 13.83,13.83 0 0 0 234.95,701.26 C 236.64,701.54 238.02,703.2 238.7,704.7 A 16.08,16.08 0 0 1 239.8,710.59 C 240.07,715.45 240.11,720.3 240.04,725.16 A 54.89,54.89 0 0 0 240.19,731.95 C 240.44,734.18 240.99,736.36 241.19,738.59 241.4,741.27 241.09,744.01 241.74,746.59 242.24,748.67 243.38,750.77 243.53,752.83 Z"
               transform="translate(-88,-46.98)"
               opacity="0.1"
               id="path194" />
            <path
               d="M 250.48,749.9 A 2.48,2.48 0 0 1 248.73,750.52 4.44,4.44 0 0 0 247.09,750.77 L 244.27,733.35 A 59.07,59.07 0 0 1 243.46,726.89 C 243.34,724.38 243.53,721.89 243.36,719.36 A 54,54 0 0 0 241.63,710.29 C 241.19,708.52 239.19,703.22 240.31,701.72 242.06,702.85 243.13,705.27 243.72,707.21 A 35.13,35.13 0 0 1 244.88,714.07 Q 245.54,720.77 246.22,727.5 C 246.96,734.94 247.73,742.5 250.32,749.5 250.38,749.62 250.43,749.76 250.48,749.9 Z"
               transform="translate(-88,-46.98)"
               opacity="0.1"
               id="path196" />
            <path
               d="M 265.22,667.45 C 266.47,666.39 267.73,665.32 268.89,664.15 A 50.55,50.55 0 0 0 273.38,658.65 28.35,28.35 0 0 0 277.17,652.34 C 278.17,649.71 278.51,646.72 280.29,644.54 A 1.85,1.85 0 0 1 281.1,643.91 C 282.1,643.59 282.87,644.91 283.1,645.91 284.05,651.06 281.79,656.2 279.58,660.91 A 13.82,13.82 0 0 1 276.82,665.27 25.48,25.48 0 0 1 274.65,666.94 23,23 0 0 0 271.59,669.94 C 270.01,671.74 268.49,673.61 267.06,675.54 A 59.44,59.44 0 0 1 261.51,682.54 13.89,13.89 0 0 1 253.83,686.76 C 254.67,686.64 254.39,681.7 254.3,681.08 254.17,680.17 253.55,679.08 253.53,678.23 253.53,677.15 253.95,676.99 254.85,676.23 Z"
               transform="translate(-88,-46.98)"
               fill="#efb7b9"
               id="path198" />
            <path
               d="M 265.22,667.45 C 266.47,666.39 267.73,665.32 268.89,664.15 A 50.55,50.55 0 0 0 273.38,658.65 28.35,28.35 0 0 0 277.17,652.34 C 278.17,649.71 278.51,646.72 280.29,644.54 A 1.85,1.85 0 0 1 281.1,643.91 C 282.1,643.59 282.87,644.91 283.1,645.91 284.05,651.06 281.79,656.2 279.58,660.91 A 13.82,13.82 0 0 1 276.82,665.27 25.48,25.48 0 0 1 274.65,666.94 23,23 0 0 0 271.59,669.94 C 270.01,671.74 268.49,673.61 267.06,675.54 A 59.44,59.44 0 0 1 261.51,682.54 13.89,13.89 0 0 1 253.83,686.76 C 254.67,686.64 254.39,681.7 254.3,681.08 254.17,680.17 253.55,679.08 253.53,678.23 253.53,677.15 253.95,676.99 254.85,676.23 Z"
               transform="translate(-88,-46.98)"
               opacity="0.1"
               id="path200" />
            <path
               d="M 229.88,636.29 C 229.88,636.29 227,650.58 223.69,653 220.38,655.42 241.78,658.23 241.78,658.23 241.78,658.23 242.26,646.81 247.97,641.57 253.68,636.33 229.88,636.29 229.88,636.29 Z"
               transform="translate(-88,-46.98)"
               fill="#efb7b9"
               id="path202" />
            <path
               d="M 224.19,651.55 A 6,6 0 0 0 220.53,653.55 C 218.29,655.97 217.84,659.65 218.61,662.86 A 27,27 0 0 0 223.1,671.62 42,42 0 0 0 231.61,681.26 64,64 0 0 0 237.36,684.97 94.06,94.06 0 0 1 246.82,691.62 8.28,8.28 0 0 0 249.06,693.05 6.38,6.38 0 0 0 251.24,693.33 17,17 0 0 0 258.46,691.65 1.28,1.28 0 0 0 259,691.26 1.48,1.48 0 0 0 259,690.09 C 257.65,684.67 260.24,678.51 257.67,673.55 254.88,674.45 251.81,675.43 249.02,676.34 A 3.34,3.34 0 0 1 247.67,676.57 2.86,2.86 0 0 1 246.21,675.77 C 243.21,673.15 241.27,669.5 239.53,665.9 237.79,662.3 236.1,658.57 233.38,655.64 230.66,652.71 228.17,651.13 224.19,651.55 Z"
               transform="translate(-88,-46.98)"
               fill="#f50057"
               id="path204" />
            <path
               d="M 224.19,651.55 A 6,6 0 0 0 220.53,653.55 C 218.29,655.97 217.84,659.65 218.61,662.86 A 27,27 0 0 0 223.1,671.62 42,42 0 0 0 231.61,681.26 64,64 0 0 0 237.36,684.97 94.06,94.06 0 0 1 246.82,691.62 8.28,8.28 0 0 0 249.06,693.05 6.38,6.38 0 0 0 251.24,693.33 17,17 0 0 0 258.46,691.65 1.28,1.28 0 0 0 259,691.26 1.48,1.48 0 0 0 259,690.09 C 257.65,684.67 260.24,678.51 257.67,673.55 254.88,674.45 251.81,675.43 249.02,676.34 A 3.34,3.34 0 0 1 247.67,676.57 2.86,2.86 0 0 1 246.21,675.77 C 243.21,673.15 241.27,669.5 239.53,665.9 237.79,662.3 236.1,658.57 233.38,655.64 230.66,652.71 228.17,651.13 224.19,651.55 Z"
               transform="translate(-88,-46.98)"
               opacity="0.1"
               id="path206" />
            <circle
               cx="153.07001"
               cy="585.73999"
               r="14.28"
               fill="#efb7b9"
               id="circle208" />
            <path
               d="M 246.77,673.83 V 673.89 C 245.94,675.42 244.71,676.71 243.86,678.23 A 19,19 0 0 0 242.09,683.86 C 241.82,685.16 241.58,686.46 241.36,687.77 241.14,689.08 240.92,690.42 240.72,691.77 236.41,690.31 231.63,692.77 227.16,691.87 A 27.86,27.86 0 0 0 223.16,690.97 C 222.16,690.97 221.16,691.15 220.16,691.06 218.51,690.9 216.87,689.86 215.29,690.39 214.59,690.63 213.72,691.13 213.21,690.58 A 1.53,1.53 0 0 1 212.95,690.09 6.11,6.11 0 0 1 212.42,686.59 11.35,11.35 0 0 1 213.91,683.92 12,12 0 0 0 215.07,678.77 C 215.36,674.18 215.35,669.55 216.07,665.01 216.79,660.47 218.41,655.95 221.48,652.52 A 9,9 0 0 1 227.19,649.22 C 235.45,648.55 242.12,653.1 245.73,660.33 247.86,664.51 249,669.68 246.77,673.83 Z"
               transform="translate(-88,-46.98)"
               fill="#f50057"
               id="path210" />
            <path
               d="M 270.93,669.36 C 272.19,668.29 273.45,667.23 274.6,666.05 A 49.3,49.3 0 0 0 279.09,660.56 28.09,28.09 0 0 0 282.89,654.24 C 283.89,651.62 284.22,648.63 286.01,646.45 A 1.75,1.75 0 0 1 286.81,645.82 C 287.81,645.5 288.58,646.82 288.81,647.82 289.81,652.97 287.49,658.12 285.28,662.82 A 13.62,13.62 0 0 1 282.53,667.18 C 281.86,667.8 281.08,668.29 280.36,668.84 A 21.84,21.84 0 0 0 277.3,671.84 Q 274.92,674.56 272.76,677.44 A 60.41,60.41 0 0 1 267.22,684.44 14,14 0 0 1 259.53,688.67 C 260.38,688.55 260.1,683.6 260.01,682.98 A 26.75,26.75 0 0 1 259.24,680.14 C 259.24,679.05 259.66,678.89 260.55,678.14 Z"
               transform="translate(-88,-46.98)"
               fill="#efb7b9"
               id="path212" />
            <path
               d="M 245.34,674.31 V 674.37 C 244.52,675.9 243.28,677.18 242.43,678.71 A 18.86,18.86 0 0 0 240.66,684.34 C 240.4,685.64 240.15,686.94 239.93,688.25 A 52.55,52.55 0 0 1 234.93,685.02 41.78,41.78 0 0 1 226.41,675.38 27,27 0 0 1 221.92,666.62 C 221.15,663.41 221.6,659.73 223.85,657.31 A 5.94,5.94 0 0 1 227.5,655.36 C 231.5,654.93 234,656.47 236.72,659.36 239.44,662.25 241.13,666.01 242.87,669.62 243.65,671.23 244.44,672.81 245.34,674.31 Z"
               transform="translate(-88,-46.98)"
               opacity="0.1"
               id="path214" />
            <path
               d="M 229.9,653.45 A 6,6 0 0 0 226.25,655.45 C 224,657.87 223.55,661.55 224.33,664.76 225.11,667.97 226.93,670.76 228.81,673.52 A 42.19,42.19 0 0 0 237.33,683.16 63.77,63.77 0 0 0 243.07,686.86 92.93,92.93 0 0 1 252.53,693.51 8,8 0 0 0 254.77,694.94 6.47,6.47 0 0 0 256.96,695.23 17.22,17.22 0 0 0 264.18,693.54 1.23,1.23 0 0 0 264.72,693.15 1.46,1.46 0 0 0 264.72,691.99 C 263.38,686.56 265.97,680.4 263.4,675.44 L 254.74,678.23 A 3.16,3.16 0 0 1 253.39,678.46 3,3 0 0 1 251.93,677.67 C 248.93,675.05 246.99,671.4 245.25,667.79 243.51,664.18 241.83,660.47 239.1,657.54 236.37,654.61 233.88,653 229.9,653.45 Z"
               transform="translate(-88,-46.98)"
               fill="#f50057"
               id="path216" />
            <path
               d="M 250.3,622.74 C 251.69,621.17 251.39,618.62 250.18,616.91 A 13.43,13.43 0 0 0 245.18,613.14 C 242.23,611.57 238.84,610.06 235.67,611.14 A 20.55,20.55 0 0 0 232.19,612.95 C 230.09,614.12 227.77,614.86 225.63,615.95 A 10.4,10.4 0 0 0 220.51,620.83 C 219.61,623 219.89,625.45 220.13,627.83 A 45.61,45.61 0 0 1 220.2,638.72 20.26,20.26 0 0 1 216.14,648.72 C 214.53,650.72 212.4,652.34 211.43,654.72 A 14.33,14.33 0 0 0 210.64,658.94 L 210.12,665.08 C 209.92,667.53 209.61,670.2 207.84,671.91 A 14,14 0 0 0 217.44,666.59 C 219.25,664.59 221.13,662.47 221.67,659.83 222.08,657.83 221.74,655.62 222.94,654.01 224.35,652.11 227.36,652.09 229.36,653.35 231.36,654.61 232.59,656.77 233.66,658.88 234.73,660.99 235.8,663.2 237.66,664.69 A 11.24,11.24 0 0 0 242.84,666.87 4.52,4.52 0 0 0 246.54,666.36 C 247.91,665.26 247.77,663.15 247.33,661.45 246.74,659.2 245.83,656.86 246.47,654.61 246.68,653.87 247.05,653.17 247.28,652.43 A 12.17,12.17 0 0 0 247.67,649.13 C 247.8,643.55 248.06,637.54 246.25,632.13 245.67,630.41 244.11,628.77 244.91,626.91 245.92,624.55 248.79,624.47 250.3,622.74 Z"
               transform="translate(-88,-46.98)"
               fill="#464353"
               id="path218" />
            <g
               opacity="0.1"
               id="g228">
              <path
                 d="M 220.5,632.3 A 56.38,56.38 0 0 0 220.17,624.4 C 220.17,623.89 220.06,623.4 220.02,622.85 A 22.3,22.3 0 0 0 220.17,627.74 C 220.32,629.25 220.44,630.77 220.5,632.3 Z"
                 transform="translate(-88,-46.98)"
                 id="path220" />
              <path
                 d="M 246.56,662.93 A 4.56,4.56 0 0 1 242.86,663.44 11.24,11.24 0 0 1 237.68,661.26 C 235.84,659.76 234.78,657.55 233.68,655.45 232.58,653.35 231.38,651.17 229.38,649.92 227.38,648.67 224.38,648.68 222.96,650.58 221.76,652.19 222.1,654.43 221.69,656.4 221.15,659.04 219.27,661.17 217.46,663.16 A 18.57,18.57 0 0 1 214.37,666.08 14.82,14.82 0 0 1 209.74,668.02 7.11,7.11 0 0 1 207.86,671.81 14,14 0 0 0 217.46,666.49 C 219.27,664.49 221.15,662.37 221.69,659.73 222.1,657.73 221.76,655.52 222.96,653.91 224.37,652.01 227.38,651.99 229.38,653.25 231.38,654.51 232.61,656.67 233.68,658.78 234.75,660.89 235.82,663.1 237.68,664.59 A 11.24,11.24 0 0 0 242.86,666.77 4.52,4.52 0 0 0 246.56,666.26 C 247.84,665.26 247.8,663.26 247.43,661.68 A 2.84,2.84 0 0 1 246.56,662.93 Z"
                 transform="translate(-88,-46.98)"
                 id="path222" />
              <path
                 d="M 250.3,619.41 C 248.79,621.13 245.92,621.22 244.93,623.51 A 3.4,3.4 0 0 0 245.18,626.38 C 246.33,624.53 248.9,624.38 250.3,622.74 A 4.42,4.42 0 0 0 250.93,618.39 3.4,3.4 0 0 1 250.3,619.41 Z"
                 transform="translate(-88,-46.98)"
                 id="path224" />
              <path
                 d="M 247.69,645.7 A 12.17,12.17 0 0 1 247.3,649 C 247.07,649.74 246.7,650.43 246.49,651.18 A 7.36,7.36 0 0 0 246.49,654.61 V 654.51 C 246.7,653.77 247.07,653.07 247.3,652.33 A 12.17,12.17 0 0 0 247.69,649.03 C 247.74,646.81 247.81,644.53 247.77,642.24 247.75,643.4 247.72,644.56 247.69,645.7 Z"
                 transform="translate(-88,-46.98)"
                 id="path226" />
            </g>
          </g>
          <g
             id="g830"
             transform="matrix(1.454608,0,0,1.454608,748.19625,-658.71944)">
            <g
               id="g1027"
               transform="matrix(1.2738842,0,0,1.2738842,161.18747,-969.63937)">
              <path
                 d="M 517.71667,808 A 226.92219,226.92219 0 0 0 550,691 C 550,565.079 447.9209,463 322,463 196.0791,463 94,565.079 94,691 A 226.92219,226.92219 0 0 0 126.28333,808 Z"
                 fill="#3f3d56"
                 id="path942"
                 transform="translate(-94,-53)" />
              <circle
                 cx="228"
                 cy="623"
                 r="22"
                 fill="#f50057"
                 id="circle944" />
              <circle
                 cx="53"
                 cy="659"
                 r="11"
                 fill="#f50057"
                 id="circle946" />
              <circle
                 cx="59.45435"
                 cy="563.72638"
                 r="11"
                 fill="#f50057"
                 id="circle948" />
              <circle
                 cx="114.05636"
                 cy="485.38516"
                 r="11"
                 fill="#f50057"
                 id="circle950" />
              <circle
                 cx="201.20813"
                 cy="446.35574"
                 r="11"
                 fill="#f50057"
                 id="circle952" />
              <circle
                 cx="296.0134"
                 cy="457.78748"
                 r="11"
                 fill="#f50057"
                 id="circle954" />
              <circle
                 cx="371.38962"
                 cy="516.41473"
                 r="11"
                 fill="#f50057"
                 id="circle956" />
              <circle
                 cx="405.80435"
                 cy="605.48969"
                 r="11"
                 fill="#f50057"
                 id="circle958" />
              <circle
                 cx="389.42657"
                 cy="699.56677"
                 r="11"
                 fill="#f50057"
                 id="circle960" />
            </g>
            <g
               id="g184"
               transform="matrix(2.5701971,0,0,2.5701971,-2153.5443,-247.60825)">
              <g
                 id="g162"
                 transform="matrix(5.4997636,0,0,5.4997636,833.27569,75.645906)">
                <rect
                   fill="#394d5c"
                   height="40"
                   rx="2"
                   width="58"
                   x="3"
                   y="11"
                   id="rect97" />
                <path
                   d="M 27,51 H 37 L 41,57 H 23 Z"
                   fill="#7d8d9c"
                   id="path99" />
                <path
                   d="M 16,57 H 48 V 61 H 16 Z"
                   fill="#aabece"
                   id="path101" />
                <path
                   d="M 3,47 H 61 V 49 A 2,2 0 0 1 59,51 H 5 A 2,2 0 0 1 3,49 Z"
                   fill="#aabece"
                   id="path103" />
                <path
                   d="M 8,3 H 56 V 47 H 8 Z"
                   fill="#f4f4e6"
                   transform="rotate(180,32,25)"
                   id="path105" />
                <path
                   d="M 8,3 H 24 V 11 H 8 Z"
                   fill="#7d8d9c"
                   id="path107" />
                <path
                   d="M 11,6 H 13 V 8 H 11 Z"
                   fill="#e1462b"
                   id="path109" />
                <path
                   d="M 15,6 H 17 V 8 H 15 Z"
                   fill="#f9bb4b"
                   id="path111" />
                <path
                   d="M 19,6 H 21 V 8 H 19 Z"
                   fill="#55b56a"
                   id="path113" />
                <rect
                   fill="#195c85"
                   height="14"
                   rx="2"
                   width="40"
                   x="12"
                   y="22"
                   id="rect115" />
                <path
                   d="M 21,28 H 18 V 25 H 16 V 33 H 18 V 30 H 21 V 33 H 23 V 30 28 25 H 21 Z"
                   fill="#f4f4e6"
                   id="path117" />
                <path
                   d="M 25,27 H 27 V 33 H 29 V 27 H 31 V 25 H 25 Z"
                   fill="#f4f4e6"
                   id="path119" />
                <path
                   d="M 33,27 H 35 V 33 H 37 V 27 H 39 V 25 H 33 Z"
                   fill="#f4f4e6"
                   id="path121" />
                <path
                   d="M 47,25 H 42 A 1,1 0 0 0 41,26 V 33 H 43 V 31 H 47 A 1,1 0 0 0 48,30 V 26 A 1,1 0 0 0 47,25 Z M 46,29 H 43 V 27 H 46 Z"
                   fill="#f4f4e6"
                   id="path123" />
                <g
                   fill="#aabece"
                   id="g133">
                  <path
                     d="M 13,19 H 11 V 15 A 1,1 0 0 1 12,14 H 19 V 16 H 13 Z"
                     id="path125" />
                  <path
                     d="M 52,44 H 38 V 42 H 51 V 39 H 53 V 43 A 1,1 0 0 1 52,44 Z"
                     id="path127" />
                  <path
                     d="M 34,42 H 36 V 44 H 34 Z"
                     id="path129" />
                  <path
                     d="M 24,3 H 56 V 11 H 24 Z"
                     id="path131" />
                </g>
              </g>
            </g>
          </g>
        </g>
      </g>
    </g>
    <line
       x1="312.08313"
       y1="113.01237"
       x2="244.29785"
       y2="128.8924"
       fill="none"
       stroke="#f50057"
       stroke-miterlimit="10"
       stroke-width="1.96109"
       id="pi-line-4"
       style="fill:#ffffff;stroke:#ffffff;stroke-opacity:1" />
    <text
       xml:space="preserve"
       id="text91"
       style="font-family:Impact;font-size:1.41111111px;line-height:1.25;letter-spacing:0px;word-spacing:0px;-inkscape-font-specification:Impact;text-align:center;writing-mode:lr;white-space:pre;shape-inside:url(#rect93);" />
  </g>
</svg>
