<?xml version="1.0" encoding="iso-8859-1"?>
<svg fill="rgba(240,246,252,.6)" height="500px" width="500px" version="1.1" id="custom-post-types-icon" xmlns="http://www.w3.org/2000/svg" xmlns:xlink="http://www.w3.org/1999/xlink" 
	 viewBox="-50 -50 612 612" xml:space="preserve">
<g>
	<g>
		<path d="M237.714,70.29c0-7.543,0-62.709,0-70.289H54.857C24.609,0.001,0,24.609,0,54.858v182.857c8.319,0,84.971,0,94.903,0
			c12.46,0,21.328,12.255,17.329,24.124c-0.984,2.921-11.208,16.844-1.413,33.807c11.752,20.352,40.903,20.345,52.649,0
			c5.486-9.501,5.617-20.908,0.078-30.502c-7.034-12.186,1.792-27.429,15.837-27.429h58.331v-33.718
			c-0.844,0.078-1.69,0.139-2.534,0.184c-36.257,1.925-70.608-26.622-70.608-67.038C164.571,95.879,200.429,66.865,237.714,70.29z"
			/>
	</g>
</g>
<g>
	<g>
		<path d="M457.143,0.001H274.286c0,8.319,0,84.971,0,94.903c0,14.069-15.265,22.86-27.427,15.837
			c-19.917-11.494-45.716,2.547-45.716,26.403c0,23.884,25.817,37.888,45.716,26.403c12.187-7.034,27.427,1.792,27.427,15.837
			v58.331h33.718c-1.248-13.605,1.764-27.36,8.859-39.648c25.826-44.727,90.231-44.611,115.99,0
			c7.033,12.178,10.114,25.969,8.86,39.647c7.543,0,62.709,0,70.289,0V54.858C512,24.609,487.391,0.001,457.143,0.001z"/>
	</g>
</g>
<g>
	<g>
		<path d="M417.097,274.286c-14.069,0-22.857-15.264-15.837-27.427c5.605-9.71,5.342-21.116-0.078-30.503
			c-11.62-20.124-40.836-20.458-52.648,0c-5.389,9.333-5.703,20.76-0.079,30.503c7.055,12.222-1.833,27.427-15.838,27.427h-58.331
			v33.704c13.507-1.24,27.274,1.714,39.647,8.859c44.734,25.829,44.62,90.228,0,115.991c-12.373,7.144-26.142,10.1-39.647,8.859
			c0,7.545,0,62.729,0,70.3h182.857c30.248,0,54.857-24.609,54.857-54.857V274.286C503.681,274.286,427.029,274.286,417.097,274.286
			z"/>
	</g>
</g>
<g>
	<g>
		<path d="M295.645,348.52c-17.232-9.951-30.41,0.552-34.951,1.758c-11.621,3.087-22.979-5.704-22.979-17.674v-58.318h-33.718
			c1.24,13.506-1.714,27.274-8.859,39.647c-25.805,44.694-90.201,44.668-115.991,0c-7.145-12.373-10.099-26.141-8.859-39.647
			c-7.543,0-62.708,0-70.288,0v182.857c0,30.248,24.609,54.857,54.857,54.857h182.857c0-8.264,0-85.003,0-94.915
			c0-14.069,15.265-22.86,27.427-15.837c9.669,5.582,21.075,5.365,30.503-0.079C316.122,389.346,315.782,360.148,295.645,348.52z"/>
	</g>
</g>
</svg>