<?xml version="1.0" encoding="utf-8"?>
<!-- Generator: Adobe Illustrator 25.2.0, SVG Export Plug-In . SVG Version: 6.00 Build 0)  -->
<svg version="1.1" id="Calque_1" xmlns="http://www.w3.org/2000/svg" xmlns:xlink="http://www.w3.org/1999/xlink" x="0px" y="0px"
	 width="30px" height="30px" viewBox="0 0 30 30" style="enable-background:new 0 0 30 30;" xml:space="preserve">
<style type="text/css">
	.st0{fill:#1D2327;}
</style>
<g>
	<path class="st0" d="M0.2,23.3c0-0.1,0-0.3,0-0.4c0.2-0.4,0.6-0.7,1.1-0.7c0.3,0,0.7,0,1,0s0.4,0,0.8,0c0-0.7,0-1.5,0-2.2
		c-0.6,0-1.2,0-1.8,0S0.3,19.7,0,19.2c0-0.1,0-0.3,0-0.4c0.3-0.4,0.6-0.6,1.2-0.6s1.2,0,1.7,0c0-0.7,0-1.5,0-2.2c-0.6,0-1.2,0-1.7,0
		c-0.6,0-0.9-0.1-1.2-0.6c0-0.1,0-0.3,0-0.4c0.3-0.4,0.6-0.7,1.2-0.6c0.3,0,0.5,0,0.8,0s0.6,0,1,0c0-0.7,0-1.5,0-2.2
		c-0.6,0-1.2,0-1.8,0c-0.5-0.1-0.9-0.3-1.1-0.9c0-0.1,0-0.3,0-0.4c0.2-0.4,0.6-0.7,1.2-0.6c0.6,0,1.2,0,1.8,0c0-0.7,0-1.5,0-2.2
		c-0.6,0-1.2,0-1.8,0S0.3,7.7,0.2,7.3c0-0.1,0-0.3,0-0.4c0.2-0.4,0.6-0.7,1.2-0.6c0.6,0,1.2,0,1.8,0c0-0.3,0-0.4,0-0.7
		c0-1.5,1-2.5,2.5-2.5c0.2,0,0.4,0,0.8,0c0-0.7,0-1.3,0-1.9c0-0.4,0.2-0.7,0.6-0.9C7.7-0.2,8.3,0.2,8.3,1c0,0.6,0,1.3,0,1.9
		C9,3.1,9.8,3.1,10.5,3.1c0-0.6,0-1.3,0-1.9c-0.3-0.4,0.1-0.9,0.6-0.9c0.4,0,0.9,0.4,0.9,0.9s0,0.7,0,1.2c0,0.3,0,0.6,0,0.7
		c0.8,0,1.5,0,2.2,0c0-0.6,0-1.3,0-1.9c0-0.4,0.5-0.9,0.9-0.9s0.9,0.4,0.9,0.9s0,1,0,1.5c0,0.1,0,0.3,0,0.4c0.8,0,1.5,0,2.2,0
		c0-0.1,0-0.3,0-0.3c0-0.6,0-1,0-1.6c0-0.4,0.3-0.9,0.8-0.9s0.8,0.1,0.9,0.6c0,0.1,0,0.3,0,0.4c0,0.6,0,1.2,0,1.8c0.8,0,1.5,0,2.2,0
		c0-0.6,0-1.2,0-1.8c0-0.1,0-0.3,0-0.4c0.3-0.3,0.6-0.6,1.1-0.6c0.4,0,0.7,0.4,0.7,0.9c0,0.6,0,1.3,0,2.1c0.2,0,0.3,0,0.3,0
		c0.3,0,0.6,0,0.9,0c1.1,0.1,1.8,1,2,2.2c0,0.3,0,0.6,0,0.9c0.8,0,1.3,0,1.9,0c0.5,0,0.9,0.3,0.9,0.7S29.7,8,29.1,8
		c-0.1,0-0.3,0-0.3,0c-0.6,0-1.2,0-1.7,0c0,0.7,0,1.5,0,2.2c0.6,0,1.3,0,1.9,0c0.5-0.1,0.9,0.3,0.9,0.7s-0.4,0.9-0.9,0.9
		c-0.6,0-1,0-1.6,0c-0.1,0-0.1,0-0.3,0c0,0.7,0,1.5,0,2.2c0.2,0,0.3,0,0.3,0c0.6,0,1.2,0,1.6,0c0.5,0,0.8,0.3,0.9,0.7
		c0,0.4-0.3,0.9-0.8,0.9c-0.2,0-0.3,0-0.4,0c-0.6,0-1.2,0-1.8,0c0,0.7,0,1.5,0,2.2c0.2,0,0.2,0,0.2,0c0.6,0,1.2,0,1.8,0
		c0.5,0,0.9,0.4,0.9,0.9s-0.4,0.9-0.9,0.9c-0.3,0-0.6,0-0.9,0s-0.6,0-1.1,0c0,0.7,0,1.3,0,1.9v0.1c0.2,0,0.2,0,0.3,0
		c0.6,0,1.1,0,1.6,0c0.6,0,0.9,0.4,0.9,0.9s-0.4,0.9-0.9,0.9c-0.1,0-0.4,0-0.6,0c-0.4,0-0.9,0-1.3,0c0,0.3,0,0.4,0,0.6
		c0,1.5-0.9,2.5-2.6,2.5c-0.1,0-0.4,0-0.6,0c0,0.6,0,1.2,0,1.8c0,0.6-0.2,0.9-0.6,1.2c-0.2,0-0.3,0-0.5,0c-0.5-0.1-0.8-0.4-0.8-0.9
		c0-0.1,0-0.3,0-0.4c0-0.4,0-1,0-1.5c-0.8,0-1.5,0-2.2,0c0,0.6,0,1.2,0,1.8c0,0.6-0.2,0.9-0.6,1.2c-0.1,0-0.3,0-0.4,0
		c-0.2-0.1-0.5-0.3-0.6-0.4C18,29.4,18,29.1,18,29c0-0.6,0-1.2,0-1.8c-0.8,0-1.5,0-2.2,0c0,0.6,0,1.2,0,1.6c0,0.6-0.2,0.9-0.6,1.2
		c-0.2,0-0.3,0-0.4,0c-0.5-0.3-0.8-0.6-0.6-1.2c0-0.1,0-0.4,0-0.6c0-0.3,0-0.7,0-1c-0.8,0-1.5,0-2.2,0c0,0.6,0,1.2,0,1.8
		c0,0.6-0.1,0.9-0.8,1c-0.1,0-0.3,0-0.4,0c-0.1-0.1-0.3-0.1-0.4-0.3c-0.2-0.1-0.2-0.4-0.3-0.6c0-0.6,0-1.3,0-1.9c-0.8,0-1.5,0-2.2,0
		c0,0.6,0,1.2,0,1.8c0,0.6-0.1,0.9-0.8,1c-0.1,0-0.3,0-0.5,0c-0.5-0.1-0.8-0.6-0.6-1.2c0-0.3,0-0.6,0-0.9s0-0.6,0-0.9
		c-0.3,0-0.5,0-0.8,0c-1.5,0-2.6-1-2.6-2.5c0-0.1,0-0.4,0-0.7c-0.6,0-1.2,0-1.8,0C0.8,24,0.3,23.7,0.2,23.3z M25.3,15
		c0-3.1,0-6.3,0-9.6c0-0.6-0.1-0.7-0.8-0.7c-6.3,0-12.6,0-18.9,0c-0.6,0-0.9,0.1-0.9,0.7c0,6.3,0,12.6,0,19c0,0.6,0.1,0.9,0.9,0.9
		c6.3,0,12.6,0,18.9,0c0.8,0,0.9-0.1,0.9-0.9C25.3,21.3,25.3,18.2,25.3,15z"/>
	<path class="st0" d="M20.4,15c0,1.3,0,2.7,0,4c0,0.9-0.5,1.3-1.4,1.3c-2.7,0-5.4,0-8,0c-0.9,0-1.3-0.4-1.3-1.3c0-2.7,0-5.4,0-8.1
		c0-0.9,0.4-1.3,1.3-1.3c2.7,0,5.4,0,8.1,0c0.9,0,1.4,0.4,1.4,1.3C20.4,12.4,20.4,13.7,20.4,15z M18.6,18.6c0-2.4,0-4.8,0-7.2
		c-2.4,0-4.8,0-7.2,0c0,2.4,0,4.8,0,7.2C14,18.6,16.2,18.6,18.6,18.6z"/>
</g>
</svg>
