<?xml version="1.0" encoding="utf-8"?>
<!-- Generator: Adobe Illustrator 25.2.0, SVG Export Plug-In . SVG Version: 6.00 Build 0)  -->
<svg version="1.1" id="Calque_1" xmlns="http://www.w3.org/2000/svg" xmlns:xlink="http://www.w3.org/1999/xlink" x="0px" y="0px"
	 width="30px" height="30px" viewBox="0 0 30 30" style="enable-background:new 0 0 30 30;" xml:space="preserve">
<style type="text/css">
	.st0{fill:#1D2327;}
</style>
<path class="st0" d="M29.9,15c-0.3-1.1-1.1-1.8-2.3-1.9c-0.5,0-2.1,0-2.4,0c0-0.1,0-4.9,0-5.1c-0.2-0.9-0.9-1.4-1.9-1.4
	c-3.5,0-7,0-10.5,0c-0.2,0-0.3-0.1-0.5-0.2c-0.5-0.8-1.1-1.6-1.7-2.4c-0.5-0.7-1.1-1-1.9-1c-1.4,0-6,0-6.9,0C0.8,3,0,3.8,0,4.9
	c0,6.5,0,13.6,0,20.2c0,0.3,0.1,0.6,0.2,0.9c0.4,0.8,1,1,1.9,1c7.2,0,14.5,0,21.7,0c0.6,0,0.9-0.2,1.2-0.7c1.3-2.6,4.7-9.6,5.1-10.5
	C30,15.6,30,15,29.9,15z M1.8,22.1c0-5.6,0-11.7,0-17.3c0.1,0,4.7,0,7,0C9,4.8,9.1,4.8,9.2,5c0.6,0.8,1.1,1.6,1.7,2.4
	c0.4,0.6,1,0.9,1.8,0.9c3.5,0,10.7,0,10.8,0c0,1.4,0,3.3,0,4.7c-0.1,0-10.6,0-15.6,0c-0.9,0-1.7,0.3-2.3,1
	C5.4,14.3,1.9,21.9,1.8,22.1z M28.1,15.8c-0.8,1.7-1.7,3.4-2.6,5.2c-0.7,1.3-1.3,2.7-2,4c-0.1,0.1-0.1,0.2-0.3,0.2c-7,0-20.9,0-21,0
	c0.2-0.4,3.2-6.9,4.5-9.8c0.2-0.5,0.5-0.6,1-0.6c6.5,0,19.7,0,19.8,0C28.2,14.9,28.4,15.3,28.1,15.8z"/>
</svg>
