<?xml version="1.0" encoding="utf-8"?>
<!-- Generator: Adobe Illustrator 25.2.0, SVG Export Plug-In . SVG Version: 6.00 Build 0)  -->
<svg version="1.1" id="Calque_1" xmlns="http://www.w3.org/2000/svg" xmlns:xlink="http://www.w3.org/1999/xlink" x="0px" y="0px"
	 width="20px" height="20px" viewBox="0 0 20 20" style="enable-background:new 0 0 20 20;" xml:space="preserve">
<style type="text/css">
	.st0{fill:#FFFFFF;}
</style>
<g>
	<path class="st0" d="M18.1,20c-5.4,0-10.8,0-16.3,0c-1-0.3-1.6-0.9-1.9-1.9C0,12.7,0,7.3,0,1.9c0.3-1,0.9-1.6,1.9-1.9
		C6.4,0,11,0,15.6,0c1.5,1.5,3,3,4.4,4.4c0,4.6,0,9.1,0,13.7C19.7,19.1,19.1,19.7,18.1,20z M17.8,17.8c0-0.1,0-0.2,0-0.2
		c0-4,0-7.9,0-11.9c0-0.2-0.1-0.4-0.2-0.5c-0.9-0.9-1.7-1.8-2.6-2.6c-0.2-0.2-0.4-0.3-0.6-0.3c-3.9,0-7.7,0-11.6,0
		c-0.1,0-0.3,0-0.4,0c0,5.2,0,10.4,0,15.5C7.4,17.8,12.6,17.8,17.8,17.8z"/>
	<path class="st0" d="M3.7,3.7c3.3,0,6.6,0,9.9,0c0,1.4,0,2.9,0,4.4c-3.3,0-6.6,0-9.9,0C3.7,6.6,3.7,5.2,3.7,3.7z"/>
	<path class="st0" d="M10,10c1.9,0,3.3,1.5,3.3,3.3c0,1.8-1.5,3.3-3.3,3.3c-1.9,0-3.3-1.5-3.3-3.3C6.7,11.5,8.2,10,10,10z"/>
</g>
</svg>
