<?xml version="1.0" encoding="utf-8"?>
<!-- Generator: Adobe Illustrator 24.0.0, SVG Export Plug-In . SVG Version: 6.00 Build 0)  -->
<svg version="1.1" xmlns="http://www.w3.org/2000/svg" xmlns:xlink="http://www.w3.org/1999/xlink" x="0px" y="0px"
	 viewBox="0 0 48 48" style="enable-background:new 0 0 48 48;" xml:space="preserve">
<style type="text/css">
	.st0{fill:#2A2C38;}
	.st1{fill:#343742;}
	.st2{fill:#FF0000;}
	.st3{fill:#FF6600;}
	.st4{fill:#FFFFFF;}
	.st5{display:none;fill:#C60000;}
</style>
<g id="fond">
	<path d="M18.4,29.6l0.2-0.1c0.4-0.1,0.8-0.3,1.2-0.4c-0.6,0.1-0.9,0.2-0.9,0.2L14.3,31l2.2-4.4c0.2-0.3,0.4-0.6,0.5-0.8
		c0.1-0.1,0.1-0.2,0.2-0.3l0.1-0.2c1-1.6,2.3-2.8,3.8-3.7c2.1-1.2,3.9-1.6,6.3-1.6c0.2,0,0.4-0.1,0.7,0l0,0l1.6-2.4
		c0.8-1,1.5-2,2.5-2.9c1.7-1.8,3.2-3.2,5.5-4.7L38,9.6C34.3,3.9,27.9,0,20.6,0C9.2,0,0,9.2,0,20.6c0,7.6,4.2,14.3,10.3,17.8
		C11.9,34.6,14.8,31.5,18.4,29.6z"/>
	<path class="st0" d="M17.3,25.2c0.8-1.3,1.9-2.3,3-3.1c-2.5-1.3-5.4-2.1-8.4-2.1c-4.4,0-8.4,1.6-11.6,4.1c1.1,6.1,4.8,11.2,10,14.2
		c1.5-3.7,4.5-6.9,8.1-8.7c0,0,1-0.4,1.4-0.5c-0.6,0.1-0.9,0.2-0.9,0.2L14.3,31l2.2-4.4C16.6,26.2,17.3,25.2,17.3,25.2z"/>
	<path class="st1" d="M14.3,31l2.2-4.4c0.2-0.3,0.9-1.4,0.9-1.4c0.1-0.2,0.2-0.3,0.3-0.5C11.8,25,7,29.4,6,35.1
		c1.3,1.3,2.7,2.4,4.3,3.3c1.5-3.7,4.5-6.9,8.1-8.7c0,0,1-0.4,1.4-0.5c-0.6,0.1-0.9,0.2-0.9,0.2L14.3,31z"/>
</g>
<g id="power">
	<g>
		<path class="st2" d="M25.8,3c-0.2-0.1-0.3,0-0.4,0.2c-0.4,0.8-3,6.2-4,8.1c-0.1,0.2-0.1,0.4,0.2,0.5c0,0,2,1.4,2.7,2.2
			c0.7,0.7,1.1,1.6,1.7,2.4c0.1,0.2,0.2,0.3,0.5,0.2c0.6-0.2,3.1-1.1,5.7-1.9c0,0,0,0,0-0.1c1.3-1.4,2.6-2.6,4.2-3.8
			C33.8,7.1,30.1,4.6,25.8,3z"/>
		<path class="st3" d="M11.7,10.3c-0.2-0.6-1.3-3.9-1.7-5c-0.1-0.2,0-0.4,0.2-0.5C11.7,4,13.1,3.5,14.8,3c2.2-0.6,4.4-0.9,6.7-0.8
			c0.6,0,1.3,0.1,1.9,0.2c-0.3,0.5-2.7,5.7-3.7,7.8c-0.1,0.2-0.2,0.3-0.4,0.2c-2.4-0.7-5-0.8-7.4-0.3C11.9,10.2,11.8,10.2,11.7,10.3
			z"/>
		<path class="st4" d="M8.8,5.8c0.4,1,1.4,3.8,1.7,4.4c0.1,0.2,0,0.3-0.2,0.4c-0.7,0.4-1.3,0.7-2,1.1c-0.1,0.1-0.2,0.2-0.4,0
			C7.1,10.8,6.5,9.9,5.6,9C6.6,7.7,7.5,6.9,8.8,5.8z"/>
		<path class="st4" d="M4.8,9.9C5.2,10.3,6.7,12,7,12.3c0,0.1,0,0.3,0,0.4c-0.6,0.6-1.4,1.8-1.7,2.2C5.2,15,5.1,15,5,15
			c-0.6-0.4-1.3-0.7-2-1c-0.1,0-0.1-0.1-0.1-0.2C3.3,12.4,4,11.3,4.8,9.9z"/>
		<path class="st4" d="M2.4,15.5c0.7,0.3,1.4,0.6,2,0.8c0.1,0,0.1,0.2,0.1,0.2c-0.4,1-0.7,2-0.8,3.1c0,0.2-0.1,0.3-0.3,0.2
			c-0.4,0-0.9,0-1.4-0.1C2,18.3,2.1,17,2.4,15.5z"/>
		<path class="st4" d="M2.3,24.1c-0.1-1.1-0.1-1.8-0.2-2.9c0.2,0,0.9,0,1.4,0c0.1,0,0.1,0.1,0.1,0.2c0,0.8,0,1.4,0,2.2
			c0,0.2-0.2,0.2-0.3,0.3C3,23.9,2.7,24,2.3,24.1z"/>
	</g>
</g>
<g id="cache">
	<polygon points="32.9,4.2 32,3.5 20.1,11.1 25.2,15.7 33.7,4.9 	"/>
</g>
<g id="aiguille">
	<polygon class="st4" points="15.7,17.3 32.9,4.3 17.3,19.7 	"/>
	<circle class="st4" cx="16.1" cy="18.7" r="2.9"/>
	<circle cx="16.1" cy="18.7" r="1.5"/>
</g>
<g id="trait_3">
	
		<rect x="35.9" y="40.3" transform="matrix(0.7071 -0.7071 0.7071 0.7071 -16.7144 41.6966)" class="st3" width="12.2" height="1.5"/>
</g>
<g id="trait_2">
	<rect x="40.9" y="27.6" transform="matrix(0.7071 -0.7071 0.7071 0.7071 -7.0916 39.5207)" class="st3" width="6.5" height="1.5"/>
</g>
<g id="trait_1">
	<rect x="2.6" y="42.1" transform="matrix(0.7071 -0.7071 0.7071 0.7071 -28.579 16.7055)" class="st3" width="6.5" height="1.5"/>
</g>
<g id="feu">
	<path class="st2" d="M28.7,33.8c-0.7,1.6-3.5,4-6,5.2c-1.2,0.6-2.1,0.9-3.3,1.4c-0.2,0.1-0.3,0-0.2-0.3c0.4-1.2,0.6-2.3,1.1-3.4
		c0.8-2,1.5-3.6,3.2-4.9c0.4-0.3,0.9-0.6,1.4-0.9c-1.2-0.3-2.9-0.3-5.6,0.6c-3,1.5-5.7,4.2-7.2,7.7c0.7-0.6,1.4-1.1,2.1-1.7
		c0.7-0.5,1.5-1,2.6-1.2c-2.6,3.6-4.1,7.5-5.4,11.7c4.3-1.3,8.1-2.8,11.7-5.2c-0.5,1.8-1.6,3.1-2.8,4.4c3.3-1.6,5.9-3.8,7.5-6.9l0,0
		c0.5-0.8,0.8-1.6,1.1-2.4C29,37.6,29.5,35.3,28.7,33.8z"/>
</g>
<g id="fusee">
	<g>
		<g>
			<path d="M28,21.9c0-0.1-0.4,0-0.6,0c-2.1,0-3.6,0.4-5.3,1.4c-1.3,0.7-2.3,1.8-3.2,3c-0.2,0.4-0.5,0.7-0.7,1.2
				c0,0,2.2-0.8,5.6-0.2c0.6,0.1,0.6,0.2,1.3,0.3C25.3,27.6,26,24.8,28,21.9z"/>
			<path d="M36.7,29.9c0,0,0.1,0.4,0.1,0.6c0.2,2-0.1,3.6-0.9,5.4c-0.6,1.4-1.6,2.4-2.7,3.4c-0.3,0.3-0.7,0.5-1.2,0.7
				c0,0,0.6-2.3-0.3-5.6c-0.2-0.6-0.2-0.7-0.4-1.4C31.4,32.9,33.9,32.2,36.7,29.9z"/>
			<path class="st5" d="M28.8,33.4c-0.1-0.1-3.6-3.3-3.7-3.4l0,0c-0.1,0.1-1.9,2.7-2.4,3.6c0.6-0.2,1.3-0.3,1.9-0.5
				c-1.4,2-2.6,3.8-3.9,5.7l0,0c1.3-0.9,2.5-1.9,3.8-2.8l0,0c-0.2,0.7-0.4,1.4-0.7,2.1c0.1,0,0.2-0.1,0.2-0.2
				c0.8-0.7,1.6-1.4,2.4-2.1c0.7-0.6,2.3-2.1,2.3-2.1C28.9,33.5,28.9,33.5,28.8,33.4z"/>
			<path class="st0" d="M39.5,18.1c-0.8-0.8-2.2-0.8-2.9,0S36,20.3,36.8,21c0.8,0.8,2.2,0.7,2.9,0S40.3,19,39.5,18.1z"/>
			<path d="M40.2,10.9l6.4,5.8c0,0,1.9-4.1,1.3-7.8C47.9,9,43.6,8.8,40.2,10.9z"/>
			<path class="st0" d="M38.7,11.5c-2.1,1.4-3.5,2.6-5.1,4.4c-0.8,0.8-1.6,1.8-2.3,2.7l-1.5,2.2c-0.8,1.4-1.7,2.7-2.3,4.2
				c-0.3,0.7-1.3,2.7-1.3,2.8c0,0,0,0,0.5,0.4c1.5-2.2,2.7-3.8,3.3-4.3c0.3-0.2,0.7-0.5,1.1-0.6c0.9-0.2,2.4,0.9,3.2,1.9
				c0.6,0.8,0.5,1.9,0.3,2.3c-0.1,0.2-0.2,0.3-0.3,0.5c-0.8,0.7-4.1,3.3-4.1,3.3c0.5,0.4,0.5,0.4,0.5,0.5c0.1-0.1,4.2-2.3,5.5-3.2
				c0.4-0.3,2.2-1.7,2.4-1.8c1.1-0.8,2.1-1.8,3-2.8c1.9-2,3.2-3.8,4.4-6.3L38.7,11.5z M40.6,22c-1.3,1.4-3.4,1.4-4.8,0.1
				c-1.5-1.4-1.6-3.5-0.3-4.8c1.3-1.4,3.4-1.4,4.8,0C41.7,18.6,41.9,20.7,40.6,22z"/>
			<path d="M33.3,27.6c1.2-1.2-1.1-3-2-2.8c-0.2,0-0.4,0.1-0.6,0.3c-1.1,0.9-5.5,8.5-5.5,8.5S33.2,27.7,33.3,27.6z"/>
		</g>
	</g>
</g>
</svg>
