<?xml version="1.0" encoding="utf-8"?>
<!-- Generator: Adobe Illustrator 25.2.0, SVG Export Plug-In . SVG Version: 6.00 Build 0)  -->
<svg version="1.1" id="Layer_1" xmlns="http://www.w3.org/2000/svg" xmlns:xlink="http://www.w3.org/1999/xlink" x="0px" y="0px"
	 width="18px" height="18px" viewBox="0 0 18 18" style="enable-background:new 0 0 18 18;" xml:space="preserve">
<style type="text/css">
	.st0{fill:#1D2327;}
</style>
<path class="st0" d="M17.6,15.6L11,9l6.6-6.6c0.5-0.5,0.5-1.4,0-2c-0.5-0.5-1.4-0.5-2,0L9,7L2.4,0.4c-0.5-0.5-1.4-0.5-2,0
	c-0.5,0.5-0.5,1.4,0,2L7,9l-6.6,6.6c-0.5,0.5-0.5,1.4,0,2C0.7,17.9,1,18,1.4,18s0.7-0.1,1-0.4L9,11l6.6,6.6c0.3,0.3,0.6,0.4,1,0.4
	s0.7-0.1,1-0.4C18.1,17,18.1,16.2,17.6,15.6z"/>
</svg>
