<?xml version="1.0" encoding="utf-8"?>
<!-- Generator: Adobe Illustrator 25.2.0, SVG Export Plug-In . SVG Version: 6.00 Build 0)  -->
<svg version="1.1" id="Layer_1" xmlns="http://www.w3.org/2000/svg" xmlns:xlink="http://www.w3.org/1999/xlink" x="0px" y="0px"
	 width="20px" height="20px" viewBox="0 0 20 20" style="enable-background:new 0 0 20 20;" xml:space="preserve">
<style type="text/css">
	.st0{fill:#7335C4;}
</style>
<path class="st0" d="M18.1,4.8c-1.5-1.5-3.1-3.1-4.6-4.6C13.4,0.1,13.2,0,13,0C9.9,0,6.7,0,3.6,0C2.4,0,1.8,0.7,1.8,1.9
	c0,2.7,0,5.4,0,8.1c0,2.7,0,5.5,0,8.2c0,1.1,0.7,1.8,1.8,1.8c4.3,0,8.6,0,12.9,0c1.1,0,1.8-0.7,1.8-1.8c0-4.3,0-8.6,0-12.9
	C18.3,5.1,18.2,5,18.1,4.8z M13.3,2.5C14.1,3.3,15,4.1,15.8,5c-0.8,0-1.6,0-2.5,0C13.3,4.1,13.3,3.3,13.3,2.5z M16.6,18.3
	c-4.4,0-8.8,0-13.2,0c0-5.5,0-11.1,0-16.6c2.7,0,5.5,0,8.2,0c0,0,0,2.2,0,3.2c0,1.1,0.7,1.8,1.8,1.8c1.1,0,2.1,0,3.2,0
	C16.6,10.6,16.6,14.4,16.6,18.3z"/>
<rect x="9.2" y="4.4" transform="matrix(6.123234e-17 -1 1 6.123234e-17 0.583 19.4145)" class="st0" width="1.5" height="10"/>
<rect x="9.2" y="7.4" transform="matrix(6.123234e-17 -1 1 6.123234e-17 -2.417 22.4145)" class="st0" width="1.5" height="10"/>
<rect x="9.2" y="10.4" transform="matrix(6.123234e-17 -1 1 6.123234e-17 -5.417 25.4145)" class="st0" width="1.5" height="10"/>
</svg>
