<?xml version="1.0" encoding="utf-8"?>
<!-- Generator: Adobe Illustrator 25.2.0, SVG Export Plug-In . SVG Version: 6.00 Build 0)  -->
<svg version="1.1" id="Calque_1" xmlns="http://www.w3.org/2000/svg" xmlns:xlink="http://www.w3.org/1999/xlink" x="0px" y="0px"
	 width="20px" height="20px" viewBox="0 0 20 20" style="enable-background:new 0 0 20 20;" xml:space="preserve">
<style type="text/css">
	.st0{fill:#FFFFFF;}
	.st1{fill:none;stroke:#FFFFFF;stroke-width:1.8;stroke-miterlimit:10;}
</style>
<g>
	<g>
		<path class="st0" d="M8.1,2.1c0.2,0.1,0.4,0.2,0.6,0.3C9.1,2.6,9.6,2.7,10,2.7c0.4,0,0.9-0.1,1.3-0.3c0.2-0.1,0.4-0.2,0.6-0.3
			c0.2,0.3,0.4,0.5,0.6,0.8c0.4,0.5,1.1,0.8,1.7,0.9c0.3,0,0.7,0.1,1,0.1c0.1,0.3,0.1,0.7,0.2,1c0.1,0.6,0.5,1.2,1.1,1.6
			c0.3,0.2,0.6,0.4,0.9,0.5c-0.1,0.3-0.2,0.7-0.3,1C17,8.6,17,9.4,17.4,9.9c0.2,0.3,0.3,0.6,0.5,0.9c-0.2,0.2-0.3,0.3-0.5,0.5
			c-0.9,0.8-1,1.7-0.9,2.4c0,0.2,0,0.5,0.1,0.7c-0.3,0.1-0.7,0.2-1,0.3c-0.6,0.2-1.1,0.7-1.4,1.3c-0.2,0.3-0.3,0.6-0.4,1
			c-0.3-0.1-0.6-0.1-0.9-0.2c-0.1,0-0.2,0-0.4,0c-0.6,0-1.1,0.2-1.6,0.5c-0.3,0.2-0.6,0.4-0.8,0.7c-0.2-0.2-0.4-0.3-0.6-0.5
			c-0.6-0.6-1.3-0.7-1.7-0.7c-0.2,0-0.5,0-0.7,0.1c-0.2,0.1-0.4,0.1-0.6,0.1c-0.1-0.2-0.2-0.5-0.3-0.7c-0.2-0.6-0.7-1.4-1.8-1.7
			c-0.2-0.1-0.5-0.1-0.7-0.2c0-0.3,0-0.7,0-1.1c0-0.6-0.2-1.3-0.7-1.8c-0.2-0.3-0.5-0.5-0.7-0.8c0.2-0.3,0.4-0.6,0.5-0.9
			C3,9.3,3.1,8.6,2.9,8C2.8,7.7,2.7,7.4,2.6,7C2.8,6.9,3,6.7,3.3,6.6c1-0.5,1.3-1.4,1.3-2c0-0.3,0.1-0.5,0.1-0.8c0.1,0,0.3,0,0.4,0
			C6,3.9,7.2,3.6,8.1,2.1 M7.7,0C7.5,0,7.3,0.1,7.2,0.3C7,0.6,6.8,0.8,6.6,1.1c-0.3,0.6-0.8,1-1.4,1c-0.1,0-0.2,0-0.3,0
			C4.8,2,4.7,2,4.7,2c-0.2,0-0.5,0-0.7,0.1c-0.6,0-0.8,0.2-0.9,0.8C3,3.4,2.9,3.9,2.8,4.5c0,0.3-0.2,0.4-0.4,0.6
			c-0.5,0.3-1,0.6-1.5,0.9C0.6,6.1,0.5,6.4,0.6,6.8C0.8,7.3,1,7.9,1.1,8.5c0,0.2,0,0.4-0.1,0.6c-0.3,0.5-0.6,1-0.9,1.5
			c-0.2,0.3-0.2,0.6,0.1,0.9c0.4,0.4,0.9,0.8,1.3,1.3c0.1,0.1,0.2,0.4,0.2,0.5c0,0.6-0.1,1.2-0.1,1.8c0,0.5,0.2,0.7,0.6,0.8
			c0.5,0.1,1,0.3,1.5,0.4c0.3,0.1,0.5,0.2,0.6,0.5c0.2,0.5,0.4,1,0.6,1.5c0.2,0.4,0.3,0.6,0.7,0.6c0.1,0,0.2,0,0.3,0
			c0.5-0.1,1-0.2,1.5-0.3c0.1,0,0.2,0,0.3,0c0.2,0,0.4,0.1,0.6,0.2c0.4,0.3,0.7,0.6,1.1,0.9C9.6,19.9,9.8,20,10,20
			c0.2,0,0.4-0.1,0.6-0.3c0.4-0.3,0.8-0.7,1.2-0.9c0.2-0.1,0.4-0.2,0.6-0.2c0,0,0.1,0,0.1,0c0.6,0.1,1.2,0.2,1.7,0.3c0,0,0,0,0.1,0
			c0.4,0,0.6-0.1,0.7-0.4c0.3-0.6,0.5-1.1,0.7-1.7c0.1-0.2,0.2-0.3,0.4-0.4c0.5-0.2,1.1-0.3,1.6-0.5c0.6-0.2,0.7-0.3,0.7-0.9
			c0-0.5,0-1-0.1-1.5c0-0.4,0.1-0.6,0.3-0.8c0.4-0.4,0.8-0.8,1.2-1.2c0.3-0.3,0.3-0.5,0.1-0.9c-0.3-0.5-0.6-1-0.9-1.5
			c-0.1-0.2-0.1-0.5-0.1-0.7c0.1-0.6,0.3-1.1,0.5-1.6c0.2-0.4,0-0.7-0.4-0.9c-0.5-0.3-1-0.6-1.5-0.9c-0.1-0.1-0.3-0.3-0.3-0.5
			c-0.1-0.6-0.2-1.2-0.3-1.8c-0.1-0.4-0.3-0.6-0.7-0.6c-0.6,0-1.1,0-1.7-0.1c-0.2,0-0.4-0.2-0.6-0.3c-0.4-0.4-0.7-0.9-1.1-1.3
			C12.7,0.1,12.5,0,12.3,0c-0.1,0-0.2,0-0.4,0.1c-0.5,0.2-1,0.4-1.4,0.7c-0.2,0.1-0.3,0.1-0.5,0.1c-0.1,0-0.3,0-0.4-0.1
			C9.1,0.5,8.6,0.3,8,0.1C7.9,0,7.8,0,7.7,0L7.7,0z"/>
	</g>
</g>
<line class="st1" x1="7" y1="7" x2="13" y2="13"/>
<line class="st1" x1="13.1" y1="6.9" x2="6.9" y2="13.1"/>
</svg>
