<?xml version="1.0" encoding="utf-8"?>
<!-- Generator: Adobe Illustrator 25.2.0, SVG Export Plug-In . SVG Version: 6.00 Build 0)  -->
<svg version="1.1" id="Calque_1" xmlns="http://www.w3.org/2000/svg" xmlns:xlink="http://www.w3.org/1999/xlink" x="0px" y="0px"
	 width="25px" height="25px" viewBox="0 0 25 25" style="enable-background:new 0 0 25 25;" xml:space="preserve">
<style type="text/css">
	.st0{fill:#2893E9;}
</style>
<path class="st0" d="M12.1,2c0.2,0,0.4,0,0.7,0.1l0.2,1c0.2,2.1,1.8,2.6,2.4,2.8c0.1,0,1.1,0.5,1.6,0.5c0.7,0,1.3-0.3,1.7-0.6
	c0.3-0.2,0.6-0.5,1-0.7c0.2,0.2,0.3,0.3,0.5,0.5c-0.2,0.3-0.7,0.9-0.7,0.9c-0.7,1-0.8,2-0.3,3.1l0.3,0.7c0.4,1.1,1.3,1.8,2.3,1.9
	c0.3,0,1.1,0.2,1.2,0.2l0.1,0.1c0,0.2,0,0.4,0,0.5c-0.1,0-1,0.2-1.3,0.2c-0.6,0-1.7,0.3-2.2,1.8c0,0-0.2,0.6-0.4,0.9L19,16.1
	c-0.4,1.3,0,2.1,0.5,2.6c0.3,0.3,0.5,0.7,0.7,1l-0.5,0.5c-0.2-0.1-0.3-0.2-0.4-0.3c-0.7-0.6-1.5-1-2.3-1c-0.9,0-2.5,0.8-2.5,0.8
	l-0.1,0c-0.3,0.2-1.3,0.8-1.3,2.1c0,0.4-0.2,1.1-0.2,1.1h-0.6c0,0-0.2-0.9-0.3-1.4c-0.1-0.8-0.7-1.6-1.5-2c-0.3-0.1-1.7-0.8-2.4-0.8
	c-0.3,0-1,0-1.7,0.5l-0.9,0.7l-0.5-0.5l0.5-0.7c1.2-1.5,0.9-2.8,0.4-3.6l-0.4-0.9c-0.4-0.8-1.2-1.4-2-1.5C3,12.9,2.5,12.8,2,12.7
	v-0.5c0,0,0.8-0.1,1.2-0.2c0.6,0,1.7-0.3,2.2-1.7c0.1-0.2,0.3-0.7,0.3-0.8c0.7-1,0.6-2.2-0.1-3.1C5.3,6,5,5.7,4.8,5.3l0.5-0.5
	C5.5,5,6.6,6.3,8,6.2c0.7,0,1.2-0.3,1.5-0.4c0,0,0.8-0.3,1-0.5c0.7-0.4,1.1-1,1.2-1.7C11.9,3,12,2.5,12.1,2 M11.3,0
	c-0.9,0-0.9,0-1.1,1.1c-0.1,0.7-0.2,1.4-0.4,2c0,0.2-0.2,0.4-0.4,0.5C9.2,3.8,8.2,4.2,8,4.2c-0.3,0-0.5-0.1-0.7-0.3
	C6.6,3.3,5.9,2.9,5,2.3C4.1,3.2,3.1,4.2,2.2,5.1c0.6,1,1.2,1.8,1.8,2.6c0.2,0.2,0.2,0.4,0,0.7C3.8,8.7,3.3,10,3,10
	c-0.9,0.1-1.7,0.3-2.6,0.4c-0.3,0-0.4,0.2-0.4,0.4c0,1.1,0,2.2,0,3.3c0,0.3,0.1,0.4,0.4,0.4c0.9,0.1,1.8,0.3,2.7,0.5
	c0.2,0,0.9,1.3,0.9,1.3c0.4,0.6,0.2,1-0.2,1.5c-0.5,0.7-1,1.4-1.5,2.1c1,1,1.9,1.9,2.9,2.9c0.8-0.6,1.6-1.2,2.4-1.8
	c0.1-0.1,0.2-0.1,0.4-0.1c0.1,0,1.1,0.4,1.5,0.6c0.2,0.1,0.4,0.3,0.4,0.5c0.2,0.9,0.3,1.8,0.5,2.7c0,0.3,0.2,0.4,0.4,0.4
	c0.6,0,2.8,0,3.3,0c0.3,0,0.4-0.1,0.4-0.4c0.1-0.9,0.3-1.7,0.4-2.6c0-0.3,0.2-0.4,0.5-0.6c0.1-0.1,1.1-0.5,1.4-0.5s0.7,0.2,1,0.5
	c0.6,0.5,1.3,0.9,2,1.4c1-1,1.9-1.9,2.9-2.9c-0.6-0.9-1.2-1.7-1.8-2.5c-0.2-0.2-0.2-0.4-0.1-0.7c0.2-0.4,0.4-0.8,0.5-1.2
	c0.1-0.3,0.2-0.4,0.5-0.4c0.8-0.1,1.6-0.3,2.4-0.4c0.4-0.1,0.6-0.2,0.6-0.6c0.2-0.8,0.1-1.7,0.1-2.6c0,0,0-1-1.1-1.1
	c-0.7-0.1-1.3-0.2-2-0.3c-0.3,0-0.5-0.2-0.6-0.5c-0.1-0.4-0.2-0.7-0.4-1c-0.2-0.4-0.2-0.6,0.1-1c0.6-0.7,1.1-1.5,1.7-2.4
	c-0.9-0.9-1.9-1.9-2.8-2.9C19,3,18.2,3.6,17.4,4.2c-0.1,0.1-0.3,0.2-0.4,0.2c-0.1,0-1.9-0.3-2-1.5c-0.1-0.7-0.2-1.4-0.3-2.1
	c-0.1-0.4,0-0.6-0.6-0.6C13,0.1,12.2,0,11.3,0L11.3,0z"/>
<path class="st0" d="M12.5,9.5c-1.6,0-3,1.3-3,3s1.3,3,3,3s3-1.3,3-3S14.1,9.5,12.5,9.5L12.5,9.5z"/>
</svg>
