<?xml version="1.0" encoding="utf-8"?>
<!-- Generator: Adobe Illustrator 25.2.0, SVG Export Plug-In . SVG Version: 6.00 Build 0)  -->
<svg version="1.1" id="Calque_1" xmlns="http://www.w3.org/2000/svg" xmlns:xlink="http://www.w3.org/1999/xlink" x="0px" y="0px"
	 width="25px" height="25px" viewBox="0 0 25 25" style="enable-background:new 0 0 25 25;" xml:space="preserve">
<style type="text/css">
	.st0{fill:#008A56;}
</style>
<path class="st0" d="M14.2,5.1c1.9,1.2,1.3,4.7,1.2,5.2l-0.4,2l2.1,0.2c0.3,0,2.9,0,3.2,0c2.1,0,2.6,0.4,2.8,1v0.1
	c-0.3,0.9-0.3,1.7-0.3,2.3c0,0.3,0,0.8,0,0.9l-0.2,0.3l-0.1,0.4c-0.1,0.4-0.2,0.8-0.2,1.1c-0.1,0.8-0.2,1.2-0.5,1.5l0,0
	c0,0-0.5,0.9-0.6,1.1c-0.1,0.2-0.2,0.5-0.3,0.7c-0.1,0.3-0.2,0.7-0.3,0.9c-2.2,0-4.5,0-6.7,0h-2.7c-0.3,0-0.6-0.1-0.7-0.2
	c-0.1-0.1-0.1-0.4-0.1-0.6c0-1.1,0.1-3.2,0-7.6c1.3-0.5,2.1-2.8,2.2-3C13.7,9.6,14.2,7.4,14.2,5.1 M13.7,3c-0.8,0-1.4,0.6-1.5,1.5
	c0.2,2.1-0.2,4.2-1.4,6c-0.7,1.2-1,2.3-2.5,2.7c0,0.2,0,6.1,0,8.8c-0.1,1.8,1.1,2.7,2.7,2.7c3.2,0,6.3,0,9.5,0h0.1
	c1.5,0,1.8-1.7,2.2-2.8c0.1-0.2,0.1-0.4,0.2-0.5c1-0.9,0.9-2.2,1.2-3.4c0.9-1.2,0-2.7,0.7-4c0-0.3,0-0.6,0-0.9
	c-0.7-2.3-2.7-2.5-4.7-2.5c-0.7,0-2.8,0-3.1,0c0.5-2.8,0.1-6.5-3-7.5C14.1,3,13.9,3,13.7,3L13.7,3z"/>
<path class="st0" d="M6.6,12.1H0.5c-0.3,0-0.5,0.2-0.5,0.5v11.9C0,24.8,0.2,25,0.5,25h6.1c0.3,0,0.5-0.2,0.5-0.5V12.6
	C7.1,12.3,6.9,12.1,6.6,12.1z M4.2,23c-0.6,0-1.1-0.5-1.1-1.1s0.5-1.1,1.1-1.1s1.1,0.5,1.1,1.1C5.3,22.5,4.8,23,4.2,23z"/>
</svg>
