<?xml version="1.0" encoding="utf-8"?>
<!-- Generator: Adobe Illustrator 25.2.0, SVG Export Plug-In . SVG Version: 6.00 Build 0)  -->
<svg version="1.1" id="Calque_1" xmlns="http://www.w3.org/2000/svg" xmlns:xlink="http://www.w3.org/1999/xlink" x="0px" y="0px"
	 width="30px" height="30px" viewBox="0 0 30 30" style="enable-background:new 0 0 30 30;" xml:space="preserve">
<style type="text/css">
	.st0{fill:#1D2327;}
</style>
<g>
	<path class="st0" d="M23.7,11.2h-2.5V6c0-3.3-2.8-6-6.2-6c-3.4,0-6.2,2.7-6.2,6v5.2H6.3c-1.8,0-3.3,1.5-3.3,3.3v12.2
		C3,28.5,4.5,30,6.3,30h17.4c1.8,0,3.3-1.5,3.3-3.3V14.5C27,12.7,25.5,11.2,23.7,11.2z M10.6,6c0-2.3,2-4.2,4.4-4.2s4.4,1.9,4.4,4.2
		v5.2h-8.8L10.6,6z M25.2,26.7c0,0.8-0.7,1.5-1.5,1.5H6.3c-0.8,0-1.5-0.7-1.5-1.5V14.5c0-0.8,0.7-1.5,1.5-1.5h17.4
		c0.8,0,1.5,0.7,1.5,1.5V26.7z"/>
	<path class="st0" d="M15,16.6c-1.2,0-2.1,0.9-2.1,2.1c0,0.7,0.4,1.4,1,1.8l0.2,0.1v3.1c0,0.5,0.4,1,1,1c0.5,0,1-0.4,1-1v-3l0.2-0.1
		c0.6-0.4,1-1,1-1.8C17.1,17.6,16.2,16.6,15,16.6z"/>
</g>
</svg>
