<?xml version="1.0" encoding="utf-8"?>
<!-- Generator: Adobe Illustrator 19.0.0, SVG Export Plug-In . SVG Version: 6.00 Build 0)  -->
<svg version="1.1" id="Layer_1" xmlns="http://www.w3.org/2000/svg" xmlns:xlink="http://www.w3.org/1999/xlink" x="0px" y="0px"
	 width="20px" height="20px" viewBox="0 0 20 20" enable-background="new 0 0 20 20" xml:space="preserve">
<g id="XMLID_6_">
	
		<circle id="XMLID_5_" fill="#005B9A" stroke="#005B9A" stroke-width="9.375000e-002" stroke-miterlimit="10" cx="10" cy="9.9" r="9.5"/>
	<path id="XMLID_9_" fill="#005B9A" d="M9.4,0c1.9-0.1,3.9,0.3,5.5,1.3c2,1.1,3.6,3,4.4,5.2c0.8,2.2,0.9,4.7,0.1,6.8
		c-0.8,2.2-2.3,4.1-4.3,5.3c-1.6,1-3.5,1.5-5.4,1.4c-2.1-0.1-4.2-0.8-5.8-2.1c-1.8-1.4-3.1-3.4-3.6-5.7C-0.2,10.1,0,7.9,0.9,5.9
		c0.9-2.1,2.6-3.8,4.6-4.9C6.7,0.5,8,0.1,9.4,0 M9.4,1.2C7.3,1.3,5.2,2.2,3.7,3.7C2.3,5.1,1.4,7,1.2,8.9c-0.2,2,0.2,4,1.3,5.7
		c1.1,1.8,2.9,3.2,5,3.8c2,0.6,4.3,0.5,6.2-0.4c1.8-0.8,3.4-2.3,4.3-4.1c0.9-1.7,1.1-3.7,0.8-5.6C18.3,6,16.9,4,15,2.7
		C13.4,1.6,11.4,1,9.4,1.2L9.4,1.2z"/>
	<path id="XMLID_2_" fill="#FFFFFF" stroke="#FFFFFF" stroke-width="9.375000e-002" stroke-miterlimit="10" d="M6.4,4.6
		c1.2-0.8,2.7-1.2,4.2-1.1C11.8,3.7,13,4.2,14,4.9c1.2,0.9,2,2.3,2.3,3.8C16.4,9,16.2,9.3,16,9.3c-0.3,0.1-0.6-0.1-0.7-0.3
		c-0.1-0.2-0.1-0.5-0.2-0.7c-0.4-1.3-1.4-2.4-2.6-3C11.3,4.7,10,4.5,8.8,4.8c-1.6,0.4-3,1.5-3.6,3c0.2-0.1,0.5-0.2,0.7-0.1
		c0.3,0.1,0.5,0.5,0.3,0.8C6.1,8.7,5.9,8.8,5.7,8.8C5.3,9,4.9,9.2,4.4,9.4c-0.2,0.1-0.5,0-0.6-0.2C3.5,8.8,3.2,8.4,2.9,8.1
		C2.8,7.9,2.7,7.8,2.7,7.6c0-0.3,0.4-0.6,0.7-0.5C3.7,7.1,3.8,7.4,4,7.6C4.5,6.4,5.3,5.3,6.4,4.6L6.4,4.6z"/>
	<path id="XMLID_1_" fill="#FFFFFF" stroke="#FFFFFF" stroke-width="9.375000e-002" stroke-miterlimit="10" d="M3.7,11.2
		c0-0.4,0.4-0.7,0.7-0.6c0.3,0.1,0.4,0.3,0.4,0.5c0.3,1.4,1.2,2.6,2.4,3.4c1.1,0.7,2.5,0.9,3.8,0.7c1.7-0.3,3.2-1.5,3.9-3.1
		c-0.2,0.1-0.5,0.2-0.7,0.1c-0.3-0.1-0.5-0.5-0.3-0.8c0.1-0.2,0.3-0.3,0.4-0.3c0.4-0.2,0.9-0.3,1.3-0.5c0.2-0.1,0.5,0,0.7,0.2
		c0.3,0.4,0.6,0.8,0.9,1.2c0.2,0.3,0,0.9-0.4,0.9c-0.3,0-0.6-0.3-0.7-0.5c-0.5,1.3-1.5,2.4-2.7,3.1c-1.4,0.9-3.2,1.1-4.8,0.8
		C6.1,15.7,4.1,13.7,3.7,11.2L3.7,11.2z"/>
</g>
</svg>
