<?xml version="1.0" encoding="utf-8"?>
<!-- Generator: Adobe Illustrator 22.1.0, SVG Export Plug-In . SVG Version: 6.00 Build 0)  -->
<svg version="1.1" id="Layer_1" xmlns="http://www.w3.org/2000/svg" xmlns:xlink="http://www.w3.org/1999/xlink" x="0px" y="0px"
	 viewBox="0 0 40 40" style="enable-background:new 0 0 40 40;" xml:space="preserve">
<style type="text/css">
	.st0{fill:#666666;}
</style>
<path class="st0" d="M34.1,21.9c0.9-1.2,0.9-2.9-0.2-3.9c-0.3-0.3-0.8-0.6-1.3-0.7c0.2-0.4,0.3-0.8,0.3-1.2c0-0.8-0.3-1.5-0.9-2.1
	c-1.1-1.1-2.7-1.2-3.9-0.3c-0.1-0.3-0.3-0.7-0.6-1c-0.6-0.6-1.3-1-2.1-1c-0.8,0-1.5,0.3-2.1,0.8c-0.1-0.1-0.2-0.3-0.3-0.4
	c-0.6-0.6-1.3-1-2.1-1c-0.9,0-1.6,0.3-2.2,0.9l-4.3,4.2c-0.5-1.8-2.2-3-4.1-2.8c-0.5,0-1,0.3-1.3,0.6c-0.8-0.9-2-1.4-3.2-1.2
	c-1.2,0.1-2.1,1.1-2.1,2.3l0,6.2c0,1.6-0.2,3.3-0.6,4.8v0l0,0c-0.9,3,0,6.2,2.2,8.4c2.3,2.3,5.3,3.5,8.5,3.5c0.3,0,0.6,0,0.8,0
	c1.2,0.4,2.5,0.6,3.7,0.6c3.1,0,6.2-1.2,8.5-3.5l8.3-8.3c0.6-0.6,0.9-1.3,0.9-2.1c0-0.8-0.3-1.5-0.9-2.1
	C34.9,22.3,34.5,22.1,34.1,21.9z M20,13.2c0.3-0.3,0.6-0.3,0.9-0.3c0.3,0,0.6,0.2,0.9,0.4c0.1,0.2,0.2,0.4,0.2,0.6l-7.1,7.2
	l-0.2-2.6L20,13.2z M6.6,33.3c-1.8-1.8-2.4-4.3-1.8-6.6l0,0c0.5-1.7,0.7-3.5,0.7-5.3l0-6.2c0-0.3,0.2-0.5,0.5-0.5
	c1.1-0.1,2.1,0.7,2.2,1.8l0.1,1l0,4.5c0,1.6-0.2,3.3-0.6,4.7c0,0,0,0,0,0.1c-0.9,3,0,6.2,2.2,8.4c0.2,0.2,0.5,0.4,0.7,0.6
	C9.1,35.2,7.7,34.4,6.6,33.3z M33.9,25.5l-8.3,8.3c-4,4-10.5,4-14.5,0c-1.7-1.7-2.4-4.2-1.8-6.6v0c0.5-1.8,0.7-3.5,0.7-5.3l0,0l0,0
	v-4.5l0,0v-0.1v-1.6c0-0.3,0.2-0.5,0.5-0.5c1.1-0.1,2.1,0.7,2.2,1.8l0.3,4.3c0.1,0.6,0.5,1.2,1.1,1.4c0.6,0.2,1.3,0,1.8-0.4l8.5-8.5
	c0.3-0.3,0.5-0.4,0.9-0.3c0.3,0,0.6,0.2,0.9,0.4c0.4,0.4,0.3,1.3-0.1,1.8l0,0l0,0l-6.3,6.3c-0.3,0.3-0.3,0.9,0,1.2
	c0.2,0.2,0.4,0.3,0.6,0.3c0.2,0,0.5-0.1,0.6-0.3l6.3-6.3l0,0l1.7-1.7c0.5-0.5,1.2-0.5,1.7,0c0.2,0.2,0.3,0.5,0.3,0.9
	c0,0.3-0.1,0.6-0.3,0.9l-8.1,8c-0.3,0.3-0.3,0.9,0,1.2c0.2,0.2,0.4,0.3,0.6,0.3s0.5-0.1,0.6-0.3l4.5-4.5l2.4-2.4
	c0.5-0.5,1.2-0.5,1.7,0c0.5,0.5,0.5,1.2,0,1.7L31,22.6l0,0l-1.2,1.2l-4.1,4.1c-0.3,0.3-0.3,0.9,0,1.2c0.2,0.2,0.4,0.3,0.6,0.3
	s0.5-0.1,0.6-0.3l5.3-5.3c0.5-0.5,1.2-0.5,1.7,0c0.2,0.2,0.3,0.5,0.3,0.9C34.3,25,34.2,25.3,33.9,25.5z M28.4,7.3l2.2-4.7
	c0.2-0.4,0.7-0.6,1.2-0.4c0.4,0.2,0.6,0.7,0.4,1.2L30,8.1c-0.2,0.3-0.5,0.5-0.8,0.5c-0.1,0-0.3,0-0.4-0.1
	C28.4,8.3,28.2,7.7,28.4,7.3z M23.8,2.5c-0.1-0.5,0.2-0.9,0.6-1.1s0.9,0.1,1.1,0.6l1.3,5C27,7.5,26.7,8,26.2,8.1c-0.1,0-0.2,0-0.2,0
	c-0.4,0-0.7-0.3-0.9-0.6L23.8,2.5z M36.6,8.5L32,10.7c-0.1,0-0.3,0.1-0.4,0.1c-0.3,0-0.6-0.2-0.8-0.5c-0.2-0.4,0-1,0.4-1.2l4.7-2.2
	c0.4-0.2,1,0,1.2,0.4C37.3,7.8,37.1,8.3,36.6,8.5z"/>
</svg>
