<svg xmlns="http://www.w3.org/2000/svg" viewBox="0 0 247.21513 56.25256"><g fill-rule="evenodd" clip-rule="evenodd" fill="#FC0"><path d="M126.70994 5.21096c.59119-2.2064-.72017-4.47778-2.92664-5.06921-2.20647-.59103-4.47784.72015-5.06904 2.92655l-12.85461 47.97347c-.59124 2.20644.72012 4.47773 2.92659 5.06896 2.20647.59123 4.47784-.72015 5.06908-2.92659l12.85462-47.97318zM133.49792 19.8286c.59103-2.20644-.72017-4.47798-2.92664-5.069-2.20647-.59102-4.47784.72015-5.06903 2.92659l-6.42733 23.9867c-.59119 2.2064.72016 4.47773 2.92664 5.06896 2.20647.59122 4.47784-.72015 5.06903-2.92659l6.42733-23.98666zM113.50874 14.47278c.59119-2.20681-.72017-4.47777-2.92664-5.06921-2.20647-.59102-4.47784.72015-5.06904 2.92655l-6.42732 23.98674c-.5912 2.20644.72016 4.47778 2.92663 5.06896 2.20647.59123 4.47784-.72011 5.06904-2.92655l6.42733-23.98649zM141.35017 30.50217c.59103-2.20644-.72015-4.47777-2.92659-5.069-2.20642-.59119-4.47783.72015-5.06927 2.92659l-2.14236 7.99555c-.5912 2.20644.72017 4.47778 2.92668 5.069 2.20642.59119 4.47783-.72015 5.06886-2.92659l2.14268-7.99555zM101.77148 19.89727c.5912-2.20644-.72016-4.47794-2.92663-5.06896-2.20647-.59144-4.47784.72015-5.06904 2.92655l-2.14244 7.99555c-.59124 2.20644.72016 4.47777 2.92664 5.069 2.20643.59119 4.4778-.72015 5.06903-2.92659l2.14244-7.99555z"/></g><g fill="#FFF"><path d="M.07841 36.22443l9.47266-16.82129c.1001-.14941.2251-.27441.4248-.27441h.2251c.1748 0 .2998.125.3501.27441l4.69873 16.82129c.1001.3252-.125.64941-.4751.64941h-2.82422c-.44971 0-.69971-.125-.7998-.625l-.4248-1.97363H5.20244l-.9751 1.99902c-.1499.3252-.47461.59961-.99951.59961H.37822c-.34961 0-.47461-.32422-.29981-.64941zm9.69776-5.34864l-.7749-4.17383h-.0249l-1.99951 4.17383h2.79931zM19.02715 19.85333c.02539-.25.25-.47461.4751-.47461h3.17432c.22461 0 .3999.22461.375.47461l-1.4248 10.32227c-.25 1.75.625 2.94922 1.99951 2.94922 1.49951 0 2.72412-1.19922 2.97412-2.94922l1.4248-10.32227c.0249-.25.2251-.47461.47461-.47461h3.14941c.2251 0 .3999.22461.375.47461l-1.44971 10.52246c-.57471 4.04883-3.29932 6.74805-7.44824 6.74805-3.34912 0-6.09863-2.94922-5.54883-6.74805l1.44971-10.52246zM35.97734 19.85333c.0249-.25.25-.47461.4751-.47461h5.57373c3.94873 0 6.77295 3.72363 6.77295 7.59766 0 5.42383-3.94873 9.89746-9.22266 9.89746h-5.59863c-.22461 0-.375-.22461-.32471-.47461l2.32422-16.5459zm3.92432 13.32129c2.57422 0 4.72363-2.62402 4.72363-5.89844 0-2.34961-1.27441-4.22363-3.29932-4.22363h-1.87451l-1.42432 10.12207h1.87452zM52.92705 19.85333c.0249-.25.25-.47461.4751-.47461h3.12402c.2251 0 .375.22461.3501.47461l-2.32471 16.5459c-.0249.25-.24951.47461-.47461.47461h-3.12451c-.22461 0-.37451-.22461-.34961-.47461l2.32422-16.5459zM68.05058 19.12872c3.87402 0 6.97314 3.49902 6.97314 7.82324 0 5.62305-4.14893 10.17188-9.39746 10.17188-3.84912 0-6.97363-3.44922-6.97363-7.74805 0-5.64843 4.19922-10.24707 9.39795-10.24707zm2.87403 8.29785c0-2.34961-1.39941-4.29883-3.39893-4.29883-2.42432 0-4.77393 2.62402-4.77393 5.72363 0 2.32422 1.3999 4.27344 3.37402 4.27344 2.47462.00001 4.79884-2.5996 4.79884-5.69824z"/></g><g fill="#FFF"><path d="M160.16875 19.85333c.0249-.25.25-.47461.4751-.47461h3.12402c.2251 0 .375.22461.3501.47461l-2.32471 16.5459c-.0249.25-.24951.47461-.47461.47461h-3.12451c-.22461 0-.37451-.22461-.34961-.47461l2.32422-16.5459zM175.31718 19.12872c1.79932 0 3.84912.87402 5.17432 2.34961.19922.1748.1748.47461-.02539.6748l-2.0498 2.02441c-.19971.19922-.5.1748-.6499.02441-.6748-.6748-1.67432-1.09961-2.69922-1.09961-2.42432 0-4.77393 2.64941-4.77393 5.74902 0 2.32422 1.4248 4.27344 3.39941 4.27344.25 0 1.02441-.02441 1.59961-.39941l.19971-1.4502h-1.14941c-.25 0-.3999-.19922-.375-.44922l.34961-2.47461c.05029-.27539.25-.47461.5-.47461h4.67432c.22461 0 .375.22461.34961.47461l-.9248 6.72363c-.0249.22461-.1499.32422-.25.39941 0 0-2.54932 1.64941-5.79834 1.64941-3.87402 0-6.92334-3.54883-6.92334-7.97266-.00001-5.49899 3.92381-10.02243 9.37254-10.02243zM184.41826 19.57794c.02539-.25.27539-.44922.5-.44922h.5498l7.44824 9.64746h.02539l1.19922-8.92285c.02539-.25.22559-.47461.47559-.47461h3.04883c.22559 0 .4248.19922.40039.4248l-2.34961 16.87109c-.02539.24902-.25.44922-.47461.44922h-.625l-7.44824-9.94727h-.02539l-1.125 9.22266c-.0498.25-.24902.47461-.49902.47461h-3.07422c-.2002 0-.40039-.19922-.375-.4248l2.34863-16.87109zM202.24345 19.85333c.02539-.25.25-.47461.47559-.47461h3.12402c.22461 0 .375.22461.34961.47461l-2.32422 16.5459c-.02539.25-.25.47461-.47461.47461h-3.125c-.22461 0-.37402-.22461-.34961-.47461l2.32422-16.5459zM211.64384 23.05255h-3.0498c-.25 0-.39941-.22461-.375-.47461l.40039-2.72461c.02441-.25.25-.47461.47461-.47461h10.09766c.25 0 .39941.22461.375.47461l-.40039 2.72461c-.02441.25-.22461.47461-.47461.47461h-3.07422l-1.87402 13.34668c-.02539.25-.27539.47461-.5.47461h-3.09961c-.22461 0-.39941-.22461-.375-.47461l1.87499-13.34668zM221.99345 19.85333c.02441-.25.25-.47461.47461-.47461h9.42285c.25 0 .40039.22461.375.47461l-.40039 2.72461c-.02441.25-.22461.47461-.47461.47461h-5.94824l-.4502 3.09961h4.84863c.22559 0 .40039.22461.375.47461l-.39941 2.72461c-.0498.27441-.27539.47461-.5.47461h-4.82422l-.47461 3.37402h5.94824c.25 0 .375.22461.35059.47461l-.375 2.72461c-.02539.25-.25.47461-.5.47461h-9.42285c-.25 0-.40039-.22461-.34961-.47461l2.32422-16.5459zM235.59306 19.85333c.02539-.25.25-.47461.47559-.47461h6.74805c2.62402 0 4.39844 2.12402 4.39844 4.69824 0 2.6748-1.52441 4.92383-4.09863 5.72363l2.1748 6.34863c.125.3252-.10059.72461-.47559.72461h-3.22363c-.1748 0-.3252-.09961-.34961-.22461l-2.0498-6.62305h-1.09961l-.90039 6.37305c-.02441.25-.25.47461-.47461.47461h-3.09961c-.24902 0-.39941-.22461-.34961-.47461l2.32421-16.54589zm5.67383 6.99805c1.1748 0 2.02441-1.09961 2.02441-2.29883 0-.875-.44922-1.59961-1.34961-1.59961h-2.87402l-.5498 3.89844h2.74902z"/></g></svg>