<svg id="Layer_1" data-name="Layer 1" xmlns="http://www.w3.org/2000/svg" xmlns:xlink="http://www.w3.org/1999/xlink" viewBox="0 0 311.78 259.73"><defs><style>.cls-1,.cls-2,.cls-5{fill:none;}.cls-2{stroke:#333;}.cls-2,.cls-5{stroke-miterlimit:10;stroke-width:2px;}.cls-3{fill:#a8a8ab;}.cls-4{fill:#010201;}.cls-5{stroke:#252525;}.cls-6{fill:#010101;opacity:0.8;}.cls-7{fill:#212121;}.cls-8{fill:#fff;}.cls-9{clip-path:url(#clip-path);}.cls-10{fill:#d8d8db;}.cls-11{fill:#d6d7db;}.cls-12{fill:#d5d6da;}.cls-13{fill:#d4d5d9;}.cls-14{fill:#d3d4d8;}.cls-15{fill:#d2d3d7;}.cls-16{fill:#d2d2d6;}.cls-17{fill:#d1d1d5;}.cls-18{fill:#d0d0d4;}.cls-19{fill:#cfcfd3;}.cls-20{fill:#ceced2;}.cls-21{fill:#cdcdd2;}.cls-22{fill:#cccdd1;}.cls-23{fill:#cbccd0;}.cls-24{fill:#cbcbcf;}.cls-25{fill:#cacace;}.cls-26{fill:#c9c9cd;}.cls-27{fill:#c8c8cc;}.cls-28{fill:#c7c7cb;}.cls-29{fill:#c6c6ca;}.cls-30{fill:#c5c5c9;}.cls-31{fill:#c4c4c9;}.cls-32{fill:#c4c3c8;}.cls-33{fill:#c3c2c7;}.cls-34{fill:#c2c1c6;}.cls-35{fill:#c1c0c5;}.cls-36{fill:#c0c0c4;}.cls-37{fill:#bfbfc3;}.cls-38{fill:#bebec2;}.cls-39{fill:#bebdc1;}.cls-40{fill:#bdbcc0;}.cls-41{fill:#bcbbc0;}.cls-42{fill:#bbbabf;}.cls-43{fill:#bab9be;}.cls-44{fill:#b9b8bd;}.cls-45{fill:#b8b8bc;}.cls-46{fill:#b8b7bc;}.cls-47{fill:#b7b6bb;}.cls-48{fill:#b6b5ba;}.cls-49{fill:#b5b4b9;}.cls-50{fill:#b4b3b8;}.cls-51{fill:#b3b2b8;}.cls-52{fill:#b3b1b7;}.cls-53{fill:#b2b0b6;}.cls-54{fill:#b1afb5;}.cls-55{fill:#b0aeb4;}.cls-56{fill:#afadb3;}.cls-57{fill:#b3b2b7;}.cls-58{fill:#b6b5b9;}.cls-59{fill:#b7b5ba;}.cls-60{fill:#b8b6bb;}.cls-61{fill:#b9b8bc;}.cls-62{fill:#bab9bd;}.cls-63{fill:#bbbabe;}.cls-64{fill:#bcbbbf;}.cls-65{fill:#bebcc0;}.cls-66{fill:#bfbec2;}.cls-67{fill:#c0bfc3;}.cls-68{fill:#c1c0c4;}.cls-69{fill:#c2c1c5;}.cls-70{fill:#c3c2c6;}.cls-71{fill:#c4c3c6;}.cls-72{fill:#c5c4c7;}.cls-73{fill:#c5c4c8;}.cls-74{fill:#c6c5c9;}.cls-75{fill:#c7c6c9;}.cls-76{fill:#c8c7ca;}.cls-77{fill:#c9c8cc;}.cls-78{fill:#cac9cd;}.cls-79{fill:#cbcacd;}.cls-80{fill:#cccbce;}.cls-81{fill:#cccbcf;}.cls-82{fill:#cdccd0;}.cls-83{fill:#cecdd1;}.cls-84{fill:#cfced1;}.cls-85{fill:#d0cfd2;}.cls-86{fill:#d1d0d4;}.cls-87{fill:#d2d1d4;}.cls-88{fill:#d3d2d5;}.cls-89{fill:#d4d3d6;}.cls-90{fill:#d4d4d7;}.cls-91{fill:#d5d5d7;}.cls-92{fill:#d6d6d8;}.cls-93{fill:#d7d7da;}.cls-94{fill:#d9d9db;}.cls-95{fill:#dadadc;}.cls-96{fill:#dbdbde;}.cls-97{fill:#dcdcdf;}.cls-98{fill:#dddddf;}.cls-99{fill:#dedee0;}.cls-100{fill:#dfdfe1;}.cls-101{fill:#e0e0e2;}.cls-102{fill:#e1e1e3;}.cls-103{fill:#e2e2e4;}.cls-104{fill:#e3e3e5;}.cls-105{fill:#e4e4e6;}.cls-106{fill:#e5e5e6;}.cls-107{fill:#e6e6e8;}.cls-108{fill:#e7e7e9;}.cls-109{fill:#e8e8ea;}.cls-110{fill:#e9e9ea;}.cls-111{fill:#eaeaec;}.cls-112{fill:#ebeced;}.cls-113{fill:#ecedee;}.cls-114{fill:#ededef;}.cls-115{fill:#e9e9eb;}.cls-116{fill:#e5e6e7;}.cls-117{fill:#e3e3e6;}.cls-118{fill:#e2e2e5;}.cls-119{fill:#e1e1e4;}.cls-120{fill:#e0e0e3;}.cls-121{fill:#dfdfe2;}.cls-122{fill:#dedfe1;}.cls-123{fill:#dddee1;}.cls-124{fill:#dbdbdf;}.cls-125{fill:#dadade;}.cls-126{fill:#d9d9dd;}</style><clipPath id="clip-path" transform="translate(27.89 16.7)"><path class="cls-1" d="M53.29,201s-2.12-.82-6.69-.12A39,39,0,0,0,50.08,204,22.44,22.44,0,0,0,53.29,201Z"/></clipPath></defs><path class="cls-2" d="M73.1,219.77v-.54H84.29v1.06L73.16,234.77v.4H84.23v.55H72.55v-1.06l11.13-14.48v-.41Z" transform="translate(27.89 16.7)"/><path class="cls-2" d="M99.05,235.69V219.26h.54v16.43Z" transform="translate(27.89 16.7)"/><path class="cls-2" d="M104.51,219.77v-.54H115.2v.54h-5.07v15.92h-.54V219.77Z" transform="translate(27.89 16.7)"/><path class="cls-2" d="M130.34,235.69V219.26h9.37v.54h-8.83V227H138v.55h-7.16v7.62h8.83v.54Z" transform="translate(27.89 16.7)"/><path class="cls-2" d="M156.46,219.26H157v16.43h-1.73L146.6,219.8h-.92v15.89h-.54V219.26h1.73l8.67,15.89h.92Z" transform="translate(27.89 16.7)"/><path class="cls-2" d="M165.46,219.69a1.92,1.92,0,0,0-2.11,2.12v11.32a1.92,1.92,0,0,0,2.11,2.13h5.43a1.92,1.92,0,0,0,2.11-2.13v-4.79h-3.57v-.54h4.11v5.33a2.43,2.43,0,0,1-2.65,2.67h-5.43a2.43,2.43,0,0,1-2.65-2.67V221.81a2.42,2.42,0,0,1,2.65-2.66h5.43a2.43,2.43,0,0,1,2.65,2.66v.6H173v-.6a1.92,1.92,0,0,0-2.11-2.12Z" transform="translate(27.89 16.7)"/><path class="cls-2" d="M179.37,235.69V219.26h.54v16.43Z" transform="translate(27.89 16.7)"/><path class="cls-2" d="M197.5,219.26H198v16.43h-1.73l-8.67-15.89h-.92v15.89h-.54V219.26h1.73l8.67,15.89h.92Z" transform="translate(27.89 16.7)"/><path class="cls-2" d="M204.31,235.69V219.26h9.37v.54h-8.83V227H212v.55h-7.16v7.62h8.83v.54Z" transform="translate(27.89 16.7)"/><polygon class="cls-3" points="245.05 211.25 229.59 210.68 233.41 215.5 233.58 221.64 245.05 211.25"/><path class="cls-4" d="M217.69,194.36a.79.79,0,0,0,0-.09l0,0a.13.13,0,0,1,0-.06l0,0-.07-.07h0l-.08-.05h0l-.07,0h-.13l-15.46-.56a.55.55,0,0,0-.52.31.57.57,0,0,0,.06.6L205,199l.16,6a.58.58,0,0,0,.34.51.61.61,0,0,0,.42,0,.49.49,0,0,0,.18-.11L217.55,195h0l.05-.06,0,0,0-.06v0l0-.09h0a.34.34,0,0,0,0-.1v-.1s0,0,0,0l0-.1Zm-14.79.23,11.37.42-8.56,3.12Zm3.19,4.6,8.56-3.13-8.43,7.65Z" transform="translate(27.89 16.7)"/><path class="cls-4" d="M201.34,200.31a.57.57,0,1,0-.32.73A.56.56,0,0,0,201.34,200.31Z" transform="translate(27.89 16.7)"/><path class="cls-4" d="M203.21,200.07a.58.58,0,0,0,0-.43.63.63,0,0,0-.28-.32.61.61,0,0,0-.44,0,.57.57,0,0,0-.33.72.57.57,0,0,0,.29.32.58.58,0,0,0,.43,0A.65.65,0,0,0,203.21,200.07Z" transform="translate(27.89 16.7)"/><rect class="cls-5" x="121.47" y="230.07" width="27.51" height="28.15"/><rect class="cls-5" x="151.47" y="230.06" width="94.48" height="28.16"/><rect class="cls-2" x="93.66" y="230.11" width="25.41" height="28.15"/><path class="cls-6" d="M59.93,198.43s3.42,3.41,7,2.34,8.51-3.43,12.07,2.1c0,0-3.31-4-5.28-2.5s0,6-2.62,7.78-5.27.27-6.79,1.42c-2.86,2.17-1.17,5.82-1.17,5.82s-2.92-1.9-8.26-7.52c-1.55-1.62-5.11-7.88-5.27-10.36a13.68,13.68,0,0,1,5.57.62C58.7,199.11,59.93,198.43,59.93,198.43Z" transform="translate(27.89 16.7)"/><path class="cls-7" d="M62.48,242.43c-.14-.25-.38-.45-.53-.7-.39-.64-.9-1-1.08-1.67a7.31,7.31,0,0,0-.57-1.57,2.55,2.55,0,0,1-.21-.75c0-1,0-2-.05-3a23.64,23.64,0,0,0-.52-5,36,36,0,0,1-1.1-3.81c-.12-.74-.08-1.51-.21-2.25-.25-1.5-.56-3-.83-4.38.27-.26,1.08-.46,1.16-.77A6.84,6.84,0,0,0,59,216c-.12-1.15-.42-2.09.21-3a3.56,3.56,0,0,0,.35-.67,3.76,3.76,0,0,0,.06-3.75,12.77,12.77,0,0,0-.63-1.35,1.29,1.29,0,0,1-.22-.89,3.55,3.55,0,0,0-.69-3.44,1.82,1.82,0,0,1-.34-1.48,2.51,2.51,0,0,0-.07-1c-.43-1.47-1-2.4-2.42-2.5-.35,0-.66,0-.94-.09a7.58,7.58,0,0,1-1.12-.25c-1.73-.54-1.7-1.47-1.7-1.47l.31-.21,0-1.12a3.08,3.08,0,0,1,0-.74c.06-.4.26-.41.34-1,0-.33-.17-.39-.17-.39h0c0-.11,0-.22,0-.33a2.63,2.63,0,0,1,.4-1.15h0a2.58,2.58,0,0,1,.69-.71c.11-.08.21-.18.36-.31h-.71l.59-.61c-1,0-1.93-.16-2.83-.13a16.21,16.21,0,0,0-2.39.35c-.51.1-.71.43-.71,1s0,1-.07,1.65a.57.57,0,0,0-.29.61,1.63,1.63,0,0,0,.34.76c0,.7.07,1.33.06,2,0,1.07-1.85,1.74-3.2,2.1l-.62.15-1.23.3a4.59,4.59,0,0,0-1.26.65A2.93,2.93,0,0,0,39.84,202a2.19,2.19,0,0,1-.3,1.36,3.83,3.83,0,0,0-.48,3.44,1.25,1.25,0,0,1-.13.86,7.57,7.57,0,0,0-1,2.31,10.73,10.73,0,0,0,.09,1.49,9.47,9.47,0,0,0,1.2,3.24,1.87,1.87,0,0,1,.15,1,7.51,7.51,0,0,0,.48,3.25.91.91,0,0,0,1.6.41c.29-.27.54-.57.84-.82a.65.65,0,0,0,.19-.92.56.56,0,0,1,0-.47c.38-.78.37-.88-.36-1.42A2.17,2.17,0,0,1,41,213.52a4.47,4.47,0,0,1,.35-1.11,4.37,4.37,0,0,0,.37-2.71.89.89,0,0,1,.15-.43.75.75,0,0,0,.07-.12,11.65,11.65,0,0,0,1.08-3.85,20.91,20.91,0,0,0,1.65,2.62,19.69,19.69,0,0,0,1.59,1.91,1,1,0,0,1,.18.58,8.12,8.12,0,0,1-1,4.42,20.09,20.09,0,0,0-2.3,9.69,6.59,6.59,0,0,1-.88,4c-1.22,2-1.13,3.47-1.1,6.05a8.6,8.6,0,0,1-.52,4.13c-.61,1.29-.29,1.63-1.08,2.86-.31.48-.61,1-.91,1.46h4.62a1.71,1.71,0,0,0,0-.36,12.48,12.48,0,0,1-.38-3.44A5,5,0,0,1,44,235.78a8.74,8.74,0,0,0,1.86-5,10.19,10.19,0,0,1,.55-3.38c.09-.21.09-.46.19-.67a6.54,6.54,0,0,1,.69-1.24,37.71,37.71,0,0,0,3.06-7c0-.12.19-.2.28-.3a1.26,1.26,0,0,1,.23.3c.28,1,2,4.9,3.16,6.18a6.59,6.59,0,0,1,1,1.11,4.65,4.65,0,0,1,.43,3.67,3.77,3.77,0,0,0,.67,3.33,7.8,7.8,0,0,1,1.94,4.88c0,1.38-.31,4.23-.43,5.39h5A1,1,0,0,0,62.48,242.43Zm-5.83-24.75a9.29,9.29,0,0,1-.27-.94s.38-.56.54-.33S56.7,217.72,56.65,217.68Zm0-2.37c-.26.26-.39.48-.72.86a49.72,49.72,0,0,0-2.28-4.7,8.38,8.38,0,0,1,1.44-5.4c.25,1.61,1.42,2.17,1.32,3.15a4.61,4.61,0,0,0,.67,2.4A3.73,3.73,0,0,1,56.62,215.31Z" transform="translate(27.89 16.7)"/><path d="M53.91,197.65l-.72-.14a7.58,7.58,0,0,0,1.12.25Z" transform="translate(27.89 16.7)"/><path d="M43.69,197.94l.62-.15Z" transform="translate(27.89 16.7)"/><path d="M42.94,198.11l-.48.13,1.23-.3Z" transform="translate(27.89 16.7)"/><path class="cls-8" d="M39.3,204.89c.23-1.67,1.17-1.64,1.27-2.11.28-1-.48-1.91.09-2.67,1-1.42,2.31-1.93,4.38-2.28a1.06,1.06,0,0,0,.4-.31,17.82,17.82,0,0,1-2.47.66,4.63,4.63,0,0,0-1.75.79,2.93,2.93,0,0,0-1.36,3.11,2.16,2.16,0,0,1-.29,1.37,3.87,3.87,0,0,0-.49,3.44,1.26,1.26,0,0,1-.12.86,7.6,7.6,0,0,0-1,2.3,10.61,10.61,0,0,0,.13,1.75,5.37,5.37,0,0,1,.35-2.12C39.84,206.63,38.92,207.27,39.3,204.89Z" transform="translate(27.89 16.7)"/><g class="cls-9"><rect class="cls-10" x="74.49" y="216.89" width="6.69" height="3.78"/><path class="cls-10" d="M53,200.3c1.89,3.3,2.06,6.77.37,7.74s-4.6-.92-6.49-4.22-2.06-6.78-.37-7.75S51.11,197,53,200.3Z" transform="translate(27.89 16.7)"/><path class="cls-11" d="M53,200.31c1.89,3.29,2,6.74.37,7.7s-4.57-.92-6.46-4.2-2-6.74-.37-7.71S51.11,197,53,200.31Z" transform="translate(27.89 16.7)"/><path class="cls-12" d="M53,200.32c1.87,3.27,2,6.7.36,7.66s-4.54-.91-6.42-4.18-2-6.7-.37-7.66S51.1,197.05,53,200.32Z" transform="translate(27.89 16.7)"/><ellipse class="cls-13" cx="49.95" cy="202.06" rx="3.47" ry="6.79" transform="translate(-65.97 68.28) rotate(-29.82)"/><path class="cls-14" d="M52.94,200.34c1.86,3.23,2,6.63.37,7.58s-4.5-.91-6.36-4.14-2-6.63-.36-7.58S51.09,197.1,52.94,200.34Z" transform="translate(27.89 16.7)"/><path class="cls-15" d="M52.93,200.35c1.84,3.21,2,6.59.36,7.53S48.81,207,47,203.77s-2-6.59-.36-7.54S51.08,197.13,52.93,200.35Z" transform="translate(27.89 16.7)"/><path class="cls-16" d="M52.91,200.36c1.84,3.2,2,6.55.36,7.49S48.82,207,47,203.76s-2-6.56-.36-7.5S51.08,197.16,52.91,200.36Z" transform="translate(27.89 16.7)"/><path class="cls-17" d="M52.89,200.36c1.83,3.19,2,6.53.36,7.46s-4.42-.89-6.25-4.07-2-6.52-.36-7.45S51.07,197.18,52.89,200.36Z" transform="translate(27.89 16.7)"/><path class="cls-18" d="M52.88,200.37c1.81,3.17,2,6.49.35,7.42s-4.4-.88-6.21-4-2-6.48-.36-7.41S51.06,197.21,52.88,200.37Z" transform="translate(27.89 16.7)"/><path class="cls-19" d="M52.86,200.38c1.81,3.15,2,6.45.36,7.38s-4.38-.88-6.19-4-2-6.45-.35-7.37S51.06,197.24,52.86,200.38Z" transform="translate(27.89 16.7)"/><path class="cls-20" d="M52.85,200.39c1.79,3.13,1.95,6.42.35,7.33s-4.35-.87-6.15-4-1.95-6.41-.35-7.33S51.05,197.26,52.85,200.39Z" transform="translate(27.89 16.7)"/><path class="cls-21" d="M52.83,200.4c1.78,3.11,1.94,6.38.35,7.29s-4.33-.86-6.11-4-1.94-6.37-.35-7.29S51,197.29,52.83,200.4Z" transform="translate(27.89 16.7)"/><path class="cls-22" d="M52.81,200.41c1.78,3.1,1.93,6.34.35,7.25s-4.3-.86-6.08-4-1.93-6.34-.35-7.25S51,197.32,52.81,200.41Z" transform="translate(27.89 16.7)"/><path class="cls-23" d="M52.8,200.42c1.76,3.08,1.92,6.31.34,7.21s-4.28-.86-6-3.94-1.92-6.3-.35-7.2S51,197.34,52.8,200.42Z" transform="translate(27.89 16.7)"/><path class="cls-24" d="M52.78,200.43c1.75,3.06,1.91,6.27.34,7.17s-4.25-.86-6-3.91-1.91-6.27-.35-7.17S51,197.37,52.78,200.43Z" transform="translate(27.89 16.7)"/><path class="cls-25" d="M52.76,200.44c1.75,3,1.9,6.23.35,7.13s-4.23-.85-6-3.89-1.9-6.24-.34-7.13S51,197.4,52.76,200.44Z" transform="translate(27.89 16.7)"/><path class="cls-26" d="M52.75,200.45c1.73,3,1.88,6.2.34,7.08s-4.21-.84-5.94-3.86-1.89-6.2-.34-7.09S51,197.42,52.75,200.45Z" transform="translate(27.89 16.7)"/><ellipse class="cls-27" cx="49.95" cy="202.06" rx="3.21" ry="6.28" transform="translate(-65.97 68.28) rotate(-29.82)"/><path class="cls-28" d="M52.72,200.47c1.71,3,1.86,6.12.33,7s-4.16-.83-5.87-3.82-1.86-6.13-.34-7S51,197.48,52.72,200.47Z" transform="translate(27.89 16.7)"/><path class="cls-29" d="M52.7,200.48c1.7,3,1.85,6.09.33,7s-4.13-.83-5.83-3.8-1.86-6.09-.34-7S51,197.51,52.7,200.48Z" transform="translate(27.89 16.7)"/><path class="cls-30" d="M52.68,200.49c1.7,2.95,1.85,6,.34,6.92s-4.11-.83-5.81-3.78-1.84-6-.33-6.92S51,197.53,52.68,200.49Z" transform="translate(27.89 16.7)"/><path class="cls-31" d="M52.67,200.5c1.68,2.93,1.83,6,.33,6.87s-4.09-.81-5.77-3.75-1.83-6-.33-6.88S51,197.56,52.67,200.5Z" transform="translate(27.89 16.7)"/><path class="cls-32" d="M52.65,200.51c1.67,2.91,1.82,6,.33,6.83s-4.06-.81-5.73-3.73-1.83-6-.33-6.84S51,197.59,52.65,200.51Z" transform="translate(27.89 16.7)"/><path class="cls-33" d="M52.63,200.51c1.67,2.91,1.81,6,.33,6.8s-4-.81-5.7-3.71-1.81-5.94-.32-6.8S51,197.61,52.63,200.51Z" transform="translate(27.89 16.7)"/><path class="cls-34" d="M52.62,200.52c1.65,2.89,1.8,5.91.32,6.76s-4-.8-5.66-3.69-1.8-5.91-.33-6.75S51,197.64,52.62,200.52Z" transform="translate(27.89 16.7)"/><ellipse class="cls-35" cx="49.95" cy="202.06" rx="3.06" ry="5.98" transform="translate(-65.97 68.28) rotate(-29.82)"/><path class="cls-36" d="M52.59,200.54c1.63,2.85,1.77,5.84.32,6.68s-4-.8-5.6-3.65-1.78-5.83-.32-6.67S51,197.69,52.59,200.54Z" transform="translate(27.89 16.7)"/><path class="cls-37" d="M52.57,200.55c1.62,2.83,1.76,5.8.32,6.63s-3.94-.79-5.56-3.62-1.77-5.8-.32-6.63S51,197.72,52.57,200.55Z" transform="translate(27.89 16.7)"/><path class="cls-38" d="M52.55,200.56c1.62,2.81,1.76,5.77.32,6.59s-3.91-.78-5.53-3.6S45.59,197.79,47,197,50.94,197.75,52.55,200.56Z" transform="translate(27.89 16.7)"/><path class="cls-39" d="M52.54,200.57c1.6,2.8,1.74,5.73.31,6.55s-3.89-.78-5.49-3.58S45.62,197.82,47,197,50.93,197.77,52.54,200.57Z" transform="translate(27.89 16.7)"/><path class="cls-40" d="M52.52,200.58c1.59,2.78,1.73,5.69.31,6.51s-3.86-.78-5.45-3.55-1.74-5.7-.32-6.51S50.93,197.8,52.52,200.58Z" transform="translate(27.89 16.7)"/><ellipse class="cls-41" cx="49.95" cy="202.06" rx="2.95" ry="5.76" transform="translate(-65.97 68.28) rotate(-29.82)"/><path class="cls-42" d="M52.49,200.6c1.57,2.74,1.71,5.62.31,6.42s-3.82-.76-5.39-3.5-1.71-5.62-.31-6.43S50.91,197.86,52.49,200.6Z" transform="translate(27.89 16.7)"/><path class="cls-43" d="M52.47,200.61c1.56,2.72,1.7,5.58.31,6.38s-3.79-.76-5.36-3.48-1.7-5.59-.3-6.39S50.91,197.88,52.47,200.61Z" transform="translate(27.89 16.7)"/><path class="cls-44" d="M52.45,200.62c1.56,2.71,1.69,5.54.31,6.34s-3.77-.75-5.32-3.46-1.69-5.55-.3-6.35S50.9,197.91,52.45,200.62Z" transform="translate(27.89 16.7)"/><ellipse class="cls-45" cx="49.95" cy="202.06" rx="2.87" ry="5.62" transform="translate(-65.97 68.28) rotate(-29.82)"/><path class="cls-46" d="M52.42,200.64c1.53,2.67,1.67,5.47.3,6.26s-3.71-.75-5.25-3.42-1.66-5.48-.3-6.26S50.89,198,52.42,200.64Z" transform="translate(27.89 16.7)"/><path class="cls-47" d="M52.41,200.65c1.52,2.65,1.65,5.43.29,6.21s-3.69-.74-5.21-3.39-1.66-5.44-.3-6.22S50.88,198,52.41,200.65Z" transform="translate(27.89 16.7)"/><path class="cls-48" d="M52.39,200.65c1.51,2.64,1.65,5.41.3,6.18s-3.67-.73-5.18-3.37-1.65-5.4-.3-6.18S50.88,198,52.39,200.65Z" transform="translate(27.89 16.7)"/><path class="cls-49" d="M52.37,200.66c1.51,2.62,1.64,5.37.3,6.14s-3.64-.73-5.15-3.35-1.63-5.37-.29-6.14S50.87,198,52.37,200.66Z" transform="translate(27.89 16.7)"/><path class="cls-50" d="M52.36,200.67c1.49,2.61,1.62,5.33.29,6.1S49,206,47.54,203.44s-1.62-5.33-.29-6.09S50.86,198.07,52.36,200.67Z" transform="translate(27.89 16.7)"/><path class="cls-51" d="M52.34,200.68c1.48,2.59,1.61,5.3.29,6.06S49,206,47.56,203.43s-1.62-5.29-.3-6.05S50.86,198.1,52.34,200.68Z" transform="translate(27.89 16.7)"/><path class="cls-52" d="M52.32,200.69c1.48,2.57,1.61,5.26.29,6s-3.57-.72-5-3.29-1.6-5.26-.29-6S50.85,198.13,52.32,200.69Z" transform="translate(27.89 16.7)"/><path class="cls-53" d="M52.31,200.7c1.46,2.55,1.59,5.22.29,6s-3.55-.71-5-3.26-1.59-5.22-.29-6S50.85,198.15,52.31,200.7Z" transform="translate(27.89 16.7)"/><path class="cls-54" d="M52.29,200.71c1.45,2.53,1.58,5.19.29,5.93s-3.52-.7-5-3.24-1.58-5.18-.28-5.93S50.84,198.18,52.29,200.71Z" transform="translate(27.89 16.7)"/><path class="cls-55" d="M52.28,200.72c1.44,2.51,1.56,5.15.28,5.89s-3.5-.7-4.94-3.21-1.57-5.16-.28-5.89S50.83,198.21,52.28,200.72Z" transform="translate(27.89 16.7)"/><path class="cls-56" d="M52.26,200.73c1.43,2.5,1.56,5.11.28,5.85s-3.47-.7-4.9-3.19-1.56-5.12-.28-5.85S50.83,198.23,52.26,200.73Z" transform="translate(27.89 16.7)"/><path class="cls-56" d="M52.24,200.74c1.43,2.48,1.55,5.08.28,5.81s-3.45-.69-4.87-3.17-1.54-5.08-.28-5.81S50.82,198.26,52.24,200.74Z" transform="translate(27.89 16.7)"/><path class="cls-55" d="M52.22,200.75c1.41,2.46,1.53,5,.28,5.75s-3.42-.68-4.83-3.14-1.53-5-.27-5.75S50.81,198.3,52.22,200.75Z" transform="translate(27.89 16.7)"/><path class="cls-54" d="M52.2,200.76c1.39,2.44,1.52,5,.27,5.7s-3.38-.68-4.77-3.11-1.52-5-.28-5.69S50.8,198.33,52.2,200.76Z" transform="translate(27.89 16.7)"/><path class="cls-53" d="M52.18,200.78c1.38,2.4,1.5,4.93.27,5.64s-3.35-.67-4.73-3.08-1.5-4.93-.27-5.64S50.8,198.37,52.18,200.78Z" transform="translate(27.89 16.7)"/><path class="cls-52" d="M52.15,200.79c1.37,2.38,1.49,4.88.27,5.58s-3.31-.66-4.68-3-1.49-4.89-.27-5.59S50.79,198.41,52.15,200.79Z" transform="translate(27.89 16.7)"/><path class="cls-57" d="M52.13,200.8c1.36,2.36,1.47,4.84.27,5.53s-3.28-.66-4.64-3-1.47-4.83-.26-5.52S50.78,198.44,52.13,200.8Z" transform="translate(27.89 16.7)"/><path class="cls-50" d="M52.11,200.82c1.34,2.33,1.46,4.78.26,5.47s-3.24-.65-4.58-3-1.46-4.78-.27-5.47S50.77,198.48,52.11,200.82Z" transform="translate(27.89 16.7)"/><path class="cls-49" d="M52.09,200.83c1.32,2.31,1.44,4.73.26,5.41s-3.22-.64-4.54-3-1.44-4.74-.26-5.42S50.76,198.52,52.09,200.83Z" transform="translate(27.89 16.7)"/><path class="cls-58" d="M52.07,200.84c1.31,2.29,1.42,4.69.25,5.36s-3.18-.64-4.49-2.93-1.43-4.68-.26-5.35S50.75,198.55,52.07,200.84Z" transform="translate(27.89 16.7)"/><path class="cls-59" d="M52,200.85c1.3,2.27,1.42,4.64.26,5.31s-3.15-.63-4.45-2.9-1.41-4.64-.25-5.3S50.75,198.59,52,200.85Z" transform="translate(27.89 16.7)"/><ellipse class="cls-60" cx="49.95" cy="202.06" rx="2.39" ry="4.67" transform="translate(-65.97 68.28) rotate(-29.82)"/><path class="cls-46" d="M52,200.88c1.27,2.21,1.38,4.54.25,5.19s-3.08-.62-4.35-2.83-1.39-4.54-.25-5.19S50.73,198.66,52,200.88Z" transform="translate(27.89 16.7)"/><path class="cls-61" d="M52,200.89c1.25,2.19,1.36,4.49.24,5.14s-3-.61-4.3-2.81-1.37-4.49-.25-5.13S50.72,198.7,52,200.89Z" transform="translate(27.89 16.7)"/><path class="cls-62" d="M52,200.9c1.25,2.17,1.36,4.45.25,5.08s-3-.6-4.26-2.77-1.35-4.44-.24-5.08S50.71,198.74,52,200.9Z" transform="translate(27.89 16.7)"/><path class="cls-63" d="M51.93,200.92c1.23,2.14,1.34,4.39.24,5s-3-.6-4.21-2.74-1.33-4.39-.24-5S50.7,198.77,51.93,200.92Z" transform="translate(27.89 16.7)"/><path class="cls-64" d="M51.91,200.93c1.22,2.12,1.32,4.34.24,5s-2.95-.59-4.16-2.71-1.33-4.35-.24-5S50.69,198.81,51.91,200.93Z" transform="translate(27.89 16.7)"/><path class="cls-40" d="M51.89,200.94c1.2,2.1,1.31,4.3.23,4.91s-2.91-.58-4.11-2.68-1.31-4.29-.24-4.91S50.69,198.85,51.89,200.94Z" transform="translate(27.89 16.7)"/><path class="cls-65" d="M51.87,201c1.18,2.07,1.29,4.24.23,4.85s-2.88-.58-4.07-2.65-1.29-4.25-.23-4.85S50.68,198.88,51.87,201Z" transform="translate(27.89 16.7)"/><path class="cls-39" d="M51.84,201c1.18,2.05,1.28,4.19.23,4.8s-2.84-.57-4-2.62-1.28-4.2-.23-4.8S50.67,198.92,51.84,201Z" transform="translate(27.89 16.7)"/><path class="cls-66" d="M51.82,201c1.16,2,1.26,4.15.23,4.74s-2.82-.56-4-2.59-1.26-4.14-.22-4.74S50.66,199,51.82,201Z" transform="translate(27.89 16.7)"/><path class="cls-67" d="M51.8,201c1.15,2,1.25,4.1.22,4.69s-2.78-.56-3.92-2.56-1.25-4.1-.23-4.68S50.65,199,51.8,201Z" transform="translate(27.89 16.7)"/><path class="cls-68" d="M51.78,201c1.13,2,1.23,4.05.22,4.63s-2.75-.55-3.88-2.53-1.23-4.05-.22-4.63S50.64,199,51.78,201Z" transform="translate(27.89 16.7)"/><path class="cls-69" d="M51.76,201c1.11,1.95,1.21,4,.22,4.57s-2.72-.54-3.84-2.49-1.22-4-.22-4.58S50.64,199.07,51.76,201Z" transform="translate(27.89 16.7)"/><path class="cls-70" d="M51.73,201c1.11,1.93,1.21,3.95.22,4.52s-2.68-.54-3.79-2.47-1.2-4-.21-4.51S50.63,199.1,51.73,201Z" transform="translate(27.89 16.7)"/><path class="cls-71" d="M51.71,201c1.09,1.91,1.19,3.91.22,4.47s-2.65-.54-3.74-2.44-1.19-3.9-.22-4.46S50.62,199.14,51.71,201Z" transform="translate(27.89 16.7)"/><path class="cls-72" d="M51.69,201.06c1.08,1.88,1.17,3.85.21,4.4s-2.61-.52-3.69-2.4S47,199.21,48,198.65,50.61,199.18,51.69,201.06Z" transform="translate(27.89 16.7)"/><path class="cls-73" d="M51.67,201.07c1.06,1.86,1.15,3.8.21,4.35s-2.59-.52-3.65-2.37-1.16-3.81-.21-4.35S50.6,199.21,51.67,201.07Z" transform="translate(27.89 16.7)"/><path class="cls-74" d="M51.64,201.08c1.06,1.84,1.15,3.76.21,4.3s-2.55-.52-3.6-2.35-1.14-3.75-.2-4.29S50.59,199.25,51.64,201.08Z" transform="translate(27.89 16.7)"/><path class="cls-75" d="M51.62,201.1c1,1.8,1.13,3.7.21,4.23s-2.52-.5-3.56-2.31-1.12-3.71-.2-4.24S50.59,199.29,51.62,201.1Z" transform="translate(27.89 16.7)"/><path class="cls-76" d="M51.6,201.11c1,1.78,1.11,3.65.2,4.18s-2.48-.5-3.5-2.28-1.12-3.66-.21-4.18S50.58,199.32,51.6,201.11Z" transform="translate(27.89 16.7)"/><path class="cls-77" d="M51.58,201.12c1,1.76,1.1,3.61.2,4.13s-2.45-.5-3.46-2.26-1.1-3.6-.2-4.12S50.57,199.36,51.58,201.12Z" transform="translate(27.89 16.7)"/><path class="cls-78" d="M51.56,201.13c1,1.74,1.08,3.56.19,4.07s-2.41-.48-3.41-2.22-1.08-3.56-.2-4.07S50.56,199.4,51.56,201.13Z" transform="translate(27.89 16.7)"/><path class="cls-79" d="M51.53,201.15c1,1.71,1.07,3.51.2,4s-2.39-.48-3.37-2.19-1.07-3.51-.19-4S50.55,199.43,51.53,201.15Z" transform="translate(27.89 16.7)"/><path class="cls-80" d="M51.51,201.16c1,1.69,1.05,3.46.19,4s-2.35-.48-3.32-2.16-1.05-3.46-.19-4S50.54,199.47,51.51,201.16Z" transform="translate(27.89 16.7)"/><path class="cls-81" d="M51.49,201.17c.95,1.67,1,3.41.19,3.9s-2.32-.46-3.27-2.13-1-3.41-.19-3.9S50.53,199.51,51.49,201.17Z" transform="translate(27.89 16.7)"/><path class="cls-82" d="M51.47,201.18c.94,1.65,1,3.37.18,3.85s-2.28-.46-3.22-2.1-1-3.36-.19-3.84S50.53,199.54,51.47,201.18Z" transform="translate(27.89 16.7)"/><path class="cls-83" d="M51.44,201.2c.93,1.61,1,3.31.19,3.79s-2.25-.46-3.18-2.07-1-3.31-.18-3.79S50.52,199.58,51.44,201.2Z" transform="translate(27.89 16.7)"/><path class="cls-84" d="M51.42,201.21c.92,1.59,1,3.26.18,3.73s-2.21-.44-3.13-2-1-3.27-.18-3.74S50.51,199.62,51.42,201.21Z" transform="translate(27.89 16.7)"/><path class="cls-85" d="M51.4,201.22c.9,1.57,1,3.22.18,3.68s-2.18-.44-3.08-2-1-3.21-.18-3.67S50.5,199.65,51.4,201.22Z" transform="translate(27.89 16.7)"/><path class="cls-86" d="M51.38,201.24c.88,1.54,1,3.16.17,3.62s-2.15-.44-3-2-1-3.17-.18-3.62S50.49,199.69,51.38,201.24Z" transform="translate(27.89 16.7)"/><path class="cls-87" d="M51.36,201.25c.87,1.52,1,3.11.17,3.56s-2.12-.42-3-1.94-.95-3.12-.17-3.57S50.48,199.73,51.36,201.25Z" transform="translate(27.89 16.7)"/><path class="cls-88" d="M51.33,201.26c.86,1.5.94,3.07.17,3.51s-2.08-.42-2.94-1.92-.93-3.06-.17-3.5S50.48,199.76,51.33,201.26Z" transform="translate(27.89 16.7)"/><path class="cls-89" d="M51.31,201.27c.85,1.48.92,3,.17,3.46s-2-.42-2.9-1.89-.91-3-.16-3.45S50.47,199.8,51.31,201.27Z" transform="translate(27.89 16.7)"/><path class="cls-90" d="M51.29,201.29c.83,1.45.9,3,.16,3.39s-2-.4-2.84-1.85-.91-3-.17-3.4S50.46,199.84,51.29,201.29Z" transform="translate(27.89 16.7)"/><path class="cls-91" d="M51.27,201.3c.81,1.42.89,2.92.16,3.34s-2-.4-2.8-1.82-.89-2.92-.16-3.34S50.45,199.87,51.27,201.3Z" transform="translate(27.89 16.7)"/><path class="cls-92" d="M51.25,201.31c.8,1.4.87,2.87.15,3.28s-1.95-.39-2.75-1.79-.87-2.87-.16-3.28S50.44,199.91,51.25,201.31Z" transform="translate(27.89 16.7)"/><path class="cls-93" d="M51.22,201.33c.79,1.37.86,2.82.16,3.22s-1.92-.38-2.71-1.76-.86-2.82-.15-3.23S50.43,200,51.22,201.33Z" transform="translate(27.89 16.7)"/><path class="cls-10" d="M51.2,201.34c.78,1.35.85,2.77.15,3.17s-1.88-.38-2.65-1.73-.85-2.78-.16-3.17S50.42,200,51.2,201.34Z" transform="translate(27.89 16.7)"/><ellipse class="cls-94" cx="49.95" cy="202.06" rx="1.42" ry="2.77" transform="translate(-65.97 68.28) rotate(-29.82)"/><path class="cls-95" d="M51.16,201.36c.75,1.31.81,2.68.14,3.06s-1.81-.36-2.56-1.67-.82-2.67-.15-3.06S50.41,200.06,51.16,201.36Z" transform="translate(27.89 16.7)"/><path class="cls-96" d="M51.13,201.38c.74,1.28.8,2.62.15,3s-1.78-.36-2.52-1.64-.8-2.63-.14-3S50.4,200.09,51.13,201.38Z" transform="translate(27.89 16.7)"/><path class="cls-97" d="M51.11,201.39c.72,1.26.79,2.58.14,2.94s-1.75-.35-2.47-1.6-.78-2.58-.14-2.95S50.39,200.13,51.11,201.39Z" transform="translate(27.89 16.7)"/><path class="cls-98" d="M51.09,201.4c.71,1.24.77,2.53.14,2.89s-1.72-.34-2.42-1.58-.77-2.52-.14-2.89S50.38,200.17,51.09,201.4Z" transform="translate(27.89 16.7)"/><path class="cls-99" d="M51.07,201.41c.69,1.21.75,2.48.13,2.84s-1.68-.34-2.37-1.55-.76-2.48-.14-2.83S50.37,200.2,51.07,201.41Z" transform="translate(27.89 16.7)"/><path class="cls-100" d="M51.05,201.43c.68,1.18.74,2.43.13,2.77s-1.65-.33-2.33-1.51-.74-2.43-.13-2.78S50.37,200.24,51.05,201.43Z" transform="translate(27.89 16.7)"/><path class="cls-101" d="M51,201.44c.67,1.16.73,2.38.13,2.72s-1.61-.32-2.28-1.48-.72-2.38-.13-2.73S50.36,200.28,51,201.44Z" transform="translate(27.89 16.7)"/><path class="cls-102" d="M51,201.45c.65,1.14.71,2.33.13,2.67s-1.58-.32-2.24-1.46-.71-2.33-.12-2.66S50.35,200.31,51,201.45Z" transform="translate(27.89 16.7)"/><path class="cls-103" d="M51,201.47c.64,1.11.69,2.28.12,2.6s-1.54-.31-2.18-1.42-.7-2.28-.13-2.61S50.34,200.35,51,201.47Z" transform="translate(27.89 16.7)"/><path class="cls-104" d="M51,201.48c.62,1.09.68,2.23.12,2.55s-1.52-.3-2.14-1.39-.68-2.24-.12-2.56S50.33,200.39,51,201.48Z" transform="translate(27.89 16.7)"/><path class="cls-105" d="M50.93,201.49c.62,1.07.67,2.18.12,2.5s-1.48-.3-2.09-1.37-.66-2.18-.12-2.49S50.32,200.42,50.93,201.49Z" transform="translate(27.89 16.7)"/><path class="cls-106" d="M50.91,201.5c.6,1.05.65,2.14.12,2.44s-1.45-.29-2.05-1.33-.65-2.13-.11-2.44S50.32,200.46,50.91,201.5Z" transform="translate(27.89 16.7)"/><path class="cls-107" d="M50.89,201.52c.58,1,.64,2.08.12,2.38s-1.42-.28-2-1.3-.64-2.09-.12-2.39S50.31,200.5,50.89,201.52Z" transform="translate(27.89 16.7)"/><path class="cls-108" d="M50.87,201.53c.57,1,.62,2,.11,2.33s-1.38-.28-1.95-1.27-.62-2-.11-2.33S50.3,200.53,50.87,201.53Z" transform="translate(27.89 16.7)"/><path class="cls-109" d="M50.85,201.54c.55,1,.6,2,.11,2.27s-1.35-.27-1.91-1.24-.61-2-.11-2.27S50.29,200.57,50.85,201.54Z" transform="translate(27.89 16.7)"/><path class="cls-110" d="M50.82,201.55c.55.95.59,1.94.11,2.22s-1.32-.26-1.86-1.21-.59-1.94-.1-2.22S50.28,200.61,50.82,201.55Z" transform="translate(27.89 16.7)"/><path class="cls-111" d="M50.8,201.57c.53.92.58,1.89.11,2.16s-1.29-.26-1.82-1.18-.57-1.89-.1-2.16S50.27,200.64,50.8,201.57Z" transform="translate(27.89 16.7)"/><path class="cls-112" d="M50.78,201.58c.51.9.56,1.84.1,2.1s-1.25-.25-1.76-1.14-.56-1.84-.1-2.11S50.26,200.68,50.78,201.58Z" transform="translate(27.89 16.7)"/><path class="cls-113" d="M50.76,201.59c.5.88.54,1.79.1,2s-1.22-.24-1.72-1.12-.55-1.79-.1-2.05S50.26,200.72,50.76,201.59Z" transform="translate(27.89 16.7)"/><path class="cls-114" d="M50.74,201.61c.48.85.53,1.74.09,2s-1.18-.24-1.67-1.09-.53-1.74-.09-2S50.25,200.76,50.74,201.61Z" transform="translate(27.89 16.7)"/><path class="cls-114" d="M50.71,201.62c.48.82.52,1.69.1,1.93s-1.15-.23-1.63-1.05-.51-1.7-.09-1.94S50.24,200.79,50.71,201.62Z" transform="translate(27.89 16.7)"/><path class="cls-113" d="M50.68,201.64c.45.79.49,1.61.09,1.85s-1.1-.22-1.55-1-.49-1.62-.09-1.85S50.23,200.85,50.68,201.64Z" transform="translate(27.89 16.7)"/><path class="cls-112" d="M50.64,201.66c.43.75.47,1.54.09,1.76s-1-.21-1.48-1-.47-1.54-.08-1.76S50.21,200.91,50.64,201.66Z" transform="translate(27.89 16.7)"/><path class="cls-111" d="M50.61,201.68c.41.71.44,1.46.08,1.67s-1-.2-1.4-.91-.45-1.46-.08-1.67S50.2,201,50.61,201.68Z" transform="translate(27.89 16.7)"/><path class="cls-115" d="M50.57,201.7c.39.67.43,1.38.08,1.58s-.94-.19-1.33-.86-.42-1.39-.07-1.59S50.19,201,50.57,201.7Z" transform="translate(27.89 16.7)"/><path class="cls-109" d="M50.54,201.72c.37.64.4,1.31.07,1.49s-.89-.17-1.25-.81-.4-1.31-.08-1.5S50.17,201.08,50.54,201.72Z" transform="translate(27.89 16.7)"/><path class="cls-108" d="M50.5,201.74c.35.6.38,1.23.07,1.41s-.83-.17-1.18-.77-.37-1.23-.07-1.41S50.16,201.14,50.5,201.74Z" transform="translate(27.89 16.7)"/><path class="cls-107" d="M50.47,201.76c.32.56.35,1.15.06,1.32s-.78-.16-1.1-.72-.36-1.16-.07-1.32S50.15,201.19,50.47,201.76Z" transform="translate(27.89 16.7)"/><path class="cls-116" d="M50.43,201.78c.31.52.33,1.08.06,1.23s-.73-.15-1-.67-.33-1.08-.06-1.23S50.13,201.25,50.43,201.78Z" transform="translate(27.89 16.7)"/><path class="cls-105" d="M50.4,201.8c.28.49.3,1,.06,1.14s-.68-.13-1-.62-.31-1-.06-1.15S50.12,201.31,50.4,201.8Z" transform="translate(27.89 16.7)"/><path class="cls-117" d="M50.37,201.82c.25.45.28.92.05,1.05s-.63-.12-.89-.57-.28-.93-.05-1.06S50.11,201.37,50.37,201.82Z" transform="translate(27.89 16.7)"/><path class="cls-118" d="M50.33,201.84c.24.41.26.84.05,1s-.58-.12-.81-.53-.26-.85,0-1S50.09,201.42,50.33,201.84Z" transform="translate(27.89 16.7)"/><path class="cls-119" d="M50.3,201.86c.21.37.23.77,0,.88s-.52-.11-.74-.48-.23-.77,0-.88S50.08,201.48,50.3,201.86Z" transform="translate(27.89 16.7)"/><path class="cls-120" d="M50.26,201.88c.19.34.21.69,0,.79s-.47-.09-.66-.43-.22-.7,0-.79S50.07,201.54,50.26,201.88Z" transform="translate(27.89 16.7)"/><path class="cls-121" d="M50.23,201.9c.17.3.18.61,0,.7s-.42-.08-.59-.38-.19-.62,0-.71S50.05,201.6,50.23,201.9Z" transform="translate(27.89 16.7)"/><path class="cls-122" d="M50.19,201.92c.15.26.17.54,0,.61s-.36-.07-.52-.33-.16-.54,0-.62S50,201.65,50.19,201.92Z" transform="translate(27.89 16.7)"/><path class="cls-123" d="M50.16,201.94c.13.22.14.46,0,.53s-.31-.07-.44-.29-.14-.46,0-.53S50,201.71,50.16,201.94Z" transform="translate(27.89 16.7)"/><path class="cls-97" d="M50.12,202c.11.19.12.38,0,.44s-.26-.05-.37-.24-.11-.39,0-.44S50,201.77,50.12,202Z" transform="translate(27.89 16.7)"/><path class="cls-124" d="M50.09,202c.08.15.09.31,0,.35s-.2,0-.29-.19-.09-.31,0-.35S50,201.83,50.09,202Z" transform="translate(27.89 16.7)"/><path class="cls-125" d="M50.05,202c.07.11.07.23,0,.26s-.16,0-.23-.14-.07-.23,0-.27S50,201.89,50.05,202Z" transform="translate(27.89 16.7)"/><path class="cls-126" d="M50,202c0,.07,0,.15,0,.17s-.11,0-.15-.09-.05-.16,0-.18S50,201.94,50,202Z" transform="translate(27.89 16.7)"/><path class="cls-10" d="M50,202s0,.07,0,.09-.06,0-.08,0,0-.08,0-.09S50,202,50,202Z" transform="translate(27.89 16.7)"/></g><image width="3000" height="2000" transform="translate(0 0) scale(0.1)" xlink:href="C:%5CUsers%5CZahed%5CDesktop%5CBKash-bKash2-Logo.wine_.png"/></svg>