<svg width="400" height="250" viewBox="0 0 400 250" fill="none" xmlns="http://www.w3.org/2000/svg">
<rect width="400" height="250" fill="#F9F9F9"/>
<line x1="200.542" y1="0.00208332" x2="199.5" y2="250.002" stroke="#D9D9D9"/>
<circle cx="200" cy="125" r="19.5" fill="#F9F9F9" stroke="#D9D9D9"/>
<path d="M190 125L196.75 119.804L196.75 130.196L190 125Z" fill="#D9D9D9"/>
<path d="M210 125L203.25 130.196L203.25 119.804L210 125Z" fill="#D9D9D9"/>
<path d="M40.9474 44H149.053C155.669 44 162.015 46.6949 166.693 51.4919C171.372 56.2889 174 62.795 174 69.5789V180.421C174 187.205 171.372 193.711 166.693 198.508C162.015 203.305 155.669 206 149.053 206H40.9474C34.3309 206 27.9855 203.305 23.3069 198.508C18.6284 193.711 16 187.205 16 180.421V69.5789C16 62.795 18.6284 56.2889 23.3069 51.4919C27.9855 46.6949 34.3309 44 40.9474 44ZM40.9474 52.5263C36.5364 52.5263 32.3061 54.3229 29.1871 57.5209C26.068 60.7189 24.3158 65.0563 24.3158 69.5789V168.399L59.9905 131.736L80.78 153.052L122.359 110.42L165.684 154.842V69.5789C165.684 65.0563 163.932 60.7189 160.813 57.5209C157.694 54.3229 153.464 52.5263 149.053 52.5263H40.9474ZM80.78 165.159L59.9905 143.843L24.3158 180.421C24.3158 184.944 26.068 189.281 29.1871 192.479C32.3061 195.677 36.5364 197.474 40.9474 197.474H149.053C153.464 197.474 157.694 195.677 160.813 192.479C163.932 189.281 165.684 184.944 165.684 180.421V166.864L122.359 122.527L80.78 165.159ZM61.7368 69.5789C67.2506 69.5789 72.5384 71.8247 76.4372 75.8222C80.336 79.8197 82.5263 85.2414 82.5263 90.8947C82.5263 96.548 80.336 101.97 76.4372 105.967C72.5384 109.965 67.2506 112.211 61.7368 112.211C56.2231 112.211 50.9352 109.965 47.0365 105.967C43.1377 101.97 40.9474 96.548 40.9474 90.8947C40.9474 85.2414 43.1377 79.8197 47.0365 75.8222C50.9352 71.8247 56.2231 69.5789 61.7368 69.5789ZM61.7368 78.1053C58.4286 78.1053 55.2559 79.4527 52.9166 81.8512C50.5773 84.2497 49.2632 87.5028 49.2632 90.8947C49.2632 94.2867 50.5773 97.5398 52.9166 99.9383C55.2559 102.337 58.4286 103.684 61.7368 103.684C65.0451 103.684 68.2178 102.337 70.5571 99.9383C72.8963 97.5398 74.2105 94.2867 74.2105 90.8947C74.2105 87.5028 72.8963 84.2497 70.5571 81.8512C68.2178 79.4527 65.0451 78.1053 61.7368 78.1053Z" fill="#D9D9D9" fill-opacity="0.5"/>
<path d="M250.947 48H359.053C365.669 48 372.015 50.6949 376.693 55.4919C381.372 60.2889 384 66.795 384 73.5789V184.421C384 191.205 381.372 197.711 376.693 202.508C372.015 207.305 365.669 210 359.053 210H250.947C244.331 210 237.985 207.305 233.307 202.508C228.628 197.711 226 191.205 226 184.421V73.5789C226 66.795 228.628 60.2889 233.307 55.4919C237.985 50.6949 244.331 48 250.947 48ZM250.947 56.5263C246.536 56.5263 242.306 58.3229 239.187 61.5209C236.068 64.7189 234.316 69.0563 234.316 73.5789V172.399L269.991 135.736L290.78 157.052L332.359 114.42L375.684 158.842V73.5789C375.684 69.0563 373.932 64.7189 370.813 61.5209C367.694 58.3229 363.464 56.5263 359.053 56.5263H250.947ZM290.78 169.159L269.991 147.843L234.316 184.421C234.316 188.944 236.068 193.281 239.187 196.479C242.306 199.677 246.536 201.474 250.947 201.474H359.053C363.464 201.474 367.694 199.677 370.813 196.479C373.932 193.281 375.684 188.944 375.684 184.421V170.864L332.359 126.527L290.78 169.159ZM271.737 73.5789C277.251 73.5789 282.538 75.8247 286.437 79.8222C290.336 83.8197 292.526 89.2414 292.526 94.8947C292.526 100.548 290.336 105.97 286.437 109.967C282.538 113.965 277.251 116.211 271.737 116.211C266.223 116.211 260.935 113.965 257.036 109.967C253.138 105.97 250.947 100.548 250.947 94.8947C250.947 89.2414 253.138 83.8197 257.036 79.8222C260.935 75.8247 266.223 73.5789 271.737 73.5789ZM271.737 82.1053C268.429 82.1053 265.256 83.4527 262.917 85.8512C260.577 88.2497 259.263 91.5028 259.263 94.8947C259.263 98.2867 260.577 101.54 262.917 103.938C265.256 106.337 268.429 107.684 271.737 107.684C275.045 107.684 278.218 106.337 280.557 103.938C282.896 101.54 284.211 98.2867 284.211 94.8947C284.211 91.5028 282.896 88.2497 280.557 85.8512C278.218 83.4527 275.045 82.1053 271.737 82.1053Z" fill="#D9D9D9" fill-opacity="0.5"/>
</svg>
