<svg xmlns="http://www.w3.org/2000/svg" width="400" height="250" fill="none"><path fill="#F9F9F9" d="M0 0h400v250H0z"/><rect width="81" height="24" x="160" y="160" fill="#D9D9D9" rx="12"/><path fill="#BBB" d="M27.6 118.8c0 3.76-3.04 6.8-6.8 6.8s-6.8-3.04-6.8-6.8 3.04-6.8 6.8-6.8 6.8 3.04 6.8 6.8Zm-12.8 0c0 3.32 2.68 6 6 6s6-2.68 6-6-2.68-6-6-6-6 2.68-6 6Z"/><path fill="#BBB" d="m21.48 115.48-3.32 3.32 3.32 3.32-.56.56-3.88-3.88 3.88-3.88.56.56Z"/><path fill="#BBB" d="M17.6 119.2v-.8h6.8v.8h-6.8ZM373 118.8c0-3.76 3.04-6.8 6.8-6.8s6.8 3.04 6.8 6.8-3.04 6.8-6.8 6.8-6.8-3.04-6.8-6.8Zm12.8 0c0-3.32-2.68-6-6-6s-6 2.68-6 6 2.68 6 6 6 6-2.68 6-6Z"/><path fill="#BBB" d="m379.12 122.12 3.32-3.32-3.32-3.32.56-.56 3.88 3.88-3.88 3.88-.56-.56Z"/><path fill="#BBB" d="M383 118.4v.8h-6.8v-.8h6.8Z"/><path fill="#D9D9D9" d="M164 72a3 3 0 0 1 3-3h66a3 3 0 1 1 0 6h-66a3 3 0 0 1-3-3Z"/><rect width="162" height="12" x="119" y="82" fill="#D9D9D9" rx="3"/><rect width="162" height="48" x="120" y="102" fill="#D9D9D9" rx="3"/></svg>