<svg xmlns="http://www.w3.org/2000/svg" width="400" height="250" fill="none"><path fill="#F9F9F9" d="M0 0h400v250H0z"/><path fill="#BBB" d="M27.6 108.8c0 3.76-3.04 6.8-6.8 6.8s-6.8-3.04-6.8-6.8 3.04-6.8 6.8-6.8 6.8 3.04 6.8 6.8Zm-12.8 0c0 3.32 2.68 6 6 6s6-2.68 6-6-2.68-6-6-6-6 2.68-6 6Z"/><path fill="#BBB" d="m21.48 105.48-3.32 3.32 3.32 3.32-.56.56-3.88-3.88 3.88-3.88.56.56Z"/><path fill="#BBB" d="M17.6 109.2v-.8h6.8v.8h-6.8ZM373 108.8c0-3.76 3.04-6.8 6.8-6.8s6.8 3.04 6.8 6.8-3.04 6.8-6.8 6.8-6.8-3.04-6.8-6.8Zm12.8 0c0-3.32-2.68-6-6-6s-6 2.68-6 6 2.68 6 6 6 6-2.68 6-6Z"/><path fill="#BBB" d="m379.12 112.12 3.32-3.32-3.32-3.32.56-.56 3.88 3.88-3.88 3.88-.56-.56Z"/><path fill="#BBB" d="M383 108.4v.8h-6.8v-.8h6.8Z"/><circle cx="180" cy="171" r="5" fill="#D9D9D9"/><circle cx="195" cy="171" r="5" fill="#D9D9D9"/><circle cx="210" cy="171" r="4.5" fill="#9C9B9B" stroke="#9C9B9B"/><circle cx="225" cy="171" r="5" fill="#D9D9D9"/><circle cx="240" cy="171" r="5" fill="#D9D9D9"/><path stroke="#BBB" stroke-linecap="round" stroke-linejoin="round" stroke-width=".5" d="m39 133 27.515-27.515a12.002 12.002 0 0 1 16.97 0L111 133m-8-8 7.515-7.515a11.999 11.999 0 0 1 16.97 0L143 133m-96 20h88a8 8 0 0 0 8-8V81a8.001 8.001 0 0 0-8-8H47a8 8 0 0 0-8 8v64a8 8 0 0 0 8 8Zm56-60h.043v.043H103V93Zm2 0a2 2 0 1 1-4.001 0A2 2 0 0 1 105 93ZM149 133l27.515-27.515a11.999 11.999 0 0 1 16.97 0L221 133m-8-8 7.515-7.515a11.999 11.999 0 0 1 16.97 0L253 133m-96 20h88a8 8 0 0 0 8-8V81a8.001 8.001 0 0 0-8-8h-88a8 8 0 0 0-8 8v64a8 8 0 0 0 8 8Zm56-60h.043v.043H213V93Zm2 0a2 2 0 1 1-4.001 0A2 2 0 0 1 215 93ZM258 133l27.515-27.515a11.999 11.999 0 0 1 16.97 0L330 133m-8-8 7.515-7.515a11.999 11.999 0 0 1 16.97 0L362 133m-96 20h88a8 8 0 0 0 8-8V81a8.001 8.001 0 0 0-8-8h-88a8 8 0 0 0-8 8v64a8 8 0 0 0 8 8Zm56-60h.043v.043H322V93Zm2 0a2 2 0 1 1-4.001 0A2 2 0 0 1 324 93Z"/></svg>