<svg xmlns="http://www.w3.org/2000/svg" width="400" height="250" fill="none"><path fill="#F9F9F9" d="M0 0h400v250H0z"/><rect width="80" height="10" x="161" y="179" fill="#D9D9D9" rx="5"/><path fill="#BBB" d="M27.6 118.8c0 3.76-3.04 6.8-6.8 6.8s-6.8-3.04-6.8-6.8 3.04-6.8 6.8-6.8 6.8 3.04 6.8 6.8Zm-12.8 0c0 3.32 2.68 6 6 6s6-2.68 6-6-2.68-6-6-6-6 2.68-6 6Z"/><path fill="#BBB" d="m21.48 115.48-3.32 3.32 3.32 3.32-.56.56-3.88-3.88 3.88-3.88.56.56Z"/><path fill="#BBB" d="M17.6 119.2v-.8h6.8v.8h-6.8ZM373 118.8c0-3.76 3.04-6.8 6.8-6.8s6.8 3.04 6.8 6.8-3.04 6.8-6.8 6.8-6.8-3.04-6.8-6.8Zm12.8 0c0-3.32-2.68-6-6-6s-6 2.68-6 6 2.68 6 6 6 6-2.68 6-6Z"/><path fill="#BBB" d="m379.12 122.12 3.32-3.32-3.32-3.32.56-.56 3.88 3.88-3.88 3.88-.56-.56Z"/><path fill="#BBB" d="M383 118.4v.8h-6.8v-.8h6.8Z"/><rect width="162" height="48" x="120" y="102" fill="#D9D9D9" rx="3"/><path fill="#D9D9D9" d="M179.861 165.363c.507-.909.76-1.363 1.139-1.363s.632.454 1.139 1.363l.131.235c.144.259.216.388.328.473.112.085.252.117.532.18l.255.058c.984.223 1.475.334 1.592.71.117.376-.218.769-.889 1.553l-.173.203c-.191.223-.286.334-.329.472-.043.138-.029.287 0 .584l.027.271c.101 1.046.152 1.57-.155 1.802-.306.233-.767.02-1.688-.404l-.239-.109c-.261-.121-.392-.181-.531-.181s-.269.06-.531.181l-.238.109c-.922.424-1.383.636-1.689.404-.306-.232-.256-.756-.154-1.802l.026-.271c.029-.297.043-.446 0-.584-.042-.138-.138-.249-.328-.472l-.174-.203c-.671-.784-1.006-1.176-.889-1.553.117-.376.609-.488 1.593-.71l.254-.058c.28-.063.42-.095.532-.18.112-.085.184-.214.328-.473l.131-.235ZM190.862 165.363c.506-.909.76-1.363 1.138-1.363.379 0 .632.454 1.139 1.363l.131.235c.144.259.216.388.328.473.112.085.252.117.532.18l.255.058c.984.223 1.475.334 1.593.71.116.376-.219.769-.89 1.553l-.173.203c-.191.223-.286.334-.329.472-.043.138-.028.287 0 .584l.027.271c.101 1.046.152 1.57-.155 1.802-.306.233-.767.02-1.688-.404l-.238-.109c-.262-.121-.393-.181-.532-.181-.138 0-.269.06-.531.181l-.238.109c-.921.424-1.382.636-1.688.404-.307-.232-.256-.756-.155-1.802l.026-.271c.029-.297.044-.446 0-.584-.042-.138-.138-.249-.328-.472l-.174-.203c-.67-.784-1.006-1.176-.889-1.553.117-.376.609-.488 1.593-.71l.255-.058c.279-.063.419-.095.531-.18.112-.085.184-.214.328-.473l.132-.235ZM201.862 165.363c.507-.909.76-1.363 1.139-1.363.378 0 .632.454 1.138 1.363l.132.235c.144.259.216.388.328.473.112.085.252.117.532.18l.254.058c.984.223 1.476.334 1.593.71.117.376-.219.769-.889 1.553l-.174.203c-.19.223-.286.334-.329.472-.043.138-.028.287.001.584l.026.271c.101 1.046.152 1.57-.154 1.802-.307.233-.768.02-1.688-.404l-.239-.109c-.262-.121-.393-.181-.531-.181-.139 0-.27.06-.532.181l-.238.109c-.921.424-1.382.636-1.688.404-.307-.232-.256-.756-.155-1.802l.027-.271c.028-.297.043-.446 0-.584-.043-.138-.138-.249-.329-.472l-.173-.203c-.671-.784-1.006-1.176-.89-1.553.118-.376.61-.488 1.594-.71l.254-.058c.28-.063.419-.095.532-.18.112-.085.184-.214.328-.473l.131-.235ZM212.862 165.363c.507-.909.76-1.363 1.139-1.363s.632.454 1.139 1.363l.131.235c.144.259.216.388.328.473.112.085.252.117.532.18l.254.058c.984.223 1.476.334 1.593.71.117.376-.218.769-.889 1.553l-.174.203c-.19.223-.286.334-.329.472-.042.138-.028.287.001.584l.026.271c.101 1.046.152 1.57-.154 1.802-.307.233-.767.02-1.688-.404l-.239-.109c-.262-.121-.392-.181-.531-.181s-.27.06-.532.181l-.238.109c-.921.424-1.382.636-1.688.404-.307-.232-.256-.756-.155-1.802l.027-.271c.029-.297.043-.446 0-.584-.043-.138-.138-.249-.329-.472l-.173-.203c-.671-.784-1.006-1.176-.889-1.553.117-.376.609-.488 1.593-.71l.254-.058c.28-.063.419-.095.532-.18.112-.085.184-.214.328-.473l.131-.235ZM223.862 165.363c.507-.909.76-1.363 1.139-1.363s.632.454 1.139 1.363l.131.235c.144.259.216.388.328.473.112.085.252.117.532.18l.254.058c.984.223 1.476.334 1.593.71.117.376-.218.769-.889 1.553l-.174.203c-.19.223-.286.334-.328.472-.043.138-.029.287 0 .584l.026.271c.102 1.046.152 1.57-.154 1.802-.306.233-.767.02-1.688-.404l-.239-.109c-.261-.121-.392-.181-.531-.181s-.27.06-.532.181l-.238.109c-.921.424-1.382.636-1.688.404-.306-.232-.256-.756-.154-1.802l.026-.271c.029-.297.043-.446 0-.584-.042-.138-.138-.249-.328-.472l-.174-.203c-.671-.784-1.006-1.176-.889-1.553.117-.376.609-.488 1.593-.71l.254-.058c.28-.063.42-.095.532-.18.112-.085.184-.214.328-.473l.131-.235Z"/><circle cx="199.5" cy="71.5" r="22.5" fill="#D9D9D9"/><path fill="#D9D9D9" stroke="#D9D9D9" d="M187.5 202.5a4.5 4.5 0 1 1 0-9 4.5 4.5 0 0 1 0 9ZM199 202.5a4.5 4.5 0 1 1 0-9 4.5 4.5 0 0 1 0 9ZM210.5 202.5a4.5 4.5 0 1 1 0-9 4.5 4.5 0 0 1 0 9ZM222 202.5a4.5 4.5 0 1 1 0-9 4.5 4.5 0 0 1 0 9Z"/></svg>