<?xml version="1.0" encoding="utf-8"?>
<!-- Generator: Adobe Illustrator 25.2.0, SVG Export Plug-In . SVG Version: 6.00 Build 0)  -->
<svg version="1.1" id="Layer_1" xmlns="http://www.w3.org/2000/svg" xmlns:xlink="http://www.w3.org/1999/xlink" x="0px" y="0px"
	 viewBox="0 0 728 647" enable-background="new 0 0 728 647" xml:space="preserve">
<pattern  x="-70" y="-105" width="51" height="62" patternUnits="userSpaceOnUse" id="PATTERN_2" viewBox="4.09 -65.59 51 62" overflow="visible">
	<g>
		<rect x="4.09" y="-65.59" fill="none" width="51" height="62"/>
		<g>
			
				<path fill="none" stroke="#020203" stroke-width="1.7" stroke-linecap="round" stroke-linejoin="round" stroke-miterlimit="10" d="
				M29.87-2.78c-0.34,0.64-0.67,1.29-1.01,1.93"/>
			
				<path fill="none" stroke="#020203" stroke-width="1.7" stroke-linecap="round" stroke-linejoin="round" stroke-miterlimit="10" d="
				M34.64-3.16c0.95,1.08,2.21,1.88,3.59,2.29"/>
			
				<path fill="none" stroke="#020203" stroke-width="1.7" stroke-linecap="round" stroke-linejoin="round" stroke-miterlimit="10" d="
				M43.9-3.59c-0.76,0.79-1.63,1.47-2.57,2.01"/>
			
				<path fill="none" stroke="#020203" stroke-width="1.7" stroke-linecap="round" stroke-linejoin="round" stroke-miterlimit="10" d="
				M53.29-1c0.19-0.75,0.39-1.51,0.58-2.26"/>
			
				<path fill="none" stroke="#020203" stroke-width="1.7" stroke-linecap="round" stroke-linejoin="round" stroke-miterlimit="10" d="
				M7.44-4.19c0,0.39,0.01,0.78,0.01,1.17C7.61-3.01,7.77-3,7.93-3"/>
			
				<path fill="none" stroke="#020203" stroke-width="1.7" stroke-linecap="round" stroke-linejoin="round" stroke-miterlimit="10" d="
				M48.13-3.89c0.26,0.58,0.65,1.1,1.13,1.52"/>
		</g>
		<g>
			
				<path fill="none" stroke="#020203" stroke-width="1.7" stroke-linecap="round" stroke-linejoin="round" stroke-miterlimit="10" d="
				M2.08-55.36c0.43,0.68,1.21,1.11,2.01,1.12"/>
			
				<path fill="none" stroke="#020203" stroke-width="1.7" stroke-linecap="round" stroke-linejoin="round" stroke-miterlimit="10" d="
				M0.85-28.95c0.48,1.46,2.81,1.56,3.33,3.01"/>
		</g>
		<g>
			
				<path fill="none" stroke="#020203" stroke-width="1.7" stroke-linecap="round" stroke-linejoin="round" stroke-miterlimit="10" d="
				M29.87-64.78c-0.34,0.64-0.67,1.29-1.01,1.93"/>
			
				<path fill="none" stroke="#020203" stroke-width="1.7" stroke-linecap="round" stroke-linejoin="round" stroke-miterlimit="10" d="
				M34.64-65.16c0.95,1.08,2.21,1.88,3.59,2.29"/>
			
				<path fill="none" stroke="#020203" stroke-width="1.7" stroke-linecap="round" stroke-linejoin="round" stroke-miterlimit="10" d="
				M43.9-65.59c-0.76,0.79-1.63,1.47-2.57,2.01"/>
			
				<path fill="none" stroke="#020203" stroke-width="1.7" stroke-linecap="round" stroke-linejoin="round" stroke-miterlimit="10" d="
				M16.68-7.64c0.35,0.78,0.46,1.65,0.33,2.49c0.34-0.16,0.61-0.46,0.73-0.82"/>
			
				<path fill="none" stroke="#020203" stroke-width="1.7" stroke-linecap="round" stroke-linejoin="round" stroke-miterlimit="10" d="
				M52.73-48.91c-0.4,0.95-1.08,1.78-1.94,2.35c-0.14,0.09-0.41,0.11-0.4-0.06"/>
			
				<path fill="none" stroke="#020203" stroke-width="1.7" stroke-linecap="round" stroke-linejoin="round" stroke-miterlimit="10" d="
				M45.71-50.44c-0.65,0.81-1.47,1.49-2.39,1.98c-0.19,0.1-0.51,0.13-0.54-0.08c0.11-0.38,0.46-0.67,0.85-0.71"/>
			
				<path fill="none" stroke="#020203" stroke-width="1.7" stroke-linecap="round" stroke-linejoin="round" stroke-miterlimit="10" d="
				M53.08-55.36c0.43,0.68,1.21,1.11,2.01,1.12"/>
			
				<path fill="none" stroke="#020203" stroke-width="1.7" stroke-linecap="round" stroke-linejoin="round" stroke-miterlimit="10" d="
				M50.1-52.11c-0.08,0.24-0.44,0.11-0.62-0.05c-0.66-0.58-1.31-1.16-1.97-1.75"/>
			
				<path fill="none" stroke="#020203" stroke-width="1.7" stroke-linecap="round" stroke-linejoin="round" stroke-miterlimit="10" d="
				M51.81-59.42c-0.36,0.58-0.92,1.04-1.57,1.28c0-0.15,0-0.3-0.01-0.45"/>
			
				<path fill="none" stroke="#020203" stroke-width="1.7" stroke-linecap="round" stroke-linejoin="round" stroke-miterlimit="10" d="
				M53.29-63c0.19-0.75,0.39-1.51,0.58-2.26"/>
			
				<path fill="none" stroke="#020203" stroke-width="1.7" stroke-linecap="round" stroke-linejoin="round" stroke-miterlimit="10" d="
				M46.61-45.61c-0.19,0.9-0.37,1.8-0.56,2.7"/>
			
				<path fill="none" stroke="#020203" stroke-width="1.7" stroke-linecap="round" stroke-linejoin="round" stroke-miterlimit="10" d="
				M51.41-18.23c0.66,0.28,1.37,0.46,2.08,0.54"/>
			
				<path fill="none" stroke="#020203" stroke-width="1.7" stroke-linecap="round" stroke-linejoin="round" stroke-miterlimit="10" d="
				M11.94-53.15c0.66,0.28,1.37,0.46,2.08,0.54"/>
			
				<path fill="none" stroke="#020203" stroke-width="1.7" stroke-linecap="round" stroke-linejoin="round" stroke-miterlimit="10" d="
				M50.36-38.68c-0.32,0.68-0.69,1.34-1.09,1.97"/>
			
				<path fill="none" stroke="#020203" stroke-width="1.7" stroke-linecap="round" stroke-linejoin="round" stroke-miterlimit="10" d="
				M41.81-39.87c1.15,0.85,2.46,1.47,3.84,1.83"/>
			
				<path fill="none" stroke="#020203" stroke-width="1.7" stroke-linecap="round" stroke-linejoin="round" stroke-miterlimit="10" d="
				M14.01-12.2c1.34-0.5,2.58-1.26,3.63-2.23"/>
			
				<path fill="none" stroke="#020203" stroke-width="1.7" stroke-linecap="round" stroke-linejoin="round" stroke-miterlimit="10" d="
				M38.53-45.79c0.98,0.57,1.86,1.29,2.62,2.13"/>
			
				<path fill="none" stroke="#020203" stroke-width="1.7" stroke-linecap="round" stroke-linejoin="round" stroke-miterlimit="10" d="
				M42.97-55.49c-0.07,0.91-0.93,1.69-1.84,1.67"/>
			
				<path fill="none" stroke="#020203" stroke-width="1.7" stroke-linecap="round" stroke-linejoin="round" stroke-miterlimit="10" d="
				M44.92-61.09c0.12,0.9,0.24,1.8,0.35,2.7c0.03,0.23,0.07,0.48,0.23,0.66s0.49,0.2,0.61,0"/>
			
				<path fill="none" stroke="#020203" stroke-width="1.7" stroke-linecap="round" stroke-linejoin="round" stroke-miterlimit="10" d="
				M41.11-58.05c-1.17,0.41-2.34,0.82-3.51,1.23"/>
			
				<path fill="none" stroke="#020203" stroke-width="1.7" stroke-linecap="round" stroke-linejoin="round" stroke-miterlimit="10" d="
				M32.71-60.78c0.46,1.01,1.45,1.76,2.54,1.93"/>
			
				<path fill="none" stroke="#020203" stroke-width="1.7" stroke-linecap="round" stroke-linejoin="round" stroke-miterlimit="10" d="
				M38.28-50.08c-1.03,0.89-2.4,1.38-3.76,1.35"/>
			
				<path fill="none" stroke="#020203" stroke-width="1.7" stroke-linecap="round" stroke-linejoin="round" stroke-miterlimit="10" d="
				M32.94-54.1c0.38,0.84,1.13,1.51,2,1.79"/>
			
				<path fill="none" stroke="#020203" stroke-width="1.7" stroke-linecap="round" stroke-linejoin="round" stroke-miterlimit="10" d="
				M29.17-56.81c-0.14,0.62-0.6,1.12-0.83,1.72c-0.24,0.59-0.12,1.45,0.49,1.63"/>
			
				<path fill="none" stroke="#020203" stroke-width="1.7" stroke-linecap="round" stroke-linejoin="round" stroke-miterlimit="10" d="
				M29.11-48.82c-0.43,1.27,0.59,2.82,1.92,2.92c0-0.18-0.01-0.37-0.01-0.55"/>
			
				<path fill="none" stroke="#020203" stroke-width="1.7" stroke-linecap="round" stroke-linejoin="round" stroke-miterlimit="10" d="
				M34.9-43.12c0.09-0.06-0.05-0.21-0.15-0.15s-0.1,0.19-0.1,0.3c0.01,0.37,0.01,0.74,0.02,1.1"/>
			
				<path fill="none" stroke="#020203" stroke-width="1.7" stroke-linecap="round" stroke-linejoin="round" stroke-miterlimit="10" d="
				M6.09-8.53c0.09-0.06-0.05-0.21-0.15-0.15c-0.09,0.06-0.1,0.19-0.1,0.3c0.01,0.37,0.01,0.74,0.02,1.1"/>
			
				<path fill="none" stroke="#020203" stroke-width="1.7" stroke-linecap="round" stroke-linejoin="round" stroke-miterlimit="10" d="
				M37.55-40.66c0.35,0.92-0.09,2.07-0.96,2.52"/>
			
				<path fill="none" stroke="#020203" stroke-width="1.7" stroke-linecap="round" stroke-linejoin="round" stroke-miterlimit="10" d="
				M40.2-35.61c0.7,0.78,1.51,1.47,2.4,2.03"/>
			
				<path fill="none" stroke="#020203" stroke-width="1.7" stroke-linecap="round" stroke-linejoin="round" stroke-miterlimit="10" d="
				M45.98-33.71c-0.06,0.94-0.01,1.88,0.15,2.81"/>
			
				<path fill="none" stroke="#020203" stroke-width="1.7" stroke-linecap="round" stroke-linejoin="round" stroke-miterlimit="10" d="
				M49.65-32.79c0.54,0.27,1.15,0.38,1.75,0.32"/>
			
				<path fill="none" stroke="#020203" stroke-width="1.7" stroke-linecap="round" stroke-linejoin="round" stroke-miterlimit="10" d="
				M39.94-30.71c1.17,0.33,1.83,1.85,1.28,2.94"/>
			
				<path fill="none" stroke="#020203" stroke-width="1.7" stroke-linecap="round" stroke-linejoin="round" stroke-miterlimit="10" d="
				M36.62-33.83c-1.34,1.18-2.9,2.09-4.57,2.69"/>
			
				<path fill="none" stroke="#020203" stroke-width="1.7" stroke-linecap="round" stroke-linejoin="round" stroke-miterlimit="10" d="
				M31.95-39.18c0.37,1.09,0.65,2.21,0.82,3.35c-0.22-0.11-0.39-0.33-0.43-0.57"/>
			
				<path fill="none" stroke="#020203" stroke-width="1.7" stroke-linecap="round" stroke-linejoin="round" stroke-miterlimit="10" d="
				M28.25-42.26c-0.46,0.25-0.93,0.51-1.39,0.76"/>
			
				<path fill="none" stroke="#020203" stroke-width="1.7" stroke-linecap="round" stroke-linejoin="round" stroke-miterlimit="10" d="
				M26.52-35.59c0.64-0.02,1.28-0.04,1.92-0.06"/>
			
				<path fill="none" stroke="#020203" stroke-width="1.7" stroke-linecap="round" stroke-linejoin="round" stroke-miterlimit="10" d="
				M37.19-28.19c-0.38,0.43-0.75,0.85-1.13,1.28c-0.07,0.08-0.16,0.17-0.27,0.16c-0.11-0.01-0.17-0.2-0.06-0.23"/>
			
				<path fill="none" stroke="#020203" stroke-width="1.7" stroke-linecap="round" stroke-linejoin="round" stroke-miterlimit="10" d="
				M27.21-30.66c-0.28,1.3,0.98,2.68,2.66,2.93"/>
			
				<path fill="none" stroke="#020203" stroke-width="1.7" stroke-linecap="round" stroke-linejoin="round" stroke-miterlimit="10" d="
				M25.95-50.87c-0.22,0.58-0.51,1.13-0.85,1.64"/>
			
				<path fill="none" stroke="#020203" stroke-width="1.7" stroke-linecap="round" stroke-linejoin="round" stroke-miterlimit="10" d="
				M25.68-44.8c-0.45,0.43-0.97,0.78-1.55,1.01"/>
			
				<path fill="none" stroke="#020203" stroke-width="1.7" stroke-linecap="round" stroke-linejoin="round" stroke-miterlimit="10" d="
				M24.24-56.64c-0.76,0.44-1.49,0.93-2.19,1.46c0.34-0.32,0.68-0.63,1.03-0.95"/>
			
				<path fill="none" stroke="#020203" stroke-width="1.7" stroke-linecap="round" stroke-linejoin="round" stroke-miterlimit="10" d="
				M24.05-61.34c0.58,0.56,1.21,1.07,1.88,1.5c0.05,0.03,0.12,0.07,0.18,0.05s0.07-0.13,0.01-0.14"/>
			
				<path fill="none" stroke="#020203" stroke-width="1.7" stroke-linecap="round" stroke-linejoin="round" stroke-miterlimit="10" d="
				M20.06-62.73c-0.01,1.07-0.35,2.14-0.97,3"/>
			
				<path fill="none" stroke="#020203" stroke-width="1.7" stroke-linecap="round" stroke-linejoin="round" stroke-miterlimit="10" d="
				M16.69-63.59c-0.4-0.03-0.81,0.04-1.18,0.19"/>
			
				<path fill="none" stroke="#020203" stroke-width="1.7" stroke-linecap="round" stroke-linejoin="round" stroke-miterlimit="10" d="
				M17.26-55.53c0.18,0.64-0.08,1.31-0.24,1.95c-0.16,0.64-0.18,1.43,0.32,1.86"/>
			
				<path fill="none" stroke="#020203" stroke-width="1.7" stroke-linecap="round" stroke-linejoin="round" stroke-miterlimit="10" d="
				M21.3-50.48c-0.19,0.83-0.69,1.58-1.39,2.06c-0.06,0.04-0.14,0.08-0.21,0.06c-0.07-0.03-0.07-0.16,0.01-0.16"/>
			
				<path fill="none" stroke="#020203" stroke-width="1.7" stroke-linecap="round" stroke-linejoin="round" stroke-miterlimit="10" d="
				M18.51-44.15c0.19,1.07,0.86,2.04,1.79,2.6"/>
			
				<path fill="none" stroke="#020203" stroke-width="1.7" stroke-linecap="round" stroke-linejoin="round" stroke-miterlimit="10" d="
				M8.14-12.26c0.67,1.3,1.91,2.28,3.32,2.64"/>
			
				<path fill="none" stroke="#020203" stroke-width="1.7" stroke-linecap="round" stroke-linejoin="round" stroke-miterlimit="10" d="
				M23.6-37.96c-0.24,0.68-0.62,1.31-1.1,1.84c-0.14,0.15-0.3,0.3-0.49,0.37c-0.32,0.1-0.79,0.02-0.87,0.35"/>
			
				<path fill="none" stroke="#020203" stroke-width="1.7" stroke-linecap="round" stroke-linejoin="round" stroke-miterlimit="10" d="
				M15.47-38.93c0.45,1.15,1.29,2.14,2.34,2.78c-0.06-0.32-0.16-0.64-0.31-0.93"/>
			
				<path fill="none" stroke="#020203" stroke-width="1.7" stroke-linecap="round" stroke-linejoin="round" stroke-miterlimit="10" d="
				M14.21-48.05c-0.63,0.52-1.17,1.15-1.59,1.85c0.02-0.14,0.04-0.29,0.06-0.43"/>
			
				<path fill="none" stroke="#020203" stroke-width="1.7" stroke-linecap="round" stroke-linejoin="round" stroke-miterlimit="10" d="
				M15.31-59.67c-0.34,0.2-0.64,0.49-0.85,0.82c-0.05,0.08-0.09,0.17-0.06,0.25s0.19,0.09,0.19,0"/>
			
				<path fill="none" stroke="#020203" stroke-width="1.7" stroke-linecap="round" stroke-linejoin="round" stroke-miterlimit="10" d="
				M7.44-66.19c0,0.39,0.01,0.78,0.01,1.17C7.61-65.01,7.77-65,7.93-65"/>
			
				<path fill="none" stroke="#020203" stroke-width="1.7" stroke-linecap="round" stroke-linejoin="round" stroke-miterlimit="10" d="
				M20.03-24.67c0.08,0.52-0.56,1.01-0.33,1.48c0.05,0.11,0.15,0.2,0.24,0.28c0.34,0.29,0.67,0.59,1.01,0.88"/>
			
				<path fill="none" stroke="#020203" stroke-width="1.7" stroke-linecap="round" stroke-linejoin="round" stroke-miterlimit="10" d="
				M24.55-23.42c0.89-0.61,2.01-0.87,3.09-0.72"/>
			
				<path fill="none" stroke="#020203" stroke-width="1.7" stroke-linecap="round" stroke-linejoin="round" stroke-miterlimit="10" d="
				M16.6-32.03c-0.02,0.82-0.05,1.64-0.07,2.46"/>
			
				<path fill="none" stroke="#020203" stroke-width="1.7" stroke-linecap="round" stroke-linejoin="round" stroke-miterlimit="10" d="
				M20.4-31.23c0.65,1.13,2.15,1.63,2.61,2.85"/>
			
				<path fill="none" stroke="#020203" stroke-width="1.7" stroke-linecap="round" stroke-linejoin="round" stroke-miterlimit="10" d="
				M18.6-18.51c0.43,0.39,0.98,0.64,1.55,0.73c0.48,0.07,1.11,0.11,1.26,0.57"/>
			
				<path fill="none" stroke="#020203" stroke-width="1.7" stroke-linecap="round" stroke-linejoin="round" stroke-miterlimit="10" d="
				M28.11-19.79c-0.61,0.54-1.21,1.08-1.82,1.62"/>
			
				<path fill="none" stroke="#020203" stroke-width="1.7" stroke-linecap="round" stroke-linejoin="round" stroke-miterlimit="10" d="
				M32.91-23.24c0.29,0.53,0.35,1.17,0.17,1.74c-0.07,0.23-0.18,0.48-0.09,0.7c0.14,0.32,0.67,0.51,0.55,0.84"/>
			
				<path fill="none" stroke="#020203" stroke-width="1.7" stroke-linecap="round" stroke-linejoin="round" stroke-miterlimit="10" d="
				M30.13-15.94c-0.31,0.59-0.61,1.18-0.92,1.77c-0.09,0.18-0.07,0.5,0.12,0.44"/>
			
				<path fill="none" stroke="#020203" stroke-width="1.7" stroke-linecap="round" stroke-linejoin="round" stroke-miterlimit="10" d="
				M26.07-14.68c-0.18,0.71-0.6,1.36-1.18,1.81"/>
			
				<path fill="none" stroke="#020203" stroke-width="1.7" stroke-linecap="round" stroke-linejoin="round" stroke-miterlimit="10" d="
				M21-12.06c-0.18,0.3-0.13,0.68-0.08,1.02c0.16,1.05,0.31,2.1,0.47,3.15"/>
			
				<path fill="none" stroke="#020203" stroke-width="1.7" stroke-linecap="round" stroke-linejoin="round" stroke-miterlimit="10" d="
				M10.02-22.2c0.09,0.42,0.27,0.87,0.65,1.06c0.38,0.19,0.97-0.05,0.95-0.48"/>
			
				<path fill="none" stroke="#020203" stroke-width="1.7" stroke-linecap="round" stroke-linejoin="round" stroke-miterlimit="10" d="
				M26.04-5.53c-0.68,0.63-1.44,1.16-2.25,1.59"/>
			
				<path fill="none" stroke="#020203" stroke-width="1.7" stroke-linecap="round" stroke-linejoin="round" stroke-miterlimit="10" d="
				M48.13-65.89c0.26,0.58,0.65,1.1,1.13,1.52"/>
			
				<path fill="none" stroke="#020203" stroke-width="1.7" stroke-linecap="round" stroke-linejoin="round" stroke-miterlimit="10" d="
				M16.2-26.11c-1.12-0.04-2.24,0.06-3.33,0.28"/>
			
				<path fill="none" stroke="#020203" stroke-width="1.7" stroke-linecap="round" stroke-linejoin="round" stroke-miterlimit="10" d="
				M12.96-34.23c0.07,0.37-0.18,0.72-0.37,1.04s-0.29,0.8-0.01,1.04"/>
			
				<path fill="none" stroke="#020203" stroke-width="1.7" stroke-linecap="round" stroke-linejoin="round" stroke-miterlimit="10" d="
				M9.16-27.73c-0.28,0.52-0.8,0.9-1.37,1.01"/>
			
				<path fill="none" stroke="#020203" stroke-width="1.7" stroke-linecap="round" stroke-linejoin="round" stroke-miterlimit="10" d="
				M6.12-23.31c-0.37,0.35-0.71,0.73-1.02,1.14"/>
			
				<path fill="none" stroke="#020203" stroke-width="1.7" stroke-linecap="round" stroke-linejoin="round" stroke-miterlimit="10" d="
				M7-18.08c-0.19,0.54-0.39,1.09-0.58,1.63c-0.07,0.19-0.07,0.48,0.13,0.49"/>
			
				<path fill="none" stroke="#020203" stroke-width="1.7" stroke-linecap="round" stroke-linejoin="round" stroke-miterlimit="10" d="
				M10.6-59.48c0.32,0.68-0.09,1.6-0.8,1.82"/>
			
				<path fill="none" stroke="#020203" stroke-width="1.7" stroke-linecap="round" stroke-linejoin="round" stroke-miterlimit="10" d="
				M8.22-53.24c-0.16,0.98-0.21,1.97-0.15,2.96"/>
			
				<path fill="none" stroke="#020203" stroke-width="1.7" stroke-linecap="round" stroke-linejoin="round" stroke-miterlimit="10" d="
				M5.18-47.76c0.2,1.16,1.23,2.13,2.39,2.25"/>
			
				<path fill="none" stroke="#020203" stroke-width="1.7" stroke-linecap="round" stroke-linejoin="round" stroke-miterlimit="10" d="
				M8.51-42.07c-0.65,0.72-1.51,1.24-2.44,1.48"/>
			
				<path fill="none" stroke="#020203" stroke-width="1.7" stroke-linecap="round" stroke-linejoin="round" stroke-miterlimit="10" d="
				M14.39-42.28c-0.49,0.49-0.98,0.98-1.47,1.47"/>
			
				<path fill="none" stroke="#020203" stroke-width="1.7" stroke-linecap="round" stroke-linejoin="round" stroke-miterlimit="10" d="
				M9.97-37.73c0.19,0.58,0.13,1.25-0.18,1.78"/>
			
				<path fill="none" stroke="#020203" stroke-width="1.7" stroke-linecap="round" stroke-linejoin="round" stroke-miterlimit="10" d="
				M5.7-36.82c-0.9,0.28-1.85,0.38-2.79,0.29"/>
			
				<path fill="none" stroke="#020203" stroke-width="1.7" stroke-linecap="round" stroke-linejoin="round" stroke-miterlimit="10" d="
				M5.52-32.34c0.64,0.2,1.28,0.4,1.91,0.6c0.09,0.03,0.2,0.07,0.24,0.16c0.04,0.09-0.05,0.23-0.14,0.18"/>
			
				<path fill="none" stroke="#020203" stroke-width="1.7" stroke-linecap="round" stroke-linejoin="round" stroke-miterlimit="10" d="
				M5.47-61c0.49,0.58,0.65,1.42,0.4,2.14"/>
			
				<path fill="none" stroke="#020203" stroke-width="1.7" stroke-linecap="round" stroke-linejoin="round" stroke-miterlimit="10" d="
				M38.05-21.97c1.01-0.18,2.02-0.38,3-0.61c0.36-0.08,0.7-0.42,0.32-0.47"/>
			
				<path fill="none" stroke="#020203" stroke-width="1.7" stroke-linecap="round" stroke-linejoin="round" stroke-miterlimit="10" d="
				M40.69-17.33c0.21,0.74,0.67,1.4,1.28,1.85"/>
			
				<path fill="none" stroke="#020203" stroke-width="1.7" stroke-linecap="round" stroke-linejoin="round" stroke-miterlimit="10" d="
				M36.14-16.42c-0.07,1.39-1.07,2.69-2.39,3.11"/>
			
				<path fill="none" stroke="#020203" stroke-width="1.7" stroke-linecap="round" stroke-linejoin="round" stroke-miterlimit="10" d="
				M38.84-11.47c-0.87,0.66-1.84,1.21-2.85,1.62"/>
			
				<path fill="none" stroke="#020203" stroke-width="1.7" stroke-linecap="round" stroke-linejoin="round" stroke-miterlimit="10" d="
				M45.81-23.64c0.07,0.92-0.12,1.72-0.44,2.58c-0.11,0.29-0.77,1.95-0.59,1.27"/>
			
				<path fill="none" stroke="#020203" stroke-width="1.7" stroke-linecap="round" stroke-linejoin="round" stroke-miterlimit="10" d="
				M44.92-27.81c1.04,0.08,2.08,0.33,3.05,0.72"/>
			
				<path fill="none" stroke="#020203" stroke-width="1.7" stroke-linecap="round" stroke-linejoin="round" stroke-miterlimit="10" d="
				M50.41-23.89c0.38,0.67,0.61,1.42,0.68,2.18"/>
			
				<path fill="none" stroke="#020203" stroke-width="1.7" stroke-linecap="round" stroke-linejoin="round" stroke-miterlimit="10" d="
				M51.85-28.95c0.48,1.46,2.81,1.56,3.33,3.01"/>
			
				<path fill="none" stroke="#020203" stroke-width="1.7" stroke-linecap="round" stroke-linejoin="round" stroke-miterlimit="10" d="
				M48.37-16.76c0.26,0.5-0.29,1.02-0.75,1.33c-0.75,0.51-1.55,1.21-1.52,2.12"/>
			
				<path fill="none" stroke="#020203" stroke-width="1.7" stroke-linecap="round" stroke-linejoin="round" stroke-miterlimit="10" d="
				M15.09-20.57c0.39,0.76-0.43,1.55-1.14,2.02c-1.14,0.77-2.35,1.84-2.31,3.22"/>
			
				<path fill="none" stroke="#020203" stroke-width="1.7" stroke-linecap="round" stroke-linejoin="round" stroke-miterlimit="10" d="
				M43.8-10.37c0.84,1.11,1.83,2.11,2.94,2.95"/>
			
				<path fill="none" stroke="#020203" stroke-width="1.7" stroke-linecap="round" stroke-linejoin="round" stroke-miterlimit="10" d="
				M32.85-6.44c-0.59,0.06-1.17,0.12-1.76,0.18"/>
			
				<path fill="none" stroke="#020203" stroke-width="1.7" stroke-linecap="round" stroke-linejoin="round" stroke-miterlimit="10" d="
				M40.3-7.43c-0.76,0.51-1.41,1.19-1.87,1.99"/>
			
				<path fill="none" stroke="#020203" stroke-width="1.7" stroke-linecap="round" stroke-linejoin="round" stroke-miterlimit="10" d="
				M30.35-10.38c-0.59,0.45-1.17,0.9-1.76,1.35c-0.22,0.17-0.61,0.28-0.69,0.02"/>
			
				<path fill="none" stroke="#020203" stroke-width="1.7" stroke-linecap="round" stroke-linejoin="round" stroke-miterlimit="10" d="
				M49.93-9.83c1.09,0.89,1.71,2.33,1.61,3.73"/>
			
				<path fill="none" stroke="#020203" stroke-width="1.7" stroke-linecap="round" stroke-linejoin="round" stroke-miterlimit="10" d="
				M53.13-14.33c-0.03,0.73-0.02,1.47,0.02,2.2c0.02,0.27,0.04,0.56,0.23,0.76c0.18,0.2,0.57,0.22,0.68-0.03"/>
			
				<path fill="none" stroke="#020203" stroke-width="1.7" stroke-linecap="round" stroke-linejoin="round" stroke-miterlimit="10" d="
				M53.51-43.44c-0.75,0.29-1.47,0.68-2.12,1.17c0.23-0.01,0.46-0.02,0.69-0.03"/>
			
				<path fill="none" stroke="#020203" stroke-width="1.7" stroke-linecap="round" stroke-linejoin="round" stroke-miterlimit="10" d="
				M13.56-5.82c-0.54,0.34-1.13,0.61-1.74,0.78"/>
		</g>
		<g>
			
				<path fill="none" stroke="#020203" stroke-width="1.7" stroke-linecap="round" stroke-linejoin="round" stroke-miterlimit="10" d="
				M56.7-36.82c-0.9,0.28-1.85,0.38-2.79,0.29"/>
		</g>
		<g>
			
				<path fill="none" stroke="#020203" stroke-width="1.7" stroke-linecap="round" stroke-linejoin="round" stroke-miterlimit="10" d="
				M26.04-67.53c-0.68,0.63-1.44,1.16-2.25,1.59"/>
		</g>
	</g>
</pattern>
<g>
	<polyline fill="none" stroke="#020203" stroke-width="2" stroke-linejoin="round" stroke-miterlimit="10" points="648.99,286.38 
		723.33,314.45 722.15,484.18 517.9,563.12 518.34,435.58 	"/>
	<polyline fill="none" stroke="#020203" stroke-width="2" stroke-linejoin="round" stroke-miterlimit="10" points="46.6,267.54 
		22.99,259.51 24.17,387.46 463.73,551.38 463.14,474.73 	"/>
	<path fill="#020203" stroke="#020203" stroke-width="2" stroke-linejoin="round" stroke-miterlimit="10" d="M326.58,322.48
		c-16.68-1.33-34.01-2.04-51.8-2.04c-90.91,0-169.99,18.36-210.58,45.41c-18.48,12.32-28.99,26.44-28.99,41.45
		c0,47.97,107.26,86.86,239.56,86.86s239.56-38.89,239.56-86.86C514.34,365.77,433.98,331.06,326.58,322.48z"/>
	<g id="XMLID_9_">
		<g>
			<path fill="#FBBC4A" d="M326.46,315.04c107.4,8.58,187.76,43.3,187.76,84.82c0,47.97-107.26,86.86-239.57,86.86
				c-20.68,0-40.75-0.95-59.9-2.73l100.28-169.59l0.01-0.15C318.89,314.46,322.69,314.73,326.46,315.04z"/>
			<path fill="#F4A4AC" d="M315.05,314.23l-0.01,0.15L214.76,483.98c-103.32-9.65-179.67-43.65-179.67-84.13
				c0-15.01,10.51-29.13,28.99-41.45c40.59-27.05,119.67-45.41,210.58-45.41C288.42,312.99,301.92,313.41,315.05,314.23z"/>
		</g>
		<g>
			<path fill="none" stroke="#020203" stroke-width="2" stroke-linejoin="round" stroke-miterlimit="10" d="M214.76,483.98
				c19.15,1.78,39.21,2.73,59.9,2.73c132.3,0,239.57-38.89,239.57-86.86c0-41.52-80.36-76.24-187.76-84.82
				c-3.77-0.3-7.58-0.57-11.42-0.8c-13.13-0.82-26.62-1.24-40.39-1.24c-90.91,0-169.99,18.35-210.58,45.41
				c-18.48,12.32-28.99,26.44-28.99,41.45C35.09,440.32,111.44,474.33,214.76,483.98z"/>
			<polyline fill="none" stroke="#020203" stroke-width="2" stroke-linejoin="round" stroke-miterlimit="10" points="315.04,314.39 
				214.76,483.98 213.86,485.5 			"/>
		</g>
	</g>
	<g>
		<g>
			<polygon fill="#A05A93" stroke="#020203" stroke-width="2" stroke-linejoin="round" stroke-miterlimit="10" points="
				649.17,269.9 648.29,393.35 375.49,292.56 376.38,169.11 			"/>
		</g>
		<g>
			<pattern  id="SVGID_1_" xlink:href="#PATTERN_2" patternTransform="matrix(1.281 0 0 1.281 2300.4746 2795.3118)">
			</pattern>
			
				<polygon fill="url(#SVGID_1_)" stroke="#010202" stroke-width="2" stroke-linecap="round" stroke-linejoin="round" stroke-miterlimit="10" points="
				649.17,270.29 648.29,393.74 375.49,292.56 376.38,169.11 			"/>
		</g>
		<path fill="#F4A4AC" stroke="#020203" stroke-width="2" stroke-linejoin="round" stroke-miterlimit="10" d="M376.45,155.79
			c0.04-6.68,6.7-11.3,12.97-8.99l246.76,91.17c7.88,2.91,13.1,10.45,13.06,18.85l-0.07,13.07l-272.8-100.79L376.45,155.79z"/>
		
			<ellipse transform="matrix(0.8452 -0.5345 0.5345 0.8452 -36.3262 377.2354)" fill="#FFFFFF" stroke="#020203" stroke-width="2" stroke-linejoin="round" stroke-miterlimit="10" cx="632.97" cy="251.32" rx="3.03" ry="4.24"/>
		
			<ellipse transform="matrix(0.8452 -0.5345 0.5345 0.8452 -35.5514 369.7544)" fill="#FFFFFF" stroke="#020203" stroke-width="2" stroke-linejoin="round" stroke-miterlimit="10" cx="620.45" cy="246.24" rx="3.03" ry="4.24"/>
		
			<ellipse transform="matrix(0.8452 -0.5345 0.5345 0.8452 -34.7766 362.2735)" fill="#FFFFFF" stroke="#020203" stroke-width="2" stroke-linejoin="round" stroke-miterlimit="10" cx="607.92" cy="241.16" rx="3.03" ry="4.24"/>
	</g>
	<g>
		<g>
			<g>
				<polygon fill="#DF7248" stroke="#020203" stroke-width="2" stroke-linejoin="round" stroke-miterlimit="10" points="
					524.4,113.41 515.72,116.65 411.88,78.08 420.55,74.83 				"/>
				<polygon fill="#A05A93" stroke="#020203" stroke-width="2" stroke-linejoin="round" stroke-miterlimit="10" points="
					524.4,317.92 515.72,321.17 515.72,116.65 524.4,113.41 				"/>
				<polygon fill="#F4A4AC" stroke="#020203" stroke-width="2" stroke-linejoin="round" stroke-miterlimit="10" points="
					411.88,282.59 515.72,321.17 515.72,116.65 411.88,78.08 				"/>
			</g>
		</g>
		<polygon fill="#FFFFFF" stroke="#020203" stroke-width="2" stroke-linejoin="round" stroke-miterlimit="10" points="418.34,233.1 
			508.03,266.42 508.03,257.15 418.34,223.84 		"/>
		<polygon fill="#FFFFFF" stroke="#020203" stroke-width="2" stroke-linejoin="round" stroke-miterlimit="10" points="
			418.34,250.51 508.03,283.83 508.03,274.56 418.34,241.24 		"/>
		<polygon fill="#FFFFFF" stroke="#020203" stroke-width="2" stroke-linejoin="round" stroke-miterlimit="10" points="
			418.34,267.91 508.03,301.23 508.03,291.97 418.34,258.65 		"/>
		<pattern  id="SVGID_2_" xlink:href="#PATTERN_2" patternTransform="matrix(1.281 0 0 1.281 2300.4746 2795.3118)">
		</pattern>
		
			<polygon fill="url(#SVGID_2_)" stroke="#010202" stroke-width="2" stroke-linecap="round" stroke-linejoin="round" stroke-miterlimit="10" points="
			418.57,216.78 508.22,249.9 508.22,122.06 418.57,88.94 		"/>
	</g>
	<g>
		<g>
			<path fill="#A6D9E3" stroke="#020203" stroke-width="2" stroke-linejoin="round" stroke-miterlimit="10" d="M351.58,127.57
				c0-5.69-4.41-10.55-10.05-11.06L169.44,101c-6.1-0.55-11.24,4.17-11.24,10.33v33.51l169.78,15.31
				c5.64,0.51,10.05,5.36,10.05,11.06v60.8l13.55,1.22V127.57z"/>
			<path fill="#020203" stroke="#020203" stroke-width="2" stroke-linejoin="round" stroke-miterlimit="10" d="M327.98,160.15
				L158.2,144.84v70.95l179.84,16.22v-60.8C338.04,165.51,333.62,160.66,327.98,160.15z"/>
		</g>
		<path fill="#FBBC4A" stroke="#020203" stroke-width="2" stroke-linejoin="round" stroke-miterlimit="10" d="M117.35,235.91
			l193.38,17.44V147.7c0-5.69-4.41-10.55-10.05-11.06l-172.09-15.52c-6.1-0.55-11.24,4.17-11.24,10.33V235.91z"/>
		<g>
			<path fill="#DF7248" stroke="#020203" stroke-width="2" stroke-linejoin="round" stroke-miterlimit="10" d="M74.16,263.63
				l193.38,17.44V175.41c0-5.69-4.41-10.55-10.05-11.06L85.4,148.83c-6.1-0.55-11.24,4.17-11.24,10.33V263.63z"/>
			<polygon fill="#F4A4AC" stroke="#020203" stroke-width="2" stroke-linejoin="round" stroke-miterlimit="10" points="
				91.83,242.17 145.01,246.97 145.01,178.72 91.83,173.92 			"/>
			
				<line fill="#F4A4AC" stroke="#020203" stroke-width="2" stroke-linejoin="round" stroke-miterlimit="10" x1="91.83" y1="242.17" x2="145.01" y2="178.72"/>
			
				<line fill="#F4A4AC" stroke="#020203" stroke-width="2" stroke-linejoin="round" stroke-miterlimit="10" x1="91.83" y1="173.92" x2="145.01" y2="246.97"/>
			
				<line fill="#F4A4AC" stroke="#020203" stroke-width="2" stroke-linejoin="round" stroke-miterlimit="10" x1="250.48" y1="188.91" x2="158.55" y2="180.73"/>
			
				<line fill="#F4A4AC" stroke="#020203" stroke-width="2" stroke-linejoin="round" stroke-miterlimit="10" x1="250.48" y1="202.29" x2="158.55" y2="194.11"/>
			
				<line fill="#F4A4AC" stroke="#020203" stroke-width="2" stroke-linejoin="round" stroke-miterlimit="10" x1="250.48" y1="215.67" x2="158.55" y2="207.49"/>
			
				<line fill="#F4A4AC" stroke="#020203" stroke-width="2" stroke-linejoin="round" stroke-miterlimit="10" x1="250.48" y1="229.05" x2="158.55" y2="220.87"/>
			
				<line fill="#F4A4AC" stroke="#020203" stroke-width="2" stroke-linejoin="round" stroke-miterlimit="10" x1="250.48" y1="242.43" x2="158.55" y2="234.25"/>
			
				<line fill="#F4A4AC" stroke="#020203" stroke-width="2" stroke-linejoin="round" stroke-miterlimit="10" x1="214.13" y1="252.58" x2="158.55" y2="247.63"/>
		</g>
		<g>
			
				<line fill="#FBBC4A" stroke="#020203" stroke-width="2" stroke-linejoin="round" stroke-miterlimit="10" x1="320.25" y1="125.13" x2="338.14" y2="144.83"/>
			
				<line fill="#FBBC4A" stroke="#020203" stroke-width="2" stroke-linejoin="round" stroke-miterlimit="10" x1="338.14" y1="126.8" x2="320.25" y2="143.16"/>
		</g>
	</g>
	<g>
		<path fill="#020203" stroke="#020203" stroke-width="2" stroke-linejoin="round" stroke-miterlimit="10" d="M710.16,473.56
			l-115.26,42.26c-10.29,3.78-21.59,3.77-31.88-0.03l-168.57-62.28c-5.44-2.01-5.43-14.66,0.01-16.65l115.26-37.31
			c10.29-3.78,21.59-3.77,31.88,0.03l168.57,57.33C715.61,458.91,715.6,471.56,710.16,473.56z"/>
		<path fill="#DF7248" stroke="#020203" stroke-width="2" stroke-linejoin="round" stroke-miterlimit="10" d="M710.16,468.12
			l-115.26,42.26c-10.29,3.78-21.59,3.77-31.88-0.03l-168.57-62.28c-5.44-2.01-5.43-9.7,0.01-11.7l115.26-42.26
			c10.29-3.78,21.59-3.77,31.88,0.03l168.57,62.28C715.61,458.43,715.6,466.12,710.16,468.12z"/>
	</g>
	<g>
		<path fill="#020203" stroke="#020203" stroke-width="2" stroke-linejoin="round" stroke-miterlimit="10" d="M482.38,450.63
			c0,0,10.9-4.23,15.9-6.55c5.95-2.76,4.59-9.86-8.6-11.65"/>
		<path fill="#A6D9E3" stroke="#020203" stroke-width="2" stroke-linejoin="round" stroke-miterlimit="10" d="M435.61,429.7v14.23
			c0,5.41,12.1,9.8,27.04,9.8c14.93,0,27.04-4.39,27.04-9.8V429.7H435.61z"/>
		<path fill="#A6D9E3" stroke="#020203" stroke-width="2" stroke-linejoin="round" stroke-miterlimit="10" d="M468.49,420.13
			c-1.88-0.15-3.84-0.23-5.85-0.23c-10.26,0-19.18,2.07-23.76,5.12c-2.09,1.39-3.27,2.98-3.27,4.68c0,5.41,12.1,9.8,27.04,9.8
			c14.93,0,27.04-4.39,27.04-9.8C489.68,425.02,480.61,421.1,468.49,420.13z"/>
	</g>
	<g>
		<path fill="#020203" stroke="#020203" stroke-width="2" stroke-linejoin="round" stroke-miterlimit="10" d="M544.96,428.74
			c0,0,10.9-4.23,15.9-6.55c5.95-2.76,4.59-9.86-8.6-11.65"/>
		<path fill="#E52521" stroke="#020203" stroke-width="2" stroke-linejoin="round" stroke-miterlimit="10" d="M498.19,407.82v14.23
			c0,5.41,12.1,9.8,27.04,9.8c14.93,0,27.04-4.39,27.04-9.8v-14.23H498.19z"/>
		<path fill="#E52521" stroke="#020203" stroke-width="2" stroke-linejoin="round" stroke-miterlimit="10" d="M531.07,398.25
			c-1.88-0.15-3.84-0.23-5.85-0.23c-10.26,0-19.18,2.07-23.76,5.12c-2.09,1.39-3.27,2.98-3.27,4.68c0,5.41,12.1,9.8,27.04,9.8
			c14.93,0,27.04-4.39,27.04-9.8C552.26,403.14,543.19,399.22,531.07,398.25z"/>
	</g>
	<g>
		<g>
			<g>
				<path fill="#020203" stroke="#020203" stroke-width="2" stroke-linejoin="round" stroke-miterlimit="10" d="M625.43,480.33
					l-26.91,9.38c0,0-15.52,0.03-27.74-10.45c-12.22-10.48-5.61-18.16-5.61-18.16l26.91-9.38c14.58-5.08,33.86-2.79,43.08,5.11l0,0
					C644.36,464.72,640.01,475.25,625.43,480.33z"/>
				
					<ellipse transform="matrix(1 -6.198520e-03 6.198520e-03 1 -2.8075 3.9863)" fill="#020203" stroke="#020203" stroke-width="2" stroke-linejoin="round" stroke-miterlimit="10" cx="641.7" cy="454.92" rx="24.62" ry="13.41"/>
			</g>
		</g>
		<g>
			<path fill="#A05A93" stroke="#020203" stroke-width="2" stroke-linejoin="round" stroke-miterlimit="10" d="M613.22,452.34v27.91
				c0,0-7.32,11.48-27.39,11.48c-20.07,0-27.38-11.48-27.38-11.48v-27.91c0-15.12,12.26-27.39,27.39-27.39h0
				C600.96,424.96,613.22,437.22,613.22,452.34z"/>
			
				<circle fill="#A05A93" stroke="#020203" stroke-width="2" stroke-linejoin="round" stroke-miterlimit="10" cx="585.83" cy="413.71" r="21.59"/>
		</g>
	</g>
	<g>
		<g>
			<g>
				<path fill="#020203" stroke="#020203" stroke-width="2" stroke-linejoin="round" stroke-miterlimit="10" d="M194.85,385.76
					l-26.91,9.38c0,0-15.52,0.03-27.74-10.45s-5.61-18.16-5.61-18.16l26.91-9.38c14.58-5.08,33.86-2.79,43.08,5.11l0,0
					C213.78,370.15,209.43,380.68,194.85,385.76z"/>
				
					<ellipse transform="matrix(1 -6.198520e-03 6.198520e-03 1 -2.2296 1.3156)" fill="#020203" stroke="#020203" stroke-width="2" stroke-linejoin="round" stroke-miterlimit="10" cx="211.12" cy="360.35" rx="24.62" ry="13.41"/>
			</g>
		</g>
		<g>
			<path fill="#E52521" stroke="#020203" stroke-width="2" stroke-linejoin="round" stroke-miterlimit="10" d="M182.64,357.77v27.91
				c0,0-7.32,11.48-27.39,11.48s-27.38-11.48-27.38-11.48v-27.91c0-15.12,12.26-27.39,27.39-27.39h0
				C170.38,330.39,182.64,342.65,182.64,357.77z"/>
			
				<circle fill="#E52521" stroke="#020203" stroke-width="2" stroke-linejoin="round" stroke-miterlimit="10" cx="155.25" cy="319.14" r="21.59"/>
		</g>
	</g>
	<g>
		<path fill="none" stroke="#020203" stroke-width="2" stroke-linejoin="round" stroke-miterlimit="10" d="M260.84,486.73v-22.47
			c0-6.01-4.81-10.93-10.82-11.04c-99.43-1.82-177.89-26.9-195.68-65.62c-0.86-1.88-3.67-1.27-3.67,0.8l0,44.35"/>
		
			<line fill="none" stroke="#020203" stroke-width="2" stroke-linejoin="round" stroke-miterlimit="10" x1="64.98" y1="402.65" x2="64.98" y2="443.73"/>
		
			<line fill="none" stroke="#020203" stroke-width="2" stroke-linejoin="round" stroke-miterlimit="10" x1="94.03" y1="422.75" x2="94.03" y2="456.8"/>
		
			<line fill="none" stroke="#020203" stroke-width="2" stroke-linejoin="round" stroke-miterlimit="10" x1="131.84" y1="436.96" x2="131.84" y2="471.37"/>
		
			<line fill="none" stroke="#020203" stroke-width="2" stroke-linejoin="round" stroke-miterlimit="10" x1="177.77" y1="447.01" x2="177.77" y2="480.85"/>
		
			<line fill="none" stroke="#020203" stroke-width="2" stroke-linejoin="round" stroke-miterlimit="10" x1="225.23" y1="452.14" x2="225.23" y2="487.06"/>
	</g>
	<g>
		<g>
			<g>
				<path fill="#020203" stroke="#020203" stroke-width="2" stroke-linejoin="round" stroke-miterlimit="10" d="M403.15,401.32
					l-28.86,10.06c0,0-16.64,0.04-29.75-11.21s-6.02-19.48-6.02-19.48l28.86-10.06c15.64-5.45,36.32-3,46.2,5.48l0,0
					C423.46,384.58,418.79,395.87,403.15,401.32z"/>
				
					<ellipse transform="matrix(1 -6.198520e-03 6.198520e-03 1 -2.3106 2.6143)" fill="#020203" stroke="#020203" stroke-width="2" stroke-linejoin="round" stroke-miterlimit="10" cx="420.6" cy="374.07" rx="26.4" ry="14.38"/>
			</g>
		</g>
		<g>
			<path fill="#A6D9E3" stroke="#020203" stroke-width="2" stroke-linejoin="round" stroke-miterlimit="10" d="M390.05,371.3v29.94
				c0,0-7.85,12.31-29.37,12.31c-21.53,0-29.37-12.31-29.37-12.31V371.3c0-16.22,13.15-29.37,29.37-29.37h0
				C376.9,341.93,390.05,355.08,390.05,371.3z"/>
			
				<circle fill="#A6D9E3" stroke="#020203" stroke-width="2" stroke-linejoin="round" stroke-miterlimit="10" cx="360.68" cy="329.87" r="23.16"/>
		</g>
	</g>
	<g>
		<g>
			<g>
				<path fill="#FFFFFF" d="M75.47,227.42c21,0.73,38.12,18.44,38.16,39.46c0.05,21.02-17,37.52-38,36.79
					c-21-0.73-38.11-18.43-38.15-39.45S54.47,226.68,75.47,227.42z"/>
			</g>
			<g>
				<path fill="#020203" d="M75.46,225.45c22.08,0.77,40.08,19.38,40.13,41.49c0.05,22.1-17.87,39.46-39.95,38.69
					c-22.07-0.77-40.07-19.38-40.12-41.48C35.47,242.04,53.39,224.68,75.46,225.45z M75.63,303.67c21,0.73,38.04-15.77,38-36.79
					s-17.17-38.73-38.16-39.46c-21-0.73-38.03,15.78-37.99,36.8C37.52,285.24,54.63,302.93,75.63,303.67"/>
			</g>
		</g>
	</g>
	<g>
		<g>
			<g>
				<path fill="#020203" d="M98.38,261.87c0.75,3.39,0.69,6.96-0.21,10.94c-0.98,4.33-2.97,8.03-5.91,10.99
					c-3.29,3.31-7.39,5.4-12.17,6.2c-1.72,0.29-3.43,0.4-5.12,0.34c-3.32-0.12-6.55-0.9-9.68-2.34c-5.4-2.5-9.54-6.45-12.31-11.76
					c-2.15-4.13-3.11-8.59-2.84-13.24c0.36-6,2.6-11.17,6.67-15.4c3.76-3.89,8.41-6.24,13.8-6.98c1.52-0.2,3.01-0.28,4.48-0.23
					c5.18,0.18,10.04,1.95,14.5,5.29c0.38,0.29,0.74,0.59,1.11,0.91c0.15,0.13,0.31,0.27,0.47,0.4c0.32,0.19,0.5,0.46,0.55,0.77
					c0.04,0.3-0.06,0.61-0.27,0.82l-6.95,6.73c-0.19,0.18-0.44,0.27-0.69,0.26c-0.18-0.01-0.37-0.06-0.53-0.17
					c-0.23-0.15-0.45-0.31-0.68-0.47c-0.47-0.33-0.92-0.65-1.39-0.91c-2.11-1.19-4.22-1.82-6.3-1.89c-2.09-0.07-4.17,0.42-6.2,1.47
					c-4.51,2.34-6.8,6.19-6.83,11.45c-0.02,3.4,1.2,6.44,3.61,9.04c2.62,2.83,5.87,4.32,9.66,4.45c0.41,0.01,0.82,0.01,1.24,0
					c2.72-0.12,4.94-0.82,6.79-2.15c1.66-1.19,2.78-2.74,3.41-4.73l-11.54-0.39c-0.54-0.02-0.98-0.47-0.98-1.02l-0.03-9.29
					c0-0.26,0.1-0.51,0.29-0.69c0.19-0.17,0.43-0.27,0.69-0.26l1.9,0.07c6.69,0.22,13.39,0.45,20.08,0.67
					C97.99,260.78,98.29,261.46,98.38,261.87z M96.25,272.31c0.79-3.5,0.89-6.65,0.31-9.62c-6.55-0.22-13.08-0.44-19.62-0.66
					L76.03,262l0.02,7.33l11.81,0.4c0.29,0.01,0.56,0.14,0.74,0.36c0.19,0.23,0.27,0.51,0.23,0.79c-0.03,0.18-0.03,0.24-0.04,0.3
					c-0.66,2.89-2.13,5.17-4.4,6.8c-2.16,1.55-4.72,2.37-7.83,2.49c-0.48,0.02-0.96,0.02-1.43,0.01c-4.33-0.15-8.04-1.86-11.05-5.1
					c-2.78-2.99-4.17-6.5-4.15-10.43c0.02-5.95,2.73-10.49,7.83-13.13c2.35-1.22,4.74-1.78,7.15-1.7c2.39,0.08,4.8,0.8,7.22,2.16
					c0.56,0.31,1.06,0.66,1.55,1.02l5.59-5.43c-0.27-0.22-0.54-0.45-0.81-0.66c-4.12-3.08-8.6-4.71-13.37-4.88
					c-1.36-0.05-2.74,0.02-4.14,0.21c-4.97,0.68-9.25,2.84-12.71,6.42c-3.75,3.89-5.82,8.66-6.14,14.19
					c-0.25,4.29,0.63,8.39,2.61,12.19c2.54,4.89,6.36,8.54,11.33,10.84c2.88,1.33,5.86,2.05,8.91,2.16
					c1.56,0.05,3.14-0.05,4.73-0.32c4.39-0.72,8.13-2.63,11.15-5.67C93.54,279.67,95.35,276.29,96.25,272.31"/>
			</g>
			<g>
				<path fill="#A6D9E3" d="M75.1,242.36c4.77,0.17,9.25,1.8,13.37,4.88c0.27,0.2,0.55,0.43,0.81,0.66l-5.59,5.43
					c-0.49-0.35-0.99-0.71-1.55-1.02c-2.42-1.36-4.83-2.08-7.22-2.16c-2.41-0.08-4.8,0.48-7.15,1.7c-5.1,2.64-7.81,7.18-7.83,13.13
					c-0.02,3.92,1.38,7.44,4.15,10.43c3.01,3.24,6.72,4.95,11.05,5.1c0.47,0.02,0.95,0.01,1.43-0.01c3.11-0.12,5.67-0.94,7.83-2.49
					c2.27-1.64,3.74-3.92,4.4-6.8c0.01-0.06,0.02-0.12,0.03-0.21c0.05-0.37-0.04-0.66-0.22-0.88c-0.19-0.22-0.45-0.35-0.74-0.36
					l-11.81-0.4L76.03,262l0.91,0.03c6.53,0.22,13.07,0.44,19.62,0.66c0.58,2.96,0.48,6.12-0.31,9.62
					c-0.9,3.98-2.71,7.37-5.41,10.07c-3.01,3.03-6.76,4.94-11.15,5.67c-1.59,0.27-3.17,0.37-4.73,0.32
					c-3.05-0.11-6.03-0.83-8.91-2.16c-4.98-2.3-8.79-5.95-11.33-10.84c-1.99-3.8-2.86-7.91-2.61-12.19
					c0.32-5.52,2.39-10.29,6.14-14.19c3.46-3.58,7.74-5.75,12.71-6.42C72.36,242.38,73.74,242.31,75.1,242.36z"/>
			</g>
		</g>
	</g>
</g>
</svg>
