<svg width="37" height="37" viewBox="0 0 37 37" fill="none" xmlns="http://www.w3.org/2000/svg">
<path d="M18.5 9.25002C24.3429 9.25002 29.5537 12.5338 32.0975 17.7292C31.1879 19.61 29.9083 21.2288 28.382 22.5392L30.5558 24.7129C32.6987 22.8167 34.3945 20.4425 35.4583 17.7292C32.7912 10.9613 26.2083 6.16668 18.5 6.16668C16.542 6.16668 14.6612 6.47502 12.8883 7.04543L15.432 9.58918C16.4341 9.38877 17.4516 9.25002 18.5 9.25002ZM16.8504 11.0075L20.0416 14.1988C20.9204 14.5842 21.6295 15.2934 22.015 16.1721L25.2062 19.3634C25.3295 18.8392 25.422 18.2842 25.422 17.7138C25.4375 13.8904 22.3233 10.7917 18.5 10.7917C17.9295 10.7917 17.39 10.8688 16.8504 11.0075ZM3.09871 5.96627L7.23038 10.0979C4.71746 12.0713 2.72871 14.6921 1.54163 17.7292C4.20871 24.4971 10.7916 29.2917 18.5 29.2917C20.8433 29.2917 23.0941 28.8446 25.16 28.0275L30.4325 33.3L32.6062 31.1263L5.27246 3.7771L3.09871 5.96627ZM14.6612 17.5288L18.685 21.5525C18.6233 21.5679 18.5616 21.5834 18.5 21.5834C16.3725 21.5834 14.6458 19.8567 14.6458 17.7292C14.6458 17.6521 14.6612 17.6059 14.6612 17.5288ZM9.41954 12.2871L12.1175 14.985C11.7629 15.8329 11.5625 16.7579 11.5625 17.7292C11.5625 21.5525 14.6766 24.6667 18.5 24.6667C19.4712 24.6667 20.3962 24.4663 21.2287 24.1117L22.7395 25.6225C21.3829 25.9925 19.9645 26.2084 18.5 26.2084C12.657 26.2084 7.44621 22.9246 4.90246 17.7292C5.98163 15.5246 7.55413 13.7054 9.41954 12.2871Z" fill="#666666"/>
</svg>
