<svg xmlns="http://www.w3.org/2000/svg" height="213.333" width="973.333"><defs><clipPath id="a" clipPathUnits="userSpaceOnUse"><path d="M0 160h730V0H0z"/></clipPath></defs><g clip-path="url(#a)" transform="matrix(1.33333 0 0 -1.33333 0 213.333)"><path d="M13.96 80a56.508 56.508 0 11113.016 0A56.508 56.508 0 0113.96 80" fill="#77b82e"/><path d="M76.567 57.528c-4.954-2.606-11.935-4.579-16.827-4.406-4.19.148-7.633 1.382-10.328 4.145-2.689 2.764-4.034 6.3-4.034 10.61 0 1.507.122 2.974.371 4.387a22.792 22.792 0 002.297 6.792c.98 1.874 2.23 3.642 3.753 5.315 4.278 4.685 9.323 7.03 15.12 7.03 4.647 0 8.358-1.916 11.137-5.749a16.476 16.476 0 001.407-2.36l-25.528-8.78v-4.136l29 7.441c2.61.646 3.982 2.894 3.382 5.516l-.27.988c-1.837 7.685-7.758 14.48-15.75 16.09-9.285 1.868-18.775-2.748-25.152-9.24a40.345 40.345 0 01-.672-.702c-6.42-6.844-9.629-14.7-9.629-23.562.026-6.675 2.054-12.196 6.077-16.564 4.023-4.373 9.105-6.559 15.246-6.559 9.795 0 22.493 6.323 29.234 13.16l-.069.048c-2.58 1.835-5.963 2.012-8.765.536" fill="#fff"/><path d="M88.283 44.71h-5.258l2.571 13.257 4.065 20.96c1.433 7.386 2.69 14.684-1.22 21.55-3.18 5.58-9.206 8.483-15.464 8.898-5.048.335-10.182-.742-14.832-2.678-.387-.161-4.373-1.955-4.326-2.038l-4.003 7.139c-.18.41 7.232 3.533 7.924 3.793a49.725 49.725 0 008.838 2.427c5.931 1.047 12.141.987 17.941-.737 7.726-2.296 14.298-8.256 16.667-16.04 2.713-8.908.523-20.654-.716-27.798L96.343 51.4a8.2 8.2 0 00-8.06-6.69" fill="#fff"/><path d="M332.52 68.626c0-1.018.163-1.905.488-2.664.325-.759.767-1.393 1.325-1.9a5.437 5.437 0 011.952-1.138 7.344 7.344 0 012.363-.375c.8 0 1.67.203 2.613.612.942.408 1.818 1.009 2.626 1.801.809.792 1.485 1.771 2.027 2.938.54 1.167.812 2.509.812 4.028v3.051c-.717.083-1.476.158-2.275.224-.801.067-1.677.101-2.627.101-1.05 0-2.125-.101-3.226-.301a9.499 9.499 0 01-3.002-1.063 6.45 6.45 0 01-2.213-2.05c-.575-.86-.862-1.947-.862-3.264m14.154 14.48c0 1.017-.154 1.955-.463 2.814a5.94 5.94 0 01-1.4 2.226c-.626.626-1.405 1.113-2.339 1.463-.933.35-2.025.525-3.276.525-1.584 0-3.106-.304-4.565-.912a15.124 15.124 0 01-4.089-2.564c-.533-.467-1.003-.825-1.413-1.075a2.378 2.378 0 00-1.262-.376c-.284 0-.588.059-.913.176a5.607 5.607 0 00-1.113.575l-.2.125c-.634.35-1.104.691-1.413 1.025-.309.333-.463.708-.463 1.125 0 .517.275 1.151.825 1.901a18.896 18.896 0 006.816 5.715c1.358.675 2.8 1.196 4.326 1.563 1.526.366 3.097.55 4.715.55 3.301 0 6.064-.392 8.29-1.175 2.226-.784 4.014-1.922 5.365-3.414 1.351-1.492 2.317-3.314 2.901-5.465.583-2.151.875-4.593.875-7.328V60.147c0-.784-.066-1.438-.2-1.962-.134-.526-.354-.947-.663-1.264-.309-.316-.725-.537-1.25-.662s-1.18-.188-1.963-.188h-2.226c-.934 0-1.713.075-2.338.225-.626.15-1.126.408-1.5.775-.376.367-.639.859-.789 1.476-.15.617-.225 1.384-.225 2.301h-.05a14.082 14.082 0 00-1.876-2.213 12.218 12.218 0 00-2.425-1.814 12.976 12.976 0 00-2.964-1.225c-1.076-.3-2.239-.45-3.49-.45a19.07 19.07 0 00-3.788.376 16.373 16.373 0 00-3.527 1.124 15.21 15.21 0 00-3.064 1.838 11.917 11.917 0 00-2.425 2.538 11.911 11.911 0 00-1.6 3.227c-.385 1.184-.576 2.477-.576 3.877 0 1.917.304 3.601.913 5.052.608 1.451 1.438 2.705 2.488 3.763a13.815 13.815 0 003.69 2.639 24.19 24.19 0 004.476 1.689 31.1 31.1 0 004.865.899c1.667.175 3.292.263 4.877.263.75 0 1.488-.021 2.212-.063a41.405 41.405 0 002.214-.187zm53.721-19.432a17.21 17.21 0 00-2.838-3.613 16.117 16.117 0 00-3.69-2.677 18.78 18.78 0 00-4.477-1.663c-1.617-.383-3.359-.575-5.226-.575-3.268 0-6.203.52-8.804 1.563-2.6 1.042-4.81 2.492-6.626 4.352-1.818 1.858-3.21 4.08-4.177 6.665-.967 2.584-1.451 5.419-1.451 8.504 0 3.084.491 5.95 1.475 8.602.984 2.652 2.401 4.948 4.251 6.89 1.851 1.943 4.102 3.468 6.753 4.577s5.644 1.663 8.98 1.663c3.6 0 6.714-.721 9.34-2.163 2.626-1.442 4.772-3.481 6.44-6.115.517-.817.775-1.5.775-2.051 0-.483-.179-.908-.539-1.275-.358-.368-.895-.742-1.612-1.125l-.225-.125a6.787 6.787 0 00-1.1-.513 2.775 2.775 0 00-.9-.163c-.485 0-.926.163-1.327.488-.399.325-.849.804-1.349 1.438-1.05 1.316-2.248 2.313-3.59 2.988-1.342.676-2.872 1.014-4.589 1.014-1.718 0-3.264-.313-4.64-.938a9.68 9.68 0 01-3.513-2.702c-.967-1.175-1.709-2.61-2.226-4.301-.516-1.692-.775-3.614-.775-5.765 0-1.817.221-3.555.663-5.214.441-1.66 1.121-3.122 2.038-4.39a10.335 10.335 0 013.451-3.038c1.385-.76 3.028-1.138 4.928-1.138 1.718 0 3.347.337 4.89 1.013 1.542.675 2.946 1.746 4.213 3.214.434.5.818.875 1.15 1.125.335.25.692.375 1.076.375.267 0 .55-.06.85-.175.3-.117.65-.284 1.05-.5l.226-.126c.617-.333 1.075-.671 1.376-1.013.3-.342.45-.728.45-1.162 0-.534-.233-1.184-.701-1.951m41.114 0a17.21 17.21 0 00-2.837-3.613 16.117 16.117 0 00-3.69-2.677 18.78 18.78 0 00-4.476-1.663c-1.617-.383-3.36-.575-5.226-.575-3.27 0-6.204.52-8.804 1.563-2.601 1.042-4.81 2.492-6.628 4.352-1.817 1.858-3.21 4.08-4.176 6.665-.967 2.584-1.451 5.419-1.451 8.504 0 3.084.492 5.95 1.476 8.602s2.4 4.948 4.25 6.89c1.852 1.943 4.103 3.468 6.753 4.577 2.652 1.109 5.644 1.663 8.98 1.663 3.6 0 6.715-.721 9.34-2.163 2.627-1.442 4.773-3.481 6.44-6.115.518-.817.776-1.5.776-2.051 0-.483-.18-.908-.54-1.275-.357-.368-.894-.742-1.611-1.125l-.225-.125a6.787 6.787 0 00-1.1-.513 2.775 2.775 0 00-.901-.163c-.484 0-.925.163-1.326.488-.4.325-.85.804-1.35 1.438-1.05 1.316-2.247 2.313-3.59 2.988-1.341.676-2.871 1.014-4.588 1.014-1.718 0-3.264-.313-4.64-.938a9.68 9.68 0 01-3.513-2.702c-.967-1.175-1.71-2.61-2.226-4.301-.517-1.692-.775-3.614-.775-5.765 0-1.817.22-3.555.662-5.214.442-1.66 1.122-3.122 2.039-4.39a10.325 10.325 0 013.45-3.038c1.385-.76 3.028-1.138 4.928-1.138 1.717 0 3.347.337 4.89 1.013 1.542.675 2.946 1.746 4.213 3.214.434.5.818.875 1.15 1.125.335.25.692.375 1.076.375.267 0 .55-.06.85-.175.3-.117.65-.284 1.05-.5l.226-.126c.617-.333 1.075-.671 1.376-1.013.3-.342.45-.728.45-1.162 0-.534-.233-1.184-.701-1.951m25.359 27.011c-1.734 0-3.222-.392-4.464-1.176a9.53 9.53 0 01-3.063-3.126c-.8-1.3-1.389-2.793-1.764-4.476a24.11 24.11 0 01-.563-5.252c0-1.885.184-3.686.55-5.403.367-1.717.942-3.234 1.726-4.551.784-1.318 1.801-2.37 3.052-3.152 1.25-.783 2.751-1.175 4.501-1.175 1.401 0 2.706.288 3.915.863 1.208.575 2.25 1.446 3.126 2.613.875 1.167 1.562 2.643 2.062 4.427.5 1.784.751 3.885.751 6.303 0 1.833-.192 3.6-.575 5.302-.384 1.7-.976 3.2-1.776 4.5-.8 1.302-1.818 2.344-3.05 3.127-1.236.784-2.71 1.176-4.428 1.176m.226 7.277c3.317 0 6.294-.537 8.927-1.612 2.634-1.076 4.865-2.56 6.691-4.453 1.825-1.892 3.221-4.122 4.19-6.69.966-2.567 1.45-5.343 1.45-8.328 0-3.168-.476-6.081-1.426-8.74-.95-2.66-2.347-4.953-4.189-6.878-1.843-1.926-4.11-3.427-6.803-4.502-2.693-1.075-5.773-1.613-9.24-1.613-3.387 0-6.4.518-9.042 1.55-2.642 1.035-4.873 2.48-6.69 4.34-1.818 1.859-3.206 4.08-4.164 6.665-.959 2.584-1.438 5.427-1.438 8.529 0 3.15.475 6.052 1.425 8.703.95 2.65 2.347 4.943 4.19 6.877 1.842 1.934 4.114 3.443 6.815 4.527 2.7 1.083 5.802 1.625 9.304 1.625m37.638-26.06c0-1.4.108-2.639.325-3.714.217-1.076.58-1.98 1.088-2.714a4.899 4.899 0 012.013-1.676c.834-.383 1.86-.575 3.077-.575 1.167 0 2.251.25 3.251.751 1 .5 1.863 1.18 2.588 2.037a9.66 9.66 0 011.701 2.99c.408 1.133.613 2.326.613 3.576V92.96c0 .783.062 1.438.188 1.963.125.525.344.942.662 1.25.316.31.738.53 1.263.663.526.134 1.18.201 1.963.201h3.052c.783 0 1.438-.067 1.963-.2.524-.134.941-.355 1.25-.664.31-.308.53-.725.663-1.25s.2-1.18.2-1.963V60.147c0-.784-.067-1.438-.2-1.963-.134-.525-.354-.946-.663-1.263-.309-.317-.726-.538-1.25-.663-.525-.125-1.18-.187-1.963-.187h-2.076c-.984 0-1.8.08-2.45.237-.652.158-1.168.425-1.552.8-.384.376-.654.884-.812 1.526-.16.641-.238 1.438-.238 2.388l-.05.026a11.143 11.143 0 00-1.963-2.3 13.168 13.168 0 00-2.702-1.877 15.2 15.2 0 00-3.3-1.263 14.96 14.96 0 00-3.765-.463c-1.984 0-3.705.225-5.164.675-1.459.451-2.71 1.09-3.752 1.914a10.282 10.282 0 00-2.55 2.951 16.118 16.118 0 00-1.564 3.802 25.16 25.16 0 00-.787 4.477 55.879 55.879 0 00-.213 4.963V92.96c0 .783.062 1.438.187 1.963.125.525.347.942.663 1.25.317.31.738.53 1.263.663.525.134 1.18.201 1.963.201h3.002c.783 0 1.437-.067 1.963-.2.525-.134.941-.355 1.25-.664.308-.308.53-.725.663-1.25.134-.525.2-1.18.2-1.963zm37.964-15.831c-.783 0-1.437.062-1.963.187-.525.125-.946.346-1.263.663-.317.317-.538.738-.663 1.263-.125.525-.187 1.18-.187 1.963V92.96c0 .783.062 1.438.187 1.963.125.525.346.942.663 1.251.317.308.738.53 1.263.662.526.134 1.18.201 1.963.201h2.051c.983 0 1.801-.08 2.452-.238.65-.159 1.166-.425 1.55-.8.384-.376.654-.884.812-1.526.16-.642.24-1.438.24-2.388l.048-.026a10.977 10.977 0 001.976 2.302c.8.716 1.705 1.341 2.714 1.875a15.088 15.088 0 007.065 1.726c1.984 0 3.705-.217 5.164-.65 1.46-.434 2.71-1.047 3.752-1.839a9.804 9.804 0 002.551-2.876c.658-1.125 1.18-2.384 1.563-3.776s.646-2.9.788-4.527c.141-1.626.212-3.33.212-5.114V60.147c0-.784-.067-1.438-.2-1.963-.134-.525-.354-.946-.663-1.263-.308-.317-.724-.538-1.25-.663-.525-.125-1.179-.187-1.964-.187h-3c-.785 0-1.438.062-1.964.187-.525.125-.946.346-1.263.663-.317.317-.537.738-.662 1.263-.125.525-.188 1.18-.188 1.963v21.058c0 1.401-.108 2.64-.325 3.715-.217 1.075-.579 1.98-1.088 2.713a4.889 4.889 0 01-2.013 1.675c-.835.384-1.86.576-3.077.576-1.183 0-2.272-.25-3.263-.75a8.257 8.257 0 01-2.589-2.039 9.524 9.524 0 01-1.713-2.989 10.482 10.482 0 01-.612-3.576V60.147c0-.784-.068-1.438-.2-1.963-.134-.525-.355-.946-.664-1.263-.308-.317-.724-.538-1.25-.663-.525-.125-1.18-.187-1.964-.187zm65.301 5.277c.184-.7.275-1.275.275-1.726 0-.566-.159-1.034-.475-1.4-.318-.367-.85-.734-1.601-1.1a21.663 21.663 0 00-3.726-1.413c-1.334-.376-2.76-.563-4.277-.563-1.918 0-3.638.246-5.165.738-1.525.49-2.817 1.225-3.876 2.2-1.058.976-1.872 2.202-2.438 3.677-.568 1.476-.851 3.205-.851 5.19v22.783h-2.901c-.699 0-1.287.058-1.763.176-.475.116-.85.312-1.125.587-.275.275-.472.65-.588 1.126-.117.475-.176 1.062-.176 1.763 0 .7.059 1.288.176 1.763.116.475.313.85.588 1.125.275.276.65.47 1.125.588.476.116 1.064.175 1.763.175h2.901v6.628c0 .784.063 1.438.189 1.963.124.525.345.942.662 1.25.316.309.737.53 1.263.663.525.134 1.179.2 1.963.2h3.202c.783 0 1.437-.066 1.962-.2.526-.133.943-.354 1.251-.662.308-.31.529-.726.663-1.251.133-.525.2-1.18.2-1.963v-6.628h6.102c.684 0 1.251-.054 1.701-.162.45-.11.813-.3 1.087-.575.276-.276.467-.638.576-1.09.108-.45.163-1.016.163-1.7v-.25c0-.683-.055-1.25-.163-1.7-.109-.45-.3-.813-.576-1.087-.274-.276-.637-.468-1.087-.576-.45-.11-1.017-.163-1.701-.163h-6.102V68.75c0-1.05.075-1.971.225-2.763.15-.792.404-1.455.763-1.99a3.333 3.333 0 011.413-1.2c.583-.265 1.309-.4 2.176-.4.483 0 .959.058 1.425.176.466.117.942.275 1.425.475.351.133.664.24.939.325.274.083.528.125.763.125.416 0 .75-.146 1-.437.25-.292.45-.788.6-1.488zm11.879 35.714c.783 0 1.438-.067 1.963-.2.525-.134.942-.355 1.25-.663.309-.308.53-.725.664-1.25.133-.526.199-1.18.199-1.964V60.147c0-.784-.066-1.438-.2-1.962-.133-.526-.354-.947-.662-1.264-.31-.317-.726-.537-1.251-.662-.525-.125-1.18-.188-1.963-.188h-3.001c-.784 0-1.438.063-1.964.188-.524.125-.946.345-1.263.662-.316.317-.538.738-.663 1.264-.124.524-.187 1.178-.187 1.962v32.838c0 .784.063 1.438.187 1.964.125.525.347.942.663 1.25.317.308.739.529 1.263.663.526.133 1.18.2 1.964.2zm5.103 11.904c0-.934-.172-1.804-.514-2.613a6.659 6.659 0 00-1.401-2.113 6.595 6.595 0 00-2.1-1.426 6.51 6.51 0 00-2.613-.525 6.51 6.51 0 00-2.614.525 6.907 6.907 0 00-2.126 1.426 6.61 6.61 0 00-1.438 2.113 6.506 6.506 0 00-.526 2.613c0 .934.176 1.801.526 2.601a6.507 6.507 0 001.438 2.089 6.665 6.665 0 002.126 1.388c.809.333 1.68.5 2.614.5.933 0 1.804-.167 2.613-.5a6.37 6.37 0 002.1-1.388 6.552 6.552 0 001.4-2.089 6.53 6.53 0 00.515-2.601m11.102-52.895c-.783 0-1.437.062-1.963.187-.524.125-.946.346-1.263.663-.317.317-.537.738-.663 1.263-.125.525-.187 1.18-.187 1.963V92.96c0 .783.062 1.438.187 1.963.126.525.346.942.663 1.251.317.308.739.53 1.263.662.526.134 1.18.201 1.963.201h2.052c.983 0 1.8-.08 2.45-.238.65-.159 1.167-.425 1.551-.8.384-.376.654-.884.812-1.526.159-.642.239-1.438.239-2.388l.049-.026a10.977 10.977 0 001.976 2.302c.8.716 1.705 1.341 2.714 1.875a15.088 15.088 0 007.065 1.726c1.984 0 3.705-.217 5.164-.65 1.459-.434 2.71-1.047 3.752-1.839a9.804 9.804 0 002.551-2.876c.658-1.125 1.18-2.384 1.563-3.776s.646-2.9.788-4.527c.141-1.626.212-3.33.212-5.114V60.147c0-.784-.067-1.438-.2-1.963-.134-.525-.354-.946-.663-1.263-.308-.317-.724-.538-1.25-.663-.525-.125-1.179-.187-1.964-.187h-3.001c-.784 0-1.438.062-1.963.187-.525.125-.946.346-1.263.663-.317.317-.537.738-.662 1.263-.125.525-.188 1.18-.188 1.963v21.058c0 1.401-.108 2.64-.325 3.715-.217 1.075-.579 1.98-1.088 2.713a4.889 4.889 0 01-2.013 1.675c-.835.384-1.86.576-3.077.576-1.183 0-2.272-.25-3.263-.75a8.257 8.257 0 01-2.589-2.039 9.524 9.524 0 01-1.713-2.989 10.482 10.482 0 01-.612-3.576V60.147c0-.784-.067-1.438-.201-1.963-.133-.525-.354-.946-.663-1.263-.308-.317-.724-.538-1.251-.663-.524-.125-1.179-.187-1.963-.187zm50.17 21.409c0-1.869.167-3.606.5-5.216.334-1.608.867-3.01 1.602-4.2a7.93 7.93 0 012.887-2.801c1.193-.677 2.656-1.014 4.39-1.014 1.267 0 2.45.25 3.552.75a8.872 8.872 0 012.85 2.04c.8.857 1.43 1.857 1.888 3a9.656 9.656 0 01.687 3.639v6.978c0 1.533-.261 2.892-.787 4.075-.525 1.185-1.21 2.182-2.05 2.99a8.82 8.82 0 01-2.814 1.838c-1.034.417-2.06.626-3.076.626-1.701 0-3.155-.33-4.364-.989a8.481 8.481 0 01-2.99-2.713c-.783-1.15-1.358-2.498-1.724-4.04-.367-1.541-.551-3.196-.551-4.963m29.786-18.333c0-3.517-.383-6.673-1.15-9.466-.767-2.792-2.005-5.164-3.714-7.115-1.71-1.95-3.927-3.443-6.652-4.478-2.726-1.033-6.041-1.55-9.942-1.55-1.45 0-2.98.122-4.59.363a20.674 20.674 0 00-4.763 1.325c-1.568.644-3.068 1.527-4.502 2.65-1.434 1.127-2.71 2.574-3.827 4.34-.55.851-.825 1.568-.825 2.151 0 .484.179.925.538 1.325.358.4.887.817 1.588 1.251l.2.125c.85.534 1.559.801 2.125.801.45 0 .872-.15 1.264-.45.392-.3.829-.75 1.313-1.35 1.334-1.618 2.872-2.815 4.614-3.59 1.742-.775 3.714-1.163 5.915-1.163 1.968 0 3.643.342 5.026 1.025a8.815 8.815 0 013.403 2.951c.882 1.285 1.529 2.847 1.937 4.69.409 1.843.612 3.914.612 6.215v2.876c-.465-.6-1.053-1.23-1.762-1.888a14.134 14.134 0 00-2.49-1.826c-.95-.559-2.024-1.018-3.224-1.375-1.201-.359-2.526-.538-3.977-.538-3.018 0-5.7.52-8.041 1.562-2.342 1.042-4.314 2.468-5.915 4.278-1.6 1.808-2.813 3.947-3.638 6.415-.826 2.467-1.24 5.128-1.24 7.978 0 2.851.41 5.56 1.227 8.128.816 2.568 2.026 4.827 3.627 6.778 1.6 1.95 3.57 3.5 5.914 4.652 2.343 1.15 5.04 1.725 8.09 1.725a15.2 15.2 0 003.665-.425 13.851 13.851 0 003.15-1.188 11.82 11.82 0 002.589-1.85 12.51 12.51 0 001.976-2.39l.049.026c0 .95.08 1.738.239 2.363.158.626.428 1.126.812 1.502.384.375.897.64 1.538.8.642.158 1.447.238 2.414.238h2.35c.784 0 1.439-.067 1.964-.201.525-.133.94-.354 1.25-.663.309-.308.53-.725.664-1.25.133-.525.199-1.18.199-1.963z" fill="#263a67"/><path d="M185.904 81.556c0 .917-.163 1.897-.488 2.939a8.727 8.727 0 01-1.538 2.876c-.7.875-1.6 1.6-2.701 2.176-1.1.575-2.425.863-3.976.863-1.151 0-2.176-.163-3.077-.488-.9-.325-1.7-.746-2.401-1.263a8.746 8.746 0 01-1.788-1.751 11.027 11.027 0 01-1.2-1.963 10.548 10.548 0 01-.688-1.876c-.15-.592-.225-1.096-.225-1.513zm9.179-17.106a22.308 22.308 0 00-2.914-3.677 17.852 17.852 0 00-3.814-2.951c-1.434-.834-3.055-1.488-4.865-1.963-1.81-.475-3.838-.713-6.09-.713-3.334 0-6.327.534-8.977 1.6-2.652 1.067-4.903 2.55-6.753 4.453-1.851 1.9-3.268 4.15-4.252 6.753-.984 2.6-1.475 5.434-1.475 8.502 0 3.15.516 6.044 1.55 8.679 1.034 2.634 2.489 4.902 4.364 6.802 1.876 1.9 4.13 3.38 6.765 4.439 2.635 1.059 5.56 1.588 8.779 1.588.883 0 1.95-.071 3.2-.212 1.25-.142 2.565-.446 3.94-.913 1.376-.467 2.755-1.13 4.139-1.988 1.384-.86 2.664-2.01 3.839-3.452 1.176-1.442 2.18-3.21 3.014-5.301.833-2.093 1.392-4.607 1.675-7.541.017-.184.029-.35.038-.5.008-.15.012-.301.012-.45 0-1.185-.304-2.001-.912-2.451-.61-.451-1.613-.676-3.014-.676h-25.66c0-.783.09-1.61.275-2.476a12.37 12.37 0 012.363-5.039 10.359 10.359 0 012.189-2.063c.85-.6 1.82-1.076 2.914-1.426 1.09-.35 2.32-.525 3.688-.525 1.984 0 3.868.363 5.653 1.087 1.784.726 3.426 1.873 4.926 3.44.45.483.855.846 1.214 1.088.358.24.737.362 1.137.362.484 0 1.076-.217 1.776-.65l.2-.125c.584-.317 1.017-.634 1.3-.95.284-.317.426-.667.426-1.051 0-.45-.217-1.017-.65-1.7m28.76-4.852c-.3-.734-.596-1.33-.888-1.788a3.534 3.534 0 00-1.025-1.076 3.58 3.58 0 00-1.388-.525c-.534-.092-1.193-.137-1.976-.137h-.25c-.8 0-1.467.045-2 .137a3.574 3.574 0 00-1.389.525 3.534 3.534 0 00-1.025 1.076c-.292.458-.588 1.054-.888 1.788l-14.08 33.688c-.334.816-.5 1.483-.5 2 0 .634.241 1.084.724 1.35.484.268 1.242.4 2.276.4h3.952c.851 0 1.56-.05 2.126-.15.566-.1 1.054-.287 1.463-.561.408-.275.763-.663 1.063-1.164.3-.5.6-1.142.9-1.925l8.228-21.258 8.303 21.258c.301.783.601 1.425.901 1.925.3.5.654.889 1.063 1.164.408.274.896.462 1.463.562.567.1 1.276.15 2.125.15h2.376c1.034 0 1.793-.137 2.277-.413.483-.275.725-.73.725-1.362 0-.484-.167-1.151-.5-2.001zm45.967 21.958c0 .917-.162 1.897-.487 2.939a8.749 8.749 0 01-1.539 2.876c-.7.875-1.6 1.6-2.7 2.176-1.1.575-2.426.863-3.977.863-1.15 0-2.176-.163-3.076-.488a9.378 9.378 0 01-2.402-1.263 8.696 8.696 0 01-1.788-1.751 10.97 10.97 0 01-1.888-3.84c-.15-.591-.225-1.095-.225-1.512zm9.18-17.106a22.361 22.361 0 00-2.915-3.677 17.852 17.852 0 00-3.814-2.951c-1.434-.834-3.055-1.488-4.865-1.963-1.809-.475-3.839-.713-6.089-.713-3.335 0-6.328.534-8.978 1.6-2.652 1.067-4.903 2.55-6.753 4.453-1.85 1.9-3.269 4.15-4.252 6.753-.984 2.6-1.476 5.434-1.476 8.502 0 3.15.517 6.044 1.551 8.679 1.033 2.634 2.488 4.902 4.364 6.802 1.876 1.9 4.131 3.38 6.766 4.439 2.634 1.059 5.56 1.588 8.778 1.588.883 0 1.95-.071 3.201-.212 1.25-.142 2.564-.446 3.94-.913s2.755-1.13 4.138-1.988c1.383-.86 2.663-2.01 3.84-3.452 1.175-1.442 2.18-3.21 3.013-5.301.833-2.093 1.392-4.607 1.676-7.541.015-.184.028-.35.037-.5.008-.15.012-.301.012-.45 0-1.185-.304-2.001-.913-2.451-.608-.451-1.613-.676-3.013-.676h-25.66a12.428 12.428 0 011.138-5.064 12.11 12.11 0 011.5-2.451 10.335 10.335 0 012.19-2.063c.85-.6 1.82-1.076 2.913-1.426 1.092-.35 2.321-.525 3.688-.525 1.985 0 3.868.363 5.653 1.087 1.784.726 3.425 1.873 4.926 3.44.451.483.855.846 1.213 1.088a2.01 2.01 0 001.138.362c.483 0 1.076-.217 1.776-.65l.2-.125c.584-.317 1.017-.634 1.3-.95.284-.317.426-.667.426-1.051 0-.45-.217-1.017-.65-1.7m32.888 27.585c0-.6-.047-1.096-.138-1.488-.091-.392-.238-.71-.437-.95a1.528 1.528 0 00-.776-.5 4.17 4.17 0 00-1.151-.138 8.77 8.77 0 00-.662.025c-.226.017-.48.042-.763.075a11.77 11.77 0 01-1.576.1c-1.233 0-2.376-.2-3.426-.601a7.772 7.772 0 01-2.739-1.75c-.774-.767-1.384-1.7-1.825-2.801-.442-1.1-.663-2.351-.663-3.751V60.148c0-.784-.067-1.44-.199-1.963-.134-.525-.355-.946-.664-1.264-.308-.316-.725-.537-1.251-.662-.524-.125-1.179-.187-1.962-.187h-3.077c-.784 0-1.438.062-1.962.187-.526.125-.948.346-1.264.662-.317.318-.537.739-.663 1.264-.124.524-.188 1.179-.188 1.963V92.96c0 .783.064 1.438.188 1.963.126.525.346.942.663 1.25.316.309.738.529 1.264.663.524.134 1.178.2 1.962.2h2.476c.9 0 1.651-.075 2.251-.225.601-.15 1.079-.4 1.438-.75s.613-.818.763-1.401c.15-.584.225-1.317.225-2.201h.051c.382.734.924 1.434 1.625 2.1.7.668 1.501 1.25 2.401 1.752.9.5 1.871.9 2.913 1.2a11.3 11.3 0 003.139.45c.834 0 1.513-.087 2.039-.262.524-.175.932-.45 1.224-.825.292-.376.493-.86.601-1.451.108-.592.163-1.305.163-2.14z" fill="#77b82e"/></g></svg>