<?xml version="1.0" encoding="UTF-8"?>
<svg version="1.1" baseProfile="tiny" xmlns="http://www.w3.org/2000/svg" width="222" height="222">
<rect shape-rendering="optimizeSpeed"  x="0" y="0" width="222" height="222" fill="white" />
<rect shape-rendering="optimizeSpeed"  x="16" y="16" width="9" height="9" fill="#ddd" />
<rect shape-rendering="optimizeSpeed"  x="25" y="16" width="9" height="9" fill="#ddd" />
<rect shape-rendering="optimizeSpeed"  x="34" y="16" width="9" height="9" fill="#ddd" />
<rect shape-rendering="optimizeSpeed"  x="43" y="16" width="9" height="9" fill="#ddd" />
<rect shape-rendering="optimizeSpeed"  x="52" y="16" width="9" height="9" fill="#ddd" />
<rect shape-rendering="optimizeSpeed"  x="61" y="16" width="9" height="9" fill="#ddd" />
<rect shape-rendering="optimizeSpeed"  x="70" y="16" width="9" height="9" fill="#ddd" />
<rect shape-rendering="optimizeSpeed"  x="106" y="16" width="9" height="9" fill="#ddd" />
<rect shape-rendering="optimizeSpeed"  x="124" y="16" width="9" height="9" fill="#ddd" />
<rect shape-rendering="optimizeSpeed"  x="142" y="16" width="9" height="9" fill="#ddd" />
<rect shape-rendering="optimizeSpeed"  x="151" y="16" width="9" height="9" fill="#ddd" />
<rect shape-rendering="optimizeSpeed"  x="160" y="16" width="9" height="9" fill="#ddd" />
<rect shape-rendering="optimizeSpeed"  x="169" y="16" width="9" height="9" fill="#ddd" />
<rect shape-rendering="optimizeSpeed"  x="178" y="16" width="9" height="9" fill="#ddd" />
<rect shape-rendering="optimizeSpeed"  x="187" y="16" width="9" height="9" fill="#ddd" />
<rect shape-rendering="optimizeSpeed"  x="196" y="16" width="9" height="9" fill="#ddd" />
<rect shape-rendering="optimizeSpeed"  x="16" y="25" width="9" height="9" fill="#ddd" />
<rect shape-rendering="optimizeSpeed"  x="70" y="25" width="9" height="9" fill="#ddd" />
<rect shape-rendering="optimizeSpeed"  x="124" y="25" width="9" height="9" fill="#ddd" />
<rect shape-rendering="optimizeSpeed"  x="142" y="25" width="9" height="9" fill="#ddd" />
<rect shape-rendering="optimizeSpeed"  x="196" y="25" width="9" height="9" fill="#ddd" />
<rect shape-rendering="optimizeSpeed"  x="16" y="34" width="9" height="9" fill="#ddd" />
<rect shape-rendering="optimizeSpeed"  x="34" y="34" width="9" height="9" fill="#ddd" />
<rect shape-rendering="optimizeSpeed"  x="43" y="34" width="9" height="9" fill="#ddd" />
<rect shape-rendering="optimizeSpeed"  x="52" y="34" width="9" height="9" fill="#ddd" />
<rect shape-rendering="optimizeSpeed"  x="70" y="34" width="9" height="9" fill="#ddd" />
<rect shape-rendering="optimizeSpeed"  x="88" y="34" width="9" height="9" fill="#ddd" />
<rect shape-rendering="optimizeSpeed"  x="106" y="34" width="9" height="9" fill="#ddd" />
<rect shape-rendering="optimizeSpeed"  x="142" y="34" width="9" height="9" fill="#ddd" />
<rect shape-rendering="optimizeSpeed"  x="160" y="34" width="9" height="9" fill="#ddd" />
<rect shape-rendering="optimizeSpeed"  x="169" y="34" width="9" height="9" fill="#ddd" />
<rect shape-rendering="optimizeSpeed"  x="178" y="34" width="9" height="9" fill="#ddd" />
<rect shape-rendering="optimizeSpeed"  x="196" y="34" width="9" height="9" fill="#ddd" />
<rect shape-rendering="optimizeSpeed"  x="16" y="43" width="9" height="9" fill="#ddd" />
<rect shape-rendering="optimizeSpeed"  x="34" y="43" width="9" height="9" fill="#ddd" />
<rect shape-rendering="optimizeSpeed"  x="43" y="43" width="9" height="9" fill="#ddd" />
<rect shape-rendering="optimizeSpeed"  x="52" y="43" width="9" height="9" fill="#ddd" />
<rect shape-rendering="optimizeSpeed"  x="70" y="43" width="9" height="9" fill="#ddd" />
<rect shape-rendering="optimizeSpeed"  x="124" y="43" width="9" height="9" fill="#ddd" />
<rect shape-rendering="optimizeSpeed"  x="142" y="43" width="9" height="9" fill="#ddd" />
<rect shape-rendering="optimizeSpeed"  x="160" y="43" width="9" height="9" fill="#ddd" />
<rect shape-rendering="optimizeSpeed"  x="169" y="43" width="9" height="9" fill="#ddd" />
<rect shape-rendering="optimizeSpeed"  x="178" y="43" width="9" height="9" fill="#ddd" />
<rect shape-rendering="optimizeSpeed"  x="196" y="43" width="9" height="9" fill="#ddd" />
<rect shape-rendering="optimizeSpeed"  x="16" y="52" width="9" height="9" fill="#ddd" />
<rect shape-rendering="optimizeSpeed"  x="34" y="52" width="9" height="9" fill="#ddd" />
<rect shape-rendering="optimizeSpeed"  x="43" y="52" width="9" height="9" fill="#ddd" />
<rect shape-rendering="optimizeSpeed"  x="52" y="52" width="9" height="9" fill="#ddd" />
<rect shape-rendering="optimizeSpeed"  x="70" y="52" width="9" height="9" fill="#ddd" />
<rect shape-rendering="optimizeSpeed"  x="97" y="52" width="9" height="9" fill="#ddd" />
<rect shape-rendering="optimizeSpeed"  x="115" y="52" width="9" height="9" fill="#ddd" />
<rect shape-rendering="optimizeSpeed"  x="124" y="52" width="9" height="9" fill="#ddd" />
<rect shape-rendering="optimizeSpeed"  x="142" y="52" width="9" height="9" fill="#ddd" />
<rect shape-rendering="optimizeSpeed"  x="160" y="52" width="9" height="9" fill="#ddd" />
<rect shape-rendering="optimizeSpeed"  x="169" y="52" width="9" height="9" fill="#ddd" />
<rect shape-rendering="optimizeSpeed"  x="178" y="52" width="9" height="9" fill="#ddd" />
<rect shape-rendering="optimizeSpeed"  x="196" y="52" width="9" height="9" fill="#ddd" />
<rect shape-rendering="optimizeSpeed"  x="16" y="61" width="9" height="9" fill="#ddd" />
<rect shape-rendering="optimizeSpeed"  x="70" y="61" width="9" height="9" fill="#ddd" />
<rect shape-rendering="optimizeSpeed"  x="97" y="61" width="9" height="9" fill="#ddd" />
<rect shape-rendering="optimizeSpeed"  x="106" y="61" width="9" height="9" fill="#ddd" />
<rect shape-rendering="optimizeSpeed"  x="115" y="61" width="9" height="9" fill="#ddd" />
<rect shape-rendering="optimizeSpeed"  x="142" y="61" width="9" height="9" fill="#ddd" />
<rect shape-rendering="optimizeSpeed"  x="196" y="61" width="9" height="9" fill="#ddd" />
<rect shape-rendering="optimizeSpeed"  x="16" y="70" width="9" height="9" fill="#ddd" />
<rect shape-rendering="optimizeSpeed"  x="25" y="70" width="9" height="9" fill="#ddd" />
<rect shape-rendering="optimizeSpeed"  x="34" y="70" width="9" height="9" fill="#ddd" />
<rect shape-rendering="optimizeSpeed"  x="43" y="70" width="9" height="9" fill="#ddd" />
<rect shape-rendering="optimizeSpeed"  x="52" y="70" width="9" height="9" fill="#ddd" />
<rect shape-rendering="optimizeSpeed"  x="61" y="70" width="9" height="9" fill="#ddd" />
<rect shape-rendering="optimizeSpeed"  x="70" y="70" width="9" height="9" fill="#ddd" />
<rect shape-rendering="optimizeSpeed"  x="88" y="70" width="9" height="9" fill="#ddd" />
<rect shape-rendering="optimizeSpeed"  x="106" y="70" width="9" height="9" fill="#ddd" />
<rect shape-rendering="optimizeSpeed"  x="124" y="70" width="9" height="9" fill="#ddd" />
<rect shape-rendering="optimizeSpeed"  x="142" y="70" width="9" height="9" fill="#ddd" />
<rect shape-rendering="optimizeSpeed"  x="151" y="70" width="9" height="9" fill="#ddd" />
<rect shape-rendering="optimizeSpeed"  x="160" y="70" width="9" height="9" fill="#ddd" />
<rect shape-rendering="optimizeSpeed"  x="169" y="70" width="9" height="9" fill="#ddd" />
<rect shape-rendering="optimizeSpeed"  x="178" y="70" width="9" height="9" fill="#ddd" />
<rect shape-rendering="optimizeSpeed"  x="187" y="70" width="9" height="9" fill="#ddd" />
<rect shape-rendering="optimizeSpeed"  x="196" y="70" width="9" height="9" fill="#ddd" />
<rect shape-rendering="optimizeSpeed"  x="88" y="79" width="9" height="9" fill="#ddd" />
<rect shape-rendering="optimizeSpeed"  x="106" y="79" width="9" height="9" fill="#ddd" />
<rect shape-rendering="optimizeSpeed"  x="16" y="88" width="9" height="9" fill="#ddd" />
<rect shape-rendering="optimizeSpeed"  x="25" y="88" width="9" height="9" fill="#ddd" />
<rect shape-rendering="optimizeSpeed"  x="34" y="88" width="9" height="9" fill="#ddd" />
<rect shape-rendering="optimizeSpeed"  x="52" y="88" width="9" height="9" fill="#ddd" />
<rect shape-rendering="optimizeSpeed"  x="61" y="88" width="9" height="9" fill="#ddd" />
<rect shape-rendering="optimizeSpeed"  x="70" y="88" width="9" height="9" fill="#ddd" />
<rect shape-rendering="optimizeSpeed"  x="79" y="88" width="9" height="9" fill="#ddd" />
<rect shape-rendering="optimizeSpeed"  x="88" y="88" width="9" height="9" fill="#ddd" />
<rect shape-rendering="optimizeSpeed"  x="106" y="88" width="9" height="9" fill="#ddd" />
<rect shape-rendering="optimizeSpeed"  x="124" y="88" width="9" height="9" fill="#ddd" />
<rect shape-rendering="optimizeSpeed"  x="133" y="88" width="9" height="9" fill="#ddd" />
<rect shape-rendering="optimizeSpeed"  x="142" y="88" width="9" height="9" fill="#ddd" />
<rect shape-rendering="optimizeSpeed"  x="178" y="88" width="9" height="9" fill="#ddd" />
<rect shape-rendering="optimizeSpeed"  x="16" y="97" width="9" height="9" fill="#ddd" />
<rect shape-rendering="optimizeSpeed"  x="34" y="97" width="9" height="9" fill="#ddd" />
<rect shape-rendering="optimizeSpeed"  x="61" y="97" width="9" height="9" fill="#ddd" />
<rect shape-rendering="optimizeSpeed"  x="88" y="97" width="9" height="9" fill="#ddd" />
<rect shape-rendering="optimizeSpeed"  x="106" y="97" width="9" height="9" fill="#ddd" />
<rect shape-rendering="optimizeSpeed"  x="115" y="97" width="9" height="9" fill="#ddd" />
<rect shape-rendering="optimizeSpeed"  x="133" y="97" width="9" height="9" fill="#ddd" />
<rect shape-rendering="optimizeSpeed"  x="151" y="97" width="9" height="9" fill="#ddd" />
<rect shape-rendering="optimizeSpeed"  x="169" y="97" width="9" height="9" fill="#ddd" />
<rect shape-rendering="optimizeSpeed"  x="187" y="97" width="9" height="9" fill="#ddd" />
<rect shape-rendering="optimizeSpeed"  x="34" y="106" width="9" height="9" fill="#ddd" />
<rect shape-rendering="optimizeSpeed"  x="52" y="106" width="9" height="9" fill="#ddd" />
<rect shape-rendering="optimizeSpeed"  x="70" y="106" width="9" height="9" fill="#ddd" />
<rect shape-rendering="optimizeSpeed"  x="97" y="106" width="9" height="9" fill="#ddd" />
<rect shape-rendering="optimizeSpeed"  x="115" y="106" width="9" height="9" fill="#ddd" />
<rect shape-rendering="optimizeSpeed"  x="133" y="106" width="9" height="9" fill="#ddd" />
<rect shape-rendering="optimizeSpeed"  x="142" y="106" width="9" height="9" fill="#ddd" />
<rect shape-rendering="optimizeSpeed"  x="151" y="106" width="9" height="9" fill="#ddd" />
<rect shape-rendering="optimizeSpeed"  x="169" y="106" width="9" height="9" fill="#ddd" />
<rect shape-rendering="optimizeSpeed"  x="178" y="106" width="9" height="9" fill="#ddd" />
<rect shape-rendering="optimizeSpeed"  x="187" y="106" width="9" height="9" fill="#ddd" />
<rect shape-rendering="optimizeSpeed"  x="25" y="115" width="9" height="9" fill="#ddd" />
<rect shape-rendering="optimizeSpeed"  x="52" y="115" width="9" height="9" fill="#ddd" />
<rect shape-rendering="optimizeSpeed"  x="61" y="115" width="9" height="9" fill="#ddd" />
<rect shape-rendering="optimizeSpeed"  x="79" y="115" width="9" height="9" fill="#ddd" />
<rect shape-rendering="optimizeSpeed"  x="97" y="115" width="9" height="9" fill="#ddd" />
<rect shape-rendering="optimizeSpeed"  x="106" y="115" width="9" height="9" fill="#ddd" />
<rect shape-rendering="optimizeSpeed"  x="115" y="115" width="9" height="9" fill="#ddd" />
<rect shape-rendering="optimizeSpeed"  x="124" y="115" width="9" height="9" fill="#ddd" />
<rect shape-rendering="optimizeSpeed"  x="133" y="115" width="9" height="9" fill="#ddd" />
<rect shape-rendering="optimizeSpeed"  x="151" y="115" width="9" height="9" fill="#ddd" />
<rect shape-rendering="optimizeSpeed"  x="160" y="115" width="9" height="9" fill="#ddd" />
<rect shape-rendering="optimizeSpeed"  x="169" y="115" width="9" height="9" fill="#ddd" />
<rect shape-rendering="optimizeSpeed"  x="187" y="115" width="9" height="9" fill="#ddd" />
<rect shape-rendering="optimizeSpeed"  x="196" y="115" width="9" height="9" fill="#ddd" />
<rect shape-rendering="optimizeSpeed"  x="16" y="124" width="9" height="9" fill="#ddd" />
<rect shape-rendering="optimizeSpeed"  x="25" y="124" width="9" height="9" fill="#ddd" />
<rect shape-rendering="optimizeSpeed"  x="43" y="124" width="9" height="9" fill="#ddd" />
<rect shape-rendering="optimizeSpeed"  x="52" y="124" width="9" height="9" fill="#ddd" />
<rect shape-rendering="optimizeSpeed"  x="61" y="124" width="9" height="9" fill="#ddd" />
<rect shape-rendering="optimizeSpeed"  x="70" y="124" width="9" height="9" fill="#ddd" />
<rect shape-rendering="optimizeSpeed"  x="79" y="124" width="9" height="9" fill="#ddd" />
<rect shape-rendering="optimizeSpeed"  x="97" y="124" width="9" height="9" fill="#ddd" />
<rect shape-rendering="optimizeSpeed"  x="106" y="124" width="9" height="9" fill="#ddd" />
<rect shape-rendering="optimizeSpeed"  x="115" y="124" width="9" height="9" fill="#ddd" />
<rect shape-rendering="optimizeSpeed"  x="133" y="124" width="9" height="9" fill="#ddd" />
<rect shape-rendering="optimizeSpeed"  x="142" y="124" width="9" height="9" fill="#ddd" />
<rect shape-rendering="optimizeSpeed"  x="151" y="124" width="9" height="9" fill="#ddd" />
<rect shape-rendering="optimizeSpeed"  x="169" y="124" width="9" height="9" fill="#ddd" />
<rect shape-rendering="optimizeSpeed"  x="178" y="124" width="9" height="9" fill="#ddd" />
<rect shape-rendering="optimizeSpeed"  x="187" y="124" width="9" height="9" fill="#ddd" />
<rect shape-rendering="optimizeSpeed"  x="88" y="133" width="9" height="9" fill="#ddd" />
<rect shape-rendering="optimizeSpeed"  x="97" y="133" width="9" height="9" fill="#ddd" />
<rect shape-rendering="optimizeSpeed"  x="106" y="133" width="9" height="9" fill="#ddd" />
<rect shape-rendering="optimizeSpeed"  x="142" y="133" width="9" height="9" fill="#ddd" />
<rect shape-rendering="optimizeSpeed"  x="178" y="133" width="9" height="9" fill="#ddd" />
<rect shape-rendering="optimizeSpeed"  x="187" y="133" width="9" height="9" fill="#ddd" />
<rect shape-rendering="optimizeSpeed"  x="16" y="142" width="9" height="9" fill="#ddd" />
<rect shape-rendering="optimizeSpeed"  x="25" y="142" width="9" height="9" fill="#ddd" />
<rect shape-rendering="optimizeSpeed"  x="34" y="142" width="9" height="9" fill="#ddd" />
<rect shape-rendering="optimizeSpeed"  x="43" y="142" width="9" height="9" fill="#ddd" />
<rect shape-rendering="optimizeSpeed"  x="52" y="142" width="9" height="9" fill="#ddd" />
<rect shape-rendering="optimizeSpeed"  x="61" y="142" width="9" height="9" fill="#ddd" />
<rect shape-rendering="optimizeSpeed"  x="70" y="142" width="9" height="9" fill="#ddd" />
<rect shape-rendering="optimizeSpeed"  x="88" y="142" width="9" height="9" fill="#ddd" />
<rect shape-rendering="optimizeSpeed"  x="124" y="142" width="9" height="9" fill="#ddd" />
<rect shape-rendering="optimizeSpeed"  x="160" y="142" width="9" height="9" fill="#ddd" />
<rect shape-rendering="optimizeSpeed"  x="196" y="142" width="9" height="9" fill="#ddd" />
<rect shape-rendering="optimizeSpeed"  x="16" y="151" width="9" height="9" fill="#ddd" />
<rect shape-rendering="optimizeSpeed"  x="70" y="151" width="9" height="9" fill="#ddd" />
<rect shape-rendering="optimizeSpeed"  x="88" y="151" width="9" height="9" fill="#ddd" />
<rect shape-rendering="optimizeSpeed"  x="97" y="151" width="9" height="9" fill="#ddd" />
<rect shape-rendering="optimizeSpeed"  x="106" y="151" width="9" height="9" fill="#ddd" />
<rect shape-rendering="optimizeSpeed"  x="142" y="151" width="9" height="9" fill="#ddd" />
<rect shape-rendering="optimizeSpeed"  x="178" y="151" width="9" height="9" fill="#ddd" />
<rect shape-rendering="optimizeSpeed"  x="187" y="151" width="9" height="9" fill="#ddd" />
<rect shape-rendering="optimizeSpeed"  x="16" y="160" width="9" height="9" fill="#ddd" />
<rect shape-rendering="optimizeSpeed"  x="34" y="160" width="9" height="9" fill="#ddd" />
<rect shape-rendering="optimizeSpeed"  x="43" y="160" width="9" height="9" fill="#ddd" />
<rect shape-rendering="optimizeSpeed"  x="52" y="160" width="9" height="9" fill="#ddd" />
<rect shape-rendering="optimizeSpeed"  x="70" y="160" width="9" height="9" fill="#ddd" />
<rect shape-rendering="optimizeSpeed"  x="88" y="160" width="9" height="9" fill="#ddd" />
<rect shape-rendering="optimizeSpeed"  x="124" y="160" width="9" height="9" fill="#ddd" />
<rect shape-rendering="optimizeSpeed"  x="142" y="160" width="9" height="9" fill="#ddd" />
<rect shape-rendering="optimizeSpeed"  x="160" y="160" width="9" height="9" fill="#ddd" />
<rect shape-rendering="optimizeSpeed"  x="178" y="160" width="9" height="9" fill="#ddd" />
<rect shape-rendering="optimizeSpeed"  x="196" y="160" width="9" height="9" fill="#ddd" />
<rect shape-rendering="optimizeSpeed"  x="16" y="169" width="9" height="9" fill="#ddd" />
<rect shape-rendering="optimizeSpeed"  x="34" y="169" width="9" height="9" fill="#ddd" />
<rect shape-rendering="optimizeSpeed"  x="43" y="169" width="9" height="9" fill="#ddd" />
<rect shape-rendering="optimizeSpeed"  x="52" y="169" width="9" height="9" fill="#ddd" />
<rect shape-rendering="optimizeSpeed"  x="70" y="169" width="9" height="9" fill="#ddd" />
<rect shape-rendering="optimizeSpeed"  x="97" y="169" width="9" height="9" fill="#ddd" />
<rect shape-rendering="optimizeSpeed"  x="115" y="169" width="9" height="9" fill="#ddd" />
<rect shape-rendering="optimizeSpeed"  x="133" y="169" width="9" height="9" fill="#ddd" />
<rect shape-rendering="optimizeSpeed"  x="151" y="169" width="9" height="9" fill="#ddd" />
<rect shape-rendering="optimizeSpeed"  x="169" y="169" width="9" height="9" fill="#ddd" />
<rect shape-rendering="optimizeSpeed"  x="187" y="169" width="9" height="9" fill="#ddd" />
<rect shape-rendering="optimizeSpeed"  x="16" y="178" width="9" height="9" fill="#ddd" />
<rect shape-rendering="optimizeSpeed"  x="34" y="178" width="9" height="9" fill="#ddd" />
<rect shape-rendering="optimizeSpeed"  x="43" y="178" width="9" height="9" fill="#ddd" />
<rect shape-rendering="optimizeSpeed"  x="52" y="178" width="9" height="9" fill="#ddd" />
<rect shape-rendering="optimizeSpeed"  x="70" y="178" width="9" height="9" fill="#ddd" />
<rect shape-rendering="optimizeSpeed"  x="88" y="178" width="9" height="9" fill="#ddd" />
<rect shape-rendering="optimizeSpeed"  x="106" y="178" width="9" height="9" fill="#ddd" />
<rect shape-rendering="optimizeSpeed"  x="115" y="178" width="9" height="9" fill="#ddd" />
<rect shape-rendering="optimizeSpeed"  x="133" y="178" width="9" height="9" fill="#ddd" />
<rect shape-rendering="optimizeSpeed"  x="142" y="178" width="9" height="9" fill="#ddd" />
<rect shape-rendering="optimizeSpeed"  x="151" y="178" width="9" height="9" fill="#ddd" />
<rect shape-rendering="optimizeSpeed"  x="169" y="178" width="9" height="9" fill="#ddd" />
<rect shape-rendering="optimizeSpeed"  x="178" y="178" width="9" height="9" fill="#ddd" />
<rect shape-rendering="optimizeSpeed"  x="196" y="178" width="9" height="9" fill="#ddd" />
<rect shape-rendering="optimizeSpeed"  x="16" y="187" width="9" height="9" fill="#ddd" />
<rect shape-rendering="optimizeSpeed"  x="70" y="187" width="9" height="9" fill="#ddd" />
<rect shape-rendering="optimizeSpeed"  x="88" y="187" width="9" height="9" fill="#ddd" />
<rect shape-rendering="optimizeSpeed"  x="97" y="187" width="9" height="9" fill="#ddd" />
<rect shape-rendering="optimizeSpeed"  x="115" y="187" width="9" height="9" fill="#ddd" />
<rect shape-rendering="optimizeSpeed"  x="124" y="187" width="9" height="9" fill="#ddd" />
<rect shape-rendering="optimizeSpeed"  x="133" y="187" width="9" height="9" fill="#ddd" />
<rect shape-rendering="optimizeSpeed"  x="151" y="187" width="9" height="9" fill="#ddd" />
<rect shape-rendering="optimizeSpeed"  x="160" y="187" width="9" height="9" fill="#ddd" />
<rect shape-rendering="optimizeSpeed"  x="169" y="187" width="9" height="9" fill="#ddd" />
<rect shape-rendering="optimizeSpeed"  x="187" y="187" width="9" height="9" fill="#ddd" />
<rect shape-rendering="optimizeSpeed"  x="16" y="196" width="9" height="9" fill="#ddd" />
<rect shape-rendering="optimizeSpeed"  x="25" y="196" width="9" height="9" fill="#ddd" />
<rect shape-rendering="optimizeSpeed"  x="34" y="196" width="9" height="9" fill="#ddd" />
<rect shape-rendering="optimizeSpeed"  x="43" y="196" width="9" height="9" fill="#ddd" />
<rect shape-rendering="optimizeSpeed"  x="52" y="196" width="9" height="9" fill="#ddd" />
<rect shape-rendering="optimizeSpeed"  x="61" y="196" width="9" height="9" fill="#ddd" />
<rect shape-rendering="optimizeSpeed"  x="70" y="196" width="9" height="9" fill="#ddd" />
<rect shape-rendering="optimizeSpeed"  x="88" y="196" width="9" height="9" fill="#ddd" />
<rect shape-rendering="optimizeSpeed"  x="97" y="196" width="9" height="9" fill="#ddd" />
<rect shape-rendering="optimizeSpeed"  x="115" y="196" width="9" height="9" fill="#ddd" />
<rect shape-rendering="optimizeSpeed"  x="133" y="196" width="9" height="9" fill="#ddd" />
<rect shape-rendering="optimizeSpeed"  x="142" y="196" width="9" height="9" fill="#ddd" />
<rect shape-rendering="optimizeSpeed"  x="151" y="196" width="9" height="9" fill="#ddd" />
<rect shape-rendering="optimizeSpeed"  x="169" y="196" width="9" height="9" fill="#ddd" />
<rect shape-rendering="optimizeSpeed"  x="178" y="196" width="9" height="9" fill="#ddd" />
<rect shape-rendering="optimizeSpeed"  x="187" y="196" width="9" height="9" fill="#ddd" />
<rect shape-rendering="optimizeSpeed"  x="196" y="196" width="9" height="9" fill="#ddd" /></svg>