<?xml version="1.0" encoding="UTF-8" standalone="no"?>
<!-- Created with Inkscape (http://www.inkscape.org/) -->

<svg
   version="1.1"
   id="svg2"
   xml:space="preserve"
   width="2955.3333"
   height="2418"
   viewBox="0 0 2955.3333 2418"
   sodipodi:docname="waving-hand.svg"
   inkscape:version="1.1.1 (3bf5ae0d25, 2021-09-20)"
   xmlns:inkscape="http://www.inkscape.org/namespaces/inkscape"
   xmlns:sodipodi="http://sodipodi.sourceforge.net/DTD/sodipodi-0.dtd"
   xmlns="http://www.w3.org/2000/svg"
   xmlns:svg="http://www.w3.org/2000/svg"><defs
     id="defs6"><clipPath
       clipPathUnits="userSpaceOnUse"
       id="clipPath18"><path
         d="M 0,0 H 2216.5 V 1813.5 H 0 Z"
         id="path16" /></clipPath><clipPath
       clipPathUnits="userSpaceOnUse"
       id="clipPath42"><path
         d="m 1271.42,1030.61 h 68.33 V 782.893 h -68.33 z"
         id="path40" /></clipPath></defs><sodipodi:namedview
     id="namedview4"
     pagecolor="#ffffff"
     bordercolor="#666666"
     borderopacity="1.0"
     inkscape:pageshadow="2"
     inkscape:pageopacity="0.0"
     inkscape:pagecheckerboard="0"
     showgrid="false"
     inkscape:zoom="0.30810587"
     inkscape:cx="1478.3879"
     inkscape:cy="1209"
     inkscape:window-width="1920"
     inkscape:window-height="1017"
     inkscape:window-x="-8"
     inkscape:window-y="-8"
     inkscape:window-maximized="1"
     inkscape:current-layer="g8" /><g
     id="g8"
     inkscape:groupmode="layer"
     inkscape:label="vectorstock_34982434"
     transform="matrix(1.3333333,0,0,-1.3333333,0,2418)"><path
       d="M 0,0 H 2216.5 V 1813.5 H 0 Z"
       style="fill:#ffffff;fill-opacity:1;fill-rule:nonzero;stroke:none"
       id="path10" /><g
       id="g12"><g
         id="g14"
         clip-path="url(#clipPath18)"><g
           id="g20"
           transform="translate(615.6562,886.0771)"><path
             d="m 0,0 c 7.17,16.231 20.972,28.628 37.878,34.027 16.73,5.339 34.966,3.324 50.12,-5.52 l 164.858,-90.032 37.072,-17.424 7.922,15.3 -161.708,124.107 c -0.212,0.165 -0.421,0.332 -0.629,0.5 L 1.424,170.733 c -13.101,10.725 -21.096,25.923 -22.516,42.794 -1.419,16.871 3.927,33.192 15.053,45.953 l 4.268,4.895 c 21.584,24.758 58.82,28.38 84.819,8.206 L 336.636,74.854 365.829,54.607 381.577,72.67 272.1,176.506 88.95,351.521 c -24.734,22.933 -26.746,60.812 -4.581,86.237 l 3.338,3.83 c 22.475,25.779 61.73,28.467 87.506,5.994 l 196.673,-171.46 c 0.353,-0.308 0.696,-0.625 1.031,-0.952 l 84.256,-81.989 42.62,-30.836 6.433,4.241 -58.959,91.048 -169.228,171.636 c -11.841,12.009 -18.34,28.564 -17.831,45.42 0.511,16.855 7.999,32.969 20.547,44.266 l 6.217,5.582 c 24.278,21.814 61.555,21.003 84.864,-1.845 L 547.269,350.724 c 0.9,-0.884 1.733,-1.83 2.494,-2.835 l 112.1,-148.115 57.058,-28.452 -3.813,19.678 -70.505,96.529 c -10.732,14.695 -14.991,32.67 -11.992,50.615 3,17.946 12.874,33.554 27.797,43.963 27.398,19.101 63.978,15.389 86.979,-8.828 L 896.651,216.145 c 1.92,-2.02 3.499,-4.342 4.672,-6.871 L 983.12,32.868 c 0.444,-0.958 0.828,-1.943 1.153,-2.953 23.163,-72.219 28.257,-144.1 15.134,-213.639 -14.475,-76.697 -52.742,-157.535 -105.601,-218.168 -48.458,-55.583 -109.188,-94.177 -175.058,-96.974 -21.967,-0.936 -44.25,2.078 -66.268,8.959 -40.296,6.073 -78.812,22.112 -111.517,46.464 L 288.803,-255.666 22.154,-76.543 C -2.854,-59.749 -12.17,-27.557 0,0"
             style="fill:#ffc92e;fill-opacity:1;fill-rule:nonzero;stroke:none"
             id="path22" /></g><g
           id="g24"
           transform="translate(1140.166,1511.7139)"><path
             d="m 0,0 c 0.135,-0.029 0.34,-0.112 0.474,-0.13 29.6,-7.565 59.061,-24.625 83.295,-50.355 24.162,-25.655 38.539,-56.084 45.21,-86.084 11.527,-51.836 -12.047,-54.244 -17.079,-38.993 -0.063,0.197 -0.143,0.153 -0.153,0.288 -9.921,32.295 -26.2,69.552 -54.604,99.71 -28.406,30.159 -65.155,47.542 -96.265,60.473 -0.209,0.087 -0.411,0.189 -0.545,0.207 C -53.829,-9.492 -49.296,10.806 0,0"
             style="fill:#401800;fill-opacity:1;fill-rule:nonzero;stroke:none"
             id="path26" /></g><g
           id="g28"
           transform="translate(1236.3711,1570.854)"><path
             d="m 0,0 c 0.088,-0.019 0.221,-0.073 0.308,-0.085 19.276,-4.926 38.46,-16.036 54.241,-32.791 15.734,-16.706 25.096,-36.52 29.439,-56.056 7.507,-33.755 -7.843,-35.324 -11.12,-25.392 -0.042,0.129 -0.094,0.1 -0.099,0.187 -6.461,21.031 -17.062,45.292 -35.559,64.931 -18.497,19.639 -42.427,30.958 -62.686,39.378 -0.136,0.057 -0.267,0.124 -0.354,0.135 C -35.053,-6.182 -32.102,7.037 0,0"
             style="fill:#401800;fill-opacity:1;fill-rule:nonzero;stroke:none"
             id="path30" /></g><g
           id="g32"
           transform="translate(559.2969,671.1514)"><path
             d="m 0,0 c 0.007,-0.137 0.058,-0.353 0.055,-0.487 2.788,-30.425 14.977,-62.212 36.551,-90.209 21.511,-27.915 49.285,-46.921 77.852,-58.251 49.362,-19.578 55.468,3.317 41.204,10.697 -0.185,0.095 -0.128,0.166 -0.26,0.196 -30.32,14.904 -64.535,36.867 -89.823,69.684 -25.288,32.815 -36.642,71.85 -44.492,104.615 -0.052,0.22 -0.122,0.436 -0.118,0.57 C 17.884,51.652 -2.875,50.386 0,0"
             style="fill:#401800;fill-opacity:1;fill-rule:nonzero;stroke:none"
             id="path34" /></g><g
           id="g36"><g
             id="g38" /><g
             id="g50"><g
               clip-path="url(#clipPath42)"
               id="g48"><g
                 transform="translate(1296.4668,1001.1768)"
                 id="g46"><path
                   d="m 0,0 c -0.077,-0.114 -0.166,-0.316 -0.249,-0.423 -15.995,-26.03 -25.281,-58.783 -24.781,-94.125 0.498,-35.238 11.348,-67.096 27.432,-93.282 27.792,-45.25 46.399,-30.576 39.399,-16.121 -0.091,0.186 -0.003,0.209 -0.09,0.312 -15.348,30.098 -29.582,68.183 -30.168,109.608 -0.586,41.425 13.71,79.481 27.056,110.416 0.089,0.209 0.163,0.422 0.247,0.528 C 45.265,30.64 27.885,42.064 0,0"
                   style="fill:#ffc92e;fill-opacity:1;fill-rule:nonzero;stroke:none"
                   id="path44" /></g></g></g></g><g
           id="g52"
           transform="translate(485.6904,585.5078)"><path
             d="m 0,0 c 0.005,-0.09 0.037,-0.229 0.035,-0.318 1.816,-19.812 9.753,-40.511 23.802,-58.743 14.008,-18.177 32.094,-30.554 50.697,-37.932 32.143,-12.749 36.119,2.161 26.83,6.966 -0.12,0.062 -0.083,0.108 -0.168,0.129 -19.745,9.704 -42.025,24.006 -58.492,45.376 -16.467,21.37 -23.861,46.788 -28.973,68.124 -0.034,0.143 -0.079,0.284 -0.076,0.372 C 11.646,33.635 -1.873,32.81 0,0"
             style="fill:#401800;fill-opacity:1;fill-rule:nonzero;stroke:none"
             id="path54" /></g></g></g></g></svg>
